<svg xmlns="http://www.w3.org/2000/svg" viewBox="0 0 504 560"><!--! Font Awesome Pro 7.1.0 by @fontawesome - https://fontawesome.com License - https://fontawesome.com/license (Commercial License) Copyright 2025 Fonticons, Inc. --><path fill="currentColor" d="M504 223.3c0-15-5.2-30-15.7-41.8-26.8-30.3-114.5-125-210.1-175.1-8.3-4.4-17.4-6.4-26.2-6.4s-17.9 2-26.2 6.4c-95.6 50.1-183.3 144.8-210.1 175.1-10.5 11.8-15.7 26.8-15.7 41.8 0 29.6 20.4 56.5 51.3 61.9 23.4 4.1 60.6 9.7 108.1 13l-15.5 186C140.5 525 172.7 560 213.6 560l76.7 0c41 0 73.2-35 69.8-75.8l-15.5-186c47.5-3.3 84.7-8.9 108.1-13 30.9-5.4 51.3-32.4 51.3-61.9zm-57.6-4.7c3.1 3.5 1.7 10.6-3.3 11.5-21.7 3.8-56.2 8.8-101.7 11.9-31 2.1-55.2 29.1-52.6 60.9l15.5 186c.7 8.2-5.8 15.2-14 15.2l-76.7 0c-8.2 0-14.6-7-14-15.2l15.5-186c2.7-31.8-21.6-58.7-52.6-60.9-45.4-3.1-80-8.1-101.7-11.9-5-.9-6.4-8-3.3-11.5 26.6-30.1 108.7-117.7 194.4-162.6 85.6 44.9 167.8 132.5 194.4 162.6z"/></svg>