<svg xmlns="http://www.w3.org/2000/svg" viewBox="0 0 560 560"><!--! Font Awesome Pro 7.1.0 by @fontawesome - https://fontawesome.com License - https://fontawesome.com/license (Commercial License) Copyright 2025 Fonticons, Inc. --><path fill="currentColor" d="M56 280c0-71 22.5-126.4 60-164s93-60 164-60 126.4 22.5 164 60 60 93 60 164c0 37.6-6.3 70.8-17.8 99.3-5.8 14.3 1.2 30.7 15.5 36.4s30.7-1.2 36.4-15.5c14.4-35.9 21.8-76.3 21.8-120.2 0-83-26.5-153.6-76.5-203.5S363 0 280 0 126.4 26.5 76.5 76.5 0 197 0 280c0 43.9 7.4 84.3 21.8 120.2 5.8 14.3 22.1 21.3 36.4 15.5s21.3-22.1 15.5-36.4C62.3 350.8 56 317.6 56 280zM199 143c20.7-20.7 49.4-31 81-31s60.3 10.2 81 31 31 49.3 31 81-10.2 60.3-31 81-49.4 31-81 31-60.3-10.2-81-31-31-49.3-31-81 10.2-60.3 31-81zm39.6 39.6C230.1 191 224 204.4 224 224s6.1 33 14.5 41.5 21.8 14.5 41.5 14.5 33-6.1 41.5-14.5 14.5-21.8 14.5-41.5-6.1-33-14.5-41.5-21.8-14.5-41.5-14.5-33 6.1-41.5 14.5zM140.6 397.7C169.1 382.5 207.8 378 256 378l48 0c48.2 0 86.9 4.5 115.4 19.7 31.5 16.8 46.4 44.3 52.6 78.2 2.8 15.2-7.3 29.8-22.5 32.6s-29.8-7.3-32.6-22.5c-4.1-22.3-11.6-32.3-23.9-38.8-15.3-8.2-41.7-13.1-89-13.1l-48 0c-47.2 0-73.6 4.9-89 13.1-12.3 6.6-19.8 16.5-23.9 38.8-2.8 15.2-17.3 25.3-32.6 22.5s-25.3-17.3-22.5-32.6c6.2-33.9 21.1-61.4 52.6-78.2z"/></svg>