<svg xmlns="http://www.w3.org/2000/svg" viewBox="0 0 504 560"><!--! Font Awesome Pro 7.1.0 by @fontawesome - https://fontawesome.com License - https://fontawesome.com/license (Commercial License) Copyright 2025 Fonticons, Inc. --><path fill="currentColor" d="M224 196l0-56c0-31.7-10.2-60.3-31-81s-49.3-31-81-31-60.3 10.2-81 31-31 49.3-31 81 10.2 60.3 31 81 49.3 31 81 31l56 0 0 56-56 0c-31.7 0-60.3 10.2-81 31s-31 49.4-31 81 10.2 60.3 31 81 49.3 31 81 31 60.3-10.2 81-31 31-49.4 31-81l0-56 56 0 0 56c0 31.7 10.2 60.3 31 81s49.4 31 81 31 60.3-10.2 81-31 31-49.4 31-81-10.2-60.3-31-81-49.4-31-81-31l-56 0 0-56 56 0c31.7 0 60.3-10.2 81-31s31-49.3 31-81-10.2-60.3-31-81-49.4-31-81-31-60.3 10.2-81 31-31 49.3-31 81l0 56-56 0zM70.5 98.5C79 90.1 92.4 84 112 84s33 6.1 41.5 14.5 14.5 21.8 14.5 41.5l0 56-56 0c-19.6 0-33-6.1-41.5-14.5S56 159.6 56 140 62.1 107 70.5 98.5zM224 252l56 0 0 56-56 0 0-56zm112-56l0-56c0-19.6 6.1-33 14.5-41.5S372.4 84 392 84 425 90.1 433.5 98.5 448 120.4 448 140 441.9 173 433.5 181.5 411.6 196 392 196l-56 0zm0 168l56 0c19.6 0 33 6.1 41.5 14.5s14.5 21.8 14.5 41.5-6.1 33-14.5 41.5-21.8 14.5-41.5 14.5-33-6.1-41.5-14.5-14.5-21.8-14.5-41.5l0-56zm-168 0l0 56c0 19.6-6.1 33-14.5 41.5S131.6 476 112 476 79 469.9 70.5 461.5 56 439.6 56 420 62.1 387 70.5 378.5 92.4 364 112 364l56 0z"/></svg>