<svg xmlns="http://www.w3.org/2000/svg" viewBox="0 0 672 560"><!--! Font Awesome Pro 7.1.0 by @fontawesome - https://fontawesome.com License - https://fontawesome.com/license (Commercial License) Copyright 2025 Fonticons, Inc. --><path fill="currentColor" d="M518 252c-36 0-68.1 11.6-91.3 34.7S392 342 392 378 403.6 446.1 426.7 469.3 482 504 518 504c37.1 0 70.3-12.5 93.5-37l6 17.9c4.9 14.7 20.7 22.6 35.4 17.7s22.6-20.7 17.7-35.4l-16.5-49.5c-6.7-20-10.1-40.9-10.1-62l0-89.7c0-15.5-12.5-28-28-28-18.4 0-28 15.5-28 32.1-20-12.1-44-18.1-70-18.1zM448 378c0-23.9 7.5-40.8 18.3-51.7s27.7-18.3 51.7-18.3 40.8 7.5 51.7 18.3 18.3 27.7 18.3 51.7-7.5 40.8-18.3 51.7-27.7 18.3-51.7 18.3-40.8-7.5-51.7-18.3-18.3-27.7-18.3-51.7zM308.3 480c-5.5-38.1-13.4-77.5-22.5-116l-179.5 0c-9.2 38.5-17.1 77.8-22.5 116-2.2 15.3-16.4 25.9-31.7 23.8S26.1 487.3 28.3 472c23.6-164.9 90.4-347.9 113-406.6 8.8-23 30.8-37.4 54.8-37.4s45.9 14.4 54.8 37.4c22.5 58.7 89.4 241.8 113 406.6 2.2 15.3-8.5 29.5-23.8 31.7s-29.5-8.5-31.7-23.8zM271.4 308c-26.9-98.8-61.3-186.2-75.6-223.5-14.3 37.3-48.3 124.7-75.2 223.5l150.9 0z"/></svg>