<svg xmlns="http://www.w3.org/2000/svg" viewBox="0 0 560 560"><!--! Font Awesome Pro 7.1.0 by @fontawesome - https://fontawesome.com License - https://fontawesome.com/license (Commercial License) Copyright 2025 Fonticons, Inc. --><path fill="currentColor" d="M69.6 192.2c21.5-63.1 68.3-108.2 136.1-126.8-37.3 60.9-51.5 136.6-52.2 209.2-25.5-2.4-46.3-5.3-62.9-8.2-17.6-3.1-35.5-6.2-52.3-12.5-14.3-5.6-30.5 1.3-36.2 15.7-5.7 14.4 1.2 30.7 15.6 36.4 20.3 8 42 11.9 63.4 15.6 19.7 3.4 44.5 6.8 74.8 9.5 5.3 57.9 20.4 115.4 49.9 163.6-64.8-17.7-110.4-59.7-133-118.2-5.6-14.4-21.8-21.6-36.2-16s-21.6 21.8-16 36.2C60.5 500.2 155.6 560 280 560s219.6-59.8 259.6-163.5c5.6-14.4-1.6-30.6-16-36.2s-30.6 1.6-36.2 16c-22.6 58.6-68.1 100.5-133 118.2 29.5-48.2 44.6-105.7 49.9-163.6 30.3-2.6 55-6 74.8-9.5 21.4-3.7 43.1-7.5 63.4-15.6 14.4-5.7 21.3-22 15.6-36.4-5.7-14.3-21.9-21.3-36.2-15.7-16.8 6.3-34.7 9.4-52.3 12.5-16.6 2.9-37.4 5.8-62.9 8.2-.7-72.7-14.8-148.3-52.2-209.2 67.8 18.5 114.6 63.6 136.1 126.8 5 14.6 20.9 22.5 35.5 17.5s22.5-20.9 17.5-35.5C506.1 64.2 408.8 0 280 0S53.9 64.2 16.5 174.1c-5 14.6 2.9 30.5 17.5 35.5s30.5-2.9 35.5-17.5zM212.4 334.6c20.7 .9 43.2 1.4 67.6 1.4s47-.5 67.6-1.4c-7.3 65.5-28.7 124.4-67.6 165.1-38.9-40.7-60.4-99.6-67.6-165.1zM280 60.3c49.2 51.5 70.3 131.9 70.6 218.2-21.3 1-44.7 1.5-70.6 1.5s-49.3-.6-70.6-1.5c.2-86.3 21.3-166.7 70.6-218.2z"/></svg>