<svg xmlns="http://www.w3.org/2000/svg" viewBox="0 0 560 560"><!--! Font Awesome Pro 7.1.0 by @fontawesome - https://fontawesome.com License - https://fontawesome.com/license (Commercial License) Copyright 2025 Fonticons, Inc. --><path fill="currentColor" d="M42.3 70.3C70.4 42.3 109.5 28 154 28S237.6 42.3 265.7 70.3 308 137.5 308 182l0 300.2c0 27.5-22.3 49.8-49.8 49.8-9.2 0-18.6-2.5-26.9-8.1-17.7-11.8-74.6-51.6-127.3-110.2-52.2-58.1-104-138.7-104-231.7 0-44.5 14.3-83.6 42.3-111.7zm39.6 39.6c-15.7 15.7-25.9 39.6-25.9 72.1 0 72.5 40.9 140 89.6 194.3 40.5 45.1 84 78.2 106.4 93.9L252 182c0-32.5-10.2-56.4-25.9-72.1S186.5 84 154 84 97.6 94.2 81.9 109.9z"/></svg>