<svg xmlns="http://www.w3.org/2000/svg" viewBox="0 0 504 560"><!--! Font Awesome Pro 7.1.0 by @fontawesome - https://fontawesome.com License - https://fontawesome.com/license (Commercial License) Copyright 2025 Fonticons, Inc. --><path fill="currentColor" d="M252 0c-40.3 0-75.9 12.9-101.5 38.5S112 99.7 112 140l0 84c0 40.3 12.9 75.9 38.5 101.5S211.7 364 252 364 327.9 351.1 353.5 325.5 392 264.3 392 224l0-84c0-40.3-12.9-75.9-38.5-101.5S292.3 0 252 0zM168 140c0-28.2 8.8-48.6 22.1-61.9S223.8 56 252 56 300.6 64.8 313.9 78.1 336 111.8 336 140l0 84c0 28.2-8.8 48.6-22.1 61.9S280.2 308 252 308 203.4 299.2 190.1 285.9 168 252.2 168 224l0-84zM56 224c0-15.5-12.5-28-28-28S0 208.5 0 224c0 74.5 23.8 138.1 68.9 183.1 39.3 39.3 92.7 62.4 155.1 67.7l0 57.2c0 15.5 12.5 28 28 28s28-12.5 28-28l0-57.2c62.4-5.3 115.8-28.4 155.1-67.7 45-45 68.9-108.7 68.9-183.1 0-15.5-12.5-28-28-28s-28 12.5-28 28c0 62.4-19.7 110.8-52.5 143.5S314.4 420 252 420 141.2 400.3 108.5 367.5 56 286.4 56 224z"/></svg>