<svg xmlns="http://www.w3.org/2000/svg" viewBox="0 0 512 512"><!--! Font Awesome Pro 7.1.0 by @fontawesome - https://fontawesome.com License - https://fontawesome.com/license (Commercial License) Copyright 2025 Fonticons, Inc. --><path opacity=".4" fill="currentColor" d="M0 128L0 352c0 30.1 20.7 55.3 48.7 62.2l62.2-62.2-46.9 0 0-224 384 0 0 224-46.9 0 62.2 62.2c28-6.9 48.7-32.1 48.7-62.2l0-224c0-35.3-28.7-64-64-64L64 64C28.7 64 0 92.7 0 128z"/><path fill="currentColor" d="M128 480c-12.9 0-24.6-7.8-29.6-19.8s-2.2-25.7 6.9-34.9l128-128c12.5-12.5 32.8-12.5 45.3 0l128 128c9.2 9.2 11.9 22.9 6.9 34.9S396.9 480 384 480l-256 0z"/></svg>