<svg xmlns="http://www.w3.org/2000/svg" viewBox="0 0 512 512"><!--! Font Awesome Pro 7.1.0 by @fontawesome - https://fontawesome.com License - https://fontawesome.com/license (Commercial License) Copyright 2025 Fonticons, Inc. --><path opacity=".4" fill="currentColor" d="M32 288c0 50.3 16.6 96.8 44.6 134.2L41.4 457.4c-12.5 12.5-12.5 32.8 0 45.3s32.8 12.5 45.3 0l35.2-35.2c37.4 28 83.8 44.6 134.1 44.6s96.8-16.6 134.2-44.6l35.2 35.2c12.5 12.5 32.8 12.5 45.3 0s12.5-32.8 0-45.3l-35.2-35.2c28-37.4 44.6-83.8 44.6-134.2 0-123.7-100.3-224-224-224S32 164.3 32 288zM232 184c0-13.3 10.7-24 24-24s24 10.7 24 24l0 94.1 49 49c9.4 9.4 9.4 24.6 0 33.9s-24.6 9.4-33.9 0l-56-56c-4.5-4.5-7-10.6-7-17l0-104z"/><path fill="currentColor" d="M479.5 132.9c6.5 9.4 20.5 10.1 24.9-.4 4.9-11.5 7.6-24.1 7.6-37.3 0-52.6-42.6-95.2-95.2-95.2-19.3 0-37.3 5.8-52.3 15.7-9.6 6.3-6.3 19.9 4.1 24.6 44.8 20.4 83.1 52.6 111 92.6zM7.6 132.5c4.5 10.5 18.4 9.8 24.9 .4 27.8-40 66.1-72.2 111-92.6 10.4-4.7 13.7-18.3 4.1-24.6-15-9.9-33-15.7-52.3-15.7-52.6 0-95.2 42.6-95.2 95.2 0 13.2 2.7 25.8 7.6 37.3zM280 184c0-13.3-10.7-24-24-24s-24 10.7-24 24l0 104c0 6.4 2.5 12.5 7 17l56 56c9.4 9.4 24.6 9.4 33.9 0s9.4-24.6 0-33.9l-49-49 0-94.1z"/></svg>