<svg xmlns="http://www.w3.org/2000/svg" viewBox="0 0 576 512"><!--! Font Awesome Pro 7.1.0 by @fontawesome - https://fontawesome.com License - https://fontawesome.com/license (Commercial License) Copyright 2025 Fonticons, Inc. --><path opacity=".4" fill="currentColor" d="M16.5 246.8l32 224C51.9 494.4 72.1 512 96 512l180 0c-10.5-14.6-19-30.8-25.1-48.1-86-1.9-154.9-51.3-154.9-111.9 0-61.9 71.6-112 160-112 20.8 0 40.7 2.8 58.9 7.8 32.4-25 73-39.8 117.1-39.8 20.3 0 39.8 3.1 58.1 8.9-1.6-3-3.6-5.8-5.8-8.4-9.1-10.5-22.3-16.6-36.3-16.6L64 192c-13.9 0-27.1 6-36.3 16.6S14.5 233 16.5 246.8zM80 120c0 13.3 10.7 24 24 24l304 0c13.3 0 24-10.7 24-24s-10.7-24-24-24L104 96c-13.3 0-24 10.7-24 24zm48-96c0 13.3 10.7 24 24 24l208 0c13.3 0 24-10.7 24-24S373.3 0 360 0L152 0c-13.3 0-24 10.7-24 24zm88 328c0 11.8 10.5 21.9 25.2 26 2.2-19 7.1-37.1 14.4-54-21.9 .1-39.6 12.6-39.6 28z"/><path fill="currentColor" d="M432 544a144 144 0 1 0 0-288 144 144 0 1 0 0 288zm0-32c-30.2 0-57.5-11.9-77.7-31.3 6.2-19 24-32.7 45.1-32.7l65.2 0c21 0 38.9 13.7 45.1 32.7-20.1 19.4-47.5 31.3-77.7 31.3zm0-192a48 48 0 1 1 0 96 48 48 0 1 1 0-96z"/></svg>