<svg xmlns="http://www.w3.org/2000/svg" viewBox="0 0 576 512"><!--! Font Awesome Pro 7.1.0 by @fontawesome - https://fontawesome.com License - https://fontawesome.com/license (Commercial License) Copyright 2025 Fonticons, Inc. --><path opacity=".4" fill="currentColor" d="M64 192c0 17.7 14.3 32 32 32l58.2 0-63.6-63.6C75.5 163 64 176.2 64 192zm0 128c0 17.7 14.3 32 32 32l186.2 0-64-64-122.2 0c-17.7 0-32 14.3-32 32zm0 128c0 17.7 14.3 32 32 32l314.2 0-64-64-250.2 0c-17.7 0-32 14.3-32 32z"/><path fill="currentColor" d="M7-24.9c9.4-9.4 24.6-9.4 33.9 0L97.8 32 480 32c17.7 0 32 14.3 32 32s-14.3 32-32 32l-318.2 0 64 64 254.2 0c17.7 0 32 14.3 32 32s-14.3 32-32 32l-190.2 0 64 64 126.2 0c17.7 0 32 14.3 32 32s-14.3 32-32 32L417.8 352 569 503.1c9.4 9.4 9.4 24.6 0 33.9s-24.6 9.4-33.9 0L7 9.1C-2.3-.3-2.3-15.5 7-24.9z"/></svg>