<svg xmlns="http://www.w3.org/2000/svg" viewBox="0 0 512 512"><!--! Font Awesome Pro 7.0.1 by @fontawesome - https://fontawesome.com License - https://fontawesome.com/license (Commercial License) Copyright 2025 Fonticons, Inc. --><path style="fill:var(--fa-secondary-color,currentColor);opacity:var(--fa-secondary-opacity,.4)" d="M224 32c0 17.7 14.3 32 32 32 106 0 192 86 192 192S362 448 256 448c-17.7 0-32 14.3-32 32s14.3 32 32 32c141.4 0 256-114.6 256-256S397.4 0 256 0c-17.7 0-32 14.3-32 32z"/><path style="fill:var(--fa-primary-color,currentColor);opacity:var(--fa-primary-opacity,1)" d="M166.6 121.4c-12.5-12.5-32.8-12.5-45.3 0l-112 112c-12.5 12.5-12.5 32.8 0 45.3l112 112c12.5 12.5 32.8 12.5 45.3 0s12.5-32.8 0-45.3L109.3 288 320 288c17.7 0 32-14.3 32-32s-14.3-32-32-32l-210.7 0 57.4-57.4c12.5-12.5 12.5-32.8 0-45.3z"/></svg>