<svg xmlns="http://www.w3.org/2000/svg" viewBox="0 0 512 512"><!--! Font Awesome Pro 7.1.0 by @fontawesome - https://fontawesome.com License - https://fontawesome.com/license (Commercial License) Copyright 2025 Fonticons, Inc. --><path opacity=".4" fill="currentColor" d="M9.4 457.4c-12.5 12.5-12.5 32.8 0 45.3s32.8 12.5 45.3 0L176 381.3 176 432c0 17.7 14.3 32 32 32s32-14.3 32-32l0-128c0-17.7-14.3-32-32-32L80 272c-17.7 0-32 14.3-32 32s14.3 32 32 32l50.7 0-121.4 121.4z"/><path fill="currentColor" d="M502.6 9.4c12.5 12.5 12.5 32.8 0 45.3L381.3 176 432 176c17.7 0 32 14.3 32 32s-14.3 32-32 32l-128 0c-17.7 0-32-14.3-32-32l0-128c0-17.7 14.3-32 32-32s32 14.3 32 32l0 50.7 121.4-121.4c12.5-12.5 32.8-12.5 45.3 0z"/></svg>