<svg xmlns="http://www.w3.org/2000/svg" viewBox="0 0 512 512"><!--! Font Awesome Pro 7.1.0 by @fontawesome - https://fontawesome.com License - https://fontawesome.com/license (Commercial License) Copyright 2025 Fonticons, Inc. --><path opacity=".4" fill="currentColor" d="M0 256C0 397.4 114.6 512 256 512S512 397.4 512 256c0-17.7-14.3-32-32-32s-32 14.3-32 32c0 106-86 192-192 192S64 362 64 256c0-17.7-14.3-32-32-32S0 238.3 0 256z"/><path fill="currentColor" d="M374.6 201.4c12.5 12.5 12.5 32.8 0 45.3l-96 96c-12.5 12.5-32.8 12.5-45.3 0l-96-96c-12.5-12.5-12.5-32.8 0-45.3s32.8-12.5 45.3 0L224 242.7 224 32c0-17.7 14.3-32 32-32s32 14.3 32 32l0 210.7 41.4-41.4c12.5-12.5 32.8-12.5 45.3 0z"/></svg>