<svg xmlns="http://www.w3.org/2000/svg" viewBox="0 0 512 512"><!--! Font Awesome Pro 7.1.0 by @fontawesome - https://fontawesome.com License - https://fontawesome.com/license (Commercial License) Copyright 2025 Fonticons, Inc. --><path opacity=".4" fill="currentColor" d="M276 207.5c5.6 10.2 16.4 16.5 28 16.5l160 0c11.6 0 22.3-6.3 28-16.5s5.3-22.6-.9-32.5l-80-128C405.3 37.7 395 32 384 32s-21.3 5.7-27.1 15l-80 128c-6.2 9.9-6.5 22.3-.9 32.5zM288 336l0 96c0 26.5 21.5 48 48 48l96 0c26.5 0 48-21.5 48-48l0-96c0-26.5-21.5-48-48-48l-96 0c-26.5 0-48 21.5-48 48z"/><path fill="currentColor" d="M105.4 41.4c12.5-12.5 32.8-12.5 45.3 0l80 80c12.5 12.5 12.5 32.8 0 45.3s-32.8 12.5-45.3 0L160 141.3 160 448c0 17.7-14.3 32-32 32s-32-14.3-32-32l0-306.7-25.4 25.4c-12.5 12.5-32.8 12.5-45.3 0s-12.5-32.8 0-45.3l80-80z"/></svg>