<svg xmlns="http://www.w3.org/2000/svg" viewBox="0 0 512 512"><!--! Font Awesome Pro 7.0.1 by @fontawesome - https://fontawesome.com License - https://fontawesome.com/license (Commercial License) Copyright 2025 Fonticons, Inc. --><path style="fill:var(--fa-secondary-color,currentColor);opacity:var(--fa-secondary-opacity,.4)" d="M64 448c0 16.6 12.6 30.2 28.7 31.8l3.3 .2 224 0c106 0 192-86 192-192l-.2-9.9C506.6 176.7 422.7 96 320 96l-210.7 0-32 32 32 32 210.8 0c68.5 0 124.4 53.8 127.8 121.4l.2 6.6c0 70.7-57.3 128-128 128l-224 0-3.3 .2C76.6 417.8 64 431.4 64 448z"/><path style="fill:var(--fa-primary-color,currentColor);opacity:var(--fa-primary-opacity,1)" d="M7.2 148.2c-10.3-12.6-9.5-31.1 2.2-42.8l112-112c12.5-12.5 32.8-12.5 45.2 0s12.5 32.8 0 45.2l-89.4 89.4 89.4 89.4 2.2 2.4c10.2 12.6 9.5 31.1-2.2 42.8s-30.2 12.4-42.8 2.2l-2.4-2.2-112-112-2.2-2.4z"/></svg>