<svg xmlns="http://www.w3.org/2000/svg" viewBox="0 0 512 512"><!--! Font Awesome Pro 7.0.1 by @fontawesome - https://fontawesome.com License - https://fontawesome.com/license (Commercial License) Copyright 2025 Fonticons, Inc. --><path style="fill:var(--fa-secondary-color,currentColor);opacity:var(--fa-secondary-opacity,.4)" d="M0 352L0 480c0 17.7 14.3 32 32 32l128 0c17.7 0 32-14.3 32-32s-14.3-32-32-32l-50.7 0 105.4-105.4c12.5-12.5 12.5-32.8 0-45.3s-32.8-12.5-45.3 0L64 402.7 64 352c0-17.7-14.3-32-32-32S0 334.3 0 352z"/><path style="fill:var(--fa-primary-color,currentColor);opacity:var(--fa-primary-opacity,1)" d="M320 32c0-17.7 14.3-32 32-32L480 0c17.7 0 32 14.3 32 32l0 128c0 17.7-14.3 32-32 32s-32-14.3-32-32l0-50.7-105.4 105.4c-12.5 12.5-32.8 12.5-45.3 0s-12.5-32.8 0-45.3L402.7 64 352 64c-17.7 0-32-14.3-32-32z"/></svg>