<svg xmlns="http://www.w3.org/2000/svg" viewBox="0 0 512 512"><!--! Font Awesome Pro 7.1.0 by @fontawesome - https://fontawesome.com License - https://fontawesome.com/license (Commercial License) Copyright 2025 Fonticons, Inc. --><path opacity=".4" fill="currentColor" d="M0 480c0-17.7 14.3-32 32-32l448 0c17.7 0 32 14.3 32 32s-14.3 32-32 32L32 512c-17.7 0-32-14.3-32-32z"/><path fill="currentColor" d="M105.4 374.6c12.5 12.5 32.8 12.5 45.3 0l64-64c12.5-12.5 12.5-32.8 0-45.3s-32.8-12.5-45.3 0L160 274.7 160 32c0-17.7-14.3-32-32-32S96 14.3 96 32l0 242.7-9.4-9.4c-12.5-12.5-32.8-12.5-45.3 0s-12.5 32.8 0 45.3l64 64zm256 0c12.5 12.5 32.8 12.5 45.3 0l64-64c12.5-12.5 12.5-32.8 0-45.3s-32.8-12.5-45.3 0L416 274.7 416 32c0-17.7-14.3-32-32-32s-32 14.3-32 32l0 242.7-9.4-9.4c-12.5-12.5-32.8-12.5-45.3 0s-12.5 32.8 0 45.3l64 64z"/></svg>