<svg xmlns="http://www.w3.org/2000/svg" viewBox="0 0 512 512"><!--! Font Awesome Pro 7.1.0 by @fontawesome - https://fontawesome.com License - https://fontawesome.com/license (Commercial License) Copyright 2025 Fonticons, Inc. --><path opacity=".4" fill="currentColor" d="M0 256c0 17.7 14.3 32 32 32s32-14.3 32-32c0-70.7 57.3-128 128-128l178.7 0-25.4 25.4c-12.5 12.5-12.5 32.8 0 45.3s32.8 12.5 45.3 0l80-80c6-6 9.4-14.1 9.4-22.6s-3.4-16.6-9.4-22.6l-80-80c-12.5-12.5-32.8-12.5-45.3 0s-12.5 32.8 0 45.3L370.7 64 192 64C86 64 0 150 0 256zM32 416c0 8.5 3.4 16.6 9.4 22.6l80 80c12.5 12.5 32.8 12.5 45.3 0s12.5-32.8 0-45.3L141.3 448 320 448c106 0 192-86 192-192 0-17.7-14.3-32-32-32s-32 14.3-32 32c0 70.7-57.3 128-128 128l-178.7 0 25.4-25.4c12.5-12.5 12.5-32.8 0-45.3s-32.8-12.5-45.3 0l-80 80c-6 6-9.4 14.1-9.4 22.6z"/><path fill="currentColor" d="M278 196.5c6.3 4.5 10 11.8 10 19.5l0 80c0 13.3-10.7 24-24 24s-24-10.7-24-24l0-48c-10 0-19.4-6.4-22.8-16.4-4.2-12.6 2.6-26.2 15.2-30.4l24-8c7.3-2.4 15.4-1.2 21.6 3.3z"/></svg>