<svg xmlns="http://www.w3.org/2000/svg" viewBox="0 0 384 512"><!--! Font Awesome Pro 7.1.0 by @fontawesome - https://fontawesome.com License - https://fontawesome.com/license (Commercial License) Copyright 2025 Fonticons, Inc. --><path opacity=".4" fill="currentColor" d="M160 96l0 306.7 32 32 32-32 0-306.7c0-17.7 14.3-32 32-32l96 0c17.7 0 32-14.3 32-32S369.7 0 352 0L256 0c-53 0-96 43-96 96z"/><path fill="currentColor" d="M342.6 329.4c12.5 12.5 12.5 32.8 0 45.3l-128 128c-12.5 12.5-32.8 12.5-45.3 0l-128-128c-12.5-12.5-12.5-32.8 0-45.3s32.8-12.5 45.3 0L192 434.7 297.4 329.4c12.5-12.5 32.8-12.5 45.3 0z"/></svg>