<svg xmlns="http://www.w3.org/2000/svg" viewBox="0 0 512 512"><!--! Font Awesome Pro 7.1.0 by @fontawesome - https://fontawesome.com License - https://fontawesome.com/license (Commercial License) Copyright 2025 Fonticons, Inc. --><path opacity=".4" fill="currentColor" d="M60.9 156.9c-81.2 81.2-81.2 212.9 0 294.2s212.9 81.2 294.2 0c32.3-32.3 56.1-84.9 66.3-136.7 4.6-23.5 19.6-43.9 38.1-59.1 32.1-26.4 52.6-66.4 52.6-111.3 0-79.5-64.5-144-144-144-44.8 0-84.9 20.5-111.3 52.6-15.2 18.5-35.6 33.5-59.1 38.1-51.9 10.2-104.5 34-136.7 66.3zm87.5 206.7c-32.7-32.7-25.3-93 16.4-134.8s102.1-49.1 134.8-16.4 25.3 93-16.4 134.8-102.1 49.1-134.8 16.4z"/><path fill="currentColor" d="M299.6 212.4c32.7 32.7 25.3 93-16.4 134.8s-102.1 49.1-134.8 16.4-25.3-93 16.4-134.8 102.1-49.1 134.8-16.4z"/></svg>