<svg xmlns="http://www.w3.org/2000/svg" viewBox="0 0 576 512"><!--! Font Awesome Pro 7.1.0 by @fontawesome - https://fontawesome.com License - https://fontawesome.com/license (Commercial License) Copyright 2025 Fonticons, Inc. --><path opacity=".4" fill="currentColor" d="M25.4 441.4c-12.5 12.5-12.5 32.8 0 45.3l32 32 2.4 2.2c12.6 10.2 31.1 9.5 42.8-2.2l64-64 2.2-2.4c8.2-10.1 9.4-24.1 3.4-35.2-.5-1-1.1-1.9-1.7-2.9-.5-.8-1.1-1.5-1.7-2.3l-2.2-2.4c-10.7-10.7-21.3-21.3-32-32-2.3-2.3-4.9-4.2-7.7-5.7-11.2-5.9-25.1-4.7-35.2 3.5l-2.4 2.2-64 64zM240 205l.4 10.4c2.1 23.9 11.4 45 27.3 60.9 40.4 40.4 120.7 39 180.1-20.5 30.4-30.4 46.2-67.7 48-102l.2-6.8c0-28.2-9.6-53.2-27.7-71.3-15.9-15.9-37-25.2-60.9-27.3L397 48c-36 0-76.4 15.8-108.8 48.2S240 168.9 240 205zM404.3 524.3c-2 10.9 5.1 21.3 16 23.3 10.9 2 21.3-5.1 23.3-16l6.7-35.7 9.7 0 0 32c0 11 9 20 20 20 11 0 20-9 20-20l0-32 9.7 0 6.7 35.7 1.2 3.9c3.5 8.6 12.7 13.9 22.2 12.1s16.2-10 16.3-19.3l-.3-4-18.1-96.5c-5.2-27.7-29.4-47.8-57.6-47.8-26.4 0-49.3 17.6-56.4 42.7l-1.2 5.1-18.1 96.5z"/><path fill="currentColor" d="M405-15.8c40 1.7 78.8 16.6 108.5 46.3l5.7 6.1C547 67.4 560 106.9 560 147l-.3 10.2c-2.7 51-25.8 103-66.7 143.8-54.4 54.4-131.8 78.6-198.2 61.6-29.4-7.5-62.9-5.5-84.3 16L172.2 417c-1-1.8-2-3.6-3.4-5.2l-2.2-2.4-32-32c-2.3-2.3-4.9-4.2-7.7-5.7l38.6-38.6c21.4-21.4 23.5-54.7 16-83.9-3-11.8-4.8-24-5.3-36.2l-.2-8c0-54.2 23.4-110.5 66.9-154S342.8-16 397-16l8 .2zM397 48c-36 0-76.4 15.8-108.8 48.2S240 168.9 240 205l.4 10.4c2.1 23.9 11.4 45 27.3 60.9 40.4 40.4 120.7 39 180.1-20.5 30.4-30.4 46.2-67.7 48-102l.2-6.8c0-28.2-9.6-53.2-27.7-71.3-15.9-15.9-37-25.2-60.9-27.3L397 48z"/></svg>