<svg xmlns="http://www.w3.org/2000/svg" viewBox="0 0 576 512"><!--! Font Awesome Pro 7.1.0 by @fontawesome - https://fontawesome.com License - https://fontawesome.com/license (Commercial License) Copyright 2025 Fonticons, Inc. --><path opacity=".4" fill="currentColor" d="M0 160L0 384c0 35.3 28.7 64 64 64l80 0 0-160c0-61.9 50.1-112 112-112l192 0 0-16c0-35.3-28.7-64-64-64l-64 0 0-32c0-53-43-96-96-96s-96 43-96 96l0 32-64 0C28.7 96 0 124.7 0 160zM176 64c0-26.5 21.5-48 48-48s48 21.5 48 48l0 32-96 0 0-32zM288 312l0 40c0 53 43 96 96 96s96-43 96-96l0-40c0-13.3-10.7-24-24-24s-24 10.7-24 24l0 40c0 26.5-21.5 48-48 48s-48-21.5-48-48l0-40c0-13.3-10.7-24-24-24s-24 10.7-24 24z"/><path fill="currentColor" d="M256 224c-35.3 0-64 28.7-64 64l0 160c0 35.3 28.7 64 64 64l256 0c35.3 0 64-28.7 64-64l0-160c0-35.3-28.7-64-64-64l-256 0zm80 88l0 40c0 26.5 21.5 48 48 48s48-21.5 48-48l0-40c0-13.3 10.7-24 24-24s24 10.7 24 24l0 40c0 53-43 96-96 96s-96-43-96-96l0-40c0-13.3 10.7-24 24-24s24 10.7 24 24z"/></svg>