<svg xmlns="http://www.w3.org/2000/svg" viewBox="0 0 576 512"><!--! Font Awesome Pro 7.0.1 by @fontawesome - https://fontawesome.com License - https://fontawesome.com/license (Commercial License) Copyright 2025 Fonticons, Inc. --><path style="fill:var(--fa-secondary-color,currentColor);opacity:var(--fa-secondary-opacity,.4)" d="M0 432a80 80 0 1 0 160 0 80 80 0 1 0 -160 0zM208 80a80 80 0 1 0 160 0 80 80 0 1 0 -160 0zm0 352a80 80 0 1 0 160 0 80 80 0 1 0 -160 0zm208 0a80 80 0 1 0 160 0 80 80 0 1 0 -160 0z"/><path style="fill:var(--fa-primary-color,currentColor);opacity:var(--fa-primary-opacity,1)" d="M176 328a80 80 0 1 0 0-160 80 80 0 1 0 0 160zm224 0a80 80 0 1 0 0-160 80 80 0 1 0 0 160z"/></svg>