<svg xmlns="http://www.w3.org/2000/svg" viewBox="0 0 512 512"><!--! Font Awesome Pro 7.1.0 by @fontawesome - https://fontawesome.com License - https://fontawesome.com/license (Commercial License) Copyright 2025 Fonticons, Inc. --><path opacity=".4" fill="currentColor" d="M96 240l0 64c0 8.8 7.2 16 16 16l162.7 0c-32-32-64-64-96-96L112 224c-8.8 0-16 7.2-16 16zM256 112c0 26.5 21.5 48 48 48l32 0c8.8 0 16 7.2 16 16s7.2 16 16 16 16-7.2 16-16c0-26.5-21.5-48-48-48l-32 0c-8.8 0-16-7.2-16-16s-7.2-16-16-16-16 7.2-16 16zm13.3 112l32 32 82.7 0 0 32-50.7 0 32 32 34.7 0c8.8 0 16-7.2 16-16l0-64c0-8.8-7.2-16-16-16l-130.7 0z"/><path fill="currentColor" d="M367.2 412.5L99.5 144.8c-22.4 31.4-35.5 69.8-35.5 111.2 0 106 86 192 192 192 41.5 0 79.9-13.1 111.2-35.5zm45.3-45.3c22.4-31.4 35.5-69.8 35.5-111.2 0-106-86-192-192-192-41.5 0-79.9 13.1-111.2 35.5L412.5 367.2zM0 256a256 256 0 1 1 512 0 256 256 0 1 1 -512 0z"/></svg>