<svg xmlns="http://www.w3.org/2000/svg" viewBox="0 0 576 512"><!--! Font Awesome Pro 7.1.0 by @fontawesome - https://fontawesome.com License - https://fontawesome.com/license (Commercial License) Copyright 2025 Fonticons, Inc. --><path opacity=".4" fill="currentColor" d="M269.1 273.1c2.7 1.8 5.3 3.6 7.8 5.7l48.6 38.9 96.7-25.8c6.1-1.6 12.3-2.7 18.5-3.3 23.1-100.5-10.8-208.8-87.5-278.2-30-27.1-79.7 5.2-65.1 44.6 26.4 71.2 19.4 152.6-19 218.2z"/><path fill="currentColor" d="M177.1 315.2c18.3-13.7 44.4-14.9 64-3-46.9 53.8-116 87.8-193 87.8-26.5 0-48 21.5-48 48l0 16c0 26.5 21.5 48 48 48l112 0c117.3 0 218.2-70.1 263.1-170.7l12-3.2c27.7-7.4 59 3.9 74 28.9l22.4 37.3c6.8 11.4 21.6 15.1 32.9 8.2s15-21.6 8.2-32.9l-22.4-37.3c-26-43.4-79.9-63.3-128-50.5l-96.7 25.8-48.6-38.9c-36.9-29.5-90.9-30.3-128.6-2l-42.7 32c-10.6 8-12.8 23-4.8 33.6s23 12.8 33.6 4.8l42.7-32z"/></svg>