<svg xmlns="http://www.w3.org/2000/svg" viewBox="0 0 576 512"><!--! Font Awesome Pro 7.1.0 by @fontawesome - https://fontawesome.com License - https://fontawesome.com/license (Commercial License) Copyright 2025 Fonticons, Inc. --><path opacity=".4" fill="currentColor" d="M0 160L0 352c0 35.3 28.7 64 64 64l48 0 0-320-48 0C28.7 96 0 124.7 0 160zM160 96l0 320 256 0 0-320-256 0zM264 208a24 24 0 1 1 -48 0 24 24 0 1 1 48 0zm0 96a24 24 0 1 1 -48 0 24 24 0 1 1 48 0zm96-96a24 24 0 1 1 -48 0 24 24 0 1 1 48 0zm0 96a24 24 0 1 1 -48 0 24 24 0 1 1 48 0zM464 96l0 320 48 0c35.3 0 64-28.7 64-64l0-192c0-35.3-28.7-64-64-64l-48 0z"/><path fill="currentColor" d="M112 96l48 0 0 320-48 0 0-320zm304 0l48 0 0 320-48 0 0-320z"/></svg>