<svg xmlns="http://www.w3.org/2000/svg" viewBox="0 0 576 512"><!--! Font Awesome Pro 7.1.0 by @fontawesome - https://fontawesome.com License - https://fontawesome.com/license (Commercial License) Copyright 2025 Fonticons, Inc. --><path opacity=".4" fill="currentColor" d="M16 192c0 14.5 9.6 26.7 22.8 30.7l46 207.2c6.5 29.3 32.5 50.1 62.5 50.1l281.3 0c30 0 56-20.8 62.5-50.1l46.1-207.2c13.2-3.9 22.8-16.2 22.8-30.7 0-17.7-14.3-32-32-32l-78.1 0c8.6 9.6 8.1 24.5-1.4 33.4-9.6 9.1-24.8 8.7-33.9-.9l-30.8-32.5-191.6 0-30.8 32.5c-9.1 9.6-24.3 10-33.9 .9-9.5-9-10-23.8-1.4-33.4L48 160c-17.7 0-32 14.3-32 32z"/><path fill="currentColor" d="M288 0c6.6 0 12.9 2.7 17.4 7.5l144 152c9.1 9.6 8.7 24.8-.9 33.9s-24.8 8.7-33.9-.9L288 58.9 161.4 192.5c-9.1 9.6-24.3 10-33.9 .9s-10-24.3-.9-33.9l144-152C275.1 2.7 281.4 0 288 0z"/></svg>