<svg xmlns="http://www.w3.org/2000/svg" viewBox="0 0 640 512"><!--! Font Awesome Pro 7.0.1 by @fontawesome - https://fontawesome.com License - https://fontawesome.com/license (Commercial License) Copyright 2025 Fonticons, Inc. --><path style="fill:var(--fa-secondary-color,currentColor);opacity:var(--fa-secondary-opacity,.4)" d="M32 144c0-44.2 35.8-80 80-80l416 0c44.2 0 80 35.8 80 80l0 48c17.7 0 32 14.3 32 32l0 64c0 17.7-14.3 32-32 32l0 48c0 44.2-35.8 80-80 80l-416 0c-44.2 0-80-35.8-80-80l0-224zm64 0l0 224c0 8.8 7.2 16 16 16l416 0c8.8 0 16-7.2 16-16l0-224c0-8.8-7.2-16-16-16l-416 0c-8.8 0-16 7.2-16 16z"/><path style="fill:var(--fa-primary-color,currentColor);opacity:var(--fa-primary-opacity,1)" d="M144 200c0-13.3 10.7-24 24-24l304 0c13.3 0 24 10.7 24 24l0 112c0 13.3-10.7 24-24 24l-304 0c-13.3 0-24-10.7-24-24l0-112z"/></svg>