<svg xmlns="http://www.w3.org/2000/svg" viewBox="0 0 512 512"><!--! Font Awesome Pro 7.1.0 by @fontawesome - https://fontawesome.com License - https://fontawesome.com/license (Commercial License) Copyright 2025 Fonticons, Inc. --><path opacity=".4" fill="currentColor" d="M224 24c0 13.3 10.7 24 24 24 119.3 0 216 96.7 216 216 0 13.3 10.7 24 24 24s24-10.7 24-24c0-145.8-118.2-264-264-264-13.3 0-24 10.7-24 24zm0 96c0 13.3 10.7 24 24 24 66.3 0 120 53.7 120 120 0 13.3 10.7 24 24 24s24-10.7 24-24c0-92.8-75.2-168-168-168-13.3 0-24 10.7-24 24z"/><path fill="currentColor" d="M80 96c26.5 0 48 21.5 48 48l0 224c0 26.5 21.5 48 48 48s48-21.5 48-48-21.5-48-48-48c-8.8 0-16-7.2-16-16l0-64c0-8.8 7.2-16 16-16 79.5 0 144 64.5 144 144S255.5 512 176 512 32 447.5 32 368l0-224c0-26.5 21.5-48 48-48z"/></svg>