<svg xmlns="http://www.w3.org/2000/svg" viewBox="0 0 448 512"><!--! Font Awesome Pro 7.0.1 by @fontawesome - https://fontawesome.com License - https://fontawesome.com/license (Commercial License) Copyright 2025 Fonticons, Inc. --><path style="fill:var(--fa-secondary-color,currentColor);opacity:var(--fa-secondary-opacity,.4)" d="M64 416c0-17.7 14.3-32 32-32l320 0 0 64-320 0c-17.7 0-32-14.3-32-32z"/><path style="fill:var(--fa-primary-color,currentColor);opacity:var(--fa-primary-opacity,1)" d="M96 512l320 0c17.7 0 32-14.3 32-32s-14.3-32-32-32L96 448c-17.7 0-32-14.3-32-32s14.3-32 32-32l320 0 0-2.7c18.6-6.6 32-24.4 32-45.3l0-288c0-26.5-21.5-48-48-48L96 0C43 0 0 43 0 96L0 416c0 53 43 96 96 96z"/></svg>