<svg xmlns="http://www.w3.org/2000/svg" viewBox="0 0 576 512"><!--! Font Awesome Pro 7.1.0 by @fontawesome - https://fontawesome.com License - https://fontawesome.com/license (Commercial License) Copyright 2025 Fonticons, Inc. --><path opacity=".4" fill="currentColor" d="M0 224L0 416c0 53 43 96 96 96l224 0c17.7 0 32-14.3 32-32s-14.3-32-32-32L96 448c-17.7 0-32-14.3-32-32s14.3-32 32-32l116.7 0c-22.8-25.5-36.7-59.1-36.7-96l0-160-80 0c-53 0-96 43-96 96z"/><path fill="currentColor" d="M512 384l-192 0c-53 0-96-43-96-96l0-192c0-53 43-96 96-96L528 0c26.5 0 48 21.5 48 48l0 160c0 20.9-13.4 38.7-32 45.3l0 66.7c17.7 0 32 14.3 32 32s-14.3 32-32 32l-32 0zM320 256c-17.7 0-32 14.3-32 32s14.3 32 32 32l160 0 0-64-160 0z"/></svg>