<svg xmlns="http://www.w3.org/2000/svg" viewBox="0 0 448 512"><!--! Font Awesome Pro 7.1.0 by @fontawesome - https://fontawesome.com License - https://fontawesome.com/license (Commercial License) Copyright 2025 Fonticons, Inc. --><path opacity=".4" fill="currentColor" d="M0 64C0 28.7 28.7 0 64 0l32 0 0 64-32 0 0 416c0 17.7-14.3 32-32 32S0 497.7 0 480L0 64zM384 0c35.3 0 64 28.7 64 64l0 416c0 17.7-14.3 32-32 32s-32-14.3-32-32L384 0z"/><path fill="currentColor" d="M96 0l288 0 0 400c0 26.5-21.5 48-48 48s-48-21.5-48-48c0 26.5-21.5 48-48 48s-48-21.5-48-48c0 26.5-21.5 48-48 48s-48-21.5-48-48L96 0z"/></svg>