<svg xmlns="http://www.w3.org/2000/svg" viewBox="0 0 448 512"><!--! Font Awesome Pro 7.1.0 by @fontawesome - https://fontawesome.com License - https://fontawesome.com/license (Commercial License) Copyright 2025 Fonticons, Inc. --><path opacity=".4" fill="currentColor" d="M8 64A24 24 0 1 0 56 64 24 24 0 1 0 8 64zm0 96a24 24 0 1 0 48 0 24 24 0 1 0 -48 0zm0 96a24 24 0 1 0 48 0 24 24 0 1 0 -48 0zm0 96a24 24 0 1 0 48 0 24 24 0 1 0 -48 0zm0 96a24 24 0 1 0 48 0 24 24 0 1 0 -48 0zM104 64a24 24 0 1 0 48 0 24 24 0 1 0 -48 0zm0 192a24 24 0 1 0 48 0 24 24 0 1 0 -48 0zm0 192a24 24 0 1 0 48 0 24 24 0 1 0 -48 0zM296 64a24 24 0 1 0 48 0 24 24 0 1 0 -48 0zm0 192a24 24 0 1 0 48 0 24 24 0 1 0 -48 0zm0 192a24 24 0 1 0 48 0 24 24 0 1 0 -48 0zM392 64a24 24 0 1 0 48 0 24 24 0 1 0 -48 0zm0 96a24 24 0 1 0 48 0 24 24 0 1 0 -48 0zm0 96a24 24 0 1 0 48 0 24 24 0 1 0 -48 0zm0 96a24 24 0 1 0 48 0 24 24 0 1 0 -48 0zm0 96a24 24 0 1 0 48 0 24 24 0 1 0 -48 0z"/><path fill="currentColor" d="M224 476c-15.5 0-28-12.5-28-28l0-384c0-15.5 12.5-28 28-28s28 12.5 28 28l0 384c0 15.5-12.5 28-28 28z"/></svg>