<svg xmlns="http://www.w3.org/2000/svg" viewBox="0 0 576 512"><!--! Font Awesome Pro 7.1.0 by @fontawesome - https://fontawesome.com License - https://fontawesome.com/license (Commercial License) Copyright 2025 Fonticons, Inc. --><path opacity=".4" fill="currentColor" d="M387.6 409c18.1-30.8 28.4-66.7 28.4-105 0-12.3-1.1-24.4-3.1-36.1l21.2-57.5c.2-.8 .5-1.6 .8-2.3l90.3 0c.3 .8 .5 1.6 .7 2.3l40.2 108.9c6.6 17.9 9.9 36.8 9.9 55.8 0 20.5-3.9 40.9-11.5 59.9l-22.7 56.8C536.9 504 525.1 512 512 512l-64 0c-11.4 0-21.9-6.1-27.6-15.8l-2.2-4.4-22.8-56.8c-3.4-8.5-6-17.2-7.9-26zM416 64c0-35.3 28.7-64 64-64s64 28.7 64 64l0 1.1c0 5.6-.6 11.1-1.7 16.6l-1.3 5.4-17.7 64.8c-.7 2.7-1.3 5.4-1.8 8.1l-83.2 0c-.1-.6-.2-1.3-.3-1.9l-1.5-6.2-17.7-64.8c-2-7.2-2.9-14.6-2.9-22l0-1.1z"/><path fill="currentColor" d="M208 512a208 208 0 1 1 0-416 208 208 0 1 1 0 416zM196 232a28 28 0 1 0 0 56 28 28 0 1 0 0-56zm-72-40a28 28 0 1 0 0 56 28 28 0 1 0 0-56zm397.6-32c-1 5.7-1.6 11.4-1.6 17.2 0 10.5 1.8 20.9 5.2 30.8l-90.3 0 1.8-5.7c2.2-8.2 3.3-16.6 3.3-25.1 0-5.8-.6-11.5-1.6-17.2l83.2 0zM196 144a28 28 0 1 0 0 56 28 28 0 1 0 0-56z"/></svg>