<svg xmlns="http://www.w3.org/2000/svg" viewBox="0 0 576 512"><!--! Font Awesome Pro 7.1.0 by @fontawesome - https://fontawesome.com License - https://fontawesome.com/license (Commercial License) Copyright 2025 Fonticons, Inc. --><path opacity=".4" fill="currentColor" d="M0 64C0 46.3 14.3 32 32 32l448 0c17.7 0 32 14.3 32 32s-14.3 32-32 32l-8 0 0 64 40 0 0 65.4c-24.4-11.2-51.4-17.4-80-17.4-65 0-122.5 32.3-157.3 81.8-6.1-1.2-12.3-1.8-18.7-1.8-53 0-96 43-96 96l0 64c0 17.7-14.3 32-32 32l-32 0c-17.7 0-32-14.3-32-32l0-94c0-38.8-26.4-72.6-64-82l0-112 40 0 0-64-8 0C14.3 96 0 81.7 0 64zM88 96l0 64 80 0 0-64-80 0zm128 0l0 64 80 0 0-64-80 0zm128 0l0 64 80 0 0-64-80 0z"/><path fill="currentColor" d="M432 544a144 144 0 1 0 0-288 144 144 0 1 0 0 288zm60.9-182.6l-64 88c-2.8 3.8-7 6.2-11.7 6.5s-9.3-1.3-12.6-4.6l-40-40c-6.2-6.2-6.2-16.4 0-22.6s16.4-6.2 22.6 0l26.8 26.8 53-72.9c5.2-7.1 15.2-8.7 22.4-3.5s8.7 15.2 3.5 22.3z"/></svg>