<svg xmlns="http://www.w3.org/2000/svg" viewBox="0 0 512 512"><!--! Font Awesome Pro 7.1.0 by @fontawesome - https://fontawesome.com License - https://fontawesome.com/license (Commercial License) Copyright 2025 Fonticons, Inc. --><path opacity=".4" fill="currentColor" d="M0 64C0 81.7 14.3 96 32 96l8 0 0 64 48 0 0-64 80 0 0 64 48 0 0-64 80 0 0 64 48 0 0-64 80 0 0 64 48 0 0-64 8 0c17.7 0 32-14.3 32-32s-14.3-32-32-32L32 32C14.3 32 0 46.3 0 64z"/><path fill="currentColor" d="M0 160l512 0 0 112c-37.6 9.4-64 43.2-64 82l0 94c0 17.7-14.3 32-32 32l-32 0c-17.7 0-32-14.3-32-32l0-64c0-53-43-96-96-96s-96 43-96 96l0 64c0 17.7-14.3 32-32 32l-32 0c-17.7 0-32-14.3-32-32l0-94c0-38.8-26.4-72.6-64-82L0 160z"/></svg>