<svg xmlns="http://www.w3.org/2000/svg" viewBox="0 0 512 512"><!--! Font Awesome Pro 7.1.0 by @fontawesome - https://fontawesome.com License - https://fontawesome.com/license (Commercial License) Copyright 2025 Fonticons, Inc. --><path opacity=".4" fill="currentColor" d="M0 112C0 85.5 21.5 64 48 64l416 0c26.5 0 48 21.5 48 48L0 112zm0 48l128 0 0 37.9c0 33.2-9.8 65.6-28.2 93.2L85.4 312.7C73.6 305.2 60.8 299.3 47.3 295.1 22 287.3 0 266.5 0 240l0-80zM121.9 344.4l17.8-26.7c23.7-35.5 36.3-77.2 36.3-119.8l0-37.9 160 0 0 37.9c0 42.6 12.6 84.3 36.3 119.8l17.8 26.7c-13.9 16.3-24.5 35.4-31 56.3-7.8 25.3-28.6 47.3-55.1 47.3l-96 0c-26.5 0-47.3-22-55.1-47.3-6.5-20.9-17.1-40-31-56.3zM384 160l128 0 0 80c0 26.5-22 47.3-47.3 55.1-13.6 4.2-26.3 10.1-38.1 17.6l-14.4-21.6c-18.4-27.6-28.2-60-28.2-93.2l0-37.9z"/><path fill="currentColor" d="M336 160l-160 0 0 37.9c0 42.6-12.6 84.3-36.3 119.8l-17.8 26.7c-10.5-12.3-22.8-23-36.5-31.7l14.4-21.6c18.4-27.6 28.2-60 28.2-93.2l0-37.9-128 0 0-48 512 0 0 48-128 0 0 37.9c0 33.2 9.8 65.6 28.2 93.2l14.4 21.6c-13.7 8.7-26.1 19.4-36.5 31.7l-17.8-26.7C348.6 282.2 336 240.5 336 197.9l0-37.9z"/></svg>