<svg xmlns="http://www.w3.org/2000/svg" viewBox="0 0 512 512"><!--! Font Awesome Pro 7.1.0 by @fontawesome - https://fontawesome.com License - https://fontawesome.com/license (Commercial License) Copyright 2025 Fonticons, Inc. --><path opacity=".4" fill="currentColor" d="M0 288L0 416c0 35.3 28.7 64 64 64l384 0c35.3 0 64-28.7 64-64l0-128-192 0 0 32c0 17.7-14.3 32-32 32l-64 0c-17.7 0-32-14.3-32-32l0-32-192 0z"/><path fill="currentColor" d="M192 56c0-4.4 3.6-8 8-8l112 0c4.4 0 8 3.6 8 8l0 40-128 0 0-40zM144 96L64 96C28.7 96 0 124.7 0 160l0 128 512 0 0-128c0-35.3-28.7-64-64-64l-80 0 0-40c0-30.9-25.1-56-56-56L200 0c-30.9 0-56 25.1-56 56l0 40z"/></svg>