<svg xmlns="http://www.w3.org/2000/svg" viewBox="0 0 512 512"><!--! Font Awesome Pro 7.1.0 by @fontawesome - https://fontawesome.com License - https://fontawesome.com/license (Commercial License) Copyright 2025 Fonticons, Inc. --><path opacity=".4" fill="currentColor" d="M112 352l112 0 0 .9c0 9.9 2.3 19.7 6.8 28.6l18.1 36.2c2.9 5.9 11.4 5.9 14.3 0l18.1-36.2c4.4-8.9 6.8-18.7 6.8-28.6l0-.9 112 0s-47.7 54.5-80.2 138.3c-5 12.8-17.1 21.7-30.9 21.7l-65.9 0c-13.8 0-25.9-8.9-30.9-21.7-32.5-83.8-80.2-138.3-80.2-138.3z"/><path fill="currentColor" d="M416 352L96 352c-53 0-96-43-96-96 0-45.5 31.6-83.6 74.1-93.5-6.4-10-10.1-21.8-10.1-34.5 0-35.3 28.7-64 64-64 12.7 0 24.6 3.7 34.5 10.1 9.9-42.5 48-74.1 93.5-74.1s83.6 31.6 93.5 74.1c10-6.4 21.8-10.1 34.5-10.1 35.3 0 64 28.7 64 64 0 12.7-3.7 24.6-10.1 34.5 42.5 9.9 74.1 48 74.1 93.5 0 53-43 96-96 96z"/></svg>