<svg xmlns="http://www.w3.org/2000/svg" viewBox="0 0 576 512"><!--! Font Awesome Pro 7.1.0 by @fontawesome - https://fontawesome.com License - https://fontawesome.com/license (Commercial License) Copyright 2025 Fonticons, Inc. --><path opacity=".4" fill="currentColor" d="M40 120c0 13.3 10.7 24 24 24L92.2 468.2C94.3 493 115.1 512 140 512l71.1 0c-2-8.1-3.1-16.6-3.1-25.3 0-10.7 3.1-20.7 8.4-29.1-5.3-10.1-8.4-21.5-8.4-33.7 0-15.6 5-30 13.4-41.8-8.4-12.4-13.4-27.3-13.4-43.5 0-16.5 2.3-38.2 14.3-59.1 19.3-33.7 66.1-89.8 158.7-101.5l3-34c13.3 0 24-10.7 24-24s-10.7-24-24-24l-142.6 0 15.5-58.1c.9-3.5 4.1-5.9 7.7-5.9L296 32c13.3 0 24-10.7 24-24s-10.7-24-24-24l-31.4 0C239.2-16 217 1.1 210.5 25.6L191.7 96 64 96c-13.3 0-24 10.7-24 24z"/><path fill="currentColor" d="M262.9 479.8c-3.8 0-6.9 3.1-6.9 6.9 0 31.6 25.6 57.1 57.1 57.1l205.7 0c31.6 0 57.1-25.6 57.1-57.1 0-3.8-3.1-6.9-6.9-6.9l-306.3 0zM256 338.5c0 16.2 13.1 29.3 29.3 29.3l261.5 0c16.2 0 29.3-13.1 29.3-29.3 0-12.3-1.8-24.6-7.9-35.2-15.8-27.5-58-79.4-152.1-79.5-94.1 .1-136.3 52-152.1 79.5-6.1 10.7-7.9 22.9-7.9 35.2zm0 85.3c0 13.3 10.7 24 24 24l272 0c13.3 0 24-10.7 24-24s-10.7-24-24-24l-272 0c-13.3 0-24 10.7-24 24zM416 256a16 16 0 1 1 0 32 16 16 0 1 1 0-32zm-96 48a16 16 0 1 1 32 0 16 16 0 1 1 -32 0zm176-16a16 16 0 1 1 0 32 16 16 0 1 1 0-32z"/></svg>