<svg xmlns="http://www.w3.org/2000/svg" viewBox="0 0 448 512"><!--! Font Awesome Pro 7.1.0 by @fontawesome - https://fontawesome.com License - https://fontawesome.com/license (Commercial License) Copyright 2025 Fonticons, Inc. --><path opacity=".4" fill="currentColor" d="M48 446c5.1 1.3 10.5 2 16 2l64 0 0 64-80 0 0-66zM64 176c0-17.7 14.3-32 32-32l104 0 0 112-104 0c-17.7 0-32-14.3-32-32l0-48zm184-32l104 0c17.7 0 32 14.3 32 32l0 48c0 17.7-14.3 32-32 32l-104 0 0-112zm72 304l64 0c5.5 0 10.9-.7 16-2l0 66-80 0 0-64z"/><path fill="currentColor" d="M96 0C43 0 0 43 0 96L0 384c0 35.3 28.7 64 64 64l320 0c35.3 0 64-28.7 64-64l0-288c0-53-43-96-96-96L96 0zM64 176c0-17.7 14.3-32 32-32l104 0 0 112-104 0c-17.7 0-32-14.3-32-32l0-48zm184 80l0-112 104 0c17.7 0 32 14.3 32 32l0 48c0 17.7-14.3 32-32 32l-104 0zM96 320a32 32 0 1 1 0 64 32 32 0 1 1 0-64zm256 0a32 32 0 1 1 0 64 32 32 0 1 1 0-64zM152 72c0-13.3 10.7-24 24-24l96 0c13.3 0 24 10.7 24 24s-10.7 24-24 24l-96 0c-13.3 0-24-10.7-24-24z"/></svg>