<svg xmlns="http://www.w3.org/2000/svg" viewBox="0 0 512 512"><!--! Font Awesome Pro 7.1.0 by @fontawesome - https://fontawesome.com License - https://fontawesome.com/license (Commercial License) Copyright 2025 Fonticons, Inc. --><path opacity=".4" fill="currentColor" d="M16 144l0 64c0 61.9 50.1 112 112 112l32 0 0-96-32 0c-8.8 0-16-7.2-16-16l0-64c0-26.5-21.5-48-48-48s-48 21.5-48 48zM352 352l0 96 32 0c61.9 0 112-50.1 112-112l0-64c0-26.5-21.5-48-48-48s-48 21.5-48 48l0 64c0 8.8-7.2 16-16 16l-32 0z"/><path fill="currentColor" d="M256 0c53 0 96 43 96 96l0 368c0 26.5-21.5 48-48 48l-96 0c-26.5 0-48-21.5-48-48l0-368c0-53 43-96 96-96zm32 360a24 24 0 1 0 0 48 24 24 0 1 0 0-48zM224 136a24 24 0 1 0 0 48 24 24 0 1 0 0-48z"/></svg>