<svg xmlns="http://www.w3.org/2000/svg" viewBox="0 0 512 512"><!--! Font Awesome Pro 7.1.0 by @fontawesome - https://fontawesome.com License - https://fontawesome.com/license (Commercial License) Copyright 2025 Fonticons, Inc. --><path opacity=".4" fill="currentColor" d="M0 288l0 64 448 0 0-64-448 0zM0 400l0 48c0 17.7 14.3 32 32 32l416 0 0-80-448 0z"/><path fill="currentColor" d="M296 32c-7.2 0-14.2 2.4-19.8 6.9l-264 208C4.5 252.9 0 262.2 0 272l0 16 448 0 0 192c35.3 0 64-28.7 64-64l0-160C512 181.7 479.2 125.2 435.9 87.8 393.6 51.2 340.3 32 296 32z"/></svg>