<svg xmlns="http://www.w3.org/2000/svg" viewBox="0 0 640 512"><!--! Font Awesome Pro 7.1.0 by @fontawesome - https://fontawesome.com License - https://fontawesome.com/license (Commercial License) Copyright 2025 Fonticons, Inc. --><path opacity=".4" fill="currentColor" d="M64.1 128l0 288c0 35.3 28.7 64 64 64l152.6 0 4.5-22.5c4.3-21.7 15-41.6 30.6-57.2L486.1 229.9c7.8-7.8 16.6-14.2 25.9-19l0-82.9c0-35.3-28.7-64-64-64l-32 0 0-32c0-17.7-14.3-32-32-32s-32 14.3-32 32l0 32-128 0 0-32c0-17.7-14.3-32-32-32s-32 14.3-32 32l0 32-32 0c-35.3 0-64 28.7-64 64zm96 120c0-13.3 10.7-24 24-24l144 0c13.3 0 24 10.7 24 24s-10.7 24-24 24l-144 0c-13.3 0-24-10.7-24-24zm0 96c0-13.3 10.7-24 24-24l80 0c13.3 0 24 10.7 24 24s-10.7 24-24 24l-80 0c-13.3 0-24-10.7-24-24z"/><path fill="currentColor" d="M320.4 526.5l11.9-59.6c2.5-12.4 8.6-23.8 17.5-32.7l118.9-118.9 80 80-118.9 118.9c-8.9 8.9-20.3 15-32.7 17.5l-59.6 11.9c-.9 .2-1.9 .3-2.9 .3-8 0-14.6-6.5-14.6-14.6 0-1 .1-1.9 .3-2.9zm251-153.8l-80-80 28.8-28.8c22.1-22.1 57.9-22.1 80 0s22.1 57.9 0 80l-28.8 28.8z"/></svg>