<svg xmlns="http://www.w3.org/2000/svg" viewBox="0 0 448 512"><!--! Font Awesome Pro 7.0.0 by @fontawesome - https://fontawesome.com License - https://fontawesome.com/license (Commercial License) Copyright 2025 Fonticons, Inc. --><path style="fill:var(--fa-secondary-color,currentColor);opacity:var(--fa-secondary-opacity,.4)" d="M0 160l448 0 0 272c0 26.5-21.5 48-48 48L48 480c-26.5 0-48-21.5-48-48L0 160zM197.3 384a26.7 26.7 0 1 0 53.3 0 26.7 26.7 0 1 0 -53.3 0zM200 224l0 80c0 13.3 10.7 24 24 24s24-10.7 24-24l0-80c0-13.3-10.7-24-24-24s-24 10.7-24 24z"/><path style="fill:var(--fa-primary-color,currentColor);opacity:var(--fa-primary-opacity,1)" d="M96 32c0-17.7 14.3-32 32-32s32 14.3 32 32l0 32 128 0 0-32c0-17.7 14.3-32 32-32s32 14.3 32 32l0 32 48 0c26.5 0 48 21.5 48 48l0 48-448 0 0-48C0 85.5 21.5 64 48 64l48 0 0-32zM224 200c13.3 0 24 10.7 24 24l0 80c0 13.3-10.7 24-24 24s-24-10.7-24-24l0-80c0-13.3 10.7-24 24-24zM197.3 384a26.7 26.7 0 1 1 53.3 0 26.7 26.7 0 1 1 -53.3 0z"/></svg>