<svg xmlns="http://www.w3.org/2000/svg" viewBox="0 0 576 512"><!--! Font Awesome Pro 7.1.0 by @fontawesome - https://fontawesome.com License - https://fontawesome.com/license (Commercial License) Copyright 2025 Fonticons, Inc. --><path opacity=".4" fill="currentColor" d="M32 160l0 256c0 35.3 28.7 64 64 64l314.2 0-98.9-98.9c-7.5 1.9-15.3 2.9-23.3 2.9-53 0-96-43-96-96 0-8 1-15.9 2.9-23.3L47.9 117.8C38 129 32 143.8 32 160z"/><path fill="currentColor" d="M7-24.9c9.4-9.4 24.6-9.4 33.9 0l120.9 120.9 8.8 0 10.4-31.2C187.6 45.2 205.9 32 226.6 32l122.8 0c20.7 0 39 13.2 45.5 32.8L405.3 96 480 96c35.3 0 64 28.7 64 64l0 256c0 17.2-6.8 32.8-17.8 44.3L569 503.1c9.4 9.4 9.4 24.6 0 33.9s-24.6 9.4-33.9 0L7 9.1C-2.3-.3-2.3-15.5 7-24.9zM380.3 314.5c2.4-8.4 3.7-17.3 3.7-26.5 0-53-43-96-96-96-9.2 0-18.1 1.3-26.5 3.7L380.3 314.5z"/></svg>