<svg xmlns="http://www.w3.org/2000/svg" viewBox="0 0 384 512"><!--! Font Awesome Pro 7.1.0 by @fontawesome - https://fontawesome.com License - https://fontawesome.com/license (Commercial License) Copyright 2025 Fonticons, Inc. --><path opacity=".4" fill="currentColor" d="M16 64c0 1.3 .1 2.5 .3 3.8 5.4 33.6 82 60.2 175.7 60.2s170.3-26.6 175.7-60.2c.2-1.2 .3-2.5 .3-3.8 0-35.3-78.8-64-176-64S16 28.7 16 64zm96 240a80 80 0 1 0 160 0 80 80 0 1 0 -160 0z"/><path fill="currentColor" d="M320 434.3l0-158.9c-14.1 6.1-30.7 11.2-49.2 15-6.5-37.7-39.3-66.4-78.8-66.4s-72.4 28.7-78.8 66.4c-18.5-3.8-35.1-8.9-49.2-15l0 158.9c3.4 3 10.2 7.5 21.7 12.2 24.8 10.1 62.3 17.5 106.3 17.5s81.5-7.4 106.3-17.5c11.5-4.7 18.3-9.2 21.7-12.2zm48 5.7c0 39.8-78.8 72-176 72S16 479.8 16 440L16 72c0-1.4 .1-2.8 .3-4.2 5.4 33.6 82 60.2 175.7 60.2s170.3-26.6 175.7-60.2c.2 1.4 .3 2.8 .3 4.2l0 368z"/></svg>