<svg xmlns="http://www.w3.org/2000/svg" viewBox="0 0 512 512"><!--! Font Awesome Pro 7.1.0 by @fontawesome - https://fontawesome.com License - https://fontawesome.com/license (Commercial License) Copyright 2025 Fonticons, Inc. --><path opacity=".4" fill="currentColor" d="M0 416l0 32c0 17.7 14.3 32 32 32l32 0c17.7 0 32-14.3 32-32l0-32-96 0zM107.5 192l296.9 0-13-41.5c-4.2-13.4-16.5-22.5-30.5-22.5l-209.9 0c-14 0-26.4 9.1-30.5 22.5l-13 41.5zM200 64l112 0-6.3-25.2C300 16 279.5 0 256 0s-44 16-49.7 38.8L200 64zM416 416l0 32c0 17.7 14.3 32 32 32l32 0c17.7 0 32-14.3 32-32l0-32-96 0z"/><path fill="currentColor" d="M65.2-15.6C69.4-28.2 83-35 95.6-30.8l48 16C156.2-10.6 163 3 158.8 15.6S141 35 128.4 30.8l-48-16C67.8 10.6 61-3 65.2-15.6zM512 416L0 416 0 272c0-28.1 14.5-52.9 36.4-67.1l23-73.5C71.9 91.3 109.1 64 151.1 64l209.9 0c42 0 79.1 27.3 91.6 67.4l23 73.5c21.9 14.3 36.4 39 36.4 67.1l0 144zM151.1 128c-14 0-26.4 9.1-30.5 22.5l-13 41.5 296.9 0-13-41.5c-4.2-13.4-16.5-22.5-30.5-22.5l-209.9 0zM96 336a32 32 0 1 0 0-64 32 32 0 1 0 0 64zm352-32a32 32 0 1 0 -64 0 32 32 0 1 0 64 0zM416.4-30.8c12.6-4.2 26.2 2.6 30.4 15.2s-2.6 26.2-15.2 30.4l-48 16C371 35 357.4 28.2 353.2 15.6s2.6-26.2 15.2-30.4l48-16z"/></svg>