<svg xmlns="http://www.w3.org/2000/svg" viewBox="0 0 576 512"><!--! Font Awesome Pro 7.1.0 by @fontawesome - https://fontawesome.com License - https://fontawesome.com/license (Commercial License) Copyright 2025 Fonticons, Inc. --><path opacity=".4" fill="currentColor" d="M29.4 193.4l17 102 .6 3.5c-11.5 19.3-12.5 44-.4 64.8 8 13.9 24 41.6 48 83.1l16 27.7c8.8 15.3 28.4 20.6 43.7 11.7l13.9-8c15.3-8.8 20.5-28.4 11.7-43.7l-16-27.7 249.4-144 16 27.7c8.8 15.3 28.4 20.6 43.7 11.7l13.9-8c15.3-8.8 20.6-28.4 11.7-43.7-8-13.9-24-41.6-48-83.1l-16-27.7c-12-20.8-33.9-32.3-56.3-32l-2.8-2.3-79.9-65.7c-25.8-21.2-61.9-24.2-90.8-7.5L68.3 110.9c-28.9 16.7-44.4 49.5-38.9 82.4zm63.1-10.5c-1.1-6.6 2-13.1 7.8-16.5L236.6 87.6c5.8-3.3 13-2.7 18.2 1.5l57.4 47.2-207.5 119.8-12.2-73.3zm72.8 130.7a32 32 0 1 1 -55.4 32 32 32 0 1 1 55.4-32zM387 185.6a32 32 0 1 1 -55.4 32 32 32 0 1 1 55.4-32z"/><path fill="currentColor" d="M544.5 512c17.7 0 32.5-14.6 27.5-31.6-13.6-46.5-56.6-80.4-107.5-80.4S370.6 433.9 357 480.4c-5 17 9.8 31.6 27.5 31.6l160 0z"/></svg>