<svg xmlns="http://www.w3.org/2000/svg" viewBox="0 0 576 512"><!--! Font Awesome Pro 7.1.0 by @fontawesome - https://fontawesome.com License - https://fontawesome.com/license (Commercial License) Copyright 2025 Fonticons, Inc. --><path opacity=".4" fill="currentColor" d="M128 464c0 26.5 21.5 48 48 48s48-21.5 48-48c0-5.6-1-11-2.7-16l-90.5 0c-1.8 5-2.7 10.4-2.7 16zm48-320l0 144c0 26.5 21.5 48 48 48l240 0c26.5 0 48-21.5 48-48l0-144c0-26.5-21.5-48-48-48l-32 0 0-24c0-30.9-25.1-56-56-56l-64 0c-30.9 0-56 25.1-56 56l0 24-32 0c-26.5 0-48 21.5-48 48zM304 72c0-4.4 3.6-8 8-8l64 0c4.4 0 8 3.6 8 8l0 24-80 0 0-24zM416 464c0 26.5 21.5 48 48 48s48-21.5 48-48c0-5.6-1-11-2.7-16l-90.5 0c-1.8 5-2.7 10.4-2.7 16z"/><path fill="currentColor" d="M0 32C0 14.3 14.3 0 32 0L48 0c44.2 0 80 35.8 80 80l0 288c0 8.8 7.2 16 16 16l400 0c17.7 0 32 14.3 32 32s-14.3 32-32 32l-400 0c-44.2 0-80-35.8-80-80L64 80c0-8.8-7.2-16-16-16L32 64C14.3 64 0 49.7 0 32z"/></svg>