<svg xmlns="http://www.w3.org/2000/svg" viewBox="0 0 640 512"><!--! Font Awesome Pro 7.1.0 by @fontawesome - https://fontawesome.com License - https://fontawesome.com/license (Commercial License) Copyright 2025 Fonticons, Inc. --><path opacity=".4" fill="currentColor" d="M124.8 32l46.5 256 303.6 0c30.8 0 57.2-21.9 62.9-52.2L568.9 69.9C572.6 50.2 557.5 32 537.4 32L124.8 32zM273.2 97.2c9.4-9.4 24.6-9.4 33.9 0l28.8 28.8 28.8-28.8c9.4-9.4 24.6-9.4 33.9 0s9.4 24.6 0 33.9l-28.9 28.8 28.9 28.9c9.4 9.4 9.4 24.6 0 33.9s-24.6 9.4-33.9 0l-28.9-28.9-28.9 28.9c-9.4 9.4-24.6 9.4-33.9 0s-9.4-24.6 0-33.9l28.9-28.9-28.8-28.8c-9.4-9.4-9.4-24.6 0-33.9z"/><path fill="currentColor" d="M24-16C10.7-16 0-5.3 0 8S10.7 32 24 32l45.3 0c3.9 0 7.2 2.8 7.9 6.6l52.1 286.3c6.2 34.2 36 59.1 70.8 59.1L456 384c13.3 0 24-10.7 24-24s-10.7-24-24-24l-255.9 0c-11.6 0-21.5-8.3-23.6-19.7L124.4 30c-4.8-26.6-28-46-55.1-46L24-16zM256 464a48 48 0 1 0 -96 0 48 48 0 1 0 96 0zm224 0a48 48 0 1 0 -96 0 48 48 0 1 0 96 0zM398.8 131.2c9.4-9.4 9.4-24.6 0-33.9s-24.6-9.4-33.9 0L336 126.1 307.2 97.2c-9.4-9.4-24.6-9.4-33.9 0s-9.4 24.6 0 33.9l28.8 28.8-28.9 28.9c-9.4 9.4-9.4 24.6 0 33.9s24.6 9.4 33.9 0l28.9-28.9 28.9 28.9c9.4 9.4 24.6 9.4 33.9 0s9.4-24.6 0-33.9l-28.9-28.9 28.9-28.8z"/></svg>