<svg xmlns="http://www.w3.org/2000/svg" viewBox="0 0 384 512"><!--! Font Awesome Pro 7.1.0 by @fontawesome - https://fontawesome.com License - https://fontawesome.com/license (Commercial License) Copyright 2025 Fonticons, Inc. --><path opacity=".4" fill="currentColor" d="M184 32c0-13.3 10.7-24 24-24s24 10.7 24 24l0 24.6c-5.3-.4-10.6-.6-16-.6-10.9 0-21.6 .9-32 2.5L184 32zm0 91.8c10.3-2.5 21-3.8 32-3.8 5.4 0 10.8 .3 16 .9l0 270.1c-5.2 .6-10.6 .9-16 .9-11 0-21.7-1.3-32-3.8l0-264.4zm0 329.7c10.4 1.7 21.1 2.5 32 2.5 5.4 0 10.7-.2 16-.6l0 24.6c0 13.3-10.7 24-24 24s-24-10.7-24-24l0-26.5z"/><path fill="currentColor" d="M216 120c-75.1 0-136 60.9-136 136s60.9 136 136 136c36.2 0 69-14.1 93.3-37.1 12.9-12.1 33.1-11.5 45.2 1.3s11.5 33.1-1.3 45.2C317.5 435.2 269.1 456 216 456 105.5 456 16 366.5 16 256S105.5 56 216 56c53.1 0 101.5 20.8 137.3 54.5 12.9 12.1 13.4 32.4 1.3 45.2s-32.4 13.4-45.2 1.3C285 134.1 252.2 120 216 120z"/></svg>