<svg xmlns="http://www.w3.org/2000/svg" viewBox="0 0 576 512"><!--! Font Awesome Pro 7.0.1 by @fontawesome - https://fontawesome.com License - https://fontawesome.com/license (Commercial License) Copyright 2025 Fonticons, Inc. --><path style="fill:var(--fa-secondary-color,currentColor);opacity:var(--fa-secondary-opacity,.4)" d="M96 128l0 256 160 0 0-32c0-17.7 14.3-32 32-32l96 0c17.7 0 32 14.3 32 32l0 32 64 0 0-256-384 0z"/><path style="fill:var(--fa-primary-color,currentColor);opacity:var(--fa-primary-opacity,1)" d="M96 64c-35.3 0-64 28.7-64 64l0 256c-17.7 0-32 14.3-32 32s14.3 32 32 32l512 0c17.7 0 32-14.3 32-32s-14.3-32-32-32l0-256c0-35.3-28.7-64-64-64L96 64zM480 384l-384 0 0-256 384 0 0 256z"/></svg>