<svg xmlns="http://www.w3.org/2000/svg" viewBox="0 0 256 512"><!--! Font Awesome Pro 7.1.0 by @fontawesome - https://fontawesome.com License - https://fontawesome.com/license (Commercial License) Copyright 2025 Fonticons, Inc. --><path opacity=".4" fill="currentColor" d="M61.3 198.5c-1-22.2 .7-46.3 4.2-70.5l125.3 0c3.5 24.2 5.2 48.4 4.2 70.5-1.4 30.5-7.8 53.4-18.2 67.8-9 12.6-22.8 21.6-48.6 21.6s-39.6-9.1-48.6-21.6c-10.4-14.5-16.8-37.3-18.2-67.8z"/><path fill="currentColor" d="M64.1-32C50.5-32 38.4-23.4 33.9-10.6 14.6 44.6-6 129-2.6 201.5-1 237.6 6.8 274.8 27.5 303.6 43.9 326.6 67 342.2 96.1 348.6l0 131.4-32 0c-17.7 0-32 14.3-32 32s14.3 32 32 32l128 0c17.7 0 32-14.3 32-32s-14.3-32-32-32l-32 0 0-131.4c29.2-6.5 52.2-22.1 68.7-45 20.7-28.9 28.4-66 30.1-102.2 3.3-72.5-17.3-156.9-36.6-212-4.5-12.8-16.6-21.4-30.2-21.4l-128 0zM61.3 198.5C58.9 145.7 72 81.7 87.3 32L169 32c15.3 49.7 28.4 113.7 26 166.5-1.4 30.5-7.8 53.4-18.2 67.8-9 12.6-22.8 21.6-48.6 21.6s-39.6-9.1-48.6-21.6c-10.4-14.5-16.8-37.3-18.2-67.8z"/></svg>