<svg xmlns="http://www.w3.org/2000/svg" viewBox="0 0 320 512"><!--! Font Awesome Pro 7.1.0 by @fontawesome - https://fontawesome.com License - https://fontawesome.com/license (Commercial License) Copyright 2025 Fonticons, Inc. --><path opacity=".4" fill="currentColor" d="M16 476.5C16 496.1 31.9 512 51.5 512l216.9 0c19.6 0 35.5-15.9 35.5-35.5 0-8.1-2.7-15.9-7.8-22.2L240 384 80 384 23.8 454.3c-5 6.3-7.8 14.1-7.8 22.2z"/><path fill="currentColor" d="M80.8 275l15.2 13-16 96 160 0-16-96 15.2-13c25.9-22.2 40.8-54.6 40.8-88.7 0-22.2-6.3-43.8-18-62.3l-61 61c-9.4 9.4-24.6 9.4-33.9 0s-9.4-24.6 0-33.9l64.8-64.8-31.8-38.2 8 0c13.3 0 24-10.7 24-24S221.3 0 208 0L112 0C98.7 0 88 10.7 88 24s10.7 24 24 24l8 0-52.9 63.5C49.6 132.5 40 159 40 186.3 40 220.4 54.9 252.8 80.8 275z"/></svg>