<svg xmlns="http://www.w3.org/2000/svg" viewBox="0 0 320 512"><!--! Font Awesome Pro 7.1.0 by @fontawesome - https://fontawesome.com License - https://fontawesome.com/license (Commercial License) Copyright 2025 Fonticons, Inc. --><path opacity=".4" fill="currentColor" d="M0 476.5C0 496.1 15.9 512 35.5 512l248.9 0c19.6 0 35.5-15.9 35.5-35.5 0-8.1-2.7-15.9-7.8-22.2L256 384 64 384 7.8 454.3c-5 6.3-7.8 14.1-7.8 22.2z"/><path fill="currentColor" d="M136 56l0 40-78.1 0c-14.3 0-25.9 11.6-25.9 25.9 0 4 .9 8 2.7 11.6l33.4 66.8c-11.4 1.8-20.2 11.7-20.2 23.7 0 13.3 10.7 24 24 24l5.6 0-13.6 136 192 0-13.6-136 5.6 0c13.3 0 24-10.7 24-24 0-11.9-8.7-21.9-20.2-23.7l33.4-66.8c1.8-3.6 2.7-7.6 2.7-11.6 0-14.3-11.6-25.9-25.9-25.9l-78.1 0 0-40 16 0c13.3 0 24-10.7 24-24S213.3 8 200 8l-16 0 0-16c0-13.3-10.7-24-24-24S136-21.3 136-8l0 16-16 0C106.7 8 96 18.7 96 32s10.7 24 24 24l16 0z"/></svg>