<svg xmlns="http://www.w3.org/2000/svg" viewBox="0 0 640 512"><!--! Font Awesome Pro 7.1.0 by @fontawesome - https://fontawesome.com License - https://fontawesome.com/license (Commercial License) Copyright 2025 Fonticons, Inc. --><path opacity=".4" fill="currentColor" d="M3.4 486.1c-5.5 6.9-4.3 17 2.7 22.5s17 4.3 22.5-2.7l267.8-304c-20.2-16.1-40.3-32.3-60.5-48.4-77.5 110.9-155 221.8-232.4 332.6zm128.4 20.3c5.8 6.7 15.9 7.5 22.6 1.7L472.3 264.3 419 211c-95.2 91-190.3 181.9-285.4 272.8-6.7 5.8-7.5 15.8-1.7 22.6z"/><path fill="currentColor" d="M296.3 201.9l-60.5-48.4 94.4-135.1c8.8-11.2 22.4-18.3 37.7-18.3 26.5 0 48 21.5 48 48 0 11.2-3.8 21.5-10.3 29.7L296.3 201.9zm175.9 62.4L419 211 560.8 75.6c8.4-7.2 19.3-11.6 31.2-11.6 26.5 0 48 21.5 48 48 0 14.6-6.5 27.6-16.8 36.4l-151 115.8z"/></svg>