<svg xmlns="http://www.w3.org/2000/svg" viewBox="0 0 512 512"><!--! Font Awesome Pro 7.1.0 by @fontawesome - https://fontawesome.com License - https://fontawesome.com/license (Commercial License) Copyright 2025 Fonticons, Inc. --><path opacity=".4" fill="currentColor" d="M120.2 120.2L256 256 391.8 120.2C357 85.5 309 64 256 64S155 85.5 120.2 120.2zm0 271.5C155 426.5 203 448 256 448s101-21.5 135.8-56.2L256 256 120.2 391.8z"/><path fill="currentColor" d="M256 64a192 192 0 1 1 0 384 192 192 0 1 1 0-384zm0 448a256 256 0 1 0 0-512 256 256 0 1 0 0 512z"/></svg>