<svg xmlns="http://www.w3.org/2000/svg" viewBox="0 0 512 512"><!--! Font Awesome Pro 7.1.0 by @fontawesome - https://fontawesome.com License - https://fontawesome.com/license (Commercial License) Copyright 2025 Fonticons, Inc. --><path opacity=".4" fill="currentColor" d="M0 256a256 256 0 1 0 512 0 256 256 0 1 0 -512 0zM113 384.2c22.1-38.3 63.5-64.2 111-64.2l64 0c47.4 0 88.9 25.8 111 64.2-35.2 39.2-86.2 63.8-143 63.8s-107.8-24.7-143-63.8zM328 200a72 72 0 1 1 -144 0 72 72 0 1 1 144 0z"/><path fill="currentColor" d="M256 272a72 72 0 1 0 0-144 72 72 0 1 0 0 144zm0 176c56.8 0 107.8-24.7 143-63.8-22.1-38.3-63.5-64.2-111-64.2l-64 0c-47.4 0-88.9 25.8-111 64.2 35.2 39.2 86.2 63.8 143 63.8z"/></svg>