<svg xmlns="http://www.w3.org/2000/svg" viewBox="0 0 512 512"><!--! Font Awesome Pro 7.1.0 by @fontawesome - https://fontawesome.com License - https://fontawesome.com/license (Commercial License) Copyright 2025 Fonticons, Inc. --><path opacity=".4" fill="currentColor" d="M0 256a256 256 0 1 0 512 0 256 256 0 1 0 -512 0zm145.2-41.9c-2.5-6-1.1-12.9 3.5-17.4l96-96c6.2-6.2 16.4-6.2 22.6 0l96 96c4.6 4.6 5.9 11.5 3.5 17.4S358.5 224 352 224l-192 0c-6.5 0-12.3-3.9-14.8-9.9zm0 83.8c2.5-6 8.3-9.9 14.8-9.9l192 0c6.5 0 12.3 3.9 14.8 9.9s1.1 12.9-3.5 17.4l-96 96c-6.2 6.2-16.4 6.2-22.6 0l-96-96c-4.6-4.6-5.9-11.5-3.5-17.4z"/><path fill="currentColor" d="M244.7 100.7c6.2-6.2 16.4-6.2 22.6 0l96 96c4.6 4.6 5.9 11.5 3.5 17.4S358.5 224 352 224l-192 0c-6.5 0-12.3-3.9-14.8-9.9s-1.1-12.9 3.5-17.4l96-96zm0 310.6l-96-96c-4.6-4.6-5.9-11.5-3.5-17.4s8.3-9.9 14.8-9.9l192 0c6.5 0 12.3 3.9 14.8 9.9s1.1 12.9-3.5 17.4l-96 96c-6.2 6.2-16.4 6.2-22.6 0z"/></svg>