<svg xmlns="http://www.w3.org/2000/svg" viewBox="0 0 512 512"><!--! Font Awesome Pro 7.1.0 by @fontawesome - https://fontawesome.com License - https://fontawesome.com/license (Commercial License) Copyright 2025 Fonticons, Inc. --><path opacity=".4" fill="currentColor" d="M0 256a256 256 0 1 0 512 0 256 256 0 1 0 -512 0zm160-56c0-13.3 10.7-24 24-24l144 0c13.3 0 24 10.7 24 24s-10.7 24-24 24l-144 0c-13.3 0-24-10.7-24-24zm0 112c0-13.3 10.7-24 24-24l144 0c13.3 0 24 10.7 24 24s-10.7 24-24 24l-144 0c-13.3 0-24-10.7-24-24z"/><path fill="currentColor" d="M184 176c-13.3 0-24 10.7-24 24s10.7 24 24 24l144 0c13.3 0 24-10.7 24-24s-10.7-24-24-24l-144 0zm0 112c-13.3 0-24 10.7-24 24s10.7 24 24 24l144 0c13.3 0 24-10.7 24-24s-10.7-24-24-24l-144 0z"/></svg>