<svg xmlns="http://www.w3.org/2000/svg" viewBox="0 0 512 512"><!--! Font Awesome Pro 7.1.0 by @fontawesome - https://fontawesome.com License - https://fontawesome.com/license (Commercial License) Copyright 2025 Fonticons, Inc. --><path opacity=".4" fill="currentColor" d="M0 256a256 256 0 1 0 512 0 256 256 0 1 0 -512 0zm448 0a192 192 0 1 1 -384 0 192 192 0 1 1 384 0z"/><path fill="currentColor" d="M232 192l0 64 48 0c17.7 0 32-14.3 32-32s-14.3-32-32-32l-48 0zm144 32c0 53-43 96-96 96l-48 0 0 32c0 17.7-14.3 32-32 32s-32-14.3-32-32l0-184c0-22.1 17.9-40 40-40l72 0c53 0 96 43 96 96z"/></svg>