<svg xmlns="http://www.w3.org/2000/svg" viewBox="0 0 512 512"><!--! Font Awesome Pro 7.1.0 by @fontawesome - https://fontawesome.com License - https://fontawesome.com/license (Commercial License) Copyright 2025 Fonticons, Inc. --><path opacity=".4" fill="currentColor" d="M0 256a256 256 0 1 0 512 0 256 256 0 1 0 -512 0zm120-40.4c0-35.1 28.5-63.6 63.6-63.6l24.4 0c13.3 0 24 10.7 24 24s-10.7 24-24 24l-24.4 0c-8.6 0-15.6 7-15.6 15.6 0 7.4 5.2 13.8 12.5 15.3l16.4 3.3c29.7 5.9 51.1 32 51.1 62.3 0 35.1-28.5 63.6-63.6 63.6L152 360c-13.3 0-24-10.7-24-24s10.7-24 24-24l32.4 0c8.6 0 15.6-7 15.6-15.6 0-7.4-5.2-13.8-12.5-15.3l-16.4-3.3c-29.7-5.9-51.1-32-51.1-62.3zm144 0c0-29.7 20.4-54.7 48-61.6l0-17.9c0-8.8 7.2-16 16-16s16 7.2 16 16l0 16 8 0c13.3 0 24 10.7 24 24s-10.7 24-24 24l-24.4 0c-8.6 0-15.6 7-15.6 15.6 0 7.4 5.2 13.8 12.5 15.3l16.4 3.3c29.7 5.9 51.1 32 51.1 62.3 0 29.7-20.4 54.7-48 61.6l0 17.9c0 8.8-7.2 16-16 16s-16-7.2-16-16l0-16-16 0c-13.3 0-24-10.7-24-24s10.7-24 24-24l32.4 0c8.6 0 15.6-7 15.6-15.6 0-7.4-5.2-13.8-12.5-15.3l-16.4-3.3c-29.7-5.9-51.1-32-51.1-62.3z"/><path fill="currentColor" d="M312 136c0-8.8 7.2-16 16-16s16 7.2 16 16l0 16 8 0c13.3 0 24 10.7 24 24s-10.7 24-24 24l-24.4 0c-8.6 0-15.6 7-15.6 15.6 0 7.4 5.2 13.8 12.5 15.3l16.4 3.3c29.7 5.9 51.1 32 51.1 62.3 0 29.7-20.4 54.7-48 61.6l0 17.9c0 8.8-7.2 16-16 16s-16-7.2-16-16l0-16-16 0c-13.3 0-24-10.7-24-24s10.7-24 24-24l32.4 0c8.6 0 15.6-7 15.6-15.6 0-7.4-5.2-13.8-12.5-15.3l-16.4-3.3c-29.7-5.9-51.1-32-51.1-62.3 0-29.7 20.4-54.7 48-61.6l0-17.9zM183.6 152l24.4 0c13.3 0 24 10.7 24 24s-10.7 24-24 24l-24.4 0c-8.6 0-15.6 7-15.6 15.6 0 7.4 5.2 13.8 12.5 15.3l16.4 3.3c29.7 5.9 51.1 32 51.1 62.3 0 35.1-28.5 63.6-63.6 63.6L152 360c-13.3 0-24-10.7-24-24s10.7-24 24-24l32.4 0c8.6 0 15.6-7 15.6-15.6 0-7.4-5.2-13.8-12.5-15.3l-16.4-3.3c-29.7-5.9-51.1-32-51.1-62.3 0-35.1 28.5-63.6 63.6-63.6z"/></svg>