<svg xmlns="http://www.w3.org/2000/svg" viewBox="0 0 384 512"><!--! Font Awesome Pro 7.1.0 by @fontawesome - https://fontawesome.com License - https://fontawesome.com/license (Commercial License) Copyright 2025 Fonticons, Inc. --><path opacity=".4" fill="currentColor" d="M0 96L0 448c0 35.3 28.7 64 64 64l256 0c35.3 0 64-28.7 64-64l0-352c0-35.3-28.7-64-64-64l-8.6 0C300.4 12.9 279.7 0 256 0L128 0C104.3 0 83.6 12.9 72.6 32L64 32C28.7 32 0 60.7 0 96zM128 256a32 32 0 1 1 -64 0 32 32 0 1 1 64 0zm0 128a32 32 0 1 1 -64 0 32 32 0 1 1 64 0zM112 88c0-13.3 10.7-24 24-24l112 0c13.3 0 24 10.7 24 24s-10.7 24-24 24l-112 0c-13.3 0-24-10.7-24-24zm48 168c0-13.3 10.7-24 24-24l112 0c13.3 0 24 10.7 24 24s-10.7 24-24 24l-112 0c-13.3 0-24-10.7-24-24zm0 128c0-13.3 10.7-24 24-24l112 0c13.3 0 24 10.7 24 24s-10.7 24-24 24l-112 0c-13.3 0-24-10.7-24-24z"/><path fill="currentColor" d="M96 288a32 32 0 1 0 0-64 32 32 0 1 0 0 64zm88-56c-13.3 0-24 10.7-24 24s10.7 24 24 24l112 0c13.3 0 24-10.7 24-24s-10.7-24-24-24l-112 0zm0 128c-13.3 0-24 10.7-24 24s10.7 24 24 24l112 0c13.3 0 24-10.7 24-24s-10.7-24-24-24l-112 0zm-56 24a32 32 0 1 0 -64 0 32 32 0 1 0 64 0z"/></svg>