<svg xmlns="http://www.w3.org/2000/svg" viewBox="0 0 384 512"><!--! Font Awesome Pro 7.1.0 by @fontawesome - https://fontawesome.com License - https://fontawesome.com/license (Commercial License) Copyright 2025 Fonticons, Inc. --><path opacity=".4" fill="currentColor" d="M0 96L0 448c0 35.3 28.7 64 64 64l256 0c35.3 0 64-28.7 64-64l0-352c0-35.3-28.7-64-64-64l-8.6 0C300.4 12.9 279.7 0 256 0L128 0C104.3 0 83.6 12.9 72.6 32L64 32C28.7 32 0 60.7 0 96zM57.9 244.9c-6.6-8.3-5.3-20.4 3-27s20.4-5.3 27 3l10 12.5 30.3-37.5c6.7-8.2 18.8-9.5 27-2.8s9.5 18.8 2.8 27l-45.3 56c-3.7 4.5-9.2 7.1-15 7.1s-11.3-2.7-14.9-7.2L57.9 244.9zM128 384a32 32 0 1 1 -64 0 32 32 0 1 1 64 0zM112 88c0-13.3 10.7-24 24-24l112 0c13.3 0 24 10.7 24 24s-10.7 24-24 24l-112 0c-13.3 0-24-10.7-24-24zm64 168c0-13.3 10.7-24 24-24l96 0c13.3 0 24 10.7 24 24s-10.7 24-24 24l-96 0c-13.3 0-24-10.7-24-24zm0 128c0-13.3 10.7-24 24-24l96 0c13.3 0 24 10.7 24 24s-10.7 24-24 24l-96 0c-13.3 0-24-10.7-24-24z"/><path fill="currentColor" d="M158 220.1c6.7-8.2 5.4-20.3-2.8-27s-20.3-5.4-27 2.8l-30.3 37.5-10-12.5c-6.6-8.3-18.7-9.6-27-3s-9.6 18.7-3 27L82.8 276c3.6 4.5 9.1 7.2 14.9 7.2s11.3-2.6 15-7.1l45.3-56zM200 232c-13.3 0-24 10.7-24 24s10.7 24 24 24l96 0c13.3 0 24-10.7 24-24s-10.7-24-24-24l-96 0zm0 128c-13.3 0-24 10.7-24 24s10.7 24 24 24l96 0c13.3 0 24-10.7 24-24s-10.7-24-24-24l-96 0zm-72 24a32 32 0 1 0 -64 0 32 32 0 1 0 64 0z"/></svg>