<svg xmlns="http://www.w3.org/2000/svg" viewBox="0 0 512 512"><!--! Font Awesome Pro 7.1.0 by @fontawesome - https://fontawesome.com License - https://fontawesome.com/license (Commercial License) Copyright 2025 Fonticons, Inc. --><path opacity=".4" fill="currentColor" d="M0 256a256 256 0 1 0 512 0 256 256 0 1 0 -512 0zm232.2-3c.1-1 .3-1.9 .5-2.9 .5-1.9 1.2-3.7 2.1-5.4 1.8-3.4 4.5-6.4 7.8-8.6 32-21.3 64-42.7 96-64 11-7.4 25.9-4.4 33.3 6.7s4.4 25.9-6.7 33.3c-28.4 19-56.9 37.9-85.3 56.9L280 392c0 13.3-10.7 24-24 24-6.6 0-12.6-2.7-17-7-2.2-2.2-3.9-4.8-5.1-7.6-.6-1.4-1.1-2.9-1.4-4.5-.3-1.6-.5-3.1-.5-4.8 0-45.3 0-90.7 0-136.3 0-.3 0-.8 0-1.3 0-.5 .1-1 .1-1.5z"/><path fill="currentColor" d="M256 416c-13.3 0-24-10.7-24-24l0-136c0-8 4-15.5 10.7-20l96-64c11-7.4 25.9-4.4 33.3 6.7s4.4 25.9-6.7 33.3L280 268.8 280 392c0 13.3-10.7 24-24 24z"/></svg>