<svg xmlns="http://www.w3.org/2000/svg" viewBox="0 0 512 512"><!--! Font Awesome Pro 7.1.0 by @fontawesome - https://fontawesome.com License - https://fontawesome.com/license (Commercial License) Copyright 2025 Fonticons, Inc. --><path opacity=".4" fill="currentColor" d="M0 256a256 256 0 1 0 512 0 256 256 0 1 0 -512 0zm232 0c0-4.7 1.4-9.4 4-13.3l64-96c7.4-11 22.3-14 33.3-6.7s14 22.3 6.7 33.3l-60 90 0 128.7c0 13.3-10.7 24-24 24s-24-10.7-24-24l0-136z"/><path fill="currentColor" d="M256 416c13.3 0 24-10.7 24-24l0-128.7 60-90c7.4-11 4.4-25.9-6.7-33.3s-25.9-4.4-33.3 6.7l-64 96c-2.6 3.9-4 8.6-4 13.3l0 136c0 13.3 10.7 24 24 24z"/></svg>