<svg xmlns="http://www.w3.org/2000/svg" viewBox="0 0 512 512"><!--! Font Awesome Pro 7.1.0 by @fontawesome - https://fontawesome.com License - https://fontawesome.com/license (Commercial License) Copyright 2025 Fonticons, Inc. --><path opacity=".4" fill="currentColor" d="M0 256a256 256 0 1 0 512 0 256 256 0 1 0 -512 0zm140 77.3c-7.4-11-4.4-25.9 6.7-33.3 28.4-19 56.9-37.9 85.3-56.9L232 120c0-13.3 10.7-24 24-24s24 10.7 24 24l0 136c0 8-4 15.5-10.7 20-32 21.3-64 42.7-96 64-11 7.4-25.9 4.4-33.3-6.7z"/><path fill="currentColor" d="M256 96c13.3 0 24 10.7 24 24l0 136c0 8-4 15.5-10.7 20l-96 64c-11 7.4-25.9 4.4-33.3-6.7s-4.4-25.9 6.7-33.3L232 243.2 232 120c0-13.3 10.7-24 24-24z"/></svg>