<svg xmlns="http://www.w3.org/2000/svg" viewBox="0 0 576 512"><!--! Font Awesome Pro 7.1.0 by @fontawesome - https://fontawesome.com License - https://fontawesome.com/license (Commercial License) Copyright 2025 Fonticons, Inc. --><path opacity=".4" fill="currentColor" d="M0 192c0 53 43 96 96 96l.4 0c5-4.3 10.4-8.2 16-11.6 6-82.9 75.1-148.4 159.6-148.4 39.7 0 76 14.5 104 38.4 12.6-4.1 26.1-6.4 40-6.4 11 0 21.7 1.4 31.9 4 .1-1.3 .1-2.7 .1-4 0-53-43-96-96-96-14 0-27.2 3-39.2 8.4-16-42.3-56.9-72.4-104.8-72.4-56.4 0-103.1 41.7-110.9 96L96 96C43 96 0 139 0 192z"/><path fill="currentColor" d="M96 392c0 48.6 39.4 88 88 88l296 0c53 0 96-43 96-96 0-47.6-34.6-87.1-80-94.7 0-.4 0-.9 0-1.3 0-44.2-35.8-80-80-80-19.2 0-36.9 6.8-50.7 18.1-20.1-30.2-54.4-50.1-93.3-50.1-61.9 0-112 50.1-112 112 0 6.4 .5 12.7 1.6 18.9-37.7 9.9-65.6 44.3-65.6 85.1z"/></svg>