<svg xmlns="http://www.w3.org/2000/svg" viewBox="0 0 384 512"><!--! Font Awesome Pro 7.1.0 by @fontawesome - https://fontawesome.com License - https://fontawesome.com/license (Commercial License) Copyright 2025 Fonticons, Inc. --><path opacity=".4" fill="currentColor" d="M48 153.3c9.8 4.3 20.6 6.7 32 6.7s22.2-2.4 32-6.7l0 205.3c-9.8-4.3-20.6-6.7-32-6.7s-22.2 2.4-32 6.7l0-205.3zM344 80a40 40 0 1 1 -80 0 40 40 0 1 1 80 0zm0 152a40 40 0 1 1 -80 0 40 40 0 1 1 80 0z"/><path fill="currentColor" d="M80 56a24 24 0 1 1 0 48 24 24 0 1 1 0-48zm0 104A80 80 0 1 0 80 0 80 80 0 1 0 80 160zm0 296c-13.3 0-24-10.7-24-24s10.7-24 24-24 24 10.7 24 24-10.7 24-24 24zm0 56c44.2 0 80-35.8 80-80s-35.8-80-80-80-80 35.8-80 80 35.8 80 80 80zm248-80c0 13.3-10.7 24-24 24s-24-10.7-24-24 10.7-24 24-24 24 10.7 24 24zm56 0c0-44.2-35.8-80-80-80s-80 35.8-80 80 35.8 80 80 80 80-35.8 80-80z"/></svg>