<svg xmlns="http://www.w3.org/2000/svg" viewBox="0 0 512 512"><!--! Font Awesome Pro 7.1.0 by @fontawesome - https://fontawesome.com License - https://fontawesome.com/license (Commercial License) Copyright 2025 Fonticons, Inc. --><path opacity=".4" fill="currentColor" d="M128 336c0-5.4 .3-10.8 1-16l318 0c.7 5.2 1 10.6 1 16l0 8c0 27.4-16.8 53.7-33.5 72l-253.1 0c-16.7-18.3-33.5-44.6-33.5-72l0-8z"/><path fill="currentColor" d="M96 96c-17.7 0-32 14.3-32 32l0 64c0 17.7-14.3 32-32 32S0 209.7 0 192l0-64C0 75 43 32 96 32l357.2 0c14.8 0 26.8 12 26.8 26.8 0 3.4-.7 6.8-1.9 10L433.2 180.9C481 215.9 512 272.3 512 336l0 8c0 55.5-34.6 99.4-55.9 121.2-9.9 10.2-23.9 14.8-38.1 14.8L158 480c-14.2 0-28.1-4.7-38.1-14.8-21.2-21.7-55.9-65.7-55.9-121.2l0-8c0-63.7 31-120.1 78.8-155.1L108.8 96 96 96zm98 128c-39.4 21.8-66 63.8-66 112l0 8c0 27.4 16.8 53.7 33.5 72l253.1 0c16.7-18.3 33.5-44.6 33.5-72l0-8c0-48.2-26.6-90.2-66-112l-188 0z"/></svg>