<svg xmlns="http://www.w3.org/2000/svg" viewBox="0 0 512 512"><!--! Font Awesome Pro 7.1.0 by @fontawesome - https://fontawesome.com License - https://fontawesome.com/license (Commercial License) Copyright 2025 Fonticons, Inc. --><path opacity=".4" fill="currentColor" d="M0 240c0 54.3 19.2 104.3 51.6 144.5L2.8 476.8c-4.8 9-3.3 20 3.6 27.5s17.8 9.8 27.1 5.8l118.4-50.7c31.8 13.3 67.1 20.7 104.1 20.7 141.4 0 256-107.5 256-240S397.4 0 256 0 0 107.5 0 240zm148.7 80c-8.8-9.9-8-25 1.9-33.9s25-8 33.9 1.9c17.6 19.7 43.1 32 71.6 32s53.9-12.3 71.6-32c8.8-9.9 24-10.7 33.9-1.9s10.7 24 1.9 33.9C337 349.4 298.6 368 256 368s-81-18.6-107.3-48zM224 192a32 32 0 1 1 -64 0 32 32 0 1 1 64 0zm128 0a32 32 0 1 1 -64 0 32 32 0 1 1 64 0z"/><path fill="currentColor" d="M224 192a32 32 0 1 0 -64 0 32 32 0 1 0 64 0zm128 0a32 32 0 1 0 -64 0 32 32 0 1 0 64 0zM184.4 288c-8.8-9.9-24-10.7-33.9-1.9s-10.7 24-1.9 33.9c26.3 29.4 64.7 48 107.3 48s81-18.6 107.3-48c8.8-9.9 8-25-1.9-33.9s-25-8-33.9 1.9c-17.6 19.7-43.1 32-71.6 32s-53.9-12.3-71.6-32z"/></svg>