<svg xmlns="http://www.w3.org/2000/svg" viewBox="0 0 576 512"><!--! Font Awesome Pro 7.1.0 by @fontawesome - https://fontawesome.com License - https://fontawesome.com/license (Commercial License) Copyright 2025 Fonticons, Inc. --><path opacity=".4" fill="currentColor" d="M32 240c0 54.3 19.2 104.3 51.6 144.5L34.8 476.8c-4.8 9-3.3 20 3.6 27.5s17.8 9.8 27.1 5.8l118.4-50.7c31.8 13.3 67.1 20.7 104.1 20.7 141.4 0 256-107.5 256-240 0-13.6-1.2-26.9-3.5-39.9-13.9 5.1-28.8 7.9-44.5 7.9-70.7 0-128-57.3-128-128 0-22.7 5.9-44 16.2-62.5-29.7-11.3-62.2-17.5-96.2-17.5-141.4 0-256 107.5-256 240z"/><path fill="currentColor" d="M416 80a80 80 0 1 1 160 0 80 80 0 1 1 -160 0z"/></svg>