<svg xmlns="http://www.w3.org/2000/svg" viewBox="0 0 512 512"><!--! Font Awesome Pro 7.1.0 by @fontawesome - https://fontawesome.com License - https://fontawesome.com/license (Commercial License) Copyright 2025 Fonticons, Inc. --><path opacity=".4" fill="currentColor" d="M1.7 264.8c4-7.9 13.6-11.1 21.5-7.2l28.6 14.3 37.5 0c-4.1 10.1-6.9 20.8-8.3 32l-33 0c-2.5 0-4.9-.6-7.2-1.7l-32-16c-7.9-4-11.1-13.6-7.2-21.5zm19 107.8l32-32c1.8-1.8 3.9-3.1 6.3-3.9l21.1-7 0 6.2 20.6 20.6-28 9.3-29.3 29.3c-6.2 6.2-16.4 6.2-22.6 0s-6.2-16.4 0-22.6zm32 64l32-32c1.8-1.8 3.9-3.1 6.3-3.9l40.4-13.5 25.3 25.3-52 17.3-29.3 29.3c-6.2 6.2-16.4 6.2-22.6 0s-6.2-16.4 0-22.6zM128 464c0-5.6 2.9-10.8 7.8-13.7l36.6-21.9 19.7 19.7 9.8 0-41.8 25.1 0 22.9c0 8.8-7.2 16-16 16s-16-7.2-16-16l0-32zm64-320c0-8.8 7.2-16 16-16s16 7.2 16 16l0 48-16 0c-5.4 0-10.8 .3-16 1l0-49zm96 0c0-8.8 7.2-16 16-16s16 7.2 16 16l0 49c-5.2-.7-10.6-1-16-1l-16 0 0-48zm22.2 304l9.8 0 19.7-19.7 36.6 21.9c4.8 2.9 7.8 8.1 7.8 13.7l0 32c0 8.8-7.2 16-16 16s-16-7.2-16-16l0-22.9-41.8-25.1zm45.1-35.4l25.3-25.3 40.4 13.5c2.4 .8 4.5 2.1 6.3 3.9l32 32c6.2 6.2 6.2 16.4 0 22.6s-16.4 6.2-22.6 0l-29.3-29.3-52-17.3zm56-56l20.6-20.6 0-6.2 21.1 7c2.4 .8 4.5 2.1 6.3 3.9l32 32c6.2 6.2 6.2 16.4 0 22.6s-16.4 6.2-22.6 0l-29.3-29.3-28-9.3zM422.7 272l37.5 0 28.6-14.3c7.9-4 17.5-.7 21.5 7.2s.7 17.5-7.2 21.5l-32 16c-2.2 1.1-4.7 1.7-7.2 1.7l-33 0c-1.4-11.2-4.2-21.9-8.3-32z"/><path fill="currentColor" d="M22.5 55.5C8.3 76.1 0 101.1 0 128l0 33.3c0 28.1 16.3 53.6 41.8 65.4L98.9 253C86.9 272.5 80 295.4 80 320l0 16 112 112 128 0 112-112 0-16c0-24.6-7-47.6-19-67.1l56.7-26.2c25.5-11.8 41.8-37.3 41.8-65.4l0-33.3c0-26.9-8.3-51.9-22.5-72.5-19.4-33.1-55.3-55.5-96.7-55.5L325.2 0c-3.1 0-5.7 2.5-5.7 5.7 0 1.5 .6 2.9 1.7 4l40.7 40.7c5 5 1.5 13.7-5.7 13.7l-28.7 0c-4.4 0-8.1 3.6-7.5 8 3.9 31.6 30.9 56 63.5 56l80 0 0 33.3c0 9.4-5.4 17.9-13.9 21.8l-71.1 32.8c-21-15-46.7-23.9-74.5-23.9l-96 0c-27.9 0-53.7 8.9-74.7 24L61.9 183.1C53.4 179.2 48 170.6 48 161.3l0-33.3 80 0c32.6 0 59.6-24.4 63.5-56 .5-4.4-3.1-8-7.5-8l-36.7 0c-7.1 0-10.7-8.6-5.7-13.7l36.7-36.7c5-5 1.5-13.7-5.7-13.7L119.2 0C77.8 0 41.9 22.4 22.5 55.5z"/></svg>