<svg xmlns="http://www.w3.org/2000/svg" viewBox="0 0 512 512"><!--! Font Awesome Pro 7.1.0 by @fontawesome - https://fontawesome.com License - https://fontawesome.com/license (Commercial License) Copyright 2025 Fonticons, Inc. --><path opacity=".4" fill="currentColor" d="M64 32l0 352c0 35.3 28.7 64 64 64l256 0 0-64-210.7 0 210.7-210.7 0-45.3-45.3 0-210.7 210.7 0-306.7c0-17.7-14.3-32-32-32S64 14.3 64 32zM400.6 66.2c22 5.9 39.4 23.2 45.3 45.3l56.8-56.8c12.5-12.5 12.5-32.8 0-45.3s-32.8-12.5-45.3 0L400.6 66.2zM448 384l0 64 32 0c17.7 0 32-14.3 32-32s-14.3-32-32-32l-32 0z"/><path fill="currentColor" d="M32 64C14.3 64 0 78.3 0 96s14.3 32 32 32l32 0 0-64-32 0zM384 480c0 17.7 14.3 32 32 32s32-14.3 32-32l0-352c0-35.3-28.7-64-64-64l-256 0 0 64 256 0 0 352z"/></svg>