<svg xmlns="http://www.w3.org/2000/svg" viewBox="0 0 576 512"><!--! Font Awesome Pro 7.1.0 by @fontawesome - https://fontawesome.com License - https://fontawesome.com/license (Commercial License) Copyright 2025 Fonticons, Inc. --><path opacity=".4" fill="currentColor" d="M9.4 169.4c-12.5 12.5-12.5 32.8 0 45.3s32.8 12.5 45.3 0l1.4-1.4 72 72 0-2.7c0-24.6 6.3-48.6 18-69.7l-44.8-44.8 66.7-66.7 40.8 40.8 45.3-45.3-40.8-40.8 1.4-1.4c12.5-12.5 12.5-32.8 0-45.3s-32.8-12.5-45.3 0l-160 160zM376.4 421.7l80.9 80.9c12.5 12.5 32.8 12.5 45.3 0s12.5-32.8 0-45.3c-2.7-2.7-29.2-29.2-79.4-79.4l-27.9 27.9c-5.9 5.9-12.2 11.2-18.9 15.9z"/><path fill="currentColor" d="M361.4 9.4c12.5-12.5 32.8-12.5 45.3 0l160 160c12.5 12.5 12.5 32.8 0 45.3s-32.8 12.5-45.3 0l-1.4-1.4-158.6 158.6c-18 18-42.4 28.1-67.9 28.1l-59 0c-8.5 0-16.6 3.4-22.6 9.4-61.7 61.7-92.8 92.8-93.3 93.3-12.5 12.5-32.8 12.5-45.3 0s-12.5-32.8 0-45.3l16-16 0 0 77.3-77.3c6-6 9.4-14.1 9.4-22.6l0-59c0-25.5 10.1-49.9 28.1-67.9L362.7 56 361.4 54.6c-12.5-12.5-12.5-32.8 0-45.3zM408 101.3L325.3 184 392 250.7 474.7 168 408 101.3zm-128 128l-30.6 30.6c-6 6-9.4 14.1-9.4 22.6l0 53.5 53.5 0c8.5 0 16.6-3.4 22.6-9.4L346.7 296 280 229.3z"/></svg>