<svg xmlns="http://www.w3.org/2000/svg" viewBox="0 0 448 512"><!--! Font Awesome Pro 7.1.0 by @fontawesome - https://fontawesome.com License - https://fontawesome.com/license (Commercial License) Copyright 2025 Fonticons, Inc. --><path opacity=".4" fill="currentColor" d="M0 224c0 71.4 33.4 135 85.4 176l277.2 0C414.6 359 448 295.4 448 224 448 100.3 347.7 0 224 0S0 100.3 0 224zM116.3 120.5l26.4-9.8 9.8-26.4c2.6-7 12.4-7 15 0l9.8 26.4 26.4 9.8c7 2.6 7 12.4 0 15l-26.4 9.8-9.8 26.4c-2.6 7-12.4 7-15 0l-9.8-26.4-26.4-9.8c-7-2.6-7-12.4 0-15zm112 80l49.8-18.4 18.4-49.8c2.6-7 12.4-7 15 0l18.4 49.8 49.8 18.4c7 2.6 7 12.4 0 15l-49.8 18.4-18.4 49.8c-2.6 7-12.4 7-15 0l-18.4-49.8-49.8-18.4c-7-2.6-7-12.4 0-15z"/><path fill="currentColor" d="M360 400l-272 0-66.1 73.4c-3.8 4.2-5.9 9.8-5.9 15.5 0 12.8 10.4 23.1 23.1 23.1l369.7 0c12.8 0 23.1-10.4 23.1-23.1 0-5.7-2.1-11.2-5.9-15.5L360 400z"/></svg>