<svg xmlns="http://www.w3.org/2000/svg" viewBox="0 0 512 512"><!--! Font Awesome Pro 7.1.0 by @fontawesome - https://fontawesome.com License - https://fontawesome.com/license (Commercial License) Copyright 2025 Fonticons, Inc. --><path opacity=".4" fill="currentColor" d="M0 416l0 64c0 17.7 14.3 32 32 32l64 0c17.7 0 32-14.3 32-32l0-64c0-17.7-14.3-32-32-32l-64 0c-17.7 0-32 14.3-32 32zM92.1 233.4c-12.5 12.5-12.5 32.8 0 45.3l45.3 45.3c12.5 12.5 32.8 12.5 45.3 0l45.3-45.3c12.5-12.5 12.5-32.8 0-45.3l-45.3-45.3c-12.5-12.5-32.8-12.5-45.3 0L92.1 233.4zM384 416l0 64c0 17.7 14.3 32 32 32l64 0c17.7 0 32-14.3 32-32l0-64c0-17.7-14.3-32-32-32l-64 0c-17.7 0-32 14.3-32 32z"/><path fill="currentColor" d="M192 32c0-17.7 14.3-32 32-32l64 0c17.7 0 32 14.3 32 32l0 64c0 17.7-14.3 32-32 32l-64 0c-17.7 0-32-14.3-32-32l0-64zm0 384c0-17.7 14.3-32 32-32l64 0c17.7 0 32 14.3 32 32l0 64c0 17.7-14.3 32-32 32l-64 0c-17.7 0-32-14.3-32-32l0-64zM320 192l64 0c17.7 0 32 14.3 32 32l0 64c0 17.7-14.3 32-32 32l-64 0c-17.7 0-32-14.3-32-32l0-64c0-17.7 14.3-32 32-32z"/></svg>