<svg xmlns="http://www.w3.org/2000/svg" viewBox="0 0 512 512"><!--! Font Awesome Pro 7.1.0 by @fontawesome - https://fontawesome.com License - https://fontawesome.com/license (Commercial License) Copyright 2025 Fonticons, Inc. --><path opacity=".4" fill="currentColor" d="M0 320c0-41.8 26.7-77.4 64-90.5 5-1.7 10.2-3.1 15.5-4.1 5.3-.9 10.8-1.4 16.5-1.4l320 0c5.6 0 11.1 .5 16.5 1.4 5.3 1 10.5 2.4 15.5 4.2 37.3 13.1 64 48.6 64 90.4l0 8-512 0 0-8zm0 56l512 0 0 8c0 53-43 96-96 96L96 480c-53 0-96-43-96-96l0-8z"/><path fill="currentColor" d="M512 376l-512 0 0-48 512 0 0 48zM352 32c17.7 0 32 14.3 32 32s-14.3 32-32 32L224 96c-17.7 0-32 14.3-32 32l0 32 192 0c35.3 0 64 28.7 64 64l0 5.6c-10-3.5-20.8-5.6-32-5.6L96 224c-11.2 0-22 2-32 5.6l0-5.6c0-35.3 28.7-64 64-64l0-32c0-53 43-96 96-96l128 0z"/></svg>