<svg xmlns="http://www.w3.org/2000/svg" viewBox="0 0 640 512"><!--! Font Awesome Pro 7.1.0 by @fontawesome - https://fontawesome.com License - https://fontawesome.com/license (Commercial License) Copyright 2025 Fonticons, Inc. --><path opacity=".4" fill="currentColor" d="M0 256c0 123.7 100.3 224 224 224 34.4 0 66.9-7.7 96-21.6 29.1 13.8 61.6 21.6 96 21.6 123.7 0 224-100.3 224-224S539.7 32 416 32C381.6 32 349.1 39.7 320 53.6 290.9 39.7 258.4 32 224 32 100.3 32 0 132.3 0 256zm64 0c0-88.4 71.6-160 160-160 11 0 21.7 1.1 32 3.2 18.4-18.7 40-34.3 64-45.6 24 11.4 45.6 26.9 64 45.6 10.4-2.1 21.1-3.2 32-3.2 88.4 0 160 71.6 160 160S504.4 416 416 416c-11 0-21.7-1.1-32-3.2-18.4 18.7-40 34.3-64 45.7-24-11.4-45.6-26.9-64-45.7-10.3 2.1-21.1 3.2-32 3.2-88.4 0-160-71.6-160-160z"/><path fill="currentColor" d="M320 458.4c75.7-36 128-113.1 128-202.4S395.7 89.5 320 53.6C244.3 89.5 192 166.6 192 256s52.3 166.5 128 202.4z"/></svg>