<svg xmlns="http://www.w3.org/2000/svg" viewBox="0 0 576 512"><!--! Font Awesome Pro 7.1.0 by @fontawesome - https://fontawesome.com License - https://fontawesome.com/license (Commercial License) Copyright 2025 Fonticons, Inc. --><path opacity=".4" fill="currentColor" d="M64 272l0 48 200 0 0 96 48 0 0-96 200 0 0-48-48 0 0-176-48 0 0 64-48 0 0-64-48 0 0 176-64 0 0-176-48 0 0 64-48 0 0-64-48 0 0 176-48 0zm96-64l48 0 0 64-48 0 0-64zm208 0l48 0 0 64-48 0 0-64z"/><path fill="currentColor" d="M512 96l0 320-448 0 0-320 448 0zM64 32C28.7 32 0 60.7 0 96L0 416c0 35.3 28.7 64 64 64l448 0c35.3 0 64-28.7 64-64l0-320c0-35.3-28.7-64-64-64L64 32z"/></svg>