<svg xmlns="http://www.w3.org/2000/svg" viewBox="0 0 512 512"><!--! Font Awesome Pro 7.1.0 by @fontawesome - https://fontawesome.com License - https://fontawesome.com/license (Commercial License) Copyright 2025 Fonticons, Inc. --><path opacity=".4" fill="currentColor" d="M0 256c0 15.4 6.1 30.1 17 41L215 495c10.9 10.9 25.6 17 41 17s30.1-6.1 41-17L495 297c10.9-10.9 17-25.6 17-41s-6.1-30.1-17-41L297 17C286.1 6.1 271.4 0 256 0s-30.1 6.1-41 17L17 215C6.1 225.9 0 240.6 0 256zm288 96a32 32 0 1 1 -64 0 32 32 0 1 1 64 0zM224.6 161.7C223.3 143.5 237.7 128 256 128s32.7 15.5 31.4 33.7l-7.4 104C279 278.3 268.6 288 256 288s-23-9.7-23.9-22.3l-7.4-104z"/><path fill="currentColor" d="M256 384a32 32 0 1 1 0-64 32 32 0 1 1 0 64zm0-256c18.3 0 32.7 15.5 31.4 33.7l-7.4 104C279 278.3 268.6 288 256 288s-23-9.7-23.9-22.3l-7.4-104C223.3 143.5 237.7 128 256 128z"/></svg>