<svg xmlns="http://www.w3.org/2000/svg" viewBox="0 0 512 512"><!--! Font Awesome Pro 7.1.0 by @fontawesome - https://fontawesome.com License - https://fontawesome.com/license (Commercial License) Copyright 2025 Fonticons, Inc. --><path opacity=".4" fill="currentColor" d="M0 96L0 352c0 35.3 28.7 64 64 64l144 0-16 48-72 0c-13.3 0-24 10.7-24 24s10.7 24 24 24l272 0c13.3 0 24-10.7 24-24s-10.7-24-24-24l-72 0-16-48 144 0c35.3 0 64-28.7 64-64l0-256c0-35.3-28.7-64-64-64L64 32C28.7 32 0 60.7 0 96zm64 0l384 0 0 256-384 0 0-256z"/><path fill="currentColor" d="M448 96l-384 0 0 256 384 0 0-256zM312 144l80 0c13.3 0 24 10.7 24 24l0 80c0 13.3-10.7 24-24 24s-24-10.7-24-24l0-22.1-71 71c-4.5 4.5-10.6 7-17 7s-12.5-2.5-17-7l-63-63-63 63c-9.4 9.4-24.6 9.4-33.9 0s-9.4-24.6 0-33.9l80-80c9.4-9.4 24.6-9.4 33.9 0l63 63 54.1-54.1-22.1 0c-13.3 0-24-10.7-24-24s10.7-24 24-24z"/></svg>