<svg xmlns="http://www.w3.org/2000/svg" viewBox="0 0 448 512"><!--! Font Awesome Pro 7.0.1 by @fontawesome - https://fontawesome.com License - https://fontawesome.com/license (Commercial License) Copyright 2025 Fonticons, Inc. --><path style="fill:var(--fa-secondary-color,currentColor);opacity:var(--fa-secondary-opacity,.4)" d="M128 144c0-26.5 21.5-48 48-48l96 0c26.5 0 48 21.5 48 48l0 224c0 26.5-21.5 48-48 48l-96 0c-26.5 0-48-21.5-48-48l0-224z"/><path style="fill:var(--fa-primary-color,currentColor);opacity:var(--fa-primary-opacity,1)" d="M32 0C14.3 0 0 14.3 0 32L0 480c0 17.7 14.3 32 32 32s32-14.3 32-32L64 32C64 14.3 49.7 0 32 0zM416 0c-17.7 0-32 14.3-32 32l0 448c0 17.7 14.3 32 32 32s32-14.3 32-32l0-448c0-17.7-14.3-32-32-32z"/></svg>