<svg xmlns="http://www.w3.org/2000/svg" viewBox="0 0 448 512"><!--! Font Awesome Pro 7.1.0 by @fontawesome - https://fontawesome.com License - https://fontawesome.com/license (Commercial License) Copyright 2025 Fonticons, Inc. --><path opacity=".4" fill="currentColor" d="M32 64C32 28.7 60.7 0 96 0L224 0c35.3 0 64 28.7 64 64l0 384-256 0 0-384zM160 256a32 32 0 1 0 64 0 32 32 0 1 0 -64 0z"/><path fill="currentColor" d="M288 64l64 0 0 416c0 17.7 14.3 32 32 32l32 0c17.7 0 32-14.3 32-32s-14.3-32-32-32l0-384c0-35.3-28.7-64-64-64L224 0c35.3 0 64 28.7 64 64zM224 256a32 32 0 1 0 -64 0 32 32 0 1 0 64 0zM32 448c-17.7 0-32 14.3-32 32s14.3 32 32 32l256 0 0-64-256 0z"/></svg>