<svg xmlns="http://www.w3.org/2000/svg" viewBox="0 0 512 512"><!--! Font Awesome Pro 7.1.0 by @fontawesome - https://fontawesome.com License - https://fontawesome.com/license (Commercial License) Copyright 2025 Fonticons, Inc. --><path opacity=".4" fill="currentColor" d="M32 119.4c9.4 5.4 20.3 8.6 32 8.6s22.6-3.1 32-8.6l0 273.1c-9.4-5.4-20.3-8.6-32-8.6s-22.6 3.1-32 8.6l0-273.1zM119.4 32l273.1 0c-5.4 9.4-8.6 20.3-8.6 32s3.1 22.6 8.6 32L119.4 96c5.4-9.4 8.6-20.3 8.6-32s-3.1-22.6-8.6-32zm0 384l273.1 0c-5.4 9.4-8.6 20.3-8.6 32s3.1 22.6 8.6 32l-273.1 0c5.4-9.4 8.6-20.3 8.6-32s-3.1-22.6-8.6-32zM416 119.4c9.4 5.4 20.3 8.6 32 8.6s22.6-3.1 32-8.6l0 273.1c-9.4-5.4-20.3-8.6-32-8.6s-22.6 3.1-32 8.6l0-273.1z"/><path fill="currentColor" d="M0 64A64 64 0 1 1 128 64 64 64 0 1 1 0 64zM64 384a64 64 0 1 1 0 128 64 64 0 1 1 0-128zm384 0a64 64 0 1 1 0 128 64 64 0 1 1 0-128zM448 0a64 64 0 1 1 0 128 64 64 0 1 1 0-128z"/></svg>