<svg xmlns="http://www.w3.org/2000/svg" viewBox="0 0 640 512"><!--! Font Awesome Pro 7.1.0 by @fontawesome - https://fontawesome.com License - https://fontawesome.com/license (Commercial License) Copyright 2025 Fonticons, Inc. --><path opacity=".4" fill="currentColor" d="M0 104c0 13.3 10.7 24 24 24l240 0c13.3 0 24-10.7 24-24s-10.7-24-24-24L24 80C10.7 80 0 90.7 0 104zm352 0c0 13.3 10.7 24 24 24l240 0c13.3 0 24-10.7 24-24s-10.7-24-24-24L376 80c-13.3 0-24 10.7-24 24z"/><path fill="currentColor" d="M120 240l0-112 48 0 0 64 304 0 0-64 48 0 0 112c0 8.3-4.3 16-11.3 20.4l-35.7 22.3 20.8 33.2C505.7 335 512 357 512 379.5l0 44.5c0 13.3-10.7 24-24 24s-24-10.7-24-24l0-44.5c0-13.5-3.8-26.7-10.9-38.2l-20.8-33.2-51.6 32.2c-3.8 2.4-8.2 3.6-12.7 3.6l-96 0c-4.5 0-8.9-1.3-12.7-3.6l-51.6-32.2-20.8 33.2C179.8 352.8 176 366 176 379.5l0 44.5c0 13.3-10.7 24-24 24s-24-10.7-24-24l0-44.5c0-22.5 6.3-44.5 18.2-63.6l20.8-33.2-35.7-22.3c-7-4.4-11.3-12.1-11.3-20.4z"/></svg>