<svg xmlns="http://www.w3.org/2000/svg" viewBox="0 0 512 512"><!--! Font Awesome Pro 7.1.0 by @fontawesome - https://fontawesome.com License - https://fontawesome.com/license (Commercial License) Copyright 2025 Fonticons, Inc. --><path opacity=".4" fill="currentColor" d="M0 380c0 33.1 26.9 60 60 60 6.3 0 12 5.7 12 12 0 33.1 26.9 60 60 60s60-26.9 60-60c0-5-.6-9.8-1.8-14.5-4.2-16.9-5.2-37.1 7.2-49.4l36.4-36.4c-39.2-3-70.5-34.3-73.5-73.5l-36.4 36.4c-12.3 12.3-32.5 11.4-49.4 7.2-4.6-1.1-9.5-1.8-14.5-1.8-33.1 0-60 26.9-60 60z"/><path fill="currentColor" d="M160 272l0-96c0-97.2 78.8-176 176-176 86.5 0 158.5 62.5 173.2 144.8 2.1 11.8-10.3 20.1-22 17.6-7.5-1.6-15.3-2.4-23.2-2.4-61.9 0-112 50.1-112 112 0 19.2 4.8 37.2 13.3 53 5.7 10.5 1.1 24.8-10.8 26-6.1 .6-12.3 1-18.5 1l-96 0c-44.2 0-80-35.8-80-80z"/></svg>