<svg xmlns="http://www.w3.org/2000/svg" viewBox="0 0 576 512"><!--! Font Awesome Pro 7.1.0 by @fontawesome - https://fontawesome.com License - https://fontawesome.com/license (Commercial License) Copyright 2025 Fonticons, Inc. --><path opacity=".4" fill="currentColor" d="M25.7 240c.4 2.1 13.3 73.4 38.9 213.7 3 16.3 17.9 27.6 34.4 26.1S128 464.6 128 448l0-16 320 0 0 16c0 16.6 12.6 30.4 29.1 31.9s31.4-9.9 34.4-26.1C537 313.3 550 242.1 550.3 240L25.7 240z"/><path fill="currentColor" d="M132.3 64l-83 0C39 64 29.8 70.6 26.5 80.4L1.2 156.3c-.8 2.4-1.2 5-1.2 7.6L0 168c0 13.3 10.7 24 24 24l82.7 0 25.6-128zm23.4 128l108.3 0 0-128-82.7 0-25.6 128zM312 64l0 128 108.3 0-25.6-128-82.7 0zm131.7 0l25.6 128 82.7 0c13.3 0 24-10.7 24-24l0-4.1c0-2.6-.4-5.1-1.2-7.6L549.5 80.4C546.2 70.6 537 64 526.7 64l-83 0z"/></svg>