<svg xmlns="http://www.w3.org/2000/svg" viewBox="0 0 512 512"><!--! Font Awesome Pro 7.1.0 by @fontawesome - https://fontawesome.com License - https://fontawesome.com/license (Commercial License) Copyright 2025 Fonticons, Inc. --><path opacity=".4" fill="currentColor" d="M152 216l0 272c0 13.3 10.7 24 24 24s24-10.7 24-24l0-272c0-13.3-10.7-24-24-24s-24 10.7-24 24zm80-32l0 304c0 13.3 10.7 24 24 24s24-10.7 24-24l0-304c0-13.3-10.7-24-24-24s-24 10.7-24 24zm80 32l0 272c0 13.3 10.7 24 24 24s24-10.7 24-24l0-272c0-13.3-10.7-24-24-24s-24 10.7-24 24z"/><path fill="currentColor" d="M340.5 108.6l35.1-52.6c7.1-10.7 21.5-14 31.8-6.4 20.6 15.1 38.8 33.3 54.1 53.8 7.8 10.5 4.3 25.3-6.9 32.2l-54.1 33.8c-11.4 7.1-26.3 3.3-35.1-6.9-5.5-6.4-11.5-12.3-18-17.7-10.8-8.9-14.8-24.6-7-36.2zM315.6 7c15.1 3.6 20.8 21.2 12.2 34.1l-40 60c-5.2 7.8-14.5 11.7-23.9 11.2-5.2-.3-10.6-.3-15.8 0-9.4 .5-18.7-3.4-23.9-11.2l-40-60c-8.6-12.9-2.9-30.5 12.2-34.1 19.1-4.6 39.1-7 59.6-7s40.4 2.4 59.6 7zM57.4 135.5c-11.2-7-14.7-21.7-6.9-32.2 15.3-20.5 33.5-38.6 54.1-53.8 10.4-7.6 24.7-4.3 31.8 6.4l35.1 52.6c7.8 11.6 3.8 27.3-7 36.2-6.5 5.4-12.5 11.3-18 17.7-8.7 10.2-23.6 14-35.1 6.9L57.4 135.5zM112 256l0 24c0 13.3-10.7 24-24 24l-64 0c-13.3 0-24-10.7-24-24l0-24c0-21.2 2.6-41.8 7.5-61.6 3.6-14.7 20.7-20.5 33.6-12.5l59.7 37.3c8.4 5.3 12.6 15.2 11.8 25.1-.3 3.8-.5 7.7-.5 11.6zm299.3-36.8L471 182c12.9-8 29.9-2.3 33.6 12.5 4.9 19.7 7.5 40.3 7.5 61.6l0 24c0 13.3-10.7 24-24 24l-64 0c-13.3 0-24-10.7-24-24l0-24c0-3.9-.2-7.8-.5-11.6-.8-9.9 3.3-19.9 11.8-25.1zM112 376l0 112c0 13.3-10.7 24-24 24l-64 0c-13.3 0-24-10.7-24-24L0 376c0-13.3 10.7-24 24-24l64 0c13.3 0 24 10.7 24 24zm400 0l0 112c0 13.3-10.7 24-24 24l-64 0c-13.3 0-24-10.7-24-24l0-112c0-13.3 10.7-24 24-24l64 0c13.3 0 24 10.7 24 24z"/></svg>