<svg xmlns="http://www.w3.org/2000/svg" viewBox="0 0 640 512"><!--! Font Awesome Pro 7.1.0 by @fontawesome - https://fontawesome.com License - https://fontawesome.com/license (Commercial License) Copyright 2025 Fonticons, Inc. --><path opacity=".4" fill="currentColor" d="M13.9 145.8c-3.1 7.4-2.2 15.8 2.2 22.5L74.3 256 16.1 343.8c-4.4 6.7-5.2 15.1-2.2 22.5s9.6 12.8 17.4 14.3l103.2 20.9 20.9 103.2c1.6 7.8 7 14.4 14.3 17.4s15.8 2.2 22.5-2.2l87.8-58.2 87.8 58.2c6.7 4.4 15.1 5.2 22.5 2.2s12.8-9.6 14.3-17.4l10.3-51.1c-41.2-13.6-76.8-39.7-102.1-73.9-10.5 2.8-21.5 4.2-32.8 4.2-70.7 0-128-57.3-128-128s57.3-128 128-128c11.3 0 22.3 1.5 32.8 4.2 25.3-34.1 60.8-60.3 102.1-73.8L404.6 7.3C403-.5 397.6-7 390.2-10.1s-15.8-2.2-22.5 2.2L280 50.3 192.2-7.9c-6.7-4.4-15.1-5.2-22.5-2.2S157-.5 155.4 7.3L134.6 110.6 31.3 131.4c-7.8 1.6-14.4 7-17.4 14.3zM200 256c0 44.2 35.8 80 80 80 2.6 0 5.2-.1 7.8-.4-10.2-24.5-15.8-51.4-15.8-79.6s5.6-55.1 15.8-79.6c-2.6-.2-5.2-.4-7.8-.4-44.2 0-80 35.8-80 80z"/><path fill="currentColor" d="M320 256a160 160 0 1 1 320 0 160 160 0 1 1 -320 0z"/></svg>