<svg xmlns="http://www.w3.org/2000/svg" viewBox="0 0 640 512"><!--! Font Awesome Pro 7.1.0 by @fontawesome - https://fontawesome.com License - https://fontawesome.com/license (Commercial License) Copyright 2025 Fonticons, Inc. --><path opacity=".4" fill="currentColor" d="M64 112c0 15.1 7.1 29.3 19.2 38.4l208 156c6.1 4.6 13 7.5 20.1 8.8 22.9-80.4 96.9-139.2 184.7-139.2 28.6 0 55.6 6.2 80 17.4l0-81.4c0-26.5-21.5-48-48-48L112 64c-26.5 0-48 21.5-48 48zm0 84l0 188c0 35.3 28.7 64 64 64l193.4 0c-11.2-24.4-17.4-51.4-17.4-80 0-1.8 0-3.6 .1-5.3-14.8-2.5-29.1-8.4-41.7-17.9L64 196z"/><path fill="currentColor" d="M496 512a144 144 0 1 0 0-288 144 144 0 1 0 0 288zm0-32c-30.2 0-57.5-11.9-77.7-31.3 6.2-19 24-32.7 45.1-32.7l65.2 0c21 0 38.9 13.7 45.1 32.7-20.1 19.4-47.5 31.3-77.7 31.3zm0-192a48 48 0 1 1 0 96 48 48 0 1 1 0-96z"/></svg>