<svg xmlns="http://www.w3.org/2000/svg" viewBox="0 0 512 512"><!--! Font Awesome Pro 7.1.0 by @fontawesome - https://fontawesome.com License - https://fontawesome.com/license (Commercial License) Copyright 2025 Fonticons, Inc. --><path opacity=".4" fill="currentColor" d="M0 224c0-17.7 14.3-32 32-32l32 0 0-32c0-17.7 14.3-32 32-32l32 0 0-32c0-17.7 14.3-32 32-32l192 0c17.7 0 32 14.3 32 32l0 32 32 0c17.7 0 32 14.3 32 32l0 32 32 0c17.7 0 32 14.3 32 32l0 192c0 17.7-14.3 32-32 32l-32 0 0-104c0-13.3-10.7-24-24-24s-24 10.7-24 24l0 104-64 0 0-104c0-13.3-10.7-24-24-24s-24 10.7-24 24l0 104-64 0 0-104c0-13.3-10.7-24-24-24s-24 10.7-24 24l0 104-64 0 0-104c0-13.3-10.7-24-24-24s-24 10.7-24 24l0 104-32 0c-17.7 0-32-14.3-32-32L0 224z"/><path fill="currentColor" d="M112 448l-48 0 0-104c0-13.3 10.7-24 24-24s24 10.7 24 24l0 104zm112 0l-48 0 0-104c0-13.3 10.7-24 24-24s24 10.7 24 24l0 104zm112 0l-48 0 0-104c0-13.3 10.7-24 24-24s24 10.7 24 24l0 104zm112 0l-48 0 0-104c0-13.3 10.7-24 24-24s24 10.7 24 24l0 104z"/></svg>