<svg xmlns="http://www.w3.org/2000/svg" viewBox="0 0 640 512"><!--! Font Awesome Pro 7.1.0 by @fontawesome - https://fontawesome.com License - https://fontawesome.com/license (Commercial License) Copyright 2025 Fonticons, Inc. --><path opacity=".4" fill="currentColor" d="M0 384c0-28.4 12.4-54 32-71.6 17-15.2 39.4-24.4 64-24.4l224 0c26.7 0 50.8 10.9 68.2 28.5 17.2 17.3 27.8 41.2 27.8 67.5 0 53-43 96-96 96L96 480c-53 0-96-43-96-96zm64 0c0 17.7 14.3 32 32 32l224 0c17.7 0 32-14.3 32-32s-14.3-32-32-32L96 352c-17.7 0-32 14.3-32 32z"/><path fill="currentColor" d="M80 192l48 0 0-112c0-26.5 21.5-48 48-48l84.8 0c16.9 0 32.5 8.8 41.2 23.3L384 192 562.9 42.9c8.4-7 19.1-10.9 30.1-10.9 26 0 47 21 47 47l0 321c0 44.2-35.8 80-80 80l-78.1 0c-18.7 0-33.9-15.2-33.9-33.9 0-9 3.6-17.6 9.9-24L576 304 576 160 388.2 316.5C370.8 298.9 346.7 288 320 288L96 288c-24.6 0-47 9.2-64 24.4L32 240c0-26.5 21.5-48 48-48zM251.8 96l-59.8 0 0 96 117.4 0-57.6-96z"/></svg>