<svg xmlns="http://www.w3.org/2000/svg" viewBox="0 0 640 512"><!--! Font Awesome Pro 7.1.0 by @fontawesome - https://fontawesome.com License - https://fontawesome.com/license (Commercial License) Copyright 2025 Fonticons, Inc. --><path opacity=".4" fill="currentColor" d="M64.5 208l511 0C567.2 74.1 456-32 320-32S72.8 74.1 64.5 208zM173 89.7c3.5-10.5 14.8-16.1 25.3-12.6l96 32c10.5 3.5 16.1 14.8 12.6 25.3s-14.8 16.1-25.3 12.6c-3.2-1.1-6.5-2.2-9.7-3 0 17.7-14.3 32-32 32s-32-14.3-32-32c0-7.3 2.4-14 6.6-19.4L185.7 115c-10.5-3.5-16.1-14.8-12.6-25.3zm160 44.6c-3.5-10.5 2.2-21.8 12.6-25.3l96-32c10.5-3.5 21.8 2.2 25.3 12.6s-2.2 21.8-12.6 25.3l-28.9 9.6c4.1 5.4 6.6 12.1 6.6 19.4 0 17.7-14.3 32-32 32s-32-14.3-32-32.3l-9.7 3.2c-10.5 3.5-21.8-2.2-25.3-12.6z"/><path fill="currentColor" d="M0 320c0-35.3 28.7-64 64-64l512 0c35.3 0 64 28.7 64 64l0 128c0 35.3-28.7 64-64 64L64 512c-35.3 0-64-28.7-64-64L0 320zm416 32c0-8.8-7.2-16-16-16l-16 0 0-16c0-8.8-7.2-16-16-16s-16 7.2-16 16l0 16-32 0 0-16c0-8.8-7.2-16-16-16s-16 7.2-16 16l0 16-16 0c-8.8 0-16 7.2-16 16s7.2 16 16 16l16 0 0 32-16 0c-8.8 0-16 7.2-16 16s7.2 16 16 16l16 0 0 16c0 8.8 7.2 16 16 16s16-7.2 16-16l0-16 32 0 0 16c0 8.8 7.2 16 16 16s16-7.2 16-16l0-16 16 0c8.8 0 16-7.2 16-16s-7.2-16-16-16l-16 0 0-32 16 0c8.8 0 16-7.2 16-16zm-64 16l0 32-32 0 0-32 32 0zm220.1-29.6c5.8-6.7 5-16.8-1.7-22.6s-16.8-5-22.6 1.7l-96 112c-5.8 6.7-5 16.8 1.7 22.6s16.8 5 22.6-1.7l96-112zM472 360a24 24 0 1 0 0-48 24 24 0 1 0 0 48zm104 72a24 24 0 1 0 -48 0 24 24 0 1 0 48 0zM224 320c0-8.8-7.2-16-16-16s-16 7.2-16 16l0 64c0 8.8 7.2 16 16 16s16-7.2 16-16l0-64zM208 464a24 24 0 1 0 0-48 24 24 0 1 0 0 48zM96 320.5c-18.2 3.1-32 18.9-32 37.9 0 17.7 12 33 29.1 37.3l30 7.5c2.9 .7 4.9 3.3 4.9 6.3 0 3.6-2.9 6.5-6.5 6.5L80 416c-8.8 0-16 7.2-16 16s7.2 16 16 16l16 0c0 8.8 7.2 16 16 16s16-7.2 16-16l0-.5c18.2-3.1 32-18.9 32-37.9 0-17.7-12-33-29.1-37.3l-30-7.5c-2.9-.7-4.9-3.3-4.9-6.3 0-3.6 2.9-6.5 6.5-6.5l33.5 0c8.8 0 16-7.2 16-16s-7.2-16-16-16l-8 0c0-8.8-7.2-16-16-16s-16 7.2-16 16l0 .5z"/></svg>