<svg xmlns="http://www.w3.org/2000/svg" viewBox="0 0 512 512"><!--! Font Awesome Pro 7.1.0 by @fontawesome - https://fontawesome.com License - https://fontawesome.com/license (Commercial License) Copyright 2025 Fonticons, Inc. --><path opacity=".4" fill="currentColor" d="M0 256a256 256 0 1 0 512 0 256 256 0 1 0 -512 0zm72-16c0-17.3 5-33.4 13.6-46.9-5-3.1-8.6-8.3-9.4-14.6-1.4-11 6.4-21 17.4-22.3l11.5-1.4c23.9-3 43.6-19.9 50.2-43.1l1.5-5.2c3-10.6 14.1-16.8 24.7-13.7s16.8 14.1 13.7 24.7l-1.5 5.2c-3.3 11.5-8.5 22-15.3 31.3 39.7 8.5 69.5 43.8 69.5 86.1 0 48.6-39.4 88-88 88s-88-39.4-88-88zM200 408c0-13.3 10.7-24 24-24l64 0c13.3 0 24 10.7 24 24s-10.7 24-24 24l-64 0c-13.3 0-24-10.7-24-24zm64-168c0-42.3 29.8-77.6 69.5-86.1-6.8-9.3-12-19.8-15.3-31.3l-1.5-5.2c-3-10.6 3.1-21.7 13.7-24.7s21.7 3.1 24.7 13.7l1.5 5.2c6.6 23.1 26.4 40.1 50.2 43.1l11.5 1.4c11 1.4 18.7 11.4 17.4 22.3-.8 6.3-4.4 11.5-9.4 14.6 8.6 13.6 13.6 29.7 13.6 46.9 0 48.6-39.4 88-88 88s-88-39.4-88-88z"/><path fill="currentColor" d="M195.2 117.5c3-10.6-3.1-21.7-13.7-24.7s-21.7 3.1-24.7 13.7l-1.5 5.2c-6.6 23.1-26.4 40.1-50.2 43.1l-11.5 1.4c-11 1.4-18.7 11.4-17.4 22.3s11.4 18.7 22.3 17.4l11.5-1.4c39.8-5 72.7-33.2 83.7-71.8l1.5-5.2zm121.5 0l1.5 5.2c11 38.5 44 66.8 83.8 71.8l11.5 1.4c11 1.4 21-6.4 22.3-17.4s-6.4-21-17.4-22.3L407 154.7c-23.9-3-43.6-19.9-50.2-43.1l-1.5-5.2c-3-10.6-14.1-16.8-24.7-13.7s-16.8 14.1-13.7 24.7zM128 232c-8.3 0-15.9-3.2-21.6-8.4-1.6 5.2-2.4 10.7-2.4 16.4 0 30.9 25.1 56 56 56s56-25.1 56-56-25.1-56-56-56c-1.4 0-2.8 .1-4.2 .2 2.7 4.7 4.2 10.1 4.2 15.8 0 17.7-14.3 32-32 32zm224-32c0 17.7-14.3 32-32 32-8.3 0-15.9-3.2-21.6-8.4-1.6 5.2-2.4 10.7-2.4 16.4 0 30.9 25.1 56 56 56s56-25.1 56-56-25.1-56-56-56c-1.4 0-2.8 .1-4.2 .2 2.7 4.7 4.2 10.1 4.2 15.8z"/></svg>