<svg xmlns="http://www.w3.org/2000/svg" viewBox="0 0 512 512"><!--! Font Awesome Pro 7.1.0 by @fontawesome - https://fontawesome.com License - https://fontawesome.com/license (Commercial License) Copyright 2025 Fonticons, Inc. --><path opacity=".4" fill="currentColor" d="M0 256a256 256 0 1 0 512 0 256 256 0 1 0 -512 0zm108-48c0-37.6 30.4-68 68-68s68 30.4 68 68l0 8c0 11-9 20-20 20s-20-9-20-20l0-8c0-15.5-12.5-28-28-28s-28 12.5-28 28l0 8c0 11-9 20-20 20s-20-9-20-20l0-8zm116 96c0-8.8 7.2-16 16-16l32 0c26.5 0 48 21.5 48 48 0 12.3-4.6 23.5-12.2 32 7.6 8.5 12.2 19.7 12.2 32 0 26.5-21.5 48-48 48l-32 0c-8.8 0-16-7.2-16-16s7.2-16 16-16l16 0c8.8 0 16-7.2 16-16s-7.2-16-16-16l-16 0c-8.8 0-16-7.2-16-16s7.2-16 16-16l16 0c8.8 0 16-7.2 16-16s-7.2-16-16-16l-16 0c-8.8 0-16-7.2-16-16zm44-96c0-37.6 30.4-68 68-68s68 30.4 68 68l0 8c0 11-9 20-20 20s-20-9-20-20l0-8c0-15.5-12.5-28-28-28s-28 12.5-28 28l0 8c0 11-9 20-20 20s-20-9-20-20l0-8z"/><path fill="currentColor" d="M148 208c0-15.5 12.5-28 28-28s28 12.5 28 28l0 8c0 11 9 20 20 20s20-9 20-20l0-8c0-37.6-30.4-68-68-68s-68 30.4-68 68l0 8c0 11 9 20 20 20s20-9 20-20l0-8zm160 0c0-15.5 12.5-28 28-28s28 12.5 28 28l0 8c0 11 9 20 20 20s20-9 20-20l0-8c0-37.6-30.4-68-68-68s-68 30.4-68 68l0 8c0 11 9 20 20 20s20-9 20-20l0-8z"/></svg>