<svg xmlns="http://www.w3.org/2000/svg" viewBox="0 0 640 512"><!--! Font Awesome Pro 7.1.0 by @fontawesome - https://fontawesome.com License - https://fontawesome.com/license (Commercial License) Copyright 2025 Fonticons, Inc. --><path opacity=".4" fill="currentColor" d="M68.9 205.7l16.3-2.3c37-5.3 68.6 26.4 63.4 63.4l-6.7 46.7c-4.1 29-21.6 53.2-45.7 66.8 43.7 78.5 127.6 131.7 223.8 131.7s180.1-53.1 223.8-131.7c-24.1-13.5-41.6-37.8-45.8-66.8l-6.7-46.7c-5.3-37 26.4-68.6 63.4-63.4l16.3 2.3C547.7 88.4 444.2 0 320 0S92.3 88.4 68.9 205.7zM169.7 326.9c-4.3-11.8 7.7-21.8 19.6-18.1 39.2 12.2 83.7 19.1 130.7 19.1s91.5-6.9 130.7-19.1c11.9-3.7 23.9 6.3 19.6 18.1-22.4 61.3-81.3 105.1-150.3 105.1S192.1 388.2 169.7 326.9zM172 208c0-37.6 30.4-68 68-68s68 30.4 68 68l0 8c0 11-9 20-20 20s-20-9-20-20l0-8c0-15.5-12.5-28-28-28s-28 12.5-28 28l0 8c0 11-9 20-20 20s-20-9-20-20l0-8zm160 0c0-37.6 30.4-68 68-68s68 30.4 68 68l0 8c0 11-9 20-20 20s-20-9-20-20l0-8c0-15.5-12.5-28-28-28s-28 12.5-28 28l0 8c0 11-9 20-20 20s-20-9-20-20l0-8z"/><path fill="currentColor" d="M240 180c-15.5 0-28 12.5-28 28l0 8c0 11-9 20-20 20s-20-9-20-20l0-8c0-37.6 30.4-68 68-68s68 30.4 68 68l0 8c0 11-9 20-20 20s-20-9-20-20l0-8c0-15.5-12.5-28-28-28zm355.9 69.7c25.3 3.6 44.1 25.3 44.1 50.9 0 28.4-23 51.4-51.4 51.4-25.6 0-47.3-18.8-50.9-44.1L531 261.1c-1.5-10.6 7.5-19.6 18.1-18.1l46.7 6.7zm-551.7 0L90.9 243c10.6-1.5 19.6 7.5 18.1 18.1l-6.7 46.7C98.7 333.2 77 352 51.4 352 23 352 0 329 0 300.6 0 275 18.8 253.3 44.1 249.7zM372 208l0 8c0 11-9 20-20 20s-20-9-20-20l0-8c0-37.6 30.4-68 68-68s68 30.4 68 68l0 8c0 11-9 20-20 20s-20-9-20-20l0-8c0-15.5-12.5-28-28-28s-28 12.5-28 28z"/></svg>