<svg xmlns="http://www.w3.org/2000/svg" viewBox="0 0 576 512"><!--! Font Awesome Pro 7.1.0 by @fontawesome - https://fontawesome.com License - https://fontawesome.com/license (Commercial License) Copyright 2025 Fonticons, Inc. --><path opacity=".4" fill="currentColor" d="M32 256c0 141.4 114.6 256 256 256S544 397.4 544 256c0-28.5-4.7-55.9-13.2-81.5-6.1 1-12.3 1.5-18.8 1.5-62.9 0-112-49.1-112-112 0-12.6 2.3-24.4 5.8-35.3-35.3-18.3-75.4-28.7-117.8-28.7-141.4 0-256 114.6-256 256zm105.7 70.9c-4.3-11.8 7.7-21.8 19.6-18.1 39.2 12.2 83.7 19.1 130.7 19.1s91.5-6.9 130.7-19.1c11.9-3.7 23.9 6.3 19.6 18.1-22.4 61.3-81.3 105.1-150.3 105.1S160.1 388.2 137.7 326.9zM140 208c0-37.6 30.4-68 68-68s68 30.4 68 68l0 8c0 11-9 20-20 20s-20-9-20-20l0-8c0-15.5-12.5-28-28-28s-28 12.5-28 28l0 8c0 11-9 20-20 20s-20-9-20-20l0-8zm160 0c0-37.6 30.4-68 68-68s68 30.4 68 68l0 8c0 11-9 20-20 20s-20-9-20-20l0-8c0-15.5-12.5-28-28-28s-28 12.5-28 28l0 8c0 11-9 20-20 20s-20-9-20-20l0-8z"/><path fill="currentColor" d="M546.2-.1c-8.8-10.7-18.5-20.9-29-30-3-2.6-7.4-2.6-10.4 0-10.5 9.1-20.1 19.3-29 30-14.7 17.8-29.8 40.1-29.8 64.1 0 36.4 27.6 64 64 64s64-27.6 64-64c0-24-15.2-46.3-29.8-64.1zM208 180c15.5 0 28 12.5 28 28l0 8c0 11 9 20 20 20s20-9 20-20l0-8c0-37.6-30.4-68-68-68s-68 30.4-68 68l0 8c0 11 9 20 20 20s20-9 20-20l0-8c0-15.5 12.5-28 28-28zm160 0c15.5 0 28 12.5 28 28l0 8c0 11 9 20 20 20s20-9 20-20l0-8c0-37.6-30.4-68-68-68s-68 30.4-68 68l0 8c0 11 9 20 20 20s20-9 20-20l0-8c0-15.5 12.5-28 28-28z"/></svg>