<svg xmlns="http://www.w3.org/2000/svg" viewBox="0 0 512 512"><!--! Font Awesome Pro 7.1.0 by @fontawesome - https://fontawesome.com License - https://fontawesome.com/license (Commercial License) Copyright 2025 Fonticons, Inc. --><path opacity=".4" fill="currentColor" d="M32.1 224l0 64c0 23.7 12.9 44.4 32 55.4l0 120.6c0 26.5 21.5 48 48 48l32 0c7.4 0 14.5-1.7 20.8-4.7-3.1-8.5-4.8-17.7-4.8-27.3l0-49.6c-19.8-20.2-32-47.8-32-78.4l0-16c0-41.9 20.1-79 51.2-102.4-12.1-16-19.2-36-19.2-57.6 0-5.4 .5-10.8 1.3-16-.4 0-.9 0-1.3 0l-64 0c-35.3 0-64 28.7-64 64zm32-160a64 64 0 1 0 128 0 64 64 0 1 0 -128 0zm256 0a64 64 0 1 0 128 0 64 64 0 1 0 -128 0zm12.8 169.6C364 257 384.1 294.1 384.1 336l0 16c0 30.5-12.2 58.2-32 78.4l0 49.6c0 9.6-1.7 18.8-4.8 27.3 6.3 3 13.3 4.7 20.8 4.7l32 0c26.5 0 48-21.5 48-48l0-80 21.6 0c21.3 0 36.6-20.3 30.8-40.8L465.7 221.5c-10.4-36.4-43.7-61.5-81.6-61.5-11.4 0-22.4 2.3-32.5 6.5 .3 3.1 .5 6.3 .5 9.5 0 21.6-7.1 41.6-19.2 57.6z"/><path fill="currentColor" d="M208.1 176a48 48 0 1 1 96 0 48 48 0 1 1 -96 0zm-32 160c0-44.2 35.8-80 80-80s80 35.8 80 80l0 16c0 23.7-12.9 44.4-32 55.4l0 72.6c0 17.7-14.3 32-32 32l-32 0c-17.7 0-32-14.3-32-32l0-72.6c-19.1-11.1-32-31.7-32-55.4l0-16z"/></svg>