<svg xmlns="http://www.w3.org/2000/svg" viewBox="0 0 512 512"><!--! Font Awesome Pro 7.1.0 by @fontawesome - https://fontawesome.com License - https://fontawesome.com/license (Commercial License) Copyright 2025 Fonticons, Inc. --><path opacity=".4" fill="currentColor" d="M144 160l224 0 0 320-224 0 0-320z"/><path fill="currentColor" d="M120-32C106.7-32 96-21.3 96-8s10.7 24 24 24l272 0c13.3 0 24-10.7 24-24s-10.7-24-24-24L120-32zM72 64C58.7 64 48 74.7 48 88s10.7 24 24 24l368 0c13.3 0 24-10.7 24-24s-10.7-24-24-24L72 64zm-8 96c-35.3 0-64 28.7-64 64L0 416c0 35.3 28.7 64 64 64l80 0 0-320-80 0zm304 0l0 320 80 0c35.3 0 64-28.7 64-64l0-192c0-35.3-28.7-64-64-64l-80 0zM48 216c0-8.8 7.2-16 16-16l16 0c8.8 0 16 7.2 16 16l0 16c0 8.8-7.2 16-16 16l-16 0c-8.8 0-16-7.2-16-16l0-16zm16 80l16 0c8.8 0 16 7.2 16 16l0 16c0 8.8-7.2 16-16 16l-16 0c-8.8 0-16-7.2-16-16l0-16c0-8.8 7.2-16 16-16zm0 96l16 0c8.8 0 16 7.2 16 16l0 16c0 8.8-7.2 16-16 16l-16 0c-8.8 0-16-7.2-16-16l0-16c0-8.8 7.2-16 16-16zm368 0l16 0c8.8 0 16 7.2 16 16l0 16c0 8.8-7.2 16-16 16l-16 0c-8.8 0-16-7.2-16-16l0-16c0-8.8 7.2-16 16-16zm-16-80c0-8.8 7.2-16 16-16l16 0c8.8 0 16 7.2 16 16l0 16c0 8.8-7.2 16-16 16l-16 0c-8.8 0-16-7.2-16-16l0-16zm16-112l16 0c8.8 0 16 7.2 16 16l0 16c0 8.8-7.2 16-16 16l-16 0c-8.8 0-16-7.2-16-16l0-16c0-8.8 7.2-16 16-16z"/></svg>