<svg xmlns="http://www.w3.org/2000/svg" viewBox="0 0 576 512"><!--! Font Awesome Pro 7.1.0 by @fontawesome - https://fontawesome.com License - https://fontawesome.com/license (Commercial License) Copyright 2025 Fonticons, Inc. --><path opacity=".4" fill="currentColor" d="M2.4 83.8C7.4 71.8 19.1 64 32 64l448 0c12.9 0 24.6 7.8 29.6 19.8s2.2 25.7-6.9 34.9L412.3 209c-96.8 9.9-172.3 91.6-172.3 191 0 40.3 12.4 77.7 33.6 108.6-3-1.5-5.8-3.5-8.3-6l-64-64c-6-6-9.4-14.1-9.4-22.6L192 301.3 9.4 118.6C.2 109.5-2.5 95.7 2.4 83.8z"/><path fill="currentColor" d="M288 400a144 144 0 1 1 288 0 144 144 0 1 1 -288 0zm203.3-59.3c-6.2-6.2-16.4-6.2-22.6 0l-36.7 36.7-36.7-36.7c-6.2-6.2-16.4-6.2-22.6 0s-6.2 16.4 0 22.6l36.7 36.7-36.7 36.7c-6.2 6.2-6.2 16.4 0 22.6s16.4 6.2 22.6 0l36.7-36.7 36.7 36.7c6.2 6.2 16.4 6.2 22.6 0s6.2-16.4 0-22.6l-36.7-36.7 36.7-36.7c6.2-6.2 6.2-16.4 0-22.6z"/></svg>