<svg xmlns="http://www.w3.org/2000/svg" viewBox="0 0 384 512"><!--! Font Awesome Pro 7.1.0 by @fontawesome - https://fontawesome.com License - https://fontawesome.com/license (Commercial License) Copyright 2025 Fonticons, Inc. --><path opacity=".4" fill="currentColor" d="M0 316.2L0 320C0 426 86 512 192 512l17.7 0c96.3 0 174.3-78 174.3-174.3 0-67.5-27.6-132-76.4-178.6L222.9 78.2C213.4 69.1 208 56.6 208 43.5l0-22.1c0-11.8-9.6-21.3-21.3-21.3-6.7 0-13 3.2-17.1 8.5l-16 21.3c-16.6 22.2-25.6 49.2-25.6 76.9 0 33.9 13.5 66.7 37.5 90.7l38.6 38.6c12.7 12.7 19.9 30 19.9 48l0 3.9c0 35.3-28.7 64-64 64s-64-28.7-64-64l0-89.4c0-12.5-10.1-22.6-22.6-22.6-6 0-11.8 2.4-16 6.6l-3.5 3.5C19.4 220.6 0 267.4 0 316.2zM118.3 424.7c-7.3-5.1 .2-14.6 8.8-12.1 97.6 27.5 182.5-86.7 148.5-179.8-1.9-5.3 5.3-11 8.8-6.6 25.9 32 35.6 69.8 35.6 111.6 0 60.9-49.4 110.3-110.3 110.3L192 448c-27.4 0-52.8-8.6-73.7-23.3z"/><path fill="currentColor" d="M127.1 412.6c-8.6-2.4-16.1 7-8.8 12.1 20.8 14.7 46.2 23.3 73.7 23.3l17.7 0c60.9 0 110.3-49.4 110.3-110.3 0-41.8-9.7-79.6-35.6-111.6-3.6-4.4-10.8 1.4-8.8 6.6 34 93.1-50.9 207.4-148.5 179.8z"/></svg>