<svg xmlns="http://www.w3.org/2000/svg" viewBox="0 0 448 512"><!--! Font Awesome Pro 7.1.0 by @fontawesome - https://fontawesome.com License - https://fontawesome.com/license (Commercial License) Copyright 2025 Fonticons, Inc. --><path opacity=".4" fill="currentColor" d="M0 320L0 480c0 17.7 14.3 32 32 32l64 0c17.7 0 32-14.3 32-32l0-160c0-17.7-14.3-32-32-32l-8 0 0-55.2c0-75 49.7-140.9 121.8-161.5L287 49.2c2.9-.8 5.8-1.2 8.8-1.2 17.8 0 32.1 14.4 32.1 32.1l0 55.9c0 13.3 10.7 24 24 24s24-10.7 24-24l0-55.9c0-44.3-35.9-80.1-80.1-80.1-7.4 0-14.9 1-22 3.1L196.7 25.1C103.9 51.6 40 136.4 40 232.8l0 55.2-8 0c-17.7 0-32 14.3-32 32z"/><path fill="currentColor" d="M345 195.9c-33.5 20.3-89 76.6-89 148.1 0 32 16 80 64 112l-27.3 27.3c-3 3-4.7 7.1-4.7 11.3l0 1.4c0 8.8 7.2 16 16 16l96 0c8.8 0 16-7.2 16-16l0-1.4c0-4.2-1.7-8.3-4.7-11.3L384 456c48-32 64-80 64-112 0-71.6-55.6-127.8-89-148.1-4.3-2.6-9.6-2.6-14 0zM360 288a24 24 0 1 1 0 48 24 24 0 1 1 0-48z"/></svg>