<svg xmlns="http://www.w3.org/2000/svg" viewBox="0 0 576 512"><!--! Font Awesome Pro 7.1.0 by @fontawesome - https://fontawesome.com License - https://fontawesome.com/license (Commercial License) Copyright 2025 Fonticons, Inc. --><path opacity=".4" fill="currentColor" d="M2.5 138.6L54.9 245.4c3.3 6.7 3.3 14.5 0 21.2L2.5 373.4c-5 10.1-2.2 22.3 6.6 29.3s21.3 7 30.1-.1l48-38.9c5.6-4.6 8.9-11.4 8.9-18.7 0-196.6 0-146.3 0-178.3 0-7.2-3.3-14.1-8.9-18.7l-48-38.9c-8.8-7.1-21.3-7.1-30.1-.1s-11.5 19.2-6.6 29.3zM416 130.9l0 101.1 32 0c13.3 0 24 10.7 24 24s-10.7 24-24 24l-32 0 0 101.1c0 16.9 17.1 28.4 31.8 20 16-9.1 30.6-19.7 43.7-30.7 39.1-33 66.9-72.4 81-99.8 4.7-9.2 4.7-20.1 0-29.3-14.1-27.4-41.9-66.8-81-99.8-13.1-11-27.7-21.6-43.7-30.7-14.7-8.4-31.8 3.1-31.8 20z"/><path fill="currentColor" d="M184 160c0-13.3-10.7-24-24-24s-24 10.7-24 24l0 72-40 0 0 48 40 0 0 72c0 13.3 10.7 24 24 24s24-10.7 24-24l0-72 48 0 0 72c0 13.3 10.7 24 24 24s24-10.7 24-24l0-72 48 0 0 72c0 13.3 10.7 24 24 24s24-10.7 24-24l0-72 72 0c13.3 0 24-10.7 24-24s-10.7-24-24-24l-72 0 0-72c0-13.3-10.7-24-24-24s-24 10.7-24 24l0 72-48 0 0-72c0-13.3-10.7-24-24-24s-24 10.7-24 24l0 72-48 0 0-72z"/></svg>