<svg xmlns="http://www.w3.org/2000/svg" viewBox="0 0 384 512"><!--! Font Awesome Pro 7.1.0 by @fontawesome - https://fontawesome.com License - https://fontawesome.com/license (Commercial License) Copyright 2025 Fonticons, Inc. --><path opacity=".4" fill="currentColor" d="M64 320c0-4.4 .2-8.8 .7-13.1l23-9.2c16.1-6.4 33.3-9.7 50.6-9.7 24.7 0 48.9 6.7 70.1 19.4l9.6 5.8c24.9 14.9 53.3 22.8 82.3 22.8l18.7 0c-7.9 63.1-61.7 112-127 112-70.7 0-128-57.3-128-128z"/><path fill="currentColor" d="M64 32C64 14.3 78.3 0 96 0L288 0c17.7 0 32 14.3 32 32s-14.3 32-32 32l0 89.7c57.3 33.2 96 95.2 96 166.3 0 106-86 192-192 192S0 426 0 320c0-71.1 38.7-133.1 96-166.3L96 64C78.3 64 64 49.7 64 32zm96 32l0 109.3c0 12.7-7.5 24.2-19.2 29.3-45.3 19.8-76.8 64.9-76.8 117.4 0 70.7 57.3 128 128 128s128-57.3 128-128c0-52.4-31.5-97.6-76.8-117.4-11.7-5.1-19.2-16.6-19.2-29.3l0-109.3-64 0z"/></svg>