<svg xmlns="http://www.w3.org/2000/svg" viewBox="0 0 512 512"><!--! Font Awesome Pro 7.1.0 by @fontawesome - https://fontawesome.com License - https://fontawesome.com/license (Commercial License) Copyright 2025 Fonticons, Inc. --><path opacity=".4" fill="currentColor" d="M4.4 242.3l33.3 54.4c3.3 5.3 4.8 11.5 4.3 17.8l-4.4 64c-.5 7.9 2 15.4 6.8 21.2l84.2-84.2c-10.5-14.5-16.6-32.3-16.6-51.5 0-48.6 39.4-88 88-88 19.2 0 37 6.2 51.5 16.6l157-157c-4.6-2.6-9.8-3.9-15.3-3.7l-63.5 2.2c-6.2 .2-12.3-1.5-17.4-5L259.6-6.4c-11.3-7.6-26.2-6.5-36.4 2.7L175.7 39.1c-4.6 4.2-10.4 6.8-16.6 7.5L95.9 53.7C82.4 55.2 71.6 65.8 69.7 79.3l-9.3 63.5c-.9 6.2-3.7 12-8 16.5L8.3 205.7c-9.4 9.9-11 25-3.9 36.6z"/><path fill="currentColor" d="M414.5 97.6c12.5-12.5 32.9-12.6 43.8 1.3 33.7 43.4 53.8 97.9 53.8 157 0 141.4-114.6 256-256 256-59.2 0-113.7-20.1-157-53.8-13.9-10.9-13.8-31.3-1.3-43.8L414.5 97.6zM224.1 440a24 24 0 1 0 0-48 24 24 0 1 0 0 48zm104-8a24 24 0 1 0 -48 0 24 24 0 1 0 48 0zm-40-56a24 24 0 1 0 0-48 24 24 0 1 0 0 48z"/></svg>