<svg xmlns="http://www.w3.org/2000/svg" viewBox="0 0 448 512"><!--! Font Awesome Pro 7.1.0 by @fontawesome - https://fontawesome.com License - https://fontawesome.com/license (Commercial License) Copyright 2025 Fonticons, Inc. --><path opacity=".4" fill="currentColor" d="M0 160c0 38.2 16.8 72.5 43.3 96-26.6 23.5-43.3 57.8-43.3 96 0 70.7 57.3 128 128 128 38.2 0 72.5-16.8 96-43.3 23.5 26.6 57.8 43.3 96 43.3 70.7 0 128-57.3 128-128 0-38.2-16.8-72.5-43.3-96 26.6-23.5 43.3-57.8 43.3-96 0-70.7-57.3-128-128-128-38.2 0-72.5 16.8-96 43.3-23.5-26.6-57.8-43.3-96-43.3-70.7 0-128 57.3-128 128zm144 96c0-5.6 .6-11 1.7-16.3 .3-1.2 .6-2.5 .9-3.7 .3-1.2 .7-2.4 1-3.7 1.7-5.4 3.4-9.1 4.5-11.4 .5-1 1.1-2.1 1.6-3.2 1.2-2.2 2.5-4.3 3.9-6.4 2.9-4.3 6.2-8.3 9.8-11.9 14.5-14.5 34.5-23.4 56.5-23.4s42.1 8.9 56.5 23.4c3.6 3.6 6.9 7.6 9.8 11.9 1.4 2.1 2.7 4.2 3.9 6.5 1 1.9 2.2 4.3 3.5 7.3 1 2.4 1.9 4.8 2.6 7.3 .7 2.4 1.4 4.9 1.9 7.5 1.1 5.2 1.6 10.6 1.6 16.1 0 5.6-.6 11-1.7 16.3-1 5-2.6 9.9-4.5 14.6-1.2 3-2.5 5.4-3.5 7.3-1.2 2.2-2.5 4.3-3.9 6.4-2.9 4.3-6.2 8.3-9.8 11.9-14.5 14.4-34.5 23.4-56.5 23.4s-42.1-9-56.5-23.4c-3.6-3.7-6.9-7.7-9.8-11.9-1.4-2.1-2.7-4.2-3.9-6.5-.5-1-1.1-2.1-1.6-3.1-.7-1.4-1.3-2.8-1.9-4.2-1-2.4-1.9-4.8-2.6-7.3-.4-1.2-.7-2.4-1-3.6-.3-1.3-.6-2.6-.9-3.9-1.1-5.2-1.6-10.6-1.6-16.1z"/><path fill="currentColor" d="M224 176a80 80 0 1 1 0 160 80 80 0 1 1 0-160z"/></svg>