<svg xmlns="http://www.w3.org/2000/svg" viewBox="0 0 576 512"><!--! Font Awesome Pro 7.1.0 by @fontawesome - https://fontawesome.com License - https://fontawesome.com/license (Commercial License) Copyright 2025 Fonticons, Inc. --><path opacity=".4" fill="currentColor" d="M320 296l0 48c0 57.4 46.6 104 104 104l16 0c21.9 0 42.3-6.8 59-18.4 6.8 14.5 23.5 21.9 39.1 16.7 16.8-5.6 25.8-23.7 20.2-40.5l-2.9-8.6c-7.6-22.8-11.5-46.8-11.5-70.8L544 224c0-17.7-14.3-32-32-32-9.8 0-18.7 4.4-24.5 11.4-14.2-7.3-30.4-11.4-47.5-11.4l-16 0c-57.4 0-104 46.6-104 104zm64 0c0-22.1 17.9-40 40-40l16 0c22.1 0 40 17.9 40 40l0 48c0 22.1-17.9 40-40 40l-16 0c-22.1 0-40-17.9-40-40l0-48z"/><path fill="currentColor" d="M96 168l0 88 96 0 0-88c0-22.1-17.9-40-40-40l-16 0c-22.1 0-40 17.9-40 40zM32 288l0-120C32 110.6 78.6 64 136 64l16 0c57.4 0 104 46.6 104 104l0 248c0 17.7-14.3 32-32 32s-32-14.3-32-32l0-96-96 0 0 96c0 17.7-14.3 32-32 32s-32-14.3-32-32l0-128z"/></svg>