<svg xmlns="http://www.w3.org/2000/svg" viewBox="0 0 576 512"><!--! Font Awesome Pro 7.1.0 by @fontawesome - https://fontawesome.com License - https://fontawesome.com/license (Commercial License) Copyright 2025 Fonticons, Inc. --><path opacity=".4" fill="currentColor" d="M447.7 104.5c.2 2.5 .3 5 .3 7.5 0 44.2-35.8 80-80 80s-80-35.8-80-80c0-5 .5-9.8 1.3-14.5-162.3 15.4-289.3 152.2-289.3 318.5 0 35.3 28.7 64 64 64l288 0c17.7 0 32-14.3 32-32s-14.3-32-32-32l-90.2 0 37.1-37.1c3.4-3.4 6.4-7.1 9-10.9 18.7-28 15.7-66.2-9-90.9-24.6-24.6-62.6-27.7-90.5-9.2-4 2.6-7.8 5.7-11.3 9.2l-.1 .1-.1 .1-73.8 70.2c-6.4 6.1-16.5 5.8-22.6-.6s-5.8-16.5 .6-22.6l73.6-70.1c40.6-40.5 106.4-40.4 146.9 .1 28.6 28.6 37.1 69.7 25.4 105.7L457.4 470.6c6 6 14.1 9.4 22.6 9.4l64 0c17.7 0 32-14.3 32-32s-14.3-32-32-32l-50.7 0-92.5-92.5 144.5-82.1c18.9-10.8 30.7-30.9 30.7-52.7 0-26.6-17.3-50.1-42.8-57.9l-85.6-26.3z"/><path fill="currentColor" d="M368 192a80 80 0 1 0 0-160 80 80 0 1 0 0 160zm0-104a24 24 0 1 1 0 48 24 24 0 1 1 0-48z"/></svg>