<svg xmlns="http://www.w3.org/2000/svg" viewBox="0 0 512 512"><!--! Font Awesome Pro 7.1.0 by @fontawesome - https://fontawesome.com License - https://fontawesome.com/license (Commercial License) Copyright 2025 Fonticons, Inc. --><path opacity=".4" fill="currentColor" d="M512 256a256 256 0 1 1 -512 0 256 256 0 1 1 512 0zM192 352c0 35.3 28.7 64 64 64s64-28.7 64-64c0-15.9-5.8-30.4-15.3-41.6 25.5-49.1 51.1-98.2 76.6-147.4 6.1-11.8 1.5-26.3-10.2-32.4s-26.2-1.5-32.4 10.2L262.1 288.3c-2-.2-4-.3-6.1-.3-35.3 0-64 28.7-64 64z"/><path fill="currentColor" d="M338.7 140.9c6.1-11.8 20.6-16.3 32.4-10.2s16.3 20.6 10.2 32.4L304.7 310.4c9.6 11.2 15.3 25.7 15.3 41.6 0 35.3-28.7 64-64 64s-64-28.7-64-64 28.7-64 64-64c2.1 0 4.1 .1 6.1 .3l76.6-147.4z"/></svg>