<svg xmlns="http://www.w3.org/2000/svg" viewBox="0 0 512 512"><!--! Font Awesome Pro 7.1.0 by @fontawesome - https://fontawesome.com License - https://fontawesome.com/license (Commercial License) Copyright 2025 Fonticons, Inc. --><path opacity=".4" fill="currentColor" d="M0 256a256 256 0 1 0 512 0 256 256 0 1 0 -512 0zm128 0a32 32 0 1 1 -64 0 32 32 0 1 1 64 0zm48-112a32 32 0 1 1 -64 0 32 32 0 1 1 64 0zm16 208c0-35.3 28.7-64 64-64 14.5 0 27.8 4.8 38.5 12.9l109.1-65.5c11.4-6.8 26.1-3.1 32.9 8.2s3.1 26.1-8.2 32.9L319.2 342.1c.5 3.2 .8 6.6 .8 9.9 0 35.3-28.7 64-64 64s-64-28.7-64-64zM288 96a32 32 0 1 1 -64 0 32 32 0 1 1 64 0zm112 48a32 32 0 1 1 -64 0 32 32 0 1 1 64 0z"/><path fill="currentColor" d="M403.7 235.4c11.4-6.8 26.1-3.1 32.9 8.2s3.1 26.1-8.2 32.9L319.2 342.1c.5 3.2 .8 6.6 .8 9.9 0 35.3-28.7 64-64 64s-64-28.7-64-64 28.7-64 64-64c14.5 0 27.8 4.8 38.5 12.9l109.1-65.5z"/></svg>