<svg xmlns="http://www.w3.org/2000/svg" viewBox="0 0 512 512"><!--! Font Awesome Pro 7.1.0 by @fontawesome - https://fontawesome.com License - https://fontawesome.com/license (Commercial License) Copyright 2025 Fonticons, Inc. --><path opacity=".4" fill="currentColor" d="M0 256a256 256 0 1 0 512 0 256 256 0 1 0 -512 0zm75.4-12.3c6.8-11.4 21.6-15.1 32.9-8.2l109.1 65.5c10.7-8.1 24.1-12.9 38.5-12.9 35.3 0 64 28.7 64 64s-28.7 64-64 64-64-28.7-64-64c0-3.4 .3-6.7 .8-9.9L83.7 276.6c-11.4-6.8-15.1-21.6-8.2-32.9z"/><path fill="currentColor" d="M108.3 235.4c-11.4-6.8-26.1-3.1-32.9 8.2s-3.1 26.1 8.2 32.9l109.1 65.5c-.5 3.2-.8 6.6-.8 9.9 0 35.3 28.7 64 64 64s64-28.7 64-64-28.7-64-64-64c-14.5 0-27.8 4.8-38.5 12.9L108.3 235.4z"/></svg>