<svg xmlns="http://www.w3.org/2000/svg" viewBox="0 0 512 512"><!--! Font Awesome Pro 7.1.0 by @fontawesome - https://fontawesome.com License - https://fontawesome.com/license (Commercial License) Copyright 2025 Fonticons, Inc. --><path opacity=".4" fill="currentColor" d="M4.7 185.8c-6.8 9.2-6.1 21.9 1.5 30.4l232 256c4.5 5 11 7.9 17.8 7.9s13.2-2.9 17.8-7.9l232-256c7.7-8.5 8.3-21.2 1.5-30.4l-112-152C390.8 27.6 383.6 24 376 24L136 24c-7.6 0-14.8 3.6-19.3 9.8l-112 152zm51.5 12.7c.1-.5 .2-1 .4-1.4 .4-.9 .9-1.7 1.5-2.5 1.3-1.4 3.1-2.4 5.2-2.6 49.1-4.1 98.1-8.2 147.2-12.3L153.1 84.1c-2.1-3.5-1.2-8.1 2.1-10.5s7.9-2 10.7 1c30 32.6 60.1 65.1 90.1 97.6l90.1-97.6c2.8-3 7.4-3.4 10.7-1s4.2 7 2.1 10.5L301.5 179.8 448.7 192c4.1 .3 7.3 3.8 7.3 8 0 4.1-3.2 7.6-7.3 8-64 5.3-128 10.7-192 16-.4 0-.9 0-1.3 0-64-5.3-128-10.7-192-16-2.1-.2-3.9-1.1-5.2-2.6-.7-.7-1.2-1.6-1.6-2.5-.2-.5-.3-.9-.4-1.4 0-.2-.1-.5-.1-.7s0-.5 0-.9c0-.2 0-.4 0-.7s.1-.5 .1-.7z"/><path fill="currentColor" d="M165.9 74.6c-2.8-3-7.4-3.4-10.7-1s-4.2 7-2.1 10.5L210.5 179.8 63.3 192c-4.1 .3-7.3 3.8-7.3 8s3.2 7.6 7.3 8l192 16c.4 0 .9 0 1.3 0l192-16c4.1-.3 7.3-3.8 7.3-8s-3.2-7.6-7.3-8l-147.2-12.3 57.4-95.6c2.1-3.5 1.2-8.1-2.1-10.5s-7.9-2-10.7 1L256 172.2 165.9 74.6z"/></svg>