<svg xmlns="http://www.w3.org/2000/svg" viewBox="0 0 384 512"><!--! Font Awesome Pro 7.1.0 by @fontawesome - https://fontawesome.com License - https://fontawesome.com/license (Commercial License) Copyright 2025 Fonticons, Inc. --><path opacity=".4" fill="currentColor" d="M0 192c0 57.4 25.2 108.8 65.1 144l253.9 0C358.8 300.8 384 249.4 384 192 384 86 298 0 192 0S0 86 0 192zm160 16c0-7.7 5.5-14.2 12.8-15.7l6.4-.6c6.3-1.3 11.2-6.2 12.5-12.5l.6-6.4c1.5-7.3 8-12.8 15.7-12.8 8.8 0 16 7.2 16 16 0 26.5-21.5 48-48 48-8.8 0-16-7.2-16-16zm16 80c0-7.7 5.5-14.2 12.8-15.7l6.4-.6c6.3-1.3 11.2-6.2 12.5-12.5l.6-6.4c1.5-7.3 8-12.8 15.7-12.8 8.8 0 16 7.2 16 16 0 26.5-21.5 48-48 48-8.8 0-16-7.2-16-16zm64-64c0-7.7 5.5-14.2 12.8-15.7l6.4-.6c6.3-1.3 11.2-6.2 12.5-12.5l.6-6.4c1.5-7.3 8-12.8 15.7-12.8 8.8 0 16 7.2 16 16 0 26.5-21.5 48-48 48-8.8 0-16-7.2-16-16z"/><path fill="currentColor" d="M298.5 384.1c12.1 1.2 21.5 11.5 21.5 23.9s-9.4 22.6-21.5 23.9l-2.5 .1-80 0 0 88c0 13.3-10.7 24-24 24s-24-10.7-24-24l0-88-80 0c-13.3 0-24-10.7-24-24 0-12.4 9.4-22.6 21.5-23.9l2.5-.1 208 0 2.5 .1z"/></svg>