<svg xmlns="http://www.w3.org/2000/svg" viewBox="0 0 512 512"><!--! Font Awesome Pro 7.1.0 by @fontawesome - https://fontawesome.com License - https://fontawesome.com/license (Commercial License) Copyright 2025 Fonticons, Inc. --><path opacity=".4" fill="currentColor" d="M0 96L0 416c0 17.7 14.3 32 32 32s32-14.3 32-32l0-128 96 0 0 128c0 17.7 14.3 32 32 32s32-14.3 32-32l0-320c0-17.7-14.3-32-32-32s-32 14.3-32 32l0 128-96 0 0-128c0-17.7-14.3-32-32-32S0 78.3 0 96z"/><path fill="currentColor" d="M320 64c17.7 0 32 14.3 32 32l0 112c0 8.8 7.2 16 16 16l80 0 0-128c0-17.7 14.3-32 32-32s32 14.3 32 32l0 320c0 17.7-14.3 32-32 32s-32-14.3-32-32l0-128-80 0c-44.2 0-80-35.8-80-80l0-112c0-17.7 14.3-32 32-32z"/></svg>