<svg xmlns="http://www.w3.org/2000/svg" viewBox="0 0 640 512"><!--! Font Awesome Pro 7.1.0 by @fontawesome - https://fontawesome.com License - https://fontawesome.com/license (Commercial License) Copyright 2025 Fonticons, Inc. --><path opacity=".4" fill="currentColor" d="M32.1 141.3l0 82.7c0 17.7 14.3 32 32 32l272 0c17.7 0 32-14.3 32-32l0-160c0-17.7-14.3-32-32-32L141.3 32c-8.5 0-16.6 3.4-22.6 9.4L41.5 118.6c-6 6-9.4 14.1-9.4 22.6z"/><path fill="currentColor" d="M432.2-56c-13.3 0-24 10.7-24 24l0 48c0 13.3 10.7 24 24 24s24-10.7 24-24l0-48c0-13.3-10.7-24-24-24zm24 328c0-13.3-10.7-24-24-24s-24 10.7-24 24l0 48c0 13.3 10.7 24 24 24s24-10.7 24-24l0-48zm152-104c13.3 0 24-10.7 24-24s-10.7-24-24-24l-48 0c-13.3 0-24 10.7-24 24s10.7 24 24 24l48 0zM573.6 36.5c9.4-9.4 9.4-24.6 0-33.9s-24.6-9.4-33.9 0L505.7 36.5c-9.4 9.4-9.4 24.6 0 33.9s24.6 9.4 33.9 0l33.9-33.9zm-67.9 181c-9.4 9.4-9.4 24.6 0 33.9l33.9 33.9c9.4 9.4 24.6 9.4 33.9 0s9.4-24.6 0-33.9l-33.9-33.9c-9.4-9.4-24.6-9.4-33.9 0zM184.1 256l0 248c0 22.1 17.9 40 40 40s40-17.9 40-40l0-248-80 0z"/></svg>