<svg xmlns="http://www.w3.org/2000/svg" viewBox="0 0 640 512"><!--! Font Awesome Pro 7.1.0 by @fontawesome - https://fontawesome.com License - https://fontawesome.com/license (Commercial License) Copyright 2025 Fonticons, Inc. --><path opacity=".4" fill="currentColor" d="M352 224l0 119.6c0 57.2 37.9 107.4 92.8 123.1l154.4 44.1c9.7 2.8 20 .8 28.1-5.2S640 490 640 480l0-96c0-13.8-8.8-26-21.9-30.4l-58.1-19.4 0-110.7c0-29-9.3-57.3-26.5-80.7L440.2 16.3C427.1-1.5 402.1-5.3 384.3 7.8s-21.6 38.1-8.5 55.9L464 183.4 464 296c0 13.3-10.7 24-24 24s-24-10.7-24-24l0-72c0-17.7-14.3-32-32-32s-32 14.3-32 32z"/><path fill="currentColor" d="M200 320c13.3 0 24-10.7 24-24l0-72c0-17.7 14.3-32 32-32s32 14.3 32 32l0 119.6c0 57.2-37.9 107.4-92.8 123.1L40.8 510.8c-9.7 2.8-20 .8-28.1-5.2S0 490 0 480l0-96c0-13.8 8.8-26 21.9-30.4L80 334.3 80 223.6c0-29 9.3-57.3 26.5-80.7L199.8 16.3c13.1-17.8 38.1-21.6 55.9-8.5s21.6 38.1 8.5 55.9L176 183.4 176 296c0 13.3 10.7 24 24 24z"/></svg>