<svg xmlns="http://www.w3.org/2000/svg" viewBox="0 0 512 512"><!--! Font Awesome Pro 7.1.0 by @fontawesome - https://fontawesome.com License - https://fontawesome.com/license (Commercial License) Copyright 2025 Fonticons, Inc. --><path opacity=".4" fill="currentColor" d="M0 224c0 54 19.1 103.5 50.9 142.2 8 9.7 13.1 21.6 13.1 34.2L64 464c0 26.5 21.5 48 48 48l160 0c26.5 0 48-21.5 48-48l0-7.2c0-5.1 4.5-8.8 9.7-8.8l38.3 0c35.3 0 64-28.7 64-64l0-48c0-8.8 7.2-16 16-16l1 0c26 0 47-21 47-47 0-11-3.9-21.6-10.9-30.1L449.3 200C447.4 197.6 446.1 194.7 445.7 191.7 430 83.3 336.7 0 224 0 100.3 0 0 100.3 0 224zm80-64c0-26.5 21.5-48 48-48 0-26.5 21.5-48 48-48 12.3 0 23.5 4.6 32 12.2 8.5-7.6 19.7-12.2 32-12.2 20.9 0 38.7 13.4 45.3 32L304 96c26.5 0 48 21.5 48 48s-21.5 48-48 48l-48 0c0 35.3-28.7 64-64 64-29.8 0-54.9-20.4-62-48-.7 0-1.3 0-2 0-26.5 0-48-21.5-48-48z"/><path fill="currentColor" d="M285.3 96c-6.6-18.6-24.4-32-45.3-32-12.3 0-23.5 4.6-32 12.2-8.5-7.6-19.7-12.2-32-12.2-26.5 0-48 21.5-48 48-26.5 0-48 21.5-48 48s21.5 48 48 48c.7 0 1.3 0 2 0 7.1 27.6 32.2 48 62 48 35.3 0 64-28.7 64-64l48 0c26.5 0 48-21.5 48-48s-21.5-48-48-48l-18.7 0z"/></svg>