<svg xmlns="http://www.w3.org/2000/svg" viewBox="0 0 576 512"><!--! Font Awesome Pro 7.1.0 by @fontawesome - https://fontawesome.com License - https://fontawesome.com/license (Commercial License) Copyright 2025 Fonticons, Inc. --><path opacity=".4" fill="currentColor" d="M64 224l0 160c0 53 43 96 96 96l16 0c26.5 0 48-21.5 48-48l0-128c0-4-.5-7.9-1.4-11.6l-35-35c-3.7-.9-7.6-1.4-11.6-1.4l-16 0c-11.2 0-22 1.9-32 5.5l0-37.5c0-8.3 .6-16.4 1.8-24.3L77.5 147.3C68.8 171.2 64 197.1 64 224z"/><path fill="currentColor" d="M7-24.9c9.4-9.4 24.6-9.4 33.9 0l89.6 89.6C171 24.7 226.6 0 288 0 411.7 0 512 100.3 512 224l0 160c0 17.8-4.9 34.5-13.3 48.8L569 503.1c9.4 9.4 9.4 24.6 0 33.9s-24.6 9.4-33.9 0L7 9.1C-2.3-.3-2.3-15.5 7-24.9zM354.5 288.7c6.4-19 24.3-32.7 45.5-32.7l16 0c11.2 0 22 1.9 32 5.5l0-37.5c0-88.4-71.6-160-160-160-43.7 0-83.3 17.5-112.2 45.9L354.5 288.7z"/></svg>