<svg xmlns="http://www.w3.org/2000/svg" viewBox="0 0 512 512"><!--! Font Awesome Pro 7.1.0 by @fontawesome - https://fontawesome.com License - https://fontawesome.com/license (Commercial License) Copyright 2025 Fonticons, Inc. --><path opacity=".4" fill="currentColor" d="M0 224C0 161.2 25.8 104.4 67.5 63.8l40.5 40.5 0 53.1c-12 6.9-20 19.8-20 34.6 0 22.1 17.9 40 40 40s40-17.9 40-40c0-14.8-8-27.7-20-34.6L148 96c0-5.3-2.1-10.4-5.9-14.1L98.6 38.3C129.2 17.6 165.2 4.3 204 .9l0 92.5c-12 6.9-20 19.8-20 34.6 0 22.1 17.9 40 40 40s40-17.9 40-40c0-14.8-8-27.7-20-34.6L244 .9c38.8 3.4 74.8 16.8 105.4 37.5L305.9 81.9c-3.8 3.8-5.9 8.8-5.9 14.1l0 61.4c-12 6.9-20 19.8-20 34.6 0 22.1 17.9 40 40 40s40-17.9 40-40c0-14.8-8-27.7-20-34.6l0-53.1 40.5-40.5c34.4 33.6 58 78.1 65.2 127.9 .4 3 1.7 5.9 3.6 8.3l35.8 42.9c7 8.4 10.9 19.1 10.9 30.1 0 25.9-21 47-47 47l-1 0c-8.8 0-16 7.2-16 16l0 48c0 35.3-28.7 64-64 64l-38.3 0c-5.1 0-9.7 3.7-9.7 8.8l0 7.2c0 26.5-21.5 48-48 48l-160 0c-26.5 0-48-21.5-48-48l0-63.6C64 387.8 58.9 375.9 50.9 366.2 19.1 327.5 0 278 0 224zm184 32a40 40 0 1 0 80 0 40 40 0 1 0 -80 0z"/><path fill="currentColor" d="M244 .9l0 92.5c12 6.9 20 19.8 20 34.6 0 22.1-17.9 40-40 40s-40-17.9-40-40c0-14.8 8-27.7 20-34.6L204 .9c13.1-1.2 26.9-1.2 40 0zM67.5 63.8c9.6-9.4 20-17.9 31.2-25.4l43.5 43.5c3.8 3.8 5.9 8.8 5.9 14.1l0 61.4c12 6.9 20 19.8 20 34.6 0 22.1-17.9 40-40 40s-40-17.9-40-40c0-14.8 8-27.7 20-34.6l0-53.1-40.5-40.5zM349.4 38.3c11.1 7.5 21.6 16.1 31.2 25.4l-40.5 40.5 0 53.1c12 6.9 20 19.8 20 34.6 0 22.1-17.9 40-40 40s-40-17.9-40-40c0-14.8 8-27.7 20-34.6L300 96c0-5.3 2.1-10.4 5.9-14.1l43.5-43.5zM224 216a40 40 0 1 1 0 80 40 40 0 1 1 0-80z"/></svg>