<svg xmlns="http://www.w3.org/2000/svg" viewBox="0 0 512 512"><!--! Font Awesome Pro 7.1.0 by @fontawesome - https://fontawesome.com License - https://fontawesome.com/license (Commercial License) Copyright 2025 Fonticons, Inc. --><path opacity=".4" fill="currentColor" d="M17 160.8l0 191.6c0 25.8 13.8 49.7 36.2 62.5l168.1 96.2c22.2 12.7 49.4 12.7 71.5 0l168.1-96.2c22.4-12.8 36.2-36.7 36.2-62.5l0-191.6c0-25.8-13.8-49.7-36.2-62.5L292.8 2.1c-22.2-12.7-49.4-12.7-71.5 0L53.2 98.3C30.8 111.1 17 134.9 17 160.8zM92 192c0-9.3 6.4-17.3 15.4-19.5s18.3 2.2 22.5 10.5l26.1 52.2 0-43.3c0-11 9-20 20-20s20 9 20 20l0 128c0 9.3-6.4 17.3-15.4 19.5s-18.3-2.2-22.5-10.5L132 276.7 132 320c0 11-9 20-20 20s-20-9-20-20l0-128zm128 0c0-11 9-20 20-20l48 0c11 0 20 9 20 20s-9 20-20 20l-28 0 0 24 28 0c11 0 20 9 20 20s-9 20-20 20l-28 0 0 44c0 11-9 20-20 20s-20-9-20-20l0-128zm96 0c0-11 9-20 20-20l64 0c11 0 20 9 20 20s-9 20-20 20l-12 0 0 108c0 11-9 20-20 20s-20-9-20-20l0-108-12 0c-11 0-20-9-20-20z"/><path fill="currentColor" d="M107.4 172.5c9-2.1 18.3 2.2 22.5 10.5l26.1 52.2 0-43.3c0-11 9-20 20-20s20 9 20 20l0 128c0 9.3-6.4 17.3-15.4 19.5s-18.3-2.2-22.5-10.5L132 276.7 132 320c0 11-9 20-20 20s-20-9-20-20l0-128c0-9.3 6.4-17.3 15.4-19.5zM220 192c0-11 9-20 20-20l48 0c11 0 20 9 20 20s-9 20-20 20l-28 0 0 24 28 0c11 0 20 9 20 20s-9 20-20 20l-28 0 0 44c0 11-9 20-20 20s-20-9-20-20l0-128zm116-20l64 0c11 0 20 9 20 20s-9 20-20 20l-12 0 0 108c0 11-9 20-20 20s-20-9-20-20l0-108-12 0c-11 0-20-9-20-20s9-20 20-20z"/></svg>