<svg xmlns="http://www.w3.org/2000/svg" viewBox="0 0 576 512"><!--! Font Awesome Pro 7.1.0 by @fontawesome - https://fontawesome.com License - https://fontawesome.com/license (Commercial License) Copyright 2025 Fonticons, Inc. --><path opacity=".4" fill="currentColor" d="M33.5 220.3c-12.7 22.2-12.7 49.4 0 71.5l96.2 168.1c12.8 22.4 36.7 36.2 62.5 36.2l191.6 0c25.8 0 49.7-13.8 62.5-36.2l96.2-168.1c12.7-22.2 12.7-49.4 0-71.5L446.3 52.2C433.5 29.8 409.6 16 383.8 16L192.2 16c-25.8 0-49.7 13.8-62.5 36.2L33.5 220.3zm109 133.2l34.7-49.6c5-7.1 13.1-11.4 21.8-11.4s16.9 4.2 21.8 11.4l29.4 42 68.2-111.7c4.8-7.9 13.5-12.8 22.8-12.8s17.9 4.8 22.8 12.8l71.1 116.4-44.4 77.6c-1.4 2.5-4.1 4-6.9 4l-191.6 0c-2.9 0-5.5-1.5-6.9-4l-42.7-74.6zM272 160a48 48 0 1 1 -96 0 48 48 0 1 1 96 0z"/><path fill="currentColor" d="M435.2 350.4L364.1 234.1c-4.8-7.9-13.5-12.8-22.8-12.8s-17.9 4.8-22.8 12.8l-68.2 111.7-29.4-42c-5-7.1-13.1-11.4-21.8-11.4s-16.9 4.2-21.8 11.4l-34.7 49.6 42.7 74.6c1.4 2.5 4.1 4 6.9 4l191.6 0c2.9 0 5.5-1.5 6.9-4l44.4-77.6z"/></svg>