<svg xmlns="http://www.w3.org/2000/svg" viewBox="0 0 640 512"><!--! Font Awesome Pro 7.1.0 by @fontawesome - https://fontawesome.com License - https://fontawesome.com/license (Commercial License) Copyright 2025 Fonticons, Inc. --><path opacity=".4" fill="currentColor" d="M0 352L0 480c0 17.7 14.3 32 32 32l32 0 0-192-32 0c-17.7 0-32 14.3-32 32zm112-32l0 192 91.6 0c24.9 0 47.5-14.4 58-36.9l215.4-461.5 1.2-3C483.5-4.8 476.5-22 461.5-29s-32.7-1.3-41 12.6L419-13.5 263.3 320 112 320zm416 0c0 64 0 128 0 192 16 0 32 0 48 0 0-64 0-128 0-192-16 0-32 0-48 0z"/><path fill="currentColor" d="M528 512l-91.6 0c-24.9 0-47.5-14.4-58-36.9l-31.9-68.4 40.5-86.7 141.1 0 0 192zm80-192c17.7 0 32 14.3 32 32l0 128c0 17.7-14.3 32-32 32l-32 0 0-192 32 0zM112 512l-48 0 0-192 48 0 0 192zM178.5-29c16-7.5 35.1-.5 42.5 15.5l72.5 155.3-35.3 75.7-95.2-203.9c-7.5-16-.5-35.1 15.5-42.5z"/></svg>