<svg xmlns="http://www.w3.org/2000/svg" viewBox="0 0 512 512"><!--! Font Awesome Pro 7.1.0 by @fontawesome - https://fontawesome.com License - https://fontawesome.com/license (Commercial License) Copyright 2025 Fonticons, Inc. --><path opacity=".4" fill="currentColor" d="M0 282.5l0 11c0 17 6.7 33.3 18.7 45.3l23 23c3.6-6.6 8.1-12.7 13.7-18.3l288-288c5.6-5.6 11.7-10.1 18.3-13.7l-23-23C326.7 6.7 310.5 0 293.5 0l-11 0c-17 0-33.3 6.7-45.3 18.7L18.7 237.3C6.7 249.3 0 265.5 0 282.5zM150.3 470.3l23 23c12 12 28.3 18.7 45.3 18.7l11 0c17 0 33.3-6.7 45.3-18.7L493.3 274.7c12-12 18.7-28.3 18.7-45.3l0-11c0-17-6.7-33.3-18.7-45.3l-23-23c-3.6 6.6-8.1 12.7-13.7 18.3l-288 288c-5.6 5.6-11.7 10.1-18.3 13.7z"/><path fill="currentColor" d="M456.6 55.4c31.2 31.2 31.2 81.9 0 113.1l-288 288c-31.2 31.2-81.9 31.2-113.1 0s-31.2-81.9 0-113.1l288-288c31.2-31.2 81.9-31.2 113.1 0z"/></svg>