<svg xmlns="http://www.w3.org/2000/svg" viewBox="0 0 640 512"><!--! Font Awesome Pro 7.1.0 by @fontawesome - https://fontawesome.com License - https://fontawesome.com/license (Commercial License) Copyright 2025 Fonticons, Inc. --><path opacity=".4" fill="currentColor" d="M34.2 251.7C39 263.9 50.9 272 64 272l16 0 0 176c0 35.3 28.7 64 64 64l225.3 0c-.9-5.2-1.3-10.6-1.3-16.1l0-96c0-28.5 12.4-54 32-71.5l0-24.4c0-59.2 40.2-109 94.8-123.7L309.8 8.6c-11.5-10.7-28.9-11.4-41.2-2l-2.4 2-224 208c-9.6 9-12.8 22.9-8 35.1zM224 368c0-26.5 21.5-48 48-48l32 0c13.5 0 25.7 5.6 34.4 14.6-11.4 10.6-18.4 25.6-18.4 42.1l0 87.3-96 0 0-96z"/><path fill="currentColor" d="M528 272.1c17.6 0 31.9 14.3 32 31.9l48 0c-.1-44.1-35.8-79.9-80-79.9-44.2 0-80 35.8-80 80l0 50.6c-18.6 6.6-32 24.4-32 45.3l0 96c0 26.5 21.5 48 48 48l128 0c26.5 0 48-21.5 48-48l0-96c0-26.5-21.5-48-48-48l-96 0 0-47.9c0-17.7 14.3-32 32-32z"/></svg>