<svg xmlns="http://www.w3.org/2000/svg" viewBox="0 0 512 512"><!--! Font Awesome Pro 7.1.0 by @fontawesome - https://fontawesome.com License - https://fontawesome.com/license (Commercial License) Copyright 2025 Fonticons, Inc. --><path opacity=".4" fill="currentColor" d="M48 267.7c2-1.2 4-2.6 5.8-4.3L256 75.7 458.2 263.4c1.8 1.7 3.7 3.1 5.8 4.3L464 448c0 35.3-28.7 64-64 64l-288 0c-35.3 0-64-28.7-64-64l0-180.3z"/><path fill="currentColor" d="M277.8 8.6c-12.3-11.4-31.3-11.4-43.5 0l-224 208c-13 12-13.7 32.3-1.7 45.2s32.3 13.7 45.2 1.7L256 75.7 458.2 263.4c13 12 33.2 11.3 45.2-1.7s11.3-33.2-1.7-45.2L464 181.5 464 80c0-17.7-14.3-32-32-32l-32 0c-17.7 0-32 14.3-32 32l0 12.3-90.2-83.8z"/></svg>