<svg xmlns="http://www.w3.org/2000/svg" viewBox="0 0 512 512"><!--! Font Awesome Pro 7.1.0 by @fontawesome - https://fontawesome.com License - https://fontawesome.com/license (Commercial License) Copyright 2025 Fonticons, Inc. --><path opacity=".4" fill="currentColor" d="M336 160c8.3-41.7 16.7-83.4 25-125.2 .4-1.9 .6-3.8 .6-5.7 0-14.4-10.5-26.4-24.3-28.7 1.6-.3 3.2-.4 4.8-.4L482.4 0c16.3 0 29.6 13.2 29.6 29.6 0 1.6-.1 3.3-.4 4.9L434.6 496.1c-1.5 9.2-9.5 15.9-18.8 15.9-9.2 0-17.1-6.6-18.7-15.6L336 160z"/><path fill="currentColor" d="M75.8 304.8L1 35.7C.3 33.2 0 30.7 0 28.2 0 12.6 12.6 0 28.2 0L332.5 0c16.1 0 29.1 13 29.1 29.1 0 1.9-.2 3.8-.6 5.7-16.1 80.3-34 170-53.8 269.1-1.9 9.3-10.1 16.1-19.6 16.1-9.2 0-17.2-6.2-19.4-15.1L240 192 210.6 368.2c-1.5 9.1-9.4 15.8-18.6 15.8s-17.1-6.7-18.6-15.8L144 192 115.9 304.3c-2.3 9.2-10.6 15.7-20.1 15.7-9.3 0-17.5-6.2-20-15.2z"/></svg>