<svg xmlns="http://www.w3.org/2000/svg" viewBox="0 0 576 512"><!--! Font Awesome Pro 7.1.0 by @fontawesome - https://fontawesome.com License - https://fontawesome.com/license (Commercial License) Copyright 2025 Fonticons, Inc. --><path opacity=".4" fill="currentColor" d="M64 133.8L64 416c0 35.3 28.7 64 64 64l282.2 0-64-64-194.2 0c-8.9 0-17.2-5-21.3-12.9s-3.5-17.5 1.6-24.8l56-80c4.5-6.4 11.8-10.2 19.7-10.2L218.2 288 64 133.8z"/><path fill="currentColor" d="M7-24.9c9.4-9.4 24.6-9.4 33.9 0l62 62c7.7-3.3 16.2-5.1 25.1-5.1l320 0c35.3 0 64 28.7 64 64l0 320c0 8.9-1.8 17.4-5.1 25.1L569 503.1c9.4 9.4 9.4 24.6 0 33.9s-24.6 9.4-33.9 0L7 9.1C-2.3-.3-2.3-15.5 7-24.9zM238.4 172.5c1.1-4 1.6-8.2 1.6-12.5 0-26.5-21.5-48-48-48-4.3 0-8.5 .6-12.5 1.6l58.9 58.9zM443.1 377.3L356.5 235.5c-4.4-7.1-12.1-11.5-20.5-11.5s-16.1 4.4-20.5 11.5l-5.4 8.8 133 133z"/></svg>