<svg xmlns="http://www.w3.org/2000/svg" viewBox="0 0 192 512"><!--! Font Awesome Pro 7.1.0 by @fontawesome - https://fontawesome.com License - https://fontawesome.com/license (Commercial License) Copyright 2025 Fonticons, Inc. --><path opacity=".4" fill="currentColor" d="M48 48a48 48 0 1 0 96 0 48 48 0 1 0 -96 0z"/><path fill="currentColor" d="M32 160c-17.7 0-32 14.3-32 32s14.3 32 32 32l32 0 0 224-32 0c-17.7 0-32 14.3-32 32s14.3 32 32 32l128 0c17.7 0 32-14.3 32-32s-14.3-32-32-32l-32 0 0-256c0-17.7-14.3-32-32-32l-64 0z"/></svg>