<svg xmlns="http://www.w3.org/2000/svg" viewBox="0 0 640 512"><!--! Font Awesome Pro 7.1.0 by @fontawesome - https://fontawesome.com License - https://fontawesome.com/license (Commercial License) Copyright 2025 Fonticons, Inc. --><path opacity=".4" fill="currentColor" d="M193.1 270.3l12.2 12.2c12 12 18.7 28.3 18.7 45.3L224 480c0 17.7 14.3 32 32 32s32-14.3 32-32l0-152.2c0-33.9-13.5-66.5-37.5-90.5l-32.1-32.1c-13.6 19.2-22.4 41.6-25.3 65.2zM352 327.8L352 480c0 17.7 14.3 32 32 32s32-14.3 32-32l0-152.2c0-17 6.7-33.3 18.7-45.3l12.2-12.2c-2.9-23.6-11.7-46-25.3-65.2l-32.1 32.1c-24 24-37.5 56.6-37.5 90.5z"/><path fill="currentColor" d="M253.5 169.7l-10 8.3c-32.6 27.2-51.5 67.5-51.5 110 0 53-43 96-96 96S0 341 0 288C0 188.5 44.2 94.2 120.6 30.6l10-8.3C171.3-11.7 231.8-6.2 265.7 34.5s28.4 101.3-12.3 135.2zm133.1 0c-40.7-33.9-46.2-94.5-12.3-135.2s94.5-46.2 135.2-12.3l10 8.3c76.4 63.7 120.6 158 120.6 257.4 0 53-43 96-96 96s-96-43-96-96c0-42.5-18.9-82.8-51.5-110l-10-8.3z"/></svg>