<svg xmlns="http://www.w3.org/2000/svg" viewBox="0 0 576 512"><!--! Font Awesome Pro 7.1.0 by @fontawesome - https://fontawesome.com License - https://fontawesome.com/license (Commercial License) Copyright 2025 Fonticons, Inc. --><path opacity=".4" fill="currentColor" d="M96 390.3c14.9 8.6 31 15.3 48 19.6l0 46c0 13.3-10.7 24-24 24s-24-10.7-24-24l0-65.7zm112 25c16.7-1.4 32.8-4.9 48-10.3l0 50.9c0 13.3-10.7 24-24 24s-24-10.7-24-24l0-40.7zm269.6-66.8c28.2-6.7 52.8-22.6 70.3-44.5 8.8-10.9 15.8-23.3 20.6-36.8 2.4-6.7 4.3-13.7 5.6-20.9 .6-3.6 1.1-7.2 1.4-10.9 .3-3.7 .5-7.3 .5-11.2L576 464c0 7.3-4.9 13.7-12 15.5s-14.5-1.3-18-7.7L477.6 348.6z"/><path fill="currentColor" d="M291.2 388.4c31.2-18.8 64.7-36.4 101.1-36.4l55.7 0c70.7 0 128-57.3 128-128S518.7 96 448 96l-55.7 0C355.9 96 322.4 78.4 291.2 59.6 262.3 42.1 228.3 32 192 32 86 32 0 118 0 224S86 416 192 416c36.3 0 70.3-10.1 99.2-27.6zM448 200a24 24 0 1 1 0 48 24 24 0 1 1 0-48z"/></svg>