<svg xmlns="http://www.w3.org/2000/svg" viewBox="0 0 576 512"><!--! Font Awesome Pro 7.1.0 by @fontawesome - https://fontawesome.com License - https://fontawesome.com/license (Commercial License) Copyright 2025 Fonticons, Inc. --><path opacity=".4" fill="currentColor" d="M0 275.2C0 317.6 34.4 352 76.8 352l163.2 0 0-96-112 0 0-192 288 0 0 48 64 0 0-48c0-35.3-28.7-64-64-64L128 0C92.7 0 64 28.7 64 64l0 192-44.8 0C8.6 256 0 264.6 0 275.2z"/><path fill="currentColor" d="M336 160c-26.5 0-48 21.5-48 48l0 256c0 26.5 21.5 48 48 48l160 0c26.5 0 48-21.5 48-48l0-172.1c0-12.7-5.1-24.9-14.1-33.9l-83.9-83.9c-9-9-21.2-14.1-33.9-14.1L336 160zm80 112l0-60.1 76.1 76.1-60.1 0c-8.8 0-16-7.2-16-16z"/></svg>