<svg xmlns="http://www.w3.org/2000/svg" viewBox="0 0 448 512"><!--! Font Awesome Pro 7.1.0 by @fontawesome - https://fontawesome.com License - https://fontawesome.com/license (Commercial License) Copyright 2025 Fonticons, Inc. --><path opacity=".4" fill="currentColor" d="M0 201.7c0 13.9 7 27 18.6 34.7l54.5 36.3c10.2 6.8 9.3 22.1-1.7 27.6l-6.9 3.4c-19.9 9.9-32.5 30.3-32.5 52.5 0 25.9 17 48.8 41.9 56.3l62.9 18.9c20.3 6.1 39.1 16.1 55.3 29.3l0-268.8 .2-3.3c1.6-16.1 15.3-28.7 31.8-28.7s30.2 12.6 31.8 28.7l.2 3.3 0 268.8c16.2-13.2 34.9-23.2 55.3-29.3l62.9-18.9c24.8-7.5 41.9-30.3 41.9-56.3 0-22.2-12.6-42.6-32.5-52.5l-6.9-3.4c-11-5.5-11.9-20.8-1.7-27.6l54.5-36.3c11.6-7.7 18.6-20.7 18.6-34.7 0-23-18.7-41.7-41.7-41.7l-28.4 0c-11.9 0-19.6-12.5-14.3-23.2L383 98C393.2 77.7 389.2 53.2 373.1 37.1 360 24 341 18.7 323 23.2l-22.6 5.6c-7.3 1.8-14.8-1.7-18.2-8.4L270.3-3.4C261.5-20.9 243.6-32 224-32S186.5-20.9 177.7-3.4L165.7 20.5c-3.4 6.7-10.9 10.2-18.2 8.4L125 23.2C107 18.7 88 24 74.9 37.1 58.8 53.2 54.8 77.7 65 98l19.4 38.8C89.7 147.5 82 160 70.1 160l-28.4 0C18.7 160 0 178.7 0 201.7z"/><path fill="currentColor" d="M224 160c16.6 0 30.2 12.6 31.8 28.7l.2 3.3 0 320c0 17.7-14.3 32-32 32s-32-14.3-32-32l0-320 .2-3.3c1.6-16.1 15.3-28.7 31.8-28.7z"/></svg>