<svg xmlns="http://www.w3.org/2000/svg" viewBox="0 0 576 512"><!--! Font Awesome Pro 7.1.0 by @fontawesome - https://fontawesome.com License - https://fontawesome.com/license (Commercial License) Copyright 2025 Fonticons, Inc. --><path opacity=".4" fill="currentColor" d="M10.5 21.3C4.6 33.1 9.4 47.5 21.3 53.5l64 32c11.9 5.9 26.3 1.1 32.2-10.7s1.1-26.3-10.7-32.2l-64-32C30.9 4.6 16.5 9.4 10.5 21.3zm0 213.5c5.9 11.9 20.3 16.7 32.2 10.7l64-32c11.9-5.9 16.7-20.3 10.7-32.2s-20.3-16.7-32.2-10.7l-64 32c-11.9 5.9-16.7 20.3-10.7 32.2zM164.4 104.1C170.3 114.3 181 120 192 120l0 40 64 0 0-72.3 32-18.7 32 18.7 0 72.3 64 0c0-13.3 0-26.7 0-40 11 0 21.7-5.7 27.6-15.9 8.9-15.3 3.7-34.9-11.5-43.8l-96-56c-10-5.8-22.3-5.8-32.2 0l-96 56c-15.3 8.9-20.4 28.5-11.5 43.8zM458.5 74.7c5.9 11.9 20.3 16.7 32.2 10.7l64-32c11.9-5.9 16.7-20.3 10.7-32.2S545.1 4.6 533.3 10.5l-64 32c-11.9 5.9-16.7 20.3-10.7 32.2zm0 106.5c-5.9 11.9-1.1 26.3 10.7 32.2l64 32c11.9 5.9 26.3 1.1 32.2-10.7s1.1-26.3-10.7-32.2l-64-32c-11.9-5.9-26.3-1.1-32.2 10.7z"/><path fill="currentColor" d="M192 160l192 0c17.7 0 32 14.3 32 32 0 13.3-8.1 24.7-19.7 29.5l45.3 226.5 6.4 0c17.7 0 32 14.3 32 32s-14.3 32-32 32l-320 0c-17.7 0-32-14.3-32-32s14.3-32 32-32l6.4 0 45.3-226.5c-11.6-4.8-19.7-16.2-19.7-29.5 0-17.7 14.3-32 32-32zm96 208c-17.7 0-32 14.3-32 32l0 64 64 0 0-64c0-17.7-14.3-32-32-32z"/></svg>