<svg xmlns="http://www.w3.org/2000/svg" viewBox="0 0 384 512"><!--! Font Awesome Pro 7.1.0 by @fontawesome - https://fontawesome.com License - https://fontawesome.com/license (Commercial License) Copyright 2025 Fonticons, Inc. --><path opacity=".4" fill="currentColor" d="M1.7 437.9c-5.6 16.8 3.5 34.9 20.2 40.5s34.9-3.5 40.5-20.2l128-384c5.6-16.8-3.5-34.9-20.2-40.5s-34.9 3.5-40.5 20.2l-128 384zM320 64l0 384c0 17.7 14.3 32 32 32s32-14.3 32-32l0-384c0-17.7-14.3-32-32-32s-32 14.3-32 32z"/><path fill="currentColor" d="M261.3 32.4c17.4 2.9 29.2 19.4 26.3 36.8l-64 384c-2.9 17.4-19.4 29.2-36.8 26.3s-29.2-19.4-26.3-36.8l64-384c2.9-17.4 19.4-29.2 36.8-26.3z"/></svg>