<svg xmlns="http://www.w3.org/2000/svg" viewBox="0 0 576 512"><!--! Font Awesome Pro 7.1.0 by @fontawesome - https://fontawesome.com License - https://fontawesome.com/license (Commercial License) Copyright 2025 Fonticons, Inc. --><path opacity=".4" fill="currentColor" d="M0 192c0 59.3 32.3 111.1 80.3 138.8-.2-3.6-.3-7.1-.3-10.8 0-21.9 3.4-42.9 9.6-62.7-15.9-17.1-25.6-40.1-25.6-65.3 0-16.8 4.3-32.6 11.9-46.3L29.5 99.4C10.9 125.5 0 157.5 0 192zM128 320c0 88.4 71.6 160 160 160l122.2 0-64-64-58.2 0c-53 0-96-43-96-96 0-16.8 4.3-32.6 11.9-46.3l-46.3-46.3C138.9 253.5 128 285.5 128 320z"/><path fill="currentColor" d="M7-24.9c9.4-9.4 24.6-9.4 33.9 0L106.9 41c16.6-5.8 34.5-9 53.1-9l128 0c88.4 0 160 71.6 160 160 0 51.9-24.7 98-62.9 127.2l82.1 82.1c27-17 44.9-47 44.9-81.3 0-25.2-9.7-48.2-25.6-65.3 6.2-19.8 9.6-40.9 9.6-62.7 0-3.6-.1-7.2-.3-10.8 48 27.6 80.3 79.4 80.3 138.8 0 51.9-24.7 98-62.9 127.2L569 503.1c9.4 9.4 9.4 24.6 0 33.9s-24.6 9.4-33.9 0L7 9.1C-2.3-.3-2.3-15.5 7-24.9zM234.9 169c16.6-5.8 34.5-9 53.1-9l16 0c17.7 0 32 14.3 32 32s-14.3 32-32 32l-14.2 0 49.3 49.3c27-17 44.9-47 44.9-81.3 0-53-43-96-96-96l-126.2 0 73 73z"/></svg>