<svg xmlns="http://www.w3.org/2000/svg" viewBox="0 0 384 512"><!--! Font Awesome Pro 7.1.0 by @fontawesome - https://fontawesome.com License - https://fontawesome.com/license (Commercial License) Copyright 2025 Fonticons, Inc. --><path opacity=".4" fill="currentColor" d="M0 188.6c0 119.3 120.2 262.3 170.4 316.8 11.8 12.8 31.5 12.8 43.3 0 50.2-54.5 170.4-197.5 170.4-316.8 0-104.1-86-188.6-192-188.6S0 84.4 0 188.6zm124.1-64.5c9.4-9.4 24.6-9.4 33.9 0l33.9 33.9 33.9-33.9c9.4-9.4 24.6-9.4 33.9 0s9.4 24.6 0 33.9l-33.9 33.9 33.9 33.9c9.4 9.4 9.4 24.6 0 33.9s-24.6 9.4-33.9 0l-33.9-33.9-33.9 33.9c-9.4 9.4-24.6 9.4-33.9 0s-9.4-24.6 0-33.9l33.9-33.9-33.9-33.9c-9.4-9.4-9.4-24.6 0-33.9z"/><path fill="currentColor" d="M259.9 158.1c9.4-9.4 9.4-24.6 0-33.9s-24.6-9.4-33.9 0l-33.9 33.9-33.9-33.9c-9.4-9.4-24.6-9.4-33.9 0s-9.4 24.6 0 33.9l33.9 33.9-33.9 33.9c-9.4 9.4-9.4 24.6 0 33.9s24.6 9.4 33.9 0l33.9-33.9 33.9 33.9c9.4 9.4 24.6 9.4 33.9 0s9.4-24.6 0-33.9l-33.9-33.9 33.9-33.9z"/></svg>