<svg xmlns="http://www.w3.org/2000/svg" viewBox="0 0 384 512"><!--! Font Awesome Pro 7.1.0 by @fontawesome - https://fontawesome.com License - https://fontawesome.com/license (Commercial License) Copyright 2025 Fonticons, Inc. --><path opacity=".4" fill="currentColor" d="M0 188.6c0 119.3 120.2 262.3 170.4 316.8 11.8 12.8 31.5 12.8 43.3 0 50.2-54.5 170.4-197.5 170.4-316.8 0-104.1-86-188.6-192-188.6S0 84.4 0 188.6zm114.8-7.4c0-42.6 34.6-77.2 77.2-77.2s77.2 34.6 77.2 77.2c0 45.5-34.5 64.7-53.7 71.8-2.3 10.8-11.9 19-23.5 19-13.3 0-24-10.7-24-24 0-20.2 14.6-34.6 29.5-39.5 6-2 12.3-5.1 16.8-9.5 3.9-3.8 6.9-9 6.9-17.7 0-16.1-13.1-29.2-29.2-29.2s-29.2 13.1-29.2 29.2c0 13.3-10.7 24-24 24s-24-10.7-24-24zM220 320a28 28 0 1 1 -56 0 28 28 0 1 1 56 0z"/><path fill="currentColor" d="M162.8 181.2c0-16.1 13.1-29.2 29.2-29.2s29.2 13.1 29.2 29.2c0 8.7-3.1 13.9-6.9 17.7-4.5 4.4-10.7 7.5-16.8 9.5-14.9 5-29.5 19.3-29.5 39.5 0 13.3 10.7 24 24 24 11.5 0 21.2-8.1 23.5-19 19.2-7.1 53.7-26.3 53.7-71.8 0-42.6-34.6-77.2-77.2-77.2s-77.2 34.6-77.2 77.2c0 13.3 10.7 24 24 24s24-10.7 24-24zM192 348a28 28 0 1 0 0-56 28 28 0 1 0 0 56z"/></svg>