<svg xmlns="http://www.w3.org/2000/svg" viewBox="0 0 576 512"><!--! Font Awesome Pro 7.1.0 by @fontawesome - https://fontawesome.com License - https://fontawesome.com/license (Commercial License) Copyright 2025 Fonticons, Inc. --><path opacity=".4" fill="currentColor" d="M320 96l0 64 64 0 0-64c0-35.3 28.7-64 64-64s64 28.7 64 64l0 32c0 17.7 14.3 32 32 32s32-14.3 32-32l0-32c0-70.7-57.3-128-128-128S320 25.3 320 96z"/><path fill="currentColor" d="M160 160c-35.3 0-64 28.7-64 64l0 224c0 35.3 28.7 64 64 64l256 0c35.3 0 64-28.7 64-64l0-224c0-35.3-28.7-64-64-64l-256 0zM328 360l-80 0c-13.3 0-24-10.7-24-24s10.7-24 24-24l80 0c13.3 0 24 10.7 24 24s-10.7 24-24 24z"/></svg>