<svg xmlns="http://www.w3.org/2000/svg" viewBox="0 0 640 512"><!--! Font Awesome Pro 7.1.0 by @fontawesome - https://fontawesome.com License - https://fontawesome.com/license (Commercial License) Copyright 2025 Fonticons, Inc. --><path opacity=".4" fill="currentColor" d="M0 456c0 13.3 10.7 24 24 24l296 0 6.5-.3c30.1-3.1 54.1-27 57.1-57.1l.3-6.5 0-208c0-79.5-64.5-144-144-144S96 128.5 96 208l0 224-72 0c-13.3 0-24 10.7-24 24zM144 208c0-53 43-96 96-96s96 43 96 96l0 208c0 8.8-7.2 16-16 16l-176 0 0-224z"/><path fill="currentColor" d="M480 64c88.4 0 160 71.6 160 160l0 192c0 35.3-28.7 64-64 64l-256 0c35.3 0 64-28.7 64-64l0-208c0-79.5-64.5-144-144-144l240 0zM440 208c-13.3 0-24 10.7-24 24s10.7 24 24 24l56 0 0 40c0 13.3 10.7 24 24 24l32 0c12.4 0 22.6-9.4 23.9-21.5l.1-2.5 0-64c0-12.4-9.4-22.6-21.5-23.9l-2.5-.1-112 0z"/></svg>