<svg xmlns="http://www.w3.org/2000/svg" viewBox="0 0 576 512"><!--! Font Awesome Pro 7.1.0 by @fontawesome - https://fontawesome.com License - https://fontawesome.com/license (Commercial License) Copyright 2025 Fonticons, Inc. --><path opacity=".4" fill="currentColor" d="M320 384l0 2.1c0 71.8 59.1 129.6 130.8 128 69.6-1.6 125.2-58.4 125.2-128l0-178.1-64 0 0 178.1c0 34.8-27.8 63.2-62.6 64-35.9 .8-65.4-28.1-65.4-64l0-2.1c0-17.7-14.3-32-32-32s-32 14.3-32 32zM512 64l0 96 64 0 0-96c0-17.7-14.3-32-32-32s-32 14.3-32 32z"/><path fill="currentColor" d="M384 64c35.3 0 64 28.7 64 64l0 96c0 35.3-28.7 64-64 64l-76.2 0c-21.9 0-42-12.4-51.8-32l-8.8-17.7c-4.4-8.8-13.4-14.3-23.2-14.3s-18.8 5.5-23.2 14.3L192 256c-9.8 19.6-29.9 32-51.8 32L64 288c-35.3 0-64-28.7-64-64l0-96C0 92.7 28.7 64 64 64l320 0zM576 208l-64 0 0-48 64 0 0 48z"/></svg>