<svg xmlns="http://www.w3.org/2000/svg" viewBox="0 0 640 512"><!--! Font Awesome Pro 7.1.0 by @fontawesome - https://fontawesome.com License - https://fontawesome.com/license (Commercial License) Copyright 2025 Fonticons, Inc. --><path opacity=".4" fill="currentColor" d="M0 192l0 81.3c0 61 43.1 113.5 102.9 125.5l66.3 13.3c-17.7-20.9-30.5-45.6-36.8-72.6l-17-3.4c-29.9-6-51.4-32.2-51.4-62.8l0-81.3 88.2 0c8.9-22 20-43.9 32.9-64L64 128c-35.3 0-64 28.7-64 64zM288 320l0 192 64 0 0-192c0-17.7-14.3-32-32-32s-32 14.3-32 32zM454.5 128c12.9 20.1 24.1 42 33 64l88.4 0 0 81.3c0 30.5-21.5 56.8-51.4 62.8l-17 3.4c-6.4 27.1-19.3 51.8-37.1 72.7l66.7-13.3c59.8-12 102.9-64.5 102.9-125.5l0-81.3c0-35.3-28.7-64-64-64l-121.5 0z"/><path fill="currentColor" d="M128 300.8c0-98.9 86-268.8 192-268.8 105 0 192 169.9 192 268.8 0 72.8-46.2 134.7-112 162.9l0-87.7c10.1-14.1 16-31.2 16-49.6 0-49.5-43.5-134.4-96-134.4-53 0-96 84.9-96 134.4 0 18.4 5.9 35.5 16 49.7l0 87.8c-66.4-28.2-112-90.7-112-163.1z"/></svg>