<svg xmlns="http://www.w3.org/2000/svg" viewBox="0 0 576 512"><!--! Font Awesome Pro 7.1.0 by @fontawesome - https://fontawesome.com License - https://fontawesome.com/license (Commercial License) Copyright 2025 Fonticons, Inc. --><path opacity=".4" fill="currentColor" d="M32 64C32 28.7 60.7 0 96 0L352 0c35.3 0 64 28.7 64 64l0 144.7c-98.6 8.1-176 90.7-176 191.3 0 41.8 13.4 80.5 36 112L96 512c-35.3 0-64-28.7-64-64L32 64zm96 88c0 13.3 10.7 24 24 24l144 0c13.3 0 24-10.7 24-24s-10.7-24-24-24l-144 0c-13.3 0-24 10.7-24 24zm0 96c0 13.3 10.7 24 24 24l64 0c13.3 0 24-10.7 24-24s-10.7-24-24-24l-64 0c-13.3 0-24 10.7-24 24zm0 96c0 13.3 10.7 24 24 24l32 0c13.3 0 24-10.7 24-24s-10.7-24-24-24l-32 0c-13.3 0-24 10.7-24 24z"/><path fill="currentColor" d="M288 400a144 144 0 1 1 288 0 144 144 0 1 1 -288 0zm164-64a20 20 0 1 0 -40 0 20 20 0 1 0 40 0zm-36 48c-8.8 0-16 7.2-16 16s7.2 16 16 16l0 0 0 32 0 0c-8.8 0-16 7.2-16 16s7.2 16 16 16l32 0c8.8 0 16-7.2 16-16s-7.2-16-16-16l0-48c0-8.8-7.2-16-16-16l-16 0z"/></svg>