<svg xmlns="http://www.w3.org/2000/svg" viewBox="0 0 576 512"><!--! Font Awesome Pro 7.1.0 by @fontawesome - https://fontawesome.com License - https://fontawesome.com/license (Commercial License) Copyright 2025 Fonticons, Inc. --><path opacity=".4" fill="currentColor" d="M32 128l0 224c0 53 43 96 96 96l32 0 0 72c0 13.3 10.7 24 24 24 5.2 0 10.2-1.7 14.4-4.8l115.2-86.4c4.2-3.1 9.2-4.8 14.4-4.8l120 0c53 0 96-43 96-96l0-153.3c-14.8 6-31 9.3-48 9.3-70.7 0-128-57.3-128-128 0-17 3.3-33.2 9.3-48L128 32c-53 0-96 43-96 96z"/><path fill="currentColor" d="M416 80a80 80 0 1 1 160 0 80 80 0 1 1 -160 0z"/></svg>