<svg xmlns="http://www.w3.org/2000/svg" viewBox="0 0 576 512"><!--! Font Awesome Pro 7.1.0 by @fontawesome - https://fontawesome.com License - https://fontawesome.com/license (Commercial License) Copyright 2025 Fonticons, Inc. --><path opacity=".4" fill="currentColor" d="M0 40L0 232c0 39.8 32.2 72 72 72l24 0 0 64c0 8.8 7.2 16 16 16l1.8 0c4 0 7.8-1.5 10.8-4.2L208 304 312 304c39.8 0 72-32.2 72-72l0-192c0-39.8-32.2-72-72-72L72-32C32.2-32 0 .2 0 40zM129.3 81.2c8.8-26.2 33.5-45.2 62.7-45.2 36.5 0 66.1 29.6 66.1 66.1 0 39.2-30 55.7-46.5 61.6-1.8 9.3-9.9 16.2-19.6 16.2-11 0-20-9-20-20 0-17.1 12.4-29.3 25-33.5 5.3-1.8 10.8-4.5 14.8-8.5 3.5-3.4 6.3-8.1 6.3-15.9 0-14.4-11.7-26.1-26.1-26.1-11.5 0-21.3 7.4-24.8 17.8-3.5 10.5-14.8 16.1-25.3 12.6s-16.1-14.8-12.6-25.3zM216 224a24 24 0 1 1 -48 0 24 24 0 1 1 48 0z"/><path fill="currentColor" d="M192 76c14.4 0 26.1 11.7 26.1 26.1 0 7.8-2.8 12.5-6.3 15.9-4 3.9-9.5 6.7-14.8 8.5-12.7 4.2-25 16.4-25 33.5 0 11 9 20 20 20 9.8 0 17.9-7 19.6-16.2 16.4-5.9 46.5-22.4 46.5-61.6 0-36.5-29.6-66.1-66.1-66.1-29.2 0-54 18.9-62.7 45.2-3.5 10.5 2.2 21.8 12.6 25.3s21.8-2.2 25.3-12.6C170.7 83.4 180.5 76 192 76zm24 148a24 24 0 1 0 -48 0 24 24 0 1 0 48 0zM192 383.4l0 8.6c0 39.8 32.2 72 72 72l104 0 83.4 75.8c2.9 2.7 6.8 4.2 10.8 4.2l1.8 0c8.8 0 16-7.2 16-16l0-64 24 0c39.8 0 72-32.2 72-72l0-192c0-39.8-32.2-72-72-72l-72 0 0 104c0 66.3-53.7 120-120 120l-85.4 0-34.6 31.4z"/></svg>