<svg xmlns="http://www.w3.org/2000/svg" viewBox="0 0 576 512"><!--! Font Awesome Pro 7.1.0 by @fontawesome - https://fontawesome.com License - https://fontawesome.com/license (Commercial License) Copyright 2025 Fonticons, Inc. --><path opacity=".4" fill="currentColor" d="M0 152L0 416c0 35.3 28.7 64 64 64l392 0c13.3 0 24-10.7 24-24s-10.7-24-24-24L64 432c-8.8 0-16-7.2-16-16l0-264c0-13.3-10.7-24-24-24S0 138.7 0 152zm160 8l0 96c35.3 0 64 28.7 64 64l224 0c0-35.3 28.7-64 64-64l0-96c-35.3 0-64-28.7-64-64L224 96c0 35.3-28.7 64-64 64zm256 48a80 80 0 1 1 -160 0 80 80 0 1 1 160 0z"/><path fill="currentColor" d="M224 96c0 35.3-28.7 64-64 64l0 96c35.3 0 64 28.7 64 64l224 0c0-35.3 28.7-64 64-64l0-96c-35.3 0-64-28.7-64-64L224 96zM96 96c0-35.3 28.7-64 64-64l352 0c35.3 0 64 28.7 64 64l0 224c0 35.3-28.7 64-64 64l-352 0c-35.3 0-64-28.7-64-64L96 96z"/></svg>