<svg xmlns="http://www.w3.org/2000/svg" viewBox="0 0 512 512"><!--! Font Awesome Pro 7.1.0 by @fontawesome - https://fontawesome.com License - https://fontawesome.com/license (Commercial License) Copyright 2025 Fonticons, Inc. --><path opacity=".4" fill="currentColor" d="M96 224a32 32 0 1 0 64 0 32 32 0 1 0 -64 0zM143.2 81.2c12.6 27.6 40.5 46.8 72.8 46.8 42.9 0 77.9-33.8 79.9-76.2-12.9-2.5-26.3-3.8-39.9-3.8-41.6 0-80.3 12.2-112.8 33.2zm24.5 360.5c-4 19.8 11.2 38.3 31.4 38.3L313 480c20.2 0 35.3-18.5 31.4-38.3L320 320 192 320 167.7 441.7zM320 208a48 48 0 1 0 96 0 48 48 0 1 0 -96 0z"/><path fill="currentColor" d="M512 256C512 114.6 397.4 0 256 0S0 114.6 0 256c0 35.3 28.7 64 64 64l384 0c35.3 0 64-28.7 64-64zM128 192a32 32 0 1 1 0 64 32 32 0 1 1 0-64zm192 16a48 48 0 1 1 96 0 48 48 0 1 1 -96 0zM256 48c13.7 0 27 1.3 39.9 3.8-2 42.4-37 76.2-79.9 76.2-32.3 0-60.2-19.2-72.8-46.8 32.5-21 71.2-33.2 112.8-33.2z"/></svg>