<svg xmlns="http://www.w3.org/2000/svg" viewBox="0 0 384 512"><!--! Font Awesome Pro 7.1.0 by @fontawesome - https://fontawesome.com License - https://fontawesome.com/license (Commercial License) Copyright 2025 Fonticons, Inc. --><path opacity=".4" fill="currentColor" d="M192 64l0 249.2c37.8 15.4 64 48.5 64 86.8l0-215 103.8-25.9c14.2-3.6 24.2-16.4 24.2-31l0-96c0-9.9-4.5-19.2-12.3-25.2S353.8-1.4 344.2 1l-128 32C202 36.5 192 49.3 192 64z"/><path fill="currentColor" d="M256 400c0 53-50.1 96-112 96s-112-43-112-96 50.1-96 112-96 112 43 112 96z"/></svg>