<svg xmlns="http://www.w3.org/2000/svg" viewBox="0 0 576 512"><!--! Font Awesome Pro 7.1.0 by @fontawesome - https://fontawesome.com License - https://fontawesome.com/license (Commercial License) Copyright 2025 Fonticons, Inc. --><path opacity=".4" fill="currentColor" d="M32.3 392c0 35.1 11.3 73.3 31 103 7.5 11.4 20.9 17 34.6 17l148.4 0c-8.2-18.6-9.4-40.5-.9-61.7l7.6-18.9 1.5-4.3c1.3-4.4 1.9-8.9 1.9-13.5l0-61.5c0-28.8 7-56 19.2-80L97.8 272c-13.7 0-27 5.6-34.6 17-19.6 29.7-31 67.9-31 103zm64-264l0 96 215.3 0c12.1-11.4 25.8-21.1 40.7-28.8l0-67.2c0-70.7-57.3-128-128-128s-128 57.3-128 128zm48-16l21.5 0c17 0 33.3-6.8 45.2-18.8L224.3 80 237.5 93.2c12 12 28.3 18.7 45.2 18.8l21.5 0c0 44.2-35.8 80-80 80-41.4 0-75.5-31.5-79.6-71.8l-.4-8.2z"/><path fill="currentColor" d="M432.2 224c70.7 0 128 57.3 128 128l0 61.5c0 12.2 2.3 24.3 6.9 35.7l7.6 19c8.4 21-7.1 43.9-29.7 43.9l-225.5 0c-22.6 0-38.1-22.9-29.7-43.9l7.6-19c4.5-11.3 6.9-23.4 6.9-35.7l0-61.5c0-70.7 57.3-128 128-128zM419 333.3c-12 12-28.3 18.7-45.3 18.7l-19.9 0c-1 5.2-1.6 10.5-1.6 16 0 44.2 35.8 80 80 80s80-35.8 80-80c0-5.5-.5-10.8-1.6-16l-19.9 0c-17 0-33.3-6.8-45.3-18.7L432.2 320 419 333.3z"/></svg>