<svg xmlns="http://www.w3.org/2000/svg" viewBox="0 0 448 512"><!--! Font Awesome Pro 7.1.0 by @fontawesome - https://fontawesome.com License - https://fontawesome.com/license (Commercial License) Copyright 2025 Fonticons, Inc. --><path opacity=".4" fill="currentColor" d="M0 160c0-17.7 14.3-32 32-32l238.9 0-42.7 64-196.2 0c-17.7 0-32-14.3-32-32zM0 352c0-17.7 14.3-32 32-32l110.9 0-42.7 64-68.2 0c-17.7 0-32-14.3-32-32zm177.1 32l42.7-64 196.2 0c17.7 0 32 14.3 32 32s-14.3 32-32 32l-238.9 0zm128-192l42.7-64 68.2 0c17.7 0 32 14.3 32 32s-14.3 32-32 32l-110.9 0z"/><path fill="currentColor" d="M369.8 37.4c14.7 9.8 18.7 29.7 8.9 44.4l-256 384c-9.8 14.7-29.7 18.7-44.4 8.9S59.6 445 69.4 430.2l256-384c9.8-14.7 29.7-18.7 44.4-8.9z"/></svg>