<svg xmlns="http://www.w3.org/2000/svg" viewBox="0 0 448 512"><!--! Font Awesome Pro 7.0.1 by @fontawesome - https://fontawesome.com License - https://fontawesome.com/license (Commercial License) Copyright 2025 Fonticons, Inc. --><path style="fill:var(--fa-secondary-color,currentColor);opacity:var(--fa-secondary-opacity,.4)" d="M256 80l0 32c0 26.5 21.5 48 48 48l96 0c26.5 0 48-21.5 48-48l0-32c0-26.5-21.5-48-48-48l-96 0c-26.5 0-48 21.5-48 48zm0 192l0 160c0 26.5 21.5 48 48 48l96 0c26.5 0 48-21.5 48-48l0-160c0-26.5-21.5-48-48-48l-96 0c-26.5 0-48 21.5-48 48z"/><path style="fill:var(--fa-primary-color,currentColor);opacity:var(--fa-primary-opacity,1)" d="M48 32C21.5 32 0 53.5 0 80L0 240c0 26.5 21.5 48 48 48l96 0c26.5 0 48-21.5 48-48l0-160c0-26.5-21.5-48-48-48L48 32zm0 320c-26.5 0-48 21.5-48 48l0 32c0 26.5 21.5 48 48 48l96 0c26.5 0 48-21.5 48-48l0-32c0-26.5-21.5-48-48-48l-96 0z"/></svg>