<svg xmlns="http://www.w3.org/2000/svg" viewBox="0 0 512 512"><!--! Font Awesome Pro 7.0.1 by @fontawesome - https://fontawesome.com License - https://fontawesome.com/license (Commercial License) Copyright 2025 Fonticons, Inc. --><path style="fill:var(--fa-secondary-color,currentColor);opacity:var(--fa-secondary-opacity,.4)" d="M0 112l0 64c0 26.5 21.5 48 48 48l288 0c26.5 0 48-21.5 48-48l0-64c0-26.5-21.5-48-48-48L48 64C21.5 64 0 85.5 0 112zM128 336l0 64c0 26.5 21.5 48 48 48l160 0c26.5 0 48-21.5 48-48l0-64c0-26.5-21.5-48-48-48l-160 0c-26.5 0-48 21.5-48 48z"/><path style="fill:var(--fa-primary-color,currentColor);opacity:var(--fa-primary-opacity,1)" d="M480 0c17.7 0 32 14.3 32 32l0 448c0 17.7-14.3 32-32 32s-32-14.3-32-32l0-448c0-17.7 14.3-32 32-32z"/></svg>