<svg xmlns="http://www.w3.org/2000/svg" viewBox="0 0 640 512"><!--! Font Awesome Pro 7.1.0 by @fontawesome - https://fontawesome.com License - https://fontawesome.com/license (Commercial License) Copyright 2025 Fonticons, Inc. --><path opacity=".4" fill="currentColor" d="M192 320c0 106 64.5 192 144 192s144-86 144-192-64.5-192-144-192-144 86-144 192zM427.2 128.1c13.6 10.4 25.7 22.9 36.2 36.9 30.6 40.8 48.6 95.7 48.6 155 0 57.8-17.1 111.4-46.3 151.8 52.9 16.5 105.5 8.4 139.6-27 56.2-58.3 41-168.6-33.9-246.4-42.9-44.5-96.1-68.7-144.2-70.3z"/><path fill="currentColor" d="M128 0C59 0 13.8 41.6 2.7 53.1 .9 55 0 57.4 0 60s.9 5 2.7 6.9C11.3 75.8 40.4 102.8 85.2 114.5 34.5 141.4 0 194.6 0 256l0 16c0 8.8 7.2 16 16 16l16 0c86.6 0 157.1-68.7 159.9-154.6L326.4 70.1C357.3 55.5 391.1 48 425.2 48L616 48c13.3 0 24-10.7 24-24S629.3 0 616 0L425.2 0C384 0 343.3 9.1 306 26.7L252.2 52C239.4 39.1 194.9 0 128 0z"/></svg>