<svg xmlns="http://www.w3.org/2000/svg" viewBox="0 0 448 512"><!--! Font Awesome Pro 7.1.0 by @fontawesome - https://fontawesome.com License - https://fontawesome.com/license (Commercial License) Copyright 2025 Fonticons, Inc. --><path opacity=".4" fill="currentColor" d="M2.6 34c.6 10 1.3 20 1.9 30l100 0c13.3 0 24 10.7 24 24s-10.7 24-24 24l-97 0c7.7 123.3 15.4 246.7 23.1 370 1.1 16.9 15 30 31.9 30l105.9 0c17.7 0 32-14.3 32-32l0-264c0-13.3 10.7-24 24-24s24 10.7 24 24l0 264c0 17.7 14.3 32 32 32l105.9 0c16.9 0 30.9-13.1 31.9-30 7.7-123.3 15.4-246.7 23.1-370l-97 0c-13.3 0-24-10.7-24-24s10.7-24 24-24l100 0c.6-10 1.3-20 1.9-30 1.2-18.4-13.5-34-31.9-34L34.5 0C16 0 1.4 15.6 2.6 34z"/><path fill="currentColor" d="M444.4 64l-100 0c-13.3 0-24 10.7-24 24s10.7 24 24 24l97 0 3-48zM7.4 112l97 0c13.3 0 24-10.7 24-24s-10.7-24-24-24l-100 0 3 48z"/></svg>