<svg xmlns="http://www.w3.org/2000/svg" viewBox="0 0 512 512"><!--! Font Awesome Pro 7.1.0 by @fontawesome - https://fontawesome.com License - https://fontawesome.com/license (Commercial License) Copyright 2025 Fonticons, Inc. --><path opacity=".4" fill="currentColor" d="M9.7 454.6C30.7 345.7 51.6 236.9 72.5 128l63.9 0c13.3 0 24-10.7 24-24s-10.7-24-24-24L81.8 80c.1-.7 .3-1.4 .4-2.1l8.7-45.4C94.5 13.6 111 0 130.2 0L382.7 0c19.2 0 35.7 13.6 39.3 32.4l8.7 45.4 .4 2.1-54.7 0c-13.3 0-24 10.7-24 24s10.7 24 24 24l63.9 0c20.9 108.9 41.9 217.7 62.8 326.6 4.2 21.7-10 42.7-31.7 46.8l-110 21.2c-21.7 4.2-42.7-10-46.8-31.7L257.3 192.7c-.1-.4-.4-.7-.8-.7s-.8 .3-.8 .7L198.3 490.8c-4.2 21.7-25.1 35.9-46.8 31.7l-110-21.2c-21.7-4.2-35.9-25.1-31.7-46.8z"/><path fill="currentColor" d="M72.5 128l9.2-48 54.7 0c13.3 0 24 10.7 24 24s-10.7 24-24 24l-63.9 0zM431.1 80l9.2 48-63.9 0c-13.3 0-24-10.7-24-24s10.7-24 24-24l54.7 0z"/></svg>