<svg xmlns="http://www.w3.org/2000/svg" viewBox="0 0 384 512"><!--! Font Awesome Pro 7.1.0 by @fontawesome - https://fontawesome.com License - https://fontawesome.com/license (Commercial License) Copyright 2025 Fonticons, Inc. --><path opacity=".4" fill="currentColor" d="M0 64L0 448c0 35.3 28.7 64 64 64l256 0c35.3 0 64-28.7 64-64l0-384c0-35.3-28.7-64-64-64L64 0C28.7 0 0 28.7 0 64zM320 192a128 128 0 1 1 -256 0 128 128 0 1 1 256 0zM96 408c0-13.3 10.7-24 24-24l144 0c13.3 0 24 10.7 24 24s-10.7 24-24 24l-144 0c-13.3 0-24-10.7-24-24zm9.5-232l31.6 0c1.4-23.1 6-44.2 12.6-61.2-22.7 12.5-39.4 34.8-44.2 61.2zm0 32c4.8 26.4 21.5 48.7 44.2 61.2-6.7-17-11.2-38-12.6-61.2l-31.6 0zm63.6-32l45.8 0c-1.6-22.5-6.5-41.6-12.7-55-4.5-9.6-8.2-13.8-10.2-15.5-2 1.7-5.7 5.8-10.2 15.5-6.2 13.4-11.1 32.5-12.7 55zm0 32c1.6 22.5 6.5 41.6 12.7 55 4.5 9.6 8.2 13.8 10.2 15.5 2-1.7 5.7-5.8 10.2-15.5 6.2-13.4 11.1-32.5 12.7-55l-45.8 0zm65.3-93.2c6.7 17 11.2 38 12.6 61.2l31.6 0c-4.8-26.4-21.5-48.7-44.2-61.2zm0 154.3c22.7-12.5 39.4-34.8 44.2-61.2L247 208c-1.4 23.1-6 44.2-12.6 61.2z"/><path fill="currentColor" d="M234.3 269.2c6.7-17 11.2-38 12.6-61.2l31.6 0c-4.8 26.4-21.5 48.7-44.2 61.2zm-84.7 0c-22.7-12.5-39.4-34.8-44.2-61.2l31.6 0c1.4 23.1 6 44.2 12.6 61.2zM169.1 208l45.8 0c-1.6 22.5-6.5 41.6-12.7 55-4.5 9.6-8.2 13.8-10.2 15.5-2-1.7-5.7-5.8-10.2-15.5-6.2-13.4-11.1-32.5-12.7-55zm45.8-32l-45.8 0c1.6-22.5 6.5-41.6 12.7-55 4.5-9.6 8.2-13.8 10.2-15.5 2 1.7 5.7 5.8 10.2 15.5 6.2 13.4 11.1 32.5 12.7 55zm32.1 0c-1.4-23.1-6-44.2-12.6-61.2 22.7 12.5 39.4 34.8 44.2 61.2L247 176zm-97.3-61.2c-6.7 17-11.2 38-12.6 61.2l-31.6 0c4.8-26.4 21.5-48.7 44.2-61.2zM192 320a128 128 0 1 0 0-256 128 128 0 1 0 0 256z"/></svg>