<svg xmlns="http://www.w3.org/2000/svg" viewBox="0 0 512 512"><!--! Font Awesome Pro 7.1.0 by @fontawesome - https://fontawesome.com License - https://fontawesome.com/license (Commercial License) Copyright 2025 Fonticons, Inc. --><path opacity=".4" fill="currentColor" d="M56.2 184.2c-75 75-75 196.5 0 271.5s196.5 75 271.5 0c25.1-25.1 41.8-55.3 50.1-87.3 11.8-45.7 43.4-90.9 73.3-127.4 18-22.1 28.9-50.3 28.9-81 0-26.7-8.2-51.4-22.1-71.9-11 11-21.9 21.9-32.9 32.9-9.4 9.4-24.6 9.4-33.9 0s-9.4-24.6 0-33.9c11-11 21.9-21.9 32.9-32.9-20.5-14-45.3-22.1-71.9-22.1-30.7 0-58.9 10.8-81 28.9-36.5 29.9-81.8 61.4-127.4 73.3-32 8.3-62.3 25-87.3 50.1zM160 424c0-13.3 10.7-24 24-24 48.6 0 88-39.4 88-88 0-13.3 10.7-24 24-24s24 10.7 24 24c0 75.1-60.9 136-136 136-13.3 0-24-10.7-24-24z"/><path fill="currentColor" d="M505 7c9.4 9.4 9.4 24.6 0 33.9l-80 80c-9.4 9.4-24.6 9.4-33.9 0s-9.4-24.6 0-33.9L471 7c9.4-9.4 24.6-9.4 33.9 0z"/></svg>