<svg xmlns="http://www.w3.org/2000/svg" viewBox="0 0 512 512"><!--! Font Awesome Pro 7.1.0 by @fontawesome - https://fontawesome.com License - https://fontawesome.com/license (Commercial License) Copyright 2025 Fonticons, Inc. --><path opacity=".4" fill="currentColor" d="M291 83c16.6 16.6 51.3 51.3 104 104L429 221c20.6-20.6 41.2-41.2 61.9-61.9 13.6-13.6 21.2-31.9 21.2-51.1s-7.6-37.6-21.2-51.1L455.1 21.2C441.6 7.6 423.2 0 404 0s-37.6 7.6-51.1 21.2C332.3 41.8 311.6 62.4 291 83z"/><path fill="currentColor" d="M82.6 366.6l-24.1 86.9 86.9-24.1c6.5-1.8 12.5-5.3 17.3-10L92.2 349.8c-4.5 4.8-7.8 10.6-9.6 16.9zM257.1 117L291 83c16.6 16.6 51.3 51.3 104 104L429 221 395 254.9 196.9 453.1c-10.7 10.7-24.1 18.5-38.7 22.6L30.4 511.1c-8.3 2.3-17.3 0-23.4-6.2s-8.5-15.1-6.2-23.4L36.4 353.8c4.1-14.6 11.8-27.9 22.6-38.7L257.1 117z"/></svg>