<svg xmlns="http://www.w3.org/2000/svg" viewBox="0 0 640 512"><!--! Font Awesome Pro 7.1.0 by @fontawesome - https://fontawesome.com License - https://fontawesome.com/license (Commercial License) Copyright 2025 Fonticons, Inc. --><path opacity=".4" fill="currentColor" d="M12.8 392.7c-8 10.6-5.9 25.6 4.7 33.6 19.1 14.4 39.4 21 59.8 21.1 33.9 .2 64.3-17.4 88.1-35.3 21.3-16.1 49.9-16.1 71.2 0 24.2 18.3 52.3 35.9 83.4 35.9s59.1-17.7 83.4-35.9c21.3-16.1 49.9-16.1 71.2 0 19 14.4 41.9 28.2 67.2 33.3 26.5 5.4 54.3 .8 80.7-19.1 10.6-8 12.7-23 4.7-33.6s-23-12.7-33.6-4.7c-14.9 11.2-28.6 13.1-42.3 10.3-14.9-3-30.9-11.9-47.8-24.6-38.4-29-90.5-29-129 0-24 18.1-40.7 26.3-54.5 26.3s-30.5-8.2-54.5-26.3c-38.4-29-90.5-29-129 0-21.6 16.3-41.3 25.8-58.9 25.7-9.6-.1-19.9-3-31.2-11.5-10.6-8-25.6-5.9-33.6 4.7z"/><path fill="currentColor" d="M320 144a56 56 0 1 0 0-112 56 56 0 1 0 0 112zM174.4 85.9c-5.6-16.8-23.7-25.8-40.5-20.2s-25.8 23.7-20.2 40.5l10.9 32.8c16.7 50 58.6 87.3 110.2 98l-20.2 67.2c30.9 1.1 61.6 11.5 87.8 31.3 22.1 16.6 29.1 16.6 51.2 0 5.8-4.3 11.7-8.2 17.9-11.7L398 235.4c8.7-1.8 17.3-4.1 25.7-6.9l114.4-38.1c16.8-5.6 25.8-23.7 20.2-40.5s-23.7-25.8-40.5-20.2L403.4 167.8c-16.3 5.4-33.4 8.2-50.6 8.2l-88 0c-5.7 0-11.5-.6-17.1-1.8-29.2-6.1-53-27.3-62.5-55.6L174.4 85.9z"/></svg>