<svg xmlns="http://www.w3.org/2000/svg" viewBox="0 0 512 512"><!--! Font Awesome Pro 7.1.0 by @fontawesome - https://fontawesome.com License - https://fontawesome.com/license (Commercial License) Copyright 2025 Fonticons, Inc. --><path opacity=".4" fill="currentColor" d="M2.4 210.4l65 135.8c18.3 38.4 61.5 58.1 102.5 46.9l36.5-9.9c12.8-3.5 20.3-16.7 16.8-29.5s-16.7-20.3-29.5-16.8l-36.5 9.9c-18.7 5.1-38.3-3.9-46.6-21.3l-65-135.8c-5.7-12-20-17-32-11.3s-17 20-11.3 32zm95.1 286c4.6 12.4 18.4 18.8 30.8 14.2L459.7 388c31.4-11.6 52.3-41.6 52.3-75l0-1c0-13.3-10.7-24-24-24s-24 10.7-24 24l0 1c0 13.4-8.3 25.4-20.9 30-191 70.6-212.8 78.6-331.4 122.5-12.4 4.6-18.8 18.4-14.2 30.8zM224 16l0 190.8 32-8.5 0-182.3c0-8.8-7.2-16-16-16s-16 7.2-16 16z"/><path fill="currentColor" d="M64 80a48 48 0 1 1 96 0 48 48 0 1 1 -96 0zm36.4 138c-14.2-30.8 8.3-66 42.2-66 18.2 0 34.8 10.7 42.3 27.3l28.8 63.4 55.9-14.9c25.4-6.8 50.3 12.4 50.3 38.6l0 122.1-64 23.7 0-114.5-66.7 17.8c-22.6 6-46.2-5.1-55.9-26.3L100.4 218z"/></svg>