<svg xmlns="http://www.w3.org/2000/svg" viewBox="0 0 512 512"><!--! Font Awesome Pro 7.1.0 by @fontawesome - https://fontawesome.com License - https://fontawesome.com/license (Commercial License) Copyright 2025 Fonticons, Inc. --><path opacity=".4" fill="currentColor" d="M2.7 531c6.1 11.8 20.6 16.4 32.3 10.3L455.8 323.7c34.5-17.9 56.2-53.5 56.2-92.4l0-7.3c0-13.3-10.7-24-24-24s-24 10.7-24 24l0 7.3c0 20.9-11.7 40.1-30.3 49.7-397.1 205.4-293.4 151.8-420.8 217.6-11.8 6.1-16.4 20.6-10.3 32.3z"/><path fill="currentColor" d="M352 40a56 56 0 1 1 112 0 56 56 0 1 1 -112 0zM112 128c0-17.7 14.3-32 32-32l169.4 0c42.8 0 64.2 51.7 33.9 81.9l-131.8 131.8-15.4 92.1-71 36.7 27.9-167.6c3.3-19.7 12.7-38 26.8-52.1l58.9-58.9-98.7 0c-17.7 0-32-14.3-32-32z"/></svg>