<svg xmlns="http://www.w3.org/2000/svg" viewBox="0 0 576 512"><!--! Font Awesome Pro 7.1.0 by @fontawesome - https://fontawesome.com License - https://fontawesome.com/license (Commercial License) Copyright 2025 Fonticons, Inc. --><path opacity=".4" fill="currentColor" d="M0 80C0 62.3 14.3 48 32 48l32 0c82.3 0 152.4 51.7 179.8 124.4-17.7 10.8-31.4 28.1-37.4 49.1L171.7 343.2c-5.8 20.4 9.5 40.8 30.8 40.8l21.6 0 0 4.7c-23.5 26.6-57.8 43.3-96 43.3l-32 0c-17.7 0-32-14.3-32-32l0-16c0-39.5 17.9-74.8 46-98.3-65-30.7-110-97-110-173.7L0 80zm332.2 92.4C359.6 99.7 429.7 48 512 48l32 0c17.7 0 32 14.3 32 32l0 32c0 76.7-45 142.9-110 173.7 28.1 23.5 46 58.8 46 98.3l0 16c0 17.7-14.3 32-32 32l-32 0c-38.2 0-72.5-16.8-96-43.3l0-4.7 21.6 0c21.3 0 36.6-20.3 30.8-40.8L369.6 221.5c-6-21-19.6-38.3-37.4-49.1z"/><path fill="currentColor" d="M224 64a64 64 0 1 1 128 0 64 64 0 1 1 -128 0zM206.4 221.5C216.8 185.1 250.1 160 288 160s71.2 25.1 81.6 61.5l34.8 121.7c5.8 20.4-9.5 40.8-30.8 40.8l-21.6 0 0 80c0 26.5-21.5 48-48 48l-32 0c-26.5 0-48-21.5-48-48l0-80-21.6 0c-21.3 0-36.6-20.3-30.8-40.8l34.8-121.7z"/></svg>