<svg xmlns="http://www.w3.org/2000/svg" viewBox="0 0 512 512"><!--! Font Awesome Pro 7.1.0 by @fontawesome - https://fontawesome.com License - https://fontawesome.com/license (Commercial License) Copyright 2025 Fonticons, Inc. --><path opacity=".4" fill="currentColor" d="M2.7 236.9c6.1-11.8 20.6-16.3 32.4-10.2 506 262.7 291.6 151.4 383.4 199.1 13.6 7.1 29.8 7.2 43.6 .3l15.2-7.6c11.9-5.9 26.3-1.1 32.2 10.7s1.1 26.3-10.7 32.2l-15.2 7.6c-27.5 13.7-59.9 13.5-87.2-.7L12.9 269.3C1.2 263.2-3.4 248.7 2.7 236.9z"/><path fill="currentColor" d="M400 32a48 48 0 1 1 0 96 48 48 0 1 1 0-96zM361 196.3L301.3 256 336 256c26.5 0 48 21.5 48 48l0 80c0 7.6-2.7 14.7-7.2 20.2l-56.8-29.5 0-54.6-105.3 0-43.8-22.7c-12.2-20.2-9.8-48.8 13.8-64.9l59.2-40.3-84 0c-17.7 0-32-14.3-32-32s14.3-32 32-32l172.7 0c35.6 0 53.5 43.1 28.3 68.3z"/></svg>