<svg xmlns="http://www.w3.org/2000/svg" viewBox="0 0 640 512"><!--! Font Awesome Pro 7.1.0 by @fontawesome - https://fontawesome.com License - https://fontawesome.com/license (Commercial License) Copyright 2025 Fonticons, Inc. --><path opacity=".4" fill="currentColor" d="M0 384c0 11.3 7.9 20.8 18.4 23.4 2.9 13.6 8.2 26.3 15.6 37.6-5.7 9.3-4.6 21.5 3.5 29.6S57.8 483.7 67 478c11.3 7.3 24 12.7 37.6 15.6 2.5 10.6 12 18.4 23.4 18.4s20.8-7.9 23.4-18.4c13.6-2.9 26.3-8.2 37.6-15.6 9.3 5.7 21.5 4.6 29.6-3.5s9.2-20.3 3.5-29.6c7.3-11.3 12.7-24 15.6-37.6 10.6-2.5 18.4-12 18.4-23.4s-7.9-20.8-18.4-23.4c-2.9-13.6-8.2-26.3-15.6-37.6 5.7-9.3 4.6-21.5-3.5-29.6s-20.3-9.2-29.6-3.5c-11.3-7.3-24-12.7-37.6-15.6-2.5-10.6-12-18.4-23.4-18.4s-20.8 7.9-23.4 18.4c-13.6 2.9-26.3 8.2-37.6 15.6-9.3-5.7-21.5-4.6-29.6 3.5S28.3 313.8 34 323C26.7 334.3 21.3 347 18.4 360.6 7.9 363.2 0 372.7 0 384zm192 0a64 64 0 1 1 -128 0 64 64 0 1 1 128 0zm192 0c0 11.3 7.9 20.8 18.4 23.4 2.9 13.6 8.2 26.3 15.6 37.6-5.7 9.3-4.6 21.5 3.5 29.6s20.3 9.2 29.6 3.5c11.3 7.3 24 12.7 37.6 15.6 2.5 10.6 12 18.4 23.4 18.4s20.8-7.9 23.4-18.4c13.6-2.9 26.3-8.2 37.6-15.6 9.3 5.7 21.5 4.6 29.6-3.5s9.2-20.3 3.5-29.6c7.3-11.3 12.7-24 15.6-37.6 10.6-2.5 18.4-12 18.4-23.4s-7.9-20.8-18.4-23.4c-2.9-13.6-8.2-26.3-15.6-37.6 5.7-9.3 4.6-21.5-3.5-29.6s-20.3-9.2-29.6-3.5c-11.3-7.3-24-12.7-37.6-15.6-2.5-10.6-12-18.4-23.4-18.4s-20.8 7.9-23.4 18.4c-13.6 2.9-26.3 8.2-37.6 15.6-9.3-5.7-21.5-4.6-29.6 3.5s-9.2 20.3-3.5 29.6c-7.3 11.3-12.7 24-15.6 37.6-10.6 2.5-18.4 12-18.4 23.4zm192 0a64 64 0 1 1 -128 0 64 64 0 1 1 128 0z"/><path fill="currentColor" d="M400 0a48 48 0 1 1 0 96 48 48 0 1 1 0-96zM365.4 111.2l61.8 48.8 52.8 0c17.7 0 32 14.3 32 32s-14.3 32-32 32l-64 0c-7.3 0-14.3-2.5-20-7l-40.7-32.6-60.3 48.5 42.7 28.5c8.9 5.9 14.2 15.9 14.2 26.6l0 128c0 17.7-14.3 32-32 32s-32-14.3-32-32l0-110.9-60.5-38.4c-32.8-20.8-35-67.9-4.3-91.6l83.1-64.2c17.4-13.5 41.8-13.3 59.1 .3z"/></svg>