<svg xmlns="http://www.w3.org/2000/svg" viewBox="0 0 512 512"><!--! Font Awesome Pro 7.1.0 by @fontawesome - https://fontawesome.com License - https://fontawesome.com/license (Commercial License) Copyright 2025 Fonticons, Inc. --><path opacity=".4" fill="currentColor" d="M32 400l0 48c0 17.7 14.3 32 32 32s32-14.3 32-32l0-48c0-32.5 12.1-62.1 32-84.7l0 196.7 160 0 0-293.1c-20-7.1-41.6-10.9-64-10.9-106 0-192 86-192 192zM136 88a72 72 0 1 0 144 0 72 72 0 1 0 -144 0z"/><path fill="currentColor" d="M400 0l16 0c8.8 0 16 7.2 16 16l0 116.3c9.6 5.5 16 15.9 16 27.7l0 109.3 16-5.3 0-56c0-8.8 7.2-16 16-16l16 0c8.8 0 16 7.2 16 16l0 84.5c0 6.9-4.4 13-10.9 15.2l-53.1 17.7 0 26.7 48 0c8.8 0 16 7.2 16 16l0 16c0 8.8-7.2 16-16 16l-44 0 23 92.1c2.5 10.1-5.1 19.9-15.5 19.9L400 512c-8.8 0-16-7.2-16-16l0-96-16 0c-17.7 0-32-14.3-32-32l0-144c0-17.7 14.3-32 32-32l0-32c0-11.8 6.4-22.2 16-27.7L384 32c-8.8 0-16-7.2-16-16s7.2-16 16-16l16 0z"/></svg>