<svg xmlns="http://www.w3.org/2000/svg" viewBox="0 0 576 512"><!--! Font Awesome Pro 7.1.0 by @fontawesome - https://fontawesome.com License - https://fontawesome.com/license (Commercial License) Copyright 2025 Fonticons, Inc. --><path opacity=".4" fill="currentColor" d="M10.5 181.3c5.9-11.9 20.3-16.7 32.2-10.7 8.2 4.1 16.4 8.2 24.6 12.3 180 90 289.1 144.5 327.4 163.7l25.8-43c5.8-9.6 16.2-15.5 27.4-15.5s21.7 5.9 27.4 15.5l96 160c5.9 9.9 6.1 22.2 .4 32.2S555.5 512 544 512l-192 0c-11.5 0-22.2-6.2-27.8-16.2s-5.5-22.3 .4-32.2L370 387.8 21.3 213.5c-11.9-5.9-16.7-20.3-10.7-32.2z"/><path fill="currentColor" d="M208 40a56 56 0 1 1 112 0 56 56 0 1 1 -112 0zM61.3 290.9c8.8 4.4 57.2 28.6 145 72.5 10.8 5.4 17.7 16.5 17.7 28.6l0 88c0 17.7-14.3 32-32 32s-32-14.3-32-32l0-68.2-61.3-30.7-36.3 109c-5.6 16.8-23.7 25.8-40.5 20.2S-3.9 486.6 1.7 469.9C39.7 355.7 59.6 296 61.3 290.9zm6.1-108l12.2-20.4c18.9-31.5 53.2-50.5 89.6-50.5 46.2 0 87.7 30.5 100.5 75.4L301.9 300.1 67.4 182.9z"/></svg>