<svg xmlns="http://www.w3.org/2000/svg" viewBox="0 0 448 512"><!--! Font Awesome Pro 7.1.0 by @fontawesome - https://fontawesome.com License - https://fontawesome.com/license (Commercial License) Copyright 2025 Fonticons, Inc. --><path opacity=".4" fill="currentColor" d="M32 152c0-13.3 10.7-24 24-24l24 0 0 48-24 0c-13.3 0-24-10.7-24-24zm0 80c0-13.3 10.7-24 24-24l24 0 0 48-24 0c-13.3 0-24-10.7-24-24zM144 128l167.6 0c11.8 13.2 20.1 29.7 23.1 48l-190.7 0 0-48zm0 80l190.7 0c-3.1 18.3-11.3 34.8-23.1 48l-167.6 0 0-48zm242.7-80l37.3 0c13.3 0 24 10.7 24 24s-10.7 24-24 24l-24.8 0c-1.7-16.9-6-33.1-12.5-48zm0 128c6.5-14.9 10.8-31.1 12.5-48l24.8 0c13.3 0 24 10.7 24 24s-10.7 24-24 24l-37.3 0z"/><path fill="currentColor" d="M80 64c0-17.7 14.3-32 32-32l128 0c88.4 0 160 71.6 160 160S328.4 352 240 352l-96 0 0 96c0 17.7-14.3 32-32 32s-32-14.3-32-32L80 64zm64 224l96 0c53 0 96-43 96-96s-43-96-96-96l-96 0 0 192z"/></svg>