<svg xmlns="http://www.w3.org/2000/svg" viewBox="0 0 512 512"><!--! Font Awesome Pro 7.0.0 by @fontawesome - https://fontawesome.com License - https://fontawesome.com/license (Commercial License) Copyright 2025 Fonticons, Inc. --><path style="fill:var(--fa-secondary-color,currentColor);opacity:var(--fa-secondary-opacity,.4)" d="M86.8 90l19 47c5 12.3 19 18.2 31.2 13.3s18.2-19 13.3-31.2l-19-47c-5-12.3-19-18.2-31.2-13.3-12.3 5-18.2 19-13.3 31.2zm275 285c-5 12.3 1 26.3 13.3 31.2l47 19c12.3 5 26.3-1 31.2-13.3s-1-26.3-13.3-31.2l-47-19c-12.3-5-26.3 1-31.2 13.3z"/><path style="fill:var(--fa-primary-color,currentColor);opacity:var(--fa-primary-opacity,1)" d="M112.1 1.4c19.7-5.4 40.3 4.7 48.1 23.5l40.5 97.3c6.9 16.5 2.1 35.6-11.8 47l-44.1 36.1c32.5 71.6 89 130 159.3 164.9L342.8 323c11.3-13.9 30.4-18.6 47-11.8L487 351.8c18.8 7.8 28.9 28.4 23.5 48.1l-1.5 5.5C491.4 470.1 428.9 525.3 352.6 509.2 177.6 472.1 39.9 334.4 2.8 159.4-13.3 83.1 41.9 20.6 106.5 2.9l5.5-1.5zM131.3 72c-5-12.3-19-18.2-31.2-13.3S81.8 77.7 86.8 90l19 47c5 12.3 19 18.2 31.2 13.3s18.2-19 13.3-31.2l-19-47zM393 361.7c-12.3-5-26.3 1-31.2 13.3s1 26.3 13.3 31.2l47 19c12.3 5 26.3-1 31.2-13.3s-1-26.3-13.3-31.2l-47-19z"/></svg>