<svg xmlns="http://www.w3.org/2000/svg" viewBox="0 0 576 512"><!--! Font Awesome Pro 7.1.0 by @fontawesome - https://fontawesome.com License - https://fontawesome.com/license (Commercial License) Copyright 2025 Fonticons, Inc. --><path opacity=".4" fill="currentColor" d="M34.8 159.4c37.1 175 174.8 312.7 349.8 349.8 76.3 16.2 138.8-39.1 156.4-103.7l1.5-5.5c5.4-19.7-4.7-40.3-23.5-48.1l-97.3-40.5c-16.5-6.9-35.6-2.1-47 11.8l-38.6 47.2C265.9 335.4 209.3 277 176.8 205.3L221 169.3c13.9-11.3 18.6-30.4 11.8-47L192.2 25C184.3 6.1 163.7-3.9 144.1 1.4l-5.5 1.5C73.9 20.6 18.7 83.1 34.8 159.4z"/><path fill="currentColor" d="M320-8c0-13.3 10.7-24 24-24 128.1 0 232 103.9 232 232 0 13.3-10.7 24-24 24s-24-10.7-24-24c0-101.6-82.4-184-184-184-13.3 0-24-10.7-24-24zm0 200a32 32 0 1 1 64 0 32 32 0 1 1 -64 0zM344 64c75.1 0 136 60.9 136 136 0 13.3-10.7 24-24 24s-24-10.7-24-24c0-48.6-39.4-88-88-88-13.3 0-24-10.7-24-24s10.7-24 24-24z"/></svg>