<svg xmlns="http://www.w3.org/2000/svg" viewBox="0 0 576 512"><!--! Font Awesome Pro 7.1.0 by @fontawesome - https://fontawesome.com License - https://fontawesome.com/license (Commercial License) Copyright 2025 Fonticons, Inc. --><path opacity=".4" fill="currentColor" d="M320 416a128 128 0 1 0 256 0 128 128 0 1 0 -256 0zm76 0a20 20 0 1 1 -40 0 20 20 0 1 1 40 0zm72-72a20 20 0 1 1 -40 0 20 20 0 1 1 40 0zm0 72a20 20 0 1 1 -40 0 20 20 0 1 1 40 0zm0 72a20 20 0 1 1 -40 0 20 20 0 1 1 40 0zm72-72a20 20 0 1 1 -40 0 20 20 0 1 1 40 0z"/><path fill="currentColor" d="M266.4 28c37.5-37.4 98.4-37.4 136 0L515.9 141.3c32.3 32.2 36.7 81.6 13.4 118.6-24.3-12.7-52-19.9-81.3-19.9-64.4 0-120.8 34.6-151.5 86.3l-103.6-103.3-1.8-1.7c-9.4-7.7-23.4-7.1-32.1 1.7-8.8 8.8-9.3 22.7-1.6 32.1L159 257 277 374.5c-3.2 13.3-4.9 27.2-4.9 41.5 0 13.1 1.4 25.8 4.2 38.1l-52.2-21.4c-23.9-9.8-51.4-4.3-69.7 13.9l-53.8 53.6-3 2.7c-15.7 12.8-38.9 11.9-53.6-2.7-15.6-15.6-15.6-40.9 0-56.5l53.5-53.4c18.4-18.3 23.9-45.9 13.9-69.8L87 262.8c-10-23.9-4.5-51.4 13.8-69.7L266.4 28z"/></svg>