<svg xmlns="http://www.w3.org/2000/svg" viewBox="0 0 512 512"><!--! Font Awesome Pro 7.1.0 by @fontawesome - https://fontawesome.com License - https://fontawesome.com/license (Commercial License) Copyright 2025 Fonticons, Inc. --><path opacity=".4" fill="currentColor" d="M0 96l0 320 .3 6.5c3.1 30.1 27 54.1 57.1 57.1l6.5 .3 144 0 0-64-144 0 0-320 384 0 0 112 64 0 0-112c0-35.3-28.7-64-64-64l-384 0-6.5 .3C25.2 35.6 0 62.9 0 96z"/><path fill="currentColor" d="M304 256l160 0c26.5 0 48 21.5 48 48l0 128c0 26.5-21.5 48-48 48l-160 0c-26.5 0-48-21.5-48-48l0-128c0-26.5 21.5-48 48-48z"/></svg>