<svg xmlns="http://www.w3.org/2000/svg" viewBox="0 0 640 512"><!--! Font Awesome Pro 7.1.0 by @fontawesome - https://fontawesome.com License - https://fontawesome.com/license (Commercial License) Copyright 2025 Fonticons, Inc. --><path opacity=".4" fill="currentColor" d="M64 128c0 17.7 14.3 32 32 32l0 64c0 95.1 69.2 174.1 160 189.3l0 66.7c0 17.7 14.3 32 32 32s32-14.3 32-32l0-3.1c-10.3-23.5-16-49.5-16-76.9 0-100.6 77.4-183.2 176-191.3l0-48.7c17.7 0 32-14.3 32-32s-14.3-32-32-32l-64 0 0-96c0-17.7-14.3-32-32-32S352-17.7 352 0l0 96-128 0 0-96c0-17.7-14.3-32-32-32S160-17.7 160 0l0 96-64 0c-17.7 0-32 14.3-32 32z"/><path fill="currentColor" d="M496 544a144 144 0 1 0 0-288 144 144 0 1 0 0 288zm60.9-182.6l-64 88c-2.8 3.8-7 6.2-11.7 6.5s-9.3-1.3-12.6-4.6l-40-40c-6.2-6.2-6.2-16.4 0-22.6s16.4-6.2 22.6 0l26.8 26.8 53-72.9c5.2-7.1 15.2-8.7 22.4-3.5s8.7 15.2 3.5 22.3z"/></svg>