<svg xmlns="http://www.w3.org/2000/svg" viewBox="0 0 576 512"><!--! Font Awesome Pro 7.1.0 by @fontawesome - https://fontawesome.com License - https://fontawesome.com/license (Commercial License) Copyright 2025 Fonticons, Inc. --><path opacity=".4" fill="currentColor" d="M0 256c0-35.3 28.7-64 64-64l344 0c-90.1 0-163.6 70.9-167.8 160l-112.2 0 0 96 136.9 0c17.1 27.7 41.9 50 71.5 64L128 512c-35.3 0-64-28.7-64-64l0-64-32 0c-17.7 0-32-14.3-32-32l0-96zM64 64C64 28.7 92.7 0 128 0L341.5 0c17 0 33.3 6.7 45.3 18.7l42.5 42.5c12 12 18.7 28.3 18.7 45.3l0 37.5-384 0 0-80z"/><path fill="currentColor" d="M480 360.1a72 72 0 1 0 -144 0 72 72 0 1 0 144 0zm-5.8 100.1c-19 12.6-41.7 19.9-66.2 19.9-66.3 0-120-53.7-120-120s53.7-120 120-120 120 53.7 120 120c0 24.5-7.3 47.2-19.9 66.2L569 487.1c9.4 9.4 9.4 24.6 0 33.9s-24.6 9.4-33.9 0l-60.8-60.9z"/></svg>