<svg xmlns="http://www.w3.org/2000/svg" viewBox="0 0 320 512"><!--! Font Awesome Pro 7.1.0 by @fontawesome - https://fontawesome.com License - https://fontawesome.com/license (Commercial License) Copyright 2025 Fonticons, Inc. --><path opacity=".4" fill="currentColor" d="M0 192c0-35.3 28.7-64 64-64l192 0c35.3 0 64 28.7 64 64l0 256c0 35.3-28.7 64-64 64L64 512c-35.3 0-64-28.7-64-64L0 192zM96 344c0 35.3 28.7 56 64 56s64-20.7 64-56c0-32.5-37-80.9-50.9-97.9-3.2-3.9-8.1-6.1-13.1-6.1s-9.9 2.2-13.1 6.1C133 263.1 96 311.5 96 344z"/><path fill="currentColor" d="M96 0c0-17.7 14.3-32 32-32l64 0c17.7 0 32 14.3 32 32l0 8 72 0c13.3 0 24 10.7 24 24s-10.7 24-24 24l-72 0 0 72-128 0 0-128zM224 344c0 35.3-28.7 56-64 56s-64-20.7-64-56c0-32.5 37-80.9 50.9-97.9 3.2-3.9 8.1-6.1 13.1-6.1s9.9 2.2 13.1 6.1C187 263.1 224 311.5 224 344z"/></svg>