<svg xmlns="http://www.w3.org/2000/svg" viewBox="0 0 448 512"><!--! Font Awesome Pro 7.1.0 by @fontawesome - https://fontawesome.com License - https://fontawesome.com/license (Commercial License) Copyright 2025 Fonticons, Inc. --><path opacity=".4" fill="currentColor" d="M272 301.1c0-42.6 34.5-77.1 77.1-77.1l34.9 0c17.7 0 32 14.3 32 32s-14.3 32-32 32l-34.9 0c-7.2 0-13.1 5.9-13.1 13.1 0 5.7 3.7 10.7 9.1 12.5l49.4 15.9c31.9 10.3 53.5 39.9 53.5 73.4 0 42.6-34.5 77.1-77.1 77.1L320 480c-17.7 0-32-14.3-32-32s14.3-32 32-32l50.9 0c7.2 0 13.1-5.9 13.1-13.1 0-5.7-3.7-10.7-9.1-12.5l-49.4-15.9c-31.9-10.3-53.5-39.9-53.5-73.4z"/><path fill="currentColor" d="M32 32C14.3 32 0 46.3 0 64L0 448c0 17.7 14.3 32 32 32s32-14.3 32-32l0-128 48 0c2.7 0 5.4-.1 8.1-.2l41.2 137.4c5.1 16.9 22.9 26.5 39.8 21.5s26.5-22.9 21.5-39.8l-41-136.7C226 277.5 256 230.3 256 176 256 96.5 191.5 32 112 32L32 32zm80 224l-48 0 0-160 48 0c44.2 0 80 35.8 80 80s-35.8 80-80 80z"/></svg>