<svg xmlns="http://www.w3.org/2000/svg" viewBox="0 0 640 512"><!--! Font Awesome Pro 7.1.0 by @fontawesome - https://fontawesome.com License - https://fontawesome.com/license (Commercial License) Copyright 2025 Fonticons, Inc. --><path opacity=".4" fill="currentColor" d="M96.8 170.1c5.6 16.8 23.7 25.8 40.5 20.2l135.5-45.2c4.5 3.2 9.3 5.9 14.4 8.2l0 326.7c0 17.7 14.3 32 32 32l192 0c17.7 0 32-14.3 32-32s-14.3-32-32-32l-160 0 0-294.7c21-9.2 37.2-27 44.2-49l125.9-42c16.8-5.6 25.8-23.7 20.2-40.5S517.8-3.9 501.1 1.6l-113 37.7c-13.9-23.5-39.6-39.3-68.9-39.3-44.2 0-80 35.8-80 80 0 3 .2 5.9 .5 8.8L117.1 129.6c-16.8 5.6-25.8 23.7-20.2 40.5z"/><path fill="currentColor" d="M511.2 163.8l72.4 124.2-144.9 0 72.4-124.2zm-126 141.3C396 350 448.3 384 511.2 384s115.2-34 126-78.9c2.6-11-1-22.3-6.7-32.1L535.3 109.8c-5-8.6-14.2-13.8-24.1-13.8s-19.1 5.3-24.1 13.8L391.9 273.1c-5.7 9.8-9.3 21.1-6.7 32.1zM128.3 291.8l72.4 124.2-144.9 0 72.4-124.2zM2.4 433.1C13.2 478 65.5 512 128.3 512s115.2-34 126-78.9c2.6-11-1-22.3-6.7-32.1L152.4 237.8c-5-8.6-14.2-13.8-24.1-13.8s-19.1 5.3-24.1 13.8L9.1 401.1c-5.7 9.8-9.3 21.1-6.7 32.1z"/></svg>