<svg xmlns="http://www.w3.org/2000/svg" viewBox="0 0 576 512"><!--! Font Awesome Pro 7.1.0 by @fontawesome - https://fontawesome.com License - https://fontawesome.com/license (Commercial License) Copyright 2025 Fonticons, Inc. --><path opacity=".4" fill="currentColor" d="M0 352l0 64c0 35.3 28.7 64 64 64l448 0c35.3 0 64-28.7 64-64l0-64c0-9.8-2.2-19.1-6.1-27.4-10.3-21.6-32.3-36.6-57.9-36.6L64 288c-35.3 0-64 28.7-64 64zm128 32a32 32 0 1 1 -64 0 32 32 0 1 1 64 0zm96 0a32 32 0 1 1 -64 0 32 32 0 1 1 64 0z"/><path fill="currentColor" d="M35.8 48.9c8.3-15.6 27.7-21.5 43.3-13.2L525.2 273.7c20.9 11.2 36.6 29.4 44.7 50.9-10.3-21.6-32.3-36.6-57.9-36.6L416 288 48.9 92.2C33.3 83.9 27.4 64.5 35.8 48.9zM96 352a32 32 0 1 1 0 64 32 32 0 1 1 0-64z"/></svg>