<svg xmlns="http://www.w3.org/2000/svg" viewBox="0 0 576 512"><!--! Font Awesome Pro 7.1.0 by @fontawesome - https://fontawesome.com License - https://fontawesome.com/license (Commercial License) Copyright 2025 Fonticons, Inc. --><path opacity=".4" fill="currentColor" d="M0 224L0 448c0 35.3 28.7 64 64 64l176 0 0-112c0-26.5 21.5-48 48-48s48 21.5 48 48l0 112 176 0c35.3 0 64-28.7 64-64l0-224c0-35.3-28.7-64-64-64l-64 0-128-76.8 0-115.2-40 0c-13.3 0-24 10.7-24 24l0 91.2-128 76.8-64 0c-35.3 0-64 28.7-64 64zm64 16c0-8.8 7.2-16 16-16l32 0c8.8 0 16 7.2 16 16l0 32c0 8.8-7.2 16-16 16l-32 0c-8.8 0-16-7.2-16-16l0-32zm0 128c0-8.8 7.2-16 16-16l32 0c8.8 0 16 7.2 16 16l0 32c0 8.8-7.2 16-16 16l-32 0c-8.8 0-16-7.2-16-16l0-32zM336 224a48 48 0 1 1 -96 0 48 48 0 1 1 96 0zm112 16c0-8.8 7.2-16 16-16l32 0c8.8 0 16 7.2 16 16l0 32c0 8.8-7.2 16-16 16l-32 0c-8.8 0-16-7.2-16-16l0-32zm0 128c0-8.8 7.2-16 16-16l32 0c8.8 0 16 7.2 16 16l0 32c0 8.8-7.2 16-16 16l-32 0c-8.8 0-16-7.2-16-16l0-32z"/><path fill="currentColor" d="M392-32l-72 0 0 96 72 0c13.3 0 24-10.7 24-24l0-48c0-13.3-10.7-24-24-24zM128 272l0-32c0-8.8-7.2-16-16-16l-32 0c-8.8 0-16 7.2-16 16l0 32c0 8.8 7.2 16 16 16l32 0c8.8 0 16-7.2 16-16zM112 416c8.8 0 16-7.2 16-16l0-32c0-8.8-7.2-16-16-16l-32 0c-8.8 0-16 7.2-16 16l0 32c0 8.8 7.2 16 16 16l32 0zm176-64c-26.5 0-48 21.5-48 48l0 112 96 0 0-112c0-26.5-21.5-48-48-48zm208 64c8.8 0 16-7.2 16-16l0-32c0-8.8-7.2-16-16-16l-32 0c-8.8 0-16 7.2-16 16l0 32c0 8.8 7.2 16 16 16l32 0zm16-144l0-32c0-8.8-7.2-16-16-16l-32 0c-8.8 0-16 7.2-16 16l0 32c0 8.8 7.2 16 16 16l32 0c8.8 0 16-7.2 16-16z"/></svg>