<svg xmlns="http://www.w3.org/2000/svg" viewBox="0 0 512 512"><!--! Font Awesome Pro 7.1.0 by @fontawesome - https://fontawesome.com License - https://fontawesome.com/license (Commercial License) Copyright 2025 Fonticons, Inc. --><path opacity=".4" fill="currentColor" d="M0 112c0 61.9 50.1 112 112 112 14.3 0 27.9-2.7 40.5-7.5l39.5 39.5 64-64-39.5-39.5c4.9-12.6 7.5-26.2 7.5-40.5 0-61.9-50.1-112-112-112S0 50.1 0 112zm160 0a48 48 0 1 1 -96 0 48 48 0 1 1 96 0zm96 208L396.8 460.8c28.3 28.3 74.1 28.3 102.4 0 7.1-7.1 7.1-18.5 0-25.6L320 256 256 320z"/><path fill="currentColor" d="M216.5 359.5L499.2 76.8c7.1-7.1 7.1-18.5 0-25.6-28.3-28.3-74.1-28.3-102.4 0L152.5 295.5c-12.6-4.9-26.2-7.5-40.5-7.5-61.9 0-112 50.1-112 112s50.1 112 112 112 112-50.1 112-112c0-14.3-2.7-27.9-7.5-40.5zM64 400a48 48 0 1 1 96 0 48 48 0 1 1 -96 0z"/></svg>