<svg xmlns="http://www.w3.org/2000/svg" viewBox="0 0 576 512"><!--! Font Awesome Pro 7.1.0 by @fontawesome - https://fontawesome.com License - https://fontawesome.com/license (Commercial License) Copyright 2025 Fonticons, Inc. --><path opacity=".4" fill="currentColor" d="M261.4 237.5c9.7 4.4 18.8 10.5 26.7 18.5s14.1 17 18.5 26.7l90.7-90.7 49.6 0c10.7 0 20.7-5.3 26.6-14.2L552.8 58.9c4.2-6.3 3.4-14.8-2-20.2L505.4-6.7c-5.4-5.4-13.8-6.2-20.2-2L366.4 70.5c-8.9 5.9-14.2 15.9-14.2 26.6l0 49.6-90.7 90.7z"/><path fill="currentColor" d="M94.2 510.1L34.1 449.9c-18.7-18.7-18.7-49.1 0-67.9L160.1 256c35.3-35.3 92.7-35.3 128 0s35.3 92.7 0 128L162.1 510.1c-18.7 18.7-49.1 18.7-67.9 0z"/></svg>