<svg xmlns="http://www.w3.org/2000/svg" viewBox="0 0 576 512"><!--! Font Awesome Pro 7.1.0 by @fontawesome - https://fontawesome.com License - https://fontawesome.com/license (Commercial License) Copyright 2025 Fonticons, Inc. --><path opacity=".4" fill="currentColor" d="M56 32c30.9 0 56 25.1 56 56l0 336c0 30.9 25.1 56 56 56s56-25.1 56-56l0-48c0-13.3 10.7-24 24-24l200 0 0-224c0-53-43-96-96-96L56 32z"/><path fill="currentColor" d="M0 88C0 57.1 25.1 32 56 32s56 25.1 56 56l0 104-64 0c-26.5 0-48-21.5-48-48L0 88zM168 480c30.9 0 56-25.1 56-56l0-48c0-13.3 10.7-24 24-24l272 0c13.3 0 24 10.7 24 24l0 24c0 44.2-35.8 80-80 80l-296 0z"/></svg>