<svg xmlns="http://www.w3.org/2000/svg" viewBox="0 0 576 512"><!--! Font Awesome Pro 7.1.0 by @fontawesome - https://fontawesome.com License - https://fontawesome.com/license (Commercial License) Copyright 2025 Fonticons, Inc. --><path opacity=".4" fill="currentColor" d="M93.3 32c.9 2.5 1.6 5.1 2 7.8 .1 .7 .2 1.3 .3 2 .1 .7 .2 1.4 .2 2.1 .1 .7 .1 1.4 .1 2 0 .8 0 1.4 0 2.2 0 138.7 0 277.3 0 416 0 1.4-.1 2.8-.2 4.2s-.3 2.7-.5 4.1c-.5 2.7-1.1 5.3-2 7.8l389.5 0c-1.8-5-2.7-10.4-2.7-16l0-416c0-5.6 1-11 2.7-16L93.3 32zM176 204.5c0-6.9 5.6-12.5 12.5-12.5l56.9 0 30.5-49.2c2.6-4.2 7.2-6.8 12.2-6.8s9.6 2.6 12.2 6.8l30.5 49.2 56.9 0c6.9 0 12.5 5.6 12.5 12.5 0 2.3-.6 4.6-1.9 6.6l-27.8 45 27.8 45c1.2 2 1.9 4.2 1.9 6.6 0 6.9-5.6 12.5-12.5 12.5l-56.9 0-30.5 49.2c-2.6 4.2-7.2 6.8-12.2 6.8s-9.6-2.6-12.2-6.8l-30.5-49.2-56.9 0c-6.9 0-12.5-5.6-12.5-12.5 0-2.3 .6-4.6 1.9-6.6l27.8-45-27.8-45c-1.2-2-1.9-4.2-1.9-6.6z"/><path fill="currentColor" d="M0 48L0 464c0 26.5 21.5 48 48 48s48-21.5 48-48L96 48C96 21.5 74.5 0 48 0S0 21.5 0 48zM205.7 256l-27.8 45c-1.2 2-1.9 4.2-1.9 6.6 0 6.9 5.6 12.5 12.5 12.5l56.9 0 30.5 49.2c2.6 4.2 7.2 6.8 12.2 6.8s9.6-2.6 12.2-6.8l30.5-49.2 56.9 0c6.9 0 12.5-5.6 12.5-12.5 0-2.3-.6-4.6-1.9-6.6l-27.8-45 27.8-45c1.2-2 1.9-4.2 1.9-6.6 0-6.9-5.6-12.5-12.5-12.5l-56.9 0-30.5-49.2c-2.6-4.2-7.2-6.8-12.2-6.8s-9.6 2.6-12.2 6.8l-30.5 49.2-56.9 0c-6.9 0-12.5 5.6-12.5 12.5 0 2.3 .6 4.6 1.9 6.6l27.8 45zM528 0c-26.5 0-48 21.5-48 48l0 416c0 26.5 21.5 48 48 48s48-21.5 48-48l0-416c0-26.5-21.5-48-48-48z"/></svg>