<svg xmlns="http://www.w3.org/2000/svg" viewBox="0 0 384 512"><!--! Font Awesome Pro 7.1.0 by @fontawesome - https://fontawesome.com License - https://fontawesome.com/license (Commercial License) Copyright 2025 Fonticons, Inc. --><path opacity=".4" fill="currentColor" d="M0 125.3L0 448c0 35.3 28.7 64 64 64l256 0c35.3 0 64-28.7 64-64l0-384c0-35.3-28.7-64-64-64L125.3 0C108.3 0 92 6.7 80 18.7L18.7 80C6.7 92 0 108.3 0 125.3zM112 88c0-13.3 10.7-24 24-24s24 10.7 24 24l0 48c0 13.3-10.7 24-24 24s-24-10.7-24-24l0-48zm88 0c0-13.3 10.7-24 24-24s24 10.7 24 24l0 48c0 13.3-10.7 24-24 24s-24-10.7-24-24l0-48zm88 0c0-13.3 10.7-24 24-24s24 10.7 24 24l0 48c0 13.3-10.7 24-24 24s-24-10.7-24-24l0-48z"/><path fill="currentColor" d="M136 64c13.3 0 24 10.7 24 24l0 48c0 13.3-10.7 24-24 24s-24-10.7-24-24l0-48c0-13.3 10.7-24 24-24zm88 0c13.3 0 24 10.7 24 24l0 48c0 13.3-10.7 24-24 24s-24-10.7-24-24l0-48c0-13.3 10.7-24 24-24zm88 0c13.3 0 24 10.7 24 24l0 48c0 13.3-10.7 24-24 24s-24-10.7-24-24l0-48c0-13.3 10.7-24 24-24z"/></svg>