<svg xmlns="http://www.w3.org/2000/svg" viewBox="0 0 512 512"><!--! Font Awesome Pro 7.1.0 by @fontawesome - https://fontawesome.com License - https://fontawesome.com/license (Commercial License) Copyright 2025 Fonticons, Inc. --><path opacity=".4" fill="currentColor" d="M18.6 221.6c-18.7 18.7-18.7 49.1 0 67.9l45.6 45.6 0 64.9c0 26.5 21.5 48 48 48l64.9 0 45.1 45.1c18.7 18.7 49.1 18.7 67.9 0l45.1-45.1 64.9 0c26.5 0 48-21.5 48-48l0-64.9 45.6-45.6c18.7-18.7 18.7-49.1 0-67.9l-45.6-45.6 0-64c0-26.5-21.5-48-48-48l-64 0-46.1-46.1C271.3-.8 241-.8 222.2 17.9l-46.1 46.1-64 0c-26.5 0-48 21.5-48 48l0 64-45.6 45.6zM288.1 352a32 32 0 1 1 -64 0 32 32 0 1 1 64 0zM224.8 161.7c-1.3-18.2 13.1-33.7 31.4-33.7s32.7 15.5 31.4 33.7l-7.4 104c-.9 12.6-11.4 22.3-23.9 22.3s-23-9.7-23.9-22.3l-7.4-104z"/><path fill="currentColor" d="M256.1 384a32 32 0 1 1 0-64 32 32 0 1 1 0 64zm0-256c18.3 0 32.7 15.5 31.4 33.7l-7.4 104c-.9 12.6-11.4 22.3-23.9 22.3s-23-9.7-23.9-22.3l-7.4-104c-1.3-18.2 13.1-33.7 31.4-33.7z"/></svg>