<svg xmlns="http://www.w3.org/2000/svg" viewBox="0 0 384 512"><!--! Font Awesome Pro 7.1.0 by @fontawesome - https://fontawesome.com License - https://fontawesome.com/license (Commercial License) Copyright 2025 Fonticons, Inc. --><path opacity=".4" fill="currentColor" d="M64 64C64 28.7 92.7 0 128 0L256 0c35.3 0 64 28.7 64 64l0 224-256 0 0-224z"/><path fill="currentColor" d="M0 320l0 32c0 17.7 14.3 32 32 32l0 96c0 17.7 14.3 32 32 32s32-14.3 32-32l0-96 192 0 0 96c0 17.7 14.3 32 32 32s32-14.3 32-32l0-96c17.7 0 32-14.3 32-32l0-32c0-17.7-14.3-32-32-32L32 288c-17.7 0-32 14.3-32 32z"/></svg>