<svg xmlns="http://www.w3.org/2000/svg" viewBox="0 0 512 512"><!--! Font Awesome Pro 7.0.0 by @fontawesome - https://fontawesome.com License - https://fontawesome.com/license (Commercial License) Copyright 2025 Fonticons, Inc. --><path style="fill:var(--fa-secondary-color,currentColor);opacity:var(--fa-secondary-opacity,.4)" d="M16 140c.5 99.2 41.3 280.7 213.6 363.2 16.7 8 36.1 8 52.8 0 172.4-82.5 213.2-264 213.6-363.2 .1-26.2-16.3-47.9-38.3-57.2L269.4 2.9C265.2 1 260.7 0 256 0s-9.2 1-13.4 2.9L54.3 82.8c-22 9.3-38.4 31-38.3 57.2zM229.5 333.2c.1-.9 .2-1.8 .4-2.6 .4-1.7 .9-3.4 1.6-5 1.3-3.2 3.3-6.1 5.7-8.5 4.8-4.8 11.5-7.8 18.9-7.8 14.7 0 26.7 11.9 26.7 26.7s-11.9 26.7-26.7 26.7c-7.4 0-14-3-18.9-7.8-2.4-2.4-4.4-5.3-5.7-8.5-.7-1.6-1.2-3.3-1.6-5-.3-1.3-.4-2.6-.4-2.6-.1-1.3-.1-1.3-.1-2.8 .1-1.8 .1-2.3 .1-2.7zm2.7-191.7c.1-.8 .2-1.6 .4-2.4 .3-1.5 .8-3.1 1.4-4.5 1.2-2.9 3-5.4 5.1-7.6 4.3-4.3 10.3-7 17-7 13.3 0 24 10.7 24 24 0 37.3 0 74.7 0 112 0 13.3-10.7 24-24 24-6.6 0-12.6-2.7-17-7-2.2-2.2-3.9-4.8-5.1-7.6-.6-1.4-1.1-2.9-1.4-4.5-.2-.8-.3-1.6-.4-2.4s-.1-1.6-.1-2.1l0-.4c0-37.3 0-74.7 0-112l0-.4c0-.5 0-1.3 .1-2.1z"/><path style="fill:var(--fa-primary-color,currentColor);opacity:var(--fa-primary-opacity,1)" d="M280 144c0-13.3-10.7-24-24-24s-24 10.7-24 24l0 112c0 13.3 10.7 24 24 24s24-10.7 24-24l0-112zM256 362.7a26.7 26.7 0 1 0 0-53.3 26.7 26.7 0 1 0 0 53.3z"/></svg>