<svg xmlns="http://www.w3.org/2000/svg" viewBox="0 0 640 512"><!--! Font Awesome Pro 7.1.0 by @fontawesome - https://fontawesome.com License - https://fontawesome.com/license (Commercial License) Copyright 2025 Fonticons, Inc. --><path opacity=".4" fill="currentColor" d="M22.9 169.4c-12.5 12.5-12.5 32.8 0 45.3l50.7 50.7c12.5 12.5 32.8 12.5 45.3 0l41.4-41.4 0 224c0 35.3 28.7 64 64 64l192 0c35.3 0 64-28.7 64-64l0-224 41.4 41.4c12.5 12.5 32.8 12.5 45.3 0l50.7-50.7c12.5-12.5 12.5-32.8 0-45.3L499 50.7C487 38.7 470.7 32 453.7 32l-53.5 0c0 44.2-35.8 80-80 80s-80-35.8-80-80l-53.5 0c-17 0-33.3 6.7-45.3 18.7L22.9 169.4z"/><path fill="currentColor" d="M240.2 32l160 0c0 44.2-35.8 80-80 80s-80-35.8-80-80z"/></svg>