<svg xmlns="http://www.w3.org/2000/svg" viewBox="0 0 512 512"><!--! Font Awesome Pro 7.1.0 by @fontawesome - https://fontawesome.com License - https://fontawesome.com/license (Commercial License) Copyright 2025 Fonticons, Inc. --><path opacity=".4" fill="currentColor" d="M14 430l0 48c0 26.5 21.5 48 48 48l64 0 0-96-112 0zm4.8-48l115.8 0c5.6-9.7 13.7-17.8 23.4-23.4l0-198.8c0-12.8 .7-25.4 2.3-37.6L45.9 312.8C33 334.3 23.9 357.7 18.8 382zM315.7 122.1c1.6 12.3 2.3 24.8 2.3 37.6l0 198.8c9.7 5.6 17.8 13.7 23.4 23.4l115.8 0c-5.1-24.3-14.2-47.7-27.1-69.2L315.7 122.1zM350 430l0 96 64 0c26.5 0 48-21.5 48-48l0-48-112 0z"/><path fill="currentColor" d="M126 526l224 0 0-112c0-23.7-12.9-44.4-32-55.4l0-198.8c0-67.1-20.6-127.8-70.6-170.3-5.4-4.6-13.3-4.6-18.8 0-50.1 42.5-70.6 103.2-70.6 170.3l0 198.8c-19.1 11.1-32 31.8-32 55.4l0 112zm80-416c0-8.8 7.2-16 16-16l32 0c8.8 0 16 7.2 16 16s-7.2 16-16 16l-32 0c-8.8 0-16-7.2-16-16z"/></svg>