<svg xmlns="http://www.w3.org/2000/svg" viewBox="0 0 512 512"><!--! Font Awesome Pro 7.1.0 by @fontawesome - https://fontawesome.com License - https://fontawesome.com/license (Commercial License) Copyright 2025 Fonticons, Inc. --><path opacity=".4" fill="currentColor" d="M128.5 181c0-100 81-181 181-181l11 0c90.1 0 165.8 62.1 186.4 145.8 1.8 7.3-4 14.2-11.5 14.2-3.9 0-7.5-1.9-9.9-4.9-26.1-32.2-65.4-51.1-107.1-51.1-76.1 0-137.8 61.7-137.8 137.8l0 9.8c0 20.7 5.2 39.7 12.2 58.6 2.2 6 .9 12.8-3.7 17.3-16.6 16.6-32.5 32.5-47.6 47.6-8-8-24-24-48-48l-16-16 24.8-24.8C140.4 255.8 128.5 219 128.5 181z"/><path fill="currentColor" d="M129.5 303c-9.4-9.4-24.6-9.4-33.9 0l-16 16c-9.4 9.4-9.4 24.6 0 33.9l7 7-79 79c-9.4 9.4-9.4 24.6 0 33.9l32 32c9.4 9.4 24.6 9.4 33.9 0l79-79 7 7c9.4 9.4 24.6 9.4 33.9 0l16-16c9.4-9.4 9.4-24.6 0-33.9-34.7-34.7-73.3-73.3-80-80z"/></svg>