<svg xmlns="http://www.w3.org/2000/svg" viewBox="0 0 640 512"><!--! Font Awesome Pro 7.1.0 by @fontawesome - https://fontawesome.com License - https://fontawesome.com/license (Commercial License) Copyright 2025 Fonticons, Inc. --><path opacity=".4" fill="currentColor" d="M0 144L0 480c0 17.7 14.3 32 32 32s32-14.3 32-32l0-240c0-10.1 4.7-19.6 12.8-25.6l25.6-19.2c16.1-12.1 25.6-31.1 25.6-51.2 0-35.3-28.7-64-64-64S0 108.7 0 144zM160.3 372.7l127.7-34.8 0 42c21.1-4.3 42.9-4.3 64 0l0-40.9 118.8 35.6c3 .9 6.1 1.3 9.1 1.4-.7-22.1-4.5-45.3-10.1-68.5l-117.8-35.3 0-40.3 102 22.7c-9-26-19.4-50.6-29.3-72.1l-72.7-16.2 0-38.3-64 0 0 38.3-72.7 16.2c-9.9 21.4-20.2 46.1-29.3 72.1l102-22.7 0 39.7-116.8 31.8c-5.9 23.4-9.9 46.9-11 69.3zM288 32l0 32 64 0 0-32c0-17.7-14.3-32-32-32s-32 14.3-32 32zm0 414.2l0 33.8c0 17.7 14.3 32 32 32s32-14.3 32-32l0-33.8c-20.7-7.3-43.3-7.3-64 0zM512 144c0 20.1 9.5 39.1 25.6 51.2l25.6 19.2c8.1 6 12.8 15.5 12.8 25.6l0 240c0 17.7 14.3 32 32 32s32-14.3 32-32l0-336c0-35.3-28.7-64-64-64s-64 28.7-64 64z"/><path fill="currentColor" d="M178.2 112.9C194.5 81.6 226.7 64 260.2 64l119.5 0c33.5 0 65.8 17.6 82.1 48.9 27.7 53 82.2 169.3 82.2 271.1l0 17c0 43.6-35.4 79-79 79-15.1 0-30.1-2.7-44.2-8l-67.1-25.2c-21.7-8.2-45.7-8.2-67.4 0L219.2 472c-14.1 5.3-29.1 8-44.2 8-43.6 0-79-35.4-79-79l0-17c0-101.8 54.5-218.2 82.2-271.1zM260.2 128c-11.4 0-20.8 5.9-25.3 14.5-27.7 53.1-74.9 157-74.9 241.5l0 17c0 8.3 6.7 15 15 15 7.4 0 14.8-1.3 21.7-3.9l67.1-25.2c36.2-13.6 76.1-13.6 112.4 0l67.1 25.2c7 2.6 14.3 3.9 21.7 3.9 8.3 0 15-6.7 15-15l0-17c0-84.6-47.2-188.4-74.9-241.5-4.5-8.6-13.9-14.5-25.3-14.5l-119.5 0z"/></svg>