<svg xmlns="http://www.w3.org/2000/svg" viewBox="0 0 512 512"><!--! Font Awesome Pro 7.1.0 by @fontawesome - https://fontawesome.com License - https://fontawesome.com/license (Commercial License) Copyright 2025 Fonticons, Inc. --><path opacity=".4" fill="currentColor" d="M64 32l0 54.7C73.8 82.4 84.6 80 96 80s22.2 2.4 32 6.7L128 32c0-17.7-14.3-32-32-32S64 14.3 64 32zm0 201.3L64 480c0 17.7 14.3 32 32 32s32-14.3 32-32l0-246.7c-9.8 4.3-20.6 6.7-32 6.7s-22.2-2.4-32-6.7zM224 32l0 246.7c9.8-4.3 20.6-6.7 32-6.7s22.2 2.4 32 6.7L288 32c0-17.7-14.3-32-32-32s-32 14.3-32 32zm0 393.3l0 54.7c0 17.7 14.3 32 32 32s32-14.3 32-32l0-54.7c-9.8 4.3-20.6 6.7-32 6.7s-22.2-2.4-32-6.7zM384 32l0 86.7c9.8-4.3 20.6-6.7 32-6.7s22.2 2.4 32 6.7L448 32c0-17.7-14.3-32-32-32s-32 14.3-32 32zm0 233.3L384 480c0 17.7 14.3 32 32 32s32-14.3 32-32l0-214.7c-9.8 4.3-20.6 6.7-32 6.7s-22.2-2.4-32-6.7z"/><path fill="currentColor" d="M16 160a80 80 0 1 1 160 0 80 80 0 1 1 -160 0zM176 352a80 80 0 1 1 160 0 80 80 0 1 1 -160 0zM416 112a80 80 0 1 1 0 160 80 80 0 1 1 0-160z"/></svg>