<svg xmlns="http://www.w3.org/2000/svg" viewBox="0 0 448 512"><!--! Font Awesome Pro 7.1.0 by @fontawesome - https://fontawesome.com License - https://fontawesome.com/license (Commercial License) Copyright 2025 Fonticons, Inc. --><path opacity=".4" fill="currentColor" d="M96 32l0 352c0 35.3 28.7 64 64 64l224 0c35.3 0 64-28.7 64-64l0-352c0-35.3-28.7-64-64-64L160-32C124.7-32 96-3.3 96 32zM376 288a104 104 0 1 1 -208 0 104 104 0 1 1 208 0zM304 64a32 32 0 1 1 -64 0 32 32 0 1 1 64 0z"/><path fill="currentColor" d="M272 32a32 32 0 1 1 0 64 32 32 0 1 1 0-64zM24 96c13.3 0 24 10.7 24 24l0 360c0 8.8 7.2 16 16 16l264 0c13.3 0 24 10.7 24 24s-10.7 24-24 24L64 544c-35.3 0-64-28.7-64-64L0 120c0-13.3 10.7-24 24-24zM168 288a104 104 0 1 1 208 0 104 104 0 1 1 -208 0zm104 56a56 56 0 1 0 0-112 56 56 0 1 0 0 112z"/></svg>