<svg xmlns="http://www.w3.org/2000/svg" viewBox="0 0 576 512"><!--! Font Awesome Pro 7.1.0 by @fontawesome - https://fontawesome.com License - https://fontawesome.com/license (Commercial License) Copyright 2025 Fonticons, Inc. --><path opacity=".4" fill="currentColor" d="M32 120l0 168c0 17.7 14.3 32 32 32s32-14.3 32-32l0-64 64 0 0 64c0 17.7 14.3 32 32 32s32-14.3 32-32l0-168c0-48.6-39.4-88-88-88l-16 0c-48.6 0-88 39.4-88 88zm64 0c0-13.3 10.7-24 24-24l16 0c13.3 0 24 10.7 24 24l0 40-64 0 0-40zM272 64l0 224c0 17.7 14.3 32 32 32l72 0c48.6 0 88-39.4 88-88 0-23.6-9.3-45-24.4-60.8 10.3-14.4 16.4-32.1 16.4-51.2 0-48.6-39.4-88-88-88l-64 0c-17.7 0-32 14.3-32 32zm64 32l32 0c13.3 0 24 10.7 24 24s-10.7 24-24 24l-32 0 0-48zm0 112l40 0c13.3 0 24 10.7 24 24s-10.7 24-24 24l-40 0 0-48z"/><path fill="currentColor" d="M564 295c13.8 11 16 31.2 5 45L441 500c-5.7 7.1-14.1 11.5-23.2 12s-18-2.9-24.4-9.3l-64-64c-12.5-12.5-12.5-32.8 0-45.3s32.8-12.5 45.3 0L413.3 432.1 519 300c11-13.8 31.2-16 45-5z"/></svg>