<svg xmlns="http://www.w3.org/2000/svg" viewBox="0 0 512 512"><!--! Font Awesome Pro 7.0.1 by @fontawesome - https://fontawesome.com License - https://fontawesome.com/license (Commercial License) Copyright 2025 Fonticons, Inc. --><path style="fill:var(--fa-secondary-color,currentColor);opacity:var(--fa-secondary-opacity,.4)" d="M75 369.1A48 48 0 1 0 142.9 437 48 48 0 1 0 75 369.1zM208 464a48 48 0 1 0 96 0 48 48 0 1 0 -96 0zM369.1 75A48 48 0 1 0 437 142.9 48 48 0 1 0 369.1 75zm0 294.2A48 48 0 1 0 437 437 48 48 0 1 0 369.1 369.1zM416 256a48 48 0 1 0 96 0 48 48 0 1 0 -96 0z"/><path style="fill:var(--fa-primary-color,currentColor);opacity:var(--fa-primary-opacity,1)" d="M304 48a48 48 0 1 0 -96 0 48 48 0 1 0 96 0zM96 256a48 48 0 1 0 -96 0 48 48 0 1 0 96 0zM75 142.9A48 48 0 1 0 142.9 75 48 48 0 1 0 75 142.9z"/></svg>