<svg xmlns="http://www.w3.org/2000/svg" viewBox="0 0 448 512"><!--! Font Awesome Pro 7.1.0 by @fontawesome - https://fontawesome.com License - https://fontawesome.com/license (Commercial License) Copyright 2025 Fonticons, Inc. --><path opacity=".4" fill="currentColor" d="M0 96L0 416c0 35.3 28.7 64 64 64l320 0c35.3 0 64-28.7 64-64l0-320c0-35.3-28.7-64-64-64L64 32C28.7 32 0 60.7 0 96zm104 88c0-13.3 10.7-24 24-24 6.6 0 12.6 2.7 17 7 9.4-4.5 19.9-7 31-7 18.4 0 35.3 6.9 48 18.3 6.7-6 14.6-10.8 23.2-13.9l26.2-58.9c3.6-8.1 13-11.7 21.1-8.1s11.7 13 8.1 21.1L283.8 161c34.2 5.6 60.2 35.3 60.2 71l0 96c0 13.3-10.7 24-24 24s-24-10.7-24-24l0-96c0-13.3-10.7-24-24-24-3.6 0-7.1 .8-10.2 2.2L248 241.4 248 328c0 13.3-10.7 24-24 24-8.5 0-16-4.4-20.2-11.1l-29.1 65.6c-3.6 8.1-13 11.7-21.1 8.1s-11.7-13-8.1-21.1l54.6-122.9 0-38.6 0-.4c-.2-13.1-10.9-23.6-24-23.6-13.3 0-24 10.7-24 24l0 96c0 13.3-10.7 24-24 24s-24-10.7-24-24c0-56 0-104 0-144z"/><path fill="currentColor" d="M302.6 118.5c3.6-8.1 0-17.5-8.1-21.1s-17.5 0-21.1 8.1l-26.2 58.9c-8.6 3.2-16.5 7.9-23.2 13.9-12.7-11.4-29.6-18.3-48-18.3-11.1 0-21.6 2.5-31 7-4.3-4.3-10.3-7-17-7-13.3 0-24 10.7-24 24l0 64 0 0 0 80c0 13.3 10.7 24 24 24s24-10.7 24-24l0-96c0-13.3 10.7-24 24-24 13.1 0 23.8 10.5 24 23.6l0 .4 0 38.6-54.6 122.9c-3.6 8.1 0 17.5 8.1 21.1s17.5 0 21.1-8.1l29.1-65.6c4.3 6.7 11.7 11.1 20.2 11.1 13.3 0 24-10.7 24-24l0-86.6 13.8-31.1c3.1-1.4 6.5-2.2 10.2-2.2 13.3 0 24 10.7 24 24l0 96c0 13.3 10.7 24 24 24s24-10.7 24-24l0-96c0-35.8-26.1-65.4-60.2-71l18.9-42.5z"/></svg>