<svg xmlns="http://www.w3.org/2000/svg" viewBox="0 0 448 512"><!--! Font Awesome Pro 7.1.0 by @fontawesome - https://fontawesome.com License - https://fontawesome.com/license (Commercial License) Copyright 2025 Fonticons, Inc. --><path opacity=".4" fill="currentColor" d="M0 96L0 416c0 35.3 28.7 64 64 64l320 0c35.3 0 64-28.7 64-64l0-320c0-35.3-28.7-64-64-64L64 32C28.7 32 0 60.7 0 96zM88 215.6c0-35.1 28.5-63.6 63.6-63.6l24.4 0c13.3 0 24 10.7 24 24s-10.7 24-24 24l-24.4 0c-8.6 0-15.6 7-15.6 15.6 0 7.4 5.2 13.8 12.5 15.3l16.4 3.3c29.7 5.9 51.1 32 51.1 62.3 0 35.1-28.5 63.6-63.6 63.6L120 360c-13.3 0-24-10.7-24-24s10.7-24 24-24l32.4 0c8.6 0 15.6-7 15.6-15.6 0-7.4-5.2-13.8-12.5-15.3l-16.4-3.3C109.4 272 88 245.9 88 215.6zm144 0c0-29.7 20.4-54.7 48-61.6l0-17.9c0-8.8 7.2-16 16-16s16 7.2 16 16l0 16 8 0c13.3 0 24 10.7 24 24s-10.7 24-24 24l-24.4 0c-8.6 0-15.6 7-15.6 15.6 0 7.4 5.2 13.8 12.5 15.3l16.4 3.3c29.7 5.9 51.1 32 51.1 62.3 0 29.7-20.4 54.7-48 61.6l0 17.9c0 8.8-7.2 16-16 16s-16-7.2-16-16l0-16-16 0c-13.3 0-24-10.7-24-24s10.7-24 24-24l32.4 0c8.6 0 15.6-7 15.6-15.6 0-7.4-5.2-13.8-12.5-15.3l-16.4-3.3c-29.7-5.9-51.1-32-51.1-62.3z"/><path fill="currentColor" d="M280 136c0-8.8 7.2-16 16-16s16 7.2 16 16l0 16 8 0c13.3 0 24 10.7 24 24s-10.7 24-24 24l-24.4 0c-8.6 0-15.6 7-15.6 15.6 0 7.4 5.2 13.8 12.5 15.3l16.4 3.3c29.7 5.9 51.1 32 51.1 62.3 0 29.7-20.4 54.7-48 61.6l0 17.9c0 8.8-7.2 16-16 16s-16-7.2-16-16l0-16-16 0c-13.3 0-24-10.7-24-24s10.7-24 24-24l32.4 0c8.6 0 15.6-7 15.6-15.6 0-7.4-5.2-13.8-12.5-15.3l-16.4-3.3c-29.7-5.9-51.1-32-51.1-62.3 0-29.7 20.4-54.7 48-61.6l0-17.9zM151.6 152l24.4 0c13.3 0 24 10.7 24 24s-10.7 24-24 24l-24.4 0c-8.6 0-15.6 7-15.6 15.6 0 7.4 5.2 13.8 12.5 15.3l16.4 3.3c29.7 5.9 51.1 32 51.1 62.3 0 35.1-28.5 63.6-63.6 63.6L120 360c-13.3 0-24-10.7-24-24s10.7-24 24-24l32.4 0c8.6 0 15.6-7 15.6-15.6 0-7.4-5.2-13.8-12.5-15.3l-16.4-3.3c-29.7-5.9-51.1-32-51.1-62.3 0-35.1 28.5-63.6 63.6-63.6z"/></svg>