<svg xmlns="http://www.w3.org/2000/svg" viewBox="0 0 448 512"><!--! Font Awesome Pro 7.1.0 by @fontawesome - https://fontawesome.com License - https://fontawesome.com/license (Commercial License) Copyright 2025 Fonticons, Inc. --><path opacity=".4" fill="currentColor" d="M0 96L0 416c0 35.3 28.7 64 64 64l320 0c35.3 0 64-28.7 64-64l0-320c0-35.3-28.7-64-64-64L64 32C28.7 32 0 60.7 0 96zM344 256a120 120 0 1 1 -240 0 120 120 0 1 1 240 0zm-192 0a72 72 0 1 0 144 0 72 72 0 1 0 -144 0z"/><path fill="currentColor" d="M224 184a72 72 0 1 0 0 144 72 72 0 1 0 0-144zm120 72a120 120 0 1 1 -240 0 120 120 0 1 1 240 0z"/></svg>