<svg xmlns="http://www.w3.org/2000/svg" viewBox="0 0 448 512"><!--! Font Awesome Pro 7.1.0 by @fontawesome - https://fontawesome.com License - https://fontawesome.com/license (Commercial License) Copyright 2025 Fonticons, Inc. --><path opacity=".4" fill="currentColor" d="M0 96L0 416c0 35.3 28.7 64 64 64l320 0c35.3 0 64-28.7 64-64l0-320c0-35.3-28.7-64-64-64L64 32C28.7 32 0 60.7 0 96zm96 40c0-13.3 10.7-24 24-24 137 0 248 111 248 248 0 13.3-10.7 24-24 24s-24-10.7-24-24c0-110.5-89.5-200-200-200-13.3 0-24-10.7-24-24zm0 96c0-13.3 10.7-24 24-24 83.9 0 152 68.1 152 152 0 13.3-10.7 24-24 24s-24-10.7-24-24c0-57.4-46.6-104-104-104-13.3 0-24-10.7-24-24zm64 120a32 32 0 1 1 -64 0 32 32 0 1 1 64 0z"/><path fill="currentColor" d="M120 112c-13.3 0-24 10.7-24 24s10.7 24 24 24c110.5 0 200 89.5 200 200 0 13.3 10.7 24 24 24s24-10.7 24-24c0-137-111-248-248-248zm0 96c-13.3 0-24 10.7-24 24s10.7 24 24 24c57.4 0 104 46.6 104 104 0 13.3 10.7 24 24 24s24-10.7 24-24c0-83.9-68.1-152-152-152zm8 176a32 32 0 1 0 0-64 32 32 0 1 0 0 64z"/></svg>