<svg xmlns="http://www.w3.org/2000/svg" viewBox="0 0 448 512"><!--! Font Awesome Pro 7.1.0 by @fontawesome - https://fontawesome.com License - https://fontawesome.com/license (Commercial License) Copyright 2025 Fonticons, Inc. --><path opacity=".4" fill="currentColor" d="M0 96L0 416c0 35.3 28.7 64 64 64l320 0c35.3 0 64-28.7 64-64l0-320c0-35.3-28.7-64-64-64L64 32C28.7 32 0 60.7 0 96zM114.5 333.3l88-176c4.1-8.1 12.4-13.3 21.5-13.3s17.4 5.1 21.5 13.3l88 176c5.9 11.9 1.1 26.3-10.7 32.2s-26.3 1.1-32.2-10.7l-9.4-18.7-114.3 0-9.4 18.7c-5.9 11.9-20.3 16.7-32.2 10.7s-16.7-20.3-10.7-32.2zM190.8 288l66.3 0-33.2-66.3-33.2 66.3z"/><path fill="currentColor" d="M245.5 157.3c-4.1-8.1-12.4-13.3-21.5-13.3s-17.4 5.1-21.5 13.3l-88 176c-5.9 11.9-1.1 26.3 10.7 32.2s26.3 1.1 32.2-10.7l9.4-18.7 114.3 0 9.4 18.7c5.9 11.9 20.3 16.7 32.2 10.7s16.7-20.3 10.7-32.2l-88-176zM257.2 288l-66.3 0 33.2-66.3 33.2 66.3z"/></svg>