<svg xmlns="http://www.w3.org/2000/svg" viewBox="0 0 448 512"><!--! Font Awesome Pro 7.1.0 by @fontawesome - https://fontawesome.com License - https://fontawesome.com/license (Commercial License) Copyright 2025 Fonticons, Inc. --><path opacity=".4" fill="currentColor" d="M0 96L0 416c0 35.3 28.7 64 64 64l320 0c35.3 0 64-28.7 64-64l0-320c0-35.3-28.7-64-64-64L64 32C28.7 32 0 60.7 0 96zM80 232c0-13.3 10.7-24 24-24s24 10.7 24 24l0 8c0 53 43 96 96 96s96-43 96-96l0-8c0-13.3 10.7-24 24-24s24 10.7 24 24l0 8c0 71.4-51.9 130.6-120 142l0 26c0 13.3-10.7 24-24 24s-24-10.7-24-24l0-26C131.9 370.6 80 311.4 80 240l0-8zm96-88c0-26.5 21.5-48 48-48s48 21.5 48 48l0 96c0 26.5-21.5 48-48 48s-48-21.5-48-48l0-96z"/><path fill="currentColor" d="M224 96c-26.5 0-48 21.5-48 48l0 96c0 26.5 21.5 48 48 48s48-21.5 48-48l0-96c0-26.5-21.5-48-48-48zM128 232c0-13.3-10.7-24-24-24s-24 10.7-24 24l0 8c0 71.4 51.9 130.6 120 142l0 26c0 13.3 10.7 24 24 24s24-10.7 24-24l0-26c68.1-11.4 120-70.7 120-142l0-8c0-13.3-10.7-24-24-24s-24 10.7-24 24l0 8c0 53-43 96-96 96s-96-43-96-96l0-8z"/></svg>