<svg xmlns="http://www.w3.org/2000/svg" viewBox="0 0 448 512"><!--! Font Awesome Pro 7.1.0 by @fontawesome - https://fontawesome.com License - https://fontawesome.com/license (Commercial License) Copyright 2025 Fonticons, Inc. --><path opacity=".4" fill="currentColor" d="M0 112L0 432c0 35.3 28.7 64 64 64l320 0c35.3 0 64-28.7 64-64l0-320c0-35.3-28.7-64-64-64L64 48C28.7 48 0 76.7 0 112zM96 272c0-8.8 7.2-16 16-16l42.9 0 41.7-94.2C201.4 151 212.1 144 224 144s22.6 7 27.4 17.8l41.7 94.2 42.9 0c8.8 0 16 7.2 16 16s-7.2 16-16 16l-28.7 0 10.6 24 18.1 0c8.8 0 16 7.2 16 16s-7.2 16-16 16l-3.9 0 9.9 22.3c5.4 12.1-.1 26.3-12.2 31.7s-26.3-.1-31.7-12.2l-18.5-41.7-111.2 0-18.5 41.7c-5.4 12.1-19.5 17.6-31.7 12.2s-17.6-19.5-12.2-31.7l9.9-22.3-3.9 0c-8.8 0-16-7.2-16-16s7.2-16 16-16l18.1 0 10.6-24-28.7 0c-8.8 0-16-7.2-16-16zm86.6 40l82.8 0-10.6-24-61.6 0-10.6 24zm24.8-56l33.2 0-16.6-37.5-16.6 37.5z"/><path fill="currentColor" d="M240.6 256l-33.2 0 16.6-37.5 16.6 37.5zm52.5 0l-41.7-94.2C246.6 151 235.9 144 224 144s-22.6 7-27.4 17.8L154.9 256 112 256c-8.8 0-16 7.2-16 16s7.2 16 16 16l28.7 0-10.6 24-18.1 0c-8.8 0-16 7.2-16 16s7.2 16 16 16l3.9 0-9.9 22.3c-5.4 12.1 .1 26.3 12.2 31.7s26.3-.1 31.7-12.2l18.5-41.7 111.2 0 18.5 41.7c5.4 12.1 19.5 17.6 31.7 12.2s17.6-19.5 12.2-31.7l-9.9-22.3 3.9 0c8.8 0 16-7.2 16-16s-7.2-16-16-16l-18.1 0-10.6-24 28.7 0c8.8 0 16-7.2 16-16s-7.2-16-16-16l-42.9 0zm-38.3 32l10.6 24-82.8 0 10.6-24 61.6 0z"/></svg>