<svg xmlns="http://www.w3.org/2000/svg" viewBox="0 0 576 512"><!--! Font Awesome Pro 7.1.0 by @fontawesome - https://fontawesome.com License - https://fontawesome.com/license (Commercial License) Copyright 2025 Fonticons, Inc. --><path opacity=".4" fill="currentColor" d="M32 96c0-35.3 28.7-64 64-64l320 0c35.3 0 64 28.7 64 64l0 49c-5.2-.7-10.6-1-16-1-70.7 0-128 57.3-128 128l0 2.3-58.5-117.1c-4.1-8.1-12.4-13.3-21.5-13.3s-17.4 5.1-21.5 13.3l-88 176c-5.9 11.9-1.1 26.3 10.7 32.2s26.3 1.1 32.2-10.7l9.4-18.7 110.6 0c-3.5 10-5.4 20.7-5.4 31.9l0 96c0 5.5 .5 10.9 1.3 16.1L96 480c-35.3 0-64-28.7-64-64L32 96zM222.8 288l33.2-66.3 33.2 66.3-66.3 0z"/><path fill="currentColor" d="M432 320l0-47.9c0-17.7 14.3-32 32-32s32 14.3 32 32l0 47.9-64 0zm-48 2.7c-18.6 6.6-32 24.4-32 45.3l0 96c0 26.5 21.5 48 48 48l128 0c26.5 0 48-21.5 48-48l0-96c0-20.9-13.4-38.7-32-45.3l0-50.6c0-44.2-35.8-80-80-80s-80 35.8-80 80l0 50.6z"/></svg>