<svg xmlns="http://www.w3.org/2000/svg" viewBox="0 0 512 512"><!--! Font Awesome Pro 7.1.0 by @fontawesome - https://fontawesome.com License - https://fontawesome.com/license (Commercial License) Copyright 2025 Fonticons, Inc. --><path opacity=".4" fill="currentColor" d="M258.5 27.2c-1.4-7 .8-14.2 5.8-19.3 5-5 12-7.2 18.9-5.9L395.8 22.5c-52 15.6-93.8 35.1-126.9 56.6L258.5 27.2zM433.9 243.5c21.3-32.9 40.6-74.3 56.2-125.8L510.3 229c1.3 6.9-1 14-5.9 18.9-5.1 5.1-12.3 7.2-19.3 5.8l-51.2-10.2z"/><path fill="currentColor" d="M508.4 4.4c3.7 3.7 5.3 8.8 4.5 13.9-40.2 241-149.1 324.3-229.5 335 4.8 2.5 9.3 5.8 13.4 9.9l28.3 28.3c6.2 6.2 16.4 6.2 22.6 0l56.3-56.4c18.9-18.9 49.5-18.7 68.2 .3l36.4 37.1c6.1 6.3 6.1 16.3-.1 22.5l-2.8 2.8c-34 34-87.7 33.3-121 1.9l-14.3 14.3c-18.7 18.7-49.1 18.7-67.9 0L274 385.8c-9.3-9.3-24.6-9.3-34.1 .1s-9.4 24.7-.1 34.1c2.4 2.4 7.9 7.9 16.4 16.4 18.7 18.7 18.7 49.1 0 67.9-6.2 6.2-16.4 6.2-22.6 0s-6.2-16.4 0-22.6 6.2-16.4 0-22.6c-13.5-13.5-22.4-22.4-54.7-54.7-1.8 4.9-4.4 9.7-7.7 14.1l-22.2 29.3c-2.6 3.5-4 7.7-4 12 0 11 8.9 19.9 19.9 19.9l12.1 0c8.8 0 16 7.2 16 16s-7.2 16-16 16l-12.1 0c-28.7 0-51.9-23.2-51.9-51.9 0-11.3 3.7-22.3 10.5-31.4l22.2-29.3c6.9-9.1 6-22-2.1-30.1s-20.9-9-30.1-2.1L84.3 389.1c-9 6.8-20 10.5-31.4 10.5-28.7 0-51.9-23.2-51.9-51.9l0-12.1c0-8.8 7.2-16 16-16s16 7.2 16 16l0 12.1c0 11 8.9 19.9 19.9 19.9 4.3 0 8.6-1.4 12-4l29.3-22.2c4.4-3.3 9.1-5.9 14.1-7.7L70 295.4c-3.2-3.2-9-9-17.4-17.4-6.2-6.2-16.4-6.2-22.6 0s-16.4 6.2-22.6 0-6.2-16.4 0-22.6c18.7-18.7 49.1-18.7 67.9 0 8.4 8.4 14.2 14.2 17.4 17.4 9.4 9.4 24.7 9.4 34.2 0s9.4-24.7 0-34.2L98.6 210.4c-18.7-18.7-18.7-49.1 0-67.9L113 128.2c-31.4-33.3-32.1-87 1.9-121l2.8-2.8c6.2-6.2 16.3-6.3 22.5-.1l37.1 36.4c19.1 18.7 19.2 49.3 .3 68.2l-56.4 56.4c-6.2 6.2-6.2 16.4 0 22.6L149.4 216c4.1 4.1 7.4 8.7 10 13.5 10.7-80.5 93.9-189.4 335-229.6 5.1-.8 10.3 .8 13.9 4.5zM201 279.7a16 16 0 1 0 -32 0 16 16 0 1 0 32 0zm32 64a16 16 0 1 0 0-32 16 16 0 1 0 0 32z"/></svg>