<svg xmlns="http://www.w3.org/2000/svg" viewBox="0 0 576 512"><!--! Font Awesome Pro 7.1.0 by @fontawesome - https://fontawesome.com License - https://fontawesome.com/license (Commercial License) Copyright 2025 Fonticons, Inc. --><path opacity=".4" fill="currentColor" d="M0 224c0-25.7 24-50.1 64-69.5 14.1-6.8 30.2-13.1 48-18.5 40.7-12.5 90.1-20.9 144-23.3 10.5-.5 21.2-.7 32-.7 5.4 0 10.7 .1 16 .2 53.1 1.2 102.4 8.2 144 19.3 17.4 4.7 33.5 10 48 15.9 49.6 20.4 80 47.7 80 76.7L576 420c0 51.7-96.7 94.9-226 105.5l0-79.5c0-34.2-27.8-62-62-62s-62 27.8-62 62l0 79.5C96.7 514.9 0 471.7 0 420L0 224zm56 0c0 20 37.7 39.1 95.7 51.2 38.3 8 85.4 12.8 136.3 12.8s98.1-4.9 136.4-12.8c58-12.1 95.6-31.2 95.6-51.2 0-18.9-33.9-37.1-86.9-49.3-15.1-3.5-31.8-6.4-49.7-8.8-29.1-3.8-61.4-6-95.4-6s-66.3 2.2-95.4 6c-17.9 2.3-34.6 5.3-49.7 8.8-53 12.1-86.9 30.3-86.9 49.3z"/><path fill="currentColor" d="M256-12.8l0 125.5c10.5-.5 21.2-.7 32-.7 5.4 0 10.7 .1 16 .2l0-29.1 73-39.3c4.3-2.3 7-6.9 7-11.8s-2.7-9.5-7-11.8L284.3-29.7c-2.8-1.5-5.9-2.3-9.1-2.3-10.6 0-19.2 8.6-19.2 19.2zM496 147.4l0-48.3 73-39.3c4.3-2.3 7-6.9 7-11.8s-2.7-9.5-7-11.8L476.3-13.7c-2.8-1.5-5.9-2.3-9.1-2.3-10.6 0-19.2 8.6-19.2 19.2l0 128.3c17.4 4.6 33.5 10 48 15.9zM64 154.5c14.1-6.8 30.2-13.1 48-18.5l0-36.9 73-39.3c4.3-2.3 7-6.9 7-11.8s-2.7-9.5-7-11.8L92.3-13.7C89.5-15.2 86.3-16 83.2-16 72.6-16 64-7.4 64 3.2l0 151.4zm162 371c20 1.6 40.7 2.5 62 2.5s42-.9 62-2.5l0-79.5c0-34.2-27.8-62-62-62s-62 27.8-62 62l0 79.5zM199.4 250c-21.8 6.4-38.6 15.1-47.7 25.2 38.3 8 85.4 12.8 136.4 12.8s98.1-4.9 136.3-12.8c-9.1-10-25.9-18.8-47.7-25.2l56.4-75.3c-15.1-3.5-31.8-6.4-49.7-8.8l-56 74.6c-12.5-1.3-25.7-2-39.4-2s-26.9 .7-39.4 2l-56-74.6c-17.9 2.3-34.6 5.3-49.7 8.8L199.4 250z"/></svg>