<svg xmlns="http://www.w3.org/2000/svg" viewBox="0 0 576 512"><!--! Font Awesome Pro 7.1.0 by @fontawesome - https://fontawesome.com License - https://fontawesome.com/license (Commercial License) Copyright 2025 Fonticons, Inc. --><path opacity=".4" fill="currentColor" d="M0 238.7L0 359.2c0-11.5 5-22.5 13.6-30L48 299 48 238.7c0-2.3 1-4.5 2.8-6.1L240 69.5 240 128c0 .7 0 1.4 .1 2.1L272.2 102c4.4-3.8 10-6 15.8-6l0-48 176 0 0 48 48 0 0-48 40 0c13.3 0 24-10.7 24-24S565.3 0 552 0L267.9 0c-13.4 0-26.4 4.8-36.6 13.6L19.4 196.2C7.1 206.9 0 222.4 0 238.7zM64 440a88 88 0 1 0 176 .1 88 88 0 1 0 -176-.1zm128 0a40 40 0 1 1 -80 0 40 40 0 1 1 80 0zM352 208l0 232c0 48.6 39.4 88 88 88 40.8 0 75.1-27.7 85.1-65.3 29.1-6 50.9-31.8 50.9-62.7l0-80c-1.1-14.2-6.7-27.7-16.2-38.4l-46.4-52.2c-12.1-13.7-29.6-21.5-47.8-21.5L352 208zM480 440a40 40 0 1 1 -80 0 40 40 0 1 1 80 0zM416 272l49.6 0 42.7 48-92.3 0 0-48z"/><path fill="currentColor" d="M272.2 102c4.4-3.8 10-6 15.8-6l264 0c13.3 0 24 10.7 24 24l0 16c0 13.3-10.7 24-24 24l-248 0 0 304-67.3 0c2.2-7.6 3.3-15.7 3.3-24 0-48.6-39.4-88-88-88s-88 39.4-88 88c0 8.3 1.2 16.4 3.3 24L40 464c-22.1 0-40-17.9-40-40l0-64.8c0-11.5 5-22.5 13.6-30L272.2 102z"/></svg>