<svg xmlns="http://www.w3.org/2000/svg" viewBox="0 0 576 512"><!--! Font Awesome Pro 7.1.0 by @fontawesome - https://fontawesome.com License - https://fontawesome.com/license (Commercial License) Copyright 2025 Fonticons, Inc. --><path opacity=".4" fill="currentColor" d="M288.1-32c9 0 17.3 5.1 21.4 13.1L383 125.3 542.9 150.7c8.9 1.4 16.3 7.7 19.1 16.3s.5 18-5.8 24.4L441.7 305.9 467 465.8c1.4 8.9-2.3 17.9-9.6 23.2s-17 6.1-25 2c-48.1-24.5-96.2-48.9-144.3-73.4 0-149.9 0-299.7 0-449.6z"/><path fill="currentColor" d="M288.1-32l0 0c-9 0-17.3 5.1-21.4 13.1L193.1 125.3 33.2 150.7c-8.9 1.4-16.3 7.7-19.1 16.3s-.5 18 5.8 24.4l114.4 114.5-25.2 159.9c-1.4 8.9 2.3 17.9 9.6 23.2s16.9 6.1 25 2l144.3-73.4 0 0 0-449.6z"/></svg>