<svg xmlns="http://www.w3.org/2000/svg" viewBox="0 0 512 512"><!--! Font Awesome Pro 7.1.0 by @fontawesome - https://fontawesome.com License - https://fontawesome.com/license (Commercial License) Copyright 2025 Fonticons, Inc. --><path opacity=".4" fill="currentColor" d="M64 213.3l0 85.3 42.4 14.1C99.7 295.1 96 276 96 256s3.7-39.1 10.4-56.8L64 213.3zM160 256a96 96 0 1 0 192 0 96 96 0 1 0 -192 0zm144 0a48 48 0 1 1 -96 0 48 48 0 1 1 96 0zm101.6-56.8C412.3 216.9 416 236 416 256s-3.7 39.1-10.4 56.8l42.4-14.1 0-85.3-42.4-14.1z"/><path fill="currentColor" d="M32 32c17.7 0 32 14.3 32 32l0 384c0 17.7-14.3 32-32 32S0 465.7 0 448L0 64C0 46.3 14.3 32 32 32zm448 0c17.7 0 32 14.3 32 32l0 384c0 17.7-14.3 32-32 32s-32-14.3-32-32l0-384c0-17.7 14.3-32 32-32zM352 256a96 96 0 1 0 -192 0 96 96 0 1 0 192 0zM96 256a160 160 0 1 1 320 0 160 160 0 1 1 -320 0z"/></svg>