<svg xmlns="http://www.w3.org/2000/svg" viewBox="0 0 448 512"><!--! Font Awesome Pro 7.1.0 by @fontawesome - https://fontawesome.com License - https://fontawesome.com/license (Commercial License) Copyright 2025 Fonticons, Inc. --><path opacity=".4" fill="currentColor" d="M8.5 288c0-111.2 84-202.7 192-214.7 7.9-.9 15.9-1.3 24-1.3s16.1 .4 24 1.3c46.8 5.2 89.1 25.3 122 55.5 15.8 14.5 29.5 31.4 40.5 50.1 18.8 32 29.6 69.3 29.6 109.2 0 119.3-96.7 216-216 216S8.5 407.3 8.5 288zm100-48c0 11 9 20 20 20s20-9 20-20c0-6.6 5.4-12 12-12s12 5.4 12 12l0 3.8c0 4.3-1.2 8.4-3.4 12.1L112.4 348c-2.5 4.1-3.9 8.9-3.9 13.8 0 14.5 11.7 26.2 26.2 26.2l57.8 0c11 0 20-9 20-20s-9-20-20-20l-33.1 0 43.8-71.2c6.1-9.9 9.3-21.4 9.3-33l0-3.8c0-28.7-23.3-52-52-52s-52 23.3-52 52zm128 0l0 96c0 28.7 23.3 52 52 52s52-23.3 52-52l0-96c0-28.7-23.3-52-52-52s-52 23.3-52 52zm40 0c0-6.6 5.4-12 12-12s12 5.4 12 12l0 96c0 6.6-5.4 12-12 12s-12-5.4-12-12l0-96z"/><path fill="currentColor" d="M168.5 0l112 0c13.3 0 24 10.7 24 24s-10.7 24-24 24l-32 0 0 25.3c-7.9-.9-15.9-1.3-24-1.3s-16.1 .4-24 1.3l0-25.3-32 0c-13.3 0-24-10.7-24-24s10.7-24 24-24zM410.9 178.8c-10.9-18.7-24.6-35.5-40.5-50.1l23.4-23.4c12.5-12.5 32.8-12.5 45.3 0s12.5 32.8 0 45.3l-28.2 28.2zM108.5 240c0-28.7 23.3-52 52-52s52 23.3 52 52l0 3.8c0 11.7-3.2 23.1-9.3 33l-43.8 71.2 33.1 0c11 0 20 9 20 20s-9 20-20 20l-57.8 0c-14.5 0-26.2-11.7-26.2-26.2 0-4.9 1.3-9.6 3.9-13.8l56.7-92.1c2.2-3.6 3.4-7.8 3.4-12.1l0-3.8c0-6.6-5.4-12-12-12s-12 5.4-12 12c0 11-9 20-20 20s-20-9-20-20zm180-52c28.7 0 52 23.3 52 52l0 96c0 28.7-23.3 52-52 52s-52-23.3-52-52l0-96c0-28.7 23.3-52 52-52zm-12 52l0 96c0 6.6 5.4 12 12 12s12-5.4 12-12l0-96c0-6.6-5.4-12-12-12s-12 5.4-12 12z"/></svg>