<svg xmlns="http://www.w3.org/2000/svg" viewBox="0 0 640 512"><!--! Font Awesome Pro 7.1.0 by @fontawesome - https://fontawesome.com License - https://fontawesome.com/license (Commercial License) Copyright 2025 Fonticons, Inc. --><path opacity=".4" fill="currentColor" d="M38.9 152.5c-12.8 43.7 20 87.5 65.6 87.5 26.3 0 49.4-14.9 60.8-37.1 11.6 21.9 34.6 37.1 61.4 37.1 26.6 0 49.7-15 61.3-37 11.6 22 34.7 37 61.3 37 26.8 0 49.8-15.1 61.4-37.1 4.2 8.2 10.1 15.5 17.1 21.3 23.5-29.4 59.6-48.2 100.1-48.2 4 0 7.9 .2 11.8 .5 .6-7.8-.2-15.9-2.6-24L513.8 72.3C506.8 48.4 484.9 32 460 32L116 32C91.1 32 69.2 48.4 62.2 72.3L38.9 152.5zM64 280.8L64 432c0 26.5 21.5 48 48 48l256 0 0-80.1c0-17.5 4.7-33.8 12.8-47.9l-252.8 0 0-66.4c-7.6 1.6-15.5 2.4-23.5 2.4-14.4 0-28-2.6-40.5-7.2z"/><path fill="currentColor" d="M496 352l0-47.9c0-17.7 14.3-32 32-32s32 14.3 32 32l0 47.9-64 0zm-48 2.7c-18.6 6.6-32 24.4-32 45.3l0 96c0 26.5 21.5 48 48 48l128 0c26.5 0 48-21.5 48-48l0-96c0-20.9-13.4-38.7-32-45.3l0-50.6c0-44.2-35.8-80-80-80s-80 35.8-80 80l0 50.6z"/></svg>