<svg xmlns="http://www.w3.org/2000/svg" viewBox="0 0 512 512"><!--! Font Awesome Pro 7.1.0 by @fontawesome - https://fontawesome.com License - https://fontawesome.com/license (Commercial License) Copyright 2025 Fonticons, Inc. --><path opacity=".4" fill="currentColor" d="M32.4 226.8c11.2 8.3 25.1 13.2 40.5 13.2 8.2 0 16.2-1.5 23.5-4.2l0 116.2 320 0 0-116.2c7.4 2.7 15.3 4.2 23.5 4.2 15.4 0 29.3-5 40.5-13.2l0 205.2c0 26.5-21.5 48-48 48l-352 0c-26.5 0-48-21.5-48-48l0-205.2z"/><path fill="currentColor" d="M84.4 32C59.5 32 37.6 48.4 30.7 72.3L7.3 152.5c-12.8 43.7 20 87.5 65.6 87.5 26.3 0 49.4-14.9 60.8-37.1 11.6 21.9 34.6 37.1 61.4 37.1 26.6 0 49.7-15 61.3-37 11.6 22 34.7 37 61.3 37 26.8 0 49.8-15.1 61.4-37.1 11.4 22.1 34.5 37.1 60.8 37.1 45.6 0 78.4-43.7 65.6-87.5L482.2 72.3c-7-23.9-28.9-40.3-53.8-40.3l-344 0z"/></svg>