<svg xmlns="http://www.w3.org/2000/svg" viewBox="0 0 576 512"><!--! Font Awesome Pro 7.1.0 by @fontawesome - https://fontawesome.com License - https://fontawesome.com/license (Commercial License) Copyright 2025 Fonticons, Inc. --><path opacity=".4" fill="currentColor" d="M22.3 145.8c-3.1 7.4-2.2 15.8 2.2 22.5L82.7 256 24.5 343.8c-4.4 6.7-5.2 15.1-2.2 22.5s9.6 12.8 17.4 14.3l89.9 18.2 60.6-60.6c-18.6-22.2-29.8-50.9-29.8-82.2 0-70.7 57.3-128 128-128 31.3 0 59.9 11.2 82.2 29.8L431.1 97.3 413 7.3C411.4-.5 406-7 398.6-10.1s-15.8-2.2-22.5 2.2L288.4 50.3 200.6-7.9c-6.7-4.4-15.1-5.2-22.5-2.2S165.4-.5 163.9 7.3L143 110.6 39.7 131.4c-7.8 1.6-14.4 7-17.4 14.3zM208.4 256c0 18 6 34.6 16 48l112-112c-13.4-10-30-16-48-16-44.2 0-80 35.8-80 80z"/><path fill="currentColor" d="M512.4 192a32 32 0 1 0 0-64 32 32 0 1 0 0 64zm-80 80a32 32 0 1 0 0-64 32 32 0 1 0 0 64zm112 48a32 32 0 1 0 -64 0 32 32 0 1 0 64 0zm-240 80a32 32 0 1 0 -64 0 32 32 0 1 0 64 0zm-80 80a32 32 0 1 0 -64 0 32 32 0 1 0 64 0zm128 32a32 32 0 1 0 0-64 32 32 0 1 0 0 64zm192-32a32 32 0 1 0 -64 0 32 32 0 1 0 64 0zm-112-48a32 32 0 1 0 0-64 32 32 0 1 0 0 64zm-48-112a32 32 0 1 0 -64 0 32 32 0 1 0 64 0z"/></svg>