<svg xmlns="http://www.w3.org/2000/svg" viewBox="0 0 640 512"><!--! Font Awesome Pro 7.1.0 by @fontawesome - https://fontawesome.com License - https://fontawesome.com/license (Commercial License) Copyright 2025 Fonticons, Inc. --><path opacity=".4" fill="currentColor" d="M53.9 145.8c-3.1 7.4-2.2 15.8 2.2 22.5l58.2 87.8-58.2 87.8c-4.4 6.7-5.2 15.1-2.2 22.5s9.6 12.8 17.4 14.3l103.2 20.9 20.9 103.2c1.6 7.8 7 14.4 14.3 17.4s15.8 2.2 22.5-2.2l41.5-27.5c-1.1-6.6-1.7-13.4-1.7-20.4 0-34.9 14.9-66.4 38.8-88.3-66.4-4.7-118.8-60.1-118.8-127.7 0-70.7 57.3-128 128-128s128 57.3 128 128c0 24.5-6.9 47.3-18.8 66.8 19.4-11.9 42.3-18.8 66.8-18.8 30.4 0 58.4 10.6 80.3 28.3l-50.7-76.3 58.2-87.8c4.4-6.7 5.2-15.1 2.2-22.5s-9.6-12.8-17.4-14.3L465.4 110.6 444.6 7.3C443-.5 437.6-7 430.2-10.1s-15.8-2.2-22.5 2.2L320 50.3 232.2-7.9c-6.7-4.4-15.1-5.2-22.5-2.2S197-.5 195.4 7.3L174.6 110.6 71.3 131.4c-7.8 1.6-14.4 7-17.4 14.3zM240 256a80 80 0 1 0 160 0 80 80 0 1 0 -160 0z"/><path fill="currentColor" d="M640 480c0 35.3-28.7 64-64 64l-184 0c-39.8 0-72-32.2-72-72s32.2-72 72-72c10.1 0 19.7 2.1 28.4 5.8 10.8-31.3 40.6-53.8 75.6-53.8 38.7 0 71 27.5 78.4 64 .5 0 1.1 0 1.6 0 35.3 0 64 28.7 64 64z"/></svg>