<svg xmlns="http://www.w3.org/2000/svg" viewBox="0 0 512 512"><!--! Font Awesome Pro 7.1.0 by @fontawesome - https://fontawesome.com License - https://fontawesome.com/license (Commercial License) Copyright 2025 Fonticons, Inc. --><path opacity=".4" fill="currentColor" d="M0 16L0 66.7c0 8.5 3.4 16.6 9.4 22.6L320 400 400 320 89.4 9.4C83.4 3.4 75.2 0 66.7 0L16 0C7.2 0 0 7.2 0 16zM112 320l80 80 30.1-30.1-80-80-30.1 30.1zM289.9 142.1l80 80 132.7-132.7c6-6 9.4-14.1 9.4-22.6L512 16c0-8.8-7.2-16-16-16L445.3 0c-8.5 0-16.6 3.4-22.6 9.4L289.9 142.1z"/><path fill="currentColor" d="M22.6 441.4L64 400 37.5 320.4c-3.4-10.1-.7-21.1 6.8-28.6 10.9-10.9 28.6-10.9 39.6 0L220.2 428.2c10.9 10.9 10.9 28.6 0 39.6-7.5 7.5-18.6 10.1-28.6 6.8L112 448 70.6 489.4c-12.5 12.5-32.8 12.5-45.3 0l-2.7-2.7c-12.5-12.5-12.5-32.8 0-45.3zm418.7 48L400 448 320.4 474.5c-10 3.4-21.1 .7-28.6-6.8-10.9-10.9-10.9-28.6 0-39.6L428.2 291.8c10.9-10.9 28.6-10.9 39.6 0 7.5 7.5 10.1 18.6 6.8 28.6L448 400 489.4 441.4c12.5 12.5 12.5 32.8 0 45.3l-2.7 2.7c-12.5 12.5-32.8 12.5-45.3 0z"/></svg>