<svg xmlns="http://www.w3.org/2000/svg" viewBox="0 0 448 512"><!--! Font Awesome Pro 7.1.0 by @fontawesome - https://fontawesome.com License - https://fontawesome.com/license (Commercial License) Copyright 2025 Fonticons, Inc. --><path opacity=".4" fill="currentColor" d="M112 160l48 0 0 64c0 4.4 3.6 8 8 8l16 0c13.3 0 24 10.7 24 24s-10.7 24-24 24l-16 0c-2.7 0-5.4-.2-8-.6l0 40.6c0 4.4 3.6 8 8 8l48 0c13.3 0 24 10.7 24 24s-10.7 24-24 24l-48 0c-30.9 0-56-25.1-56-56l0-160zm144 80c0-8.8 7.2-16 16-16l64 0c8.8 0 16 7.2 16 16l0 32c0 8.8-7.2 16-16 16l-64 0c-8.8 0-16-7.2-16-16l0-32zm32 96c0-8.8 7.2-16 16-16l32 0c8.8 0 16 7.2 16 16l0 32c0 8.8-7.2 16-16 16l-32 0c-8.8 0-16-7.2-16-16l0-32z"/><path fill="currentColor" d="M64 32C28.7 32 0 60.7 0 96L0 416c0 35.3 28.7 64 64 64l320 0c35.3 0 64-28.7 64-64l0-320c0-35.3-28.7-64-64-64L64 32zM384 160l0 256-320 0 0-256 320 0z"/></svg>