<svg xmlns="http://www.w3.org/2000/svg" viewBox="0 0 576 512"><!--! Font Awesome Pro 7.1.0 by @fontawesome - https://fontawesome.com License - https://fontawesome.com/license (Commercial License) Copyright 2025 Fonticons, Inc. --><path opacity=".4" fill="currentColor" d="M0 128C0 92.7 28.7 64 64 64l448 0c35.3 0 64 28.7 64 64l0 256c0 35.3-28.7 64-64 64L64 448c-35.3 0-64-28.7-64-64L0 128zm64 32l0 32c0 17.7 14.3 32 32 32l160 0c17.7 0 32-14.3 32-32l0-32c0-17.7-14.3-32-32-32L96 128c-17.7 0-32 14.3-32 32zm0 128a24 24 0 1 0 48 0 24 24 0 1 0 -48 0zm0 88c0 13.3 10.7 24 24 24l136 0c13.3 0 24-10.7 24-24s-10.7-24-24-24L88 352c-13.3 0-24 10.7-24 24zm80-88a24 24 0 1 0 48 0 24 24 0 1 0 -48 0zm80 0a24 24 0 1 0 48 0 24 24 0 1 0 -48 0zm96 88c0 13.3 10.7 24 24 24l144 0c13.3 0 24-10.7 24-24s-10.7-24-24-24l-144 0c-13.3 0-24 10.7-24 24zm48-184a64 64 0 1 0 128 0 64 64 0 1 0 -128 0z"/><path fill="currentColor" d="M64 160c0-17.7 14.3-32 32-32l160 0c17.7 0 32 14.3 32 32l0 32c0 17.7-14.3 32-32 32L96 224c-17.7 0-32-14.3-32-32l0-32zM224 288a24 24 0 1 1 48 0 24 24 0 1 1 -48 0zM432 128a64 64 0 1 1 0 128 64 64 0 1 1 0-128zM64 288a24 24 0 1 1 48 0 24 24 0 1 1 -48 0zm104-24a24 24 0 1 1 0 48 24 24 0 1 1 0-48z"/></svg>