<svg xmlns="http://www.w3.org/2000/svg" viewBox="0 0 512 512"><!--! Font Awesome Pro 7.1.0 by @fontawesome - https://fontawesome.com License - https://fontawesome.com/license (Commercial License) Copyright 2025 Fonticons, Inc. --><path opacity=".4" fill="currentColor" d="M1.8 220.7l18.9 52.5c2.4 6.7 2.4 14 0 20.7L1.8 346.5C-2.3 358 .8 370.7 9.4 378.9 39.6 271.1 138.5 192 256 192s216.4 79.1 246.6 186.9c8.6-8.3 11.8-21 7.6-32.5L491.3 294c-2.4-6.7-2.4-14 0-20.7l18.9-52.5c4.7-13.1 0-27.8-11.6-35.7l-46.1-31.4c-5.9-4-10.2-9.9-12.2-16.8L424.7 83.3c-3.9-13.4-16.4-22.5-30.4-22.1L338.6 63c-7.1 .2-14.1-2-19.7-6.4L274.8 22.4c-11-8.6-26.5-8.6-37.5 0L193.1 56.6c-5.6 4.4-12.6 6.6-19.7 6.4l-55.8-1.7c-14-.4-26.5 8.6-30.4 22.1L71.7 136.9c-2 6.8-6.3 12.8-12.2 16.8L13.4 185C1.9 192.9-2.9 207.6 1.8 220.7z"/><path fill="currentColor" d="M480 480c17.7 0 32-14.3 32-32 0-141.4-114.6-256-256-256S0 306.6 0 448c0 17.7 14.3 32 32 32l448 0zM88 400a24 24 0 1 1 48 0 24 24 0 1 1 -48 0zm88-88a24 24 0 1 1 0 48 24 24 0 1 1 0-48z"/></svg>