<svg xmlns="http://www.w3.org/2000/svg" viewBox="0 0 512 512"><!--! Font Awesome Pro 7.1.0 by @fontawesome - https://fontawesome.com License - https://fontawesome.com/license (Commercial License) Copyright 2025 Fonticons, Inc. --><path opacity=".4" fill="currentColor" d="M7 471c-9.4 9.4-9.4 24.6 0 33.9s24.6 9.4 33.9 0l89-89 88.8 0c14.9 0 29.1-5.9 39.6-16.4L481.8 176.2c19.4-19.4 30.2-45.6 30.2-73 0-57-46.2-103.2-103.2-103.2-27.4 0-53.6 10.9-73 30.2-2.6 2.6-5.2 5.2-7.8 7.8l41 41c9.4 9.4 9.4 24.6 0 33.9s-24.6 9.4-33.9 0l-41-41c-15.4 15.3-30.7 30.7-46.1 46.1l41 41c9.4 9.4 9.4 24.6 0 33.9s-24.6 9.4-33.9 0l-41-41c-15.4 15.3-30.7 30.7-46.1 46.1l41 41c9.4 9.4 9.4 24.6 0 33.9s-24.6 9.4-33.9 0l-41-41c-7.2 7.2-14.4 14.4-21.7 21.7-10.5 10.5-16.4 24.7-16.4 39.6l0 88.8-89 89z"/><path fill="currentColor" d="M134.1 232l41 41c9.4 9.4 24.6 9.4 33.9 0s9.4-24.6 0-33.9l-41-41-33.9 33.9zm80-80l41 41c9.4 9.4 24.6 9.4 33.9 0s9.4-24.6 0-33.9l-41-41-33.9 33.9zm80-80l41 41c9.4 9.4 24.6 9.4 33.9 0s9.4-24.6 0-33.9l-41-41-33.9 33.9z"/></svg>