<svg xmlns="http://www.w3.org/2000/svg" viewBox="0 0 512 512"><!--! Font Awesome Pro 7.1.0 by @fontawesome - https://fontawesome.com License - https://fontawesome.com/license (Commercial License) Copyright 2025 Fonticons, Inc. --><path opacity=".4" fill="currentColor" d="M50 199c-1.6 10.2 1.7 20.5 9 27.8 143.3 143.3 150.9 150.9 226.3 226.3 7.3 7.3 17.6 10.6 27.8 9s18.9-8.1 23.5-17.3l1.4-2.8c19.6-39.1 22.7-83.1 10.7-123.2l98.2-114.6 10.5 10.5c12.5 12.5 32.8 12.5 45.3 0s12.5-32.8 0-45.3l-160-160c-12.5-12.5-32.8-12.5-45.3 0s-12.5 32.8 0 45.3l10.5 10.5-114.6 98.2c-40-11.9-84-8.8-123.2 10.7l-2.8 1.4C58.1 180.1 51.7 188.8 50 199z"/><path fill="currentColor" d="M149.5 317.3L9.4 457.4c-12.5 12.5-12.5 32.8 0 45.3s32.8 12.5 45.3 0l140.1-140.1-45.3-45.3z"/></svg>