<svg xmlns="http://www.w3.org/2000/svg" viewBox="0 0 448 512"><!--! Font Awesome Pro 7.1.0 by @fontawesome - https://fontawesome.com License - https://fontawesome.com/license (Commercial License) Copyright 2025 Fonticons, Inc. --><path opacity=".4" fill="currentColor" d="M0 32C0 14.3 14.3 0 32 0L393.4 0c12.5 0 22.6 10.1 22.6 22.6 0 6-2.4 11.8-6.6 16L370.8 77.2c-5.5 5.5-9.9 11.9-13 18.8L5 96C1.7 79.6 0 62.7 0 45.6L0 32zM19.7 144l336 0c2.2 6.1 5.2 11.9 9.2 17.1L412 224 72.4 224C49.9 200.8 32 173.7 19.7 144zM136 272l303.4 0c5.6 15.9 8.6 32.8 8.6 49.9 0 10.2-1 20.2-3 30.1l-179.8 0c-6.7-6.6-14.3-12.4-22.5-17.3-35.5-20.9-71.1-41.8-106.6-62.7zM291.9 488.6l5.9-35.7c3-17.8 1.7-35.9-3.6-53l131.8 0c-6.1 10-13.5 19.4-21.9 27.9l-78.2 78.2c-3.8 3.8-8.9 5.9-14.2 5.9-12.4 0-21.8-11.1-19.8-23.4z"/><path fill="currentColor" d="M19.7 144C13.3 128.6 8.3 112.5 5 96l352.8 0c-3.8 8.3-5.8 17.3-5.8 26.6 0 7.3 1.3 14.6 3.7 21.4l-336 0zM136 272l-9.8-5.8c-20-11.8-38-26-53.8-42.2l339.6 0 6 8c9.2 12.2 16.4 25.7 21.4 40L136 272zM294.3 400c-1.8-6-4.2-11.8-7-17.5-5.7-11.4-13.2-21.7-22.1-30.5L445 352c-3.5 17-9.9 33.2-18.9 48l-131.8 0z"/></svg>