<svg xmlns="http://www.w3.org/2000/svg" viewBox="0 0 512 512"><!--! Font Awesome Pro 7.1.0 by @fontawesome - https://fontawesome.com License - https://fontawesome.com/license (Commercial License) Copyright 2025 Fonticons, Inc. --><path opacity=".4" fill="currentColor" d="M32 119.4c9.4 5.4 20.3 8.6 32 8.6s22.6-3.1 32-8.6l0 104.6 128 0 0-104.6c9.4 5.4 20.3 8.6 32 8.6s22.6-3.1 32-8.6l0 104.6 128 0 0-104.6c9.4 5.4 20.3 8.6 32 8.6s22.6-3.1 32-8.6L480 256c0 17.7-14.3 32-32 32l-160 0 0 104.6c-9.4-5.4-20.3-8.6-32-8.6s-22.6 3.1-32 8.6l0-104.6-128 0 0 104.6c-9.4-5.4-20.3-8.6-32-8.6s-22.6 3.1-32 8.6l0-273.1z"/><path fill="currentColor" d="M64 512a64 64 0 1 1 0-128 64 64 0 1 1 0 128zm192 0a64 64 0 1 1 0-128 64 64 0 1 1 0 128zM64 128A64 64 0 1 1 64 0 64 64 0 1 1 64 128zm192 0a64 64 0 1 1 0-128 64 64 0 1 1 0 128zm192 0a64 64 0 1 1 0-128 64 64 0 1 1 0 128z"/></svg>