<svg xmlns="http://www.w3.org/2000/svg" viewBox="0 0 576 512"><!--! Font Awesome Pro 7.1.0 by @fontawesome - https://fontawesome.com License - https://fontawesome.com/license (Commercial License) Copyright 2025 Fonticons, Inc. --><path opacity=".4" fill="currentColor" d="M0 304c0 4.1 2.7 7.6 6.6 8.7L32 320 39.3 345.4c1.1 3.9 4.7 6.6 8.7 6.6s7.6-2.7 8.7-6.6L64 320 89.4 312.7c3.9-1.1 6.6-4.7 6.6-8.7s-2.7-7.6-6.6-8.7L64 288 56.7 262.6c-1.1-3.9-4.7-6.6-8.7-6.6s-7.6 2.7-8.7 6.6L32 288 6.6 295.3C2.7 296.4 0 299.9 0 304zM480 80c0 4.1 2.7 7.6 6.6 8.7l25.4 7.3 7.3 25.4c1.1 3.9 4.7 6.6 8.7 6.6s7.6-2.7 8.7-6.6L544 96 569.4 88.7c3.9-1.1 6.6-4.7 6.6-8.7s-2.7-7.6-6.6-8.7L544 64 536.7 38.6c-1.1-3.9-4.7-6.6-8.7-6.6s-7.6 2.7-8.7 6.6L512 64 486.6 71.3c-3.9 1.1-6.6 4.7-6.6 8.7z"/><path fill="currentColor" d="M128 520c0-13.3 10.7-24 24-24l272 0c13.3 0 24 10.7 24 24s-10.7 24-24 24l-272 0c-13.3 0-24-10.7-24-24z"/></svg>