<svg xmlns="http://www.w3.org/2000/svg" viewBox="0 0 640 512"><!--! Font Awesome Pro 7.1.0 by @fontawesome - https://fontawesome.com License - https://fontawesome.com/license (Commercial License) Copyright 2025 Fonticons, Inc. --><path opacity=".4" fill="currentColor" d="M64 96l352 0-21.4 370.8c-1.5 25.4-22.5 45.2-47.9 45.2l-213.4 0c-25.4 0-46.5-19.8-47.9-45.2L64 96z"/><path fill="currentColor" d="M136.7 5.9C141.1-7.2 153.3-16 167.1-16l145.9 0c13.8 0 26 8.8 30.4 21.9L352 32 416 32c17.7 0 32 14.3 32 32s-14.3 32-32 32L64 96C46.3 96 32 81.7 32 64S46.3 32 64 32l64 0 8.7-26.1zM512 128l96 0c17.7 0 32 14.3 32 32s-14.3 32-32 32l-96 0c-17.7 0-32-14.3-32-32s14.3-32 32-32zM480 288c0-17.7 14.3-32 32-32l64 0c17.7 0 32 14.3 32 32s-14.3 32-32 32l-64 0c-17.7 0-32-14.3-32-32zm32 160a32 32 0 1 1 0-64 32 32 0 1 1 0 64z"/></svg>