<svg xmlns="http://www.w3.org/2000/svg" viewBox="0 0 576 512"><!--! Font Awesome Pro 7.1.0 by @fontawesome - https://fontawesome.com License - https://fontawesome.com/license (Commercial License) Copyright 2025 Fonticons, Inc. --><path opacity=".4" fill="currentColor" d="M225.6 470.5c-3 9.7-1.3 20.3 4.8 28.5s15.6 13 25.8 13l64 0c16.1 0 29.8-12 31.8-28 12.4-99-2.3-207.2-31.7-292-16 0-32 0-48 0-2.5 0-5-.6-7.1-1.7-5.5 5.5-11 11-16.5 16.5 4 10.8 7.8 26.2 9.7 47.2 4.2 46.5-1.6 116.8-32.7 216.4z"/><path fill="currentColor" d="M133.3 141.9L103 91.4c-3.1-5.2-10.6-5.2-13.7 0L69.7 124.1c-1.4 2.4-4 3.9-6.9 3.9l-46.7 0C7.3 128 .1 120.8 1.7 112.1 10.8 64.2 59.8 0 160.2 0 248.2 0 296.7 49.4 313.4 93.8 338.6 76.2 372.5 64 416.2 64 516.5 64 565.5 128.2 574.6 176.1 576.2 184.8 569 192 560.2 192l-46.7 0c-2.8 0-5.4-1.5-6.9-3.9L487 155.4c-3.1-5.2-10.6-5.2-13.7 0l-19.6 32.7c-1.4 2.4-4.1 3.9-6.9 3.9l-174.7 0c-2.5 0-5-.6-7.1-1.7L110 345.5c-6.2 6.2-16.5 6.3-21.4-1-27.4-40.3-38.2-120.3 32.7-191.3 4-4 8-7.7 12-11.2z"/></svg>