<svg xmlns="http://www.w3.org/2000/svg" viewBox="0 0 512 512"><!--! Font Awesome Pro 7.1.0 by @fontawesome - https://fontawesome.com License - https://fontawesome.com/license (Commercial License) Copyright 2025 Fonticons, Inc. --><path opacity=".4" fill="currentColor" d="M5.1 420.4c-7 12.4-6.8 27.5 .3 39.8S25.8 480 40 480l432 0c14.2 0 27.4-7.5 34.5-19.8s7.3-27.4 .3-39.8l-120-213.3-47 47 91.1 161.9-349.9 0 175-311 59.4 105.7 47-47-71.6-127.2c-.9-1.5-1.8-3-2.9-4.4l0-32c0-17.7-14.3-32-32-32S224-17.7 224 0l0 32c-1 1.4-2 2.9-2.9 4.4l-216 384z"/><path fill="currentColor" d="M505 89c9.4-9.4 9.4-24.6 0-33.9s-24.6-9.4-33.9 0L274.8 251.2c-5.9-2.1-12.2-3.2-18.8-3.2-30.9 0-56 25.1-56 56s25.1 56 56 56 56-25.1 56-56c0-6.6-1.1-12.9-3.2-18.8L505 89z"/></svg>