<svg xmlns="http://www.w3.org/2000/svg" viewBox="0 0 512 512"><!--! Font Awesome Pro 7.1.0 by @fontawesome - https://fontawesome.com License - https://fontawesome.com/license (Commercial License) Copyright 2025 Fonticons, Inc. --><path opacity=".4" fill="currentColor" d="M4.8 421c-6.7 12.4-6.4 27.4 .8 39.5S25.9 480 40 480l432 0c14.1 0 27.1-7.4 34.4-19.5s7.5-27.1 .8-39.5L291.2 21C284.2 8.1 270.7 0 256 0s-28.2 8.1-35.2 21L4.8 421zm93.8-28.1l34.7-69.7c2-4 5.6-7 10-8.3s9-.6 12.8 1.8l60.3 37.7c4.7 2.9 7.5 8.1 7.5 13.6l0 32c0 8.8-7.2 16-16 16s-16-7.2-16-16l0-23.1-37.9-23.7-26.8 53.9c-3.9 7.9-13.5 11.1-21.5 7.2s-11.1-13.5-7.2-21.5zM160.5 268c1.8-7 8.2-12 15.5-12l36.2 0c18.2 0 34.8 10.3 42.9 26.5l10.8 21.6 56.7 34 11.3-20.6c6.1-11.1 22-11.1 28.1 0l41 74.7c5.8 10.7-1.9 23.7-14 23.7l-82 0c-12.2 0-19.9-13-14-23.7l14.3-26.1-61.6-37-77.5-43.3c-6.4-3.6-9.5-11-7.7-18zM272 192a32 32 0 1 1 -64 0 32 32 0 1 1 64 0z"/><path fill="currentColor" d="M240 224a32 32 0 1 0 0-64 32 32 0 1 0 0 64zm-64 32c-7.3 0-13.6 4.9-15.5 12s1.3 14.4 7.7 18l77.5 43.3 61.6 37-14.3 26.1c-5.8 10.7 1.9 23.7 14 23.7l82 0c12.2 0 19.9-13 14-23.7l-41-74.7c-6.1-11.1-22-11.1-28.1 0l-11.3 20.6-56.7-34-10.8-21.6C247 266.3 230.4 256 212.2 256L176 256zm-32.7 58.9c-4.3 1.2-8 4.2-10 8.3L98.6 392.9c-3.9 7.9-.7 17.5 7.2 21.5s17.5 .7 21.5-7.2l26.8-53.9 37.9 23.7 0 23.1c0 8.8 7.2 16 16 16s16-7.2 16-16l0-32c0-5.5-2.8-10.6-7.5-13.6l-60.3-37.7c-3.8-2.4-8.5-3.1-12.8-1.8z"/></svg>