<svg xmlns="http://www.w3.org/2000/svg" viewBox="0 0 576 512"><!--! Font Awesome Pro 7.1.0 by @fontawesome - https://fontawesome.com License - https://fontawesome.com/license (Commercial License) Copyright 2025 Fonticons, Inc. --><path opacity=".4" fill="currentColor" d="M1.4 489.2c5.1 16.9 22.9 26.5 39.8 21.5l315.5-94.6 43.7 0c-.2 2.6-.4 5.3-.4 8 0 48.6 39.4 88 88 88s88-39.4 88-88l0-392-176 0c-44.2 0-80 35.8-80 80l0 248.2-297.2 89.2C5.9 454.4-3.7 472.3 1.4 489.2zM528 424a40 40 0 1 1 -80 0 40 40 0 1 1 80 0z"/><path fill="currentColor" d="M272 93.5L60.5 158.2c-30.7 9.4-49.2 39.7-44.6 70.5 8-6.7 17.4-12 28.1-15.2 37-11.3 75.9 5.5 93.7 38.3L272 210.6 272 93.5zm0 167.3L153.2 297.1c-15.3 4.7-30.6 9.4-45.9 14l-9.4-30.6c-5.2-16.9-23.1-26.4-40-21.2s-26.4 23.1-21.2 40l28.1 91.8 207.2-63.3 0-66.9z"/></svg>