<svg xmlns="http://www.w3.org/2000/svg" viewBox="0 0 576 512"><!--! Font Awesome Pro 7.1.0 by @fontawesome - https://fontawesome.com License - https://fontawesome.com/license (Commercial License) Copyright 2025 Fonticons, Inc. --><path opacity=".4" fill="currentColor" d="M0 96C0 60.7 28.7 32 64 32l288 0c35.3 0 64 28.7 64 64l0 32 50.7 0c17 0 33.3 6.7 45.3 18.7L557.3 192c12 12 18.7 28.3 18.7 45.3L576 384c0 35.3-28.7 64-64 64l-3.3 0c-10.4 36.9-44.4 64-84.7 64s-74.2-27.1-84.7-64l-102.6 0c-10.4 36.9-44.4 64-84.7 64s-74.2-27.1-84.7-64L64 448c-35.3 0-64-28.7-64-64L0 96zm80 16l0 80c0 23.8 17.3 43.5 40 47.3l0 72.7c0 13.3 10.7 24 24 24s24-10.7 24-24l0-72.7c22.7-3.8 40-23.6 40-47.3l0-80c0-8.8-7.2-16-16-16s-16 7.2-16 16l0 64-16 0 0-64c0-8.8-7.2-16-16-16s-16 7.2-16 16l0 64-16 0 0-64c0-8.8-7.2-16-16-16s-16 7.2-16 16zm32 312a40 40 0 1 0 80 0 40 40 0 1 0 -80 0zM240 156l0 68c0 17.7 14.3 32 32 32l0 56c0 13.3 10.7 24 24 24s24-10.7 24-24l0-196c0-11-9-20-20-20-33.1 0-60 26.9-60 60zM384 424a40 40 0 1 0 80 0 40 40 0 1 0 -80 0zm32-232l0 96 96 0 0-50.7-45.3-45.3-50.7 0z"/><path fill="currentColor" d="M96 96c8.8 0 16 7.2 16 16l0 64 16 0 0-64c0-8.8 7.2-16 16-16s16 7.2 16 16l0 64 16 0 0-64c0-8.8 7.2-16 16-16s16 7.2 16 16l0 80c0 23.8-17.3 43.5-40 47.3l0 72.7c0 13.3-10.7 24-24 24s-24-10.7-24-24l0-72.7c-22.7-3.8-40-23.6-40-47.3l0-80c0-8.8 7.2-16 16-16zM272 256c-17.7 0-32-14.3-32-32l0-68c0-33.1 26.9-60 60-60 11 0 20 9 20 20l0 196c0 13.3-10.7 24-24 24s-24-10.7-24-24l0-56z"/></svg>