<svg xmlns="http://www.w3.org/2000/svg" viewBox="0 0 576 512"><!--! Font Awesome Pro 7.1.0 by @fontawesome - https://fontawesome.com License - https://fontawesome.com/license (Commercial License) Copyright 2025 Fonticons, Inc. --><path opacity=".4" fill="currentColor" d="M0 376l0 16c0 12.1 8.9 22.1 20.6 23.8 2.2 7.6 5.3 14.9 9 21.8-7 9.4-6.3 22.8 2.3 31.3l11.3 11.3c8.6 8.6 21.9 9.3 31.3 2.2 6.8 3.7 14.1 6.8 21.7 9 1.7 11.6 11.7 20.6 23.8 20.6l16 0c12.1 0 22.1-8.9 23.8-20.6 7.6-2.2 14.9-5.3 21.7-9 9.4 7 22.8 6.3 31.3-2.2l11.3-11.3c8.6-8.6 9.3-21.9 2.3-31.3 3.7-6.8 6.8-14.1 9-21.7 11.6-1.7 20.6-11.7 20.6-23.8l0-16c0-12.1-8.9-22.1-20.6-23.8-2.2-7.6-5.3-14.9-9-21.7 2.4-3.2 3.9-6.8 4.5-10.5 1.2-7.4-1-15.2-6.7-20.9l-11.3-11.3c-8.6-8.6-21.9-9.3-31.3-2.2-6.8-3.7-14.1-6.8-21.7-9-1.7-11.6-11.7-20.6-23.8-20.6l-16 0c-12.1 0-22.1 8.9-23.8 20.6-7.6 2.2-14.9 5.3-21.7 9-9.4-7.1-22.8-6.3-31.3 2.2L31.8 299.1c-4.2 4.2-6.5 9.5-6.9 14.9-.5 5.7 1.1 11.6 4.7 16.4-3.7 6.9-6.8 14.1-9 21.8-11.6 1.7-20.6 11.7-20.6 23.8zm176 8a48 48 0 1 1 -96 0 48 48 0 1 1 96 0zm144-8l0 16c0 12.1 8.9 22.1 20.6 23.8 2.2 7.6 5.3 14.9 9 21.8-7 9.4-6.3 22.8 2.2 31.3l11.3 11.3c8.5 8.6 21.9 9.3 31.3 2.2 6.8 3.7 14.1 6.8 21.7 9 1.7 11.6 11.7 20.6 23.8 20.6l16 0c12.1 0 22.1-8.9 23.8-20.6 7.6-2.2 14.9-5.3 21.8-9 9.4 7 22.8 6.3 31.3-2.2l11.3-11.3c8.6-8.6 9.3-21.9 2.2-31.3 3.7-6.8 6.8-14.1 9-21.7 11.6-1.7 20.6-11.7 20.6-23.8l0-16c0-12.1-8.9-22.1-20.6-23.8-2.2-7.6-5.3-14.9-9-21.7 3.6-4.8 5.2-10.7 4.7-16.4-.5-5.4-2.8-10.8-6.9-14.9l-11.3-11.3c-8.6-8.6-21.9-9.3-31.3-2.2-6.9-3.7-14.1-6.8-21.8-9-1.7-11.6-11.7-20.6-23.8-20.6l-16 0c-12.1 0-22.1 8.9-23.8 20.6-7.6 2.2-14.9 5.3-21.7 9-9.4-7.1-22.8-6.3-31.3 2.2l-11.3 11.3c-5.7 5.7-7.9 13.5-6.7 20.9 .6 3.7 2.1 7.3 4.5 10.5-3.7 6.9-6.8 14.1-9 21.8-11.6 1.7-20.6 11.7-20.6 23.8zm176 8a48 48 0 1 1 -96 0 48 48 0 1 1 96 0z"/><path fill="currentColor" d="M336 96l48 64-128 0 0-64 80 0zm128 64L387.2 57.6C375.1 41.5 356.1 32 336 32L224 32c-17.7 0-32 14.3-32 32l0 96-144 0c-26.5 0-48 21.5-48 48l0 64c0 18.1 10.1 33.9 24.9 42.1 .5-5.4 2.8-10.8 6.9-14.9l11.3-11.3c8.6-8.6 21.9-9.3 31.3-2.2 6.8-3.7 14.1-6.8 21.7-9 1.7-11.6 11.7-20.6 23.8-20.6l16 0c12.1 0 22.1 8.9 23.8 20.6 7.6 2.2 14.9 5.3 21.7 9 9.4-7 22.8-6.3 31.3 2.2l11.3 11.3c5.7 5.7 7.9 13.5 6.7 20.9l114.2 0c-1.2-7.4 1-15.2 6.7-20.9l11.3-11.3c8.6-8.6 21.9-9.3 31.3-2.2 6.8-3.7 14.1-6.8 21.7-9 1.7-11.6 11.7-20.6 23.8-20.6l16 0c12.1 0 22.1 8.9 23.8 20.6 7.6 2.2 14.9 5.3 21.8 9 9.4-7 22.8-6.3 31.3 2.2l11.3 11.3c4.2 4.2 6.5 9.5 6.9 14.9 14.8-8.2 24.9-23.9 24.9-42.1l0-64c0-26.5-21.5-48-48-48l-64 0z"/></svg>