<svg xmlns="http://www.w3.org/2000/svg" viewBox="0 0 640 512"><!--! Font Awesome Pro 7.1.0 by @fontawesome - https://fontawesome.com License - https://fontawesome.com/license (Commercial License) Copyright 2025 Fonticons, Inc. --><path opacity=".4" fill="currentColor" d="M64 320c0 70.7 57.3 128 128 128l192 0c70.7 0 128-57.3 128-128 0-14.1-2.3-27.6-6.5-40.3-24.7-14-52-23.5-80.6-23.7l-73 0 0 128-40 0 0-128-48 0 0 128-40 0 0-128-142.9 0C70.2 274.8 64 296.7 64 320zm64 0c0-29.8 20.4-54.9 48-62l0 124c-27.6-7.1-48-32.2-48-62zm48-168l0 40 48 0 0-40c0-13.3-10.7-24-24-24s-24 10.7-24 24zm88 0l0 40 48 0 0-40c0-13.3-10.7-24-24-24s-24 10.7-24 24zm88 0l0 40 48 0 0-40c0-13.3-10.7-24-24-24s-24 10.7-24 24zm48 106c27.6 7.1 48 32.2 48 62s-20.4 54.9-48 62l0-124z"/><path fill="currentColor" d="M628.7 64.7C635.4 66.8 640 73 640 80l0 288c0 7-4.6 13.2-11.3 15.3s-14-.5-18-6.2c-15.7-22.5-35-42.9-55.4-61.1-34.8-30.9-80.7-59.6-130.4-60L46.6 256c-3.3 9.3-12.2 16-22.6 16-13.3 0-24-10.7-24-24l0-48c0-13.3 10.7-24 24-24 10.4 0 19.3 6.7 22.6 16l361.4 0 16 0c50.1 0 96.4-28.8 131.4-60 20.4-18.2 39.7-38.6 55.4-61.1 4-5.8 11.2-8.3 17.9-6.2z"/></svg>