<svg xmlns="http://www.w3.org/2000/svg" viewBox="0 0 640 512"><!--! Font Awesome Pro 7.1.0 by @fontawesome - https://fontawesome.com License - https://fontawesome.com/license (Commercial License) Copyright 2025 Fonticons, Inc. --><path opacity=".4" fill="currentColor" d="M2.8 159.4c37.1 175 174.8 312.7 349.8 349.8 76.3 16.2 138.8-39.1 156.4-103.7l1.5-5.5c5.4-19.7-4.7-40.3-23.5-48.1l-97.3-40.5c-16.5-6.9-35.6-2.1-47 11.8l-38.6 47.2C233.9 335.4 177.3 277 144.8 205.3L189 169.3c13.9-11.3 18.6-30.4 11.8-47L160.2 25C152.3 6.1 131.7-3.9 112.1 1.4l-5.5 1.5C41.9 20.6-13.3 83.1 2.8 159.4z"/><path fill="currentColor" d="M288 64a32 32 0 1 0 64 0 32 32 0 1 0 -64 0zm0 96a32 32 0 1 0 64 0 32 32 0 1 0 -64 0zm320-32a32 32 0 1 0 0 64 32 32 0 1 0 0-64zM384 64a32 32 0 1 0 64 0 32 32 0 1 0 -64 0zM512 32a32 32 0 1 0 0 64 32 32 0 1 0 0-64zm64 32a32 32 0 1 0 64 0 32 32 0 1 0 -64 0zM408 136c-13.3 0-24 10.7-24 24s10.7 24 24 24l112 0c13.3 0 24-10.7 24-24s-10.7-24-24-24l-112 0z"/></svg>