<svg xmlns="http://www.w3.org/2000/svg" viewBox="0 0 384 512"><!--! Font Awesome Pro 7.1.0 by @fontawesome - https://fontawesome.com License - https://fontawesome.com/license (Commercial License) Copyright 2025 Fonticons, Inc. --><path opacity=".4" fill="currentColor" d="M40.7 261.8c3.2 12.9 16.2 20.7 29.1 17.5l90.2-22.5 0-49.5-101.8 25.5c-12.9 3.2-20.7 16.2-17.5 29.1zm0 96c3.2 12.9 16.2 20.7 29.1 17.5l90.2-22.5 0-49.5-101.8 25.5c-12.9 3.2-20.7 16.2-17.5 29.1zM224 191.3l0 49.5 101.8-25.5c12.9-3.2 20.7-16.2 17.5-29.1s-16.2-20.7-29.1-17.5L224 191.3zm0 96l0 49.5 101.8-25.5c12.9-3.2 20.7-16.2 17.5-29.1s-16.2-20.7-29.1-17.5L224 287.3z"/><path fill="currentColor" d="M0 64C0 46.3 14.3 32 32 32l320 0c17.7 0 32 14.3 32 32s-14.3 32-32 32l-128 0 0 352c0 17.7-14.3 32-32 32s-32-14.3-32-32l0-352-128 0C14.3 96 0 81.7 0 64z"/></svg>