<svg xmlns="http://www.w3.org/2000/svg" viewBox="0 0 384 512"><!--! Font Awesome Pro 7.1.0 by @fontawesome - https://fontawesome.com License - https://fontawesome.com/license (Commercial License) Copyright 2025 Fonticons, Inc. --><path opacity=".4" fill="currentColor" d="M0 32L0 96c0 17.7 14.3 32 32 32l64 0c17.7 0 32 14.3 32 32l0 160 128 0 0-160C256 71.6 184.4 0 96 0L32 0C14.3 0 0 14.3 0 32z"/><path fill="currentColor" d="M214.6 502.6c-12.5 12.5-32.8 12.5-45.3 0l-128-128c-9.2-9.2-11.9-22.9-6.9-34.9S51.1 320 64 320l256 0c12.9 0 24.6 7.8 29.6 19.8s2.2 25.7-6.9 34.9l-128 128z"/></svg>