<svg xmlns="http://www.w3.org/2000/svg" viewBox="0 0 448 512"><!--! Font Awesome Pro 7.1.0 by @fontawesome - https://fontawesome.com License - https://fontawesome.com/license (Commercial License) Copyright 2025 Fonticons, Inc. --><path opacity=".4" fill="currentColor" d="M0 352l0 64c0 53 43 96 96 96l256 0c53 0 96-43 96-96l0-64c0-17.7-14.3-32-32-32s-32 14.3-32 32l0 64c0 17.7-14.3 32-32 32L96 448c-17.7 0-32-14.3-32-32l0-64c0-17.7-14.3-32-32-32S0 334.3 0 352z"/><path fill="currentColor" d="M207 7c9.4-9.4 24.6-9.4 33.9 0L385 151c6.9 6.9 8.9 17.2 5.2 26.2S377.7 192 368 192l-80 0 0 112c0 26.5-21.5 48-48 48l-32 0c-26.5 0-48-21.5-48-48l0-112-80 0c-9.7 0-18.5-5.8-22.2-14.8S56.2 157.9 63 151L207 7z"/></svg>