<svg xmlns="http://www.w3.org/2000/svg" viewBox="0 0 512 512"><!--! Font Awesome Pro 7.1.0 by @fontawesome - https://fontawesome.com License - https://fontawesome.com/license (Commercial License) Copyright 2025 Fonticons, Inc. --><path opacity=".4" fill="currentColor" d="M0 344L0 488c0 13.3 10.7 24 24 24l144 0c9.7 0 18.5-5.8 22.2-14.8s1.7-19.3-5.2-26.2l-39-39 87-87c9.4-9.4 9.4-24.6 0-33.9l-32-32c-9.4-9.4-24.6-9.4-33.9 0l-87 87-39-39c-6.9-6.9-17.2-8.9-26.2-5.2S0 334.3 0 344z"/><path fill="currentColor" d="M488 0L344 0c-9.7 0-18.5 5.8-22.2 14.8S320.2 34.1 327 41l39 39-87 87c-9.4 9.4-9.4 24.6 0 33.9l32 32c9.4 9.4 24.6 9.4 33.9 0l87-87 39 39c6.9 6.9 17.2 8.9 26.2 5.2S512 177.7 512 168l0-144c0-13.3-10.7-24-24-24z"/></svg>