<svg xmlns="http://www.w3.org/2000/svg" viewBox="0 0 576 512"><!--! Font Awesome Pro 7.1.0 by @fontawesome - https://fontawesome.com License - https://fontawesome.com/license (Commercial License) Copyright 2025 Fonticons, Inc. --><path opacity=".4" fill="currentColor" d="M416 128l128 0c17.7 0 32 14.3 32 32l0 192c0 17.7-14.3 32-32 32l-128 0 0-256zm56 80a24 24 0 1 0 48 0 24 24 0 1 0 -48 0zm0 96a24 24 0 1 0 48 0 24 24 0 1 0 -48 0z"/><path fill="currentColor" d="M0 160c0-35.3 28.7-64 64-64l320 0c17.7 0 32 14.3 32 32l0 256c0 17.7-14.3 32-32 32L64 416c-35.3 0-64-28.7-64-64L0 160z"/></svg>