<svg xmlns="http://www.w3.org/2000/svg" viewBox="0 0 576 512"><!--! Font Awesome Pro 7.1.0 by @fontawesome - https://fontawesome.com License - https://fontawesome.com/license (Commercial License) Copyright 2025 Fonticons, Inc. --><path opacity=".4" fill="currentColor" d="M0 64L0 448c0 35.3 28.7 64 64 64l448 0c35.3 0 64-28.7 64-64l0-384c0-35.3-28.7-64-64-64L64 0C28.7 0 0 28.7 0 64zM80 377.6c0-45.1 33.3-82.4 76.7-88.7-18.1 25.3-28.7 56.3-28.7 89.7 0 7.4 1.2 14.6 3.3 21.3l-28.9 0C90 400 80 390 80 377.6zM112 176c0-35.3 28.7-64 64-64 3.5 0 7 .3 10.4 .8-6.7 14.3-10.4 30.3-10.4 47.2 0 28.2 10.4 54 27.7 73.7-8.4 4-17.8 6.3-27.7 6.3-35.3 0-64-28.7-64-64zm64 202.7C176 319.8 223.8 272 282.7 272l10.7 0c58.9 0 106.7 47.8 106.7 106.7 0 11.8-9.6 21.3-21.3 21.3l-181.3 0c-11.8 0-21.3-9.6-21.3-21.3zM352 160a64 64 0 1 1 -128 0 64 64 0 1 1 128 0zm20.3 73.7c17.2-19.7 27.7-45.5 27.7-73.7 0-16.8-3.7-32.8-10.4-47.2 3.4-.6 6.8-.8 10.4-.8 35.3 0 64 28.7 64 64s-28.7 64-64 64c-9.9 0-19.3-2.3-27.7-6.3zm47 55.2c43.4 6.3 76.7 43.6 76.7 88.7 0 12.4-10 22.4-22.4 22.4l-28.9 0c2.2-6.7 3.3-13.9 3.3-21.3 0-33.5-10.6-64.4-28.7-89.7z"/><path fill="currentColor" d="M288 96a64 64 0 1 1 0 128 64 64 0 1 1 0-128zM186.4 112.8c-6.7 14.3-10.4 30.3-10.4 47.2 0 28.2 10.4 54 27.7 73.7-8.4 4-17.8 6.3-27.7 6.3-35.3 0-64-28.7-64-64s28.7-64 64-64c3.5 0 7 .3 10.4 .8zM372.3 233.7c17.2-19.7 27.7-45.5 27.7-73.7 0-16.8-3.7-32.8-10.4-47.2 3.4-.6 6.8-.8 10.4-.8 35.3 0 64 28.7 64 64s-28.7 64-64 64c-9.9 0-19.3-2.3-27.7-6.3zM80 377.6c0-45.1 33.3-82.4 76.7-88.7-18.1 25.3-28.7 56.3-28.7 89.7 0 7.4 1.2 14.6 3.3 21.3l-28.9 0C90 400 80 390 80 377.6zM473.6 400l-28.9 0c2.2-6.7 3.3-13.9 3.3-21.3 0-33.5-10.6-64.4-28.7-89.7 43.4 6.3 76.7 43.6 76.7 88.7 0 12.4-10 22.4-22.4 22.4zM176 378.7C176 319.8 223.8 272 282.7 272l10.7 0c58.9 0 106.7 47.8 106.7 106.7 0 11.8-9.6 21.3-21.3 21.3l-181.3 0c-11.8 0-21.3-9.6-21.3-21.3z"/></svg>