<svg xmlns="http://www.w3.org/2000/svg" viewBox="0 0 640 512"><!--! Font Awesome Pro 7.1.0 by @fontawesome - https://fontawesome.com License - https://fontawesome.com/license (Commercial License) Copyright 2025 Fonticons, Inc. --><path opacity=".4" fill="currentColor" d="M0 416l0 32c0 17.7 14.3 32 32 32l86.7 0c-4.3-9.8-6.7-20.6-6.7-32l0-16c0-53.2 20-101.8 52.9-138.6-11.7-3.5-24.1-5.4-36.9-5.4-70.7 0-128 57.3-128 128zM24 160a72 72 0 1 0 144 0 72 72 0 1 0 -144 0zM160 432l0 16c0 17.7 14.3 32 32 32l129.4 0c-11.2-24.4-17.4-51.4-17.4-80 0-47.8 17.5-91.5 46.4-125.1-9.8-1.9-20-2.9-30.4-2.9-88.4 0-160 71.6-160 160zm56-312a104 104 0 1 0 208 0 104 104 0 1 0 -208 0zm256 40c0 18.5 7 35.3 18.4 48.1 1.9-.1 3.7-.1 5.6-.1 28.2 0 54.9 6.1 79.1 17 24.2-11.6 40.9-36.3 40.9-65 0-39.8-32.2-72-72-72s-72 32.2-72 72z"/><path fill="currentColor" d="M352 400a144 144 0 1 1 288 0 144 144 0 1 1 -288 0zm117.3-64l0 37.3-37.3 0c-8.8 0-16 7.2-16 16l0 21.3c0 8.8 7.2 16 16 16l37.3 0 0 37.3c0 8.8 7.2 16 16 16l21.3 0c8.8 0 16-7.2 16-16l0-37.3 37.3 0c8.8 0 16-7.2 16-16l0-21.3c0-8.8-7.2-16-16-16l-37.3 0 0-37.3c0-8.8-7.2-16-16-16l-21.3 0c-8.8 0-16 7.2-16 16z"/></svg>