<svg xmlns="http://www.w3.org/2000/svg" viewBox="0 0 640 512"><!--! Font Awesome Pro 7.1.0 by @fontawesome - https://fontawesome.com License - https://fontawesome.com/license (Commercial License) Copyright 2025 Fonticons, Inc. --><path opacity=".4" fill="currentColor" d="M64 352c0-53 43-96 96-96 10 0 19.7 1.5 28.8 4.4-18.2 25.9-28.8 57.5-28.8 91.6l0 8c0 8.4 1.4 16.5 4.1 24l-78.8 0C73.6 384 64 374.4 64 362.7L64 352zM216 160a56 56 0 1 1 -112 0 56 56 0 1 1 112 0zm-8 192c0-61.9 50.1-112 112-112s112 50.1 112 112l0 8c0 13.3-10.7 24-24 24l-176 0c-13.3 0-24-10.7-24-24l0-8zM384 144a64 64 0 1 1 -128 0 64 64 0 1 1 128 0zm152 16a56 56 0 1 1 -112 0 56 56 0 1 1 112 0zM451.2 260.4c9.1-2.9 18.8-4.4 28.8-4.4 53 0 96 43 96 96l0 10.7c0 11.8-9.6 21.3-21.3 21.3l-78.8 0c2.7-7.5 4.1-15.6 4.1-24l0-8c0-34.1-10.6-65.7-28.8-91.6z"/><path fill="currentColor" d="M65-33c-9.4-9.4-24.6-9.4-33.9 0S21.7-8.4 31 1L87 57c9.4 9.4 24.6 9.4 33.9 0s9.4-24.6 0-33.9L65-33zM575-33L519 23c-9.4 9.4-9.4 24.6 0 33.9s24.6 9.4 33.9 0L609 1c9.4-9.4 9.4-24.6 0-33.9s-24.6-9.4-33.9 0zM31 545c9.4 9.4 24.6 9.4 33.9 0l56-56c9.4-9.4 9.4-24.6 0-33.9s-24.6-9.4-33.9 0L31 511c-9.4 9.4-9.4 24.6 0 33.9zm544 0c9.4 9.4 24.6 9.4 33.9 0s9.4-24.6 0-33.9l-56-56c-9.4-9.4-24.6-9.4-33.9 0s-9.4 24.6 0 33.9l56 56z"/></svg>