<svg xmlns="http://www.w3.org/2000/svg" viewBox="0 0 512 512"><!--! Font Awesome Pro 7.1.0 by @fontawesome - https://fontawesome.com License - https://fontawesome.com/license (Commercial License) Copyright 2025 Fonticons, Inc. --><path opacity=".4" fill="currentColor" d="M0 96L0 416c0 17.7 14.3 32 32 32s32-14.3 32-32L64 96c0-17.7-14.3-32-32-32S0 78.3 0 96zm448 0l0 320c0 17.7 14.3 32 32 32s32-14.3 32-32l0-320c0-17.7-14.3-32-32-32s-32 14.3-32 32z"/><path fill="currentColor" d="M182.6 137.4c-12.5-12.5-32.8-12.5-45.3 0s-12.5 32.8 0 45.3l73.4 73.4-73.4 73.4c-12.5 12.5-12.5 32.8 0 45.3s32.8 12.5 45.3 0l73.4-73.4 73.4 73.4c12.5 12.5 32.8 12.5 45.3 0s12.5-32.8 0-45.3l-73.4-73.4 73.4-73.4c12.5-12.5 12.5-32.8 0-45.3s-32.8-12.5-45.3 0l-73.4 73.4-73.4-73.4z"/></svg>