<svg xmlns="http://www.w3.org/2000/svg" viewBox="0 0 512 512"><!--! Font Awesome Pro 7.1.0 by @fontawesome - https://fontawesome.com License - https://fontawesome.com/license (Commercial License) Copyright 2025 Fonticons, Inc. --><path opacity=".4" fill="currentColor" d="M0 96L0 416c0 35.3 28.7 64 64 64 0 17.7 14.3 32 32 32s32-14.3 32-32l256 0c0 17.7 14.3 32 32 32s32-14.3 32-32c35.3 0 64-28.7 64-64l0-320c0-35.3-28.7-64-64-64L64 32C28.7 32 0 60.7 0 96zM320 256a128 128 0 1 1 -256 0 128 128 0 1 1 256 0zm32-48c0-26.5 21.5-48 48-48s48 21.5 48 48c0 17.8-9.7 33.3-24 41.6l0 78.4c0 13.3-10.7 24-24 24s-24-10.7-24-24l0-78.4c-14.3-8.3-24-23.8-24-41.6z"/><path fill="currentColor" d="M192 192a64 64 0 1 1 0 128 64 64 0 1 1 0-128zm0 192a128 128 0 1 0 0-256 128 128 0 1 0 0 256zM424 249.6c14.3-8.3 24-23.8 24-41.6 0-26.5-21.5-48-48-48s-48 21.5-48 48c0 17.8 9.7 33.3 24 41.6l0 78.4c0 13.3 10.7 24 24 24s24-10.7 24-24l0-78.4z"/></svg>