<svg xmlns="http://www.w3.org/2000/svg" viewBox="0 0 512 512"><!--! Font Awesome Pro 7.1.0 by @fontawesome - https://fontawesome.com License - https://fontawesome.com/license (Commercial License) Copyright 2025 Fonticons, Inc. --><path opacity=".4" fill="currentColor" d="M0 256C0 160.2 52.6 76.7 130.5 32.8 149.1 49.1 165.8 67.7 179.9 88.2 91.5 132.3 29.7 210.3 3.7 299.5 1.3 285.3 0 270.8 0 256zM37.9 390.1c2.1-108.1 63.7-210.4 165.9-260.3 16.3 34.5 26.1 72.6 27.8 112.8-75.8 48-126.8 121.3-148.3 202.5-17.6-16.1-33-34.6-45.5-55zm87.6 86.2c4.8-24.3 12.6-48 23.2-70.4 82.4 54.4 180.7 68.9 271 47-44.4 37-101.5 59.2-163.7 59.2-47.7 0-92.3-13-130.5-35.7zm47.3-112.1c21.7-31.3 49.8-58.9 83.8-80.5 79.2 41.5 167.8 49.1 249.5 27.1-5.2 23.7-13.6 46.2-24.9 66.9-94.7 52.2-214 50-308.4-13.6zM178.4 12c22.3-7.1 46-11.2 70.5-11.9 92.5 55.9 150.3 160.3 142.4 273.8-38-3.2-75.9-13.7-111.6-32.3-3.7-89.7-41.7-170.5-101.3-229.7zm166 3.7c97.8 36 167.5 130 167.5 240.3 0 1 0 1.9 0 2.9-23.4 8-47.8 13.1-72.6 15.1 5.9-98.3-30.5-190.5-94.9-258.3z"/><path fill="currentColor" d="M130.5 32.8c18.7 16.3 35.3 34.9 49.4 55.3-88.4 44.2-150.1 122.1-176.2 211.3 5.6 32.8 17.4 63.4 34.2 90.7 2.1-108.1 63.7-210.4 165.9-260.3 16.3 34.5 26.1 72.6 27.8 112.8-75.8 48-126.8 121.3-148.3 202.5 12.9 11.8 27 22.2 42.1 31.2 4.8-24.3 12.6-48 23.2-70.4 82.4 54.4 180.8 68.9 271 47 25-20.8 45.9-46.2 61.5-75-94.7 52.2-214 50-308.4-13.6 21.7-31.3 49.8-58.9 83.8-80.5 79.5 41.6 168.5 49.1 249.5 27.1 3.7-16.8 5.7-34.2 5.9-52-23.4 8-47.8 13.1-72.6 15.1 5.9-98.6-30.7-191.1-94.9-258.3-27.6-10.2-57.4-15.7-88.5-15.7-2.4 0-4.7 0-7.1 .1 92.5 55.9 150.3 160.3 142.4 273.8-38-3.2-75.9-13.7-111.6-32.3-3.7-89.7-41.7-170.5-101.3-229.7-16.8 5.3-32.9 12.4-48 20.9z"/></svg>