<svg xmlns="http://www.w3.org/2000/svg" viewBox="0 0 576 512"><!--! Font Awesome Pro 7.1.0 by @fontawesome - https://fontawesome.com License - https://fontawesome.com/license (Commercial License) Copyright 2025 Fonticons, Inc. --><path opacity=".4" fill="currentColor" d="M32 208l0 96c0 26.5 21.5 48 48 48l48 0 134.1 119.2c6.4 5.7 14.6 8.8 23.1 8.8 19.2 0 34.8-15.6 34.8-34.8L320 389.8 90.2 160 80 160c-26.5 0-48 21.5-48 48z"/><path fill="currentColor" d="M7-24.9c9.4-9.4 24.6-9.4 33.9 0L179.8 114 262.1 40.8c6.4-5.7 14.6-8.8 23.1-8.8 19.2 0 34.8 15.6 34.8 34.8l0 187.3 249 249c9.4 9.4 9.4 24.6 0 33.9s-24.6 9.4-33.9 0L7 9.1C-2.3-.3-2.3-15.5 7-24.9zM473.1 107c43.2 35.2 70.9 88.9 70.9 149 0 46.3-16.4 88.7-43.6 121.9l-34.2-34.2c18.7-24.3 29.8-54.7 29.8-87.7 0-45.1-20.7-85.3-53.2-111.8-10.3-8.4-11.8-23.5-3.5-33.8s23.5-11.8 33.8-3.5zM431.8 309.3L396.5 274c2.3-5.6 3.5-11.6 3.5-18 0-15-6.9-28.4-17.7-37.3-10.3-8.4-11.8-23.5-3.5-33.8s23.5-11.8 33.8-3.5c21.6 17.6 35.5 44.4 35.5 74.5 0 19.7-6 38.1-16.2 53.3z"/></svg>