<svg xmlns="http://www.w3.org/2000/svg" viewBox="0 0 384 512"><!--! Font Awesome Pro 7.1.0 by @fontawesome - https://fontawesome.com License - https://fontawesome.com/license (Commercial License) Copyright 2025 Fonticons, Inc. --><path opacity=".4" fill="currentColor" d="M0 144c0-40.5 30.2-74 69.3-79.3 3.5-.5 7.1-.7 10.7-.7l224 0c3.6 0 7.2 .2 10.7 .7 39.1 5.2 69.3 38.7 69.3 79.3l0 224c0 40.5-30.2 74-69.3 79.3-3.5 .5-7.1 .7-10.7 .7L80 448c-3.6 0-7.2-.2-10.7-.7-39.1-5.2-69.3-38.7-69.3-79.3L0 144zM88 256a24 24 0 1 0 48 0 24 24 0 1 0 -48 0zm32-80a24 24 0 1 0 48 0 24 24 0 1 0 -48 0zm0 160a24 24 0 1 0 48 0 24 24 0 1 0 -48 0zm40-80a32 32 0 1 0 64 0 32 32 0 1 0 -64 0zm56-80a24 24 0 1 0 48 0 24 24 0 1 0 -48 0zm0 160a24 24 0 1 0 48 0 24 24 0 1 0 -48 0zm32-80a24 24 0 1 0 48 0 24 24 0 1 0 -48 0z"/><path fill="currentColor" d="M261-32c24.5 0 45 18.4 47.7 42.7l6 54c-3.5-.5-7.1-.7-10.7-.7L80 64c-3.6 0-7.2 .2-10.7 .7l6-54C78-13.6 98.5-32 123-32L261-32zM75.3 501.3l-6-54c3.5 .5 7.1 .7 10.7 .7l224 0c3.6 0 7.2-.2 10.7-.7l-6 54C306 525.6 285.5 544 261 544L123 544c-24.5 0-45-18.4-47.7-42.7zM192 224a32 32 0 1 1 0 64 32 32 0 1 1 0-64zm24 112a24 24 0 1 1 48 0 24 24 0 1 1 -48 0zm-72-24a24 24 0 1 1 0 48 24 24 0 1 1 0-48zm72-136a24 24 0 1 1 48 0 24 24 0 1 1 -48 0zm-72-24a24 24 0 1 1 0 48 24 24 0 1 1 0-48zM88 256a24 24 0 1 1 48 0 24 24 0 1 1 -48 0zm184-24a24 24 0 1 1 0 48 24 24 0 1 1 0-48z"/></svg>