<svg xmlns="http://www.w3.org/2000/svg" viewBox="0 0 512 512"><!--! Font Awesome Pro 7.0.1 by @fontawesome - https://fontawesome.com License - https://fontawesome.com/license (Commercial License) Copyright 2025 Fonticons, Inc. --><path style="fill:var(--fa-secondary-color,currentColor);opacity:var(--fa-secondary-opacity,.4)" d="M64 96c0-17.7 14.3-32 32-32l160 0c17.7 0 32 14.3 32 32l0 288 96 0 0-128c0-17.7 14.3-32 32-32l64 0c17.7 0 32 14.3 32 32s-14.3 32-32 32l-32 0 0 128c0 17.7-14.3 32-32 32l-160 0c-17.7 0-32-14.3-32-32l0-288-96 0 0 128c0 17.7-14.3 32-32 32l-64 0c-17.7 0-32-14.3-32-32s14.3-32 32-32l32 0 0-128z"/><path style="fill:var(--fa-primary-color,currentColor);opacity:var(--fa-primary-opacity,1)" d=""/></svg>