<svg xmlns="http://www.w3.org/2000/svg" viewBox="0 0 640 512"><!--! Font Awesome Pro 7.1.0 by @fontawesome - https://fontawesome.com License - https://fontawesome.com/license (Commercial License) Copyright 2025 Fonticons, Inc. --><path opacity=".4" fill="currentColor" d="M47 495l33.9 34c-9.4 9.3-24.5 9.3-33.9 0-9.4-9.4-9.4-24.6 0-33.9zm0 0l84.7-84.7-30.5-30.5c-37.5-37.5-37.5-98.3 0-135.7l7.4-7.4 2.5-2.1c6.2-4.1 14.7-3.4 20.1 2.1l46.1 46.1 6.1 6.7c19.7 23.8 26.3 55 19.2 83.9 31.7-7.7 66.2 1 90.6 25.3l12 12c-.8 7-1.2 14.2-1.2 21.4 0 20 3 39.3 8.7 57.4-36.8 21.8-85 17-116.6-14.7L165.6 444.3 80.9 529C69.7 517.7 58.4 506.3 47 495zM205.2 140.1l7.4-7.4 2.5-2.1c6.2-4.1 14.7-3.4 20.1 2.1l46.1 46.1 6.1 6.7c19.7 23.8 26.3 55 19.2 83.9 24.2-5.9 50.1-2.1 71.9 10.8-32.2 24.9-56.2 59.8-67.4 100.1-3.8-2.8-7.5-6-11-9.5l-94.9-94.9c-37.5-37.5-37.5-98.3 0-135.7zm104-104l7.4-7.4 2.5-2.1c6.2-4.1 14.7-3.4 20.1 2.1l39 39 52.7-52.7c9.4-9.4 24.6-9.4 34 0 8.8 8.8 9.3 22.7 1.6 32.1L465 49 406.7 107.3c2.8 7.1 4.7 14.5 5.8 22.1L526.7 15c9.4-9.4 24.6-9.4 33.9 0 8.8 8.8 9.3 22.7 1.7 32.1L560.6 49 446.2 163.4c7.7 1 15.2 3 22.5 5.9L527 111c9.4-9.4 24.6-9.4 34 0 8.8 8.8 9.3 22.7 1.6 32.1l-1.7 1.8-52.7 52.7 39 39c3.2 3.2 4.7 7.4 4.7 11.6-17.7-5.4-36.5-8.3-55.9-8.3-34.2 0-66.3 8.9-94.1 24.6l-92.7-92.7c-37.5-37.5-37.5-98.3 0-135.7z"/><path fill="currentColor" d="M496 576a144 144 0 1 1 0-288 144 144 0 1 1 0 288zm0-100a20 20 0 1 0 0 40 20 20 0 1 0 0-40zm0-140c-8.8 0-16 7.2-16 16l0 80c0 8.8 7.2 16 16 16s16-7.2 16-16l0-80c0-8.8-7.2-16-16-16z"/></svg>