<svg xmlns="http://www.w3.org/2000/svg" viewBox="0 0 576 512"><!--! Font Awesome Pro 7.1.0 by @fontawesome - https://fontawesome.com License - https://fontawesome.com/license (Commercial License) Copyright 2025 Fonticons, Inc. --><path opacity=".4" fill="currentColor" d="M15.5 495c-9.4 9.4-9.4 24.6 0 33.9s24.5 9.4 33.9 0l84.7-84.7-33.9-33.9-84.7 84.7zm401-418l0 35c0 4.2 1.7 8.3 4.7 11.3s7.1 4.7 11.3 4.7l35 0 4.8-.1c47.6-2.4 85.7-40.5 88.1-88.1l.1-4.8 0-35c0-4.2-1.7-8.3-4.7-11.3-2.3-2.3-5.1-3.8-8.2-4.4l-3.1-.3-35 0c-51.4 0-93 41.6-93 93z"/><path fill="currentColor" d="M79.7 234.6c6.2-4.1 14.7-3.4 20.1 2.1l46.1 46.1 6.1 6.7c19.7 23.8 26.3 55 19.2 83.9 31.7-7.7 66.2 1 90.6 25.3l46.1 46.1c6.2 6.2 6.2 16.4 0 22.6l-7.4 7.4c-37.5 37.5-98.3 37.5-135.8 0L69.7 379.9c-37.5-37.5-37.5-98.3 0-135.8l7.4-7.4 2.5-2.1zm104-104c6.2-4.1 14.7-3.4 20.1 2.1l46.1 46.1 6.1 6.7c19.7 23.8 26.3 55 19.2 83.9 31.7-7.7 66.2 1 90.6 25.3l46.1 46.1c6.2 6.2 6.2 16.4 0 22.6l-7.4 7.4c-37.5 37.5-98.3 37.5-135.8 0l-94.9-94.9c-37.5-37.5-37.5-98.3 0-135.8l7.4-7.4 2.5-2.1zm104-104c6.2-4.1 14.7-3.4 20.1 2.1l46.1 46.1 6.1 6.7c19.7 23.8 26.3 55 19.3 83.9 31.7-7.7 66.2 1 90.6 25.3l46.1 46.1c6.2 6.2 6.2 16.4 0 22.6l-7.4 7.4c-37.5 37.5-98.3 37.5-135.8 0l-94.9-94.9c-37.5-37.5-37.5-98.3 0-135.7l7.4-7.4 2.5-2.1z"/></svg>