<svg xmlns="http://www.w3.org/2000/svg" viewBox="0 0 512 512"><!--! Font Awesome Pro 7.1.0 by @fontawesome - https://fontawesome.com License - https://fontawesome.com/license (Commercial License) Copyright 2025 Fonticons, Inc. --><path opacity=".4" fill="currentColor" d="M0 64C0 81.7 14.3 96 32 96l0 320c-17.7 0-32 14.3-32 32s14.3 32 32 32l448 0c17.7 0 32-14.3 32-32s-14.3-32-32-32l0-320c17.7 0 32-14.3 32-32s-14.3-32-32-32L32 32C14.3 32 0 46.3 0 64zM128 256c0-13.3 10.7-24 24-24l80 0 0-48-64 0c-13.3 0-24-10.7-24-24s10.7-24 24-24l64 0 0-16c0-13.3 10.7-24 24-24s24 10.7 24 24l0 16 64 0c13.3 0 24 10.7 24 24s-10.7 24-24 24l-64 0 0 48 80 0c13.3 0 24 10.7 24 24s-10.7 24-24 24l-80 0 0 48 64 0c13.3 0 24 10.7 24 24s-10.7 24-24 24l-64 0 0 16c0 13.3-10.7 24-24 24s-24-10.7-24-24l0-16-64 0c-13.3 0-24-10.7-24-24s10.7-24 24-24l64 0 0-48-80 0c-13.3 0-24-10.7-24-24z"/><path fill="currentColor" d="M256 96c13.3 0 24 10.7 24 24l0 16 64 0c13.3 0 24 10.7 24 24s-10.7 24-24 24l-64 0 0 48 80 0c13.3 0 24 10.7 24 24s-10.7 24-24 24l-80 0 0 48 64 0c13.3 0 24 10.7 24 24s-10.7 24-24 24l-64 0 0 16c0 13.3-10.7 24-24 24s-24-10.7-24-24l0-16-64 0c-13.3 0-24-10.7-24-24s10.7-24 24-24l64 0 0-48-80 0c-13.3 0-24-10.7-24-24s10.7-24 24-24l80 0 0-48-64 0c-13.3 0-24-10.7-24-24s10.7-24 24-24l64 0 0-16c0-13.3 10.7-24 24-24z"/></svg>