<svg xmlns="http://www.w3.org/2000/svg" viewBox="0 0 640 512"><!--! Font Awesome Pro 7.0.0 by @fontawesome - https://fontawesome.com License - https://fontawesome.com/license (Commercial License) Copyright 2025 Fonticons, Inc. --><path fill="currentColor" d="M84.1 160.1c7-10.1 15.6-18.9 25.5-26.2 5.6 16.6 12.6 31.8 20.6 45.5-11.3 11.6-18.2 27.4-18.2 44.8 0 8.2 1.6 16.3 4.6 23.9l25.3 63.3 3.5 8.6-3.3 8.7-20.6 54.8-2.7 7.3 2.1 7.5 18.2 65.6 49.8 0-17.6-63.4-2.1-7.5 2.7-7.3 15.8-42.1c2.8-7.5 4.3-15.4 4.3-23.5 0-.4 0-.9 0-1.3l-.7-32.7c11.5 3.4 51.3 15 119.3 34.9 2.1 .6 4.2 1.1 6.3 1.6l19 4 0 137.2 48 0 0-155.9 7.3-7.1c15.1-14.8 24.7-35.3 24.7-58.8 0-11.2-2.2-21.7-6.2-31.4l-1.8-4.4 0-46.5 41.9 0c1.1 1.1 12.9 12.9 35.4 35.4l42.7-19 0-61.1-44.8-67.3-43.2 0c-53 0-96.8 39.7-103.2 91l-2.6 21-44.9 0-5.8-3.5-102.2-62.4c9.5 38.9 30.2 66.9 51.1 86.4 14.3 13.4 28.6 22.8 39.4 28.8 5.3 3 9.7 5.1 12.7 6.5 1.5 .7 2.6 1.1 3.3 1.4l.7 .3 0 0-8.4 22.5c-8.4 22.5-8.4 22.5-8.5 22.5l0 0-.1 0-.2-.1-.5-.2c-.4-.1-.8-.3-1.4-.6-1.2-.5-2.8-1.2-4.9-2.1-4-1.8-9.7-4.6-16.3-8.3-13.3-7.5-30.9-19.1-48.6-35.7-35.7-33.5-71.6-87.5-71.6-167.5l0-42.8C136.7 10.5 192.3 44.5 294.7 107.1 313.9 45.1 371.7 0 440 0l120 0 0 48-19.2 0 10.7 16 88.5 0 0 16-64 21.3 0 106.3-14.3 6.3c-57.5 25.6-86.5 38.4-87.1 38.7l-10.7-10.7 0 .3c0 33.2-12.2 62.9-32 85.5l0 184.2-144 0 0-147.5-51.8-15.1c-1 3.8-2.2 7.5-3.6 11.2l-13 34.8C238.2 462.1 249 501 252.1 512l-149.5 0c-.2-.8-9.5-34.4-28-100.7-3.1-11.3-5.2-18.8-6.3-22.6 1.2-3.3 13.9-37 25.5-68.1L72 265.9c-5.3-13.3-8-27.4-8-41.7 0-2.9 .1-5.7 .3-8.5-9.9 7.3-16.3 19-16.3 32.2l0 88-48 0 0-88c0-47.3 37.3-85.9 84.1-87.9zM448 96a16 16 0 1 1 32 0 16 16 0 1 1 -32 0z"/></svg>