<svg xmlns="http://www.w3.org/2000/svg" viewBox="0 0 576 512"><!--! Font Awesome Pro 7.0.0 by @fontawesome - https://fontawesome.com License - https://fontawesome.com/license (Commercial License) Copyright 2025 Fonticons, Inc. --><path fill="currentColor" d="M49.3-16.9l-17-17-33.9 33.9 17 17 512 512 17 17 33.9-33.9-17-17-151.1-151.1 102 0 0-48-150 0-80-80 230 0 0-48-278 0-80-80 358 0 0-48-406 0-56.9-56.9zM402.3 472l-48-48-290.2 0 0 48 338.2 0zm-176-176l-162.2 0 0 48 210.2 0-48-48zM98.3 168l-34.2 0 0 48 82.2 0-48-48z"/></svg>