<svg xmlns="http://www.w3.org/2000/svg" viewBox="0 0 512 512"><!--! Font Awesome Pro 7.0.0 by @fontawesome - https://fontawesome.com License - https://fontawesome.com/license (Commercial License) Copyright 2025 Fonticons, Inc. --><path fill="currentColor" d="M145 39l-17-17-17 17-88 88-17 17 33.9 33.9c6.3-6.3 27.6-27.6 64-64l0 366.1 48 0 0-366.1 64 64 33.9-33.9-17-17-88-88zM464 208l-128 0 0-128 128 0 0 128zM336 256l176 0 0-224-224 0 0 224 48 0zm64 176l-64 0 0-64 64 0 0 64zm-64 48l112 0 0-160-160 0 0 160 48 0z"/></svg>