<svg xmlns="http://www.w3.org/2000/svg" viewBox="0 0 576 512"><!--! Font Awesome Pro 7.0.0 by @fontawesome - https://fontawesome.com License - https://fontawesome.com/license (Commercial License) Copyright 2025 Fonticons, Inc. --><path fill="currentColor" d="M177 505l-17 17-17-17-88-88-17-17 33.9-33.9c6.3 6.3 27.6 27.6 64 64l0-150.1-104 0 0-48 296 0 0-150.1c-36.4 36.4-57.7 57.7-64 64l-33.9-33.9 17-17 88-88 17-17 17 17 88 88 17 17-33.9 33.9c-6.3-6.3-27.6-27.6-64-64L376 211c-19.1 18.1-32.6 42-37.8 69l-154.2 0 0 150.1c36.4-36.4 57.7-57.7 64-64l33.9 33.9-17 17-88 88zM136 184l0-184 48 0 0 184-48 0zm328 88c-17.7 0-32 14.3-32 32l0 48 64 0 0-48c0-17.7-14.3-32-32-32zm-80 32c0-44.2 35.8-80 80-80s80 35.8 80 80l0 48 32 0 0 192-224 0 0-192 32 0 0-48z"/></svg>