<svg xmlns="http://www.w3.org/2000/svg" viewBox="0 0 512 512"><!--! Font Awesome Pro 7.0.0 by @fontawesome - https://fontawesome.com License - https://fontawesome.com/license (Commercial License) Copyright 2025 Fonticons, Inc. --><path fill="currentColor" d="M216 24c60.8 45.6 83.2 62.4 96 72-35.2 26.4-76.8 57.6-96 72l0-48-168 0 0 112 464 0 0 208-68.7 0c-9.5 23.5-32.5 40-59.3 40-35.3 0-64-28.7-64-64s28.7-64 64-64c26.9 0 49.9 16.5 59.3 40l20.7 0 0-112-464 0 0-208 216 0 0-48zM440 96a24 24 0 1 0 -48 0 24 24 0 1 0 48 0zm-88 0a64 64 0 1 1 128 0 64 64 0 1 1 -128 0zM96 440a24 24 0 1 0 0-48 24 24 0 1 0 0 48zm59.3 0c-9.5 23.5-32.5 40-59.3 40-35.3 0-64-28.7-64-64s28.7-64 64-64c26.9 0 49.9 16.5 59.3 40l28.7 0 0-48c60.8 45.6 83.2 62.4 96 72-35.2 26.4-76.8 57.6-96 72l0-48-28.7 0zM384 440a24 24 0 1 0 0-48 24 24 0 1 0 0 48z"/></svg>