<svg xmlns="http://www.w3.org/2000/svg" viewBox="0 0 512 512"><!--! Font Awesome Pro 7.1.0 by @fontawesome - https://fontawesome.com License - https://fontawesome.com/license (Commercial License) Copyright 2025 Fonticons, Inc. --><path fill="currentColor" d="M512.1 160l-41 17-68.1-68.1c-81.2-81.2-212.9-81.2-294.2 0-40.6 40.6-60.9 93.8-60.9 147.1 0 114.9 93.1 208 208 208 83.1 0 154.9-48.7 188.2-119.3 14.5 6.8 28.9 13.7 43.4 20.5-41 86.7-129.3 146.8-231.6 146.8-141.4 0-256-114.6-256-256 0-65.5 25-131 75-181 100-100 262.1-100 362 0l27.1 27.1 0-102.1 48 0 0 160zm-304 192l-48 0 0-129.2-18.7 9.4-21.5-42.9c11.7-5.9 31.2-15.6 58.5-29.3l29.7 0 0 192zm104-192c30.9 0 56 25.1 56 56l0 80c0 30.9-25.1 56-56 56l-16 0c-30.9 0-56-25.1-56-56l0-80c0-30.9 25.1-56 56-56l16 0zm-16 48c-4.4 0-8 3.6-8 8l0 80c0 4.4 3.6 8 8 8l16 0c4.4 0 8-3.6 8-8l0-80c0-4.4-3.6-8-8-8l-16 0z"/></svg>