<svg xmlns="http://www.w3.org/2000/svg" viewBox="0 0 512 512"><!--! Font Awesome Pro 7.0.0 by @fontawesome - https://fontawesome.com License - https://fontawesome.com/license (Commercial License) Copyright 2025 Fonticons, Inc. --><path fill="currentColor" d="M473 113l17-17-17-17-88-88-17-17-33.9 33.9c6.3 6.3 27.6 27.6 64 64l-374.1 0-24 0 0 216 48 0 0-168 350.1 0c-36.4 36.4-57.7 57.7-64 64l33.9 33.9 17-17 88-88zM39 399l-17 17 17 17 88 88 17 17 33.9-33.9c-6.3-6.3-27.6-27.6-64-64l398.1 0 0-216-48 0 0 168-350.1 0c36.4-36.4 57.7-57.7 64-64l-33.9-33.9-17 17-88 88z"/></svg>