<svg xmlns="http://www.w3.org/2000/svg" viewBox="0 0 576 512"><!--! Font Awesome Pro 7.0.0 by @fontawesome - https://fontawesome.com License - https://fontawesome.com/license (Commercial License) Copyright 2025 Fonticons, Inc. --><path fill="currentColor" d="M56.4-9.9l17 17 103 103 0-62.1 48 0 0 144-144 0 0-48 62.1 0-103-103-17-17 33.9-33.9zM231.6 256a56.4 56.4 0 1 1 112.9 0 56.4 56.4 0 1 1 -112.9 0zM537.4 41l-103 103 62.1 0 0 48-144 0 0-144 48 0 0 62.1 103-103 17-17 33.9 33.9-17 17zm-17 481l-17-17-103-103 0 62.1-48 0 0-144 144 0 0 48-62.1 0 103 103 17 17-33.9 33.9zM39.5 471l103-103-62.1 0 0-48 144 0 0 144-48 0 0-62.1-103 103-17 17-33.9-33.9 17-17z"/></svg>