<svg xmlns="http://www.w3.org/2000/svg" viewBox="0 0 512 512"><!--! Font Awesome Pro 7.0.0 by @fontawesome - https://fontawesome.com License - https://fontawesome.com/license (Commercial License) Copyright 2025 Fonticons, Inc. --><path fill="currentColor" d="M48 256C48 141.1 141.1 48 256 48l24 0 0-48-24 0C114.6 0 0 114.6 0 256S114.6 512 256 512l0-48C141.1 464 48 370.9 48 256zM271 377l17 17 33.9-33.9c-3.6-3.6-30.3-30.3-80-80l270.1 0 0-48-270.1 0c49.7-49.7 76.4-76.4 80-80l-33.9-33.9-17 17-104 104-17 17 17 17 104 104z"/></svg>