<svg xmlns="http://www.w3.org/2000/svg" viewBox="0 0 576 512"><!--! Font Awesome Pro 7.0.0 by @fontawesome - https://fontawesome.com License - https://fontawesome.com/license (Commercial License) Copyright 2025 Fonticons, Inc. --><path fill="currentColor" d="M49.3-16.9l-17-17-33.9 33.9 17 17 512 512 17 17 33.9-33.9c-6.3-6.3-27.7-27.7-64.1-64.1l30 0 0-384-414 0-80.9-80.9zM178.2 112l318 0 0 288-30 0-56.4-56.3c22.8-12.1 38.3-36.1 38.3-63.7l0-48c0-39.8-32.2-72-72-72l-72 0 0 78-126-126zm192 192l-18-18 0-78 24 0c13.3 0 24 10.7 24 24l0 48c0 13.3-10.7 24-24 24l-6 0zm8.1 144l-48-48-250.2 0 0-250.2-48-48 0 346.2 346.2 0zM132.1 201.8c-2.6 6.9-4 14.4-4 22.2l0 128 48 0 0-48 48 0 0 48 48 0 0-10.2-140-140z"/></svg>