<svg xmlns="http://www.w3.org/2000/svg" viewBox="0 0 640 512"><!--! Font Awesome Pro 7.0.0 by @fontawesome - https://fontawesome.com License - https://fontawesome.com/license (Commercial License) Copyright 2025 Fonticons, Inc. --><path fill="currentColor" d="M320.5 55c10.3 27.7 15.9 57.7 15.9 89 0 39.6-9 77.1-25 110.6l41.4 24.6c20.2-40.7 31.6-86.6 31.6-135.1 0-23.8-2.7-47-7.9-69.2l2.5-1.7c33.4 41.2 53.4 93.7 53.4 150.9 0 16-1.6 31.7-4.6 46.9l50.3-10.6c1.5-11.9 2.3-24 2.3-36.3 0-84.7-36.6-160.9-94.8-213.6L320.5 55zM452.7 347.4l43.9-9.2 87.8 87.8 33.9-33.9-17-17-80-80-9.2-9.2c-6 1.3-19.5 4.1-40.4 8.5L356.6 318.6c-103.2-61.1-107.6-63.8-111.5-66l-11.8 6.2c-73.1 38.2-110.9 57.8-113.3 59.1l22.2 42.6c4.4-2.3 38.2-19.9 101.4-52.9l22.1 13.1C219.2 369.5 153.4 400 80.4 400l-48 0 0 112c21.3 0 74.7 0 160 0 107 0 200.4-58.4 250.1-145 .7-1.2 1.3-2.3 2-3.5 2.9-5.3 5.7-10.6 8.3-16.1z"/></svg>