<svg xmlns="http://www.w3.org/2000/svg" viewBox="0 0 576 512"><!--! Font Awesome Pro 7.0.0 by @fontawesome - https://fontawesome.com License - https://fontawesome.com/license (Commercial License) Copyright 2025 Fonticons, Inc. --><path fill="currentColor" d="M448-32l21.3 0c.4 .6 13.7 21.9 40 64l66.7 0 0 48-93.3 0c-2.3-3.7-11.8-18.8-28.3-45.3l-48.7 103.5-6.5 13.8-37.4 0-6.9-12.3-33.1-59.7-65.9 0 0-48 94.1 0c2.1 3.8 11.6 20.9 28.4 51.2L426.3-18.2 432.8-32 448-32zM296 144l15.7 0c3.9 7.1 12.8 23.1 26.7 48l-18.3 0 0 144 208 0 0-72c0-39.8-32.2-72-72-72l-31.4 0c13.5-28.8 21.1-44.7 22.6-48l8.8 0c66.3 0 120 53.7 120 120l0 216-48 0 0-96-480 0 0 96-48 0 0-448 48 0 0 304 224 0 0-192 24 0zM192 224a32 32 0 1 0 -64 0 32 32 0 1 0 64 0zM80 224a80 80 0 1 1 160 0 80 80 0 1 1 -160 0z"/></svg>