<svg xmlns="http://www.w3.org/2000/svg" viewBox="0 0 576 512"><!--! Font Awesome Pro 7.0.0 by @fontawesome - https://fontawesome.com License - https://fontawesome.com/license (Commercial License) Copyright 2025 Fonticons, Inc. --><path fill="currentColor" d="M48 56l0-24-48 0 0 448 48 0 0-96 480 0 0 96 48 0 0-216c0-66.3-53.7-120-120-120l-184 0 0 192-224 0 0-280zM528 264l0 72-208 0 0-144 136 0c39.8 0 72 32.2 72 72zM128 224a32 32 0 1 1 64 0 32 32 0 1 1 -64 0zm112 0a80 80 0 1 0 -160 0 80 80 0 1 0 160 0z"/></svg>