<svg xmlns="http://www.w3.org/2000/svg" viewBox="0 0 512 512"><!--! Font Awesome Pro 7.0.0 by @fontawesome - https://fontawesome.com License - https://fontawesome.com/license (Commercial License) Copyright 2025 Fonticons, Inc. --><path fill="currentColor" d="M280 0l-48 0 0 33.7C150.6 45.3 88 115.4 88 200l0 72-72 144 480 0-72-144 0-72c0-84.6-62.6-154.7-144-166.3L280 0zM418.3 368l-324.7 0 37.3-74.5c3.3-6.7 5.1-14 5.1-21.5l0-72c0-66.3 53.7-120 120-120s120 53.7 120 120l0 72c0 7.5 1.7 14.8 5.1 21.5L418.3 368zM188.1 464c9.9 28 36.6 48 67.9 48s58-20 67.9-48l-135.8 0zM232 296l0 48 48 0 0-48-48 0zm48-144l0-24-48 0 0 128 48 0 0-104z"/></svg>