<svg xmlns="http://www.w3.org/2000/svg" viewBox="0 0 576 512"><!--! Font Awesome Pro 7.0.0 by @fontawesome - https://fontawesome.com License - https://fontawesome.com/license (Commercial License) Copyright 2025 Fonticons, Inc. --><path fill="currentColor" d="M0 64l576 0 0 48-33.5 0-30.5 336-448 0-30.5-336-33.5 0 0-48zm81.7 48l26.2 288 360.3 0 26.2-288-412.7 0zm178.2 32l56.3 0 7.2 9.8 40.5 55.2-40.8 25.5-31.2-42.5-7.7 0-31.2 42.5-40.8-25.5 40.5-55.2 7.2-9.8zm86.9 122.9l40.8-25.5 23.8 32.4 4.6 6.3 0 71.9-108 0 0-48 60 0 0-8.1-21.3-29zM208 304l60 0 0 48-108 0 0-71.9 4.6-6.3 23.8-32.4 40.8 25.5-21.3 29 0 8.1z"/></svg>