<svg xmlns="http://www.w3.org/2000/svg" viewBox="0 0 576 512"><!--! Font Awesome Pro 7.0.0 by @fontawesome - https://fontawesome.com License - https://fontawesome.com/license (Commercial License) Copyright 2025 Fonticons, Inc. --><path fill="currentColor" d="M384.4 0l32 0 0 48-32 0 0 169.7c14.2 8.2 27.2 18.2 38.8 29.6L462.5 208c-3-3-11-11-24-24l33.9-33.9c68.3 68.3 70.1 70.1 81.9 81.9l-33.9 33.9c-13-13-21-21-24-24l-43.3 43.3c17.3 28.8 27.3 62.6 27.3 98.7 0 44.9-15.4 86.2-41.2 118.9l-7.2 9.1-287.2 0-7.2-9.1c-25.8-32.7-41.2-74-41.2-118.9 0-71.1 38.6-133.1 96-166.3l0-169.7-32 0 0-48 224 0zm-144 48l0 199.3-13.7 6.5c-29.2 13.9-53 37.3-67.3 66.2l258.1 0c-14.4-28.9-38.1-52.3-67.3-66.2l-13.7-6.5 0-199.3-96 0zM431.6 368l-286.2 0c-.6 5.3-.9 10.6-.9 16 0 29.6 8.9 57.1 24.2 80l239.5 0c15.3-22.9 24.2-50.4 24.2-80 0-5.4-.3-10.7-.9-16z"/></svg>