<svg xmlns="http://www.w3.org/2000/svg" viewBox="0 0 448 512"><!--! Font Awesome Pro 7.0.0 by @fontawesome - https://fontawesome.com License - https://fontawesome.com/license (Commercial License) Copyright 2025 Fonticons, Inc. --><path fill="currentColor" d="M0 0l448 0 0 400-32 0 0 64 32 0 0 48-448 0 0-72c0-2.7 .1-5.4 .4-8L0 432 0 0zM88 400c-22.1 0-40 17.9-40 40l0 24 320 0 0-64-280 0zM48 361.6c12-6.1 25.6-9.6 40-9.6l312 0 0-304-352 0 0 313.6zM202.5 109.3l6.6-13.3 29.7 0 6.6 13.3 88 176 9.4 18.7-53.7 0-16-32-98.3 0-16 32-53.7 0 9.4-18.7 88-176zM224 173.7l-25.2 50.3 50.3 0-25.2-50.3z"/></svg>