<svg xmlns="http://www.w3.org/2000/svg" viewBox="0 0 448 512"><!--! Font Awesome Pro 7.0.0 by @fontawesome - https://fontawesome.com License - https://fontawesome.com/license (Commercial License) Copyright 2025 Fonticons, Inc. --><path fill="currentColor" d="M272 48l0 48-224 0 0-48 224 0zM0 48L0 468.8c.8 1 11.2 12.7 31 35.1l7.2 8.1 71.6 0c4.8-5.4 9.5-10.8 14.2-16 4.7 5.3 9.4 10.6 14.2 16l71.6 0c4.8-5.4 9.5-10.8 14.2-16 4.7 5.3 9.4 10.6 14.2 16l71.6 0c4.8-5.4 9.5-10.8 14.2-16 4.7 5.3 9.4 10.6 14.2 16l71.6 0c1.8-2 12.5-14.2 32.2-36.4l6-6.8 0-84.8c0-5.4-.3-10.8-1-16-7.9-63.1-61.7-112-127-112l-16 0 0-112 16 0 0-144-320 0 0 48zM400 416l0 34.6-11.8 13.4-28.4 0-17.8-20.2-36 0-17.8 20.2-28.4 0-17.8-20.2-36 0-17.8 20.2-28.4 0-17.8-20.2-36 0-17.8 20.2-28.4 0-11.8-13.4 0-34.6 352 0zM256 256l-64 0 0 48 128 0c38.7 0 71 27.5 78.4 64l-350.4 0 0-224 208 0 0 32-64 0 0 48 64 0 0 32z"/></svg>