<svg xmlns="http://www.w3.org/2000/svg" viewBox="0 0 448 512"><!--! Font Awesome Pro 7.0.0 by @fontawesome - https://fontawesome.com License - https://fontawesome.com/license (Commercial License) Copyright 2025 Fonticons, Inc. --><path fill="currentColor" d="M0 416l0 64 64 0 0-64-64 0zM128 32l0 64 64 0 0-64-64 0zM256 416l0 64 64 0 0-64-64 0zM128 480l64 0 0-64-64 0 0 64zM256 32l0 64 64 0 0-64-64 0zM384 480l64 0 0-64-64 0 0 64zm0-384l64 0 0-64-64 0 0 64zM0 32l0 64 64 0 0-64-64 0zM384 352l64 0 0-64-64 0 0 64zM0 160l0 64 64 0 0-64-64 0zM0 352l64 0 0-64-64 0 0 64zM384 160l0 64 64 0 0-64-64 0z"/></svg>