<svg xmlns="http://www.w3.org/2000/svg" viewBox="0 0 448 512"><!--! Font Awesome Pro 7.0.0 by @fontawesome - https://fontawesome.com License - https://fontawesome.com/license (Commercial License) Copyright 2025 Fonticons, Inc. --><path fill="currentColor" d="M343.3 64l45.7 64-141 0 0-64 95.3 0zM48 176l352 0 0 256-352 0 0-256zM104.7 64l95.3 0 0 64-141 0 45.7-64zM368 16l-288 0-80 112 0 352 448 0 0-352-80-112zM241 215l-17-17c-3.5 3.5-30.5 30.5-81 81l-17 17 33.9 33.9c10.3-10.3 23.6-23.6 40-40l0 110.1 48 0 0-110.1c16.4 16.4 29.7 29.7 40 40L321.9 296c-3.5-3.5-30.5-30.5-81-81z"/></svg>