<svg xmlns="http://www.w3.org/2000/svg" viewBox="0 0 448 512"><!--! Font Awesome Pro 7.0.0 by @fontawesome - https://fontawesome.com License - https://fontawesome.com/license (Commercial License) Copyright 2025 Fonticons, Inc. --><path fill="currentColor" d="M343.3 64l45.7 64-141 0 0-64 95.3 0zM48 176l352 0 0 256-352 0 0-256zM104.7 64l95.3 0 0 64-141 0 45.7-64zM368 16l-288 0-80 112 0 352 448 0 0-352-80-112zM248 200l-40 0 0 24.2c-24.7 2.3-44 23.1-44 48.4 0 23.2 16.3 43.1 39 47.6l34.1 6.8c4 .8 6.9 4.3 6.9 8.4 0 4.7-3.8 8.6-8.6 8.6l-63.4 0 0 40 36 0 0 24 40 0 0-25.6c20.7-5.5 36-24.5 36-46.9 0-23.2-16.3-43.1-39-47.6L210.9 281c-4-.8-6.9-4.3-6.9-8.4 0-4.7 3.8-8.6 8.6-8.6l63.4 0 0-40-28 0 0-24z"/></svg>