<svg xmlns="http://www.w3.org/2000/svg" viewBox="0 0 512 512"><!--! Font Awesome Pro 7.0.0 by @fontawesome - https://fontawesome.com License - https://fontawesome.com/license (Commercial License) Copyright 2025 Fonticons, Inc. --><path fill="currentColor" d="M244.3 525l11.7 6.5 11.7-6.5 216-120 12.3-6.9 0-284.2-12.3-6.9-216-120-11.7-6.5-11.7 6.5-216 120-12.3 6.9 0 284.2 12.3 6.9 216 120zM448 176.8l0 193.1-168 93.3 0-193.1 56-31.1 0 113.5 80-45 0-112.9 32-17.8zm-64.5-19.1L210.8 60.6 256 35.5 429.8 132 383.5 157.7zM303 202.4L256 228.6 82.2 132 130.3 105.3 303 202.4zM64 176.8l168 93.3 0 193.1-168-93.3 0-193.1z"/></svg>