<svg xmlns="http://www.w3.org/2000/svg" viewBox="0 0 576 512"><!--! Font Awesome Pro 7.0.0 by @fontawesome - https://fontawesome.com License - https://fontawesome.com/license (Commercial License) Copyright 2025 Fonticons, Inc. --><path fill="currentColor" d="M143.5 60.7l4.7-23.5-47.1-9.4-4.7 23.5-36.2 180.8c-27.3 26.2-44.3 63.1-44.3 103.9 0 79.5 64.5 144 144 144 49.9 0 93.9-25.4 119.8-64l16.5 0c25.8 38.6 69.8 64 119.8 64 79.5 0 144-64.5 144-144 0-40.8-17-77.7-44.3-103.9l-36.2-180.8-4.7-23.5-47.1 9.4 4.7 23.5 37.3 186.6-101.8 40.7-57.1 80-45.7 0-57.1-80-101.8-40.7 37.3-186.6zM64 336c0-17.8 4.8-34.4 13.2-48.6l99.9 40 53 74.2c-17.6 18.8-42.5 30.4-70.1 30.4-53 0-96-43-96-96zm448 0c0 53-43 96-96 96-27.6 0-52.6-11.7-70.1-30.4l53-74.2 99.9-40c8.4 14.3 13.2 30.9 13.2 48.6z"/></svg>