<svg xmlns="http://www.w3.org/2000/svg" viewBox="0 0 576 512"><!--! Font Awesome Pro 7.0.0 by @fontawesome - https://fontawesome.com License - https://fontawesome.com/license (Commercial License) Copyright 2025 Fonticons, Inc. --><path fill="currentColor" d="M64 32l160 0 0 48-112 0 0 121.9-7 7-47 47 47 47 7 7 0 121.9 112 0 0 48-160 0 0-150.1-57-57-7-7 0-19.9 7-7 57-57 0-150.1zm448 0l0 150.1 57 57 7 7 0 19.9-7 7-57 57 0 150.1-160 0 0-48 112 0 0-121.9 7-7 47-47-47-47-7-7 0-121.9-112 0 0-48 160 0z"/></svg>