<svg xmlns="http://www.w3.org/2000/svg" viewBox="0 0 512 512"><!--! Font Awesome Pro 7.0.0 by @fontawesome - https://fontawesome.com License - https://fontawesome.com/license (Commercial License) Copyright 2025 Fonticons, Inc. --><path fill="currentColor" d="M432 16l0 48 40 0 0 48-77.1 0c-32.5 0-58.9 26.3-58.9 58.9 0 28.4 20.3 52.8 48.3 57.9l39.9 7.3c50.8 9.2 87.7 53.5 87.7 105.1 0 49.7-34 91.5-80 103.4l0 51.4-48 0 0-48-72 0 0-48 93.1 0c32.5 0 58.9-26.3 58.9-58.9 0-28.4-20.3-52.8-48.3-57.9L375.7 276c-50.8-9.2-87.7-53.5-87.7-105.1 0-55.3 42.1-100.9 96-106.3l0-48.5 48 0zM0 32l120 0c75.1 0 136 60.9 136 136 0 54.4-32 101.4-78.1 123.1l45.2 158.3 6.6 23.1-46.2 13.2-6.6-23.1-45.4-159.1c-3.8 .3-7.6 .5-11.5 .5l-72 0 0 176-48 0 0-448zM48 256l72 0c48.6 0 88-39.4 88-88s-39.4-88-88-88l-72 0 0 176z"/></svg>