<svg xmlns="http://www.w3.org/2000/svg" viewBox="0 0 512 512"><!--! Font Awesome Pro 7.0.0 by @fontawesome - https://fontawesome.com License - https://fontawesome.com/license (Commercial License) Copyright 2025 Fonticons, Inc. --><path fill="currentColor" d="M24 32l-24 0 0 48 40 0 0 64-40 0 0 126.8c10.4 5.2 16.1 8.1 17 8.5 19 9.5 31 28.9 31 50.1l0 150.6 144 0 0-112c0-35.3 28.7-64 64-64s64 28.7 64 64l0 112 144 0 0-150.6c0-21.2 12-40.6 31-50.1l17-8.5 0-126.8-40 0 0-64 40 0 0-48-488 0zM424 80l0 64-80 0 0-64 80 0zM296 80l0 64-80 0 0-64 80 0zM168 80l0 64-80 0 0-64 80 0zm24 112l272 0 0 49.8c-29.7 19-48 51.9-48 87.6l0 102.6-48 0 0-64c0-61.9-50.1-112-112-112S144 306.1 144 368l0 64-48 0 0-102.6c0-35.7-18.3-68.7-48-87.6l0-49.8 144 0z"/></svg>