<svg xmlns="http://www.w3.org/2000/svg" viewBox="0 0 640 512"><!--! Font Awesome Pro 7.0.0 by @fontawesome - https://fontawesome.com License - https://fontawesome.com/license (Commercial License) Copyright 2025 Fonticons, Inc. --><path fill="currentColor" d="M368 48l-288 0 0 416 96 0 0-112 96 0 0 112 64 0c0 17 3.3 33.2 9.3 48l-313.3 0 0-512 384 0 0 56-48 0 0-8zM192 96l0 64-64 0 0-64 64 0zm64 0l64 0 0 64-64 0 0-64zM192 224l0 64-64 0 0-64 64 0zm64 0l64 0 0 64-64 0 0-64zm384 0l0 16c0 44.2-35.8 80-80 80l-32 0 0-16c0-44.2 35.8-80 80-80l32 0zm0 128c0 44.2-35.8 80-80 80l-32 0 0-16c0-44.2 35.8-80 80-80l32 0 0 16zm0 112c0 44.2-35.8 80-80 80l-32 0 0-16c0-44.2 35.8-80 80-80l32 0 0 16zM496 528l0 16-32 0c-44.2 0-80-35.8-80-80l0-16 32 0c44.2 0 80 35.8 80 80zm0-96l-32 0c-44.2 0-80-35.8-80-80l0-16 32 0c44.2 0 80 35.8 80 80l0 16zm0-128l0 16-32 0c-44.2 0-80-35.8-80-80l0-16 32 0c44.2 0 80 35.8 80 80zM536 64l0 152-48 0 0-152 48 0zm72 64l0 56-48 0 0-80 48 0 0 24zM464 104l0 80-48 0 0-80 48 0z"/></svg>