<svg xmlns="http://www.w3.org/2000/svg" viewBox="0 0 576 512"><!--! Font Awesome Pro 7.0.0 by @fontawesome - https://fontawesome.com License - https://fontawesome.com/license (Commercial License) Copyright 2025 Fonticons, Inc. --><path fill="currentColor" d="M112 48l288 0 0 288 48 0 0-336-384 0 0 512 112 0 0-48-64 0 0-416zm48 48l0 64 64 0 0-64-64 0zm192 0l-64 0 0 64 64 0 0-64zM160 224l0 64 64 0 0-64-64 0zm192 0l-64 0 0 64 64 0 0-64zM520 380c-24.3 0-44 19.7-44 44l0 80c0 24.3 19.7 44 44 44l16 0c24.3 0 44-19.7 44-44l0-80c0-24.3-19.7-44-44-44l-16 0zm-4 44c0-2.2 1.8-4 4-4l16 0c2.2 0 4 1.8 4 4l0 80c0 2.2-1.8 4-4 4l-16 0c-2.2 0-4-1.8-4-4l0-80zm-168 0l0 80c0 24.3 19.7 44 44 44l16 0c24.3 0 44-19.7 44-44l0-44-48 0 0 40 8 0 0 4c0 2.2-1.8 4-4 4l-16 0c-2.2 0-4-1.8-4-4l0-80c0-2.2 1.8-4 4-4l16 0c2.2 0 4 1.8 4 4l0 8 40 0 0-8c0-24.3-19.7-44-44-44l-16 0c-24.3 0-44 19.7-44 44zM240 380l-20 0 0 168 40 0 0-59.2c15.8 37.2 24.2 56.9 25.2 59.2l38.8 0 0-168-40 0 0 63c-17.1-40.3-26.1-61.3-26.8-63L240 380z"/></svg>