<svg xmlns="http://www.w3.org/2000/svg" viewBox="0 0 640 512"><!--! Font Awesome Pro 7.0.0 by @fontawesome - https://fontawesome.com License - https://fontawesome.com/license (Commercial License) Copyright 2025 Fonticons, Inc. --><path fill="currentColor" d="M448.4 0l-256 0 0 48 32.7 0-50.5 240-46.2 0 0 103.4 45.3-18.1 2.7-1.1 0-36.2 288 0 0 36.2 2.8 1.1 45.2 18.1 0-103.4-46.2 0-50.5-240 32.7 0 0-48zM366.6 48l5.8 27.7-52.1 60.7-52-60.7 5.8-27.7 92.4 0zM255.9 134.9l32.9 38.4-54.3 63.4 21.4-101.8zm64.5 75.3l66.7 77.8-133.4 0 66.7-77.8zm85.9 26.5l-54.3-63.4 32.9-38.4 21.4 101.8zm-197 181l-8.9-3.6-8.9 3.6-111.8 44.7c-29.3-9.8-50.1-16.7-62.4-20.8L2 487.2c11 3.7 34.6 11.5 70.8 23.6l8.3 2.8 8.2-3.3 111.1-44.4 111.1 44.4 8.9 3.6 8.9-3.6 111.1-44.4 111.1 44.4 8.2 3.3 8.3-2.8c36.2-12.1 59.8-19.9 70.8-23.6l-15.2-45.5c-12.4 4.1-33.2 11.1-62.4 20.8l-111.8-44.7-8.9-3.6-8.9 3.6-111.1 44.4-111.1-44.4z"/></svg>