<svg xmlns="http://www.w3.org/2000/svg" viewBox="0 0 576 512"><!--! Font Awesome Pro 7.0.0 by @fontawesome - https://fontawesome.com License - https://fontawesome.com/license (Commercial License) Copyright 2025 Fonticons, Inc. --><path fill="currentColor" d="M96.4 208l20 256 91.6 0 0 48-136 0-36.2-464-3.8-48 384 0c-1.5 18.6-6 77.4-13.8 176.1-45.6 2.2-81.8 14.9-109.8 31.9l-196 0zm-3.7-48l262.7 0 8.7-112-280.2 0 8.8 112zM576 320l0 47.8-48 0 0-37.7c-.3-.6-.6-1.2-1-1.8-3.3-5.9-8.7-14.1-17-22.4-15.6-15.6-43.6-34-94-34-50.4 .1-78.4 18.5-94.1 34.1-8.3 8.3-13.7 16.5-17 22.4-.3 .6-.7 1.2-1 1.8l0 37.7-48 0 0-47.8s32-96 160-96.2c128 .1 160 96.2 160 96.2zM256 495.8l0-16 48 0 0 16 224 0 0-16 48 0 0 64-320 0 0-48zm320-48l-320 0 0-48 320 0 0 48zM400 304a16 16 0 1 1 32 0 16 16 0 1 1 -32 0zm-48 16a16 16 0 1 1 0 32 16 16 0 1 1 0-32zm112 16a16 16 0 1 1 32 0 16 16 0 1 1 -32 0z"/></svg>