<svg xmlns="http://www.w3.org/2000/svg" viewBox="0 0 512 512"><!--! Font Awesome Pro 7.0.0 by @fontawesome - https://fontawesome.com License - https://fontawesome.com/license (Commercial License) Copyright 2025 Fonticons, Inc. --><path fill="currentColor" d="M312.8 118.8c-20.8-43.4-39.7-83-56.8-118.8-43.7 91.5-36.9 77.2-56.8 118.8-49.6-29.6-160.4-95.7-199.2-118.8 83.7 140.4 109.2 183.1 118.8 199.2-67.2 32.1-71.1 34-118.8 56.8 35.8 17.1 75.4 36.1 118.8 56.8-16 45.4-30.6 86.8-43.8 124.2 37.5-13.2 78.9-27.8 124.2-43.8 20.7 43.4 39.7 83 56.8 118.8 17.1-35.8 36.1-75.4 56.8-118.8 45.4 16 86.8 30.6 124.2 43.8-13.2-37.5-27.8-78.9-43.8-124.2 43.4-20.8 83-39.7 118.8-56.8-35.8-17.1-75.4-36.1-118.8-56.8 16-45.4 30.6-86.8 43.8-124.2-37.5 13.2-78.9 27.8-124.2 43.8zm45.5 34.8c-6.3 17.8-14.6 41.2-24.8 70.2 27.7 13.3 50.1 24 67.2 32.1-17.1 8.2-39.5 18.9-67.2 32.1 10.2 29 18.5 52.4 24.8 70.2-17.8-6.3-41.2-14.6-70.2-24.8-13.3 27.7-24 50.1-32.1 67.2-8.2-17.1-18.9-39.5-32.1-67.2-29 10.2-52.4 18.5-70.2 24.8 6.3-17.8 14.6-41.2 24.8-70.2-27.7-13.3-50.1-24-67.2-32.1 15.6-7.5 40.9-19.6 75.7-36.2-18.9-31.6-35-58.7-48.5-81.2 22.5 13.4 49.6 29.6 81.2 48.5 16.7-34.8 28.7-60.1 36.2-75.7 8.2 17.1 18.9 39.5 32.1 67.2 29-10.2 52.4-18.5 70.2-24.8z"/></svg>