<svg xmlns="http://www.w3.org/2000/svg" viewBox="0 0 448 512"><!--! Font Awesome Pro 7.0.0 by @fontawesome - https://fontawesome.com License - https://fontawesome.com/license (Commercial License) Copyright 2025 Fonticons, Inc. --><path fill="currentColor" d="M48 48l0 48 352 0 0-48-352 0zm0 96l0 64 352 0 0-64-352 0zM400 256l-352 0 0 144 352 0 0-144zM0 256l0-256 448 0 0 448-48 0 0 64-48 0 0-64-256 0 0 64-48 0 0-64-48 0 0-192zm128 32a32 32 0 1 1 0 64 32 32 0 1 1 0-64zm160 32a32 32 0 1 1 64 0 32 32 0 1 1 -64 0z"/></svg>