<svg xmlns="http://www.w3.org/2000/svg" viewBox="0 0 512 512"><!--! Font Awesome Pro 7.0.0 by @fontawesome - https://fontawesome.com License - https://fontawesome.com/license (Commercial License) Copyright 2025 Fonticons, Inc. --><path fill="currentColor" d="M352 32l42.7 64 117.3 0 0 384-512 0 0-384 117.3 0 42.7-64 192 0zm42.7 112L369 144c-7.1-10.7-21.4-32-42.7-64L185.7 80c-21.3 32-35.5 53.3-42.7 64l-95 0 0 288 416 0 0-288-69.3 0zM256 160a112 112 0 1 1 0 224 112 112 0 1 1 0-224zm64 112a64 64 0 1 0 -128 0 64 64 0 1 0 128 0z"/></svg>