<svg xmlns="http://www.w3.org/2000/svg" viewBox="0 0 576 512"><!--! Font Awesome Pro 7.0.0 by @fontawesome - https://fontawesome.com License - https://fontawesome.com/license (Commercial License) Copyright 2025 Fonticons, Inc. --><path fill="currentColor" d="M418.9 398.8c-11.3-10.7-21.9-22-31.9-33.8l-1-1.2C294 253.3 261 99.7 256.1 30.7 272.4 20.4 327.7 0 418.9 0S565.5 20.4 581.7 30.7c-4.9 69-37.9 222.6-130 333.1l-1 1.2c-9.9 11.8-20.5 23.2-31.9 33.8zm78.3-213.3c4.6-12.4 8.7-24.6 12.3-36.5-23.8-4.6-54.1-8-90.6-8s-66.8 3.4-90.6 8c3.6 11.9 7.7 24.1 12.3 36.5 1.5 4 3 7.9 4.5 11.9 21.5-2.9 46.1-4.7 73.8-4.7s52.3 1.8 73.8 4.7c1.6-4 3.1-7.9 4.5-11.9zm-78.3 55.2c-19.7 0-37.5 1-53.5 2.6 14.8 29.9 32.5 58.8 53.5 84.9 21-26.1 38.7-55 53.5-84.9-16-1.6-33.8-2.6-53.5-2.6zm103-138.2c3.4-14.8 6-28.6 7.9-41-3.8-1.1-7.9-2.1-12.4-3.2-23.6-5.5-56.5-10.2-98.6-10.2s-75 4.7-98.6 10.2c-4.5 1.1-8.6 2.1-12.4 3.2 1.9 12.4 4.6 26.2 7.9 41 27.4-5.5 61.9-9.5 103-9.5s75.6 4 103 9.5zM160.3 112.8c11.3 10.7 21.9 22 31.9 33.8l1 1.2c92.1 110.5 125.1 264.1 130 333.1-16.3 10.2-71.6 30.7-162.8 30.7S13.7 491.1-2.5 480.9c4.9-69 37.9-222.6 130-333.1l1-1.2c9.9-11.8 20.5-23.2 31.9-33.8zM82 326.2c-4.6 12.4-8.7 24.6-12.3 36.5 23.8 4.6 54.1 8 90.6 8s66.8-3.4 90.6-8c-3.6-11.9-7.7-24.1-12.3-36.5-1.5-4-3-7.9-4.5-11.9-21.5 2.9-46.1 4.7-73.8 4.7s-52.3-1.8-73.8-4.7c-1.6 4-3.1 7.9-4.5 11.9zM160.3 271c19.7 0 37.5-1 53.5-2.6-14.8-29.9-32.5-58.8-53.5-84.9-21 26.1-38.7 55-53.5 84.9 16 1.6 33.8 2.6 53.5 2.6zM57.3 409.1c-3.4 14.8-6 28.6-7.9 41 3.8 1.1 7.9 2.1 12.4 3.2 23.6 5.5 56.5 10.2 98.6 10.2s75-4.7 98.6-10.2c4.5-1 8.6-2.1 12.4-3.2-1.9-12.4-4.6-26.2-7.9-41-27.4 5.5-61.9 9.5-103 9.5s-75.6-4-103-9.5z"/></svg>