<svg xmlns="http://www.w3.org/2000/svg" viewBox="0 0 512 512"><!--! Font Awesome Pro 7.0.0 by @fontawesome - https://fontawesome.com License - https://fontawesome.com/license (Commercial License) Copyright 2025 Fonticons, Inc. --><path fill="currentColor" d="M95.6-30.8l48 16-15.2 45.5-70.8-23.6 15.2-45.5 22.8 7.6zM312 64l123 0 4.4 18.4 26.1 109.6 46.6 0 0 288-48 0 0-64-416 0 0 64-48 0 0-288 46.6 0 26.1-109.6 4.4-18.4 123 0 16-64 80 0 16 64zM439.2-38.4L454.4 7.2c-11 3.7-34.6 11.5-70.8 23.6L368.4-14.8c36.2-12.1 59.8-19.9 70.8-23.6zM416.1 192l-19-80-282.1 0-19 80 320.2 0zM464 240l-416 0 0 128 416 0 0-128zM80 304a32 32 0 1 1 64 0 32 32 0 1 1 -64 0zm320-32a32 32 0 1 1 0 64 32 32 0 1 1 0-64z"/></svg>