<svg xmlns="http://www.w3.org/2000/svg" viewBox="0 0 640 512"><!--! Font Awesome Pro 7.0.0 by @fontawesome - https://fontawesome.com License - https://fontawesome.com/license (Commercial License) Copyright 2025 Fonticons, Inc. --><path fill="currentColor" d="M128 32l-16.5 0-5.9 15.5-55.1 144.5-50.5 0 0 208 64.4 0c4 44.9 41.7 80 87.6 80s83.6-35.1 87.6-80l144.7 0c4 44.9 41.7 80 87.6 80s83.6-35.1 87.6-80l80.4 0 0-208-122.2 0-114.7-150.5-7.2-9.5-267.9 0zM550.4 352c-14.6-28.5-44.2-48-78.4-48s-63.8 19.5-78.4 48l-163.2 0c-14.6-28.5-44.2-48-78.4-48s-63.8 19.5-78.4 48l-25.6 0 0-112 80 0 0-48-26.1 0 42.7-112 227.6 0 85.3 112-41.4 0 0 48 176 0 0 112-41.6 0zM152 352a40 40 0 1 1 0 80 40 40 0 1 1 0-80zm280 40a40 40 0 1 1 80 0 40 40 0 1 1 -80 0zM320 112l-144 112 70.9 0-22.9 80 144-112-70.9 0 22.9-80z"/></svg>