<svg xmlns="http://www.w3.org/2000/svg" viewBox="0 0 512 512"><!--! Font Awesome Pro 7.0.0 by @fontawesome - https://fontawesome.com License - https://fontawesome.com/license (Commercial License) Copyright 2025 Fonticons, Inc. --><path fill="currentColor" d="M112 32l-17.3 0-5.5 16.4-47.9 143.6-41.4 0 0 288 48 0 0-64 416 0 0 64 48 0 0-288-41.4 0-47.9-143.6-5.5-16.4-305.3 0zM420 192L92 192 129.3 80 382.7 80 420 192zM48 240l416 0 0 128-416 0 0-128zm64 96a32 32 0 1 0 0-64 32 32 0 1 0 0 64zm320-32a32 32 0 1 0 -64 0 32 32 0 1 0 64 0z"/></svg>