<svg xmlns="http://www.w3.org/2000/svg" viewBox="0 0 640 512"><!--! Font Awesome Pro 7.0.0 by @fontawesome - https://fontawesome.com License - https://fontawesome.com/license (Commercial License) Copyright 2025 Fonticons, Inc. --><path fill="currentColor" d="M496 80l0 288-204.1 0c-16.1-19.5-40.6-32-67.9-32s-51.7 12.5-67.9 32L80 368 80 80 496 80zM80 416l56.4 0c-.2 2.6-.4 5.3-.4 8 0 48.6 39.4 88 88 88s88-39.4 88-88c0-2.7-.1-5.4-.4-8l328.4 0 0-48-96 0 0-336-512 0 0 384 48 0zM256 128l-128 0 0 128 128 0 0-128zm64 0l0 128 128 0 0-128-128 0zM224 384a40 40 0 1 1 0 80 40 40 0 1 1 0-80z"/></svg>