<svg xmlns="http://www.w3.org/2000/svg" viewBox="0 0 640 512"><!--! Font Awesome Pro 7.0.0 by @fontawesome - https://fontawesome.com License - https://fontawesome.com/license (Commercial License) Copyright 2025 Fonticons, Inc. --><path fill="currentColor" d="M24-16l-24 0 0 48 76 0 60.4 332.3 3.6 19.7 356 0 0-48-316 0-8.7-48 360.7 0 3.6-19.7 43-236.3-48.8 0-37.8 208-329.4 0-43-236.3-3.6-19.7-92 0zM256 464a48 48 0 1 0 -96 0 48 48 0 1 0 96 0zm224 0a48 48 0 1 0 -96 0 48 48 0 1 0 96 0zM248 72l-24 0 0 48 192 0 0-48-168 0z"/></svg>