<svg xmlns="http://www.w3.org/2000/svg" viewBox="0 0 512 512"><!--! Font Awesome Pro 7.0.0 by @fontawesome - https://fontawesome.com License - https://fontawesome.com/license (Commercial License) Copyright 2025 Fonticons, Inc. --><path fill="currentColor" d="M432 80l0 32-352 0 0-32 352 0zM80 32l-48 0 0 128 200 0 0 16c-3.6 3.6-16.3 16.3-38.1 38.1l-9.9 9.9-144 0 0 128-40 0 0 128 128 0 0-128-40 0 0-80 96 0c3.6 3.6 16.3 16.3 38.1 38.1l9.9 9.9 0 32-40 0 0 128 128 0 0-128-40 0 0-32 48-48 96 0 0 80-40 0 0 128 128 0 0-128-40 0 0-128-144 0c-3.6-3.6-16.3-16.3-38.1-38.1l-9.9-9.9 0-16 200 0 0-128-400 0zM48 432l0-32 32 0 0 32-32 0zm224-32l0 32-32 0 0-32 32 0zm160 32l0-32 32 0 0 32-32 0zM227.9 248L256 219.9 284.1 248 256 276.1 227.9 248z"/></svg>