<svg xmlns="http://www.w3.org/2000/svg" viewBox="0 0 512 512"><!--! Font Awesome Pro 7.0.0 by @fontawesome - https://fontawesome.com License - https://fontawesome.com/license (Commercial License) Copyright 2025 Fonticons, Inc. --><path fill="currentColor" d="M48 32l0 400 464 0 0 48-512 0 0-448 48 0zM176 256a48 48 0 1 1 0 96 48 48 0 1 1 0-96zm200 32a24 24 0 1 0 -48 0 24 24 0 1 0 48 0zm-88 0a64 64 0 1 1 128 0 64 64 0 1 1 -128 0zM240 128a48 48 0 1 1 0 96 48 48 0 1 1 0-96zm168 0a24 24 0 1 0 -48 0 24 24 0 1 0 48 0zm-88 0a64 64 0 1 1 128 0 64 64 0 1 1 -128 0z"/></svg>