<svg xmlns="http://www.w3.org/2000/svg" viewBox="0 0 576 512"><!--! Font Awesome Pro 7.0.0 by @fontawesome - https://fontawesome.com License - https://fontawesome.com/license (Commercial License) Copyright 2025 Fonticons, Inc. --><path fill="currentColor" d="M150.9 496.1L13.5 256.1 150.9 16 426 16 563.4 256.1 426 496.1 150.9 496.1zM68.8 256.1l109.9 192.1 219.5 0 109.9-192.1-109.9-192.1-219.5 0-109.9 192.1zM328.5 160c0 7.6-2.1 14.7-5.8 20.8l40.2 100.6c17.1 4.6 29.6 20.1 29.6 38.6 0 22.1-17.9 40-40 40-15.9 0-29.7-9.3-36.1-22.7l-97.2-19.4c-7.1 6.3-16.4 10.2-26.7 10.2-22.1 0-40-17.9-40-40s17.9-40 40-40L250 171.2c-1-3.6-1.6-7.3-1.6-11.2 0-22.1 17.9-40 40-40s40 17.9 40 40zm-94 111.9l79.2 15.8-31.7-79.2-47.5 63.4z"/></svg>