<svg xmlns="http://www.w3.org/2000/svg" viewBox="0 0 320 512"><!--! Font Awesome Pro 7.0.0 by @fontawesome - https://fontawesome.com License - https://fontawesome.com/license (Commercial License) Copyright 2025 Fonticons, Inc. --><path fill="currentColor" d="M232 48l-32 0 49.3 59.1c19.9 23.8 30.7 53.9 30.7 84.9 0 22.5-5.8 44.5-16.5 64l8.5 0 0 48-32 0 0 64 64 96 0 48-288 0 0-48 64-96 0-64-32 0 0-48 8.5 0c-10.7-19.5-16.5-41.5-16.5-64 0-31 10.9-61 30.7-84.9L120 48 88 48 88 0 232 0 232 48zM73.7 464l172.6 0-32-48-108.6 0-32 48zM128 304l0 64 64 0 0-64-64 0zM107.6 137.8C94.9 153 88 172.2 88 192 88 211.8 94.9 230.9 107.6 246.1l8.2 9.9 88.4 0 8.2-9.9c12.6-15.2 19.6-34.3 19.6-54.1 0-11-2.2-21.8-6.2-31.8l-41.8 41.8-33.9-33.9 47.7-47.7-37.8-45.3-52.4 62.9z"/></svg>