<svg xmlns="http://www.w3.org/2000/svg" viewBox="0 0 384 512"><!--! Font Awesome Pro 7.0.0 by @fontawesome - https://fontawesome.com License - https://fontawesome.com/license (Commercial License) Copyright 2025 Fonticons, Inc. --><path fill="currentColor" d="M192-32c66.3 0 120 53.7 120 120 0 27-8.9 51.9-24 72l16 0 0 48-24.6 0 24.6 160 64 80 0 64-352 0 0-64 64-80 24.6-160-24.6 0 0-48 16 0c-15.1-20.1-24-45-24-72 0-66.3 53.7-120 120-120zM115.9 400l-51.2 64 254.7 0-51.2-64-152.2 0zm36.2-184.7l-21 136.7 121.9 0-21-136.7-1.1-7.3-77.6 0-1.1 7.3zM192 16a72 72 0 1 0 0 144 72 72 0 1 0 0-144z"/></svg>