<svg xmlns="http://www.w3.org/2000/svg" viewBox="0 0 512 512"><!--! Font Awesome Pro 7.0.0 by @fontawesome - https://fontawesome.com License - https://fontawesome.com/license (Commercial License) Copyright 2025 Fonticons, Inc. --><path fill="currentColor" d="M256 48a208 208 0 1 1 0 416 208 208 0 1 1 0-416zm0 464a256 256 0 1 0 0-512 256 256 0 1 0 0 512zM144 144l0 48 88 0 0 55.1c-41.7 13.9-64.4 21.5-68.2 22.7l10.1 30.4c5.5-1.8 24.9-8.3 58.1-19.4l0 30.3c-41.7 13.9-64.4 21.5-68.2 22.7l10.1 30.4c5.5-1.8 24.9-8.3 58.1-19.4l0 55.1 48 0 0-71.1c41.7-13.9 64.4-21.5 68.2-22.7l-10.1-30.4c-5.5 1.8-24.9 8.3-58.1 19.4l0-30.3c41.7-13.9 64.4-21.5 68.2-22.7l-10.1-30.4c-5.5 1.8-24.9 8.3-58.1 19.4l0-39.1 88 0 0-48-224 0z"/></svg>