<svg xmlns="http://www.w3.org/2000/svg" viewBox="0 0 512 512"><!--! Font Awesome Pro 7.0.0 by @fontawesome - https://fontawesome.com License - https://fontawesome.com/license (Commercial License) Copyright 2025 Fonticons, Inc. --><path fill="currentColor" d="M256 48a208 208 0 1 1 0 416 208 208 0 1 1 0-416zm0 464a256 256 0 1 0 0-512 256 256 0 1 0 0 512zm64-376l0 25.1c-27.3 5.2-48 29.3-48 58.1 0 28.2 19.9 52.5 47.6 58l23.5 4.7c5.2 1 9 5.6 9 11 0 6.2-5 11.2-11.2 11.2l-60.8 0 0 48 40 0 0 24 32 0 0-25.1c27.3-5.2 48-29.3 48-58.1 0-28.2-19.9-52.5-47.6-58L329 230.1c-5.2-1-9-5.6-9-11 0-6.2 5-11.2 11.2-11.2l52.8 0 0-48-32 0 0-24-32 0zM169.9 160l-4.9 17.6-53 190.4 49.8 0 6.7-24 47 0 6.7 24 49.8 0-53-190.4-4.9-17.6-44.2 0zM192 259.5l10.1 36.5-20.3 0 10.1-36.5z"/></svg>