<svg xmlns="http://www.w3.org/2000/svg" viewBox="0 0 512 512"><!--! Font Awesome Pro 7.0.0 by @fontawesome - https://fontawesome.com License - https://fontawesome.com/license (Commercial License) Copyright 2025 Fonticons, Inc. --><path fill="currentColor" d="M256 48a208 208 0 1 1 0 416 208 208 0 1 1 0-416zm0 464a256 256 0 1 0 0-512 256 256 0 1 0 0 512zM136 144l-24 0 0 224 121.6 0 0-48-73.6 0 0-36.8 64 0 0-48-64 0 0-43.2 72 0 0-48-96 0zm152 0l-24 0 0 48 68.3 0c-46.5 113.6-70.5 172.2-72 176l139.7 0 0-48-68.3 0c46.5-113.6 70.5-172.2 72-176L288 144z"/></svg>