<svg xmlns="http://www.w3.org/2000/svg" viewBox="0 0 512 512"><!--! Font Awesome Pro 7.0.0 by @fontawesome - https://fontawesome.com License - https://fontawesome.com/license (Commercial License) Copyright 2025 Fonticons, Inc. --><path fill="currentColor" d="M256 48a208 208 0 1 1 0 416 208 208 0 1 1 0-416zm0 464a256 256 0 1 0 0-512 256 256 0 1 0 0 512zM175.5 200l-15.5 0 0 32 21.6 0c.2 .5 .4 1 .6 1.5l1.4 3.5c2.5 6.1 4 12.6 4.3 19l-27.9 0 0 32 20.4 0c-1.4 2.4-2.9 4.7-4.7 7-14.7 18.9-22.6 29.1-23.7 30.5l0 42.5 200 0 0-48-135.1 0c6.9-9.9 12-20.7 15.1-32l88 0 0-32-84 0c-.2-8-1.4-16.1-3.5-24l87.5 0 0-32-96.5 0c0-21.1 17-40 40-40l2.2 0c9.3 0 18.3 3 25.7 8.6l14.2 10.6 28.8-38.4-14.2-10.6c-15.7-11.8-34.9-18.2-54.5-18.2l-2.2 0c-50.6 0-88.1 41.5-88.1 88z"/></svg>