<svg xmlns="http://www.w3.org/2000/svg" viewBox="0 0 512 512"><!--! Font Awesome Pro 7.0.0 by @fontawesome - https://fontawesome.com License - https://fontawesome.com/license (Commercial License) Copyright 2025 Fonticons, Inc. --><path fill="currentColor" d="M256 48a208 208 0 1 1 0 416 208 208 0 1 1 0-416zm0 464a256 256 0 1 0 0-512 256 256 0 1 0 0 512zM239 353l17 17c2.1-2.1 31.8-31.8 89-89l17-17-33.9-33.9c-9 9-25 25-48 48l0-126.1-48 0c0 3 0 45 0 126.1-23-23-39-39-48-48L150.1 264c2.1 2.1 31.8 31.8 89 89z"/></svg>