<svg xmlns="http://www.w3.org/2000/svg" viewBox="0 0 640 512"><!--! Font Awesome Pro 7.0.0 by @fontawesome - https://fontawesome.com License - https://fontawesome.com/license (Commercial License) Copyright 2025 Fonticons, Inc. --><path fill="currentColor" d="M288 48c98.4 0 180.8 68.3 202.5 160.1 1.8-.1 3.7-.1 5.5-.1 15.3 0 30.2 1.8 44.4 5.2-20.4-121-125.6-213.2-252.4-213.2-141.4 0-256 114.6-256 256S146.6 512 288 512c16.7 0 33-1.6 48.8-4.6-9.3-13.8-16.9-28.9-22.4-45-8.6 1.1-17.4 1.7-26.3 1.7-36.5 0-70.9-9.4-100.7-26l23.3-70 96.1 0c2.8-16.8 7.8-32.9 14.8-48l-145.4 0-29.5 88.5C105.6 370.5 80 316.2 80 256 80 141.1 173.1 48 288 48zm40 152a40 40 0 1 1 -80 0 40 40 0 1 1 80 0zm-40-88a88 88 0 1 0 0 176 88 88 0 1 0 0-176zM640 400a144 144 0 1 0 -288 0 144 144 0 1 0 288 0zm-60.8 47.9c-16.6 28.7-47.6 48.1-83.2 48.1-53 0-96-43-96-96 0-52 41.3-94.3 92.8-95.9-8.2 14.1-12.8 30.5-12.8 47.9 0 53 43 96 96 96 1.1 0 2.1 0 3.2-.1z"/></svg>