<svg xmlns="http://www.w3.org/2000/svg" viewBox="0 0 512 512"><!--! Font Awesome Pro 7.0.0 by @fontawesome - https://fontawesome.com License - https://fontawesome.com/license (Commercial License) Copyright 2025 Fonticons, Inc. --><path fill="currentColor" d="M256 48a208 208 0 1 1 0 416 208 208 0 1 1 0-416zm0 464a256 256 0 1 0 0-512 256 256 0 1 0 0 512zM384 160l0-24-48 0 0 168c0 13.3-10.7 24-24 24l-64 0c0-62.7 0-97.3 0-104l-48 0c0 2.7 0 45.3 0 128l0 24 112 0c39.8 0 72-32.2 72-72l0-144zM152 136l-24 0 0 240 48 0 0-192 64 0c13.3 0 24 10.7 24 24l0 80 48 0 0-80c0-39.8-32.2-72-72-72l-88 0z"/></svg>