<svg xmlns="http://www.w3.org/2000/svg" viewBox="0 0 512 512"><!--! Font Awesome Pro 7.0.0 by @fontawesome - https://fontawesome.com License - https://fontawesome.com/license (Commercial License) Copyright 2025 Fonticons, Inc. --><path fill="currentColor" d="M256 48a208 208 0 1 1 0 416 208 208 0 1 1 0-416zm0 464a256 256 0 1 0 0-512 256 256 0 1 0 0 512zm97.8-348.5l-30.2-37.3c-2.1 1.7-35.2 28.5-99.5 80.7l0-78.9-48 0 0 112.2-31.8 0 0 32 31.8 0 0 111.8 48 0 0-78.6c64.3 51.9 97.5 78.7 99.6 80.4l30.1-37.4c-2.9-2.4-34.4-27.8-94.4-76.2l92.5 0 0-32-92.7 0c60.2-48.8 91.8-74.4 94.6-76.7z"/></svg>