<svg xmlns="http://www.w3.org/2000/svg" viewBox="0 0 512 512"><!--! Font Awesome Pro 7.0.0 by @fontawesome - https://fontawesome.com License - https://fontawesome.com/license (Commercial License) Copyright 2025 Fonticons, Inc. --><path fill="currentColor" d="M464 256a208 208 0 1 0 -416 0 208 208 0 1 0 416 0zM0 256a256 256 0 1 1 512 0 256 256 0 1 1 -512 0zm276-80l-60 0 0 56 60 0c15.5 0 28-12.5 28-28s-12.5-28-28-28zm62.2 71.7c18.1 13.9 29.8 35.8 29.8 60.3 0 42-34 76-76 76l-4 0 0 32-32 0 0-32-16 0 0 32-32 0 0-32-40 0 0-256 40 0 0-32 32 0 0 32 16 0 0-32 32 0 0 32.9c36.3 5.8 64 37.2 64 75.1 0 16.2-5.1 31.3-13.8 43.7zM216 280l0 56 76 0c15.5 0 28-12.5 28-28s-12.5-28-28-28l-76 0z"/></svg>