<svg xmlns="http://www.w3.org/2000/svg" viewBox="0 0 512 512"><!--! Font Awesome Pro 7.0.0 by @fontawesome - https://fontawesome.com License - https://fontawesome.com/license (Commercial License) Copyright 2025 Fonticons, Inc. --><path fill="currentColor" d="M256 48a208 208 0 1 1 0 416 208 208 0 1 1 0-416zm0 464a256 256 0 1 0 0-512 256 256 0 1 0 0 512zM152 144l-24 0 0 224 48 0 0-80 12 0c16.4 49.2 26 78 28.8 86.4l45.5-15.2c-3.1-9.3-12.1-36.2-26.8-80.5 21.8-12.4 36.5-35.8 36.5-62.6 0-39.8-32.2-72-72-72l-48 0zm48 96l-24 0 0-48 24 0c13.3 0 24 10.7 24 24s-10.7 24-24 24zm88-16l0 184 48 0 0-56 16 0c35.3 0 64-28.7 64-64s-28.7-64-64-64l-64 0zm48 80l0-32 16 0c8.8 0 16 7.2 16 16s-7.2 16-16 16l-16 0z"/></svg>