<svg xmlns="http://www.w3.org/2000/svg" viewBox="0 0 512 512"><!--! Font Awesome Pro 7.0.0 by @fontawesome - https://fontawesome.com License - https://fontawesome.com/license (Commercial License) Copyright 2025 Fonticons, Inc. --><path fill="currentColor" d="M35.4 1.3l17 17 108.8 108.8 7 7 0 49.9 49.9 0 7 7 128 128 7 7 0 49.9 49.9 0 100.8 100.8-33.9 33.9c-2.5-2.5-31.4-31.4-86.7-86.7l-78.1 0 0-78.1-113.9-113.9-78.1 0 0-78.1-101.8-101.8-17-17 33.9-33.9zm0 224c1.3 1.3 32.6 32.6 93.8 93.8l7 7 0 49.9 49.9 0 7 7 93.8 93.8-33.9 33.9c-2.5-2.5-31.4-31.4-86.7-86.7l-78.1 0 0-78.1C32.9 290.6 4 261.7 1.5 259.2l33.9-33.9zm241-207c9.5 9.5 16.1 16.1 19.8 19.8l0 49.9 49.9 0 7 7 64 64 7 7 0 49.9 49.9 0c7.9 7.9 28.8 28.8 36.8 36.8L477 286.7c-13.2-13.2-20.8-20.8-22.7-22.7l-78.1 0 0-78.1-49.9-49.9-78.1 0 0-78.1c-2-2-9.6-9.6-22.7-22.7l33.9-33.9 17 17z"/></svg>