<svg xmlns="http://www.w3.org/2000/svg" viewBox="0 0 512 512"><!--! Font Awesome Pro 7.0.0 by @fontawesome - https://fontawesome.com License - https://fontawesome.com/license (Commercial License) Copyright 2025 Fonticons, Inc. --><path fill="currentColor" d="M184 48c-39.8 0-72 32.2-72 72l0 37.2-19.2 3.9C67.2 166.3 48 188.9 48 216l0 56 149.8 0-57.1 48-140.6 0 0-104c0-43.3 26.4-80.3 64-96 0-66.3 53.7-120 120-120 37.9 0 71.7 17.6 93.7 45 14.9-8.3 32.1-13 50.3-13 50 0 91.7 35.3 101.7 82.3 47 10 82.3 51.7 82.3 101.7l0 104-163.6 0 11.4-48 104.2 0 0-56c0-30.9-25.1-56-56-56l-24 0 0-24c0-30.9-25.1-56-56-56-15.6 0-29.6 6.3-39.8 16.6l-24.3 24.5-14.5-31.3C237.9 65.1 212.9 48 184 48zM120 400l200-168-32.4 136 104.4 0-200 168 32.4-136-104.4 0z"/></svg>