<svg xmlns="http://www.w3.org/2000/svg" viewBox="0 0 576 512"><!--! Font Awesome Pro 7.0.0 by @fontawesome - https://fontawesome.com License - https://fontawesome.com/license (Commercial License) Copyright 2025 Fonticons, Inc. --><path fill="currentColor" d="M418.4 135c0-58.6 40.4-107.8 94.8-121.3-19.8-8.8-41.7-13.7-64.8-13.7-84 0-152.8 64.7-159.5 146.9 .4 .7 .8 1.5 1.2 2.2 32.1 10.1 57.9 34.2 70.3 65.2 46 15.1 80.5 55.7 86.9 105l.7 .6 .4 0c52.6 0 99.2-25.4 128.4-64.5-10.6 2.9-21.8 4.5-33.4 4.5-69 0-125-56-125-125zm-162 153l-24 0c-37.6 0-68.4 28.8-71.7 65.5-36.7 7.3-64.3 39.7-64.3 78.5l0 80 352 0 0-88c0-34.2-19.5-63.8-48-78.4l0-9.6c0-44.2-35.8-80-80-80-26.2 0-49.4 12.6-64 32zm64 16c17.7 0 32 14.3 32 32l0 44.6 18 4.6c17.3 4.4 30 20.1 30 38.7l0 40-256 0 0-32c0-17.7 14.3-32 32-32l32 0 0-40c0-13.3 10.7-24 24-24l52.6 0 6.5-13.7c5.2-10.9 16.2-18.3 28.9-18.3zm-144-176c-26.2 0-49.4 12.6-64 32l-32 0c-44.2 0-80 35.8-80 80l0 80 114 0c2-1.1 4-2.1 6-3.1 6.6-17.2 17.1-32.5 30.4-44.9l-102.4 0 0-32c0-17.7 14.3-32 32-32l60.6 0 6.5-13.7c5.2-10.9 16.2-18.3 28.9-18.3 17.7 0 32 14.3 32 32l0 32 27.4 0c17.8-15.7 40.1-26.6 64.7-30.5-11.5-10.9-27-17.5-44-17.5l-1.6 0c-7.4-36.5-39.7-64-78.4-64z"/></svg>