<svg xmlns="http://www.w3.org/2000/svg" viewBox="0 0 512 512"><!--! Font Awesome Pro 7.0.0 by @fontawesome - https://fontawesome.com License - https://fontawesome.com/license (Commercial License) Copyright 2025 Fonticons, Inc. --><path fill="currentColor" d="M256.3 42.1l24.3-24.3 32.6 0c43.3 0 78.5 35.1 78.5 78.5 0 10.6-2.2 21-6.3 30.7 9.7-4.1 20.1-6.3 30.7-6.3 43.3 0 78.4 35.1 78.4 78.5l0 32.6-24.3 24.3 24.3 24.3 0 32.6c0 43.3-35.1 78.5-78.4 78.5-10.6 0-21-2.2-30.7-6.3 4.1 9.7 6.3 20.1 6.3 30.7 0 43.3-35.1 78.4-78.5 78.4l-32.6 0-24.3-24.3-24.3 24.3-32.6 0c-43.3 0-78.5-35.1-78.5-78.4 0-10.6 2.2-21 6.3-30.7-9.7 4.1-20.1 6.3-30.7 6.3-43.3 0-78.5-35.1-78.5-78.5L18 280.3 42.3 256 18 231.7 18 199c0-43.3 35.1-78.5 78.5-78.5 10.6 0 21 2.2 30.7 6.3-4.1-9.7-6.3-20.1-6.3-30.7 0-43.3 35.1-78.5 78.5-78.5l32.6 0 24.3 24.3zm-57 23.7c-16.8 0-30.5 13.6-30.5 30.5 0 5.2 1.3 10.3 3.8 14.8 27.5 49.5 44.5 80.1 51 91.8l-20.6 20.6c-11.7-6.5-42.3-23.5-91.8-51-4.5-2.5-9.6-3.8-14.8-3.8-16.8 0-30.5 13.6-30.5 30.5l0 12.7 44.2 44.2-44.2 44.2 0 12.8c0 16.8 13.6 30.5 30.5 30.5 5.2 0 10.3-1.3 14.8-3.8 49.5-27.5 80.1-44.5 91.9-51l20.6 20.6c-6.5 11.7-23.5 42.4-51 91.9-2.5 4.5-3.8 9.6-3.8 14.8 0 16.8 13.7 30.4 30.5 30.4l12.7 0 44.2-44.2 44.2 44.2 12.8 0c16.8 0 30.5-13.6 30.5-30.4 0-3.9-.8-7.7-2.2-11.3l-1.7-3.5c-27.5-49.5-44.5-80.1-51.1-91.9l20.6-20.6c11.7 6.6 42.4 23.6 91.9 51.1l3.5 1.7c3.6 1.4 7.4 2.2 11.3 2.2 16.8 0 30.4-13.7 30.4-30.5l0-12.8-44.2-44.2 44.2-44.2 0-12.7c0-16.8-13.6-30.5-30.4-30.5-5.2 0-10.3 1.3-14.8 3.8-49.5 27.5-80.1 44.5-91.9 51l-20.6-20.6c6.5-11.7 23.5-42.4 51-91.9 2.5-4.5 3.8-9.6 3.8-14.8 0-16.8-13.6-30.5-30.5-30.5l-12.8 0-44.2 44.2-44.2-44.2-12.7 0z"/></svg>