<svg xmlns="http://www.w3.org/2000/svg" viewBox="0 0 576 512"><!--! Font Awesome Pro 7.0.0 by @fontawesome - https://fontawesome.com License - https://fontawesome.com/license (Commercial License) Copyright 2025 Fonticons, Inc. --><path fill="currentColor" d="M544 240c0-13.6-1.2-26.9-3.5-39.9-13.8 5.1-28.8 7.9-44.5 7.9-1 0-2 0-2.9 0 1.9 10.5 2.9 21.2 2.9 32 0 103.2-90.2 192-208 192-30.5 0-59.2-6-85.1-16.8l-16.8-7c-5.6 1.9-28.8 9.9-69.8 24 8.2-20.1 15.7-38.6 22.6-55.6l-17.8-22c-26.1-32.2-41.2-71.9-41.2-114.6 0-103.2 90.2-192 208-192 29 0 56.4 5.4 81.1 15.1 2.2-16.3 7.4-31.7 15.1-45.5-29.7-11.3-62.2-17.5-96.2-17.5-141.4 0-256 107.5-256 240 0 54.4 19.3 104.6 51.8 144.8-19.1 47-36.4 89.4-51.8 127.2 34.9-12 85.7-29.5 152.5-52.4 31.6 13.1 66.7 20.4 103.5 20.4 141.4 0 256-107.5 256-240zm-48-80a80 80 0 1 0 0-160 80 80 0 1 0 0 160z"/></svg>