<svg xmlns="http://www.w3.org/2000/svg" viewBox="0 0 512 512"><!--! Font Awesome Pro 7.0.0 by @fontawesome - https://fontawesome.com License - https://fontawesome.com/license (Commercial License) Copyright 2025 Fonticons, Inc. --><path fill="currentColor" d="M96.3 402.9l10.7-26.2-17.8-22C63.1 322.4 48 282.7 48 240 48 136.8 138.2 48 256 48s208 88.8 208 192-90.2 192-208 192c-30.5 0-59.2-6-85.1-16.8l-16.8-7c-5.6 1.9-28.8 9.9-69.8 24l12-29.4zM0 512c34.9-12 85.7-29.5 152.5-52.4 31.6 13.1 66.7 20.4 103.5 20.4 141.4 0 256-107.5 256-240S397.4 0 256 0 0 107.5 0 240C0 294.4 19.3 344.6 51.8 384.8 32.7 431.8 15.4 474.2 0 512zM140.8 172.8c-23 0-41.6 18.6-41.6 41.6S117.8 256 140.8 256c5.3 0 9.6 4.3 9.6 9.6s-4.3 9.6-9.6 9.6l-41.6 0 0 32 41.6 0c23 0 41.6-18.6 41.6-41.6S163.8 224 140.8 224c-5.3 0-9.6-4.3-9.6-9.6s4.3-9.6 9.6-9.6l35.2 0 0-32-35.2 0zm188.8 41.6c0 23 18.6 41.6 41.6 41.6 5.3 0 9.6 4.3 9.6 9.6s-4.3 9.6-9.6 9.6l-41.6 0 0 32 41.6 0c23 0 41.6-18.6 41.6-41.6S394.2 224 371.2 224c-5.3 0-9.6-4.3-9.6-9.6s4.3-9.6 9.6-9.6l35.2 0 0-32-35.2 0c-23 0-41.6 18.6-41.6 41.6zm-19.2-25.6l0-16c-27 0-19.7 0-30.1 0l-4.5 8.5-20 37.8c-16.7-30.3-25.2-45.8-25.5-46.3-14.1 0-14.3 0-28.7 0l0 134.4 32 0 0-61.9c4.6 8.4 12.2 22.1 22.7 41.2 10.2-19.2 17.6-33.1 22.1-41.8l0 62.5 32 0 0-118.4z"/></svg>