<svg xmlns="http://www.w3.org/2000/svg" viewBox="0 0 512 512"><!--! Font Awesome Pro 7.0.0 by @fontawesome - https://fontawesome.com License - https://fontawesome.com/license (Commercial License) Copyright 2025 Fonticons, Inc. --><path fill="currentColor" d="M96.3 402.9l10.7-26.2-17.8-22C63.1 322.4 48 282.7 48 240 48 136.8 138.2 48 256 48s208 88.8 208 192-90.2 192-208 192c-30.5 0-59.2-6-85.1-16.8l-16.8-7c-5.6 1.9-28.8 9.9-69.8 24l12-29.4zM0 512c34.9-12 85.7-29.5 152.5-52.4 31.6 13.1 66.7 20.4 103.5 20.4 141.4 0 256-107.5 256-240S397.4 0 256 0 0 107.5 0 240C0 294.4 19.3 344.6 51.8 384.8 32.7 431.8 15.4 474.2 0 512zM249.6 183.5c-11.1-14.8-28.5-23.5-46.9-23.5-32.4 0-58.7 26.3-58.7 58.7l0 5.3c0 64 112 128 112 128s112-64 112-128l0-5.3c0-32.4-26.3-58.7-58.7-58.7-18.5 0-35.9 8.7-46.9 23.5l-6.4 8.5-6.4-8.5z"/></svg>