<svg xmlns="http://www.w3.org/2000/svg" viewBox="0 0 512 512"><!--! Font Awesome Pro 7.0.0 by @fontawesome - https://fontawesome.com License - https://fontawesome.com/license (Commercial License) Copyright 2025 Fonticons, Inc. --><path fill="currentColor" d="M320.5 440.8C295 481.5 273.6 515.9 256 544 238.4 515.9 216.9 481.5 191.5 440.8 81.4 415.8 0 328.2 0 224 0 100.3 114.6 0 256 0S512 100.3 512 224c0 104.2-81.4 191.8-191.5 216.8zM256 453.4c18-28.9 29.5-47.2 34.4-55l19.5-4.4c93-21.1 154.1-92.7 154.1-170 0-91.4-86.9-176-208-176S48 132.6 48 224c0 77.3 61.1 148.9 154.1 170l19.5 4.4c4.9 7.8 16.3 26.1 34.4 55z"/></svg>