<svg xmlns="http://www.w3.org/2000/svg" viewBox="0 0 640 512"><!--! Font Awesome Pro 7.0.0 by @fontawesome - https://fontawesome.com License - https://fontawesome.com/license (Commercial License) Copyright 2025 Fonticons, Inc. --><path fill="currentColor" d="M72 184c0-23 10.7-43.4 27.5-56.6-2.3 7.8-3.5 16.1-3.5 24.6l0 296 128 0 0-69.4c2.5 .6 5.2 1.2 8 1.7l0 27.6 32 0 0-24.1c2.6 .1 5.3 .1 8 .1s5.4 0 8-.1l0 24.1 32 0 0-27.6c2.8-.5 5.5-1.1 8-1.7l0 69.4 128 0 0-180.3 16 20.6 0 54.8 3.8 5.9 56 88 7.1 11.1 109.2 0 0-192.2c-2.3-3-7.7-9.9-16-20.7l0-91.1-48 0 0 29-48.2-62.4C505.1 81.2 470 64 432.9 64L144 64C77.7 64 24 117.7 24 184l0 54C9.4 249.8 0 267.8 0 288l0 32 8 0c35.3 0 64-28.7 64-64l0-72zm91.2-66.1c3.6 12.3 10.3 23.6 19.5 32.8l7.4 7.4C211.8 179.8 241.3 192 272 192s60.2-12.2 81.9-33.9l7.4-7.4c10.7-10.7 17.9-24.1 21-38.6l50.5 0c22.3 0 43.3 10.3 57 28l102.2 132.2 0 127.8-34.8 0-45.2-71 0-57.2-5.1-6.5-56-72-7.2-9.3-43.7 0 0 216-32 0 0-64c0-53-43-96-96-96s-96 43-96 96l0 64-32 0 0-248c0-14.5 7.7-27.1 19.2-34.1zm62.4 211.4l-1.1-.4C228 305.7 247.9 288 272 288s44 17.7 47.5 40.9l-1.1 .4c-9.7 3.2-25.1 6.8-46.4 6.8s-36.7-3.5-46.4-6.8zM576 320a16 16 0 1 0 -32 0 16 16 0 1 0 32 0z"/></svg>