<svg xmlns="http://www.w3.org/2000/svg" viewBox="0 0 512 512"><!--! Font Awesome Pro 7.0.0 by @fontawesome - https://fontawesome.com License - https://fontawesome.com/license (Commercial License) Copyright 2025 Fonticons, Inc. --><path fill="currentColor" d="M98.4 256.1l-27.3 111.9-49.4 0 74.3-304 320 0 74.3 304-49.4 0-27.3-111.9-60.6-15.1-89.4 29.8-7.6 2.5-7.6-2.5-89.4-29.8-60.6 15.1zm12.9-52.7l42.8-10.7 6.8-1.7 6.6 2.2 88.4 29.5 88.4-29.5 6.6-2.2 6.8 1.7 42.8 10.7-22.3-91.4-244.6 0-22.3 91.4zM0 400l512 0 0 48-512 0 0-48z"/></svg>