<svg xmlns="http://www.w3.org/2000/svg" viewBox="0 0 448 512"><!--! Font Awesome Pro 7.0.0 by @fontawesome - https://fontawesome.com License - https://fontawesome.com/license (Commercial License) Copyright 2025 Fonticons, Inc. --><path fill="currentColor" d="M48 206l0 71.4 93.8 58.6 164.5 0 93.8-58.6 0-71.4-80 50-192 0-80-50zM0 176l0-96 128-80 192 0 128 80 0 352-128 80-192 0-128-80 0-256zm400-48l0-21.4-93.8-58.6-164.5 0-93.8 58.6 0 42.8 93.8 58.6 164.5 0 93.8-58.6 0-21.4zM48 405.4l93.8 58.6 164.5 0 93.8-58.6 0-71.4-80 50-192 0-80-50 0 71.4z"/></svg>