<svg xmlns="http://www.w3.org/2000/svg" viewBox="0 0 576 512"><!--! Font Awesome Pro 7.0.0 by @fontawesome - https://fontawesome.com License - https://fontawesome.com/license (Commercial License) Copyright 2025 Fonticons, Inc. --><path fill="currentColor" d="M49.3-16.9l-17-17-33.9 33.9 17 17 512 512 17 17 33.9-33.9-17-17-79.1-79.1 62 0 0-384-446 0-48.9-48.9zM146.2 80l350 0 0 288-62 0-288-288zM298.3 368l-218.2 0 0-218.2-48-48 0 314.2 179.7 0-8 48-75.7 0 0 48 314.2 0-48-48-21.8 0-4.4-26.2-69.8-69.8zm-37.8 48l55.3 0 8 48-71.3 0 8-48z"/></svg>