<svg xmlns="http://www.w3.org/2000/svg" viewBox="0 0 640 512"><!--! Font Awesome Pro 7.0.0 by @fontawesome - https://fontawesome.com License - https://fontawesome.com/license (Commercial License) Copyright 2025 Fonticons, Inc. --><path fill="currentColor" d="M496 80l-416 0 0 288 226.7 0c-1.7 10.4-2.7 21.1-2.7 32 0 5.4 .2 10.7 .7 16l-44.3 0-8 48 62.6 0c6.1 17.3 14.6 33.4 25.1 48l-212 0 0-48 75.7 0 8-48-179.7 0 0-384 512 0 0 182c-15.3-3.9-31.4-6-48-6l0-128zM346.8 279.1c-18.7 18.7-33 33-42.8 42.8-3.6-3.6-30.3-30.3-80-80-56.4 56.4-85.7 85.7-88 88l-33.9-33.9 17-17 88-88 17-17c3.6 3.6 30.3 30.3 80 80l78.1-78.1-46.1 0 0-48 128 0 0 82.7c-16.8 2.8-32.9 7.8-48 14.8l0-15.5-40.9 40.9c-10.4 8.4-19.9 17.9-28.3 28.3zM352 400a144 144 0 1 1 288 0 144 144 0 1 1 -288 0zm144-32a32 32 0 1 1 0 64 32 32 0 1 1 0-64zm55.1 64.5c5.6-9.5 8.9-20.6 8.9-32.5s-3.2-23-8.9-32.5l28.2-28.2-22.6-22.6-28.2 28.2c-9.5-5.6-20.6-8.9-32.5-8.9s-23 3.2-32.5 8.9l-28.2-28.2-22.6 22.6 28.2 28.2c-5.6 9.5-8.9 20.6-8.9 32.5s3.2 23 8.9 32.5l-28.2 28.2 22.6 22.6 28.2-28.2c9.5 5.6 20.6 8.9 32.5 8.9s23-3.2 32.5-8.9l28.2 28.2 22.6-22.6-28.2-28.2z"/></svg>