<svg xmlns="http://www.w3.org/2000/svg" viewBox="0 0 640 512"><!--! Font Awesome Pro 7.0.0 by @fontawesome - https://fontawesome.com License - https://fontawesome.com/license (Commercial License) Copyright 2025 Fonticons, Inc. --><path fill="currentColor" d="M240 232l160 0 0-168 128 0 0 48 80 0 0 120 32 0 0 48-32 0 0 120-80 0 0 48-128 0 0-168-160 0 0 168-128 0 0-48-80 0 0-120-32 0 0-48 32 0 0-120 80 0 0-48 128 0 0 168zM160 400l32 0 0-288-32 0 0 288zm288 0l32 0 0-288-32 0 0 288zM80 352l32 0 0-192-32 0 0 192zm448 0l32 0 0-192-32 0 0 192z"/></svg>