<svg xmlns="http://www.w3.org/2000/svg" viewBox="0 0 640 512"><!--! Font Awesome Pro 7.0.0 by @fontawesome - https://fontawesome.com License - https://fontawesome.com/license (Commercial License) Copyright 2025 Fonticons, Inc. --><path fill="currentColor" d="M64 64L32 192 138.7 192 164.3 64 64 64zM296 192l0-128-82.7 0-25.6 128 108.3 0zm48 0l25.9 0c19-17.6 37.7-31.5 52.6-40.9l19.2-12-15-75.2-82.7 0 0 128zm230.7-5c2 1.7 4 3.3 5.9 5l27.4 0-32-128-100.3 0 21.9 109.6 14.4 14.4 29.1-29.1 33.7 28.1zM88 240l-28.1 0 4.4 27.8 32 200 2 12.2 48.6 0-7.7-48 138.4 0c-3.7-15.4-5.6-31.5-5.6-48l-140.5 0-15.4-96 179.7 0c8.8-17.6 19.3-33.7 30.2-48L88 240zm360-48c-42.7 26.7-128 102.4-128 192 0 88.4 71.6 160 160 160s160-71.6 160-160c0-26.7-19.2-96-96-160l-32 32-64-64zm96 240.2c0 35.3-28.7 64-64 64s-64-28.7-64-64c0-48 64-96 64-96s64 48 64 96z"/></svg>