<svg xmlns="http://www.w3.org/2000/svg" viewBox="0 0 512 512"><!--! Font Awesome Pro 7.0.0 by @fontawesome - https://fontawesome.com License - https://fontawesome.com/license (Commercial License) Copyright 2025 Fonticons, Inc. --><path fill="currentColor" d="M437.6 154.4l-37.6 37.6 0 80 63.4 0c-8.2 107.4-97.9 192-207.4 192-114.9 0-208-93.1-208-208 0-19.5 2.7-38.4 7.7-56.3l40.3 40.3 48 0 48 48 0 64 32 32 0 48 64 0 0-32 64-64 0-80-128 0-32-32 0-32 80 0 0-32-32-32 0-16 32-32 0-31.4C343.2 54 404.4 95.3 437.6 154.4zM256 512a256 256 0 1 0 0-512 256 256 0 1 0 0 512z"/></svg>