<svg xmlns="http://www.w3.org/2000/svg" viewBox="0 0 384 512"><!--! Font Awesome Pro 7.0.0 by @fontawesome - https://fontawesome.com License - https://fontawesome.com/license (Commercial License) Copyright 2025 Fonticons, Inc. --><path fill="currentColor" d="M192 448C117.3 448 48 372.6 48 288 48 239.7 62.1 180.3 89.3 134.5 116.4 88.8 151.1 64 192 64s75.6 24.8 102.7 70.5c27.2 45.9 41.3 105.3 41.3 153.5 0 84.6-69.3 160-144 160zM0 288C0 394 86 496 192 496S384 394 384 288c0-112-64-272-192-272S0 176 0 288zm112 0c0-24.5 5-54.4 15.1-82.8 10.1-28.5 25-54.1 43.7-71.2l-21.6-23.6C125.3 132.2 108.1 163 96.9 194.5 85.7 226.1 80 259.7 80 288l0 16 32 0 0-16z"/></svg>