<svg xmlns="http://www.w3.org/2000/svg" viewBox="0 0 512 512"><!--! Font Awesome Pro 7.0.0 by @fontawesome - https://fontawesome.com License - https://fontawesome.com/license (Commercial License) Copyright 2025 Fonticons, Inc. --><path fill="currentColor" d="M64 48l0 16 160 0 0-16-80-80-80 80zM464 176l0 288-416 0 0-288 416 0zM48 128l-48 0 0 384 512 0 0-384-464 0zM368 64l80-80 0-16-160 0 0 16 80 80zM216 352l-112 0-24 80 160 0-24-80zm216 80l-24-80-112 0-24 80 160 0zM208 272a48 48 0 1 0 -96 0 48 48 0 1 0 96 0zm144 48a48 48 0 1 0 0-96 48 48 0 1 0 0 96z"/></svg>