<svg xmlns="http://www.w3.org/2000/svg" viewBox="0 0 576 512"><!--! Font Awesome Pro 7.0.0 by @fontawesome - https://fontawesome.com License - https://fontawesome.com/license (Commercial License) Copyright 2025 Fonticons, Inc. --><path fill="currentColor" d="M80 224.3l0 207.7 324 0 0 48-372 0 0-320 256-192 256 192 0 96-48 0 0-31.7-193.5 146.8-14.5 11-14.5-11-193.5-146.8zm402.8-50.2L288 28 93.2 174.1 288 321.9 482.8 174.1zM536 304l0 24 28 0 0 40-67.5 0c-6.9 0-12.5 5.6-12.5 12.5 0 6.1 4.4 11.3 10.4 12.3l41.7 7c25.3 4.2 43.9 26.1 43.9 51.8 0 26.1-19 47.7-44 51.8l0 24.7-40 0 0-24-44 0 0-40 75.5 0c6.9 0 12.5-5.6 12.5-12.5 0-6.1-4.4-11.3-10.4-12.3l-41.7-7c-25.3-4.2-43.9-26.1-43.9-51.8 0-28.8 23.2-52.2 52-52.5l0-24 40 0z"/></svg>