<svg xmlns="http://www.w3.org/2000/svg" viewBox="0 0 512 512"><!--! Font Awesome Pro 7.0.0 by @fontawesome - https://fontawesome.com License - https://fontawesome.com/license (Commercial License) Copyright 2025 Fonticons, Inc. --><path fill="currentColor" d="M152 40a56 56 0 1 1 112 0 56 56 0 1 1 -112 0zM307.9 224l204.1 0 0 160-147.9 0-138.1 110.5c-11.7 9.4-19 15.2-21.9 17.5L0 512 0 352 147.9 352 286 241.5c11.7-9.4 19-15.2 21.9-17.5zm16.8 48l-8.8 7-144.7 115.7-6.6 5.3-116.8 0 0 64 139.2 0 8.8-7 144.7-115.7 6.6-5.3 116.8 0 0-64-139.2 0zM288 128l0 40.2c-10.3 8.2-63.6 50.9-160 128l0-168.2 160 0z"/></svg>