<svg xmlns="http://www.w3.org/2000/svg" viewBox="0 0 640 512"><!--! Font Awesome Pro 7.0.0 by @fontawesome - https://fontawesome.com License - https://fontawesome.com/license (Commercial License) Copyright 2025 Fonticons, Inc. --><path fill="currentColor" d="M288 464c66.6 0 125.9-31.3 164-80l57.8 0c-44.3 76.5-127 128-221.8 128-141.4 0-256-114.6-256-256S146.6 0 288 0C389.2 0 476.7 58.7 518.3 144l-55 0C426.3 86.3 361.6 48 288 48 173.1 48 80 141.1 80 256s93.1 208 208 208zM256 352c34.3 0 64.9-15.4 85.5-39.7l36.6 31C348.8 378 305 400 256 400s-92.8-22-122.2-56.7l36.6-31C191.1 336.6 221.7 352 256 352zM168 196c-11 0-20 9-20 20l0 16-40 0 0-16c0-33.1 26.9-60 60-60l16 0c33.1 0 60 26.9 60 60l0 16-40 0 0-16c0-11-9-20-20-20l-16 0zm140 20l0 16-40 0 0-16c0-33.1 26.9-60 60-60l16 0c33.1 0 60 26.9 60 60l0 16-40 0 0-16c0-11-9-20-20-20l-16 0c-11 0-20 9-20 20zM528 64l24 0c48.6 0 88 39.4 88 88s-39.4 88-88 88l-104 0 0-48 104 0c22.1 0 40-17.9 40-40s-17.9-40-40-40l-24 0 0-48zM448 288l104 0c33.4 0 64-12 87.6-32-4 44.9-41.7 80-87.6 80l-104 0 0-48z"/></svg>