<svg xmlns="http://www.w3.org/2000/svg" viewBox="0 0 640 512"><!--! Font Awesome Pro 7.0.0 by @fontawesome - https://fontawesome.com License - https://fontawesome.com/license (Commercial License) Copyright 2025 Fonticons, Inc. --><path fill="currentColor" d="M504.1 353C512.9 367.2 525.3 379 539.8 387.2 495.1 462 413.4 512 320 512S144.9 462 100.2 387.2c14.6-8.2 26.9-20 35.8-34.3 34.9 66 104.2 111 184.1 111s149.2-45 184.1-111zm13.2-163C489.7 107.5 411.8 48 320 48S150.3 107.5 122.7 190C113.9 191.2 96.5 193.7 70.7 197.4 97.2 84.3 198.8 0 320 0S542.8 84.3 569.3 197.4c-25.8-3.7-43.1-6.2-52-7.4zM462.5 293c-10.2 69.6-70.1 123-142.5 123-72.4 0-132.3-53.4-142.5-122.9 40.5 16.2 89.5 25.8 142.4 25.8 52.9 0 102-9.5 142.6-25.8zM212 208l0 28-40 0 0-28c0-37.6 30.4-68 68-68s68 30.4 68 68l0 28-40 0 0-28c0-15.5-12.5-28-28-28s-28 12.5-28 28zm188-28c-15.5 0-28 12.5-28 28l0 28-40 0 0-28c0-37.6 30.4-68 68-68s68 30.4 68 68l0 28-40 0 0-28c0-15.5-12.5-28-28-28zM640 300.6c0 28.4-23 51.4-51.4 51.4-25.6 0-47.3-18.8-50.9-44.1l-9.7-67.9 67.9 9.7c25.3 3.6 44.1 25.3 44.1 50.9zm-640 0c0-25.6 18.8-47.3 44.1-50.9l67.9-9.7-9.7 67.9C98.7 333.2 77 352 51.4 352 23 352 0 329 0 300.6z"/></svg>