<svg xmlns="http://www.w3.org/2000/svg" viewBox="0 0 512 512"><!--! Font Awesome Pro 7.0.0 by @fontawesome - https://fontawesome.com License - https://fontawesome.com/license (Commercial License) Copyright 2025 Fonticons, Inc. --><path fill="currentColor" d="M192.3-64l-48 0 0 192 48 0 0-192zm96 65.6l0-65.6-48 0 0 152 48 0 0-38c101 14.2 178.8 101 178.8 206 0 114.9-93.1 208-208 208-23.4 0-45.8-3.9-66.8-11l0-21-48 0 0 144 48 0 0-72.8c21.3 5.7 43.7 8.8 66.8 8.8 141.4 0 256-114.6 256-256 0-131.5-99.2-239.9-226.8-254.4zM96.3 385.5C68 350 51.1 305 51.1 256S68 162 96.3 126.5l0-68.1C39.4 105.4 3.1 176.4 3.1 256S39.4 406.6 96.3 453.6l0-68.1zm74.5-57.2l-36.6 31C163.4 394 207.3 416 256.3 416s92.8-22 122.2-56.7l-36.6-31c-20.6 24.3-51.2 39.7-85.5 39.7s-64.9-15.4-85.5-39.7zM148.3 264c0-11 9-20 20-20l16 0c11 0 20 9 20 20l0 16 40 0 0-16c0-33.1-26.9-60-60-60l-16 0c-33.1 0-60 26.9-60 60l0 16 40 0 0-16zm180-20l16 0c11 0 20 9 20 20l0 16 40 0 0-16c0-33.1-26.9-60-60-60l-16 0c-33.1 0-60 26.9-60 60l0 16 40 0 0-16c0-11 9-20 20-20z"/></svg>