<svg xmlns="http://www.w3.org/2000/svg" viewBox="0 0 512 512"><!--! Font Awesome Pro 7.0.0 by @fontawesome - https://fontawesome.com License - https://fontawesome.com/license (Commercial License) Copyright 2025 Fonticons, Inc. --><path fill="currentColor" d="M48 256C48 141.1 141.1 48 256 48s208 93.1 208 208c0 50.5-18 96.9-48 132.9l0 66.9c18.2-14.6 34.4-31.6 48-50.6l0 74.7 48 0 0-224C512 114.6 397.4 0 256 0S0 114.6 0 256l0 136 48 0 0-136zM96 388.9l0 66.9c27.8 22.3 60.4 38.9 96 48.1l0-50c-37.9-12.3-71.1-35.1-96-65.1zM152 352c0-11.9 8.6-21.8 20-23.7l0 47.3c-11.4-1.9-20-11.8-20-23.7zm84 24l-24 0 0-48 24 0 0 48zm64-48l0 48-24 0 0-48 24 0zm40 .3c11.4 1.9 20 11.8 20 23.7s-8.6 21.8-20 23.7l0-47.3zM176 288c-35.3 0-64 28.7-64 64s28.7 64 64 64l64 0 0 64 48 0 0-64 32 0 0 96 48 0 0-104.6c19.1-11.1 32-31.7 32-55.4 0-35.3-28.7-64-64-64l-160 0zm0-48a32 32 0 1 0 0-64 32 32 0 1 0 0 64zm192-32a32 32 0 1 0 -64 0 32 32 0 1 0 64 0z"/></svg>