<svg xmlns="http://www.w3.org/2000/svg" viewBox="0 0 640 512"><!--! Font Awesome Pro 7.0.0 by @fontawesome - https://fontawesome.com License - https://fontawesome.com/license (Commercial License) Copyright 2025 Fonticons, Inc. --><path fill="currentColor" d="M528 256c0 114.9-93.1 208-208 208-56.8 0-108.2-22.7-145.8-59.6-3.1 17.4-10 33.3-19.9 46.8 44.7 38 102.5 60.8 165.7 60.8 141.4 0 256-114.6 256-256S461.4 0 320 0c-131 0-239.1 98.5-254.2 225.4 6.1 4.8 25.8 20.5 34.6 28l.3 .3c3.6 3.1 7.4 6.6 11.4 10.3-.1-2.7-.2-5.4-.2-8 0-114.9 93.1-208 208-208s208 93.1 208 208zM261.5 398c13.1-18.2 34.4-30 58.5-30s45.4 11.8 58.5 30c7.7 10.8 22.7 13.2 33.5 5.5s13.2-22.7 5.5-33.5c-21.7-30.2-57.3-50-97.5-50s-75.7 19.8-97.5 50c-7.7 10.8-5.3 25.8 5.5 33.5s25.8 5.3 33.5-5.5zM368 272a32 32 0 1 0 64 0 32 32 0 1 0 -64 0zM240 304a32 32 0 1 0 0-64 32 32 0 1 0 0 64zm36.3-144L248 131.7c-10.6 10.6-17.7 17.7-21.5 21.5-18.3 18.3-41.8 30.4-67.3 34.6l-2.5 .4 6.6 39.5 2.5-.4c33.7-5.6 64.8-21.6 89-45.8 3.8-3.8 11-11 21.5-21.5zm101.6 14.1l7.4 7.4c24.2 24.2 55.3 40.2 89 45.8l2.5 .4 6.6-39.5-2.5-.4c-25.5-4.2-49-16.4-67.3-34.6-3.8-3.8-11-11-21.5-21.5l-28.3 28.3 14.1 14.1zM49.7 298.4c-10.8 10.5-28.8 29.7-40 51.3-5.6 10.7-9.6 22.5-9.6 34.3 0 36.4 27.6 64 64 64s64-27.6 64-64c0-11.8-4.1-23.6-9.6-34.3-11.2-21.6-29.2-40.8-40-51.3-4.6-4.5-9.4-8.7-14.3-12.9-4.9 4.2-9.7 8.4-14.3 12.9z"/></svg>