<svg xmlns="http://www.w3.org/2000/svg" viewBox="0 0 512 512"><!--! Font Awesome Pro 7.0.0 by @fontawesome - https://fontawesome.com License - https://fontawesome.com/license (Commercial License) Copyright 2025 Fonticons, Inc. --><path fill="currentColor" d="M464 256a208 208 0 1 0 -416 0 208 208 0 1 0 416 0zM0 256a256 256 0 1 1 512 0 256 256 0 1 1 -512 0zM192.3 406.4l-42.4-22.5C170 345.9 210 320 256 320s86 25.9 106.1 63.9l-42.4 22.5C307.6 383.5 283.6 368 256 368s-51.6 15.5-63.7 38.4zm36-166.4c-10.6 10.6-17.7 17.7-21.5 21.5-24.2 24.2-55.3 40.2-89 45.8l-2.5 .4-19.7 3.3-6.6-39.5 19.7-3.3 2.5-.4c25.5-4.2 49-16.4 67.3-34.6 3.8-3.8 11-11 21.5-21.5L228.3 240zm69.6 14.1L283.7 240 312 211.7c10.6 10.6 17.7 17.7 21.5 21.5 18.3 18.3 41.8 30.4 67.3 34.6l2.5 .4 19.7 3.3-6.6 39.5-19.7-3.3-2.5-.4c-33.7-5.6-64.8-21.6-89-45.8l-7.4-7.4z"/></svg>