<svg xmlns="http://www.w3.org/2000/svg" viewBox="0 0 512 512"><!--! Font Awesome Pro 7.0.0 by @fontawesome - https://fontawesome.com License - https://fontawesome.com/license (Commercial License) Copyright 2025 Fonticons, Inc. --><path fill="currentColor" d="M48 256a208 208 0 1 1 416 0 208 208 0 1 1 -416 0zm464 0a256 256 0 1 0 -512 0 256 256 0 1 0 512 0zM256 160c34.3 0 64.9 15.4 85.5 39.7l36.6-31C348.8 134 305 112 256 112s-92.8 22-122.2 56.7l36.6 31C191.1 175.4 221.7 160 256 160zM208 304a32 32 0 1 0 -64 0 32 32 0 1 0 64 0zm128-32a32 32 0 1 0 0 64 32 32 0 1 0 0-64z"/></svg>