<svg xmlns="http://www.w3.org/2000/svg" viewBox="0 0 640 512"><!--! Font Awesome Pro 7.0.0 by @fontawesome - https://fontawesome.com License - https://fontawesome.com/license (Commercial License) Copyright 2025 Fonticons, Inc. --><path fill="currentColor" d="M38.1 73.1l18.4 66.4c29-65.4 81.6-118 147-147L137.1-25.9c-39.5 25.7-73.3 59.5-99 99zM27 33.3C47.2 6.8 70.8-16.8 97.3-37L0-64 27 33.3zM320 512c77.1 0 146.2-34.1 193.2-88l-70.5 0c-34.4 25.2-76.8 40-122.7 40-114.9 0-208-93.1-208-208S205.1 48 320 48c80.2 0 149.9 45.4 184.6 112l52.8 0C519.4 66.2 427.4 0 320 0 178.6 0 64 114.6 64 256S178.6 512 320 512zM212 216c0-11 9-20 20-20l16 0c11 0 20 9 20 20l0 16 40 0 0-16c0-33.1-26.9-60-60-60l-16 0c-33.1 0-60 26.9-60 60l0 16 40 0 0-16zm180-20l16 0c11 0 20 9 20 20l0 16 40 0 0-16c0-33.1-26.9-60-60-60l-16 0c-33.1 0-60 26.9-60 60l0 16 40 0 0-16c0-11 9-20 20-20zm-64 76l-8 0 0 32 32 0c8.8 0 16 7.2 16 16s-7.2 16-16 16l-32 0 0 32 32 0c8.8 0 16 7.2 16 16s-7.2 16-16 16l-32 0 0 32 48 0c26.5 0 48-21.5 48-48 0-2.7-.2-5.4-.7-8l224.7 0 0-168-128 0 0 80 48 0 0-32 32 0 0 72-176.7 0c.4-2.6 .7-5.3 .7-8 0-26.5-21.5-48-48-48l-40 0z"/></svg>