<svg xmlns="http://www.w3.org/2000/svg" viewBox="0 0 512 512"><!--! Font Awesome Pro 7.0.0 by @fontawesome - https://fontawesome.com License - https://fontawesome.com/license (Commercial License) Copyright 2025 Fonticons, Inc. --><path fill="currentColor" d="M464 256c0 59-24.6 112.3-64 150.1 0 .6 0 1.3 0 1.9l0 59.7C467.6 421.6 512 344 512 256 512 114.6 397.4 0 256 0S0 114.6 0 256c0 101.6 59.2 189.3 144.9 230.7-.6-4.8-.9-9.7-.9-14.7l0-16c0-8 .8-15.7 2.3-23.3-59-36.7-98.3-102.1-98.3-176.7 0-114.9 93.1-208 208-208s208 93.1 208 208zM208 160a32 32 0 1 0 -64 0 32 32 0 1 0 64 0zm128 32a32 32 0 1 0 0-64 32 32 0 1 0 0 64zM192 283.9c-11-7.7-20.6-17.3-28.2-28.4l-39.5 27.3c16.8 24.4 40.3 43.9 67.8 55.9l0-54.8zm144 46.7c20.6-11.9 38.3-28.3 51.8-47.8l-39.5-27.3c-3.7 5.3-7.8 10.3-12.2 14.8l0 60.2zM264 432l40 0 0 32 48 0 0-80-64 0 0-112-48 0 0 116.1c-28 9.9-48 36.6-48 67.9l0 16c0 39.8 32.2 72 72 72l88 0 0-48-88 0c-13.3 0-24-10.7-24-24l0-16c0-13.3 10.7-24 24-24z"/></svg>