<svg xmlns="http://www.w3.org/2000/svg" viewBox="0 0 512 512"><!--! Font Awesome Pro 7.0.0 by @fontawesome - https://fontawesome.com License - https://fontawesome.com/license (Commercial License) Copyright 2025 Fonticons, Inc. --><path fill="currentColor" d="M0 0l0 160 48 0 0-112 112 0 0-48-160 0zM352 0l0 48 112 0 0 112 48 0 0-160-160 0zM48 352l-48 0 0 160 160 0 0-48-112 0 0-112zm464 0l-48 0 0 112-112 0 0 48 160 0 0-160zM256 144a112 112 0 1 1 0 224 112 112 0 1 1 0-224zm0 272a160 160 0 1 0 0-320 160 160 0 1 0 0 320zM216 248a24 24 0 1 0 0-48 24 24 0 1 0 0 48zm104-24a24 24 0 1 0 -48 0 24 24 0 1 0 48 0zm-64 76c-16.3 0-30.5-8.8-38.1-22l-34.6 20c14.5 25.1 41.6 42 72.8 42s58.3-16.9 72.7-42l-34.6-20c-7.6 13.2-21.9 22-38.1 22z"/></svg>