<svg xmlns="http://www.w3.org/2000/svg" viewBox="0 0 512 512"><!--! Font Awesome Pro 7.0.0 by @fontawesome - https://fontawesome.com License - https://fontawesome.com/license (Commercial License) Copyright 2025 Fonticons, Inc. --><path fill="currentColor" d="M48 256C48 141.1 141.1 48 256 48s208 93.1 208 208c0 60.5-25.8 115-67.1 153 15.4 15.4 26.7 26.7 34 34 49.9-46.7 81.1-113.2 81.1-187 0-141.4-114.6-256-256-256S0 114.6 0 256c0 73.2 30.7 139.2 80 185.9l0-75C59.7 334.8 48 296.8 48 256zm208-32c-47.6 0-87.1 34.6-94.7 80l58.8 0c9.3-9.3 26.6-26.6 51.9-51.9 25.9 25.9 41.9 41.9 48 48l22.3-22.3C326.7 246 293.9 224 256 224zm-30.4-75.2l-28.8-38.4c-5.3 4-33.1 24.8-83.2 62.4l-19.2 14.4 28.8 38.4c5.3-4 33.1-24.8 83.2-62.4l19.2-14.4zm80 14.4l83.2 62.4 28.8-38.4c-5.3-4-33.1-24.8-83.2-62.4l-19.2-14.4-28.8 38.4 19.2 14.4zM128 352l0 122.2c0 56.2 45.6 101.8 101.8 101.8 27 0 52.9-10.7 72-29.8l82.2-82.2-32-32-48 48-16-16 80-80-32-32-80 80-16-16 64-64-32-32-96 96 0-64-48 0z"/></svg>