<svg xmlns="http://www.w3.org/2000/svg" viewBox="0 0 576 512"><!--! Font Awesome Pro 7.0.0 by @fontawesome - https://fontawesome.com License - https://fontawesome.com/license (Commercial License) Copyright 2025 Fonticons, Inc. --><path fill="currentColor" d="M48 464l0-317.8 67.4 0c8.5-25.5 13.8-41.5 16-48L48 98.2 48 80c0-35.3 28.7-64 64-64 30.4 0 55.9 21.2 62.4 49.6l44.2-20.1C204.1 .5 161.8-32 112-32 50.1-32 0 18.1 0 80l0 432 112 0 0-48-64 0zM361.9 42.2l-9.9-4.5-9.9 4.5-157.1 71.4-9.5 4.3-3.3 9.9-42.9 128.6-1.2 3.7 0 51.9 32 0 0 200 384 0 0-200 32 0 0-51.9-1.2-3.7-42.9-128.6-3.3-9.9-9.5-4.3-157.1-71.4zM384 384l0 80-64 0 0-80 64 0zm112 80l-64 0 0-128-160 0 0 128-64 0 0-200-30.7 0 37-111.1 137.7-62.6 137.7 62.6 37 111.1-30.7 0 0 200zM400 272l0-96-96 0 0 96 96 0z"/></svg>