<svg xmlns="http://www.w3.org/2000/svg" viewBox="0 0 512 512"><!--! Font Awesome Pro 7.0.0 by @fontawesome - https://fontawesome.com License - https://fontawesome.com/license (Commercial License) Copyright 2025 Fonticons, Inc. --><path fill="currentColor" d="M311.9 166.1L112 366.1 112 243.9 276.7 79.2c20-20 47.1-31.2 75.3-31.2s55.3 11.2 75.3 31.2l5.5 5.5c20 20 31.2 47.1 31.2 75.3 0 16.8-4 33.3-11.4 48l-114.6 0c3.8-3.8 12.1-12.1 24.9-24.9l-33.9-33.9-17 17zm-22 89.9l122.2 0-48 48-122.2 0 48-48zm26.2 96l-48 48-122.2 0 48-48 122.2 0zM64 224l0 190.1C28.7 449.4 7.8 470.3 1.3 476.8l33.9 33.9c6.5-6.5 27.4-27.4 62.7-62.7L288 448 466.7 269.3c29-29 45.3-68.3 45.3-109.3S495.7 79.7 466.7 50.7l-5.5-5.5C432.3 16.3 393 0 352 0S271.7 16.3 242.7 45.3L64 224z"/></svg>