<svg xmlns="http://www.w3.org/2000/svg" viewBox="0 0 576 512"><!--! Font Awesome Pro 7.0.0 by @fontawesome - https://fontawesome.com License - https://fontawesome.com/license (Commercial License) Copyright 2025 Fonticons, Inc. --><path fill="currentColor" d="M208 48l-128 0 0 416 64 0 0 48-112 0 0-512 224 0 160 160 0 176-48 0 0-128-160 0 0-160zM348.1 160l-92.1-92.1 0 92.1 92.1 0zM324 400l0 148-40 0 0-78.1c-5.7 10.8-14.9 28.2-27.7 52.2-13.1-23.9-22.6-41-28.3-51.5l0 77.4-40 0 0-168 20 0c1.4 0 6.6 0 15.8 0 .4 .7 11 20 31.8 57.9 19.9-37.6 30.2-56.9 30.7-57.9 17.8 0 20.7 0 37.6 0l0 20zm44-20l32 0c33.1 0 60 26.9 60 60s-26.9 60-60 60l-12 0 0 48-40 0 0-168 20 0zm32 80c11 0 20-9 20-20s-9-20-20-20l-12 0 0 40 12 0zm128 88l-48 0 0-40 48 0c6.6 0 12-5.4 12-12s-5.4-12-12-12l-32 0 0-40 32 0c6.6 0 12-5.4 12-12s-5.4-12-12-12l-48 0 0-40 48 0c28.7 0 52 23.3 52 52 0 12.1-4.1 23.2-11 32 6.9 8.8 11 19.9 11 32 0 28.7-23.3 52-52 52z"/></svg>