<svg xmlns="http://www.w3.org/2000/svg" viewBox="0 0 576 512"><!--! Font Awesome Pro 7.0.0 by @fontawesome - https://fontawesome.com License - https://fontawesome.com/license (Commercial License) Copyright 2025 Fonticons, Inc. --><path fill="currentColor" d="M208 48l-128 0 0 416 170.9 0c6.1 17.3 14.6 33.4 25.1 48l-244 0 0-512 224 0 160 160 0 48.7c-16.7 1.4-32.8 4.9-48 10.3l0-10.9-160 0 0-160zM348.1 160l-92.1-92.1 0 92.1 92.1 0zM288 400a144 144 0 1 1 288 0 144 144 0 1 1 -288 0zm144-56c13.3 0 24 10.7 24 24 0 7.2-4.2 13.7-10.8 16.6-14.8 6.6-24.6 10.9-29.2 13l0 26.4 32 0 0-5.6 10.2-4.5c18.1-8.1 29.8-26 29.8-45.9 0-30.9-25.1-56-56-56s-56 25.1-56 56l32 0c0-13.3 10.7-24 24-24zM416 448l0 32 32 0 0-32-32 0z"/></svg>