<svg xmlns="http://www.w3.org/2000/svg" viewBox="0 0 384 512"><!--! Font Awesome Pro 7.0.0 by @fontawesome - https://fontawesome.com License - https://fontawesome.com/license (Commercial License) Copyright 2025 Fonticons, Inc. --><path fill="currentColor" d="M48 48l128 0 0 160 160 0 0 256-288 0 0-416zM224 67.9l92.1 92.1-92.1 0 0-92.1zM224 0L0 0 0 512 384 512 384 160 224 0zm8 256l-80 0 0-24-64 0 0 64 24 0 0 80-24 0 0 64 64 0 0-24 80 0 0 24 64 0 0-64-24 0 0-80 24 0 0-64-64 0 0 24zm0 120l-80 0 0-80 80 0 0 80z"/></svg>