<svg xmlns="http://www.w3.org/2000/svg" viewBox="0 0 576 512"><!--! Font Awesome Pro 7.0.0 by @fontawesome - https://fontawesome.com License - https://fontawesome.com/license (Commercial License) Copyright 2025 Fonticons, Inc. --><path fill="currentColor" d="M49.3-16.9l-17-17-33.9 33.9 17 17 512 512 17 17 33.9-33.9c-.6-.6-33.3-33.3-98.1-98.1l0-254-160-160-224 0 0 30-46.8-46.8zM144.1 78l0-30 128 0 0 158-128-128zm130 130l158 0 0 158-158-158zM394.3 464l-250.2 0 0-250.2-48-48 0 346.2 346.2 0-48-48zm17.9-304l-92.1 0 0-92.1 92.1 92.1z"/></svg>