<svg xmlns="http://www.w3.org/2000/svg" viewBox="0 0 640 512"><!--! Font Awesome Pro 7.0.0 by @fontawesome - https://fontawesome.com License - https://fontawesome.com/license (Commercial License) Copyright 2025 Fonticons, Inc. --><path fill="currentColor" d="M592 144.2c-11.2 .2-21.9 .5-32 1l0 221.6c10.1 .5 20.8 .8 32 1l0-223.7zM399.9 201.9l-6.8 6.1-345.1 0 0 96 345.1 0 6.8 6.1c33.8 30.1 67.9 44.9 112.1 52l0-212.1c-44.2 7.1-78.2 21.9-112.1 52zM375.1 160C443.3 103 514.6 96 616 96l24 0 0 320-24 0c-101.4 0-172.7-7-240.9-64L0 352 0 160 375.1 160zM248 232l72 0 0 48-96 0 0-48 24 0z"/></svg>