<svg xmlns="http://www.w3.org/2000/svg" viewBox="0 0 448 512"><!--! Font Awesome Pro 7.0.0 by @fontawesome - https://fontawesome.com License - https://fontawesome.com/license (Commercial License) Copyright 2025 Fonticons, Inc. --><path fill="currentColor" d="M192.9 100.9c-15.4-13.1-35.2-20.9-56.9-20.9-48.6 0-88 39.4-88 88 0 21.8 7.8 41.6 20.9 56.9L95.3 256 68.9 287.1c-13.1 15.4-20.9 35.2-20.9 56.9 0 48.6 39.4 88 88 88 21.8 0 41.6-7.8 56.9-20.9l31.1-26.4 31.1 26.4c15.4 13.1 35.2 20.9 56.9 20.9 48.6 0 88-39.4 88-88 0-21.8-7.8-41.6-20.9-56.9l-26.4-31.1 26.4-31.1c13.1-15.4 20.9-35.2 20.9-56.9 0-48.6-39.4-88-88-88-21.8 0-41.6 7.8-56.9 20.9l-31.1 26.4-31.1-26.4zM448 168c0 33.6-12.2 64.3-32.3 88 20.1 23.7 32.3 54.4 32.3 88 0 75.1-60.9 136-136 136-33.6 0-64.3-12.2-88-32.3-23.7 20.1-54.4 32.3-88 32.3-75.1 0-136-60.9-136-136 0-33.6 12.2-64.3 32.3-88-20.1-23.7-32.3-54.4-32.3-88 0-75.1 60.9-136 136-136 33.6 0 64.3 12.2 88 32.3 23.7-20.1 54.4-32.3 88-32.3 75.1 0 136 60.9 136 136zM224 352c-51.9-51.9-75.1-75.1-96-96l96-96c51.9 51.9 75.1 75.1 96 96l-96 96zm0-67.9L252.1 256 224 227.9 195.9 256 224 284.1z"/></svg>