<svg xmlns="http://www.w3.org/2000/svg" viewBox="0 0 576 512"><!--! Font Awesome Pro 7.0.0 by @fontawesome - https://fontawesome.com License - https://fontawesome.com/license (Commercial License) Copyright 2025 Fonticons, Inc. --><path fill="currentColor" d="M464.4-27.9L430.4 6.1 38.4 398.1 4.5 432c49.9 49.9 95 95 107.9 107.9l33.9-33.9 392-392 33.9-33.9c-49.9-49.9-95-95-107.9-107.9zM197.4 307l62.5-62.5c4.2 6.9 11.8 11.5 20.5 11.5 13.3 0 24-10.7 24-24 0-8.7-4.6-16.3-11.5-20.5l31-31c4.2 6.9 11.8 11.5 20.5 11.5 13.3 0 24-10.7 24-24 0-8.7-4.6-16.3-11.5-20.5l31-31c4.2 6.9 11.8 11.5 20.5 11.5 13.3 0 24-10.7 24-24 0-8.7-4.6-16.3-11.5-20.5l43.5-43.5 40 40-267 267-40-40zM99.9 404.5c4.2 6.9 11.8 11.5 20.5 11.5 13.3 0 24-10.7 24-24 0-8.7-4.6-16.3-11.5-20.5l30.5-30.5 40 40-91 91-40-40 27.5-27.5z"/></svg>