<svg xmlns="http://www.w3.org/2000/svg" viewBox="0 0 448 512"><!--! Font Awesome Pro 7.0.0 by @fontawesome - https://fontawesome.com License - https://fontawesome.com/license (Commercial License) Copyright 2025 Fonticons, Inc. --><path fill="currentColor" d="M400 80l0 352-352 0 0-352 352 0zM48 32l-48 0 0 448 448 0 0-448-400 0zM154.8 220.8l45.2 45.2 0 27.4c-18.9 9-32 28.3-32 50.6 0 30.9 25.1 56 56 56s56-25.1 56-56c0-22.3-13.1-41.6-32-50.6l0-27.4 45.2-45.2c5.9 2.1 12.2 3.2 18.8 3.2 30.9 0 56-25.1 56-56s-25.1-56-56-56-56 25.1-56 56c0 6.6 1.1 12.9 3.2 18.8l-35.2 35.2-35.2-35.2c2.1-5.9 3.2-12.2 3.2-18.8 0-30.9-25.1-56-56-56s-56 25.1-56 56 25.1 56 56 56c6.6 0 12.9-1.1 18.8-3.2z"/></svg>