<svg xmlns="http://www.w3.org/2000/svg" viewBox="0 0 512 512"><!--! Font Awesome Pro 7.0.0 by @fontawesome - https://fontawesome.com License - https://fontawesome.com/license (Commercial License) Copyright 2025 Fonticons, Inc. --><path fill="currentColor" d="M224 32l64 48 224 0 0 368-512 0 0-416 224 0zm64 96l-16 0c-2.1-1.6-23.5-17.6-64-48l-160 0 0 320 416 0 0-272-176 0zm-4 24l0 29.1c11.1 3.7 21.2 9.7 29.8 17.2l25.2-14.6 28 48.5-25.2 14.5c1.1 5.6 1.7 11.3 1.7 17.2s-.6 11.6-1.7 17.2l25.2 14.5-28 48.5-25.2-14.6c-8.6 7.6-18.7 13.5-29.8 17.2l0 29.1-56 0 0-29.1c-11.1-3.7-21.2-9.7-29.8-17.2l-25.2 14.5-28-48.5 25.2-14.5c-1.1-5.6-1.7-11.3-1.7-17.2s.6-11.6 1.7-17.2l-25.2-14.5 28-48.5 25.2 14.5c8.6-7.6 18.7-13.5 29.8-17.2l0-29.1 56 0zm4 112a32 32 0 1 0 -64 0 32 32 0 1 0 64 0z"/></svg>