<svg xmlns="http://www.w3.org/2000/svg" viewBox="0 0 640 512"><!--! Font Awesome Pro 7.0.0 by @fontawesome - https://fontawesome.com License - https://fontawesome.com/license (Commercial License) Copyright 2025 Fonticons, Inc. --><path fill="currentColor" d="M72 0l152 0 0 48-104 0 0 144 72 0 0 48-72 0 0 240-120 0 0-48 72 0 0-192-72 0 0-48 72 0 0-192zM272 320c0 57.5 16.4 110.9 44.3 155.2l-40.6 25.6C243 448.9 224 386.7 224 320s19-128.9 51.7-180.8l40.6 25.6C288.4 209.1 272 262.5 272 320zm320 0c0-57.5-16.4-110.9-44.3-155.2l40.6-25.6C621 191.1 640 253.3 640 320s-19 128.9-51.7 180.8l-40.6-25.6C575.6 430.9 592 377.5 592 320zM393 247l39 39c29.7-29.7 48.4-48.4 56-56L521.9 264c-7.6 7.6-26.3 26.3-56 56 29.7 29.7 48.4 48.4 56 56L488 409.9c-7.6-7.6-26.3-26.3-56-56-29.7 29.7-48.4 48.4-56 56L342.1 376c7.6-7.6 26.3-26.3 56-56-29.7-29.7-48.4-48.4-56-56l33.9-33.9 17 17z"/></svg>