<svg xmlns="http://www.w3.org/2000/svg" viewBox="0 0 512 512"><!--! Font Awesome Pro 7.0.0 by @fontawesome - https://fontawesome.com License - https://fontawesome.com/license (Commercial License) Copyright 2025 Fonticons, Inc. --><path fill="currentColor" d="M412.4 118.9l-34.7 97.6 85.4 58.5c-2.9 31.7-12.9 61.4-28.4 87.4l-103.5-2.8-29.3 99.4c-14.8 3.3-30.2 5.1-45.9 5.1s-31.2-1.8-45.9-5.1l-29.3-99.4-103.5 2.8c-15.5-26-25.5-55.7-28.4-87.4l85.4-58.5-34.7-97.6c20.3-23.1 45.6-41.7 74.3-54.1L256 128 338.1 64.8c28.7 12.3 54 30.9 74.3 54.1zM256 512a256 256 0 1 0 0-512 256 256 0 1 0 0 512zm0-336l-76.1 55.3 29.1 89.4 94 0 29.1-89.4-76.1-55.3z"/></svg>