<svg xmlns="http://www.w3.org/2000/svg" viewBox="0 0 448 512"><!--! Font Awesome Pro 7.0.0 by @fontawesome - https://fontawesome.com License - https://fontawesome.com/license (Commercial License) Copyright 2025 Fonticons, Inc. --><path fill="currentColor" d="M224 16c-48.6 0-88 39.4-88 88 0 18.7 5.8 36 15.8 50.3l26.3 37.7-122.1 0 0 80 117.5 0-15.7 34.1-80.3 173.9 83.7 0c30.9-61.8 51.8-103.7 62.8-125.7 11 22 31.9 63.9 62.8 125.7l83.7 0-80.3-173.9-15.7-34.1 117.5 0 0-80-122.1 0 26.3-37.7c9.9-14.2 15.8-31.5 15.8-50.3 0-48.6-39.4-88-88-88zM88 104C88 28.9 148.9-32 224-32S360 28.9 360 104c0 13.9-2.1 27.3-6 40l86 0 0 176-90.5 0 80.3 173.9 15.7 34.1-188.3 0c-1.1-2.2-12.2-24.3-33.2-66.3-21 42-32.1 64.1-33.2 66.3L2.5 528 18.2 493.9 98.5 320 8 320 8 144 94 144c-3.9-12.7-6-26.1-6-40zm84-8a20 20 0 1 1 40 0 20 20 0 1 1 -40 0zm84-20a20 20 0 1 1 0 40 20 20 0 1 1 0-40zM204 224a20 20 0 1 1 40 0 20 20 0 1 1 -40 0zm20 76a20 20 0 1 1 0 40 20 20 0 1 1 0-40z"/></svg>