<svg xmlns="http://www.w3.org/2000/svg" viewBox="0 0 576 512"><!--! Font Awesome Pro 7.0.0 by @fontawesome - https://fontawesome.com License - https://fontawesome.com/license (Commercial License) Copyright 2025 Fonticons, Inc. --><path fill="currentColor" d="M70.3 32l121.7 0 0 48-86.3 0-54.2 176 204.4 0 0 32 64 0 0-32 204.4 0-54.2-176-86.3 0 0-48 121.7 0 5.2 16.9 64 208 1.1 3.4 0 219.6-256 0 0-144-64 0 0 144-256 0 0-219.6 1.1-3.4 64-208 5.2-16.9zM528 304l-160 0 0 128 160 0 0-128zM48 304l0 128 160 0 0-128-160 0z"/></svg>