<svg xmlns="http://www.w3.org/2000/svg" viewBox="0 0 448 512"><!--! Font Awesome Pro 7.0.0 by @fontawesome - https://fontawesome.com License - https://fontawesome.com/license (Commercial License) Copyright 2025 Fonticons, Inc. --><path fill="currentColor" d="M297.4 384C358 356.2 400 295 400 224 400 126.8 321.2 48 224 48S48 126.8 48 224c0 71 42 132.2 102.6 160l146.8 0zM448 224c0 72.1-34 136.2-86.9 177.2l70.9 78.8 0 32-416 0 0-32 70.9-78.8C34 360.2 0 296.1 0 224 0 100.3 100.3 0 224 0S448 100.3 448 224zM216 112a24 24 0 1 1 48 0 24 24 0 1 1 -48 0zm120 40a24 24 0 1 1 0 48 24 24 0 1 1 0-48zM88 208a24 24 0 1 1 48 0 24 24 0 1 1 -48 0zm56 64l80-96 80 96-36.1 0 53.3 64-194.6 0 53.3-64-36.1 0z"/></svg>