<svg xmlns="http://www.w3.org/2000/svg" viewBox="0 0 512 512"><!--! Font Awesome Pro 7.0.0 by @fontawesome - https://fontawesome.com License - https://fontawesome.com/license (Commercial License) Copyright 2025 Fonticons, Inc. --><path fill="currentColor" d="M48 64a16 16 0 1 0 32 0 16 16 0 1 0 -32 0zm-2.7 61.2C19.1 117.2 0 92.8 0 64 0 28.7 28.7 0 64 0 92.8 0 117.2 19.1 125.2 45.3 143.7 33.8 163.8 24.6 185.2 18.3l13.7 46C134.4 83.5 83.5 134.4 64.3 198.8l-46-13.7c6.3-21.3 15.5-41.4 27-59.9zM464 64a16 16 0 1 0 -32 0 16 16 0 1 0 32 0zm2.7 61.2c11.5 18.5 20.6 38.6 27 59.9l-46 13.7C428.5 134.4 377.6 83.5 313.2 64.3l13.7-46c21.3 6.3 41.4 15.5 59.9 27 8-26.2 32.4-45.3 61.2-45.3 35.3 0 64 28.7 64 64 0 28.8-19.1 53.2-45.3 61.2zM448 432a16 16 0 1 0 0 32 16 16 0 1 0 0-32zm45.7-105.2c-6.3 21.3-15.5 41.4-27 59.9 26.2 8 45.3 32.4 45.3 61.2 0 35.3-28.7 64-64 64-28.8 0-53.2-19.1-61.2-45.3-18.5 11.5-38.6 20.6-59.9 27l-13.7-46c64.5-19.2 115.4-70.1 134.6-134.6l46 13.7zM48 448a16 16 0 1 0 32 0 16 16 0 1 0 -32 0zm-2.7-61.2c-11.5-18.5-20.6-38.6-27-59.9l46-13.7c19.2 64.5 70.1 115.4 134.6 134.6l-13.7 46c-21.3-6.3-41.4-15.5-59.9-27-8 26.2-32.4 45.3-61.2 45.3-35.3 0-64-28.7-64-64 0-28.8 19.1-53.2 45.3-61.2zM360 144l0 96-96 0 33.1-33.1c-11.1-9.3-25.4-14.9-41.1-14.9-24.8 0-46.4 14.1-57 34.9l-42.7-21.8c18.5-36.2 56.2-61.1 99.8-61.1 28.9 0 55.2 11 75.1 28.9L360 144zM314.6 285.1l42.7 21.8c-18.5 36.2-56.2 61.1-99.8 61.1-28.9 0-55.2-11-75.1-28.9l-28.9 28.9 0-96 96 0-33.1 33.1c11.1 9.3 25.4 14.9 41.1 14.9 24.8 0 46.4-14.1 57-34.9z"/></svg>