<svg xmlns="http://www.w3.org/2000/svg" viewBox="0 0 576 512"><!--! Font Awesome Pro 7.0.0 by @fontawesome - https://fontawesome.com License - https://fontawesome.com/license (Commercial License) Copyright 2025 Fonticons, Inc. --><path fill="currentColor" d="M432.4 104c0 35.5-18.5 67.5-48 89.4l0 46.6-192 0 0-46.6c-29.5-22-48-53.9-48-89.4 0-66.3 64.5-120 144-120s144 53.7 144 120zm-192 40a32 32 0 1 0 0-64 32 32 0 1 0 0 64zm128-32a32 32 0 1 0 -64 0 32 32 0 1 0 64 0zM161.1 288l223.3 0 0 80 9 0c75.6-48 114.2-72.5 115.7-73.5 2.6 4.3 22.8 38 60.7 101.1l12 20-19.6 12.6-124.8 80-5.9 3.8-431 0 0-48 417 0 99.3-63.6-23.4-38.9-80 50.8-5.9 3.7-175 0 0-48 104 0 0-32-160.7 0-90 60-6 4-79.3 0 0-48 64.7 0 90-60 6-4z"/></svg>