<svg xmlns="http://www.w3.org/2000/svg" viewBox="0 0 448 512"><!--! Font Awesome Pro 7.0.0 by @fontawesome - https://fontawesome.com License - https://fontawesome.com/license (Commercial License) Copyright 2025 Fonticons, Inc. --><path fill="currentColor" d="M80 0l128 0 0 160 72 0 0 32 72 0 0 32 64 0 0 168c0 66.3-53.7 120-120 120l-125.4 0c-26.9 0-53.3-7.1-76.6-20.7l-2.6-1.5C44.7 462.5 16 412.5 16 358.5l0-49.1 7.9-7.1 56.1-51 0-75.2-48 0 43.6-48-43.6-48 48 0 0-80zm48 176l0 184-32 0 0-58.5-32 29.1 0 27.9c0 37 19.6 71.2 51.6 89.8l2.6 1.5c-11.7 20.1-11.7 20 0 0 15.9 9.3 34 14.2 52.4 14.2L296 464c39.8 0 72-32.2 72-72l0-120-64 0 0-32-72 0 0-32-72 0 0-32-32 0zm32-96l0-32-32 0 0 32 32 0z"/></svg>