<svg xmlns="http://www.w3.org/2000/svg" viewBox="0 0 384 512"><!--! Font Awesome Pro 7.0.0 by @fontawesome - https://fontawesome.com License - https://fontawesome.com/license (Commercial License) Copyright 2025 Fonticons, Inc. --><path fill="currentColor" d="M40 512l-24 0 0-240-16 0 0-104C0 75.2 75.2 0 168 0l48 0c92.7 0 167.9 75.1 168 167.9l0 152.1-80 0 0 16-80 0 0 32-80 0 0 144-104 0zM336 256l0-80-32 0 0 96 32 0 0-16zm-6.8-128C312.7 81.4 268.2 48 216 48l-48 0C101.7 48 48 101.7 48 168l0 56 128 0 0-32-80 0 0-48 160 0 0-16 73.2 0zM96 272l-32 0 0 192 32 0 0-192zm80 0l-32 0 0 48 32 0 0-48zm48 16l32 0 0-96-32 0 0 96z"/></svg>