<svg xmlns="http://www.w3.org/2000/svg" viewBox="0 0 512 512"><!--! Font Awesome Pro 7.0.0 by @fontawesome - https://fontawesome.com License - https://fontawesome.com/license (Commercial License) Copyright 2025 Fonticons, Inc. --><path fill="currentColor" d="M417 60.1l-33 131.9 90.7 272 37.3 0 0 48-512 0 0-48 37.8 0 122.2-336C330.6 47.7 421.3 5.1 432 0L417 60.1zM338.5 207.2l-4.4-13.3 3.4-13.6 23.5-93.8-162.5 76.5-109.5 301 335.2 0-85.6-256.8zM160 368l56-24 24-56 24 56 56 24-56 24-24 56-24-56-56-24zM272 256l-16-32-32-16 32-16 16-32 16 32 32 16-32 16-16 32z"/></svg>