<svg xmlns="http://www.w3.org/2000/svg" viewBox="0 0 640 512"><!--! Font Awesome Pro 7.0.0 by @fontawesome - https://fontawesome.com License - https://fontawesome.com/license (Commercial License) Copyright 2025 Fonticons, Inc. --><path fill="currentColor" d="M272 32l48 32 48-32 80 0 35.8 161.1C571.7 202.9 640 277.5 640 368l0 80-640 0 0-96.3C0 264.6 69.7 193.8 156.4 192L192 32 272 32zM204.5 196.9c23.1 5.2 45.2 14.3 65.2 27.1l171.8 0-32-144-27 0C357 97 336.2 110.9 320 121.7 303.8 110.9 282.9 97 257.5 80l-27 0-26 116.9zM331 272L478.9 392.2 452.2 272 331 272zM529.8 400l62.2 0 0-32c0-60-41.3-110.3-96.9-124.2L529.8 400zm-370-160C98 240 48 290 48 351.7l0 48.3 364.4 0-153.7-124.9c-28-22.7-62.9-35.1-99-35.1z"/></svg>