<svg xmlns="http://www.w3.org/2000/svg" viewBox="0 0 640 512"><!--! Font Awesome Pro 7.0.0 by @fontawesome - https://fontawesome.com License - https://fontawesome.com/license (Commercial License) Copyright 2025 Fonticons, Inc. --><path fill="currentColor" d="M196.8 288l-6.9 5.5-133.1 106.5 526.3 0-25.1-20.1c17.1-4.8 32.6-13.5 45.4-25.2l36.5 29.2 0 64-640 0 0-64 160-128 0-64c0-88.4 71.6-160 160-160 36.6 0 70.3 12.3 97.3 33-20.6 2.7-39.4 11-54.9 23.3-13.1-5.3-27.4-8.3-42.4-8.3-44.7 0-83.2 26.2-101.2 64l105.9 0c-3 10.1-4.6 20.9-4.6 32 0 5.4 .4 10.8 1.1 16l-113.1 0 0 48 116.6 0c-3 10.1-4.6 20.9-4.6 32 0 5.4 .4 10.8 1.1 16l-124.3 0zM480 314.3c-11.7 13.3-28.9 21.7-48 21.7-35.3 0-64-28.7-64-64 0-19.1 8.4-36.3 21.7-48-13.3-11.7-21.7-28.9-21.7-48 0-35.3 28.7-64 64-64 19.1 0 36.3 8.4 48 21.7 11.7-13.3 28.9-21.7 48-21.7 35.3 0 64 28.7 64 64 0 19.1-8.4 36.3-21.7 48 13.3 11.7 21.7 28.9 21.7 48 0 35.3-28.7 64-64 64-19.1 0-36.3-8.4-48-21.7zM440 224l40 40 40-40-40-40-40 40z"/></svg>