<svg xmlns="http://www.w3.org/2000/svg" viewBox="0 0 512 512"><!--! Font Awesome Pro 7.0.0 by @fontawesome - https://fontawesome.com License - https://fontawesome.com/license (Commercial License) Copyright 2025 Fonticons, Inc. --><path fill="currentColor" d="M0 167.7C0 319.4 256 496 256 496S512 319.4 512 167.7c0-73.5-58.5-135.7-133.1-135.7-34.5 0-67.3 13.4-91.9 36.8-10 9.5-18 20.8-25.9 32-1.7 2.4-3.4 4.7-5.1 7.1-1.7-2.4-3.4-4.7-5.1-7.1-8-11.2-15.9-22.4-25.9-32-24.5-23.4-57.4-36.8-91.9-36.8-74.6 0-133.1 62.2-133.1 135.7zm280-11.1l29.9-41.3c16-22.1 41.7-35.2 69-35.2 47 0 85.1 38.1 85.1 85.1 0 33.4-15 64.6-32.6 92.2-21.3 33.7-50.6 67.1-81.2 97.3-24.7 24.3-49.5 45.8-70.3 62.8l0-260.8zM232 417.3c-20.8-17-45.6-38.4-70.3-62.8-30.6-30.1-59.8-63.6-81.2-97.2-17.5-27.6-32.5-58.8-32.5-92.2 0-47 38.1-85.1 85.1-85.1 27.3 0 53 13.1 69 35.2l29.9 41.3 0 260.8z"/></svg>