<svg xmlns="http://www.w3.org/2000/svg" viewBox="0 0 576 512"><!--! Font Awesome Pro 7.0.0 by @fontawesome - https://fontawesome.com License - https://fontawesome.com/license (Commercial License) Copyright 2025 Fonticons, Inc. --><path fill="currentColor" d="M195.2 170.9l43.9-73.4c8.5-14.3 23.4-23.6 40-25 28.5-2.5 53.7 18.6 56.2 47.1 .2 2.3 .3 4.6 .3 7 16.8 5.1 32.4 13 46.3 23.5 1.7-11.5 2.2-23.1 1.2-34.7-4.8-54.9-53.2-95.6-108.2-90.8-21.7 1.9-41.9 10.8-57.8 25-7.5 6.7-14 14.5-19.2 23.3l-9.8 16.5-12.6-14.5c-6.7-7.7-14.5-14.3-23-19.6-18.1-11.2-39.5-16.4-61.2-14.5-54.9 4.8-95.6 53.2-90.8 108.2 7.1 80.9 85.5 149.2 158.1 197.1-7.9-21.8-13-44.8-13.7-68.6-11.2-8.7-22.1-17.8-32.3-27.3-38.8-36.1-61.3-71.9-64.2-105.3-2.5-28.5 18.6-53.7 47.1-56.2 16.6-1.4 32.8 5.1 43.7 17.7l56 64.7zm152 87l34.1 57c34.1-39.4 52.8-61 56-64.7 10.9-12.6 27.1-19.2 43.7-17.7 28.5 2.5 49.6 27.6 47.1 56.2-2.9 33.5-25.5 69.2-64.2 105.3-29 27-63.4 50.8-95.7 70.6-28.3-25.1-58.1-54.5-82-86.1-31.9-42.3-47.9-81.4-45-114.9 2.5-28.5 27.6-49.6 56.2-47.1 16.6 1.4 31.4 10.8 40 25l9.8 16.5zm-153.8 1.4c-8.9 102.2 97.7 204.4 169.6 263.9 81.2-46.1 204-128.3 212.9-230.5 4.8-54.9-35.8-103.4-90.8-108.2-21.7-1.9-43.1 3.4-61.2 14.5-8.5 5.3-16.3 11.8-23 19.6l-12.6 14.5-9.9-16.5c-5.3-8.8-11.8-16.6-19.2-23.3-15.9-14.2-36.1-23.1-57.8-25-54.9-4.8-103.4 35.8-108.2 90.8z"/></svg>