<svg xmlns="http://www.w3.org/2000/svg" viewBox="0 0 640 512"><!--! Font Awesome Pro 7.0.0 by @fontawesome - https://fontawesome.com License - https://fontawesome.com/license (Commercial License) Copyright 2025 Fonticons, Inc. --><path fill="currentColor" d="M487.9-19.6l-10.2 21.7-232 496-6.5 13.8-239.3 0 0-192 276.1 0 158.2-338.2 10.2-21.7 43.5 20.3zM640 512l-239.3 0-6.5-13.8-47.8-102.1 35.6-76 257.9 0 0 192zM48 464l48 0 0-96-48 0 0 96zm96 0l64.7 0 44.9-96-109.6 0 0 96zm287.3 0l64.7 0 0-96-109.6 0 44.9 96zM544 464l48 0 0-96-48 0 0 96zM205.8-18.2l87.8 187.6-26.5 56.6-104.8-223.9-10.2-21.7 43.5-20.3 10.2 21.7z"/></svg>