<svg xmlns="http://www.w3.org/2000/svg" viewBox="0 0 576 512"><!--! Font Awesome Pro 7.0.0 by @fontawesome - https://fontawesome.com License - https://fontawesome.com/license (Commercial License) Copyright 2025 Fonticons, Inc. --><path fill="currentColor" d="M224 0l352 0 0 512-576 0 0-416 224 0 0-96zM352 464l0-112 96 0 0 112 80 0 0-416-256 0 0 416 80 0zM224 144l-176 0 0 320 176 0 0-320zm152-40l48 0 0 48 48 0 0 48-48 0 0 48-48 0 0-48-48 0 0-48 48 0 0-48zM168 200l0 40 40 0 0 48-40 0 0 40-48 0 0-40-40 0 0-48 40 0 0-40 48 0z"/></svg>