<svg xmlns="http://www.w3.org/2000/svg" viewBox="0 0 640 512"><!--! Font Awesome Pro 7.0.0 by @fontawesome - https://fontawesome.com License - https://fontawesome.com/license (Commercial License) Copyright 2025 Fonticons, Inc. --><path fill="currentColor" d="M0 256C0 96.9 128.9-32 288-32l0 48C155.5 16 48 123.5 48 256S155.5 496 288 496l4.7 0 140.8-39.1 7.8-2.2 7.5 3 111.8 44.7c29.3-9.8 50.1-16.7 62.4-20.8l15.2 45.5c-11 3.7-34.6 11.5-70.8 23.6l-8.3 2.8-8.2-3.3-112.5-45-136.2 37.8-3.2 .9-11.3 0C128.9 544 0 415.1 0 256zM288 64l0 48c-79.5 0-144 64.5-144 144s64.5 144 144 144l4.7 0 140.8-39.1 7.8-2.2 7.5 3 111.8 44.7c29.2-9.7 50.1-16.7 62.4-20.8l15.2 45.5c-11 3.7-34.6 11.5-70.8 23.6l-8.3 2.8-8.2-3.3-112.5-45-136.2 37.8-3.2 .9-11.3 0C182 448 96 362 96 256S182 64 288 64zm80 258.7l-48 18.3 0-149 128-96 127.4 96 .4 144 0 6.3-17.6 5.6-31.3-11.9 .9 0-.3-120-79.5-59.9-79.9 60 0 106.7z"/></svg>