<svg xmlns="http://www.w3.org/2000/svg" viewBox="0 0 640 512"><!--! Font Awesome Pro 7.0.0 by @fontawesome - https://fontawesome.com License - https://fontawesome.com/license (Commercial License) Copyright 2025 Fonticons, Inc. --><path fill="currentColor" d="M304 5.6l-16-14.4-16 14.4-232 208-17.9 16 32 35.7c13.6-12.2 22.2-19.9 25.8-23.2l0 269.3 259.7 0c-10.4-14.6-18.9-30.7-24.9-48l-186.7 0 0-264.3 160-143.5 173.3 155.4c11.2-2 22.8-3.1 34.7-3.1 13 0 25.7 1.3 38 3.8L304 5.6zM305.5 376c5.9-47.6 29.3-89.8 63.5-120l-49 0 0-56-64 0 0 56-56 0 0 64 56 0 0 56 49.5 0zM496 544a144 144 0 1 0 0-288 144 144 0 1 0 0 288zm16-64l-32 0 0-32 32 0 0 32zm0-176l0 112-32 0 0-112 32 0z"/></svg>