<svg xmlns="http://www.w3.org/2000/svg" viewBox="0 0 640 512"><!--! Font Awesome Pro 7.0.0 by @fontawesome - https://fontawesome.com License - https://fontawesome.com/license (Commercial License) Copyright 2025 Fonticons, Inc. --><path fill="currentColor" d="M304 5.6l-16-14.4-16 14.4-232 208-17.9 16 32 35.7c13.6-12.2 22.2-19.9 25.8-23.2l0 269.3 288 0 0-224-176 0 0 176-64 0 0-264.3 160-143.5 160 143.4 0 4.9c14.4-11.6 31.4-20.1 50-24.5L304 5.6zm32 457.9l-96 0 0-128 96 0 0 128zM528 272c17.7 0 32 14.3 32 32l48 0c0-44.2-35.8-80-80-80s-80 35.8-80 80l0 48-32 0 0 192 224 0 0-192-144 0 0-48c0-17.7 14.3-32 32-32z"/></svg>