<svg xmlns="http://www.w3.org/2000/svg" viewBox="0 0 576 512"><!--! Font Awesome Pro 7.0.0 by @fontawesome - https://fontawesome.com License - https://fontawesome.com/license (Commercial License) Copyright 2025 Fonticons, Inc. --><path fill="currentColor" d="M288.4-8.2l16 14.4 232 208 17.9 16-32 35.7c-13.6-12.2-22.2-19.9-25.8-23.2l0 269.3-416 0 0-269.3c-3.7 3.3-12.3 11-25.8 23.2l-32-35.7 17.9-16 232-208 16-14.4zm0 64.5l-160 143.5 0 264.3 92.8 0-28.8-48 96-80-64-112 160 112-96 80 28.8 48 131.2 0 0-264.3-160-143.4z"/></svg>