<svg xmlns="http://www.w3.org/2000/svg" viewBox="0 0 384 512"><!--! Font Awesome Pro 7.0.0 by @fontawesome - https://fontawesome.com License - https://fontawesome.com/license (Commercial License) Copyright 2025 Fonticons, Inc. --><path fill="currentColor" d="M332 145.8C332 76.8 267.6 25.7 200.3 41.6 113.8 62 69.8 72.4 68.4 72.7l11 46.7c1.4-.3 45.3-10.7 131.9-31.1 37.1-8.8 72.7 19.4 72.7 57.5 0 18.1-8.3 35.1-22.2 46.2l-261.8 0 0 48 384 0 0-48-62.5 0c6.8-14.2 10.5-29.9 10.5-46.2zM217.8 272l-99.6 0 0 0-118.2 0 0 48 64 0c-7.7 14.3-12 30.6-12 47.5 0 60.9 54 107.6 114.2 98.9l142.9-20.6 23.8-3.4-6.9-47.5-23.8 3.4-142.9 20.6c-31.3 4.5-59.3-19.8-59.3-51.4 0-18.9 10.3-36.4 26.9-45.5l3.6-2 253.5 0 0-48-166.2 0 0 0z"/></svg>