<svg xmlns="http://www.w3.org/2000/svg" viewBox="0 0 640 512"><!--! Font Awesome Pro 7.0.0 by @fontawesome - https://fontawesome.com License - https://fontawesome.com/license (Commercial License) Copyright 2025 Fonticons, Inc. --><path fill="currentColor" d="M478 0L440 0c-48.6 0-88 39.4-88 88l0 75.2c0 24.8-20.1 44.8-44.8 44.8l-8.6 0c-49.7 0-95.9 25.3-122.8 67L156.6 305c-6 9.4-16.4 15-27.5 15-25 0-40.8-27-28.5-48.8l24.4-43.4-33.3-32.3-30.4 18.2C23.3 236.5 0 277.5 0 321.8 0 391.5 56.5 448 126.2 448l17.8 0 0 64 125.2 0c1.3-10.4 4-31.7 8-64l53.6 0c4 32.3 6.7 53.6 8 64l125.2 0 0-65.1c54.3-7.8 96-54.4 96-110.9l0-32 80 0 0-84.4-10.1-7.2-56-40-6.3-4.5-55.7 0 0 48 40.3 0 39.7 28.4 0 11.6-80 0 0 80c0 35.3-28.7 64-64 64l-32 0 0 64-34.8 0c-4-32.3-6.7-53.6-8-64l-138.4 0c-1.3 10.4-4 31.7-8 64l-34.8 0 0-64-65.8 0c-43.2 0-78.2-35-78.2-78.2 0-6 .7-11.9 2-17.6 7.7 35 38.4 63.8 79 63.8 27.5 0 53.1-14 67.9-37.1L216.2 301c18-28 49.1-45 82.4-45l8.6 0c51.3 0 92.8-41.6 92.8-92.8L400 88c0-22.1 17.9-40 40-40l23.7 0 32.3 21 0 11-64 0 0 158.9c-11.4 38.1-18.6 62.5-21.9 73.3l46 13.7c3.1-10.2 10.7-35.8 22.9-76.6l1-3.4 0-117.9 64 0 0-85c-.9-.6-20.9-13.6-60.1-39.1L478 0zM251.4 176l48.6 0c-3-19.7-5.5-35.7-7.4-48l-68.6 0 0-11 32.3-21 44.9 0c6.7 0 13.2 1.7 18.9 4.7L320 88c0-12.7 2-25 5.7-36.5-7.8-2.3-16.1-3.5-24.5-3.5l-59.1 0-6 3.9C196.9 77.4 176.9 90.4 176 91l0 85 75.4 0z"/></svg>