<svg xmlns="http://www.w3.org/2000/svg" viewBox="0 0 576 512"><!--! Font Awesome Pro 7.0.0 by @fontawesome - https://fontawesome.com License - https://fontawesome.com/license (Commercial License) Copyright 2025 Fonticons, Inc. --><path fill="currentColor" d="M400 368l0 64 128 0 0-64-128 0zm-48-48l0-16-128 0 0 128 128 0 0-112zm48-16l0 16 32 0 0-112-288 0 0 112 32 0 0-64 224 0 0 48zm100.3-96l-20.3 0 0 112 48 0c0-40.5-10-78.6-27.7-112zM75.7 208C58 241.4 48 279.5 48 320l48 0 0-112-20.3 0zM320 82.1c-10.5-1.4-21.1-2.1-32-2.1-71.1 0-134.9 30.9-178.9 80l210.9 0 0-77.9zm48 11.5l0 66.3 98.9 0c-26.6-29.7-60.5-52.8-98.9-66.3zM176 432l0-64-128 0 0 64 128 0zm0 48L0 480 0 320C0 160.9 128.9 32 288 32S576 160.9 576 320l0 160-400 0z"/></svg>