<svg xmlns="http://www.w3.org/2000/svg" viewBox="0 0 320 512"><!--! Font Awesome Pro 7.0.0 by @fontawesome - https://fontawesome.com License - https://fontawesome.com/license (Commercial License) Copyright 2025 Fonticons, Inc. --><path fill="currentColor" d="M32-32l0 48 256 0 0-48-256 0zM272 112l0 352-224 0 0-352 224 0zM48 64l-48 0 0 448 320 0 0-448-272 0zm208 96l-48 0c-19.1 0-36.3 8.4-48 21.7-11.7-13.3-28.9-21.7-48-21.7l-48 0c0 35.3 28.7 64 64 64l64 0c35.3 0 64-28.7 64-64zM112 256l-48 0c0 35.3 28.7 64 64 64l64 0c35.3 0 64-28.7 64-64l-48 0c-19.1 0-36.3 8.4-48 21.7-11.7-13.3-28.9-21.7-48-21.7zm144 96l-48 0c-19.1 0-36.3 8.4-48 21.7-11.7-13.3-28.9-21.7-48-21.7l-48 0c0 35.3 28.7 64 64 64l16 0 0 32 32 0 0-32 16 0c35.3 0 64-28.7 64-64z"/></svg>