<svg xmlns="http://www.w3.org/2000/svg" viewBox="0 0 384 512"><!--! Font Awesome Pro 7.1.0 by @fontawesome - https://fontawesome.com License - https://fontawesome.com/license (Commercial License) Copyright 2025 Fonticons, Inc. --><path fill="currentColor" d="M352 168.9l-39.5 65.7c43.6 35.2 71.5 89 71.5 149.4 0 49.2-18.5 94-48.9 128L48.9 512C18.5 478 0 433.2 0 384 0 323.6 27.9 269.8 71.4 234.6L32 168.9 32 0 352 0 352 168.9zM192 240c-79.5 0-144 64.5-144 144 0 29.6 8.9 57.1 24.3 80l239.4 0c15.4-22.9 24.3-50.4 24.3-80 0-79.5-64.5-144-144-144zM80 155.6l32.2 53.8c24.3-11.1 51.3-17.3 79.8-17.3 28.4 0 55.4 6.2 79.7 17.3L304 155.6 304 48 80 48 80 155.6z"/></svg>