<svg xmlns="http://www.w3.org/2000/svg" viewBox="0 0 576 512"><!--! Font Awesome Pro 7.0.0 by @fontawesome - https://fontawesome.com License - https://fontawesome.com/license (Commercial License) Copyright 2025 Fonticons, Inc. --><path fill="currentColor" d="M48 112l0 288 480 0 0-288-480 0zM0 64l576 0 0 384-576 0 0-384zM416 320l0 48-256 0 0-48 256 0zM104 232l48 0 0 48-48 0 0-48zm48-80l0 48-48 0 0-48 48 0zm32 80l48 0 0 48-48 0 0-48zm48-80l0 48-48 0 0-48 48 0zm32 80l48 0 0 48-48 0 0-48zm48-80l0 48-48 0 0-48 48 0zm32 80l48 0 0 48-48 0 0-48zm48-80l0 48-48 0 0-48 48 0zm32 80l48 0 0 48-48 0 0-48zm48-80l0 48-48 0 0-48 48 0z"/></svg>