<svg xmlns="http://www.w3.org/2000/svg" viewBox="0 0 576 512"><!--! Font Awesome Pro 7.0.0 by @fontawesome - https://fontawesome.com License - https://fontawesome.com/license (Commercial License) Copyright 2025 Fonticons, Inc. --><path fill="currentColor" d="M307.1-6.1l50.2 62.7 75.1 0c-2.6 13-8.9 44.4-18.9 94.3 11.5-10.4 24.9-22.5 40.2-36.3 8.8 15.3 20.8 36.1 36 62.3 41.2 11 66.9 17.9 77.2 20.7-2.7 10.3-9.6 36.1-20.7 77.2 15.1 26.2 27.1 47 36 62.3l-28.2 9.1-123.3 39.8c5.9 34.2 11.1 63.8 15.4 88.8-15.9-5.4-60.5-20.5-133.7-45.3l0 114.4-48 0 0-114.5c-74.7 24.9-120.3 40.1-136.7 45.6 5.1-25.7 11.1-55.4 17.8-89.2L22.8 346.3-5.5 337.2c8.8-15.3 20.8-36.1 36-62.3-11-41.1-17.9-66.9-20.7-77.2 10.3-2.8 36-9.7 77.2-20.7 15.2-26.2 27.2-47 36-62.3 15.3 13.9 28.7 26 40.2 36.3-10-49.9-16.3-81.3-18.9-94.3l75.1 0c38.7-48.4 61.7-77.1 68.9-86.2L307.1-6.1zM249.7 95.7l-7.2 9-39.6 0c15.7 78.2 27.6 138 35.9 179.3-36.6-33-71.2-64.3-103.9-93.9-8.5 14.9-14 24.3-16.2 28.2l-9.6 2.6-40.4 10.8 10.8 40.4 2.6 9.6c-2.3 3.9-7.7 13.3-16.2 28.1l114.7 37.1 20.3 6.6c-2.5 12.6-5.9 29.3-10 50l73.4-24.5 0-186.9 48 0 0 187 72.6 24.6c-3.7-21.4-6.6-38.2-8.7-50.3l19.8-6.4 114.8-37.1-11.2-19.5-5-8.6 2.6-9.6 10.8-40.4-40.4-10.8-9.6-2.6c-2.3-3.9-7.7-13.3-16.2-28.2-32.7 29.6-67.4 60.9-104 93.9 8.3-41.3 20.3-101.1 36-179.3l-39.6 0-7.2-9-38.6-48.3-38.6 48.3z"/></svg>