<svg xmlns="http://www.w3.org/2000/svg" viewBox="0 0 448 512"><!--! Font Awesome Pro 7.0.0 by @fontawesome - https://fontawesome.com License - https://fontawesome.com/license (Commercial License) Copyright 2025 Fonticons, Inc. --><path fill="currentColor" d="M448 320l-48 0 0-112c0-97.2-78.8-176-176-176S48 110.8 48 208l0 112-48 0 0 160 448 0 0-160zM352 208l0 112-256 0 0-112c0-70.7 57.3-128 128-128s128 57.3 128 128zM48 368l352 0 0 64-352 0 0-64zM176 208c0-26.5 21.5-48 48-48l0-48c-53 0-96 43-96 96l48 0z"/></svg>