<svg xmlns="http://www.w3.org/2000/svg" viewBox="0 0 576 512"><!--! Font Awesome Pro 7.0.0 by @fontawesome - https://fontawesome.com License - https://fontawesome.com/license (Commercial License) Copyright 2025 Fonticons, Inc. --><path fill="currentColor" d="M0 256C0 150 86 64 192 64l64 0 0 48-64 0c-79.5 0-144 64.5-144 144s64.5 144 144 144l64 0 0 48-64 0C86 448 0 362 0 256zm160-24l256 0 0 48-256 0 0-48zM384 64c106 0 192 86 192 192S490 448 384 448l-64 0 0-48 64 0c79.5 0 144-64.5 144-144S463.5 112 384 112l-64 0 0-48 64 0z"/></svg>