<svg xmlns="http://www.w3.org/2000/svg" viewBox="0 0 320 512"><!--! Font Awesome Pro 7.0.0 by @fontawesome - https://fontawesome.com License - https://fontawesome.com/license (Commercial License) Copyright 2025 Fonticons, Inc. --><path fill="currentColor" d="M63 256l-63 0 0-48 43.4 0C18.3 123 81.8 34 174.1 34l9.2 0c31.8 0 62.6 10.7 87.5 30.4 10.3 8.1 21.9 17.3 34.9 27.6l-29.8 37.6c-13-10.3-24.6-19.5-34.9-27.6-16.4-13-36.8-20.1-57.7-20.1l-9.2 0C110 82 67.4 148.2 94 206.5l.7 1.5 193.3 0 0 48-175.3 0c2.4 10.6 3.8 21.3 4.1 32l171.2 0 0 48-176.6 0c-4.2 16.2-10.9 31.8-20 46.3l-31.1 49.7 259.7 0 0 48-312 0 0-54.9 3.6-5.8 39-62.4c4.2-6.7 7.6-13.7 10.4-20.9l-61 0 0-48 68.8 0c-.5-10.8-2.4-21.6-5.8-32z"/></svg>