<svg xmlns="http://www.w3.org/2000/svg" viewBox="0 0 384 512"><!--! Font Awesome Pro 7.0.0 by @fontawesome - https://fontawesome.com License - https://fontawesome.com/license (Commercial License) Copyright 2025 Fonticons, Inc. --><path fill="currentColor" d="M192 16c44.2 0 80 35.8 80 80l0 64-160 0 0-64c0-44.2 35.8-80 80-80zM64 208l48 0 0 0 160 0 0 0 48 0 0 0 16 0 0 256-288 0 0-256 16 0 0 0zM64 96l0 64-64 0 0 352 384 0 0-352-64 0 0-64c0-70.7-57.3-128-128-128S64 25.3 64 96zm106.2 158l-81.1 177.9 52.7 0 14.6-32 71.2 0 14.6 32 52.7 0-81.1-177.9-6.4-14.1-30.9 0-6.4 14.1zM192 321.9l13.7 30.1-27.4 0 13.7-30.1z"/></svg>