<svg xmlns="http://www.w3.org/2000/svg" viewBox="0 0 576 512"><!--! Font Awesome Pro 7.0.0 by @fontawesome - https://fontawesome.com License - https://fontawesome.com/license (Commercial License) Copyright 2025 Fonticons, Inc. --><path fill="currentColor" d="M240.4 48a160 160 0 1 1 0 320 160 160 0 1 1 0-320zm0 368c48.8 0 93.7-16.8 129.1-44.9l133.9 133.9 17 17 33.9-33.9-17-17-133.9-133.9c28.1-35.5 44.9-80.3 44.9-129.1 0-114.9-93.1-208-208-208s-208 93.1-208 208 93.1 208 208 208zm24-320l-40 0 0 24c-28.8 .3-52 23.7-52 52.5 0 25.7 18.5 47.6 43.9 51.8l41.7 7c6 1 10.4 6.2 10.4 12.3 0 6.9-5.6 12.5-12.5 12.5l-75.5 0 0 40 44 0 0 24 40 0 0-24.7c25-4.1 44-25.7 44-51.8 0-25.7-18.5-47.6-43.9-51.8l-41.7-7c-6-1-10.4-6.2-10.4-12.3 0-6.9 5.6-12.5 12.5-12.5l67.5 0 0-40-28 0 0-24z"/></svg>