<svg xmlns="http://www.w3.org/2000/svg" viewBox="0 0 576 512"><!--! Font Awesome Pro 7.0.0 by @fontawesome - https://fontawesome.com License - https://fontawesome.com/license (Commercial License) Copyright 2025 Fonticons, Inc. --><path fill="currentColor" d="M240.4 48a160 160 0 1 1 0 320 160 160 0 1 1 0-320zm0 368c48.8 0 93.7-16.8 129.1-44.9l133.9 133.9 17 17 33.9-33.9-17-17-133.9-133.9c28.1-35.5 44.9-80.3 44.9-129.1 0-114.9-93.1-208-208-208s-208 93.1-208 208 93.1 208 208 208zm88-304l-88 0 0 81.8c-5.1-1.2-10.5-1.8-16-1.8-35.3 0-64 25.1-64 56s28.7 56 64 56 64-25.1 64-56c0-1.3-.1-2.6-.2-3.9l.2 .1 0-84.2 40 0 0-48z"/></svg>