<svg xmlns="http://www.w3.org/2000/svg" viewBox="0 0 512 512"><!--! Font Awesome Pro 7.0.0 by @fontawesome - https://fontawesome.com License - https://fontawesome.com/license (Commercial License) Copyright 2025 Fonticons, Inc. --><path fill="currentColor" d="M288 48l0 48.6c-63.6 4.8-122.1 38.5-157.7 92L0 384 0 512 304 512c114.9 0 208-93.1 208-208 0-103.8-76.5-189.9-176-205.5l0-18.5 64 0c44.2 0 80-35.8 80-80l0-32-112 0c-44.2 0-80 35.8-80 80zM48 464l0-65.5 122.2-183.3c29.6-44.5 79.8-71.2 133.4-71.2 88.5 0 160.4 71.8 160.4 160 0 88.4-71.6 160-160 160L48 464zm248-48c66.3 0 120-53.7 120-120l-48 0c0 39.8-32.2 72-72 72l0 48z"/></svg>