<svg xmlns="http://www.w3.org/2000/svg" viewBox="0 0 576 512"><!--! Font Awesome Pro 7.0.0 by @fontawesome - https://fontawesome.com License - https://fontawesome.com/license (Commercial License) Copyright 2025 Fonticons, Inc. --><path fill="currentColor" d="M320 256a128 128 0 1 0 -256 0 128 128 0 1 0 256 0zM192 80c89.1 0 162.7 66.2 174.4 152l33.6 0 0-64 48 0 0 64 56 0-33.6-44.8 38.4-28.8c4 5.3 24.8 33.1 62.4 83.2L582 256c-1 1.3-20.6 27.5-58.8 78.4l-14.4 19.2-38.4-28.8 33.6-44.8-56 0 0 64-48 0 0-64-33.6 0c-11.7 85.8-85.3 152-174.4 152-97.2 0-176-78.8-176-176S94.8 80 192 80z"/></svg>