<svg xmlns="http://www.w3.org/2000/svg" viewBox="0 0 640 512"><!--! Font Awesome Pro 7.0.0 by @fontawesome - https://fontawesome.com License - https://fontawesome.com/license (Commercial License) Copyright 2025 Fonticons, Inc. --><path fill="currentColor" d="M480.1-48l144 0 0 144-48 0 0-62.1-67.7 67.7c22.4 29.5 35.7 66.4 35.7 106.3 0 89.1-66.2 162.7-152 174.4l0 49.6 72 0 0 48-72 0 0 64-48 0 0-64-72 0 0-48 72 0 0-49.6c-85.8-11.7-152-85.3-152-174.4 0-97.2 78.8-176 176-176 39.9 0 76.8 13.3 106.3 35.7l67.7-67.7-62.1 0 0-48zm16 256a128 128 0 1 0 -256 0 128 128 0 1 0 256 0zM145.3 272.2L99.7 302.6c-3.4-39.3-6-69.8-7.8-91.4-20.7-6.6-49.8-16-87.4-28 28.6-27.1 50.8-48.2 66.6-63.1-7.7-20.3-18.6-48.9-32.6-85.8 39.1 5.5 69.4 9.7 90.9 12.7 11.1-18.7 26.6-45 46.7-79 20.7 35 35.1 59.2 43 72.7-12.5 11.2-23.8 23.8-33.6 37.5-2.4-4.1-5.6-9.4-9.4-15.9-1.8 3.1-9 15.3-21.7 36.7-24.6-3.4-38.7-5.4-42.2-5.9 1.3 3.3 6.3 16.6 15.1 39.8-18 17.1-28.4 26.9-30.9 29.3 3.4 1.1 16.9 5.4 40.6 13 2.1 24.8 3.3 38.9 3.6 42.5l3.6-2.4c.6 18.1 3.3 35.6 7.9 52.4l-6.8 4.5z"/></svg>