<svg xmlns="http://www.w3.org/2000/svg" viewBox="0 0 576 512"><!--! Font Awesome Pro 7.0.0 by @fontawesome - https://fontawesome.com License - https://fontawesome.com/license (Commercial License) Copyright 2025 Fonticons, Inc. --><path fill="currentColor" d="M49.3-16.9l-17-17-33.9 33.9 17 17 512 512 17 17 33.9-33.9c-6.3-6.3-27.7-27.7-64.1-64.1l30 0 0-416-446 0-48.9-48.9zM146.2 80l350 0 0 320-30 0-320-320zm-66 272l0-202.2-48-48 0 346.2 128 0 0 96c69.3-41.6 87.7-52.6 160-96l58.2 0-48-48-23.5 0c-85 51-85.7 51.4-98.7 59.2l0-59.2-128 0 0-48z"/></svg>