<svg xmlns="http://www.w3.org/2000/svg" viewBox="0 0 640 512"><!--! Font Awesome Pro 7.0.0 by @fontawesome - https://fontawesome.com License - https://fontawesome.com/license (Commercial License) Copyright 2025 Fonticons, Inc. --><path fill="currentColor" d="M192 544c21.3-12.8 74.7-44.8 160-96l208 0 0-208 80 0 0-48-80 0 0-160-480 0 0 160-80 0 0 48 80 0 0 208 112 0 0 96zM327.3 406.8l-87.3 52.4 0-59.2-112 0 0-320 384 0 0 320-173.3 0-11.4 6.8zM176 128l0 192 288 0 0-192-288 0zm48 96a32 32 0 1 1 64 0 32 32 0 1 1 -64 0zm160-32a32 32 0 1 1 0 64 32 32 0 1 1 0-64z"/></svg>