<svg xmlns="http://www.w3.org/2000/svg" viewBox="0 0 512 512"><!--! Font Awesome Pro 7.0.0 by @fontawesome - https://fontawesome.com License - https://fontawesome.com/license (Commercial License) Copyright 2025 Fonticons, Inc. --><path fill="currentColor" d="M200.7 500.4c-12.6 7.5-36.8 22.1-72.7 43.6l0-96-128 0 0-416 512 0 0 416-224 0-87.3 52.4zM176 459.2c22.9-13.7 67.8-40.7 87.3-52.4l11.4-6.8 189.3 0 0-320-416 0 0 320 128 0 0 59.2zM240 160l0 120c0 39.8-32.2 72-72 72l-24 0 0-48 24 0c13.3 0 24-10.7 24-24l0-8-64 0 0-112 112 0zM400 272l0 8c0 39.8-32.2 72-72 72l-24 0 0-48 24 0c13.3 0 24-10.7 24-24l0-8-64 0 0-112 112 0 0 112z"/></svg>