<svg xmlns="http://www.w3.org/2000/svg" viewBox="0 0 512 512"><!--! Font Awesome Pro 7.0.0 by @fontawesome - https://fontawesome.com License - https://fontawesome.com/license (Commercial License) Copyright 2025 Fonticons, Inc. --><path fill="currentColor" d="M256 512a256 256 0 1 1 0-512 256 256 0 1 1 0 512zm64-384l-128 0 0-69.9C108.4 85.1 48 163.5 48 256 48 370.9 141.1 464 256 464s208-93.1 208-208c0-92.5-60.4-170.9-144-197.9l0 69.9zM256 432a32 32 0 1 1 0-64 32 32 0 1 1 0 64zm-79.2-51.6a32 32 0 1 1 -45.3-45.2 32 32 0 1 1 45.3 45.2zm203.6 0a32 32 0 1 1 -45.2-45.2 32 32 0 1 1 45.2 45.2zM112 288a32 32 0 1 1 0-64 32 32 0 1 1 0 64zm288 0a32 32 0 1 1 0-64 32 32 0 1 1 0 64z"/></svg>