<svg xmlns="http://www.w3.org/2000/svg" viewBox="0 0 640 512"><!--! Font Awesome Pro 7.0.0 by @fontawesome - https://fontawesome.com License - https://fontawesome.com/license (Commercial License) Copyright 2025 Fonticons, Inc. --><path fill="currentColor" d="M602.5 320L384 538.5 37.5 192 256-26.5 602.5 320zM176 416l-55.5 0c4 36 34.5 64 71.5 64 18.3 0 35-6.9 47.8-18.2l34.1 34c-21.4 20-50.2 32.2-81.8 32.2-63.6 0-115.6-49.5-119.7-112l-56.3 0 80-80 80 80zM105.4 192L384 470.6 534.6 320 256 41.4 105.4 192zM473.9 328L392 409.9 358.1 376 440 294.1 473.9 328zM448-16c63.6 0 115.6 49.5 119.7 112l56.3 0-80 80-80-80 55.5 0c-4-36-34.5-64-71.5-64-18.3 0-35 6.9-47.8 18.2l-34.1-34C387.6-3.7 416.4-16 448-16z"/></svg>