<svg xmlns="http://www.w3.org/2000/svg" viewBox="0 0 512 512"><!--! Font Awesome Pro 7.0.0 by @fontawesome - https://fontawesome.com License - https://fontawesome.com/license (Commercial License) Copyright 2025 Fonticons, Inc. --><path fill="currentColor" d="M146.4 428.1c31.1-3.6 58.5-12.7 90.9-23.5l0 0c6.4-2.1 12.9-4.3 19.8-6.5 34.5-11.2 73.9-22.5 119.7-23.8 27.4-.7 56.2 2.2 87.1 9.9l0-290.3c-39.7-12.2-72-13.3-100.7-9.7-30.2 3.8-56.6 12.6-87.8 23-8.2 2.7-16.7 5.6-25.8 8.5-34.1 10.9-72.9 21.5-118 22.2-26.4 .4-54.2-2.5-83.8-10l0 290.3c38.7 11.9 70.3 13.3 98.4 10zM0 60.3c16.9 7.5 32.8 13.4 48 17.8 76 22.2 132.6 9.3 187.2-8.2 7.8-2.5 15.5-5.1 23.2-7.6l0 0c71.2-23.7 142.9-47.6 253.6-2l0 391.5c-16.9-7.5-32.8-13.4-48-17.8-78.2-22.9-136-8.5-192 9.7-6.1 2-12.3 4-18.4 6.1-71.2 23.7-142.9 47.6-253.6 2L0 60.3zM256 352c-44.2 0-80-43-80-96s35.8-96 80-96 80 43 80 96-35.8 96-80 96z"/></svg>