<svg xmlns="http://www.w3.org/2000/svg" viewBox="0 0 512 512"><!--! Font Awesome Pro 7.0.0 by @fontawesome - https://fontawesome.com License - https://fontawesome.com/license (Commercial License) Copyright 2025 Fonticons, Inc. --><path fill="currentColor" d="M283.5 1.5c26.8 2.9 52.5 9.9 76.2 20.4-23.8 5.9-45.9 16.1-65.5 29.6-52.1 36.1-86.2 96.3-86.2 164.5 0 104.4 79.9 190 181.9 199.2 6 .5 12 .8 18.1 .8 18.5 0 36.4-2.5 53.4-7.2-15.1 20.3-33.1 38.2-53.4 53.2-.9 .7-1.8 1.3-2.7 2-42 30.2-93.6 48-149.3 48-141.4 0-256-114.6-256-256S114.6 0 256 0c9.3 0 18.5 .5 27.5 1.5zM48 256c0 114.9 93.1 208 208 208 25.5 0 50-4.6 72.6-13-98-33.1-168.6-125.8-168.6-235 0-63.6 23.9-121.6 63.2-165.4-99.3 15.7-175.2 101.7-175.2 205.4zm323.2-19.2L288 208 371.2 179.2 400 96 428.8 179.2 512 208 428.8 236.8 400 320 371.2 236.8z"/></svg>