<svg xmlns="http://www.w3.org/2000/svg" viewBox="0 0 640 512"><!--! Font Awesome Pro 7.0.0 by @fontawesome - https://fontawesome.com License - https://fontawesome.com/license (Commercial License) Copyright 2025 Fonticons, Inc. --><path fill="currentColor" d="M504 392l48 0 0-40 48 0 0 40 40 0 0 48-40 0 0 48 40 0 0 48-40 0 0 40-48 0 0-40-48 0 0 40-48 0 0-40-40 0 0-48 40 0 0-48-40 0 0-48 40 0 0-40 48 0 0 40zM480.9 25.7C474 36 461 55.6 441.6 84.7l13.3 53.4 3.8 15.2-11.8 9.8-45.6 38 131.7 14.6 7.9 1.2c38.8 8 67.2 42.3 67.2 82.7l-.2 4.4-48.1 0c.2-1.5 .3-2.9 .3-4.4 0-18.5-14-34.1-32.4-36.2l-136.7-15.2 76.7 55.8-81.6 0-10-7.3 0 143.3-112 0 0-83.7-16.3 20.4 0 45.1-2.6 5.2-32 64-10.8 21.7-42.1-22.2c4.1-8.2 17.5-35 40.2-80.4l0-42.1 0-8.7 5.4-6.7 25.8-32.2-65.3 47.5-5.5 3.7c-13.3 8.1-28.6 12.5-44.2 12.5l-8.6-.4c-39.7-4-71.4-35.6-75.4-75.4l-.4-8.6c0-40.3 28.5-74.6 67.2-82.7l7.9-1.2 131.7-14.6-45.7-38-11.8-9.8 3.8-15.2 13.3-53.4c-19.4-29-32.5-48.7-39.3-59l39-27.5c5.8 8.7 20.9 31.4 45.3 68.1l6.1 9.1-2.7 10.7-12.2 49 29.3 24.4 0-23.5 40 0 0-88.1 32 0 0 88.1 40 0 0 23.4 29.3-24.4-12.2-49-2.7-10.7 6.1-9.1C420.9 29.6 436 6.9 441.8-1.8l39 27.5zM504 488l48 0 0-48-48 0 0 48zM304 400l32 0 0-224-32 0 0 224zM112.4 263.4c-18.4 2.1-32.4 17.6-32.4 36.2 0 20.1 16.4 36.4 36.5 36.4 7.7 0 15.3-2.4 21.5-7l111.2-80.9-136.8 15.2z"/></svg>