<svg xmlns="http://www.w3.org/2000/svg" viewBox="0 0 640 512"><!--! Font Awesome Pro 7.0.0 by @fontawesome - https://fontawesome.com License - https://fontawesome.com/license (Commercial License) Copyright 2025 Fonticons, Inc. --><path fill="currentColor" d="M182.8 112l97.9 0c.1 .1 13.2 11 39.3 32.8 26.1-21.7 39.2-32.7 39.3-32.8l97.9 0 6.8 6.2 68.3 61.5c55.8-25.3 91.6-41.7 107.6-48.9 0 25.4 0 49.2 0 71.3l0 0c0 109.4-88.6 198-198 198-42.8 0-84.5-13.9-118.8-39.6l-3.2-2.4-3.2 2.4C282.5 386.1 240.8 400 198 400 88.6 400 0 311.4 0 202l0 0 0-71.3c16 7.3 51.9 23.6 107.6 48.9l68.3-61.5 6.8-6.2zm18.4 48l-73.2 65.8-11.7 10.5c-2.9-1.3-25.7-11.7-68.3-31.1 1.7 81.3 68.2 146.7 150 146.7 32.5 0 64-10.5 90-30l32-24 32 24c26 19.5 57.5 30 90 30 81.7 0 148.2-65.4 150-146.7-42.6 19.4-65.4 29.7-68.3 31.1l-11.7-10.5-73.2-65.8-62.1 0c-31.9 26.6-50.8 42.3-56.7 47.2-5.9-4.9-24.8-20.7-56.7-47.2l-62.1 0z"/></svg>