<svg xmlns="http://www.w3.org/2000/svg" viewBox="0 0 512 512"><!--! Font Awesome Pro 7.0.0 by @fontawesome - https://fontawesome.com License - https://fontawesome.com/license (Commercial License) Copyright 2025 Fonticons, Inc. --><path fill="currentColor" d="M48 48l0 32-48 0 0-80 80 0 0 48-32 0zm176 0l-96 0 0-48 96 0 0 48zM48 128l0 96-48 0 0-96 48 0zM0 304l0-32 48 0 0 32 64 0 0 48-112 0 0-48zm160 48l0-192 192 0 0 192-192 0zm304-64l48 0 0 96-48 0 0-96zm48-48l-48 0 0-32-64 0 0-48 112 0 0 80zm0 192l0 80-80 0 0-48 32 0 0-32 48 0zM384 512l-96 0 0-48 96 0 0 48zM160 400l48 0 0 64 32 0 0 48-80 0 0-112zM352 112l-48 0 0-64-32 0 0-48 80 0 0 112zm-48 96l-96 0 0 96 96 0 0-96z"/></svg>