<svg xmlns="http://www.w3.org/2000/svg" viewBox="0 0 640 512"><!--! Font Awesome Pro 7.0.0 by @fontawesome - https://fontawesome.com License - https://fontawesome.com/license (Commercial License) Copyright 2025 Fonticons, Inc. --><path fill="currentColor" d="M48 48l0 32 32 0 0-32-32 0zM0 0l128 0 0 40 192 0 0-40 128 0 0 128-40 0 0 96 40 0 0 128-128 0 0-40-192 0 0 40-128 0 0-128 40 0 0-96-40 0 0-128zM88 128l0 96 40 0 0 40 192 0 0-40 40 0 0-96-40 0 0-40-192 0 0 40-40 0zM80 272l-32 0 0 32 32 0 0-32zM400 48l-32 0 0 32 32 0 0-32zM368 272l0 32 32 0 0-32-32 0zM592 432l-32 0 0 32 32 0 0-32zm-40-48l0-96-40 0 0-40-16 0 0-48 16 0 0-40 128 0 0 128-40 0 0 96 40 0 0 128-128 0 0-40-192 0 0 40-128 0 0-128 40 0 0-16 48 0 0 32 40 0 0 24 192 0 0-40 40 0zm8-176l0 32 32 0 0-32-32 0zM240 432l0 32 32 0 0-32-32 0z"/></svg>