<svg xmlns="http://www.w3.org/2000/svg" viewBox="0 0 640 512"><!--! Font Awesome Pro 7.0.0 by @fontawesome - https://fontawesome.com License - https://fontawesome.com/license (Commercial License) Copyright 2025 Fonticons, Inc. --><path fill="currentColor" d="M248 272a24 24 0 1 1 48 0 24 24 0 1 1 -48 0zm120 24a24 24 0 1 0 0-48 24 24 0 1 0 0 48zM162.6 192.7C145.1 96.2 217.5 0 320 0S494.9 96.2 477.4 192.7L458.2 298.2c-2.8 15.5 9.1 29.8 24.9 29.8 11.2 0 21.1-7.4 24.3-18.2L521.2 263c12.4-42.1 51-71 94.8-71l24 0 0 48-24 0c-22.6 0-42.4 14.9-48.8 36.5l-13.8 46.9c-9.2 31.2-37.8 52.6-70.3 52.6-12.8 0-24.6-3.2-35-8.8 2.1 36.2 32.1 64.8 68.8 64.8 32.5 0 60.6-22.7 67.4-54.5l8.3-38.6 46.9 10.1-8.3 38.6c-11.5 53.9-59.2 92.4-114.3 92.4-33.4 0-66.3-8.2-95.8-24l-75.1-40-52 0-75.1 40c-29.5 15.7-62.4 24-95.8 24-55.1 0-102.8-38.5-114.3-92.4L.5 349 47.5 339 55.7 377.5c6.8 31.8 34.9 54.5 67.4 54.5 36.7 0 66.7-28.7 68.8-64.8-10.3 5.6-22.2 8.8-35 8.8-32.5 0-61.2-21.4-70.3-52.6L72.8 276.5C66.4 254.9 46.6 240 24 240l-24 0 0-48 24 0c43.8 0 82.5 28.9 94.8 71l13.8 46.9c3.2 10.8 13.1 18.2 24.3 18.2 15.8 0 27.7-14.3 24.9-29.8L162.6 192.7zm47.2-8.6l28.2 155.2c1.5 8.4 1.9 16.5 1.9 23.9 0 10.1-1.3 19.9-3.7 29.3l45.7-24.4 76 0 45.7 24.4c-2.4-9.4-3.7-19.2-3.7-29.3 0-7.4 .4-15.5 1.9-23.9l28.2-155.2C442.7 114.9 390.3 48 320 48S197.3 114.9 209.9 184.1z"/></svg>