<svg xmlns="http://www.w3.org/2000/svg" viewBox="0 0 640 512"><!--! Font Awesome Pro 7.0.0 by @fontawesome - https://fontawesome.com License - https://fontawesome.com/license (Commercial License) Copyright 2025 Fonticons, Inc. --><path fill="currentColor" d="M0 64S48 0 128 0c60.2 0 102.3 36.3 119.4 54.2L357.8 2.3C361 .8 364.5 0 368 0l272 0 0 48-266.6 0-181.5 85.4C189.1 219.3 118.6 288 32 288l-32 0 0-32C0 194.6 34.5 141.4 85.2 114.5 31.2 100.4 0 64 0 64zM399.4 427c19.3-25.7 32.6-63.3 32.6-107s-13.3-81.3-32.6-107c-19.2-25.7-42.2-37-63.4-37s-44.2 11.4-63.4 37C253.3 238.7 240 276.4 240 320s13.3 81.3 32.6 107c19.2 25.7 42.2 37 63.4 37s44.2-11.4 63.4-37zM336 512c-79.5 0-144-86-144-192s64.5-192 144-192 144 86 144 192-64.5 192-144 192zm129.7-40.2c9.4-13.1 17.6-27.5 24.4-43.1 3.6 .8 7.1 1.5 10.5 2 31.1 4.6 55-3.6 70.2-19.3 15.4-16 23.9-42.1 19.2-76-4.7-33.8-22.2-71.6-53.2-103.7-18-18.7-37.7-32.5-57.2-41.7-4.9-8.8-10.3-17.2-16.2-25-10.5-14-22.7-26.5-36.2-36.9 48.2 1.6 101.3 25.8 144.2 70.3 75 77.8 90.2 188.1 33.9 246.4-34.1 35.4-86.8 43.5-139.6 27z"/></svg>