<svg xmlns="http://www.w3.org/2000/svg" viewBox="0 0 640 512"><!--! Font Awesome Pro 7.0.0 by @fontawesome - https://fontawesome.com License - https://fontawesome.com/license (Commercial License) Copyright 2025 Fonticons, Inc. --><path fill="currentColor" d="M81.6-16.9l-17-17-33.9 33.9 17 17 512 512 17 17 33.9-33.9-17-17-187.2-187.2 195-195 17-17c-2.1-2.1-31.8-31.8-89-89l-17-17-17 17-195 195-218.9-218.9zM334.4 236l178-178 38.1 38.1-178 178-38.1-38.1zM297.1 350.5c4.7 10.2 7.3 21.5 7.3 33.5 0 44.2-35.8 80-80 80l-80 0 0-80c0-44.2 35.8-80 80-80 12 0 23.3 2.6 33.5 7.3l-53.7-53.7C143.1 267.3 96.4 320.2 96.4 384l0 80-64 0 0 48 192 0c63.8 0 116.7-46.7 126.4-107.8l-53.7-53.7z"/></svg>