<svg xmlns="http://www.w3.org/2000/svg" viewBox="0 0 640 512"><!--! Font Awesome Pro 7.0.0 by @fontawesome - https://fontawesome.com License - https://fontawesome.com/license (Commercial License) Copyright 2025 Fonticons, Inc. --><path fill="currentColor" d="M529.4 7l-17-17-17 17-250.6 250.6c-6.7-1.1-13.5-1.6-20.4-1.6-70.7 0-128 57.3-128 128l0 80-64 0 0 48 192 0c70.7 0 128-57.3 128-128 0-7-.6-13.8-1.6-20.4l250.6-250.6 17-17c-2.1-2.1-31.8-31.8-89-89zM332 314.5c-9.8-15.2-22.8-28.2-38.1-38.1L512.4 57.9 550.5 96 332 314.5zM224.4 464l-80 0 0-80c0-44.2 35.8-80 80-80s80 35.8 80 80-35.8 80-80 80z"/></svg>