<svg xmlns="http://www.w3.org/2000/svg" viewBox="0 0 512 512"><!--! Font Awesome Pro 7.0.0 by @fontawesome - https://fontawesome.com License - https://fontawesome.com/license (Commercial License) Copyright 2025 Fonticons, Inc. --><path fill="currentColor" d="M241.4 18.4c53.1-53.1 139.2-53.1 192.3 0s53.1 139.2 0 192.3L264 380.5c-34.4 34.4-90.1 34.4-124.5 0s-34.4-90.1 0-124.5l158.4-158.4 17-17 33.9 33.9-17 17-158.4 158.4c-15.6 15.6-15.6 40.9 0 56.6s40.9 15.6 56.6 0L399.8 176.8c34.4-34.4 34.4-90.1 0-124.5s-90.1-34.4-124.4 0l-181 181c-53.1 53.1-53.1 139.2 0 192.3s139.2 53.1 192.3 0l141.4-141.4 17-17 33.9 33.9-158.4 158.4c-71.9 71.9-188.4 71.9-260.2 0s-71.9-188.4 0-260.2l181-181z"/></svg>