<svg xmlns="http://www.w3.org/2000/svg" viewBox="0 0 512 512"><!--! Font Awesome Pro 7.0.0 by @fontawesome - https://fontawesome.com License - https://fontawesome.com/license (Commercial License) Copyright 2025 Fonticons, Inc. --><path fill="currentColor" d="M416 48C212.8 48 48 212.8 48 416l0 48 48 0c203.2 0 368-164.8 368-368l0-48-48 0zm0-48l96 0 0 96c0 229.8-186.2 416-416 416l-96 0 0-96C0 186.2 186.2 0 416 0zM256 200a56 56 0 1 1 0 112 56 56 0 1 1 0-112zM88 368a56 56 0 1 1 112 0 56 56 0 1 1 -112 0zM368 88a56 56 0 1 1 0 112 56 56 0 1 1 0-112z"/></svg>