<svg xmlns="http://www.w3.org/2000/svg" viewBox="0 0 576 512"><!--! Font Awesome Pro 7.0.0 by @fontawesome - https://fontawesome.com License - https://fontawesome.com/license (Commercial License) Copyright 2025 Fonticons, Inc. --><path fill="currentColor" d="M378 121.9l44.1 44.1-124.4 124.4-50.4 6.3 6.3-50.4 124.4-124.4zM473 183c19.4-19.4 77.1-77.1 87-87-49.2-49.2-101.8-101.8-112-112-22.3 22.3-45.6 45.6-70 70-5.6 5.6-62.3 62.3-170 170-7.2 57.5-12.5 100.2-16 128 27.8-3.5 70.5-8.8 128-16l136-136 17-17zm-17-50.9L411.9 88 448 51.9 492.1 96 456 132.1zM348.6 15.5C329.2 10.6 308.9 8 288 8 151 8 40 119 40 256S151 504 288 504l24 0 0-48-24 0C177.5 456 88 366.5 88 256S177.5 56 288 56c6.5 0 12.9 .3 19.2 .9 12.9-12.9 26.8-26.8 41.4-41.4zM487.1 236.8c.6 6.3 .9 12.7 .9 19.2 0 57.4-46.6 104-104 104l-24 0 0 48 24 0c83.9 0 152-68.1 152-152 0-20.9-2.6-41.2-7.5-60.6-14.7 14.7-28.5 28.5-41.4 41.4z"/></svg>