<svg xmlns="http://www.w3.org/2000/svg" viewBox="0 0 576 512"><!--! Font Awesome Pro 7.0.0 by @fontawesome - https://fontawesome.com License - https://fontawesome.com/license (Commercial License) Copyright 2025 Fonticons, Inc. --><path fill="currentColor" d="M64-32A56 56 0 1 1 64 80 56 56 0 1 1 64-32zM0 112l118.8 0 6.6 13.3 57.4 114.7 9.2 0 0-144 192 0 0 144 9.2 0 57.4-114.7 6.6-13.3 118.8 0 0 160c0 27.7-13 53.8-35.2 70.4l-92.8 69.6 0 132-48 0 0-156c1.6-1.2 17.6-13.2 48-36l0-114.3c-14.3 28.7-22.7 45.5-25.2 50.3l-269.7 0c-2.4-4.9-10.8-21.7-25.2-50.3L128 352c30.4 22.8 46.4 34.8 48 36l0 156-48 0 0-132-92.8-69.6C13 325.8 0 299.7 0 272L0 112zM336 240l0-96-96 0 0 96 96 0zM80 316l0-156-32 0 0 112c0 12.6 5.9 24.4 16 32l16 12zM0 369.6c3.5 3.5 7.2 6.8 11 9.9l37 29.6 0 135-48 0 0-174.4zM512-32a56 56 0 1 1 0 112 56 56 0 1 1 0-112zM496 316l16-12c10.1-7.6 16-19.4 16-32l0-112-32 0 0 156zm80 53.6l0 174.4-48 0 0-135 37-29.6c3.9-3.1 7.6-6.4 11-9.9z"/></svg>