<svg xmlns="http://www.w3.org/2000/svg" viewBox="0 0 640 512"><!--! Font Awesome Pro 7.0.0 by @fontawesome - https://fontawesome.com License - https://fontawesome.com/license (Commercial License) Copyright 2025 Fonticons, Inc. --><path fill="currentColor" d="M136.1 24a56 56 0 1 1 112 0 56 56 0 1 1 -112 0zm-24 209.1C85 284.6 69.7 313.7 66.2 320.4l-42.5-22.4 11.2-21.2 80-152 6.7-12.8 145 0 6.4 14.1 49.7 109.5 64.6-111.6 6.9-12 107.1 0 7.1 11.2 96 152 12.8 20.3-40.6 25.6c-6.9-10.9-18.8-29.7-35.6-56.4 15.1 51.4 26.8 91.1 35.1 119.2l-64 0 0 160-48 0 0-160-32 0 0 160-48 0 0-160-64 0c9.3-31.7 18.9-64.3 28.8-97.8-4.7 8.2-11.3 19.4-19.6 33.8l-21 0c-4-8.8-16-35.4-36.2-79.7l0 303.7-48 0 0-176-64 0 0 176-48 0 0-310.9zm112-73.1l-64 0 0 160 64 0 0-160zM436 160l-51.8 176 127.7 0-51.8-176-24.2 0zM392.1 24a56 56 0 1 1 112 0 56 56 0 1 1 -112 0z"/></svg>