<svg xmlns="http://www.w3.org/2000/svg" viewBox="0 0 448 512"><!--! Font Awesome Pro 7.0.0 by @fontawesome - https://fontawesome.com License - https://fontawesome.com/license (Commercial License) Copyright 2025 Fonticons, Inc. --><path fill="currentColor" d="M224.3 80a56 56 0 1 0 0-112 56 56 0 1 0 0 112zm188 20.8l20.8-12-24-41.6-20.8 12-119.4 68.8-89.3 0-119.4-68.8-20.8-12-24 41.6 20.8 12 108 62.2 0 161.1-54.8 164.3-7.6 22.8 45.5 15.2 7.6-22.8 50.5-151.6 77.4 0 50.5 151.6 7.6 22.8 45.5-15.2-7.6-22.8-54.8-164.3 0-161.1 108-62.2zM256.3 304l-64 0 0-128 64 0 0 128z"/></svg>