<svg xmlns="http://www.w3.org/2000/svg" viewBox="0 0 320 512"><!--! Font Awesome Pro 7.0.0 by @fontawesome - https://fontawesome.com License - https://fontawesome.com/license (Commercial License) Copyright 2025 Fonticons, Inc. --><path fill="currentColor" d="M128-32a56 56 0 1 1 0 112 56 56 0 1 1 0-112zM64 112l118.8 0 6.6 13.3 57.4 114.7 73.2 0 0 48-102.8 0c-2.4-4.9-10.8-21.7-25.2-50.3L192 352c30.4 22.8 46.4 34.8 48 36l0 156-48 0 0-132-92.8-69.6C77 325.8 64 299.7 64 272l0-160zm80 204l0-156-32 0 0 112c0 12.6 5.9 24.4 16 32l16 12zM64 369.6c3.5 3.5 7.2 6.8 11 9.9l37 29.6 0 135-48 0 0-174.4z"/></svg>