<svg xmlns="http://www.w3.org/2000/svg" viewBox="0 0 576 512"><!--! Font Awesome Pro 7.0.0 by @fontawesome - https://fontawesome.com License - https://fontawesome.com/license (Commercial License) Copyright 2025 Fonticons, Inc. --><path fill="currentColor" d="M472 24a56 56 0 1 0 -112 0 56 56 0 1 0 112 0zM256 112l-16 0-6.2 14.8c-31.8 76.3-48.2 115.7-49.2 118.2l44.3 18.5C231 258.5 245.3 224 272 160l43.7 0-2.7 9.2-30.7 104.3c-8.9 30.3 9 62 39.6 70l124.7 32.5-52.5 118.2-9.7 21.9 43.9 19.5 9.7-21.9 64-144 11.5-25.8c-10.5-2.7-44.2-11.5-101-26.3l26.1-82.7c8.8 17.7 15 30.1 18.6 37.2l118.8 0 0-48-89.2 0-31.7-63.4c-14.9-29.8-45.4-48.6-78.7-48.6L256 112zm103 70.8l6.7-22.8 10.7 0c12.1 0 23.3 5.4 30.8 14.5l-41.3 130.9-32-8.3c-4.4-1.1-6.9-5.7-5.7-10L359 182.8zM309.8 390c-12-3.1-23-8.2-32.6-14.9l-9.5 26.7-99 83-18.4 15.4 30.8 36.8 18.4-15.4 104-87.2 5-4.2 2.2-6.1 11.1-31-11.9-3.1zM24 95.8l-24 0 0 48 160 0 0-48-136 0zm8 96l0 48 112 0 0-48-112 0zm-8 96l-24 0 0 48 192 0 0-48-168 0z"/></svg>