<svg xmlns="http://www.w3.org/2000/svg" viewBox="0 0 384 512"><!--! Font Awesome Pro 7.0.0 by @fontawesome - https://fontawesome.com License - https://fontawesome.com/license (Commercial License) Copyright 2025 Fonticons, Inc. --><path fill="currentColor" d="M192.4-32a56 56 0 1 1 0 112 56 56 0 1 1 0-112zm-78 416l-50 0c6-20.3 22.3-75.7 48.9-166.2-42.1 60-64.4 91.9-67 95.6l-39.3-27.5 13.8-19.7 100.9-144 7.2-10.2 127.1 0 7.2 10.2 100.9 144 13.8 19.7-39.3 27.5c-2.6-3.7-24.9-35.6-67-95.6 26.6 90.5 42.9 145.8 48.9 166.1l-64 0 0 160-48 0 0-160-32 0 0 160-48 0 0-160-14 0zm14.1-48l127.7 0-51.8-176-24.2 0-51.8 176z"/></svg>