<svg xmlns="http://www.w3.org/2000/svg" viewBox="0 0 448 512"><!--! Font Awesome Pro 7.0.0 by @fontawesome - https://fontawesome.com License - https://fontawesome.com/license (Commercial License) Copyright 2025 Fonticons, Inc. --><path fill="currentColor" d="M248 24a56 56 0 1 0 -112 0 56 56 0 1 0 112 0zm-96 80l-24 0 0 169.2c0 26.7 12.2 52 33 68.7l88.5 70.8c11.7 88.1 17.7 132.8 17.9 134.2l47.6-6.3-3.2-23.8-16-120-1.3-9.6c-1.1-.9-13.9-11.2-38.5-30.8l0-143.7c9.3 12.8 15.9 21.8 19.8 27.2l92.2 0 0 304 48 0 0-448-48 0 0 96-67.8 0-56.8-78.1-7.2-9.9-84.2 0zm56 48l0 166.1-17-13.6c-9.5-7.6-15-19.1-15-31.2l0-121.2 32 0zM122.7 404l-85 100.5-15.5 18.3 36.6 31 15.5-18.3 88-104 3-3.5c.4-1.2 2.5-7.6 6.4-19.1l-36.2-31c-1.1-.9-2.1-1.8-3.1-2.8l-9.7 29zM64 96c-5.5 0-10.9 .7-16 2-27.6 7.1-48 32.2-48 62l0 128 96 0 0-192-32 0z"/></svg>