<svg xmlns="http://www.w3.org/2000/svg" viewBox="0 0 512 512"><!--! Font Awesome Pro 7.0.0 by @fontawesome - https://fontawesome.com License - https://fontawesome.com/license (Commercial License) Copyright 2025 Fonticons, Inc. --><path fill="currentColor" d="M288.3-32a56 56 0 1 1 0 112 56 56 0 1 1 0-112zm-176 144l136.4 0c33.3 0 63.8 18.8 78.7 48.6l31.7 63.4 89.2 0 0 48-118.8 0c-3.5-7.1-9.7-19.5-18.6-37.2l-26.1 82.7c56.8 14.8 90.4 23.6 101 26.3l-11.5 25.8-64 144-9.7 21.9-43.9-19.5 9.7-21.9 52.5-118.2-124.7-32.5c-30.6-8-48.5-39.7-39.6-70l30.7-104.3 2.7-9.2-43.7 0c-26.7 64-41 98.5-43.1 103.4L56.9 244.9c1-2.5 17.4-41.9 49.2-118.2l6.2-14.8zM238 160c-.5 1.6-12.9 44-37.4 127.1-1.3 4.3 1.3 8.9 5.7 10l32 8.3 41.3-130.9c-7.5-9.1-18.8-14.5-30.8-14.5L238 160zM194 393.1l-11.1 31-2.2 6.1-5 4.2-104 87.2-18.4 15.4-30.8-36.8 18.4-15.4 99-83 9.5-26.7c9.7 6.6 20.6 11.7 32.6 14.9l11.9 3.1z"/></svg>