<svg xmlns="http://www.w3.org/2000/svg" viewBox="0 0 576 512"><!--! Font Awesome Pro 7.0.0 by @fontawesome - https://fontawesome.com License - https://fontawesome.com/license (Commercial License) Copyright 2025 Fonticons, Inc. --><path fill="currentColor" d="M527-16.9l17-17 33.9 33.9-17 17-512 512-17 17-33.9-33.9 17-17 127.1-127.1c-68.4-76.4-110-177.4-110-288l0-16 144-80 96 160-51.8 51c8.4 21.9 20.2 42.2 34.6 60.1l272-272zM220.8 289.3c-19.1-22.8-34.4-48.7-45.3-77l-11.3-29.4c14.5-14.3 30.3-29.9 47.3-46.6L158.8 48.5 80.3 92.1c2.9 92.6 38.6 177 95.8 241.9l44.7-44.7zM464.1 512c-93.3 0-179.7-29.6-250.3-79.9l34.5-34.5c58.4 39.7 128.3 63.8 203.7 66.1l43.6-78.5-87.8-52.7c-16.8 17-32.3 32.8-46.6 47.3l-29.4-11.3c-12.8-4.9-25.2-10.8-36.9-17.5l35.5-35.5c6.1 3 12.3 5.7 18.7 8.2l51-51.8 160 96-80 144-16 0z"/></svg>