<svg xmlns="http://www.w3.org/2000/svg" viewBox="0 0 576 512"><!--! Font Awesome Pro 7.0.0 by @fontawesome - https://fontawesome.com License - https://fontawesome.com/license (Commercial License) Copyright 2025 Fonticons, Inc. --><path fill="currentColor" d="M356.3 195l-51.8-51 96-160 144 80 0 16c0 238.6-193.4 432-432 432l-16 0-80-144 160-96 51 51.8c59.2-22.8 106-69.6 128.8-128.8zM168.8 332.6L81 385.3 124.6 463.8C327.1 457.5 490 294.6 496.3 92.1l-78.5-43.6-52.7 87.8c17 16.8 32.8 32.3 47.3 46.6l-11.3 29.4c-27.7 71.9-84.5 128.6-156.3 156.3l-29.4 11.3c-14.3-14.5-29.8-30.3-46.6-47.3z"/></svg>