<svg xmlns="http://www.w3.org/2000/svg" viewBox="0 0 640 512"><!--! Font Awesome Pro 7.0.0 by @fontawesome - https://fontawesome.com License - https://fontawesome.com/license (Commercial License) Copyright 2025 Fonticons, Inc. --><path fill="currentColor" d="M184.3 0l-24 0 0 149.8 48 0 0-67.9 95 95 17 17 17-17 96-96 17-17-33.9-33.9c-1 1-33 33-96 96l-78.1-78.1 67.9 0 0-48-125.8 0zM411.4 411.1l-.5 72.7 181 45.3 45.2-158.4-11.3-11.3c-168.7-168.7-442.2-168.7-610.9 0l-11.3 11.3 45.3 158.4 181-45.3-.5-72.7c58-25.7 124.1-25.7 182.1 0zM82.2 471.3L57.5 384.9c147.6-138.7 378-138.7 525.6 0l-24.7 86.4-99.3-24.8 .5-66.4-28.8-12.8c-70.4-31.2-150.7-31.2-221.1 0l-28.8 12.8 .5 66.4-99.3 24.8z"/></svg>