<svg xmlns="http://www.w3.org/2000/svg" viewBox="0 0 576 512"><!--! Font Awesome Pro 7.0.0 by @fontawesome - https://fontawesome.com License - https://fontawesome.com/license (Commercial License) Copyright 2025 Fonticons, Inc. --><path fill="currentColor" d="M448.4 544a128 128 0 1 1 0-256 128 128 0 1 1 0 256zM580.8 226.5c-10.6 10.4-24.1 23.5-40.4 39.5-14.7-9-30.7-16-47.8-20.4l20-19.5-192.1-192.1-142.1 142 131.7 131.3c-10.2 13-18.6 27.4-24.9 42.9l-129.4-129 12.5 112.1 1.3 11.6-8.4 8.2-78.7 76.9 30 30 79.1-77.3 8.1-7.9 11.3 1.3 64.4 7.1c-2 10.6-3.1 21.5-3.1 32.7 0 5.2 .3 10.3 .7 15.3l-56-6.2-87.9 86-17 16.6-80.8-80.8-17.2-17.2 17.3-17 87.6-85.7-14.7-132.3-1.3-11.5 217.1-217.1 260.4 260.4zM448.4 468a20 20 0 1 0 0 40 20 20 0 1 0 0-40zm-72-72a20 20 0 1 0 0 40 20 20 0 1 0 0-40zm72 0a20 20 0 1 0 0 40 20 20 0 1 0 0-40zm72 0a20 20 0 1 0 0 40 20 20 0 1 0 0-40zm-72-72a20 20 0 1 0 0 40 20 20 0 1 0 0-40z"/></svg>