<svg xmlns="http://www.w3.org/2000/svg" viewBox="0 0 448 512"><!--! Font Awesome Pro 7.0.0 by @fontawesome - https://fontawesome.com License - https://fontawesome.com/license (Commercial License) Copyright 2025 Fonticons, Inc. --><path fill="currentColor" d="M400 128a48 48 0 1 0 -96 0 48 48 0 1 0 96 0zM352 32a96 96 0 1 1 0 192 96 96 0 1 1 0-192zM22.5 226.3c34.1-40.6 94.6-45.9 135.2-11.8l246 208.3-29.6 55.7-307.8-99.1c-9-2.9-17.4-7.1-24.8-12.3l-7.2-5.5c-40.6-34.1-46-94.7-11.9-135.3zm100.5 22c-20.1-13.7-47.7-10.2-63.7 8.9-17 20.3-14.4 50.6 5.9 67.7l0 0c4.5 3.8 9.9 6.9 16 8.8l0 0 230.8 74.3-185.1-156.8-3.9-2.9zM96 264a24 24 0 1 1 0 48 24 24 0 1 1 0-48z"/></svg>