<svg xmlns="http://www.w3.org/2000/svg" viewBox="0 0 512 512"><!--! Font Awesome Pro 7.0.0 by @fontawesome - https://fontawesome.com License - https://fontawesome.com/license (Commercial License) Copyright 2025 Fonticons, Inc. --><path fill="currentColor" d="M256 48a208 208 0 1 1 0 416 208 208 0 1 1 0-416zM478.3 383.1c21.4-37.4 33.7-80.8 33.7-127.1 0-46.4-12.4-90-34-127.5l17.3-16.6 0-95.9-95.9 0-16.8 17.5C345.3 12.2 302.1 0 256 0 209.8 0 166.4 12.3 128.9 33.7L111.9 16 16 16 16 111.9 33.7 128.9C12.3 166.4 0 209.8 0 256 0 302.1 12.2 345.3 33.5 382.6l-17.5 16.8 0 95.9 95.9 0 16.6-17.3c37.5 21.6 81.1 34 127.5 34 46.2 0 89.6-12.3 127.1-33.7l16.4 17 96.6 .7-.7-96.6-17-16.4zM256 144a112 112 0 1 1 0 224 112 112 0 1 1 0-224zm0 272a160 160 0 1 0 0-320 160 160 0 1 0 0 320z"/></svg>