<svg xmlns="http://www.w3.org/2000/svg" viewBox="0 0 640 512"><!--! Font Awesome Pro 7.0.0 by @fontawesome - https://fontawesome.com License - https://fontawesome.com/license (Commercial License) Copyright 2025 Fonticons, Inc. --><path fill="currentColor" d="M288-32c-44.2 0-80 35.8-80 80l0 100.1-168.2 154.2-7.8 7.1 0 115.9c2.3-.8 60.9-20.3 176-58.7l0 39.4-57 57-7 7 0 81.2c6.2-1.6 54.2-14.5 144-38.4l67.5 18c-16.1-17.3-29-37.5-37.9-59.8-18.5-4.9-28.3-7.6-29.6-7.9l-6.2 1.6-88.2 23.5 55.4-55.4 7-7 0-377.9c0-17.7 14.3-32 32-32s32 14.3 32 32l0 275.1c11.1-25.4 27.6-48 48-66.3l0-46 28.5 24.9c15.1-9.1 31.5-16.3 48.9-21L368 147.1 368 48c0-44.2-35.8-80-80-80zM208 213.2l0 102.8-128 42.7 0-28.1 128-117.3zM640 400a144 144 0 1 0 -288 0 144 144 0 1 0 288 0zm-73.6-51.5l-9.4 12.9-64 88-11 15.1c-4.4-4.4-22.1-22.1-53.2-53.2L417.4 400 440 377.4c5 5 17.7 17.7 38.1 38.1l53-72.9 9.4-12.9 25.9 18.8z"/></svg>