<svg xmlns="http://www.w3.org/2000/svg" viewBox="0 0 640 512"><!--! Font Awesome Pro 7.0.0 by @fontawesome - https://fontawesome.com License - https://fontawesome.com/license (Commercial License) Copyright 2025 Fonticons, Inc. --><path fill="currentColor" d="M208-32l0 128 160 0 0-128 48 0 0 128 96 0 0 48-32 0 0 64.7c-16.7 1.4-32.8 4.9-48 10.3l0-74.9-288 0 0 80c0 79.5 64.5 144 144 144 6.4 0 12.7-.4 18.9-1.2-3 17.2-6.3 49.8 5.1 88.2l0 57-48 0 0-97.5C169.3 402.7 96 321.9 96 224l0-80-32 0 0-48 96 0 0-128 48 0zM352 400a144 144 0 1 1 288 0 144 144 0 1 1 -288 0zm214.4-51.5l-25.9-18.8-9.4 12.9-53 72.9C457.7 395 445 382.3 440 377.4L417.4 400c2.8 2.8 19.9 19.9 51.3 51.3l13.2 13.2 11-15.1 64-88 9.4-12.9z"/></svg>