<svg xmlns="http://www.w3.org/2000/svg" viewBox="0 0 384 512"><!--! Font Awesome Pro 7.0.0 by @fontawesome - https://fontawesome.com License - https://fontawesome.com/license (Commercial License) Copyright 2025 Fonticons, Inc. --><path fill="currentColor" d="M2.7 160l378.5 0c1.8-5 2.7-10.4 2.7-16 0-26.5-21.5-48-48-48-3.9 0-7.6 .5-11.2 1.3 2.1-5.4 3.2-11.2 3.2-17.3 0-26.5-21.5-48-48-48-12.8 0-24.4 5-33 13.2-5-25.8-27.7-45.2-55-45.2s-49.9 19.4-55 45.2c-8.6-8.2-20.2-13.2-33-13.2-26.5 0-48 21.5-48 48 0 6.1 1.1 11.9 3.2 17.3-3.6-.9-7.4-1.3-11.2-1.3-26.5 0-48 21.5-48 48 0 5.6 1 11 2.7 16zm1.6 48l27.6 304 320 0 27.6-304-48.2 0-23.3 256-45.7 0 16.5-256-48.1 0-16.5 256-44.8 0-16.5-256-48.1 0 16.5 256-45.7 0-23.3-256-48.2 0z"/></svg>