<svg xmlns="http://www.w3.org/2000/svg" viewBox="0 0 640 512"><!--! Font Awesome Pro 7.0.0 by @fontawesome - https://fontawesome.com License - https://fontawesome.com/license (Commercial License) Copyright 2025 Fonticons, Inc. --><path fill="currentColor" d="M112 0L64 0 64 24c0 45.1 21.2 69 37.7 87.5l.4 .4C117.5 129.3 128 141.5 128 168l0 24 48 0 0-24c0-45.1-21.2-69-37.7-87.5l-.4-.4C122.5 62.7 112 50.5 112 24l0-24zM224 0l-48 0 0 24c0 45.1 21.2 69 37.7 87.5l.4 .4C229.5 129.3 240 141.5 240 168l0 24 48 0 0-24c0-45.1-21.2-69-37.7-87.5l-.4-.4C234.5 62.7 224 50.5 224 24l0-24zm16 464l0-20.9-26.7-13.2c-55.1-27.3-93.9-82.4-97.8-147.5l-.6-10.3 410.2 0-.6 10.3c-3.8 65.1-42.7 120.3-97.8 147.5l-26.7 13.2 0 20.9-160 0zM65.9 256l-49.9 0 0 48 53.5 0C80.2 378.6 127.4 440.9 192 472.9l0 39.1 256 0 0-39.1c64.6-32 111.8-94.3 122.5-168.9l53.5 0 0-48-49.9 0 1.9-32-512 0 1.9 32zM432 112c-50.7 0-93.6 33.7-107.4 80l214.7 0c-13.8-46.3-56.6-80-107.4-80z"/></svg>