<svg xmlns="http://www.w3.org/2000/svg" viewBox="0 0 448 512"><!--! Font Awesome Pro 7.0.0 by @fontawesome - https://fontawesome.com License - https://fontawesome.com/license (Commercial License) Copyright 2025 Fonticons, Inc. --><path fill="currentColor" d="M24 0l-24 0 0 320 48 0 0-96 78.1 0 128 128-107.8 107.8-17 17 33.9 33.9 17-17 107.8-107.8 107.8 107.8 17 17 33.9-33.9-17-17-107.8-107.8 107.8-107.8 17-17-33.9-33.9-17 17-107.8 107.8-95.3-95.3C246.6 214.7 288 168.2 288 112 288 50.1 237.9 0 176 0L24 0zM176 176l-128 0 0-128 128 0c35.3 0 64 28.7 64 64s-28.7 64-64 64z"/></svg>