<svg xmlns="http://www.w3.org/2000/svg" viewBox="0 0 640 512"><!--! Font Awesome Pro 7.0.0 by @fontawesome - https://fontawesome.com License - https://fontawesome.com/license (Commercial License) Copyright 2025 Fonticons, Inc. --><path fill="currentColor" d="M364.6 48l-204.1 0 0 96-48 0 0-144 272 0 80 80 0 64-48 0 0-44.1-51.9-51.9zM272.6 368l-96.2 0 0 96 132 0c16 20.3 36.6 36.8 60.2 48l-240.2 0 0-96-96 0 0-224 408 0 0 .1c-45.7 0-87.2 18.3-117.5 47.9l-242.5 0 0 128 48 0 0-48 148.8 0c-3.1 12.8-4.8 26.3-4.8 40.1 0 2.6 .1 5.3 .2 7.9zm167.8 64.1a72 72 0 1 0 0-144 72 72 0 1 0 0 144zm0 48c-66.3 0-120-53.7-120-120s53.7-120 120-120 120 53.7 120 120c0 24.5-7.3 47.2-19.9 66.2 47.9 47.9 73.8 73.8 77.8 77.8L584.4 538c-4-4-29.9-29.9-77.8-77.8-19 12.6-41.7 19.9-66.2 19.9z"/></svg>