<svg xmlns="http://www.w3.org/2000/svg" viewBox="0 0 576 512"><!--! Font Awesome Pro 7.0.0 by @fontawesome - https://fontawesome.com License - https://fontawesome.com/license (Commercial License) Copyright 2025 Fonticons, Inc. --><path fill="currentColor" d="M376-8l0 80-48 0 0-104 48 0 0 24zM225 15c30.5 30.5 49.5 49.5 57 57l-33.9 33.9-57-57-17-17 33.9-33.9 17 17zM513 49c-30.5 30.5-49.5 49.5-57 57L422.1 72c7.5-7.5 26.5-26.5 57-57l17-17 33.9 33.9-17 17zM352 352a96 96 0 1 0 0-192 96 96 0 1 0 0 192zm0 48c-79.5 0-144-64.5-144-144 0-5.4 .3-10.7 .9-16l-160.9 0 0 192 480 0 0-192-32.9 0c.6 5.3 .9 10.6 .9 16 0 79.5-64.5 144-144 144zm0-288c56.5 0 105.5 32.6 129 80l95 0 0 288-64 0 0 32-48 0 0-32-352 0 0 32-48 0 0-32-64 0 0-288 223 0c23.6-47.4 72.5-80 129-80zM80 272l96 0 0 48-96 0 0-48zm112 80l0 48-112 0 0-48 112 0z"/></svg>