<svg xmlns="http://www.w3.org/2000/svg" viewBox="0 0 512 512"><!--! Font Awesome Pro 7.0.0 by @fontawesome - https://fontawesome.com License - https://fontawesome.com/license (Commercial License) Copyright 2025 Fonticons, Inc. --><path fill="currentColor" d="M24 0l-24 0 0 160 48 0 0-112 112 0 0-48-136 0zM376 0l-24 0 0 48 112 0 0 112 48 0 0-160-136 0zM48 376l0-24-48 0 0 160 160 0 0-48-112 0 0-88zm464 0l0-24-48 0 0 112-112 0 0 48 160 0 0-136zM144 144l48 0 0 48-48 0 0-48zM96 96l0 144 144 0 0-144-144 0zm224 48l48 0 0 48-48 0 0-48zM272 96l0 144 144 0 0-144-144 0zM192 320l0 48-48 0 0-48 48 0zm-48-48l-48 0 0 144 144 0 0-144-96 0zm184 0l-56 0 0 56 56 0 0-56zm-56 88l0 56 56 0 0-56-56 0zm144-88l-56 0 0 56 56 0 0-56zm-56 88l0 56 56 0 0-56-56 0z"/></svg>