<svg xmlns="http://www.w3.org/2000/svg" viewBox="0 0 576 512"><!--! Font Awesome Pro 7.0.0 by @fontawesome - https://fontawesome.com License - https://fontawesome.com/license (Commercial License) Copyright 2025 Fonticons, Inc. --><path fill="currentColor" d="M0 96C0 43 43 0 96 0l32 0 0 48-32 0C69.5 48 48 69.5 48 96l96 0 0 144-144 0 0-144zm48 48l0 48 48 0 0-48-48 0zM176 96c0-53 43-96 96-96l32 0 0 48-32 0c-26.5 0-48 21.5-48 48l96 0 0 144-144 0 0-144zm48 72l0 24 48 0 0-48-48 0 0 24zM576 416c0 53-43 96-96 96l-32 0 0-48 32 0c26.5 0 48-21.5 48-48l-96 0 0-144 144 0 0 144zm-48-48l0-48-48 0 0 48 48 0zM400 416c0 53-43 96-96 96l-32 0 0-48 32 0c26.5 0 48-21.5 48-48l-96 0 0-144 144 0 0 144zm-48-72l0-24-48 0 0 48 48 0 0-24z"/></svg>