<svg xmlns="http://www.w3.org/2000/svg" viewBox="0 0 448 512"><!--! Font Awesome Pro 7.0.0 by @fontawesome - https://fontawesome.com License - https://fontawesome.com/license (Commercial License) Copyright 2025 Fonticons, Inc. --><path fill="currentColor" d="M448 296c0 66.3-53.7 120-120 120l-40 0 0-48 40 0c39.8 0 72-32.2 72-72l0-8-144 0 0-192 192 0 0 200zm-48-56l0-96-96 0 0 96 96 0zM48 240l96 0 0-96-96 0 0 96zm144-48l0 104c0 66.3-53.7 120-120 120l-40 0 0-48 40 0c39.8 0 72-32.2 72-72l0-8-144 0 0-192 192 0 0 96z"/></svg>