<svg xmlns="http://www.w3.org/2000/svg" viewBox="0 0 512 512"><!--! Font Awesome Pro 7.0.0 by @fontawesome - https://fontawesome.com License - https://fontawesome.com/license (Commercial License) Copyright 2025 Fonticons, Inc. --><path fill="currentColor" d="M224 0L203.2 0c-1.8 12.8-4.1 28.4-6.7 47-7.8 54.3 8.4 108.9 43.5 150.1l0 20.6c-66.8 20.7-119.8 73-141.4 139.4-8.2-3.3-17.2-5.1-26.6-5.1-39.8 0-72 32.2-72 72s32.2 72 72 72c5.5 0 10.9-.6 16-1.8l0 17.8 421.8 0C487 474 452.4 416.3 385 304l87 0 0-124.3-8.8-7.2-59.1-48.2c-6.1-4.9-12.5-9.3-19.3-13 10.8-26.9 14.5-56.5 10.3-86l-3.6-25.4-40 0-11.1 11c-5.8 5.7-11.1 11.9-15.8 18.3 14.7 21.4 25.1 45.4 30.7 70.4-8.4-2.1-17-3.4-25.7-3.7-8.2-29.3-23.8-56.6-46.2-78.8-7.5-7.4-13.3-13.2-17.4-17.3-2.9 0-16.9 0-41.9 0zM88.7 406.7c-.4 5.7-.7 11.4-.7 17.3l0 17.9c-4.2 3.8-9.9 6.1-16 6.1-13.3 0-24-10.7-24-24s10.7-24 24-24c6.5 0 12.4 2.6 16.7 6.7zm231.3 31l0 26.3-184 0 0-40c0-80.8 57-148.2 133-164.3l19-4 0-77.3-6.6-6.9C251.8 140.1 237.8 96.8 244 53.8l.8-5.8 1.3 0 3.4 3.4 0 0c20.4 20.2 33.2 46.2 37.2 73.7l3.8 25.9 25.5-6c2.7-.6 5.5-1 8.5-1 17.9 0 35.3 6.2 49.3 17.5l50.3 41 0 53.5-88 0 0 59.6 3.4 5.7 85.6 142.7-37.3 0-19.2-32-4-6.6c-52.6-87.6-44.4-74-45.4-75.7-28.9 27.4-57.6 54.5-86.9 82.3l87.8 0 0 5.7zM352 208a16 16 0 1 0 0-32 16 16 0 1 0 0 32z"/></svg>