<svg xmlns="http://www.w3.org/2000/svg" viewBox="0 0 512 512"><!--! Font Awesome Pro 7.0.0 by @fontawesome - https://fontawesome.com License - https://fontawesome.com/license (Commercial License) Copyright 2025 Fonticons, Inc. --><path fill="currentColor" d="M296 0L214.1 0c-1 2-7.8 15.7-20.4 40.8l-3 5.9 2.1 6.3 14.2 42.5-33.6 41.4-5.4 6.6 0 66.4c1.5 .4 32.7 9.8 93.7 28.1l45 30 6 4 46.5 0 6-4 45-30c61-18.3 92.2-27.7 93.7-28.1l0-65.9-4.8-6.4-33.4-44.5 13.3-40 2.1-6.3-3-5.9C465.7 15.6 458.9 2 457.9 0L296 0zM216 160.5l24.5-30.2 38.8-23.3c14.4-8.6 32.9-.4 36.2 16 1.8 8.9-1.5 18-8.6 23.7l-49.6 39.7-41.2-12.4 0-13.6zM336 93.1c-11.4-14.5-29.5-22.5-47.8-21.4L307.4 48 372 48 390.4 72.5c-20.6-3.8-41.6 4.4-54.4 20.6zm0 69.5c2.6 3.4 5.7 6.5 9.1 9.2l35.4 28.3-20.6 13.8C358.8 201.6 348.5 192 336 192s-22.8 9.6-23.9 21.9l-20.6-13.8 35.4-28.3c3.4-2.7 6.5-5.8 9.1-9.2zm78.8 23.9l-49.6-39.7c-7.1-5.7-10.4-14.8-8.6-23.7 3.3-16.4 21.9-24.7 36.2-16l42.9 25.7 20.4 27.2 0 14.1-41.2 12.4zM144 244.4L144 32 0 32 0 392c0 66.3 53.7 120 120 120l360 0 0-56c0-39.8-32.2-72-72-72l-24 0 0 48 24 0c13.3 0 24 10.7 24 24l0 8-80 0 0-8c0-39.8-32.2-72-72-72l-72 0 0 48 72 0c13.3 0 24 10.7 24 24l0 8-184 0c-39.8 0-72-32.2-72-72l0-32 34.4 0c-1.6 10.4-2.4 21.1-2.4 32l0 24 48 0 0-24c0-54.6 27.3-102.8 69.1-131.7-14.6-4.4-32.3-9.7-53.1-15.9zM96 311.9l-.1 .1-47.9 0 0-48 48 0 0 47.9zM96 216l-48 0 0-48 48 0 0 48zm0-96l-48 0 0-40 48 0 0 40zM332.7 323.6c-49.9-31.2-78.1-48.8-84.4-52.7l-25.4 40.7c6.3 3.9 34.4 21.5 84.4 52.7l25.4-40.7zm102.6-40l-64 40 25.4 40.7c49.9-31.2 78.1-48.8 84.4-52.7l-25.4-40.7-20.4 12.7zM288 144a16 16 0 1 0 0-32 16 16 0 1 0 0 32zm112-16a16 16 0 1 0 -32 0 16 16 0 1 0 32 0z"/></svg>