<svg xmlns="http://www.w3.org/2000/svg" viewBox="0 0 576 512"><!--! Font Awesome Pro 7.0.0 by @fontawesome - https://fontawesome.com License - https://fontawesome.com/license (Commercial License) Copyright 2025 Fonticons, Inc. --><path fill="currentColor" d="M405.1-7.8c38.3 1.7 75.1 15.9 103.2 44l5.4 5.7C540 71.1 552.4 108.6 552.4 147l-.2 9.7c-2.6 48.9-24.8 99.1-64.3 138.6-68 68-171.2 86.2-240.9 36l-68.6 68.6 24 24-121.9 121.9-81.9-81.9 121.9-121.9 24 24 68.6-68.6c-17.8-24.9-27.1-54.4-28.4-84.8l-.2-7.7c0-51.9 22.4-106.2 64.6-148.4S345.5-8 397.4-8l7.7 .2zM66.4 464l14.1 14.1 54.1-54.1-14.1-14.1-54.1 54.1zm331-424C359.1 40 316.8 56.7 283 90.5S232.4 166.7 232.4 205l.1 5.6c1.2 27.8 11.3 52.8 29.9 71.4 44.4 44.4 129.9 41.1 191.4-20.5 31.7-31.7 48.4-70.9 50.3-107.2l.2-7.2c0-28.1-9-53.7-26.4-73.2l-3.6-3.8C455.8 51.5 430.8 41.3 403 40.1l-5.6-.1z"/></svg>