<svg xmlns="http://www.w3.org/2000/svg" viewBox="0 0 576 512"><!--! Font Awesome Pro 7.0.0 by @fontawesome - https://fontawesome.com License - https://fontawesome.com/license (Commercial License) Copyright 2025 Fonticons, Inc. --><path fill="currentColor" d="M242.7 432l-194.7 0 0-176 257 0c33.8-29.9 78.3-48 127-48l-432 0 0 272 257.4 0c-6.9-15.1-11.9-31.2-14.8-48zM464 152l0-48-416 0 0 48 416 0zM416 48l0-48-320 0 0 48 320 0zM576 400a144 144 0 1 0 -288 0 144 144 0 1 0 288 0zm-64.5 78.9C491.2 499.4 463.1 512 432 512s-59.2-12.6-79.5-33.1l15.5-30.9 128 0 15.5 30.9zM384 368a48 48 0 1 1 96 0 48 48 0 1 1 -96 0z"/></svg>