<svg xmlns="http://www.w3.org/2000/svg" viewBox="0 0 512 512"><!--! Font Awesome Pro 7.0.0 by @fontawesome - https://fontawesome.com License - https://fontawesome.com/license (Commercial License) Copyright 2025 Fonticons, Inc. --><path fill="currentColor" d="M392 208l8-8c52.7-52.7 87.4-87.4 104-104-16.6-16.6-51.3-51.3-104-104l-8-8-40 0 0 88-352 0 0 216 48 0 0-168 304 0 0 88 40 0zm8-75.9l0-72.2 36.1 36.1-36.1 36.1zM160 440l352 0 0-216-48 0 0 168-304 0 0-88-40 0-8 8c-52.7 52.7-87.4 87.4-104 104 16.6 16.6 51.3 51.3 104 104l8 8 40 0 0-88zM75.9 416l36.1-36.1 0 72.2-36.1-36.1z"/></svg>