<svg xmlns="http://www.w3.org/2000/svg" viewBox="0 0 576 512"><!--! Font Awesome Pro 7.0.0 by @fontawesome - https://fontawesome.com License - https://fontawesome.com/license (Commercial License) Copyright 2025 Fonticons, Inc. --><path fill="currentColor" d="M24 64l-24 0 0 48 32 0 0 40-32 0 0 48 32 0 0 32-32 0 0 48 32 0 0 32-32 0 0 48 32 0 0 40-32 0 0 48 576 0 0-48-32 0 0-40 32 0 0-48-32 0 0-32 32 0 0-48-32 0 0-32 32 0 0-48-32 0 0-40 32 0 0-48-552 0zm56 48l48 0 0 288-48 0 0-288zM400 400l-224 0 0-288 224 0 0 288zm48 0l0-288 48 0 0 288-48 0z"/></svg>