<svg xmlns="http://www.w3.org/2000/svg" viewBox="0 0 448 512"><!--! Font Awesome Pro 7.0.0 by @fontawesome - https://fontawesome.com License - https://fontawesome.com/license (Commercial License) Copyright 2025 Fonticons, Inc. --><path fill="currentColor" d="M0 32l120 0c75.1 0 136 60.9 136 136 0 54.4-32 101.4-78.1 123.1l45.2 158.3 6.6 23.1-46.2 13.2-6.6-23.1-45.4-159.1c-3.8 .3-7.6 .5-11.5 .5l-72 0 0 176-48 0 0-448zM48 256l72 0c48.6 0 88-39.4 88-88s-39.4-88-88-88l-72 0 0 176zm293.5-32l74.5 0 0 48-74.5 0c-11.9 0-21.5 9.6-21.5 21.5 0 9.2 5.8 17.4 14.5 20.3l63.4 21.8c29.9 10.3 50.1 38.5 50.1 70.1 0 41-33.2 74.2-74.2 74.2l-85.8 0 0-48 85.8 0c14.5 0 26.2-11.7 26.2-26.2 0-11.2-7.1-21.1-17.7-24.8l-63.4-21.8c-28.1-9.7-46.9-36.1-46.9-65.7 0-38.4 31.1-69.5 69.5-69.5z"/></svg>