<svg xmlns="http://www.w3.org/2000/svg" viewBox="0 0 640 512"><!--! Font Awesome Pro 7.0.0 by @fontawesome - https://fontawesome.com License - https://fontawesome.com/license (Commercial License) Copyright 2025 Fonticons, Inc. --><path fill="currentColor" d="M520 48L393.3 48C381 19.7 352.8 0 320 0s-61 19.7-73.3 48L96 48 96 96 241.6 96c5.8 28.6 26.9 51.7 54.4 60.3l0 307.7-200 0 0 48 448 0 0-48-200 0 0-307.7c27.5-8.6 48.6-31.7 54.4-60.3l145.6 0 0-48-24 0zM97.5 128l-6.7 12.9-88 168-2.7 5.2 0 47.8 7 7 40 40 7 7 147.9 0 7-7 40-40 7-7 0-47.8-2.7-5.2-88-168-6.7-12.9-61 0zm29 48l3 0 75.4 144-153.8 0 75.4-144zM496 128l-14.5 0-6.7 12.9-88 168-2.7 5.2 0 47.8 7 7 40 40 7 7 147.9 0 7-7 40-40 7-7 0-47.8-2.7-5.2-88-168-6.7-12.9-46.5 0zM435.1 320l75.4-144 3 0 75.4 144-153.8 0zM320 48a32 32 0 1 1 0 64 32 32 0 1 1 0-64z"/></svg>