<svg xmlns="http://www.w3.org/2000/svg" viewBox="0 0 576 512"><!--! Font Awesome Pro 7.0.0 by @fontawesome - https://fontawesome.com License - https://fontawesome.com/license (Commercial License) Copyright 2025 Fonticons, Inc. --><path fill="currentColor" d="M112 256l0 224 144 0 32-224 48 0c19.8-138.7 30.5-213.3 32-224L112 32C50.1 32 0 82.1 0 144S50.1 256 112 256zm0-48c-35.3 0-64-28.7-64-64s28.7-64 64-64l200.7 0-18.3 128-182.4 0zm127.5 48l-25.1 176-54.4 0 0-176 79.5 0zM576 32l-160 0 0 48 160 0 0-48zm0 160l-160 0 0 48 160 0 0-48zM416 432l0 48 160 0 0-48-160 0zM576 128l-160 0 0 32 160 0 0-32zM416 288l0 32 160 0 0-32-160 0zm160 64l-160 0 0 32 160 0 0-32z"/></svg>