<svg xmlns="http://www.w3.org/2000/svg" viewBox="0 0 576 512"><!--! Font Awesome Pro 7.0.0 by @fontawesome - https://fontawesome.com License - https://fontawesome.com/license (Commercial License) Copyright 2025 Fonticons, Inc. --><path fill="currentColor" d="M288 1.4L302.9 13.2 448.3 128 576 128 576 512 0 512 0 128 127.7 128 273.1 13.2 288 1.4zm0 61.2l-137.1 108.3-6.5 5.2-96.3 0 0 288 176 0 0-128 128 0 0 128 176 0 0-288-96.3 0-6.5-5.2-137.1-108.3zM96 416l0-64 64 0 0 64-64 0zm64-128l-64 0 0-64 64 0 0 64zM416 416l0-64 64 0 0 64-64 0zm64-128l-64 0 0-64 64 0 0 64zM288 128a64 64 0 1 1 0 128 64 64 0 1 1 0-128z"/></svg>