<svg xmlns="http://www.w3.org/2000/svg" viewBox="0 0 640 512"><!--! Font Awesome Pro 7.0.0 by @fontawesome - https://fontawesome.com License - https://fontawesome.com/license (Commercial License) Copyright 2025 Fonticons, Inc. --><path fill="currentColor" d="M96 384a64 64 0 1 0 0-128 64 64 0 1 0 0 128zm96 128l-32-96-128 0-32 96 192 0zM320 384a64 64 0 1 0 0-128 64 64 0 1 0 0 128zm96 128l-32-96-128 0-32 96 192 0zM608 320a64 64 0 1 0 -128 0 64 64 0 1 0 128 0zm0 96l-128 0-32 96 192 0-32-96zM528 48l-416 0 0 161.1c-5.2-.7-10.6-1.1-16-1.1-11.1 0-21.9 1.6-32 4.6L64 0 576 0 576 212.6c-10.1-3-20.9-4.6-32-4.6-5.4 0-10.8 .4-16 1.1L528 48zM96 304c8.8 0 16 7.2 16 16l-16 0 0 16c-8.8 0-16-7.2-16-16s7.2-16 16-16zm448 32l0-16-16 0c0-8.8 7.2-16 16-16s16 7.2 16 16-7.2 16-16 16z"/></svg>