<svg xmlns="http://www.w3.org/2000/svg" viewBox="0 0 576 512"><!--! Font Awesome Pro 7.0.0 by @fontawesome - https://fontawesome.com License - https://fontawesome.com/license (Commercial License) Copyright 2025 Fonticons, Inc. --><path fill="currentColor" d="M48 120l0 40 64 0 0-80-24 0c-22.1 0-40 17.9-40 40zM160 80l0 148.5c21.9 17.5 40.1 32.1 54.4 43.5-14.4 11.5-32.5 26-54.4 43.5l0 116.5 24 0c22.1 0 40-17.9 40-40l0-88 107.5 0c3.8 4.7 10.6 13.3 20.5 25.6 9.8-12.3 16.7-20.8 20.5-25.6l27.5 0 0-68.5c-21.9-17.5-40.1-32.1-54.4-43.5 14.4-11.5 32.5-26 54.4-43.5l0-28.5c0-22.1-17.9-40-40-40L160 80zM448 304l96 0 0 88c0 48.6-39.4 88-88 88l-264 0 0-.4c-2.6 .2-5.3 .4-8 .4l-72 0 0-187.5c4.7-3.8 13.3-10.6 25.6-20.5-12.3-9.8-20.8-16.7-25.6-20.5l0-43.5-112 0 0-88C0 74.1 35.1 36.4 80 32.4l0-.4 280 0c48.6 0 88 39.4 88 88l0 51.5c-4.7 3.8-13.3 10.6-25.6 20.5 12.3 9.8 20.8 16.7 25.6 20.5l0 91.5zm8 128c22.1 0 40-17.9 40-40l0-40-100.5 0c-17.5 21.9-32 40.1-43.5 54.4-11.5-14.4-26-32.5-43.5-54.4l-36.5 0 0 40c0 14.4-3.5 28-9.6 40L456 432z"/></svg>