<svg xmlns="http://www.w3.org/2000/svg" viewBox="0 0 512 512"><!--! Font Awesome Pro 7.0.0 by @fontawesome - https://fontawesome.com License - https://fontawesome.com/license (Commercial License) Copyright 2025 Fonticons, Inc. --><path fill="currentColor" d="M289.9 33.9L320 64 448 64 448 192c19.4 19.4 40.7 40.7 64 64-23.3 23.3-44.6 44.6-64 64l0 128-128 0c-19.4 19.4-40.7 40.7-64 64-23.3-23.3-44.6-44.6-64-64l-128 0 0-128c-19.4-19.4-40.7-40.7-64-64 23.3-23.3 44.6-44.6 64-64l0-128 128 0c19.4-19.4 40.7-40.7 64-64l33.9 33.9zM320 112l-19.9 0c-6.7-6.7-21.4-21.4-44.1-44.1-22.7 22.7-37.4 37.4-44.1 44.1l-99.9 0 0 99.9c-6.7 6.7-21.4 21.4-44.1 44.1 22.7 22.7 37.4 37.4 44.1 44.1l0 99.9 99.9 0c6.7 6.7 21.4 21.4 44.1 44.1 22.7-22.7 37.4-37.4 44.1-44.1l99.9 0 0-99.9c6.7-6.7 21.4-21.4 44.1-44.1-22.7-22.7-37.4-37.4-44.1-44.1l0-99.9-80 0zm-64 69.2c-17.7 0-32 14.3-32 32l-42.4 0c0-41.1 33.3-74.4 74.4-74.4s74.4 33.3 74.4 74.4c0 33.5-22.8 59-53.2 69.6l0 18.3-42.4 0 0-53.5 3.3-.5c21.1-3 49.9-7.1 49.9-34 0-17.7-14.3-32-32-32zM232 328l48 0 0 48-48 0 0-48z"/></svg>