<svg xmlns="http://www.w3.org/2000/svg" viewBox="0 0 512 512"><!--! Font Awesome Pro 7.0.0 by @fontawesome - https://fontawesome.com License - https://fontawesome.com/license (Commercial License) Copyright 2025 Fonticons, Inc. --><path fill="currentColor" d="M232 60.8l0 386.5C165.1 409.5 123.2 353.1 97.9 294.8 71 232.9 63.1 169.5 64.1 126L232 60.8zm48 386.5L280 60.8 448 126c1 43.5-6.9 106.9-33.8 168.8-25.3 58.3-67.2 114.7-134.1 152.6zM495.5 113L494.3 92.5 475.1 85 267.6 4.5 256 0 244.5 4.5 37 85 17.8 92.5 16.6 113c-2.9 49.9 4.9 126.3 37.3 200.9 32.7 75.2 91 150 189.4 192.6l12.7 5.5 12.7-5.5c98.4-42.6 156.7-117.3 189.4-192.6 32.4-74.7 40.2-151 37.3-200.9z"/></svg>