<svg xmlns="http://www.w3.org/2000/svg" viewBox="0 0 512 512"><!--! Font Awesome Pro 7.1.0 by @fontawesome - https://fontawesome.com License - https://fontawesome.com/license (Commercial License) Copyright 2025 Fonticons, Inc. --><path fill="currentColor" d="M267.6 4.5l207.5 80.5 19.2 7.4 1.2 20.5c2.9 50-4.9 126.3-37.3 200.9-32.7 75.2-91.1 150-189.4 192.5l-12.7 5.5-12.7-5.5C144.9 463.9 86.6 389.2 53.9 313.9 21.5 239.3 13.7 162.9 16.6 113L17.8 92.5 37 85 244.5 4.5 256 0 267.6 4.5zM64.1 126C63.1 169.5 71 232.9 97.9 294.8 126.1 359.7 175 422.4 256 459.6 337.1 422.4 385.9 359.7 414.2 294.8 441 232.9 449 169.5 448 126L256 51.5 64.1 126zm302.3 44.7L352.3 190.1 249.8 330.9 233 354c-8.8-9.1-30.9-32-66.2-68.6l-16.7-17.3 34.5-33.3c9.5 9.8 23.9 24.7 43.2 44.7l85.6-117.7 14.1-19.4 38.8 28.2z"/></svg>