<svg xmlns="http://www.w3.org/2000/svg" viewBox="0 0 512 512"><!--! Font Awesome Pro 7.0.0 by @fontawesome - https://fontawesome.com License - https://fontawesome.com/license (Commercial License) Copyright 2025 Fonticons, Inc. --><path fill="currentColor" d="M24 32l-24 0 0 144 65 0c9.8 98.8 93.1 176 194.5 176l77.3 0c17.3 0 31.2 14 31.2 31.2 0 22-22.1 37.1-42.6 29.1-51.8-20.2-85.6-33.3-101.4-39.4l0 107.1 112 0c97.2 0 176-78.8 176-176S433.2 128 336 128l-288 0 0-48 376 0 0-48-400 0zM259.5 304c-74.8 0-136.7-55.8-146.2-128l182.7 0 0 128-36.5 0zm84.5 .3l0-128.1c39.7 2.4 74.5 23 96.3 53.5L362 308.1c-5.7-1.9-11.7-3.2-18-3.8zm57 32.6l60.1-60.1c1.9 8.8 2.9 17.8 2.9 27.2 0 42-20.2 79.3-51.4 102.6 2.2-7.3 3.4-15.1 3.4-23.4 0-17.3-5.5-33.3-15-46.3zM224 248a24 24 0 1 0 0-48 24 24 0 1 0 0 48z"/></svg>