<svg xmlns="http://www.w3.org/2000/svg" viewBox="0 0 640 512"><!--! Font Awesome Pro 7.0.0 by @fontawesome - https://fontawesome.com License - https://fontawesome.com/license (Commercial License) Copyright 2025 Fonticons, Inc. --><path fill="currentColor" d="M81.2-16.9l-17-17-33.9 33.9 17 17 512 512 17 17 33.9-33.9c-1-1-33-33-96.1-96.1l126 0 0-48-174 0-48-48 158 0 0-48-125.9 0c21.1-59.1 36-100.8 44.7-125.1-16 5-75.7 23.4-178.9 55.4 2.7-22 4.1-44.2 4.1-66.4l0-7.9c0-53-43-96-96-96-26 0-49.6 10.3-66.9 27.1l-76-76zM191.1 93.1c8.6-8.1 20.2-13.1 32.9-13.1 26.5 0 48 21.5 48 48l0 7.9c0 12.3-.5 24.5-1.4 36.7L191.1 93.1zM342.3 244.3l74.9-23.2-23.9 66.8-2 5.5-49.1-49.1zM200.2 238l-87.3 27-16.9 5.2 0 97.7-96 0 0 48 96 0 0 64 109.6 0c.9-1.6 13-21.7 36.2-60.4 18.1-30.2 33.1-62 45-95l-38-38c-11.6 37.9-27.8 74.2-48.2 108.2l-22.3 37.1-34.4 0 0-126.3 94.6-29.3-38.4-38.4zm130 130l-8.7 0c-6.8 16.3-14.3 32.3-22.6 48l79.3 0-48-48z"/></svg>