<svg xmlns="http://www.w3.org/2000/svg" viewBox="0 0 576 512"><!--! Font Awesome Pro 7.0.0 by @fontawesome - https://fontawesome.com License - https://fontawesome.com/license (Commercial License) Copyright 2025 Fonticons, Inc. --><path fill="currentColor" d="M496 288l-59.3 0c-22.6 19.9-52.2 32-84.7 32s-62.1-12.1-84.7-32L32 288 32 144C32 64.5 96.5 0 176 0 203.2 0 228.6 7.5 250.3 20.6 270.4 7.6 294.3 0 320 0 367.4 0 408.7 25.7 430.9 64l1.1 0c61.9 0 112 50.1 112 112l0 112-48 0zM176 240l109.5 0 13.6 12c14.1 12.5 32.6 20 52.9 20s38.8-7.5 52.9-20l13.6-12 77.5 0 0-64c0-35.3-28.6-63.9-63.9-64l-1 0-27.8 .1-13.9-24.1c-13.9-24-39.8-40-69.3-40-16.1 0-31 4.7-43.5 12.9l-25.2 16.4-25.8-15.5C211.1 53 194.2 48 176 48 123 48 80 91 80 144l0 96 96 0zM512 368l0 48-512 0 0-48 512 0zM64 464l128 0 0 48-128 0 0-48zm176 0l336 0 0 48-336 0 0-48z"/></svg>