<svg xmlns="http://www.w3.org/2000/svg" viewBox="0 0 576 512"><!--! Font Awesome Pro 7.0.0 by @fontawesome - https://fontawesome.com License - https://fontawesome.com/license (Commercial License) Copyright 2025 Fonticons, Inc. --><path fill="currentColor" d="M468.7 268l-.7 .2c-13.2 6.7-28 10.8-43.6 11.7l-53.8 14.4-66.2-38.2 26-15c-10.3-12.2-18-26.7-22.3-42.6l-27.7 16 0-76.5 55.6-55.6 12.6-24.1-28.2-28.2c-10.3 10.3-23.6 23.6-40 40l0-102.1-48 0 0 102.1-40-40-33.9 33.9 73.9 73.9 0 76.5-66.2-38.2c-16.3-61-25.4-94.7-27.1-101L92.7 87.6c3.8 14.1 8.7 32.3 14.6 54.6l-88.4-51-24 41.6 88.4 51c-22.4 6-40.6 10.9-54.6 14.6l12.4 46.4c6.3-1.7 40-10.7 101-27.1l66.2 38.2-66.2 38.2c-61-16.3-94.7-25.4-101-27.1L28.7 313.5c14.1 3.8 32.3 8.7 54.6 14.6-52.9 30.5-82.3 47.5-88.4 51l24 41.6c6.1-3.5 35.5-20.5 88.4-51-6 22.4-10.9 40.6-14.6 54.6l46.4 12.4c1.7-6.3 10.7-40 27.1-101l66.2-38.2 0 76.5c-44.7 44.7-69.3 69.3-73.9 73.9l33.9 33.9c10.3-10.3 23.6-23.6 40-40l0 102.1 48 0 0-102.1c16.4 16.4 29.7 29.7 40 40L354.4 448c-4.6-4.6-29.3-29.3-73.9-73.9l0-76.5 66.2 38.2c16.3 61 25.4 94.7 27.1 101l26.8-7.2c0-1.2-.1-2.5-.1-3.8 0-17.7 4.3-35.2 12.5-50.9l55.8-107zm4.6-126.8l-57-109.2-57 109.2c-4.6 8.9-7 18.7-7 28.7 0 34.3 27.8 62.1 62.1 62.1l3.8 0c34.3 0 62.1-27.8 62.1-62.1 0-10-2.4-19.9-7-28.7zm39 146.8l-57 109.2c-4.6 8.9-7 18.7-7 28.7 0 34.3 27.8 62.1 62.1 62.1l3.8 0c34.3 0 62.1-27.8 62.1-62.1 0-10-2.4-19.9-7-28.7L512.4 288z"/></svg>