<svg xmlns="http://www.w3.org/2000/svg" viewBox="0 0 512 512"><!--! Font Awesome Pro 7.0.0 by @fontawesome - https://fontawesome.com License - https://fontawesome.com/license (Commercial License) Copyright 2025 Fonticons, Inc. --><path fill="currentColor" d="M309.8 62l-10-21.8-43.6 20c3.8 8.3 16.2 35.4 37.2 81.3l-50.8 82.5-186.6 0-24 0 0 112c-19.4 14.6-32 37.8-32 64 0 44.2 35.8 80 80 80l160 0c44.2 0 80-35.8 80-80 0-11.4-2.4-22.2-6.7-32l51.6 0 29.5 64-43.5 0 0 48 161 0 0-80-48 0 0 32-16.6 0-30.1-65.3C470.9 358.4 512 312 512 256l0-29.9-12.1-6.9-160-91.4-30.1-65.7zM199.9 320l-119.9 0 0-48 189.4 0 7-11.4 51.8-84.2 135.7 77.6 0 2.1c0 35.3-28.7 64-64 64l-200.1 0zM80 368l160 0c17.7 0 32 14.3 32 32s-14.3 32-32 32L80 432c-17.7 0-32-14.3-32-32s14.3-32 32-32z"/></svg>