<svg xmlns="http://www.w3.org/2000/svg" viewBox="0 0 448 512"><!--! Font Awesome Pro 7.0.0 by @fontawesome - https://fontawesome.com License - https://fontawesome.com/license (Commercial License) Copyright 2025 Fonticons, Inc. --><path fill="currentColor" d="M336 144l0 48-224 0 0-48 224 0zM64 48l0 144-64 0 0 48 48.7 0C28 272.3 16 310.8 16 352 16 416.3 45.2 473.8 91.1 512l265.8 0c45.9-38.2 75.1-95.7 75.1-160 0-41.2-12-79.7-32.7-112l48.7 0 0-48-64 0 0-192-320 0 0 48zm0 304c0-43.6 17.4-83.1 45.7-112l228.5 0c28.3 28.9 45.7 68.4 45.7 112s-17.4 83.1-45.7 112l-228.5 0C81.4 435.1 64 395.6 64 352zm88-16a24 24 0 1 0 0-48 24 24 0 1 0 0 48zm168-24a24 24 0 1 0 -48 0 24 24 0 1 0 48 0zM224 448l27.8-48.7c2.7-4.8 4.2-10.2 4.2-15.7 0-17.5-14.2-31.6-31.6-31.6l-.8 0c-17.5 0-31.6 14.2-31.6 31.6 0 5.5 1.4 10.9 4.2 15.7L224 448z"/></svg>