<svg xmlns="http://www.w3.org/2000/svg" viewBox="0 0 448 512"><!--! Font Awesome Pro 7.0.0 by @fontawesome - https://fontawesome.com License - https://fontawesome.com/license (Commercial License) Copyright 2025 Fonticons, Inc. --><path fill="currentColor" d="M212 52l24 0 0 12c0 6.6-5.4 12-12 12s-12-5.4-12-12l0-12zM172 12l0 52c0 28.7 23.3 52 52 52s52-23.3 52-52l0-52-104 0zm20 436l0 32 64 0 0-32c0-17.7-14.3-32-32-32s-32 14.3-32 32zM448 256l0-32-32 0c-17.7 0-32 14.3-32 32s14.3 32 32 32l32 0 0-32zM32 220l-36 0 0 72 36 0c19.9 0 36-16.1 36-36s-16.1-36-36-36zM359.8 97.6l22.6 22.6-11.3 11.3c-6.2 6.2-16.4 6.2-22.6 0s-6.2-16.4 0-22.6l11.3-11.3zM388 69.3L359.8 41c-21.7 21.7-34.9 34.9-39.6 39.6-21.9 21.9-21.9 57.3 0 79.2s57.3 21.9 79.2 0c4.7-4.7 17.9-17.9 39.6-39.6-19.8-19.8-36.8-36.8-50.9-50.9zM65.6 369.1L43 391.8c15.1 15.1 30.2 30.2 45.3 45.3l22.6-22.6c12.5-12.5 12.5-32.8 0-45.3s-32.8-12.5-45.3 0zm316.8 45.3l22.6-22.6-22.6-22.6c-12.5-12.5-32.8-12.5-45.3 0s-12.5 32.8 0 45.3l22.6 22.6 22.6-22.6zM82.6 125.9l-5.7-5.7 11.3-11.3 5.7 5.7c3.1 3.1 3.1 8.2 0 11.3s-8.2 3.1-11.3 0zm39.6-39.6l-5.7-5.7-28.3-28.3C43 97.6 45.8 94.8 20.4 120.2l28.3 28.3 5.7 5.7c18.7 18.7 49.1 18.7 67.9 0s18.7-49.1 0-67.9z"/></svg>