<svg xmlns="http://www.w3.org/2000/svg" viewBox="0 0 576 512"><!--! Font Awesome Pro 7.0.0 by @fontawesome - https://fontawesome.com License - https://fontawesome.com/license (Commercial License) Copyright 2025 Fonticons, Inc. --><path fill="currentColor" d="M440.4-17.9c.8 .8 33.1 33.1 97 97l17 17-17 17c-63.8 63.8-96.2 96.2-97 97L406.5 176c7.6-7.6 26.3-26.3 56-56l-100.1 0-136 136 136 136 100.1 0c-29.7-29.7-48.4-48.4-56-56l33.9-33.9 17 17 80 80 17 17-17 17-80 80-17 17-33.9-33.9c7.6-7.6 26.3-26.3 56-56l-120 0-7-7-153-153-150.1 0 0-48 150.1 0 153-153 7-7 120 0c-29.7-29.7-48.4-48.4-56-56l33.9-33.9z"/></svg>