<svg xmlns="http://www.w3.org/2000/svg" viewBox="0 0 512 512"><!--! Font Awesome Pro 7.0.0 by @fontawesome - https://fontawesome.com License - https://fontawesome.com/license (Commercial License) Copyright 2025 Fonticons, Inc. --><path fill="currentColor" d="M272 160.2c0-21.1 13.5-48.9 42.7-73.3 28.6-23.9 66-38.9 101.3-38.9 26.5 0 48 21.5 48 48 0 35.2-15 72.6-38.9 101.3-24.4 29.3-52.1 42.7-73.3 42.7l-19.7 0c-6.4-6.4-21.7-21.7-46.1-46.1l-14.1-14.1 0-19.7zm13.1 100.7l27.1 27.1 39.6 0C432 288 512 192 512 96 512 43 469 0 416 0 320 0 224 80 224 160.2l0 39.6 27.1 27.1-232.9 232.9-17 17 33.9 33.9 17-17 232.9-232.9z"/></svg>