<svg xmlns="http://www.w3.org/2000/svg" viewBox="0 0 512 512"><!--! Font Awesome Pro 7.0.0 by @fontawesome - https://fontawesome.com License - https://fontawesome.com/license (Commercial License) Copyright 2025 Fonticons, Inc. --><path fill="currentColor" d="M211.1 39.3c61.5-22.8 139-30 235.7-16.3l19.6 3 16.2 2.7 3.3 16.1c17.8 86.1 18.6 213.5-41.7 311.8-30.5 49.8-76.5 91.6-142.4 116.1-65.6 24.3-149.4 30.9-255.3 13.2l-16.2-2.7-3.3-16.1C9.3 381.1 8.5 253.7 68.7 155.3 99.2 105.5 145.2 63.7 211.1 39.3zM101.5 444.9c39 3.9 73.7 3.9 104.5 .7-8.1-25.1-20.6-48.2-36.8-68.4l-67.8 67.7zM203.3 343.1c22.8 27.3 40.1 59.3 50.4 94.3 11.1-2.7 21.6-6 31.4-9.6 27.2-10.1 50.2-23.6 69.5-39.7l-98.2-98.2-53.2 53.1zM67.9 306.8c-4.5 35.8-4.3 71.7-.9 104.7l68.2-68.2c-19.9-15.9-42.7-28.4-67.4-36.5zM290.4 256L388 353.6c5.5-7.1 10.7-14.4 15.3-22 14.9-24.3 25.5-51.2 32.7-78.9-34.3-10.3-65.7-27.4-92.5-49.8L290.4 256zM124.9 158.3c-5.5 7.1-10.6 14.5-15.3 22.1-14.9 24.3-25.6 51.1-32.8 78.9 34.3 10.3 65.7 27.5 92.5 49.8l53.2-53.1-97.7-97.7zM259.2 74.6c-11.1 2.7-21.6 6-31.4 9.7-27.2 10.1-50.2 23.6-69.5 39.6l98.2 98.2 53.1-53.2c-22.8-27.3-40.1-59.3-50.4-94.3zm118.4 94.1c19.9 15.9 42.6 28.3 67.3 36.4 4.5-35.8 4.3-71.7 .9-104.7l-68.2 68.2zM411.5 67c-39-3.9-73.7-3.9-104.5-.7 8.1 25.1 20.6 48.2 36.8 68.4L411.5 67z"/></svg>