<svg xmlns="http://www.w3.org/2000/svg" viewBox="0 0 384 512"><!--! Font Awesome Pro 7.0.0 by @fontawesome - https://fontawesome.com License - https://fontawesome.com/license (Commercial License) Copyright 2025 Fonticons, Inc. --><path fill="currentColor" d="M0 0L0 115.9 19.5 119.6 128 140.2 128 91.4 48 76.1 48 0 0 0zM256 91.4l0 48.9 108.5-20.7 19.5-3.7 0-115.9-48 0 0 76.1-80 15.2zM160 344a24 24 0 1 0 -48 0 24 24 0 1 0 48 0zm-48 64c0-13.3-10.7-24-24-24s-24 10.7-24 24 10.7 24 24 24 24-10.7 24-24zM24 496c13.3 0 24-10.7 24-24s-10.7-24-24-24-24 10.7-24 24 10.7 24 24 24zM272 344a24 24 0 1 0 -48 0 24 24 0 1 0 48 0zm-80 88c13.3 0 24-10.7 24-24s-10.7-24-24-24-24 10.7-24 24 10.7 24 24 24zm-32 40c0-13.3-10.7-24-24-24s-24 10.7-24 24 10.7 24 24 24 24-10.7 24-24zm136-40c13.3 0 24-10.7 24-24s-10.7-24-24-24-24 10.7-24 24 10.7 24 24 24zm-24 40c0-13.3-10.7-24-24-24s-24 10.7-24 24 10.7 24 24 24 24-10.7 24-24zm88 24c13.3 0 24-10.7 24-24s-10.7-24-24-24-24 10.7-24 24 10.7 24 24 24zM216 56l0-24-48 0 0 176-104 0 0 48 256 0 0-48-104 0 0-152z"/></svg>