<svg xmlns="http://www.w3.org/2000/svg" viewBox="0 0 448 512"><!--! Font Awesome Pro 7.0.0 by @fontawesome - https://fontawesome.com License - https://fontawesome.com/license (Commercial License) Copyright 2025 Fonticons, Inc. --><path fill="currentColor" d="M48 80l0 352 352 0 0-352-352 0zM0 32l448 0 0 448-448 0 0-448zM288 136l32 0 0 24 32 0 0 48-52.8 0c-6.2 0-11.2 5-11.2 11.2 0 5.3 3.8 9.9 9 11l23.5 4.7c27.7 5.5 47.6 29.8 47.6 58 0 28.9-20.7 52.9-48 58.1l0 25.1-32 0 0-24-40 0 0-48 60.8 0c6.2 0 11.2-5 11.2-11.2 0-5.3-3.8-9.9-9-11l-23.5-4.7c-27.7-5.5-47.6-29.8-47.6-58 0-28.9 20.7-52.9 48-58.1l0-25.1zM137.9 160l44.2 0 4.9 17.6 53 190.4-49.8 0-6.7-24-47 0-6.7 24-49.8 0 53-190.4 4.9-17.6zM160 259.5l-10.1 36.5 20.3 0-10.1-36.5z"/></svg>