<svg xmlns="http://www.w3.org/2000/svg" viewBox="0 0 448 512"><!--! Font Awesome Pro 7.0.0 by @fontawesome - https://fontawesome.com License - https://fontawesome.com/license (Commercial License) Copyright 2025 Fonticons, Inc. --><path fill="currentColor" d="M48 80l0 352 352 0 0-352-352 0zM0 32l448 0 0 448-448 0 0-448zm208 80l32 0 0 25.1c26.3 3.5 50 15.6 68 33.2l-33.6 34.3c-9.4-9.2-21.2-15.8-34.4-18.8l0 46.2 104 0 0 24c0 60.8-45.3 111.1-104 118.9l0 25.1-32 0 0-25.1c-58.7-7.8-104-58.1-104-118.9s45.3-111.1 104-118.9l0-25.1zM152 256c0 34.3 23.9 62.9 56 70.2l0-140.4c-32.1 7.3-56 36-56 70.2zm139.9 24l-51.9 0 0 46.2c24.2-5.5 43.8-23.2 51.9-46.2z"/></svg>