<svg xmlns="http://www.w3.org/2000/svg" viewBox="0 0 448 512"><!--! Font Awesome Pro 7.0.0 by @fontawesome - https://fontawesome.com License - https://fontawesome.com/license (Commercial License) Copyright 2025 Fonticons, Inc. --><path fill="currentColor" d="M48 80l0 352 352 0 0-352-352 0zM0 32l448 0 0 448-448 0 0-448zM280 144l0 48-72 0c-13.3 0-24 10.7-24 24l0 12.1c7.5-2.7 15.6-4.1 24-4.1l32 0c39.8 0 72 32.2 72 72s-32.2 72-72 72l-32 0c-39.8 0-72-32.2-72-72l0-80c0-39.8 32.2-72 72-72l72 0zM208 320l32 0c13.3 0 24-10.7 24-24s-10.7-24-24-24l-32 0c-13.3 0-24 10.7-24 24s10.7 24 24 24z"/></svg>