<svg xmlns="http://www.w3.org/2000/svg" viewBox="0 0 448 512"><!--! Font Awesome Pro 7.0.0 by @fontawesome - https://fontawesome.com License - https://fontawesome.com/license (Commercial License) Copyright 2025 Fonticons, Inc. --><path fill="currentColor" d="M48 80l0 352 352 0 0-352-352 0zM0 32l448 0 0 448-448 0 0-448zm200 80l48 0 0 26.6c29 6.1 54.1 22.6 71.2 45.4l-38.4 28.8c-8.3-11-19.7-19.6-32.8-24.4l0 135.2c13.2-4.8 24.5-13.4 32.8-24.4L319.2 328c-17.1 22.8-42.2 39.3-71.2 45.4l0 26.6-48 0 0-26.2C144.8 363 103.2 314.3 103.2 256S144.8 149 200 138.2l0-26.2zM151.2 256c0 31.6 20.4 58.5 48.8 68.2l0-136.4c-28.4 9.7-48.8 36.5-48.8 68.2z"/></svg>