<svg xmlns="http://www.w3.org/2000/svg" viewBox="0 0 448 512"><!--! Font Awesome Pro 7.0.0 by @fontawesome - https://fontawesome.com License - https://fontawesome.com/license (Commercial License) Copyright 2025 Fonticons, Inc. --><path fill="currentColor" d="M48 80l0 352 352 0 0-352-352 0zM0 32l448 0 0 448-448 0 0-448zm208 72l32 0 0 32 8 0c39.8 0 72 32.2 72 72 0 14.5-4.3 28-11.6 39.3 16.8 13.2 27.6 33.7 27.6 56.7 0 39.8-32.2 72-72 72l-24 0 0 32-32 0 0-32-72 0 0-240 72 0 0-32zm-24 80l0 48 24 0 0-48-24 0zm56 0l0 48 8 0c13.3 0 24-10.7 24-24s-10.7-24-24-24l-8 0zm-56 96l0 48 24 0 0-48-24 0zm56 0l0 48 24 0c13.3 0 24-10.7 24-24s-10.7-24-24-24l-24 0z"/></svg>