<svg xmlns="http://www.w3.org/2000/svg" viewBox="0 0 512 512"><!--! Font Awesome Pro 7.0.0 by @fontawesome - https://fontawesome.com License - https://fontawesome.com/license (Commercial License) Copyright 2025 Fonticons, Inc. --><path fill="currentColor" d="M237.5 304.8L256 360.2c14.1-42.4 22.8-68.4 26.1-78.2 9.7-3.2 35.8-11.9 78.2-26.1-42.4-14.1-68.4-22.8-78.2-26.1-3.2-9.7-11.9-35.8-26.1-78.2-14.1 42.4-22.8 68.4-26.1 78.2-9.7 3.2-35.8 11.9-78.2 26.1 42.4 14.1 68.4 22.8 78.2 26.1l7.6 22.8zM192 320c-84.1-28-148.1-49.4-192-64 43.9-14.6 107.9-36 192-64 28-84.1 49.4-148.1 64-192 14.6 43.9 36 107.9 64 192 84.1 28 148.1 49.4 192 64-43.9 14.6-107.9 36-192 64-28 84.1-49.4 148.1-64 192-14.6-43.9-36-107.9-64-192zM54.1 88L88 54.1c6.1 6.1 27.8 27.8 65 65l17 17-33.9 33.9c-6.1-6.1-27.8-27.8-65-65l-17-17zm403.9 0c-6.1 6.1-27.8 27.8-65 65l-17 17-33.9-33.9c6.1-6.1 27.8-27.8 65-65l17-17 33.9 33.9zM441 407l17 17-33.9 33.9c-6.1-6.1-27.8-27.8-65-65l-17-17 33.9-33.9c6.1 6.1 27.8 27.8 65 65zM54.1 424c6.1-6.1 27.8-27.8 65-65l17-17 33.9 33.9c-6.1 6.1-27.8 27.8-65 65l-17 17-33.9-33.9z"/></svg>