<svg xmlns="http://www.w3.org/2000/svg" viewBox="0 0 512 512"><!--! Font Awesome Pro 7.0.0 by @fontawesome - https://fontawesome.com License - https://fontawesome.com/license (Commercial License) Copyright 2025 Fonticons, Inc. --><path fill="currentColor" d="M176 0l0 160 97.1 0c22.1-38.3 63.5-64 110.9-64 70.7 0 128 57.3 128 128l0 96c0 106-86 192-192 192-64.1 0-105.4-28-137-53.3-4.9-3.9-9.3-7.6-13.5-11-9.8-8.1-18.1-14.9-26.9-20.7-11.7-7.6-21-11.1-30.6-11.1l-64 0 0 96-48 0 0-152 184 0c39.8 0 72-32.2 72-72l0-64c0-5.4 .3-10.8 1-16l-129 0 0-208 48 0zM384 144c-44.2 0-80 35.8-80 80l0 32 48.9 0 6.7 5.8 49.3 42.2 55.1 0 0-80c0-44.2-35.8-80-80-80zm76.4 208l-69.3 0-6.7-5.8-49.3-42.2-32.2 0c-7.3 54.8-51.6 97.9-106.9 103.4 2 1.7 4 3.3 6 4.9 3.7 3.1 7.4 6.1 10.9 8.9 28.4 22.8 59.1 42.7 107 42.7 68.5 0 125.9-47.9 140.4-112z"/></svg>