<svg xmlns="http://www.w3.org/2000/svg" viewBox="0 0 640 512"><!--! Font Awesome Pro 7.1.0 by @fontawesome - https://fontawesome.com License - https://fontawesome.com/license (Commercial License) Copyright 2025 Fonticons, Inc. --><path fill="currentColor" d="M608.3 320l-140 0-7.7 4.6-93.7 56.2 64.1 38.4c5.4-2.1 11.2-3.2 17.3-3.2 26.5 0 48 21.5 48 48 0 26.5-21.5 48-48 48-26.5 0-48-21.5-48-48 0-2.3 .2-4.7 .5-6.9l-80.5-48.3-80.6 48.3c.3 2.3 .6 4.6 .6 6.9 0 26.5-21.5 48-48 48-26.5 0-48-21.5-48-48 0-26.5 21.5-48 48-48 6.1 0 11.9 1.2 17.2 3.2l64.1-38.4-93.7-56.2-7.7-4.6-140 0 0-48 576 0 0 48zm-288 32.8l54.7-32.8-109.4 0 54.7 32.8zM142.7 11.1l134.4 84.9 331.2 0 0 144-372.8 0-5.9-3.7-11.8-7.4 0 0C-50.6 59.3 45.5 120 5 94.4 7.1 91 28.5 57.2 69.1-7l12.8-20.3 60.8 38.4zM71.2 79.5l20.3 12.8 152 96 5.9 3.7 310.9 0 0-48-297 0-5.9-3.7-140.3-88.6-20.3-12.8-25.7 40.6z"/></svg>