<svg xmlns="http://www.w3.org/2000/svg" viewBox="0 0 576 512"><!--! Font Awesome Pro 7.0.0 by @fontawesome - https://fontawesome.com License - https://fontawesome.com/license (Commercial License) Copyright 2025 Fonticons, Inc. --><path fill="currentColor" d="M409.7 14.7l17.5 86.3-40.7 40.7-.5-2.3-16.2-80.3-68.2 45.3-13.3 8.8-13.3-8.8-68.2-45.3-16.2 80.3-3.2 15.6-15.6 3.2-80.3 16.2 45.3 68.2 8.8 13.3-8.8 13.3-45.3 68.2 80.3 16.2 2.3 .5-40.7 40.7C67.2 381.6 26.7 373.4 12 370.4 19.1 359.8 44.4 321.6 87.9 256 44.4 190.4 19.1 152.2 12 141.6 24.5 139 69.4 130 146.6 114.3 162.2 37.1 171.3-7.7 173.8-20.2 184.5-13.2 222.6 12.1 288.2 55.7 353.9 12.1 392-13.2 402.6-20.2l7.1 35zM288.2 160c22.4 0 43.1 7.7 59.4 20.6L313.2 215c-7.3-4.4-15.8-7-25-7-26.5 0-48 21.5-48 48 0 9.2 2.6 17.7 7 25l-34.4 34.4c-12.9-16.3-20.6-37-20.6-59.4 0-53 43-96 96-96zm192 0a32 32 0 1 1 64 0 32 32 0 1 1 -64 0zm-80 80a32 32 0 1 1 64 0 32 32 0 1 1 -64 0zm112 48a32 32 0 1 1 0 64 32 32 0 1 1 0-64zm-240 80a32 32 0 1 1 0 64 32 32 0 1 1 0-64zm-80 80a32 32 0 1 1 0 64 32 32 0 1 1 0-64zm128 32a32 32 0 1 1 64 0 32 32 0 1 1 -64 0zm192-32a32 32 0 1 1 0 64 32 32 0 1 1 0-64zm-112-48a32 32 0 1 1 64 0 32 32 0 1 1 -64 0zm-48-112a32 32 0 1 1 0 64 32 32 0 1 1 0-64z"/></svg>