<svg xmlns="http://www.w3.org/2000/svg" viewBox="0 0 576 512"><!--! Font Awesome Pro 7.0.0 by @fontawesome - https://fontawesome.com License - https://fontawesome.com/license (Commercial License) Copyright 2025 Fonticons, Inc. --><path fill="currentColor" d="M305.2-9c50.5 50.5 77.5 77.5 81 81l-33.9 33.9c-10.3-10.3-23.6-23.6-40-40l0 126.1-48 0 0-126.1c-16.4 16.4-29.7 29.7-40 40L190.3 72c3.5-3.5 30.5-30.5 81-81l17-17 17 17zM173.8 187.8c10.6 7.1 48.8 32.4 114.4 75.9 65.6-43.5 103.8-68.8 114.4-75.9 2.5 12.5 11.6 57.4 27.2 134.6 77.2 15.6 122.1 24.7 134.6 27.2-12.4 18.6-27.1 40.8-44.1 66.4l-57.6 0 22.2-33.5-80.3-16.2-15.6-3.2-3.2-15.6-16.2-80.3-68.2 45.3-13.3 8.8-13.3-8.8-68.2-45.3-16.2 80.3-3.2 15.6-15.6 3.2-80.3 16.2 22.2 33.5-57.6 0c-17-25.6-31.7-47.8-44.1-66.4 12.5-2.5 57.4-11.6 134.6-27.2 15.6-77.2 24.7-122.1 27.2-134.6zM371.4 416l-82.3 0-.9 0-.9 0-82.3 0c16.6-28.7 47.6-48 83.2-48s66.6 19.3 83.2 48zM32.2 464l512 0 0 48-512 0 0-48z"/></svg>