<svg xmlns="http://www.w3.org/2000/svg" viewBox="0 0 640 512"><!--! Font Awesome Pro 7.0.0 by @fontawesome - https://fontawesome.com License - https://fontawesome.com/license (Commercial License) Copyright 2025 Fonticons, Inc. --><path fill="currentColor" d="M64 168l0 312 304 0 0-208 8 0 0-56 36.9 0c18.6-38.1 55.4-65.6 99.1-71l0-113-448 0 0 136zm48 48l88 0 0 80-88 0 0-80zm0 216l0-88 88 0 0 88-88 0zm216 0l-80 0 0-88 80 0 0 88zM248 216l80 0 0 80-80 0 0-80zm280 24c17.7 0 32 14.3 32 32l0 48-64 0 0-48c0-17.7 14.3-32 32-32zm-80 32l0 48-32 0 0 192 224 0 0-192-32 0 0-48c0-44.2-35.8-80-80-80s-80 35.8-80 80z"/></svg>