<svg xmlns="http://www.w3.org/2000/svg" viewBox="0 0 640 512"><!--! Font Awesome Pro 7.0.0 by @fontawesome - https://fontawesome.com License - https://fontawesome.com/license (Commercial License) Copyright 2025 Fonticons, Inc. --><path fill="currentColor" d="M376 80l88 0 0 81.1c14.5-8.4 30.7-14 48-16.1l0-113-448 0 0 448 304 0 0-208 8 0 0-56 36.9 0c9.3-19.2 23.3-35.7 40.5-48l-77.4 0 0-88zm-48 0l0 88-80 0 0-88 80 0zM200 80l0 88-88 0 0-88 88 0zM112 296l0-80 88 0 0 80-88 0zm0 48l88 0 0 88-88 0 0-88zm136 88l0-88 80 0 0 88-80 0zm0-136l0-80 80 0 0 80-80 0zm280-56c17.7 0 32 14.3 32 32l0 48-64 0 0-48c0-17.7 14.3-32 32-32zm-80 32l0 48-32 0 0 192 224 0 0-192-32 0 0-48c0-44.2-35.8-80-80-80s-80 35.8-80 80z"/></svg>