<svg xmlns="http://www.w3.org/2000/svg" viewBox="0 0 448 512"><!--! Font Awesome Pro 7.0.0 by @fontawesome - https://fontawesome.com License - https://fontawesome.com/license (Commercial License) Copyright 2025 Fonticons, Inc. --><path fill="currentColor" d="M312 80l0 88 88 0 0-88-88 0zm-48 0l-80 0 0 88 80 0 0-88zM136 80l-88 0 0 88 88 0 0-88zM0 216l0-184 448 0 0 448-448 0 0-264zm48 80l88 0 0-80-88 0 0 80zm0 48l0 88 88 0 0-88-88 0zm136 88l80 0 0-88-80 0 0 88zm128 0l88 0 0-88-88 0 0 88zm88-136l0-80-88 0 0 80 88 0zm-216 0l80 0 0-80-80 0 0 80z"/></svg>