<svg xmlns="http://www.w3.org/2000/svg" viewBox="0 0 640 512"><!--! Font Awesome Pro 7.0.0 by @fontawesome - https://fontawesome.com License - https://fontawesome.com/license (Commercial License) Copyright 2025 Fonticons, Inc. --><path fill="currentColor" d="M416.5 22.1l16.9 17.1 181.6 184 16.6 16.9-16.7 16.9-189.7 192-16.9 17.1-34.1-33.7 16.9-17.1 173.1-175.1-164.9-167.1-16.9-17.1 34.2-33.7zM112.3 236.1l160 160 156.1-156.1-160-160-156.1 0 0 156.1zM288.3 32L462.3 206.1 496.3 240c-2.3 2.3-65.6 65.6-190.1 190.1l-33.9 33.9-33.9-33.9-174.1-174.1 0-224 224 0zm-112 80a32 32 0 1 1 0 64 32 32 0 1 1 0-64z"/></svg>