<svg xmlns="http://www.w3.org/2000/svg" viewBox="0 0 576 512"><!--! Font Awesome Pro 7.0.0 by @fontawesome - https://fontawesome.com License - https://fontawesome.com/license (Commercial License) Copyright 2025 Fonticons, Inc. --><path fill="currentColor" d="M48 48l288 0 0 32 48 0 0-80-384 0 0 416 48 0 0 64 48 0 0-64 48 0 0-48-96 0 0-128 96 0 0-.2 43.1 0 14.9-47.8-154 0 0-48 169 0 10.1-32.2 44.9 0 0-15.8-224 0 0-48zm96 256a32 32 0 1 0 -64 0 32 32 0 1 0 64 0zM280 159.9l-17.6 0-5.3 16.8-34.7 111.2-30.4 0 0 224 48 0 0-32 288 0 0 32 48 0 0-224-30.4 0-34.7-111.2-5.3-16.8-57.6 0 0-31.9-128 0 0 31.9-40 0zm248 240l0 32-288 0 0-96 288 0 0 64zm-32.6-112l-222.7 0 25-80 172.7 0 25 80zM312 383.9a24 24 0 1 0 -48 0 24 24 0 1 0 48 0zm168 24a24 24 0 1 0 0-48 24 24 0 1 0 0 48z"/></svg>