<svg xmlns="http://www.w3.org/2000/svg" viewBox="0 0 576 512"><!--! Font Awesome Pro 7.0.0 by @fontawesome - https://fontawesome.com License - https://fontawesome.com/license (Commercial License) Copyright 2025 Fonticons, Inc. --><path fill="currentColor" d="M312.3 0l-24 0 0 277.5c-20 24.7-32 56.2-32 90.5 0 79.5 64.5 144 144 144s144-64.5 144-144c0-34.3-12-65.8-32-90.5l0-277.5-200 0zm24 112l0-64 128 0 0 247.8 6.4 6.9c15.9 17.1 25.6 40 25.6 65.3 0 53-43 96-96 96s-96-43-96-96c0-25.2 9.7-48.1 25.6-65.3l6.4-6.9 0-183.8zm64 304c26.5 0 48-21.5 48-48 0-17.8-9.7-33.3-24-41.6l0-62.4-48 0 0 62.4c-14.3 8.3-24 23.8-24 41.6 0 26.5 21.5 48 48 48zM229 68.7l-12.7 12.7 0-49.4-48 0 0 49.4c-8.7-8.7-16.7-16.7-24-24l-22.6 22.6 46.6 46.6 0 55.8-48.3-27.9c-10.1-37.6-15.8-58.9-17.1-63.7L72 99.1c2.7 10 5.6 20.9 8.8 32.8-14.8-8.6-29.1-16.8-42.8-24.7L14 148.8c13.7 7.9 27.9 16.1 42.8 24.7-11.9 3.2-22.8 6.1-32.8 8.8l8.3 30.9c4.8-1.3 26.1-7 63.7-17.1l48.3 27.9-48.3 27.9c-37.6-10.1-58.9-15.8-63.7-17.1L24 265.7c10 2.7 20.9 5.6 32.8 8.8-14.8 8.6-29.1 16.8-42.8 24.7l24 41.6c13.7-7.9 27.9-16.1 42.8-24.7-3.2 11.9-6.1 22.8-8.8 32.8l30.9 8.3c1.3-4.8 7-26.1 17.1-63.7l48.3-27.9 0 55.8c-27.5 27.5-43.1 43.1-46.6 46.6l22.6 22.6c7.3-7.3 15.3-15.3 24-24l0 49.4 46 0c-3.9-15.3-6-31.4-6-48 0-19.1 2.8-37.5 8-55l0-47.5 16.1 9.3c2.5-4.4 5.1-8.8 7.9-13l0-37.9 0 0 0-55.4-24 13.9 0-55.8 24-24 0-45.3-11.3 11.3z"/></svg>