<svg xmlns="http://www.w3.org/2000/svg" viewBox="0 0 576 512"><!--! Font Awesome Pro 7.0.0 by @fontawesome - https://fontawesome.com License - https://fontawesome.com/license (Commercial License) Copyright 2025 Fonticons, Inc. --><path fill="currentColor" d="M49.3-16.9l-17-17-33.9 33.9 17 17 512 512 17 17 33.9-33.9-17-17-173-173 106.8-121.3c4 4 12.3 12.3 25.1 25.1l33.9-33.9-17-17-168.1-168.1-17-17-33.9 33.9C331 36.7 339.3 45.1 343.3 49L222 155.8 49.3-16.9zM256 189.8L377.3 83 461.1 166.8 354.3 288.1 256 189.8zM101.5 179.2c-13.6 8.4-26.3 18.3-37.7 29.6l33.9 33.9 203.6 203.6 33.9 33.9c11.4-11.4 21.3-24.1 29.6-37.7L101.5 179.2zM39.2 471l-17 17 33.9 33.9 17-17 109.5-109.5-33.9-33.9-109.5 109.5z"/></svg>