<svg xmlns="http://www.w3.org/2000/svg" viewBox="0 0 640 512"><!--! Font Awesome Pro 7.0.0 by @fontawesome - https://fontawesome.com License - https://fontawesome.com/license (Commercial License) Copyright 2025 Fonticons, Inc. --><path fill="currentColor" d="M560 80l-416 0 0 256 416 0 0-44.8c-28.7-16.6-48-47.6-48-83.2s19.3-66.6 48-83.2L560 80zm48 32l0 48c-26.5 0-48 21.5-48 48s21.5 48 48 48l0 128-512 0 0-352 512 0 0 80zM48 128l0 304 464 0 0 48-512 0 0-352 48 0zM448 264a24 24 0 1 1 0 48 24 24 0 1 1 0-48zm-24-56a24 24 0 1 1 48 0 24 24 0 1 1 -48 0zm24-104a24 24 0 1 1 0 48 24 24 0 1 1 0-48z"/></svg>