<svg xmlns="http://www.w3.org/2000/svg" viewBox="0 0 576 512"><!--! Font Awesome Pro 7.0.0 by @fontawesome - https://fontawesome.com License - https://fontawesome.com/license (Commercial License) Copyright 2025 Fonticons, Inc. --><path fill="currentColor" d="M0 112l0-48 576 0 0 144c-26.5 0-48 21.5-48 48s21.5 48 48 48l0 144-576 0 0-144c26.5 0 48-21.5 48-48S26.5 208 0 208l0-96zm48 60.8c28.7 16.6 48 47.6 48 83.2s-19.3 66.6-48 83.2l0 60.8 480 0 0-60.8c-28.7-16.6-48-47.6-48-83.2s19.3-66.6 48-83.2l0-60.8-480 0 0 60.8z"/></svg>