<svg xmlns="http://www.w3.org/2000/svg" viewBox="0 0 448 512"><!--! Font Awesome Pro 7.0.0 by @fontawesome - https://fontawesome.com License - https://fontawesome.com/license (Commercial License) Copyright 2025 Fonticons, Inc. --><path fill="currentColor" d="M36.3 19.4L0-2.4 0 104c0 40.3 27.1 74.2 64 84.7l0 67.3-48 0 0 48 48 0 0 208 48 0 0-208 224 0 0 208 48 0 0-208 48 0 0-48-48 0 0-67.3c36.9-10.4 64-44.4 64-84.7L448-2.4C430.1 8.4 393.2 30.5 337.4 64L110.6 64 36.3 19.4zM336 192l0 64-88 0 0-64 88 0zm-136 0l0 64-88 0 0-64 88 0zM48 104l0-21.6 43.7 26.2 5.7 3.4 253.3 0 5.7-3.4 43.7-26.2 0 21.6c0 22.1-17.9 40-40 40L88 144c-22.1 0-40-17.9-40-40z"/></svg>