<svg xmlns="http://www.w3.org/2000/svg" viewBox="0 0 448 512"><!--! Font Awesome Pro 7.0.0 by @fontawesome - https://fontawesome.com License - https://fontawesome.com/license (Commercial License) Copyright 2025 Fonticons, Inc. --><path fill="currentColor" d="M144 0l160 0 0 48-56 0 0 48 207 0-7.8 30-50.3 194 27.1 0 0 48-40 0 0 144-48 0 0-144-224 0 0 144-48 0 0-144-40 0 0-48 27.1 0-50.3-194-7.8-30 207 0 0-48-56 0 0-48zM347.4 320l45.6-176-73 0 0 176 27.4 0zM272 320l0-176-96 0 0 176 96 0zm-144 0l0-176-73 0 45.6 176 27.4 0z"/></svg>