<svg xmlns="http://www.w3.org/2000/svg" viewBox="0 0 640 512"><!--! Font Awesome Pro 7.0.0 by @fontawesome - https://fontawesome.com License - https://fontawesome.com/license (Commercial License) Copyright 2025 Fonticons, Inc. --><path fill="currentColor" d="M264 24a56 56 0 1 1 112 0 56 56 0 1 1 -112 0zm-7.6 88l127.1 0 7.2 10.2 100.9 144 13.8 19.7-39.3 27.5c-2.8-3.9-24.8-35.4-66.1-94.3l0 84.9-48 0 0-144-64 0 0 144-48 0 0-84.9c-41.3 59-63.4 90.4-66.1 94.3l-39.3-27.5 13.8-19.7 100.9-144 7.2-10.2zM240 544l-80 0 0-48 320 0 0 48-240 0zM576 160l48 16-48 16-16 48-16-48-48-16 48-16 16-48 16 48zM96 352l48 16-48 16-16 48-16-48-48-16 48-16 16-48 16 48zm128 0l192 0 0 32-192 0 0-32zm0 64l192 0 0 32-192 0 0-32z"/></svg>