<svg xmlns="http://www.w3.org/2000/svg" viewBox="0 0 448 512"><!--! Font Awesome Pro 7.0.0 by @fontawesome - https://fontawesome.com License - https://fontawesome.com/license (Commercial License) Copyright 2025 Fonticons, Inc. --><path fill="currentColor" d="M304-16l-160 0-24 64-120 0 0 48 448 0 0-48-120 0-24-64zM32 144l0 368 384 0 0-368-48 0 0 320-288 0 0-320-48 0zm209.9 64L208 174.1 110.1 272c3.5 3.5 30.5 30.5 81 81l17 17 33.9-33.9c-10.3-10.3-23.6-23.6-40-40l30.1 0c22.1 0 40 17.9 40 40l0 48 48 0 0-48c0-48.6-39.4-88-88-88l-30.1 0c16.4-16.4 29.7-29.7 40-40z"/></svg>