<svg xmlns="http://www.w3.org/2000/svg" viewBox="0 0 448 512"><!--! Font Awesome Pro 7.0.0 by @fontawesome - https://fontawesome.com License - https://fontawesome.com/license (Commercial License) Copyright 2025 Fonticons, Inc. --><path fill="currentColor" d="M304-16l-160 0-24 64-120 0 0 48 448 0 0-48-120 0-24-64zM28.7 144l27.3 368 336 0 27.3-368-48.1 0-23.7 320-246.8 0-23.7-320-48.1 0zM241 199l-17-17c-3.5 3.5-30.5 30.5-81 81l-17 17 33.9 33.9c10.3-10.3 23.6-23.6 40-40l0 110.1 48 0 0-110.1c16.4 16.4 29.7 29.7 40 40L321.9 280c-3.5-3.5-30.5-30.5-81-81z"/></svg>