<svg xmlns="http://www.w3.org/2000/svg" viewBox="0 0 640 512"><!--! Font Awesome Pro 7.0.0 by @fontawesome - https://fontawesome.com License - https://fontawesome.com/license (Commercial License) Copyright 2025 Fonticons, Inc. --><path fill="currentColor" d="M288 64l84.5 0 7.2 10.2 131.9 187.4c10.1-3.6 21.1-5.6 32.5-5.6 53 0 96 43 96 96s-43 96-96 96-96-43-96-96c0-24.3 9-46.4 23.9-63.3l-19.2-27.3-83.7 83.7-7 7-139.1 0c-7.8 54.3-54.4 96-110.9 96-61.9 0-112-50.1-112-112 0-49.9 32.7-92.2 77.8-106.7L41.6 120.8 87.2 105.6c1.9 5.7 13.3 39.8 34.1 102.4l102.7 0 0 48-33.6 0c13.4 13.1 23.5 29.6 29 48l122.7 0 82.5-82.5-77-109.5-59.5 0 0-48zM176 336a64 64 0 1 0 -128 0 64 64 0 1 0 128 0zm368 64a48 48 0 1 0 0-96 48 48 0 1 0 0 96z"/></svg>