<svg xmlns="http://www.w3.org/2000/svg" viewBox="0 0 512 512"><!--! Font Awesome Pro 7.0.0 by @fontawesome - https://fontawesome.com License - https://fontawesome.com/license (Commercial License) Copyright 2025 Fonticons, Inc. --><path fill="currentColor" d="M256.4 280a40 40 0 1 1 0-80 40 40 0 1 1 0 80zM323.2 35c10.1 12.6 20.7 27.6 29.8 44.2 19.8-.6 39 1.1 55.6 3.7 31.7 4.8 61.1 13.8 90.8 24.7-5.5 31.3-12.6 61.8-24.3 91.6-6.2 15.8-14.5 33.4-25.1 50.4 10.8 17.2 19.1 35.1 25.3 51.1 11.6 29.6 18.7 59.9 24.1 91-29.7 10.9-59.7 20-91.1 24.7-16.5 2.5-35.6 4.2-55.3 3.6-9.1 16.6-19.7 31.6-29.8 44.2-20 25-42.5 46-66.7 66.2-24.3-20.2-46.8-41.3-66.8-66.2-10-12.6-20.7-27.6-29.8-44.2-19.8 .6-39-1.2-55.6-3.7-31.7-4.8-61.1-13.8-90.8-24.7 5.4-31.1 12.5-61.4 24-91 6.2-16 14.5-33.9 25.3-51.1-10.8-17.2-19.1-35.1-25.3-51.1-11.6-29.8-18.6-59.8-24-90.9 29.8-10.9 59.6-20 91.2-24.7 16.5-2.5 35.5-4.2 55.1-3.6 9.1-16.5 19.7-31.5 29.7-44 19.8-24.8 42.6-46.2 66.9-66.4 24.3 20.2 46.8 41.3 66.7 66.2zM256.4 387.7c-13.3 11.2-28.8 19.1-45.4 24.3 14.2 21.7 32.7 41.9 45.4 54.5 12.7-12.5 31.2-32.8 45.3-54.5-16.6-5.1-32-13-45.3-24.2zm0-355c-8.2 8.1-18.8 19.3-29.4 32.5-26.7 33.4-56 81.9-35.8 125.2l14.3 30.7-33.7 3.4c-47.1 4.7-74.2 54.2-89.6 93.7-6.1 15.7-10.5 30.4-13.4 41.6 11.2 3.1 26.1 6.7 42.6 9.2 41.8 6.4 97.7 7.7 125.6-30.2l19.3-26.3 19.3 26.3c27.9 38 83.6 36.5 125.3 30.2 16.8-2.5 31.8-6.1 42.9-9.2-2.9-11.1-7.2-25.9-13.3-41.6-15.4-39.5-42.3-88.9-89.7-93.7l-33.7-3.4 14.3-30.7c20.3-43.4-9.1-91.9-35.9-125.4-10.5-13.1-21-24.2-29.3-32.3zM140.5 127.3c-26.5 1.3-54.2 7.3-71.7 12.1 4.7 18.2 13.8 46.2 26.5 70.3 12.6-11.6 27.2-20.9 43.4-26.7-1.5-7.4-2.3-15.2-2.3-23.1 0-11.1 1.5-22 4.1-32.7zm231.8 0c2.6 10.6 4.1 21.5 4.1 32.6 0 7.9-.9 15.6-2.3 23.1 16.2 5.8 30.7 15.1 43.4 26.7 11.7-22.2 20.2-46 26.5-70.2-17.6-4.9-45.2-10.8-71.7-12.1z"/></svg>