<svg xmlns="http://www.w3.org/2000/svg" viewBox="0 0 448 512"><!--! Font Awesome Pro 7.0.0 by @fontawesome - https://fontawesome.com License - https://fontawesome.com/license (Commercial License) Copyright 2025 Fonticons, Inc. --><path fill="currentColor" d="M48 80l0 144 32 0 0-112 288 0 0 112 32 0 0-144-352 0zm80 144l192 0 0-64-192 0 0 64zM80 272l-32 0 0 128 352 0 0-128-320 0zM448 80l0 368-32 0 0 64-48 0 0-64-288 0 0 64-48 0 0-64-32 0 0-416 448 0 0 48zM100 336a28 28 0 1 1 56 0 28 28 0 1 1 -56 0zm220-28a28 28 0 1 1 0 56 28 28 0 1 1 0-56z"/></svg>