<svg xmlns="http://www.w3.org/2000/svg" viewBox="0 0 640 512"><!--! Font Awesome Pro 7.0.0 by @fontawesome - https://fontawesome.com License - https://fontawesome.com/license (Commercial License) Copyright 2025 Fonticons, Inc. --><path fill="currentColor" d="M368 80l0 256-148.1 0c-16.1-19.5-40.6-32-67.9-32s-51.7 12.5-67.9 32l-4.1 0 0-256 288 0zM32 384l32.4 0c-.2 2.6-.4 5.3-.4 8 0 48.6 39.4 88 88 88s88-39.4 88-88c0-2.7-.1-5.4-.4-8l128.7 0c-.2 2.6-.4 5.3-.4 8 0 48.6 39.4 88 88 88s88-39.4 88-88c0-2.7-.1-5.4-.4-8l64.4 0 0-176-72.3 0-49.7-113.6-6.3-14.4-63.7 0 0-48-384 0 0 96-32 0 0 160 32 0 0 96zm424-80c-14.4 0-28 3.5-40 9.6l0-57.6 144 0 0 80-36.1 0c-16.1-19.5-40.6-32-67.9-32zm27.3-96l-67.3 0 0-80 32.3 0 35 80zM112 392a40 40 0 1 1 80 0 40 40 0 1 1 -80 0zm344-40a40 40 0 1 1 0 80 40 40 0 1 1 0-80z"/></svg>