<svg xmlns="http://www.w3.org/2000/svg" viewBox="0 0 640 512"><!--! Font Awesome Pro 7.0.0 by @fontawesome - https://fontawesome.com License - https://fontawesome.com/license (Commercial License) Copyright 2025 Fonticons, Inc. --><path fill="currentColor" d="M272 80l0 112 168 0-67.2-112-100.8 0zM224 192l0-160 176 0 96 160 112 0 0 144 32 0 0 48-64.4 0c.2 2.6 .4 5.3 .4 8 0 48.6-39.4 88-88 88s-88-39.4-88-88c0-2.7 .1-5.4 .4-8l-160.7 0c.2 2.6 .4 5.3 .4 8 0 48.6-39.4 88-88 88s-88-39.4-88-88c0-2.7 .1-5.4 .4-8l-64.4 0 0-48 32 0 0-144 192 0zm272 48l-416 0 0 96 4.1 0c16.1-19.5 40.6-32 67.9-32s51.7 12.5 67.9 32l200.2 0c16.1-19.5 40.6-32 67.9-32s51.7 12.5 67.9 32l4.1 0 0-96-64 0zM192 392a40 40 0 1 0 -80 0 40 40 0 1 0 80 0zm296 40a40 40 0 1 0 0-80 40 40 0 1 0 0 80z"/></svg>