<svg xmlns="http://www.w3.org/2000/svg" viewBox="0 0 576 512"><!--! Font Awesome Pro 7.0.0 by @fontawesome - https://fontawesome.com License - https://fontawesome.com/license (Commercial License) Copyright 2025 Fonticons, Inc. --><path fill="currentColor" d="M344.4 32l-24 0 0 342.1-302.9 90.9-23 6.9 13.8 46 23-6.9 316.6-95 52.8 0c-.2 2.6-.4 5.3-.4 8 0 48.6 39.4 88 88 88s88-39.4 88-88-39.4-88-88-88c-27.3 0-51.7 12.5-67.9 32l-52.1 0 0-288 208 0 0-48-232 0zm104 392a40 40 0 1 1 80 0 40 40 0 1 1 -80 0zM60.9 158.2c-30.7 9.4-49.2 39.7-44.6 70.5 8-6.7 17.4-12 28.1-15.2 37-11.3 75.9 5.5 93.7 38.3l134.4-41.1 0-117.1-211.5 64.7zm92.7 139l-45.9 14-9.4-30.6c-5.2-16.9-23.1-26.4-40-21.2s-26.4 23.1-21.2 40l28.1 91.8 207.2-63.3 0-66.9-118.8 36.3z"/></svg>