<svg xmlns="http://www.w3.org/2000/svg" viewBox="0 0 576 512"><!--! Font Awesome Pro 7.0.0 by @fontawesome - https://fontawesome.com License - https://fontawesome.com/license (Commercial License) Copyright 2025 Fonticons, Inc. --><path fill="currentColor" d="M0 0l576 0 0 48-272 0 0 80 112 0 0-32 64 0 0 32 96 0 0 320-67.3 0c-10.4 36.9-44.4 64-84.7 64s-74.2-27.1-84.7-64l-102.6 0c-10.4 36.9-44.4 64-84.7 64s-74.2-27.1-84.7-64L0 448 0 128 32 128 32 48 0 48 0 0zM256 128l0-80-64 0 0 80 64 0zM80 48l0 80 64 0 0-80-64 0zM368 176l-320 0 0 64 320 0 0-64zm48 0l0 64 112 0 0-64-112 0zM528 288l-480 0 0 112 19.3 0c10.4-36.9 44.4-64 84.7-64s74.2 27.1 84.7 64l102.6 0c10.4-36.9 44.4-64 84.7-64s74.2 27.1 84.7 64l19.3 0 0-112zM192 424a40 40 0 1 0 -80 0 40 40 0 1 0 80 0zm232 40a40 40 0 1 0 0-80 40 40 0 1 0 0 80z"/></svg>