<svg xmlns="http://www.w3.org/2000/svg" viewBox="0 0 576 512"><!--! Font Awesome Pro 7.0.0 by @fontawesome - https://fontawesome.com License - https://fontawesome.com/license (Commercial License) Copyright 2025 Fonticons, Inc. --><path fill="currentColor" d="M320.4 32l256 0 0 48-208 0 0 288 52.1 0c16.1-19.5 40.6-32 67.9-32 48.6 0 88 39.4 88 88s-39.4 88-88 88-88-39.4-88-88c0-2.7 .1-5.4 .4-8l-52.8 0-316.6 95-23 6.9-13.8-46 23-6.9 302.9-90.9 0-342.1zm168 432a40 40 0 1 0 0-80 40 40 0 1 0 0 80z"/></svg>