<svg xmlns="http://www.w3.org/2000/svg" viewBox="0 0 640 512"><!--! Font Awesome Pro 7.0.0 by @fontawesome - https://fontawesome.com License - https://fontawesome.com/license (Commercial License) Copyright 2025 Fonticons, Inc. --><path fill="currentColor" d="M224 16c-17.7 0-32 14.3-32 32l0 345.9-7 7-55.4 55.4 88.2-23.5 6.2-1.6c3.5 .9 8.9 2.4 16 4.3l0 49.7-16-4.3c-89.8 24-137.8 36.8-144 38.4l0-81.2 7-7 57-57 0-41.1C57.7 371.3 9.7 392.6 0 396.9L0 279.4 5.4 272.8 144 103.4 144 48c0-44.2 35.8-80 80-80s80 35.8 80 80l0 32-48 0 0-32c0-17.7-14.3-32-32-32zM48 296.6l0 26.5 96-42.7 0-101.2-96 117.3zM592 176l-256 0 0 112 32 0 0-80 192 0 0 80 32 0 0-112zM512 288l0-32-96 0 0 32 96 0zm128 0l0 160-32 0 0 64-48 0 0-64-192 0 0 64-48 0 0-64-32 0 0-320 352 0 0 160zm-48 48l-256 0 0 64 256 0 0-64z"/></svg>