<svg xmlns="http://www.w3.org/2000/svg" viewBox="0 0 576 512"><!--! Font Awesome Pro 7.0.0 by @fontawesome - https://fontawesome.com License - https://fontawesome.com/license (Commercial License) Copyright 2025 Fonticons, Inc. --><path fill="currentColor" d="M528 80l0 352-480 0 0-352 480 0zM48 32l-48 0 0 448 576 0 0-448-528 0zM224 400a144 144 0 1 0 0-288 144 144 0 1 0 0 288zm0-176a32 32 0 1 1 0 64 32 32 0 1 1 0-64zm256-88l0-24-48 0 0 169.9c-35.6 65.4-54.5 99.9-56.6 103.7l42.1 23c1.6-2.9 21.4-39.3 59.5-109.1l2.9-5.4 0-158.1z"/></svg>