<svg xmlns="http://www.w3.org/2000/svg" viewBox="0 0 512 512"><!--! Font Awesome Pro 7.0.0 by @fontawesome - https://fontawesome.com License - https://fontawesome.com/license (Commercial License) Copyright 2025 Fonticons, Inc. --><path fill="currentColor" d="M280-8l0-24-48 0 0 33.1C117.9 11.7 25.5 97.2 4.5 208 1.5 223.5 0 239.6 0 256l512 0c0-16.4-1.5-32.5-4.5-48-21-110.8-113.4-196.3-227.5-206.9L280-8zM256 48c98.4 0 180.8 68.3 202.4 160L53.6 208C75.2 116.3 157.6 48 256 48zm24 256l-48 0 0 131.5c0 15.7-12.7 28.5-28.5 28.5-11.6 0-22.1-7.1-26.4-17.9-.9-2.1-4.8-11.9-11.7-29.3l-44.6 17.8c7 17.4 10.9 27.2 11.7 29.3 11.6 29 39.7 48.1 71 48.1 42.2 0 76.5-34.2 76.5-76.5L280 304z"/></svg>