<svg xmlns="http://www.w3.org/2000/svg" viewBox="0 0 576 512"><!--! Font Awesome Pro 7.0.0 by @fontawesome - https://fontawesome.com License - https://fontawesome.com/license (Commercial License) Copyright 2025 Fonticons, Inc. --><path fill="currentColor" d="M193.9 33.9l-33.9-33.9-144 144 0 32 120 0 0 336 48 0 0-336 120 0 0-32-110.1-110.1zM220.1 128L99.9 128 160 67.9 220.1 128zM392 24l0 312-120 0 0 32 16 16c72.7 72.7 115.4 115.4 128 128 12.6-12.6 55.3-55.3 128-128l16-16 0-32-120 0 0-336-48 0 0 24zm24 420.1l-60.1-60.1 120.2 0-60.1 60.1z"/></svg>