<svg xmlns="http://www.w3.org/2000/svg" viewBox="0 0 448 512"><!--! Font Awesome Pro 7.0.0 by @fontawesome - https://fontawesome.com License - https://fontawesome.com/license (Commercial License) Copyright 2025 Fonticons, Inc. --><path fill="currentColor" d="M248 328l0 24-48 0 0-270.1c-49.7 49.7-76.4 76.4-80 80l-33.9-33.9 17-17 104-104 17-17 17 17 104 104 17 17-33.9 33.9c-3.6-3.6-30.3-30.3-80-80L248 328zm-96-8l-104 0 0 112 352 0 0-112-104 0 0-48 152 0 0 208-448 0 0-208 152 0 0 48zm168 56a24 24 0 1 1 48 0 24 24 0 1 1 -48 0z"/></svg>