<svg xmlns="http://www.w3.org/2000/svg" viewBox="0 0 448 512"><!--! Font Awesome Pro 7.0.0 by @fontawesome - https://fontawesome.com License - https://fontawesome.com/license (Commercial License) Copyright 2025 Fonticons, Inc. --><path fill="currentColor" d="M352 160a128 128 0 1 0 -256 0 128 128 0 1 0 256 0zM224-16c74.6 0 138.4 46.4 164 112l28 0 0 128-28 0c-25.6 65.6-89.4 112-164 112S85.6 289.6 60 224l-28 0 0-128 28 0C85.6 30.4 149.4-16 224-16zM128 176c0-44.2 35.8-80 80-80l32 0c44.2 0 80 35.8 80 80s-35.8 80-80 80l-32 0c-44.2 0-80-35.8-80-80zm85.3-13.3L200 136 186.7 162.7 160 176 186.7 189.3 200 216 213.3 189.3 240 176 213.3 162.7zM67.2 320c20.9 20.5 45.8 36.9 73.5 48l-68 0-24 144-48.7 0 32-192 35.2 0zm240.1 48c27.6-11.1 52.6-27.5 73.5-48l35.2 0 32 192-48.7 0-24-144-68 0zM336 512l-40 0 0-48-48 0 0 48-48 0 0-48-48 0 0 48-40 0 0-80 224 0 0 80z"/></svg>