<svg xmlns="http://www.w3.org/2000/svg" viewBox="0 0 576 512"><!--! Font Awesome Pro 7.0.0 by @fontawesome - https://fontawesome.com License - https://fontawesome.com/license (Commercial License) Copyright 2025 Fonticons, Inc. --><path fill="currentColor" d="M144 128a80 80 0 1 1 160 0 80 80 0 1 1 -160 0zM50.2 512l49.2-160 140.5 0 0-48-176 0-64 208 50.2 0zM224 256a128 128 0 1 0 0-256 128 128 0 1 0 0 256zM462 530.8c69.3-30.8 114-99.6 114-175.5l0-51.2-144-48-144 48 0 51.2c0 75.9 44.7 144.6 114 175.5l30 13.3 30-13.3zm-30-39.2l0-184.9 96 32 0 16.6c0 56.9-33.5 108.5-85.5 131.6L432 491.6z"/></svg>