<svg xmlns="http://www.w3.org/2000/svg" viewBox="0 0 448 512"><!--! Font Awesome Pro 7.0.0 by @fontawesome - https://fontawesome.com License - https://fontawesome.com/license (Commercial License) Copyright 2025 Fonticons, Inc. --><path fill="currentColor" d="M144 144c0 44.2 35.8 80 80 80s80-35.8 80-80l0-32-64 0-16-48-16 48-64 0 0 32zm208 0c0 25.1-7.3 48.6-19.8 68.4l35.8 59.6-288 0 35.8-59.6C103.3 192.6 96 169.1 96 144l0-32-16 0 0-48 26.8 0C124.8 26.2 163.3 0 208 0l32 0c44.7 0 83.2 26.2 101.2 64l26.8 0 0 48-16 0 0 32zM98.6 368l-48 144-50.6 0 64-192 320 0 64 192-50.6 0-48-144-250.8 0z"/></svg>