<svg xmlns="http://www.w3.org/2000/svg" viewBox="0 0 448 512"><!--! Font Awesome Pro 7.0.0 by @fontawesome - https://fontawesome.com License - https://fontawesome.com/license (Commercial License) Copyright 2025 Fonticons, Inc. --><path fill="currentColor" d="M48 16l0 32 32 19.2 0 44.8s5.8 2.8 16 6.7L96 144c0 70.7 57.3 128 128 128s128-57.3 128-128l0-25.3c10.2-3.9 16-6.7 16-6.7l0-44.8 32-19.2 0-32-176-48-176 48zm96 117.7c23.2 5.7 50.9 10.3 80 10.3s56.8-4.6 80-10.3l0 10.3c0 44.2-35.8 80-80 80s-80-35.8-80-80l0-10.3zM160 320l-96 0-64 192 50.6 0 48-144 41.5 0 49.9 49.9 9.9 9.9 0 84.1 48 0 0-84.1 9.9-9.9 49.9-49.9 41.5 0 21.3 64-66.7 0 0 48 82.7 0 10.7 32 50.6 0-64-192-96 0c-19.4 19.4-40.7 40.7-64 64-23.3-23.3-44.6-44.6-64-64zM183.2 33.7L224 54.1c31.6-15.8 50-25 55.2-27.6l14.3 28.6c-3.9 2-24.7 12.3-62.3 31.2l-7.2 3.6-7.2-3.6c-37.6-18.8-58.4-29.2-62.3-31.2l14.3-28.6 14.3 7.2z"/></svg>