<svg xmlns="http://www.w3.org/2000/svg" viewBox="0 0 576 512"><!--! Font Awesome Pro 7.0.0 by @fontawesome - https://fontawesome.com License - https://fontawesome.com/license (Commercial License) Copyright 2025 Fonticons, Inc. --><path fill="currentColor" d="M208 208a80 80 0 1 0 0-160 80 80 0 1 0 0 160zM99.5 352l-49.2 160-50.2 0 64-208 288 0 64 208-50.2 0-49.2-160-217.1 0zM80 128a128 128 0 1 1 256 0 128 128 0 1 1 -256 0zm288.7 71.8c9.2 5.2 19.9 8.2 31.3 8.2 35.3 0 64-28.7 64-64s-28.7-64-64-64c-7.6 0-14.9 1.3-21.6 3.7-4.1-15.8-10.3-30.7-18.3-44.4 12.4-4.7 25.9-7.3 39.9-7.3 61.9 0 112 50.1 112 112S461.9 256 400 256c-20.7 0-40.1-5.6-56.7-15.4 10.2-12.3 18.8-26 25.4-40.7zM480.3 368l-58.4 0-14.8-48 108.6 0 59.1 192-50.2 0-44.3-144z"/></svg>