<svg xmlns="http://www.w3.org/2000/svg" viewBox="0 0 640 512"><!--! Font Awesome Pro 7.0.0 by @fontawesome - https://fontawesome.com License - https://fontawesome.com/license (Commercial License) Copyright 2025 Fonticons, Inc. --><path fill="currentColor" d="M256 208a80 80 0 1 0 0-160 80 80 0 1 0 0 160zM131.5 352l-49.2 160-50.2 0 64-208 320 0 64 208-50.2 0-49.2-160-249.1 0zM128 128a128 128 0 1 1 256 0 128 128 0 1 1 -256 0zM520 288l0-72-72 0 0-48 72 0 0-72 48 0 0 72 72 0 0 48-72 0 0 72-48 0z"/></svg>