<svg xmlns="http://www.w3.org/2000/svg" viewBox="0 0 640 512"><!--! Font Awesome Pro 7.0.0 by @fontawesome - https://fontawesome.com License - https://fontawesome.com/license (Commercial License) Copyright 2025 Fonticons, Inc. --><path fill="currentColor" d="M176 128a80 80 0 1 1 160 0 80 80 0 1 1 -160 0zM82.2 512l49.2-160 232.2 0 48-48-315.7 0-64 208 50.2 0zM256 256a128 128 0 1 0 0-256 128 128 0 1 0 0 256zm288-16.1l-52.8 52.8 80 80 52.8-52.8-80-80zm-208 208l-16 96 96-16 132.6-132.6-80-80-132.6 132.6z"/></svg>