<svg xmlns="http://www.w3.org/2000/svg" viewBox="0 0 576 512"><!--! Font Awesome Pro 7.0.0 by @fontawesome - https://fontawesome.com License - https://fontawesome.com/license (Commercial License) Copyright 2025 Fonticons, Inc. --><path fill="currentColor" d="M144 128a80 80 0 1 1 160 0 80 80 0 1 1 -160 0zM50.2 512l49.2-160 172.5 0 0-48-208 0-64 208 50.2 0zM224 256a128 128 0 1 0 0-256 128 128 0 1 0 0 256zm176-32l0 144c0 26.5 21.5 48 48 48s48-21.5 48-48l0-144-96 0zM368 336l-48 0 0 32c0 62.5 44.8 114.5 104 125.8l0 50.2 48 0 0-50.2c59.2-11.2 104-63.3 104-125.8l0-32-48 0 0 32c0 44.2-35.8 80-80 80s-80-35.8-80-80l0-32z"/></svg>