<svg xmlns="http://www.w3.org/2000/svg" viewBox="0 0 448 512"><!--! Font Awesome Pro 7.0.0 by @fontawesome - https://fontawesome.com License - https://fontawesome.com/license (Commercial License) Copyright 2025 Fonticons, Inc. --><path fill="currentColor" d="M65.7 11.2L215.6-29.7c5.5-1.5 11.3-1.5 16.8 0L382.3 11.2c10.5 2.9 17.7 12.4 17.7 23.2 0 8.5-4.4 16.3-11.7 20.6L368 67.2 368 91.8c0 11.4-6 21.8-16 26.7l0 57.5 48 96-352 0 48-96 0-57.5c-10-5-16-15.4-16-26.7L80 67.2 59.7 55C52.4 50.7 48 42.8 48 34.4 48 23.5 55.3 14 65.7 11.2zM304 144l0-10.3c-23.2 5.7-50.9 10.3-80 10.3s-56.8-4.6-80-10.3l0 10.3c0 44.2 35.8 80 80 80s80-35.8 80-80zM176 328l0-24 96 0 0 24-31.6 36.9 17.8 66.3 61.8-111.2 64 0 64 192-50.6 0-48-144-1.2 0c-53 95.3-79.6 143.3-80 144l-88.5 0c-.4-.7-27.1-48.7-80-144l-1.2 0-48 144-50.6 0 64-192 64 0 61.5 110.6 18-65.9-31.4-36.7zM264 64l-40-40-40 40 40 40 40-40z"/></svg>