<svg xmlns="http://www.w3.org/2000/svg" viewBox="0 0 640 512"><!--! Font Awesome Pro 7.0.0 by @fontawesome - https://fontawesome.com License - https://fontawesome.com/license (Commercial License) Copyright 2025 Fonticons, Inc. --><path fill="currentColor" d="M176 192a64 64 0 1 0 0-128 64 64 0 1 0 0 128zm0-176a112 112 0 1 1 0 224 112 112 0 1 1 0-224zM301.4 480l-48-144-154.8 0-48 144-50.6 0 64-192 224 0 64 192-50.6 0zM464 192a64 64 0 1 0 0-128 64 64 0 1 0 0 128zm0-176a112 112 0 1 1 0 224 112 112 0 1 1 0-224zM338.6 288L640 288c-5.3 16-26.7 80-64 192l-173.4 0-16-48 154.8 0 32-96-218.8 0-16-48z"/></svg>