<svg xmlns="http://www.w3.org/2000/svg" viewBox="0 0 448 512"><!--! Font Awesome Pro 7.0.0 by @fontawesome - https://fontawesome.com License - https://fontawesome.com/license (Commercial License) Copyright 2025 Fonticons, Inc. --><path fill="currentColor" d="M112 175.4C112 99.9 162.6 48 224 48S336 99.9 336 175.4l0 57.6-112 89.6-112-89.6 0-57.6zM224 384l160-128 0-80.6C384 78.5 316.8 0 224 0S64 78.5 64 175.4L64 256 224 384zM64 352l-64 160 51.7 0 44.8-112 70.7 0-60-48-43.2 0zm287.5 48l44.8 112 51.7 0-64-160-43.2 0-60 48 70.7 0zM240 216l0 24 24 0c30.9 0 56-25.1 56-56l0-24-24 0c-30.9 0-56 25.1-56 56zm-88-56l-24 0 0 24c0 30.9 25.1 56 56 56l24 0 0-24c0-30.9-25.1-56-56-56z"/></svg>