<svg xmlns="http://www.w3.org/2000/svg" viewBox="0 0 512 512"><!--! Font Awesome Pro 7.0.0 by @fontawesome - https://fontawesome.com License - https://fontawesome.com/license (Commercial License) Copyright 2025 Fonticons, Inc. --><path fill="currentColor" d="M340.2 18.2l-17-17-33.9 33.9 17 17 3.8 3.8-279.8 279.8c-19.4 19.4-30.2 45.6-30.2 73 0 57 46.2 103.2 103.2 103.2 27.4 0 53.6-10.9 73-30.2l279.8-279.8 3.8 3.8 17 17 33.9-33.9c-9-9-64.7-64.7-149.8-149.8L340.2 18.2zM177.9 256l166.1-166.1 78.1 78.1-88 88-156.1 0zm-48 48l156.1 0-143.8 143.8c-10.4 10.4-24.4 16.2-39 16.2-30.5 0-55.2-24.7-55.2-55.2 0-14.6 5.8-28.7 16.2-39L129.9 304z"/></svg>