<svg xmlns="http://www.w3.org/2000/svg" viewBox="0 0 512 512"><!--! Font Awesome Pro 7.0.0 by @fontawesome - https://fontawesome.com License - https://fontawesome.com/license (Commercial License) Copyright 2025 Fonticons, Inc. --><path fill="currentColor" d="M378.8 423.9l-5.4-.7-181.7-23.5-5.1 52.4c21.7 7.7 45.1 11.9 69.5 11.9 45.9 0 88.4-14.9 122.8-40.1zm63.4-75c12.1-24.2 19.6-51 21.4-79.4l-53.6 24.4-6 2.7-6.6-.7-130.2-14.5-53.5 72.8 160 20.7 68.6-25.9zm18.4-130.8C448 149.7 401.9 93 340 65.7l2.1 5.1 70.5 169.1 47.9-21.8zM140.5 429l5.7-58.7 .6-6.6 3.9-5.3 77.6-105.5-36.2-82.7-97.9 128.2-11.8 72.3c15.3 23.1 35.1 42.9 58.1 58.3zM49.2 278.3L52.5 274 163.7 128.4 121 97.8c-44.6 38.2-73 94.9-73 158.2 0 7.6 .4 15 1.2 22.3zM163.9 69.5l48 34.3 5.4 3.8 2.6 6 52.6 120 89.8 10-62-148.9-56.7-46.4c-28.4 1.7-55.4 9.1-79.6 21.1zM0 256a256 256 0 1 1 512 0 256 256 0 1 1 -512 0z"/></svg>