<svg xmlns="http://www.w3.org/2000/svg" viewBox="0 0 512 512"><!--! Font Awesome Pro 7.0.0 by @fontawesome - https://fontawesome.com License - https://fontawesome.com/license (Commercial License) Copyright 2025 Fonticons, Inc. --><path fill="currentColor" d="M464 256a208 208 0 1 0 -416 0 208 208 0 1 0 416 0zM0 256a256 256 0 1 1 512 0 256 256 0 1 1 -512 0zM272 80l0 64 64 0 0-48 32 0 0 48 48 0 0 32-48 0 0 64 48 0 0 32-48 0 0 64 48 0 0 32-48 0 0 48-32 0 0-48-64 0 0 80-32 0 0-80-64 0 0 48-32 0 0-48-48 0 0-32 48 0 0-64-48 0 0-32 48 0 0-64-48 0 0-32 48 0 0-48 32 0 0 48 64 0 0-80 32 0 0 16zm-96 96l0 64 64 0 0-64-64 0zm0 96l0 64 64 0 0-64-64 0zm96 0l0 64 64 0 0-64-64 0zm0-32l64 0 0-64-64 0 0 64z"/></svg>