<svg xmlns="http://www.w3.org/2000/svg" viewBox="0 0 384 512"><!--! Font Awesome Pro 7.0.0 by @fontawesome - https://fontawesome.com License - https://fontawesome.com/license (Commercial License) Copyright 2025 Fonticons, Inc. --><path fill="currentColor" d="M48 64l21.3 0 10.7-96 224 0 10.7 96 69.3 0 0 384-69.3 0-10.7 96-224 0-10.7-96-69.3 0 0-384 48 0zm218.4 0l-5.3-48-138.1 0-5.3 48 148.7 0zM117.6 448l5.3 48 138.1 0 5.3-48-148.7 0zM336 112l-288 0 0 288 288 0 0-288zm-32 48l0 64-224 0 0-64 224 0zM88 320l48 0 0 48-48 0 0-48zm128 0l0 48-48 0 0-48 48 0zm32 0l48 0 0 48-48 0 0-48zM136 248l0 48-48 0 0-48 48 0zm32 0l48 0 0 48-48 0 0-48zm128 0l0 48-48 0 0-48 48 0z"/></svg>