<svg xmlns="http://www.w3.org/2000/svg" viewBox="0 0 640 512"><!--! Font Awesome Pro 7.0.0 by @fontawesome - https://fontawesome.com License - https://fontawesome.com/license (Commercial License) Copyright 2025 Fonticons, Inc. --><path fill="currentColor" d="M372.2 52c0 20.9-12.4 39-30.2 47.2l106 92.8 102.2-20.4 2.2-.4c-5.3-7.7-8.4-17.1-8.4-27.1 0-26.5 21.5-48 48-48s48 21.5 48 48c0 26-20.6 47.1-46.4 48L583.8 213.8 464 480 176 480 56.2 213.8 46.4 192C20.6 191.1 0 170 0 144 0 117.5 21.5 96 48 96s48 21.5 48 48c0 10.1-3.1 19.4-8.4 27.1l2.2 .4 102.2 20.4 106.1-92.9c-17.7-8.3-30-26.3-30-47.1 0-28.7 23.3-52 52-52s52 23.3 52 52zm44.2 176.1l-96.4-84.3-96.4 84.3-17.8 15.6c-7.9-1.6-38.5-7.7-91.7-18.3L207 432 433 432 526 225.4c-53.2 10.6-83.8 16.8-91.7 18.3l-17.8-15.6z"/></svg>