<svg xmlns="http://www.w3.org/2000/svg" viewBox="0 0 640 512"><!--! Font Awesome Pro 7.0.0 by @fontawesome - https://fontawesome.com License - https://fontawesome.com/license (Commercial License) Copyright 2025 Fonticons, Inc. --><path fill="currentColor" d="M160 0l24 104 104 24-80 80-83.8-12c-.7 1.1-15.2 22.1-43.3 63-5.7 8.3-8 18.5-6.3 28.4 3.1 18.8 19.4 32.5 38.4 32.5l1 0c9.1 0 17.9-3.1 25-8.8l123.8-99.1C330.9 157.7 415.5 128 502.7 128l137.3 0 0 352-477.6 0C72.7 480 0 407.3 0 317.6 0 278.2 15.7 240.3 43.6 212.4L92 164 80 80 160 0zM592 432l0-256-89.3 0c-76.3 0-150.3 26-209.9 73.6L169 348.7c-15.6 12.5-35 19.3-55 19.3l-1 0c-24.3 0-46.5-10-62.5-26.5 11 51.7 56.9 90.5 111.9 90.5L592 432zM392 280a24 24 0 1 1 0 48 24 24 0 1 1 0-48z"/></svg>