<svg xmlns="http://www.w3.org/2000/svg" viewBox="0 0 576 512"><!--! Font Awesome Pro 7.0.0 by @fontawesome - https://fontawesome.com License - https://fontawesome.com/license (Commercial License) Copyright 2025 Fonticons, Inc. --><path fill="currentColor" d="M135.4 293.1c23.4 23.4 33.4 55.4 29.7 86.2 30.8-3.8 62.9 6.3 86.2 29.7l63 63-24.4 24.4c-40.6 40.6-106.5 40.6-147.1 0l-30.5-30.5-63 63-17 17-33.9-34c3.6-3.6 30.3-30.3 80-80L48 401.5C7.4 360.9 7.4 295.1 48 254.5l24.4-24.4 63 63zm81.9 149.8c-18.4-18.4-46.7-21.5-68.5-8.3l27.9 27.9c18.6 18.6 46.9 21.3 68.4 8.3l-27.9-27.9zm30.1-261.8c23.4 23.4 33.4 55.4 29.7 86.2 30.8-3.8 62.9 6.3 86.2 29.7l63 63-24.4 24.4c-40.6 40.6-106.5 40.6-147.1 0L160 289.5c-40.6-40.6-40.6-106.5 0-147.1l24.4-24.4 63 63zM73.6 299.1c-13 21.5-10.2 49.9 8.3 68.5l27.9 27.9c13.1-21.8 10.1-50.1-8.3-68.4L73.6 299.1zm255.8 31.8c-18.4-18.4-46.7-21.5-68.5-8.3l27.9 27.9c18.6 18.6 46.9 21.3 68.4 8.3l-27.9-27.9zM359.4 69.1c23.4 23.4 33.4 55.4 29.7 86.2 30.8-3.8 62.9 6.3 86.2 29.7l63 63-24.4 24.4c-40.6 40.6-106.5 40.6-147.1 0L272 177.5c-40.6-40.6-40.6-106.5 0-147.1l24.4-24.4 63 63zm-173.8 118c-13 21.5-10.2 49.9 8.3 68.5l27.9 27.9c13.1-21.8 10.1-50.1-8.3-68.4l-27.9-27.9zm255.8 31.8c-18.4-18.4-46.7-21.5-68.5-8.3l27.9 27.9c18.6 18.6 46.9 21.3 68.4 8.3l-27.9-27.9zM297.6 75.1c-13 21.5-10.2 49.9 8.3 68.5l27.9 27.9c13.1-21.8 10.1-50.1-8.3-68.4L297.6 75.1zM568.4 35l-.1 5.2c-2.6 51.7-44 93.1-95.7 95.7l-5.2 .1-59 0 0-59c0-55.8 45.2-101 101-101l59 0 0 59zm-59-11c-29.3 0-53 23.7-53 53l0 11 11 0 5.4-.3c25-2.5 44.8-22.4 47.3-47.3l.3-5.4 0-11-11 0z"/></svg>