<svg xmlns="http://www.w3.org/2000/svg" viewBox="0 0 640 512"><!--! Font Awesome Pro 7.0.0 by @fontawesome - https://fontawesome.com License - https://fontawesome.com/license (Commercial License) Copyright 2025 Fonticons, Inc. --><path fill="currentColor" d="M256 432c46.8 0 89.3-18.2 120.8-48l63.1 0c-40.5 58-107.7 96-183.8 96-123.7 0-224-100.3-224-224S132.3 32 256 32c118.3 0 215.2 91.8 223.4 208l-48.2 0C423.2 150.3 347.8 80 256 80 158.8 80 80 158.8 80 256s78.8 176 176 176zm248 32l-24 0 0-48 40 0c22.1 0 40-17.9 40-40s-17.9-40-40-40l-136 0 0-48 136 0c48.6 0 88 39.4 88 88s-39.4 88-88 88l-16 0zm12-288l36 0c22.1 0 40-17.9 40-40s-17.9-40-40-40l-40 0 0-48 40 0c48.6 0 88 39.4 88 88s-39.4 88-88 88l-25.9 0c-1.9-16.5-5.3-32.5-10.1-48zM280 144l0 144-48 0 0-144 48 0zM232 376l0-48 48 0 0 48-48 0z"/></svg>