<svg xmlns="http://www.w3.org/2000/svg" viewBox="0 0 384 512"><!--! Font Awesome Pro 7.0.0 by @fontawesome - https://fontawesome.com License - https://fontawesome.com/license (Commercial License) Copyright 2025 Fonticons, Inc. --><path fill="currentColor" d="M273.9 193.9l14.1-14.1 0-95.2c29.5 26.4 48 64.7 48 107.3 0 48.1-23.6 90.8-60 117l-20 14.4 0 188.6 48 0 0-164c48.5-34.9 80-91.7 80-156 0-71.1-38.6-133.1-96-166.3-14.9-8.6-31-15.3-48-19.6l0 154c-6.1 6.1-22.1 22.1-48 48-25.9-25.9-41.9-41.9-48-48L144 6c-17 4.4-33.1 11-48 19.6-57.4 33.2-96 95.2-96 166.3 0 64.2 31.5 121.1 80 156l0 164 48 0 0-188.6-20-14.4c-36.5-26.2-60-68.9-60-117 0-42.6 18.5-81 48-107.3l0 95.2c12.1 12.1 95 95 96 96 20.3-20.3 47.6-47.6 81.9-81.9z"/></svg>