<svg xmlns="http://www.w3.org/2000/svg" viewBox="0 0 512 512"><!--! Font Awesome Pro 7.0.0 by @fontawesome - https://fontawesome.com License - https://fontawesome.com/license (Commercial License) Copyright 2025 Fonticons, Inc. --><path fill="currentColor" d="M24 32l-24 0 0 48 32 0 0 352-32 0 0 48 512 0 0-48-32 0 0-352 32 0 0-48-488 0zM80 432l0-352 352 0 0 352-352 0zM280 136l0-24-48 0 0 32-88 0 0 48 88 0 0 40-104 0 0 48 104 0 0 40-88 0 0 48 88 0 0 32 48 0 0-32 88 0 0-48-88 0 0-40 104 0 0-48-104 0 0-40 88 0 0-48-88 0 0-8z"/></svg>