<?xml version="1.0" standalone="no"?>
<!DOCTYPE svg PUBLIC "-//W3C//DTD SVG 1.1//EN" "http://www.w3.org/Graphics/SVG/1.1/DTD/svg11.dtd" >
<svg xmlns="http://www.w3.org/2000/svg" xmlns:xlink="http://www.w3.org/1999/xlink" version="1.1">
<metadata>
Created by FontForge 20170731 at Wed Mar 15 17:44:13 2017
 By Aleksey,,,
Copyright 2017 Monotype Imaging Inc. All rights reserved.
</metadata>
<defs>
<font id="SlateForOnePlusBlack" horiz-adv-x="669" >
  <font-face 
    font-family="Slate For OnePlus Black"
    font-weight="900"
    font-stretch="normal"
    units-per-em="1000"
    panose-1="2 0 9 3 4 0 0 2 0 4"
    ascent="800"
    descent="-200"
    x-height="545"
    cap-height="718"
    bbox="-175 -271 1412 1056"
    underline-thickness="50"
    underline-position="-150"
    unicode-range="U+000D-FEFF"
  />
<missing-glyph horiz-adv-x="565" 
d="M550 751v-751h-536v751h536zM464 698h-365l184 -274zM250 376l-182 274v-547zM497 102v548l-183 -274zM99 54h365l-181 274z" />
    <glyph glyph-name="fi" unicode="fi" horiz-adv-x="704" 
d="M626 604.5q-31 -28.5 -80 -28.5t-80 28.5t-31 75.5q0 48 30.5 76t80.5 28q49 0 80 -28t31 -76q0 -47 -31 -75.5zM368 606q-22 4 -34 4q-15 0 -25 -2.5t-17 -9.5q-11 -11 -11 -38v-15h109v-151h-109v-394h-210v394h-59v151h59v31q0 78 49 125q29 27 67.5 38t93.5 11
q73 0 140 -21l-21 -130q-10 3 -32 7zM441 545h210v-545h-210v545z" />
    <glyph glyph-name="fl" unicode="fl" horiz-adv-x="704" 
d="M368 606q-22 4 -34 4q-15 0 -25 -2.5t-17 -9.5q-11 -11 -11 -38v-15h109v-151h-109v-394h-210v394h-59v151h59v31q0 78 49 125q29 27 67.5 38t93.5 11q73 0 140 -21l-21 -130q-10 3 -32 7zM441 739h210v-739h-210v739z" />
    <glyph glyph-name=".notdef" horiz-adv-x="565" 
d="M550 751v-751h-536v751h536zM464 698h-365l184 -274zM250 376l-182 274v-547zM497 102v548l-183 -274zM99 54h365l-181 274z" />
    <glyph glyph-name=".null" horiz-adv-x="0" 
 />
    <glyph glyph-name="nonmarkingreturn" unicode="&#xd;" horiz-adv-x="189" 
 />
    <glyph glyph-name="NULL" horiz-adv-x="0" 
 />
    <glyph glyph-name="NULL" horiz-adv-x="0" 
 />
    <glyph glyph-name="space" unicode=" " horiz-adv-x="189" 
 />
    <glyph glyph-name="exclam" unicode="!" horiz-adv-x="377" 
d="M104 249l-28 469h226l-29 -469h-169zM271 19q-31 -30 -82 -30t-82 30t-31 77t31 77t82 30t82 -30t31 -77t-31 -77z" />
    <glyph glyph-name="quotedbl" unicode="&#x22;" horiz-adv-x="610" 
d="M106 426l-27 308h197l-27 -308h-143zM362 426l-28 308h197l-27 -308h-142z" />
    <glyph glyph-name="numbersign" unicode="#" 
d="M496 296h101v-113h-126l-40 -183h-119l41 183h-119l-41 -183h-118l40 183h-90v113h115l33 147h-101v113h126l40 183h119l-41 -183h119l41 183h118l-40 -183h90v-113h-115zM259 296h118l33 147h-118z" />
    <glyph glyph-name="dollar" unicode="$" 
d="M593.5 128q-26.5 -43 -54.5 -64q-24 -17 -64.5 -34.5t-85.5 -21.5l-4 -88h-107l3 87q-60 4 -128.5 30t-108.5 66l92 140q25 -26 68.5 -46.5t81.5 -24.5l3 104l-40 12q-29 10 -50 18.5t-46 26.5q-83 60 -83 163q0 59 25.5 100t61.5 67q61 44 149 49l1 60h108l-1 -65
q43 -3 101 -25.5t90 -54.5l-76 -135q-25 21 -60.5 38t-61.5 21l-2 -102l33 -12q89 -29 135.5 -80.5t46.5 -122.5q0 -63 -26.5 -106zM268 553.5q-15 -10.5 -15 -30.5q0 -19 13.5 -28t36.5 -15l2 84q-22 0 -37 -10.5zM422 232q-13 10 -31 17l-3 -84q47 0 47 38q0 19 -13 29z
" />
    <glyph glyph-name="percent" unicode="%" horiz-adv-x="1006" 
d="M380 353q-55 -61 -148 -61t-148.5 60.5t-55.5 162.5t55 163t149 61q93 0 148 -61t55 -163q0 -101 -55 -162zM238 45l448 692l81 -54l-447 -692zM274 594q-14 30 -42 30q-29 0 -43 -30t-14 -79t14 -78.5t43 -29.5q28 0 42 29.5t14 78.5t-14 79zM922 50q-55 -61 -148 -61
t-148 61t-55 162q0 102 55 163t148 61t148 -61t55 -163q0 -101 -55 -162zM817 291.5q-14 29.5 -43 29.5t-42.5 -29.5t-13.5 -79.5q0 -49 13.5 -78.5t42.5 -29.5t43 29.5t14 78.5q0 50 -14 79.5z" />
    <glyph glyph-name="ampersand" unicode="&#x26;" horiz-adv-x="825" 
d="M529 43q-43 -27 -92 -41t-140 -14q-69 0 -129.5 24t-97.5 70.5t-37 111.5q0 61 25.5 102t52 59.5t58.5 34.5l20 9l-7 7q-28 27 -47.5 59t-19.5 80q0 60 33.5 101.5t90 62t123.5 20.5q65 0 120 -21t87 -60.5t32 -91.5q0 -70 -34.5 -110.5t-86.5 -71.5l-11 -7l78 -81
q21 25 41.5 62.5t32.5 71.5l159 -70q-13 -42 -47 -98.5t-67 -89.5l153 -162h-251zM405 591q-15 14 -41 14t-41.5 -14t-15.5 -35q0 -17 10 -30t28 -29l25 -26q24 17 37 40.5t13 44.5t-15 35zM283 289q-16 -12 -28 -28.5t-12 -44.5q0 -32 24 -51.5t62 -19.5q31 0 53 8t28 14
l-122 127z" />
    <glyph glyph-name="quotesingle" unicode="'" horiz-adv-x="355" 
d="M106 426l-27 308h197l-27 -308h-143z" />
    <glyph glyph-name="parenleft" unicode="(" horiz-adv-x="429" 
d="M175.5 -84.5q-52.5 68.5 -92 171t-39.5 226.5t39.5 226.5t92 171t101.5 109.5l107 -86q-63 -70 -114 -175t-51 -246t51 -246t114 -175l-107 -86q-49 41 -101.5 109.5z" />
    <glyph glyph-name="parenright" unicode=")" horiz-adv-x="429" 
d="M345.5 86.5q-39.5 -102.5 -91.5 -171t-101 -109.5l-108 86q63 69 114 174.5t51 246.5t-51 246.5t-114 174.5l108 86q49 -41 101 -109.5t91.5 -171t39.5 -226.5t-39.5 -226.5z" />
    <glyph glyph-name="asterisk" unicode="*" horiz-adv-x="486" 
d="M406 402l-88 -63l-75 108l-75 -108l-88 63l85 104l-128 34l34 104l122 -44l-5 129h110l-5 -129l122 44l34 -104l-128 -34z" />
    <glyph glyph-name="plus" unicode="+" 
d="M414 81h-159v199h-199v158h199v199h159v-199h198v-158h-198v-199z" />
    <glyph glyph-name="comma" unicode="," horiz-adv-x="334" 
d="M241.5 -1.5q-47.5 -85.5 -113.5 -134.5l-136 57q62 62 99 139t37 155l161 -53q0 -78 -47.5 -163.5z" />
    <glyph glyph-name="hyphen" unicode="-" horiz-adv-x="372" 
d="M21 350h329v-150h-329v150z" />
    <glyph glyph-name="period" unicode="." horiz-adv-x="334" 
d="M249 19q-31 -30 -82 -30t-82 30t-31 77t31 77t82 30t82 -30t31 -77t-31 -77z" />
    <glyph glyph-name="slash" unicode="/" 
d="M67 -78l427 883l108 -54l-427 -882z" />
    <glyph glyph-name="zero" unicode="0" 
d="M598.5 161.5q-35.5 -83.5 -102.5 -128t-162 -44.5q-94 0 -161.5 44.5t-102.5 127.5t-35 197q0 115 35 198.5t102.5 128t161.5 44.5q95 0 162 -44.5t102.5 -128t35.5 -197.5t-35.5 -197.5zM403 506q-21 56 -69 56q-47 0 -68 -56t-21 -147t21 -147t68 -56q48 0 69 56
t21 147t-21 147z" />
    <glyph glyph-name="one" unicode="1" 
d="M271 506q-4 -4 -18 -12t-27 -15q-16 -8 -37.5 -16.5t-34.5 -12.5l-51 147q18 4 54 19t64 31q30 17 56.5 37.5t34.5 33.5h173v-718h-214v506z" />
    <glyph glyph-name="two" unicode="2" 
d="M70 140.5q31 60.5 66.5 96t94.5 85.5l34 29q58 46 86 77.5t28 63.5q0 39 -30 56t-74 17q-38 0 -81 -20t-79 -53l-87 134q41 36 110.5 69.5t177.5 33.5q83 0 144 -29t93 -80.5t32 -116.5q0 -52 -21.5 -94t-47 -68.5t-60.5 -54.5q-10 -7 -16 -13q-7 -6 -37 -30t-53 -46
t-31 -35h299v-162h-584q5 80 36 140.5z" />
    <glyph glyph-name="three" unicode="3" 
d="M563 87q-42 -49 -107.5 -73.5t-136.5 -24.5q-97 0 -170 28t-117 75l87 134q32 -34 79 -53.5t90 -19.5q46 0 76.5 18.5t30.5 54.5t-27 52t-69 16h-96v156h96q41 0 63 13t22 45t-29.5 47.5t-71.5 15.5q-38 0 -78.5 -14t-74.5 -39l-66 137q34 25 97.5 49.5t154.5 24.5
q74 0 135.5 -21t99 -64t37.5 -105q0 -58 -26.5 -94t-59.5 -54.5t-33 -14.5t38 -12.5t68 -54.5t30 -103q0 -70 -42 -119z" />
    <glyph glyph-name="four" unicode="4" 
d="M567 0h-211v134h-344v156l304 428h251v-426h77v-158h-77v-134zM176 290h180v258z" />
    <glyph glyph-name="five" unicode="5" 
d="M576.5 101.5q-43.5 -56.5 -112 -84.5t-142.5 -28q-99 0 -171 25.5t-118 66.5l86 139q38 -33 86.5 -51t91.5 -18q48 0 80.5 21.5t32.5 68.5q0 46 -33 67t-81 21q-36 0 -70 -12t-47 -21l-109 43l60 379h458v-162h-299l-16 -93q3 1 14 4t31.5 5.5t48.5 2.5q64 0 121.5 -24.5
t94.5 -77t37 -133.5q0 -82 -43.5 -138.5z" />
    <glyph glyph-name="six" unicode="6" 
d="M600 115.5q-33 -58.5 -98 -92.5t-156 -34q-94 0 -162 41.5t-104 120.5t-36 188q0 115 27.5 187t76.5 118q45 42 101 63.5t131 21.5q70 0 128 -18.5t98 -46.5l-70 -140q-19 15 -61.5 31.5t-94.5 16.5q-59 0 -96 -41t-37 -108q2 1 37.5 24t131.5 23q55 0 105 -25.5
t81 -75.5t31 -120q0 -75 -33 -133.5zM404.5 299q-22.5 24 -64.5 24q-25 0 -45 -10t-33 -22.5t-13 -13.5q0 -55 23.5 -93t67.5 -38t65.5 25t21.5 65q0 39 -22.5 63z" />
    <glyph glyph-name="seven" unicode="7" 
d="M107 0l294 556h-333v162h548v-159l-283 -559h-226z" />
    <glyph glyph-name="eight" unicode="8" 
d="M587.5 81.5q-40.5 -47.5 -107 -70t-146.5 -22.5t-146.5 22.5t-107 70t-40.5 117.5q0 63 35 104.5t92 63.5q-48 19 -78 58.5t-30 106.5q0 65 38 109.5t100.5 66t136.5 21.5t137 -21.5t101 -65.5t38 -109q0 -107 -117 -150q61 -19 98 -66.5t37 -117.5t-40.5 -117.5z
M390 567.5q-20 14.5 -56 14.5q-35 0 -55 -14.5t-20 -45.5q0 -29 25 -46t64 -29q3 2 21 12t29.5 26.5t11.5 36.5q0 31 -20 45.5zM405 256q-19 17 -39 25.5t-53 20.5q-26 -11 -47 -31.5t-21 -54.5q0 -36 26 -56t63 -20q38 0 64 20t26 56q0 23 -19 40z" />
    <glyph glyph-name="nine" unicode="9" 
d="M55 58l72 140q18 -15 63 -33t97 -18q60 0 97 40.5t37 107.5q-25 -17 -62.5 -32.5t-105.5 -15.5q-55 0 -105 25.5t-81 76t-31 120.5q0 75 33 133.5t97.5 92.5t156.5 34q94 0 162 -41.5t104 -120.5t36 -188q0 -114 -27.5 -186.5t-76.5 -119.5q-44 -42 -100.5 -63
t-131.5 -21q-136 0 -234 69zM420 444q0 55 -23.5 93t-67.5 38t-65.5 -25t-21.5 -65q0 -39 22.5 -63t64.5 -24q51 0 91 46z" />
    <glyph glyph-name="colon" unicode=":" horiz-adv-x="334" 
d="M249 352q-31 -30 -82 -30t-82 30t-31 77q0 48 31 78t82 30t82 -30t31 -78q0 -47 -31 -77zM249 19q-31 -30 -82 -30t-82 30t-31 77t31 77t82 30t82 -30t31 -77t-31 -77z" />
    <glyph glyph-name="semicolon" unicode=";" horiz-adv-x="334" 
d="M249 352q-31 -30 -82 -30t-82 30t-31 77q0 48 31 78t82 30t82 -30t31 -78q0 -47 -31 -77zM241.5 -1.5q-47.5 -85.5 -113.5 -134.5l-136 57q62 62 99 139t37 155l161 -53q0 -78 -47.5 -163.5z" />
    <glyph glyph-name="less" unicode="&#x3c;" 
d="M56 438l556 204v-170l-368 -113l368 -113v-169l-556 203v158z" />
    <glyph glyph-name="equal" unicode="=" 
d="M56 574h556v-158h-556v158zM56 303h556v-158h-556v158z" />
    <glyph glyph-name="greater" unicode="&#x3e;" 
d="M56 246l369 113l-369 113v170l556 -204v-158l-556 -203v169z" />
    <glyph glyph-name="question" unicode="?" horiz-adv-x="539" 
d="M509 458.5q-14 -31.5 -31 -48t-41 -33.5q-18 -12 -47.5 -30t-39.5 -24q-17 -10 -23.5 -21t-7.5 -31l-1 -22h-172l-2 45q-1 10 -1 28q0 28 11.5 50.5t45.5 43.5l70 43q29 17 43 29t14 27q0 44 -90 44q-46 0 -86.5 -17.5t-64.5 -34.5l-70 146q0 3 34 22.5t90.5 36.5
t129.5 17q79 0 136.5 -26.5t87 -70t29.5 -95.5q0 -47 -14 -78.5zM313.5 19q-31.5 -30 -81.5 -30q-51 0 -82 30t-31 77t31 77t82 30q50 0 81.5 -30t31.5 -77t-31.5 -77z" />
    <glyph glyph-name="at" unicode="@" horiz-adv-x="922" 
d="M845 186q-24 -54 -60 -90q-29 -29 -69 -45t-83 -16q-42 0 -72 21.5t-38 56.5q-12 -22 -45.5 -46t-79.5 -24q-59 0 -101.5 44t-42.5 134q0 64 26 120t71.5 89t100.5 33q54 0 79.5 -17.5t34.5 -33.5l27 40h96l-64 -243q-6 -21 -6 -37q0 -47 44 -47q25 0 50.5 18t44 60
t18.5 110q0 74 -36.5 134t-104.5 95t-160 35q-93 0 -165.5 -41.5t-113 -115t-40.5 -167.5t38.5 -165t110.5 -109.5t170 -38.5q63 0 115.5 10t87 21.5t34.5 12.5l27 -70q0 -2 -40 -17.5t-101.5 -29t-134.5 -13.5q-121 0 -212 49.5t-141 141t-50 214.5q0 120 58 212t153 142.5
t204 50.5q129 0 218 -50.5t132.5 -131t43.5 -169.5q0 -73 -24 -127zM532.5 338q-7.5 13 -23.5 24t-40 11q-26 0 -48.5 -22t-35.5 -56t-13 -69q0 -47 16.5 -63.5t43.5 -16.5q23 0 47.5 21.5t33.5 53.5l27 102q0 2 -7.5 15z" />
    <glyph glyph-name="A" unicode="A" horiz-adv-x="706" 
d="M458 113h-226l-32 -113h-211l231 718h266l232 -718h-229zM279 280h131l-65 234z" />
    <glyph glyph-name="B" unicode="B" horiz-adv-x="695" 
d="M585 45q-35 -22 -88.5 -33.5t-117.5 -11.5h-315v718h303q56 0 108 -9.5t84 -29.5q78 -47 78 -148q0 -54 -34 -95.5t-85 -54.5q71 -13 113 -60t42 -111q0 -109 -88 -165zM402.5 542q-18.5 16 -46.5 16h-78v-118h78q28 0 46.5 16t18.5 43t-18.5 43zM428 281q-25 16 -71 16
h-79v-140h79q46 0 71 16t25 54t-25 54z" />
    <glyph glyph-name="C" unicode="C" 
d="M631.5 69q-32.5 -29 -93.5 -54.5t-148 -25.5q-101 0 -183.5 42t-131 125t-48.5 203q0 119 52 202.5t136 125.5t180 42q83 0 142.5 -25.5t93 -54.5t33.5 -34l-99 -147q0 2 -21.5 22t-56 37t-77.5 17q-73 0 -118.5 -48.5t-45.5 -132.5t45.5 -132.5t118.5 -48.5
q43 0 77.5 16t56 35.5t21.5 21.5l99 -152q0 -5 -32.5 -34z" />
    <glyph glyph-name="D" unicode="D" horiz-adv-x="756" 
d="M697 196q-32 -69 -87 -115q-51 -42 -119 -61.5t-158 -19.5h-269v718h269q90 0 158.5 -20t118.5 -62q55 -45 87 -114.5t32 -162.5q0 -94 -32 -163zM460 507q-42 43 -132 43h-48v-377h48q89 0 132 43q48 48 48 146q0 97 -48 145z" />
    <glyph glyph-name="E" unicode="E" horiz-adv-x="616" 
d="M64 718h508v-168h-292v-99h270v-170h-270v-109h302v-172h-518v718z" />
    <glyph glyph-name="F" unicode="F" horiz-adv-x="579" 
d="M280 424h254v-171h-254v-253h-216v718h492v-168h-276v-126z" />
    <glyph glyph-name="G" unicode="G" horiz-adv-x="762" 
d="M554 56q0 -3 -21.5 -20t-67 -32t-115.5 -15q-83 0 -157 41.5t-120 124.5t-46 201q0 119 50.5 203t134 127t182.5 43q121 0 190 -41.5t96 -77.5l-115 -130q-28 30 -69 50t-91 20q-40 0 -76.5 -19t-59.5 -61t-23 -108t23 -108.5t59.5 -61.5t76.5 -19q32 0 55 6t35 13t12 8
v64h-97v156h302v-420h-140z" />
    <glyph glyph-name="H" unicode="H" horiz-adv-x="776" 
d="M496 280h-216v-280h-216v718h216v-265h216v265h216v-718h-216v280z" />
    <glyph glyph-name="I" unicode="I" horiz-adv-x="345" 
d="M64 718h216v-718h-216v718z" />
    <glyph glyph-name="J" unicode="J" horiz-adv-x="345" 
d="M280 718v-690q0 -58 -15.5 -98.5t-46.5 -69.5t-70.5 -41.5t-103.5 -12.5q-38 0 -67.5 6t-46 12.5t-20.5 8.5l28 144q0 -1 20.5 -6.5t44.5 -5.5q30 0 45.5 17.5t15.5 51.5v684h216z" />
    <glyph glyph-name="K" unicode="K" horiz-adv-x="701" 
d="M331 255l-51 -61v-194h-216v718h216v-255l178 255h248l-237 -292l243 -426h-249z" />
    <glyph glyph-name="L" unicode="L" horiz-adv-x="567" 
d="M64 718h216v-545h270v-173h-486v718z" />
    <glyph glyph-name="M" unicode="M" horiz-adv-x="938" 
d="M673 432l-113 -432h-194l-113 432v-432h-200l22 718h271l123 -465l123 465h271l22 -718h-212v432z" />
    <glyph glyph-name="N" unicode="N" horiz-adv-x="771" 
d="M269 407v-407h-205v718h222l216 -384v384h204v-718h-210z" />
    <glyph glyph-name="O" unicode="O" horiz-adv-x="786" 
d="M714.5 161.5q-44.5 -83.5 -127 -128t-194.5 -44.5t-194.5 44.5t-127 128t-44.5 197.5t44.5 197.5t127 128t194.5 44.5t194.5 -44.5t127 -128t44.5 -197.5t-44.5 -197.5zM502.5 500q-36.5 53 -109.5 53q-72 0 -109 -53t-37 -138q0 -86 37 -139.5t109 -53.5
q73 0 109.5 53.5t36.5 139.5q0 85 -36.5 138z" />
    <glyph glyph-name="P" unicode="P" horiz-adv-x="672" 
d="M628.5 352.5q-21.5 -46.5 -64.5 -77.5q-38 -28 -98.5 -41.5t-111.5 -13.5h-74v-220h-216v718h290q57 0 114 -13.5t96 -41.5q43 -31 64.5 -77.5t21.5 -116.5t-21.5 -116.5zM426 510.5q-8 16.5 -25 29.5q-13 10 -28.5 13t-48.5 3h-44v-174h44q31 0 48 3.5t29 12.5
q33 24 33 71q0 25 -8 41.5z" />
    <glyph glyph-name="Q" unicode="Q" horiz-adv-x="786" 
d="M727 188.5q-32 -68.5 -71.5 -106t-39.5 -31.5q8 -25 32.5 -54t46.5 -42l-181 -113q-34 21 -59.5 59.5t-38.5 88.5q-2 0 -8 -0.5t-15 -0.5q-112 0 -194.5 44.5t-127 128t-44.5 197.5t44.5 197.5t127 128t194.5 44.5t194.5 -44.5t127 -128t44.5 -197.5q0 -102 -32 -170.5z
M502.5 500q-36.5 53 -109.5 53q-72 0 -109 -53t-37 -138q0 -86 37 -139.5t109 -53.5q73 0 109.5 53.5t36.5 139.5q0 85 -36.5 138z" />
    <glyph glyph-name="R" unicode="R" horiz-adv-x="701" 
d="M334 247h-54v-247h-216v718h309q135 0 201 -46q40 -28 64.5 -74t24.5 -106q0 -70 -28 -122t-96 -84l167 -286h-243zM423.5 536q-23.5 20 -61.5 20h-82v-151h82q38 0 61.5 19.5t23.5 55.5t-23.5 56z" />
    <glyph glyph-name="S" unicode="S" horiz-adv-x="622" 
d="M432.5 542q-56.5 20 -99.5 20q-42 0 -61.5 -9.5t-19.5 -29.5q0 -17 14 -25.5t39 -17.5q23 -7 60 -18.5t63 -20.5q62 -22 100 -52q32 -26 51.5 -63t19.5 -94q0 -59 -23 -104t-60 -74q-82 -65 -222 -65q-83 0 -161.5 26.5t-126.5 69.5l90 158q45 -36 101.5 -56t101.5 -20
q43 0 64 9.5t21 30.5q0 18 -17 28.5t-44 18.5q-27 9 -45 14l-58 19q-70 25 -107 53q-75 59 -75 163q0 58 27 103t66 71q38 25 83 38.5t119 13.5q77 0 151.5 -26t118.5 -63l-78 -148q-36 30 -92.5 50z" />
    <glyph glyph-name="T" unicode="T" horiz-adv-x="593" 
d="M405 0h-216v550h-183v168h582v-168h-183v-550z" />
    <glyph glyph-name="U" unicode="U" horiz-adv-x="750" 
d="M690 718v-432q0 -79 -18 -131t-57 -91q-39 -38 -97.5 -56.5t-142.5 -18.5t-142.5 18.5t-96.5 56.5q-39 39 -57.5 91t-18.5 131v432h216v-441q0 -29 6 -47t20 -30q13 -11 33 -17t40 -6t40.5 6t33.5 17q14 12 20 30t6 47v441h215z" />
    <glyph glyph-name="V" unicode="V" horiz-adv-x="701" 
d="M226 0l-226 718h227l131 -486l132 486h211l-226 -718h-249z" />
    <glyph glyph-name="W" unicode="W" horiz-adv-x="1046" 
d="M625 0l-102 458l-102 -458h-232l-183 718h221l93 -464l95 464h217l95 -464l92 464h222l-183 -718h-233z" />
    <glyph glyph-name="X" unicode="X" horiz-adv-x="728" 
d="M364 237l-127 -237h-248l243 370l-221 348h242l111 -215l111 215h243l-216 -348l237 -370h-249z" />
    <glyph glyph-name="Y" unicode="Y" horiz-adv-x="690" 
d="M453 0h-216v286l-248 432h238l119 -266l117 266h239l-249 -432v-286z" />
    <glyph glyph-name="Z" unicode="Z" horiz-adv-x="675" 
d="M27 146l335 404h-319v168h588v-152l-324 -393h340v-173h-620v146z" />
    <glyph glyph-name="bracketleft" unicode="[" horiz-adv-x="429" 
d="M76 777h301v-107h-134v-719h134v-107h-301v933z" />
    <glyph glyph-name="backslash" unicode="\" 
d="M67 751l108 54l427 -883l-108 -53z" />
    <glyph glyph-name="bracketright" unicode="]" horiz-adv-x="429" 
d="M52 -49h134v719h-134v107h302v-933h-302v107z" />
    <glyph glyph-name="asciicircum" unicode="^" 
d="M334 566l-93 -206h-185l189 358h179l188 -358h-184z" />
    <glyph glyph-name="underscore" unicode="_" 
d="M0 -82h669v-80h-669v80z" />
    <glyph glyph-name="grave" unicode="`" horiz-adv-x="540" 
d="M136 757h187l80 -150h-144z" />
    <glyph glyph-name="a" unicode="a" horiz-adv-x="611" 
d="M366.5 20.5q-4.5 16.5 -4.5 33.5q-30 -29 -64.5 -47t-88.5 -18q-45 0 -88 16.5t-71.5 54t-28.5 98.5q0 85 54.5 121t124.5 50q67 13 156 13v12q0 32 -23 44t-67 12q-39 0 -86 -13.5t-83 -34.5l-48 140q45 23 111.5 38.5t131.5 15.5q134 0 202 -54q35 -28 53.5 -69
t18.5 -105v-192q0 -46 5.5 -76.5t21.5 -59.5h-220q-2 4 -6.5 20.5zM327 230.5q-22 -1.5 -37 -4.5q-58 -13 -58 -51q0 -24 16 -37.5t38 -13.5t42 11.5t28 31.5v65q-7 0 -29 -1.5z" />
    <glyph glyph-name="b" unicode="b" horiz-adv-x="675" 
d="M623 124q-30 -64 -83.5 -99.5t-123.5 -35.5q-62 0 -95 22.5t-57 52.5l-15 -64h-195v739h210v-259q18 26 56 51t100 25q70 0 123 -35.5t81.5 -100t28.5 -148.5t-30 -148zM416.5 364q-23.5 35 -67.5 35t-67 -35t-23 -89t23 -89.5t67 -35.5t67.5 35.5t23.5 89.5t-23.5 89z
" />
    <glyph glyph-name="c" unicode="c" horiz-adv-x="539" 
d="M504.5 39q-28.5 -18 -77.5 -34t-114 -16q-76 0 -143 32t-108 95.5t-41 155.5t41.5 156t109 96t144.5 32q65 0 113 -15.5t75 -33.5t27 -21l-63 -141q-16 16 -46.5 32t-71.5 16q-49 0 -83.5 -32t-34.5 -86t34.5 -86.5t83.5 -32.5q41 0 72 16.5t46 32.5l65 -145
q0 -3 -28.5 -21z" />
    <glyph glyph-name="d" unicode="d" horiz-adv-x="675" 
d="M410 64q-24 -31 -56.5 -53t-94.5 -22q-70 0 -124 35.5t-84 100t-30 147.5q0 84 29 148.5t81.5 100t122.5 35.5q62 0 101 -26t55 -50v259h210v-739h-194zM393 364q-23 35 -68 35q-44 0 -67 -35t-23 -89t23 -89.5t67 -35.5q45 0 68 35t23 90q0 54 -23 89z" />
    <glyph glyph-name="e" unicode="e" horiz-adv-x="601" 
d="M268.5 157.5q33.5 -19.5 81.5 -19.5q41 0 85 13.5t67 31.5l64 -119q0 -3 -30.5 -22.5t-85.5 -36t-131 -16.5q-87 0 -154.5 32.5t-105.5 96.5t-38 154q0 91 38 155t105 96.5t154 32.5q84 0 143.5 -36.5t90 -102t30.5 -151.5v-45h-350q3 -44 36.5 -63.5zM365 397.5
q-20 23.5 -57 23.5q-36 0 -56.5 -23t-25.5 -59h159q0 35 -20 58.5z" />
    <glyph glyph-name="f" unicode="f" horiz-adv-x="388" 
d="M368 606q-22 4 -34 4q-15 0 -25 -2.5t-17 -9.5q-11 -11 -11 -38v-15h109v-151h-109v-394h-210v394h-59v151h59v31q0 78 49 125q29 27 67.5 38t93.5 11q73 0 140 -21l-21 -130q-10 3 -32 7z" />
    <glyph glyph-name="g" unicode="g" horiz-adv-x="664" 
d="M599.5 -2q-15.5 -61 -60.5 -105q-48 -48 -103.5 -67.5t-138.5 -19.5q-75 0 -146.5 18t-113.5 42l60 145q100 -49 189 -49q60 0 92 25.5t32 75.5v39q-19 -28 -57 -51.5t-94 -23.5q-73 0 -126.5 33t-82.5 93t-29 139t29 138.5t82.5 92.5t126.5 33q61 0 93.5 -23.5
t52.5 -52.5l11 65h199v-409q0 -77 -15.5 -138zM389 368q-22 30 -66 30t-66 -30t-22 -74t22 -74t66 -30t66 30t22 74t-22 74z" />
    <glyph glyph-name="h" unicode="h" horiz-adv-x="662" 
d="M405 299q0 41 -15 62.5t-51 21.5q-35 0 -53 -21t-23 -52v-310h-210v739h210v-270q70 87 163 87q103 0 146 -57.5t43 -159.5v-339h-210v299z" />
    <glyph glyph-name="i" unicode="i" horiz-adv-x="316" 
d="M238 604.5q-31 -28.5 -80 -28.5t-80 28.5t-31 75.5q0 48 31 76t80 28q50 0 80.5 -28t30.5 -76q0 -47 -31 -75.5zM53 545h210v-545h-210v545z" />
    <glyph glyph-name="j" unicode="j" horiz-adv-x="316" 
d="M238 604.5q-31 -28.5 -80 -28.5t-80 28.5t-31 75.5q0 48 31 76t80 28q50 0 80.5 -28t30.5 -76q0 -47 -31 -75.5zM253 -81q-10 -37 -37 -65q-28 -27 -66.5 -37.5t-87.5 -10.5q-67 0 -121 25l23 143q4 -1 18.5 -4t28.5 -3q20 0 31 12t11 44v522h210v-534q0 -55 -10 -92z
" />
    <glyph glyph-name="k" unicode="k" horiz-adv-x="631" 
d="M305 181l-42 -45v-136h-210v739h210v-369l137 175h236l-191 -209l197 -336h-237z" />
    <glyph glyph-name="l" unicode="l" horiz-adv-x="316" 
d="M53 739h210v-739h-210v739z" />
    <glyph glyph-name="m" unicode="m" horiz-adv-x="980" 
d="M722 299q0 41 -14 62.5t-46 21.5q-53 0 -64 -72v-311h-210v299q0 41 -14 62.5t-46 21.5q-30 0 -44.5 -20t-20.5 -52v-311h-210v545h199l11 -76q33 44 68 65.5t87 21.5q56 0 96.5 -23.5t61.5 -69.5q40 47 78.5 70t96.5 23q91 0 136 -55t45 -156v-345h-210v299z" />
    <glyph glyph-name="n" unicode="n" horiz-adv-x="662" 
d="M405 299q0 41 -15 62.5t-51 21.5q-35 0 -53 -21t-23 -52v-310h-210v545h199l11 -76q70 87 163 87q103 0 146 -57.5t43 -159.5v-339h-210v299z" />
    <glyph glyph-name="o" unicode="o" horiz-adv-x="642" 
d="M583 120q-37 -64 -104.5 -97.5t-157.5 -33.5t-158 33.5t-105 97.5t-37 152q0 89 37 153t105 97.5t158 33.5t157.5 -33.5t104.5 -97.5t37 -153q0 -88 -37 -152zM386 365q-21 37 -65 37t-65 -37t-21 -93q0 -55 21 -92.5t65 -37.5t65 37.5t21 92.5q0 56 -21 93z" />
    <glyph glyph-name="p" unicode="p" horiz-adv-x="675" 
d="M623 124q-30 -64 -83.5 -99.5t-123.5 -35.5q-62 0 -95 22.5t-57 52.5v-247h-210v728h200l10 -65q18 26 56 51t100 25q70 0 123 -35.5t81.5 -100t28.5 -148.5t-30 -148zM416.5 364q-23.5 35 -67.5 35t-67 -35t-23 -89t23 -89.5t67 -35.5t67.5 35.5t23.5 89.5t-23.5 89z
" />
    <glyph glyph-name="q" unicode="q" horiz-adv-x="675" 
d="M410 64q-24 -31 -56.5 -53t-94.5 -22q-70 0 -124 35.5t-84 100t-30 147.5q0 84 29 148.5t81.5 100t122.5 35.5q62 0 101 -26t55 -50l10 65h200v-728h-210v247zM393 364q-23 35 -68 35q-44 0 -67 -35t-23 -89t23 -89.5t67 -35.5q45 0 68 35t23 90q0 54 -23 89z" />
    <glyph glyph-name="r" unicode="r" horiz-adv-x="461" 
d="M412 358.5q-16 3.5 -33 3.5q-43 0 -73 -26t-43 -76v-260h-210v545h199l11 -82q19 37 59 65t88 28q21 0 32.5 -2.5t11.5 -3.5l-22 -196q-4 1 -20 4.5z" />
    <glyph glyph-name="s" unicode="s" horiz-adv-x="525" 
d="M443 43q-31 -23 -72 -38.5t-121 -15.5q-83 0 -144.5 23.5t-98.5 51.5l70 130q45 -33 96.5 -48.5t81.5 -15.5q28 0 43.5 4.5t15.5 21.5q0 15 -17.5 22.5t-39.5 12.5t-30 7q-58 14 -90 28q-103 43 -103 151q0 82 65 130.5t179 48.5q68 0 119 -15.5t80.5 -33.5t29.5 -21
l-65 -119q-41 30 -83.5 42t-71.5 12q-27 0 -43.5 -5t-16.5 -22q0 -14 21 -22.5t44 -14t31 -7.5q47 -12 82 -26q103 -45 103 -145q0 -88 -65 -136z" />
    <glyph glyph-name="t" unicode="t" horiz-adv-x="432" 
d="M352 -4.5q-43 -6.5 -82 -6.5q-96 0 -140 40q-27 25 -38 57.5t-11 77.5v230h-70v151h70l11 130h200v-130h124v-151h-124v-187q0 -18 2.5 -27.5t8.5 -15.5q14 -14 47 -14q13 0 55 7l16 -146q-26 -9 -69 -15.5z" />
    <glyph glyph-name="u" unicode="u" horiz-adv-x="657" 
d="M393 76q-32 -39 -68 -63t-89 -24q-104 0 -146.5 57t-42.5 160v339h211v-302q0 -40 15.5 -60.5t51.5 -20.5q34 0 48.5 20.5t19.5 52.5v310h210v-545h-198z" />
    <glyph glyph-name="v" unicode="v" horiz-adv-x="620" 
d="M200 0l-206 545h227l92 -330l92 330h221l-206 -545h-220z" />
    <glyph glyph-name="w" unicode="w" horiz-adv-x="918" 
d="M546 0l-87 313l-87 -313h-210l-156 545h215l63 -336l78 336h194l78 -336l62 336h216l-156 -545h-210z" />
    <glyph glyph-name="x" unicode="x" horiz-adv-x="610" 
d="M303 164l-82 -164h-232l184 275l-173 270h233l75 -161l76 161h226l-173 -270l184 -275h-238z" />
    <glyph glyph-name="y" unicode="y" horiz-adv-x="626" 
d="M365.5 -119q-29.5 -43 -65.5 -59t-91 -16q-47 0 -84.5 6.5t-58.5 14t-26 9.5l41 153q0 -1 24 -9t41 -8q22 0 33 6.5t16 27.5l5 17l-200 522h227l92 -336l91 336h222l-206 -539q-31 -82 -60.5 -125z" />
    <glyph glyph-name="z" unicode="z" horiz-adv-x="534" 
d="M11 124l249 270h-237v151h489v-130l-237 -258h248v-157h-512v124z" />
    <glyph glyph-name="braceleft" unicode="{" horiz-adv-x="431" 
d="M250 -174q-71 3 -100.5 42.5t-35.5 107.5l-11 136q-5 53 -8 72t-15 30.5t-39 11.5h-23v146h23q27 0 39 11.5t15 30.5t8 72l11 135q6 68 36 108t100 43l135 5l6 -108l-62 -6q-25 -2 -36 -11.5t-14.5 -24.5t-6.5 -51l-11 -147q-3 -43 -11 -68t-28 -39.5t-59 -19.5v-6
q39 -5 59 -20t28 -39.5t11 -68.5l11 -147q3 -35 6.5 -50.5t14.5 -25t36 -11.5l62 -5l-6 -109z" />
    <glyph glyph-name="bar" unicode="|" horiz-adv-x="441" 
d="M141 777h158v-933h-158v933z" />
    <glyph glyph-name="braceright" unicode="}" horiz-adv-x="431" 
d="M351 214.5q-12 -11.5 -15.5 -31t-7.5 -71.5l-12 -136q-5 -68 -34.5 -107.5t-100.5 -42.5l-136 -6l-5 109l62 5q25 2 36 11.5t14.5 25t5.5 50.5l11 147q3 43 11.5 68t28.5 40t59 20v6q-39 5 -59 19.5t-28.5 39.5t-11.5 68l-11 147q-2 35 -5.5 50.5t-14.5 25t-36 11.5
l-62 6l5 108l136 -5q70 -3 100 -43.5t35 -107.5l12 -135q4 -52 7.5 -71.5t15.5 -31t39 -11.5h22v-146h-22q-27 0 -39 -11.5z" />
    <glyph glyph-name="asciitilde" unicode="~" 
d="M564.5 270q-53.5 -44 -118.5 -44q-36 0 -62 8.5t-37 16t-36 26.5q-6 4 -22 17t-33.5 20.5t-35.5 7.5q-26 0 -45 -26t-37 -64l-127 62q40 104 93.5 148t118.5 44q36 0 62 -8.5t37 -16t36 -26.5q6 -4 22 -17t33.5 -20.5t35.5 -7.5q26 0 45 26t37 64l127 -62
q-40 -104 -93.5 -148z" />
    <glyph glyph-name="uni00A0" unicode="&#xa0;" horiz-adv-x="189" 
 />
    <glyph glyph-name="exclamdown" unicode="&#xa1;" horiz-adv-x="377" 
d="M271 371q-31 -30 -82 -30t-82 30t-31 78q0 47 31 77t82 30t82 -30t31 -77q0 -48 -31 -78zM104 296h169l29 -469h-226z" />
    <glyph glyph-name="cent" unicode="&#xa2;" 
d="M533.5 105.5q-43.5 -19.5 -83.5 -24.5v-92h-108v89q-74 6 -132.5 41.5t-92 97.5t-33.5 142q0 120 70.5 194.5t187.5 87.5v88h108v-92q48 -8 86 -25.5t61 -40.5l-63 -139q-14 15 -36 27.5t-48 17.5v-234q50 11 84 45l65 -141q-22 -22 -65.5 -41.5zM295 436.5
q-19 -29.5 -19 -76.5q0 -87 66 -117v234q-28 -11 -47 -40.5z" />
    <glyph glyph-name="sterling" unicode="&#xa3;" 
d="M64 134l108 17q20 42 20 85q0 19 -3.5 39.5t-4.5 26.5h-98v107h83l-3 15q0 1 -5.5 21.5t-5.5 74.5q0 46 18 85t53 68q34 29 77.5 42.5t101.5 13.5q59 0 117 -22.5t98 -64.5l-86 -119q-47 54 -114 54q-40 0 -61 -22.5t-21 -57.5q0 -36 6 -56.5t6 -22.5l3 -9h181v-107h-167
q1 -4 3.5 -19.5t2.5 -33.5q0 -47 -23 -93h271v-156h-557v134z" />
    <glyph glyph-name="currency" unicode="&#xa4;" 
d="M434 157q-23 -11 -46 -17.5t-54 -6.5q-30 0 -53 6.5t-46 17.5l-94 -94l-103 103l94 94q-11 23 -17.5 46t-6.5 53q0 31 6.5 54t17.5 46l-94 94l103 102l94 -93q48 23 99 23q52 0 100 -23l94 93l103 -102l-94 -94q23 -48 23 -100q0 -51 -23 -99l94 -94l-103 -103zM392 417
q-23 23 -58 23q-34 0 -57 -23.5t-23 -57.5t23 -57t57 -23t57.5 23t23.5 57q0 35 -23 58z" />
    <glyph glyph-name="yen" unicode="&#xa5;" 
d="M616 410v-107h-178l-4 -11v-49h182v-107h-182v-136h-199v136h-182v107h182v49l-4 11h-178v107h126l-162 308h232l88 -243l89 243h226l-162 -308h126z" />
    <glyph glyph-name="brokenbar" unicode="&#xa6;" horiz-adv-x="441" 
d="M141 777h158v-372h-158v372zM141 217h158v-373h-158v373z" />
    <glyph glyph-name="section" unicode="&#xa7;" 
d="M579.5 236q-20.5 -35 -52.5 -57q31 -22 49 -58t18 -81q0 -43 -19.5 -79t-47.5 -60q-30 -25 -80 -42t-124 -17q-76 0 -143 24.5t-111 62.5l79 133q44 -33 94 -50.5t87 -17.5q70 0 70 32q0 16 -13 25.5t-36 16.5l-96 28q-83 24 -116 51q-58 46 -58 128q0 44 24 78t50 50
q-62 45 -62 135q0 50 24 88t59 61q64 42 182 42q63 0 129 -19t108 -49l-67 -130q-35 27 -85.5 42t-85.5 15q-76 0 -76 -31q0 -17 16 -25.5t49 -17.5l81 -24q81 -22 116 -50q25 -20 41.5 -51t16.5 -74q0 -44 -20.5 -79zM391 316l-52 16l-69 22q-2 -1 -8.5 -5.5t-12.5 -13.5
t-6 -21q0 -18 13 -28t33 -17l52 -16l69 -21q2 1 8.5 5t12.5 13t6 21q0 31 -46 45z" />
    <glyph glyph-name="dieresis" unicode="&#xa8;" horiz-adv-x="540" 
d="M221 623q-22 -22 -58 -22q-37 0 -59 22t-22 58q0 37 22 59t59 22q36 0 58 -22t22 -59q0 -36 -22 -58zM436 623q-22 -22 -59 -22q-36 0 -58 22t-22 58q0 37 22 59t58 22q37 0 59 -22t22 -59q0 -36 -22 -58z" />
    <glyph glyph-name="copyright" unicode="&#xa9;" horiz-adv-x="809" 
d="M728 170.5q-49 -85.5 -134.5 -135t-188.5 -49.5q-104 0 -189.5 49.5t-134.5 134.5t-49 189t49 189.5t134.5 134.5t189.5 49q103 0 188.5 -49t134.5 -134.5t49 -189.5q0 -103 -49 -188.5zM672 514.5q-41 70.5 -112 112t-155 41.5q-85 0 -155.5 -41.5t-112 -112
t-41.5 -155.5q0 -84 41.5 -155t112 -112t155.5 -41q84 0 155 41t112 112t41 155q0 85 -41 155.5zM513.5 162.5q-38.5 -21.5 -106.5 -21.5q-55 0 -103 27t-77 76.5t-29 114.5q0 66 29 115.5t77 76t103 26.5q69 0 107.5 -20.5t56.5 -41.5l-53 -84q-20 19 -43.5 32t-56.5 13
q-43 0 -74 -28.5t-31 -87.5q0 -55 31.5 -85t73.5 -30q55 0 100 45l53 -84q-19 -22 -57.5 -43.5z" />
    <glyph glyph-name="ordfeminine" unicode="&#xaa;" horiz-adv-x="480" 
d="M286 326.5q-3 5.5 -6 15.5t-3 20q-44 -51 -126 -51q-54 0 -92 29t-38 92q0 96 136 126q46 10 120 10v8q0 21 -16.5 30.5t-50.5 9.5q-32 0 -70.5 -11t-61.5 -25l-40 106q32 16 85.5 29.5t107.5 13.5q106 0 157 -41q25 -21 39.5 -50t14.5 -73v-147q0 -31 5 -52t15 -47h-172
q-1 2 -4 7.5zM225 486q-43 -12 -43 -39q0 -16 12 -23.5t31 -7.5q16 0 30.5 8t22.5 22v46q-26 0 -53 -6z" />
    <glyph glyph-name="guillemotleft" unicode="&#xab;" horiz-adv-x="622" 
d="M42 243v85l181 209l88 -74l-147 -177l147 -179l-87 -73zM311 243v85l181 209l88 -74l-148 -177l148 -179l-88 -73z" />
    <glyph glyph-name="logicalnot" unicode="&#xac;" 
d="M443 416h-392v158h556v-429h-164v271z" />
    <glyph glyph-name="uni00AD" unicode="&#xad;" horiz-adv-x="372" 
d="M21 350h329v-150h-329v150z" />
    <glyph glyph-name="registered" unicode="&#xae;" horiz-adv-x="809" 
d="M728 328.5q-49 -85.5 -134.5 -134.5t-188.5 -49q-104 0 -189.5 49t-134.5 134.5t-49 189.5q0 103 49 188.5t134.5 134.5t189.5 49q103 0 188.5 -49t134.5 -134.5t49 -188.5q0 -104 -49 -189.5zM676.5 676q-41.5 72 -113.5 113.5t-158 41.5q-87 0 -158.5 -41.5
t-113 -113.5t-41.5 -158q0 -87 41.5 -158.5t113 -113t158.5 -41.5q86 0 158 41.5t113.5 113t41.5 158.5q0 86 -41.5 158zM397 463h-33v-144h-110v399h187q59 0 100 -33t41 -94q0 -54 -25 -79t-50 -36l86 -157h-122zM448 625.5q-15 11.5 -34 11.5h-51v-92h51q19 0 34 11.5
t15 34.5t-15 34.5z" />
    <glyph glyph-name="macron" unicode="&#xaf;" horiz-adv-x="540" 
d="M81 730h378v-96h-378v96z" />
    <glyph glyph-name="degree" unicode="&#xb0;" horiz-adv-x="435" 
d="M345 508.5q-20 -33.5 -53.5 -53.5t-73.5 -20t-74 19.5t-54 53t-20 74.5q0 40 20 73.5t53.5 53.5t73.5 20t74 -19.5t54 -53.5t20 -74t-20 -73.5zM270.5 635.5q-21.5 21.5 -52.5 21.5q-32 0 -53 -21.5t-21 -53.5t21 -53.5t52 -21.5q32 0 53.5 21.5t21.5 53.5t-21.5 53.5z
" />
    <glyph glyph-name="plusminus" unicode="&#xb1;" 
d="M414 192h-159v184h-199v158h199v185h159v-185h198v-158h-198v-184zM56 158h556v-158h-556v158z" />
    <glyph glyph-name="two.superior" unicode="&#xb2;" horiz-adv-x="488" 
d="M60 513q19 37 41.5 61t57.5 53q16 14 43 33q31 22 46 36t15 28q0 39 -55 39q-50 0 -107 -50l-55 103q7 7 31.5 21.5t65 27.5t88.5 13q80 0 128.5 -38t48.5 -100q0 -37 -19 -67t-38.5 -46t-51.5 -38l-26 -20q-34 -25 -38 -29h196v-113h-395q5 49 24 86z" />
    <glyph glyph-name="three.superior" unicode="&#xb3;" horiz-adv-x="488" 
d="M384.5 477.5q-29.5 -31.5 -74.5 -46.5t-91 -15q-58 0 -105 18.5t-72 43.5l53 93q20 -21 53.5 -34t60.5 -13t46.5 11.5t19.5 31.5q0 39 -50 39h-65v96h59q45 0 45 32q0 16 -17.5 24.5t-41.5 8.5q-50 0 -99 -33l-43 98q24 16 65.5 31t96.5 15q71 0 124 -31t53 -90
q0 -39 -18 -64t-46 -34q34 -10 55 -37t21 -68q0 -45 -29.5 -76.5z" />
    <glyph glyph-name="acute" unicode="&#xb4;" horiz-adv-x="540" 
d="M137 607l80 150h188l-124 -150h-144z" />
    <glyph glyph-name="uni00B5" unicode="&#xb5;" horiz-adv-x="657" 
d="M393 76q-20 -29 -54.5 -49.5t-80.5 -20.5v-189h-211v728h211v-302q0 -40 15.5 -60.5t51.5 -20.5q34 0 48.5 20.5t19.5 52.5v310h210v-545h-198z" />
    <glyph glyph-name="paragraph" unicode="&#xb6;" 
d="M597 -156h-108v771h-90v-469h-75q-135 0 -210.5 75t-75.5 211q0 135 75.5 210.5t210.5 75.5h335v-103h-62v-771z" />
    <glyph glyph-name="periodcentered" unicode="&#xb7;" horiz-adv-x="334" 
d="M248.5 199.5q-31.5 -30.5 -81.5 -30.5t-81.5 30.5t-31.5 77.5t31 77t82 30t82 -30t31 -77t-31.5 -77.5z" />
    <glyph glyph-name="cedilla" unicode="&#xb8;" horiz-adv-x="540" 
d="M142 -150l110 150h146l-67 -150h-189z" />
    <glyph glyph-name="one.superior" unicode="&#xb9;" horiz-adv-x="488" 
d="M180 712q-17 -9 -43.5 -19t-43.5 -15l-34 107q112 38 161 87h116v-445h-156v285z" />
    <glyph glyph-name="ordmasculine" unicode="&#xba;" horiz-adv-x="495" 
d="M412 362q-61 -56 -165 -56q-103 0 -164.5 56t-61.5 156t61.5 155.5t164.5 55.5q104 0 165 -55.5t61 -155.5t-61 -156zM291.5 590q-15.5 26 -44.5 26q-28 0 -43.5 -26.5t-15.5 -70.5t15.5 -71t43.5 -27q29 0 44.5 27.5t15.5 71.5t-15.5 70z" />
    <glyph glyph-name="guillemotright" unicode="&#xbb;" horiz-adv-x="622" 
d="M42 107l148 178l-148 178l88 74l181 -209v-85l-181 -209zM311 107l147 178l-147 178l87 74l182 -209v-85l-181 -209z" />
    <glyph glyph-name="onequarter" unicode="&#xbc;" horiz-adv-x="984" 
d="M198 45l447 692l82 -54l-448 -692zM138 571q-18 -10 -45.5 -20.5t-41.5 -13.5l-34 107q111 38 162 87h115v-445h-156v285zM885 0h-139v75h-218v102l202 266h155v-266h60v-102h-60v-75zM641 177h106v150z" />
    <glyph glyph-name="onehalf" unicode="&#xbd;" horiz-adv-x="1040" 
d="M198 45l447 692l82 -54l-448 -692zM138 571q-18 -10 -45.5 -20.5t-41.5 -13.5l-34 107q111 38 162 87h115v-445h-156v285zM613.5 87q18.5 37 42 61t57.5 52q16 14 43 33q31 22 46 36t15 28q0 39 -55 39q-49 0 -108 -50l-54 103q21 17 69 39.5t115 22.5q81 0 129.5 -38
t48.5 -100q0 -37 -19 -67t-38.5 -46t-51.5 -38q-7 -5 -14 -10.5t-14 -10.5q-33 -24 -36 -28h195v-113h-394q5 50 23.5 87z" />
    <glyph glyph-name="threequarters" unicode="&#xbe;" horiz-adv-x="1052" 
d="M376.5 336q-29.5 -31 -74.5 -46t-91 -15q-58 0 -105.5 18.5t-71.5 43.5l53 92q20 -20 53.5 -33t60.5 -13t46.5 11.5t19.5 31.5q0 38 -50 38h-64v96h58q46 0 46 33q0 16 -18 24.5t-42 8.5q-50 0 -99 -33l-43 97q22 16 64.5 31.5t97.5 15.5q71 0 124 -31t53 -90
q0 -40 -18 -64.5t-46 -33.5q34 -10 55 -37.5t21 -68.5q0 -45 -29.5 -76zM266 45l447 692l81 -54l-447 -692zM953 0h-139v75h-218v102l202 266h155v-266h59v-102h-59v-75zM709 177h106v150z" />
    <glyph glyph-name="questiondown" unicode="&#xbf;" horiz-adv-x="539" 
d="M389 371q-31 -30 -82 -30q-50 0 -81.5 30.5t-31.5 77.5t31.5 77t81.5 30q51 0 82 -30t31 -77q0 -48 -31 -78zM489 -130.5q-34 -19.5 -90.5 -36.5t-129.5 -17q-79 0 -136.5 26t-87 70t-29.5 96q0 66 24.5 100.5t61.5 58.5q18 13 47.5 31t39.5 23q17 11 23.5 21.5t7.5 30.5
l1 23h172l2 -45q1 -10 1 -28q0 -29 -11.5 -51t-45.5 -43l-70 -43q-29 -17 -43 -29t-14 -28q0 -19 20.5 -31.5t69.5 -12.5q71 0 151 52l70 -145q0 -3 -34 -22.5z" />
    <glyph glyph-name="Agrave" unicode="&#xc0;" horiz-adv-x="706" 
d="M458 113h-226l-32 -113h-211l231 718h266l232 -718h-229zM279 280h131l-65 234zM164 929h187l80 -150h-144z" />
    <glyph glyph-name="Aacute" unicode="&#xc1;" horiz-adv-x="706" 
d="M458 113h-226l-32 -113h-211l231 718h266l232 -718h-229zM279 280h131l-65 234zM276 779l80 150h188l-124 -150h-144z" />
    <glyph glyph-name="Acircumflex" unicode="&#xc2;" horiz-adv-x="706" 
d="M458 113h-226l-32 -113h-211l231 718h266l232 -718h-229zM279 280h131l-65 234zM346 861l-59 -82h-141l109 150h181l110 -150h-140z" />
    <glyph glyph-name="Atilde" unicode="&#xc3;" horiz-adv-x="706" 
d="M458 113h-226l-32 -113h-211l231 718h266l232 -718h-229zM279 280h131l-65 234zM537.5 849q-17.5 -33 -47.5 -53.5t-65 -20.5q-31 0 -49.5 7t-30 14t-16.5 10q-3 2 -14.5 8.5t-21.5 9.5t-21 3q-16 0 -26.5 -13t-14.5 -35l-93 10q0 36 17.5 69t47.5 53.5t65 20.5
q31 0 50 -6.5t30.5 -14t15.5 -9.5q3 -2 14.5 -8.5t21.5 -9.5t21 -3q16 0 26.5 13t14.5 35l93 -10q0 -37 -17.5 -70z" />
    <glyph glyph-name="Adieresis" unicode="&#xc4;" horiz-adv-x="706" 
d="M458 113h-226l-32 -113h-211l231 718h266l232 -718h-229zM279 280h131l-65 234zM305 795q-22 -22 -58 -22q-37 0 -59 22t-22 58q0 37 22 59t59 22q36 0 58 -22t22 -59q0 -36 -22 -58zM520 795q-22 -22 -59 -22q-36 0 -58 22t-22 58q0 37 22 59t58 22q37 0 59 -22t22 -59
q0 -36 -22 -58z" />
    <glyph glyph-name="Aring" unicode="&#xc5;" horiz-adv-x="706" 
d="M458 113h-226l-32 -113h-211l231 718h266l232 -718h-229zM279 280h131l-65 234zM437 804q-32 -31 -83 -31t-83 31t-32 82t32 82t83 31t83 -31t32 -82t-32 -82zM389 921q-14 14 -35 14t-35 -14t-14 -35t14 -34.5t35 -13.5t35 13.5t14 34.5t-14 35z" />
    <glyph glyph-name="AE" unicode="&#xc6;" horiz-adv-x="1000" 
d="M471 140h-212l-65 -140h-239l373 718h628v-168h-269v-99h248v-170h-248v-109h279v-172h-495v140zM452 556l-118 -254h137v254h-19z" />
    <glyph glyph-name="Ccedilla" unicode="&#xc7;" 
d="M487.5 198q34.5 16 56 35.5t21.5 21.5l99 -152q0 -3 -25.5 -27.5t-72.5 -49t-114 -33.5l-64 -143h-189l108 147q-126 24 -203 116.5t-77 245.5q0 119 52 202.5t136 125.5t180 42q83 0 142.5 -25.5t93 -54.5t33.5 -34l-99 -147q0 2 -21.5 22t-56 37t-77.5 17
q-73 0 -118.5 -48.5t-45.5 -132.5t45.5 -132.5t118.5 -48.5q43 0 77.5 16z" />
    <glyph glyph-name="Egrave" unicode="&#xc8;" horiz-adv-x="616" 
d="M64 718h508v-168h-292v-99h270v-170h-270v-109h302v-172h-518v718zM148 929h187l80 -150h-144z" />
    <glyph glyph-name="Eacute" unicode="&#xc9;" horiz-adv-x="616" 
d="M64 718h508v-168h-292v-99h270v-170h-270v-109h302v-172h-518v718zM210 779l80 150h188l-124 -150h-144z" />
    <glyph glyph-name="Ecircumflex" unicode="&#xca;" horiz-adv-x="616" 
d="M64 718h508v-168h-292v-99h270v-170h-270v-109h302v-172h-518v718zM318 861l-59 -82h-141l109 150h181l110 -150h-140z" />
    <glyph glyph-name="Edieresis" unicode="&#xcb;" horiz-adv-x="616" 
d="M64 718h508v-168h-292v-99h270v-170h-270v-109h302v-172h-518v718zM270 795q-22 -22 -58 -22q-37 0 -59 22t-22 58q0 37 22 59t59 22q36 0 58 -22t22 -59q0 -36 -22 -58zM485 795q-22 -22 -59 -22q-36 0 -58 22t-22 58q0 37 22 59t58 22q37 0 59 -22t22 -59
q0 -36 -22 -58z" />
    <glyph glyph-name="Igrave" unicode="&#xcc;" horiz-adv-x="345" 
d="M64 718h216v-718h-216v718zM11 929h187l80 -150h-144z" />
    <glyph glyph-name="Iacute" unicode="&#xcd;" horiz-adv-x="345" 
d="M64 718h216v-718h-216v718zM65 779l80 150h188l-124 -150h-144z" />
    <glyph glyph-name="Icircumflex" unicode="&#xce;" horiz-adv-x="345" 
d="M64 718h216v-718h-216v718zM173 861l-59 -82h-141l109 150h181l110 -150h-140z" />
    <glyph glyph-name="Idieresis" unicode="&#xcf;" horiz-adv-x="345" 
d="M64 718h216v-718h-216v718zM123 795q-22 -22 -58 -22q-37 0 -59 22t-22 58q0 37 22 59t59 22q36 0 58 -22t22 -59q0 -36 -22 -58zM338 795q-22 -22 -59 -22q-36 0 -58 22t-22 58q0 37 22 59t58 22q37 0 59 -22t22 -59q0 -36 -22 -58z" />
    <glyph glyph-name="Eth" unicode="&#xd0;" horiz-adv-x="756" 
d="M697 196q-32 -69 -87 -115q-51 -42 -119 -61.5t-158 -19.5h-269v292h-47v140h47v286h269q90 0 158.5 -20t118.5 -62q55 -45 87 -114.5t32 -162.5q0 -94 -32 -163zM460 507q-42 43 -132 43h-48v-118h99v-140h-99v-119h48q89 0 132 43q48 48 48 146q0 97 -48 145z" />
    <glyph glyph-name="Ntilde" unicode="&#xd1;" horiz-adv-x="771" 
d="M269 407v-407h-205v718h222l216 -384v384h204v-718h-210zM575.5 849q-17.5 -33 -47.5 -53.5t-65 -20.5q-31 0 -49.5 7t-30 14t-16.5 10q-3 2 -14.5 8.5t-21.5 9.5t-21 3q-16 0 -26.5 -13t-14.5 -35l-93 10q0 36 17.5 69t47.5 53.5t65 20.5q31 0 50 -6.5t30.5 -14
t15.5 -9.5q3 -2 14.5 -8.5t21.5 -9.5t21 -3q16 0 26.5 13t14.5 35l93 -10q0 -37 -17.5 -70z" />
    <glyph glyph-name="Ograve" unicode="&#xd2;" horiz-adv-x="786" 
d="M714.5 161.5q-44.5 -83.5 -127 -128t-194.5 -44.5t-194.5 44.5t-127 128t-44.5 197.5t44.5 197.5t127 128t194.5 44.5t194.5 -44.5t127 -128t44.5 -197.5t-44.5 -197.5zM502.5 500q-36.5 53 -109.5 53q-72 0 -109 -53t-37 -138q0 -86 37 -139.5t109 -53.5
q73 0 109.5 53.5t36.5 139.5q0 85 -36.5 138zM200 929h187l80 -150h-144z" />
    <glyph glyph-name="Oacute" unicode="&#xd3;" horiz-adv-x="786" 
d="M714.5 161.5q-44.5 -83.5 -127 -128t-194.5 -44.5t-194.5 44.5t-127 128t-44.5 197.5t44.5 197.5t127 128t194.5 44.5t194.5 -44.5t127 -128t44.5 -197.5t-44.5 -197.5zM502.5 500q-36.5 53 -109.5 53q-72 0 -109 -53t-37 -138q0 -86 37 -139.5t109 -53.5
q73 0 109.5 53.5t36.5 139.5q0 85 -36.5 138zM320 779l80 150h188l-124 -150h-144z" />
    <glyph glyph-name="Ocircumflex" unicode="&#xd4;" horiz-adv-x="786" 
d="M714.5 161.5q-44.5 -83.5 -127 -128t-194.5 -44.5t-194.5 44.5t-127 128t-44.5 197.5t44.5 197.5t127 128t194.5 44.5t194.5 -44.5t127 -128t44.5 -197.5t-44.5 -197.5zM502.5 500q-36.5 53 -109.5 53q-72 0 -109 -53t-37 -138q0 -86 37 -139.5t109 -53.5
q73 0 109.5 53.5t36.5 139.5q0 85 -36.5 138zM393 861l-59 -82h-141l109 150h181l110 -150h-140z" />
    <glyph glyph-name="Otilde" unicode="&#xd5;" horiz-adv-x="786" 
d="M714.5 161.5q-44.5 -83.5 -127 -128t-194.5 -44.5t-194.5 44.5t-127 128t-44.5 197.5t44.5 197.5t127 128t194.5 44.5t194.5 -44.5t127 -128t44.5 -197.5t-44.5 -197.5zM502.5 500q-36.5 53 -109.5 53q-72 0 -109 -53t-37 -138q0 -86 37 -139.5t109 -53.5
q73 0 109.5 53.5t36.5 139.5q0 85 -36.5 138zM583.5 849q-17.5 -33 -47.5 -53.5t-65 -20.5q-31 0 -49.5 7t-30 14t-16.5 10q-3 2 -14.5 8.5t-21.5 9.5t-21 3q-16 0 -26.5 -13t-14.5 -35l-93 10q0 36 17.5 69t47.5 53.5t65 20.5q31 0 50 -6.5t30.5 -14t15.5 -9.5
q3 -2 14.5 -8.5t21.5 -9.5t21 -3q16 0 26.5 13t14.5 35l93 -10q0 -37 -17.5 -70z" />
    <glyph glyph-name="Odieresis" unicode="&#xd6;" horiz-adv-x="786" 
d="M714.5 161.5q-44.5 -83.5 -127 -128t-194.5 -44.5t-194.5 44.5t-127 128t-44.5 197.5t44.5 197.5t127 128t194.5 44.5t194.5 -44.5t127 -128t44.5 -197.5t-44.5 -197.5zM502.5 500q-36.5 53 -109.5 53q-72 0 -109 -53t-37 -138q0 -86 37 -139.5t109 -53.5
q73 0 109.5 53.5t36.5 139.5q0 85 -36.5 138zM345 795q-22 -22 -58 -22q-37 0 -59 22t-22 58q0 37 22 59t59 22q36 0 58 -22t22 -59q0 -36 -22 -58zM560 795q-22 -22 -59 -22q-36 0 -58 22t-22 58q0 37 22 59t58 22q37 0 59 -22t22 -59q0 -36 -22 -58z" />
    <glyph glyph-name="multiply" unicode="&#xd7;" 
d="M334 249l-157 -157l-110 110l157 157l-157 157l110 111l157 -157l158 157l110 -111l-157 -157l157 -157l-110 -110z" />
    <glyph glyph-name="Oslash" unicode="&#xd8;" horiz-adv-x="786" 
d="M714.5 161.5q-44.5 -83.5 -127 -128t-194.5 -44.5t-192 43l-55 -69l-87 70l55 68q-42 48 -64.5 113t-22.5 145q0 114 44.5 197.5t127 128t194.5 44.5q111 0 192 -43l57 69l87 -70l-56 -68q86 -97 86 -258q0 -114 -44.5 -197.5zM393 553q-72 0 -109 -53t-37 -138
q0 -44 11 -83l206 255q-30 19 -71 19zM530 438l-205 -253q32 -16 68 -16q73 0 109.5 53.5t36.5 139.5q0 42 -9 76z" />
    <glyph glyph-name="Ugrave" unicode="&#xd9;" horiz-adv-x="750" 
d="M690 718v-432q0 -79 -18 -131t-57 -91q-39 -38 -97.5 -56.5t-142.5 -18.5t-142.5 18.5t-96.5 56.5q-39 39 -57.5 91t-18.5 131v432h216v-441q0 -29 6 -47t20 -30q13 -11 33 -17t40 -6t40.5 6t33.5 17q14 12 20 30t6 47v441h215zM203 929h187l80 -150h-144z" />
    <glyph glyph-name="Uacute" unicode="&#xda;" horiz-adv-x="750" 
d="M690 718v-432q0 -79 -18 -131t-57 -91q-39 -38 -97.5 -56.5t-142.5 -18.5t-142.5 18.5t-96.5 56.5q-39 39 -57.5 91t-18.5 131v432h216v-441q0 -29 6 -47t20 -30q13 -11 33 -17t40 -6t40.5 6t33.5 17q14 12 20 30t6 47v441h215zM280 779l80 150h188l-124 -150h-144z" />
    <glyph glyph-name="Ucircumflex" unicode="&#xdb;" horiz-adv-x="750" 
d="M690 718v-432q0 -79 -18 -131t-57 -91q-39 -38 -97.5 -56.5t-142.5 -18.5t-142.5 18.5t-96.5 56.5q-39 39 -57.5 91t-18.5 131v432h216v-441q0 -29 6 -47t20 -30q13 -11 33 -17t40 -6t40.5 6t33.5 17q14 12 20 30t6 47v441h215zM374 861l-59 -82h-141l109 150h181
l110 -150h-140z" />
    <glyph glyph-name="Udieresis" unicode="&#xdc;" horiz-adv-x="750" 
d="M690 718v-432q0 -79 -18 -131t-57 -91q-39 -38 -97.5 -56.5t-142.5 -18.5t-142.5 18.5t-96.5 56.5q-39 39 -57.5 91t-18.5 131v432h216v-441q0 -29 6 -47t20 -30q13 -11 33 -17t40 -6t40.5 6t33.5 17q14 12 20 30t6 47v441h215zM327 795q-22 -22 -58 -22q-37 0 -59 22
t-22 58q0 37 22 59t59 22q36 0 58 -22t22 -59q0 -36 -22 -58zM542 795q-22 -22 -59 -22q-36 0 -58 22t-22 58q0 37 22 59t58 22q37 0 59 -22t22 -59q0 -36 -22 -58z" />
    <glyph glyph-name="Yacute" unicode="&#xdd;" horiz-adv-x="690" 
d="M453 0h-216v286l-248 432h238l119 -266l117 266h239l-249 -432v-286zM258 779l80 150h188l-124 -150h-144z" />
    <glyph glyph-name="Thorn" unicode="&#xde;" horiz-adv-x="672" 
d="M622.5 256.5q-21.5 -46.5 -64.5 -77.5q-37 -28 -97.5 -41.5t-112.5 -13.5h-68v-124h-216v718h216v-97h68q58 0 115 -13t95 -41q43 -31 64.5 -77.5t21.5 -116.5t-21.5 -116.5zM420 414q-8 17 -25 30q-12 9 -28.5 12.5t-47.5 3.5h-39v-174h43q29 0 45 3.5t27 12.5
q17 13 25 30t8 41t-8 41z" />
    <glyph glyph-name="germandbls" unicode="&#xdf;" horiz-adv-x="678" 
d="M619.5 86.5q-33.5 -50.5 -88.5 -74t-121 -23.5q-30 0 -54 4t-37.5 8.5t-16.5 6.5l23 141q0 -1 12 -4.5t30 -3.5q28 0 52 19.5t24 68.5q0 50 -28.5 70t-69.5 20h-32v144h26q36 0 53.5 20.5t17.5 53.5q0 32 -17.5 52.5t-53.5 20.5q-38 0 -56 -22q-20 -22 -20 -74v-514h-210
v497q0 120 66 181q36 34 87.5 53t143.5 19q81 0 139 -26t87 -69t29 -93q0 -45 -17.5 -80t-44.5 -56t-57 -27q74 -9 120.5 -57.5t46.5 -126.5t-33.5 -128.5z" />
    <glyph glyph-name="agrave" unicode="&#xe0;" horiz-adv-x="611" 
d="M366.5 20.5q-4.5 16.5 -4.5 33.5q-30 -29 -64.5 -47t-88.5 -18q-45 0 -88 16.5t-71.5 54t-28.5 98.5q0 85 54.5 121t124.5 50q67 13 156 13v12q0 32 -23 44t-67 12q-39 0 -86 -13.5t-83 -34.5l-48 140q45 23 111.5 38.5t131.5 15.5q134 0 202 -54q35 -28 53.5 -69
t18.5 -105v-192q0 -46 5.5 -76.5t21.5 -59.5h-220q-2 4 -6.5 20.5zM327 230.5q-22 -1.5 -37 -4.5q-58 -13 -58 -51q0 -24 16 -37.5t38 -13.5t42 11.5t28 31.5v65q-7 0 -29 -1.5zM136 757h187l80 -150h-144z" />
    <glyph glyph-name="aacute" unicode="&#xe1;" horiz-adv-x="611" 
d="M366.5 20.5q-4.5 16.5 -4.5 33.5q-30 -29 -64.5 -47t-88.5 -18q-45 0 -88 16.5t-71.5 54t-28.5 98.5q0 85 54.5 121t124.5 50q67 13 156 13v12q0 32 -23 44t-67 12q-39 0 -86 -13.5t-83 -34.5l-48 140q45 23 111.5 38.5t131.5 15.5q134 0 202 -54q35 -28 53.5 -69
t18.5 -105v-192q0 -46 5.5 -76.5t21.5 -59.5h-220q-2 4 -6.5 20.5zM327 230.5q-22 -1.5 -37 -4.5q-58 -13 -58 -51q0 -24 16 -37.5t38 -13.5t42 11.5t28 31.5v65q-7 0 -29 -1.5zM217 607l80 150h188l-124 -150h-144z" />
    <glyph glyph-name="acircumflex" unicode="&#xe2;" horiz-adv-x="611" 
d="M366.5 20.5q-4.5 16.5 -4.5 33.5q-30 -29 -64.5 -47t-88.5 -18q-45 0 -88 16.5t-71.5 54t-28.5 98.5q0 85 54.5 121t124.5 50q67 13 156 13v12q0 32 -23 44t-67 12q-39 0 -86 -13.5t-83 -34.5l-48 140q45 23 111.5 38.5t131.5 15.5q134 0 202 -54q35 -28 53.5 -69
t18.5 -105v-192q0 -46 5.5 -76.5t21.5 -59.5h-220q-2 4 -6.5 20.5zM327 230.5q-22 -1.5 -37 -4.5q-58 -13 -58 -51q0 -24 16 -37.5t38 -13.5t42 11.5t28 31.5v65q-7 0 -29 -1.5zM307 689l-59 -82h-141l109 150h181l110 -150h-140z" />
    <glyph glyph-name="atilde" unicode="&#xe3;" horiz-adv-x="611" 
d="M366.5 20.5q-4.5 16.5 -4.5 33.5q-30 -29 -64.5 -47t-88.5 -18q-45 0 -88 16.5t-71.5 54t-28.5 98.5q0 85 54.5 121t124.5 50q67 13 156 13v12q0 32 -23 44t-67 12q-39 0 -86 -13.5t-83 -34.5l-48 140q45 23 111.5 38.5t131.5 15.5q134 0 202 -54q35 -28 53.5 -69
t18.5 -105v-192q0 -46 5.5 -76.5t21.5 -59.5h-220q-2 4 -6.5 20.5zM327 230.5q-22 -1.5 -37 -4.5q-58 -13 -58 -51q0 -24 16 -37.5t38 -13.5t42 11.5t28 31.5v65q-7 0 -29 -1.5zM512.5 677q-17.5 -33 -47.5 -53.5t-65 -20.5q-31 0 -49.5 7t-30 14t-16.5 10q-3 2 -14.5 8.5
t-21.5 9.5t-21 3q-16 0 -26.5 -13t-14.5 -35l-93 10q0 36 17.5 69t47.5 53.5t65 20.5q31 0 50 -6.5t30.5 -14t15.5 -9.5q3 -2 14.5 -8.5t21.5 -9.5t21 -3q16 0 26.5 13t14.5 35l93 -10q0 -37 -17.5 -70z" />
    <glyph glyph-name="adieresis" unicode="&#xe4;" horiz-adv-x="611" 
d="M366.5 20.5q-4.5 16.5 -4.5 33.5q-30 -29 -64.5 -47t-88.5 -18q-45 0 -88 16.5t-71.5 54t-28.5 98.5q0 85 54.5 121t124.5 50q67 13 156 13v12q0 32 -23 44t-67 12q-39 0 -86 -13.5t-83 -34.5l-48 140q45 23 111.5 38.5t131.5 15.5q134 0 202 -54q35 -28 53.5 -69
t18.5 -105v-192q0 -46 5.5 -76.5t21.5 -59.5h-220q-2 4 -6.5 20.5zM327 230.5q-22 -1.5 -37 -4.5q-58 -13 -58 -51q0 -24 16 -37.5t38 -13.5t42 11.5t28 31.5v65q-7 0 -29 -1.5zM263 623q-22 -22 -58 -22q-37 0 -59 22t-22 58q0 37 22 59t59 22q36 0 58 -22t22 -59
q0 -36 -22 -58zM478 623q-22 -22 -59 -22q-36 0 -58 22t-22 58q0 37 22 59t58 22q37 0 59 -22t22 -59q0 -36 -22 -58z" />
    <glyph glyph-name="aring" unicode="&#xe5;" horiz-adv-x="611" 
d="M366.5 20.5q-4.5 16.5 -4.5 33.5q-30 -29 -64.5 -47t-88.5 -18q-45 0 -88 16.5t-71.5 54t-28.5 98.5q0 85 54.5 121t124.5 50q67 13 156 13v12q0 32 -23 44t-67 12q-39 0 -86 -13.5t-83 -34.5l-48 140q45 23 111.5 38.5t131.5 15.5q134 0 202 -54q35 -28 53.5 -69
t18.5 -105v-192q0 -46 5.5 -76.5t21.5 -59.5h-220q-2 4 -6.5 20.5zM327 230.5q-22 -1.5 -37 -4.5q-58 -13 -58 -51q0 -24 16 -37.5t38 -13.5t42 11.5t28 31.5v65q-7 0 -29 -1.5zM385 632q-32 -31 -83 -31t-83 31t-32 82t32 82t83 31t83 -31t32 -82t-32 -82zM337 749
q-14 14 -35 14t-35 -14t-14 -35t14 -34.5t35 -13.5t35 13.5t14 34.5t-14 35z" />
    <glyph glyph-name="ae" unicode="&#xe6;" horiz-adv-x="931" 
d="M598.5 157.5q33.5 -19.5 81.5 -19.5q41 0 85 13.5t67 31.5l64 -119q0 -3 -30.5 -22.5t-85.5 -36t-131 -16.5q-142 0 -223 81q-88 -81 -217 -81q-45 0 -88 16.5t-71.5 54t-28.5 98.5q0 85 54.5 121t124.5 50q67 13 157 13v12q0 32 -23.5 44t-67.5 12q-39 0 -86 -13.5
t-83 -34.5l-48 140q45 23 111.5 38.5t131.5 15.5q134 0 184 -53q25 23 62.5 38t108.5 15q84 0 144 -36.5t90.5 -102t30.5 -151.5v-45h-350q3 -44 36.5 -63.5zM695 397.5q-20 23.5 -57 23.5q-36 0 -56.5 -23t-25.5 -59h159q0 35 -20 58.5zM359 199q-5 22 -5 33q-7 0 -28 -1.5
t-36 -4.5q-58 -13 -58 -51q0 -25 15.5 -38t41.5 -13q24 0 47.5 12.5t31.5 27.5q-4 13 -9 35z" />
    <glyph glyph-name="ccedilla" unicode="&#xe7;" horiz-adv-x="539" 
d="M513.5 45q-19.5 -14 -52 -28t-76.5 -22l-65 -145h-189l108 147q-95 21 -156.5 91.5t-61.5 183.5q0 92 41.5 156t109 96t144.5 32q65 0 113 -15.5t75 -33.5t27 -21l-63 -141q-16 16 -46.5 32t-71.5 16q-49 0 -83.5 -32t-34.5 -86t34.5 -86.5t83.5 -32.5q41 0 72 16.5
t46 32.5l65 -145q0 -1 -19.5 -15z" />
    <glyph glyph-name="egrave" unicode="&#xe8;" horiz-adv-x="601" 
d="M268.5 157.5q33.5 -19.5 81.5 -19.5q41 0 85 13.5t67 31.5l64 -119q0 -3 -30.5 -22.5t-85.5 -36t-131 -16.5q-87 0 -154.5 32.5t-105.5 96.5t-38 154q0 91 38 155t105 96.5t154 32.5q84 0 143.5 -36.5t90 -102t30.5 -151.5v-45h-350q3 -44 36.5 -63.5zM365 397.5
q-20 23.5 -57 23.5q-36 0 -56.5 -23t-25.5 -59h159q0 35 -20 58.5zM136 757h187l80 -150h-144z" />
    <glyph glyph-name="eacute" unicode="&#xe9;" horiz-adv-x="601" 
d="M268.5 157.5q33.5 -19.5 81.5 -19.5q41 0 85 13.5t67 31.5l64 -119q0 -3 -30.5 -22.5t-85.5 -36t-131 -16.5q-87 0 -154.5 32.5t-105.5 96.5t-38 154q0 91 38 155t105 96.5t154 32.5q84 0 143.5 -36.5t90 -102t30.5 -151.5v-45h-350q3 -44 36.5 -63.5zM365 397.5
q-20 23.5 -57 23.5q-36 0 -56.5 -23t-25.5 -59h159q0 35 -20 58.5zM221 607l80 150h188l-124 -150h-144z" />
    <glyph glyph-name="ecircumflex" unicode="&#xea;" horiz-adv-x="601" 
d="M268.5 157.5q33.5 -19.5 81.5 -19.5q41 0 85 13.5t67 31.5l64 -119q0 -3 -30.5 -22.5t-85.5 -36t-131 -16.5q-87 0 -154.5 32.5t-105.5 96.5t-38 154q0 91 38 155t105 96.5t154 32.5q84 0 143.5 -36.5t90 -102t30.5 -151.5v-45h-350q3 -44 36.5 -63.5zM365 397.5
q-20 23.5 -57 23.5q-36 0 -56.5 -23t-25.5 -59h159q0 35 -20 58.5zM319 689l-59 -82h-141l109 150h181l110 -150h-140z" />
    <glyph glyph-name="edieresis" unicode="&#xeb;" horiz-adv-x="601" 
d="M268.5 157.5q33.5 -19.5 81.5 -19.5q41 0 85 13.5t67 31.5l64 -119q0 -3 -30.5 -22.5t-85.5 -36t-131 -16.5q-87 0 -154.5 32.5t-105.5 96.5t-38 154q0 91 38 155t105 96.5t154 32.5q84 0 143.5 -36.5t90 -102t30.5 -151.5v-45h-350q3 -44 36.5 -63.5zM365 397.5
q-20 23.5 -57 23.5q-36 0 -56.5 -23t-25.5 -59h159q0 35 -20 58.5zM269 623q-22 -22 -58 -22q-37 0 -59 22t-22 58q0 37 22 59t59 22q36 0 58 -22t22 -59q0 -36 -22 -58zM484 623q-22 -22 -59 -22q-36 0 -58 22t-22 58q0 37 22 59t58 22q37 0 59 -22t22 -59q0 -36 -22 -58z
" />
    <glyph glyph-name="igrave" unicode="&#xec;" horiz-adv-x="316" 
d="M53 545h210v-545h-210v545zM-5 757h187l80 -150h-144z" />
    <glyph glyph-name="iacute" unicode="&#xed;" horiz-adv-x="316" 
d="M53 545h210v-545h-210v545zM54 607l80 150h188l-124 -150h-144z" />
    <glyph glyph-name="icircumflex" unicode="&#xee;" horiz-adv-x="316" 
d="M53 545h210v-545h-210v545zM157 689l-59 -82h-141l109 150h181l110 -150h-140z" />
    <glyph glyph-name="idieresis" unicode="&#xef;" horiz-adv-x="316" 
d="M53 545h210v-545h-210v545zM109 623q-22 -22 -58 -22q-37 0 -59 22t-22 58q0 37 22 59t59 22q36 0 58 -22t22 -59q0 -36 -22 -58zM324 623q-22 -22 -59 -22q-36 0 -58 22t-22 58q0 37 22 59t58 22q37 0 59 -22t22 -59q0 -36 -22 -58z" />
    <glyph glyph-name="eth" unicode="&#xf0;" horiz-adv-x="642" 
d="M583.5 119.5q-36.5 -63.5 -104 -97t-157.5 -33.5t-158 31.5t-105.5 90t-37.5 136.5q0 75 36.5 129.5t93 82t115.5 27.5q37 0 68 -9.5t42 -18.5q-11 24 -36 53t-44 45l-59 -49l-63 77l40 32q-14 11 -41.5 26t-36.5 19l56 107q22 -5 66.5 -20.5t74.5 -33.5l66 54l63 -76
l-39 -31q48 -36 97 -96q38 -48 69 -116t31 -180q0 -86 -36.5 -149.5zM384.5 331.5q-22.5 31.5 -63.5 31.5t-63.5 -30.5t-22.5 -79.5t22.5 -80t63.5 -31t63.5 31t22.5 79t-22.5 79.5z" />
    <glyph glyph-name="ntilde" unicode="&#xf1;" horiz-adv-x="662" 
d="M405 299q0 41 -15 62.5t-51 21.5q-35 0 -53 -21t-23 -52v-310h-210v545h199l11 -76q70 87 163 87q103 0 146 -57.5t43 -159.5v-339h-210v299zM533.5 677q-17.5 -33 -47.5 -53.5t-65 -20.5q-31 0 -49.5 7t-30 14t-16.5 10q-3 2 -14.5 8.5t-21.5 9.5t-21 3q-16 0 -26.5 -13
t-14.5 -35l-93 10q0 36 17.5 69t47.5 53.5t65 20.5q31 0 50 -6.5t30.5 -14t15.5 -9.5q3 -2 14.5 -8.5t21.5 -9.5t21 -3q16 0 26.5 13t14.5 35l93 -10q0 -37 -17.5 -70z" />
    <glyph glyph-name="ograve" unicode="&#xf2;" horiz-adv-x="642" 
d="M583 120q-37 -64 -104.5 -97.5t-157.5 -33.5t-158 33.5t-105 97.5t-37 152q0 89 37 153t105 97.5t158 33.5t157.5 -33.5t104.5 -97.5t37 -153q0 -88 -37 -152zM386 365q-21 37 -65 37t-65 -37t-21 -93q0 -55 21 -92.5t65 -37.5t65 37.5t21 92.5q0 56 -21 93zM124 757h187
l80 -150h-144z" />
    <glyph glyph-name="oacute" unicode="&#xf3;" horiz-adv-x="642" 
d="M583 120q-37 -64 -104.5 -97.5t-157.5 -33.5t-158 33.5t-105 97.5t-37 152q0 89 37 153t105 97.5t158 33.5t157.5 -33.5t104.5 -97.5t37 -153q0 -88 -37 -152zM386 365q-21 37 -65 37t-65 -37t-21 -93q0 -55 21 -92.5t65 -37.5t65 37.5t21 92.5q0 56 -21 93zM250 607
l80 150h188l-124 -150h-144z" />
    <glyph glyph-name="ocircumflex" unicode="&#xf4;" horiz-adv-x="642" 
d="M583 120q-37 -64 -104.5 -97.5t-157.5 -33.5t-158 33.5t-105 97.5t-37 152q0 89 37 153t105 97.5t158 33.5t157.5 -33.5t104.5 -97.5t37 -153q0 -88 -37 -152zM386 365q-21 37 -65 37t-65 -37t-21 -93q0 -55 21 -92.5t65 -37.5t65 37.5t21 92.5q0 56 -21 93zM321 689
l-59 -82h-141l109 150h181l110 -150h-140z" />
    <glyph glyph-name="otilde" unicode="&#xf5;" horiz-adv-x="642" 
d="M583 120q-37 -64 -104.5 -97.5t-157.5 -33.5t-158 33.5t-105 97.5t-37 152q0 89 37 153t105 97.5t158 33.5t157.5 -33.5t104.5 -97.5t37 -153q0 -88 -37 -152zM386 365q-21 37 -65 37t-65 -37t-21 -93q0 -55 21 -92.5t65 -37.5t65 37.5t21 92.5q0 56 -21 93zM511.5 677
q-17.5 -33 -47.5 -53.5t-65 -20.5q-31 0 -49.5 7t-30 14t-16.5 10q-3 2 -14.5 8.5t-21.5 9.5t-21 3q-16 0 -26.5 -13t-14.5 -35l-93 10q0 36 17.5 69t47.5 53.5t65 20.5q31 0 50 -6.5t30.5 -14t15.5 -9.5q3 -2 14.5 -8.5t21.5 -9.5t21 -3q16 0 26.5 13t14.5 35l93 -10
q0 -37 -17.5 -70z" />
    <glyph glyph-name="odieresis" unicode="&#xf6;" horiz-adv-x="642" 
d="M583 120q-37 -64 -104.5 -97.5t-157.5 -33.5t-158 33.5t-105 97.5t-37 152q0 89 37 153t105 97.5t158 33.5t157.5 -33.5t104.5 -97.5t37 -153q0 -88 -37 -152zM386 365q-21 37 -65 37t-65 -37t-21 -93q0 -55 21 -92.5t65 -37.5t65 37.5t21 92.5q0 56 -21 93zM272 623
q-22 -22 -58 -22q-37 0 -59 22t-22 58q0 37 22 59t59 22q36 0 58 -22t22 -59q0 -36 -22 -58zM487 623q-22 -22 -59 -22q-36 0 -58 22t-22 58q0 37 22 59t58 22q37 0 59 -22t22 -59q0 -36 -22 -58z" />
    <glyph glyph-name="divide" unicode="&#xf7;" 
d="M416 542q-31 -30 -82 -30q-50 0 -81.5 30t-31.5 77t31.5 77.5t81.5 30.5t81.5 -30.5t31.5 -77.5t-31 -77zM56 438h556v-158h-556v158zM416 22q-31 -30 -82 -30q-50 0 -81.5 30t-31.5 77t31.5 77.5t81.5 30.5q51 0 82 -30t31 -78q0 -47 -31 -77z" />
    <glyph glyph-name="oslash" unicode="&#xf8;" horiz-adv-x="642" 
d="M583 120q-37 -64 -104.5 -97.5t-157.5 -33.5q-104 0 -180 45l-49 -51l-55 54l47 48q-63 72 -63 187q0 89 37 153t105 97.5t158 33.5q104 0 180 -45l49 51l55 -55l-47 -47q62 -71 62 -188q0 -88 -37 -152zM321 402q-44 0 -65 -37t-21 -93q0 -11 2 -31l137 140
q-23 21 -53 21zM405 304l-137 -140q20 -22 53 -22q44 0 65 37.5t21 92.5q0 12 -2 32z" />
    <glyph glyph-name="ugrave" unicode="&#xf9;" horiz-adv-x="657" 
d="M393 76q-32 -39 -68 -63t-89 -24q-104 0 -146.5 57t-42.5 160v339h211v-302q0 -40 15.5 -60.5t51.5 -20.5q34 0 48.5 20.5t19.5 52.5v310h210v-545h-198zM136 757h187l80 -150h-144z" />
    <glyph glyph-name="uacute" unicode="&#xfa;" horiz-adv-x="657" 
d="M393 76q-32 -39 -68 -63t-89 -24q-104 0 -146.5 57t-42.5 160v339h211v-302q0 -40 15.5 -60.5t51.5 -20.5q34 0 48.5 20.5t19.5 52.5v310h210v-545h-198zM250 607l80 150h188l-124 -150h-144z" />
    <glyph glyph-name="ucircumflex" unicode="&#xfb;" horiz-adv-x="657" 
d="M393 76q-32 -39 -68 -63t-89 -24q-104 0 -146.5 57t-42.5 160v339h211v-302q0 -40 15.5 -60.5t51.5 -20.5q34 0 48.5 20.5t19.5 52.5v310h210v-545h-198zM325 689l-59 -82h-141l109 150h181l110 -150h-140z" />
    <glyph glyph-name="udieresis" unicode="&#xfc;" horiz-adv-x="657" 
d="M393 76q-32 -39 -68 -63t-89 -24q-104 0 -146.5 57t-42.5 160v339h211v-302q0 -40 15.5 -60.5t51.5 -20.5q34 0 48.5 20.5t19.5 52.5v310h210v-545h-198zM277 623q-22 -22 -58 -22q-37 0 -59 22t-22 58q0 37 22 59t59 22q36 0 58 -22t22 -59q0 -36 -22 -58zM492 623
q-22 -22 -59 -22q-36 0 -58 22t-22 58q0 37 22 59t58 22q37 0 59 -22t22 -59q0 -36 -22 -58z" />
    <glyph glyph-name="yacute" unicode="&#xfd;" horiz-adv-x="626" 
d="M365.5 -119q-29.5 -43 -65.5 -59t-91 -16q-47 0 -84.5 6.5t-58.5 14t-26 9.5l41 153q0 -1 24 -9t41 -8q22 0 33 6.5t16 27.5l5 17l-200 522h227l92 -336l91 336h222l-206 -539q-31 -82 -60.5 -125zM227 607l80 150h188l-124 -150h-144z" />
    <glyph glyph-name="thorn" unicode="&#xfe;" horiz-adv-x="675" 
d="M623 124q-30 -64 -83.5 -99.5t-123.5 -35.5q-62 0 -95 22.5t-57 52.5v-247h-210v922h210v-259q18 26 56 51t100 25q70 0 123 -35.5t81.5 -100t28.5 -148.5t-30 -148zM416.5 364q-23.5 35 -67.5 35t-67 -35t-23 -89t23 -89.5t67 -35.5t67.5 35.5t23.5 89.5t-23.5 89z" />
    <glyph glyph-name="ydieresis" unicode="&#xff;" horiz-adv-x="626" 
d="M365.5 -119q-29.5 -43 -65.5 -59t-91 -16q-47 0 -84.5 6.5t-58.5 14t-26 9.5l41 153q0 -1 24 -9t41 -8q22 0 33 6.5t16 27.5l5 17l-200 522h227l92 -336l91 336h222l-206 -539q-31 -82 -60.5 -125zM270 623q-22 -22 -58 -22q-37 0 -59 22t-22 58q0 37 22 59t59 22
q36 0 58 -22t22 -59q0 -36 -22 -58zM485 623q-22 -22 -59 -22q-36 0 -58 22t-22 58q0 37 22 59t58 22q37 0 59 -22t22 -59q0 -36 -22 -58z" />
    <glyph glyph-name="dotlessi" unicode="&#x131;" horiz-adv-x="316" 
d="M53 545h210v-545h-210v545z" />
    <glyph glyph-name="Lslash" unicode="&#x141;" horiz-adv-x="567" 
d="M64 214l-41 -22v164l41 21v341h216v-233l120 61v-164l-120 -60v-149h270v-173h-486v214z" />
    <glyph glyph-name="lslash" unicode="&#x142;" horiz-adv-x="325" 
d="M268 0h-210v235l-49 -27v158l49 27v346h210v-228l48 27v-158l-48 -27v-353z" />
    <glyph glyph-name="OE" unicode="&#x152;" horiz-adv-x="1019" 
d="M464 -6q-35 -5 -71 -5q-112 0 -194.5 44.5t-127 128t-44.5 197.5t44.5 197.5t127 128t194.5 44.5q36 0 71 -5t35 -6h476v-168h-269v-99h248v-170h-248v-109h279v-172h-486q0 -1 -35 -6zM474 542q-13 4 -34.5 7.5t-46.5 3.5q-72 0 -109 -53t-37 -138q0 -86 37 -139.5
t109 -53.5q36 0 66.5 5.5t30.5 6.5v356q-3 1 -16 5z" />
    <glyph glyph-name="oe" unicode="&#x153;" horiz-adv-x="976" 
d="M643.5 157.5q33.5 -19.5 81.5 -19.5q42 0 86 13.5t66 31.5l64 -119q0 -3 -30.5 -22.5t-85.5 -36t-131 -16.5q-73 0 -113 16t-73 46q-35 -29 -73.5 -45.5t-113.5 -16.5q-90 0 -158 33.5t-105 97.5t-37 152q0 89 37 153t105 97.5t158 33.5q74 0 115.5 -17.5t71.5 -44.5
q29 26 70 44t115 18q84 0 143.5 -36.5t90 -102t30.5 -151.5v-45h-350q3 -44 36.5 -63.5zM740 397.5q-20 23.5 -56 23.5t-57 -23t-26 -59h159q0 35 -20 58.5zM386 365q-21 37 -65 37t-65 -37t-21 -93q0 -55 21 -92.5t65 -37.5t65 37.5t21 92.5q0 56 -21 93z" />
    <glyph glyph-name="Scaron" unicode="&#x160;" horiz-adv-x="622" 
d="M432.5 542q-56.5 20 -99.5 20q-42 0 -61.5 -9.5t-19.5 -29.5q0 -17 14 -25.5t39 -17.5q23 -7 60 -18.5t63 -20.5q62 -22 100 -52q32 -26 51.5 -63t19.5 -94q0 -59 -23 -104t-60 -74q-82 -65 -222 -65q-83 0 -161.5 26.5t-126.5 69.5l90 158q45 -36 101.5 -56t101.5 -20
q43 0 64 9.5t21 30.5q0 18 -17 28.5t-44 18.5q-27 9 -45 14l-58 19q-70 25 -107 53q-75 59 -75 163q0 58 27 103t66 71q38 25 83 38.5t119 13.5q77 0 151.5 -26t118.5 -63l-78 -148q-36 30 -92.5 50zM243 779l-110 150h140l60 -82l59 82h141l-108 -150h-182z" />
    <glyph glyph-name="scaron" unicode="&#x161;" horiz-adv-x="525" 
d="M443 43q-31 -23 -72 -38.5t-121 -15.5q-83 0 -144.5 23.5t-98.5 51.5l70 130q45 -33 96.5 -48.5t81.5 -15.5q28 0 43.5 4.5t15.5 21.5q0 15 -17.5 22.5t-39.5 12.5t-30 7q-58 14 -90 28q-103 43 -103 151q0 82 65 130.5t179 48.5q68 0 119 -15.5t80.5 -33.5t29.5 -21
l-65 -119q-41 30 -83.5 42t-71.5 12q-27 0 -43.5 -5t-16.5 -22q0 -14 21 -22.5t44 -14t31 -7.5q47 -12 82 -26q103 -45 103 -145q0 -88 -65 -136zM188 607l-110 150h140l60 -82l59 82h141l-108 -150h-182z" />
    <glyph glyph-name="Ydieresis" unicode="&#x178;" horiz-adv-x="690" 
d="M453 0h-216v286l-248 432h238l119 -266l117 266h239l-249 -432v-286zM297 795q-22 -22 -58 -22q-37 0 -59 22t-22 58q0 37 22 59t59 22q36 0 58 -22t22 -59q0 -36 -22 -58zM512 795q-22 -22 -59 -22q-36 0 -58 22t-22 58q0 37 22 59t58 22q37 0 59 -22t22 -59
q0 -36 -22 -58z" />
    <glyph glyph-name="Zcaron" unicode="&#x17d;" horiz-adv-x="675" 
d="M27 146l335 404h-319v168h588v-152l-324 -393h340v-173h-620v146zM247 779l-110 150h140l60 -82l59 82h141l-108 -150h-182z" />
    <glyph glyph-name="zcaron" unicode="&#x17e;" horiz-adv-x="534" 
d="M11 124l249 270h-237v151h489v-130l-237 -258h248v-157h-512v124zM177 607l-110 150h140l60 -82l59 82h141l-108 -150h-182z" />
    <glyph glyph-name="florin" unicode="&#x192;" 
d="M582 581q-9 4 -24 8t-33 4q-29 0 -43.5 -15.5t-23.5 -57.5l-14 -62h115v-108h-135l-45 -231q-23 -119 -74 -170q-56 -56 -152 -56q-46 0 -83.5 12t-58.5 27l45 141q3 -1 13 -5t26.5 -8t34.5 -4q28 0 42.5 25.5t25.5 82.5l36 186h-93v108h113l23 107q12 54 30.5 89
t49.5 58q30 21 61.5 29t73.5 8q36 0 76 -11t70 -28l-45 -134q-2 1 -11 5z" />
    <glyph glyph-name="circumflex" unicode="&#x2c6;" horiz-adv-x="540" 
d="M270 689l-59 -82h-141l109 150h181l110 -150h-140z" />
    <glyph glyph-name="caron" unicode="&#x2c7;" horiz-adv-x="540" 
d="M180 607l-110 150h140l60 -82l59 82h141l-108 -150h-182z" />
    <glyph glyph-name="uni02C9" unicode="&#x2c9;" horiz-adv-x="540" 
d="M81 712h378v-96h-378v96z" />
    <glyph glyph-name="breve" unicode="&#x2d8;" horiz-adv-x="540" 
d="M388.5 640q-49.5 -37 -118.5 -37t-118 36.5t-66 113.5l103 11q4 -25 24.5 -44t56.5 -19t56.5 19t24.5 44l103 -11q-16 -76 -65.5 -113z" />
    <glyph glyph-name="dotaccent" unicode="&#x2d9;" horiz-adv-x="540" 
d="M328.5 623q-21.5 -22 -58.5 -22t-58.5 22t-21.5 58q0 37 21.5 59t58.5 22t58.5 -22t21.5 -59q0 -36 -21.5 -58z" />
    <glyph glyph-name="ring" unicode="&#x2da;" horiz-adv-x="540" 
d="M353 632q-32 -31 -83 -31t-83 31t-32 82t32 82t83 31t83 -31t32 -82t-32 -82zM305 749q-14 14 -35 14t-35 -14t-14 -35t14 -34.5t35 -13.5t35 13.5t14 34.5t-14 35z" />
    <glyph glyph-name="ogonek" unicode="&#x2db;" horiz-adv-x="540" 
d="M465.5 -194.5q-41.5 -20.5 -92.5 -20.5q-59 0 -94.5 31t-35.5 82q0 30 12.5 53t28 37t15.5 12h108q-16 -10 -30.5 -30.5t-14.5 -42.5q0 -46 50 -46q20 0 43 7t37 16l31 -62q-16 -16 -57.5 -36.5z" />
    <glyph glyph-name="tilde" unicode="&#x2dc;" horiz-adv-x="540" 
d="M460.5 677q-17.5 -33 -47.5 -53.5t-65 -20.5q-31 0 -49.5 7t-30 14t-16.5 10q-3 2 -14.5 8.5t-21.5 9.5t-21 3q-16 0 -26.5 -13t-14.5 -35l-93 10q0 36 17.5 69t47.5 53.5t65 20.5q31 0 50 -6.5t30.5 -14t15.5 -9.5q3 -2 14.5 -8.5t21.5 -9.5t21 -3q16 0 26.5 13t14.5 35
l93 -10q0 -37 -17.5 -70z" />
    <glyph glyph-name="hungarumlaut" unicode="&#x2dd;" horiz-adv-x="540" 
d="M40 607l80 150h187l-123 -150h-144zM278 607l80 150h188l-123 -150h-145z" />
    <glyph glyph-name="uni03A9" unicode="&#x3a9;" 
d="M365 141q36 33 60.5 63t41 76.5t16.5 109.5q0 95 -41.5 140.5t-107.5 45.5q-65 0 -106.5 -45.5t-41.5 -140.5q0 -63 16.5 -109.5t41 -77t60.5 -62.5v-141h-287v153h107q0 -5 -26.5 29.5t-48 92t-21.5 137.5q0 90 38 162.5t107.5 113.5t160.5 41q92 0 161.5 -41
t107.5 -113.5t38 -162.5q0 -80 -21.5 -137.5t-48 -92t-26.5 -29.5h107v-153h-287v141z" />
    <glyph glyph-name="uni03BC" unicode="&#x3bc;" horiz-adv-x="657" 
d="M393 76q-20 -29 -54.5 -49.5t-80.5 -20.5v-189h-211v728h211v-302q0 -40 15.5 -60.5t51.5 -20.5q34 0 48.5 20.5t19.5 52.5v310h210v-545h-198z" />
    <glyph glyph-name="pi" unicode="&#x3c0;" 
d="M560 0h-163v392h-125v-392h-164v392h-84v153h621v-153h-85v-392z" />
    <glyph glyph-name="endash" unicode="&#x2013;" horiz-adv-x="560" 
d="M35 345h490v-139h-490v139z" />
    <glyph glyph-name="emdash" unicode="&#x2014;" horiz-adv-x="932" 
d="M21 345h890v-139h-890v139z" />
    <glyph glyph-name="quoteleft" unicode="&#x2018;" horiz-adv-x="323" 
d="M196 575q-37 -77 -37 -155l-161 53q0 52 22.5 109.5t59.5 107.5t79 81l136 -57q-62 -62 -99 -139z" />
    <glyph glyph-name="quoteright" unicode="&#x2019;" horiz-adv-x="323" 
d="M277.5 554q-47.5 -85 -113.5 -134l-136 57q62 62 99 139t37 155l161 -53q0 -79 -47.5 -164z" />
    <glyph glyph-name="quotesinglbase" unicode="&#x201a;" horiz-adv-x="323" 
d="M236 -2q-48 -85 -114 -134l-136 57q62 61 99 138t37 156l162 -53q0 -79 -48 -164z" />
    <glyph glyph-name="quotedblleft" unicode="&#x201c;" horiz-adv-x="606" 
d="M196 575q-37 -77 -37 -155l-161 53q0 52 22.5 109.5t59.5 107.5t79 81l136 -57q-62 -62 -99 -139zM478.5 575q-36.5 -77 -36.5 -155l-162 53q0 52 22.5 109.5t59.5 107.5t80 81l135 -57q-62 -62 -98.5 -139z" />
    <glyph glyph-name="quotedblright" unicode="&#x201d;" horiz-adv-x="606" 
d="M277.5 554q-47.5 -85 -113.5 -134l-136 57q62 62 99 139t37 155l161 -53q0 -79 -47.5 -164zM560 554q-48 -85 -114 -134l-135 57q62 62 98.5 139t36.5 155l162 -53q0 -79 -48 -164z" />
    <glyph glyph-name="quotedblbase" unicode="&#x201e;" horiz-adv-x="606" 
d="M233.5 -2q-47.5 -85 -113.5 -134l-136 57q62 62 99 139t37 155l161 -53q0 -79 -47.5 -164zM522 -2q-48 -85 -114 -134l-136 57q62 62 99 139t37 155l162 -53q0 -79 -48 -164z" />
    <glyph glyph-name="dagger" unicode="&#x2020;" 
d="M414 160l-23 -296h-113l-23 296l12 243l-194 -11v153l194 -12l-12 190h159l-12 -190l194 12v-153l-194 11z" />
    <glyph glyph-name="daggerdbl" unicode="&#x2021;" 
d="M414 -136h-159l12 190l-194 -11v152l194 -11l-6 110l6 109l-194 -11v153l194 -12l-12 190h159l-12 -190l194 12v-153l-194 11l6 -109l-6 -110l194 11v-152l-194 11z" />
    <glyph glyph-name="bullet" unicode="&#x2022;" 
d="M484 272q-23 -40 -62.5 -63t-87.5 -23q-47 0 -86.5 23t-62.5 62.5t-23 86.5t23 87t62.5 63t86.5 23q48 0 87.5 -23t62.5 -62.5t23 -86.5t-23 -87z" />
    <glyph glyph-name="ellipsis" unicode="&#x2026;" horiz-adv-x="1003" 
d="M249 19q-31 -30 -82 -30t-82 30t-31 77t31 77t82 30t82 -30t31 -77t-31 -77zM584 19q-31 -30 -82 -30t-82 30t-31 77t31 77t82 30t82 -30t31 -77t-31 -77zM918 19q-31 -30 -82 -30t-82 30t-31 77t31 77t82 30t82 -30t31 -77t-31 -77z" />
    <glyph glyph-name="perthousand" unicode="&#x2030;" horiz-adv-x="1441" 
d="M380 353q-55 -61 -148 -61t-148.5 60.5t-55.5 162.5t55 163t149 61q93 0 148 -61t55 -163q0 -101 -55 -162zM238 45l448 692l81 -54l-447 -692zM274 594q-14 30 -42 30q-29 0 -43 -30t-14 -79t14 -78.5t43 -29.5q28 0 42 29.5t14 78.5t-14 79zM922 50q-55 -61 -148 -61
t-148 61t-55 162q0 102 55 163t148 61t148 -61t55 -163q0 -101 -55 -162zM1357 50q-55 -61 -148 -61t-148 61t-55 162q0 102 55 163t148 61t148 -61t55 -163q0 -101 -55 -162zM817 291.5q-14 29.5 -43 29.5t-42.5 -29.5t-13.5 -79.5q0 -49 13.5 -78.5t42.5 -29.5t43 29.5
t14 78.5q0 50 -14 79.5zM1252 291.5q-14 29.5 -43 29.5q-28 0 -42 -29.5t-14 -79.5q0 -49 14 -78.5t42 -29.5q29 0 43 29.5t14 78.5q0 50 -14 79.5z" />
    <glyph glyph-name="guilsinglleft" unicode="&#x2039;" horiz-adv-x="353" 
d="M42 243v85l181 209l88 -74l-147 -177l147 -179l-87 -73z" />
    <glyph glyph-name="guilsinglright" unicode="&#x203a;" horiz-adv-x="353" 
d="M42 107l148 178l-148 178l88 74l181 -209v-85l-181 -209z" />
    <glyph glyph-name="fraction" unicode="&#x2044;" horiz-adv-x="179" 
d="M-175 45l447 692l82 -54l-448 -692z" />
    <glyph glyph-name="Euro" unicode="&#x20ac;" 
d="M630 48q-31 -22 -85 -40.5t-127 -18.5q-233 0 -287 232h-72v108h57l-1 29l1 31h-57v107h72q25 110 108 171.5t202 61.5q70 0 116.5 -16.5t69.5 -35t23 -22.5l-79 -130q-28 21 -53.5 33t-65.5 12q-92 0 -111 -74h161v-107h-178l-1 -30l1 -30h178v-108h-161q12 -36 36 -52
t69 -16q41 0 77 16t59 34l79 -130q0 -3 -31 -25z" />
    <glyph glyph-name="trademark" unicode="&#x2122;" horiz-adv-x="921" 
d="M261 319h-113v307h-105v92h323v-92h-105v-307zM738 588l-71 -269h-91l-71 269l-8 -269h-107l17 399h152l65 -249l65 249h153l17 -399h-113z" />
    <glyph glyph-name="Omega" unicode="&#x2126;" 
d="M365 141q36 33 60.5 63t41 76.5t16.5 109.5q0 95 -41.5 140.5t-107.5 45.5q-65 0 -106.5 -45.5t-41.5 -140.5q0 -63 16.5 -109.5t41 -77t60.5 -62.5v-141h-287v153h107q0 -5 -26.5 29.5t-48 92t-21.5 137.5q0 90 38 162.5t107.5 113.5t160.5 41q92 0 161.5 -41
t107.5 -113.5t38 -162.5q0 -80 -21.5 -137.5t-48 -92t-26.5 -29.5h107v-153h-287v141z" />
    <glyph glyph-name="partialdiff" unicode="&#x2202;" 
d="M591.5 121q-36.5 -64 -102.5 -98t-153 -34q-88 0 -154.5 31.5t-103.5 90t-37 136.5q0 76 34.5 130t89.5 81.5t114 27.5q42 0 79 -9.5t49 -18.5q-45 75 -120.5 124t-145.5 73l62 119q184 -49 310 -191q39 -44 77 -122t38 -190q0 -86 -36.5 -150zM413 333.5
q-31 31.5 -79 31.5q-47 0 -78 -31t-31 -81t31 -81.5t78 -31.5q48 0 79 31t31 81t-31 81.5z" />
    <glyph glyph-name="Delta" unicode="&#x2206;" 
d="M334 740l335 -740h-669zM237 155h195l-98 226z" />
    <glyph glyph-name="product" unicode="&#x220f;" 
d="M357 -73h40v659h-125v-659h40v-153h-288v153h84v659h-84v153h621v-153h-85v-659h85v-153h-288v153z" />
    <glyph glyph-name="summation" unicode="&#x2211;" 
d="M26 -96l257 379l-251 333v123h599v-298h-159v140h-206l226 -298l-238 -351h230v187h158v-345h-616v130z" />
    <glyph glyph-name="minus" unicode="&#x2212;" 
d="M56 438h556v-158h-556v158z" />
    <glyph glyph-name="uni2215" unicode="&#x2215;" horiz-adv-x="334" 
d="M-97 45l447 692l82 -54l-448 -692z" />
    <glyph glyph-name="uni2219" unicode="&#x2219;" horiz-adv-x="334" 
d="M248.5 199.5q-31.5 -30.5 -81.5 -30.5t-81.5 30.5t-31.5 77.5t31 77t82 30t82 -30t31 -77t-31.5 -77.5z" />
    <glyph glyph-name="radical" unicode="&#x221a;" 
d="M362 0h-159l-90 280h-79v158h195l54 -212l124 492h237v-159h-102z" />
    <glyph glyph-name="infinity" unicode="&#x221e;" 
d="M623.5 269q-22.5 -40 -62.5 -62.5t-90 -22.5q-40 0 -76.5 19t-60.5 47q-23 -28 -59.5 -47t-76.5 -19q-50 0 -90 22.5t-62.5 62.5t-22.5 90t22.5 90t62.5 62.5t90 22.5q40 0 76.5 -19t59.5 -46q23 28 60 46.5t77 18.5q50 0 90 -22.5t62.5 -62.5t22.5 -90t-22.5 -90z
M247.5 386.5q-18.5 13.5 -37.5 13.5q-46 0 -46 -41q0 -40 46 -40q18 0 37 13t30 27q-11 14 -29.5 27.5zM459 400q-19 0 -37.5 -13.5t-29.5 -27.5q11 -14 30 -27t37 -13q46 0 46 40q0 41 -46 41z" />
    <glyph glyph-name="integral" unicode="&#x222b;" 
d="M492 596q-13 3 -28 3q-26 0 -37 -11q-7 -9 -8.5 -21t-1.5 -30v-613q0 -82 -41 -118q-23 -22 -53.5 -31t-70.5 -9q-34 0 -66.5 5.5t-49.5 11.5l22 139q23 -9 47 -9q27 0 38 11q7 9 8.5 21t1.5 30v613q0 82 41 118q24 22 54 31t70 9q57 0 115 -17l-22 -139q-6 3 -19 6z" />
    <glyph glyph-name="approxequal" unicode="&#x2248;" 
d="M436 399q-39 0 -119 22q-64 17 -90 17q-34 0 -71 -11t-53 -22l-51 124q76 51 181 51q39 0 119 -22q25 -7 49.5 -12.5t40.5 -5.5q34 0 70 13.5t54 26.5l51 -125q-84 -56 -181 -56zM436 145q-39 0 -119 22q-64 17 -90 17q-33 0 -69 -13.5t-55 -25.5l-51 124q84 56 181 56
q39 0 119 -22q64 -17 90 -17q35 0 71.5 11.5t52.5 22.5l51 -125q-77 -50 -181 -50z" />
    <glyph glyph-name="notequal" unicode="&#x2260;" 
d="M301 0h-168l48 145h-125v158h176l37 113h-213v158h265l47 145h168l-48 -145h124v-158h-175l-37 -113h212v-158h-264z" />
    <glyph glyph-name="lessequal" unicode="&#x2264;" 
d="M56 534l556 193v-170l-368 -102l368 -101v-170l-556 192v158zM56 158h556v-158h-556v158z" />
    <glyph glyph-name="greaterequal" unicode="&#x2265;" 
d="M56 354l369 101l-369 102v170l556 -193v-158l-556 -192v170zM56 158h556v-158h-556v158z" />
    <glyph glyph-name="lozenge" unicode="&#x25ca;" 
d="M23 359l311 382l312 -382l-312 -382zM215 359l119 -149l120 149l-120 149z" />
    <glyph glyph-name="uniFEFF" unicode="&#xfeff;" horiz-adv-x="0" 
 />
    <glyph glyph-name="NULL.002" horiz-adv-x="322" 
d="M122 1056h78v-1327h-78v1327z" />
    </font>
</defs>
</svg>
