<?xml version="1.0" standalone="no"?>
<!DOCTYPE svg PUBLIC "-//W3C//DTD SVG 1.1//EN" "http://www.w3.org/Graphics/SVG/1.1/DTD/svg11.dtd" >
<svg xmlns="http://www.w3.org/2000/svg" xmlns:xlink="http://www.w3.org/1999/xlink" version="1.1">
<metadata>
Created by FontForge 20170731 at Wed Mar 22 17:45:41 2017
 By Aleksey,,,
Copyright 2017 Monotype Imaging Inc. All rights reserved.
</metadata>
<defs>
<font id="SlateForOnePlus-Regular" horiz-adv-x="591" >
  <font-face 
    font-family="Slate For OnePlus"
    font-weight="400"
    font-stretch="normal"
    units-per-em="1000"
    panose-1="2 0 5 6 4 0 0 2 0 4"
    ascent="800"
    descent="-200"
    x-height="522"
    cap-height="717"
    bbox="-169 -271 1192 1056"
    underline-thickness="50"
    underline-position="-150"
    unicode-range="U+000D-FEFF"
  />
<missing-glyph horiz-adv-x="565" 
d="M550 751v-751h-536v751h536zM464 698h-365l184 -274zM250 376l-182 274v-547zM497 102v548l-183 -274zM99 54h365l-181 274z" />
    <glyph glyph-name="fi" unicode="fi" horiz-adv-x="579" 
d="M494 643q-19 -18 -48 -18q-28 0 -46.5 18t-18.5 46t18.5 46.5t46.5 18.5q29 0 48 -18.5t19 -46.5t-19 -46zM321.5 665.5q-18.5 6.5 -43.5 6.5q-47 0 -66 -30q-8 -14 -11 -31.5t-3 -44.5v-44h133v-76h-133v-446h-101v446h-77v76h76v60q0 74 41 117q44 47 120 47
q49 0 73.5 -8.5t26.5 -9.5l-15 -69q-2 0 -20.5 6.5zM397 522h100v-522h-100v522z" />
    <glyph glyph-name="fl" unicode="fl" horiz-adv-x="577" 
d="M321.5 665.5q-18.5 6.5 -43.5 6.5q-47 0 -66 -30q-8 -14 -11 -31.5t-3 -44.5v-44h133v-76h-133v-446h-101v446h-77v76h76v60q0 74 41 117q44 47 120 47q49 0 73.5 -8.5t26.5 -9.5l-15 -69q-2 0 -20.5 6.5zM395 740h101v-740h-101v740z" />
    <glyph glyph-name=".notdef" horiz-adv-x="565" 
d="M550 751v-751h-536v751h536zM464 698h-365l184 -274zM250 376l-182 274v-547zM497 102v548l-183 -274zM99 54h365l-181 274z" />
    <glyph glyph-name=".null" horiz-adv-x="0" 
 />
    <glyph glyph-name="nonmarkingreturn" unicode="&#xd;" horiz-adv-x="198" 
 />
    <glyph glyph-name="NULL" horiz-adv-x="0" 
 />
    <glyph glyph-name="NULL" horiz-adv-x="0" 
 />
    <glyph glyph-name="space" unicode=" " horiz-adv-x="198" 
 />
    <glyph glyph-name="exclam" unicode="!" horiz-adv-x="323" 
d="M123 210l-18 507h113l-18 -507h-77zM209 7q-19 -19 -47 -19q-29 0 -48 19t-19 46q0 28 19 46.5t48 18.5q28 0 47 -18.5t19 -45.5q0 -28 -19 -47z" />
    <glyph glyph-name="quotedbl" unicode="&#x22;" horiz-adv-x="492" 
d="M120 474l-19 260h104l-20 -260h-65zM306 474l-19 260h104l-19 -260h-66z" />
    <glyph glyph-name="numbersign" unicode="#" 
d="M410 269h117v-67h-130l-39 -198h-69l40 198h-131l-40 -198h-68l40 198h-111v67h125l37 185h-117v66h130l39 198h69l-40 -198h131l40 198h68l-40 -197h111v-67h-125zM211 269h131l38 185h-131z" />
    <glyph glyph-name="dollar" unicode="$" 
d="M516.5 118.5q-20.5 -38.5 -52.5 -63.5q-23 -19 -57.5 -32.5t-72.5 -15.5v-103h-64v100q-62 2 -123.5 32t-97.5 75l54 67q31 -39 75.5 -63t92.5 -27v240l-46 19q-55 22 -81 43q-69 51 -69 141q0 45 20.5 81.5t53.5 60.5q56 40 127 43v78h65v-78q57 -4 107 -27.5t77 -58.5
l-48 -63q-59 62 -138 70v-228l46 -20q73 -33 112.5 -76.5t39.5 -110.5q0 -45 -20.5 -83.5zM227.5 628.5q-25.5 -10.5 -43.5 -33t-18 -55.5q0 -34 16 -55.5t36 -32t58 -25.5v212q-23 0 -48.5 -10.5zM363 298l-29 13v-223q45 0 77.5 29.5t32.5 73.5q0 74 -81 107z" />
    <glyph glyph-name="percent" unicode="%" horiz-adv-x="887" 
d="M208 16l419 732l52 -31l-419 -732zM368 432.5q-21 -46.5 -58 -72t-86 -25.5q-75 0 -120.5 56.5t-45.5 148.5t45.5 148t119.5 56t120 -56t46 -148q0 -61 -21 -107.5zM287.5 641q-22.5 39 -63.5 39t-64 -39t-23 -101t22.5 -101t63.5 -39t64 39.5t23 100.5q0 62 -22.5 101z
M783.5 44.5q-45.5 -56.5 -119.5 -56.5q-49 0 -86.5 25.5t-58.5 72t-21 107.5t21 107.5t58 72t86 25.5q75 0 120.5 -56.5t45.5 -148.5t-45.5 -148.5zM727.5 294q-22.5 39 -63.5 39t-64 -39.5t-23 -100.5q0 -62 22.5 -101t63.5 -39t64 39t23 101t-22.5 101z" />
    <glyph glyph-name="ampersand" unicode="&#x26;" horiz-adv-x="723" 
d="M514 86q-3 -3 -32.5 -30t-85 -47.5t-119.5 -20.5q-69 0 -120 25.5t-78.5 69t-27.5 96.5q0 72 39 118.5t104 83.5l31 18l-14 16l-22.5 22.5t-37.5 57t-17 73.5q0 47 24.5 83.5t67.5 57t97 20.5t96.5 -20.5t67 -56.5t24.5 -80q0 -61 -34 -100.5t-89 -72.5l-25 -15l153 -169
q22 27 43.5 78t28.5 91l82 -27q-6 -45 -37 -110t-59 -96l139 -151h-122zM393.5 635.5q-26.5 25.5 -69.5 25.5q-41 0 -68 -26t-27 -63q0 -32 15 -55t40 -49l29 -33l24 16q83 49 83 116q0 43 -26.5 68.5zM249 331q-45 -26 -71.5 -57.5t-26.5 -79.5q0 -54 38 -88t105 -34
q58 0 100.5 26t62.5 51l-181 198z" />
    <glyph glyph-name="quotesingle" unicode="'" horiz-adv-x="305" 
d="M120 474l-19 260h104l-20 -260h-65z" />
    <glyph glyph-name="parenleft" unicode="(" horiz-adv-x="362" 
d="M118 26.5q-69 120.5 -69 288.5t69 289t154 190l49 -43q-73 -73 -125 -179.5t-52 -256.5q0 -254 177 -436l-49 -42q-85 69 -154 189.5z" />
    <glyph glyph-name="parenright" unicode=")" horiz-adv-x="362" 
d="M244 27q-69 -120 -155 -190l-48 42q177 184 177 436q0 257 -177 436l48 43q85 -68 154.5 -189.5t69.5 -289.5t-69 -288z" />
    <glyph glyph-name="asterisk" unicode="*" horiz-adv-x="478" 
d="M371 424l-52 -39l-81 117l-80 -117l-52 39l92 110l-138 38l20 62l131 -48l-5 138h65l-5 -138l131 48l20 -62l-138 -37z" />
    <glyph glyph-name="plus" unicode="+" 
d="M334 107h-77v200h-201v78h201v200h77v-200h200v-78h-200v-200z" />
    <glyph glyph-name="comma" unicode="," horiz-adv-x="296" 
d="M179 -23.5q-39 -67.5 -90 -104.5l-60 36q99 97 99 226l90 -26q0 -64 -39 -131.5z" />
    <glyph glyph-name="hyphen" unicode="-" horiz-adv-x="347" 
d="M43 304h261v-80h-261v80z" />
    <glyph glyph-name="period" unicode="." horiz-adv-x="296" 
d="M195.5 11.5q-19.5 -18.5 -47.5 -18.5t-47.5 18.5t-19.5 45.5q0 28 19 47t48 19t48 -19t19 -47q0 -27 -19.5 -45.5z" />
    <glyph glyph-name="slash" unicode="/" horiz-adv-x="583" 
d="M51 -84l420 874l61 -30l-420 -873z" />
    <glyph glyph-name="zero" unicode="0" 
d="M522.5 170.5q-28.5 -83.5 -86 -132t-140.5 -48.5t-140.5 48.5t-86.5 132t-29 188.5t28.5 189t86 132.5t140.5 48.5t140.5 -48.5t86.5 -132.5t29 -189t-28.5 -188.5zM409 566q-38 82 -113 82t-113.5 -82t-38.5 -206t38.5 -206t113.5 -82t113 82t38 206t-38 206z" />
    <glyph glyph-name="one" unicode="1" 
d="M278 589q-15 -13 -57 -29q-36 -13 -62 -18l-19 73q18 2 46 12t47 21q52 32 63 72h84v-720h-102v589z" />
    <glyph glyph-name="two" unicode="2" 
d="M85.5 128.5q32.5 57.5 71.5 96t88 77.5q3 3 21 18q50 41 76 65t48 59t22 72q0 61 -38.5 95t-101.5 34q-89 0 -164 -88l-55 62q94 110 234 110q64 0 115.5 -25t81 -71.5t29.5 -108.5q0 -57 -27.5 -104t-55 -72.5t-83.5 -71.5l-28 -23q-59 -48 -96 -86.5t-50 -83.5h367v-83
h-494q7 71 39.5 128.5z" />
    <glyph glyph-name="three" unicode="3" 
d="M483 88.5q-32 -47.5 -88.5 -73t-127.5 -25.5q-91 0 -145 37.5t-82 74.5l58 59q31 -36 74 -62.5t96 -26.5q63 0 105.5 34.5t42.5 97.5q0 64 -45 98.5t-110 34.5h-67v80h68q59 0 97.5 31.5t38.5 84.5q0 54 -37.5 84t-94.5 30q-91 0 -154 -74l-51 62q33 35 85 64.5t127 29.5
q60 0 110.5 -22t81 -63.5t30.5 -97.5q0 -54 -23.5 -89.5t-53.5 -53t-51 -21.5q28 -5 62 -24.5t60 -59t26 -98.5q0 -64 -32 -111.5z" />
    <glyph glyph-name="four" unicode="4" 
d="M468 0h-101v164h-347v78l321 475h127v-473h104v-80h-104v-164zM111 243h256v385z" />
    <glyph glyph-name="five" unicode="5" 
d="M497 101q-35 -54 -95 -82.5t-131 -28.5q-138 0 -229 102l57 63q24 -29 66.5 -56t101.5 -27q72 0 118.5 41t46.5 115t-46.5 114t-117.5 40q-43 0 -72 -14t-46 -29l-66 29l63 349h373v-81h-297l-40 -202q49 23 112 23q64 0 118 -25.5t86.5 -77t32.5 -125.5t-35 -128z" />
    <glyph glyph-name="six" unicode="6" 
d="M524 108.5q-29 -54.5 -84 -86.5t-129 -32q-134 0 -205 113q-53 85 -53 248q0 99 25.5 172t63.5 116q81 90 203 90q60 0 110.5 -21t73.5 -44l-43 -65q-26 20 -61.5 34.5t-77.5 14.5q-45 0 -74.5 -13t-55.5 -41q-29 -31 -47.5 -86t-18.5 -140q21 22 41 38t58 31t91 15
q58 0 106.5 -27.5t77 -77.5t28.5 -116q0 -68 -29 -122.5zM417 333q-36 42 -107 42q-53 0 -94.5 -31.5t-60.5 -66.5q0 -56 18 -104t53 -76.5t84 -28.5q71 0 107 44t36 112q0 67 -36 109z" />
    <glyph glyph-name="seven" unicode="7" 
d="M129 0l316 636h-382v81h485v-78l-312 -639h-107z" />
    <glyph glyph-name="eight" unicode="8" 
d="M514 83q-33 -46 -90 -69.5t-128 -23.5t-128.5 23.5t-90.5 69.5t-33 110q0 127 148 186q-44 17 -83 56.5t-39 110.5q0 57 30.5 98.5t82 63t112.5 21.5q62 0 113.5 -21.5t82 -62.5t30.5 -98q0 -70 -39.5 -108.5t-86.5 -54.5q58 -21 105 -66t47 -124q0 -65 -33 -111z
M388.5 625q-36.5 29 -92.5 29t-93 -28.5t-37 -81.5q0 -51 45 -84.5t104 -42.5q49 14 79.5 44.5t30.5 81.5q0 53 -36.5 82zM394 295.5q-52 36.5 -121 51.5q-55 -17 -91.5 -52t-36.5 -94q0 -64 42 -99.5t108 -35.5t108.5 35.5t42.5 98.5q0 59 -52 95.5z" />
    <glyph glyph-name="nine" unicode="9" 
d="M512.5 197q-25.5 -73 -63.5 -118q-75 -89 -203 -89q-63 0 -113.5 20t-76.5 46l46 68q24 -23 61.5 -38.5t78.5 -15.5q43 0 74.5 13t56.5 40q67 71 67 227q-22 -23 -41.5 -39t-57.5 -31.5t-91 -15.5q-58 0 -106.5 28t-77 78.5t-28.5 116.5q0 67 29 122.5t84 87.5t129 32
q132 0 205 -114q24 -39 38.5 -101t14.5 -148q0 -96 -25.5 -169zM436 442q0 56 -18 104t-53 77t-84 29q-71 0 -107 -43.5t-36 -111.5t36 -111t107 -43q89 0 155 99z" />
    <glyph glyph-name="colon" unicode=":" horiz-adv-x="296" 
d="M195.5 408.5q-19.5 -18.5 -47.5 -18.5t-47.5 18.5t-19.5 45.5q0 28 19.5 47t47.5 19t47.5 -19t19.5 -47q0 -27 -19.5 -45.5zM195.5 11.5q-19.5 -18.5 -47.5 -18.5t-47.5 18.5t-19.5 45.5q0 28 19 47t48 19t48 -19t19 -47q0 -27 -19.5 -45.5z" />
    <glyph glyph-name="semicolon" unicode=";" horiz-adv-x="296" 
d="M199.5 408.5q-18.5 -18.5 -46.5 -18.5q-29 0 -48 18.5t-19 45.5q0 28 18.5 47t46.5 19q29 0 48 -19t19 -46q0 -28 -18.5 -46.5zM179 -23.5q-39 -67.5 -90 -104.5l-60 36q99 97 99 226l90 -26q0 -64 -39 -131.5z" />
    <glyph glyph-name="less" unicode="&#x3c;" 
d="M56 378l478 204v-87l-384 -155l384 -155v-86l-478 203v76z" />
    <glyph glyph-name="equal" unicode="=" 
d="M56 485h478v-78h-478v78zM56 273h478v-78h-478v78z" />
    <glyph glyph-name="greater" unicode="&#x3e;" 
d="M56 185l385 155l-385 155v87l478 -203v-77l-478 -204v87z" />
    <glyph glyph-name="question" unicode="?" horiz-adv-x="490" 
d="M434 482q-15 -33 -32.5 -53t-42.5 -42l-65 -59q-30 -28 -31 -71l-1 -47h-81l-1 44q0 38 7.5 64t31.5 50l58 57q4 4 26 23t36 44.5t14 50.5q0 45 -32 74t-88 29q-51 0 -86.5 -22.5t-57.5 -47.5l-49 62q24 33 75.5 62t130.5 29q59 0 105.5 -23t72 -62t25.5 -86
q0 -43 -15 -76zM268 7q-19 -19 -47 -19t-47 19t-19 46q0 28 19 46.5t47 18.5t47 -18.5t19 -45.5q0 -28 -19 -47z" />
    <glyph glyph-name="at" unicode="@" horiz-adv-x="918" 
d="M832 204q-21 -55 -55 -93q-31 -36 -69 -54.5t-75 -18.5q-53 0 -78 24t-28 58q-4 -9 -21 -27.5t-46.5 -35.5t-67.5 -17q-66 0 -104 44t-38 124q0 67 25 125.5t62 95.5q60 60 140 60q43 0 71 -16.5t38 -35.5l20 41h62l-71 -282q-6 -18 -6 -43q0 -54 53 -54q29 0 63.5 26.5
t59 78.5t24.5 124q0 78 -38.5 142.5t-109.5 102t-164 37.5q-95 0 -174.5 -46t-126 -127t-46.5 -183t41.5 -177t116.5 -114.5t172 -39.5q160 0 262 64l24 -47q-47 -34 -121.5 -55.5t-171.5 -21.5q-112 0 -200 46.5t-138.5 135.5t-50.5 211t58 216t153 146t202 52
q93 0 166.5 -32.5t122.5 -86.5q39 -42 62 -99t23 -123q0 -70 -21 -125zM540 406.5q-23 21.5 -59 21.5q-31 0 -55 -13.5t-45 -38.5q-23 -29 -39.5 -73t-16.5 -94q0 -56 23.5 -79.5t60.5 -23.5q21 0 46 14t45 39t28 57l37 144q-2 25 -25 46.5z" />
    <glyph glyph-name="A" unicode="A" horiz-adv-x="643" 
d="M470 179h-306l-63 -179h-104l263 717h122l263 -717h-112zM191 263h252l-125 357z" />
    <glyph glyph-name="B" unicode="B" horiz-adv-x="644" 
d="M579 112q-22 -41 -59 -67q-67 -45 -192 -45h-235v717h219q56 0 99.5 -6.5t71.5 -25.5q73 -53 73 -142q0 -54 -32.5 -96.5t-92.5 -57.5v-4q78 -11 124 -59t46 -121q0 -52 -22 -93zM437.5 583.5q-13.5 23.5 -34.5 35.5q-16 10 -41 13t-59 3h-106v-220h106q72 0 100 21
q48 32 48 92q0 32 -13.5 55.5zM478 272q-15 26 -38 41q-36 24 -109 24h-134v-256h134q72 0 109 25q22 14 37.5 40t15.5 63t-15 63z" />
    <glyph glyph-name="C" unicode="C" horiz-adv-x="676" 
d="M560.5 560.5q-22.5 27.5 -65.5 51.5t-105 24q-68 0 -121 -35t-82.5 -97.5t-29.5 -143.5t28.5 -143.5t80 -97t120.5 -34.5q62 0 107 24.5t70.5 53t25.5 32.5l61 -68q0 -6 -31.5 -41t-91 -65.5t-145.5 -30.5q-97 0 -172.5 44t-118 127.5t-42.5 197.5q0 112 45.5 196
t122.5 128.5t169 44.5q81 0 138.5 -28.5t86.5 -59.5t35 -46l-63 -66q0 5 -22.5 32.5z" />
    <glyph glyph-name="D" unicode="D" horiz-adv-x="731" 
d="M653.5 202q-29.5 -69 -77.5 -114q-44 -44 -104.5 -66t-142.5 -22h-236v717h236q81 0 141 -22t106 -66q48 -46 77.5 -114.5t29.5 -155.5q0 -88 -29.5 -157zM554.5 478.5q-19.5 54.5 -53.5 88.5q-68 67 -173 67h-131v-548h131q107 0 173 65q34 34 53.5 88.5t19.5 119.5
t-19.5 119.5z" />
    <glyph glyph-name="E" unicode="E" horiz-adv-x="586" 
d="M93 717h436v-83h-332v-212h309v-84h-309v-251h343v-87h-447v717z" />
    <glyph glyph-name="F" unicode="F" horiz-adv-x="539" 
d="M198 402h283v-85h-283v-317h-105v717h414v-83h-309v-232z" />
    <glyph glyph-name="G" unicode="G" horiz-adv-x="746" 
d="M204.5 35q-72.5 45 -114 128.5t-41.5 196.5q0 112 46 195.5t123 128t168 44.5q83 0 151.5 -34.5t111.5 -95.5l-67 -63q-32 48 -82 75t-111 27q-66 0 -119 -34t-83 -96.5t-30 -146.5t28.5 -147t80 -97t118.5 -34q64 0 112.5 23.5t76.5 62.5v122h-174v82h274v-372h-71
l-11 82q-30 -37 -88 -64.5t-136 -27.5q-90 0 -162.5 45z" />
    <glyph glyph-name="H" unicode="H" horiz-adv-x="758" 
d="M560 337h-362v-337h-105v717h105v-295h362v295h106v-717h-106v337z" />
    <glyph glyph-name="I" unicode="I" horiz-adv-x="289" 
d="M93 717h105v-717h-105v717z" />
    <glyph glyph-name="J" unicode="J" horiz-adv-x="294" 
d="M201 717v-718q0 -51 -11.5 -85t-33.5 -59q-21 -24 -52.5 -38t-70.5 -14q-25 0 -44.5 4t-30.5 8t-14 5l15 77q0 -1 19 -6.5t43 -5.5q33 0 54 24.5t21 77.5v730h105z" />
    <glyph glyph-name="K" unicode="K" horiz-adv-x="628" 
d="M279 346l-82 -90v-256h-104v717h104v-334l292 334h125l-267 -293l276 -424h-124z" />
    <glyph glyph-name="L" unicode="L" horiz-adv-x="502" 
d="M93 717h105v-630h291v-87h-396v717z" />
    <glyph glyph-name="M" unicode="M" horiz-adv-x="899" 
d="M703 591l-211 -591h-91l-210 591l-15 -591h-99l26 717h140l207 -586l207 586h140l26 -717h-105z" />
    <glyph glyph-name="N" unicode="N" horiz-adv-x="753" 
d="M190 576v-576h-97v717h116l353 -549v549h98v-717h-100z" />
    <glyph glyph-name="O" unicode="O" horiz-adv-x="785" 
d="M694.5 167.5q-42.5 -83.5 -120.5 -130.5t-181 -47t-181 47t-120.5 130.5t-42.5 191.5q0 107 42.5 191t120.5 131t181 47t181 -47t120.5 -131t42.5 -191q0 -108 -42.5 -191.5zM599.5 504q-28.5 64 -81.5 99.5t-125 35.5t-125.5 -35.5t-82 -99t-28.5 -144.5t28.5 -144.5
t82 -99.5t125.5 -36t125 36t81.5 99t28.5 144t-28.5 145z" />
    <glyph glyph-name="P" unicode="P" horiz-adv-x="609" 
d="M493 321q-35 -28 -82 -41.5t-98 -13.5h-115v-266h-105v717h220q114 0 180 -54q72 -57 72 -171t-72 -171zM410 605q-21 16 -47.5 23t-69.5 7h-95v-286h95q41 0 67.5 6.5t48.5 22.5q51 38 51 114q0 78 -50 113z" />
    <glyph glyph-name="Q" unicode="Q" horiz-adv-x="785" 
d="M705 189.5q-32 -70.5 -74 -109t-80 -54.5q5 -32 33.5 -68.5t59.5 -48.5l-77 -64q-42 18 -74 59.5t-40 90.5q-5 -1 -22 -3t-38 -2q-103 0 -181 47t-120.5 130.5t-42.5 191.5q0 107 42.5 191t120.5 131t181 47t181 -47t120.5 -131t42.5 -191q0 -99 -32 -169.5zM599.5 504
q-28.5 64 -81.5 99.5t-125 35.5t-125.5 -35.5t-82 -99t-28.5 -144.5t28.5 -144.5t82 -99.5t125.5 -36t125 36t81.5 99t28.5 144t-28.5 145z" />
    <glyph glyph-name="R" unicode="R" horiz-adv-x="637" 
d="M304 295h-106v-295h-105v717h234q51 0 94.5 -13t74.5 -38q35 -27 55 -67.5t20 -90.5q0 -77 -46 -129t-113 -71l202 -308h-124zM452 565.5q-14 27.5 -37 43.5q-22 15 -46.5 20.5t-62.5 5.5h-108v-259h108q38 0 62.5 5.5t46.5 20.5q23 16 37 43.5t14 60.5q0 32 -14 59.5z
" />
    <glyph glyph-name="S" unicode="S" horiz-adv-x="568" 
d="M509.5 116q-18.5 -39 -51.5 -68q-70 -58 -185 -58q-82 0 -146.5 35t-101.5 77l59 72q91 -96 189 -96q73 0 112.5 30.5t39.5 82.5q0 43 -26.5 65t-67.5 40l-139 55q-48 21 -80 50q-24 21 -39 54t-15 77q0 47 19.5 85t52.5 63q65 49 166 49q80 0 138 -32.5t88 -66.5
l-51 -71q-26 30 -74 57.5t-102 27.5q-63 0 -99.5 -26.5t-36.5 -75.5q0 -44 24 -65t68 -39l140 -55q50 -20 82 -51q55 -53 55 -130q0 -47 -18.5 -86z" />
    <glyph glyph-name="T" unicode="T" horiz-adv-x="555" 
d="M330 0h-105v634h-215v83h536v-83h-216v-634z" />
    <glyph glyph-name="U" unicode="U" horiz-adv-x="709" 
d="M626 717v-434q0 -74 -12 -123.5t-44 -88.5q-36 -41 -88 -61t-127 -20q-76 0 -128 20t-87 61q-33 39 -45.5 89.5t-12.5 122.5v434h106v-440q0 -56 6 -84.5t25 -53.5q43 -56 135 -56t135 56q19 25 25.5 53.5t6.5 84.5v440h105z" />
    <glyph glyph-name="V" unicode="V" horiz-adv-x="633" 
d="M260 0l-252 717h112l200 -604l201 604h104l-252 -717h-113z" />
    <glyph glyph-name="W" unicode="W" horiz-adv-x="974" 
d="M647 0l-160 593l-162 -593h-117l-185 717h107l142 -594l160 594h113l159 -594l142 594h105l-186 -717h-118z" />
    <glyph glyph-name="X" unicode="X" horiz-adv-x="623" 
d="M312 300l-181 -300h-121l239 367l-221 350h120l163 -282l164 282h119l-219 -349l237 -368h-120z" />
    <glyph glyph-name="Y" unicode="Y" horiz-adv-x="609" 
d="M357 0h-104v296l-247 421h116l184 -338l184 338h113l-246 -421v-296z" />
    <glyph glyph-name="Z" unicode="Z" horiz-adv-x="614" 
d="M36 76l402 558h-389v83h516v-75l-399 -555h411v-87h-541v76z" />
    <glyph glyph-name="bracketleft" unicode="[" horiz-adv-x="362" 
d="M90 770h225v-61h-138v-802h138v-61h-225v924z" />
    <glyph glyph-name="backslash" unicode="\" horiz-adv-x="583" 
d="M51 759l61 31l420 -874l-61 -29z" />
    <glyph glyph-name="bracketright" unicode="]" horiz-adv-x="362" 
d="M46 -93h138v802h-138v61h225v-924h-225v61z" />
    <glyph glyph-name="asciicircum" unicode="^" 
d="M296 645l-151 -288h-89l196 360h87l195 -360h-88z" />
    <glyph glyph-name="underscore" unicode="_" 
d="M0 -93h591v-57h-591v57z" />
    <glyph glyph-name="grave" unicode="`" horiz-adv-x="453" 
d="M111 726h106l76 -143h-75z" />
    <glyph glyph-name="a" unicode="a" horiz-adv-x="534" 
d="M375.5 25.5q-4.5 19.5 -4.5 38.5q-65 -76 -166 -76q-69 0 -117 40.5t-48 119.5q0 73 43 106.5t98 48.5q33 9 83 14.5t103 5.5v32q0 53 -32.5 77t-85.5 24q-45 0 -86.5 -14t-69.5 -33l-33 72q37 21 88 36t104 15q105 0 159 -47q27 -24 42 -58t15 -90v-226q0 -38 6 -63.5
t18 -47.5h-110q-2 6 -6.5 25.5zM309.5 254q-35.5 -3 -58.5 -6q-41 -6 -75 -26.5t-34 -68.5t28 -69.5t67 -21.5q35 0 72 21t58 60v114q-22 0 -57.5 -3z" />
    <glyph glyph-name="b" unicode="b" horiz-adv-x="618" 
d="M549.5 122q-29.5 -62 -83 -97t-120.5 -35q-68 0 -107 29.5t-57 60.5l-13 -80h-88v740h101v-303q7 14 27 35.5t57.5 40.5t88.5 19q67 0 118 -35t78.5 -96.5t27.5 -139.5q0 -77 -29.5 -139zM457 357.5q-18 43.5 -51 69.5t-77 26q-45 0 -79 -25.5t-52.5 -69.5t-18.5 -96
q0 -81 39.5 -136.5t105.5 -55.5q45 0 79 26t53 69.5t19 96.5q0 52 -18 95.5z" />
    <glyph glyph-name="c" unicode="c" horiz-adv-x="506" 
d="M414 398.5q-18 18.5 -47.5 34t-67.5 15.5q-44 0 -80 -21t-57.5 -63t-21.5 -102q0 -90 44.5 -138t112.5 -48q38 0 68.5 15t49.5 32.5t21 23.5l52 -65q-1 -1 -20 -24.5t-71 -46.5t-114 -23q-69 0 -125 33t-88 94.5t-32 144.5q0 82 34.5 144t92 95t125.5 33q61 0 103.5 -20
t62 -40.5t30.5 -33.5l-54 -60q0 2 -18 20.5z" />
    <glyph glyph-name="d" unicode="d" horiz-adv-x="618" 
d="M436 80q-19 -29 -58 -59.5t-115 -30.5q-67 0 -117.5 35t-78 96.5t-27.5 139.5t29 139.5t82 96.5t120 35q72 0 110.5 -33t53.5 -62v303h102v-740h-88zM399 397.5q-39 55.5 -105 55.5q-45 0 -79 -25.5t-52.5 -69.5t-18.5 -96q0 -81 39 -136.5t106 -55.5q45 0 78.5 25.5
t52 69.5t18.5 97q0 80 -39 135.5z" />
    <glyph glyph-name="e" unicode="e" horiz-adv-x="547" 
d="M185.5 115q41.5 -46 113.5 -46q60 0 99.5 20t61.5 38l41 -64q0 -3 -27 -22t-75 -35t-112 -16q-73 0 -129 32t-87 93t-31 145q0 83 32 145t88.5 94.5t126.5 32.5q69 0 120 -32t78.5 -90t27.5 -132v-38h-371q2 -79 43.5 -125zM382 416q-33 43 -98 43t-101.5 -45t-41.5 -103
h274q0 62 -33 105z" />
    <glyph glyph-name="f" unicode="f" horiz-adv-x="315" 
d="M321.5 665.5q-18.5 6.5 -43.5 6.5q-47 0 -66 -30q-8 -14 -11 -31.5t-3 -44.5v-44h133v-76h-133v-446h-101v446h-77v76h76v60q0 74 41 117q44 47 120 47q48 0 73 -8.5t28 -9.5l-16 -69q-2 0 -20.5 6.5z" />
    <glyph glyph-name="g" unicode="g" horiz-adv-x="611" 
d="M518.5 -27.5q-12.5 -49.5 -40.5 -84.5q-31 -38 -82.5 -61.5t-126.5 -23.5q-69 0 -125 21t-82 40l40 74q27 -18 73 -34.5t91 -16.5q47 0 79.5 12.5t49.5 32.5q37 40 37 130v44q-16 -29 -56.5 -62.5t-115.5 -33.5q-66 0 -116 33t-77 92.5t-27 136.5q0 75 29.5 134.5
t82 92.5t116.5 33q52 0 87 -18.5t52 -40.5t22 -36l12 85h90v-420q0 -80 -12.5 -129.5zM394.5 401.5q-38.5 51.5 -104.5 51.5t-106 -51t-40 -129q0 -77 38.5 -128t103.5 -51q66 0 106.5 51t40.5 128t-38.5 128.5z" />
    <glyph glyph-name="h" unicode="h" horiz-adv-x="602" 
d="M426 311q0 65 -23.5 99.5t-80.5 34.5q-37 0 -67 -22t-48.5 -53t-24.5 -59v-311h-101v740h101v-314q26 45 70 75.5t104 30.5q81 0 126 -48.5t45 -145.5v-338h-101v311z" />
    <glyph glyph-name="i" unicode="i" horiz-adv-x="263" 
d="M179 643q-19 -18 -47 -18t-47 18t-19 45q0 28 18.5 47t46.5 19t47.5 -18.5t19.5 -46.5t-19 -46zM81 522h101v-522h-101v522z" />
    <glyph glyph-name="j" unicode="j" horiz-adv-x="268" 
d="M183.5 643q-18.5 -18 -46.5 -18q-29 0 -48.5 18t-19.5 45q0 28 19.5 47t47.5 19t47 -18.5t19 -46.5t-18.5 -46zM179.5 -87q-6.5 -33 -23.5 -56q-19 -25 -49.5 -39.5t-65.5 -14.5q-52 0 -82 15l10 73q26 -6 50 -6q32 0 47 15q12 13 15.5 38t3.5 63v521h101v-532
q0 -44 -6.5 -77z" />
    <glyph glyph-name="k" unicode="k" horiz-adv-x="544" 
d="M247 244l-65 -63v-181h-101v740h101v-449l219 231h122l-209 -208l224 -314h-119z" />
    <glyph glyph-name="l" unicode="l" horiz-adv-x="263" 
d="M81 740h101v-740h-101v740z" />
    <glyph glyph-name="m" unicode="m" horiz-adv-x="904" 
d="M728 324q0 58 -19 89.5t-72 31.5q-36 0 -64.5 -24t-46 -56t-21.5 -54v-311h-100v324q0 58 -19.5 89.5t-72.5 31.5q-35 0 -64 -24t-46 -56t-21 -54v-311h-101v522h94l7 -96q25 47 69.5 76.5t96.5 29.5q56 0 95 -27.5t53 -84.5q28 50 74.5 81t100.5 31q69 0 113.5 -44.5
t44.5 -138.5v-349h-101v324z" />
    <glyph glyph-name="n" unicode="n" horiz-adv-x="602" 
d="M426 311q0 65 -23.5 99.5t-80.5 34.5q-37 0 -67 -22t-48.5 -53t-24.5 -59v-311h-101v522h94l7 -96q26 45 70 75.5t104 30.5q81 0 126 -48.5t45 -145.5v-338h-101v311z" />
    <glyph glyph-name="o" unicode="o" horiz-adv-x="584" 
d="M513.5 117.5q-31.5 -61.5 -88.5 -94.5t-132 -33q-76 0 -133 33t-88.5 94.5t-31.5 143.5t31.5 143t88.5 94.5t132 33.5t132.5 -33t89 -94.5t31.5 -143.5t-31.5 -143.5zM402 400q-39 53 -109 53t-109.5 -53t-39.5 -139q0 -87 38.5 -139.5t109.5 -52.5t110 52.5t39 139.5
q0 86 -39 139z" />
    <glyph glyph-name="p" unicode="p" horiz-adv-x="618" 
d="M549.5 122q-29.5 -62 -83 -97t-120.5 -35q-68 0 -107 29.5t-57 60.5v-270h-101v712h94l7 -85q7 14 27 35.5t57.5 40.5t88.5 19q67 0 118 -35t78.5 -96.5t27.5 -139.5q0 -77 -29.5 -139zM457 357.5q-18 43.5 -51 69.5t-77 26q-45 0 -79 -25.5t-52.5 -69.5t-18.5 -96
q0 -81 39.5 -136.5t105.5 -55.5q45 0 79 26t53 69.5t19 96.5q0 52 -18 95.5z" />
    <glyph glyph-name="q" unicode="q" horiz-adv-x="618" 
d="M436 80q-19 -29 -58 -59.5t-115 -30.5q-67 0 -117.5 35t-78 96.5t-27.5 139.5t29 139.5t82 96.5t120 35q72 0 110.5 -33t53.5 -62l11 85h91v-712h-101v270zM399 397.5q-39 55.5 -105 55.5q-45 0 -79 -25.5t-52.5 -69.5t-18.5 -96q0 -81 39 -136.5t106 -55.5
q45 0 78.5 25.5t52 69.5t18.5 97q0 80 -39 135.5z" />
    <glyph glyph-name="r" unicode="r" horiz-adv-x="391" 
d="M352.5 433q-10.5 3 -24.5 3q-41 0 -74 -23q-24 -17 -44.5 -48t-27.5 -71v-294h-101v522h94l7 -102q22 48 64.5 80.5t93.5 32.5q16 0 27 -2t14 -3l-15 -99q-3 1 -13.5 4z" />
    <glyph glyph-name="s" unicode="s" horiz-adv-x="467" 
d="M382 38q-54 -50 -154 -50q-69 0 -124 30.5t-81 61.5l54 63q25 -29 68.5 -51.5t86.5 -22.5q47 0 74 17.5t27 51.5q0 30 -22.5 44.5t-59.5 27.5q-69 23 -95 33q-41 17 -74 46.5t-33 88.5q0 70 53.5 112.5t139.5 42.5q51 0 92 -14.5t65.5 -32t27.5 -22.5l-43 -66
q-28 24 -65.5 41t-75.5 17q-43 0 -70 -16.5t-27 -48.5q0 -30 21 -44t61 -27l68 -23l32 -11q105 -45 105 -134q0 -68 -51 -114z" />
    <glyph glyph-name="t" unicode="t" horiz-adv-x="363" 
d="M201 176q0 -64 18 -85q21 -22 57 -22q15 0 31.5 3t23.5 6l11 -75q-15 -6 -43 -10.5t-54 -4.5q-69 0 -108 40q-21 22 -28.5 52.5t-7.5 83.5v282h-77v76h75l11 142h91v-142h145v-76h-145v-270z" />
    <glyph glyph-name="u" unicode="u" horiz-adv-x="597" 
d="M415 95q-27 -45 -69.5 -75t-100.5 -30q-78 0 -123.5 47t-45.5 146v339h100v-318q0 -62 24.5 -94.5t77.5 -32.5q35 0 64.5 20t48.5 50.5t24 61.5v313h100v-522h-94z" />
    <glyph glyph-name="v" unicode="v" horiz-adv-x="520" 
d="M207 0l-200 522h107l146 -422l146 422h107l-200 -522h-106z" />
    <glyph glyph-name="w" unicode="w" horiz-adv-x="789" 
d="M516 0l-122 409l-121 -409h-102l-153 522h103l106 -410l115 410h104l114 -410l107 410h104l-152 -522h-103z" />
    <glyph glyph-name="x" unicode="x" horiz-adv-x="504" 
d="M250 210l-137 -210h-112l191 268l-180 254h117l126 -198l127 198h110l-179 -254l190 -268h-117z" />
    <glyph glyph-name="y" unicode="y" horiz-adv-x="525" 
d="M229 -169.5q-31 -27.5 -79 -27.5q-28 0 -51 5t-36 10.5t-16 7.5l24 77q0 -1 21 -8.5t38 -7.5q21 0 33.5 11t25.5 44l25 63l-202 517h108l146 -424l145 424h108l-234 -601q-25 -63 -56 -90.5z" />
    <glyph glyph-name="z" unicode="z" horiz-adv-x="477" 
d="M24 64l298 382h-287v76h407v-65l-295 -377h306v-80h-429v64z" />
    <glyph glyph-name="braceleft" unicode="{" horiz-adv-x="362" 
d="M232 -153q-63 7 -86.5 41.5t-26.5 102.5l-7 152q-2 48 -7.5 74t-21.5 39.5t-48 13.5h-18v72h18q32 0 48 13.5t21.5 39.5t7.5 74l7 152q3 69 26.5 103t86.5 41l83 10l7 -61l-62 -10q-24 -4 -36 -15t-15.5 -27t-5.5 -47l-6 -169q-3 -65 -26.5 -99t-75.5 -39v-3
q52 -6 75.5 -40t26.5 -98l6 -168q2 -31 5.5 -47.5t15.5 -27.5t36 -15l62 -10l-7 -61z" />
    <glyph glyph-name="bar" unicode="|" horiz-adv-x="322" 
d="M122 770h78v-924h-78v924z" />
    <glyph glyph-name="braceright" unicode="}" horiz-adv-x="362" 
d="M279 256.5q-16 -13.5 -21.5 -39.5t-7.5 -73l-7 -152q-4 -69 -27 -102.5t-86 -41.5l-84 -10l-6 61l62 9q24 4 36 15t15.5 28t4.5 48l7 167q2 65 26 99t76 39v4q-52 5 -76 39t-26 98l-7 168q-1 31 -4.5 48t-15.5 28t-36 15l-62 10l6 61l84 -10q63 -7 86 -41t27 -103l7 -152
q2 -47 7.5 -73t21.5 -39.5t48 -13.5h18v-73h-18q-32 0 -48 -13.5z" />
    <glyph glyph-name="asciitilde" unicode="~" 
d="M498.5 282.5q-42.5 -37.5 -93.5 -37.5q-42 0 -69.5 15.5t-58.5 44.5q-33 29 -49.5 39.5t-43.5 10.5q-29 0 -53 -28t-37 -76l-66 28q22 80 64.5 117.5t93.5 37.5q42 0 69.5 -15.5t58.5 -44.5q33 -29 49.5 -39.5t43.5 -10.5q29 0 53 28t37 76l66 -28q-22 -80 -64.5 -117.5z
" />
    <glyph glyph-name="uni00A0" unicode="&#xa0;" horiz-adv-x="198" 
 />
    <glyph glyph-name="exclamdown" unicode="&#xa1;" horiz-adv-x="323" 
d="M209 421.5q-19 -18.5 -47 -18.5q-29 0 -48 18.5t-19 46.5t19 46.5t48 18.5q28 0 47 -18.5t19 -46.5t-19 -46.5zM123 312h77l18 -508h-113z" />
    <glyph glyph-name="cent" unicode="&#xa2;" 
d="M509 156.5q-17 -18.5 -58.5 -38.5t-87.5 -24v-107h-66v105q-66 6 -117 39.5t-80 91t-29 135.5q0 77 29.5 135t81 91.5t115.5 40.5v104h66v-105q47 -4 82 -21t46 -27t36 -35l-47 -64q-11 16 -41 39.5t-76 26.5v-368q50 4 78.5 27t38.5 40l47 -66q-1 -1 -18 -19.5zM203 487
q-35 -48 -35 -128q0 -79 35 -127.5t94 -56.5v368q-59 -8 -94 -56z" />
    <glyph glyph-name="sterling" unicode="&#xa3;" 
d="M67 63l93 15q20 26 35 68t15 80q0 34 -5.5 57.5t-13.5 46.5h-111v60h93l-8 25q-9 25 -15 52t-6 65q0 43 17 81.5t49 64.5q63 51 154 51q51 0 101 -22.5t86 -73.5l-57 -57q0 3 -16.5 21.5t-45 34.5t-67.5 16q-62 0 -95 -35.5t-33 -82.5q0 -36 6 -60.5t16 -54.5l8 -24h197
v-61h-179q1 -3 9.5 -29t8.5 -74q0 -38 -15.5 -78.5t-36.5 -68.5h303v-80h-487v63z" />
    <glyph glyph-name="currency" unicode="&#xa4;" 
d="M405 198q-14 -12 -44 -23.5t-65 -11.5q-36 0 -66 11.5t-44 23.5l-91 -93l-53 53l91 93q-11 13 -22.5 43t-11.5 65t11 63.5t23 45.5l-91 92l53 53l91 -92q15 12 44.5 23.5t64.5 11.5q36 0 65.5 -11.5t44.5 -23.5l91 92l53 -53l-91 -92q11 -15 22.5 -44.5t11.5 -64.5
t-11.5 -64t-22.5 -44l91 -93l-53 -53zM381.5 445.5q-35.5 35.5 -86.5 35.5q-50 0 -85.5 -35.5t-35.5 -86.5t35.5 -86.5t85.5 -35.5q51 0 86.5 35.5t35.5 86.5t-35.5 86.5z" />
    <glyph glyph-name="yen" unicode="&#xa5;" 
d="M530 391v-61h-173l-13 -26v-61h186v-61h-185v-182h-98v182h-186v61h186v60l-12 27h-174v61h144l-173 326h110l154 -323l154 323h109l-173 -326h144z" />
    <glyph glyph-name="brokenbar" unicode="&#xa6;" horiz-adv-x="322" 
d="M122 770h78v-368h-78v368zM122 216h78v-370h-78v370z" />
    <glyph glyph-name="section" unicode="&#xa7;" 
d="M509.5 202q-24.5 -33 -47.5 -49q13 -7 29 -36.5t16 -68.5q0 -38 -14.5 -70t-38.5 -55q-29 -27 -73.5 -43t-100.5 -16q-77 0 -135 29t-90 64l50 67q86 -81 176 -81q59 0 96 26t37 68q0 59 -81 83l-134 45q-17 6 -41 19t-44 32q-42 46 -42 102q0 57 26.5 90.5t46.5 45.5
q-14 11 -29 35.5t-15 68.5q0 42 18 74t48 54q59 42 151 42q70 0 121 -22t85 -50l-43 -66q-28 26 -72.5 44.5t-90.5 18.5q-53 0 -89 -22t-36 -64q0 -27 15 -43t26.5 -21t42.5 -16l131 -44q53 -19 85 -52q41 -45 41 -101q0 -55 -24.5 -88zM423.5 328.5q-25.5 21.5 -63.5 34.5
l-87 29q-51 17 -70 27q0 2 -12.5 -8t-22.5 -27.5t-10 -43.5q0 -67 88 -95l86 -29q57 -20 71 -27q0 -2 13 8t23 28t10 44q0 38 -25.5 59.5z" />
    <glyph glyph-name="dieresis" unicode="&#xa8;" horiz-adv-x="453" 
d="M178.5 614.5q-15.5 -16.5 -40.5 -16.5q-24 0 -40 16.5t-16 39.5q0 24 16 40.5t40 16.5q25 0 40.5 -16.5t15.5 -40.5q0 -23 -15.5 -39.5zM355 614.5q-16 -16.5 -40 -16.5q-25 0 -40.5 16.5t-15.5 39.5q0 24 15.5 40.5t39.5 16.5q25 0 41 -16.5t16 -40.5q0 -23 -16 -39.5z
" />
    <glyph glyph-name="copyright" unicode="&#xa9;" horiz-adv-x="834" 
d="M739.5 170q-48.5 -85 -133.5 -134t-189 -49t-189 48.5t-133.5 134t-48.5 189.5t48.5 189t133.5 133.5t189 48.5t189 -48.5t133.5 -133.5t48.5 -189t-48.5 -189zM694.5 519.5q-43.5 73.5 -117 117t-160.5 43.5t-160.5 -43.5t-117 -117t-43.5 -160.5t43.5 -160.5t117 -117
t160.5 -43.5t160.5 43.5t117 117t43.5 160.5t-43.5 160.5zM523.5 171.5q-38.5 -23.5 -104.5 -23.5q-52 0 -98 26t-74 74t-28 112q0 65 28 113.5t74 74.5t98 26q46 0 79.5 -13t48.5 -25t33 -30l-40 -51q-13 17 -41.5 35t-71.5 18q-56 0 -94.5 -36.5t-38.5 -108.5
q0 -73 38 -110.5t94 -37.5q43 0 71.5 18t42.5 36l39 -52q-17 -22 -55.5 -45.5z" />
    <glyph glyph-name="ordfeminine" unicode="&#xaa;" horiz-adv-x="417" 
d="M282 358.5q-5 14.5 -5 28.5q-16 -22 -47 -38.5t-73 -16.5q-52 0 -87 28.5t-35 86.5q0 55 37.5 81.5t80.5 36.5q22 6 59 9t65 3v21q0 35 -23 51.5t-65 16.5q-36 0 -67.5 -11t-48.5 -22l-23 57q18 13 59.5 25.5t83.5 12.5q85 0 125 -34q42 -38 42 -112v-158q0 -46 19 -84
h-90q-2 4 -7 18.5zM197 521q-33 -8 -55 -21t-22 -47t21 -47.5t51 -13.5q25 0 51 17t34 42v78q-32 0 -80 -8z" />
    <glyph glyph-name="guillemotleft" unicode="&#xab;" horiz-adv-x="537" 
d="M53 251v51l159 195l54 -43l-145 -177l143 -177l-52 -44zM268 251v51l160 195l52 -43l-143 -177l143 -177l-52 -44z" />
    <glyph glyph-name="logicalnot" unicode="&#xac;" 
d="M445 407h-399v78h478v-290h-79v212z" />
    <glyph glyph-name="uni00AD" unicode="&#xad;" horiz-adv-x="347" 
d="M43 304h261v-80h-261v80z" />
    <glyph glyph-name="registered" unicode="&#xae;" horiz-adv-x="732" 
d="M662.5 359.5q-44.5 -76.5 -120.5 -120.5t-168 -44q-91 0 -167 44t-120.5 120.5t-44.5 168.5q0 91 44.5 167.5t120.5 120.5t167 44q92 0 168 -44t120.5 -120t44.5 -168t-44.5 -168.5zM622 672q-38 65 -103.5 103t-144.5 38q-78 0 -144 -38t-104 -103t-38 -144t38 -144.5
t103.5 -103.5t144.5 -38t144.5 38t103.5 103.5t38 144.5t-38 144zM371 489h-51v-150h-66v379h131q56 0 93.5 -29.5t37.5 -84.5q0 -36 -14.5 -59.5t-33 -34.5t-30.5 -13l95 -158h-74zM427.5 652.5q-18.5 16.5 -51.5 16.5h-56v-130h56q33 0 51.5 16t18.5 49q0 32 -18.5 48.5z
" />
    <glyph glyph-name="macron" unicode="&#xaf;" horiz-adv-x="453" 
d="M71 686h311v-62h-311v62z" />
    <glyph glyph-name="degree" unicode="&#xb0;" horiz-adv-x="427" 
d="M343 504q-20 -34 -54 -54t-75 -20q-42 0 -76 20t-54 54t-20 75t20 75.5t54 54.5t76 20q41 0 75 -20t54 -54t20 -76q0 -41 -20 -75zM280 647q-26 26 -66 26q-41 0 -67 -26t-26 -68q0 -41 26 -67t67 -26q40 0 66 26t26 67q0 42 -26 68z" />
    <glyph glyph-name="plusminus" unicode="&#xb1;" 
d="M334 129h-77v196h-201v78h201v197h77v-197h200v-78h-200v-196zM56 78h478v-78h-478v78z" />
    <glyph glyph-name="two.superior" unicode="&#xb2;" horiz-adv-x="446" 
d="M79.5 515q20.5 37 43.5 59.5t56 50.5q-1 -1 23 20q35 28 54 50t19 45q0 33 -20 51t-56 18q-32 0 -59 -15t-46 -37l-38 53q22 25 59 44.5t94 19.5q65 0 105.5 -34.5t40.5 -92.5q0 -35 -18 -64.5t-37 -46t-48 -38.5q-6 -5 -29.5 -23.5t-40.5 -38.5t-22 -38h214v-67h-320
q5 47 25.5 84z" />
    <glyph glyph-name="three.superior" unicode="&#xb3;" horiz-adv-x="446" 
d="M351 484q-22 -30 -59 -46t-80 -16q-53 0 -87 21.5t-59 46.5l38 49q54 -54 105 -54q39 0 62 19.5t23 52.5t-22 52t-54 19h-51v60h44q33 0 53.5 16t20.5 45t-22 45.5t-55 16.5q-29 0 -54 -11.5t-42 -29.5l-33 50q19 21 53.5 37.5t83.5 16.5q59 0 102.5 -29.5t43.5 -80.5
q0 -44 -24.5 -69t-53.5 -32q33 -7 61 -35.5t28 -75.5q0 -38 -22 -68z" />
    <glyph glyph-name="acute" unicode="&#xb4;" horiz-adv-x="453" 
d="M160 583l76 143h106l-107 -143h-75z" />
    <glyph glyph-name="uni00B5" unicode="&#xb5;" horiz-adv-x="588" 
d="M406 95q-19 -38 -56.5 -68.5t-80.5 -30.5q-28 0 -47.5 6t-30 13.5t-10.5 8.5v-214h-102v712h102v-313q0 -66 22 -99t73 -33q34 0 62.5 21.5t46.5 53t21 57.5v313h101v-522h-93z" />
    <glyph glyph-name="paragraph" unicode="&#xb6;" 
d="M493 -154h-66v811h-77v-459h-31q-128 0 -200 69.5t-72 188.5q0 121 72 191t200 70h236v-60h-62v-811z" />
    <glyph glyph-name="periodcentered" unicode="&#xb7;" horiz-adv-x="296" 
d="M195.5 260.5q-19.5 -18.5 -47.5 -18.5t-47.5 18.5t-19.5 45.5q0 28 19.5 47t47.5 19t47.5 -19t19.5 -47q0 -27 -19.5 -45.5z" />
    <glyph glyph-name="cedilla" unicode="&#xb8;" horiz-adv-x="453" 
d="M113 -144l96 144h74l-67 -144h-103z" />
    <glyph glyph-name="one.superior" unicode="&#xb9;" horiz-adv-x="446" 
d="M194 772q-11 -9 -37 -17q-31 -11 -42 -11l-14 57q8 1 27.5 8t34.5 16q16 9 31 22.5t18 23.5h66v-440h-84v341z" />
    <glyph glyph-name="ordmasculine" unicode="&#xba;" horiz-adv-x="450" 
d="M362.5 386q-52.5 -55 -137.5 -55q-86 0 -138 54.5t-52 143.5q0 58 23.5 103.5t67 70.5t99.5 25q85 0 137.5 -54.5t52.5 -143.5t-52.5 -144zM301 627.5q-28 36.5 -76 36.5t-76 -36.5t-28 -97.5q0 -63 28 -99.5t76 -36.5t76 36.5t28 99.5q0 61 -28 97.5z" />
    <glyph glyph-name="guillemotright" unicode="&#xbb;" horiz-adv-x="537" 
d="M56 99l144 178l-144 176l52 44l160 -194v-51l-160 -196zM271 99l145 178l-145 176l53 44l160 -194v-51l-160 -196z" />
    <glyph glyph-name="onequarter" unicode="&#xbc;" horiz-adv-x="892" 
d="M160 16l420 732l52 -31l-420 -732zM123 636q-11 -8 -37 -17q-13 -4 -24.5 -7t-17.5 -3l-15 56q8 1 27.5 8.5t35.5 15.5q16 9 31 23t18 23h66v-439h-84v340zM755 0h-80v95h-215v62l199 280h96v-280h65v-62h-65v-95zM527 157h148v212z" />
    <glyph glyph-name="onehalf" unicode="&#xbd;" horiz-adv-x="892" 
d="M160 16l420 732l52 -31l-420 -732zM123 636q-11 -8 -37 -17q-13 -4 -24.5 -7t-17.5 -3l-15 56q8 1 27.5 8.5t35.5 15.5q16 9 31 23t18 23h66v-439h-84v340zM544 83.5q20 36.5 42.5 59.5t56.5 51l19 15q39 32 58 53t19 46q0 33 -20.5 51.5t-55.5 18.5q-58 0 -105 -53
l-37 53q19 24 57 44.5t95 20.5q65 0 105.5 -34.5t40.5 -93.5q0 -35 -18 -64t-32.5 -42t-52.5 -43q-41 -33 -63 -53.5t-28 -46.5h212v-66h-318q5 47 25 83.5z" />
    <glyph glyph-name="threequarters" unicode="&#xbe;" horiz-adv-x="892" 
d="M214 16l419 732l52 -31l-419 -732zM314 353q-22 -30 -59 -46t-80 -16q-38 0 -68.5 13t-40.5 21.5t-37 33.5l39 49q17 -18 44.5 -36.5t60.5 -18.5q38 0 61 19.5t23 53.5q0 32 -22.5 51.5t-53.5 19.5h-50v60h44q32 0 52 16t20 45q0 28 -22 45t-53 17q-29 0 -54 -11.5
t-43 -29.5l-32 50q19 20 53 37t83 17q59 0 102 -29.5t43 -80.5q0 -44 -24 -69t-53 -32q34 -7 61.5 -35.5t27.5 -75.5q0 -38 -22 -68zM798 0h-82v95h-213v62l199 280h95v-280h66v-62h-65v-95zM570 157h146v212z" />
    <glyph glyph-name="questiondown" unicode="&#xbf;" horiz-adv-x="490" 
d="M318 422q-19 -19 -48 -19t-48 18.5t-19 46.5t19 46.5t48 18.5q28 0 47.5 -18.5t19.5 -45.5q0 -28 -19 -47zM374.5 -178.5q-50.5 -28.5 -130.5 -28.5q-59 0 -105 23t-71.5 62.5t-25.5 85.5q0 42 15 75.5t32.5 53t42.5 41.5l66 60q29 27 29 70l2 48h82v-44q1 -38 -7 -64.5
t-33 -50.5l-56 -56q-5 -5 -27 -24.5t-36 -44t-14 -50.5q0 -44 32 -73t89 -29q50 0 86.5 22.5t56.5 47.5l50 -63q-27 -33 -77.5 -61.5z" />
    <glyph glyph-name="Agrave" unicode="&#xc0;" horiz-adv-x="643" 
d="M470 179h-306l-63 -179h-104l263 717h122l263 -717h-112zM191 263h252l-125 357zM183 922h106l76 -143h-75z" />
    <glyph glyph-name="Aacute" unicode="&#xc1;" horiz-adv-x="643" 
d="M470 179h-306l-63 -179h-104l263 717h122l263 -717h-112zM191 263h252l-125 357zM279 779l76 143h106l-107 -143h-75z" />
    <glyph glyph-name="Acircumflex" unicode="&#xc2;" horiz-adv-x="643" 
d="M470 179h-306l-63 -179h-104l263 717h122l263 -717h-112zM191 263h252l-125 357zM319 876l-72 -97h-74l95 143h101l95 -143h-74z" />
    <glyph glyph-name="Atilde" unicode="&#xc3;" horiz-adv-x="643" 
d="M470 179h-306l-63 -179h-104l263 717h122l263 -717h-112zM191 263h252l-125 357zM459.5 823.5q-28.5 -33.5 -67.5 -33.5q-26 0 -44 8t-29.5 16t-15.5 11q-19 13 -28.5 18.5t-22.5 5.5q-15 0 -27.5 -14.5t-16.5 -43.5l-53 7q0 46 28.5 79t67.5 33q27 0 45 -7.5t29 -15.5
t15 -11q3 -2 14 -9.5t20 -11t17 -3.5q15 0 27.5 14.5t16.5 43.5l53 -7q0 -46 -28.5 -79.5z" />
    <glyph glyph-name="Adieresis" unicode="&#xc4;" horiz-adv-x="643" 
d="M470 179h-306l-63 -179h-104l263 717h122l263 -717h-112zM191 263h252l-125 357zM273.5 809.5q-15.5 -16.5 -40.5 -16.5q-24 0 -40 16.5t-16 39.5q0 24 16 40.5t40 16.5q25 0 40.5 -16.5t15.5 -40.5q0 -23 -15.5 -39.5zM450 809.5q-16 -16.5 -40 -16.5q-25 0 -40.5 16.5
t-15.5 39.5q0 24 15.5 40.5t39.5 16.5q25 0 41 -16.5t16 -40.5q0 -23 -16 -39.5z" />
    <glyph glyph-name="Aring" unicode="&#xc5;" horiz-adv-x="643" 
d="M470 179h-306l-63 -179h-104l263 717h122l263 -717h-112zM191 263h252l-125 357zM389 791q-27 -27 -68 -27q-40 0 -67 27t-27 67q0 41 27 68t67 27q41 0 68 -27t27 -68q0 -40 -27 -67zM357 894q-15 15 -36 15t-35.5 -15t-14.5 -36t14.5 -35.5t35.5 -14.5t36 14.5t15 35.5
t-15 36z" />
    <glyph glyph-name="AE" unicode="&#xc6;" horiz-adv-x="928" 
d="M457 204h-269l-118 -204h-115l425 717h490v-83h-308v-212h287v-84h-287v-251h319v-87h-424v204zM433 635l-201 -348h225v348h-24z" />
    <glyph glyph-name="Ccedilla" unicode="&#xc7;" horiz-adv-x="676" 
d="M623 90.5q-27 -31.5 -78.5 -61.5t-124.5 -37l-65 -140h-103l93 140q-87 8 -154 54t-104.5 126.5t-37.5 186.5q0 112 45.5 196t122.5 128.5t169 44.5q81 0 138.5 -28.5t86.5 -59.5t35 -46l-63 -66q0 5 -22.5 32.5t-65.5 51.5t-105 24q-68 0 -121 -35t-82.5 -97.5
t-29.5 -143.5t28.5 -143.5t80 -97t120.5 -34.5q62 0 107 24.5t70.5 53t25.5 32.5l61 -68q0 -5 -27 -36.5z" />
    <glyph glyph-name="Egrave" unicode="&#xc8;" horiz-adv-x="586" 
d="M93 717h436v-83h-332v-212h309v-84h-309v-251h343v-87h-447v717zM189 922h106l76 -143h-75z" />
    <glyph glyph-name="Eacute" unicode="&#xc9;" horiz-adv-x="586" 
d="M93 717h436v-83h-332v-212h309v-84h-309v-251h343v-87h-447v717zM247 779l76 143h106l-107 -143h-75z" />
    <glyph glyph-name="Ecircumflex" unicode="&#xca;" horiz-adv-x="586" 
d="M93 717h436v-83h-332v-212h309v-84h-309v-251h343v-87h-447v717zM311 876l-72 -97h-74l95 143h101l95 -143h-74z" />
    <glyph glyph-name="Edieresis" unicode="&#xcb;" horiz-adv-x="586" 
d="M93 717h436v-83h-332v-212h309v-84h-309v-251h343v-87h-447v717zM262.5 809.5q-15.5 -16.5 -40.5 -16.5q-24 0 -40 16.5t-16 39.5q0 24 16 40.5t40 16.5q25 0 40.5 -16.5t15.5 -40.5q0 -23 -15.5 -39.5zM439 809.5q-16 -16.5 -40 -16.5q-25 0 -40.5 16.5t-15.5 39.5
q0 24 15.5 40.5t39.5 16.5q25 0 41 -16.5t16 -40.5q0 -23 -16 -39.5z" />
    <glyph glyph-name="Igrave" unicode="&#xcc;" horiz-adv-x="289" 
d="M93 717h105v-717h-105v717zM15 922h106l76 -143h-75z" />
    <glyph glyph-name="Iacute" unicode="&#xcd;" horiz-adv-x="289" 
d="M93 717h105v-717h-105v717zM93 779l76 143h106l-107 -143h-75z" />
    <glyph glyph-name="Icircumflex" unicode="&#xce;" horiz-adv-x="289" 
d="M93 717h105v-717h-105v717zM145 876l-72 -97h-74l95 143h101l95 -143h-74z" />
    <glyph glyph-name="Idieresis" unicode="&#xcf;" horiz-adv-x="289" 
d="M93 717h105v-717h-105v717zM96.5 809.5q-15.5 -16.5 -40.5 -16.5q-24 0 -40 16.5t-16 39.5q0 24 16 40.5t40 16.5q25 0 40.5 -16.5t15.5 -40.5q0 -23 -15.5 -39.5zM273 809.5q-16 -16.5 -40 -16.5q-25 0 -40.5 16.5t-15.5 39.5q0 24 15.5 40.5t39.5 16.5q25 0 41 -16.5
t16 -40.5q0 -23 -16 -39.5z" />
    <glyph glyph-name="Eth" unicode="&#xd0;" horiz-adv-x="731" 
d="M653.5 202q-29.5 -69 -77.5 -114q-44 -44 -104.5 -66t-142.5 -22h-236v333h-64v76h64v308h236q81 0 141 -22t106 -66q48 -46 77.5 -114.5t29.5 -155.5q0 -88 -29.5 -157zM554.5 478.5q-19.5 54.5 -53.5 88.5q-68 67 -173 67h-131v-225h157v-76h-157v-247h131
q107 0 173 65q34 34 53.5 88.5t19.5 119.5t-19.5 119.5z" />
    <glyph glyph-name="Ntilde" unicode="&#xd1;" horiz-adv-x="753" 
d="M190 576v-576h-97v717h116l353 -549v549h98v-717h-100zM513.5 823.5q-28.5 -33.5 -67.5 -33.5q-26 0 -44 8t-29.5 16t-15.5 11q-19 13 -28.5 18.5t-22.5 5.5q-15 0 -27.5 -14.5t-16.5 -43.5l-53 7q0 46 28.5 79t67.5 33q27 0 45 -7.5t29 -15.5t15 -11q3 -2 14 -9.5
t20 -11t17 -3.5q15 0 27.5 14.5t16.5 43.5l53 -7q0 -46 -28.5 -79.5z" />
    <glyph glyph-name="Ograve" unicode="&#xd2;" horiz-adv-x="785" 
d="M694.5 167.5q-42.5 -83.5 -120.5 -130.5t-181 -47t-181 47t-120.5 130.5t-42.5 191.5q0 107 42.5 191t120.5 131t181 47t181 -47t120.5 -131t42.5 -191q0 -108 -42.5 -191.5zM599.5 504q-28.5 64 -81.5 99.5t-125 35.5t-125.5 -35.5t-82 -99t-28.5 -144.5t28.5 -144.5
t82 -99.5t125.5 -36t125 36t81.5 99t28.5 144t-28.5 145zM249 922h106l76 -143h-75z" />
    <glyph glyph-name="Oacute" unicode="&#xd3;" horiz-adv-x="785" 
d="M694.5 167.5q-42.5 -83.5 -120.5 -130.5t-181 -47t-181 47t-120.5 130.5t-42.5 191.5q0 107 42.5 191t120.5 131t181 47t181 -47t120.5 -131t42.5 -191q0 -108 -42.5 -191.5zM599.5 504q-28.5 64 -81.5 99.5t-125 35.5t-125.5 -35.5t-82 -99t-28.5 -144.5t28.5 -144.5
t82 -99.5t125.5 -36t125 36t81.5 99t28.5 144t-28.5 145zM355 779l76 143h106l-107 -143h-75z" />
    <glyph glyph-name="Ocircumflex" unicode="&#xd4;" horiz-adv-x="785" 
d="M694.5 167.5q-42.5 -83.5 -120.5 -130.5t-181 -47t-181 47t-120.5 130.5t-42.5 191.5q0 107 42.5 191t120.5 131t181 47t181 -47t120.5 -131t42.5 -191q0 -108 -42.5 -191.5zM599.5 504q-28.5 64 -81.5 99.5t-125 35.5t-125.5 -35.5t-82 -99t-28.5 -144.5t28.5 -144.5
t82 -99.5t125.5 -36t125 36t81.5 99t28.5 144t-28.5 145zM393 876l-72 -97h-74l95 143h101l95 -143h-74z" />
    <glyph glyph-name="Otilde" unicode="&#xd5;" horiz-adv-x="785" 
d="M694.5 167.5q-42.5 -83.5 -120.5 -130.5t-181 -47t-181 47t-120.5 130.5t-42.5 191.5q0 107 42.5 191t120.5 131t181 47t181 -47t120.5 -131t42.5 -191q0 -108 -42.5 -191.5zM599.5 504q-28.5 64 -81.5 99.5t-125 35.5t-125.5 -35.5t-82 -99t-28.5 -144.5t28.5 -144.5
t82 -99.5t125.5 -36t125 36t81.5 99t28.5 144t-28.5 145zM530.5 823.5q-28.5 -33.5 -67.5 -33.5q-26 0 -44 8t-29.5 16t-15.5 11q-19 13 -28.5 18.5t-22.5 5.5q-15 0 -27.5 -14.5t-16.5 -43.5l-53 7q0 46 28.5 79t67.5 33q27 0 45 -7.5t29 -15.5t15 -11q3 -2 14 -9.5t20 -11
t17 -3.5q15 0 27.5 14.5t16.5 43.5l53 -7q0 -46 -28.5 -79.5z" />
    <glyph glyph-name="Odieresis" unicode="&#xd6;" horiz-adv-x="785" 
d="M694.5 167.5q-42.5 -83.5 -120.5 -130.5t-181 -47t-181 47t-120.5 130.5t-42.5 191.5q0 107 42.5 191t120.5 131t181 47t181 -47t120.5 -131t42.5 -191q0 -108 -42.5 -191.5zM599.5 504q-28.5 64 -81.5 99.5t-125 35.5t-125.5 -35.5t-82 -99t-28.5 -144.5t28.5 -144.5
t82 -99.5t125.5 -36t125 36t81.5 99t28.5 144t-28.5 145zM345.5 809.5q-15.5 -16.5 -40.5 -16.5q-24 0 -40 16.5t-16 39.5q0 24 16 40.5t40 16.5q25 0 40.5 -16.5t15.5 -40.5q0 -23 -15.5 -39.5zM522 809.5q-16 -16.5 -40 -16.5q-25 0 -40.5 16.5t-15.5 39.5q0 24 15.5 40.5
t39.5 16.5q25 0 41 -16.5t16 -40.5q0 -23 -16 -39.5z" />
    <glyph glyph-name="multiply" unicode="&#xd7;" 
d="M296 285l-146 -145l-55 55l146 145l-146 146l55 55l145 -146l146 146l55 -55l-146 -146l146 -145l-55 -55z" />
    <glyph glyph-name="Oslash" unicode="&#xd8;" horiz-adv-x="785" 
d="M694.5 167.5q-42.5 -83.5 -120.5 -130.5t-181 -47q-117 0 -200 58l-72 -89l-51 41l74 92q-46 50 -70.5 118.5t-24.5 148.5q0 107 42.5 191t120.5 131t181 47q117 0 205 -63l66 85l52 -41l-70 -88q44 -49 67.5 -116t23.5 -146q0 -108 -42.5 -191.5zM393 639
q-72 0 -125.5 -35.5t-82 -99t-28.5 -144.5q0 -55 13.5 -102.5t38.5 -82.5l328 414q-59 50 -144 50zM581 539l-327 -413q60 -46 139 -46q72 0 125 36t81.5 99t28.5 144q0 105 -47 180z" />
    <glyph glyph-name="Ugrave" unicode="&#xd9;" horiz-adv-x="709" 
d="M626 717v-434q0 -74 -12 -123.5t-44 -88.5q-36 -41 -88 -61t-127 -20q-76 0 -128 20t-87 61q-33 39 -45.5 89.5t-12.5 122.5v434h106v-440q0 -56 6 -84.5t25 -53.5q43 -56 135 -56t135 56q19 25 25.5 53.5t6.5 84.5v440h105zM224 922h106l76 -143h-75z" />
    <glyph glyph-name="Uacute" unicode="&#xda;" horiz-adv-x="709" 
d="M626 717v-434q0 -74 -12 -123.5t-44 -88.5q-36 -41 -88 -61t-127 -20q-76 0 -128 20t-87 61q-33 39 -45.5 89.5t-12.5 122.5v434h106v-440q0 -56 6 -84.5t25 -53.5q43 -56 135 -56t135 56q19 25 25.5 53.5t6.5 84.5v440h105zM303 779l76 143h106l-107 -143h-75z" />
    <glyph glyph-name="Ucircumflex" unicode="&#xdb;" horiz-adv-x="709" 
d="M626 717v-434q0 -74 -12 -123.5t-44 -88.5q-36 -41 -88 -61t-127 -20q-76 0 -128 20t-87 61q-33 39 -45.5 89.5t-12.5 122.5v434h106v-440q0 -56 6 -84.5t25 -53.5q43 -56 135 -56t135 56q19 25 25.5 53.5t6.5 84.5v440h105zM355 876l-72 -97h-74l95 143h101l95 -143h-74
z" />
    <glyph glyph-name="Udieresis" unicode="&#xdc;" horiz-adv-x="709" 
d="M626 717v-434q0 -74 -12 -123.5t-44 -88.5q-36 -41 -88 -61t-127 -20q-76 0 -128 20t-87 61q-33 39 -45.5 89.5t-12.5 122.5v434h106v-440q0 -56 6 -84.5t25 -53.5q43 -56 135 -56t135 56q19 25 25.5 53.5t6.5 84.5v440h105zM306.5 809.5q-15.5 -16.5 -40.5 -16.5
q-24 0 -40 16.5t-16 39.5q0 24 16 40.5t40 16.5q25 0 40.5 -16.5t15.5 -40.5q0 -23 -15.5 -39.5zM483 809.5q-16 -16.5 -40 -16.5q-25 0 -40.5 16.5t-15.5 39.5q0 24 15.5 40.5t39.5 16.5q25 0 41 -16.5t16 -40.5q0 -23 -16 -39.5z" />
    <glyph glyph-name="Yacute" unicode="&#xdd;" horiz-adv-x="609" 
d="M357 0h-104v296l-247 421h116l184 -338l184 338h113l-246 -421v-296zM252 779l76 143h106l-107 -143h-75z" />
    <glyph glyph-name="Thorn" unicode="&#xde;" horiz-adv-x="609" 
d="M487 208q-34 -28 -81 -41.5t-99 -13.5h-110v-153h-104v717h104v-117h110q113 0 180 -53q72 -60 72 -170q0 -112 -72 -169zM405 488q-39 29 -118 29h-90v-281h90q41 0 67.5 6.5t48.5 22.5q51 38 51 112t-49 111z" />
    <glyph glyph-name="germandbls" unicode="&#xdf;" horiz-adv-x="602" 
d="M528 99q-29 -52 -78.5 -80.5t-109.5 -28.5q-31 0 -57 4.5t-39 10.5l18 76q8 -4 27 -8t44 -4q29 0 56.5 16.5t46 51t18.5 87.5q0 52 -23.5 87t-60 51.5t-76.5 16.5h-34v76h28q53 0 84 31t31 83q0 49 -30.5 76t-71.5 27q-48 0 -82 -29q-15 -16 -26 -39.5t-11 -64.5v-539
h-101v522q0 114 67 173q26 22 63 37t96 15q51 0 94.5 -19.5t70 -58t26.5 -90.5q0 -49 -21 -83.5t-47 -52.5t-41 -19q69 -13 118.5 -65.5t49.5 -139.5q0 -68 -29 -120z" />
    <glyph glyph-name="agrave" unicode="&#xe0;" horiz-adv-x="534" 
d="M375.5 25.5q-4.5 19.5 -4.5 38.5q-65 -76 -166 -76q-69 0 -117 40.5t-48 119.5q0 73 43 106.5t98 48.5q33 9 83 14.5t103 5.5v32q0 53 -32.5 77t-85.5 24q-45 0 -86.5 -14t-69.5 -33l-33 72q37 21 88 36t104 15q105 0 159 -47q27 -24 42 -58t15 -90v-226q0 -38 6 -63.5
t18 -47.5h-110q-2 6 -6.5 25.5zM309.5 254q-35.5 -3 -58.5 -6q-41 -6 -75 -26.5t-34 -68.5t28 -69.5t67 -21.5q35 0 72 21t58 60v114q-22 0 -57.5 -3zM136 726h106l76 -143h-75z" />
    <glyph glyph-name="aacute" unicode="&#xe1;" horiz-adv-x="534" 
d="M375.5 25.5q-4.5 19.5 -4.5 38.5q-65 -76 -166 -76q-69 0 -117 40.5t-48 119.5q0 73 43 106.5t98 48.5q33 9 83 14.5t103 5.5v32q0 53 -32.5 77t-85.5 24q-45 0 -86.5 -14t-69.5 -33l-33 72q37 21 88 36t104 15q105 0 159 -47q27 -24 42 -58t15 -90v-226q0 -38 6 -63.5
t18 -47.5h-110q-2 6 -6.5 25.5zM309.5 254q-35.5 -3 -58.5 -6q-41 -6 -75 -26.5t-34 -68.5t28 -69.5t67 -21.5q35 0 72 21t58 60v114q-22 0 -57.5 -3zM207 583l76 143h106l-107 -143h-75z" />
    <glyph glyph-name="acircumflex" unicode="&#xe2;" horiz-adv-x="534" 
d="M375.5 25.5q-4.5 19.5 -4.5 38.5q-65 -76 -166 -76q-69 0 -117 40.5t-48 119.5q0 73 43 106.5t98 48.5q33 9 83 14.5t103 5.5v32q0 53 -32.5 77t-85.5 24q-45 0 -86.5 -14t-69.5 -33l-33 72q37 21 88 36t104 15q105 0 159 -47q27 -24 42 -58t15 -90v-226q0 -38 6 -63.5
t18 -47.5h-110q-2 6 -6.5 25.5zM309.5 254q-35.5 -3 -58.5 -6q-41 -6 -75 -26.5t-34 -68.5t28 -69.5t67 -21.5q35 0 72 21t58 60v114q-22 0 -57.5 -3zM265 680l-72 -97h-74l95 143h101l95 -143h-74z" />
    <glyph glyph-name="atilde" unicode="&#xe3;" horiz-adv-x="534" 
d="M375.5 25.5q-4.5 19.5 -4.5 38.5q-65 -76 -166 -76q-69 0 -117 40.5t-48 119.5q0 73 43 106.5t98 48.5q33 9 83 14.5t103 5.5v32q0 53 -32.5 77t-85.5 24q-45 0 -86.5 -14t-69.5 -33l-33 72q37 21 88 36t104 15q105 0 159 -47q27 -24 42 -58t15 -90v-226q0 -38 6 -63.5
t18 -47.5h-110q-2 6 -6.5 25.5zM309.5 254q-35.5 -3 -58.5 -6q-41 -6 -75 -26.5t-34 -68.5t28 -69.5t67 -21.5q35 0 72 21t58 60v114q-22 0 -57.5 -3zM408.5 627.5q-28.5 -33.5 -67.5 -33.5q-26 0 -44 8t-29.5 16t-15.5 11q-19 13 -28.5 18.5t-22.5 5.5q-15 0 -27.5 -14.5
t-16.5 -43.5l-53 7q0 46 28.5 79t67.5 33q27 0 45 -7.5t29 -15.5t15 -11q3 -2 14 -9.5t20 -11t17 -3.5q15 0 27.5 14.5t16.5 43.5l53 -7q0 -46 -28.5 -79.5z" />
    <glyph glyph-name="adieresis" unicode="&#xe4;" horiz-adv-x="534" 
d="M375.5 25.5q-4.5 19.5 -4.5 38.5q-65 -76 -166 -76q-69 0 -117 40.5t-48 119.5q0 73 43 106.5t98 48.5q33 9 83 14.5t103 5.5v32q0 53 -32.5 77t-85.5 24q-45 0 -86.5 -14t-69.5 -33l-33 72q37 21 88 36t104 15q105 0 159 -47q27 -24 42 -58t15 -90v-226q0 -38 6 -63.5
t18 -47.5h-110q-2 6 -6.5 25.5zM309.5 254q-35.5 -3 -58.5 -6q-41 -6 -75 -26.5t-34 -68.5t28 -69.5t67 -21.5q35 0 72 21t58 60v114q-22 0 -57.5 -3zM216.5 614.5q-15.5 -16.5 -40.5 -16.5q-24 0 -40 16.5t-16 39.5q0 24 16 40.5t40 16.5q25 0 40.5 -16.5t15.5 -40.5
q0 -23 -15.5 -39.5zM393 614.5q-16 -16.5 -40 -16.5q-25 0 -40.5 16.5t-15.5 39.5q0 24 15.5 40.5t39.5 16.5q25 0 41 -16.5t16 -40.5q0 -23 -16 -39.5z" />
    <glyph glyph-name="aring" unicode="&#xe5;" horiz-adv-x="534" 
d="M375.5 25.5q-4.5 19.5 -4.5 38.5q-65 -76 -166 -76q-69 0 -117 40.5t-48 119.5q0 73 43 106.5t98 48.5q33 9 83 14.5t103 5.5v32q0 53 -32.5 77t-85.5 24q-45 0 -86.5 -14t-69.5 -33l-33 72q37 21 88 36t104 15q105 0 159 -47q27 -24 42 -58t15 -90v-226q0 -38 6 -63.5
t18 -47.5h-110q-2 6 -6.5 25.5zM309.5 254q-35.5 -3 -58.5 -6q-41 -6 -75 -26.5t-34 -68.5t28 -69.5t67 -21.5q35 0 72 21t58 60v114q-22 0 -57.5 -3zM334 595q-27 -27 -68 -27q-40 0 -67 27t-27 67q0 41 27 68t67 27q41 0 68 -27t27 -68q0 -40 -27 -67zM302 698
q-15 15 -36 15t-35.5 -15t-14.5 -36t14.5 -35.5t35.5 -14.5t36 14.5t15 35.5t-15 36z" />
    <glyph glyph-name="ae" unicode="&#xe6;" horiz-adv-x="870" 
d="M467 240q2 -79 43.5 -125t113.5 -46q61 0 103 21.5t57 36.5l40 -64q0 -3 -27 -22t-74.5 -35t-111.5 -16q-69 0 -119 27t-81 72q-39 -52 -88 -75.5t-114 -23.5q-71 0 -120 38t-49 114q0 72 44 107t97 48q72 18 186 18v40q0 53 -32.5 77t-85.5 24q-45 0 -86.5 -14
t-69.5 -33l-33 72q37 21 88 36t104 15q93 0 143 -40q28 -21 37 -49q14 19 31 36.5t55 35t93 17.5q69 0 120 -32t78 -88.5t27 -129.5v-32h-369v-10zM705.5 416.5q-32.5 42.5 -98.5 42.5q-45 0 -75.5 -21.5t-46.5 -54.5t-19 -67h272q0 58 -32.5 100.5zM366 251
q-18 0 -50.5 -2.5t-56.5 -5.5q-117 -20 -117 -93q0 -48 30.5 -68t69.5 -20q36 0 75 21t64 68q-15 39 -15 100z" />
    <glyph glyph-name="ccedilla" unicode="&#xe7;" horiz-adv-x="506" 
d="M455.5 47.5q-14.5 -14.5 -51.5 -33.5t-88 -24l-64 -137h-103l92 138q-59 10 -105 45t-72 92.5t-26 131.5q0 82 34.5 144t92 95t125.5 33q61 0 103.5 -20t62 -40.5t30.5 -33.5l-54 -60q0 2 -18 20.5t-47.5 34t-67.5 15.5q-44 0 -80 -21t-57.5 -63t-21.5 -102
q0 -90 44.5 -138t112.5 -48q38 0 68.5 15t49.5 32.5t21 23.5l52 -65q-18 -20 -32.5 -34.5z" />
    <glyph glyph-name="egrave" unicode="&#xe8;" horiz-adv-x="547" 
d="M185.5 115q41.5 -46 113.5 -46q60 0 99.5 20t61.5 38l41 -64q0 -3 -27 -22t-75 -35t-112 -16q-73 0 -129 32t-87 93t-31 145q0 83 32 145t88.5 94.5t126.5 32.5q69 0 120 -32t78.5 -90t27.5 -132v-38h-371q2 -79 43.5 -125zM382 416q-33 43 -98 43t-101.5 -45t-41.5 -103
h274q0 62 -33 105zM148 726h106l76 -143h-75z" />
    <glyph glyph-name="eacute" unicode="&#xe9;" horiz-adv-x="547" 
d="M185.5 115q41.5 -46 113.5 -46q60 0 99.5 20t61.5 38l41 -64q0 -3 -27 -22t-75 -35t-112 -16q-73 0 -129 32t-87 93t-31 145q0 83 32 145t88.5 94.5t126.5 32.5q69 0 120 -32t78.5 -90t27.5 -132v-38h-371q2 -79 43.5 -125zM382 416q-33 43 -98 43t-101.5 -45t-41.5 -103
h274q0 62 -33 105zM225 583l76 143h106l-107 -143h-75z" />
    <glyph glyph-name="ecircumflex" unicode="&#xea;" horiz-adv-x="547" 
d="M185.5 115q41.5 -46 113.5 -46q60 0 99.5 20t61.5 38l41 -64q0 -3 -27 -22t-75 -35t-112 -16q-73 0 -129 32t-87 93t-31 145q0 83 32 145t88.5 94.5t126.5 32.5q69 0 120 -32t78.5 -90t27.5 -132v-38h-371q2 -79 43.5 -125zM382 416q-33 43 -98 43t-101.5 -45t-41.5 -103
h274q0 62 -33 105zM291 680l-72 -97h-74l95 143h101l95 -143h-74z" />
    <glyph glyph-name="edieresis" unicode="&#xeb;" horiz-adv-x="547" 
d="M185.5 115q41.5 -46 113.5 -46q60 0 99.5 20t61.5 38l41 -64q0 -3 -27 -22t-75 -35t-112 -16q-73 0 -129 32t-87 93t-31 145q0 83 32 145t88.5 94.5t126.5 32.5q69 0 120 -32t78.5 -90t27.5 -132v-38h-371q2 -79 43.5 -125zM382 416q-33 43 -98 43t-101.5 -45t-41.5 -103
h274q0 62 -33 105zM238.5 614.5q-15.5 -16.5 -40.5 -16.5q-24 0 -40 16.5t-16 39.5q0 24 16 40.5t40 16.5q25 0 40.5 -16.5t15.5 -40.5q0 -23 -15.5 -39.5zM415 614.5q-16 -16.5 -40 -16.5q-25 0 -40.5 16.5t-15.5 39.5q0 24 15.5 40.5t39.5 16.5q25 0 41 -16.5t16 -40.5
q0 -23 -16 -39.5z" />
    <glyph glyph-name="igrave" unicode="&#xec;" horiz-adv-x="263" 
d="M81 522h101v-522h-101v522zM3 726h106l76 -143h-75z" />
    <glyph glyph-name="iacute" unicode="&#xed;" horiz-adv-x="263" 
d="M81 522h101v-522h-101v522zM81 583l76 143h106l-107 -143h-75z" />
    <glyph glyph-name="icircumflex" unicode="&#xee;" horiz-adv-x="263" 
d="M81 522h101v-522h-101v522zM132 680l-72 -97h-74l95 143h101l95 -143h-74z" />
    <glyph glyph-name="idieresis" unicode="&#xef;" horiz-adv-x="263" 
d="M81 522h101v-522h-101v522zM83.5 614.5q-15.5 -16.5 -40.5 -16.5q-24 0 -40 16.5t-16 39.5q0 24 16 40.5t40 16.5q25 0 40.5 -16.5t15.5 -40.5q0 -23 -15.5 -39.5zM260 614.5q-16 -16.5 -40 -16.5q-25 0 -40.5 16.5t-15.5 39.5q0 24 15.5 40.5t39.5 16.5q25 0 41 -16.5
t16 -40.5q0 -23 -16 -39.5z" />
    <glyph glyph-name="eth" unicode="&#xf0;" horiz-adv-x="584" 
d="M513.5 120.5q-31.5 -62.5 -88.5 -96.5t-132 -34t-132.5 32.5t-89 90t-31.5 129.5q0 70 30.5 127t83.5 89t119 32q58 0 96.5 -22.5t55.5 -43.5q-33 95 -130 185l-105 -70l-32 44l94 61q-16 13 -48 32.5t-60 30.5l27 57q29 -10 71.5 -31t72.5 -44l106 71l32 -44l-93 -61
q19 -16 46 -42.5t44 -49.5q23 -33 41.5 -67t36 -94.5t17.5 -135.5q0 -83 -31.5 -145.5zM401 371.5q-40 49.5 -108 49.5q-70 0 -109.5 -49t-39.5 -127t39.5 -127t108.5 -49t109 49t40 127q0 77 -40 126.5z" />
    <glyph glyph-name="ntilde" unicode="&#xf1;" horiz-adv-x="602" 
d="M426 311q0 65 -23.5 99.5t-80.5 34.5q-37 0 -67 -22t-48.5 -53t-24.5 -59v-311h-101v522h94l7 -96q26 45 70 75.5t104 30.5q81 0 126 -48.5t45 -145.5v-338h-101v311zM443.5 627.5q-28.5 -33.5 -67.5 -33.5q-26 0 -44 8t-29.5 16t-15.5 11q-19 13 -28.5 18.5t-22.5 5.5
q-15 0 -27.5 -14.5t-16.5 -43.5l-53 7q0 46 28.5 79t67.5 33q27 0 45 -7.5t29 -15.5t15 -11q3 -2 14 -9.5t20 -11t17 -3.5q15 0 27.5 14.5t16.5 43.5l53 -7q0 -46 -28.5 -79.5z" />
    <glyph glyph-name="ograve" unicode="&#xf2;" horiz-adv-x="584" 
d="M513.5 117.5q-31.5 -61.5 -88.5 -94.5t-132 -33q-76 0 -133 33t-88.5 94.5t-31.5 143.5t31.5 143t88.5 94.5t132 33.5t132.5 -33t89 -94.5t31.5 -143.5t-31.5 -143.5zM402 400q-39 53 -109 53t-109.5 -53t-39.5 -139q0 -87 38.5 -139.5t109.5 -52.5t110 52.5t39 139.5
q0 86 -39 139zM158 726h106l76 -143h-75z" />
    <glyph glyph-name="oacute" unicode="&#xf3;" horiz-adv-x="584" 
d="M513.5 117.5q-31.5 -61.5 -88.5 -94.5t-132 -33q-76 0 -133 33t-88.5 94.5t-31.5 143.5t31.5 143t88.5 94.5t132 33.5t132.5 -33t89 -94.5t31.5 -143.5t-31.5 -143.5zM402 400q-39 53 -109 53t-109.5 -53t-39.5 -139q0 -87 38.5 -139.5t109.5 -52.5t110 52.5t39 139.5
q0 86 -39 139zM244 583l76 143h106l-107 -143h-75z" />
    <glyph glyph-name="ocircumflex" unicode="&#xf4;" horiz-adv-x="584" 
d="M513.5 117.5q-31.5 -61.5 -88.5 -94.5t-132 -33q-76 0 -133 33t-88.5 94.5t-31.5 143.5t31.5 143t88.5 94.5t132 33.5t132.5 -33t89 -94.5t31.5 -143.5t-31.5 -143.5zM402 400q-39 53 -109 53t-109.5 -53t-39.5 -139q0 -87 38.5 -139.5t109.5 -52.5t110 52.5t39 139.5
q0 86 -39 139zM293 680l-72 -97h-74l95 143h101l95 -143h-74z" />
    <glyph glyph-name="otilde" unicode="&#xf5;" horiz-adv-x="584" 
d="M513.5 117.5q-31.5 -61.5 -88.5 -94.5t-132 -33q-76 0 -133 33t-88.5 94.5t-31.5 143.5t31.5 143t88.5 94.5t132 33.5t132.5 -33t89 -94.5t31.5 -143.5t-31.5 -143.5zM402 400q-39 53 -109 53t-109.5 -53t-39.5 -139q0 -87 38.5 -139.5t109.5 -52.5t110 52.5t39 139.5
q0 86 -39 139zM431.5 627.5q-28.5 -33.5 -67.5 -33.5q-26 0 -44 8t-29.5 16t-15.5 11q-19 13 -28.5 18.5t-22.5 5.5q-15 0 -27.5 -14.5t-16.5 -43.5l-53 7q0 46 28.5 79t67.5 33q27 0 45 -7.5t29 -15.5t15 -11q3 -2 14 -9.5t20 -11t17 -3.5q15 0 27.5 14.5t16.5 43.5l53 -7
q0 -46 -28.5 -79.5z" />
    <glyph glyph-name="odieresis" unicode="&#xf6;" horiz-adv-x="584" 
d="M513.5 117.5q-31.5 -61.5 -88.5 -94.5t-132 -33q-76 0 -133 33t-88.5 94.5t-31.5 143.5t31.5 143t88.5 94.5t132 33.5t132.5 -33t89 -94.5t31.5 -143.5t-31.5 -143.5zM402 400q-39 53 -109 53t-109.5 -53t-39.5 -139q0 -87 38.5 -139.5t109.5 -52.5t110 52.5t39 139.5
q0 86 -39 139zM244.5 614.5q-15.5 -16.5 -40.5 -16.5q-24 0 -40 16.5t-16 39.5q0 24 16 40.5t40 16.5q25 0 40.5 -16.5t15.5 -40.5q0 -23 -15.5 -39.5zM421 614.5q-16 -16.5 -40 -16.5q-25 0 -40.5 16.5t-15.5 39.5q0 24 15.5 40.5t39.5 16.5q25 0 41 -16.5t16 -40.5
q0 -23 -16 -39.5z" />
    <glyph glyph-name="divide" unicode="&#xf7;" 
d="M343 492q-19 -19 -47 -19t-47.5 19t-19.5 47q0 27 19 45.5t47 18.5t47.5 -18.5t19.5 -45.5q0 -28 -19 -47zM56 379h478v-77h-478v77zM343 95.5q-19 -18.5 -47 -18.5t-47.5 18.5t-19.5 45.5q0 28 19 47t47 19t47.5 -19t19.5 -46q0 -28 -19 -46.5z" />
    <glyph glyph-name="oslash" unicode="&#xf8;" horiz-adv-x="584" 
d="M513.5 117.5q-31.5 -61.5 -88.5 -94.5t-132 -33q-92 0 -153 46l-54 -63l-40 36l55 63q-61 73 -61 189q0 82 31.5 143.5t88.5 94.5t132 33q93 0 157 -50l52 62l39 -36l-53 -63q58 -72 58 -184q0 -82 -31.5 -143.5zM293 453q-72 0 -110.5 -52.5t-38.5 -139.5q0 -65 22 -112
l224 264q-40 40 -97 40zM420 367l-222 -262q34 -36 94 -36q71 0 110 52.5t39 139.5q0 62 -21 106z" />
    <glyph glyph-name="ugrave" unicode="&#xf9;" horiz-adv-x="597" 
d="M415 95q-27 -45 -69.5 -75t-100.5 -30q-78 0 -123.5 47t-45.5 146v339h100v-318q0 -62 24.5 -94.5t77.5 -32.5q35 0 64.5 20t48.5 50.5t24 61.5v313h100v-522h-94zM160 726h106l76 -143h-75z" />
    <glyph glyph-name="uacute" unicode="&#xfa;" horiz-adv-x="597" 
d="M415 95q-27 -45 -69.5 -75t-100.5 -30q-78 0 -123.5 47t-45.5 146v339h100v-318q0 -62 24.5 -94.5t77.5 -32.5q35 0 64.5 20t48.5 50.5t24 61.5v313h100v-522h-94zM249 583l76 143h106l-107 -143h-75z" />
    <glyph glyph-name="ucircumflex" unicode="&#xfb;" horiz-adv-x="597" 
d="M415 95q-27 -45 -69.5 -75t-100.5 -30q-78 0 -123.5 47t-45.5 146v339h100v-318q0 -62 24.5 -94.5t77.5 -32.5q35 0 64.5 20t48.5 50.5t24 61.5v313h100v-522h-94zM296 680l-72 -97h-74l95 143h101l95 -143h-74z" />
    <glyph glyph-name="udieresis" unicode="&#xfc;" horiz-adv-x="597" 
d="M415 95q-27 -45 -69.5 -75t-100.5 -30q-78 0 -123.5 47t-45.5 146v339h100v-318q0 -62 24.5 -94.5t77.5 -32.5q35 0 64.5 20t48.5 50.5t24 61.5v313h100v-522h-94zM247.5 614.5q-15.5 -16.5 -40.5 -16.5q-24 0 -40 16.5t-16 39.5q0 24 16 40.5t40 16.5q25 0 40.5 -16.5
t15.5 -40.5q0 -23 -15.5 -39.5zM424 614.5q-16 -16.5 -40 -16.5q-25 0 -40.5 16.5t-15.5 39.5q0 24 15.5 40.5t39.5 16.5q25 0 41 -16.5t16 -40.5q0 -23 -16 -39.5z" />
    <glyph glyph-name="yacute" unicode="&#xfd;" horiz-adv-x="525" 
d="M229 -169.5q-31 -27.5 -79 -27.5q-28 0 -51 5t-36 10.5t-16 7.5l24 77q0 -1 21 -8.5t38 -7.5q21 0 33.5 11t25.5 44l25 63l-202 517h108l146 -424l145 424h108l-234 -601q-25 -63 -56 -90.5zM217 583l76 143h106l-107 -143h-75z" />
    <glyph glyph-name="thorn" unicode="&#xfe;" horiz-adv-x="618" 
d="M549.5 122q-29.5 -62 -83 -97t-120.5 -35q-68 0 -107 29.5t-57 60.5v-270h-101v930h101v-303q7 14 27 35.5t57.5 40.5t88.5 19q67 0 118 -35t78.5 -96.5t27.5 -139.5q0 -77 -29.5 -139zM457 357.5q-18 43.5 -51 69.5t-77 26q-45 0 -79 -25.5t-52.5 -69.5t-18.5 -96
q0 -81 39.5 -136.5t105.5 -55.5q45 0 79 26t53 69.5t19 96.5q0 52 -18 95.5z" />
    <glyph glyph-name="ydieresis" unicode="&#xff;" horiz-adv-x="525" 
d="M229 -169.5q-31 -27.5 -79 -27.5q-28 0 -51 5t-36 10.5t-16 7.5l24 77q0 -1 21 -8.5t38 -7.5q21 0 33.5 11t25.5 44l25 63l-202 517h108l146 -424l145 424h108l-234 -601q-25 -63 -56 -90.5zM220.5 614.5q-15.5 -16.5 -40.5 -16.5q-24 0 -40 16.5t-16 39.5q0 24 16 40.5
t40 16.5q25 0 40.5 -16.5t15.5 -40.5q0 -23 -15.5 -39.5zM397 614.5q-16 -16.5 -40 -16.5q-25 0 -40.5 16.5t-15.5 39.5q0 24 15.5 40.5t39.5 16.5q25 0 41 -16.5t16 -40.5q0 -23 -16 -39.5z" />
    <glyph glyph-name="dotlessi" unicode="&#x131;" horiz-adv-x="263" 
d="M81 522h101v-522h-101v522z" />
    <glyph glyph-name="Lslash" unicode="&#x141;" horiz-adv-x="502" 
d="M93 276l-62 -33v83l62 33v358h105v-304l132 70v-82l-132 -70v-244h291v-87h-396v276z" />
    <glyph glyph-name="lslash" unicode="&#x142;" horiz-adv-x="263" 
d="M182 0h-101v306l-64 -41v82l64 40v353h101v-292l64 41v-82l-64 -41v-366z" />
    <glyph glyph-name="OE" unicode="&#x152;" horiz-adv-x="1022" 
d="M550 34q-4 -5 -25.5 -15.5t-56 -19.5t-77.5 -9q-101 0 -178.5 47t-120.5 130.5t-43 191.5q0 107 42.5 191t120.5 131t179 47q44 0 78.5 -9t55.5 -20t25 -16v34h414v-83h-309v-212h287v-84h-287v-251h320v-87h-425v34zM529.5 599.5q-20.5 14.5 -55.5 27t-83 12.5
q-69 0 -122 -35t-82.5 -98.5t-29.5 -145.5q0 -83 29.5 -146.5t82.5 -98.5t122 -35q48 0 83 12t55.5 26t20.5 16v449q0 2 -20.5 16.5z" />
    <glyph glyph-name="oe" unicode="&#x153;" horiz-adv-x="942" 
d="M582 115q42 -46 114 -46q60 0 99.5 20t61.5 38l39 -64q0 -3 -27 -22t-74 -35t-111 -16q-84 0 -129 35.5t-65 74.5l-22 -33t-67.5 -53.5t-107.5 -23.5q-76 0 -133 33t-88.5 94.5t-31.5 143.5t31.5 143t88.5 94.5t132 33.5q86 0 133 -38t64 -74q63 112 195 112
q69 0 120 -32t78 -90t27 -132v-38h-370q1 -79 43 -125zM777.5 416.5q-32.5 42.5 -98.5 42.5q-65 0 -100.5 -44.5t-40.5 -103.5h272q0 63 -32.5 105.5zM402 400q-39 53 -109 53t-109.5 -53t-39.5 -139q0 -87 38.5 -139.5t109.5 -52.5t110 52.5t39 139.5q0 86 -39 139z" />
    <glyph glyph-name="Scaron" unicode="&#x160;" horiz-adv-x="568" 
d="M509.5 116q-18.5 -39 -51.5 -68q-70 -58 -185 -58q-82 0 -146.5 35t-101.5 77l59 72q91 -96 189 -96q73 0 112.5 30.5t39.5 82.5q0 43 -26.5 65t-67.5 40l-139 55q-48 21 -80 50q-24 21 -39 54t-15 77q0 47 19.5 85t52.5 63q65 49 166 49q80 0 138 -32.5t88 -66.5
l-51 -71q-26 30 -74 57.5t-102 27.5q-63 0 -99.5 -26.5t-36.5 -75.5q0 -44 24 -65t68 -39l140 -55q50 -20 82 -51q55 -53 55 -130q0 -47 -18.5 -86zM246 779l-95 143h74l71 -97l72 97h74l-95 -143h-101z" />
    <glyph glyph-name="scaron" unicode="&#x161;" horiz-adv-x="467" 
d="M382 38q-54 -50 -154 -50q-69 0 -124 30.5t-81 61.5l54 63q25 -29 68.5 -51.5t86.5 -22.5q47 0 74 17.5t27 51.5q0 30 -22.5 44.5t-59.5 27.5q-69 23 -95 33q-41 17 -74 46.5t-33 88.5q0 70 53.5 112.5t139.5 42.5q51 0 92 -14.5t65.5 -32t27.5 -22.5l-43 -66
q-28 24 -65.5 41t-75.5 17q-43 0 -70 -16.5t-27 -48.5q0 -30 21 -44t61 -27l68 -23l32 -11q105 -45 105 -134q0 -68 -51 -114zM191 583l-95 143h74l71 -97l72 97h74l-95 -143h-101z" />
    <glyph glyph-name="Ydieresis" unicode="&#x178;" horiz-adv-x="609" 
d="M357 0h-104v296l-247 421h116l184 -338l184 338h113l-246 -421v-296zM256.5 809.5q-15.5 -16.5 -40.5 -16.5q-24 0 -40 16.5t-16 39.5q0 24 16 40.5t40 16.5q25 0 40.5 -16.5t15.5 -40.5q0 -23 -15.5 -39.5zM433 809.5q-16 -16.5 -40 -16.5q-25 0 -40.5 16.5t-15.5 39.5
q0 24 15.5 40.5t39.5 16.5q25 0 41 -16.5t16 -40.5q0 -23 -16 -39.5z" />
    <glyph glyph-name="Zcaron" unicode="&#x17d;" horiz-adv-x="614" 
d="M36 76l402 558h-389v83h516v-75l-399 -555h411v-87h-541v76zM257 779l-95 143h74l71 -97l72 97h74l-95 -143h-101z" />
    <glyph glyph-name="zcaron" unicode="&#x17e;" horiz-adv-x="477" 
d="M24 64l298 382h-287v76h407v-65l-295 -377h306v-80h-429v64zM189 583l-95 143h74l71 -97l72 97h74l-95 -143h-101z" />
    <glyph glyph-name="florin" unicode="&#x192;" 
d="M528 655q-10 5 -27.5 9.5t-38.5 4.5q-43 0 -62.5 -29.5t-28.5 -76.5l-23 -127h131v-60h-141l-66 -364q-8 -45 -20.5 -77.5t-33.5 -57.5t-52 -38.5t-67 -13.5q-30 0 -56 9t-38 18l28 72q2 -1 10.5 -5t23 -8t31.5 -4q63 0 83 112l62 356h-106v61h117l25 133q12 63 30 96
t42 51q44 32 107 32q28 0 56 -8t50 -19l-24 -73q-2 2 -12 7z" />
    <glyph glyph-name="circumflex" unicode="&#x2c6;" horiz-adv-x="453" 
d="M227 680l-72 -97h-74l95 143h101l95 -143h-74z" />
    <glyph glyph-name="caron" unicode="&#x2c7;" horiz-adv-x="453" 
d="M176 583l-95 143h74l71 -97l72 97h74l-95 -143h-101z" />
    <glyph glyph-name="uni02C9" unicode="&#x2c9;" horiz-adv-x="453" 
d="M71 682h311v-62h-311v62z" />
    <glyph glyph-name="breve" unicode="&#x2d8;" horiz-adv-x="453" 
d="M326 616.5q-39 -34.5 -99 -34.5q-61 0 -100 34.5t-54 99.5l54 12q24 -85 99 -85q77 0 99 85l55 -12q-15 -65 -54 -99.5z" />
    <glyph glyph-name="dotaccent" unicode="&#x2d9;" horiz-adv-x="453" 
d="M271 610q-18 -18 -45 -18q-26 0 -44 18t-18 44t18 44t44 18q27 0 45 -18t18 -44t-18 -44z" />
    <glyph glyph-name="ring" unicode="&#x2da;" horiz-adv-x="453" 
d="M294 595q-27 -27 -68 -27q-40 0 -67 27t-27 67q0 41 27 68t67 27q41 0 68 -27t27 -68q0 -40 -27 -67zM262 698q-15 15 -36 15t-35.5 -15t-14.5 -36t14.5 -35.5t35.5 -14.5t36 14.5t15 35.5t-15 36z" />
    <glyph glyph-name="ogonek" unicode="&#x2db;" horiz-adv-x="453" 
d="M403 -187q-28 -23 -85 -23q-52 0 -82.5 27t-30.5 77q0 30 13.5 53.5t30.5 39t17 13.5h61q-19 -15 -34.5 -38.5t-15.5 -52.5t16 -43t43 -14q23 0 43 6.5t31 15.5l22 -37q-1 -1 -29 -24z" />
    <glyph glyph-name="tilde" unicode="&#x2dc;" horiz-adv-x="453" 
d="M364.5 627.5q-28.5 -33.5 -67.5 -33.5q-26 0 -44 8t-29.5 16t-15.5 11q-19 13 -28.5 18.5t-22.5 5.5q-15 0 -27.5 -14.5t-16.5 -43.5l-53 7q0 46 28.5 79t67.5 33q27 0 45 -7.5t29 -15.5t15 -11q3 -2 14 -9.5t20 -11t17 -3.5q15 0 27.5 14.5t16.5 43.5l53 -7
q0 -46 -28.5 -79.5z" />
    <glyph glyph-name="hungarumlaut" unicode="&#x2dd;" horiz-adv-x="453" 
d="M82 583l76 143h106l-106 -143h-76zM249 583l74 143h108l-107 -143h-75z" />
    <glyph glyph-name="uni03A9" unicode="&#x3a9;" horiz-adv-x="756" 
d="M431 73q78 33 134 109.5t56 190.5q0 82 -30.5 144.5t-85.5 97.5t-126 35q-72 0 -127.5 -35t-86.5 -97.5t-31 -144.5q0 -114 56.5 -190.5t136.5 -109.5v-73h-285v76h159q-21 11 -56.5 48t-65 103.5t-29.5 155.5q0 98 42.5 176.5t117.5 123.5t169 45q93 0 168 -45
t117.5 -123.5t42.5 -176.5q0 -89 -29.5 -155t-64.5 -103t-57 -48h158v-77h-283v73z" />
    <glyph glyph-name="uni03BC" unicode="&#x3bc;" horiz-adv-x="588" 
d="M406 95q-19 -38 -56.5 -68.5t-80.5 -30.5q-28 0 -47.5 6t-30 13.5t-10.5 8.5v-214h-102v712h102v-313q0 -66 22 -99t73 -33q34 0 62.5 21.5t46.5 53t21 57.5v313h101v-522h-93z" />
    <glyph glyph-name="pi" unicode="&#x3c0;" 
d="M479 0h-84v445h-200v-445h-83v445h-85v77h537v-77h-85v-445z" />
    <glyph glyph-name="endash" unicode="&#x2013;" horiz-adv-x="551" 
d="M40 300h471v-73h-471v73z" />
    <glyph glyph-name="emdash" unicode="&#x2014;" horiz-adv-x="890" 
d="M40 300h811v-73h-811v73z" />
    <glyph glyph-name="quoteleft" unicode="&#x2018;" horiz-adv-x="293" 
d="M133 482l-91 26q0 65 39 132t90 103l60 -35q-98 -96 -98 -226z" />
    <glyph glyph-name="quoteright" unicode="&#x2019;" horiz-adv-x="293" 
d="M212 581q-39 -67 -90 -103l-60 35q97 97 97 226l92 -26q0 -65 -39 -132z" />
    <glyph glyph-name="quotesinglbase" unicode="&#x201a;" horiz-adv-x="293" 
d="M178 -23.5q-39 -67.5 -90 -104.5l-60 36q99 99 99 226l90 -26q0 -64 -39 -131.5z" />
    <glyph glyph-name="quotedblleft" unicode="&#x201c;" horiz-adv-x="490" 
d="M133 482l-91 26q0 65 39 132t90 103l60 -35q-98 -96 -98 -226zM331 482l-91 26q0 65 38.5 132t89.5 103l60 -35q-97 -97 -97 -226z" />
    <glyph glyph-name="quotedblright" unicode="&#x201d;" horiz-adv-x="490" 
d="M212 581q-39 -67 -90 -103l-60 35q97 97 97 226l92 -26q0 -65 -39 -132zM410 581q-39 -67 -90 -103l-60 35q97 97 97 226l92 -26q0 -65 -39 -132z" />
    <glyph glyph-name="quotedblbase" unicode="&#x201e;" horiz-adv-x="490" 
d="M182.5 -23.5q-38.5 -67.5 -89.5 -104.5l-60 36q97 97 97 226l91 -26q0 -64 -38.5 -131.5zM381.5 -23.5q-38.5 -67.5 -89.5 -104.5l-60 36q98 98 98 226l90 -26q0 -64 -38.5 -131.5z" />
    <glyph glyph-name="dagger" unicode="&#x2020;" 
d="M339 210l-18 -350h-54l-15 349l12 245l-208 -11v81l208 -11l-12 236h87l-12 -236l207 11v-81l-207 11z" />
    <glyph glyph-name="daggerdbl" unicode="&#x2021;" 
d="M339 -148h-87l12 236l-208 -11v80l208 -11l-9 154l9 154l-208 -11v81l208 -11l-12 236h87l-12 -236l207 11v-81l-207 11l9 -154l-9 -154l207 11v-80l-207 11z" />
    <glyph glyph-name="bullet" unicode="&#x2022;" 
d="M415.5 287q-18.5 -32 -50 -50.5t-69.5 -18.5t-70 18.5t-50.5 50.5t-18.5 70q0 37 18.5 69t50 51t69.5 19t70 -18.5t50.5 -50.5t18.5 -70t-18.5 -70z" />
    <glyph glyph-name="ellipsis" unicode="&#x2026;" horiz-adv-x="887" 
d="M195.5 11.5q-19.5 -18.5 -47.5 -18.5t-47.5 18.5t-19.5 45.5q0 28 19 47t48 19q28 0 47.5 -19t19.5 -47q0 -27 -19.5 -45.5zM490.5 11.5q-19.5 -18.5 -47.5 -18.5t-47.5 18.5t-19.5 45.5q0 28 19 47t48 19t48 -19t19 -47q0 -27 -19.5 -45.5zM786.5 11.5
q-19.5 -18.5 -47.5 -18.5t-47.5 18.5t-19.5 45.5q0 28 19 47t48 19q28 0 47.5 -19t19.5 -47q0 -27 -19.5 -45.5z" />
    <glyph glyph-name="perthousand" unicode="&#x2030;" horiz-adv-x="1250" 
d="M203 16l420 732l52 -31l-420 -732zM368 432.5q-21 -46.5 -58 -72t-86 -25.5q-75 0 -120.5 56.5t-45.5 148.5t45.5 148t119.5 56q49 0 86.5 -25.5t58.5 -72t21 -106.5q0 -61 -21 -107.5zM287.5 641q-22.5 39 -63.5 39t-64 -39t-23 -101t22.5 -101t63.5 -39t64 39.5
t23 100.5q0 62 -22.5 101zM775 44.5q-45 -56.5 -120 -56.5q-49 0 -86 25.5t-58 72t-21 107.5q0 60 20.5 106.5t58 72.5t86.5 26q74 0 119.5 -56.5t45.5 -148.5t-45 -148.5zM1171 85.5q-21 -46.5 -58 -72t-86 -25.5q-74 0 -119.5 56.5t-45.5 148.5t45.5 148.5t119.5 56.5
q49 0 86 -25.5t58 -72t21 -107.5t-21 -107.5zM718.5 294q-22.5 39 -63.5 39t-63 -39t-22 -101t22 -101t63 -39t63.5 39t22.5 101t-22.5 101zM1090.5 294q-22.5 39 -63.5 39t-64 -39.5t-23 -100.5t23 -100.5t64 -39.5t63.5 39t22.5 101t-22.5 101z" />
    <glyph glyph-name="guilsinglleft" unicode="&#x2039;" horiz-adv-x="322" 
d="M53 251v51l159 195l54 -43l-145 -177l145 -177l-54 -44z" />
    <glyph glyph-name="guilsinglright" unicode="&#x203a;" horiz-adv-x="322" 
d="M56 99l144 178l-144 176l52 44l161 -194v-51l-161 -196z" />
    <glyph glyph-name="fraction" unicode="&#x2044;" horiz-adv-x="132" 
d="M-169 16l419 732l52 -31l-420 -732z" />
    <glyph glyph-name="Euro" unicode="&#x20ac;" 
d="M548.5 68.5q-24.5 -28.5 -70.5 -53.5t-111 -25q-107 0 -167 69.5t-76 196.5h-80v61h72l-1 43l1 44h-72v61h80q19 119 84 191.5t169 72.5q65 0 108 -23t64.5 -49.5t21.5 -31.5l-53 -57q-1 1 -14 21.5t-48 40.5t-75 20q-66 0 -104.5 -49.5t-51.5 -135.5h230v-61h-238v-44
v-43h238v-60h-230q12 -95 49 -140.5t105 -45.5q41 0 71 18t41.5 31.5t28.5 37.5l53 -56q0 -5 -24.5 -33.5z" />
    <glyph glyph-name="trademark" unicode="&#x2122;" horiz-adv-x="802" 
d="M214 338h-67v325h-106v54h279v-54h-106v-325zM675 651l-93 -313h-58l-92 313l-13 -313h-63l18 379h98l83 -291l81 291h97l20 -378l-66 -1z" />
    <glyph glyph-name="Omega" unicode="&#x2126;" horiz-adv-x="756" 
d="M431 73q78 33 134 109.5t56 190.5q0 82 -30.5 144.5t-85.5 97.5t-126 35q-72 0 -127.5 -35t-86.5 -97.5t-31 -144.5q0 -114 56.5 -190.5t136.5 -109.5v-73h-285v76h159q-21 11 -56.5 48t-65 103.5t-29.5 155.5q0 98 42.5 176.5t117.5 123.5t169 45q93 0 168 -45
t117.5 -123.5t42.5 -176.5q0 -89 -29.5 -155t-64.5 -103t-57 -48h158v-77h-283v73z" />
    <glyph glyph-name="partialdiff" unicode="&#x2202;" 
d="M515.5 121.5q-31.5 -62.5 -88.5 -97t-131 -34.5t-131 33t-89 90t-32 129q0 70 30.5 127t83.5 89t119 32q56 0 99.5 -22.5t64.5 -55.5q-17 55 -53.5 106.5t-79.5 86.5q-86 73 -196 97l24 64q66 -13 138 -49.5t124 -87.5q63 -62 106 -154.5t43 -208.5q0 -82 -31.5 -144.5z
M408.5 372.5q-41.5 49.5 -112.5 49.5t-113 -49.5t-42 -127.5q0 -77 41.5 -127t112.5 -50t113 49.5t42 127.5t-41.5 127.5z" />
    <glyph glyph-name="Delta" unicode="&#x2206;" 
d="M295 735l296 -735h-591zM114 77h363l-181 467z" />
    <glyph glyph-name="product" unicode="&#x220f;" 
d="M339 -124h70v787h-201v-787h69v-77h-237v77h84v787h-84v77h536v-77h-84v-787h84v-77h-237v77z" />
    <glyph glyph-name="summation" unicode="&#x2211;" 
d="M27 -135l268 417l-262 392v66h515v-258h-78v180h-330l259 -380l-266 -405h348v200h78v-278h-532v66z" />
    <glyph glyph-name="minus" unicode="&#x2212;" 
d="M56 379h478v-77h-478v77z" />
    <glyph glyph-name="uni2215" unicode="&#x2215;" horiz-adv-x="296" 
d="M-88 16l419 732l52 -31l-419 -732z" />
    <glyph glyph-name="uni2219" unicode="&#x2219;" horiz-adv-x="296" 
d="M195.5 260.5q-19.5 -18.5 -47.5 -18.5t-47.5 18.5t-19.5 45.5q0 28 19.5 47t47.5 19t47.5 -19t19.5 -47q0 -27 -19.5 -45.5z" />
    <glyph glyph-name="radical" unicode="&#x221a;" 
d="M306 0h-95l-89 302h-71v77h129l77 -281l158 619h157v-78h-93z" />
    <glyph glyph-name="infinity" unicode="&#x221e;" 
d="M527.5 241.5q-40.5 -38.5 -100.5 -38.5q-72 0 -131 78q-25 -32 -56 -55t-76 -23q-60 0 -100.5 38.5t-40.5 98.5t40.5 98.5t100.5 38.5q74 0 131 -78q24 31 55.5 54.5t76.5 23.5q60 0 100.5 -38.5t40.5 -98.5t-40.5 -98.5zM220 386q-24 19 -53 19q-32 0 -52 -17.5
t-20 -47.5t20 -48t52 -18q50 0 93 66q-16 27 -40 46zM476 387.5q-20 17.5 -52 17.5q-50 0 -93 -65q17 -27 41 -46.5t52 -19.5q32 0 52 18t20 48t-20 47.5z" />
    <glyph glyph-name="integral" unicode="&#x222b;" 
d="M444.5 667q-15.5 5 -34.5 5q-42 0 -59 -25q-8 -12 -11 -27.5t-3 -41.5v-636q0 -74 -34 -108q-39 -41 -102 -41q-45 0 -87 16l15 73q2 -2 17.5 -7t35.5 -5q40 0 59 25q7 12 10 27.5t3 41.5v636q0 39 8.5 64.5t25.5 43.5q39 41 102 41q45 0 87 -16l-15 -73q-2 2 -17.5 7z
" />
    <glyph glyph-name="approxequal" unicode="&#x2248;" 
d="M471 392.5q-39 -17.5 -82 -17.5q-22 0 -45 7.5t-54 21.5q-36 15 -54.5 21t-38.5 6q-51 0 -81 -22.5t-31 -23.5l-34 60q28 26 67.5 43t83.5 17q22 0 42.5 -7t56.5 -22q33 -14 53 -21t40 -7q26 0 50.5 10.5t40.5 22t21 16.5l34 -61q-30 -26 -69 -43.5zM472 193
q-39 -17 -83 -17q-22 0 -42.5 7t-56.5 22q-33 14 -53 21t-40 7q-26 0 -50.5 -10.5t-40.5 -22t-21 -16.5l-34 61q30 26 69 43.5t82 17.5q22 0 45 -7.5t54 -21.5q36 -15 54.5 -21t38.5 -6q37 0 69 17.5t43 28.5l34 -61q-29 -25 -68 -42z" />
    <glyph glyph-name="notequal" unicode="&#x2260;" 
d="M238 38h-80l51 157h-153v78h178l43 134h-221v78h246l51 157h80l-51 -157h152v-78h-177l-43 -134h220v-78h-245z" />
    <glyph glyph-name="lessequal" unicode="&#x2264;" 
d="M56 403l478 200v-87l-384 -152l384 -152v-87l-478 200v78zM56 78h478v-78h-478v78z" />
    <glyph glyph-name="greaterequal" unicode="&#x2265;" 
d="M56 212l385 152l-385 152v87l478 -200v-78l-478 -200v87zM56 78h478v-78h-478v78z" />
    <glyph glyph-name="lozenge" unicode="&#x25ca;" 
d="M35 360l260 377l261 -376l-260 -376zM128 361l167 -249l168 249l-167 249z" />
    <glyph glyph-name="uniFEFF" unicode="&#xfeff;" horiz-adv-x="0" 
 />
    <glyph glyph-name="NULL.002" horiz-adv-x="322" 
d="M122 1056h78v-1327h-78v1327z" />
    </font>
</defs>
</svg>
