<?xml version="1.0" standalone="no"?>
<!DOCTYPE svg PUBLIC "-//W3C//DTD SVG 1.1//EN" "http://www.w3.org/Graphics/SVG/1.1/DTD/svg11.dtd" >
<svg xmlns="http://www.w3.org/2000/svg" xmlns:xlink="http://www.w3.org/1999/xlink" version="1.1">
<metadata>
Created by FontForge 20170731 at Wed Mar 15 17:44:13 2017
 By Aleksey,,,
Copyright 2017 Monotype Imaging Inc. All rights reserved.
</metadata>
<defs>
<font id="SlateForOnePlusLight" horiz-adv-x="565" >
  <font-face 
    font-family="Slate For OnePlus Light"
    font-weight="300"
    font-stretch="normal"
    units-per-em="1000"
    panose-1="2 0 3 6 4 0 0 2 0 4"
    ascent="800"
    descent="-200"
    x-height="514"
    cap-height="718"
    bbox="-163 -271 1119 1056"
    underline-thickness="50"
    underline-position="-150"
    unicode-range="U+000D-FEFF"
  />
<missing-glyph 
d="M550 751v-751h-536v751h536zM464 698h-365l184 -274zM250 376l-182 274v-547zM497 102v548l-183 -274zM99 54h365l-181 274z" />
    <glyph glyph-name="fi" unicode="fi" horiz-adv-x="536" 
d="M312.5 682.5q-8.5 3.5 -22.5 7t-31 3.5q-52 0 -74 -36q-9 -16 -12.5 -36t-3.5 -50v-57h143v-51h-143v-463h-64v463h-81v51h81v68q0 76 37 117q17 20 44.5 33t62.5 13q41 0 62.5 -8t25.5 -9l-14 -50q-2 1 -10.5 4.5zM449.5 656q-14.5 -15 -35.5 -15q-22 0 -36.5 14.5
t-14.5 36.5q0 21 15 36.5t36 15.5t35.5 -15t14.5 -36q0 -22 -14.5 -37zM381 514h64v-514h-64v514z" />
    <glyph glyph-name="fl" unicode="fl" horiz-adv-x="536" 
d="M312.5 682.5q-8.5 3.5 -22.5 7t-31 3.5q-52 0 -74 -36q-9 -16 -12.5 -36t-3.5 -50v-57h143v-51h-143v-463h-64v463h-81v51h81v68q0 76 37 117q17 20 44.5 33t62.5 13q41 0 62.5 -8t25.5 -9l-14 -50q-2 1 -10.5 4.5zM381 740h64v-740h-64v740z" />
    <glyph glyph-name=".notdef" 
d="M550 751v-751h-536v751h536zM464 698h-365l184 -274zM250 376l-182 274v-547zM497 102v548l-183 -274zM99 54h365l-181 274z" />
    <glyph glyph-name=".null" horiz-adv-x="0" 
 />
    <glyph glyph-name="nonmarkingreturn" unicode="&#xd;" horiz-adv-x="200" 
 />
    <glyph glyph-name="NULL" horiz-adv-x="0" 
 />
    <glyph glyph-name="NULL" horiz-adv-x="0" 
 />
    <glyph glyph-name="space" unicode=" " horiz-adv-x="200" 
 />
    <glyph glyph-name="exclam" unicode="!" horiz-adv-x="305" 
d="M130 198l-15 520h75l-15 -520h-45zM188.5 3.5q-14.5 -14.5 -35.5 -14.5q-22 0 -36.5 14.5t-14.5 36.5q0 21 14.5 35.5t36.5 14.5q21 0 35.5 -14.5t14.5 -35.5q0 -22 -14.5 -36.5z" />
    <glyph glyph-name="quotedbl" unicode="&#x22;" horiz-adv-x="452" 
d="M124 492l-17 242h74l-16 -242h-41zM288 492l-17 242h74l-17 -242h-40z" />
    <glyph glyph-name="numbersign" unicode="#" 
d="M382 260h121v-51h-131l-39 -203h-50l38 203h-136l-38 -203h-51l38 203h-117v51h128l38 198h-121v50h131l39 204h51l-39 -204h136l38 204h51l-38 -204h117v-50h-128zM195 260h136l39 198h-136z" />
    <glyph glyph-name="dollar" unicode="$" 
d="M483 102.5q-25 -41.5 -68.5 -67.5t-98.5 -29v-108h-50v107q-63 0 -122 30.5t-93 77.5l41 44q33 -44 78 -69t96 -27v284l-51 22q-67 30 -102.5 68t-35.5 107q0 49 26.5 88.5t69.5 62t93 25.5v84h50v-83q62 -4 109.5 -27.5t72.5 -59.5l-39 -40q-28 32 -61.5 51t-81.5 23
v-271l51 -22q67 -30 104 -72t37 -109q0 -48 -25 -89.5zM210 651.5q-30 -12.5 -51 -39t-21 -66.5q0 -41 18.5 -66.5t43 -39t66.5 -30.5v254q-26 0 -56 -12.5zM350 316l-34 15v-269q34 0 64 17t48 45.5t18 61.5q0 91 -96 130z" />
    <glyph glyph-name="percent" unicode="%" horiz-adv-x="848" 
d="M198 6l410 745l42 -22l-410 -746zM330.5 404.5q-42.5 -54.5 -110.5 -54.5t-110 54.5t-42 143.5t42 143.5t110 54.5t110.5 -54.5t42.5 -143.5t-42.5 -143.5zM291 656q-25 42 -71 42q-45 0 -70.5 -42t-25.5 -108t25.5 -108t70.5 -42q46 0 71 42t25 108t-25 108zM737.5 43.5
q-42.5 -54.5 -110.5 -54.5t-110 54.5t-42 142.5q0 89 42 143.5t110 54.5t110.5 -54.5t42.5 -143.5q0 -88 -42.5 -142.5zM697.5 294.5q-25.5 42.5 -70.5 42.5t-70.5 -42.5t-25.5 -108.5q0 -65 25.5 -107.5t70.5 -42.5t70.5 42.5t25.5 107.5q0 66 -25.5 108.5z" />
    <glyph glyph-name="ampersand" unicode="&#x26;" horiz-adv-x="689" 
d="M508 102q-97 -112 -237 -112q-68 0 -116.5 25.5t-73.5 68t-25 91.5q0 67 38.5 115t108.5 89l34 19l-19 20q-77 79 -77 158q0 42 21.5 77t60 55.5t88.5 20.5q49 0 87.5 -20.5t60 -55.5t21.5 -77q0 -57 -33.5 -96t-90.5 -73l-28 -17l177 -199q22 30 44.5 85.5t26.5 96.5
l57 -14q-4 -46 -34 -113.5t-55 -97.5l134 -148h-79zM390 650q-31 30 -79 30q-46 0 -77 -30.5t-31 -73.5q0 -36 15 -62t44 -56l32 -34l28 17q51 30 75 60t24 70q0 49 -31 79zM237 345q-56 -33 -86 -68.5t-30 -90.5q0 -61 43.5 -100t118.5 -39q46 0 83 17.5t58.5 36.5t44.5 44
l-198 220z" />
    <glyph glyph-name="quotesingle" unicode="'" horiz-adv-x="283" 
d="M122 492l-18 242h75l-17 -242h-40z" />
    <glyph glyph-name="parenleft" unicode="(" horiz-adv-x="339" 
d="M118 33.5q-67 117.5 -67 282.5q0 166 67.5 284t152.5 185l28 -28q-180 -180 -180 -441q0 -260 180 -440l-28 -29q-86 69 -153 186.5z" />
    <glyph glyph-name="parenright" unicode=")" horiz-adv-x="339" 
d="M221 33.5q-67 -117.5 -153 -186.5l-28 29q180 180 180 440q0 261 -180 441l28 28q85 -67 152.5 -185t67.5 -284q0 -165 -67 -282.5z" />
    <glyph glyph-name="asterisk" unicode="*" horiz-adv-x="475" 
d="M359 431l-39 -30l-83 119l-81 -119l-41 30l94 114l-141 37l16 49l134 -49l-7 141h52l-6 -141l134 49l16 -49l-141 -37z" />
    <glyph glyph-name="plus" unicode="+" 
d="M307 107h-50v201h-201v51h201v201h50v-201h201v-51h-201v-201z" />
    <glyph glyph-name="comma" unicode="," horiz-adv-x="283" 
d="M159 -30.5q-36 -61.5 -82 -93.5l-35 28q43 43 64 92t21 111l68 -17q0 -59 -36 -120.5z" />
    <glyph glyph-name="hyphen" unicode="-" horiz-adv-x="339" 
d="M51 288h237v-56h-237v56z" />
    <glyph glyph-name="period" unicode="." horiz-adv-x="283" 
d="M177 9q-15 -15 -36 -15t-36 15t-15 36t15 36t36 15t36 -15t15 -36t-15 -36z" />
    <glyph glyph-name="slash" unicode="/" horiz-adv-x="424" 
d="M-17 -85l412 870l46 -22l-413 -870z" />
    <glyph glyph-name="zero" unicode="0" 
d="M496.5 173.5q-26.5 -83.5 -81 -133.5t-132.5 -50q-79 0 -133 50t-81 133.5t-27 185.5t27 186t81 134t133 50q78 0 132.5 -50t81 -134t26.5 -186t-26.5 -185.5zM411 586q-44 91 -128 91q-85 0 -129 -90.5t-44 -226.5q0 -135 44 -225.5t129 -90.5q84 0 128 90.5t44 225.5
t-44 226z" />
    <glyph glyph-name="one" unicode="1" 
d="M280 616q-11 -9 -29.5 -17t-30.5 -11q-27 -11 -58 -15l-9 48q19 3 44 11t40 18q44 25 53 71h55v-721h-65v616z" />
    <glyph glyph-name="two" unicode="2" 
d="M92.5 126.5q34.5 57.5 73.5 95.5t90 79l21 17q47 39 74 64.5t50 63.5t23 79q0 68 -42 109t-111 41q-98 0 -165 -92l-44 33q33 47 86 80t129 33q57 0 105.5 -24t77.5 -69t29 -105q0 -57 -27.5 -104t-58.5 -75.5t-87 -74.5l-20 -16q-67 -54 -111.5 -102t-57.5 -105h387v-54
h-463q7 69 41.5 126.5z" />
    <glyph glyph-name="three" unicode="3" 
d="M456.5 89q-29.5 -47 -83 -73t-124.5 -26q-64 0 -109.5 25t-70 53.5t-24.5 33.5l45 34q17 -28 59.5 -60t104.5 -32q75 0 121 40t46 114q0 72 -50 112.5t-122 40.5h-57v55h57q65 0 108.5 37.5t43.5 98.5q0 62 -40.5 98.5t-101.5 36.5q-91 0 -153 -80l-39 35
q26 36 74.5 66.5t118.5 30.5q54 0 100.5 -22t74.5 -63t28 -96q0 -52 -22.5 -87.5t-52.5 -54t-55 -22.5q34 -6 69 -27t59.5 -61.5t24.5 -97.5q0 -62 -29.5 -109z" />
    <glyph glyph-name="four" unicode="4" 
d="M435 0h-64v175h-348v51l327 492h85v-491h113v-52h-113v-175zM89 227h282v428z" />
    <glyph glyph-name="five" unicode="5" 
d="M470.5 100.5q-32.5 -53.5 -89 -82t-127.5 -28.5q-63 0 -108 22t-70.5 47.5t-25.5 29.5l42 40q6 -10 25.5 -30t56 -37.5t83.5 -17.5q81 0 131 47t50 132t-49.5 131t-130.5 46q-40 0 -72 -12.5t-50 -31.5l-47 23l64 339h344v-54h-296l-47 -240q49 28 117 28q63 0 116 -26.5
t84.5 -77.5t31.5 -122q0 -72 -32.5 -125.5z" />
    <glyph glyph-name="six" unicode="6" 
d="M498 106.5q-27 -53.5 -78.5 -85t-120.5 -31.5q-81 0 -127 36t-70 81q-46 86 -46 249q0 93 25 166t60 116q75 91 192 91q60 0 104 -19.5t66 -42.5l-35 -41q-18 18 -51.5 33.5t-78.5 15.5q-49 0 -84 -16.5t-62 -48.5q-72 -83 -72 -260q23 26 43.5 44.5t59.5 35t93 16.5
q59 0 106.5 -28t75 -78t27.5 -114q0 -66 -27 -119.5zM420.5 344.5q-40.5 47.5 -121.5 47.5q-50 0 -89 -25.5t-62.5 -55.5t-23.5 -34q0 -63 20.5 -117t60.5 -86t94 -32q80 0 121 50.5t41 127.5t-40.5 124.5z" />
    <glyph glyph-name="seven" unicode="7" 
d="M136 0l325 664h-399v54h463v-51l-322 -667h-67z" />
    <glyph glyph-name="eight" unicode="8" 
d="M489.5 83q-30.5 -46 -84.5 -69.5t-122 -23.5q-105 0 -171.5 53.5t-66.5 148.5q0 84 47.5 126t107.5 66q-44 16 -85.5 54.5t-41.5 111.5q0 55 28 95.5t76 62t106 21.5q57 0 104.5 -21.5t76 -61.5t28.5 -95q0 -73 -42 -112t-86 -55q60 -24 108 -66t48 -126
q0 -63 -30.5 -109zM387.5 644.5q-41.5 33.5 -104.5 33.5t-105 -33t-42 -94q0 -58 51 -96.5t118 -47.5q56 14 90 49t34 94q0 61 -41.5 94.5zM396.5 305q-57.5 42 -136.5 57q-149 -46 -149 -167q0 -72 48.5 -112.5t123.5 -40.5t123 40.5t48 111.5q0 69 -57.5 111z" />
    <glyph glyph-name="nine" unicode="9" 
d="M126 9.5q-44 19.5 -70 46.5l38 45q55 -57 132 -57q92 0 147 63q72 85 72 261q-21 -25 -42.5 -44.5t-60.5 -36.5t-93 -17q-59 0 -106.5 28.5t-75 79.5t-27.5 115q0 66 27 119.5t78.5 85t120.5 31.5q81 0 127 -36.5t70 -82.5q19 -35 32 -97t13 -151q0 -90 -25 -164.5
t-59 -117.5q-75 -90 -192 -90q-62 0 -106 19.5zM369.5 359.5q44.5 35.5 71.5 81.5q0 64 -20.5 118t-60.5 86t-94 32q-81 0 -121.5 -49.5t-40.5 -126.5t41 -127t121 -50q59 0 103.5 35.5z" />
    <glyph glyph-name="colon" unicode=":" horiz-adv-x="283" 
d="M183 427q-15 -15 -36 -15t-36 15t-15 36q0 22 15 36.5t36 14.5t36 -14.5t15 -36.5q0 -21 -15 -36zM177 9q-15 -15 -36 -15t-36 15t-15 36t15 36t36 15t36 -15t15 -36t-15 -36z" />
    <glyph glyph-name="semicolon" unicode=";" horiz-adv-x="283" 
d="M183 427q-15 -15 -36 -15t-36 15t-15 36q0 22 15 36.5t36 14.5t36 -14.5t15 -36.5q0 -21 -15 -36zM159 -30.5q-36 -61.5 -82 -93.5l-35 28q43 43 64 92t21 111l68 -17q0 -59 -36 -120.5z" />
    <glyph glyph-name="less" unicode="&#x3c;" 
d="M56 359l452 203v-59l-389 -169l389 -169v-59l-452 202v51z" />
    <glyph glyph-name="equal" unicode="=" 
d="M56 455h452v-50l-452 -2v52zM56 264h452v-52h-452v52z" />
    <glyph glyph-name="greater" unicode="&#x3e;" 
d="M56 165l390 168l-390 170v59l452 -203v-51l-452 -202v59z" />
    <glyph glyph-name="question" unicode="?" horiz-adv-x="475" 
d="M398 467q-26 -40 -65 -77q-6 -6 -30.5 -29t-40.5 -51t-17 -56l-2 -56h-51v28q0 39 2.5 59.5t13.5 43.5q11 22 27 40t42 43q5 5 28.5 27.5t40 53t16.5 61.5q0 51 -36 86t-94 35q-83 0 -142 -76l-39 34q65 96 189 96q52 0 94 -22t66 -59.5t24 -82.5q0 -58 -26 -98zM254 3.5
q-15 -14.5 -36 -14.5t-36.5 15t-15.5 36t15 35.5t36 14.5t36.5 -14.5t15.5 -35.5q0 -22 -15 -36.5z" />
    <glyph glyph-name="at" unicode="@" horiz-adv-x="915" 
d="M813 174.5q-34 -66.5 -84 -100.5t-96 -34q-57 0 -81 25t-24 57q0 -3 -18.5 -24.5t-49 -39.5t-70.5 -18q-68 0 -104.5 43t-36.5 120q0 71 26 132.5t64 99.5q33 33 68 47.5t79 14.5q39 0 68.5 -16t38.5 -35l17 40h51l-73 -294q-7 -24 -7 -45q0 -57 57 -57q31 0 68.5 29.5
t64 84.5t26.5 129q0 80 -39.5 145.5t-111.5 104t-166 38.5q-96 0 -177.5 -47t-130 -131t-48.5 -189t43 -180.5t118.5 -115.5t172.5 -40q85 0 145.5 16t93 34t32.5 21l22 -40q0 -4 -35.5 -25t-101.5 -39t-162 -18q-109 0 -196 45.5t-137.5 134t-50.5 210.5q0 121 58.5 215.5
t153 147t200.5 52.5q103 0 187 -43.5t132 -121t48 -174.5q0 -92 -34 -158.5zM547 424.5q-24 21.5 -61 21.5q-36 0 -63.5 -14.5t-49.5 -41.5q-25 -30 -43.5 -79.5t-18.5 -107.5t25.5 -84t64.5 -26q23 0 51 15.5t50 43t31 63.5l40 158q-2 30 -26 51.5z" />
    <glyph glyph-name="A" unicode="A" horiz-adv-x="622" 
d="M475 201h-334l-73 -201h-68l273 718h74l274 -718h-73zM162 258h292l-146 397z" />
    <glyph glyph-name="B" unicode="B" horiz-adv-x="627" 
d="M555 111.5q-21 -40.5 -58 -66.5q-62 -45 -186 -45h-209v718h192q52 0 94 -6.5t69 -25.5q72 -52 72 -138q0 -54 -33.5 -98t-94.5 -60v-2q81 -11 128 -60t47 -125q0 -51 -21 -91.5zM444.5 603.5q-15.5 27.5 -39.5 40.5q-20 11 -48.5 14t-70.5 3h-117v-254h116q85 0 118 22
q57 37 57 108q0 39 -15.5 66.5zM488.5 276q-17.5 30 -42.5 46q-42 28 -124 28h-153v-294h153q81 0 124 29q25 16 42.5 46t17.5 72q0 43 -17.5 73z" />
    <glyph glyph-name="C" unicode="C" horiz-adv-x="678" 
d="M566 584q-23 30 -69 56.5t-114 26.5q-75 0 -133 -39t-90.5 -109t-32.5 -160t31 -159.5t88 -108.5t133 -39q68 0 116.5 27.5t75 59t26.5 36.5l47 -39q0 -6 -31 -43.5t-90 -70t-144 -32.5q-96 0 -169 45t-113.5 128.5t-40.5 195.5q0 110 43.5 194t118.5 129.5t166 45.5
q114 0 174 -49.5t82 -90.5l-51 -40q0 6 -23 36z" />
    <glyph glyph-name="D" unicode="D" horiz-adv-x="723" 
d="M639 205q-28 -68 -74 -115q-45 -44 -102.5 -67t-134.5 -23h-226v718h226q77 0 134.5 -23t102.5 -68q46 -46 74 -114t28 -154t-28 -154zM575 488.5q-22 60.5 -61 99.5q-74 73 -186 73h-159v-605h159q112 0 186 74q39 39 61 99.5t22 128.5q0 70 -22 130.5z" />
    <glyph glyph-name="E" unicode="E" horiz-adv-x="576" 
d="M102 718h412v-56h-345v-250h323v-56h-323v-298h356v-58h-423v718z" />
    <glyph glyph-name="F" unicode="F" horiz-adv-x="525" 
d="M169 395h294v-56h-294v-339h-67v718h390v-56h-323v-267z" />
    <glyph glyph-name="G" unicode="G" horiz-adv-x="740" 
d="M603 90q0 -4 -29 -30t-80 -48t-121 -22q-93 0 -165 45.5t-112 129t-40 194.5q0 110 43.5 194t118.5 129.5t166 45.5q80 0 136.5 -30t87 -64.5t30.5 -40.5l-50 -39q0 5 -23 34t-68.5 54t-113.5 25q-75 0 -133 -39t-90.5 -109t-32.5 -160t31 -159.5t88 -108.5t133 -39
q68 0 116 23.5t73.5 51t25.5 31.5v141h-199v57h266v-356h-49z" />
    <glyph glyph-name="H" unicode="H" horiz-adv-x="751" 
d="M582 356h-413v-356h-67v718h67v-306h413v306h68v-718h-68v356z" />
    <glyph glyph-name="I" unicode="I" horiz-adv-x="271" 
d="M102 718h67v-718h-67v718z" />
    <glyph glyph-name="J" unicode="J" horiz-adv-x="277" 
d="M175 718v-729q0 -86 -39 -136q-18 -22 -47 -36.5t-61 -14.5q-20 0 -36 3t-25.5 6.5t-11.5 4.5l11 54q0 -1 19 -6t43 -5q34 0 56.5 27t22.5 86v746h68z" />
    <glyph glyph-name="K" unicode="K" horiz-adv-x="605" 
d="M262 376l-93 -99v-277h-67v718h67v-362l330 362h83l-276 -295l287 -423h-81z" />
    <glyph glyph-name="L" unicode="L" horiz-adv-x="480" 
d="M102 718h67v-660h300v-58h-367v718z" />
    <glyph glyph-name="M" unicode="M" horiz-adv-x="887" 
d="M712 644l-243 -644h-57l-243 644l-19 -644h-65l28 718h96l234 -628l235 628h96l28 -718h-70z" />
    <glyph glyph-name="N" unicode="N" horiz-adv-x="746" 
d="M164 633v-633h-62v718h81l399 -605v605h62v-718h-62z" />
    <glyph glyph-name="O" unicode="O" horiz-adv-x="785" 
d="M687.5 169q-41.5 -84 -118 -131.5t-176.5 -47.5t-176.5 47.5t-118.5 131.5t-42 189q0 106 42 190t118 132t176 48t176.5 -47.5t118.5 -131.5t42 -190t-41.5 -190zM626 519q-33 70 -93.5 109.5t-139.5 39.5t-139.5 -39.5t-93.5 -109.5t-33 -160q0 -89 33 -159t93 -109.5
t139 -39.5q80 0 140.5 39.5t93.5 109t33 159.5t-33 160z" />
    <glyph glyph-name="P" unicode="P" horiz-adv-x="588" 
d="M469 337q-64 -54 -170 -54h-130v-283h-67v718h197q104 0 170 -54q68 -56 68 -163q0 -110 -68 -164zM412 627q-24 18 -53.5 26t-75.5 8h-114v-322h114q46 0 75.5 8t53.5 26q57 41 57 128q0 85 -57 126z" />
    <glyph glyph-name="Q" unicode="Q" horiz-adv-x="785" 
d="M697 190.5q-32 -70.5 -76.5 -112t-90.5 -61.5q5 -35 30.5 -69.5t66.5 -54.5l-44 -47q-43 17 -75.5 59.5t-41.5 92.5q-6 -1 -28 -4.5t-45 -3.5q-100 0 -176.5 47.5t-118.5 131.5t-42 189q0 106 42 190t118 132t176 48t176.5 -47.5t118.5 -131.5t42 -190q0 -98 -32 -168.5z
M626 519q-33 70 -93.5 109.5t-139.5 39.5t-139.5 -39.5t-93.5 -109.5t-33 -160q0 -89 33 -159t93 -109.5t139 -39.5q80 0 140.5 39.5t93.5 109t33 159.5t-33 160z" />
    <glyph glyph-name="R" unicode="R" horiz-adv-x="616" 
d="M294 311h-125v-311h-67v718h209q67 0 119 -26t81 -72.5t29 -105.5q0 -56 -25.5 -98t-64.5 -67t-80 -33l212 -316h-81zM455 583q-17 32 -43 50q-24 16 -52 22t-72 6h-119v-294h119q44 0 72 6t52 22q26 18 43 50t17 69t-17 69z" />
    <glyph glyph-name="S" unicode="S" horiz-adv-x="549" 
d="M474 89q-29 -46 -84 -72.5t-128 -26.5q-67 0 -116.5 24t-76.5 51.5t-36 42.5l46 42q22 -31 68 -67t117 -36q82 0 127.5 39t45.5 100q0 37 -17 61.5t-37.5 37.5t-49.5 26q-3 1 -92 38l-60 24q-40 17 -79 56.5t-39 112.5q0 57 29 99t79 65t113 23q56 0 100 -19t71 -42.5
t39 -41.5l-42 -44q-19 29 -64 59.5t-104 30.5q-70 0 -113 -33t-43 -91q0 -36 17 -60.5t37.5 -37.5t49.5 -26q3 -1 92 -38l60 -24q119 -57 119 -170q0 -57 -29 -103z" />
    <glyph glyph-name="T" unicode="T" horiz-adv-x="542" 
d="M305 0h-68v661h-226v57h520v-57h-226v-661z" />
    <glyph glyph-name="U" unicode="U" horiz-adv-x="695" 
d="M605 718v-435q0 -73 -10 -122t-41 -88q-35 -42 -85 -62.5t-121 -20.5q-72 0 -122.5 20.5t-84.5 62.5q-31 39 -41 88t-10 122v435h68v-441q0 -65 6.5 -97t27.5 -61q47 -67 155 -67q109 0 156 67q21 29 27.5 61t6.5 97v441h68z" />
    <glyph glyph-name="V" unicode="V" horiz-adv-x="610" 
d="M271 0l-260 718h74l222 -645l224 645h68l-260 -718h-68z" />
    <glyph glyph-name="W" unicode="W" horiz-adv-x="949" 
d="M655 0l-180 638l-181 -638h-79l-187 718h70l159 -639l180 639h79l181 -639l158 639h66l-187 -718h-79z" />
    <glyph glyph-name="X" unicode="X" horiz-adv-x="588" 
d="M294 322l-198 -322h-79l237 367l-220 351h79l181 -306l181 306h79l-221 -351l238 -367h-79z" />
    <glyph glyph-name="Y" unicode="Y" horiz-adv-x="582" 
d="M325 0h-67v299l-247 419h76l207 -362l205 362h72l-246 -419v-299z" />
    <glyph glyph-name="Z" unicode="Z" horiz-adv-x="593" 
d="M40 52l423 610h-412v56h491v-51l-423 -609h435v-58h-514v52z" />
    <glyph glyph-name="bracketleft" unicode="[" horiz-adv-x="339" 
d="M96 768h198v-45h-138v-830h138v-46h-198v921z" />
    <glyph glyph-name="backslash" unicode="\" horiz-adv-x="424" 
d="M-17 763l45 22l413 -870l-46 -22z" />
    <glyph glyph-name="bracketright" unicode="]" horiz-adv-x="339" 
d="M45 -107h138v830h-138v45h198v-921h-198v46z" />
    <glyph glyph-name="asciicircum" unicode="^" 
d="M283 672l-170 -316h-57l198 362h57l197 -362h-56z" />
    <glyph glyph-name="underscore" unicode="_" 
d="M0 -96h565v-51h-565v51z" />
    <glyph glyph-name="grave" unicode="`" horiz-adv-x="424" 
d="M136 718h79l73 -142h-51z" />
    <glyph glyph-name="a" unicode="a" horiz-adv-x="509" 
d="M377.5 26.5q-4.5 20.5 -4.5 41.5q-26 -34 -68.5 -56t-101.5 -22q-67 0 -112.5 40t-45.5 115q0 68 41 102t89 48q76 21 196 21v40q0 60 -36 87.5t-92 27.5q-46 0 -86 -13.5t-67 -32.5l-26 50q35 21 80 35t96 14q93 0 144 -45q24 -21 37.5 -53.5t13.5 -86.5v-237
q0 -35 6 -58t17 -44h-74q-2 6 -6.5 26.5zM304.5 263q-43.5 -4 -67.5 -8q-45 -7 -84.5 -30t-39.5 -78q0 -57 32.5 -81.5t74.5 -24.5q40 0 84 24t67 71v131q-23 0 -66.5 -4z" />
    <glyph glyph-name="b" unicode="b" horiz-adv-x="599" 
d="M524.5 121q-29.5 -61 -82.5 -96t-120 -35q-69 0 -109.5 31.5t-57.5 63.5l-11 -85h-54v740h65v-316q6 12 26.5 35.5t59.5 44t92 20.5q67 0 117 -34.5t77 -95t27 -136.5t-29.5 -137zM466 364.5q-20 48.5 -57.5 77.5t-86.5 29q-50 0 -88.5 -28.5t-59.5 -77.5t-21 -107
t20 -107t57 -78t86 -29q50 0 88.5 29t60 78t21.5 107t-20 106.5z" />
    <glyph glyph-name="c" unicode="c" horiz-adv-x="494" 
d="M399 24q-45 -35 -128 -35q-65 0 -116.5 34t-80.5 95t-29 139t31 138.5t85.5 94.5t121.5 34q60 0 101 -22.5t62 -48t21 -30.5l-46 -34q0 3 -16.5 23.5t-46.5 38.5t-73 18q-49 0 -88 -24.5t-62 -72.5t-23 -114q0 -67 22.5 -115t60.5 -72.5t84 -24.5q58 0 92.5 28t53.5 55
l43 -37q-24 -33 -69 -68z" />
    <glyph glyph-name="d" unicode="d" horiz-adv-x="599" 
d="M444 85q0 -4 -21 -28.5t-61 -45.5t-98 -21q-66 0 -115.5 35t-76.5 95.5t-27 137.5q0 75 29.5 136t82.5 95.5t120 34.5q75 0 112 -33.5t55 -66.5v316h64v-740h-53zM426 364.5q-20 48.5 -57 77.5t-86 29q-50 0 -88.5 -28.5t-60 -77.5t-21.5 -107t20 -107t57.5 -78t86.5 -29
q50 0 88.5 29t59.5 77.5t21 107.5q0 58 -20 106.5z" />
    <glyph glyph-name="e" unicode="e" horiz-adv-x="529" 
d="M158 102q45 -56 125 -56q48 0 84 13.5t57.5 29.5t21.5 18l32 -44q0 -3 -26 -22t-70.5 -35t-104.5 -16q-68 0 -120.5 32t-82 92.5t-29.5 142.5q0 81 30.5 141.5t83.5 93t118 32.5q64 0 112 -30.5t74 -85.5t26 -125v-34h-376q0 -91 45 -147zM387.5 421q-36.5 50 -112.5 50
q-52 0 -87.5 -26t-53.5 -65.5t-21 -80.5h311q0 72 -36.5 122z" />
    <glyph glyph-name="f" unicode="f" horiz-adv-x="290" 
d="M312.5 682.5q-8.5 3.5 -22.5 7t-31 3.5q-52 0 -74 -36q-9 -16 -12.5 -36t-3.5 -50v-57h143v-51h-143v-463h-64v463h-81v51h81v68q0 76 37 117q17 20 44.5 33t62.5 13q41 0 62.5 -8t25.5 -9l-14 -50q-2 1 -10.5 4.5z" />
    <glyph glyph-name="g" unicode="g" horiz-adv-x="593" 
d="M492 -35q-11 -45 -34 -78q-26 -35 -75.5 -60t-122.5 -25q-48 0 -88.5 11.5t-66 25.5t-34.5 23l32 49q7 -7 31 -20t57.5 -22.5t68.5 -9.5q53 0 88.5 16t53.5 39q36 44 36 148v45q-15 -29 -55.5 -65t-122.5 -36q-64 0 -113 33t-75.5 92t-26.5 135q0 74 30.5 133t82 92
t113.5 33q56 0 92.5 -20t53 -43t21.5 -37l12 90h53v-424q0 -80 -11 -125zM421 369.5q-20 46.5 -56.5 74t-84.5 27.5t-86.5 -27.5t-59.5 -74.5t-21 -103q0 -57 20 -104t56 -74.5t84 -27.5q49 0 87 27.5t59.5 75t21.5 103.5q0 57 -20 103.5z" />
    <glyph glyph-name="h" unicode="h" horiz-adv-x="582" 
d="M433 315q0 74 -26 112.5t-91 38.5q-42 0 -76.5 -25.5t-56.5 -62t-28 -67.5v-311h-65v740h65v-328q25 48 70.5 80t107.5 32q74 0 119 -45t45 -141v-338h-64v315z" />
    <glyph glyph-name="i" unicode="i" horiz-adv-x="245" 
d="M159 656q-15 -15 -36 -15t-36.5 15t-15.5 36t15 36.5t36 15.5t36.5 -15t15.5 -36q0 -22 -15 -37zM90 514h65v-514h-65v514z" />
    <glyph glyph-name="j" unicode="j" horiz-adv-x="251" 
d="M165 656q-15 -15 -36 -15t-36.5 15t-15.5 36t15.5 36.5t35.5 15.5q21 0 36.5 -15t15.5 -36q0 -22 -15 -37zM136 -141q-36 -57 -107 -57q-21 0 -42 5.5t-21 6.5l6 50q26 -8 53 -8q34 0 51 20q12 13 16 35.5t4 71.5v531h64v-531q0 -86 -24 -124z" />
    <glyph glyph-name="k" unicode="k" horiz-adv-x="514" 
d="M228 266l-73 -71v-195h-65v740h65v-474l246 248h85l-215 -207l232 -307h-79z" />
    <glyph glyph-name="l" unicode="l" horiz-adv-x="245" 
d="M90 740h65v-740h-65v740z" />
    <glyph glyph-name="m" unicode="m" horiz-adv-x="879" 
d="M730 333q0 64 -21 98.5t-81 34.5q-40 0 -74 -28.5t-55 -66t-24 -60.5v-311h-65v333q0 64 -21 98.5t-81 34.5q-40 0 -74 -28.5t-55 -66t-24 -60.5v-311h-65v514h59l6 -102q22 47 70 79.5t99 32.5q56 0 94.5 -29t50.5 -89q26 51 74.5 84.5t100.5 33.5q63 0 106.5 -40.5
t43.5 -133.5v-350h-64v333z" />
    <glyph glyph-name="n" unicode="n" horiz-adv-x="582" 
d="M433 315q0 74 -26 112.5t-91 38.5q-42 0 -76.5 -25.5t-56.5 -62t-28 -67.5v-311h-65v514h59l6 -102q25 48 70.5 80t107.5 32q74 0 119 -45t45 -141v-338h-64v315z" />
    <glyph glyph-name="o" unicode="o" 
d="M490 117q-30 -61 -83.5 -94t-123.5 -33t-124 33t-84 93.5t-30 140.5t30 140.5t84 93.5t124 33t123.5 -33t83.5 -93.5t30 -139.5q0 -80 -30 -141zM407 412q-45 58 -124 58q-80 0 -125 -58t-45 -154q0 -97 45 -155.5t125 -58.5q79 0 124 58.5t45 155.5q0 96 -45 154z" />
    <glyph glyph-name="p" unicode="p" horiz-adv-x="599" 
d="M524.5 121q-29.5 -61 -82.5 -96t-120 -35q-69 0 -109.5 31.5t-57.5 63.5v-277h-65v706h59l6 -90q6 12 26.5 35.5t59.5 44t92 20.5q67 0 117 -34.5t77 -95t27 -136.5t-29.5 -137zM466 364.5q-20 48.5 -57.5 77.5t-86.5 29q-50 0 -88.5 -28.5t-59.5 -77.5t-21 -107t20 -107
t57 -78t86 -29q50 0 88.5 29t60 78t21.5 107t-20 106.5z" />
    <glyph glyph-name="q" unicode="q" horiz-adv-x="599" 
d="M444 85q0 -4 -21 -28.5t-61 -45.5t-98 -21q-66 0 -115.5 35t-76.5 95.5t-27 137.5q0 75 29.5 136t82.5 95.5t120 34.5q75 0 112 -33.5t55 -66.5l11 90h53v-706h-64v277zM426 364.5q-20 48.5 -57 77.5t-86 29q-50 0 -88.5 -28.5t-60 -77.5t-21.5 -107t20 -107t57.5 -78
t86.5 -29q50 0 88.5 29t59.5 77.5t21 107.5q0 58 -20 106.5z" />
    <glyph glyph-name="r" unicode="r" horiz-adv-x="367" 
d="M334 458q-9 3 -23 3q-45 0 -79 -26q-26 -18 -48 -52t-29 -78v-305h-65v514h59l6 -107q23 50 66 84t95 34q14 0 25.5 -2t14.5 -3l-11 -66q-2 1 -11 4z" />
    <glyph glyph-name="s" unicode="s" horiz-adv-x="441" 
d="M379 63q-22 -34 -63.5 -53.5t-96.5 -19.5q-72 0 -121 32t-70 60l42 40q24 -29 63 -53.5t87 -24.5q56 0 87.5 23.5t31.5 64.5q0 36 -23 54.5t-58 31.5l-42 14q-15 6 -31.5 11.5t-31.5 11.5q-39 18 -69.5 46t-30.5 82q0 63 49.5 102.5t125.5 39.5q46 0 82.5 -14t58 -30
t26.5 -23l-33 -46q-21 23 -57.5 41.5t-78.5 18.5q-50 0 -81.5 -21t-31.5 -61q0 -26 13 -42t28 -24t44 -19q17 -7 38 -13q37 -12 58 -21q39 -15 73 -45.5t34 -85.5q0 -43 -22 -77z" />
    <glyph glyph-name="t" unicode="t" horiz-adv-x="339" 
d="M171 164q0 -45 5.5 -67t18.5 -35q13 -11 28 -15t35 -4q14 0 29 3.5t20 4.5l9 -51q-13 -5 -35.5 -8t-43.5 -3q-63 0 -98 39q-19 20 -26 51.5t-7 84.5v299h-78v51h78l9 147h56v-147h151v-51h-151v-299z" />
    <glyph glyph-name="u" unicode="u" horiz-adv-x="576" 
d="M421 102q-24 -47 -68.5 -79.5t-103.5 -32.5q-72 0 -118 43.5t-46 141.5v339h64v-322q0 -70 27 -106.5t86 -36.5q39 0 73.5 23.5t57 59t28.5 68.5v314h65v-514h-59z" />
    <glyph glyph-name="v" unicode="v" horiz-adv-x="486" 
d="M209 0l-198 514h68l164 -452l164 452h68l-198 -514h-68z" />
    <glyph glyph-name="w" unicode="w" horiz-adv-x="746" 
d="M506 0l-133 441l-132 -441h-68l-150 514h64l122 -435l127 435h74l127 -435l121 435h65l-149 -514h-68z" />
    <glyph glyph-name="x" unicode="x" horiz-adv-x="469" 
d="M232 226l-155 -226h-71l192 266l-181 248h77l143 -209l144 209h71l-181 -248l192 -266h-75z" />
    <glyph glyph-name="y" unicode="y" horiz-adv-x="492" 
d="M130 -198q-23 0 -40.5 4.5t-27 9.5t-11.5 7l17 50q0 -1 19.5 -7.5t36.5 -6.5q22 0 34.5 12t27.5 50l32 79l-201 514h68l164 -452l163 452h68l-243 -621q-34 -91 -107 -91z" />
    <glyph glyph-name="z" unicode="z" horiz-adv-x="458" 
d="M28 45l314 418h-302v51h378v-42l-314 -418h325v-54h-401v45z" />
    <glyph glyph-name="braceleft" unicode="{" horiz-adv-x="339" 
d="M226 -145q-42 7 -64 24t-30.5 44.5t-10.5 73.5l-6 158q-2 47 -8 74t-23 41.5t-50 14.5h-17v48h17q33 0 50 14.5t23 41.5t8 74l6 158q2 46 10.5 73.5t30.5 44.5t64 24l67 11l6 -45l-62 -11q-35 -6 -45 -26.5t-11 -64.5l-6 -175q-3 -134 -102 -141v-4q99 -7 102 -140
l6 -175q1 -44 11 -64.5t45 -26.5l62 -12l-6 -45z" />
    <glyph glyph-name="bar" unicode="|" horiz-adv-x="283" 
d="M115 768h52v-921h-52v921z" />
    <glyph glyph-name="braceright" unicode="}" horiz-adv-x="339" 
d="M255 270.5q-17 -14.5 -23 -41.5t-8 -74l-6 -158q-2 -46 -10.5 -73.5t-30.5 -44.5t-64 -24l-67 -11l-6 45l62 12q35 6 45 26t11 64l6 175q3 134 102 141v4q-99 7 -102 140l-6 175q-1 44 -11 65t-45 27l-62 11l6 45l67 -11q42 -7 64 -24t30.5 -44.5t10.5 -73.5l6 -158
q2 -47 8 -74t23 -41.5t50 -14.5h17v-48h-17q-33 0 -50 -14.5z" />
    <glyph glyph-name="asciitilde" unicode="~" 
d="M475.5 287q-39.5 -35 -85.5 -35q-38 0 -64.5 15t-59.5 47q-31 29 -48.5 40t-44.5 11q-31 0 -56.5 -27t-37.5 -80l-45 17q15 71 55 106t86 35q38 0 63.5 -15t60.5 -47q31 -29 48.5 -40t44.5 -11q31 0 56.5 27t37.5 80l45 -17q-16 -71 -55.5 -106z" />
    <glyph glyph-name="uni00A0" unicode="&#xa0;" horiz-adv-x="200" 
 />
    <glyph glyph-name="exclamdown" unicode="&#xa1;" horiz-adv-x="305" 
d="M188.5 438.5q-14.5 -14.5 -35.5 -14.5q-22 0 -36.5 14.5t-14.5 36.5q0 21 14.5 35.5t36.5 14.5q21 0 35.5 -14.5t14.5 -35.5q0 -22 -14.5 -36.5zM130 316h45l15 -519h-75z" />
    <glyph glyph-name="cent" unicode="&#xa2;" 
d="M482.5 162q-20.5 -21 -58.5 -41t-91 -24v-109h-50v109q-97 9 -156 77.5t-59 183.5q0 76 28.5 133t77.5 89.5t109 38.5v110h50v-110q53 -4 90.5 -23.5t58.5 -40.5t21 -24l-40 -39q0 2 -17 20.5t-46 35t-67 18.5v-413q40 2 69 18.5t45 34t16 20.5l40 -40q0 -3 -20.5 -24z
M173 503q-41 -55 -41 -144q0 -90 40.5 -144t110.5 -62v413q-69 -8 -110 -63z" />
    <glyph glyph-name="sterling" unicode="&#xa3;" 
d="M68 40l85 14q22 22 40.5 71.5t18.5 94.5q0 37 -5.5 62t-10.5 39t-6 18h-111v45h95l-10 28q-23 64 -23 125q0 42 17 79t47 63q28 25 66.5 37.5t78.5 12.5q46 0 95 -23t80 -73l-45 -34q0 3 -16.5 23t-46.5 37.5t-72 17.5q-45 0 -76.5 -20t-47 -51t-15.5 -64q0 -64 22 -127
l10 -31h203v-45h-187q1 -4 7.5 -21.5t10.5 -43t4 -54.5q0 -43 -19 -90t-42 -76h316v-54h-463v40z" />
    <glyph glyph-name="currency" unicode="&#xa4;" 
d="M394 211q-11 -11 -42.5 -24.5t-68.5 -13.5q-38 0 -69.5 13t-42.5 25l-92 -92l-37 37l92 91q-12 13 -25 44t-13 68q0 38 13 69.5t25 42.5l-92 92l37 37l92 -93q11 12 42.5 25.5t69.5 13.5q37 0 69 -13.5t42 -25.5l92 93l37 -37l-92 -92q11 -11 24.5 -43t13.5 -69
t-13 -68.5t-25 -43.5l92 -91l-37 -37zM399.5 427q-18.5 31 -49.5 49.5t-67 18.5q-37 0 -68 -18.5t-49.5 -49.5t-18.5 -68q0 -36 18.5 -67t49.5 -49.5t68 -18.5q36 0 67 18.5t49.5 49.5t18.5 67q0 37 -18.5 68z" />
    <glyph glyph-name="yen" unicode="&#xa5;" 
d="M501 384v-45h-171l-17 -31v-65h188v-45h-187v-198h-62v198h-188v45h188v64l-16 32h-172v45h150l-178 334h71l176 -351l175 351h71l-178 -334h150z" />
    <glyph glyph-name="brokenbar" unicode="&#xa6;" horiz-adv-x="283" 
d="M115 768h52v-367h-52v367zM115 215h52v-368h-52v368z" />
    <glyph glyph-name="section" unicode="&#xa7;" 
d="M496 209.5q-16 -30.5 -35.5 -49t-19.5 -15.5q0 2 10.5 -12t18.5 -34.5t8 -47.5q0 -55 -28 -95.5t-76 -62t-108 -21.5q-78 0 -134 31t-81 63l39 45q33 -34 75 -59t101 -25q67 0 109.5 32t42.5 83q0 43 -28 63.5t-62 32.5l-147 51q-15 4 -41 21t-48 48.5t-22 74.5t16 73.5
t35.5 49t19.5 15.5q0 -2 -10.5 10t-18.5 33t-8 51q0 75 57 119t144 44q120 0 196 -73l-34 -45q-27 26 -69.5 45.5t-92.5 19.5q-59 0 -100 -27t-41 -77q0 -31 17 -51t31 -26t42 -16l147 -51q17 -6 42 -22.5t47 -47.5t22 -74t-16 -73.5zM423.5 338q-28.5 25 -73.5 41l-98 33
q-3 2 -20 7q-39 15 -51 22q0 2 -14 -9.5t-25.5 -32.5t-11.5 -51q0 -46 28.5 -70.5t73.5 -40.5l98 -34q48 -16 71 -28q0 -2 14 9.5t25.5 32.5t11.5 51q0 45 -28.5 70z" />
    <glyph glyph-name="dieresis" unicode="&#xa8;" horiz-adv-x="424" 
d="M165 613q-14 -14 -35 -14t-35 14t-14 33q0 20 14 34.5t35 14.5t35 -14.5t14 -33.5q0 -20 -14 -34zM328.5 613q-13.5 -14 -34.5 -14t-35 14t-14 33q0 20 14 34.5t35 14.5q20 0 34 -14.5t14 -33.5q0 -20 -13.5 -34z" />
    <glyph glyph-name="copyright" unicode="&#xa9;" horiz-adv-x="842" 
d="M743 169.5q-48 -84.5 -132.5 -132.5t-189.5 -48t-189.5 48t-132.5 132.5t-48 188.5q0 105 48 189.5t132.5 133t188.5 48.5q105 0 189.5 -48t133 -132.5t48.5 -189.5t-48 -189.5zM702 521.5q-44 74.5 -118.5 118.5t-162.5 44t-162.5 -44t-118.5 -118.5t-44 -162.5
q0 -87 44 -162t118.5 -119t161.5 -44q88 0 163 44t119 118.5t44 162.5t-44 162.5zM424 149q-52 0 -97.5 26t-73 74t-27.5 113q0 64 27.5 112t73 74t97.5 26q99 0 158 -71l-34 -40q-4 7 -19 20.5t-41 25t-59 11.5q-60 0 -100.5 -40t-40.5 -117q0 -78 40.5 -118t100.5 -40
q33 0 59 11.5t41 24.5t19 20l34 -40q-60 -72 -158 -72z" />
    <glyph glyph-name="ordfeminine" unicode="&#xaa;" horiz-adv-x="396" 
d="M281.5 366q-4.5 15 -4.5 29q-15 -21 -46 -38.5t-73 -17.5q-50 0 -84 28.5t-34 84.5q0 85 107 113q25 6 64.5 10.5t65.5 4.5v25q0 40 -26 59.5t-70 19.5q-36 0 -62 -10.5t-47 -22.5l-19 41q16 12 53 24t75 12q75 0 113 -33q39 -35 39 -107v-162q0 -42 17 -79h-62
q-2 4 -6.5 19zM230.5 537.5q-26.5 -2.5 -44.5 -6.5q-88 -15 -88 -76q0 -40 25 -55.5t58 -15.5q28 0 58 20t38 48v88q-20 0 -46.5 -2.5z" />
    <glyph glyph-name="guillemotleft" unicode="&#xab;" horiz-adv-x="509" 
d="M56 254v40l153 190l41 -33l-143 -176l143 -177l-41 -34zM254 254v40l153 190l40 -33l-142 -176l142 -177l-40 -34z" />
    <glyph glyph-name="logicalnot" unicode="&#xac;" 
d="M446 403h-401v52h452v-243h-51v191z" />
    <glyph glyph-name="uni00AD" unicode="&#xad;" horiz-adv-x="339" 
d="M51 288h237v-56h-237v56z" />
    <glyph glyph-name="registered" unicode="&#xae;" horiz-adv-x="706" 
d="M641 370.5q-43 -73.5 -116 -116.5t-160 -43q-88 0 -161.5 43t-116 116t-42.5 161t42.5 161t115.5 116t161 43t161 -42.5t116 -116t43 -161.5q0 -87 -43 -160.5zM605 670.5q-37 63.5 -100.5 100.5t-139.5 37q-77 0 -140.5 -36.5t-100.5 -100t-37 -140.5q0 -76 37 -139.5
t100.5 -100.5t139.5 -37q77 0 140.5 36.5t100.5 100t37 140.5q0 76 -37 139.5zM362 498h-57v-152h-51v373h113q55 0 91.5 -28t36.5 -82q0 -35 -15 -58t-33.5 -34t-31.5 -13l99 -158h-59zM421.5 661q-19.5 18 -56.5 18h-60v-141h59q77 0 77 71q0 34 -19.5 52z" />
    <glyph glyph-name="macron" unicode="&#xaf;" horiz-adv-x="424" 
d="M68 672h288v-51h-288v51z" />
    <glyph glyph-name="degree" unicode="&#xb0;" horiz-adv-x="424" 
d="M342.5 503.5q-19.5 -34.5 -54 -54.5t-76.5 -20q-41 0 -75.5 20t-54.5 54t-20 76q0 41 19.5 75.5t54 54.5t75.5 20q42 0 76.5 -19.5t54.5 -54t20 -75.5q0 -42 -19.5 -76.5zM283 651q-28 28 -71 28q-42 0 -70.5 -28t-28.5 -71q0 -45 28 -73t70 -28q43 0 71.5 28t28.5 73
q0 43 -28 71z" />
    <glyph glyph-name="plusminus" unicode="&#xb1;" 
d="M307 107h-50v201h-201v51h201v201h50v-201h201v-51h-201v-201zM56 51h452v-51h-452v51z" />
    <glyph glyph-name="two.superior" unicode="&#xb2;" horiz-adv-x="424" 
d="M89 515q21 37 43.5 59.5t55.5 50.5l16 14q37 31 57 54.5t20 52.5q0 36 -22 57.5t-60 21.5q-34 0 -61.5 -16t-43.5 -37l-31 36q23 28 56 46.5t86 18.5q60 0 97.5 -33.5t37.5 -90.5q0 -35 -17.5 -64t-34 -43.5t-50.5 -41.5q-4 -3 -29.5 -23.5t-45 -45.5t-24.5 -48h218v-51
h-294q5 46 26 83z" />
    <glyph glyph-name="three.superior" unicode="&#xb3;" horiz-adv-x="424" 
d="M326 485q-20 -29 -54.5 -45.5t-76.5 -16.5q-37 0 -66 14.5t35 -48.5t-104 105l34 34q47 -57 101 -57q43 0 67 22t24 60q0 36 -25 59t-60 23h-45v48h39q35 0 59 20t24 53t-23.5 52t-59.5 19q-31 0 -55.5 -12t-40.5 -31l-28 34q19 23 50 40t77 17q56 0 96 -29.5t40 -78.5
q0 -45 -26.5 -71.5t-55.5 -32.5q20 -3 41.5 -16.5t37 -38t15.5 -58.5q0 -36 -20 -65z" />
    <glyph glyph-name="acute" unicode="&#xb4;" horiz-adv-x="424" 
d="M136 576l73 142h79l-102 -142h-50z" />
    <glyph glyph-name="uni00B5" unicode="&#xb5;" 
d="M410 102q-20 -44 -62.5 -78t-93.5 -34q-32 0 -54 8.5t-33.5 18t-11.5 11.5v-220h-65v706h65v-316q0 -75 24 -112t81 -37q37 0 70.5 25.5t55 61.5t24.5 64v314h65v-514h-59z" />
    <glyph glyph-name="paragraph" unicode="&#xb6;" 
d="M458 -153h-51v825h-74v-457h-17q-83 0 -143 31t-91 88t-31 132t31 132t91 88.5t143 31.5h204v-46h-62v-825z" />
    <glyph glyph-name="periodcentered" unicode="&#xb7;" horiz-adv-x="283" 
d="M177 280.5q-15 -14.5 -36 -14.5t-36 14.5t-15 35.5q0 22 15 36.5t36 14.5t36 -14.5t15 -36.5q0 -21 -15 -35.5z" />
    <glyph glyph-name="cedilla" unicode="&#xb8;" horiz-adv-x="424" 
d="M119 -141l90 141h51l-68 -141h-73z" />
    <glyph glyph-name="one.superior" unicode="&#xb9;" horiz-adv-x="424" 
d="M195 792q-13 -8 -37 -17q-31 -9 -39 -9l-9 40q11 2 26.5 7t27.5 12q13 8 26.5 22t15.5 24h48v-439h-59v360z" />
    <glyph glyph-name="ordmasculine" unicode="&#xba;" horiz-adv-x="435" 
d="M373 433q-22 -44 -62 -69t-93 -25t-93.5 25t-62.5 69t-22 100t22 100.5t62 69.5t93 25t93.5 -25t62.5 -69.5t22 -100.5t-22 -100zM305 641q-32 40 -87 40t-87.5 -40t-32.5 -108t32 -108t87 -40t87.5 40t32.5 108t-32 108z" />
    <glyph glyph-name="guillemotright" unicode="&#xbb;" horiz-adv-x="509" 
d="M61 97l142 176l-142 177l41 34l152 -190v-40l-152 -190zM259 97l142 176l-142 177l40 34l153 -190v-40l-153 -190z" />
    <glyph glyph-name="onequarter" unicode="&#xbc;" horiz-adv-x="848" 
d="M140 6l410 745l42 -22l-410 -746zM122 657q-16 -11 -37 -17q-26 -9 -40 -9l-9 39q12 2 27.5 7t26.5 12q14 9 27.5 23t14.5 24h49v-440h-59v361zM694 0h-58v93h-221v49l205 291h74v-288h66v-52h-66v-93zM473 145h163v231z" />
    <glyph glyph-name="onehalf" unicode="&#xbd;" horiz-adv-x="848" 
d="M140 6l410 745l42 -22l-410 -746zM122 657q-16 -11 -37 -17q-26 -9 -40 -9l-9 39q12 2 27.5 7t26.5 12q14 9 27.5 23t14.5 24h49v-440h-59v361zM534 83.5q21 36.5 43 58.5t56 51l16 14q38 32 58 55.5t20 51.5q0 37 -22.5 58t-60.5 21q-35 0 -62.5 -16t-42.5 -37l-31 36
q52 66 142 66q60 0 97.5 -34t37.5 -90q0 -35 -17.5 -64t-32.5 -43t-51 -43q-37 -28 -64.5 -56t-35.5 -61h218v-51h-294q5 47 26 83.5z" />
    <glyph glyph-name="threequarters" unicode="&#xbe;" horiz-adv-x="848" 
d="M216 6l410 745l42 -22l-410 -746zM268.5 323.5q-43.5 -36.5 -106.5 -36.5q-75 0 -104.5 34.5t-31.5 36.5l34 34q1 -1 14 -15.5t38 -27.5t50 -13q42 0 66 21.5t24 59.5q0 37 -25 59.5t-60 22.5h-45v48h40q35 0 58.5 20t23.5 53t-23.5 52.5t-58.5 19.5q-32 0 -56 -12.5
t-40 -30.5l-29 34q48 56 127 56q56 0 96.5 -29.5t40.5 -77.5q0 -45 -27.5 -72t-55.5 -32q33 -6 63.5 -35t30.5 -78q0 -55 -43.5 -91.5zM764 0h-58v93h-221v49l205 291h74v-288h67v-52h-67v-93zM544 145h162v231z" />
    <glyph glyph-name="questiondown" unicode="&#xbf;" horiz-adv-x="475" 
d="M293.5 439q-14.5 -15 -35.5 -15q-22 0 -37 14.5t-15 36.5q0 21 14.5 35.5t36.5 14.5q21 0 36 -14.5t15 -35.5t-14.5 -36zM352 -186.5q-45 -28.5 -117 -28.5q-52 0 -94 22t-66 59.5t-24 82.5q0 41 15 75t32 54t43 46l15 15q31 29 51.5 58t21.5 63l3 56h51v-28
q0 -39 -2.5 -59.5t-13.5 -43.5q-10 -20 -24.5 -36.5t-27.5 -29.5l-17 -17t-27.5 -26.5t-40.5 -53.5t-17 -62q0 -51 36 -85.5t94 -34.5q83 0 141 75l40 -34q-27 -39 -72 -67.5z" />
    <glyph glyph-name="Agrave" unicode="&#xc0;" horiz-adv-x="622" 
d="M475 201h-334l-73 -201h-68l273 718h74l274 -718h-73zM162 258h292l-146 397zM190 922h79l73 -142h-51z" />
    <glyph glyph-name="Aacute" unicode="&#xc1;" horiz-adv-x="622" 
d="M475 201h-334l-73 -201h-68l273 718h74l274 -718h-73zM162 258h292l-146 397zM281 780l73 142h79l-102 -142h-50z" />
    <glyph glyph-name="Acircumflex" unicode="&#xc2;" horiz-adv-x="622" 
d="M475 201h-334l-73 -201h-68l273 718h74l274 -718h-73zM162 258h292l-146 397zM311 882l-76 -102h-51l90 142h74l90 -142h-51z" />
    <glyph glyph-name="Atilde" unicode="&#xc3;" horiz-adv-x="622" 
d="M475 201h-334l-73 -201h-68l273 718h74l274 -718h-73zM162 258h292l-146 397zM437.5 827q-25.5 -30 -59.5 -30q-25 0 -42 8t-28.5 16.5t-16.5 11.5q-16 12 -26.5 18t-21.5 6q-15 0 -28.5 -14.5t-17.5 -45.5l-39 6q0 42 25 72t60 30q25 0 43 -8.5t29 -17t15 -11.5
q15 -12 26 -17.5t22 -5.5q15 0 28.5 14.5t16.5 45.5l40 -6q0 -42 -25.5 -72z" />
    <glyph glyph-name="Adieresis" unicode="&#xc4;" horiz-adv-x="622" 
d="M475 201h-334l-73 -201h-68l273 718h74l274 -718h-73zM162 258h292l-146 397zM264 816q-14 -14 -35 -14t-35 14t-14 33q0 20 14 34.5t35 14.5t35 -14.5t14 -33.5q0 -20 -14 -34zM427.5 816q-13.5 -14 -34.5 -14t-35 14t-14 33q0 20 14 34.5t35 14.5q20 0 34 -14.5
t14 -33.5q0 -20 -13.5 -34z" />
    <glyph glyph-name="Aring" unicode="&#xc5;" horiz-adv-x="622" 
d="M475 201h-334l-73 -201h-68l273 718h74l274 -718h-73zM162 258h292l-146 397zM373.5 788.5q-25.5 -25.5 -62.5 -25.5t-62.5 25t-25.5 62t25.5 62.5t62.5 25.5q38 0 63 -25t25 -62t-25.5 -62.5zM347.5 887q-14.5 15 -36.5 15q-21 0 -36 -14.5t-15 -36.5q0 -21 15 -36
t36 -15q22 0 36.5 14.5t14.5 36.5q0 21 -14.5 36z" />
    <glyph glyph-name="AE" unicode="&#xc6;" horiz-adv-x="904" 
d="M452 226h-288l-136 -226h-73l443 718h444v-56h-322v-250h299v-56h-299v-298h333v-58h-401v226zM426 662l-228 -379h254v379h-26z" />
    <glyph glyph-name="Ccedilla" unicode="&#xc7;" horiz-adv-x="678" 
d="M616 95.5q-28 -34.5 -80.5 -66.5t-128.5 -38l-67 -139h-73l89 139q-90 5 -157.5 51.5t-105 128t-37.5 188.5q0 110 43.5 194t118.5 129.5t166 45.5q114 0 174 -49.5t82 -90.5l-51 -40q0 6 -23 36t-69 56.5t-114 26.5q-75 0 -133 -39t-90.5 -109t-32.5 -160t31 -159.5
t88 -108.5t133 -39q68 0 116.5 27.5t75 59t26.5 36.5l47 -39q0 -6 -28 -40.5z" />
    <glyph glyph-name="Egrave" unicode="&#xc8;" horiz-adv-x="576" 
d="M102 718h412v-56h-345v-250h323v-56h-323v-298h356v-58h-423v718zM204 922h79l73 -142h-51z" />
    <glyph glyph-name="Eacute" unicode="&#xc9;" horiz-adv-x="576" 
d="M102 718h412v-56h-345v-250h323v-56h-323v-298h356v-58h-423v718zM260 780l73 142h79l-102 -142h-50z" />
    <glyph glyph-name="Ecircumflex" unicode="&#xca;" horiz-adv-x="576" 
d="M102 718h412v-56h-345v-250h323v-56h-323v-298h356v-58h-423v718zM308 882l-76 -102h-51l90 142h74l90 -142h-51z" />
    <glyph glyph-name="Edieresis" unicode="&#xcb;" horiz-adv-x="576" 
d="M102 718h412v-56h-345v-250h323v-56h-323v-298h356v-58h-423v718zM261 816q-14 -14 -35 -14t-35 14t-14 33q0 20 14 34.5t35 14.5t35 -14.5t14 -33.5q0 -20 -14 -34zM424.5 816q-13.5 -14 -34.5 -14t-35 14t-14 33q0 20 14 34.5t35 14.5q20 0 34 -14.5t14 -33.5
q0 -20 -13.5 -34z" />
    <glyph glyph-name="Igrave" unicode="&#xcc;" horiz-adv-x="271" 
d="M102 718h67v-718h-67v718zM17 922h79l73 -142h-51z" />
    <glyph glyph-name="Iacute" unicode="&#xcd;" horiz-adv-x="271" 
d="M102 718h67v-718h-67v718zM102 780l73 142h79l-102 -142h-50z" />
    <glyph glyph-name="Icircumflex" unicode="&#xce;" horiz-adv-x="271" 
d="M102 718h67v-718h-67v718zM136 882l-76 -102h-51l90 142h74l90 -142h-51z" />
    <glyph glyph-name="Idieresis" unicode="&#xcf;" horiz-adv-x="271" 
d="M102 718h67v-718h-67v718zM89 816q-14 -14 -35 -14t-35 14t-14 33q0 20 14 34.5t35 14.5t35 -14.5t14 -33.5q0 -20 -14 -34zM252.5 816q-13.5 -14 -34.5 -14t-35 14t-14 33q0 20 14 34.5t35 14.5q20 0 34 -14.5t14 -33.5q0 -20 -13.5 -34z" />
    <glyph glyph-name="Eth" unicode="&#xd0;" horiz-adv-x="723" 
d="M639 205q-28 -68 -74 -115q-45 -44 -102.5 -67t-134.5 -23h-226v348h-68v53h68v317h226q77 0 134.5 -23t102.5 -68q46 -46 74 -114t28 -154t-28 -154zM575 488.5q-22 60.5 -61 99.5q-74 73 -186 73h-159v-260h176v-53h-176v-292h159q112 0 186 74q39 39 61 99.5t22 128.5
q0 70 -22 130.5z" />
    <glyph glyph-name="Ntilde" unicode="&#xd1;" horiz-adv-x="746" 
d="M164 633v-633h-62v718h81l399 -605v605h62v-718h-62zM499.5 827q-25.5 -30 -59.5 -30q-25 0 -42 8t-28.5 16.5t-16.5 11.5q-16 12 -26.5 18t-21.5 6q-15 0 -28.5 -14.5t-17.5 -45.5l-39 6q0 42 25 72t60 30q25 0 43 -8.5t29 -17t15 -11.5q15 -12 26 -17.5t22 -5.5
q15 0 28.5 14.5t16.5 45.5l40 -6q0 -42 -25.5 -72z" />
    <glyph glyph-name="Ograve" unicode="&#xd2;" horiz-adv-x="785" 
d="M687.5 169q-41.5 -84 -118 -131.5t-176.5 -47.5t-176.5 47.5t-118.5 131.5t-42 189q0 106 42 190t118 132t176 48t176.5 -47.5t118.5 -131.5t42 -190t-41.5 -190zM626 519q-33 70 -93.5 109.5t-139.5 39.5t-139.5 -39.5t-93.5 -109.5t-33 -160q0 -89 33 -159t93 -109.5
t139 -39.5q80 0 140.5 39.5t93.5 109t33 159.5t-33 160zM266 922h79l73 -142h-51z" />
    <glyph glyph-name="Oacute" unicode="&#xd3;" horiz-adv-x="785" 
d="M687.5 169q-41.5 -84 -118 -131.5t-176.5 -47.5t-176.5 47.5t-118.5 131.5t-42 189q0 106 42 190t118 132t176 48t176.5 -47.5t118.5 -131.5t42 -190t-41.5 -190zM626 519q-33 70 -93.5 109.5t-139.5 39.5t-139.5 -39.5t-93.5 -109.5t-33 -160q0 -89 33 -159t93 -109.5
t139 -39.5q80 0 140.5 39.5t93.5 109t33 159.5t-33 160zM368 780l73 142h79l-102 -142h-50z" />
    <glyph glyph-name="Ocircumflex" unicode="&#xd4;" horiz-adv-x="785" 
d="M687.5 169q-41.5 -84 -118 -131.5t-176.5 -47.5t-176.5 47.5t-118.5 131.5t-42 189q0 106 42 190t118 132t176 48t176.5 -47.5t118.5 -131.5t42 -190t-41.5 -190zM626 519q-33 70 -93.5 109.5t-139.5 39.5t-139.5 -39.5t-93.5 -109.5t-33 -160q0 -89 33 -159t93 -109.5
t139 -39.5q80 0 140.5 39.5t93.5 109t33 159.5t-33 160zM393 882l-76 -102h-51l90 142h74l90 -142h-51z" />
    <glyph glyph-name="Otilde" unicode="&#xd5;" horiz-adv-x="785" 
d="M687.5 169q-41.5 -84 -118 -131.5t-176.5 -47.5t-176.5 47.5t-118.5 131.5t-42 189q0 106 42 190t118 132t176 48t176.5 -47.5t118.5 -131.5t42 -190t-41.5 -190zM626 519q-33 70 -93.5 109.5t-139.5 39.5t-139.5 -39.5t-93.5 -109.5t-33 -160q0 -89 33 -159t93 -109.5
t139 -39.5q80 0 140.5 39.5t93.5 109t33 159.5t-33 160zM520.5 827q-25.5 -30 -59.5 -30q-25 0 -42 8t-28.5 16.5t-16.5 11.5q-16 12 -26.5 18t-21.5 6q-15 0 -28.5 -14.5t-17.5 -45.5l-39 6q0 42 25 72t60 30q25 0 43 -8.5t29 -17t15 -11.5q15 -12 26 -17.5t22 -5.5
q15 0 28.5 14.5t16.5 45.5l40 -6q0 -42 -25.5 -72z" />
    <glyph glyph-name="Odieresis" unicode="&#xd6;" horiz-adv-x="785" 
d="M687.5 169q-41.5 -84 -118 -131.5t-176.5 -47.5t-176.5 47.5t-118.5 131.5t-42 189q0 106 42 190t118 132t176 48t176.5 -47.5t118.5 -131.5t42 -190t-41.5 -190zM626 519q-33 70 -93.5 109.5t-139.5 39.5t-139.5 -39.5t-93.5 -109.5t-33 -160q0 -89 33 -159t93 -109.5
t139 -39.5q80 0 140.5 39.5t93.5 109t33 159.5t-33 160zM346 816q-14 -14 -35 -14t-35 14t-14 33q0 20 14 34.5t35 14.5t35 -14.5t14 -33.5q0 -20 -14 -34zM509.5 816q-13.5 -14 -34.5 -14t-35 14t-14 33q0 20 14 34.5t35 14.5q20 0 34 -14.5t14 -33.5q0 -20 -13.5 -34z" />
    <glyph glyph-name="multiply" unicode="&#xd7;" 
d="M283 297l-142 -141l-37 36l142 141l-142 142l37 37l142 -141l141 141l37 -36l-142 -142l142 -141l-37 -37z" />
    <glyph glyph-name="Oslash" unicode="&#xd8;" horiz-adv-x="785" 
d="M687.5 169q-41.5 -84 -118 -131.5t-176.5 -47.5q-117 0 -203 65l-77 -98l-40 32l80 100q-46 51 -71.5 120t-25.5 149q0 106 42 190t118 132t176 48q122 0 208 -70l72 91l40 -31l-75 -95q44 -50 68 -118t24 -146q0 -106 -41.5 -190zM393 668q-79 0 -139.5 -39.5
t-93.5 -109.5t-33 -160q0 -65 17.5 -120.5t50.5 -96.5l365 465q-71 61 -167 61zM642.5 475q-16.5 54 -46.5 95l-365 -464q32 -27 73 -41t88 -14q80 0 140.5 39.5t93.5 109t33 159.5q0 62 -16.5 116z" />
    <glyph glyph-name="Ugrave" unicode="&#xd9;" horiz-adv-x="695" 
d="M605 718v-435q0 -73 -10 -122t-41 -88q-35 -42 -85 -62.5t-121 -20.5q-72 0 -122.5 20.5t-84.5 62.5q-31 39 -41 88t-10 122v435h68v-441q0 -65 6.5 -97t27.5 -61q47 -67 155 -67q109 0 156 67q21 29 27.5 61t6.5 97v441h68zM232 922h79l73 -142h-51z" />
    <glyph glyph-name="Uacute" unicode="&#xda;" horiz-adv-x="695" 
d="M605 718v-435q0 -73 -10 -122t-41 -88q-35 -42 -85 -62.5t-121 -20.5q-72 0 -122.5 20.5t-84.5 62.5q-31 39 -41 88t-10 122v435h68v-441q0 -65 6.5 -97t27.5 -61q47 -67 155 -67q109 0 156 67q21 29 27.5 61t6.5 97v441h68zM311 780l73 142h79l-102 -142h-50z" />
    <glyph glyph-name="Ucircumflex" unicode="&#xdb;" horiz-adv-x="695" 
d="M605 718v-435q0 -73 -10 -122t-41 -88q-35 -42 -85 -62.5t-121 -20.5q-72 0 -122.5 20.5t-84.5 62.5q-31 39 -41 88t-10 122v435h68v-441q0 -65 6.5 -97t27.5 -61q47 -67 155 -67q109 0 156 67q21 29 27.5 61t6.5 97v441h68zM348 882l-76 -102h-51l90 142h74l90 -142h-51
z" />
    <glyph glyph-name="Udieresis" unicode="&#xdc;" horiz-adv-x="695" 
d="M605 718v-435q0 -73 -10 -122t-41 -88q-35 -42 -85 -62.5t-121 -20.5q-72 0 -122.5 20.5t-84.5 62.5q-31 39 -41 88t-10 122v435h68v-441q0 -65 6.5 -97t27.5 -61q47 -67 155 -67q109 0 156 67q21 29 27.5 61t6.5 97v441h68zM301 816q-14 -14 -35 -14t-35 14t-14 33
q0 20 14 34.5t35 14.5t35 -14.5t14 -33.5q0 -20 -14 -34zM464.5 816q-13.5 -14 -34.5 -14t-35 14t-14 33q0 20 14 34.5t35 14.5q20 0 34 -14.5t14 -33.5q0 -20 -13.5 -34z" />
    <glyph glyph-name="Yacute" unicode="&#xdd;" horiz-adv-x="582" 
d="M325 0h-67v299l-247 419h76l207 -362l205 362h72l-246 -419v-299zM253 780l73 142h79l-102 -142h-50z" />
    <glyph glyph-name="Thorn" unicode="&#xde;" horiz-adv-x="588" 
d="M513.5 286.5q-17.5 -41.5 -50.5 -68.5q-66 -54 -169 -54h-125v-164h-67v718h67v-125h125q103 0 169 -53q33 -28 50.5 -69t17.5 -92t-17.5 -92.5zM407 503q-25 18 -54.5 26t-75.5 8h-108v-317h108q45 0 74.5 8t55.5 26q56 41 56 125q0 83 -56 124z" />
    <glyph glyph-name="germandbls" unicode="&#xdf;" horiz-adv-x="576" 
d="M497.5 103.5q-27.5 -52.5 -75 -83t-106.5 -30.5q-65 0 -91 16l16 53q10 -5 32 -9.5t49 -4.5q33 0 64.5 19t51.5 59t20 98q0 59 -26.5 99.5t-68 60t-86.5 19.5h-34v53h28q59 0 94.5 34.5t35.5 93.5q0 55 -34.5 83.5t-78.5 28.5q-55 0 -90 -32q-43 -36 -43 -114v-547h-65
v531q0 112 68 170q55 45 136 45q39 0 78 -17.5t65 -54t26 -89.5q0 -51 -22 -85t-48.5 -51t-36.5 -17q69 -14 119 -68t50 -144q0 -64 -27.5 -116.5z" />
    <glyph glyph-name="agrave" unicode="&#xe0;" horiz-adv-x="509" 
d="M377.5 26.5q-4.5 20.5 -4.5 41.5q-26 -34 -68.5 -56t-101.5 -22q-67 0 -112.5 40t-45.5 115q0 68 41 102t89 48q76 21 196 21v40q0 60 -36 87.5t-92 27.5q-46 0 -86 -13.5t-67 -32.5l-26 50q35 21 80 35t96 14q93 0 144 -45q24 -21 37.5 -53.5t13.5 -86.5v-237
q0 -35 6 -58t17 -44h-74q-2 6 -6.5 26.5zM304.5 263q-43.5 -4 -67.5 -8q-45 -7 -84.5 -30t-39.5 -78q0 -57 32.5 -81.5t74.5 -24.5q40 0 84 24t67 71v131q-23 0 -66.5 -4zM134 718h79l73 -142h-51z" />
    <glyph glyph-name="aacute" unicode="&#xe1;" horiz-adv-x="509" 
d="M377.5 26.5q-4.5 20.5 -4.5 41.5q-26 -34 -68.5 -56t-101.5 -22q-67 0 -112.5 40t-45.5 115q0 68 41 102t89 48q76 21 196 21v40q0 60 -36 87.5t-92 27.5q-46 0 -86 -13.5t-67 -32.5l-26 50q35 21 80 35t96 14q93 0 144 -45q24 -21 37.5 -53.5t13.5 -86.5v-237
q0 -35 6 -58t17 -44h-74q-2 6 -6.5 26.5zM304.5 263q-43.5 -4 -67.5 -8q-45 -7 -84.5 -30t-39.5 -78q0 -57 32.5 -81.5t74.5 -24.5q40 0 84 24t67 71v131q-23 0 -66.5 -4zM204 576l73 142h79l-102 -142h-50z" />
    <glyph glyph-name="acircumflex" unicode="&#xe2;" horiz-adv-x="509" 
d="M377.5 26.5q-4.5 20.5 -4.5 41.5q-26 -34 -68.5 -56t-101.5 -22q-67 0 -112.5 40t-45.5 115q0 68 41 102t89 48q76 21 196 21v40q0 60 -36 87.5t-92 27.5q-46 0 -86 -13.5t-67 -32.5l-26 50q35 21 80 35t96 14q93 0 144 -45q24 -21 37.5 -53.5t13.5 -86.5v-237
q0 -35 6 -58t17 -44h-74q-2 6 -6.5 26.5zM304.5 263q-43.5 -4 -67.5 -8q-45 -7 -84.5 -30t-39.5 -78q0 -57 32.5 -81.5t74.5 -24.5q40 0 84 24t67 71v131q-23 0 -66.5 -4zM249 678l-76 -102h-51l90 142h74l90 -142h-51z" />
    <glyph glyph-name="atilde" unicode="&#xe3;" horiz-adv-x="509" 
d="M377.5 26.5q-4.5 20.5 -4.5 41.5q-26 -34 -68.5 -56t-101.5 -22q-67 0 -112.5 40t-45.5 115q0 68 41 102t89 48q76 21 196 21v40q0 60 -36 87.5t-92 27.5q-46 0 -86 -13.5t-67 -32.5l-26 50q35 21 80 35t96 14q93 0 144 -45q24 -21 37.5 -53.5t13.5 -86.5v-237
q0 -35 6 -58t17 -44h-74q-2 6 -6.5 26.5zM304.5 263q-43.5 -4 -67.5 -8q-45 -7 -84.5 -30t-39.5 -78q0 -57 32.5 -81.5t74.5 -24.5q40 0 84 24t67 71v131q-23 0 -66.5 -4zM381.5 623q-25.5 -30 -59.5 -30q-25 0 -42 8t-28.5 16.5t-16.5 11.5q-16 12 -26.5 18t-21.5 6
q-15 0 -28.5 -14.5t-17.5 -45.5l-39 6q0 42 25 72t60 30q25 0 43 -8.5t29 -17t15 -11.5q15 -12 26 -17.5t22 -5.5q15 0 28.5 14.5t16.5 45.5l40 -6q0 -42 -25.5 -72z" />
    <glyph glyph-name="adieresis" unicode="&#xe4;" horiz-adv-x="509" 
d="M377.5 26.5q-4.5 20.5 -4.5 41.5q-26 -34 -68.5 -56t-101.5 -22q-67 0 -112.5 40t-45.5 115q0 68 41 102t89 48q76 21 196 21v40q0 60 -36 87.5t-92 27.5q-46 0 -86 -13.5t-67 -32.5l-26 50q35 21 80 35t96 14q93 0 144 -45q24 -21 37.5 -53.5t13.5 -86.5v-237
q0 -35 6 -58t17 -44h-74q-2 6 -6.5 26.5zM304.5 263q-43.5 -4 -67.5 -8q-45 -7 -84.5 -30t-39.5 -78q0 -57 32.5 -81.5t74.5 -24.5q40 0 84 24t67 71v131q-23 0 -66.5 -4zM202 613q-14 -14 -35 -14t-35 14t-14 33q0 20 14 34.5t35 14.5t35 -14.5t14 -33.5q0 -20 -14 -34z
M365.5 613q-13.5 -14 -34.5 -14t-35 14t-14 33q0 20 14 34.5t35 14.5q20 0 34 -14.5t14 -33.5q0 -20 -13.5 -34z" />
    <glyph glyph-name="aring" unicode="&#xe5;" horiz-adv-x="509" 
d="M377.5 26.5q-4.5 20.5 -4.5 41.5q-26 -34 -68.5 -56t-101.5 -22q-67 0 -112.5 40t-45.5 115q0 68 41 102t89 48q76 21 196 21v40q0 60 -36 87.5t-92 27.5q-46 0 -86 -13.5t-67 -32.5l-26 50q35 21 80 35t96 14q93 0 144 -45q24 -21 37.5 -53.5t13.5 -86.5v-237
q0 -35 6 -58t17 -44h-74q-2 6 -6.5 26.5zM304.5 263q-43.5 -4 -67.5 -8q-45 -7 -84.5 -30t-39.5 -78q0 -57 32.5 -81.5t74.5 -24.5q40 0 84 24t67 71v131q-23 0 -66.5 -4zM316.5 584.5q-25.5 -25.5 -62.5 -25.5t-62.5 25t-25.5 62t25.5 62.5t62.5 25.5q38 0 63 -25t25 -62
t-25.5 -62.5zM290.5 683q-14.5 15 -36.5 15q-21 0 -36 -14.5t-15 -36.5q0 -21 15 -36t36 -15q22 0 36.5 14.5t14.5 36.5q0 21 -14.5 36z" />
    <glyph glyph-name="ae" unicode="&#xe6;" horiz-adv-x="851" 
d="M435 249q0 -91 45 -147t125 -56q48 0 84 13.5t57.5 29.5t21.5 18l32 -44q0 -3 -26 -22t-70.5 -35t-104.5 -16q-67 0 -115.5 29.5t-76.5 76.5q-38 -55 -86 -80.5t-112 -25.5q-69 0 -116.5 38t-47.5 110q0 66 41 100.5t89 47.5q76 21 196 21v49q0 60 -36 87.5t-92 27.5
q-46 0 -86 -13.5t-67 -32.5l-26 50q35 21 80 35t96 14q93 0 144 -45q17 -15 25.5 -33t8.5 -22q15 30 57 65t124 35q64 0 112 -30.5t74 -84t26 -121.5v-29h-376v-10zM731 384.5q-15 37.5 -48.5 62t-85.5 24.5t-87.5 -25.5t-53.5 -63.5t-21 -75h311q0 40 -15 77.5zM371 259
q-21 0 -55 -3t-67 -7q-136 -20 -136 -108q0 -56 35 -78t78 -22q40 0 84 24t74 82q-13 39 -13 112z" />
    <glyph glyph-name="ccedilla" unicode="&#xe7;" horiz-adv-x="494" 
d="M295 -10l-65 -134h-73l86 135q-58 7 -103 42.5t-70 93.5t-25 130q0 78 31 138.5t85.5 94.5t121.5 34q60 0 101 -22.5t62 -48t21 -30.5l-46 -34q0 3 -16.5 23.5t-46.5 38.5t-73 18q-49 0 -88 -24.5t-62 -72.5t-23 -114q0 -67 22.5 -115t60.5 -72.5t84 -24.5q58 0 92.5 28
t53.5 55l43 -37q-66 -92 -173 -102z" />
    <glyph glyph-name="egrave" unicode="&#xe8;" horiz-adv-x="529" 
d="M158 102q45 -56 125 -56q48 0 84 13.5t57.5 29.5t21.5 18l32 -44q0 -3 -26 -22t-70.5 -35t-104.5 -16q-68 0 -120.5 32t-82 92.5t-29.5 142.5q0 81 30.5 141.5t83.5 93t118 32.5q64 0 112 -30.5t74 -85.5t26 -125v-34h-376q0 -91 45 -147zM387.5 421q-36.5 50 -112.5 50
q-52 0 -87.5 -26t-53.5 -65.5t-21 -80.5h311q0 72 -36.5 122zM153 718h79l73 -142h-51z" />
    <glyph glyph-name="eacute" unicode="&#xe9;" horiz-adv-x="529" 
d="M158 102q45 -56 125 -56q48 0 84 13.5t57.5 29.5t21.5 18l32 -44q0 -3 -26 -22t-70.5 -35t-104.5 -16q-68 0 -120.5 32t-82 92.5t-29.5 142.5q0 81 30.5 141.5t83.5 93t118 32.5q64 0 112 -30.5t74 -85.5t26 -125v-34h-376q0 -91 45 -147zM387.5 421q-36.5 50 -112.5 50
q-52 0 -87.5 -26t-53.5 -65.5t-21 -80.5h311q0 72 -36.5 122zM227 576l73 142h79l-102 -142h-50z" />
    <glyph glyph-name="ecircumflex" unicode="&#xea;" horiz-adv-x="529" 
d="M158 102q45 -56 125 -56q48 0 84 13.5t57.5 29.5t21.5 18l32 -44q0 -3 -26 -22t-70.5 -35t-104.5 -16q-68 0 -120.5 32t-82 92.5t-29.5 142.5q0 81 30.5 141.5t83.5 93t118 32.5q64 0 112 -30.5t74 -85.5t26 -125v-34h-376q0 -91 45 -147zM387.5 421q-36.5 50 -112.5 50
q-52 0 -87.5 -26t-53.5 -65.5t-21 -80.5h311q0 72 -36.5 122zM280 678l-76 -102h-51l90 142h74l90 -142h-51z" />
    <glyph glyph-name="edieresis" unicode="&#xeb;" horiz-adv-x="529" 
d="M158 102q45 -56 125 -56q48 0 84 13.5t57.5 29.5t21.5 18l32 -44q0 -3 -26 -22t-70.5 -35t-104.5 -16q-68 0 -120.5 32t-82 92.5t-29.5 142.5q0 81 30.5 141.5t83.5 93t118 32.5q64 0 112 -30.5t74 -85.5t26 -125v-34h-376q0 -91 45 -147zM387.5 421q-36.5 50 -112.5 50
q-52 0 -87.5 -26t-53.5 -65.5t-21 -80.5h311q0 72 -36.5 122zM230 613q-14 -14 -35 -14t-35 14t-14 33q0 20 14 34.5t35 14.5t35 -14.5t14 -33.5q0 -20 -14 -34zM393.5 613q-13.5 -14 -34.5 -14t-35 14t-14 33q0 20 14 34.5t35 14.5q20 0 34 -14.5t14 -33.5q0 -20 -13.5 -34
z" />
    <glyph glyph-name="igrave" unicode="&#xec;" horiz-adv-x="245" 
d="M90 514h65v-514h-65v514zM6 718h79l73 -142h-51z" />
    <glyph glyph-name="iacute" unicode="&#xed;" horiz-adv-x="245" 
d="M90 514h65v-514h-65v514zM91 576l73 142h79l-102 -142h-50z" />
    <glyph glyph-name="icircumflex" unicode="&#xee;" horiz-adv-x="245" 
d="M90 514h65v-514h-65v514zM123 678l-76 -102h-51l90 142h74l90 -142h-51z" />
    <glyph glyph-name="idieresis" unicode="&#xef;" horiz-adv-x="245" 
d="M90 514h65v-514h-65v514zM76 613q-14 -14 -35 -14t-35 14t-14 33q0 20 14 34.5t35 14.5t35 -14.5t14 -33.5q0 -20 -14 -34zM239.5 613q-13.5 -14 -34.5 -14t-35 14t-14 33q0 20 14 34.5t35 14.5q20 0 34 -14.5t14 -33.5q0 -20 -13.5 -34z" />
    <glyph glyph-name="eth" unicode="&#xf0;" 
d="M490 122q-30 -63 -83.5 -97.5t-123.5 -34.5q-69 0 -123.5 33.5t-84.5 90.5t-30 126q0 70 29 127.5t81.5 91t121.5 33.5q65 0 105 -26.5t59 -53.5q-21 62 -57 114t-89 100l-120 -76l-21 33l110 70q-24 20 -59 40t-60 30l19 40q33 -13 73.5 -35t70.5 -47l121 76l22 -33
l-112 -70q18 -15 44 -42.5t43 -49.5q94 -129 94 -296q0 -81 -30 -144zM406.5 386q-45.5 56 -123.5 56q-79 0 -124.5 -56t-45.5 -143t45.5 -143t124.5 -56q78 0 123.5 56t45.5 143t-45.5 143z" />
    <glyph glyph-name="ntilde" unicode="&#xf1;" horiz-adv-x="582" 
d="M433 315q0 74 -26 112.5t-91 38.5q-42 0 -76.5 -25.5t-56.5 -62t-28 -67.5v-311h-65v514h59l6 -102q25 48 70.5 80t107.5 32q74 0 119 -45t45 -141v-338h-64v315zM420.5 623q-25.5 -30 -59.5 -30q-25 0 -42 8t-28.5 16.5t-16.5 11.5q-16 12 -26.5 18t-21.5 6
q-15 0 -28.5 -14.5t-17.5 -45.5l-39 6q0 42 25 72t60 30q25 0 43 -8.5t29 -17t15 -11.5q15 -12 26 -17.5t22 -5.5q15 0 28.5 14.5t16.5 45.5l40 -6q0 -42 -25.5 -72z" />
    <glyph glyph-name="ograve" unicode="&#xf2;" 
d="M490 117q-30 -61 -83.5 -94t-123.5 -33t-124 33t-84 93.5t-30 140.5t30 140.5t84 93.5t124 33t123.5 -33t83.5 -93.5t30 -139.5q0 -80 -30 -141zM407 412q-45 58 -124 58q-80 0 -125 -58t-45 -154q0 -97 45 -155.5t125 -58.5q79 0 124 58.5t45 155.5q0 96 -45 154z
M170 718h79l73 -142h-51z" />
    <glyph glyph-name="oacute" unicode="&#xf3;" 
d="M490 117q-30 -61 -83.5 -94t-123.5 -33t-124 33t-84 93.5t-30 140.5t30 140.5t84 93.5t124 33t123.5 -33t83.5 -93.5t30 -139.5q0 -80 -30 -141zM407 412q-45 58 -124 58q-80 0 -125 -58t-45 -154q0 -97 45 -155.5t125 -58.5q79 0 124 58.5t45 155.5q0 96 -45 154z
M243 576l73 142h79l-102 -142h-50z" />
    <glyph glyph-name="ocircumflex" unicode="&#xf4;" 
d="M490 117q-30 -61 -83.5 -94t-123.5 -33t-124 33t-84 93.5t-30 140.5t30 140.5t84 93.5t124 33t123.5 -33t83.5 -93.5t30 -139.5q0 -80 -30 -141zM407 412q-45 58 -124 58q-80 0 -125 -58t-45 -154q0 -97 45 -155.5t125 -58.5q79 0 124 58.5t45 155.5q0 96 -45 154z
M283 678l-76 -102h-51l90 142h74l90 -142h-51z" />
    <glyph glyph-name="otilde" unicode="&#xf5;" 
d="M490 117q-30 -61 -83.5 -94t-123.5 -33t-124 33t-84 93.5t-30 140.5t30 140.5t84 93.5t124 33t123.5 -33t83.5 -93.5t30 -139.5q0 -80 -30 -141zM407 412q-45 58 -124 58q-80 0 -125 -58t-45 -154q0 -97 45 -155.5t125 -58.5q79 0 124 58.5t45 155.5q0 96 -45 154z
M411.5 623q-25.5 -30 -59.5 -30q-25 0 -42 8t-28.5 16.5t-16.5 11.5q-16 12 -26.5 18t-21.5 6q-15 0 -28.5 -14.5t-17.5 -45.5l-39 6q0 42 25 72t60 30q25 0 43 -8.5t29 -17t15 -11.5q15 -12 26 -17.5t22 -5.5q15 0 28.5 14.5t16.5 45.5l40 -6q0 -42 -25.5 -72z" />
    <glyph glyph-name="odieresis" unicode="&#xf6;" 
d="M490 117q-30 -61 -83.5 -94t-123.5 -33t-124 33t-84 93.5t-30 140.5t30 140.5t84 93.5t124 33t123.5 -33t83.5 -93.5t30 -139.5q0 -80 -30 -141zM407 412q-45 58 -124 58q-80 0 -125 -58t-45 -154q0 -97 45 -155.5t125 -58.5q79 0 124 58.5t45 155.5q0 96 -45 154z
M235 613q-14 -14 -35 -14t-35 14t-14 33q0 20 14 34.5t35 14.5t35 -14.5t14 -33.5q0 -20 -14 -34zM398.5 613q-13.5 -14 -34.5 -14t-35 14t-14 33q0 20 14 34.5t35 14.5q20 0 34 -14.5t14 -33.5q0 -20 -13.5 -34z" />
    <glyph glyph-name="divide" unicode="&#xf7;" 
d="M318.5 476q-14.5 -15 -35.5 -15q-22 0 -36.5 15t-14.5 36t14.5 36t36.5 15q21 0 35.5 -15t14.5 -36t-14.5 -36zM56 359h452v-51h-452v51zM318.5 120q-14.5 -15 -35.5 -15q-22 0 -36.5 15t-14.5 36t14.5 36t36.5 15q21 0 35.5 -15t14.5 -36t-14.5 -36z" />
    <glyph glyph-name="oslash" unicode="&#xf8;" 
d="M490 117q-30 -61 -83.5 -94t-123.5 -33q-84 0 -144 47l-55 -69l-34 32l55 69q-29 35 -44.5 83t-15.5 105q0 80 30 140.5t84 93.5t124 33q87 0 149 -51l53 67l34 -32l-56 -68q27 -35 42 -81.5t15 -100.5q0 -80 -30 -141zM283 470q-80 0 -125 -58t-45 -154q0 -84 33 -138
l247 307q-43 43 -110 43zM423 389l-248 -305q43 -40 108 -40q79 0 124 58t45 155q0 79 -29 132z" />
    <glyph glyph-name="ugrave" unicode="&#xf9;" horiz-adv-x="576" 
d="M421 102q-24 -47 -68.5 -79.5t-103.5 -32.5q-72 0 -118 43.5t-46 141.5v339h64v-322q0 -70 27 -106.5t86 -36.5q39 0 73.5 23.5t57 59t28.5 68.5v314h65v-514h-59zM170 718h79l73 -142h-51z" />
    <glyph glyph-name="uacute" unicode="&#xfa;" horiz-adv-x="576" 
d="M421 102q-24 -47 -68.5 -79.5t-103.5 -32.5q-72 0 -118 43.5t-46 141.5v339h64v-322q0 -70 27 -106.5t86 -36.5q39 0 73.5 23.5t57 59t28.5 68.5v314h65v-514h-59zM249 576l73 142h79l-102 -142h-50z" />
    <glyph glyph-name="ucircumflex" unicode="&#xfb;" horiz-adv-x="576" 
d="M421 102q-24 -47 -68.5 -79.5t-103.5 -32.5q-72 0 -118 43.5t-46 141.5v339h64v-322q0 -70 27 -106.5t86 -36.5q39 0 73.5 23.5t57 59t28.5 68.5v314h65v-514h-59zM285 678l-76 -102h-51l90 142h74l90 -142h-51z" />
    <glyph glyph-name="udieresis" unicode="&#xfc;" horiz-adv-x="576" 
d="M421 102q-24 -47 -68.5 -79.5t-103.5 -32.5q-72 0 -118 43.5t-46 141.5v339h64v-322q0 -70 27 -106.5t86 -36.5q39 0 73.5 23.5t57 59t28.5 68.5v314h65v-514h-59zM239 613q-14 -14 -35 -14t-35 14t-14 33q0 20 14 34.5t35 14.5t35 -14.5t14 -33.5q0 -20 -14 -34z
M402.5 613q-13.5 -14 -34.5 -14t-35 14t-14 33q0 20 14 34.5t35 14.5q20 0 34 -14.5t14 -33.5q0 -20 -13.5 -34z" />
    <glyph glyph-name="yacute" unicode="&#xfd;" horiz-adv-x="492" 
d="M130 -198q-23 0 -40.5 4.5t-27 9.5t-11.5 7l17 50q0 -1 19.5 -7.5t36.5 -6.5q22 0 34.5 12t27.5 50l32 79l-201 514h68l164 -452l163 452h68l-243 -621q-34 -91 -107 -91zM215 576l73 142h79l-102 -142h-50z" />
    <glyph glyph-name="thorn" unicode="&#xfe;" horiz-adv-x="599" 
d="M524.5 121q-29.5 -61 -82.5 -96t-120 -35q-69 0 -109.5 31.5t-57.5 63.5v-277h-65v932h65v-316q6 12 26.5 35.5t59.5 44t92 20.5q67 0 117 -34.5t77 -95t27 -136.5t-29.5 -137zM466 364.5q-20 48.5 -57.5 77.5t-86.5 29q-50 0 -88.5 -28.5t-59.5 -77.5t-21 -107t20 -107
t57 -78t86 -29q50 0 88.5 29t60 78t21.5 107t-20 106.5z" />
    <glyph glyph-name="ydieresis" unicode="&#xff;" horiz-adv-x="492" 
d="M130 -198q-23 0 -40.5 4.5t-27 9.5t-11.5 7l17 50q0 -1 19.5 -7.5t36.5 -6.5q22 0 34.5 12t27.5 50l32 79l-201 514h68l164 -452l163 452h68l-243 -621q-34 -91 -107 -91zM205 613q-14 -14 -35 -14t-35 14t-14 33q0 20 14 34.5t35 14.5t35 -14.5t14 -33.5q0 -20 -14 -34z
M368.5 613q-13.5 -14 -34.5 -14t-35 14t-14 33q0 20 14 34.5t35 14.5q20 0 34 -14.5t14 -33.5q0 -20 -13.5 -34z" />
    <glyph glyph-name="dotlessi" unicode="&#x131;" horiz-adv-x="245" 
d="M90 514h65v-514h-65v514z" />
    <glyph glyph-name="Lslash" unicode="&#x141;" horiz-adv-x="480" 
d="M102 297l-68 -37v56l68 37v365h67v-328l136 73v-56l-136 -74v-275h300v-58h-367v297z" />
    <glyph glyph-name="lslash" unicode="&#x142;" horiz-adv-x="245" 
d="M155 0h-65v330l-73 -47v56l73 47v354h65v-313l73 48v-57l-73 -47v-371z" />
    <glyph glyph-name="OE" unicode="&#x152;" horiz-adv-x="1023" 
d="M571 45q-19 -18 -64 -36.5t-117 -18.5q-97 0 -173 48t-118.5 131.5t-42.5 188.5q0 106 42.5 190t118.5 132t173 48q73 0 118 -19t63 -37v46h389v-56h-322v-250h300v-56h-300v-298h334v-58h-401v45zM548.5 619.5q-22.5 17.5 -63 33t-95.5 15.5q-76 0 -136 -38.5
t-93.5 -108.5t-33.5 -162q0 -91 33.5 -161t93.5 -108.5t136 -38.5q55 0 95.5 15t63 32.5t22.5 20.5v480q0 3 -22.5 20.5z" />
    <glyph glyph-name="oe" unicode="&#x153;" horiz-adv-x="932" 
d="M561 102q45 -56 125 -56q48 0 84.5 13.5t58 29.5t21.5 18l31 -44q0 -3 -25.5 -22t-70.5 -35t-105 -16q-87 0 -133.5 41.5t-62.5 84.5q-21 -43 -66 -84.5t-135 -41.5q-70 0 -124 33t-84 93.5t-30 140.5t30 140.5t84 93.5t124 33q91 0 137.5 -42.5t64.5 -86.5q21 47 66 88
t129 41q64 0 112.5 -30.5t74.5 -85.5t26 -125v-34h-377q0 -91 45 -147zM790.5 421q-36.5 50 -112.5 50q-52 0 -87.5 -26t-53.5 -65.5t-21 -80.5h311q0 72 -36.5 122zM407 412q-45 58 -124 58q-80 0 -125 -58t-45 -154q0 -97 45 -155.5t125 -58.5q79 0 124 58t45 155t-45 155
z" />
    <glyph glyph-name="Scaron" unicode="&#x160;" horiz-adv-x="549" 
d="M474 89q-29 -46 -84 -72.5t-128 -26.5q-67 0 -116.5 24t-76.5 51.5t-36 42.5l46 42q22 -31 68 -67t117 -36q82 0 127.5 39t45.5 100q0 37 -17 61.5t-37.5 37.5t-49.5 26q-3 1 -92 38l-60 24q-40 17 -79 56.5t-39 112.5q0 57 29 99t79 65t113 23q56 0 100 -19t71 -42.5
t39 -41.5l-42 -44q-19 29 -64 59.5t-104 30.5q-70 0 -113 -33t-43 -91q0 -36 17 -60.5t37.5 -37.5t49.5 -26q3 -1 92 -38l60 -24q119 -57 119 -170q0 -57 -29 -103zM247 780l-90 142h51l75 -102l77 102h51l-90 -142h-74z" />
    <glyph glyph-name="scaron" unicode="&#x161;" horiz-adv-x="441" 
d="M379 63q-22 -34 -63.5 -53.5t-96.5 -19.5q-72 0 -121 32t-70 60l42 40q24 -29 63 -53.5t87 -24.5q56 0 87.5 23.5t31.5 64.5q0 36 -23 54.5t-58 31.5l-42 14q-15 6 -31.5 11.5t-31.5 11.5q-39 18 -69.5 46t-30.5 82q0 63 49.5 102.5t125.5 39.5q46 0 82.5 -14t58 -30
t26.5 -23l-33 -46q-21 23 -57.5 41.5t-78.5 18.5q-50 0 -81.5 -21t-31.5 -61q0 -26 13 -42t28 -24t44 -19q17 -7 38 -13q37 -12 58 -21q39 -15 73 -45.5t34 -85.5q0 -43 -22 -77zM191 576l-90 142h51l75 -102l77 102h51l-90 -142h-74z" />
    <glyph glyph-name="Ydieresis" unicode="&#x178;" horiz-adv-x="582" 
d="M325 0h-67v299l-247 419h76l207 -362l205 362h72l-246 -419v-299zM244 816q-14 -14 -35 -14t-35 14t-14 33q0 20 14 34.5t35 14.5t35 -14.5t14 -33.5q0 -20 -14 -34zM407.5 816q-13.5 -14 -34.5 -14t-35 14t-14 33q0 20 14 34.5t35 14.5q20 0 34 -14.5t14 -33.5
q0 -20 -13.5 -34z" />
    <glyph glyph-name="Zcaron" unicode="&#x17d;" horiz-adv-x="593" 
d="M40 52l423 610h-412v56h491v-51l-423 -609h435v-58h-514v52zM260 780l-90 142h51l75 -102l77 102h51l-90 -142h-74z" />
    <glyph glyph-name="zcaron" unicode="&#x17e;" horiz-adv-x="458" 
d="M28 45l314 418h-302v51h378v-42l-314 -418h325v-54h-401v45zM192 576l-90 142h51l75 -102l77 102h51l-90 -142h-74z" />
    <glyph glyph-name="florin" unicode="&#x192;" 
d="M511 680q-10 5 -27.5 9.5t-38.5 4.5q-45 0 -68.5 -29t-34.5 -88l-26 -148h136v-45h-144l-71 -407q-8 -41 -18 -70.5t-29 -53.5q-20 -25 -48.5 -38t-59.5 -13q-25 0 -46.5 8t-33.5 15l22 50q2 -1 9.5 -5t21.5 -8t32 -4q67 0 88 114l71 412h-110v45h118l25 143q10 56 27 90
t44 56q42 29 96 29q28 0 53 -6.5t41 -16.5l-17 -51q-2 2 -12 7z" />
    <glyph glyph-name="circumflex" unicode="&#x2c6;" horiz-adv-x="424" 
d="M212 678l-76 -102h-51l90 142h74l90 -142h-51z" />
    <glyph glyph-name="caron" unicode="&#x2c7;" horiz-adv-x="424" 
d="M175 576l-90 142h51l75 -102l77 102h51l-90 -142h-74z" />
    <glyph glyph-name="uni02C9" unicode="&#x2c9;" horiz-adv-x="424" 
d="M68 672h288v-51h-288v51z" />
    <glyph glyph-name="breve" unicode="&#x2d8;" horiz-adv-x="424" 
d="M307 610q-36 -34 -95 -34t-95 34t-49 96l39 12q13 -45 38 -68t66 -23t66.5 23t38.5 68l40 -12q-13 -62 -49 -96z" />
    <glyph glyph-name="dotaccent" unicode="&#x2d9;" horiz-adv-x="424" 
d="M252 607q-17 -17 -40 -17t-40 16.5t-17 39.5q0 24 16.5 41t39.5 17q24 0 41 -17t17 -40t-17 -40z" />
    <glyph glyph-name="ring" unicode="&#x2da;" horiz-adv-x="424" 
d="M273.5 584.5q-25.5 -25.5 -62.5 -25.5t-62.5 25t-25.5 62t25.5 62.5t62.5 25.5q38 0 63 -25t25 -62t-25.5 -62.5zM247.5 683q-14.5 15 -36.5 15q-21 0 -36 -14.5t-15 -36.5q0 -21 15 -36t36 -15q22 0 36.5 14.5t14.5 36.5q0 21 -14.5 36z" />
    <glyph glyph-name="ogonek" unicode="&#x2db;" horiz-adv-x="424" 
d="M405.5 -177q-14.5 -12 -36.5 -22t-50 -10q-48 0 -78 26.5t-30 75.5q0 30 14 53.5t31 39.5t17 14h46q-51 -45 -51 -96q0 -32 17 -47t45 -15q23 0 43 6.5t30 15.5l17 -28q0 -1 -14.5 -13z" />
    <glyph glyph-name="tilde" unicode="&#x2dc;" horiz-adv-x="424" 
d="M338.5 623q-25.5 -30 -59.5 -30q-25 0 -42 8t-28.5 16.5t-16.5 11.5q-16 12 -26.5 18t-21.5 6q-15 0 -28.5 -14.5t-17.5 -45.5l-39 6q0 42 25 72t60 30q25 0 43 -8.5t29 -17t15 -11.5q15 -12 26 -17.5t22 -5.5q15 0 28.5 14.5t16.5 45.5l40 -6q0 -42 -25.5 -72z" />
    <glyph glyph-name="hungarumlaut" unicode="&#x2dd;" horiz-adv-x="424" 
d="M110 576l73 142h79l-100 -142h-52zM251 576l73 142h81l-102 -142h-52z" />
    <glyph glyph-name="uni03A9" unicode="&#x3a9;" horiz-adv-x="785" 
d="M452 51q55 18 104.5 60t80.5 107.5t31 148.5q0 87 -34.5 157.5t-97 110.5t-143.5 40q-82 0 -144.5 -40t-96.5 -110.5t-34 -157.5q0 -83 31 -148.5t80.5 -107.5t103.5 -60v-51h-282v51h175q-27 15 -66 53.5t-71.5 107.5t-32.5 161q0 100 44 181t120.5 127.5t171.5 46.5
t172 -46.5t121 -127.5t44 -181q0 -92 -32.5 -161t-71.5 -107.5t-66 -53.5h175v-51h-282v51z" />
    <glyph glyph-name="uni03BC" unicode="&#x3bc;" 
d="M410 102q-20 -44 -62.5 -78t-93.5 -34q-32 0 -54 8.5t-33.5 18t-11.5 11.5v-220h-65v706h65v-316q0 -75 24 -112t81 -37q37 0 70.5 25.5t55 61.5t24.5 64v314h65v-514h-59z" />
    <glyph glyph-name="pi" unicode="&#x3c0;" 
d="M452 0h-57v463h-226v-463h-56v463h-85v51h509v-51h-85v-463z" />
    <glyph glyph-name="endash" unicode="&#x2013;" horiz-adv-x="548" 
d="M42 286h464v-52h-464v52z" />
    <glyph glyph-name="emdash" unicode="&#x2014;" horiz-adv-x="876" 
d="M45 286h786v-52h-786v52z" />
    <glyph glyph-name="quoteleft" unicode="&#x2018;" horiz-adv-x="283" 
d="M156.5 614.5q-20.5 -48.5 -20.5 -111.5l-68 17q0 60 36 121t82 93l34 -28q-43 -43 -63.5 -91.5z" />
    <glyph glyph-name="quoteright" unicode="&#x2019;" horiz-adv-x="283" 
d="M178.5 591q-36.5 -61 -82.5 -94l-34 28q43 43 64 92t21 112l68 -17q0 -60 -36.5 -121z" />
    <glyph glyph-name="quotesinglbase" unicode="&#x201a;" horiz-adv-x="283" 
d="M161.5 -31q-36.5 -61 -82.5 -93l-35 28q43 43 64 92t21 111l69 -17q0 -60 -36.5 -121z" />
    <glyph glyph-name="quotedblleft" unicode="&#x201c;" horiz-adv-x="452" 
d="M156.5 614.5q-20.5 -48.5 -20.5 -111.5l-68 17q0 60 36 121t82 93l34 -28q-43 -43 -63.5 -91.5zM326 614.5q-21 -48.5 -21 -111.5l-68 17q0 60 36.5 121t82.5 93l34 -28q-43 -43 -64 -91.5z" />
    <glyph glyph-name="quotedblright" unicode="&#x201d;" horiz-adv-x="452" 
d="M178.5 591q-36.5 -61 -82.5 -94l-34 28q43 43 64 92t21 112l68 -17q0 -60 -36.5 -121zM348 591q-36 -61 -82 -94l-34 28q43 44 63.5 92.5t20.5 111.5l68 -17q0 -60 -36 -121z" />
    <glyph glyph-name="quotedblbase" unicode="&#x201e;" horiz-adv-x="452" 
d="M161.5 -31q-36.5 -61 -82.5 -93l-35 28q43 43 64 92t21 111l69 -17q0 -60 -36.5 -121zM331 -30.5q-36 -61.5 -82 -93.5l-35 28q43 43 63.5 92t20.5 111l69 -17q0 -59 -36 -120.5z" />
    <glyph glyph-name="dagger" unicode="&#x2020;" 
d="M314 226l-17 -367h-34l-12 367l12 246l-212 -12v58l212 -13l-12 252h63l-12 -252l212 13v-57l-212 11z" />
    <glyph glyph-name="daggerdbl" unicode="&#x2021;" 
d="M314 -153h-63l12 252l-212 -12v58l212 -13l-9 170l9 170l-212 -12v58l212 -13l-12 252h63l-12 -252l212 13v-58l-212 12l9 -169l-9 -171l212 13v-57l-212 11z" />
    <glyph glyph-name="bullet" unicode="&#x2022;" 
d="M393 292.5q-17 -29.5 -46 -47t-63 -17.5q-54 0 -91.5 37.5t-37.5 90.5q0 34 17 63.5t46 47t63 17.5q54 0 91.5 -37.5t37.5 -90.5q0 -34 -17 -63.5z" />
    <glyph glyph-name="ellipsis" unicode="&#x2026;" horiz-adv-x="848" 
d="M177 9q-15 -15 -36 -15t-36 15t-15 36t15 36t36 15t36 -15t15 -36t-15 -36zM460 9q-15 -15 -36 -15q-22 0 -36.5 15t-14.5 36t14.5 36t36.5 15q21 0 36 -15t15 -36t-15 -36zM742 9q-15 -15 -36 -15t-36 15t-15 36t15 36t36 15t36 -15t15 -36t-15 -36z" />
    <glyph glyph-name="perthousand" unicode="&#x2030;" horiz-adv-x="1187" 
d="M192 6l410 745l42 -22l-410 -746zM330.5 404.5q-42.5 -54.5 -110.5 -54.5t-110 54.5t-42 143.5t42 143.5t110 54.5t110.5 -54.5t42.5 -143.5t-42.5 -143.5zM291 656q-25 42 -71 42q-45 0 -70.5 -42t-25.5 -108t25.5 -108t70.5 -42q46 0 71 42t25 108t-25 108zM726 43.5
q-42 -54.5 -110 -54.5t-110.5 54.5t-42.5 142.5q0 89 42.5 143.5t110.5 54.5t110 -54.5t42 -143.5q0 -88 -42 -142.5zM1076.5 43.5q-42.5 -54.5 -110.5 -54.5t-110 54.5t-42 142.5q0 89 42 143.5t110 54.5t110.5 -54.5t42.5 -143.5q0 -88 -42.5 -142.5zM686.5 294.5
q-25.5 42.5 -70.5 42.5t-70.5 -42.5t-25.5 -108.5q0 -65 25.5 -107.5t70.5 -42.5t70.5 42.5t25.5 107.5q0 66 -25.5 108.5zM1036.5 294.5q-25.5 42.5 -70.5 42.5t-70.5 -42.5t-25.5 -108.5q0 -65 25.5 -107.5t70.5 -42.5t70.5 42.5t25.5 107.5q0 66 -25.5 108.5z" />
    <glyph glyph-name="guilsinglleft" unicode="&#x2039;" horiz-adv-x="311" 
d="M56 254v40l153 190l41 -33l-143 -176l143 -177l-41 -34z" />
    <glyph glyph-name="guilsinglright" unicode="&#x203a;" horiz-adv-x="311" 
d="M61 97l142 176l-142 177l41 34l152 -190v-40l-152 -190z" />
    <glyph glyph-name="fraction" unicode="&#x2044;" horiz-adv-x="127" 
d="M-163 6l410 745l42 -22l-410 -746z" />
    <glyph glyph-name="Euro" unicode="&#x20ac;" 
d="M182 410l-1 -48l1 -48h259v-45h-255q13 -116 53.5 -170.5t116.5 -54.5q45 0 76.5 22t48.5 47t17 29l46 -30q0 -5 -22.5 -36.5t-65.5 -58.5t-106 -27q-102 0 -159 73.5t-70 205.5h-81v45h75l-1 46l1 50h-75v45h81q17 123 76 198.5t160 75.5q63 0 104 -25.5t61 -54
t20 -34.5l-45 -33q0 4 -16.5 28.5t-48 46t-76.5 21.5q-73 0 -115 -61t-55 -162h255v-45h-259z" />
    <glyph glyph-name="trademark" unicode="&#x2122;" horiz-adv-x="763" 
d="M198 345h-51v331h-107v42h265v-42h-107v-331zM653 672l-99 -327h-48l-99 327l-14 -327h-48l19 373h79l88 -306l87 306h79l21 -372l-51 -1z" />
    <glyph glyph-name="Omega" unicode="&#x2126;" horiz-adv-x="785" 
d="M452 51q55 18 104.5 60t80.5 107.5t31 148.5q0 87 -34.5 157.5t-97 110.5t-143.5 40q-82 0 -144.5 -40t-96.5 -110.5t-34 -157.5q0 -83 31 -148.5t80.5 -107.5t103.5 -60v-51h-282v51h175q-27 15 -66 53.5t-71.5 107.5t-32.5 161q0 100 44 181t120.5 127.5t171.5 46.5
t172 -46.5t121 -127.5t44 -181q0 -92 -32.5 -161t-71.5 -107.5t-66 -53.5h175v-51h-282v51z" />
    <glyph glyph-name="partialdiff" unicode="&#x2202;" 
d="M490 122q-30 -63 -83.5 -97.5t-123.5 -34.5q-69 0 -123.5 33.5t-84.5 90.5t-30 126q0 70 29 127.5t81.5 91t121.5 33.5q60 0 106 -28t69 -69q-15 61 -53.5 121.5t-80.5 98.5q-92 81 -216 103l11 45q49 -5 122 -35t132 -87q71 -68 112 -163t41 -212q0 -81 -30 -144z
M406.5 386q-45.5 56 -123.5 56q-79 0 -124.5 -56t-45.5 -143t45.5 -143t124.5 -56q78 0 123.5 56t45.5 143t-45.5 143z" />
    <glyph glyph-name="Delta" unicode="&#x2206;" 
d="M283 734l282 -734h-565zM73 51h419l-209 548z" />
    <glyph glyph-name="product" unicode="&#x220f;" 
d="M333 -141h79v830h-226v-830h80v-51h-221v51h85v830h-85v51h509v-51h-85v-830h85v-51h-221v51z" />
    <glyph glyph-name="summation" unicode="&#x2211;" 
d="M28 -147l271 430l-265 412v45h486v-243h-51v192h-371l269 -406l-274 -424h387v203h51v-254h-503v45z" />
    <glyph glyph-name="minus" unicode="&#x2212;" 
d="M56 359h452v-51h-452v51z" />
    <glyph glyph-name="uni2215" unicode="&#x2215;" horiz-adv-x="283" 
d="M-85 6l410 745l42 -22l-410 -746z" />
    <glyph glyph-name="uni2219" unicode="&#x2219;" horiz-adv-x="283" 
d="M177 280.5q-15 -14.5 -36 -14.5t-36 14.5t-15 35.5q0 22 15 36.5t36 14.5t36 -14.5t15 -36.5q0 -21 -15 -35.5z" />
    <glyph glyph-name="radical" unicode="&#x221a;" 
d="M287 0h-73l-90 308h-68v51h108l85 -303l169 662h130v-51h-90z" />
    <glyph glyph-name="infinity" unicode="&#x221e;" 
d="M505 245q-37 -35 -93 -35q-47 0 -77 25.5t-52 57.5q-26 -35 -54.5 -59t-75.5 -24q-56 0 -93 34.5t-37 88.5q0 55 37 90t93 35q47 0 76.5 -24.5t53.5 -58.5q23 33 52.5 58t76.5 25q56 0 93 -34.5t37 -89.5q0 -54 -37 -89zM153 408q-36 0 -58.5 -20t-22.5 -54
q0 -33 22.5 -53.5t58.5 -20.5q31 0 56.5 21t44.5 52q-45 75 -101 75zM470.5 387q-22.5 21 -58.5 21q-32 0 -57 -21t-44 -53q44 -74 101 -74q36 0 58.5 20t22.5 54q0 32 -22.5 53z" />
    <glyph glyph-name="integral" unicode="&#x222b;" 
d="M437 688q-7 3 -19.5 6t-27.5 3q-45 0 -65 -29q-8 -13 -11 -29t-3 -47v-644q0 -39 -8.5 -63t-24.5 -42q-35 -41 -93 -41q-39 0 -57 7.5t-21 8.5l12 51l9 -4.5t19.5 -6.5t27.5 -3q44 0 65 30q8 13 11 29t3 46v645q0 39 8.5 62.5t24.5 42.5q36 40 94 40q29 0 45 -4.5
t32 -11.5l-12 -50q-2 1 -9 4z" />
    <glyph glyph-name="approxequal" unicode="&#x2248;" 
d="M452 385.5q-37 -18.5 -79 -18.5q-21 0 -42.5 8t-50.5 23q-33 16 -53 23.5t-41 7.5q-28 0 -51.5 -11t-39.5 -24.5t-16 -14.5l-28 39q25 25 62 43.5t79 18.5q21 0 42.5 -8t50.5 -23q33 -16 53 -23.5t41 -7.5q28 0 51.5 11.5t39.5 25t16 14.5l28 -40q-25 -25 -62 -43.5z
M452 204.5q-37 -18.5 -79 -18.5q-20 0 -40 7.5t-53 23.5q-31 16 -52 24t-42 8q-28 0 -51.5 -11.5t-39.5 -25t-16 -14.5l-28 39q25 25 61.5 43.5t79.5 18.5q21 0 42.5 -8t50.5 -23q33 -16 53 -23.5t41 -7.5q28 0 51.5 11.5t39.5 25t16 14.5l28 -39q-25 -26 -62 -44.5z" />
    <glyph glyph-name="notequal" unicode="&#x2260;" 
d="M218 51h-52l52 163h-162v50h179l44 139h-223v51h240l51 163h52l-52 -163h161v-51h-178l-44 -139h222v-50h-239z" />
    <glyph glyph-name="lessequal" unicode="&#x2264;" 
d="M56 359l452 203v-59l-389 -169l389 -169v-59l-452 202v51zM56 51h452v-51h-452v51z" />
    <glyph glyph-name="greaterequal" unicode="&#x2265;" 
d="M56 165l390 168l-390 170v59l452 -203v-51l-452 -202v59zM56 51h452v-51h-452v51z" />
    <glyph glyph-name="lozenge" unicode="&#x25ca;" 
d="M40 362l243 372l242 -372l-242 -373zM98 362l185 -283l184 283l-184 282z" />
    <glyph glyph-name="uniFEFF" unicode="&#xfeff;" horiz-adv-x="0" 
 />
    <glyph glyph-name="NULL.002" horiz-adv-x="322" 
d="M122 1056h78v-1327h-78v1327z" />
    </font>
</defs>
</svg>
