<svg width="24" height="24" viewBox="0 0 24 24" fill="none" xmlns="http://www.w3.org/2000/svg">
<path fill-rule="evenodd" clip-rule="evenodd" d="M13.0004 13.5261L18.1337 17.726L16.8672 19.274L12.0004 15.2921L7.13366 19.274L5.86719 17.726L11.0004 13.5261V7H13.0004V13.5261Z" fill="#141B34"/>
<path d="M10.6969 1.92967C11.0022 1.57954 11.4145 1.25 12.0003 1.25C12.5861 1.25 12.9983 1.57954 13.3037 1.92967C13.5875 2.25517 13.8812 2.71882 14.212 3.24102L14.2424 3.28906L14.7553 4.09855L14.7873 4.14902L14.7873 4.14903C15.112 4.66143 15.4028 5.12037 15.5692 5.50521C15.7447 5.91123 15.881 6.46179 15.5414 6.98968C15.221 7.48752 14.6849 7.63222 14.2435 7.69135C13.8049 7.75008 13.2307 7.75004 12.5661 7.75H12.5661H11.4344H11.4344C10.7699 7.75004 10.1956 7.75008 9.75708 7.69135C9.3156 7.63222 8.77951 7.48752 8.45919 6.98968C8.11953 6.46179 8.25584 5.91123 8.43135 5.50521C8.5977 5.12037 8.88855 4.66143 9.21327 4.14902L9.21327 4.14902L9.24525 4.09855L9.75812 3.28906L9.78855 3.24102C10.1193 2.71882 10.413 2.25517 10.6969 1.92967Z" fill="#141B34"/>
<path d="M21.4245 17.8763L21.4513 17.9285L21.8992 18.7971L21.9246 18.8464C22.2145 19.4088 22.4697 19.9036 22.6112 20.3174C22.7616 20.7572 22.8459 21.2783 22.5655 21.7869C22.2794 22.306 21.7864 22.5009 21.3303 22.5876C20.9108 22.6674 20.3684 22.6835 19.7629 22.7015L19.7045 22.7033L18.7623 22.7314L18.7019 22.7332C18.107 22.751 17.5703 22.7671 17.1571 22.7124C16.7124 22.6535 16.1828 22.483 15.9017 21.9287C15.6381 21.4089 15.765 20.8788 15.9285 20.4583C16.0893 20.0446 16.3661 19.5425 16.6865 18.9613L16.6865 18.9613L16.7119 18.9153L17.2062 18.0185L17.2322 17.9714L17.2322 17.9714C17.552 17.391 17.8289 16.8886 18.0912 16.5349C18.3533 16.1816 18.7453 15.7733 19.3479 15.751C19.9784 15.7276 20.3828 16.1382 20.6392 16.4919C20.8876 16.8346 21.1401 17.3246 21.4245 17.8763L21.4245 17.8763Z" fill="#141B34"/>
<path d="M3.36102 16.4919C3.61741 16.1382 4.02178 15.7276 4.65228 15.751C5.25487 15.7733 5.64692 16.1816 5.90898 16.5349C6.17127 16.8886 6.44818 17.391 6.76805 17.9714L6.79398 18.0185L7.2883 18.9153L7.31367 18.9613C7.63411 19.5425 7.91091 20.0446 8.07175 20.4583C8.2352 20.8788 8.36207 21.4089 8.09853 21.9287C7.81746 22.483 7.28778 22.6535 6.84306 22.7124C6.42993 22.7671 5.89322 22.751 5.29834 22.7332L5.23789 22.7314L4.29573 22.7033L4.23735 22.7015C3.6318 22.6835 3.08946 22.6674 2.66994 22.5876C2.21377 22.5009 1.72081 22.306 1.4347 21.7869C1.15435 21.2783 1.2386 20.7572 1.38899 20.3174C1.53051 19.9036 1.78567 19.4088 2.07566 18.8464L2.10103 18.7971L2.54887 17.9285L2.57575 17.8763C2.86012 17.3246 3.11264 16.8346 3.36102 16.4919Z" fill="#141B34"/>
</svg>
