<svg width="24" height="24" viewBox="0 0 24 24" fill="none" xmlns="http://www.w3.org/2000/svg">
<path d="M18.0273 3L20.0321 3C20.3083 3 20.5321 3.22386 20.5321 3.5L20.5321 9.98164L21.9599 11.88C22.0136 11.9513 22.0132 12.0494 21.959 12.1203L20.5321 13.9863L20.5321 20.501C20.5321 20.7771 20.3083 21.001 20.0321 21.001H18.0273" stroke="#141B34" stroke-width="1.5"/>
<path d="M5.97258 3H3.9678C3.69165 3 3.4678 3.22386 3.4678 3.5L3.4678 9.98164L2.03998 11.88C1.98632 11.9513 1.98671 12.0494 2.04094 12.1203L3.4678 13.9863L3.4678 20.501C3.4678 20.7771 3.69165 21.001 3.9678 21.001H5.97258" stroke="#141B34" stroke-width="1.5"/>
</svg>
