<svg width="24" height="24" viewBox="0 0 24 24" fill="none" xmlns="http://www.w3.org/2000/svg">
<path opacity="0.4" d="M17.725 2.5C19.1145 2.65381 20.0498 3.00143 20.7479 3.78705C22 5.19617 22 7.46411 22 12C22 16.5359 22 18.8038 20.7479 20.213C20.0498 20.9986 19.1145 21.3462 17.725 21.5M6.27501 21.5C4.88551 21.3462 3.95021 20.9986 3.25212 20.213C2 18.8038 2 16.5359 2 12C2 7.46411 2 5.19617 3.25212 3.78705C3.95021 3.00143 4.88551 2.65381 6.27501 2.5" stroke="#141B34" stroke-width="1.5" stroke-linecap="round" stroke-linejoin="round"/>
<path d="M16.9949 7.9981C14.7949 7.98381 12.9949 10.6981 11.9949 11.9981C10.8949 13.4981 9.00488 16.0981 7.00488 15.9981" stroke="#141B34" stroke-width="1.5" stroke-linecap="round"/>
<path d="M7.5752 7.99854C9.1052 7.93854 10.0651 8.02855 10.6651 9.07854C11.2951 10.3386 12.8551 13.8486 13.2451 14.6586C13.6651 15.5286 14.2051 16.1286 16.4251 15.9786" stroke="#141B34" stroke-width="1.5" stroke-linecap="round"/>
</svg>
