<svg width="24" height="24" viewBox="0 0 24 24" fill="none" xmlns="http://www.w3.org/2000/svg">
<path d="M2 6.99693H5.90636L6.80039 5.99851C7.53394 5.08552 8.61897 4.76672 9.60313 5.17502L11.4957 5.99851M2 15.95H5.9982L7.97702 17.2239C9.86433 18.4389 10.808 19.0465 11.8363 18.9725C11.8848 18.969 11.9331 18.9643 11.9814 18.9586C13.0046 18.8364 13.8066 18.062 15.4106 16.5131L16.9933 14.9846" stroke="#141B34" stroke-width="1.5" stroke-linejoin="round"/>
<path d="M21.9814 7.22558H19.0062C17.8582 6.53293 16.5448 4.74389 14.0454 5.01021C13.4889 5.0695 12.4062 5.15622 11.269 6.28451L9.47178 8.16414C9.11797 8.58707 8.62265 9.67278 9.47178 10.6322C10.3209 11.5916 11.4494 10.8813 11.9075 10.4062L13.0384 9.48507L18.446 15.9408C18.4649 15.9635 18.493 15.9766 18.5226 15.9766H22.004" stroke="#141B34" stroke-width="1.5"/>
</svg>
