<svg width="24" height="24" viewBox="0 0 24 24" fill="none" xmlns="http://www.w3.org/2000/svg">
<path fill-rule="evenodd" clip-rule="evenodd" d="M16.4704 14.0097C16.643 14.5688 16.5605 15.1908 16.3658 15.7997C15.9247 17.1794 15.2238 18.3452 14.4444 19.2999C14.5319 19.2846 14.6207 19.2651 14.7107 19.2416C15.3693 19.0693 16.0372 18.6908 16.6076 18.2519C16.6178 18.2441 16.6279 18.2363 16.6382 18.2284C16.8052 18.0998 16.9875 17.9594 17.1443 17.8626C17.2291 17.8102 17.3631 17.7341 17.527 17.685C17.6992 17.6335 17.9808 17.59 18.2897 17.7139C18.5991 17.8381 18.7682 18.0651 18.847 18.1924C18.9292 18.325 18.9813 18.4602 19.0145 18.5561C19.0773 18.7373 19.1374 18.9744 19.1972 19.2108C19.2003 19.2227 19.2033 19.2347 19.2063 19.2466C19.2955 19.5987 19.4231 19.9105 19.566 20.1456C19.7154 20.3914 19.8401 20.487 19.8919 20.5132C19.8934 20.5139 19.8938 20.515 19.8941 20.516C19.8954 20.5193 19.8962 20.5214 19.9353 20.503C20.0343 20.4561 20.263 20.2924 20.5764 19.8132L22.2503 20.9078C21.8344 21.5438 21.3558 22.0436 20.7904 22.311C20.1764 22.6013 19.5415 22.5768 18.9903 22.2984C18.4847 22.0431 18.116 21.6106 17.8569 21.1843C17.6645 20.8678 17.5088 20.516 17.3889 20.1541C16.7633 20.5787 16.0196 20.9665 15.2168 21.1765C14.4069 21.3883 13.5049 21.4249 12.6206 21.1041C12.0604 21.5535 11.5182 21.9084 11.0485 22.1689C10.7437 22.338 10.4591 22.4731 10.2108 22.569C10.0018 22.6497 9.70227 22.75 9.41333 22.75V20.75C9.36636 20.75 9.33995 20.7546 9.33984 20.754C9.33971 20.7533 9.38545 20.7438 9.49029 20.7033C9.63526 20.6473 9.83573 20.5546 10.0784 20.42C10.322 20.2849 10.5977 20.1133 10.8907 19.9054C10.7981 19.8022 10.7078 19.6933 10.62 19.5789C9.70152 18.382 9.70578 17.0752 10.1838 15.976C10.638 14.9316 11.5074 14.0758 12.376 13.5224C12.8173 13.2414 13.2906 13.0172 13.7561 12.8843C14.2057 12.7561 14.7339 12.6887 15.2374 12.8251C15.8 12.9776 16.2748 13.3765 16.4704 14.0097ZM12.402 18.5947C12.337 18.5238 12.2718 18.4462 12.2067 18.3613C11.7918 17.8207 11.7875 17.3032 12.0179 16.7736C12.272 16.1891 12.8192 15.6115 13.4506 15.2092C13.7594 15.0125 14.0569 14.8783 14.3049 14.8076C14.4059 14.7788 14.4911 14.7626 14.5598 14.7552C14.5504 14.8496 14.5246 14.9911 14.4608 15.1906C14.0195 16.571 13.2446 17.7075 12.402 18.5947Z" fill="#141B34"/>
<path d="M20.25 2.22727C20.25 1.68754 19.8141 1.25 19.2763 1.25H9.13616L1.75 8.66338V21.7727C1.75 22.3125 2.18593 22.75 2.72368 22.75H7.51306V20.7955H3.69727V10.0455H10.5131L10.5131 3.20459H18.3025V12H20.25V2.22727Z" fill="#141B34"/>
</svg>
