<svg width="24" height="24" viewBox="0 0 24 24" fill="none" xmlns="http://www.w3.org/2000/svg">
<path fill-rule="evenodd" clip-rule="evenodd" d="M12 21.5768C11.4038 22.2936 10.5052 22.75 9.5 22.75C7.94152 22.75 6.63925 21.653 6.3232 20.1891C4.57518 19.8705 3.25 18.34 3.25 16.5C3.25 16.1174 3.30751 15.7476 3.41442 15.399C2.13588 14.8017 1.25 13.5048 1.25 12C1.25 10.4952 2.13588 9.19833 3.41442 8.60095C3.30751 8.25245 3.25 7.88261 3.25 7.5C3.25 5.66001 4.57518 4.12953 6.3232 3.81091C6.63925 2.34698 7.94152 1.25 9.5 1.25C10.5052 1.25 11.4039 1.70637 12 2.42322C12.5962 1.70637 13.4948 1.25 14.5 1.25C16.0585 1.25 17.3608 2.34697 17.6768 3.81091C19.4248 4.12953 20.75 5.66001 20.75 7.5C20.75 7.88261 20.6925 8.25245 20.5856 8.60095C21.8641 9.19833 22.75 10.4952 22.75 12C22.75 13.5048 21.8641 14.8017 20.5856 15.399C20.6925 15.7475 20.75 16.1174 20.75 16.5C20.75 18.34 19.4248 19.8705 17.6768 20.1891C17.3608 21.653 16.0585 22.75 14.5 22.75C13.4948 22.75 12.5962 22.2936 12 21.5768ZM11.25 8.25H12.75V6.5H14.25V8.25H15.75V9.75H17.5V11.25H15.75V12.75H17.5V14.25H15.75V15.75H14.25V17.5H12.75V15.75H11.25V17.5H9.75V15.75H8.25V14.25H6.5V12.75H8.25V11.25H6.5V9.75H8.25V8.25H9.75V6.5H11.25V8.25Z" fill="#141B34"/>
</svg>
