<svg width="24" height="24" viewBox="0 0 24 24" fill="none" xmlns="http://www.w3.org/2000/svg">
<path d="M7.5 4.5C5.84315 4.5 4.5 5.84315 4.5 7.5C4.5 8.06866 4.65822 8.60037 4.93304 9.0535C3.54727 9.31855 2.5 10.537 2.5 12C2.5 13.463 3.54727 14.6814 4.93304 14.9465M7.5 4.5C7.5 3.11929 8.61929 2 10 2C11.3807 2 12.5 3.11929 12.5 4.5V6M7.5 4.5C7.5 5.31791 7.89278 6.04408 8.5 6.50018M4.93304 14.9465C4.65822 15.3996 4.5 15.9313 4.5 16.5C4.5 18.1569 5.84315 19.5 7.5 19.5C7.5 20.8807 8.61929 22 10 22C11.3807 22 12.5 20.8807 12.5 19.5V18M4.93304 14.9465C5.28948 14.3588 5.84207 13.9032 6.5 13.6707" stroke="#141B34" stroke-width="1.5"/>
<path d="M19.5 9H13.5V15H19.5V9Z" stroke="#141B34" stroke-width="1.5" stroke-linecap="round"/>
<path d="M15 15V17M18 15V17M15 7V9M18 7V9M13.5 10.5H11.5M13.5 13.5H11.5M21.5 10.5H19.5M21.5 13.5H19.5" stroke="#141B34" stroke-width="1.5" stroke-linejoin="round"/>
</svg>
