<svg width="24" height="24" viewBox="0 0 24 24" fill="none" xmlns="http://www.w3.org/2000/svg">
<path d="M17.4776 8.00103C17.485 8.001 17.4925 8.00098 17.5 8.00098C19.9853 8.00098 22 10.0157 22 12.501C22 14.0612 21.206 15.436 20 16.2432M17.4776 8.00103C17.4924 7.83634 17.5 7.66954 17.5 7.50098C17.5 4.46341 15.0376 2.00098 12 2.00098C9.12324 2.00098 6.76233 4.2096 6.52042 7.02368M17.4776 8.00103C17.4131 8.71592 17.2119 9.39136 16.9003 10.001M6.52042 7.02368C3.98398 7.26505 2 9.40132 2 12.001C2 13.7901 2.93963 15.3597 4.35232 16.2432M6.52042 7.02368C6.67826 7.00866 6.83823 7.00098 7 7.00098C8.12582 7.00098 9.16474 7.37307 10.0005 8.00098" stroke="#141B34" stroke-width="1.5" stroke-linecap="round" stroke-linejoin="round"/>
<path opacity="0.4" d="M10.4521 12.001V13.98M6.97168 15.5014H9.01981M14.9797 15.5014H17.0278M14.9797 18.4746H17.0278M6.97168 18.4746H9.01981M10.4521 20.0202V21.9992M13.4719 20.0202V21.9992M13.4612 12.001V13.98M10.0179 19.9685H13.9816C14.5328 19.9685 14.9797 19.5208 14.9797 18.9685V14.98C14.9797 14.4277 14.5328 13.98 13.9816 13.98H10.0179C9.46668 13.98 9.01981 14.4277 9.01981 14.98V18.9685C9.01981 19.5208 9.46668 19.9685 10.0179 19.9685Z" stroke="#141B34" stroke-width="1.5" stroke-linecap="round"/>
</svg>
