<svg width="24" height="24" viewBox="0 0 24 24" fill="none" xmlns="http://www.w3.org/2000/svg">
<path d="M14 4.25007V2.50007H15.5V4.25007H17V2.50007H18.5V4.25007H20V5.75007H21.75V7.25007H20V8.75007H21.75V10.2501H20V11.7501H18.5V13.5001H17V11.7501H15.5V13.5001H14V11.7501H12.5V10.2501H10.75V8.75007H12.5V7.25007H10.75V5.75007H12.5V4.25007H14Z" fill="#141B34"/>
<path fill-rule="evenodd" clip-rule="evenodd" d="M11 3.194C7.23203 3.194 4.19444 6.21394 4.19444 9.91841C4.19444 11.1856 4.54828 12.3687 5.16379 13.3795L3.50288 14.3902C2.70768 13.0843 2.25 11.5531 2.25 9.91841C2.25 5.12178 6.17688 1.25021 11 1.25021V3.194Z" fill="#141B34"/>
<path d="M6 15.2501H16C16.2411 15.2501 16.4675 15.3403 16.6084 15.4924C16.7494 15.6445 16.7878 15.8401 16.7115 16.0179L15.7115 18.3513C15.6094 18.5895 15.3228 18.7501 15 18.7501L7 18.7501C6.67718 18.7501 6.39057 18.5895 6.28849 18.3513L5.28849 16.0179C5.21225 15.8401 5.25061 15.6445 5.39157 15.4924C5.53253 15.3403 5.75892 15.2501 6 15.2501Z" fill="#141B34"/>
<path d="M7.54277 20.0001L8.28849 22.2373C8.39058 22.5436 8.67718 22.7501 9.00001 22.7501H13C13.3228 22.7501 13.6094 22.5436 13.7115 22.2373L14.4572 20.0001H7.54277Z" fill="#141B34"/>
</svg>
