<svg width="24" height="24" viewBox="0 0 24 24" fill="none" xmlns="http://www.w3.org/2000/svg">
<path d="M5.62441 6.58405C5.85417 6.9287 5.76104 7.39435 5.4164 7.62412L4.1976 8.43665C3.74928 8.73553 3.45596 8.93199 3.24145 9.10594C3.03912 9.27003 2.9511 9.38007 2.8961 9.48327C2.87412 9.52449 2.85422 9.57047 2.83673 9.62723L9.2993 13.5048C10.0642 13.9637 10.5908 14.2786 11.0284 14.4844C11.4506 14.6829 11.7339 14.7515 12.0004 14.7515C12.2669 14.7515 12.5502 14.6829 12.9724 14.4844C13.41 14.2786 13.9366 13.9637 14.7015 13.5048L21.164 9.62726C21.1465 9.57049 21.1266 9.5245 21.1046 9.48327C21.0496 9.38007 20.9616 9.27003 20.7593 9.10594C20.5448 8.93198 20.2515 8.73553 19.8031 8.43665L18.5843 7.62412C18.2397 7.39435 18.1466 6.9287 18.3763 6.58405C18.6061 6.23941 19.0718 6.14628 19.4164 6.37604L20.6625 7.20679C21.0761 7.48249 21.4286 7.71749 21.7041 7.9409C21.9978 8.17909 22.2466 8.43675 22.4283 8.7777C22.6289 9.15396 22.6999 9.54114 22.7286 9.96088C22.7509 10.286 22.7496 10.6716 22.7481 11.1187L22.748 11.1432C22.7438 12.4028 22.732 13.6895 22.6995 14.9929L22.6981 15.0514C22.661 16.539 22.631 17.7391 22.4607 18.7047C22.282 19.7181 21.9387 20.5427 21.2346 21.2468C20.529 21.9524 19.6977 22.2951 18.6757 22.4737C17.7003 22.644 16.4852 22.6744 14.9766 22.7121L14.9184 22.7135C12.9673 22.7623 11.0335 22.7623 9.08238 22.7135L9.02417 22.7121C7.51556 22.6744 6.30049 22.6441 5.32512 22.4737C4.30305 22.2951 3.47177 21.9524 2.7662 21.2469C2.0621 20.5427 1.71878 19.7181 1.54005 18.7047C1.36975 17.7391 1.33982 16.539 1.30271 15.0514L1.30125 14.9929C1.26871 13.6895 1.257 12.4028 1.25276 11.1432L1.25268 11.1188C1.25117 10.6716 1.24987 10.286 1.27213 9.96084C1.30086 9.54112 1.37185 9.15395 1.5724 8.77771C1.75414 8.43675 2.00292 8.17909 2.29664 7.9409C2.57213 7.71748 2.92463 7.4825 3.33822 7.20679L4.58435 6.37604C4.92899 6.14628 5.39465 6.23941 5.62441 6.58405Z" fill="#141B34"/>
<path d="M15.052 1.25C15.9505 1.24997 16.6997 1.24995 17.2945 1.32991C17.9223 1.41432 18.4891 1.59999 18.9445 2.05546C19.4 2.51093 19.5857 3.07773 19.6701 3.70552C19.7501 4.3003 19.75 5.04951 19.75 5.94798V5.94801L19.75 12C19.75 12.4142 19.4142 12.75 19 12.75C18.5858 12.75 18.25 12.4142 18.25 12V6C18.25 5.03599 18.2484 4.38843 18.1835 3.90539C18.1214 3.44393 18.0142 3.24644 17.8839 3.11612C17.7536 2.9858 17.5561 2.87858 17.0946 2.81654C16.6116 2.7516 15.964 2.75 15 2.75H9C8.03599 2.75 7.38843 2.7516 6.90539 2.81654C6.44393 2.87858 6.24644 2.9858 6.11612 3.11612C5.9858 3.24644 5.87858 3.44393 5.81654 3.90539C5.7516 4.38843 5.75 5.03599 5.75 6V12C5.75 12.4142 5.41422 12.75 5 12.75C4.58579 12.75 4.25 12.4142 4.25 12L4.25 5.948V5.94797C4.24997 5.0495 4.24995 4.3003 4.32991 3.70552C4.41432 3.07773 4.59999 2.51093 5.05546 2.05546C5.51093 1.59999 6.07773 1.41432 6.70552 1.32991C7.3003 1.24995 8.04951 1.24997 8.94797 1.25H8.948H15.052H15.052Z" fill="#141B34"/>
<path fill-rule="evenodd" clip-rule="evenodd" d="M8.90396 5.14752C9.09807 4.59291 9.62693 4.25 10.1877 4.25C10.7485 4.25 11.2773 4.59291 11.4714 5.14752L10.7736 5.39176L11.4714 5.14752L13.0831 9.75224C13.2199 10.1432 13.0139 10.5711 12.623 10.7079C12.232 10.8447 11.8041 10.6387 11.6673 10.2478L11.2598 9.08333H9.11565L8.7081 10.2478C8.57126 10.6387 8.1434 10.8447 7.75244 10.7079C7.36148 10.5711 7.15548 10.1432 7.29231 9.75224L8.90396 5.14752ZM9.64065 7.58333H10.7348L10.1877 6.02032L9.64065 7.58333ZM15.0002 4.25C15.4144 4.25 15.7502 4.58579 15.7502 5V10C15.7502 10.4142 15.4144 10.75 15.0002 10.75C14.586 10.75 14.2502 10.4142 14.2502 10V5C14.2502 4.58579 14.586 4.25 15.0002 4.25Z" fill="#141B34"/>
</svg>
