<svg width="24" height="24" viewBox="0 0 24 24" fill="none" xmlns="http://www.w3.org/2000/svg">
<path fill-rule="evenodd" clip-rule="evenodd" d="M12 1.25C10.1398 1.25 8.68541 2.08773 7.41811 2.81769C6.09468 3.57975 4.90769 4.24733 3.4847 4.24733H2.88309L2.75241 4.83389C0.799699 13.5983 4.68782 21.0956 11.8342 22.7125L12 22.75L12.1657 22.7125C19.3121 21.0956 23.2003 13.5983 21.2476 4.83389L21.1169 4.24733H20.5153C19.0945 4.24733 17.9162 3.58301 16.5935 2.82069C15.3252 2.08955 13.8689 1.25 12 1.25ZM10.8712 7.75013H9.26601L6.5293 14.934L7.93103 15.468L8.69974 13.4501H11.4374L12.2061 15.468L13.6079 14.934L10.8712 7.75013ZM10.866 11.9501H9.27117L10.0686 9.8569L10.866 11.9501ZM16.2472 15.2501V7.75013H14.7472V15.2501H16.2472Z" fill="#141B34"/>
</svg>
