<svg width="24" height="24" viewBox="0 0 24 24" fill="none" xmlns="http://www.w3.org/2000/svg">
<path fill-rule="evenodd" clip-rule="evenodd" d="M11.9967 2C11.2889 2 10.6669 2.15239 10.0713 2.49701C9.50493 2.8247 9.00954 3.30003 8.50781 3.85802C8.48369 3.88484 8.46105 3.91294 8.43997 3.94221C5.45449 8.08728 3.95566 11.2082 2.83629 13.7988C2.24593 15.165 1.92299 16.5667 2.01569 17.8404C2.11014 19.1383 2.64532 20.3361 3.77939 21.1234C4.8894 21.8941 6.58393 22.1487 8.19351 21.9177C9.50351 21.7297 10.8866 21.2031 12 20.2236C13.1134 21.2031 14.4965 21.7297 15.8064 21.9177C17.416 22.1487 19.1106 21.8941 20.2206 21.1234C21.3546 20.3361 21.8898 19.1383 21.9843 17.8404C22.077 16.5667 21.754 15.165 21.1637 13.7988C20.0443 11.2082 18.5455 8.08728 15.56 3.94221C15.5389 3.91294 15.5163 3.88484 15.4922 3.85802C14.9904 3.30003 14.495 2.8247 13.9287 2.49701C13.333 2.15239 12.7045 2 11.9967 2ZM11.0729 4.22814C11.3348 4.0766 11.6117 4 12.0033 4C12.3949 4 12.6651 4.0766 12.927 4.22814C13.2106 4.39221 13.5286 4.66962 13.9692 5.15563C16.8266 9.13033 18.2522 12.1031 19.3277 14.5921C19.8368 15.7702 20.0516 16.8418 19.9895 17.6952C19.9292 18.5245 19.6169 19.1078 19.08 19.4805C18.519 19.87 17.3884 20.1242 16.0905 19.938C15.0872 19.794 14.1042 19.4022 13.3396 18.7376L13.4076 18.6578C13.9765 17.9899 14.5296 17.3406 14.9529 16.7058C15.57 15.7802 16 14.7706 16 13.5C16 11.0083 14.147 9 12.0033 9C9.86212 9 7.99996 11.0054 7.99996 13.5C7.99996 14.7706 8.4299 15.7802 9.04705 16.7058C9.47033 17.3406 10.0234 17.9899 10.5924 18.6578L10.6604 18.7376C9.89571 19.4022 8.91271 19.794 7.90938 19.938C6.61156 20.1242 5.48093 19.87 4.91993 19.4805C4.38298 19.1078 4.07074 18.5245 4.01039 17.6952C3.94828 16.8418 4.16315 15.7702 4.67221 14.5921C5.74769 12.1031 7.17331 9.13033 10.0308 5.15564C10.4713 4.66962 10.7893 4.39221 11.0729 4.22814ZM13.2889 15.5963C12.9427 16.1154 12.517 16.6175 12 17.2245C11.4829 16.6175 11.0572 16.1154 10.7111 15.5963C10.2422 14.893 9.99996 14.2649 9.99996 13.5C9.99996 11.9235 11.1444 11 12.0033 11C12.8595 11 14 11.9206 14 13.5C14 14.2649 13.7578 14.893 13.2889 15.5963Z" fill="#141B34"/>
</svg>
