<svg width="24" height="24" viewBox="0 0 24 24" fill="none" xmlns="http://www.w3.org/2000/svg">
<path fill-rule="evenodd" clip-rule="evenodd" d="M2.29289 2.29289C2.68342 1.90237 3.31658 1.90237 3.70711 2.29289L21.7071 20.2929C22.0976 20.6834 22.0976 21.3166 21.7071 21.7071C21.3166 22.0976 20.6834 22.0976 20.2929 21.7071L2.29289 3.70711C1.90237 3.31658 1.90237 2.68342 2.29289 2.29289Z" fill="#141B34"/>
<path d="M3.78523 11.9122L7.38354 9.7388C7.98737 9.37467 8.2893 9.19259 8.49771 8.94287C8.60087 8.81927 8.79246 8.79247 8.9063 8.90631L14.308 14.308C14.3728 14.3728 14.4044 14.4635 14.3939 14.5545L14.1787 16.4235C14.0759 17.3157 14.0246 17.7617 14.1731 18.1703C14.521 19.1273 15.7023 19.911 16.4237 20.6071C16.8224 20.9918 17.2575 22.0979 16.8029 22.6009C16.5222 22.9115 16.0663 22.6594 15.7525 22.5383L12.7314 21.3723C12.3702 21.2329 12.1895 21.1632 11.9999 21.1632C11.8102 21.1632 11.6296 21.2329 11.2683 21.3723L8.24723 22.5383C7.93344 22.6594 7.47752 22.9115 7.19683 22.6009C6.7422 22.0979 7.17734 20.9918 7.57603 20.6071C8.29746 19.911 9.47869 19.1273 9.8266 18.1703C9.97515 17.7617 9.92378 17.3156 9.82105 16.4235L9.57597 14.2954C9.55554 14.118 9.38565 13.9976 9.21152 14.0371L3.22781 15.3956C2.57394 15.544 2.2498 15.3491 2.25 14.622C2.25037 13.2869 2.6841 12.5773 3.78523 11.9122Z" fill="#141B34"/>
<path d="M20.2148 11.9121L16.6162 9.7388C16.0124 9.37467 15.7104 9.19259 15.502 8.94287C14.6 7.86213 15.3943 6.26589 15.2598 5.00912C15.1206 3.70822 13.8704 1.92895 12.6102 1.37733C12.2223 1.20756 11.7774 1.20756 11.3895 1.37733C10.1293 1.92895 8.8791 3.70822 8.73988 5.00912C8.73807 5.02603 8.73643 5.043 8.73495 5.06003C8.7277 5.14348 8.76038 5.22485 8.81961 5.28408L18.3292 14.7937C18.3692 14.8337 18.4198 14.8616 18.4749 14.8741L20.7723 15.3957C21.4259 15.5441 21.75 15.3492 21.75 14.6224C21.75 13.2871 21.3162 12.5772 20.2148 11.9121Z" fill="#141B34"/>
</svg>
