<svg width="24" height="24" viewBox="0 0 24 24" fill="none" xmlns="http://www.w3.org/2000/svg">
<path fill-rule="evenodd" clip-rule="evenodd" d="M2.29289 2.29289C2.68342 1.90237 3.31658 1.90237 3.70711 2.29289L21.7071 20.2929C22.0976 20.6834 22.0976 21.3166 21.7071 21.7071C21.3166 22.0976 20.6834 22.0976 20.2929 21.7071L2.29289 3.70711C1.90237 3.31658 1.90237 2.68342 2.29289 2.29289Z" fill="#141B34"/>
<path d="M3.78523 11.9102L7.38354 9.73686C7.98737 9.37272 8.2893 9.19065 8.49771 8.94093C8.60087 8.81732 8.79246 8.79052 8.9063 8.90436L14.308 14.3061C14.3728 14.3708 14.4044 14.4616 14.3939 14.5525L14.1787 16.4216C14.0759 17.3137 14.0246 17.7598 14.1731 18.1684C14.521 19.1253 15.7023 19.9091 16.4237 20.6051C16.8224 20.9898 17.2575 22.096 16.8029 22.599C16.5222 22.9096 16.0663 22.6574 15.7525 22.5363L12.7314 21.3704C12.3702 21.2309 12.1895 21.1612 11.9999 21.1612C11.8102 21.1612 11.6296 21.2309 11.2683 21.3704L8.24723 22.5363C7.93344 22.6574 7.47752 22.9096 7.19683 22.599C6.7422 22.096 7.17734 20.9898 7.57603 20.6051C8.29746 19.9091 9.47869 19.1253 9.8266 18.1684C9.97515 17.7598 9.92378 17.3137 9.82105 16.4216L9.57597 14.2934C9.55554 14.116 9.38565 13.9957 9.21152 14.0352L3.22781 15.3936C2.57394 15.5421 2.2498 15.3472 2.25 14.6201C2.25037 13.2849 2.6841 12.5753 3.78523 11.9102Z" fill="#141B34"/>
<path opacity="0.4" d="M20.2152 11.9121L16.6166 9.7388C16.0128 9.37467 15.7108 9.19259 15.5024 8.94287C14.6005 7.86213 15.3948 6.26589 15.2603 5.00912C15.121 3.70822 13.8708 1.92895 12.6106 1.37733C12.2227 1.20756 11.7778 1.20756 11.39 1.37733C10.1297 1.92895 8.87952 3.70822 8.7403 5.00912C8.73849 5.02603 8.73685 5.043 8.73537 5.06003C8.72812 5.14348 8.7608 5.22485 8.82003 5.28408L18.3296 14.7937C18.3697 14.8337 18.4202 14.8616 18.4754 14.8741L20.7728 15.3957C21.4263 15.5441 21.7504 15.3492 21.7504 14.6224C21.7504 13.2871 21.3166 12.5772 20.2152 11.9121Z" fill="#141B34"/>
</svg>
