<svg width="24" height="24" viewBox="0 0 24 24" fill="none" xmlns="http://www.w3.org/2000/svg">
<path opacity="0.4" d="M22.2257 6.33097C20.256 3.64319 16.6024 2.74953 13.608 4.1694C12.3446 4.76845 11.0848 5.37984 9.82744 5.99004C9.20329 6.29294 8.5797 6.59558 7.95663 6.89624C7.39875 7.16544 7.15473 7.21017 6.98787 7.17928C6.82519 7.14917 6.61644 7.02423 6.20434 6.56585C5.99745 6.33574 5.81802 6.08267 5.60658 5.85627C5.37302 5.6062 5.04222 5.31182 4.60638 5.22234C4.40557 5.18111 4.21719 5.19432 4.03041 5.22765C3.53114 5.31672 2.98821 5.44586 2.51619 5.63369C1.81185 5.91397 1.41488 6.51391 1.52366 7.26779C1.56071 7.52455 1.64244 7.83119 1.73666 8.18472L2.04037 9.32451C2.26832 10.18 2.45267 10.8719 2.67239 11.3965C2.90114 11.9426 3.19539 12.377 3.68369 12.6527C4.17037 12.9275 4.69776 12.9589 5.29103 12.8801C5.86337 12.8041 6.56644 12.6147 7.43928 12.3795L9.87601 11.7229C9.94821 11.7035 10.0154 11.7672 9.99983 11.8403L9.68543 13.3131C9.52847 14.0483 10.2112 14.6542 10.9137 14.4649L13.1749 13.8557C13.8076 13.6852 14.3502 13.2746 14.6823 12.7118C14.6878 12.7024 14.693 12.6929 14.6979 12.6832L15.9252 10.2552C15.9859 10.1351 16.094 10.0475 16.2216 10.0131L21.3809 8.62297C22.3214 8.36766 22.8646 7.21732 22.228 6.33414L22.2257 6.33097Z" fill="#141B34"/>
<path fill-rule="evenodd" clip-rule="evenodd" d="M1 20C1 19.4477 1.44772 19 2 19H18C18.5523 19 19 19.4477 19 20C19 20.5523 18.5523 21 18 21H2C1.44772 21 1 20.5523 1 20Z" fill="#141B34"/>
</svg>
