<svg width="24" height="24" viewBox="0 0 24 24" fill="none" xmlns="http://www.w3.org/2000/svg">
<path d="M13.9674 17.75H16.3235L15 20.25H18C18.5523 20.25 19 20.6977 19 21.25C19 21.8023 18.5523 22.25 18 22.25H8C7.44772 22.25 7 21.8023 7 21.25C7 20.6977 7.44772 20.25 8 20.25H12.5L13.9674 17.75Z" fill="#141B34"/>
<path d="M12.5001 10.25H18.0001" stroke="#141B34" stroke-width="2" stroke-linecap="round" stroke-linejoin="round"/>
<path opacity="0.4" d="M8.48169 17.75H17.9722C19.0921 17.75 20 16.8577 20 15.7571C20 14.25 17.9722 13.7641 17.9722 13.7641C17.9722 13.7641 14.2844 12.3464 10 13.75C10 13.75 9.86099 8.62274 7.70985 2.92067C7.28543 1.79566 5.90119 1.41155 4.88539 2.0771C4.21507 2.5163 3.8807 3.30966 4.0387 4.08605L6.49327 16.1479C6.68283 17.0795 7.51507 17.75 8.48169 17.75Z" fill="#141B34"/>
</svg>
