<svg width="24" height="24" viewBox="0 0 24 24" fill="none" xmlns="http://www.w3.org/2000/svg">
<path d="M21.3358 22.75L1.25 2.66421L2.66421 1.25L22.75 21.3358L21.3358 22.75Z" fill="#141B34"/>
<path d="M19.8127 7.19093H18.1142V5.24976H20.7833C21.3194 5.24976 21.7539 5.6843 21.7539 6.22034V18.2181L19.8127 16.277V7.19093Z" fill="#141B34"/>
<path d="M20.7833 21.7498H6.22449C5.68845 21.7498 5.25391 21.3152 5.25391 20.7792V18.11H7.19508V19.8086H19.8088L21.4677 21.4674C21.2922 21.6419 21.0503 21.7498 20.7833 21.7498Z" fill="#141B34"/>
<path d="M2.25195 3.22022V17.779C2.25195 18.3151 2.6865 18.7496 3.22254 18.7496H17.7814C18.0488 18.7496 18.2909 18.6415 18.4665 18.4666L10.8369 10.837L4.20178 16.8085H4.19313V4.1932L2.53504 2.53511C2.3601 2.71066 2.25195 2.95281 2.25195 3.22022Z" fill="#141B34"/>
<path d="M18.752 3.22022C18.752 2.68418 18.3174 2.24963 17.7814 2.24963H5.78509L7.72627 4.19081H16.8108V10.7498L14.0269 7.96594L12.6977 9.16224L18.752 15.2165V3.22022Z" fill="#141B34"/>
</svg>
