<svg width="24" height="24" viewBox="0 0 24 24" fill="none" xmlns="http://www.w3.org/2000/svg">
<path opacity="0.4" d="M21.9541 15.9903C22.2616 15.1294 22.25 14.162 22.25 12.6866V11.3135C22.25 9.83809 22.2616 8.87067 21.9541 8.00982L21.8887 7.83892C21.6076 7.16031 21.1359 6.59982 20.4482 5.89264L19.6875 5.12701L18.873 4.31256C17.7605 3.19997 17.0659 2.4862 16.1611 2.11139C15.4824 1.83022 14.7522 1.76779 13.7656 1.75396L12.6865 1.75006H11.3135C9.83803 1.75006 8.87061 1.73848 8.00977 2.04596L7.83887 2.11139C7.16025 2.3925 6.59977 2.8642 5.89258 3.55181L5.12695 4.31256L4.3125 5.12701C3.26932 6.17019 2.57681 6.84586 2.18555 7.67193L2.11133 7.83892C1.7365 8.74384 1.75 9.73986 1.75 11.3135V12.6866L1.75391 13.7657C1.76774 14.7523 1.83017 15.4824 2.11133 16.1612C2.48615 17.066 3.19991 17.7605 4.3125 18.8731L5.12695 19.6876L5.89258 20.4483C6.59976 21.1359 7.16026 21.6076 7.83887 21.8887L8.00977 21.9542C8.87061 22.2616 9.83803 22.2501 11.3135 22.2501H12.6865C14.2602 22.2501 15.2562 22.2636 16.1611 21.8887C17.0659 21.5139 17.7605 20.8001 18.873 19.6876L19.6875 18.8731L20.4482 18.1075C21.1359 17.4003 21.6076 16.8398 21.8887 16.1612L21.9541 15.9903Z" fill="#141B34"/>
<path d="M11 12.5V8C11 7.44772 11.4477 7 12 7C12.5523 7 13 7.44772 13 8V12.5C13 13.0523 12.5523 13.5 12 13.5C11.4477 13.5 11 13.0523 11 12.5Z" fill="#141B34"/>
<path d="M11 15.998V15.9883C11 15.436 11.4477 14.9883 12 14.9883C12.5523 14.9883 13 15.436 13 15.9883V15.998C13 16.5503 12.5523 16.998 12 16.998C11.4477 16.998 11 16.5503 11 15.998Z" fill="#141B34"/>
</svg>
