<svg width="24" height="24" viewBox="0 0 24 24" fill="none" xmlns="http://www.w3.org/2000/svg">
<path d="M18.6214 4.7158C19.0167 4.33013 19.0245 3.69702 18.6389 3.30169C18.2532 2.90637 17.6201 2.89854 17.2248 3.2842L4.26746 15.9249C3.57083 16.6044 2.97047 17.19 2.58725 17.687C2.22067 18.1624 1.7663 18.9181 2.1295 19.7735C2.48727 20.6161 3.33472 20.831 3.93255 20.9135C4.56072 21.0001 5.40733 21.0001 6.39486 21L20.9982 21C21.5505 21 21.9982 20.5523 21.9982 20C21.9982 19.4477 21.5505 19 20.9982 19H11.6937C11.4667 16.9318 10.544 15.0996 9.17683 13.9296L18.6214 4.7158Z" fill="#141B34"/>
</svg>
