<svg width="24" height="24" viewBox="0 0 24 24" fill="none" xmlns="http://www.w3.org/2000/svg">
<path d="M18.6214 4.7158C19.0167 4.33013 19.0245 3.69702 18.6389 3.30169C18.2532 2.90637 17.6201 2.89854 17.2248 3.2842L4.26746 15.9249C3.57083 16.6044 2.97047 17.19 2.58725 17.687C2.22067 18.1624 1.7663 18.9181 2.1295 19.7735C2.48727 20.6161 3.33472 20.831 3.93255 20.9135C4.56072 21.0001 5.40733 21.0001 6.39486 21L20.9982 21C21.5505 21 21.9982 20.5523 21.9982 20C21.9982 19.4477 21.5505 19 20.9982 19H5.41018C4.78299 19 4.46939 19 4.39341 18.8129C4.31742 18.6257 4.54224 18.4071 4.99188 17.9699L18.6214 4.7158Z" fill="#141B34"/>
<path opacity="0.4" d="M4.99193 17.97C4.54229 18.4072 4.31747 18.6259 4.39346 18.813C4.46945 19.0001 4.78304 19.0001 5.41023 19.0001H11.6937C11.4667 16.932 10.544 15.0997 9.17688 13.9297L4.99193 17.97Z" fill="#141B34"/>
</svg>
