<svg width="24" height="24" viewBox="0 0 24 24" fill="none" xmlns="http://www.w3.org/2000/svg">
<path d="M3.94793 14.4254L3.96728 14.4548C5.28871 16.461 7.53881 18.7111 9.54507 20.0326L9.57445 20.0519L9.57447 20.0519C9.85116 20.2341 10.1001 20.3981 10.272 20.5342C10.3579 20.6022 10.4723 20.6996 10.5637 20.8217C10.6466 20.9324 10.8257 21.2205 10.7145 21.5914C10.6058 21.9542 10.3086 22.099 10.1733 22.1491C10.0295 22.2023 9.88069 22.2211 9.77346 22.2308C9.55948 22.25 9.26862 22.25 8.94857 22.25L4.31291 22.25L4.2697 22.25C3.87774 22.2501 3.5128 22.2501 3.21482 22.21C2.88458 22.1656 2.52797 22.0602 2.23382 21.766C1.93968 21.4719 1.83421 21.1153 1.78981 20.785C1.74975 20.487 1.7498 20.1221 1.74985 19.7301L1.74986 19.6869V15.0869L1.74985 15.0513C1.74983 14.7312 1.7498 14.4404 1.76907 14.2264C1.77873 14.1192 1.79753 13.9704 1.85078 13.8265C1.90087 13.6913 2.04566 13.3941 2.40844 13.2854C2.77931 13.1742 3.0674 13.3532 3.17816 13.4361C3.30025 13.5275 3.39767 13.642 3.46568 13.7279C3.60177 13.8998 3.76571 14.1487 3.94793 14.4254Z" fill="#141B34"/>
<path d="M20.7849 1.78996C21.1151 1.83436 21.4717 1.93983 21.7659 2.23398C22.06 2.52812 22.1655 2.88473 22.2099 3.21497C22.2499 3.51295 22.2499 3.87789 22.2498 4.26986L22.2498 4.31306L22.2498 8.94872C22.2499 9.26877 22.2499 9.55963 22.2306 9.77362C22.221 9.88084 22.2022 10.0296 22.1489 10.1735C22.0988 10.3087 21.954 10.6059 21.5913 10.7146C21.2204 10.8258 20.9323 10.6468 20.8215 10.5639C20.6994 10.4725 20.602 10.358 20.534 10.2721C20.3979 10.1002 20.234 9.85131 20.0518 9.57462L20.0518 9.5746L20.0324 9.54522C18.711 7.53896 16.4609 5.28886 14.4546 3.96743L14.4253 3.94808C14.1485 3.76586 13.8996 3.60192 13.7277 3.46583C13.6418 3.39782 13.5274 3.3004 13.436 3.17831C13.3531 3.06755 13.174 2.77946 13.2852 2.40859C13.3939 2.04581 13.6911 1.90103 13.8264 1.85094C13.9702 1.79768 14.119 1.77888 14.2262 1.76923C14.4402 1.74996 14.7311 1.74998 15.0511 1.75001L15.0867 1.75001H19.6868L19.73 1.75C20.1219 1.74995 20.4869 1.7499 20.7849 1.78996Z" fill="#141B34"/>
<path d="M6.74392 1.75008C7.40427 1.74939 7.93692 1.74883 8.42711 1.95188C8.91731 2.15492 9.29356 2.53196 9.76 2.99938L9.84333 3.08282L20.9173 14.1568L21.0008 14.2402C21.4682 14.7066 21.8452 15.0829 22.0483 15.5731C22.2513 16.0632 22.2508 16.5959 22.2501 17.2562L22.25 17.3742L22.25 19.6442C22.2501 20.054 22.2501 20.4333 22.2085 20.7425C22.1626 21.0844 22.0538 21.4505 21.7521 21.7522C21.4504 22.0539 21.0842 22.1627 20.7424 22.2087C20.4331 22.2503 20.0539 22.2502 19.6441 22.2502L17.374 22.2502L17.2561 22.2502C16.5957 22.2509 16.0631 22.2515 15.5729 22.0484C15.0827 21.8454 14.7065 21.4684 14.24 21.0009L14.1567 20.9175L3.08267 9.84348L2.99923 9.76015C2.53181 9.29371 2.15477 8.91746 1.95173 8.42727C1.74868 7.93707 1.74924 7.40442 1.74993 6.74408L1.75001 6.62615V4.40016L1.75 4.35608L1.75 4.35607C1.74995 3.94631 1.7499 3.56704 1.79148 3.25782C1.83744 2.91595 1.94623 2.54978 2.24793 2.24808C2.54963 1.94638 2.9158 1.83759 3.25766 1.79163C3.56689 1.75005 3.94615 1.7501 4.35592 1.75016L4.35592 1.75016L4.40001 1.75016H6.626L6.74392 1.75008Z" fill="#141B34"/>
</svg>
