<svg width="24" height="24" viewBox="0 0 24 24" fill="none" xmlns="http://www.w3.org/2000/svg">
<path d="M10.7985 21.5004C10.3415 21.7475 9.87437 22 9.09969 22C6.53925 22 4 15.746 4 12.8065C4 9.86687 6.07564 7 8.63608 7C9.94232 7 10.5125 7.3073 11.0102 7.57556C11.3958 7.78336 11.7379 7.96774 12.3449 7.96774C12.952 7.96774 13.2941 7.78336 13.6797 7.57556C14.1774 7.3073 14.7476 7 16.0538 7C17.5667 7 18.9103 8.00087 19.7565 9.42623C18.5561 10.0885 17.7446 11.3541 17.7446 12.8065C17.7446 14.355 18.6671 15.6912 20 16.3102C19.0721 19.0922 17.3361 22 15.5902 22C14.8155 22 14.3484 21.7475 13.8914 21.5004C13.4537 21.2638 13.0253 21.0323 12.3449 21.0323C11.6646 21.0323 11.2362 21.2638 10.7985 21.5004Z" fill="#141B34"/>
<path d="M16.5 2V3C16.5 5.20914 14.7091 7 12.5 7V6C12.5 3.79086 14.2909 2 16.5 2Z" fill="#141B34"/>
</svg>
