<svg width="24" height="24" viewBox="0 0 24 24" fill="none" xmlns="http://www.w3.org/2000/svg">
<path d="M8.1 1.25C8.63848 1.25 9.075 1.68754 9.075 2.22727V3.21284C9.6529 3.20453 10.2784 3.20453 10.9537 3.20454H13.0463C13.7216 3.20453 14.3471 3.20453 14.925 3.21284V2.22727C14.925 1.68754 15.3615 1.25 15.9 1.25C16.4385 1.25 16.875 1.68754 16.875 2.22727V3.29947C17.0513 3.31556 17.221 3.33437 17.3843 3.35638C18.5544 3.51407 19.5397 3.85141 20.3221 4.63573C21.1046 5.42004 21.4412 6.40758 21.5985 7.58045C21.75 8.71014 21.75 10.1975 21.75 11.9796C21.75 12.518 21.3135 12.9545 20.775 12.9545H20.7546C20.2274 12.9545 19.8 12.5272 19.8 12C19.8 11.1378 19.7996 10.3958 19.7862 9.75H4.21386C4.20045 10.3958 4.20001 11.1378 4.20001 12V13.9545C4.20001 15.8249 4.20208 17.1294 4.3341 18.1137C4.46235 19.0698 4.69693 19.5761 5.05673 19.9367C5.41652 20.2974 5.92166 20.5325 6.87557 20.6611C7.85752 20.7934 8.15897 20.7955 10.025 20.7955C10.5497 20.7955 10.975 21.2208 10.975 21.7455V21.7727C10.975 22.3125 10.5375 22.75 9.99774 22.75C8.21986 22.75 7.74279 22.75 6.61573 22.5982C5.44559 22.4405 4.46035 22.1031 3.67786 21.3188C2.89537 20.5345 2.5588 19.547 2.40148 18.3741C2.24996 17.2444 2.24998 15.8081 2.25 14.0261V11.9285C2.24998 10.1465 2.24996 8.71012 2.40148 7.58045C2.5588 6.40758 2.89537 5.42004 3.67786 4.63573C4.46035 3.85141 5.44559 3.51407 6.61573 3.35638C6.77902 3.33437 6.94874 3.31556 7.125 3.29947V2.22727C7.125 1.68754 7.56152 1.25 8.1 1.25Z" fill="#141B34"/>
<path d="M21.6923 15.4164C21.8767 15.937 21.6042 16.5085 21.0836 16.6929C20.5499 16.8819 19.9335 17.2888 19.2804 17.8615C18.6377 18.4251 18.0125 19.1021 17.4588 19.7659C16.9069 20.4274 16.4382 21.0611 16.1071 21.5301C15.942 21.7641 15.6818 22.1544 15.5938 22.2865C15.3863 22.613 15.0089 22.7907 14.625 22.7425C14.2411 22.6942 13.9194 22.4288 13.7992 22.061C13.5319 21.2432 13.1352 20.7643 12.8373 20.4968C12.6857 20.3608 12.4641 20.2277 12.3809 20.1798C11.8752 19.9793 11.6215 19.4098 11.8136 18.8985C12.0079 18.3815 12.5845 18.1199 13.1015 18.3142C13.1641 18.3433 13.3745 18.4393 13.4696 18.494C13.6595 18.6033 13.9065 18.769 14.1735 19.0087C14.4065 19.2179 14.6514 19.4807 14.8855 19.8065C15.1804 19.4083 15.5315 18.954 15.923 18.4847C16.5163 17.7735 17.2147 17.0129 17.9617 16.3578C18.6983 15.7118 19.5377 15.1186 20.4159 14.8076C20.9365 14.6233 21.508 14.8958 21.6923 15.4164Z" fill="#141B34"/>
</svg>
