<svg width="24" height="24" viewBox="0 0 24 24" fill="none" xmlns="http://www.w3.org/2000/svg">
<path d="M8.10002 1.25C8.63849 1.25 9.07502 1.68754 9.07502 2.22727V3.21284C9.65291 3.20453 10.2784 3.20453 10.9537 3.20454H13.0464C13.7216 3.20453 14.3471 3.20453 14.925 3.21284V2.22727C14.925 1.68754 15.3615 1.25 15.9 1.25C16.4385 1.25 16.875 1.68754 16.875 2.22727V3.29947C17.0513 3.31556 17.221 3.33437 17.3843 3.35638C18.5544 3.51407 19.5397 3.85141 20.3222 4.63573C21.1047 5.42004 21.4412 6.40758 21.5985 7.58045C21.6826 8.20706 21.72 8.92803 21.7367 9.75H2.26337C2.28002 8.92803 2.31745 8.20705 2.4015 7.58045C2.55882 6.40758 2.89538 5.42004 3.67787 4.63573C4.46036 3.85141 5.4456 3.51407 6.61574 3.35638C6.77904 3.33437 6.94876 3.31556 7.12502 3.29947V2.22727C7.12502 1.68754 7.56154 1.25 8.10002 1.25Z" fill="#141B34"/>
<g opacity="0.4">
<path d="M9.95327 22.75C8.17575 22.75 7.7427 22.75 6.61573 22.5982C5.44559 22.4405 4.46035 22.1031 3.67786 21.3188C2.89537 20.5345 2.5588 19.547 2.40148 18.3741C2.24996 17.2444 2.24998 15.8081 2.25 14.0261V14.0261V11.9285V11.9284C2.24999 11.1349 2.24998 10.4099 2.26335 9.75H4.21386C4.20045 10.3958 4.20001 11.1378 4.20001 12V13.9545C4.20001 15.8249 4.20208 17.1294 4.3341 18.1137C4.46235 19.0698 4.69693 19.5761 5.05673 19.9367C5.41652 20.2974 5.92166 20.5325 6.87557 20.6611C7.85752 20.7934 8.15897 20.7955 10.025 20.7955C10.5497 20.7955 10.975 21.2208 10.975 21.7455V21.7727C10.975 22.3125 10.5375 22.75 9.99774 22.75H9.95369H9.95327Z" fill="#141B34"/>
<path d="M19.8 12C19.8 11.1378 19.7996 10.3958 19.7862 9.75H21.7367C21.75 10.4099 21.75 11.1349 21.75 11.9285V11.9796C21.75 12.518 21.3135 12.9545 20.775 12.9545H20.7546C20.2274 12.9545 19.8 12.5272 19.8 12Z" fill="#141B34"/>
</g>
<path d="M21.6924 15.4164C21.8768 15.937 21.6042 16.5085 21.0836 16.6929C20.55 16.8819 19.9335 17.2888 19.2805 17.8615C18.6378 18.4251 18.0126 19.1021 17.4588 19.7659C16.907 20.4274 16.4382 21.0611 16.1072 21.5301C15.942 21.7641 15.6818 22.1544 15.5939 22.2865C15.3863 22.613 15.0089 22.7907 14.6251 22.7425C14.2411 22.6942 13.9195 22.4288 13.7993 22.061C13.532 21.2432 13.1352 20.7643 12.8373 20.4968C12.6858 20.3608 12.4642 20.2277 12.3809 20.1798C11.8753 19.9793 11.6216 19.4098 11.8137 18.8985C12.008 18.3815 12.5845 18.1199 13.1015 18.3142C13.1642 18.3433 13.3746 18.4393 13.4696 18.494C13.6596 18.6033 13.9065 18.769 14.1736 19.0087C14.4066 19.2179 14.6515 19.4807 14.8856 19.8065C15.1804 19.4083 15.5315 18.954 15.9231 18.4847C16.5164 17.7735 17.2148 17.0129 17.9618 16.3578C18.6984 15.7118 19.5378 15.1186 20.4159 14.8076C20.9365 14.6233 21.508 14.8958 21.6924 15.4164Z" fill="#141B34"/>
</svg>
