<svg width="24" height="24" viewBox="0 0 24 24" fill="none" xmlns="http://www.w3.org/2000/svg">
<path opacity="0.4" d="M7.22206 7.95286C7.24695 7.55773 7.57467 7.25 7.97058 7.25H16.0294C16.4253 7.25 16.753 7.55773 16.7779 7.95286C16.8244 8.691 16.9543 9.27602 17.2109 9.66367C17.4265 9.98937 17.7781 10.25 18.5243 10.25C18.6442 10.25 18.7566 10.2391 18.8617 10.2194C19.081 10.1783 19.3072 10.2369 19.4789 10.3794C19.6507 10.5219 19.75 10.7334 19.75 10.9565V16.0549V16.0549C19.75 17.4225 19.75 18.5248 19.6335 19.3918C19.5125 20.2919 19.2536 21.0497 18.6517 21.6517C18.0497 22.2536 17.2919 22.5125 16.3918 22.6335C15.5248 22.75 14.4225 22.75 13.0549 22.75H13.0549H10.9451H10.9451C9.57754 22.75 8.47522 22.75 7.60825 22.6335C6.70814 22.5125 5.95027 22.2536 5.34835 21.6517C4.74643 21.0497 4.48754 20.2919 4.36652 19.3918C4.24996 18.5248 4.24998 17.4225 4.25 16.0549V16.0549V10.9566C4.25 10.7334 4.34935 10.5219 4.52106 10.3794C4.69277 10.2369 4.919 10.1783 5.13831 10.2194C5.24339 10.2391 5.35579 10.25 5.47569 10.25C6.22186 10.25 6.5735 9.98937 6.78911 9.66367C7.04572 9.27602 7.17558 8.691 7.22206 7.95286Z" fill="#141B34"/>
<path d="M12.6 12.5H11.4C10.2686 12.5 9.70294 12.5 9.35147 12.8515C9 13.2029 9 13.7686 9 14.9V16.1C9 17.2314 9 17.7971 9.35147 18.1485C9.70294 18.5 10.2686 18.5 11.4 18.5H12.6C13.7314 18.5 14.2971 18.5 14.6485 18.1485C15 17.7971 15 17.2314 15 16.1V14.9C15 13.7686 15 13.2029 14.6485 12.8515C14.2971 12.5 13.7314 12.5 12.6 12.5Z" fill="#141B34"/>
<path fill-rule="evenodd" clip-rule="evenodd" d="M12 3.15909C10.373 3.15909 9.06035 4.44454 9.06035 6.02273C9.06035 6.15496 9.06255 6.302 9.06492 6.46033C9.07721 7.28316 9.09407 8.41113 8.83077 9.35345C8.66554 9.94479 8.36871 10.5629 7.81576 11.0313C7.24789 11.5123 6.5112 11.75 5.63867 11.75C2.3605 11.75 1.0385 7.60228 3.58649 5.73558C4.01763 5.41972 4.62868 5.50583 4.95131 5.92791C5.27394 6.35 5.18598 6.94822 4.75485 7.26407C3.67617 8.05433 4.27541 9.84091 5.63867 9.84091C6.1372 9.84091 6.39188 9.71288 6.53983 9.58755C6.7027 9.44959 6.84617 9.22074 6.94983 8.84973C7.13278 8.19498 7.12387 7.40817 7.11452 6.5817C7.11242 6.39701 7.11031 6.21034 7.11031 6.02273C7.11031 3.38347 9.30293 1.25 12 1.25C14.6971 1.25 16.8897 3.38347 16.8897 6.02273C16.8897 6.21034 16.8876 6.39701 16.8855 6.5817C16.8761 7.40817 16.8672 8.19498 17.0502 8.84973C17.1538 9.22074 17.2973 9.44959 17.4602 9.58755C17.6081 9.71288 17.8628 9.84091 18.3613 9.84091C19.7245 9.84091 20.3238 8.05451 19.2453 7.26418C18.8142 6.94827 18.7263 6.35004 19.049 5.928C19.3717 5.50595 19.9827 5.41991 20.4138 5.73582C22.9614 7.6027 21.6393 11.75 18.3613 11.75C17.4888 11.75 16.7521 11.5123 16.1842 11.0313C15.6313 10.5629 15.3345 9.94479 15.1692 9.35345C14.9059 8.41113 14.9228 7.28316 14.9351 6.46033C14.9374 6.302 14.9396 6.15496 14.9396 6.02273C14.9396 4.44454 13.627 3.15909 12 3.15909Z" fill="#141B34"/>
</svg>
