<svg width="24" height="24" viewBox="0 0 24 24" fill="none" xmlns="http://www.w3.org/2000/svg">
<path fill-rule="evenodd" clip-rule="evenodd" d="M16.54 2.25C17.7388 2.25004 18.8175 2.9784 19.2627 4.08887L22.54 12.2637C22.6785 12.6091 22.75 12.9786 22.75 13.3506V18.8252C22.7499 20.4405 21.4374 21.7499 19.8184 21.75H4.18164C2.56259 21.7499 1.25011 20.4405 1.25 18.8252V13.3506C1.25005 12.9786 1.32149 12.6091 1.45996 12.2637L4.7373 4.08887C5.18253 2.9784 6.26117 2.25004 7.45996 2.25H16.54ZM7.45996 4.2002C7.06039 4.20024 6.70113 4.44334 6.55273 4.81348L3.57031 12.25H6.17188C6.90111 12.2501 7.60056 12.54 8.11621 13.0557L8.94434 13.8838C9.17869 14.1181 9.49671 14.2499 9.82812 14.25H14.1719C14.5033 14.2499 14.8213 14.1181 15.0557 13.8838L15.8838 13.0557C16.3994 12.54 17.0989 12.2501 17.8281 12.25H20.4297L17.4473 4.81348C17.2989 4.44334 16.9396 4.20024 16.54 4.2002H7.45996Z" fill="#141B34"/>
</svg>
