<svg width="24" height="24" viewBox="0 0 24 24" fill="none" xmlns="http://www.w3.org/2000/svg">
<path fill-rule="evenodd" clip-rule="evenodd" d="M3.25015 6.19996C3.25017 5.6753 3.68544 5.25 4.22237 5.25H19.7778C20.3147 5.25 20.75 5.67533 20.75 6.19999V9.99996H18.8056V7.14999H5.19456L5.19444 10L3.25 9.99993L3.25015 6.19996Z" fill="#141B34"/>
<path fill-rule="evenodd" clip-rule="evenodd" d="M5.25011 2.19997C5.25013 1.67531 5.68185 1.25 6.2144 1.25H17.7857C18.3183 1.25 18.75 1.67533 18.75 2.19999V5.99997H16.8214V3.14999H7.17866L7.17857 6L5.25 5.99994L5.25011 2.19997Z" fill="#141B34"/>
<path fill-rule="evenodd" clip-rule="evenodd" d="M2.00019 9.25C1.58599 9.25 1.2502 9.58578 1.25019 9.99999L1.25 22C1.25 22.1989 1.32901 22.3897 1.46967 22.5303C1.61032 22.671 1.80109 22.75 2 22.75H22C22.4142 22.75 22.75 22.4142 22.75 22V10C22.75 9.58579 22.4142 9.25 22 9.25H2.00019ZM8.79922 14.2L7.19922 15.4L8.99922 17.8H14.9992L16.7992 15.4L15.1992 14.2L13.9992 15.8H9.99922L8.79922 14.2Z" fill="#141B34"/>
</svg>
