<svg width="24" height="24" viewBox="0 0 24 24" fill="none" xmlns="http://www.w3.org/2000/svg">
<path fill-rule="evenodd" clip-rule="evenodd" d="M13.958 2.25C14.8692 2.24997 15.6322 2.24994 16.2568 2.31836C16.9197 2.39102 17.5185 2.54818 18.0693 2.91992C18.6204 3.29215 18.9897 3.78957 19.3037 4.37695C19.6044 4.93952 19.8932 5.66031 20.2392 6.52344L20.2461 6.54004L22.2607 11.5664C22.4565 12.0548 22.6051 12.4146 22.6797 12.8008C22.7542 13.1869 22.75 13.5756 22.75 14.1016V14.9873C22.75 16.3102 22.75 17.4017 22.6338 18.2647C22.5118 19.1691 22.2456 19.9678 21.6045 20.6074C20.9633 21.247 20.1625 21.5122 19.2558 21.6338C18.3889 21.75 17.2929 21.75 15.9629 21.75H8.03709C6.70713 21.75 5.61102 21.75 4.74412 21.6338C3.83746 21.5122 3.03666 21.247 2.39549 20.6074C1.75441 19.9678 1.48813 19.1691 1.36619 18.2647C1.24993 17.4017 1.24995 16.3102 1.24998 14.9873V14.1016C1.24998 13.5756 1.24577 13.1869 1.3203 12.8008C1.39485 12.4146 1.54342 12.0548 1.73924 11.5664L3.75389 6.54004L3.76073 6.52344C4.10678 5.66031 4.39559 4.93952 4.69627 4.37695C5.01024 3.78957 5.37959 3.29215 5.93065 2.91992C6.48142 2.54817 7.08032 2.39102 7.74315 2.31836C8.36777 2.24993 9.13077 2.24997 10.042 2.25H13.958ZM10.1064 4.2002C9.12362 4.2002 8.46417 4.20116 7.95604 4.25684C7.47259 4.30987 7.21865 4.40468 7.02537 4.53516C6.8321 4.66579 6.64991 4.86645 6.42088 5.29492C6.18045 5.74481 5.93412 6.35379 5.56932 7.26367L3.5703 12.25H5.58592C6.12036 12.25 6.5328 12.2435 6.92576 12.3555C7.12864 12.4133 7.32441 12.4941 7.50877 12.5967C7.86585 12.7954 8.15233 13.0918 8.53026 13.4697C8.96807 13.9075 9.08935 14.0197 9.22069 14.0928C9.30436 14.1393 9.39326 14.1759 9.48533 14.2022C9.62986 14.2433 9.79499 14.25 10.414 14.25H13.5859C14.205 14.25 14.3701 14.2433 14.5146 14.2022C14.6067 14.1759 14.6956 14.1393 14.7793 14.0928C14.9106 14.0197 15.0319 13.9075 15.4697 13.4697C15.8476 13.0918 16.1341 12.7954 16.4912 12.5967C16.6756 12.4941 16.8713 12.4133 17.0742 12.3555C17.4672 12.2435 17.8796 12.25 18.414 12.25H20.4297L18.4306 7.26367C18.0658 6.35379 17.8195 5.74481 17.5791 5.29492C17.3501 4.86644 17.1679 4.66579 16.9746 4.53516C16.7813 4.40468 16.5274 4.30987 16.0439 4.25684C15.5358 4.20116 14.8763 4.2002 13.8935 4.2002H10.1064Z" fill="#141B34"/>
</svg>
