<svg width="24" height="24" viewBox="0 0 24 24" fill="none" xmlns="http://www.w3.org/2000/svg">
<path opacity="0.4" fill-rule="evenodd" clip-rule="evenodd" d="M13.1796 1.79068C12.7039 1.38478 12.1763 1.25471 11.6338 1.25011C11.1702 1.24618 10.5598 1.34714 9.99078 1.44125C6.70714 1.98367 4.49808 3.33877 3.27126 4.52845C2.97531 4.81542 2.71502 5.06782 2.48249 5.61805C2.24905 6.17045 2.24953 6.63966 2.25005 7.15383L2.2501 15.9628C2.25006 17.2895 2.25003 18.3839 2.36696 19.2501C2.48981 20.1601 2.75766 20.9629 3.40235 21.605C4.04618 22.2462 4.84968 22.5118 5.76041 22.6338C6.62888 22.75 7.72658 22.75 9.05958 22.75H19.6664C20.1144 22.75 20.5495 22.6448 20.9178 22.3827C21.2881 22.1191 21.5025 21.7598 21.618 21.4102C21.8314 20.764 21.7443 20.0387 21.6472 19.5332C21.3212 17.8375 20.2644 16.3723 18.7597 15.524C18.2188 15.219 17.6175 14.9524 17.0741 14.7115L15.012 13.7127C14.6245 13.4652 14.3671 13.2047 14.2154 12.8731C14.0597 12.5327 14.0385 12.1106 14.0385 10.6502L14.0385 5.04718C14.0386 4.39234 14.0387 3.79154 13.9622 3.3034C13.876 2.75306 13.675 2.21343 13.1796 1.79068ZM9.5829 16.7446C10.3792 15.8179 11.5939 15.0968 12.9574 14.8459C13.0858 14.8223 13.1499 14.8105 13.2145 14.8274C13.2791 14.8443 13.3384 14.8937 13.457 14.9924C13.6222 15.1298 13.7933 15.2517 13.9647 15.3612C14.4235 15.6542 14.9414 15.8898 15.3752 16.0871L16.6218 16.659C16.992 16.8289 17.1772 16.9138 17.2093 17.0597C17.2414 17.2057 17.0986 17.3726 16.8131 17.7063C16.2499 18.3647 15.7447 19.2262 15.4717 20.3029C15.4098 20.547 15.3788 20.6691 15.2976 20.7323C15.2163 20.7955 15.0984 20.7955 14.8624 20.7955H9.1286C7.70985 20.7955 6.74325 20.7935 6.01908 20.6965C5.32233 20.6032 4.99792 20.4383 4.77727 20.2186C4.55747 19.9997 4.39309 19.6791 4.29981 18.9881C4.25238 18.6367 4.22744 18.2278 4.21443 17.7368C4.20888 17.5275 4.20611 17.4228 4.26563 17.3406C4.32516 17.2583 4.42319 17.2288 4.61926 17.17C4.83478 17.1052 5.05744 17.0459 5.21312 17.0205C5.67714 16.9028 6.1726 17.1291 6.40001 17.28C6.42776 17.2984 6.44163 17.3076 6.44993 17.3124C6.45823 17.3172 6.46771 17.3219 6.48667 17.3312C6.80538 17.4885 7.01855 17.5738 7.33323 17.6503C7.6818 17.7349 8.08559 17.7566 8.51019 17.5964C8.92047 17.4416 9.27114 17.1466 9.5829 16.7446Z" fill="#141B34"/>
<path d="M2.25003 12.75H5.00092C5.41514 12.75 5.75092 12.4142 5.75092 12C5.75092 11.5858 5.41514 11.25 5.00092 11.25H2.25002L2.25003 12.75Z" fill="#141B34"/>
<path d="M2.25001 9.25H6.05952C6.47373 9.25 6.80952 8.91421 6.80952 8.5C6.80952 8.08579 6.47373 7.75 6.05952 7.75H2.25L2.25001 9.25Z" fill="#141B34"/>
<path fill-rule="evenodd" clip-rule="evenodd" d="M9 6C9 5.44772 9.44772 5 10 5H10.009C10.5613 5 11.009 5.44772 11.009 6C11.009 6.55228 10.5613 7 10.009 7H10C9.44772 7 9 6.55228 9 6Z" fill="#141B34"/>
<path fill-rule="evenodd" clip-rule="evenodd" d="M9 10C9 9.44772 9.44772 9 10 9H10.009C10.5613 9 11.009 9.44772 11.009 10C11.009 10.5523 10.5613 11 10.009 11H10C9.44772 11 9 10.5523 9 10Z" fill="#141B34"/>
</svg>
