<svg width="24" height="24" viewBox="0 0 24 24" fill="none" xmlns="http://www.w3.org/2000/svg">
<path opacity="0.4" d="M6.00011 4.86591C5.68076 5.04991 5.27144 5.04965 4.94431 4.83095C4.48518 4.52399 4.36183 3.90296 4.66879 3.44383L4.83108 3.21868C4.92457 3.09565 5.06069 2.92639 5.22224 2.75746C5.37649 2.59616 5.59163 2.39499 5.84651 2.24342C6.07607 2.10691 6.53348 1.89514 7.06603 2.06038C7.3255 2.14088 7.55548 2.30077 7.72022 2.53446C7.86742 2.74326 7.92592 2.95946 7.95395 3.10795C8.00082 3.35624 8.00044 3.65881 8.00015 3.89527L8.00011 8.49997C8.00011 8.68689 8.00011 8.78035 8.0403 8.84997C8.06663 8.89558 8.1045 8.93345 8.15011 8.95978C8.21972 8.99997 8.31318 8.99997 8.5001 8.99997C9.05239 8.99997 9.5001 9.44768 9.5001 9.99997C9.5001 10.5523 9.05239 11 8.5001 11H5.50011C4.94782 11 4.50011 10.5523 4.50011 9.99997C4.50011 9.44768 4.94782 8.99997 5.50011 8.99997C5.68703 8.99997 5.78049 8.99997 5.85011 8.95978C5.89571 8.93345 5.93358 8.89558 5.95991 8.84997C6.00011 8.78035 6.00011 8.68689 6.00011 8.49997V4.86591Z" fill="#141B34"/>
<path opacity="0.4" fill-rule="evenodd" clip-rule="evenodd" d="M6.95005 13C6.96667 13 6.98333 13 7.00003 13C7.01672 13 7.03338 13 7.05 13C7.47814 12.9999 7.88259 12.9999 8.21413 13.0389C8.57513 13.0814 8.99995 13.1837 9.36564 13.5037C9.75054 13.8405 9.89409 14.2624 9.95182 14.638C10.0003 14.9536 10.0002 15.3309 10 15.6943C10 15.7129 10 15.7315 10 15.75V18.375C10 18.3967 10 18.4183 10 18.4399C10.0001 19.0024 10.0002 19.5329 9.93351 19.967C9.85748 20.4618 9.67732 20.9673 9.21919 21.3682C8.78028 21.7522 8.25992 21.8866 7.76277 21.9451C7.29536 22.0001 6.7151 22.0001 6.05591 22L5.00003 22C4.44774 22 4.00003 21.5523 4.00003 21C4.00003 20.4477 4.44774 20 5.00003 20H6.00003C6.73195 20 7.19273 19.9984 7.5291 19.9588C7.84435 19.9217 7.9002 19.865 7.90213 19.8631L7.90356 19.8619C7.90539 19.8604 7.90584 19.8601 7.90972 19.8518C7.91833 19.8335 7.9386 19.7811 7.95671 19.6633C7.97901 19.5181 7.98989 19.3399 7.99516 19.1006C8.00132 18.8205 8.00441 18.6804 7.91615 18.5902C7.8279 18.5 7.68509 18.5 7.39948 18.5H7.00003C6.98333 18.5 6.96667 18.5 6.95005 18.5C6.52191 18.5001 6.11746 18.5001 5.78592 18.4611C5.42493 18.4187 5.00011 18.3163 4.63441 17.9963C4.24951 17.6595 4.10596 17.2377 4.04824 16.862C3.99975 16.5464 3.99989 16.1691 4.00001 15.8057C4.00002 15.7871 4.00003 15.7685 4.00003 15.75C4.00003 15.7315 4.00002 15.7129 4.00001 15.6943C3.99989 15.3309 3.99975 14.9536 4.04824 14.638C4.10596 14.2624 4.24951 13.8405 4.63441 13.5037C5.00011 13.1837 5.42492 13.0814 5.78592 13.0389C6.11746 12.9999 6.52192 12.9999 6.95005 13ZM7.40003 16.5C7.68287 16.5 7.82429 16.5 7.91216 16.4121C8.00003 16.3243 8.00003 16.1829 8.00003 15.9V15.75C8.00003 15.5395 7.99994 15.3748 7.99587 15.2335C7.99342 15.1487 7.98974 15.0825 7.9852 15.0301C7.98498 15.0275 7.983 15.0255 7.98046 15.0252C7.78025 15.0016 7.49624 15 7.00003 15C6.50381 15 6.2198 15.0016 6.01959 15.0252C6.01705 15.0255 6.01507 15.0275 6.01485 15.0301C6.01032 15.0825 6.00663 15.1487 6.00419 15.2335C6.00011 15.3748 6.00003 15.5395 6.00003 15.75C6.00003 15.9605 6.00011 16.1253 6.00419 16.2666C6.00663 16.3513 6.01032 16.4176 6.01485 16.4699C6.01507 16.4725 6.01705 16.4745 6.01959 16.4748C6.2198 16.4984 6.50381 16.5 7.00003 16.5H7.40003Z" fill="#141B34"/>
<path fill-rule="evenodd" clip-rule="evenodd" d="M17.7559 4C17.7559 3.44772 17.3081 3 16.7559 3C16.2036 3 15.7559 3.44772 15.7559 4L15.7559 16.5L15.1616 16.5C14.986 16.4999 14.7703 16.4997 14.5939 16.5218L14.5905 16.5222C14.4641 16.538 13.888 16.6098 13.6137 17.1754C13.3387 17.7423 13.6407 18.2424 13.706 18.3506L13.7084 18.3546C13.8006 18.5076 13.9348 18.6785 14.0451 18.8191L14.0688 18.8493C14.3635 19.2252 14.7454 19.7094 15.1259 20.1004C15.3157 20.2955 15.533 20.4967 15.7639 20.6556C15.9691 20.7968 16.3193 21 16.75 21C17.1807 21 17.5309 20.7968 17.7361 20.6556C17.967 20.4967 18.1843 20.2955 18.3741 20.1004C18.7546 19.7094 19.1365 19.2252 19.4312 18.8493L19.4549 18.8191C19.5652 18.6785 19.6994 18.5077 19.7916 18.3546L19.794 18.3506C19.8593 18.2424 20.1613 17.7422 19.8863 17.1754C19.612 16.6098 19.0359 16.538 18.9095 16.5222L18.9061 16.5218C18.7297 16.4997 18.514 16.4999 18.3384 16.5L17.7559 16.5L17.7559 4Z" fill="#141B34"/>
</svg>
