<svg width="24" height="24" viewBox="0 0 24 24" fill="none" xmlns="http://www.w3.org/2000/svg">
<path d="M2.25 4.5C2.25 3.25736 3.25736 2.25 4.5 2.25H6.5C7.74264 2.25 8.75 3.25736 8.75 4.5V6.5C8.75 7.74264 7.74264 8.75 6.5 8.75H4.5C3.25736 8.75 2.25 7.74264 2.25 6.5V4.5Z" fill="#141B34"/>
<path d="M2.25 17.5C2.25 16.2574 3.25736 15.25 4.5 15.25H6.5C7.74264 15.25 8.75 16.2574 8.75 17.5V19.5C8.75 20.7426 7.74264 21.75 6.5 21.75H4.5C3.25736 21.75 2.25 20.7426 2.25 19.5V17.5Z" fill="#141B34"/>
<path fill-rule="evenodd" clip-rule="evenodd" d="M6.99977 5.5C6.99977 4.94772 7.44749 4.5 7.99977 4.5H15.9998C16.5521 4.5 16.9998 4.94772 16.9998 5.5C16.9998 6.05228 16.5521 6.5 15.9998 6.5H7.99977C7.44749 6.5 6.99977 6.05228 6.99977 5.5ZM17.0304 6.96938C17.4209 7.3599 17.4209 7.99307 17.0304 8.38359L8.35554 17.0584C7.96502 17.449 7.33186 17.449 6.94133 17.0584C6.55081 16.6679 6.55081 16.0348 6.94133 15.6442L15.6162 6.96938C16.0067 6.57886 16.6399 6.57886 17.0304 6.96938ZM6.99977 18.5C6.99977 17.9477 7.44749 17.5 7.99977 17.5H19.9998C20.5521 17.5 20.9998 17.9477 20.9998 18.5C20.9998 19.0523 20.5521 19.5 19.9998 19.5H7.99977C7.44749 19.5 6.99977 19.0523 6.99977 18.5Z" fill="#141B34"/>
<path d="M15.25 4.5C15.25 3.25736 16.2574 2.25 17.5 2.25H19.5C20.7426 2.25 21.75 3.25736 21.75 4.5V6.5C21.75 7.74264 20.7426 8.75 19.5 8.75H17.5C16.2574 8.75 15.25 7.74264 15.25 6.5V4.5Z" fill="#141B34"/>
<path d="M17.25 19.4988H8.75V17.4988H17.25V16.7247C17.2499 16.5876 17.2497 16.4117 17.2714 16.2648C17.2947 16.1068 17.3764 15.738 17.7561 15.5373C18.1358 15.3366 18.4866 15.4768 18.6302 15.5465C18.7638 15.6114 18.9091 15.7106 19.0223 15.7879L19.853 16.3542C20.3541 16.6957 20.7911 16.9935 21.0968 17.2667C21.4052 17.5422 21.75 17.9377 21.75 18.4988C21.75 19.0599 21.4052 19.4554 21.0968 19.7309C20.7911 20.0041 20.354 20.3019 19.853 20.6434L19.0223 21.2097C18.9091 21.287 18.7638 21.3862 18.6302 21.451C18.4866 21.5207 18.1358 21.661 17.7561 21.4603C17.3764 21.2596 17.2947 20.8908 17.2714 20.7328C17.2497 20.5859 17.2499 20.41 17.25 20.2729V19.4988Z" fill="#141B34"/>
</svg>
