<svg width="24" height="24" viewBox="0 0 24 24" fill="none" xmlns="http://www.w3.org/2000/svg">
<path d="M19 11.0003C19.5523 11.0003 20 11.448 20 12.0003C19.9999 12.5525 19.5522 13.0003 19 13.0003H6.73926C7.25368 13.5738 7.94214 14.219 8.65527 14.8382C9.38771 15.4741 10.1236 16.064 10.6777 16.4964C10.9541 16.7121 11.5114 17.1389 11.6719 17.2601C12.0475 17.6002 12.1124 18.1762 11.8057 18.5931C11.4782 19.0376 10.8519 19.1331 10.4072 18.806C10.2396 18.6794 9.7332 18.2967 9.44727 18.0736C8.8764 17.6281 8.11218 17.0143 7.34473 16.348C6.58229 15.686 5.79396 14.9521 5.18848 14.2669C4.88684 13.9255 4.60882 13.5729 4.40137 13.2288C4.21045 12.9121 4.00003 12.4764 4 12.0003L4.00977 11.8236C4.05271 11.4173 4.23442 11.0498 4.40137 10.7728C4.60883 10.4286 4.88676 10.0752 5.18848 9.73371C5.79394 9.04848 6.58231 8.31463 7.34473 7.65266C8.11215 6.98634 8.87641 6.37257 9.44727 5.92707C9.73318 5.70394 10.2396 5.32126 10.4072 5.19465C10.8519 4.86751 11.4773 4.96303 11.8047 5.40754C12.1117 5.82448 12.0476 6.40031 11.6719 6.74055C11.6719 6.74055 11.4249 6.93096 11.3447 6.99152C11.1843 7.11273 10.9541 7.28853 10.6777 7.50422C10.1236 7.93665 9.3877 8.52649 8.65527 9.16242C7.94211 9.78164 7.25368 10.4268 6.73926 11.0003L19 11.0003Z" fill="#141B34"/>
</svg>
