<svg width="24" height="24" viewBox="0 0 24 24" fill="none" xmlns="http://www.w3.org/2000/svg">
<path opacity="0.4" d="M18 4.75C18.4142 4.75 18.75 4.41421 18.75 4C18.75 3.58579 18.4142 3.25 18 3.25L18 4.75ZM6 3.25C5.58579 3.25 5.25 3.58579 5.25 4C5.25 4.41421 5.58579 4.75 6 4.75L6 3.25ZM18 3.25L6 3.25L6 4.75L18 4.75L18 3.25Z" fill="#141B34"/>
<path d="M14.3639 9.1822L14.9327 8.69337L14.9327 8.69337L14.3639 9.1822ZM13.6026 8.2963L13.0337 8.78513L13.0337 8.78513L13.6026 8.2963ZM10.3974 8.29631L9.82864 7.80748V7.80748L10.3974 8.29631ZM9.63612 9.1822L9.06731 8.69338L9.63612 9.1822ZM11.2387 12.5V13.25V12.5ZM12.7613 12.5V11.75V12.5ZM8.06721 11.9176L8.74256 11.5914L8.74256 11.5914L8.06721 11.9176ZM15.9328 11.9176L15.2574 11.5914V11.5914L15.9328 11.9176ZM12.75 12.5C12.75 12.0858 12.4142 11.75 12 11.75C11.5858 11.75 11.25 12.0858 11.25 12.5H12.75ZM11.25 20C11.25 20.4142 11.5858 20.75 12 20.75C12.4142 20.75 12.75 20.4142 12.75 20H11.25ZM14.9327 8.69337L14.1714 7.80748L13.0337 8.78513L13.7951 9.67103L14.9327 8.69337ZM9.82864 7.80748L9.06731 8.69338L10.2049 9.67103L10.9663 8.78513L9.82864 7.80748ZM9.06731 8.69338C8.46742 9.39142 7.95966 9.97923 7.6499 10.4686C7.3482 10.9453 7.07131 11.5801 7.39187 12.2438L8.74256 11.5914C8.7818 11.6726 8.67263 11.6575 8.91734 11.2709C9.15399 10.897 9.57134 10.4083 10.2049 9.67103L9.06731 8.69338ZM11.2387 11.75C10.2506 11.75 9.59237 11.7482 9.14051 11.6845C8.66977 11.6182 8.70856 11.521 8.74256 11.5914L7.39187 12.2438C7.70719 12.8966 8.36832 13.0906 8.93129 13.1699C9.51315 13.2518 10.3 13.25 11.2387 13.25V11.75ZM14.1714 7.80748C13.815 7.39277 13.4964 7.01935 13.2 6.75982C12.8868 6.48551 12.5016 6.25 12 6.25V7.75C12.0039 7.75 12.0105 7.7492 12.0335 7.76C12.0639 7.77427 12.1204 7.80818 12.2119 7.88833C12.409 8.0609 12.6474 8.33564 13.0337 8.78513L14.1714 7.80748ZM10.9663 8.78513C11.3526 8.33564 11.591 8.0609 11.7881 7.88833C11.8796 7.80818 11.9361 7.77427 11.9665 7.76C11.9895 7.7492 11.9961 7.75 12 7.75V6.25C11.4984 6.25 11.1132 6.48551 10.8 6.75982C10.5036 7.01935 10.185 7.39277 9.82864 7.80748L10.9663 8.78513ZM13.7951 9.67103C14.4287 10.4083 14.846 10.897 15.0827 11.2709C15.3274 11.6575 15.2182 11.6726 15.2574 11.5914L16.6081 12.2438C16.9287 11.5801 16.6518 10.9453 16.3501 10.4686C16.0403 9.97923 15.5326 9.39142 14.9327 8.69337L13.7951 9.67103ZM12.7613 13.25C13.7 13.25 14.4868 13.2518 15.0687 13.1699C15.6317 13.0906 16.2928 12.8966 16.6081 12.2438L15.2574 11.5914C15.2914 11.521 15.3302 11.6182 14.8595 11.6845C14.4076 11.7482 13.7494 11.75 12.7613 11.75V13.25ZM11.2387 13.25H12.7613V11.75H11.2387V13.25ZM11.25 12.5L11.25 20H12.75L12.75 12.5H11.25Z" fill="#141B34"/>
</svg>
