<svg width="24" height="24" viewBox="0 0 24 24" fill="none" xmlns="http://www.w3.org/2000/svg">
<path fill-rule="evenodd" clip-rule="evenodd" d="M18.5821 6.83211C18.9726 6.44158 18.9726 5.80842 18.5821 5.41789C18.1916 5.02737 17.5584 5.02737 17.1679 5.41789L10.1825 12.4033C9.54929 11.7702 9.01406 11.2407 8.55516 10.8982C8.07232 10.5379 7.44704 10.2108 6.74345 10.4655C6.03986 10.7203 5.76889 11.3718 5.62865 11.9578C5.48846 12.5435 5.41588 13.3423 5.32925 14.2956L5.20613 15.65C5.15499 16.212 5.10954 16.7114 5.13003 17.1133C5.15219 17.548 5.25565 18.0079 5.62435 18.3766C5.99304 18.7453 6.45293 18.8488 6.88767 18.8709C7.28961 18.8914 7.78899 18.846 8.35096 18.7948L9.70532 18.6717C10.6586 18.5851 11.4574 18.5125 12.0432 18.3723C12.6291 18.2321 13.2807 17.9611 13.5354 17.2575C13.7902 16.5539 13.4631 15.9286 13.1027 15.4458C12.7601 14.9867 12.2302 14.4511 11.5967 13.8175L18.5821 6.83211Z" fill="#141B34"/>
</svg>
