<svg width="24" height="24" viewBox="0 0 24 24" fill="none" xmlns="http://www.w3.org/2000/svg">
<path fill-rule="evenodd" clip-rule="evenodd" d="M2.19488 4.9069C1.86736 5.35159 1.96235 5.97759 2.40705 6.3051C2.58581 6.43676 2.79387 6.50014 3.00007 6.49997L4.50012 6.49997L4.50012 14.5C4.50012 18.7552 7.62252 22 12.0001 22C12.5524 22 13.0001 21.5523 13.0001 21C13.0001 20.4477 12.5524 20 12.0001 20C8.74779 20 6.50012 17.6714 6.50012 14.5L6.50012 6.49997L8.00827 6.49997C8.21177 6.49847 8.41668 6.43504 8.59307 6.30513C9.03777 5.97762 9.13265 5.35146 8.80514 4.90676L8.80259 4.90339C8.74581 4.8282 8.58413 4.61414 8.49044 4.49409C8.301 4.25133 8.03872 3.9243 7.75223 3.59433C7.47005 3.26933 7.1447 2.91856 6.83078 2.64118C6.67496 2.5035 6.49836 2.36272 6.31294 2.25094C6.15497 2.15571 5.86092 1.99993 5.50008 1.99993C5.13924 1.99994 4.8452 2.15571 4.68723 2.25094C4.50181 2.36272 4.32521 2.50349 4.16939 2.64117C3.85546 2.91855 3.53011 3.26931 3.24793 3.59431C2.96144 3.92427 2.69915 4.25131 2.50971 4.49406C2.41617 4.61391 2.25476 4.82762 2.19771 4.90314L2.19766 4.90321L2.19488 4.9069Z" fill="#141B34"/>
<path fill-rule="evenodd" clip-rule="evenodd" d="M19.5 9.5C19.5 5.24485 16.3776 2 12 2C11.4477 2 11 2.44772 11 3C11 3.55228 11.4477 4 12 4C15.2523 4 17.5 6.3286 17.5 9.5L17.5 17.5L16 17.5C15.7938 17.4998 15.5857 17.5632 15.407 17.6948C14.9623 18.0223 14.8674 18.6485 15.1949 19.0932L15.1975 19.0967L15.1975 19.0967C15.2544 19.172 15.416 19.3859 15.5096 19.5059C15.6991 19.7486 15.9614 20.0757 16.2479 20.4056C16.53 20.7306 16.8554 21.0814 17.1693 21.3588C17.3251 21.4964 17.5017 21.6372 17.6872 21.749C17.8451 21.8442 18.1392 22 18.5 22C18.8608 22 19.1549 21.8442 19.3129 21.749C19.4983 21.6372 19.6749 21.4964 19.8307 21.3588C20.1446 21.0814 20.47 20.7306 20.7522 20.4056C21.0386 20.0756 21.3009 19.7486 21.4904 19.5058C21.584 19.3859 21.7456 19.1719 21.8025 19.0966L21.8052 19.093C22.1327 18.6483 22.0377 18.0223 21.593 17.6948C21.413 17.5622 21.2033 17.4989 20.9957 17.5L19.5 17.5L19.5 9.5Z" fill="#141B34"/>
</svg>
