<svg width="24" height="24" viewBox="0 0 24 24" fill="none" xmlns="http://www.w3.org/2000/svg">
<path d="M10.3571 8.5L11.058 8.233L10.874 7.75H10.3571V8.5ZM11.942 14.767L12.209 15.4679L13.6107 14.9339L13.3437 14.233L11.942 14.767ZM16.25 8.5V7.75H14.75V8.5H16.25ZM14.75 14.5V15.25H16.25V14.5H14.75ZM9.78571 8.5V7.75H9.26885L9.08485 8.233L9.78571 8.5ZM6.79913 14.233L6.53214 14.9339L7.93387 15.4679L8.20087 14.767L6.79913 14.233ZM9.65628 8.767L11.942 14.767L13.3437 14.233L11.058 8.233L9.65628 8.767ZM14.75 8.5V14.5H16.25V8.5H14.75ZM9.08485 8.233L6.79913 14.233L8.20087 14.767L10.4866 8.767L9.08485 8.233ZM8.11538 13.45H12.0714V11.95H8.11538V13.45ZM10.3571 7.75H9.78571V9.25H10.3571V7.75Z" fill="#141B34"/>
<path d="M22 13.9669V10.0332C19.1433 10.0332 17.2857 6.93041 18.732 4.46691L15.2679 2.5001C13.8038 4.99405 10.1978 4.99395 8.73363 2.5L5.26953 4.46681C6.71586 6.93035 4.85673 10.0332 2 10.0332V13.9669C4.85668 13.9669 6.71425 17.0697 5.26795 19.5332L8.73205 21.5C10.1969 19.0048 13.8046 19.0047 15.2695 21.4999L18.7336 19.5331C17.2874 17.0696 19.1434 13.9669 22 13.9669Z" stroke="#141B34" stroke-width="1.5" stroke-linecap="round" stroke-linejoin="round"/>
</svg>
