<svg width="24" height="24" viewBox="0 0 24 24" fill="none" xmlns="http://www.w3.org/2000/svg">
<path fill-rule="evenodd" clip-rule="evenodd" d="M20.2457 4.13252C18.5044 2.48292 15.9992 1.979 13.4447 2.38234C10.8845 2.78659 8.19789 4.10742 5.96286 6.22481C3.72851 8.34157 2.32269 10.8976 1.89133 13.3495C1.45943 15.8046 2.00385 18.2092 3.75433 19.8675C6.65196 22.6126 11.6009 22.2038 15.6562 19.6333L19.7308 21.2C20.0198 21.3111 20.3473 21.2333 20.5553 21.0041C20.7634 20.7749 20.8093 20.4414 20.6708 20.1646L18.9859 16.7952C20.7599 14.7942 21.8552 12.5037 22.1617 10.3151C22.489 7.97813 21.9155 5.71441 20.2457 4.13252ZM12.9999 7.50037C12.9999 6.94808 12.5522 6.50037 11.9999 6.50037C11.4476 6.50037 10.9999 6.94808 10.9999 7.50037V10.2684L8.60264 8.88434C8.12435 8.6082 7.51276 8.77207 7.23662 9.25037C6.96048 9.72866 7.12435 10.3402 7.60264 10.6164L9.99983 12.0004L7.60279 13.3843C7.12449 13.6605 6.96062 14.2721 7.23676 14.7504C7.5129 15.2287 8.12449 15.3925 8.60279 15.1164L10.9999 13.7324V16.5004C10.9999 17.0527 11.4476 17.5004 11.9999 17.5004C12.5522 17.5004 12.9999 17.0527 12.9999 16.5004V13.7325L15.3969 15.1164C15.8752 15.3925 16.4868 15.2287 16.7629 14.7504C17.039 14.2721 16.8752 13.6605 16.3969 13.3843L13.9998 12.0004L16.397 10.6164C16.8753 10.3402 17.0392 9.72866 16.763 9.25037C16.4869 8.77207 15.8753 8.6082 15.397 8.88434L12.9999 10.2683V7.50037Z" fill="#141B34"/>
</svg>
