<svg width="24" height="24" viewBox="0 0 24 24" fill="none" xmlns="http://www.w3.org/2000/svg">
<path fill-rule="evenodd" clip-rule="evenodd" d="M12 1.24902C7.44365 1.24902 3.75 4.94267 3.75 9.49902C3.75 14.0554 7.44365 17.749 12 17.749C16.5563 17.749 20.25 14.0554 20.25 9.49902C20.25 4.94267 16.5563 1.24902 12 1.24902ZM10.4638 12.8781L16.169 7.74342L14.8311 6.25684L10.5363 10.1222L9.20718 8.79302L7.79297 10.2072L10.4638 12.8781Z" fill="#141B34"/>
<path fill-rule="evenodd" clip-rule="evenodd" d="M8 20.1315V14.7495H6V21.7495C6 22.0961 6.17945 22.418 6.47427 22.6002C6.76909 22.7824 7.13723 22.7989 7.44721 22.6439L12 20.3675L16.5528 22.644C16.8628 22.799 17.2309 22.7824 17.5257 22.6002C17.8205 22.418 18 22.0961 18 21.7496V14.7496H16V20.1315L12.4472 18.3551C12.1657 18.2143 11.8343 18.2143 11.5528 18.3551L8 20.1315Z" fill="#141B34"/>
</svg>
