<svg width="24" height="24" viewBox="0 0 24 24" fill="none" xmlns="http://www.w3.org/2000/svg">
<path opacity="0.4" d="M3.75 9.49902C3.75 4.94267 7.44365 1.24902 12 1.24902C16.5563 1.24902 20.25 4.94267 20.25 9.49902C20.25 14.0554 16.5563 17.749 12 17.749C7.44365 17.749 3.75 14.0554 3.75 9.49902Z" fill="#141B34"/>
<path d="M15.9538 7.19998C16.1197 7.72678 15.8271 8.28827 15.3003 8.45412C14.5122 8.70221 13.5415 9.52207 12.6851 10.4346C12.2785 10.8678 11.5581 11.7738 11.3138 12.0814C11.1149 12.3595 10.7874 12.5173 10.446 12.4988C10.1045 12.4803 9.79609 12.2886 9.62842 11.9905C9.32472 11.4506 9.00137 11.2245 8.89501 11.1615C8.39207 11.109 8 10.6838 8 10.1669C8 9.61465 8.44772 9.16693 9 9.16693C9.51953 9.16693 9.75281 9.33954 9.97855 9.47331C10.1516 9.57588 10.3297 9.70763 10.5084 9.87499C10.7173 9.62684 10.9596 9.35054 11.2267 9.06594C12.0909 8.14513 13.3701 6.96499 14.6997 6.54642C15.2265 6.38058 15.788 6.67319 15.9538 7.19998Z" fill="#141B34"/>
<path d="M6.00852 15.1704L5.45551 17.819C5.25142 18.7963 5.08018 19.6164 5.02254 20.2511C4.96723 20.8602 4.97562 21.6313 5.50248 22.2135C5.77824 22.5182 6.13674 22.6996 6.54193 22.7411C6.90507 22.7782 7.24788 22.697 7.52839 22.6018C8.05151 22.4242 8.692 22.0735 9.39254 21.6899L11.744 20.4028C11.837 20.3519 11.9079 20.3131 11.9694 20.2809L12.0003 20.2648L12.0311 20.2809C12.0926 20.3131 12.1635 20.3519 12.2566 20.4028L14.608 21.6899C15.3086 22.0735 15.9491 22.4242 16.4722 22.6018C16.7527 22.697 17.0955 22.7782 17.4587 22.7411C17.8638 22.6996 18.2223 22.5182 18.4981 22.2135C19.025 21.6313 19.0334 20.8602 18.978 20.2511C18.9204 19.6164 18.7492 18.7963 18.5451 17.819L17.992 15.1699C17.4768 15.714 16.8884 16.188 16.2424 16.5761L16.5741 18.1646C16.7948 19.2218 16.9404 19.9269 16.9862 20.4319C16.9947 20.5253 16.9987 20.6023 16.9998 20.6654C16.6698 20.535 16.2078 20.2856 15.4903 19.8928L13.1907 18.6341C13.0323 18.5473 12.8598 18.4528 12.7016 18.3844C12.5173 18.3046 12.2829 18.2275 12.0003 18.2275C11.7177 18.2275 11.4832 18.3046 11.299 18.3844C11.1408 18.4528 10.9683 18.5473 10.8099 18.6341L8.51023 19.8928C7.79276 20.2856 7.33078 20.535 7.00081 20.6654C7.00193 20.6023 7.00587 20.5253 7.01434 20.4319C7.06021 19.9269 7.20576 19.2218 7.42649 18.1646L7.7581 16.5764C7.11214 16.1884 6.52368 15.7145 6.00852 15.1704Z" fill="#141B34"/>
</svg>
