<svg width="24" height="24" viewBox="0 0 24 24" fill="none" xmlns="http://www.w3.org/2000/svg">
<path d="M16.9996 10.4941C16.9996 10.4941 17.9996 13.4958 17.9996 16.4974C17.9996 19.4991 16.9996 22.0004 16.9996 22.0004H7.00049C7.00049 22.0004 6.00049 19.4991 6.00049 16.4974C6.00049 13.4958 7.00049 10.4941 7.00049 10.4941" stroke="#141B34" stroke-width="1.5" stroke-linejoin="round"/>
<path d="M13.9995 13.9961H17.4995M13.9995 17.9983H17.4995" stroke="#141B34" stroke-width="1.5" stroke-linejoin="round"/>
<path d="M16.9673 10.5042H6.96729C7.01251 9.84 7.21022 8.95808 8.02375 8.08295C8.83728 7.20782 10.1107 7.51731 10.4491 6.22809C10.6992 5.27562 9.58815 4.4552 10.1534 3.2329C10.7208 2.00582 11.9796 1.69127 13.0419 2.30302C13.8097 2.74521 14.1354 3.72749 13.8704 4.57689C13.6957 5.13668 13.4395 5.48343 13.4959 6.12457C13.6038 7.34966 14.953 7.20159 15.7758 7.98976C16.2883 8.4806 16.8588 8.98377 16.9673 10.5042Z" stroke="#141B34" stroke-width="1.5"/>
</svg>
