<svg width="24" height="24" viewBox="0 0 24 24" fill="none" xmlns="http://www.w3.org/2000/svg">
<path opacity="0.4" d="M9.70813 22.0008H14.2919C15.6168 22.0008 16.2792 22.0008 16.835 21.5389C17.3908 21.077 17.4952 20.5152 17.704 19.3914C17.8701 18.4972 18 17.424 18 16.2533C18 13.0048 17 10.5059 17 10.5059H7C7 10.5059 6 13.0048 6 16.2533C6 17.424 6.12986 18.4972 6.29598 19.3914C6.50478 20.5152 6.60919 21.077 7.16499 21.5389C7.72079 22.0008 8.38323 22.0008 9.70813 22.0008Z" fill="#141B34"/>
<path d="M17 10.5059C17 10.5059 18 13.0048 18 16.2533C18 17.424 17.8701 18.4972 17.704 19.3914C17.4952 20.5152 17.3908 21.077 16.835 21.5389C16.2792 22.0008 15.6168 22.0008 14.2919 22.0008H9.70813C8.38323 22.0008 7.72079 22.0008 7.16499 21.5389C6.60919 21.077 6.50478 20.5152 6.29598 19.3914C6.12986 18.4972 6 17.424 6 16.2533C6 13.0048 7 10.5059 7 10.5059" stroke="#141B34" stroke-width="1.5" stroke-linecap="round" stroke-linejoin="round"/>
<path d="M7.00402 10.5061H17.004C17.1519 9.69067 16.9252 8.1184 14.9646 7.49648C14.4993 7.34893 13.9539 7.07299 13.7084 6.60866C13.4911 6.19753 13.3894 5.64088 13.7151 5.02302C14.3173 3.88072 13.7362 2.47926 12.4861 2.0861C12.3299 2.03696 12.1671 2.0007 12.004 1.99908C11.8299 1.99736 11.6556 2.03363 11.4888 2.0861C10.2387 2.47926 9.65764 3.88072 10.2598 5.02302C10.5855 5.64088 10.4838 6.19753 10.2665 6.60866C10.0286 7.05866 9.51064 7.45825 9.02762 7.61141C7.67448 8.04054 6.74249 9.06365 7.00402 10.5061Z" stroke="#141B34" stroke-width="1.5" stroke-linecap="round" stroke-linejoin="round"/>
<path d="M15 14.0044H17.5M15 18.0026H17.5" stroke="#141B34" stroke-width="1.5" stroke-linecap="round" stroke-linejoin="round"/>
</svg>
