<svg width="24" height="24" viewBox="0 0 24 24" fill="none" xmlns="http://www.w3.org/2000/svg">
<path d="M18.4936 2.43553C18.3569 2.31591 18.1814 2.24998 17.9997 2.24998L14.25 2.24996V2.99997C14.25 4.23796 13.2436 5.24436 12.003 5.246C10.7601 5.24765 9.75 4.24029 9.75 2.99998V2.24998H6.00026C5.8186 2.24998 5.64312 2.31591 5.5064 2.43553L1.50614 5.93553C1.27873 6.1345 1.19294 6.45049 1.28849 6.73715L2.78849 11.2371C2.86042 11.453 3.02642 11.6245 3.23977 11.7034C3.45313 11.7823 3.69077 11.7601 3.88584 11.6431L5.25 10.8247V12.25H18.75V10.8247L20.1142 11.6431C20.3092 11.7601 20.5469 11.7823 20.7602 11.7034C20.9736 11.6245 21.1396 11.453 21.2115 11.2371L22.7115 6.73715C22.8071 6.45049 22.7213 6.1345 22.4939 5.93553L18.4936 2.43553Z" fill="#141B34"/>
<path d="M18.75 13.75H5.25V21.75H18.75V13.75Z" fill="#141B34"/>
</svg>
