<svg width="24" height="24" viewBox="0 0 24 24" fill="none" xmlns="http://www.w3.org/2000/svg">
<path fill-rule="evenodd" clip-rule="evenodd" d="M9.30582 4.0036C8.02465 4.87025 7.18248 6.33678 7.18248 8C7.18248 10.6628 9.3411 12.8214 12.0039 12.8214C14.6667 12.8214 16.8253 10.6628 16.8253 8C16.8253 5.3372 14.6667 3.17857 12.0039 3.17857C11.5521 3.17857 11.2325 3.5278 11.2325 3.90179C11.2325 4.27578 11.5521 4.625 12.0039 4.625C12.2101 4.625 12.3921 4.55043 12.528 4.43216C12.9298 4.08256 13.5389 4.12485 13.8885 4.5266C14.2381 4.92836 14.1958 5.53744 13.794 5.88704C13.3158 6.30318 12.6868 6.55357 12.0039 6.55357C10.5721 6.55357 9.36055 5.44435 9.30582 4.0036ZM12.0039 1.25C8.27598 1.25 5.25391 4.27208 5.25391 8C5.25391 11.7279 8.27598 14.75 12.0039 14.75C15.7318 14.75 18.7539 11.7279 18.7539 8C18.7539 4.27208 15.7318 1.25 12.0039 1.25Z" fill="#141B34"/>
<path fill-rule="evenodd" clip-rule="evenodd" d="M9.25 8C9.25 7.58579 9.58579 7.25 10 7.25H10.0081C10.4223 7.25 10.7581 7.58579 10.7581 8C10.7581 8.41421 10.4223 8.75 10.0081 8.75H10C9.58579 8.75 9.25 8.41421 9.25 8ZM13.25 8C13.25 7.58579 13.5858 7.25 14 7.25H14.0081C14.4223 7.25 14.7581 7.58579 14.7581 8C14.7581 8.41421 14.4223 8.75 14.0081 8.75H14C13.5858 8.75 13.25 8.41421 13.25 8Z" fill="#141B34"/>
<path fill-rule="evenodd" clip-rule="evenodd" d="M10.0727 12.8257C9.25675 12.5831 8.42799 12.1442 7.62034 11.4364L6.98413 10.8789L6.50683 11.5773C5.71422 12.7371 5.25 14.1565 5.25 15.6847C5.25 19.5503 8.23629 22.7505 12 22.7505C14.6194 22.7505 16.868 21.1942 17.9876 18.9496C16.4713 18.291 14.8272 17.3477 13.3318 16.1767C12.1109 15.2207 10.966 14.0946 10.0727 12.8257ZM18.5141 17.5427C18.668 16.9498 18.75 16.3267 18.75 15.6847C18.75 14.1565 18.2858 12.7371 17.4932 11.5773L17.0321 10.9027L16.3994 11.4197C15.6479 12.0339 14.2774 12.7904 12.6789 13.0093C12.5127 13.032 12.3441 13.049 12.1733 13.0594C12.7918 13.7533 13.4985 14.4021 14.2566 14.9957C15.6278 16.0694 17.1339 16.9362 18.5141 17.5427Z" fill="#141B34"/>
</svg>
