<svg width="24" height="24" viewBox="0 0 24 24" fill="none" xmlns="http://www.w3.org/2000/svg">
<path d="M14.456 1.52498C14.318 1.4926 14.249 1.47641 14.1871 1.48785C14.0921 1.50543 14.0058 1.57387 13.967 1.66234C13.9417 1.71995 13.9417 1.79423 13.9417 1.9428C14.155 4.2016 13.6272 6.37282 12.5757 8.23465C12.4431 8.46934 12.3768 8.58669 12.3978 8.69505C12.4187 8.80341 12.5231 8.88697 12.732 9.05409C13.5427 9.70288 14.2798 10.4399 14.9286 11.2507C15.0957 11.4596 15.1793 11.564 15.2876 11.585C15.396 11.6059 15.5134 11.5396 15.7481 11.407C17.6101 10.3551 19.7816 9.82709 22.0408 10.0405C22.188 10.0405 22.2616 10.0405 22.3187 10.0156C22.408 9.97687 22.4771 9.88977 22.4944 9.79395C22.5055 9.73264 22.4895 9.6643 22.4575 9.52761C21.5294 5.56938 18.414 2.45358 14.456 1.52498Z" fill="#141B34"/>
<path d="M13.2867 13.2781C13.4748 13.0904 13.5688 12.9965 13.5751 12.8817C13.5813 12.767 13.5038 12.6705 13.3488 12.4777C12.8028 11.7986 12.1844 11.1801 11.5053 10.6341C11.3124 10.479 11.216 10.4015 11.1012 10.4078C10.9864 10.414 10.8925 10.5081 10.7047 10.6962C8.46815 12.9367 5.31078 14.2599 1.94277 13.9417C1.79424 13.9417 1.71997 13.9417 1.66238 13.967C1.57388 14.0058 1.50542 14.0922 1.48786 14.1872C1.47642 14.249 1.49261 14.318 1.52498 14.456C2.45356 18.4139 5.56926 21.5293 9.52739 22.4574C9.66563 22.4898 9.73475 22.506 9.79669 22.4945C9.89153 22.4769 9.97775 22.4086 10.0166 22.3203C10.0419 22.2626 10.0419 22.1882 10.0419 22.0394C9.72375 18.6717 11.0467 15.5147 13.2867 13.2781Z" fill="#141B34"/>
<path d="M10.1008 7.39084C10.3471 7.51052 10.4703 7.57036 10.5845 7.53406C10.6987 7.49777 10.76 7.38643 10.8825 7.16377C11.7142 5.65237 12.1265 3.90238 11.9466 2.0899L11.9417 2.04062V1.84386C11.9417 1.55688 11.9417 1.41338 11.8474 1.32456C11.7531 1.23573 11.6151 1.24398 11.3391 1.26049C8.22046 1.44704 5.46001 2.96318 3.61694 5.24977C3.43424 5.47644 3.34289 5.58977 3.34676 5.70144C3.34954 5.78163 3.38965 5.86548 3.45034 5.91796C3.53485 5.99105 3.68704 5.99105 3.99143 5.99105C6.18176 5.99105 8.25461 6.49405 10.1008 7.39084Z" fill="#141B34"/>
<path d="M1.866 8.37045C1.93035 8.1905 1.96253 8.10053 2.04024 8.04579C2.11795 7.99105 2.21719 7.99105 2.41567 7.99105H3.99143C5.61561 7.99105 7.16444 8.31373 8.57729 8.89847C8.92233 9.04128 9.09485 9.11268 9.12107 9.27879C9.14729 9.4449 9.00636 9.56494 8.7245 9.80502C6.93383 11.3303 4.57564 12.1934 2.08987 11.9466L2.04059 11.9417H1.84386C1.55688 11.9417 1.41339 11.9417 1.32457 11.8474C1.23574 11.7531 1.24399 11.6152 1.26048 11.3394C1.32243 10.3034 1.5311 9.30689 1.866 8.37045Z" fill="#141B34"/>
<path d="M14.1777 15.2587C14.4178 14.9768 14.5378 14.8358 14.704 14.862C14.8701 14.8882 14.9415 15.0608 15.0843 15.4059C15.6689 16.8186 15.9914 18.3671 15.9914 19.9911V21.5663C15.9914 21.7648 15.9914 21.864 15.9367 21.9417C15.882 22.0194 15.792 22.0516 15.6121 22.116C14.676 22.4508 13.6799 22.6594 12.6443 22.7215C12.3685 22.7381 12.2305 22.7463 12.1362 22.6575C12.0419 22.5687 12.0419 22.4252 12.0419 22.1381V21.9416L12.037 21.8923C11.7903 19.407 12.653 17.0493 14.1777 15.2587Z" fill="#141B34"/>
<path d="M18.7322 20.3653C18.506 20.5476 18.3929 20.6388 18.2814 20.635C18.201 20.6324 18.1168 20.5921 18.0643 20.5311C17.9914 20.4467 17.9914 20.2948 17.9914 19.9911C17.9914 17.8008 17.4885 15.728 16.5917 13.8819C16.4721 13.6356 16.4123 13.5124 16.4485 13.3982C16.4848 13.2841 16.5961 13.2228 16.8188 13.1003C18.3304 12.2682 20.0808 11.8556 21.8937 12.0356L21.943 12.0405H22.1382C22.4252 12.0405 22.5687 12.0405 22.6575 12.1348C22.7464 12.2291 22.7381 12.367 22.7216 12.643C22.535 15.7617 21.0188 18.5222 18.7322 20.3653Z" fill="#141B34"/>
</svg>
