<svg width="24" height="24" viewBox="0 0 24 24" fill="none" xmlns="http://www.w3.org/2000/svg">
<path d="M19.0099 10.5117L21.1687 10.8684C21.6515 10.9481 22.0057 11.3656 22.0057 11.855V14.1515C22.0057 14.6379 21.6556 15.0538 21.1762 15.1368L19.0099 15.5117" stroke="#141B34" stroke-width="1.5" stroke-linecap="round" stroke-linejoin="round"/>
<path d="M5.03211 20C4.53145 14.4258 9.13544 13.8065 11.1865 11.2258M11.221 16.2171C13.8309 15.4832 15.1971 13.8829 15.818 11.2258C16.5375 8.28561 15.0137 4 12.0079 4C12.0079 4 13.0214 5.46774 12.5088 6.5C11.4414 8.84753 7.78148 7.5 6.49723 10.5C5.78406 12.166 6.11752 14.6259 7.45949 15.6933C8.30273 16.3642 9.96779 16.5695 11.221 16.2171Z" stroke="#141B34" stroke-width="1.5" stroke-linecap="round" stroke-linejoin="round"/>
<path d="M4.99432 7H3.99432C2.88975 7 1.99432 7.89543 1.99432 9V18M8.99432 19H16.9943C18.0989 19 18.9943 18.1046 18.9943 17V8" stroke="#141B34" stroke-width="1.5" stroke-linecap="round" stroke-linejoin="round"/>
</svg>
