<svg width="24" height="24" viewBox="0 0 24 24" fill="none" xmlns="http://www.w3.org/2000/svg">
<path opacity="0.4" fill-rule="evenodd" clip-rule="evenodd" d="M1.25 11.0227C1.25 5.6254 5.6254 1.25 11.0227 1.25C16.4201 1.25 20.7955 5.6254 20.7955 11.0227C20.7955 16.4201 16.4201 20.7955 11.0227 20.7955C5.6254 20.7955 1.25 16.4201 1.25 11.0227ZM11.0227 3.20455C6.70486 3.20455 3.20455 6.70486 3.20455 11.0227C3.20455 15.3406 6.70486 18.8409 11.0227 18.8409C15.3406 18.8409 18.8409 15.3406 18.8409 11.0227C18.8409 6.70486 15.3406 3.20455 11.0227 3.20455Z" fill="#141B34"/>
<path fill-rule="evenodd" clip-rule="evenodd" d="M11.0229 5.64746C11.5626 5.64746 12.0001 6.085 12.0001 6.62473V7.11337H12.8552C14.0022 7.11337 14.932 8.04314 14.932 9.19007V9.92303C14.932 10.3268 14.8167 10.7036 14.6174 11.0225C14.8167 11.3413 14.932 11.7181 14.932 12.1219V12.8548C14.932 14.0018 14.0022 14.9316 12.8552 14.9316H12.0001V15.4202C12.0001 15.9599 11.5626 16.3975 11.0229 16.3975C10.4831 16.3975 10.0456 15.9599 10.0456 15.4202V14.9316H8.09104C7.55131 14.9316 7.11377 14.494 7.11377 13.9543C7.11377 13.4145 7.55131 12.977 8.09104 12.977H8.2132L8.2132 9.06792H8.09104C7.55131 9.06792 7.11377 8.63038 7.11377 8.09064C7.11377 7.55091 7.55131 7.11337 8.09104 7.11337H10.0456V6.62473C10.0456 6.085 10.4831 5.64746 11.0229 5.64746ZM10.1677 9.06792V10.0452H12.8552C12.9227 10.0452 12.9774 9.9905 12.9774 9.92303V9.19007C12.9774 9.12261 12.9227 9.06792 12.8552 9.06792H10.1677ZM12.8552 11.9997H10.1677V12.977H12.8552C12.9227 12.977 12.9774 12.9223 12.9774 12.8548V12.1219C12.9774 12.0544 12.9227 11.9997 12.8552 11.9997Z" fill="#141B34"/>
<path d="M17.2075 18.5891C17.7129 18.1756 18.176 17.7124 18.5896 17.207L22.4634 21.0808C22.845 21.4625 22.845 22.0813 22.4634 22.4629C22.0817 22.8446 21.463 22.8446 21.0813 22.4629L17.2075 18.5891Z" fill="#141B34"/>
</svg>
