<svg width="24" height="24" viewBox="0 0 24 24" fill="none" xmlns="http://www.w3.org/2000/svg">
<path fill-rule="evenodd" clip-rule="evenodd" d="M11.9998 1.25C11.3525 1.25 10.8875 1.65936 10.6413 1.90644C10.5381 2.01 10.4421 2.13129 10.3451 2.25393C10.1615 2.48602 9.97396 2.723 9.72609 2.85411C9.4601 2.99481 9.12871 2.89996 8.84338 2.8183L8.84337 2.8183C8.7927 2.8038 8.74349 2.78972 8.69636 2.77744C8.39842 2.69989 7.94432 2.58244 7.46314 2.64649C7.25403 2.67432 6.97966 2.74083 6.76709 2.9301C6.51535 3.15425 6.47472 3.43315 6.51153 3.64394C6.55631 3.9004 6.71515 4.11086 6.87107 4.31102L7.7634 5.4599L7.80362 5.51191C8.0202 5.79212 8.23886 6.07503 8.52664 6.28636C8.75302 6.4526 9.03947 6.5 9.32033 6.5H14.6793C14.9601 6.5 15.2466 6.4526 15.473 6.28636C15.7607 6.07504 15.9794 5.79215 16.196 5.51194L16.2362 5.4599L17.1285 4.31102C17.2845 4.11086 17.4433 3.90039 17.4881 3.64394C17.5249 3.43315 17.4843 3.15425 17.2325 2.9301C17.0199 2.74083 16.7456 2.67432 16.5365 2.64649C16.0553 2.58244 15.6012 2.69989 15.3032 2.77744C15.2561 2.78972 15.2069 2.80381 15.1562 2.81831C14.8709 2.89996 14.5395 2.99481 14.2735 2.85411C14.0256 2.723 13.8381 2.48602 13.6545 2.25393C13.5575 2.13129 13.4615 2.01001 13.3583 1.90644C13.1121 1.65936 12.6471 1.25 11.9998 1.25ZM21.4341 16.8954C20.8807 13.5816 19.251 10.4506 16.8357 8.11274L16.8357 8.11274C16.735 8.01526 16.6846 7.9665 16.5726 7.88473C16.3476 7.72042 15.9453 7.5576 15.6693 7.51914C15.532 7.5 15.4332 7.5 15.2357 7.5H8.76433C8.56681 7.5 8.46805 7.5 8.3307 7.51914C8.05472 7.5576 7.65241 7.72042 7.42736 7.88473C7.32321 7.96078 7.2307 8.04847 7.13824 8.13796C5.3201 9.89741 3.23599 12.883 2.56588 16.8954C2.28257 18.5918 2.93732 20.0804 4.06254 21.12C5.17649 22.1493 6.75586 22.75 8.40305 22.75H15.5969C17.2441 22.75 18.8235 22.1493 19.9375 21.12C21.0627 20.0804 21.7174 18.5918 21.4341 16.8954ZM12.75 10.75C12.75 10.3358 12.4142 10 12 10C11.5858 10 11.25 10.3358 11.25 10.75V11.5H9C8.58579 11.5 8.25 11.8358 8.25 12.25C8.25 12.6642 8.58579 13 9 13H9.375V17.5H9C8.58579 17.5 8.25 17.8358 8.25 18.25C8.25 18.6642 8.58579 19 9 19H11.25V19.75C11.25 20.1642 11.5858 20.5 12 20.5C12.4142 20.5 12.75 20.1642 12.75 19.75V19H13.875C14.9105 19 15.75 18.1605 15.75 17.125V16.375C15.75 15.9529 15.6105 15.5634 15.3751 15.25C15.6105 14.9366 15.75 14.5471 15.75 14.125V13.375C15.75 12.3395 14.9105 11.5 13.875 11.5H12.75V10.75ZM10.875 14.5V13H13.875C14.0821 13 14.25 13.1679 14.25 13.375V14.125C14.25 14.3321 14.0821 14.5 13.875 14.5H10.875ZM10.875 16H13.875C14.0821 16 14.25 16.1679 14.25 16.375V17.125C14.25 17.3321 14.0821 17.5 13.875 17.5H10.875V16Z" fill="#141B34"/>
</svg>
