<svg width="24" height="24" viewBox="0 0 24 24" fill="none" xmlns="http://www.w3.org/2000/svg">
<path fill-rule="evenodd" clip-rule="evenodd" d="M6.24951 3.24902H1.24951V8.24902H2.99951C4.79444 8.24902 6.24951 6.79395 6.24951 4.99902V3.24902ZM1.24951 9.74902H2.99951C5.62286 9.74902 7.74951 7.62237 7.74951 4.99902V3.24902H16.7495V4.49902C16.7495 7.12237 18.8762 9.24902 21.4995 9.24902H22.7495V14.249H20.9995C18.3762 14.249 16.2495 16.3757 16.2495 18.999V20.749H7.74951V18.999C7.74951 16.3757 5.62286 14.249 2.99951 14.249H1.24951V9.74902ZM6.24951 20.749V18.999C6.24951 17.2041 4.79444 15.749 2.99951 15.749H1.24951V20.749H6.24951ZM17.7495 20.749H22.7495V15.749H20.9995C19.2046 15.749 17.7495 17.2041 17.7495 18.999V20.749ZM22.7495 7.74902V3.24902H18.2495V4.49902C18.2495 6.29395 19.7046 7.74902 21.4995 7.74902H22.7495ZM12.7505 8.58333V7.25H11.2505V8.58333H8.75049V10.0833H9.68799V13.9167H8.75049V15.4167H11.2505V16.75H12.7505V15.4167H13.563C14.5398 15.4167 15.2505 14.5868 15.2505 13.6667V13C15.2505 12.6376 15.1403 12.2892 14.9469 12C15.1403 11.7108 15.2505 11.3624 15.2505 11V10.3333C15.2505 9.41317 14.5398 8.58333 13.563 8.58333H12.7505ZM11.188 11.25V10.0833H13.563C13.6217 10.0833 13.7505 10.1489 13.7505 10.3333V11C13.7505 11.1844 13.6217 11.25 13.563 11.25H11.188ZM11.188 12.75H13.563C13.6217 12.75 13.7505 12.8156 13.7505 13V13.6667C13.7505 13.8511 13.6217 13.9167 13.563 13.9167H11.188V12.75Z" fill="#141B34"/>
</svg>
