<svg width="24" height="24" viewBox="0 0 24 24" fill="none" xmlns="http://www.w3.org/2000/svg">
<path d="M19.5589 6C19.5589 5.17157 18.8851 4.5 18.0539 4.5C17.2227 4.5 16.5488 5.17157 16.5488 6C16.5488 6.82843 17.2227 7.5 18.0539 7.5C18.8851 7.5 19.5589 6.82843 19.5589 6Z" stroke="#141B34" stroke-width="1.5" stroke-linecap="round" stroke-linejoin="round"/>
<path d="M12.0391 2.06123L2.06825 11.9184C2.02886 11.9573 2.02866 12.0207 2.0678 12.0599L11.9971 22.0012C12.0365 22.0406 12.1005 22.0404 12.1397 22.0008L22.0114 12.0181C22.0299 11.9994 22.0403 11.9742 22.0403 11.9479V2.03223H12.1097C12.0832 2.03223 12.0578 2.04265 12.0391 2.06123Z" stroke="#141B34" stroke-width="1.5" stroke-linecap="round"/>
<path d="M8.61945 12.8187L12.4519 8.96058M13.6361 10.0536L14.5358 9.14449M8.77538 14.8779L9.74641 13.9362M10.5613 10.8907L12.7701 13.1191M12.7701 13.1191C13.1368 13.4946 13.1723 14.1264 12.7701 14.5165L12.2846 14.9874C11.8823 15.3774 11.188 15.4339 10.8082 14.9874L7.95312 12.1469M12.7701 13.1191C13.1368 13.4946 13.775 13.5092 14.1773 13.1191L14.6628 12.6482C15.065 12.2581 15.1508 11.6126 14.7706 11.2849L11.7917 8.29883" stroke="#141B34" stroke-width="1.5" stroke-linecap="square"/>
</svg>
