<svg width="24" height="24" viewBox="0 0 24 24" fill="none" xmlns="http://www.w3.org/2000/svg">
<path d="M8.00378 6C11.3169 6 14.0027 5.10457 14.0027 4C14.0027 2.89543 11.3169 2 8.00378 2C4.69068 2 2.00488 2.89543 2.00488 4C2.00488 5.10457 4.69068 6 8.00378 6Z" stroke="#141B34" stroke-width="1.5"/>
<path opacity="0.4" d="M15.5027 9C11.9136 9 9.00391 11.9101 9.00391 15.5C9.00391 19.0898 11.9136 22 15.5027 22C19.0919 22 22.0015 19.0899 22.0015 15.5C22.0015 11.9101 19.0919 9 15.5027 9Z" stroke="#141B34" stroke-width="1.5" stroke-linecap="round" stroke-linejoin="round"/>
<path d="M13.9403 18.1667V12.8333M15.5025 12.8333V11.5M15.5025 19.5V18.1667M13.9403 15.5H17.0647M17.0647 15.5C17.5824 15.5 18.002 15.9477 18.002 16.5V17.1667C18.002 17.719 17.5824 18.1667 17.0647 18.1667H13.0029M17.0647 15.5C17.5824 15.5 18.002 15.0523 18.002 14.5V13.8333C18.002 13.281 17.5824 12.8333 17.0647 12.8333H13.0029" stroke="#141B34" stroke-width="1.5" stroke-linecap="round" stroke-linejoin="round"/>
<path d="M1.99805 4V8.02171V12.0434C1.99805 12.7473 3.187 13.5448 6.13971 13.912M2.18371 8.53937C3.38856 9.60133 5.48458 9.99502 7.78032 9.99502M13.9915 4.12134V6.13597" stroke="#141B34" stroke-width="1.5" stroke-linecap="round" stroke-linejoin="round"/>
</svg>
