<svg width="24" height="24" viewBox="0 0 24 24" fill="none" xmlns="http://www.w3.org/2000/svg">
<path fill-rule="evenodd" clip-rule="evenodd" d="M10.5 2.75C10.5 1.92157 11.1716 1.25 12 1.25C12.8284 1.25 13.5 1.92157 13.5 2.75C13.5 3.30521 13.1984 3.78997 12.75 4.04933V5.5C12.75 5.91421 12.4142 6.25 12 6.25C11.5858 6.25 11.25 5.91421 11.25 5.5V4.04933C10.8016 3.78997 10.5 3.30521 10.5 2.75Z" fill="#141B34"/>
<path fill-rule="evenodd" clip-rule="evenodd" d="M4.25 2.75C4.25 1.92157 4.92157 1.25 5.75 1.25C6.57843 1.25 7.25 1.92157 7.25 2.75C7.25 3.30521 6.94835 3.78997 6.5 4.04933V5.13953L7.46852 5.91435C7.79197 6.17311 7.84441 6.64507 7.58565 6.96852C7.32689 7.29197 6.85493 7.34441 6.53148 7.08565L5.28148 6.08565C5.10357 5.94332 5 5.72784 5 5.5V4.04933C4.55165 3.78997 4.25 3.30521 4.25 2.75Z" fill="#141B34"/>
<path fill-rule="evenodd" clip-rule="evenodd" d="M19.75 2.75C19.75 1.92157 19.0784 1.25 18.25 1.25C17.4216 1.25 16.75 1.92157 16.75 2.75C16.75 3.30521 17.0516 3.78997 17.5 4.04933V5.13953L16.5315 5.91435C16.208 6.17311 16.1556 6.64507 16.4143 6.96852C16.6731 7.29197 17.1451 7.34441 17.4685 7.08565L18.7185 6.08565C18.8964 5.94332 19 5.72784 19 5.5V4.04933C19.4484 3.78997 19.75 3.30521 19.75 2.75Z" fill="#141B34"/>
<path opacity="0.4" d="M19.75 15C19.75 19.2802 16.2802 22.75 12 22.75C7.71979 22.75 4.25 19.2802 4.25 15C4.25 10.7198 7.71979 7.25 12 7.25C16.2802 7.25 19.75 10.7198 19.75 15Z" fill="#141B34"/>
<path fill-rule="evenodd" clip-rule="evenodd" d="M12 10.25C12.4142 10.25 12.75 10.5858 12.75 11V11.5833H13.5625C14.5393 11.5833 15.25 12.4132 15.25 13.3333V14C15.25 14.3624 15.1398 14.7108 14.9465 15C15.1398 15.2892 15.25 15.6376 15.25 16V16.6667C15.25 17.5868 14.5393 18.4167 13.5625 18.4167H12.75V19C12.75 19.4142 12.4142 19.75 12 19.75C11.5858 19.75 11.25 19.4142 11.25 19V18.4167H9.5C9.08579 18.4167 8.75 18.0809 8.75 17.6667C8.75 17.2525 9.08579 16.9167 9.5 16.9167H9.6875L9.6875 13.0833H9.5C9.08579 13.0833 8.75 12.7475 8.75 12.3333C8.75 11.9191 9.08579 11.5833 9.5 11.5833H11.25V11C11.25 10.5858 11.5858 10.25 12 10.25ZM11.1875 13.0833V14.25H13.5625C13.6212 14.25 13.75 14.1844 13.75 14V13.3333C13.75 13.1489 13.6212 13.0833 13.5625 13.0833H11.1875ZM13.5625 15.75H11.1875L11.1875 16.9167H13.5625C13.6212 16.9167 13.75 16.8511 13.75 16.6667V16C13.75 15.8156 13.6212 15.75 13.5625 15.75Z" fill="#141B34"/>
</svg>
