<svg width="24" height="24" viewBox="0 0 24 24" fill="none" xmlns="http://www.w3.org/2000/svg">
<path fill-rule="evenodd" clip-rule="evenodd" d="M10.5 2.75C10.5 1.92157 11.1716 1.25 12 1.25C12.8284 1.25 13.5 1.92157 13.5 2.75C13.5 3.30521 13.1984 3.78997 12.75 4.04933V6.25H11.25V4.04933C10.8016 3.78997 10.5 3.30521 10.5 2.75Z" fill="#141B34"/>
<path fill-rule="evenodd" clip-rule="evenodd" d="M4.25 2.75C4.25 1.92157 4.92157 1.25 5.75 1.25C6.57843 1.25 7.25 1.92157 7.25 2.75C7.25 3.30521 6.94835 3.78997 6.5 4.04933V5.13953L8.05417 6.38287L7.11713 7.55417L5 5.86047V4.04933C4.55165 3.78997 4.25 3.30521 4.25 2.75Z" fill="#141B34"/>
<path fill-rule="evenodd" clip-rule="evenodd" d="M19.75 2.75C19.75 1.92157 19.0784 1.25 18.25 1.25C17.4216 1.25 16.75 1.92157 16.75 2.75C16.75 3.30521 17.0516 3.78997 17.5 4.04933V5.13953L15.9458 6.38287L16.8829 7.55417L19 5.86047V4.04933C19.4484 3.78997 19.75 3.30521 19.75 2.75Z" fill="#141B34"/>
<path fill-rule="evenodd" clip-rule="evenodd" d="M12 22.75C16.2802 22.75 19.75 19.2802 19.75 15C19.75 10.7198 16.2802 7.25 12 7.25C7.71979 7.25 4.25 10.7198 4.25 15C4.25 19.2802 7.71979 22.75 12 22.75ZM12.75 11.5833V10.25H11.25V11.5833H8.75V13.0833H9.6875V16.9167H8.75V18.4167H11.25V19.75H12.75V18.4167H13.5625C14.5393 18.4167 15.25 17.5868 15.25 16.6667V16C15.25 15.6376 15.1398 15.2892 14.9465 15C15.1398 14.7108 15.25 14.3624 15.25 14V13.3333C15.25 12.4132 14.5393 11.5833 13.5625 11.5833H12.75ZM11.1875 14.25V13.0833H13.5625C13.6212 13.0833 13.75 13.1489 13.75 13.3333V14C13.75 14.1844 13.6212 14.25 13.5625 14.25H11.1875ZM11.1875 15.75H13.5625C13.6212 15.75 13.75 15.8156 13.75 16V16.6667C13.75 16.8511 13.6212 16.9167 13.5625 16.9167H11.1875V15.75Z" fill="#141B34"/>
</svg>
