<svg width="24" height="24" viewBox="0 0 24 24" fill="none" xmlns="http://www.w3.org/2000/svg">
<path fill-rule="evenodd" clip-rule="evenodd" d="M16.6842 16.6842C17.0658 16.3025 17.6846 16.3025 18.0663 16.6842L22.464 21.0819C22.8456 21.4636 22.8456 22.0823 22.464 22.464C22.0823 22.8456 21.4636 22.8456 21.0819 22.464L16.6842 18.0663C16.3025 17.6846 16.3025 17.0658 16.6842 16.6842Z" fill="#141B34"/>
<path fill-rule="evenodd" clip-rule="evenodd" d="M1.25 11.0232C1.25 5.62589 5.6254 1.25049 11.0227 1.25049C16.4201 1.25049 20.7955 5.62589 20.7955 11.0232C20.7955 16.4205 16.4201 20.7959 11.0227 20.7959C5.6254 20.7959 1.25 16.4205 1.25 11.0232ZM11.0227 3.20503C6.70486 3.20503 3.20455 6.70535 3.20455 11.0232C3.20455 15.3411 6.70486 18.8414 11.0227 18.8414C15.3406 18.8414 18.8409 15.3411 18.8409 11.0232C18.8409 6.70535 15.3406 3.20503 11.0227 3.20503Z" fill="#141B34"/>
<path fill-rule="evenodd" clip-rule="evenodd" d="M11.0229 5.64795C11.5626 5.64795 12.0001 6.08549 12.0001 6.62522V7.11386H12.8552C14.0022 7.11386 14.932 8.04363 14.932 9.19056V9.92352C14.932 10.3273 14.8167 10.7041 14.6174 11.023C14.8167 11.3418 14.932 11.7186 14.932 12.1224V12.8553C14.932 14.0023 14.0022 14.932 12.8552 14.932H12.0001V15.4207C12.0001 15.9604 11.5626 16.3979 11.0229 16.3979C10.4831 16.3979 10.0456 15.9604 10.0456 15.4207V14.932H8.09104C7.55131 14.932 7.11377 14.4945 7.11377 13.9548C7.11377 13.415 7.55131 12.9775 8.09104 12.9775H8.2132L8.2132 9.0684H8.09104C7.55131 9.0684 7.11377 8.63086 7.11377 8.09113C7.11377 7.5514 7.55131 7.11386 8.09104 7.11386H10.0456V6.62522C10.0456 6.08549 10.4831 5.64795 11.0229 5.64795ZM10.1677 9.0684V10.0457H12.8552C12.9227 10.0457 12.9774 9.99098 12.9774 9.92352V9.19056C12.9774 9.1231 12.9227 9.0684 12.8552 9.0684H10.1677ZM12.8552 12.0002H10.1677V12.9775H12.8552C12.9227 12.9775 12.9774 12.9228 12.9774 12.8553V12.1224C12.9774 12.0549 12.9227 12.0002 12.8552 12.0002Z" fill="#141B34"/>
</svg>
