<svg width="24" height="24" viewBox="0 0 24 24" fill="none" xmlns="http://www.w3.org/2000/svg">
<path d="M11.5 8.99988C7.91015 8.99988 5 11.91 5 15.4999C5 19.0897 7.91015 21.9999 11.5 21.9999C15.0898 21.9999 18 19.0897 18 15.4999C18 11.91 15.0898 8.99988 11.5 8.99988Z" stroke="#141B34" stroke-width="1.5" stroke-linecap="round" stroke-linejoin="round"/>
<path d="M11.4999 6.5L11.5001 2.86232M8.99994 4.5L11.5001 1.99994L13.9999 4.49988" stroke="#141B34" stroke-width="1.5" stroke-linecap="round" stroke-linejoin="round"/>
<path d="M9.9375 18.1667L9.9375 12.8333M11.5 12.8333V11.5M11.5 19.5V18.1667M9.9375 15.5H13.0625M13.0625 15.5C13.5803 15.5 14 15.9477 14 16.5V17.1667C14 17.719 13.5803 18.1667 13.0625 18.1667H9M13.0625 15.5C13.5803 15.5 14 15.0523 14 14.5V13.8333C14 13.281 13.5803 12.8333 13.0625 12.8333H9" stroke="#141B34" stroke-width="1.5" stroke-linecap="round" stroke-linejoin="round"/>
</svg>
