<svg width="24" height="24" viewBox="0 0 24 24" fill="none" xmlns="http://www.w3.org/2000/svg">
<path d="M2.25 14C2.25 13.5858 2.58579 13.25 3 13.25H6C6.12639 13.25 6.25072 13.2819 6.36146 13.3429L8.69266 14.6251H9.5C10.7384 14.6251 11.7644 15.2585 12.3145 16.1044L9 17.7093L6.23717 16.7883L5.76283 18.2113L8.76283 19.2113C8.91678 19.2627 9.08322 19.2627 9.23717 19.2113L13.7965 16.9797V15.6104L15.9731 14.8848C17.3544 14.4244 18.8553 15.1205 19.396 16.4724L19.6957 17.2215C19.8405 17.5836 19.6836 17.9964 19.3347 18.1708L10.3347 22.6708C10.1675 22.7544 9.97506 22.7726 9.79515 22.7217L2.79584 20.7416C2.47293 20.6503 2.25 20.3555 2.25 20.0199V14Z" fill="#141B34"/>
<path fill-rule="evenodd" clip-rule="evenodd" d="M9.07797 13.1251L6.83257 11.9533C6.45712 11.0431 6.25 10.0457 6.25 8.99996C6.25 4.71976 9.71979 1.24996 14 1.24996C18.2802 1.24997 21.75 4.71976 21.75 8.99997C21.75 11.0515 20.9529 12.9168 19.6514 14.3032C18.5497 13.3347 16.9798 12.9681 15.4988 13.4618L12.7825 14.3672C11.9391 13.6106 10.8242 13.1251 9.07797 13.1251ZM14.75 4.5833V3.24996L13.25 3.24996L13.25 4.5833H10.75V6.0833H11.6875L11.6875 9.91663H10.75V11.4166H13.25V12.75L14.75 12.75V11.4166L15.5625 11.4166C16.5393 11.4166 17.25 10.5868 17.25 9.66663V8.99996C17.25 8.63756 17.1398 8.28917 16.9465 7.99996C17.1398 7.71076 17.25 7.36237 17.25 6.99996V6.3333C17.25 5.41313 16.5393 4.5833 15.5625 4.5833H14.75ZM13.1875 7.24996V6.0833L15.5625 6.0833C15.6212 6.0833 15.75 6.1489 15.75 6.3333V6.99996C15.75 7.18437 15.6212 7.24996 15.5625 7.24996H13.1875ZM13.1875 8.74996H15.5625C15.6212 8.74996 15.75 8.81556 15.75 8.99996V9.66663C15.75 9.85103 15.6212 9.91663 15.5625 9.91663H13.1875L13.1875 8.74996Z" fill="#141B34"/>
</svg>
