<svg width="24" height="24" viewBox="0 0 24 24" fill="none" xmlns="http://www.w3.org/2000/svg">
<path opacity="0.4" fill-rule="evenodd" clip-rule="evenodd" d="M22.75 8.5V4.5C22.75 3.9558 22.3778 3.6303 22.1251 3.4547C21.8774 3.28259 21.5324 3.11092 21.168 2.92958L21.168 2.92957L21.168 2.92957L19.2499 1.97434C19.0824 1.88913 18.8089 1.75 18.5 1.75C18.1911 1.75 17.9176 1.88913 17.7501 1.97434L15.832 2.92958L15.832 2.92958C15.4676 3.11092 15.1226 3.28259 14.8749 3.4547C14.6222 3.6303 14.25 3.9558 14.25 4.5V8.5C14.25 9.0442 14.6222 9.3697 14.8749 9.54531C15.1226 9.71741 15.4676 9.88908 15.832 10.0704L15.832 10.0704L17.7501 11.0257C17.9176 11.1109 18.1911 11.25 18.5 11.25C18.8089 11.25 19.0824 11.1109 19.2499 11.0257L21.168 10.0704C21.5324 9.88909 21.8774 9.71741 22.1251 9.54531C22.3778 9.3697 22.75 9.0442 22.75 8.5ZM17.75 9.34935L15.75 8.32625V6.0293L17.75 7.0253V9.34935ZM19.25 7.0253L21.25 6.0293V8.32625L19.25 9.34935V7.0253Z" fill="#141B34"/>
<path opacity="0.4" fill-rule="evenodd" clip-rule="evenodd" d="M9.75 8.5V4.5C9.75 3.9558 9.37777 3.6303 9.12507 3.4547C8.87741 3.28259 8.53242 3.11092 8.16799 2.92958L8.16797 2.92957L8.16797 2.92957L6.24986 1.97434C6.08237 1.88913 5.80889 1.75 5.5 1.75C5.19111 1.75 4.91763 1.88913 4.75014 1.97434L2.83203 2.92958L2.83202 2.92958C2.46759 3.11092 2.12259 3.28259 1.87493 3.4547C1.62223 3.6303 1.25 3.9558 1.25 4.5V8.5C1.25 9.0442 1.62224 9.3697 1.87493 9.54531C2.12259 9.71741 2.46758 9.88908 2.83201 10.0704L2.83202 10.0704L4.75014 11.0257C4.91763 11.1109 5.19111 11.25 5.5 11.25C5.80889 11.25 6.08237 11.1109 6.24987 11.0257L8.16796 10.0704C8.5324 9.88909 8.87741 9.71741 9.12507 9.54531C9.37777 9.3697 9.75 9.0442 9.75 8.5ZM4.75 9.34935L2.75 8.32625V6.0293L4.75 7.0253V9.34935ZM6.25 7.0253L8.25 6.0293V8.32625L6.25 9.34935V7.0253Z" fill="#141B34"/>
<path d="M10.75 6.5C10.75 6.08579 11.0858 5.75 11.5 5.75H12.5C12.9142 5.75 13.25 6.08579 13.25 6.5C13.25 6.91421 12.9142 7.25 12.5 7.25H11.5C11.0858 7.25 10.75 6.91421 10.75 6.5Z" fill="#141B34"/>
<path d="M2 11.75C2.41421 11.75 2.75 12.0858 2.75 12.5V16C2.75 16.7178 2.75091 17.1998 2.78828 17.5672C2.82438 17.922 2.8882 18.086 2.96066 18.1945C3.05186 18.3309 3.16905 18.4481 3.30554 18.5393C3.41399 18.6118 3.57796 18.6756 3.93283 18.7117C4.30023 18.7491 4.78216 18.75 5.5 18.75C5.91422 18.75 6.25 19.0858 6.25 19.5C6.25 19.9142 5.91422 20.25 5.5 20.25L5.46166 20.25C4.79208 20.25 4.23335 20.25 3.78102 20.204C3.30755 20.1559 2.86818 20.0511 2.47218 19.7865C2.17191 19.5859 1.9141 19.3281 1.71346 19.0278C1.44886 18.6318 1.34415 18.1925 1.29598 17.719C1.24997 17.2667 1.24998 16.7079 1.25 16.0384V16.0383V12.5C1.25 12.0858 1.58579 11.75 2 11.75Z" fill="#141B34"/>
<path d="M22 11.75C22.4142 11.75 22.75 12.0858 22.75 12.5V16.0383V16.0384C22.75 16.7079 22.75 17.2667 22.704 17.719C22.6559 18.1925 22.5511 18.6318 22.2865 19.0278C22.0859 19.3281 21.8281 19.5859 21.5278 19.7865C21.1318 20.0511 20.6925 20.1559 20.219 20.204C19.7666 20.25 19.2079 20.25 18.5383 20.25L18.5 20.25C18.0858 20.25 17.75 19.9142 17.75 19.5C17.75 19.0858 18.0858 18.75 18.5 18.75C19.2178 18.75 19.6998 18.7491 20.0672 18.7117C20.422 18.6756 20.586 18.6118 20.6945 18.5393C20.831 18.4481 20.9481 18.3309 21.0393 18.1945C21.1118 18.086 21.1756 17.922 21.2117 17.5672C21.2491 17.1998 21.25 16.7178 21.25 16V12.5C21.25 12.0858 21.5858 11.75 22 11.75Z" fill="#141B34"/>
<path fill-rule="evenodd" clip-rule="evenodd" d="M14.5 16.2202V15.2143C14.5 13.8388 13.3661 12.75 12 12.75C10.6339 12.75 9.50001 13.8388 9.50001 15.2143V16.2202C9.06727 16.273 8.64959 16.4016 8.31688 16.7275C7.98074 17.0568 7.85421 17.461 7.79969 17.8583C7.74991 18.2209 7.74995 18.7631 7.75 19.2614C7.74995 19.7596 7.74991 20.2076 7.79969 20.5703C7.85421 20.9675 7.98074 21.3718 8.31688 21.701C8.65087 22.0282 9.05717 22.1493 9.45526 22.2017C9.82235 22.2501 10.2769 22.25 10.7874 22.25H13.2126C13.7231 22.25 14.1777 22.2501 14.5448 22.2017C14.9428 22.1493 15.3491 22.0282 15.6831 21.701C16.0193 21.3718 16.1458 20.9675 16.2003 20.5703C16.2501 20.2076 16.2501 19.7596 16.25 19.2614C16.2501 18.7631 16.2501 18.2209 16.2003 17.8583C16.1458 17.461 16.0193 17.0568 15.6831 16.7275C15.3504 16.4016 14.9327 16.273 14.5 16.2202ZM11 15.2143C11 14.6962 11.4331 14.25 12 14.25C12.5669 14.25 13 14.6962 13 15.2143V16.1786H11V15.2143Z" fill="#141B34"/>
</svg>
