<svg width="24" height="24" viewBox="0 0 24 24" fill="none" xmlns="http://www.w3.org/2000/svg">
<path opacity="0.4" d="M14.17 22.1006C16.8468 20.7234 21.75 17.3739 21.7501 11.2373V7.74805C21.7501 6.40064 21.7721 5.46059 21.1886 4.51855C20.6145 3.59166 19.9636 3.2822 19.0431 2.82422C17.0401 1.82765 14.6091 1.25 12.0001 1.25C9.39116 1.25 6.96011 1.82764 4.95714 2.82422C4.03666 3.2822 3.38574 3.59166 2.81163 4.51855C2.22814 5.46059 2.25011 6.40064 2.25011 7.74805V11.2373C2.25024 17.3739 7.15346 20.7234 9.83019 22.1006L9.86688 22.1195C10.5847 22.4889 11.092 22.75 12.0001 22.75C12.9082 22.75 13.4156 22.4889 14.1334 22.1195L14.17 22.1006Z" fill="#141B34"/>
<path d="M14.5001 11C14.5001 10.6775 14.4363 10.3707 14.3253 10.0879L11.088 13.3252C11.3708 13.4362 11.6776 13.5 12.0001 13.5C13.3808 13.5 14.5001 12.3807 14.5001 11ZM9.50012 11C9.50012 11.3221 9.56324 11.6286 9.67395 11.9111L12.9113 8.67383C12.6288 8.56312 12.3222 8.5 12.0001 8.5C10.6194 8.5 9.50012 9.61928 9.50012 11ZM16.5001 11C16.5001 13.4852 14.4854 15.5 12.0001 15.5C10.7578 15.5 9.63172 14.9949 8.81848 14.1816C8.00524 13.3684 7.50012 12.2423 7.50012 11C7.50012 8.51471 9.51483 6.5 12.0001 6.5C13.2425 6.5 14.3685 7.00511 15.1818 7.81836C15.995 8.6316 16.5001 9.75763 16.5001 11Z" fill="#141B34"/>
</svg>
