<svg width="24" height="24" viewBox="0 0 24 24" fill="none" xmlns="http://www.w3.org/2000/svg">
<path fill-rule="evenodd" clip-rule="evenodd" d="M5.8721 1.84882C5.64153 1.71706 5.35847 1.71706 5.1279 1.84882L1.6279 3.84882C1.39421 3.98235 1.25 4.23086 1.25 4.5V8.5C1.25 8.76914 1.39421 9.01765 1.6279 9.15118L5.1279 11.1512C5.35847 11.2829 5.64153 11.2829 5.8721 11.1512L9.3721 9.15118C9.60579 9.01765 9.75 8.76914 9.75 8.5V4.5C9.75 4.23086 9.60579 3.98235 9.3721 3.84882L5.8721 1.84882ZM4.75 6.93485L2.75 5.79199V8.06437L4.75 9.20722V6.93485ZM8.25 8.06437L6.25 9.20722V6.93485L8.25 5.79199V8.06437Z" fill="#141B34"/>
<path fill-rule="evenodd" clip-rule="evenodd" d="M18.8721 1.84882C18.6415 1.71706 18.3585 1.71706 18.1279 1.84882L14.6279 3.84882C14.3942 3.98235 14.25 4.23086 14.25 4.5V8.5C14.25 8.76914 14.3942 9.01765 14.6279 9.15118L18.1279 11.1512C18.3585 11.2829 18.6415 11.2829 18.8721 11.1512L22.3721 9.15118C22.6058 9.01765 22.75 8.76914 22.75 8.5V4.5C22.75 4.23086 22.6058 3.98235 22.3721 3.84882L18.8721 1.84882ZM17.75 6.93485L15.75 5.79199V8.06437L17.75 9.20722V6.93485ZM21.25 8.06437L19.25 9.20722V6.93485L21.25 5.79199V8.06437Z" fill="#141B34"/>
<path fill-rule="evenodd" clip-rule="evenodd" d="M10.75 5.75H13.25V7.25H10.75V5.75Z" fill="#141B34"/>
<path fill-rule="evenodd" clip-rule="evenodd" d="M2.75 11.75V18.75H6.25V20.25H1.25V11.75H2.75Z" fill="#141B34"/>
<path fill-rule="evenodd" clip-rule="evenodd" d="M22.7501 11.75V20.25H17.75V18.75H21.2501V11.75H22.7501Z" fill="#141B34"/>
<path fill-rule="evenodd" clip-rule="evenodd" d="M14.5 16.1786V15.2143C14.5 13.8388 13.3661 12.75 12 12.75C10.6339 12.75 9.5 13.8388 9.5 15.2143V16.1786H7.75V22.25H16.25V16.1786H14.5ZM11 15.2143C11 14.6962 11.4331 14.25 12 14.25C12.5669 14.25 13 14.6962 13 15.2143V16.1786H11V15.2143Z" fill="#141B34"/>
</svg>
