<svg width="24" height="24" viewBox="0 0 24 24" fill="none" xmlns="http://www.w3.org/2000/svg">
<path d="M6.08691 3.99268L6.41846 4.88868C6.72232 5.70984 7.36975 6.35727 8.19091 6.66113L9.08691 6.99268L8.19091 7.32423C7.36975 7.62809 6.72232 8.27552 6.41846 9.09668L6.08691 9.99268L5.75536 9.09668C5.4515 8.27552 4.80407 7.62809 3.98291 7.32423L3.08691 6.99268L3.98291 6.66113C4.80407 6.35727 5.4515 5.70984 5.75536 4.88868L6.08691 3.99268Z" stroke="#141B34" stroke-width="1.5" stroke-linejoin="round"/>
<path d="M15.0386 14.9937C14.4376 19.8596 11.4306 21.7426 10.0581 22.0013C7.42795 21.6539 5.70783 20.3648 4.63036 18.8609M15.0386 14.9937L12.0176 12.9762M15.0386 14.9937L17.5967 9.99269M12.0176 12.9762C7.95744 15.7095 4.65834 14.6356 3.14417 13.8761C3.07915 13.8435 3.00175 13.8874 3.00059 13.9603C2.98129 15.1713 3.4326 17.1891 4.63036 18.8609M12.0176 12.9762L15.0236 8.38208M15.0236 8.38208L18.8579 2.52203C19.1891 2.02196 19.844 1.85386 20.3743 2.13279C20.9454 2.43316 21.1656 3.14045 20.8663 3.71299L17.5967 9.99269M15.0236 8.38208L17.5967 9.99269M4.63036 18.8609C6.72157 19.4832 9.39667 18.4638 10.1715 17.9511" stroke="#141B34" stroke-width="1.5"/>
</svg>
