<svg width="24" height="24" viewBox="0 0 24 24" fill="none" xmlns="http://www.w3.org/2000/svg">
<path d="M12.0039 13.999V12.3597M12.0039 13.999C10.3377 13.999 8.67155 13.817 7.00536 13.4528M12.0039 13.999C13.6706 13.999 15.3373 13.8172 17.0039 13.4528M7.00536 13.4528C5.73048 13.1742 4.45559 12.7889 3.18071 12.2971C2.67114 12.1005 2.41636 12.0022 2.24154 11.7771C1.95149 11.4036 2.00391 10.8835 2.00391 10.4386C2.00391 9.20702 2.00391 7.59125 2.30471 7.26967C2.87416 6.66091 3.96125 7.22124 4.59353 7.42611C9.53378 9.02681 14.474 9.02681 19.4143 7.42611C20.0466 7.22124 21.1337 6.66091 21.7031 7.26967C22.0039 7.59125 22.0039 9.20702 22.0039 10.4386C22.0039 11.0562 22.0039 11.365 21.8679 11.6201C21.6589 12.0121 21.2175 12.1465 20.8271 12.2971C19.5527 12.7888 18.2783 13.1742 17.0039 13.4528M7.00536 13.4528L7.00391 11.8132M17.0039 13.4528V11.8132" stroke="#141B34" stroke-width="1.5" stroke-linecap="round" stroke-linejoin="round"/>
<path opacity="0.4" d="M19.188 2.99768C18.6111 4.30901 18.0809 6.55702 18.0809 7.58736M4.81241 2.99768C5.38935 4.30901 5.91951 6.55702 5.91951 7.58736M5.3961 15.5103C4.95727 16.8912 3.79749 19.6214 4.00123 21.0022M18.6112 15.5103C19.0501 16.8912 20.2098 19.6214 20.0061 21.0022M18.802 19.0186C14.1353 20.3548 9.4687 20.3548 4.80203 19.0186" stroke="#141B34" stroke-width="1.5" stroke-linecap="round" stroke-linejoin="round"/>
</svg>
