<svg width="24" height="24" viewBox="0 0 24 24" fill="none" xmlns="http://www.w3.org/2000/svg">
<path fill-rule="evenodd" clip-rule="evenodd" d="M9.16462 1.32918C9.39265 1.21516 9.66299 1.2248 9.88233 1.35475L12 2.60947L14.1177 1.35475C14.3371 1.2248 14.6074 1.21516 14.8354 1.32918L16.8354 2.32918C17.1198 2.47134 17.2836 2.77728 17.2443 3.09272C17.0839 4.37967 16.4105 5.72501 15.5236 6.81943C14.6386 7.91153 13.4646 8.84759 12.2135 9.21899C12.0742 9.26034 11.9259 9.26034 11.7866 9.21899C10.5355 8.84759 9.36146 7.91153 8.47644 6.81943C7.58954 5.72501 6.91611 4.37967 6.75578 3.09272C6.71648 2.77728 6.8803 2.47134 7.16462 2.32918L9.16462 1.32918ZM8.34303 3.41703C8.55166 4.22365 9.01308 5.09918 9.64182 5.87502C10.3454 6.74322 11.1938 7.40715 12 7.70926C12.8063 7.40715 13.6547 6.74322 14.3582 5.87502C14.987 5.09918 15.4484 4.22365 15.657 3.41703L14.5304 2.85374L12.3823 4.12648C12.1466 4.26615 11.8535 4.26615 11.6177 4.12648L9.46961 2.85374L8.34303 3.41703Z" fill="#141B34"/>
<path d="M5.59861 19.75L4.37596 21.584C4.22254 21.8141 4.20823 22.11 4.33875 22.3539C4.46926 22.5978 4.7234 22.75 5 22.75H19C19.2766 22.75 19.5307 22.5978 19.6613 22.3539C19.7918 22.11 19.7775 21.8141 19.624 21.584L18.4014 19.75H5.59861Z" fill="#141B34"/>
<path d="M6.16198 18.25L5.49414 12.2394L10.1845 9.89423C10.5823 10.1108 10.999 10.2892 11.4308 10.4173C11.8023 10.5276 12.1977 10.5276 12.5692 10.4173C13.0011 10.2891 13.4179 10.1107 13.8158 9.89404L18.5057 12.239L17.8379 18.25H6.16198Z" fill="#141B34"/>
<path d="M15.0094 9.0933L20.1646 11.6709C20.3547 11.766 20.5763 11.7759 20.7741 11.6982C20.972 11.6205 21.1276 11.4625 21.2022 11.2634L22.7022 7.26341C22.8135 6.9667 22.7263 6.63206 22.4843 6.42742C21.5214 5.61297 20.0326 4.50353 18.3901 3.8064C18.0951 5.19154 17.367 6.5302 16.4948 7.60649C16.0675 8.13376 15.5672 8.6452 15.0094 9.0933Z" fill="#141B34"/>
<path d="M5.60999 3.8064C3.96752 4.50353 2.47869 5.61299 1.51571 6.42746C1.27375 6.6321 1.18652 6.96673 1.29779 7.26345L2.79779 11.2634C2.87243 11.4625 3.02803 11.6205 3.2259 11.6982C3.42377 11.7759 3.64531 11.766 3.83545 11.6709L8.99068 9.09331C8.43285 8.64521 7.93263 8.13378 7.50534 7.60652C6.63312 6.53023 5.90496 5.19155 5.60999 3.8064Z" fill="#141B34"/>
</svg>
