<svg width="24" height="24" viewBox="0 0 24 24" fill="none" xmlns="http://www.w3.org/2000/svg">
<path fill-rule="evenodd" clip-rule="evenodd" d="M2 5.125C2.55228 5.125 3 5.57272 3 6.125C3 6.31888 3.1109 6.79071 3.64018 7.23178C4.16242 7.66698 5.16267 8.125 7 8.125C8.83733 8.125 9.83758 7.66698 10.3598 7.23178C10.8891 6.79071 11 6.31888 11 6.125C11 5.57272 11.4477 5.125 12 5.125C12.5523 5.125 13 5.57272 13 6.125C13 6.31888 13.1109 6.79071 13.6402 7.23178C14.1624 7.66698 15.1627 8.125 17 8.125C18.8373 8.125 19.8376 7.66698 20.3598 7.23178C20.8891 6.79071 21 6.31888 21 6.125C21 5.57272 21.4477 5.125 22 5.125C22.5523 5.125 23 5.57272 23 6.125C23 6.93112 22.6109 7.95929 21.6402 8.76822C20.6624 9.58302 19.1627 10.125 17 10.125C14.8373 10.125 13.3376 9.58302 12.3598 8.76822C12.2296 8.65967 12.1098 8.54718 12 8.43181C11.8902 8.54718 11.7704 8.65967 11.6402 8.76822C10.6624 9.58302 9.16267 10.125 7 10.125C4.83733 10.125 3.33758 9.58302 2.35982 8.76822C1.3891 7.95929 1 6.93112 1 6.125C1 5.57272 1.44772 5.125 2 5.125Z" fill="#141B34"/>
<path fill-rule="evenodd" clip-rule="evenodd" d="M6 2.125C6 1.57272 6.44772 1.125 7 1.125C7.97322 1.125 8.81619 1.44852 9.452 1.83001C10.0732 2.20274 10.5676 2.67369 10.8321 3.0703C11.1384 3.52983 11.0142 4.1507 10.5547 4.45705C10.0952 4.7634 9.4743 4.63923 9.16795 4.1797C9.09902 4.07631 8.84344 3.79726 8.423 3.54499C8.01715 3.30148 7.52678 3.125 7 3.125C6.44772 3.125 6 2.67728 6 2.125ZM15.577 3.54499C15.1566 3.79726 14.901 4.07631 14.8321 4.1797C14.5257 4.63923 13.9048 4.7634 13.4453 4.45705C12.9858 4.1507 12.8616 3.52983 13.1679 3.0703C13.4324 2.67369 13.9268 2.20274 14.548 1.83001C15.1838 1.44852 16.0268 1.125 17 1.125C17.5523 1.125 18 1.57272 18 2.125C18 2.67728 17.5523 3.125 17 3.125C16.4732 3.125 15.9829 3.30148 15.577 3.54499Z" fill="#141B34"/>
<path opacity="0.4" d="M20 8.37606C20.4142 8.37606 20.75 8.71185 20.75 9.12606V10.1261C20.75 11.5389 20.4655 12.9111 20.1709 14.1935C19.7541 16.0072 19.5233 18.356 20.0761 20.3409L20.0869 20.3797C20.1879 20.7425 20.2801 21.0734 20.3233 21.3375C20.3621 21.5754 20.4122 22.0129 20.1318 22.3822C19.8631 22.7358 19.4642 22.8159 19.2194 22.8458C18.9712 22.8762 18.6569 22.8761 18.3261 22.8761H5.67391C5.34315 22.8761 5.02884 22.8762 4.78064 22.8458C4.5358 22.8159 4.13687 22.7358 3.86823 22.3822C3.58778 22.0129 3.63786 21.5754 3.67675 21.3375C3.7199 21.0734 3.81207 20.7425 3.91314 20.3797L3.92394 20.3409C4.47666 18.356 4.24591 16.0072 3.82914 14.1935C3.53446 12.9111 3.25 11.5389 3.25 10.1261V9.12606C3.25 8.71185 3.58579 8.37606 4 8.37606C8.13623 10.208 11.0348 8.25065 11.967 7.04297C13.8217 9.69251 18.0951 9.03567 20 8.37606Z" fill="#141B34"/>
<path fill-rule="evenodd" clip-rule="evenodd" d="M12 11.375C11.5858 11.375 11.25 11.7108 11.25 12.125V13.7153C11.25 13.7411 11.2372 13.7651 11.2163 13.7804C10.5551 14.2645 10.1698 14.3901 9.87291 14.3736C9.57417 14.357 9.17142 14.1853 8.50856 13.5738C8.20412 13.2929 7.72963 13.312 7.44876 13.6165C7.16789 13.9209 7.187 14.3954 7.49145 14.6763C8.22802 15.3558 8.95739 15.8251 9.78969 15.8713C10.5276 15.9123 11.1954 15.6121 11.8478 15.1704C11.9208 15.1209 12.0174 15.1234 12.0883 15.1761C12.7442 15.6634 13.4175 15.9408 14.1775 15.8618C14.9767 15.7788 15.7123 15.3111 16.4664 14.7124C16.7908 14.4549 16.8449 13.9831 16.5874 13.6587C16.3298 13.3343 15.8581 13.2801 15.5337 13.5376C14.8028 14.1179 14.3603 14.3348 14.0225 14.3698C13.7391 14.3993 13.3873 14.3118 12.7994 13.8282C12.7689 13.8031 12.75 13.7663 12.75 13.7269V12.125C12.75 11.7108 12.4142 11.375 12 11.375ZM16.5874 18.6587C16.3298 18.3343 15.8581 18.2801 15.5337 18.5376C14.8028 19.1179 14.3603 19.3348 14.0225 19.3698C13.7391 19.3993 13.3873 19.3118 12.7994 18.8282C12.351 18.4594 11.6983 18.4275 11.2163 18.7804C10.5551 19.2645 10.1698 19.3901 9.87291 19.3736C9.57417 19.357 9.17142 19.1853 8.50856 18.5738C8.20412 18.2929 7.72963 18.312 7.44876 18.6165C7.16789 18.9209 7.187 19.3954 7.49145 19.6763C8.22802 20.3558 8.95739 20.8251 9.78969 20.8713C10.5276 20.9123 11.1954 20.6121 11.8478 20.1704C11.9208 20.1209 12.0174 20.1234 12.0883 20.1761C12.7442 20.6634 13.4175 20.9408 14.1775 20.8618C14.9767 20.7788 15.7123 20.3111 16.4664 19.7124C16.7908 19.4549 16.8449 18.9831 16.5874 18.6587Z" fill="#141B34"/>
</svg>
