<svg width="24" height="24" viewBox="0 0 24 24" fill="none" xmlns="http://www.w3.org/2000/svg">
<path d="M22 6C22 7 21 9 17 9C13 9 12 7 12 6C12 7 11 9 7 9C3 9 2 7 2 6" stroke="#141B34" stroke-width="1.5" stroke-linejoin="round"/>
<path d="M10 3.5C9.66667 3 8.5 2 7 2M14 3.5C14.3333 3 15.5 2 17 2" stroke="#141B34" stroke-width="1.5" stroke-linejoin="round"/>
<path d="M4 9V10C4 11.3203 4.26603 12.6198 4.56009 13.8995C5.0994 16.2464 5.36933 19.5805 4 22M20 9V10C20 11.3203 19.734 12.6198 19.4399 13.8995C18.9006 16.2464 18.6307 19.5805 20 22" stroke="#141B34" stroke-width="1.5" stroke-linejoin="round"/>
<path d="M16 19C14.515 20.355 13.3211 20.2489 12 19C10.6049 20.1739 9.39943 20.4838 8 19" stroke="#141B34" stroke-width="1.5"/>
<path d="M16 14C14.515 15.355 13.3211 15.2489 12 14C10.6049 15.1739 9.39943 15.4838 8 14" stroke="#141B34" stroke-width="1.5"/>
<path d="M12 14V12" stroke="#141B34" stroke-width="1.5" stroke-linejoin="round"/>
</svg>
