<svg width="24" height="24" viewBox="0 0 24 24" fill="none" xmlns="http://www.w3.org/2000/svg">
<path d="M20.293 1.25V2.75H6.5C5.56037 2.75 4.79581 3.49064 4.75391 4.41992V4.5791C4.79532 5.50884 5.56004 6.25 6.5 6.25H17.25V5.25H5.75V3.75H18.75V6.25H20.75V22.75H7.00391C4.93108 22.75 3.25142 21.0679 3.25391 18.9951V4.66699C3.25111 4.61169 3.25 4.556 3.25 4.5C3.25 4.444 3.25111 4.38831 3.25391 4.33301V4.25H3.26074C3.38844 2.57193 4.78923 1.25 6.5 1.25H20.293ZM7.75 15.75V17.25H13.25V15.75H7.75ZM7.75 11.75V13.25H16.25V11.75H7.75Z" fill="#141B34"/>
</svg>
