<svg width="24" height="24" viewBox="0 0 24 24" fill="none" xmlns="http://www.w3.org/2000/svg">
<path d="M5.33301 2.25001C7.44706 2.2472 9.50317 2.85959 11.25 3.99317V21.75C9.594 20.3951 7.5011 19.6483 5.33398 19.6514C4.38531 19.6514 3.47041 19.7908 2.61133 20.0498L2.24609 20.168C2.01686 20.2476 1.76323 20.2119 1.56543 20.0713C1.36765 19.9306 1.25004 19.7027 1.25 19.46V3.55763L1.25977 3.43946C1.30269 3.16982 1.49007 2.94031 1.75391 2.84864C2.87455 2.45929 4.07989 2.25005 5.33301 2.25001Z" fill="#141B34"/>
<path d="M18.667 2.25001C19.9201 2.25005 21.1255 2.45929 22.2461 2.84864C22.5099 2.94031 22.6973 3.16982 22.7402 3.43946L22.75 3.55763V19.46C22.75 19.7027 22.6324 19.9306 22.4346 20.0713C22.2368 20.2119 21.9831 20.2476 21.7539 20.168L21.3887 20.0498C20.5296 19.7908 19.6147 19.6514 18.666 19.6514C16.4989 19.6483 14.406 20.3951 12.75 21.75V3.99317C14.4968 2.85959 16.5529 2.2472 18.667 2.25001Z" fill="#141B34"/>
</svg>
