<svg width="24" height="24" viewBox="0 0 24 24" fill="none" xmlns="http://www.w3.org/2000/svg">
<path opacity="0.4" d="M13 2V6.68992C13 7.43003 13 7.80008 12.7619 7.94361C12.7516 7.94979 12.7412 7.9556 12.7305 7.96104C12.4824 8.08736 12.1588 7.89697 11.5114 7.51619C11.0275 7.23153 10.7855 7.0892 10.5185 7.08437C10.5062 7.08414 10.4938 7.08414 10.4815 7.08437C10.2145 7.0892 9.97254 7.23153 9.4886 7.51619C8.84124 7.89697 8.51756 8.08736 8.26951 7.96104C8.25883 7.9556 8.24836 7.94979 8.23811 7.94361C8 7.80008 8 7.43003 8 6.68992V2.06122C6.41985 2.16383 5.40677 2.43814 4.67345 3.17147C3.50187 4.34304 3.50187 6.22866 3.50187 9.99989V18.8781C3.45961 19.1071 3.46637 19.3224 3.50187 19.4999V18.8781C3.65804 18.0322 4.4835 16.9999 7.00187 16.9999C10.2019 16.9999 17.3352 16.9523 20.5019 16.9285V9.99989C20.5019 6.22866 20.5019 4.34304 19.3303 3.17147C18.2115 2.05265 16.4415 2.00227 13 2Z" fill="#141B34"/>
<path d="M20.5 16.9286V10C20.5 6.22876 20.5 4.34315 19.3284 3.17157C18.1569 2 16.2712 2 12.5 2H11.5C7.72876 2 5.84315 2 4.67157 3.17157C3.5 4.34315 3.5 6.22876 3.5 10V19.5" stroke="#141B34" stroke-width="1.5" stroke-linecap="round"/>
<path d="M8 3L8 6.69003C8 7.43013 8 7.80019 8.23811 7.94371C8.24836 7.94989 8.25884 7.95571 8.26951 7.96115C8.51756 8.08746 8.84124 7.89707 9.4886 7.51629C9.97254 7.23164 10.2145 7.08931 10.4815 7.08447C10.4938 7.08425 10.5062 7.08425 10.5185 7.08447C10.7855 7.08931 11.0275 7.23164 11.5114 7.51629C12.1588 7.89707 12.4824 8.08747 12.7305 7.96115C12.7412 7.95571 12.7516 7.94989 12.7619 7.94372C13 7.80019 13 7.43013 13 6.69003V3" stroke="#141B34" stroke-width="1.5" stroke-linecap="round" stroke-linejoin="round"/>
<path d="M20.5 17H6C4.61929 17 3.5 18.1193 3.5 19.5C3.5 20.8807 4.61929 22 6 22H20.5" stroke="#141B34" stroke-width="1.5" stroke-linecap="round"/>
<path d="M20.5 17C19.1193 17 18 18.1193 18 19.5C18 20.8807 19.1193 22 20.5 22" stroke="#141B34" stroke-width="1.5" stroke-linecap="round"/>
</svg>
