<svg width="24" height="24" viewBox="0 0 24 24" fill="none" xmlns="http://www.w3.org/2000/svg">
<path fill-rule="evenodd" clip-rule="evenodd" d="M16.5162 2.32148C16.6149 1.77807 17.1353 1.4175 17.6787 1.51612C18.8965 1.73713 19.9101 2.15106 20.7341 2.95515C21.6874 3.88539 22.1088 5.06575 22.3078 6.50983C22.5002 7.90673 22.5002 9.68848 22.5002 11.9238V12.0763C22.5002 14.3116 22.5002 16.0934 22.3078 17.4903C22.1088 18.9343 21.6874 20.1147 20.7341 21.045C19.9101 21.849 18.8965 22.263 17.6787 22.484C17.1353 22.5826 16.6149 22.222 16.5162 21.6786C16.4176 21.1352 16.7782 20.6147 17.3216 20.5161C18.2918 20.3401 18.8883 20.0517 19.3373 19.6135C19.8485 19.1147 20.1593 18.4305 20.3265 17.2173C20.4979 15.9727 20.5002 14.329 20.5002 12.0001C20.5002 9.67106 20.4979 8.02737 20.3265 6.78281C20.1593 5.56957 19.8485 4.88538 19.3373 4.38656C18.8883 3.94843 18.2918 3.66005 17.3216 3.48398C16.7782 3.38536 16.4176 2.86489 16.5162 2.32148Z" fill="#141B34"/>
<path fill-rule="evenodd" clip-rule="evenodd" d="M12.0227 1.5H12.0289C12.7125 1.5 13.4182 1.5 14.0085 1.50499C14.5607 1.50966 15.0046 1.96114 15 2.51341C14.9953 3.06568 14.5438 3.50959 13.9915 3.50492C13.4106 3.50001 12.7129 3.5 12.0259 3.5C11.3387 3.5 10.5784 3.50001 9.99756 3.50492C9.44529 3.50959 8.99381 3.06568 8.98914 2.51341C8.98447 1.96115 9.42838 1.50966 9.98065 1.50499C10.5709 1.5 11.3391 1.5 12.0227 1.5ZM7.29358 2.56906C7.3943 3.11208 7.03574 3.63394 6.49272 3.73466C5.57811 3.9043 5.02095 4.18068 4.60118 4.59931C4.18166 5.01769 3.90503 5.57248 3.73516 6.48333C3.63391 7.02625 3.11171 7.3843 2.56878 7.28305C2.02586 7.1818 1.66781 6.65959 1.76906 6.11667C1.98681 4.94903 2.39577 3.97414 3.18889 3.18317C3.98176 2.39246 4.95845 1.98512 6.12799 1.76819C6.67101 1.66748 7.19287 2.02603 7.29358 2.56906ZM2.51347 9.10004C3.06573 9.10473 3.50963 9.55624 3.50493 10.1085C3.50001 10.6879 3.5 11.3151 3.5 12C3.5 12.685 3.50001 13.3122 3.50493 13.8916C3.50963 14.4438 3.06574 14.8953 2.51347 14.9C1.96121 14.9047 1.5097 14.4608 1.50501 13.9086C1.5 13.3199 1.5 12.6846 1.5 12.0028V11.9972C1.5 11.3154 1.5 10.6802 1.505 10.0915C1.5097 9.53923 1.9612 9.09534 2.51347 9.10004ZM2.56878 16.7169C3.11171 16.6157 3.63391 16.9737 3.73516 17.5167C3.90503 18.4275 4.18166 18.9823 4.60118 19.4007C5.02094 19.8193 5.57811 20.0957 6.49272 20.2653C7.03574 20.3661 7.3943 20.8879 7.29358 21.4309C7.19287 21.974 6.67101 22.3325 6.12799 22.2318C4.95845 22.0149 3.98176 21.6075 3.18889 20.8168C2.39577 20.0259 1.98681 19.051 1.76906 17.8833C1.66781 17.3404 2.02586 16.8182 2.56878 16.7169ZM8.98914 21.4866C8.9938 20.9343 9.44529 20.4904 9.99755 20.4951C10.5784 20.5 11.3388 20.5 12.0259 20.5C12.7129 20.5 13.4106 20.5 13.9915 20.4951C14.5438 20.4904 14.9953 20.9343 15 21.4866C15.0046 22.0389 14.5607 22.4903 14.0085 22.495C13.4185 22.5 12.7131 22.5 12.0298 22.5H12.0228C11.3393 22.5 10.5709 22.5 9.98065 22.495C9.42838 22.4903 8.98447 22.0389 8.98914 21.4866Z" fill="#141B34"/>
<path fill-rule="evenodd" clip-rule="evenodd" d="M12 1.5C11.4477 1.5 11 1.94772 11 2.5V4C11 4.55228 11.4477 5 12 5C12.5523 5 13 4.55228 13 4V2.5C13 1.94772 12.5523 1.5 12 1.5ZM12 8C11.4477 8 11 8.44772 11 9V11H9C8.44772 11 8 11.4477 8 12C8 12.5523 8.44772 13 9 13H11V15C11 15.5523 11.4477 16 12 16C12.5523 16 13 15.5523 13 15V13H15C15.5523 13 16 12.5523 16 12C16 11.4477 15.5523 11 15 11H13V9C13 8.44772 12.5523 8 12 8ZM5.46875 12C5.46875 11.4477 5.02104 11 4.46875 11H3C2.44771 11 2 11.4477 2 12C2 12.5523 2.44771 13 3 13H4.46875C5.02104 13 5.46875 12.5523 5.46875 12ZM12 19C11.4477 19 11 19.4477 11 20V21.5C11 22.0523 11.4477 22.5 12 22.5C12.5523 22.5 13 22.0523 13 21.5V20C13 19.4477 12.5523 19 12 19Z" fill="#141B34"/>
</svg>
