<svg width="24" height="24" viewBox="0 0 24 24" fill="none" xmlns="http://www.w3.org/2000/svg">
<path opacity="0.4" d="M13.5565 6.25C14.9227 6.24998 16.0265 6.24996 16.8951 6.37077C17.8 6.49662 18.5598 6.76622 19.1606 7.38771C19.7579 8.00565 20.0139 8.78116 20.1339 9.70491C20.25 10.5984 20.25 11.7358 20.25 13.1534V13.2604C20.25 14.678 20.25 15.8154 20.1339 16.7089C20.0139 17.6326 19.7579 18.4081 19.1606 19.0261C18.6763 19.5271 17.8634 19.8272 17.1996 19.9754C17.1996 19.9754 17.4479 21.0791 17.4567 21.3488C17.465 21.6064 17.4359 21.9566 17.2161 22.2596C16.972 22.5962 16.6124 22.7176 16.2975 22.7437C16.0008 22.7684 15.6751 22.7172 15.3481 22.6382C14.7696 22.4984 14.2234 22.1501 13.778 21.799C13.3205 21.4384 12.9061 21.0236 12.5893 20.6786C12.1864 20.2644 11.7121 20.1628 11.5253 20.1638H10.4435H10.4435C9.0773 20.1638 7.97352 20.1638 7.10487 20.043C6.20002 19.9172 5.44021 19.6476 4.83944 19.0261C4.2421 18.4081 3.98615 17.6326 3.86609 16.7089C3.74997 15.8154 3.74998 14.678 3.75 13.2604V13.2604V13.1534V13.1534C3.74998 11.7358 3.74997 10.5984 3.86609 9.70491C3.98615 8.78116 4.2421 8.00565 4.83944 7.38771C5.44021 6.76622 6.20002 6.49662 7.10487 6.37077C7.97352 6.24996 9.0773 6.24998 10.4435 6.25H10.4435H13.5565H13.5565Z" fill="#141B34"/>
<path fill-rule="evenodd" clip-rule="evenodd" d="M8.98666 14.4532C9.28865 14.1697 9.76328 14.1847 10.0468 14.4867C10.4602 14.927 11.162 15.25 12 15.25C12.838 15.25 13.5398 14.927 13.9532 14.4867C14.2367 14.1847 14.7114 14.1697 15.0133 14.4532C15.3153 14.7367 15.3303 15.2114 15.0468 15.5133C14.32 16.2874 13.2066 16.75 12 16.75C10.7934 16.75 9.67996 16.2874 8.95321 15.5133C8.6697 15.2114 8.68468 14.7367 8.98666 14.4532Z" fill="#141B34"/>
<path fill-rule="evenodd" clip-rule="evenodd" d="M8 11C8 10.4477 8.44572 10 8.99554 10H9.00446C9.55428 10 10 10.4477 10 11C10 11.5523 9.55428 12 9.00446 12H8.99554C8.44572 12 8 11.5523 8 11Z" fill="#141B34"/>
<path fill-rule="evenodd" clip-rule="evenodd" d="M14 11C14 10.4477 14.4457 10 14.9955 10H15.0045C15.5543 10 16 10.4477 16 11C16 11.5523 15.5543 12 15.0045 12H14.9955C14.4457 12 14 11.5523 14 11Z" fill="#141B34"/>
<path d="M1.25 13.4997C1.25 12.5423 1.73922 11.6992 2.4813 11.2067C2.68651 11.0706 2.78911 11.0025 2.89456 11.059C3 11.1156 3 11.2513 3 11.5228V15.4766C3 15.7481 3 15.8838 2.89456 15.9404C2.78911 15.997 2.68651 15.9289 2.4813 15.7927C1.73922 15.3002 1.25 14.4571 1.25 13.4997Z" fill="#141B34"/>
<path d="M21.2666 11.0598C22.148 11.5179 22.75 12.4394 22.75 13.5014C22.75 14.5634 22.148 15.4848 21.2666 15.943C21.1416 16.0079 21 15.9119 21 15.7711V11.2317C21 11.0909 21.1416 10.9948 21.2666 11.0598Z" fill="#141B34"/>
<path d="M7 1.25C6.0335 1.25 5.25 2.0335 5.25 3C5.25 3.6981 5.65876 4.30073 6.25 4.58159L6.25 6.55191C6.51854 6.47049 6.80367 6.41267 7.10487 6.37077C7.30706 6.34265 7.52199 6.32108 7.75 6.30453V4.58159C8.34124 4.30073 8.75 3.6981 8.75 3C8.75 2.0335 7.9665 1.25 7 1.25Z" fill="#141B34"/>
<path d="M17.75 6.55191C17.4815 6.47048 17.1963 6.41267 16.8951 6.37077C16.6929 6.34265 16.478 6.32108 16.25 6.30453V4.58159C15.6588 4.30073 15.25 3.6981 15.25 3C15.25 2.0335 16.0335 1.25 17 1.25C17.9665 1.25 18.75 2.0335 18.75 3C18.75 3.6981 18.3412 4.30073 17.75 4.58159V6.55191Z" fill="#141B34"/>
</svg>
