<svg width="24" height="24" viewBox="0 0 24 24" fill="none" xmlns="http://www.w3.org/2000/svg">
<path fill-rule="evenodd" clip-rule="evenodd" d="M21.4868 5.87998C20.2162 4.16433 18.3701 2.70126 16.3274 2.07457C14.2533 1.43824 11.9758 1.67144 10.0012 3.36763C8.5912 4.57878 7.46507 6.0685 6.71158 7.77423L6.70789 7.78257L5.80727 9.96423L1.74983 13.5235V13.992C1.74983 15.704 2.50732 17.4632 3.62973 18.8964C4.75663 20.3354 6.32934 21.547 8.10037 22.0952L8.6001 22.2499L12.6866 19.0259L19.0368 17.3439C21.7004 16.6923 22.6927 13.7002 21.3064 11.6733L21.2192 11.6851C20.786 11.7441 20.3418 11.8115 19.9711 11.882C19.7856 11.9173 19.626 11.9519 19.4992 11.9848C19.4361 12.0012 19.3857 12.016 19.347 12.0289C19.328 12.0352 19.3135 12.0405 19.3031 12.0446C19.2935 12.0483 19.2892 12.0503 19.2892 12.0503C18.6539 12.3585 18.3203 12.859 18.3203 13.5537L16.8203 13.5537C16.8203 12.2482 17.5179 11.2477 18.6326 10.7069C18.8976 10.5784 19.3168 10.4853 19.6899 10.4143C20.0979 10.3367 20.5715 10.2652 21.016 10.2047C21.266 10.1706 21.5093 10.1397 21.7299 10.1129C22.4769 8.82032 22.4397 7.16664 21.4868 5.87998ZM10.1595 18.4478L8.23191 19.978C7.10744 19.5154 6.0523 18.6752 5.24487 17.6442C4.43819 16.6142 3.93783 15.4706 3.82288 14.4388L5.48153 12.9802C5.81643 14.1092 6.48705 15.2019 7.31098 16.1382C8.11267 17.0491 9.09913 17.8583 10.1595 18.4478Z" fill="#141B34"/>
</svg>
