<svg width="24" height="24" viewBox="0 0 24 24" fill="none" xmlns="http://www.w3.org/2000/svg">
<path opacity="0.4" d="M6.06734 11.4335C5.98033 14.156 9.18842 17.5116 12.1964 18.5665" stroke="#141B34" stroke-width="1.5" stroke-linecap="round" stroke-linejoin="round"/>
<path d="M19.6767 11.0291C22.6395 13.4615 20.6409 16.3311 18.9772 16.6203C14.3929 17.7579 13.2476 17.9214 12.4528 18.6281C11.0099 19.9111 9.58653 21.638 8.56031 21.4924C5.81228 21.3578 2.24822 17.4168 2.51179 15.319C2.56618 14.2627 5.67698 11.7689 5.98154 11.2462C6.90976 9.045 8.51444 4.7897 11.6615 3.10928C12.9395 2.38315 16.2588 1.71458 19.5115 4.80677C20.6305 5.74787 22.5701 7.80934 20.7648 10.1845C19.5611 11.5873 17.741 11.1812 17.5642 13.6073" stroke="#141B34" stroke-width="1.5" stroke-linecap="round" stroke-linejoin="round"/>
</svg>
