<svg width="24" height="24" viewBox="0 0 24 24" fill="none" xmlns="http://www.w3.org/2000/svg">
<path d="M12.4886 5.19442C11.4454 5.19442 10.5525 5.84535 10.2027 6.76458C10.1073 7.01509 9.9123 7.21537 9.66365 7.31814C9.415 7.42092 9.13474 7.41708 8.88902 7.30753C8.64657 7.19944 8.37717 7.13883 8.09091 7.13883C7.01144 7.13883 6.13636 8.00938 6.13636 9.08325L6.13663 9.11604C6.14462 9.60142 6.33043 10.0421 6.63382 10.3793C6.99378 10.7794 6.95955 11.394 6.55738 11.7521C6.15521 12.1102 5.53738 12.0761 5.17742 11.676C4.7771 11.2311 4.4778 10.6928 4.31653 10.0982C3.67791 10.2557 3.20455 10.8298 3.20455 11.5138C3.20455 12.3192 3.86086 12.9721 4.67045 12.9721H8.1256C8.25698 12.0595 8.75256 11.2639 9.45819 10.7365C9.88971 10.414 10.5023 10.5005 10.8265 10.9298C11.1507 11.3591 11.0638 11.9685 10.6322 12.291C10.2741 12.5587 10.0455 12.9818 10.0455 13.4582C10.0455 13.5593 10.0557 13.6571 10.0748 13.7509C10.2105 14.4161 10.8033 14.9165 11.5114 14.9165L12.115 14.9368C12.9737 15.0383 13.7435 15.5116 14.2187 16.2302L15.8059 19.3427C16.0473 19.823 15.8516 20.407 15.3689 20.6471C14.8861 20.8872 14.2991 20.6926 14.0577 20.2123L12.5858 17.2988C12.3739 16.8794 11.7812 16.8321 11.5114 16.8609C10.1463 16.8609 8.9693 16.066 8.42038 14.9165H4.67045C2.78139 14.9165 1.25 13.393 1.25 11.5138C1.25 9.75904 2.58513 8.31453 4.29992 8.13077C4.72693 6.44349 6.26229 5.19442 8.09091 5.19442C8.32935 5.19442 8.56324 5.21576 8.79059 5.2567C9.57287 4.05016 10.936 3.25 12.4886 3.25C13.5909 3.25 14.5991 3.65427 15.3702 4.31999C15.7033 4.25576 16.047 4.22221 16.3977 4.22221C19.3663 4.22221 21.7727 6.6162 21.7727 9.56935C21.7727 10.0331 21.7132 10.4839 21.601 10.9143C22.305 11.5369 22.75 12.4453 22.75 13.4582C22.75 15.3375 21.2186 16.8609 19.3295 16.8609C18.8297 16.8609 18.4838 17.3575 18.6593 17.8231L19.2673 19.4362C19.4568 19.9389 19.2008 20.4993 18.6954 20.6878C18.1901 20.8764 17.6267 20.6216 17.4372 20.1189L16.8292 18.5058C16.1745 16.7691 17.4651 14.9165 19.3295 14.9165C20.1391 14.9165 20.7955 14.2636 20.7955 13.4582C20.7955 12.8931 20.4726 12.4013 19.9958 12.1586C19.797 12.0574 19.5714 11.9999 19.3295 11.9999C18.6215 11.9999 18.0287 12.5002 17.893 13.1655C17.7856 13.6917 17.2698 14.0317 16.7408 13.9249C16.2119 13.818 15.8701 13.3049 15.9775 12.7787C16.2945 11.2251 17.6736 10.0555 19.3295 10.0555C19.4818 10.0555 19.632 10.0654 19.7793 10.0847C19.8049 9.91692 19.8182 9.74485 19.8182 9.56935C19.8182 7.69007 18.2868 6.16662 16.3977 6.16662C16.0371 6.16662 15.6913 6.22181 15.3674 6.32345C14.3449 6.64428 13.5279 7.43245 13.1717 8.43502C13.0863 8.67514 13.0273 8.92786 12.9982 9.19007C12.9389 9.72375 12.4559 10.1086 11.9195 10.0496C11.383 9.99057 10.9962 9.51011 11.0555 8.97642C11.1013 8.56444 11.1942 8.16606 11.3288 7.78705C11.6854 6.78345 12.3338 5.91786 13.1732 5.29093C12.956 5.22806 12.7263 5.19442 12.4886 5.19442Z" fill="#141B34"/>
</svg>
