<svg width="24" height="24" viewBox="0 0 24 24" fill="none" xmlns="http://www.w3.org/2000/svg">
<path d="M3.54823 4.36477C4.85374 3.6618 6.6058 3.25 8.5 3.25C10.3942 3.25 12.1463 3.6618 13.4518 4.36477C14.7267 5.05129 15.75 6.12539 15.75 7.5C15.75 8.56564 15.1304 9.45343 14.2692 10.1118L14.7874 20.75H2.21257L2.73083 10.1118C1.86964 9.45343 1.25 8.56564 1.25 7.5C1.25 6.12539 2.27327 5.05129 3.54823 4.36477Z" fill="#141B34"/>
<path d="M16.2893 20.75H21.7879L21.2696 10.1118C22.1308 9.45343 22.7505 8.56564 22.7505 7.5C22.7505 6.12539 21.7272 5.05129 20.4522 4.36477C19.1467 3.6618 17.3947 3.25 15.5005 3.25H14.5225C15.8824 4.07766 17.2501 5.4834 17.2501 7.5C17.2501 8.86312 16.6109 9.95707 15.8027 10.7612L16.2893 20.75Z" fill="#141B34"/>
</svg>
