<svg width="24" height="24" viewBox="0 0 24 24" fill="none" xmlns="http://www.w3.org/2000/svg">
<path opacity="0.4" d="M3.00025 10.25C2.79439 10.25 2.59759 10.3346 2.45596 10.484C2.31433 10.6334 2.24034 10.8344 2.25131 11.04L2.40403 13.9003L2.40639 13.9522C2.48639 15.7125 2.54982 17.1084 2.74453 18.199C2.94507 19.3223 3.30091 20.227 4.04094 20.9342C4.78098 21.6413 5.70086 21.9557 6.83213 22.105C7.93051 22.25 9.3278 22.25 11.0899 22.25H12.9106C14.6727 22.25 16.07 22.25 17.1684 22.105C18.2996 21.9557 19.2195 21.6413 19.9595 20.9342C20.6996 20.227 21.0554 19.3223 21.256 18.199C21.4507 17.1084 21.5141 15.7125 21.5941 13.9522L21.5963 13.9032L21.5966 13.8973L21.7492 11.04C21.7602 10.8344 21.6862 10.6334 21.5445 10.484C21.4029 10.3346 21.2061 10.25 21.0002 10.25H3.00025Z" fill="#141B34"/>
<path d="M1.98194 7.40879C2.33904 6.32293 3.19914 5.25 4.64816 5.25H19.3522C20.8012 5.25 21.6613 6.32292 22.0184 7.40879C22.3726 8.486 22.3323 9.81185 21.8168 10.7921C20.2143 13.8395 16.9562 15.2869 13.7141 15.6539C13.5426 15.6733 13.3913 15.7763 13.3142 15.9306L12.9472 16.6646C12.7678 17.0234 12.4011 17.25 12 17.25C11.5988 17.25 11.2321 17.0234 11.0528 16.6646L10.6857 15.9305C10.6086 15.7762 10.4573 15.6732 10.2858 15.6538C7.0439 15.2868 3.78598 13.8393 2.18353 10.7921C1.66803 9.81185 1.62769 8.486 1.98194 7.40879Z" fill="#141B34"/>
<path fill-rule="evenodd" clip-rule="evenodd" d="M11.8252 1.5C11.9423 1.50001 12.06 1.50001 12.1765 1.5C12.8218 1.49995 13.4008 1.49989 13.8807 1.56382C14.4114 1.63451 14.9183 1.79327 15.3723 2.17507C15.8132 2.54582 16.0764 3.02008 16.2809 3.53295C16.4753 4.02046 16.6521 4.63914 16.8604 5.36828L16.9624 5.72529L15.0393 6.27473L14.951 5.96567C14.7253 5.17561 14.5755 4.6557 14.4232 4.27373C14.2767 3.90647 14.168 3.7755 14.0851 3.70581C14.0154 3.64718 13.9125 3.58572 13.6166 3.54631C13.2844 3.50205 12.8403 3.50001 12.1178 3.50001H11.8839C11.1614 3.50001 10.7173 3.50205 10.3851 3.54631C10.0891 3.58572 9.98625 3.64718 9.91652 3.70581C9.83364 3.7755 9.72494 3.90647 9.5785 4.27373C9.42619 4.6557 9.27639 5.17561 9.05066 5.96567L8.96235 6.27473L7.03931 5.72529C7.07331 5.60629 7.10731 5.48729 7.1413 5.3683C7.3496 4.63915 7.52635 4.02046 7.72074 3.53295C7.92525 3.02008 8.18844 2.54582 8.62934 2.17507C9.08338 1.79327 9.59024 1.63451 10.121 1.56382C10.6009 1.49989 11.1798 1.49995 11.8252 1.5Z" fill="#141B34"/>
</svg>
