<svg width="24" height="24" viewBox="0 0 24 24" fill="none" xmlns="http://www.w3.org/2000/svg">
<path d="M11.9995 2.125C12.686 2.125 13.2574 2.12403 13.7183 2.1709C14.1917 2.21906 14.6309 2.32434 15.0269 2.58887C15.3271 2.7895 15.585 3.04738 15.7856 3.34766C16.0502 3.74362 16.1555 4.18283 16.2036 4.65625C16.2323 4.93788 16.2406 5.26079 16.2446 5.62598C16.2463 5.62599 16.2479 5.62694 16.2495 5.62695V21.6221C15.8734 21.6245 15.4757 21.625 15.0562 21.625H8.93896C8.52074 21.625 8.12449 21.6245 7.74951 21.6221V5.62695C7.75082 5.62694 7.75211 5.62598 7.75342 5.62598C7.75747 5.26078 7.76677 4.93789 7.79541 4.65625C7.84357 4.18283 7.94885 3.74362 8.21338 3.34766C8.41401 3.04738 8.6719 2.7895 8.97217 2.58887C9.36813 2.32434 9.80734 2.21906 10.2808 2.1709C10.7417 2.12403 11.313 2.125 11.9995 2.125ZM6.24951 21.5879C5.81563 21.568 5.41949 21.5387 5.05908 21.4902C4.02284 21.3509 3.16975 21.055 2.49463 20.3799C1.81952 19.7047 1.52359 18.8517 1.38428 17.8154C1.24948 16.8128 1.24949 15.5343 1.24951 13.9326V13.3164C1.2495 11.7152 1.24949 10.4371 1.38428 9.43457C1.5236 8.39834 1.81951 7.54524 2.49463 6.87012C3.16976 6.195 4.02285 5.89909 5.05908 5.75977C5.41952 5.71131 5.81561 5.68101 6.24951 5.66113V21.5879ZM17.7495 5.66113C18.1838 5.68101 18.5803 5.71128 18.9409 5.75977C19.9768 5.89908 20.8304 6.19428 21.5054 6.86914C22.1804 7.54408 22.4762 8.39762 22.6157 9.43359C22.7501 10.4316 22.7503 11.7037 22.7505 13.2949V13.9434C22.7508 15.5398 22.751 16.8151 22.6167 17.8154C22.4775 18.8517 22.1814 19.7047 21.5063 20.3799C20.8312 21.0551 19.9782 21.3509 18.9419 21.4902C18.581 21.5388 18.1842 21.568 17.7495 21.5879V5.66113ZM11.9995 3.625C11.2817 3.625 10.7995 3.62571 10.4321 3.66309C10.0774 3.69919 9.91361 3.76349 9.80518 3.83594C9.66872 3.92712 9.55163 4.04421 9.46045 4.18066C9.388 4.2891 9.3237 4.45288 9.2876 4.80762C9.26504 5.0294 9.25717 5.293 9.25342 5.625H14.7456C14.7419 5.293 14.734 5.0294 14.7114 4.80762C14.6753 4.45288 14.611 4.2891 14.5386 4.18066C14.4474 4.04421 14.3303 3.92712 14.1938 3.83594C14.0854 3.76349 13.9216 3.69919 13.5669 3.66309C13.1995 3.62571 12.7174 3.625 11.9995 3.625Z" fill="#141B34"/>
</svg>
