<svg width="24" height="24" viewBox="0 0 24 24" fill="none" xmlns="http://www.w3.org/2000/svg">
<path opacity="0.4" d="M12 22.25C17.6609 22.25 22.25 17.6609 22.25 12C22.25 6.33908 17.6609 1.75 12 1.75C6.33908 1.75 1.75 6.33908 1.75 12C1.75 13.1296 1.9329 14.2181 2.27148 15.2363C2.70956 16.5536 2.43613 18.1714 2.07617 19.1318L2.00293 19.3145C1.80203 19.788 1.8481 20.4083 2.2793 20.8398C2.5542 21.1147 2.95556 21.2709 3.37793 21.207C3.71652 21.1558 4.05383 21.0493 4.34102 20.9586L4.3584 20.9531C4.66731 20.8556 4.94458 20.7688 5.23633 20.7139C5.78228 20.6112 6.38511 20.6201 7.14453 21.0293C8.59046 21.8084 10.2448 22.25 12 22.25Z" fill="#141B34"/>
<path d="M11.6953 8.4073C12.0227 7.9628 12.6481 7.86726 13.0928 8.19441C13.1784 8.25907 13.4387 8.45599 13.584 8.56941C13.8735 8.79537 14.2629 9.10767 14.6553 9.44831C15.0426 9.78462 15.4561 10.1684 15.7803 10.5352C15.9414 10.7176 16.1021 10.9199 16.2275 11.128C16.3228 11.286 16.4603 11.5462 16.4932 11.8614L16.5 12.0001L16.4932 12.1387C16.4603 12.454 16.3228 12.7141 16.2275 12.8721C16.1021 13.0802 15.9414 13.2826 15.7803 13.4649C15.4561 13.8318 15.0426 14.2155 14.6553 14.5518C14.2629 14.8925 13.8735 15.2048 13.584 15.4307C13.4387 15.5441 13.1784 15.7411 13.0928 15.8057C12.6481 16.1329 12.0218 16.0374 11.6943 15.5928C11.3672 15.1482 11.4636 14.5218 11.9082 14.1944C11.9866 14.1352 12.2178 13.9605 12.3535 13.8546C12.6264 13.6416 13.0331 13.3105 13.3906 13.0001H8.5C7.94771 13.0001 7.5 12.5524 7.5 12.0001C7.50001 11.4478 7.94772 11.0001 8.5 11.0001H13.3906C13.0331 10.6896 12.6264 10.3585 12.3535 10.1456C12.2178 10.0397 11.9856 9.86495 11.9072 9.80573C11.4625 9.47822 11.3678 8.85199 11.6953 8.4073Z" fill="#141B34"/>
</svg>
