<svg width="24" height="24" viewBox="0 0 24 24" fill="none" xmlns="http://www.w3.org/2000/svg">
<path d="M12 1.75C17.6609 1.75 22.25 6.33908 22.25 12C22.25 17.6609 17.6609 22.25 12 22.25C10.2448 22.25 8.59046 21.8084 7.14453 21.0293C6.38511 20.6201 5.78228 20.6112 5.23633 20.7139C4.94458 20.7688 4.66731 20.8556 4.3584 20.9531L4.34082 20.959C4.05369 21.0496 3.7164 21.1558 3.37793 21.207C2.95556 21.2709 2.5542 21.1147 2.2793 20.8398C1.8481 20.4083 1.80203 19.788 2.00293 19.3145L2.07617 19.1318C2.43613 18.1714 2.70956 16.5536 2.27148 15.2363C1.9329 14.2181 1.75 13.1296 1.75 12C1.75 6.33908 6.33908 1.75 12 1.75ZM14 8.25C13.3244 8.25 12.6891 8.45554 12 9.01172C11.3109 8.45554 10.6756 8.25 10 8.25C8.36874 8.25 7.25011 9.60509 7.25 11.1387C7.25 11.9411 7.58219 12.6892 7.99902 13.3203C8.42004 13.9578 8.96792 14.5372 9.49316 15.0186C10.0214 15.5027 10.5462 15.9059 10.9375 16.1865C11.1338 16.3273 11.2987 16.4378 11.415 16.5146C11.4733 16.5531 11.6667 16.6668 11.6992 16.6875C11.9227 16.7853 12.1832 16.7682 12.3945 16.6377C12.5109 16.5609 12.8662 16.3273 13.0625 16.1865C13.4538 15.9059 13.9786 15.5027 14.5068 15.0186C15.0321 14.5372 15.58 13.9578 16.001 13.3203C16.4178 12.6892 16.75 11.9411 16.75 11.1387C16.7499 9.60509 15.6313 8.25 14 8.25Z" fill="#141B34"/>
</svg>
