<svg width="24" height="24" viewBox="0 0 24 24" fill="none" xmlns="http://www.w3.org/2000/svg">
<path fill-rule="evenodd" clip-rule="evenodd" d="M7.3291 4.66459C7.45615 4.4105 7.71584 4.25 7.99992 4.25H15.9999C16.284 4.25 16.5437 4.4105 16.6707 4.66459L18.6707 8.66459L17.3291 9.33541L15.5364 5.75H8.46345L6.67074 9.33541L5.3291 8.66459L7.3291 4.66459Z" fill="#141B34"/>
<path fill-rule="evenodd" clip-rule="evenodd" d="M20 9.75H4V8.25H20V9.75Z" fill="#141B34"/>
<path fill-rule="evenodd" clip-rule="evenodd" d="M12.75 1.25V9.25H11.25V1.25H12.75Z" fill="#141B34"/>
<path fill-rule="evenodd" clip-rule="evenodd" d="M6.74597 8.91406L7.06878 11.7117C7.23463 11.6383 7.41095 11.5707 7.59354 11.5114C8.32621 11.2734 9.28453 11.1284 10.1497 11.3872C10.6043 11.5232 11.1481 11.8002 11.6677 12.0649L11.8053 12.1349C12.4003 12.4371 13.0197 12.7442 13.6522 12.9621C14.8484 13.3741 15.9171 13.4165 16.829 12.6137L17.2559 8.91406L18.746 9.086L17.246 22.086C17.2023 22.4644 16.8819 22.75 16.5009 22.75H7.50092C7.11996 22.75 6.79953 22.4644 6.75586 22.086L5.25586 9.086L6.74597 8.91406ZM11.0078 17C11.0078 17.5523 10.5601 18 10.0078 18H9.99883C9.44655 18 8.99883 17.5523 8.99883 17C8.99883 16.4477 9.44655 16 9.99883 16H10.0078C10.5601 16 11.0078 16.4477 11.0078 17ZM14.0078 20C14.5601 20 15.0078 19.5523 15.0078 19C15.0078 18.4477 14.5601 18 14.0078 18H13.9988C13.4465 18 12.9988 18.4477 12.9988 19C12.9988 19.5523 13.4465 20 13.9988 20H14.0078Z" fill="#141B34"/>
</svg>
