<svg width="24" height="24" viewBox="0 0 24 24" fill="none" xmlns="http://www.w3.org/2000/svg">
<path d="M12.125 1.75C17.7859 1.75 22.375 6.33908 22.375 12C22.375 17.6609 17.7859 22.25 12.125 22.25C10.3698 22.25 8.71546 21.8084 7.26953 21.0293C6.51011 20.6201 5.90728 20.6112 5.36133 20.7139C5.06958 20.7688 4.79231 20.8556 4.4834 20.9531L4.46582 20.959C4.17869 21.0496 3.8414 21.1558 3.50293 21.207C3.08056 21.2709 2.6792 21.1147 2.4043 20.8398C1.9731 20.4083 1.92703 19.788 2.12793 19.3145L2.20117 19.1318C2.56113 18.1714 2.83456 16.5536 2.39648 15.2363C2.0579 14.2181 1.875 13.1296 1.875 12C1.875 6.33908 6.46408 1.75 12.125 1.75ZM12.4297 8.40723C12.1023 7.96278 11.4769 7.86723 11.0322 8.19434C10.9466 8.259 10.6863 8.45592 10.541 8.56934C10.2515 8.79529 9.86206 9.10761 9.46973 9.44824C9.0824 9.78454 8.66891 10.1683 8.34473 10.5352C8.18362 10.7175 8.02291 10.9199 7.89746 11.1279C7.80221 11.2859 7.66469 11.5461 7.63184 11.8613L7.625 12L7.63184 12.1387C7.66466 12.4539 7.8022 12.714 7.89746 12.8721C8.0229 13.0802 8.18362 13.2825 8.34473 13.4648C8.66892 13.8317 9.08238 14.2155 9.46973 14.5518C9.86206 14.8924 10.2515 15.2047 10.541 15.4307C10.6863 15.5441 10.9466 15.741 11.0322 15.8057C11.4769 16.1328 12.1032 16.0373 12.4307 15.5928C12.7578 15.1481 12.6614 14.5217 12.2168 14.1943C12.1384 14.1351 11.9072 13.9604 11.7715 13.8545C11.4986 13.6415 11.0919 13.3104 10.7344 13H15.625C16.1773 13 16.625 12.5523 16.625 12C16.6249 11.4478 16.1773 11 15.625 11H10.7344C11.0919 10.6896 11.4986 10.3585 11.7715 10.1455C11.9072 10.0396 12.1394 9.86488 12.2178 9.80566C12.6624 9.47814 12.7572 8.85191 12.4297 8.40723Z" fill="#141B34"/>
</svg>
