<svg width="24" height="24" viewBox="0 0 24 24" fill="none" xmlns="http://www.w3.org/2000/svg">
<path d="M12 1.75C17.6609 1.75 22.25 6.33908 22.25 12C22.25 17.6609 17.6609 22.25 12 22.25C10.2448 22.25 8.59046 21.8084 7.14453 21.0293C6.38511 20.6201 5.78228 20.6112 5.23633 20.7139C4.94458 20.7688 4.66731 20.8556 4.3584 20.9531L4.34082 20.959C4.05369 21.0496 3.7164 21.1558 3.37793 21.207C2.95556 21.2709 2.5542 21.1147 2.2793 20.8398C1.8481 20.4083 1.80203 19.788 2.00293 19.3145L2.07617 19.1318C2.43613 18.1714 2.70956 16.5536 2.27148 15.2363C1.9329 14.2181 1.75 13.1296 1.75 12C1.75 6.33908 6.33908 1.75 12 1.75ZM12 16C11.4477 16 11 16.4477 11 17C11 17.5523 11.4477 18 12 18H12.0088L12.1113 17.9951C12.6155 17.9439 13.0088 17.5177 13.0088 17C13.0088 16.4823 12.6155 16.0561 12.1113 16.0049L12.0088 16H12ZM12 6C10.067 6 8.5 7.567 8.5 9.5C8.5 10.0523 8.94772 10.5 9.5 10.5C10.0523 10.5 10.5 10.0523 10.5 9.5C10.5 8.67158 11.1716 8 12 8C12.8284 8 13.5 8.67158 13.5 9.5C13.5 10.013 13.2432 10.4663 12.8467 10.7383C12.4769 10.9917 12.0355 11.3308 11.6807 11.7578C11.322 12.1896 11 12.7754 11 13.5C11 14.0523 11.4477 14.5 12 14.5C12.5523 14.5 13 14.0523 13 13.5C13 13.3962 13.0426 13.2483 13.2188 13.0361C13.3989 12.8193 13.6632 12.6035 13.9766 12.3887C14.8942 11.7598 15.5 10.7006 15.5 9.5C15.5 7.567 13.933 6 12 6Z" fill="#141B34"/>
</svg>
