<svg width="24" height="24" viewBox="0 0 24 24" fill="none" xmlns="http://www.w3.org/2000/svg">
<path opacity="0.4" d="M14.315 1.49049C14.6424 1.5596 14.8062 1.59415 14.8726 1.71365C14.9391 1.83314 14.8722 2.0177 14.7384 2.38683C14.5842 2.81228 14.5001 3.27132 14.5001 3.75C14.5001 4.64377 14.7932 5.46908 15.2886 6.13502C15.3243 6.18305 15.3422 6.20707 15.3479 6.21595C15.4444 6.36675 15.4143 6.51999 15.2678 6.62301C15.2592 6.62908 15.2358 6.64323 15.1889 6.67153C14.935 6.81648 14.1587 7.2597 13.676 7.74206C13.3616 8.05636 12.8596 8.66278 12.7652 9.54422C12.6583 10.5434 13.1214 11.3526 13.6759 11.892C14.2891 12.4885 15.3109 13.25 16.7855 13.25H20.2149C20.7139 13.25 21.1611 13.1628 21.5581 13.0243C22.1327 12.8238 22.42 12.7235 22.5517 12.8404C22.6834 12.9572 22.6283 13.2078 22.5183 13.7089C21.4884 18.3974 17.1466 21.8834 11.9998 21.8834C11.3039 21.8843 10.6101 21.8199 9.92674 21.6916C9.68955 21.647 9.53885 21.6189 9.42672 21.6036C9.34309 21.5907 9.25906 21.6219 9.22751 21.6391C9.11298 21.6935 8.96044 21.7744 8.72689 21.8986C7.29517 22.66 5.6248 22.93 4.01372 22.6303C3.75356 22.5819 3.53816 22.4 3.44689 22.1517C3.35562 21.9033 3.402 21.6252 3.56893 21.4199C4.03673 20.8445 4.35839 20.1513 4.50064 19.4052C4.53912 19.2 4.45203 18.9213 4.18427 18.6494C2.36947 16.8065 1.24976 14.3144 1.24976 11.5667C1.24976 5.83838 6.09499 1.25 11.9998 1.25C12.7937 1.25 13.5685 1.33296 14.315 1.49049Z" fill="#141B34"/>
<path fill-rule="evenodd" clip-rule="evenodd" d="M5.99988 12C5.99988 11.4477 6.44759 11 6.99988 11H7.00885C7.56113 11 8.00885 11.4477 8.00885 12C8.00885 12.5523 7.56113 13 7.00885 13H6.99988C6.44759 13 5.99988 12.5523 5.99988 12ZM9.99539 12C9.99539 11.4477 10.4431 11 10.9954 11H11.0044C11.5566 11 12.0044 11.4477 12.0044 12C12.0044 12.5523 11.5566 13 11.0044 13H10.9954C10.4431 13 9.99539 12.5523 9.99539 12Z" fill="#141B34"/>
<path d="M15.9657 7.9551C17.5121 7.01497 19.4878 7.01497 21.0342 7.9551C21.3034 8.10933 21.9302 8.46968 22.2638 8.80305C22.4763 9.01542 22.7022 9.31892 22.7434 9.70389C22.7877 10.1169 22.6073 10.4968 22.2783 10.8168C21.7956 11.2863 21.1305 11.75 20.2146 11.75H16.7853C15.8694 11.75 15.2043 11.2863 14.7216 10.8168C14.3927 10.4968 14.2123 10.1169 14.2565 9.70389C14.2977 9.31892 14.5237 9.01542 14.7361 8.80305C15.0697 8.46967 15.6966 8.10933 15.9657 7.9551Z" fill="#141B34"/>
<path d="M18.4999 6.25C19.8806 6.25 20.9999 5.13071 20.9999 3.75C20.9999 2.36929 19.8806 1.25 18.4999 1.25C17.1192 1.25 15.9999 2.36929 15.9999 3.75C15.9999 5.13071 17.1192 6.25 18.4999 6.25Z" fill="#141B34"/>
</svg>
