<svg width="24" height="24" viewBox="0 0 24 24" fill="none" xmlns="http://www.w3.org/2000/svg">
<path opacity="0.4" fill-rule="evenodd" clip-rule="evenodd" d="M12 2.5C17.2467 2.5 21.5 6.75329 21.5 12C21.5 17.2467 17.2467 21.5 12 21.5C10.3719 21.5 8.83935 21.0908 7.5 20.3691C5.63177 19.3624 4.37432 20.298 3.26562 20.4658C3.09754 20.4912 2.92978 20.4298 2.80957 20.3096C2.62737 20.127 2.59262 19.8449 2.69336 19.6074C3.12851 18.5819 3.52819 16.6382 2.9834 15C2.6698 14.057 2.5 13.0483 2.5 12C2.5 6.75329 6.75329 2.5 12 2.5ZM12 9C9 9 7 12 7 12C7 12 9.04197 15 12 15C14.958 15 17 12 17 12C17 12 15 9 12 9Z" fill="#141B34"/>
<path d="M21.5 12C21.5 17.2467 17.2467 21.5 12 21.5C10.3719 21.5 8.8394 21.0904 7.5 20.3687C5.63177 19.362 4.37462 20.2979 3.26592 20.4658C3.09774 20.4913 2.93024 20.4302 2.80997 20.31C2.62741 20.1274 2.59266 19.8451 2.6935 19.6074C3.12865 18.5818 3.5282 16.6382 2.98341 15C2.6698 14.057 2.5 13.0483 2.5 12C2.5 6.75329 6.75329 2.5 12 2.5C17.2467 2.5 21.5 6.75329 21.5 12Z" stroke="#141B34" stroke-width="1.5" stroke-linecap="round" stroke-linejoin="round"/>
<path d="M17 12C17 12 14.958 15 12 15C9.04197 15 7 12 7 12C7 12 9 9 12 9C15 9 17 12 17 12Z" stroke="#141B34" stroke-width="1.5" stroke-linecap="round" stroke-linejoin="round"/>
<path d="M12 12H12.009" stroke="#141B34" stroke-width="2" stroke-linecap="round" stroke-linejoin="round"/>
</svg>
