<svg width="24" height="24" viewBox="0 0 24 24" fill="none" xmlns="http://www.w3.org/2000/svg">
<path d="M12 1.74994C17.6609 1.74994 22.25 6.33902 22.25 11.9999C22.25 17.6609 17.6609 22.2499 12 22.2499C10.2448 22.2499 8.59046 21.8083 7.14453 21.0292C6.38511 20.62 5.78228 20.6111 5.23633 20.7138C4.94458 20.7687 4.66731 20.8556 4.3584 20.9531L4.34082 20.9589C4.05369 21.0496 3.7164 21.1557 3.37793 21.207C2.95556 21.2708 2.5542 21.1147 2.2793 20.8398C1.8481 20.4082 1.80203 19.7879 2.00293 19.3144L2.07617 19.1318C2.43613 18.1713 2.70956 16.5536 2.27148 15.2363C1.9329 14.218 1.75 13.1296 1.75 11.9999C1.75 6.33902 6.33908 1.74994 12 1.74994ZM12 7.24994C10.9161 7.24995 9.89777 7.49671 9.0498 7.9306C8.69415 8.11261 8.3288 8.28586 8.03223 8.77826C7.72925 9.28141 7.74999 9.79429 7.75 10.2988V11.6943C7.75 14.41 9.8613 15.8664 10.9385 16.4365C11.2266 16.589 11.5151 16.7499 12 16.7499C12.4849 16.7499 12.7734 16.589 13.0615 16.4365C14.1387 15.8664 16.25 14.41 16.25 11.6943V10.2988C16.25 9.79428 16.2708 9.28142 15.9678 8.77826C15.6712 8.28586 15.3059 8.11262 14.9502 7.9306C14.1022 7.49672 13.0839 7.24994 12 7.24994Z" fill="#141B34"/>
</svg>
