<svg width="24" height="24" viewBox="0 0 24 24" fill="none" xmlns="http://www.w3.org/2000/svg">
<path d="M11.7502 1.5C17.4112 1.5 22.0002 6.08908 22.0002 11.75C22.0002 17.4109 17.4112 22 11.7502 22C10.0111 22 8.37131 21.5656 6.93481 20.7998C5.16065 20.0361 3.41581 20.4008 2.31567 20.4971C2.03612 20.5215 1.76641 20.3876 1.61646 20.1504C1.46663 19.9132 1.46179 19.6121 1.60376 19.3701C1.78718 19.0573 2.04024 18.3756 2.16821 17.5312C2.29515 16.6934 2.28532 15.7789 2.02173 14.9863C1.68315 13.9681 1.50024 12.8796 1.50024 11.75C1.50024 6.08908 6.08932 1.5 11.7502 1.5ZM15.9573 8.54297C15.5668 8.15244 14.9337 8.15244 14.5432 8.54297L10.2502 12.8359L8.95728 11.543C8.56675 11.1524 7.93374 11.1524 7.54321 11.543C7.15269 11.9335 7.15269 12.5665 7.54321 12.957L9.54321 14.957C9.93374 15.3475 10.5668 15.3475 10.9573 14.957L15.9573 9.95703C16.3478 9.56653 16.3477 8.9335 15.9573 8.54297Z" fill="#141B34"/>
</svg>
