<svg width="24" height="24" viewBox="0 0 24 24" fill="none" xmlns="http://www.w3.org/2000/svg">
<g opacity="0.4">
<path d="M11.9999 21.1334C17.5221 21.1334 21.9999 16.8499 21.9999 11.5667C21.9999 10.9952 21.9475 10.4354 21.847 9.89139C21.6646 10.3278 21.3331 10.6738 20.9196 10.8573C20.598 11 20.1903 11 19.3749 11H17.6249C16.8095 11 16.4018 11 16.0802 10.8573C15.6514 10.667 15.3107 10.302 15.1331 9.84253C14.9999 9.49796 14.9999 9.06114 14.9999 8.1875C14.9999 7.31386 14.9999 6.87704 15.1331 6.53247C15.3107 6.07304 15.6514 5.70803 16.0802 5.51773C16.4018 5.375 16.8095 5.375 17.6249 5.375H16.7499V3.6875C16.7499 3.5133 16.7773 3.34526 16.8281 3.18717C15.3967 2.43061 13.7508 2 11.9999 2C6.47766 2 1.99988 6.28357 1.99988 11.5667C1.99988 14.1051 3.03321 16.4115 4.71877 18.1231C5.08988 18.5 5.33766 19.0148 5.23766 19.5448C5.07263 20.4112 4.69862 21.2194 4.15099 21.893C5.59183 22.161 7.09002 21.9197 8.37487 21.2364C8.82906 20.9949 9.05615 20.8741 9.21641 20.8496C9.37666 20.8251 9.60621 20.8682 10.0653 20.9545C10.7031 21.0742 11.3506 21.1343 11.9999 21.1334Z" fill="#141B34"/>
<path d="M19.6229 5.375C19.6228 5.37494 19.6229 5.37506 19.6229 5.375H19.3749C19.4622 5.375 19.5446 5.37483 19.6229 5.375Z" fill="#141B34"/>
</g>
<path d="M12.9999 2.04725C12.671 2.016 12.3374 2 11.9999 2C6.47766 2 1.99988 6.28357 1.99988 11.5667C1.99988 14.1051 3.03321 16.4115 4.71877 18.1231C5.08988 18.5 5.33766 19.0148 5.23766 19.5448C5.07263 20.4112 4.69862 21.2194 4.15099 21.893C5.59183 22.161 7.09002 21.9197 8.37487 21.2364C8.82906 20.9949 9.05615 20.8741 9.21641 20.8496C9.37666 20.8251 9.60621 20.8682 10.0653 20.9545C10.7031 21.0742 11.3506 21.1343 11.9999 21.1334C16.8299 21.1334 21.0652 17.8565 21.9999 13.5" stroke="#141B34" stroke-width="1.5" stroke-linecap="round" stroke-linejoin="round"/>
<path d="M16.754 5.17191V3.78276C16.754 3.57757 16.7626 3.36983 16.836 3.17822C17.0314 2.66818 17.549 2 18.4913 2C19.4337 2 19.9716 2.66818 20.167 3.17822C20.2404 3.36983 20.249 3.57757 20.249 3.78276V5.17191M16.8233 10.9897H20.2C21.1941 10.9897 22 10.1839 22 9.18974V7.19013C22 6.19602 21.1941 5.39013 20.2 5.39013H16.8233C15.8292 5.39013 15.0233 6.19602 15.0233 7.19013V9.18974C15.0233 10.1839 15.8292 10.9897 16.8233 10.9897Z" stroke="#141B34" stroke-width="1.5" stroke-linecap="round" stroke-linejoin="round"/>
<path d="M11.9954 12H12.0044M7.99988 12H8.00885" stroke="#141B34" stroke-width="2" stroke-linecap="round" stroke-linejoin="round"/>
</svg>
