<svg width="24" height="24" viewBox="0 0 24 24" fill="none" xmlns="http://www.w3.org/2000/svg">
<path opacity="0.4" d="M12 22.25C17.6609 22.25 22.25 17.6609 22.25 12C22.25 6.33908 17.6609 1.75 12 1.75C6.33908 1.75 1.75 6.33908 1.75 12C1.75 13.1296 1.9329 14.2181 2.27148 15.2363C2.70956 16.5536 2.43613 18.1714 2.07617 19.1318L2.00293 19.3145C1.80203 19.788 1.8481 20.4083 2.2793 20.8398C2.5542 21.1147 2.95556 21.2709 3.37793 21.207C3.71652 21.1558 4.05383 21.0493 4.34102 20.9586L4.3584 20.9531C4.66731 20.8556 4.94458 20.7688 5.23633 20.7139C5.78228 20.6112 6.38511 20.6201 7.14453 21.0293C8.59046 21.8084 10.2448 22.25 12 22.25Z" fill="#141B34"/>
<path d="M12 6.75C12.7592 6.75 13.4475 7.05883 13.9443 7.55566C14.2372 7.84856 14.2372 8.32332 13.9443 8.61621C13.6514 8.90895 13.1766 8.90905 12.8838 8.61621C12.6568 8.38918 12.3454 8.25 12 8.25C11.3096 8.25 10.75 8.80964 10.75 9.5V10.25H14C15.2426 10.25 16.25 11.2574 16.25 12.5V14C16.25 15.2426 15.2426 16.25 14 16.25H10C8.75736 16.25 7.75 15.2426 7.75 14V12.5C7.75 11.5207 8.37657 10.69 9.25 10.3809V9.5C9.25 7.98122 10.4812 6.75 12 6.75Z" fill="#141B34"/>
</svg>
