<svg width="24" height="24" viewBox="0 0 24 24" fill="none" xmlns="http://www.w3.org/2000/svg">
<path fill-rule="evenodd" clip-rule="evenodd" d="M14 8.25C13.3633 8.25 12.801 8.28223 12.3232 8.38719C11.837 8.49401 11.3917 8.68612 11.0389 9.03892C10.6861 9.39172 10.494 9.83699 10.3872 10.3232C10.2822 10.801 10.25 11.3633 10.25 12V20.75H14.9996V19C14.9996 18.4477 15.4473 18 15.9996 18C16.5518 18 16.9996 18.4477 16.9996 19V20.75H21.75V12C21.75 11.3633 21.7178 10.801 21.6128 10.3232C21.506 9.83699 21.3139 9.39172 20.9611 9.03892C20.6083 8.68612 20.163 8.49401 19.6768 8.38719C19.199 8.28223 18.6367 8.25 18 8.25H14ZM15 11.25C14.5858 11.25 14.25 11.5858 14.25 12C14.25 12.4142 14.5858 12.75 15 12.75H17C17.4142 12.75 17.75 12.4142 17.75 12C17.75 11.5858 17.4142 11.25 17 11.25H15ZM15 14.25C14.5858 14.25 14.25 14.5858 14.25 15C14.25 15.4142 14.5858 15.75 15 15.75H17C17.4142 15.75 17.75 15.4142 17.75 15C17.75 14.5858 17.4142 14.25 17 14.25H15Z" fill="#141B34"/>
<path d="M2.25 20.75H8.75V12C8.75 11.3305 8.78199 10.6393 8.92212 10.0014C9.06777 9.33839 9.35931 8.59721 9.97826 7.97826C10.5972 7.35931 11.3384 7.06777 12.0014 6.92212C12.6393 6.78199 13.3305 6.75 14 6.75H15.15C15.4328 6.75 15.5743 6.75 15.6621 6.66213C15.75 6.57426 15.75 6.43284 15.75 6.15V5C15.75 4.36327 15.7178 3.80098 15.6128 3.32323C15.506 2.83699 15.3139 2.39172 14.9611 2.03892C14.6083 1.68612 14.163 1.49401 13.6768 1.38719C13.199 1.28223 12.6367 1.25 12 1.25H6C5.36327 1.25 4.80098 1.28223 4.32323 1.38719C3.83699 1.49401 3.39172 1.68612 3.03892 2.03892C2.68612 2.39172 2.49401 2.83699 2.38719 3.32323C2.28223 3.80098 2.25 4.36327 2.25 5V5.25H4.99956C5.41377 5.25 5.74956 5.58579 5.74956 6C5.74956 6.41421 5.41377 6.75 4.99956 6.75H2.25V9.25H4.99956C5.41377 9.25 5.74956 9.58579 5.74956 10C5.74956 10.4142 5.41377 10.75 4.99956 10.75H2.25V13.25H4.99956C5.41377 13.25 5.74956 13.5858 5.74956 14C5.74956 14.4142 5.41377 14.75 4.99956 14.75H2.25V20.75Z" fill="#141B34"/>
<path d="M2.25 20.75C1.69772 20.75 1.25 21.1977 1.25 21.75C1.25 22.3023 1.69772 22.75 2.25 22.75H21.75C22.3023 22.75 22.75 22.3023 22.75 21.75C22.75 21.1977 22.3023 20.75 21.75 20.75H2.25Z" fill="#141B34"/>
</svg>
