<svg width="24" height="24" viewBox="0 0 24 24" fill="none" xmlns="http://www.w3.org/2000/svg">
<circle cx="17" cy="17" r="2.5" fill="#141B34"/>
<circle cx="7" cy="17" r="2.5" fill="#141B34"/>
<path fill-rule="evenodd" clip-rule="evenodd" d="M1.00159 5.99968C1.00177 4.89524 1.89715 4 3.00159 4H15.9999C19.8659 4 22.9999 7.134 22.9999 11V16C22.9999 17.1046 22.1045 18 20.9999 18H20.5594C20.6485 17.6819 20.6961 17.3465 20.6961 17C20.6961 14.9565 19.0395 13.3 16.9961 13.3C14.9526 13.3 13.2961 14.9565 13.2961 17C13.2961 17.3465 13.3437 17.6819 13.4328 18H10.5594C10.6485 17.6819 10.6961 17.3465 10.6961 17C10.6961 14.9565 9.03955 13.3 6.99609 13.3C4.95264 13.3 3.29609 14.9565 3.29609 17C3.29609 17.3465 3.34373 17.6819 3.43281 18H3C1.89531 18 0.999824 17.1044 1 15.9997L1.00159 5.99968ZM9.99789 6H6.99789V9H9.99789V6ZM11.9979 9V6H14.9995L14.9983 9H11.9979ZM16.9981 9.58595L18.4121 11H20.9999C20.9999 8.58089 19.2819 6.56303 16.9995 6.09993L16.9981 9.58595ZM3.00111 9H4.99789V6H3.00159L3.00111 9Z" fill="#141B34"/>
</svg>
