<svg width="24" height="24" viewBox="0 0 24 24" fill="none" xmlns="http://www.w3.org/2000/svg">
<path fill-rule="evenodd" clip-rule="evenodd" d="M6.02008 17.2498L5.06445 19.7981L6.93711 20.5003L8.15608 17.2498H11.25L11.25 5.49976H12.75L12.75 17.2498H15.8455L17.0645 20.5003L18.9371 19.7981L17.9815 17.2498L19 17.2498C19.3901 17.2498 19.715 16.9508 19.7474 16.562L20.6693 5.49976H22V3.49976L2 3.49976L2 5.49976H3.33074L4.25259 16.562C4.28499 16.9508 4.60994 17.2498 5 17.2498H6.02008ZM8.26074 11.5005L8.25977 9.50049L9.75977 9.49976L9.76074 11.4998L8.26074 11.5005ZM15.7504 11.4998L15.75 9.49976L14.25 9.50004L14.2504 11.5L15.7504 11.4998Z" fill="#141B34"/>
</svg>
