<svg width="24" height="24" viewBox="0 0 24 24" fill="none" xmlns="http://www.w3.org/2000/svg">
<path fill-rule="evenodd" clip-rule="evenodd" d="M4.5 4.5V3H6.5V4.5L8 4.5V6.5H6.5V8H4.5V6.5H3V4.5L4.5 4.5Z" fill="#141B34"/>
<path fill-rule="evenodd" clip-rule="evenodd" d="M6.00008 19.4143L7.29297 20.7072L8.70718 19.293L7.41429 18.0001L8.70718 16.7072L7.29297 15.293L6.00008 16.5859L4.70718 15.293L3.29297 16.7072L4.58586 18.0001L3.29297 19.293L4.70718 20.7072L6.00008 19.4143Z" fill="#141B34"/>
<path fill-rule="evenodd" clip-rule="evenodd" d="M16 5L20 5L20 7L16 7L16 5Z" fill="#141B34"/>
<path fill-rule="evenodd" clip-rule="evenodd" d="M16 14.5L20 14.5V16.5L16 16.5V14.5ZM16 17.5L20 17.5V19.5H16V17.5Z" fill="#141B34"/>
<path fill-rule="evenodd" clip-rule="evenodd" d="M2 11L22 11L22 13L2 13L2 11Z" fill="#141B34"/>
<path fill-rule="evenodd" clip-rule="evenodd" d="M13 2L13 22L11 22L11 2L13 2Z" fill="#141B34"/>
</svg>
