<svg width="24" height="24" viewBox="0 0 24 24" fill="none" xmlns="http://www.w3.org/2000/svg">
<path opacity="0.4" d="M12.7963 1.00253C12.5316 1.00379 12.2672 1.00505 12.0036 1.00505C11.74 1.00505 11.4757 1.00379 11.2109 1.00253C9.7846 0.995737 8.34613 0.988883 6.93461 1.17864C5.59883 1.35821 4.49323 1.73982 3.61779 2.61515C2.81516 3.41769 2.42669 4.41487 2.22942 5.60825C1.93598 7.38344 2.00774 9.21006 2.00774 11.0042V13.0775C2.00772 15.1351 2.0077 16.781 2.18135 18.0726C2.36094 19.4084 2.74259 20.514 3.61803 21.3895C4.49347 22.265 5.59907 22.6466 6.93485 22.8262C8.34637 23.016 9.78483 23.0091 11.2112 23.0023H11.2112C11.4759 23.0011 11.7402 22.9998 12.0038 22.9998C12.2675 22.9998 12.5318 23.0011 12.7965 23.0023H12.7965C14.2229 23.0091 15.6613 23.016 17.0728 22.8262C18.4086 22.6466 19.5142 22.265 20.3897 21.3895C21.2651 20.514 21.6468 19.4084 21.8263 18.0726C22 16.781 22 15.1352 21.9999 13.0775V11.0042C21.9999 10.6214 22.0004 10.2574 21.9987 9.88901C21.9939 8.16246 21.9663 6.74851 21.7778 5.60825C21.5805 4.41487 21.1921 3.41769 20.3894 2.61515C19.514 1.73982 18.4084 1.35821 17.0726 1.17864C15.6611 0.988883 14.2226 0.995737 12.7963 1.00253Z" fill="#141B34"/>
<path fill-rule="evenodd" clip-rule="evenodd" d="M7.20008 3.15966C6.08599 3.30943 5.47259 3.5865 5.03052 4.02851C4.6235 4.43549 4.35763 4.98624 4.20095 5.93409C4.09211 6.59253 4.04352 7.39086 4.02215 8.39442C4.0161 8.6786 4.01308 8.82069 4.10128 8.91078C4.18949 9.00087 4.33267 9.00087 4.61903 9.00087H19.3863C19.6727 9.00087 19.8159 9.00087 19.9041 8.91078C19.9923 8.82069 19.9893 8.6786 19.9832 8.39442C19.9618 7.39086 19.9132 6.59253 19.8044 5.93409C19.6477 4.98624 19.3819 4.43549 18.9748 4.02851C18.5328 3.5865 17.9194 3.30943 16.8053 3.15966C15.6624 3.00603 14.1514 3.00391 12.0027 3.00391C9.85393 3.00391 8.34292 3.00603 7.20008 3.15966ZM15 5C14.4477 5 14 5.44772 14 6C14 6.55228 14.4477 7 15 7L17 7C17.5523 7 18 6.55229 18 6C18 5.44772 17.5523 5 17 5L15 5Z" fill="#141B34"/>
<path fill-rule="evenodd" clip-rule="evenodd" d="M6 14C6 13.4477 6.44772 13 7 13H7.52632C8.0786 13 8.52632 13.4477 8.52632 14C8.52632 14.5523 8.0786 15 7.52632 15H7C6.44772 15 6 14.5523 6 14ZM10.7368 14C10.7368 13.4477 11.1846 13 11.7368 13H12.2632C12.8154 13 13.2632 13.4477 13.2632 14C13.2632 14.5523 12.8154 15 12.2632 15H11.7368C11.1846 15 10.7368 14.5523 10.7368 14ZM15.4737 14C15.4737 13.4477 15.9214 13 16.4737 13H17C17.5523 13 18 13.4477 18 14C18 14.5523 17.5523 15 17 15H16.4737C15.9214 15 15.4737 14.5523 15.4737 14Z" fill="#141B34"/>
<path fill-rule="evenodd" clip-rule="evenodd" d="M6 18C6 17.4477 6.44772 17 7 17H7.52632C8.0786 17 8.52632 17.4477 8.52632 18C8.52632 18.5523 8.0786 19 7.52632 19H7C6.44772 19 6 18.5523 6 18ZM10.7368 18C10.7368 17.4477 11.1846 17 11.7368 17H12.2632C12.8154 17 13.2632 17.4477 13.2632 18C13.2632 18.5523 12.8154 19 12.2632 19H11.7368C11.1846 19 10.7368 18.5523 10.7368 18ZM15.4737 18C15.4737 17.4477 15.9214 17 16.4737 17H17C17.5523 17 18 17.4477 18 18C18 18.5523 17.5523 19 17 19H16.4737C15.9214 19 15.4737 18.5523 15.4737 18Z" fill="#141B34"/>
</svg>
