<svg width="24" height="24" viewBox="0 0 24 24" fill="none" xmlns="http://www.w3.org/2000/svg">
<path fill-rule="evenodd" clip-rule="evenodd" d="M11.2508 11.7875C10.6718 11.9195 10.1498 12.201 9.72873 12.5888L8.94107 12.0177L8.06055 13.2321L8.88213 13.8278C8.73756 14.1994 8.65822 14.6033 8.65822 15.0249C8.65822 15.4465 8.73758 15.8504 8.88217 16.2221L8.06061 16.8177L8.941 18.0321L9.72881 17.461C10.1499 17.8489 10.6718 18.1303 11.2508 18.2623V19.0249H12.7508V18.2623C13.3298 18.1303 13.8518 17.8489 14.2728 17.461L15.0606 18.0321L15.941 16.8177L15.1195 16.2221C15.264 15.8504 15.3434 15.4465 15.3434 15.0249C15.3434 14.6033 15.2641 14.1994 15.1195 13.8278L15.9411 13.2321L15.0605 12.0177L14.2729 12.5888C13.8518 12.201 13.3299 11.9195 12.7508 11.7875V11.0249H11.2508V11.7875ZM12.0008 13.2035C11.3593 13.2035 10.796 13.5266 10.4655 14.0174C10.2711 14.3059 10.1582 14.6514 10.1582 15.0249C10.1582 15.3984 10.2711 15.744 10.4655 16.0326C10.796 16.5232 11.3593 16.8463 12.0008 16.8463C12.6423 16.8463 13.2056 16.5232 13.5361 16.0326C13.7305 15.744 13.8434 15.3984 13.8434 15.0249C13.8434 14.6514 13.7305 14.3059 13.5361 14.0174C13.2057 13.5266 12.6423 13.2035 12.0008 13.2035Z" fill="#141B34"/>
<path fill-rule="evenodd" clip-rule="evenodd" d="M7.5 1.5V3H16.5V1.5H18.5V3H21C21.4142 3 21.75 3.33579 21.75 3.75V21.525C21.75 22.0635 21.3135 22.5 20.775 22.5H3.225C2.68652 22.5 2.25 22.0635 2.25 21.525V3.75C2.25 3.33579 2.58579 3 3 3H5.5V1.5H7.5ZM19.8 20.55V9.5H4.2V20.55H19.8Z" fill="#141B34"/>
</svg>
