<svg width="24" height="24" viewBox="0 0 24 24" fill="none" xmlns="http://www.w3.org/2000/svg">
<path fill-rule="evenodd" clip-rule="evenodd" d="M12 13.2734C10.8954 13.2734 10 14.1689 10 15.2734C10 15.4526 10.0236 15.6263 10.0677 15.7915L12.518 13.3412C12.3528 13.297 12.1792 13.2734 12 13.2734ZM13.9323 14.7554L11.482 17.2057C11.6472 17.2499 11.8208 17.2734 12 17.2734C13.1046 17.2734 14 16.378 14 15.2734C14 15.0943 13.9764 14.9206 13.9323 14.7554ZM8 15.2734C8 13.0643 9.79086 11.2734 12 11.2734C14.2091 11.2734 16 13.0643 16 15.2734C16 17.4826 14.2091 19.2734 12 19.2734C9.79086 19.2734 8 17.4826 8 15.2734Z" fill="#141B34"/>
<path fill-rule="evenodd" clip-rule="evenodd" d="M7.6125 1.25C8.15098 1.25 8.5875 1.68754 8.5875 2.22727V3.20455H15.4125V2.22727C15.4125 1.68754 15.849 1.25 16.3875 1.25C16.926 1.25 17.3625 1.68754 17.3625 2.22727V3.20455H18.825C20.4404 3.20455 21.75 4.51717 21.75 6.13636V19.8182C21.75 21.4374 20.4404 22.75 18.825 22.75H5.175C3.55957 22.75 2.25 21.4374 2.25 19.8182V6.13636C2.25 4.51717 3.55957 3.20455 5.175 3.20455H6.6375V2.22727C6.6375 1.68754 7.07403 1.25 7.6125 1.25ZM19.7999 9.75H4.19995V19.8182C4.19995 20.3579 4.63647 20.7955 5.17495 20.7955H18.8249C19.3634 20.7955 19.7999 20.3579 19.7999 19.8182V9.75Z" fill="#141B34"/>
</svg>
