<svg width="24" height="24" viewBox="0 0 24 24" fill="none" xmlns="http://www.w3.org/2000/svg">
<path d="M20.75 17.25C21.3023 17.25 21.75 17.6977 21.75 18.25C21.75 18.8023 21.3023 19.25 20.75 19.25H13.75C13.1977 19.25 12.75 18.8023 12.75 18.25C12.75 17.6977 13.1977 17.25 13.75 17.25H20.75Z" fill="#141B34"/>
<path d="M7.6125 1.25C8.15098 1.25 8.5875 1.68754 8.5875 2.22727V3.20455H15.4125V2.22727C15.4125 1.68754 15.849 1.25 16.3875 1.25C16.926 1.25 17.3625 1.68754 17.3625 2.22727V3.20455H18.825C20.4404 3.20455 21.75 4.51717 21.75 6.13636V14.025C21.75 14.5635 21.3135 15 20.775 15C20.2365 15 19.7999 14.5635 19.7999 14.025V9.75H4.19995V19.8182C4.19995 20.3579 4.63647 20.7955 5.17495 20.7955H11.0227C11.5624 20.7955 11.9999 21.233 11.9999 21.7727C11.9999 22.3125 11.5624 22.75 11.0227 22.75H5.175C3.55957 22.75 2.25 21.4374 2.25 19.8182V6.13636C2.25 4.51717 3.55957 3.20455 5.175 3.20455H6.6375V2.22727C6.6375 1.68754 7.07403 1.25 7.6125 1.25Z" fill="#141B34"/>
</svg>
