<svg width="24" height="24" viewBox="0 0 24 24" fill="none" xmlns="http://www.w3.org/2000/svg">
<g opacity="0.4">
<path d="M10.9536 22.75C9.17575 22.75 7.74273 22.75 6.61566 22.5982C5.44552 22.4405 4.46029 22.1031 3.6778 21.3188C2.89531 20.5345 2.55874 19.547 2.40142 18.3741C2.2499 17.2444 2.24991 15.8081 2.24994 14.0261V14.0261V11.9285V11.9284C2.24993 11.1349 2.24992 10.4099 2.26329 9.75H4.2138C4.20039 10.3958 4.19995 11.1378 4.19995 12V13.9545C4.19995 15.8249 4.20202 17.1294 4.33404 18.1137C4.46229 19.0698 4.69687 19.5761 5.05666 19.9367C5.41646 20.2974 5.9216 20.5325 6.87551 20.6611C7.85746 20.7934 9.15891 20.7955 11.025 20.7955C11.5496 20.7955 11.975 21.2208 11.975 21.7455V21.7727C11.975 22.3125 11.5374 22.75 10.9977 22.75H10.9536Z" fill="#141B34"/>
<path d="M19.7999 14.9796V12C19.7999 11.1378 19.7995 10.3958 19.7861 9.75H21.7366C21.75 10.4099 21.75 11.1349 21.7499 11.9285V14.9796C21.7499 15.518 21.3134 15.9545 20.7749 15.9545C20.2365 15.9545 19.7999 15.518 19.7999 14.9796Z" fill="#141B34"/>
</g>
<path d="M8.09995 1.25C8.63843 1.25 9.07495 1.68754 9.07495 2.22727V3.21284C9.65285 3.20453 10.2784 3.20453 10.9536 3.20454H13.0463C13.7216 3.20453 14.3471 3.20453 14.925 3.21284V2.22727C14.925 1.68754 15.3615 1.25 15.9 1.25C16.4384 1.25 16.875 1.68754 16.875 2.22727V3.29947C17.0512 3.31556 17.2209 3.33437 17.3842 3.35638C18.5544 3.51407 19.5396 3.85141 20.3221 4.63573C21.1046 5.42004 21.4412 6.40758 21.5985 7.58045C21.6825 8.20706 21.7199 8.92803 21.7366 9.75H2.26331C2.27996 8.92803 2.31739 8.20705 2.40144 7.58045C2.55876 6.40758 2.89532 5.42004 3.67781 4.63573C4.4603 3.85141 5.44554 3.51407 6.61568 3.35638C6.77897 3.33437 6.94869 3.31556 7.12495 3.29947V2.22727C7.12495 1.68754 7.56148 1.25 8.09995 1.25Z" fill="#141B34"/>
<path fill-rule="evenodd" clip-rule="evenodd" d="M16.967 16.053C17.352 16.449 17.343 17.0821 16.9469 17.4671C16.7744 17.6348 16.5063 17.8454 16.2668 18.0335L16.2637 18.0359C16.245 18.0506 16.2262 18.0654 16.2073 18.0802C16.1362 18.136 16.0641 18.1927 15.9915 18.25H20.7499C21.3022 18.25 21.7499 18.6977 21.7499 19.25C21.7499 19.8023 21.3022 20.25 20.7499 20.25H15.9915C16.0641 20.3074 16.1362 20.364 16.2073 20.4198C16.2262 20.4346 16.245 20.4494 16.2637 20.4641L16.2668 20.4665C16.5063 20.6546 16.7744 20.8652 16.9469 21.0329C17.343 21.4179 17.352 22.051 16.967 22.447C16.5821 22.843 15.949 22.852 15.5529 22.4671C15.4734 22.3898 15.3041 22.2536 15.0283 22.0369C15.0085 22.0214 14.9884 22.0056 14.968 21.9895C14.7263 21.7999 14.4387 21.5741 14.1638 21.3412C13.8701 21.0923 13.556 20.8063 13.3082 20.5153C13.1839 20.3694 13.0559 20.1987 12.9549 20.0101C12.8582 19.8295 12.7499 19.5652 12.7499 19.25C12.7499 18.9348 12.8582 18.6705 12.9549 18.4899C13.0559 18.3013 13.1839 18.1306 13.3082 17.9847C13.556 17.6937 13.8701 17.4077 14.1638 17.1588C14.4387 16.9259 14.7263 16.7001 14.968 16.5104C14.9884 16.4944 15.0085 16.4786 15.0283 16.4631C15.3042 16.2464 15.4734 16.1102 15.5529 16.0329C15.949 15.648 16.5821 15.657 16.967 16.053Z" fill="#141B34"/>
</svg>
