<svg width="24" height="24" viewBox="0 0 24 24" fill="none" xmlns="http://www.w3.org/2000/svg">
<path fill-rule="evenodd" clip-rule="evenodd" d="M14.7355 15.6445V14.7523C14.7355 13.2323 15.9677 12 17.4878 12C19.0078 12 20.2401 13.2323 20.2401 14.7523V15.6445H21.7459V22.749H13.25V15.6445H14.7355ZM16.7355 14.7523C16.7355 14.3368 17.0723 14 17.4878 14C17.9033 14 18.2401 14.3368 18.2401 14.7523V15.6445H16.7355V14.7523Z" fill="#141B34"/>
<path d="M8.5875 1.25V3.20455H15.4125V1.25H17.3625V3.20455H21.75V11.9773H19.8V9.75H4.19995V20.7955H12L12 22.75H2.25V3.20455H6.6375V1.25H8.5875Z" fill="#141B34"/>
</svg>
