<svg width="24" height="24" viewBox="0 0 24 24" fill="none" xmlns="http://www.w3.org/2000/svg">
<path opacity="0.4" d="M8.1 1.25C8.63848 1.25 9.075 1.68756 9.075 2.22731V3.21292C9.65289 3.20461 10.2784 3.20462 10.9537 3.20463H13.0463C13.7216 3.20462 14.3471 3.20461 14.925 3.21292V2.22731C14.925 1.68756 15.3615 1.25 15.9 1.25C16.4385 1.25 16.875 1.68756 16.875 2.22731V3.29955C17.0513 3.31564 17.221 3.33446 17.3843 3.35647C18.5544 3.51416 19.5397 3.85152 20.3221 4.63587C21.1046 5.42022 21.4412 6.40779 21.5985 7.58071C21.6877 8.24552 21.7244 9.01652 21.7395 9.90168C21.7462 10.4486 21.75 11.3683 21.75 12.0005C21.75 12.5402 21.3135 12.9778 20.775 12.9778C20.2365 12.9778 19.8 12.5402 19.8 12.0005C19.8 11.656 19.7999 11.3307 19.799 11.0231H4.20101C4.20007 11.3307 4.2 11.656 4.2 12.0005V13.9551C4.2 15.8256 4.20207 17.1301 4.33409 18.1144C4.46234 19.0705 4.69692 19.5769 5.05671 19.9375C5.38448 20.2661 5.83119 20.4889 6.62177 20.6234C7.44071 20.7627 8.52158 20.7909 10.0529 20.7954C10.5913 20.797 11.0266 21.2358 11.025 21.7755C11.0234 22.3153 10.5856 22.7516 10.0471 22.75C8.54198 22.7456 7.29974 22.7212 6.29557 22.5505C5.26303 22.3748 4.38661 22.0301 3.67786 21.3197C2.89536 20.5353 2.5588 19.5477 2.40148 18.3748C2.24995 17.2451 2.24997 15.8087 2.25 14.0266V14.0266V11.9289C2.24999 11.2968 2.25378 10.4486 2.26053 9.90168C2.27562 9.01652 2.31231 8.24552 2.40148 7.58071C2.5588 6.4078 2.89536 5.42022 3.67786 4.63587C4.46035 3.85152 5.44558 3.51416 6.61572 3.35647C6.77902 3.33446 6.94874 3.31564 7.125 3.29955V2.22731C7.125 1.68756 7.56152 1.25 8.1 1.25Z" fill="#141B34"/>
<path d="M14.5 15.25C14.5 16.6307 15.6193 17.75 17 17.75C18.3807 17.75 19.5 16.6307 19.5 15.25C19.5 13.8693 18.3807 12.75 17 12.75C15.6193 12.75 14.5 13.8693 14.5 15.25Z" fill="#141B34"/>
<path d="M13.6499 19.5684C14.618 19.0475 15.771 18.75 17 18.75C18.229 18.75 19.382 19.0475 20.3501 19.5684C21.36 20.1117 21.75 21.101 21.75 22C21.75 22.4142 21.4142 22.75 21 22.75H13C12.5858 22.75 12.25 22.4142 12.25 22C12.25 21.101 12.64 20.1117 13.6499 19.5684Z" fill="#141B34"/>
</svg>
