<svg width="24" height="24" viewBox="0 0 24 24" fill="none" xmlns="http://www.w3.org/2000/svg">
<path d="M19.393 21.3943C20.5247 21.4561 21.3973 20.5341 21.3973 19.471V17.0297C21.3971 15.9275 20.52 15.1489 19.5882 15.0149C18.7808 14.899 18.0235 14.6478 17.5183 14.4494C16.8017 14.1679 15.9267 14.288 15.3293 14.8855L12.6642 17.5505C9.72052 15.9913 7.30205 13.5732 5.7431 10.6294L8.4091 7.96527C9.00654 7.36783 9.12663 6.49288 8.84518 5.77628C8.64677 5.27104 8.39555 4.51376 8.27961 3.70632C8.14569 2.77458 7.3671 1.89744 6.26487 1.89725H3.82357C2.76048 1.89725 1.8385 2.76988 1.90024 3.90151C2.41635 13.3272 9.96734 20.8782 19.393 21.3943Z" fill="#141B34"/>
<path d="M12.6473 9.64725V3.64725C12.6473 3.09496 13.095 2.64725 13.6473 2.64725C14.1996 2.64725 14.6473 3.09496 14.6473 3.64725V9.64725C14.6473 10.1995 14.1996 10.6472 13.6473 10.6472C13.095 10.6472 12.6473 10.1995 12.6473 9.64725ZM16.6473 9.64725V3.64725C16.6473 3.09496 17.095 2.64725 17.6473 2.64725C18.1996 2.64725 18.6473 3.09496 18.6473 3.64725V9.64725C18.6473 10.1995 18.1996 10.6472 17.6473 10.6472C17.095 10.6472 16.6473 10.1995 16.6473 9.64725Z" fill="#141B34"/>
</svg>
