<svg width="24" height="24" viewBox="0 0 24 24" fill="none" xmlns="http://www.w3.org/2000/svg">
<path d="M19.3929 21.3943C20.5246 21.456 21.3972 20.534 21.3972 19.471V17.0297C21.397 15.9274 20.5198 15.1488 19.5881 15.0149C18.7807 14.899 18.0234 14.6478 17.5181 14.4493C16.8016 14.1679 15.9266 14.288 15.3292 14.8854L12.6641 17.5505C9.7204 15.9913 7.30193 13.5732 5.74297 10.6293L8.40898 7.96524C9.00641 7.3678 9.12651 6.49285 8.84506 5.77625C8.64665 5.27101 8.39543 4.51373 8.27949 3.70629C8.14557 2.77455 7.36698 1.8974 6.26475 1.89722H3.82345C2.76036 1.89722 1.83838 2.76985 1.90012 3.90148C2.41622 13.3272 9.96722 20.8782 19.3929 21.3943Z" fill="#141B34"/>
<path d="M19.6462 9.64722C20.1984 9.64679 20.6466 10.094 20.6472 10.6462C20.6476 11.1985 20.2004 11.6467 19.6482 11.6472L17.1482 11.6492C16.5959 11.6496 16.1477 11.2023 16.1472 10.6501C16.1468 10.0979 16.594 9.64971 17.1462 9.64917L19.6462 9.64722ZM16.8894 4.98999C17.2799 4.59947 17.9139 4.59947 18.3044 4.98999C18.6949 5.38051 18.6949 6.01451 18.3044 6.40503L16.5349 8.17358C16.1443 8.56377 15.5112 8.56399 15.1208 8.17358C14.7304 7.78317 14.7306 7.15007 15.1208 6.75952L16.8894 4.98999ZM11.6472 6.14917V3.64722C11.6472 3.09493 12.0949 2.64722 12.6472 2.64722C13.1995 2.64722 13.6472 3.09493 13.6472 3.64722V6.14917C13.6472 6.70145 13.1995 7.14917 12.6472 7.14917C12.0949 7.14917 11.6472 6.70145 11.6472 6.14917Z" fill="#141B34"/>
</svg>
