<svg width="24" height="24" viewBox="0 0 24 24" fill="none" xmlns="http://www.w3.org/2000/svg">
<path opacity="0.4" d="M18.5863 21.8583C20.3115 22.0485 21.6254 20.6241 21.6254 19.0353V17.5652C21.6254 16.4677 20.7589 15.688 19.8516 15.523C19.3218 15.4266 18.7442 15.2655 18.2435 15.1059C17.1814 14.7673 15.9611 14.9938 15.1254 15.8295L12.8613 18.0927C9.90337 16.5265 7.47307 14.0966 5.90711 11.1385L8.22929 8.81825C9.01803 8.02951 9.27857 6.87767 8.96812 5.83721C8.80434 5.28844 8.62571 4.64685 8.50921 4.11105C8.31407 3.21392 7.51271 2.37537 6.43553 2.37537H4.96548C3.37669 2.37537 1.95229 3.68923 2.14249 5.41448C3.09553 14.0499 9.95089 20.9052 18.5863 21.8583Z" fill="#141B34"/>
</svg>
