<svg width="24" height="24" viewBox="0 0 24 24" fill="none" xmlns="http://www.w3.org/2000/svg">
<path d="M18.7111 21.7332C20.4363 21.9234 21.7502 20.499 21.7502 18.9103V17.4402C21.7502 16.3427 20.8837 15.563 19.9764 15.3979C19.4466 15.3015 18.869 15.1405 18.3683 14.9809C17.3062 14.6423 16.0859 14.8688 15.2502 15.7045L12.9861 17.9677C10.0282 16.4015 7.59787 13.9715 6.03191 11.0135L8.35409 8.69323C9.14283 7.90449 9.40337 6.75265 9.09292 5.7122C8.92914 5.16342 8.75051 4.52183 8.63401 3.98603C8.43888 3.08891 7.63751 2.25035 6.56033 2.25035H5.09028C3.50149 2.25035 2.07709 3.56422 2.2673 5.28946C3.22033 13.9248 10.0757 20.7802 18.7111 21.7332Z" fill="#141B34"/>
<path d="M15.0833 10.8059C15.0833 9.7627 14.2376 8.91702 13.1944 8.91702C12.6728 8.91702 12.2499 8.49418 12.2499 7.97257C12.2499 7.45097 12.6728 7.02813 13.1944 7.02813C15.2808 7.02813 16.9722 8.7195 16.9722 10.8059C16.9722 11.3275 16.5493 11.7504 16.0277 11.7504C15.5061 11.7504 15.0833 11.3275 15.0833 10.8059ZM18.861 10.8059C18.861 7.67629 16.324 5.13924 13.1944 5.13924C12.6728 5.13924 12.2499 4.7164 12.2499 4.1948C12.2499 3.67319 12.6728 3.25035 13.1944 3.25035C17.3672 3.25035 20.7499 6.63309 20.7499 10.8059C20.7499 11.3275 20.3271 11.7504 19.8055 11.7504C19.2839 11.7504 18.861 11.3275 18.861 10.8059Z" fill="#141B34"/>
</svg>
