<svg width="24" height="24" viewBox="0 0 24 24" fill="none" xmlns="http://www.w3.org/2000/svg">
<path d="M19.7369 21.3943C20.8686 21.456 21.7412 20.534 21.7412 19.471V17.0297C21.741 15.9274 20.8639 15.1488 19.9321 15.0149C19.1247 14.899 18.3674 14.6478 17.8622 14.4493C17.1456 14.1679 16.2706 14.288 15.6732 14.8854L13.0081 17.5505C10.0644 15.9913 7.64595 13.5732 6.087 10.6293L8.75301 7.96524C9.35044 7.3678 9.47053 6.49285 9.18909 5.77625C8.99067 5.27101 8.73945 4.51373 8.62351 3.70629C8.48959 2.77455 7.711 1.8974 6.60878 1.89722H4.16748C3.10439 1.89722 2.18241 2.76985 2.24414 3.90148C2.76025 13.3272 10.3112 20.8782 19.7369 21.3943Z" fill="#141B34"/>
<path d="M10.9912 8.14722V4.64722C10.9912 4.09493 11.4389 3.64722 11.9912 3.64722H15.4912C16.0435 3.64722 16.4912 4.09493 16.4912 4.64722C16.4912 5.1995 16.0435 5.64722 15.4912 5.64722H14.4053L16.4912 7.73315L19.7842 4.44019C20.1747 4.04966 20.8077 4.04966 21.1982 4.44019C21.5888 4.83071 21.5888 5.46372 21.1982 5.85425L17.1982 9.85425C16.8077 10.2448 16.1747 10.2448 15.7842 9.85425L12.9912 7.06128V8.14722C12.9912 8.6995 12.5435 9.14722 11.9912 9.14722C11.4389 9.14722 10.9912 8.6995 10.9912 8.14722Z" fill="#141B34"/>
</svg>
