<svg width="24" height="24" viewBox="0 0 24 24" fill="none" xmlns="http://www.w3.org/2000/svg">
<path d="M8.58476 3.16121L8.52477 2.25H2.24916V3.225C2.24916 13.4561 10.5431 21.75 20.7742 21.75H21.7492V15.4744L20.838 15.4144C19.8574 15.3496 18.9637 15.128 18.31 14.9183C17.9851 14.8141 17.1962 14.5275 16.6733 14.2347L13.0265 17.8805C10.0882 16.3239 7.6741 13.9101 6.11774 10.9717L9.76447 7.3259C9.45468 6.71709 9.18505 6.01411 9.08083 5.68916C8.8712 5.03551 8.64953 4.14178 8.58476 3.16121Z" fill="#141B34"/>
<path d="M21.0001 11.999L16.5001 12.0029L16.4982 10.0029L20.9982 9.99902L21.0001 11.999ZM19.3634 6.0498L16.1798 9.2334L14.7658 7.81934L17.9494 4.63574L19.3634 6.0498ZM11.9992 3H13.9992V7.50195H11.9992V3Z" fill="#141B34"/>
</svg>
