<svg width="24" height="24" viewBox="0 0 24 24" fill="none" xmlns="http://www.w3.org/2000/svg">
<path opacity="0.4" d="M7.09527 3.74359C10.2212 2.91833 13.7824 2.91928 16.9048 3.74358C18.4634 4.15507 19.5651 4.68232 20.5663 5.33011C22.2305 6.40686 22.9063 8.32123 22.7197 10.1048C22.6649 10.6282 22.4119 11.0911 21.9758 11.3703C21.5474 11.6447 21.0338 11.6836 20.5592 11.5522L19.1329 11.1574C18.6145 11.014 18.168 10.8904 17.8122 10.7484C17.4314 10.5965 17.0847 10.3979 16.8074 10.0649C16.5288 9.73042 16.3986 9.35436 16.3233 8.95386C16.2536 8.58269 16.2214 8.12897 16.1844 7.60715L16.0694 5.98927C16.0539 5.77078 16.0462 5.66153 15.9779 5.58511C15.9096 5.5087 15.8043 5.48919 15.5937 5.45017C13.2543 5.0168 10.7475 5.01643 8.40638 5.45016C8.19576 5.48918 8.09044 5.50869 8.02216 5.58511C7.95387 5.66153 7.94611 5.77077 7.93059 5.98926L7.81567 7.60717C7.77864 8.12898 7.74643 8.58269 7.67669 8.95386C7.60144 9.35436 7.4712 9.73042 7.19264 10.0649C6.91537 10.3979 6.56862 10.5965 6.18783 10.7484C5.83209 10.8904 5.38552 11.0139 4.8672 11.1574L4.86717 11.1574L3.44087 11.5522C2.96622 11.6836 2.45268 11.6447 2.02425 11.3703C1.58814 11.0911 1.33514 10.6282 1.28037 10.1048C1.09377 8.32123 1.76952 6.40685 3.43373 5.33011C4.43496 4.68232 5.53662 4.15507 7.09527 3.74359Z" fill="#141B34"/>
<path fill-rule="evenodd" clip-rule="evenodd" d="M13.0061 11.875C13.0061 11.3227 12.5584 10.875 12.0061 10.875C11.4538 10.875 11.0061 11.3227 11.0061 11.875L11.0061 16.375L10.4118 16.375C10.2362 16.3749 10.0206 16.3747 9.84412 16.3968L9.84077 16.3972C9.71432 16.413 9.13828 16.4848 8.86392 17.0504C8.58896 17.6173 8.8909 18.1174 8.95622 18.2256L8.95865 18.2296C9.05087 18.3826 9.18501 18.5535 9.29536 18.6941L9.31909 18.7243C9.61372 19.1002 9.99569 19.5844 10.3761 19.9754C10.566 20.1705 10.7832 20.3717 11.0141 20.5306C11.2194 20.6718 11.5696 20.875 12.0002 20.875C12.4309 20.875 12.7811 20.6718 12.9864 20.5306C13.2173 20.3717 13.4345 20.1705 13.6244 19.9754C14.0048 19.5844 14.3868 19.1002 14.6814 18.7243L14.7051 18.6941C14.8155 18.5535 14.9496 18.3827 15.0418 18.2296L15.0443 18.2256C15.1096 18.1174 15.4115 17.6172 15.1366 17.0504C14.8622 16.4848 14.2862 16.413 14.1597 16.3972L14.1564 16.3968C13.9799 16.3747 13.7643 16.3749 13.5886 16.375L13.0061 16.375L13.0061 11.875Z" fill="#141B34"/>
</svg>
