<svg width="24" height="24" viewBox="0 0 24 24" fill="none" xmlns="http://www.w3.org/2000/svg">
<path d="M19.7369 21.7383C20.8685 21.8 21.7411 20.878 21.7411 19.8149V17.3736C21.7409 16.2714 20.8638 15.4928 19.932 15.3589C19.1246 15.243 18.3673 14.9918 17.8621 14.7933C17.1455 14.5119 16.2705 14.632 15.6731 15.2294L13.008 17.8945C10.0643 16.3353 7.64586 13.9172 6.08691 10.9733L8.75291 8.30923C9.35035 7.7118 9.47044 6.83684 9.189 6.12025C8.99058 5.61501 8.73936 4.85773 8.62342 4.05029C8.4895 3.11855 7.71091 2.2414 6.60868 2.24121H4.16738C3.1043 2.24121 2.18231 3.11385 2.24405 4.24548C2.76016 13.6712 10.3112 21.2222 19.7369 21.7383Z" fill="#141B34"/>
<path d="M18.4355 3.04688C17.9386 2.55004 17.2503 2.24121 16.4911 2.24121C14.9723 2.24121 13.7411 3.47243 13.7411 4.99121V5.76074C12.8932 5.88216 12.2411 6.60968 12.2411 7.49121V9.99121C12.2411 10.9577 13.0246 11.7412 13.9911 11.7412H18.9911C19.9576 11.7412 20.7411 10.9577 20.7411 9.99121V7.49121C20.7411 6.52471 19.9576 5.74121 18.9911 5.74121H15.2411V4.99121C15.2411 4.30086 15.8008 3.74121 16.4911 3.74121C16.8365 3.74121 17.1479 3.8804 17.3749 4.10742C17.6678 4.40026 18.1425 4.40016 18.4355 4.10742C18.7283 3.81453 18.7283 3.33977 18.4355 3.04688Z" fill="#141B34"/>
</svg>
