<svg width="24" height="24" viewBox="0 0 24 24" fill="none" xmlns="http://www.w3.org/2000/svg">
<path d="M19.3929 21.3943C20.5246 21.456 21.3972 20.534 21.3972 19.4709V17.0296C21.397 15.9274 20.5198 15.1488 19.5881 15.0149C18.7807 14.8989 18.0234 14.6477 17.5181 14.4493C16.8016 14.1679 15.9266 14.288 15.3292 14.8854L12.6641 17.5504C9.7204 15.9913 7.30193 13.5732 5.74297 10.6293L8.40898 7.9652C9.00641 7.36777 9.12651 6.49282 8.84506 5.77622C8.64665 5.27098 8.39543 4.5137 8.27949 3.70626C8.14557 2.77452 7.36698 1.89737 6.26475 1.89719H3.82345C2.76036 1.89719 1.83838 2.76982 1.90012 3.90145C2.41622 13.3272 9.96722 20.8781 19.3929 21.3943Z" fill="#141B34"/>
<path d="M19.6462 9.64719C20.1984 9.64675 20.6466 10.094 20.6472 10.6462C20.6476 11.1984 20.2004 11.6466 19.6482 11.6472L17.1482 11.6491C16.5959 11.6496 16.1477 11.2023 16.1472 10.6501C16.1468 10.0979 16.594 9.64968 17.1462 9.64914L19.6462 9.64719ZM16.8894 4.98996C17.2799 4.59944 17.9139 4.59944 18.3044 4.98996C18.6949 5.38048 18.6949 6.01447 18.3044 6.405L16.5349 8.17355C16.1443 8.56374 15.5112 8.56396 15.1208 8.17355C14.7304 7.78314 14.7306 7.15004 15.1208 6.75949L16.8894 4.98996ZM11.6472 6.14914V3.64719C11.6472 3.0949 12.0949 2.64719 12.6472 2.64719C13.1995 2.64719 13.6472 3.0949 13.6472 3.64719V6.14914C13.6472 6.70142 13.1995 7.14914 12.6472 7.14914C12.0949 7.14914 11.6472 6.70142 11.6472 6.14914Z" fill="#141B34"/>
</svg>
