<svg width="24" height="24" viewBox="0 0 24 24" fill="none" xmlns="http://www.w3.org/2000/svg">
<path d="M19.393 21.3943C20.5246 21.4561 21.3973 20.5341 21.3973 19.471V17.0297C21.3971 15.9275 20.5199 15.1489 19.5882 15.0149C18.7808 14.899 18.0235 14.6478 17.5182 14.4494C16.8016 14.1679 15.9267 14.288 15.3293 14.8855L12.6642 17.5505C9.72049 15.9913 7.30202 13.5732 5.74307 10.6294L8.40907 7.96527C9.0065 7.36783 9.1266 6.49288 8.84515 5.77628C8.64674 5.27104 8.39552 4.51376 8.27958 3.70632C8.14566 2.77458 7.36707 1.89744 6.26484 1.89725H3.82354C2.76045 1.89725 1.83847 2.76988 1.90021 3.90151C2.41632 13.3272 9.96731 20.8782 19.393 21.3943Z" fill="#141B34"/>
<path d="M19.6473 6.14725C20.1996 6.14725 20.6473 6.59496 20.6473 7.14725C20.6473 7.69953 20.1996 8.14725 19.6473 8.14725H12.6473C12.095 8.14725 11.6473 7.69953 11.6473 7.14725C11.6473 6.59496 12.095 6.14725 12.6473 6.14725H19.6473Z" fill="#141B34"/>
</svg>
