<svg width="24" height="24" viewBox="0 0 24 24" fill="none" xmlns="http://www.w3.org/2000/svg">
<path opacity="0.4" d="M18.7113 21.7333C20.4365 21.9235 21.7504 20.4991 21.7504 18.9103V17.4402C21.7504 16.3427 20.8838 15.563 19.9766 15.398C19.4468 15.3016 18.8692 15.1405 18.3685 14.9809C17.3063 14.6423 16.0861 14.8688 15.2504 15.7045L12.9863 17.9677C10.0284 16.4015 7.59805 13.9716 6.0321 11.0135L8.35427 8.69325C9.14302 7.90451 9.40355 6.75267 9.09311 5.71221C8.92932 5.16344 8.7507 4.52185 8.63419 3.98605C8.43906 3.08892 7.63769 2.25037 6.56051 2.25037H5.09047C3.50167 2.25037 2.07728 3.56423 2.26748 5.28948C3.22051 13.9249 10.0759 20.7802 18.7113 21.7333Z" fill="#141B34"/>
<path d="M18.9681 3.03362C18.5121 2.98419 17.9972 2.99577 17.5091 3.02776C17.0141 3.06022 16.5049 3.11688 16.0541 3.17034C15.5893 3.22545 15.2065 3.27472 14.9134 3.30023C14.3634 3.34822 13.9564 3.83311 14.0043 4.38323C14.0522 4.93336 14.5371 5.34028 15.0873 5.29241C15.4217 5.2633 15.859 5.20783 16.2904 5.15667C16.7073 5.10724 17.141 5.06027 17.555 5.03069L13.2933 9.29339C12.9028 9.68391 12.9028 10.3169 13.2933 10.7075C13.6838 11.098 14.3169 11.098 14.7074 10.7075L18.9691 6.44476C18.9395 6.85908 18.8936 7.29319 18.8441 7.71038C18.7929 8.14178 18.7375 8.57905 18.7084 8.91351C18.6605 9.46366 19.0674 9.94857 19.6175 9.99651C20.1677 10.0444 20.6526 9.63742 20.7005 9.08733C20.726 8.79423 20.7753 8.41144 20.8304 7.94671C20.8839 7.49584 20.9406 6.98669 20.973 6.49163C21.005 6.00353 21.0166 5.48871 20.9671 5.03265C20.9243 4.63768 20.8139 4.03074 20.392 3.60882C19.97 3.1869 19.3631 3.07646 18.9681 3.03362Z" fill="#141B34"/>
</svg>
