<svg width="24" height="24" viewBox="0 0 24 24" fill="none" xmlns="http://www.w3.org/2000/svg">
<path d="M16.2927 4.54308C16.6833 4.15255 17.3163 4.15255 17.7068 4.54308C18.0973 4.9336 18.0973 5.56661 17.7068 5.95714L13.5603 10.1036C13.1464 10.5175 12.5851 10.7501 11.9998 10.7501C11.4144 10.7501 10.8531 10.5175 10.4392 10.1036L8.07203 7.73644C8.08813 7.8895 8.10583 8.043 8.12379 8.19444C8.16432 8.53623 8.20952 8.8915 8.23317 9.16319C8.28104 9.7134 7.87322 10.1983 7.32301 10.2462C6.77296 10.2939 6.28797 9.88705 6.24 9.33702C6.21996 9.10669 6.18194 8.80583 6.13746 8.43077C6.09463 8.06954 6.04856 7.65757 6.02223 7.25597C5.99636 6.86125 5.98667 6.4357 6.02809 6.05382C6.0629 5.73301 6.15481 5.18491 6.54469 4.79503L6.69801 4.66222C7.06841 4.38307 7.52285 4.30888 7.80348 4.27843C8.18536 4.23701 8.61091 4.2467 9.00563 4.27257C9.40723 4.2989 9.8192 4.34497 10.1804 4.3878C10.5555 4.43228 10.8564 4.4703 11.0867 4.49034C11.6367 4.53831 12.0436 5.0233 11.9959 5.57335C11.948 6.12356 11.4631 6.53138 10.9129 6.48351C10.6412 6.45986 10.2859 6.41466 9.9441 6.37413C9.79266 6.35617 9.63916 6.33847 9.4861 6.32237L11.8533 8.68956C11.8921 8.72838 11.9449 8.75011 11.9998 8.75011C12.0547 8.75011 12.1074 8.72838 12.1463 8.68956L16.2927 4.54308Z" fill="#141B34"/>
<path d="M6.49024 18.8552C7.34155 18.4817 8.0382 17.689 8.03829 16.6861V14.6114C10.6192 13.9632 13.3808 13.9632 15.9618 14.6114V16.7438C15.9618 17.6917 16.5887 18.4714 17.4172 18.8515C17.8389 19.045 18.3223 19.2755 18.7047 19.4842C19.3763 19.8507 20.3806 19.8831 21.0736 19.2947L21.9449 18.5549C23.0036 17.6561 23.0808 16.0406 21.8008 15.1699C16.0774 11.2767 7.92267 11.2767 2.19924 15.1699C0.919286 16.0406 0.996489 17.6561 2.05512 18.5549L2.92649 19.2947C3.63174 19.8935 4.64017 19.8368 5.30296 19.4476C5.66716 19.2336 6.1006 19.0261 6.49024 18.8552Z" fill="#141B34"/>
</svg>
