<svg width="24" height="24" viewBox="0 0 24 24" fill="none" xmlns="http://www.w3.org/2000/svg">
<path d="M18.7109 21.7333C20.4361 21.9235 21.75 20.4991 21.75 18.9103V17.4402C21.75 16.3427 20.8835 15.563 19.9762 15.398C19.4464 15.3016 18.8688 15.1405 18.3681 14.9809C17.306 14.6423 16.0857 14.8688 15.25 15.7045L12.9859 17.9677C10.028 16.4015 7.59769 13.9716 6.03173 11.0135L8.35391 8.69325C9.14265 7.90451 9.40319 6.75267 9.09274 5.71221C8.92896 5.16344 8.75033 4.52185 8.63383 3.98605C8.43869 3.08892 7.63733 2.25037 6.56015 2.25037H5.0901C3.50131 2.25037 2.07691 3.56423 2.26711 5.28948C3.22014 13.9249 10.0755 20.7802 18.7109 21.7333Z" fill="#141B34"/>
<path d="M17.5332 3.30295C17.9182 2.9072 18.5513 2.89858 18.9473 3.28342C19.0269 3.36077 19.1962 3.49672 19.4717 3.71311C19.7249 3.91196 20.0378 4.15677 20.3359 4.4094C20.6296 4.65821 20.9436 4.94372 21.1914 5.23459C21.3157 5.38052 21.444 5.55185 21.5449 5.74045C21.6416 5.92112 21.75 6.18516 21.75 6.50022C21.75 6.81528 21.6416 7.07932 21.5449 7.25998C21.444 7.44859 21.3157 7.61991 21.1914 7.76584C20.9436 8.05672 20.6296 8.34223 20.3359 8.59104C20.0378 8.84367 19.7249 9.08847 19.4717 9.28733C19.1962 9.50371 19.0269 9.63967 18.9473 9.71701C18.5513 10.1019 17.9182 10.0932 17.5332 9.69748C17.1484 9.30154 17.157 8.66838 17.5527 8.28342C17.726 8.11496 17.996 7.90282 18.2363 7.71408C18.3253 7.64417 18.4162 7.57264 18.5078 7.50022H13.9922C14.0838 7.57264 14.1747 7.64417 14.2637 7.71408C14.504 7.90282 14.774 8.11496 14.9473 8.28342C15.343 8.66838 15.3516 9.30154 14.9668 9.69748C14.5818 10.0932 13.9487 10.1019 13.5527 9.71701C13.4731 9.63967 13.3038 9.50371 13.0283 9.28733C12.7751 9.08847 12.4622 8.84367 12.1641 8.59104C11.8704 8.34223 11.5564 8.05672 11.3086 7.76584C11.1843 7.61991 11.056 7.44859 10.9551 7.25998C10.8584 7.07932 10.75 6.81528 10.75 6.50022C10.75 6.18516 10.8584 5.92112 10.9551 5.74045C11.056 5.55185 11.1843 5.38052 11.3086 5.23459C11.5564 4.94372 11.8704 4.65821 12.1641 4.4094C12.4622 4.15677 12.7751 3.91196 13.0283 3.71311C13.3038 3.49672 13.4731 3.36077 13.5527 3.28342C13.9487 2.89858 14.5818 2.9072 14.9668 3.30295C15.3516 3.69889 15.343 4.33205 14.9473 4.71701C14.774 4.88547 14.504 5.09762 14.2637 5.28635C14.1747 5.35627 14.0838 5.4278 13.9922 5.50022H18.5078C18.4162 5.4278 18.3253 5.35627 18.2363 5.28635C17.996 5.09762 17.726 4.88547 17.5527 4.71701C17.157 4.33205 17.1484 3.69889 17.5332 3.30295Z" fill="#141B34"/>
</svg>
