<svg width="24" height="24" viewBox="0 0 24 24" fill="none" xmlns="http://www.w3.org/2000/svg">
<path d="M21 2.99997L3 21" stroke="#141B34" stroke-width="1.5" stroke-linecap="round" stroke-linejoin="round"/>
<path d="M13.4892 19.023L16.4839 16.0283C16.7887 15.7235 17.2544 15.647 17.6556 15.8045C18.2138 16.0238 19.0694 16.3105 20.002 16.4444C20.5495 16.523 21 16.9678 21 17.5208V20.0244C21 20.5775 20.5509 21.0288 19.9986 20.9985C15.4195 20.7478 11.2956 18.7881 8.25376 15.7462M4.97697 10.5108L7.97162 7.51611C8.27642 7.21132 8.35302 6.74554 8.19544 6.34433C7.97621 5.78614 7.6895 4.93058 7.55558 3.99794C7.47697 3.45048 7.03221 2.99997 6.47913 2.99997H3.97553C3.42245 2.99997 2.9712 3.44911 3.00144 4.00136C3.19703 7.57352 4.43267 10.8687 6.41073 13.5892" stroke="#141B34" stroke-width="1.5" stroke-linecap="round" stroke-linejoin="round"/>
</svg>
