<svg width="24" height="24" viewBox="0 0 24 24" fill="none" xmlns="http://www.w3.org/2000/svg">
<path d="M8.58474 3.1612L8.52476 2.24999H2.24915V3.22499C2.24915 13.4561 10.5431 21.75 20.7741 21.75H21.7491V15.4744L20.8379 15.4144C19.8574 15.3496 18.9636 15.128 18.31 14.9183C17.985 14.8141 17.1962 14.5275 16.6732 14.2347L13.0265 17.8805C10.0882 16.3239 7.67408 13.9101 6.11772 10.9717L9.76445 7.3259C9.45467 6.71708 9.18504 6.0141 9.08081 5.68915C8.87118 5.0355 8.64952 4.14178 8.58474 3.1612Z" fill="#141B34"/>
<path d="M15.0825 10.8055C15.0825 9.76234 14.2368 8.91666 13.1936 8.91666H12.2491V7.02777H13.1936C15.28 7.02777 16.9714 8.71914 16.9714 10.8055V11.75H15.0825V10.8055ZM18.8603 10.8055C18.8603 7.67593 16.3232 5.13888 13.1936 5.13888H12.2491V3.24999H13.1936C17.3664 3.24999 20.7491 6.63273 20.7491 10.8055V11.75H18.8603V10.8055Z" fill="#141B34"/>
</svg>
