<svg width="24" height="24" viewBox="0 0 24 24" fill="none" xmlns="http://www.w3.org/2000/svg">
<path d="M19.7369 21.7383C20.8685 21.8 21.7411 20.878 21.7411 19.8149V17.3736C21.741 16.2714 20.8638 15.4928 19.9321 15.3589C19.1246 15.243 18.3674 14.9918 17.8621 14.7933C17.1455 14.5119 16.2706 14.632 15.6731 15.2294L13.0081 17.8945C10.0644 16.3353 7.64589 13.9172 6.08694 10.9733L8.75294 8.30923C9.35038 7.7118 9.47047 6.83684 9.18903 6.12025C8.99061 5.61501 8.73939 4.85773 8.62345 4.05029C8.48953 3.11855 7.71094 2.2414 6.60871 2.24121H4.16741C3.10433 2.24121 2.18234 3.11385 2.24408 4.24548C2.76019 13.6712 10.3112 21.2222 19.7369 21.7383Z" fill="#141B34"/>
<path d="M17.5342 3.2841C17.9247 2.89358 18.5577 2.89358 18.9483 3.2841L21.4483 5.7841C21.8388 6.17463 21.8388 6.80764 21.4483 7.19817L18.9483 9.69817C18.5577 10.0887 17.9247 10.0887 17.5342 9.69817C17.1437 9.30764 17.1437 8.67463 17.5342 8.2841L18.3272 7.49114H14.1553L14.9483 8.2841C15.3388 8.67463 15.3388 9.30764 14.9483 9.69817C14.5577 10.0887 13.9247 10.0887 13.5342 9.69817L11.0342 7.19817C10.6437 6.80764 10.6437 6.17463 11.0342 5.7841L13.5342 3.2841C13.9247 2.89358 14.5577 2.89358 14.9483 3.2841C15.3388 3.67463 15.3388 4.30764 14.9483 4.69817L14.1553 5.49114H18.3272L17.5342 4.69817C17.1437 4.30764 17.1437 3.67463 17.5342 3.2841Z" fill="#141B34"/>
</svg>
