<svg width="24" height="24" viewBox="0 0 24 24" fill="none" xmlns="http://www.w3.org/2000/svg">
<path d="M19.393 21.3943C20.5247 21.456 21.3973 20.534 21.3973 19.471V17.0297C21.3971 15.9274 20.5199 15.1488 19.5882 15.0149C18.7808 14.899 18.0235 14.6478 17.5182 14.4493C16.8017 14.1679 15.9267 14.288 15.3293 14.8854L12.6642 17.5505C9.7205 15.9913 7.30203 13.5732 5.74307 10.6293L8.40908 7.96524C9.00651 7.3678 9.12661 6.49285 8.84516 5.77625C8.64675 5.27101 8.39553 4.51373 8.27959 3.70629C8.14567 2.77455 7.36708 1.8974 6.26485 1.89722H3.82355C2.76046 1.89722 1.83848 2.76985 1.90022 3.90148C2.41632 13.3272 9.96732 20.8782 19.393 21.3943Z" fill="#141B34"/>
<path d="M19.6473 6.14722C20.1996 6.14722 20.6473 6.59493 20.6473 7.14722C20.6473 7.6995 20.1996 8.14722 19.6473 8.14722H12.6473C12.095 8.14722 11.6473 7.6995 11.6473 7.14722C11.6473 6.59493 12.095 6.14722 12.6473 6.14722H19.6473Z" fill="#141B34"/>
</svg>
