<svg width="24" height="24" viewBox="0 0 24 24" fill="none" xmlns="http://www.w3.org/2000/svg">
<path d="M18.7113 21.7333C20.4365 21.9235 21.7504 20.4991 21.7504 18.9103V17.4402C21.7504 16.3427 20.8838 15.563 19.9766 15.398C19.4468 15.3016 18.8692 15.1405 18.3685 14.9809C17.3063 14.6423 16.0861 14.8688 15.2504 15.7045L12.9863 17.9677C10.0284 16.4015 7.59805 13.9716 6.0321 11.0135L8.35427 8.69325C9.14302 7.90451 9.40355 6.75267 9.09311 5.71221C8.92932 5.16344 8.7507 4.52185 8.63419 3.98605C8.43906 3.08892 7.63769 2.25037 6.56051 2.25037H5.09047C3.50167 2.25037 2.07728 3.56423 2.26748 5.28948C3.22051 13.9249 10.0759 20.7802 18.7113 21.7333Z" fill="#141B34"/>
<path d="M19.2933 3.29332C19.6838 2.9028 20.3169 2.9028 20.7074 3.29332C21.0979 3.68384 21.0979 4.31686 20.7074 4.70738L18.4144 7.00035L20.7074 9.29332C21.0979 9.68385 21.0979 10.3169 20.7074 10.7074C20.3169 11.0979 19.6838 11.0979 19.2933 10.7074L17.0004 8.41441L14.7074 10.7074C14.3169 11.0979 13.6838 11.0979 13.2933 10.7074C12.9028 10.3169 12.9028 9.68385 13.2933 9.29332L15.5863 7.00035L13.2933 4.70738C12.9028 4.31686 12.9028 3.68384 13.2933 3.29332C13.6838 2.9028 14.3169 2.9028 14.7074 3.29332L17.0004 5.58629L19.2933 3.29332Z" fill="#141B34"/>
</svg>
