<svg width="24" height="24" viewBox="0 0 24 24" fill="none" xmlns="http://www.w3.org/2000/svg">
<path fill-rule="evenodd" clip-rule="evenodd" d="M17.0001 2.5C17.5524 2.5 18.0001 2.94772 18.0001 3.5V6H20.5001C21.0524 6 21.5001 6.44772 21.5001 7C21.5001 7.55228 21.0524 8 20.5001 8H18.0001V10.5C18.0001 11.0523 17.5524 11.5 17.0001 11.5C16.4478 11.5 16.0001 11.0523 16.0001 10.5V8H13.5001C12.9478 8 12.5001 7.55228 12.5001 7C12.5001 6.44772 12.9478 6 13.5001 6H16.0001V3.5C16.0001 2.94772 16.4478 2.5 17.0001 2.5Z" fill="#141B34"/>
<path opacity="0.4" d="M9.0913 5.05609L8.83805 4.48626C8.49692 3.71873 8.32635 3.33496 8.04565 3.06369C7.86037 2.88463 7.64232 2.74293 7.40344 2.64634C7.04156 2.5 6.62159 2.5 5.78166 2.5C4.531 2.5 3.90567 2.5 3.41846 2.80363C3.11963 2.98986 2.83383 3.30601 2.67861 3.62206C2.42554 4.13735 2.48295 4.70507 2.59777 5.84052C3.5505 15.2623 8.73777 20.4496 18.1596 21.4023C19.295 21.5171 19.8627 21.5745 20.378 21.3215C20.6941 21.1663 21.0102 20.8805 21.1965 20.5816C21.5001 20.0944 21.5001 19.4691 21.5001 18.2184C21.5001 17.3785 21.5001 16.9585 21.3538 16.5966C21.2572 16.3578 21.1155 16.1397 20.9364 15.9544C20.6651 15.6737 20.2814 15.5032 19.5138 15.162L18.944 14.9088C18.2715 14.6099 17.9352 14.4604 17.5979 14.432C17.239 14.4018 16.8787 14.4687 16.5547 14.6257C16.25 14.7733 15.9898 15.0335 15.4694 15.5539C14.9574 16.0659 14.7014 16.3219 14.368 16.4727C14.0436 16.6194 13.5877 16.6818 13.2358 16.6276C12.8741 16.5719 12.6083 16.4219 12.0768 16.1221C10.1923 15.0593 8.94083 13.8078 7.87796 11.9233C7.57815 11.3918 7.42824 11.126 7.37254 10.7643C7.31834 10.4124 7.3807 9.9565 7.5274 9.63208C7.67816 9.29869 7.93415 9.04269 8.44615 8.5307C8.96656 8.01029 9.22677 7.75008 9.37436 7.44543C9.53136 7.12138 9.59826 6.76105 9.56806 6.40224C9.53967 6.06491 9.39021 5.72863 9.0913 5.05609Z" fill="#141B34"/>
</svg>
