<svg width="24" height="24" viewBox="0 0 24 24" fill="none" xmlns="http://www.w3.org/2000/svg">
<path fill-rule="evenodd" clip-rule="evenodd" d="M22.75 7.71017L21.4005 7.986C20.6882 8.13158 20.1316 8.68823 19.986 9.40051L19.6591 11H16.3409L16.014 9.40051C15.8684 8.68823 15.3118 8.13158 14.5995 7.986L13 7.65907L13 4.34093L14.5995 4.01401C15.0225 3.92756 15.3905 3.69617 15.6503 3.37331L14.9014 2.25H9.09861L7.09861 5.25H1.25V21.75H22.75V7.71017ZM16 13C16 15.2091 14.2091 17 12 17C9.79086 17 8 15.2091 8 13C8 10.7909 9.79086 9 12 9C14.2091 9 16 10.7909 16 13ZM18.7613 2.84981L18.6387 2.25L17.3613 2.25L17.2387 2.84981C16.9928 4.05274 16.0527 4.99282 14.8498 5.23869L14.25 5.36128L14.25 6.63872L14.8498 6.76132C16.0527 7.00718 16.9928 7.94726 17.2387 9.15019L17.3613 9.75H18.6387L18.7613 9.15019C19.0072 7.94726 19.9473 7.00718 21.1502 6.76132L21.75 6.63872V5.36128L21.1502 5.23869C19.9473 4.99282 19.0072 4.05274 18.7613 2.84981Z" fill="#141B34"/>
</svg>
