<svg width="24" height="24" viewBox="0 0 24 24" fill="none" xmlns="http://www.w3.org/2000/svg">
<path fill-rule="evenodd" clip-rule="evenodd" d="M8.32866 1.6644C8.4557 1.41028 8.71541 1.24976 8.99951 1.24976H14.9995C15.2836 1.24976 15.5433 1.41026 15.6703 1.66435L17.463 5.24976H22.0005C22.4147 5.24976 22.7505 5.58554 22.7505 5.99976V22.0001C22.7505 22.4143 22.4147 22.7501 22.0005 22.7501H1.99951C1.5853 22.7501 1.24951 22.4143 1.24951 22.0001V6.00059C1.24951 5.58637 1.5853 5.25059 1.99951 5.25059H6.53594L8.32866 1.6644ZM12.9995 4.99976H10.9995V6.99976H12.9995V4.99976ZM12.9995 19.0002V16.0002H15.9995V14.0002H12.9995V11.0002H10.9995V14.0002H7.99951V16.0002H10.9995V19.0002H12.9995Z" fill="#141B34"/>
</svg>
