<svg width="24" height="24" viewBox="0 0 24 24" fill="none" xmlns="http://www.w3.org/2000/svg">
<path d="M16.0391 2.75C16.8744 2.75009 17.6647 3.12997 18.1865 3.78223L19.3613 5.25H20C21.5188 5.25 22.75 6.48122 22.75 8V18.5C22.75 20.0188 21.5188 21.25 20 21.25H4C2.48122 21.25 1.25 20.0188 1.25 18.5V8C1.25 6.48122 2.48122 5.25 4 5.25H9.63867L10.8135 3.78223C11.3353 3.12997 12.1256 2.75009 12.9609 2.75H16.0391ZM13.6855 8.96973C13.4649 8.74926 13.1309 8.68795 12.8467 8.81641C11.3176 9.50769 10.25 11.0467 10.25 12.8379C10.2501 15.2746 12.2254 17.2499 14.6621 17.25C16.4533 17.25 17.9923 16.1824 18.6836 14.6533C18.812 14.3691 18.7507 14.0351 18.5303 13.8145C18.3097 13.5939 17.9757 13.5328 17.6914 13.6611C17.3259 13.8264 16.9206 13.9189 16.4932 13.9189C14.8849 13.9188 13.5812 12.6151 13.5811 11.0068C13.5811 10.5794 13.6736 10.1741 13.8389 9.80859C13.9673 9.52429 13.9061 9.19032 13.6855 8.96973ZM5 8C4.44772 8 4 8.44772 4 9C4 9.55228 4.44772 10 5 10H7C7.55228 10 8 9.55228 8 9C8 8.44772 7.55228 8 7 8H5Z" fill="#141B34"/>
</svg>
