<svg width="24" height="24" viewBox="0 0 24 24" fill="none" xmlns="http://www.w3.org/2000/svg">
<path opacity="0.4" fill-rule="evenodd" clip-rule="evenodd" d="M12.6974 3.5C13.412 3.5 13.7696 3.50031 14.09 3.6123C14.2856 3.68069 14.4696 3.77853 14.6349 3.90332C14.9059 4.10782 15.1038 4.40544 15.5002 5C15.7031 5.30443 16.0019 5.75342 16.1213 5.87891C16.4168 6.18941 16.8045 6.39704 17.2267 6.4707C17.3972 6.50042 17.5805 6.5 17.9465 6.5C18.9265 6.5 19.4169 6.49986 19.8176 6.61328C20.8197 6.89705 21.6031 7.68045 21.8869 8.68262C22.0003 9.0833 22.0002 9.57364 22.0002 10.5537V14.5C22.0002 17.3284 22 18.7424 21.1213 19.6211C20.2426 20.4998 18.8286 20.5 16.0002 20.5H8.00018C5.17176 20.5 3.75777 20.4998 2.87909 19.6211C2.00041 18.7424 2.00018 17.3284 2.00018 14.5V10.5537C2.00018 9.57363 2.00004 9.0833 2.11346 8.68262C2.39723 7.68045 3.18064 6.89705 4.1828 6.61328C4.58348 6.49986 5.07382 6.5 6.05389 6.5C6.41986 6.5 6.60317 6.50042 6.77362 6.4707C7.19586 6.39704 7.58362 6.18941 7.87909 5.87891C7.93874 5.81618 8.04337 5.67268 8.15839 5.50684L8.50018 5C8.89655 4.40544 9.09448 4.10782 9.36542 3.90332C9.53076 3.77853 9.7148 3.68069 9.91034 3.6123C10.2308 3.50031 10.5884 3.5 11.3029 3.5H12.6974ZM12.0002 9C9.79104 9 8.00018 10.7909 8.00018 13C8.00018 15.2091 9.79104 17 12.0002 17C14.2093 17 16.0002 15.2091 16.0002 13C16.0002 10.7909 14.2093 9 12.0002 9Z" fill="#141B34"/>
<path d="M12.6974 3.5H11.303C10.5884 3.5 10.2311 3.5 9.91067 3.612C9.71499 3.68039 9.53113 3.77879 9.36568 3.90367C9.09474 4.10816 8.89655 4.40544 8.50018 5L8.50017 5.00001C8.29717 5.30453 7.99794 5.75337 7.87867 5.87871C7.58314 6.18927 7.19563 6.39666 6.77329 6.47029C6.60284 6.5 6.41985 6.5 6.05387 6.5C5.07379 6.5 4.58376 6.5 4.18307 6.61342C3.18074 6.89716 2.39734 7.68055 2.1136 8.68289C2.00018 9.08357 2.00018 9.57361 2.00018 10.5537V14.5C2.00018 17.3284 2.00018 18.7426 2.87886 19.6213C3.75754 20.5 5.17176 20.5 8.00018 20.5H16.0002C18.8286 20.5 20.2428 20.5 21.1215 19.6213C22.0002 18.7426 22.0002 17.3284 22.0002 14.5V10.5537C22.0002 9.57361 22.0002 9.08357 21.8868 8.68289C21.603 7.68055 20.8196 6.89716 19.8173 6.61342C19.4166 6.5 18.9266 6.5 17.9465 6.5C17.5805 6.5 17.3975 6.5 17.2271 6.47029C16.8047 6.39666 16.4172 6.18927 16.1217 5.87871C16.0024 5.75336 15.7032 5.30451 15.5002 5C15.1038 4.40544 14.9056 4.10816 14.6347 3.90367C14.4692 3.77879 14.2854 3.68039 14.0897 3.612C13.7693 3.5 13.412 3.5 12.6974 3.5Z" stroke="#141B34" stroke-width="1.5" stroke-linecap="round" stroke-linejoin="round"/>
<path d="M16.0002 13C16.0002 15.2091 14.2093 17 12.0002 17C9.79104 17 8.00018 15.2091 8.00018 13C8.00018 10.7909 9.79104 9 12.0002 9C14.2093 9 16.0002 10.7909 16.0002 13Z" stroke="#141B34" stroke-width="1.5" stroke-linecap="round" stroke-linejoin="round"/>
<path d="M19.0002 9.5V9.51" stroke="#141B34" stroke-width="2" stroke-linecap="round" stroke-linejoin="round"/>
</svg>
