<svg width="24" height="24" viewBox="0 0 24 24" fill="none" xmlns="http://www.w3.org/2000/svg">
<path d="M14.0742 3.75C13.7657 4.09441 13.5611 4.53381 13.5117 5.01953L13.5 5.25C13.5 6.49264 14.5074 7.5 15.75 7.5H16V7.75C16 8.99264 17.0074 10 18.25 10C19.4926 10 20.5 8.99264 20.5 7.75V7.5H20.75C21.2135 7.5 21.644 7.35939 22.002 7.11914C22.4644 7.61119 22.75 8.27144 22.75 9V19.5C22.75 21.0188 21.5188 22.25 20 22.25H4C2.48122 22.25 1.25 21.0188 1.25 19.5V9C1.25 7.48122 2.48122 6.25 4 6.25H9.63867L10.8135 4.78223C11.3353 4.12997 12.1256 3.75009 12.9609 3.75H14.0742ZM14.5312 9C11.7698 9 9.53125 11.2386 9.53125 14C9.53125 16.7614 11.7698 19 14.5312 19C17.2925 18.9998 19.5312 16.7613 19.5312 14C19.5312 11.2387 17.2925 9.00016 14.5312 9ZM14.5312 11C16.188 11.0002 17.5312 12.3432 17.5312 14C17.5312 15.6568 16.188 16.9998 14.5312 17C12.8744 17 11.5312 15.6569 11.5312 14C11.5312 12.3431 12.8744 11 14.5312 11ZM5 9C4.44772 9 4 9.44772 4 10C4 10.5523 4.44772 11 5 11H7C7.55228 11 8 10.5523 8 10C8 9.44772 7.55228 9 7 9H5Z" fill="#141B34"/>
<path d="M17.25 7.75V6.25H15.75C15.1977 6.25 14.75 5.80228 14.75 5.25C14.75 4.69772 15.1977 4.25 15.75 4.25H17.25V2.75C17.25 2.19772 17.6977 1.75 18.25 1.75C18.8023 1.75 19.25 2.19772 19.25 2.75V4.25H20.75C21.3023 4.25 21.75 4.69772 21.75 5.25C21.75 5.80228 21.3023 6.25 20.75 6.25H19.25V7.75C19.25 8.30228 18.8023 8.75 18.25 8.75C17.6977 8.75 17.25 8.30228 17.25 7.75Z" fill="#141B34"/>
</svg>
