<svg width="24" height="24" viewBox="0 0 24 24" fill="none" xmlns="http://www.w3.org/2000/svg">
<path fill-rule="evenodd" clip-rule="evenodd" d="M14.7272 2.5754C14.3877 2.39366 14.0386 2.31783 13.6631 2.28282C13.3108 2.24997 12.8881 2.24999 12.392 2.25H12.392L11.608 2.25C11.1119 2.24999 10.6892 2.24997 10.3369 2.28282C9.96141 2.31784 9.61234 2.39366 9.27275 2.5754C8.93317 2.75714 8.67645 3.00553 8.43903 3.29854C8.21627 3.57345 7.98182 3.92516 7.70665 4.33794L7.70664 4.33795L7.09861 5.25C5.98689 5.25069 5.24952 5.26392 4.62114 5.45454C3.10304 5.91505 1.91504 7.10305 1.45453 8.62115C1.24952 9.29698 1.2497 10.0989 1.24997 11.357L1.25 13.5489C1.24998 15.1512 1.24997 16.4205 1.36868 17.4248C1.49054 18.4557 1.74638 19.3044 2.3282 20.0134C2.52558 20.2539 2.74612 20.4744 2.98663 20.6718C3.69557 21.2536 4.54427 21.5095 5.57524 21.6313C6.57943 21.75 7.84874 21.75 9.45093 21.75H9.45095H9.45105L14.5489 21.75H14.549H14.5491C16.1513 21.75 17.4206 21.75 18.4247 21.6313C19.4557 21.5095 20.3044 21.2536 21.0134 20.6718C21.2539 20.4744 21.4744 20.2539 21.6718 20.0134C22.2536 19.3044 22.5095 18.4557 22.6313 17.4248C22.75 16.4206 22.75 15.1512 22.75 13.549V13.549V13.5489L22.75 11.357C22.7503 10.0989 22.7505 9.29698 22.5455 8.62115C22.0849 7.10304 20.897 5.91505 19.3788 5.45454C18.7505 5.26392 18.0131 5.25069 16.9014 5.24999L16.2934 4.33798L16.2934 4.33795C16.0182 3.92517 15.7837 3.57345 15.561 3.29853C15.3235 3.00553 15.0668 2.75714 14.7272 2.5754ZM13 9C13 8.44772 12.5522 8 12 8C11.4477 8 11 8.44772 11 9V12H7.99995C7.44767 12 6.99995 12.4477 6.99995 13C6.99995 13.5523 7.44767 14 7.99995 14H11V17C11 17.5523 11.4477 18 12 18C12.5522 18 13 17.5523 13 17V14H16C16.5522 14 17 13.5523 17 13C17 12.4477 16.5522 12 16 12H13V9Z" fill="#141B34"/>
</svg>
