<svg width="24" height="24" viewBox="0 0 24 24" fill="none" xmlns="http://www.w3.org/2000/svg">
<path fill-rule="evenodd" clip-rule="evenodd" d="M8.32769 1.66513C8.45472 1.41102 8.71443 1.25049 8.99854 1.25049H14.9985C15.2826 1.25049 15.5423 1.41099 15.6694 1.66508L17.4621 5.25049H21.9995C22.4137 5.25049 22.7495 5.58627 22.7495 6.00049V22.0008C22.7495 22.415 22.4137 22.7508 21.9995 22.7508H1.99854C1.58432 22.7508 1.24854 22.415 1.24854 22.0008V6.00132C1.24854 5.58711 1.58432 5.25132 1.99854 5.25132H6.53497L8.32769 1.66513ZM11.9994 8.25049C10.6187 8.25049 9.49944 9.36978 9.49944 10.7505V12.7505C9.49944 14.1312 10.6187 15.2505 11.9994 15.2505C13.3802 15.2505 14.4994 14.1312 14.4994 12.7505V10.7505C14.4994 9.36978 13.3802 8.25049 11.9994 8.25049ZM11.9994 16.2505C10.7162 16.2505 9.61626 15.4218 9.20738 14.2529L7.7915 14.7481C8.3215 16.2633 9.63593 17.4119 11.2494 17.6872V19.0005H12.7494V17.6872C14.363 17.4119 15.6774 16.2633 16.2074 14.7481L14.7915 14.2529C14.3826 15.4218 13.2827 16.2505 11.9994 16.2505Z" fill="#141B34"/>
</svg>
