<svg width="25" height="24" viewBox="0 0 25 24" fill="none" xmlns="http://www.w3.org/2000/svg">
<path d="M2.75 12C2.75 17.5228 7.22715 22 12.75 22C18.2728 22 22.75 17.5228 22.75 12C22.75 6.47714 18.2728 1.99998 12.75 1.99998" stroke="#141B34" stroke-width="1.5" stroke-linecap="round"/>
<path d="M5.39856 5.07874C5.53691 4.9321 5.67948 4.78948 5.8261 4.65109M8.69733 2.72938C8.87884 2.64779 9.06313 2.57126 9.25 2.49998M3.48172 7.94191C3.39925 8.12517 3.32195 8.31126 3.25 8.49999" stroke="#141B34" stroke-width="1.5" stroke-linecap="round" stroke-linejoin="round"/>
<path d="M15.75 9L12.75 12M12.75 12L9.75 15M12.75 12L15.75 15M12.75 12L9.75 9" stroke="#141B34" stroke-width="1.5" stroke-linecap="round" stroke-linejoin="round"/>
</svg>
