<svg width="24" height="24" viewBox="0 0 24 24" fill="none" xmlns="http://www.w3.org/2000/svg">
<path d="M5.43238 3.59968C6.24008 3.13336 7.23522 3.13336 8.04292 3.59968C8.34287 3.77286 8.6138 4.04419 8.95547 4.38637L9.02211 4.45308L10.7762 6.20721C11.2047 6.63566 11.4738 6.90252 11.6953 7.07155C11.8996 7.22737 11.9731 7.2279 12 7.2279C12.027 7.2279 12.1005 7.22737 12.3048 7.07155C12.5263 6.90252 12.7954 6.63566 13.2238 6.20721L14.978 4.45308L15.0446 4.38636C15.3863 4.04419 15.6572 3.77286 15.9572 3.59968C16.7649 3.13336 17.76 3.13336 18.5677 3.59969C18.8677 3.77286 19.1386 4.04419 19.4802 4.38636L19.5469 4.45308L19.6136 4.51974C19.9558 4.8614 20.2271 5.13232 20.4003 5.43227C20.8666 6.23998 20.8666 7.23511 20.4003 8.04281C20.2271 8.34277 19.9558 8.61369 19.6136 8.95536L19.5469 9.02201L17.7928 10.7761C17.3643 11.2046 17.0975 11.4737 16.9284 11.6952C16.7726 11.8995 16.7721 11.973 16.7721 11.9999C16.7721 12.0269 16.7726 12.1004 16.9284 12.3046C17.0975 12.5262 17.3643 12.7953 17.7928 13.2237L19.5469 14.9779L19.6136 15.0445C19.9558 15.3862 20.2271 15.6571 20.4003 15.9571C20.8666 16.7648 20.8666 17.7599 20.4003 18.5676C20.2271 18.8676 19.9558 19.1385 19.6136 19.4801L19.5469 19.5468L19.4802 19.6135C19.1386 19.9557 18.8677 20.227 18.5677 20.4002C17.76 20.8665 16.7649 20.8665 15.9572 20.4002C15.6572 20.227 15.3863 19.9557 15.0446 19.6135L15.0446 19.6135L14.978 19.5468L13.2238 17.7927C12.7954 17.3642 12.5263 17.0974 12.3048 16.9283C12.1005 16.7725 12.027 16.772 12 16.772C11.9731 16.772 11.8996 16.7725 11.6953 16.9283C11.4738 17.0974 11.2047 17.3642 10.7762 17.7927L9.02211 19.5468L8.95546 19.6135C8.61379 19.9557 8.34287 20.227 8.04292 20.4002C7.23522 20.8665 6.24008 20.8665 5.43238 20.4002C5.13243 20.227 4.86151 19.9557 4.51984 19.6135L4.45319 19.5468L4.38647 19.4801C4.04429 19.1385 3.77297 18.8676 3.59979 18.5676C3.13346 17.7599 3.13346 16.7648 3.59979 15.9571C3.77297 15.6571 4.04429 15.3862 4.38646 15.0445L4.38648 15.0445L4.45319 14.9779L6.20732 13.2237C6.63576 12.7953 6.90262 12.5262 7.07165 12.3046C7.22748 12.1004 7.22801 12.0269 7.22801 11.9999C7.22801 11.973 7.22748 11.8995 7.07165 11.6952C6.90262 11.4737 6.63576 11.2046 6.20732 10.7761L4.45319 9.02201L4.38648 8.95536C4.0443 8.61369 3.77297 8.34277 3.59979 8.04281C3.13346 7.23511 3.13346 6.23998 3.59979 5.43228C3.77297 5.13232 4.0443 4.8614 4.38648 4.51973L4.45319 4.45308L4.51983 4.38637C4.8615 4.04419 5.13243 3.77286 5.43238 3.59968Z" fill="#141B34"/>
</svg>
