<svg width="24" height="24" viewBox="0 0 24 24" fill="none" xmlns="http://www.w3.org/2000/svg">
<path opacity="0.4" d="M13.1924 1.25H13.1923H10.8077H10.8077C9.23337 1.24999 7.98494 1.24998 7.00744 1.36497C6.00729 1.48263 5.17687 1.73103 4.51033 2.31425C3.82938 2.91008 3.52559 3.6743 3.38423 4.59428C3.24995 5.46819 3.24997 6.5766 3.25 7.93852V7.93855V16H20.75V7.93855C20.75 6.57662 20.7501 5.4682 20.6158 4.59428C20.4744 3.6743 20.1706 2.91008 19.4897 2.31425C18.8231 1.73103 17.9927 1.48263 16.9926 1.36497C16.0151 1.24998 14.7666 1.24999 13.1924 1.25Z" fill="#141B34"/>
<path fill-rule="evenodd" clip-rule="evenodd" d="M15.3385 16H16.6619C16.737 16.0663 16.8034 16.1451 16.8576 16.2356L19.8576 21.2356C20.1418 21.7092 19.9882 22.3234 19.5146 22.6076C19.0411 22.8917 18.4268 22.7382 18.1427 22.2646L15.1427 17.2646C14.8904 16.8441 14.9831 16.3128 15.3385 16ZM11.3388 16H12.6615C12.8692 16.1832 13.0002 16.4514 13.0002 16.7501V20.7501C13.0002 21.3024 12.5524 21.7501 12.0002 21.7501C11.4479 21.7501 11.0002 21.3024 11.0002 20.7501V16.7501C11.0002 16.4514 11.1311 16.1832 11.3388 16ZM7.33841 16H8.66175C9.01717 16.3128 9.10992 16.8441 8.85764 17.2646L5.85764 22.2646C5.5735 22.7382 4.95924 22.8917 4.48566 22.6076C4.01208 22.3234 3.85851 21.7092 4.14266 21.2356L7.14266 16.2356C7.19695 16.1451 7.2633 16.0663 7.33841 16Z" fill="#141B34"/>
<path d="M3 16C2.44772 16 2 16.4477 2 17C2 17.5523 2.44772 18 3 18H21C21.5523 18 22 17.5523 22 17C22 16.4477 21.5523 16 21 16H3Z" fill="#141B34"/>
<path fill-rule="evenodd" clip-rule="evenodd" d="M11.6836 5.83713C11.3964 5.8301 11.081 5.85467 10.805 5.89423C10.395 5.953 10.015 5.66825 9.9562 5.25823C9.89743 4.8482 10.1822 4.46817 10.5922 4.40941C10.9312 4.36081 11.332 4.32808 11.7203 4.33758C12.0897 4.34662 12.5295 4.39489 12.8955 4.56245C13.0853 4.64933 13.3004 4.78873 13.4595 5.01557C13.6296 5.25806 13.6955 5.54396 13.6632 5.83475C13.6062 6.3471 13.2521 6.82594 12.8114 7.26806C11.7962 8.28654 10.5383 9.93671 9.99294 11.092C9.9074 11.2731 9.84695 11.4267 9.8076 11.5519C9.95362 11.5141 10.149 11.448 10.4024 11.3391C11.3672 10.9242 12.22 10.6707 12.9402 10.5596C13.6428 10.4511 14.2917 10.4668 14.8002 10.6709C15.0629 10.7763 15.3156 10.9437 15.4982 11.1973C15.6864 11.4587 15.7645 11.7631 15.7476 12.0695C15.716 12.6412 15.3634 13.171 14.9204 13.6154C14.628 13.9088 14.1531 13.9095 13.8598 13.6171C13.5664 13.3247 13.5656 12.8498 13.858 12.5565C14.0979 12.3158 14.1927 12.1472 14.2288 12.0581C14.0723 11.9999 13.7355 11.9546 13.169 12.042C12.604 12.1292 11.8752 12.3386 10.9949 12.7171C10.503 12.9286 10.0576 13.0656 9.67057 13.0915C9.28323 13.1174 8.79998 13.0347 8.48927 12.6145C8.20925 12.2358 8.22865 11.7847 8.28273 11.479C8.3414 11.1473 8.47484 10.794 8.63651 10.4516C9.27729 9.09432 10.6554 7.30635 11.749 6.20913C11.8852 6.07249 11.9823 5.9592 12.0499 5.86807C11.9536 5.85246 11.8316 5.84075 11.6836 5.83713Z" fill="#141B34"/>
</svg>
