<svg width="24" height="24" viewBox="0 0 24 24" fill="none" xmlns="http://www.w3.org/2000/svg">
<path d="M11.3363 21.6684C10.5657 21.75 9.59327 21.75 8.37721 21.75H7.62378C6.40773 21.75 5.43525 21.75 4.66469 21.6684C3.87426 21.5847 3.19852 21.4075 2.62585 20.9835C2.458 20.8592 2.30164 20.7214 2.15887 20.5713C1.65972 20.0464 1.44468 19.413 1.34507 18.6806C1.25044 17.985 1.25046 17.1134 1.25049 16.053V15.947C1.25049 15.827 1.25048 15.7093 1.25062 15.594C1.25094 15.315 1.25111 15.1755 1.33895 15.0877C1.4268 15 1.56703 15 1.84749 15H14.1535C14.434 15 14.5742 15 14.662 15.0877C14.7499 15.1755 14.75 15.315 14.7504 15.594C14.7505 15.7093 14.7505 15.8269 14.7505 15.947V16.053C14.7505 17.1134 14.7505 17.985 14.6559 18.6806C14.5563 19.413 14.3413 20.0464 13.8421 20.5713C13.6993 20.7214 13.543 20.8592 13.3751 20.9835C12.8025 21.4075 12.1267 21.5847 11.3363 21.6684Z" fill="#141B34"/>
<path d="M14.6622 13.3673C14.699 13.6533 14.7173 13.7963 14.6277 13.8982C14.5381 14 14.3865 14 14.0831 14H1.91785C1.61451 14 1.46284 14 1.37324 13.8982C1.28365 13.7963 1.30201 13.6533 1.33873 13.3673C1.3408 13.3512 1.34291 13.3352 1.34507 13.3194C1.44468 12.587 1.65972 11.9536 2.15887 11.4287C2.30164 11.2786 2.458 11.1408 2.62585 11.0165C3.19852 10.5925 3.87426 10.4153 4.66469 10.3316C5.43524 10.25 6.4077 10.25 7.62374 10.25H8.37721C9.59325 10.25 10.5657 10.25 11.3363 10.3316C12.1267 10.4153 12.8025 10.5925 13.3751 11.0165C13.543 11.1408 13.6993 11.2786 13.8421 11.4287C14.3413 11.9536 14.5563 12.587 14.6559 13.3194C14.6581 13.3352 14.6602 13.3512 14.6622 13.3673Z" fill="#141B34"/>
<path d="M14.9291 10.395C15.725 11.232 16.0189 12.2108 16.1422 13.1172C16.1624 13.2657 16.1789 13.4198 16.1922 13.5787C16.2004 13.6751 16.2804 13.75 16.3772 13.75C17.5932 13.75 18.5657 13.75 19.3363 13.6684C20.1267 13.5847 20.8025 13.4075 21.3751 12.9835C21.543 12.8592 21.6993 12.7214 21.8421 12.5713C22.3413 12.0464 22.5563 11.413 22.6559 10.6806C22.7505 9.98499 22.7505 9.11335 22.7505 8.05298V7.94702C22.7505 7.82695 22.7505 7.70929 22.7504 7.59404C22.75 7.315 22.7499 7.17549 22.662 7.08774C22.5742 7 22.434 7 22.1535 7H9.84749C9.56703 7 9.4268 7 9.33896 7.08774C9.25111 7.17549 9.25095 7.315 9.25062 7.59403C9.25048 7.70928 9.25049 7.82693 9.25049 7.94699V8.15694C9.25051 8.4357 9.25052 8.5751 9.33677 8.66267C9.42301 8.75024 9.56396 8.7524 9.84587 8.75672C10.4492 8.76598 11.0033 8.78793 11.4943 8.83992C12.4037 8.93623 13.3862 9.15832 14.2677 9.81098C14.5037 9.98568 14.7253 10.1808 14.9291 10.395Z" fill="#141B34"/>
<path d="M9.33874 5.36729C9.30201 5.65331 9.28365 5.79633 9.37324 5.89816C9.46284 6 9.61451 6 9.91785 6H22.0831C22.3865 6 22.5381 6 22.6277 5.89816C22.7173 5.79633 22.699 5.65331 22.6622 5.36729C22.6602 5.35122 22.6581 5.33525 22.6559 5.31937C22.5563 4.58704 22.3413 3.95361 21.8421 3.42872C21.6993 3.2786 21.543 3.14079 21.3751 3.01652C20.8025 2.59253 20.1267 2.41529 19.3363 2.33158C18.5657 2.24998 17.5933 2.24999 16.3772 2.25H15.6238C14.4077 2.24999 13.4352 2.24998 12.6647 2.33158C11.8743 2.41529 11.1985 2.59253 10.6258 3.01652C10.458 3.14079 10.3016 3.2786 10.1589 3.42872C9.65972 3.95361 9.44468 4.58704 9.34507 5.31937C9.34291 5.33525 9.3408 5.35122 9.33874 5.36729Z" fill="#141B34"/>
<path fill-rule="evenodd" clip-rule="evenodd" d="M5.77473 4.24219L6.56654 5.19395C6.72849 5.38861 6.97772 5.48841 7.22926 5.45932C7.4808 5.43023 7.70068 5.27618 7.81392 5.0497L8.67106 3.33541C8.78731 3.10292 8.77489 2.82681 8.63823 2.6057C8.50158 2.38459 8.26018 2.25 8.00024 2.25C7.2127 2.25 6.45527 2.38478 5.75077 2.63328C3.12788 3.55843 1.25024 6.05696 1.25024 9C1.25024 9.41421 1.58603 9.75 2.00024 9.75C2.41446 9.75 2.75024 9.41421 2.75024 9C2.75024 6.89355 3.98629 5.07881 5.77473 4.24219Z" fill="#141B34"/>
<path fill-rule="evenodd" clip-rule="evenodd" d="M18.2258 19.7578L17.4339 18.806C17.272 18.6114 17.0228 18.5116 16.7712 18.5407C16.5197 18.5698 16.2998 18.7238 16.1866 18.9503L15.3294 20.6646C15.2132 20.8971 15.2256 21.1732 15.3623 21.3943C15.4989 21.6154 15.7403 21.75 16.0002 21.75C16.7878 21.75 17.5452 21.6152 18.2497 21.3667C20.8726 20.4416 22.7502 17.943 22.7502 15C22.7502 14.5858 22.4145 14.25 22.0002 14.25C21.586 14.25 21.2502 14.5858 21.2502 15C21.2502 17.1064 20.0142 18.9212 18.2258 19.7578Z" fill="#141B34"/>
</svg>
