<svg width="24" height="24" viewBox="0 0 24 24" fill="none" xmlns="http://www.w3.org/2000/svg">
<path fill-rule="evenodd" clip-rule="evenodd" d="M20 2.75C21.5188 2.75 22.75 3.98122 22.75 5.5V15.5C22.75 17.0188 21.5188 18.25 20 18.25H4C2.48122 18.25 1.25 17.0188 1.25 15.5V5.5C1.25 3.98122 2.48122 2.75 4 2.75H20ZM2.75 15.5C2.75 16.1904 3.30964 16.75 4 16.75H5.92969C5.62471 15.1423 4.35769 13.8753 2.75 13.5703V15.5ZM21.25 13.5703C19.6423 13.8753 18.3753 15.1423 18.0703 16.75H20C20.6904 16.75 21.25 16.1904 21.25 15.5V13.5703ZM12 7.5C10.3431 7.5 9 8.84315 9 10.5C9 12.1569 10.3431 13.5 12 13.5C13.6569 13.5 15 12.1569 15 10.5C15 8.84315 13.6569 7.5 12 7.5ZM4 4.25C3.30964 4.25 2.75 4.80964 2.75 5.5V7.42969C4.35769 7.12471 5.62471 5.85769 5.92969 4.25H4ZM18.0703 4.25C18.3753 5.85769 19.6423 7.12471 21.25 7.42969V5.5C21.25 4.80964 20.6904 4.25 20 4.25H18.0703Z" fill="#141B34"/>
<path d="M19 19.75C19.4142 19.75 19.75 20.0858 19.75 20.5C19.75 20.9142 19.4142 21.25 19 21.25H5C4.58579 21.25 4.25 20.9142 4.25 20.5C4.25 20.0858 4.58579 19.75 5 19.75H19Z" fill="#141B34"/>
</svg>
