<svg width="24" height="24" viewBox="0 0 24 24" fill="none" xmlns="http://www.w3.org/2000/svg">
<path fill-rule="evenodd" clip-rule="evenodd" d="M9.10842 6.09009L12 9.46355L14.8915 6.09009L16.41 7.39167L13 11.3701V12.0001H15.5V14.0001H13V17.5001H11V14.0001H8.49995V12.0001H11V11.3701L7.5899 7.39167L9.10842 6.09009Z" fill="#141B34"/>
<path d="M1.24994 3.82121L3.17919 3.57878L3.43529 5.63838C5.38109 2.9776 8.5173 1.24927 12.0565 1.24927C17.9623 1.24927 22.7499 6.0622 22.7499 11.9993C22.7499 17.9363 17.9623 22.7493 12.0565 22.7493C6.15063 22.7493 1.36301 17.9363 1.36301 11.9993H3.30728C3.30728 16.8568 7.22443 20.7947 12.0565 20.7947C16.8885 20.7947 20.8057 16.8568 20.8057 11.9993C20.8057 7.14167 16.8885 3.20381 12.0565 3.20381C9.04161 3.20381 6.3814 4.73688 4.80759 7.07224L7.01126 6.51841L7.41707 8.43112L1.99266 9.7944L1.24994 3.82121Z" fill="#141B34"/>
</svg>
