<svg width="24" height="24" viewBox="0 0 24 24" fill="none" xmlns="http://www.w3.org/2000/svg">
<path d="M2 12.4C2 9.38301 2 7.87452 2.94627 6.93726C3.89254 6 5.41554 6 8.46154 6H9.53846C12.5845 6 14.1075 6 15.0537 6.93726C16 7.87452 16 9.38301 16 12.4V15.6C16 18.617 16 20.1255 15.0537 21.0627C14.1075 22 12.5845 22 9.53846 22H8.46154C5.41554 22 3.89254 22 2.94627 21.0627C2 20.1255 2 18.617 2 15.6V12.4Z" stroke="#141B34" stroke-width="1.5" stroke-linejoin="round"/>
<path d="M6 12H9M6 17H11" stroke="#141B34" stroke-width="1.5" stroke-linecap="round"/>
<path opacity="0.4" d="M15.9897 16H16.4607C19.0719 16 20.3775 16 21.1887 15.1799C21.9999 14.3598 21.9999 13.0399 21.9999 10.4V7.6C21.9999 4.96013 21.9999 3.6402 21.1887 2.8201C20.3775 2 19.0719 2 16.4607 2H15.5375C12.9263 2 11.6207 2 10.8095 2.8201C10.1001 3.53726 10.066 3.9205 10.0548 5.95053M10.6074 3.05718L14.7678 6.71422" stroke="#141B34" stroke-width="1.5" stroke-linecap="round" stroke-linejoin="round"/>
</svg>
