<svg width="24" height="24" viewBox="0 0 24 24" fill="none" xmlns="http://www.w3.org/2000/svg">
<path opacity="0.4" d="M7.17245 3.31623L9 8H15L16.8275 3.31623C17.2024 2.25381 17.0087 2 15.8235 2H8.17652C6.99125 2 6.79764 2.25381 7.17245 3.31623Z" fill="#141B34"/>
<path opacity="0.4" d="M21 10.2014V22H17.5V11.1816C17.5 11.0937 17.5567 11.0159 17.64 10.9896L20.74 10.0094C20.8689 9.96866 21 10.0655 21 10.2014Z" fill="#141B34"/>
<path opacity="0.4" d="M3 10.2014V22H6.5V11.1816C6.5 11.0937 6.4433 11.0159 6.35997 10.9896L3.25997 10.0094C3.13111 9.96866 3 10.0655 3 10.2014Z" fill="#141B34"/>
<path d="M3 22V10.2014C3 10.0655 3.13111 9.96866 3.25997 10.0094L6.35997 10.9896C6.4433 11.0159 6.5 11.0937 6.5 11.1816V22" stroke="#141B34" stroke-width="1.5" stroke-linecap="round" stroke-linejoin="round"/>
<path d="M21 22V10.2014C21 10.0655 20.8689 9.96866 20.74 10.0094L17.64 10.9896C17.5567 11.0159 17.5 11.0937 17.5 11.1816V22" stroke="#141B34" stroke-width="1.5" stroke-linecap="round" stroke-linejoin="round"/>
<path d="M9 22V8H15V22" stroke="#141B34" stroke-width="1.5" stroke-linecap="round" stroke-linejoin="round"/>
<path d="M2 22L22 22" stroke="#141B34" stroke-width="1.5" stroke-linecap="round" stroke-linejoin="round"/>
<path d="M9 8L7.17245 3.31623C6.79764 2.25381 6.99125 2 8.17652 2H15.8235C17.0087 2 17.2024 2.25381 16.8275 3.31623L15 8" stroke="#141B34" stroke-width="1.5" stroke-linecap="round" stroke-linejoin="round"/>
</svg>
