<svg width="24" height="24" viewBox="0 0 24 24" fill="none" xmlns="http://www.w3.org/2000/svg">
<path d="M7.59341 4.87931C8.14328 4.93086 8.54725 5.41841 8.4957 5.96829L8.0357 10.8749H15.9644L15.5044 5.96829C15.4529 5.41841 15.8569 4.93086 16.4067 4.87931C16.9566 4.82776 17.4442 5.23173 17.4957 5.7816L18.9957 21.7816C19.0473 22.3315 18.6433 22.819 18.0934 22.8706C17.5435 22.9221 17.056 22.5182 17.0044 21.9683L16.4332 15.8749H7.56695L6.9957 21.9683C6.94415 22.5182 6.4566 22.9221 5.90673 22.8706C5.35685 22.819 4.95288 22.3315 5.00443 21.7816L6.50443 5.7816C6.55598 5.23173 7.04353 4.82776 7.59341 4.87931Z" fill="#141B34"/>
<path d="M12.0001 1.125C13.6078 1.125 15.2919 1.43219 16.6143 1.84245C17.3289 2.06413 17.8868 2.64035 18.2393 3.24869C18.5962 3.86466 18.8132 4.6319 18.7338 5.3682C18.6911 5.76419 18.5042 6.10019 18.2101 6.32691C17.93 6.54286 17.5993 6.625 17.302 6.625H12.0001L6.69811 6.62507C6.40087 6.62507 6.07014 6.54293 5.79002 6.32698C5.49593 6.10026 5.30907 5.76425 5.26636 5.36826C5.18694 4.63196 5.40392 3.86473 5.76087 3.24876C6.11338 2.64042 6.67129 2.0642 7.38584 1.84251C8.70822 1.43226 10.3924 1.125 12.0001 1.125Z" fill="#141B34"/>
</svg>
