<svg width="24" height="24" viewBox="0 0 24 24" fill="none" xmlns="http://www.w3.org/2000/svg">
<path opacity="0.4" d="M12.5117 3.35254C12.5533 2.94428 12.7052 2.56903 12.9355 2.25488C12.6263 2.25215 12.3143 2.25 12 2.25C10.5108 2.25 9.0745 2.28112 7.72461 2.33887L7.6582 2.3418L7.65591 2.34189C6.48971 2.39175 5.52763 2.43287 4.74121 2.5918C3.90049 2.76171 3.20788 3.07464 2.59766 3.68945C1.38331 4.91312 1.37023 6.45046 1.29004 8.72363C1.26409 9.45905 1.25 10.2205 1.25 11C1.25 11.7795 1.26409 12.5409 1.29004 13.2764C1.37023 15.5495 1.38331 17.0869 2.59766 18.3105C3.20788 18.9254 3.90049 19.2383 4.74121 19.4082C5.43456 19.5483 6.26419 19.5959 7.25 19.6396V21.2705C7.25022 22.0875 7.91249 22.7498 8.72949 22.75C9.08286 22.75 9.4251 22.6236 9.69336 22.3936L11.873 20.5244C12.4615 20.0198 12.6239 19.8938 12.7988 19.8271C12.9733 19.7607 13.1863 19.7466 13.9834 19.7314C14.7696 19.7165 15.5355 19.6928 16.2754 19.6611L16.3418 19.6582L16.344 19.6581C17.5103 19.6083 18.4723 19.5671 19.2588 19.4082C20.0995 19.2383 20.7921 18.9254 21.4023 18.3105C22.6167 17.0869 22.6298 15.5495 22.71 13.2764C22.7359 12.5409 22.75 11.7795 22.75 11C22.75 10.2205 22.7359 9.45905 22.71 8.72363C22.6949 8.29617 22.682 7.89477 22.6629 7.5166H21.3232C21.9675 8.32524 21.9876 9.49967 21.3096 10.335C20.6141 11.1907 19.4196 11.4009 18.4854 10.8896C17.9747 11.3312 17.4392 11.7391 16.8867 12.1133C15.8576 12.8099 14.4582 12.5401 13.7617 11.5117C13.0651 10.4826 13.3349 9.08322 14.3633 8.38672C14.7524 8.12317 15.117 7.84607 15.457 7.55762C15.4082 7.47248 15.362 7.38872 15.3184 7.30664C15.0685 6.83682 15.0029 6.31836 15.0947 5.83301H14.75C13.5074 5.83301 12.5 4.82565 12.5 3.58301L12.5117 3.35254Z" fill="#141B34"/>
<path d="M8.01782 10L8.12036 10.0049C8.62458 10.0561 9.01782 10.4823 9.01782 11C9.01782 11.5177 8.62458 11.9439 8.12036 11.9951L8.01782 12H8.00903C7.45675 12 7.00903 11.5523 7.00903 11C7.00903 10.4477 7.45675 10 8.00903 10H8.01782ZM12.0139 10C12.566 10.0002 13.0139 10.4478 13.0139 11C13.0139 11.5522 12.566 11.9998 12.0139 12H12.0042C11.452 11.9998 11.0042 11.5522 11.0042 11C11.0042 10.4478 11.452 10.0002 12.0042 10H12.0139Z" fill="#141B34"/>
<path d="M17.25 2.25C17.25 1.69772 17.6977 1.25 18.25 1.25C18.8023 1.25 19.25 1.69772 19.25 2.25V2.58301H21.75C22.3022 2.58301 22.7498 3.03087 22.75 3.58301C22.75 4.13529 22.3023 4.58301 21.75 4.58301H21.2246C20.8949 5.74868 20.371 6.78772 19.7119 7.71777C19.8619 7.85823 20.0213 8.00076 20.1934 8.14062C20.6217 8.48884 20.6867 9.11832 20.3389 9.54688C19.9905 9.97547 19.3602 10.0407 18.9316 9.69238C18.7508 9.54544 18.5808 9.39587 18.4189 9.24707C17.7391 9.92822 16.9846 10.537 16.1855 11.0781C15.7283 11.3876 15.1065 11.2678 14.7969 10.8105C14.4874 10.3533 14.6072 9.73152 15.0645 9.42188C15.8081 8.91826 16.4846 8.36436 17.0781 7.75781C16.8067 7.38752 16.5901 7.036 16.4219 6.71973C16.1626 6.23211 16.3473 5.62651 16.835 5.36719C17.3225 5.10789 17.9282 5.29272 18.1875 5.78027C18.2428 5.88423 18.3078 5.99444 18.3799 6.11133C18.6775 5.63079 18.9267 5.12234 19.1221 4.58301H14.75C14.1977 4.58301 13.75 4.13529 13.75 3.58301C13.7502 3.03087 14.1978 2.58301 14.75 2.58301H17.25V2.25Z" fill="#141B34"/>
</svg>
