<svg width="24" height="24" viewBox="0 0 24 24" fill="none" xmlns="http://www.w3.org/2000/svg">
<path d="M11.7744 2.25C11.3759 2.61962 11.0554 2.97138 10.8232 3.25C10.6777 3.42464 10.4166 3.78039 10.3359 3.88965C9.88436 4.56705 9.88867 5.45076 10.3467 6.12402C10.4256 6.22905 10.6884 6.58299 10.8369 6.75879C11.1271 7.10225 11.552 7.55987 12.0938 8.02148C13.142 8.91454 14.8415 9.999 17 9.99902C19.1585 9.99902 20.858 8.91455 21.9062 8.02148C22.1838 7.78501 22.4298 7.54866 22.6436 7.3291C22.7117 8.48132 22.75 9.71593 22.75 10.999C22.75 13.2359 22.6381 15.3257 22.4434 17.0879C22.3055 18.3349 21.308 19.2922 20.0723 19.4082C17.9753 19.605 15.4756 19.7253 12.7803 19.7451L9.69336 22.3926C9.42511 22.6226 9.08286 22.749 8.72949 22.749C7.91249 22.7488 7.25023 22.0865 7.25 21.2695V19.6367C6.06373 19.5796 4.94824 19.504 3.92773 19.4082C2.69215 19.2923 1.69446 18.335 1.55664 17.0879C1.36191 15.3257 1.25 13.2359 1.25 10.999C1.25 8.76211 1.36191 6.67231 1.55664 4.91016C1.69447 3.66306 2.69226 2.70583 3.92773 2.58984C6.16764 2.37966 8.86737 2.25612 11.7744 2.25ZM8.00879 10C7.45662 10.0001 7.00879 10.4478 7.00879 11C7.00879 11.5522 7.45662 11.9999 8.00879 12H8.01758L8.12012 11.9951C8.62432 11.9439 9.01758 11.5177 9.01758 11C9.01758 10.4823 8.62432 10.0561 8.12012 10.0049L8.01758 10H8.00879ZM12.0039 10C11.4519 10.0003 11.0039 10.4479 11.0039 11C11.0039 11.5521 11.4519 11.9997 12.0039 12H12.0137C12.5658 11.9998 13.0137 11.5521 13.0137 11C13.0137 10.4479 12.5658 10.0002 12.0137 10H12.0039Z" fill="#141B34"/>
<path d="M17 1.25C18.7534 1.25 20.1722 2.124 21.1133 2.93066C21.5896 3.33893 21.9625 3.74558 22.2168 4.05078C22.3444 4.20391 22.6114 4.59005 22.6797 4.68262C22.7905 4.91968 22.7704 5.20101 22.6201 5.42188C22.5509 5.5141 22.3371 5.8004 22.208 5.95312C21.9507 6.25761 21.574 6.66373 21.0957 7.07129C20.1524 7.87496 18.7337 8.75 17 8.75C15.2663 8.75 13.8476 7.87496 12.9043 7.07129C12.426 6.66373 12.0493 6.25761 11.792 5.95312C11.6629 5.8004 11.5634 5.67132 11.4941 5.5791C11.4596 5.5331 11.3989 5.44855 11.3799 5.42188C11.2081 5.16942 11.2066 4.83805 11.376 4.58398C11.3948 4.55717 11.4542 4.47192 11.4883 4.42578C11.5566 4.33321 11.6556 4.20391 11.7832 4.05078C12.0375 3.74558 12.4104 3.33893 12.8867 2.93066C13.8278 2.124 15.2466 1.25 17 1.25ZM16.9932 3.5C16.1685 3.50017 15.5 4.17168 15.5 5C15.5 5.82832 16.1685 6.49983 16.9932 6.5H17.0068C17.8315 6.49985 18.5 5.82834 18.5 5C18.5 4.17166 17.8315 3.50015 17.0068 3.5H16.9932Z" fill="#141B34"/>
</svg>
