<svg width="24" height="24" viewBox="0 0 24 24" fill="none" xmlns="http://www.w3.org/2000/svg">
<path d="M21.7294 1.73631C21.0808 1.08795 20.0294 1.08784 19.3808 1.73631L14.7499 6.36717V9.24998H17.6328L22.2636 4.61912C22.9121 3.9705 22.912 2.91914 22.2636 2.27049L21.7294 1.73631Z" fill="#141B34"/>
<path d="M12 2.25C13.7486 2.25 15.4256 2.29332 16.9766 2.37207L13.5 5.84961V10.5H18.1504L22.5557 6.09375C22.6795 7.58193 22.75 9.24648 22.75 11C22.75 13.92 22.5592 16.5937 22.2412 18.6162L22.1533 19.1748L21.5928 19.2441C19.2231 19.5383 16.1324 19.7226 12.7363 19.7461L7.25 22.75V19.6357C5.44455 19.5488 3.80158 19.4172 2.40723 19.2441L1.84668 19.1748L1.75879 18.6162C1.44082 16.5937 1.25 13.92 1.25 11C1.25 8.07998 1.44082 5.40627 1.75879 3.38379L1.84668 2.8252L2.40723 2.75586C4.94664 2.44064 8.31469 2.25 12 2.25ZM7.00879 10V12H9.01758V10H7.00879ZM11.0039 10V12H13.0137V10H11.0039Z" fill="#141B34"/>
</svg>
