<svg width="24" height="24" viewBox="0 0 24 24" fill="none" xmlns="http://www.w3.org/2000/svg">
<path d="M12 1.75C14.9929 1.75 17.7745 1.87521 20.0723 2.09082C21.3077 2.20681 22.3055 3.16404 22.4434 4.41113C22.6381 6.17328 22.75 8.26308 22.75 10.5C22.75 12.7369 22.6381 14.8267 22.4434 16.5889C22.3055 17.8358 21.308 18.7932 20.0723 18.9092C17.9753 19.106 15.4756 19.2263 12.7803 19.2461L9.69336 21.8936C9.4251 22.1236 9.08286 22.25 8.72949 22.25C7.91249 22.2498 7.25022 21.5875 7.25 20.7705V19.1377C6.06373 19.0806 4.94824 19.0049 3.92773 18.9092C2.69215 18.7932 1.69446 17.8359 1.55664 16.5889C1.36191 14.8267 1.25 12.7369 1.25 10.5C1.25 8.26308 1.36191 6.17328 1.55664 4.41113C1.69447 3.16404 2.69226 2.2068 3.92773 2.09082C6.22548 1.87521 9.00709 1.75 12 1.75ZM14 6.60938C13.3244 6.60938 12.6891 6.81492 12 7.37109C11.3109 6.81492 10.6756 6.60938 10 6.60938C8.36874 6.60938 7.25011 7.96447 7.25 9.49805C7.25 10.3004 7.58219 11.0486 7.99902 11.6797C8.42004 12.3171 8.96792 12.8965 9.49316 13.3779C10.0214 13.8621 10.5462 14.2652 10.9375 14.5459C11.1338 14.6867 11.2987 14.7972 11.415 14.874C11.4733 14.9125 11.6667 15.0262 11.6992 15.0469C11.9227 15.1447 12.1832 15.1276 12.3945 14.9971C12.5109 14.9202 12.8662 14.6867 13.0625 14.5459C13.4538 14.2652 13.9786 13.8621 14.5068 13.3779C15.0321 12.8965 15.58 12.3171 16.001 11.6797C16.4178 11.0486 16.75 10.3004 16.75 9.49805C16.7499 7.96447 15.6313 6.60938 14 6.60938Z" fill="#141B34"/>
</svg>
