<svg width="24" height="24" viewBox="0 0 24 24" fill="none" xmlns="http://www.w3.org/2000/svg">
<path d="M12.0045 11H12.0135M8.00903 11H8.018" stroke="#141B34" stroke-width="2" stroke-linecap="round" stroke-linejoin="round"/>
<path d="M21.9924 9.99917C21.9974 10.3286 22 10.6621 22 10.9992C22 13.2127 21.889 15.2748 21.6976 17.0059C21.5996 17.8926 20.8906 18.5778 20.0024 18.6612C17.8593 18.8623 15.2825 18.9848 12.5 18.998L9.20503 21.8234C9.07273 21.9368 8.90419 21.9992 8.72991 21.9992C8.32679 21.9992 8 21.6724 8 21.2693V18.9211C6.55512 18.8632 5.2074 18.7747 3.99783 18.6612C3.10963 18.5778 2.40035 17.8926 2.30236 17.0059C2.11103 15.2748 2 13.2127 2 10.9992C2 8.78566 2.11103 6.72357 2.30236 4.99241C2.40035 4.10571 3.10975 3.42049 3.99795 3.33714C6.01201 3.14814 8.4091 3.02854 11 3.00391" stroke="#141B34" stroke-width="1.5" stroke-linecap="round" stroke-linejoin="round"/>
<path d="M18 9C18 9 14 6.52941 14 4.13889C14 2.95761 14.8421 2 16 2C16.6 2 17.2 2.20588 18 3.02941C18.8 2.20588 19.4 2 20 2C21.1579 2 22 2.95761 22 4.13889C22 6.52941 18 9 18 9Z" stroke="#141B34" stroke-width="1.5" stroke-linecap="round" stroke-linejoin="round"/>
</svg>
