<svg width="24" height="24" viewBox="0 0 24 24" fill="none" xmlns="http://www.w3.org/2000/svg">
<path d="M12.5 2.25195V5.24902C12.5 6.49166 13.5074 7.49902 14.75 7.49902H16.6299C16.3904 8.17712 16.4782 8.95867 16.9375 9.58301L17.084 9.76172C17.8499 10.607 19.1466 10.7508 20.084 10.0605L20.1133 10.0381C20.4402 9.78299 21.3232 9.0936 21.7246 8.74512C22.0294 8.48048 22.3674 8.17206 22.6777 7.85254C22.689 8.1305 22.6993 8.42051 22.71 8.72363C22.7359 9.45905 22.75 10.2205 22.75 11C22.75 11.7795 22.7359 12.5409 22.71 13.2764C22.6298 15.5495 22.6167 17.0869 21.4023 18.3105C20.7921 18.9254 20.0995 19.2383 19.2588 19.4082C18.4718 19.5672 17.5091 19.6083 16.3418 19.6582L16.2754 19.6611C15.5355 19.6928 14.7696 19.7165 13.9834 19.7314C13.1863 19.7466 12.9733 19.7607 12.7988 19.8271C12.6239 19.8938 12.4615 20.0198 11.873 20.5244L9.69336 22.3936C9.4251 22.6236 9.08286 22.75 8.72949 22.75C7.91249 22.7498 7.25022 22.0875 7.25 21.2705V19.6396C6.26419 19.5959 5.43456 19.5483 4.74121 19.4082C3.90049 19.2383 3.20788 18.9254 2.59766 18.3105C1.38331 17.0869 1.37023 15.5495 1.29004 13.2764C1.26409 12.5409 1.25 11.7795 1.25 11C1.25 10.2205 1.26409 9.45905 1.29004 8.72363C1.37023 6.45046 1.38331 4.91312 2.59766 3.68945C3.20788 3.07464 3.90049 2.76171 4.74121 2.5918C5.52815 2.43277 6.49097 2.39169 7.6582 2.3418L7.72461 2.33887C9.0745 2.28112 10.5108 2.25 12 2.25C12.1674 2.25 12.334 2.25117 12.5 2.25195ZM8.00879 10C7.45662 10.0001 7.00879 10.4478 7.00879 11C7.00879 11.5522 7.45662 11.9999 8.00879 12H8.01758L8.12012 11.9951C8.62433 11.9439 9.01758 11.5177 9.01758 11C9.01758 10.4823 8.62433 10.0561 8.12012 10.0049L8.01758 10H8.00879ZM12.0039 10C11.4519 10.0003 11.0039 10.4479 11.0039 11C11.0039 11.5521 11.4519 11.9997 12.0039 12H12.0137C12.5658 11.9998 13.0137 11.5522 13.0137 11C13.0137 10.4478 12.5658 10.0002 12.0137 10H12.0039Z" fill="#141B34"/>
<path d="M17.9453 1.65731C18.2727 1.21279 18.8981 1.11726 19.3428 1.44442C19.4284 1.50908 19.6887 1.70601 19.834 1.81942C20.1235 2.04538 20.5129 2.35768 20.9053 2.69832C21.2926 3.03464 21.7061 3.41839 22.0303 3.78524C22.1914 3.96758 22.3521 4.16992 22.4775 4.37801C22.5728 4.53605 22.7103 4.79619 22.7432 5.11141L22.75 5.25008L22.7432 5.38875C22.7103 5.70398 22.5728 5.96412 22.4775 6.12215C22.3521 6.33025 22.1914 6.53258 22.0303 6.71493C21.7061 7.08177 21.2926 7.46553 20.9053 7.80184C20.5129 8.14247 20.1235 8.45478 19.834 8.68075C19.6887 8.79415 19.4284 8.99011 19.3428 9.05477C18.8981 9.38228 18.2718 9.28755 17.9443 8.84285C17.6171 8.39818 17.7136 7.77184 18.1582 7.44442C18.2366 7.3852 18.4678 7.2105 18.6035 7.10457C18.8764 6.89162 19.2831 6.5605 19.6406 6.25008H14.75C14.1977 6.25008 13.75 5.80237 13.75 5.25008C13.75 4.6978 14.1977 4.25008 14.75 4.25008H19.6406C19.2831 3.93965 18.8764 3.60854 18.6035 3.39559C18.4678 3.28967 18.2356 3.11399 18.1572 3.05477C17.7126 2.72724 17.6178 2.10197 17.9453 1.65731Z" fill="#141B34"/>
</svg>
