<svg width="24" height="24" viewBox="0 0 24 24" fill="none" xmlns="http://www.w3.org/2000/svg">
<path opacity="0.4" d="M22.71 12.7764C22.7359 12.0409 22.75 11.2795 22.75 10.5C22.75 9.72053 22.7359 8.95905 22.71 8.22363C22.6298 5.95045 22.6167 4.41312 21.4023 3.18945C20.7921 2.57464 20.0995 2.26171 19.2588 2.0918C18.4718 1.93276 17.5089 1.8916 16.3416 1.8417L16.2754 1.83887C14.9255 1.78112 13.4892 1.75 12 1.75C10.5108 1.75 9.0745 1.78112 7.72461 1.83887L7.65843 1.8417C6.49109 1.8916 5.5282 1.93276 4.74121 2.0918C3.90049 2.26171 3.20788 2.57464 2.59766 3.18945C1.38331 4.41312 1.37023 5.95046 1.29004 8.22363C1.26409 8.95905 1.25 9.72053 1.25 10.5C1.25 11.2795 1.26409 12.0409 1.29004 12.7764C1.37023 15.0495 1.38331 16.5869 2.59766 17.8105C3.20788 18.4254 3.90049 18.7383 4.74121 18.9082C5.43456 19.0483 6.26419 19.0959 7.25 19.1396V20.7705C7.25022 21.5875 7.91249 22.2498 8.72949 22.25C9.08286 22.25 9.4251 22.1236 9.69336 21.8936L11.873 20.0244C12.4615 19.5198 12.6239 19.3938 12.7988 19.3271C12.9733 19.2607 13.1863 19.2466 13.9834 19.2314C14.7696 19.2165 15.5355 19.1928 16.2754 19.1611L16.3415 19.1583C17.5089 19.1084 18.4718 19.0672 19.2588 18.9082C20.0995 18.7383 20.7921 18.4254 21.4023 17.8105C22.6167 16.5869 22.6298 15.0495 22.71 12.7764Z" fill="#141B34"/>
<path d="M14 10C14 8.89543 13.1046 8 12 8C10.8954 8 10 8.89543 10 10C10 11.1046 10.8954 12 12 12C12.5526 12 13.051 11.7771 13.4141 11.4141C13.7771 11.051 14 10.5526 14 10ZM16 10C16 10.7413 15.7969 11.4358 15.4453 12.0312L16.707 13.293C17.0976 13.6835 17.0976 14.3165 16.707 14.707C16.3165 15.0976 15.6835 15.0976 15.293 14.707L14.0312 13.4453C13.4358 13.7969 12.7413 14 12 14C9.79086 14 8 12.2091 8 10C8 7.79086 9.79086 6 12 6C14.2091 6 16 7.79086 16 10Z" fill="#141B34"/>
</svg>
