<svg width="24" height="24" viewBox="0 0 24 24" fill="none" xmlns="http://www.w3.org/2000/svg">
<path d="M12.4336 2.25195C12.1514 2.83361 12 3.48211 12 4.13867C12 5.28214 12.4695 6.27202 12.9561 7.00879C13.4539 7.76263 14.0812 8.4206 14.6484 8.94043C15.2232 9.4672 15.7897 9.90139 16.209 10.2021C16.4301 10.3607 16.8421 10.6308 16.9473 10.7002L18 11.3516L19.0527 10.7002C19.1579 10.6308 19.5699 10.3607 19.791 10.2021C20.2103 9.90139 20.7768 9.4672 21.3516 8.94043C21.7792 8.54851 22.2405 8.07772 22.6553 7.54688C22.7155 8.63736 22.75 9.79774 22.75 11C22.75 13.92 22.5592 16.5937 22.2412 18.6162L22.1533 19.1748L21.5928 19.2441C19.2231 19.5383 16.1324 19.7226 12.7363 19.7461L7.25 22.75V19.6357C5.44455 19.5488 3.80158 19.4172 2.40723 19.2441L1.84668 19.1748L1.75879 18.6162C1.44082 16.5937 1.25 13.92 1.25 11C1.25 8.07998 1.44082 5.40627 1.75879 3.38379L1.84668 2.8252L2.40723 2.75586C4.94664 2.44064 8.31469 2.25 12 2.25C12.145 2.25 12.2896 2.25137 12.4336 2.25195ZM7.00879 10V12H9.01758V10H7.00879ZM11.0039 10V12H13.0137V10H11.0039Z" fill="#141B34"/>
<path d="M22.001 6.32031C22.4178 5.68918 22.75 4.94105 22.75 4.13867C22.7499 2.60509 21.6313 1.25 20 1.25C19.3244 1.25 18.6891 1.45554 18 2.01172C17.3109 1.45554 16.6756 1.25 16 1.25C14.3687 1.25 13.2501 2.60509 13.25 4.13867C13.25 4.94105 13.5822 5.68918 13.999 6.32031C14.42 6.95777 14.9679 7.53717 15.4932 8.01855C16.0214 8.50271 16.5462 8.90587 16.9375 9.18652C17.1338 9.32731 17.4891 9.56085 17.6055 9.6377L18 9.88184L18.3945 9.6377C18.5109 9.56085 18.8662 9.32731 19.0625 9.18652C19.4538 8.90587 19.9786 8.50271 20.5068 8.01855C21.0321 7.53717 21.58 6.95777 22.001 6.32031Z" fill="#141B34"/>
</svg>
