<svg width="24" height="24" viewBox="0 0 24 24" fill="none" xmlns="http://www.w3.org/2000/svg">
<path d="M12 1.75C13.4892 1.75 14.9255 1.78112 16.2754 1.83887L16.3418 1.8418C17.509 1.89169 18.4719 1.93277 19.2588 2.0918C20.0995 2.26171 20.7921 2.57464 21.4023 3.18945C22.6167 4.41312 22.6298 5.95045 22.71 8.22363C22.7359 8.95905 22.75 9.72053 22.75 10.5C22.75 11.2795 22.7359 12.0409 22.71 12.7764C22.6298 15.0495 22.6167 16.5869 21.4023 17.8105C20.7921 18.4254 20.0995 18.7383 19.2588 18.9082C18.4718 19.0672 17.5091 19.1083 16.3418 19.1582L16.2754 19.1611C15.5355 19.1928 14.7696 19.2165 13.9834 19.2314C13.1863 19.2466 12.9733 19.2607 12.7988 19.3271C12.6239 19.3938 12.4615 19.5198 11.873 20.0244L9.69336 21.8936C9.4251 22.1236 9.08286 22.25 8.72949 22.25C7.91249 22.2498 7.25022 21.5875 7.25 20.7705V19.1396C6.26419 19.0959 5.43456 19.0483 4.74121 18.9082C3.90049 18.7383 3.20788 18.4254 2.59766 17.8105C1.38331 16.5869 1.37023 15.0495 1.29004 12.7764C1.26409 12.0409 1.25 11.2795 1.25 10.5C1.25 9.72053 1.26409 8.95905 1.29004 8.22363C1.37023 5.95046 1.38331 4.41312 2.59766 3.18945C3.20788 2.57464 3.90049 2.26171 4.74121 2.0918C5.52815 1.93277 6.49097 1.89169 7.6582 1.8418L7.72461 1.83887C9.0745 1.78112 10.5108 1.75 12 1.75ZM12 5.75C10.7574 5.75 9.75 6.75736 9.75 8C9.75 8.81117 10.1805 9.52013 10.8242 9.91602C9.04909 10.4261 7.75 12.0608 7.75 14C7.75 14.4142 8.08579 14.75 8.5 14.75H15.5C15.9142 14.75 16.25 14.4142 16.25 14C16.25 12.0605 14.9504 10.4259 13.1748 9.91602C13.819 9.52021 14.25 8.81147 14.25 8C14.25 6.75736 13.2426 5.75 12 5.75Z" fill="#141B34"/>
</svg>
