<svg width="24" height="24" viewBox="0 0 24 24" fill="none" xmlns="http://www.w3.org/2000/svg">
<path d="M13.4336 2.26074C12.845 3.10906 12.5 4.1393 12.5 5.25L12.5068 5.52051C12.6477 8.29403 14.9413 10.4999 17.75 10.5C18.3682 10.5 18.9613 10.3903 19.5117 10.1934L20.1592 10.8408L20.3301 10.9951C21.0227 11.56 21.9718 11.6474 22.7471 11.2637C22.7443 11.9513 22.733 12.6241 22.71 13.2764C22.6298 15.5495 22.6167 17.0869 21.4023 18.3105C20.7921 18.9254 20.0995 19.2383 19.2588 19.4082C18.4718 19.5672 17.5091 19.6083 16.3418 19.6582L16.2754 19.6611C15.5355 19.6928 14.7696 19.7165 13.9834 19.7314C13.1863 19.7466 12.9733 19.7607 12.7988 19.8271C12.6239 19.8938 12.4615 20.0198 11.873 20.5244L9.69336 22.3936C9.4251 22.6236 9.08286 22.75 8.72949 22.75C7.91249 22.7498 7.25022 22.0875 7.25 21.2705V19.6396C6.26419 19.5959 5.43456 19.5483 4.74121 19.4082C3.90049 19.2383 3.20788 18.9254 2.59766 18.3105C1.38331 17.0869 1.37023 15.5495 1.29004 13.2764C1.26409 12.5409 1.25 11.7795 1.25 11C1.25 10.2205 1.26409 9.45905 1.29004 8.72363C1.37023 6.45046 1.38331 4.91312 2.59766 3.68945C3.20788 3.07464 3.90049 2.76171 4.74121 2.5918C5.52815 2.43277 6.49097 2.39169 7.6582 2.3418L7.72461 2.33887C9.0745 2.28112 10.5108 2.25 12 2.25C12.4838 2.25 12.9621 2.25433 13.4336 2.26074ZM8.00879 10C7.45662 10.0001 7.00879 10.4478 7.00879 11C7.00879 11.5522 7.45662 11.9999 8.00879 12H8.01758L8.12012 11.9951C8.62433 11.9439 9.01758 11.5177 9.01758 11C9.01758 10.4823 8.62433 10.0561 8.12012 10.0049L8.01758 10H8.00879ZM12.0039 10C11.4519 10.0003 11.0039 10.4479 11.0039 11C11.0039 11.5521 11.4519 11.9997 12.0039 12H12.0137C12.5658 11.9998 13.0137 11.5522 13.0137 11C13.0137 10.4478 12.5658 10.0002 12.0137 10H12.0039Z" fill="#141B34"/>
<path d="M19.7502 5.25C19.7502 4.14543 18.8548 3.25 17.7502 3.25C16.6457 3.25 15.7502 4.14543 15.7502 5.25C15.7504 6.35447 16.6458 7.25 17.7502 7.25C18.3027 7.25 18.8013 7.02702 19.1643 6.66406C19.5273 6.30109 19.7502 5.80247 19.7502 5.25ZM21.7502 5.25C21.7502 5.99133 21.5472 6.68586 21.1956 7.28125L22.4573 8.54297C22.8477 8.9335 22.8478 9.56654 22.4573 9.95703C22.0668 10.3474 21.4337 10.3474 21.0432 9.95703L19.7805 8.69434C19.1852 9.04583 18.4914 9.25 17.7502 9.25C15.5412 9.25 13.7504 7.45903 13.7502 5.25C13.7502 3.04086 15.5411 1.25 17.7502 1.25C19.9594 1.25 21.7502 3.04086 21.7502 5.25Z" fill="#141B34"/>
</svg>
