<svg width="24" height="24" viewBox="0 0 24 24" fill="none" xmlns="http://www.w3.org/2000/svg">
<path d="M12.0045 11H12.0135M8.00903 11H8.018" stroke="#141B34" stroke-width="2" stroke-linecap="square"/>
<path d="M12 3C8.33695 3 5.00126 3.18952 2.5 3.5C2.18952 5.47468 2 8.10811 2 11C2 13.8919 2.18952 16.5253 2.5 18.5C4.05234 18.6927 5.92608 18.8388 8 18.9219V22H8.13107L12.5 18.9988C15.9661 18.9824 19.113 18.7963 21.5 18.5C21.8105 16.5253 22 13.8919 22 11C22 10.6629 21.9974 10.3294 21.9924 10" stroke="#141B34" stroke-width="1.5" stroke-linecap="square"/>
<path d="M19 2L22 5.00002L19 8M21.5 5.00002L15 5.00002" stroke="#141B34" stroke-width="1.5" stroke-linecap="square"/>
</svg>
