<svg width="24" height="24" viewBox="0 0 24 24" fill="none" xmlns="http://www.w3.org/2000/svg">
<path d="M12 2.25C13.2317 2.25 14.4271 2.27247 15.5674 2.3125C15.2064 2.96016 15 3.70588 15 4.5C15 5.92529 15.6633 7.19503 16.6973 8.01953C16.6335 8.00677 16.5675 8 16.5 8H7.5C6.94772 8 6.5 8.44772 6.5 9C6.5 9.55228 6.94772 10 7.5 10H16.5C17.0523 10 17.5 9.55228 17.5 9C17.5 8.79351 17.4373 8.6017 17.3301 8.44238C17.9736 8.79736 18.7131 9 19.5 9C20.7369 9 21.8565 8.50013 22.6699 7.69238C22.6844 8.01865 22.6972 8.36178 22.71 8.72363C22.7359 9.45905 22.75 10.2205 22.75 11C22.75 11.7795 22.7359 12.5409 22.71 13.2764C22.6298 15.5495 22.6167 17.0869 21.4023 18.3105C20.7921 18.9254 20.0995 19.2383 19.2588 19.4082C18.4718 19.5672 17.5091 19.6083 16.3418 19.6582L16.2754 19.6611C15.5355 19.6928 14.7696 19.7165 13.9834 19.7314C13.1863 19.7466 12.9733 19.7607 12.7988 19.8271C12.6239 19.8938 12.4615 20.0198 11.873 20.5244L9.69336 22.3936C9.4251 22.6236 9.08286 22.75 8.72949 22.75C7.91249 22.7498 7.25022 22.0875 7.25 21.2705V19.6396C6.26419 19.5959 5.43456 19.5483 4.74121 19.4082C3.90049 19.2383 3.20788 18.9254 2.59766 18.3105C1.38331 17.0869 1.37023 15.5495 1.29004 13.2764C1.26409 12.5409 1.25 11.7795 1.25 11C1.25 10.2205 1.26409 9.45905 1.29004 8.72363C1.37023 6.45046 1.38331 4.91312 2.59766 3.68945C3.20788 3.07464 3.90049 2.76171 4.74121 2.5918C5.52815 2.43277 6.49097 2.39169 7.6582 2.3418L7.72461 2.33887C9.0745 2.28112 10.5108 2.25 12 2.25ZM7.5 12C6.94772 12 6.5 12.4477 6.5 13C6.5 13.5523 6.94772 14 7.5 14H13C13.5523 14 14 13.5523 14 13C14 12.4477 13.5523 12 13 12H7.5Z" fill="#141B34"/>
<path d="M19.5 7.75C21.2949 7.75 22.75 6.29493 22.75 4.5C22.75 2.70507 21.2949 1.25 19.5 1.25C17.7051 1.25 16.25 2.70507 16.25 4.5C16.25 6.29493 17.7051 7.75 19.5 7.75Z" fill="#141B34"/>
</svg>
