<svg width="24" height="24" viewBox="0 0 24 24" fill="none" xmlns="http://www.w3.org/2000/svg">
<path d="M12 2.25C13.3541 2.25 14.6652 2.27701 15.9082 2.3252L12.9824 5.25195L16.5 8.76953V11.416H21V8.76953L22.6309 7.1377C22.7066 8.34532 22.75 9.64611 22.75 11C22.75 13.92 22.5592 16.5937 22.2412 18.6162L22.1533 19.1748L21.5928 19.2441C19.2231 19.5383 16.1324 19.7226 12.7363 19.7461L7.25 22.75V19.6357C5.44455 19.5488 3.80158 19.4172 2.40723 19.2441L1.84668 19.1748L1.75879 18.6162C1.44082 16.5937 1.25 13.92 1.25 11C1.25 8.07998 1.44082 5.40627 1.75879 3.38379L1.84668 2.8252L2.40723 2.75586C4.94664 2.44064 8.31469 2.25 12 2.25ZM7.00879 10V12H9.01758V10H7.00879ZM11.0039 10V12H13.0137V10H11.0039ZM22.1533 2.8252L22.1641 2.89844L22.0811 2.81543L22.1533 2.8252Z" fill="#141B34"/>
<path d="M17.75 5.07812L16.1641 6.66406L14.75 5.25L18.75 1.25L22.75 5.25L21.3359 6.66406L19.75 5.07812V10.1641H17.75L17.75 5.07812Z" fill="#141B34"/>
</svg>
