<svg width="24" height="24" viewBox="0 0 24 24" fill="none" xmlns="http://www.w3.org/2000/svg">
<path d="M22 10.5C22 7.60811 21.8105 4.97468 21.5 3C18.9987 2.68952 15.6631 2.5 12 2.5C8.33694 2.5 5.00126 2.68952 2.5 3C2.18952 4.97468 2 7.60811 2 10.5C2 13.3919 2.18952 16.0253 2.5 18C4.88698 18.2963 8.03387 18.4824 11.5 18.4988L15.8689 21.5H16V18.4219C18.0739 18.3388 19.9477 18.1927 21.5 18C21.8105 16.0253 22 13.3919 22 10.5Z" stroke="#141B34" stroke-width="1.5" stroke-linecap="square"/>
<path d="M7.5 8.5H16.5M7.5 12.5H13" stroke="#141B34" stroke-width="1.5" stroke-linecap="square"/>
</svg>
