<svg width="24" height="24" viewBox="0 0 24 24" fill="none" xmlns="http://www.w3.org/2000/svg">
<path d="M12 2.25C13.7492 2.25 15.4261 2.29348 16.9766 2.37207L14.7363 4.61328C14.3301 5.01966 14.0531 5.53735 13.9404 6.10059L13.5391 8.10742C13.4081 8.76261 13.6128 9.44096 14.0859 9.91406C14.5591 10.3871 15.2374 10.5919 15.8926 10.4609L17.8994 10.0596L18.1084 10.0098C18.5903 9.87575 19.0311 9.61912 19.3867 9.26367L22.5557 6.09375C22.6794 7.58052 22.75 9.2449 22.75 11C22.75 13.2369 22.6381 15.3267 22.4434 17.0889C22.3055 18.3358 21.308 19.2932 20.0723 19.4092C17.9753 19.606 15.4756 19.7263 12.7803 19.7461L9.69336 22.3936C9.42511 22.6236 9.08286 22.75 8.72949 22.75C7.91249 22.7498 7.25023 22.0875 7.25 21.2705V19.6377C6.06373 19.5806 4.94824 19.5049 3.92773 19.4092C2.69215 19.2932 1.69446 18.3359 1.55664 17.0889C1.36191 15.3267 1.25 13.2369 1.25 11C1.25 8.76308 1.36191 6.67328 1.55664 4.91113C1.69447 3.66404 2.69226 2.7068 3.92773 2.59082C6.22548 2.37521 9.00709 2.25 12 2.25ZM8.00879 10C7.45662 10.0001 7.00879 10.4478 7.00879 11C7.00879 11.5522 7.45662 11.9999 8.00879 12H8.01758L8.12012 11.9951C8.62432 11.9439 9.01758 11.5177 9.01758 11C9.01758 10.4823 8.62432 10.0561 8.12012 10.0049L8.01758 10H8.00879ZM12.0039 10C11.4519 10.0003 11.0039 10.4479 11.0039 11C11.0039 11.5521 11.4519 11.9997 12.0039 12H12.0137C12.5658 11.9998 13.0137 11.5521 13.0137 11C13.0137 10.4479 12.5658 10.0002 12.0137 10H12.0039Z" fill="#141B34"/>
<path d="M21.7294 1.73631C21.0808 1.08795 20.0294 1.08785 19.3808 1.73631L15.62 5.49705C15.3882 5.7289 15.2303 6.02419 15.1659 6.34568L14.7646 8.35252C14.7154 8.59841 14.7923 8.85293 14.9697 9.03025C15.147 9.20757 15.4015 9.28451 15.6474 9.23533L17.6542 8.83396C17.9757 8.76965 18.271 8.61167 18.5029 8.37986L22.2636 4.61912C22.9121 3.9705 22.912 2.91914 22.2636 2.27049L21.7294 1.73631Z" fill="#141B34"/>
</svg>
