<svg width="24" height="24" viewBox="0 0 24 24" fill="none" xmlns="http://www.w3.org/2000/svg">
<path fill-rule="evenodd" clip-rule="evenodd" d="M17.0078 8.21069C17.0078 8.76298 16.5621 9.21069 16.0123 9.21069L16.0033 9.21069C15.4535 9.21069 15.0078 8.76298 15.0078 8.21069C15.0078 7.65841 15.4535 7.21069 16.0033 7.21069L16.0123 7.21069C16.5621 7.21069 17.0078 7.65841 17.0078 8.21069Z" fill="#141B34"/>
<path fill-rule="evenodd" clip-rule="evenodd" d="M22.1897 9.27446C22.5198 9.36075 22.75 9.65892 22.75 10.0001V13.7615C22.75 15.0602 22.75 16.1047 22.6473 16.933C22.541 17.7906 22.3149 18.5158 21.79 19.1187C21.3194 19.6593 20.7258 19.967 20.0149 20.1681C19.3261 20.363 18.4751 20.4714 17.4532 20.5817C16.8031 20.6519 16.3196 20.2221 16.1155 19.7951C15.9028 19.3501 15.474 19.0664 15 19.0664C14.4409 19.0664 13.94 19.4652 13.7925 20.0503C13.6772 20.5075 13.2929 21.0152 12.6527 21.0817L8.61488 21.5015C7.1246 21.6564 5.92437 21.7812 4.97621 21.7431C3.99059 21.7034 3.15088 21.4853 2.47308 20.8476C1.80021 20.2146 1.51402 19.3814 1.38001 18.381C1.24997 17.4101 1.24998 16.1614 1.25 14.5992V14.5992V14.5992V11.0396C1.25 10.7363 1.43273 10.4628 1.71299 10.3467C1.99324 10.2306 2.31583 10.2948 2.53033 10.5093C2.66892 10.6479 3.03397 10.8174 3.81012 10.9149C4.5478 11.0076 5.50428 11.0194 6.65362 10.9886C7.46641 10.9668 8.37837 10.923 9.35778 10.876C11.0865 10.7929 13.0254 10.6998 15 10.6998C17.4308 10.6998 19.0419 10.4619 20.0552 10.183C20.5622 10.0435 20.9047 9.89777 21.1205 9.77654C21.302 9.67463 21.3579 9.6124 21.3579 9.6124C21.5291 9.32873 21.8673 9.19019 22.1897 9.27446ZM18.0078 15.2109C18.0078 15.7632 17.5601 16.2109 17.0078 16.2109H16.9988C16.4465 16.2109 15.9988 15.7632 15.9988 15.2109C15.9988 14.6587 16.4465 14.2109 16.9988 14.2109H17.0078C17.5601 14.2109 18.0078 14.6587 18.0078 15.2109ZM8.5 13.9609C9.74264 13.9609 10.75 14.9683 10.75 16.2109C10.75 17.4536 9.74264 18.4609 8.5 18.4609C7.25736 18.4609 6.25 17.4536 6.25 16.2109C6.25 14.9683 7.25736 13.9609 8.5 13.9609Z" fill="#141B34"/>
<path fill-rule="evenodd" clip-rule="evenodd" d="M14.0146 4.73907C14.0172 4.76527 14.0199 4.79364 14.0223 4.82154C14.0271 4.87931 14.0316 4.95062 14.0316 5.02813C14.0316 6.61921 12.7157 7.91616 11.0834 7.91616C10.4557 7.91616 9.87247 7.72308 9.39441 7.39541C9.21652 7.42771 8.94388 7.51249 8.58246 7.66308C7.86899 7.96036 6.969 8.44628 6.08587 9.00029C5.20316 9.55405 4.3784 10.15 3.8073 10.6526C3.74176 10.7103 3.68125 10.7653 3.62566 10.8174C3.63326 10.818 3.64093 10.8185 3.64869 10.819C4.37158 10.869 5.4491 10.8265 7.00419 10.7629L18.2811 10.3016C18.9149 10.2757 19.4418 10.212 19.8561 10.106C20.277 9.99843 20.5106 9.86507 20.6316 9.75027C20.725 9.66165 20.791 9.55058 20.7953 9.33171C20.8002 9.07736 20.7178 8.66984 20.4231 8.05907C19.6156 6.38557 18.1573 5.03533 16.3405 4.30255C15.5778 3.99496 14.9766 4.20147 14.0146 4.73907ZM12.7699 3.2379C13.8382 2.62174 15.277 1.80822 17.0864 2.538C19.3413 3.44742 21.1706 5.13017 22.1911 7.24521C22.5541 7.99752 22.7623 8.70824 22.7494 9.36795C22.7359 10.0631 22.4758 10.6619 21.9934 11.1196C21.5386 11.5512 20.9467 11.8006 20.3512 11.9529C19.7491 12.1068 19.0687 12.1802 18.3629 12.209L7.0152 12.6732C5.54729 12.7332 4.35778 12.7819 3.51072 12.7233C3.08306 12.6938 2.65164 12.6326 2.28387 12.4855C1.89098 12.3284 1.47786 12.0312 1.30712 11.5044C1.19596 11.1615 1.2689 10.8519 1.34147 10.6584C1.41687 10.4573 1.53003 10.2781 1.63926 10.1304C1.85898 9.83344 2.1662 9.52715 2.49903 9.23426C3.17353 8.6407 4.09111 7.98276 5.02962 7.394C5.96772 6.80549 6.96785 6.26031 7.81555 5.90711C8.23436 5.7326 8.65739 5.58732 9.03839 5.51828C9.22879 5.48378 9.44686 5.46105 9.66881 5.48056C9.88626 5.49969 10.1858 5.56672 10.4502 5.78259C10.6229 5.92359 10.8422 6.00709 11.0834 6.00709C11.6282 6.00709 12.0771 5.57273 12.0771 5.02813C12.0771 5.00304 12.074 4.96993 12.0627 4.86028L12.0624 4.85684C12.0535 4.77069 12.0382 4.62152 12.0442 4.4634C12.0504 4.29772 12.0806 4.07019 12.1986 3.83469C12.3237 3.5852 12.5197 3.38218 12.7699 3.2379Z" fill="#141B34"/>
</svg>
