<svg width="24" height="24" viewBox="0 0 24 24" fill="none" xmlns="http://www.w3.org/2000/svg">
<path d="M13.9958 9.01904L14.6998 13.6158C14.8507 14.601 15.1094 15.5671 15.5102 16.4792C16.008 17.6121 16.7293 19.1427 17.2843 19.8657C17.7652 20.4919 17.9998 21.2643 18 22.0547H6C6 21.2639 6.23443 20.4917 6.71544 19.8652C7.27043 19.1422 7.99158 17.6114 8.48921 16.4786C8.88969 15.5669 9.14823 14.6012 9.29902 13.6166L10.0031 9.01904H13.9958Z" stroke="#141B34" stroke-width="1.5" stroke-linecap="round"/>
<path d="M5 18.0437H19" stroke="#141B34" stroke-width="1.5" stroke-linejoin="round"/>
<path d="M10.4857 4.51698L12.0432 4.49366L13.5224 4.51698L16.337 2.08312C16.4018 2.02708 16.5023 2.07325 16.5023 2.15906V6.50637L14.035 9.00817C14.0162 9.02722 13.9906 9.03794 13.9638 9.03794H12.0088H10.0443C10.0176 9.03794 9.99197 9.02722 9.97318 9.00817L7.50586 6.50637V2.15906C7.50586 2.07325 7.60636 2.02708 7.67117 2.08312L10.4857 4.51698Z" stroke="#141B34" stroke-width="1.5"/>
</svg>
