<svg width="24" height="24" viewBox="0 0 24 24" fill="none" xmlns="http://www.w3.org/2000/svg">
<path d="M10.9898 2.25024C8.511 2.39323 6.25754 3.05804 4.54306 4.08826C2.61325 5.24787 1.25 6.95447 1.25 8.98128C1.25 11.0081 2.61325 12.7147 4.54306 13.8743C6.4878 15.0429 9.12602 15.7413 12 15.7413C14.874 15.7413 17.5122 15.0429 19.4569 13.8743C21.3867 12.7147 22.75 11.0081 22.75 8.98128C22.75 6.95447 21.3867 5.24787 19.4569 4.08826C18.8225 3.70702 18.1142 3.37581 17.348 3.10257C10.2253 2.25487 7.75 6.14492 7.75 7.86148C7.75 8.45932 8.11621 8.9962 8.92364 9.44046C9.73261 9.88557 10.8629 10.1564 12.0398 10.2191C13.2167 10.2818 14.3527 10.1318 15.1626 9.81222C16.0086 9.47845 16.25 9.08092 16.25 8.76264C16.25 8.70309 16.2085 8.50872 16.0225 8.23772C15.8477 7.98296 15.5824 7.71751 15.2389 7.5109C14.5775 7.11313 13.5922 6.91152 12.3197 7.51196L11.6803 6.15302C13.4078 5.33788 14.9225 5.56835 16.0111 6.22305C16.5426 6.54267 16.9648 6.95856 17.2587 7.38683C17.5415 7.79884 17.75 8.28919 17.75 8.76264C17.75 10.0316 16.7414 10.8039 15.7124 11.2099C14.6473 11.6301 13.2833 11.7897 11.9602 11.7193C10.6371 11.6488 9.26739 11.3436 8.20136 10.7571C7.13379 10.1697 6.25 9.21928 6.25 7.86148C6.25 5.94012 7.78622 3.47623 10.9898 2.25024Z" fill="#141B34"/>
<path d="M1.25 13.0178V14.99C1.25 17.0168 2.61325 18.7234 4.54306 19.883C6.4878 21.0516 9.12602 21.75 12 21.75C14.874 21.75 17.5122 21.0516 19.4569 19.883C21.3867 18.7234 22.75 17.0168 22.75 14.99V13.0178C22.053 13.877 21.1705 14.5963 20.2287 15.1622C18.0137 16.4932 15.099 17.2433 12 17.2433C8.90096 17.2433 5.98629 16.4932 3.77132 15.1622C2.82952 14.5963 1.94698 13.877 1.25 13.0178Z" fill="#141B34"/>
</svg>
