<svg width="24" height="24" viewBox="0 0 24 24" fill="none" xmlns="http://www.w3.org/2000/svg">
<path opacity="0.4" d="M12 1.25C17.9371 1.25 22.75 6.06294 22.75 12C22.75 17.9371 17.9371 22.75 12 22.75C6.06294 22.75 1.25 17.9371 1.25 12C1.25 6.06294 6.06294 1.25 12 1.25Z" fill="#141B34"/>
<path fill-rule="evenodd" clip-rule="evenodd" d="M7 8L7 16C7 16.4142 7.33579 16.75 7.75 16.75C8.16421 16.75 8.5 16.4142 8.5 16L8.5 8C8.5 7.58579 8.16421 7.25 7.75 7.25C7.33579 7.25 7 7.58579 7 8Z" fill="#141B34"/>
<path d="M17.75 12.75C18.1642 12.75 18.5 12.4142 18.5 12C18.5 11.5858 18.1642 11.25 17.75 11.25L13.5 11.25L13.5 10.939C13.5 10.6653 13.5001 10.3967 13.4764 10.1889C13.4579 10.0261 13.3962 9.55368 12.9779 9.33716C12.5593 9.12048 12.18 9.36549 12.0514 9.4518C11.8867 9.56231 11.693 9.73106 11.4955 9.90312L11.4674 9.92757C11.1652 10.1907 10.8298 10.4968 10.566 10.7998C10.4342 10.9512 10.304 11.12 10.2032 11.2985C10.1086 11.4662 10 11.7115 10 12C10 12.2885 10.1086 12.5338 10.2032 12.7015C10.304 12.88 10.4342 13.0489 10.566 13.2002C10.8298 13.5032 11.1652 13.8093 11.4674 14.0724L11.4955 14.0969C11.693 14.2689 11.8867 14.4377 12.0514 14.5482C12.18 14.6345 12.5593 14.8795 12.9779 14.6628C13.3962 14.4463 13.4579 13.9739 13.4764 13.8111C13.5001 13.6033 13.5 13.3347 13.5 13.061L13.5 12.75L17.75 12.75Z" fill="#141B34"/>
</svg>
