<svg width="24" height="24" viewBox="0 0 24 24" fill="none" xmlns="http://www.w3.org/2000/svg">
<path opacity="0.4" d="M12 22.75C6.06294 22.75 1.25 17.9371 1.25 12C1.25 6.06294 6.06294 1.25 12 1.25C17.9371 1.25 22.75 6.06294 22.75 12C22.75 17.9371 17.9371 22.75 12 22.75Z" fill="#141B34"/>
<path d="M9.28572 7.49708C9.28572 6.9448 9.73344 6.49708 10.2857 6.49708C10.838 6.49708 11.2857 6.9448 11.2857 7.49708L11.2857 15.4802C11.2858 15.7593 11.286 16.0587 11.2555 16.2957C11.2319 16.4793 11.1428 17.1089 10.5244 17.391C9.85242 17.6975 9.30954 17.273 9.16139 17.1502C8.97907 16.9992 8.78047 16.7802 8.6043 16.586L7.25968 15.1052C6.88841 14.6963 6.91889 14.0639 7.32776 13.6926C7.51937 13.5186 7.76008 13.4329 8 13.4329L9.28572 13.4329L9.28572 7.49708Z" fill="#141B34"/>
<path d="M16.7403 8.88899C17.1116 9.29786 17.0811 9.93029 16.6723 10.3016C16.4806 10.4756 16.2399 10.5613 16 10.5612L14.7143 10.5612L14.7143 16.4971C14.7143 17.0494 14.2666 17.4971 13.7143 17.4971C13.162 17.4971 12.7143 17.0494 12.7143 16.4971L12.7143 8.51393C12.7142 8.23484 12.7141 7.93545 12.7445 7.69848C12.7681 7.51481 12.8572 6.88525 13.4756 6.60316C14.1476 6.29664 14.6905 6.72121 14.8386 6.84394C15.0209 6.99496 15.2195 7.21392 15.3957 7.40814L15.3957 7.40817L16.7403 8.88899Z" fill="#141B34"/>
</svg>
