<svg width="24" height="24" viewBox="0 0 24 24" fill="none" xmlns="http://www.w3.org/2000/svg">
<path d="M12 1.25C17.9371 1.25 22.75 6.06294 22.75 12C22.75 17.9371 17.9371 22.75 12 22.75C6.06294 22.75 1.25 17.9371 1.25 12C1.25 6.06294 6.06294 1.25 12 1.25ZM15.707 8.29297C15.3165 7.90244 14.6835 7.90244 14.293 8.29297L10.0049 12.582C10.0035 12.4102 10 12.2175 10 12V10C10 9.44771 9.55229 9 9 9C8.44775 9.00004 8 9.44774 8 10V12C8 12.6788 7.99752 13.2887 8.06348 13.7793C8.12458 14.2336 8.2568 14.6982 8.58105 15.0996L8.73242 15.2676C9.16882 15.704 9.70139 15.8667 10.2207 15.9365C10.7113 16.0025 11.3212 16 12 16H14C14.5523 16 15 15.5522 15 15C15 14.4477 14.5523 14 14 14H12C11.7829 14 11.5906 13.9975 11.4189 13.9961L15.707 9.70703C16.0976 9.31651 16.0976 8.68349 15.707 8.29297Z" fill="#141B34"/>
</svg>
