<svg width="24" height="24" viewBox="0 0 24 24" fill="none" xmlns="http://www.w3.org/2000/svg">
<path d="M2.75 16.5962V22H4.25V16.5962C4.61799 16.4392 4.92761 16.1749 5.16066 15.8642C5.53849 15.3604 5.75 14.6989 5.75 14C5.75 13.3011 5.53849 12.6396 5.16066 12.1358C4.78266 11.6318 4.20321 11.25 3.5 11.25C2.79679 11.25 2.21734 11.6318 1.83934 12.1358C1.46151 12.6396 1.25 13.3011 1.25 14C1.25 14.6989 1.46151 15.3604 1.83934 15.8642C2.07239 16.1749 2.38201 16.4392 2.75 16.5962Z" fill="#141B34"/>
<path fill-rule="evenodd" clip-rule="evenodd" d="M20 22.75H2V20.75H20V22.75Z" fill="#141B34"/>
<path fill-rule="evenodd" clip-rule="evenodd" d="M17.4993 9.29612L18.25 9.79659V1.99998C18.25 1.80106 18.171 1.6103 18.0303 1.46964C17.8897 1.32899 17.6989 1.24998 17.5 1.24998L7.5 1.25002C7.08578 1.25002 6.75 1.58581 6.75 2.00002L6.75 22C6.75 22.4142 7.08579 22.75 7.5 22.75H10.7493L10.748 13.796L17.4993 9.29612ZM10.5 6.75022L14.5 6.75022V5.25022H10.5V6.75022ZM10.5 9.75022L14.5 9.75022V8.25022L10.5 8.25022V9.75022Z" fill="#141B34"/>
<path fill-rule="evenodd" clip-rule="evenodd" d="M22.749 14.5986L17.4991 11.0987L12.248 14.5986L12.2491 22.75H22.749V14.5986ZM18.25 22V18H16.75V22L18.25 22Z" fill="#141B34"/>
</svg>
