<svg width="24" height="24" viewBox="0 0 24 24" fill="none" xmlns="http://www.w3.org/2000/svg">
<path fill-rule="evenodd" clip-rule="evenodd" d="M12.4639 2.89441C12.4639 2.89445 12.4639 2.89437 12.4639 2.89441L7.48005 7.79904C7.26442 8.01124 6.94241 8.07311 6.6635 7.95593C6.38458 7.83876 6.20337 7.56548 6.20399 7.26295L6.20781 5.37999C6.2082 5.01645 5.88291 4.70876 5.48018 4.75339C5.17602 4.7871 4.945 5.01502 4.90121 5.29201L4.31363 10.0339C4.1757 11.1478 3.49528 12.2981 2.74665 13.0345C2.45136 13.325 1.97651 13.3211 1.68603 13.0258C1.39556 12.7305 1.39946 12.2556 1.69475 11.9651C2.26202 11.4071 2.73792 10.5529 2.825 9.84959L3.41384 5.09753L3.4161 5.08084C3.55849 4.11081 4.34581 3.36992 5.31495 3.26252C6.57938 3.12239 7.70986 4.09617 7.70781 5.38238L7.70763 5.47054L11.4119 1.82518C12.1916 1.05819 13.4508 1.05807 14.2305 1.82507C14.3815 1.97353 14.5034 2.13989 14.5964 2.31727C15.3401 1.95902 16.2616 2.08442 16.8808 2.69349C17.2725 3.07885 17.4708 3.588 17.4707 4.09727C17.4707 4.51149 17.1348 4.84724 16.7206 4.8472C16.3064 4.84716 15.9707 4.51134 15.9707 4.09712C15.9707 3.97735 15.925 3.85742 15.8289 3.76284C15.6329 3.57007 15.3102 3.57005 15.1142 3.76276C15.1142 3.76279 15.1142 3.76274 15.1142 3.76276L11.7467 7.07561C11.4514 7.36609 10.9765 7.36218 10.686 7.06689C10.3956 6.7716 10.3995 6.29674 10.6948 6.00627L13.1788 3.56275C13.3676 3.37671 13.3677 3.08035 13.1786 2.89441C12.9827 2.70166 12.6599 2.70174 12.4639 2.89441Z" fill="#141B34"/>
<path opacity="0.4" d="M10.9878 11.9852C11.1498 12.0542 11.3374 12.0197 11.4642 11.8975L17.0759 6.4348C17.4414 6.07905 18.0272 6.0911 18.3778 6.46157C18.7184 6.82156 18.7101 7.38739 18.3592 7.73733L15.1153 10.9721C14.9409 11.1402 14.9357 11.4179 15.1039 11.5924C15.272 11.7668 15.5497 11.7719 15.7242 11.6038L19.9513 7.55642C20.3183 7.20497 20.9003 7.21581 21.254 7.58069C21.61 7.94793 21.6 8.53448 21.2317 8.88939L16.4335 13.5132C16.259 13.6814 16.2539 13.9591 16.4221 14.1335C16.5902 14.308 16.8679 14.3131 17.0424 14.145L20.3971 10.8364C20.7769 10.4617 21.3905 10.4725 21.757 10.8603C22.1147 11.2388 22.1017 11.8344 21.728 12.197L17.7518 16.0545C17.5774 16.2227 17.5723 16.5004 17.7404 16.6748C17.9085 16.8493 18.1863 16.8544 18.3607 16.6863L20.7043 14.3806C21.1301 13.9617 21.8161 13.9713 22.2299 14.402C22.6392 14.8279 22.6271 15.5046 22.2029 15.9156L18.7922 19.22C17.6877 20.2851 16.9829 20.9648 16.1815 21.3097C15.6554 21.5361 14.8849 21.6106 14.4068 21.6411C14.1347 21.6585 13.904 21.7591 13.7502 21.9073L13.094 22.5397C12.8035 22.8197 12.3435 22.8197 12.053 22.5397L6.70023 17.3806C6.55356 17.2392 6.4707 17.0443 6.4707 16.8406C6.4707 16.6369 6.55356 16.4419 6.70023 16.3005C7.23867 15.7816 7.68581 14.9908 7.767 14.3483L8.32961 9.89628L8.33197 9.87919C8.41684 9.31268 8.73171 8.83287 9.17251 8.51888C9.26401 8.48439 9.3617 8.4607 9.46403 8.44959C10.1554 8.37451 10.7255 8.89319 10.7244 9.51882L10.7211 11.5809C10.7208 11.757 10.8258 11.9162 10.9878 11.9852Z" fill="#141B34"/>
</svg>
