<svg width="24" height="24" viewBox="0 0 24 24" fill="none" xmlns="http://www.w3.org/2000/svg">
<path opacity="0.4" fill-rule="evenodd" clip-rule="evenodd" d="M12 7C12.5523 7 13 7.44772 13 8V11.5858L14.7071 13.2929C15.0976 13.6834 15.0976 14.3166 14.7071 14.7071C14.3166 15.0976 13.6834 15.0976 13.2929 14.7071L11.2929 12.7071C11.1054 12.5196 11 12.2652 11 12V8C11 7.44772 11.4477 7 12 7Z" fill="#141B34"/>
<path d="M20.7948 11.9999C20.7948 7.14233 16.857 3.20452 11.9995 3.20452C9.20293 3.20452 6.72748 4.51089 5.12717 6.55125C4.9058 6.8335 4.79512 6.97462 4.80626 7.15968C4.8174 7.34473 4.95387 7.4812 5.22681 7.75414L5.84973 8.37705C6.02658 8.5539 6.13596 8.79822 6.13596 9.06809C6.13596 9.60781 5.69843 10.0453 5.1587 10.0453H2.71555C2.40442 10.0453 2.11188 9.89719 1.92776 9.64639C1.74365 9.39558 1.68996 9.07209 1.78319 8.77525C3.15124 4.41956 7.17974 1.25 11.9995 1.25C17.9365 1.25 22.7494 6.06288 22.7494 11.9999C22.7494 17.9369 17.9365 22.7497 11.9995 22.7497C11.4598 22.7497 11.0223 22.3122 11.0223 21.7725C11.0223 21.2327 11.4598 20.7952 11.9995 20.7952C16.8571 20.7952 20.7948 16.8574 20.7948 11.9999Z" fill="#141B34"/>
<path opacity="0.4" fill-rule="evenodd" clip-rule="evenodd" d="M2.22726 11.0234C2.76699 11.0234 3.20452 11.461 3.20452 12.0007C3.20452 12.3009 3.21806 12.5976 3.24447 12.89C3.29303 13.4276 2.89663 13.9027 2.35909 13.9513C1.82155 13.9998 1.34643 13.6034 1.29788 13.0659C1.26618 12.715 1.25 12.3597 1.25 12.0007C1.25 11.461 1.68753 11.0234 2.22726 11.0234ZM2.56195 14.8449C3.06703 14.6547 3.63071 14.9099 3.82096 15.415C3.95347 15.7668 4.10583 16.1079 4.27655 16.4368C4.52518 16.9159 4.33838 17.5058 3.85933 17.7544C3.38028 18.003 2.79038 17.8162 2.54176 17.3372C2.33556 16.9399 2.1517 16.5282 1.9919 16.1039C1.80164 15.5989 2.05687 15.0352 2.56195 14.8449ZM4.32927 18.4248C4.72485 18.0576 5.34319 18.0806 5.71037 18.4762C5.98021 18.7669 6.26784 19.0388 6.57129 19.2899C6.98709 19.634 7.04522 20.2501 6.70111 20.6659C6.35701 21.0817 5.74097 21.1398 5.32517 20.7957C4.9553 20.4896 4.60545 20.1588 4.27783 19.8059C3.91066 19.4103 3.93369 18.792 4.32927 18.4248ZM7.20228 20.9831C7.42698 20.4924 8.00694 20.2767 8.49767 20.5014C8.78231 20.6318 9.07461 20.7466 9.37363 20.845C9.8863 21.0138 10.1651 21.5662 9.99636 22.0788C9.82761 22.5915 9.27522 22.8703 8.76255 22.7016C8.3939 22.5802 8.03398 22.4388 7.68398 22.2785C7.19325 22.0538 6.97758 21.4739 7.20228 20.9831Z" fill="#141B34"/>
</svg>
