<svg width="24" height="24" viewBox="0 0 24 24" fill="none" xmlns="http://www.w3.org/2000/svg">
<path d="M5.853 7.36454C3.22664 7.89643 1.25 10.217 1.25 13C1.25 16.1756 3.82436 18.75 7 18.75H7.25683C7.25229 18.6677 7.25 18.5856 7.25 18.5037C7.25 17.6823 7.53043 16.9769 7.80115 16.4691C8.08 15.946 8.43141 15.4791 8.75517 15.0965C9.27896 14.4774 10.629 13.1888 10.9682 12.8673L12 11.8896L13.0318 12.8673C13.371 13.1888 14.721 14.4774 15.2448 15.0965C15.5686 15.4791 15.92 15.946 16.1989 16.4691C16.4696 16.9769 16.75 17.6823 16.75 18.5037C16.75 18.5856 16.7477 18.6677 16.7432 18.75H17.5C20.3995 18.75 22.75 16.3995 22.75 13.5C22.75 10.8541 20.7927 8.66534 18.2469 8.30273C18.1428 4.94224 15.3858 2.25 12 2.25C8.93585 2.25 6.38731 4.45456 5.853 7.36454Z" fill="#141B34"/>
<path d="M12 13.9561C12.366 14.3028 13.6423 15.5247 14.0997 16.0653C14.3852 16.4026 14.6645 16.7793 14.8752 17.1746C15.0832 17.5648 15.25 18.0206 15.25 18.5036C15.25 20.0853 14.028 21.7502 12 21.7502C9.97196 21.7502 8.75 20.0853 8.75 18.5036C8.75 18.0206 8.91683 17.5648 9.12483 17.1746C9.33554 16.7793 9.61482 16.4026 9.90025 16.0653C10.3577 15.5247 11.634 14.3028 12 13.9561Z" fill="#141B34"/>
</svg>
