<svg width="24" height="24" viewBox="0 0 24 24" fill="none" xmlns="http://www.w3.org/2000/svg">
<path fill-rule="evenodd" clip-rule="evenodd" d="M12.0001 14.25C12.4143 14.25 12.7501 14.5858 12.7501 15V16.6754L14.1142 15.8569C14.4694 15.6438 14.9301 15.7589 15.1432 16.1141C15.3563 16.4693 15.2412 16.93 14.886 17.1431L13.4578 18L14.8859 18.8569C15.241 19.07 15.3562 19.5307 15.1431 19.8859C14.93 20.2411 14.4693 20.3562 14.1141 20.1431L12.7501 19.3247V21C12.7501 21.4142 12.4143 21.75 12.0001 21.75C11.5859 21.75 11.2501 21.4142 11.2501 21V19.3247L9.88612 20.1431C9.53094 20.3562 9.07024 20.2411 8.85713 19.8859C8.64401 19.5307 8.75918 19.07 9.11437 18.8569L10.5424 18L9.11423 17.1431C8.75905 16.93 8.64388 16.4693 8.857 16.1141C9.07011 15.7589 9.53081 15.6438 9.88599 15.8569L11.2501 16.6754V15C11.2501 14.5858 11.5859 14.25 12.0001 14.25Z" fill="#141B34"/>
<path fill-rule="evenodd" clip-rule="evenodd" d="M12.0002 13.75C12.5524 13.75 13.0002 14.1977 13.0002 14.75V15.9838L13.9856 15.3925C14.4592 15.1084 15.0735 15.2619 15.3576 15.7355C15.6418 16.2091 15.4882 16.8233 15.0147 17.1075L13.9438 17.75L15.0145 18.3925C15.4881 18.6767 15.6417 19.2909 15.3575 19.7645C15.0734 20.2381 14.4591 20.3916 13.9855 20.1075L13.0002 19.5163V20.75C13.0002 21.3023 12.5524 21.75 12.0002 21.75C11.4479 21.75 11.0002 21.3023 11.0002 20.75V19.5163L10.0148 20.1075C9.54121 20.3916 8.92695 20.2381 8.6428 19.7645C8.35864 19.2909 8.5122 18.6767 8.98578 18.3925L10.0565 17.75L8.98565 17.1075C8.51207 16.8233 8.35851 16.2091 8.64266 15.7355C8.92682 15.2619 9.54108 15.1084 10.0147 15.3925L11.0002 15.9838V14.75C11.0002 14.1977 11.4479 13.75 12.0002 13.75Z" fill="#141B34"/>
<path opacity="0.4" d="M5.89293 7.16541C5.86687 7.28518 5.77394 7.37978 5.65475 7.40836C3.1278 8.01425 1.25 10.2875 1.25 13C1.25 16.1756 3.82436 18.75 7 18.75C7.02969 18.75 7.05519 18.7291 7.06172 18.7001C7.12238 18.4313 7.22718 18.1726 7.37319 17.9358C7.44311 17.8224 7.44308 17.6777 7.37316 17.5644C6.89835 16.7945 6.85917 15.7929 7.35666 14.9637C7.82311 14.1863 8.64536 13.7539 9.49023 13.7497C9.61874 13.749 9.73778 13.6776 9.79881 13.5645C10.2212 12.7818 11.0487 12.25 12.0004 12.25C12.9521 12.25 13.7796 12.7818 14.2019 13.5645C14.263 13.6776 14.382 13.749 14.5105 13.7497C15.3554 13.7539 16.1776 14.1863 16.6441 14.9637C17.1416 15.7929 17.1024 16.7945 16.6276 17.5644C16.5577 17.6777 16.5576 17.8224 16.6276 17.9358C16.7393 18.1171 16.827 18.3112 16.8891 18.5128C16.9311 18.649 17.0521 18.75 17.1946 18.75H17.5C20.3995 18.75 22.75 16.3995 22.75 13.5C22.75 10.941 20.9191 8.80958 18.4958 8.34431C18.3526 8.31682 18.2444 8.196 18.2341 8.05055C18.0037 4.80855 15.3006 2.25 12 2.25C9.00614 2.25 6.50451 4.35458 5.89293 7.16541Z" fill="#141B34"/>
</svg>
