<svg width="24" height="24" viewBox="0 0 24 24" fill="none" xmlns="http://www.w3.org/2000/svg">
<path d="M8.21815 13.7285L9.93773 14.7498L8.7562 16.7392H11.7559L8.781 21.7497L7.06128 20.7286L8.24249 18.7392H5.24219L8.21815 13.7285Z" fill="#141B34"/>
<path d="M14.1055 20.792L15.6055 17.792L17.3943 18.6864L15.8943 21.6864L14.1055 20.792Z" fill="#141B34"/>
<path d="M12.6055 17.792L11.1055 20.792L12.8943 21.6864L14.3943 18.6864L12.6055 17.792Z" fill="#141B34"/>
<path d="M5.853 7.36454C3.22664 7.89643 1.25 10.217 1.25 13C1.25 15.0735 2.34756 16.8907 3.99341 17.9023L7.69324 11.6729L11.9922 14.2261L11.3905 15.2392H14.3898L13.5801 16.6029L14.3334 16.9795L14.9334 15.7795L19.4056 18.0156L19.1748 18.4772C21.2531 17.7782 22.75 15.8139 22.75 13.5C22.75 10.8541 20.7927 8.66534 18.2469 8.30273C18.1428 4.94224 15.3858 2.25 12 2.25C8.93585 2.25 6.38731 4.45456 5.853 7.36454Z" fill="#141B34"/>
</svg>
