<svg width="24" height="24" viewBox="0 0 24 24" fill="none" xmlns="http://www.w3.org/2000/svg">
<path opacity="0.4" d="M11.9425 5.20644L12.4635 6.25008L16.7904 6.25008H16.7905C17.8095 6.25007 18.6312 6.25006 19.2905 6.31713C19.9711 6.38636 20.5613 6.53321 21.0834 6.88207C21.4929 7.15566 21.8444 7.50723 22.118 7.91669C22.4669 8.4388 22.6137 9.029 22.683 9.70956C22.75 10.3689 22.75 11.2733 22.75 12.2923C22.75 14.0121 22.75 15.3603 22.6408 16.4337C22.5295 17.5284 22.2983 18.4203 21.781 19.1946C21.3614 19.8225 20.8224 20.3615 20.1945 20.781C19.4202 21.2984 18.5283 21.5295 17.4336 21.6409C16.3602 21.7501 15.012 21.7501 13.2923 21.7501H11.9426C9.63423 21.7501 7.82519 21.7501 6.41371 21.5603C4.96897 21.3661 3.82895 20.9608 2.93414 20.0659C2.03933 19.1711 1.63399 18.0311 1.43975 16.5864C1.24998 15.1749 1.24999 13.3659 1.25 11.0575V11.0575V7.90959V7.90958C1.24999 7.03085 1.24998 6.32212 1.30044 5.74978C1.35242 5.16004 1.46238 4.64396 1.7254 4.17266C2.06428 3.56541 2.56533 3.06435 3.17258 2.72548C3.64388 2.46246 4.15996 2.3525 4.7497 2.30052C5.32205 2.25006 6.2039 2.25003 7.08264 2.25004C8.11205 2.24958 8.82373 2.24927 9.4626 2.48884C10.8581 3.01213 11.4704 4.2513 11.9425 5.20644Z" fill="#141B34"/>
<path fill-rule="evenodd" clip-rule="evenodd" d="M15.4319 11.5104C15.1615 11.8241 15.1966 12.2977 15.5103 12.5681L16.4302 13.361C16.4914 13.4137 16.5442 13.4592 16.5907 13.5C16.5442 13.5408 16.4914 13.5863 16.4302 13.639L15.5103 14.4319C15.1966 14.7023 15.1615 15.1759 15.4319 15.4897C15.7023 15.8034 16.1759 15.8385 16.4897 15.5681L17.4096 14.7752C17.4188 14.7673 17.4281 14.7593 17.4373 14.7513C17.6061 14.6059 17.7854 14.4515 17.9166 14.3033C18.0648 14.1359 18.25 13.8701 18.25 13.5C18.25 13.13 18.0648 12.8642 17.9166 12.6967C17.7854 12.5486 17.6061 12.3941 17.4373 12.2487C17.4281 12.2407 17.4188 12.2328 17.4096 12.2248C17.4096 12.2248 17.4096 12.2248 17.4096 12.2248L16.4897 11.4319C16.1759 11.1615 15.7023 11.1966 15.4319 11.5104Z" fill="#141B34"/>
<path fill-rule="evenodd" clip-rule="evenodd" d="M9.0681 11.5104C9.33853 11.8241 9.30341 12.2977 8.98966 12.5681L8.06975 13.361C8.00858 13.4137 7.95583 13.4592 7.90931 13.5C7.95583 13.5408 8.00858 13.5863 8.06975 13.639L8.98966 14.4319C9.30341 14.7023 9.33853 15.1759 9.0681 15.4897C8.79767 15.8034 8.32409 15.8385 8.01034 15.5681L7.09044 14.7752C7.08121 14.7673 7.07195 14.7593 7.06265 14.7513C6.89388 14.6059 6.71456 14.4515 6.58344 14.3033C6.43518 14.1359 6.25 13.8701 6.25 13.5C6.25 13.13 6.43518 12.8642 6.58344 12.6967C6.71456 12.5486 6.89388 12.3941 7.06265 12.2487C7.07195 12.2407 7.08121 12.2328 7.09044 12.2248C7.09044 12.2248 7.09044 12.2248 7.09044 12.2248L8.01034 11.4319C8.32409 11.1615 8.79767 11.1966 9.0681 11.5104Z" fill="#141B34"/>
<path fill-rule="evenodd" clip-rule="evenodd" d="M13.2787 10.3038C13.6633 10.4577 13.8504 10.8942 13.6966 11.2787L11.6966 16.2787C11.5427 16.6633 11.1062 16.8504 10.7217 16.6966C10.3371 16.5427 10.15 16.1062 10.3038 15.7217L12.3038 10.7217C12.4577 10.3371 12.8942 10.15 13.2787 10.3038Z" fill="#141B34"/>
</svg>
