<svg width="24" height="24" viewBox="0 0 24 24" fill="none" xmlns="http://www.w3.org/2000/svg">
<path fill-rule="evenodd" clip-rule="evenodd" d="M12.4635 6.25008L11.9425 5.20644C11.4704 4.2513 10.8581 3.01213 9.4626 2.48884C8.82373 2.24927 8.11205 2.24958 7.08264 2.25004C6.2039 2.25003 5.32205 2.25006 4.7497 2.30052C4.15996 2.3525 3.64388 2.46246 3.17258 2.72548C2.56533 3.06435 2.06428 3.56541 1.7254 4.17266C1.46238 4.64396 1.35242 5.16004 1.30044 5.74978C1.24998 6.32212 1.24999 7.03085 1.25 7.90958V7.90959V11.0575V11.0575C1.24999 13.3659 1.24998 15.1749 1.43975 16.5864C1.63399 18.0311 2.03933 19.1711 2.93414 20.0659C3.82895 20.9608 4.96897 21.3661 6.41371 21.5603C7.82519 21.7501 9.63423 21.7501 11.9426 21.7501H13.2923C15.012 21.7501 16.3602 21.7501 17.4336 21.6409C18.5283 21.5295 19.4202 21.2984 20.1945 20.781C20.8224 20.3615 21.3614 19.8225 21.781 19.1946C22.2983 18.4203 22.5295 17.5284 22.6408 16.4337C22.75 15.3603 22.75 14.0121 22.75 12.2923C22.75 11.2733 22.75 10.3689 22.683 9.70956C22.6137 9.029 22.4669 8.4388 22.118 7.91669C21.8444 7.50723 21.4929 7.15566 21.0834 6.88207C20.5613 6.53321 19.9711 6.38636 19.2905 6.31713C18.6312 6.25006 17.8095 6.25007 16.7905 6.25008H16.7904L12.4635 6.25008ZM15.5103 12.5682C15.1966 12.2978 15.1615 11.8242 15.4319 11.5105C15.7023 11.1967 16.1759 11.1616 16.4897 11.432L17.4096 12.2249L17.4373 12.2489C17.6061 12.3942 17.7854 12.5487 17.9166 12.6968C18.0648 12.8643 18.25 13.1301 18.25 13.5001C18.25 13.8702 18.0648 14.136 17.9166 14.3035C17.7854 14.4516 17.6061 14.606 17.4374 14.7514L17.4373 14.7514L17.4096 14.7753L16.4897 15.5682C16.1759 15.8387 15.7023 15.8035 15.4319 15.4898C15.1615 15.176 15.1966 14.7025 15.5103 14.432L16.4302 13.6391C16.4914 13.5864 16.5442 13.5409 16.5907 13.5001C16.5442 13.4593 16.4914 13.4139 16.4302 13.3611L15.5103 12.5682ZM9.0681 11.5105C9.33853 11.8242 9.30341 12.2978 8.98966 12.5682L8.06975 13.3611C8.00858 13.4139 7.95583 13.4593 7.90931 13.5001C7.95583 13.5409 8.00858 13.5864 8.06975 13.6391L8.98966 14.432C9.30341 14.7025 9.33853 15.176 9.0681 15.4898C8.79767 15.8035 8.32409 15.8387 8.01034 15.5682L7.09044 14.7753L7.06265 14.7514C6.89388 14.606 6.71456 14.4516 6.58344 14.3035C6.43518 14.136 6.25 13.8702 6.25 13.5001C6.25 13.1301 6.43518 12.8643 6.58344 12.6968C6.71456 12.5487 6.89388 12.3942 7.06265 12.2489L7.09044 12.2249L8.01034 11.432C8.32409 11.1616 8.79767 11.1967 9.0681 11.5105ZM13.6966 11.2786C13.8504 10.894 13.6633 10.4576 13.2787 10.3037C12.8942 10.1499 12.4577 10.3369 12.3038 10.7215L10.3038 15.7215C10.15 16.1061 10.3371 16.5426 10.7217 16.6964C11.1062 16.8503 11.5427 16.6632 11.6966 16.2786L13.6966 11.2786Z" fill="#141B34"/>
</svg>
