<svg width="24" height="24" viewBox="0 0 24 24" fill="none" xmlns="http://www.w3.org/2000/svg">
<path d="M15 13C18.3137 13 21 12.1046 21 11C21 9.89544 18.3137 9.00001 15 9.00001C11.6863 9.00001 9 9.89544 9 11C9 12.1046 11.6863 13 15 13Z" stroke="#141B34" stroke-width="1.5"/>
<path d="M8 6.00001C11.3137 6.00001 14 5.10458 14 4.00001C14 2.89544 11.3137 2.00001 8 2.00001C4.68629 2.00001 2 2.89544 2 4.00001C2 5.10458 4.68629 6.00001 8 6.00001Z" stroke="#141B34" stroke-width="1.5"/>
<path d="M2 8.00001C2 8.92336 3.66962 9.70888 6 10" stroke="#141B34" stroke-width="1.5" stroke-linecap="round"/>
<path d="M2 12C2 12.9234 3.66962 13.7089 6 14" stroke="#141B34" stroke-width="1.5" stroke-linecap="round"/>
<path d="M2 4.00001V16C2 16.8708 3.66962 17.7255 6 18" stroke="#141B34" stroke-width="1.5" stroke-linecap="round"/>
<path d="M21 11V19C21 20.1046 18.3137 21 15 21C11.6863 21 9 20.1046 9 19V11" stroke="#141B34" stroke-width="1.5"/>
<path d="M21 15C21 16.1046 18.3138 17 15 17C11.6862 17 9 16.1046 9 15" stroke="#141B34" stroke-width="1.5" stroke-linecap="round"/>
</svg>
