<svg width="24" height="24" viewBox="0 0 24 24" fill="none" xmlns="http://www.w3.org/2000/svg">
<path d="M8.74707 21.75V18.9999H7.24707V21.75H1.24902L1.2496 17.5988C4.24902 16.4412 7.96311 15.75 11.9982 15.75C13.2707 15.75 14.5113 15.8187 15.7077 15.9492L18.124 21.75H12.7471V18.9999H11.2471V21.75H8.74707Z" fill="#141B34"/>
<path d="M1.69225 10.3163C4.58424 9.01238 8.15331 8.25 12.0005 8.25H12.5006L15.0535 14.3788C14.0574 14.294 13.0369 14.25 11.9982 14.25C11.578 14.25 11.1609 14.2572 10.7471 14.2714V11.9999H9.24707V14.3542C8.39522 14.4193 7.5606 14.5142 6.74707 14.6371V12H5.24707V14.8997C3.83086 15.1827 2.49095 15.5526 1.24982 15.9982L1.25058 10.5154L1.69225 10.3163Z" fill="#141B34"/>
<path d="M1.24939 9.1443C3.81951 7.99725 6.85865 7.26296 10.124 7.05842L8.51225 2.25L7.88768 2.34239C5.62084 2.67772 3.52126 3.28521 1.69112 4.11035L1.24939 4.30952V9.1443Z" fill="#141B34"/>
<path d="M15.0446 11.1058C15.4444 11.1276 15.8394 11.1537 16.2291 11.1838L16.2547 8.5542L17.1347 8.71991C19.0113 9.07327 20.757 9.61638 22.3093 10.3162L22.7511 10.5154L22.7508 15.999C20.8601 15.32 18.7401 14.8167 16.4703 14.5286L15.0446 11.1058Z" fill="#141B34"/>
<path d="M17.1405 16.1375L19.4784 21.75H22.7504L22.7507 17.5995C21.0798 16.9545 19.187 16.4542 17.1405 16.1375Z" fill="#141B34"/>
</svg>
