<svg width="24" height="24" viewBox="0 0 24 24" fill="none" xmlns="http://www.w3.org/2000/svg">
<path d="M18.0555 10.0555C19.1294 8.98151 20.8706 8.98151 21.9445 10.0555C23.0185 11.1294 23.0185 12.8706 21.9445 13.9445C20.8706 15.0185 19.1294 15.0185 18.0555 13.9445C16.9815 12.8706 16.9815 11.1294 18.0555 10.0555Z" fill="#141B34"/>
<path d="M6.70463 10.3107C7.00592 10.1816 7.35615 10.2631 7.56947 10.5119L10.0976 13.4613L12.0315 11.9142C12.2039 11.7763 12.4284 11.7213 12.645 11.764C12.8616 11.8067 13.0484 11.9426 13.1557 12.1356L15.6557 16.6356C15.7652 16.8328 15.7802 17.0689 15.6964 17.2784L14.6964 19.7784C14.6189 19.9722 14.4641 20.1249 14.2693 20.1999L7.76928 22.6999C7.53196 22.7911 7.26455 22.756 7.05891 22.6064L1.55891 18.6064C1.30691 18.4231 1.19448 18.1031 1.27647 17.8025L2.77647 12.3025C2.83667 12.0818 2.99433 11.9006 3.20463 11.8105L6.70463 10.3107Z" fill="#141B34"/>
<path fill-rule="evenodd" clip-rule="evenodd" d="M15.6644 2.66421L14.1644 4.16421L12.7502 2.75L14.2502 1.25L15.6644 2.66421ZM13.25 9.25098L21.25 1.25098L22.6642 2.66519L14.6642 10.6652L13.25 9.25098ZM12.6644 5.66421L9.66444 8.66421L8.25023 7.25L11.2502 4.25L12.6644 5.66421Z" fill="#141B34"/>
</svg>
