<svg width="24" height="24" viewBox="0 0 24 24" fill="none" xmlns="http://www.w3.org/2000/svg">
<path opacity="0.4" d="M4.31407 4.2647C6.2371 2.89111 8.91146 2.25 12 2.25C15.0885 2.25 17.7629 2.89111 19.6859 4.2647C21.6435 5.663 22.75 7.77101 22.75 10.5C22.75 13.229 21.6435 15.337 19.6859 16.7353C17.9203 17.9964 15.5214 18.6401 12.75 18.7371V21C12.75 21.2371 12.6379 21.4602 12.4477 21.6017C12.2575 21.7432 12.0116 21.7865 11.7845 21.7184L11.7714 21.7137C11.4727 21.6081 10.6218 21.3073 10.1441 21.1043C9.17673 20.6932 7.88125 20.0622 6.5804 19.1841C4.00275 17.4442 1.25 14.6224 1.25 10.5C1.25 7.77101 2.35646 5.663 4.31407 4.2647Z" fill="#141B34"/>
<path fill-rule="evenodd" clip-rule="evenodd" d="M12 6C12.5523 6 13 6.44772 13 7V9.5H15.5C16.0523 9.5 16.5 9.94772 16.5 10.5C16.5 11.0523 16.0523 11.5 15.5 11.5H13V14C13 14.5523 12.5523 15 12 15C11.4477 15 11 14.5523 11 14V11.5H8.5C7.94772 11.5 7.5 11.0523 7.5 10.5C7.5 9.94772 7.94772 9.5 8.5 9.5H11V7C11 6.44772 11.4477 6 12 6Z" fill="#141B34"/>
</svg>
