<svg width="24" height="24" viewBox="0 0 24 24" fill="none" xmlns="http://www.w3.org/2000/svg">
<path fill-rule="evenodd" clip-rule="evenodd" d="M10.5 16.75C10.5 16.1977 10.9477 15.75 11.5 15.75H12.5C13.0523 15.75 13.5 16.1977 13.5 16.75V19.25C13.5 19.5261 13.7239 19.75 14 19.75H16C16.5523 19.75 17 20.1977 17 20.75C17 21.3023 16.5523 21.75 16 21.75H8C7.44772 21.75 7 21.3023 7 20.75C7 20.1977 7.44772 19.75 8 19.75H10C10.2761 19.75 10.5 19.5261 10.5 19.25V16.75Z" fill="#141B34"/>
<path fill-rule="evenodd" clip-rule="evenodd" d="M19.3918 2.36652C18.5248 2.24996 17.4225 2.24998 16.0549 2.25H16.0549H7.94513H7.94511C6.57753 2.24998 5.47521 2.24996 4.60825 2.36652C3.70814 2.48754 2.95027 2.74643 2.34835 3.34835C1.74643 3.95027 1.48754 4.70814 1.36652 5.60825C1.24996 6.47521 1.24998 7.57753 1.25 8.94511V8.94513V11.0549V11.0549C1.24998 12.4225 1.24996 13.5248 1.36652 14.3918C1.48754 15.2919 1.74643 16.0497 2.34835 16.6517C2.95027 17.2536 3.70814 17.5125 4.60825 17.6335C5.47522 17.75 6.57753 17.75 7.94512 17.75H7.94512H7.94513H16.0549H16.0549H16.0549C17.4225 17.75 18.5248 17.75 19.3918 17.6335C20.2919 17.5125 21.0497 17.2536 21.6517 16.6517C22.2536 16.0497 22.5125 15.2919 22.6335 14.3918C22.75 13.5248 22.75 12.4225 22.75 11.0549V8.94513C22.75 7.57754 22.75 6.47522 22.6335 5.60825C22.5125 4.70814 22.2536 3.95027 21.6517 3.34835C21.0497 2.74643 20.2919 2.48754 19.3918 2.36652ZM13.8945 6.55289C13.7136 6.19109 13.3326 5.97387 12.9292 6.00253C12.5257 6.03118 12.1792 6.30006 12.0513 6.68378L10.8148 10.3935L10.3944 9.5528C10.225 9.21402 9.87877 9.00001 9.5 9.00001H7C6.44772 9.00001 6 9.44773 6 10C6 10.5523 6.44772 11 7 11H8.88197L10.1056 13.4472C10.2865 13.809 10.6674 14.0262 11.0709 13.9975C11.4743 13.9688 11.8208 13.6999 11.9487 13.3162L13.1851 9.60689L13.6052 10.4471C13.7745 10.786 14.1208 11 14.4996 11H16.9996C17.5519 11 17.9996 10.5523 17.9996 10C17.9996 9.44773 17.5519 9.00001 16.9996 9.00001H15.1177L13.8945 6.55289Z" fill="#141B34"/>
</svg>
