<svg width="24" height="24" viewBox="0 0 24 24" fill="none" xmlns="http://www.w3.org/2000/svg">
<path d="M1.25 5C1.25 3.48122 2.48122 2.25 4 2.25H20C21.5188 2.25 22.75 3.48122 22.75 5V15C22.75 16.5188 21.5188 17.75 20 17.75H4C2.48122 17.75 1.25 16.5188 1.25 15V5Z" fill="#141B34"/>
<path fill-rule="evenodd" clip-rule="evenodd" d="M10.5 16.75C10.5 16.1977 10.9477 15.75 11.5 15.75H12.5C13.0523 15.75 13.5 16.1977 13.5 16.75V19.25C13.5 19.5261 13.7239 19.75 14 19.75H16C16.5523 19.75 17 20.1977 17 20.75C17 21.3023 16.5523 21.75 16 21.75H8C7.44772 21.75 7 21.3023 7 20.75C7 20.1977 7.44772 19.75 8 19.75H10C10.2761 19.75 10.5 19.5261 10.5 19.25V16.75Z" fill="#141B34"/>
</svg>
