<svg width="24" height="24" viewBox="0 0 24 24" fill="none" xmlns="http://www.w3.org/2000/svg">
<path d="M22 12V15C22 16.6569 20.6569 18 19 18H5C3.34315 18 2 16.6569 2 15V5C2 3.34315 3.34315 2 5 2H10.5" stroke="#141B34" stroke-width="1.5" stroke-linecap="round" stroke-linejoin="round"/>
<path d="M11 15H13" stroke="#141B34" stroke-width="1.5" stroke-linecap="round" stroke-linejoin="round"/>
<path d="M12 19V22M8 22H16" stroke="#141B34" stroke-width="1.5" stroke-linecap="round" stroke-linejoin="round"/>
<path d="M13 6.66667C13 7.95533 14.0074 9 15.25 9H19.975C21.0934 9 22 8.0598 22 6.9C22 5.7402 21.0833 4.80003 19.9649 4.80003C20.0897 3.36433 18.9799 2 17.5 2C16.2055 2 15.1431 3.03069 15.0342 4.34393C13.8928 4.45657 13 5.45349 13 6.66667Z" stroke="#141B34" stroke-width="1.5" stroke-linecap="round" stroke-linejoin="round"/>
</svg>
