<svg width="24" height="24" viewBox="0 0 24 24" fill="none" xmlns="http://www.w3.org/2000/svg">
<path d="M10.5 16.75C10.5 16.1977 10.9477 15.75 11.5 15.75H12.5C13.0523 15.75 13.5 16.1977 13.5 16.75V21.75H8C7.44772 21.75 7 21.3023 7 20.75C7 20.1977 7.44772 19.75 8 19.75H10C10.2761 19.75 10.5 19.5261 10.5 19.25V16.75Z" fill="#141B34"/>
<path d="M15.25 12C15.25 11.0335 16.0335 10.25 17 10.25H21C21.9665 10.25 22.75 11.0335 22.75 12V20C22.75 20.9665 21.9665 21.75 21 21.75H17C16.0335 21.75 15.25 20.9665 15.25 20V12Z" fill="#141B34"/>
<path d="M4 2.25C2.48122 2.25 1.25 3.48122 1.25 5V15C1.25 16.5188 2.48122 17.75 4 17.75H13.5V12C13.5 10.067 15.067 8.5 17 8.5H21C21.6375 8.5 22.2352 8.67044 22.75 8.96824V5C22.75 3.48122 21.5188 2.25 20 2.25H4Z" fill="#141B34"/>
</svg>
