<svg width="24" height="24" viewBox="0 0 24 24" fill="none" xmlns="http://www.w3.org/2000/svg">
<path fill-rule="evenodd" clip-rule="evenodd" d="M13.4142 17.2069C12.6332 16.4258 11.3668 16.4258 10.5858 17.2069C9.80474 17.9879 9.80474 19.2543 10.5858 20.0353C11.3668 20.8164 12.6332 20.8164 13.4142 20.0353C13.541 19.9085 13.6472 19.7691 13.7329 19.6211H12C11.4477 19.6211 11 19.1734 11 18.6211C11 18.0688 11.4477 17.6211 12 17.6211H13.7329C13.6472 17.4731 13.541 17.3337 13.4142 17.2069ZM9.17157 15.7927C10.7337 14.2306 13.2663 14.2306 14.8284 15.7927C15.6093 16.5735 16 17.599 16 18.6211C16 19.6432 15.6093 20.6687 14.8284 21.4495C13.2663 23.0116 10.7337 23.0116 9.17157 21.4495C7.60948 19.8874 7.60948 17.3548 9.17157 15.7927Z" fill="#141B34"/>
<path fill-rule="evenodd" clip-rule="evenodd" d="M10.6329 1.26169C10.8036 1.16982 11.0002 1.29883 11.0002 1.49267V5.62153C11.0002 6.17382 11.4479 6.62153 12.0002 6.62153C12.5525 6.62153 13.0002 6.17382 13.0002 5.62153V1.49239C13.0002 1.29878 13.1966 1.16993 13.3671 1.26169C13.7764 1.482 14.2403 1.80266 14.7915 2.18372L20.3831 6.04888C20.9802 6.46148 21.5014 6.82174 21.8831 7.19159C22.3058 7.6012 22.5997 8.06017 22.7062 8.67608C22.8058 9.25213 22.7327 9.7388 22.5132 10.2232C22.3225 10.6438 22.0174 11.0639 21.692 11.5121L21.6583 11.5585C19.5428 14.4731 15.9989 16.3715 12 16.3715C8.00107 16.3715 4.45718 14.4731 2.34168 11.5585L2.30796 11.5121C1.98253 11.0639 1.67745 10.6438 1.4868 10.2232C1.26725 9.7388 1.19413 9.25213 1.29372 8.67609C1.40021 8.06017 1.69418 7.6012 2.11687 7.1916C2.49853 6.82174 3.01979 6.46149 3.61679 6.04889L3.66313 6.01687L9.20846 2.18372C9.75969 1.80266 10.2236 1.482 10.6329 1.26169ZM11 8.62153C11 8.06925 11.4477 7.62153 12 7.62153H12.009C12.5613 7.62153 13.009 8.06925 13.009 8.62153C13.009 9.17382 12.5613 9.62153 12.009 9.62153H12C11.4477 9.62153 11 9.17382 11 8.62153ZM12 10.6215C11.4477 10.6215 11 11.0692 11 11.6215C11 12.1738 11.4477 12.6215 12 12.6215H12.009C12.5613 12.6215 13.009 12.1738 13.009 11.6215C13.009 11.0692 12.5613 10.6215 12.009 10.6215H12Z" fill="#141B34"/>
</svg>
