<svg width="24" height="24" viewBox="0 0 24 24" fill="none" xmlns="http://www.w3.org/2000/svg">
<path fill-rule="evenodd" clip-rule="evenodd" d="M21.4521 16.7842L16.921 7.02317L16.8777 6.93758C16.0276 5.25864 15.3394 3.89942 14.6819 2.96917C14.0174 2.02898 13.1933 1.25 12.0002 1.25C10.8072 1.25 9.98309 2.02898 9.31855 2.96917C8.66103 3.89943 7.97285 5.25864 7.12278 6.93759L7.07945 7.02317L2.59638 16.6919C2.37822 17.0905 2.25 17.5287 2.25 17.9998C2.25 18.7961 2.61625 19.4983 3.16397 20.0738C3.70801 20.6455 4.45981 21.1262 5.33143 21.5136C7.07658 22.2892 9.4349 22.7498 12 22.7498C14.5651 22.7498 16.9234 22.2892 18.6686 21.5136C19.5402 21.1262 20.292 20.6455 20.836 20.0738C21.3838 19.4983 21.75 18.7961 21.75 17.9998C21.75 17.6373 21.6741 17.2942 21.5397 16.9738L21.5351 16.9628C21.5094 16.9024 21.4818 16.8429 21.4521 16.7842ZM5.74539 14.3125C7.44107 13.6422 9.63246 13.2498 12 13.2498C14.3678 13.2498 16.5594 13.6423 18.2552 14.3127L15.1726 7.8774C14.2774 6.10943 13.6535 4.88333 13.0895 4.0855C12.5217 3.28215 12.2053 3.18937 12.0002 3.18937C11.7951 3.18937 11.4787 3.28216 10.9109 4.0855C10.347 4.88333 9.72302 6.10943 8.82782 7.8774L5.74539 14.3125Z" fill="#141B34"/>
</svg>
