<svg width="24" height="24" viewBox="0 0 24 24" fill="none" xmlns="http://www.w3.org/2000/svg">
<path d="M3.51693 19.0986V6.15635C3.34571 3.2928 4.485 2.21495 6.39664 2.00112L20.4854 2.00098V15.9996L18.4855 16.0099M3.51693 19.0986C3.51693 20.7524 4.83897 21.999 6.49074 21.999H18.4855M3.51693 19.0986C3.51693 17.4447 4.83897 16.0099 6.49074 16.0099H18.4855M18.4855 16.0099V21.999M20.501 21.999H18.4855" stroke="#141B34" stroke-width="1.5"/>
<path d="M13.8929 6.40409C14.5152 5.81182 15.4845 6.01928 15.8566 6.20078C16.9323 6.72549 17.0976 7.85953 16.9651 8.38001C16.8151 9.42917 15.8211 10.008 15.1002 10.0362C15.0435 10.0385 14.9966 10.0835 14.9966 10.1402V13.0099H9.01252V10.2497C9.01252 10.1898 8.95995 10.1436 8.90013 10.1466C7.53616 10.2137 6.6152 8.5226 7.13208 7.29368C7.76856 5.78043 9.24295 5.83096 10.0058 6.26628C10.0596 6.29698 10.1297 6.27636 10.1573 6.2209C10.8641 4.80106 12.1594 4.96045 12.5233 5.07689C13.3744 5.35572 13.7379 5.86616 13.8929 6.40409ZM13.8929 6.40409C14 6.77578 14.0075 7.1606 14.0075 7.4912" stroke="#141B34" stroke-width="1.5"/>
</svg>
