<svg width="24" height="24" viewBox="0 0 24 24" fill="none" xmlns="http://www.w3.org/2000/svg">
<path fill-rule="evenodd" clip-rule="evenodd" d="M19.5111 4.48885C18.8593 3.83705 17.8026 3.83705 17.1508 4.48885C16.7603 4.87938 16.1271 4.87938 15.7366 4.48886C15.346 4.09833 15.346 3.46517 15.7366 3.07464C17.1694 1.64179 19.4925 1.64179 20.9254 3.07464C22.3582 4.5075 22.3582 6.83061 20.9254 8.26347L18.5662 10.6226C17.1983 11.9906 15.0199 12.0524 13.5777 10.8086C13.1594 10.4479 13.1128 9.81648 13.4735 9.39825C13.8342 8.98002 14.4656 8.93337 14.8839 9.29406C15.5388 9.85891 16.5302 9.83022 17.152 9.20839L19.5111 6.84926C20.163 6.19745 20.163 5.14066 19.5111 4.48885ZM16.1161 7.70594C15.4612 7.14109 14.4698 7.16978 13.848 7.79161L11.4889 10.1507C10.837 10.8025 10.837 11.8593 11.4889 12.5111C12.1407 13.163 13.1974 13.163 13.8492 12.5111C14.2397 12.1206 14.8729 12.1206 15.2634 12.5111C15.654 12.9017 15.654 13.5348 15.2634 13.9254C13.8306 15.3582 11.5075 15.3582 10.0746 13.9254C8.64179 12.4925 8.64179 10.1694 10.0746 8.73653L12.4338 6.3774C13.8017 5.00944 15.9801 4.94757 17.4223 6.19138C17.8406 6.55207 17.8872 7.18352 17.5265 7.60175C17.1658 8.01998 16.5344 8.06663 16.1161 7.70594Z" fill="#141B34"/>
<path fill-rule="evenodd" clip-rule="evenodd" d="M10.9537 2.25L11.025 2.25C11.5635 2.25 12 2.68652 12 3.225C12 3.76348 11.5635 4.2 11.025 4.2C9.15896 4.2 7.85751 4.20207 6.87556 4.33409C5.92165 4.46234 5.41651 4.69692 5.05671 5.05671C4.69692 5.41651 4.46234 5.92165 4.33409 6.87556C4.20207 7.85751 4.2 9.15896 4.2 11.025V12.975C4.2 14.841 4.20207 16.1425 4.33409 17.1244C4.46234 18.0784 4.69692 18.5835 5.05671 18.9433C5.41651 19.3031 5.92165 19.5377 6.87556 19.6659C7.85751 19.7979 9.15896 19.8 11.025 19.8H12.975C14.841 19.8 16.1425 19.7979 17.1244 19.6659C18.0784 19.5377 18.5835 19.3031 18.9433 18.9433C19.3031 18.5835 19.5377 18.0784 19.6659 17.1244C19.7979 16.1425 19.8 14.841 19.8 12.975C19.8 12.4365 20.2365 12 20.775 12C21.3135 12 21.75 12.4365 21.75 12.975V13.0463C21.75 14.8242 21.75 16.2572 21.5985 17.3843C21.4412 18.5544 21.1046 19.5397 20.3221 20.3221C19.5397 21.1046 18.5544 21.4412 17.3843 21.5985C16.2572 21.75 14.8242 21.75 13.0463 21.75H10.9537C9.17581 21.75 7.74279 21.75 6.61572 21.5985C5.44558 21.4412 4.46035 21.1046 3.67786 20.3221C2.89536 19.5397 2.5588 18.5544 2.40148 17.3843C2.24995 16.2572 2.24997 14.8242 2.25 13.0463V10.9537C2.24997 9.1758 2.24995 7.74278 2.40148 6.61572C2.5588 5.44558 2.89536 4.46035 3.67786 3.67786C4.46035 2.89536 5.44558 2.5588 6.61572 2.40148C7.74278 2.24995 9.1758 2.24997 10.9537 2.25Z" fill="#141B34"/>
</svg>
