<svg width="24" height="24" viewBox="0 0 24 24" fill="none" xmlns="http://www.w3.org/2000/svg">
<path fill-rule="evenodd" clip-rule="evenodd" d="M10.2764 5.90347C9.62121 7.36732 9.08481 9.52486 8.6566 12.2032C8.65436 12.2172 8.65202 12.2319 8.64959 12.2471C8.51419 13.0952 8.08239 15.7998 7.16661 18.0883C6.70662 19.2377 6.07364 20.4173 5.18719 21.1752C4.72938 21.5667 4.1778 21.868 3.53214 21.9662C2.88097 22.0653 2.2177 21.945 1.56452 21.6288C1.06741 21.3882 0.859506 20.7902 1.10014 20.2931C1.34078 19.7959 1.93883 19.588 2.43594 19.8287C2.78275 19.9966 3.0386 20.0183 3.23125 19.989C3.42942 19.9588 3.64638 19.8613 3.88743 19.6552C4.39869 19.218 4.88469 18.4074 5.30976 17.3452C6.14151 15.2667 6.54546 12.7396 6.67878 11.9056L6.68168 11.8874C7.11799 9.15848 7.68691 6.79336 8.45098 5.08637C9.17598 3.46665 10.2832 2 12.0002 2C13.7173 2 14.8245 3.46665 15.5495 5.08637C16.3135 6.79336 16.8825 9.15848 17.3188 11.8874L17.3217 11.9056C17.455 12.7396 17.8589 15.2667 18.6907 17.3452C19.1158 18.4074 19.6018 19.218 20.113 19.6552C20.3541 19.8613 20.571 19.9588 20.7692 19.989C20.9619 20.0183 21.2177 19.9966 21.5645 19.8287C22.0616 19.588 22.6597 19.7959 22.9003 20.2931C23.141 20.7902 22.933 21.3882 22.4359 21.6288C21.7828 21.945 21.1195 22.0653 20.4683 21.9662C19.8227 21.868 19.2711 21.5667 18.8133 21.1752C17.9268 20.4173 17.2938 19.2377 16.8339 18.0883C15.9181 15.7998 15.4863 13.0952 15.3509 12.2471C15.3484 12.2319 15.3461 12.2172 15.3439 12.2032C14.9156 9.52486 14.3792 7.36732 13.724 5.90347C13.0297 4.35236 12.4036 4 12.0002 4C11.5969 4 10.9707 4.35236 10.2764 5.90347Z" fill="#141B34"/>
<path fill-rule="evenodd" clip-rule="evenodd" d="M1 12C1 11.4477 1.44772 11 2 11H4.5C5.05228 11 5.5 11.4477 5.5 12C5.5 12.5523 5.05228 13 4.5 13H2C1.44772 13 1 12.5523 1 12ZM9.5 12C9.5 11.4477 9.94772 11 10.5 11H13.5C14.0523 11 14.5 11.4477 14.5 12C14.5 12.5523 14.0523 13 13.5 13H10.5C9.94772 13 9.5 12.5523 9.5 12ZM18.5 12C18.5 11.4477 18.9477 11 19.5 11H22C22.5523 11 23 11.4477 23 12C23 12.5523 22.5523 13 22 13H19.5C18.9477 13 18.5 12.5523 18.5 12Z" fill="#141B34"/>
</svg>
