<svg width="24" height="24" viewBox="0 0 24 24" fill="none" xmlns="http://www.w3.org/2000/svg">
<path d="M9.5 14.458L14.5 9.45801" stroke="#141B34" stroke-width="1.5" stroke-linecap="square" stroke-linejoin="round"/>
<path d="M9.5 9.45801H9.51122M14.4888 14.458H14.5" stroke="#141B34" stroke-width="2" stroke-linecap="square" stroke-linejoin="round"/>
<path d="M21.8999 3.50012L2.1 3.5C2.04477 3.5 2 3.54477 2 3.6V9.53325C3.31502 9.49089 4.2253 9.88088 4.79231 11.1473C5.02891 11.6757 5.06222 12.2836 4.85782 12.8253C4.34869 14.1746 3.28252 14.6001 2 14.5822V20.5H22V14.5738C20.631 14.529 19.8418 14.2329 19.3522 13.3265C18.9156 12.5183 18.9313 11.4952 19.399 10.7045C19.8771 9.89599 20.6213 9.58107 21.9999 9.5585V3.60012C21.9999 3.54489 21.9552 3.50012 21.8999 3.50012Z" stroke="#141B34" stroke-width="1.5"/>
</svg>
