<svg width="24" height="24" viewBox="0 0 24 24" fill="none" xmlns="http://www.w3.org/2000/svg">
<path opacity="0.4" fill-rule="evenodd" clip-rule="evenodd" d="M7.47047 2.2562C7.52345 2.79331 7.13199 3.27177 6.59612 3.32487C5.4148 3.44193 4.83429 3.68898 4.43351 4.09272C4.07281 4.45608 3.83763 4.96661 3.70919 5.92906C3.57705 6.91912 3.575 8.23103 3.575 10.1107V14.0397C3.575 15.9193 3.57705 17.2313 3.70919 18.2213C3.83763 19.1838 4.07281 19.6943 4.43351 20.0577C4.79353 20.4203 5.29832 20.6563 6.25138 20.7854C7.233 20.9184 8.53413 20.9205 10.4004 20.9205H12.3505C14.2168 20.9205 15.5179 20.9184 16.4995 20.7854C17.4526 20.6563 17.9574 20.4203 18.3174 20.0577C18.6468 19.7258 18.8693 19.2762 19.0034 18.4823C19.1424 17.6596 19.1705 16.5732 19.175 15.0311C19.1766 14.4914 19.6144 14.0551 20.1528 14.0567C20.6913 14.0583 21.1266 14.4971 21.125 15.0368C21.1206 16.5526 21.0964 17.8005 20.926 18.8087C20.7508 19.8457 20.407 20.7237 19.6997 21.4362C18.9174 22.2243 17.9317 22.5637 16.7606 22.7223C15.6332 22.875 14.1999 22.875 12.4222 22.875H10.3287C8.55104 22.875 7.11769 22.875 5.99026 22.7223C4.81917 22.5637 3.8335 22.2243 3.05118 21.4362C2.26953 20.6488 1.93354 19.6579 1.7764 18.4805C1.62495 17.3457 1.62497 15.9026 1.625 14.1109V10.0394C1.62497 8.24781 1.62495 6.80469 1.7764 5.66991C1.93354 4.49251 2.26953 3.50156 3.05118 2.71414C3.92417 1.8347 5.05025 1.51398 6.40428 1.37981C6.94015 1.32671 7.4175 1.71909 7.47047 2.2562Z" fill="#141B34"/>
<path d="M19.8333 7.63507C19.5643 7.77193 19.2852 7.9064 19.0044 8.03554C18.2421 8.38602 17.4363 8.71124 16.7327 8.95114C16.3812 9.07097 16.0448 9.17311 15.7457 9.2464C15.4635 9.31553 15.1522 9.375 14.875 9.375C14.5978 9.375 14.2865 9.31553 14.0043 9.2464C13.7052 9.17311 13.3688 9.07097 13.0173 8.95114C12.3137 8.71124 11.5079 8.38602 10.7456 8.03554C9.98791 7.68715 9.24326 7.30004 8.67403 6.93149C8.39332 6.74974 8.1204 6.55032 7.90581 6.34115C7.79855 6.2366 7.68074 6.10556 7.58426 5.94973C7.49225 5.80114 7.375 5.55827 7.375 5.25C7.375 4.94173 7.49225 4.69886 7.58426 4.55027C7.68074 4.39444 7.79855 4.2634 7.90581 4.15885C8.1204 3.94968 8.39332 3.75026 8.67403 3.56851C9.24326 3.19996 9.98791 2.81286 10.7456 2.46446C11.5079 2.11398 12.3137 1.78876 13.0173 1.54886C13.3688 1.42903 13.7052 1.32689 14.0043 1.2536C14.2865 1.18448 14.5978 1.125 14.875 1.125C15.1522 1.125 15.4635 1.18448 15.7457 1.2536C16.0448 1.32689 16.3812 1.42903 16.7327 1.54886C17.4363 1.78876 18.2421 2.11398 19.0044 2.46446C19.7621 2.81286 20.5067 3.19996 21.076 3.56851C21.3567 3.75026 21.6296 3.94968 21.8442 4.15885C21.9515 4.2634 22.0693 4.39444 22.1657 4.55027C22.2577 4.69886 22.375 4.94173 22.375 5.25C22.375 5.55827 22.2577 5.80114 22.1657 5.94973C22.0693 6.10556 21.9515 6.2366 21.8442 6.34115L21.8333 6.35168V10.5625C21.8333 11.1148 21.3856 11.5625 20.8333 11.5625C20.281 11.5625 19.8333 11.1148 19.8333 10.5625V7.63507Z" fill="#141B34"/>
<path opacity="0.4" d="M9.71875 7.53125L10.4909 10.9679C10.5874 11.3974 10.8278 11.876 11.2984 12.2003C12.2277 12.8406 13.4217 13.1241 14.5522 13.1241C15.6827 13.1241 16.8767 12.8406 17.806 12.2003C18.2756 11.8767 18.516 11.3994 18.6129 10.9707L18.6135 10.9679L19.3213 7.88701C19.2167 7.93687 19.1115 7.98614 19.006 8.03465C18.3557 8.33365 17.6737 8.61426 17.0505 8.83921L16.6632 10.5248L16.6622 10.5295C16.6589 10.5439 16.6552 10.5554 16.6519 10.5637L16.6503 10.5676C16.1339 10.9151 15.374 11.1241 14.5522 11.1241C13.7304 11.1241 12.9705 10.9151 12.4541 10.5676L12.4525 10.5637C12.4492 10.5554 12.4455 10.5439 12.4422 10.5295L12.0027 8.57304C11.5869 8.40739 11.1606 8.22474 10.7472 8.03465C10.3962 7.87326 10.048 7.70356 9.71875 7.53125Z" fill="#141B34"/>
</svg>
