<svg width="24" height="24" viewBox="0 0 24 24" fill="none" xmlns="http://www.w3.org/2000/svg">
<path opacity="0.4" d="M19.7506 19.75V14.35C19.7506 14.0672 19.7506 13.9257 19.6627 13.8379C19.5748 13.75 19.4334 13.75 19.1506 13.75H19.0003C18.0286 13.75 17.0865 13.461 16.3778 12.8246C15.6572 12.1774 15.2503 11.2352 15.2503 10.0833C15.2503 9.52311 15.4207 8.94385 15.8084 8.49214C16.2091 8.02519 16.7963 7.75 17.5003 7.75C17.9191 7.75 18.4597 7.9112 18.9063 8.26852C19.383 8.64984 19.7503 9.25511 19.7503 10.0833C19.7503 10.4975 19.4145 10.8333 19.0003 10.8333C18.5861 10.8333 18.2503 10.4975 18.2503 10.0833C18.2503 9.74489 18.1176 9.55849 17.9693 9.43982C17.7909 9.29713 17.5815 9.25 17.5003 9.25C17.2101 9.25 17.0473 9.35173 16.9466 9.46906C16.8328 9.60165 16.7503 9.81405 16.7503 10.0833C16.7503 10.8644 17.015 11.3806 17.3801 11.7085C17.7572 12.0472 18.3151 12.25 19.0003 12.25C22.0592 12.25 22.7506 9.76033 22.7506 8.5C22.7506 6.26542 21.1759 4.25 19.0006 4.25H5C2.82463 4.25 1.25 6.26542 1.25 8.5C1.25 9.76033 1.94135 12.25 5.00028 12.25C5.68541 12.25 6.24339 12.0472 6.62048 11.7085C6.9856 11.3806 7.25028 10.8644 7.25028 10.0833C7.25028 9.81405 7.16774 9.60165 7.05394 9.46906C6.95324 9.35173 6.79043 9.25 6.50028 9.25C6.41909 9.25 6.20966 9.29713 6.0313 9.43982C5.88296 9.55849 5.75028 9.74489 5.75028 10.0833C5.75028 10.4975 5.41449 10.8333 5.00028 10.8333C4.58607 10.8333 4.25028 10.4975 4.25028 10.0833C4.25028 9.25511 4.6176 8.64984 5.09426 8.26852C5.5409 7.9112 6.08146 7.75 6.50028 7.75C7.20424 7.75 7.79143 8.02519 8.1922 8.49214C8.57988 8.94385 8.75028 9.52311 8.75028 10.0833C8.75028 11.2352 8.34339 12.1774 7.62272 12.8246C6.91402 13.461 5.972 13.75 5.00028 13.75H4.85C4.56716 13.75 4.42574 13.75 4.33787 13.8379C4.25 13.9257 4.25 14.0672 4.25 14.35V19.75H19.7506Z" fill="#141B34"/>
<path fill-rule="evenodd" clip-rule="evenodd" d="M2.25098 20C2.25098 19.0335 3.03448 18.25 4.00098 18.25H20.001C20.9675 18.25 21.751 19.0335 21.751 20V21C21.751 21.9665 20.9675 22.75 20.001 22.75H4.00098C3.03448 22.75 2.25098 21.9665 2.25098 21V20ZM4.00098 19.75C3.86291 19.75 3.75098 19.8619 3.75098 20V21C3.75098 21.1381 3.86291 21.25 4.00098 21.25H20.001C20.139 21.25 20.251 21.1381 20.251 21V20C20.251 19.8619 20.139 19.75 20.001 19.75H4.00098Z" fill="#141B34"/>
<path fill-rule="evenodd" clip-rule="evenodd" d="M10.252 9C10.252 8.58579 10.5877 8.25 11.002 8.25H13.002C13.4162 8.25 13.752 8.58579 13.752 9C13.752 9.41421 13.4162 9.75 13.002 9.75H11.002C10.5877 9.75 10.252 9.41421 10.252 9Z" fill="#141B34"/>
<path fill-rule="evenodd" clip-rule="evenodd" d="M9.50195 15.25C9.91617 15.25 10.252 15.5858 10.252 16L10.252 19C10.252 19.4142 9.91617 19.75 9.50195 19.75C9.08774 19.75 8.75195 19.4142 8.75195 19L8.75195 16C8.75195 15.5858 9.08774 15.25 9.50195 15.25ZM14.502 15.25C14.9162 15.25 15.252 15.5858 15.252 16L15.252 19C15.252 19.4142 14.9162 19.75 14.502 19.75C14.0877 19.75 13.752 19.4142 13.752 19L13.752 16C13.752 15.5858 14.0877 15.25 14.502 15.25Z" fill="#141B34"/>
<path d="M7.95245 1.25C7.28758 1.24996 6.71472 1.24993 6.25598 1.31161C5.76434 1.37771 5.29308 1.52677 4.91083 1.90901C4.52858 2.29126 4.37953 2.76252 4.31343 3.25416C4.27181 3.56373 4.25829 3.92527 4.25391 4.33198C4.49328 4.27832 4.74272 4.25 5.0006 4.25H5.75523C5.76009 3.91949 5.77181 3.66405 5.80005 3.45403C5.84379 3.12873 5.9144 3.02677 5.97149 2.96967C6.02858 2.91258 6.13054 2.84197 6.45585 2.79823C6.80273 2.7516 7.27351 2.75 8.00182 2.75H16.0018C16.7301 2.75 17.2009 2.7516 17.5478 2.79823C17.8731 2.84197 17.9751 2.91258 18.0322 2.96967C18.0892 3.02677 18.1599 3.12873 18.2036 3.45403C18.2318 3.66405 18.2436 3.91949 18.2484 4.25H19.0012C19.2597 4.25 19.5098 4.27848 19.7497 4.33241C19.7454 3.92552 19.7319 3.56384 19.6902 3.25416C19.6241 2.76252 19.4751 2.29126 19.0928 1.90901C18.7106 1.52677 18.2393 1.37771 17.7477 1.31161C17.2889 1.24993 16.7161 1.24996 16.0512 1.25H7.95245Z" fill="#141B34"/>
</svg>
