<svg width="24" height="24" viewBox="0 0 24 24" fill="none" xmlns="http://www.w3.org/2000/svg">
<path fill-rule="evenodd" clip-rule="evenodd" d="M10.5 2C10.5 1.44772 10.0523 1 9.5 1C8.94772 1 8.5 1.44772 8.5 2V3.30982C9.09592 3.2727 9.76055 3.25861 10.5 3.25327V2ZM15.5 3.30982C14.9041 3.2727 14.2395 3.25861 13.5 3.25327V2C13.5 1.44772 13.9477 1 14.5 1C15.0523 1 15.5 1.44772 15.5 2V3.30982ZM20.7467 10.5C20.7414 9.76055 20.7273 9.09593 20.6902 8.5H22C22.5523 8.5 23 8.94772 23 9.5C23 10.0523 22.5523 10.5 22 10.5H20.7467ZM20.6902 15.5C20.7273 14.9041 20.7414 14.2394 20.7467 13.5H22C22.5523 13.5 23 13.9477 23 14.5C23 15.0523 22.5523 15.5 22 15.5H20.6902ZM13.5 20.7467C14.2395 20.7414 14.9041 20.7273 15.5 20.6902V22C15.5 22.5523 15.0523 23 14.5 23C13.9477 23 13.5 22.5523 13.5 22V20.7467ZM8.5 20.6902C9.09593 20.7273 9.76055 20.7414 10.5 20.7467V22C10.5 22.5523 10.0523 23 9.5 23C8.94772 23 8.5 22.5523 8.5 22V20.6902ZM3.25327 13.5C3.25861 14.2394 3.2727 14.9041 3.30982 15.5H2C1.44772 15.5 1 15.0523 1 14.5C1 13.9477 1.44772 13.5 2 13.5H3.25327ZM3.30982 8.5C3.2727 9.09592 3.25861 9.76055 3.25327 10.5H2C1.44772 10.5 1 10.0523 1 9.5C1 8.94772 1.44772 8.5 2 8.5H3.30982Z" fill="#141B34"/>
<path opacity="0.4" d="M12.0564 3.25H11.9436H11.9436C10.1058 3.24999 8.65018 3.24997 7.51098 3.40314C6.33856 3.56076 5.38961 3.89288 4.64124 4.64124C3.89288 5.38961 3.56076 6.33856 3.40314 7.51098C3.24997 8.65018 3.24999 10.1058 3.25 11.9436V11.9436V12.0564V12.0564C3.24999 13.8942 3.24997 15.3498 3.40314 16.489C3.56076 17.6614 3.89288 18.6104 4.64124 19.3588C5.38961 20.1071 6.33856 20.4392 7.51098 20.5969C8.65019 20.75 10.1059 20.75 11.9436 20.75H12.0565C13.8942 20.75 15.3498 20.75 16.489 20.5969C17.6614 20.4392 18.6104 20.1071 19.3588 19.3588C20.1071 18.6104 20.4392 17.6614 20.5969 16.489C20.75 15.3498 20.75 13.8942 20.75 12.0564V11.9435C20.75 10.1058 20.75 8.65019 20.5969 7.51098C20.4392 6.33856 20.1071 5.38961 19.3588 4.64124C18.6104 3.89288 17.6614 3.56076 16.489 3.40314C15.3498 3.24997 13.8942 3.24999 12.0565 3.25H12.0564Z" fill="#141B34"/>
<path fill-rule="evenodd" clip-rule="evenodd" d="M13.4659 9.136C13.8171 8.70979 13.7563 8.07955 13.3301 7.72831C12.9039 7.37708 12.2737 7.43785 11.9225 7.86406L9.83143 10.4014C9.05035 11.3492 9.72352 12.5582 10.7107 12.7538L11.9145 12.9923L10.0703 14.7825C9.67406 15.1672 9.66466 15.8003 10.0493 16.1966C10.434 16.5928 11.0671 16.6022 11.4634 16.2176L14.0578 13.6991C14.4802 13.2891 14.5962 12.7057 14.4225 12.1995C14.2519 11.7023 13.8247 11.3319 13.2898 11.2259L11.9606 10.9626L13.4659 9.136Z" fill="#141B34"/>
</svg>
