<svg width="24" height="24" viewBox="0 0 24 24" fill="none" xmlns="http://www.w3.org/2000/svg">
<path opacity="0.4" fill-rule="evenodd" clip-rule="evenodd" d="M1.44541 13.6678C1.90493 13.3615 2.5258 13.4856 2.83216 13.9452C3.19027 14.4823 3.75438 14.8766 4.38472 15.1393C5.01839 15.4033 5.63801 15.4999 6.00011 15.4999C6.55239 15.4999 7.00011 15.9476 7.00011 16.4999C7.00011 17.0521 6.55239 17.4999 6.00011 17.4999C5.36221 17.4999 4.48182 17.3464 3.61549 16.9854C2.74583 16.6231 1.80994 16.0174 1.16806 15.0546C0.861704 14.595 0.985877 13.9742 1.44541 13.6678ZM22.5548 13.6678C23.0143 13.9742 23.1385 14.595 22.8322 15.0546C22.1903 16.0174 21.2544 16.6231 20.3847 16.9854C19.5184 17.3464 18.638 17.4999 18.0001 17.4999C17.4478 17.4999 17.0001 17.0521 17.0001 16.4999C17.0001 15.9476 17.4478 15.4999 18.0001 15.4999C18.3622 15.4999 18.9818 15.4033 19.6155 15.1393C20.2458 14.8766 20.8099 14.4823 21.1681 13.9452C21.4744 13.4856 22.0953 13.3615 22.5548 13.6678Z" fill="#141B34"/>
<path opacity="0.4" fill-rule="evenodd" clip-rule="evenodd" d="M9.18404 7.55147C9.70799 7.37682 10.2743 7.65998 10.449 8.18392L10.949 9.68392C11.1236 10.2079 10.8404 10.7742 10.3165 10.9488C9.79256 11.1235 9.22624 10.8403 9.05159 10.3164L8.55159 8.81638C8.37694 8.29243 8.6601 7.72611 9.18404 7.55147ZM14.8165 7.55147C15.3404 7.72611 15.6236 8.29243 15.449 8.81638L14.949 10.3164C14.7743 10.8403 14.208 11.1235 13.684 10.9488C13.1601 10.7742 12.8769 10.2079 13.0516 9.68392L13.5516 8.18392C13.7262 7.65998 14.2926 7.37682 14.8165 7.55147Z" fill="#141B34"/>
<path fill-rule="evenodd" clip-rule="evenodd" d="M18.778 4.07063C18.1887 4.00096 17.5798 3.99988 17 3.99988C16.4477 3.99988 16 3.55216 16 2.99988C16 2.44759 16.4477 1.99988 17 1.99988L17.0208 1.99988C17.5813 1.99987 18.2972 1.99985 19.0128 2.08447C19.7327 2.16958 20.5343 2.3482 21.2355 2.75776C21.9666 3.18482 22.5649 3.85159 22.8391 4.82619C23.0902 5.7189 23.0459 6.78579 22.7174 8.04208L22.7843 8.5763C23.0079 10.3618 22.2429 12.1226 20.7909 13.1944L18.6099 14.8044C18.1656 15.1324 17.5395 15.0381 17.2115 14.5938C16.8835 14.1494 16.9778 13.5233 17.4221 13.1953L19.6031 11.5854C20.4112 10.9889 20.8584 10.0477 20.8204 9.07552C20.3354 9.10725 19.7861 9.09558 19.2693 8.94527C18.7583 8.79662 18.2608 8.51385 17.8534 8.02977C17.4537 7.55492 17.1869 6.94141 17.036 6.19901C16.9261 5.65779 17.2756 5.12988 17.8169 5.01991C18.3581 4.90993 18.886 5.25952 18.996 5.80075C19.0991 6.30835 19.2531 6.58694 19.3836 6.74195C19.5062 6.88772 19.648 6.97254 19.8279 7.02487C20.1262 7.11162 20.4691 7.10368 20.8922 7.06048C21.0476 6.27505 21.0169 5.73422 20.9138 5.36776C20.7947 4.9443 20.5593 4.67902 20.2267 4.48472C19.8641 4.27292 19.3719 4.14086 18.778 4.07063Z" fill="#141B34"/>
<path fill-rule="evenodd" clip-rule="evenodd" d="M6.97921 1.99988L7.00003 1.99988C7.55231 1.99988 8.00003 2.44759 8.00003 2.99988C8.00003 3.55216 7.55231 3.99988 7.00003 3.99988C6.42025 3.99988 5.81129 4.00096 5.22206 4.07063C4.62813 4.14086 4.13591 4.27292 3.77332 4.48472C3.44068 4.67902 3.20537 4.9443 3.08625 5.36776C2.98317 5.73422 2.95238 6.27505 3.10778 7.06048C3.53093 7.10368 3.87385 7.11162 4.1721 7.02487C4.35198 6.97254 4.49378 6.88772 4.61646 6.74195C4.74691 6.58694 4.90091 6.30835 5.00405 5.80075C5.11403 5.25952 5.64193 4.90993 6.18316 5.01991C6.72438 5.12988 7.07398 5.65779 6.964 6.19901C6.81314 6.94141 6.54629 7.55492 6.14667 8.02977C5.73927 8.51385 5.24175 8.79662 4.7307 8.94527C4.21395 9.09558 3.66461 9.10725 3.17965 9.07552C3.14168 10.0477 3.58887 10.9889 4.39695 11.5854L6.57793 13.1953C7.02226 13.5233 7.11657 14.1494 6.78856 14.5938C6.46056 15.0381 5.83446 15.1324 5.39013 14.8044L3.20914 13.1944C1.75709 12.1226 0.992108 10.3618 1.21572 8.5763L1.28262 8.04208C0.954138 6.78579 0.909861 5.7189 1.16098 4.82619C1.43513 3.85159 2.03344 3.18482 2.76456 2.75776C3.46572 2.3482 4.26737 2.16958 4.98722 2.08447C5.70287 1.99985 6.41868 1.99987 6.97921 1.99988Z" fill="#141B34"/>
<path d="M7.28922 10.7189C8.54092 9.71892 10.2207 9.24988 12 9.24988C13.7793 9.24988 15.4591 9.71892 16.7108 10.7189C17.9833 11.7356 18.75 13.253 18.75 15.1894C18.75 16.6185 17.9306 17.8669 16.9988 18.838C16.0528 19.8239 14.887 20.6328 13.9727 21.1906C12.7505 21.9363 11.2495 21.9363 10.0273 21.1906C9.11297 20.6328 7.94718 19.8239 7.00119 18.838C6.06937 17.8669 5.25 16.6185 5.25 15.1894C5.25 13.253 6.01669 11.7356 7.28922 10.7189Z" fill="#141B34"/>
<path fill-rule="evenodd" clip-rule="evenodd" d="M7.93756 17.9999C7.95862 17.9999 7.9795 17.9999 8.00019 17.9999C8.55247 17.9999 9.00019 18.4476 9.00019 18.9999C9.00019 19.5522 8.55247 19.9999 8.00019 19.9999C7.24054 19.9999 6.69519 20.0102 6.20808 20.1888C5.78183 20.3451 5.32235 20.6643 4.87808 21.4788C4.61362 21.9636 4.00619 22.1423 3.52134 21.8778C3.03649 21.6133 2.85783 21.0059 3.12229 20.5211C3.76894 19.3355 4.58219 18.6547 5.51957 18.311C6.37 17.9992 7.25118 17.9996 7.93756 17.9999ZM17.7923 20.1888C17.3052 20.0102 16.7598 19.9999 16.0002 19.9999C15.4479 19.9999 15.0002 19.5522 15.0002 18.9999C15.0002 18.4476 15.4479 17.9999 16.0002 17.9999C16.0209 17.9999 16.0418 17.9999 16.0628 17.9999C16.7492 17.9996 17.6304 17.9992 18.4808 18.311C19.4182 18.6547 20.2314 19.3355 20.8781 20.5211C21.1425 21.0059 20.9639 21.6133 20.479 21.8778C19.9942 22.1423 19.3868 21.9636 19.1223 21.4788C18.678 20.6643 18.2186 20.3451 17.7923 20.1888Z" fill="#141B34"/>
</svg>
