<svg width="24" height="24" viewBox="0 0 24 24" fill="none" xmlns="http://www.w3.org/2000/svg">
<path fill-rule="evenodd" clip-rule="evenodd" d="M18.8073 3.82248C18.2012 3.75081 17.5777 3.75 17 3.75V2.25L17.0161 2.25C17.5791 2.24999 18.2825 2.24998 18.9835 2.33286C19.6876 2.41611 20.4505 2.58891 21.1094 2.97375C21.7907 3.37172 22.3436 3.9883 22.5984 4.89401C22.8364 5.74015 22.7963 6.77418 22.4633 8.02524L22.5362 8.60749C22.7485 10.3022 22.0226 11.9746 20.6424 12.9934L18.4614 14.6034L17.5706 13.3966L19.7516 11.7866C20.6975 11.0884 21.1884 9.95155 21.0494 8.80588C20.5248 8.85669 19.9094 8.87122 19.3392 8.70535C18.8695 8.56874 18.4164 8.31071 18.0446 7.86891C17.6787 7.43405 17.4259 6.8624 17.281 6.14935L18.751 5.85065C18.8601 6.3876 19.0282 6.70806 19.1923 6.90305C19.3506 7.09111 19.5368 7.20068 19.7581 7.26504C20.1428 7.37694 20.5855 7.34956 21.0995 7.28969C21.3017 6.38203 21.2794 5.74457 21.1544 5.30019C21.0159 4.80783 20.7352 4.49237 20.3528 4.26897C19.9479 4.03245 19.417 3.89457 18.8073 3.82248Z" fill="#141B34"/>
<path fill-rule="evenodd" clip-rule="evenodd" d="M6.98388 2.25L7.00002 2.25V3.75C6.42227 3.75 5.79884 3.75081 5.1927 3.82248C4.58303 3.89457 4.05213 4.03245 3.64722 4.26897C3.26477 4.49237 2.98409 4.80783 2.84559 5.30019C2.72059 5.74457 2.6983 6.38203 2.90054 7.28969C3.41457 7.34956 3.8572 7.37694 4.24192 7.26504C4.46319 7.20068 4.64946 7.09111 4.80773 6.90305C4.97183 6.70806 5.13993 6.3876 5.24904 5.85065L6.719 6.14935C6.57411 6.8624 6.32136 7.43405 5.95538 7.86891C5.58357 8.31071 5.13052 8.56874 4.66087 8.70535C4.09059 8.87122 3.47526 8.85669 2.95067 8.80588C2.81159 9.95155 3.30253 11.0884 4.24846 11.7866L6.42944 13.3966L5.53859 14.6034L3.35761 12.9934C1.97739 11.9746 1.25154 10.3022 1.46377 8.60749L1.53669 8.02524C1.20373 6.77418 1.16361 5.74015 1.40163 4.89401C1.6564 3.9883 2.20934 3.37172 2.89065 2.97375C3.54948 2.58891 4.31246 2.41611 5.01657 2.33286C5.71748 2.24998 6.42096 2.24999 6.98388 2.25Z" fill="#141B34"/>
<path d="M7.28922 10.7191C8.54092 9.71904 10.2207 9.25 12 9.25C13.7793 9.25 15.4591 9.71904 16.7108 10.7191C17.9833 11.7357 18.75 13.2531 18.75 15.1895C18.75 15.989 18.3838 16.7266 17.9133 17.3563C17.4373 17.9933 16.8012 18.5914 16.1378 19.1271C14.9431 20.0919 13.5657 20.9272 12.6668 21.4724L12.6668 21.4724L12.6662 21.4728C12.5684 21.5321 12.4762 21.588 12.3906 21.6402C12.1508 21.7866 11.8492 21.7866 11.6094 21.6402C11.5236 21.5879 11.4312 21.5319 11.3332 21.4724C10.4343 20.9273 9.05693 20.0919 7.86218 19.1271C7.19883 18.5914 6.56266 17.9933 6.08671 17.3563C5.61623 16.7266 5.25 15.989 5.25 15.1895C5.25 13.2531 6.01669 11.7357 7.28922 10.7191Z" fill="#141B34"/>
<path fill-rule="evenodd" clip-rule="evenodd" d="M8.972 18.25L9.00022 18.25V19.75C8.26139 19.75 7.38048 19.7538 6.5582 19.9744C5.75561 20.1897 5.07626 20.5935 4.65864 21.3591L3.3418 20.6409C4.01508 19.4065 5.10846 18.8103 6.16951 18.5256C7.19727 18.2499 8.25647 18.25 8.972 18.25ZM17.4422 19.9744C16.62 19.7538 15.739 19.75 15.0002 19.75V18.25L15.0284 18.25C15.744 18.25 16.8032 18.2499 17.8309 18.5256C18.892 18.8103 19.9854 19.4065 20.6586 20.6409L19.3418 21.3591C18.9242 20.5935 18.2448 20.1897 17.4422 19.9744Z" fill="#141B34"/>
<path fill-rule="evenodd" clip-rule="evenodd" d="M4.28848 15.3702C4.95123 15.6463 5.60344 15.75 6.00001 15.75V17.25C5.39659 17.25 4.5488 17.1037 3.71155 16.7548C2.87181 16.4049 1.98239 15.8257 1.37598 14.916L2.62405 14.084C3.01764 14.6744 3.62822 15.0951 4.28848 15.3702ZM20.2885 16.7548C19.4512 17.1037 18.6034 17.25 18 17.25V15.75C18.3966 15.75 19.0488 15.6463 19.7116 15.3702C20.3718 15.0951 20.9824 14.6744 21.376 14.084L22.6241 14.916C22.0176 15.8257 21.1282 16.4049 20.2885 16.7548Z" fill="#141B34"/>
<path fill-rule="evenodd" clip-rule="evenodd" d="M9.67074 7.66455L10.6707 9.66455L9.3291 10.3354L8.3291 8.33537L9.67074 7.66455ZM15.6707 8.33537L14.6707 10.3354L13.3291 9.66455L14.3291 7.66455L15.6707 8.33537Z" fill="#141B34"/>
</svg>
