<svg width="24" height="24" viewBox="0 0 24 24" fill="none" xmlns="http://www.w3.org/2000/svg">
<path opacity="0.4" d="M15.251 15.7529H5.25098C3.59412 15.7529 2.25098 17.0961 2.25098 18.7529C2.25098 20.4098 3.59412 21.7529 5.25098 21.7529H15.251C16.9078 21.7529 18.251 20.4098 18.251 18.7529C18.251 17.0961 16.9078 15.7529 15.251 15.7529Z" fill="#141B34"/>
<path d="M15.251 15.7529H5.25098C3.59412 15.7529 2.25098 17.0961 2.25098 18.7529C2.25098 20.4098 3.59412 21.7529 5.25098 21.7529H15.251C16.9078 21.7529 18.251 20.4098 18.251 18.7529C18.251 17.0961 16.9078 15.7529 15.251 15.7529Z" stroke="#141B34" stroke-width="1.5"/>
<path d="M10.2465 18.7529H10.2555M6.25098 18.7529H6.25995M14.242 18.7529H14.251" stroke="#141B34" stroke-width="2" stroke-linecap="round" stroke-linejoin="round"/>
<path d="M13.0769 6.36613L11.4072 4.81972C10.8388 4.29319 10.5546 4.02993 10.2025 3.89195C9.85041 3.75397 9.02706 3.75397 8.2521 3.75397H8.25601C6.36986 3.75397 5.42678 3.75397 4.84082 4.33976C4.25488 4.92554 4.25488 5.86835 4.25488 7.75397V8.75397C4.25488 10.6395 4.25488 11.5823 4.84082 12.1681C5.42678 12.7539 6.36986 12.7539 8.25601 12.7539H10.5719C12.1534 12.7539 12.9443 12.7539 13.4863 12.3319C13.6167 12.2304 13.7341 12.1131 13.8356 11.9827C14.2577 11.4408 14.2577 10.6502 14.2577 9.06916C14.2577 8.34501 14.1539 7.74522 14.0348 7.41569C13.8739 7.10435 13.6082 6.85828 13.0769 6.36613ZM13.0769 6.36613C13.0769 6.36613 16.1185 2.99397 16.5746 2.57397C17.08 2.16975 17.3548 1.75197 19.0953 1.75797C19.4263 1.75138 19.8155 1.75197 20.2596 1.75197M20.2596 5.24997V5.75397M20.2116 11.2499V11.6939C20.2116 11.7875 20.2356 11.7419 20.2356 11.7419C20.3575 11.7468 20.7158 11.8379 20.7158 11.8379C20.7158 11.8379 21.8081 12.1739 21.748 13.3739C21.715 14.0339 21.1922 14.5772 20.5597 14.7179C19.8617 14.8732 19.0353 14.5139 18.7592 13.7579M20.2596 8.25597V8.75397" stroke="#141B34" stroke-width="1.5" stroke-linecap="round"/>
</svg>
