<svg width="24" height="24" viewBox="0 0 24 24" fill="none" xmlns="http://www.w3.org/2000/svg">
<path opacity="0.4" d="M4.88494 20.481C6.42817 21.7519 8.06123 21.7509 9.67577 21.7499C9.67577 21.7499 11.6373 21.7345 11.8793 21.6993C12.6654 21.585 13.5913 21.2579 14.1677 20.3162C14.6196 19.5781 14.7169 18.7966 14.6854 18.0853C14.658 17.4666 14.5271 16.8311 14.4147 16.2855C14.1513 14.9919 14.0433 14.0311 14.5295 13.3851C14.6487 13.2268 14.8297 13.0671 15.2105 12.8538C15.6072 12.6316 16.1394 12.3939 16.9323 12.0416L22.2807 9.66469C22.7854 9.44037 23.0129 8.84903 22.7887 8.34389C22.5646 7.83875 21.9737 7.61111 21.4689 7.83543L21.084 8.0065C19.3756 4.56734 15.7765 2.25 11.6318 2.25C5.84337 2.25 1.125 6.85609 1.125 12.5697C1.125 15.75 2.59016 18.5912 4.88494 20.481Z" fill="#141B34"/>
<path fill-rule="evenodd" clip-rule="evenodd" d="M15.0806 12.9291C15.1211 12.9047 15.1644 12.8797 15.2105 12.8538C15.6017 12.6347 16.1247 12.4006 16.8993 12.0563C16.9015 12.0705 16.9034 12.0848 16.905 12.0992L17.2858 15.5342C17.322 15.5309 17.3584 15.527 17.3948 15.5223L21.5522 14.9914C22.0739 14.9247 22.5508 15.2946 22.6173 15.8176C22.6838 16.3405 22.3147 16.8185 21.793 16.8851L21.1964 16.9613V19.8409H21.6726C22.1985 19.8409 22.6249 20.2683 22.6249 20.7955C22.6249 21.3227 22.1985 21.75 21.6726 21.75L20.2621 21.75C19.5011 21.7501 18.8412 21.7501 18.307 21.6814C17.7323 21.6076 17.1802 21.4418 16.7102 21.0202C16.2402 20.5985 16.0149 20.0669 15.8781 19.5025C15.7511 18.9779 15.6782 18.3206 15.5942 17.5625L15.5878 17.5044L15.5561 17.2182C15.1841 17.096 14.8299 16.9283 14.5025 16.7198C14.4734 16.5703 14.4435 16.425 14.4148 16.2855C14.1807 15.1361 14.0693 14.2494 14.3886 13.6128C14.4239 13.6705 14.4537 13.7328 14.4769 13.7994C14.6363 14.2577 14.9278 14.6535 15.3048 14.9519L15.0806 12.9291ZM17.7291 19.0521C17.6396 18.6827 17.5802 18.1864 17.4962 17.4318C17.5426 17.4273 17.5891 17.422 17.6355 17.4161L19.2917 17.2046V19.8341C18.9936 19.8274 18.7534 19.8141 18.5492 19.7879C18.1775 19.7401 18.0529 19.6626 17.9805 19.5977C17.9081 19.5327 17.8175 19.4172 17.7291 19.0521Z" fill="#141B34"/>
<path fill-rule="evenodd" clip-rule="evenodd" d="M11.1328 17.0108C11.1328 17.7016 10.5752 18.2617 9.88729 18.2617L9.87834 18.2617C9.19045 18.2617 8.63281 17.7016 8.63281 17.0108C8.63281 16.3199 9.19045 15.7598 9.87834 15.7598L9.88729 15.7598C10.5752 15.7598 11.1328 16.3199 11.1328 17.0108Z" fill="#141B34"/>
</svg>
