<svg width="24" height="24" viewBox="0 0 24 24" fill="none" xmlns="http://www.w3.org/2000/svg">
<path fill-rule="evenodd" clip-rule="evenodd" d="M11.75 15C11.75 14.0335 12.5335 13.25 13.5 13.25H15.5C15.9142 13.25 16.25 13.5858 16.25 14C16.25 14.4142 15.9142 14.75 15.5 14.75H13.5C13.3619 14.75 13.25 14.8619 13.25 15V15.5C13.25 15.6381 13.3619 15.75 13.5 15.75H14.5C15.4665 15.75 16.25 16.5335 16.25 17.5V18C16.25 18.9665 15.4665 19.75 14.5 19.75H12.5C12.0858 19.75 11.75 19.4142 11.75 19C11.75 18.5858 12.0858 18.25 12.5 18.25H14.5C14.6381 18.25 14.75 18.1381 14.75 18V17.5C14.75 17.3619 14.6381 17.25 14.5 17.25H13.5C12.5335 17.25 11.75 16.4665 11.75 15.5V15Z" fill="#141B34"/>
<path fill-rule="evenodd" clip-rule="evenodd" d="M17.25 15C17.25 14.0335 18.0335 13.25 19 13.25H21C21.4142 13.25 21.75 13.5858 21.75 14C21.75 14.4142 21.4142 14.75 21 14.75H19C18.8619 14.75 18.75 14.8619 18.75 15V15.5C18.75 15.6381 18.8619 15.75 19 15.75H20C20.9665 15.75 21.75 16.5335 21.75 17.5V18C21.75 18.9665 20.9665 19.75 20 19.75H18C17.5858 19.75 17.25 19.4142 17.25 19C17.25 18.5858 17.5858 18.25 18 18.25H20C20.1381 18.25 20.25 18.1381 20.25 18V17.5C20.25 17.3619 20.1381 17.25 20 17.25H19C18.0335 17.25 17.25 16.4665 17.25 15.5V15Z" fill="#141B34"/>
<path fill-rule="evenodd" clip-rule="evenodd" d="M8.75946 14.7666C8.58159 14.7518 8.383 14.75 8.15122 14.75C7.81723 14.75 7.60535 14.771 7.4688 14.8034C7.38499 14.8233 7.35074 14.8425 7.34065 14.8495C7.33426 14.8591 7.31367 14.8969 7.29397 14.9944C7.2651 15.1373 7.25 15.3466 7.25 15.6667V17.3333C7.25 17.6534 7.2651 17.8627 7.29397 18.0056C7.31367 18.1031 7.33426 18.1409 7.34065 18.1505C7.35074 18.1576 7.38499 18.1768 7.4688 18.1966C7.60535 18.229 7.81723 18.25 8.15122 18.25C8.38271 18.25 8.58123 18.2481 8.75889 18.2332C8.93809 18.2182 9.05804 18.1924 9.13609 18.1627C9.17241 18.1488 9.19271 18.1366 9.20285 18.1294C9.21191 18.123 9.21462 18.1193 9.21573 18.1178C9.21684 18.1163 9.22313 18.1076 9.23043 18.0846C9.23813 18.0603 9.24779 18.0173 9.25096 17.9484C9.27 17.5346 9.62087 17.2146 10.0346 17.2336C10.4484 17.2527 10.7684 17.6035 10.7494 18.0173C10.7328 18.3781 10.6357 18.7169 10.4269 19.0027C10.2181 19.2884 9.9419 19.4607 9.67066 19.5642C9.18314 19.7501 8.59457 19.7501 8.17155 19.75L8.15122 19.75C7.4644 19.75 6.72927 19.6901 6.24817 19.1787C6.00271 18.9177 5.88458 18.6041 5.82368 18.3027C5.76425 18.0085 5.75 17.6775 5.75 17.3333V15.6667C5.75 15.3226 5.76425 14.9915 5.82368 14.6974C5.88458 14.3959 6.00271 14.0823 6.24817 13.8213C6.72927 13.3099 7.4644 13.25 8.15122 13.25C8.15892 13.25 8.16667 13.25 8.17448 13.25C8.59666 13.2499 9.1837 13.2498 9.66989 13.4347C9.94116 13.5378 10.2177 13.7098 10.4267 13.9955C10.6357 14.2813 10.7328 14.6202 10.7494 14.981C10.7684 15.3948 10.4484 15.7456 10.0346 15.7647C9.62087 15.7837 9.27 15.4637 9.25096 15.0499C9.24779 14.981 9.23813 14.938 9.23047 14.9139C9.22319 14.891 9.21697 14.8824 9.21597 14.8811C9.21498 14.8797 9.21238 14.8762 9.20343 14.8698C9.19339 14.8627 9.17316 14.8506 9.13687 14.8368C9.05882 14.8071 8.93884 14.7815 8.75946 14.7666ZM7.33721 18.1477C7.33731 18.1477 7.33827 18.1484 7.33983 18.15C7.3379 18.1486 7.33712 18.1478 7.33721 18.1477ZM7.34132 18.1515C7.34226 18.1526 7.34268 18.1532 7.34266 18.1532C7.34264 18.1533 7.34217 18.1528 7.34132 18.1515ZM7.34266 14.8468C7.34268 14.8468 7.34226 14.8474 7.34132 14.8485C7.34217 14.8473 7.34264 14.8467 7.34266 14.8468ZM7.33983 14.85C7.33827 14.8516 7.33731 14.8523 7.33721 14.8523C7.33712 14.8522 7.3379 14.8514 7.33983 14.85Z" fill="#141B34"/>
<path fill-rule="evenodd" clip-rule="evenodd" d="M10.5874 1.2501C11.1574 1.24934 11.6619 1.24866 12.1373 1.41733C12.2353 1.45209 12.3314 1.49208 12.4251 1.53715C12.8799 1.75582 13.2362 2.11489 13.6387 2.52054L18.4215 7.32819C18.8889 7.79654 19.3036 8.2122 19.5277 8.75596C19.7518 9.29971 19.7509 9.88846 19.7499 10.5518L19.7498 12L8.15103 12C7.49496 12 6.22622 12.0203 5.33769 12.9649C4.87932 13.4522 4.68716 14.0106 4.59843 14.4498C4.51359 14.8698 4.5 15.3019 4.5 15.6667V17.3333C4.5 17.6981 4.51359 18.1303 4.59843 18.5502C4.68716 18.9894 4.87932 19.5478 5.33769 20.0351C6.22625 20.9797 7.49517 21 8.15122 21L18.6104 21C18.5229 21.1097 18.4282 21.216 18.326 21.3188C17.5457 22.1031 16.5633 22.4405 15.3965 22.5982C14.2727 22.75 12.8438 22.75 11.071 22.75C9.29819 22.75 7.72705 22.75 6.60322 22.5982C5.43643 22.4405 4.45402 22.1031 3.67377 21.3188C2.89352 20.5345 2.55792 19.547 2.40105 18.3741C2.24996 17.2445 2.24998 15.8082 2.25 14.0262V9.45263C2.24998 7.91898 2.24997 6.68239 2.36424 5.69856C2.48248 4.6806 2.73418 3.80839 3.32681 3.06954C3.54435 2.79833 3.79012 2.55128 4.05992 2.33261C4.79495 1.7369 5.66265 1.48389 6.67534 1.36504C7.6541 1.25017 9.0617 1.25008 10.5874 1.2501ZM17.7314 9.50391C17.6746 9.36608 17.5692 9.2357 16.9511 8.6144L12.3462 3.98554C11.8133 3.44983 11.6719 3.31641 11.4902 3.26172V3.2701C11.4902 4.63195 11.4902 5.27967 11.6065 6.14486C11.7275 7.04497 11.9864 7.80284 12.5884 8.40476C13.1903 9.00667 13.9481 9.26557 14.8483 9.38658C15.7152 9.50314 16.3638 9.50393 17.7314 9.50391Z" fill="#141B34"/>
</svg>
