<svg width="24" height="24" viewBox="0 0 24 24" fill="none" xmlns="http://www.w3.org/2000/svg">
<path fill-rule="evenodd" clip-rule="evenodd" d="M5.19144 22.75C3.58211 22.75 2.27678 21.4403 2.27427 19.823L2.25 4.18619C2.24749 2.56532 3.55429 1.25 5.16717 1.25H11.9695C12.2271 1.25 12.4741 1.35268 12.6564 1.53551L19.4645 8.36329C19.6473 8.5466 19.75 8.79546 19.75 9.05498V12H7.5C5.84315 12 4.5 13.3431 4.5 15V18C4.5 19.6569 5.84315 21 7.5 21H19.5033C19.0512 22.0306 18.0256 22.75 16.8328 22.75H5.19144ZM17.8043 9.46094L11.5673 3.20594V7.96094C11.5673 8.78936 12.2389 9.46094 13.0673 9.46094H17.8043ZM7.5 13.25C6.5335 13.25 5.75 14.0335 5.75 15V18C5.75 18.9665 6.5335 19.75 7.5 19.75H9C9.9665 19.75 10.75 18.9665 10.75 18C10.75 17.5858 10.4142 17.25 10 17.25C9.58579 17.25 9.25 17.5858 9.25 18C9.25 18.1381 9.13807 18.25 9 18.25H7.5C7.36193 18.25 7.25 18.1381 7.25 18V15C7.25 14.8619 7.36193 14.75 7.5 14.75H9C9.13807 14.75 9.25 14.8619 9.25 15C9.25 15.4142 9.58579 15.75 10 15.75C10.4142 15.75 10.75 15.4142 10.75 15C10.75 14.0335 9.9665 13.25 9 13.25H7.5ZM13.5 13.25C12.5335 13.25 11.75 14.0335 11.75 15V15.5C11.75 16.4665 12.5335 17.25 13.5 17.25H14.5C14.6381 17.25 14.75 17.3619 14.75 17.5V18C14.75 18.1381 14.6381 18.25 14.5 18.25H12.5C12.0858 18.25 11.75 18.5858 11.75 19C11.75 19.4142 12.0858 19.75 12.5 19.75H14.5C15.4665 19.75 16.25 18.9665 16.25 18V17.5C16.25 16.5335 15.4665 15.75 14.5 15.75H13.5C13.3619 15.75 13.25 15.6381 13.25 15.5V15C13.25 14.8619 13.3619 14.75 13.5 14.75H15.5C15.9142 14.75 16.25 14.4142 16.25 14C16.25 13.5858 15.9142 13.25 15.5 13.25H13.5ZM19 13.25C18.0335 13.25 17.25 14.0335 17.25 15V15.5C17.25 16.4665 18.0335 17.25 19 17.25H20C20.1381 17.25 20.25 17.3619 20.25 17.5V18C20.25 18.1381 20.1381 18.25 20 18.25H18C17.5858 18.25 17.25 18.5858 17.25 19C17.25 19.4142 17.5858 19.75 18 19.75H20C20.9665 19.75 21.75 18.9665 21.75 18V17.5C21.75 16.5335 20.9665 15.75 20 15.75H19C18.8619 15.75 18.75 15.6381 18.75 15.5V15C18.75 14.8619 18.8619 14.75 19 14.75H21C21.4142 14.75 21.75 14.4142 21.75 14C21.75 13.5858 21.4142 13.25 21 13.25H19Z" fill="#141B34"/>
</svg>
