<svg width="24" height="24" viewBox="0 0 24 24" fill="none" xmlns="http://www.w3.org/2000/svg">
<path d="M20.5 2H21.25C21.25 1.58579 20.9142 1.25 20.5 1.25V2ZM10.5 2V1.25H10.1893L9.96967 1.46967L10.5 2ZM3.5 9L2.96967 8.46967L2.75 8.68934V9H3.5ZM10.5 9V9.75H11.25V9H10.5ZM19.75 2V13H21.25V2H19.75ZM20.5 1.25L10.5 1.25V2.75L20.5 2.75V1.25ZM2.75 9V13H4.25V9H2.75ZM9.96967 1.46967L2.96967 8.46967L4.03033 9.53033L11.0303 2.53033L9.96967 1.46967ZM9.75 2L9.75 9H11.25L11.25 2L9.75 2ZM10.5 8.25L3.5 8.25L3.5 9.75L10.5 9.75V8.25Z" fill="#141B34"/>
<path d="M3.5 22H2.75V22.75H3.5V22ZM3.5 16V15.25H2.75V16H3.5ZM10.1758 16V15.25C9.76162 15.25 9.42584 15.5858 9.42584 16H10.1758ZM13.2143 22V22.75C13.6285 22.75 13.9643 22.4142 13.9643 22H13.2143ZM13.2143 19H13.9643C13.9643 18.5858 13.6285 18.25 13.2143 18.25V19ZM7.5 22V22.75C7.91421 22.75 8.25 22.4142 8.25 22H7.5ZM7.5 16H8.25C8.25 15.5858 7.91421 15.25 7.5 15.25V16ZM10.1758 19H9.42584C9.42584 19.4142 9.76162 19.75 10.1758 19.75V19ZM18.25 22L17.5413 22.2453C17.6458 22.5474 17.9303 22.75 18.25 22.75C18.5697 22.75 18.8542 22.5474 18.9587 22.2453L18.25 22ZM4.25 22V16H2.75V22H4.25ZM14 15.25H10.1758V16.75H14V15.25ZM13.2143 21.25H9.5V22.75H13.2143V21.25ZM3.5 22.75H7.5V21.25H3.5V22.75ZM8.25 22V20.5H6.75V22H8.25ZM3.5 16.75H7.5V15.25H3.5V16.75ZM6.75 16V17.5H8.25V16H6.75ZM10.1758 19.75H13.2143V18.25H10.1758V19.75ZM13.9643 22V19H12.4643V22H13.9643ZM10.9258 19V16H9.42584V19H10.9258ZM15.2913 15.7453L17.5413 22.2453L18.9587 21.7547L16.7087 15.2547L15.2913 15.7453ZM18.9587 22.2453L21.2087 15.7453L19.7913 15.2547L17.5413 21.7547L18.9587 22.2453Z" fill="#141B34"/>
</svg>
