<svg width="24" height="24" viewBox="0 0 24 24" fill="none" xmlns="http://www.w3.org/2000/svg">
<path d="M11.25 1.25H12C14.3817 1.25 16.354 3.0029 16.6971 5.28897C17.6796 5.40047 18.5905 5.75135 19.3065 6.3437C20.2037 7.08599 20.75 8.17341 20.75 9.5C20.75 11.5291 18.7963 13.2056 16.1471 13.7354C15.4578 13.8294 13.3466 14.1188 12.343 14.2442C10.3607 14.492 8.05734 14.75 7 14.75C5.82262 14.75 4.86079 14.3487 4.19832 13.6294C3.54516 12.9202 3.25 11.9751 3.25 11C3.25 10.0913 3.57419 9.14233 4.09522 8.38325C4.52774 7.75312 5.14157 7.19096 5.89599 6.92549C6.27673 5.94038 7.00819 5.3905 7.72868 5.04836C8.12544 4.85995 8.53216 4.72759 8.86728 4.61952C9.22693 4.50354 9.4774 4.42277 9.66459 4.32918C10.4682 3.92739 10.8572 3.33749 11.0536 2.84646C11.1534 2.59702 11.2031 2.37274 11.2275 2.21408C11.2396 2.13524 11.2453 2.07417 11.2479 2.03629L11.25 1.25Z" fill="#141B34"/>
<path d="M5.86328 16.1465L6.85378 22.7499H17.1456L18.3678 14.6018C17.7495 14.8723 17.0968 15.0751 16.441 15.2063L16.3955 15.2154L16.1369 15.2507C15.3001 15.3649 13.4536 15.617 12.5288 15.7326C10.5814 15.976 8.17169 16.25 6.99974 16.25C6.61012 16.25 6.22991 16.2155 5.86328 16.1465Z" fill="#141B34"/>
</svg>
