<svg width="24" height="24" viewBox="0 0 24 24" fill="none" xmlns="http://www.w3.org/2000/svg">
<path fill-rule="evenodd" clip-rule="evenodd" d="M2.25 3C2.25 2.58579 2.58579 2.25 3 2.25H21C21.4142 2.25 21.75 2.58579 21.75 3V21C21.75 21.4142 21.4142 21.75 21 21.75H3C2.58579 21.75 2.25 21.4142 2.25 21V3ZM12.9967 12.4362C12.6877 12.316 12.3516 12.25 12 12.25C10.4812 12.25 9.25 13.4812 9.25 15C9.25 16.5188 10.4812 17.75 12 17.75C13.5188 17.75 14.75 16.5188 14.75 15C14.75 14.3782 14.5436 13.8046 14.1956 13.3439L17.5644 9.49386L16.4356 8.5061L12.9967 12.4362ZM12 13.75C11.3096 13.75 10.75 14.3096 10.75 15C10.75 15.6903 11.3096 16.25 12 16.25C12.6904 16.25 13.25 15.6903 13.25 15C13.25 14.3096 12.6904 13.75 12 13.75ZM6.75 12C6.75 9.1005 9.1005 6.75 12 6.75C12.9575 6.75 13.853 7.00564 14.6245 7.4519L15.3755 6.15349C14.3819 5.57872 13.2282 5.25 12 5.25C8.27208 5.25 5.25 8.27208 5.25 12H6.75Z" fill="#141B34"/>
</svg>
