<svg width="24" height="24" viewBox="0 0 24 24" fill="none" xmlns="http://www.w3.org/2000/svg">
<path fill-rule="evenodd" clip-rule="evenodd" d="M17.25 2.25C17.7732 2.25 18.1974 2.67415 18.1974 3.19737V5.80263H20.8026C21.3258 5.80263 21.75 6.22678 21.75 6.75C21.75 7.27322 21.3258 7.69737 20.8026 7.69737H18.1974V10.3026C18.1974 10.8258 17.7732 11.25 17.25 11.25C16.7268 11.25 16.3026 10.8258 16.3026 10.3026V7.69737H13.6974C13.1742 7.69737 12.75 7.27322 12.75 6.75C12.75 6.22678 13.1742 5.80263 13.6974 5.80263H16.3026V3.19737C16.3026 2.67415 16.7268 2.25 17.25 2.25Z" fill="#141B34"/>
<path d="M17.2761 12.75C17.8364 12.75 18.2946 12.75 18.6689 12.7755C19.0558 12.8019 19.4074 12.8581 19.7437 12.9974C20.5401 13.3272 21.1728 13.9599 21.5026 14.7563C21.6419 15.0926 21.6981 15.4442 21.7245 15.8311C21.75 16.2054 21.75 16.7158 21.75 17.276V17.2761V17.2761C21.75 17.8364 21.75 18.2947 21.7245 18.6689C21.6981 19.0558 21.6419 19.4074 21.5026 19.7437C21.1728 20.5401 20.5401 21.1728 19.7437 21.5026C19.4074 21.6419 19.0558 21.6981 18.6689 21.7245C18.2947 21.75 17.8364 21.75 17.2761 21.75H17.2761H17.276C16.7158 21.75 16.2054 21.75 15.8311 21.7245C15.4442 21.6981 15.0926 21.6419 14.7563 21.5026C13.9599 21.1728 13.3272 20.5401 12.9974 19.7437C12.8581 19.4074 12.8019 19.0558 12.7755 18.6689C12.75 18.2946 12.75 17.8364 12.75 17.2761V17.2761C12.75 16.7158 12.75 16.2054 12.7755 15.8311C12.8019 15.4442 12.8581 15.0926 12.9974 14.7563C13.3272 13.9599 13.9599 13.3272 14.7563 12.9974C15.0926 12.8581 15.4442 12.8019 15.8311 12.7755C16.2054 12.75 16.7158 12.75 17.2761 12.75H17.2761Z" fill="#141B34"/>
<path d="M6.77608 2.25C7.33637 2.24999 7.79464 2.24999 8.16894 2.27553C8.55577 2.30192 8.90739 2.35808 9.24372 2.49739C10.0401 2.82725 10.6728 3.45994 11.0026 4.25628C11.1419 4.59261 11.1981 4.94423 11.2245 5.33106C11.25 5.70535 11.25 6.21576 11.25 6.77604V6.77607V6.77614C11.25 7.3364 11.25 7.79466 11.2245 8.16894C11.1981 8.55577 11.1419 8.90739 11.0026 9.24372C10.6728 10.0401 10.0401 10.6728 9.24372 11.0026C8.90739 11.1419 8.55577 11.1981 8.16894 11.2245C7.79466 11.25 7.3364 11.25 6.77614 11.25H6.77607H6.77604C6.21576 11.25 5.70535 11.25 5.33106 11.2245C4.94423 11.1981 4.59261 11.1419 4.25628 11.0026C3.45994 10.6728 2.82725 10.0401 2.49739 9.24372C2.35808 8.90739 2.30192 8.55577 2.27553 8.16894C2.24999 7.79464 2.24999 7.33637 2.25 6.77608V6.77607C2.24999 6.21577 2.24999 5.70536 2.27553 5.33106C2.30192 4.94423 2.35808 4.59261 2.49739 4.25628C2.82725 3.45994 3.45994 2.82725 4.25628 2.49739C4.59261 2.35808 4.94423 2.30192 5.33106 2.27553C5.70536 2.24999 6.21577 2.24999 6.77607 2.25H6.77608Z" fill="#141B34"/>
<path d="M6.77608 12.75C7.33637 12.75 7.79464 12.75 8.16894 12.7755C8.55577 12.8019 8.90739 12.8581 9.24372 12.9974C10.0401 13.3272 10.6728 13.9599 11.0026 14.7563C11.1419 15.0926 11.1981 15.4442 11.2245 15.8311C11.25 16.2054 11.25 16.7158 11.25 17.276V17.2761V17.2761C11.25 17.8364 11.25 18.2947 11.2245 18.6689C11.1981 19.0558 11.1419 19.4074 11.0026 19.7437C10.6728 20.5401 10.0401 21.1728 9.24372 21.5026C8.90739 21.6419 8.55577 21.6981 8.16894 21.7245C7.79466 21.75 7.3364 21.75 6.77614 21.75H6.77607H6.77604C6.21576 21.75 5.70535 21.75 5.33106 21.7245C4.94423 21.6981 4.59261 21.6419 4.25628 21.5026C3.45994 21.1728 2.82725 20.5401 2.49739 19.7437C2.35808 19.4074 2.30192 19.0558 2.27553 18.6689C2.24999 18.2946 2.24999 17.8364 2.25 17.2761V17.2761C2.24999 16.7158 2.24999 16.2054 2.27553 15.8311C2.30192 15.4442 2.35808 15.0926 2.49739 14.7563C2.82725 13.9599 3.45994 13.3272 4.25628 12.9974C4.59261 12.8581 4.94423 12.8019 5.33106 12.7755C5.70536 12.75 6.21577 12.75 6.77607 12.75H6.77608Z" fill="#141B34"/>
</svg>
