<svg width="24" height="24" viewBox="0 0 24 24" fill="none" xmlns="http://www.w3.org/2000/svg">
<path fill-rule="evenodd" clip-rule="evenodd" d="M18.2498 2.25V3.65726C18.4159 3.71097 18.5762 3.77767 18.7294 3.85613L19.7247 2.86091L21.1389 4.27513L20.1437 5.27026C20.2223 5.42353 20.289 5.58388 20.3427 5.75009L21.7496 5.74979L21.75 7.74979L20.3428 7.75009C20.2891 7.91629 20.2224 8.07665 20.1439 8.22992L21.1389 9.22487L19.7247 10.6391L18.7298 9.64422C18.5765 9.72276 18.416 9.78952 18.2498 9.84327V11.25H16.2498V9.84327C16.0835 9.78952 15.9231 9.72276 15.7698 9.64422L14.7749 10.6391L13.3607 9.22487L14.3556 8.22992C14.2772 8.07665 14.2104 7.91629 14.1567 7.75009L12.7496 7.74979L12.75 5.74979L14.1568 5.75009C14.2106 5.58388 14.2773 5.42353 14.3558 5.27026L13.3607 4.27513L14.7749 2.86091L15.7701 3.85613C15.9233 3.77766 16.0836 3.71097 16.2498 3.65726V2.25H18.2498ZM17.2498 5.50026C16.9044 5.50026 16.5933 5.63905 16.366 5.86631C16.1386 6.09361 15.9998 6.40477 15.9998 6.75026C15.9998 7.09568 16.1386 7.40678 16.3658 7.63407C16.5931 7.86142 16.9043 8.00026 17.2498 8.00026C17.5953 8.00026 17.9064 7.86142 18.1337 7.63407C18.361 7.40678 18.4998 7.09568 18.4998 6.75026C18.4998 6.40477 18.3609 6.09361 18.1336 5.86631C17.9063 5.63905 17.5952 5.50026 17.2498 5.50026Z" fill="#141B34"/>
<path d="M2.25 2.25H11.25V11.25H2.25V2.25Z" fill="#141B34"/>
<path d="M2.25 12.75H11.25V21.75H2.25V12.75Z" fill="#141B34"/>
<path d="M12.75 12.75H21.75V21.75H12.75V12.75Z" fill="#141B34"/>
</svg>
