<svg width="24" height="24" viewBox="0 0 24 24" fill="none" xmlns="http://www.w3.org/2000/svg">
<path fill-rule="evenodd" clip-rule="evenodd" d="M18.077 15.142C18.7266 15.142 19.3231 15.355 19.8039 15.7144C19.8268 15.7315 19.8504 15.7476 19.8747 15.7626L20.7716 16.3142C21.0635 16.4937 21.4296 16.5013 21.7287 16.3341C22.0278 16.1669 22.2132 15.8511 22.2132 15.5084V13.2901H20.3212V13.8084C19.6519 13.4521 18.8873 13.25 18.077 13.25C15.4479 13.25 13.3088 15.3724 13.3088 18C13.3088 20.6276 15.4479 22.75 18.077 22.75C20.3815 22.75 22.3068 21.121 22.7496 18.9499L20.8958 18.5718C20.6304 19.8733 19.4708 20.858 18.077 20.858C16.4843 20.858 15.2008 19.5742 15.2008 18C15.2008 16.4258 16.4843 15.142 18.077 15.142Z" fill="#141B34"/>
<path fill-rule="evenodd" clip-rule="evenodd" d="M18.4969 11.7639C18.358 11.7547 18.218 11.75 18.077 11.75C16.2725 11.75 14.6409 12.5123 13.4951 13.7349C12.4255 13.9045 11.2463 14 10.0002 14C7.37896 14 5.05359 13.5774 3.42168 12.9312C2.60314 12.6071 2.00896 12.2463 1.63575 11.8969C1.43425 11.7083 1.31609 11.5424 1.25024 11.4011V5C1.25024 4.24729 1.67558 3.64244 2.1887 3.20375C2.70296 2.7641 3.39162 2.411 4.15915 2.13345C5.7014 1.57577 7.76675 1.25 10.0002 1.25C12.2337 1.25 14.2991 1.57577 15.8413 2.13345C16.6089 2.411 17.2975 2.7641 17.8118 3.20375C18.3249 3.64244 18.7502 4.24729 18.7502 5V11.4011C18.7003 11.5082 18.6204 11.6294 18.4969 11.7639ZM3.47866 4.60674C3.20463 4.84102 3.19469 4.97606 3.19469 5C3.19469 5.02394 3.20463 5.15898 3.47866 5.39326C3.75156 5.62657 4.20193 5.87951 4.84189 6.11093C6.11466 6.57117 7.93819 6.875 10.0002 6.875C12.0623 6.875 13.8858 6.57117 15.1586 6.11093C15.7986 5.87951 16.2489 5.62657 16.5218 5.39326C16.7959 5.15898 16.8058 5.02394 16.8058 5C16.8058 4.97606 16.7959 4.84102 16.5218 4.60674C16.2489 4.37343 15.7986 4.12049 15.1586 3.88907C13.8858 3.42883 12.0623 3.125 10.0002 3.125C7.93819 3.125 6.11466 3.42883 4.84189 3.88907C4.20193 4.12049 3.75156 4.37343 3.47866 4.60674ZM6.1604 9.5C7.0191 9.68627 7.95798 9.81347 9.0022 9.8623V11.3623C8.00622 11.3157 7.02433 11.2006 6.1604 11.0315V9.5Z" fill="#141B34"/>
<path fill-rule="evenodd" clip-rule="evenodd" d="M13.6575 22.4321C12.5427 22.6373 11.3012 22.75 10.0002 22.75C7.72498 22.75 5.6317 22.4054 4.08005 21.8236C3.30699 21.5337 2.62928 21.1704 2.13137 20.7289C1.63433 20.2883 1.25024 19.7057 1.25024 19V14.1072C1.67385 14.3597 2.14409 14.5848 2.64563 14.7834C4.57953 15.5492 7.18029 16 10.0002 16C10.7406 16 11.4658 15.9689 12.1678 15.9093C11.9354 16.5624 11.8088 17.266 11.8088 18C11.8088 19.7359 12.5168 21.3018 13.6575 22.4321ZM9.00024 18.3623C7.95602 18.3135 7.01715 18.1863 6.15845 18V19.5315C7.02238 19.7006 8.00427 19.8157 9.00024 19.8623V18.3623Z" fill="#141B34"/>
</svg>
