<svg width="24" height="24" viewBox="0 0 24 24" fill="none" xmlns="http://www.w3.org/2000/svg">
<path fill-rule="evenodd" clip-rule="evenodd" d="M18.043 13.3358L21.7501 17.0429L20.3359 18.4571L19.043 17.1642V22.7501H17.043V17.1642L15.7501 18.4571L14.3359 17.0429L18.043 13.3358Z" fill="#141B34"/>
<path fill-rule="evenodd" clip-rule="evenodd" d="M5.15883 2.13327C6.70107 1.57559 8.76643 1.24982 10.9999 1.24982C13.2334 1.24982 15.2988 1.57559 16.841 2.13327C17.6085 2.41082 18.2972 2.76392 18.8115 3.20357C19.3246 3.64226 19.7499 4.2471 19.7499 4.99982V11.4009C19.6841 11.5422 19.5659 11.7081 19.3644 11.8967C19.2631 11.9916 19.1454 12.0873 19.0114 12.1829L18.0432 11.2147L15.7724 13.4855C14.3968 13.8081 12.7655 13.9998 10.9999 13.9998C8.37864 13.9998 6.05327 13.5772 4.42136 12.931C3.60282 12.6069 3.00864 12.2461 2.63543 11.8967C2.43393 11.7081 2.31577 11.5422 2.24992 11.4009V4.99982C2.24992 4.2471 2.67526 3.64226 3.18838 3.20357C3.70264 2.76392 4.3913 2.41082 5.15883 2.13327ZM4.47834 4.60656C4.20431 4.84084 4.19437 4.97588 4.19437 4.99982C4.19437 5.02375 4.20431 5.15879 4.47834 5.39308C4.75124 5.62639 5.20161 5.87933 5.84157 6.11075C7.11434 6.57099 8.93787 6.87482 10.9999 6.87482C13.062 6.87482 14.8855 6.57099 16.1583 6.11075C16.7982 5.87933 17.2486 5.62639 17.5215 5.39308C17.7955 5.15879 17.8055 5.02375 17.8055 4.99982C17.8055 4.97588 17.7955 4.84084 17.5215 4.60656C17.2486 4.37324 16.7982 4.1203 16.1583 3.88889C14.8855 3.42865 13.062 3.12482 10.9999 3.12482C8.93787 3.12482 7.11434 3.42865 5.84157 3.88889C5.20161 4.1203 4.75124 4.37324 4.47834 4.60656ZM7.16008 9.49982C8.01878 9.68609 8.95766 9.81329 10.0019 9.86212V11.3621C9.0059 11.3155 8.02401 11.2004 7.16008 11.0313V9.49982Z" fill="#141B34"/>
<path fill-rule="evenodd" clip-rule="evenodd" d="M13.3665 15.8913C12.6029 15.9626 11.8104 15.9998 10.9999 15.9998C8.17997 15.9998 5.57921 15.5491 3.64531 14.7833C3.14377 14.5846 2.67353 14.3595 2.24992 14.107V18.9998C2.24992 19.7055 2.63401 20.2881 3.13105 20.7287C3.62896 21.1702 4.30667 21.5335 5.07973 21.8234C6.63138 22.4053 8.72466 22.7498 10.9999 22.7498C12.6572 22.7498 14.218 22.567 15.5432 22.2428V20.3715L12.2148 17.0431L13.3665 15.8913ZM9.99992 18.3621C8.9557 18.3133 8.01683 18.1861 7.15813 17.9998V19.5313C8.02206 19.7004 9.00395 19.8155 9.99992 19.8621V18.3621Z" fill="#141B34"/>
</svg>
