<svg width="24" height="24" viewBox="0 0 24 24" fill="none" xmlns="http://www.w3.org/2000/svg">
<path d="M21.4999 5.75C21.9141 5.75 22.2499 6.08579 22.2499 6.5V13.5498C22.2499 15.3906 22.2499 16.8487 22.0966 17.9893C21.9389 19.1616 21.6066 20.1101 20.8583 20.8584C20.11 21.6067 19.1614 21.939 17.9891 22.0967C16.8486 22.25 15.3905 22.25 13.5497 22.25H10.4501C8.60927 22.25 7.15117 22.25 6.01062 22.0967C4.83832 21.939 3.88979 21.6067 3.14148 20.8584C2.39317 20.1101 2.06084 19.1616 1.9032 17.9893C1.74985 16.8487 1.74987 15.3906 1.74988 13.5498V6.5C1.74988 6.08579 2.08566 5.75 2.49988 5.75H21.4999ZM5.99988 17.25C5.58566 17.25 5.24988 17.5858 5.24988 18C5.24988 18.4142 5.58566 18.75 5.99988 18.75H10.9999C11.4141 18.75 11.7499 18.4142 11.7499 18C11.7499 17.5858 11.4141 17.25 10.9999 17.25H5.99988ZM5.99988 14.25C5.58566 14.25 5.24988 14.5858 5.24988 15C5.24988 15.4142 5.58566 15.75 5.99988 15.75H8.99988C9.41409 15.75 9.74988 15.4142 9.74988 15C9.74988 14.5858 9.41409 14.25 8.99988 14.25H5.99988Z" fill="#141B34"/>
<path d="M14.4407 1.75015C16.2588 1.75015 17.4972 1.72783 18.5762 2.23445C19.655 2.7411 20.3789 3.68426 21.4696 5.04986L22.055 5.78392C22.3783 6.18893 22.2908 6.76302 21.8595 7.06674C21.4282 7.37038 20.8169 7.2882 20.4934 6.88323L19.9071 6.15006C18.6988 4.63721 18.2729 4.14114 17.703 3.87356C17.133 3.60597 16.4548 3.58352 14.4407 3.58352H9.55958C7.54542 3.58352 6.86721 3.60597 6.29726 3.87356C5.72735 4.14114 5.30147 4.63721 4.09315 6.15006L3.50685 6.88323C3.18339 7.2882 2.57203 7.37038 2.14071 7.06674C1.70945 6.76302 1.62193 6.18893 1.94528 5.78392L2.53063 5.04986C3.62134 3.68426 4.34521 2.7411 5.42401 2.23445C6.50305 1.72783 7.74141 1.75015 9.55958 1.75015H14.4407Z" fill="#141B34"/>
</svg>
