<svg width="24" height="24" viewBox="0 0 24 24" fill="none" xmlns="http://www.w3.org/2000/svg">
<path fill-rule="evenodd" clip-rule="evenodd" d="M22.25 6.30566V12.9844C21.2351 11.7676 19.6979 11 18 11C14.9994 11 12.5 13.3967 12.5 16.4346L12.5088 16.7588C12.5971 18.3595 13.3408 19.6263 14.5078 20.6309L14.5215 20.6426C14.8252 20.904 15.367 21.3704 15.8809 21.8457C16.0303 21.9839 16.1732 22.1206 16.3057 22.25H1.75V6.30566L5.16699 1.75H18.833L22.25 6.30566ZM4.67773 5.65527H19.3223L17.8584 3.70312H6.1416L4.67773 5.65527Z" fill="#141B34"/>
<path d="M18 12.25C20.3337 12.25 22.25 14.1103 22.25 16.4346C22.2499 17.7701 21.6906 18.8108 20.6768 19.6836C20.0922 20.1868 18.4008 21.6223 17.9785 22.25C17.5949 21.6389 15.9654 20.2358 15.3477 19.7041L15.3232 19.6836C14.3094 18.8108 13.7501 17.7701 13.75 16.4346C13.75 14.1103 15.6663 12.25 18 12.25ZM17.9932 15C17.1685 15.0001 16.5 15.6717 16.5 16.5C16.5 17.3283 17.1685 17.9999 17.9932 18H18.0068L18.1602 17.9932C18.913 17.9161 19.5 17.2765 19.5 16.5C19.5 15.7236 18.9129 15.0849 18.1602 15.0078L18.0068 15H17.9932Z" fill="#141B34"/>
</svg>
