<svg width="24" height="24" viewBox="0 0 24 24" fill="none" xmlns="http://www.w3.org/2000/svg">
<path d="M15.4724 1.25H8.52755C7.62451 1.24998 6.86914 1.24996 6.25004 1.31454C5.59532 1.38284 5.0034 1.53023 4.45681 1.87979C3.91021 2.22936 3.54072 2.69681 3.22319 3.2503C2.92293 3.77368 2.63242 4.44256 2.28512 5.24222L1.32543 7.45172C1.11784 7.92965 1.35344 8.47851 1.85164 8.67764C2.34984 8.87678 2.922 8.65078 3.12958 8.17285L4.06924 6.00946C4.4418 5.15172 4.69249 4.57789 4.9355 4.1543C5.16699 3.75079 5.34898 3.56262 5.54097 3.43984C5.73295 3.31706 5.98402 3.22828 6.46133 3.17849C6.96239 3.12622 7.61098 3.12494 8.57963 3.12494H11V8H13V3.12494H15.4204C16.389 3.12494 17.0376 3.12622 17.5387 3.17849C18.016 3.22828 18.2671 3.31706 18.459 3.43984C18.651 3.56262 18.833 3.75079 19.0645 4.1543C19.3075 4.57789 19.5582 5.15172 19.9308 6.00946L20.8704 8.17285C21.078 8.65078 21.6502 8.87678 22.1484 8.67764C22.6466 8.47851 22.8822 7.92965 22.6746 7.45172L21.7149 5.24222C21.3676 4.44256 21.0771 3.77368 20.7768 3.2503C20.4593 2.69681 20.0898 2.22936 19.5432 1.87979C18.9966 1.53023 18.4047 1.38284 17.75 1.31454C17.1309 1.24996 16.3755 1.24998 15.4724 1.25Z" fill="#141B34"/>
<path fill-rule="evenodd" clip-rule="evenodd" d="M17 14.25C15.6017 14.25 14.4205 14.8652 13.5294 15.5609C12.6368 16.2578 11.9522 17.1169 11.5879 17.6278C11.4661 17.7948 11.25 18.0914 11.25 18.5C11.25 18.9086 11.4661 19.2052 11.5879 19.3722C11.9522 19.8831 12.6368 20.7422 13.5294 21.4391C14.4205 22.1348 15.6017 22.75 17 22.75C18.3983 22.75 19.5795 22.1348 20.4706 21.4391C21.3632 20.7422 22.0478 19.8831 22.4121 19.3722C22.5339 19.2052 22.75 18.9086 22.75 18.5C22.75 18.0914 22.5339 17.7948 22.4121 17.6278C22.0478 17.1169 21.3632 16.2578 20.4706 15.5609C19.5795 14.8652 18.3983 14.25 17 14.25ZM16.9933 17C16.1686 17 15.5 17.6716 15.5 18.5C15.5 19.3284 16.1686 20 16.9933 20H17.0067C17.8314 20 18.5 19.3284 18.5 18.5C18.5 17.6716 17.8314 17 17.0067 17H16.9933Z" fill="#141B34"/>
<path fill-rule="evenodd" clip-rule="evenodd" d="M1.25 8C1.25 7.58579 1.58579 7.25 2 7.25L22 7.25C22.4142 7.25 22.75 7.58579 22.75 8V13.4872L22.75 14.0907C22.75 14.7327 22.75 15.0536 22.5771 15.1345C22.4043 15.2154 22.1454 14.9994 21.6275 14.5674C21.5512 14.5037 21.4732 14.4406 21.3937 14.3785C20.3498 13.5636 18.8505 12.75 17 12.75C15.1495 12.75 13.6502 13.5636 12.6063 14.3785C11.5585 15.1966 10.7793 16.1791 10.3718 16.7497L10.3601 16.7655C10.2174 16.9595 9.75 17.5948 9.75 18.5C9.75 19.4052 10.2174 20.0405 10.3601 20.2345L10.3718 20.2504C10.6004 20.5704 10.999 21.0606 11.4899 21.5737L11.4899 21.5737C12.0079 22.115 12.2669 22.3857 12.1891 22.5679C12.1113 22.75 11.7513 22.75 11.0313 22.75H10.8338C8.78537 22.75 7.17418 22.75 5.9157 22.5869C4.6271 22.4198 3.59552 22.0699 2.78115 21.2846C1.96296 20.4957 1.59493 19.4901 1.41991 18.2347C1.24997 17.0159 1.24999 15.4578 1.25 13.4872V13.4872L1.25 8ZM10 10.25C9.58579 10.25 9.25 10.5858 9.25 11C9.25 11.4142 9.58579 11.75 10 11.75L14 11.75C14.4142 11.75 14.75 11.4142 14.75 11C14.75 10.5858 14.4142 10.25 14 10.25L10 10.25Z" fill="#141B34"/>
</svg>
