<svg width="24" height="24" viewBox="0 0 24 24" fill="none" xmlns="http://www.w3.org/2000/svg">
<path d="M18.5761 2.23434C17.4971 1.72785 16.2584 1.74996 14.4404 1.74996H9.55951C7.74144 1.74996 6.50278 1.72773 5.42377 2.23434C4.34517 2.74096 3.62168 3.68444 2.53119 5.04977L1.94525 5.78414C1.79462 5.97288 1.73382 6.19829 1.75482 6.41598C1.79664 6.04139 2.11419 5.74998 2.49994 5.74996H4.41791H19.5829H21.4999C21.8857 5.74996 22.2022 6.04143 22.2441 6.41598C22.2651 6.19819 22.2054 5.97296 22.0546 5.78414L21.4697 5.04977C20.379 3.68425 19.6549 2.74097 18.5761 2.23434Z" fill="#141B34"/>
<path opacity="0.4" d="M21.5 5.74982C21.9142 5.74982 22.25 6.0856 22.25 6.49982V12.9842C21.2351 11.7675 19.6978 10.9998 18 10.9998C14.9996 11 12.5 13.3966 12.5 16.4344L12.5088 16.7586C12.5971 18.3592 13.341 19.6261 14.5078 20.6307C14.7655 20.8525 15.1463 21.2192 15.5107 21.6072C15.7266 21.8371 15.9123 22.0515 16.0566 22.2293C15.3133 22.2491 14.4804 22.2498 13.5498 22.2498H10.4502C8.60939 22.2498 7.15129 22.2498 6.01074 22.0965C4.83844 21.9389 3.88991 21.6065 3.1416 20.8582C2.39329 20.1099 2.06096 19.1614 1.90332 17.9891C1.74998 16.8485 1.74999 15.3904 1.75 13.5496V6.49982C1.75 6.0856 2.08579 5.74982 2.5 5.74982H21.5Z" fill="#141B34"/>
<path d="M18 12.2501C20.3337 12.2501 22.25 14.1104 22.25 16.4347C22.2499 17.7703 21.6906 18.811 20.6768 19.6837C20.0921 20.1871 19.0443 21.2915 18.6221 21.9191C18.4804 22.1294 18.2419 22.2541 17.9883 22.2501C17.7346 22.246 17.4991 22.1135 17.3643 21.8986C16.9754 21.2793 15.9214 20.1987 15.3232 19.6837C14.3096 18.811 13.7501 17.7702 13.75 16.4347C13.75 14.1106 15.6664 12.2503 18 12.2501ZM17.9941 15.0001C17.1693 15.0001 16.5 15.6717 16.5 16.5001C16.5 17.3285 17.1693 18.0001 17.9941 18.0001H18.0068L18.1602 17.9933C18.9132 17.9164 19.5 17.2767 19.5 16.5001C19.5 15.7236 18.9131 15.0849 18.1602 15.0079L18.0068 15.0001H17.9941Z" fill="#141B34"/>
</svg>
