<svg width="24" height="24" viewBox="0 0 24 24" fill="none" xmlns="http://www.w3.org/2000/svg">
<path fill-rule="evenodd" clip-rule="evenodd" d="M12.1611 4.01743C14.7694 1.43283 18.4298 1.88121 20.1915 4.0814L20.2109 4.10563C20.4683 4.42687 20.8646 4.92148 21.1864 5.65052C21.5183 6.40224 21.7597 7.37372 21.7497 8.65371C21.7477 8.91446 21.7352 9.18783 21.711 9.47462C21.6903 9.71937 21.68 9.84175 21.5939 9.92088C21.5078 10 21.3808 10 21.1267 10L14.793 10C14.7167 10 14.6517 9.94574 14.6349 9.87138C14.5631 9.5527 14.4287 9.14215 14.1433 8.85671C13.8579 8.57127 13.4473 8.4369 13.1286 8.3651C12.777 8.28588 12.3814 8.25 12 8.25C11.6186 8.25 11.223 8.28588 10.8714 8.3651C10.5527 8.4369 10.1421 8.57127 9.85671 8.85671C9.57127 9.14215 9.4369 9.5527 9.3651 9.87138C9.34835 9.94574 9.28325 10 9.20703 10H2.87326C2.61922 10 2.49221 10 2.40612 9.92088C2.32003 9.84175 2.3097 9.71937 2.28904 9.47462C2.26482 9.18783 2.25235 8.91446 2.2503 8.65371C2.24026 7.37372 2.48169 6.40224 2.81357 5.65052C3.13543 4.92148 3.53175 4.42686 3.78913 4.10563L3.80854 4.0814C5.57023 1.88121 9.23058 1.43283 11.8389 4.01743C11.9282 4.106 12.0718 4.106 12.1611 4.01743ZM3.51562 12C3.15683 12 2.97743 12 2.88747 12.1209C2.7975 12.2419 2.848 12.4101 2.94899 12.7466C3.57805 14.8425 4.68659 17.419 6.48922 20.6084C6.89514 21.3266 7.67976 21.7499 8.49601 21.7499C9.80785 21.7499 10.8386 20.704 10.8818 19.4659C10.9123 18.5927 11.012 17.7347 11.244 17.1171C11.4764 16.4983 11.7349 16.3533 12 16.3533C12.2651 16.3533 12.5236 16.4983 12.756 17.1171C12.988 17.7347 13.0877 18.5927 13.1182 19.4659C13.1614 20.704 14.1921 21.7499 15.504 21.7499C16.3202 21.7499 17.1049 21.3266 17.5108 20.6084C19.3134 17.419 20.4219 14.8425 21.051 12.7466C21.152 12.4101 21.2025 12.2419 21.1125 12.1209C21.0226 12 20.8432 12 20.4844 12H14.793C14.7167 12 14.6517 12.0543 14.6349 12.1286C14.5631 12.4473 14.4287 12.8579 14.1433 13.1433C13.8579 13.4287 13.4473 13.5631 13.1286 13.6349C12.777 13.7141 12.3814 13.75 12 13.75C11.6186 13.75 11.223 13.7141 10.8714 13.6349C10.5527 13.5631 10.1421 13.4287 9.85671 13.1433C9.57127 12.8579 9.4369 12.4473 9.3651 12.1286C9.34835 12.0543 9.28325 12 9.20703 12H3.51562Z" fill="#141B34"/>
</svg>
