<svg width="24" height="24" viewBox="0 0 24 24" fill="none" xmlns="http://www.w3.org/2000/svg">
<path d="M14.9948 6.00007C14.4943 6.50007 13.4899 6.41235 11.9915 5.17639M11.9915 5.17639C12.2132 4.99359 12.4434 4.78589 12.6813 4.55039C14.9895 2.26567 18.0776 2.71299 19.5504 4.55039C20.5677 5.81947 23.279 9.48757 16.8547 20.2397C16.5909 20.7059 16.0654 21.0001 15.4993 21.0001C14.5964 21.0001 13.8906 20.2802 13.8613 19.44C13.799 17.658 13.4534 15.6036 11.9915 15.6036C10.5296 15.6036 10.1841 17.658 10.1218 19.44C10.0925 20.2802 9.3867 21.0001 8.48372 21.0001C7.9177 21.0001 7.39223 20.7059 7.12844 20.2397C4.01398 14.7353 2.99316 11.2994 2.99316 8.41761C5.29185 8.41761 5.96948 7.26205 5.96948 5.84718C7.66756 5.72123 8.90426 5.33269 8.97917 2.99734M11.9915 5.17639C11.7699 4.99359 10.3439 3.62459 10.1061 3.38909C9.60824 2.89618 8.87948 3.00542 8.2352 3.00542" stroke="#141B34" stroke-width="1.5" stroke-linejoin="round"/>
</svg>
