<svg width="24" height="24" viewBox="0 0 24 24" fill="none" xmlns="http://www.w3.org/2000/svg">
<path d="M9.0072 5.27539V6.2909M9.0072 9.33743V16.446" stroke="#141B34" stroke-width="1.5" stroke-linecap="square" stroke-linejoin="round"/>
<path d="M6.01816 9.33978H2.01085C2.00533 9.33978 2.00085 9.34432 2.00085 9.34993V16.4356C2.00085 16.4412 2.00533 16.4457 2.01085 16.4457H6.01816V9.33978ZM6.01816 9.33978L6.01791 4.49805" stroke="#141B34" stroke-width="1.5"/>
<path d="M15.5138 16.4194H11.5065C11.501 16.4194 11.4965 16.4149 11.4965 16.4093V9.32363C11.4965 9.31802 11.501 9.31348 11.5065 9.31348H15.5138V16.4194ZM15.5138 16.4194V19.4848L10.7679 19.4846" stroke="#141B34" stroke-width="1.5"/>
<path d="M21.9991 16.436H17.9918C17.9863 16.436 17.9818 16.4315 17.9818 16.4259V9.34023C17.9818 9.33462 17.9863 9.33008 17.9918 9.33008H21.9991V16.436ZM21.9991 16.436V19.5014L17.2533 19.5012" stroke="#141B34" stroke-width="1.5"/>
</svg>
