<svg width="24" height="24" viewBox="0 0 24 24" fill="none" xmlns="http://www.w3.org/2000/svg">
<path d="M14.7151 3.25008C15.6304 3.24929 16.3236 3.24868 16.943 3.54308C17.5609 3.83677 18.0023 4.37523 18.5877 5.08933L18.5877 5.08933C18.8587 5.41926 19.4919 6.19045 19.6635 6.46124C19.8519 6.75837 20 7.09388 20 7.50017C20 7.90645 19.8519 8.24196 19.6635 8.53909C19.4919 8.80988 18.8587 9.58108 18.5877 9.911C18.0023 10.6251 17.5609 11.1636 16.943 11.4573C16.3236 11.7516 15.6304 11.751 14.7151 11.7502L9.25 11.7502C8.83579 11.7502 8.5 11.4144 8.5 11.0002V4.00017C8.5 3.58595 8.83579 3.25017 9.25 3.25017L14.7151 3.25008Z" fill="#141B34"/>
<path fill-rule="evenodd" clip-rule="evenodd" d="M9 2C9.55228 2 10 2.44772 10 3V20H13C13.5523 20 14 20.4477 14 21C14 21.5523 13.5523 22 13 22H5C4.44772 22 4 21.5523 4 21C4 20.4477 4.44772 20 5 20H8V3C8 2.44772 8.44771 2 9 2Z" fill="#141B34"/>
</svg>
