<svg width="24" height="24" viewBox="0 0 24 24" fill="none" xmlns="http://www.w3.org/2000/svg">
<path d="M13.7151 3.25008C14.6304 3.24929 15.3236 3.24868 15.943 3.54308C16.5609 3.83677 17.0023 4.37523 17.5877 5.08933C17.8587 5.41926 18.4919 6.19045 18.6635 6.46124C18.8519 6.75837 19 7.09388 19 7.50017C19 7.90645 18.8519 8.24196 18.6635 8.53909C18.4919 8.80988 17.8587 9.58107 17.5877 9.911C17.0023 10.6251 16.5609 11.1636 15.943 11.4573C15.3236 11.7516 14.6304 11.751 13.7151 11.7502L7.70526 11.7502H7.70525C7.27244 11.7502 6.87561 11.7503 6.5528 11.7069C6.19732 11.6591 5.82159 11.5466 5.51257 11.2376C5.20355 10.9286 5.0911 10.5529 5.04331 10.1974C4.99991 9.87456 4.99995 9.47773 5 9.04491V5.95542C4.99995 5.5226 4.99991 5.12577 5.04331 4.80296C5.0911 4.44748 5.20355 4.07175 5.51257 3.76273C5.82159 3.45371 6.19732 3.34126 6.5528 3.29346C6.87561 3.25006 7.27244 3.25011 7.70526 3.25016L13.7151 3.25008Z" fill="#141B34"/>
<path fill-rule="evenodd" clip-rule="evenodd" d="M10 2C10.5523 2 11 2.44772 11 3V4C11 4.55228 10.5523 5 10 5C9.44772 5 9 4.55228 9 4V3C9 2.44772 9.44772 2 10 2ZM10 10C10.5523 10 11 10.4477 11 11L11 20H14C14.5523 20 15 20.4477 15 21C15 21.5523 14.5523 22 14 22H6C5.44772 22 5 21.5523 5 21C5 20.4477 5.44772 20 6 20H9L9 11C9 10.4477 9.44771 10 10 10Z" fill="#141B34"/>
</svg>
