<svg width="24" height="24" viewBox="0 0 24 24" fill="none" xmlns="http://www.w3.org/2000/svg">
<path opacity="0.4" d="M9.55808 2.73304C9.43668 2.41434 9.11555 2.21768 8.7765 2.25438C7.04964 2.44132 5.31108 2.83043 3.57683 4.07884C3.45045 4.16982 3.35551 4.29789 3.30521 4.44527C2.20187 7.67794 1.59821 10.4992 1.36483 12.767C1.13441 15.0061 1.25582 16.7903 1.68357 17.8957C1.69093 17.9147 1.69905 17.9334 1.70792 17.9517C2.09791 18.7576 2.6868 19.6763 3.41741 20.4057C4.13542 21.1224 5.08686 21.75 6.19211 21.75C6.47022 21.75 6.70958 21.6249 6.8386 21.5502C6.99762 21.4581 7.16059 21.3378 7.31699 21.208C7.63202 20.9466 7.97856 20.598 8.29981 20.2204C8.62093 19.843 8.93394 19.4165 9.17109 18.9943C9.2498 18.8541 9.28915 18.7841 9.28915 18.7056C9.28914 18.6262 9.25125 18.5395 9.19304 18.4855C9.13546 18.4322 9.04622 18.4108 8.86774 18.368C8.17008 18.2006 7.46099 17.9782 6.73296 17.7009C6.34588 17.5534 6.15163 17.1201 6.29909 16.733C6.44655 16.346 6.87988 16.1517 7.26696 16.2992C10.595 17.567 13.4049 17.567 16.733 16.2992C17.12 16.1517 17.5534 16.346 17.7008 16.733C17.8483 17.1201 17.654 17.5534 17.267 17.7009C16.8808 17.8995 15.8783 18.1735 15.1302 18.3585C14.9452 18.4042 14.8527 18.4271 14.7933 18.4872C14.7437 18.5374 14.7095 18.6164 14.7069 18.6869C14.7038 18.7713 14.7455 18.8456 14.829 18.9943C15.0662 19.4165 15.3792 19.843 15.7003 20.2204C16.0215 20.598 16.3681 20.9466 16.6831 21.208C16.8395 21.3378 17.0025 21.4581 17.1615 21.5502C17.2905 21.6249 17.5299 21.75 17.808 21.75C18.9132 21.75 19.8647 21.1224 20.5827 20.4057C21.3133 19.6763 21.9022 18.7576 22.2922 17.9517C22.3011 17.9334 22.3092 17.9147 22.3165 17.8957C22.7443 16.7903 22.8657 15.0061 22.6353 12.767C22.4019 10.4992 21.7982 7.67794 20.6949 4.44527C20.6446 4.29789 20.5497 4.16982 20.4233 4.07884C18.689 2.83043 16.9505 2.44132 15.2236 2.25438C14.8846 2.21768 14.5634 2.41434 14.442 2.73304L13.9825 3.93921C13.9007 4.15416 13.8597 4.26163 13.7718 4.31506C13.6838 4.36849 13.5657 4.35487 13.3293 4.32761C12.8831 4.27615 12.4426 4.25003 12.0001 4.25003C11.5575 4.25003 11.117 4.27615 10.6708 4.32761C10.4344 4.35487 10.3163 4.36849 10.2283 4.31506C10.1404 4.26163 10.0995 4.15416 10.0176 3.93921L9.55808 2.73304Z" fill="#141B34"/>
<path d="M7.49247 8.5C6.38969 8.5 5.5 9.39781 5.5 10.5C5.5 11.6022 6.38969 12.5 7.49247 12.5H7.50753C8.61031 12.5 9.5 11.6022 9.5 10.5C9.5 9.39781 8.61031 8.5 7.50753 8.5H7.49247Z" fill="#141B34"/>
<path d="M16.4925 8.5C15.3897 8.5 14.5 9.39781 14.5 10.5C14.5 11.6022 15.3897 12.5 16.4925 12.5H16.5075C17.6103 12.5 18.5 11.6022 18.5 10.5C18.5 9.39781 17.6103 8.5 16.5075 8.5H16.4925Z" fill="#141B34"/>
</svg>
