<svg width="24" height="24" viewBox="0 0 24 24" fill="none" xmlns="http://www.w3.org/2000/svg">
<path fill-rule="evenodd" clip-rule="evenodd" d="M8.61035 2.29196C8.9936 2.1584 9.41356 2.35393 9.55803 2.73319L10.5169 5.25018H13.4831L14.442 2.73319C14.5865 2.35393 15.0064 2.1584 15.3897 2.29196L20.5768 4.09968L20.6949 4.44542C21.7982 7.67809 22.4019 10.4994 22.6352 12.7672C22.8657 15.0063 22.7442 16.7904 22.3165 17.8958C22.3091 17.9148 22.301 17.9335 22.2921 17.9519C21.9022 18.7578 21.3133 19.6765 20.5826 20.4058C19.8646 21.1226 18.9132 21.7502 17.8079 21.7502H17.4445L14.8287 18.4375C15.624 18.2641 16.4327 18.0186 17.2664 17.701L16.7324 16.2993C13.4043 17.5671 10.5944 17.5671 7.26637 16.2993L6.73238 17.701C7.56637 18.0188 8.37551 18.2643 9.17108 18.4377L6.55548 21.7502H6.19207C5.08682 21.7502 4.13537 21.1226 3.41737 20.4058C2.68676 19.6765 2.09786 18.7578 1.70788 17.9519C1.699 17.9335 1.69088 17.9148 1.68353 17.8958C1.25577 16.7904 1.13436 15.0063 1.36479 12.7672C1.59816 10.4994 2.20183 7.67809 3.30516 4.44542L3.42317 4.09968L8.61035 2.29196ZM7.99242 9.5C7.16815 9.5 6.49995 10.1716 6.49995 11C6.49995 11.8284 7.16815 12.5 7.99242 12.5H8.00749C8.83175 12.5 9.49995 11.8284 9.49995 11C9.49995 10.1716 8.83175 9.5 8.00749 9.5H7.99242ZM15.9924 9.5C15.1682 9.5 14.5 10.1716 14.5 11C14.5 11.8284 15.1682 12.5 15.9924 12.5H16.0075C16.8318 12.5 17.5 11.8284 17.5 11C17.5 10.1716 16.8318 9.5 16.0075 9.5H15.9924Z" fill="#141B34"/>
</svg>
