<svg width="24" height="24" viewBox="0 0 24 24" fill="none" xmlns="http://www.w3.org/2000/svg">
<path fill-rule="evenodd" clip-rule="evenodd" d="M8 2L8 5H6L6 2H8ZM6 22L6 19H8V22H6Z" fill="#141B34"/>
<path d="M13.75 8.00232C13.75 7.58811 14.0858 7.25232 14.5 7.25232H19.5C19.9142 7.25232 20.25 7.58811 20.25 8.00232V16.0023C20.25 16.4165 19.9142 16.7523 19.5 16.7523H14.5C14.0858 16.7523 13.75 16.4165 13.75 16.0023V8.00232Z" fill="#141B34"/>
<path d="M3.75 5.00232C3.75 4.58811 4.08579 4.25232 4.5 4.25232H9.5C9.91421 4.25232 10.25 4.58811 10.25 5.00232V19.0023C10.25 19.4165 9.91421 19.7523 9.5 19.7523H4.5C4.08579 19.7523 3.75 19.4165 3.75 19.0023V5.00232Z" fill="#141B34"/>
<path fill-rule="evenodd" clip-rule="evenodd" d="M18 2V8H16V2H18ZM16 22V16H18V22H16Z" fill="#141B34"/>
</svg>
