<svg width="24" height="24" viewBox="0 0 24 24" fill="none" xmlns="http://www.w3.org/2000/svg">
<path fill-rule="evenodd" clip-rule="evenodd" d="M1 17C1 16.4477 1.44772 16 2 16L5 16C5.55228 16 6 16.4477 6 17C6 17.5523 5.55228 18 5 18L2 18C1.44772 18 1 17.5523 1 17ZM18 17C18 16.4477 18.4477 16 19 16L22 16C22.5523 16 23 16.4477 23 17C23 17.5523 22.5523 18 22 18L19 18C18.4477 18 18 17.5523 18 17Z" fill="#141B34"/>
<path d="M7.2515 7.18318C7.25214 7.11802 7.25275 7.05664 7.25275 7C7.25275 6.94335 7.25214 6.88198 7.2515 6.81682C7.24799 6.46075 7.24336 5.99173 7.33032 5.56477C7.44299 5.01157 7.72349 4.42918 8.37775 4.05144C8.68496 3.87407 9.01092 3.80801 9.3401 3.77818C9.65139 3.74997 10.0307 3.74998 10.4705 3.75L13.535 3.75C13.9748 3.74998 14.3541 3.74997 14.6654 3.77818C14.9946 3.80802 15.3205 3.87407 15.6278 4.05144C16.282 4.42918 16.5625 5.01157 16.6752 5.56477C16.7621 5.99173 16.7575 6.46075 16.754 6.81682L16.754 6.81686C16.7534 6.882 16.7528 6.94336 16.7528 7C16.7528 7.05663 16.7534 7.11799 16.754 7.18314L16.754 7.18318C16.7575 7.53925 16.7621 8.00827 16.6752 8.43523C16.5625 8.98842 16.282 9.57082 15.6278 9.94856C15.3205 10.1259 14.9946 10.192 14.6654 10.2218C14.3541 10.25 13.9748 10.25 13.535 10.25L13.535 10.25L10.4705 10.25L10.4705 10.25C10.0307 10.25 9.65138 10.25 9.3401 10.2218C9.01092 10.192 8.68496 10.1259 8.37775 9.94856C7.72349 9.57082 7.44299 8.98842 7.33032 8.43523C7.24336 8.00827 7.24799 7.53925 7.2515 7.18318Z" fill="#141B34"/>
<path d="M4.2515 17.1832C4.25214 17.118 4.25275 17.0566 4.25275 17C4.25275 16.9434 4.25214 16.882 4.2515 16.8168C4.24799 16.4607 4.24336 15.9917 4.33032 15.5648C4.44299 15.0116 4.72349 14.4292 5.37775 14.0514C5.68496 13.8741 6.01092 13.808 6.3401 13.7782C6.65139 13.75 7.03073 13.75 7.47052 13.75L16.535 13.75C16.9748 13.75 17.3541 13.75 17.6654 13.7782C17.9946 13.808 18.3205 13.8741 18.6278 14.0514C19.282 14.4292 19.5625 15.0116 19.6752 15.5648C19.7621 15.9917 19.7575 16.4607 19.754 16.8168L19.754 16.8169C19.7534 16.882 19.7528 16.9434 19.7528 17C19.7528 17.0566 19.7534 17.118 19.754 17.1831L19.754 17.1832C19.7575 17.5393 19.7621 18.0083 19.6752 18.4352C19.5625 18.9884 19.282 19.5708 18.6278 19.9486C18.3205 20.1259 17.9946 20.192 17.6654 20.2218C17.3541 20.25 16.9748 20.25 16.535 20.25L16.535 20.25L7.47053 20.25L7.47047 20.25C7.03071 20.25 6.65138 20.25 6.3401 20.2218C6.01092 20.192 5.68496 20.1259 5.37775 19.9486C4.72349 19.5708 4.44299 18.9884 4.33032 18.4352C4.24336 18.0083 4.24799 17.5393 4.2515 17.1832Z" fill="#141B34"/>
<path fill-rule="evenodd" clip-rule="evenodd" d="M1 7C1 6.44771 1.44772 6 2 6L8 6C8.55228 6 9 6.44771 9 7C9 7.55228 8.55228 8 8 8L2 8C1.44772 8 1 7.55228 1 7ZM15 7C15 6.44771 15.4477 6 16 6L22 6C22.5523 6 23 6.44771 23 7C23 7.55228 22.5523 8 22 8L16 8C15.4477 8 15 7.55228 15 7Z" fill="#141B34"/>
</svg>
