<svg width="24" height="24" viewBox="0 0 24 24" fill="none" xmlns="http://www.w3.org/2000/svg">
<path d="M20.4761 12.9998V2.02757C20.4761 2.02205 20.4716 2.01758 20.4661 2.01758L10.5096 2.01779L3.50879 9.00484L3.50891 13.0002M3.96157 9.00484H10.5096V2.51719" stroke="#141B34" stroke-width="1.5"/>
<path d="M20.4759 17.4982V16.007C20.4759 16.0015 20.4714 15.997 20.4659 15.997H16.4952C16.4896 15.997 16.4852 16.0015 16.4852 16.007L16.4846 21.993C16.4846 21.9985 16.4891 22.003 16.4946 22.003H20.4659C20.4714 22.003 20.4759 21.9985 20.4759 21.993V20.5015M11.9917 22.0029C10.9049 22.0029 10.0239 21.1211 10.0239 20.0332V17.9668C10.0239 16.879 10.9049 15.9971 11.9917 15.9971C13.0786 15.9971 13.9596 16.879 13.9596 17.9668V20.0332C13.9596 21.1211 13.0786 22.0029 11.9917 22.0029ZM3.47852 15.9258L3.479 22.0089C4.97316 22.101 7.49247 21.7323 7.49247 19.0265C7.49247 16.4501 5.00994 15.8054 3.47852 15.9258Z" stroke="#141B34" stroke-width="1.5"/>
</svg>
