<svg width="24" height="24" viewBox="0 0 24 24" fill="none" xmlns="http://www.w3.org/2000/svg">
<path d="M19.9297 9.99842L19.9396 2.01C19.9396 2.00448 19.9352 2 19.9297 2L9.99005 2.00022L3.0012 8.98726L3 21.9927C3 21.9982 3.00446 22.0027 3.00997 22.0027H19.9297M9.99005 2.55583V8.98726H3.4297" stroke="#141B34" stroke-width="1.5"/>
<path d="M21.0034 14.1988V12.9649C21.0034 12.9604 20.9997 12.9567 20.9951 12.9567L17.9599 12.9649C17.9544 12.9649 17.95 12.9694 17.95 12.9749L17.95 17.921C17.95 17.9265 17.9545 17.931 17.96 17.931L20.9951 17.9261C20.9997 17.9261 21.0034 17.9224 21.0034 17.9178V16.6838M13.9731 17.926C13.0725 17.926 12.3424 17.1963 12.3424 16.2963V14.5865C12.3424 13.6864 13.0725 12.9567 13.9731 12.9567C14.8736 12.9567 15.6037 13.6864 15.6037 14.5865L15.6037 16.2963C15.6037 17.1963 14.8736 17.926 13.9731 17.926ZM7.01074 12.9649L7.01115 17.9982C8.24927 18.0743 10.0226 17.7401 10.0226 15.5013C10.0226 13.3695 8.27974 12.8653 7.01074 12.9649Z" stroke="#141B34" stroke-width="1.5"/>
</svg>
