<svg width="24" height="24" viewBox="0 0 24 24" fill="none" xmlns="http://www.w3.org/2000/svg">
<path opacity="0.4" d="M12 22.75C17.9371 22.75 22.75 17.9371 22.75 12C22.75 6.06294 17.9371 1.25 12 1.25C6.06294 1.25 1.25 6.06294 1.25 12C1.25 17.9371 6.06294 22.75 12 22.75Z" fill="#141B34"/>
<path d="M15.6025 16.2533L15.5 16.2485H8.49999C7.94771 16.2485 7.49999 16.6962 7.49999 17.2485C7.50001 17.8007 7.94771 18.2485 8.49999 18.2485H15.5L15.6025 18.2436C16.1066 18.1923 16.5 17.7661 16.5 17.2485C16.5 16.7308 16.1067 16.3047 15.6025 16.2533Z" fill="#141B34"/>
<path d="M12 5.75C11.4477 5.75 11 6.19772 11 6.75V11.7246C10.8874 11.6017 10.7723 11.475 10.6592 11.3447C10.2945 10.9247 9.9546 10.5014 9.70507 10.1816C9.58079 10.0224 9.37521 9.74931 9.30566 9.65723C8.97824 9.21265 8.3519 9.11714 7.90722 9.44434C7.46264 9.77176 7.36713 10.3981 7.69433 10.8428C7.76932 10.9421 7.99719 11.2433 8.1289 11.4121C8.3915 11.7486 8.75442 12.2003 9.14941 12.6553C9.54011 13.1053 9.98232 13.581 10.4023 13.9521C10.6112 14.1367 10.8376 14.317 11.0684 14.4561C11.2717 14.5786 11.6062 14.75 12 14.75L12.1445 14.7422C12.4752 14.7077 12.7537 14.5633 12.9316 14.4561C13.1623 14.317 13.3888 14.1366 13.5977 13.9521C14.0177 13.581 14.4599 13.1053 14.8506 12.6553C15.2456 12.2003 15.6085 11.7486 15.8711 11.4121C16.0028 11.2433 16.2307 10.9421 16.3057 10.8428C16.6328 10.3981 16.5373 9.77176 16.0928 9.44434C15.6481 9.11716 15.0218 9.21266 14.6943 9.65723C14.6248 9.74931 14.4192 10.0224 14.2949 10.1816C14.0454 10.5014 13.7055 10.9247 13.3408 11.3447C13.2277 11.475 13.1126 11.6017 13 11.7246V6.75C13 6.19772 12.5523 5.75001 12 5.75Z" fill="#141B34"/>
</svg>
