<svg width="24" height="24" viewBox="0 0 24 24" fill="none" xmlns="http://www.w3.org/2000/svg">
<path d="M11.0002 3.25002C11.0002 2.69773 11.4479 2.25002 12.0002 2.25002C12.5525 2.25002 13.0002 2.69773 13.0002 3.25002V13.7988C13.2103 13.5794 13.4273 13.3407 13.6409 13.0947C14.0598 12.6122 14.4495 12.1264 14.7356 11.7598C14.8781 11.5772 14.9936 11.4251 15.0735 11.3194C15.1134 11.2665 15.1446 11.225 15.1653 11.1973C15.1755 11.1836 15.1827 11.1728 15.1877 11.166C15.1901 11.1628 15.1924 11.1608 15.1936 11.1592L15.1946 11.1572C15.5221 10.7125 16.1483 10.6178 16.593 10.9453C17.0375 11.2728 17.133 11.8981 16.8059 12.3428H16.8049V12.3447C16.8044 12.3454 16.8028 12.3456 16.802 12.3467C16.8003 12.349 16.7982 12.3524 16.7952 12.3565C16.789 12.3648 16.7803 12.3771 16.7688 12.3926C16.7458 12.4235 16.7119 12.4679 16.6692 12.5244C16.5839 12.6374 16.4617 12.7981 16.3118 12.9902C16.0126 13.3736 15.5998 13.8879 15.1506 14.4053C14.7056 14.9178 14.2048 15.456 13.7317 15.874C13.4964 16.0819 13.2448 16.2818 12.9914 16.4346C12.7654 16.5708 12.4105 16.75 12.0002 16.75C11.59 16.75 11.235 16.5708 11.009 16.4346C10.7557 16.2818 10.5041 16.0819 10.2688 15.874C9.79571 15.456 9.29481 14.9178 8.84984 14.4053C8.40063 13.8879 7.98785 13.3736 7.68871 12.9902C7.53874 12.7981 7.4166 12.6374 7.33128 12.5244C7.28862 12.4679 7.2547 12.4235 7.23167 12.3926C7.22016 12.3771 7.21148 12.3648 7.20531 12.3565C7.20225 12.3523 7.19918 12.349 7.19749 12.3467C7.19683 12.3458 7.19596 12.3453 7.19554 12.3447V12.3428H7.19457C6.86738 11.8981 6.96288 11.2718 7.40746 10.9444C7.85213 10.6172 8.47848 10.7127 8.80589 11.1572L8.80687 11.1592C8.80803 11.1608 8.81036 11.1628 8.81273 11.166C8.81776 11.1728 8.82496 11.1836 8.83519 11.1973C8.85583 11.225 8.88705 11.2665 8.92699 11.3194C9.00685 11.4251 9.1224 11.5772 9.26488 11.7598C9.55098 12.1264 9.94066 12.6122 10.3596 13.0947C10.5731 13.3407 10.7902 13.5794 11.0002 13.7988V3.25002Z" fill="#141B34"/>
<path d="M2.25018 14.25V12.249L2.25702 11.9922C2.3914 9.35186 4.57368 7.25158 7.24725 7.25002H7.25018C7.80231 7.25002 8.24992 7.69795 8.25018 8.25002C8.25018 8.8023 7.80247 9.25002 7.25018 9.25002H7.24823C5.59245 9.25109 4.2506 10.5942 4.25018 12.25V14.25C4.25018 15.4346 4.25125 16.2604 4.30585 16.9024C4.35941 17.5319 4.4591 17.8928 4.60468 18.1651C4.88435 18.6881 5.31308 19.1169 5.83612 19.3965C6.10835 19.5419 6.46868 19.6418 7.09784 19.6953C7.73977 19.7499 8.56568 19.75 9.75018 19.75H14.2502C15.4347 19.75 16.2606 19.7489 16.9025 19.6944C17.5319 19.6408 17.892 19.541 18.1642 19.3955C18.6875 19.1158 19.116 18.6873 19.3957 18.1641C19.5412 17.8919 19.641 17.5317 19.6945 16.9024C19.7491 16.2605 19.7502 15.4345 19.7502 14.25V12.25C19.7502 10.5932 18.407 9.25002 16.7502 9.25002C16.1979 9.25002 15.7502 8.8023 15.7502 8.25002C15.7502 7.69773 16.1979 7.25002 16.7502 7.25002C19.5116 7.25002 21.7502 9.48859 21.7502 12.25V14.25C21.7502 15.3999 21.7511 16.325 21.6877 17.0713C21.6232 17.83 21.4861 18.4951 21.1594 19.1065C20.6933 19.9784 19.9795 20.693 19.1076 21.1592C18.4962 21.486 17.8302 21.623 17.0715 21.6875C16.6985 21.7192 16.2808 21.7345 15.8127 21.7422L14.2502 21.75H9.75018C8.60029 21.75 7.67518 21.751 6.92889 21.6875C6.17005 21.623 5.50419 21.487 4.89276 21.1602C4.02089 20.6941 3.30711 19.9793 2.841 19.1074C2.51419 18.4961 2.37724 17.831 2.31268 17.0723C2.24918 16.3258 2.25018 15.4003 2.25018 14.25Z" fill="#141B34"/>
</svg>
