<svg width="24" height="24" viewBox="0 0 24 24" fill="none" xmlns="http://www.w3.org/2000/svg">
<path d="M9.26587 20.4991L4.94757 14.7965C4.23886 13.8909 4.23584 12.6047 4.94088 11.6956C5.7993 10.5887 7.39234 10.4292 8.44427 11.3593L8.46846 11.3807L9.41406 12.3741V3.99988C9.41406 2.61917 10.5334 1.49988 11.9141 1.49988C13.2948 1.49988 14.4141 2.61917 14.4141 3.99988V8.99739C16.2779 9.06052 18.9831 9.63603 21.0171 11.683C21.9531 12.625 22.0085 14.0028 21.8378 15.143C21.6616 16.3197 21.2112 17.4858 20.839 18.263C20.6476 18.6626 20.3709 19.2398 20.142 19.717L19.8059 20.4178V22.9999H9.26587V20.4991Z" fill="#141B34"/>
<path fill-rule="evenodd" clip-rule="evenodd" d="M19.0424 7.41434L22.2495 4.20723L19.0424 1.00012L17.6282 2.41434L18.4211 3.20723H16.3353V5.20723H18.4211L17.6282 6.00012L19.0424 7.41434Z" fill="#141B34"/>
<path fill-rule="evenodd" clip-rule="evenodd" d="M5.57843 5.20706L6.37132 5.99995L4.95711 7.41417L1.75 4.20706L4.95711 0.999953L6.37132 2.41417L5.57843 3.20706H7.66406V5.20706H5.57843Z" fill="#141B34"/>
</svg>
