<svg width="24" height="24" viewBox="0 0 24 24" fill="none" xmlns="http://www.w3.org/2000/svg">
<path opacity="0.4" d="M12.0952 8.3336L12.3066 11.0201L19.0681 4.41058C19.7384 3.75539 20.8251 3.75539 21.4953 4.41058C22.1656 5.06576 22.1656 6.12803 21.4953 6.78321L17.8545 10.3422L19.5954 12.6914C20.7322 14.1949 21.3007 14.9467 21.4895 15.683C21.8015 16.8992 21.6651 18.1345 20.6432 19.1335C19.9314 19.8292 19.2779 20.1241 17.5672 20.9602C16.4817 21.4907 15.939 21.756 15.3955 21.8547C14.5007 22.0172 13.5759 21.8705 12.7796 21.4397C12.2959 21.1781 11.8669 20.7587 11.0087 19.9198L10.2813 19.2087C9.14042 18.0935 8.56997 17.5359 8.27146 16.8348C8.21793 16.7091 8.17129 16.5807 8.13173 16.4501C7.91115 15.722 7.99417 14.9376 8.16019 13.3687L8.69767 8.28991C8.78027 7.50946 9.4083 6.89088 10.206 6.80423C11.1649 6.70009 12.0212 7.39332 12.0952 8.3336Z" fill="#141B34"/>
<path d="M12.0712 8.35947L12.2831 11.057L19.0614 4.4204C19.7333 3.76253 20.8227 3.76253 21.4946 4.4204C22.1665 5.07827 22.1665 6.14488 21.4946 6.80274L17.8448 10.3763L19.59 12.7351C20.7296 14.2447 21.2995 14.9996 21.4888 15.7389C21.8015 16.9601 21.6648 18.2005 20.6404 19.2035C19.9268 19.9021 19.2717 20.1982 17.5568 21.0377C16.4686 21.5704 15.9245 21.8368 15.3797 21.9359C14.4827 22.099 13.5556 21.9517 12.7573 21.5192C12.2724 21.2565 11.8423 20.8354 10.982 19.9931L10.2528 19.2791C9.10907 18.1593 8.5372 17.5994 8.23795 16.8954C8.18429 16.7692 8.13754 16.6403 8.09788 16.5092C7.87675 15.7781 7.95998 14.9905 8.12641 13.4152L8.66522 8.31561C8.74802 7.53196 9.37761 6.91085 10.1773 6.82385C11.1386 6.71928 11.997 7.41535 12.0712 8.35947Z" stroke="#141B34" stroke-width="1.5" stroke-linecap="round" stroke-linejoin="round"/>
<path d="M9.00407 3.51932C9.00407 4.35882 9.65714 5.03937 10.4626 5.03937C11.2681 5.03937 11.9211 4.35882 11.9211 3.51932C11.9211 2.67982 11.2681 1.99927 10.4626 1.99927C9.65714 1.99927 9.00407 2.67982 9.00407 3.51932ZM9.00407 3.51932H8.35861L7.5861 3.59188M3.49633 8.9704C4.33537 8.9566 4.97416 9.61475 4.98744 10.4296C5.00074 11.2445 4.37636 11.9458 3.53731 11.9595C2.69827 11.9734 2.01446 11.2857 2.00117 10.4709C1.98789 9.65596 2.65729 8.9842 3.49633 8.9704ZM3.49633 8.9704L3.58619 7.63176M5.28562 4.66095L4.95701 4.96915L4.66664 5.28319" stroke="#141B34" stroke-width="1.5" stroke-linecap="round" stroke-linejoin="round"/>
</svg>
