<svg width="24" height="24" viewBox="0 0 24 24" fill="none" xmlns="http://www.w3.org/2000/svg">
<path opacity="0.4" d="M8 7C8 4.79086 9.79086 3 12 3C14.2091 3 16 4.79086 16 7C16 9.20914 14.2091 11 12 11C9.79086 11 8 9.20914 8 7Z" fill="#141B34"/>
<path opacity="0.4" fill-rule="evenodd" clip-rule="evenodd" d="M2.45028 12.1648C2.91159 11.8612 3.53172 11.989 3.83539 12.4503C5.65982 15.2219 8.64882 17.0001 12.0001 17.0001C15.3514 17.0001 18.3404 15.2219 20.1648 12.4503C20.4685 11.989 21.0886 11.8612 21.5499 12.1648C22.0113 12.4685 22.1391 13.0886 21.8354 13.5499C19.6783 16.8268 16.0895 19.0001 12.0001 19.0001C7.91077 19.0001 4.32188 16.8268 2.16484 13.5499C1.86117 13.0886 1.98897 12.4685 2.45028 12.1648Z" fill="#141B34"/>
<path fill-rule="evenodd" clip-rule="evenodd" d="M13 2C13 1.44772 12.5523 1 12 1C11.4477 1 11 1.44772 11 2V3.12602C11.3196 3.04375 11.6547 3 12 3C12.3453 3 12.6804 3.04375 13 3.12602L13 2Z" fill="#141B34"/>
<path d="M8.63861 11.3528C8.53119 11.2697 8.3718 11.3077 8.31957 11.4331L4.07718 21.6148C3.86477 22.1246 4.10584 22.7101 4.61565 22.9225C5.12545 23.1349 5.71092 22.8938 5.92334 22.384L10.0903 12.3834C10.1345 12.2773 10.0803 12.1563 9.97356 12.114C9.49137 11.9227 9.04264 11.6653 8.63861 11.3528Z" fill="#141B34"/>
<path d="M14.027 12.114C13.9202 12.1563 13.8661 12.2773 13.9102 12.3834L18.0772 22.384C18.2896 22.8938 18.8751 23.1349 19.3849 22.9225C19.8947 22.7101 20.1358 22.1246 19.9233 21.6148L15.681 11.4331C15.6287 11.3078 15.4693 11.2698 15.3619 11.3528C14.9579 11.6653 14.5092 11.9227 14.027 12.114Z" fill="#141B34"/>
<path fill-rule="evenodd" clip-rule="evenodd" d="M12 16C12.5523 16 13 16.4477 13 17V19C13 19.5523 12.5523 20 12 20C11.4477 20 11 19.5523 11 19V17C11 16.4477 11.4477 16 12 16Z" fill="#141B34"/>
</svg>
