<svg width="24" height="24" viewBox="0 0 24 24" fill="none" xmlns="http://www.w3.org/2000/svg">
<path d="M8.99756 4V2.00049" stroke="#141B34" stroke-width="1.5" stroke-linejoin="round"/>
<path d="M14.9976 4V2.00049" stroke="#141B34" stroke-width="1.5" stroke-linejoin="round"/>
<path d="M13.9976 15.0039C13.9976 15.0039 15.9976 18.0046 15.9976 21.5055M9.99756 15.0039C9.99756 15.0039 7.99756 18.0046 7.99756 21.5055" stroke="#141B34" stroke-width="1.5" stroke-linejoin="round"/>
<path d="M9.00609 10.0003L7.00863 6.03172C7.00671 6.0279 7.00744 6.02328 7.01044 6.02023L9.00609 3.99575L12.0014 6.02533L14.9952 3.99512L17.0072 6.02021C17.0102 6.02326 17.011 6.02792 17.009 6.03175L14.9952 10.0003M9.00609 10.0003H14.9952M9.00609 10.0003C6.30779 12.1935 4 16.1263 4 19.9894C11.1799 23.6662 17.1243 21.4555 20 19.9793C20 15.2713 17.0123 11.7485 14.9952 10.0003" stroke="#141B34" stroke-width="1.5"/>
</svg>
