<svg width="24" height="24" viewBox="0 0 24 24" fill="none" xmlns="http://www.w3.org/2000/svg">
<path fill-rule="evenodd" clip-rule="evenodd" d="M8.12671 1.01045C8.34568 0.97396 8.56956 1.03634 8.7381 1.18081L11.75 3.76244L14.7619 1.18081C14.9305 1.03634 15.1543 0.97396 15.3733 1.01045L18.3733 1.51045C18.5275 1.53615 18.6698 1.60939 18.7803 1.71992L22.2803 5.21992C22.5396 5.47917 22.5734 5.88784 22.3603 6.18618L19.8603 9.68618C19.7429 9.8505 19.5643 9.96055 19.3647 9.99143C19.1651 10.0223 18.9616 9.97141 18.8 9.85025L17.4994 8.87482C17.1774 10.4296 17.3645 12.1132 17.7831 13.7901L19.261 19.2654C19.4759 20.0613 19.1038 20.9469 18.2726 21.2706C17.0898 21.7313 14.6802 22.5002 11.75 22.5002C9.14385 22.5002 6.57026 21.7147 5.30791 21.2663C4.44689 20.9604 4.02671 20.0519 4.25209 19.2169L5.71698 13.7901C6.13557 12.1132 6.32257 10.4296 6.00058 8.87482L4.70001 9.85025C4.53846 9.97141 4.33488 10.0223 4.13532 9.99143C3.93576 9.96055 3.75708 9.8505 3.63971 9.68618L1.13971 6.18618C0.926611 5.88784 0.960434 5.47917 1.21968 5.21992L4.71968 1.71992C4.83021 1.60939 4.97252 1.53615 5.12671 1.51045L8.12671 1.01045Z" fill="#141B34"/>
<path fill-rule="evenodd" clip-rule="evenodd" d="M11.75 11.2692C11.7031 11.2428 11.653 11.2169 11.6 11.1922C11.1758 10.9947 10.5573 10.879 9.8681 11.2038C8.97639 11.624 8.56513 12.6232 8.82874 13.5983C9.09532 14.5845 10.0001 15.4616 11.5306 15.9651C11.673 16.012 11.827 16.012 11.9695 15.9651C13.5 15.4616 14.4047 14.5845 14.6713 13.5983C14.9349 12.6232 14.5236 11.624 13.6319 11.2038C12.9427 10.879 12.3242 10.9947 11.9 11.1922C11.847 11.2169 11.7969 11.2428 11.75 11.2692Z" fill="white"/>
</svg>
