<svg width="24" height="24" viewBox="0 0 24 24" fill="none" xmlns="http://www.w3.org/2000/svg">
<path d="M21.5305 7.12846C21.8095 6.85098 21.8244 6.40604 21.5644 6.11082L17.8878 1.93533L13.75 1.25V2.12981C13.75 3.09026 12.9665 3.86887 12 3.86887C11.0335 3.86887 10.25 3.09026 10.25 2.12981V1.25L6.11217 1.93531L2.43557 6.1108C2.17562 6.40603 2.19046 6.85097 2.4695 7.12845L4.96951 9.61438C5.23351 9.8769 5.65164 9.90639 5.9503 9.68355L6.90174 8.9737L7.16836 11.322H16.8316L17.0983 8.97371L18.0497 9.68357C18.3484 9.9064 18.7665 9.87691 19.0305 9.61439L21.5305 7.12846Z" fill="#141B34"/>
<path d="M17.8101 12.8126H6.1899C5.92539 13.1475 5.64204 13.5445 5.35943 14.0057C4.29515 15.7424 3.25 18.3765 3.25 22.0047V22.75L20.75 22.75V22.0047C20.75 18.3765 19.7049 15.7424 18.6406 14.0057C18.358 13.5445 18.0746 13.1475 17.8101 12.8126Z" fill="#141B34"/>
</svg>
