<svg width="24" height="24" viewBox="0 0 24 24" fill="none" xmlns="http://www.w3.org/2000/svg">
<path opacity="0.4" fill-rule="evenodd" clip-rule="evenodd" d="M12 3C9.87842 3 8 4.92289 8 7.5C8 10.0771 9.87842 12 12 12C14.1216 12 16 10.0771 16 7.5C16 4.92289 14.1216 3 12 3ZM6 7.5C6 4.00197 8.59874 1 12 1C15.4013 1 18 4.00197 18 7.5C18 10.998 15.4013 14 12 14C8.59873 14 6 10.998 6 7.5Z" fill="#141B34"/>
<path d="M3.00011 13C3.00011 12.4477 3.44782 12 4.00011 12H20.0001C20.5524 12 21.0001 12.4477 21.0001 13C21.0001 13.5523 20.5524 14 20.0001 14V15.5474C20.2783 15.8415 20.5352 16.2359 20.6901 16.7205C20.9375 17.4943 20.903 18.4302 20.3945 19.4472C20.103 20.0302 20.1375 20.4277 20.2151 20.6705C20.3036 20.9474 20.4793 21.1176 20.5548 21.1679C21.0143 21.4743 21.1385 22.0952 20.8322 22.5547C20.5258 23.0142 19.9049 23.1384 19.4454 22.8321C19.0209 22.5491 18.5466 22.0193 18.3101 21.2795C18.0627 20.5057 18.0972 19.5698 18.6057 18.5528C18.8972 17.9698 18.8627 17.5723 18.7851 17.3295C18.7416 17.1933 18.677 17.083 18.6136 17H5.38662C5.32323 17.083 5.25864 17.1933 5.21512 17.3295C5.13749 17.5723 5.10303 17.9698 5.39453 18.5528C5.90303 19.5698 5.93749 20.5057 5.69012 21.2795C5.45364 22.0193 4.97927 22.5491 4.55481 22.8321C4.09528 23.1384 3.47441 23.0142 3.16806 22.5547C2.8617 22.0952 2.98588 21.4743 3.44541 21.1679C3.52095 21.1176 3.69658 20.9474 3.78509 20.6705C3.86272 20.4277 3.89718 20.0302 3.60568 19.4472C3.09718 18.4302 3.06272 17.4943 3.31009 16.7205C3.46499 16.2359 3.72196 15.8415 4.00011 15.5474V14C3.44782 14 3.00011 13.5523 3.00011 13Z" fill="#141B34"/>
<path fill-rule="evenodd" clip-rule="evenodd" d="M13.5303 8.53033C13.8232 8.23744 13.8232 7.76256 13.5303 7.46967C13.2374 7.17678 12.7626 7.17678 12.4697 7.46967L10.9697 8.96967C10.6768 9.26256 10.6768 9.73744 10.9697 10.0303C11.2626 10.3232 11.7374 10.3232 12.0303 10.0303L13.5303 8.53033ZM13.0303 6.03033C13.3232 5.73744 13.3232 5.26256 13.0303 4.96967C12.7374 4.67678 12.2626 4.67678 11.9697 4.96967L10.4697 6.46967C10.1768 6.76256 10.1768 7.23744 10.4697 7.53033C10.7626 7.82322 11.2374 7.82322 11.5303 7.53033L13.0303 6.03033Z" fill="#141B34"/>
</svg>
