<svg width="24" height="24" viewBox="0 0 24 24" fill="none" xmlns="http://www.w3.org/2000/svg">
<path opacity="0.4" d="M2.67865 7.6525C4.47832 4.33014 6.60648 2.70147 7.87394 2.1107C8.31641 1.90446 8.5191 1.9867 8.83203 2.35489C9.6968 3.37239 10.764 4.6807 12.0946 4.6807C13.4252 4.6807 14.4924 3.37239 15.3572 2.35489C15.6701 1.9867 15.8728 1.90446 16.3153 2.1107C17.5827 2.70147 19.7109 4.33014 21.5106 7.6525C21.8337 8.24898 21.9952 8.54721 21.9987 9.09665C22.0116 11.1062 19.8963 13 18.0371 13C17.5419 15 19.5228 17 19.0275 20C17.0467 21.3333 11.5004 23.2 5.16168 20C4.66647 17.5 6.15209 15.4 6.15209 13C4.29288 13 2.17765 11.1062 2.19049 9.09665C2.19399 8.54721 2.35555 8.24898 2.67865 7.6525Z" fill="#141B34"/>
<path d="M6.31456 13C4.07072 12.791 2.24182 11.3282 2.01096 9.23853C1.97812 8.9413 2.0278 8.64273 2.13774 8.36431C2.8457 6.57132 4.82597 3.53054 7.86071 2.04751C8.06761 1.9464 8.31459 2.01201 8.45489 2.19362C9.20717 3.1674 10.5032 4.6846 11.9052 4.6846C13.3071 4.6846 14.6032 3.1674 15.3554 2.19362C15.4957 2.01201 15.7427 1.9464 15.9496 2.04751C18.9844 3.53054 20.9646 6.57132 21.6726 8.36431C21.7825 8.64273 21.8322 8.9413 21.7993 9.23853C21.5685 11.3282 19.7589 12.7881 17.515 12.9972" stroke="#141B34" stroke-width="1.5" stroke-linecap="round" stroke-linejoin="round"/>
<path d="M5.34552 9C9.02604 12.6459 3.318 17.3573 5.81973 20.5594C7.20442 22.3318 16.7574 22.623 18.3696 20.5594C20.87 17.359 15.1766 12.6531 18.8439 9" stroke="#141B34" stroke-width="1.5" stroke-linecap="round" stroke-linejoin="round"/>
</svg>
