<svg width="24" height="24" viewBox="0 0 24 24" fill="none" xmlns="http://www.w3.org/2000/svg">
<path fill-rule="evenodd" clip-rule="evenodd" d="M1.25 3.71154C1.25 3.1805 1.68754 2.75 2.22727 2.75H21.7727C22.3125 2.75 22.75 3.1805 22.75 3.71154V15.25H20.7955V4.67308H3.20455V15.25H1.25V3.71154Z" fill="#141B34"/>
<path fill-rule="evenodd" clip-rule="evenodd" d="M13.5 8H10.5V6H13.5V8Z" fill="#141B34"/>
<path fill-rule="evenodd" clip-rule="evenodd" d="M17.0105 10.0778C13.8877 9.3074 10.1124 9.3074 6.98956 10.0778C6.18823 10.2755 5.58012 10.8634 5.30418 11.6148C4.88753 12.7493 4.41487 14.6465 4.25469 17.2063C4.18433 18.3308 4.91752 19.1392 5.60816 19.67C6.22122 20.1412 6.96475 20.518 7.51524 20.7969L7.51674 20.7977C7.59624 20.838 7.67171 20.8762 7.74217 20.9124L8.39902 21.2498L9.9497 18.3447H14.0642L15.7034 21.2416L16.3443 20.9124C16.3944 20.8866 16.4468 20.8599 16.5011 20.8322C17.0595 20.5472 17.8219 20.1581 18.4451 19.6623C19.1221 19.1235 19.8149 18.3163 19.7454 17.2063C19.5852 14.6465 19.1126 12.7493 18.6959 11.6148C18.42 10.8634 17.8119 10.2755 17.0105 10.0778ZM9.00703 15.2477C9.55931 15.2477 10.007 14.8002 10.007 14.2481C10.007 13.6961 9.55931 13.2485 9.00703 13.2485H8.99805C8.44576 13.2485 7.99805 13.6961 7.99805 14.2481C7.99805 14.8002 8.44576 15.2477 8.99805 15.2477H9.00703ZM15.007 15.2477C15.5593 15.2477 16.007 14.8002 16.007 14.2481C16.007 13.6961 15.5593 13.2485 15.007 13.2485H14.998C14.4458 13.2485 13.998 13.6961 13.998 14.2481C13.998 14.8002 14.4458 15.2477 14.998 15.2477H15.007Z" fill="#141B34"/>
</svg>
