<svg width="24" height="24" viewBox="0 0 24 24" fill="none" xmlns="http://www.w3.org/2000/svg">
<path opacity="0.4" d="M14.3818 1.51758C14.4521 1.63547 14.5099 1.75027 14.5557 1.85997C14.8718 2.46227 14.9856 3.15897 14.8086 3.81096C14.6221 4.49763 14.1297 5.06519 13.3781 5.363C13.0448 5.49504 12.9322 5.62171 12.8832 5.69582C12.8226 5.78722 12.7878 5.90153 12.7424 6.15096L12.73 6.2204C12.6913 6.4408 12.6319 6.77945 12.472 7.10204C12.2755 7.49855 11.9537 7.83691 11.4529 8.1015C10.0792 8.82724 8.22486 8.52531 6.55932 6.76545C5.75334 5.91383 5.45165 5.67373 4.91074 5.61664C4.90064 5.61557 4.89056 5.6143 4.88051 5.61283C4.54258 5.56322 3.86155 5.60633 3.09474 5.97939C1.93058 7.69747 1.25 9.77096 1.25 12.0026C1.25 17.8522 5.92204 22.6105 11.7381 22.7495C11.6633 22.694 11.5963 22.6419 11.5377 22.5943C10.925 22.1352 10.5804 21.5623 10.5448 20.8993C10.5115 20.2809 10.7568 19.711 11.0246 19.2505C11.4151 18.579 11.5337 18.3619 11.5951 18.1156C11.6603 17.8541 11.6657 17.5401 11.6657 16.6472C11.6657 16.1549 11.7376 15.6587 11.958 15.2152C12.1872 14.754 12.554 14.3971 13.0535 14.1662C13.988 13.7344 15.3453 13.7643 17.1462 14.1245C17.353 14.1658 17.5705 14.1346 17.8568 14.0168C18.0947 13.919 18.322 13.7888 18.6019 13.6284C18.6893 13.5784 18.7818 13.5254 18.8813 13.4696C19.6649 13.0299 20.736 12.5071 22.105 12.9882C22.1378 12.9997 22.1696 13.0135 22.2005 13.0294C22.3303 13.0964 22.4902 13.1953 22.6692 13.3264C22.7226 12.8924 22.75 12.4506 22.75 12.0026C22.75 6.88357 19.1726 2.60158 14.3818 1.51758Z" fill="#141B34"/>
<path d="M11.9513 1.25195C12.7213 1.68974 13.0826 2.21084 13.1775 2.45218C13.1888 2.48079 13.2018 2.50867 13.2164 2.53569C13.3951 2.8647 13.4248 3.18164 13.3609 3.41707C13.3025 3.63208 13.1527 3.83802 12.8254 3.96768C12.2787 4.1843 11.8889 4.47952 11.6324 4.86687C11.3873 5.23693 11.3135 5.62366 11.2665 5.8812L11.2594 5.92038C11.211 6.18666 11.1877 6.3145 11.1279 6.43516C11.084 6.52383 11.001 6.64293 10.7521 6.77442C10.1265 7.10492 8.98199 7.14244 7.64865 5.73359C6.87835 4.91967 6.23126 4.25203 5.08288 4.12573C4.97057 4.10991 4.84734 4.0998 4.71484 4.09666C6.61862 2.34146 9.15988 1.26433 11.9513 1.25195Z" fill="#141B34"/>
<path d="M22.3242 15.0062C22.0021 14.6825 21.7166 14.4772 21.5552 14.3849C20.866 14.1624 20.3205 14.3812 19.6152 14.7769C19.5473 14.815 19.4756 14.8562 19.4009 14.8991C19.1066 15.0682 18.765 15.2644 18.4272 15.4033C17.9779 15.5881 17.4474 15.7136 16.8519 15.5945C15.0813 15.2404 14.1469 15.3125 13.6826 15.5271C13.4827 15.6194 13.3733 15.7368 13.3011 15.882C13.2202 16.0448 13.1656 16.2871 13.1656 16.6464L13.1656 16.7466C13.1658 17.5014 13.1659 18.0142 13.0505 18.4776C12.9314 18.9552 12.6946 19.362 12.3655 19.9276L12.3211 20.0037C12.1058 20.374 12.0326 20.6349 12.0425 20.818C12.0497 20.9512 12.1044 21.1466 12.4455 21.3994C12.4553 21.4066 12.4648 21.4141 12.4742 21.4218C12.8015 21.6899 13.4891 22.1475 14.3175 22.5014C18.1624 21.6566 21.2354 18.7537 22.3242 15.0062Z" fill="#141B34"/>
</svg>
