<svg width="24" height="24" viewBox="0 0 24 24" fill="none" xmlns="http://www.w3.org/2000/svg">
<path d="M18.584 2.25L19.5 2.65115C20.4162 3.05197 20.4159 3.05267 20.4159 3.05267L20.414 3.05696L20.4092 3.06775L20.392 3.10635C20.3771 3.13952 20.3554 3.18741 20.327 3.24906C20.2703 3.37234 20.1867 3.55067 20.0769 3.77621C19.8575 4.22713 19.5332 4.86757 19.1098 5.63447C18.2643 7.16591 17.0172 9.51294 15.413 11.5662C12.2489 15.6163 7.4892 19.9506 1.5 19.9506V17.9506C6.5108 17.9506 10.7511 14.2849 13.837 10.3349C15.3578 8.38823 16.5482 6.13639 17.3589 4.66783C17.7637 3.93474 18.0722 3.32517 18.2785 2.9011C18.3817 2.68913 18.584 2.25 18.584 2.25Z" fill="#141B34"/>
<path d="M16.6707 17.75C17.0825 16.5848 18.1938 15.75 19.5 15.75C21.1569 15.75 22.5 17.0931 22.5 18.75C22.5 20.4069 21.1569 21.75 19.5 21.75C18.1938 21.75 17.0825 20.9152 16.6707 19.75L14.5 19.75V17.75H16.6707Z" fill="#141B34"/>
<path d="M12.5 19.75H10.5V17.75H12.5V19.75Z" fill="#141B34"/>
</svg>
