<svg width="24" height="24" viewBox="0 0 24 24" fill="none" xmlns="http://www.w3.org/2000/svg">
<path fill-rule="evenodd" clip-rule="evenodd" d="M2.54285 2.54289C2.93337 2.15237 3.56654 2.15237 3.95706 2.54289L21.4571 20.0429C21.8476 20.4334 21.8476 21.0666 21.4571 21.4571C21.0665 21.8476 20.4334 21.8476 20.0428 21.4571L2.54285 3.95711C2.15232 3.56658 2.15232 2.93342 2.54285 2.54289Z" fill="#141B34"/>
<path d="M9.4695 9.46969L2.76243 16.1768C2.43424 16.505 2.24986 16.9501 2.24986 17.4142V21C2.24986 21.4142 2.58565 21.75 2.99986 21.75H6.58565C7.04978 21.75 7.4949 21.5656 7.82309 21.2374L14.5302 14.5303L9.4695 9.46969Z" fill="#141B34"/>
<path d="M16.2979 12.7626L18.4999 10.5606L13.4392 5.49999L11.2373 7.70192L16.2979 12.7626Z" fill="#141B34"/>
<path d="M16.1766 2.76256C16.86 2.07914 17.9681 2.07915 18.6515 2.76256L21.2373 5.34835C21.9207 6.03177 21.9207 7.13981 21.2373 7.82323L19.5605 9.49999L14.4999 4.43933L16.1766 2.76256Z" fill="#141B34"/>
</svg>
