<svg width="24" height="24" viewBox="0 0 24 24" fill="none" xmlns="http://www.w3.org/2000/svg">
<path d="M20.1476 12.5542C19.4451 12.1486 18.5794 12.1486 17.8769 12.5542C17.6153 12.7053 17.381 12.94 17.1079 13.2137L13.7403 16.5814C13.275 17.0467 13.0575 17.6086 12.9286 18.1134C12.8643 18.3654 12.8184 18.6186 12.7788 18.8483L12.758 18.9693C12.7256 19.1582 12.6965 19.3285 12.6608 19.4955L12.6513 19.5398C12.5858 19.8458 12.5202 20.152 12.5041 20.4052C12.4864 20.6842 12.5137 21.0887 12.8375 21.4124C13.1613 21.7362 13.5657 21.7636 13.8447 21.7458C14.0979 21.7297 14.4041 21.6642 14.7101 21.5986L14.7545 21.5891C14.9214 21.5534 15.0917 21.5243 15.2807 21.4919L15.4016 21.4712C15.6313 21.4315 15.8845 21.3856 16.1365 21.3213C16.6413 21.1924 17.2032 20.975 17.6685 20.5097L21.0362 17.1421C21.3099 16.8689 21.5447 16.6347 21.6957 16.3731C22.1013 15.6705 22.1013 14.8049 21.6957 14.1023C21.5447 13.8407 21.3099 13.6064 21.0362 13.3333L20.9764 13.2735L20.9166 13.2137C20.6435 12.94 20.4092 12.7053 20.1476 12.5542Z" fill="#141B34"/>
<path fill-rule="evenodd" clip-rule="evenodd" d="M3 2C3.55228 2 4 2.44772 4 3V21C4 21.5523 3.55228 22 3 22C2.44772 22 2 21.5523 2 21V3C2 2.44772 2.44772 2 3 2Z" fill="#141B34"/>
<path fill-rule="evenodd" clip-rule="evenodd" d="M16 2C16.5523 2 17 2.44772 17 3V10.5C17 11.0523 16.5523 11.5 16 11.5C15.4477 11.5 15 11.0523 15 10.5V3C15 2.44772 15.4477 2 16 2Z" fill="#141B34"/>
<path fill-rule="evenodd" clip-rule="evenodd" d="M9.5 2C10.0523 2 10.5 2.44772 10.5 3V7C10.5 7.55228 10.0523 8 9.5 8C8.94772 8 8.5 7.55228 8.5 7V3C8.5 2.44772 8.94772 2 9.5 2ZM9.5 9C10.0523 9 10.5 9.44772 10.5 10L10.5 14C10.5 14.5523 10.0523 15 9.5 15C8.94772 15 8.5 14.5523 8.5 14V10C8.5 9.44772 8.94772 9 9.5 9ZM10.5 17C10.5 16.4477 10.0523 16 9.5 16C8.94772 16 8.5 16.4477 8.5 17V21C8.5 21.5523 8.94772 22 9.5 22C10.0523 22 10.5 21.5523 10.5 21L10.5 17Z" fill="#141B34"/>
</svg>
