<svg width="24" height="24" viewBox="0 0 24 24" fill="none" xmlns="http://www.w3.org/2000/svg">
<path opacity="0.4" fill-rule="evenodd" clip-rule="evenodd" d="M8.88245 9.57316C9.11823 9.2326 9.58544 9.14765 9.926 9.38342L11.9991 10.8186L14.0722 9.38342C14.4128 9.14765 14.88 9.2326 15.1157 9.57316C15.3515 9.91372 15.2666 10.3809 14.926 10.6167L13.3167 11.7308L16.426 13.8834C16.6291 14.024 16.75 14.2557 16.7491 14.5027C16.7482 14.7498 16.6257 14.9806 16.4216 15.1197L13.3305 17.2273L19.4216 21.3804C19.7638 21.6137 19.8521 22.0803 19.6188 22.4226C19.3854 22.7648 18.9188 22.8531 18.5766 22.6197L11.9991 18.1351L5.4216 22.6197C5.07936 22.8531 4.61277 22.7648 4.37943 22.4226C4.14608 22.0803 4.23436 21.6137 4.57659 21.3804L10.6677 17.2273L7.57659 15.1197C7.37247 14.9806 7.24998 14.7498 7.2491 14.5027C7.24822 14.2557 7.36906 14.024 7.57219 13.8834L10.6815 11.7308L9.07219 10.6167C8.73163 10.3809 8.64668 9.91372 8.88245 9.57316ZM11.9991 12.643L9.32353 14.4953L11.9991 16.3196L14.6747 14.4953L11.9991 12.643Z" fill="#141B34"/>
<path fill-rule="evenodd" clip-rule="evenodd" d="M15.1804 5.31708C14.9301 5.24926 14.6717 5.24966 14.4101 5.25006H9.5902C9.32861 5.24966 9.07023 5.24926 8.81997 5.31708C8.56387 5.38648 8.3461 5.51898 8.13393 5.64807L3.63926 8.37202C3.41168 8.509 3.15453 8.66378 2.9703 8.89136C2.77511 9.13247 2.67348 9.47585 2.60558 9.70544L2.28183 10.7846C2.1628 11.1814 2.38794 11.5995 2.78469 11.7185C3.18143 11.8375 3.59954 11.6124 3.71857 11.2156L4.14036 9.75012H19.86L20.2818 11.2156C20.4008 11.6124 20.8189 11.8375 21.2156 11.7185C21.6124 11.5995 21.8375 11.1814 21.7185 10.7846L21.3948 9.70544C21.3269 9.47585 21.2252 9.13247 21.03 8.89136C20.8458 8.66378 20.5887 8.509 20.3611 8.37202L15.8664 5.64807C15.6542 5.51898 15.4365 5.38648 15.1804 5.31708ZM14.7879 6.76489L17.2655 8.25015H6.73462L9.21219 6.76489H14.7879Z" fill="#141B34"/>
<path fill-rule="evenodd" clip-rule="evenodd" d="M21 22.75C21.4142 22.75 21.75 22.4142 21.75 22C21.75 21.5858 21.4142 21.25 21 21.25H19.5358L15.4282 9.26663C15.3236 8.96136 15.2946 8.64623 15.3403 8.33645L15.7381 6.13327C15.7713 5.94981 15.7349 5.76059 15.6361 5.6025L14.2073 3.31645C13.8654 2.76928 13.5672 2.29208 13.2874 1.95826C13.0007 1.61613 12.5923 1.25 12.0001 1.25C11.4078 1.25 10.9995 1.61613 10.7127 1.95826C10.433 2.29208 10.1348 2.76923 9.79288 3.3164L8.36407 5.6025C8.26526 5.76059 8.22887 5.94981 8.262 6.13327L8.65983 8.33645C8.7055 8.64623 8.67653 8.96136 8.57189 9.26663L4.46431 21.25H3C2.58579 21.25 2.25 21.5858 2.25 22C2.25 22.4142 2.58579 22.75 3 22.75H21ZM11.0361 4.15742C11.4154 3.55054 11.7961 3.02011 12.0001 2.77661C12.2042 3.02011 12.5848 3.55054 12.9641 4.15742L14.2106 6.15174L13.8623 8.08078L13.8589 8.1011C13.7743 8.65643 13.8264 9.21908 14.0094 9.75293L17.9502 21.2499H6.05005L9.99091 9.75293C10.1739 9.21908 10.226 8.65643 10.1414 8.1011L10.138 8.08078L9.78968 6.15174L11.0361 4.15742Z" fill="#141B34"/>
</svg>
