<svg width="24" height="24" viewBox="0 0 24 24" fill="none" xmlns="http://www.w3.org/2000/svg">
<path d="M13.3483 2.37613C13.9203 2.6321 14.2902 3.22532 14.2902 3.91539V10.173C14.2902 10.2566 14.3191 10.3116 14.3392 10.3355L14.3401 10.3365H17.228C17.9557 10.3365 18.4372 10.8489 18.6307 11.3566C18.8254 11.8674 18.8005 12.5222 18.4086 13.0504L12.4101 21.1351C11.9661 21.7335 11.2512 21.8924 10.6512 21.6239C10.0793 21.368 9.70932 20.7747 9.70932 20.0847V13.8271C9.70932 13.7435 9.68044 13.6884 9.66033 13.6646L9.65947 13.6636H6.77151C6.04386 13.6636 5.56235 13.1511 5.36884 12.6435C5.17416 12.1327 5.19905 11.4778 5.59097 10.9496L11.5895 2.865C12.0335 2.26658 12.7484 2.10762 13.3483 2.37613Z" fill="#141B34"/>
</svg>
