<svg width="24" height="24" viewBox="0 0 24 24" fill="none" xmlns="http://www.w3.org/2000/svg">
<path d="M13.737 2.28829C14.0433 2.39038 14.2499 2.67698 14.2499 2.9998V10.25H17.9999C18.2839 10.25 18.5436 10.4105 18.6707 10.6645C18.7977 10.9186 18.7703 11.2227 18.5999 11.45L11.1 21.4498C10.9063 21.7081 10.5691 21.8134 10.2628 21.7113C9.95658 21.6092 9.75 21.3226 9.75 20.9998V13.7498H6C5.71593 13.7498 5.45623 13.5893 5.32919 13.3352C5.20214 13.0811 5.22956 12.7771 5.4 12.5498L12.8998 2.54981C13.0935 2.29155 13.4308 2.18621 13.737 2.28829Z" fill="#141B34"/>
</svg>
