<svg width="24" height="24" viewBox="0 0 24 24" fill="none" xmlns="http://www.w3.org/2000/svg">
<path d="M16.5313 6.96967C16.2384 6.67678 15.7635 6.67678 15.4706 6.96967L11.7502 10.6901L18.3112 17.2504L22.0313 13.5303C22.3242 13.2374 22.3242 12.7626 22.0313 12.4697L16.5313 6.96967Z" fill="#141B34"/>
<path d="M17.2505 18.3111L10.6895 11.7508L5.47065 16.9697C5.17775 17.2626 5.17775 17.7374 5.47065 18.0303L9.69032 22.25H13.3116L17.2505 18.3111Z" fill="#141B34"/>
<path fill-rule="evenodd" clip-rule="evenodd" d="M4.94481 1.75H6.93391L10.1287 9.20456L8.75 9.79544L7.87338 7.75H4.00533L3.12872 9.79544L1.75 9.20456L4.94481 1.75ZM4.64819 6.25H7.23053L5.94481 3.25H5.93391L4.64819 6.25Z" fill="#141B34"/>
</svg>
