<svg width="24" height="24" viewBox="0 0 24 24" fill="none" xmlns="http://www.w3.org/2000/svg">
<path fill-rule="evenodd" clip-rule="evenodd" d="M5.62522 1.125C6.00399 1.125 6.35025 1.339 6.51965 1.67779L10.0196 8.67779C10.2666 9.17176 10.0664 9.77244 9.57243 10.0194C9.07845 10.2664 8.47778 10.0662 8.23079 9.57221L7.25217 7.61498H3.99826L3.01965 9.57221C2.77266 10.0662 2.17198 10.2664 1.67801 10.0194C1.18403 9.77244 0.983803 9.17176 1.23079 8.67779L4.73079 1.67779C4.90018 1.339 5.24645 1.125 5.62522 1.125ZM4.99827 5.61498H6.25217L5.62522 4.36107L4.99827 5.61498Z" fill="#141B34"/>
<path d="M17.1162 7.37512C17.0986 7.37496 17.081 7.37496 17.0634 7.37512C16.4089 7.38126 15.8676 7.65944 15.3524 8.0561C14.8627 8.4331 14.3179 8.98086 13.6615 9.64071L12.5811 10.7269C12.3826 10.9265 12.2833 11.0263 12.2833 11.1501C12.2833 11.2739 12.3826 11.3736 12.5811 11.5732L18.7082 17.7328C18.9086 17.9343 19.0088 18.0351 19.1335 18.0351C19.2583 18.0351 19.3585 17.9343 19.5589 17.7328L20.591 16.6952C21.258 16.0248 21.8109 15.4689 22.1912 14.9691C22.5916 14.4428 22.8688 13.8937 22.8749 13.2314C22.875 13.2136 22.875 13.1957 22.8749 13.1779C22.8688 12.5156 22.5916 11.9665 22.1912 11.4402C21.8109 10.9404 21.258 10.3846 20.5911 9.71414L20.518 9.6407C19.8617 8.98086 19.3169 8.43309 18.8272 8.0561C18.3119 7.65944 17.7707 7.38126 17.1162 7.37512Z" fill="#141B34"/>
<path d="M17.6548 19.6471C17.8533 19.4476 17.9526 19.3478 17.9526 19.224C17.9526 19.1002 17.8533 19.0004 17.6548 18.8008L11.5277 12.6412C11.3272 12.4397 11.227 12.3389 11.1023 12.3389C10.9776 12.3389 10.8773 12.4397 10.6769 12.6412L8.67623 14.6525C8.00108 15.3312 7.44138 15.8938 7.05744 16.4C6.65309 16.9331 6.375 17.4896 6.375 18.1604C6.375 18.8312 6.65309 19.3877 7.05744 19.9208C7.44138 20.427 8.42745 21.4185 9.1026 22.0972C9.34365 22.3408 9.59774 22.5976 9.93196 22.7371C10.2672 22.8771 10.6281 22.8761 10.9686 22.8752H13.3518C13.6924 22.8761 14.0532 22.8771 14.3885 22.7371C14.7227 22.5976 14.9768 22.3408 15.2178 22.0972L17.6548 19.6471Z" fill="#141B34"/>
</svg>
