<svg width="24" height="24" viewBox="0 0 24 24" fill="none" xmlns="http://www.w3.org/2000/svg">
<path d="M2.25009 20.75H16.75C17.3023 20.75 17.75 21.1977 17.75 21.75C17.75 22.3023 17.3023 22.75 16.75 22.75H2.25009C1.69781 22.75 1.25009 22.3023 1.25009 21.75C1.25009 21.1977 1.69781 20.75 2.25009 20.75Z" fill="#141B34"/>
<path d="M20.9029 4.92134C21.1108 4.81729 21.4486 4.68163 21.8362 4.78942C22.0104 4.83784 22.1723 4.92344 22.3106 5.04073C22.6202 5.30335 22.6946 5.66236 22.7227 5.89312C22.7501 6.11859 22.75 6.39959 22.75 6.68775L22.75 7.44378V7.44379C22.75 7.57177 22.7501 7.71879 22.7366 7.8481C22.7204 8.00299 22.6803 8.19329 22.5614 8.38366C22.4428 8.57354 22.2897 8.69298 22.1587 8.7755C22.0486 8.84477 21.7043 9.01504 21.5883 9.07235L20.9089 10.7528C20.7862 11.0563 20.5769 11.306 20.317 11.4796C20.3809 11.8179 20.5473 12.7059 20.604 13.0638C20.7255 13.8318 20.8083 14.6659 20.6988 15.4799C20.4811 17.0983 19.2081 18.3681 17.583 18.678C17.2039 18.7503 16.7596 18.7502 16.0889 18.75H16.0889L16 18.75V17.25C16.7916 17.25 17.0811 17.2466 17.302 17.2045C18.3369 17.0072 19.0863 16.2156 19.2122 15.2799C19.2924 14.6839 19.2368 14.0212 19.1224 13.2983C19.0694 12.9636 18.8758 11.9202 18.811 11.5775C18.4762 11.3729 18.25 11.0055 18.25 10.5797L18.2499 8.82263C18.2492 8.11967 18.2486 7.56093 18.4601 7.05538C18.5299 6.88863 18.6161 6.72925 18.7175 6.57954C19.0243 6.12651 19.4924 5.81846 20.0843 5.42886C20.3271 5.26866 20.6991 5.02333 20.9029 4.92134Z" fill="#141B34"/>
<path fill-rule="evenodd" clip-rule="evenodd" d="M11.0164 1.25H7.98372C6.90114 1.24997 5.99222 1.24994 5.26949 1.34806C4.50421 1.45197 3.80445 1.68172 3.24099 2.25073C2.67754 2.81973 2.45003 3.52639 2.34714 4.29921C2.24997 5.02907 2.25 5.94679 2.25003 7.04005V7.04009L2.25004 10.9986L2.25003 11L2.25004 11.0014L2.25004 21.45C2.25004 21.6157 2.38435 21.75 2.55004 21.75H16.45C16.6157 21.75 16.75 21.6157 16.75 21.45L16.75 11.0015L16.75 11L16.75 10.9985L16.75 7.04017C16.7501 5.94686 16.7501 5.0291 16.6529 4.29921C16.55 3.52639 16.3225 2.81973 15.7591 2.25073C15.1956 1.68172 14.4959 1.45197 13.7306 1.34806C13.0079 1.24994 12.099 1.24997 11.0164 1.25ZM14.8167 9.95001V7.10716C14.8167 5.92911 14.8146 5.14378 14.7368 4.55937C14.6627 4.00304 14.5363 3.77707 14.392 3.63127C14.2476 3.48548 14.0238 3.35784 13.4729 3.28304C12.8942 3.20447 12.1166 3.2024 10.95 3.2024H8.05001C6.88346 3.2024 6.10579 3.20447 5.52708 3.28304C4.97618 3.35784 4.75241 3.48548 4.60804 3.63127C4.46367 3.77707 4.33727 4.00304 4.2632 4.55937C4.1854 5.14378 4.18335 5.92911 4.18335 7.10716V9.95001C4.18335 10.1157 4.31766 10.25 4.48335 10.25H14.5167C14.6824 10.25 14.8167 10.1157 14.8167 9.95001ZM10.7764 14.5343C11.0715 14.2435 11.075 13.7687 10.7843 13.4736C10.4936 13.1786 10.0187 13.175 9.72364 13.4657L7.73073 15.4326L7.73073 15.4326C7.63443 15.5364 7.50519 15.6756 7.41914 15.8069C7.36999 15.8818 7.28768 16.022 7.25971 16.2083C7.22606 16.4325 7.28033 16.6607 7.41963 16.8482C7.66602 17.1799 8.04723 17.2206 8.16719 17.2334C8.32405 17.2501 8.51986 17.2501 8.7063 17.25H8.7064L9.45298 17.25L8.21283 18.4641C7.91684 18.7538 7.91179 19.2287 8.20155 19.5247C8.49132 19.8207 8.96616 19.8257 9.26215 19.5359L11.2693 17.5674C11.3656 17.4637 11.4948 17.3244 11.5809 17.1931C11.63 17.1182 11.7124 16.978 11.7403 16.7917C11.774 16.5675 11.7197 16.3393 11.5804 16.1518C11.334 15.8201 10.9528 15.7794 10.8328 15.7666C10.6759 15.7499 10.4801 15.7499 10.2936 15.75L9.54246 15.75L10.7764 14.5343Z" fill="#141B34"/>
</svg>
