<svg width="24" height="24" viewBox="0 0 24 24" fill="none" xmlns="http://www.w3.org/2000/svg">
<path opacity="0.4" d="M11.3571 16.5371C11.6146 16.3205 11.9094 16.1506 12.2227 16.0461C14.25 15.4093 13.125 13.8868 14.9637 13.2862C16.3826 12.8228 15.9474 12.041 16.5 11.381M10.0714 13.959C10.2696 13.8017 10.5064 13.69 10.7675 13.6378C11.843 13.4324 11.6797 11.7862 12.8218 11.5665C13.6076 11.4072 13.5198 10.6097 13.9285 10.092M7.5 12.6701C7.60488 12.2429 8.05224 12.2834 8.36559 12.1791C10.3125 11.4616 9.1875 9.76981 11.1065 9.41919C12.5625 9.20587 12 8.07798 12.6429 7.51404" stroke="#141B34" stroke-width="1.5" stroke-linecap="round"/>
<path d="M2.00391 15.3671L8.6739 22.0517M2.64858 16.0132L3.52217 15.191C3.93724 14.8013 4.37664 14.3558 4.94393 14.3151C5.46674 14.2776 6.17524 14.5569 8.12088 15.2427C8.76654 15.4703 9.56577 17.505 9.68545 18.8504C9.74318 19.4994 9.3546 20.0531 8.90346 20.5229L8.12088 21.433M15.3689 2.05347L22.0059 8.77108M16.0637 2.75663L15.1857 3.57417C14.7949 3.98822 14.3481 4.42637 14.3047 4.99469C14.2648 5.51845 14.5399 6.22988 15.2146 8.18316C15.4384 8.83102 17.4627 9.64155 18.8045 9.76879C19.4532 9.83031 20.0085 9.44316 20.4799 8.99296L21.425 8.18316" stroke="#141B34" stroke-width="1.5" stroke-linecap="round" stroke-linejoin="round"/>
</svg>
