<svg width="24" height="24" viewBox="0 0 24 24" fill="none" xmlns="http://www.w3.org/2000/svg">
<path d="M9.00876 5.30078L8.74411 2.91699C8.70182 2.53735 8.38098 2.25012 7.999 2.25H3.999C3.6188 2.25 3.29846 2.53454 3.25388 2.91211L2.97165 5.30078H9.00876Z" fill="#141B34"/>
<path d="M9.99899 21.75C10.2122 21.7499 10.4154 21.6589 10.5576 21.5C10.6998 21.3411 10.7677 21.129 10.7441 20.917L9.17575 6.80078H2.79489L1.26071 19.8018V19.8047C1.1399 20.8642 1.98893 21.7498 3.02634 21.75H9.99899Z" fill="#141B34"/>
<path fill-rule="evenodd" clip-rule="evenodd" d="M22.0009 21.7109C22.4141 21.7095 22.749 21.3742 22.749 20.9609V6.99999C22.749 6.72859 22.6019 6.47835 22.3652 6.3457C22.1282 6.21332 21.8367 6.21916 21.6054 6.36132L16.249 9.65722V6.99999C16.249 6.72861 16.1019 6.47836 15.8652 6.3457C15.6284 6.21325 15.3377 6.21855 15.1064 6.36034L10.6504 9.09472L11.9814 21.7393L22.0009 21.7109ZM13.9902 15.7676C13.5763 15.7673 13.2404 15.4314 13.2402 15.0176C13.2402 14.6035 13.5762 14.2678 13.9902 14.2676H14.9922C15.4063 14.2677 15.7422 14.6034 15.7422 15.0176C15.7419 15.4315 15.4061 15.7674 14.9922 15.7676H13.9902ZM18.9941 15.7676C18.5802 15.7673 18.2443 15.4314 18.2441 15.0176C18.2441 14.6035 18.5801 14.2678 18.9941 14.2676H19.9961C20.4102 14.2677 20.7461 14.6034 20.7461 15.0176C20.7458 15.4315 20.41 15.7674 19.9961 15.7676H18.9941Z" fill="#141B34"/>
</svg>
