<svg width="24" height="24" viewBox="0 0 24 24" fill="none" xmlns="http://www.w3.org/2000/svg">
<path fill-rule="evenodd" clip-rule="evenodd" d="M5.63798 4.09737C6.49968 3.38217 8.77886 1.75085 11.75 1.75085C13.4633 1.75085 14.7578 2.37846 15.5064 2.86709C16.216 3.33034 16.5 4.11662 16.5 4.82928C16.5 5.80282 16.1421 7.05947 15.6712 8.07098C15.4668 8.51006 15.2347 8.94874 14.9876 9.37545C14.1692 8.52793 13.0212 8.00085 11.75 8.00085C10.7881 8.00085 9.89661 8.30269 9.16519 8.81681C8.3492 8.15868 7.37751 7.71271 6.51166 7.45117C5.68985 7.20292 5 6.45605 5 5.49344C5 4.98448 5.2021 4.45915 5.63798 4.09737ZM11.75 9.25085C9.95507 9.25085 8.5 10.7059 8.5 12.5009C8.5 14.2958 9.95507 15.7509 11.75 15.7509C13.5449 15.7509 15 14.2958 15 12.5009C15 10.7059 13.5449 9.25085 11.75 9.25085ZM7.25 12.5009C7.25 12.1236 7.29642 11.7572 7.38385 11.4071C6.8978 11.407 6.40922 11.4254 5.93376 11.4674C4.82252 11.5654 3.55548 11.8837 2.71249 12.3704C2.09531 12.7267 1.55635 13.3658 1.51001 14.212C1.46113 15.1046 1.56486 16.5395 2.42149 18.0232C3.90706 20.5963 6.45942 21.7545 7.50965 22.1432C8.04089 22.3397 8.5969 22.2521 9.03767 21.9976C9.87131 21.5163 10.1732 20.5455 9.97728 19.7096C9.76105 18.7871 9.66226 17.6647 9.85748 16.5847C8.31775 15.87 7.25 14.3101 7.25 12.5009ZM13.0859 16.7993C13.3303 17.2256 13.5924 17.6453 13.8687 18.0418C14.5146 18.9687 15.4321 19.9212 16.2848 20.4135C16.902 20.7699 17.7249 20.9171 18.481 20.5341C19.2784 20.1301 20.4692 19.3229 21.3258 17.8391C22.8114 15.2661 22.5382 12.4766 22.3497 11.3727C22.2543 10.8143 21.9004 10.3766 21.4596 10.1222C20.626 9.64087 19.6343 9.86486 19.0084 10.4524C18.2891 11.1277 17.3203 11.7996 16.2377 12.1617C16.246 12.2737 16.2502 12.3868 16.2502 12.5009C16.2502 14.5211 14.919 16.2303 13.0859 16.7993Z" fill="#141B34"/>
</svg>
