<svg width="24" height="24" viewBox="0 0 24 24" fill="none" xmlns="http://www.w3.org/2000/svg">
<path d="M11.9555 3.70846L11.9998 3.74382L12.0442 3.70847C12.4136 3.41641 12.9533 3.05091 13.6362 2.75876C15.0219 2.16593 16.9801 1.88759 19.2121 3.08157C21.9946 4.57004 23.3602 8.13312 22.4864 11.8026C21.6024 15.5144 18.4616 19.3369 12.2628 21.6518L11.9998 21.75L11.7368 21.6518C5.53805 19.3369 2.39718 15.5144 1.51321 11.8026C0.639297 8.13312 2.00488 4.57003 4.7874 3.08156C7.01942 1.88758 8.97763 2.16592 10.3634 2.75876C11.0463 3.0509 11.586 3.4164 11.9555 3.70846Z" fill="#141B34"/>
</svg>
