<svg width="24" height="24" viewBox="0 0 24 24" fill="none" xmlns="http://www.w3.org/2000/svg">
<path d="M12 1C12.5523 1 13 1.44772 13 2V3L14.0658 3C14.9523 2.99995 15.7161 2.9999 16.3278 3.08214C16.9833 3.17027 17.6117 3.36902 18.1213 3.87868C18.631 4.38834 18.8297 5.01669 18.9179 5.67221C19.0001 6.28387 19.0001 7.04768 19 7.93417L19 9C19 9.55228 18.5523 10 18 10C17.4477 10 17 9.55228 17 9V8C17 7.02892 16.9979 6.40121 16.9357 5.9387C16.8774 5.50496 16.7832 5.36902 16.7071 5.29289C16.631 5.21677 16.495 5.12262 16.0613 5.06431C15.5988 5.00212 14.9711 5 14 5H10C9.02893 5 8.40122 5.00212 7.93871 5.06431C7.50497 5.12262 7.36902 5.21677 7.2929 5.29289C7.21677 5.36902 7.12263 5.50496 7.06431 5.9387C7.00213 6.40121 7 7.02892 7 8V9C7 9.55228 6.55229 10 6 10C5.44772 10 5 9.55228 5 9V8L5 7.93417C4.99995 7.04768 4.99991 6.28387 5.08215 5.67221C5.17028 5.01669 5.36902 4.38834 5.87868 3.87868C6.38835 3.36902 7.0167 3.17027 7.67221 3.08214C8.28387 2.9999 9.04769 2.99995 9.93417 3L10 3H11V2C11 1.44772 11.4477 1 12 1Z" fill="#141B34"/>
<path fill-rule="evenodd" clip-rule="evenodd" d="M9.45405 20.6796C10.1215 19.727 11.0348 19.0369 12.1366 19.0369C13.1548 19.0369 14.012 19.6263 14.6629 20.4675C14.9662 20.7363 15.0973 21.1467 15.4534 20.6438C16.1126 19.691 17.0214 19 18.122 19C19.0654 19 19.8714 19.508 20.5026 20.2532C20.675 20.4672 20.9646 21.2112 21.2898 20.883C21.6785 20.4907 22.3116 20.4878 22.704 20.8765C23.0963 21.2652 23.0992 21.8984 22.7104 22.2907C22.2277 22.7779 21.5697 23.0948 20.8254 22.9751C20.1481 22.8661 19.6169 22.4288 19.2321 21.8992C18.9315 21.5492 18.6548 21 18.122 21C17.9333 21 17.5564 21.1178 17.096 21.7847L17.0904 21.7929C16.6423 22.4283 15.9804 22.9631 15.1303 22.9631C14.345 22.9631 13.6213 22.4556 13.1811 21.8273C12.712 21.1578 12.3301 21.0369 12.1366 21.0369C11.9434 21.0369 11.5622 21.1574 11.0941 21.8243C10.6501 22.4677 9.98694 23 9.13659 23C8.31953 23 7.67534 22.5085 7.23224 21.8994C6.93156 21.5494 6.65498 21 6.12196 21C5.93331 21 5.5564 21.1178 5.09604 21.7847C4.64626 22.4363 3.95113 22.9631 3.13032 22.9631C2.2765 22.9631 1.61733 22.4241 1.1764 21.7836C0.863234 21.3287 0.978144 20.7061 1.43306 20.3929C1.88797 20.0797 2.51062 20.1946 2.82379 20.6496C3.07416 21.0133 3.19924 21.0027 3.45336 20.6438C4.11252 19.691 5.02134 19 6.12196 19C7.06544 19 7.87144 19.508 8.50259 20.2532C8.81829 20.6451 9.0391 21.2824 9.45405 20.6796Z" fill="#141B34"/>
<path fill-rule="evenodd" clip-rule="evenodd" d="M9.63474 6.95943C10.5902 6.54484 11.2702 6.24978 12 6.24978C12.7298 6.24978 13.4098 6.54484 14.3652 6.95943L17.4042 8.27604C18.1892 8.61609 18.8458 8.90051 19.3406 9.19745C19.8645 9.51186 20.2956 9.89046 20.5405 10.4615C20.5815 10.557 20.6172 10.6548 20.6476 10.7542C20.8277 11.3438 20.7508 11.9178 20.5673 12.5114C20.4705 12.8246 20.3349 13.1705 20.1712 13.5547H17.4797C17.0655 13.5547 16.7297 13.8905 16.7297 14.3047C16.7297 14.7189 17.0655 15.0547 17.4797 15.0547H19.5232L18.6417 17.1964L18.6417 17.1964C18.5992 17.2996 18.578 17.3512 18.5533 17.3831C18.5048 17.446 18.4717 17.4682 18.395 17.4892C18.3562 17.4998 18.2781 17.4998 18.122 17.4998C17.1022 17.4998 16.2387 17.8658 15.5354 18.3963C15.3204 18.5584 15.2129 18.6395 15.1136 18.6402C15.0142 18.6409 14.9056 18.5612 14.6884 18.4018C13.9903 17.8896 13.1365 17.5366 12.1366 17.5366C11.1356 17.5366 10.2838 17.8887 9.58521 18.4025C9.36888 18.5616 9.26072 18.6411 9.16177 18.6408C9.06282 18.6405 8.95496 18.5602 8.73924 18.3995C8.02819 17.8698 7.14248 17.4998 6.12202 17.4998C5.76984 17.4998 5.59374 17.4998 5.51842 17.4499L5.51587 17.4482C5.44106 17.3975 5.39475 17.285 5.30212 17.0599L4.47679 15.0547H6.52029C6.9345 15.0547 7.27029 14.7189 7.27029 14.3047C7.27029 13.8905 6.9345 13.5547 6.52029 13.5547H3.82879C3.66509 13.1705 3.52944 12.8246 3.43264 12.5114C3.24916 11.9178 3.17222 11.3438 3.35238 10.7542C3.38277 10.6548 3.41851 10.557 3.45946 10.4615C3.70435 9.89046 4.13549 9.51186 4.65937 9.19745C5.15414 8.90051 5.81073 8.61609 6.59575 8.27603L9.63474 6.95943Z" fill="#141B34"/>
</svg>
