<svg width="24" height="24" viewBox="0 0 24 24" fill="none" xmlns="http://www.w3.org/2000/svg">
<path d="M20.75 2.22727C20.75 1.68754 20.3141 1.25 19.7763 1.25H9.63616L2.25 8.66338V21.7727C2.25 22.3125 2.68593 22.75 3.22368 22.75H11.0131V20.7955H4.19727V10.0455H11.0131L11.0131 3.20459H18.8025V10H20.75V2.22727Z" fill="#141B34"/>
<path d="M14.75 15C14.75 13.4812 15.9812 12.25 17.5 12.25C18.3215 12.25 19.0595 12.6111 19.5623 13.1808L18.4377 14.1734C18.2076 13.9126 17.8732 13.75 17.5 13.75C16.8096 13.75 16.25 14.3096 16.25 15V15.75H21.75V22.75H13.25V15.75H14.75V15Z" fill="#141B34"/>
</svg>
