<svg width="24" height="24" viewBox="0 0 24 24" fill="none" xmlns="http://www.w3.org/2000/svg">
<path d="M19.998 9.5V7.81818C19.998 6.12494 19.998 5.27832 19.73 4.60214C19.2992 3.5151 18.3882 2.65765 17.2332 2.2522C16.5148 2 15.6153 2 13.8162 2C10.6678 2 9.09368 2 7.83641 2.44135C5.81519 3.15089 4.22086 4.65142 3.46699 6.55375C2.99805 7.73706 2.99805 9.21865 2.99805 12.1818V14.7273C2.99805 17.7966 2.99805 19.3313 3.84575 20.3971C4.08863 20.7025 4.37667 20.9736 4.70112 21.2022C5.83351 22 7.46412 22 10.7253 22H11.498C12.0327 22 12.998 22 13.498 21.9972" stroke="#141B34" stroke-width="1.5" stroke-linecap="round" stroke-linejoin="round"/>
<path opacity="0.4" d="M11.998 17H6.99805" stroke="#141B34" stroke-width="1.5" stroke-linecap="round" stroke-linejoin="round"/>
<path opacity="0.4" d="M12.998 13H9.99805" stroke="#141B34" stroke-width="1.5" stroke-linecap="round" stroke-linejoin="round"/>
<path d="M2.99805 12C2.99805 10.1591 4.49043 8.66667 6.33138 8.66667C6.99717 8.66667 7.78209 8.78333 8.42942 8.60988C9.00457 8.45576 9.45381 8.00652 9.60793 7.43136C9.78138 6.78404 9.66472 5.99912 9.66472 5.33333C9.66472 3.49238 11.1571 2 12.998 2" stroke="#141B34" stroke-width="1.5" stroke-linecap="round" stroke-linejoin="round"/>
<path d="M18.0049 19V22M15.0101 17.5C15.1527 18.3145 16.1894 18.6556 17.4061 18.8923C17.5171 18.9138 18.4355 18.867 18.5468 18.8477C19.4341 18.6937 21.0586 18.3917 20.9997 17.5C20.9303 16.4501 20.1525 16.0966 19.4447 15.4615C19.1547 15.2013 19.1147 14.7766 19.2888 14.4277L19.6914 13.6211C19.8778 13.2477 19.8234 12.785 19.5035 12.5173C19.0319 12.1224 18.6296 11.9995 18.0049 12C17.293 12.0691 16.8772 12.2142 16.4889 12.5268C16.1712 12.7825 16.1278 13.2392 16.31 13.6043L16.6962 14.378C16.8828 14.7519 16.819 15.2051 16.506 15.4816C15.6943 16.1985 14.8733 16.7183 15.0101 17.5Z" stroke="#141B34" stroke-width="1.5" stroke-linecap="round" stroke-linejoin="round"/>
</svg>
