<svg width="24" height="24" viewBox="0 0 24 24" fill="none" xmlns="http://www.w3.org/2000/svg">
<path d="M11.988 21.9961H3.01C3.00448 21.9961 3 21.9916 3 21.9861V8.99863L10 2H19.99C19.9955 2 20 2.00448 20 2.01V9.99338M10 2.63407V8.99863H3.56763" stroke="#141B34" stroke-width="1.5"/>
<path d="M13.998 19.5005L13.9981 15.5099C13.9981 15.5044 14.0026 15.4999 14.0081 15.4999H16.9949L20.9828 13.0052C20.9894 13.001 20.998 13.0058 20.998 13.0137V21.9936C20.998 22.0015 20.9894 22.0063 20.9828 22.0021L17.0071 19.5106H14.008C14.0025 19.5106 13.998 19.5061 13.998 19.5005Z" stroke="#141B34" stroke-width="1.5"/>
</svg>
