<svg width="24" height="24" viewBox="0 0 24 24" fill="none" xmlns="http://www.w3.org/2000/svg">
<path opacity="0.4" d="M9.49879 8.49792C5.89879 8.49792 3.5 8.49792 3.5 12H20.5V7.82643C20.5 6.13079 20.5 5.28297 20.232 4.60583C19.8012 3.51725 18.8902 2.65858 17.7352 2.25256C17.0168 2 16.1172 2 14.3182 2C13.9881 2 13.6753 2 13.3783 2.00051C9.49879 2.00051 10.5332 5.05948 10.5499 6.55167C10.5909 8.19467 9.8002 8.49792 9.49879 8.49792Z" fill="#141B34"/>
<path d="M22 12L2 12" stroke="#141B34" stroke-width="1.5" stroke-linecap="round" stroke-linejoin="round"/>
<path d="M3.5 12.1797C3.5 9.21652 3.5 7.73493 3.96894 6.55162C4.72281 4.64929 6.31714 3.14875 8.33836 2.43922C9.59563 1.99787 11.1698 1.99787 14.3182 1.99787C16.1173 1.99787 17.0168 1.99787 17.7352 2.25007C18.8902 2.65552 19.8012 3.51297 20.232 4.60001C20.5 5.27619 20.5 6.12281 20.5 7.81605L20.5 11.9979" stroke="#141B34" stroke-width="1.5" stroke-linejoin="round"/>
<path d="M3.5 12C3.5 10.1591 4.99238 8.66667 6.83333 8.66667C7.49912 8.66667 8.28404 8.78333 8.93137 8.60988C9.50652 8.45576 9.95576 8.00652 10.1099 7.43136C10.2833 6.78404 10.1667 5.99912 10.1667 5.33333C10.1667 3.49238 11.6591 2 13.5 2" stroke="#141B34" stroke-width="1.5" stroke-linecap="round" stroke-linejoin="round"/>
<path d="M6 15L6 17M10 15V22M14 15V18M18 15V20" stroke="#141B34" stroke-width="1.5" stroke-linecap="round" stroke-linejoin="round"/>
</svg>
