<svg width="24" height="24" viewBox="0 0 24 24" fill="none" xmlns="http://www.w3.org/2000/svg">
<path d="M19.0629 12.7184C19.4791 12.4104 20.0766 12.0793 20.7415 12.3503C21.4125 12.6237 21.6001 13.2835 21.6735 13.7942C21.7487 14.3176 21.7487 15.0252 21.7486 15.8578V15.8579V19.1448V19.1448C21.7487 19.9774 21.7487 20.685 21.6735 21.2085C21.6001 21.7191 21.4125 22.3789 20.7415 22.6524C20.0766 22.9234 19.4791 22.5922 19.0629 22.2842C18.6347 21.9673 18.1271 21.4678 17.5278 20.8781C17.2248 20.5799 17.0055 20.4212 16.8484 20.3591C16.6876 20.2955 16.4746 20.2602 16.0403 20.2602H16.0403C15.6598 20.2602 15.2865 20.2602 15.0071 20.2323C14.7076 20.2023 14.3953 20.1342 14.1051 19.9434C13.5686 19.5907 13.3664 19.0696 13.2918 18.6227C13.2368 18.2934 13.245 17.7629 13.2491 17.5013C13.245 17.2397 13.2368 16.7093 13.2918 16.3799C13.3664 15.9331 13.5686 15.4119 14.1051 15.0592C14.3953 14.8684 14.7076 14.8003 15.0071 14.7704C15.2865 14.7424 15.6598 14.7424 16.0403 14.7424C16.4746 14.7424 16.6876 14.7071 16.8484 14.6435C17.0055 14.5814 17.2248 14.4227 17.5278 14.1245L17.5278 14.1245C18.1271 13.5349 18.6347 13.0353 19.0629 12.7184Z" fill="#141B34"/>
<path d="M6.93654 22.6472C7.91879 22.75 10.4816 22.75 12.0227 22.75C12.5625 22.75 13 22.3124 13 21.7727C13 21.233 12.5625 20.7954 12.0227 20.7954C10.4141 20.7954 8.00785 20.7941 7.1384 20.7032C6.28448 20.6138 5.80055 20.4471 5.44272 20.194C5.20127 20.0233 4.98889 19.8222 4.8111 19.5978C4.55553 19.2753 4.38609 18.8425 4.29386 18.0558C4.19893 17.246 4.19735 16.1887 4.19735 14.6652L4.19727 11.765C4.19725 11.498 4.19742 10.8595 4.47804 10.3873C4.65097 10.0963 4.87239 9.8532 5.09984 9.72938C5.46635 9.52986 5.88654 9.4165 6.33321 9.4165L7.37358 9.45299C7.75367 9.46088 8.19721 9.44887 8.62536 9.33415C9.45933 9.11069 10.1107 8.45928 10.3342 7.62531C10.4489 7.19716 10.4609 6.75362 10.453 6.37353L10.4165 5.33316C10.4165 4.86547 10.5409 4.45834 10.7583 4.07993C10.885 3.85934 11.1057 3.65745 11.4105 3.48014C11.8726 3.21123 12.426 3.20874 12.7642 3.20722C13.1023 3.20569 13.4591 3.20452 13.7572 3.20452C15.5913 3.20452 16.2584 3.21847 16.7618 3.39582C17.6344 3.70328 18.3001 4.34492 18.6102 5.13029C18.6878 5.32693 18.7427 5.58535 18.7721 6.0333C18.8021 6.48997 18.8026 7.07292 18.8026 7.91318V10.0263C18.8026 10.564 19.2386 11 19.7763 11C20.3141 11 20.75 10.564 20.75 10.0263V7.88C20.75 7.08084 20.75 6.43328 20.7153 5.9047C20.6795 5.36007 20.6039 4.8744 20.4206 4.41024C19.8918 3.07093 18.7834 2.03666 17.4068 1.55166C16.548 1.24907 15.0759 1.24946 13.5209 1.25C10.6813 1.24964 8.99465 1.24943 7.61221 1.73651C5.39221 2.51869 3.61848 4.18143 2.77509 6.31749C2.49397 7.02945 2.36944 7.79416 2.30919 8.711C2.25 9.61171 2.25 10.7243 2.25 12.1426V12.1426V14.7261C2.24998 16.1742 2.24996 17.3469 2.35985 18.2842C2.47396 19.2576 2.71721 20.0955 3.28704 20.8145C3.58222 21.187 3.93077 21.5158 4.32114 21.7919C5.0659 22.3185 5.92712 22.5416 6.93654 22.6472Z" fill="#141B34"/>
</svg>
