<svg width="24" height="24" viewBox="0 0 24 24" fill="none" xmlns="http://www.w3.org/2000/svg">
<path opacity="0.4" d="M6.93654 22.6472C7.91879 22.75 9.48161 22.75 11.0227 22.75C11.5625 22.75 12 22.3124 12 21.7727C12 21.233 11.5625 20.7954 11.0227 20.7954C9.41409 20.7954 8.00785 20.7941 7.1384 20.7032C6.28448 20.6138 5.80055 20.4471 5.44272 20.194C5.20127 20.0233 4.98889 19.8222 4.8111 19.5978C4.55553 19.2753 4.38609 18.8425 4.29386 18.0558C4.19893 17.246 4.19735 16.1887 4.19735 14.6652L4.19727 11.765C4.19725 11.498 4.19742 10.8595 4.47804 10.3873C4.65097 10.0963 4.87239 9.8532 5.09984 9.72938C5.46635 9.52986 5.88654 9.4165 6.33321 9.4165L7.37358 9.45299C7.75367 9.46088 8.19721 9.44887 8.62536 9.33415C9.45933 9.11069 10.1107 8.45928 10.3342 7.62531C10.4489 7.19716 10.4609 6.75362 10.453 6.37353L10.4165 5.33316C10.4165 4.86547 10.5409 4.45834 10.7583 4.07993C10.885 3.85934 11.1057 3.65745 11.4105 3.48014C11.8726 3.21123 12.426 3.20874 12.7642 3.20722C13.1023 3.20569 13.4591 3.20452 13.7572 3.20452C15.5913 3.20452 16.2584 3.21847 16.7618 3.39582C17.6344 3.70328 18.3001 4.34492 18.6102 5.13029C18.6878 5.32693 18.7427 5.58535 18.7721 6.0333C18.8021 6.48997 18.8026 7.07292 18.8026 7.91318V10.0263C18.8026 10.564 19.2386 11 19.7763 11C20.3141 11 20.75 10.564 20.75 10.0263V7.88C20.75 7.08084 20.75 6.43328 20.7153 5.9047C20.6795 5.36007 20.6039 4.8744 20.4206 4.41024C19.8918 3.07093 18.7834 2.03666 17.4068 1.55166C16.548 1.24907 15.0759 1.24946 13.5209 1.25C10.6813 1.24964 8.99465 1.24943 7.61221 1.73651C5.39221 2.51869 3.61848 4.18143 2.77509 6.31749C2.49397 7.02945 2.36944 7.79416 2.30919 8.711C2.25 9.61171 2.25 10.7243 2.25 12.1426V12.1426V14.7261C2.24998 16.1742 2.24996 17.3469 2.35985 18.2842C2.47396 19.2576 2.71721 20.0955 3.28704 20.8145C3.58222 21.187 3.93077 21.5158 4.32114 21.7919C5.0659 22.3185 5.92712 22.5416 6.93654 22.6472Z" fill="#141B34"/>
<path d="M14.7813 14.9523C14.7813 13.454 16.0044 12.25 17.5 12.25C18.1725 12.25 18.7904 12.4937 19.2656 12.8973C19.5813 13.1655 19.6198 13.6388 19.3517 13.9545C19.0835 14.2702 18.6102 14.3087 18.2945 14.0406C18.0813 13.8595 17.8049 13.75 17.5 13.75C16.821 13.75 16.2813 14.2942 16.2813 14.9523V15.6116L18.1871 15.61C18.6715 15.61 19.0813 15.6099 19.4167 15.6382C19.7683 15.6679 20.1063 15.7326 20.4262 15.9022C20.8618 16.1331 21.2197 16.4875 21.4536 16.9214C21.6257 17.2408 21.6914 17.5783 21.7214 17.9285C21.75 18.2619 21.75 18.7314 21.75 19.2112C21.75 19.691 21.75 20.0981 21.7214 20.4315C21.6914 20.7816 21.6257 21.1191 21.4536 21.4385C21.2197 21.8724 20.8618 22.2268 20.4262 22.4578C20.1063 22.6273 19.7683 22.6921 19.4167 22.7217C19.0813 22.75 18.6715 22.75 18.1871 22.75H18.1871H16.8129H16.8129C16.3285 22.75 15.9187 22.75 15.5833 22.7217C15.2317 22.6921 14.8937 22.6273 14.5738 22.4578C14.1382 22.2268 13.7803 21.8724 13.5464 21.4385C13.3743 21.1191 13.3086 20.7816 13.2786 20.4315C13.25 20.0981 13.25 19.691 13.25 19.2112V19.2112C13.25 18.7313 13.25 18.2619 13.2786 17.9285C13.3086 17.5783 13.3743 17.2408 13.5464 16.9214C13.7803 16.4875 14.1382 16.1331 14.5738 15.9022C14.6421 15.866 14.7113 15.8346 14.7813 15.8072V14.9523Z" fill="#141B34"/>
</svg>
