<svg width="24" height="24" viewBox="0 0 24 24" fill="none" xmlns="http://www.w3.org/2000/svg">
<path opacity="0.4" d="M9.06055 8.49792C5.47248 8.49792 3.90429 10.1536 3.5639 10.9896C3.5625 11.3586 3.5625 11.7548 3.5625 12.1818V14.7273C3.5625 17.7966 3.5625 19.3313 4.4102 20.3971C4.65308 20.7025 4.94112 20.9736 5.26557 21.2022C6.39796 22 8.02857 22 11.2898 22H12.5V19.0991C12.5 18.304 12.9815 17.5772 13.7438 17.2216C14.3772 16.9261 15.1228 16.9261 15.7562 17.2216C16.5185 17.5772 17 18.304 17 19.0991V21.9706C17.1254 21.9595 17.2371 21.9442 17.3429 21.9231C18.9296 21.6075 20.17 20.3671 20.4856 18.7804C20.5625 18.394 20.5625 17.9293 20.5625 17V7.81818C20.5625 6.12494 20.5625 5.27832 20.2945 4.60214C19.8637 3.5151 18.9527 2.65765 17.7977 2.2522C17.0793 2 16.1798 2 14.3807 2C13.8461 2 13.357 2 12.907 2.00216C10.6363 2.12886 10.095 5.06667 10.1117 6.55168C10.1526 8.19468 9.36196 8.49792 9.06055 8.49792Z" fill="#141B34"/>
<path d="M10 22C7.53751 21.9876 6.18354 21.8949 5.20307 21.2041C4.87862 20.9755 4.59058 20.7044 4.3477 20.399C3.5 19.3333 3.5 17.7986 3.5 14.7292V12.1837C3.5 9.22057 3.5 7.73899 3.96894 6.55568C4.72281 4.65335 6.31714 3.15281 8.33836 2.44328C9.59563 2.00193 11.1698 2.00193 14.3182 2.00193C16.1173 2.00193 17.0168 2.00193 17.7352 2.25413C18.8902 2.65957 19.8012 3.51702 20.232 4.60407C20.5 5.28025 20.5 6.12687 20.5 7.82011V14.0019C20.5 17.4396 20.5 19.3105 19.5571 20.5019" stroke="#141B34" stroke-width="1.5" stroke-linecap="round" stroke-linejoin="round"/>
<path d="M3.5 12C3.5 10.1591 4.99238 8.66667 6.83333 8.66667C7.49912 8.66667 8.28404 8.78333 8.93137 8.60988C9.50652 8.45576 9.95576 8.00652 10.1099 7.43136C10.2833 6.78404 10.1667 5.99912 10.1667 5.33333C10.1667 3.49238 11.6591 2 13.5 2" stroke="#141B34" stroke-width="1.5" stroke-linecap="round" stroke-linejoin="round"/>
<path d="M12.5 19.0991V20.3505C12.5 20.9102 12.5 21.1901 12.6115 21.406C12.7221 21.6201 12.9072 21.7928 13.1367 21.896C13.3681 22 13.6681 22 14.2681 22H15.2319C15.8319 22 16.1319 22 16.3633 21.896C16.5928 21.7928 16.7779 21.6201 16.8885 21.406C17 21.1901 17 20.9102 17 20.3505V19.0991C17 18.304 16.5185 17.5772 15.7562 17.2216C15.1228 16.9261 14.3772 16.9261 13.7438 17.2216C12.9815 17.5772 12.5 18.304 12.5 19.0991Z" stroke="#141B34" stroke-width="1.5" stroke-linecap="round" stroke-linejoin="round"/>
<path d="M14 4H15M16 6.5H17M14 8.5H15M16 10.6H17M14 13H15M16 15H17" stroke="#141B34" stroke-width="1.5" stroke-linecap="round" stroke-linejoin="round"/>
</svg>
