<svg width="24" height="24" viewBox="0 0 24 24" fill="none" xmlns="http://www.w3.org/2000/svg">
<path d="M4 3.75C3.58579 3.75 3.25 4.08579 3.25 4.5V22C3.25 22.4142 3.58579 22.75 4 22.75H13C13.4142 22.75 13.75 22.4142 13.75 22V4.5C13.75 4.08579 13.4142 3.75 13 3.75H4Z" fill="#141B34"/>
<path fill-rule="evenodd" clip-rule="evenodd" d="M11.2705 2.36104C10.7843 1.62458 9.99652 1.13952 9.11793 1.03557C8.71964 0.988442 8.28034 0.988497 7.88251 1.03557C7.00391 1.13952 6.21618 1.62458 5.72994 2.36104C5.55077 2.63241 5.40786 2.93148 5.26626 3.22779C5.2132 3.33882 5.16032 3.44947 5.10579 3.55813C5.07438 3.62071 5.05021 3.68501 5.03295 3.75009H3C2.44772 3.75009 2 4.1978 2 4.75009C2 5.30237 2.44772 5.75009 3 5.75009H14C14.5523 5.75009 15 5.30237 15 4.75009C15 4.1978 14.5523 3.75009 14 3.75009H11.9675C11.9502 3.68501 11.9261 3.62071 11.8946 3.55813C11.8401 3.44947 11.7872 3.33882 11.7342 3.22779C11.5926 2.93151 11.4497 2.63248 11.2705 2.36104ZM9.75466 3.75009C9.56615 3.38347 9.33997 3.0685 8.88208 3.01432C8.6384 2.98549 8.36204 2.98549 8.11836 3.01432C7.66046 3.0685 7.43428 3.38347 7.24578 3.75009H9.75466Z" fill="#141B34"/>
<path fill-rule="evenodd" clip-rule="evenodd" d="M2 22C2 21.4477 2.44772 21 3 21H14C14.5523 21 15 21.4477 15 22C15 22.5523 14.5523 23 14 23H3C2.44772 23 2 22.5523 2 22Z" fill="#141B34"/>
<path fill-rule="evenodd" clip-rule="evenodd" d="M19.5061 8.54785C19.1838 8.50235 18.7367 8.50001 18 8.50001H14V17H15.0625C15.2692 17 15.4649 17 15.6236 17C15.9803 17 16.0015 16.9799 16.0223 16.6242C16.0402 16.3165 16.0625 15.9215 16.0625 15.8556C16.0624 15.5512 16.0624 15.2522 16.0885 14.998C16.118 14.7114 16.1874 14.3924 16.3832 14.0821C16.717 13.5531 17.2908 13.3041 17.8399 13.0602C18.4564 12.7863 19.1113 12.5482 19.6942 12.2072C19.9048 12.084 19.949 11.991 19.9741 11.7472C20.0635 10.8775 20.0636 9.91581 19.9531 9.05036C19.9108 8.71867 19.8427 8.59536 19.5061 8.54785ZM19.7857 6.56749C20.3142 6.6421 20.8507 6.81582 21.2848 7.27166C21.7129 7.72113 21.8691 8.26535 21.937 8.79709C22.0001 9.29112 22.0001 9.90413 22 10.5975C22 11.1019 22.0028 11.5704 21.9636 11.9518C21.9237 12.3395 21.8335 12.7338 21.5961 13.11C21.3568 13.4892 21.0396 13.7373 20.7041 13.9335C20.4023 14.1101 20.0253 14.2776 19.6179 14.4586C19.4007 14.5551 18.1043 14.9476 18.0781 15.2027C18.0106 15.858 18.1016 16.5215 18.0178 17.1775C17.9683 17.5659 17.8486 18.0095 17.4937 18.3821C17.1328 18.7611 16.6919 18.8964 16.2996 18.9517C15.9411 19.0023 15.5043 19 15.0625 19H13C12.4477 19 12 18.5523 12 18V7.50001C12 6.94772 12.4477 6.50001 13 6.50001H18C18.6775 6.50001 19.2911 6.49767 19.7857 6.56749Z" fill="#141B34"/>
</svg>
