<svg width="24" height="24" viewBox="0 0 24 24" fill="none" xmlns="http://www.w3.org/2000/svg">
<path fill-rule="evenodd" clip-rule="evenodd" d="M2.25 4C2.25 3.0335 3.0335 2.25 4 2.25H20C20.9665 2.25 21.75 3.0335 21.75 4V6.53162C21.75 7.05099 21.5193 7.54352 21.1203 7.87601L15.7749 12.3306C15.7274 12.3701 15.6963 12.4258 15.6875 12.4869L14.806 18.5931C14.7241 19.1603 14.3697 19.6515 13.8573 19.908L11.6187 21.0285C10.5297 21.5736 9.23063 20.8672 9.09614 19.6568L8.29904 12.4829C8.29191 12.4187 8.26022 12.3598 8.21062 12.3185L2.87968 7.87601C2.48069 7.54352 2.25 7.05099 2.25 6.53162V4Z" fill="#141B34"/>
</svg>
