<svg width="24" height="24" viewBox="0 0 24 24" fill="none" xmlns="http://www.w3.org/2000/svg">
<path opacity="0.4" d="M2.62601 7.44867C3.59527 8.59915 5.37039 10.6456 7.8613 12.5061C8.08893 12.6761 8.2383 12.9539 8.26351 13.2614C8.54413 16.6864 8.8012 19.0261 8.93769 20.1778C9.00928 20.782 9.6797 21.2466 10.2322 20.8563C10.4424 20.7079 10.6938 20.5553 10.9598 20.394C11.8683 19.8428 12.946 19.1891 13.1231 18.2442C13.2651 17.4876 13.4931 15.992 13.7404 13.2614C13.768 12.9567 13.9168 12.6821 14.1426 12.5135C14.2337 12.4455 14.324 12.3772 14.4132 12.3087C14.5262 11.8628 14.6984 11.4446 15.0316 11.1117L18.3427 7.80388C18.6763 7.47055 18.8432 7.30385 19.0168 7.20375C19.2241 7.0842 19.4525 7.01727 19.6834 7.00293C19.7678 6.82048 19.8127 6.62708 19.8454 6.37281C20.0478 4.8008 20.149 4.0148 19.6875 3.5074C19.2262 3 18.4103 3 16.7784 3H5.23558C3.60367 3 2.78773 3 2.32632 3.5074C1.86493 4.0148 1.96613 4.8008 2.16855 6.3728C2.22765 6.8319 2.32597 7.09253 2.62601 7.44867Z" fill="#141B34"/>
<path d="M13.2495 17.5C13.2023 17.8033 13.1599 18.0485 13.1231 18.2442C12.8941 19.4657 11.1603 20.2006 10.2322 20.8563C9.6797 21.2466 9.00928 20.782 8.93769 20.1778C8.8012 19.0261 8.54413 16.6864 8.26351 13.2614C8.2383 12.9539 8.08893 12.6761 7.8613 12.5061C5.37039 10.6456 3.59527 8.59915 2.62601 7.44867C2.32597 7.09253 2.22765 6.8319 2.16855 6.3728C1.96613 4.8008 1.86493 4.0148 2.32632 3.5074C2.78773 3 3.60367 3 5.23558 3H16.7784C18.4103 3 19.2262 3 19.6875 3.5074C19.9113 3.75346 20.0027 4.06504 20.0146 4.5" stroke="#141B34" stroke-width="1.5" stroke-linecap="round" stroke-linejoin="round"/>
<path d="M20.8698 7.43934L21.5627 8.13171C22.1491 8.71749 22.1491 9.66724 21.5627 10.253L17.9317 13.9487C17.6462 14.234 17.2808 14.4264 16.8837 14.5005L14.6334 14.9885C14.278 15.0656 13.9616 14.7504 14.0378 14.3953L14.5168 12.1599C14.5909 11.7632 14.7834 11.3982 15.0691 11.1129L18.7464 7.43934C19.3326 6.85355 20.2834 6.85355 20.8698 7.43934Z" stroke="#141B34" stroke-width="1.5" stroke-linecap="round" stroke-linejoin="round"/>
</svg>
