<svg width="24" height="24" viewBox="0 0 24 24" fill="none" xmlns="http://www.w3.org/2000/svg">
<path d="M5.50919 2.74958C9.84631 -0.212497 16.1007 1.37059 18.4031 6.1162L16.6555 6.97302C14.8861 3.32613 9.98615 2.05504 6.60192 4.36633L5.50919 2.74958Z" fill="#141B34"/>
<path d="M1.75 9.80834C1.75 8.49953 2.04863 7.25709 2.58278 6.14538L4.3337 6.99546C3.92361 7.84898 3.69444 8.8015 3.69444 9.80834V14.16C3.69444 16.4036 4.83599 18.3959 6.60192 19.602L5.50919 21.2188C3.24516 19.6725 1.75 17.0921 1.75 14.16V9.80834Z" fill="#141B34"/>
<path d="M17.3056 11.16V8.37104H19.25V11.16H17.3056Z" fill="#141B34"/>
<path d="M9.25473 22.6662L9.52305 20.7303C10.1859 20.8231 10.8405 20.8152 11.4718 20.7196L12.2475 22.5629C11.2853 22.7655 10.2759 22.8092 9.25473 22.6662Z" fill="#141B34"/>
<path d="M13.4164 10.2411C13.4164 8.46847 12.0665 7.11378 10.4998 7.11378V5.15918C13.2287 5.15918 15.3609 7.47994 15.3609 10.2411H13.4164Z" fill="#141B34"/>
<path d="M5.63867 10.2411C5.63867 9.47101 5.8031 8.73738 6.09935 8.07916L7.87092 8.88485C7.68723 9.29297 7.58312 9.75221 7.58312 10.2411V13.7594C7.58312 15.5321 8.93311 16.8868 10.4998 16.8868V18.8414C7.77091 18.8414 5.63867 16.5206 5.63867 13.7594V10.2411Z" fill="#141B34"/>
<path d="M9.52734 10.5342V13.4661H11.4718V10.5342H9.52734Z" fill="#141B34"/>
<path fill-rule="evenodd" clip-rule="evenodd" d="M17.5 13.25C14.8766 13.25 12.75 15.3766 12.75 18C12.75 20.6234 14.8766 22.75 17.5 22.75C20.1234 22.75 22.25 20.6234 22.25 18C22.25 15.3766 20.1234 13.25 17.5 13.25ZM17.001 20.0601L19.8559 17.2052L18.7952 16.1445L17.001 17.9388L16.2599 17.1977L15.1992 18.2584L17.001 20.0601Z" fill="#141B34"/>
</svg>
