<svg width="24" height="24" viewBox="0 0 24 24" fill="none" xmlns="http://www.w3.org/2000/svg">
<path d="M6.00781 12L5.99883 12" stroke="#141B34" stroke-width="2" stroke-linecap="round"/>
<path d="M11 16.0418C11.4635 16.1947 11.9076 16.3709 12.3099 16.6525M12.3099 16.6525C13.3507 17.3811 14 18.692 14 20C11.083 19.9871 9.65844 19.4933 9.1094 18.6783L8 16.8569C5.50848 16.3537 3.21828 14.7625 2 12.0834C5 5.48593 14.5 5.48593 17.5 12.0834M12.3099 16.6525C14.4801 15.9923 16.4151 14.4692 17.5 12.0834M12.3099 7.51425C13.3507 6.78568 14 5.30806 14 4C14 4 9.69172 4.6241 9.1094 5.4885L8 7.30986M17.5 12.0834C17.8333 11.4236 19.6 9.11452 22 9.11452C21.1667 9.9392 19.8 13.073 21 15.0522C19.8 15.0522 18 12.7431 17.5 12.0834Z" stroke="#141B34" stroke-width="1.5"/>
</svg>
