<svg width="24" height="24" viewBox="0 0 24 24" fill="none" xmlns="http://www.w3.org/2000/svg">
<path opacity="0.4" d="M15.6659 2.32476C15.6659 1.818 15.6659 1.56462 15.5057 1.40719C15.3455 1.24976 15.0877 1.24976 14.5721 1.24976H11.5814C8.60457 1.24976 6.00815 3.94718 6.18194 8.23726H4.34372C3.82812 8.23726 3.57032 8.23726 3.41015 8.39469C3.24997 8.55212 3.24997 8.8055 3.24997 9.31226V10.9248C3.24997 11.4315 3.24997 11.6849 3.41015 11.8423C3.57032 11.9998 3.82812 11.9998 4.34372 11.9998H6.53122V21.6748C6.53122 22.1815 6.53122 22.4349 6.6914 22.5923C6.85157 22.7498 7.10937 22.7498 7.62497 22.7498H9.81247C10.3281 22.7498 10.5859 22.7498 10.746 22.5923C10.9062 22.4349 10.9062 22.1815 10.9062 21.6748V11.9998H15.8615V21.6748C15.8615 22.1815 15.8615 22.4349 16.0217 22.5923C16.1819 22.7498 16.4397 22.7498 16.9553 22.7498H19.6562C20.1718 22.7498 20.4296 22.7498 20.5898 22.5923C20.75 22.4349 20.75 22.1815 20.75 21.6748V10.3873C20.75 9.37374 20.75 8.86698 20.4296 8.55212C20.1093 8.23726 19.5937 8.23726 18.5625 8.23726H10.9062V6.87118C10.9062 6.08726 11.4531 5.01226 12.8716 5.01226H14.5721C15.0877 5.01226 15.3455 5.01226 15.5057 4.85483C15.6659 4.6974 15.6659 4.44402 15.6659 3.93726V2.32476Z" fill="#141B34"/>
<path d="M11.5813 1.24951H14.5721C15.0877 1.24951 15.3455 1.24951 15.5057 1.40694C15.6659 1.56437 15.6659 1.81776 15.6659 2.32451V3.93701C15.6659 4.44377 15.6659 4.69715 15.5057 4.85458C15.3455 5.01201 15.0877 5.01201 14.5721 5.01201H12.8716C11.4531 5.01201 10.9062 6.08701 10.9062 6.87093V8.23701L14.8615 8.23701C15.3329 8.23701 15.5686 8.23701 15.7151 8.38346C15.8615 8.52991 15.8615 8.76561 15.8615 9.23701V10.9995C15.8615 11.4709 15.8615 11.7066 15.7151 11.8531C15.5686 11.9995 15.3329 11.9995 14.8615 11.9995H10.9062V21.6745C10.9062 22.1813 10.9062 22.4347 10.746 22.5921C10.5858 22.7495 10.328 22.7495 9.81244 22.7495H7.62494C7.10935 22.7495 6.85154 22.7495 6.69137 22.5921C6.53119 22.4347 6.53119 22.1813 6.53119 21.6745V11.9995H4.34369C3.82809 11.9995 3.57029 11.9995 3.41011 11.8421C3.24994 11.6847 3.24994 11.4313 3.24994 10.9245V9.31201C3.24994 8.80525 3.24994 8.55187 3.41011 8.39444C3.57029 8.23701 3.82809 8.23701 4.34369 8.23701H6.18191C6.00812 3.94694 8.60454 1.24951 11.5813 1.24951Z" fill="#141B34"/>
</svg>
