<svg width="25" height="24" viewBox="0 0 25 24" fill="none" xmlns="http://www.w3.org/2000/svg">
<path d="M4.99707 21.5L19.9971 21.5C21.1016 21.5 21.9971 20.6046 21.9971 19.5V4.5C21.9971 3.39543 21.1016 2.5 19.9971 2.5H4.99707C3.8925 2.5 2.99707 3.39543 2.99707 4.5V19.5C2.99707 20.6046 3.8925 21.5 4.99707 21.5Z" stroke="#141B34" stroke-width="1.5" stroke-linecap="round" stroke-linejoin="round"/>
<path d="M9.49707 15C9.49707 15 9.99707 17 12.4971 17C14.1539 17 15.4971 15.7949 15.4971 14C15.4971 12.2051 14.1539 11 12.4971 11C10.8402 11 9.49707 12 9.49707 12L10.4971 7H15.4971" stroke="#141B34" stroke-width="1.5" stroke-linecap="round" stroke-linejoin="round"/>
</svg>
