<svg width="24" height="24" viewBox="0 0 24 24" fill="none" xmlns="http://www.w3.org/2000/svg">
<path fill-rule="evenodd" clip-rule="evenodd" d="M18.556 1.28361C19.0662 1.14737 19.5944 1.43426 19.7464 1.93021L21.2089 6.70276C21.2858 6.95375 21.2539 7.22465 21.1208 7.45195C20.9876 7.67925 20.7648 7.84295 20.5047 7.90468L4.4155 11.7227C3.92285 11.8396 3.42088 11.5675 3.26074 11.0966L1.79993 6.80131C1.71529 6.55246 1.73899 6.28047 1.86545 6.04924C1.99191 5.81801 2.20999 5.64792 2.46846 5.57891L18.556 1.28361ZM3.97555 7.15526L4.82761 9.66062L7.14477 9.11075L7.68015 6.16615L3.97555 7.15526ZM13.1303 7.69036L9.26922 8.60661L9.81666 5.59571L13.6996 4.55897L13.1303 7.69036ZM15.2547 7.18621L19.0455 6.28665L18.1518 3.37026L15.8361 3.98853L15.2547 7.18621Z" fill="#141B34"/>
<path fill-rule="evenodd" clip-rule="evenodd" d="M4 10.2498C3.58579 10.2498 3.25 10.5855 3.25 10.9998V21.9998C3.25 22.414 3.58579 22.7498 4 22.7498H21.5C21.9142 22.7498 22.25 22.414 22.25 21.9998V10.9998C22.25 10.5855 21.9142 10.2498 21.5 10.2498H4ZM8 18.9998H12V16.9998H8V18.9998Z" fill="#141B34"/>
</svg>
