<svg width="24" height="24" viewBox="0 0 24 24" fill="none" xmlns="http://www.w3.org/2000/svg">
<path opacity="0.4" d="M12.0574 1.25C14.3658 1.24999 16.1748 1.24998 17.5863 1.43975C19.031 1.63399 20.1711 2.03933 21.0659 2.93414C21.9607 3.82895 22.366 4.96897 22.5603 6.41371C22.75 7.82519 22.75 9.63423 22.75 11.9426V12.0574C22.75 14.3658 22.75 16.1748 22.5603 17.5863C22.366 19.031 21.9607 20.1711 21.0659 21.0659C20.1711 21.9607 19.031 22.366 17.5863 22.5603C16.1748 22.75 14.3658 22.75 12.0574 22.75H11.9426C9.63423 22.75 7.82519 22.75 6.41371 22.5603C4.96897 22.366 3.82895 21.9607 2.93414 21.0659C2.03933 20.1711 1.63399 19.031 1.43975 17.5863C1.24998 16.1748 1.24999 14.3658 1.25 12.0574V12.0574V11.9426V11.9426C1.24999 9.63422 1.24998 7.82519 1.43975 6.41371C1.63399 4.96897 2.03933 3.82895 2.93414 2.93414C3.82895 2.03933 4.96897 1.63399 6.41371 1.43975C7.82519 1.24998 9.63422 1.24999 11.9426 1.25H11.9426H12.0574H12.0574Z" fill="#141B34"/>
<path d="M14 22.7449C13.3954 22.75 12.7488 22.75 12.0574 22.75H12V22C12 18.6863 14.6863 16 18 16C18.5523 16 19 16.4477 19 17C19 17.5523 18.5523 18 18 18C15.7909 18 14 19.7909 14 22V22.7449Z" fill="#141B34"/>
<path d="M1.25391 9.99882C1.26002 9.27312 1.27349 8.60803 1.30313 7.99882H13.9988C14.5511 7.99882 14.9988 8.44653 14.9988 8.99882C14.9988 9.5511 14.5511 9.99882 13.9988 9.99882H9.99882V22.7437C9.27312 22.7376 8.60803 22.7241 7.99882 22.6945V9.99882H1.25391Z" fill="#141B34"/>
<path d="M22.6945 7.99882C22.7241 8.60803 22.7376 9.27312 22.7437 9.99882H17.9988C17.4465 9.99882 16.9988 9.5511 16.9988 8.99882C16.9988 8.44653 17.4465 7.99882 17.9988 7.99882H22.6945Z" fill="#141B34"/>
<path d="M9.99882 1.25391L9.99882 4.99882C9.99882 5.5511 9.5511 5.99882 8.99882 5.99882C8.44653 5.99882 7.99882 5.5511 7.99882 4.99882L7.99882 1.30313C8.60803 1.27349 9.27312 1.26002 9.99882 1.25391Z" fill="#141B34"/>
</svg>
