<svg width="24" height="24" viewBox="0 0 24 24" fill="none" xmlns="http://www.w3.org/2000/svg">
<path d="M18.1122 5.50009C18.1253 5.21292 18.1253 4.89294 18.1253 4.54771V4.45282C18.1253 4.10747 18.1253 3.78735 18.1122 3.50009H21.8746C22.4269 3.50009 22.8746 3.94781 22.8746 4.50009C22.8746 5.05238 22.4269 5.50009 21.8746 5.50009H18.1122Z" fill="#141B34"/>
<path d="M11.6383 3.5C11.6252 3.78728 11.6252 4.1074 11.6252 4.45279V4.54768C11.6252 4.89288 11.6252 5.21285 11.6383 5.5H8.87525C8.1522 5.5 7.68519 5.50121 7.33338 5.537C6.99827 5.57109 6.8802 5.62809 6.81968 5.66853C6.71049 5.74149 6.61674 5.83524 6.54378 5.94443C6.50334 6.00496 6.44634 6.12303 6.41225 6.45813C6.37646 6.80995 6.37525 7.27696 6.37525 8V8.25521C6.08224 8.25023 5.7638 8.25024 5.4202 8.25025H5.33034C4.98673 8.25024 4.66827 8.25023 4.37525 8.25521L4.37525 7.95145C4.37522 7.29072 4.3752 6.72088 4.42252 6.25572C4.47269 5.76248 4.58422 5.27721 4.88084 4.83329C5.09971 4.50572 5.38097 4.22447 5.70854 4.0056C6.15246 3.70898 6.63773 3.59745 7.13097 3.54727C7.59613 3.49995 8.16592 3.49997 8.82665 3.5L11.6383 3.5Z" fill="#141B34"/>
<path d="M4.37525 15.7453L4.37525 16.0491C4.37522 16.7098 4.3752 17.2796 4.42252 17.7448C4.47269 18.238 4.58422 18.7233 4.88084 19.1672C5.09971 19.4948 5.38097 19.776 5.70854 19.9949C6.15246 20.2915 6.63773 20.403 7.13097 20.4532C7.59613 20.5005 8.16594 20.5005 8.82668 20.5005H11.6383C11.6252 20.2132 11.6252 19.8931 11.6252 19.5477V19.4528C11.6252 19.1076 11.6252 18.7877 11.6383 18.5005H8.87525C8.1522 18.5005 7.68519 18.4993 7.33338 18.4635C6.99827 18.4294 6.8802 18.3724 6.81968 18.332C6.71049 18.259 6.61674 18.1653 6.54378 18.0561C6.50334 17.9955 6.44634 17.8775 6.41225 17.5424C6.37646 17.1905 6.37525 16.7235 6.37525 16.0005V15.7453C6.08225 15.7503 5.76381 15.7503 5.42022 15.7502H5.33035C4.98675 15.7503 4.66825 15.7503 4.37525 15.7453Z" fill="#141B34"/>
<path d="M18.1122 20.5004C18.1253 20.2131 18.1253 19.8931 18.1253 19.5477V19.4528C18.1253 19.1076 18.1253 18.7876 18.1122 18.5004H21.8746C22.4269 18.5004 22.8746 18.9481 22.8746 19.5004C22.8746 20.0527 22.4269 20.5004 21.8746 20.5004H18.1122Z" fill="#141B34"/>
<g opacity="0.4">
<path d="M14.8281 1.25H14.9229C15.4715 1.24996 15.9563 1.24992 16.347 1.30246C16.7706 1.3594 17.1941 1.49016 17.5397 1.83579C17.8853 2.18143 18.0161 2.60492 18.073 3.02848C18.1256 3.41923 18.1255 3.90403 18.1255 4.45258V4.54743C18.1255 5.09598 18.1256 5.58078 18.073 5.97153C18.0161 6.39509 17.8853 6.81858 17.5397 7.16422C17.1941 7.50985 16.7706 7.64061 16.347 7.69755C15.9563 7.75009 15.4715 7.75005 14.9229 7.75001H14.8281C14.2795 7.75005 13.7947 7.75009 13.404 7.69755C12.9804 7.64061 12.5569 7.50985 12.2113 7.16422C11.8656 6.81858 11.7349 6.39509 11.6779 5.97153C11.6254 5.58077 11.6255 5.09599 11.6255 4.54744V4.45257C11.6255 3.90402 11.6254 3.41924 11.6779 3.02848C11.7349 2.60492 11.8656 2.18143 12.2113 1.83579C12.5569 1.49016 12.9804 1.3594 13.404 1.30246C13.7947 1.24992 14.2795 1.24996 14.8281 1.25Z" fill="#141B34"/>
<path d="M14.8281 16.25H14.9229C15.4715 16.25 15.9563 16.2499 16.347 16.3025C16.7706 16.3594 17.1941 16.4902 17.5397 16.8358C17.8853 17.1814 18.0161 17.6049 18.073 18.0285C18.1256 18.4192 18.1255 18.904 18.1255 19.4526V19.5474C18.1255 20.096 18.1256 20.5808 18.073 20.9715C18.0161 21.3951 17.8853 21.8186 17.5397 22.1642C17.1941 22.5099 16.7706 22.6406 16.347 22.6976C15.9563 22.7501 15.4715 22.75 14.9229 22.75H14.8281C14.2795 22.75 13.7947 22.7501 13.404 22.6976C12.9804 22.6406 12.5569 22.5099 12.2113 22.1642C11.8656 21.8186 11.7349 21.3951 11.6779 20.9715C11.6254 20.5808 11.6255 20.096 11.6255 19.5474V19.4526C11.6255 18.904 11.6254 18.4192 11.6779 18.0285C11.7349 17.6049 11.8656 17.1814 12.2113 16.8358C12.5569 16.4902 12.9804 16.3594 13.404 16.3025C13.7947 16.2499 14.2795 16.25 14.8281 16.25Z" fill="#141B34"/>
<path d="M5.42043 8.25C6.20712 8.24998 6.8619 8.24997 7.38158 8.30985C7.92235 8.37217 8.43039 8.50935 8.85103 8.8699C9.28834 9.24474 9.47161 9.72301 9.55237 10.2379C9.6256 10.7048 9.62556 11.285 9.6255 11.9446V12.0554C9.62556 12.715 9.6256 13.2952 9.55237 13.7621C9.47161 14.277 9.28834 14.7553 8.85103 15.1301C8.43039 15.4907 7.92235 15.6278 7.38158 15.6902C6.8619 15.75 6.2071 15.75 5.4204 15.75H5.33059C4.54389 15.75 3.88909 15.75 3.36941 15.6902C2.82864 15.6278 2.3206 15.4907 1.89996 15.1301C1.46265 14.7553 1.27938 14.277 1.19862 13.7621C1.12538 13.2952 1.12543 12.715 1.12549 12.0554V11.9446C1.12543 11.285 1.12538 10.7048 1.19862 10.2379C1.27938 9.72301 1.46265 9.24474 1.89996 8.8699C2.3206 8.50935 2.82864 8.37217 3.36941 8.30985C3.88909 8.24997 4.5439 8.24998 5.33059 8.25H5.42043Z" fill="#141B34"/>
</g>
</svg>
