<svg width="24" height="24" viewBox="0 0 24 24" fill="none" xmlns="http://www.w3.org/2000/svg">
<path d="M11.9357 3.92711L12.4516 4.90285L16.7885 4.90284H16.7885C17.8092 4.90284 18.6291 4.90283 19.2863 4.96597C19.9623 5.03092 20.5475 5.16828 21.067 5.49608C21.4758 5.7541 21.8297 6.08744 22.1067 6.4789C22.4627 6.98217 22.6124 7.55213 22.6825 8.20317C22.75 8.8302 22.75 9.69656 22.75 10.6555C22.75 12.276 22.75 13.5529 22.6404 14.571C22.5281 15.6132 22.2942 16.4681 21.7696 17.2095C21.3467 17.8072 20.8053 18.3177 20.1781 18.7135C19.4064 19.2005 18.5196 19.4174 17.4294 19.5222C16.3581 19.6251 15.0117 19.6251 13.2902 19.6251H13.2901H11.9455C9.63466 19.6251 7.82795 19.6251 6.41917 19.4462C4.98195 19.2637 3.84561 18.8836 2.9495 18.0372C2.04733 17.1852 1.6366 16.0951 1.44054 14.7179C1.24997 13.3792 1.24998 11.6658 1.25 9.49076V9.49075V6.50836V6.50835C1.24999 5.6814 1.24998 5.00883 1.30079 4.4645C1.3534 3.90076 1.46536 3.40183 1.73462 2.94615C2.07861 2.36399 2.58363 1.8895 3.18837 1.57077C3.65608 1.32426 4.16724 1.22135 4.75333 1.17255C5.32386 1.12505 6.19872 1.12503 7.07892 1.12503C8.11222 1.12463 8.81678 1.12436 9.44964 1.34849C10.8443 1.84243 11.4608 3.01992 11.9357 3.92711Z" fill="#141B34"/>
<path fill-rule="evenodd" clip-rule="evenodd" d="M12 17.875C12.5523 17.875 13 18.3227 13 18.875V20.875H20C20.5523 20.875 21 21.3227 21 21.875C21 22.4273 20.5523 22.875 20 22.875H4C3.44772 22.875 3 22.4273 3 21.875C3 21.3227 3.44772 20.875 4 20.875H11V18.875C11 18.3227 11.4477 17.875 12 17.875Z" fill="#141B34"/>
</svg>
