<svg width="24" height="24" viewBox="0 0 24 24" fill="none" xmlns="http://www.w3.org/2000/svg">
<path opacity="0.4" d="M13.3003 20.5H12.0577C7.3717 20.5 5.0287 20.5 3.57295 19.0355C2.11719 17.5711 2.11719 15.214 2.11719 10.5V7.44427C2.11719 5.6278 2.11719 4.71956 2.49525 4.03806C2.76473 3.55227 3.1632 3.15142 3.6461 2.88032C4.32355 2.5 5.22639 2.5 7.03206 2.5C8.18888 2.5 8.7673 2.5 9.27363 2.69101C10.3757 3.10673 10.8604 4.08617 11.3551 5.08597C11.3794 5.13499 11.4036 5.18407 11.4281 5.23313L12.0577 6.5H16.7795C18.8736 6.5 19.9207 6.5 20.6729 7.00559C20.9985 7.22447 21.2781 7.50572 21.4957 7.83329C21.9983 8.58996 21.9983 9.64331 21.9983 11.75C21.9983 14.0444 21.9983 15.5892 21.7646 16.7362C21.2607 15.4278 19.9976 14.5 18.5191 14.5C17.5583 14.5 16.6885 14.8918 16.0589 15.5251C15.4294 16.1585 15.0399 17.0335 15.0399 18C15.0399 18.9668 15.4295 19.8421 16.0596 20.4756C15.2803 20.5 14.3727 20.5 13.3003 20.5Z" fill="#141B34"/>
<path d="M20.9794 20.4749C21.6089 19.8415 21.9984 18.9665 21.9984 18C21.9984 16.067 20.4407 14.5 18.5192 14.5C17.5585 14.5 16.6887 14.8918 16.059 15.5251M20.9794 20.4749C20.3498 21.1082 19.48 21.5 18.5192 21.5C16.5977 21.5 15.04 19.933 15.04 18C15.04 17.0335 15.4295 16.1585 16.059 15.5251M20.9794 20.4749L16.059 15.5251" stroke="#141B34" stroke-width="1.5"/>
<path d="M6.96929 6.5H16.6613C18.7555 6.5 19.8025 6.5 20.5547 7.00559C20.8804 7.22447 21.1599 7.50572 21.3775 7.83329C21.8166 8.4943 21.9947 10.8425 22.0017 12.4607M11.9396 6.5L11.3099 5.23313C10.7882 4.18358 10.3115 3.12712 9.15547 2.69101C8.64914 2.5 8.07072 2.5 6.91389 2.5C5.10822 2.5 4.20538 2.5 3.52794 2.88032C3.04504 3.15142 2.64657 3.55227 2.37708 4.03806C1.99902 4.71956 1.99902 5.6278 1.99902 7.44427V10.5C1.99902 15.214 1.99902 17.5711 3.45478 19.0355C4.74718 20.3357 6.73887 20.4816 10.4485 20.4979H12.0959" stroke="#141B34" stroke-width="1.5" stroke-linecap="round"/>
</svg>
