<svg width="24" height="24" viewBox="0 0 24 24" fill="none" xmlns="http://www.w3.org/2000/svg">
<path opacity="0.4" d="M12.5483 20.5H12C7.28595 20.5 4.92893 20.5 3.46447 19.0355C2 17.5711 2 15.214 2 10.5V7.44427C2 5.6278 2 4.71956 2.38032 4.03806C2.65142 3.55227 3.05227 3.15142 3.53806 2.88032C4.21956 2.5 5.1278 2.5 6.94427 2.5C8.10802 2.5 8.6899 2.5 9.19926 2.69101C10.3079 3.10673 10.7955 4.08617 11.2932 5.08597C11.3176 5.13499 11.342 5.18407 11.3666 5.23313L12 6.5H16.75C18.8567 6.5 19.91 6.5 20.6667 7.00559C20.9943 7.22447 21.2755 7.50572 21.4944 7.83329C22 8.58996 22 9.64331 22 11.75C22 14.6898 22 16.3989 21.5054 17.6175C21.0615 17.0371 20.3825 16.6967 19.7388 16.7C19.8774 15.0592 18.6444 13.5 17 13.5C15.5616 13.5 14.3812 14.6779 14.2602 16.1788C12.992 16.3075 12 17.4468 12 18.8333C12 19.464 12.2052 20.0435 12.5483 20.5Z" fill="#141B34"/>
<path d="M7.00127 6.50447H16.7537C18.861 6.50447 19.9146 6.50447 20.6714 7.01062C20.9991 7.22974 21.2804 7.51131 21.4994 7.83925C22.0051 8.59676 22 9.90157 22 12.0106M12.0025 6.50447L11.3689 5.23618C10.844 4.18546 10.3643 3.12782 9.20108 2.69122C8.69159 2.5 8.10957 2.5 6.94553 2.5C5.12859 2.5 4.22013 2.5 3.53845 2.88074C3.05253 3.15215 2.65159 3.55344 2.38041 4.03978C2 4.72204 2 5.63129 2 7.4498V10.5089C2 15.2282 2 17.5879 3.46484 19.054C4.57905 20.1692 6.20981 20.4361 9.00178 20.5" stroke="#141B34" stroke-width="1.5" stroke-linecap="round"/>
<path d="M12 18.8333C12 20.3061 13.1193 21.5 14.5 21.5H19.75C20.9926 21.5 22 20.4255 22 19.1C22 17.6579 20.8197 16.6944 19.7388 16.7C19.8774 15.0592 18.6444 13.5 17 13.5C15.5616 13.5 14.3812 14.6779 14.2602 16.1788C12.992 16.3075 12 17.4469 12 18.8333Z" stroke="#141B34" stroke-width="1.5" stroke-linecap="round" stroke-linejoin="round"/>
</svg>
