<svg width="24" height="24" viewBox="0 0 24 24" fill="none" xmlns="http://www.w3.org/2000/svg">
<path d="M18.25 14.5C18.25 13.2574 19.2574 12.25 20.5 12.25C21.7426 12.25 22.75 13.2574 22.75 14.5C22.75 15.7426 21.7426 16.75 20.5 16.75C19.8928 16.75 19.3424 16.5094 18.9382 16.1194L16.7329 17.2221C16.7442 17.3133 16.75 17.406 16.75 17.5C16.75 17.594 16.7442 17.6867 16.7329 17.7779L18.9382 18.8806C19.3424 18.4906 19.8928 18.25 20.5 18.25C21.7426 18.25 22.75 19.2574 22.75 20.5C22.75 21.7426 21.7426 22.75 20.5 22.75C19.2574 22.75 18.25 21.7426 18.25 20.5C18.25 20.406 18.2558 20.3133 18.2671 20.2221L16.0618 19.1194C15.6576 19.5094 15.1072 19.75 14.5 19.75C13.2574 19.75 12.25 18.7426 12.25 17.5C12.25 16.2574 13.2574 15.25 14.5 15.25C15.1072 15.25 15.6576 15.4906 16.0618 15.8806L18.2671 14.7779C18.2558 14.6867 18.25 14.594 18.25 14.5Z" fill="#141B34"/>
<path d="M2 1.25C1.80109 1.25 1.61032 1.32902 1.46967 1.46967C1.32902 1.61032 1.25 1.80109 1.25 2V20C1.25 20.4142 1.58579 20.75 2 20.75H12.6279C11.5054 20.102 10.75 18.8892 10.75 17.5C10.75 15.4289 12.4289 13.75 14.5 13.75C15.1028 13.75 15.6729 13.893 16.1775 14.1457L16.8098 13.8295C17.1258 12.0784 18.6578 10.75 20.5 10.75C21.3442 10.75 22.1233 11.029 22.75 11.4997V6C22.75 5.58579 22.4142 5.25 22 5.25H12.375L9.375 1.25001L2 1.25Z" fill="#141B34"/>
</svg>
