<svg width="24" height="24" viewBox="0 0 24 24" fill="none" xmlns="http://www.w3.org/2000/svg">
<path d="M18.0914 11.4161C18.5163 11.2905 18.9732 11.4594 19.2142 11.8312C19.4069 12.1286 19.5991 12.9094 19.8582 13.2302C20.0957 13.6116 20.4538 13.9669 21.169 14.0895C21.7133 14.1828 22.0789 14.6997 21.9856 15.244C21.8923 15.7884 21.3754 16.154 20.831 16.0607C20.2504 15.9612 19.7711 15.768 19.375 15.5208V19.1251C19.375 20.8933 17.9743 22.3751 16.1875 22.3751C14.4007 22.3751 13 20.8933 13 19.1251C13 17.3569 14.4007 15.8751 16.1875 15.8751C16.6093 15.8751 17.0096 15.9577 17.375 16.1071V12.3751C17.375 11.932 17.6665 11.5418 18.0914 11.4161Z" fill="#141B34"/>
<path d="M9.4626 1.86384C8.82373 1.62427 8.11205 1.62458 7.08264 1.62504C6.2039 1.62503 5.32205 1.62506 4.7497 1.67552C4.15996 1.7275 3.64388 1.83746 3.17258 2.10048C2.56533 2.43935 2.06428 2.94041 1.7254 3.54766C1.46238 4.01896 1.35242 4.53504 1.30044 5.12478C1.24999 5.69712 1.24999 6.40585 1.25 7.28458V10.4325C1.24999 12.7408 1.24998 14.5499 1.43975 15.9614C1.63399 17.4061 2.03933 18.5461 2.93414 19.4409C3.82895 20.3358 4.96897 20.7411 6.41371 20.9353C7.62737 21.0985 9.13495 21.1214 11.0012 21.1246C11.4059 21.1253 11.6083 21.1256 11.6986 21.0113C11.7889 20.897 11.7365 20.6788 11.6319 20.2423C11.5455 19.882 11.5 19.5076 11.5 19.1252C11.5 16.8592 13.0988 14.8733 15.3175 14.4558C15.5971 14.4031 15.7368 14.3768 15.8059 14.2935C15.875 14.2102 15.875 14.0813 15.875 13.8235V12.3752C15.875 11.2676 16.6039 10.292 17.666 9.97784C18.7282 9.66372 19.8704 10.086 20.4729 11.0155C20.6025 11.2154 20.6943 11.4312 20.7477 11.5617C20.7916 11.6688 20.9953 12.1804 21.0343 12.2831C21.1323 12.5217 21.3339 12.6012 21.4224 12.6111C21.4553 12.6168 21.4879 12.623 21.5202 12.6299C22.1918 12.7723 22.5276 12.8435 22.6388 12.7534C22.7499 12.6634 22.7499 12.4012 22.75 11.8768L22.75 11.6673C22.75 10.6483 22.75 9.74389 22.683 9.08456C22.6137 8.404 22.4669 7.8138 22.118 7.29169C21.8444 6.88223 21.4929 6.53066 21.0834 6.25707C20.5613 5.90821 19.9711 5.76136 19.2905 5.69213C18.6312 5.62506 17.8095 5.62507 16.7905 5.62508L13.2361 5.62508C12.92 5.62508 12.7396 5.62415 12.6064 5.61039C12.5044 5.60325 12.4348 5.52763 12.4128 5.49071C12.3409 5.37777 12.0838 4.86416 11.9425 4.58144C11.4704 3.62629 10.8581 2.38713 9.4626 1.86384Z" fill="#141B34"/>
</svg>
