<svg width="24" height="24" viewBox="0 0 24 24" fill="none" xmlns="http://www.w3.org/2000/svg">
<path d="M17.478 13.9806C17.6808 14.0652 17.8558 14.1631 18 14.257C18.1442 14.1631 18.3192 14.0652 18.522 13.9806C19.1696 13.7108 20.0857 13.5883 21.1104 14.1222C22.4255 14.8074 23.0209 16.4117 22.6332 17.9972C22.2369 19.618 20.8464 21.2147 18.2354 22.1644L18 22.25L17.7646 22.1644C15.1536 21.2147 13.7631 19.618 13.3668 17.9972C12.9791 16.4117 13.5745 14.8074 14.8895 14.1222C15.9143 13.5883 16.8304 13.7108 17.478 13.9806Z" fill="#141B34"/>
<path d="M2 1.75C1.80109 1.75 1.61032 1.82902 1.46967 1.96967C1.32902 2.11032 1.25 2.30109 1.25 2.5V20.5C1.25 20.9142 1.58579 21.25 2 21.25H13.534C12.715 20.391 12.1668 19.4064 11.9093 18.3535C11.3928 16.2412 12.1458 13.8601 14.1961 12.7919C15.6577 12.0304 17.024 12.182 17.9996 12.5736C18.9753 12.182 20.3415 12.0304 21.8031 12.7919C22.1575 12.9765 22.473 13.2003 22.75 13.4552V6.5C22.75 6.08579 22.4142 5.75 22 5.75H12.375L9.375 1.75001L2 1.75Z" fill="#141B34"/>
</svg>
