<svg width="24" height="24" viewBox="0 0 24 24" fill="none" xmlns="http://www.w3.org/2000/svg">
<path d="M12 18.8333C12 20.3061 13.1193 21.5 14.5 21.5H19.75C20.9926 21.5 22 20.4255 22 19.1C22 17.6579 20.8197 16.6944 19.7388 16.7C19.8774 15.0592 18.6444 13.5 17 13.5C15.5616 13.5 14.3812 14.6779 14.2602 16.1788C12.992 16.3075 12 17.4469 12 18.8333Z" stroke="#141B34" stroke-width="1.5" stroke-linecap="round"/>
<path d="M6.98444 6.50009H11.997M11.997 6.50009H21.99C21.9955 6.50009 22 6.50457 22 6.51009V11.9883M11.997 6.50009L8.99331 2.50195H2.00718C2.00165 2.50195 1.99717 2.50643 1.99717 2.51195L1.99761 20.4498C1.99761 20.4553 1.99204 20.4979 1.99755 20.498L8.99331 20.4498" stroke="#141B34" stroke-width="1.5"/>
</svg>
