<svg width="24" height="24" viewBox="0 0 24 24" fill="none" xmlns="http://www.w3.org/2000/svg">
<path fill-rule="evenodd" clip-rule="evenodd" d="M22.7493 18C22.7493 18 22.1949 17.17 22.06 16.9951C21.7913 16.6467 21.4012 16.1801 20.9159 15.7109C19.9753 14.8012 18.5423 13.75 16.859 13.75C15.1758 13.75 13.7428 14.8012 12.8021 15.7109C12.3169 16.1801 11.9267 16.6467 11.658 16.9951C11.5232 17.17 10.9688 18 10.9688 18C10.9688 18 11.5232 18.83 11.658 19.0049C11.9267 19.3533 12.3169 19.8199 12.8021 20.2891C13.7428 21.1988 15.1758 22.25 16.859 22.25C18.5423 22.25 19.9753 21.1988 20.9159 20.2891C21.4012 19.8199 21.7913 19.3533 22.06 19.0049C22.1949 18.83 22.7493 18 22.7493 18ZM16.8527 16.5C16.0279 16.5 15.3594 17.1716 15.3594 18C15.3594 18.8284 16.0279 19.5 16.8527 19.5H16.8661C17.6908 19.5 18.3594 18.8284 18.3594 18C18.3594 17.1716 17.6908 16.5 16.8661 16.5H16.8527Z" fill="#141B34"/>
<path d="M2 1.75C1.80109 1.75 1.61032 1.82902 1.46967 1.96967C1.32902 2.11032 1.25 2.30109 1.25 2.5V20.5C1.25 20.9142 1.58579 21.25 2 21.25H11.6388C11.144 20.7583 10.7473 20.2813 10.4694 19.9208C10.3667 19.7876 10.1624 19.488 10.0204 19.2785C9.94107 19.1615 9.16406 18 9.16406 18C9.16406 18 9.94107 16.8385 10.0204 16.7215C10.1624 16.512 10.3667 16.2124 10.4694 16.0792C10.7694 15.6901 11.2078 15.1652 11.7586 14.6326C12.7708 13.6538 14.5698 12.25 16.8582 12.25C19.1467 12.25 20.9457 13.6538 21.9579 14.6326C22.2563 14.9212 22.5217 15.2074 22.75 15.4711V6.5C22.75 6.08579 22.4142 5.75 22 5.75H12.375L9.375 1.75001L2 1.75Z" fill="#141B34"/>
</svg>
