<svg width="24" height="24" viewBox="0 0 24 24" fill="none" xmlns="http://www.w3.org/2000/svg">
<path opacity="0.4" d="M13.2502 8.00008C13.2502 8.25086 13.251 8.25008 13.0002 8.25008H11.0002C10.7494 8.25008 10.7502 8.25086 10.7502 8.00008L10.7502 3.96563C10.7503 3.76052 10.7504 3.53873 10.7252 3.35151C10.6957 3.13218 10.6199 2.852 10.3841 2.6162C10.1483 2.3804 9.86811 2.30456 9.64879 2.27507C9.46158 2.24991 9.2398 2.24999 9.03469 2.25007L8.30809 2.25008C8.24214 2.25007 8.13906 2.25006 8.04133 2.26244C7.93302 2.27616 7.74806 2.31361 7.57173 2.45128C7.3954 2.58896 7.31421 2.7593 7.27463 2.86106C7.23892 2.95286 7.21393 3.05287 7.19794 3.11685L6.91464 4.24999H6.0858L5.8025 3.11678C5.78651 3.0528 5.76152 2.95279 5.72581 2.86098C5.68623 2.75922 5.60503 2.58886 5.42869 2.45119C5.25235 2.31351 5.06738 2.27606 4.95906 2.26235C4.86133 2.24998 4.75824 2.24999 4.69229 2.25L3.96569 2.25003C3.7606 2.24996 3.53879 2.24988 3.35159 2.27506C3.13228 2.30455 2.8521 2.3804 2.61631 2.61619C2.38053 2.85199 2.3047 3.13217 2.27521 3.35149C2.25004 3.5387 2.25013 3.76048 2.25021 3.96559L2.25 21.0001C2.25 21.199 2.32901 21.3898 2.46967 21.5304C2.61032 21.6711 2.80109 21.7501 3 21.7501L8.03466 21.7501C8.23978 21.7502 8.46157 21.7503 8.64879 21.7251C8.86811 21.6956 9.1483 21.6198 9.3841 21.384C9.6199 21.1482 9.69574 20.868 9.72522 20.6487C9.75039 20.4614 9.75031 20.2396 9.75023 20.0345L9.75022 18.0001C9.75022 16.7574 10.7576 15.7501 12.0002 15.7501C13.2429 15.7501 14.2502 16.7574 14.2502 18.0001L14.2502 20.0345C14.2501 20.2396 14.25 20.4614 14.2752 20.6487C14.3047 20.868 14.3805 21.1482 14.6163 21.384C14.8521 21.6198 15.1323 21.6956 15.3516 21.7251C15.5389 21.7503 15.7607 21.7502 15.9658 21.7501L21.0002 21.7501C21.4144 21.7501 21.7502 21.4143 21.7502 21.0001L21.7502 3.96559C21.7503 3.76049 21.7504 3.5387 21.7252 3.35149C21.6957 3.13217 21.6199 2.85199 21.3841 2.61619C21.1483 2.3804 20.8682 2.30455 20.6488 2.27506C20.4616 2.24988 20.2399 2.24996 20.0348 2.25003L19.3081 2.25C19.2422 2.24999 19.1391 2.24998 19.0414 2.26235C18.933 2.27607 18.7481 2.31351 18.5717 2.45119C18.3954 2.58887 18.3142 2.75922 18.2746 2.86098C18.2389 2.95277 18.2139 3.05277 18.1979 3.11674L17.9146 4.24999H17.0858L16.8025 3.11686C16.7865 3.05288 16.7615 2.95285 16.7258 2.86106C16.6862 2.7593 16.605 2.58895 16.4287 2.45128C16.2524 2.31361 16.0674 2.27616 15.9591 2.26244C15.8614 2.25006 15.7583 2.25007 15.6923 2.25008L14.9658 2.25007C14.7607 2.24999 14.5389 2.24991 14.3516 2.27507C14.1323 2.30456 13.8521 2.3804 13.6163 2.6162C13.3805 2.852 13.3047 3.13219 13.2752 3.35151C13.25 3.53872 13.2501 3.7605 13.2502 3.96561L13.2502 8.00008Z" fill="#141B34"/>
<path fill-rule="evenodd" clip-rule="evenodd" d="M12 16C10.8954 16 10 16.8954 10 18V20C10 20.2074 10.0021 20.4636 9.97278 20.6819C9.93956 20.9289 9.85065 21.2707 9.56066 21.5607C9.27067 21.8507 8.92893 21.9396 8.68188 21.9728C8.46361 22.0021 8.20743 22 8 22H2C1.44772 22 1 21.5523 1 21C1 20.4477 1.44772 20 2 20H7.6C7.78856 20 7.88284 20 7.94142 19.9414C8 19.8828 8 19.7886 8 19.6V18C8 15.7909 9.79086 14 12 14C14.2091 14 16 15.7909 16 18V19.6C16 19.7886 16 19.8828 16.0586 19.9414C16.1172 20 16.2114 20 16.4 20H22C22.5523 20 23 20.4477 23 21C23 21.5523 22.5523 22 22 22H16C15.7926 22 15.5364 22.0021 15.3181 21.9728C15.0711 21.9396 14.7293 21.8507 14.4393 21.5607C14.1493 21.2707 14.0604 20.9289 14.0272 20.6819C13.9979 20.4636 14 20.2074 14 20V18C14 16.8954 13.1046 16 12 16Z" fill="#141B34"/>
<path fill-rule="evenodd" clip-rule="evenodd" d="M5 9C5 8.44772 5.44772 8 6 8H7C7.55228 8 8 8.44772 8 9C8 9.55228 7.55228 10 7 10H6C5.44772 10 5 9.55228 5 9Z" fill="#141B34"/>
<path fill-rule="evenodd" clip-rule="evenodd" d="M10.5 12C10.5 11.4477 10.9477 11 11.5 11H12.5C13.0523 11 13.5 11.4477 13.5 12C13.5 12.5523 13.0523 13 12.5 13H11.5C10.9477 13 10.5 12.5523 10.5 12Z" fill="#141B34"/>
<path fill-rule="evenodd" clip-rule="evenodd" d="M16 9C16 8.44772 16.4477 8 17 8H18C18.5523 8 19 8.44772 19 9C19 9.55228 18.5523 10 18 10H17C16.4477 10 16 9.55228 16 9Z" fill="#141B34"/>
</svg>
