<svg width="24" height="24" viewBox="0 0 24 24" fill="none" xmlns="http://www.w3.org/2000/svg">
<path opacity="0.4" d="M19.75 12.4998V11.4998V7.99976C19.75 7.17133 19.0784 6.49976 18.25 6.49976C17.4216 6.49976 16.75 7.17133 16.75 7.99976V5.99976C16.75 5.17133 16.0784 4.49976 15.25 4.49976C14.4216 4.49976 13.75 5.17133 13.75 5.99976V3.99976C13.75 3.17133 13.0784 2.49976 12.25 2.49976C11.4216 2.49976 10.75 3.17133 10.75 3.99976V5.99976C10.75 5.17133 10.0784 4.49976 9.25 4.49976C8.42157 4.49976 7.75 5.17133 7.75 5.99976V9.49976L6.2843 10.8745C5.07555 12.2098 4.47118 12.8774 4.30904 13.6754C4.25813 13.926 4.24003 14.1819 4.25519 14.437C4.30345 15.2493 4.80807 15.9926 5.81729 17.479L6.3809 18.3091C7.01844 19.2481 7.33722 19.7176 7.72767 20.0894C8.41108 20.7401 9.26656 21.1896 10.197 21.387C10.7286 21.4998 11.3033 21.4998 12.4527 21.4998C14.5057 21.4998 15.5323 21.4998 16.3566 21.2134C17.8056 20.7099 18.9455 19.5906 19.4583 18.1678C19.75 17.3584 19.75 16.3504 19.75 14.3345V12.4998Z" fill="#141B34"/>
<path d="M7.89205 9.35633L5.4741 11.9588C5.15171 12.2907 4.57635 13.1569 4.50692 13.9503C4.4339 14.7846 5.18562 15.9814 5.4741 16.4396C6.22604 17.6339 6.52881 18.2966 7.40846 19.4268C7.88617 20.0406 9.17658 21.2641 11.2772 21.4183C12.8453 21.5334 14.4062 21.5227 15.1459 21.4183C15.6538 21.3466 16.8868 21.1196 18.0474 19.9247C19.2081 18.7298 19.4982 16.7715 19.4982 15.9418V7.97584C19.4982 7.47797 19.2081 6.48223 18.0474 6.48223C16.8868 6.48223 16.5967 7.47797 16.5967 7.97584V11.4609M7.89205 13.9503V5.98436C7.89205 5.48649 8.1822 4.49075 9.34282 4.49075C10.5034 4.49075 10.7936 5.48649 10.7936 5.98436M10.7936 5.98436V10.4652M10.7936 5.98436V3.99288C10.7936 3.49501 11.0837 2.49927 12.2444 2.49927C13.405 2.49927 13.6951 3.49501 13.6951 3.99288V5.98436M13.6951 5.98436V10.4652M13.6951 5.98436C13.6951 5.48649 13.9853 4.49075 15.1459 4.49075C16.3065 4.49075 16.5967 5.48649 16.5967 5.98436V8.47371" stroke="#141B34" stroke-width="1.5" stroke-linecap="round" stroke-linejoin="round"/>
</svg>
