<svg width="25" height="24" viewBox="0 0 25 24" fill="none" xmlns="http://www.w3.org/2000/svg">
<path fill-rule="evenodd" clip-rule="evenodd" d="M4.99707 1.75C3.47829 1.75 2.24707 2.98122 2.24707 4.5V19.5C2.24707 21.0188 3.47829 22.25 4.99707 22.25L19.9971 22.25C21.5159 22.25 22.7471 21.0188 22.7471 19.5V4.5C22.7471 2.98121 21.5159 1.75 19.9971 1.75H4.99707ZM11.9549 7.28761C12.1136 6.75862 11.8134 6.20113 11.2844 6.04244C10.7554 5.88374 10.1979 6.18392 10.0392 6.71292L8.55763 11.6516C8.51747 11.7855 8.49707 11.9245 8.49707 12.0643C8.49707 12.8573 9.13999 13.5003 9.93308 13.5003H14.4971V17.0003C14.4971 17.5525 14.9448 18.0003 15.4971 18.0003C16.0494 18.0003 16.4971 17.5525 16.4971 17.0003V7.00026C16.4971 6.44798 16.0494 6.00026 15.4971 6.00026C14.9448 6.00026 14.4971 6.44798 14.4971 7.00026V11.5003H10.6911L11.9549 7.28761Z" fill="#141B34"/>
</svg>
