<svg width="24" height="24" viewBox="0 0 24 24" fill="none" xmlns="http://www.w3.org/2000/svg">
<path d="M14.4491 10.883V4.54642C14.4491 3.83032 15.0296 3.24981 15.7457 3.24981C16.4618 3.24981 17.0423 3.83032 17.0423 4.54642V11.9999C17.0423 12.2312 17.2358 12.4187 17.4745 12.4187C17.7132 12.4187 17.9067 12.2312 17.9067 11.9999V6.57248C17.9067 5.85636 18.4873 5.27583 19.2034 5.27583C19.9195 5.27583 20.5 5.85636 20.5 6.57248V14.0117C20.5003 15.8576 20.5005 16.9879 20.1639 17.9221C19.9035 18.6447 19.5029 19.2985 18.9942 19.853C18.6291 20.251 18.4304 20.6628 18.4304 21.0447C18.4304 21.9864 17.667 22.7498 16.7253 22.7498L9.47222 22.7499C9.27199 22.7502 9.06349 22.7505 8.87474 22.7091C8.20791 22.5627 7.6871 22.0419 7.54071 21.3751C7.49927 21.1863 7.49967 20.9249 7.5 20.7246C7.5 20.4411 7.40358 20.1659 7.22657 19.9444L5.17578 17.3693C4.689 16.6524 4.29344 16.0698 4.01761 15.5646C3.73104 15.0398 3.53969 14.54 3.50651 13.9815C3.48749 13.6614 3.5102 13.3403 3.57406 13.026C3.68545 12.4778 3.94502 12.0093 4.30239 11.5288C4.64652 11.0661 5.12016 10.5429 5.70329 9.8988C6.09321 9.52543 6.28817 9.33874 6.45557 9.38892C6.47711 9.39538 6.49786 9.40424 6.51742 9.41533C6.66943 9.50153 6.66943 9.77146 6.66943 10.3113V13.6333C6.66943 13.8646 6.86293 14.0521 7.10163 14.0521C7.34033 14.0521 7.53383 13.8646 7.53384 13.6333L7.53403 4.04706C7.53404 3.33096 8.11456 2.75045 8.83066 2.75045C9.54678 2.75045 10.1273 3.33097 10.1273 4.04708V9.76614C10.1273 9.99745 10.3208 10.185 10.5595 10.185C10.7982 10.185 10.9917 9.99745 10.9917 9.76614V2.54649C10.9917 1.83046 11.5722 1.25 12.2882 1.25C13.0042 1.25 13.5847 1.83046 13.5847 2.54649V10.883C13.5847 11.1143 13.7782 11.3019 14.0169 11.3019C14.2556 11.3019 14.4491 11.1143 14.4491 10.883Z" fill="#141B34"/>
</svg>
