<svg width="24" height="24" viewBox="0 0 24 24" fill="none" xmlns="http://www.w3.org/2000/svg">
<path opacity="0.4" d="M16.6969 13.7088L12.4948 18.8427C10.7034 21.0313 9.80768 22.1256 8.76719 21.9888C7.73827 21.8534 7.49191 20.5153 7.04414 18.0833L7.02893 18.0006H7.49283C8.87703 18.0006 9.99918 16.8819 9.99918 15.5019C9.99918 14.1219 8.87703 13.0032 7.49283 13.0032C7.1398 13.0032 6.80381 13.076 6.49914 13.2073L5.9699 12.3127C5.47896 9.64697 5.2335 8.31409 5.94514 7.97075C6.15453 7.86973 6.68941 8.16996 7.51395 8.63276C9.05011 9.49499 11.5917 10.9215 14.9067 11.3689C16.2245 11.5468 16.8834 11.6357 17.1835 12.0011C17.2586 12.0925 17.3246 12.2146 17.3565 12.3212C17.484 12.7472 17.2216 13.0677 16.6969 13.7088Z" fill="#141B34"/>
<path d="M7.49486 17.2513C7.08065 17.2513 6.74486 17.5869 6.74486 18.0009C6.74486 18.4149 7.08065 18.7505 7.49486 18.7505V17.2513ZM6.20418 12.5193C5.82383 12.6832 5.64845 13.1243 5.81248 13.5045C5.9765 13.8846 6.4178 14.0599 6.79816 13.896L6.20418 12.5193ZM7.49486 18.7505C9.29149 18.7505 10.7512 17.298 10.7512 15.5022H9.25117C9.25117 16.4664 8.46663 17.2513 7.49486 17.2513V18.7505ZM10.7512 15.5022C10.7512 13.7065 9.29149 12.2539 7.49486 12.2539V13.7531C8.46663 13.7531 9.25117 14.538 9.25117 15.5022H10.7512ZM7.49486 12.2539C7.03784 12.2539 6.60093 12.3483 6.20418 12.5193L6.79816 13.896C7.01075 13.8043 7.24581 13.7531 7.49486 13.7531V12.2539Z" fill="#141B34"/>
<path d="M5.56751 10.0203C5.28948 7.82067 5.99219 7.74487 6.33971 8.01596C12.2041 11.4804 15.352 11.3068 16.6936 11.7007C17.7669 12.0158 17.4795 12.9434 17.1304 13.3044L11.6605 19.7813C10.7542 20.8545 9.56015 22.5757 8.38273 21.8093C7.87895 21.4813 7.59495 20.7783 7.50009 20.2347C6.94664 17.7433 5.84553 12.2199 5.56751 10.0203Z" stroke="#141B34" stroke-width="1.5" stroke-linecap="round" stroke-linejoin="round"/>
<path d="M16.0232 11.5663L18.4394 7.68922C18.7111 7.02284 18.1071 5.96273 16.0232 6.5988L13.4864 10.5667M15.7939 6.71474V5.32452C15.7939 4.96559 15.7231 4.59499 15.4985 4.31551C15.1484 3.87974 14.5577 3.61585 13.2608 4.77621M13.0907 10.318V3.22217C12.7576 2.67429 11.8915 1.68274 11.0921 2.09966C10.2926 2.5166 10.3726 3.22217 10.3726 3.54288V4.80163M10.3726 4.80163V6.99057M10.3726 4.80163C9.95558 4.35075 8.74961 3.54288 8.02873 4.17196C7.41776 4.70512 7.67995 6.99057 7.67995 8.32317" stroke="#141B34" stroke-width="1.5" stroke-linecap="round" stroke-linejoin="round"/>
<path d="M7.46869 18.0225C8.86176 18.0225 9.99107 16.8898 9.99107 15.4927C9.99107 14.0955 8.86176 12.9629 7.46869 12.9629C7.03543 12.9629 6.62768 13.0724 6.27148 13.2654" stroke="#141B34" stroke-width="1.5" stroke-linecap="round"/>
</svg>
