<svg width="24" height="24" viewBox="0 0 24 24" fill="none" xmlns="http://www.w3.org/2000/svg">
<path fill-rule="evenodd" clip-rule="evenodd" d="M17.123 3.00024L20.123 3.50024L19.8764 4.97983L16.8764 4.47983L17.123 3.00024ZM7.08733 4.47957L4.12448 4.97957L3.87488 3.50049L6.83773 3.00049L7.08733 4.47957Z" fill="#141B34"/>
<path fill-rule="evenodd" clip-rule="evenodd" d="M19.0772 6.0531C14.6688 4.98686 9.33074 4.98686 4.92235 6.0531C3.89393 6.30184 3.10096 7.0444 2.73772 8.01407C2.15324 9.57433 1.48309 12.2041 1.25585 15.7644C1.16469 17.1929 2.11098 18.2411 3.07025 18.9639C3.91999 19.6042 4.95194 20.1171 5.74074 20.5092C5.85594 20.5665 5.96597 20.6211 6.06947 20.6733L6.71819 21L8.8736 17.0411H15.1404L17.4207 20.9919L18.0535 20.6733C18.1255 20.637 18.2004 20.5995 18.2777 20.5608C19.079 20.1597 20.1377 19.6296 21.001 18.9563C21.9379 18.2253 22.8339 17.1782 22.7437 15.7644C22.5165 12.2041 21.8463 9.57433 21.2618 8.01407C20.8986 7.0444 20.1056 6.30184 19.0772 6.0531ZM5.47046 12.4731L6.44013 11.5035L5.47046 10.5338L6.53112 9.47314L7.50079 10.4428L8.47046 9.47314L9.53112 10.5338L8.56145 11.5035L9.53112 12.4731L8.47046 13.5338L7.50079 12.5641L6.53112 13.5338L5.47046 12.4731ZM15.238 9.25342H16.747V10.7534H15.238V9.25342ZM18.747 12.2534H17.238V13.7534H18.747V12.2534Z" fill="#141B34"/>
</svg>
