<svg width="24" height="24" viewBox="0 0 24 24" fill="none" xmlns="http://www.w3.org/2000/svg">
<g opacity="0.4">
<path d="M2.75 12.0016C2.75 7.14544 6.49211 3.16332 11.25 2.78155V1.27734C5.66285 1.66238 1.25 6.31665 1.25 12.0016C1.25 17.6865 5.66285 22.3408 11.25 22.7258V21.2216C6.49211 20.8399 2.75 16.8577 2.75 12.0016Z" fill="#141B34"/>
<path d="M7.5378 17.7163C8.58284 18.5333 9.85863 19.0702 11.25 19.2132V17.7032C10.2065 17.5675 9.25168 17.1522 8.46165 16.5346C8.13532 16.2794 7.66397 16.3372 7.40885 16.6635C7.15374 16.9898 7.21147 17.4612 7.5378 17.7163Z" fill="#141B34"/>
<path d="M6.31739 12.8871C6.25418 12.4778 5.87108 12.1972 5.46172 12.2604C5.05236 12.3236 4.77175 12.7067 4.83496 13.116C4.95753 13.9099 5.20888 14.6614 5.56685 15.3482C5.75829 15.7155 6.21126 15.8581 6.57857 15.6667C6.94589 15.4752 7.08847 15.0223 6.89702 14.6549C6.61344 14.1109 6.41448 13.5159 6.31739 12.8871Z" fill="#141B34"/>
<path d="M6.52691 10.2321C7.19921 8.15101 9.02553 6.58974 11.25 6.30003V4.78988C8.3551 5.08724 5.96639 7.08767 5.09954 9.77104C4.97221 10.1652 5.18851 10.5879 5.58267 10.7153C5.97683 10.8426 6.39958 10.6263 6.52691 10.2321Z" fill="#141B34"/>
<path d="M8.25 12.0016C8.25 13.8158 9.53832 15.3291 11.25 15.6766V14.1236C10.3761 13.8147 9.75 12.9813 9.75 12.0016C9.75 11.0219 10.3761 10.1885 11.25 9.87962V8.3266C9.53832 8.67405 8.25 10.1874 8.25 12.0016Z" fill="#141B34"/>
</g>
<path fill-rule="evenodd" clip-rule="evenodd" d="M16.6553 2.30754C15.2467 1.62977 13.6677 1.25 12 1.25C11.8157 1.25 11.25 1.27344 11.25 1.27344V2V4.74835H12.0002C12.018 4.74835 12.0358 4.74898 12.0536 4.75025C12.7927 4.80304 13.737 4.73943 14.5747 4.46253C15.4043 4.18828 16.0434 3.73684 16.362 3.07171L16.6553 2.30754ZM17.9729 3.0607L17.7524 3.63524C17.7462 3.65136 17.7395 3.66725 17.7322 3.6829C17.1801 4.86915 16.11 5.53483 15.0455 5.88673C13.9909 6.23534 12.8554 6.30818 11.9741 6.24835H11.25V22V22.7344C11.25 22.7344 11.8107 22.75 12 22.75C14.3921 22.75 16.6018 21.9687 18.3876 20.6473L18.0151 20.483C17.4303 20.2942 16.9611 20.0125 16.6281 19.6296C16.2807 19.23 16.1233 18.7678 16.0992 18.3095C16.0533 17.4384 16.4839 16.6033 16.9002 16.0483C17.2103 15.6349 17.3332 15.292 17.3635 14.9993C17.394 14.7048 17.3372 14.3971 17.1858 14.0438C17.0311 13.6829 16.7883 13.2985 16.4708 12.8601C16.2798 12.5963 16.0836 12.3415 15.8742 12.0696L15.8741 12.0696C15.7239 11.8745 15.5669 11.6707 15.4002 11.4483C14.9493 10.8472 14.7153 10.2194 14.7269 9.58627C14.7384 8.95338 14.9936 8.40529 15.3572 7.96092C16.062 7.09949 17.2369 6.54108 18.3183 6.27074C18.7596 6.1604 19.1761 5.89968 19.5542 5.5435C19.5796 5.51963 19.6066 5.49755 19.635 5.47742L20.2153 5.0663C19.5662 4.29797 18.8112 3.62194 17.9729 3.0607ZM21.1015 6.27676L20.5432 6.67226C20.0471 7.1307 19.4244 7.54037 18.6821 7.72595C17.7634 7.95561 16.9383 8.3972 16.5181 8.91077C16.3192 9.1539 16.2307 9.38706 16.2266 9.61354C16.2225 9.83983 16.301 10.1494 16.6002 10.5483C16.74 10.7348 16.8887 10.9281 17.0377 11.1219L17.0378 11.122C17.2627 11.4143 17.4884 11.7078 17.6858 11.9803C18.0246 12.4482 18.3442 12.9388 18.5645 13.4529C18.7881 13.9746 18.9188 14.5419 18.8556 15.1536C18.7921 15.7672 18.5401 16.3618 18.1002 16.9483C17.7772 17.379 17.5779 17.8664 17.5971 18.2307C17.6055 18.3901 17.6543 18.5237 17.76 18.6453C17.8722 18.7743 18.0885 18.9347 18.5043 19.0645C18.5312 19.0729 18.5577 19.0828 18.5835 19.0942L19.6416 19.561C21.5633 17.6189 22.75 14.948 22.75 12C22.75 9.89645 22.1458 7.93401 21.1015 6.27676Z" fill="#141B34"/>
</svg>
