<svg width="24" height="24" viewBox="0 0 24 24" fill="none" xmlns="http://www.w3.org/2000/svg">
<path d="M22 13.9918L17.5 4L16 5.49879" stroke="#141B34" stroke-width="1.5" stroke-linejoin="round"/>
<path d="M2 13.9918L6.5 4L8 5.49879" stroke="#141B34" stroke-width="1.5" stroke-linejoin="round"/>
<path d="M10.5 15.4907H13.5" stroke="#141B34" stroke-width="1.5" stroke-linejoin="round"/>
<path d="M10.5054 13.9741H2.03345C2.02601 13.9741 2.02117 13.982 2.02452 13.9886L3.03349 15.9939L2.9576 19.9867C2.9575 19.9923 2.96201 19.9969 2.9676 19.9969H10.5054C10.5109 19.9969 10.5154 19.9924 10.5154 19.9869V13.9841C10.5154 13.9786 10.5109 13.9741 10.5054 13.9741Z" stroke="#141B34" stroke-width="1.5"/>
<path d="M13.5178 13.9741H21.9898C21.9972 13.9741 22.002 13.982 21.9987 13.9886L20.9897 15.9939L21.0656 19.9867C21.0657 19.9923 21.0612 19.9969 21.0556 19.9969H13.5178C13.5123 19.9969 13.5078 19.9924 13.5078 19.9869V13.9841C13.5078 13.9786 13.5123 13.9741 13.5178 13.9741Z" stroke="#141B34" stroke-width="1.5"/>
</svg>
