<svg width="24" height="24" viewBox="0 0 24 24" fill="none" xmlns="http://www.w3.org/2000/svg">
<path opacity="0.4" d="M19.7826 5.7201C21.1697 7.43673 22.0003 9.62157 22.0003 12.0004C22.0003 13.1634 21.8018 14.2801 21.4368 15.3183C20.6688 13.9359 19.1938 13.0004 17.5003 13.0004C15.0151 13.0004 13.0003 15.0152 13.0003 17.5004C13.0003 19.1939 13.9358 20.6689 15.3182 21.4369C14.28 21.8019 13.1633 22.0004 12.0003 22.0004C10.6745 22.0004 9.40898 21.7424 8.25117 21.2739L8.51094 21.0004C9.18506 20.1678 9.06684 19.1986 8.72865 18.2293C8.49767 17.5673 8.36931 17.1994 8.29796 16.8207C8.20871 16.347 8.20871 15.8565 8.20871 14.7522C8.20871 12.7653 7.68877 12.2686 5.08908 12.2686C3.85566 12.2686 2.80512 11.6863 2.0459 11.0396C2.47548 6.53327 5.89568 2.89917 10.2993 2.14453C9.74789 3.31036 9.93928 4.72809 11.0405 5.26259C11.9613 5.70953 12.0553 6.35294 12.1505 7.00386C12.2372 7.597 12.3248 8.19638 13.0397 8.65905C14.0394 9.30599 15.5388 9.14404 17.0382 7.20321C17.8052 6.21045 18.8855 5.826 19.7826 5.7201Z" fill="#141B34"/>
<path d="M19.7423 17.4915L20.5917 17.9414C21.1874 18.257 21.4853 18.4148 21.762 18.2331C22.0386 18.0513 22.0173 17.7661 21.9747 17.1958C21.7298 13.9197 17.6728 11.6731 14.8672 13.8841M15.2558 17.4915L14.4065 17.0416C13.8112 16.7262 13.5135 16.5685 13.2365 16.7515C12.9595 16.9345 12.9822 17.2187 13.0275 17.7872C13.2864 21.0359 17.3202 23.3133 20.0565 21.1514" stroke="#141B34" stroke-width="1.5" stroke-linecap="round" stroke-linejoin="round"/>
<path d="M11.0107 22C5.95135 21.497 2 17.2229 2 12.0247C2 6.48823 6.48245 2 12.0118 2C17.308 2 21.6437 6.11759 22 11.33" stroke="#141B34" stroke-width="1.5" stroke-linecap="round"/>
<path d="M2.1748 11.1133C2.9373 11.7754 3.83072 12.2355 5.089 12.2355C7.68869 12.2355 8.20863 12.7322 8.20863 14.7191C8.20863 16.706 8.20863 16.706 8.72857 18.1961C9.06677 19.1654 9.18498 20.1347 8.51086 20.9673" stroke="#141B34" stroke-width="1.5" stroke-linecap="round" stroke-linejoin="round"/>
<path d="M19.998 5.69899C19.0633 5.76636 17.8661 6.12824 17.0359 7.20277C15.5365 9.14361 14.037 9.30556 13.0374 8.65861C11.5379 7.6882 12.798 6.11636 11.0381 5.26215C9.89117 4.70542 9.73125 3.19045 10.3696 2" stroke="#141B34" stroke-width="1.5" stroke-linejoin="round"/>
</svg>
