<svg width="24" height="24" viewBox="0 0 24 24" fill="none" xmlns="http://www.w3.org/2000/svg">
<path opacity="0.4" d="M10.1724 1.40483C10.7669 1.30298 11.3775 1.25 11.9999 1.25C15.3801 1.25 18.3963 2.81097 20.3657 5.24849C20.5374 5.46093 20.58 5.74988 20.4769 6.00281C20.3739 6.25574 20.1415 6.43266 19.8703 6.46468C19.1028 6.55526 18.2377 6.87675 17.6315 7.66148C16.8187 8.71346 15.9471 9.36062 15.063 9.62078C14.1618 9.88596 13.3114 9.72818 12.6319 9.28843C11.6258 8.63728 11.4958 7.72722 11.4107 7.13129C11.3644 6.81991 11.3081 6.52842 11.2244 6.37357C11.1546 6.24455 11.0279 6.09006 10.7127 5.93705C9.92015 5.55237 9.471 4.84887 9.31521 4.09096C9.1621 3.34613 9.28442 2.5351 9.62111 1.82335C9.72567 1.60231 9.93142 1.44612 10.1724 1.40483Z" fill="#141B34"/>
<path opacity="0.4" d="M1.7638 10.344C2.02294 10.239 2.319 10.2868 2.53187 10.4681C3.21164 11.0471 4.09563 11.5181 5.08874 11.5181C5.75485 11.5181 6.32888 11.5492 6.81102 11.6396C7.29426 11.7301 7.73816 11.8894 8.09861 12.1845C8.84883 12.7989 8.95837 13.7614 8.95837 14.7517C8.95837 15.7706 8.9604 16.1997 9.01512 16.5656C9.06753 16.9161 9.16946 17.2165 9.43644 17.9817C9.59057 18.4234 9.80455 19.0505 9.79233 19.7265C9.77927 20.4492 9.51156 21.1855 8.80931 21.8406C8.59704 22.0386 8.28956 22.0963 8.01992 21.9888C4.05446 20.4075 1.25 16.5321 1.25 11.9999C1.25 11.652 1.26655 11.3077 1.29895 10.9679C1.32548 10.6895 1.50467 10.4491 1.7638 10.344Z" fill="#141B34"/>
<path d="M11.0243 20.7419C6.62586 20.2565 3.20455 16.5278 3.20455 12C3.20455 7.1424 7.1424 3.20454 12 3.20454C16.5278 3.20454 20.2565 6.62586 20.7419 11.0243C20.8012 11.5608 21.233 12 21.7727 12C22.3125 12 22.7546 11.561 22.7062 11.0235C22.2128 5.54403 17.6079 1.25 12 1.25C6.06294 1.25 1.25 6.06294 1.25 12C1.25 17.6079 5.54403 22.2128 11.0235 22.7062C11.561 22.7546 12 22.3125 12 21.7727C12 21.233 11.5608 20.8012 11.0243 20.7419Z" fill="#141B34"/>
<path d="M18.6861 14.1272C17.5789 13.576 16.2881 13.5907 15.2368 14.4192C14.803 14.7611 14.1742 14.6865 13.8324 14.2527C13.4905 13.819 13.5651 13.1902 13.9989 12.8484C15.7532 11.4659 17.8936 11.4985 19.5775 12.3368C21.2429 13.166 22.5702 14.8331 22.7225 16.871L22.7265 16.9237C22.7445 17.1587 22.7686 17.4749 22.7284 17.7531C22.6704 18.1536 22.4769 18.5457 22.0617 18.8185C21.5996 19.1221 21.1237 19.0927 20.7544 18.9797C20.4766 18.8946 20.176 18.7351 19.9248 18.6017L19.9248 18.6017L19.0248 18.1249C18.5368 17.8663 18.3507 17.2611 18.6092 16.7731C18.8678 16.285 19.473 16.099 19.961 16.3575L20.6955 16.7466C20.5114 15.6222 19.7282 14.646 18.6861 14.1272Z" fill="#141B34"/>
<path d="M14.5745 15.8807L15.4745 16.3575C15.9626 16.6161 16.1486 17.2213 15.8901 17.7093C15.6316 18.1973 15.0263 18.3834 14.5383 18.1249L13.8104 17.7392C14.0018 18.8523 14.7838 19.8298 15.8179 20.3571C16.921 20.9197 18.1816 20.9109 19.1871 20.1164C19.6205 19.774 20.2493 19.8478 20.5917 20.2811C20.9341 20.7145 20.8604 21.3433 20.427 21.6857C18.6964 23.0531 16.5718 22.9867 14.9093 22.1388C13.264 21.2998 11.9422 19.6367 11.7813 17.6164L11.777 17.5636C11.758 17.3297 11.7322 17.0134 11.7716 16.7347C11.8284 16.3322 12.022 15.9403 12.436 15.6668C12.8975 15.3619 13.3737 15.3897 13.7445 15.5029C14.0228 15.5878 14.3236 15.7475 14.5745 15.8807Z" fill="#141B34"/>
</svg>
