<svg width="24" height="24" viewBox="0 0 24 24" fill="none" xmlns="http://www.w3.org/2000/svg">
<path opacity="0.4" d="M19.7826 5.7201C21.1697 7.43673 22.0003 9.62157 22.0003 12.0004C22.0003 13.5399 21.6525 14.9981 21.0311 16.3007C20.6795 14.4222 19.0309 13.0004 17.0503 13.0004C14.8136 13.0004 13.0003 14.8137 13.0003 17.0504C13.0003 19.031 14.4221 20.6796 16.3006 21.0312C14.998 21.6526 13.5398 22.0004 12.0003 22.0004C10.6745 22.0004 9.40898 21.7424 8.25117 21.2739L8.51094 21.0004C9.18506 20.1678 9.06684 19.1986 8.72865 18.2293C8.49767 17.5673 8.36931 17.1994 8.29796 16.8207C8.20871 16.347 8.20871 15.8565 8.20871 14.7522C8.20871 12.7653 7.68877 12.2686 5.08908 12.2686C3.85566 12.2686 2.80512 11.6863 2.0459 11.0396C2.47548 6.53327 5.89568 2.89917 10.2993 2.14453C9.74789 3.31036 9.93928 4.72809 11.0405 5.26259C11.9613 5.70953 12.0553 6.35294 12.1505 7.00386C12.2372 7.597 12.3248 8.19638 13.0397 8.65905C14.0394 9.30599 15.5388 9.14404 17.0382 7.20321C17.8052 6.21045 18.8855 5.826 19.7826 5.7201Z" fill="#141B34"/>
<path d="M22 12C22 6.47715 17.5228 2 12 2C6.47715 2 2 6.47715 2 12C2 17.5228 6.47715 22 12 22" stroke="#141B34" stroke-width="1.5" stroke-linecap="round"/>
<path d="M20.0371 5.69899C19.1024 5.76636 17.9052 6.12824 17.075 7.20277C15.5756 9.14361 14.0761 9.30556 13.0765 8.65861C11.577 7.6882 12.8371 6.11636 11.0772 5.26215C9.93024 4.70542 9.77032 3.19045 10.4087 2" stroke="#141B34" stroke-width="1.5" stroke-linejoin="round"/>
<path d="M2.17188 11.1328C2.93437 11.7949 3.82779 12.255 5.08607 12.255C7.68576 12.255 8.2057 12.7517 8.2057 14.7386C8.2057 16.7255 8.2057 16.7255 8.72564 18.2156C9.06384 19.1849 9.18205 20.1542 8.50793 20.9868" stroke="#141B34" stroke-width="1.5" stroke-linecap="round" stroke-linejoin="round"/>
<path d="M19.8988 19.9288L22 22M21.1083 17.0459C21.1083 19.2805 19.2932 21.0919 17.0541 21.0919C14.8151 21.0919 13 19.2805 13 17.0459C13 14.8114 14.8151 13 17.0541 13C19.2932 13 21.1083 14.8114 21.1083 17.0459Z" stroke="#141B34" stroke-width="1.5" stroke-linecap="round"/>
</svg>
