<svg width="24" height="24" viewBox="0 0 24 24" fill="none" xmlns="http://www.w3.org/2000/svg">
<path d="M12 20.7955C11.1773 20.7955 10.3809 20.6825 9.62565 20.4712C9.88274 19.6083 9.69422 18.7255 9.43468 17.9817C9.16769 17.2165 9.06577 16.9161 9.01335 16.5656C8.95863 16.1996 8.9566 15.7706 8.9566 14.7517C8.9566 13.7614 8.84706 12.7989 8.09684 12.1845C7.73639 11.8894 7.2925 11.7301 6.80925 11.6396C6.32711 11.5492 5.75308 11.5181 5.08697 11.5181C4.41958 11.5181 3.8015 11.3053 3.26187 10.9903C3.65643 7.53795 6.04987 4.69281 9.25614 3.64099C9.26338 3.76072 9.27707 3.87958 9.29742 3.99694C9.43481 4.78918 9.88585 5.5356 10.7127 5.93693C11.0279 6.08995 11.1546 6.24443 11.2244 6.37345C11.3081 6.5283 11.3493 6.71585 11.3956 7.02724C11.4006 7.06067 11.4056 7.09535 11.4107 7.13118C11.4958 7.7271 11.6258 8.63716 12.6319 9.28831C13.3114 9.72806 14.1618 9.88584 15.063 9.62067C15.9471 9.3605 16.8187 8.71334 17.6314 7.66136C18.0137 7.16653 18.4997 6.85578 18.998 6.67113C20.1257 8.14987 20.7955 9.99672 20.7955 12H22.75C22.75 6.06294 17.9371 1.25 12 1.25C6.06294 1.25 1.25 6.06294 1.25 12C1.25 17.9371 6.06294 22.75 12 22.75V20.7955Z" fill="#141B34"/>
<path d="M18.9697 13.4697C19.2626 13.1768 19.7374 13.1768 20.0303 13.4697L22.5303 15.9697C22.8232 16.2626 22.8232 16.7374 22.5303 17.0303L16.8107 22.75H13.25V19.1893L18.9697 13.4697Z" fill="#141B34"/>
</svg>
