<svg width="24" height="24" viewBox="0 0 24 24" fill="none" xmlns="http://www.w3.org/2000/svg">
<path opacity="0.4" d="M11.9472 12C14.694 12 16.9207 9.76142 16.9207 7C16.9207 6.50065 16.8479 6.0184 16.7124 5.56339L19.4075 5.03365C20.1851 4.94629 20.708 5.01488 21.1773 5.40782C21.8943 6.00804 21.8943 6.98272 21.8943 8.93208V15.9378C21.8943 17.7202 21.8943 18.6114 21.4342 19.1678C20.974 19.7242 19.961 19.9126 17.9348 20.2895C17.0958 20.4456 16.3424 20.6447 15.6739 20.867C13.4029 21.6223 12.2675 22 11.9472 22C11.6269 22 10.4914 21.6224 8.22065 20.8671C7.55207 20.6447 6.7985 20.4456 5.95953 20.2895C3.93338 19.9126 2.92031 19.7242 2.46016 19.1678C2 18.6114 2 17.7202 2 15.9378V8.93208C2 6.98272 2 6.00804 2.71697 5.40782C3.18634 5.01488 3.70923 4.94629 4.48679 5.03365L7.18194 5.56339C7.0464 6.0184 6.97358 6.50065 6.97358 7C6.97358 9.76142 9.20033 12 11.9472 12Z" fill="#141B34"/>
<path d="M4.58874 4.99955C3.29223 4.97763 2.67019 5.23447 2.32528 6.14209C2.11586 6.69319 2.10352 7.29629 2.10352 7.88628V17.9996C2.21078 18.6343 2.38991 19.0554 2.84191 19.3996C3.5787 19.9606 4.55764 20.0373 5.46694 20.2028C7.46076 20.5658 9.19503 21.1806 12.0444 21.9996M12.0444 21.9996C14.6832 21.1789 16.5702 20.6096 18.3386 20.2817C19.753 20.0194 21.552 19.8426 21.8704 18.4318C21.954 18.0614 21.9923 17.5968 21.9853 16.9996V9.26574C21.9853 7.7616 22.2115 5.74469 20.8467 5.13038C20.5056 4.97684 20.0739 4.95026 19.5001 4.99955M12.0444 21.9996V14.9996" stroke="#141B34" stroke-width="1.5" stroke-linecap="round" stroke-linejoin="round"/>
<path d="M11.9462 12C14.693 12 16.9198 9.76142 16.9198 7C16.9198 4.23858 14.693 2 11.9462 2M11.9462 12C9.19941 12 6.97266 9.76142 6.97266 7C6.97266 4.23858 9.19941 2 11.9462 2M11.9462 12C13.045 12 13.9357 9.76142 13.9357 7C13.9357 4.23858 13.045 2 11.9462 2M11.9462 12C10.8475 12 9.95681 9.76142 9.95681 7C9.95681 4.23858 10.8475 2 11.9462 2" stroke="#141B34" stroke-width="1.5" stroke-linecap="round" stroke-linejoin="round"/>
</svg>
