<svg width="24" height="25" viewBox="0 0 24 25" fill="none" xmlns="http://www.w3.org/2000/svg">
<path fill-rule="evenodd" clip-rule="evenodd" d="M12.6288 2.09126C12.4905 1.87841 12.2539 1.75 12 1.75C11.7461 1.75 11.5095 1.87841 11.3712 2.09126L5.41616 11.2528C4.9814 11.9217 4.75 12.7023 4.75 13.5C4.75 13.7471 4.87168 13.9783 5.07533 14.1182C5.27898 14.2581 5.53846 14.2887 5.76908 14.2001C7.25575 13.6286 9.47913 13.25 12 13.25C14.5209 13.25 16.7442 13.6286 18.2309 14.2001C18.4615 14.2887 18.721 14.2581 18.9247 14.1182C19.1283 13.9783 19.25 13.7471 19.25 13.5C19.25 12.7023 19.0186 11.9217 18.5838 11.2528L12.6288 2.09126ZM4.25 15.9991C4.25 15.6739 4.26882 15.3737 4.29977 15.0998C4.32197 15.1165 4.34456 15.1327 4.36755 15.1485C4.91061 15.5215 5.60256 15.6032 6.21755 15.3668C6.58712 15.2248 7.01767 15.0936 7.50005 14.9785L7.5 14.9991C7.5 14.9991 7.5 16.9991 9 16.9991C9.75 16.9991 10.125 16.6241 10.5 16.2491C10.875 15.8741 11.25 15.4991 12 15.4991C12.75 15.4991 13.125 15.8741 13.5 16.2491C13.875 16.6241 14.25 16.9991 15 16.9991C16.5 16.9991 16.5 14.9991 16.5 14.9991L16.4999 14.9785C16.9823 15.0936 17.4129 15.2248 17.7824 15.3668C18.3974 15.6032 19.0894 15.5216 19.6325 15.1485C19.6554 15.1327 19.678 15.1165 19.7002 15.0998C19.7312 15.3737 19.75 15.6739 19.75 15.9991C19.75 17.1757 19.3724 18.1276 18.7289 18.9024C18.1012 19.658 17.2468 20.2142 16.3354 20.6699C15.3748 21.1503 14.4037 21.7563 13.666 22.2481C13.2989 22.4929 12.6634 22.9467 12.45 23.0991C12.1833 23.2991 11.816 23.2986 11.5493 23.0986C11.3359 22.9462 10.7011 22.4929 10.334 22.2481C9.59626 21.7563 8.62523 21.1503 7.66459 20.6699C6.75322 20.2142 5.89879 19.658 5.27113 18.9024C4.62762 18.1276 4.25 17.1757 4.25 15.9991Z" fill="#141B34"/>
</svg>
