<svg width="24" height="24" viewBox="0 0 24 24" fill="none" xmlns="http://www.w3.org/2000/svg">
<path d="M20.7955 12C20.7955 16.8576 16.8576 20.7955 12 20.7955C7.1424 20.7955 3.20454 16.8576 3.20454 12C3.20454 9.12308 4.58476 6.56881 6.72329 4.9625C7.15484 4.63835 7.24191 4.02573 6.91776 3.59417C6.59361 3.16262 5.98099 3.07556 5.54943 3.39971C2.94058 5.3593 1.25 8.48236 1.25 12C1.25 17.9371 6.06294 22.75 12 22.75C17.9371 22.75 22.75 17.9371 22.75 12C22.75 6.06294 17.9371 1.25 12 1.25C11.8304 1.25 11.6075 1.25642 11.4398 1.26421C11.167 1.27664 10.8463 1.29127 10.5821 1.35116C10.2453 1.42751 9.80812 1.61931 9.56638 2.1171C9.31515 2.63443 9.4604 3.11204 9.60692 3.41217C9.72828 3.66078 9.92187 3.93145 10.0938 4.17184L11.2048 5.72712C11.5023 6.14365 12.0666 6.25664 12.4987 5.9996C12.5203 5.98676 12.5311 5.98034 12.5557 5.96122C12.5803 5.94211 12.5957 5.92667 12.6266 5.89581L14.4061 4.11627C14.6244 3.89797 14.7335 3.78881 14.8835 3.75961C15.0335 3.73042 15.1654 3.7863 15.4291 3.89808C18.583 5.23461 20.7955 8.35893 20.7955 12Z" fill="#141B34"/>
<path fill-rule="evenodd" clip-rule="evenodd" d="M8.40044 9.27867C9.33292 8.54257 10.5001 9.32268 10.5001 10.3162L10.5001 15.9999C10.5001 16.5521 10.0523 16.9999 9.50005 16.9999C8.94777 16.9999 8.50005 16.5521 8.50005 15.9999L8.50005 11.8661C8.10306 12.0958 7.58628 12.0279 7.2633 11.6761C6.88984 11.2692 6.91692 10.6366 7.3238 10.2631L8.34384 9.32687C8.36211 9.3101 8.38099 9.29403 8.40044 9.27867ZM14.2098 8.99985C14.2232 8.99985 14.2366 8.99985 14.25 8.99985C14.2634 8.99985 14.2768 8.99985 14.2902 8.99985C14.6064 8.9998 14.9142 8.99976 15.1727 9.02605C15.4589 9.05516 15.7933 9.12456 16.1111 9.33691C16.3295 9.48283 16.517 9.67033 16.6629 9.88871C16.8753 10.2065 16.9447 10.541 16.9738 10.8271C17.0001 11.0856 17.0001 11.3934 17 11.7097C17 11.7231 17 11.7364 17 11.7499V14.2499C17 14.2633 17 14.2767 17 14.29C17.0001 14.6063 17.0001 14.9141 16.9738 15.1726C16.9447 15.4588 16.8753 15.7932 16.6629 16.111C16.517 16.3294 16.3295 16.5169 16.1111 16.6628C15.7933 16.8751 15.4589 16.9445 15.1727 16.9737C14.9142 16.9999 14.6064 16.9999 14.2902 16.9999C14.2768 16.9999 14.2634 16.9999 14.25 16.9999C14.2366 16.9999 14.2232 16.9999 14.2098 16.9999C13.8936 16.9999 13.5858 16.9999 13.3273 16.9737C13.0411 16.9445 12.7067 16.8751 12.3889 16.6628C12.1705 16.5169 11.983 16.3294 11.8371 16.111C11.6247 15.7932 11.5553 15.4588 11.5262 15.1726C11.4999 14.9141 11.5 14.6063 11.5 14.29C11.5 14.2766 11.5 14.2633 11.5 14.2499V11.7499C11.5 11.7365 11.5 11.7231 11.5 11.7097C11.5 11.3934 11.4999 11.0856 11.5262 10.8271C11.5553 10.541 11.6247 10.2065 11.8371 9.88871C11.983 9.67033 12.1705 9.48283 12.3889 9.33691C12.7067 9.12456 13.0411 9.05516 13.3273 9.02605C13.5858 8.99976 13.8936 8.9998 14.2098 8.99985ZM13.5173 11.0171C13.5168 11.0211 13.5164 11.0252 13.5159 11.0295C13.5012 11.1743 13.5 11.3779 13.5 11.7499V14.2499C13.5 14.6218 13.5012 14.8255 13.5159 14.9702C13.5164 14.9745 13.5168 14.9786 13.5173 14.9826C13.5212 14.983 13.5254 14.9835 13.5297 14.9839C13.6744 14.9986 13.8781 14.9999 14.25 14.9999C14.6219 14.9999 14.8256 14.9986 14.9703 14.9839C14.9747 14.9835 14.9788 14.983 14.9828 14.9826C14.9832 14.9786 14.9836 14.9745 14.9841 14.9702C14.9988 14.8255 15 14.6218 15 14.2499V11.7499C15 11.3779 14.9988 11.1743 14.9841 11.0295C14.9836 11.0252 14.9832 11.0211 14.9827 11.0171C14.9788 11.0167 14.9747 11.0162 14.9703 11.0158C14.8256 11.0011 14.6219 10.9999 14.25 10.9999C13.8781 10.9999 13.6744 11.0011 13.5297 11.0158C13.5254 11.0162 13.5212 11.0167 13.5173 11.0171Z" fill="#141B34"/>
</svg>
