<svg width="24" height="24" viewBox="0 0 24 24" fill="none" xmlns="http://www.w3.org/2000/svg">
<path fill-rule="evenodd" clip-rule="evenodd" d="M11.8063 3.20663C11.8707 3.20524 11.9353 3.20455 12 3.20455C16.8576 3.20455 20.7955 7.1424 20.7955 12C20.7955 16.8576 16.8576 20.7955 12 20.7955C7.1424 20.7955 3.20455 16.8576 3.20455 12C3.20455 9.12308 4.58477 6.56881 6.72329 4.9625L5.54944 3.39971C2.94058 5.3593 1.25 8.48236 1.25 12C1.25 17.9371 6.06294 22.75 12 22.75C17.9371 22.75 22.75 17.9371 22.75 12C22.75 6.06294 17.9371 1.25 12 1.25C11.265 1.25 10.5462 1.32391 9.85104 1.46502C9.52654 1.53089 9.25747 1.7566 9.13614 2.06469C9.01482 2.37278 9.05776 2.72135 9.25022 2.9908L11.2048 5.72712L12.7952 4.59106L11.8063 3.20663Z" fill="#141B34"/>
<path fill-rule="evenodd" clip-rule="evenodd" d="M14.2499 10V15H15.7499V10H14.2499ZM13.2499 8L16.7499 8C17.0151 8 17.2695 8.10536 17.457 8.29289C17.6446 8.48043 17.7499 8.73478 17.7499 9V16C17.7499 16.5523 17.3022 17 16.7499 17H13.2499C12.6976 17 12.2499 16.5523 12.2499 16V9C12.2499 8.44772 12.6976 8 13.2499 8Z" fill="#141B34"/>
<path fill-rule="evenodd" clip-rule="evenodd" d="M6.25 9.00024C6.25 8.44796 6.69772 8.00024 7.25 8.00024H11.25V17.0002H7.25C6.69772 17.0002 6.25 16.5525 6.25 16.0002V14.696H8.25V15.0002H9.25V13.5002H7.75V11.5002H9.25V10.0002H8.25V10.3045H6.25V9.00024Z" fill="#141B34"/>
</svg>
