<svg width="24" height="24" viewBox="0 0 24 24" fill="none" xmlns="http://www.w3.org/2000/svg">
<path d="M3.20455 12C3.20455 16.8576 7.1424 20.7955 12 20.7955C16.8576 20.7955 20.7955 16.8576 20.7955 12C20.7955 9.12308 19.4152 6.56881 17.2767 4.9625C16.8452 4.63835 16.7581 4.02573 17.0822 3.59417C17.4064 3.16262 18.019 3.07556 18.4506 3.39971C21.0594 5.3593 22.75 8.48236 22.75 12C22.75 17.9371 17.9371 22.75 12 22.75C6.06294 22.75 1.25 17.9371 1.25 12C1.25 6.06294 6.06294 1.25 12 1.25C12.1696 1.25 12.3925 1.25642 12.5602 1.26421C12.833 1.27664 13.1537 1.29127 13.4179 1.35116C13.7547 1.42751 14.1919 1.61931 14.4336 2.1171C14.6848 2.63443 14.5396 3.11204 14.3931 3.41217C14.2717 3.66078 14.0781 3.93145 13.9062 4.17184L12.7952 5.72712C12.4977 6.14365 11.9334 6.25664 11.5013 5.9996C11.4797 5.98676 11.4689 5.98034 11.4443 5.96122C11.4197 5.94211 11.4043 5.92667 11.3734 5.89581L9.59391 4.11627C9.3756 3.89797 9.26645 3.78881 9.11648 3.75961C8.96651 3.73042 8.83463 3.7863 8.57088 3.89808C5.417 5.23461 3.20455 8.35893 3.20455 12Z" fill="#141B34"/>
<path fill-rule="evenodd" clip-rule="evenodd" d="M9.43905 9.70583C9.57927 9.00469 10.1949 8.5 10.9099 8.5H14C14.5523 8.5 15 8.94772 15 9.5C15 10.0523 14.5523 10.5 14 10.5H11.336L11.2212 11.2105C11.4952 11.1695 11.7803 11.1429 12.0714 11.1429C13.6888 11.1429 15 12.454 15 14.0714C15 15.6888 13.6888 17 12.0714 17C12.0474 17 12.0221 17.0001 11.9958 17.0001C11.6253 17.0011 11.0416 17.0026 10.5186 16.8324C10.2147 16.7336 9.89078 16.5668 9.6143 16.2822C9.33372 15.9934 9.14993 15.6323 9.05667 15.2213C8.93445 14.6827 9.27199 14.147 9.81059 14.0248C10.3492 13.9026 10.8849 14.2401 11.0071 14.7787C11.0189 14.8307 11.0316 14.8594 11.0385 14.8725C11.0449 14.8849 11.0487 14.8885 11.0489 14.8887C11.0494 14.8892 11.0532 14.8931 11.0648 14.9C11.0773 14.9073 11.1 14.9184 11.1373 14.9305C11.217 14.9565 11.3338 14.9776 11.5034 14.9891C11.6665 15.0001 11.8367 15 12.0407 15C12.0509 15 12.0611 15 12.0714 15C12.5843 15 13 14.5843 13 14.0714C13 13.5586 12.5843 13.1429 12.0714 13.1429C11.5888 13.1429 11.1454 13.2508 10.5543 13.3948C10.4516 13.4199 10.3443 13.446 10.2316 13.4728C9.90653 13.5502 9.56425 13.4601 9.31941 13.2326C9.07456 13.0052 8.95952 12.6705 9.01281 12.3406L9.43242 9.7425C9.4344 9.73023 9.43661 9.71801 9.43905 9.70583Z" fill="#141B34"/>
</svg>
