<svg width="24" height="24" viewBox="0 0 24 24" fill="none" xmlns="http://www.w3.org/2000/svg">
<path opacity="0.4" d="M8.49425 16.998C5.84985 17.3953 4.00183 18.3703 4.00183 19.426C4.00183 20.8477 7.35404 22.0003 11.4892 22.0003C15.6243 22.0003 18.9766 20.8477 18.9766 19.426C18.9766 18.305 16.8931 17.3514 13.985 16.998" stroke="#141B34" stroke-width="1.5" stroke-linecap="round"/>
<path d="M11.0342 19.0497C11.0124 11.844 10.9961 13.7105 10.996 11.3828" stroke="#141B34" stroke-width="1.5" stroke-linecap="round" stroke-linejoin="round"/>
<path d="M15.1552 3.06291C11.9342 1.29366 11.4436 2.09102 11.1644 2.88821C10.9101 4.44407 10.9607 7.48503 10.9918 11.9875L17.0734 9.01897C18.6238 8.35684 19.4185 7.70554 19.7681 7.12245C20.5372 5.83974 18.6703 4.78911 17.3278 4.12985L15.1552 3.06291Z" stroke="#141B34" stroke-width="1.5" stroke-linecap="round" stroke-linejoin="round"/>
</svg>
