<svg width="24" height="24" viewBox="0 0 24 24" fill="none" xmlns="http://www.w3.org/2000/svg">
<path opacity="0.4" d="M11.5237 22C15.6785 22 19.0466 20.8807 19.0466 19.5C19.0466 18.1193 15.6785 17 11.5237 17C7.36886 17 4.00073 18.1193 4.00073 19.5C4.00073 20.8807 7.36886 22 11.5237 22Z" fill="#141B34"/>
<path d="M11.0024 19.0277C11.0854 11.8535 10.8042 5.13766 11.1738 2.8883C11.4544 2.09147 11.9473 1.29448 15.1835 3.06291L17.3709 4.1315C18.7168 4.78904 20.5901 5.83737 19.8193 7.11896C19.4686 7.7022 18.67 8.35379 17.1109 9.01623L11.0004 11.9835" stroke="#141B34" stroke-width="1.5" stroke-linecap="round" stroke-linejoin="round"/>
<path d="M8.51449 17C5.85753 17.3971 4.00073 18.3716 4.00073 19.4268C4.00073 20.8479 7.36886 22 11.5237 22C15.6784 22 19.0466 20.8479 19.0466 19.4268C19.0466 18.3064 16.9532 17.3532 14.0313 17" stroke="#141B34" stroke-width="1.5" stroke-linecap="round"/>
</svg>
