<svg width="24" height="24" viewBox="0 0 24 24" fill="none" xmlns="http://www.w3.org/2000/svg">
<path fill-rule="evenodd" clip-rule="evenodd" d="M4.25252 4.22275H2.28027V2.25H19.0487V4.22275H17.3809L20.0003 13.827L18.097 14.346L15.3361 4.22275H6.22527V12.1138H4.25252V4.22275Z" fill="#141B34"/>
<path d="M3.5 19.25C3.5 17.8693 4.61929 16.75 6 16.75C7.38071 16.75 8.5 17.8693 8.5 19.25C8.5 20.6307 7.38071 21.75 6 21.75C4.61929 21.75 3.5 20.6307 3.5 19.25Z" fill="#141B34"/>
<path d="M15.5 19.25C15.5 17.8693 16.6193 16.75 18 16.75C19.3807 16.75 20.5 17.8693 20.5 19.25C20.5 20.6307 19.3807 21.75 18 21.75C16.6193 21.75 15.5 20.6307 15.5 19.25Z" fill="#141B34"/>
<path d="M2 11.25C1.80109 11.25 1.61032 11.329 1.46967 11.4697C1.32902 11.6103 1.25 11.8011 1.25 12V18.9999C1.25 19.4141 1.58579 19.7499 2 19.7499H2.28303C2.26124 19.5863 2.25 19.4195 2.25 19.25C2.25 17.1789 3.92893 15.5 6 15.5C8.07107 15.5 9.75 17.1789 9.75 19.25C9.75 19.4195 9.73876 19.5863 9.71697 19.7499H14.283C14.2612 19.5863 14.25 19.4195 14.25 19.25C14.25 17.1789 15.9289 15.5 18 15.5C20.0711 15.5 21.75 17.1789 21.75 19.25C21.75 19.4195 21.7388 19.5863 21.717 19.7499H22C22.4142 19.7499 22.75 19.4141 22.75 18.9999V13.9999C22.75 13.8007 22.6708 13.6098 22.5299 13.4691C22.389 13.3284 22.1979 13.2495 21.9988 13.2499L15.9867 13.2599C15.7882 13.2602 15.5979 13.3393 15.4575 13.4797L13.6897 15.2487H10.4639L8.67074 11.6644C8.54367 11.4104 8.28402 11.25 8 11.25H2Z" fill="#141B34"/>
<path fill-rule="evenodd" clip-rule="evenodd" d="M13.6643 11.9263L13.0557 12.3321L11.9463 10.668L14.9463 8.66797L16.0557 10.3321L15.3323 10.8143L16.8692 13.5039L15.1327 14.4962L13.6643 11.9263Z" fill="#141B34"/>
</svg>
