<svg width="24" height="24" viewBox="0 0 24 24" fill="none" xmlns="http://www.w3.org/2000/svg">
<path fill-rule="evenodd" clip-rule="evenodd" d="M13.6036 1.39694C13.75 1.54338 13.75 1.77908 13.75 2.25049V4.26941L13.75 4.31951V4.31955C13.75 5.03821 13.7499 5.65174 13.8158 6.14186C13.8862 6.66492 14.0437 7.15823 14.4428 7.55737C14.842 7.95652 15.3353 8.11403 15.8583 8.18435C16.3484 8.25024 16.962 8.25021 17.6806 8.25018H17.6806H17.6807L19.75 8.25018C20.2214 8.25018 20.4571 8.25018 20.6036 8.39662C20.75 8.54307 20.75 8.77877 20.75 9.25018V16.0554C20.75 17.423 20.75 18.5253 20.6335 19.3922C20.5125 20.2923 20.2536 21.0502 19.6517 21.6521C19.0497 22.2541 18.2919 22.513 17.3918 22.634C16.5248 22.7505 15.4225 22.7505 14.0549 22.7505L9.94513 22.7505C8.57754 22.7505 7.47522 22.7505 6.60825 22.634C5.70814 22.513 4.95027 22.2541 4.34835 21.6521C3.74644 21.0502 3.48754 20.2923 3.36653 19.3922C3.24997 18.5253 3.24998 17.423 3.25 16.0554V16.0554V16.0554V16.0554L3.25 7.94561V7.9456V7.94558V7.94557C3.24998 6.578 3.24997 5.4757 3.36653 4.60874C3.48754 3.70863 3.74644 2.95076 4.34835 2.34884C4.95027 1.74692 5.70814 1.48803 6.60825 1.36701C7.47521 1.25045 8.57752 1.25047 9.9451 1.25049H9.94511H9.94513L12.75 1.25049C13.2214 1.25049 13.4571 1.25049 13.6036 1.39694ZM20.6168 6.74501C20.6178 6.74747 20.616 6.75018 20.6133 6.75018L17.7308 6.75018C16.9481 6.75018 16.4365 6.74859 16.0582 6.69772C15.7015 6.64976 15.5775 6.5707 15.5035 6.49671C15.4295 6.42272 15.3504 6.29871 15.3025 5.94199C15.2516 5.56369 15.25 5.05211 15.25 4.26941V1.38737C15.25 1.38454 15.2529 1.38262 15.2555 1.3837C15.5822 1.51902 15.83 1.76828 16.0596 1.99923L16.1161 2.05595L19.9445 5.88437L20.0012 5.94086C20.2322 6.17048 20.4815 6.41831 20.6168 6.74501ZM8 11.2502C7.58579 11.2502 7.25 11.586 7.25 12.0002C7.25 12.4144 7.58579 12.7502 8 12.7502L16 12.7502C16.4142 12.7502 16.75 12.4144 16.75 12.0002C16.75 11.586 16.4142 11.2502 16 11.2502L8 11.2502ZM8 14.2502C7.58579 14.2502 7.25 14.586 7.25 15.0002C7.25 15.4144 7.58579 15.7502 8 15.7502L16 15.7502C16.4142 15.7502 16.75 15.4144 16.75 15.0002C16.75 14.586 16.4142 14.2502 16 14.2502L8 14.2502ZM8 17.2502C7.58579 17.2502 7.25 17.586 7.25 18.0002C7.25 18.4144 7.58579 18.7502 8 18.7502L14.5 18.7502C14.9142 18.7502 15.25 18.4144 15.25 18.0002C15.25 17.586 14.9142 17.2502 14.5 17.2502L8 17.2502Z" fill="#141B34"/>
</svg>
