<svg width="24" height="24" viewBox="0 0 24 24" fill="none" xmlns="http://www.w3.org/2000/svg">
<path d="M12.999 21.2149V22.0011C12.999 22.5533 12.5513 23.0011 11.999 23.0011C11.4467 23.0011 10.999 22.5533 10.999 22.0011V21.2149C10.999 21.062 10.8836 20.934 10.7321 20.9127C6.77533 20.3553 3.6449 17.2248 3.08748 13.268C3.06615 13.1166 2.93822 13.0011 2.7853 13.0011L1.99896 13.0011C1.44668 13.001 0.998988 12.5533 0.999023 12.001C0.999058 11.4487 1.4468 11.001 1.99909 11.0011L2.78528 11.0011C2.93821 11.0011 3.06614 10.8859 3.08747 10.7345C3.35154 8.85983 4.19314 7.17068 5.42654 5.85276C5.53976 5.73179 5.7301 5.73213 5.84726 5.84928L18.1509 18.1529C18.2681 18.2701 18.2684 18.4604 18.1474 18.5737C16.8295 19.8071 15.1403 20.6487 13.2657 20.9127C13.1142 20.9341 12.999 21.062 12.999 21.2149Z" fill="#141B34"/>
<path opacity="0.4" d="M11.9993 1C12.5515 1 12.9993 1.44772 12.9993 2V2.78639C12.9993 2.93932 13.1147 3.06726 13.2662 3.0886C17.2229 3.64603 20.3533 6.77642 20.9108 10.7332C20.9321 10.8846 21.0601 11.0001 21.213 11L21.9992 11C22.5515 11 22.9992 11.4477 22.9993 11.9999C22.9993 12.5522 22.5516 13 21.9993 13L21.213 13C21.0601 13.0001 20.9322 13.1152 20.9108 13.2666C20.7747 14.2336 20.4848 15.1512 20.0668 15.9939C19.9781 16.1727 19.7411 16.2063 19.5999 16.0651L18.5378 15.003C18.4498 14.915 18.4259 14.7821 18.4733 14.6671C18.8123 13.8451 18.9993 12.9445 18.9993 12.0001C18.9993 8.13413 15.8653 5.00013 11.9993 5.00013C11.0549 5.00013 10.1543 5.18712 9.33229 5.5261C9.21727 5.57354 9.08436 5.54957 8.99639 5.46159L7.93426 4.39947C7.79313 4.25833 7.82664 4.02126 8.00545 3.93258C8.84819 3.51458 9.76576 3.22474 10.7327 3.08855C10.8841 3.06723 10.9993 2.93932 10.9993 2.78639V2C10.9993 1.44772 11.447 1 11.9993 1Z" fill="#141B34"/>
<path fill-rule="evenodd" clip-rule="evenodd" d="M2.29192 2.29289C2.68244 1.90237 3.31561 1.90237 3.70613 2.29289L21.7061 20.2929C22.0967 20.6834 22.0967 21.3166 21.7061 21.7071C21.3156 22.0976 20.6824 22.0976 20.2919 21.7071L2.29192 3.70711C1.90139 3.31658 1.90139 2.68342 2.29192 2.29289Z" fill="#141B34"/>
</svg>
