<svg width="24" height="24" viewBox="0 0 24 24" fill="none" xmlns="http://www.w3.org/2000/svg">
<path fill-rule="evenodd" clip-rule="evenodd" d="M2.29192 2.29289C2.68244 1.90237 3.31561 1.90237 3.70613 2.29289L21.7061 20.2929C22.0967 20.6834 22.0967 21.3166 21.7061 21.7071C21.3156 22.0976 20.6824 22.0976 20.2919 21.7071L2.29192 3.70711C1.90139 3.31658 1.90139 2.68342 2.29192 2.29289Z" fill="#141B34"/>
<path d="M11.999 1C12.5513 1 12.999 1.44772 12.999 2V2.78639C12.999 2.93932 13.1145 3.06726 13.2659 3.0886C17.2227 3.64603 20.3531 6.77642 20.9105 10.7332C20.9319 10.8846 21.0598 11.0001 21.2128 11L21.999 11C22.5512 11 22.999 11.4477 22.999 11.9999C22.9991 12.5522 22.5514 13 21.9991 13L21.2127 13C21.0598 13.0001 20.9319 13.1152 20.9106 13.2666C20.7744 14.2336 20.4846 15.1512 20.0666 15.9939C19.9779 16.1727 19.7408 16.2063 19.5997 16.0651L18.5376 15.003C18.4496 14.915 18.4256 14.7821 18.4731 14.6671C18.812 13.8451 18.999 12.9445 18.999 12.0001C18.999 8.13413 15.865 5.00013 11.999 5.00013C11.0547 5.00013 10.154 5.18712 9.33206 5.5261C9.21704 5.57354 9.08413 5.54957 8.99615 5.46159L7.93402 4.39947C7.79289 4.25833 7.8264 4.02126 8.00521 3.93258C8.84795 3.51458 9.76552 3.22474 10.7324 3.08855C10.8839 3.06723 10.999 2.93932 10.999 2.78639V2C10.999 1.44772 11.4467 1 11.999 1Z" fill="#141B34"/>
<path d="M12.999 21.2139V22C12.999 22.5523 12.5513 23 11.999 23C11.4467 23 10.999 22.5523 10.999 22V21.2139C10.999 21.0609 10.8836 20.933 10.7321 20.9117C6.77533 20.3542 3.6449 17.2238 3.08748 13.2669C3.06615 13.1155 2.93822 13.0001 2.7853 13L1.99896 13C1.44668 13 0.998988 12.5522 0.999023 11.9999C0.999058 11.4477 1.4468 11 1.99909 11L2.78528 11C2.93821 11.0001 3.06614 10.8848 3.08747 10.7334C3.35154 8.85878 4.19314 7.16963 5.42654 5.85171C5.53976 5.73073 5.7301 5.73108 5.84726 5.84823L18.1509 18.1519C18.2681 18.2691 18.2684 18.4594 18.1474 18.5726C16.8295 19.806 15.1403 20.6476 13.2657 20.9117C13.1142 20.933 12.999 21.0609 12.999 21.2139Z" fill="#141B34"/>
</svg>
