<svg width="24" height="24" viewBox="0 0 24 24" fill="none" xmlns="http://www.w3.org/2000/svg">
<path fill-rule="evenodd" clip-rule="evenodd" d="M17.0644 2.66251C17.2108 2.54286 17.3805 2.4433 17.5758 2.37005C18.461 2.03815 19.3968 2.43999 20.1055 2.9877C20.8499 3.56307 21.5426 4.43934 22.0435 5.47322C22.5432 6.50473 22.79 7.56595 22.7447 8.46735C22.7021 9.31411 22.3725 10.2336 21.4954 10.6032L17.0055 13.2971C16.2127 13.1251 15.5681 12.9741 15.2402 12.894C14.0348 12.3628 11.6788 10.5048 11.7083 7.20922C11.7123 6.86009 11.7521 6.33338 11.8518 5.79006L17.0644 2.66251ZM18.1481 3.76161C18.3183 3.72596 18.6713 3.77509 19.1881 4.17458C19.7211 4.58651 20.2771 5.26764 20.6935 6.12725C21.1111 6.98923 21.2764 7.79907 21.2466 8.39209C21.2152 9.0172 20.999 9.18902 20.8976 9.22704C20.7509 9.28205 20.3806 9.26669 19.8118 8.82709C19.2789 8.41517 18.7229 7.73403 18.3065 6.87442C17.8889 6.01245 17.7236 5.20261 17.7534 4.60959C17.7748 4.18452 17.8816 3.96905 17.9796 3.86272L18.1481 3.76161Z" fill="#141B34"/>
<path d="M10.2247 6.76634L8.26512 7.94207C8.23796 8.4409 8.23795 8.89895 8.24949 9.21616C8.62553 12.7071 10.8518 14.5579 11.8187 15.0221C12.1353 15.1667 12.6202 15.3757 13.1745 15.5957L15.1445 14.4137C15.0136 14.3827 14.9046 14.3563 14.8212 14.3357C14.7833 14.3263 14.7461 14.314 14.7101 14.2989C13.1751 13.653 10.1706 11.3503 10.2084 7.19472L10.2084 7.19304C10.2099 7.06664 10.215 6.92292 10.2247 6.76634Z" fill="#141B34"/>
<path d="M11.575 16.5554C11.428 16.4914 11.2981 16.4334 11.1892 16.3837L11.1779 16.3785C9.81086 15.7261 7.18616 13.4533 6.75509 9.34835C6.75338 9.33207 6.7522 9.31573 6.75156 9.29936C6.7465 9.16999 6.74315 9.02043 6.74236 8.85572L2.50457 11.3984C1.62752 11.768 1.29787 12.6874 1.25529 13.5342C1.20997 14.4356 1.45683 15.4968 1.95653 16.5283C2.45739 17.5622 3.15012 18.4385 3.89455 19.0139C4.60318 19.5616 5.53898 19.9634 6.4242 19.6315C6.46676 19.6155 6.50779 19.5958 6.54677 19.5724L11.575 16.5554Z" fill="#141B34"/>
<path d="M11.402 18.117C11.3472 18.5309 11.237 18.8949 11.1101 19.2025C10.9611 19.5637 10.789 19.8464 10.6566 20.036C10.5907 20.1304 10.4895 20.2538 10.4531 20.2978C10.2068 20.5603 10.1816 20.961 10.3935 21.2523C10.6063 21.5448 10.9975 21.6437 11.3237 21.4876L13.3121 20.5363L13.9344 21.4295C14.0733 21.6289 14.3001 21.7486 14.5431 21.7508C14.786 21.7529 15.015 21.6373 15.1574 21.4404C16.8618 19.0847 16.9373 16.653 16.5725 15.0146L11.402 18.117Z" fill="#141B34"/>
</svg>
