<svg width="24" height="24" viewBox="0 0 24 24" fill="none" xmlns="http://www.w3.org/2000/svg">
<path d="M3.51284 20.008L2.03906 9.00578L12.043 2.00232C12.0463 2.00019 12.0506 2.0002 12.0539 2.00237L22.0361 9.00578L19.6109 21.9945C19.61 21.9992 19.6059 22.0027 19.601 22.0027H9.29829C7.51608 22.0027 4.9978 20.4452 8.24943 17.0479L8.59975 16.7721M8.59975 16.7721L12.5442 13.6669M8.59975 16.7721C9.88464 19.1363 13.0595 18.0867 14.4863 17.2664C19.5989 13.4113 16.7373 7.62605 13.7457 6.96007C13.7373 6.9582 13.7305 6.96637 13.7346 6.97387C14.2049 7.83456 15.5572 9.87118 10.4376 11.2568C9.09258 11.8774 6.84196 13.8493 8.59975 16.7721Z" stroke="#141B34" stroke-width="1.5"/>
</svg>
