<svg width="24" height="24" viewBox="0 0 24 24" fill="none" xmlns="http://www.w3.org/2000/svg">
<path d="M6.53831 13.2501C7.20788 13.2501 7.76659 13.2501 8.21892 13.2961C8.69239 13.3443 9.13176 13.449 9.52776 13.7136C9.82803 13.9142 10.0858 14.172 10.2865 14.4723C10.5511 14.8683 10.6558 15.3077 10.704 15.7811C10.75 16.2335 10.75 16.8689 10.7499 17.5385V17.5385C10.75 18.2081 10.75 18.7668 10.704 19.2191C10.6558 19.6926 10.5511 20.1319 10.2865 20.5279C10.0858 20.8282 9.82803 21.086 9.52776 21.2867C9.13176 21.5513 8.69239 21.656 8.21892 21.7041C7.7666 21.7502 7.20788 21.7501 6.53831 21.7501H6.53828C5.8687 21.7501 5.23329 21.7502 4.78096 21.7041C4.30749 21.656 3.86812 21.5513 3.47212 21.2867C3.17185 21.086 2.91403 20.8282 2.7134 20.5279C2.4488 20.1319 2.34409 19.6926 2.29592 19.2191C2.24991 18.7668 2.24992 18.2081 2.24994 17.5385V17.5385C2.24992 16.8689 2.24991 16.2335 2.29592 15.7811C2.34409 15.3077 2.4488 14.8683 2.7134 14.4723C2.91403 14.172 3.17185 13.9142 3.47212 13.7136C3.86812 13.449 4.30749 13.3443 4.78096 13.2961C5.23329 13.2501 5.86871 13.2501 6.53829 13.2501H6.53831Z" fill="#141B34"/>
<path d="M17.5383 13.2501C18.2079 13.2501 18.7666 13.2501 19.2189 13.2961C19.6924 13.3443 20.1318 13.449 20.5278 13.7136C20.828 13.9142 21.0858 14.172 21.2865 14.4723C21.5511 14.8683 21.6558 15.3077 21.704 15.7811C21.75 16.2335 21.75 16.8689 21.7499 17.5385V17.5385C21.75 18.2081 21.75 18.7668 21.704 19.2191C21.6558 19.6926 21.5511 20.1319 21.2865 20.5279C21.0858 20.8282 20.828 21.086 20.5278 21.2867C20.1318 21.5513 19.6924 21.656 19.2189 21.7041C18.7666 21.7502 18.2079 21.7501 17.5383 21.7501H17.5383C16.8687 21.7501 16.2333 21.7502 15.781 21.7041C15.3075 21.656 14.8681 21.5513 14.4721 21.2867C14.1718 21.086 13.914 20.8282 13.7134 20.5279C13.4488 20.1319 13.3441 19.6926 13.2959 19.2191C13.2499 18.7668 13.2499 18.2081 13.2499 17.5385V17.5385C13.2499 16.8689 13.2499 16.2335 13.2959 15.7811C13.3441 15.3077 13.4488 14.8683 13.7134 14.4723C13.914 14.172 14.1718 13.9142 14.4721 13.7136C14.8681 13.449 15.3075 13.3443 15.781 13.2961C16.2333 13.2501 16.8687 13.2501 17.5383 13.2501H17.5383Z" fill="#141B34"/>
<path d="M6.53831 2.25C7.20788 2.24998 7.76659 2.24997 8.21892 2.29598C8.69239 2.34415 9.13176 2.44886 9.52776 2.71346C9.82803 2.9141 10.0858 3.17191 10.2865 3.47218C10.5511 3.86818 10.6558 4.30755 10.704 4.78102C10.75 5.23335 10.75 5.86876 10.7499 6.53834V6.53837C10.75 7.20794 10.75 7.76666 10.704 8.21898C10.6558 8.69245 10.5511 9.13182 10.2865 9.52782C10.0858 9.82809 9.82803 10.0859 9.52776 10.2865C9.13176 10.5511 8.69239 10.6559 8.21892 10.704C7.7666 10.75 7.20788 10.75 6.53831 10.75H6.53828C5.8687 10.75 5.23329 10.75 4.78096 10.704C4.30749 10.6559 3.86812 10.5511 3.47212 10.2865C3.17185 10.0859 2.91403 9.82809 2.7134 9.52782C2.4488 9.13182 2.34409 8.69245 2.29592 8.21898C2.24991 7.76666 2.24992 7.20794 2.24994 6.53837V6.53835C2.24992 5.86877 2.24991 5.23335 2.29592 4.78102C2.34409 4.30755 2.4488 3.86818 2.7134 3.47218C2.91403 3.17191 3.17185 2.9141 3.47212 2.71346C3.86812 2.44886 4.30749 2.34415 4.78096 2.29598C5.23329 2.24997 5.86871 2.24998 6.53829 2.25H6.53831Z" fill="#141B34"/>
<path d="M17.5383 2.25C18.2079 2.24998 18.7666 2.24997 19.2189 2.29598C19.6924 2.34415 20.1318 2.44886 20.5278 2.71346C20.828 2.9141 21.0858 3.17191 21.2865 3.47218C21.5511 3.86818 21.6558 4.30755 21.704 4.78102C21.75 5.23335 21.75 5.86876 21.7499 6.53834V6.53837C21.75 7.20794 21.75 7.76666 21.704 8.21898C21.6558 8.69245 21.5511 9.13182 21.2865 9.52782C21.0858 9.82809 20.828 10.0859 20.5278 10.2865C20.1318 10.5511 19.6924 10.6559 19.2189 10.704C18.7666 10.75 18.2079 10.75 17.5383 10.75H17.5383C16.8687 10.75 16.2333 10.75 15.781 10.704C15.3075 10.6559 14.8681 10.5511 14.4721 10.2865C14.1718 10.0859 13.914 9.82809 13.7134 9.52782C13.4488 9.13182 13.3441 8.69245 13.2959 8.21898C13.2499 7.76666 13.2499 7.20794 13.2499 6.53837V6.53835C13.2499 5.86877 13.2499 5.23335 13.2959 4.78102C13.3441 4.30755 13.4488 3.86818 13.7134 3.47218C13.914 3.17191 14.1718 2.9141 14.4721 2.71346C14.8681 2.44886 15.3075 2.34415 15.781 2.29598C16.2333 2.24997 16.8687 2.24998 17.5383 2.25H17.5383Z" fill="#141B34"/>
</svg>
