<svg width="24" height="24" viewBox="0 0 24 24" fill="none" xmlns="http://www.w3.org/2000/svg">
<path d="M8.9834 14.9807H9.85818C10.8066 14.9807 11.2809 14.9807 11.6965 14.891C12.8886 14.634 13.8978 13.8454 14.4362 12.7503C14.6239 12.3685 14.7389 11.9082 14.969 10.9873" stroke="#141B34" stroke-width="1.5" stroke-linejoin="round"/>
<path d="M1.99988 7.99212H5.99025L7.98544 4.99707" stroke="#141B34" stroke-width="1.5"/>
<path d="M21.9519 7.99219H18.9591" stroke="#141B34" stroke-width="1.5" stroke-linejoin="round"/>
<path d="M10.4911 10.9805H21.8827C21.9378 10.9805 21.9824 10.9359 21.9824 10.8807V3.59609C21.9824 3.51772 21.8963 3.46991 21.8299 3.51138L19.4475 4.99824H1.9873V10.9824C3.41403 10.9824 4.18934 12.2599 3.98328 13.1752L2.01103 20.3698C1.99361 20.4334 2.04139 20.4961 2.10723 20.4961H9.89096C9.97447 20.4961 10.021 20.3995 9.96904 20.3341L8.50812 18.4957L10.4911 10.9805ZM10.4911 10.9805H8.00291" stroke="#141B34" stroke-width="1.5"/>
</svg>
