<svg width="24" height="24" viewBox="0 0 24 24" fill="none" xmlns="http://www.w3.org/2000/svg">
<path fill-rule="evenodd" clip-rule="evenodd" d="M16.5 12.0001C14.0147 12.0001 12 14.0148 12 16.5001C12 18.9854 14.0147 21.0001 16.5 21.0001C18.9853 21.0001 21 18.9854 21 16.5001C21 14.0148 18.9853 12.0001 16.5 12.0001ZM10 16.5001C10 12.9103 12.9101 10.0001 16.5 10.0001C20.0899 10.0001 23 12.9103 23 16.5001C23 20.09 20.0899 23.0001 16.5 23.0001C12.9101 23.0001 10 20.09 10 16.5001Z" fill="#141B34"/>
<path fill-rule="evenodd" clip-rule="evenodd" d="M16.5 1.00012C17.0523 1.00012 17.5 1.44784 17.5 2.00012V11.0001C17.5 11.5524 17.0523 12.0001 16.5 12.0001C15.9477 12.0001 15.5 11.5524 15.5 11.0001L15.5 2.00012C15.5 1.44784 15.9477 1.00012 16.5 1.00012Z" fill="#141B34"/>
<path fill-rule="evenodd" clip-rule="evenodd" d="M7.51337 8.00012C5.01851 8.00012 3 10.0173 3 12.5007C3 15.1408 5.40257 17.269 8.02836 16.9724C8.57715 16.9104 9.0723 17.305 9.13431 17.8538C9.19631 18.4026 8.80169 18.8977 8.2529 18.9597C4.45374 19.389 1 16.347 1 12.5007C1 8.90834 3.91833 6.00012 7.51337 6.00012C9.69826 6.00012 11.6323 7.07486 12.8126 8.72028C13.1345 9.16905 13.0316 9.79381 12.5829 10.1157C12.1341 10.4376 11.5093 10.3348 11.1874 9.88598C10.3674 8.74275 9.02772 8.00012 7.51337 8.00012Z" fill="#141B34"/>
<path fill-rule="evenodd" clip-rule="evenodd" d="M7.5 1.00012C8.05228 1.00012 8.5 1.44784 8.5 2.00012V7.00012C8.5 7.55241 8.05228 8.00012 7.5 8.00012C6.94772 8.00012 6.5 7.55241 6.5 7.00012L6.5 2.00012C6.5 1.44784 6.94772 1.00012 7.5 1.00012Z" fill="#141B34"/>
</svg>
