<svg width="24" height="24" viewBox="0 0 24 24" fill="none" xmlns="http://www.w3.org/2000/svg">
<path d="M22 8.04676L19.9954 8.04674L14.1228 3.6439C14.0889 3.6199 14.0556 3.59486 14.0225 3.56932C13.6095 3.25 13.112 2.99353 12.5934 3.05307C11.7935 3.1449 11.1346 3.73771 11.0227 4.50569C10.957 4.95605 11.0883 5.56758 11.4674 5.98015L13.5922 8.07773L11.8688 8.04674H3.56571C2.70153 8.04674 2.00098 8.72118 2.00098 9.55314C2.00098 10.3851 2.70153 11.0595 3.56572 11.0595L11.9855 11.0595M8.48855 11.639L8.5354 12.7492C8.66033 13.5765 9.23423 13.9864 9.94867 14.0254L12.5097 14.045M9.50361 14.3962V15.4971C9.47238 16.3481 10.1985 17.0663 11.0418 17.039H13.0173M11.0189 17.6451L11.0418 18.6404C11.0602 19.4412 11.7271 20.0184 12.5591 20.0184L14.9693 20.0408C15.6509 20.0089 16.7765 20.0314 17.5807 19.7899C17.75 19.739 17.9057 19.6531 18.0543 19.5574L18.3645 19.3576L18.9358 18.9205L20.0016 18.0451H21.9989" stroke="#141B34" stroke-width="1.5"/>
</svg>
