<svg width="24" height="24" viewBox="0 0 24 24" fill="none" xmlns="http://www.w3.org/2000/svg">
<path d="M8.01404 1.71191L8.01403 3.71648L3.61118 9.58914C3.58719 9.62303 3.56215 9.65636 3.5366 9.6894C3.21728 10.1024 2.96081 10.5999 3.02036 11.1185C3.11219 11.9184 3.70499 12.5773 4.47297 12.6893C4.92333 12.7549 5.53487 12.6236 5.94743 12.2446L8.04502 10.1198L8.01403 11.8431V20.1462C8.01403 21.0104 8.68846 21.7109 9.52042 21.7109C10.3524 21.7109 11.0268 21.0104 11.0268 20.1462V11.7264M11.6062 15.2234L12.7165 15.1765C13.5438 15.0516 13.9537 14.4777 13.9927 13.7632L14.0122 11.2022M14.3635 14.2083H15.4644C16.3153 14.2395 17.0336 13.5134 17.0063 12.6701V10.6946M17.6124 12.693L18.6076 12.6701C19.4085 12.6517 19.9857 11.9848 19.9857 11.1528L20.0081 8.74262C19.9762 8.06098 19.9987 6.93546 19.7572 6.13117C19.7063 5.96186 19.6204 5.80619 19.5246 5.65758L19.3249 5.34738L18.8878 4.77609L18.0124 3.71028V1.71304" stroke="#141B34" stroke-width="1.5"/>
</svg>
