<svg width="24" height="24" viewBox="0 0 24 24" fill="none" xmlns="http://www.w3.org/2000/svg">
<path d="M15.5 15L14 10.5C12.3432 10.4999 12 11.843 12 13.4999V15" stroke="#141B34" stroke-width="1.5"/>
<path d="M8.5 15L10 10.5C11.6568 10.4999 12 11.843 12 13.4999V15" stroke="#141B34" stroke-width="1.5"/>
<path d="M22.001 22L18.5154 20.008L15.0076 20C13.0032 20 12.001 18.3357 12.001 16.7382V3.19665C12.001 2.53578 12.5379 2.00003 13.2002 2C13.6872 1.99997 14.1259 2.29381 14.3103 2.74356L19.0165 14L22.001 15" stroke="#141B34" stroke-width="1.5"/>
<path d="M2.00195 22L5.48757 20.008L8.99531 20C10.9997 20 12.002 18.3357 12.002 16.7382V3.19665C12.002 2.53578 11.465 2.00003 10.8027 2C10.3157 1.99997 9.87705 2.29381 9.69265 2.74356L4.98646 14L2.00195 15" stroke="#141B34" stroke-width="1.5"/>
</svg>
