<svg width="24" height="24" viewBox="0 0 24 24" fill="none" xmlns="http://www.w3.org/2000/svg">
<path d="M19.4671 18.9782C18.9899 19.2071 18.4127 19.4838 18.0131 19.6751C17.2359 20.0473 16.0699 20.4978 14.8931 20.674C13.7529 20.8447 12.3751 20.7893 11.4332 19.8533C9.38616 17.8193 8.81064 15.1141 8.74751 13.2502H3.75C2.36929 13.2502 1.25 12.131 1.25 10.7502C1.25 9.36953 2.36929 8.25024 3.75 8.25024L12.1242 8.25024L11.1308 7.30464L11.1094 7.28045C10.1793 6.22852 10.3388 4.63549 11.4457 3.77706C12.3548 3.07202 13.641 3.07504 14.5466 3.78375L20.2492 8.10205H22.75V18.6421H20.1679L19.4671 18.9782Z" fill="#141B34"/>
</svg>
