<svg width="24" height="24" viewBox="0 0 24 24" fill="none" xmlns="http://www.w3.org/2000/svg">
<path fill-rule="evenodd" clip-rule="evenodd" d="M4.25 15.25V18.25H6.25V15.25H7.75V22.75H6.25V19.75H4.25V22.75H2.75V15.25H4.25ZM9.25 15.25H11C13.016 15.25 14.5743 16.9722 14.5743 19C14.5743 21.0278 13.016 22.75 11 22.75H9.25V15.25ZM10.75 16.75V21.25H11C12.1036 21.25 13.0743 20.2859 13.0743 19C13.0743 17.7141 12.1036 16.75 11 16.75H10.75ZM15.75 15.25H19.0168C20.3795 15.25 21.25 16.5341 21.25 17.8C21.25 18.712 20.7982 19.6334 20.0361 20.0773L21.0258 22.161L19.6463 22.75L18.5216 20.35H17.25V22.75H15.75V15.25ZM17.25 18.85H19.0168C19.2924 18.85 19.75 18.5223 19.75 17.8C19.75 17.0777 19.2924 16.75 19.0168 16.75H17.25V18.85Z" fill="#141B34"/>
<path d="M20.2763 1.25C20.8141 1.25 21.25 1.68754 21.25 2.22727V13.0682H19.3026V3.20455L11.5132 3.20455L11.5132 10.0455H4.69737L4.69737 13.0682H2.75V8.66338L10.1362 1.25H20.2763Z" fill="#141B34"/>
</svg>
