<svg width="24" height="24" viewBox="0 0 24 24" fill="none" xmlns="http://www.w3.org/2000/svg">
<path d="M2 2L22 22" stroke="#141B34" stroke-width="1.5" stroke-linejoin="round"/>
<path d="M21 14C21 11.7909 19.2091 10 17 10H15V11.818M21 14C21 15.0583 20.589 16.0206 19.918 16.736M21 14V11C21 6.02944 16.9706 2 12 2C10.0719 2 8.28534 2.60633 6.8207 3.63872M3 14C3 16.2091 4.79086 18 7 18H9V10H7C4.79086 10 3 11.7909 3 14ZM3 14V11C3 8.76925 3.81158 6.72806 5.15559 5.15559M18.5 22H12" stroke="#141B34" stroke-width="1.5" stroke-linejoin="round"/>
</svg>
