<svg width="24" height="24" viewBox="0 0 24 24" fill="none" xmlns="http://www.w3.org/2000/svg">
<path d="M2 2.00244L22 21.9726" stroke="#141B34" stroke-width="1.5" stroke-linecap="round" stroke-linejoin="round"/>
<path d="M15 14.9829V15.9814C15 17.0844 15.8954 17.9784 17 17.9784C17.309 17.9784 17.6098 17.9435 17.8987 17.8773" stroke="#141B34" stroke-width="1.5" stroke-linecap="round" stroke-linejoin="round"/>
<path d="M5.90819 10.1406C4.22974 10.615 3 12.1561 3 13.9841C3 16.1899 4.79086 17.9781 7 17.9781C8.10457 17.9781 9 17.084 9 15.9811V13.2278" stroke="#141B34" stroke-width="1.5" stroke-linecap="round" stroke-linejoin="round"/>
<path opacity="0.4" d="M21 13.9845C21 11.7787 19.2091 9.99051 17 9.99051C16.2532 9.99051 15.5007 10.4898 15.5007 10.989M20.9985 16.4808C21 16.2028 21 16.1559 21 15.828V10.989C21 6.02587 16.9806 2.00244 12.0224 2.00244C10.3733 2.00244 8.82805 2.44754 7.5 3.22426" stroke="#141B34" stroke-width="1.5" stroke-linecap="round" stroke-linejoin="round"/>
<path d="M3.04157 14.4754C3.04156 12.7262 2.39617 8.03081 5.00087 4.99268M20.0039 20.472C19.6545 21.0921 19.3146 21.3327 18.6304 21.616C17.9242 21.9084 17.3573 21.9411 16.4949 21.9889C14.8942 21.9889 13.1546 22.008 11.9761 21.9889" stroke="#141B34" stroke-width="1.5" stroke-linecap="round" stroke-linejoin="round"/>
</svg>
