<svg width="24" height="24" viewBox="0 0 24 24" fill="none" xmlns="http://www.w3.org/2000/svg">
<path fill-rule="evenodd" clip-rule="evenodd" d="M3.5 4C4.05228 4 4.5 4.44772 4.5 5V19C4.5 19.5523 4.05228 20 3.5 20C2.94772 20 2.5 19.5523 2.5 19V5C2.5 4.44772 2.94772 4 3.5 4Z" fill="#141B34"/>
<path fill-rule="evenodd" clip-rule="evenodd" d="M13.5 4C14.0523 4 14.5 4.44772 14.5 5V19C14.5 19.5523 14.0523 20 13.5 20C12.9477 20 12.5 19.5523 12.5 19V5C12.5 4.44772 12.9477 4 13.5 4Z" fill="#141B34"/>
<path opacity="0.4" fill-rule="evenodd" clip-rule="evenodd" d="M19.472 10.1183C19.7971 10.2923 20.0001 10.6312 20.0001 11V18H20.5001C21.0524 18 21.5001 18.4477 21.5001 19C21.5001 19.5523 21.0524 20 20.5001 20H17.5001C16.9478 20 16.5001 19.5523 16.5001 19C16.5001 18.4477 16.9478 18 17.5001 18H18.0001V12.8661C17.5471 13.1282 16.9624 12.9962 16.6681 12.5547C16.3617 12.0952 16.4859 11.4743 16.9454 11.168L18.4454 10.168C18.7523 9.96338 19.1468 9.94431 19.472 10.1183Z" fill="#141B34"/>
<path fill-rule="evenodd" clip-rule="evenodd" d="M2.5 12C2.5 11.4477 2.94772 11 3.5 11L13.5 11C14.0523 11 14.5 11.4477 14.5 12C14.5 12.5523 14.0523 13 13.5 13L3.5 13C2.94772 13 2.5 12.5523 2.5 12Z" fill="#141B34"/>
</svg>
