<svg width="24" height="24" viewBox="0 0 24 24" fill="none" xmlns="http://www.w3.org/2000/svg">
<path fill-rule="evenodd" clip-rule="evenodd" d="M17.7495 11.7505C18.3018 11.7505 18.7495 12.1982 18.7495 12.7505V15.7505H21.7495C22.3018 15.7505 22.7495 16.1982 22.7495 16.7505C22.7495 17.3028 22.3018 17.7505 21.7495 17.7505H18.7495V20.7505C18.7495 21.3028 18.3018 21.7505 17.7495 21.7505C17.1972 21.7505 16.7495 21.3028 16.7495 20.7505V17.7505H13.7495C13.1972 17.7505 12.7495 17.3028 12.7495 16.7505C12.7495 16.1982 13.1972 15.7505 13.7495 15.7505H16.7495V12.7505C16.7495 12.1982 17.1972 11.7505 17.7495 11.7505Z" fill="#141B34"/>
<path opacity="0.4" d="M11.4161 3.46861C9.80059 2.25537 7.12636 1.52662 4.14538 3.35515C2.08414 4.61952 0.924312 7.2606 1.3313 10.2951C1.74024 13.3443 3.71383 16.7929 7.89343 19.8865C9.34482 20.9614 10.41 21.7503 12.0001 21.7503C13.262 21.7503 14.1934 21.2534 15.2495 20.511V19.2505H13.7495C12.3688 19.2505 11.2495 18.1312 11.2495 16.7505C11.2495 15.3698 12.3688 14.2505 13.7495 14.2505H15.2495V12.7505C15.2495 11.3698 16.3688 10.2505 17.7495 10.2505C19.1302 10.2505 20.2495 11.3698 20.2495 12.7505V14.2505H21.3018C22.0586 12.8991 22.4989 11.5626 22.6689 10.2951C23.0759 7.2606 21.9161 4.61952 19.8548 3.35515C16.8738 1.52662 14.1996 2.25537 12.5841 3.46861C12.3183 3.6682 12.1359 3.8048 12.0001 3.89704C11.8643 3.8048 11.6819 3.6682 11.4161 3.46861Z" fill="#141B34"/>
</svg>
