<svg width="24" height="24" viewBox="0 0 24 24" fill="none" xmlns="http://www.w3.org/2000/svg">
<path d="M11.9935 12.9648V15.457M11.9935 15.457L14.4918 16.9522M11.9935 15.457L9.49512 16.9522" stroke="#141B34" stroke-width="1.5" stroke-linejoin="round"/>
<path d="M13.5267 3.50152C13.5267 4.34535 12.845 5.02941 12.0041 5.02941C11.1632 5.02941 10.4816 4.34535 10.4816 3.50152C10.4816 2.65769 11.1632 1.97363 12.0041 1.97363C12.845 1.97363 13.5267 2.65769 13.5267 3.50152Z" stroke="#141B34" stroke-width="1.5"/>
<path d="M8.99707 10.5206C9.17625 6.52097 14.7427 6.44982 15.0112 10.5205L8.99707 10.5206Z" stroke="#141B34" stroke-width="1.5"/>
<path d="M6.51984 14.9546C6.51984 15.7985 5.83816 16.4825 4.99728 16.4825C4.15639 16.4825 3.47472 15.7985 3.47472 14.9546C3.47472 14.1108 4.15639 13.4268 4.99728 13.4268C5.83816 13.4268 6.51984 14.1108 6.51984 14.9546Z" stroke="#141B34" stroke-width="1.5"/>
<path d="M1.99023 21.9737C2.16942 17.9741 7.73586 17.9029 8.00439 21.9736L1.99023 21.9737Z" stroke="#141B34" stroke-width="1.5"/>
<path d="M20.511 14.9546C20.511 15.7985 19.8294 16.4825 18.9885 16.4825C18.1476 16.4825 17.4659 15.7985 17.4659 14.9546C17.4659 14.1108 18.1476 13.4268 18.9885 13.4268C19.8294 13.4268 20.511 14.1108 20.511 14.9546Z" stroke="#141B34" stroke-width="1.5"/>
<path d="M15.9814 21.9737C16.1606 17.9741 21.7271 17.9029 21.9956 21.9736L15.9814 21.9737Z" stroke="#141B34" stroke-width="1.5"/>
</svg>
