<svg width="24" height="24" viewBox="0 0 24 24" fill="none" xmlns="http://www.w3.org/2000/svg">
<path d="M12.25 2C12.25 1.58579 12.5858 1.25 13 1.25H17.8107L20.75 4.18934V10C20.75 10.4142 20.4142 10.75 20 10.75H13C12.5858 10.75 12.25 10.4142 12.25 10V2Z" fill="#141B34"/>
<path d="M12.25 14C12.25 13.5858 12.5858 13.25 13 13.25H17.8107L20.75 16.1893V22C20.75 22.4142 20.4142 22.75 20 22.75H13C12.5858 22.75 12.25 22.4142 12.25 22V14Z" fill="#141B34"/>
<path fill-rule="evenodd" clip-rule="evenodd" d="M5.25 5V2H3.25L3.25117 18.0001C3.25123 18.5523 3.69892 19 4.25117 19H10.25V17H5.25107L5.2501 7H10.25V5H5.25Z" fill="#141B34"/>
</svg>
