<svg width="24" height="24" viewBox="0 0 24 24" fill="none" xmlns="http://www.w3.org/2000/svg">
<path d="M15.2584 4H15C14.9752 4 14.9504 4.00092 14.9257 4.00277C13.5937 4.10203 12.432 4.45194 11.7322 5.57119C11.1169 6.55526 11 7.95518 11 9.65278V14.3472C11 16.0448 11.1169 17.4447 11.7322 18.4288C12.432 19.5481 13.5937 19.898 14.9257 19.9972C14.9504 19.9991 14.9752 20 15 20H15.2584C15.25 19.7095 15.25 19.3916 15.25 19.0494V18.9506C15.25 18.6084 15.25 18.2905 15.2584 18H15.0383C13.946 17.9138 13.613 17.6643 13.428 17.3685C13.1566 16.9343 13 16.0992 13 14.3472L13 9.65278C13 7.90075 13.1566 7.06568 13.428 6.63147C13.613 6.33566 13.946 6.08621 15.0383 6H15.2584C15.25 5.70951 15.25 5.39163 15.25 5.04938V4.95063C15.25 4.60838 15.25 4.29049 15.2584 4Z" fill="#141B34"/>
<path d="M8 7.8C8 6.41173 6.90049 5.25 5.5 5.25C4.09951 5.25 3 6.41173 3 7.8C3 9.18827 4.09951 10.3501 5.5 10.3501C6.90049 10.3501 8 9.18827 8 7.8Z" fill="#141B34"/>
<path opacity="0.4" d="M1.53524 13.9639C0.754934 12.0597 1.65692 9.92444 3.37959 9.15039L7.62038 9.15041C9.34302 9.92447 10.245 12.0597 9.46469 13.9639C9.24494 14.5002 8.72718 14.873 8.12768 14.873H7.94523L7.38088 17.234C7.1731 18.1033 6.41269 18.7499 5.49997 18.7499C4.58724 18.7499 3.82683 18.1033 3.61905 17.234L3.0547 14.873H2.87225C2.27275 14.873 1.75499 14.5002 1.53524 13.9639Z" fill="#141B34"/>
<path opacity="0.4" d="M18.9506 1.25L19 1.25L19.0494 1.25H19.0494C19.7143 1.24996 20.2871 1.24993 20.7458 1.31161C21.2375 1.37771 21.7087 1.52677 22.091 1.90901C22.4732 2.29126 22.6223 2.76252 22.6884 3.25416C22.7501 3.7129 22.75 4.28575 22.75 4.95061V4.95062V5.04939V5.0494C22.75 5.71425 22.7501 6.28711 22.6884 6.74585C22.6223 7.23748 22.4732 7.70875 22.091 8.09099C21.7087 8.47324 21.2375 8.6223 20.7458 8.6884C20.2871 8.75007 19.7142 8.75004 19.0494 8.75001H18.9506C18.2858 8.75004 17.7129 8.75007 17.2542 8.6884C16.7625 8.6223 16.2913 8.47324 15.909 8.09099C15.5268 7.70875 15.3777 7.23748 15.3116 6.74585C15.2499 6.28711 15.25 5.71427 15.25 5.04943V5.04938L15.25 5L15.25 4.95063V4.95058C15.25 4.28574 15.2499 3.71289 15.3116 3.25416C15.3777 2.76252 15.5268 2.29126 15.909 1.90901C16.2913 1.52677 16.7625 1.37771 17.2542 1.31161C17.7129 1.24993 18.2857 1.24996 18.9506 1.25H18.9506Z" fill="#141B34"/>
<path opacity="0.4" d="M18.9506 15.25L19 15.25L19.0494 15.25H19.0494C19.7143 15.25 20.2871 15.2499 20.7458 15.3116C21.2375 15.3777 21.7087 15.5268 22.091 15.909C22.4732 16.2913 22.6223 16.7625 22.6884 17.2542C22.7501 17.7129 22.75 18.2858 22.75 18.9506V18.9506V19.0494V19.0494C22.75 19.7143 22.7501 20.2871 22.6884 20.7458C22.6223 21.2375 22.4732 21.7087 22.091 22.091C21.7087 22.4732 21.2375 22.6223 20.7458 22.6884C20.2871 22.7501 19.7142 22.75 19.0494 22.75H18.9506C18.2858 22.75 17.7129 22.7501 17.2542 22.6884C16.7625 22.6223 16.2913 22.4732 15.909 22.091C15.5268 21.7087 15.3777 21.2375 15.3116 20.7458C15.2499 20.2871 15.25 19.7143 15.25 19.0494V19.0494L15.25 19L15.25 18.9506V18.9506C15.25 18.2857 15.2499 17.7129 15.3116 17.2542C15.3777 16.7625 15.5268 16.2913 15.909 15.909C16.2913 15.5268 16.7625 15.3777 17.2542 15.3116C17.7129 15.2499 18.2857 15.25 18.9506 15.25H18.9506Z" fill="#141B34"/>
</svg>
