<svg width="24" height="24" viewBox="0 0 24 24" fill="none" xmlns="http://www.w3.org/2000/svg">
<path d="M15.2495 19.4999C15.2495 17.705 16.7046 16.2499 18.4995 16.2499C20.2944 16.2499 21.7495 17.705 21.7495 19.4999C21.7495 21.2948 20.2944 22.7499 18.4995 22.7499C16.7046 22.7499 15.2495 21.2948 15.2495 19.4999Z" fill="#141B34"/>
<path fill-rule="evenodd" clip-rule="evenodd" d="M18.1306 2.11832C18.7055 1.26054 19.8585 1.00704 20.7514 1.49796C21.6789 2.00783 22.0376 3.16352 21.4965 4.09698L12.5098 19.5997C11.7936 20.8353 10.6357 21.8361 9.32505 22.3573C8.00737 22.8814 6.48924 22.9345 5.12194 22.1828C3.86633 21.4925 2.94546 20.2589 2.51848 18.9081C2.09045 17.554 2.13626 16.0049 2.92939 14.6968C3.52592 13.713 4.81474 12.9853 6.13732 13.7124C7.10129 14.2423 7.55109 15.3851 7.14336 16.4215C7.019 16.7376 6.97388 16.9724 6.99056 17.1299C6.99768 17.197 7.01508 17.24 7.03701 17.2731C7.05895 17.3062 7.10586 17.36 7.21526 17.4202C7.49342 17.5731 7.83625 17.4787 7.98886 17.2509L18.1306 2.11832ZM20.0292 2.81254C19.7929 2.68264 19.5036 2.76466 19.377 2.95353L16.8611 6.70755L17.829 7.4335L20.1992 3.34483C20.2997 3.17142 20.2516 2.93483 20.0292 2.81254Z" fill="#141B34"/>
</svg>
