<svg width="24" height="24" viewBox="0 0 24 24" fill="none" xmlns="http://www.w3.org/2000/svg">
<path opacity="0.4" d="M11.1413 10.7363C11.378 10.7363 11.5698 10.5478 11.5698 10.3151V3.03583C11.5698 2.32569 12.1455 1.75 12.8557 1.75C13.5659 1.75 14.1416 2.32573 14.1415 3.03591L14.1411 10.3151C14.1411 10.5478 14.333 10.7363 14.5696 10.7363C14.8063 10.7363 14.9982 10.5478 14.9982 10.3151V5.0357C14.9982 4.32567 15.5738 3.75007 16.2838 3.75007C16.9938 3.75007 17.5694 4.32567 17.5694 5.0357V10.3151C17.5694 10.5478 17.7613 10.7363 17.998 10.7363C18.2346 10.7363 18.4265 10.5478 18.4265 10.3151V7.05907C18.4265 6.34878 19.0023 5.77297 19.7126 5.77297C20.4229 5.77297 20.9987 6.34878 20.9987 7.05907V10.5001C20.9987 10.5138 20.9984 10.5274 20.9976 10.541V14.1925C20.9976 15.2572 20.9976 16.0922 20.9547 16.7674C20.9111 17.4543 20.821 18.027 20.617 18.56C20.035 20.0809 18.8367 21.2835 17.319 21.8679C16.787 22.0727 16.2154 22.1632 15.5303 22.207C14.8569 22.2501 14.0246 22.2501 12.9633 22.2501C11.9161 22.2502 11.1521 22.2503 10.5427 22.1159C9.61434 21.9112 8.75145 21.4783 8.03152 20.8564C7.55903 20.4483 7.17252 19.9312 6.54413 19.0905L3.29799 14.6108C3.23221 14.5243 3.17727 14.4326 3.13314 14.3373C3.05472 14.1117 3.01038 13.8772 3 13.6417C3.01662 13.3414 3.12575 13.0454 3.32669 12.7977C3.88496 12.1097 4.92496 12.053 5.55657 12.6758L7.40947 14.5029C7.53193 14.6236 7.71636 14.6599 7.87666 14.5948C8.03696 14.5296 8.14151 14.376 8.14151 14.2055V5.0357C8.14151 4.32567 8.71711 3.75007 9.42714 3.75007C10.1372 3.75007 10.7128 4.32567 10.7128 5.0357V10.3151C10.7128 10.5478 10.9046 10.7363 11.1413 10.7363Z" fill="#141B34"/>
</svg>
