<svg width="24" height="24" viewBox="0 0 24 24" fill="none" xmlns="http://www.w3.org/2000/svg">
<path fill-rule="evenodd" clip-rule="evenodd" d="M12 1.75C12.5459 1.75 13.0746 1.94269 13.4922 2.29395L19.3301 7.2041V5.16699C19.3301 4.62796 19.767 4.19059 20.3066 4.19043C20.8464 4.19043 21.2842 4.62786 21.2842 5.16699V8.84863L22.4023 9.78906L22.4756 9.85742C22.8201 10.2127 22.8463 10.7785 22.5205 11.165C22.2103 11.5326 21.6866 11.613 21.2842 11.3799V19.3213C21.2842 20.9386 19.9716 22.2499 18.3525 22.25H5.64744C4.02833 22.2499 2.7158 20.9386 2.7158 19.3213V11.3799C2.31333 11.613 1.78964 11.5326 1.47947 11.165C1.13202 10.7528 1.18516 10.1364 1.59764 9.78906L10.5088 2.29395L10.6699 2.16992C11.0582 1.89775 11.5223 1.75001 12 1.75ZM9.99998 13.5C9.4477 13.5 8.99998 13.9477 8.99998 14.5V20.25H15V14.5C15 13.9477 14.5523 13.5 14 13.5H9.99998Z" fill="#141B34"/>
</svg>
