<svg width="24" height="24" viewBox="0 0 24 24" fill="none" xmlns="http://www.w3.org/2000/svg">
<path fill-rule="evenodd" clip-rule="evenodd" d="M12 1.75C12.4925 1.75 12.9709 1.91556 13.3574 2.2207L21.9521 9.00684L22.1309 9.16504C22.5248 9.55636 22.75 10.0915 22.75 10.6533C22.7497 11.7787 21.8629 12.6943 20.75 12.7451V19.5C20.75 21.0188 19.5188 22.25 18 22.25H6C4.48122 22.25 3.25 21.0188 3.25 19.5V12.7451C2.13709 12.6943 1.25025 11.7787 1.25 10.6533C1.25 10.0115 1.54409 9.40454 2.04785 9.00684L10.6426 2.2207L10.792 2.11328C11.1492 1.87709 11.5691 1.75 12 1.75ZM10 14C9.44772 14 9 14.4477 9 15V20.25H15V15C15 14.4477 14.5523 14 14 14H10Z" fill="#141B34"/>
</svg>
