<svg width="24" height="24" viewBox="0 0 24 24" fill="none" xmlns="http://www.w3.org/2000/svg">
<path fill-rule="evenodd" clip-rule="evenodd" d="M7.47825 1.25C7.48548 1.25 7.49273 1.25 7.5 1.25L16.5218 1.25C16.736 1.24999 16.9329 1.24998 17.0982 1.26126C17.2759 1.27338 17.4712 1.30099 17.6697 1.38321C18.0985 1.56083 18.4392 1.90151 18.6168 2.33031C18.699 2.52881 18.7266 2.72415 18.7387 2.90179C18.75 3.06712 18.75 3.26396 18.75 3.47824V3.52176C18.75 3.73604 18.75 3.93289 18.7387 4.09821C18.7266 4.27585 18.699 4.47119 18.6168 4.6697C18.4392 5.0985 18.0985 5.43918 17.6697 5.61679C17.4712 5.69901 17.2759 5.72663 17.0982 5.73875C16.9329 5.75003 16.736 5.75002 16.5218 5.75H7.47824C7.26396 5.75002 7.06712 5.75003 6.90179 5.73875C6.72415 5.72663 6.52881 5.69901 6.33031 5.61679C5.90151 5.43918 5.56083 5.0985 5.38321 4.6697C5.30099 4.47119 5.27338 4.27585 5.26126 4.09821C5.24998 3.93288 5.24999 3.73604 5.25 3.52176C5.25 3.51453 5.25 3.50727 5.25 3.5C5.25 3.49273 5.25 3.48548 5.25 3.47825C5.24999 3.26397 5.24998 3.06712 5.26126 2.90179C5.27338 2.72415 5.30099 2.52881 5.38321 2.33031C5.56083 1.90151 5.90151 1.56083 6.33031 1.38321C6.52881 1.30099 6.72415 1.27338 6.90179 1.26126C7.06712 1.24998 7.26397 1.24999 7.47825 1.25ZM6.90131 2.77031C6.84248 2.79558 6.79558 2.84248 6.77031 2.90131C6.76844 2.90867 6.76234 2.93707 6.75778 3.0039C6.75041 3.11191 6.75 3.25677 6.75 3.5C6.75 3.74323 6.75041 3.8881 6.75778 3.9961C6.76234 4.06293 6.76844 4.09134 6.77031 4.09869C6.79558 4.15753 6.84248 4.20442 6.90131 4.2297C6.90867 4.23157 6.93707 4.23767 7.0039 4.24223C7.11191 4.2496 7.25677 4.25 7.5 4.25H16.5C16.7432 4.25 16.8881 4.2496 16.9961 4.24223C17.0629 4.23767 17.0913 4.23157 17.0987 4.2297C17.1575 4.20442 17.2044 4.15752 17.2297 4.09869C17.2316 4.09133 17.2377 4.06292 17.2422 3.9961C17.2496 3.8881 17.25 3.74323 17.25 3.5C17.25 3.25677 17.2496 3.11191 17.2422 3.0039C17.2377 2.93708 17.2316 2.90868 17.2297 2.90132C17.2044 2.84248 17.1575 2.79558 17.0987 2.77031C17.0913 2.76844 17.0629 2.76234 16.9961 2.75778C16.8881 2.75041 16.7432 2.75 16.5 2.75H7.5C7.25677 2.75 7.11191 2.75041 7.0039 2.75778C6.93707 2.76234 6.90867 2.76844 6.90131 2.77031Z" fill="#141B34"/>
<path fill-rule="evenodd" clip-rule="evenodd" d="M17.3508 4.84932C17.0928 4.53978 16.6183 4.25 16.2154 4.25H7.78466C7.38172 4.25 6.90725 4.53978 6.6493 4.84932C5.59068 6.11923 4.93737 6.90292 4.59347 7.8528C4.24957 8.80269 4.24974 9.82298 4.25002 11.4763L4.25003 16.0549C4.25001 17.4225 4.24999 18.5248 4.36655 19.3918C4.48757 20.2919 4.74646 21.0497 5.34838 21.6517C5.9503 22.2536 6.70817 22.5125 7.60828 22.6335C8.47525 22.75 9.57757 22.75 10.9452 22.75H13.0549C14.4225 22.75 15.5248 22.75 16.3918 22.6335C17.2919 22.5125 18.0498 22.2536 18.6517 21.6517C19.2536 21.0497 19.5125 20.2919 19.6335 19.3918C19.7501 18.5248 19.7501 17.4225 19.75 16.0549V16.0549V16.0549L19.75 11.4763C19.7503 9.82298 19.7505 8.80269 19.4066 7.8528C19.0627 6.90292 18.4094 6.11922 17.3508 4.84932ZM12.4325 9.38727C12.1732 9.20424 11.8268 9.20424 11.5675 9.38727L9.56746 10.799C9.36837 10.9396 9.24997 11.1681 9.24997 11.4118V12.6982C9.24997 12.7998 9.24997 12.8506 9.22755 12.8939C9.20512 12.9372 9.16363 12.9664 9.08064 13.025L7.56746 14.0932C7.36837 14.2337 7.24997 14.4622 7.24997 14.7059V16.5882C7.24997 16.8319 7.36837 17.0604 7.56746 17.201L9.56746 18.6127C9.82675 18.7958 10.1732 18.7958 10.4325 18.6127L11.7693 17.6691L11.7693 17.6691C11.8808 17.5904 11.9365 17.5511 12 17.5511C12.0634 17.5511 12.1192 17.5904 12.2306 17.6691L12.2306 17.6691L13.5675 18.6127C13.8268 18.7958 14.1732 18.7958 14.4325 18.6127L16.4325 17.201C16.6316 17.0604 16.75 16.8319 16.75 16.5882V14.7059C16.75 14.4622 16.6316 14.2337 16.4325 14.0932L14.9193 13.025C14.8363 12.9664 14.7948 12.9372 14.7724 12.8939C14.75 12.8506 14.75 12.7998 14.75 12.6982V11.4118C14.75 11.1681 14.6316 10.9396 14.4325 10.799L12.4325 9.38727ZM9.99997 14.257C10.0634 14.257 10.1192 14.2963 10.2306 14.375L11.0806 14.975C11.1636 15.0336 11.2051 15.0628 11.2275 15.1061C11.25 15.1494 11.25 15.2002 11.25 15.3018V15.9924C11.25 16.0939 11.25 16.1447 11.2275 16.188C11.2051 16.2313 11.1636 16.2606 11.0806 16.3191L10.2306 16.9191C10.1192 16.9978 10.0634 17.0372 9.99997 17.0372C9.93649 17.0372 9.88076 16.9978 9.7693 16.9191L8.9193 16.3191C8.83631 16.2606 8.79481 16.2313 8.77239 16.188C8.74997 16.1447 8.74997 16.0939 8.74997 15.9924V15.3018C8.74997 15.2002 8.74997 15.1494 8.77239 15.1061C8.79481 15.0628 8.83631 15.0336 8.9193 14.975L9.7693 14.375C9.88076 14.2963 9.93649 14.257 9.99997 14.257ZM12.7724 15.1061C12.7948 15.0628 12.8363 15.0336 12.9193 14.975L13.7693 14.375C13.8808 14.2963 13.9365 14.257 14 14.257C14.0634 14.257 14.1192 14.2963 14.2306 14.375L14.2306 14.375L15.0806 14.975C15.1636 15.0336 15.2051 15.0628 15.2275 15.1061C15.25 15.1494 15.25 15.2002 15.25 15.3018V15.9924C15.25 16.0939 15.25 16.1447 15.2275 16.188C15.2051 16.2313 15.1636 16.2606 15.0806 16.3191L14.2306 16.9191C14.1192 16.9978 14.0634 17.0372 14 17.0372C13.9365 17.0372 13.8808 16.9978 13.7693 16.9191L12.9193 16.3191C12.8363 16.2606 12.7948 16.2313 12.7724 16.188C12.75 16.1447 12.75 16.0939 12.75 15.9924V15.3018C12.75 15.2002 12.75 15.1494 12.7724 15.1061ZM13.2275 12.8939C13.2051 12.9372 13.1636 12.9664 13.0806 13.025L12.2306 13.625C12.1192 13.7037 12.0634 13.743 12 13.743C11.9365 13.743 11.8808 13.7037 11.7693 13.625L10.9193 13.025C10.8363 12.9664 10.7948 12.9372 10.7724 12.8939C10.75 12.8506 10.75 12.7998 10.75 12.6982V12.0076C10.75 11.9061 10.75 11.8553 10.7724 11.812C10.7948 11.7687 10.8363 11.7394 10.9193 11.6809L11.7693 11.0809C11.8808 11.0022 11.9365 10.9628 12 10.9628C12.0634 10.9628 12.1192 11.0022 12.2306 11.0809L13.0806 11.6809C13.1636 11.7394 13.2051 11.7687 13.2275 11.812C13.25 11.8553 13.25 11.9061 13.25 12.0076V12.6982C13.25 12.7998 13.25 12.8506 13.2275 12.8939Z" fill="#141B34"/>
</svg>
