<svg width="24" height="24" viewBox="0 0 24 24" fill="none" xmlns="http://www.w3.org/2000/svg">
<path d="M3.01978 6.97412V21.9998H21.0009V6.97412" stroke="#141B34" stroke-width="1.5"/>
<path d="M14.0083 21.999V15.9888H10.0125V21.999" stroke="#141B34" stroke-width="1.5" stroke-linejoin="round"/>
<path d="M5.51685 10.981H7.51378M5.51685 14.4861H7.51378" stroke="#141B34" stroke-width="1.5" stroke-linejoin="round"/>
<path d="M16.5056 10.981H18.5025M16.5056 14.4861H18.5025" stroke="#141B34" stroke-width="1.5" stroke-linejoin="round"/>
<path d="M10.512 6.97412V9.4784M10.512 9.4784V11.9827M10.512 9.4784H13.5088M13.5088 6.97412V9.4784M13.5088 9.4784V11.9827" stroke="#141B34" stroke-width="1.5" stroke-linejoin="round"/>
<path d="M15.064 2.95081H20.0352C20.039 2.95081 20.0425 2.95299 20.0442 2.95642L21.9973 6.95987C22.0005 6.96653 21.9957 6.97429 21.9883 6.97429H17.0685C16.9528 5.0828 16.1593 3.75565 15.064 2.95081ZM15.064 2.95081H15.0024M15.064 2.95081C13.3 1.65463 10.7532 1.71314 8.99376 2.95081M8.99376 2.95081C7.81512 3.7799 6.9898 5.13813 6.9898 6.97274H2.01171C2.00427 6.97274 1.99944 6.96488 2.00279 6.95822L4.0113 2.95632C4.013 2.95294 4.01645 2.95081 4.02023 2.95081H8.99376Z" stroke="#141B34" stroke-width="1.5"/>
</svg>
