<svg width="24" height="24" viewBox="0 0 24 24" fill="none" xmlns="http://www.w3.org/2000/svg">
<path d="M13.6451 13.1115C14.0667 13.4682 14.1195 14.0991 13.7628 14.5208L11.7716 16.875L13.0613 16.875H13.0613C13.3059 16.8749 13.5772 16.8748 13.7973 16.9029C14.0004 16.9289 14.5158 17.0147 14.8207 17.5071C15.1658 18.0645 14.9282 18.5985 14.815 18.8055C14.709 18.9997 14.5456 19.2111 14.4143 19.3811L11.744 22.5232C11.3861 22.9438 10.7549 22.9945 10.3344 22.6365C9.91383 22.2785 9.86311 21.6474 10.2211 21.2268L12.2231 18.875L10.9373 18.875C10.6927 18.8751 10.4213 18.8753 10.2013 18.8471C9.99816 18.8212 9.48276 18.7354 9.1779 18.243C8.83279 17.6855 9.07036 17.1516 9.1835 16.9445C9.28958 16.7503 9.45292 16.539 9.5843 16.3689L12.2358 13.2292C12.5924 12.8076 13.2234 12.7548 13.6451 13.1115Z" fill="#141B34"/>
<path d="M8.68141 1.12502H8.13756C7.54607 1.125 7.04276 1.12499 6.62811 1.17022C6.18574 1.21848 5.77692 1.3236 5.39624 1.57652C5.01638 1.82889 4.75949 2.16537 4.54027 2.55486C4.33401 2.92133 3.98311 3.73614 3.74564 4.28758C3.58279 4.6657 3.50137 4.85476 3.59026 4.98983C3.67916 5.12491 3.88501 5.12491 4.2967 5.12491H8.30824C8.56045 5.12491 8.68655 5.12491 8.77162 5.04981C8.85669 4.97472 8.87233 4.84959 8.90361 4.59933L9.25617 1.77882C9.29404 1.48569 9.29004 1.31303 9.21285 1.21423C9.12476 1.12502 8.97698 1.12502 8.68141 1.12502Z" fill="#141B34"/>
<path d="M2.60337 7.00356C2.5111 7.25209 2.43429 7.48312 2.37708 7.69699C2.2066 8.33422 2.1588 8.99874 2.54722 9.60204C2.93794 10.2089 3.56373 10.4341 4.21282 10.5318C4.83287 10.6251 5.6436 10.6251 6.61018 10.625H7.6132C7.86022 10.625 7.98373 10.625 8.06819 10.5521C8.15265 10.4792 8.17069 10.357 8.20677 10.1127L8.56611 7.29933C8.6054 6.985 8.62505 6.82783 8.53548 6.72637C8.44592 6.62491 8.28753 6.62491 7.97074 6.62491H3.15594C2.95766 6.62491 2.85852 6.62491 2.7813 6.67861C2.70407 6.73231 2.67051 6.82273 2.60337 7.00356Z" fill="#141B34"/>
<path d="M10.2949 10.625H13.6668C13.9728 10.625 14.1342 10.6156 14.2232 10.5198C14.3081 10.4204 14.2905 10.2684 14.2554 9.96445L13.9036 7.15047C13.8723 6.90021 13.8567 6.77508 13.7716 6.69999C13.6866 6.62489 13.5605 6.62489 13.3083 6.62489H10.6918C10.4396 6.62489 10.3135 6.62489 10.2284 6.69999C10.1433 6.77508 10.1277 6.90021 10.0964 7.15047L9.74197 9.98443C9.70141 10.2591 9.68113 10.3965 9.74642 10.4931C9.83241 10.5717 10.0172 10.625 10.2949 10.625Z" fill="#141B34"/>
<path d="M12.623 1.125H11.3806C11.1294 1.125 11.0037 1.125 10.9188 1.19969C10.8338 1.27438 10.8177 1.39896 10.7855 1.64813L10.4339 4.45047C10.3946 4.7648 10.375 4.92197 10.4645 5.02343C10.5541 5.12489 10.7125 5.12489 11.0293 5.12489H12.9712C13.2878 5.12489 13.4461 5.12489 13.5356 5.0235C13.6252 4.92211 13.6057 4.76502 13.5666 4.45084L13.2184 1.65095C13.1872 1.40053 13.1716 1.27532 13.0866 1.20016C13.0015 1.125 12.8753 1.125 12.623 1.125Z" fill="#141B34"/>
<path d="M16.3764 10.625H17.3896C18.3562 10.625 19.1669 10.6251 19.787 10.5318C20.4361 10.4341 21.0619 10.2089 21.4526 9.60202C21.841 8.99872 21.7932 8.3342 21.6227 7.69697C21.5655 7.4831 21.4887 7.25207 21.3964 7.00354C21.3293 6.82271 21.2957 6.73229 21.2185 6.67859C21.1413 6.62489 21.0421 6.62489 20.8439 6.62489H16.0293C15.7125 6.62489 15.5541 6.62489 15.4645 6.72635C15.375 6.82781 15.3946 6.98498 15.4339 7.29931L15.7451 9.78877L15.7803 10.0939C15.8096 10.3466 15.8242 10.473 15.9095 10.549C15.9948 10.625 16.122 10.625 16.3764 10.625Z" fill="#141B34"/>
<path d="M20.2542 4.28756C20.0167 3.73613 19.6658 2.92131 19.4595 2.55483C19.2403 2.16535 18.9834 1.82887 18.6036 1.5765C18.2229 1.32358 17.8141 1.21846 17.3717 1.1702C16.957 1.12497 15.9353 1.12498 15.3438 1.125C15.0272 1.125 14.8689 1.125 14.7793 1.22639C14.6898 1.32779 14.7093 1.48488 14.7484 1.79907L15.0967 4.59895C15.1278 4.84937 15.1434 4.97458 15.2285 5.04973C15.3136 5.12489 15.4397 5.12489 15.6921 5.12489H19.7031C20.1148 5.12489 20.3206 5.12489 20.4095 4.98981C20.4984 4.85474 20.417 4.66567 20.2542 4.28756Z" fill="#141B34"/>
<g opacity="0.4">
<path d="M3.5 10.3516C3.72674 10.4383 3.96812 10.4933 4.21282 10.5301C4.57808 10.5851 5.00952 10.6076 5.5 10.6169V14.8831C5.5 15.8559 5.50212 16.4852 5.56435 16.9489C5.62274 17.384 5.71712 17.5209 5.79358 17.5975C5.90344 17.7076 6.11789 17.8358 7.04159 17.8742C7.5934 17.8971 8.02211 18.3631 7.99915 18.9149C7.97619 19.4667 7.51025 19.8954 6.95844 19.8725C6.00983 19.833 5.07632 19.71 4.378 19.0103C3.86868 18.5 3.67017 17.8711 3.58211 17.2149C3.49991 16.6023 3.49995 15.8372 3.5 14.9488L3.5 10.3516Z" fill="#141B34"/>
<path d="M18.5 10.6169C18.9904 10.6076 19.4218 10.5851 19.787 10.5301C20.0317 10.4933 20.2732 10.4383 20.5 10.3516L20.5 14.9488C20.5001 15.8372 20.5001 16.6023 20.4179 17.2149C20.3298 17.8711 20.1313 18.5 19.622 19.0103C18.9237 19.71 17.9902 19.833 17.0416 19.8725C16.4898 19.8954 16.0238 19.4667 16.0009 18.9149C15.9779 18.3631 16.4066 17.8971 16.9584 17.8742C17.8821 17.8358 18.0966 17.7076 18.2064 17.5975C18.2829 17.5209 18.3773 17.384 18.4357 16.9489C18.4979 16.4852 18.5 15.8559 18.5 14.8831V10.6169Z" fill="#141B34"/>
</g>
</svg>
