<svg width="24" height="24" viewBox="0 0 24 24" fill="none" xmlns="http://www.w3.org/2000/svg">
<path d="M12.997 2.03181C13.1051 1.50302 13.6213 1.16193 14.1501 1.26997C18.2438 2.10641 21.5135 5.20282 22.6263 9.20327C22.6604 9.32471 22.7212 9.54199 22.7403 9.70983C22.7634 9.91233 22.7724 10.3749 22.3767 10.7326C21.9716 11.0987 21.5007 11.0309 21.3082 10.9864C21.1431 10.9482 20.9621 10.875 20.8421 10.8264L18.9251 9.95795C18.4338 9.73468 17.9004 9.20327 18.4397 8.66397L19.7217 7.38202C18.4151 5.25187 16.2721 3.69844 13.7589 3.18492C13.2301 3.07688 12.889 2.56061 12.997 2.03181Z" fill="#141B34"/>
<path d="M9.95795 5.07485C9.73468 5.56623 9.20327 6.09961 8.66397 5.5603L7.38201 4.27835C5.25187 5.58491 3.69844 7.72788 3.18492 10.2411C3.07688 10.7699 2.56061 11.111 2.03181 11.003C1.50302 10.8949 1.16193 10.3787 1.26997 9.84986C2.10641 5.75616 5.20282 2.48651 9.20327 1.37367C9.32471 1.33964 9.54198 1.27878 9.70983 1.25967C9.91233 1.23662 10.3749 1.22759 10.7326 1.62334C11.0987 2.02841 11.0309 2.49927 10.9864 2.69185C10.9482 2.85691 10.875 3.03786 10.8264 3.15789L9.95795 5.07485Z" fill="#141B34"/>
<path d="M21.9682 12.997C22.497 13.1051 22.8381 13.6213 22.73 14.1501C21.8936 18.2438 18.7972 21.5135 14.7967 22.6263C14.6753 22.6604 14.458 22.7212 14.2902 22.7403C14.0877 22.7634 13.6251 22.7724 13.2674 22.3767C12.9013 21.9716 12.9691 21.5007 13.0136 21.3082C13.0518 21.1431 13.125 20.9622 13.1736 20.8421L13.1736 20.8421L14.042 18.9251C14.2653 18.4338 14.7967 17.9004 15.336 18.4397L16.618 19.7217C18.7481 18.4151 20.3016 16.2721 20.8151 13.7589C20.9231 13.2301 21.4394 12.889 21.9682 12.997Z" fill="#141B34"/>
<path d="M5.07485 14.042C5.56623 14.2653 6.09961 14.7967 5.5603 15.336L4.27835 16.618C5.58491 18.7481 7.72788 20.3016 10.2411 20.8151C10.7699 20.9231 11.111 21.4394 11.003 21.9682C10.8949 22.497 10.3787 22.8381 9.84986 22.73C5.75616 21.8936 2.48651 18.7972 1.37367 14.7967C1.33964 14.6753 1.27878 14.458 1.25968 14.2902C1.23662 14.0877 1.22759 13.6251 1.62334 13.2674C2.02841 12.9013 2.49928 12.9691 2.69185 13.0136C2.8569 13.0518 3.03785 13.125 3.15789 13.1736L3.1579 13.1736L5.07485 14.042Z" fill="#141B34"/>
<path d="M10.3636 7.38228C11.2919 6.53924 12.7081 6.53924 13.6364 7.38228C14.2512 7.94063 15.0146 8.7189 15.6293 9.62054C16.2374 10.5125 16.75 11.598 16.75 12.7551C16.75 14.999 14.9157 17.25 12 17.25C9.08425 17.25 7.25 14.999 7.25 12.7551C7.25 11.598 7.76262 10.5125 8.37069 9.62054C8.98538 8.7189 9.74877 7.94063 10.3636 7.38228Z" fill="#141B34"/>
</svg>
