<svg width="24" height="24" viewBox="0 0 24 24" fill="none" xmlns="http://www.w3.org/2000/svg">
<path d="M15.1611 17.1066L22.75 3.20813L21.4278 2.5L13.8389 16.3984L15.1611 17.1066Z" fill="#141B34"/>
<path d="M11.7945 15.3043L18.2113 3.20367L16.8837 2.50571L11.1979 13.2167C10.0259 12.5763 8.64728 11.9662 7.33474 11.5565C6.5448 11.31 5.75737 11.1293 5.0401 11.0648C4.33794 11.0017 3.62222 11.042 3.03174 11.316C2.34284 11.6358 1.92843 12.3361 1.6814 13.0074C1.4233 13.7086 1.2867 14.5411 1.25649 15.3578C1.22623 16.1759 1.30111 17.0205 1.4954 17.7508C1.68158 18.4506 2.01389 19.1826 2.60585 19.6004C3.16483 19.995 3.92478 20.2133 4.69815 20.3385C5.48938 20.4666 6.37979 20.51 7.2638 20.5001C9.02802 20.4805 10.8517 20.2477 11.9636 19.993L11.6286 18.5313C10.6311 18.7598 8.91491 18.9821 7.2471 19.0006C7.16245 19.0016 7.07814 19.002 6.99427 19.0019L8.53881 13.5974C9.46175 13.9869 10.3592 14.4433 11.1141 14.8962L11.7945 15.3043Z" fill="#141B34"/>
<path d="M13.9993 16.0012H18.0007C18.6978 16.0012 19.0464 16.0012 19.33 16.0872C19.9697 16.281 20.4702 16.7816 20.664 17.4212C20.75 17.7048 20.75 18.0534 20.75 18.7505C20.75 19.4476 20.75 19.7961 20.664 20.0798C20.4702 20.7194 19.9697 21.22 19.33 21.4138C19.0464 21.4997 18.6978 21.4997 18.0007 21.4997H13.9993C13.3022 21.4997 12.9536 21.4997 12.67 21.4138C12.0303 21.22 11.5298 20.7194 11.336 20.0798C11.25 19.7961 11.25 19.4476 11.25 18.7505C11.25 18.0534 11.25 17.7048 11.336 17.4212C11.5298 16.7816 12.0303 16.281 12.67 16.0872C12.9536 16.0012 13.3022 16.0012 13.9993 16.0012Z" fill="#141B34"/>
</svg>
