<svg width="24" height="24" viewBox="0 0 24 24" fill="none" xmlns="http://www.w3.org/2000/svg">
<path fill-rule="evenodd" clip-rule="evenodd" d="M14.5028 3.24994C14.0886 3.2484 13.7516 3.58293 13.75 3.99714L14.4972 5.7981H9.5028L10.25 3.99714C10.2485 3.58293 9.91142 3.2484 9.49721 3.24994C8.18295 3.25484 7.10892 3.27915 6.24135 3.42341C5.35533 3.57074 4.61291 3.85365 4.00932 4.42547C3.32721 5.07168 3.02661 5.89288 2.88558 6.88664C2.74996 7.84228 2.74998 9.05851 2.75 10.5722V10.5722V10.5722V15.4253V15.4253V15.4253C2.74998 16.939 2.74996 18.1552 2.88558 19.1109C3.02661 20.1047 3.32721 20.9258 4.00932 21.5721C4.68571 22.2129 5.53566 22.4903 6.56479 22.6214C7.56529 22.7488 8.84201 22.7488 10.4468 22.7488H10.4468H13.5532H13.5532C15.158 22.7488 16.4347 22.7488 17.4352 22.6214C18.4643 22.4903 19.3143 22.2129 19.9907 21.5721C20.6728 20.9258 20.9734 20.1047 21.1144 19.1109C21.25 18.1552 21.25 16.939 21.25 15.4253V10.5723C21.25 9.05854 21.25 7.84229 21.1144 6.88664C20.9734 5.89288 20.6728 5.07168 19.9907 4.42547C19.3871 3.85365 18.6447 3.57074 17.7587 3.42341C16.8911 3.27915 15.8171 3.25484 14.5028 3.24994ZM11.9934 9.24994C10.485 9.24994 9.2962 10.5002 9.2962 11.9999C9.2962 13.4997 10.485 14.7499 11.9934 14.7499C13.5018 14.7499 14.6906 13.4997 14.6906 11.9999C14.6906 10.5002 13.5018 9.24994 11.9934 9.24994ZM14.7767 19.7499C15.5904 19.7499 16.25 19.0903 16.25 18.2766C16.25 17.9231 16.1225 17.5481 15.835 17.2651C13.7319 15.1957 10.2441 15.2977 8.1819 17.2555C7.88358 17.5387 7.75 17.9208 7.75 18.2819C7.75 19.0927 8.40729 19.7499 9.21809 19.7499H14.7767Z" fill="#141B34"/>
<path fill-rule="evenodd" clip-rule="evenodd" d="M11.9239 1.24997C11.9489 1.24999 11.9743 1.25 12 1.25C12.0257 1.25 12.0511 1.24999 12.0761 1.24997C12.4715 1.24971 12.7887 1.2495 13.0768 1.31581C13.74 1.46844 14.3245 1.88205 14.6506 2.48166C14.7931 2.74362 14.8631 3.048 14.9413 3.38797C14.947 3.41267 14.9528 3.43755 14.9586 3.46262L15.0419 3.82274C15.0445 3.83436 15.0472 3.84594 15.0499 3.85748C15.1281 4.19539 15.1997 4.50502 15.2311 4.7648C15.2648 5.04374 15.2671 5.36605 15.121 5.68808C14.9718 6.01716 14.7234 6.28604 14.4203 6.47014C14.1352 6.64333 13.8261 6.70048 13.5374 6.72578C13.2606 6.75004 12.9198 6.75002 12.5294 6.75001H11.4706C11.0802 6.75002 10.7394 6.75004 10.4626 6.72578C10.1739 6.70048 9.86483 6.64333 9.57968 6.47014C9.27656 6.28604 9.02825 6.01716 8.87896 5.68808C8.73288 5.36605 8.73518 5.04374 8.76888 4.7648C8.80027 4.50502 8.87192 4.19539 8.95011 3.85748C8.95279 3.84593 8.95547 3.83435 8.95815 3.82274L9.04145 3.46262C9.04725 3.43755 9.05297 3.41267 9.05866 3.38797C9.13686 3.048 9.20689 2.74362 9.34938 2.48166C9.67555 1.88205 10.2601 1.46844 10.9232 1.31581C11.2113 1.2495 11.5285 1.24971 11.9239 1.24997ZM12 2.75C11.4903 2.75 11.3591 2.75471 11.2597 2.77759C10.9775 2.84253 10.7702 3.00887 10.667 3.19843C10.6356 3.2562 10.6091 3.34121 10.5029 3.80065L10.4196 4.16078C10.3307 4.54503 10.2786 4.77482 10.2581 4.94474C10.2486 5.02326 10.2495 5.0639 10.2509 5.08029C10.2695 5.11511 10.3034 5.15468 10.3583 5.18808L10.3597 5.1888C10.3607 5.1893 10.3626 5.19019 10.3655 5.19139C10.3714 5.1938 10.3822 5.19775 10.4 5.2024C10.4374 5.2122 10.4972 5.22306 10.5936 5.23151C10.7969 5.24933 11.071 5.25 11.5019 5.25H12.4981C12.929 5.25 13.2031 5.24933 13.4064 5.23151C13.5028 5.22306 13.5626 5.2122 13.6 5.2024C13.6178 5.19775 13.6286 5.1938 13.6345 5.19139C13.6374 5.19019 13.6393 5.1893 13.6403 5.1888L13.6414 5.18825C13.6964 5.15485 13.7305 5.11511 13.7491 5.08029C13.7505 5.0639 13.7514 5.02326 13.742 4.94474C13.7214 4.77482 13.6693 4.54503 13.5804 4.16078L13.4971 3.80065C13.3909 3.34121 13.3644 3.2562 13.333 3.19843C13.2298 3.00887 13.0225 2.84253 12.7403 2.77759C12.6409 2.75471 12.5097 2.75 12 2.75ZM13.748 5.08921C13.748 5.08918 13.7481 5.08844 13.7484 5.08709L13.748 5.08921ZM10.252 5.08921C10.2519 5.08924 10.2518 5.08857 10.2516 5.08709L10.252 5.08921Z" fill="#141B34"/>
</svg>
