<svg width="24" height="24" viewBox="0 0 24 24" fill="none" xmlns="http://www.w3.org/2000/svg">
<path fill-rule="evenodd" clip-rule="evenodd" d="M12.0652 1.75C14.0744 1.74998 15.6717 1.74997 16.934 1.90331C18.2327 2.06106 19.3071 2.39345 20.1968 3.15334C20.4301 3.35261 20.6474 3.56991 20.8467 3.80323C21.6065 4.69294 21.9389 5.76729 22.0967 7.06598C22.25 8.32829 22.25 10.0561 22.25 12.0653C22.25 14.0744 22.25 15.6717 22.0967 16.934C21.9389 18.2327 21.6065 19.3071 20.8467 20.1968C20.6474 20.4301 20.4301 20.6474 20.1968 20.8467C19.3071 21.6065 18.2327 21.9389 16.934 22.0967C15.6717 22.25 13.9439 22.25 11.9347 22.25C9.92558 22.25 8.32829 22.25 7.06598 22.0967C5.76729 21.9389 4.69294 21.6065 3.80323 20.8467C3.56991 20.6474 3.35261 20.4301 3.15334 20.1968C2.39345 19.3071 2.06106 18.2327 1.90331 16.934C1.74997 15.6717 1.74998 14.0744 1.75 12.0652V12.0652C1.74998 10.0561 1.74997 8.3283 1.90331 7.06598C2.06106 5.76729 2.39345 4.69294 3.15334 3.80323C3.35261 3.56991 3.56991 3.35261 3.80323 3.15334C4.69294 2.39345 5.76729 2.06106 7.06598 1.90331C8.3283 1.74997 10.0561 1.74998 12.0652 1.75H12.0652ZM3.84153 16.6986C3.97614 17.8067 4.22847 18.4493 4.63803 18.9288C4.77088 19.0843 4.91575 19.2292 5.0713 19.3621C5.55084 19.7716 6.19337 20.024 7.3015 20.1586C8.43237 20.2959 9.91094 20.2976 12.0001 20.2976C14.0892 20.2976 15.5678 20.2959 16.6987 20.1586C17.8068 20.024 18.4493 19.7716 18.9289 19.3621C19.0844 19.2292 19.2293 19.0843 19.3622 18.9288C19.7717 18.4493 20.024 17.8067 20.1587 16.6986C20.2103 16.2738 20.2427 15.7999 20.2631 15.263L18.5304 13.5303C18.1909 13.1908 17.7303 13 17.2501 13C16.7699 13 16.3093 13.1908 15.9698 13.5303L14.0001 15.5L10.0304 11.5303C9.69086 11.1908 9.23031 11 8.75009 11C8.26988 11 7.80933 11.1908 7.46976 11.5303L3.73706 15.263C3.75747 15.7999 3.78993 16.2738 3.84153 16.6986ZM15.5 6.25C14.8096 6.25 14.25 6.80964 14.25 7.5C14.25 8.19036 14.8096 8.75 15.5 8.75C16.1904 8.75 16.75 8.19036 16.75 7.5C16.75 6.80964 16.1904 6.25 15.5 6.25Z" fill="#141B34"/>
</svg>
