<svg width="24" height="24" viewBox="0 0 24 24" fill="none" xmlns="http://www.w3.org/2000/svg">
<path opacity="0.4" d="M3.39085 4.39319C2 5.78444 2 8.02361 2 12.502C2 13.2389 2 13.9152 2.0062 14.5371H2.49952C2.83719 14.5147 3.17591 14.5039 3.51493 14.5047C6.37007 14.4486 9.15527 15.2749 11.3736 16.8362L13.0281 17.9072C14.4934 16.7389 16.0529 16.1415 17.6269 16.1485C18.7313 16.1473 19.8297 16.4469 20.8938 17.038C20.9947 15.8482 20.9947 14.3699 20.9947 12.502C20.9947 8.02361 20.9947 5.78444 19.6039 4.39319C18.213 3.00195 15.9744 3.00195 11.4973 3.00195C7.02026 3.00195 4.78171 3.00195 3.39085 4.39319Z" fill="#141B34"/>
<path d="M11.4973 3.00195C7.02026 3.00195 4.78171 3.00195 3.39085 4.39319C2 5.78444 2 8.02361 2 12.502C2 16.9803 2 19.2195 3.39085 20.6108C4.78171 22.002 7.02026 22.002 11.4973 22.002C15.9744 22.002 18.213 22.002 19.6039 20.6108C20.9947 19.2195 20.9947 16.9803 20.9947 12.502V12.002" stroke="#141B34" stroke-width="1.5" stroke-linecap="round"/>
<path d="M2 14.1373C2.61885 14.0474 3.24449 14.003 3.87119 14.0046C6.52239 13.9485 9.10865 14.7748 11.1685 16.3361C13.0789 17.784 14.4212 19.7768 14.9964 22.0019" stroke="#141B34" stroke-width="1.5" stroke-linejoin="round"/>
<path d="M20.9946 16.8981C19.8195 16.3028 18.604 16.0007 17.3818 16.002C15.5306 15.9947 13.6981 16.6752 11.9971 18.0019" stroke="#141B34" stroke-width="1.5" stroke-linejoin="round"/>
<path d="M17.9957 1.99805V10.0062M22.0002 5.97704L13.9912 5.99193" stroke="#141B34" stroke-width="1.5" stroke-linecap="round" stroke-linejoin="round"/>
</svg>
