<svg width="24" height="24" viewBox="0 0 24 24" fill="none" xmlns="http://www.w3.org/2000/svg">
<path d="M21.0001 12.4916C21.0001 16.9744 21.0001 19.2159 19.6089 20.6086C18.2176 22.0012 15.9784 22.0012 11.5001 22.0012C7.02178 22.0012 4.78261 22.0012 3.39136 20.6086C2.00012 19.2159 2.00012 16.9744 2.00012 12.4916C2.00012 8.00868 2.00012 5.76724 3.39136 4.37458C4.78261 2.98193 7.02178 2.98193 11.5001 2.98193" stroke="#141B34" stroke-width="1.5" stroke-linecap="round" stroke-linejoin="round"/>
<path d="M21.0001 13.9932H16.0744C15.2323 13.9932 14.5707 14.6975 14.1996 15.4418C13.7964 16.2505 12.989 16.9962 11.5001 16.9962C10.0112 16.9962 9.20385 16.2505 8.80066 15.4418C8.42954 14.6975 7.76789 13.9932 6.92578 13.9932H2.00012" stroke="#141B34" stroke-width="1.5" stroke-linejoin="round"/>
<path opacity="0.4" d="M16.6599 5.97793C16.6599 5.97793 17.037 6.09332 17.5606 6.86204C17.5606 6.86204 18.3285 5.20236 19.3932 4.62582M21.9998 5.9858C21.9998 8.18791 20.2164 9.97307 18.0166 9.97307C15.8167 9.97307 14.0333 8.18791 14.0333 5.9858C14.0333 3.7837 15.8167 1.99854 18.0166 1.99854C20.2164 1.99854 21.9998 3.7837 21.9998 5.9858Z" stroke="#141B34" stroke-width="1.5" stroke-linecap="round" stroke-linejoin="round"/>
</svg>
