<svg width="24" height="24" viewBox="0 0 24 24" fill="none" xmlns="http://www.w3.org/2000/svg">
<path d="M18.0787 1.89988C19.0485 2.13412 19.8762 2.5311 20.566 3.2209C21.4784 4.13329 21.8785 5.2871 22.0674 6.69148C22.2313 7.91104 22.2483 10.172 22.25 12.125L22.2436 13.6287C22.2351 15.3704 22.1957 16.7789 21.9907 17.9142C21.7817 19.0711 21.3902 20.0089 20.6351 20.7641C19.7769 21.6223 18.6846 22.0093 17.3079 22.1944C15.9645 22.375 14.2438 22.375 12.0531 22.375H11.9388C9.74807 22.375 8.0274 22.375 6.68399 22.1944C5.30733 22.0093 4.21508 21.6223 3.35688 20.7641C2.60171 20.0089 2.21021 19.0711 2.00125 17.9142C1.79618 16.7789 1.75687 15.3704 1.74829 13.6287L1.75043 12.1249C1.75216 10.1719 1.76904 7.91102 1.93301 6.69148C2.12182 5.2871 2.52193 4.13329 3.43432 3.2209C4.12412 2.5311 4.95191 2.13412 5.92164 1.89988C6.45849 1.7702 6.96455 2.16331 7.03814 2.71067C7.11173 3.25803 6.72259 3.74584 6.19116 3.89614C5.58693 4.06704 5.17524 4.3084 4.84853 4.63511C4.36968 5.11396 4.07417 5.77537 3.91517 6.95797C3.75952 8.1157 3.75074 10.4233 3.75026 12.5749C3.75022 12.7405 3.88455 12.875 4.05024 12.875L7.42162 12.875C8.70181 12.875 9.55709 13.9148 9.96758 14.7373C10.2578 15.3188 10.8214 15.875 11.996 15.875C13.1706 15.875 13.7341 15.3188 14.0243 14.7373C14.4348 13.9148 15.2901 12.875 16.5703 12.875L19.9502 12.875C20.1159 12.875 20.2502 12.7405 20.2502 12.5749C20.2497 10.4233 20.2408 8.1157 20.0852 6.95797C19.9262 5.77537 19.6307 5.11396 19.1518 4.63511C18.8251 4.3084 18.4134 4.06704 17.8092 3.89614C17.2778 3.74584 16.8886 3.25803 16.9622 2.71067C17.0358 2.16331 17.5419 1.7702 18.0787 1.89988Z" fill="#141B34"/>
<path fill-rule="evenodd" clip-rule="evenodd" d="M13.0042 2.625C13.0042 2.07272 12.5564 1.625 12.0042 1.625C11.4519 1.625 11.0042 2.07272 11.0042 2.625L11.0042 7.12504L10.4099 7.12502C10.2343 7.12489 10.0186 7.12474 9.84216 7.14681L9.83882 7.14723C9.71237 7.163 9.13633 7.23483 8.86197 7.80043C8.58701 8.36725 8.88894 8.86739 8.95426 8.9756L8.9567 8.97963C9.04891 9.13265 9.18306 9.30353 9.2934 9.44408L9.31714 9.47433C9.61177 9.85015 9.99374 10.3344 10.3742 10.7254C10.564 10.9205 10.7813 11.1217 11.0122 11.2806C11.2174 11.4218 11.5676 11.625 11.9983 11.625C12.429 11.625 12.7792 11.4218 12.9844 11.2806C13.2153 11.1217 13.4326 10.9205 13.6224 10.7254C14.0028 10.3344 14.3848 9.85015 14.6794 9.47433L14.7032 9.44409C14.8135 9.30353 14.9477 9.13265 15.0399 8.97963L15.0423 8.97559C15.1076 8.86739 15.4096 8.36725 15.1346 7.80043C14.8603 7.23483 14.2842 7.16299 14.1578 7.14723L14.1544 7.14681C13.978 7.12474 13.7623 7.12489 13.5867 7.12502L13.0042 7.12504L13.0042 2.625Z" fill="#141B34"/>
</svg>
