<svg width="24" height="24" viewBox="0 0 24 24" fill="none" xmlns="http://www.w3.org/2000/svg">
<path d="M17.001 2C17.001 2.41538 17.001 2.62307 17.0409 2.81988C17.0921 3.07226 17.1916 3.31238 17.3338 3.52705C17.4448 3.69445 17.5916 3.84131 17.8853 4.13502L19.8664 6.11612C20.1597 6.40937 20.3063 6.55599 20.4734 6.66681C20.6884 6.80936 20.9289 6.90899 21.1817 6.9602C21.3782 7 21.5856 7 22.0003 7" stroke="#141B34" stroke-width="1.5" stroke-linejoin="round"/>
<path d="M17 12L9.5 19.5L4.5 14.5L12 7" stroke="#141B34" stroke-width="1.5" stroke-linejoin="round"/>
<path d="M10.5 5.5L18.5 13.5" stroke="#141B34" stroke-width="1.5" stroke-linejoin="round"/>
<path d="M7.99986 18.6372L6 20L4 18L5.36268 16" stroke="#141B34" stroke-width="1.5" stroke-linejoin="round"/>
<path d="M13.5 8L18.5 4M16 10.5L20 5.5" stroke="#141B34" stroke-width="1.5" stroke-linejoin="round"/>
<path d="M5 19L2 22" stroke="#141B34" stroke-width="1.5" stroke-linejoin="round"/>
</svg>
