<svg width="24" height="24" viewBox="0 0 24 24" fill="none" xmlns="http://www.w3.org/2000/svg">
<path fill-rule="evenodd" clip-rule="evenodd" d="M9.00886 1.00868C8.75092 0.974402 8.53346 1.04844 8.38542 1.11255C8.24932 1.17148 8.09579 1.25751 7.94684 1.34096L5.9069 2.50062C5.77465 2.59345 5.59596 2.74124 5.49339 2.98039C5.38141 3.24147 5.41754 3.50461 5.44414 3.65681C5.47292 3.82151 5.53264 4.04827 5.58978 4.26526C5.94917 5.63039 5.07129 7.09893 3.65017 7.47686L3.62514 7.48352C3.41013 7.54068 3.20867 7.59423 3.0511 7.6506C2.9037 7.70334 2.65734 7.80233 2.48375 8.02583C2.32421 8.23123 2.28192 8.45633 2.26528 8.61564C2.24992 8.7626 2.24996 8.93839 2.25 9.10942V10.8907C2.24996 11.0617 2.24992 11.2375 2.26528 11.3844C2.28192 11.5437 2.3242 11.7688 2.48373 11.9742C2.65732 12.1977 2.90367 12.2967 3.05106 12.3495C3.20862 12.4058 3.65013 12.5232 3.65013 12.5232C5.07072 12.9011 5.94802 14.3694 5.58842 15.7347C5.58842 15.7347 5.47151 16.1784 5.44271 16.3431C5.41609 16.4953 5.37995 16.7584 5.49191 17.0195C5.59447 17.2587 5.77318 17.4065 5.90544 17.4994L7.94538 18.659L7.94547 18.6591L7.94551 18.6591C8.09441 18.7425 8.24796 18.8285 8.38402 18.8875C8.53208 18.9516 8.74956 19.0256 9.00751 18.9913C9.28793 18.954 9.49578 18.7952 9.61531 18.696C9.74221 18.5907 10.0613 18.2766 10.0613 18.2766C10.5905 17.7558 11.2952 17.4953 12 17.4951C12.7048 17.4953 13.4095 17.7558 13.9387 18.2766C13.9387 18.2766 14.2578 18.5907 14.3847 18.696C14.5042 18.7952 14.7121 18.954 14.9925 18.9913C15.2504 19.0256 15.4679 18.9516 15.616 18.8875C15.752 18.8286 15.9056 18.7425 16.0544 18.6591L16.0545 18.6591L16.0546 18.659L18.0946 17.4994C18.2268 17.4065 18.4055 17.2587 18.5081 17.0195C18.6201 16.7584 18.5839 16.4953 18.5573 16.3431C18.5285 16.1784 18.4116 15.7347 18.4116 15.7347C18.052 14.3694 18.9293 12.9011 20.3499 12.5232C20.3499 12.5232 20.7914 12.4058 20.9489 12.3495C21.0963 12.2967 21.3427 12.1977 21.5163 11.9742C21.6758 11.7688 21.7181 11.5437 21.7347 11.3844C21.7501 11.2375 21.75 11.0617 21.75 10.8907V9.10942C21.75 8.93839 21.7501 8.7626 21.7347 8.61564C21.7181 8.45633 21.6758 8.23123 21.5163 8.02583C21.3427 7.80233 21.0963 7.70334 20.9489 7.6506C20.7914 7.59424 20.5899 7.54069 20.375 7.48355L20.3749 7.48353L20.3749 7.48352L20.3498 7.47686C18.9287 7.09893 18.0508 5.63039 18.4102 4.26526C18.4674 4.04827 18.5271 3.82151 18.5559 3.65681C18.5825 3.50461 18.6186 3.24147 18.5066 2.98039C18.404 2.74124 18.2253 2.59345 18.0931 2.50062L16.0532 1.34096C15.9042 1.25751 15.7507 1.17148 15.6146 1.11255C15.4665 1.04844 15.2491 0.974402 14.9911 1.00868C14.7107 1.04593 14.5029 1.20474 14.3833 1.30389C14.2564 1.40917 13.9373 1.72329 13.9373 1.72329C13.4084 2.24362 12.7043 2.50389 12 2.50408C11.2957 2.50389 10.5916 2.24362 10.0627 1.72329C10.0627 1.72329 9.74356 1.40917 9.61666 1.30389C9.49714 1.20474 9.28927 1.04593 9.00886 1.00868ZM12 13.0625C13.6569 13.0625 15 11.7194 15 10.0625C15 8.40565 13.6569 7.0625 12 7.0625C10.3431 7.0625 9 8.40565 9 10.0625C9 11.7194 10.3431 13.0625 12 13.0625Z" fill="#141B34"/>
<path fill-rule="evenodd" clip-rule="evenodd" d="M2.5001 17C3.05238 17 3.5001 17.4477 3.5001 18C3.5001 18.9944 3.50869 19.2954 3.56824 19.5176C3.75318 20.2078 4.29227 20.7469 4.98246 20.9319C5.20474 20.9914 5.50574 21 6.5001 21H17.5001C18.4944 21 18.7955 20.9914 19.0177 20.9319C19.7079 20.7469 20.247 20.2078 20.4319 19.5176C20.4915 19.2954 20.5001 18.9944 20.5001 18C20.5001 17.4477 20.9478 17 21.5001 17C22.0524 17 22.5001 17.4477 22.5001 18C22.5001 18.0465 22.5001 18.0924 22.5001 18.1376C22.5006 18.933 22.5009 19.5236 22.3638 20.0353C21.9939 21.4156 20.9157 22.4938 19.5354 22.8637C19.0237 23.0008 18.4331 23.0005 17.6377 23C17.5925 23 17.5466 23 17.5001 23H6.5001C6.45356 23 6.40771 23 6.36251 23C5.56713 23.0005 4.97647 23.0008 4.46482 22.8637C3.08445 22.4938 2.00626 21.4156 1.63639 20.0353C1.4993 19.5236 1.49962 18.933 1.50005 18.1376C1.50007 18.0924 1.5001 18.0465 1.5001 18C1.5001 17.4477 1.94781 17 2.5001 17Z" fill="#141B34"/>
</svg>
