<svg width="24" height="24" viewBox="0 0 24 24" fill="none" xmlns="http://www.w3.org/2000/svg">
<path fill-rule="evenodd" clip-rule="evenodd" d="M9.75391 16.6512C9.75391 13.6678 12.1724 11.2494 15.1557 11.2494C18.139 11.2494 20.5574 13.6678 20.5574 16.6512C20.5574 17.7904 20.2048 18.8473 19.6026 19.7186L21.2499 21.3564L19.865 22.7494L18.2119 21.1058C17.3428 21.7032 16.2901 22.0529 15.1557 22.0529C12.1724 22.0529 9.75391 19.6345 9.75391 16.6512ZM15.1557 13.2137C13.2572 13.2137 11.7182 14.7527 11.7182 16.6512C11.7182 18.5496 13.2572 20.0886 15.1557 20.0886C17.0541 20.0886 18.5932 18.5496 18.5932 16.6512C18.5932 14.7527 17.0541 13.2137 15.1557 13.2137Z" fill="#141B34"/>
<path fill-rule="evenodd" clip-rule="evenodd" d="M2.96967 1.47028C3.11032 1.32963 3.30109 1.25061 3.5 1.25061H19.5C19.9142 1.25061 20.25 1.5864 20.25 2.00061V11.9944C18.9881 10.6146 17.1729 9.74915 15.1557 9.74915C11.3439 9.74915 8.25391 12.8392 8.25391 16.6509C8.25391 18.6702 9.12112 20.487 10.5034 21.7491H3.5C3.08579 21.7491 2.75 21.4133 2.75 20.9991V2.00061C2.75 1.8017 2.82902 1.61093 2.96967 1.47028ZM7.5 6.7511H15.5V5.2511H7.5V6.7511ZM7.5 10.7511H9.51145V9.2511H7.5V10.7511Z" fill="#141B34"/>
</svg>
