<svg width="24" height="24" viewBox="0 0 24 24" fill="none" xmlns="http://www.w3.org/2000/svg">
<path opacity="0.4" d="M6.25391 16.0552C6.25389 17.4227 6.25387 18.5251 6.37063 19.3921C6.49186 20.2925 6.75124 21.0504 7.35406 21.6523C7.95672 22.254 8.71541 22.5128 9.61659 22.6337C10.4848 22.7503 11.6984 22.7503 13.0682 22.7502C14.4381 22.7503 15.542 22.7503 16.4102 22.6337C17.3114 22.5128 18.07 22.254 18.6727 21.6523C19.2755 21.0504 19.5349 20.2925 19.6561 19.3921C19.7729 18.5251 19.7729 17.4227 19.7729 16.0552V7.25024C19.7729 6.82051 19.8141 6.53481 19.8963 6.28932C19.9778 6.04606 20.1146 5.79688 20.3664 5.4604L20.3736 5.45094L20.3812 5.44154L20.3833 5.4389C20.4395 5.36999 20.7253 5.01977 20.7907 4.93943C20.9626 4.72811 21.1618 4.472 21.3306 4.19603C21.6306 3.70571 22.0305 2.82645 21.4677 2.00871C21.1293 1.51689 20.5829 1.37143 20.1154 1.3107C19.6496 1.25017 19.0392 1.2502 18.324 1.25023L9.95383 1.25024C9.72601 1.25023 9.40223 1.2497 9.18898 1.25024C7.83256 1.2502 6.71437 1.25017 5.82942 1.36896C4.90059 1.49364 4.08039 1.76542 3.42352 2.42125C2.76644 3.0773 2.49394 3.89685 2.36896 4.82497C2.24994 5.70882 2.24997 6.82553 2.25 8.17954L2.25 10.2502C2.25 10.8025 2.69772 11.2502 3.25 11.2502C3.80229 11.2502 4.25 10.8025 4.25 10.2502V8.25024C4.25 6.80771 4.25214 5.82657 4.35107 5.09188C4.44611 4.38611 4.61364 4.05922 4.83662 3.83658C5.05982 3.61373 5.38787 3.44617 6.0955 3.35118C6.17988 3.33986 6.25391 3.40626 6.25391 3.4914V16.0552Z" fill="#141B34"/>
<path d="M15.25 8C15.25 7.58579 15.5858 7.25 16 7.25H17.8737C18.0622 7.25 18.1565 7.25 18.2151 7.30858C18.2737 7.36716 18.2737 7.46144 18.2737 7.65V8.35C18.2737 8.53856 18.2737 8.63284 18.2151 8.69142C18.1565 8.75 18.0622 8.75 17.8737 8.75H16C15.5858 8.75 15.25 8.41421 15.25 8Z" fill="#141B34"/>
<path d="M15.25 11.3333C15.25 10.9191 15.5858 10.5833 16 10.5833H17.8737C18.0622 10.5833 18.1565 10.5833 18.2151 10.6419C18.2737 10.7005 18.2737 10.7948 18.2737 10.9833V11.6833C18.2737 11.8719 18.2737 11.9662 18.2151 12.0248C18.1565 12.0833 18.0622 12.0833 17.8737 12.0833H16C15.5858 12.0833 15.25 11.7475 15.25 11.3333Z" fill="#141B34"/>
<path d="M15.25 14.6667C15.25 14.2525 15.5858 13.9167 16 13.9167H17.8737C18.0622 13.9167 18.1565 13.9167 18.2151 13.9752C18.2737 14.0338 18.2737 14.1281 18.2737 14.3167V15.0167C18.2737 15.2052 18.2737 15.2995 18.2151 15.3581C18.1565 15.4167 18.0622 15.4167 17.8737 15.4167H16C15.5858 15.4167 15.25 15.0809 15.25 14.6667Z" fill="#141B34"/>
<path d="M15.25 18C15.25 17.5858 15.5858 17.25 16 17.25H17.8694C18.059 17.25 18.1538 17.25 18.2124 17.3092C18.2711 17.3683 18.2703 17.4629 18.2687 17.652C18.2667 17.8915 18.2639 18.1294 18.26 18.3597C18.2569 18.5434 18.2553 18.6352 18.1969 18.6926C18.1386 18.75 18.0463 18.75 17.8616 18.75H16C15.5858 18.75 15.25 18.4142 15.25 18Z" fill="#141B34"/>
</svg>
