<svg width="24" height="24" viewBox="0 0 24 24" fill="none" xmlns="http://www.w3.org/2000/svg">
<path opacity="0.4" d="M12.0005 21.9999C6.47764 21.9999 2.00049 20.6881 2.00049 19.0698C2.00049 17.9194 3.70778 16.9238 7.00049 16.4443L22.0005 19.0698C22.0005 20.6881 17.5233 21.9999 12.0005 21.9999Z" fill="#141B34"/>
<path opacity="0.4" d="M18.7596 8.78604C22.9749 7.69241 23.577 14.2543 17.5552 16.4418L18.7596 8.78604Z" fill="#141B34"/>
<path d="M17.5587 2C16.8178 2.12346 15.4251 2.81481 15.7807 4.59259C16.1363 6.37037 15.6327 7.30864 15.3364 7.55556" stroke="#141B34" stroke-width="1.5" stroke-linecap="round" stroke-linejoin="round"/>
<path d="M13.1133 2C12.3725 2.14815 10.9798 2.97778 11.3354 5.11111C11.691 7.24444 11.1874 7.81482 10.8911 8.11111" stroke="#141B34" stroke-width="1.5" stroke-linecap="round" stroke-linejoin="round"/>
<path d="M6.17432 10.3331C4.96689 10.7407 4.22 11.3039 4.22 11.926C4.22 12.7742 5.60848 13.5129 7.65961 13.8968M7.65961 13.8968C6.89784 14.2823 6.44222 14.7714 6.44222 15.3037C6.44222 16.5473 8.92952 17.5554 11.9978 17.5554C12.7879 17.5554 13.5395 17.4886 14.22 17.3681M7.65961 13.8968C8.6158 14.0758 9.71599 14.1778 10.8867 14.1778C12.5941 14.1778 14.1516 13.9609 15.3311 13.6044M16.4422 10.1242C15.0305 10.5413 13.063 10.8001 10.8867 10.8001C6.59111 10.8001 3.10889 9.7919 3.10889 8.54827C3.10889 7.58798 5.18514 6.76809 8.10888 6.44434" stroke="#141B34" stroke-width="1.5" stroke-linecap="round" stroke-linejoin="round"/>
<path d="M21.9995 19.0698C21.9995 20.6881 17.5223 21.9999 11.9995 21.9999C6.47666 21.9999 1.99951 20.6881 1.99951 19.0698C1.99951 17.9194 3.7068 16.9238 6.99951 16.4443" stroke="#141B34" stroke-width="1.5" stroke-linecap="round"/>
<path d="M18.7586 8.78799C22.9739 7.69436 23.576 14.2562 17.5542 16.4438" stroke="#141B34" stroke-width="1.5" stroke-linecap="round" stroke-linejoin="round"/>
</svg>
