<svg width="24" height="24" viewBox="0 0 24 24" fill="none" xmlns="http://www.w3.org/2000/svg">
<path d="M7.61098 16C7.61098 15.5858 7.27565 15.25 6.862 15.25C6.44835 15.25 6.11302 15.5858 6.11302 16V20.061C6.11302 20.5809 5.95562 20.8704 5.80429 21.0235C5.64927 21.1803 5.43848 21.2582 5.2096 21.2493C4.76839 21.2321 4.24796 20.882 4.24796 20.061C4.24796 19.6468 3.91263 19.311 3.49898 19.311C3.08533 19.311 2.75 19.6468 2.75 20.061C2.75 21.6927 3.91108 22.6999 5.15138 22.7482C5.76326 22.772 6.39323 22.5598 6.86877 22.0788C7.348 21.5941 7.61098 20.8984 7.61098 20.061V16Z" fill="#141B34"/>
<path fill-rule="evenodd" clip-rule="evenodd" d="M11.3981 15.25H12.1668C13.4034 15.25 14.3571 16.2849 14.3571 17.5C14.3571 18.7151 13.4034 19.75 12.1668 19.75H10.9941V22C10.9941 22.4142 10.6587 22.75 10.2451 22.75C9.83144 22.75 9.49611 22.4142 9.49611 22L9.4961 17.1634C9.49603 16.9127 9.49597 16.6578 9.5234 16.4454C9.55459 16.204 9.63266 15.9071 9.87423 15.6557C10.1197 15.4003 10.4164 15.3135 10.6619 15.2792C10.8717 15.2498 11.1594 15.2499 11.3981 15.25ZM12.1667 18.25H10.9939L10.9995 16.7544L12.1667 16.75C12.5221 16.75 12.859 17.0582 12.859 17.5C12.859 17.9417 12.5221 18.25 12.1667 18.25Z" fill="#141B34"/>
<path d="M17.3128 17.0028C17.2847 17.2139 17.2831 17.5083 17.2831 18.0008V20.0008C17.2831 20.4933 17.2847 20.7877 17.3128 20.9988C17.329 21.0674 17.395 21.208 17.53 21.221C17.7382 21.2492 18.029 21.2508 18.5179 21.2508C19.0067 21.2508 19.2975 21.2492 19.5057 21.221C19.6632 21.2066 19.7161 21.0669 19.7229 20.9988C19.7461 20.8246 19.7512 20.5937 19.7523 20.2417C19.6256 20.2133 19.2748 20.2313 19.1152 20.2439C18.7055 20.2998 18.3277 20.0127 18.2717 19.6024C18.2157 19.192 18.5025 18.8138 18.9123 18.7577C19.2297 18.7143 19.5928 18.7168 19.8318 18.7406C20.0559 18.7629 20.3657 18.8172 20.6409 18.9747C20.9534 19.1537 21.2506 19.4929 21.2506 20.0008C21.2506 20.4338 21.2507 20.8749 21.2077 21.1973C21.1604 21.5519 21.0492 21.9272 20.7425 22.2364C20.4351 22.5464 20.0608 22.6594 19.7067 22.7074C19.3858 22.7509 18.9916 22.7509 18.5627 22.7508H18.4731C18.0441 22.7509 17.6499 22.7509 17.3291 22.7074C16.975 22.6594 16.6006 22.5464 16.2932 22.2364C15.9865 21.9272 15.8753 21.5519 15.8281 21.1973C15.7851 20.8749 15.7851 20.4784 15.7852 20.0454V17.9563C15.7851 17.5233 15.7851 17.1267 15.8281 16.8043C15.8753 16.4497 15.9865 16.0744 16.2932 15.7652C16.6006 15.4552 16.975 15.3422 17.3291 15.2942C17.6499 15.2507 18.6573 15.2501 18.6573 15.2501C18.6573 15.2501 19.5654 15.243 20.0134 15.3853C20.2939 15.4743 20.5901 15.6318 20.8247 15.9131C21.0607 16.1961 21.1844 16.5444 21.2218 16.9279C21.2621 17.3401 20.9609 17.707 20.5492 17.7472C20.1375 17.7875 19.7712 17.486 19.731 17.0737C19.7015 16.9374 19.6052 16.8445 19.5608 16.8151C19.4671 16.7854 19.3335 16.765 19.1439 16.756C18.5304 16.7363 17.8123 16.7642 17.53 16.7806C17.4637 16.7868 17.3274 16.84 17.3128 17.0028Z" fill="#141B34"/>
<path opacity="0.4" d="M3.72368 13.75C4.26144 13.75 4.69737 13.3195 4.69737 12.7885L4.69738 11.7652C4.69737 11.4982 4.69754 10.8596 4.97816 10.3875C5.15109 10.0965 5.37251 9.85337 5.59996 9.72955C5.96647 9.53003 6.38666 9.41667 6.83333 9.41667C6.98046 9.41667 7.13864 9.42314 7.31624 9.43138L7.38206 9.43446C7.53697 9.44174 7.70556 9.44966 7.8737 9.45315C8.25379 9.46105 8.69733 9.44904 9.12548 9.33432C9.95945 9.11086 10.6109 8.45945 10.8343 7.62548C10.949 7.19733 10.961 6.75379 10.9532 6.3737C10.9497 6.20562 10.9417 6.03692 10.9345 5.88206L10.9314 5.81624C10.9231 5.63864 10.9167 5.48046 10.9167 5.33333C10.9167 4.86564 11.0409 4.42698 11.2583 4.04857C11.385 3.82798 11.6057 3.62609 11.9105 3.44878C12.3726 3.17987 12.926 3.17738 13.2642 3.17585C13.6023 3.17433 13.9591 3.17316 14.2572 3.17316C16.0914 3.17316 16.7582 3.18692 17.2614 3.36158C18.1337 3.66441 18.7997 4.29659 19.11 5.07103C19.1878 5.26511 19.2427 5.52002 19.2721 5.96153C19.3021 6.41159 19.3026 6.98607 19.3026 7.81394V12.7885C19.3026 13.3195 19.7386 13.75 20.2763 13.75C20.8141 13.75 21.25 13.3195 21.25 12.7885V7.78121C21.25 6.99374 21.25 6.35586 21.2153 5.83514C21.1795 5.29867 21.1039 4.82043 20.9208 4.36341C20.3922 3.04443 19.2841 2.02533 17.9072 1.54735C17.0482 1.24915 16.0155 1.24951 14.4607 1.25005L13.5134 1.25012L13.5 1.25L13.4649 1.25015C10.9565 1.25185 9.40174 1.28168 8.1118 1.72949C5.8915 2.50027 4.11806 4.13859 3.27491 6.24261C2.99393 6.94378 2.86942 7.69695 2.80918 8.60017C2.74999 9.48756 2.75 10.5838 2.75 11.9814V12.7885C2.75 13.3195 3.18593 13.75 3.72368 13.75Z" fill="#141B34"/>
</svg>
