<svg width="24" height="24" viewBox="0 0 24 24" fill="none" xmlns="http://www.w3.org/2000/svg">
<path d="M15.6618 13H14.7126C14.3334 13 14.1437 13 13.9941 13.0634C13.4847 13.2795 13.4916 13.7873 13.4916 14.25C13.4916 14.7127 13.4847 15.2205 13.9941 15.4366C14.1437 15.5 14.3334 15.5 14.7126 15.5C15.0919 15.5 15.2816 15.5 15.4312 15.5634C15.9406 15.7795 15.9337 16.2873 15.9337 16.75C15.9337 17.2127 15.9406 17.7205 15.4312 17.9366C15.2816 18 15.0919 18 14.7126 18H13.6789M11 13V16.5C11 17.3284 10.3284 18 9.5 18C8.67157 18 8 17.3284 8 16.5V16M21 18L19.5 15.5M19.5 15.5L18 13M19.5 15.5L21 13M19.5 15.5L18 18" stroke="#141B34" stroke-width="1.5" stroke-linecap="square" stroke-linejoin="round"/>
<path d="M20 10V2H10L3 9L3 22.0025H19.9297M10 2.56414V9H3.56742" stroke="#141B34" stroke-width="1.5"/>
</svg>
