<svg width="24" height="24" viewBox="0 0 24 24" fill="none" xmlns="http://www.w3.org/2000/svg">
<path fill-rule="evenodd" clip-rule="evenodd" d="M1.25 21.25H22.75V22.75H1.25V21.25Z" fill="#141B34"/>
<path d="M11.2441 22.75H2.24496L2.24457 13.5849L7.60932 12.7596L7.38124 11.277L2.24451 12.0672L2.2444 9.55339L11.2441 7.91719V10.417L9.58279 10.7862L9.90815 12.2504L11.2441 11.9536V22.75Z" fill="#141B34"/>
<path d="M2.24434 8.02881L2.24414 3.41482L11.9949 1.25L21.7449 3.41482V8.02835L11.9963 6.25586L2.24434 8.02881Z" fill="#141B34"/>
<path d="M21.7449 9.55294L12.7441 7.91643V10.4163L14.4084 10.7862L14.083 12.2504L12.7441 11.9529V22.75H21.7449V13.5847L16.3816 12.7596L16.6097 11.277L21.7449 12.067V9.55294Z" fill="#141B34"/>
</svg>
