<svg width="24" height="24" viewBox="0 0 24 24" fill="none" xmlns="http://www.w3.org/2000/svg">
<path d="M2 21H18L18 17C18 12.5817 14.4183 9 10 9C5.58172 9 2 12.5817 2 17V21Z" stroke="#141B34" stroke-width="1.5" stroke-linejoin="round"/>
<path d="M8 9V8C8 6.89543 8.89543 6 10 6C11.1046 6 12 6.89543 12 8V9" stroke="#141B34" stroke-width="1.5" stroke-linejoin="round"/>
<path d="M18 17C19.1046 17 20 16.1045 20 15V10.9999L22 11" stroke="#141B34" stroke-width="1.5" stroke-linejoin="round"/>
<path d="M16 11.5V9C16 5.68629 13.3137 3 10 3C6.68629 3 4 5.68629 4 9V11.5" stroke="#141B34" stroke-width="1.5" stroke-linejoin="round"/>
<path d="M2 17H12" stroke="#141B34" stroke-width="1.5" stroke-linejoin="round"/>
</svg>
