<svg width="24" height="24" viewBox="0 0 24 24" fill="none" xmlns="http://www.w3.org/2000/svg">
<path d="M12 4.25C11.2061 4.25 10.5389 4.57977 9.87727 5.08454C9.24226 5.56903 8.53195 6.27937 7.65686 7.15449L7.61084 7.20051C7.41084 7.40051 7.31084 7.50051 7.31084 7.62478C7.31084 7.74904 7.41084 7.84904 7.61084 8.04904L11.5767 12.0149C11.7767 12.2149 11.8767 12.3149 12.001 12.3149C12.1252 12.3149 12.2252 12.2149 12.4252 12.0149L16.3901 8.04995C16.5901 7.84995 16.6901 7.74995 16.6901 7.62568C16.6901 7.50142 16.5901 7.40142 16.3901 7.20142L16.3432 7.15451C15.4681 6.27938 14.7577 5.56904 14.1227 5.08454C13.4611 4.57977 12.7939 4.25 12 4.25Z" fill="#141B34"/>
<path d="M17.4507 9.11062C17.6507 8.91061 17.7507 8.81061 17.875 8.81061C17.9993 8.81061 18.0993 8.91061 18.2993 9.11061L18.3455 9.15686C19.2206 10.0319 19.931 10.7423 20.4155 11.3773C20.9202 12.0389 21.25 12.7061 21.25 13.5C21.25 14.2939 20.9202 14.9611 20.4155 15.6227C19.931 16.2577 19.2206 16.968 18.3455 17.8431L18.2995 17.8892C18.0995 18.0892 17.9995 18.1892 17.8752 18.1892C17.751 18.1892 17.651 18.0892 17.451 17.8892L13.4859 13.9241C13.2859 13.7241 13.1859 13.6241 13.1859 13.4998C13.1859 13.3756 13.2859 13.2756 13.4859 13.0756L17.4507 9.11062Z" fill="#141B34"/>
<path d="M16.3903 19.7984C16.5903 19.5984 16.6903 19.4984 16.6903 19.3741C16.6903 19.2498 16.5903 19.1498 16.3903 18.9498L12.4253 14.9848C12.2252 14.7848 12.1252 14.6848 12.001 14.6848C11.8767 14.6848 11.7767 14.7848 11.5767 14.9848L7.61075 18.9509C7.41076 19.1509 7.31076 19.2509 7.31076 19.3752C7.31076 19.4994 7.41076 19.5994 7.61076 19.7994L7.65686 19.8455C8.53195 20.7206 9.24226 21.431 9.87727 21.9155C10.5389 22.4202 11.2061 22.75 12 22.75C12.7939 22.75 13.4611 22.4202 14.1227 21.9155C14.7577 21.431 15.468 20.7206 16.3431 19.8455L16.3903 19.7984Z" fill="#141B34"/>
<path d="M5.70157 17.8902C5.90157 18.0902 6.00158 18.1902 6.12584 18.1902C6.25011 18.1902 6.35011 18.0902 6.55011 17.8902L10.5161 13.9241C10.7161 13.7241 10.8161 13.6241 10.8161 13.4998C10.8161 13.3756 10.7161 13.2756 10.5161 13.0756L6.55018 9.1097C6.35018 8.9097 6.25018 8.8097 6.12591 8.8097C6.00165 8.8097 5.90165 8.9097 5.70165 9.1097L5.65449 9.15685C4.77938 10.0319 4.06903 10.7423 3.58453 11.3773C3.07977 12.0389 2.75 12.7061 2.75 13.5C2.75 14.2939 3.07977 14.9611 3.58453 15.6227C4.06904 16.2577 4.77938 16.9681 5.6545 17.8432L5.70157 17.8902Z" fill="#141B34"/>
<path fill-rule="evenodd" clip-rule="evenodd" d="M15.7482 1.92543C15.7894 2.33759 15.4887 2.70512 15.0766 2.74633C14.1105 2.84294 13.5488 3.29047 13.2131 3.76234C12.8545 4.26633 12.752 4.80401 12.752 5.00006C12.752 5.37512 12.4749 5.69253 12.1032 5.74318C11.7316 5.79384 11.3797 5.56217 11.2793 5.20079C11.198 4.90816 10.6475 3.95006 9.00195 3.95006C8.58774 3.95006 8.25195 3.61427 8.25195 3.20006C8.25195 2.78584 8.58774 2.45006 9.00195 2.45006C10.2218 2.45006 11.1093 2.83712 11.7164 3.33637C11.7959 3.18748 11.8871 3.03863 11.9908 2.89277C12.5551 2.09965 13.4934 1.39717 14.9273 1.25378C15.3395 1.21256 15.707 1.51327 15.7482 1.92543Z" fill="#141B34"/>
</svg>
