<svg width="24" height="24" viewBox="0 0 24 24" fill="none" xmlns="http://www.w3.org/2000/svg">
<path opacity="0.4" d="M11.9986 22C10.8706 22 9.96284 21.0923 8.14737 19.2768L7.18457 18.3135L11.9986 13.4995L7.1848 8.68578L8.14737 7.72321L8.14737 7.7232C9.96284 5.90773 10.8706 5 11.9986 5C13.1266 5 14.0343 5.90774 15.8498 7.72321L16.8123 8.68578L11.9986 13.4995L16.8126 18.3135L15.8498 19.2768C14.0343 21.0923 13.1266 22 11.9986 22Z" fill="#141B34"/>
<path d="M17.7748 9.6488L15.8492 7.72321C14.0338 5.90774 13.126 5 11.998 5C10.8701 5 9.96232 5.90774 8.14685 7.72321L6.22125 9.6488C4.40578 11.4643 3.49805 12.372 3.49805 13.5C3.49805 14.628 4.40578 15.5357 6.22125 17.3512L8.14685 19.2768C9.96232 21.0923 10.8701 22 11.998 22C13.126 22 14.0338 21.0923 15.8492 19.2768L17.7748 17.3512C19.5903 15.5357 20.498 14.628 20.498 13.5C20.498 12.372 19.5903 11.4643 17.7748 9.6488Z" stroke="#141B34" stroke-width="1.5" stroke-linecap="round" stroke-linejoin="round"/>
<path d="M16.748 8.75L11.998 13.5M11.998 13.5L7.24805 18.25M11.998 13.5L7.24805 8.75M11.998 13.5L16.748 18.25" stroke="#141B34" stroke-width="1.5" stroke-linecap="round" stroke-linejoin="round"/>
<path d="M15 2C12.6 2.24 12 4.3 12 5C11.8333 4.4 11 3.2 9 3.2" stroke="#141B34" stroke-width="1.5" stroke-linecap="round" stroke-linejoin="round"/>
</svg>
