<svg width="24" height="24" viewBox="0 0 24 24" fill="none" xmlns="http://www.w3.org/2000/svg">
<path d="M16.5002 18.5586L12.0005 14.0589L7.5003 18.5591L11.4697 22.5285C11.7626 22.8214 12.2374 22.8214 12.5303 22.5285L16.5002 18.5586Z" fill="#141B34"/>
<path d="M21.0303 12.9678L17.061 8.99847L13.0612 12.9982L17.5609 17.4979L21.0303 14.0285C21.3232 13.7356 21.3232 13.2607 21.0303 12.9678Z" fill="#141B34"/>
<path d="M11.0957 4.8418L8.00024 7.93726L12.0005 11.9376L16.0003 7.93781L12.7886 4.7261C12.8429 4.46972 12.9684 4.10721 13.215 3.76064C13.5507 3.28876 14.1125 2.84124 15.0785 2.74463L14.9293 1.25208C13.4953 1.39547 12.5571 2.09794 11.9928 2.89107C11.889 3.03693 11.7979 3.18578 11.7183 3.33466C11.1113 2.83542 10.2238 2.44835 9.00391 2.44835V3.94835C10.1983 3.94835 10.8158 4.45312 11.0957 4.8418Z" fill="#141B34"/>
<path d="M2.96967 14.0285L6.43964 17.4985L10.9399 12.9982L6.93958 8.99792L2.96967 12.9678C2.67678 13.2607 2.67678 13.7356 2.96967 14.0285Z" fill="#141B34"/>
</svg>
