<svg width="24" height="24" viewBox="0 0 24 24" fill="none" xmlns="http://www.w3.org/2000/svg">
<path opacity="0.4" d="M15.904 2.81529C16.3081 2.49512 16.7601 2.25012 17.3204 2.25012C17.9206 2.25012 18.55 2.59348 19.0615 2.94973C19.6118 3.33294 20.183 3.84496 20.699 4.38563C21.2158 4.92711 21.6961 5.51726 22.0578 6.06736C22.2386 6.34229 22.397 6.61819 22.5154 6.88148C22.6295 7.13509 22.7281 7.42344 22.7458 7.7117C22.775 8.18853 22.6507 8.59077 22.4412 8.97905C22.254 9.32622 21.9771 9.69809 21.6695 10.1114L21.6695 10.1114C20.4405 11.7627 18.4214 14.2475 15.6192 17.2906L15.6192 17.2907C15.1485 17.8018 14.7433 18.242 14.3707 18.5481C13.9705 18.877 13.5209 19.1264 12.9564 19.1329C12.1219 19.1426 11.4623 18.6397 11.0089 18.2052C10.7701 17.9763 10.5508 17.7287 10.3602 17.5089C10.2113 17.3364 9.97403 17.0619 9.85424 16.9375C9.29927 16.3611 9.08217 16.34 9.04674 16.3429C9.01913 16.3451 8.80125 16.3925 8.34277 17.0883L6.05291 20.564C5.12842 21.9672 3.17892 22.1636 2.00959 20.9492C0.996803 19.8974 0.996804 18.2035 2.00959 17.1517L14.6199 4.05561L14.6199 4.0556C15.1074 3.5493 15.525 3.11559 15.904 2.81529Z" fill="#141B34"/>
<path fill-rule="evenodd" clip-rule="evenodd" d="M17 8.00012C17 7.44784 17.4457 7.00012 17.9955 7.00012H18.0045C18.5543 7.00012 19 7.44784 19 8.00012C19 8.55241 18.5543 9.00012 18.0045 9.00012H17.9955C17.4457 9.00012 17 8.55241 17 8.00012Z" fill="#141B34"/>
</svg>
