<svg width="24" height="24" viewBox="0 0 24 24" fill="none" xmlns="http://www.w3.org/2000/svg">
<path d="M19.3888 4.13392L18.9473 3.98438L4.79712 18.1431L5.22182 18.6677C6.48863 20.2326 8.15179 21.4875 10.1942 22.3129L10.2288 22.3269C10.8421 22.5749 11.2755 22.7501 12.0016 22.7501C12.7277 22.7501 13.1611 22.5749 13.7744 22.3269L13.809 22.3129C20.0953 19.7722 22.6382 13.2691 21.4755 6.43717L21.4682 6.39414C21.4199 6.1115 21.3752 5.84984 21.317 5.63448C21.2534 5.39929 21.1572 5.15116 20.9669 4.92797C20.7708 4.69796 20.5044 4.5604 20.2805 4.4623C20.0433 4.35842 19.7408 4.25312 19.3888 4.13392Z" fill="#141B34"/>
<path opacity="0.4" d="M19.3886 4.13384C19.3047 4.10541 19.2162 4.07563 19.1238 4.04451L19.1228 4.04418C18.4071 3.80327 17.757 3.42491 17.0176 2.99465C16.7136 2.81771 16.3945 2.63199 16.0495 2.44344C14.9179 1.82496 13.6102 1.25 11.9983 1.25C10.3865 1.25 9.07927 1.82495 7.94824 2.44345C7.60335 2.63206 7.28434 2.81782 6.98042 2.99479C6.24181 3.42488 5.59184 3.80324 4.87677 4.04414L4.85089 4.05285C4.42871 4.19503 4.07564 4.31393 3.80749 4.42485C3.55366 4.52984 3.24828 4.67545 3.03291 4.92811C2.84267 5.15129 2.74648 5.3994 2.68289 5.63457C2.62466 5.84993 2.58 6.11152 2.53174 6.39415L2.52667 6.42385C1.74162 11.0197 2.62527 15.4604 5.22161 18.6676L5.74595 19.3153L20.5315 4.52091L19.3886 4.13384Z" fill="#141B34"/>
</svg>
