<svg width="24" height="24" viewBox="0 0 24 24" fill="none" xmlns="http://www.w3.org/2000/svg">
<path fill-rule="evenodd" clip-rule="evenodd" d="M10.165 1.82675L9.8737 1.25L4.76257 2.94265C4.50095 3.02929 4.30836 3.25143 4.2611 3.52107L2.2611 14.9323C2.22316 15.1487 2.28353 15.3707 2.42604 15.5389C2.56854 15.707 2.77862 15.804 3.00001 15.804H6.02542L5.2558 21.9135C5.22911 22.1253 5.29538 22.3383 5.43775 22.4983C5.58012 22.6583 5.78488 22.75 6.00001 22.75H18C18.2151 22.75 18.4199 22.6583 18.5623 22.4983C18.7046 22.3383 18.7709 22.1253 18.7442 21.9135L17.9746 15.804H21C21.2214 15.804 21.4315 15.707 21.574 15.5389C21.7165 15.3707 21.7768 15.1487 21.7389 14.9323L19.7389 3.52107C19.6917 3.25143 19.4991 3.02929 19.2374 2.94265L14.1263 1.25L13.835 1.82675C13.6003 2.29163 13.208 2.61195 12.75 2.77625V9H11.25V2.77624C10.792 2.61195 10.3997 2.29163 10.165 1.82675ZM6.39932 12.8276L6.21185 14.3158H3.89062L4.15145 12.8276H6.39932ZM17.5985 12.8276H19.8464L20.1072 14.3158H17.786L17.5985 12.8276Z" fill="#141B34"/>
</svg>
