<svg width="24" height="24" viewBox="0 0 24 24" fill="none" xmlns="http://www.w3.org/2000/svg">
<path opacity="0.4" d="M5 12.0001C4.44772 12.0001 4 12.4478 4 13.0001C4 13.5524 4.44772 14.0001 5 14.0001H19C19.5523 14.0001 20 13.5524 20 13.0001C20 12.4478 19.5523 12.0001 19 12.0001H18.9291C18.4439 8.60783 15.5265 6.00012 12 6.00012C8.47353 6.00012 5.55612 8.60783 5.07089 12.0001H5Z" fill="#141B34"/>
<path opacity="0.4" fill-rule="evenodd" clip-rule="evenodd" d="M9.80006 18.4001C10.1314 18.8419 10.0419 19.4687 9.60006 19.8001L7.60006 21.3001C7.15823 21.6314 6.53143 21.5419 6.20006 21.1001C5.86869 20.6582 5.95823 20.0314 6.40006 19.7001L8.40006 18.2001C8.84189 17.8687 9.46869 17.9582 9.80006 18.4001ZM14.2 18.4001C14.5314 17.9582 15.1582 17.8687 15.6 18.2L17.6 19.6999C18.0419 20.0313 18.1314 20.6581 17.8001 21.0999C17.4687 21.5417 16.8419 21.6313 16.4001 21.3L14.4001 19.8001C13.9582 19.4687 13.8687 18.8419 14.2 18.4001ZM12.0003 19.0001C12.5525 19.0001 13.0003 19.4478 13.0003 20.0001V22.0001C13.0003 22.5523 12.5525 23.0001 12.0003 23.0001C11.448 23.0001 11.0003 22.5523 11.0003 22.0001V20.0001C11.0003 19.4478 11.448 19.0001 12.0003 19.0001Z" fill="#141B34"/>
<path d="M8.125 14C8.56913 15.7251 10.1352 16.9998 11.9989 16.9998C13.8627 16.9998 15.4287 15.7251 15.8728 14H13.7312C13.3854 14.5977 12.7391 14.9998 11.9989 14.9998C11.2587 14.9998 10.6125 14.5977 10.2666 14H8.125Z" fill="#141B34"/>
<path d="M11 6.07101V1.99988C11 1.44759 11.4477 0.999878 12 0.999878C12.5523 0.999878 13 1.44759 13 1.99988V6.07101C12.6734 6.02429 12.3395 6.00012 12 6.00012C11.6605 6.00012 11.3266 6.02429 11 6.07101Z" fill="#141B34"/>
</svg>
