<svg width="24" height="24" viewBox="0 0 24 24" fill="none" xmlns="http://www.w3.org/2000/svg">
<path opacity="0.4" d="M12.4089 1.25C12.9492 1.24999 13.4061 1.24997 13.7822 1.28535C14.1799 1.32274 14.5515 1.40395 14.9039 1.60494C15.2619 1.80918 15.5116 2.08651 15.7259 2.40997C15.9228 2.70695 16.1146 3.08309 16.3334 3.51207L16.3334 3.5121L17.7715 6.33156C18.1355 7.04515 18.4504 7.66235 18.6134 8.17067C18.7871 8.71234 18.8549 9.33462 18.4442 9.89492C18.0564 10.4241 17.4552 10.5991 16.8739 10.6751C16.3008 10.7501 15.5494 10.75 14.6476 10.75H9.35205C8.45021 10.75 7.69883 10.7501 7.12576 10.6751C6.54443 10.5991 5.94323 10.4241 5.5554 9.89492C5.14477 9.33462 5.21252 8.71234 5.38621 8.17067C5.54921 7.66235 5.86408 7.04516 6.22813 6.33157L6.25732 6.27434L7.64893 3.54605L7.66626 3.51207L7.66627 3.51206C7.88504 3.08308 8.07687 2.70695 8.27367 2.40996C8.48801 2.08651 8.7377 1.80918 9.09574 1.60494C9.44808 1.40395 9.81975 1.32274 10.2174 1.28535C10.5936 1.24997 11.0504 1.24999 11.5907 1.25H11.5907H12.4089H12.4089Z" fill="#141B34"/>
<path opacity="0.4" d="M12.0347 18.25C12.4485 18.25 12.8114 18.25 13.113 18.2793C13.4377 18.3109 13.755 18.3809 14.0593 18.5596C14.1807 18.6308 14.2951 18.7133 14.401 18.8059C14.6667 19.0381 14.8335 19.317 14.9662 19.615C15.0894 19.8919 15.2041 20.2361 15.335 20.6287L15.335 20.6287L15.3455 20.6602L15.5421 21.25H8.46094L8.65754 20.6602L8.66802 20.6287C8.79887 20.2361 8.91359 19.8919 9.03686 19.615C9.1695 19.317 9.33627 19.0381 9.60197 18.8059C9.70792 18.7133 9.82232 18.6308 9.94368 18.5596C10.248 18.3809 10.5653 18.3109 10.89 18.2793C11.1917 18.25 11.5545 18.25 11.9683 18.25H11.9683H12.0347H12.0347Z" fill="#141B34"/>
<path d="M8 21.25H16C16.4142 21.25 16.75 21.5858 16.75 22C16.75 22.4142 16.4142 22.75 16 22.75H8C7.58579 22.75 7.25 22.4142 7.25 22C7.25 21.5858 7.58579 21.25 8 21.25Z" fill="#141B34"/>
<path d="M14.5 10.7486H14.6476C15.3649 10.7486 15.9871 10.7486 16.5 10.7109V12.9986C16.5 13.5509 16.0523 13.9986 15.5 13.9986C14.9477 13.9986 14.5 13.5509 14.5 12.9986V10.7486Z" fill="#141B34"/>
<path d="M13 18.27C12.7217 18.25 12.397 18.25 12.0328 18.25H11.9664C11.6026 18.25 11.2781 18.25 11 18.2699V10.75H13V18.27Z" fill="#141B34"/>
</svg>
