<svg width="24" height="24" viewBox="0 0 24 24" fill="none" xmlns="http://www.w3.org/2000/svg">
<path fill-rule="evenodd" clip-rule="evenodd" d="M5.25293 16.6894L3.97262 17.9697C3.75812 18.1842 3.69396 18.5068 3.81004 18.7871C3.92613 19.0673 4.1996 19.2501 4.50295 19.2501H5.49422C6.45112 21.3697 8.60776 22.75 10.9977 22.75H13.0082C15.3981 22.75 17.5547 21.3697 18.5116 19.2501L19.503 19.2501C19.8063 19.2501 20.0798 19.0673 20.1959 18.7871C20.3119 18.5068 20.2478 18.1842 20.0333 17.9697L18.7529 16.6894V9.31068L20.0333 8.03033C20.2478 7.81583 20.3119 7.49324 20.1959 7.21299C20.0798 6.93273 19.8063 6.75 19.503 6.75H18.5117C17.5548 4.63036 15.3981 3.25 13.0082 3.25H13.0029V1.25H11.0029V3.25H10.9977C8.60774 3.25 6.45108 4.63037 5.4942 6.75H4.50295C4.1996 6.75 3.92613 6.93273 3.81004 7.21299C3.69396 7.49324 3.75812 7.81583 3.97262 8.03033L5.25293 9.31064V16.6894ZM16.8002 19.25H7.20215C8.01674 20.4712 9.43027 21.25 10.9959 21.25H13.0064C14.572 21.25 15.9856 20.4712 16.8002 19.25ZM7.20215 6.75C8.01674 5.52877 9.43027 4.75 10.9959 4.75H13.0064C14.572 4.75 15.9856 5.52877 16.8002 6.75H7.20215ZM11.0029 11V15H13.0029V11H11.0029Z" fill="#141B34"/>
<path fill-rule="evenodd" clip-rule="evenodd" d="M22.5 10.5304L21.0043 12.0304L19.9467 10.9697L21.4424 9.46973L22.5 10.5304ZM21.4424 16.5304L19.9467 15.0304L21.0043 13.9697L22.5 15.4697L21.4424 16.5304Z" fill="#141B34"/>
<path fill-rule="evenodd" clip-rule="evenodd" d="M2.55761 9.46973L4.05328 10.9697L2.99568 12.0304L1.5 10.5304L2.55761 9.46973ZM1.5 15.4697L2.99568 13.9697L4.05328 15.0304L2.55761 16.5304L1.5 15.4697Z" fill="#141B34"/>
</svg>
