<svg width="24" height="24" viewBox="0 0 24 24" fill="none" xmlns="http://www.w3.org/2000/svg">
<path d="M21.8177 17.25H2.18283L0.910363 19.3935C0.902701 19.4065 0.895427 19.4196 0.888553 19.4329C0.443179 20.2975 1.10916 21.25 2.01603 21.25H21.9844C22.8913 21.25 23.5573 20.2975 23.1119 19.4329C23.1051 19.4196 23.0978 19.4065 23.0901 19.3935L21.8177 17.25Z" fill="#141B34"/>
<path opacity="0.4" d="M15.5538 2.75H8.44643C7.31362 2.74998 6.38786 2.74996 5.65701 2.84822C4.89306 2.95093 4.23072 3.17321 3.70203 3.70191C3.17333 4.2306 2.95105 4.89294 2.84834 5.65689C2.75008 6.38774 2.7501 7.31345 2.75012 8.44627V15.75H21.2501V8.44632C21.2501 7.31351 21.2502 6.38774 21.1519 5.65689C21.0492 4.89294 20.8269 4.2306 20.2982 3.70191C19.7695 3.17321 19.1072 2.95093 18.3432 2.84822C17.6124 2.74996 16.6867 2.74998 15.5538 2.75Z" fill="#141B34"/>
<path d="M9.74963 7.3976C9.74963 6.65488 10.3352 6 11.1213 6C11.385 6 11.641 6.07731 11.86 6.2199L14.5696 7.98397C15.0007 8.26459 15.2496 8.74615 15.2496 9.25C15.2496 9.75385 15.0007 10.2354 14.5696 10.516L11.86 12.2801C11.641 12.4227 11.385 12.5 11.1213 12.5C10.3352 12.5 9.74963 11.8451 9.74963 11.1024V7.3976Z" fill="#141B34"/>
</svg>
