<svg width="24" height="24" viewBox="0 0 24 24" fill="none" xmlns="http://www.w3.org/2000/svg">
<path d="M2.28648 17.25H21.7135L23.1708 20.1646C23.2871 20.3971 23.2746 20.6732 23.138 20.8943C23.0013 21.1154 22.7599 21.25 22.5 21.25H1.5C1.24007 21.25 0.998668 21.1154 0.862013 20.8943C0.725358 20.6732 0.712935 20.3971 0.82918 20.1646L2.28648 17.25Z" fill="#141B34"/>
<path d="M19 2.75C20.2426 2.75 21.25 3.75736 21.25 5V15.75H2.75V5C2.75 3.75736 3.75736 2.75 5 2.75H19ZM14.707 6.54297C14.3165 6.15244 13.6835 6.15244 13.293 6.54297L12 7.83594L10.707 6.54297C10.3165 6.15244 9.68349 6.15244 9.29297 6.54297C8.90244 6.93349 8.90244 7.56651 9.29297 7.95703L10.5859 9.25L9.29297 10.543C8.90244 10.9335 8.90244 11.5665 9.29297 11.957C9.68349 12.3476 10.3165 12.3476 10.707 11.957L12 10.6641L13.293 11.957C13.6835 12.3476 14.3165 12.3476 14.707 11.957C15.0976 11.5665 15.0976 10.9335 14.707 10.543L13.4141 9.25L14.707 7.95703C15.0976 7.56651 15.0976 6.93349 14.707 6.54297Z" fill="#141B34"/>
</svg>
