<svg width="24" height="24" viewBox="0 0 24 24" fill="none" xmlns="http://www.w3.org/2000/svg">
<path d="M21.8177 17.25H2.18283L0.910363 19.3935C0.902701 19.4065 0.895427 19.4196 0.888553 19.4329C0.443179 20.2975 1.10916 21.25 2.01603 21.25H21.9844C22.8913 21.25 23.5573 20.2975 23.1119 19.4329C23.1051 19.4196 23.0978 19.4065 23.0901 19.3935L21.8177 17.25Z" fill="#141B34"/>
<path d="M15.5538 2.75C16.6865 2.74998 17.6121 2.75041 18.3429 2.84863C19.1068 2.95134 19.7693 3.17346 20.298 3.70215C20.8267 4.23084 21.0488 4.89328 21.1515 5.65723C21.2497 6.38803 21.2501 7.31363 21.2501 8.44629V15.75H2.75012V8.44629C2.7501 7.31362 2.75053 6.38804 2.84876 5.65723C2.95147 4.89328 3.17358 4.23084 3.70227 3.70215C4.23096 3.17346 4.8934 2.95134 5.65735 2.84863C6.38815 2.75041 7.31375 2.74998 8.44641 2.75H15.5538ZM12.0001 4.75C11.4479 4.7501 11.0001 5.19778 11.0001 5.75V6.4209C10.6533 6.54358 10.3354 6.72799 10.0607 6.96094L9.50403 6.63574C9.02708 6.35774 8.41511 6.51928 8.13684 6.99609C7.85856 7.47315 8.01916 8.08598 8.49622 8.36426L9.05286 8.68848C9.01829 8.87063 9.00012 9.05839 9.00012 9.25C9.00012 9.44161 9.01829 9.62937 9.05286 9.81152L8.49622 10.1357C8.01916 10.414 7.85856 11.0269 8.13684 11.5039C8.41511 11.9807 9.02708 12.1423 9.50403 11.8643L10.0607 11.5391C10.3354 11.772 10.6533 11.9564 11.0001 12.0791V12.75C11.0001 13.3022 11.4479 13.7499 12.0001 13.75C12.5524 13.75 13.0001 13.3023 13.0001 12.75V12.0791C13.347 11.9564 13.6648 11.772 13.9396 11.5391L14.4962 11.8643C14.9733 12.1425 15.5861 11.9809 15.8644 11.5039C16.1426 11.0269 15.981 10.414 15.504 10.1357L14.9474 9.81152C14.982 9.62936 15.0001 9.44163 15.0001 9.25C15.0001 9.05837 14.982 8.87065 14.9474 8.68848L15.504 8.36426C15.981 8.086 16.1426 7.47313 15.8644 6.99609C15.5861 6.51906 14.9733 6.35751 14.4962 6.63574L13.9396 6.96094C13.6648 6.72796 13.347 6.54357 13.0001 6.4209V5.75C13.0001 5.19772 12.5524 4.75001 12.0001 4.75ZM12.0001 8.25C12.3674 8.25 12.6894 8.44774 12.8644 8.74707C12.9503 8.89405 13.0001 9.06459 13.0001 9.25C13.0001 9.43541 12.9503 9.60595 12.8644 9.75293C12.6894 10.0523 12.3674 10.25 12.0001 10.25C11.6329 10.2499 11.3108 10.0522 11.1359 9.75293C11.05 9.60598 11.0001 9.43535 11.0001 9.25C11.0001 9.06465 11.05 8.89402 11.1359 8.74707C11.3108 8.44779 11.6329 8.25006 12.0001 8.25Z" fill="#141B34"/>
</svg>
