<svg width="24" height="24" viewBox="0 0 24 24" fill="none" xmlns="http://www.w3.org/2000/svg">
<path d="M21.8177 17.25H2.18283L0.910363 19.3935C0.902701 19.4065 0.895427 19.4196 0.888553 19.4329C0.443179 20.2975 1.10916 21.25 2.01603 21.25H21.9844C22.8913 21.25 23.5573 20.2975 23.1119 19.4329C23.1051 19.4196 23.0978 19.4065 23.0901 19.3935L21.8177 17.25Z" fill="#141B34"/>
<path d="M15.5538 2.75C16.6865 2.74998 17.6121 2.75041 18.3429 2.84863C19.1068 2.95134 19.7693 3.17346 20.298 3.70215C20.8267 4.23084 21.0488 4.89328 21.1515 5.65723C21.2497 6.38803 21.2501 7.31363 21.2501 8.44629V15.75H2.75012V8.44629C2.7501 7.31362 2.75053 6.38804 2.84876 5.65723C2.95147 4.89328 3.17358 4.23084 3.70227 3.70215C4.23096 3.17346 4.8934 2.95134 5.65735 2.84863C6.38815 2.75041 7.31375 2.74998 8.44641 2.75H15.5538ZM12.0001 5.75C11.4478 5.75 11.0001 6.19772 11.0001 6.75V8.25H9.50012C8.94784 8.25 8.50012 8.69772 8.50012 9.25C8.50012 9.80229 8.94784 10.25 9.50012 10.25H11.0001V11.75C11.0001 12.3023 11.4478 12.75 12.0001 12.75C12.5524 12.75 13.0001 12.3023 13.0001 11.75V10.25H14.5001C15.0524 10.25 15.5001 9.80229 15.5001 9.25C15.5001 8.69772 15.0524 8.25 14.5001 8.25H13.0001V6.75C13.0001 6.19772 12.5524 5.75 12.0001 5.75Z" fill="#141B34"/>
</svg>
