<svg width="24" height="24" viewBox="0 0 24 24" fill="none" xmlns="http://www.w3.org/2000/svg">
<path opacity="0.4" fill-rule="evenodd" clip-rule="evenodd" d="M17.2575 3.62511C15.3523 2.90117 12.8995 2.76232 10.3664 3.43991C7.83334 4.11751 5.77906 5.46197 4.49203 7.03947C3.20397 8.61823 2.72898 10.3598 3.14968 11.9272C3.5091 13.2663 4.26652 14.2275 5.38217 14.8193C6.52344 15.4247 8.12836 15.6885 10.2267 15.4276C10.7748 15.3595 11.2743 15.7486 11.3424 16.2966C11.4105 16.8447 11.0215 17.3442 10.4734 17.4124C8.1099 17.7061 6.05812 17.4418 4.44496 16.5861C2.80619 15.7168 1.71144 14.2839 1.21805 12.4457C0.588606 10.1005 1.36244 7.71163 2.94236 5.77514C4.52331 3.83738 6.95619 2.28182 9.84962 1.50784C12.7431 0.733856 15.6288 0.86672 17.9679 1.75552C20.3053 2.64368 22.1715 4.32572 22.8009 6.6706C23.2985 8.52436 22.8173 10.3161 21.8743 11.9154C20.9371 13.5049 19.5039 14.9783 17.9398 16.2802C17.5153 16.6335 16.8847 16.5758 16.5314 16.1513C16.1781 15.7268 16.2358 15.0962 16.6603 14.7429C18.1374 13.5136 19.3783 12.2108 20.1515 10.8995C20.919 9.59796 21.1847 8.36446 20.8693 7.18906C20.4485 5.62141 19.1644 4.34969 17.2575 3.62511Z" fill="#141B34"/>
<path fill-rule="evenodd" clip-rule="evenodd" d="M11.4418 14.604C11.0655 14.8967 10.9718 15.1738 10.9965 15.4075C11.0016 15.4564 11.0251 15.5852 11.3387 15.7391C11.6653 15.8995 12.1833 16.0116 12.8413 16.0116C13.9068 16.0116 15.101 15.7203 16.0292 15.1839C15.3984 14.2535 14.2771 13.8913 13.1207 14.002C12.428 14.0683 11.8271 14.3042 11.4418 14.604ZM16.4764 17.2045C15.3102 17.7522 13.9952 18.0116 12.8413 18.0116C11.9973 18.0116 11.1484 17.8738 10.4572 17.5344C9.75299 17.1887 9.10779 16.5679 9.00749 15.6173C8.88996 14.5034 9.46443 13.6084 10.2136 13.0254C10.9538 12.4496 11.9357 12.1063 12.9301 12.0111C14.9069 11.8219 17.3521 12.6127 18.245 15.1844C18.25 15.1988 18.2546 15.2133 18.2589 15.2278C19.2654 18.6181 16.9714 22.3382 13.1234 22.9869C12.5788 23.0787 12.0629 22.7117 11.9711 22.1671C11.8793 21.6225 12.2463 21.1066 12.7909 21.0147C14.9433 20.6519 16.3126 18.9688 16.4764 17.2045Z" fill="#141B34"/>
</svg>
