<svg width="24" height="24" viewBox="0 0 24 24" fill="none" xmlns="http://www.w3.org/2000/svg">
<path fill-rule="evenodd" clip-rule="evenodd" d="M12.9926 4.93324C13.3056 5.20453 13.3395 5.67819 13.0682 5.99121C10.0418 9.4832 10.1617 13.2772 11.6095 16.2326C12.3394 17.7226 13.4053 18.9906 14.5705 19.8805C15.7442 20.7769 16.964 21.25 18.0014 21.25C18.4156 21.25 18.7514 21.5858 18.7514 22C18.7514 22.4142 18.4156 22.75 18.0014 22.75C16.5349 22.75 15.0027 22.0981 13.66 21.0726C12.3088 20.0406 11.094 18.59 10.2624 16.8925C8.5872 13.4728 8.46103 9.01683 11.9346 5.00881C12.2059 4.6958 12.6796 4.66196 12.9926 4.93324Z" fill="#141B34"/>
<path d="M14.5744 20.812C14.5345 20.8558 14.4088 20.9944 14.3376 21.065C14.1958 21.2055 13.9911 21.3926 13.7355 21.5822C13.2382 21.9511 12.4764 22.3831 11.5683 22.4138C10.6602 22.4444 9.87095 22.0648 9.34995 21.7304C9.08215 21.5584 8.86526 21.3856 8.71435 21.255C8.63851 21.1893 8.50408 21.0599 8.46136 21.0189C8.19687 20.7429 8.18195 20.311 8.4272 20.0178C8.46706 19.974 8.59277 19.8354 8.66401 19.7648C8.80577 19.6243 9.01049 19.4372 9.26608 19.2476C9.76333 18.8787 10.5252 18.4467 11.4333 18.4161C12.3414 18.3854 13.1306 18.765 13.6516 19.0995C13.9194 19.2714 14.1363 19.4442 14.2872 19.5748C14.3586 19.6366 14.4823 19.7554 14.5322 19.8032L14.5406 19.8113C14.8051 20.0873 14.8196 20.5188 14.5744 20.812Z" fill="#141B34"/>
<path d="M16.2823 15.3302C16.6597 15.2694 17.0225 15.5022 17.1244 15.8706C17.1378 15.9283 17.1806 16.1109 17.1982 16.2097C17.2333 16.4061 17.2709 16.6809 17.2818 16.999C17.3028 17.6177 17.2254 18.4901 16.7347 19.2548C16.244 20.0195 15.4832 20.4534 14.9119 20.6921C14.6183 20.8147 14.0148 20.9691 13.8216 21.0191C13.4442 21.0799 13.0803 20.8468 12.9784 20.4784C12.965 20.4207 12.9223 20.2385 12.9047 20.1397C12.8696 19.9433 12.832 19.6685 12.8212 19.3504C12.8001 18.7317 12.8775 17.8593 13.3682 17.0946C13.8589 16.3299 14.6197 15.896 15.191 15.6573C15.4846 15.5347 15.7501 15.4544 15.9433 15.4044C16.0404 15.3793 16.2243 15.3421 16.2823 15.3302Z" fill="#141B34"/>
<path d="M7.5502 4.38468C7.71855 4.04146 8.11811 3.87979 8.47777 4.00937C8.53257 4.03176 8.70639 4.10236 8.79717 4.145C8.97782 4.22986 9.22386 4.35784 9.48973 4.53274C10.007 4.87298 10.6744 5.44002 11.0152 6.28231C11.356 7.12461 11.2707 7.99623 11.1356 8.60043C11.0661 8.911 10.9783 9.17407 10.9075 9.36067C10.8719 9.45444 10.7963 9.62563 10.7725 9.67982C10.6041 10.023 10.2034 10.1848 9.84378 10.0552L9.8336 10.0511C9.77004 10.0251 9.61104 9.9602 9.52531 9.91992C9.34466 9.83506 9.09862 9.70708 8.83274 9.53219C8.31549 9.19194 7.64805 8.6249 7.30725 7.78261C6.96644 6.94032 7.05178 6.06869 7.1869 5.46449C7.25635 5.15392 7.34417 4.89085 7.41498 4.70425C7.45056 4.61048 7.52639 4.43888 7.5502 4.38468Z" fill="#141B34"/>
<path d="M15.8137 8.69813C15.7803 8.74699 15.675 8.90166 15.6142 8.98143C15.4932 9.14016 15.3163 9.35375 15.0893 9.57685C14.6478 10.0109 13.953 10.544 13.0578 10.6999C12.1627 10.8557 11.3286 10.5888 10.7663 10.3295C10.4773 10.1963 10.2387 10.055 10.0711 9.94654C9.98696 9.89201 9.83593 9.78236 9.78796 9.74768C9.48787 9.51085 9.41342 9.08521 9.6158 8.76089C9.64922 8.71203 9.75458 8.55736 9.81538 8.47759C9.93636 8.31885 10.1133 8.10527 10.3402 7.88217C10.7817 7.44813 11.4766 6.91501 12.3717 6.75915C13.2669 6.60329 14.101 6.8702 14.6632 7.12948C14.9522 7.26275 15.1909 7.40397 15.3584 7.51248C15.4426 7.56701 15.594 7.67697 15.642 7.71165C15.9421 7.94848 16.0161 8.37381 15.8137 8.69813Z" fill="#141B34"/>
<path d="M7.01943 11.2269C7.63676 11.274 8.49533 11.4468 9.20147 12.0187C9.9076 12.5905 10.2551 13.3944 10.4296 13.9884C10.5192 14.2937 10.5698 14.5664 10.5983 14.764C10.6126 14.8633 10.6293 15.0491 10.6347 15.1081C10.6537 15.4899 10.382 15.8259 10.0046 15.8868C9.9458 15.8937 9.76 15.9161 9.65992 15.9227C9.46078 15.936 9.18353 15.9432 8.86621 15.919C8.24888 15.8718 7.39031 15.699 6.68418 15.1272C5.97804 14.5554 5.63052 13.7515 5.45607 13.1575C5.3664 12.8521 5.31581 12.5794 5.28738 12.3819C5.27309 12.2826 5.25636 12.0967 5.25093 12.0378C5.23198 11.656 5.50365 11.32 5.88106 11.2591C5.93985 11.2522 6.12565 11.2298 6.22572 11.2231C6.42487 11.2099 6.70211 11.2027 7.01943 11.2269Z" fill="#141B34"/>
<path d="M15.4667 12.4556C15.4544 12.5135 15.4159 12.6967 15.3901 12.7936C15.3388 12.9865 15.2566 13.2514 15.1318 13.5441C14.8891 14.1137 14.4499 14.8714 13.6817 15.3567C12.9135 15.842 12.0406 15.9131 11.422 15.8877C11.1041 15.8746 10.8296 15.835 10.6333 15.7986C10.5347 15.7802 10.3533 15.7364 10.2957 15.7227C9.92804 15.6181 9.69698 15.2529 9.76047 14.876C9.77275 14.8181 9.8112 14.6349 9.83701 14.538C9.88836 14.3451 9.97051 14.0802 10.0953 13.7875C10.338 13.2179 10.7772 12.4602 11.5454 11.9749C12.3136 11.4897 13.1865 11.4185 13.8051 11.4439C14.1231 11.457 14.3976 11.4966 14.5938 11.533C14.6875 11.5505 14.8549 11.5906 14.9208 11.6064L14.9303 11.6086L14.9319 11.6091C15.2996 11.7137 15.5302 12.0787 15.4667 12.4556Z" fill="#141B34"/>
<path d="M16.7439 1.95817C16.7449 2.01673 16.7484 2.20203 16.745 2.3011C16.7381 2.49822 16.7174 2.77149 16.6615 3.08103C16.5529 3.68328 16.2955 4.51061 15.6584 5.14804C15.0219 5.78482 14.1927 6.0456 13.5892 6.15749C13.2788 6.21504 13.0046 6.23753 12.8067 6.24576C12.7073 6.24989 12.5221 6.24781 12.4634 6.24727C12.0816 6.22772 11.7746 5.92365 11.752 5.54205L11.7519 5.5404C11.751 5.48184 11.7476 5.29818 11.751 5.19912C11.7579 5.002 11.7786 4.72873 11.8344 4.41919C11.9431 3.81693 12.2004 2.9896 12.8376 2.35217C13.474 1.71539 14.3033 1.45461 14.9068 1.34272C15.2172 1.28517 15.4914 1.26268 15.6893 1.25446C15.7887 1.25032 15.9744 1.25243 16.0331 1.25298C16.4149 1.27252 16.7213 1.57656 16.7439 1.95817Z" fill="#141B34"/>
</svg>
