<svg width="24" height="24" viewBox="0 0 24 24" fill="none" xmlns="http://www.w3.org/2000/svg">
<path d="M12.5015 5.5C6.00149 13 12.9936 22 18.0015 22" stroke="#141B34" stroke-width="1.5" stroke-linecap="round" stroke-linejoin="round"/>
<path d="M11.543 21.6642C12.9229 21.6176 13.9993 20.3305 13.9993 20.3305C13.9993 20.3305 12.8385 19.119 11.4586 19.1656C10.0786 19.2122 9.0022 20.4993 9.0022 20.4993C9.0022 20.4993 10.163 21.7108 11.543 21.6642Z" stroke="#141B34" stroke-width="1.5" stroke-linejoin="round"/>
<path d="M16.1035 18.8497C16.8492 17.6877 16.4016 16.0706 16.4016 16.0706C16.4016 16.0706 14.7451 16.3375 13.9994 17.4995C13.2538 18.6616 13.7013 20.2787 13.7013 20.2787C13.7013 20.2787 15.3578 20.0117 16.1035 18.8497Z" stroke="#141B34" stroke-width="1.5" stroke-linejoin="round"/>
<path d="M8.0025 7.50117C8.52037 8.78109 10.0989 9.34982 10.0989 9.34982C10.0989 9.34982 10.8379 7.8434 10.32 6.56349C9.80211 5.28358 8.22356 4.71484 8.22356 4.71484C8.22356 4.71484 7.48463 6.22126 8.0025 7.50117Z" stroke="#141B34" stroke-width="1.5" stroke-linejoin="round"/>
<path d="M12.9293 9.96093C14.2896 9.72409 15.1778 8.30063 15.1778 8.30063C15.1778 8.30063 13.8607 7.26115 12.5005 7.49798C11.1402 7.73482 10.252 9.15829 10.252 9.15829C10.252 9.15829 11.5691 10.1978 12.9293 9.96093Z" stroke="#141B34" stroke-width="1.5" stroke-linejoin="round"/>
<path d="M8.72951 12.6015C7.6565 11.7326 6 11.9996 6 11.9996C6 11.9996 6.08319 13.6755 7.15621 14.5444C8.22922 15.4133 9.88572 15.1462 9.88572 15.1462C9.88572 15.1462 9.80253 13.4704 8.72951 12.6015Z" stroke="#141B34" stroke-width="1.5" stroke-linejoin="round"/>
<path d="M11.946 12.609C10.7787 13.3464 10.5 15.001 10.5 15.001C10.5 15.001 12.1139 15.46 13.2812 14.7226C14.4485 13.9852 14.7272 12.3306 14.7272 12.3306C14.7272 12.3306 13.1133 11.8716 11.946 12.609Z" stroke="#141B34" stroke-width="1.5" stroke-linejoin="round"/>
<path d="M13.3681 2.88226C12.4031 3.84771 12.5008 5.49809 12.5008 5.49809C12.5008 5.49809 14.163 5.58318 15.128 4.61774C16.093 3.65229 15.9953 2.00191 15.9953 2.00191C15.9953 2.00191 14.333 1.91682 13.3681 2.88226Z" stroke="#141B34" stroke-width="1.5" stroke-linejoin="round"/>
</svg>
