<svg width="24" height="24" viewBox="0 0 24 24" fill="none" xmlns="http://www.w3.org/2000/svg">
<path opacity="0.3" d="M12 2C6.47715 2 2 6.47715 2 12C2 15.0413 3.35767 17.7655 5.5 19.5996L8.6439 16.2028L12.2976 12.2552L15.6863 8.59404L19.075 4.93284C17.265 3.1209 14.7634 2 12 2Z" fill="#141B34"/>
<path opacity="0.3" d="M15.1308 21.5006L8.64355 16.2035L12.2973 12.2559L19.5992 18.5006C18.4247 19.8726 16.885 20.9228 15.1308 21.5006Z" fill="#141B34"/>
<path opacity="0.3" d="M22.0002 12.0008C22.0002 9.24132 20.8825 6.74293 19.0752 4.93359L15.6865 8.5948L21.861 13.6731C21.9526 13.1293 22.0002 12.5706 22.0002 12.0008Z" fill="#141B34"/>
<path d="M22 12C22 17.5228 17.5228 22 12 22C6.47715 22 2 17.5228 2 12C2 6.47715 6.47715 2 12 2C17.5228 2 22 6.47715 22 12Z" stroke="#141B34" stroke-width="1.5"/>
<path d="M5 20L19 5" stroke="#141B34" stroke-width="1.5" stroke-linejoin="round"/>
<path d="M16 9L22 13.8528M12.4128 12.4059L19.3601 18.3634M8 15.6672L15 21.5" stroke="#141B34" stroke-width="1.5" stroke-linejoin="round"/>
</svg>
