<svg width="24" height="24" viewBox="0 0 24 24" fill="none" xmlns="http://www.w3.org/2000/svg">
<path fill-rule="evenodd" clip-rule="evenodd" d="M1.68259 6.65459C1.64656 6.92255 1.62855 7.05653 1.67166 7.17319C1.71284 7.28463 1.80144 7.38594 1.9064 7.44161C2.01628 7.49988 2.15905 7.49988 2.44458 7.49988L21.5549 7.49988C21.8405 7.49988 21.9832 7.49988 22.0931 7.44161C22.1981 7.38594 22.2867 7.28463 22.3279 7.1732C22.371 7.05653 22.353 6.92255 22.3169 6.65459C22.1281 5.25021 21.728 4.09641 20.8156 3.18401C19.9032 2.27162 18.7494 1.87152 17.3451 1.6827C15.9849 1.49984 14.2502 1.49985 12.0742 1.49988L11.9253 1.49988C9.74935 1.49985 8.01462 1.49984 6.65447 1.6827C5.25009 1.87152 4.09629 2.27162 3.1839 3.18401C2.27151 4.09641 1.8714 5.25021 1.68259 6.65459ZM22.3169 17.3452C22.353 17.0772 22.371 16.9432 22.3279 16.8266C22.2867 16.7151 22.1981 16.6138 22.0931 16.5582C21.9832 16.4999 21.8405 16.4999 21.5549 16.4999L2.44458 16.4999C2.15905 16.4999 2.01628 16.4999 1.9064 16.5582C1.80144 16.6138 1.71284 16.7151 1.67166 16.8266C1.62855 16.9432 1.64656 17.0772 1.68259 17.3452C1.8714 18.7495 2.27151 19.9034 3.1839 20.8157C4.09629 21.7281 5.2501 22.1282 6.65447 22.3171C8.01461 22.4999 9.74934 22.4999 11.9253 22.4999H12.0742C14.2502 22.4999 15.9849 22.4999 17.3451 22.3171C18.7494 22.1282 19.9032 21.7281 20.8156 20.8157C21.728 19.9034 22.1281 18.7495 22.3169 17.3452Z" fill="#141B34"/>
<path fill-rule="evenodd" clip-rule="evenodd" d="M1.5 11.9254V12.0743C1.5 12.5783 1.49999 13.0587 1.50226 13.5161C1.50455 13.9779 1.50569 14.2087 1.65199 14.3543C1.79828 14.4999 2.03081 14.4999 2.49587 14.4999L21.5041 14.4999C21.9692 14.4999 22.2017 14.4999 22.348 14.3543C22.4943 14.2087 22.4955 13.9779 22.4977 13.5161C22.5 13.0586 22.5 12.5783 22.5 12.0743V11.9255C22.5 11.4214 22.5 10.9411 22.4977 10.4836C22.4955 10.0219 22.4943 9.79102 22.348 9.64545C22.2017 9.49988 21.9692 9.49988 21.5041 9.49988L2.49587 9.49988C2.03081 9.49988 1.79828 9.49988 1.65198 9.64545C1.50569 9.79102 1.50455 10.0219 1.50226 10.4836C1.49999 10.9411 1.5 11.4214 1.5 11.9254Z" fill="#141B34"/>
</svg>
