<svg width="24" height="24" viewBox="0 0 24 24" fill="none" xmlns="http://www.w3.org/2000/svg">
<g opacity="0.4">
<path d="M21.5 12C21.5 7.52161 21.5 5.28244 20.1088 3.8912C19.1401 2.92253 17.7604 2.62831 15.5 2.53894V21.461C17.7604 21.3716 19.1401 21.0774 20.1088 20.1087C21.5 18.7175 21.5 16.4783 21.5 12Z" fill="#141B34"/>
<path d="M8.5 21.461V2.53894C6.23963 2.62831 4.85991 2.92253 3.89124 3.8912C2.5 5.28244 2.5 7.52161 2.5 12C2.5 16.4783 2.5 18.7175 3.89124 20.1087C4.85991 21.0774 6.23963 21.3716 8.5 21.461Z" fill="#141B34"/>
</g>
<path d="M20.1088 3.89124C21.5 5.28249 21.5 7.52166 21.5 12C21.5 16.4783 21.5 18.7175 20.1088 20.1088C18.7175 21.5 16.4783 21.5 12 21.5C7.52166 21.5 5.28249 21.5 3.89124 20.1088C2.5 18.7175 2.5 16.4783 2.5 12C2.5 7.52166 2.5 5.28249 3.89124 3.89124C5.28249 2.5 7.52166 2.5 12 2.5C16.4783 2.5 18.7175 2.5 20.1088 3.89124Z" stroke="#141B34" stroke-width="1.5" stroke-linecap="round" stroke-linejoin="round"/>
<path d="M8.5 2.5V21.5" stroke="#141B34" stroke-width="1.5"/>
<path d="M15.5 2.5V21.5" stroke="#141B34" stroke-width="1.5"/>
</svg>
