<svg width="24" height="24" viewBox="0 0 24 24" fill="none" xmlns="http://www.w3.org/2000/svg">
<path fill-rule="evenodd" clip-rule="evenodd" d="M6.67018 15.349C5.81838 15.7475 5.09405 16.2065 4.48952 16.7373C3.22323 17.849 2.53492 19.2292 2.26032 20.8768C2.19223 21.2853 2.46824 21.6717 2.87682 21.7398C3.2854 21.8079 3.67182 21.5319 3.73991 21.1233C3.96532 19.7709 4.50596 18.7189 5.47915 17.8645C5.97537 17.4288 6.59669 17.0335 7.36981 16.678C7.21626 16.4681 7.08154 16.2562 6.97698 16.0501C6.86199 15.8234 6.75943 15.5894 6.67018 15.349Z" fill="#141B34"/>
<path fill-rule="evenodd" clip-rule="evenodd" d="M20.7242 2.80504C20.6546 2.54646 20.4524 2.34461 20.1937 2.27546C19.935 2.2063 19.659 2.28033 19.4697 2.46969C19.3431 2.59622 19.2123 2.73232 19.0749 2.8752C17.9142 4.08222 16.2887 5.77259 12.8939 6.25756C9.13938 6.79392 6.25 9.30622 6.25 13C6.25 13.8251 6.39836 14.6168 6.67014 15.3489C7.57319 14.9264 8.61951 14.572 9.81821 14.2723C12.8083 13.5248 14.9202 11.5955 16.3924 9.56034C16.6352 9.22474 17.1041 9.14949 17.4397 9.39226C17.7753 9.63504 17.8506 10.1039 17.6078 10.4395C16.0067 12.6527 13.6254 14.8667 10.182 15.7276C9.07383 16.0046 8.14539 16.3212 7.36974 16.6779C7.59177 16.9813 7.85319 17.2804 8.11979 17.5512C8.57349 18.012 9.09828 18.4477 9.57135 18.7214C10.4206 19.2126 11.7222 19.75 13 19.75C15.1621 19.75 18.0547 18.9402 19.9239 16.3094C21.7943 13.677 22.5033 9.413 20.7242 2.80504Z" fill="#141B34"/>
</svg>
