<svg width="24" height="24" viewBox="0 0 24 24" fill="none" xmlns="http://www.w3.org/2000/svg">
<path d="M21.5 2.50003C21.5 2.09557 21.2564 1.73093 20.8827 1.57615C20.509 1.42137 20.0789 1.50692 19.7929 1.79292L1.79292 19.7929C1.50692 20.0789 1.42137 20.509 1.57615 20.8827C1.73093 21.2564 2.09557 21.5 2.50003 21.5H8.50003V19.5H4.91424L19.5 4.91424V8.50003H21.5V2.50003Z" fill="#141B34"/>
<path d="M22.5 10.5H19.5V14.5H15.5C14.9477 14.5 14.5 14.9477 14.5 15.5V19.5H10.5V22.5H12.5V21.5H20.5C21.0523 21.5 21.5 21.0523 21.5 20.5V12.5H22.5V10.5Z" fill="#141B34"/>
</svg>
