<svg width="24" height="24" viewBox="0 0 24 24" fill="none" xmlns="http://www.w3.org/2000/svg">
<path d="M15.7819 6.72595C15.6861 6.904 15.5782 7.07988 15.4655 7.25H16C16.4142 7.25 16.75 7.58579 16.75 8C16.75 8.41421 16.4142 8.75 16 8.75H13.9883H13.9716H10.0284H10.0117H8C7.58579 8.75 7.25 8.41421 7.25 8C7.25 7.58579 7.58579 7.25 8 7.25H8.53452C8.42182 7.07988 8.31386 6.904 8.21806 6.72595C7.85172 6.04507 7.56216 5.15942 7.89786 4.22317C8.02768 3.86109 8.30286 3.5081 8.57698 3.21562C8.86719 2.90597 9.22336 2.59419 9.59599 2.31621C9.96821 2.03853 10.3735 1.78217 10.7662 1.59176C11.1392 1.41094 11.5802 1.25 12 1.25C12.4198 1.25 12.8608 1.41094 13.2338 1.59176C13.6265 1.78217 14.0318 2.03853 14.404 2.31621C14.7766 2.59419 15.1328 2.90597 15.423 3.21562C15.6971 3.5081 15.9723 3.86109 16.1021 4.22318C16.4378 5.15942 16.1483 6.04507 15.7819 6.72595Z" fill="#141B34"/>
<path fill-rule="evenodd" clip-rule="evenodd" d="M4.25 22C4.25 21.5858 4.58579 21.25 5 21.25H19C19.4142 21.25 19.75 21.5858 19.75 22C19.75 22.4142 19.4142 22.75 19 22.75H5C4.58579 22.75 4.25 22.4142 4.25 22Z" fill="#141B34"/>
<path fill-rule="evenodd" clip-rule="evenodd" d="M21.7277 6.81828C21.8281 7.22012 21.5838 7.62732 21.182 7.72778L19.182 8.22778C18.7801 8.32825 18.3729 8.08393 18.2724 7.68208C18.172 7.28023 18.4163 6.87303 18.8182 6.77257L20.8182 6.27257C21.22 6.17211 21.6272 6.41643 21.7277 6.81828ZM18.2724 10.3183C18.3729 9.91643 18.7801 9.67211 19.182 9.77257L21.182 10.2726C21.5838 10.373 21.8281 10.7802 21.7277 11.1821C21.6272 11.5839 21.22 11.8282 20.8182 11.7278L18.8182 11.2278C18.4163 11.1273 18.172 10.7201 18.2724 10.3183Z" fill="#141B34"/>
<path fill-rule="evenodd" clip-rule="evenodd" d="M2.27245 6.81828C2.37291 6.41643 2.78011 6.17211 3.18196 6.27257L5.18196 6.77257C5.5838 6.87303 5.82812 7.28023 5.72766 7.68208C5.6272 8.08393 5.22 8.32825 4.81815 8.22778L2.81815 7.72778C2.41631 7.62732 2.17199 7.22012 2.27245 6.81828ZM5.72766 10.3183C5.82812 10.7201 5.5838 11.1273 5.18196 11.2278L3.18196 11.7278C2.78011 11.8282 2.37291 11.5839 2.27245 11.1821C2.17199 10.7802 2.41631 10.373 2.81815 10.2726L4.81815 9.77257C5.22 9.67211 5.6272 9.91643 5.72766 10.3183Z" fill="#141B34"/>
<g opacity="0.4">
<path d="M8.63205 10C8.48671 10 8.36227 10.1042 8.33672 10.2473L7.95412 12.3898C7.93223 12.5124 8.02648 12.625 8.15101 12.625H15.8488C15.9733 12.625 16.0675 12.5124 16.0456 12.3898L15.663 10.2473C15.6375 10.1042 15.5131 10 15.3677 10H8.63205Z" fill="#141B34"/>
<path d="M16.3849 14.2898C16.3679 14.1945 16.2849 14.125 16.188 14.125H7.81172C7.71482 14.125 7.63187 14.1945 7.61483 14.2898L7.23983 16.3898C7.21794 16.5124 7.31219 16.625 7.43672 16.625H16.563C16.6876 16.625 16.7818 16.5124 16.7599 16.3898L16.3849 14.2898Z" fill="#141B34"/>
<path d="M17.0992 18.2898C17.0822 18.1945 16.9992 18.125 16.9023 18.125H7.09743C7.00054 18.125 6.91758 18.1945 6.90055 18.2898L6.26156 21.8682C6.22254 22.0867 6.28233 22.3113 6.42483 22.4815C6.56733 22.6517 6.7779 22.75 6.99988 22.75H16.9999C17.2219 22.75 17.4324 22.6517 17.5749 22.4815C17.7174 22.3113 17.7772 22.0867 17.7382 21.8682L17.0992 18.2898Z" fill="#141B34"/>
</g>
</svg>
