<svg width="24" height="24" viewBox="0 0 24 24" fill="none" xmlns="http://www.w3.org/2000/svg">
<path d="M13.7001 4.8126C13.9734 4.69333 14.2915 4.74736 14.5101 4.9502L21.5101 11.4447C21.663 11.5865 21.7499 11.7856 21.75 11.9942C21.7501 12.2027 21.6633 12.4019 21.5106 12.5439L14.5106 19.0494C14.292 19.2525 13.9739 19.3068 13.7004 19.1876C13.4268 19.0684 13.25 18.7984 13.25 18.5V15.75H12C9.64662 15.75 8.61578 15.7568 7.65242 16.0354C7.46565 16.0895 7.28114 16.151 7.09932 16.2198C6.16146 16.5749 5.3327 17.188 3.45 18.6C3.22274 18.7705 2.91868 18.7979 2.66459 18.6708C2.4105 18.5438 2.25 18.2841 2.25 18V17.9719C2.25 16.5979 2.25 15.5283 2.30883 14.666C2.36853 13.7911 2.49129 13.0748 2.76381 12.4169C3.4489 10.763 4.76295 9.44891 6.41689 8.76383C7.07482 8.49131 7.79108 8.36854 8.66601 8.30885C9.52832 8.25001 10.5978 8.25001 11.9718 8.25002H13.25V5.50002C13.25 5.20177 13.4267 4.93187 13.7001 4.8126Z" fill="#141B34"/>
</svg>
