<svg width="24" height="24" viewBox="0 0 24 24" fill="none" xmlns="http://www.w3.org/2000/svg">
<path opacity="0.4" d="M3.75 9.5869C3.75 5.01857 7.52225 1.25 12 1.25C16.4778 1.25 20.25 5.01857 20.25 9.5869C20.25 14.2513 16.4018 17.4121 13.1696 19.4294L13.1583 19.4365L13.1467 19.4431C12.7978 19.644 12.4026 19.75 12 19.75C11.5974 19.75 11.2022 19.644 10.8533 19.4431L10.84 19.4355L10.8271 19.4273C7.60753 17.3945 3.75 14.2671 3.75 9.5869Z" fill="#141B34"/>
<path d="M8.5 9.5C8.5 7.567 10.067 6 12 6C13.933 6 15.5 7.567 15.5 9.5C15.5 11.433 13.933 13 12 13C10.067 13 8.5 11.433 8.5 9.5Z" fill="#141B34"/>
<path d="M5.73044 17.742C6.01107 18.2177 5.85295 18.8308 5.37728 19.1114C5.22047 19.204 5.11929 19.2836 5.0574 19.3431C5.0911 19.3751 5.13953 19.4159 5.20842 19.4649C5.48893 19.6645 5.95964 19.8853 6.63132 20.0874C7.96201 20.4879 9.86037 20.7502 12 20.7502C14.1396 20.7502 16.038 20.4879 17.3687 20.0874C18.0404 19.8853 18.5111 19.6645 18.7916 19.4649C18.8605 19.4159 18.9089 19.3751 18.9426 19.3431C18.8807 19.2836 18.7795 19.204 18.6227 19.1114C18.147 18.8308 17.9889 18.2177 18.2696 17.742C18.5502 17.2664 19.1633 17.1082 19.639 17.3889C20.2582 17.7542 21 18.3844 21 19.3426C21 20.1584 20.4547 20.7362 19.9511 21.0946C19.4219 21.471 18.7211 21.769 17.945 22.0026C16.3803 22.4735 14.2787 22.7502 12 22.7502C9.72135 22.7502 7.61972 22.4735 6.05497 22.0026C5.27894 21.769 4.57807 21.471 4.04894 21.0946C3.54526 20.7362 3 20.1584 3 19.3426C3 18.3844 3.7418 17.7542 4.36103 17.3889C4.8367 17.1082 5.44981 17.2664 5.73044 17.742Z" fill="#141B34"/>
</svg>
