<svg width="24" height="24" viewBox="0 0 24 24" fill="none" xmlns="http://www.w3.org/2000/svg">
<path fill-rule="evenodd" clip-rule="evenodd" d="M9.18554 2.45052C9.21287 3.00213 8.78787 3.47146 8.23626 3.4988C6.16429 3.60148 5.1994 3.90811 4.55374 4.55377C3.90808 5.19943 3.60145 6.16432 3.49877 8.23629C3.47143 8.7879 3.0021 9.21291 2.45049 9.18557C1.89889 9.15823 1.47388 8.6889 1.50122 8.1373C1.60666 6.00982 1.92264 4.35645 3.13953 3.13956C4.35642 1.92267 6.00979 1.60669 8.13726 1.50125C8.68887 1.47391 9.1582 1.89892 9.18554 2.45052ZM14.8144 2.45052C14.8418 1.89892 15.3111 1.47391 15.8627 1.50125C17.9902 1.60669 19.6436 1.92267 20.8605 3.13956C22.0773 4.35645 22.3933 6.00982 22.4988 8.1373C22.5261 8.6889 22.1011 9.15823 21.5495 9.18557C20.9979 9.21291 20.5286 8.7879 20.5012 8.23629C20.3985 6.16432 20.0919 5.19943 19.4462 4.55377C18.8006 3.90811 17.8357 3.60148 15.7637 3.4988C15.2121 3.47146 14.7871 3.00213 14.8144 2.45052ZM2.45049 14.8145C3.0021 14.7871 3.47143 15.2121 3.49877 15.7638C3.60145 17.8357 3.90808 18.8006 4.55374 19.4463C5.1994 20.0919 6.16429 20.3986 8.23626 20.5012C8.78786 20.5286 9.21287 20.9979 9.18553 21.5495C9.15819 22.1011 8.68886 22.5261 8.13726 22.4988C6.00979 22.3934 4.35642 22.0774 3.13953 20.8605C1.92264 19.6436 1.60666 17.9902 1.50122 15.8628C1.47388 15.3111 1.89888 14.8418 2.45049 14.8145ZM21.5495 14.8145C22.1011 14.8418 22.5261 15.3111 22.4988 15.8628C22.3933 17.9902 22.0773 19.6436 20.8605 20.8605C19.6436 22.0774 17.9902 22.3934 15.8627 22.4988C15.3111 22.5261 14.8418 22.1011 14.8144 21.5495C14.7871 20.9979 15.2121 20.5286 15.7637 20.5012C17.8357 20.3986 18.8006 20.0919 19.4462 19.4463C20.0919 18.8006 20.3985 17.8357 20.5012 15.7638C20.5286 15.2121 20.9979 14.7871 21.5495 14.8145Z" fill="#141B34"/>
<path fill-rule="evenodd" clip-rule="evenodd" d="M8.49997 10.0276V9.25C8.49997 7.317 10.067 5.75 12 5.75C13.933 5.75 15.5 7.317 15.5 9.25V10.0276C16.3374 10.3914 16.9607 11.1611 17.092 12.0945C17.1761 12.6922 17.25 13.3346 17.25 14C17.25 14.6654 17.1761 15.3078 17.092 15.9055C16.9137 17.1732 15.8279 18.1388 14.5306 18.1959C13.7225 18.2315 12.902 18.25 12 18.25C11.0979 18.25 10.2775 18.2315 9.4693 18.1959C8.17202 18.1388 7.08623 17.1732 6.90792 15.9055C6.82386 15.3078 6.74997 14.6654 6.74997 14C6.74997 13.3346 6.82386 12.6922 6.90792 12.0945C7.03921 11.1611 7.66251 10.3914 8.49997 10.0276ZM10.5 9.25C10.5 8.42157 11.1715 7.75 12 7.75C12.8284 7.75 13.5 8.42157 13.5 9.25V9.76838C13.0184 9.75622 12.5229 9.75 12 9.75C11.477 9.75 10.9815 9.75622 10.5 9.76838V9.25Z" fill="#141B34"/>
</svg>
