<svg width="24" height="24" viewBox="0 0 24 24" fill="none" xmlns="http://www.w3.org/2000/svg">
<path fill-rule="evenodd" clip-rule="evenodd" d="M12.6933 4.68459C12.5168 4.15511 11.941 3.87259 11.4143 4.05696L5.3393 6.18319C4.53713 6.46395 4 7.22102 4 8.07091L4 15.814C4 16.6639 4.53713 17.421 5.3393 17.7017L11.4143 19.828C11.941 20.0123 12.5168 19.7298 12.6933 19.2003L13.0513 18.1262C13.226 17.6023 13.7923 17.3191 14.3162 17.4938C14.8402 17.6684 15.1233 18.2348 14.9487 18.7587L14.5906 19.8328C14.0612 21.4212 12.3339 22.2688 10.7535 21.7157L4.6786 19.5895C3.07425 19.0279 2 17.5138 2 15.814L2 8.07091C2 6.37113 3.07425 4.857 4.6786 4.29548L10.7536 2.16924C12.3339 1.61612 14.0612 2.46369 14.5906 4.05214L14.9487 5.12624C15.1233 5.65018 14.8402 6.2165 14.3162 6.39115C13.7923 6.5658 13.226 6.28264 13.0513 5.7587L12.6933 4.68459Z" fill="#141B34"/>
<path fill-rule="evenodd" clip-rule="evenodd" d="M12.8827 8.51946C13.2564 8.67424 13.5 9.03888 13.5 9.44334V10.9433L21 10.9433C21.5523 10.9433 22 11.3911 22 11.9433C22 12.4956 21.5523 12.9433 21 12.9433H13.5V14.4433C13.5 14.8478 13.2564 15.2124 12.8827 15.3672C12.509 15.522 12.0789 15.4364 11.7929 15.1504L9.29289 12.6504C8.90237 12.2599 8.90237 11.6268 9.29289 11.2362L11.7929 8.73624C12.0789 8.45024 12.509 8.36468 12.8827 8.51946Z" fill="#141B34"/>
</svg>
