<svg width="24" height="24" viewBox="0 0 24 24" fill="none" xmlns="http://www.w3.org/2000/svg">
<path fill-rule="evenodd" clip-rule="evenodd" d="M7.57698 6.3327C5.41886 7.76761 4 10.2183 4 13C4 17.4182 7.58172 21 12 21C16.4183 21 20 17.4182 20 13C20 10.2183 18.5811 7.76761 16.423 6.3327L17.5304 4.66724C20.2223 6.45709 22 9.52071 22 13C22 18.5228 17.5228 23 12 23C6.47715 23 2 18.5228 2 13C2 9.52071 3.77767 6.45709 6.46963 4.66724L7.57698 6.3327Z" fill="#141B34"/>
<path fill-rule="evenodd" clip-rule="evenodd" d="M11 10V2H13V10H11Z" fill="#141B34"/>
</svg>
