<svg width="24" height="24" viewBox="0 0 24 24" fill="none" xmlns="http://www.w3.org/2000/svg">
<path d="M16.5722 7.15124C16.116 6.84413 15.5122 6.54996 14.8554 6.8026L14.7461 6.8485C14.1004 7.1484 13.9072 7.79007 13.8291 8.32702C13.7728 8.71388 13.7575 9.19553 13.7529 9.75182H9.49997C9.27726 9.75182 9.07224 9.75188 8.90134 9.76354C8.72381 9.77568 8.52838 9.80248 8.33005 9.88463C7.90129 10.0622 7.5604 10.4031 7.38278 10.8319C7.30063 11.0302 7.27383 11.2257 7.26169 11.4032C7.25003 11.5741 7.24997 11.7791 7.24997 12.0018C7.24997 12.2245 7.25003 12.4295 7.26169 12.6005C7.27382 12.778 7.30063 12.9734 7.38278 13.1717C7.56039 13.6005 7.90129 13.9414 8.33005 14.119C8.52838 14.2012 8.72381 14.228 8.90134 14.2401C9.07224 14.2518 9.27726 14.2518 9.49997 14.2518H13.7529C13.7586 14.7824 13.7762 15.2438 13.833 15.6171C13.9135 16.1457 14.1107 16.7721 14.7461 17.0673C14.7819 17.0839 14.8186 17.099 14.8554 17.1131C15.5122 17.3658 16.116 17.0716 16.5722 16.7645C17.0329 16.4544 17.5823 15.9634 18.2359 15.3793L18.29 15.3309C19.0094 14.6881 19.6061 14.1533 20.0156 13.6678C20.4359 13.1696 20.7429 12.6285 20.75 11.9657V11.9501C20.7429 11.2872 20.4359 10.7462 20.0156 10.2479C19.6061 9.76242 19.0094 9.22767 18.29 8.58483L18.2358 8.53642C17.5823 7.95235 17.0329 7.46134 16.5722 7.15124Z" fill="#141B34"/>
<path d="M3.24997 14.75V9.25C3.24997 7.6285 3.24742 6.31161 3.38669 5.27637C3.52987 4.21224 3.83946 3.29668 4.56931 2.56738C5.29891 1.83851 6.21406 1.52974 7.27829 1.38672C8.31409 1.24756 9.63213 1.25 11.2549 1.25H13.7685C14.206 1.25 14.5081 1.24845 14.7734 1.27832C16.8604 1.5133 18.5088 3.1593 18.7441 5.24609C18.806 5.79479 18.4109 6.28954 17.8623 6.35156C17.3135 6.41344 16.8177 6.01853 16.7558 5.46973C16.625 4.31144 15.7103 3.39634 14.5498 3.26562C14.4241 3.25148 14.2604 3.25 13.7685 3.25H11.2549C9.57566 3.25 8.41658 3.25203 7.54489 3.36914C6.70193 3.4824 6.27853 3.68651 5.98239 3.98242C5.68642 4.27824 5.4824 4.70102 5.36911 5.54297C5.25194 6.41387 5.24997 7.57187 5.24997 9.25V14.75L5.25193 15.915C5.25802 16.9893 5.28125 17.8039 5.36911 18.457C5.4824 19.299 5.68641 19.7218 5.98239 20.0176C6.27853 20.3135 6.70192 20.5176 7.54489 20.6309C8.41658 20.748 9.57566 20.75 11.2549 20.75H13.7685C14.2604 20.75 14.4241 20.7485 14.5498 20.7344C15.7103 20.6037 16.625 19.6886 16.7558 18.5303C16.8177 17.9815 17.3135 17.5866 17.8623 17.6484C18.4109 17.7105 18.806 18.2052 18.7441 18.7539C18.5088 20.8407 16.8604 22.4867 14.7734 22.7217C14.5081 22.7515 14.206 22.75 13.7685 22.75H11.2549C9.63212 22.75 8.31409 22.7524 7.27829 22.6133C6.21406 22.4703 5.29891 22.1615 4.56931 21.4326C3.83946 20.7033 3.52987 19.7878 3.38669 18.7236C3.28224 17.9472 3.25785 17.0122 3.25193 15.9092L3.24997 14.75Z" fill="#141B34"/>
</svg>
