<svg width="24" height="24" viewBox="0 0 24 24" fill="none" xmlns="http://www.w3.org/2000/svg">
<path fill-rule="evenodd" clip-rule="evenodd" d="M7.57698 6.33246C5.41886 7.76737 4 10.2181 4 12.9997C4 17.418 7.58172 20.9997 12 20.9997C16.4183 20.9997 20 17.418 20 12.9997C20 10.2181 18.5811 7.76737 16.423 6.33246L17.5304 4.66699C20.2223 6.45685 22 9.52047 22 12.9997C22 18.5226 17.5228 22.9997 12 22.9997C6.47715 22.9997 2 18.5226 2 12.9997C2 9.52047 3.77767 6.45685 6.46963 4.66699L7.57698 6.33246Z" fill="#141B34"/>
<path fill-rule="evenodd" clip-rule="evenodd" d="M11 10V2H13V10H11Z" fill="#141B34"/>
</svg>
