<svg width="24" height="24" viewBox="0 0 24 24" fill="none" xmlns="http://www.w3.org/2000/svg">
<path d="M16.043 7.29291C16.4336 6.90238 17.0666 6.90238 17.4571 7.29291L21.4571 11.2929C21.8476 11.6834 21.8476 12.3164 21.4571 12.707L17.4571 16.707C17.0666 17.0975 16.4336 17.0975 16.043 16.707C15.6525 16.3164 15.6525 15.6834 16.043 15.2929L18.336 12.9999H9.25006C8.69778 12.9999 8.25006 12.5522 8.25006 11.9999C8.25006 11.4477 8.69778 10.9999 9.25006 10.9999H18.336L16.043 8.70697C15.6525 8.31645 15.6525 7.68343 16.043 7.29291Z" fill="#141B34"/>
<path d="M2.25 12C2.25 6.61522 6.52365 2.25 11.7955 2.25C12.3226 2.25 12.75 2.68652 12.75 3.225C12.75 3.76348 12.3226 4.2 11.7955 4.2C7.57801 4.2 4.15909 7.69218 4.15909 12C4.15909 16.3078 7.57801 19.8 11.7955 19.8C12.3226 19.8 12.75 20.2365 12.75 20.775C12.75 21.3135 12.3226 21.75 11.7955 21.75C6.52365 21.75 2.25 17.3848 2.25 12Z" fill="#141B34"/>
</svg>
