<svg width="24" height="24" viewBox="0 0 24 24" fill="none" xmlns="http://www.w3.org/2000/svg">
<path d="M7.9803 1.63819L3.18965 3.81576C2.98657 3.90807 2.83512 4.08598 2.77643 4.3012L1.27643 9.8012C1.25065 9.89571 1.24364 9.99435 1.25579 10.0916L2.25579 18.0916C2.30271 18.4669 2.62176 18.7485 3 18.7485H4.69384L5.73392 10.0944L4.78659 7.23434L6.21051 6.7627L7.21051 9.78177C7.24519 9.88649 7.25635 9.99756 7.24319 10.1071L5.89246 21.346C6.62268 21.8298 7.51925 22.1647 8.46269 22.3856C9.57426 22.6459 10.8002 22.7594 12.001 22.7505C13.2019 22.7594 14.4278 22.6459 15.5394 22.3856C16.4808 22.1652 17.3756 21.8312 18.105 21.349L16.7539 10.1071C16.7407 9.99756 16.7519 9.88649 16.7866 9.78177L17.7866 6.7627L19.2105 7.23434L18.2632 10.0944L19.3033 18.7485H21C21.3782 18.7485 21.6973 18.4669 21.7442 18.0916L22.7442 10.0916C22.7564 9.99435 22.7493 9.89571 22.7236 9.8012L21.2236 4.3012C21.1649 4.08598 21.0134 3.90807 20.8104 3.81576L16.018 1.63742L13.9624 5.74859L10.0354 5.74802L7.9803 1.63819Z" fill="#141B34"/>
<path d="M14.5354 1.24854H9.46254L10.9625 4.24815L13.0354 4.24845L14.5354 1.24854Z" fill="#141B34"/>
</svg>
