<svg width="24" height="24" viewBox="0 0 24 24" fill="none" xmlns="http://www.w3.org/2000/svg">
<path opacity="0.4" d="M22.7502 12C22.7502 6.06294 17.9373 1.25 12.0002 1.25C6.06318 1.25 1.25024 6.06294 1.25024 12C1.25024 17.9371 6.06318 22.75 12.0002 22.75C17.9373 22.75 22.7502 17.9371 22.7502 12Z" fill="#141B34"/>
<path fill-rule="evenodd" clip-rule="evenodd" d="M9.25024 9C9.25024 8.30964 8.6926 7.75 8.00471 7.75H7.99577C7.30789 7.75 6.75024 8.30964 6.75024 9C6.75024 9.69036 7.30789 10.25 7.99577 10.25H8.00471C8.6926 10.25 9.25024 9.69036 9.25024 9Z" fill="#141B34"/>
<path d="M1.35962 13.5443C1.44328 14.1259 1.5735 14.6925 1.74638 15.2401C2.94295 15.5765 4.15013 15.7501 4.99908 15.7501C6.734 15.7501 8.34457 15.337 9.41504 14.6244C9.75984 14.3949 9.8533 13.9293 9.62377 13.5845C9.39425 13.2397 8.92866 13.1462 8.58385 13.3758C7.82991 13.8776 6.53579 14.2501 4.99908 14.2501C4.11531 14.2501 2.66162 14.0096 1.35962 13.5443Z" fill="#141B34"/>
</svg>
