<svg width="24" height="24" viewBox="0 0 24 24" fill="none" xmlns="http://www.w3.org/2000/svg">
<path d="M13.0994 12.0895L6.20716 5.16822C5.60366 4.56216 5.60406 3.58049 6.20806 2.97494C6.8124 2.36904 7.79223 2.36903 8.39659 2.9749L16.2221 10.82C17.925 12.5632 18.6704 13.7566 18.942 15.541C19.063 16.3362 19.0004 17.1538 18.758 17.9205C18.1317 19.9006 16.9969 21.1822 15.2028 22.0405C14.565 22.3456 13.8668 22.5165 13.1601 22.5204C10.8637 22.5331 9.34414 21.5109 7.99576 20.24L5.44196 17.6269C4.84336 17.0143 4.85728 16.0301 5.47297 15.4349C6.06966 14.858 7.01478 14.8581 7.61133 15.4352L8.0422 15.8519M10.8911 14.3089L9.45276 12.8486M9.45276 12.8486L8.37387 11.7532C7.77729 11.1475 7.78921 10.1699 8.40037 9.57905C8.99256 9.00651 9.93103 9.0083 10.5211 9.58309L13.0919 12.0876M9.45276 12.8486L9.08222 12.4927C8.4838 11.9181 7.53955 11.9197 6.94307 12.4964C6.3264 13.0926 6.312 14.0782 6.91098 14.6923L8.0422 15.8519M9.45276 12.8486L9.49414 12.8883M9.41716 17.2615L8.0422 15.8519M8.0422 15.8519L8.04665 15.8562M12.2026 6.51115C12.1169 5.32386 14.0543 3.5286 16.4579 4.62687C16.652 4.71558 16.8177 4.87979 16.8262 5.09351C16.8339 5.28961 16.7829 5.4949 16.6994 5.68488C16.601 5.90846 16.4129 6.07434 16.2181 6.22122C14.6684 7.38982 14.4038 8.63952 15.9332 10.6114" stroke="#141B34" stroke-width="1.5"/>
</svg>
