<svg width="24" height="24" viewBox="0 0 24 24" fill="none" xmlns="http://www.w3.org/2000/svg">
<path opacity="0.4" d="M20.3706 19.2225L13.9257 12.7776L11.7773 14.9259L18.2223 21.3708L18.2223 21.3708C18.5151 21.6637 18.6615 21.8101 18.8195 21.8884C19.12 22.0373 19.4728 22.0373 19.7734 21.8884C19.9313 21.8101 20.0777 21.6637 20.3706 21.3708C20.6634 21.078 20.8098 20.9316 20.8881 20.7736C21.037 20.4731 21.037 20.1203 20.8881 19.8197C20.8098 19.6618 20.6634 19.5154 20.3706 19.2225L20.3706 19.2225Z" fill="#141B34"/>
<path opacity="0.4" d="M17 2L17.2948 2.7966C17.6813 3.84117 17.8746 4.36345 18.2556 4.74445C18.6366 5.12545 19.1588 5.31871 20.2034 5.70523L21 6L20.2034 6.29477C19.1588 6.68129 18.6366 6.87456 18.2556 7.25555C17.8746 7.63655 17.6813 8.15883 17.2948 9.2034L17 10L16.7052 9.2034C16.3187 8.15884 16.1254 7.63655 15.7444 7.25555C15.3634 6.87455 14.8412 6.68129 13.7966 6.29477L13 6L13.7966 5.70523C14.8412 5.31871 15.3634 5.12545 15.7444 4.74445C16.1254 4.36345 16.3187 3.84117 16.7052 2.7966L17 2Z" fill="#141B34"/>
<path opacity="0.4" d="M6 4L6.22108 4.59745C6.51097 5.38087 6.65592 5.77259 6.94166 6.05834C7.22741 6.34408 7.61913 6.48903 8.40255 6.77892L9 7L8.40255 7.22108C7.61913 7.51097 7.22741 7.65592 6.94166 7.94167C6.65592 8.22741 6.51097 8.61913 6.22108 9.40255L6 10L5.77892 9.40255C5.48903 8.61913 5.34408 8.22741 5.05833 7.94167C4.77259 7.65592 4.38087 7.51097 3.59745 7.22108L3 7L3.59745 6.77892C4.38087 6.48903 4.77259 6.34408 5.05833 6.05834C5.34408 5.77259 5.48903 5.38087 5.77892 4.59745L6 4Z" fill="#141B34"/>
<path d="M13.9258 12.7775L11.7775 10.6292C11.4847 10.3364 11.3383 10.19 11.1803 10.1117C10.8798 9.96277 10.527 9.96277 10.2264 10.1117C10.0685 10.19 9.92207 10.3364 9.62923 10.6292C9.33638 10.9221 9.18996 11.0685 9.11169 11.2264C8.96277 11.527 8.96277 11.8798 9.11169 12.1803C9.18996 12.3383 9.33638 12.4847 9.62923 12.7775L11.7775 14.9258M13.9258 12.7775L20.3708 19.2225C20.6636 19.5153 20.81 19.6617 20.8883 19.8197C21.0372 20.1202 21.0372 20.473 20.8883 20.7736C20.81 20.9315 20.6636 21.0779 20.3708 21.3708C20.0779 21.6636 19.9315 21.81 19.7736 21.8883C19.473 22.0372 19.1202 22.0372 18.8197 21.8883C18.6617 21.81 18.5153 21.6636 18.2225 21.3708L11.7775 14.9258M13.9258 12.7775L11.7775 14.9258" stroke="#141B34" stroke-width="1.5" stroke-linecap="round" stroke-linejoin="round"/>
<path d="M17 2L17.2948 2.7966C17.6813 3.84117 17.8746 4.36345 18.2556 4.74445C18.6366 5.12545 19.1588 5.31871 20.2034 5.70523L21 6L20.2034 6.29477C19.1588 6.68129 18.6366 6.87456 18.2556 7.25555C17.8746 7.63655 17.6813 8.15883 17.2948 9.2034L17 10L16.7052 9.2034C16.3187 8.15884 16.1254 7.63655 15.7444 7.25555C15.3634 6.87455 14.8412 6.68129 13.7966 6.29477L13 6L13.7966 5.70523C14.8412 5.31871 15.3634 5.12545 15.7444 4.74445C16.1254 4.36345 16.3187 3.84117 16.7052 2.7966L17 2Z" stroke="#141B34" stroke-width="1.5" stroke-linejoin="round"/>
<path d="M6 4L6.22108 4.59745C6.51097 5.38087 6.65592 5.77259 6.94167 6.05834C7.22741 6.34408 7.61913 6.48903 8.40255 6.77892L9 7L8.40255 7.22108C7.61913 7.51097 7.22741 7.65592 6.94166 7.94167C6.65592 8.22741 6.51097 8.61913 6.22108 9.40255L6 10L5.77892 9.40255C5.48903 8.61913 5.34408 8.22741 5.05833 7.94167C4.77259 7.65592 4.38087 7.51097 3.59745 7.22108L3 7L3.59745 6.77892C4.38087 6.48903 4.77259 6.34408 5.05833 6.05833C5.34408 5.77259 5.48903 5.38087 5.77892 4.59745L6 4Z" stroke="#141B34" stroke-width="1.5" stroke-linejoin="round"/>
</svg>
