<svg width="24" height="24" viewBox="0 0 24 24" fill="none" xmlns="http://www.w3.org/2000/svg">
<path d="M19.0137 4.9858C18.032 4.00408 16.4403 4.00408 15.4586 4.9858L14.1966 6.24777L17.7517 9.80289L19.0137 8.54092C19.9954 7.5592 19.9954 5.96752 19.0137 4.9858Z" fill="#141B34"/>
<path d="M16.6911 10.8636L13.136 7.30843L2.98629 17.4581C2.00457 18.4398 2.00457 20.0315 2.98629 21.0132C3.96801 21.9949 5.55969 21.9949 6.54141 21.0132L16.6911 10.8636Z" fill="#141B34"/>
<path d="M17.2389 14.8718C17.4082 14.0434 18.5918 14.0434 18.7611 14.8718C19.0048 16.064 19.9365 16.9957 21.1287 17.2394C21.9571 17.4087 21.9571 18.5923 21.1287 18.7616C19.9365 19.0053 19.0048 19.937 18.7611 21.1292C18.5918 21.9576 17.4082 21.9576 17.2389 21.1292C16.9952 19.937 16.0635 19.0053 14.8713 18.7616C14.0429 18.5923 14.0429 17.4087 14.8713 17.2394C16.0635 16.9957 16.9952 16.064 17.2389 14.8718Z" fill="#141B34"/>
<path d="M8.12063 2.56016C8.20503 2.14726 8.79497 2.14726 8.87937 2.56016C9.06576 3.47208 9.77841 4.18473 10.6903 4.37112C11.1032 4.45551 11.1032 5.04546 10.6903 5.12985C9.77841 5.31624 9.06576 6.0289 8.87937 6.94082C8.79497 7.35371 8.20503 7.35371 8.12063 6.94082C7.93424 6.0289 7.22159 5.31624 6.30967 5.12985C5.89678 5.04546 5.89678 4.45551 6.30967 4.37112C7.22159 4.18473 7.93424 3.47208 8.12063 2.56016Z" fill="#141B34"/>
</svg>
