<svg width="24" height="24" viewBox="0 0 24 24" fill="none" xmlns="http://www.w3.org/2000/svg">
<path fill-rule="evenodd" clip-rule="evenodd" d="M7.19738 6.29306C6.87457 6.24966 6.43299 6.24971 6.00018 6.24976C5.56736 6.24971 5.12578 6.24966 4.80297 6.29306C4.44749 6.34086 4.07176 6.4533 3.76274 6.76233C3.45378 7.07128 3.34126 7.44693 3.29341 7.80244C3.24991 8.12559 3.24995 8.52284 3.25 8.95617L3.25001 9.24976L8.75018 9.24976V8.95502V8.95501C8.75023 8.52219 8.75028 8.12537 8.70688 7.80256C8.65908 7.44708 8.54664 7.07135 8.23761 6.76233C7.92859 6.4533 7.55287 6.34086 7.19738 6.29306ZM8.75018 10.7498L3.25006 10.7498L3.25018 13.9998C3.25019 18.8323 7.16769 22.7498 12.0002 22.7498C16.8327 22.7498 20.7502 18.8323 20.7502 13.9998L20.7502 10.7498H15.2502L15.2502 13.9998C15.2502 15.7947 13.7951 17.2498 12.0002 17.2498C10.2053 17.2498 8.75018 15.7947 8.75018 13.9998L8.75018 10.7498ZM15.2502 9.24976H20.7502V8.95502C20.7502 8.5222 20.7503 8.12537 20.7069 7.80256C20.6591 7.44708 20.5466 7.07135 20.2376 6.76233C19.9286 6.4533 19.5529 6.34086 19.1974 6.29306C18.8746 6.24966 18.4777 6.24971 18.0449 6.24976C17.6121 6.24971 17.1258 6.24966 16.803 6.29306C16.4475 6.34086 16.0718 6.4533 15.7627 6.76233C15.4537 7.07135 15.3413 7.44707 15.2935 7.80255C15.2501 8.12536 15.2501 8.52219 15.2502 8.955V8.95501V8.95502V9.24976Z" fill="#141B34"/>
<path fill-rule="evenodd" clip-rule="evenodd" d="M12.8975 1.36386C13.2488 1.58339 13.3555 2.0461 13.136 2.39736L11.9782 4.24986H13.625C13.8976 4.24986 14.1488 4.39781 14.281 4.63628C14.4132 4.87475 14.4055 5.16615 14.261 5.39736L12.386 8.39736C12.1665 8.74861 11.7038 8.85539 11.3525 8.63586C11.0012 8.41632 10.8945 7.95361 11.114 7.60236L12.2718 5.74986H10.625C10.3524 5.74986 10.1012 5.6019 9.96902 5.36343C9.83685 5.12497 9.8445 4.83356 9.989 4.60236L11.864 1.60236C12.0835 1.2511 12.5462 1.14432 12.8975 1.36386Z" fill="#141B34"/>
</svg>
