<svg width="24" height="24" viewBox="0 0 24 24" fill="none" xmlns="http://www.w3.org/2000/svg">
<path fill-rule="evenodd" clip-rule="evenodd" d="M1.25 3C1.25 2.58579 1.58579 2.25 2 2.25H22C22.4142 2.25 22.75 2.58579 22.75 3V16.275L19.043 12.5681L15.8611 15.75L15.904 15.7929H12.0859V20.75H2C1.58579 20.75 1.25 20.4142 1.25 20V3ZM6.41603 6.87598L5.58398 8.12405L12 12.4014L18.416 8.12405L17.584 6.87598L12 10.5986L6.41603 6.87598Z" fill="#141B34"/>
<path fill-rule="evenodd" clip-rule="evenodd" d="M18.9217 17.043L17.6288 15.7502L19.043 14.3359L22.7502 18.043L19.043 21.7502L17.6288 20.3359L18.9217 19.043H13.3359V17.043L18.9217 17.043Z" fill="#141B34"/>
</svg>
