<svg width="24" height="24" viewBox="0 0 24 24" fill="none" xmlns="http://www.w3.org/2000/svg">
<path d="M7.00235 7.75L9.94437 9.48943C11.6596 10.5035 12.3451 10.5035 14.0603 9.48943L17.0023 7.75" stroke="#141B34" stroke-width="1.5" stroke-linecap="round" stroke-linejoin="round"/>
<path d="M21.9977 10.75V9.77844C21.9323 6.71114 21.8996 5.17749 20.7679 4.04141C19.6361 2.90532 18.061 2.86574 14.9107 2.78659C12.9692 2.73781 11.0467 2.7378 9.10511 2.78658C5.95487 2.86573 4.37975 2.9053 3.24799 4.04139C2.11624 5.17748 2.08353 6.71113 2.01812 9.77843C1.99709 10.7647 1.99709 11.7451 2.01812 12.7314C2.08354 15.7987 2.11624 17.3323 3.248 18.4684C4.37975 19.6045 5.95487 19.6441 9.10512 19.7232C9.57337 19.735 10.5358 19.7439 11.0024 19.75" stroke="#141B34" stroke-width="1.5" stroke-linecap="round" stroke-linejoin="round"/>
<path d="M20.8546 13.6891L21.547 14.3815C22.1327 14.9672 22.1327 15.917 21.547 16.5028L17.9196 20.1984C17.6342 20.4838 17.2692 20.6762 16.8725 20.7502L14.6244 21.2383C14.2694 21.3153 13.9533 21.0002 14.0294 20.645L14.5079 18.4097C14.582 18.013 14.7743 17.648 15.0597 17.3626L18.7333 13.6891C19.3191 13.1033 20.2688 13.1033 20.8546 13.6891Z" stroke="#141B34" stroke-width="1.5" stroke-linecap="round" stroke-linejoin="round"/>
</svg>
