<svg width="24" height="24" viewBox="0 0 24 24" fill="none" xmlns="http://www.w3.org/2000/svg">
<path fill-rule="evenodd" clip-rule="evenodd" d="M7.25 2.29703L1.65785 5.16391C1.40747 5.29226 1.25 5.54996 1.25 5.83131L1.25 20.0002C1.25 20.2412 1.36582 20.4675 1.56129 20.6085C1.75676 20.7495 2.00807 20.7879 2.23675 20.7118L7.25 19.044V16.2814H8.75V19.1333L14.25 21.4942V19.2814H15.75V21.75H22C22.4142 21.75 22.75 21.4142 22.75 21V5.74835C22.75 5.33413 22.4142 4.99835 22 4.99835H15.75V6.4671H14.25V4.61034L8.75 2.25V3.4671H7.25V2.29703ZM8.75 7.46895V5.03145H7.25V7.46895H8.75ZM8.75 11.2189V8.78145H7.25V11.2189H8.75ZM8.75 14.9689V12.5314H7.25V14.9689H8.75ZM15.75 8.03145V10.4689H14.25V8.03145H15.75ZM15.75 11.7814V14.2189H14.25V11.7814H15.75ZM15.75 15.5314V17.9689H14.25V15.5314H15.75Z" fill="#141B34"/>
</svg>
