<svg width="24" height="24" viewBox="0 0 24 24" fill="none" xmlns="http://www.w3.org/2000/svg">
<g opacity="0.4">
<path d="M4.02558 4.92016L5.25345 4.20331C6.59877 3.41788 7.27143 3.02517 8.01238 3.00098L8.0127 18.0189C7.22384 18.0624 6.54052 18.4628 5.84341 18.8712L5.71986 18.9435C4.4215 19.7016 3.77226 20.0806 3.242 19.9854C2.88916 19.922 2.57001 19.7308 2.34226 19.4465C2 19.0191 2 18.2512 2 16.7155V8.49853C2 7.32973 2 6.74533 2.27164 6.26544C2.54329 5.78556 3.03739 5.49709 4.02558 4.92016Z" fill="#141B34"/>
<path d="M20.5 20.9998H15L15.0003 6.04749C15.2235 6.10228 15.4547 6.10274 15.9214 6.10274H18C19.8856 6.10274 20.8284 6.10274 21.4142 6.7053C22 7.30786 22 8.27767 22 10.2173V19.4998C22 20.3282 21.3284 20.9998 20.5 20.9998Z" fill="#141B34"/>
</g>
<path d="M5.25345 4.19584L4.02558 4.90813C3.03739 5.48137 2.54329 5.768 2.27164 6.24483C2 6.72165 2 7.30233 2 8.46368V16.6283C2 18.1542 2 18.9172 2.34226 19.3418C2.57001 19.6244 2.88916 19.8143 3.242 19.8773C3.77226 19.9719 4.42148 19.5953 5.71987 18.8421C6.60156 18.3306 7.45011 17.7994 8.50487 17.9435C8.98466 18.009 9.44231 18.2366 10.3576 18.6917L14.1715 20.588C14.9964 20.9982 15.004 21 15.9214 21H18C19.8856 21 20.8284 21 21.4142 20.4013C22 19.8026 22 18.8389 22 16.9117V10.1715C22 8.24423 22 7.2806 21.4142 6.68188C20.8284 6.08316 19.8856 6.08316 18 6.08316H15.9214C15.004 6.08316 14.9964 6.08139 14.1715 5.6712L10.8399 4.01463C9.44884 3.32297 8.75332 2.97714 8.01238 3.00117C7.27143 3.02521 6.59877 3.41542 5.25345 4.19584Z" stroke="#141B34" stroke-width="1.5" stroke-linecap="round" stroke-linejoin="round"/>
<path d="M8 3L8 17.5" stroke="#141B34" stroke-width="1.5" stroke-linecap="round" stroke-linejoin="round"/>
<path d="M15 6.5L15 20.5" stroke="#141B34" stroke-width="1.5" stroke-linecap="round" stroke-linejoin="round"/>
</svg>
