<svg width="24" height="24" viewBox="0 0 24 24" fill="none" xmlns="http://www.w3.org/2000/svg">
<path opacity="0.4" fill-rule="evenodd" clip-rule="evenodd" d="M22.0003 12C22.0003 16.3491 19.224 20.0497 15.347 21.4263L2.62988 8.5001C4.04859 4.70338 7.70875 2 12.0003 2C17.5232 2 22.0003 6.47715 22.0003 12ZM14.5001 14C14.7347 14 14.9601 13.9092 15.1287 13.7468C15.2465 13.6334 15.3672 13.5188 15.4893 13.403C16.9731 11.9957 18.6646 10.3913 17.7333 8.15187C17.1876 6.83966 15.8777 6 14.5001 6C13.1225 6 11.8126 6.83966 11.2669 8.15187C10.3393 10.3823 12.0122 11.9747 13.4879 13.3795C13.6179 13.5033 13.7464 13.6256 13.8715 13.7468C14.0401 13.9092 14.2655 14 14.5001 14Z" fill="#141B34"/>
<path d="M15.1287 13.7468C14.9601 13.9092 14.7347 14 14.5001 14C14.2655 14 14.0401 13.9092 13.8715 13.7468C12.3272 12.2504 10.2576 10.5788 11.2669 8.15187C11.8126 6.83966 13.1225 6 14.5001 6C15.8777 6 17.1876 6.83966 17.7333 8.15187C18.7413 10.5757 16.6768 12.2555 15.1287 13.7468Z" stroke="#141B34" stroke-width="1.5"/>
<path d="M14.5 9.5H14.509" stroke="#141B34" stroke-width="2" stroke-linecap="round" stroke-linejoin="round"/>
<path d="M22 12C22 17.5228 17.5228 22 12 22C6.47715 22 2 17.5228 2 12C2 6.47715 6.47715 2 12 2C17.5228 2 22 6.47715 22 12Z" stroke="#141B34" stroke-width="1.5"/>
<path d="M9 15L5 19M15 21L3 9" stroke="#141B34" stroke-width="1.5" stroke-linecap="round"/>
</svg>
