<svg width="24" height="24" viewBox="0 0 24 24" fill="none" xmlns="http://www.w3.org/2000/svg">
<path opacity="0.4" fill-rule="evenodd" clip-rule="evenodd" d="M4.18182 3.25C3.48417 3.25 2.97508 3.67286 2.65346 4.07885C2.32316 4.4958 2.06845 5.03889 1.87262 5.62332C1.47757 6.80234 1.25 8.36931 1.25 10.0556C1.25 11.8232 1.39798 13.7001 2.3242 15.3432C4.25559 18.54 7.89676 20.75 12 20.75C16.1032 20.75 19.7444 18.54 21.6758 15.3432C22.602 13.7001 22.75 11.8232 22.75 10.0556C22.75 8.36931 22.5224 6.80234 22.1274 5.62332C21.9316 5.03889 21.6768 4.4958 21.3465 4.07885C21.0249 3.67286 20.5158 3.25 19.8182 3.25C19.1205 3.25 18.6114 3.67286 18.2898 4.07885C17.9595 4.4958 17.7048 5.03889 17.509 5.62332C17.318 6.19332 17.145 6.90688 17.034 7.64055C17.0158 7.76064 16.8974 7.8391 16.7798 7.80862C15.4038 7.4519 13.7547 7.25 12.0002 7.25C10.2367 7.25 8.57977 7.45397 7.19949 7.8141C7.08165 7.84485 6.96283 7.76608 6.94538 7.64556C6.83869 6.90879 6.68314 6.19671 6.49101 5.62332C6.29519 5.03889 6.04048 4.4958 5.71018 4.07885C5.38856 3.67286 4.87947 3.25 4.18182 3.25ZM3.7274 6.23819C3.41504 7.17042 3.20508 8.52012 3.20508 10.0555C3.20508 11.3412 3.29452 12.4777 3.62261 13.4653C3.66412 13.5902 3.81505 13.6343 3.91171 13.5449C4.03931 13.4269 4.1749 13.2768 4.31109 13.0871C4.76593 12.4536 5.15962 11.4539 5.15962 10.0555C5.15962 8.52012 4.94966 7.17042 4.6373 6.23819C4.53271 5.92604 4.42436 5.68412 4.32319 5.50595C4.25877 5.3925 4.10593 5.3925 4.04151 5.50595C3.94034 5.68412 3.83199 5.92604 3.7274 6.23819ZM19.3638 6.23819C19.0514 7.17042 18.8414 8.52012 18.8414 10.0555C18.8414 11.4539 19.2351 12.4536 19.69 13.0871C19.8262 13.2768 19.9618 13.4269 20.0894 13.5449C20.186 13.6343 20.3369 13.5902 20.3785 13.4653C20.7065 12.4777 20.796 11.3412 20.796 10.0555C20.796 8.52012 20.586 7.17042 20.2737 6.23819C20.1691 5.92604 20.0607 5.68412 19.9596 5.50595C19.8951 5.3925 19.7423 5.3925 19.6779 5.50595C19.5767 5.68412 19.4684 5.92604 19.3638 6.23819Z" fill="#141B34"/>
<path fill-rule="evenodd" clip-rule="evenodd" d="M8.75576 10.791C9.77315 10.4402 10.8651 10.25 12.0002 10.25C13.1353 10.25 14.2273 10.4402 15.2446 10.791C15.6362 10.926 15.8443 11.3528 15.7093 11.7444C15.5742 12.136 15.1474 12.344 14.7558 12.209C13.8937 11.9118 12.9668 11.75 12.0002 11.75C11.0336 11.75 10.1067 11.9118 9.24465 12.209C8.85305 12.344 8.42616 12.136 8.29116 11.7444C8.15616 11.3528 8.36417 10.926 8.75576 10.791Z" fill="#141B34"/>
<path fill-rule="evenodd" clip-rule="evenodd" d="M7.34035 14.6435C7.5373 14.2791 7.99237 14.1434 8.35676 14.3404C9.42496 14.9177 10.6687 15.2501 12.0001 15.2501C13.3316 15.2501 14.5753 14.9177 15.6435 14.3404C16.0079 14.1434 16.463 14.2791 16.6599 14.6435C16.8569 15.0079 16.7212 15.463 16.3568 15.6599C15.0716 16.3546 13.583 16.7501 12.0001 16.7501C10.4173 16.7501 8.92871 16.3546 7.64353 15.6599C7.27914 15.463 7.1434 15.0079 7.34035 14.6435Z" fill="#141B34"/>
</svg>
