<svg width="24" height="25" viewBox="0 0 24 25" fill="none" xmlns="http://www.w3.org/2000/svg">
<path d="M12 22C16.5 22 21 17 21 10V3L20.5 3C18.4119 4.2275 15.3774 5 12 5C8.62259 5 5.5881 4.2275 3.5 3L3 3V10C3 17 7.5 22 12 22Z" stroke="#141B34" stroke-width="1.5" stroke-linecap="square"/>
<path d="M6.5 10C6.86849 9.69313 7.40399 9.5 8 9.5C8.59601 9.5 9.13151 9.69313 9.5 10" stroke="#141B34" stroke-width="1.5" stroke-linecap="square"/>
<path d="M12 15.7C13 15.7 15 15 15 15C15 15 14.5 18 12 18C9.5 18 9 15 9 15C9 15 11 15.7 12 15.7Z" stroke="#141B34" stroke-width="1.5" stroke-linecap="square"/>
<path d="M14.5 10C14.8685 9.69313 15.404 9.5 16 9.5C16.596 9.5 17.1315 9.69313 17.5 10" stroke="#141B34" stroke-width="1.5" stroke-linecap="square"/>
</svg>
