<svg width="24" height="25" viewBox="0 0 24 25" fill="none" xmlns="http://www.w3.org/2000/svg">
<path fill-rule="evenodd" clip-rule="evenodd" d="M9.31806 2.85893C9.43057 2.20607 10.0403 1.63262 10.804 1.77038C11.0577 1.81617 11.2762 1.93836 11.4448 2.0975C12.4725 3.06755 14.08 3.87592 16.0021 4.22268C17.9244 4.56949 19.7033 4.37198 20.9899 3.82151C21.2044 3.72973 21.4525 3.69151 21.7066 3.73734C22.4641 3.87401 22.8414 4.61653 22.7294 5.26656L21.7915 10.7087C21.152 14.4194 18.462 16.4917 16.6393 17.496C16.9966 16.1922 17.1312 14.7132 16.8513 13.089L15.9134 7.6468C15.7077 6.45305 14.5553 5.25506 12.9737 5.5404C12.4575 5.63354 12.0233 5.88043 11.6968 6.18864C10.9857 6.85982 9.86366 7.48571 8.45892 7.84422L9.31806 2.85893ZM13.1958 6.77038C13.9594 6.63262 14.5691 7.20607 14.6816 7.85893L15.6195 13.3011C16.3853 17.7445 13.6011 21.0058 12.309 22.2547C11.7649 22.7806 11.0863 23.0628 10.4155 23.1838C9.74508 23.3048 9.01094 23.2776 8.32027 22.9722C6.68605 22.2496 2.97456 20.1557 2.20819 15.7087L1.27031 10.2666C1.15829 9.61653 1.53565 8.87401 2.29315 8.73734C2.54718 8.69151 2.79529 8.72973 3.00983 8.82151C4.29645 9.37198 6.07526 9.56949 7.99758 9.22268C9.91966 8.87592 11.5272 8.06755 12.5549 7.0975C12.7235 6.93836 12.942 6.81617 13.1958 6.77038ZM12.7654 12.9871C12.3607 12.623 11.7989 12.4168 11.2032 12.5243C10.6085 12.6316 10.1536 13.02 9.89769 13.4986C9.7024 13.8639 9.84022 14.3184 10.2055 14.5136C10.5708 14.7089 11.0252 14.5711 11.2205 14.2058C11.2912 14.0737 11.3868 14.0154 11.4695 14.0005C11.5511 13.9857 11.656 14.0067 11.7622 14.1023C12.0702 14.3793 12.5444 14.3542 12.8214 14.0463C13.0984 13.7383 13.0734 13.2641 12.7654 12.9871ZM7.65123 13.9097C7.24648 13.5456 6.68467 13.3395 6.08897 13.447C5.49432 13.5543 5.0394 13.9426 4.78349 14.4213C4.58821 14.7866 4.72603 15.241 5.09132 15.4363C5.45661 15.6316 5.91104 15.4938 6.10633 15.1285C6.17697 14.9963 6.27258 14.9381 6.35529 14.9231C6.43695 14.9084 6.54177 14.9293 6.64805 15.0249C6.956 15.3019 7.43021 15.2769 7.70723 14.9689C7.98425 14.661 7.95918 14.1868 7.65123 13.9097ZM11.589 17.1153C11.9543 17.3106 12.0921 17.765 11.8968 18.1303C11.4777 18.9144 10.7475 19.5261 9.81416 19.6945C8.87977 19.863 7.98464 19.5434 7.32438 18.9494C7.01643 18.6724 6.99136 18.1982 7.26838 17.8902C7.5454 17.5823 8.01961 17.5572 8.32756 17.8342C8.68935 18.1597 9.1275 18.2941 9.54784 18.2183C9.96923 18.1423 10.3401 17.8607 10.574 17.4231C10.7693 17.0578 11.2237 16.92 11.589 17.1153Z" fill="#141B34"/>
</svg>
