<svg width="24" height="24" viewBox="0 0 24 24" fill="none" xmlns="http://www.w3.org/2000/svg">
<path opacity="0.4" d="M6.30921 11.2893C6.2967 11.2843 6.28374 11.295 6.28612 11.3082C6.31327 11.4591 6.35567 11.609 6.4139 11.7556L6.42018 11.771L8.52707 16.753C8.85134 17.5198 8.87324 18.648 8.63946 19.5261C8.53314 19.9254 8.76992 20.3356 9.16894 20.4432L17.6228 22.723C17.8153 22.7749 18.0205 22.748 18.1931 22.6484C18.3657 22.5487 18.4916 22.3844 18.5429 22.1918L18.8205 21.1488C18.8951 20.8686 19.0853 20.6101 19.3608 20.4246C19.8229 20.1134 20.536 19.5952 20.9152 19.0688C21.2283 18.6342 21.4471 18.1372 21.6504 17.5303C21.8501 16.9343 22.0495 16.1853 22.303 15.2331L22.6611 13.8897C22.9311 12.8754 22.5803 11.8158 21.7436 11.1636C21.5174 10.9874 21.4044 10.8992 21.2533 10.9477C21.1023 10.9962 21.0556 11.154 20.9623 11.4696L20.4929 13.0563C20.4312 13.2808 20.1933 13.4144 19.9616 13.3546C19.7298 13.2949 19.592 13.0644 19.6537 12.8399L20.2138 10.8273C20.2395 10.7351 20.2523 10.689 20.2487 10.6373C20.245 10.5856 20.2286 10.5482 20.1959 10.4735C19.9544 9.92227 19.4863 9.416 18.9206 9.1124C18.7049 8.99666 18.5971 8.93879 18.4656 8.99345C18.334 9.04812 18.2935 9.18383 18.2124 9.45526L17.6778 11.2439C17.6161 11.4684 17.3782 11.602 17.1465 11.5422C16.9148 11.4824 16.7769 11.252 16.8386 11.0275L17.5065 8.74466C17.5433 8.61897 17.5616 8.55612 17.5499 8.4877C17.5381 8.41928 17.505 8.37329 17.4386 8.28131C17.1024 7.81527 16.6106 7.4574 16.0127 7.29616C15.7755 7.23285 15.6569 7.2012 15.5505 7.26108C15.549 7.26193 15.5472 7.26294 15.5457 7.26383C15.4404 7.32565 15.4048 7.45573 15.3337 7.71589L15.3026 7.82981L14.8625 9.43146C14.8008 9.65598 14.5629 9.78953 14.3312 9.72976C14.0994 9.66998 13.9616 9.43952 14.0233 9.215L15.8911 2.82153C16.0693 2.21151 15.7122 1.57398 15.0989 1.40724C14.5017 1.24484 13.8844 1.59065 13.7109 2.1848L10.8151 12.1026C10.7698 12.2675 10.6262 12.3895 10.4516 12.4115C10.277 12.4336 10.1059 12.3513 10.0186 12.2031L8.79777 10.1338C8.39079 9.44394 7.46355 9.25596 6.80882 9.72713C6.52384 9.93221 6.33909 10.2299 6.27486 10.5528C6.26056 10.6488 6.25222 10.7459 6.25 10.8435C6.2537 10.9853 6.2805 11.1281 6.33199 11.2666C6.33725 11.2808 6.32325 11.2948 6.30921 11.2893Z" fill="#141B34"/>
<path d="M8.70401 1.28557L8.66358 1.28877L7.31611 1.39523C7.0244 1.41828 6.77274 1.60887 6.6715 1.88342C6.57026 2.15796 6.63794 2.46632 6.84485 2.67323L7.5554 3.38377L6.35868 4.58049C6.06578 4.87339 6.06578 5.34826 6.35868 5.64115C6.65157 5.93405 7.12644 5.93405 7.41934 5.64115L8.61606 4.44443L9.32687 5.15524C9.53378 5.36215 9.84213 5.42983 10.1167 5.3286C10.3912 5.22736 10.5818 4.97569 10.6049 4.68399L10.7113 3.33652L10.7144 3.29776C10.7368 3.01482 10.7593 2.73161 10.7461 2.49789C10.7315 2.2392 10.6682 1.89353 10.3873 1.61257C10.1062 1.33151 9.76046 1.26837 9.50181 1.25387C9.26872 1.24081 8.98622 1.2632 8.70401 1.28557Z" fill="#141B34"/>
<path d="M5.64157 6.35846C5.34869 6.06555 4.87382 6.06554 4.58091 6.35843L3.38416 7.55512L2.67356 6.84452C2.46665 6.63761 2.15829 6.56993 1.88375 6.67117C1.6092 6.7724 1.41861 7.02407 1.39556 7.31578L1.2891 8.66325L1.28579 8.70507V8.70508C1.26346 8.98671 1.2411 9.26869 1.25405 9.50133C1.26844 9.75979 1.33135 10.1059 1.61264 10.3872C1.89383 10.6684 2.23987 10.7314 2.49838 10.7459C2.73166 10.759 3.01436 10.7366 3.29673 10.7142L3.33685 10.711L4.68432 10.6045C4.97603 10.5815 5.22769 10.3909 5.32893 10.1163C5.43017 9.8418 5.36249 9.53345 5.15558 9.32653L4.44482 8.61578L5.64154 7.41912C5.93445 7.12623 5.93446 6.65136 5.64157 6.35846Z" fill="#141B34"/>
</svg>
