<svg width="24" height="24" viewBox="0 0 24 24" fill="none" xmlns="http://www.w3.org/2000/svg">
<path d="M14.925 7.78146L15.815 8.02144C16.7982 8.28651 17.3817 9.30336 17.1182 10.2926M17.1182 10.2926L16.8797 11.1882M17.1182 10.2926C17.25 9.798 17.7552 9.50446 18.2468 9.63699C19.2299 9.90207 19.8134 10.9189 19.55 11.9082M19.55 11.9082L19.3114 12.8038M19.55 11.9082C19.6748 11.4394 20.1881 11.1955 20.6272 11.3965L20.9184 11.5298C21.7383 11.9052 22.1685 12.8221 21.9354 13.6977L21.5838 15.0165C21.0655 16.963 20.8062 17.9362 20.3052 18.6316C20.0147 19.035 19.411 19.4866 18.9402 19.8036C18.5329 20.0778 18.2208 20.4807 18.0939 20.957L17.8162 22M14.4477 9.57264L15.998 3.75113C16.1956 3.00918 15.758 2.24654 15.0207 2.04774C14.2833 1.84893 13.5253 2.28924 13.3278 3.03119L10.9516 11.9537L9.89706 10.1091C9.43436 9.29977 8.37652 9.07701 7.62967 9.63163C7.05819 10.056 6.84307 10.8163 7.10668 11.48L9.21403 16.4621C9.61722 17.4153 9.62689 18.7195 9.36044 19.7202" stroke="#141B34" stroke-width="1.5" stroke-linecap="round" stroke-linejoin="round"/>
<path opacity="0.4" d="M9.87895 4.61647C9.87895 4.61647 10.1247 2.39578 9.87895 2.1537M9.87895 2.1537C9.56011 1.83972 7.33777 2.10402 7.33777 2.10402M9.87895 2.1537L6.90588 5.09574M2.11118 7.34599C2.11118 7.34599 1.86542 9.56668 2.11118 9.80876M2.11118 9.80876C2.43001 10.1228 4.65236 9.85844 4.65236 9.85844M2.11118 9.80876L5.08424 6.86673" stroke="#141B34" stroke-width="1.5" stroke-linecap="round" stroke-linejoin="round"/>
</svg>
