<svg width="24" height="24" viewBox="0 0 24 24" fill="none" xmlns="http://www.w3.org/2000/svg">
<path d="M5 15C5 11.134 8.02208 8 11.75 8H12.25C15.9779 8 19 11.134 19 15C19 18.866 15.9779 22 12.25 22H11.75C8.02208 22 5 18.866 5 15Z" stroke="#141B34" stroke-width="1.5" stroke-linejoin="round"/>
<path d="M13.5594 2L11 8M17.9993 2L15.1779 8.5" stroke="#141B34" stroke-width="1.5" stroke-linejoin="round"/>
<path d="M10.4389 2L11.9998 5.5M5.99902 2L8.82046 8.5" stroke="#141B34" stroke-width="1.5" stroke-linejoin="round"/>
<path d="M10.5 13.5005C10.5 12.6721 11.1716 12.0005 12 12.0005C12.8284 12.0005 13.5 12.6721 13.5 13.5005C13.5 13.9103 13.3356 14.2818 13.0692 14.5525C12.2138 15.3109 11 16.5005 10.5 17.0005V18.0005H14.5" stroke="#141B34" stroke-width="1.5"/>
</svg>
