<svg width="24" height="24" viewBox="0 0 24 24" fill="none" xmlns="http://www.w3.org/2000/svg">
<path d="M8 5.00098V7.00098M12 5.00098V8.00098M16 5.00098V7.00098" stroke="#141B34" stroke-width="1.5" stroke-linejoin="round"/>
<path d="M12.0034 12.501L3.0893 7.98504L3 2.45886C3 2.4029 3.03998 2.11346 3.0893 2.11346L20.9001 2.00098C20.9552 2.00063 21 2.04525 21 2.1004V7.98504L12.0034 12.501Z" stroke="#141B34" stroke-width="1.5"/>
<path d="M11.9259 13.1697C11.9655 13.1108 12.0522 13.1108 12.0919 13.1697L13.7728 15.6699L16.6637 16.3403C16.7347 16.3567 16.7648 16.4411 16.7203 16.4988L14.8752 18.889L15.0223 21.8936C15.0258 21.9645 14.9563 22.0163 14.8893 21.9929L12.0089 20.9837L9.1751 21.9912C9.10748 22.0153 9.0373 21.9623 9.0418 21.8907L9.23072 18.889L7.2612 16.5005C7.21388 16.4431 7.24356 16.3559 7.31608 16.3394L10.245 15.67L11.9259 13.1697Z" stroke="#141B34" stroke-width="1.5"/>
</svg>
