<svg width="24" height="24" viewBox="0 0 24 24" fill="none" xmlns="http://www.w3.org/2000/svg">
<path fill-rule="evenodd" clip-rule="evenodd" d="M12 9.25C8.27208 9.25 5.25 12.2721 5.25 16C5.25 19.7279 8.27208 22.75 12 22.75C15.7279 22.75 18.75 19.7279 18.75 16C18.75 12.2721 15.7279 9.25 12 9.25ZM12.001 12.75C10.2061 12.75 8.75098 14.2051 8.75098 16C8.75098 17.7949 10.2061 19.25 12.001 19.25C13.7959 19.25 15.251 17.7949 15.251 16C15.251 14.2051 13.7959 12.75 12.001 12.75Z" fill="#141B34"/>
<path d="M15.0662 1.25C15.9527 1.24995 16.7165 1.24991 17.3281 1.33215C17.9836 1.42028 18.612 1.61902 19.1217 2.12868C19.6313 2.63835 19.8301 3.2667 19.9182 3.92221C20.0004 4.53386 20.0004 5.29767 20.0003 6.18413V6.18417L20.0005 8.56442V8.56444C20.0018 9.31483 20.0029 9.9814 19.7259 10.5837C19.4489 11.186 18.942 11.619 18.3714 12.1064L17.3178 13.0093C16.8985 13.3687 16.2672 13.3201 15.9078 12.9008C15.5483 12.4815 15.5969 11.8502 16.0162 11.4907L16.9527 10.688C17.7094 10.0394 17.8388 9.9004 17.9089 9.74799C17.979 9.59558 18.0003 9.40695 18.0003 8.41026V6.25C18.0003 5.27893 17.9982 4.65122 17.936 4.18871C17.8777 3.75497 17.7836 3.61902 17.7074 3.5429C17.6313 3.46677 17.4954 3.37263 17.0616 3.31431C16.5991 3.25213 15.9714 3.25 15.0003 3.25H13.0003V10.25C13.0003 10.8023 12.5526 11.25 12.0003 11.25C11.4481 11.25 11.0003 10.8023 11.0003 10.25V3.25H9.00034C8.02926 3.25 7.40155 3.25213 6.93905 3.31431C6.50531 3.37263 6.36936 3.46677 6.29323 3.5429C6.21711 3.61902 6.12296 3.75497 6.06465 4.18871C6.00247 4.65122 6.00034 5.27893 6.00034 6.25V8.41026C6.00034 9.40695 6.02173 9.59558 6.09183 9.74799C6.16193 9.9004 6.29123 10.0394 7.04797 10.688L7.98447 11.4907C8.40379 11.8502 8.45235 12.4815 8.09293 12.9008C7.73351 13.3201 7.10221 13.3687 6.68288 13.0093L5.62922 12.1064C5.05866 11.619 4.55182 11.186 4.2748 10.5837C3.99778 9.9814 3.9989 9.31482 4.00017 8.56442L4.00034 6.18417C4.00029 5.29769 4.00025 4.53387 4.08248 3.92221C4.17061 3.2667 4.36936 2.63835 4.87902 2.12868C5.38868 1.61902 6.01703 1.42028 6.67255 1.33215C7.28421 1.24991 8.04802 1.24995 8.93451 1.25L15.0662 1.25Z" fill="#141B34"/>
</svg>
