<svg width="24" height="24" viewBox="0 0 24 24" fill="none" xmlns="http://www.w3.org/2000/svg">
<path opacity="0.4" d="M12.9857 2C13.0503 2 13.1157 2 13.1818 2C14.8751 2 15.7217 2 16.3979 2.2522C17.4849 2.65765 18.3424 3.5151 18.7478 4.60214C19 5.27832 19 6.12494 19 7.81818V17.5C19 17.9643 19 18.1965 18.9807 18.3921C18.7937 20.2912 17.2912 21.7937 15.3921 21.9807C15.1965 22 14.9643 22 14.5 22H10.2727C7.20336 22 5.66867 22 4.60289 21.2022C4.29752 20.9736 4.02643 20.7025 3.79784 20.3971C3 19.3313 3 17.7966 3 14.7273V12.1818C3 12.1157 3 12.0503 3 11.9857C3.00006 11.9905 3.00008 11.9953 3.00008 12.0001C3.00008 10.1591 4.49247 8.66675 6.33342 8.66675H7.44453C7.96117 8.66675 8.21951 8.66675 8.43145 8.60996C9.0066 8.45585 9.45585 8.0066 9.60996 7.43145C9.66675 7.21951 9.66675 6.96118 9.66675 6.44453V5.33342C9.66675 3.49247 11.1591 2.00008 13.0001 2.00008C12.9953 2.00008 12.9905 2.00006 12.9857 2Z" fill="#141B34"/>
<path d="M19 9V7.81818C19 6.12494 19 5.27832 18.7478 4.60214C18.3424 3.5151 17.4849 2.65765 16.3979 2.2522C15.7217 2 14.8751 2 13.1818 2C10.2186 2 8.73706 2 7.55375 2.44135C5.65142 3.15088 4.15088 4.65142 3.44135 6.55375C3 7.73706 3 9.21865 3 12.1818L3 14.7273C3 17.7966 3 19.3313 3.79783 20.3971C4.02643 20.7025 4.29752 20.9736 4.60289 21.2022C5.66867 22 7.20336 22 10.2727 22H11C12.1698 22 14.5 22 14.5 22" stroke="#141B34" stroke-width="1.5" stroke-linecap="round" stroke-linejoin="round"/>
<path d="M11 14.3333H11.8403C12.5019 14.3333 12.8326 14.3333 13.0985 14.5076C13.3643 14.6818 13.5122 14.9956 13.8081 15.6232L15.4 19L17.6 12L19.1919 15.3768C19.4878 16.0044 19.6357 16.3182 19.9015 16.4924C20.1674 16.6667 20.4981 16.6667 21.1597 16.6667H22" stroke="#141B34" stroke-width="1.5" stroke-linecap="round" stroke-linejoin="round"/>
<path d="M3 12C3 10.1591 4.49238 8.66667 6.33333 8.66667H7.44444C7.9611 8.66667 8.21942 8.66667 8.43137 8.60988C9.00652 8.45576 9.45576 8.00652 9.60988 7.43136C9.66667 7.21942 9.66667 6.9611 9.66667 6.44444V5.33333C9.66667 3.49238 11.1591 2 13 2" stroke="#141B34" stroke-width="1.5" stroke-linecap="round" stroke-linejoin="round"/>
</svg>
