<svg width="24" height="24" viewBox="0 0 24 24" fill="none" xmlns="http://www.w3.org/2000/svg">
<path fill-rule="evenodd" clip-rule="evenodd" d="M1.73674 11.4166C1.50223 11.358 1.38498 11.3287 1.32069 11.2362C1.25639 11.1437 1.26928 11.028 1.29506 10.7966C1.89332 5.42595 6.44822 1.25 11.9785 1.25C17.5087 1.25 22.0636 5.426 22.6619 10.7966C22.6876 11.0281 22.7005 11.1438 22.6362 11.2363C22.5719 11.3288 22.4547 11.3581 22.2202 11.4167L17.8103 12.5192C17.5895 12.5744 17.4791 12.602 17.3925 12.5702C17.3059 12.5385 17.2227 12.4226 17.0563 12.1908C16.8604 11.9181 16.6093 11.7075 16.3186 11.5567C15.8514 11.3144 15.3285 11.2502 14.861 11.2502H9.09628C8.62819 11.2502 8.10473 11.3145 7.63717 11.5573C7.34684 11.708 7.09618 11.9185 6.90054 12.1908C6.7341 12.4225 6.65088 12.5384 6.5643 12.5701C6.47773 12.6019 6.36733 12.5743 6.14654 12.5191L1.73674 11.4166ZM1.35758 13.6712C1.30057 13.3059 1.27207 13.1233 1.39095 13.0147C1.50984 12.9061 1.69633 12.9527 2.06931 13.0459L5.7975 13.978C6.04092 14.0388 6.16264 14.0693 6.22679 14.1582C6.29095 14.2472 6.28099 14.3775 6.26109 14.6383C6.22836 15.0668 6.22038 15.5077 6.23716 15.9423C6.25054 16.2888 6.25722 16.4621 6.15911 16.5555C6.061 16.649 5.89512 16.6344 5.56334 16.6054L2.47941 16.3352C2.30486 16.3199 2.21759 16.3122 2.14939 16.2615C2.08119 16.2108 2.04997 16.1324 1.98753 15.9756C1.696 15.2436 1.48258 14.472 1.35758 13.6712ZM4.2188 17.999C3.67559 17.9502 3.40398 17.9258 3.31101 18.1034C3.21804 18.2809 3.3859 18.482 3.72163 18.8843C5.69357 21.2468 8.66047 22.75 11.9785 22.75C15.2964 22.75 18.2633 21.2468 20.2353 18.8843C20.571 18.4821 20.7388 18.281 20.6459 18.1034C20.5529 17.9259 20.2813 17.9502 19.7381 17.999L17.7487 18.1775C17.5725 18.1934 17.4844 18.2013 17.4212 18.2431C17.358 18.2848 17.3069 18.3802 17.2047 18.5711C16.9951 18.9622 16.689 19.2515 16.3186 19.4436C15.8514 19.686 15.3285 19.7502 14.861 19.7502H9.09628C8.62894 19.7502 8.10616 19.686 7.639 19.4438C7.26854 19.2517 6.96241 18.9624 6.75278 18.5711C6.65054 18.3803 6.59941 18.2849 6.53622 18.2431C6.47303 18.2013 6.38493 18.1934 6.20872 18.1776L4.2188 17.999ZM21.9694 15.9757C21.9069 16.1324 21.8757 16.2108 21.8075 16.2615C21.7393 16.3123 21.652 16.3199 21.4775 16.3352L18.394 16.6054C18.0622 16.6344 17.8963 16.649 17.7982 16.5555C17.7001 16.4621 17.7068 16.2888 17.7201 15.9423C17.7369 15.5078 17.7289 15.0669 17.6961 14.6384C17.6761 14.3776 17.6662 14.2472 17.7303 14.1583C17.7945 14.0693 17.9162 14.0389 18.1597 13.978L21.8876 13.046C22.2606 12.9528 22.4471 12.9062 22.5659 13.0148C22.6848 13.1234 22.6563 13.306 22.5993 13.6713C22.4743 14.4721 22.2609 15.2437 21.9694 15.9757ZM6.94812 8.46967C7.40892 8.00887 8.0339 7.75 8.68556 7.75H9.97845C10.3927 7.75 10.7285 8.08579 10.7285 8.5C10.7285 8.91421 10.3927 9.25 9.97845 9.25H8.68556C8.43172 9.25 8.18828 9.35084 8.00879 9.53033C7.71589 9.82322 7.24102 9.82322 6.94812 9.53033C6.65523 9.23744 6.65523 8.76256 6.94812 8.46967ZM13.2285 8.5C13.2285 8.08579 13.5642 7.75 13.9785 7.75H15.2713C15.923 7.75 16.548 8.00887 17.0088 8.46967C17.3017 8.76256 17.3017 9.23744 17.0088 9.53033C16.7159 9.82322 16.241 9.82322 15.9481 9.53033C15.7686 9.35084 15.5252 9.25 15.2713 9.25H13.9785C13.5642 9.25 13.2285 8.91421 13.2285 8.5ZM8.00784 13.301C8.07844 13.0689 8.1912 12.9598 8.32841 12.8885C8.49428 12.8024 8.74461 12.7502 9.09628 12.7502H14.861C15.2121 12.7502 15.4622 12.8023 15.6281 12.8883C15.7653 12.9595 15.8779 13.0684 15.9485 13.2997C16.322 14.524 16.322 16.4764 15.9485 17.7006C15.8779 17.9319 15.7653 18.0409 15.6281 18.1121C15.4622 18.1981 15.2121 18.2502 14.861 18.2502H9.09628C8.74533 18.2502 8.49526 18.1981 8.32943 18.1121C8.1922 18.041 8.07964 17.9321 8.00908 17.701C7.63551 16.4774 7.63521 14.5259 8.00784 13.301Z" fill="#141B34"/>
</svg>
