<svg width="24" height="24" viewBox="0 0 24 24" fill="none" xmlns="http://www.w3.org/2000/svg">
<path fill-rule="evenodd" clip-rule="evenodd" d="M11.2105 2.25H11.2105H11.2105H12.0859V7.20705H15.904L15.8611 7.24995L19.043 10.4319L21.8846 7.59033C22.3531 8.59431 22.6471 9.69693 22.7278 10.8595C22.75 11.1796 22.75 11.5514 22.75 12.2105V12.2895C22.75 12.9486 22.75 13.3204 22.7278 13.6405C22.4082 18.2443 18.7443 21.9082 14.1405 22.2278C13.8204 22.25 13.4486 22.25 12.7895 22.25H11.2105C10.5514 22.25 10.1796 22.25 9.85949 22.2278C8.63831 22.143 7.48219 21.8226 6.43709 21.3113L1.47483 22.75L2.77921 18.0954C1.92471 16.8022 1.38603 15.2804 1.2722 13.6405C1.24999 13.3205 1.24999 12.9486 1.25 12.2895V12.2895V12.2895V12.2105V12.2105V12.2104C1.24999 11.5514 1.24999 11.1795 1.2722 10.8595C1.59176 6.25571 5.25571 2.59176 9.85949 2.2722C10.1795 2.24999 10.5514 2.24999 11.2105 2.25ZM7.5 14.2499H16.5V15.7499H7.5V14.2499ZM7.5 9.24988H13V10.7499H7.5V9.24988Z" fill="#141B34"/>
<path fill-rule="evenodd" clip-rule="evenodd" d="M19.043 1.25L22.7502 4.95711L19.043 8.66421L17.6288 7.25L18.9217 5.95711H13.3359V3.95711L18.9217 3.95711L17.6288 2.66421L19.043 1.25Z" fill="#141B34"/>
</svg>
