<svg width="24" height="24" viewBox="0 0 24 24" fill="none" xmlns="http://www.w3.org/2000/svg">
<path fill-rule="evenodd" clip-rule="evenodd" d="M11.2775 2.25384C10.774 2.26445 10.2731 2.28616 9.77965 2.31896C5.213 2.62252 1.58972 6.30881 1.2918 10.9186C1.23607 11.781 1.23607 12.6731 1.2918 13.5355C1.40272 15.2519 2.15148 16.8002 2.98381 18.0567C3.23314 18.5382 3.10323 19.2603 2.6369 20.144L2.61542 20.1847C2.45874 20.4815 2.30536 20.772 2.21688 21.0196C2.12313 21.282 2.02623 21.6987 2.26791 22.1108C2.48996 22.4894 2.84475 22.628 3.13152 22.6835C3.36961 22.7296 3.66155 22.7366 3.93544 22.7431L3.98117 22.7442C5.40092 22.7788 6.40136 22.3688 7.1938 21.7845L7.28907 21.7143C7.40859 21.6264 7.46835 21.5825 7.54604 21.5728C7.62373 21.5632 7.69203 21.591 7.82861 21.6467C7.89626 21.6743 7.97233 21.7056 8.05839 21.741C8.59978 21.964 9.21472 22.0976 9.77965 22.1351C11.2369 22.232 12.7601 22.2322 14.2204 22.1351C18.787 21.8316 22.4103 18.1453 22.7082 13.5355C22.7639 12.6731 22.7639 11.781 22.7082 10.9186C22.6841 10.5458 22.6383 10.1791 22.5719 9.81966C22.4919 9.38616 22.4519 9.16941 22.2877 9.11187C22.1234 9.05434 21.9406 9.21288 21.5751 9.52996C21.326 9.74594 21.0605 9.95566 20.7789 10.1584L20.7109 10.2076C20.1905 10.5852 19.2741 11.2501 17.9999 11.2501C16.7256 11.2501 15.7402 10.5352 15.2199 10.1577C13.2391 8.73189 12.0564 6.95873 11.8008 5.10567C11.7092 4.44144 11.7441 3.77035 11.9041 3.13912C12.0165 2.69548 12.0728 2.47366 11.9802 2.35732C11.8877 2.24098 11.6843 2.24527 11.2775 2.25384ZM8.5 15.7499C8.08579 15.7499 7.75 15.4141 7.75 14.9999C7.75 14.5857 8.08579 14.2499 8.5 14.2499H15.5C15.9142 14.2499 16.25 14.5857 16.25 14.9999C16.25 15.4141 15.9142 15.7499 15.5 15.7499H8.5ZM8.5 10.7499C8.08579 10.7499 7.75 10.4141 7.75 9.99988C7.75 9.58567 8.08579 9.24988 8.5 9.24988H12C12.4142 9.24988 12.75 9.58567 12.75 9.99988C12.75 10.4141 12.4142 10.7499 12 10.7499H8.5Z" fill="#141B34"/>
<path d="M17.9996 1.78934C18.7725 1.23972 20.0195 0.938062 21.3688 1.74274C22.3751 2.34288 22.8968 3.56706 22.7128 4.90087C22.5274 6.24475 21.645 7.68711 19.9019 8.94146C19.348 9.34117 18.7809 9.75028 17.9996 9.75028C17.2183 9.75028 16.6513 9.34117 16.0974 8.94146C14.3543 7.68711 13.4719 6.24475 13.2865 4.90087C13.1025 3.56706 13.6241 2.34288 14.6305 1.74274C15.9798 0.938062 17.2268 1.23972 17.9996 1.78934Z" fill="#141B34"/>
</svg>
