<svg width="24" height="24" viewBox="0 0 24 24" fill="none" xmlns="http://www.w3.org/2000/svg">
<path opacity="0.4" d="M14.2204 1.82273C12.7601 1.72566 11.2369 1.72586 9.77965 1.82273C5.213 2.12629 1.58972 5.81258 1.2918 10.4224C1.23607 11.2848 1.23607 12.1768 1.2918 13.0392C1.40272 14.7556 2.15148 16.304 2.98381 17.5604C3.23314 18.0419 3.10323 18.7641 2.6369 19.6478L2.61542 19.6885C2.45874 19.9852 2.30536 20.2757 2.21688 20.5234C2.12313 20.7858 2.02623 21.2025 2.26791 21.6145C2.48996 21.9931 2.84475 22.1318 3.13152 22.1873C3.36961 22.2334 3.66155 22.2403 3.93544 22.2469L3.98117 22.248C5.40092 22.2825 6.40136 21.8726 7.1938 21.2883C7.35108 21.1723 7.45909 21.0929 7.54041 21.037C7.65868 21.0804 7.8203 21.1467 8.05839 21.2448C8.59978 21.4677 9.21472 21.6013 9.77965 21.6389C11.2369 21.7357 12.7601 21.7359 14.2204 21.6389C18.787 21.3353 22.4103 17.649 22.7082 13.0392C22.7639 12.1768 22.7639 11.2848 22.7082 10.4224C22.4103 5.81258 18.787 2.12629 14.2204 1.82273Z" fill="#141B34"/>
<path fill-rule="evenodd" clip-rule="evenodd" d="M6.99976 12C6.99976 11.4477 7.44747 11 7.99976 11H8.00873C8.56101 11 9.00873 11.4477 9.00873 12C9.00873 12.5523 8.56101 13 8.00873 13H7.99976C7.44747 13 6.99976 12.5523 6.99976 12ZM10.9953 12C10.9953 11.4477 11.443 11 11.9953 11H12.0042C12.5565 11 13.0042 11.4477 13.0042 12C13.0042 12.5523 12.5565 13 12.0042 13H11.9953C11.443 13 10.9953 12.5523 10.9953 12ZM14.9908 12C14.9908 11.4477 15.4385 11 15.9908 11H15.9998C16.552 11 16.9998 11.4477 16.9998 12C16.9998 12.5523 16.552 13 15.9998 13H15.9908C15.4385 13 14.9908 12.5523 14.9908 12Z" fill="#141B34"/>
</svg>
