<svg width="24" height="24" viewBox="0 0 24 24" fill="none" xmlns="http://www.w3.org/2000/svg">
<path fill-rule="evenodd" clip-rule="evenodd" d="M18.457 1.4181C17.217 1.24997 15.6214 1.24999 13.5985 1.25H10.4014C8.37853 1.24999 6.78298 1.24997 5.54295 1.4181C4.27083 1.59057 3.25173 1.95352 2.47077 2.77292C1.68818 3.59401 1.38232 4.62406 1.28662 5.89166C1.19358 7.12423 1.29324 8.69571 1.41931 10.6838L1.60884 13.6729C1.66237 14.5191 1.69642 15.0574 1.82138 15.5217C2.30302 17.3112 3.77278 18.667 5.60172 19.0266C6.07656 19.12 6.62073 19.1199 7.48362 19.1198C7.7011 19.1042 8.13604 19.1903 8.13604 19.6601L8.13604 20.6004C8.13595 20.9777 8.13588 21.3417 8.1786 21.6266C8.22373 21.9275 8.3496 22.3778 8.81021 22.6208C9.26658 22.8615 9.70825 22.7167 9.9829 22.5889C10.2454 22.4667 10.5513 22.2656 10.8705 22.0557L15.1394 19.2505C15.1915 19.2109 15.3371 19.1198 15.7498 19.1198C17.3305 19.1202 18.3302 19.1205 19.1658 18.8103C20.3844 18.3578 21.3733 17.4439 21.9102 16.2673C22.2785 15.4601 22.3409 14.4711 22.4389 12.9203L22.5806 10.6838V10.6837V10.6837V10.6837V10.6837C22.7067 8.69565 22.8064 7.12421 22.7133 5.89166C22.6176 4.62406 22.3118 3.59401 21.5292 2.77292C20.7482 1.95352 19.7291 1.59057 18.457 1.4181ZM15.3472 8.75748C14.9289 8.3969 14.8821 7.76547 15.2427 7.34714C15.6032 6.9288 16.2347 6.88198 16.653 7.24255L17.8795 8.29975L17.9166 8.33166C18.1416 8.52548 18.3807 8.7314 18.5555 8.92891C18.7532 9.15222 19.0001 9.50662 19.0001 10C19.0001 10.4934 18.7532 10.8478 18.5555 11.0711C18.3807 11.2686 18.1416 11.4746 17.9166 11.6684L17.8795 11.7003L16.653 12.7575C16.2347 13.1181 15.6032 13.0712 15.2427 12.6529C14.8821 12.2346 14.9289 11.6031 15.3472 11.2426L16.5738 10.1854C16.6554 10.1151 16.7257 10.0544 16.7877 10C16.7257 9.94562 16.6554 9.88498 16.5738 9.81467L15.3472 8.75748ZM8.75758 7.34714C9.11816 7.76547 9.07134 8.3969 8.653 8.75748L7.42646 9.81467C7.34489 9.88498 7.27457 9.94562 7.21254 10C7.27457 10.0544 7.34489 10.1151 7.42646 10.1854L8.653 11.2426C9.07134 11.6031 9.11816 12.2346 8.75758 12.6529C8.39701 13.0712 7.76558 13.1181 7.34724 12.7575L6.1207 11.7003L6.08366 11.6684L6.08365 11.6684C5.85862 11.4746 5.61953 11.2686 5.44471 11.0711C5.24703 10.8478 5.00012 10.4934 5.00012 10C5.00012 9.50662 5.24703 9.15222 5.44471 8.92891C5.61954 8.7314 5.85863 8.52548 6.08366 8.33166L6.1207 8.29975L7.34724 7.24255C7.76558 6.88198 8.39701 6.9288 8.75758 7.34714ZM13.9491 7.3165C14.1237 6.79256 13.8406 6.22624 13.3166 6.05159C12.7927 5.87694 12.2264 6.1601 12.0517 6.68404L10.0517 12.684C9.87706 13.208 10.1602 13.7743 10.6842 13.949C11.2081 14.1236 11.7744 13.8404 11.9491 13.3165L13.9491 7.3165Z" fill="#141B34"/>
</svg>
