<svg width="24" height="24" viewBox="0 0 24 24" fill="none" xmlns="http://www.w3.org/2000/svg">
<path fill-rule="evenodd" clip-rule="evenodd" d="M17.5 1.25C16.23 1.25 15.1557 1.78236 14.3443 2.38563C13.5323 2.9894 12.9365 3.69826 12.6049 4.14117C12.4977 4.28016 12.25 4.60165 12.25 5C12.25 5.39835 12.4977 5.71984 12.6049 5.85883C12.9365 6.30174 13.5323 7.01061 14.3443 7.61437C15.1557 8.21764 16.23 8.75 17.5 8.75C18.77 8.75 19.8443 8.21764 20.6557 7.61437C21.4677 7.0106 22.0635 6.30174 22.3951 5.85883C22.5023 5.71984 22.75 5.39835 22.75 5C22.75 4.60165 22.5023 4.28016 22.3951 4.14117C22.0635 3.69826 21.4677 2.98939 20.6557 2.38563C19.8443 1.78236 18.77 1.25 17.5 1.25ZM17.4933 3.5C16.6686 3.5 16 4.17157 16 5C16 5.82843 16.6686 6.5 17.4933 6.5H17.5067C18.3314 6.5 19 5.82843 19 5C19 4.17157 18.3314 3.5 17.5067 3.5H17.4933Z" fill="#141B34"/>
<path fill-rule="evenodd" clip-rule="evenodd" d="M11.8359 2.45658C11.8832 2.6042 11.7262 2.81334 11.4121 3.23162L11.4029 3.2434C11.281 3.39857 10.75 4.07445 10.75 5.00012C10.75 5.9258 11.281 6.60168 11.4029 6.75685L11.4121 6.76864C11.7941 7.27739 12.4861 8.10208 13.4493 8.81823C14.4169 9.53766 15.7997 10.2501 17.5 10.2501C19.2003 10.2501 20.5831 9.53765 21.5507 8.81823C21.8133 8.62293 21.9447 8.52528 22.0649 8.54084C22.1056 8.5461 22.1447 8.55964 22.18 8.58064C22.2841 8.64269 22.323 8.78571 22.4007 9.07174L22.4007 9.07176C22.5625 9.66673 22.6671 10.2858 22.7082 10.9225C22.7639 11.7849 22.7639 12.677 22.7082 13.5394C22.4103 18.1491 18.787 21.8354 14.2204 22.139C12.7601 22.2361 11.2369 22.2359 9.77965 22.139C9.21472 22.1014 8.59978 21.9679 8.05839 21.7449C7.97233 21.7094 7.89626 21.6781 7.82861 21.6506C7.69203 21.5949 7.62373 21.5671 7.54604 21.5767C7.46835 21.5864 7.40859 21.6303 7.28907 21.7182L7.1938 21.7884C6.40136 22.3727 5.40092 22.7826 3.98117 22.7481L3.93544 22.747C3.66155 22.7404 3.36961 22.7335 3.13152 22.6874C2.84475 22.6319 2.48996 22.4933 2.26791 22.1147C2.02623 21.7026 2.12313 21.2859 2.21688 21.0235C2.30536 20.7758 2.45874 20.4854 2.61542 20.1886L2.6369 20.1479C3.10323 19.2642 3.23314 18.5421 2.98381 18.0606C2.15148 16.8041 1.40272 15.2557 1.2918 13.5394C1.23607 12.677 1.23607 11.7849 1.2918 10.9225C1.58972 6.3127 5.213 2.62641 9.77965 2.32285C10.1685 2.297 10.562 2.27804 10.9577 2.26597C11.4499 2.25096 11.696 2.24345 11.7895 2.36709C11.8107 2.39508 11.8252 2.42315 11.8359 2.45658ZM8 11.5001C7.44772 11.5001 7 11.9478 7 12.5001C7 13.0524 7.44772 13.5001 8 13.5001H8.00897C8.56126 13.5001 9.00897 13.0524 9.00897 12.5001C9.00897 11.9478 8.56126 11.5001 8.00897 11.5001H8ZM11.9955 11.5001C11.4432 11.5001 10.9955 11.9478 10.9955 12.5001C10.9955 13.0524 11.4432 13.5001 11.9955 13.5001H12.0045C12.5568 13.5001 13.0045 13.0524 13.0045 12.5001C13.0045 11.9478 12.5568 11.5001 12.0045 11.5001H11.9955ZM15.991 11.5001C15.4387 11.5001 14.991 11.9478 14.991 12.5001C14.991 13.0524 15.4387 13.5001 15.991 13.5001H16C16.5523 13.5001 17 13.0524 17 12.5001C17 11.9478 16.5523 11.5001 16 11.5001H15.991Z" fill="#141B34"/>
</svg>
