<svg width="24" height="24" viewBox="0 0 24 24" fill="none" xmlns="http://www.w3.org/2000/svg">
<path fill-rule="evenodd" clip-rule="evenodd" d="M15.1679 1.41789C15.5584 1.02737 16.1916 1.02737 16.5821 1.41789L18.875 3.71079L21.1679 1.41789C21.5584 1.02737 22.1916 1.02737 22.5821 1.41789C22.9726 1.80842 22.9726 2.44158 22.5821 2.83211L20.2892 5.125L22.5821 7.41789C22.9726 7.80842 22.9726 8.44158 22.5821 8.83211C22.1916 9.22263 21.5584 9.22263 21.1679 8.83211L18.875 6.53921L16.5821 8.83211C16.1916 9.22263 15.5584 9.22263 15.1679 8.83211C14.7774 8.44158 14.7774 7.80842 15.1679 7.41789L17.4608 5.125L15.1679 2.83211C14.7774 2.44158 14.7774 1.80842 15.1679 1.41789Z" fill="#141B34"/>
<path fill-rule="evenodd" clip-rule="evenodd" d="M13.5002 2.90807L13.5002 2.90807C13.6186 3.26806 13.821 3.60649 14.1072 3.89275L14.9152 4.70072C15.1152 4.90072 15.2152 5.00072 15.2152 5.12499C15.2152 5.24925 15.1152 5.34925 14.9152 5.54925L14.1072 6.35722C13.1309 7.33353 13.1309 8.91644 14.1072 9.89276C15.0835 10.8691 16.6665 10.8691 17.6428 9.89275L18.4507 9.08479C18.6507 8.88479 18.7507 8.78479 18.875 8.78479C18.9993 8.78479 19.0993 8.88479 19.2993 9.08479L20.1072 9.89275C20.635 10.4206 21.3401 10.663 22.0308 10.6202L22.0309 10.6202C22.2178 10.6086 22.3112 10.6028 22.365 10.62C22.4525 10.648 22.5064 10.6956 22.5453 10.7788C22.5692 10.83 22.5738 10.9024 22.5832 11.0473C22.6389 11.9098 22.6389 12.8018 22.5832 13.6642C22.2853 18.274 18.662 21.9603 14.0954 22.2639C12.6351 22.3609 11.1119 22.3607 9.65465 22.2639C9.08972 22.2263 8.47478 22.0927 7.93339 21.8698C7.84733 21.8343 7.77126 21.803 7.70361 21.7754C7.56703 21.7198 7.49873 21.6919 7.42104 21.7016C7.34335 21.7112 7.28359 21.7552 7.16407 21.8431L7.0688 21.9132C6.27636 22.4976 5.27592 22.9075 3.85617 22.873L3.81044 22.8719C3.53655 22.8653 3.24461 22.8583 3.00652 22.8123C2.71975 22.7568 2.36496 22.6181 2.14291 22.2395C1.90123 21.8275 1.99813 21.4108 2.09188 21.1484C2.18036 20.9007 2.33374 20.6102 2.49042 20.3135L2.5119 20.2728C2.97823 19.3891 3.10814 18.6669 2.85881 18.1854C2.02648 16.929 1.27772 15.3806 1.1668 13.6642C1.11107 12.8018 1.11107 11.9098 1.1668 11.0473C1.46472 6.43756 5.088 2.75127 9.65465 2.44771C10.7112 2.37748 11.8025 2.35806 12.8793 2.3897C13.1054 2.39634 13.2185 2.39966 13.2944 2.45634C13.3703 2.51301 13.4136 2.6447 13.5002 2.90807ZM7.875 11.625C7.32272 11.625 6.875 12.0727 6.875 12.625C6.875 13.1773 7.32272 13.625 7.875 13.625H7.88397C8.43626 13.625 8.88397 13.1773 8.88397 12.625C8.88397 12.0727 8.43626 11.625 7.88397 11.625H7.875ZM11.8705 11.625C11.3182 11.625 10.8705 12.0727 10.8705 12.625C10.8705 13.1773 11.3182 13.625 11.8705 13.625H11.8795C12.4318 13.625 12.8795 13.1773 12.8795 12.625C12.8795 12.0727 12.4318 11.625 11.8795 11.625H11.8705ZM15.866 11.625C15.3137 11.625 14.866 12.0727 14.866 12.625C14.866 13.1773 15.3137 13.625 15.866 13.625H15.875C16.4273 13.625 16.875 13.1773 16.875 12.625C16.875 12.0727 16.4273 11.625 15.875 11.625H15.866Z" fill="#141B34"/>
</svg>
