<svg width="24" height="24" viewBox="0 0 24 24" fill="none" xmlns="http://www.w3.org/2000/svg">
<path d="M10.4114 9.55221C10.4114 8.70088 11.0761 8.01074 11.896 8.01074C12.7158 8.01074 13.3805 8.70088 13.3805 9.55221C13.3805 9.85908 13.2941 10.145 13.1453 10.3852C12.7017 11.1012 11.896 11.7838 11.896 12.6352V13.0205" stroke="#141B34" stroke-width="1.5"/>
<path d="M11.896 15.0244H11.905" stroke="#141B34" stroke-width="1.5" stroke-linecap="square" stroke-linejoin="round"/>
<path d="M9.87242 2.51381C2.12759 3.42115 -0.0938029 12.1578 3.61371 17.4968L2.15696 21.2985C2.12674 21.3774 2.20186 21.4559 2.28198 21.4291L6.42853 20.0462C8.36193 21.3331 14.9887 21.6279 17.2968 20.0508C20.2408 18.5465 23.0881 14.719 21.3078 8.19318C20.8907 6.66444 18.7251 2.65049 13.3675 2.50151M9.87242 2.51381C10.0342 2.50464 10.1978 2.5 10.3631 2.5M9.87242 2.51381L13.3675 2.50151M13.3675 2.50151L13.7977 2.5M13.3675 2.50151C13.3474 2.50095 13.3272 2.50045 13.3071 2.5" stroke="#141B34" stroke-width="1.5"/>
</svg>
