<svg width="24" height="24" viewBox="0 0 24 24" fill="none" xmlns="http://www.w3.org/2000/svg">
<path d="M21.3358 22.75L1.25 2.66421L2.66421 1.25L22.75 21.3358L21.3358 22.75Z" fill="#141B34"/>
<path d="M12.7893 1.75C13.4484 1.74999 13.8202 1.74999 14.1403 1.7722C18.744 2.09176 22.408 5.75571 22.7276 10.3595C22.7498 10.6796 22.7498 11.0514 22.7498 11.7105V11.7895C22.7498 12.4486 22.7498 12.8204 22.7276 13.1405C22.6121 14.804 22.06 16.3448 21.1847 17.6494L6.29487 2.75958C7.37635 2.20714 8.58161 1.86089 9.85925 1.7722C10.1793 1.74999 10.5512 1.74999 11.2102 1.75H11.2103H12.7893H12.7893Z" fill="#141B34"/>
<path d="M14.1403 21.7278C13.8202 21.75 13.4484 21.75 12.7893 21.75H11.2102C10.5512 21.75 10.1793 21.75 9.85925 21.7278C8.63806 21.643 7.48195 21.3226 6.43685 20.8113L1.47458 22.25L2.77896 17.5954C1.92447 16.3022 1.38579 14.7804 1.27196 13.1405C1.24974 12.8204 1.24975 12.4486 1.24976 11.7895V11.7895V11.7105V11.7105C1.24975 11.0514 1.24974 10.6796 1.27196 10.3595C1.44043 7.93232 2.53849 5.76637 4.21378 4.21402L19.5214 19.5217C18.0561 20.7792 16.1914 21.5854 14.1403 21.7278Z" fill="#141B34"/>
</svg>
