<svg width="24" height="24" viewBox="0 0 24 24" fill="none" xmlns="http://www.w3.org/2000/svg">
<path fill-rule="evenodd" clip-rule="evenodd" d="M1.29289 1.29289C1.68342 0.902369 2.31658 0.902369 2.70711 1.29289L22.7071 21.2929C23.0976 21.6834 23.0976 22.3166 22.7071 22.7071C22.3166 23.0976 21.6834 23.0976 21.2929 22.7071L1.29289 2.70711C0.902369 2.31658 0.902369 1.68342 1.29289 1.29289Z" fill="#141B34"/>
<path d="M6.25 7V11C6.25 14.1756 8.82436 16.75 12 16.75C13.0898 16.75 14.1087 16.4468 14.9772 15.9202C15.2338 15.7646 15.3621 15.6868 15.3796 15.5419C15.3971 15.397 15.2833 15.2831 15.0555 15.0554L6.79426 6.79414C6.76014 6.76001 6.74307 6.74295 6.72091 6.72759C6.55245 6.61081 6.29136 6.71896 6.25481 6.92065C6.25 6.94718 6.25 6.96479 6.25 7Z" fill="#141B34"/>
<path d="M17.75 9.65V8.35C17.75 8.06716 17.75 7.92573 17.6621 7.83787C17.5743 7.75 17.4328 7.75 17.15 7.75H14C13.5858 7.75 13.25 7.41421 13.25 7C13.25 6.58579 13.5858 6.25 14 6.25H17.0183C17.3425 6.25 17.5046 6.25 17.5947 6.13416C17.6847 6.01832 17.6475 5.87191 17.5731 5.57911C16.9406 3.09067 14.6852 1.25 12 1.25C10.2178 1.25 8.62506 2.06077 7.57037 3.33358C7.42537 3.50856 7.35287 3.59606 7.3583 3.71206C7.36372 3.82806 7.44982 3.91417 7.62202 4.08637L13.6099 10.0743C13.6966 10.161 13.74 10.2043 13.7951 10.2272C13.8502 10.25 13.9116 10.25 14.0342 10.25H17.15C17.4328 10.25 17.5743 10.25 17.6621 10.1621C17.75 10.0743 17.75 9.93284 17.75 9.65Z" fill="#141B34"/>
<path d="M17.5947 11.8658C17.6847 11.9817 17.6475 12.1281 17.5731 12.4209C17.5376 12.5606 17.497 12.6982 17.4515 12.8336C17.3373 13.1732 17.2802 13.343 17.1176 13.3812C16.955 13.4193 16.8189 13.2832 16.5467 13.011L15.6271 12.0914C15.4818 11.9461 15.4091 11.8735 15.4347 11.8117C15.4603 11.75 15.563 11.75 15.7685 11.75H17.0183C17.3425 11.75 17.5046 11.75 17.5947 11.8658Z" fill="#141B34"/>
<path d="M4.22222 10.25C4.75917 10.25 5.19444 10.6805 5.19444 11.2115C5.19444 14.9288 8.2414 17.9423 12 17.9423C13.664 17.9423 15.1885 17.3517 16.3709 16.3708L17.7418 17.7417C16.435 18.8666 14.7873 19.6141 12.9722 19.8126V20.8269H14.9167C15.4536 20.8269 15.8889 21.2574 15.8889 21.7885C15.8889 22.3195 15.4536 22.75 14.9167 22.75H9.08333C8.54639 22.75 8.11111 22.3195 8.11111 21.7885C8.11111 21.2574 8.54639 20.8269 9.08333 20.8269H11.0278V19.8126C6.65283 19.3343 3.25 15.6659 3.25 11.2115C3.25 10.6805 3.68528 10.25 4.22222 10.25Z" fill="#141B34"/>
<path d="M18.8056 11.2115C18.8056 10.6805 19.2408 10.25 19.7778 10.25C20.3147 10.25 20.75 10.6805 20.75 11.2115C20.75 12.6537 20.3933 14.0135 19.7624 15.2092C19.6076 15.5028 19.5301 15.6496 19.3803 15.6722C19.2305 15.6948 19.1073 15.5717 18.8611 15.3254L18.2934 14.7578C18.1427 14.607 18.0673 14.5316 18.0509 14.4383C18.0345 14.345 18.0827 14.242 18.1792 14.0359C18.5812 13.177 18.8056 12.2202 18.8056 11.2115Z" fill="#141B34"/>
</svg>
