<svg width="24" height="24" viewBox="0 0 24 24" fill="none" xmlns="http://www.w3.org/2000/svg">
<path d="M19.8983 21.8779V19.8789C20.4639 18.7227 21.9101 16.5254 21.9987 14.428C22.1623 12.6211 20.9754 11.9883 19.8001 11.1992C18.3632 10.3945 17.1684 10.1016 15.7045 10.0215L16.7587 4.99297C17.0131 3.91343 16.1946 2.87891 15.086 2.87891C14.3041 2.87891 13.6206 3.40722 13.4232 4.16437L11.3349 13.8083L8.92317 12.1551C8.10601 11.5469 7.18498 11.4531 6.41566 12.2344C5.83369 12.9023 5.87066 13.7722 6.44272 14.4249L10.8618 19.8984V21.8867" stroke="#141B34" stroke-width="1.5"/>
<path d="M2.00977 9.87662L5.20758 6.74869M2.00977 6.87393H5.00188V9.8762M10.0196 1.88281L7.1732 4.72266M7.01733 1.88456V4.88086H10.0045" stroke="#141B34" stroke-width="1.5"/>
</svg>
