<svg width="24" height="24" viewBox="0 0 24 24" fill="none" xmlns="http://www.w3.org/2000/svg">
<path fill-rule="evenodd" clip-rule="evenodd" d="M1.25044 2.22721C1.25047 1.6875 1.688 1.25 2.22771 1.25L21.7727 1.25011C22.3124 1.25011 22.7499 1.68765 22.7499 2.22738V21.7727C22.7499 22.0318 22.647 22.2804 22.4637 22.4637C22.2804 22.647 22.0318 22.7499 21.7727 22.7499L13.9545 22.7499V20.7954L20.7954 20.7954V3.20464L3.20492 3.20454L3.20454 10.0475L1.25 10.0474L1.25044 2.22721Z" fill="#141B34"/>
<path fill-rule="evenodd" clip-rule="evenodd" d="M12.9774 11.0227L12.9774 4.67045L14.9319 4.67045L14.9319 7.6861L21.0818 1.53624L22.4639 2.91831L16.314 9.06817L19.3297 9.06817L19.3297 11.0227L12.9774 11.0227Z" fill="#141B34"/>
<path fill-rule="evenodd" clip-rule="evenodd" d="M5.15905 12L5.1591 13.9545L3.20457 13.9546L3.20454 15.9091L1.25 15.9091L1.25006 12.0001L5.15905 12ZM10.0454 13.9546L8.09216 13.9546L8.09213 12L11.0227 12C11.2819 12 11.5304 12.103 11.7137 12.2862C11.897 12.4695 12 12.7181 12 12.9773V15.9078H10.0454V13.9546ZM1.25005 21.7727L1.25 18.8409L3.20454 18.8409L3.20457 20.7954H5.15908V22.75H2.22732C1.68759 22.75 1.25006 22.3124 1.25005 21.7727ZM10.0454 20.7954V18.8409H12V22.75H8.09088V20.7954H10.0454Z" fill="#141B34"/>
</svg>
