<svg width="24" height="24" viewBox="0 0 24 24" fill="none" xmlns="http://www.w3.org/2000/svg">
<path d="M10.6028 20.7661L6.2983 15.4596C5.57203 14.5804 5.56801 13.3196 6.28946 12.4358C7.1427 11.3906 8.69271 11.241 9.73494 12.0872L11.3386 13.1789L13.1997 4.57151L13.2042 4.55439C13.4896 3.48249 14.4709 2.75012 15.5763 2.75012C17.1065 2.75012 18.2902 4.13063 17.9803 5.6464L17.1002 9.95925C18.7578 10.1859 20.6903 10.8442 22.3403 12.4217C23.2905 13.3301 23.3464 14.665 23.1738 15.7598C22.9961 16.8874 22.5426 18.0016 22.1692 18.7424C21.9737 19.1303 21.6934 19.6608 21.4644 20.0901C21.3494 20.3056 21.2465 20.4973 21.1723 20.6351L21.1429 20.6897L21.1429 23.2501H10.6028V20.7661Z" fill="#141B34"/>
<path d="M6.75 0.75H8.75V2.33579L10.3358 0.75L11.75 2.16421L10.1642 3.75H11.75V5.75H6.75V0.75Z" fill="#141B34"/>
<path d="M3.75 11.75V10.1642L2.16421 11.75L0.75 10.3358L2.33579 8.75H0.75V6.75H5.75V11.75H3.75Z" fill="#141B34"/>
</svg>
