<svg width="24" height="24" viewBox="0 0 24 24" fill="none" xmlns="http://www.w3.org/2000/svg">
<path opacity="0.4" d="M10.8242 1.25337C10.9057 1.25601 10.9464 1.25734 10.9638 1.33209C10.9813 1.40684 10.9368 1.43061 10.8478 1.47814C10.6412 1.58845 10.3929 1.75255 10.1683 1.98971C9.7934 2.38554 9.62923 2.80834 9.54863 3.0766C9.48908 3.27483 9.44583 3.50444 9.42585 3.6105L9.42248 3.62835C8.69015 7.48829 10.3225 11.4345 14.4685 12.9427C14.7888 13.0595 15.3121 13.2504 16.0008 13.2503C16.6895 13.2503 17.2127 13.0595 17.533 12.9427C17.8031 12.8444 17.9382 12.7953 18.0312 12.8214C18.0997 12.8407 18.1521 12.8774 18.1937 12.9352C18.25 13.0137 18.25 13.1499 18.25 13.4224V15.0557C18.25 16.6583 18.25 17.9373 18.1152 18.9404C17.9759 19.9767 17.6803 20.8301 17.0052 21.5052C16.3301 22.1803 15.4767 22.4758 14.4404 22.6152C13.4373 22.75 12.1583 22.75 10.5557 22.75H10.4443C8.84167 22.75 7.5627 22.75 6.55962 22.6152C5.52335 22.4758 4.66994 22.1803 3.9948 21.5052C3.31966 20.8301 3.02415 19.9767 2.88483 18.9404C2.74997 17.9373 2.74998 16.6583 2.75 15.0558V8.94424C2.74998 7.34166 2.74997 6.06269 2.88483 5.05962C3.02415 4.02335 3.31966 3.16994 3.9948 2.4948C4.66994 1.81966 5.52335 1.52415 6.55962 1.38483C7.56269 1.24997 8.84166 1.24998 10.4442 1.25C10.5947 1.25 10.7203 1.25 10.8242 1.25337Z" fill="#141B34"/>
<path fill-rule="evenodd" clip-rule="evenodd" d="M8.5 19C8.5 18.4477 8.94772 18 9.5 18H11.5C12.0523 18 12.5 18.4477 12.5 19C12.5 19.5523 12.0523 20 11.5 20H9.5C8.94772 20 8.5 19.5523 8.5 19Z" fill="#141B34"/>
<path d="M13.8219 1.82275C14.408 1.53431 15.1173 1.25 15.9982 1.25C16.8792 1.25 17.5887 1.5343 18.175 1.82271C18.3696 1.91841 18.5403 2.00789 18.6971 2.09005C19.0508 2.27543 19.3336 2.42358 19.6583 2.52196C19.8622 2.58373 20.0689 2.64634 20.2134 2.7001C20.3392 2.74694 20.5665 2.83594 20.7415 3.02072C20.8965 3.1843 20.9706 3.36418 21.0137 3.50776C21.0498 3.6276 21.0803 3.78901 21.1028 3.90766C21.7229 7.17405 20.3583 10.3182 17.0193 11.5327C16.7123 11.6445 16.4225 11.75 15.9998 11.75C15.5771 11.75 15.2873 11.6445 14.9802 11.5327C11.6413 10.3183 10.2752 7.17434 10.8952 3.90771C10.9177 3.78907 10.9482 3.62769 10.9842 3.50785C11.0274 3.36428 11.1015 3.18442 11.2564 3.02085C11.4314 2.83606 11.6587 2.74702 11.7845 2.70018C11.9289 2.6464 12.1357 2.58375 12.3396 2.52195C12.6641 2.42359 12.9465 2.2755 13.3 2.09017C13.4567 2.00799 13.6274 1.91849 13.8219 1.82275Z" fill="#141B34"/>
</svg>
