<svg width="24" height="24" viewBox="0 0 24 24" fill="none" xmlns="http://www.w3.org/2000/svg">
<path d="M12.9998 20C12.9998 19.4477 12.552 19 11.9998 19C11.4475 19 10.9998 19.4477 10.9998 20V22.35C10.9998 22.5386 10.9998 22.6328 10.9412 22.6914C10.8826 22.75 10.7883 22.75 10.5998 22.75H9.97058C9.56031 22.75 9.20995 22.75 8.93334 22.729C8.6618 22.7084 8.33828 22.6619 8.05554 22.4861C7.88549 22.3804 7.75897 22.2392 7.66579 22.1171C7.56933 21.9906 7.47825 21.8435 7.39002 21.6879C7.21771 21.384 7.013 20.969 6.75999 20.456L6.74873 20.4331C6.43767 19.8025 6.02451 19.1525 5.61499 18.6263C5.18044 18.0678 4.83031 17.7538 4.66442 17.6708C4.35331 17.5153 4.18998 17.1662 4.26989 16.8277C4.34981 16.4892 4.652 16.25 4.99983 16.25H18.9998C19.3477 16.25 19.6499 16.4892 19.7298 16.8277C19.8097 17.1662 19.6464 17.5153 19.3352 17.6708C19.1693 17.7538 18.8192 18.0678 18.3847 18.6263C17.9751 19.1525 17.562 19.8025 17.2509 20.4331L17.2397 20.456C16.9866 20.969 16.7819 21.384 16.6096 21.6879C16.5214 21.8435 16.4303 21.9906 16.3339 22.1171C16.2407 22.2392 16.1142 22.3804 15.9441 22.4861C15.6614 22.6619 15.3379 22.7084 15.0663 22.729C14.7897 22.75 14.4394 22.75 14.0291 22.75H13.3998C13.2112 22.75 13.1169 22.75 13.0583 22.6914C12.9998 22.6328 12.9998 22.5386 12.9998 22.35V20Z" fill="#141B34"/>
<path d="M15.2931 14.6412C15.3303 14.8268 15.1883 15 14.999 15H9.00115C8.81184 15 8.66985 14.8268 8.70698 14.6412L10.0613 7.86961C10.0737 7.80773 10.0263 7.75 9.96323 7.75H9.50045C9.08623 7.75 8.75045 7.41421 8.75045 7C8.75045 6.58579 9.08623 6.25 9.50045 6.25C9.53646 6.25 9.56019 6.2124 9.54524 6.17964C9.37967 5.81701 9.25045 5.40184 9.25045 5C9.25045 4.48167 9.43492 3.99482 9.65356 3.5914C9.87572 3.18147 10.1625 2.80424 10.4335 2.49127C10.7065 2.17599 10.9772 1.91029 11.1788 1.72393C11.28 1.63029 11.3651 1.55554 11.4258 1.50334C11.4562 1.47722 11.4806 1.45667 11.4981 1.44216L11.5189 1.42496L11.5251 1.41984L11.5272 1.41817L11.5285 1.4171C11.8037 1.1943 12.1972 1.1943 12.4724 1.4171L12.4737 1.41817L12.4758 1.41984L12.482 1.42496L12.5028 1.44216C12.5202 1.45667 12.5447 1.47722 12.5751 1.50334C12.6358 1.55554 12.7209 1.63029 12.8221 1.72393C13.0237 1.91029 13.2944 2.17599 13.5674 2.49127C13.8384 2.80424 14.1252 3.18147 14.3473 3.5914C14.566 3.99482 14.7504 4.48167 14.7504 5C14.7504 5.40184 14.6212 5.81701 14.4557 6.17964C14.4407 6.2124 14.4644 6.25 14.5004 6.25C14.9147 6.25 15.2504 6.58579 15.2504 7C15.2504 7.41421 14.9147 7.75 14.5004 7.75H14.0369C13.9738 7.75 13.9265 7.80773 13.9388 7.86961L15.2931 14.6412Z" fill="#141B34"/>
</svg>
