<svg width="24" height="24" viewBox="0 0 24 24" fill="none" xmlns="http://www.w3.org/2000/svg">
<path fill-rule="evenodd" clip-rule="evenodd" d="M11.999 1.25C10.3178 1.25 8.95093 1.81794 7.75881 2.43555C7.39855 2.62219 7.06388 2.8068 6.74408 2.98322L6.74408 2.98322L6.74407 2.98322L6.74407 2.98323C5.96161 3.41486 5.26815 3.7974 4.50658 4.04039L4.48117 4.0485C4.03387 4.19121 3.66307 4.30951 3.38214 4.4196C3.11772 4.52321 2.80348 4.6652 2.58051 4.91299C2.38023 5.13558 2.27734 5.38547 2.20912 5.6245C2.14719 5.84148 2.09977 6.10462 2.04899 6.38644L2.04347 6.41705C0.805527 13.2827 3.51252 19.787 10.123 22.3179L10.1559 22.3305C10.8056 22.5793 11.2513 22.75 12.0023 22.75C12.7534 22.75 13.199 22.5793 13.8487 22.3305L13.8816 22.3179C20.4919 19.7869 23.1962 13.2824 21.9579 6.417L21.9524 6.38634L21.9524 6.38632L21.9524 6.38629C21.9016 6.10446 21.8541 5.84132 21.7922 5.62433C21.7239 5.38529 21.621 5.13537 21.4207 4.91278C21.1977 4.66499 20.8835 4.52304 20.619 4.41946C20.3381 4.30942 19.9674 4.19119 19.5201 4.04857L19.5201 4.04856L19.4946 4.04044C18.7327 3.79744 18.0386 3.4148 17.2556 2.9831L17.2555 2.98309C16.9356 2.8067 16.6008 2.62213 16.2405 2.43554C15.0477 1.81795 13.6803 1.25 11.999 1.25ZM12.75 7C12.75 6.58579 12.4142 6.25 12 6.25C11.5858 6.25 11.25 6.58579 11.25 7V7.42416C10.6347 7.52886 10.0701 7.7612 9.61196 8.09711C8.97319 8.56549 8.5 9.2746 8.5 10.1278C8.5 10.8783 8.76936 11.572 9.45777 12.0328C10.0819 12.4507 10.9522 12.6062 12 12.6062C12.9582 12.6062 13.5279 12.7501 13.8421 12.9537C14.088 13.1131 14.25 13.354 14.25 13.8726C14.25 14.3084 14.0711 14.5775 13.7369 14.777C13.3572 15.0037 12.7608 15.1391 12 15.1391C11.3002 15.1391 10.7004 14.9471 10.2971 14.676C9.88907 14.4018 9.75 14.1036 9.75 13.8726C9.75 13.4584 9.41421 13.1226 9 13.1226C8.58579 13.1226 8.25 13.4584 8.25 13.8726C8.25 14.7554 8.78251 15.4654 9.46029 15.921C9.9609 16.2574 10.5786 16.4867 11.25 16.585V17C11.25 17.4142 11.5858 17.75 12 17.75C12.4142 17.75 12.75 17.4142 12.75 17V16.6006C13.3866 16.5325 13.9974 16.3684 14.5057 16.065C15.2573 15.6163 15.75 14.8772 15.75 13.8726C15.75 12.951 15.412 12.1837 14.6579 11.6949C13.9721 11.2504 13.0418 11.1062 12 11.1062C11.0478 11.1062 10.5431 10.9543 10.2922 10.7864C10.1056 10.6615 10 10.4909 10 10.1278C10 9.86732 10.1424 9.56819 10.4989 9.30676C10.855 9.04566 11.3833 8.86133 12 8.86133C12.6167 8.86133 13.145 9.04566 13.501 9.30676C13.8576 9.56819 14 9.86732 14 10.1278C14 10.542 14.3358 10.8778 14.75 10.8778C15.1642 10.8778 15.5 10.542 15.5 10.1278C15.5 9.2746 15.0268 8.56549 14.388 8.09711C13.9299 7.7612 13.3653 7.52886 12.75 7.42416V7Z" fill="#141B34"/>
</svg>
