<svg width="24" height="24" viewBox="0 0 24 24" fill="none" xmlns="http://www.w3.org/2000/svg">
<path opacity="0.4" d="M16 2.75C18.5578 2.75 20.5084 3.20522 21.5195 3.51855C22.3186 3.84508 22.7499 4.63549 22.75 5.42676V15.1826C22.7499 16.0301 22.2837 16.7262 21.6904 17.1582C21.1365 17.5615 20.4095 17.7837 19.6826 17.6895C18.9969 17.56 18.0591 17.4351 17 17.3838V16.5C17 15.3954 16.1046 14.5 15 14.5H9C7.89543 14.5 7 15.3954 7 16.5V18.2129C6.03702 18.153 4.93774 18.0113 3.63574 17.749L2.9834 17.6113C1.95787 17.3852 1.25012 16.4686 1.25 15.4385V5.4209C1.25017 3.94228 2.6335 2.91149 4.02441 3.1875L4.58496 3.29395C7.31829 3.78337 8.99031 3.67507 10.4746 3.44141C12.0595 3.1919 13.6323 2.75 16 2.75Z" fill="#141B34"/>
<path d="M15.0005 10.5C15.0005 12.1569 13.6573 13.5 12.0005 13.5C10.3436 13.5 9.00049 12.1569 9.00049 10.5C9.00049 8.84315 10.3436 7.5 12.0005 7.5C13.6573 7.5 15.0005 8.84315 15.0005 10.5Z" fill="#141B34"/>
<path d="M1.25 13.1963C3.65452 13.709 5.54338 15.6679 5.91504 18.1152C5.22744 18.0356 4.47354 17.9168 3.63574 17.748L2.9834 17.6104C1.95787 17.3842 1.25012 16.4676 1.25 15.4375V13.1963Z" fill="#141B34"/>
<path d="M22.75 15.1816C22.7499 16.0291 22.2837 16.7253 21.6904 17.1572C21.1365 17.5605 20.4095 17.7827 19.6826 17.6885C19.3299 17.6219 18.9106 17.5567 18.4424 17.502C19.0107 15.5152 20.6808 13.9949 22.75 13.6436V15.1816Z" fill="#141B34"/>
<path d="M18.5479 2.90234C19.8597 3.06289 20.8784 3.31891 21.5195 3.51758C22.3186 3.8441 22.7499 4.63451 22.75 5.42578V7.70605C20.4938 7.17919 18.7735 5.25993 18.5479 2.90234Z" fill="#141B34"/>
<path d="M1.25 5.41992C1.25017 3.9413 2.6335 2.91052 4.02441 3.18652L4.58496 3.29297C4.93145 3.35501 5.26103 3.4064 5.5752 3.4502C5.06942 5.49299 3.36506 7.06146 1.25 7.36523V5.41992Z" fill="#141B34"/>
<path d="M11.25 20.5V16.5C11.25 16.0858 11.5858 15.75 12 15.75C12.4142 15.75 12.75 16.0858 12.75 16.5V20.5C12.75 20.9142 12.4142 21.25 12 21.25C11.5858 21.25 11.25 20.9142 11.25 20.5ZM8.25 18.5V16.5C8.25 16.0858 8.58579 15.75 9 15.75C9.41421 15.75 9.75 16.0858 9.75 16.5V18.5C9.75 18.9142 9.41421 19.25 9 19.25C8.58579 19.25 8.25 18.9142 8.25 18.5ZM14.25 18.5V16.5C14.25 16.0858 14.5858 15.75 15 15.75C15.4142 15.75 15.75 16.0858 15.75 16.5V18.5C15.75 18.9142 15.4142 19.25 15 19.25C14.5858 19.25 14.25 18.9142 14.25 18.5Z" fill="#141B34"/>
</svg>
