<svg width="24" height="24" viewBox="0 0 24 24" fill="none" xmlns="http://www.w3.org/2000/svg">
<path d="M16 4.25073C18.5578 4.25073 20.5084 4.70596 21.5195 5.01929C22.3186 5.34581 22.7499 6.13622 22.75 6.92749V16.6833C22.7499 17.5308 22.2837 18.227 21.6904 18.6589C21.1365 19.0622 20.4095 19.2844 19.6826 19.1902C18.7875 19.0212 17.4632 18.8601 16 18.8601C13.6966 18.8601 12.3677 19.2881 10.5127 19.5632C8.78314 19.8197 6.81344 19.8898 3.63574 19.2498L2.9834 19.1121C1.95787 18.8859 1.25012 17.9693 1.25 16.9392V6.92163C1.25017 5.44301 2.6335 4.41222 4.02441 4.68823L4.58496 4.79468C7.31829 5.2841 8.99031 5.1758 10.4746 4.94214C12.0595 4.69263 13.6323 4.25073 16 4.25073ZM2.75 16.9382C2.75012 17.2845 2.98805 17.576 3.30664 17.6462L3.92676 17.7781C4.68366 17.9307 5.36375 18.0404 5.98242 18.115C5.81412 16.3346 4.47904 14.8939 2.75 14.5662V16.9382ZM21.25 15.0671C19.8679 15.3156 18.6382 16.2304 18.2324 17.4666C18.8237 17.5256 19.3514 17.6045 19.8154 17.6921L19.9385 17.7078C20.2291 17.7278 20.5478 17.6343 20.8076 17.4451C21.1021 17.2306 21.2499 16.9497 21.25 16.6824V15.0671ZM12 9.00073C10.3434 9.001 9.00098 10.344 9.00098 12.0007C9.00098 13.6574 10.3434 15.0005 12 15.0007C13.6569 15.0007 15.001 13.6576 15.001 12.0007C15.001 10.3439 13.6569 9.00073 12 9.00073ZM18.5225 5.89917C18.6991 7.49213 19.9031 8.94217 21.25 9.35327V6.92651C21.2499 6.67112 21.1289 6.49685 20.9775 6.41968L20.9111 6.39233C20.3881 6.23024 19.5918 6.03221 18.5225 5.89917ZM3.73242 6.15894C3.20921 6.05513 2.75028 6.4479 2.75 6.92065V8.92163C4.10185 8.641 5.2612 7.63723 5.73047 6.48511C5.29075 6.43062 4.82409 6.36028 4.32617 6.27124L3.73242 6.15894Z" fill="#141B34"/>
</svg>
