<svg width="24" height="24" viewBox="0 0 24 24" fill="none" xmlns="http://www.w3.org/2000/svg">
<path fill-rule="evenodd" clip-rule="evenodd" d="M1.25049 6.92663C1.25065 5.44801 2.63399 4.41722 4.0249 4.69323L4.58545 4.79967C4.8202 4.84171 5.04745 4.87749 5.26709 4.911L10.0679 9.71178C9.41578 10.2621 9.00146 11.0856 9.00146 12.0057C9.00161 13.6623 10.3439 15.0055 12.0005 15.0057C12.9208 15.0057 13.7429 14.5897 14.2935 13.9374L19.5229 19.1669C18.6338 19.009 17.3788 18.8651 16.0005 18.8651C13.6971 18.8651 12.3682 19.2931 10.5132 19.5682C8.78364 19.8247 6.81387 19.8948 3.63623 19.2548L2.98389 19.1171C1.95845 18.8909 1.25073 17.9742 1.25049 16.9442V6.92663ZM5.50049 11.4921C4.9482 11.4921 4.50049 11.9398 4.50049 12.4921V12.5018C4.50056 13.054 4.94825 13.5018 5.50049 13.5018C6.05273 13.5018 6.50042 13.054 6.50049 12.5018V12.4921C6.50049 11.9398 6.05277 11.4921 5.50049 11.4921Z" fill="#141B34"/>
<path opacity="0.4" d="M21.5198 5.02051C20.5086 4.70718 18.558 4.25195 16.0002 4.25195C13.6325 4.25195 12.0598 4.69385 10.4749 4.94336C9.91332 5.03176 9.32492 5.10197 8.66235 5.12891L12.594 9.06055C13.775 9.2976 14.7058 10.2282 14.9426 11.4092L21.9631 18.4297C22.4195 17.9983 22.7502 17.3959 22.7502 16.6846V6.92871C22.7501 6.13744 22.3189 5.34703 21.5198 5.02051Z" fill="#141B34"/>
<path d="M17.5002 11.5V11.4902C17.5002 10.9379 17.948 10.4902 18.5002 10.4902C19.0525 10.4902 19.5002 10.9379 19.5002 11.4902V11.5C19.5002 12.0523 19.0525 12.5 18.5002 12.5C17.948 12.5 17.5002 12.0523 17.5002 11.5Z" fill="#141B34"/>
<path d="M2.54314 2.54485C2.93366 2.15432 3.56683 2.15432 3.95735 2.54485L21.4574 20.0448C21.8479 20.4354 21.8479 21.0685 21.4574 21.4591C21.0668 21.8496 20.4337 21.8496 20.0431 21.4591L2.54314 3.95906C2.15261 3.56854 2.15261 2.93537 2.54314 2.54485Z" fill="#141B34"/>
</svg>
