<svg width="24" height="24" viewBox="0 0 24 24" fill="none" xmlns="http://www.w3.org/2000/svg">
<path fill-rule="evenodd" clip-rule="evenodd" d="M16 2.75C18.851 2.75 20.8692 3.29256 21.7979 3.61328C22.415 3.88633 22.75 4.50206 22.75 5.11816V15.9912C22.75 16.651 22.3893 17.1852 21.9365 17.5049C21.5429 17.7827 21.0313 17.9358 20.5107 17.8711C19.7366 17.6797 18.484 17.46 17 17.3867V16.5C17 15.3954 16.1046 14.5 15 14.5H9C7.89543 14.5 7 15.3954 7 16.5V18.2139C5.94855 18.1489 4.73523 17.9851 3.27344 17.6748L2.59082 17.5234C1.79635 17.3398 1.25 16.6286 1.25 15.8281V4.78125C1.25 3.63115 2.32779 2.82514 3.41016 3.06055L4.02148 3.1875C6.99887 3.77861 8.77752 3.69544 10.3184 3.46484C11.9537 3.2201 13.5636 2.75 16 2.75ZM2.75 15.8311C2.75 15.9482 2.82913 16.0414 2.92871 16.0645L3.58105 16.209C4.47848 16.3996 5.27117 16.5313 5.98242 16.6172C5.81383 14.8372 4.4788 13.3971 2.75 13.0693V15.8311ZM21.25 13.5703C19.8678 13.8188 18.6382 14.7335 18.2324 15.9697C19.2123 16.0676 20.1747 16.2822 20.7471 16.3877C20.8523 16.3883 20.9692 16.3542 21.0713 16.2822C21.2045 16.1882 21.25 16.0777 21.25 15.9941V13.5703ZM12 7.5C10.3431 7.5 9 8.84315 9 10.5C9 12.1569 10.3431 13.5 12 13.5C13.6569 13.5 15 12.1569 15 10.5C15 8.84315 13.6569 7.5 12 7.5ZM18.5225 4.40234C18.6992 5.99525 19.9032 7.44535 21.25 7.85645V5.12109C21.25 5.03365 21.2044 4.9935 21.1816 4.98438C20.6826 4.81201 19.7963 4.56095 18.5225 4.40234ZM3.0918 4.5293C2.90276 4.48819 2.75003 4.63315 2.75 4.78418V7.4248C4.10182 7.14419 5.26117 6.14036 5.73047 4.98828C5.1209 4.91279 4.45971 4.80674 3.73535 4.66309L3.0918 4.5293Z" fill="#141B34"/>
<path d="M11.25 20.5V16.5C11.25 16.0858 11.5858 15.75 12 15.75C12.4142 15.75 12.75 16.0858 12.75 16.5V20.5C12.75 20.9142 12.4142 21.25 12 21.25C11.5858 21.25 11.25 20.9142 11.25 20.5ZM8.25 18.5V16.5C8.25 16.0858 8.58579 15.75 9 15.75C9.41421 15.75 9.75 16.0858 9.75 16.5V18.5C9.75 18.9142 9.41421 19.25 9 19.25C8.58579 19.25 8.25 18.9142 8.25 18.5ZM14.25 18.5V16.5C14.25 16.0858 14.5858 15.75 15 15.75C15.4142 15.75 15.75 16.0858 15.75 16.5V18.5C15.75 18.9142 15.4142 19.25 15 19.25C14.5858 19.25 14.25 18.9142 14.25 18.5Z" fill="#141B34"/>
</svg>
