<svg width="24" height="24" viewBox="0 0 24 24" fill="none" xmlns="http://www.w3.org/2000/svg">
<path d="M15 14C15 15.6569 13.6569 17 12 17C10.3431 17 9 15.6569 9 14C9 12.3431 10.3431 11 12 11C13.6569 11 15 12.3431 15 14Z" stroke="#141B34" stroke-width="1.5" stroke-linecap="square"/>
<path d="M22 11C19.7909 11 18 9.20914 18 7H22V21H2V7H6C6 9.20914 4.20914 11 2 11" stroke="#141B34" stroke-width="1.5" stroke-linecap="square"/>
<path d="M22 17C19.7909 17 18 18.7909 18 21" stroke="#141B34" stroke-width="1.5" stroke-linecap="square"/>
<path d="M2 17C4.20914 17 6 18.7909 6 21" stroke="#141B34" stroke-width="1.5" stroke-linecap="square"/>
<path d="M12 7V3" stroke="#141B34" stroke-width="1.5" stroke-linecap="square"/>
<path d="M15 7V5" stroke="#141B34" stroke-width="1.5" stroke-linecap="square"/>
<path d="M9 7V5" stroke="#141B34" stroke-width="1.5" stroke-linecap="square"/>
</svg>
