<svg width="24" height="24" viewBox="0 0 24 24" fill="none" xmlns="http://www.w3.org/2000/svg">
<path opacity="0.4" d="M17 2.75C14.9915 2.75 13.1298 3.14454 11.6826 3.82046C10.4648 4.38927 8.82565 4.75 7 4.75C5.988 4.75 5.02989 4.63907 4.16745 4.44153C2.841 4.13772 1.25 5.04678 1.25 6.61397V17.386C1.25 18.2216 1.38242 19.0082 1.81644 19.6488C2.26524 20.3111 2.95689 20.7031 3.83255 20.9037C4.80949 21.1274 5.88016 21.25 7 21.25C9.00849 21.25 10.8702 20.8555 12.3174 20.1795C13.5352 19.6107 15.1744 19.25 17 19.25C18.012 19.25 18.9701 19.3609 19.8326 19.5585C21.159 19.8623 22.75 18.9532 22.75 17.386V6.61397C22.75 5.81712 22.6428 5.03453 22.2218 4.38745C21.7825 3.71217 21.0845 3.30637 20.1674 3.09633C19.1905 2.87257 18.1198 2.75 17 2.75Z" fill="#141B34"/>
<path fill-rule="evenodd" clip-rule="evenodd" d="M12 15C13.6569 15 15 13.6569 15 12C15 10.3431 13.6569 9 12 9C10.3431 9 9 10.3431 9 12C9 13.6569 10.3431 15 12 15ZM5.5 12C6.05228 12 6.5 12.4477 6.5 13V13.009C6.5 13.5613 6.05228 14.009 5.5 14.009C4.94772 14.009 4.5 13.5613 4.5 13.009V13C4.5 12.4477 4.94772 12 5.5 12ZM19.5 10.9922C19.5 10.4399 19.0523 9.99219 18.5 9.99219C17.9477 9.99219 17.5 10.4399 17.5 10.9922V11.0012C17.5 11.5535 17.9477 12.0012 18.5 12.0012C19.0523 12.0012 19.5 11.5535 19.5 11.0012V10.9922Z" fill="#141B34"/>
</svg>
