<svg width="24" height="24" viewBox="0 0 24 24" fill="none" xmlns="http://www.w3.org/2000/svg">
<path fill-rule="evenodd" clip-rule="evenodd" d="M10.9995 8.14015C10.6274 8.24804 10.2825 8.41646 9.9853 8.63934C9.43394 9.05286 8.99951 9.70046 8.99951 10.5C8.99951 11.2995 9.43394 11.9471 9.9853 12.3607C10.5363 12.7739 11.2518 13 11.9995 13C12.3563 13 12.6409 13.1097 12.8137 13.2393C12.9862 13.3687 12.9995 13.4711 12.9995 13.5C12.9995 13.5289 12.9862 13.6313 12.8137 13.7607C12.6409 13.8903 12.3563 14 11.9995 14C11.3986 14 11.0827 13.7112 11.0179 13.5737L9.20873 14.4263C9.54988 15.1502 10.2291 15.6351 10.9995 15.8585V16.5H12.9995V15.8598C13.3716 15.752 13.7166 15.5835 14.0137 15.3607C14.5651 14.9471 14.9995 14.2995 14.9995 13.5C14.9995 12.7005 14.5651 12.0529 14.0137 11.6393C13.4627 11.2261 12.7472 11 11.9995 11C11.6427 11 11.3581 10.8903 11.1853 10.7607C11.0128 10.6313 10.9995 10.5289 10.9995 10.5C10.9995 10.4711 11.0128 10.3687 11.1853 10.2393C11.3581 10.1097 11.6427 10 11.9995 10C12.6004 10 12.9163 10.2888 12.9811 10.4263L14.7903 9.5737C14.4491 8.84981 13.7699 8.36492 12.9995 8.14149V7.5H10.9995V8.14015Z" fill="#141B34"/>
<path fill-rule="evenodd" clip-rule="evenodd" d="M1.49951 2.5C1.49951 1.94772 1.94723 1.5 2.49951 1.5H13.5V3.5H3.49951V20.5H20.5V10.5H22.5V21.5C22.5 22.0523 22.0523 22.5 21.5 22.5H2.49951C1.94723 22.5 1.49951 22.0523 1.49951 21.5V2.5Z" fill="#141B34"/>
<path fill-rule="evenodd" clip-rule="evenodd" d="M19.085 3.5H17.0034V1.5H22.499L22.4996 7.00002L20.4996 7.00023L20.4994 4.91404L17.2106 8.20294L15.7964 6.78876L19.085 3.5Z" fill="#141B34"/>
</svg>
