<svg width="24" height="24" viewBox="0 0 24 24" fill="none" xmlns="http://www.w3.org/2000/svg">
<path d="M13.9855 2.22084C13.3401 2.08979 12.6722 2.021 11.9882 2.021C6.47295 2.021 2.00195 6.49372 2.00195 12.0111C2.00195 17.5284 6.47295 22.0012 11.9882 22.0012C17.5034 22.0012 21.9745 17.5284 21.9745 12.0111C21.9745 11.3269 21.9057 10.6586 21.7747 10.0131" stroke="#141B34" stroke-width="1.5" stroke-linecap="round"/>
<path d="M11.9885 9.01415C10.8854 9.01415 9.99121 9.68505 9.99121 10.5127C9.99121 11.3402 10.8854 12.0112 11.9885 12.0112C13.0915 12.0112 13.9857 12.6821 13.9857 13.5097C13.9857 14.3373 13.0915 15.0082 11.9885 15.0082M11.9885 9.01415C12.8581 9.01415 13.5978 9.43113 13.8721 10.0132M11.9885 9.01415V8.01514M11.9885 15.0082C11.1189 15.0082 10.3791 14.5912 10.1049 14.0092M11.9885 15.0082V16.0072" stroke="#141B34" stroke-width="1.5" stroke-linecap="round"/>
<path opacity="0.4" d="M21.998 1.99902L17.8279 6.17309M17.0049 2.52027L17.1229 5.6087C17.1229 6.33662 17.5574 6.79016 18.3488 6.84736L21.4686 6.99408" stroke="#141B34" stroke-width="1.5" stroke-linecap="round" stroke-linejoin="round"/>
</svg>
