<svg width="24" height="24" viewBox="0 0 24 24" fill="none" xmlns="http://www.w3.org/2000/svg">
<path d="M13 1.99951H11V5.08545L9.5 3.58545L8.08594 4.99951L12 8.91357L15.9141 4.99951L14.5 3.58545L13 5.08545V1.99951Z" fill="#141B34"/>
<path fill-rule="evenodd" clip-rule="evenodd" d="M2.18164 6.23389C5.00179 6.93892 6.90759 7.12908 8.41211 7.09424L12 10.6821L16.4629 6.21826C18.298 6.25325 19.7046 6.48964 20.6816 6.73389C21.8825 7.03409 22.75 7.49756 22.75 7.49756V22.0005C22.75 22.0005 21.4617 21.3 20.3184 21.0142C19.376 20.7786 17.9368 20.5366 16 20.5366C13.5571 20.5366 12.2445 21.0104 10.2246 21.2798C8.24039 21.5443 5.89364 21.533 1.81836 20.5142L1.25 20.3726V6.00049L2.18164 6.23389ZM2.75 19.1958C3.97844 19.4855 5.02444 19.6733 5.93652 19.7856C5.64449 18.1599 4.37031 16.8743 2.75 16.5669V19.1958ZM21.25 17.0679C19.9863 17.2948 18.8494 18.0793 18.3535 19.1567C19.2962 19.2567 20.0725 19.4068 20.6816 19.5591C20.8909 19.6114 21.0804 19.6645 21.25 19.7153V17.0679ZM11.999 11.0005C10.3424 11.0008 9 12.3438 9 14.0005C9 15.6572 10.3424 17.0002 11.999 17.0005C13.6559 17.0005 15 15.6573 15 14.0005C15 12.3436 13.6559 11.0005 11.999 11.0005ZM18.5176 7.85986C18.6782 9.46887 19.8915 10.9397 21.25 11.354V8.46924C21.028 8.3902 20.718 8.28888 20.3184 8.18896C19.8441 8.07039 19.2437 7.95 18.5176 7.85986ZM2.75 10.9233C4.11698 10.6394 5.28651 9.61518 5.74512 8.44678C4.86529 8.33809 3.87868 8.16573 2.75 7.90967V10.9233Z" fill="#141B34"/>
</svg>
