<svg width="24" height="24" viewBox="0 0 24 24" fill="none" xmlns="http://www.w3.org/2000/svg">
<path d="M11.2071 13C10.6548 13 10.2071 13.4477 10.2071 14H8.20711C8.20711 12.3431 9.55025 11 11.2071 11C12.864 11 14.2071 12.3431 14.2071 14C14.2071 14.5448 14.061 15.0584 13.8051 15.5007C13.37 16.2529 12.5642 16.834 11.6895 17.2421C10.7891 17.6623 9.6976 17.9553 8.54086 18.0585C6.23812 18.264 3.51769 17.7248 1.5 15.7071L2.91421 14.2929C4.39652 15.7752 6.46385 16.236 8.36308 16.0665C9.30734 15.9822 10.1704 15.7439 10.8439 15.4297C11.5431 15.1035 11.9306 14.7471 12.0739 14.4993C12.1584 14.3532 12.2071 14.1838 12.2071 14C12.2071 13.4477 11.7594 13 11.2071 13Z" fill="#141B34"/>
<path d="M14.4526 19.069C14.5264 19.0252 14.6122 19 14.7066 19C14.9827 19 15.2066 19.2239 15.2066 19.5C15.2066 19.7761 14.9827 20 14.7066 20C14.6463 20 14.5907 19.9898 14.5398 19.9718L13.8733 21.8575C14.1353 21.9501 14.4162 22 14.7066 22C16.0873 22 17.2066 20.8807 17.2066 19.5C17.2066 18.1193 16.0873 17 14.7066 17C14.218 17 13.7593 17.1412 13.3727 17.3854C13.3615 17.3924 13.3504 17.3997 13.3395 17.4072C12.3032 18.1208 10.3286 19.0644 8.09837 19.3069L8.31456 21.2952C10.9117 21.0128 13.1854 19.9362 14.4526 19.069Z" fill="#141B34"/>
<path d="M3.62778 18.6409C4.20937 18.9111 4.80232 19.0964 5.39722 19.212L5.01571 21.1753C4.27112 21.0306 3.52236 20.7972 2.78516 20.4547L3.62778 18.6409Z" fill="#141B34"/>
<path d="M19.2072 21.0007C19.6521 21.0007 20.4886 20.8279 21.5844 20.3815L20.83 18.5293C20.3486 18.7254 19.9592 18.8461 19.6729 18.9166C19.5297 18.9519 19.4158 18.9739 19.3319 18.9866C19.252 18.9987 19.2128 19.0004 19.2076 19.0006L19.2072 21.0007Z" fill="#141B34"/>
<path d="M16.2234 9.11126C14.9099 6.87928 15.1664 4.1807 16.6567 2.2463C14.6701 1.75234 12.4929 1.98823 10.5779 3.07295C7.80713 4.64236 6.33056 7.56635 6.5155 10.5C6.5595 11.198 6.70985 11.8825 6.95044 12.5372C7.55758 10.77 9.23414 9.5 11.2073 9.5C13.6926 9.5 15.7073 11.5147 15.7073 14C15.7073 14.5477 15.6085 15.0757 15.4271 15.5647C16.5276 15.7648 17.4711 16.4152 18.0598 17.3181C18.7352 16.9932 19.4021 16.558 20.0483 16C21.2476 14.9645 22.0819 13.6272 22.5 12.1756C20.0473 12.4746 17.5369 11.3432 16.2234 9.11126Z" fill="#141B34"/>
</svg>
