<svg width="24" height="24" viewBox="0 0 24 24" fill="none" xmlns="http://www.w3.org/2000/svg">
<path opacity="0.4" fill-rule="evenodd" clip-rule="evenodd" d="M10.2461 12C10.2461 11.0335 11.0296 10.25 11.9961 10.25H12.0051C12.9716 10.25 13.7551 11.0335 13.7551 12C13.7551 12.9665 12.9716 13.75 12.0051 13.75H11.9961C11.0296 13.75 10.2461 12.9665 10.2461 12Z" fill="#141B34"/>
<path fill-rule="evenodd" clip-rule="evenodd" d="M16.25 12C16.25 11.0335 17.0335 10.25 18 10.25H18.009C18.9755 10.25 19.759 11.0335 19.759 12C19.759 12.9665 18.9755 13.75 18.009 13.75H18C17.0335 13.75 16.25 12.9665 16.25 12Z" fill="#141B34"/>
<path fill-rule="evenodd" clip-rule="evenodd" d="M4.25 12C4.25 11.0335 5.0335 10.25 6 10.25H6.00898C6.97548 10.25 7.75898 11.0335 7.75898 12C7.75898 12.9665 6.97548 13.75 6.00898 13.75H6C5.0335 13.75 4.25 12.9665 4.25 12Z" fill="#141B34"/>
</svg>
