<svg width="24" height="24" viewBox="0 0 24 24" fill="none" xmlns="http://www.w3.org/2000/svg">
<path d="M17.5197 6C15.9807 4 18.3441 3 19.0036 2C19.6632 3 22.0266 4 20.4876 6H17.5197Z" stroke="#141B34" stroke-width="1.5" stroke-linejoin="round"/>
<path d="M13.0421 11.5V14H7.04211V11.5" stroke="#141B34" stroke-width="1.5" stroke-linejoin="round"/>
<path d="M7.0573 11.5C3.97941 7.5 8.70619 5.5 10.0252 3.5C11.3442 5.5 16.071 7.5 12.9931 11.5H10.0252H7.0573Z" stroke="#141B34" stroke-width="1.5" stroke-linejoin="round"/>
<path d="M8.02991 22V21C8.02991 20.0218 8.02991 19.5326 8.17175 19.0874C8.26573 18.7924 8.40473 18.5137 8.58381 18.2613C8.85403 17.8804 9.24439 17.5869 10.0251 17C10.8058 17.5869 11.1962 17.8804 11.4665 18.2613C11.6455 18.5137 11.7845 18.7924 11.8785 19.0874C12.0203 19.5326 12.0203 20.0218 12.0203 21V22" stroke="#141B34" stroke-width="1.5" stroke-linejoin="round"/>
<path d="M17.5072 6L17.0084 14M17.0084 22H20.9988L20.5 6" stroke="#141B34" stroke-width="1.5"/>
<path d="M17.0085 13.957H3.01107C3.00557 13.957 3.0011 13.9615 3.0011 13.967V22H17.0085V13.957Z" stroke="#141B34" stroke-width="1.5"/>
</svg>
