<svg width="24" height="24" viewBox="0 0 24 24" fill="none" xmlns="http://www.w3.org/2000/svg">
<path fill-rule="evenodd" clip-rule="evenodd" d="M8.9409 3.19704C5.85818 3.19704 3.18609 5.88257 3.18609 9.17878C3.18609 10.7774 3.98337 12.2415 5.23039 13.5873C6.47669 14.9322 8.08524 16.0644 9.51721 16.9892L8.47149 18.6288C7.0133 17.687 5.2337 16.4476 3.81438 14.9159C2.39579 13.385 1.25 11.4672 1.25 9.17878C1.25 4.84907 4.74716 1.24878 8.9409 1.24878C11.14 1.24878 13.1448 2.24248 14.55 3.79378L13.1191 5.10623C12.0484 3.92422 10.5491 3.19704 8.9409 3.19704ZM5.6062 9.04181C5.6062 7.15882 7.12313 5.63236 8.99435 5.63236C10.1035 5.63236 11.0881 6.16965 11.7046 6.99557L10.1566 8.16565C9.89005 7.80855 9.46879 7.58062 8.99435 7.58062C8.1924 7.58062 7.54229 8.23481 7.54229 9.04181C7.54229 9.74759 8.04052 10.3385 8.70291 10.4738L8.31776 12.3831C6.77083 12.0671 5.6062 10.6924 5.6062 9.04181Z" fill="#141B34"/>
<path fill-rule="evenodd" clip-rule="evenodd" d="M17.25 18.9993V22.7512H21.1154V16.0013H22.75V14.0013H21.9712C22.219 13.2848 22.2998 12.5949 22.2211 11.9303C22.0885 10.8085 21.5195 9.91158 20.8501 9.20118C20.1875 8.49804 19.3752 7.924 18.6623 7.45045C18.4693 7.32228 18.2874 7.2036 18.1164 7.09209C17.6136 6.76416 17.206 6.49831 16.8941 6.23594L16.2503 5.69458L15.6067 6.23608C15.2947 6.49854 14.8869 6.76453 14.3838 7.09273C14.2131 7.20405 14.0315 7.32253 13.8389 7.45046C13.126 7.92399 12.3137 8.498 11.6509 9.20107C10.9814 9.91139 10.4122 10.8082 10.2791 11.9299C10.2002 12.5946 10.2807 13.2846 10.5283 14.0013H9.75V16.0013H11.3867V22.7512H15.25V18.9993H17.25ZM19.7927 14.0013H12.7064C12.2945 13.2255 12.2102 12.6279 12.2651 12.1656C12.3312 11.6086 12.6178 11.0912 13.1063 10.5729C13.6016 10.0474 14.2497 9.57859 14.9455 9.11641C15.0901 9.0204 15.2405 8.9224 15.393 8.8231C15.6804 8.63582 15.9751 8.44392 16.2505 8.25201C16.5258 8.44374 16.8202 8.63548 17.1074 8.82259C17.2601 8.92201 17.411 9.0203 17.5557 9.11641C18.2514 9.57857 18.8994 10.0474 19.3946 10.5728C19.8829 11.091 20.1691 11.6083 20.235 12.1652C20.2897 12.6275 20.2051 13.2253 19.7927 14.0013Z" fill="#141B34"/>
</svg>
