<svg width="24" height="24" viewBox="0 0 24 24" fill="none" xmlns="http://www.w3.org/2000/svg">
<path d="M12.75 1.25V5.23103H13.5C13.9142 5.23103 14.25 5.56718 14.25 5.98184V10.9873C14.25 11.4019 13.9142 11.7381 13.5 11.7381H10.5C10.0858 11.7381 9.75 11.4019 9.75 10.9873V5.98184C9.75 5.56718 10.0858 5.23103 10.5 5.23103H11.25V1.25C8.44205 1.42862 6.54052 2.62507 5.36262 4.52618C4.12483 6.52394 3.75 9.20059 3.75 11.9883C3.75 14.7761 4.12483 17.4528 5.36262 19.4505C6.64252 21.5163 8.7768 22.75 12 22.75C15.2231 22.75 17.3574 21.5162 18.6373 19.4505C19.8751 17.4527 20.25 14.7761 20.25 11.9883C20.25 9.20059 19.8751 6.52395 18.6373 4.52619C17.4594 2.62509 15.5579 1.42864 12.75 1.25Z" fill="#141B34"/>
<path d="M11.25 6.73266V10.2365H12.75V6.73266H11.25Z" fill="#141B34"/>
</svg>
