<svg width="24" height="24" viewBox="0 0 24 24" fill="none" xmlns="http://www.w3.org/2000/svg">
<path fill-rule="evenodd" clip-rule="evenodd" d="M5.78009 7.07748C6.89346 5.44273 8.66748 4.4338 11.25 4.27246V7.27539C11.1154 7.29254 10.9737 7.32344 10.8303 7.38283C10.4015 7.56044 10.0608 7.90112 9.88321 8.32992C9.80099 8.52843 9.77338 8.72377 9.76126 8.90141C9.74998 9.06673 9.74999 9.26358 9.75 9.47786V9.47786L9.75 9.49962L9.75 10.5214V10.5214C9.74999 10.7357 9.74998 10.9325 9.76126 11.0978C9.77338 11.2755 9.80099 11.4708 9.88321 11.6693C10.0608 12.0981 10.4015 12.4388 10.8303 12.6164C11.0288 12.6986 11.2241 12.7262 11.4018 12.7384C11.5671 12.7496 11.764 12.7496 11.9782 12.7496H12.0218C12.236 12.7496 12.4329 12.7496 12.5982 12.7384C12.7759 12.7262 12.9712 12.6986 13.1697 12.6164C13.5985 12.4388 13.9392 12.0981 14.1168 11.6693C14.199 11.4708 14.2266 11.2755 14.2387 11.0978C14.25 10.9325 14.25 10.7357 14.25 10.5214V9.47786C14.25 9.26358 14.25 9.06673 14.2387 8.90141C14.2266 8.72377 14.199 8.52843 14.1168 8.32992C13.9392 7.90112 13.5985 7.56044 13.1697 7.38283C13.0263 7.32344 12.8846 7.29254 12.75 7.27539V4.27246C15.3325 4.43382 17.1065 5.44275 18.2199 7.07748C19.3985 8.80806 19.75 11.1193 19.75 13.4996C19.75 15.88 19.3985 18.1912 18.2199 19.9217C17.0018 21.7102 14.993 22.7496 12 22.7496C9.00689 22.7496 6.99814 21.7102 5.78009 19.9218C4.60145 18.1912 4.25 15.88 4.25 13.4996C4.25 11.1193 4.60145 8.80806 5.78009 7.07748ZM11.2703 8.90093C11.2956 8.84209 11.3425 8.7952 11.4013 8.76992C11.4087 8.76805 11.4371 8.76195 11.5039 8.75739C11.6119 8.75002 11.7568 8.74962 12 8.74962C12.2432 8.74962 12.3881 8.75002 12.4961 8.75739C12.5629 8.76195 12.5913 8.76805 12.5987 8.76992C12.6575 8.7952 12.7044 8.84209 12.7297 8.90093C12.7316 8.90828 12.7377 8.93669 12.7422 9.00352C12.7496 9.11152 12.75 9.25638 12.75 9.49962V10.4996C12.75 10.7429 12.7496 10.8877 12.7422 10.9957C12.7377 11.0625 12.7316 11.091 12.7297 11.0983C12.7044 11.1571 12.6575 11.204 12.5987 11.2293C12.5913 11.2312 12.5629 11.2373 12.4961 11.2418C12.3881 11.2492 12.2432 11.2496 12 11.2496C11.7568 11.2496 11.6119 11.2492 11.5039 11.2418C11.4371 11.2373 11.4087 11.2312 11.4013 11.2293C11.3425 11.204 11.2956 11.1571 11.2703 11.0983C11.2684 11.091 11.2623 11.0626 11.2578 10.9957C11.2504 10.8877 11.25 10.7429 11.25 10.4996V9.49962C11.25 9.25638 11.2504 9.11152 11.2578 9.00352C11.2623 8.93669 11.2684 8.90828 11.2703 8.90093Z" fill="#141B34"/>
<path d="M12.75 2C12.75 1.58579 12.4142 1.25 12 1.25C11.5858 1.25 11.25 1.58579 11.25 2V4.27285C11.4928 4.25768 11.7428 4.25 12 4.25C12.2572 4.25 12.5072 4.25768 12.75 4.27285V2Z" fill="#141B34"/>
</svg>
