<svg width="24" height="24" viewBox="0 0 24 24" fill="none" xmlns="http://www.w3.org/2000/svg">
<path fill-rule="evenodd" clip-rule="evenodd" d="M12.0001 2L15.7072 5.70702L14.293 7.12125L13.0001 5.82838V9.4142H11.0001V5.82838L9.70717 7.12125L8.29297 5.70702L12.0001 2Z" fill="#141B34"/>
<path fill-rule="evenodd" clip-rule="evenodd" d="M13.0001 14.0858V18.1715L14.293 16.8786L15.7072 18.2928L12.0001 22L8.29297 18.2928L9.7072 16.8786L11.0001 18.1715V14.0858H13.0001Z" fill="#141B34"/>
<path fill-rule="evenodd" clip-rule="evenodd" d="M18.1706 11.0001L16.8777 9.70717L18.2919 8.29297L21.999 12.0001L18.2919 15.7072L16.8777 14.293L18.1706 13.0001H14.5848V11.0001H18.1706Z" fill="#141B34"/>
<path fill-rule="evenodd" clip-rule="evenodd" d="M5.82846 13.0001L7.12131 14.293L5.70711 15.7072L2 12.0001L5.7071 8.29297L7.12133 9.70717L5.82839 11.0001H9.41421V13.0001H5.82846Z" fill="#141B34"/>
</svg>
