<svg width="24" height="24" viewBox="0 0 24 24" fill="none" xmlns="http://www.w3.org/2000/svg">
<path fill-rule="evenodd" clip-rule="evenodd" d="M19.5 5.74963L9.5 5.74963L9.5 3.74963L19.5 3.74963L19.5 5.74963Z" fill="#141B34"/>
<path fill-rule="evenodd" clip-rule="evenodd" d="M4.5 3.74963H6.50898V5.74963H4.5V3.74963Z" fill="#141B34"/>
<path fill-rule="evenodd" clip-rule="evenodd" d="M4.5 9.74963H6.50898V11.7496H4.5V9.74963Z" fill="#141B34"/>
<path fill-rule="evenodd" clip-rule="evenodd" d="M4.5 15.7496H6.50898V17.7496H4.5V15.7496Z" fill="#141B34"/>
<path fill-rule="evenodd" clip-rule="evenodd" d="M19.5 11.7496L9.5 11.7496L9.5 9.74963L19.5 9.74963L19.5 11.7496Z" fill="#141B34"/>
<path fill-rule="evenodd" clip-rule="evenodd" d="M18.5 17.7496L9.5 17.7496L9.5 15.7496L18.5 15.7496L18.5 17.7496Z" fill="#141B34"/>
<path fill-rule="evenodd" clip-rule="evenodd" d="M16.6707 16.7496L14.5841 14.6638L15.9983 13.2496L19.4991 16.7496L15.998 20.2504L14.5838 18.8362L16.6707 16.7496Z" fill="#141B34"/>
</svg>
