<svg width="24" height="24" viewBox="0 0 24 24" fill="none" xmlns="http://www.w3.org/2000/svg">
<path opacity="0.4" d="M12.0009 2C9.78242 2 8.05155 3.82914 8.00195 5.9948H15.9998C15.9502 3.82914 14.2193 2 12.0009 2Z" fill="#141B34"/>
<path opacity="0.4" d="M12 15.999C12.0302 15.999 12.0603 15.9985 12.0903 15.9973C12.2461 15.9913 12.3241 15.9882 13.162 15.1171C13.5912 14.671 13.8006 14.3253 13.9027 13.9629L14 13.999C17.2436 14.9255 18.8654 15.3887 19.8539 16.5829C19.9497 16.6986 20.0402 16.8185 20.1252 16.9424C20.8835 18.0475 20.9861 19.4577 21 21.999H3C3.0139 19.4577 3.11655 18.0475 3.87481 16.9424C3.95979 16.8185 4.0503 16.6986 4.14608 16.5829C5.13455 15.3887 6.75637 14.9255 10 13.999L10.0986 13.9675C10.2012 14.3282 10.4106 14.6729 10.838 15.1171C11.6759 15.9882 11.7539 15.9913 11.9097 15.9973C11.9397 15.9985 11.9698 15.999 12 15.999Z" fill="#141B34"/>
<path d="M15.5005 9.05826L15.921 6.9029C16.4159 4.36646 14.5233 2 12 2C9.47667 2 7.58414 4.36646 8.07901 6.9029L8.49952 9.05826C8.83325 10.7688 10.2983 12 12 12C13.7017 12 15.1668 10.7688 15.5005 9.05826Z" stroke="#141B34" stroke-width="1.5" stroke-linecap="round"/>
<path d="M10.002 11.459V13.0373C10.002 13.8291 10.315 14.5889 10.8729 15.1509L12.0031 16.2893L13.1357 15.1513C13.6953 14.5891 14.0094 13.8282 14.0094 13.035V11.459" stroke="#141B34" stroke-width="1.5" stroke-linecap="round"/>
<path d="M10 14C6.75637 14.9265 5.13455 15.3897 4.14608 16.5838C4.0503 16.6995 3.95979 16.8195 3.87481 16.9433C3.11655 18.0485 3.0139 19.4587 3 22M14 14C17.2436 14.9265 18.8654 15.3897 19.8539 16.5838C19.9497 16.6995 20.0402 16.8195 20.1252 16.9433C20.8835 18.0485 20.9861 19.4587 21 22" stroke="#141B34" stroke-width="1.5" stroke-linecap="round"/>
<path d="M12 16V20" stroke="#141B34" stroke-width="1.5" stroke-linecap="round"/>
<path d="M8 6H16" stroke="#141B34" stroke-width="1.5" stroke-linecap="round" stroke-linejoin="round"/>
</svg>
