<svg width="24" height="24" viewBox="0 0 24 24" fill="none" xmlns="http://www.w3.org/2000/svg">
<path fill-rule="evenodd" clip-rule="evenodd" d="M11.7551 6.69399C11.888 6.28043 12.2728 5.99999 12.7072 6L22.0001 6.00016L22.0001 8.00016L13.4361 8.00001L9.15916 21.306C9.03838 21.6818 8.70785 21.9514 8.31546 21.9941C7.92307 22.0369 7.54224 21.8448 7.34336 21.5039L4.49701 16.6244L3.41427 17.7072L2 16.2931L4 14.2929C4.21927 14.0736 4.52787 13.9685 4.83542 14.0083C5.14297 14.048 5.41466 14.2283 5.57091 14.4961L7.9412 18.5595L11.7551 6.69399Z" fill="#141B34"/>
<path fill-rule="evenodd" clip-rule="evenodd" d="M4 2.34258V2H2V9H4V5.57143C4 4.67681 4.69794 4 5.5 4C6.30206 4 7 4.67681 7 5.57143V9H9V5.57143C9 3.62573 7.45936 2 5.5 2C4.96044 2 4.45263 2.12328 4 2.34258Z" fill="#141B34"/>
</svg>
