<svg width="24" height="24" viewBox="0 0 24 24" fill="none" xmlns="http://www.w3.org/2000/svg">
<path d="M11.9437 1.25002C12.2071 1.24805 12.4523 1.38446 12.5895 1.60936L15.6402 6.60936C15.7815 6.84087 15.7868 7.1306 15.654 7.3671C15.5213 7.60359 15.2712 7.75 15 7.75H9C8.7308 7.75 8.48225 7.60573 8.34874 7.37197C8.21523 7.13821 8.21724 6.85083 8.35401 6.61896L11.3033 1.61896C11.4371 1.39204 11.6802 1.25199 11.9437 1.25002Z" fill="#141B34"/>
<path d="M8.34874 16.628C8.48225 16.3943 8.7308 16.25 9 16.25H15C15.2712 16.25 15.5213 16.3964 15.654 16.6329C15.7868 16.8694 15.7815 17.1591 15.6402 17.3906L12.5895 22.3906C12.4523 22.6155 12.2071 22.7519 11.9437 22.75C11.6802 22.748 11.4371 22.608 11.3033 22.381L8.35401 17.381C8.21724 17.1492 8.21523 16.8618 8.34874 16.628Z" fill="#141B34"/>
<path d="M16.628 8.34874C16.8618 8.21523 17.1492 8.21724 17.381 8.35401L22.381 11.3033C22.608 11.4371 22.748 11.6802 22.75 11.9437C22.7519 12.2071 22.6155 12.4523 22.3906 12.5895L17.3906 15.6402C17.1591 15.7815 16.8694 15.7868 16.6329 15.654C16.3964 15.5213 16.25 15.2712 16.25 15V9C16.25 8.7308 16.3943 8.48225 16.628 8.34874Z" fill="#141B34"/>
<path d="M7.37197 8.34874C7.60573 8.48225 7.75 8.7308 7.75 9V15C7.75 15.2712 7.60359 15.5213 7.3671 15.654C7.1306 15.7868 6.84087 15.7815 6.60936 15.6402L1.60936 12.5895C1.38446 12.4523 1.24805 12.2071 1.25002 11.9437C1.25199 11.6802 1.39204 11.4371 1.61896 11.3033L6.61896 8.35401C6.85083 8.21724 7.13821 8.21523 7.37197 8.34874Z" fill="#141B34"/>
<path d="M9.25 12C9.25 10.4812 10.4812 9.25 12 9.25C13.5188 9.25 14.75 10.4812 14.75 12C14.75 13.5188 13.5188 14.75 12 14.75C10.4812 14.75 9.25 13.5188 9.25 12Z" fill="#141B34"/>
</svg>
