<svg width="24" height="24" viewBox="0 0 24 24" fill="none" xmlns="http://www.w3.org/2000/svg">
<path d="M10.5 12.0402L10.8905 8.93016C10.9815 8.20542 11.3125 8.05811 12 8.05811C12.6875 8.05811 13.0185 8.20542 13.1095 8.93016L13.5 12.0402" stroke="#141B34" stroke-width="1.5" stroke-linecap="round" stroke-linejoin="round"/>
<path d="M8.26872 12.5354C9.60954 11.7166 10.7798 12.0466 11.4828 12.5721C11.7711 12.7877 11.9152 12.8954 12 12.8954C12.0848 12.8954 12.2289 12.7877 12.5172 12.5721C13.2202 12.0466 14.3905 11.7166 15.7313 12.5354C17.491 13.61 17.8891 17.155 13.8302 20.1458C13.0571 20.7155 12.6706 21.0003 12 21.0003C11.3294 21.0003 10.9429 20.7155 10.1698 20.1458C6.11086 17.155 6.50903 13.61 8.26872 12.5354Z" stroke="#141B34" stroke-width="1.5" stroke-linecap="round" stroke-linejoin="round"/>
<path opacity="0.4" d="M2.0059 3C1.90863 4.57063 2.97686 8.02052 8.05347 9.63204M21.9941 3C22.0914 4.57063 21.0231 8.02052 15.9465 9.63204" stroke="#141B34" stroke-width="1.5" stroke-linecap="round" stroke-linejoin="round"/>
</svg>
