<svg width="24" height="24" viewBox="0 0 24 24" fill="none" xmlns="http://www.w3.org/2000/svg">
<path d="M16.8996 12.4513C17.0264 12.3617 17.2286 12.25 17.4998 12.25C17.771 12.25 17.9733 12.3617 18.1 12.4513L19.0562 13.3109L20.3323 13.2762C20.4857 13.2899 20.7099 13.3352 20.9154 13.5079C21.1209 13.6806 21.2041 13.8936 21.244 14.0424L21.434 15.3371L22.443 16.1507C22.5498 16.2594 22.6893 16.4366 22.7352 16.6973C22.7811 16.9581 22.7105 17.1723 22.6473 17.3109L21.9709 18.4296L22.2295 19.716C22.2421 19.8685 22.2359 20.0952 22.1029 20.3258C21.97 20.5565 21.7769 20.6755 21.6387 20.741L20.4225 21.1532L19.8108 22.2982C19.7224 22.4254 19.5708 22.5989 19.3167 22.6915C19.0627 22.784 18.835 22.7488 18.6855 22.7083L17.4998 22.2336L16.3141 22.7083C16.1646 22.7488 15.937 22.784 15.6829 22.6915C15.4288 22.5989 15.2773 22.4254 15.1889 22.2982L14.5771 21.1532L13.361 20.741C13.2227 20.6755 13.0297 20.5565 12.8967 20.3258C12.7638 20.0952 12.7575 19.8685 12.7701 19.716L13.0287 18.4296L12.3524 17.3109C12.2892 17.1723 12.2186 16.9581 12.2645 16.6973C12.3104 16.4366 12.4499 16.2594 12.5567 16.1507L13.5657 15.3371L13.7556 14.0424C13.7955 13.8936 13.8787 13.6806 14.0842 13.5079C14.2898 13.3352 14.5139 13.2899 14.6673 13.2762L15.9434 13.3109L16.8996 12.4513Z" fill="#141B34"/>
<path opacity="0.4" d="M13.4653 4.75H9.54836C7.80421 4.74998 6.41746 4.74997 5.33103 4.89881C4.20972 5.05243 3.29737 5.37711 2.5785 6.10965C1.86155 6.84022 1.54553 7.76413 1.39567 8.89997C1.24997 10.0042 1.24999 11.5256 1.25 13.3053C1.24999 15.0851 1.24997 16.4958 1.39567 17.6C1.54553 18.7359 1.86155 19.6598 2.5785 20.3904C3.29737 21.1229 4.20972 21.4476 5.33103 21.6012C6.41745 21.75 7.80415 21.75 9.54827 21.75H12.1697C11.9714 21.587 11.7665 21.368 11.5976 21.075C11.2533 20.4777 11.2498 19.9049 11.2756 19.5928L11.4435 18.7062L10.9874 17.9334C10.8579 17.6495 10.6687 17.1125 10.7876 16.4373C10.9064 15.762 11.2683 15.3222 11.4869 15.0995L12.1672 14.5381L12.3073 13.6534C12.3889 13.3495 12.5873 12.8068 13.1196 12.3595C13.6519 11.9122 14.2206 11.8102 14.5341 11.7822L15.3862 11.7952L16.0343 11.2264C16.2929 11.0436 16.7977 10.75 17.5002 10.75C18.2027 10.75 18.7075 11.0436 18.9661 11.2264L19.6143 11.7952L20.4663 11.7822C20.7543 11.8079 21.2574 11.8961 21.75 12.2568V10.9923L21.7498 10.9845C21.705 8.80913 21.5271 7.22233 20.4352 6.10965C19.7163 5.37711 18.8039 5.05243 17.6826 4.89881C16.5962 4.74997 15.2095 4.74998 13.4653 4.75Z" fill="#141B34"/>
<path d="M13.4896 1.30636C12.9893 1.24994 12.2026 1.24997 11.5006 1.25C10.7986 1.24997 10.0119 1.24994 9.51156 1.30636C8.97215 1.36718 8.46296 1.50167 7.9999 1.8313C7.53975 2.15886 7.25542 2.58653 7.03115 3.06267C6.82087 3.50911 6.62996 4.07485 6.40699 4.73558L6.38477 4.80145C6.98672 4.76671 7.6599 4.75542 8.41038 4.75176C8.54926 4.35488 8.67729 4.00985 8.77292 3.80681C8.92551 3.48287 9.04052 3.36036 9.14281 3.28755C9.24218 3.21681 9.38775 3.15111 9.73601 3.11184C10.1109 3.06957 10.7308 3.06809 11.5006 3.06809C12.2705 3.06809 12.8904 3.06957 13.2652 3.11184C13.6135 3.15111 13.759 3.21681 13.8584 3.28755C13.9607 3.36036 14.0757 3.48287 14.2283 3.80681C14.3239 4.00984 14.4519 4.35484 14.5908 4.75169C15.341 4.75526 16.0141 4.76632 16.6162 4.80065L16.5942 4.73559C16.3713 4.07486 16.1803 3.50911 15.9701 3.06267C15.7458 2.58653 15.4615 2.15886 15.0013 1.8313C14.5382 1.50167 14.0291 1.36718 13.4896 1.30636Z" fill="#141B34"/>
</svg>
