<svg width="24" height="24" viewBox="0 0 24 24" fill="none" xmlns="http://www.w3.org/2000/svg">
<path fill-rule="evenodd" clip-rule="evenodd" d="M6.17969 21.75H20.7486C21.8532 21.75 22.7486 20.8546 22.7486 19.75V4.25C22.7486 3.14543 21.8532 2.25 20.7486 2.25H8.99863C7.89406 2.25 6.99863 3.14543 6.99863 4.25V19.5C6.99863 20.3568 6.69079 21.1416 6.17969 21.75ZM1.25 8C1.25 7.58579 1.58579 7.25 2 7.25H5C5.41421 7.25 5.75 7.58579 5.75 8V19.5C5.75 20.7426 4.74264 21.75 3.5 21.75C2.25736 21.75 1.25 20.7426 1.25 19.5V8ZM10.375 8.75037L19.375 8.75C19.7892 8.74998 20.125 8.41418 20.125 7.99997C20.125 7.58576 19.7892 7.24998 19.375 7.25L10.375 7.25037C9.96076 7.25038 9.62498 7.58618 9.625 8.0004C9.62502 8.41461 9.96082 8.75038 10.375 8.75037ZM10.375 11.25C9.96079 11.25 9.625 11.5858 9.625 12C9.625 12.4142 9.96079 12.75 10.375 12.75H12.875C13.2892 12.75 13.625 12.4142 13.625 12C13.625 11.5858 13.2892 11.25 12.875 11.25H10.375ZM16.875 11.25C16.4608 11.25 16.125 11.5858 16.125 12C16.125 12.4142 16.4608 12.75 16.875 12.75H19.375C19.7892 12.75 20.125 12.4142 20.125 12C20.125 11.5858 19.7892 11.25 19.375 11.25H16.875ZM10.375 15.25C9.96079 15.25 9.625 15.5858 9.625 16C9.625 16.4142 9.96079 16.75 10.375 16.75H12.875C13.2892 16.75 13.625 16.4142 13.625 16C13.625 15.5858 13.2892 15.25 12.875 15.25H10.375ZM16.875 15.25C16.4608 15.25 16.125 15.5858 16.125 16C16.125 16.4142 16.4608 16.75 16.875 16.75H19.375C19.7892 16.75 20.125 16.4142 20.125 16C20.125 15.5858 19.7892 15.25 19.375 15.25H16.875Z" fill="#141B34"/>
</svg>
