<svg width="24" height="24" viewBox="0 0 24 24" fill="none" xmlns="http://www.w3.org/2000/svg">
<path d="M19.75 14.2422L15.8359 18.1562L14.3359 16.6562L11.1543 19.8379L14.0664 22.75L2.25 22.75L2.25 3L19.75 3L19.75 14.2422ZM6.25 14.25L6.25 15.75H11.75V14.25H6.25ZM6.25 10.25V11.75L15.75 11.75V10.25L6.25 10.25Z" fill="#141B34"/>
<path d="M21.75 16.8359L15.8359 22.75L12.9219 19.8359L14.3359 18.4219L15.8359 19.9219L20.3359 15.4219L21.75 16.8359Z" fill="#141B34"/>
<path d="M5.75 1.25H7.65909V5.75H5.75V1.25ZM10.0455 1.25H11.9545V5.75H10.0455V1.25ZM14.3409 1.25H16.25V5.75H14.3409V1.25Z" fill="#141B34"/>
</svg>
