<svg width="24" height="24" viewBox="0 0 24 24" fill="none" xmlns="http://www.w3.org/2000/svg">
<path d="M16.2959 1.125C16.8227 1.12524 17.2498 1.55227 17.25 2.0791V2.875H18C19.5188 2.875 20.75 4.10622 20.75 5.625L20.75 19.875C20.75 21.3938 19.5188 22.625 18 22.625L6 22.625C4.48122 22.625 3.25 21.3938 3.25 19.875L3.25 5.625C3.25 4.10622 4.48122 2.875 6 2.875H6.75V2.0791C6.75024 1.55227 7.17727 1.12524 7.7041 1.125C8.23113 1.125 8.65894 1.55212 8.65918 2.0791V2.875L11.0459 2.875V2.0791C11.0461 1.55212 11.473 1.125 12 1.125C12.527 1.125 12.9539 1.55212 12.9541 2.0791V2.875H15.3408V2.0791C15.3411 1.55212 15.7689 1.125 16.2959 1.125ZM19.25 18.874C18.6713 19.3089 17.9633 19.581 17.1934 19.6201L17 19.625L7 19.625C6.15574 19.625 5.37677 19.3458 4.75 18.875V19.875C4.75 20.5654 5.30964 21.125 6 21.125L18 21.125C18.6904 21.125 19.25 20.5654 19.25 19.875V18.874ZM8 13.125C7.58579 13.125 7.25 13.4608 7.25 13.875C7.25 14.2892 7.58579 14.625 8 14.625H12C12.4142 14.625 12.75 14.2892 12.75 13.875C12.75 13.4608 12.4142 13.125 12 13.125H8ZM8 9.125C7.58579 9.125 7.25 9.46079 7.25 9.875C7.25 10.2892 7.58579 10.625 8 10.625L16 10.625C16.4142 10.625 16.75 10.2892 16.75 9.875C16.75 9.46079 16.4142 9.125 16 9.125L8 9.125Z" fill="#141B34"/>
</svg>
