<svg width="24" height="24" viewBox="0 0 24 24" fill="none" xmlns="http://www.w3.org/2000/svg">
<path d="M12 1.75C12.7662 1.75 13.5122 1.83667 14.2305 1.99609C13.1655 2.99911 12.5 4.42159 12.5 6C12.5 9.03757 14.9624 11.5 18 11.5C19.5784 11.5 20.9999 10.8336 22.0029 9.76855C22.1625 10.4871 22.25 11.2334 22.25 12C22.25 17.6609 17.6609 22.25 12 22.25C6.33908 22.25 1.75 17.6609 1.75 12C1.75 6.33908 6.33908 1.75 12 1.75ZM7 17H17V15H7V17ZM7 13H13V11H7V13ZM18 1.75C20.3472 1.75 22.25 3.65279 22.25 6C22.25 8.34721 20.3472 10.25 18 10.25C15.6528 10.25 13.75 8.34721 13.75 6C13.75 3.65279 15.6528 1.75 18 1.75Z" fill="#141B34"/>
</svg>
