<svg width="24" height="24" viewBox="0 0 24 24" fill="none" xmlns="http://www.w3.org/2000/svg">
<path d="M12 1.74609C12.7658 1.74609 13.5116 1.83195 14.2295 1.99121C13.1646 2.99432 12.5 4.41778 12.5 5.99609C12.5 8.93869 14.8108 11.3419 17.7168 11.4893L18 11.4961C19.5784 11.4961 20.9999 10.8296 22.0029 9.76465C22.1625 10.4832 22.25 11.2295 22.25 11.9961C22.25 17.657 17.6609 22.2461 12 22.2461C9.96422 22.2461 8.06553 21.6514 6.46973 20.627L1.81445 22.1797L3.36523 17.5234C2.34228 15.9284 1.75 14.0302 1.75 11.9961C1.75 6.33518 6.33908 1.74609 12 1.74609ZM18 1.74609C20.3472 1.74609 22.25 3.64888 22.25 5.99609C22.25 8.34331 20.3472 10.2461 18 10.2461C15.6528 10.2461 13.75 8.34328 13.75 5.99609C13.75 3.64891 15.6528 1.74613 18 1.74609Z" fill="#141B34"/>
</svg>
