<svg width="24" height="24" viewBox="0 0 24 24" fill="none" xmlns="http://www.w3.org/2000/svg">
<path d="M11.998 2.25001C12.3452 2.25001 12.6872 2.27526 13.0225 2.32326C13.101 3.34665 14.0475 4.32156 15.0928 4.36915L14.0498 5.39943L13.7295 5.73829C13.6378 5.84232 13.3674 6.18021 13.2227 6.49904C13.0258 6.93266 12.8543 7.65584 13.1895 8.44533C13.5125 9.09472 14.1037 9.56128 14.4521 9.71681C14.7293 9.84052 15.2809 10 16.458 10H19.3828L20.6709 18.2803C20.7087 18.4924 20.7461 18.7227 20.7461 18.9014C20.7262 19.6589 20.3103 20.2701 19.8096 20.7158C19.2954 21.1735 18.6062 21.5412 17.8389 21.8301C16.2967 22.4107 14.2313 22.75 11.998 22.75C9.76473 22.75 7.69942 22.4107 6.15723 21.8301C5.38985 21.5411 4.70074 21.1735 4.18652 20.7158C3.68584 20.2701 3.26992 19.6589 3.25 18.9014C3.25002 18.7227 3.28733 18.469 3.3252 18.2803L4.86523 8.3799L4.92383 8.05177C5.60411 4.69123 8.5523 2.25004 11.998 2.25001ZM11.998 16.8945C9.93611 16.8945 8.11259 17.2103 6.83984 17.6895C6.20013 17.9303 5.7495 18.1937 5.47656 18.4365C5.28296 18.5779 4.9987 18.8756 5.47656 19.2559C5.74947 19.4988 6.19997 19.762 6.83984 20.0029C8.1126 20.4822 9.93603 20.7988 11.998 20.7988C14.0601 20.7988 15.8835 20.4822 17.1562 20.0029C17.7961 19.762 18.2466 19.4988 18.5195 19.2559C18.993 18.8865 18.7175 18.5755 18.5195 18.4365C18.2466 18.1937 17.7959 17.9303 17.1562 17.6895C15.8835 17.2103 14.06 16.8945 11.998 16.8945ZM12.998 17.8477C13.5502 17.8478 13.998 18.2955 13.998 18.8477C13.998 19.3999 13.5502 19.8475 12.998 19.8477H10.998C10.4458 19.8477 9.99805 19.4 9.99805 18.8477C9.99805 18.2954 10.4458 17.8477 10.998 17.8477H12.998ZM18.6562 1.25001C18.9677 1.24989 19.2969 1.2499 19.5566 1.2881C19.809 1.32523 20.3769 1.44954 20.6289 2.04298C20.8776 2.62886 20.5858 3.1288 20.4434 3.33986C20.2952 3.55946 20.073 3.80591 19.8604 4.04103L16.9697 6.87501H19.8213C20.3341 6.87501 20.75 7.29475 20.75 7.81251C20.75 8.33027 20.3341 8.75001 19.8213 8.75001H16.458C16.1345 8.75008 15.782 8.75025 15.499 8.71486C15.3502 8.69623 15.1538 8.66081 14.9619 8.57521C14.7622 8.48604 14.4875 8.30484 14.3398 7.95704C14.1827 7.58674 14.2587 7.2416 14.3613 7.01564C14.451 6.81828 14.5819 6.66103 14.667 6.56447C14.7517 6.46841 14.852 6.36555 14.9414 6.27443L18.1338 3.12501H15.1934C14.6806 3.12488 14.2646 2.7052 14.2646 2.18751C14.2647 1.66984 14.6807 1.25014 15.1934 1.25001H18.6562Z" fill="#141B34"/>
</svg>
