<svg width="24" height="24" viewBox="0 0 24 24" fill="none" xmlns="http://www.w3.org/2000/svg">
<path d="M13.75 20.5C13.75 21.7426 12.7426 22.75 11.5 22.75C10.2574 22.75 9.25 21.7426 9.25 20.5H13.75ZM11.5 2.25C12.0006 2.25 12.4897 2.29899 12.9639 2.38965C12.3561 3.27436 12 4.34551 12 5.5C12 8.53757 14.4624 11 17.5 11C18.112 11 18.7001 10.8984 19.25 10.7139V17.25H19.75C20.3023 17.25 20.75 17.6977 20.75 18.25C20.75 18.8023 20.3023 19.25 19.75 19.25H3.25C2.69772 19.25 2.25 18.8023 2.25 18.25C2.25 17.6977 2.69772 17.25 3.25 17.25H3.75V10C3.75 5.71979 7.21979 2.25 11.5 2.25ZM17.5 1.25C19.8472 1.25 21.75 3.15279 21.75 5.5C21.75 7.84721 19.8472 9.75 17.5 9.75C15.1528 9.75 13.25 7.84721 13.25 5.5C13.25 3.15279 15.1528 1.25 17.5 1.25ZM15.3027 4.63867C15.198 4.9057 15.1387 5.19582 15.1387 5.5C15.1387 6.80401 16.196 7.86133 17.5 7.86133C17.804 7.86133 18.0935 7.80092 18.3604 7.69629L15.3027 4.63867ZM17.5 3.13867C17.1958 3.13867 16.9057 3.19798 16.6387 3.30273L19.6963 6.36035C19.8009 6.09347 19.8613 5.80398 19.8613 5.5C19.8613 4.19599 18.804 3.13867 17.5 3.13867Z" fill="#141B34"/>
</svg>
