<svg width="24" height="24" viewBox="0 0 24 24" fill="none" xmlns="http://www.w3.org/2000/svg">
<path fill-rule="evenodd" clip-rule="evenodd" d="M7.24023 21.4494C8.4559 20.0299 10.1172 19.0999 11.9998 19.0999C13.8823 19.0999 15.5436 20.0299 16.7593 21.4494L15.2402 22.7503C14.3238 21.6803 13.1845 21.0999 11.9998 21.0999C10.815 21.0999 9.67567 21.6803 8.75928 22.7503L7.24023 21.4494Z" fill="#141B34"/>
<path d="M6.25 15.25C6.25 13.628 7.51111 12.25 9.14286 12.25H14.8571C16.4889 12.25 17.75 13.628 17.75 15.25V16.75H6.25V15.25Z" fill="#141B34"/>
<path fill-rule="evenodd" clip-rule="evenodd" d="M20.0447 11.6182L21.5 10.8946L20.6006 9.10571L18.0335 10.3821V13.0001C18.0335 13.5524 17.5833 14.0001 17.0279 14.0001V16.0001C18.6941 16.0001 20.0447 14.657 20.0447 13.0001V11.6182Z" fill="#141B34"/>
<path fill-rule="evenodd" clip-rule="evenodd" d="M3.39941 9.10571L5.96647 10.3821V13.0001C5.96647 13.5524 6.41669 14.0001 6.97206 14.0001V16.0001C5.30594 16.0001 3.95529 14.657 3.95529 13.0001V11.6182L2.5 10.8946L3.39941 9.10571Z" fill="#141B34"/>
<path fill-rule="evenodd" clip-rule="evenodd" d="M11 22V16H13V22H11Z" fill="#141B34"/>
<path d="M7.2558 10.093C7.30271 10.4683 7.62176 10.75 8 10.75H16C16.3782 10.75 16.6973 10.4683 16.7442 10.093L17.7442 2.09303C17.7709 1.87956 17.7046 1.66492 17.5623 1.50365C17.4199 1.34237 17.2151 1.25 17 1.25H7C6.78488 1.25 6.58011 1.34237 6.43775 1.50365C6.29538 1.66492 6.22911 1.87956 6.2558 2.09303L7.2558 10.093Z" fill="#141B34"/>
<path fill-rule="evenodd" clip-rule="evenodd" d="M11 13V10H13V13H11Z" fill="#141B34"/>
</svg>
