<svg width="24" height="24" viewBox="0 0 24 24" fill="none" xmlns="http://www.w3.org/2000/svg">
<path fill-rule="evenodd" clip-rule="evenodd" d="M5.76236 5.94468C5.79293 6.35777 5.48284 6.71742 5.06975 6.74799C4.07974 6.82125 3.63874 6.99947 3.34396 7.2991C3.09969 7.5474 2.93515 7.90041 2.84469 8.58429C2.75154 9.28851 2.75 10.2229 2.75 11.5678V16.3827C2.75 17.7276 2.75154 18.662 2.84469 19.3662C2.93515 20.0501 3.09969 20.4031 3.34396 20.6514C3.58656 20.898 3.92894 21.063 4.59597 21.1541C5.28585 21.2484 6.20228 21.25 7.5264 21.25C8.85053 21.25 9.76695 21.2484 10.4568 21.1541C11.1239 21.063 11.4662 20.898 11.7088 20.6514C12.001 20.3545 12.1775 19.9096 12.2522 18.9336C12.2838 18.5206 12.6442 18.2113 13.0572 18.2429C13.4702 18.2745 13.7794 18.6349 13.7478 19.0479C13.6657 20.1214 13.453 21.0174 12.7781 21.7034C12.2114 22.2794 11.4978 22.5258 10.6599 22.6403C9.85663 22.7501 8.83727 22.7501 7.58157 22.75H7.47124C6.21554 22.7501 5.19617 22.7501 4.39287 22.6403C3.55499 22.5258 2.84141 22.2794 2.27468 21.7034C1.70963 21.129 1.46952 20.4087 1.35764 19.5629C1.24996 18.7488 1.24998 17.7148 1.25 16.4364V11.5141C1.24998 10.2357 1.24996 9.20169 1.35764 8.3876C1.46952 7.5418 1.70963 6.82148 2.27468 6.24713C2.96403 5.54645 3.87182 5.33254 4.95905 5.25208C5.37214 5.22151 5.73179 5.5316 5.76236 5.94468Z" fill="#141B34"/>
<path fill-rule="evenodd" clip-rule="evenodd" d="M6.26168 5.67625C6.30244 6.22702 5.88898 6.70656 5.3382 6.74732C4.36439 6.81938 4.0012 6.99166 3.77218 7.22444C3.58137 7.41839 3.42942 7.71019 3.34253 8.36708C3.25206 9.0511 3.25 9.96599 3.25 11.3178V16.1327C3.25 17.4845 3.25206 18.3994 3.34253 19.0835C3.42942 19.7403 3.58137 20.0321 3.77218 20.2261C3.96076 20.4178 4.24126 20.5692 4.87982 20.6564C5.54885 20.7479 6.4451 20.75 7.7764 20.75C9.10771 20.75 10.004 20.7479 10.673 20.6564C11.3115 20.5692 11.5921 20.4178 11.7806 20.2261C12.009 19.994 12.1795 19.6243 12.2529 18.6645C12.295 18.1138 12.7756 17.7016 13.3262 17.7437C13.8769 17.7858 14.2892 18.2663 14.2471 18.817C14.1638 19.9067 13.945 20.8779 13.2063 21.6287C12.5856 22.2597 11.8101 22.5196 10.9438 22.638C10.1234 22.7501 9.08943 22.7501 7.84707 22.75H7.70574C6.46338 22.7501 5.42941 22.7501 4.60902 22.638C3.74267 22.5196 2.96722 22.2597 2.34647 21.6287C1.72796 21 1.47525 20.2185 1.3598 19.3457C1.24994 18.5151 1.24997 17.4669 1.25 16.2017V11.2489C1.24997 9.9836 1.24994 8.93545 1.3598 8.10483C1.47525 7.23204 1.72796 6.45051 2.34647 5.82182C3.10157 5.05429 4.08717 4.83443 5.1906 4.75277C5.74138 4.71201 6.22092 5.12547 6.26168 5.67625Z" fill="#141B34"/>
<path fill-rule="evenodd" clip-rule="evenodd" d="M6.75 18.5C6.75 17.9477 7.19571 17.5 7.74553 17.5H7.75447C8.30429 17.5 8.75 17.9477 8.75 18.5C8.75 19.0523 8.30429 19.5 7.75447 19.5H7.74553C7.19571 19.5 6.75 19.0523 6.75 18.5Z" fill="#141B34"/>
<path opacity="0.4" d="M16.1343 1.25C17.5371 1.24998 18.6668 1.24996 19.55 1.36971C20.4652 1.49379 21.2367 1.75997 21.8332 2.38581C22.4313 3.01335 22.6546 3.79375 22.7236 4.70722C22.7899 5.58576 22.7193 6.69893 22.6319 8.07713L22.5393 9.53741C22.4909 10.3007 22.4287 11.2051 22.1168 12.0027C21.785 12.8512 21.1737 13.5774 20.0942 13.9781C19.4703 14.2098 18.7311 14.2094 17.6577 14.2089L17.5047 14.2089C17.448 14.2089 17.4213 14.2149 17.4073 14.2191C17.3935 14.2232 17.3679 14.2326 17.321 14.2634L14.3616 16.2081L14.3259 16.2315L14.3259 16.2315C14.109 16.3742 13.8821 16.5234 13.6829 16.6162C13.4718 16.7144 13.0773 16.8526 12.662 16.6336C12.2425 16.4123 12.1372 16.0044 12.1024 15.772C12.0699 15.5553 12.07 15.2846 12.0701 15.0284L12.0701 14.9854L12.0701 14.9677C12.0701 14.7769 12.0701 14.6229 12.0596 14.4823C12.0492 14.3428 12.0309 14.2618 12.0146 14.2178C11.9936 14.2135 11.9583 14.2089 11.9038 14.2089L11.8204 14.2089C11.2343 14.209 10.8322 14.2091 10.4777 14.1394C9.11466 13.8714 8.01738 12.8605 7.65757 11.5237C7.56406 11.1763 7.5389 10.7776 7.50264 10.2032L7.49732 10.119L7.36784 8.07714C7.28043 6.69894 7.20983 5.58576 7.27615 4.70722C7.34511 3.79375 7.56843 3.01335 8.16654 2.38581C8.76302 1.75997 9.53449 1.49379 10.4497 1.36971C11.3329 1.24996 12.4626 1.24998 13.8654 1.25H13.8654H16.1343H16.1343Z" fill="#141B34"/>
<path fill-rule="evenodd" clip-rule="evenodd" d="M17.9056 11.1707C17.5351 11.3559 17.0846 11.2057 16.8993 10.8352L16.4816 9.99984L13.6587 9.99984L13.241 10.8352C13.0557 11.2057 12.6052 11.3559 12.2347 11.1707C11.8643 10.9854 11.7141 10.5349 11.8993 10.1644L12.5218 8.91957L14.3228 5.17476C14.446 4.91873 14.7032 4.75425 14.9873 4.74992C15.2714 4.74559 15.5335 4.90215 15.6644 5.15432L17.616 8.91439L18.241 10.1644C18.4262 10.5349 18.276 10.9854 17.9056 11.1707ZM14.3881 8.49984L15.7109 8.49984L15.0243 7.17708L14.3881 8.49984Z" fill="#141B34"/>
</svg>
