<svg width="24" height="24" viewBox="0 0 24 24" fill="none" xmlns="http://www.w3.org/2000/svg">
<path fill-rule="evenodd" clip-rule="evenodd" d="M5.05625 6.21955C4.43731 8.45617 5.44207 11.0375 7.48242 12.3765C8.49715 13.0425 10.1014 13.7156 11.9121 13.7495C13.7521 13.784 15.7779 13.1554 17.5495 11.2576C17.7165 11.0788 17.7857 10.8298 17.735 10.5905C17.6844 10.3512 17.5202 10.1516 17.2951 10.0558C16.0248 9.51482 15.291 8.46459 14.588 7.22899C14.4948 7.06512 14.4002 6.89446 14.304 6.72098C14.0537 6.26945 13.7928 5.79888 13.518 5.3793C13.1292 4.78585 12.6604 4.20766 12.0283 3.79284C9.87035 2.37665 7.16718 2.76507 5.76019 4.73494C7.25016 6.54121 8.83998 7.7738 10.3574 8.59594C10.7216 8.79326 10.8569 9.24845 10.6596 9.61265C10.4622 9.97684 10.0071 10.1121 9.64286 9.9148C8.10841 9.08345 6.53589 7.88947 5.05625 6.21955Z" fill="#141B34"/>
<path fill-rule="evenodd" clip-rule="evenodd" d="M3.65447 1.63361C3.45204 1.27223 2.99499 1.14337 2.63361 1.3458C2.27223 1.54822 2.14337 2.00528 2.3458 2.36666C3.1873 3.86894 4.10248 5.14312 5.05625 6.21955C5.14074 5.91423 5.25549 5.61533 5.40199 5.3269C5.50913 5.11595 5.62903 4.91857 5.76019 4.73494C5.02729 3.84644 4.31855 2.81914 3.65447 1.63361Z" fill="#141B34"/>
<path d="M4.77835 11.9262C5.21186 11.622 5.30436 11.0407 4.98494 10.6278C4.66553 10.215 4.05516 10.1269 3.62165 10.4311C2.88581 10.9474 2.25 11.6861 2.25 12.6383V13.0001C2.25 16.9237 4.97693 20.2645 7.79391 22.1097C8.49664 22.57 9.30769 22.7501 10.0829 22.7501H13.9171C14.6923 22.7501 15.5034 22.57 16.2061 22.1097C19.0231 20.2645 21.75 16.9237 21.75 13.0001V12.6383C21.75 11.6861 21.1142 10.9474 20.3784 10.4311C19.9448 10.1269 19.3345 10.215 19.0151 10.6278C18.6956 11.0407 18.7881 11.622 19.2217 11.9262C19.732 12.2843 19.8 12.5383 19.8 12.6383C19.8 12.7226 19.7566 12.9098 19.433 13.1873C19.1096 13.4646 18.5869 13.7569 17.8578 14.0214C16.4065 14.5478 14.3357 14.8929 12 14.8929C9.66429 14.8929 7.59351 14.5478 6.14218 14.0214C5.41313 13.7569 4.89038 13.4646 4.56703 13.1873C4.24345 12.9098 4.2 12.7226 4.2 12.6383C4.2 12.5383 4.268 12.2843 4.77835 11.9262Z" fill="#141B34"/>
</svg>
