<svg width="24" height="24" viewBox="0 0 24 24" fill="none" xmlns="http://www.w3.org/2000/svg">
<path opacity="0.4" fill-rule="evenodd" clip-rule="evenodd" d="M3.96159 7.8314C4.15774 7.67733 4.32437 7.54815 4.35579 7.52885C4.67415 7.33327 5.18221 7.10716 5.99328 6.75021L7.54868 6.06568C8.03366 5.85224 8.23713 5.32059 8.00313 4.87821C7.76914 4.43582 7.1863 4.25023 6.70132 4.46367L5.07981 5.17729C4.35503 5.49619 3.71606 5.77734 3.2665 6.05352C2.81708 6.32961 2.25 6.78386 2.25 7.52574C2.25 7.55018 2.25108 7.57439 2.2532 7.59832C2.25108 7.62129 2.25 7.64456 2.25 7.66807L2.25 17.3012C2.25 18.4206 3.06888 19.164 4.07416 19.7655C5.0925 20.3748 6.80139 21.0946 8.69452 21.8919L8.69452 21.8919C10.1139 22.4903 11.0284 22.8757 12 22.8757C12.9716 22.8757 13.8861 22.4903 15.3055 21.8919C17.1986 21.0946 18.9075 20.3748 19.9258 19.7655C20.9311 19.164 21.75 18.4206 21.75 17.3012L21.75 7.66807C21.75 7.64456 21.7489 7.62129 21.7468 7.59832C21.7489 7.57439 21.75 7.55018 21.75 7.52574C21.75 6.78386 21.1829 6.32961 20.7335 6.05352C20.2839 5.77734 19.645 5.49619 18.9202 5.17728L18.9202 5.17727L17.3422 4.4828C16.8572 4.26936 16.2743 4.45496 16.0403 4.89734C15.8063 5.33973 16.0098 5.87138 16.4948 6.08481L18.0067 6.75021C18.8178 7.10716 19.3259 7.33327 19.6442 7.52885C19.6756 7.54815 19.8423 7.67733 20.0384 7.8314C20.0204 7.84427 20.0009 7.85778 19.9799 7.87194C19.6348 8.10435 19.0937 8.36754 18.2694 8.76524L15.3482 10.1747C13.4806 11.0757 12.7582 11.4049 12 11.4049C11.2418 11.4049 10.5195 11.0757 8.65182 10.1746L5.73062 8.76524C4.90633 8.36754 4.36522 8.10435 4.02014 7.87194C3.99912 7.85778 3.97964 7.84427 3.96159 7.8314Z" fill="#141B34"/>
<path fill-rule="evenodd" clip-rule="evenodd" d="M5.32709 12.9467C5.50982 12.5749 5.9593 12.4217 6.33103 12.6044L8.33103 13.5876C8.70276 13.7703 8.85597 14.2198 8.67324 14.5915C8.49051 14.9632 8.04104 15.1164 7.66931 14.9337L5.66931 13.9506C5.29758 13.7679 5.14436 13.3184 5.32709 12.9467Z" fill="#141B34"/>
<path d="M14.7606 3.47578C15.1192 3.89585 15.0693 4.52705 14.6492 4.8856C14.4626 5.04492 14.2343 5.1236 14.0067 5.125H13L13 9.125C13 9.67728 12.5523 10.125 12 10.125C11.4477 10.125 11 9.67728 11 9.125V5.125H9.99336C9.76579 5.1236 9.53745 5.04492 9.3508 4.8856C8.93073 4.52705 8.88086 3.89585 9.23941 3.47578L10.2394 2.30421L10.2721 2.26585L10.2721 2.26585C10.4788 2.02354 10.6945 1.77073 10.9005 1.58655C11.1317 1.37989 11.4948 1.125 12 1.125C12.5052 1.125 12.8683 1.37989 13.0995 1.58655C13.3056 1.77073 13.5212 2.02353 13.7279 2.26585L13.7279 2.26585L13.7606 2.30421L14.7606 3.47578Z" fill="#141B34"/>
</svg>
