<svg width="24" height="24" viewBox="0 0 24 24" fill="none" xmlns="http://www.w3.org/2000/svg">
<path d="M17.239 1.75C18.2674 1.75 19.2214 2.26289 19.7507 3.10156L22.1101 6.84375C22.2223 7.02158 22.2639 7.22044 22.2439 7.41211C22.2473 7.44097 22.2498 7.47024 22.2498 7.5V15.7969C21.544 13.8729 19.6955 12.5 17.5271 12.5C14.8372 12.5003 12.641 14.6129 12.5066 17.2695L12.4998 17.5283C12.5 19.6972 13.8738 21.545 15.7986 22.25H4.49976C2.98109 22.2499 1.74976 21.0187 1.74976 19.5V7.5C1.74976 7.47028 1.75127 7.44093 1.75464 7.41211C1.73469 7.22047 1.77726 7.02155 1.8894 6.84375L4.24878 3.10156C4.77812 2.26289 5.73208 1.75 6.7605 1.75H17.239ZM9.99976 9.75C9.58565 9.75013 9.24976 10.0859 9.24976 10.5C9.24976 10.9141 9.58565 11.2499 9.99976 11.25H13.9998C14.414 11.25 14.7498 10.9142 14.7498 10.5C14.7498 10.0858 14.414 9.75 13.9998 9.75H9.99976ZM6.7605 3.60742C6.41768 3.60742 6.09905 3.77804 5.92261 4.05762L4.22437 6.75H11.0232V3.60742H6.7605ZM12.9763 6.75H19.7751L18.0769 4.05762C17.9005 3.77805 17.5818 3.60742 17.239 3.60742H12.9763V6.75Z" fill="#141B34"/>
<path d="M19.4165 17.5279C19.4165 16.4846 18.5708 15.6389 17.5276 15.6389C16.4844 15.6389 15.6387 16.4846 15.6387 17.5279C15.6388 18.571 16.4844 19.4168 17.5276 19.4168C18.0494 19.4168 18.5203 19.2062 18.8631 18.8634C19.2059 18.5206 19.4164 18.0496 19.4165 17.5279ZM21.3054 17.5279C21.3054 18.228 21.1137 18.884 20.7815 19.4463L21.9732 20.6379C22.3419 21.0068 22.342 21.6047 21.9732 21.9735C21.6044 22.3422 21.0065 22.3422 20.6377 21.9735L19.4451 20.7809C18.8828 21.1129 18.2276 21.3057 17.5276 21.3057C15.4412 21.3057 13.7499 19.6142 13.7498 17.5279C13.7498 15.4414 15.4412 13.75 17.5276 13.75C19.614 13.75 21.3054 15.4414 21.3054 17.5279Z" fill="#141B34"/>
</svg>
