<svg width="24" height="24" viewBox="0 0 24 24" fill="none" xmlns="http://www.w3.org/2000/svg">
<path fill-rule="evenodd" clip-rule="evenodd" d="M22.7503 15.8905L16.7477 22.7506L14.2451 19.8905L15.7503 18.5735L16.7477 19.7134L21.2451 14.5735L22.7503 15.8905Z" fill="#141B34"/>
<path fill-rule="evenodd" clip-rule="evenodd" d="M13.7461 21.5989L12.1279 19.7496L15.8908 16.457L16.7471 17.4357L20.749 12.8621V5.99902C20.749 5.62359 20.5221 5.28338 20.17 5.1309L11.395 1.3309C11.1429 1.22173 10.8551 1.22173 10.603 1.3309L1.82804 5.1309C1.47594 5.28338 1.24902 5.62359 1.24902 5.99902V18.4864L10.6944 22.6844C10.8883 22.7706 11.1097 22.7706 11.3036 22.6844L13.7461 21.5989ZM4.62468 5.99902L6.61146 6.85939L12.9858 4.099L10.999 3.23862L4.62468 5.99902ZM15.3865 5.1386L9.01212 7.899L10.999 8.75942L17.3734 5.99902L15.3865 5.1386ZM7.49902 13.999L4.99902 12.499V10.999L7.49902 12.499V13.999Z" fill="#141B34"/>
</svg>
