<svg width="24" height="24" viewBox="0 0 24 24" fill="none" xmlns="http://www.w3.org/2000/svg">
<path opacity="0.4" d="M6.76364 1.25004L6.87509 1.25009H13.8751L13.9865 1.25004C14.6215 1.24965 15.0968 1.24936 15.5062 1.36958C16.4695 1.65242 17.2228 2.40572 17.5056 3.36898C17.6258 3.77841 17.6255 4.25369 17.6251 4.88864L17.6251 5.00009L17.6251 5.11154C17.6255 5.74648 17.6258 6.22176 17.5056 6.6312C17.2228 7.59446 16.4695 8.34775 15.5062 8.63059C15.0968 8.75081 14.6215 8.75052 13.9865 8.75013L13.8751 8.75009H6.87509L6.76364 8.75013C6.12869 8.75052 5.65341 8.75081 5.24398 8.63059C4.28072 8.34775 3.52742 7.59446 3.24458 6.6312C3.12436 6.22176 3.12465 5.74648 3.12504 5.11154L3.12509 5.00009L3.12504 4.88864C3.12465 4.25369 3.12436 3.77841 3.24458 3.36898C3.52742 2.40572 4.28072 1.65242 5.24398 1.36958C5.65341 1.24936 6.12869 1.24965 6.76364 1.25004Z" fill="#141B34"/>
<path opacity="0.4" d="M13.3532 15.25H13.375H13.3968H13.3968C13.6111 15.25 13.8079 15.25 13.9732 15.2613C14.1509 15.2734 14.3462 15.301 14.5447 15.3832C14.9735 15.5608 15.3142 15.9015 15.4918 16.3303C15.574 16.5288 15.6016 16.7241 15.6137 16.9018C15.625 17.0671 15.625 17.264 15.625 17.4782V20.5218C15.625 20.736 15.625 20.9329 15.6137 21.0982C15.6016 21.2759 15.574 21.4712 15.4918 21.6697C15.3142 22.0985 14.9735 22.4392 14.5447 22.6168C14.3462 22.699 14.1509 22.7266 13.9732 22.7387C13.8079 22.75 13.611 22.75 13.3968 22.75H13.3532C13.139 22.75 12.9421 22.75 12.7768 22.7387C12.5991 22.7266 12.4038 22.699 12.2053 22.6168C11.7765 22.4392 11.4358 22.0985 11.2582 21.6697C11.176 21.4712 11.1484 21.2759 11.1363 21.0982C11.125 20.9329 11.125 20.7361 11.125 20.5218V20.5218V17.5V17.4782V17.4782C11.125 17.2639 11.125 17.0671 11.1363 16.9018C11.1484 16.7241 11.176 16.5288 11.2582 16.3303C11.4358 15.9015 11.7765 15.5608 12.2053 15.3832C12.4038 15.301 12.5991 15.2734 12.7768 15.2613C12.9421 15.25 13.1389 15.25 13.3532 15.25H13.3532Z" fill="#141B34"/>
<path d="M17.6073 6.00014C17.7902 6.00195 17.9327 6.00598 18.0531 6.01494C18.2524 6.02977 18.313 6.05405 18.3312 6.06228C18.5714 6.17078 18.6898 6.32465 18.7697 6.6099C18.8675 6.95929 18.8752 7.39927 18.8752 8.00289C18.8752 9.03263 18.8632 9.31688 18.7933 9.53329C18.6969 9.83157 18.4207 10.1489 17.8331 10.4721C17.2516 10.7921 16.5028 11.0422 15.6855 11.2739C15.6224 11.2918 15.5596 11.3094 15.4971 11.327C14.504 11.606 13.5932 11.862 12.9815 12.6712C12.6477 13.1128 12.5004 13.5813 12.4339 14.0821C12.3855 14.4471 12.3766 14.8661 12.375 15.3233C12.5143 15.2848 12.6499 15.2683 12.7765 15.2597C12.9418 15.2484 13.1386 15.2484 13.3529 15.2484H13.3964C13.6107 15.2484 13.8076 15.2484 13.9729 15.2597C14.0997 15.2683 14.2356 15.2849 14.3752 15.3236C14.3771 14.8825 14.3848 14.5841 14.4165 14.3452C14.4512 14.084 14.5062 13.9708 14.5769 13.8772C14.7358 13.6671 14.9306 13.5667 16.231 13.198C17.0689 12.9605 18.004 12.6608 18.7972 12.2245C19.5843 11.7914 20.3739 11.1458 20.6963 10.1484C20.8764 9.59146 20.8759 8.96153 20.8752 8.15025L20.8752 7.95189C20.8754 7.41943 20.8756 6.71339 20.6955 6.07044C20.4916 5.3426 20.0438 4.64121 19.1544 4.23954C18.8355 4.09553 18.5138 4.04369 18.2015 4.02046C18.0242 4.00726 17.8252 4.00205 17.6075 4C17.6252 4.2603 17.625 4.55137 17.6248 4.88706V5.10996C17.625 5.447 17.6252 5.73905 17.6073 6.00014Z" fill="#141B34"/>
</svg>
