<svg width="24" height="24" viewBox="0 0 24 24" fill="none" xmlns="http://www.w3.org/2000/svg">
<path opacity="0.4" d="M9.01904 19.1471C9.03808 19.128 9.03808 19.0972 9.01904 19.0781L4.92006 14.9791C4.90102 14.9601 4.87014 14.9601 4.8511 14.9791C3.96886 15.861 3.40327 16.4263 3.04751 17.1378C2.69175 17.8494 2.57883 18.641 2.40269 19.8759L2.25755 20.8921C2.22416 21.1258 2.30275 21.3616 2.46968 21.5285C2.6366 21.6954 2.87238 21.774 3.10607 21.7406L4.1223 21.5955C5.35715 21.4193 6.14882 21.3064 6.86033 20.9507C7.57185 20.5949 8.13719 20.0293 9.01904 19.1471Z" fill="#141B34"/>
<path opacity="0.4" d="M19.559 2.48953C18.9145 2.17016 18.1578 2.17016 17.5133 2.48953C17.1711 2.65908 16.8749 2.95604 16.5273 3.30449L8.87031 10.9615C8.67031 11.1615 8.57031 11.2615 8.57031 11.3858C8.57031 11.5101 8.67031 11.6101 8.87031 11.8101L12.1897 15.1295C12.3897 15.3295 12.4897 15.4295 12.614 15.4295C12.7383 15.4295 12.8383 15.3295 13.0383 15.1295L20.6953 7.47253C21.0438 7.12494 21.3407 6.82872 21.5103 6.48657C21.8297 5.84207 21.8297 5.08538 21.5103 4.44087C21.3407 4.09872 20.9685 3.72735 20.6201 3.37976C20.2725 3.03131 19.9011 2.65909 19.559 2.48953Z" fill="#141B34"/>
<path d="M11.1291 17.0383C11.3291 16.8383 11.4291 16.7383 11.4291 16.614C11.4291 16.4898 11.3291 16.3898 11.1291 16.1898L7.80965 12.8703C7.60965 12.6703 7.50965 12.5703 7.38538 12.5703C7.26112 12.5703 7.16112 12.6703 6.96112 12.8703L6.37031 13.4611C6.17031 13.6611 6.07031 13.7611 6.07031 13.8854C6.07031 14.0097 6.17031 14.1097 6.37031 14.3097L9.68973 17.6291C9.88973 17.8291 9.98973 17.9291 10.114 17.9291C10.2383 17.9291 10.3383 17.8291 10.5383 17.6291L11.1291 17.0383Z" fill="#141B34"/>
</svg>
