<svg width="24" height="24" viewBox="0 0 24 24" fill="none" xmlns="http://www.w3.org/2000/svg">
<path d="M8.75 13.5556C8.75 12.9993 9.13725 12.25 9.94444 12.25H21.0556C21.8628 12.25 22.25 12.9993 22.25 13.5556C22.25 16.2595 20.4699 18.75 17.9444 18.75H13.0556C10.5301 18.75 8.75 16.2595 8.75 13.5556Z" fill="#141B34"/>
<path opacity="0.4" fill-rule="evenodd" clip-rule="evenodd" d="M7.02818 11.5909C6.29762 11.9009 5.42065 11.758 4.82501 11.1624L2.33764 8.67503C1.55412 7.89151 1.55412 6.62119 2.33764 5.83767C3.12115 5.05416 4.39148 5.05416 5.17499 5.83767L7.66236 8.32505C8.25876 8.92145 8.40119 9.79991 8.08965 10.531L10.7748 13.2164C11.0677 13.5093 11.0677 13.9842 10.7748 14.2771C10.4819 14.5699 10.007 14.5699 9.7141 14.277L7.02818 11.5909Z" fill="#141B34"/>
</svg>
