<svg width="24" height="24" viewBox="0 0 24 24" fill="none" xmlns="http://www.w3.org/2000/svg">
<path d="M22.2498 13.9997C22.2498 16.6231 20.1232 18.75 17.4998 18.75H13.5C10.8766 18.75 8.75 16.6234 8.75 14V12.25H22.2502L22.2498 13.9997Z" fill="#141B34"/>
<path fill-rule="evenodd" clip-rule="evenodd" d="M7.70718 9.79285L10.2072 12.2928L8.79297 13.7071L6.29297 11.2071L7.70718 9.79285Z" fill="#141B34"/>
<path d="M2.33764 5.83764C3.12115 5.05412 4.39148 5.05412 5.17499 5.83764L7.66236 8.32501C8.44588 9.10852 8.44588 10.3789 7.66236 11.1624C6.87885 11.9459 5.60852 11.9459 4.82501 11.1624L2.33764 8.67499C1.55412 7.89148 1.55412 6.62115 2.33764 5.83764Z" fill="#141B34"/>
</svg>
