<svg width="24" height="24" viewBox="0 0 24 24" fill="none" xmlns="http://www.w3.org/2000/svg">
<path fill-rule="evenodd" clip-rule="evenodd" d="M12.0001 1.5L15.7072 5.20711L14.293 6.62132L13.0001 5.32843V22.5005H11.0001V5.32843L9.70718 6.62132L8.29297 5.20711L12.0001 1.5Z" fill="#141B34"/>
<path fill-rule="evenodd" clip-rule="evenodd" d="M22 21.501H2V19.501H22V21.501Z" fill="#141B34"/>
<path fill-rule="evenodd" clip-rule="evenodd" d="M6.49353 12.5931C8.02608 15.1473 10.004 16.501 12 16.501C13.996 16.501 15.9739 15.1473 17.5065 12.5931C19.0271 10.0587 20 6.49303 20 2.50098H22C22 6.79319 20.9582 10.7275 19.2215 13.6221C17.4966 16.4968 14.9745 18.501 12 18.501C9.02546 18.501 6.50336 16.4968 4.77855 13.6221C3.04179 10.7275 2 6.79319 2 2.50098H4C4 6.49303 4.97293 10.0587 6.49353 12.5931Z" fill="#141B34"/>
</svg>
