<svg width="24" height="24" viewBox="0 0 24 24" fill="none" xmlns="http://www.w3.org/2000/svg">
<path fill-rule="evenodd" clip-rule="evenodd" d="M17.25 8.75C17.25 8.19772 17.6977 7.75 18.25 7.75H18.7874L18.8246 7.75279C19.7668 7.82328 20.6068 8.00035 21.3109 8.56026C21.5419 8.74393 21.7514 8.95292 21.9357 9.18334C22.4998 9.88868 22.677 10.7312 22.7472 11.6758C22.7882 12.2266 22.3749 12.7063 21.8242 12.7472C21.2734 12.7882 20.7937 12.3749 20.7528 11.8242C20.6921 11.0081 20.5566 10.6611 20.3737 10.4324C20.2831 10.3191 20.1799 10.2161 20.066 10.1256C19.8402 9.94599 19.4993 9.81214 18.7117 9.75H18.25C17.6977 9.75 17.25 9.30228 17.25 8.75ZM21.75 13.25C22.3023 13.25 22.75 13.6977 22.75 14.25V16.25C22.75 16.8023 22.3023 17.25 21.75 17.25C21.1977 17.25 20.75 16.8023 20.75 16.25V14.25C20.75 13.6977 21.1977 13.25 21.75 13.25ZM8.75 17.25C9.30228 17.25 9.75 17.6977 9.75 18.25L9.75 18.7119C9.81197 19.5022 9.94614 19.8423 10.1263 20.0676C10.2169 20.1809 10.3201 20.2839 10.434 20.3744C10.6633 20.5567 11.0111 20.6919 11.8246 20.7528C12.3754 20.794 12.7884 21.2739 12.7472 21.8246C12.706 22.3754 12.2261 22.7884 11.6754 22.7472C10.7332 22.6767 9.89316 22.4996 9.1891 21.9397C8.95815 21.7561 8.74856 21.5471 8.56429 21.3167C8.00023 20.6113 7.823 19.7688 7.75275 18.8242L7.75 18.7871L7.75 18.25C7.75 17.6977 8.19771 17.25 8.75 17.25ZM21.8246 17.7528C22.3754 17.794 22.7884 18.2739 22.7472 18.8246C22.6767 19.7668 22.4996 20.6068 21.9397 21.3109C21.7561 21.5419 21.5471 21.7514 21.3167 21.9357C20.6113 22.4998 19.7688 22.677 18.8242 22.7472C18.2734 22.7882 17.7937 22.3749 17.7528 21.8242C17.7118 21.2734 18.1251 20.7937 18.6758 20.7528C19.4919 20.6921 19.8389 20.5566 20.0676 20.3737C20.1809 20.2831 20.2839 20.1799 20.3744 20.066C20.5567 19.8367 20.6919 19.4889 20.7528 18.6754C20.794 18.1246 21.2739 17.7116 21.8246 17.7528ZM13.25 21.75C13.25 21.1977 13.6977 20.75 14.25 20.75H16.25C16.8023 20.75 17.25 21.1977 17.25 21.75C17.25 22.3023 16.8023 22.75 16.25 22.75H14.25C13.6977 22.75 13.25 22.3023 13.25 21.75Z" fill="#141B34"/>
<path opacity="0.4" d="M8.5473 1.25C9.91541 1.24999 11.0075 1.24998 11.8745 1.35043C12.7675 1.45389 13.5167 1.67232 14.1498 2.17722C14.3986 2.37563 14.6244 2.60136 14.8228 2.85017C15.3277 3.48329 15.5461 4.23254 15.6496 5.12547C15.75 5.9925 15.75 7.0846 15.75 8.45271L15.7496 9.00081C15.7494 9.23317 15.7493 9.34935 15.7114 9.44104C15.6606 9.56353 15.5633 9.66086 15.4409 9.71163C15.3492 9.74963 15.233 9.74975 15.0006 9.75C13.7459 9.75135 12.8523 9.76419 12.1638 9.85721C11.4913 9.94805 11.0901 10.1069 10.7852 10.35C10.6242 10.4784 10.4782 10.6245 10.3498 10.7855C10.1067 11.0903 9.94788 11.4914 9.85709 12.1639C9.76413 12.8524 9.75135 13.7458 9.75 15.0006C9.74975 15.233 9.74963 15.3492 9.71163 15.4409C9.66086 15.5633 9.56353 15.6606 9.44104 15.7114C9.34935 15.7493 9.23317 15.7494 9.00081 15.7496L8.45271 15.75C7.0846 15.75 5.9925 15.75 5.12547 15.6496C4.23254 15.5461 3.48329 15.3277 2.85017 14.8228C2.60136 14.6244 2.37563 14.3986 2.17722 14.1498C1.67232 13.5167 1.45389 12.7675 1.35043 11.8745C1.24998 11.0075 1.24999 9.91539 1.25 8.54729V8.4527C1.24999 7.0846 1.24998 5.99249 1.35043 5.12547C1.45389 4.23254 1.67232 3.48329 2.17722 2.85017C2.37563 2.60136 2.60136 2.37563 2.85017 2.17722C3.48329 1.67232 4.23254 1.45389 5.12547 1.35043C5.99249 1.24998 7.08461 1.24999 8.45271 1.25H8.5473Z" fill="#141B34"/>
</svg>
