<svg width="24" height="24" viewBox="0 0 24 24" fill="none" xmlns="http://www.w3.org/2000/svg">
<path d="M15 9H14.25V9.75H15V9ZM9 15H9.75V14.25H9V15ZM15 2H15.75C15.75 1.58579 15.4142 1.25 15 1.25V2ZM2 2V1.25C1.58579 1.25 1.25 1.58579 1.25 2H2ZM2 15H1.25C1.25 15.4142 1.58579 15.75 2 15.75V15ZM9 22H8.25C8.25 22.4142 8.58579 22.75 9 22.75V22ZM22 22V22.75C22.4142 22.75 22.75 22.4142 22.75 22H22ZM22 9H22.75C22.75 8.58579 22.4142 8.25 22 8.25V9ZM15.75 9V2H14.25V9H15.75ZM15 1.25H2V2.75H15V1.25ZM1.25 2V15H2.75V2H1.25ZM9 14.25H2V15.75H9V14.25ZM8.25 15V22H9.75V15H8.25ZM9 22.75H22V21.25H9V22.75ZM22.75 22V9H21.25V22H22.75ZM22 8.25H15V9.75H22V8.25Z" fill="#141B34"/>
<path d="M14.9904 2H2.10747C2.102 2 2.09755 2.00445 2.09751 2.00997L2.00098 14.9601C2.00094 14.9656 2.00541 14.9702 2.01094 14.9702L9.05191 14.9601L8.99951 21.9894C8.99947 21.9949 9.00395 21.9995 9.00948 21.9995H21.9889C21.9944 21.9995 21.9989 21.995 21.9989 21.9894V9.03934C21.9989 9.03379 21.9944 9.0293 21.9889 9.0293H15.0003V2.01004C15.0003 2.0045 14.9959 2 14.9904 2Z" stroke="#141B34" stroke-width="1.5"/>
</svg>
