<svg width="24" height="24" viewBox="0 0 24 24" fill="none" xmlns="http://www.w3.org/2000/svg">
<path d="M16.9506 3.25L17 3.25L17.0494 3.25H17.0494C17.7143 3.24996 18.2871 3.24993 18.7458 3.31161C19.2375 3.37771 19.7087 3.52677 20.091 3.90901C20.4732 4.29126 20.6223 4.76252 20.6884 5.25416C20.7501 5.71291 20.75 6.28577 20.75 6.95064V17.0494C20.75 17.7142 20.7501 18.2871 20.6884 18.7458C20.6223 19.2375 20.4732 19.7087 20.091 20.091C19.7087 20.4732 19.2375 20.6223 18.7458 20.6884C18.2871 20.7501 17.7142 20.75 17.0494 20.75H16.9506C16.2858 20.75 15.7129 20.7501 15.2542 20.6884C14.7625 20.6223 14.2913 20.4732 13.909 20.091C13.5268 19.7087 13.3777 19.2375 13.3116 18.7458C13.2499 18.2871 13.25 17.7143 13.25 17.0494V17.0494V6.95063V6.95058C13.25 6.28574 13.2499 5.71289 13.3116 5.25416C13.3777 4.76252 13.5268 4.29126 13.909 3.90901C14.2913 3.52677 14.7625 3.37771 15.2542 3.31161C15.7129 3.24993 16.2857 3.24996 16.9506 3.25H16.9506Z" fill="#141B34"/>
<path d="M6.95063 3.25L7 3.25L7.04938 3.25H7.04943C7.71427 3.24996 8.28711 3.24993 8.74585 3.31161C9.23748 3.37771 9.70875 3.52677 10.091 3.90901C10.4732 4.29126 10.6223 4.76252 10.6884 5.25416C10.7501 5.71291 10.75 6.28577 10.75 6.95064V17.0494C10.75 17.7142 10.7501 18.2871 10.6884 18.7458C10.6223 19.2375 10.4732 19.7087 10.091 20.091C9.70875 20.4732 9.23748 20.6223 8.74585 20.6884C8.2871 20.7501 7.71424 20.75 7.04937 20.75H6.95063C6.28577 20.75 5.71291 20.7501 5.25416 20.6884C4.76252 20.6223 4.29126 20.4732 3.90901 20.091C3.52677 19.7087 3.37771 19.2375 3.31161 18.7458C3.24993 18.2871 3.24996 17.7143 3.25 17.0494V17.0494V6.95063V6.95058C3.24996 6.28574 3.24993 5.71289 3.31161 5.25416C3.37771 4.76252 3.52677 4.29126 3.90901 3.90901C4.29126 3.52677 4.76252 3.37771 5.25416 3.31161C5.71289 3.24993 6.28573 3.24996 6.95058 3.25H6.95063Z" fill="#141B34"/>
</svg>
