<svg width="24" height="24" viewBox="0 0 24 24" fill="none" xmlns="http://www.w3.org/2000/svg">
<path d="M2 3.75C1.58579 3.75 1.25 4.08579 1.25 4.5C1.25 4.91421 1.58579 5.25 2 5.25V3.75ZM10.8787 5.37868L10.3483 5.90901L10.3483 5.90901L10.8787 5.37868ZM13.4697 9.03033C13.7626 9.32322 14.2374 9.32322 14.5303 9.03033C14.8232 8.73744 14.8232 8.26256 14.5303 7.96967L13.4697 9.03033ZM2 5.25H8.75736V3.75H2V5.25ZM10.3483 5.90901L13.4697 9.03033L14.5303 7.96967L11.409 4.84835L10.3483 5.90901ZM8.75736 5.25C9.3541 5.25 9.92639 5.48705 10.3483 5.90901L11.409 4.84835C10.7057 4.14509 9.75192 3.75 8.75736 3.75V5.25Z" fill="#141B34"/>
<path d="M5 13.5H2" stroke="#141B34" stroke-width="1.5" stroke-linecap="round" stroke-linejoin="round"/>
<path d="M9.03033 6.96967C8.73744 6.67678 8.26256 6.67678 7.96967 6.96967C7.67678 7.26256 7.67678 7.73744 7.96967 8.03033L9.03033 6.96967ZM10.5 9.5L11.0303 8.96967V8.96967L10.5 9.5ZM7 10L7.53033 9.46967C7.23744 9.17678 6.76256 9.17678 6.46967 9.46967L7 10ZM3.95 9.4C3.61863 9.15147 3.14853 9.21863 2.9 9.55C2.65147 9.88137 2.71863 10.3515 3.05 10.6L3.95 9.4ZM10.5 11.5L9.96967 10.9697L9.96967 10.9697L10.5 11.5ZM7.96967 8.03033L9.96967 10.0303L11.0303 8.96967L9.03033 6.96967L7.96967 8.03033ZM9.03033 10.9697L7.53033 9.46967L6.46967 10.5303L7.96967 12.0303L9.03033 10.9697ZM4.25294 9.62721L3.95 9.4L3.05 10.6L3.35294 10.8272L4.25294 9.62721ZM6.46967 9.46967C5.8729 10.0664 4.92812 10.1336 4.25294 9.62721L3.35294 10.8272C4.6253 11.7815 6.40572 11.6549 7.53033 10.5303L6.46967 9.46967ZM9.96967 10.9697C9.71028 11.2291 9.28972 11.2291 9.03033 10.9697L7.96967 12.0303C8.81485 12.8755 10.1852 12.8755 11.0303 12.0303L9.96967 10.9697ZM9.96967 10.0303C10.2291 10.2897 10.2291 10.7103 9.96967 10.9697L11.0303 12.0303C11.8755 11.1852 11.8755 9.81485 11.0303 8.96967L9.96967 10.0303Z" fill="#141B34"/>
<path opacity="0.4" d="M5 11V15.5C5 17.3856 5 18.3284 5.58579 18.9142C6.17157 19.5 7.11438 19.5 9 19.5H18C19.8856 19.5 20.8284 19.5 21.4142 18.9142C22 18.3284 22 17.3856 22 15.5V12.5C22 10.6144 22 9.67157 21.4142 9.08579C20.8284 8.5 19.8856 8.5 18 8.5H9.5" stroke="#141B34" stroke-width="1.5" stroke-linecap="round" stroke-linejoin="round"/>
<path d="M15.25 14C15.25 14.9665 14.4665 15.75 13.5 15.75C12.5335 15.75 11.75 14.9665 11.75 14C11.75 13.0335 12.5335 12.25 13.5 12.25C14.4665 12.25 15.25 13.0335 15.25 14Z" stroke="#141B34" stroke-width="1.5" stroke-linecap="round" stroke-linejoin="round"/>
</svg>
