<svg width="24" height="24" viewBox="0 0 24 24" fill="none" xmlns="http://www.w3.org/2000/svg">
<path d="M5.53906 3C4.71063 3 4.03906 3.67157 4.03906 4.5C4.03906 5.32843 4.71063 6 5.53906 6C6.36749 6 7.03906 5.32843 7.03906 4.5C7.03906 3.67157 6.36749 3 5.53906 3Z" stroke="#141B34" stroke-width="1.5" stroke-linecap="round" stroke-linejoin="round"/>
<path d="M18.5391 12.5C17.7107 12.5 17.0391 13.1716 17.0391 14C17.0391 14.8284 17.7107 15.5 18.5391 15.5C19.3675 15.5 20.0391 14.8284 20.0391 14C20.0391 13.1716 19.3675 12.5 18.5391 12.5Z" stroke="#141B34" stroke-width="1.5" stroke-linecap="round" stroke-linejoin="round"/>
<path opacity="0.4" d="M11.5391 4C14.3675 4 16.7817 4 17.6604 4.87868C18.5391 5.75736 18.5391 6.67157 18.5391 9.5L16.5391 8.5" stroke="#141B34" stroke-width="1.5" stroke-linecap="round" stroke-linejoin="round"/>
<path opacity="0.4" d="M12.0391 20C9.21063 20 6.79642 20 5.91774 19.1213C5.03906 18.2426 5.03906 17.3284 5.03906 14.5L7.03906 15.5" stroke="#141B34" stroke-width="1.5" stroke-linecap="round" stroke-linejoin="round"/>
<path d="M18.4816 21.0002H16.7033C16.4967 21.0002 16.2893 20.97 16.0996 20.8852C15.4821 20.6091 15.1688 20.2445 15.0228 20.0165C14.9397 19.8867 14.9516 19.7214 15.0417 19.5969C15.7572 18.6081 17.4159 18.0108 18.4816 18.0107M18.4847 21.0002H20.2631C20.4696 21.0002 20.677 20.97 20.8667 20.8852C21.4842 20.6091 21.7975 20.2445 21.9435 20.0165C22.0266 19.8867 22.0148 19.7214 21.9246 19.5969C21.2092 18.6081 19.5504 18.0108 18.4847 18.0107" stroke="#141B34" stroke-width="1.5" stroke-linecap="round" stroke-linejoin="round"/>
<path d="M5.51485 11.4924H3.73649C3.52995 11.4924 3.32254 11.4621 3.13284 11.3773C2.51533 11.1013 2.20203 10.7367 2.05602 10.5087C1.97294 10.3789 1.98477 10.2136 2.07491 10.089C2.79035 9.10024 4.44914 8.50298 5.51485 8.50293M5.51789 11.4924H7.29625C7.50279 11.4924 7.7102 11.4621 7.8999 11.3773C8.51741 11.1013 8.83071 10.7367 8.97672 10.5087C9.0598 10.3789 9.04797 10.2136 8.95783 10.089C8.24239 9.10024 6.5836 8.50298 5.51789 8.50293" stroke="#141B34" stroke-width="1.5" stroke-linecap="round" stroke-linejoin="round"/>
</svg>
