<svg width="24" height="24" viewBox="0 0 24 24" fill="none" xmlns="http://www.w3.org/2000/svg">
<path opacity="0.4" d="M17.6962 13.5207C17.8504 13.2972 17.9274 13.1854 17.9176 13.0773C17.9078 12.9691 17.8184 12.8798 17.6396 12.701L11.3001 6.36087C11.1213 6.18211 11.032 6.09273 10.9238 6.08287C10.8157 6.07301 10.7039 6.15007 10.4804 6.30419C9.60257 6.90934 8.74752 7.15067 7.84867 7.23859L7.81043 7.24233C7.12158 7.30969 6.55052 7.36553 6.10476 7.45302C5.65128 7.54202 5.20709 7.68378 4.85624 8.00535C4.52064 8.31294 4.34167 8.69559 4.21703 9.1049C4.0998 9.4899 4.00997 9.97376 3.90524 10.5379L2.50174 18.0963C2.37759 18.7646 2.26935 19.3473 2.2524 19.8126C2.23437 20.3077 2.31043 20.8456 2.73266 21.2678C3.15489 21.6901 3.6928 21.7661 4.18785 21.7481C4.65316 21.7312 5.23577 21.6229 5.90403 21.4988L13.4621 20.0952C14.0262 19.9905 14.51 19.9006 14.895 19.7834C15.3042 19.6588 15.6869 19.4798 15.9944 19.1443C16.316 18.7935 16.4578 18.3493 16.5468 17.8958C16.6344 17.45 16.6903 16.8789 16.7578 16.1899L16.7615 16.1517C16.8495 15.2529 17.091 14.3983 17.6962 13.5207Z" fill="#141B34"/>
<path d="M18.9947 4.74721C18.2225 3.97495 17.5835 3.33594 17.0124 2.91296C16.4108 2.46744 15.7737 2.17628 15.0173 2.26636C14.0173 2.38545 13.2604 3.0493 12.714 3.68767C12.5171 3.9178 12.3301 4.16661 12.1565 4.41291C12.0232 4.60205 11.9565 4.69663 11.9658 4.80568C11.9752 4.91474 12.0591 4.99859 12.2267 5.16629L18.8329 11.7731C19.0006 11.9408 19.0845 12.0246 19.1935 12.034C19.3026 12.0434 19.3972 11.9767 19.5863 11.8434C19.8328 11.6697 20.0817 11.4826 20.3119 11.2856C20.9503 10.7392 21.6142 9.98235 21.7333 8.9823C21.8233 8.22593 21.5322 7.58883 21.0867 6.98724C20.6637 6.4161 20.0247 5.77714 19.2524 5.00494L18.9947 4.74721Z" fill="#141B34"/>
<path d="M15.6497 10.7109L11.4551 6.51597C11.4597 6.52084 11.4644 6.52567 11.4692 6.53044L15.6497 10.7109Z" fill="#141B34"/>
<path d="M3.68766 21.7255L9.62673 15.7864C10.0059 15.9936 10.4163 16.1292 10.8385 16.1978C11.3836 16.2863 11.8973 15.9161 11.9858 15.3709C12.0743 14.8258 11.7041 14.3121 11.159 14.2236C10.7861 14.1631 10.4723 14.0069 10.2322 13.7667C9.992 13.5266 9.83582 13.2128 9.77529 12.8399C9.68679 12.2948 9.17312 11.9246 8.62797 12.0131C8.08282 12.1016 7.71264 12.6153 7.80114 13.1604C7.86967 13.5826 8.00529 13.993 8.21251 14.3722L2.27441 20.3103C2.3223 20.6495 2.44979 20.9845 2.73276 21.2675C3.01513 21.5498 3.34924 21.6774 3.68766 21.7255Z" fill="#141B34"/>
</svg>
