<svg width="24" height="24" viewBox="0 0 24 24" fill="none" xmlns="http://www.w3.org/2000/svg">
<path fill-rule="evenodd" clip-rule="evenodd" d="M10 19.75C10 19.1977 10.4477 18.75 11 18.75H17C17.5523 18.75 18 19.1977 18 19.75C18 20.3023 17.5523 20.75 17 20.75H11C10.4477 20.75 10 20.3023 10 19.75Z" fill="#141B34"/>
<path opacity="0.4" d="M14.1537 5.98242L6.36945 13.7666C5.40084 14.735 4.80884 15.3269 4.40167 16.0555C4.17455 16.462 3.97615 17.0785 3.8006 17.7093C3.62 18.3583 3.44221 19.105 3.27249 19.8178L3.27041 19.8266C3.21009 20.0799 3.28552 20.3464 3.46969 20.5306C3.65385 20.7148 3.92037 20.7902 4.17373 20.7299L4.18242 20.7278C4.89509 20.5581 5.64214 20.3802 6.29098 20.1997C6.92183 20.0241 7.53832 19.8257 7.94476 19.5986C8.67342 19.1914 9.26526 18.5994 10.2337 17.6308L18.0179 9.84661L14.1537 5.98242Z" fill="#141B34"/>
<path d="M19.0781 8.78568L19.9492 7.91448C21.0163 6.84742 21.0163 5.11736 19.9492 4.0503C18.8822 2.98323 17.1521 2.98323 16.0851 4.0503L15.2139 4.9215L19.0781 8.78568Z" fill="#141B34"/>
</svg>
