<svg width="24" height="24" viewBox="0 0 24 24" fill="none" xmlns="http://www.w3.org/2000/svg">
<path d="M6.5 8.985H5.5M10.5 8.985H9.5M6.5 5.9917H5.5M10.5 5.9917H9.5" stroke="#141B34" stroke-width="1.5" stroke-linecap="round"/>
<path d="M18.5 14.9715H17.5M18.5 10.9805H17.5" stroke="#141B34" stroke-width="1.5" stroke-linecap="round"/>
<path opacity="0.4" d="M14 7.9871V21.9559H18C19.8856 21.9559 20.8284 21.9559 21.4142 21.3714C22 20.7869 22 19.8462 22 17.9648V11.9782C22 10.0968 22 9.15605 21.4142 8.57158C20.8284 7.9871 19.8856 7.9871 18 7.9871H14ZM14 7.9871C14 5.16498 14 3.75393 13.1213 2.87721C12.2426 2.00049 10.8284 2.00049 8 2.00049C5.17157 2.00049 3.75736 2.00049 2.87868 2.87721C2 3.75393 2 5.16498 2 7.9871V9.98263" stroke="#141B34" stroke-width="1.5" stroke-linecap="round" stroke-linejoin="round"/>
<path d="M8.01801 13.9721C8.01801 15.0733 7.12261 15.9661 6.01807 15.9661C4.91354 15.9661 4.01814 15.0733 4.01814 13.9721C4.01814 12.8708 4.91354 11.978 6.01807 11.978C7.12261 11.978 8.01801 12.8708 8.01801 13.9721Z" stroke="#141B34" stroke-width="1.5" stroke-linecap="round"/>
<path d="M2.06298 20.2137C3.12133 18.5891 4.80202 17.9803 6.01807 17.9816C7.23413 17.9828 8.86556 18.5891 9.92391 20.2137C9.99234 20.3187 10.0112 20.448 9.94944 20.5572C9.70193 20.9948 8.93344 21.8631 8.37838 21.922C7.74062 21.9897 6.0723 21.9992 6.01936 21.9994C5.96638 21.9992 4.24656 21.9897 3.60851 21.922C3.05345 21.8631 2.28496 20.9948 2.03745 20.5572C1.9757 20.448 1.99456 20.3187 2.06298 20.2137Z" stroke="#141B34" stroke-width="1.5" stroke-linecap="round"/>
</svg>
