<svg width="24" height="24" viewBox="0 0 24 24" fill="none" xmlns="http://www.w3.org/2000/svg">
<path fill-rule="evenodd" clip-rule="evenodd" d="M16.2305 1.34792C15.6076 1.26325 14.8464 1.25158 13.9548 1.25H10.0452C9.1536 1.25158 8.39242 1.26325 7.76946 1.34792C7.00417 1.45194 6.30442 1.68195 5.74096 2.25159C5.1775 2.82122 4.94999 3.52866 4.8471 4.30234C4.74993 5.03303 4.74996 5.95179 4.75 7.0463V16.9532C4.74996 18.0477 4.74993 18.9665 4.8471 19.6972C4.94999 20.4709 5.1775 21.1783 5.74096 21.7479C6.30442 22.3176 7.00417 22.5476 7.76946 22.6516C8.4922 22.7498 9.40098 22.7498 10.4836 22.7498H13.5163C14.5989 22.7498 15.5078 22.7498 16.2305 22.6516C16.9958 22.5476 17.6956 22.3176 18.259 21.7479C18.8225 21.1783 19.05 20.4709 19.1529 19.6972C19.2501 18.9665 19.25 18.0477 19.25 16.9532V7.04634C19.25 5.95182 19.2501 5.03304 19.1529 4.30234C19.05 3.52866 18.8225 2.82123 18.259 2.25159C17.6956 1.68195 16.9958 1.45194 16.2305 1.34792ZM8.02708 3.28394C8.4056 3.23249 8.86924 3.2138 9.47114 3.20703L9.6854 3.64025C9.84915 3.97134 10.1839 4.18047 10.55 4.18047H13.45C13.8162 4.18047 14.1509 3.97134 14.3146 3.64025L14.5289 3.20703C15.1308 3.2138 15.5944 3.23249 15.9729 3.28394C16.5238 3.35882 16.7476 3.4866 16.892 3.63256C17.0364 3.77851 17.1628 4.00473 17.2368 4.56168C17.3146 5.14673 17.3167 5.93294 17.3167 7.11229V16.885C17.3167 17.4596 17.3162 18.5899 17.3067 19H6.69333C6.68384 18.5899 6.68335 17.4596 6.68335 16.885V7.11229C6.68335 5.93294 6.6854 5.14673 6.76321 4.56168C6.83728 4.00473 6.96368 3.77851 7.10805 3.63256C7.25242 3.4866 7.47618 3.35882 8.02708 3.28394Z" fill="#141B34"/>
<path d="M12 7C12.5523 7 13 7.44772 13 8V12.8919L13.0414 12.8444C13.3518 12.4869 13.6411 12.1264 13.8541 11.8535C13.9601 11.7176 14.1356 11.4854 14.1948 11.407C14.5223 10.9624 15.1483 10.8673 15.593 11.1948C16.0377 11.5223 16.1327 12.1483 15.8052 12.593L15.8024 12.5968C15.735 12.686 15.5426 12.9407 15.4308 13.084C15.2048 13.3736 14.8923 13.7631 14.5516 14.1556C14.2151 14.5431 13.8314 14.9564 13.4644 15.2806C13.2821 15.4417 13.0803 15.6021 12.8722 15.7275C12.6915 15.8364 12.3773 16 12 16C11.6227 16 11.3085 15.8364 11.1279 15.7275C10.9198 15.6021 10.718 15.4418 10.5356 15.2806C10.1686 14.9564 9.78491 14.5431 9.44846 14.1556C9.1077 13.7632 8.79527 13.3736 8.56924 13.084C8.45741 12.9407 8.26497 12.6859 8.19761 12.5967L8.19482 12.593C7.8673 12.1483 7.96229 11.5223 8.40699 11.1948C8.85165 10.8673 9.47766 10.9624 9.8052 11.407C9.86445 11.4855 10.0399 11.7176 10.1459 11.8535C10.3589 12.1264 10.6482 12.4869 10.9587 12.8444L11 12.8919V8C11 7.44772 11.4477 7 12 7Z" fill="#141B34"/>
</svg>
