<svg width="24" height="24" viewBox="0 0 24 24" fill="none" xmlns="http://www.w3.org/2000/svg">
<path d="M14.7303 1.34792C14.1073 1.26325 13.3462 1.25158 12.4546 1.25H8.54494C7.65336 1.25158 6.89218 1.26325 6.26922 1.34792C5.50393 1.45194 4.80417 1.68195 4.24072 2.25159C3.67726 2.82122 3.44975 3.52866 3.34686 4.30234C3.24969 5.03301 3.24972 5.95183 3.24976 7.0463V16.9532C3.24972 18.0476 3.24969 18.9665 3.34686 19.6972C3.44975 20.4709 3.67726 21.1783 4.24072 21.7479C4.80417 22.3176 5.50393 22.5476 6.26922 22.6516C6.99195 22.7498 7.90076 22.7498 8.98336 22.7498H12.0161C13.0986 22.7498 14.0076 22.7498 14.7303 22.6516C15.4956 22.5476 16.1953 22.3176 16.7588 21.7479C17.3223 21.1783 17.5498 20.4709 17.6527 19.6972C17.7498 18.9665 17.7498 19.0945 17.7498 18V17.4667C17.7498 16.9328 17.317 16.5 16.7831 16.5C16.2492 16.5 15.8164 16.9328 15.8164 17.4667V18C15.8164 18.5689 15.816 18.5895 15.8067 18.988L15.8065 19H5.19309C5.1836 18.5899 5.18311 17.4596 5.18311 16.885V7.11229C5.18311 5.93294 5.18516 5.14673 5.26297 4.56168C5.33703 4.00473 5.46344 3.77851 5.6078 3.63256C5.75217 3.4866 5.97594 3.35882 6.52684 3.28394C6.90536 3.23249 7.369 3.2138 7.9709 3.20703L8.18516 3.64025C8.34891 3.97134 8.68363 4.18047 9.04977 4.18047H11.9498C12.3159 4.18047 12.6506 3.97134 12.8144 3.64025L13.0286 3.20703C13.6305 3.2138 14.0942 3.23249 14.4727 3.28394C15.0236 3.35882 15.2474 3.4866 15.3917 3.63256C15.5361 3.77851 15.6625 4.00473 15.7366 4.56168C15.7856 4.93058 15.8046 5.13602 15.8119 5.53311C15.8217 6.06691 16.2492 6.49999 16.7831 6.49998C17.317 6.49996 17.7548 6.06694 17.745 5.53317C17.7367 5.08379 17.7142 4.76483 17.6527 4.30234C17.5498 3.52866 17.3223 2.82123 16.7588 2.25159C16.1953 1.68195 15.4956 1.45194 14.7303 1.34792Z" fill="#141B34"/>
<path fill-rule="evenodd" clip-rule="evenodd" d="M19.25 10.2677V9.5C19.25 8.25736 18.2426 7.25 17 7.25C15.7574 7.25 14.75 8.25736 14.75 9.5V10.2677C13.9019 10.389 13.25 11.1184 13.25 12V14C13.25 14.9665 14.0335 15.75 15 15.75H19C19.9665 15.75 20.75 14.9665 20.75 14V12C20.75 11.1184 20.0981 10.389 19.25 10.2677ZM16.25 9.5C16.25 9.08579 16.5858 8.75 17 8.75C17.4142 8.75 17.75 9.08579 17.75 9.5V10.25H16.25V9.5Z" fill="#141B34"/>
</svg>
