<svg width="24" height="24" viewBox="0 0 24 24" fill="none" xmlns="http://www.w3.org/2000/svg">
<path fill-rule="evenodd" clip-rule="evenodd" d="M5.8364 4.01797C5.02464 3.94048 4.58201 4.12337 4.35215 4.35323C4.03954 4.66584 3.82523 5.38833 4.18841 6.75526C4.45978 7.77665 5.01708 8.98996 5.84113 10.2922C6.4772 9.50488 7.18284 8.71908 7.95044 7.95147C9.08281 6.81909 10.2548 5.82157 11.4127 4.98331C13.259 3.64675 15.1074 2.68782 16.7305 2.25656C18.2964 1.84051 19.966 1.84477 21.0603 2.93903C22.1545 4.03329 22.1588 5.70291 21.7428 7.26883C21.3572 8.7201 20.5498 10.3514 19.4278 12.0003C20.5497 13.6491 21.3571 15.2804 21.7427 16.7316C22.1587 18.2975 22.1544 19.9671 21.0602 21.0614C20.247 21.8746 19.105 22.0815 17.9717 21.9734C16.8318 21.8645 15.5546 21.4295 14.2471 20.7669L15.1511 18.9828C16.3283 19.5794 17.3566 19.9055 18.1618 19.9824C18.9735 20.0599 19.4161 19.877 19.646 19.6471C19.9586 19.3345 20.1729 18.6121 19.8097 17.2452C19.5384 16.2238 18.9811 15.0105 18.1571 13.7083C17.521 14.4956 16.8154 15.2814 16.0479 16.0489C14.9155 17.1813 13.7435 18.1789 12.5855 19.0171C10.7393 20.3537 8.89092 21.3126 7.26777 21.7438C5.70187 22.1599 4.03227 22.1556 2.93803 21.0614C1.84379 19.9671 1.83951 18.2975 2.25555 16.7316C2.64112 15.2804 3.44851 13.6491 4.57047 12.0003C3.44847 10.3514 2.64106 8.72009 2.25547 7.26883C1.83942 5.7029 1.84368 4.03328 2.93793 2.93902C3.75114 2.12581 4.89315 1.91883 6.02647 2.02702C7.16635 2.13585 8.44358 2.57095 9.75114 3.23357L8.84708 5.01757C7.66985 4.421 6.64158 4.09484 5.8364 4.01797ZM5.84114 13.7083C5.01713 15.0105 4.45985 16.2238 4.18849 17.2452C3.82532 18.6121 4.03963 19.3345 4.35224 19.6472C4.66485 19.9598 5.38731 20.1741 6.75422 19.8109C7.77558 19.5395 8.98885 18.9823 10.291 18.1582C9.50376 17.5222 8.71795 16.8165 7.95035 16.0489C7.18279 15.2814 6.47719 14.4956 5.84114 13.7083ZM11.9991 16.9587C12.8781 16.2809 13.7662 15.5022 14.6337 14.6347C15.5011 13.7672 16.2798 12.8792 16.9576 12.0003C16.2797 11.1212 15.5011 10.2332 14.6336 9.36567C13.7661 8.4982 12.8781 7.71958 11.9991 7.04172C11.1201 7.71958 10.2321 8.4982 9.36466 9.36568C8.49715 10.2332 7.71851 11.1212 7.04063 12.0003C7.71848 12.8792 8.4971 13.7672 9.36457 14.6347C10.2321 15.5022 11.1201 16.2809 11.9991 16.9587ZM13.7072 5.84222C14.4944 6.47827 15.2802 7.18388 16.0478 7.95146C16.8154 8.71907 17.521 9.50488 18.1571 10.2922C18.9812 8.98996 19.5385 7.77666 19.8098 6.75527C20.173 5.38833 19.9587 4.66585 19.6461 4.35324C19.3335 4.04063 18.611 3.82632 17.2441 4.1895C16.2227 4.46087 15.0094 5.01817 13.7072 5.84222Z" fill="#141B34"/>
<path d="M14 12C14 13.1046 13.1046 14 12 14C10.8954 14 10 13.1046 10 12C10 10.8954 10.8954 10 12 10C13.1046 10 14 10.8954 14 12Z" fill="#141B34"/>
</svg>
