<svg width="24" height="24" viewBox="0 0 24 24" fill="none" xmlns="http://www.w3.org/2000/svg">
<path fill-rule="evenodd" clip-rule="evenodd" d="M2.29289 2.29289C2.68342 1.90237 3.31658 1.90237 3.70711 2.29289L21.7071 20.2929C22.0976 20.6834 22.0976 21.3166 21.7071 21.7071C21.3166 22.0976 20.6834 22.0976 20.2929 21.7071L2.29289 3.70711C1.90237 3.31658 1.90237 2.68342 2.29289 2.29289Z" fill="#141B34"/>
<path opacity="0.4" d="M17.7097 2.55346C19.4573 3.18528 20.8151 4.54305 21.4469 6.29064C21.554 6.58633 21.6802 6.93507 21.7262 7.24165C21.7805 7.60384 21.7444 7.94519 21.6084 8.32365C21.3173 9.13408 20.6647 9.49626 19.9456 9.89542L18.5277 10.6861C18.0149 10.9721 17.6764 11.1618 17.4352 11.3286C17.2005 11.4909 17.1337 11.582 17.106 11.6358C17.0914 11.6641 17.0458 11.8022 17.0577 12.2506C17.0599 12.3335 17.0638 12.4223 17.0692 12.5176C17.0954 12.9787 17.1086 13.2092 16.9828 13.2655C16.8571 13.3219 16.6962 13.161 16.3746 12.8394L11.1376 7.6024C10.8187 7.28348 10.6592 7.12402 10.7151 6.99846C10.771 6.8729 10.9993 6.88481 11.4561 6.90862C11.5632 6.91421 11.6623 6.91806 11.7544 6.91998C11.9684 6.92445 12.2395 6.94301 12.3807 6.86947C12.4331 6.84219 12.5239 6.7753 12.6869 6.53889C12.8538 6.29676 13.0442 5.95698 13.3307 5.44342L14.105 4.05478C14.5042 3.33567 14.8663 2.68318 15.6768 2.39201C16.0552 2.25603 16.3966 2.2199 16.7587 2.27422C17.0653 2.32019 17.414 2.44643 17.7097 2.55346Z" fill="#141B34"/>
<path fill-rule="evenodd" clip-rule="evenodd" d="M15.881 18.563C16.0613 18.3708 16.2228 18.1123 16.3512 17.9069C16.5157 17.6437 16.655 17.3763 16.7708 17.1055C16.8183 16.9945 16.842 16.939 16.8304 16.8788C16.8188 16.8186 16.7741 16.7739 16.6846 16.6844L7.31708 7.31689C7.22746 7.22727 7.18265 7.18246 7.1224 7.17087C7.06216 7.15927 7.00657 7.18311 6.89538 7.2308C6.6245 7.34697 6.35734 7.48617 6.09477 7.65021C5.8893 7.77843 5.63076 7.93977 5.43845 8.12008C5.21123 8.33312 5.05066 8.57862 4.92249 8.89476C4.792 9.2166 4.73911 9.50943 4.75318 9.82537C4.76515 10.0941 4.83534 10.4027 4.89391 10.6602C5.27181 12.3246 6.14485 13.9251 7.30458 15.2822L2.54387 20.0429C2.15335 20.4334 2.15335 21.0666 2.54387 21.4571C2.93439 21.8476 3.56756 21.8476 3.95808 21.4571L8.7188 16.6964C10.0758 17.8561 11.6764 18.7291 13.3407 19.107C13.5984 19.1656 13.907 19.2358 14.1757 19.2478C14.4917 19.2619 14.7845 19.2091 15.1063 19.0787C15.4224 18.9507 15.6679 18.7902 15.881 18.563Z" fill="#141B34"/>
</svg>
