<svg width="24" height="24" viewBox="0 0 24 24" fill="none" xmlns="http://www.w3.org/2000/svg">
<path opacity="0.4" d="M8.69334 3.98179C8.8049 3.58288 9.21872 3.34994 9.61762 3.4615L20.2032 6.42195C20.6022 6.53351 20.8351 6.94732 20.7235 7.34623C20.612 7.74514 20.1982 7.97808 19.7993 7.86652L19.5748 7.80376L18.2856 12.8258L8.17969 9.99954L9.46897 4.97748L9.21362 4.90607C8.81472 4.79451 8.58178 4.38069 8.69334 3.98179Z" fill="#141B34"/>
<path d="M16.5765 5.40768L18.0214 5.81177L18.2912 4.76067C18.5282 3.83731 17.9917 2.88051 17.0651 2.62139L14.1815 1.81494C13.2309 1.54909 12.2619 2.12531 12.019 3.07208L11.7649 4.06202L13.2098 4.46611L13.4719 3.44496C13.5097 3.29761 13.6519 3.22438 13.7775 3.25951L16.6611 4.06596C16.7878 4.10139 16.8761 4.24042 16.8383 4.38779L16.5765 5.40768Z" fill="#141B34"/>
<path fill-rule="evenodd" clip-rule="evenodd" d="M14.2041 8.27797C14.603 8.38965 14.8358 8.80354 14.7241 9.20241L14.2459 10.9104C14.1342 11.3093 13.7203 11.5421 13.3214 11.4304C12.9225 11.3187 12.6897 10.9048 12.8014 10.506L13.2796 8.79797C13.3913 8.3991 13.8052 8.16628 14.2041 8.27797Z" fill="#141B34"/>
<path opacity="0.4" d="M6.1136 14.0248C6.22516 13.6258 6.63898 13.3929 7.03788 13.5045L17.6235 16.4649C18.0224 16.5765 18.2554 16.9903 18.1438 17.3892C18.0322 17.7881 17.6184 18.021 17.2195 17.9095L16.9951 17.8467L15.8646 22.2501H5.0332L6.88923 15.0204L6.63388 14.949C6.23498 14.8375 6.00204 14.4237 6.1136 14.0248Z" fill="#141B34"/>
<path fill-rule="evenodd" clip-rule="evenodd" d="M11.2624 18.778C11.6613 18.8897 11.8941 19.3035 11.7824 19.7024L11.2224 21.7024C11.1107 22.1013 10.6968 22.3341 10.298 22.2224C9.8991 22.1107 9.66628 21.6968 9.77797 21.298L10.338 19.298C10.4497 18.8991 10.8635 18.6663 11.2624 18.778Z" fill="#141B34"/>
<path fill-rule="evenodd" clip-rule="evenodd" d="M1.25 21.5C1.25 21.0858 1.58579 20.75 2 20.75H22C22.4142 20.75 22.75 21.0858 22.75 21.5C22.75 21.9142 22.4142 22.25 22 22.25H2C1.58579 22.25 1.25 21.9142 1.25 21.5Z" fill="#141B34"/>
<path fill-rule="evenodd" clip-rule="evenodd" d="M8.32661 8.4848C7.9277 8.37324 7.51388 8.60618 7.40232 9.00509C7.29076 9.40399 7.5237 9.81781 7.92261 9.92937L8.17795 10.0008L6.88867 15.0228L11.6952 16.3671C11.7598 16.4104 11.8323 16.4444 11.9112 16.4665C11.9904 16.4887 12.0701 16.4973 12.1479 16.4937L16.9945 17.8491L18.2838 12.8271L18.5082 12.8898C18.9071 13.0014 19.321 12.7684 19.4325 12.3695C19.5441 11.9706 19.3111 11.5568 18.9122 11.4452L9.28894 8.75393L8.32661 8.4848ZM11.6035 14.7839L11.8446 13.9228C11.9563 13.524 12.3702 13.2911 12.7691 13.4028C13.1679 13.5145 13.4008 13.9284 13.2891 14.3273L13.0481 15.1879L15.9227 15.9918L16.8389 12.423L9.62285 10.4049L8.70665 13.9737L11.6035 14.7839Z" fill="#141B34"/>
</svg>
