<svg width="24" height="24" viewBox="0 0 24 24" fill="none" xmlns="http://www.w3.org/2000/svg">
<path opacity="0.4" fill-rule="evenodd" clip-rule="evenodd" d="M18.9997 7.98586L19.0378 8.0028L15.9936 15.674C14.3201 19.8913 13.4833 22 11.9997 22C10.5161 22 9.67928 19.8913 8.0057 15.674L4.97168 8.02841L4.99967 8C5.41803 7.69694 5.76813 7.30957 6.02201 6.85986C6.92715 5.25652 8.95856 4.57139 10.7169 5.2764C11.6113 5.63498 12.6172 5.64425 13.5186 5.30223C15.2909 4.62976 17.3081 5.35222 18.1806 6.97194C18.3888 7.35833 18.6674 7.70091 18.9997 7.98586ZM7.32171 10C8.8007 10 9.99967 11.13 9.99967 12.524C9.99967 13.7496 9.07279 14.7711 7.84365 15L5.99967 10.3285C6.38971 10.1194 6.84091 10 7.32171 10Z" fill="#141B34"/>
<path d="M17.4258 2.87898C15.732 2.31011 13.9049 2 12 2C10.0951 2 8.26804 2.31011 6.57421 2.87898C5.21758 3.3346 4.53927 3.56241 4.16572 4.30884C3.79218 5.05528 4.08752 5.79951 4.67819 7.28799L8.00604 15.674C9.67961 19.8913 10.5164 22 12 22C13.4836 22 14.3204 19.8913 15.994 15.674L19.3218 7.28799C19.9125 5.79952 20.2078 5.05528 19.8343 4.30884C19.4607 3.56241 18.7824 3.3346 17.4258 2.87898Z" stroke="#141B34" stroke-width="1.5"/>
<path d="M19 7.98586C18.6678 7.70091 18.3891 7.35833 18.181 6.97194C17.3084 5.35222 15.2912 4.62976 13.5189 5.30223C12.6175 5.64425 11.6116 5.63498 10.7173 5.2764C8.9589 4.57139 6.92748 5.25652 6.02234 6.85986C5.76847 7.30957 5.41836 7.69694 5 8" stroke="#141B34" stroke-width="1.5" stroke-linecap="round"/>
<path d="M6 10.3285C6.39004 10.1194 6.84125 10 7.32204 10C8.80104 10 10 11.13 10 12.524C10 13.7496 9.07312 14.7711 7.84398 15" stroke="#141B34" stroke-width="1.5" stroke-linecap="round"/>
<path d="M14.0078 9L13.9988 9" stroke="#141B34" stroke-width="2" stroke-linecap="round" stroke-linejoin="round"/>
<path d="M14 14C13.5 14 13 14.5 13 15" stroke="#141B34" stroke-width="1.5" stroke-linecap="round" stroke-linejoin="round"/>
</svg>
