<svg width="24" height="24" viewBox="0 0 24 24" fill="none" xmlns="http://www.w3.org/2000/svg">
<path fill-rule="evenodd" clip-rule="evenodd" d="M3 21C3 20.4477 3.44772 20 4 20H4.00898C4.56127 20 5.00898 20.4477 5.00898 21C5.00898 21.5523 4.56127 22 4.00898 22H4C3.44772 22 3 21.5523 3 21Z" fill="#141B34"/>
<path fill-rule="evenodd" clip-rule="evenodd" d="M19 21C19 20.4477 19.4477 20 20 20H20.009C20.5613 20 21.009 20.4477 21.009 21C21.009 21.5523 20.5613 22 20.009 22H20C19.4477 22 19 21.5523 19 21Z" fill="#141B34"/>
<path fill-rule="evenodd" clip-rule="evenodd" d="M12 2C12.5523 2 13 2.44772 13 3V8.3364C12.6864 8.27981 12.3533 8.25 11.9997 8.25C11.6463 8.25 11.3134 8.27977 11 8.3363V3C11 2.44772 11.4477 2 12 2ZM6.38484 14.1694L1.62888 16.0718C1.11609 16.2769 0.866676 16.8589 1.07179 17.3717C1.2769 17.8844 1.85887 18.1339 2.37166 17.9287L3.00027 17.6773V18.0003C3.00027 18.5526 3.44798 19.0003 4.00027 19.0003C4.55255 19.0003 5.00027 18.5526 5.00027 18.0003V16.8773L6.36268 16.3323C6.21062 15.6899 6.20714 14.9662 6.38484 14.1694ZM17.6368 16.3319L19.0003 16.8773V18.0003C19.0003 18.5526 19.448 19.0003 20.0003 19.0003C20.5525 19.0003 21.0003 18.5526 21.0003 18.0003V17.6773L21.6289 17.9287C22.1417 18.1339 22.7236 17.8844 22.9287 17.3717C23.1339 16.8589 22.8844 16.2769 22.3717 16.0718L17.6145 14.1689C17.7922 14.9658 17.7888 15.6895 17.6368 16.3319Z" fill="#141B34"/>
<path opacity="0.4" d="M8.04869 10.1759C8.92614 9.02606 10.1954 8.25 11.9997 8.25C13.804 8.25 15.0733 9.02606 15.9507 10.1759C16.7969 11.2847 17.2656 12.7208 17.5894 14.0611C18.0574 15.998 17.4638 17.5122 16.2652 18.4881C15.1264 19.4153 13.5235 19.7942 11.9997 19.7459C10.4759 19.7942 8.87299 19.4153 7.73417 18.4881C6.53561 17.5122 5.94204 15.998 6.40999 14.0611C6.73383 12.7208 7.2025 11.2847 8.04869 10.1759Z" fill="#141B34"/>
<path fill-rule="evenodd" clip-rule="evenodd" d="M11 14C11 13.4477 11.4457 13 11.9955 13H12.0045C12.5543 13 13 13.4477 13 14C13 14.5523 12.5543 15 12.0045 15H11.9955C11.4457 15 11 14.5523 11 14Z" fill="#141B34"/>
</svg>
