<svg width="24" height="24" viewBox="0 0 24 24" fill="none" xmlns="http://www.w3.org/2000/svg">
<path fill-rule="evenodd" clip-rule="evenodd" d="M11.9958 7.75C10.1915 7.75 8.92224 8.52606 8.04478 9.67587C7.19859 10.7847 6.72993 12.2208 6.40608 13.5611C5.93813 15.498 6.5317 17.0122 7.73027 17.9881C8.86909 18.9153 10.472 19.2942 11.9958 19.2459C13.5196 19.2942 15.1225 18.9153 16.2613 17.9881C17.4599 17.0122 18.0535 15.498 17.5855 13.5611C17.2617 12.2208 16.793 10.7847 15.9468 9.67587C15.0694 8.52606 13.8001 7.75 11.9958 7.75ZM11.9961 12.5C11.4438 12.5 10.9961 12.9477 10.9961 13.5C10.9961 14.0523 11.4438 14.5 11.9961 14.5H12.0051C12.5574 14.5 13.0051 14.0523 13.0051 13.5C13.0051 12.9477 12.5574 12.5 12.0051 12.5H11.9961Z" fill="#141B34"/>
<path fill-rule="evenodd" clip-rule="evenodd" d="M2.99609 20.5C2.99609 19.9477 3.44381 19.5 3.99609 19.5H4.00508C4.55736 19.5 5.00508 19.9477 5.00508 20.5C5.00508 21.0523 4.55736 21.5 4.00508 21.5H3.99609C3.44381 21.5 2.99609 21.0523 2.99609 20.5Z" fill="#141B34"/>
<path fill-rule="evenodd" clip-rule="evenodd" d="M18.9961 20.5C18.9961 19.9477 19.4438 19.5 19.9961 19.5H20.0051C20.5574 19.5 21.0051 19.9477 21.0051 20.5C21.0051 21.0523 20.5574 21.5 20.0051 21.5H19.9961C19.4438 21.5 18.9961 21.0523 18.9961 20.5Z" fill="#141B34"/>
<path fill-rule="evenodd" clip-rule="evenodd" d="M1.25 15.5713L6.99609 13L6.99278 15.4282L1.99278 17.4282L1.25 15.5713ZM22.0072 17.4282L17.0072 15.4282V13L22.75 15.5713L22.0072 17.4282Z" fill="#141B34"/>
<path fill-rule="evenodd" clip-rule="evenodd" d="M12.9961 2.5L12.9961 8.5L10.9961 8.5L10.9961 2.5L12.9961 2.5Z" fill="#141B34"/>
<path fill-rule="evenodd" clip-rule="evenodd" d="M4.99609 16L4.99609 18.5L2.99609 18.5L2.99609 16L4.99609 16Z" fill="#141B34"/>
<path fill-rule="evenodd" clip-rule="evenodd" d="M20.7461 16L20.7461 18.5L19.2461 18.5L19.2461 16L20.7461 16Z" fill="#141B34"/>
</svg>
