<svg width="24" height="24" viewBox="0 0 24 24" fill="none" xmlns="http://www.w3.org/2000/svg">
<path d="M3 2.24976H8.7331L6.55309 6.24976H2.25V2.99976C2.25 2.58554 2.58579 2.24976 3 2.24976Z" fill="#141B34"/>
<path d="M13.5531 6.24976H8.26139L10.4414 2.24976H15.7331L13.5531 6.24976Z" fill="#141B34"/>
<path d="M17.4414 2.24976L15.2614 6.24976H21.75V2.99976C21.75 2.58554 21.4142 2.24976 21 2.24976H17.4414Z" fill="#141B34"/>
<path fill-rule="evenodd" clip-rule="evenodd" d="M21.75 7.74976H2.25V20.9998C2.25 21.414 2.58579 21.7498 3 21.7498H21C21.4142 21.7498 21.75 21.414 21.75 20.9998V7.74976ZM15.5 14.4998L10 10.9998V17.9998L15.5 14.4998Z" fill="#141B34"/>
</svg>
