<svg width="24" height="24" viewBox="0 0 24 24" fill="none" xmlns="http://www.w3.org/2000/svg">
<path opacity="0.4" d="M12 1.25C6.06294 1.25 1.25 6.06294 1.25 12C1.25 17.9371 6.06294 22.75 12 22.75C17.9371 22.75 22.75 17.9371 22.75 12C22.75 6.06294 17.9371 1.25 12 1.25Z" fill="#141B34"/>
<path d="M13.5886 9.03698L13.507 8.98648C12.8503 8.58022 12.2993 8.23934 11.8422 8.02763C11.3786 7.81293 10.85 7.65091 10.2988 7.82101C9.93447 7.93342 9.6108 8.14441 9.35518 8.42523C8.98329 8.8338 8.86071 9.36777 8.80525 9.90146C8.74997 10.4333 8.74999 11.1204 8.75 11.9571V12.0431C8.74999 12.8798 8.74997 13.567 8.80525 14.0988C8.86071 14.6325 8.98329 15.1665 9.35518 15.575C9.6108 15.8559 9.93447 16.0668 10.2988 16.1793C10.85 16.3494 11.3786 16.1873 11.8422 15.9726C12.2993 15.7609 12.8503 15.4201 13.507 15.0138L13.5886 14.9633C14.2703 14.5416 14.8387 14.19 15.2505 13.8625C15.6745 13.5252 16.0479 13.1266 16.1821 12.5711C16.2726 12.1966 16.2726 11.8037 16.1821 11.4292C16.0479 10.8736 15.6745 10.475 15.2505 10.1378C14.8387 9.81024 14.2703 9.45867 13.5886 9.03698Z" fill="#141B34"/>
</svg>
