<svg width="24" height="24" viewBox="0 0 24 24" fill="none" xmlns="http://www.w3.org/2000/svg">
<path fill-rule="evenodd" clip-rule="evenodd" d="M8.5 1C9.05228 1 9.5 1.44772 9.5 2V6C9.5 6.55228 9.05228 7 8.5 7C7.94772 7 7.5 6.55228 7.5 6V2C7.5 1.44772 7.94772 1 8.5 1ZM15.5 1C16.0523 1 16.5 1.44772 16.5 2V6C16.5 6.55228 16.0523 7 15.5 7C14.9477 7 14.5 6.55228 14.5 6V2C14.5 1.44772 14.9477 1 15.5 1Z" fill="#141B34"/>
<path fill-rule="evenodd" clip-rule="evenodd" d="M12 16C12.5523 16 13 16.4477 13 17V22C13 22.5523 12.5523 23 12 23C11.4477 23 11 22.5523 11 22V17C11 16.4477 11.4477 16 12 16Z" fill="#141B34"/>
<path fill-rule="evenodd" clip-rule="evenodd" d="M7.53024 5.25C6.21844 5.25 5.15465 6.34927 5.25679 7.6711L5.4406 10.0498C5.58286 11.8907 6.20558 13.6637 7.24763 15.1986L7.84841 16.0835C8.55765 17.1282 9.74797 17.75 11.0163 17.75H12.9839C14.2522 17.75 15.4425 17.1282 16.1518 16.0835L16.7526 15.1986C17.7946 13.6637 18.4173 11.8907 18.5596 10.0498L18.7434 7.6711C18.8456 6.34927 17.7818 5.25 16.47 5.25H7.53024ZM11 8.25C10.5858 8.25 10.25 8.58579 10.25 9C10.25 9.41421 10.5858 9.75 11 9.75H13C13.4142 9.75 13.75 9.41421 13.75 9C13.75 8.58579 13.4142 8.25 13 8.25H11Z" fill="#141B34"/>
</svg>
