<svg width="24" height="24" viewBox="0 0 24 24" fill="none" xmlns="http://www.w3.org/2000/svg">
<path d="M3.72368 13.75C4.26144 13.75 4.69737 13.3195 4.69737 12.7885L4.69738 11.7652C4.69737 11.4982 4.69754 10.8596 4.97816 10.3875C5.15109 10.0965 5.37251 9.85337 5.59996 9.72955C5.96647 9.53003 6.38666 9.41667 6.83333 9.41667C6.98046 9.41667 7.13864 9.42314 7.31624 9.43138L7.38206 9.43446C7.53697 9.44174 7.70556 9.44966 7.8737 9.45315C8.25379 9.46105 8.69733 9.44904 9.12548 9.33432C9.95945 9.11086 10.6109 8.45945 10.8343 7.62548C10.949 7.19733 10.961 6.75379 10.9532 6.3737C10.9497 6.20562 10.9417 6.03692 10.9345 5.88206L10.9314 5.81624C10.9231 5.63864 10.9167 5.48046 10.9167 5.33333C10.9167 4.86564 11.0409 4.42698 11.2583 4.04857C11.385 3.82798 11.6057 3.62609 11.9105 3.44878C12.3726 3.17987 12.926 3.17738 13.2642 3.17585C13.6023 3.17433 13.9591 3.17316 14.2572 3.17316C16.0914 3.17316 16.7582 3.18692 17.2614 3.36158C18.1337 3.66441 18.7997 4.29659 19.11 5.07103C19.1878 5.26511 19.2427 5.52002 19.2721 5.96153C19.3021 6.41159 19.3026 6.98607 19.3026 7.81394V12.7885C19.3026 13.3195 19.7386 13.75 20.2763 13.75C20.8141 13.75 21.25 13.3195 21.25 12.7885V7.78121C21.25 6.99374 21.25 6.35586 21.2153 5.83514C21.1795 5.29867 21.1039 4.82043 20.9208 4.36341C20.3922 3.04443 19.2841 2.02533 17.9072 1.54735C17.0482 1.24915 16.0155 1.24951 14.4607 1.25005L13.5134 1.25012L13.5 1.25L13.4649 1.25015C10.9565 1.25185 9.40174 1.28168 8.1118 1.72949C5.8915 2.50027 4.11806 4.13859 3.27491 6.24261C2.99393 6.94378 2.86942 7.69695 2.80918 8.60017C2.74999 9.48756 2.75 10.5838 2.75 11.9814V12.7885C2.75 13.3195 3.18593 13.75 3.72368 13.75Z" fill="#141B34"/>
<path fill-rule="evenodd" clip-rule="evenodd" d="M4.61413 15.25C4.62669 15.25 4.63922 15.25 4.6517 15.25H5.41949C6.65753 15.25 7.6091 16.2867 7.6091 17.5C7.6091 18.7133 6.65753 19.75 5.41949 19.75H4.25001V22C4.25001 22.4142 3.91423 22.75 3.50001 22.75C3.0858 22.75 2.75001 22.4142 2.75001 22V17.2C2.75001 17.1878 2.75001 17.1757 2.75001 17.1635C2.74994 16.9127 2.74988 16.6579 2.77726 16.4457C2.80837 16.2046 2.88623 15.9079 3.12756 15.6564C3.37305 15.4006 3.67004 15.3137 3.91579 15.2792C4.12564 15.2498 4.37583 15.2499 4.61413 15.25ZM4.25001 18.25H5.41949C5.7716 18.25 6.1091 17.9436 6.1091 17.5C6.1091 17.0565 5.7716 16.75 5.41949 16.75H4.6517C4.51307 16.75 4.40504 16.7501 4.31249 16.7525C4.29185 16.753 4.27293 16.7537 4.25558 16.7544C4.25431 16.7807 4.25325 16.8104 4.25243 16.8442C4.25006 16.9421 4.25001 17.0559 4.25001 17.2V18.25Z" fill="#141B34"/>
<path fill-rule="evenodd" clip-rule="evenodd" d="M13.7204 15.25C14.1346 15.25 14.4704 15.5858 14.4704 16V20.222C14.4704 20.2365 14.4704 20.2509 14.4704 20.2652C14.4704 20.7135 14.4704 21.1102 14.4397 21.4023C14.4239 21.5517 14.3949 21.7361 14.3228 21.9088C14.2465 22.0914 14.0849 22.3435 13.7645 22.4603C13.4216 22.5852 13.1149 22.4773 12.9194 22.3435C12.7519 22.2289 12.6288 22.0744 12.5454 21.9587C12.3806 21.7298 12.1948 21.3945 11.9909 21.0265C11.9833 21.0126 11.9756 20.9988 11.9679 20.9849L10.4805 18.3008V22C10.4805 22.4142 10.1447 22.75 9.73047 22.75C9.31626 22.75 8.98047 22.4142 8.98047 22V17.778C8.98047 17.7635 8.98047 17.7491 8.98047 17.7348C8.98044 17.2865 8.98041 16.8898 9.01116 16.5977C9.02689 16.4483 9.05591 16.2639 9.12807 16.0912C9.20432 15.9086 9.36589 15.6565 9.68631 15.5397C10.0292 15.4148 10.3359 15.5227 10.5314 15.6565C10.6989 15.7711 10.8221 15.9256 10.9054 16.0413C11.0702 16.2702 11.256 16.6055 11.4599 16.9735C11.4676 16.9873 11.4752 17.0012 11.4829 17.0151L12.9704 19.6992V16C12.9704 15.5858 13.3061 15.25 13.7204 15.25Z" fill="#141B34"/>
<path d="M18.7368 16.7507C18.2684 16.7507 17.8907 16.7526 17.698 16.78C17.6476 16.7738 17.5409 16.8089 17.5169 16.9982C17.4897 17.2121 17.4883 17.5093 17.4883 18.0008V20.0008C17.4883 20.4923 17.4897 20.7895 17.5169 21.0034C17.5301 21.0713 17.5847 21.2099 17.698 21.2217C17.8907 21.249 18.1623 21.2508 18.6307 21.2508C19.0991 21.2508 19.3708 21.249 19.5635 21.2217C19.7173 21.2072 19.7483 21.0702 19.7445 21.0034C19.7671 20.8262 19.7719 20.5919 19.7729 20.2373C19.6264 20.2326 19.3368 20.2393 19.2104 20.2432C18.8005 20.3018 18.4203 20.0172 18.3614 19.6073C18.3026 19.1973 18.5873 18.8173 18.9973 18.7584C19.4073 18.6996 19.6582 18.7167 19.8914 18.741C20.1098 18.7638 20.4155 18.8196 20.6873 18.9828C20.9993 19.17 21.2732 19.511 21.2732 20.0008L21.2732 20.0439C21.2732 20.4782 21.2732 20.8726 21.2325 21.1927C21.1882 21.5409 21.0844 21.9131 20.7908 22.2234C20.4917 22.5396 20.1232 22.6572 19.7745 22.7067C19.4635 22.7509 19.0829 22.7509 18.6764 22.7508C18.2699 22.7509 17.798 22.7509 17.487 22.7067C17.1383 22.6572 16.7698 22.5396 16.4707 22.2234C16.177 21.9131 16.0732 21.5409 16.0289 21.1927C15.9882 20.8726 15.9882 20.4782 15.9883 20.0439L15.9883 20.0008V18.0008L15.9883 17.9578C15.9882 17.5234 15.9882 17.129 16.0289 16.8089C16.0732 16.4607 16.177 16.0885 16.4707 15.7782C16.7698 15.4621 17.1383 15.3444 17.487 15.2949C17.798 15.2507 18.3361 15.2504 18.7426 15.2504C19.1188 15.2486 19.6531 15.2459 20.1012 15.4009C20.3766 15.4962 20.6596 15.6607 20.88 15.9427C21.0994 16.2235 21.2116 16.5628 21.2459 16.9313C21.2843 17.3437 20.9811 17.7092 20.5687 17.7476C20.1562 17.786 19.7908 17.4828 19.7524 17.0703C19.7382 16.9176 19.7018 16.8711 19.6982 16.8664C19.6951 16.8624 19.6795 16.8422 19.6108 16.8185C19.5314 16.791 19.4121 16.7696 19.2334 16.7591C19.0813 16.7502 18.9226 16.7504 18.7368 16.7507H18.7368Z" fill="#141B34"/>
</svg>
