<svg width="24" height="24" viewBox="0 0 24 24" fill="none" xmlns="http://www.w3.org/2000/svg">
<path opacity="0.4" d="M3.75 10.2502C2.36929 10.2502 1.25 11.3695 1.25 12.7502C1.25 14.131 2.36929 15.2502 3.75 15.2502H8.74751C8.81064 17.1141 9.38616 19.8193 11.4332 21.8533C12.3751 22.7893 13.7529 22.8447 14.8931 22.674C16.0699 22.4978 17.2359 22.0473 18.0131 21.6751C18.2264 21.5559 19.1202 21.0744 19.3235 20.9728C19.7563 20.7564 20.1001 20.6421 20.382 20.6421C20.6473 20.6421 20.918 20.6422 21.1214 20.625C21.3409 20.6066 21.5809 20.5643 21.8165 20.44C22.1284 20.2754 22.3833 20.0205 22.5479 19.7086C22.6721 19.473 22.7145 19.2331 22.7329 19.0135C22.75 18.8101 22.75 18.5664 22.75 18.3011V12.7166C22.75 12.4089 22.7501 12.1254 22.7266 11.8896C22.7012 11.633 22.6003 11.1699 22.3382 10.9077C22.1107 10.6377 21.7789 10.4886 21.5062 10.3826C21.2149 10.2695 20.8293 10.1495 20.3655 10.0052C20.0584 9.89574 19.6676 9.65984 18.8763 9.06086L14.5465 5.78372C13.641 5.07504 12.3548 5.07203 11.4457 5.77706C10.3388 6.63549 10.1793 8.22852 11.1094 9.28045L12.1242 10.2502L3.75 10.2502Z" fill="#141B34"/>
<path d="M8.25391 5.5061C8.80619 5.5061 9.25391 5.05839 9.25391 4.5061C9.25391 3.95382 8.80619 3.5061 8.25391 3.5061L5.75387 3.5061L5.75389 2.91184C5.75401 2.73621 5.75417 2.52056 5.7321 2.34412L5.73168 2.34077C5.71591 2.21432 5.64407 1.63828 5.07848 1.36392C4.51165 1.08896 4.01151 1.3909 3.90331 1.45622L3.43482 1.79536C3.059 2.08999 2.54454 2.49569 2.15353 2.87612C1.95842 3.06595 1.75718 3.28322 1.59834 3.51412C1.45713 3.71938 1.25387 4.06958 1.25387 4.50024C1.25387 4.93091 1.45713 5.2811 1.59834 5.48636C1.75718 5.71727 1.95842 5.93454 2.15353 6.12437C2.54454 6.5048 3.05899 6.91049 3.43482 7.20512L3.90331 7.54427C4.01152 7.60959 4.51166 7.91153 5.07848 7.63657C5.64408 7.36221 5.71591 6.78616 5.73168 6.65972L5.7321 6.65637C5.75417 6.47993 5.75401 6.26428 5.75389 6.08864L5.75387 5.5061L8.25391 5.5061Z" fill="#141B34"/>
</svg>
