<svg width="24" height="24" viewBox="0 0 24 24" fill="none" xmlns="http://www.w3.org/2000/svg">
<path opacity="0.4" d="M12.6884 8.91968C13.2286 8.91968 13.4987 8.91968 13.5848 8.76751C13.5959 8.74805 13.6047 8.72741 13.6111 8.70598C13.6614 8.5385 13.4746 8.34343 13.101 7.95329C12.4569 7.37016 11.9337 6.89652 11.471 6.55239C10.9905 6.19502 10.522 5.93545 9.97382 5.82406C9.65952 5.7602 9.33841 5.73749 9.01834 5.75651C8.45982 5.78969 7.96005 5.98104 7.43521 6.26761C6.93002 6.54344 6.34744 6.939 5.6305 7.42578L4.69294 8.06233C3.82688 8.65022 3.29502 9.01124 2.86728 9.46051C2.12006 10.2453 1.60513 11.2262 1.37915 12.2914C1.24986 12.9007 1.24992 13.815 1.25002 14.8768C1.24972 16.763 1.24954 17.9074 1.57801 18.8527C2.15457 20.5121 3.43845 21.8231 5.07775 22.4139C6.01194 22.7505 7.14223 22.7503 8.98816 22.75L11 22.75C11.2655 22.75 11.9166 22.7303 12.209 22.7205C13.2116 22.7205 14.1899 21.886 14.4509 20.7521C14.5075 20.5062 14.5357 20.3833 14.4457 20.2701C14.3556 20.157 14.2098 20.157 13.9184 20.157H12.0617C11.8291 20.157 11.6405 19.9635 11.6405 19.7248C11.6405 19.4861 11.8291 19.2926 12.0617 19.2926H14.4977C14.607 19.2926 14.6616 19.2926 14.7157 19.2706C14.7699 19.2487 14.8037 19.216 14.8714 19.1504C15.3031 18.7323 15.6153 18.1307 15.7156 17.2983C15.7475 17.0336 15.7634 16.9013 15.6739 16.8003C15.5844 16.6993 15.4396 16.6993 15.15 16.6993H13.185C12.9524 16.6993 12.7638 16.5058 12.7638 16.2671C12.7638 16.0284 12.9524 15.8349 13.185 15.8349H15.7804C15.9163 15.8349 15.9843 15.8349 16.0481 15.8026C16.112 15.7703 16.1471 15.7226 16.2173 15.6271C16.5522 15.1715 16.75 14.6088 16.75 14C16.7496 13.9176 16.7398 13.769 16.7106 13.6096C16.6828 13.4571 16.6688 13.3809 16.5854 13.3113C16.5019 13.2417 16.4071 13.2417 16.2173 13.2417L13.185 13.2417C12.9524 13.2417 12.7638 13.0482 12.7638 12.8095C12.7638 12.5708 12.9524 12.3773 13.185 12.3773L20.4535 12.3773C21.1696 12.3773 21.7501 11.7968 21.7501 11.0807C21.7501 10.3646 21.1696 9.78409 20.4535 9.78409L9.25349 9.78409C9.02085 9.78409 8.83225 9.59058 8.83225 9.35188C8.83225 9.11319 9.02085 8.91968 9.25349 8.91968L12.6884 8.91968Z" fill="#141B34"/>
<path d="M15.75 3.49414C15.1977 3.49414 14.75 3.94186 14.75 4.49414C14.75 5.04643 15.1977 5.49414 15.75 5.49414L18.25 5.49414L18.25 6.0884C18.2499 6.26404 18.2497 6.47969 18.2718 6.65613L18.2722 6.65947C18.288 6.78592 18.3598 7.36196 18.9254 7.63632C19.4923 7.91128 19.9924 7.60935 20.1006 7.54403L20.5691 7.20489C20.9449 6.91025 21.4594 6.50455 21.8504 6.12412C22.0455 5.93429 22.2467 5.71703 22.4056 5.48612C22.5468 5.28086 22.75 4.93067 22.75 4.5C22.75 4.06933 22.5468 3.71914 22.4056 3.51388C22.2467 3.28297 22.0455 3.06571 21.8504 2.87588C21.4594 2.49545 20.9449 2.08975 20.5691 1.79512L20.1006 1.45597C19.9924 1.39065 19.4922 1.08872 18.9254 1.36368C18.3598 1.63804 18.288 2.21408 18.2722 2.34053L18.2718 2.34387C18.2497 2.52031 18.2499 2.73597 18.25 2.9116L18.25 3.49414L15.75 3.49414Z" fill="#141B34"/>
</svg>
