<svg width="24" height="24" viewBox="0 0 24 24" fill="none" xmlns="http://www.w3.org/2000/svg">
<path d="M11.2759 20.0296L13.0847 20.0364V19.2419H11.443C11.2926 19.2419 11.149 19.2157 11.0159 19.1677C10.5178 18.9884 10.1619 18.5044 10.1619 17.9367V16.5215L12.469 16.5283V15.7338H10.329C10.1786 15.7338 10.035 15.7076 9.90195 15.6597C9.40385 15.4803 9.04793 14.9963 9.04793 14.4286V13.0202H11.3551V12.2257L2.69162 12.2257C1.89543 12.2257 1.25 11.5803 1.25 10.7841C1.25 9.98794 1.89543 9.3425 2.69162 9.3425H15.2589L12.6673 6.93585C12.001 6.27342 12.0602 5.1853 12.7985 4.59815C13.3675 4.14562 14.1751 4.13291 14.7585 4.56785L14.7745 4.57978L22.75 9.3425V19.7423C22.75 21.4034 21.4283 22.75 19.7979 22.75H12.557C11.8495 22.75 11.2759 22.1656 11.2759 21.4448V20.0296Z" fill="#141B34"/>
<path fill-rule="evenodd" clip-rule="evenodd" d="M4.45711 1.25L1.25 4.45711L4.45711 7.66421L5.87132 6.25L5.07843 5.45711L8.66421 5.45711V3.45711L5.07843 3.45711L5.87132 2.66421L4.45711 1.25Z" fill="#141B34"/>
</svg>
