<svg width="24" height="24" viewBox="0 0 24 24" fill="none" xmlns="http://www.w3.org/2000/svg">
<path d="M12.5 22H2.5L2.50017 2H20.5V9" stroke="#141B34" stroke-width="1.5" stroke-linejoin="round"/>
<path d="M7.5 7H15.5" stroke="#141B34" stroke-width="1.5"/>
<path d="M7.5 12H12.5" stroke="#141B34" stroke-width="1.5"/>
<path d="M16.0037 16.7115C16.5474 17.4852 17.4761 17.9912 18.4961 17.9912C19.5779 17.9912 20.5067 17.4221 21.0364 16.568M16.0037 16.7115C15.6623 16.2255 15.4893 15.6338 15.4893 14.9956C15.4893 13.3412 16.8355 12 18.4961 12C20.1567 12 21.5029 13.3412 21.5029 14.9956C21.5029 15.5723 21.3198 16.111 21.0364 16.568M16.0037 16.7115L15.9704 21.8881C15.9699 21.967 16.0567 22.0154 16.1236 21.9735L18.4961 20.4844L20.8407 21.9664C20.907 22.0083 20.9935 21.9611 20.9941 21.8827L21.0364 16.568" stroke="#141B34" stroke-width="1.5"/>
</svg>
