<svg width="24" height="24" viewBox="0 0 24 24" fill="none" xmlns="http://www.w3.org/2000/svg">
<path d="M16.5 2.5H7.5C4.73858 2.5 2.5 4.73858 2.5 7.5V16.5C2.5 19.2614 4.73858 21.5 7.5 21.5H16.5C19.2614 21.5 21.5 19.2614 21.5 16.5V7.5C21.5 4.73858 19.2614 2.5 16.5 2.5Z" stroke="#141B34" stroke-width="1.5"/>
<path opacity="0.4" d="M14.9928 10.238C14.9497 9.65805 14.6215 8.25297 13.36 7.73384C11.7833 7.08493 9.70699 7.90152 9.51273 10.0049C9.42158 10.9918 9.93273 12.0266 10.6755 12.5378C11.358 13.0075 12.3936 12.9838 13.36 12.9838H7.99707M11.2367 12.9838C11.0549 13.6732 10.0573 15.6552 8.46745 16.4823H14.253C14.4768 16.4823 15.1083 16.5368 16.0025 15.9369" stroke="#141B34" stroke-width="1.5" stroke-linecap="round" stroke-linejoin="round"/>
</svg>
