<svg width="24" height="24" viewBox="0 0 24 24" fill="none" xmlns="http://www.w3.org/2000/svg">
<path opacity="0.4" d="M3.72368 13.75C4.26144 13.75 4.69737 13.3195 4.69737 12.7885L4.69738 11.7652C4.69737 11.4982 4.69754 10.8596 4.97816 10.3875C5.15109 10.0965 5.37251 9.85337 5.59996 9.72955C5.96647 9.53003 6.38666 9.41667 6.83333 9.41667C6.98046 9.41667 7.13864 9.42314 7.31624 9.43138L7.38206 9.43446C7.53697 9.44174 7.70556 9.44966 7.8737 9.45315C8.25379 9.46105 8.69733 9.44904 9.12548 9.33432C9.95945 9.11086 10.6109 8.45945 10.8343 7.62548C10.949 7.19733 10.961 6.75379 10.9532 6.3737C10.9497 6.20562 10.9417 6.03692 10.9345 5.88206L10.9314 5.81624C10.9231 5.63864 10.9167 5.48046 10.9167 5.33333C10.9167 4.86564 11.0409 4.42698 11.2583 4.04857C11.385 3.82798 11.6057 3.62609 11.9105 3.44878C12.3726 3.17987 12.926 3.17738 13.2642 3.17585C13.6023 3.17433 13.9591 3.17316 14.2572 3.17316C16.0914 3.17316 16.7582 3.18692 17.2614 3.36158C18.1337 3.66441 18.7997 4.29659 19.11 5.07103C19.1878 5.26511 19.2427 5.52002 19.2721 5.96153C19.3021 6.41159 19.3026 6.98607 19.3026 7.81394V12.7885C19.3026 13.3195 19.7386 13.75 20.2763 13.75C20.8141 13.75 21.25 13.3195 21.25 12.7885V7.78121C21.25 6.99374 21.25 6.35586 21.2153 5.83514C21.1795 5.29867 21.1039 4.82043 20.9208 4.36341C20.3922 3.04443 19.2841 2.02533 17.9072 1.54735C17.0482 1.24915 16.0155 1.24951 14.4607 1.25005L13.5134 1.25012L13.5 1.25L13.4649 1.25015C10.9565 1.25185 9.40174 1.28168 8.1118 1.72949C5.8915 2.50027 4.11806 4.13859 3.27491 6.24261C2.99393 6.94378 2.86942 7.69695 2.80918 8.60017C2.74999 9.48756 2.75 10.5838 2.75 11.9814V12.7885C2.75 13.3195 3.18593 13.75 3.72368 13.75Z" fill="#141B34"/>
<path fill-rule="evenodd" clip-rule="evenodd" d="M4.63137 15.25C4.64391 15.25 4.65642 15.25 4.66889 15.25H5.44814C6.68775 15.25 7.65924 16.2761 7.65924 17.5C7.65924 18.724 6.68775 19.75 5.44814 19.75H4.25001V22C4.25001 22.4142 3.91423 22.75 3.50001 22.75C3.0858 22.75 2.75001 22.4142 2.75001 22V17.2C2.75001 17.1877 2.75001 17.1755 2.75001 17.1632C2.74994 16.9127 2.74987 16.6572 2.77776 16.4443C2.80959 16.2012 2.88931 15.9036 3.13394 15.6524C3.38125 15.3985 3.67908 15.313 3.92505 15.279C4.13646 15.2498 4.38892 15.2499 4.63137 15.25ZM4.25001 18.25H5.44814C5.82241 18.25 6.15924 17.9329 6.15924 17.5C6.15924 17.0671 5.82241 16.75 5.44814 16.75H4.66889C4.52827 16.75 4.41832 16.7501 4.32404 16.7525C4.29886 16.7532 4.27616 16.754 4.25565 16.7549C4.25436 16.7811 4.25329 16.8107 4.25246 16.8445C4.25006 16.9422 4.25001 17.0559 4.25001 17.2V18.25Z" fill="#141B34"/>
<path fill-rule="evenodd" clip-rule="evenodd" d="M11.2212 15.25C11.2338 15.25 11.2463 15.25 11.2587 15.25H12.038C13.2776 15.25 14.2491 16.2761 14.2491 17.5C14.2491 18.724 13.2776 19.75 12.038 19.75H10.8399V22C10.8399 22.4142 10.5041 22.75 10.0899 22.75C9.67564 22.75 9.33986 22.4142 9.33986 22V17.2C9.33986 17.1877 9.33985 17.1755 9.33985 17.1632C9.33978 16.9127 9.33971 16.6572 9.3676 16.4443C9.39943 16.2012 9.47916 15.9036 9.72378 15.6524C9.97109 15.3985 10.2689 15.313 10.5149 15.279C10.7263 15.2498 10.9788 15.2499 11.2212 15.25ZM10.8399 18.25H12.038C12.4123 18.25 12.7491 17.9329 12.7491 17.5C12.7491 17.0671 12.4123 16.75 12.038 16.75H11.2587C11.1181 16.75 11.0082 16.7501 10.9139 16.7525C10.8887 16.7532 10.866 16.754 10.8455 16.7549C10.8442 16.7811 10.8431 16.8107 10.8423 16.8445C10.8399 16.9422 10.8399 17.0559 10.8399 17.2V18.25Z" fill="#141B34"/>
<path fill-rule="evenodd" clip-rule="evenodd" d="M15.9297 16C15.9297 15.5858 16.2655 15.25 16.6797 15.25H20.5006C20.9148 15.25 21.2506 15.5858 21.2506 16C21.2506 16.4142 20.9148 16.75 20.5006 16.75H19.3401V22C19.3401 22.4142 19.0043 22.75 18.5901 22.75C18.1759 22.75 17.8401 22.4142 17.8401 22V16.75H16.6797C16.2655 16.75 15.9297 16.4142 15.9297 16Z" fill="#141B34"/>
</svg>
