<svg width="24" height="24" viewBox="0 0 24 24" fill="none" xmlns="http://www.w3.org/2000/svg">
<path d="M20.2763 1.25C20.8141 1.25 21.25 1.68754 21.25 2.22727V13.0682H19.3026V3.20455L11.5132 3.20455L11.5132 10.0455H4.69737L4.69737 13.0682H2.75V8.66338L10.1362 1.25H20.2763Z" fill="#141B34"/>
<path fill-rule="evenodd" clip-rule="evenodd" d="M2.75 15.25H5.5389C6.77852 15.25 7.75 16.2761 7.75 17.5C7.75 18.7239 6.77852 19.75 5.5389 19.75H4.25V22.75H2.75V15.25ZM4.25 18.25H5.5389C5.91317 18.25 6.25 17.9329 6.25 17.5C6.25 17.0671 5.91317 16.75 5.5389 16.75H4.25V18.25ZM9.25 15.25H12.0377C13.2773 15.25 14.2488 16.2761 14.2488 17.5C14.2488 18.7239 13.2773 19.75 12.0377 19.75H10.75V22.75H9.25V15.25ZM10.75 18.25H12.0377C12.412 18.25 12.7488 17.9329 12.7488 17.5C12.7488 17.0671 12.412 16.75 12.0377 16.75H10.75V18.25ZM15.25 15.25H21.25V16.75H19V22.75H17.5V16.75H15.25V15.25Z" fill="#141B34"/>
</svg>
