<svg width="24" height="24" viewBox="0 0 24 24" fill="none" xmlns="http://www.w3.org/2000/svg">
<path opacity="0.4" fill-rule="evenodd" clip-rule="evenodd" d="M8 4H16C17.4142 4 18.1213 4 18.5607 4.43934C19 4.87868 19 5.58579 19 7V17C19 18.4142 19 19.1213 18.5607 19.5607C18.1213 20 17.4142 20 16 20H8C6.58579 20 5.87868 20 5.43934 19.5607C5 19.1213 5 18.4142 5 17V7C5 5.58579 5 4.87868 5.43934 4.43934C5.87868 4 6.58579 4 8 4ZM10.8578 7.6854C9.65816 8.50565 8.32566 9.41676 9.38664 11.3202C9.58726 11.6801 9.68757 11.8601 9.72092 11.9888C9.75428 12.1175 9.75428 12.2678 9.75428 12.5684V15.9776C9.75428 16.4596 9.75428 16.7005 9.90072 16.8503C10.0472 17 10.2829 17 10.7543 17H13.2454C13.7167 17 13.9523 17 14.0987 16.8503C14.2451 16.7007 14.2452 16.4598 14.2454 15.978L14.2469 12.5674C14.247 12.2673 14.2471 12.1172 14.2804 11.9887C14.3137 11.8602 14.4138 11.6804 14.614 11.3209C15.6741 9.41728 14.3408 8.50602 13.1405 7.68576C13.048 7.6225 12.9562 7.55977 12.8664 7.49718C12.3907 7.16572 12.1529 6.99998 11.9986 7C11.8444 7.00002 11.6067 7.16578 11.1311 7.4973C11.0415 7.55973 10.95 7.6223 10.8578 7.6854Z" fill="#141B34"/>
<path d="M16 4H8C6.58579 4 5.87868 4 5.43934 4.43934C5 4.87868 5 5.58579 5 7V17C5 18.4142 5 19.1213 5.43934 19.5607C5.87868 20 6.58579 20 8 20H16C17.4142 20 18.1213 20 18.5607 19.5607C19 19.1213 19 18.4142 19 17V7C19 5.58579 19 4.87868 18.5607 4.43934C18.1213 4 17.4142 4 16 4Z" stroke="#141B34" stroke-width="1.5" stroke-linecap="round" stroke-linejoin="round"/>
<path d="M9.38664 11.3202C8.24404 9.27033 9.87734 8.37134 11.1311 7.4973C11.6067 7.16578 11.8444 7.00002 11.9986 7C12.1529 6.99998 12.3907 7.16572 12.8664 7.49718C14.1208 8.37135 15.7559 9.27044 14.614 11.3209C14.4138 11.6804 14.3137 11.8602 14.2804 11.9887C14.2471 12.1172 14.247 12.2672 14.2469 12.5674L14.2454 15.978C14.2452 16.4598 14.2451 16.7007 14.0987 16.8503C13.9523 17 13.7167 17 13.2454 17H10.7543C10.2829 17 10.0472 17 9.90072 16.8503C9.75428 16.7005 9.75428 16.4596 9.75428 15.9776V12.5684C9.75428 12.2678 9.75428 12.1175 9.72092 11.9888C9.68757 11.8601 9.58726 11.6801 9.38664 11.3202Z" stroke="#141B34" stroke-width="1.5" stroke-linecap="round" stroke-linejoin="round"/>
<path d="M14 4V2" stroke="#141B34" stroke-width="1.5" stroke-linecap="round" stroke-linejoin="round"/>
<path d="M18 4V2" stroke="#141B34" stroke-width="1.5" stroke-linecap="round" stroke-linejoin="round"/>
<path d="M10 4V2" stroke="#141B34" stroke-width="1.5" stroke-linecap="round" stroke-linejoin="round"/>
<path d="M6 4V2" stroke="#141B34" stroke-width="1.5" stroke-linecap="round" stroke-linejoin="round"/>
<path d="M14 22V20" stroke="#141B34" stroke-width="1.5" stroke-linecap="round" stroke-linejoin="round"/>
<path d="M18 22V20" stroke="#141B34" stroke-width="1.5" stroke-linecap="round" stroke-linejoin="round"/>
<path d="M10 22V20" stroke="#141B34" stroke-width="1.5" stroke-linecap="round" stroke-linejoin="round"/>
<path d="M6 22V20" stroke="#141B34" stroke-width="1.5" stroke-linecap="round" stroke-linejoin="round"/>
</svg>
