<svg width="24" height="24" viewBox="0 0 24 24" fill="none" xmlns="http://www.w3.org/2000/svg">
<path fill-rule="evenodd" clip-rule="evenodd" d="M14.75 22.4998V20.7498H17.25V22.4998H18.75V20.7498H19C19.4142 20.7498 19.75 20.414 19.75 19.9998V3.99976C19.75 3.58554 19.4142 3.24976 19 3.24976H18.75V1.49976H17.25V3.24976H14.75V1.49976H13.25V3.24976H10.75V1.49976H9.25V3.24976H6.75V1.49976H5.25V3.24976H5C4.80109 3.24976 4.61032 3.32877 4.46967 3.46943C4.32902 3.61008 4.25 3.80084 4.25 3.99976V19.9998C4.25 20.414 4.58579 20.7498 5 20.7498H5.25V22.4998H6.75V20.7498H9.25V22.4998H10.75V20.7498H13.25V22.4998H14.75ZM10.8578 7.68515C9.65816 8.5054 8.32566 9.41652 9.38664 11.3199C9.58726 11.6798 9.68757 11.8598 9.72092 11.9885C9.75428 12.1172 9.75428 12.2675 9.75428 12.5681V16.9993L14.2454 16.9998L14.2469 12.5671C14.247 12.267 14.2471 12.1169 14.2804 11.9884C14.3137 11.8599 14.4138 11.6802 14.614 11.3206C15.6741 9.41704 14.3408 8.50577 13.1405 7.68552C13.048 7.62225 12.9562 7.55953 12.8664 7.49693L11.9986 6.99976L11.1311 7.49705C11.0415 7.55949 10.95 7.62205 10.8578 7.68515Z" fill="#141B34"/>
</svg>
