<svg width="24" height="24" viewBox="0 0 24 24" fill="none" xmlns="http://www.w3.org/2000/svg">
<path d="M18.9709 7H4.99512" stroke="#141B34" stroke-width="1.5"/>
<path d="M16.9739 7V9C16.9739 11.7614 14.7392 14 11.9826 14C9.22592 14 6.99121 11.7614 6.99121 9V7" stroke="#141B34" stroke-width="1.5"/>
<path d="M6.99121 8V5.95612C6.99121 4.61118 7.91111 3.36487 9.41454 2.6729L9.92815 2.43651C11.1926 1.8545 12.7725 1.8545 14.037 2.43651L14.5506 2.6729C16.054 3.36487 16.9739 4.61118 16.9739 5.95612V8" stroke="#141B34" stroke-width="1.5" stroke-linecap="round"/>
<path d="M8.98808 13.0014V16.0454M8.98808 16.0454L11.9818 18.0086L14.9741 15.9996M8.98808 16.0454L2.3279 17.9066C2.11213 17.9669 1.96289 18.1638 1.96289 18.3882V22.0014M14.9741 15.9996V12.9961M14.9741 15.9996L21.6005 17.9047C21.8145 17.9662 21.9619 18.1623 21.9619 18.3853V22.0014" stroke="#141B34" stroke-width="1.5"/>
</svg>
