<svg width="24" height="24" viewBox="0 0 24 24" fill="none" xmlns="http://www.w3.org/2000/svg">
<path fill-rule="evenodd" clip-rule="evenodd" d="M17.6287 18.543L14.8358 21.3359L16.25 22.7502L19.0429 19.9573L21.8358 22.7502L23.25 21.3359L20.4571 18.543L23.25 15.7502L21.8358 14.3359L19.0429 17.1288L16.25 14.3359L14.8358 15.7502L17.6287 18.543Z" fill="#141B34"/>
<path d="M1.49976 1.25C1.08554 1.25 0.749756 1.58579 0.749756 2V6.25H20.2498V2C20.2498 1.58579 19.914 1.25 19.4998 1.25H1.49976Z" fill="#141B34"/>
<path fill-rule="evenodd" clip-rule="evenodd" d="M20.2498 7.75H0.749756V20C0.749756 20.4142 1.08554 20.75 1.49976 20.75L13.3008 20.75L15.5075 18.5433L12.7146 15.7504L16.2501 12.2148L19.043 15.0077L20.2498 13.801V7.75ZM7.49976 13H5.49976V11.5H7.49976V13ZM13.4998 13H9.49976V11.5H13.4998V13ZM7.49976 17H5.49976V15.5H7.49976V17ZM11.4998 17H9.49976V15.5H11.4998V17Z" fill="#141B34"/>
</svg>
