<svg width="24" height="24" viewBox="0 0 24 24" fill="none" xmlns="http://www.w3.org/2000/svg">
<path d="M18.627 13.5542C19.3296 13.1486 20.1952 13.1486 20.8978 13.5542C21.1593 13.7053 21.4534 13.9999 21.7265 14.2735C22.0002 14.5467 22.2948 14.8407 22.4458 15.1023C22.8515 15.8049 22.8515 16.6705 22.4458 17.3731C22.2948 17.6347 22.06 17.869 21.7863 18.1421L18.4187 21.5097C17.9533 21.975 17.3914 22.1924 16.8866 22.3213C16.6346 22.3856 15.6899 22.5589 15.4603 22.5986L15.4602 22.5986C15.1542 22.6642 14.8481 22.7297 14.5948 22.7458C14.3159 22.7636 13.9114 22.7362 13.5876 22.4124C13.2638 22.0887 13.2365 21.6842 13.2542 21.4052C13.2703 21.152 13.3359 20.8458 13.4014 20.5398C13.4411 20.3101 13.6144 19.3654 13.6788 19.1134C13.8076 18.6086 14.0251 18.0467 14.4904 17.5814L17.858 14.2137C18.1311 13.94 18.3654 13.7053 18.627 13.5542Z" fill="#141B34"/>
<path fill-rule="evenodd" clip-rule="evenodd" d="M11.5572 1.25H11.4428H11.4428C9.25212 1.24999 7.53144 1.24998 6.18802 1.43059C4.81137 1.61568 3.71911 2.00272 2.86091 2.86091C2.00272 3.71911 1.61568 4.81137 1.43059 6.18802C1.40227 6.39867 1.38811 6.50399 1.43165 6.58807C1.45337 6.63001 1.48716 6.66865 1.52584 6.69577C1.60337 6.75012 1.7132 6.75012 1.93285 6.75012H21.0672C21.2868 6.75012 21.3966 6.75012 21.4742 6.69577C21.5128 6.66865 21.5466 6.63001 21.5683 6.58807C21.6119 6.50399 21.5977 6.39867 21.5694 6.18802C21.3843 4.81137 20.9973 3.71911 20.1391 2.86091C19.2809 2.00272 18.1886 1.61568 16.812 1.43059C15.4686 1.24998 13.7479 1.24999 11.5572 1.25H11.5572ZM21.7349 8.83105C21.7297 8.55822 21.7271 8.4218 21.6396 8.33596C21.552 8.25012 21.4144 8.25012 21.1391 8.25012H1.8609C1.5856 8.25012 1.44795 8.25012 1.36045 8.33596C1.27294 8.4218 1.27032 8.55822 1.26508 8.83105C1.24999 9.61693 1.24999 10.4849 1.25 11.4428V11.4428V11.5572V11.5572C1.24999 13.7479 1.24998 15.4686 1.43059 16.812C1.61568 18.1886 2.00272 19.2809 2.86091 20.1391C3.71911 20.9973 4.81137 21.3843 6.18802 21.5694C7.441 21.7379 9.29616 21.7492 11.3177 21.7499H11.3177H11.3177H11.3177C11.4369 21.75 11.4965 21.75 11.5431 21.7344C11.6307 21.7049 11.6902 21.6491 11.7252 21.5635C11.7438 21.5181 11.7482 21.4487 11.757 21.31C11.7803 20.9431 11.8666 20.5416 11.9249 20.2699L11.9284 20.2536C11.9748 19.9895 12.1465 19.0504 12.2251 18.7423C12.3859 18.1125 12.6944 17.2558 13.4295 16.5207L16.796 13.1542L16.841 13.1089C17.0767 12.8718 17.4379 12.5085 17.8767 12.2552C18.8245 11.708 20.0184 11.6463 21.0586 12.0036C21.2971 12.0855 21.4163 12.1265 21.4833 12.119C21.5976 12.1062 21.672 12.0532 21.7212 11.9492C21.75 11.8883 21.75 11.7779 21.75 11.5572V11.4425V11.4424V11.4423V11.4422C21.75 10.4846 21.75 9.61679 21.7349 8.83105ZM6 11.25C5.58579 11.25 5.25 11.5858 5.25 12C5.25 12.4142 5.58579 12.75 6 12.75H7C7.41421 12.75 7.75 12.4142 7.75 12C7.75 11.5858 7.41421 11.25 7 11.25H6ZM10 11.25C9.58579 11.25 9.25 11.5858 9.25 12C9.25 12.4142 9.58579 12.75 10 12.75H15C15.4142 12.75 15.75 12.4142 15.75 12C15.75 11.5858 15.4142 11.25 15 11.25H10ZM6 15.25C5.58579 15.25 5.25 15.5858 5.25 16C5.25 16.4142 5.58579 16.75 6 16.75H7C7.41421 16.75 7.75 16.4142 7.75 16C7.75 15.5858 7.41421 15.25 7 15.25H6ZM10 15.25C9.58579 15.25 9.25 15.5858 9.25 16C9.25 16.4142 9.58579 16.75 10 16.75H11.5C11.9142 16.75 12.25 16.4142 12.25 16C12.25 15.5858 11.9142 15.25 11.5 15.25H10Z" fill="#141B34"/>
</svg>
