<svg width="24" height="24" viewBox="0 0 24 24" fill="none" xmlns="http://www.w3.org/2000/svg">
<path d="M3.99823 10.501L3.99912 5.00073L7.5 5.00102M20 10.5008V5.00073L16.5 5.00102" stroke="#141B34" stroke-width="1.5" stroke-linejoin="round"/>
<path d="M22 10.501H18" stroke="#141B34" stroke-width="1.5" stroke-linejoin="round"/>
<path d="M6 10.501H2" stroke="#141B34" stroke-width="1.5" stroke-linejoin="round"/>
<path d="M7.5 3.49901H16.5V6.50098L14 7.49903L12 6.50098L10 7.49903L7.5 6.50098V3.49901Z" stroke="#141B34" stroke-width="1.5" stroke-linejoin="round"/>
<path d="M3.99805 20.5008L3.99893 15.0005L7.49982 15.0008M19.9998 20.5006V15.0005L16.4998 15.0008" stroke="#141B34" stroke-width="1.5" stroke-linejoin="round"/>
<path d="M22 20.501H18" stroke="#141B34" stroke-width="1.5" stroke-linejoin="round"/>
<path d="M6 20.501H2" stroke="#141B34" stroke-width="1.5" stroke-linejoin="round"/>
<path d="M7.5 13.499H16.5V16.501L14 17.499L12 16.501L10 17.499L7.5 16.501V13.499Z" stroke="#141B34" stroke-width="1.5" stroke-linejoin="round"/>
</svg>
