<svg width="24" height="24" viewBox="0 0 24 24" fill="none" xmlns="http://www.w3.org/2000/svg">
<path fill-rule="evenodd" clip-rule="evenodd" d="M7.43417 3.37525C7.45604 3.37525 7.47799 3.37525 7.5 3.37525C8.05229 3.37525 8.5 3.82296 8.5 4.37525C8.5 4.92753 8.05229 5.37525 7.5 5.37525C6.52893 5.37525 5.90122 5.37737 5.43871 5.43956C5.00497 5.49787 4.86902 5.59202 4.7929 5.66814C4.71677 5.74427 4.62263 5.88021 4.56431 6.31395C4.50213 6.77646 4.5 7.40417 4.5 8.37525V9.87525C4.5 10.4275 4.05229 10.8752 3.5 10.8752C2.94772 10.8752 2.5 10.4275 2.5 9.87525V8.37525C2.5 8.35323 2.5 8.33129 2.5 8.30942C2.49995 7.42293 2.49991 6.65912 2.58215 6.04746C2.67028 5.39194 2.86902 4.76359 3.37868 4.25393C3.88835 3.74427 4.5167 3.54552 5.17221 3.45739C5.78387 3.37515 6.54769 3.3752 7.43417 3.37525ZM18.5613 5.43956C18.0988 5.37737 17.4711 5.37525 16.5 5.37525C15.9477 5.37525 15.5 4.92753 15.5 4.37525C15.5 3.82296 15.9477 3.37525 16.5 3.37525L16.5658 3.37525C17.4523 3.3752 18.2161 3.37515 18.8278 3.45739C19.4833 3.54552 20.1117 3.74427 20.6213 4.25393C21.131 4.76359 21.3297 5.39194 21.4179 6.04746C21.5001 6.65912 21.5001 7.42295 21.5 8.30944L21.5 9.87525C21.5 10.4275 21.0523 10.8752 20.5 10.8752C19.9477 10.8752 19.5 10.4275 19.5 9.87525V8.37525C19.5 7.40417 19.4979 6.77646 19.4357 6.31395C19.3774 5.88021 19.2832 5.74427 19.2071 5.66814C19.131 5.59202 18.995 5.49787 18.5613 5.43956Z" fill="#141B34"/>
<path fill-rule="evenodd" clip-rule="evenodd" d="M23 9.875C23 9.32272 22.5523 8.875 22 8.875H19C18.4477 8.875 18 9.32272 18 9.875C18 10.4273 18.4477 10.875 19 10.875H22C22.5523 10.875 23 10.4273 23 9.875Z" fill="#141B34"/>
<path fill-rule="evenodd" clip-rule="evenodd" d="M6 9.875C6 9.32272 5.55228 8.875 5 8.875H2C1.44772 8.875 1 9.32272 1 9.875C1 10.4273 1.44772 10.875 2 10.875H5C5.55228 10.875 6 10.4273 6 9.875Z" fill="#141B34"/>
<path d="M9.20461 2.62997H14.796C15.013 2.62473 15.3304 2.61705 15.6041 2.64975C15.9895 2.69579 16.5 2.83546 16.8652 3.2972C17.3068 3.85559 17.2504 4.62876 17.2503 5.29867C17.2503 6.06247 16.908 6.59061 16.198 6.88192L15.0378 7.35812C14.7128 7.49274 14.3571 7.64006 13.9723 7.62365C13.409 7.59962 12.9447 7.30674 12.6637 7.12956C12.3178 6.91343 12.1246 6.81827 12.0003 6.81827C11.876 6.81827 11.6828 6.91343 11.3369 7.12956C11.056 7.30674 10.5916 7.59962 10.0283 7.62365C9.64358 7.64006 9.28785 7.49274 8.9628 7.35812L7.80267 6.88192C7.09267 6.59062 6.75032 6.06247 6.75032 5.29867C6.75032 4.6298 6.69454 3.8547 7.13543 3.2972C7.50059 2.83546 8.01119 2.69579 8.39653 2.64975C8.67021 2.61705 8.9876 2.62473 9.20461 2.62997Z" fill="#141B34"/>
<path d="M9.2043 13.1222H14.7957C15.0127 13.1169 15.3301 13.1092 15.6038 13.1419C15.9891 13.188 16.4997 13.3276 16.8649 13.7894C17.099 14.0855 17.1816 14.4183 17.2172 14.73C17.2574 15.0815 17.25 15.4378 17.25 15.7909C17.25 16.5547 16.9077 17.0828 16.1977 17.3741L15.0375 17.8503C14.7125 17.9849 14.3567 18.1322 13.972 18.1158C13.4087 18.0918 12.9443 17.7989 12.6634 17.6217C12.3175 17.4056 12.1243 17.3105 12 17.3105C11.8757 17.3105 11.6825 17.4056 11.3366 17.6217C11.0557 17.7989 10.5913 18.0918 10.028 18.1158C9.64326 18.1322 9.28754 17.9849 8.96248 17.8503L7.80236 17.3741C7.09236 17.0828 6.75 16.5547 6.75 15.7909C6.75 15.3907 6.74886 15.0268 6.78278 14.73C6.81841 14.4183 6.90098 14.0855 7.13512 13.7894C7.50028 13.3276 8.01087 13.188 8.39622 13.1419C8.66989 13.1092 8.98729 13.1169 9.2043 13.1222Z" fill="#141B34"/>
<path d="M7.34824 13.7893L7.41407 13.7893C7.96635 13.7893 8.41407 14.237 8.41407 14.7893C8.41407 15.3416 7.96635 15.7893 7.41407 15.7893C6.44299 15.7893 5.81528 15.7914 5.35277 15.8536C4.91903 15.9119 4.78309 16.0061 4.70696 16.0822C4.63084 16.1583 4.53669 16.2943 4.47837 16.728C4.41619 17.1905 4.41407 17.8182 4.41407 18.7893V20.2893C4.41407 20.8416 3.96635 21.2893 3.41407 21.2893C2.86178 21.2893 2.41407 20.8416 2.41407 20.2893V18.7893L2.41406 18.7235C2.41402 17.837 2.41397 17.0732 2.49621 16.4615C2.58434 15.806 2.78309 15.1777 3.29275 14.668C3.80241 14.1583 4.43076 13.9596 5.08628 13.8715C5.69794 13.7892 6.46175 13.7893 7.34824 13.7893Z" fill="#141B34"/>
<path d="M18.4754 15.8536C18.0129 15.7914 17.3851 15.7893 16.4141 15.7893C15.8618 15.7893 15.4141 15.3416 15.4141 14.7893C15.4141 14.237 15.8618 13.7893 16.4141 13.7893L16.4799 13.7893C17.3664 13.7893 18.1302 13.7892 18.7419 13.8715C19.3974 13.9596 20.0257 14.1583 20.5354 14.668C21.045 15.1777 21.2438 15.806 21.3319 16.4615C21.4142 17.0732 21.4141 17.837 21.4141 18.7235L21.4141 20.2893C21.4141 20.8416 20.9664 21.2893 20.4141 21.2893C19.8618 21.2893 19.4141 20.8416 19.4141 20.2893V18.7893C19.4141 17.8182 19.4119 17.1905 19.3498 16.728C19.2914 16.2943 19.1973 16.1583 19.1212 16.0822C19.045 16.0061 18.9091 15.9119 18.4754 15.8536Z" fill="#141B34"/>
<path fill-rule="evenodd" clip-rule="evenodd" d="M23 20.3752C23 19.823 22.5523 19.3752 22 19.3752H19C18.4477 19.3752 18 19.823 18 20.3752C18 20.9275 18.4477 21.3752 19 21.3752H22C22.5523 21.3752 23 20.9275 23 20.3752Z" fill="#141B34"/>
<path fill-rule="evenodd" clip-rule="evenodd" d="M6 20.3752C6 19.823 5.55228 19.3752 5 19.3752H2C1.44772 19.3752 1 19.823 1 20.3752C1 20.9275 1.44772 21.3752 2 21.3752H5C5.55228 21.3752 6 20.9275 6 20.3752Z" fill="#141B34"/>
</svg>
