<svg width="24" height="24" viewBox="0 0 24 24" fill="none" xmlns="http://www.w3.org/2000/svg">
<path opacity="0.4" d="M9.20461 2.62997H14.796C15.013 2.62473 15.3304 2.61705 15.6041 2.64975C15.9895 2.69579 16.5 2.83546 16.8652 3.2972C17.3068 3.85559 17.2504 4.62876 17.2503 5.29867C17.2503 6.06247 16.908 6.59061 16.198 6.88192L15.0378 7.35812C14.7128 7.49274 14.3571 7.64006 13.9723 7.62365C13.409 7.59962 12.9447 7.30674 12.6637 7.12956C12.3178 6.91343 12.1246 6.81827 12.0003 6.81827C11.876 6.81827 11.6828 6.91343 11.3369 7.12956C11.056 7.30674 10.5916 7.59962 10.0283 7.62365C9.64358 7.64006 9.28785 7.49274 8.9628 7.35812L7.80267 6.88192C7.09267 6.59062 6.75032 6.06247 6.75032 5.29867C6.75032 4.6298 6.69454 3.8547 7.13543 3.2972C7.50059 2.83546 8.01119 2.69579 8.39653 2.64975C8.67021 2.61705 8.9876 2.62473 9.20461 2.62997Z" fill="#141B34"/>
<path fill-rule="evenodd" clip-rule="evenodd" d="M7.07786 3.37549C6.34187 3.37677 5.70033 3.38644 5.17221 3.45744C4.5167 3.54557 3.88835 3.74432 3.37868 4.25398C2.86902 4.76364 2.67028 5.39199 2.58215 6.04751C2.49991 6.65917 2.49995 7.42298 2.5 8.30947L2.5 8.3753V8.8753H2C1.44772 8.8753 1 9.32301 1 9.8753C1 10.4276 1.44772 10.8753 2 10.8753H3.49688L3.5 10.8753L3.50313 10.8753H5C5.55228 10.8753 6 10.4276 6 9.8753C6 9.32301 5.55228 8.8753 5 8.8753H4.5L4.5 8.3753C4.5 7.40422 4.50213 6.77651 4.56431 6.314C4.62263 5.88027 4.71677 5.74432 4.7929 5.66819C4.86902 5.59207 5.00497 5.49792 5.43871 5.43961C5.76984 5.39509 6.18566 5.38135 6.75155 5.37714C6.75073 5.35135 6.75032 5.32527 6.75032 5.29892C6.75032 5.23212 6.74976 5.16426 6.7492 5.09566C6.74439 4.5089 6.73914 3.86821 7.07786 3.37549ZM17.2491 5.37715C17.8147 5.38136 18.2303 5.3951 18.5613 5.43961C18.995 5.49792 19.131 5.59207 19.2071 5.66819C19.2832 5.74432 19.3774 5.88027 19.4357 6.314C19.4979 6.77651 19.5 7.40422 19.5 8.3753V8.8753L19 8.8753C18.4477 8.8753 18 9.32301 18 9.8753C18 10.4276 18.4477 10.8753 19 10.8753L20.4969 10.8753L20.5 10.8753L20.5031 10.8753H22C22.5523 10.8753 23 10.4276 23 9.8753C23 9.32301 22.5523 8.8753 22 8.8753H21.5L21.5 8.30949C21.5001 7.423 21.5001 6.65917 21.4179 6.04751C21.3297 5.39199 21.131 4.76364 20.6213 4.25398C20.1117 3.74432 19.4833 3.54557 18.8278 3.45744C18.2998 3.38646 17.6585 3.37678 16.9228 3.37549C17.2618 3.86832 17.2564 4.507 17.2515 5.09379C17.2509 5.16299 17.2503 5.23148 17.2503 5.29892C17.2503 5.32527 17.2499 5.35135 17.2491 5.37715Z" fill="#141B34"/>
<path opacity="0.4" d="M9.2043 13.1222H14.7957C15.0127 13.1169 15.3301 13.1092 15.6038 13.1419C15.9891 13.188 16.4997 13.3276 16.8649 13.7894C17.099 14.0855 17.1816 14.4183 17.2172 14.73C17.2574 15.0815 17.25 15.4378 17.25 15.7909C17.25 16.5547 16.9077 17.0828 16.1977 17.3741L15.0375 17.8503C14.7125 17.9849 14.3567 18.1322 13.972 18.1158C13.4087 18.0918 12.9443 17.7989 12.6634 17.6217C12.3175 17.4056 12.1243 17.3105 12 17.3105C11.8757 17.3105 11.6825 17.4056 11.3366 17.6217C11.0557 17.7989 10.5913 18.0918 10.028 18.1158C9.64326 18.1322 9.28754 17.9849 8.96248 17.8503L7.80236 17.3741C7.09236 17.0828 6.75 16.5547 6.75 15.7909C6.75 15.3907 6.74886 15.0268 6.78278 14.73C6.81841 14.4183 6.90098 14.0855 7.13512 13.7894C7.50028 13.3276 8.01087 13.188 8.39622 13.1419C8.66989 13.1092 8.98729 13.1169 9.2043 13.1222Z" fill="#141B34"/>
<path fill-rule="evenodd" clip-rule="evenodd" d="M7.13518 13.7893C6.33897 13.7898 5.64838 13.7958 5.08628 13.8714C4.43076 13.9596 3.80241 14.1583 3.29275 14.668C2.78309 15.1776 2.58434 15.806 2.49621 16.4615C2.41397 17.0731 2.41402 17.837 2.41406 18.7234L2.41407 18.7893V19.3752H2C1.44772 19.3752 1 19.8229 1 20.3752C1 20.9275 1.44772 21.3752 2 21.3752H5C5.55228 21.3752 6 20.9275 6 20.3752C6 19.8229 5.55228 19.3752 5 19.3752H4.41407L4.41407 18.7893C4.41407 17.8182 4.41619 17.1905 4.47837 16.728C4.53669 16.2942 4.63084 16.1583 4.70696 16.0822C4.78309 16.006 4.91903 15.9119 5.35277 15.8536C5.70015 15.8069 6.14074 15.7941 6.75 15.7906L6.75 15.7528C6.74997 15.3676 6.74994 15.0174 6.78278 14.73C6.81841 14.4183 6.90098 14.0855 7.13512 13.7894C7.13514 13.7894 7.13516 13.7893 7.13518 13.7893ZM17.25 15.7919C17.7716 15.7968 18.1615 15.8114 18.4754 15.8536C18.9091 15.9119 19.045 16.006 19.1212 16.0822C19.1973 16.1583 19.2914 16.2942 19.3498 16.728C19.4119 17.1905 19.4141 17.8182 19.4141 18.7893V19.3752L19 19.3752C18.4477 19.3752 18 19.8229 18 20.3752C18 20.9275 18.4477 21.3752 19 21.3752L22 21.3752C22.5523 21.3752 23 20.9275 23 20.3752C23 19.8229 22.5523 19.3752 22 19.3752H21.4141L21.4141 18.7235C21.4141 17.837 21.4142 17.0732 21.3319 16.4615C21.2438 15.806 21.045 15.1776 20.5354 14.668C20.0257 14.1583 19.3974 13.9596 18.7419 13.8714C18.2206 13.8013 17.5889 13.791 16.865 13.7895C17.0991 14.0855 17.1816 14.4184 17.2172 14.73C17.252 15.0344 17.2511 15.3424 17.2503 15.6489C17.2501 15.6962 17.25 15.7436 17.25 15.7909C17.25 15.7912 17.25 15.7915 17.25 15.7919Z" fill="#141B34"/>
</svg>
