<svg width="24" height="24" viewBox="0 0 24 24" fill="none" xmlns="http://www.w3.org/2000/svg">
<path d="M6.24953 5.00049C6.24953 2.92942 7.92846 1.25049 9.99953 1.25049C12.0706 1.25049 13.7495 2.92942 13.7495 5.00049C13.7495 5.08476 13.7467 5.16845 13.7412 5.25145L18.7486 5.25144V10.2588C18.8316 10.2533 18.9153 10.2505 18.9995 10.2505C21.0706 10.2505 22.7495 11.9294 22.7495 14.0005C22.7495 16.0716 21.0706 17.7505 18.9995 17.7505C18.9153 17.7505 18.8316 17.7477 18.7486 17.7422V22.7495H11.769L12.1219 21.7498C12.2044 21.5164 12.2495 21.2645 12.2495 21.0005C12.2495 19.7578 11.2422 18.7505 9.99953 18.7505C8.75688 18.7505 7.74953 19.7578 7.74953 21.0005C7.74953 21.2645 7.7947 21.5164 7.87711 21.7498L8.23007 22.7495H1.25076L1.25044 15.7699L2.25018 16.1229C2.4836 16.2053 2.73548 16.2505 2.99953 16.2505C4.24217 16.2505 5.24953 15.2431 5.24953 14.0005C5.24953 12.7578 4.24217 11.7505 2.99953 11.7505C2.73548 11.7505 2.4836 11.7957 2.25018 11.8781L1.25037 12.2311L1.25115 5.25144H6.25782C6.25232 5.16845 6.24953 5.08476 6.24953 5.00049Z" fill="#141B34"/>
</svg>
