<svg width="24" height="24" viewBox="0 0 24 24" fill="none" xmlns="http://www.w3.org/2000/svg">
<path d="M17.3981 22.2501C20.287 22.2501 21.25 19.9276 21.25 17.0626C20.287 18.0997 17.6171 20.2695 16.4352 16.025C14.9907 10.8376 10.75 11.75 8.25 14.25C12.1019 14.25 12.6327 15.1474 13.5463 18.1001C14.5093 21.2125 15.9537 22.2501 17.3981 22.2501Z" fill="#141B34"/>
<path d="M15.8742 12.4144C15.9564 11.9607 16 11.4869 16 10.9995C16 7.6858 13.9853 4.99951 11.5 4.99951C9.01472 4.99951 7 7.6858 7 10.9995C7 14.3132 9.01472 16.9995 11.5 16.9995C11.6117 16.9995 11.7224 16.9941 11.832 16.9834C11.9848 17.3421 12.1501 17.8197 12.3512 18.4695C12.5382 19.0741 12.7474 19.6236 12.9789 20.1186C12.4988 20.2046 12.0047 20.2495 11.5 20.2495C6.62532 20.2495 2.75 16.0647 2.75 10.9995C2.75 5.93436 6.62532 1.74951 11.5 1.74951C16.3747 1.74951 20.25 5.93436 20.25 10.9995C20.25 13.2632 19.476 15.3511 18.1846 16.9682C18.0213 16.7392 17.8214 16.3469 17.6384 15.6896C17.253 14.3054 16.6618 13.2074 15.8742 12.4144Z" fill="#141B34"/>
</svg>
