<svg width="24" height="24" viewBox="0 0 24 24" fill="none" xmlns="http://www.w3.org/2000/svg">
<path d="M5.94797 12.75C5.0495 12.75 4.30029 12.7501 3.70552 12.6701C3.07772 12.5857 2.51092 12.4 2.05545 11.9445C1.59998 11.4891 1.41431 10.9223 1.32991 10.2945C1.24994 9.6997 1.24997 8.95049 1.25 8.05202L1.25 8.05199L1.25 7.948L1.25 7.94797C1.24997 7.0495 1.24994 6.30029 1.32991 5.70552C1.41431 5.07772 1.59998 4.51092 2.05546 4.05545C2.51093 3.59998 3.07772 3.41431 3.70552 3.32991C4.30029 3.24994 5.04951 3.24997 5.94797 3.25L5.948 3.25L6.05199 3.25L6.05202 3.25C6.95049 3.24997 7.6997 3.24994 8.29448 3.32991C8.92227 3.41431 9.48907 3.59998 9.94454 4.05545C10.4 4.51092 10.5857 5.07772 10.6701 5.70552C10.7501 6.30029 10.75 7.0495 10.75 7.94797L10.75 7.948L10.75 8.052L10.75 8.05203C10.75 8.95049 10.7501 9.6997 10.6701 10.2945C10.5857 10.9223 10.4 11.4891 9.94454 11.9445C9.48907 12.4 8.92227 12.5857 8.29448 12.6701C7.6997 12.7501 6.95049 12.75 6.05203 12.75L6.052 12.75L5.948 12.75L5.94797 12.75Z" fill="#141B34"/>
<path fill-rule="evenodd" clip-rule="evenodd" d="M2.79529 20.0473C2.63097 19.52 2.9252 18.9593 3.45247 18.795C6.56014 17.8265 8.75 15.0747 8.75 11.8871L8.75 7.74973C8.75 7.19745 9.19772 6.74973 9.75 6.74973C10.3023 6.74973 10.75 7.19745 10.75 7.74973L10.75 11.8871C10.75 16.0334 7.90844 19.5012 4.04753 20.7044C3.52025 20.8688 2.95961 20.5745 2.79529 20.0473Z" fill="#141B34"/>
<path d="M17.948 12.75C17.0495 12.75 16.3003 12.7501 15.7055 12.6701C15.0777 12.5857 14.5109 12.4 14.0555 11.9445C13.6 11.4891 13.4143 10.9223 13.3299 10.2945C13.2499 9.6997 13.25 8.95049 13.25 8.05202L13.25 8.05199L13.25 7.948L13.25 7.94797C13.25 7.0495 13.2499 6.30029 13.3299 5.70552C13.4143 5.07772 13.6 4.51092 14.0555 4.05545C14.5109 3.59998 15.0777 3.41431 15.7055 3.32991C16.3003 3.24994 17.0495 3.24997 17.948 3.25L17.948 3.25L18.052 3.25L18.052 3.25C18.9505 3.24997 19.6997 3.24994 20.2945 3.32991C20.9223 3.41431 21.4891 3.59998 21.9445 4.05545C22.4 4.51092 22.5857 5.07772 22.6701 5.70552C22.7501 6.30029 22.75 7.0495 22.75 7.94797L22.75 7.948L22.75 8.052L22.75 8.05203C22.75 8.95049 22.7501 9.6997 22.6701 10.2945C22.5857 10.9223 22.4 11.4891 21.9445 11.9445C21.4891 12.4 20.9223 12.5857 20.2945 12.6701C19.6997 12.7501 18.9505 12.75 18.052 12.75L18.052 12.75L17.948 12.75L17.948 12.75Z" fill="#141B34"/>
<path fill-rule="evenodd" clip-rule="evenodd" d="M14.7953 20.0473C14.631 19.52 14.9252 18.9593 15.4525 18.795C18.5601 17.8265 20.75 15.0747 20.75 11.8871L20.75 7.74973C20.75 7.19745 21.1977 6.74973 21.75 6.74973C22.3023 6.74973 22.75 7.19745 22.75 7.74973L22.75 11.8871C22.75 16.0334 19.9084 19.5012 16.0475 20.7044C15.5203 20.8688 14.9596 20.5745 14.7953 20.0473Z" fill="#141B34"/>
</svg>
