<svg width="24" height="24" viewBox="0 0 24 24" fill="none" xmlns="http://www.w3.org/2000/svg">
<path opacity="0.4" fill-rule="evenodd" clip-rule="evenodd" d="M6.25 23C4.317 23 2.75 21.433 2.75 19.5L2.75 5.5C2.75 3.15279 4.65279 1.25 7 1.25H17C19.3472 1.25 21.25 3.15279 21.25 5.5L21.25 17C21.25 17.5523 20.8023 18 20.25 18C19.4216 18 18.75 18.6716 18.75 19.5C18.75 20.3284 19.4216 21 20.25 21C20.8023 21 21.25 21.4477 21.25 22C21.25 22.5523 20.8023 23 20.25 23L6.25 23ZM16.75 19.5C16.75 18.9632 16.8708 18.4546 17.0868 18H6.25C5.42157 18 4.75 18.6716 4.75 19.5C4.75 20.3284 5.42157 21 6.25 21H17.0868C16.8708 20.5454 16.75 20.0368 16.75 19.5Z" fill="#141B34"/>
<path d="M13.5065 6.216C13.4141 6.216 13.3255 6.1793 13.2602 6.11398L12.2483 5.10202C12.1122 4.96599 11.8917 4.96599 11.7557 5.10202L10.7437 6.11398C10.6784 6.1793 10.5898 6.216 10.4974 6.216H9.06627C8.8739 6.216 8.71795 6.37195 8.71795 6.56432V7.99544C8.71795 8.08782 8.68125 8.17642 8.61593 8.24174L7.60397 9.2537C7.46795 9.38973 7.46795 9.61027 7.60397 9.7463L8.61593 10.7583C8.68125 10.8236 8.71795 10.9122 8.71795 11.0046V12.4357C8.71795 12.6281 8.8739 12.784 9.06627 12.784H10.4974C10.5898 12.784 10.6784 12.8207 10.7437 12.886L11.7557 13.898C11.8917 14.034 12.1122 14.034 12.2483 13.898L13.2602 12.886C13.3255 12.8207 13.4141 12.784 13.5065 12.784H14.9376C15.13 12.784 15.286 12.6281 15.286 12.4357V11.0046C15.286 10.9122 15.3227 10.8236 15.388 10.7583L16.3999 9.7463C16.536 9.61027 16.536 9.38973 16.3999 9.2537L15.388 8.24174C15.3227 8.17642 15.286 8.08782 15.286 7.99544V6.56432C15.286 6.37195 15.13 6.216 14.9376 6.216H13.5065Z" fill="#141B34"/>
</svg>
