<svg width="24" height="24" viewBox="0 0 24 24" fill="none" xmlns="http://www.w3.org/2000/svg">
<path opacity="0.4" d="M6.13162 4.24572C7.46793 2.91809 9.53207 2.91809 10.8684 4.24572C11.8525 5.22343 13.0607 6.5734 14.0272 8.12425C14.9888 9.66741 15.75 11.4716 15.75 13.3424C15.75 16.9566 13.0302 20.75 8.5 20.75C3.96978 20.75 1.25 16.9566 1.25 13.3424C1.25 11.4716 2.01121 9.66741 2.97285 8.12425C3.93928 6.5734 5.14752 5.22343 6.13162 4.24572Z" fill="#141B34"/>
<path fill-rule="evenodd" clip-rule="evenodd" d="M16.6928 5.6681C16.0706 5.03656 15.1548 5.03656 14.5326 5.6681C14.1597 6.04653 13.5571 6.04453 13.1867 5.66362C12.8163 5.28271 12.8182 4.66713 13.1911 4.28869C14.5556 2.90377 16.6698 2.90377 18.0343 4.28869C18.9781 5.24668 20.1417 6.57395 21.0746 8.10337C22.0014 9.62281 22.7502 11.4224 22.7502 13.3051C22.7502 16.9266 20.0799 20.75 15.6127 20.75C15.0871 20.75 14.661 20.3147 14.661 19.7778C14.661 19.2408 15.0871 18.8056 15.6127 18.8056C18.8322 18.8056 20.8468 16.0651 20.8468 13.3051C20.8468 11.9335 20.2926 10.498 19.4592 9.13174C18.6319 7.77547 17.578 6.56655 16.6928 5.6681Z" fill="#141B34"/>
</svg>
