<svg width="24" height="24" viewBox="0 0 24 24" fill="none" xmlns="http://www.w3.org/2000/svg">
<path d="M18.9 4.9L17.5 2.5L16.1 4.9L13.5 5.55573L15.3 7.5L14.6279 10.5L17.5 9.3L20.3721 10.5L19.7 7.5L21.5 5.55573L18.9 4.9Z" fill="#141B34"/>
<path d="M2.5 11.8049C2.5 17.1594 6.84065 21.5 12.1951 21.5C16.601 21.5 20.3204 18.5611 21.5 14.5367C20.0791 15.5691 18.3306 16.1779 16.44 16.1779C11.6804 16.1779 7.82208 12.3196 7.82208 7.56005C7.82208 5.66937 8.43094 3.9209 9.46326 2.5C5.4389 3.67959 2.5 7.39904 2.5 11.8049Z" fill="#141B34"/>
</svg>
