<svg width="24" height="24" viewBox="0 0 24 24" fill="none" xmlns="http://www.w3.org/2000/svg">
<path d="M3.72368 13.7502C4.26144 13.7502 4.69737 13.3198 4.69737 12.7887L4.69738 11.7654C4.69737 11.4984 4.69754 10.8599 4.97816 10.3877C5.15109 10.0967 5.37251 9.85362 5.59996 9.7298C5.96647 9.53027 6.38666 9.41691 6.83333 9.41691C6.98046 9.41691 7.13864 9.42338 7.31624 9.43162L7.38206 9.4347C7.53697 9.44198 7.70556 9.44991 7.8737 9.4534C8.25379 9.46129 8.69733 9.44929 9.12548 9.33456C9.95945 9.1111 10.6109 8.4597 10.8343 7.62572C10.949 7.19758 10.961 6.75404 10.9532 6.37394C10.9497 6.20587 10.9417 6.03717 10.9345 5.8823L10.9314 5.81648C10.9231 5.63889 10.9167 5.48071 10.9167 5.33358C10.9167 4.86589 11.0409 4.42722 11.2583 4.04881C11.385 3.82822 11.6057 3.62634 11.9105 3.44902C12.3726 3.18012 12.926 3.17762 13.2642 3.1761C13.6023 3.17457 13.9591 3.1734 14.2572 3.1734C16.0914 3.1734 16.7582 3.18716 17.2614 3.36183C18.1337 3.66466 18.7997 4.29683 19.11 5.07128C19.1878 5.26535 19.2427 5.52026 19.2721 5.96177C19.3021 6.41184 19.3026 6.98631 19.3026 7.81418V12.7887C19.3026 13.3198 19.7386 13.7502 20.2763 13.7502C20.8141 13.7502 21.25 13.3198 21.25 12.7887V7.78145C21.25 6.99398 21.25 6.3561 21.2153 5.83538C21.1795 5.29891 21.1039 4.82067 20.9208 4.36365C20.3922 3.04467 19.2841 2.02558 17.9072 1.5476C17.0482 1.2494 16.0155 1.24975 14.4607 1.25029L13.5134 1.25036L13.5 1.25024L13.4649 1.25039C10.9565 1.25209 9.40174 1.28193 8.1118 1.72973C5.8915 2.50051 4.11806 4.13884 3.27491 6.24285C2.99393 6.94403 2.86942 7.6972 2.80918 8.60041C2.74999 9.48781 2.75 10.5841 2.75 11.9816V12.7887C2.75 13.3198 3.18593 13.7502 3.72368 13.7502Z" fill="#141B34"/>
<path fill-rule="evenodd" clip-rule="evenodd" d="M4.26411 16.751C4.25376 16.8559 4.25 16.9972 4.25 17.2001V18.8499H5.53453C5.54885 18.8499 5.64816 18.8417 5.77701 18.6518C5.90306 18.4659 6.00525 18.1671 6.00525 17.8001C6.00525 17.4331 5.90306 17.1342 5.77701 16.9484C5.64816 16.7584 5.54885 16.7502 5.53453 16.7502H4.31381C4.29559 16.7502 4.27906 16.7505 4.26411 16.751ZM4.25 20.3499V21.9997C4.25 22.4139 3.91421 22.7497 3.5 22.7497C3.08579 22.7497 2.75 22.4139 2.75 21.9997V17.2001C2.75 16.9793 2.75345 16.7567 2.77638 16.5565C2.79891 16.3598 2.84636 16.12 2.97534 15.8961C3.29356 15.3439 3.86442 15.2502 4.31381 15.2502H5.53453C6.1944 15.2502 6.70545 15.645 7.01841 16.1064C7.33418 16.572 7.50525 17.173 7.50525 17.8001C7.50525 18.4271 7.33418 19.0282 7.01841 19.4937C6.87719 19.702 6.69563 19.8966 6.47827 20.0475L7.05861 21.7588C7.19164 22.1511 6.98148 22.577 6.58921 22.71C6.19694 22.843 5.7711 22.6328 5.63807 22.2406L4.99692 20.3499H4.25Z" fill="#141B34"/>
<path fill-rule="evenodd" clip-rule="evenodd" d="M10.3589 15.583C10.5711 15.3631 10.8535 15.2502 11.1597 15.2502C11.466 15.2502 11.7483 15.3631 11.9606 15.583C12.1466 15.7755 12.2321 16.0027 12.2775 16.1587L13.9144 21.7904C14.0301 22.1881 13.8013 22.6043 13.4036 22.7199C13.0058 22.8355 12.5897 22.6068 12.4741 22.209L12.0499 20.7499H10.2695L9.84539 22.209C9.72977 22.6068 9.31361 22.8355 8.91585 22.7199C8.5181 22.6043 8.28939 22.1881 8.405 21.7904L10.042 16.1587C10.0873 16.0027 10.1729 15.7755 10.3589 15.583ZM10.7055 19.2499H11.6139L11.1597 17.6873L10.7055 19.2499Z" fill="#141B34"/>
<path fill-rule="evenodd" clip-rule="evenodd" d="M15.4375 15.2529C15.8503 15.2184 16.2129 15.525 16.2474 15.9378L16.5924 20.0617L17.104 19.4222C17.1085 19.4166 17.1132 19.4107 17.1181 19.4045C17.176 19.332 17.2618 19.2244 17.3509 19.1408C17.4623 19.0364 17.6802 18.8704 18.002 18.8704C18.3238 18.8704 18.5417 19.0364 18.6531 19.1408C18.7422 19.2244 18.828 19.332 18.8859 19.4045C18.8908 19.4107 18.8955 19.4166 18.9 19.4222L19.4105 20.0603L19.7526 15.9382C19.7869 15.5254 20.1493 15.2186 20.5621 15.2529C20.9749 15.2871 21.2817 15.6495 21.2475 16.0623L20.8326 21.0607C20.8316 21.0726 20.8306 21.0845 20.8296 21.0966C20.8148 21.2758 20.7978 21.482 20.7609 21.6456C20.7295 21.7852 20.6118 22.2421 20.1213 22.3916C19.6309 22.5412 19.2783 22.2277 19.1743 22.1294C19.0524 22.0142 18.9232 21.8526 18.811 21.7121C18.8034 21.7026 18.7959 21.6933 18.7885 21.684L18.002 20.7009L17.2149 21.6847C17.2075 21.694 17.2 21.7034 17.1924 21.7128C17.0803 21.8532 16.9512 22.0147 16.8294 22.1299C16.7253 22.2282 16.3729 22.5414 15.8827 22.3921C15.3924 22.2428 15.2744 21.7863 15.2429 21.6467C15.2059 21.4832 15.1888 21.2771 15.1739 21.098C15.1729 21.086 15.1719 21.074 15.1709 21.0622L14.7527 16.0628C14.7181 15.65 15.0247 15.2874 15.4375 15.2529Z" fill="#141B34"/>
</svg>
