<svg width="24" height="24" viewBox="0 0 24 24" fill="none" xmlns="http://www.w3.org/2000/svg">
<path opacity="0.4" fill-rule="evenodd" clip-rule="evenodd" d="M21.2313 4.29059C21.2313 3.75128 21.2313 3.48162 21.0619 3.39973C20.8924 3.31783 20.6811 3.48537 20.2585 3.82045L15.6938 7.43998C15.5813 7.52923 15.525 7.57385 15.4951 7.63575C15.4652 7.69765 15.4653 7.77001 15.4654 7.91474C15.4654 7.94254 15.4654 7.97102 15.4654 8.00019V21.9438C15.4654 22.185 15.5814 22.4115 15.7771 22.5525C15.9729 22.6934 16.2245 22.7316 16.4532 22.6551C16.7439 22.5579 16.9824 22.3752 17.2115 22.1997L19.6442 20.3446C20.0932 20.0022 20.4908 19.6991 20.7542 19.4363C20.8912 19.2996 21.043 19.1253 21.1413 18.914C21.2247 18.7349 21.2715 18.5228 21.2407 18.2975C21.2354 18.2584 21.2327 18.2388 21.232 18.2287C21.2313 18.2185 21.2313 18.2067 21.2313 18.183V4.29059ZM14.3133 6.62033C14.2322 6.68464 14.1916 6.7168 14.1437 6.7335C14.0958 6.75019 14.044 6.75019 13.9405 6.75019L5.45685 6.7502H5.45684C4.87937 6.75024 4.37288 6.75028 3.9982 6.70231C3.80344 6.67738 3.57922 6.6327 3.3743 6.53136C3.14862 6.41975 2.92659 6.22783 2.81505 5.92472C2.70225 5.61823 2.74865 5.3233 2.85887 5.08642C2.95718 4.87514 3.10898 4.70082 3.24598 4.56412C3.50943 4.30125 3.90698 3.99816 4.356 3.65583L6.78871 1.80066C7.01785 1.62515 7.25637 1.44245 7.54701 1.34527C7.83536 1.24886 8.13696 1.24949 8.43054 1.2501L18.5199 1.25019C19.0139 1.25018 19.4483 1.25017 19.7889 1.27657C19.831 1.27984 19.8756 1.28365 19.922 1.28847C20.2251 1.31996 20.3766 1.3357 20.433 1.52935C20.4895 1.723 20.3479 1.83528 20.0647 2.05984L14.3133 6.62033Z" fill="#141B34"/>
<path d="M15.4654 20.7972V21.9442C15.4654 22.1854 15.5814 22.4119 15.7771 22.5528C15.8875 22.6323 16.0155 22.6791 16.1473 22.6911C15.8808 22.7522 15.6134 22.7514 15.3843 22.7506L5.59538 22.7505C5.04792 22.7505 4.54475 22.7506 4.16696 22.7019C3.96863 22.6764 3.72105 22.6286 3.48766 22.5125C3.22752 22.383 2.96142 22.1545 2.82762 21.7886C2.7466 21.567 2.73314 21.3445 2.76815 21.1371V5.89326C2.76815 5.85672 2.77016 5.82065 2.77406 5.78516C2.78421 5.83142 2.79776 5.87813 2.81505 5.92511C2.92659 6.22821 3.14862 6.42013 3.3743 6.53174C3.57922 6.63309 3.80344 6.67776 3.9982 6.70269C4.19799 6.72827 4.43527 6.7402 4.7008 6.74576V19.0717C4.7008 19.0717 6.84202 17.4278 6.89043 17.3916V9.13594C6.89043 8.59887 7.32307 8.16348 7.85676 8.16348C8.39044 8.16348 8.82308 8.59887 8.82308 9.13594V16.9157L13.3795 16.9157C13.9131 16.9156 14.3458 17.351 14.3458 17.8881C14.3458 18.4252 13.9132 18.8606 13.3795 18.8606L8.16488 18.8677L5.62863 20.8055L15.4654 20.7972Z" fill="#141B34"/>
</svg>
