<svg width="24" height="24" viewBox="0 0 24 24" fill="none" xmlns="http://www.w3.org/2000/svg">
<path fill-rule="evenodd" clip-rule="evenodd" d="M5.23138 2.35768C5.43514 1.85844 6.00547 1.61872 6.50527 1.82224L9.43707 3.01613C9.92228 3.21371 10.1651 3.75837 9.98762 4.25081L9.01035 6.96164C8.82748 7.46888 8.26758 7.73201 7.75978 7.54935C7.25197 7.36669 6.98855 6.80741 7.17141 6.30017L7.44465 5.54223C4.9263 6.83936 3.20454 9.4636 3.20454 12.488C3.20454 12.9325 3.24162 13.3677 3.31268 13.7907C3.40198 14.3224 3.04286 14.8258 2.51057 14.915C1.97828 15.0042 1.47438 14.6455 1.38508 14.1138C1.29617 13.5844 1.25 13.0412 1.25 12.488C1.25 8.76734 3.33323 5.53423 6.39763 3.88677L5.76742 3.63014C5.26762 3.42661 5.02763 2.85691 5.23138 2.35768ZM11.5248 3.66233C11.6141 3.13063 12.118 2.77192 12.6503 2.86112C17.273 3.63581 20.7954 7.65005 20.7954 12.488C20.7954 13.0034 20.7553 13.5097 20.6781 14.004L21.2224 13.6336C21.6684 13.33 22.2764 13.4451 22.5803 13.8907C22.8842 14.3362 22.7689 14.9435 22.3229 15.2471L19.4541 17.1994C19.2234 17.3564 18.9366 17.4074 18.6658 17.3395C18.3951 17.2716 18.1664 17.0913 18.0373 16.8441L16.5084 13.9155C16.2588 13.4375 16.4445 12.8479 16.923 12.5986C17.4016 12.3493 17.9919 12.5347 18.2414 13.0128L18.7112 13.9126C18.7963 13.451 18.8408 12.9749 18.8408 12.488C18.8408 8.61938 16.0238 5.40609 12.3269 4.78657C11.7946 4.69737 11.4355 4.19403 11.5248 3.66233ZM2.7311 17.3689C2.7311 16.8297 3.16864 16.3927 3.70837 16.3927H7.11361C7.65334 16.3927 8.09088 16.8297 8.09088 17.3689C8.09088 17.908 7.65334 18.345 7.11361 18.345H5.85114C7.22998 19.5609 9.04032 20.2974 11.0227 20.2974C13.0257 20.2974 14.8507 19.5463 16.2345 18.3091C16.6367 17.9496 17.2545 17.9837 17.6145 18.3855C17.9744 18.7872 17.9402 19.4043 17.538 19.7639C15.8097 21.309 13.525 22.2498 11.0227 22.2498C8.60426 22.2498 6.39132 21.3718 4.68563 19.9193V20.7855C4.68563 21.3246 4.2481 21.7617 3.70837 21.7617C3.16864 21.7617 2.7311 21.3246 2.7311 20.7855V17.3689Z" fill="#141B34"/>
</svg>
