<svg width="24" height="24" viewBox="0 0 24 24" fill="none" xmlns="http://www.w3.org/2000/svg">
<path fill-rule="evenodd" clip-rule="evenodd" d="M13.8975 1.3641C14.2488 1.58363 14.3555 2.04635 14.136 2.3976L12.3532 5.2501H15C15.2726 5.2501 15.5238 5.39806 15.656 5.63652C15.7882 5.87499 15.7805 6.1664 15.636 6.3976L13.136 10.3976C12.9165 10.7489 12.4538 10.8556 12.1025 10.6361C11.7512 10.4166 11.6445 9.95385 11.864 9.6026L13.6468 6.7501H11C10.7274 6.7501 10.4762 6.60214 10.344 6.36368C10.2118 6.12521 10.2195 5.8338 10.364 5.6026L12.864 1.6026C13.0835 1.25135 13.5462 1.14457 13.8975 1.3641Z" fill="#141B34"/>
<path fill-rule="evenodd" clip-rule="evenodd" d="M7.63984 6.60536C7.93769 6.4423 8.3133 6.26845 8.75233 6.10264C8.76783 6.44346 8.86084 6.782 9.03206 7.09092C9.419 7.78906 10.1459 8.22862 10.9409 8.24942L10.592 8.80769C9.93341 9.86145 10.2537 11.2496 11.3075 11.9082C12.3613 12.5668 13.7494 12.2464 14.408 11.1927L16.908 7.19269C17.1211 6.8517 17.235 6.46706 17.2486 6.0791C17.6201 6.22886 17.9913 6.40342 18.3602 6.60536L18.3654 6.60821C20.9631 8.05725 22.75 10.5735 22.75 13.5003C22.75 15.8136 21.6296 17.8782 19.876 19.353C19.7853 19.4293 19.75 19.5211 19.75 19.5922V22.0003C19.75 22.4145 19.4142 22.7503 19 22.7503H17C16.7554 22.7503 16.5262 22.631 16.3858 22.4307L15.687 21.4336C13.9312 21.8586 12.0688 21.8586 10.313 21.4336L9.61417 22.4307C9.47379 22.631 9.24458 22.7503 9 22.7503H7C6.58579 22.7503 6.25 22.4145 6.25 22.0003V19.6157C6.25 19.5335 6.20959 19.4565 6.14191 19.4099C5.66469 19.1464 4.00277 18.1964 3.4751 17.8571C2.95227 17.5208 2.42306 17.1333 2.01729 16.7037C1.62349 16.2867 1.25 15.7287 1.25 15.0585V13.5003C1.25 12.5439 1.9856 11.6788 3 11.6788C3.15677 11.678 3.49377 11.6088 3.5876 11.3382C4.22333 9.34747 5.70308 7.68569 7.63464 6.60824L7.63984 6.60536ZM7.5 11C6.94772 11 6.5 11.4477 6.5 12C6.5 12.5523 6.94772 13 7.5 13H7.50898C8.06127 13 8.50898 12.5523 8.50898 12C8.50898 11.4477 8.06127 11 7.50898 11H7.5Z" fill="#141B34"/>
</svg>
