<svg width="24" height="24" viewBox="0 0 24 24" fill="none" xmlns="http://www.w3.org/2000/svg">
<path d="M20.1261 7.18734C20.575 6.86556 21.1997 6.96858 21.5215 7.41744C22.4509 8.71393 22.9982 10.2951 22.9982 12.0001C22.9982 16.444 19.3036 20.0001 14.804 20.0001H8.60981V21C8.60985 21.2514 8.51568 21.503 8.32652 21.6974C7.94138 22.0933 7.30827 22.1019 6.91244 21.7168L5.90963 20.7411C5.71865 20.5554 5.46841 20.3122 5.32169 20.1224C5.19282 19.9557 4.82098 19.4343 5.09372 18.7936C5.36042 18.1671 5.97838 18.0609 6.18409 18.0326C6.42227 17.9998 6.72129 17.9999 6.99253 18.0001H6.99256L7.04303 18.0001H14.804C18.251 18.0001 20.9982 15.2882 20.9982 12.0001C20.9982 10.7305 20.5922 9.55389 19.896 8.58271C19.5742 8.13385 19.6773 7.50912 20.1261 7.18734Z" fill="#141B34"/>
<path opacity="0.4" d="M3.87389 16.8127C3.42502 17.1344 2.8003 17.0314 2.47852 16.5826C1.5491 15.2861 1.00175 13.7049 1.00175 11.9999C1.00175 7.55602 4.69641 3.99992 9.19597 3.99992H15.3902V3C15.3902 2.74861 15.4843 2.49697 15.6735 2.30256C16.0586 1.90673 16.6917 1.89806 17.0876 2.28321L18.0904 3.25894C18.2813 3.44457 18.5316 3.68781 18.6783 3.87758C18.8072 4.04428 19.179 4.56574 18.9063 5.20642C18.6396 5.83292 18.0216 5.93914 17.8159 5.96744C17.5777 6.00021 17.2787 6.00007 17.0075 5.99994H17.0074L16.957 5.99992H9.19597C5.74902 5.99992 3.00175 8.71184 3.00175 11.9999C3.00175 13.2695 3.40777 14.4461 4.10399 15.4173C4.42577 15.8662 4.32275 16.4909 3.87389 16.8127Z" fill="#141B34"/>
</svg>
