<svg width="25" height="24" viewBox="0 0 25 24" fill="none" xmlns="http://www.w3.org/2000/svg">
<path fill-rule="evenodd" clip-rule="evenodd" d="M13.6834 15.2213C14.7913 13.6684 16.7707 12.8879 18.7084 13.413C19.9906 13.7604 21.0069 14.6137 21.6019 15.701L19.9584 16.6207C19.6002 15.9661 18.9918 15.4563 18.2222 15.2478C16.7192 14.8405 15.1742 15.7425 14.7715 17.2625L14.5849 17.9665H13.0084L11.5 15.124L13.1551 14.2258L13.6834 15.2213ZM22.0995 18.0335H20.401L20.2145 18.7375C19.8118 20.2575 18.2668 21.1595 16.7638 20.7522C16.012 20.5485 15.4142 20.0574 15.0529 19.4246L13.4262 20.3744C14.0264 21.4256 15.0253 22.2477 16.2776 22.587C18.2298 23.116 20.2245 22.3197 21.3275 20.7435L21.8156 21.7436L23.5 20.9029L22.0995 18.0335Z" fill="#141B34"/>
<path fill-rule="evenodd" clip-rule="evenodd" d="M8.58085 1.85608C8.73843 1.4884 9.09997 1.25 9.5 1.25H14.5C14.9 1.25 15.2616 1.4884 15.4191 1.85608L16.6594 4.75H22V6.75H2V4.75H7.3406L8.58085 1.85608ZM9.51654 4.75H14.4835L13.8406 3.25H10.1594L9.51654 4.75Z" fill="#141B34"/>
<path d="M3.95387 4.98594C4.0956 4.83536 4.29321 4.74998 4.5 4.74998H19.5C19.7068 4.74998 19.9044 4.83536 20.0461 4.98594C20.1879 5.13652 20.2611 5.33894 20.2486 5.54535L19.8442 12.218C19.605 12.1193 19.357 12.0346 19.1008 11.9652C17.3169 11.4818 15.5112 11.8354 14.0865 12.7808L13.7705 12.1852L9.47852 14.5144L12.0827 19.4219L11.3872 19.828L12.1237 21.1181C12.4727 21.7295 12.9257 22.2835 13.466 22.75H5.5C5.10341 22.75 4.77537 22.4412 4.75138 22.0454L3.75138 5.54535C3.73887 5.33894 3.81213 5.13652 3.95387 4.98594Z" fill="#141B34"/>
</svg>
