<svg width="24" height="24" viewBox="0 0 24 24" fill="none" xmlns="http://www.w3.org/2000/svg">
<path fill-rule="evenodd" clip-rule="evenodd" d="M4.97342 7.26782C5.50332 7.16618 6.01602 7.50959 6.11856 8.03487C6.22111 8.56014 5.87466 9.06837 5.34476 9.17001C4.69971 9.29375 4.30985 9.48078 4.02153 9.73486C3.67982 10.036 3.45999 10.4482 3.33668 11.2565C3.20716 12.1054 3.20455 13.237 3.20455 14.8916C3.20455 16.5462 3.20716 17.6777 3.33668 18.5266C3.45999 19.3349 3.67982 19.7472 4.02153 20.0483C4.37975 20.364 4.89663 20.5777 5.8721 20.6932C6.86504 20.8109 8.17806 20.8125 10.0455 20.8125H13.9545C15.8219 20.8125 17.135 20.8109 18.1279 20.6932C19.1034 20.5777 19.6202 20.364 19.9785 20.0483C20.3202 19.7472 20.54 19.3349 20.6633 18.5266C20.7928 17.6777 20.7955 16.5462 20.7955 14.8916C20.7955 13.237 20.7928 12.1054 20.6633 11.2565C20.54 10.4482 20.3202 10.036 19.9785 9.73486C19.6901 9.48078 19.3003 9.29375 18.6552 9.17001C18.1253 9.06837 17.7789 8.56014 17.8814 8.03487C17.984 7.50959 18.4967 7.16618 19.0266 7.26782C19.8953 7.43447 20.6476 7.73208 21.2771 8.28685C22.0803 8.99469 22.433 9.89888 22.5959 10.9668C22.7501 11.9774 22.75 13.2562 22.75 14.8144V14.9686C22.75 16.5269 22.7501 17.8057 22.5959 18.8164C22.433 19.8843 22.0803 20.7885 21.2771 21.4963C20.4904 22.1896 19.5134 22.4804 18.3599 22.617C17.2373 22.75 15.8071 22.75 14.0191 22.75H9.9809C8.19294 22.75 6.76272 22.75 5.64014 22.617C4.48661 22.4804 3.50964 22.1896 2.72291 21.4963C1.91968 20.7885 1.56703 19.8843 1.40411 18.8164C1.24993 17.8058 1.24996 16.5269 1.25 14.9687V14.8144C1.24996 13.2562 1.24993 11.9774 1.40411 10.9668C1.56703 9.89888 1.91968 8.99469 2.72291 8.28685C3.35245 7.73208 4.10468 7.43447 4.97342 7.26782Z" fill="#141B34"/>
<path fill-rule="evenodd" clip-rule="evenodd" d="M5 15C5 14.4477 5.44772 14 6 14L7 14C7.55228 14 8 14.4477 8 15C8 15.5523 7.55228 16 7 16H6C5.44772 16 5 15.5523 5 15ZM10.5 15C10.5 14.4477 10.9477 14 11.5 14L12.5 14C13.0523 14 13.5 14.4477 13.5 15C13.5 15.5523 13.0523 16 12.5 16H11.5C10.9477 16 10.5 15.5523 10.5 15ZM16 15C16 14.4477 16.4477 14 17 14L18 14C18.5523 14 19 14.4477 19 15C19 15.5523 18.5523 16 18 16H17C16.4477 16 16 15.5523 16 15Z" fill="#141B34"/>
<path fill-rule="evenodd" clip-rule="evenodd" d="M11.9902 1.25C9.38433 1.25 7.24023 3.36855 7.24023 5.85058C7.24023 7.4688 8.13036 8.80059 9.03079 9.73978C9.94065 10.6888 10.9529 11.3344 11.4027 11.5927C11.7678 11.8024 12.2127 11.8024 12.5778 11.5927C13.0276 11.3344 14.0398 10.6888 14.9497 9.73978C15.8501 8.80059 16.7402 7.4688 16.7402 5.85058C16.7402 3.36855 14.5961 1.25 11.9902 1.25ZM11.9824 4.16797C11.0202 4.16797 10.2402 4.95147 10.2402 5.91797C10.2402 6.88447 11.0202 7.66797 11.9824 7.66797H11.9981C12.9602 7.66797 13.7402 6.88447 13.7402 5.91797C13.7402 4.95147 12.9602 4.16797 11.9981 4.16797H11.9824Z" fill="#141B34"/>
</svg>
