<svg width="24" height="24" viewBox="0 0 24 24" fill="none" xmlns="http://www.w3.org/2000/svg">
<path d="M10.8662 8.22898L10.3696 10.8535L18.4799 6.22204C19.2838 5.76293 20.3117 6.03539 20.776 6.83059C21.2401 7.62579 20.9646 8.6426 20.1607 9.10171L15.7937 11.5956L16.8314 14.2807C17.517 16.005 17.8598 16.8671 17.8475 17.6192C17.8272 18.8616 17.3778 20.0099 16.1521 20.7099C15.2983 21.1974 14.6037 21.3158 12.7686 21.6873L10.0082 21.999L5.01123 15.5039L7.66357 7.33533C7.94408 6.60898 8.6986 6.17432 9.47573 6.29139C10.4098 6.43211 11.0401 7.31038 10.8662 8.22898Z" stroke="#141B34" stroke-width="1.5" stroke-linecap="round"/>
<path d="M2.99854 5.99974C3.90232 4.22268 5.23996 3.05509 7.07272 2.36892C8.34854 1.89126 9.76861 1.90653 11.0641 2.32791C12.053 2.60786 13.3314 3.43916 14.1335 4.45451M14.5074 2.00049V5.00366H11.9969" stroke="#141B34" stroke-width="1.5"/>
</svg>
