<svg width="24" height="24" viewBox="0 0 24 24" fill="none" xmlns="http://www.w3.org/2000/svg">
<path fill-rule="evenodd" clip-rule="evenodd" d="M11.9875 3.20455C7.13553 3.20455 3.20226 7.1424 3.20226 12C3.20226 15.48 5.22082 18.4898 8.15403 19.9164L7.30095 21.6745C3.72107 19.9333 1.25 16.2565 1.25 12C1.25 6.06294 6.05732 1.25 11.9875 1.25C14.5839 1.25 16.965 2.17319 18.8211 3.70792V2.22727H20.7734V6.13636C20.7734 6.55688 20.5047 6.93025 20.1062 7.06337C19.7078 7.1965 19.269 7.05952 19.0167 6.72329C17.4123 4.58476 14.861 3.20455 11.9875 3.20455Z" fill="#141B34"/>
<path fill-rule="evenodd" clip-rule="evenodd" d="M22.0462 7.32153L22.312 8.26188C22.4322 8.68717 22.5265 9.11664 22.5956 9.54808L22.7503 10.513L20.8227 10.8227L20.668 9.85775C20.6107 9.50025 20.5328 9.14512 20.4335 8.79408L20.1677 7.85374L22.0462 7.32153ZM22.7284 12.4952L22.5595 13.4578C22.4849 13.8828 22.3877 14.3036 22.2689 14.7178L21.9994 15.6571L20.123 15.1176L20.3925 14.1783C20.4924 13.8298 20.574 13.4763 20.6367 13.1195L20.8056 12.1569L22.7284 12.4952ZM21.1977 17.3817L20.6519 18.1919C20.3989 18.5677 20.1243 18.9297 19.829 19.2756L19.1949 20.0186L17.7107 18.7488L18.3449 18.0059C18.5914 17.717 18.8212 17.4141 19.0333 17.0991L19.5791 16.2889L21.1977 17.3817ZM17.6649 21.2962L16.8177 21.7816C16.4393 21.9985 16.0453 22.1947 15.6367 22.3683L14.7381 22.75L13.9756 20.9507L14.8742 20.569C15.211 20.4259 15.5358 20.2642 15.8479 20.0853L16.6951 19.5999L17.6649 21.2962ZM9.94844 20.37L10.9159 20.5001C11.3122 20.5534 11.7173 20.581 12.1294 20.581H13.1056V22.5356H12.1294C11.6301 22.5356 11.1382 22.5021 10.6559 22.4372L9.68848 22.3071L9.94844 20.37Z" fill="#141B34"/>
</svg>
