<svg width="24" height="24" viewBox="0 0 24 24" fill="none" xmlns="http://www.w3.org/2000/svg">
<path d="M7.90833 2.07346C7.90366 2.15274 7.89085 2.3704 7.88619 2.49334C7.87669 2.74419 7.86962 3.08875 7.88049 3.45489C7.89118 3.81491 7.91995 4.22659 7.99084 4.60084C8.02634 4.78823 8.07681 4.99054 8.1526 5.18329C8.22456 5.36628 8.34456 5.60652 8.55403 5.80909C8.9274 6.17017 9.44544 6.27486 9.7464 6.31899C10.1058 6.37169 10.4936 6.37876 10.8274 6.37048C11.1676 6.36205 11.4854 6.33664 11.7159 6.31381C11.8285 6.30266 12.0287 6.27816 12.1025 6.26913L12.1089 6.26834C12.4823 6.21587 12.7948 5.95775 12.9165 5.60083C13.0382 5.24391 12.9488 4.84887 12.6853 4.57914L11.9678 3.84489C14.6724 2.28084 18.3533 3.33231 19.9812 6.57689C20.2289 7.07053 20.8298 7.26992 21.3234 7.02225C21.8171 6.77459 22.0165 6.17364 21.7688 5.68C19.5889 1.33522 14.271 -0.189101 10.5261 2.36948L9.62113 1.44328C9.34651 1.16224 8.93276 1.06807 8.56356 1.20259C8.19437 1.3371 7.93815 1.67562 7.90869 2.06745L7.90833 2.07346Z" fill="#141B34"/>
<path opacity="0.4" d="M8.25136 11.2932C8.45021 11.429 8.49923 11.6972 8.36083 11.8923C8.22243 12.0873 7.94904 12.1354 7.75019 11.9996L6.44838 11.1109C5.93075 10.7574 5.20617 10.8821 4.83341 11.4012C4.46173 11.9187 4.58883 12.6211 5.10481 12.9734L5.97201 13.5654L6.40662 13.8622C6.60547 13.9979 6.65448 14.2661 6.51609 14.4612C6.37769 14.6563 6.1043 14.7043 5.90544 14.5686L5.47151 14.2723C4.95387 13.9189 4.2293 14.0435 3.85654 14.5626C3.48486 15.0802 3.61196 15.7826 4.12794 16.1348L5.42974 17.0236C5.6286 17.1594 5.67761 17.4276 5.53921 17.6226C5.40082 17.8177 5.12742 17.8658 4.92857 17.73L4.49463 17.4338C3.977 17.0804 3.25243 17.205 2.87966 17.7241C2.50798 18.2417 2.63508 18.944 3.15106 19.2963L3.5808 19.5897L7.42929 22.0879C9.35251 23.3363 11.9079 23.0853 13.5394 21.4881L15.3359 19.7293C16.2023 18.8811 16.5869 18.5012 16.8646 18.0761C17.2975 17.4134 17.5554 16.6559 17.6152 15.8717C17.6535 15.3686 17.5787 14.8388 17.4054 13.6513L16.6541 8.50282C16.5671 7.90653 16.0788 7.44248 15.4658 7.3758C14.6653 7.28871 13.9668 7.9014 13.9654 8.68721L14.0015 11.5983C14.0034 11.7586 13.9145 11.9066 13.7706 11.9826C13.6268 12.0585 13.4518 12.0497 13.3166 11.9597L3.95376 5.5793C3.43613 5.2259 2.71155 5.35051 2.33879 5.8696C1.96711 6.38719 2.09421 7.08955 2.61019 7.44182L8.25136 11.2932Z" fill="#141B34"/>
</svg>
