<svg width="24" height="24" viewBox="0 0 24 24" fill="none" xmlns="http://www.w3.org/2000/svg">
<path d="M7.28244 11.0594L3.57515 8.47667C2.96091 8.04875 2.81577 7.20053 3.25098 6.58211C3.68619 5.96369 4.53695 5.80926 5.15119 6.23717L12.5658 11.4025L13.1465 11.7968L13.1157 9.25657C13.1157 8.34612 13.9078 7.6378 14.8137 7.73834C15.5067 7.81527 16.0599 8.3509 16.1586 9.04054L16.8004 13.5288C16.946 14.5474 17.0188 15.0567 16.9824 15.5455C16.9266 16.2913 16.6863 17.0116 16.2829 17.6417C16.0185 18.0546 15.6544 18.4185 14.9261 19.1461L13.3912 20.6793C11.8713 22.1976 9.49103 22.4361 7.69957 21.2495L4.40797 19.0692L4.03724 18.8109C3.423 18.3831 3.27787 17.5348 3.71308 16.9164C4.14829 16.2979 4.99904 16.1435 5.61328 16.5715L5.98401 16.8298M7.28244 11.0594L8.39462 11.8342M7.28244 11.0594C6.66819 10.6314 5.81745 10.7859 5.38224 11.4043C4.94702 12.0228 5.09217 12.8709 5.70641 13.2989L6.44787 13.8154M6.44787 13.8154L6.81859 14.0737M6.44787 13.8154C5.83362 13.3875 4.98287 13.542 4.54766 14.1603C4.11245 14.7787 4.25758 15.627 4.87183 16.0549L5.24255 16.3131" stroke="#141B34" stroke-width="1.5"/>
<path d="M21.0001 5.99566C20.0972 4.21976 18.7609 3.05294 16.93 2.36721C15.6555 1.88986 14.2369 1.90512 12.9427 2.32623C11.9653 2.60303 10.7049 3.41916 9.90216 4.41916M9.50293 1.99902V5.00023H12.0109" stroke="#141B34" stroke-width="1.5"/>
</svg>
