<svg width="24" height="24" viewBox="0 0 24 24" fill="none" xmlns="http://www.w3.org/2000/svg">
<path fill-rule="evenodd" clip-rule="evenodd" d="M15.6448 1.25V6.25H11.1448V4.25H12.3384C11.2511 3.467 9.98642 3.17354 8.75724 3.30041C6.89532 3.4926 5.06249 4.65763 4.0386 6.69839L2.25098 5.8015C3.57551 3.16153 5.99818 1.57458 8.55189 1.31098C10.3235 1.12812 12.1332 1.58603 13.6448 2.72841V1.25H15.6448Z" fill="#141B34"/>
<path d="M18.7828 6.81949C18.4706 6.27788 17.792 6.09354 17.2737 6.39305L9.16227 11.0799L9.98068 7.90929C10.1723 7.16675 9.6794 6.39847 8.9113 6.27419C8.32851 6.1799 7.76963 6.49378 7.54439 7.02899L4.73064 14.277L3.25 15.0928L7.66312 22.75L9.51831 21.6944L9.68438 21.7488L9.68913 21.7504L9.70431 21.7553L9.76365 21.7743C9.81531 21.7908 9.89 21.8142 9.9814 21.8422C10.1645 21.8983 10.4133 21.972 10.6775 22.043C10.9428 22.1143 11.218 22.1814 11.4556 22.2255C11.7113 22.2731 11.868 22.2827 11.9265 22.2738C12.3259 22.213 12.7465 22.0624 13.3109 21.7834C13.8785 21.5028 14.5672 21.1051 15.5071 20.5619L20.816 17.4943C21.3305 17.197 21.5085 16.5255 21.1984 15.9874C20.8862 15.4458 20.2076 15.2615 19.6893 15.561L15.8154 17.7995L15.4196 17.0912L21.0153 13.8577C21.5298 13.5605 21.7078 12.889 21.3977 12.3509C21.0855 11.8093 20.4069 11.625 19.8886 11.9245L15.1538 14.6605L14.758 13.9521L21.2146 10.2212C21.7291 9.92395 21.9071 9.25253 21.597 8.71443C21.2848 8.17283 20.6062 7.98849 20.0879 8.28796L14.4923 11.5216L14.0965 10.8132L18.4008 8.32608C18.9149 8.02865 19.0928 7.35742 18.7828 6.81949Z" fill="#141B34"/>
</svg>
