<svg width="24" height="24" viewBox="0 0 24 24" fill="none" xmlns="http://www.w3.org/2000/svg">
<path fill-rule="evenodd" clip-rule="evenodd" d="M16.5694 5L14.25 2.68058L15.6806 1.25L18 3.56942L20.3194 1.25L21.75 2.68058L19.4306 5L21.75 7.31942L20.3194 8.75L18 6.43058L15.6806 8.75L14.25 7.31942L16.5694 5Z" fill="#141B34"/>
<path d="M2.25 19C2.25 16.9289 3.92893 15.25 6 15.25C8.07107 15.25 9.75 16.9289 9.75 19C9.75 21.0711 8.07107 22.75 6 22.75C3.92893 22.75 2.25 21.0711 2.25 19Z" fill="#141B34"/>
<path fill-rule="evenodd" clip-rule="evenodd" d="M4.00098 8.5C4.00098 6.01472 6.0157 4 8.50098 4H12.001V6H8.50098C7.12026 6 6.00098 7.11929 6.00098 8.5C6.00098 9.88071 7.12026 11 8.50098 11H15.501C17.9863 11 20.001 13.0147 20.001 15.5C20.001 17.9853 17.9863 20 15.501 20H12.001V18H15.501C16.8817 18 18.001 16.8807 18.001 15.5C18.001 14.1193 16.8817 13 15.501 13H8.50098C6.0157 13 4.00098 10.9853 4.00098 8.5Z" fill="#141B34"/>
</svg>
