<svg width="24" height="24" viewBox="0 0 24 24" fill="none" xmlns="http://www.w3.org/2000/svg">
<path d="M21.1263 2.8736C18.7966 0.543941 14.9618 0.742184 12.9531 3.33411L11.7001 4.95086C11.3024 5.46405 11.1782 6.0484 11.2883 6.59693C11.3944 7.12575 11.7068 7.57082 12.0956 7.87435C12.4844 8.17791 12.9928 8.37342 13.5334 8.34585C14.0942 8.31726 14.63 8.0503 15.0308 7.53694L15.4052 7.05728C15.8279 6.51563 16.6086 6.47522 17.0666 6.93329C17.5247 7.39135 17.4843 8.17198 16.9426 8.59476L16.463 8.96917C15.9496 9.36987 15.6827 9.90573 15.6541 10.4666C15.6265 11.0072 15.822 11.5155 16.1256 11.9043C16.4291 12.2931 16.8742 12.6055 17.403 12.7116C17.9515 12.8217 18.5359 12.6975 19.0491 12.2998L20.6658 11.0468C23.2577 9.0381 23.456 5.20327 21.1263 2.8736Z" fill="#141B34"/>
<path fill-rule="evenodd" clip-rule="evenodd" d="M4.5 18C3.67157 18 3 18.6716 3 19.5C3 20.3284 3.67157 21 4.5 21C5.32843 21 6 20.3284 6 19.5C6 18.6716 5.32843 18 4.5 18ZM1 19.5C1 17.567 2.567 16 4.5 16C6.433 16 8 17.567 8 19.5C8 21.433 6.433 23 4.5 23C2.567 23 1 21.433 1 19.5Z" fill="#141B34"/>
<path fill-rule="evenodd" clip-rule="evenodd" d="M7.30704 4.04849C7.8327 4.21791 8.12148 4.78139 7.95205 5.30704L3.95205 17.7173C3.78263 18.243 3.21915 18.5317 2.6935 18.3623C2.16784 18.1929 1.87906 17.6294 2.04849 17.1038L6.04849 4.6935C6.21791 4.16784 6.78139 3.87906 7.30704 4.04849ZM17.7568 11.3463C18.118 11.7641 18.0721 12.3956 17.6543 12.7568L7.24402 21.7568C6.82622 22.118 6.19472 22.0721 5.83353 21.6543C5.47233 21.2365 5.51821 20.605 5.93601 20.2438L16.3463 11.2438C16.7641 10.8826 17.3956 10.9285 17.7568 11.3463Z" fill="#141B34"/>
</svg>
