<svg width="24" height="24" viewBox="0 0 24 24" fill="none" xmlns="http://www.w3.org/2000/svg">
<path d="M18.2726 6.61759C19.1981 6.79534 19.4057 7.37979 19.682 9.00157C19.9309 10.4622 20.0007 12.2149 20.0007 12.9611C19.9753 13.236 19.8625 13.4926 19.682 13.702C17.7469 15.73 13.9064 19.5598 11.9681 21.4623C11.2074 22.1415 10.0597 22.1561 9.25241 21.5327C7.59928 20.0458 6.01095 18.3649 4.45501 16.847C3.82993 16.0419 3.84458 14.8975 4.52567 14.1389C6.57621 12.0117 10.2867 8.37057 12.3813 6.35904C12.5913 6.17909 12.8486 6.06653 13.1243 6.04126C13.5943 6.04114 14.4005 6.10431 15.1859 6.14984" stroke="#141B34" stroke-width="1.5" stroke-linecap="round"/>
<path opacity="0.4" d="M13.8229 13.9993C13.8407 13.6648 13.9346 13.0527 13.4259 12.5875M13.4259 12.5875C13.2685 12.4436 13.0533 12.3137 12.7604 12.2104C11.712 11.8409 10.4242 13.0777 11.3352 14.2098C11.8249 14.8183 12.2024 15.0055 12.1669 15.6966C12.1419 16.1827 11.6643 16.6906 11.035 16.884C10.4883 17.0521 9.88518 16.8296 9.50373 16.4033C9.03797 15.8829 9.08501 15.3923 9.08102 15.1784M13.4259 12.5875L14 12.0134M9.54524 16.4682L9 17.0134" stroke="#141B34" stroke-width="1.5" stroke-linecap="round" stroke-linejoin="round"/>
<path d="M7 3.71025C9.78054 6.79515 14.3661 0.137147 17.0794 2.55341C18.6407 3.94371 18.1471 7.01343 16.1203 9.01343" stroke="#141B34" stroke-width="1.5" stroke-linecap="round"/>
</svg>
