<svg width="24" height="24" viewBox="0 0 24 24" fill="none" xmlns="http://www.w3.org/2000/svg">
<path fill-rule="evenodd" clip-rule="evenodd" d="M6.5 17.75C7.05228 17.75 7.5 18.1977 7.5 18.75V21.75C7.5 22.3023 7.05228 22.75 6.5 22.75C5.94772 22.75 5.5 22.3023 5.5 21.75V18.75C5.5 18.1977 5.94772 17.75 6.5 17.75ZM17.5 17.75C18.0523 17.75 18.5 18.1977 18.5 18.75V21.75C18.5 22.3023 18.0523 22.75 17.5 22.75C16.9477 22.75 16.5 22.3023 16.5 21.75V18.75C16.5 18.1977 16.9477 17.75 17.5 17.75Z" fill="#141B34"/>
<path fill-rule="evenodd" clip-rule="evenodd" d="M11.9289 1.25H12.0711C13.8439 1.24998 15.2729 1.24996 16.3967 1.40128C17.5635 1.55839 18.546 1.8945 19.3262 2.67593C20.1065 3.45737 20.4421 4.44128 20.599 5.60984C20.7501 6.73538 20.75 8.16647 20.75 9.94195V13.003C20.75 14.3215 20.7501 15.4087 20.6346 16.2691C20.5133 17.1726 20.2489 17.9704 19.611 18.6093C18.9731 19.2481 18.1764 19.5129 17.2744 19.6344C16.4152 19.7501 15.3296 19.75 14.0131 19.75H9.98695C8.67049 19.75 7.58483 19.7501 6.72564 19.6344C5.82358 19.5129 5.02692 19.2481 4.38904 18.6093C3.75115 17.9704 3.48674 17.1726 3.36546 16.2691C3.24995 15.4087 3.24997 14.3214 3.25 13.003V9.94188C3.24998 8.16647 3.24996 6.73534 3.40105 5.60984C3.55793 4.44128 3.89353 3.45737 4.67379 2.67593C5.45405 1.8945 6.43648 1.55839 7.60329 1.40128C8.72711 1.24996 10.1561 1.24998 11.9289 1.25ZM5.19434 10.0132C5.19434 8.54006 5.19563 7.41928 5.2612 6.52993C5.27936 6.28359 5.28844 6.16042 5.37478 6.08021C5.46112 6 5.58877 6 5.84408 6H10.4C10.6828 6 10.8243 6 10.9121 6.08787C11 6.17574 11 6.31716 11 6.6V11.4C11 11.6828 11 11.8243 10.9121 11.9121C10.8243 12 10.6828 12 10.4 12H5.79434C5.5115 12 5.37007 12 5.28221 11.9121C5.19434 11.8243 5.19434 11.6828 5.19434 11.4V10.0132ZM13.6 12C13.3172 12 13.1757 12 13.0879 11.9121C13 11.8243 13 11.6828 13 11.4V6.6C13 6.31716 13 6.17574 13.0879 6.08787C13.1757 6 13.3172 6 13.6 6H18.1557C18.411 6 18.5387 6 18.625 6.08021C18.7113 6.16042 18.7204 6.28359 18.7386 6.52993C18.8042 7.41928 18.8054 8.54006 18.8054 10.0132V11.4C18.8054 11.6828 18.8054 11.8243 18.7176 11.9121C18.6297 12 18.4883 12 18.2054 12H13.6ZM7 15C6.44772 15 6 15.4477 6 16C6 16.5523 6.44772 17 7 17H8C8.55229 17 9 16.5523 9 16C9 15.4477 8.55229 15 8 15H7ZM16 15C15.4477 15 15 15.4477 15 16C15 16.5523 15.4477 17 16 17H17C17.5523 17 18 16.5523 18 16C18 15.4477 17.5523 15 17 15H16Z" fill="#141B34"/>
<path fill-rule="evenodd" clip-rule="evenodd" d="M1.5 7C2.05228 7 2.5 7.44772 2.5 8V10C2.5 10.5523 2.05228 11 1.5 11C0.947715 11 0.5 10.5523 0.5 10L0.5 8C0.5 7.44772 0.947715 7 1.5 7ZM22.5 7C23.0523 7 23.5 7.44772 23.5 8V10C23.5 10.5523 23.0523 11 22.5 11C21.9477 11 21.5 10.5523 21.5 10V8C21.5 7.44772 21.9477 7 22.5 7Z" fill="#141B34"/>
</svg>
