<svg width="24" height="24" viewBox="0 0 24 24" fill="none" xmlns="http://www.w3.org/2000/svg">
<path opacity="0.4" d="M12 6.4375C11.6948 6.4375 11.4371 6.52952 11.2094 6.64393C11.0053 6.74646 10.7792 6.89183 10.54 7.04566L8.40342 8.41918C7.97798 8.69265 7.61565 8.92556 7.33233 9.14804C7.03042 9.38512 6.77416 9.64301 6.58629 9.98711C6.39843 10.3312 6.32008 10.6862 6.28391 11.0684C6.24997 11.427 6.24999 11.8577 6.25 12.3635V21.9987C6.25 22.4129 6.58579 22.7487 7 22.7487H9.5V17.9988C9.5 16.6181 10.6193 15.4988 12 15.4988C13.3807 15.4988 14.5 16.6181 14.5 17.9988V22.7487H17C17.4142 22.7487 17.75 22.4129 17.75 21.9987V12.3635C17.75 11.8578 17.75 11.427 17.7161 11.0684C17.6799 10.6862 17.6016 10.3312 17.4137 9.98711C17.2258 9.64301 16.9696 9.38512 16.6677 9.14804C16.3844 8.92556 16.022 8.69265 15.5966 8.41917L13.46 7.04567C13.2208 6.89184 12.9947 6.74646 12.7906 6.64393C12.5629 6.52952 12.3052 6.4375 12 6.4375Z" fill="#141B34"/>
<path fill-rule="evenodd" clip-rule="evenodd" d="M16 5.73209H12.75V6.62394C12.5323 6.51899 12.2872 6.4375 12 6.4375C11.7128 6.4375 11.4677 6.51898 11.25 6.62392V2.97023L11.25 2.93579C11.2499 2.72925 11.2498 2.5067 11.2749 2.31898C11.3042 2.09966 11.3796 1.81926 11.6146 1.58285C12.0147 1.18033 12.572 1.23484 12.8489 1.2834C13.1892 1.34307 13.5552 1.47768 13.8857 1.62195C14.5559 1.9145 15.2453 2.32103 15.6135 2.54777C16.5707 3.13718 16.75 4.24513 16.75 4.98209C16.75 5.3963 16.4142 5.73209 16 5.73209ZM6.25003 12.2181C5.86782 12.3135 5.5079 12.4063 5.18397 12.5026C4.65183 12.6606 4.13182 12.8511 3.6852 13.1354C3.21613 13.434 2.83222 13.8331 2.58079 14.3807C2.33877 14.9078 2.25 15.5064 2.25 16.1625V21.0002C2.25 21.5525 2.69772 22.0002 3.25 22.0002C3.80228 22.0002 4.25 21.5525 4.25 21.0002V16.1625C4.25 15.6728 4.31863 15.3889 4.39834 15.2153C4.46866 15.0621 4.57085 14.9424 4.75918 14.8226C4.96995 14.6884 5.27864 14.5608 5.75345 14.4198C5.90942 14.3734 6.07415 14.3282 6.25 14.282V12.3635V12.3635C6.25 12.3143 6.25 12.2658 6.25003 12.2181ZM17.75 14.2819C17.9259 14.3281 18.0907 14.3734 18.2468 14.4198C18.7216 14.5608 19.0303 14.6884 19.2411 14.8226C19.4294 14.9424 19.5316 15.0621 19.6019 15.2153C19.6816 15.3889 19.7502 15.6728 19.7502 16.1625V21.0002C19.7502 21.5525 20.198 22.0002 20.7502 22.0002C21.3025 22.0002 21.7502 21.5525 21.7502 21.0002V16.1625C21.7502 15.5064 21.6615 14.9078 21.4194 14.3807C21.168 13.8332 20.7841 13.434 20.315 13.1354C19.8684 12.8511 19.3484 12.6606 18.8163 12.5026C18.4923 12.4063 18.1323 12.3135 17.75 12.218C17.75 12.2658 17.75 12.3143 17.75 12.3635V14.2819Z" fill="#141B34"/>
<path fill-rule="evenodd" clip-rule="evenodd" d="M1 21.75C1 21.1977 1.44772 20.75 2 20.75H22C22.5523 20.75 23 21.1977 23 21.75C23 22.3023 22.5523 22.75 22 22.75H2C1.44772 22.75 1 22.3023 1 21.75Z" fill="#141B34"/>
<path fill-rule="evenodd" clip-rule="evenodd" d="M11 12.5C11 11.9477 11.4477 11.5 12 11.5H12.009C12.5613 11.5 13.009 11.9477 13.009 12.5C13.009 13.0523 12.5613 13.5 12.009 13.5H12C11.4477 13.5 11 13.0523 11 12.5Z" fill="#141B34"/>
<path fill-rule="evenodd" clip-rule="evenodd" d="M12 17C12.5523 17 13 17.4477 13 18V21.5698C13 22.1221 12.5523 22.5698 12 22.5698C11.4477 22.5698 11 22.1221 11 21.5698V18C11 17.4477 11.4477 17 12 17Z" fill="#141B34"/>
</svg>
