<svg width="24" height="24" viewBox="0 0 24 24" fill="none" xmlns="http://www.w3.org/2000/svg">
<path fill-rule="evenodd" clip-rule="evenodd" d="M17.999 4C16.8945 4 15.999 4.89543 15.999 6C15.999 7.10457 16.8945 8 17.999 8C19.1036 8 19.999 7.10457 19.999 6C19.999 4.89543 19.1036 4 17.999 4ZM13.999 6C13.999 3.79086 15.7899 2 17.999 2C20.2082 2 21.999 3.79086 21.999 6C21.999 8.20914 20.2082 10 17.999 10C15.7899 10 13.999 8.20914 13.999 6Z" fill="#141B34"/>
<path fill-rule="evenodd" clip-rule="evenodd" d="M17.999 16C16.8945 16 15.999 16.8954 15.999 18C15.999 19.1046 16.8945 20 17.999 20C19.1036 20 19.999 19.1046 19.999 18C19.999 16.8954 19.1036 16 17.999 16ZM13.999 18C13.999 15.7909 15.7899 14 17.999 14C20.2082 14 21.999 15.7909 21.999 18C21.999 20.2091 20.2082 22 17.999 22C15.7899 22 13.999 20.2091 13.999 18Z" fill="#141B34"/>
<path d="M7.82738 10.7399L2.00391 5.73997L3.34924 4.26007L9.17271 9.25996L7.82738 10.7399Z" fill="#141B34"/>
<path d="M2 18.2629L14.3235 7.26286L15.6749 8.73717L12.271 11.8574L15.7066 15.2929L14.2925 16.7071L10.7953 13.2102L3.35145 19.7372L2 18.2629Z" fill="#141B34"/>
</svg>
