<svg width="24" height="24" viewBox="0 0 24 24" fill="none" xmlns="http://www.w3.org/2000/svg">
<path opacity="0.4" d="M20.6901 14.5566V8.55664C20.6901 5.25681 20.6901 3.60689 19.6618 2.58177C18.6336 1.55664 16.9787 1.55664 13.6688 1.55664C10.3589 1.55664 8.70398 1.55664 7.67574 2.58177C7.19079 3.06524 6.93456 3.68769 6.79917 4.55664L6.69727 17.5566C6.78406 18.976 7.02223 19.8799 7.67574 20.5315C8.70398 21.5566 10.3589 21.5566 13.6688 21.5566C16.9787 21.5566 18.6336 21.5566 19.6618 20.5315C20.6901 19.5063 20.6901 17.8564 20.6901 14.5566Z" fill="#141B34"/>
<path d="M6.79917 4.55664C6.93456 3.68769 7.19079 3.06524 7.67574 2.58177C8.70398 1.55664 10.3589 1.55664 13.6688 1.55664C16.9787 1.55664 18.6336 1.55664 19.6618 2.58177C20.6901 3.60689 20.6901 5.25681 20.6901 8.55664V14.5566C20.6901 17.8564 20.6901 19.5063 19.6618 20.5315C18.6336 21.5566 16.9787 21.5566 13.6688 21.5566C10.3589 21.5566 8.70398 21.5566 7.67574 20.5315C7.02223 19.8799 6.78406 18.976 6.69727 17.5566" stroke="#141B34" stroke-width="1.5" stroke-linecap="round"/>
<path d="M6.13308 7.55664H9.61073C10.0462 7.5716 10.7048 8.10274 10.7048 8.51309V12.1186M2.69043 15.5566L9.95447 8.35368" stroke="#141B34" stroke-width="1.5" stroke-linecap="round" stroke-linejoin="round"/>
<path d="M13.6943 18.5566H13.7033" stroke="#141B34" stroke-width="2" stroke-linecap="round" stroke-linejoin="round"/>
</svg>
