<svg width="24" height="24" viewBox="0 0 24 24" fill="none" xmlns="http://www.w3.org/2000/svg">
<path d="M12.0339 3.73701C11.735 3.59147 11.4456 3.51354 11.1423 3.50236C10.0481 3.46203 9.20025 4.30583 7.5045 5.99342C5.80874 7.681 4.96086 8.5248 5.00139 9.61366C5.04191 10.7025 5.95501 11.6112 7.78121 13.4286L11.1017 16.7332C12.9279 18.5506 13.841 19.4593 14.9352 19.4996C16.0293 19.5399 16.8772 18.6962 18.5729 17.0086C19.9404 15.6477 20.7565 14.8355 21 14.001" stroke="#141B34" stroke-width="1.5" stroke-linecap="round"/>
<path d="M3 12.501C3.11821 15.3751 4.97784 20.9988 11.3699 21.481C11.7462 21.5094 11.9344 21.5236 11.9883 21.4096C12.0423 21.2955 11.9063 21.1632 11.6344 20.8987L10.4137 19.7115" stroke="#141B34" stroke-width="1.5" stroke-linecap="round"/>
<path opacity="0.4" d="M15.7365 5.67559L15.7365 4.28461C15.7365 4.07916 15.7451 3.87114 15.8187 3.67928C16.0148 3.16857 16.5341 2.49951 17.4796 2.49951C18.4251 2.49951 18.9649 3.16857 19.1609 3.67928C19.2346 3.87114 19.2432 4.07916 19.2432 4.28461L19.2431 5.67559M15.806 11.5011H19.194C20.1914 11.5011 21 10.6941 21 9.6987V7.69646C21 6.70104 20.1914 5.8941 19.194 5.8941H15.806C14.8086 5.8941 14 6.70105 14 7.69646V9.6987C14 10.6941 14.8086 11.5011 15.806 11.5011Z" stroke="#141B34" stroke-width="1.5" stroke-linecap="round" stroke-linejoin="round"/>
</svg>
