<svg width="24" height="24" viewBox="0 0 24 24" fill="none" xmlns="http://www.w3.org/2000/svg">
<path d="M14 12C14 13.1046 13.1046 14 12 14C10.8954 14 10 13.1046 10 12C10 10.8954 10.8954 10 12 10C13.1046 10 14 10.8954 14 12Z" stroke="#141B34" stroke-width="1.5"/>
<path d="M12.0072 6.51343L15.9835 7.99646C15.9945 7.99978 16.0042 7.98891 15.9981 7.97998L11.9647 2.01647C11.9598 2.00923 11.9481 2.00933 11.9433 2.01665L8.00273 7.97283C7.9969 7.98178 8.00656 7.99243 8.01751 7.98911L12.0072 6.51343Z" stroke="#141B34" stroke-width="1.5"/>
<path d="M12.0072 17.4905L15.9835 16.0074C15.9945 16.0041 16.0042 16.015 15.9981 16.0239L11.9647 21.9874C11.9598 21.9947 11.9481 21.9946 11.9433 21.9873L8.00273 16.0311C7.9969 16.0221 8.00656 16.0115 8.01751 16.0148L12.0072 17.4905Z" stroke="#141B34" stroke-width="1.5"/>
</svg>
