<svg width="24" height="24" viewBox="0 0 24 24" fill="none" xmlns="http://www.w3.org/2000/svg">
<path fill-rule="evenodd" clip-rule="evenodd" d="M1 11C1 5.47715 5.47715 1 11 1C16.5228 1 21 5.47715 21 11C21 13.4013 20.1536 15.6049 18.7429 17.3287L23 21.5858L21.5858 23L17.3287 18.7429C15.6049 20.1536 13.4013 21 11 21C5.47715 21 1 16.5228 1 11ZM11 3C6.58172 3 3 6.58172 3 11C3 15.4183 6.58172 19 11 19C15.4183 19 19 15.4183 19 11C19 6.58172 15.4183 3 11 3Z" fill="#141B34"/>
<path fill-rule="evenodd" clip-rule="evenodd" d="M9.58574 11.0001L6.79285 8.20718L8.20706 6.79297L11 9.58586L13.7928 6.79297L15.2071 8.20718L12.4142 11.0001L15.2071 13.793L13.7928 15.2072L11 12.4143L8.20706 15.2072L6.79285 13.793L9.58574 11.0001Z" fill="#141B34"/>
</svg>
