<svg width="24" height="24" viewBox="0 0 24 24" fill="none" xmlns="http://www.w3.org/2000/svg">
<path fill-rule="evenodd" clip-rule="evenodd" d="M12.0002 1.25002C12.0002 1.25002 11.1616 1.75051 10.9435 1.86602C10.5072 2.09719 9.87153 2.41238 9.08295 2.74309C7.50157 3.40631 5.32717 4.12274 2.92556 4.36081L2.25018 4.42776V11.0483C2.25018 15.0901 4.69974 18.0067 7.02969 19.8672C8.20191 20.8033 9.3702 21.4945 10.2439 21.9516C10.6816 22.1806 12.0002 22.75 12.0002 22.75C12.0002 22.75 13.3188 22.1806 13.7565 21.9516C14.6302 21.4945 15.7985 20.8033 16.9707 19.8672C19.3006 18.0067 21.7502 15.0901 21.7502 11.0483V4.42776L21.0748 4.36081C18.6732 4.12274 16.4988 3.40631 14.9174 2.74309C14.1288 2.41238 13.4931 2.09719 13.0568 1.86602C12.8388 1.75051 12.0002 1.25002 12.0002 1.25002ZM9.25235 9.00002C9.25235 7.48124 10.4836 6.25002 12.0023 6.25002C13.5211 6.25002 14.7523 7.48124 14.7523 9.00002V9.75002H16.2523V16.75H7.75235V9.75002H9.25235V9.00002ZM10.7523 9.75002V9.00002C10.7523 8.30966 11.312 7.75002 12.0023 7.75002C12.6927 7.75002 13.2523 8.30966 13.2523 9.00002V9.75002H10.7523Z" fill="#141B34"/>
</svg>
