<svg width="24" height="24" viewBox="0 0 24 24" fill="none" xmlns="http://www.w3.org/2000/svg">
<path opacity="0.4" d="M14.1699 22.1006C16.8466 20.7234 21.7499 17.3739 21.75 11.2373V7.74805C21.75 6.40064 21.7719 5.46059 21.1885 4.51855C20.6144 3.59166 19.9634 3.2822 19.043 2.82422C17.04 1.82765 14.6089 1.25 12 1.25C9.39104 1.25 6.95999 1.82764 4.95702 2.82422C4.03654 3.2822 3.38562 3.59166 2.81151 4.51855C2.22802 5.46059 2.24998 6.40064 2.24999 7.74805V11.2373C2.25012 17.3739 7.15334 20.7234 9.83006 22.1006L9.86676 22.1195C10.5845 22.4889 11.0919 22.75 12 22.75C12.9081 22.75 13.4154 22.4889 14.1332 22.1195L14.1699 22.1006Z" fill="#141B34"/>
<path d="M15.9287 9.12922C15.7236 8.61654 15.1416 8.36673 14.6289 8.5716C13.1417 9.16646 12.0093 10.3243 11.2764 11.2571C11.1856 11.3726 11.0991 11.4858 11.0185 11.596C10.7922 11.3535 10.5564 11.1603 10.3291 11.0101C10.0396 10.8188 9.77147 10.6995 9.56834 10.6263C9.46658 10.5896 9.3185 10.5414 9.17577 10.5159C8.63224 10.4189 8.11287 10.781 8.01561 11.3245C7.91855 11.868 8.28067 12.3864 8.8242 12.4837C8.9602 12.508 9.09022 12.5889 9.22655 12.679C9.48813 12.8519 9.83557 13.1805 10.0527 13.8216C10.1823 14.2036 10.5291 14.4707 10.9316 14.4984C11.3342 14.5259 11.7141 14.3075 11.8945 13.9466C11.9341 13.8742 12.0475 13.668 12.1289 13.5335C12.2924 13.2633 12.5353 12.8922 12.8486 12.4935C13.4906 11.6764 14.3585 10.8342 15.3711 10.429C15.8838 10.224 16.1336 9.64192 15.9287 9.12922Z" fill="#141B34"/>
</svg>
