<svg width="24" height="24" viewBox="0 0 24 24" fill="none" xmlns="http://www.w3.org/2000/svg">
<path fill-rule="evenodd" clip-rule="evenodd" d="M1.29289 1.29289C1.68342 0.902369 2.31658 0.902369 2.70711 1.29289L22.7071 21.2929C23.0976 21.6834 23.0976 22.3166 22.7071 22.7071C22.3166 23.0976 21.6834 23.0976 21.2929 22.7071L1.29289 2.70711C0.902369 2.31658 0.902369 1.68342 1.29289 1.29289Z" fill="#141B34"/>
<path d="M5.24085 3.82886C4.5168 4.13264 3.80434 4.30642 3.01346 4.25265C2.63896 4.2272 2.30332 4.48251 2.22789 4.8502C1.20563 9.83321 1.88066 13.9278 3.70684 16.9833C5.53329 20.0392 8.46897 21.983 11.8234 22.732C11.9371 22.7574 12.0552 22.7559 12.1683 22.7277C15.1941 21.9731 17.7534 20.4279 19.5383 18.1263L5.24085 3.82886Z" fill="#141B34"/>
<path d="M20.3949 16.8616C20.4144 16.8285 20.4338 16.7952 20.453 16.7618C22.2126 13.7037 22.7551 9.68287 21.7439 4.84739C21.6712 4.49987 21.3648 4.25092 21.0098 4.25092C19.3957 4.25092 18.1944 3.58759 16.8319 2.822L16.7891 2.79796C15.4658 2.05425 13.9738 1.21574 11.9798 1.25108C9.97986 1.25314 8.41346 2.13271 7.06657 2.88902L6.99064 2.93164C6.87662 2.99564 6.76426 3.05852 6.65332 3.12L20.3949 16.8616Z" fill="#141B34"/>
</svg>
