<svg width="24" height="24" viewBox="0 0 24 24" fill="none" xmlns="http://www.w3.org/2000/svg">
<path opacity="0.4" d="M14.1689 22.1006C16.8456 20.7234 21.7488 17.3739 21.7489 11.2373V7.74805C21.749 6.40064 21.7709 5.46059 21.1874 4.51855C20.6133 3.59166 19.9624 3.2822 19.0419 2.82422C17.0389 1.82765 14.6079 1.25 11.9989 1.25C9.39 1.25 6.95895 1.82764 4.95598 2.82422C4.0355 3.2822 3.38458 3.59166 2.81047 4.51855C2.22698 5.46059 2.24895 6.40064 2.24895 7.74805V11.2373C2.24908 17.3739 7.1523 20.7234 9.82903 22.1006L9.86572 22.1195C10.5835 22.4889 11.0908 22.75 11.9989 22.75C12.9071 22.75 13.4144 22.4889 14.1322 22.1195L14.1689 22.1006Z" fill="#141B34"/>
<path d="M10.999 11.0098V11C10.999 10.4477 11.4467 10 11.999 10C12.5512 10 12.999 10.4477 12.999 11V11.0098C12.999 11.5621 12.5512 12.0098 11.999 12.0098C11.4467 12.0098 10.999 11.5621 10.999 11.0098Z" fill="#141B34"/>
<path d="M14.999 11.0098V11C14.999 10.4477 15.4467 10 15.999 10C16.5512 10 16.999 10.4477 16.999 11V11.0098C16.999 11.5621 16.5512 12.0098 15.999 12.0098C15.4467 12.0098 14.999 11.5621 14.999 11.0098Z" fill="#141B34"/>
<path d="M6.99896 11.0098V11C6.99896 10.4477 7.44668 10 7.99896 10C8.55125 10 8.99896 10.4477 8.99896 11V11.0098C8.99896 11.5621 8.55125 12.0098 7.99896 12.0098C7.44668 12.0098 6.99896 11.5621 6.99896 11.0098Z" fill="#141B34"/>
</svg>
