<svg width="24" height="24" viewBox="0 0 24 24" fill="none" xmlns="http://www.w3.org/2000/svg">
<path opacity="0.4" fill-rule="evenodd" clip-rule="evenodd" d="M9.49567 1.894C10.5485 1.50823 11.2533 1.25 12.0001 1.25C12.747 1.25 13.4517 1.50823 14.5045 1.894C14.5452 1.90888 14.5863 1.92395 14.628 1.93921L17.5759 3.01826C17.63 3.03806 17.6834 3.05757 17.7361 3.07682C19.0165 3.54491 19.8739 3.85833 20.495 4.44812C20.8776 4.81148 21.1855 5.24471 21.4008 5.72435C21.7512 6.50514 21.7508 7.40725 21.7502 8.7381C21.7501 8.79415 21.7501 8.85096 21.7501 8.90856L21.7501 9.80768C21.7502 12.0905 21.7503 13.385 21.4274 14.5815C21.029 16.0583 20.274 17.4186 19.2273 18.5489C18.3798 19.4642 17.2728 20.1695 15.3115 21.4191L15.2055 21.4867C15.1714 21.5084 15.1379 21.5298 15.1048 21.5509C14.2789 22.0775 13.7283 22.4285 13.1284 22.5958C12.3908 22.8014 11.6094 22.8014 10.8718 22.5958C10.2719 22.4285 9.72131 22.0775 8.89544 21.5509C8.86232 21.5298 8.82876 21.5084 8.79473 21.4867L8.68867 21.4191C6.72737 20.1695 5.6204 19.4642 4.77291 18.5489C3.72624 17.4186 2.97122 16.0583 2.57277 14.5815C2.24993 13.385 2.24999 12.0905 2.2501 9.80767C2.2501 9.76567 2.2501 9.72333 2.2501 9.68065V8.90856C2.2501 8.85097 2.25007 8.79415 2.25005 8.7381C2.24944 7.40725 2.24903 6.50514 2.59944 5.72435C2.81469 5.24471 3.12258 4.81148 3.50523 4.44812C4.12632 3.85833 4.9837 3.54491 6.26414 3.07682C6.31679 3.05757 6.37016 3.03806 6.42425 3.01826L9.37222 1.93921C9.4139 1.92395 9.45504 1.90888 9.49567 1.894Z" fill="#141B34"/>
<path d="M11.9946 7C10.2653 7 8.67508 7.63946 7.36896 8.70203C6.94054 9.05057 6.87578 9.68041 7.22431 10.1088C7.57284 10.5373 8.20269 10.602 8.63111 10.2535C9.62265 9.44682 10.7765 9 11.9946 9C13.2165 9 14.3738 9.44963 15.3675 10.2611C15.7952 10.6105 16.4252 10.5469 16.7746 10.1192C17.1239 9.6914 17.0603 9.06143 16.6326 8.71209C15.3241 7.64352 13.7294 7 11.9946 7Z" fill="#141B34"/>
<path d="M11.9946 10.3607C11.0147 10.3607 10.0971 10.6484 9.29784 11.144C8.82846 11.435 8.68388 12.0514 8.97491 12.5208C9.26595 12.9902 9.88239 13.1348 10.3518 12.8437C10.8598 12.5288 11.4157 12.3607 11.9946 12.3607C12.5764 12.3607 13.1351 12.5304 13.6452 12.8485C14.1138 13.1408 14.7306 12.9978 15.0228 12.5291C15.3151 12.0605 15.1721 11.4437 14.7034 11.1515C13.9013 10.6513 12.9795 10.3607 11.9946 10.3607Z" fill="#141B34"/>
<path d="M12 14C11.4477 14 11 14.4477 11 15C11 15.5523 11.4477 16 12 16H12.0064C12.5587 16 13.0064 15.5523 13.0064 15C13.0064 14.4477 12.5587 14 12.0064 14H12Z" fill="#141B34"/>
</svg>
