<svg width="24" height="24" viewBox="0 0 24 24" fill="none" xmlns="http://www.w3.org/2000/svg">
<path d="M3.01404 5V4.25H2.41981L2.28392 4.82849L3.01404 5ZM12 22.0001L11.8426 22.7334L12 22.7672L12.1573 22.7334L12 22.0001ZM20.986 5L21.7161 4.82849L21.5802 4.25H20.986V5ZM12 1.25C10.0331 1.25 8.49852 2.10185 7.14373 2.84177C5.75128 3.60226 4.53976 4.25 3.01404 4.25V5.75C4.97624 5.75 6.50867 4.89774 7.86271 4.15823C9.25441 3.39815 10.4689 2.75 12 2.75V1.25ZM12.1573 21.2668C5.67039 19.8748 1.82034 13.3613 3.74417 5.17151L2.28392 4.82849C0.214337 13.6387 4.34956 21.1255 11.8426 22.7334L12.1573 21.2668ZM12 2.75C13.5383 2.75 14.7542 3.39851 16.1437 4.15809C17.4961 4.89737 19.0254 5.75 20.986 5.75V4.25C19.4625 4.25 18.2548 3.60263 16.8632 2.84191C15.5088 2.10149 13.9737 1.25 12 1.25V2.75ZM12.1573 22.7334C19.6503 21.1255 23.7857 13.6387 21.7161 4.82849L20.2558 5.17151C22.1797 13.3613 18.3295 19.8748 11.8426 21.2668L12.1573 22.7334Z" fill="#141B34"/>
<path d="M7.99512 9.47776C9.14395 8.54314 10.516 8 11.9897 8C13.468 8 14.8441 8.54657 15.9951 9.48661M14.1694 12C13.5133 11.5909 12.773 11.3607 11.9897 11.3607C11.2103 11.3607 10.4735 11.5886 9.81989 11.9938" stroke="#141B34" stroke-width="1.5"/>
<path d="M11.9951 15H12.0015" stroke="#141B34" stroke-width="2" stroke-linecap="round" stroke-linejoin="round"/>
</svg>
