<svg width="24" height="24" viewBox="0 0 24 24" fill="none" xmlns="http://www.w3.org/2000/svg">
<path fill-rule="evenodd" clip-rule="evenodd" d="M21.0098 4.25092C19.3957 4.25092 18.1944 3.58759 16.8319 2.822L16.7891 2.79796C15.4658 2.05425 13.9738 1.21574 11.9798 1.25108C9.97986 1.25314 8.41346 2.13271 7.06657 2.88902L6.99064 2.93164C5.57601 3.72558 4.41847 4.34816 3.01346 4.25265C2.63896 4.2272 2.30332 4.48251 2.22789 4.8502C1.20563 9.83321 1.88066 13.9278 3.70684 16.9833C5.53329 20.0392 8.46897 21.983 11.8234 22.732C11.9371 22.7574 12.0552 22.7559 12.1683 22.7277C15.7577 21.8326 18.6905 19.8249 20.453 16.7618C22.2126 13.7037 22.7551 9.68287 21.7439 4.84739C21.6712 4.49987 21.3648 4.25092 21.0098 4.25092ZM16.7682 8.64021C17.1218 8.21593 17.0645 7.58537 16.6402 7.2318C16.2159 6.87824 15.5853 6.93556 15.2318 7.35984L10.9328 12.5186L9.20711 10.7929C8.81658 10.4024 8.18342 10.4024 7.79289 10.7929C7.40237 11.1834 7.40237 11.8166 7.79289 12.2071L10.2929 14.7071C10.4916 14.9058 10.7646 15.0117 11.0453 14.999C11.326 14.9863 11.5884 14.856 11.7682 14.6402L16.7682 8.64021Z" fill="#141B34"/>
</svg>
