<svg width="24" height="24" viewBox="0 0 24 24" fill="none" xmlns="http://www.w3.org/2000/svg">
<path d="M10.7524 9.75V9C10.7524 8.30964 11.312 7.75 12.0024 7.75C12.6927 7.75 13.2524 8.30964 13.2524 9V9.75H10.7524Z" fill="#141B34"/>
<path fill-rule="evenodd" clip-rule="evenodd" d="M7.19469 2.8128C8.53706 2.08008 10.0578 1.25 12.0002 1.25C13.9519 1.25 15.4746 2.08191 16.818 2.81581L16.8634 2.84064C18.255 3.60075 19.4627 4.2476 20.9862 4.2476H21.5804L21.7163 4.82563C23.7859 13.6288 19.6506 21.1096 12.1575 22.7163L12.0002 22.75L11.8428 22.7163C4.34977 21.1096 0.214551 13.6288 2.28413 4.82563L2.42002 4.2476H3.01426C4.53997 4.2476 5.75149 3.60038 7.14394 2.8405L7.19469 2.8128ZM9.25238 9C9.25238 7.48122 10.4836 6.25 12.0024 6.25C13.5212 6.25 14.7524 7.48122 14.7524 9V9.75H16.2524V16.75H7.75238V9.75H9.25238V9Z" fill="#141B34"/>
</svg>
