<svg width="24" height="24" viewBox="0 0 24 24" fill="none" xmlns="http://www.w3.org/2000/svg">
<path fill-rule="evenodd" clip-rule="evenodd" d="M22.75 16.75C22.75 19.5114 20.5114 21.75 17.75 21.75C14.9886 21.75 12.75 19.5114 12.75 16.75C12.75 13.9886 14.9886 11.75 17.75 11.75C20.5114 11.75 22.75 13.9886 22.75 16.75ZM17.009 14.25V16.75H18.509V14.25H17.009ZM18.509 18H17V19.5H18.509V18Z" fill="#141B34"/>
<path d="M8.36333 1.34791C8.71985 1.14549 9.17284 1.26686 9.38041 1.6204C10.5548 3.62068 13.4469 3.62071 14.6212 1.6205C14.8287 1.26695 15.2817 1.14559 15.6383 1.34801L19.1024 3.31482C19.277 3.41396 19.4045 3.57898 19.4565 3.77294C19.5085 3.96689 19.4805 4.17358 19.3788 4.34674C18.2403 6.28608 19.6948 8.78336 22 8.78336C22.4142 8.78336 22.75 9.11914 22.75 9.53336V12.5964C21.5577 11.1627 19.7604 10.25 17.75 10.25C16.9231 10.25 16.1323 10.4044 15.4048 10.6859C15.0379 9.14554 13.6527 8 12 8C10.067 8 8.5 9.567 8.5 11.5C8.5 13.2627 9.80301 14.721 11.4984 14.9643C11.3366 15.5317 11.25 16.1307 11.25 16.75C11.25 17.8844 11.5406 18.9509 12.0514 19.8791C11.0174 19.8623 9.97609 20.3625 9.37882 21.3798C9.17126 21.7334 8.71827 21.8547 8.36175 21.6523L4.89765 19.6855C4.72303 19.5864 4.59546 19.4214 4.5435 19.2274C4.49154 19.0334 4.51952 18.8268 4.62118 18.6536C5.75974 16.7143 4.30517 14.217 2 14.217C1.58579 14.217 1.25 13.8812 1.25 13.467V9.53336C1.25 9.11914 1.58579 8.78336 2 8.78336C4.30575 8.78336 5.76109 6.28558 4.62276 4.34665C4.5211 4.17349 4.49312 3.9668 4.54508 3.77284C4.59704 3.57888 4.72461 3.41387 4.89923 3.31472L8.36333 1.34791Z" fill="#141B34"/>
</svg>
