<svg width="24" height="24" viewBox="0 0 24 24" fill="none" xmlns="http://www.w3.org/2000/svg">
<path opacity="0.4" d="M21.2559 6.63407L20.7623 5.77747C20.3891 5.12964 20.2024 4.80572 19.8848 4.67656C19.5673 4.54739 19.2081 4.64932 18.4898 4.85316L17.2695 5.19686C16.8109 5.30261 16.3298 5.24262 15.911 5.02747L15.5741 4.8331C15.2151 4.60311 14.9389 4.26401 14.786 3.86542L14.452 2.86803C14.2325 2.20802 14.1227 1.87801 13.8613 1.68925C13.5999 1.50049 13.2527 1.50049 12.5584 1.50049H11.4436C10.7493 1.50049 10.4021 1.50049 10.1407 1.68925C9.87931 1.87801 9.76952 2.20802 9.54995 2.86803L9.21598 3.86542C9.0631 4.26401 8.78692 4.60311 8.42783 4.8331L8.09095 5.02747C7.6722 5.24262 7.19106 5.30261 6.73245 5.19686L5.51222 4.85316C4.79389 4.64932 4.43472 4.54739 4.11715 4.67656C3.79957 4.80572 3.61292 5.12964 3.23963 5.77747L2.74604 6.63407C2.39614 7.24132 2.22118 7.54495 2.25514 7.86817C2.28909 8.19139 2.52331 8.45186 2.99174 8.9728L4.02278 10.1255C4.27477 10.4445 4.45368 11.0005 4.45368 11.5003C4.45368 12.0005 4.27483 12.5563 4.0228 12.8754L2.99174 14.0281C2.52331 14.549 2.2891 14.8095 2.25514 15.1327C2.22118 15.456 2.39614 15.7596 2.74605 16.3668L3.23962 17.2234C3.6129 17.8712 3.79957 18.1952 4.11715 18.3243C4.43473 18.4535 4.7939 18.3516 5.51224 18.1477L6.73241 17.804C7.19109 17.6982 7.67233 17.7583 8.09113 17.9735L8.42796 18.1679C8.78697 18.3979 9.0631 18.7369 9.21596 19.1355L9.54995 20.133C9.76952 20.793 9.87931 21.123 10.1407 21.3117C10.4021 21.5005 10.7493 21.5005 11.4436 21.5005H12.5584C13.2527 21.5005 13.5999 21.5005 13.8613 21.3117C14.0613 21.1673 14.1725 20.9403 14.312 20.546C13.0629 19.637 12.251 18.1636 12.251 16.5005C12.251 15.9638 12.3356 15.4468 12.4921 14.9622C12.3293 14.9854 12.1628 14.9974 11.9936 14.9974C11.0725 14.9974 10.0595 14.4662 9.43456 13.8845C8.85289 13.2596 8.49707 12.4216 8.49707 11.5005C8.49707 9.56749 10.0641 8.00049 11.9971 8.00049C12.9182 8.00049 13.7562 8.3563 14.3811 8.93798C14.9628 9.56289 15.4936 10.5763 15.4936 11.4974C15.4936 11.6075 15.4885 11.7163 15.4786 11.8237C16.0295 11.6149 16.6269 11.5005 17.251 11.5005C18.1102 11.5005 18.9187 11.7172 19.625 12.0989C19.576 11.9027 19.5483 11.6972 19.5483 11.5003C19.5483 11.0005 19.7272 10.4445 19.9792 10.1255L21.0102 8.9728C21.4787 8.45186 21.7129 8.19139 21.7468 7.86817C21.7808 7.54495 21.6058 7.24132 21.2559 6.63407Z" fill="#141B34"/>
<path d="M20.483 9.55352C20.963 9.01356 21.791 8.19755 21.7468 7.86523C21.7808 7.54201 21.6058 7.23839 21.2559 6.63114L20.7624 5.77454C20.3891 5.12671 20.2024 4.80279 19.8848 4.67363C19.5673 4.54446 19.2081 4.64639 18.4898 4.85023L17.2695 5.19393C16.8109 5.29968 16.3298 5.23969 15.911 5.02454L15.5741 4.83017C15.2151 4.60018 14.9389 4.26108 14.786 3.86249L14.452 2.8651C14.2325 2.20509 14.1227 1.87508 13.8613 1.68632C13.5999 1.49756 13.2527 1.49756 12.5584 1.49756H11.4436C10.7492 1.49756 10.402 1.49756 10.1407 1.68632C9.8793 1.87508 9.7695 2.20509 9.5499 2.8651L9.216 3.86249C9.0631 4.26108 8.7869 4.60018 8.4278 4.83017L8.0909 5.02454C7.6722 5.23969 7.191 5.29968 6.7324 5.19393L5.51221 4.85023C4.79391 4.64639 4.43471 4.54446 4.11711 4.67363C3.79951 4.80279 3.61291 5.12671 3.23961 5.77454L2.74601 6.63114C2.39612 7.23839 2.22122 7.54201 2.25512 7.86523C2.28912 8.18845 2.52332 8.44893 2.99171 8.96987L4.02281 10.1225C4.27471 10.4415 4.45371 10.9975 4.45371 11.4973C4.45371 11.9975 4.27481 12.5533 4.02281 12.8724L2.99171 14.0251C2.52332 14.546 2.28912 14.8065 2.25512 15.1297C2.22122 15.453 2.39612 15.7566 2.74601 16.3638L3.23961 17.2204C3.61291 17.8682 3.79951 18.1922 4.11711 18.3213C4.43471 18.4505 4.79391 18.3486 5.51221 18.1447L6.7324 17.801C7.1911 17.6952 7.6723 17.7553 8.0911 17.9705L8.4279 18.1649C8.787 18.3949 9.0631 18.7339 9.2159 19.1325L9.5499 20.13C9.7695 20.79 9.8909 21.1331 10.091 21.2775C10.151 21.3208 10.391 21.5175 10.979 21.4995" stroke="#141B34" stroke-width="1.5" stroke-linecap="round"/>
<path d="M15.251 16.7175C15.251 16.7175 16.251 17.0015 16.751 18.0015C16.751 18.0015 17.8472 15.5015 19.259 15.0015" stroke="#141B34" stroke-width="1.5" stroke-linecap="round" stroke-linejoin="round"/>
<path d="M22.251 16.4976C22.251 19.259 20.0124 21.4976 17.251 21.4976C14.4896 21.4976 12.251 19.259 12.251 16.4976C12.251 13.7362 14.4896 11.4976 17.251 11.4976C20.0124 11.4976 22.251 13.7362 22.251 16.4976Z" stroke="#141B34" stroke-width="1.5" stroke-linecap="round"/>
<path d="M14.4109 8.94165C13.5709 8.25765 12.9109 7.99365 11.9509 7.99365C10.1508 8.01765 8.50684 9.50462 8.50684 11.4376C8.50684 12.5033 8.83084 13.1776 9.44284 13.8856" stroke="#141B34" stroke-width="1.5" stroke-linecap="round"/>
</svg>
