<svg width="24" height="24" viewBox="0 0 24 24" fill="none" xmlns="http://www.w3.org/2000/svg">
<path d="M22 11V9.53324C19.1433 9.53324 17.2857 6.43041 18.732 3.96691L15.2679 2.0001C13.8038 4.49405 10.1978 4.49395 8.73363 2L5.26953 3.96681C6.71586 6.43035 4.85673 9.53324 2 9.53324V13.4669C4.85668 13.4669 6.71425 16.5697 5.26795 19.0332L8.73205 21C9.06221 20.4376 9.50121 20.002 10 19.6931M9.5505 14C8.90223 13.3647 8.5 12.4793 8.5 11.5C8.5 9.567 10.067 8 12 8C12.9793 8 13.8647 8.40223 14.5 9.0505" stroke="#141B34" stroke-width="1.5" stroke-linecap="round" stroke-linejoin="round"/>
<path d="M15.5303 16.4697C15.2374 16.1768 14.7626 16.1768 14.4697 16.4697C14.1768 16.7626 14.1768 17.2374 14.4697 17.5303L15.5303 16.4697ZM16.5 18.5L15.9697 19.0303C16.1187 19.1793 16.3235 19.2588 16.534 19.2492C16.7445 19.2397 16.9413 19.142 17.0762 18.9801L16.5 18.5ZM19.5762 15.9801C19.8413 15.6619 19.7983 15.189 19.4801 14.9238C19.1619 14.6587 18.689 14.7017 18.4238 15.0199L19.5762 15.9801ZM22.75 17C22.75 13.8244 20.1756 11.25 17 11.25V12.75C19.3472 12.75 21.25 14.6528 21.25 17H22.75ZM17 11.25C13.8244 11.25 11.25 13.8244 11.25 17H12.75C12.75 14.6528 14.6528 12.75 17 12.75V11.25ZM11.25 17C11.25 20.1756 13.8244 22.75 17 22.75V21.25C14.6528 21.25 12.75 19.3472 12.75 17H11.25ZM17 22.75C20.1756 22.75 22.75 20.1756 22.75 17H21.25C21.25 19.3472 19.3472 21.25 17 21.25V22.75ZM14.4697 17.5303L15.9697 19.0303L17.0303 17.9697L15.5303 16.4697L14.4697 17.5303ZM17.0762 18.9801L19.5762 15.9801L18.4238 15.0199L15.9238 18.0199L17.0762 18.9801Z" fill="#141B34"/>
</svg>
