<svg width="24" height="24" viewBox="0 0 24 24" fill="none" xmlns="http://www.w3.org/2000/svg">
<circle opacity="0.4" cx="12.251" cy="11.75" r="10" fill="#141B34"/>
<path d="M17.709 8.83015L17.4179 8.31619C17.1978 7.92749 17.0877 7.73314 16.9004 7.65564C16.7132 7.57814 16.5013 7.6393 16.0777 7.7616L15.3581 7.96782C15.0876 8.03127 14.8039 7.99528 14.5569 7.86619L14.3582 7.74956C14.1465 7.61157 13.9836 7.40811 13.8934 7.16896L13.6965 6.57053C13.567 6.17452 13.5022 5.97651 13.3481 5.86325C13.194 5.75 12.9892 5.75 12.5797 5.75H11.9223C11.5128 5.75 11.308 5.75 11.1539 5.86325C10.9998 5.97651 10.935 6.17452 10.8055 6.57053L10.6086 7.16896C10.5184 7.40811 10.3555 7.61157 10.1437 7.74956L9.94507 7.86619C9.69811 7.99528 9.41436 8.03127 9.1439 7.96782L8.42427 7.7616C8.00064 7.6393 7.78883 7.57814 7.60154 7.65564C7.41425 7.73314 7.30418 7.92749 7.08403 8.31619L6.79294 8.83015C6.58658 9.1945 6.48341 9.37667 6.50343 9.57061C6.52346 9.7645 6.66158 9.9208 6.93784 10.2334L7.54589 10.925C7.6945 11.1164 7.80001 11.45 7.80001 11.7499C7.80001 12.05 7.69453 12.3835 7.5459 12.5749L6.93784 13.2666C6.66158 13.5791 6.52346 13.7354 6.50343 13.9293C6.48341 14.1233 6.58659 14.3055 6.79294 14.6698L7.08402 15.1837C7.30417 15.5724 7.41425 15.7668 7.60154 15.8443C7.78883 15.9218 8.00065 15.8606 8.42429 15.7383L9.14387 15.5321C9.41438 15.4686 9.69819 15.5047 9.94517 15.6338L10.1438 15.7504C10.3556 15.8884 10.5184 16.0919 10.6086 16.331L10.8055 16.9295C10.935 17.3255 10.9998 17.5235 11.1539 17.6367C11.308 17.75 11.5128 17.75 11.9223 17.75H12.5797C12.9892 17.75 13.194 17.75 13.3481 17.6367C13.5022 17.5235 13.567 17.3255 13.6965 16.9295L13.8934 16.331C13.9836 16.0919 14.1464 15.8884 14.3582 15.7504L14.5568 15.6338C14.8038 15.5047 15.0876 15.4686 15.3581 15.5321L16.0777 15.7383C16.5013 15.8606 16.7131 15.9218 16.9004 15.8443C17.0877 15.7668 17.1978 15.5724 17.418 15.1838L17.709 14.6698C17.9154 14.3055 18.0186 14.1233 17.9985 13.9293C17.9785 13.7354 17.8404 13.5791 17.5641 13.2666L16.9561 12.5749C16.8074 12.3835 16.702 12.05 16.702 11.7499C16.702 11.45 16.8075 11.1164 16.9561 10.925L17.5641 10.2334C17.8404 9.9208 17.9785 9.7645 17.9985 9.57061C18.0186 9.37667 17.9154 9.1945 17.709 8.83015Z" fill="white" stroke="#141B34" stroke-width="1.5" stroke-linecap="round"/>
<path opacity="0.4" d="M12.251 13.5C13.2175 13.5 14.001 12.7165 14.001 11.75C14.001 10.7835 13.2175 10 12.251 10C11.2845 10 10.501 10.7835 10.501 11.75C10.501 12.7165 11.2845 13.5 12.251 13.5Z" fill="#141B34"/>
<path d="M12.251 13.5C13.2175 13.5 14.001 12.7165 14.001 11.75C14.001 10.7835 13.2175 10 12.251 10C11.2845 10 10.501 10.7835 10.501 11.75C10.501 12.7165 11.2845 13.5 12.251 13.5Z" fill="white" stroke="#141B34" stroke-width="1.5"/>
<path d="M19.251 1.75V4.60857C17.4472 2.84032 14.9765 1.75 12.251 1.75C6.72813 1.75 2.25098 6.22715 2.25098 11.75C2.25098 13.1722 2.54787 14.5251 3.08307 15.75M5.25098 21.75V18.8914C7.05473 20.6597 9.52553 21.75 12.251 21.75C17.7738 21.75 22.251 17.2728 22.251 11.75C22.251 10.3278 21.9541 8.97492 21.4189 7.75" stroke="#141B34" stroke-width="1.5" stroke-linecap="round" stroke-linejoin="round"/>
</svg>
