<svg width="24" height="24" viewBox="0 0 24 24" fill="none" xmlns="http://www.w3.org/2000/svg">
<path fill-rule="evenodd" clip-rule="evenodd" d="M18.002 10.8613V13.1387C16.288 13.1387 15.1744 14.9351 16.0421 16.3613L13.9637 17.4999C13.0847 16.0554 10.9201 16.0554 10.0412 17.5L7.96272 16.3613C8.8305 14.9351 7.71596 13.1387 6.00195 13.1387V10.8613C7.71599 10.8613 8.83147 9.06494 7.96367 7.63868L10.0421 6.5C10.9206 7.94387 13.0842 7.94392 13.9627 6.50006L16.0412 7.63874C15.1734 9.06497 16.2879 10.8613 18.002 10.8613ZM12.002 13.75C12.9685 13.75 13.752 12.9665 13.752 12C13.752 11.0335 12.9685 10.25 12.002 10.25C11.0355 10.25 10.252 11.0335 10.252 12C10.252 12.9665 11.0355 13.75 12.002 13.75Z" fill="#141B34"/>
<path fill-rule="evenodd" clip-rule="evenodd" d="M12.001 3.20455C7.14338 3.20455 3.20552 7.1424 3.20552 12C3.20552 13.2527 3.46682 14.4418 3.93695 15.5178L2.1459 16.3004C1.56997 14.9822 1.25098 13.5271 1.25098 12C1.25098 6.06294 6.06392 1.25 12.001 1.25C14.1638 1.25 16.1784 1.88944 17.8646 2.98869V2.22727H19.8192V5.02087C19.8192 5.41438 19.5832 5.76949 19.2204 5.92189C18.8576 6.07428 18.4388 5.99421 18.1578 5.71874C16.5703 4.16251 14.3985 3.20455 12.001 3.20455ZM20.7964 12C20.7964 10.7473 20.5351 9.5582 20.065 8.48218L21.8561 7.69964C22.432 9.01779 22.751 10.4729 22.751 12C22.751 17.9371 17.938 22.75 12.001 22.75C9.83813 22.75 7.82357 22.1106 6.13734 21.0113V21.7727H4.18279V18.9791C4.18279 18.5856 4.4188 18.2305 4.7816 18.0781C5.1444 17.9257 5.5632 18.0058 5.8442 18.2813C7.43168 19.8375 9.60348 20.7955 12.001 20.7955C16.8586 20.7955 20.7964 16.8576 20.7964 12Z" fill="#141B34"/>
</svg>
