<svg width="24" height="24" viewBox="0 0 24 24" fill="none" xmlns="http://www.w3.org/2000/svg">
<path opacity="0.4" d="M9.43084 2.82486C10.3427 2.06304 11.6539 2.05782 12.5715 2.81271C13.6639 3.71129 13.8094 5.34787 12.9052 6.43264L12.0828 7.41927C12.5307 7.44819 13.0228 7.51475 13.3942 7.6648C14.5512 8.13214 15.399 9.15168 15.6726 10.3787C15.76 10.7706 15.7601 11.1762 15.7218 11.6329C15.6842 12.0803 15.6041 12.629 15.504 13.3151L15.504 13.3152L14.8987 16.6511H19.25C20.6503 16.6511 21.75 17.8123 21.75 19.2005C21.75 20.5887 20.6503 21.75 19.25 21.75H11.0155C9.62118 21.75 8.52673 21.75 7.64731 21.6749C6.75087 21.5983 6.00996 21.4396 5.34132 21.0823C4.28997 20.5204 3.43639 19.6407 2.89372 18.5664C2.55001 17.8859 2.39694 17.1319 2.32287 16.2147C2.25004 15.3128 2.25004 14.1892 2.25004 12.7528L2.25004 12.7528C2.24971 11.3349 2.24948 10.2525 2.55231 9.42545C2.64559 9.17068 2.75965 8.92424 2.89334 8.68875C3.32831 7.92256 4.01503 7.34911 5.08426 6.45626L9.43084 2.82486Z" fill="#141B34"/>
</svg>
