<svg width="24" height="24" viewBox="0 0 24 24" fill="none" xmlns="http://www.w3.org/2000/svg">
<path opacity="0.4" d="M12.329 5.95241L10.5 8.14663C11.8897 8.14663 12.5845 8.14663 13.1133 8.36021C14.0353 8.73264 14.7191 9.5491 14.9405 10.542C15.0675 11.1113 14.9644 11.8179 14.7583 13.2311L14 17.4011H19.25C20.2165 17.4011 21 18.2067 21 19.2005C21 20.1943 20.2165 21 19.25 21H11.0505C8.20258 21 6.7786 21 5.69477 20.4208C4.78184 19.9329 4.03745 19.1673 3.56312 18.2282C3 17.1134 3 15.6488 3 12.7195C3 11.1625 3 10.384 3.25654 9.68332C3.33566 9.46725 3.43232 9.25841 3.54552 9.05902C3.91257 8.41248 4.50018 7.92155 5.67536 6.93972L9.91166 3.40042C10.5469 2.86973 11.4559 2.86619 12.095 3.39191C12.8631 4.02379 12.9692 5.18442 12.329 5.95241Z" stroke="#141B34" stroke-width="1.5" stroke-linecap="round" stroke-linejoin="round"/>
<path d="M10.5 8.14648C11.8897 8.14648 12.5845 8.14648 13.1133 8.36006C14.0353 8.7325 14.7191 9.54896 14.9405 10.5418C15.0675 11.1112 14.9644 11.8178 14.7583 13.231L14 17.4009H19.25C20.2165 17.4009 21 18.2066 21 19.2004C21 20.1942 20.2165 20.9999 19.25 20.9999H11.0505C8.20258 20.9999 6.7786 20.9999 5.69477 20.4206C4.78184 19.9328 4.03745 19.1671 3.56312 18.2281C3 17.1133 3 15.6486 3 12.7193C3 11.3916 3 10.63 3.15908 10" stroke="#141B34" stroke-width="1.5" stroke-linecap="round" stroke-linejoin="round"/>
</svg>
