<svg width="24" height="24" viewBox="0 0 24 24" fill="none" xmlns="http://www.w3.org/2000/svg">
<path opacity="0.4" d="M15 5.00002C15 6.65687 13.6569 8.00002 12 8.00002C10.3431 8.00002 9 6.65687 9 5.00002C9 4.82876 9.01435 4.66085 9.04191 4.49744C5.52446 5.72103 3 9.06572 3 13C3 14.1755 3.22536 15.2983 3.63522 16.3277C4.04463 16.1182 4.50851 16 5 16C6.65685 16 8 17.3432 8 19C8 19.6559 7.78949 20.2627 7.43234 20.7564C8.7713 21.5466 10.3327 22 12 22C13.6673 22 15.2287 21.5466 16.5677 20.7564C16.2105 20.2627 16 19.6559 16 19C16 17.3432 17.3431 16 19 16C19.4915 16 19.9554 16.1182 20.3648 16.3277C20.7746 15.2983 21 14.1755 21 13C21 9.06571 18.4755 5.72104 14.9581 4.49744C14.9857 4.66086 15 4.82876 15 5.00002Z" fill="#141B34"/>
<path d="M9 4.5C5.50442 5.70104 3 8.94175 3 12.7511C3 13.9579 3.25134 15.1076 3.70591 16.1534M15 4.5C18.4956 5.70104 21 8.94175 21 12.7511C21 13.7736 20.8195 14.7552 20.4879 15.6674M16.5 20.3296C15.1762 21.074 13.6393 21.5 12 21.5C10.3607 21.5 8.82378 21.074 7.5 20.3296" stroke="#141B34" stroke-width="1.5"/>
<path d="M15 5C15 6.65685 13.6569 8 12 8C10.3431 8 9 6.65685 9 5C9 3.34315 10.3431 2 12 2C13.6569 2 15 3.34315 15 5Z" stroke="#141B34" stroke-width="1.5"/>
<circle cx="5" cy="19" r="3" stroke="#141B34" stroke-width="1.5"/>
<circle cx="19" cy="19" r="3" stroke="#141B34" stroke-width="1.5"/>
</svg>
