<svg width="24" height="24" viewBox="0 0 24 24" fill="none" xmlns="http://www.w3.org/2000/svg">
<path d="M11.7339 2.25C9.80215 2.25043 8.17069 2.25893 6.9621 2.42142C5.65352 2.59735 4.60903 2.96608 3.78745 3.78767C2.96586 4.60925 2.59713 5.65374 2.4212 6.96232C2.24973 8.23767 2.24974 9.98389 2.24976 12.0569C2.24974 14.13 2.24973 15.7623 2.4212 17.0376C2.59713 18.3462 2.96586 19.3907 3.78745 20.2123C4.60903 21.0339 5.65352 21.4026 6.9621 21.5785C8.23745 21.75 9.98366 21.75 12.0567 21.75C14.1297 21.75 15.7621 21.75 17.0374 21.5785C18.346 21.4026 19.3905 21.0339 20.2121 20.2123C21.0337 19.3907 21.4024 18.3462 21.5783 17.0376C21.744 15.8055 21.7496 14.2402 21.7498 12.2662C21.4486 12.4159 21.1091 12.5 20.75 12.5C19.5074 12.5 18.5 11.4926 18.5 10.25V8.68198L12.841 14.341C11.9623 15.2197 10.5377 15.2197 9.65901 14.341C8.78033 13.4623 8.78033 12.0377 9.65901 11.159L15.318 5.5H13.75C12.5074 5.5 11.5 4.49264 11.5 3.25C11.5 2.89079 11.5842 2.55124 11.7339 2.25Z" fill="#141B34"/>
<path fill-rule="evenodd" clip-rule="evenodd" d="M18.3342 4.25161C18.1618 4.2502 17.9684 4.25001 17.75 4.25001H13.75C13.1977 4.25001 12.75 3.80229 12.75 3.25001C12.75 2.69772 13.1977 2.25001 13.75 2.25001H17.75C17.7706 2.25001 17.7911 2.25001 17.8116 2.25C18.4657 2.24994 19.0534 2.24989 19.5292 2.31384C20.0485 2.38367 20.5813 2.5458 21.0178 2.98224C21.4542 3.41868 21.6163 3.95149 21.6862 4.47085C21.7501 4.94656 21.7501 5.53427 21.75 6.1884C21.75 6.20887 21.75 6.22941 21.75 6.25001V10.25C21.75 10.8023 21.3023 11.25 20.75 11.25C20.1977 11.25 19.75 10.8023 19.75 10.25V6.25001C19.75 6.03158 19.7498 5.83825 19.7484 5.66582L11.9571 13.4571C11.5666 13.8476 10.9334 13.8476 10.5429 13.4571C10.1524 13.0666 10.1524 12.4334 10.5429 12.0429L18.3342 4.25161Z" fill="#141B34"/>
</svg>
