<svg width="24" height="24" viewBox="0 0 24 24" fill="none" xmlns="http://www.w3.org/2000/svg">
<path d="M3.43067 4.93449C6.56932 5.16032 8.59312 2.00109 12.0266 2.00109C15.4086 1.93401 17.0635 4.97669 20.5307 4.97669C22.3893 14.3837 18.5226 20.2928 12.0549 22C6.0595 20.583 1.5547 14.6133 3.43067 4.93449Z" stroke="#141B34" stroke-width="1.5"/>
<path d="M14 8C14 9.10453 13.1046 10 12 10C10.8954 10 10 9.10453 10 8C10 6.89543 10.8954 6 12 6C13.1046 6 14 6.89543 14 8Z" stroke="#141B34" stroke-width="1.5" stroke-linecap="round" stroke-linejoin="round"/>
<path d="M12 12.5C9.79085 12.5 8 14.067 8 16H16C16 14.067 14.2091 12.5 12 12.5Z" stroke="#141B34" stroke-width="1.5" stroke-linecap="round"/>
</svg>
