<svg width="24" height="24" viewBox="0 0 24 24" fill="none" xmlns="http://www.w3.org/2000/svg">
<path fill-rule="evenodd" clip-rule="evenodd" d="M12 1.25C10.0526 1.25 8.51842 2.10282 7.20655 2.84783C5.8669 3.60875 4.73793 4.25 3.48516 4.25C3.12786 4.25 2.82016 4.50206 2.74984 4.85238C1.71979 9.9832 2.34002 14.0747 4.07869 17.0932C5.81978 20.1158 8.63583 21.9798 11.8284 22.7301C11.9412 22.7566 12.0587 22.7566 12.1715 22.7301C15.3641 21.9798 18.1801 20.1158 19.9212 17.0932C21.6599 14.0747 22.2801 9.9832 21.2501 4.85238C21.1797 4.50206 20.872 4.25 20.5147 4.25C19.262 4.25 18.133 3.60875 16.7934 2.84783C15.4816 2.10282 13.9474 1.25 12 1.25ZM15.5305 7.46967C15.2376 7.17678 14.7627 7.17678 14.4698 7.46967L10.4709 11.4685C9.63642 11.0716 8.60286 11.2135 7.90667 11.9097C7.01794 12.7984 7.04286 14.2215 7.9123 15.091C8.78498 15.9637 10.2031 15.9772 11.0887 15.0916C11.7837 14.3965 11.9313 13.3638 11.5326 12.5282L13.0001 11.0607L13.9698 12.0303C14.2627 12.3232 14.7376 12.3232 15.0305 12.0303C15.3234 11.7374 15.3234 11.2626 15.0305 10.9697L14.0608 10L15.0001 9.06066L16.4698 10.5303C16.7627 10.8232 17.2376 10.8232 17.5305 10.5303C17.8234 10.2374 17.8234 9.76256 17.5305 9.46967L15.5305 7.46967ZM8.96733 12.9703C9.26235 12.6753 9.742 12.678 10.0336 12.9697C10.322 13.2581 10.3262 13.7327 10.028 14.031C9.73385 14.3251 9.26546 14.3228 8.97296 14.0303C8.67722 13.7346 8.6764 13.2613 8.96733 12.9703Z" fill="#141B34"/>
</svg>
