<svg width="24" height="24" viewBox="0 0 24 24" fill="none" xmlns="http://www.w3.org/2000/svg">
<path d="M21.5 7.74988C21.7204 7.74988 21.9298 7.84729 22.0723 8.0155C22.2145 8.18361 22.2763 8.40567 22.2402 8.62292L21.0752 15.6093L21.0625 15.6835C20.8718 16.8276 20.7174 17.7562 20.501 18.4833C20.2739 19.2459 19.9554 19.876 19.3828 20.3612C18.81 20.8464 18.1354 21.0565 17.3457 21.1552C16.5865 21.2499 15.6354 21.2499 14.4619 21.2499H9.53807C8.3646 21.2499 7.41346 21.2499 6.65428 21.1552C5.86452 21.0565 5.18996 20.8464 4.61717 20.3612C4.04454 19.876 3.72608 19.2459 3.49901 18.4833C3.28252 17.7561 3.12817 16.8268 2.93748 15.6825L2.92479 15.6093L1.75975 8.62292C1.72364 8.40566 1.78543 8.18361 1.92772 8.0155C2.07022 7.84729 2.27952 7.74988 2.49998 7.74988H21.5ZM7.99998 11.7499C7.58578 11.7499 7.24998 12.0857 7.24998 12.4999V16.4999C7.24998 16.9141 7.58578 17.2499 7.99998 17.2499C8.4142 17.2499 8.74998 16.9141 8.74998 16.4999V12.4999C8.74998 12.0857 8.4142 11.7499 7.99998 11.7499ZM12 11.7499C11.5858 11.7499 11.25 12.0857 11.25 12.4999V16.4999C11.25 16.9141 11.5858 17.2499 12 17.2499C12.4142 17.2499 12.75 16.9141 12.75 16.4999V12.4999C12.75 12.0857 12.4142 11.7499 12 11.7499ZM16 11.7499C15.5858 11.7499 15.25 12.0857 15.25 12.4999V16.4999C15.25 16.9141 15.5858 17.2499 16 17.2499C16.4142 17.2499 16.75 16.9141 16.75 16.4999V12.4999C16.75 12.0857 16.4142 11.7499 16 11.7499Z" fill="#141B34"/>
<path d="M8.1426 3.23533C8.42679 2.76186 9.04114 2.60844 9.51467 2.89256C9.98814 3.17674 10.1416 3.7911 9.85745 4.26463L6.85745 9.26463C6.57326 9.7381 5.95891 9.89152 5.48538 9.6074C5.01191 9.32322 4.85848 8.70886 5.1426 8.23533L8.1426 3.23533ZM14.4854 2.89256C14.9589 2.60844 15.5733 2.76186 15.8574 3.23533L18.8574 8.23533C19.1416 8.70886 18.9881 9.32322 18.5147 9.6074C18.0411 9.89152 17.4268 9.7381 17.1426 9.26463L14.1426 4.26463C13.8585 3.7911 14.0119 3.17674 14.4854 2.89256Z" fill="#141B34"/>
<path d="M22.25 7.49988C22.8023 7.49988 23.25 7.94759 23.25 8.49988C23.25 9.05216 22.8023 9.49988 22.25 9.49988H1.75C1.19772 9.49988 0.75 9.05216 0.75 8.49988C0.75 7.94759 1.19772 7.49988 1.75 7.49988H22.25Z" fill="#141B34"/>
</svg>
