<svg width="24" height="24" viewBox="0 0 24 24" fill="none" xmlns="http://www.w3.org/2000/svg">
<path d="M8.14258 3.23535C8.42678 2.76196 9.04115 2.6085 9.51465 2.89258C9.98809 3.17675 10.1415 3.79113 9.85742 4.26465L7.91699 7.5H16.083L14.1426 4.26465C13.8585 3.79112 14.0119 3.17675 14.4854 2.89258C14.9589 2.60852 15.5732 2.76196 15.8574 3.23535L18.416 7.5H22.25C22.8023 7.5 23.25 7.94772 23.25 8.5C23.25 9.05228 22.8023 9.5 22.25 9.5H22.0938L20.5186 18.9521C20.2975 20.278 19.1498 21.2498 17.8057 21.25H6.19434C4.85019 21.2498 3.70246 20.278 3.48145 18.9521L1.90625 9.5H1.75C1.19772 9.5 0.75 9.05228 0.75 8.5C0.75 7.94772 1.19772 7.5 1.75 7.5H5.58398L8.14258 3.23535ZM8 11.75C7.58595 11.7502 7.25 12.0859 7.25 12.5V16.5C7.25 16.9141 7.58595 17.2498 8 17.25C8.41404 17.2498 8.75 16.9141 8.75 16.5V12.5C8.75 12.0859 8.41404 11.7502 8 11.75ZM12 11.75C11.5859 11.7502 11.25 12.0859 11.25 12.5V16.5C11.25 16.9141 11.5859 17.2498 12 17.25C12.414 17.2498 12.75 16.9141 12.75 16.5V12.5C12.75 12.0859 12.414 11.7502 12 11.75ZM16 11.75C15.5859 11.7502 15.25 12.0859 15.25 12.5V16.5C15.25 16.9141 15.5859 17.2498 16 17.25C16.414 17.2498 16.75 16.9141 16.75 16.5V12.5C16.75 12.0859 16.414 11.7502 16 11.75Z" fill="#141B34"/>
</svg>
