<svg width="24" height="24" viewBox="0 0 24 24" fill="none" xmlns="http://www.w3.org/2000/svg">
<path d="M17.499 7.50431C17.499 4.46369 15.0366 1.99878 11.999 1.99878C8.96145 1.99878 6.49902 4.46369 6.49902 7.50431" stroke="#141B34" stroke-width="1.5"/>
<path d="M11.9856 22.0011H5.04591L2.49918 7.51638C2.4981 7.51026 2.50281 7.50464 2.50903 7.50464H21.49C21.4963 7.50464 21.501 7.51029 21.4999 7.51643L20.704 11.9979" stroke="#141B34" stroke-width="1.5"/>
<path d="M16.891 14.0213C15.5122 14.1007 14.4033 15.2678 13.1842 15.2264C12.8594 16.3782 12.6807 19.1257 14.6816 20.885C15.1921 21.3339 16.247 21.9249 16.9775 22C17.7138 21.9325 18.9683 21.2588 19.3337 20.8746C19.9892 20.1852 21.5617 18.7946 20.818 15.2252C19.4714 15.2623 18.3782 13.9357 16.891 14.0213Z" stroke="#141B34" stroke-width="1.5"/>
</svg>
