<svg width="24" height="24" viewBox="0 0 24 24" fill="none" xmlns="http://www.w3.org/2000/svg">
<path opacity="0.4" d="M15 7C16.8856 7 17.8283 7.00015 18.4141 7.58594C18.9998 8.17172 19 9.11438 19 11V15C19 15.3578 18.9994 15.6963 18.998 16.0166C18.5531 16.0715 18.0882 16.2896 17.5 16.8828C16.8 16.1769 16.275 16 15.75 16C14.737 16 14.0002 16.8206 14 17.833C14 19.357 15.9365 20.9187 16.9287 21.6191C15.8813 21.9966 14.365 22 12 22H10C6.70017 22 5.05052 21.9997 4.02539 20.9746C3.00026 19.9495 3 18.2998 3 15V11C3 9.11438 3.00015 8.17172 3.58594 7.58594C4.17172 7.00015 5.11438 7 7 7H15Z" fill="#141B34"/>
<path d="M12.5 22H10C6.70017 22 5.05025 22 4.02513 20.9749C3 19.9497 3 18.2998 3 15V11C3 9.11438 3 8.17157 3.58579 7.58579C4.17157 7 5.11438 7 7 7H15C16.8856 7 17.8284 7 18.4142 7.58579C19 8.17157 19 9.11438 19 11V13" stroke="#141B34" stroke-width="1.5" stroke-linecap="round" stroke-linejoin="round"/>
<path d="M15 9.5C15 5.63401 13.2091 2 11 2C8.79086 2 7 5.63401 7 9.5" stroke="#141B34" stroke-width="1.5" stroke-linecap="round" stroke-linejoin="round"/>
<path d="M17.5 22C17.5 22 14 19.8824 14 17.8333C14 16.8208 14.7368 16 15.75 16C16.275 16 16.8 16.1765 17.5 16.8824C18.2 16.1765 18.725 16 19.25 16C20.2632 16 21 16.8208 21 17.8333C21 19.8824 17.5 22 17.5 22Z" stroke="#141B34" stroke-width="1.5" stroke-linecap="round" stroke-linejoin="round"/>
</svg>
