<svg width="24" height="24" viewBox="0 0 24 24" fill="none" xmlns="http://www.w3.org/2000/svg">
<path opacity="0.4" d="M3.60622 6.67985C3.96847 6.62488 4.42069 6.62494 4.91418 6.625H18.8358C19.3293 6.62494 19.7815 6.62488 20.1438 6.67985C20.5459 6.74089 20.9689 6.88713 21.2795 7.28259C21.5825 7.66848 21.6366 8.1121 21.6231 8.51862C21.6106 8.89781 21.5326 9.36325 21.4447 9.88736L20.7697 13.9167C20.7348 14.1255 20.7173 14.23 20.6581 14.2952C20.5989 14.3604 20.4754 14.3936 20.2284 14.46C20.1775 14.4737 20.1266 14.489 20.076 14.5061C19.0395 14.8557 18.1266 15.4903 17.4098 16.089C17.3562 16.1338 17.303 16.179 17.2502 16.2245C17.1628 16.2998 17.1192 16.3374 17.0686 16.3562C17.0181 16.375 16.9621 16.375 16.85 16.375H3.89991C3.65734 16.375 3.53606 16.375 3.45216 16.304C3.36826 16.233 3.34823 16.1134 3.30815 15.8741L2.30527 9.88734C2.21742 9.36322 2.13942 8.89782 2.12686 8.51862C2.1134 8.1121 2.16745 7.66848 2.47054 7.28259C2.78113 6.88713 3.20406 6.74089 3.60622 6.67985Z" fill="#141B34"/>
<path fill-rule="evenodd" clip-rule="evenodd" d="M11.875 3.125C9.66586 3.125 7.875 4.91586 7.875 7.125V7.625C7.875 8.17728 7.42728 8.625 6.875 8.625C6.32272 8.625 5.875 8.17728 5.875 7.625V7.125C5.875 3.81129 8.56129 1.125 11.875 1.125C15.1887 1.125 17.875 3.81129 17.875 7.125V7.625C17.875 8.17728 17.4273 8.625 16.875 8.625C16.3227 8.625 15.875 8.17728 15.875 7.625V7.125C15.875 4.91586 14.0841 3.125 11.875 3.125Z" fill="#141B34"/>
<path d="M21.8225 16.5557C21.9991 17.079 21.7179 17.6463 21.1946 17.8228C20.7446 17.9746 20.218 18.3041 19.6534 18.7756C19.0984 19.2391 18.557 19.7973 18.0758 20.3467C17.5964 20.8939 17.0772 21.5809 16.7895 21.9691C16.646 22.1627 16.5331 22.3213 16.4569 22.4302C16.2611 22.7236 15.9249 22.8924 15.5726 22.8739C15.2202 22.8554 14.9036 22.6526 14.7396 22.3401C14.3663 21.629 14.0381 21.3578 13.8859 21.2612C13.8315 21.2267 13.7936 21.2104 13.7753 21.2037C13.2698 21.1536 12.875 20.7272 12.875 20.2086C12.875 19.6563 13.3227 19.2086 13.875 19.2086C14.4273 19.2086 14.7075 19.4137 14.9579 19.5727C15.1811 19.7145 15.4127 19.9037 15.6451 20.1536C15.9073 19.8158 16.2209 19.4289 16.5713 19.0289C17.0938 18.4324 17.7104 17.7927 18.3714 17.2406C19.0228 16.6965 19.7701 16.1926 20.5554 15.9277C21.0787 15.7512 21.646 16.0323 21.8225 16.5557Z" fill="#141B34"/>
<path d="M11.8394 18.757C11.9696 18.5747 12.0347 18.4835 12.0068 18.4292C11.9789 18.375 11.8745 18.375 11.6658 18.375H4.45738C4.1201 18.375 3.95147 18.375 3.8614 18.4869C3.77134 18.5989 3.80669 18.7602 3.8774 19.0829C3.93447 19.3433 3.99406 19.5846 4.05869 19.8071C4.28253 20.578 4.59069 21.2161 5.14388 21.7098C5.70216 22.2081 6.36045 22.4261 7.13033 22.5279C7.86438 22.6251 8.78061 22.625 9.90318 22.625H11.8373C12.3053 22.625 12.5393 22.625 12.5655 22.5651C12.5917 22.5051 12.413 22.3119 12.0556 21.9256C11.6356 21.4715 11.3752 20.8647 11.3752 20.2083C11.3752 19.6672 11.5471 19.1662 11.8394 18.757Z" fill="#141B34"/>
</svg>
