<svg width="24" height="24" viewBox="0 0 24 24" fill="none" xmlns="http://www.w3.org/2000/svg">
<path opacity="0.4" d="M21.5008 7.24976C21.7212 7.24985 21.9307 7.34724 22.0731 7.51538C22.2153 7.68346 22.2772 7.90563 22.2411 8.1228L21.5077 12.5144C21.3378 12.5329 21.1669 12.5702 20.9989 12.6296C19.8488 13.0371 18.9021 13.7937 18.1756 14.53C17.4345 15.2815 16.8048 16.1324 16.3065 16.8962L16.286 16.9275C16.0241 16.7858 15.7722 16.6846 15.5389 16.6179C15.3695 16.5696 15.0373 16.5007 14.7499 16.5007C13.5074 16.5009 12.4999 17.5082 12.4999 18.7507C12.5 19.6245 12.9991 20.3776 13.7264 20.7498H9.53795C8.36476 20.7498 7.41422 20.7497 6.65514 20.655C5.86546 20.5564 5.19077 20.3462 4.61803 19.8611C4.04542 19.3759 3.72693 18.7458 3.49986 17.9832C3.28337 17.256 3.12805 16.3267 2.93736 15.1824L2.92565 15.1091L1.76061 8.1228C1.72449 7.90554 1.78629 7.68349 1.92858 7.51538C2.07108 7.34726 2.28045 7.24976 2.50084 7.24976H21.5008Z" fill="#141B34"/>
<path d="M7.2505 15.9998V11.9998C7.2505 11.5855 7.58629 11.2498 8.0005 11.2498C8.41472 11.2498 8.7505 11.5855 8.7505 11.9998V15.9998C8.7505 16.414 8.41472 16.7498 8.0005 16.7498C7.58629 16.7498 7.2505 16.414 7.2505 15.9998ZM11.2505 15.9998V11.9998C11.2505 11.5855 11.5863 11.2498 12.0005 11.2498C12.4147 11.2498 12.7505 11.5855 12.7505 11.9998V15.9998C12.7505 16.414 12.4147 16.7498 12.0005 16.7498C11.5863 16.7498 11.2505 16.414 11.2505 15.9998Z" fill="#141B34"/>
<path d="M8.14272 2.73505C8.42691 2.26165 9.04128 2.10821 9.51479 2.39227C9.98823 2.67645 10.1416 3.29082 9.85756 3.76434L7.91615 6.9997H16.0841L14.1427 3.76434C13.8587 3.29082 14.012 2.67645 14.4855 2.39227C14.959 2.10821 15.5734 2.26165 15.8576 2.73505L18.4162 6.9997H22.2501C22.8024 6.9997 23.2501 7.44741 23.2501 7.9997C23.2501 8.55198 22.8024 8.9997 22.2501 8.9997H1.75014C1.19785 8.9997 0.750137 8.55198 0.750137 7.9997C0.750137 7.44741 1.19785 6.9997 1.75014 6.9997H5.58412L8.14272 2.73505Z" fill="#141B34"/>
<path d="M22.6926 14.4158C22.5081 13.8954 21.9367 13.6231 21.4162 13.8074C20.5127 14.1275 19.7223 14.7413 19.0656 15.407C18.4022 16.0796 17.8243 16.8567 17.3537 17.5779C17.0781 18.0004 16.8355 18.4112 16.6291 18.7801C16.3908 18.52 16.1568 18.319 15.9299 18.1678C15.6555 17.9848 15.4043 17.8785 15.1965 17.8191C15.0934 17.7897 14.8826 17.7498 14.7502 17.7498C14.1979 17.7498 13.7502 18.1975 13.7502 18.7498C13.7502 19.2695 14.1466 19.6963 14.6535 19.7449C14.6738 19.7515 14.7323 19.773 14.8205 19.8318C15.0198 19.9647 15.415 20.3157 15.8557 21.1971C16.0293 21.5444 16.3884 21.76 16.7766 21.7498C17.1647 21.7395 17.5121 21.5042 17.6672 21.1482C17.7279 21.0188 17.9064 20.6396 18.0246 20.409C18.2616 19.9464 18.6042 19.3221 19.0285 18.6717C19.4549 18.0181 19.9508 17.3574 20.4894 16.8113C21.0349 16.2584 21.576 15.8722 22.0842 15.6922C22.6046 15.5077 22.8769 14.9364 22.6926 14.4158Z" fill="#141B34"/>
</svg>
