<svg width="24" height="24" viewBox="0 0 24 24" fill="none" xmlns="http://www.w3.org/2000/svg">
<path d="M13.85 9.30263C13.85 7.60378 13.4529 5.98066 12.8443 4.81373C12.2037 3.58541 11.4988 3.14474 11 3.14474C10.5012 3.14474 9.7963 3.58541 9.15566 4.81373C8.54707 5.98066 8.15 7.60378 8.15 9.30263C8.15 9.82585 7.72467 10.25 7.2 10.25C6.67533 10.25 6.25 9.82585 6.25 9.30263C6.25 7.33906 6.70329 5.4095 7.46997 3.93945C8.20467 2.53078 9.40009 1.25 11 1.25C12.5999 1.25 13.7953 2.53078 14.53 3.93945C15.2967 5.4095 15.75 7.33906 15.75 9.30263C15.75 9.82585 15.3247 10.25 14.8 10.25C14.2753 10.25 13.85 9.82585 13.85 9.30263Z" fill="#141B34"/>
<path d="M19.9746 21.7061C20.8285 21.0087 21.7499 19.8528 21.75 18.1504V16.0498C21.7499 15.8382 21.6607 15.6363 21.5039 15.4941C20.64 14.7116 19.3706 14.25 18 14.25C16.6294 14.25 15.36 14.7116 14.4961 15.4941C14.3393 15.6363 14.2501 15.8382 14.25 16.0498V18.1504C14.2501 19.8528 15.1715 21.0087 16.0254 21.7061C16.4527 22.055 16.8764 22.3022 17.1924 22.4619C17.3513 22.5422 17.6551 22.6677 17.752 22.708L17.875 22.7393C17.9993 22.7603 18.1278 22.7501 18.248 22.708L18.2618 22.7023C18.3709 22.6568 18.6549 22.5386 18.8066 22.4619C19.1226 22.3022 19.5472 22.0551 19.9746 21.7061Z" fill="#141B34"/>
<path d="M17.3193 6.13672C18.6615 6.13672 19.7498 7.22997 19.75 8.5791V13.2158C19.1868 13.0734 18.597 13 18 13C16.365 13 14.7828 13.548 13.6572 14.5674C13.2907 14.8997 13.062 15.3542 13.0107 15.8398L13 16.0498V18.1504L13.0137 18.5557C13.1503 20.5402 14.2726 21.8882 15.2344 22.6738C15.2664 22.7 15.2991 22.7248 15.3311 22.75H6.13867C3.991 22.7499 2.25 20.9997 2.25 18.8408V8.5791C2.25024 7.22997 3.33845 6.13672 4.68066 6.13672H17.3193Z" fill="#141B34"/>
</svg>
