<svg width="24" height="24" viewBox="0 0 24 24" fill="none" xmlns="http://www.w3.org/2000/svg">
<path d="M14.3355 17.0439L15.7583 18.4492L17.4995 16.6855V21.749H19.4995V16.6855L21.2408 18.4492L22.6636 17.0439L18.4995 12.8252L14.3355 17.0439Z" fill="#141B34"/>
<path d="M21.2818 13.8672L18.4995 11.0479L12.5679 17.0576L16.2495 20.708V20.751H3.8638L1.6138 7.25098H22.3853L21.2818 13.8672ZM7.24954 11.251V16.751H8.74954V11.251H7.24954ZM11.2495 11.251V16.751H12.7495V11.251H11.2495Z" fill="#141B34"/>
<path d="M23.2495 7.00098H18.5142L15.8921 2.25098L14.1411 3.2168L16.229 7.00098H7.77103L9.85892 3.2168L8.10696 2.25098L5.48587 7.00098H0.749542V9.00098H23.2495V7.00098Z" fill="#141B34"/>
</svg>
