<svg width="24" height="24" viewBox="0 0 24 24" fill="none" xmlns="http://www.w3.org/2000/svg">
<path fill-rule="evenodd" clip-rule="evenodd" d="M2 1C1.44772 1 1 1.44772 1 2C1 2.55228 1.44772 3 2 3L2.966 3C3.47229 3 3.88381 3.33282 3.99481 3.76415L6.97007 15.3257C7.04276 15.6082 6.98213 15.9102 6.79668 16.1505L6.1384 17.0031C6.09253 17.0011 6.04639 17 6 17C4.34315 17 3 18.3431 3 20C3 21.6569 4.34315 23 6 23C7.30622 23 8.41746 22.1652 8.82929 21H14.1707C14.5825 22.1652 15.6938 23 17 23C18.6569 23 20 21.6569 20 20C20 18.3431 18.6569 17 17 17C15.6938 17 14.5825 17.8348 14.1707 19H8.82929C8.66671 18.54 8.39513 18.1315 8.04559 17.8055L8.37979 17.3727C8.48357 17.2382 8.57485 17.0965 8.65324 16.9491L16.8032 16.2699C18.1572 16.1571 19.3351 15.9448 20.1489 15.1531C20.9628 14.3613 21.2074 13.1897 21.3574 11.8393L21.8951 7H22C22.5523 7 23 6.55228 23 6C23 5.44772 22.5523 5 22 5H21.0099H20.9878L19.5 5C18.9477 5 18.5 5.44772 18.5 6C18.5 6.55228 18.9477 7 19.5 7H19.8828L19.3696 11.6185C19.2173 12.9892 19.0044 13.4762 18.7543 13.7195C18.5042 13.9628 18.0116 14.1623 16.6371 14.2768L8.92905 14.9191C8.92219 14.8885 8.91483 14.8578 8.90696 14.8273L6.89269 7H7C7.55228 7 8 6.55228 8 6C8 5.44772 7.55228 5 7 5H6.37801L5.93171 3.26571C5.58447 1.91637 4.34908 1 2.966 1L2 1ZM18.8338 3.9429C19.3544 3.75852 19.627 3.18702 19.4426 2.66643C19.2582 2.14583 18.6868 1.87327 18.1662 2.05765C17.288 2.36865 16.4486 2.96179 15.712 3.60781C14.965 4.26292 14.2666 5.02349 13.6733 5.73468C13.234 6.26128 12.8456 6.76895 12.5304 7.1997C12.2416 6.85384 11.954 6.60107 11.6797 6.41822C11.4053 6.23529 11.1545 6.12939 10.9466 6.07C10.7642 6.01787 10.6368 6.00066 10.502 6.00027C9.9565 5.99948 9.5 6.45416 9.5 7.00027C9.5 7.52099 9.89799 7.94874 10.4064 7.99595C10.976 8.18834 11.3634 8.96312 11.6052 9.44666L11.6056 9.44749C11.7668 9.76985 12.0889 9.98053 12.4489 9.99896C12.8087 10.0174 13.1508 9.84059 13.3441 9.53651L13.3451 9.53496C13.5091 9.27893 13.6821 9.02848 13.8574 8.78008C14.1885 8.31109 14.6572 7.67736 15.2091 7.01586C15.7628 6.35205 16.388 5.67513 17.0307 5.11148C17.6837 4.53876 18.3002 4.1319 18.8338 3.9429ZM6 19C5.44772 19 5 19.4477 5 20C5 20.5523 5.44772 21 6 21C6.55228 21 7 20.5523 7 20C7 19.4477 6.55228 19 6 19ZM17 21C16.4477 21 16 20.5523 16 20C16 19.4477 16.4477 19 17 19C17.5523 19 18 19.4477 18 20C18 20.5523 17.5523 21 17 21Z" fill="#141B34"/>
</svg>
