<svg width="24" height="24" viewBox="0 0 24 24" fill="none" xmlns="http://www.w3.org/2000/svg">
<path fill-rule="evenodd" clip-rule="evenodd" d="M3.65516 7.25L20.0949 7.25H20.0949C20.3869 7.24999 20.643 7.24998 20.8535 7.26435C21.0735 7.27936 21.309 7.31297 21.5394 7.41459C21.9272 7.58554 22.2238 7.84738 22.4089 8.19165C22.5871 8.52281 22.6299 8.87028 22.6246 9.16755C22.6192 9.46288 22.5651 9.75163 22.5112 9.99262C22.4808 10.1287 22.3771 10.5616 22.3618 10.6252L22.3603 10.6317L22.3582 10.6412C22.2751 11.0224 22.0166 11.3302 21.6781 11.4908C21.4062 11.6198 21.1729 12.0093 21.0438 12.3473C20.9745 12.5288 20.9398 12.6195 20.8979 12.6633C20.856 12.7071 20.7804 12.7398 20.6292 12.8053C19.6608 13.2247 18.7996 13.8644 18.0979 14.4798C17.4072 15.0856 16.6137 15.947 16.0081 16.6496L16.0081 16.6496C15.8532 16.8293 15.7757 16.9192 15.6793 16.941C15.5828 16.9628 15.4634 16.9103 15.2245 16.8052C15.0551 16.7307 14.8908 16.6723 14.7337 16.6274L14.7317 16.6269C14.5945 16.5877 14.2877 16.5 13.875 16.5C12.4943 16.5 11.375 17.6193 11.375 19C11.375 20.1207 12.1116 21.0681 13.1277 21.3861L13.1323 21.3875C13.1664 21.3982 13.1863 21.4043 13.2103 21.4326C13.3149 21.5556 13.2277 21.7499 13.0663 21.7499L10.7598 21.75C9.42483 21.75 8.35671 21.75 7.50578 21.6499C6.62715 21.5465 5.88909 21.3281 5.25955 20.8271L5.25667 20.8248C4.41862 20.151 4.01701 19.17 3.78458 18.2651C3.62783 17.6549 3.52861 16.9808 3.44396 16.4057L2.74437 12.3431C2.68215 11.9888 2.44139 11.6661 2.07188 11.4908C1.73343 11.3302 1.47487 11.0224 1.39181 10.6412L1.38972 10.6317L1.38818 10.6252C1.37293 10.5616 1.26921 10.1287 1.23876 9.99262C1.18486 9.75163 1.13076 9.46287 1.12543 9.16755C1.12007 8.87028 1.16292 8.5228 1.34105 8.19165C1.52624 7.84738 1.82281 7.58554 2.21055 7.41459C2.44103 7.31297 2.67647 7.27936 2.89649 7.26435C3.10704 7.24998 3.36316 7.24999 3.65514 7.25H3.65516ZM9.875 11.25C9.46079 11.25 9.125 11.5858 9.125 12C9.125 12.4142 9.46079 12.75 9.875 12.75L13.875 12.75C14.2892 12.75 14.625 12.4142 14.625 12C14.625 11.5858 14.2892 11.25 13.875 11.25L9.875 11.25Z" fill="#141B34"/>
<path fill-rule="evenodd" clip-rule="evenodd" d="M10.2761 2.0841C10.7821 2.30546 11.0128 2.89509 10.7914 3.40107L7.29141 11.4011C7.07004 11.9071 6.48041 12.1378 5.97443 11.9164C5.46845 11.695 5.23773 11.1054 5.4591 10.5994L8.9591 2.59943C9.18046 2.09345 9.77009 1.86273 10.2761 2.0841Z" fill="#141B34"/>
<path fill-rule="evenodd" clip-rule="evenodd" d="M14.428 2.10579C14.922 1.8588 15.5227 2.05903 15.7696 2.55301L18.2696 7.55301C18.5166 8.04698 18.3164 8.64766 17.8224 8.89465C17.3285 9.14164 16.7278 8.94141 16.4808 8.44743L13.9808 3.44743C13.7338 2.95345 13.934 2.35278 14.428 2.10579Z" fill="#141B34"/>
<path d="M22.8176 14.6664C23.002 15.187 22.7294 15.7585 22.2088 15.9429C21.6752 16.1319 21.0587 16.5388 20.4057 17.1115C19.763 17.6751 19.1378 18.3521 18.5841 19.0159C18.0322 19.6774 17.5635 20.3111 17.2324 20.7801C17.0672 21.0141 16.807 21.4044 16.7191 21.5365C16.5258 21.8406 16.1837 22.0174 15.8239 21.999C15.4639 21.9805 15.1418 21.7698 14.9806 21.4475C14.5399 20.5661 14.1446 20.2152 13.9453 20.0823C13.861 20.0261 13.804 20.0036 13.7814 19.9959C13.273 19.9487 12.875 19.521 12.875 19.0003C12.875 18.448 13.3227 18.0003 13.875 18.0003C14.0742 18.0003 14.2184 18.0405 14.3216 18.07C14.5295 18.1294 14.7803 18.2353 15.0547 18.4182C15.329 18.6011 15.6166 18.8538 15.9054 19.1997C16.2206 18.7689 16.609 18.2613 17.0483 17.7347C17.6416 17.0235 18.34 16.2629 19.087 15.6078C19.8236 14.9618 20.663 14.3686 21.5412 14.0576C22.0618 13.8733 22.6332 14.1458 22.8176 14.6664Z" fill="#141B34"/>
</svg>
