<svg width="24" height="24" viewBox="0 0 24 24" fill="none" xmlns="http://www.w3.org/2000/svg">
<path d="M3.85352 2.25C5.16503 2.2501 6.25324 3.26407 6.34668 4.57227L6.39551 5.25H12.7363C12.3183 6.09158 12.4579 7.13959 13.1592 7.84082L15.1592 9.84082C16.0378 10.7193 17.4622 10.7193 18.3408 9.84082L22.1768 6.00391C22.532 6.40172 22.75 6.92475 22.75 7.5V11C22.75 14.7278 19.7277 17.7498 16 17.75H11.5859C8.04498 17.7496 5.1058 15.0125 4.85352 11.4805L4.60352 8.23145L4.35156 4.71484C4.33288 4.45326 4.11575 4.2501 3.85352 4.25H2.25C1.69772 4.25 1.25 3.80228 1.25 3.25C1.25 2.69772 1.69772 2.25 2.25 2.25H3.85352Z" fill="#141B34"/>
<path d="M8.25 20.25C8.25 19.4216 8.92157 18.75 9.75 18.75C10.5784 18.75 11.25 19.4216 11.25 20.25C11.25 21.0784 10.5784 21.75 9.75 21.75C8.92157 21.75 8.25 21.0784 8.25 20.25Z" fill="#141B34"/>
<path d="M16.75 20.25C16.75 19.4216 17.4216 18.75 18.25 18.75C19.0784 18.75 19.75 19.4216 19.75 20.25C19.75 21.0784 19.0784 21.75 18.25 21.75C17.4216 21.75 16.75 21.0784 16.75 20.25Z" fill="#141B34"/>
<path d="M21.043 2.54289C21.4335 2.15237 22.0665 2.15237 22.457 2.54289C22.8476 2.93342 22.8476 3.56643 22.457 3.95696L17.457 8.95696C17.0665 9.34748 16.4335 9.34748 16.043 8.95696L14.043 6.95696C13.6524 6.56643 13.6524 5.93342 14.043 5.54289C14.4335 5.15237 15.0665 5.15237 15.457 5.54289L16.75 6.83586L21.043 2.54289Z" fill="#141B34"/>
</svg>
