<svg width="24" height="24" viewBox="0 0 24 24" fill="none" xmlns="http://www.w3.org/2000/svg">
<path fill-rule="evenodd" clip-rule="evenodd" d="M12 3.25C9.79086 3.25 8 5.04086 8 7.25V7.75C8 8.30228 7.55228 8.75 7 8.75C6.44772 8.75 6 8.30228 6 7.75V7.25C6 3.93629 8.68629 1.25 12 1.25C15.3137 1.25 18 3.93629 18 7.25V7.75C18 8.30228 17.5523 8.75 17 8.75C16.4477 8.75 16 8.30228 16 7.75V7.25C16 5.04086 14.2091 3.25 12 3.25Z" fill="#141B34"/>
<path d="M15.028 13.7677C15.5535 13.5091 16.1975 13.25 16.9993 13.25C17.8011 13.25 18.4453 13.5091 18.971 13.7676C19.1494 13.8554 19.3038 13.9363 19.4442 14.0099C19.7544 14.1725 19.996 14.2991 20.2769 14.3842C20.4566 14.4387 20.6443 14.4955 20.7752 14.5442C20.8874 14.586 21.106 14.6705 21.2761 14.85C21.426 15.0083 21.4969 15.1817 21.5373 15.3162C21.5707 15.4272 21.5988 15.5758 21.6186 15.6802C22.1761 18.6167 20.9481 21.456 17.9354 22.5518C17.6623 22.6513 17.3912 22.75 17.0007 22.75C16.6102 22.75 16.3391 22.6513 16.0659 22.5518C13.0533 21.4561 11.824 18.617 12.3814 15.6802C12.4012 15.5758 12.4293 15.4273 12.4626 15.3163C12.503 15.1818 12.5739 15.0084 12.7238 14.8501C12.8939 14.6706 13.1124 14.5861 13.2247 14.5443C13.3556 14.4956 13.5432 14.4387 13.723 14.3842C14.0037 14.2991 14.245 14.1726 14.555 14.01C14.6953 13.9364 14.8496 13.8555 15.028 13.7677Z" fill="#141B34"/>
<path d="M3.73122 6.80485C4.09347 6.74988 4.54569 6.74994 5.03918 6.75H18.9608C19.4543 6.74994 19.9065 6.74988 20.2688 6.80485C20.6709 6.86589 21.0939 7.01213 21.4045 7.40759C21.7075 7.79348 21.7616 8.2371 21.7481 8.64362C21.7356 9.02281 21.6576 9.48825 21.5697 10.0124L21.1767 12.3587C21.1203 12.6953 21.0921 12.8636 20.9592 12.9326C20.8263 13.0016 20.6745 12.9289 20.3711 12.7833C20.0747 12.6412 19.7697 12.4918 19.6332 12.4217C19.0264 12.1232 18.1381 11.75 16.9994 11.75C15.8606 11.75 14.9725 12.1232 14.3658 12.4218C14.1701 12.5182 14.0015 12.6066 13.8628 12.6793C13.6455 12.7836 13.1068 13.0223 12.6902 13.1427C12.546 13.1961 12.0507 13.3796 11.6349 13.8186C11.265 14.2092 11.1041 14.6255 11.0262 14.8847C10.9692 15.0743 10.9253 15.3077 10.9077 15.4013C10.8738 15.5803 10.8454 15.7595 10.8226 15.9387C10.7877 16.2131 10.7702 16.3502 10.6852 16.4251C10.6002 16.5 10.4686 16.5 10.2055 16.5H4.02491C3.78234 16.5 3.66106 16.5 3.57716 16.429C3.49326 16.358 3.47323 16.2384 3.43315 15.9991L2.43027 10.0123C2.34242 9.48822 2.26442 9.02282 2.25186 8.64362C2.2384 8.2371 2.29245 7.79348 2.59554 7.40759C2.90613 7.01213 3.32906 6.86589 3.73122 6.80485Z" fill="#141B34"/>
<path d="M10.9918 18.9881C10.9311 18.7472 10.9007 18.6267 10.8194 18.5633C10.7381 18.5 10.6207 18.5 10.3859 18.5H4.58218C4.24491 18.5 4.07627 18.5 3.98621 18.6119C3.89614 18.7239 3.9315 18.8852 4.0022 19.2079C4.05928 19.4683 4.11886 19.7096 4.18349 19.9321C4.40733 20.703 4.7155 21.3411 5.26868 21.8348C5.82696 22.3331 6.48525 22.5511 7.25514 22.6529C7.98918 22.7501 8.90541 22.75 10.028 22.75H11.6748C12.3566 22.75 12.6974 22.75 12.7803 22.584C12.8632 22.418 12.6407 22.1221 12.1957 21.5305C11.6234 20.7694 11.2232 19.9054 10.9918 18.9881Z" fill="#141B34"/>
</svg>
