<svg width="24" height="24" viewBox="0 0 24 24" fill="none" xmlns="http://www.w3.org/2000/svg">
<path fill-rule="evenodd" clip-rule="evenodd" d="M2 1C1.44772 1 1 1.44772 1 2C1 2.55228 1.44772 3 2 3L2.966 3C3.47229 3 3.88381 3.33282 3.99481 3.76415L6.97007 15.3257C7.04276 15.6082 6.98213 15.9102 6.79668 16.1505L6.1384 17.0031C6.09253 17.0011 6.04639 17 6 17C4.34315 17 3 18.3431 3 20C3 21.6569 4.34315 23 6 23C7.30622 23 8.41746 22.1652 8.82929 21H14.1707C14.5825 22.1652 15.6938 23 17 23C18.6569 23 20 21.6569 20 20C20 18.3431 18.6569 17 17 17C15.6938 17 14.5825 17.8348 14.1707 19H8.82929C8.66671 18.54 8.39513 18.1315 8.04559 17.8055L8.37979 17.3727C8.48358 17.2382 8.57487 17.0965 8.65326 16.949L16.8032 16.2699C18.1572 16.157 19.3351 15.9448 20.1489 15.153C20.9628 14.3613 21.2074 13.1897 21.3574 11.8393L21.8951 7H22C22.5523 7 23 6.55228 23 6C23 5.44772 22.5523 5 22 5H21.0124L20.9972 4.99991L20.9853 5L19.5 5C18.9477 5 18.5 5.44772 18.5 6C18.5 6.55228 18.9477 7 19.5 7H19.8828L19.3696 11.6184C19.2173 12.9892 19.0044 13.4762 18.7543 13.7195C18.5042 13.9628 18.0116 14.1622 16.6371 14.2768L8.92904 14.9191C8.92219 14.8884 8.91483 14.8578 8.90696 14.8273L6.87408 6.92768C7.24105 6.77956 7.5 6.42002 7.5 6C7.5 5.44772 7.05228 5 6.5 5H6.37801L5.93171 3.26571C5.58447 1.91637 4.34908 1 2.966 1L2 1ZM14 3C14 2.44772 13.5523 2 13 2C12.4477 2 12 2.44772 12 3L12 5L10 5C9.44771 5 9 5.44772 9 6C9 6.55228 9.44771 7 10 7L12 7V9C12 9.55228 12.4477 10 13 10C13.5523 10 14 9.55228 14 9V7H16C16.5523 7 17 6.55228 17 6C17 5.44772 16.5523 5 16 5H14L14 3ZM6 19C5.44772 19 5 19.4477 5 20C5 20.5523 5.44772 21 6 21C6.55228 21 7 20.5523 7 20C7 19.4477 6.55228 19 6 19ZM17 21C16.4477 21 16 20.5523 16 20C16 19.4477 16.4477 19 17 19C17.5523 19 18 19.4477 18 20C18 20.5523 17.5523 21 17 21Z" fill="#141B34"/>
</svg>
