<svg width="24" height="24" viewBox="0 0 24 24" fill="none" xmlns="http://www.w3.org/2000/svg">
<path fill-rule="evenodd" clip-rule="evenodd" d="M11.5 3.25C9.53777 3.25 8 4.78473 8 6.61364V7.75H6V6.61364C6 3.6226 8.49166 1.25 11.5 1.25C14.5083 1.25 17 3.6226 17 6.61364V7.75H15V6.61364C15 4.78473 13.4622 3.25 11.5 3.25Z" fill="#141B34"/>
<path fill-rule="evenodd" clip-rule="evenodd" d="M17.1288 18.543L14.3359 21.3359L15.7502 22.7502L18.543 19.9573L21.3359 22.7502L22.7502 21.3359L19.9573 18.543L22.7502 15.7502L21.3359 14.3359L18.543 17.1288L15.7502 14.3359L14.3359 15.7502L17.1288 18.543Z" fill="#141B34"/>
<path fill-rule="evenodd" clip-rule="evenodd" d="M20.5712 12.0318L20.5831 12.0731C20.6516 12.3122 20.7181 12.5439 20.7821 12.7684L18.5433 15.0072L15.7504 12.2144L12.2148 15.7499L15.0077 18.5428L12.2148 21.3357L13.5681 22.689C12.8733 22.7321 12.1617 22.7521 11.4529 22.7498C9.82517 22.7446 8.19116 22.6213 6.78633 22.38C5.4116 22.1439 4.15266 21.7783 3.35779 21.2265C2.51618 20.6422 1.86936 19.8277 1.504 18.8829C1.17859 18.0413 1.19665 17.1319 1.38524 16.0691C1.57092 15.0227 1.94299 13.7256 2.41694 12.0732L3.93387 6.75H19.0662L20.5712 12.0318ZM13.5 12H9.5V10H13.5V12Z" fill="#141B34"/>
</svg>
