<svg width="24" height="24" viewBox="0 0 24 24" fill="none" xmlns="http://www.w3.org/2000/svg">
<path d="M18.75 13.7499C19.3023 13.7499 19.75 14.1976 19.75 14.7499V16.7499H21.75C22.3023 16.7499 22.75 17.1976 22.75 17.7499C22.75 18.3022 22.3023 18.7499 21.75 18.7499H19.75V20.7499C19.75 21.3022 19.3023 21.7499 18.75 21.7499C18.1977 21.7499 17.75 21.3022 17.75 20.7499V18.7499H15.75C15.1977 18.7499 14.75 18.3022 14.75 17.7499C14.75 17.1976 15.1977 16.7499 15.75 16.7499H17.75V14.7499C17.75 14.1976 18.1977 13.7499 18.75 13.7499ZM8.14258 2.73523C8.42678 2.26184 9.04115 2.10838 9.51465 2.39246C9.98809 2.67663 10.1415 3.29101 9.85742 3.76453L7.91699 6.99988H16.083L14.1426 3.76453C13.8585 3.291 14.0119 2.67663 14.4854 2.39246C14.9589 2.1084 15.5732 2.26183 15.8574 2.73523L18.416 6.99988H22.25C22.8023 6.99988 23.25 7.44759 23.25 7.99988C23.25 8.55216 22.8023 8.99988 22.25 8.99988H22.0938L21.3281 13.5927H20.6797C20.2863 12.9382 19.5692 12.5 18.75 12.4999C17.5075 12.5001 16.5 13.5074 16.5 14.7499V15.4999H15.75C14.5854 15.5001 13.6271 16.3852 13.5117 17.5194L13.5 17.7499C13.5 18.9924 14.5075 19.9997 15.75 19.9999H16.5V20.7196C15.9114 20.7467 15.2348 20.7499 14.4619 20.7499H9.53711C8.36414 20.7499 7.4133 20.7498 6.6543 20.6552C5.86478 20.5566 5.18985 20.3461 4.61719 19.8612C4.04464 19.3761 3.72609 18.7458 3.49902 17.9833C3.28254 17.2561 3.1272 16.3268 2.93652 15.1825L2.9248 15.1093L1.90625 8.99988H1.75C1.19772 8.99988 0.75 8.55216 0.75 7.99988C0.75 7.44759 1.19772 6.99988 1.75 6.99988H5.58398L8.14258 2.73523ZM8 11.2499C7.58579 11.2499 7.25 11.5857 7.25 11.9999V15.9999C7.25 16.4141 7.58579 16.7499 8 16.7499C8.41386 16.7495 8.75 16.4138 8.75 15.9999V11.9999C8.75 11.5859 8.41386 11.2503 8 11.2499ZM12 11.2499C11.5858 11.2499 11.25 11.5857 11.25 11.9999V15.9999C11.25 16.4141 11.5858 16.7499 12 16.7499C12.4139 16.7495 12.75 16.4138 12.75 15.9999V11.9999C12.75 11.5859 12.4139 11.2503 12 11.2499Z" fill="#141B34"/>
</svg>
