<svg width="24" height="24" viewBox="0 0 24 24" fill="none" xmlns="http://www.w3.org/2000/svg">
<path opacity="0.4" d="M14.211 1.75013C15.7726 1.75013 16.8704 1.72217 17.9063 2.49524C18.9329 3.26159 19.1799 4.16965 19.5587 5.44544C20.0462 7.08796 20.5668 9.382 20.9219 12.4249L20.9278 12.4786C20.9911 13.021 21.0476 13.5298 21.0977 14.007C20.6456 14.0375 20.2009 14.2026 19.8301 14.505L19.6592 14.6593L18.7501 15.5685L17.8409 14.6593C16.9622 13.7806 15.5379 13.7806 14.6592 14.6593C13.7806 15.538 13.7806 16.9623 14.6592 17.8409L15.5684 18.7501L14.6592 19.6593C14.2206 20.0979 14.0008 20.6724 14.0001 21.2472C13.5809 21.2499 13.1392 21.2501 12.6739 21.2501H10.3262C8.44695 21.2502 6.95131 21.2502 5.78033 21.0743C4.56515 20.8919 3.59188 20.5065 2.83697 19.6583C2.09179 18.8211 1.80973 17.8581 1.75885 16.6925C1.71022 15.5779 1.87166 14.198 2.07233 12.4786L2.07819 12.4249C2.43331 9.38201 2.95388 7.08796 3.44147 5.44544C3.82026 4.16944 4.06778 3.26167 5.09479 2.49524C6.1307 1.72225 7.22756 1.75013 8.78912 1.75013H14.211Z" fill="#141B34"/>
<path d="M7.50012 6.5C7.50012 5.94772 7.94784 5.5 8.50012 5.5C9.05241 5.5 9.50012 5.94772 9.50012 6.5C9.50012 7.60457 10.3956 8.5 11.5001 8.5C12.6047 8.5 13.5001 7.60457 13.5001 6.5C13.5001 5.94772 13.9478 5.5 14.5001 5.5C15.0524 5.5 15.5001 5.94772 15.5001 6.5C15.5001 8.70914 13.7093 10.5 11.5001 10.5C9.29098 10.5 7.50012 8.70914 7.50012 6.5Z" fill="#141B34"/>
<path d="M20.543 15.5429C20.9335 15.1524 21.5666 15.1524 21.9571 15.5429C22.3476 15.9334 22.3476 16.5664 21.9571 16.957L20.1641 18.7499L21.9571 20.5429C22.3476 20.9334 22.3476 21.5664 21.9571 21.957C21.5666 22.3475 20.9335 22.3475 20.543 21.957L18.75 20.164L16.9571 21.957C16.5666 22.3475 15.9335 22.3475 15.543 21.957C15.1525 21.5664 15.1525 20.9334 15.543 20.5429L17.336 18.7499L15.543 16.957C15.1525 16.5664 15.1525 15.9334 15.543 15.5429C15.9335 15.1524 16.5666 15.1524 16.9571 15.5429L18.75 17.3359L20.543 15.5429Z" fill="#141B34"/>
</svg>
