<svg width="24" height="24" viewBox="0 0 24 24" fill="none" xmlns="http://www.w3.org/2000/svg">
<path opacity="0.4" d="M20.2199 7.24976L3.78016 7.24976C3.48817 7.24975 3.23204 7.24974 3.02149 7.2641C2.80147 7.27911 2.56603 7.31273 2.33555 7.41434C1.94781 7.58529 1.65124 7.84713 1.46605 8.1914C1.28792 8.52256 1.24507 8.87004 1.25043 9.16731C1.25576 9.46263 1.30986 9.75139 1.36376 9.99238C1.39421 10.1285 1.49793 10.5614 1.51318 10.625C1.51398 10.6283 1.51438 10.63 1.51472 10.6315C1.51507 10.633 1.51565 10.6357 1.51681 10.641C1.59987 11.0222 1.85843 11.3299 2.19688 11.4906C2.56639 11.6659 2.80715 11.9886 2.86937 12.3429L3.56896 16.4054C3.65361 16.9805 3.75283 17.6546 3.90958 18.2649C4.14201 19.1698 4.54362 20.1508 5.38167 20.8245L5.38455 20.8268C6.01409 21.3279 6.75215 21.5463 7.63078 21.6496C8.48171 21.7498 9.54983 21.7498 10.8848 21.7498H13.1152C13.9918 21.7498 14.7534 21.7498 15.4139 21.7214C15.6886 21.7096 15.8259 21.7037 15.9059 21.632C15.9189 21.6203 15.9263 21.6126 15.9374 21.5991C16.0057 21.5161 16.0057 21.344 16.0057 20.9998L16.0057 19.4512C16.0057 19.222 16.0057 19.1073 15.9509 19.0296C15.8962 18.9519 15.7697 18.9067 15.5168 18.8163C15.036 18.6443 14.4002 18.2753 14.0139 17.479C13.3799 16.1721 14.0659 15.0474 14.1658 14.8836L14.6144 14.2552C14.9005 13.8903 15.3548 13.3115 15.8006 12.8534C16.0225 12.6253 16.3176 12.3464 16.6635 12.1084C16.9464 11.9138 17.608 11.4997 18.4998 11.4997C19.3916 11.4997 20.0532 11.9138 20.3361 12.1084C20.4978 12.2196 20.6484 12.3399 20.7857 12.4596C20.9074 12.5659 21.1032 12.5021 21.1306 12.3429C21.1928 11.9886 21.4336 11.6659 21.8031 11.4906C22.1416 11.3299 22.4001 11.0222 22.4832 10.641C22.4843 10.6357 22.4849 10.633 22.4853 10.6315C22.4856 10.63 22.486 10.6283 22.4868 10.625C22.5021 10.5614 22.6058 10.1285 22.6362 9.99238C22.6901 9.75139 22.7442 9.46263 22.7496 9.16731C22.7549 8.87004 22.7121 8.52256 22.5339 8.1914C22.3488 7.84713 22.0522 7.58529 21.6644 7.41434C21.434 7.31273 21.1985 7.27911 20.9785 7.2641C20.768 7.24974 20.5119 7.24975 20.2199 7.24976Z" fill="#141B34"/>
<path fill-rule="evenodd" clip-rule="evenodd" d="M9.25 11.9998C9.25 11.5855 9.58579 11.2498 10 11.2498L14 11.2498C14.4142 11.2498 14.75 11.5855 14.75 11.9998C14.75 12.414 14.4142 12.7498 14 12.7498L10 12.7498C9.58579 12.7498 9.25 12.414 9.25 11.9998Z" fill="#141B34"/>
<path fill-rule="evenodd" clip-rule="evenodd" d="M10.4011 2.08385C10.9071 2.30522 11.1378 2.89485 10.9164 3.40083L7.41641 11.4008C7.19504 11.9068 6.60541 12.1375 6.09943 11.9162C5.59345 11.6948 5.36273 11.1052 5.5841 10.5992L9.0841 2.59919C9.30546 2.09321 9.89509 1.86249 10.4011 2.08385Z" fill="#141B34"/>
<path d="M19.5059 20.9998C19.5059 21.552 19.0581 21.9998 18.5059 21.9998C17.9536 21.9998 17.5059 21.552 17.5059 20.9998L17.5059 17.4997L16.9116 17.4997C16.736 17.4999 16.5203 17.5 16.3439 17.4779L16.3405 17.4775C16.2141 17.4618 15.638 17.3899 15.3637 16.8243C15.0887 16.2575 15.3907 15.7574 15.456 15.6492L15.7951 15.1807C16.0897 14.8048 16.4954 14.2904 16.8759 13.8994C17.0657 13.7043 17.283 13.503 17.5139 13.3442C17.7191 13.203 18.0693 12.9997 18.5 12.9997C18.9307 12.9997 19.2809 13.203 19.4861 13.3442C19.717 13.503 19.9343 13.7043 20.1241 13.8994C20.5046 14.2904 20.9102 14.8048 21.2049 15.1807L21.544 15.6492C21.6093 15.7574 21.9113 16.2575 21.6363 16.8243C21.362 17.3899 20.7859 17.4618 20.6595 17.4775L20.6561 17.4779C20.4797 17.5 20.264 17.4999 20.0884 17.4997L19.5059 17.4997L19.5059 20.9998Z" fill="#141B34"/>
<path d="M15.8946 2.55276C15.6477 2.05878 15.047 1.85856 14.553 2.10555C14.059 2.35254 13.8588 2.95321 14.1058 3.44719L16.0072 7.24997H18.2433L15.8946 2.55276Z" fill="#141B34"/>
</svg>
