<svg width="24" height="24" viewBox="0 0 24 24" fill="none" xmlns="http://www.w3.org/2000/svg">
<path opacity="0.4" d="M14.2111 1.74988C15.7727 1.74988 16.8704 1.72193 17.9064 2.495C18.9329 3.26135 19.18 4.16941 19.5587 5.4452C20.0463 7.08772 20.5669 9.38176 20.922 12.4247L20.9279 12.4784C21.0889 13.858 21.2231 15.019 21.2452 15.9999H20.5001V15.2499C20.5001 14.0073 19.4927 12.9999 18.2501 12.9999C17.0075 12.9999 16.0001 14.0072 16.0001 15.2499V15.9999H15.2501C14.0075 15.9999 13.0001 17.0072 13.0001 18.2499C13.0001 19.4925 14.0075 20.4999 15.2501 20.4999H16.0001V21.1923C15.0571 21.2479 13.9547 21.2499 12.6739 21.2499H10.3263C8.44701 21.2499 6.95138 21.2499 5.7804 21.0741C4.56521 20.8916 3.59195 20.5062 2.83704 19.6581C2.09185 18.8208 1.80979 17.8579 1.75891 16.6923C1.71029 15.5776 1.87172 14.1977 2.07239 12.4784L2.07825 12.4247C2.43337 9.38177 2.95394 7.08772 3.44153 5.4452C3.82032 4.1692 4.06784 3.26143 5.09485 2.495C6.13076 1.72201 7.22762 1.74988 8.78918 1.74988H14.2111Z" fill="#141B34"/>
<path d="M7.50012 6.49994C7.50012 5.94765 7.94784 5.49994 8.50012 5.49994C9.05241 5.49994 9.50012 5.94765 9.50012 6.49994C9.50012 7.60451 10.3956 8.49994 11.5001 8.49994C12.6047 8.49994 13.5001 7.60451 13.5001 6.49994C13.5001 5.94765 13.9478 5.49994 14.5001 5.49994C15.0524 5.49994 15.5001 5.94765 15.5001 6.49994C15.5001 8.70908 13.7093 10.4999 11.5001 10.4999C9.29098 10.4999 7.50012 8.70908 7.50012 6.49994Z" fill="#141B34"/>
<path d="M17.25 21.2499V19.2499H15.25C14.6977 19.2499 14.25 18.8022 14.25 18.2499C14.25 17.6977 14.6977 17.2499 15.25 17.2499H17.25V15.2499C17.25 14.6977 17.6977 14.2499 18.25 14.2499C18.8023 14.2499 19.25 14.6977 19.25 15.2499V17.2499H21.25C21.8023 17.2499 22.25 17.6977 22.25 18.2499C22.25 18.8022 21.8023 19.2499 21.25 19.2499H19.25V21.2499C19.25 21.8022 18.8023 22.2499 18.25 22.2499C17.6977 22.2499 17.25 21.8022 17.25 21.2499Z" fill="#141B34"/>
</svg>
