<svg width="24" height="24" viewBox="0 0 24 24" fill="none" xmlns="http://www.w3.org/2000/svg">
<path d="M8.49219 13.502L9.99219 15.002H13.9922L15.4922 13.502" stroke="#141B34" stroke-width="1.5" stroke-linejoin="round"/>
<path d="M3.99219 5.00195H19.9922" stroke="#141B34" stroke-width="1.5" stroke-linecap="round" stroke-linejoin="round"/>
<path d="M3.49219 11.002C3.49219 11.002 6.99219 11.002 6.99219 5.00195" stroke="#141B34" stroke-width="1.5" stroke-linecap="round" stroke-linejoin="round"/>
<path d="M16.9922 5.00195C16.9922 11.002 20.4922 11.002 20.4922 11.002" stroke="#141B34" stroke-width="1.5" stroke-linecap="round" stroke-linejoin="round"/>
<path d="M20.002 2.00015V4.98516L21.9999 20.9899C22.0006 20.9953 21.9967 21.0003 21.9912 21.001L14.0269 21.9999C14.0215 22.0006 14.0166 21.9968 14.0158 21.9915L12.9875 15.0123H10.9985L9.99839 21.9914C9.99762 21.9968 9.99266 22.0006 9.98724 21.9999L2.00876 21.001C2.00329 21.0003 1.9994 20.9953 2.00008 20.9899L3.99112 4.91017V2L20.002 2.00015Z" stroke="#141B34" stroke-width="1.5"/>
</svg>
