<svg width="24" height="24" viewBox="0 0 24 24" fill="none" xmlns="http://www.w3.org/2000/svg">
<path opacity="0.4" d="M10.25 21.1505C10.25 21.433 10.25 21.5743 10.3379 21.6621C10.4257 21.75 10.5669 21.75 10.8493 21.75C10.8842 21.75 10.9194 21.75 10.9547 21.75H13.0453C14.8818 21.75 16.3214 21.75 17.4635 21.6263C18.6291 21.5 19.5734 21.2377 20.3798 20.6518C20.8679 20.2972 21.2972 19.8679 21.6518 19.3798C22.2377 18.5734 22.5 17.6291 22.6263 16.4635C22.75 15.3214 22.75 13.8818 22.75 12.0453V11.9547C22.75 10.1182 22.75 8.67859 22.6263 7.53648C22.5 6.37094 22.2377 5.42656 21.6518 4.62024C21.2972 4.13209 20.8679 3.70281 20.3798 3.34815C19.5734 2.76232 18.6291 2.50001 17.4635 2.37373C16.3214 2.24999 14.8818 2.24999 13.0453 2.25H10.9548C10.9194 2.25 10.8843 2.25 10.8493 2.25C10.5669 2.25001 10.4257 2.25001 10.3379 2.33788C10.25 2.42574 10.25 2.56701 10.25 2.84954L10.25 21.1505Z" fill="#141B34"/>
<path fill-rule="evenodd" clip-rule="evenodd" d="M8.75 2.86977C8.75 2.5818 8.75 2.43782 8.65898 2.34944C8.56796 2.26107 8.42547 2.26528 8.1405 2.27369C7.54843 2.29117 7.01621 2.32131 6.53648 2.37329C5.37094 2.49957 4.42656 2.76189 3.62024 3.34771C3.13209 3.70237 2.70281 4.13165 2.34815 4.6198C1.76232 5.42612 1.50001 6.3705 1.37373 7.53604C1.24999 8.67817 1.24999 10.1178 1.25 11.9543V11.9543V12.0448V12.0448C1.24999 13.8813 1.24999 15.321 1.37373 16.4631C1.50001 17.6286 1.76232 18.573 2.34815 19.3793C2.70281 19.8675 3.13209 20.2968 3.62024 20.6514C4.42656 21.2372 5.37094 21.4996 6.53648 21.6258C7.01621 21.6778 7.54843 21.708 8.14051 21.7254C8.42547 21.7338 8.56796 21.7381 8.65898 21.6497C8.75 21.5613 8.75 21.4173 8.75 21.1293L8.75 2.86977ZM3.5 7C3.5 6.58579 3.83579 6.25 4.25 6.25H5.75C6.16421 6.25 6.5 6.58579 6.5 7C6.5 7.41421 6.16421 7.75 5.75 7.75H4.25C3.83579 7.75 3.5 7.41421 3.5 7ZM4.25 10.25C3.83579 10.25 3.5 10.5858 3.5 11C3.5 11.4142 3.83579 11.75 4.25 11.75H5.75C6.16421 11.75 6.5 11.4142 6.5 11C6.5 10.5858 6.16421 10.25 5.75 10.25H4.25Z" fill="#141B34"/>
<path d="M18.2575 9.34714C18.618 9.76547 18.5712 10.3969 18.1529 10.7575L16.7124 12L18.1529 13.2426C18.5712 13.6031 18.618 14.2346 18.2575 14.6529C17.8969 15.0712 17.2655 15.1181 16.8471 14.7575L15.5835 13.6684L15.5835 13.6684C15.3585 13.4746 15.1194 13.2686 14.9446 13.0711C14.7469 12.8478 14.5 12.4934 14.5 12C14.5 11.5066 14.7469 11.1522 14.9446 10.9289C15.1194 10.7314 15.3585 10.5255 15.5835 10.3317L16.8471 9.24255C17.2655 8.88198 17.8969 8.9288 18.2575 9.34714Z" fill="#141B34"/>
</svg>
