<svg width="24" height="24" viewBox="0 0 24 24" fill="none" xmlns="http://www.w3.org/2000/svg">
<path fill-rule="evenodd" clip-rule="evenodd" d="M9.95236 2.25H14.0493H14.0493C15.6478 2.24999 16.9143 2.24998 17.9236 2.36966C18.9619 2.49279 19.815 2.7505 20.546 3.32638C21.0471 3.72109 21.4786 4.20797 21.8237 4.76246C22.3188 5.5578 22.5392 6.47837 22.6458 7.61632C22.6488 7.64839 22.6518 7.6807 22.6546 7.71325C22.696 8.18824 22.7166 8.42573 22.568 8.58787C22.4194 8.75 22.1722 8.75 21.6778 8.75H2.32385C1.82945 8.75 1.58226 8.75 1.43363 8.58787C1.285 8.42573 1.30569 8.18824 1.34706 7.71325C1.3499 7.6807 1.35282 7.64839 1.35582 7.61632C1.46244 6.47837 1.68288 5.5578 2.1779 4.76246C2.52302 4.20797 2.95457 3.72109 3.45563 3.32638C4.18669 2.7505 5.03979 2.49279 6.07809 2.36966C7.08736 2.24998 8.35385 2.24999 9.95235 2.25H9.95236ZM21.7537 10.25H2.24634C1.77804 10.25 1.54389 10.25 1.39747 10.3962C1.25106 10.5425 1.2508 10.7757 1.25026 11.2422C1.25 11.474 1.25 11.7128 1.25 11.959V12.0395C1.24999 13.8506 1.24999 15.2629 1.355 16.3837C1.46162 17.5216 1.68205 18.4422 2.17708 19.2375C2.5222 19.792 2.95374 20.2789 3.4548 20.6736C4.18587 21.2495 5.03896 21.5072 6.07727 21.6303C7.08651 21.75 8.35294 21.75 9.95137 21.75H9.95139H9.95141H9.95143H9.95145H14.0485H14.0485H14.0485H14.0485H14.0485C15.647 21.75 16.9135 21.75 17.9227 21.6303C18.961 21.5072 19.8141 21.2495 20.5452 20.6736C21.0463 20.2789 21.4778 19.792 21.8229 19.2375C22.3179 18.4422 22.5384 17.5216 22.645 16.3837C22.75 15.2629 22.75 13.8506 22.75 12.0394V11.9589C22.75 11.7127 22.75 11.4739 22.7497 11.2422C22.7492 10.7757 22.7489 10.5425 22.6025 10.3962C22.4561 10.25 22.222 10.25 21.7537 10.25ZM6 4.75C5.58579 4.75 5.25 5.08579 5.25 5.5C5.25 5.91421 5.58579 6.25 6 6.25H7C7.41421 6.25 7.75 5.91421 7.75 5.5C7.75 5.08579 7.41421 4.75 7 4.75H6ZM10 4.75C9.58579 4.75 9.25 5.08579 9.25 5.5C9.25 5.91421 9.58579 6.25 10 6.25H11C11.4142 6.25 11.75 5.91421 11.75 5.5C11.75 5.08579 11.4142 4.75 11 4.75H10Z" fill="#141B34"/>
</svg>
