<svg width="24" height="24" viewBox="0 0 24 24" fill="none" xmlns="http://www.w3.org/2000/svg">
<path d="M9.75138 5.25002C10.502 5.24975 11.0475 5.24956 11.5732 5.45135C12.069 5.64169 12.4752 5.99027 13.0158 6.45427L13.101 6.52739L14.809 7.99134L14.9189 8.08544C15.6374 8.70033 16.172 9.15788 16.4623 9.79535C16.7513 10.4301 16.7508 11.1398 16.7501 12.1014L16.75 12.2482V14.8434C16.75 16.3065 16.75 17.4641 16.653 18.3848C16.5537 19.3274 16.3459 20.1099 15.8699 20.7839C15.585 21.1872 15.2396 21.5427 14.8459 21.8369C14.1848 22.3309 13.4152 22.547 12.4919 22.6499C11.5934 22.7501 10.4652 22.75 9.04557 22.75H9.04555H8.95445H8.95443C7.53483 22.75 6.40661 22.7501 5.50814 22.6499C4.58475 22.547 3.81518 22.3309 3.1541 21.8369C2.76037 21.5427 2.41498 21.1872 2.13012 20.7839C1.65407 20.1099 1.44626 19.3274 1.34697 18.3848C1.24998 17.4641 1.24999 16.3065 1.25 14.8434V14.8434V13.8334V13.8334C1.24999 12.0481 1.24998 10.636 1.39081 9.5284C1.53539 8.39143 1.83942 7.46638 2.52935 6.72446C2.57675 6.67348 2.62527 6.62358 2.67486 6.57479C3.39954 5.86184 4.3075 5.54538 5.42233 5.39541C6.50315 5.25001 7.87948 5.25002 9.61175 5.25004L9.66768 5.25004L9.75138 5.25002Z" fill="#141B34"/>
<path opacity="0.4" d="M12.1103 4.05646C12.8541 4.34254 13.439 4.84692 13.9139 5.2565L13.9922 5.32397L15.8937 6.95695L15.9966 7.04495C16.6286 7.58515 17.396 8.24093 17.8269 9.18922C18.2542 10.1293 18.2518 11.1408 18.2499 11.9851L18.2496 12.1237L18.2495 14.9438C18.2495 15.3474 18.2496 15.7362 18.2471 16.1092C18.245 16.415 18.244 16.5679 18.3429 16.658C18.4418 16.7481 18.5874 16.7334 18.8788 16.7042C18.9178 16.7003 18.9564 16.6962 18.9945 16.6919C19.7998 16.6004 20.4842 16.4068 21.0743 15.9574C21.4218 15.6928 21.726 15.3735 21.9766 15.012C22.3986 14.4032 22.5796 13.7005 22.6657 12.8679C22.7496 12.0564 22.7495 11.038 22.7495 9.75895L22.7496 7.3412C22.7504 6.50801 22.7509 5.86813 22.4945 5.29434C22.2362 4.71623 21.7604 4.30137 21.1493 3.76867L19.4984 2.32658C19.0405 1.92598 18.6775 1.60836 18.2327 1.43434C17.76 1.24943 17.2699 1.24969 16.635 1.25003L16.4959 1.25006C15.0123 1.25004 13.8216 1.25002 12.8839 1.37857C11.9108 1.51198 11.1033 1.79584 10.4579 2.44294C10.4142 2.48676 10.3715 2.53157 10.3297 2.57733C10.2107 2.70772 10.1047 2.84435 10.0103 2.98733C9.81557 3.28217 9.71819 3.42959 9.79683 3.58502C9.87547 3.74045 10.0793 3.75071 10.4869 3.77122C11.0289 3.7985 11.6259 3.87014 12.1103 4.05646Z" fill="#141B34"/>
</svg>
