<svg width="24" height="24" viewBox="0 0 24 24" fill="none" xmlns="http://www.w3.org/2000/svg">
<path d="M11.4584 1.48252C11.6589 1.27222 11.9628 1.19663 12.2385 1.28851C15.4433 2.35677 18.3818 5.06298 19.9247 8.17259C21.5876 11.3185 21.6494 14.8287 20.3221 17.6332C18.985 20.4586 16.2574 22.5196 12.4844 22.7486C12.4692 22.7496 12.4541 22.75 12.4389 22.75C2.70748 22.75 -0.722599 11.167 6.95395 5.83876C7.18325 5.67961 7.48197 5.66096 7.72928 5.79035C7.9766 5.91974 8.1316 6.17577 8.1316 6.45489C8.1316 7.41535 8.23321 8.10264 8.38227 8.57177C8.533 9.04617 8.70996 9.23139 8.81136 9.29721C8.88855 9.34731 8.99146 9.37558 9.17749 9.31635C9.38313 9.25087 9.65515 9.0837 9.95805 8.77853C10.5612 8.17085 11.1464 7.15613 11.4516 5.96206C11.7549 4.77503 11.7665 3.47036 11.3019 2.27092C11.197 1.99999 11.258 1.69282 11.4584 1.48252Z" fill="#141B34"/>
</svg>
