<svg width="24" height="24" viewBox="0 0 24 24" fill="none" xmlns="http://www.w3.org/2000/svg">
<path fill-rule="evenodd" clip-rule="evenodd" d="M7 22.1252C7 21.573 7.44772 21.1252 8 21.1252H16C16.5523 21.1252 17 21.573 17 22.1252C17 22.6775 16.5523 23.1252 16 23.1252H8C7.44772 23.1252 7 22.6775 7 22.1252Z" fill="#141B34"/>
<path d="M8.91139 16.7424C8.88621 16.3395 8.87361 16.138 8.99056 16.0406C9.1075 15.9432 9.31346 15.9946 9.72538 16.0974C10.4533 16.279 11.215 16.3754 11.999 16.3754C12.7832 16.3754 13.5451 16.279 14.2731 16.0973C14.6851 15.9945 14.891 15.9431 15.008 16.0404C15.1249 16.1378 15.1123 16.3393 15.0872 16.7423L14.7478 22.1719C14.7231 22.5672 14.3953 22.8751 13.9993 22.8751H9.99928C9.60323 22.8751 9.27544 22.5672 9.25074 22.1719L8.91139 16.7424Z" fill="#141B34"/>
<path opacity="0.4" d="M6.90439 6.37525H17.0955C17.5396 6.37515 17.9656 6.37505 18.3149 6.43677C18.7254 6.50929 19.1188 6.68015 19.4161 7.07395C19.6919 7.43919 19.776 7.82537 19.7431 8.23032C19.7167 8.55494 19.5948 8.96627 19.4925 9.31154C18.5408 12.53 15.5446 14.8753 11.9999 14.8753C8.45525 14.8753 5.45908 12.53 4.5073 9.31154C4.40502 8.96627 4.28318 8.55494 4.25676 8.23032C4.22381 7.82537 4.30794 7.43919 4.58371 7.07395C4.88103 6.68015 5.27444 6.50929 5.68492 6.43677C6.03429 6.37505 6.46022 6.37515 6.90439 6.37525Z" fill="#141B34"/>
<path d="M9 6.37525H11L11 6.07085C11.0001 5.64678 11.0002 5.23465 10.9545 4.89474C10.903 4.51154 10.7774 4.07426 10.4142 3.71104C10.051 3.34783 9.61372 3.22231 9.23052 3.17079C8.8906 3.12509 8.47848 3.12517 8.05441 3.12525L8 3.12526C7.44772 3.12526 7 3.57297 7 4.12526C7 4.67754 7.44772 5.12526 8 5.12526C8.49967 5.12526 8.77383 5.12738 8.96402 5.15295L8.97131 5.15395L8.97231 5.16123C8.99788 5.35143 9 5.62558 9 6.12526V6.37525Z" fill="#141B34"/>
<path d="M12 6.37525H14V3.62524C14 3.3491 14.2239 3.12524 14.5 3.12524C14.7761 3.12524 15 3.3491 15 3.62524V4.12524C15 4.67753 15.4477 5.12524 16 5.12524C16.5523 5.12524 17 4.67753 17 4.12524V3.62524C17 2.24453 15.8807 1.12524 14.5 1.12524C13.1193 1.12524 12 2.24453 12 3.62524V6.37525Z" fill="#141B34"/>
</svg>
