<svg width="24" height="24" viewBox="0 0 24 24" fill="none" xmlns="http://www.w3.org/2000/svg">
<path opacity="0.4" fill-rule="evenodd" clip-rule="evenodd" d="M2.72374 8.55293C4.35163 9.02176 5.71365 9.08926 6.97993 8.90564C8.22442 8.72518 9.3368 8.30599 10.4303 7.87407C10.5367 7.83207 10.6434 7.7897 10.7508 7.7471L10.7516 7.74679L10.7517 7.74674L10.7522 7.74654C10.9772 7.65722 11.2048 7.56687 11.4367 7.47675C11.2566 7.61661 11.0776 7.75402 10.9002 7.88708C8.75172 9.49859 6.21452 10.9948 2.02258 11.0001L2 11C1.44772 11 1 11.4477 1 12C1 12.4434 1.28856 12.8194 1.68812 12.9504C1.78632 12.9826 1.89124 13.0001 2.00023 13.0001L2.01743 13.0001C2.81774 13.0062 3.82799 13.4335 5.08949 14.2489C5.9026 14.7745 6.74106 15.4063 7.61959 16.0832C6.45868 16.6512 5.27471 17 4.00023 17C3.44794 17 3.00023 17.4477 3.00023 18C3.00023 18.5523 3.44794 19 4.00023 19C5.97497 19 7.74336 18.3397 9.36124 17.4236C10.6725 18.4173 12.0615 19.4031 13.4605 20.0819C14.9593 20.8092 16.5926 21.2453 18.2329 20.8525C18.77 20.7238 19.1011 20.1842 18.9725 19.6471C18.8439 19.11 18.3042 18.7788 17.7671 18.9074C16.7669 19.147 15.6354 18.9142 14.3336 18.2826C13.3062 17.7841 12.2493 17.0752 11.1651 16.2755C11.8339 15.8091 12.4775 15.323 13.1005 14.8524L13.1725 14.798C15.8917 12.7444 18.2406 11 21.0002 11C21.5525 11 22.0002 10.5523 22.0002 10C22.0002 9.44772 21.5525 9 21.0002 9C17.5269 9 14.6776 11.1535 12.1447 13.0679L12.1447 13.0679L11.9672 13.202C11.1173 13.8439 10.2975 14.457 9.4842 14.9962C9.45762 14.9757 9.43103 14.9551 9.40442 14.9345C8.32416 14.0985 7.22498 13.2478 6.17519 12.5693L6.0919 12.5157C8.6317 11.8738 10.5065 10.6825 12.1003 9.48702C12.5468 9.15211 12.9512 8.83373 13.3346 8.53193L13.3346 8.53192L13.3346 8.53191L13.3346 8.5319C13.9852 8.01979 14.5751 7.55543 15.2068 7.13915C16.0779 6.56507 16.9081 6.17251 17.8283 6.02967C18.2029 6.01029 18.5931 6 19.0005 6C19.5528 6 20.0005 5.55228 20.0005 5C20.0005 4.44772 19.5528 4 19.0005 4C18.7152 4 18.4373 4.0047 18.1664 4.01373C18.0807 3.99933 17.9917 3.99597 17.901 4.00501C17.8085 4.01423 17.717 4.02521 17.6264 4.03786C14.1845 4.23142 11.9203 5.13064 10.0254 5.88318C9.91427 5.92732 9.8044 5.97095 9.69563 6.01391C8.60168 6.44599 7.6828 6.7828 6.69292 6.92634C5.72483 7.06672 4.64934 7.02622 3.27724 6.63105C2.74652 6.4782 2.19239 6.78453 2.03955 7.31524C1.8867 7.84595 2.19302 8.40009 2.72374 8.55293Z" fill="#141B34"/>
<path fill-rule="evenodd" clip-rule="evenodd" d="M12 3C7.02944 3 3 7.02944 3 12C3 16.9706 7.02944 21 12 21C16.9706 21 21 16.9706 21 12C21 7.02944 16.9706 3 12 3ZM1 12C1 5.92487 5.92487 1 12 1C18.0751 1 23 5.92487 23 12C23 18.0751 18.0751 23 12 23C5.92487 23 1 18.0751 1 12Z" fill="#141B34"/>
</svg>
