<svg width="25" height="24" viewBox="0 0 25 24" fill="none" xmlns="http://www.w3.org/2000/svg">
<path fill-rule="evenodd" clip-rule="evenodd" d="M4.99707 1.75C3.47829 1.75 2.24707 2.98122 2.24707 4.5V19.5C2.24707 21.0188 3.47829 22.25 4.99707 22.25L19.9971 22.25C21.5159 22.25 22.7471 21.0188 22.7471 19.5V4.5C22.7471 2.98121 21.5159 1.75 19.9971 1.75H4.99707ZM11.4971 6C9.84022 6 8.49707 7.34315 8.49707 9V15C8.49707 16.6569 9.84022 18 11.4971 18H13.4971C15.1539 18 16.4971 16.6569 16.4971 15V14C16.4971 12.3431 15.1539 11 13.4971 11H11.4971C11.1464 11 10.8098 11.0602 10.4971 11.1707V9C10.4971 8.44772 10.9448 8 11.4971 8H13.4971C14.0494 8 14.4971 8.44772 14.4971 9C14.4971 9.55228 14.9448 10 15.4971 10C16.0494 10 16.4971 9.55228 16.4971 9C16.4971 7.34315 15.1539 6 13.4971 6H11.4971ZM11.4971 16C10.9448 16 10.4971 15.5523 10.4971 15V14C10.4971 13.4477 10.9448 13 11.4971 13H13.4971C14.0494 13 14.4971 13.4477 14.4971 14V15C14.4971 15.5523 14.0494 16 13.4971 16H11.4971Z" fill="#141B34"/>
</svg>
