<svg width="24" height="24" viewBox="0 0 24 24" fill="none" xmlns="http://www.w3.org/2000/svg">
<path fill-rule="evenodd" clip-rule="evenodd" d="M12 1.25C6.06294 1.25 1.25 6.06294 1.25 12C1.25 17.9371 6.06294 22.75 12 22.75C17.9371 22.75 22.75 17.9371 22.75 12C22.75 6.06294 17.9371 1.25 12 1.25ZM11 6C9.34315 6 8 7.34315 8 9V15C8 16.6569 9.34315 18 11 18H13C14.6569 18 16 16.6569 16 15V14C16 12.3431 14.6569 11 13 11H11C10.6494 11 10.3128 11.0602 10 11.1707V9C10 8.44772 10.4477 8 11 8H13C13.5523 8 14 8.44772 14 9C14 9.55228 14.4477 10 15 10C15.5523 10 16 9.55228 16 9C16 7.34315 14.6569 6 13 6H11ZM11 16C10.4477 16 10 15.5523 10 15V14C10 13.4477 10.4477 13 11 13H13C13.5523 13 14 13.4477 14 14V15C14 15.5523 13.5523 16 13 16H11Z" fill="#141B34"/>
</svg>
