<svg width="24" height="24" viewBox="0 0 24 24" fill="none" xmlns="http://www.w3.org/2000/svg">
<path d="M7.99707 5.50205C7.99707 7.43457 9.78792 9.00118 11.997 9.00118C14.2062 9.00118 15.997 7.43457 15.997 5.50205C15.997 3.56954 14.2062 2.00293 11.997 2.00293C9.78792 2.00293 7.99707 3.56954 7.99707 5.50205Z" stroke="#141B34" stroke-width="1.5"/>
<path opacity="0.4" d="M6.42635 12.4589C6.62179 12.8365 6.25755 13.4453 6.11999 13.7739C5.86885 14.3736 5.86698 14.3874 5.9464 15.0512C6.12922 16.5794 6.40391 18.1295 6.49416 19.6696C6.57684 21.0803 5.59212 21.998 4.49902 21.998C3.40592 21.998 2.4212 21.0803 2.50388 19.6696C2.59414 18.1295 2.86882 16.5794 3.05164 15.0512C3.13106 14.3874 3.12919 14.3736 2.87805 13.7739C2.7405 13.4454 2.37625 12.8365 2.57169 12.4589C2.84571 11.9366 6.06217 11.7648 6.42635 12.4589Z" fill="#141B34"/>
<path opacity="0.4" d="M21.4283 12.4589C21.6237 12.8365 21.2595 13.4453 21.1219 13.7739C20.8708 14.3736 20.8689 14.3874 20.9483 15.0512C21.1312 16.5794 21.4059 18.1295 21.4961 19.6696C21.5788 21.0803 20.5941 21.998 19.501 21.998C18.4079 21.998 17.4232 21.0803 17.5058 19.6696C17.5961 18.1295 17.8708 16.5794 18.0536 15.0512C18.133 14.3874 18.1311 14.3736 17.88 13.7739C17.7424 13.4454 17.3782 12.8365 17.5736 12.4589C17.8477 11.9366 21.0641 11.7648 21.4283 12.4589Z" fill="#141B34"/>
<path d="M4.50929 12.0014C3.66313 12.0185 2.8633 12.209 2.59505 12.4318C2.28656 12.8977 2.98799 13.936 3.09561 14.3729L2.74232 17.2346L2.50287 19.747C2.35765 22.4151 6.37622 23.0692 6.49074 19.747L5.87829 14.4278C6.14462 13.631 6.78794 12.577 6.31751 12.3307C5.83307 12.0768 5.15758 11.9883 4.50929 12.0014ZM4.50929 12.0014C4.46149 10.8041 4.39282 8.30197 4.78276 7.51038" stroke="#141B34" stroke-width="1.5" stroke-linecap="round" stroke-linejoin="round"/>
<path d="M19.4904 11.9995C20.3365 12.0166 21.1364 12.207 21.4046 12.43C21.7131 12.8957 21.0117 13.934 20.9041 14.3709L21.2574 17.2327L21.4968 19.745C21.642 22.4132 17.6235 23.0672 17.5089 19.745L18.1214 14.4259C17.8551 13.6292 17.2117 12.575 17.6822 12.3287C18.1666 12.075 18.8421 11.9863 19.4904 11.9995ZM19.4904 11.9995C19.5297 11.0137 19.5885 9.2716 19.3861 8.1396C19.3094 7.7104 19.1803 7.29104 19.0353 6.87983C17.5299 2.61038 10.8121 -0.611153 6.01172 4.98995" stroke="#141B34" stroke-width="1.5" stroke-linecap="round" stroke-linejoin="round"/>
</svg>
