<svg width="24" height="24" viewBox="0 0 24 24" fill="none" xmlns="http://www.w3.org/2000/svg">
<path d="M19.0815 3.12505H16.9994C16.4471 3.12505 15.9994 2.67733 15.9994 2.12505C15.9994 1.57276 16.4471 1.12505 16.9994 1.12505H19.9338L19.9856 1.12502C20.247 1.12486 20.547 1.12466 20.7888 1.1614C21.0356 1.19891 21.6151 1.33193 21.867 1.94506C22.1079 2.53125 21.8245 3.02685 21.6937 3.22714C21.5594 3.43276 21.3602 3.66019 21.1801 3.86574L21.1468 3.90386C21.1287 3.92447 21.1098 3.94434 21.0902 3.96341L18.8599 6.12505H20.9818C21.5341 6.12505 21.9818 6.57276 21.9818 7.12505C21.9818 7.67733 21.5341 8.12505 20.9818 8.12505H18.0075L17.9558 8.12507C17.6944 8.12524 17.3943 8.12543 17.1525 8.08869C16.9057 8.05118 16.3263 7.91816 16.0744 7.30503C15.8335 6.71884 16.1169 6.22324 16.2477 6.02295C16.382 5.81733 16.5812 5.5899 16.7612 5.38435L16.7946 5.34624C16.8127 5.32562 16.8315 5.30575 16.8512 5.28668L19.0815 3.12505Z" fill="#141B34"/>
<path fill-rule="evenodd" clip-rule="evenodd" d="M12 1.375C6.06294 1.375 1.25 6.18794 1.25 12.125C1.25 18.0621 6.06294 22.875 12 22.875C17.9371 22.875 22.75 18.0621 22.75 12.125C22.75 11.3353 22.6649 10.5655 22.5032 9.82428C22.4572 9.6132 22.4342 9.50767 22.3518 9.44131C22.2694 9.37494 22.1572 9.37494 21.9328 9.37495L17.9225 9.375C17.9148 9.375 17.3002 9.37542 16.9644 9.3244C16.6296 9.27353 15.4365 9.04229 14.9178 7.78002C14.4252 6.58137 15.0301 5.60058 15.2008 5.33922C15.2687 5.2353 15.4186 5.05481 15.5806 4.86855C15.8188 4.59459 15.938 4.45761 15.9328 4.33804C15.9276 4.21847 15.7636 4.06003 15.4357 3.74316L15.4357 3.74314C15.0123 3.33401 14.749 2.76022 14.749 2.12494C14.749 2.00163 14.749 1.93998 14.7455 1.9171C14.7257 1.78994 14.6801 1.73259 14.5607 1.68468C14.5392 1.67607 14.504 1.66792 14.4337 1.65164C13.6517 1.47066 12.837 1.375 12 1.375ZM6.96967 10.0947C7.26256 9.80178 7.73744 9.80178 8.03033 10.0947C8.20982 10.2742 8.45327 10.375 8.70711 10.375H10C10.4142 10.375 10.75 10.7108 10.75 11.125C10.75 11.5392 10.4142 11.875 10 11.875H8.70711C8.05544 11.875 7.43047 11.6161 6.96967 11.1553C6.67678 10.8624 6.67678 10.3876 6.96967 10.0947ZM17.0303 10.0947C17.3232 10.3876 17.3232 10.8624 17.0303 11.1553C16.5695 11.6161 15.9446 11.875 15.2929 11.875H14C13.5858 11.875 13.25 11.5392 13.25 11.125C13.25 10.7108 13.5858 10.375 14 10.375H15.2929C15.5467 10.375 15.7902 10.2742 15.9697 10.0947C16.2626 9.80178 16.7374 9.80178 17.0303 10.0947ZM10.75 16.125C10.75 15.4346 11.3096 14.875 12 14.875C12.6904 14.875 13.25 15.4346 13.25 16.125C13.25 16.8154 12.6904 17.375 12 17.375C11.3096 17.375 10.75 16.8154 10.75 16.125ZM12 13.375C10.4812 13.375 9.25 14.6062 9.25 16.125C9.25 17.6438 10.4812 18.875 12 18.875C13.5188 18.875 14.75 17.6438 14.75 16.125C14.75 14.6062 13.5188 13.375 12 13.375Z" fill="#141B34"/>
</svg>
