<svg width="24" height="24" viewBox="0 0 24 24" fill="none" xmlns="http://www.w3.org/2000/svg">
<path fill-rule="evenodd" clip-rule="evenodd" d="M5 13C5.55228 12.9999 6.00002 13.4476 6.00004 13.9999L6.00029 19.9999C6.00031 20.5522 5.55261 20.9999 5.00033 21C4.44804 21 4.00031 20.5523 4.00029 20L4.00004 14C4.00002 13.4477 4.44772 13 5 13Z" fill="#141B34"/>
<path fill-rule="evenodd" clip-rule="evenodd" d="M5 3C5.55228 3 6 3.44772 6 4V11C6 11.5523 5.55228 12 5 12C4.44772 12 4 11.5523 4 11V4C4 3.44772 4.44772 3 5 3Z" fill="#141B34"/>
<path fill-rule="evenodd" clip-rule="evenodd" d="M16 8C16 8.55228 15.5523 9 15 9H9C8.44772 9 8 8.55228 8 8C8 7.44772 8.44772 7 9 7H15C15.5523 7 16 7.44772 16 8Z" fill="#141B34"/>
<path fill-rule="evenodd" clip-rule="evenodd" d="M9 14C9 14.5523 8.55228 15 8 15H2C1.44772 15 1 14.5523 1 14C1 13.4477 1.44772 13 2 13H8C8.55228 13 9 13.4477 9 14Z" fill="#141B34"/>
<path fill-rule="evenodd" clip-rule="evenodd" d="M23 12C23 12.5523 22.5523 13 22 13H16C15.4477 13 15 12.5523 15 12C15 11.4477 15.4477 11 16 11H22C22.5523 11 23 11.4477 23 12Z" fill="#141B34"/>
<path fill-rule="evenodd" clip-rule="evenodd" d="M12 3.00006C12.5523 3.00009 13 3.44784 12.9999 4.00012L12.9997 8.00012C12.9997 8.55241 12.5519 9.00009 11.9996 9.00006C11.4473 9.00003 10.9997 8.55228 10.9997 8L10.9999 4C11 3.44772 11.4477 3.00003 12 3.00006Z" fill="#141B34"/>
<path fill-rule="evenodd" clip-rule="evenodd" d="M12 9.99997C12.5523 9.99996 13 10.4477 13 10.9999L13.0003 19.9999C13.0003 20.5522 12.5526 21 12.0003 21C11.448 21 11.0003 20.5523 11.0003 20L11 11C11 10.4477 11.4477 9.99999 12 9.99997Z" fill="#141B34"/>
<path fill-rule="evenodd" clip-rule="evenodd" d="M19 3C19.5523 3 20 3.44772 20 4L20 12C20 12.5523 19.5523 13 19 13C18.4477 13 18 12.5523 18 12L18 4C18 3.44772 18.4477 3 19 3Z" fill="#141B34"/>
<path fill-rule="evenodd" clip-rule="evenodd" d="M19 14C19.5523 13.9999 20 14.4476 20 14.9999L20.0003 19.9999C20.0003 20.5522 19.5526 20.9999 19.0003 21C18.4481 21 18.0003 20.5523 18.0003 20L18 15C18 14.4477 18.4477 14 19 14Z" fill="#141B34"/>
</svg>
