<svg width="24" height="24" viewBox="0 0 24 24" fill="none" xmlns="http://www.w3.org/2000/svg">
<path fill-rule="evenodd" clip-rule="evenodd" d="M16 10.9912C16.5523 10.9912 17 11.4389 17 11.9912L17 12.0002C17 12.5525 16.5523 13.0002 16 13.0002C15.4477 13.0002 15 12.5525 15 12.0002L15 11.9912C15 11.4389 15.4477 10.9912 16 10.9912Z" fill="#141B34"/>
<path fill-rule="evenodd" clip-rule="evenodd" d="M20.5663 6.94922C21.9102 8.23269 22.75 10.0157 22.75 11.9916C22.75 13.9675 21.9102 15.7505 20.5663 17.034L19.5303 15.9492C20.5981 14.9294 21.25 13.5304 21.25 11.9916C21.25 10.4528 20.5981 9.05383 19.5303 8.03399L20.5663 6.94922ZM18.518 9.19922C19.259 9.90686 19.7259 10.8944 19.7259 11.9916C19.7259 13.0888 19.259 14.0763 18.518 14.784L17.482 13.6992C17.9469 13.2552 18.2259 12.6518 18.2259 11.9916C18.2259 11.3315 17.9469 10.728 17.482 10.284L18.518 9.19922Z" fill="#141B34"/>
<path fill-rule="evenodd" clip-rule="evenodd" d="M5.43276 1.25H2C1.58579 1.25 1.25 1.58579 1.25 2V22C1.25 22.4142 1.58579 22.75 2 22.75H16C16.4142 22.75 16.75 22.4142 16.75 22V14.1219C16.5154 14.2048 16.263 14.2499 16 14.2499C14.7574 14.2499 13.75 13.2426 13.75 11.9999V11.991C13.75 10.7483 14.7574 9.74097 16 9.74097C16.263 9.74097 16.5154 9.78608 16.75 9.869V2C16.75 1.58579 16.4142 1.25 16 1.25H12.5642L11.5642 4.74999H6.43276L5.43276 1.25ZM11.0042 1.25H6.99279L7.56421 3.24999H10.4328L11.0042 1.25ZM7.5 19.75H10.5V18.25H7.5V19.75Z" fill="#141B34"/>
</svg>
