<svg width="24" height="24" viewBox="0 0 24 24" fill="none" xmlns="http://www.w3.org/2000/svg">
<path opacity="0.4" fill-rule="evenodd" clip-rule="evenodd" d="M7.72886 5.26575C7.85842 5.26234 7.97901 5.32677 8.06078 5.42733C8.41234 5.85969 8.87839 6.14397 9.37966 6.27202C9.60977 6.3308 9.72482 6.36019 9.76724 6.41869C9.80965 6.47718 9.80182 6.59566 9.78616 6.8326C9.75293 7.3353 9.87074 7.85278 10.1563 8.3136C10.5815 8.99963 11.2844 9.40827 12.0294 9.4842C12.2691 9.50863 12.3889 9.52084 12.4386 9.56856C12.4474 9.57701 12.4501 9.58004 12.4576 9.58964C12.5001 9.64392 12.5001 9.76419 12.5001 10.0047C12.5001 11.3861 13.6194 12.506 15.0001 12.506H15.0064C15.0776 12.506 15.1481 12.503 15.2178 12.4971C15.4866 12.4746 15.621 12.4634 15.6856 12.5228C15.7502 12.5822 15.7502 12.7004 15.7502 12.9369V16.4617C15.7502 17.7365 15.7502 18.7681 15.6426 19.5804C15.5308 20.4245 15.2908 21.1436 14.726 21.7169C14.1597 22.2917 13.4469 22.5374 12.6102 22.6516C11.8079 22.7611 10.7898 22.7611 9.53566 22.7611H9.42559C8.17142 22.7611 7.1533 22.7611 6.35101 22.6516C5.51432 22.5374 4.8015 22.2917 4.23522 21.7169C3.51863 20.9895 3.32174 20.0232 3.25152 18.8541L3.25 18.8287L3.33072 8.34395L3.33892 8.29037C3.45879 7.50704 3.70295 6.83679 4.23522 6.2965C4.8015 5.72168 5.51432 5.476 6.35101 5.36181C6.75478 5.30671 7.21319 5.27934 7.72886 5.26575ZM8.5 19.0092C8.5 18.4566 8.94772 18.0087 9.5 18.0087H9.50898C10.0613 18.0087 10.509 18.4566 10.509 19.0092C10.509 19.5617 10.0613 20.0097 9.50898 20.0097H9.5C8.94772 20.0097 8.5 19.5617 8.5 19.0092Z" fill="#141B34"/>
<path d="M20.6311 3.07147C19.0378 1.77525 17.1046 1 15.0068 1C14.8141 1 14.6224 1.00656 14.4321 1.01952C13.8811 1.05703 13.4648 1.53413 13.5023 2.08513C13.5399 2.63614 14.0169 3.05241 14.568 3.0149C14.7131 3.00501 14.8595 3 15.0068 3C16.5933 3 18.0902 3.58261 19.369 4.62292C19.7974 4.97145 20.4272 4.90669 20.7758 4.47827C21.1243 4.04985 21.0595 3.42001 20.6311 3.07147Z" fill="#141B34"/>
<path d="M10.2929 1.29289C9.96241 1.62341 9.91162 2.12772 10.1406 2.51165C9.87485 2.68897 9.61696 2.88 9.36749 3.08374C8.93973 3.43308 8.87616 4.06305 9.2255 4.49081C9.57485 4.91857 10.2048 4.98214 10.6326 4.63279C10.9316 4.38862 11.2424 4.16966 11.5633 3.97744L13.0994 5.51359C12.6273 5.67205 12.1767 5.88732 11.7531 6.15146C11.2844 6.44369 11.1414 7.0605 11.4337 7.52913C11.7259 7.99777 12.3427 8.14077 12.8113 7.84854C13.4233 7.46695 14.0925 7.24444 14.7924 7.20663L17.2929 9.70711C17.6834 10.0976 18.3166 10.0976 18.7071 9.70711C19.0977 9.31658 19.0977 8.68342 18.7071 8.29289L11.7071 1.29289C11.3166 0.902369 10.6834 0.902369 10.2929 1.29289Z" fill="#141B34"/>
<path d="M15 9C14.4477 9 14 9.44771 14 10C14 10.5523 14.4477 11 15 11C15.5474 11 16.0064 10.55 16.0064 10C16.0064 9.44998 15.5474 9 15 9Z" fill="#141B34"/>
</svg>
