<svg width="24" height="24" viewBox="0 0 24 24" fill="none" xmlns="http://www.w3.org/2000/svg">
<path fill-rule="evenodd" clip-rule="evenodd" d="M10.0287 6.00375C9.51928 6.01052 9.06459 6.02942 8.67244 6.08215C8.38465 6.12084 8.1021 6.18085 7.83253 6.27913C8.10847 5.61361 8.34477 4.9052 8.34464 4.19654C8.34455 3.77216 8.34447 3.35983 8.39016 3.0198C8.44165 2.63658 8.56712 2.19911 8.93043 1.8358C9.29364 1.47258 9.73092 1.34706 10.1141 1.29554C10.454 1.24984 10.8662 1.24992 11.2902 1.25001H12.7106C13.1347 1.24992 13.5468 1.24984 13.8867 1.29554C14.2699 1.34706 14.7072 1.47258 15.0704 1.8358C15.4337 2.19911 15.5592 2.63658 15.6107 3.0198C15.6564 3.35983 15.6563 3.77216 15.6562 4.19654C15.6561 4.90527 15.8924 5.61373 16.1684 6.2793C15.8987 6.18092 15.616 6.12086 15.328 6.08215C14.936 6.02944 14.4814 6.01053 13.9721 6.00376C13.8375 5.51947 13.7175 4.95359 13.6606 4.34403C13.6606 4.28658 13.6634 4.2244 13.6664 4.15984C13.6788 3.89127 13.693 3.58147 13.511 3.39939C13.3661 3.25447 13.1997 3.25323 12.8668 3.25074C12.8012 3.25025 12.7312 3.25001 12.6562 3.25001H11.3446C11.2697 3.25001 11.1996 3.25025 11.134 3.25074C10.8012 3.25323 10.6348 3.25447 10.4899 3.39939C10.3078 3.58146 10.3221 3.89127 10.3345 4.15983V4.15984C10.3374 4.2244 10.3403 4.28658 10.3403 4.34403C10.2833 4.95359 10.1633 5.51946 10.0287 6.00375ZM13.9722 17.9962C14.4815 17.9895 14.936 17.9706 15.328 17.9179C15.6172 17.879 15.9011 17.8186 16.1718 17.7195C16.1372 17.8051 16.1048 17.8889 16.0794 17.9608C15.9091 18.4424 15.7272 19.0914 15.6562 19.7978L15.6564 19.9205V19.9206C15.6571 20.2741 15.6578 20.6302 15.6107 20.9806C15.5592 21.3639 15.4337 21.8013 15.0704 22.1646C14.7072 22.5279 14.2699 22.6534 13.8867 22.7049C13.5468 22.7506 13.1347 22.7505 12.7106 22.7504H11.2902C10.8662 22.7505 10.454 22.7506 10.1141 22.7049C9.73092 22.6534 9.29364 22.5279 8.93043 22.1646C8.56712 21.8013 8.44165 21.3639 8.39016 20.9806C8.34447 20.6406 8.34455 20.2283 8.34464 19.8039C8.34475 19.1972 8.12189 18.5278 7.9215 17.9608C7.8961 17.8889 7.86369 17.8053 7.8291 17.7196C8.0997 17.8186 8.38343 17.879 8.67244 17.9179C9.06455 17.9706 9.51921 17.9895 10.0286 17.9963C10.1633 18.4806 10.2833 19.0467 10.3403 19.6564C10.3403 19.7139 10.3374 19.7761 10.3345 19.8406C10.3221 20.1092 10.3078 20.419 10.4899 20.6011C10.6348 20.746 10.8012 20.7472 11.134 20.7497C11.1996 20.7502 11.2697 20.7504 11.3446 20.7504H12.6562C12.7312 20.7504 12.8012 20.7502 12.8668 20.7497C13.1997 20.7472 13.3661 20.746 13.511 20.6011C13.693 20.419 13.6788 20.1092 13.6664 19.8406C13.6634 19.7761 13.6606 19.7139 13.6606 19.6564C13.7176 19.0467 13.8376 18.4806 13.9722 17.9962Z" fill="#141B34"/>
<path opacity="0.4" d="M10.9342 6L11 6H13L13.0658 6C13.9523 5.99995 14.7161 5.99991 15.3278 6.08215C15.9833 6.17028 16.6117 6.36902 17.1213 6.87868C17.631 7.38835 17.8297 8.0167 17.9179 8.67221C18.0001 9.28387 18.0001 10.0477 18 10.9342V13.0658C18.0001 13.9523 18.0001 14.7161 17.9179 15.3278C17.8297 15.9833 17.631 16.6117 17.1213 17.1213C16.6117 17.631 15.9833 17.8297 15.3278 17.9179C14.7161 18.0001 13.9523 18.0001 13.0658 18H10.9342C10.0477 18.0001 9.28387 18.0001 8.67221 17.9179C8.0167 17.8297 7.38835 17.631 6.87868 17.1213C6.36902 16.6117 6.17028 15.9833 6.08215 15.3278C5.99991 14.7161 5.99995 13.9523 6 13.0658L6 13V11L6 10.9342C5.99995 10.0477 5.99991 9.28387 6.08215 8.67221C6.17028 8.0167 6.36902 7.38835 6.87868 6.87868C7.38835 6.36902 8.0167 6.17028 8.67221 6.08215C9.28387 5.99991 10.0477 5.99995 10.9342 6Z" fill="#141B34"/>
</svg>
