<svg width="24" height="24" viewBox="0 0 24 24" fill="none" xmlns="http://www.w3.org/2000/svg">
<path d="M6.99316 16V19M16.9932 16V19" stroke="#141B34" stroke-width="1.5" stroke-linejoin="round"/>
<path d="M4.49316 8.99999L5.5065 6.29776C5.79923 5.51715 6.54547 5 7.37916 5H16.6072C17.4409 5 18.1871 5.51715 18.4799 6.29776L19.4932 8.99999" stroke="#141B34" stroke-width="1.5" stroke-linejoin="round"/>
<path d="M5.99107 10.0087L5.99115 10.0257M12.0657 15.9983H18.431C18.4686 15.9983 18.503 15.9772 18.52 15.9438L20.0068 13.0339C20.8232 13.0339 21.9 12.4906 21.995 10.9809C22.0641 9.88403 21.0209 8.99414 19.9175 8.99414C19.2696 8.99414 18.3747 9.54157 18.0823 10.3752L16.605 12.9958L12.0657 12.9862L7.39524 12.9958L5.91793 10.3752C5.62555 9.54157 4.73065 8.99414 4.08279 8.99414C2.97933 8.99414 1.93615 9.88403 2.0052 10.9809C2.10024 12.4906 3.17702 13.0339 3.99346 13.0339L5.4802 15.9438C5.49729 15.9772 5.53169 15.9983 5.56925 15.9983H12.0939M18.0092 10.0087L18.0091 10.0257" stroke="#141B34" stroke-width="1.5"/>
</svg>
