<svg width="24" height="24" viewBox="0 0 24 24" fill="none" xmlns="http://www.w3.org/2000/svg">
<path fill-rule="evenodd" clip-rule="evenodd" d="M3.25 10C3.25 5.16751 7.16751 1.25 12 1.25C16.8325 1.25 20.75 5.16751 20.75 10C20.75 12.0683 20.0312 13.9714 18.8305 15.4692L17.3133 14.253C18.2474 13.0877 18.8056 11.6104 18.8056 10C18.8056 8.47134 18.3016 7.0604 17.4507 5.92428L16.0902 7.28469L14.7153 5.90976L16.0757 4.54935C14.9396 3.69845 13.5287 3.19444 12 3.19444C8.2414 3.19444 5.19444 6.24139 5.19444 10C5.19444 11.6104 5.75255 13.0877 6.68669 14.253L5.16954 15.4692C3.96884 13.9714 3.25 12.0683 3.25 10Z" fill="#141B34"/>
<path d="M10 10.0005C10 11.1051 10.8954 12.0005 12 12.0005C13.1046 12.0005 14 11.1051 14 10.0005C14 8.89592 13.1046 8.00049 12 8.00049C10.8954 8.00049 10 8.89592 10 10.0005Z" fill="#141B34"/>
<path fill-rule="evenodd" clip-rule="evenodd" d="M3 14.2495C2.58579 14.2495 2.25 14.5853 2.25 14.9995V21.9995C2.25 22.4137 2.58579 22.7495 3 22.7495H21C21.4142 22.7495 21.75 22.4137 21.75 21.9995V14.9995C21.75 14.5853 21.4142 14.2495 21 14.2495H3ZM10 19.4995H14V17.4995H10V19.4995Z" fill="#141B34"/>
</svg>
