<svg width="24" height="24" viewBox="0 0 24 24" fill="none" xmlns="http://www.w3.org/2000/svg">
<path fill-rule="evenodd" clip-rule="evenodd" d="M12 15.25C12.4142 15.25 12.75 15.5858 12.75 16V19.25H15C15.4142 19.25 15.75 19.5858 15.75 20C15.75 20.4142 15.4142 20.75 15 20.75H9C8.58579 20.75 8.25 20.4142 8.25 20C8.25 19.5858 8.58579 19.25 9 19.25H11.25V16C11.25 15.5858 11.5858 15.25 12 15.25Z" fill="#141B34"/>
<path fill-rule="evenodd" clip-rule="evenodd" d="M9.20669 3.25H8.2826H8.28257H8.28255C7.58705 3.24998 7.00063 3.24996 6.51957 3.30676C6.00705 3.36727 5.54398 3.49844 5.12107 3.80626C4.70227 4.11107 4.42569 4.51443 4.19057 4.98845C3.96625 5.44068 3.75088 6.01957 3.49074 6.71877L3.49074 6.71878L2.56306 9.21202C2.55833 9.22473 2.55361 9.23743 2.5489 9.2501H8.34953L9.20669 3.25ZM1.99864 10.7501C1.72851 11.5101 1.51608 12.1698 1.38926 12.7422C1.1784 13.6938 1.16385 14.5704 1.65181 15.3452C2.14928 16.1351 2.94228 16.4615 3.87037 16.6089C4.7412 16.7472 5.88115 16.75 7.27811 16.75L8.13524 10.7501H1.99864ZM8.79334 16.75H15.2067L14.3495 10.7501H9.65047L8.79334 16.75ZM16.7219 16.75C18.1188 16.75 19.2587 16.7472 20.1294 16.6089C21.0575 16.4615 21.8505 16.1351 22.348 15.3452C22.836 14.5704 22.8214 13.6938 22.6105 12.7422C22.4837 12.1698 22.2713 11.5101 22.0012 10.7501H15.8648L16.7219 16.75ZM21.4509 9.2501C21.4462 9.23741 21.4415 9.22471 21.4367 9.21198L20.5091 6.71876L20.5091 6.71872L20.509 6.71865C20.2489 6.01951 20.0335 5.44065 19.8092 4.98844C19.5741 4.51443 19.2975 4.11107 18.8787 3.80626C18.4558 3.49844 17.9928 3.36727 17.4802 3.30676C16.9992 3.24996 16.4128 3.24998 15.7173 3.25H15.7172H15.7172H14.7933L15.6505 9.2501H21.4509ZM13.2781 3.25H10.7219L9.86476 9.2501H14.1352L13.2781 3.25Z" fill="#141B34"/>
</svg>
