<svg width="24" height="24" viewBox="0 0 24 24" fill="none" xmlns="http://www.w3.org/2000/svg">
<g opacity="0.4">
<path d="M18.9469 10.2776C18.7024 10.2499 18.4111 10.25 18.1018 10.25L15.1159 10.25L15.2344 10.8489L15.8561 13.7502H21.2457L20.6384 12.0433C20.5343 11.7507 20.4365 11.4757 20.3285 11.2542C20.2082 11.0075 20.0453 10.7608 19.7761 10.5703C19.5066 10.3797 19.2197 10.3084 18.9469 10.2776Z" fill="#141B34"/>
<path d="M21.7793 15.2502H16.1775L16.7331 17.8431L16.7362 17.8581L16.9083 18.75H15.3806L15.2648 18.1499L14.6434 15.2502H9.35607L8.73311 18.1574C8.73001 18.1718 8.72649 18.1862 8.72254 18.2005L8.57032 18.75H7.01384L7.27105 17.8214L7.82202 15.2502H2.22036C2.03774 15.7643 1.87946 16.2214 1.80367 16.6027C1.71617 17.0428 1.70231 17.5494 2.02355 18.007C2.34535 18.4654 2.82697 18.6234 3.27082 18.689C3.68493 18.7501 4.2142 18.7501 4.81091 18.75H19.1887C19.7854 18.7501 20.3147 18.7501 20.7288 18.689C21.1727 18.6234 21.6543 18.4654 21.9761 18.007C22.2974 17.5494 22.2835 17.0428 22.196 16.6027C22.1202 16.2214 21.9619 15.7643 21.7793 15.2502Z" fill="#141B34"/>
<path d="M2.22036 15.2502L2.75218 13.7554L2.26426 15.1268C2.24951 15.1683 2.23484 15.2095 2.22036 15.2502Z" fill="#141B34"/>
<path d="M2.75401 13.7502H8.14345L8.7661 10.8445L8.8923 10.25L5.89786 10.25C5.58857 10.25 5.29731 10.2499 5.05275 10.2776C4.77998 10.3084 4.49305 10.3797 4.22357 10.5703C3.95433 10.7608 3.79144 11.0075 3.67117 11.2542C3.56315 11.4757 3.46536 11.7507 3.3613 12.0433L2.75401 13.7502Z" fill="#141B34"/>
<path d="M10.4257 10.25L10.2331 11.1574L9.6775 13.7502H14.322L13.7639 11.1457L13.5868 10.25H10.4257Z" fill="#141B34"/>
</g>
<path fill-rule="evenodd" clip-rule="evenodd" d="M12 1.25C12.4142 1.25 12.75 1.58579 12.75 2V2.50852C13.0478 2.58294 13.3284 2.70064 13.5848 2.85457L13.9445 2.4948C14.2374 2.20191 14.7123 2.20191 15.0052 2.4948C15.2981 2.7877 15.2981 3.26257 15.0052 3.55546L14.6454 3.91523C14.7994 4.17162 14.9171 4.45224 14.9915 4.75H15.5C15.9142 4.75 16.25 5.08579 16.25 5.5C16.25 5.91421 15.9142 6.25 15.5 6.25H14.9915C14.9171 6.54777 14.7994 6.82838 14.6454 7.08478L15.0052 7.44455C15.2981 7.73744 15.2981 8.21232 15.0052 8.50521C14.7123 8.7981 14.2374 8.7981 13.9445 8.50521L13.5848 8.14544C13.3284 8.29936 13.0478 8.41707 12.75 8.49148V9C12.75 9.41421 12.4142 9.75 12 9.75C11.5858 9.75 11.25 9.41421 11.25 9V8.49148C10.9522 8.41707 10.6716 8.29936 10.4152 8.14544L10.0555 8.50521C9.76256 8.7981 9.28769 8.7981 8.9948 8.50521C8.7019 8.21232 8.7019 7.73744 8.9948 7.44455L9.35457 7.08478C9.20064 6.82838 9.08294 6.54777 9.00852 6.25H8.5C8.08579 6.25 7.75 5.91421 7.75 5.5C7.75 5.08579 8.08579 4.75 8.5 4.75H9.00852C9.08293 4.45224 9.20064 4.17162 9.35456 3.91523L8.9948 3.55546C8.7019 3.26257 8.7019 2.7877 8.9948 2.4948C9.28769 2.20191 9.76256 2.20191 10.0555 2.4948L10.4152 2.85457C10.6716 2.70064 10.9522 2.58294 11.25 2.50852V2C11.25 1.58579 11.5858 1.25 12 1.25ZM13.1179 4.3787C12.8315 4.09318 12.4364 3.91667 12 3.91667C11.1255 3.91667 10.4167 4.62555 10.4167 5.5C10.4167 6.37445 11.1255 7.08333 12 7.08333C12.8745 7.08333 13.5833 6.37445 13.5833 5.5C13.5833 5.0619 13.4054 4.66536 13.1179 4.3787Z" fill="#141B34"/>
<path fill-rule="evenodd" clip-rule="evenodd" d="M1.25 21.75C1.25 21.1977 1.69772 20.75 2.25 20.75H21.75C22.3023 20.75 22.75 21.1977 22.75 21.75C22.75 22.3023 22.3023 22.75 21.75 22.75H2.25C1.69772 22.75 1.25 22.3023 1.25 21.75Z" fill="#141B34"/>
<path d="M9.9965 18.75C9.97361 19.7598 9.83085 21.0808 9 22H15C14.1692 21.0808 14.0264 19.7598 14.0035 18.75H9.9965Z" fill="#141B34"/>
</svg>
