<svg width="24" height="24" viewBox="0 0 24 24" fill="none" xmlns="http://www.w3.org/2000/svg">
<path fill-rule="evenodd" clip-rule="evenodd" d="M18.0001 10.0003L5.99999 10.0002L6 8.00024L18.0001 8.0003L18.0001 10.0003Z" fill="#141B34"/>
<path fill-rule="evenodd" clip-rule="evenodd" d="M21 14.0002H3V12.0002H21V14.0002Z" fill="#141B34"/>
<path fill-rule="evenodd" clip-rule="evenodd" d="M12.0001 2L15.2072 5.20711L13.793 6.62132L13.0001 5.82843L13.0002 9.00023H11.0002L11.0001 5.82843L10.2072 6.62132L8.79297 5.20711L12.0001 2Z" fill="#141B34"/>
<path fill-rule="evenodd" clip-rule="evenodd" d="M8.00008 14.5861L11.2072 17.7932L9.79297 19.2074L9.00008 18.4145V22.0003H7.00008V18.4145L6.20718 19.2074L4.79297 17.7932L8.00008 14.5861Z" fill="#141B34"/>
<path fill-rule="evenodd" clip-rule="evenodd" d="M16.0001 14.5861L19.2072 17.7932L17.793 19.2074L17.0001 18.4145V22.0003H15.0001V18.4145L14.2072 19.2074L12.793 17.7932L16.0001 14.5861Z" fill="#141B34"/>
</svg>
