<svg width="24" height="24" viewBox="0 0 24 24" fill="none" xmlns="http://www.w3.org/2000/svg">
<path opacity="0.4" d="M22.25 12.0526V12V11.9474C22.25 9.75475 22.25 8.03277 22.0693 6.68848C21.8842 5.31182 21.4969 4.21953 20.6387 3.36133C19.7805 2.50313 18.6882 2.11575 17.3115 1.93066C15.9672 1.74998 14.2452 1.74999 12.0526 1.75H12H11.9474C9.75476 1.74999 8.03277 1.74998 6.68848 1.93066C5.31182 2.11575 4.21953 2.50313 3.36133 3.36133C2.50313 4.21953 2.11575 5.31182 1.93066 6.68848C1.74998 8.03277 1.74999 9.75476 1.75 11.9474V12V12.0526C1.74999 14.2452 1.74998 15.9672 1.93066 17.3115C2.11575 18.6882 2.50313 19.7805 3.36133 20.6387C4.21953 21.4969 5.31182 21.8842 6.68848 22.0693C8.03277 22.25 9.75475 22.25 11.9474 22.25H12H12.0526C14.2452 22.25 15.9672 22.25 17.3115 22.0693C18.6882 21.8842 19.7805 21.4969 20.6387 20.6387C21.4969 19.7805 21.8842 18.6882 22.0693 17.3115C22.25 15.9672 22.25 14.2452 22.25 12.0526Z" fill="#141B34"/>
<path d="M10.0001 9.99992V11.9999C10.0001 12.2175 10.0036 12.4101 10.005 12.582L14.293 8.29289C14.6836 7.90237 15.3166 7.90237 15.7071 8.29289C16.0976 8.68342 16.0976 9.31643 15.7071 9.70696L11.419 13.996C11.5907 13.9974 11.783 13.9999 12.0001 13.9999H14.0001C14.5524 13.9999 15.0001 14.4476 15.0001 14.9999C15.0001 15.5522 14.5524 15.9999 14.0001 15.9999H12.0001C11.3212 15.9999 10.7114 16.0024 10.2208 15.9364C9.70145 15.8666 9.16891 15.7039 8.7325 15.2675L8.58113 15.0995C8.25685 14.6981 8.12465 14.2336 8.06355 13.7792C7.99759 13.2886 8.00007 12.6788 8.00007 11.9999V9.99992C8.00007 9.44764 8.44779 8.99992 9.00007 8.99992C9.55236 8.99992 10.0001 9.44764 10.0001 9.99992Z" fill="#141B34"/>
</svg>
