<svg width="24" height="24" viewBox="0 0 24 24" fill="none" xmlns="http://www.w3.org/2000/svg">
<path d="M12 22C17.5228 22 22 17.5228 22 12C22 6.47715 17.5228 2 12 2C6.47715 2 2 6.47715 2 12C2 17.5228 6.47715 22 12 22Z" stroke="#141B34" stroke-width="1.5"/>
<path opacity="0.4" d="M7.27051 11.1876C7.93418 11.1527 8.47825 11.1884 8.73851 11.7996C9.03851 12.5041 9.87851 14.7396 10.0585 15.2196C10.266 15.7729 10.5985 16.0596 11.6025 15.9756M11.8904 11.1867C10.8104 11.1267 9.87618 12.842 9.44241 13.5987C8.90241 14.4387 8.01841 15.9987 6.98242 15.9747M17.1731 11.5898H14.1731C14.1731 11.5898 16.178 10.269 16.3975 10.1189C16.617 9.96883 17.1731 9.64366 17.1731 8.91817C17.1731 8.19268 16.4482 7.58983 15.6804 7.58984C14.9127 7.58985 14.1731 8.12436 14.1731 8.92567" stroke="#141B34" stroke-width="1.5" stroke-linecap="round" stroke-linejoin="round"/>
</svg>
