<svg width="24" height="24" viewBox="0 0 24 24" fill="none" xmlns="http://www.w3.org/2000/svg">
<path opacity="0.4" d="M2.5 12C2.5 7.52166 2.5 5.28249 3.89124 3.89124C5.28249 2.5 7.52166 2.5 12 2.5C16.4783 2.5 18.7175 2.5 20.1088 3.89124C21.5 5.28249 21.5 7.52166 21.5 12C21.5 16.4783 21.5 18.7175 20.1088 20.1088C18.7175 21.5 16.4783 21.5 12 21.5C7.52166 21.5 5.28249 21.5 3.89124 20.1088C2.5 18.7175 2.5 16.4783 2.5 12Z" fill="#141B34"/>
<path d="M2.5 12C2.5 7.52166 2.5 5.28249 3.89124 3.89124C5.28249 2.5 7.52166 2.5 12 2.5C16.4783 2.5 18.7175 2.5 20.1088 3.89124C21.5 5.28249 21.5 7.52166 21.5 12C21.5 16.4783 21.5 18.7175 20.1088 20.1088C18.7175 21.5 16.4783 21.5 12 21.5C7.52166 21.5 5.28249 21.5 3.89124 20.1088C2.5 18.7175 2.5 16.4783 2.5 12Z" stroke="#141B34" stroke-width="1.5" stroke-linejoin="round"/>
<path d="M18.0107 7.98576L12.6162 7.98563C11.6847 7.98563 11.4817 7.94751 11.2981 8.76814L9.93936 14.4923C9.56062 15.8149 9.47322 15.9589 9.09609 15.9854C8.6855 15.8658 8.48456 15.3204 7.86509 14.0737C7.75491 13.8825 7.36778 12.961 7.2008 12.7999C6.99083 12.5973 6.36107 12.9011 6.01074 13.0995" stroke="#141B34" stroke-width="1.5" stroke-linecap="round" stroke-linejoin="round"/>
<path d="M13.083 11.4231C13.505 11.4091 14.043 11.4231 14.2557 11.8534C14.6006 12.551 15.1252 13.9141 15.3281 14.3677C15.4295 14.5421 15.4908 14.6928 15.8525 14.8137C16.1231 14.8486 16.5156 14.858 16.5156 14.858" stroke="#141B34" stroke-width="1.5" stroke-linecap="round"/>
<path d="M16.7378 11.4355C15.8876 11.4355 15.4013 12.3414 14.9252 12.9386C14.3131 13.8522 13.6834 14.8744 12.8877 14.8462" stroke="#141B34" stroke-width="1.5" stroke-linecap="round"/>
</svg>
