<svg width="24" height="24" viewBox="0 0 24 24" fill="none" xmlns="http://www.w3.org/2000/svg">
<path opacity="0.4" d="M5.00098 19.0039C5.0168 20.2412 5.0979 20.9428 5.51376 21.4133C6.03037 21.998 6.86184 21.998 8.52478 21.998H15.4772C17.1401 21.998 17.9716 21.998 18.4882 21.4133C18.9041 20.9428 18.9852 20.2412 19.001 19.0039" stroke="#141B34" stroke-width="1.5" stroke-linecap="round" stroke-linejoin="round"/>
<path d="M11.9893 19.0393L4.75758 19.0394C4.0396 19.0394 3.41852 18.4549 3.50875 17.7441C3.66781 16.491 4.30619 14.9762 6.83663 14.0446C7.72618 13.7172 8.70562 13.4337 9.18822 12.6192C9.86558 11.4759 10.1641 10.2247 8.90071 8.07874C6.83663 4.01902 9.92501 2.00195 12.012 2.00195C14.0989 2.00195 17.1495 4.14716 15.0649 8.07874C13.7992 10.2073 14.1356 11.4759 14.813 12.6192C15.2956 13.4337 16.2751 13.7172 17.1646 14.0446C19.695 14.9762 20.3334 16.491 20.4925 17.7441C20.5827 18.4549 19.9616 19.0394 19.2437 19.0394L12.012 19.0393" stroke="#141B34" stroke-width="1.5" stroke-linecap="round" stroke-linejoin="round"/>
</svg>
