<svg width="24" height="24" viewBox="0 0 24 24" fill="none" xmlns="http://www.w3.org/2000/svg">
<path opacity="0.4" d="M1.25 12C1.25 6.06294 6.06294 1.25 12 1.25C17.9371 1.25 22.75 6.06294 22.75 12C22.75 17.9371 17.9371 22.75 12 22.75C6.06294 22.75 1.25 17.9371 1.25 12Z" fill="#141B34"/>
<path fill-rule="evenodd" clip-rule="evenodd" d="M8.18997 5.1001C7.99464 4.70465 7.60737 4.24957 6.99849 4.24957C6.39051 4.24957 6.00239 4.70367 5.8057 5.09822L5.80501 5.09962L5.31383 6.0901L4.44523 6.2356C4.00624 6.30937 3.48161 6.55372 3.30295 7.11783C3.12519 7.67909 3.4094 8.18062 3.72166 8.49546L4.4034 9.18283L4.2101 10.0255C4.1111 10.457 4.08399 11.1356 4.62488 11.5335C5.16944 11.9342 5.80981 11.6995 6.18976 11.4722L6.99887 10.9893L7.80835 11.4725C8.18609 11.6974 8.8282 11.9358 9.37372 11.5348C9.91613 11.1361 9.88582 10.4551 9.78779 10.0262L9.59434 9.18283L10.2743 8.49728L10.2753 8.49628C10.5894 8.1812 10.8748 7.6789 10.6955 7.11648C10.5158 6.55297 9.99111 6.30931 9.55289 6.23567L8.68064 6.08955L8.19042 5.10102L8.18997 5.1001ZM7.69749 6.99815L7.34553 6.28841C7.15555 5.90329 6.84358 5.90329 6.6516 6.28841L6.29964 6.99815C6.25165 7.09694 6.12366 7.19171 6.01767 7.20986L5.37974 7.31672C4.97179 7.38528 4.8778 7.68369 5.16977 7.97807L5.66571 8.47811C5.7497 8.5628 5.7957 8.72612 5.7697 8.84306L5.62772 9.46207C5.51573 9.95002 5.7757 10.1416 6.20365 9.88549L6.80159 9.52861C6.91157 9.46409 7.08956 9.46409 7.19754 9.52861L7.79548 9.88549C8.22543 10.1416 8.4834 9.95203 8.37141 9.46207L8.22943 8.84306C8.20343 8.72612 8.24943 8.5628 8.33342 8.47811L8.82936 7.97807C9.12333 7.68369 9.02734 7.38528 8.61939 7.31672L7.98146 7.20986C7.87347 7.19171 7.74548 7.09694 7.69749 6.99815Z" fill="#141B34"/>
<path fill-rule="evenodd" clip-rule="evenodd" d="M18.1902 5.10055C17.9949 4.70499 17.6076 4.24957 16.9985 4.24957C16.3905 4.24957 16.0024 4.70367 15.8057 5.09822L15.805 5.09962L15.3138 6.0901L14.4452 6.2356C14.0062 6.30937 13.4816 6.55372 13.303 7.11783C13.1252 7.67909 13.4094 8.18062 13.7217 8.49546L14.4034 9.18283L14.2101 10.0255C14.1111 10.457 14.084 11.1356 14.6249 11.5335C15.1695 11.9342 15.8099 11.6995 16.1899 11.4722L16.9989 10.9893L17.8083 11.4725C18.1861 11.6974 18.8282 11.9358 19.3737 11.5348C19.9161 11.1361 19.8858 10.4551 19.7878 10.0262L19.5943 9.18283L20.2743 8.49728L20.2751 8.49645C20.5893 8.18138 20.8748 7.67901 20.6955 7.11648C20.5158 6.55297 19.9911 6.30931 19.5529 6.23567L18.6806 6.08955L18.1902 5.10055ZM17.6975 6.99815L17.3455 6.28841C17.1555 5.90329 16.8436 5.90329 16.6516 6.28841L16.2996 6.99815C16.2516 7.09694 16.1237 7.19171 16.0177 7.20986L15.3797 7.31672C14.9718 7.38528 14.8778 7.68369 15.1698 7.97807L15.6657 8.47811C15.7497 8.5628 15.7957 8.72612 15.7697 8.84306L15.6277 9.46207C15.5157 9.95002 15.7757 10.1416 16.2037 9.88549L16.8016 9.52861C16.9116 9.46409 17.0896 9.46409 17.1975 9.52861L17.7955 9.88549C18.2254 10.1416 18.4834 9.95203 18.3714 9.46207L18.2294 8.84306C18.2034 8.72612 18.2494 8.5628 18.3334 8.47811L18.8294 7.97807C19.1233 7.68369 19.0273 7.38528 18.6194 7.31672L17.9815 7.20986C17.8735 7.19171 17.7455 7.09694 17.6975 6.99815Z" fill="#141B34"/>
<path fill-rule="evenodd" clip-rule="evenodd" d="M7.54964 14.4003C7.88084 14.1516 8.35099 14.2184 8.59974 14.5496C9.37631 15.5836 10.6103 16.25 12 16.25C13.3898 16.25 14.6238 15.5836 15.4003 14.5496C15.6491 14.2184 16.1192 14.1516 16.4505 14.4003C16.7817 14.6491 16.8485 15.1192 16.5997 15.4505C15.5521 16.8454 13.8816 17.75 12 17.75C10.1185 17.75 8.44802 16.8454 7.40035 15.4505C7.1516 15.1192 7.21843 14.6491 7.54964 14.4003Z" fill="#141B34"/>
</svg>
