<svg width="24" height="24" viewBox="0 0 24 24" fill="none" xmlns="http://www.w3.org/2000/svg">
<path d="M21 3V21H3V3H21Z" stroke="#141B34" stroke-width="1.5" stroke-linejoin="round"/>
<path d="M11.9712 7.09448C12.0117 7.0324 12.0982 7.03229 12.1389 7.09426L13.8273 10.0273L17.0028 10.8223C17.0736 10.8429 17.0878 10.8637 17.0419 10.9245L14.8317 13.2773L15.6706 16.9613C15.6719 16.9667 15.6727 16.9723 15.6728 16.9778C15.6743 17.0462 15.6539 17.062 15.5874 17.0361L12.0684 15.5633L8.54299 17.0361C8.47684 17.062 8.45313 16.9774 8.45511 16.904C8.45527 16.8983 8.45608 16.8925 8.45734 16.8869L9.27907 13.2993L7.09264 10.9452C7.04681 10.8845 7.06792 10.8302 7.13859 10.8095L10.2838 10.0263L11.9712 7.09448Z" stroke="#141B34" stroke-width="1.5"/>
</svg>
