<svg width="24" height="24" viewBox="0 0 24 24" fill="none" xmlns="http://www.w3.org/2000/svg">
<path fill-rule="evenodd" clip-rule="evenodd" d="M6 20C6 19.4477 6.44772 19 7 19H13C13.5523 19 14 19.4477 14 20C14 20.5523 13.5523 21 13 21H7C6.44772 21 6 20.5523 6 20Z" fill="#141B34"/>
<path fill-rule="evenodd" clip-rule="evenodd" d="M6 5C4.89543 5 4 5.89543 4 7V17.4169C4 17.9692 3.55228 18.4169 3 18.4169C2.44772 18.4169 2 17.9692 2 17.4169V7C2 4.79086 3.79086 3 6 3H14.4213C16.632 3 18.4235 4.79325 18.4213 7.00392L18.4142 14.2702H20C20.3996 14.2702 20.7609 14.5082 20.9187 14.8753C21.0765 15.2425 21.0006 15.6683 20.7256 15.9583L18.1371 18.6881C17.9476 18.8878 17.6843 19.0007 17.409 19C17.1337 18.9993 16.8708 18.8852 16.6824 18.6845L14.1195 15.9547C13.8465 15.664 13.7724 15.239 13.9307 14.873C14.0891 14.5071 14.4497 14.2702 14.8485 14.2702H16.4142L16.4213 7.00196C16.4224 5.89662 15.5266 5 14.4213 5H6Z" fill="#141B34"/>
</svg>
