<svg width="24" height="24" viewBox="0 0 24 24" fill="none" xmlns="http://www.w3.org/2000/svg">
<path d="M14.5 1.25C15.0523 1.25 15.5 1.69772 15.5 2.25C15.5 2.80228 15.0523 3.25 14.5 3.25H9.5C8.94772 3.25 8.5 2.80228 8.5 2.25C8.5 1.69772 8.94772 1.25 9.5 1.25H14.5Z" fill="#141B34"/>
<path opacity="0.4" d="M12 22.75C17.1086 22.75 21.25 18.6086 21.25 13.5C21.25 11.2962 20.4779 9.2735 19.1914 7.68452L19.9911 6.88579C20.3713 6.50555 20.3713 5.88919 19.9911 5.50894C19.6108 5.1287 18.9945 5.1287 18.6142 5.50894L17.8145 6.30767C16.2257 5.02161 14.2033 4.25 12 4.25C6.89137 4.25 2.75 8.39137 2.75 13.5C2.75 18.6086 6.89137 22.75 12 22.75Z" fill="#141B34"/>
<path d="M14.8691 9.22437C15.2619 8.90402 15.8409 8.92662 16.207 9.29273C16.5731 9.65885 16.5957 10.2379 16.2754 10.6306L16.207 10.7068L12.707 14.2068C12.3165 14.5973 11.6835 14.5973 11.293 14.2068C10.9024 13.8163 10.9024 13.1833 11.293 12.7927L14.793 9.29273L14.8691 9.22437Z" fill="#141B34"/>
</svg>
