<svg width="24" height="24" viewBox="0 0 24 24" fill="none" xmlns="http://www.w3.org/2000/svg">
<path d="M19.1754 2.65703C18.3379 2.23186 17.3725 2.25097 15.9557 2.25078L8.0465 2.2498C6.62924 2.24961 5.66361 2.23088 4.8258 2.65605C3.98822 3.08128 3.43377 3.87162 2.59728 5.01542L2.20959 5.54472L2.2008 5.55839C1.82824 6.09143 1.45989 6.75954 1.31506 7.45976C1.1657 8.18184 1.24702 9.00163 1.8717 9.67167C2.49188 10.3367 3.38985 10.7498 4.37951 10.7498C5.41747 10.7498 6.36304 10.2904 6.98693 9.55937C7.58297 10.2858 8.48759 10.7498 9.5006 10.7498C10.5062 10.7498 11.4045 10.2922 12.0006 9.575C12.5968 10.2922 13.4951 10.7498 14.5006 10.7498C15.5132 10.7498 16.4171 10.2862 17.0133 9.56035C17.6372 10.2919 18.5833 10.7518 19.6217 10.7518C20.6113 10.7517 21.5093 10.3387 22.1295 9.67363C22.7542 9.00358 22.8345 8.1838 22.6852 7.46171C22.5403 6.76153 22.1729 6.09335 21.8004 5.56035L21.7916 5.54667L21.4029 5.0164C20.5666 3.87285 20.0129 3.08218 19.1754 2.65703Z" fill="#141B34"/>
<path d="M19.5434 15.0434C19.9339 14.6529 20.5669 14.6529 20.9574 15.0434C21.348 15.4339 21.348 16.0669 20.9574 16.4574L19.1645 18.2504L20.9574 20.0434C21.348 20.4339 21.348 21.0669 20.9574 21.4574C20.5669 21.848 19.9339 21.848 19.5434 21.4574L17.7504 19.6645L15.9574 21.4574C15.5669 21.848 14.9339 21.848 14.5434 21.4574C14.1529 21.0669 14.1529 20.4339 14.5434 20.0434L16.3364 18.2504L14.5434 16.4574C14.1529 16.0669 14.1529 15.4339 14.5434 15.0434C14.9339 14.6529 15.5669 14.6529 15.9574 15.0434L17.7504 16.8364L19.5434 15.0434Z" fill="#141B34"/>
<path d="M6.97437 10.9174C7.68 11.44 8.5542 11.7513 9.50073 11.7513C10.4361 11.7512 11.2999 11.4462 12.0007 10.9349C12.7016 11.4462 13.5654 11.7513 14.5007 11.7513C15.4463 11.7512 16.3191 11.4399 17.0242 10.9183C17.7574 11.4453 18.6604 11.7532 19.6218 11.7533C20.1943 11.7532 20.7449 11.6434 21.2507 11.4457V13.7357C20.475 13.3502 19.5243 13.4387 18.8308 14.0043L18.6599 14.1586L17.7507 15.0677L16.8416 14.1586C15.9629 13.2799 14.5386 13.28 13.6599 14.1586C12.7812 15.0372 12.7812 16.4615 13.6599 17.3402L14.5691 18.2494L13.6599 19.1586C12.9583 19.8602 12.8183 20.9086 13.2371 21.7504H9.43628C8.07352 21.7504 6.97394 21.7504 6.10913 21.6342C5.20922 21.5131 4.4512 21.2535 3.84937 20.6517C3.24755 20.0498 2.98796 19.292 2.86694 18.392C2.75069 17.5271 2.7507 16.4279 2.75073 15.0648V11.4447C3.25661 11.6423 3.80706 11.7513 4.37964 11.7513C5.34002 11.7513 6.24158 11.4433 6.97437 10.9174Z" fill="#141B34"/>
</svg>
