<svg width="24" height="24" viewBox="0 0 24 24" fill="none" xmlns="http://www.w3.org/2000/svg">
<path d="M3.5 10V21H13M20.5 10V14" stroke="#141B34" stroke-width="1.5" stroke-linecap="square"/>
<path d="M17 7.51034C16.9944 8.8863 15.8773 10 14.5 10C13.1193 10 12 8.88071 12 7.5C12 8.88071 10.8807 10 9.5 10C8.11929 10 7 8.88071 7 7.5C7 8.88071 5.82654 10 4.379 10C3.59983 10 2.90007 9.6757 2.41999 9.1609C1.59461 8.27583 2.12559 6.97406 2.81446 5.98845L5 3L19 3.00187L21.1855 5.99032C21.8744 6.97592 22.4054 8.27769 21.58 9.16277C21.0999 9.67757 20.4001 10.0019 19.621 10.0019C18.1764 10.0019 17.0048 8.88716 17 7.51034Z" stroke="#141B34" stroke-width="1.5" stroke-linecap="square"/>
<path d="M14.5 18H20.5M17.5 21V15" stroke="#141B34" stroke-width="1.5" stroke-linecap="square"/>
</svg>
