<svg width="24" height="24" viewBox="0 0 24 24" fill="none" xmlns="http://www.w3.org/2000/svg">
<path fill-rule="evenodd" clip-rule="evenodd" d="M17.6288 19.043L15.3359 21.3359L16.7502 22.7502L19.043 20.4573L21.3359 22.7502L22.7502 21.3359L20.4573 19.043L22.7502 16.7502L21.3359 15.3359L19.043 17.6288L16.7502 15.3359L15.3359 16.7502L17.6288 19.043Z" fill="#141B34"/>
<path fill-rule="evenodd" clip-rule="evenodd" d="M11 18.25H6V16.25H11V18.25Z" fill="#141B34"/>
<path d="M2.25 20.7748V9.0498H4.2V19.7998H13V21.7498H3.225C2.68652 21.7498 2.25 21.3133 2.25 20.7748Z" fill="#141B34"/>
<path d="M19.8 9.0498H21.75V12.9998H19.8V9.0498Z" fill="#141B34"/>
<path d="M22.7152 8.27967C22.7843 8.50442 22.744 8.74857 22.6063 8.93919C21.7343 10.1465 20.3195 11.7501 17.753 11.7501C16.6733 11.7501 15.6759 11.3934 14.8754 10.7923C14.0746 11.3938 13.0776 11.7501 11.9977 11.7501C10.9182 11.7501 9.92112 11.3936 9.12068 10.7928C8.32002 11.394 7.3233 11.7501 6.24364 11.7501C3.67691 11.7501 2.26376 10.1462 1.392 8.93919C1.25429 8.74852 1.214 8.5043 1.28317 8.2795L3.44607 1.25L20.5541 1.25008L22.7152 8.27967Z" fill="#141B34"/>
</svg>
