<svg width="24" height="24" viewBox="0 0 24 24" fill="none" xmlns="http://www.w3.org/2000/svg">
<path d="M3.49835 10V21H12.9984M20.4984 10V11.5" stroke="#141B34" stroke-width="1.5" stroke-linecap="square"/>
<path d="M16.9983 7.51034C16.9928 8.8863 15.8756 10 14.4984 10C13.1176 10 11.9984 8.88071 11.9984 7.5C11.9984 8.88071 10.8791 10 9.49835 10C8.11764 10 6.99835 8.88071 6.99835 7.5C6.99835 8.88071 5.82489 10 4.37735 10C3.59818 10 2.89842 9.6757 2.41834 9.1609C1.59296 8.27583 2.12394 6.97406 2.81282 5.98845L4.99835 3L18.9983 3.00187L21.1839 5.99032C21.8727 6.97592 22.4037 8.27769 21.5783 9.16277C21.0982 9.67757 20.3985 10.0019 19.6193 10.0019C18.1747 10.0019 17.0031 8.88716 16.9983 7.51034Z" stroke="#141B34" stroke-width="1.5" stroke-linecap="square"/>
<path d="M18.4992 15.5V14M18.4992 19.5V21M21.4982 15.748L20.2307 16.4883M15.5051 19.248L16.776 18.5058M21.5051 19.2422L20.2367 18.5014M15.512 15.7422L16.7821 16.4839M20.2307 16.4883C19.8833 15.8969 19.2405 15.5 18.5051 15.5C17.7715 15.5 17.1301 15.895 16.7821 16.4839M20.2307 16.4883C20.4051 16.7851 20.5051 17.1309 20.5051 17.5C20.5051 17.8649 20.4074 18.2069 20.2367 18.5014M16.7821 16.4839C16.6061 16.7817 16.5051 17.1291 16.5051 17.5C16.5051 17.8667 16.6038 18.2103 16.776 18.5058M16.776 18.5058C17.1227 19.1004 17.7672 19.5 18.5051 19.5C19.2448 19.5 19.8907 19.0984 20.2367 18.5014" stroke="#141B34" stroke-width="1.5" stroke-linecap="square"/>
</svg>
