<svg width="24" height="24" viewBox="0 0 24 24" fill="none" xmlns="http://www.w3.org/2000/svg">
<path d="M21.7963 5.55469L21.7914 5.54883L19.3812 2.25293L4.61951 2.25098L2.20936 5.54688L2.20447 5.55273L2.20057 5.55957C1.82801 6.0926 1.45966 6.76169 1.31482 7.46191C1.1656 8.18395 1.24672 9.0039 1.87147 9.67383C2.49165 10.3388 3.38964 10.751 4.37928 10.751C5.41735 10.751 6.36281 10.2917 6.9867 9.56055C7.58273 10.2871 8.48725 10.751 9.50037 10.751C10.506 10.751 11.4042 10.2936 12.0004 9.57617C12.5965 10.2936 13.4947 10.751 14.5004 10.751C15.5131 10.751 16.4161 10.2866 17.0121 9.56055C17.6359 10.2929 18.5824 10.7529 19.6215 10.7529C20.6111 10.7529 21.5091 10.3398 22.1293 9.6748C22.7538 9.00479 22.8343 8.1849 22.6849 7.46289C22.54 6.76284 22.1726 6.09443 21.8002 5.56152L21.7963 5.55469Z" fill="#141B34"/>
<path d="M17.0229 10.915C17.7565 11.4426 18.6597 11.7509 19.6216 11.751L19.8589 11.7451C20.3462 11.7196 20.8149 11.6147 21.2505 11.4443V21.749H2.75049V11.4424C3.25659 11.6398 3.80688 11.749 4.37939 11.749L4.62842 11.7422C5.49541 11.6942 6.30498 11.3954 6.97412 10.915C7.67978 11.4377 8.55392 11.749 9.50049 11.749C10.4359 11.7489 11.2996 11.444 12.0005 10.9326C12.7014 11.444 13.5651 11.749 14.5005 11.749L14.7476 11.7422C15.5983 11.6932 16.3802 11.391 17.0229 10.915ZM14.4995 16.4404C13.9795 16.9021 13.0805 17.2508 11.9995 17.251C10.9183 17.251 10.0186 16.9021 9.49854 16.4404L8.93799 15.9424L7.94189 17.0635L8.50244 17.5615C9.3499 18.314 10.6286 18.751 11.9995 18.751C13.3703 18.7508 14.6483 18.314 15.4956 17.5615L16.0562 17.0635L15.0601 15.9424L14.4995 16.4404Z" fill="#141B34"/>
</svg>
