<svg width="24" height="24" viewBox="0 0 24 24" fill="none" xmlns="http://www.w3.org/2000/svg">
<path d="M20.2028 3.37793C19.6851 2.67028 18.8609 2.25215 17.9841 2.25195L6.01435 2.25C5.13696 2.24988 4.31158 2.66874 3.79365 3.37695L2.20771 5.5459L2.19892 5.55859C1.82636 6.09163 1.45801 6.76071 1.31318 7.46094C1.16396 8.18297 1.24508 9.00293 1.86982 9.67285L1.98993 9.79395C2.60318 10.3872 3.44985 10.75 4.37763 10.75C5.4157 10.75 6.36116 10.2907 6.98505 9.55957C7.58109 10.2862 8.48561 10.75 9.49872 10.75C10.5044 10.75 11.4026 10.2926 11.9987 9.5752C12.5949 10.2926 13.4931 10.75 14.4987 10.75C15.5111 10.75 16.4144 10.2863 17.0104 9.56055C17.6343 10.2925 18.5811 10.752 19.6198 10.752C20.6095 10.7519 21.5075 10.3389 22.1276 9.67383L22.238 9.54688C22.7612 8.90203 22.8233 8.13895 22.6833 7.46191C22.5565 6.8494 22.26 6.26107 21.9382 5.7666L21.7985 5.56055L21.7897 5.54785L20.2028 3.37793Z" fill="#141B34"/>
<path d="M19.2491 17.25C19.2491 17.0639 19.199 16.8925 19.1124 16.7451C18.9372 16.4469 18.6156 16.25 18.2491 16.25C17.8835 16.25 17.5624 16.4461 17.3868 16.7432C17.2996 16.891 17.2491 17.0631 17.2491 17.25C17.2491 17.4349 17.2984 17.6052 17.3839 17.752C17.5369 18.0144 17.803 18.1992 18.1134 18.2412L18.2491 18.25L18.3849 18.2412C18.6961 18.1991 18.9626 18.0135 19.1154 17.75C19.2001 17.6038 19.2491 17.4341 19.2491 17.25ZM21.2491 17.25C21.2491 17.439 21.23 17.6239 21.1964 17.8037L21.753 18.1289C22.2299 18.4074 22.3908 19.0192 22.1124 19.4961C21.834 19.9729 21.2221 20.1338 20.7452 19.8555L20.1925 19.5332C19.915 19.7696 19.5947 19.9576 19.2433 20.0811V20.75C19.2433 21.3022 18.7955 21.7499 18.2433 21.75C17.691 21.75 17.2433 21.3023 17.2433 20.75V20.0762C16.8979 19.9532 16.5823 19.7686 16.3087 19.5361L15.753 19.8613C15.2762 20.1397 14.6644 19.9788 14.3859 19.502C14.1075 19.0251 14.2684 18.4133 14.7452 18.1348L15.3019 17.8086C15.2677 17.6273 15.2491 17.4406 15.2491 17.25C15.2491 17.0546 15.2679 16.8632 15.3038 16.6777L14.7521 16.3555C14.2752 16.077 14.1143 15.4652 14.3927 14.9883C14.6712 14.5114 15.283 14.3505 15.7599 14.6289L16.3185 14.9551C16.5898 14.7266 16.9021 14.5453 17.2433 14.4238V13.75C17.2433 13.1977 17.691 12.75 18.2433 12.75C18.7955 12.7501 19.2433 13.1978 19.2433 13.75V14.418C19.5906 14.5399 19.9075 14.7256 20.1827 14.958L20.7374 14.6348C21.2143 14.3562 21.8271 14.5172 22.1056 14.9941C22.3839 15.471 22.223 16.0829 21.7462 16.3613L21.1935 16.6836C21.2287 16.8674 21.2491 17.0565 21.2491 17.25Z" fill="#141B34"/>
<path d="M6.9715 11.2188C7.69141 11.7086 8.56148 11.998 9.49884 11.998C10.4243 11.9979 11.2837 11.7157 11.9979 11.2373C12.7123 11.7162 13.5728 11.998 14.4988 11.998L14.7596 11.9902C15.5964 11.9422 16.3706 11.6627 17.0223 11.2197C17.2264 11.3548 17.4422 11.4729 17.6668 11.5752C16.8207 11.7992 16.1713 12.504 16.0262 13.3799C15.0229 13.0129 13.8709 13.4031 13.3133 14.3574C12.7441 15.3324 12.9934 16.5563 13.8475 17.2422C12.9879 17.9269 12.736 19.1552 13.3065 20.1328C13.865 21.0888 15.0197 21.4778 16.0242 21.1074C16.0605 21.3343 16.1317 21.5492 16.2303 21.748H5.49884C3.98017 21.7479 2.74786 20.5167 2.74786 18.998V11.709C3.25707 11.8958 3.80748 11.998 4.37775 11.998L4.64044 11.9912C5.49306 11.944 6.29405 11.6667 6.9715 11.2188Z" fill="#141B34"/>
</svg>
