<svg width="24" height="24" viewBox="0 0 24 24" fill="none" xmlns="http://www.w3.org/2000/svg">
<path d="M3.95526 10.125L4.00001 10.125L4.04476 10.125C4.47757 10.125 4.8744 10.1249 5.19721 10.1683C5.55269 10.2161 5.92842 10.3285 6.23744 10.6376C6.54647 10.9466 6.65891 11.3223 6.70671 11.6778C6.75011 12.0006 6.75006 12.3974 6.75001 12.8302V12.8303L6.75001 12.875L6.75001 12.9198V12.9198C6.75006 13.3526 6.75011 13.7494 6.70671 14.0722C6.65891 14.4277 6.54647 14.8034 6.23744 15.1124C5.92842 15.4215 5.55269 15.5339 5.19721 15.5817C4.8744 15.6251 4.47758 15.6251 4.04476 15.625H4.04475L4.00001 15.625L3.95526 15.625H3.95525C3.52244 15.6251 3.12561 15.6251 2.8028 15.5817C2.44732 15.5339 2.07159 15.4215 1.76257 15.1124C1.45355 14.8034 1.3411 14.4277 1.29331 14.0722C1.24991 13.7494 1.24995 13.3526 1.25 12.9198L1.25001 12.875L1.25 12.8303C1.24995 12.3974 1.24991 12.0006 1.29331 11.6778C1.3411 11.3223 1.45355 10.9466 1.76257 10.6376C2.07159 10.3285 2.44732 10.2161 2.8028 10.1683C3.12561 10.1249 3.52244 10.125 3.95526 10.125Z" fill="#141B34"/>
<path d="M19.9553 10.125L20 10.125L20.0448 10.125C20.4776 10.125 20.8744 10.1249 21.1972 10.1683C21.5527 10.2161 21.9284 10.3285 22.2374 10.6376C22.5465 10.9466 22.6589 11.3223 22.7067 11.6778C22.7501 12.0006 22.7501 12.3974 22.75 12.8302V12.8303L22.75 12.875L22.75 12.9198V12.9198C22.7501 13.3526 22.7501 13.7494 22.7067 14.0722C22.6589 14.4277 22.5465 14.8034 22.2374 15.1124C21.9284 15.4215 21.5527 15.5339 21.1972 15.5817C20.8744 15.6251 20.4776 15.6251 20.0448 15.625H20.0448L20 15.625L19.9553 15.625H19.9553C19.5224 15.6251 19.1256 15.6251 18.8028 15.5817C18.4473 15.5339 18.0716 15.4215 17.7626 15.1124C17.4535 14.8034 17.3411 14.4277 17.2933 14.0722C17.2499 13.7494 17.25 13.3526 17.25 12.9198L17.25 12.875L17.25 12.8303C17.25 12.3974 17.2499 12.0006 17.2933 11.6778C17.3411 11.3223 17.4535 10.9466 17.7626 10.6376C18.0716 10.3285 18.4473 10.2161 18.8028 10.1683C19.1256 10.1249 19.5224 10.125 19.9553 10.125Z" fill="#141B34"/>
<path fill-rule="evenodd" clip-rule="evenodd" d="M5.13633 7.06844C5.04336 7.49169 5 8.06931 5 8.875V10.875C5 11.4273 4.55228 11.875 4 11.875C3.44772 11.875 3 11.4273 3 10.875V8.875C3 8.02602 3.04298 7.27631 3.18292 6.63931C3.32534 5.99098 3.58149 5.3973 4.05189 4.92689C4.5223 4.45649 5.11598 4.20034 5.76431 4.05792C6.40131 3.91798 7.15102 3.875 8 3.875C8.55228 3.875 9 4.32272 9 4.875C9 5.42728 8.55228 5.875 8 5.875C7.19431 5.875 6.61669 5.91836 6.19344 6.01133C5.78152 6.10183 5.58204 6.22518 5.46611 6.34111C5.35018 6.45704 5.22683 6.65652 5.13633 7.06844ZM15 4.875C15 4.32272 15.4477 3.875 16 3.875C16.849 3.875 17.5987 3.91798 18.2357 4.05792C18.884 4.20034 19.4777 4.45649 19.9481 4.92689C20.4185 5.3973 20.6747 5.99098 20.8171 6.63931C20.957 7.27631 21 8.02602 21 8.875V10.875C21 11.4273 20.5523 11.875 20 11.875C19.4477 11.875 19 11.4273 19 10.875V8.875C19 8.06931 18.9566 7.49169 18.8637 7.06844C18.7732 6.65652 18.6498 6.45704 18.5339 6.34111C18.418 6.22518 18.2185 6.10183 17.8066 6.01133C17.3833 5.91836 16.8057 5.875 16 5.875C15.4477 5.875 15 5.42728 15 4.875ZM12 5.87489C12.5523 5.87489 13 6.32261 13 6.87489V13.8749C13 14.4272 12.5523 14.8749 12 14.8749C11.4477 14.8749 11 14.4272 11 13.8749V6.87489C11 6.32261 11.4477 5.87489 12 5.87489ZM12 17.8749C12.5523 17.8749 13 18.3226 13 18.8749V21.8749C13 22.4272 12.5523 22.8749 12 22.8749C11.4477 22.8749 11 22.4272 11 21.8749V18.8749C11 18.3226 11.4477 17.8749 12 17.8749Z" fill="#141B34"/>
<path d="M8.75 16.375C8.75 14.5801 10.2051 13.125 12 13.125C13.7949 13.125 15.25 14.5801 15.25 16.375C15.25 18.1699 13.7949 19.625 12 19.625C10.2051 19.625 8.75 18.1699 8.75 16.375Z" fill="#141B34"/>
<path d="M7.68699 2.131C8.16023 1.38914 8.97917 1.125 10 1.125H14C15.0208 1.125 15.8398 1.38914 16.313 2.131C16.7214 2.77123 16.75 3.61989 16.75 4.375C16.75 5.13011 16.7214 5.97877 16.313 6.619C15.8398 7.36086 15.0208 7.625 14 7.625H10C8.97917 7.625 8.16023 7.36086 7.68699 6.619C7.27859 5.97877 7.25 5.13011 7.25 4.375C7.25 3.61989 7.27859 2.77123 7.68699 2.131Z" fill="#141B34"/>
</svg>
