<svg width="24" height="24" viewBox="0 0 24 24" fill="none" xmlns="http://www.w3.org/2000/svg">
<path fill-rule="evenodd" clip-rule="evenodd" d="M1.5 2H6.5V4H3.5V20L6.49999 20L6.50001 22L1.5 22V2ZM22.5 2.00002V22H17.5V20H20.5V4.00003L17.5 4.00005L17.5 2.00005L22.5 2.00002Z" fill="#141B34"/>
<path fill-rule="evenodd" clip-rule="evenodd" d="M15.7066 7.2952C15.8942 7.48275 15.9996 7.73716 15.9996 8.00244V9.99994H13.9996V9.00282L11.2044 9.00388L13.8287 11.9996L11.2038 14.9991L13.9994 14.998V13.9999H15.9994V15.9976C15.9994 16.5497 15.5519 16.9973 14.9998 16.9976L8.99944 17C8.60698 17.0002 8.25071 16.7707 8.08848 16.4134C7.92624 16.056 7.98805 15.6368 8.24651 15.3414L11.1704 12.0003L8.24743 8.66366C7.98885 8.36849 7.92681 7.94936 8.08879 7.59194C8.25077 7.23452 8.60683 7.00487 8.99925 7.00472L14.9992 7.00244C15.2645 7.00234 15.519 7.10765 15.7066 7.2952Z" fill="#141B34"/>
</svg>
