<svg width="24" height="24" viewBox="0 0 24 24" fill="none" xmlns="http://www.w3.org/2000/svg">
<path fill-rule="evenodd" clip-rule="evenodd" d="M5.84388 3C4.27641 3 3 4.27586 3 5.85679C3 6.81795 3.47143 7.66749 4.19744 8.1865C4.64672 8.50768 4.75057 9.13227 4.42938 9.58156C4.10819 10.0308 3.4836 10.1347 3.03432 9.8135C1.80423 8.93413 1 7.48912 1 5.85679C1 3.17762 3.16552 1 5.84388 1C7.49321 1 8.94857 1.82731 9.8214 3.08433C10.1364 3.53797 10.024 4.16108 9.57035 4.47608C9.1167 4.79107 8.49359 4.67867 8.1786 4.22503C7.66246 3.4817 6.80854 3 5.84388 3Z" fill="#141B34"/>
<path fill-rule="evenodd" clip-rule="evenodd" d="M9.5894 12.1365C10.0642 12.4185 10.2206 13.0321 9.93854 13.5069L8.75701 15.4962H10.0003C10.3598 15.4962 10.6916 15.6892 10.8694 16.0016C11.0472 16.314 11.0437 16.6978 10.8602 17.0068L8.78177 20.5068C8.49978 20.9817 7.88623 21.1381 7.41136 20.8561C6.93649 20.5741 6.78013 19.9605 7.06212 19.4857L8.24349 17.4962H7C6.64053 17.4962 6.30872 17.3033 6.13091 16.9909C5.95309 16.6785 5.95665 16.2947 6.14021 15.9856L8.21896 12.4856C8.50099 12.0107 9.11455 11.8544 9.5894 12.1365Z" fill="#141B34"/>
<path fill-rule="evenodd" clip-rule="evenodd" d="M13.9474 16.1019C14.4414 16.3489 14.6416 16.9496 14.3946 17.4435L12.8946 20.4434C12.6476 20.9374 12.047 21.1376 11.553 20.8906C11.059 20.6436 10.8588 20.0429 11.1058 19.549L12.6058 16.5491C12.8528 16.0551 13.4535 15.8549 13.9474 16.1019ZM16.9474 16.1019C17.4414 16.3489 17.6416 16.9496 17.3946 17.4435L15.8946 20.4434C15.6476 20.9374 15.047 21.1376 14.553 20.8906C14.059 20.6436 13.8588 20.0429 14.1058 19.549L15.6058 16.5491C15.8528 16.0551 16.4535 15.8549 16.9474 16.1019Z" fill="#141B34"/>
<path d="M5.853 7.36039C3.22664 7.89228 1.25 10.2129 1.25 12.9959C1.25 15.6947 3.1093 17.9592 5.61684 18.5784C5.29644 18.3656 5.0241 18.0784 4.82726 17.7325C4.38274 16.9515 4.39162 15.9919 4.85053 15.2193L6.92928 11.7193C7.63434 10.5321 9.16826 10.1414 10.3554 10.8464C11.5425 11.5515 11.9333 13.0854 11.2282 14.2725L11.2078 14.3068C11.5147 14.4761 11.7856 14.7096 12 14.9953C12.7335 14.4461 13.7429 14.3221 14.6183 14.7598C14.7547 14.828 14.8822 14.907 15.0001 14.9952C15.7336 14.4461 16.743 14.3221 17.6183 14.7598C18.8532 15.3773 19.3538 16.879 18.7363 18.1139L18.4645 18.6575C20.9033 18.2046 22.75 16.0659 22.75 13.4959C22.75 10.8499 20.7927 8.6612 18.2469 8.29859C18.1428 4.93809 15.3858 2.24586 12 2.24586C8.93585 2.24586 6.38731 4.45042 5.853 7.36039Z" fill="#141B34"/>
</svg>
