<svg width="24" height="24" viewBox="0 0 24 24" fill="none" xmlns="http://www.w3.org/2000/svg">
<path d="M9.57875 15L7.5 18.5001L10.5003 18.5L8.42195 22" stroke="#141B34" stroke-width="1.5"/>
<path d="M16.5 20L15.5 22" stroke="#141B34" stroke-width="1.5" stroke-linejoin="round"/>
<path d="M13.5 20L12.5 22" stroke="#141B34" stroke-width="1.5" stroke-linejoin="round"/>
<path d="M17.9776 10.9008C17.985 10.9007 17.9925 10.9007 18 10.9007C20.4853 10.9007 22.5 12.8821 22.5 15.3263C22.5 17.2532 21.2478 18.8925 19.5 19.5M17.9776 10.9008C17.9924 10.7388 18 10.5748 18 10.409C18 7.42169 15.5376 5 12.5 5C9.62324 5 7.26233 7.17208 7.02042 9.9396M17.9776 10.9008C17.8753 12.0165 17.4286 13.0344 16.7428 13.8511M7.02042 9.9396C4.48398 10.177 2.5 12.2779 2.5 14.8345C2.5 16.4433 3.28555 17.8716 4.5 18.7687M7.02042 9.9396C7.17826 9.92483 7.33823 9.91727 7.5 9.91727C8.62582 9.91727 9.66474 10.2832 10.5005 10.9007" stroke="#141B34" stroke-width="1.5" stroke-linejoin="round"/>
<path d="M7.45538 4V2M7.45538 4C5.26267 4 3.48513 5.79086 3.48513 8M7.45538 4C8.67809 4 9.7717 4.55686 10.5 5.43258M1.5 8H3.48513M3.48513 8C3.48513 9.19469 4.00499 10.2671 4.82923 11M3.24459 3.75766L4.64829 5.17188" stroke="#141B34" stroke-width="1.5" stroke-linejoin="round"/>
</svg>
