<svg width="24" height="24" viewBox="0 0 24 24" fill="none" xmlns="http://www.w3.org/2000/svg">
<path fill-rule="evenodd" clip-rule="evenodd" d="M10.4179 15.1679C10.8084 14.7774 11.4416 14.7774 11.8321 15.1679L12.125 15.4608L12.4179 15.1679C12.8084 14.7774 13.4416 14.7774 13.8321 15.1679C14.2226 15.5584 14.2226 16.1916 13.8321 16.5821L13.5392 16.875L13.8321 17.1679C14.2226 17.5584 14.2226 18.1916 13.8321 18.5821C13.4416 18.9726 12.8084 18.9726 12.4179 18.5821L12.125 18.2892L11.8321 18.5821C11.4416 18.9726 10.8084 18.9726 10.4179 18.5821C10.0274 18.1916 10.0274 17.5584 10.4179 17.1679L10.7108 16.875L10.4179 16.5821C10.0274 16.1916 10.0274 15.5584 10.4179 15.1679ZM6.41789 19.1679C6.80842 18.7774 7.44158 18.7774 7.83211 19.1679L8.125 19.4608L8.41789 19.1679C8.80842 18.7774 9.44158 18.7774 9.83211 19.1679C10.2226 19.5584 10.2226 20.1916 9.83211 20.5821L9.53921 20.875L9.83211 21.1679C10.2226 21.5584 10.2226 22.1916 9.83211 22.5821C9.44158 22.9726 8.80842 22.9726 8.41789 22.5821L8.125 22.2892L7.83211 22.5821C7.44158 22.9726 6.80842 22.9726 6.41789 22.5821C6.02737 22.1916 6.02737 21.5584 6.41789 21.1679L6.71079 20.875L6.41789 20.5821C6.02737 20.1916 6.02737 19.5584 6.41789 19.1679ZM14.4179 19.1679C14.8084 18.7774 15.4416 18.7774 15.8321 19.1679L16.125 19.4608L16.4179 19.1679C16.8084 18.7774 17.4416 18.7774 17.8321 19.1679C18.2226 19.5584 18.2226 20.1916 17.8321 20.5821L17.5392 20.875L17.8321 21.1679C18.2226 21.5584 18.2226 22.1916 17.8321 22.5821C17.4416 22.9726 16.8084 22.9726 16.4179 22.5821L16.125 22.2892L15.8321 22.5821C15.4416 22.9726 14.8084 22.9726 14.4179 22.5821C14.0274 22.1916 14.0274 21.5584 14.4179 21.1679L14.7108 20.875L14.4179 20.5821C14.0274 20.1916 14.0274 19.5584 14.4179 19.1679Z" fill="#141B34"/>
<path opacity="0.4" d="M1.375 15.125C1.375 12.4833 3.15606 10.2582 5.58325 9.58419C5.77924 9.52976 5.87724 9.50255 5.93372 9.4447C5.9902 9.38684 6.01491 9.28884 6.06431 9.09283C6.74772 6.38153 9.20171 4.375 12.125 4.375C15.3399 4.375 17.9878 6.80231 18.3362 9.92424C18.3635 10.1696 18.3772 10.2923 18.4397 10.3633C18.5022 10.4343 18.6239 10.4638 18.8673 10.5229C21.1672 11.0809 22.875 13.1535 22.875 15.625C22.875 17.4265 21.9676 19.0161 20.5849 19.9617C20.2299 20.2044 20.0524 20.3258 19.904 20.2668C19.7556 20.2077 19.693 19.9194 19.568 19.3428C19.4698 18.89 19.2447 18.4592 18.8928 18.1072C18.1998 17.4143 17.2012 17.2131 16.3308 17.5039C16.236 17.5356 16.1886 17.5515 16.1554 17.5548C16.1297 17.5574 16.1206 17.5574 16.0948 17.5548C16.0617 17.5515 16.0139 17.5355 15.9183 17.5036C15.7718 17.4547 15.6985 17.4303 15.6599 17.4016C15.6295 17.3789 15.6211 17.3705 15.5984 17.3401C15.5697 17.3015 15.5453 17.2282 15.4964 17.0817C15.4645 16.9861 15.4485 16.9383 15.4452 16.9052C15.4426 16.8795 15.4426 16.8703 15.4452 16.8446C15.4486 16.8115 15.4644 16.764 15.4961 16.6692C15.7869 15.7988 15.5858 14.8002 14.8928 14.1072C14.2101 13.4246 13.2309 13.2193 12.3699 13.4912C12.2375 13.533 12.1712 13.554 12.125 13.554C12.0788 13.554 12.0125 13.533 11.8801 13.4912C11.0191 13.2193 10.0399 13.4246 9.35723 14.1072C8.66425 14.8002 8.46314 15.7988 8.75392 16.6692C8.7856 16.764 8.80145 16.8114 8.80482 16.8446C8.80743 16.8703 8.80744 16.8795 8.80483 16.9052C8.80147 16.9383 8.78551 16.9861 8.75362 17.0817C8.70473 17.2282 8.68029 17.3015 8.65158 17.3401C8.62893 17.3705 8.62049 17.3789 8.59007 17.4016C8.55149 17.4303 8.47823 17.4547 8.33172 17.5036C8.23612 17.5355 8.1883 17.5515 8.15518 17.5548C8.12945 17.5574 8.12029 17.5574 8.09457 17.5548C8.06145 17.5514 8.014 17.5356 7.91918 17.5039C7.04881 17.2131 6.05022 17.4143 5.35723 18.1072C5.05107 18.4134 4.84092 18.7792 4.72678 19.1673C4.5619 19.7278 4.47946 20.0081 4.33021 20.0574C4.18096 20.1068 4.00973 19.9777 3.66727 19.7196C2.27505 18.6702 1.375 17.0027 1.375 15.125Z" fill="#141B34"/>
<path d="M7.45678 1.86266C7.31176 1.32976 6.76219 1.01532 6.22929 1.16034C5.69638 1.30537 5.38194 1.85493 5.52697 2.38784L5.54068 2.43824C4.65648 2.83226 3.8993 3.41778 3.30852 4.1302L3.08472 4.00267C2.60486 3.72925 1.99421 3.8966 1.72079 4.37646C1.44737 4.85631 1.61472 5.46696 2.09458 5.74038L2.30013 5.85751C1.97547 6.71023 1.84135 7.64114 1.93583 8.58785L1.87015 8.60518C1.33614 8.74606 1.01744 9.29318 1.15833 9.82719C1.29922 10.3612 1.84633 10.6799 2.38034 10.539L2.45888 10.5183C2.57779 10.7779 2.71385 11.0264 2.86534 11.2628C3.31725 10.7648 3.85533 10.3464 4.45607 10.031C4.28246 9.73178 4.14462 9.40573 4.04955 9.05639C3.754 7.97035 3.93212 6.86407 4.46372 5.95517C4.99615 5.04484 5.88318 4.33251 7.00404 4.0368C8.12001 3.74237 9.25021 3.91983 10.1766 4.44291C10.184 4.44724 10.1922 4.4519 10.1996 4.45603C10.2815 4.50296 10.3618 4.55261 10.4404 4.60489C10.9763 4.45525 11.5413 4.37524 12.125 4.37524C12.4436 4.37524 12.7566 4.39908 13.0624 4.44507C13.0248 4.34457 12.9704 4.24844 12.8986 4.16085C12.6335 3.83747 12.3369 3.54372 12.0147 3.28289L12.1291 3.08745C12.4079 2.61074 12.2476 1.99823 11.7708 1.71935C11.2941 1.44048 10.6816 1.60085 10.4028 2.07756L10.2781 2.2906C9.40219 1.96263 8.44507 1.82839 7.47389 1.92553L7.45678 1.86266Z" fill="#141B34"/>
</svg>
