<svg width="24" height="24" viewBox="0 0 24 24" fill="none" xmlns="http://www.w3.org/2000/svg">
<path fill-rule="evenodd" clip-rule="evenodd" d="M12.1222 13.375C12.6745 13.375 13.1222 13.8227 13.1222 14.375V15.875C13.1222 16.4273 12.6745 16.875 12.1222 16.875C11.5699 16.875 11.1222 16.4273 11.1222 15.875V14.375C11.1222 13.8227 11.5699 13.375 12.1222 13.375ZM9.12109 16.375C9.67338 16.375 10.1211 16.8227 10.1211 17.375V18.875C10.1211 19.4273 9.67338 19.875 9.12109 19.875C8.56881 19.875 8.12109 19.4273 8.12109 18.875V17.375C8.12109 16.8227 8.56881 16.375 9.12109 16.375ZM15.1211 16.375C15.6734 16.375 16.1211 16.8227 16.1211 17.375V18.875C16.1211 19.4273 15.6734 19.875 15.1211 19.875C14.5688 19.875 14.1211 19.4273 14.1211 18.875V17.375C14.1211 16.8227 14.5688 16.375 15.1211 16.375ZM6.62109 19.375C7.17338 19.375 7.62109 19.8227 7.62109 20.375V21.875C7.62109 22.4273 7.17338 22.875 6.62109 22.875C6.06881 22.875 5.62109 22.4273 5.62109 21.875V20.375C5.62109 19.8227 6.06881 19.375 6.62109 19.375ZM12.1211 19.375C12.6734 19.375 13.1211 19.8227 13.1211 20.375V21.875C13.1211 22.4273 12.6734 22.875 12.1211 22.875C11.5688 22.875 11.1211 22.4273 11.1211 21.875V20.375C11.1211 19.8227 11.5688 19.375 12.1211 19.375ZM17.6211 19.375C18.1734 19.375 18.6211 19.8227 18.6211 20.375V21.875C18.6211 22.4273 18.1734 22.875 17.6211 22.875C17.0688 22.875 16.6211 22.4273 16.6211 21.875V20.375C16.6211 19.8227 17.0688 19.375 17.6211 19.375Z" fill="#141B34"/>
<path opacity="0.4" d="M6.06431 9.09283C6.01491 9.28884 5.9902 9.38684 5.93372 9.4447C5.87724 9.50255 5.77924 9.52976 5.58325 9.58419C3.15606 10.2582 1.375 12.4833 1.375 15.125C1.375 16.8792 2.16055 18.45 3.39906 19.5046C3.66956 19.735 3.80481 19.8502 3.94501 19.8244C4.08521 19.7986 4.19944 19.5905 4.42789 19.1741C4.77629 18.5392 5.39238 18.072 6.12424 17.9244C6.34063 17.8808 6.44883 17.8589 6.50414 17.8164C6.54586 17.7842 6.56702 17.7584 6.59027 17.7111C6.62109 17.6485 6.62109 17.5573 6.62109 17.375C6.62109 15.9943 7.74038 14.875 9.12109 14.875C9.28471 14.875 9.36652 14.875 9.40898 14.8622C9.51798 14.8292 9.57638 14.7708 9.60933 14.6618C9.62217 14.6194 9.62217 14.5532 9.62217 14.4208V14.375C9.62217 12.9943 10.7415 11.875 12.1222 11.875C13.5029 11.875 14.6222 12.9943 14.6222 14.375V14.4226C14.6222 14.5534 14.6222 14.6188 14.6347 14.6608C14.6675 14.7707 14.7265 14.8297 14.8364 14.8625C14.8784 14.875 14.9593 14.875 15.1211 14.875C16.5018 14.875 17.6211 15.9943 17.6211 17.375C17.6211 17.5573 17.6211 17.6485 17.6519 17.7111C17.6752 17.7584 17.6963 17.7842 17.7381 17.8164C17.7934 17.859 17.9015 17.8808 18.1179 17.9244C18.908 18.0837 19.5631 18.6155 19.8923 19.3287C20.0973 19.7729 20.1998 19.995 20.3422 20.0285C20.4846 20.062 20.626 19.9485 20.909 19.7213C22.1076 18.7591 22.875 17.2817 22.875 15.625C22.875 13.1535 21.1672 11.0809 18.8673 10.5229C18.6239 10.4638 18.5022 10.4343 18.4397 10.3633C18.3772 10.2923 18.3635 10.1696 18.3362 9.92424C17.9878 6.80231 15.3399 4.375 12.125 4.375C9.20171 4.375 6.74772 6.38153 6.06431 9.09283Z" fill="#141B34"/>
<path d="M7.45678 1.86266C7.31176 1.32976 6.76219 1.01532 6.22929 1.16034C5.69638 1.30537 5.38194 1.85493 5.52697 2.38784L5.54068 2.43824C4.65648 2.83226 3.8993 3.41778 3.30852 4.1302L3.08472 4.00267C2.60486 3.72925 1.99421 3.8966 1.72079 4.37646C1.44737 4.85631 1.61472 5.46696 2.09458 5.74038L2.30013 5.85751C1.97547 6.71023 1.84135 7.64114 1.93583 8.58785L1.87015 8.60518C1.33614 8.74606 1.01744 9.29318 1.15833 9.82719C1.29922 10.3612 1.84633 10.6799 2.38034 10.539L2.45888 10.5183C2.57779 10.7779 2.71385 11.0264 2.86534 11.2628C3.31725 10.7648 3.85533 10.3464 4.45607 10.031C4.28246 9.73178 4.14462 9.40573 4.04955 9.05639C3.754 7.97035 3.93212 6.86407 4.46372 5.95517C4.99615 5.04484 5.88318 4.33251 7.00404 4.0368C8.12001 3.74237 9.25021 3.91983 10.1766 4.44291C10.184 4.44724 10.1922 4.4519 10.1996 4.45603C10.2815 4.50296 10.3618 4.55261 10.4404 4.60489C10.9763 4.45525 11.5413 4.37524 12.125 4.37524C12.4436 4.37524 12.7566 4.39908 13.0624 4.44507C13.0248 4.34457 12.9704 4.24844 12.8986 4.16085C12.6335 3.83747 12.3369 3.54372 12.0147 3.28289L12.1291 3.08745C12.4079 2.61074 12.2476 1.99823 11.7708 1.71935C11.2941 1.44048 10.6816 1.60085 10.4028 2.07756L10.2781 2.2906C9.40219 1.96263 8.44507 1.82839 7.47389 1.92553L7.45678 1.86266Z" fill="#141B34"/>
</svg>
