<svg width="24" height="24" viewBox="0 0 24 24" fill="none" xmlns="http://www.w3.org/2000/svg">
<path fill-rule="evenodd" clip-rule="evenodd" d="M12.1252 14.875C12.6774 14.875 13.1252 15.3227 13.1252 15.875V17.1088L14.1106 16.5175C14.5842 16.2334 15.1985 16.3869 15.4826 16.8605C15.7668 17.3341 15.6132 17.9483 15.1397 18.2325L14.0688 18.875L15.1395 19.5175C15.6131 19.8017 15.7667 20.4159 15.4825 20.8895C15.1984 21.3631 14.5841 21.5166 14.1105 21.2325L13.1252 20.6413V21.875C13.1252 22.4273 12.6774 22.875 12.1252 22.875C11.5729 22.875 11.1252 22.4273 11.1252 21.875V20.6413L10.1398 21.2325C9.66621 21.5166 9.05195 21.3631 8.7678 20.8895C8.48364 20.4159 8.6372 19.8017 9.11078 19.5175L10.1815 18.875L9.11065 18.2325C8.63707 17.9483 8.48351 17.3341 8.76766 16.8605C9.05182 16.3869 9.66608 16.2334 10.1397 16.5175L11.1252 17.1088V15.875C11.1252 15.3227 11.5729 14.875 12.1252 14.875Z" fill="#141B34"/>
<path opacity="0.4" d="M6.06431 9.09283C6.01491 9.28884 5.9902 9.38684 5.93372 9.4447C5.87724 9.50255 5.77924 9.52976 5.58325 9.58419C3.15606 10.2582 1.375 12.4833 1.375 15.125C1.375 18.0525 3.60559 20.4691 6.44209 20.8288C6.73611 20.8661 6.88312 20.8847 6.98234 20.8052C7.08156 20.7257 7.09972 20.5318 7.13605 20.1439C7.1649 19.8358 7.25059 19.5347 7.38899 19.2572C7.49251 19.0496 7.54427 18.9457 7.54427 18.8751C7.54427 18.8044 7.4925 18.7006 7.38895 18.493C7.02055 17.7543 7.02548 16.849 7.48166 16.0887C7.90848 15.3774 8.63322 14.9549 9.40059 14.885C9.6222 14.8648 9.73301 14.8547 9.79182 14.8194C9.85064 14.7841 9.91173 14.691 10.0339 14.5049C10.4806 13.8244 11.2505 13.375 12.1254 13.375C13.0002 13.375 13.7701 13.8244 14.2169 14.5049C14.339 14.691 14.4001 14.7841 14.4589 14.8194C14.5178 14.8547 14.6286 14.8648 14.8502 14.885C15.6175 14.9549 16.3423 15.3774 16.7691 16.0887C17.2253 16.849 17.2302 17.7543 16.8618 18.493C16.7583 18.7006 16.7065 18.8044 16.7065 18.8751C16.7065 18.9457 16.7582 19.0496 16.8618 19.2572C17.0277 19.59 17.1179 19.9568 17.1252 20.3288C17.1292 20.5357 17.1312 20.6392 17.1542 20.6929C17.1899 20.7765 17.2332 20.819 17.3174 20.8531C17.3716 20.875 17.4561 20.875 17.625 20.875C20.5245 20.875 22.875 18.5245 22.875 15.625C22.875 13.1535 21.1672 11.0809 18.8673 10.5229C18.6239 10.4638 18.5022 10.4343 18.4397 10.3633C18.3772 10.2923 18.3635 10.1696 18.3362 9.92424C17.9878 6.80231 15.3399 4.375 12.125 4.375C9.20171 4.375 6.74772 6.38153 6.06431 9.09283Z" fill="#141B34"/>
<path d="M7.45678 1.86266C7.31176 1.32976 6.76219 1.01532 6.22929 1.16034C5.69638 1.30537 5.38194 1.85493 5.52697 2.38784L5.54068 2.43824C4.65648 2.83226 3.8993 3.41778 3.30852 4.1302L3.08472 4.00267C2.60486 3.72925 1.99421 3.8966 1.72079 4.37646C1.44737 4.85631 1.61472 5.46696 2.09458 5.74038L2.30013 5.85751C1.97547 6.71023 1.84135 7.64114 1.93583 8.58785L1.87015 8.60518C1.33614 8.74606 1.01744 9.29318 1.15833 9.82719C1.29922 10.3612 1.84633 10.6799 2.38034 10.539L2.45888 10.5183C2.57779 10.7779 2.71385 11.0264 2.86534 11.2628C3.31725 10.7648 3.85533 10.3464 4.45607 10.031C4.28246 9.73178 4.14462 9.40573 4.04955 9.05639C3.754 7.97035 3.93212 6.86407 4.46372 5.95517C4.99615 5.04484 5.88318 4.33251 7.00404 4.0368C8.12001 3.74237 9.25021 3.91983 10.1766 4.44291C10.184 4.44724 10.1922 4.4519 10.1996 4.45603C10.2815 4.50296 10.3618 4.55261 10.4404 4.60489C10.9763 4.45525 11.5413 4.37524 12.125 4.37524C12.4436 4.37524 12.7566 4.39908 13.0624 4.44507C13.0248 4.34457 12.9704 4.24844 12.8986 4.16085C12.6335 3.83747 12.3369 3.54372 12.0147 3.28289L12.1291 3.08745C12.4079 2.61074 12.2476 1.99823 11.7708 1.71935C11.2941 1.44048 10.6816 1.60085 10.4028 2.07756L10.2781 2.2906C9.40219 1.96263 8.44507 1.82839 7.47389 1.92553L7.45678 1.86266Z" fill="#141B34"/>
</svg>
