<svg width="24" height="24" viewBox="0 0 24 24" fill="none" xmlns="http://www.w3.org/2000/svg">
<path d="M20.0284 22.0088H3.08628C3.03108 22.0088 2.98633 21.964 2.98633 21.9088V8.99642L9.96363 2.00879H19.8698C19.925 2.00879 19.9698 2.05356 19.9698 2.10879V10.013M9.96982 2.61333L10.0352 8.99642H3.64277" stroke="#141B34" stroke-width="1.5"/>
<path d="M11.9245 12.4111L13.7284 17.9117C13.7587 18.0039 13.8892 18.0033 13.9186 17.9108L15.6676 12.4111M9.48728 13.004H7.07837C6.96797 13.004 7.00474 12.9748 7.00474 13.0852V15.3796C7.00474 15.49 6.96797 15.5001 7.07837 15.5001H9.38209C9.49249 15.5001 9.47327 15.6079 9.47327 15.7184V17.8145C9.47327 17.9249 9.49249 17.9962 9.38209 17.9962H6.46387M20.9768 14.2458L20.9889 13.0944C20.9895 13.0387 20.9446 12.9933 20.889 12.9933H17.7936C17.7384 12.9933 17.6937 13.0381 17.6937 13.0933L17.6939 17.9128C17.6939 17.968 17.7387 18.0128 17.7939 18.0128H20.89C20.9452 18.0128 20.99 17.968 20.99 17.9128V15.9311H19.3122" stroke="#141B34" stroke-width="1.5"/>
</svg>
