<svg width="24" height="24" viewBox="0 0 24 24" fill="none" xmlns="http://www.w3.org/2000/svg">
<path d="M14.5608 8.6065L14.5597 8.60566L14.5575 8.60407L14.551 8.59929L14.5297 8.58342C14.5119 8.5701 14.4871 8.55129 14.4563 8.5274C14.3947 8.47965 14.3088 8.41126 14.2065 8.32522C14.0031 8.1541 13.7296 7.90851 13.4536 7.6127C13.1796 7.31918 12.8883 6.96051 12.6621 6.56195C12.4384 6.16791 12.2519 5.68827 12.2519 5.16654C12.2519 4.30942 12.5333 3.56941 13.0522 3.04033C13.569 2.51324 14.2689 2.24988 15.0019 2.24988C15.7348 2.24988 16.4347 2.51324 16.9516 3.04033C17.4704 3.56941 17.7519 4.30942 17.7519 5.16654C17.7519 5.68827 17.5653 6.16791 17.3416 6.56195C17.1154 6.96051 16.8241 7.31918 16.5502 7.6127C16.2741 7.90851 16.0006 8.1541 15.7972 8.32522C15.695 8.41126 15.609 8.47965 15.5475 8.5274C15.5166 8.55129 15.4918 8.5701 15.4741 8.58342L15.4527 8.59929L15.4462 8.60407L15.4441 8.60566L15.4432 8.60625C15.1804 8.79714 14.8237 8.79739 14.5608 8.6065Z" fill="#141B34"/>
<path d="M10.6809 10.0526L10.6823 10.0557L10.683 10.0572C10.8329 10.3829 10.7308 10.7699 10.4401 10.9797L10.4391 10.9804L10.4363 10.9825L10.4274 10.9888L10.3969 11.0102C10.3711 11.0283 10.3342 11.0537 10.2874 11.0851C10.1937 11.148 10.0596 11.2354 9.89255 11.3375C9.55956 11.541 9.08968 11.8064 8.54378 12.0515C7.49574 12.5221 5.98617 13.0023 4.61868 12.5981C2.14267 11.8664 0.861748 9.89692 1.35415 7.85511C1.59273 6.86577 2.21513 6.05865 3.13752 5.6157C4.05062 5.1772 5.18326 5.12916 6.41061 5.49187C7.76603 5.89244 8.84313 7.12481 9.53253 8.10071C9.89207 8.60966 10.1775 9.09474 10.373 9.45196C10.471 9.63112 10.5472 9.77952 10.5994 9.88444C10.6256 9.93694 10.6458 9.97865 10.6598 10.008L10.6762 10.0426L10.6809 10.0526Z" fill="#141B34"/>
<path fill-rule="evenodd" clip-rule="evenodd" d="M16.7519 9.26025C17.2373 9.23371 17.7082 9.25772 18.1604 9.33089C19.8303 9.60108 21.1952 10.5364 22.021 11.9564C22.8469 13.3767 22.9815 15.0213 22.3805 16.5968C22.1759 17.1331 21.8886 17.6556 21.5205 18.156L20.4244 17.4473C18.2063 15.8512 16.7519 13.2704 16.7519 10.5008V9.26025ZM20.5073 19.2871L19.5946 18.697C19.5846 18.6905 19.5747 18.6838 19.565 18.6768C16.9837 16.827 15.2519 13.8048 15.2519 10.5008V9.49397C14.4015 9.70936 13.5221 10.0689 12.6324 10.5789C12.3225 10.7565 12.0292 10.9611 11.7519 11.187V13.0337C11.8369 14.2509 12.4299 15.5649 13.32 16.7993C14.209 18.0322 15.3509 19.1246 16.4293 19.8844L18.0369 20.9824C18.2031 20.9055 18.3659 20.8217 18.5248 20.7306C19.286 20.2943 19.9477 19.8091 20.5073 19.2871ZM10.2519 12.784V13.0588C10.2519 13.075 10.2524 13.0911 10.2534 13.1072C10.3574 14.7172 11.1174 16.3094 12.1033 17.6766C13.0948 19.0516 14.3595 20.262 15.5701 21.1141L16.2142 21.554C14.6444 21.855 12.9767 21.7661 11.5902 21.5757C10.5154 21.4282 9.56282 21.2126 8.87918 21.0342C8.53676 20.9449 8.26031 20.8644 8.068 20.8059C7.9718 20.7766 7.89655 20.7527 7.84451 20.7359L7.7841 20.7161L7.76745 20.7105L7.76261 20.7089L7.76107 20.7084C7.40548 20.5873 7.19342 20.2211 7.26607 19.8526L7.2665 19.8504L7.26751 19.8454L7.27099 19.8283L7.28397 19.7663C7.29533 19.7131 7.31215 19.6364 7.33471 19.5389C7.37982 19.3441 7.44794 19.066 7.54127 18.7267C7.7276 18.0493 8.01604 17.1218 8.42497 16.1233C8.86354 15.0523 9.46067 13.849 10.2519 12.784Z" fill="#141B34"/>
</svg>
