<svg width="24" height="24" viewBox="0 0 24 24" fill="none" xmlns="http://www.w3.org/2000/svg">
<path d="M19.5059 2.24988C19.5059 1.69759 19.0581 1.24988 18.5059 1.24988C17.9536 1.24988 17.5059 1.69759 17.5059 2.24988L17.5059 4.74992L16.9116 4.7499C16.736 4.74977 16.5203 4.74962 16.3439 4.77169L16.3405 4.7721C16.2141 4.78787 15.638 4.85971 15.3637 5.42531C15.0887 5.99213 15.3907 6.49227 15.456 6.60047L15.7951 7.06896C16.0897 7.44479 16.4954 7.95925 16.8759 8.35026C17.0657 8.54536 17.283 8.7466 17.5139 8.90545C17.7191 9.04665 18.0693 9.24992 18.5 9.24992C18.9307 9.24992 19.2809 9.04665 19.4861 8.90545C19.717 8.7466 19.9343 8.54536 20.1241 8.35026C20.5046 7.95925 20.9102 7.44479 21.2049 7.06897L21.544 6.60047C21.6093 6.49227 21.9113 5.99213 21.6363 5.4253C21.362 4.85971 20.7859 4.78787 20.6595 4.7721L20.6561 4.77169C20.4797 4.74962 20.264 4.74977 20.0884 4.7499L19.5059 4.74992L19.5059 2.24988Z" fill="#141B34"/>
<path d="M9.30926 11.3021C9.54796 11.3021 9.74147 11.1146 9.74147 10.8833V7.76561C9.74147 7.58819 9.74147 7.49948 9.809 7.41669C9.87653 7.3339 9.94438 7.31999 10.0801 7.29215C10.2487 7.25756 10.4112 7.2486 10.5 7.25016C11.1087 7.25016 11.6712 7.44792 12.1268 7.7827C12.2223 7.85288 12.27 7.88797 12.3024 7.95185C12.3347 8.01573 12.3347 8.08368 12.3347 8.21958V10.8833C12.3347 11.1146 12.5282 11.3021 12.7669 11.3021C13.0056 11.3021 13.1991 11.1146 13.1991 10.8833V8.87593C13.1991 8.58587 13.1991 8.44084 13.3006 8.35127C13.4021 8.2617 13.534 8.27825 13.7979 8.31135C14.6863 8.4228 15.277 8.7914 15.6875 9.33276C15.7365 9.39741 15.761 9.42973 15.7767 9.47626C15.7923 9.52278 15.7923 9.56905 15.7923 9.6616V12.0001C15.7923 12.2314 15.9858 12.419 16.2245 12.419C16.4632 12.419 16.6567 12.2314 16.6567 12.0001V10.0818C16.6567 9.7904 16.6567 9.64469 16.7749 9.55464C16.893 9.46459 17.0119 9.49728 17.2496 9.56264C18.385 9.87492 19.2489 11.0426 19.25 12.1924L19.25 14.012C19.2503 15.858 19.2505 16.9882 18.9139 17.9224C18.6535 18.645 18.2529 19.2989 17.7442 19.8533C17.3791 20.2514 17.1804 20.6631 17.1804 21.0451C17.1804 21.9868 16.417 22.7502 15.4753 22.7502L8.22222 22.7502C8.02199 22.7505 7.81349 22.7509 7.62474 22.7094C6.95791 22.5631 6.4371 22.0422 6.29071 21.3754C6.24927 21.1867 6.24967 20.9252 6.25 20.725C6.25 20.4414 6.15358 20.1663 5.97657 19.9447L3.92578 17.3697C3.439 16.6528 3.04344 16.0702 2.76761 15.565C2.48104 15.0401 2.28969 14.5404 2.25651 13.9819C2.23749 13.6618 2.2602 13.3407 2.32406 13.0264C2.43545 12.4782 2.69502 12.0097 3.05239 11.5292C3.38461 11.0825 3.95731 10.45 4.51704 9.83179C4.85152 9.51322 5.01876 9.35393 5.16385 9.37566C5.21482 9.38329 5.26296 9.40392 5.30364 9.43556C5.41943 9.52564 5.41943 9.7566 5.41943 10.2185V13.6755C5.41943 13.9068 5.61294 14.0943 5.85164 14.0943C6.09034 14.0943 6.28384 13.9068 6.28384 13.6755V2.54661C6.28384 1.83051 6.86435 1.25 7.58045 1.25C8.29655 1.25 8.87706 1.83051 8.87706 2.54661V10.8833C8.87706 11.1146 9.07057 11.3021 9.30926 11.3021Z" fill="#141B34"/>
</svg>
