<svg width="24" height="24" viewBox="0 0 24 24" fill="none" xmlns="http://www.w3.org/2000/svg">
<path opacity="0.4" d="M6.56349 19.4747L4.56826 16.9775C3.55904 15.4911 3.05442 14.7478 3.00616 13.9355C2.991 13.6804 3.0091 13.4245 3.06001 13.1739C3.22215 12.3759 3.82652 11.7083 5.03527 10.373L6.50097 8.99829V3.49829C6.50097 2.66986 7.17254 1.99829 8.00097 1.99829C8.8294 1.99829 9.50097 2.66986 9.50097 3.49829V7.99829H10.501C11.6056 7.99829 12.501 8.89372 12.501 9.99829V8.99829H13.501C14.6056 8.99829 15.501 9.89372 15.501 10.9983V9.99829L16.8298 10.2198C17.7935 10.3804 18.5001 11.2138 18.501 12.1906V13.833C18.501 15.8489 18.501 16.8569 18.2093 17.6663C17.9832 18.2936 17.6352 18.862 17.1926 19.3445C16.7591 19.8171 16.4314 20.4019 16.4314 21.0432V21.9983H7.00097V20.7231C7.00097 20.2694 6.8467 19.8292 6.56349 19.4747Z" fill="#141B34"/>
<path d="M21.001 4.49829H15.001M21.001 4.49829C21.001 3.79806 19.0067 2.48982 18.501 1.99829M21.001 4.49829C21.001 5.19852 19.0067 6.50676 18.501 6.99829" stroke="#141B34" stroke-width="1.5" stroke-linecap="round" stroke-linejoin="round"/>
<path d="M6.51184 13.515V3.48599C6.51184 2.66436 7.17868 1.99829 8.00127 1.99829C8.82386 1.99829 9.4907 2.66436 9.4907 3.48599V8.68808M9.4907 8.68808V11.0117M9.4907 8.68808C10.2956 7.56965 12.0982 7.94217 12.4819 9.68104C12.4882 9.7099 12.4934 9.73898 12.4976 9.76822M12.4976 9.76822C12.5088 9.84644 12.5127 9.92575 12.5127 10.0048V11.0077M12.4976 9.76822C12.9908 8.41786 15.2553 8.93285 15.5019 10.8611M15.5019 10.8611V12.0071M15.5019 10.8611C15.9058 9.37059 18.5576 10.4123 18.5002 12.1547V15.3332C18.4972 17.0592 18.2091 18.3108 17.183 19.3402C16.235 20.472 16.458 21.1056 16.4344 22.0019M6.51184 8.99075C5.19291 10.1846 3.69593 11.8162 3.50481 12.2025C2.61549 13.5547 2.93178 14.6155 4.1956 16.4177C5.13614 17.7589 6.39761 19.2536 6.46369 19.3284C7.1363 20.0898 7.00448 20.696 7.00448 21.9909" stroke="#141B34" stroke-width="1.5" stroke-linecap="round"/>
</svg>
