<svg width="24" height="24" viewBox="0 0 24 24" fill="none" xmlns="http://www.w3.org/2000/svg">
<path opacity="0.4" d="M17.9985 17.6892C18.7056 16.2125 19.6732 13.3226 18.3211 11.9618C16.1895 9.81667 13.2082 9.42404 11.5 9.5V3.75C11.5 2.7835 10.7165 2 9.75 2C8.7835 2 8 2.7835 8 3.75V14L5.78341 11.6713C5.05938 11.0311 3.96519 11.1372 3.36948 11.9053C2.87385 12.5444 2.87719 13.4534 3.3775 14.0886L6.65864 18.4236C7.23025 19.1788 7.51608 19.5565 7.6732 19.9973C7.68714 20.0364 7.70028 20.0758 7.71263 20.1155C7.85181 20.5628 7.85181 21.0418 7.85181 22H16.8919V20.382C16.8919 19.4564 17.6159 18.488 17.9985 17.6892Z" fill="#141B34"/>
<path d="M21 4.5H15M21 4.5C21 3.79977 19.0057 2.49153 18.5 2M21 4.5C21 5.20023 19.0057 6.50847 18.5 7" stroke="#141B34" stroke-width="1.5" stroke-linecap="round" stroke-linejoin="round"/>
<path d="M16.8942 21.9884C16.8425 20.0751 16.9714 19.8448 17.1081 19.4191C17.2448 18.9935 18.2011 17.4587 18.5395 16.3621C19.6342 12.8141 18.6139 12.0595 17.2536 11.0534C15.7451 9.93759 12.8998 9.37252 11.4886 9.49486V3.74359C11.4886 2.78063 10.7077 2 9.74439 2C8.78106 2 8.00014 2.78063 8.00014 3.74359V14.0032L5.93997 11.8238C5.30035 11.1303 4.27243 11.06 3.5709 11.6908C2.90609 12.2886 2.80907 13.2953 3.34749 14.009L4.63984 15.722M4.63984 15.722C4.91814 16.0832 5.22967 16.4926 5.58373 16.973M4.63984 15.722L5.58373 16.973M4.63984 15.722C4.06847 14.9802 3.63715 14.4412 3.26531 13.9056M7.87078 22.0002L7.85125 20.9498C7.89419 19.7185 6.9982 18.9151 5.82962 17.3089C5.74543 17.1931 5.6635 17.0813 5.58373 16.973M5.58373 16.973L6.75315 18.5231" stroke="#141B34" stroke-width="1.5" stroke-linecap="round" stroke-linejoin="round"/>
</svg>
