<svg width="24" height="24" viewBox="0 0 24 24" fill="none" xmlns="http://www.w3.org/2000/svg">
<path opacity="0.4" d="M5.29468 11.3117C5.29468 10.7715 5.29468 10.5014 5.14251 10.4153C5.12305 10.4043 5.10241 10.3954 5.08098 10.389C4.9135 10.3387 4.71843 10.5255 4.32829 10.8991C3.74516 11.5432 3.27152 12.0664 2.92739 12.5291C2.57002 13.0096 2.31045 13.4781 2.19906 14.0263C2.1352 14.3406 2.11249 14.6617 2.13151 14.9818C2.16469 15.5403 2.35604 16.0401 2.64261 16.5649C2.91844 17.0701 3.314 17.6527 3.80078 18.3696L4.43733 19.3072C5.02522 20.1732 5.38624 20.7051 5.83551 21.1328C6.62031 21.8801 7.60124 22.395 8.66637 22.621C9.27574 22.7502 10.19 22.7502 11.2518 22.7501C13.138 22.7504 14.2824 22.7506 15.2277 22.4221C16.8871 21.8455 18.1981 20.5617 18.7889 18.9224C19.1255 17.9882 19.1253 16.8579 19.125 15.012L19.125 13.0001C19.125 12.7346 19.1053 12.0835 19.0955 11.7911C19.0955 10.7885 18.261 9.81018 17.1271 9.54924C16.8812 9.49266 16.7583 9.46438 16.6451 9.55445C16.532 9.64453 16.532 9.79027 16.532 10.0817V11.9384C16.532 12.171 16.3385 12.3596 16.0998 12.3596C15.8611 12.3596 15.6676 12.171 15.6676 11.9384V9.5024C15.6676 9.39315 15.6676 9.33852 15.6456 9.28437C15.6237 9.23021 15.591 9.19639 15.5254 9.12873C15.1073 8.697 14.5057 8.3848 13.6733 8.28452C13.4086 8.25264 13.2763 8.2367 13.1753 8.32623C13.0743 8.41575 13.0743 8.56053 13.0743 8.85008V10.8151C13.0743 11.0478 12.8808 11.2364 12.6421 11.2364C12.4034 11.2364 12.2099 11.0478 12.2099 10.8151V8.21967C12.2099 8.08379 12.2099 8.01586 12.1776 7.95198C12.1453 7.88811 12.0976 7.85302 12.0021 7.78284C11.5465 7.44793 10.9838 7.25008 10.375 7.25008C10.2926 7.2505 10.144 7.26034 9.98465 7.28946C9.83214 7.31733 9.75589 7.33127 9.6863 7.41473C9.61671 7.49818 9.61671 7.59306 9.61671 7.78281V10.8151C9.61671 11.0478 9.42321 11.2364 9.18451 11.2364C8.94581 11.2364 8.75231 11.0478 8.75231 10.8151V3.54661C8.75231 2.83051 8.1718 2.25 7.4557 2.25C6.7396 2.25 6.15909 2.83051 6.15909 3.54661V14.7466C6.15909 14.9793 5.96558 15.1679 5.72688 15.1679C5.48819 15.1679 5.29468 14.9793 5.29468 14.7466V11.3117Z" fill="#141B34"/>
<path d="M14.875 3.49414C14.3227 3.49414 13.875 3.94186 13.875 4.49414C13.875 5.04643 14.3227 5.49414 14.875 5.49414L17.375 5.49414L17.375 6.0884C17.3749 6.26404 17.3747 6.47969 17.3968 6.65613L17.3972 6.65947C17.413 6.78592 17.4848 7.36196 18.0504 7.63632C18.6172 7.91128 19.1174 7.60935 19.2256 7.54403L19.694 7.20489C20.0699 6.91025 20.5843 6.50455 20.9753 6.12412C21.1704 5.93429 21.3717 5.71703 21.5305 5.48612C21.6717 5.28086 21.875 4.93067 21.875 4.5C21.875 4.06933 21.6717 3.71914 21.5305 3.51388C21.3717 3.28297 21.1704 3.06571 20.9753 2.87588C20.5843 2.49545 20.0699 2.08975 19.6941 1.79512L19.2256 1.45597C19.1174 1.39065 18.6172 1.08872 18.0504 1.36368C17.4848 1.63804 17.413 2.21408 17.3972 2.34053L17.3968 2.34387C17.3747 2.52031 17.3749 2.73597 17.375 2.9116L17.375 3.49414L14.875 3.49414Z" fill="#141B34"/>
</svg>
