<svg width="24" height="24" viewBox="0 0 24 24" fill="none" xmlns="http://www.w3.org/2000/svg">
<path opacity="0.4" d="M19.5026 1.99951V7.99558M19.5026 1.99951C18.8029 1.99951 17.4955 3.9925 17.0044 4.49787M19.5026 1.99951C20.2023 1.99951 21.5097 3.9925 22.0009 4.49787" stroke="#141B34" stroke-width="1.5" stroke-linecap="round" stroke-linejoin="round"/>
<path d="M5.53309 14.4506V9.9841M5.53309 9.9841V4.46545C5.53309 3.64533 6.21731 2.98438 7.03836 2.98438C7.85942 2.98438 8.5064 3.64533 8.5064 4.46545V8.46396M5.53309 9.9841C4.21661 11.1757 2.79997 12.681 2.60919 13.0666C1.72153 14.4163 1.81457 15.0697 2.8038 16.7211C3.64401 18.1238 4.77397 19.6804 4.83993 19.7551C5.51128 20.5151 5.3778 20.5152 6.35086 21.2288C7.2198 21.8312 9.02215 22.251 13.2476 21.8312C16.6897 21.3001 17.5144 18.2989 17.4964 16.8646V13.3226C17.7109 10.3787 16.479 10.2458 14.2421 9.95604M8.5064 8.46396V10.9892M8.5064 8.46396C9.06461 7.55469 11.092 7.92214 11.4871 9.63918M11.4871 9.63918C11.4888 9.6464 11.4904 9.65365 11.492 9.66092C11.4984 9.68973 11.5036 9.71876 11.5077 9.74795M11.4871 9.63918C11.4912 9.67416 11.498 9.71042 11.5077 9.74795M11.4871 9.63918C11.3468 8.4424 14.3827 8.73415 14.5064 10.8388V11.9827M11.5228 10.9852V9.9841C11.5228 9.90518 11.5189 9.82601 11.5077 9.74795" stroke="#141B34" stroke-width="1.5" stroke-linecap="round"/>
</svg>
