<svg width="24" height="24" viewBox="0 0 24 24" fill="none" xmlns="http://www.w3.org/2000/svg">
<path d="M18.4995 2.00098V7.40188M15.9995 5.50098L18.4995 8.00098L20.9995 5.50098" stroke="#141B34" stroke-width="1.5"/>
<path d="M12.7966 12.5086V10.6054C12.7966 10.4317 12.7688 10.1505 12.7159 9.99562M12.7159 9.99562C12.5189 9.41843 12.0308 9.00294 11.4058 9.00294H9.69551M12.7159 9.99562H14.499C15.1241 9.99562 15.6168 10.4273 15.8138 11.0045M15.8965 13.1933V11.6274C15.8965 11.4537 15.8668 11.1594 15.8138 11.0045M15.8138 11.0045H17.5272C18.5156 11.0905 18.9988 11.7795 18.9988 12.5868V19.0266C18.9988 20.6681 17.695 21.8862 16.1277 21.9988H7.10166L3.5056 16.4505C2.16415 14.1776 3.61314 12.7012 6.4521 10.1384M9.69551 9.00294V11.9943M9.69551 9.00294V3.74846C9.69551 3.47613 9.66264 3.23012 9.59512 3.00512C9.29957 2.0203 7.99746 1.69273 7.19487 2.33513C6.85428 2.60774 6.61229 2.9605 6.61229 3.34579V14.51" stroke="#141B34" stroke-width="1.5"/>
</svg>
