<svg width="24" height="24" viewBox="0 0 24 24" fill="none" xmlns="http://www.w3.org/2000/svg">
<path opacity="0.4" d="M18.5005 7.99817V1.99817M18.5005 7.99817C17.8003 7.99817 16.492 6.00387 16.0005 5.49817M18.5005 7.99817C19.2007 7.99817 20.509 6.00387 21.0005 5.49817" stroke="#141B34" stroke-width="1.5" stroke-linecap="round" stroke-linejoin="round"/>
<path d="M6.51233 13.5149V3.48587C6.51233 2.66424 7.17917 1.99817 8.00176 1.99817C8.82435 1.99817 9.49119 2.66423 9.49119 3.48587V8.68796M9.49119 8.68796V11.0116M9.49119 8.68796C10.2961 7.56953 12.0987 7.94205 12.4824 9.68091C12.4887 9.70978 12.4939 9.73886 12.4981 9.7681M12.4981 9.7681C12.5093 9.84631 12.5132 9.92562 12.5132 10.0047V11.0076M12.4981 9.7681C12.9913 8.41774 15.5023 8.92645 15.5023 10.861M15.5023 10.861V12.007M15.5023 10.861C15.9063 9.37047 18.5581 10.4122 18.5007 12.1546V15.3331C18.4977 17.0591 18.2096 18.3107 17.1835 19.3401C16.2355 20.4719 16.4585 21.1055 16.4349 22.0018M6.51233 8.99062C5.1934 10.1845 3.69642 11.816 3.50529 12.2024C2.61598 13.5545 2.93227 14.6154 4.19609 16.4176C5.13662 17.7588 6.3981 19.2535 6.46418 19.3283C7.13678 20.0897 7.00497 20.6959 7.00497 21.9908" stroke="#141B34" stroke-width="1.5" stroke-linecap="round"/>
</svg>
