<svg width="24" height="24" viewBox="0 0 24 24" fill="none" xmlns="http://www.w3.org/2000/svg">
<path opacity="0.4" d="M7.125 3.75C7.125 2.36929 8.24429 1.25 9.625 1.25C11.0057 1.25 12.125 2.36929 12.125 3.75V8.74751C13.9889 8.81064 16.694 9.38616 18.7281 11.4332C19.664 12.3751 19.7195 13.7529 19.5487 14.8931C19.3725 16.0699 18.9221 17.2359 18.5499 18.0131C18.4306 18.2264 17.9492 19.1202 17.8475 19.3235C17.6311 19.7563 17.5169 20.1001 17.5169 20.382V20.382C17.5169 20.6473 17.5169 20.918 17.4998 21.1214C17.4813 21.3409 17.439 21.5809 17.3147 21.8165C17.1502 22.1284 16.8953 22.3833 16.5834 22.5479C16.3477 22.6721 16.1078 22.7145 15.8883 22.7329C15.6848 22.75 15.4412 22.75 15.1759 22.75H9.59141H9.5914C9.28368 22.75 9.00019 22.7501 8.76433 22.7266C8.50772 22.7012 8.04462 22.6003 7.7825 22.3382C7.5125 22.1107 7.36334 21.7789 7.2574 21.5062C7.14427 21.2149 7.02429 20.8294 6.87995 20.3655L6.87994 20.3655C6.77049 20.0584 6.5346 19.6676 5.93562 18.8763L2.65847 14.5465C1.9498 13.641 1.94679 12.3548 2.65182 11.4457C3.51024 10.3388 5.10327 10.1793 6.1552 11.1094L7.125 12.1242V3.75Z" fill="#141B34"/>
<path d="M20.875 5.50586C21.4273 5.50586 21.875 5.05814 21.875 4.50586C21.875 3.95357 21.4273 3.50586 20.875 3.50586L18.375 3.50586L18.375 2.9116C18.3751 2.73596 18.3753 2.52031 18.3532 2.34387L18.3528 2.34053C18.337 2.21408 18.2652 1.63804 17.6996 1.36368C17.1327 1.08872 16.6326 1.39065 16.5244 1.45597L16.0559 1.79511C15.6801 2.08975 15.1656 2.49545 14.7746 2.87588C14.5795 3.06571 14.3783 3.28297 14.2194 3.51388C14.0782 3.71914 13.875 4.06933 13.875 4.5C13.875 4.93067 14.0782 5.28086 14.2194 5.48612C14.3783 5.71703 14.5795 5.93429 14.7746 6.12412C15.1656 6.50455 15.6801 6.91025 16.0559 7.20488L16.5244 7.54403C16.6326 7.60935 17.1328 7.91128 17.6996 7.63632C18.2652 7.36196 18.337 6.78592 18.3528 6.65947L18.3532 6.65613C18.3753 6.47969 18.3751 6.26403 18.375 6.0884L18.375 5.50586L20.875 5.50586Z" fill="#141B34"/>
</svg>
