<svg width="24" height="24" viewBox="0 0 24 24" fill="none" xmlns="http://www.w3.org/2000/svg">
<path d="M19.5059 8.25C19.5059 8.80228 19.0581 9.25 18.5059 9.25C17.9536 9.25 17.5059 8.80228 17.5059 8.25L17.5059 5.74996L16.9116 5.74998C16.736 5.75011 16.5203 5.75026 16.3439 5.72819L16.3405 5.72777C16.2141 5.712 15.638 5.64017 15.3637 5.07457C15.0887 4.50775 15.3907 4.00761 15.456 3.8994L15.7951 3.43092C16.0897 3.05509 16.4954 2.54063 16.8759 2.14962C17.0657 1.95451 17.283 1.75328 17.5139 1.59443C17.7191 1.45323 18.0693 1.24996 18.5 1.24996C18.9307 1.24996 19.2809 1.45323 19.4861 1.59443C19.717 1.75328 19.9343 1.95451 20.1241 2.14962C20.5046 2.54063 20.9102 3.05508 21.2049 3.43091L21.544 3.89941C21.6093 4.00761 21.9113 4.50775 21.6363 5.07457C21.362 5.64017 20.7859 5.71201 20.6595 5.72777L20.6561 5.72819C20.4797 5.75026 20.264 5.75011 20.0884 5.74998L19.5059 5.74996L19.5059 8.25Z" fill="#141B34"/>
<path opacity="0.4" d="M9.30926 11.3021C9.54796 11.3021 9.74147 11.1146 9.74147 10.8833V7.76561C9.74147 7.58819 9.74147 7.49948 9.809 7.41669C9.87653 7.3339 9.94438 7.31999 10.0801 7.29215C10.2487 7.25756 10.4112 7.2486 10.5 7.25016C11.1087 7.25016 11.6712 7.44792 12.1268 7.7827C12.2223 7.85288 12.27 7.88797 12.3024 7.95185C12.3347 8.01573 12.3347 8.08368 12.3347 8.21958V10.8833C12.3347 11.1146 12.5282 11.3021 12.7669 11.3021C13.0056 11.3021 13.1991 11.1146 13.1991 10.8833V8.87593C13.1991 8.58587 13.1991 8.44084 13.3006 8.35127C13.4021 8.2617 13.534 8.27825 13.7979 8.31135C14.6863 8.4228 15.277 8.7914 15.6875 9.33276C15.7365 9.39741 15.761 9.42973 15.7767 9.47626C15.7923 9.52278 15.7923 9.56905 15.7923 9.6616V12.0001C15.7923 12.2314 15.9858 12.419 16.2245 12.419C16.4632 12.419 16.6567 12.2314 16.6567 12.0001V10.0818C16.6567 9.7904 16.6567 9.64469 16.7749 9.55464C16.893 9.46459 17.0119 9.49728 17.2496 9.56264C18.385 9.87492 19.2489 11.0426 19.25 12.1924L19.25 14.012C19.2503 15.858 19.2505 16.9882 18.9139 17.9224C18.6535 18.645 18.2529 19.2989 17.7442 19.8533C17.3791 20.2514 17.1804 20.6631 17.1804 21.0451C17.1804 21.9868 16.417 22.7502 15.4753 22.7502L8.22222 22.7502C8.02199 22.7505 7.81349 22.7509 7.62474 22.7094C6.95791 22.5631 6.4371 22.0422 6.29071 21.3754C6.24927 21.1867 6.24967 20.9252 6.25 20.725C6.25 20.4414 6.15358 20.1663 5.97657 19.9447L3.92578 17.3697C3.439 16.6528 3.04344 16.0702 2.76761 15.565C2.48104 15.0401 2.28969 14.5404 2.25651 13.9819C2.23749 13.6618 2.2602 13.3407 2.32406 13.0264C2.43545 12.4782 2.69502 12.0097 3.05239 11.5292C3.38461 11.0825 3.95731 10.45 4.51704 9.83179C4.85152 9.51322 5.01876 9.35393 5.16385 9.37566C5.21482 9.38329 5.26296 9.40392 5.30364 9.43556C5.41943 9.52564 5.41943 9.7566 5.41943 10.2185V13.6755C5.41943 13.9068 5.61294 14.0943 5.85164 14.0943C6.09034 14.0943 6.28384 13.9068 6.28384 13.6755V2.54661C6.28384 1.83051 6.86435 1.25 7.58045 1.25C8.29655 1.25 8.87706 1.83051 8.87706 2.54661V10.8833C8.87706 11.1146 9.07057 11.3021 9.30926 11.3021Z" fill="#141B34"/>
</svg>
