<svg width="24" height="24" viewBox="0 0 24 24" fill="none" xmlns="http://www.w3.org/2000/svg">
<path opacity="0.4" d="M15 4.50171H21M15 4.50171C15 3.80148 16.9943 2.49324 17.5 2.00171M15 4.50171C15 5.20194 16.9943 6.51018 17.5 7.00171" stroke="#141B34" stroke-width="1.5" stroke-linecap="round" stroke-linejoin="round"/>
<path d="M15.3913 21.9977C15.3395 20.0837 15.4684 19.8532 15.6052 19.4274C15.7419 19.0017 16.6982 17.4662 17.0366 16.3692C18.1313 12.8199 17.111 12.065 15.7507 11.0585C14.2422 9.94233 11.3968 9.37704 9.98573 9.49943V3.74597C9.98573 2.78264 9.20481 2.00171 8.24148 2.00171C7.27816 2.00171 6.49723 2.78264 6.49723 3.74597V9.96583M6.49723 9.96583L4.64647 11.6101C3.40594 12.7829 3.15329 13.4692 3.05591 13.8845C2.86688 14.697 3.12509 15.5757 4.32672 17.3164C5.49529 18.9232 6.43328 20.0407 6.49774 20.9851V21.9986M6.49723 9.96583V14.032" stroke="#141B34" stroke-width="1.5" stroke-linecap="round" stroke-linejoin="round"/>
</svg>
