<svg width="24" height="24" viewBox="0 0 24 24" fill="none" xmlns="http://www.w3.org/2000/svg">
<path d="M5.99902 11.0054V21.9984H17.999V11.0054" stroke="#141B34" stroke-width="1.5"/>
<path d="M6.49902 5.50879L11.999 9.50625L17.499 5.50879" stroke="#141B34" stroke-width="1.5" stroke-linecap="round"/>
<path d="M9.49902 2.51074L10.499 8.50694M14.499 2.51074L13.499 8.50694" stroke="#141B34" stroke-width="1.5" stroke-linejoin="round"/>
<path d="M5.99677 13.9699L2.00357 11.9754C1.99921 11.9732 1.99706 11.9683 1.99848 11.9636L3.51326 6.99229C3.51405 6.98967 3.5159 6.9875 3.51835 6.98627L6.49573 5.50287L8.00238 3.00213C9.35967 2.18275 11.0652 2.00195 11.984 2.00195C12.9029 2.00195 14.6036 2.1713 16.0064 3.01341L17.5152 5.50287L20.4838 6.97942C20.4862 6.98065 20.4881 6.98283 20.4889 6.98545L22.0017 11.9643C22.0031 11.969 22.001 11.974 21.9966 11.9761L17.9458 13.9943" stroke="#141B34" stroke-width="1.5"/>
</svg>
