<svg width="24" height="24" viewBox="0 0 24 24" fill="none" xmlns="http://www.w3.org/2000/svg">
<path d="M1.00014 4C1.00014 3.44772 1.44786 3 2.00014 3H22.0001C22.5524 3 23.0001 3.44772 23.0001 4C23.0001 4.55228 22.5524 5 22.0001 5H20.6685L22.9882 19.8456C23.0734 20.3913 22.7002 20.9028 22.1545 20.988C21.6089 21.0733 21.0974 20.7 21.0121 20.1544L19.4255 10H4.57478L2.98816 20.1544C2.9029 20.7 2.39143 21.0733 1.84577 20.988C1.3001 20.9028 0.926872 20.3913 1.01213 19.8456L3.33176 5H2.00014C1.44786 5 1.00014 4.55228 1.00014 4Z" fill="#141B34"/>
</svg>
