<svg width="24" height="24" viewBox="0 0 24 24" fill="none" xmlns="http://www.w3.org/2000/svg">
<path fill-rule="evenodd" clip-rule="evenodd" d="M3 13.5H2L2 11.5L22 11.5V13.5H21V22.25H19V18.25L5 18.25V22.25H3L3 13.5ZM10.5 15.75L13.5 15.75L13.5 14.25L10.5 14.25L10.5 15.75Z" fill="#141B34"/>
<path d="M16.6962 7.22125C16.7887 7.45233 16.7605 7.71425 16.621 7.92038C16.4815 8.12651 16.2488 8.25 15.9999 8.25H8.00049C7.75168 8.25 7.51906 8.12661 7.37953 7.9206C7.23999 7.71459 7.21171 7.45279 7.30402 7.22174L9.49017 1.75002L14.5058 1.75L16.6962 7.22125Z" fill="#141B34"/>
<path fill-rule="evenodd" clip-rule="evenodd" d="M11 12.5V7.5H13V12.5H11Z" fill="#141B34"/>
</svg>
