<svg width="24" height="24" viewBox="0 0 24 24" fill="none" xmlns="http://www.w3.org/2000/svg">
<path fill-rule="evenodd" clip-rule="evenodd" d="M8.97092 4.24894C10.7338 2.91702 13.2662 2.91702 15.0291 4.24894C15.4733 4.58453 16.0267 4.79225 16.6083 4.8334L16.8077 4.84751C18.986 5.00162 20.7889 6.62597 20.9796 8.74529C21.0231 9.228 21.2355 9.69547 21.5936 10.068C23.0245 11.5566 23.1305 13.7732 21.8948 15.3707C21.568 15.7933 20.9548 15.8752 20.5253 15.5536C20.0958 15.232 20.0126 14.6287 20.3394 14.2061C20.9959 13.3573 20.9461 12.1931 20.1735 11.3893C19.5198 10.7092 19.1158 9.8384 19.0327 8.91493C18.9331 7.80809 17.9648 6.8574 16.6676 6.76563L16.4681 6.75152C15.5113 6.68382 14.5914 6.34288 13.8387 5.77418C12.7779 4.9727 11.2221 4.9727 10.1613 5.77418C9.40864 6.34288 8.48866 6.68382 7.53187 6.75152L7.33245 6.76563C6.03524 6.8574 5.06693 7.80809 4.9673 8.91493C4.88418 9.8384 4.48024 10.7092 3.82648 11.3893C3.05387 12.1931 3.00406 13.3573 3.66055 14.2061C3.98741 14.6287 3.9042 15.232 3.47469 15.5536C3.04518 15.8752 2.43203 15.7933 2.10517 15.3707C0.869545 13.7732 0.975465 11.5566 2.40642 10.068C2.76446 9.69547 2.97693 9.228 3.02038 8.74529C3.21114 6.62597 5.01397 5.00162 7.19226 4.84751L7.39169 4.8334C7.97329 4.79225 8.52675 4.58453 8.97092 4.24894Z" fill="#141B34"/>
<path fill-rule="evenodd" clip-rule="evenodd" d="M11.9999 8.25C7.3198 8.25 3.37382 11.4282 1.82601 15.8232L1.80249 15.89C1.55902 16.5809 1.33701 17.211 1.27108 17.7746C1.19477 18.427 1.31997 19.0146 1.73989 19.5974C2.18489 20.2151 2.77906 20.5024 3.48426 20.6324C4.12257 20.7501 4.92247 20.7501 5.85379 20.75H5.85383H18.146H18.146C19.0773 20.7501 19.8772 20.7501 20.5155 20.6324C21.2207 20.5024 21.8149 20.2151 22.2599 19.5974C22.6798 19.0146 22.805 18.427 22.7287 17.7746C22.6628 17.211 22.4408 16.5809 22.1973 15.8899L22.1738 15.8232C20.626 11.4282 16.68 8.25 11.9999 8.25ZM6.9895 13C6.43722 13 5.9895 13.4477 5.9895 14C5.9895 14.5523 6.43722 15 6.9895 15H6.99844C7.55073 15 7.99844 14.5523 7.99844 14C7.99844 13.4477 7.55073 13 6.99844 13H6.9895ZM5.48828 16C4.936 16 4.48828 16.4477 4.48828 17C4.48828 17.5523 4.936 18 5.48828 18H5.49722C6.04951 18 6.49722 17.5523 6.49722 17C6.49722 16.4477 6.04951 16 5.49722 16H5.48828Z" fill="#141B34"/>
</svg>
