<svg width="24" height="24" viewBox="0 0 24 24" fill="none" xmlns="http://www.w3.org/2000/svg">
<path d="M8.1467 20.3121L8.12177 20.287C7.97031 20.1346 7.76351 19.9234 7.54291 19.6892C7.12449 19.2451 6.58229 18.6419 6.32657 18.2094C6.28096 18.1322 6.23081 18.0497 6.17794 17.9627L6.17793 17.9627C5.95568 17.5968 5.68554 17.1522 5.50357 16.6985C5.26567 16.1054 5.13145 15.3973 5.39201 14.627C5.53904 14.1923 5.83373 13.7641 6.13248 13.3979C6.44124 13.0194 6.80219 12.6501 7.13845 12.3309C7.47638 12.0102 7.79931 11.7308 8.03722 11.5318C8.07595 11.4995 8.1125 11.4692 8.14658 11.4411V6.4875C8.14658 5.27078 9.11203 4.25 10.3449 4.25C11.5777 4.25 12.5432 5.27078 12.5432 6.4875V10.6282C14.1049 10.7045 16.3082 11.2209 17.9773 12.946C18.7892 13.7853 18.8281 14.9983 18.686 15.9729C18.5384 16.9857 18.1616 17.9866 17.851 18.6527C17.6789 19.0218 17.4371 19.4601 17.2457 19.7948C17.1519 19.9589 17.0676 20.1026 17.0054 20.2073V22.75H8.1467V20.3121Z" fill="#141B34"/>
<path fill-rule="evenodd" clip-rule="evenodd" d="M10.5 2.75C8.70507 2.75 7.25 4.20507 7.25 6H5.75C5.75 3.37665 7.87665 1.25 10.5 1.25C13.1234 1.25 15.25 3.37665 15.25 6H13.75C13.75 4.20507 12.2949 2.75 10.5 2.75Z" fill="#141B34"/>
</svg>
