<svg width="24" height="24" viewBox="0 0 24 24" fill="none" xmlns="http://www.w3.org/2000/svg">
<path d="M8.55771 6.61538C8.55771 5.30902 9.61673 4.25 10.9231 4.25C12.2295 4.25 13.2885 5.30902 13.2885 6.61538V10.6062C14.912 10.6813 17.1672 11.2077 18.9302 12.9312C19.7898 13.7715 19.8333 14.9957 19.6818 15.979C19.5249 16.9968 19.1251 18.0007 18.7964 18.6674L18.7849 18.6906L17.9054 20.2023V22.75H8.49535V20.2704L4.74773 15.7477C4.08805 14.9341 4.08369 13.7701 4.73718 12.9516C5.52327 11.9669 6.9682 11.8305 7.92418 12.6516L7.92557 12.6528L8.55771 13.1985V6.61538Z" fill="#141B34"/>
<path fill-rule="evenodd" clip-rule="evenodd" d="M11 2.75C9.20507 2.75 7.75 4.20507 7.75 6H6.25C6.25 3.37665 8.37665 1.25 11 1.25C13.6234 1.25 15.75 3.37665 15.75 6H14.25C14.25 4.20507 12.7949 2.75 11 2.75Z" fill="#141B34"/>
</svg>
