<svg width="24" height="24" viewBox="0 0 24 24" fill="none" xmlns="http://www.w3.org/2000/svg">
<path d="M6.39324 14.115C5.86559 13.5714 5.00374 13.6171 4.53296 14.2233C4.16528 14.6968 4.15467 15.3725 4.50846 15.8585L4.5203 15.8747L8.52931 22.75H17.2786C18.6315 22.75 19.75 21.644 19.75 20.253V13.9823C19.75 13.3906 19.276 12.9325 18.7183 12.9325H17.5993V14.4393H16.7835V13.0176C16.7835 12.8927 16.7622 12.7738 16.7236 12.6639C16.5784 12.2511 16.1922 11.9678 15.7518 11.9678H14.6328V13.9062H13.817V12.0529C13.817 11.928 13.7957 11.8091 13.7571 11.6992C13.6119 11.2864 13.2257 11.003 12.7853 11.003H11.6663V12.9414H10.8505V5.41046C10.8505 4.76949 10.3309 4.24988 9.68989 4.24988C9.04892 4.24988 8.52931 4.76949 8.52931 5.41046V16.4911L6.39324 14.115Z" fill="#141B34"/>
<path fill-rule="evenodd" clip-rule="evenodd" d="M9.68945 3.05C8.11544 3.05 6.83945 4.25883 6.83945 5.75H4.93945C4.93945 3.26472 7.0661 1.25 9.68945 1.25C12.3128 1.25 14.4395 3.26472 14.4395 5.75H12.5395C12.5395 4.25883 11.2635 3.05 9.68945 3.05Z" fill="#141B34"/>
</svg>
