<svg width="24" height="24" viewBox="0 0 24 24" fill="none" xmlns="http://www.w3.org/2000/svg">
<path d="M16.4961 3.13281C17.3501 3.25976 18.073 3.51934 18.6514 4.09766C19.2531 4.69966 19.5127 5.45824 19.6338 6.3584C19.75 7.22349 19.75 8.3242 19.75 9.6875L19.75 14.7363C19.6031 14.8094 19.4614 14.8977 19.3301 15.0049L19.1592 15.1592L18.25 16.0684L17.3408 15.1592C16.4621 14.2805 15.0379 14.2805 14.1592 15.1592C13.2806 16.0379 13.2805 17.4622 14.1592 18.3408L15.0684 19.25L14.1592 20.1592C13.4585 20.86 13.3184 21.9068 13.7354 22.748C13.5192 22.7486 13.2956 22.75 13.0645 22.75L8.93555 22.75C7.57262 22.75 6.47324 22.7501 5.6084 22.6338C4.70854 22.5128 3.95047 22.2542 3.34863 21.6523C2.74688 21.0503 2.48727 20.2918 2.36621 19.3916C2.24996 18.5266 2.24998 17.4257 2.25 16.0625L2.25 9.6875C2.24998 8.32433 2.24996 7.22343 2.36621 6.3584C2.48727 5.45824 2.74688 4.69966 3.34863 4.09766C3.92676 3.51955 4.6493 3.25981 5.50293 3.13281C5.57242 4.72804 6.88765 6 8.5 6L13.5 6C15.1123 6 16.4266 4.72802 16.4961 3.13281ZM7 14.25C6.58579 14.25 6.25 14.5858 6.25 15C6.25 15.4142 6.58579 15.75 7 15.75H10.4287L10.5049 15.7461C10.8833 15.7079 11.1787 15.3884 11.1787 15C11.1787 14.6116 10.8833 14.2921 10.5049 14.2539L10.4287 14.25H7ZM7 10.25C6.58579 10.25 6.25 10.5858 6.25 11C6.25 11.4142 6.58579 11.75 7 11.75L15 11.75C15.4142 11.75 15.75 11.4142 15.75 11C15.75 10.5858 15.4142 10.25 15 10.25L7 10.25Z" fill="#141B34"/>
<path fill-rule="evenodd" clip-rule="evenodd" d="M6.75 3C6.75 2.0335 7.5335 1.25 8.5 1.25H13.5C14.4665 1.25 15.25 2.0335 15.25 3C15.25 3.9665 14.4665 4.75 13.5 4.75H8.5C7.5335 4.75 6.75 3.9665 6.75 3Z" fill="#141B34"/>
<path d="M20.043 16.0429C20.4335 15.6524 21.0666 15.6524 21.4571 16.0429C21.8476 16.4334 21.8476 17.0664 21.4571 17.457L19.6641 19.2499L21.4571 21.0429C21.8476 21.4334 21.8476 22.0664 21.4571 22.457C21.0666 22.8475 20.4335 22.8475 20.043 22.457L18.25 20.664L16.4571 22.457C16.0666 22.8475 15.4335 22.8475 15.043 22.457C14.6525 22.0664 14.6525 21.4334 15.043 21.0429L16.836 19.2499L15.043 17.457C14.6525 17.0664 14.6525 16.4334 15.043 16.0429C15.4335 15.6524 16.0666 15.6524 16.4571 16.0429L18.25 17.8359L20.043 16.0429Z" fill="#141B34"/>
</svg>
