<svg width="24" height="24" viewBox="0 0 24 24" fill="none" xmlns="http://www.w3.org/2000/svg">
<path opacity="0.4" d="M15.499 2.00781C17.3593 2.03468 18.4137 2.17147 19.1211 2.87891C19.9998 3.75759 20 5.17157 20 8V16C20 18.8284 19.9998 20.2424 19.1211 21.1211C18.2424 21.9998 16.8284 22 14 22H10C7.17157 22 5.75759 21.9998 4.87891 21.1211C4.00023 20.2424 4 18.8284 4 16V8C4 5.17157 4.00023 3.75759 4.87891 2.87891C5.58622 2.17159 6.64034 2.03472 8.5 2.00781C8.5 3.41682 8.50092 4.12202 8.93945 4.56055C9.37879 4.99989 10.0858 5 11.5 5H12.5C13.9142 5 14.6212 4.99989 15.0605 4.56055C15.4991 4.12202 15.499 3.41682 15.499 2.00781Z" fill="#141B34"/>
<path d="M20 16V8C20 5.17157 20 3.75736 19.1213 2.87868C18.2426 2 16.8284 2 14 2H10C7.17157 2 5.75736 2 4.87868 2.87868C4 3.75736 4 5.17157 4 8V16C4 18.8284 4 20.2426 4.87868 21.1213C5.75736 22 7.17157 22 10 22H14C16.8284 22 18.2426 22 19.1213 21.1213C20 20.2426 20 18.8284 20 16Z" stroke="#141B34" stroke-width="1.5" stroke-linecap="round" stroke-linejoin="round"/>
<path d="M15.5 2H8.5C8.5 3.41421 8.5 4.12132 8.93934 4.56066C9.37868 5 10.0858 5 11.5 5H12.5C13.9142 5 14.6213 5 15.0607 4.56066C15.5 4.12132 15.5 3.41421 15.5 2Z" stroke="#141B34" stroke-width="1.5" stroke-linecap="round" stroke-linejoin="round"/>
<path d="M8 15H12M8 11H16" stroke="#141B34" stroke-width="1.5" stroke-linecap="round" stroke-linejoin="round"/>
</svg>
