<svg width="24" height="24" viewBox="0 0 24 24" fill="none" xmlns="http://www.w3.org/2000/svg">
<path d="M21 3V21H3V3H21Z" stroke="#141B34" stroke-width="1.5" stroke-linejoin="round"/>
<path d="M10.0238 7.98365L10.0238 10.7108H13.9849V8.02406C13.9849 8.01544 13.9951 8.01086 14.0015 8.01657L18.4893 11.9928C18.4937 11.9967 18.4938 12.0037 18.4893 12.0077L14.0015 15.9964C13.9951 16.0022 13.9849 15.9976 13.9849 15.989V13.2101H10.0238V15.9889C10.0238 15.9976 10.0136 16.0022 10.0071 15.9964L5.51263 11.9936C5.50816 11.9896 5.50816 11.9826 5.51263 11.9787L10.0072 7.97618C10.0136 7.97044 10.0238 7.97502 10.0238 7.98365Z" stroke="#141B34" stroke-width="1.5"/>
</svg>
