<svg width="24" height="24" viewBox="0 0 24 24" fill="none" xmlns="http://www.w3.org/2000/svg">
<path opacity="0.4" fill-rule="evenodd" clip-rule="evenodd" d="M10 9C10 8.44772 9.55228 8 9 8H3C2.44772 8 2 8.44772 2 9C2 9.55228 2.44772 10 3 10H9C9.55228 10 10 9.55228 10 9Z" fill="#141B34"/>
<path opacity="0.4" fill-rule="evenodd" clip-rule="evenodd" d="M10 3C10 2.44772 9.55228 2 9 2H3C2.44772 2 2 2.44772 2 3C2 3.55228 2.44772 4 3 4H9C9.55228 4 10 3.55228 10 3Z" fill="#141B34"/>
<path fill-rule="evenodd" clip-rule="evenodd" d="M22 15C22 14.4477 21.5523 14 21 14H3C2.44772 14 2 14.4477 2 15C2 15.5523 2.44772 16 3 16H21C21.5523 16 22 15.5523 22 15Z" fill="#141B34"/>
<path fill-rule="evenodd" clip-rule="evenodd" d="M22 21C22 20.4477 21.5523 20 21 20H3C2.44772 20 2 20.4477 2 21C2 21.5523 2.44772 22 3 22H21C21.5523 22 22 21.5523 22 21Z" fill="#141B34"/>
<path opacity="0.4" d="M17.198 1.25C16.2995 1.24997 15.5503 1.24995 14.9555 1.32991C14.3277 1.41432 13.7609 1.59999 13.3055 2.05546C12.85 2.51093 12.6643 3.07773 12.5799 3.70552C12.4999 4.3003 12.5 5.04951 12.5 5.94798V5.94801V6.052V6.05203C12.5 6.9505 12.4999 7.69971 12.5799 8.29448C12.6643 8.92228 12.85 9.48908 13.3055 9.94455C13.7609 10.4 14.3277 10.5857 14.9555 10.6701C15.5503 10.7501 16.2995 10.75 17.198 10.75H17.198H17.302H17.302C18.2005 10.75 18.9497 10.7501 19.5445 10.6701C20.1723 10.5857 20.7391 10.4 21.1945 9.94455C21.65 9.48908 21.8357 8.92228 21.9201 8.29448C22.0001 7.69971 22 6.9505 22 6.05203V6.052V5.948V5.94797C22 5.04951 22.0001 4.3003 21.9201 3.70552C21.8357 3.07773 21.65 2.51093 21.1945 2.05546C20.7391 1.59999 20.1723 1.41432 19.5445 1.32991C18.9497 1.24995 18.2005 1.24997 17.302 1.25H17.302H17.198H17.198Z" fill="#141B34"/>
</svg>
