<svg width="24" height="24" viewBox="0 0 24 24" fill="none" xmlns="http://www.w3.org/2000/svg">
<path fill-rule="evenodd" clip-rule="evenodd" d="M8 20V3H10V20H12V22H6V20H8Z" fill="#141B34"/>
<path fill-rule="evenodd" clip-rule="evenodd" d="M1.29288 2.2929C1.48042 2.10536 1.73478 2 2 2L16.0001 2.00002C16.5524 2.00002 17.0001 2.44773 17.0001 3.00002V6.00002H15.0001V4.00002L3.00003 4L3.00008 5.99999L1.00008 6.00004L1 3.00003C0.999993 2.73481 1.10535 2.48044 1.29288 2.2929Z" fill="#141B34"/>
<path fill-rule="evenodd" clip-rule="evenodd" d="M18.0005 5H22.0005C22.5528 5 23.0005 5.44772 23.0005 6V9C23.0005 9.55228 22.5528 10 22.0005 10H20V11H23.0005V13H19C18.4477 13 18 12.5523 18 12V9C18 8.44772 18.4477 8 19 8H21.0005V7H18.0005V5Z" fill="#141B34"/>
</svg>
