<svg width="24" height="24" viewBox="0 0 24 24" fill="none" xmlns="http://www.w3.org/2000/svg">
<path d="M18.5 6.75C20.0188 6.75 21.25 7.98122 21.25 9.5V13.25H19.75V9.5C19.75 8.80964 19.1904 8.25 18.5 8.25H3.75V6.75H18.5Z" fill="#141B34"/>
<path d="M17.25 9.75V11.25H3.75V9.75H17.25Z" fill="#141B34"/>
<path d="M17.25 12.75V14.25H3.75V12.75H17.25Z" fill="#141B34"/>
<path d="M17.25 15.75V17.25H3.75V15.75H17.25Z" fill="#141B34"/>
<path d="M2.75012 21.5002C2.75012 19.9815 3.98134 18.7502 5.50012 18.7502H15.5001C17.0189 18.7502 18.2501 19.9815 18.2501 21.5002V22.2502H2.75012V21.5002Z" fill="#141B34"/>
<path d="M18.2499 2.49969C18.2499 4.01848 17.0187 5.24969 15.4999 5.24969L5.49988 5.24969C3.9811 5.24969 2.74988 4.01848 2.74988 2.49969L2.74988 1.74969L18.2499 1.74969L18.2499 2.49969Z" fill="#141B34"/>
</svg>
