<svg width="24" height="24" viewBox="0 0 24 24" fill="none" xmlns="http://www.w3.org/2000/svg">
<path opacity="0.4" d="M12.0572 1.75C14.2479 1.74999 15.9686 1.74998 17.312 1.93059C18.6886 2.11568 19.7809 2.50271 20.6391 3.36091C21.4973 4.21911 21.8843 5.31137 22.0694 6.68802C22.25 8.03144 22.25 9.86646 22.25 12.0572V12.0572C22.25 14.2479 22.25 15.9686 22.0694 17.312C21.8843 18.6886 21.4973 19.7809 20.6391 20.6391C19.7809 21.4973 18.6886 21.8843 17.312 22.0694C15.9686 22.25 14.2479 22.25 12.0572 22.25H12.0572C9.86646 22.25 8.03144 22.25 6.68802 22.0694C5.31137 21.8843 4.21911 21.4973 3.36091 20.6391C2.50271 19.7809 2.11568 18.6886 1.93059 17.312C1.74998 15.9686 1.74999 14.1335 1.75 11.9428C1.74999 9.75212 1.74998 8.03144 1.93059 6.68802C2.11568 5.31137 2.50271 4.21911 3.36091 3.36091C4.21911 2.50271 5.31137 2.11568 6.68802 1.93059C8.03144 1.74998 9.86647 1.74999 12.0572 1.75Z" fill="#141B34"/>
<path fill-rule="evenodd" clip-rule="evenodd" d="M8 9.5C8 7.567 9.567 6 11.5 6H12.5C14.433 6 16 7.567 16 9.5C16 10.4793 15.5978 11.3647 14.9495 12C15.5978 12.6353 16 13.5207 16 14.5C16 16.433 14.433 18 12.5 18H11.5C9.567 18 8 16.433 8 14.5C8 13.9477 8.44772 13.5 9 13.5C9.55228 13.5 10 13.9477 10 14.5C10 15.3284 10.6716 16 11.5 16H12.5C13.3284 16 14 15.3284 14 14.5C14 13.6716 13.3284 13 12.5 13H11.5C10.9477 13 10.5 12.5523 10.5 12C10.5 11.4477 10.9477 11 11.5 11H12.5C13.3284 11 14 10.3284 14 9.5C14 8.67157 13.3284 8 12.5 8H11.5C10.6716 8 10 8.67157 10 9.5C10 10.0523 9.55228 10.5 9 10.5C8.44772 10.5 8 10.0523 8 9.5Z" fill="#141B34"/>
</svg>
