<svg width="24" height="24" viewBox="0 0 24 24" fill="none" xmlns="http://www.w3.org/2000/svg">
<path d="M5.0001 2C3.89554 2 3.00011 2.89542 3.0001 3.99999L3.00001 18.9996C3.00001 20.1042 3.89541 20.9996 4.99997 20.9996L20 21C21.1045 21 22 20.1045 22 19V4C22 2.89543 21.1046 2 20 2H5.0001Z" stroke="#141B34" stroke-width="1.5" stroke-linejoin="round"/>
<path d="M14.6127 6H8.5C7.94772 6 7.5 6.44772 7.5 7V11.6492C7.5 11.8763 7.57728 12.0966 7.71913 12.2739L11.5 17L11.6138 16.9146C12.7208 16.0844 13.1163 14.6047 12.5712 13.3329L12 12H16.071C16.7653 12 17.2484 11.3098 17.0105 10.6575L15.5522 6.65747C15.4083 6.26269 15.0329 6 14.6127 6Z" stroke="#141B34" stroke-width="1.5" stroke-linejoin="round"/>
</svg>
