<svg width="24" height="24" viewBox="0 0 24 24" fill="none" xmlns="http://www.w3.org/2000/svg">
<path d="M21.8606 5.39194C22.2875 6.49653 21.6888 7.25279 20.5301 7.99773C19.5951 8.59878 18.4039 9.24994 17.1417 10.3632C15.9044 11.4545 14.6968 12.7689 13.6237 14.0626C12.5549 15.3511 11.6465 16.5862 11.0046 17.5007C10.5898 18.0916 10.011 18.9731 10.011 18.9731C9.60281 19.6189 8.86895 20.0098 8.08206 20C7.295 19.9902 6.57208 19.5814 6.18156 18.9253C5.18328 17.2482 4.41296 16.5859 4.05891 16.348C3.11158 15.7114 2 15.6172 2 14.1337C2 12.9556 2.99489 12.0005 4.22216 12.0005C5.08862 12.0325 5.89398 12.3732 6.60756 12.8527C7.06369 13.1593 7.54689 13.5647 8.04948 14.0983C8.63934 13.2938 9.35016 12.3655 10.147 11.4049C11.3042 10.0098 12.6701 8.51328 14.1349 7.22134C15.5748 5.95133 17.2396 4.76253 19.0042 4.13399C20.1549 3.72416 21.4337 4.28736 21.8606 5.39194Z" stroke="#141B34" stroke-width="1.5" stroke-linecap="round" stroke-linejoin="round"/>
</svg>
