<svg width="24" height="24" viewBox="0 0 24 24" fill="none" xmlns="http://www.w3.org/2000/svg">
<path d="M11.7143 9L14.0188 6.51816C14.2817 6.23515 14.7269 6.2269 15 6.5V6.5M8.5 18V18C8.22041 18.2796 7.77022 18.2894 7.47875 18.0222L2.70315 13.6446C2.30956 13.2838 2.26883 12.6774 2.61065 12.2672L3.85086 10.779C4.2079 10.3505 4.84643 10.2969 5.26988 10.6599L5.3548 10.7327" stroke="#141B34" stroke-width="1.5" stroke-linecap="round" stroke-linejoin="round"/>
<path d="M7.11065 12.2672L8.35086 10.779C8.7079 10.3505 9.34643 10.2969 9.76988 10.6599L12.5 13L18.2939 6.76044C18.6796 6.34509 19.333 6.33299 19.7338 6.73378L21.2929 8.29289C21.6834 8.68342 21.6834 9.31658 21.2929 9.70711L13.177 17.823C12.7985 18.2015 12.1889 18.2148 11.7942 17.853L7.20315 13.6446C6.80956 13.2838 6.76883 12.6774 7.11065 12.2672Z" stroke="#141B34" stroke-width="1.5" stroke-linecap="round" stroke-linejoin="round"/>
</svg>
