<svg width="24" height="24" viewBox="0 0 24 24" fill="none" xmlns="http://www.w3.org/2000/svg">
<path fill-rule="evenodd" clip-rule="evenodd" d="M5.74609 14C5.74609 13.5858 6.08188 13.25 6.49609 13.25H9.49609C9.91031 13.25 10.2461 13.5858 10.2461 14C10.2461 14.4142 9.91031 14.75 9.49609 14.75H8.74609V19C8.74609 19.4142 8.41031 19.75 7.99609 19.75C7.58188 19.75 7.24609 19.4142 7.24609 19V14.75H6.49609C6.08188 14.75 5.74609 14.4142 5.74609 14ZM11.9961 13.25C12.4103 13.25 12.7461 13.5858 12.7461 14V19C12.7461 19.4142 12.4103 19.75 11.9961 19.75C11.5819 19.75 11.2461 19.4142 11.2461 19V14C11.2461 13.5858 11.5819 13.25 11.9961 13.25ZM13.7461 14C13.7461 13.5858 14.0819 13.25 14.4961 13.25H16.4961C16.9103 13.25 17.2461 13.5858 17.2461 14C17.2461 14.4142 16.9103 14.75 16.4961 14.75H15.2461V15.75H16.4961C16.9103 15.75 17.2461 16.0858 17.2461 16.5C17.2461 16.9142 16.9103 17.25 16.4961 17.25H15.2461V19C15.2461 19.4142 14.9103 19.75 14.4961 19.75C14.0819 19.75 13.7461 19.4142 13.7461 19V14ZM18.2461 14C18.2461 13.5858 18.5819 13.25 18.9961 13.25H20.9961C21.4103 13.25 21.7461 13.5858 21.7461 14C21.7461 14.4142 21.4103 14.75 20.9961 14.75H19.7461V15.75H20.9961C21.4103 15.75 21.7461 16.0858 21.7461 16.5C21.7461 16.9142 21.4103 17.25 20.9961 17.25H19.7461V19C19.7461 19.4142 19.4103 19.75 18.9961 19.75C18.5819 19.75 18.2461 19.4142 18.2461 19V14Z" fill="#141B34"/>
<path fill-rule="evenodd" clip-rule="evenodd" d="M2.27427 19.823C2.27678 21.4403 3.58211 22.75 5.19144 22.75H16.8328C18.0256 22.75 19.0512 22.0306 19.5033 21H8C6.89543 21 6 20.1046 6 19V15.937C5.13739 15.715 4.5 14.9319 4.5 14C4.5 12.8954 5.39543 12 6.5 12H19.75V9.05498C19.75 8.79546 19.6473 8.5466 19.4645 8.36329L12.6564 1.53551C12.4741 1.35268 12.2271 1.25 11.9695 1.25H5.16717C3.55429 1.25 2.24749 2.56532 2.25 4.18619L2.27427 19.823ZM11.5673 3.20594L17.8043 9.46094H13.0673C12.2389 9.46094 11.5673 8.78936 11.5673 7.96094V3.20594Z" fill="#141B34"/>
</svg>
