<svg width="24" height="24" viewBox="0 0 24 24" fill="none" xmlns="http://www.w3.org/2000/svg">
<path fill-rule="evenodd" clip-rule="evenodd" d="M13.4565 1.27043C13.2071 1.24186 10.5436 1.27067 10.5436 1.27067C10.2656 1.30251 9.97337 1.37591 9.70064 1.57316C9.42804 1.77032 9.26624 2.02497 9.14844 2.27905C9.04264 2.50727 8.60974 3.80421 8.50959 4.10581C8.43185 4.52074 8.0042 5.27376 6.91551 4.96643C6.91551 4.96643 5.04518 4.43734 4.78104 4.39535C4.48729 4.34864 4.16593 4.34268 3.83362 4.47803C3.50143 4.61334 3.27539 4.84218 3.09742 5.08081C2.93729 5.29553 1.66743 7.56035 1.66743 7.56035C1.55549 7.81923 1.47292 8.11151 1.50828 8.44858C1.54364 8.78568 1.68508 9.05437 1.84835 9.28428C1.99495 9.49072 3.44422 11.1107 3.44422 11.1107C3.70919 11.412 4.08015 12.1928 3.44424 12.9048C3.44424 12.9048 1.99495 14.5247 1.84835 14.7312C1.68508 14.9611 1.54364 15.2298 1.50828 15.5669C1.47292 15.904 1.5555 16.1962 1.66743 16.4551C1.66743 16.4551 2.93728 18.7199 3.09741 18.9346C3.27538 19.1733 3.50143 19.4021 3.83363 19.5374C4.16594 19.6728 4.48731 19.6668 4.78107 19.6201C5.0452 19.5781 6.91546 19.049 6.91546 19.049C7.30798 18.9207 8.17632 18.9133 8.50956 19.9096C8.6097 20.2112 9.04264 21.5083 9.14844 21.7365C9.26624 21.9906 9.42803 22.2452 9.70064 22.4424C9.97337 22.6396 10.2657 22.7133 10.5436 22.7451C10.793 22.7737 13.4565 22.7451 13.4565 22.7451C13.7344 22.7133 14.0267 22.6396 14.2994 22.4424C14.572 22.2452 14.7338 21.9906 14.8516 21.7365C14.9574 21.5083 15.3904 20.2112 15.4905 19.9096C15.61 19.5065 16.0962 18.7701 17.0846 19.049C17.4126 19.1423 18.9549 19.5781 19.219 19.6201C19.5128 19.6668 19.8341 19.6728 20.1664 19.5374C20.4987 19.4021 20.7247 19.1733 20.9027 18.9346C21.0628 18.7199 22.3326 16.4551 22.3326 16.4551C22.4446 16.1962 22.5272 15.904 22.4918 15.5669C22.4564 15.2298 22.315 14.9611 22.1517 14.7312C22.0051 14.5248 20.7696 13.1428 20.5558 12.9048C19.9524 12.2292 20.3044 11.4272 20.5559 11.1107C20.6207 11.0385 20.7796 10.861 20.9736 10.643C21.419 10.1424 22.0496 9.42809 22.1517 9.28428C22.315 9.05437 22.4564 8.78568 22.4918 8.44857C22.5272 8.1115 22.4446 7.81923 22.3326 7.56035L20.9027 5.08081C20.7247 4.84218 20.4986 4.61334 20.1665 4.47803C19.8342 4.34268 19.5128 4.34864 19.219 4.39535C18.9549 4.43734 17.4126 4.87317 17.0846 4.96643C16.1466 5.23102 15.631 4.50292 15.4905 4.1058C15.3903 3.80422 14.9574 2.50726 14.8516 2.27905C14.7338 2.02497 14.572 1.77032 14.2994 1.57316C14.0267 1.37591 13.7344 1.30227 13.4565 1.27043ZM13 8C13 7.44772 12.5523 7 12 7C11.4477 7 11 7.44772 11 8V12C11 12.3688 11.203 12.7077 11.5283 12.8817L14.332 14.3817C14.8189 14.6423 15.4249 14.4587 15.6855 13.9717C15.946 13.4848 15.7624 12.8788 15.2754 12.6183L13 11.4009V8Z" fill="#141B34"/>
</svg>
