<svg width="24" height="24" viewBox="0 0 24 24" fill="none" xmlns="http://www.w3.org/2000/svg">
<path fill-rule="evenodd" clip-rule="evenodd" d="M12.0007 1.25C11.461 1.25 11.0234 1.68754 11.0234 2.22728C11.0234 2.76701 11.461 3.20456 12.0007 3.20456C16.8583 3.20456 20.7962 7.14244 20.7962 12.0001C20.7962 12.5398 21.2338 12.9773 21.7735 12.9773C22.3132 12.9773 22.7508 12.5398 22.7508 12.0001C22.7508 6.06297 17.9378 1.25 12.0007 1.25ZM8.80013 4.11956C9.30572 3.93063 9.56242 3.36761 9.3735 2.86202C9.18457 2.35643 8.62155 2.09973 8.11596 2.28865C7.88544 2.37479 7.65876 2.46874 7.43623 2.57017C6.94511 2.79404 6.72845 3.37364 6.95231 3.86477C7.17617 4.35589 7.75578 4.57255 8.2469 4.34869C8.42806 4.26611 8.61255 4.18965 8.80013 4.11956ZM5.92925 5.90242C6.32315 5.53344 6.34336 4.91499 5.97437 4.52108C5.60538 4.12717 4.98693 4.10697 4.59303 4.47596C4.42701 4.63147 4.26602 4.79229 4.11033 4.95813C3.74092 5.35165 3.76046 5.97012 4.15397 6.33953C4.54749 6.70894 5.16596 6.6894 5.53536 6.29588C5.66241 6.16055 5.79378 6.02932 5.92925 5.90242ZM3.96237 8.64876C4.18444 8.15682 3.96567 7.57801 3.47373 7.35594C2.98179 7.13387 2.40298 7.35265 2.18091 7.84458C2.08883 8.04857 2.00303 8.25603 1.92375 8.4667C1.73366 8.97185 1.98906 9.53546 2.49421 9.72555C2.99937 9.91565 3.56298 9.66024 3.75307 9.15509C3.81758 8.98366 3.88741 8.81481 3.96237 8.64876ZM3.20884 11.9121C3.2256 11.3726 2.80186 10.9217 2.26238 10.905C1.72291 10.8882 1.27199 11.3119 1.25522 11.8514C1.24827 12.0752 1.24825 12.3002 1.25523 12.524C1.27206 13.0634 1.72304 13.4871 2.26251 13.4703C2.80199 13.4534 3.22567 13.0025 3.20884 12.463C3.20312 12.28 3.20314 12.0956 3.20884 11.9121ZM21.7109 15.8839C21.8999 15.3783 21.6432 14.8153 21.1376 14.6263C20.632 14.4374 20.069 14.6941 19.88 15.1997C19.8047 15.4011 19.7221 15.599 19.6324 15.7931C19.406 16.283 19.6197 16.8637 20.1096 17.0902C20.5996 17.3166 21.1803 17.1029 21.4067 16.613C21.5169 16.3746 21.6184 16.1315 21.7109 15.8839ZM3.75943 15.2347C3.56827 14.73 3.00413 14.4758 2.49938 14.6669C1.99462 14.8581 1.74041 15.4222 1.93157 15.927C2.01226 16.1401 2.09964 16.3498 2.19343 16.556C2.41692 17.0473 2.99636 17.2644 3.48765 17.0409C3.97895 16.8174 4.19605 16.238 3.97257 15.7467C3.89621 15.5788 3.82509 15.4081 3.75943 15.2347ZM19.5533 19.3749C19.9206 18.9794 19.8979 18.3611 19.5025 17.9937C19.1071 17.6263 18.4887 17.649 18.1214 18.0445C17.981 18.1956 17.8352 18.3417 17.6844 18.4824C17.2897 18.8506 17.2683 19.469 17.6365 19.8636C18.0047 20.2583 18.6231 20.2797 19.0177 19.9115C19.2026 19.739 19.3812 19.56 19.5533 19.3749ZM5.54989 18.0925C5.17952 17.6999 4.561 17.6819 4.16839 18.0522C3.77578 18.4226 3.75775 19.0411 4.12812 19.4337C4.27524 19.5897 4.42705 19.7412 4.58333 19.8879C4.97678 20.2574 5.59525 20.238 5.96473 19.8445C6.33421 19.4511 6.31479 18.8326 5.92134 18.4631C5.79382 18.3434 5.66993 18.2198 5.54989 18.0925ZM16.157 21.8178C16.6489 21.5956 16.8676 21.0167 16.6454 20.5249C16.4232 20.033 15.8444 19.8143 15.3525 20.0365C15.1876 20.1109 15.02 20.1804 14.8498 20.2445C14.3448 20.4349 14.0897 20.9987 14.2802 21.5038C14.4706 22.0088 15.0344 22.2638 15.5394 22.0734C15.7485 21.9945 15.9545 21.9092 16.157 21.8178ZM8.28408 20.0411C7.79189 19.8196 7.21333 20.039 6.99181 20.5312C6.7703 21.0234 6.98972 21.602 7.4819 21.8235C7.67671 21.9112 7.87467 21.9931 8.07556 22.0691C8.58037 22.2601 9.14444 22.0057 9.33545 21.5009C9.52645 20.9961 9.27206 20.4321 8.76726 20.2411C8.60378 20.1792 8.44266 20.1125 8.28408 20.0411ZM11.5075 20.7897C10.9681 20.7711 10.5157 21.1933 10.4971 21.7327C10.4785 22.2721 10.9007 22.7245 11.4401 22.7431C11.6883 22.7517 11.938 22.7517 12.1861 22.7431C12.7256 22.7245 13.1477 22.2721 13.1291 21.7327C13.1105 21.1933 12.6582 20.7711 12.1187 20.7897C11.9155 20.7967 11.7108 20.7967 11.5075 20.7897Z" fill="#141B34"/>
<path d="M12 5C12.5523 5 13 5.44772 13 6V9.70802C13.5767 9.96 14.04 10.4233 14.292 11H16C16.5523 11 17 11.4477 17 12C17 12.5523 16.5523 13 16 13H14.292C13.9062 13.883 13.0252 14.5 12 14.5C10.6193 14.5 9.5 13.3807 9.5 12C9.5 10.9748 10.117 10.0938 11 9.70802V6C11 5.44772 11.4477 5 12 5Z" fill="#141B34"/>
</svg>
