<svg width="24" height="24" viewBox="0 0 24 24" fill="none" xmlns="http://www.w3.org/2000/svg">
<path fill-rule="evenodd" clip-rule="evenodd" d="M11 7.75L6 7.75L6 6.25L11 6.25L11 7.75Z" fill="#141B34"/>
<path fill-rule="evenodd" clip-rule="evenodd" d="M5.25 22V13.75H4C3.58579 13.75 3.25 13.4142 3.25 13V2C3.25 1.58579 3.58579 1.25 4 1.25H8C8.41421 1.25 8.75 1.58579 8.75 2V10.25H20.7497V11C20.7497 14.7279 17.7276 17.75 13.9997 17.75C12.7715 17.75 11.6177 17.4213 10.6241 16.8465L9.87305 18.1449C11.0888 18.8482 12.5007 19.25 13.9997 19.25C14.8096 19.25 15.5923 19.1333 16.3318 18.9158C16.3564 19.0668 16.3975 19.2157 16.4522 19.3617C16.7488 20.1528 17.4717 20.8975 18.335 21.3292C18.6461 21.4848 18.8094 21.8338 18.7295 22.1723C18.6496 22.5109 18.3474 22.75 17.9996 22.75H6C5.58579 22.75 5.25 22.4142 5.25 22ZM4.75 12.25V2.75H7.25V12.25H4.75Z" fill="#141B34"/>
</svg>
