<svg width="24" height="24" viewBox="0 0 24 24" fill="none" xmlns="http://www.w3.org/2000/svg">
<path d="M19.7193 12C20.9011 10.7587 21.6613 9.18491 21.999 8.38617C21.3922 6.95049 19.4191 3 16.0798 3C15.03 3 14.1531 3.5997 13.4845 4.30544C12.9155 4.90614 11.999 5.78601 11.999 5.78601C11.999 5.78601 11.0825 4.90614 10.5134 4.30544C9.84489 3.5997 8.96793 3 7.91814 3C4.57882 3 2.60679 6.94928 2 8.38497C2.33768 9.1837 3.0969 10.7587 4.27868 12M18.998 8.38617H21.5392M4.99805 8.38497H2.50754" stroke="#141B34" stroke-width="1.5"/>
<path d="M11.999 9L12.2692 8.72635C12.7283 8.26127 13.3511 8 14.0004 8C15.1405 8 16.1296 8.79706 16.386 9.92227L17.3559 14.1793C18.1508 17.6686 15.5345 21 11.999 21C8.46358 21 5.84721 17.6686 6.64219 14.1793L7.61205 9.92227C7.86841 8.79706 8.85759 8 9.99765 8C10.647 8 11.2697 8.26127 11.7289 8.72635L11.999 9ZM11.999 9V12" stroke="#141B34" stroke-width="1.5" stroke-linejoin="round"/>
</svg>
