<svg width="24" height="24" viewBox="0 0 24 24" fill="none" xmlns="http://www.w3.org/2000/svg">
<path fill-rule="evenodd" clip-rule="evenodd" d="M3.55783 2.10329C4.05319 1.85909 4.65273 2.06269 4.89693 2.55805C6.19739 5.19602 8.89293 7.00022 12 7.00022C15.1071 7.00022 17.8026 5.19602 19.1031 2.55805C19.3473 2.06269 19.9468 1.85909 20.4422 2.10329C20.9375 2.34749 21.1411 2.94703 20.8969 3.44239C20.2046 4.8467 19.1932 6.06505 17.9575 7.00022H21C21.5523 7.00022 22 7.44794 22 8.00022C22 8.55251 21.5523 9.00022 21 9.00022H19V11.0002H21C21.5523 11.0002 22 11.4479 22 12.0002C22 12.5525 21.5523 13.0002 21 13.0002H19V21.0002C19 21.5525 18.5523 22.0002 18 22.0002C17.4477 22.0002 17 21.5525 17 21.0002V13.0002H7V21.0002C7 21.5525 6.55228 22.0002 6 22.0002C5.44772 22.0002 5 21.5525 5 21.0002V13.0002H3C2.44772 13.0002 2 12.5525 2 12.0002C2 11.4479 2.44772 11.0002 3 11.0002H5V9.00022H3C2.44772 9.00022 2 8.55251 2 8.00022C2 7.44794 2.44772 7.00022 3 7.00022H6.04246C4.80677 6.06505 3.79536 4.8467 3.10307 3.44239C2.85887 2.94703 3.06247 2.34749 3.55783 2.10329ZM7 9.00022V11.0002H9V9.00022H7ZM11 9.00022V11.0002H13V9.00022H11ZM15 9.00022V11.0002H17V9.00022H15Z" fill="#141B34"/>
</svg>
