<svg width="24" height="24" viewBox="0 0 24 24" fill="none" xmlns="http://www.w3.org/2000/svg">
<path opacity="0.4" fill-rule="evenodd" clip-rule="evenodd" d="M6 7C6.55228 7 7 7.44772 7 8V21C7 21.5523 6.55228 22 6 22C5.44772 22 5 21.5523 5 21V8C5 7.44772 5.44772 7 6 7ZM18 7C18.5523 7 19 7.44772 19 8V21C19 21.5523 18.5523 22 18 22C17.4477 22 17 21.5523 17 21V8C17 7.44772 17.4477 7 18 7Z" fill="#141B34"/>
<path fill-rule="evenodd" clip-rule="evenodd" d="M2 8C2 7.44772 2.44772 7 3 7H21C21.5523 7 22 7.44772 22 8C22 8.55228 21.5523 9 21 9H3C2.44772 9 2 8.55228 2 8ZM2 12C2 11.4477 2.44772 11 3 11H21C21.5523 11 22 11.4477 22 12C22 12.5523 21.5523 13 21 13H3C2.44772 13 2 12.5523 2 12Z" fill="#141B34"/>
<path opacity="0.4" fill-rule="evenodd" clip-rule="evenodd" d="M10 7C9.44772 7 9 7.44772 9 8L9 12C9 12.5523 9.44771 13 10 13C10.5523 13 11 12.5523 11 12L11 8C11 7.44772 10.5523 7 10 7ZM14 7C13.4477 7 13 7.44772 13 8L13 12C13 12.5523 13.4477 13 14 13C14.5523 13 15 12.5523 15 12L15 8C15 7.44772 14.5523 7 14 7Z" fill="#141B34"/>
<path opacity="0.4" fill-rule="evenodd" clip-rule="evenodd" d="M3.55805 2.10329C4.05342 1.85909 4.65295 2.06269 4.89716 2.55805C6.19762 5.19602 8.89315 7.00022 12.0002 7.00022C15.1073 7.00022 17.8028 5.19602 19.1033 2.55805C19.3475 2.06269 19.947 1.85909 20.4424 2.10329C20.9378 2.34749 21.1414 2.94703 20.8972 3.44239C19.2758 6.7313 15.9041 9.00022 12.0002 9.00022C8.09634 9.00022 4.72465 6.7313 3.10329 3.44239C2.85909 2.94703 3.06269 2.34749 3.55805 2.10329Z" fill="#141B34"/>
</svg>
