<svg width="24" height="24" viewBox="0 0 24 24" fill="none" xmlns="http://www.w3.org/2000/svg">
<path fill-rule="evenodd" clip-rule="evenodd" d="M5 21.25V8.25H7V21.25H5ZM17 21.25V8.25H19V21.25H17Z" fill="#141B34"/>
<path fill-rule="evenodd" clip-rule="evenodd" d="M21 9.25H3V7.25H21V9.25ZM21 13.25H3V11.25H21V13.25Z" fill="#141B34"/>
<path fill-rule="evenodd" clip-rule="evenodd" d="M11 12.25L11 8.25L9 8.25L9 12.25L11 12.25ZM15 12.25L15 8.25L13 8.25L13 12.25L15 12.25Z" fill="#141B34"/>
<path fill-rule="evenodd" clip-rule="evenodd" d="M12.0008 9.19217C8.09687 9.19217 4.72518 6.92324 3.10382 3.63434L4.89768 2.75C6.19815 5.38796 8.89368 7.19217 12.0008 7.19217C15.1078 7.19217 17.8034 5.38796 19.1038 2.75L20.8977 3.63434C19.2763 6.92324 15.9046 9.19217 12.0008 9.19217Z" fill="#141B34"/>
</svg>
