<svg width="24" height="24" viewBox="0 0 24 24" fill="none" xmlns="http://www.w3.org/2000/svg">
<path d="M7 7.99237H3V2H21V7.99237H16.5" stroke="#141B34" stroke-width="1.5" stroke-linejoin="round"/>
<path d="M9.55787 21.9762V19.9577L5.54273 14.7351C4.76103 13.7308 4.87144 12.8459 5.54266 12.1882C6.3638 11.4856 7.11545 11.7037 7.85386 12.4054L8.81482 13.4839L9.69939 14.4337V6.64252C9.70254 5.73986 10.4361 5.00977 11.3399 5.00977C12.246 5.00977 12.9805 5.74333 12.9805 6.64822V10.11C14.3032 10.11 15.294 10.2158 16.5597 10.6291C17.1082 10.8082 17.6443 11.0794 18.1219 11.4025C19.4649 12.311 19.8556 12.9888 19.969 13.696C20.2226 16.6204 18.3598 19.0926 18.0348 19.9916C18.0348 20.9227 18.0348 22.0019 18.0348 22.0019" stroke="#141B34" stroke-width="1.5"/>
</svg>
