<svg width="24" height="24" viewBox="0 0 24 24" fill="none" xmlns="http://www.w3.org/2000/svg">
<path fill-rule="evenodd" clip-rule="evenodd" d="M17 13.25C15.7574 13.25 14.75 14.2574 14.75 15.5V16.25H13.25V22.75H20.75V16.25H19.25V15.5C19.25 14.2574 18.2426 13.25 17 13.25ZM17.75 15.5V16.25H16.25V15.5C16.25 15.0858 16.5858 14.75 17 14.75C17.4142 14.75 17.75 15.0858 17.75 15.5Z" fill="#141B34"/>
<path d="M6.74999 3.75V9.6343C6.6957 9.67759 6.63517 9.72627 6.56941 9.77981C6.28363 10.0124 5.89591 10.3391 5.49046 10.7138C5.08673 11.0868 4.65532 11.5168 4.28741 11.9559C3.93012 12.3824 3.58576 12.8719 3.41534 13.3624C3.11239 14.2344 3.26704 15.0386 3.54778 15.7201C3.76332 16.2433 4.08233 16.7547 4.35072 17.185C4.41532 17.2885 4.47705 17.3875 4.53363 17.4807C4.81671 17.9469 5.43711 18.7185 5.94709 19.3322C6.20996 19.6485 6.45673 19.9385 6.63765 20.1492L6.75013 20.2799V22.75H11.75V14.75H13.325C13.6725 13.0383 15.1858 11.75 17 11.75C17.7082 11.75 18.3706 11.9463 18.9357 12.2876C18.7981 11.9794 18.6084 11.6901 18.3531 11.4332C16.319 9.38616 13.6139 8.81064 11.75 8.74751V3.75C11.75 2.36929 10.6307 1.25 9.24999 1.25C7.86928 1.25 6.74999 2.36929 6.74999 3.75Z" fill="#141B34"/>
</svg>
