<svg width="24" height="24" viewBox="0 0 24 24" fill="none" xmlns="http://www.w3.org/2000/svg">
<path opacity="0.4" d="M12.25 7.49976C12.25 6.25712 13.2574 5.24976 14.5 5.24976C15.7426 5.24976 16.75 6.25712 16.75 7.49976V11.3523L17.9388 11.5613L17.9388 11.5613C18.6526 11.6792 19.2277 11.7742 19.6874 11.8841C20.1589 11.9969 20.5692 12.1384 20.9335 12.3787C21.9564 13.0536 22.75 14.1188 22.75 15.6618C22.75 16.586 22.5465 17.2551 22.1536 18.5476C21.8863 19.4312 21.5754 20.458 21.278 20.935C20.7881 21.7206 20.0548 22.3104 19.1917 22.5837C18.6649 22.7505 18.0814 22.7502 17.2499 22.7499H17.2498L16.1784 22.7499H16.1783C15.0676 22.7505 14.2826 22.751 13.5723 22.4285C13.446 22.3712 13.3229 22.3066 13.2034 22.2352C12.5397 21.8383 12.0579 21.1846 11.3554 20.2316L8.69427 16.6247C8.10532 15.8265 8.10174 14.7024 8.68467 13.9C9.40932 12.9025 10.7915 12.7392 11.7028 13.5911L12.25 14.0819V7.49976Z" fill="#141B34"/>
<path d="M14.0261 1.24976C15.8081 1.24973 17.2444 1.24971 18.3741 1.40083C19.547 1.55772 20.5345 1.89337 21.3188 2.67373C22.1031 3.45409 22.4405 4.43665 22.5982 5.60361C22.75 6.72761 22.75 8.15673 22.75 9.92978V10.0009C22.75 10.5379 22.3125 10.9732 21.7727 10.9732C21.233 10.9732 20.7955 10.5379 20.7955 10.0009C20.7955 8.13993 20.7934 6.84202 20.6611 5.86273C20.5325 4.91142 20.2974 4.40765 19.9367 4.04884C19.5761 3.69002 19.0698 3.45608 18.1137 3.32818C17.1294 3.19652 15.8249 3.19445 13.9545 3.19445H10.0455C8.17507 3.19445 6.87058 3.19652 5.88634 3.32818C4.93021 3.45608 4.42389 3.69002 4.06326 4.04884C3.70263 4.40765 3.4675 4.91142 3.33895 5.86273C3.20662 6.84202 3.20455 8.13993 3.20455 10.0009V11.9456C3.20455 12.865 3.20508 13.5059 3.23948 14.0075C3.27328 14.5004 3.33648 14.7874 3.42772 15.0066C3.72528 15.7214 4.29603 16.2892 5.01441 16.5853C5.38829 16.7394 5.89873 16.7956 7.12123 16.8051C7.66095 16.8093 8.09508 17.248 8.09088 17.785C8.08668 18.322 7.64576 18.7539 7.10604 18.7497C5.93651 18.7407 5.04583 18.7032 4.26643 18.382C3.06914 17.8885 2.11789 16.9421 1.62195 15.7508C1.41563 15.2552 1.33005 14.7318 1.28946 14.1399C1.24999 13.5643 1.24999 12.857 1.25 11.9802V11.9801V9.92975V9.92973C1.24997 8.15671 1.24995 6.7276 1.40183 5.60361C1.55952 4.43665 1.89687 3.45409 2.68118 2.67373C3.4655 1.89337 4.45303 1.55772 5.6259 1.40083C6.75558 1.24971 8.19193 1.24973 9.97393 1.24976H9.97395H14.026H14.0261Z" fill="#141B34"/>
</svg>
