<svg width="24" height="24" viewBox="0 0 24 24" fill="none" xmlns="http://www.w3.org/2000/svg">
<path d="M9.03628 14.0113L6.90539 12.2081C6.15122 11.5016 5.01148 11.6188 4.39098 12.4664C3.87472 13.1718 3.86985 13.9063 4.39098 14.6073L8.9738 21.4569C8.99242 21.4847 9.02373 21.5014 9.05722 21.5013L17.136 21.4767C18.7126 21.3353 19.8573 20.3402 19.9977 18.6272V13.2096C19.9977 12.7129 19.943 12.2098 19.7283 11.762C19.2408 10.7448 18.4315 10.0926 17.1558 9.98459H12.5302V4.36155C12.4951 3.39794 11.8183 2.57211 10.8612 2.49854C9.91286 2.49854 9.03628 3.21513 9.03628 4.23735V14.0113Z" stroke="#141B34" stroke-width="1.5"/>
</svg>
