<svg width="24" height="24" viewBox="0 0 24 24" fill="none" xmlns="http://www.w3.org/2000/svg">
<path d="M13.7268 12.5079L13.7268 10.6046C13.7268 10.431 13.699 10.1498 13.6461 9.99489M13.6461 9.99489C13.4491 9.4177 12.961 9.0022 12.336 9.0022H10.6257M13.6461 9.99489L15.4292 9.99489C16.0543 9.99489 16.547 10.4266 16.744 11.0037M16.8266 13.1926V11.6267C16.8266 11.453 16.797 11.1586 16.744 11.0037M16.744 11.0037H18.4574C19.4458 11.0898 19.9289 11.7788 19.9289 12.5861V19.0259C19.9289 20.6673 18.6252 21.8854 17.0579 21.998L8.03183 21.998L4.43578 16.4497C3.09433 14.1769 4.54331 12.7004 7.38228 10.1377M10.6257 9.0022V11.9935M10.6257 9.0022V3.74772C10.6257 3.47539 10.5928 3.22939 10.5253 3.00438C10.2297 2.01956 8.92764 1.692 8.12504 2.3344C7.78445 2.60701 7.54246 2.95977 7.54246 3.34505L7.54246 14.5092" stroke="#141B34" stroke-width="1.5"/>
</svg>
