<svg width="24" height="24" viewBox="0 0 24 24" fill="none" xmlns="http://www.w3.org/2000/svg">
<path opacity="0.4" d="M6.2305 10.723C6.73068 10.2601 7.20642 9.86839 7.49999 9.6343V3.75C7.49999 2.36929 8.61928 1.25 9.99999 1.25C11.3807 1.25 12.5 2.36929 12.5 3.75V8.74751C14.3639 8.81064 17.069 9.38616 19.1031 11.4332C20.039 12.3751 20.0944 13.7529 19.9237 14.8931C19.7475 16.0699 19.2971 17.2359 18.9249 18.0131C18.8173 18.2378 18.3423 19.1093 18.2225 19.3235C18.0061 19.7563 17.8919 20.1001 17.8919 20.382V20.382C17.8919 20.6473 17.8919 20.918 17.8748 21.1214C17.8563 21.3409 17.814 21.5809 17.6897 21.8165C17.5252 22.1284 17.2703 22.3833 16.9583 22.5479C16.7227 22.6721 16.4828 22.7145 16.2633 22.7329C16.0598 22.75 15.8162 22.75 15.5509 22.75H9.24523C8.28144 22.75 7.50013 21.9687 7.50013 21.0049C7.50013 20.919 7.45361 20.7219 7.28784 20.395C7.1321 20.088 6.91113 19.7424 6.65946 19.3828C6.43559 19.063 6.19944 18.7488 5.97727 18.4532L5.97721 18.4531C5.74315 18.1414 5.24831 17.428 5.10072 17.185C4.83233 16.7547 4.51332 16.2433 4.29778 15.7201C4.01704 15.0386 3.86239 14.2344 4.16534 13.3624C4.33511 12.8738 4.67741 12.3863 5.03287 11.9613C5.39883 11.5239 5.8281 11.0953 6.2305 10.723Z" fill="#141B34"/>
</svg>
