<svg width="24" height="24" viewBox="0 0 24 24" fill="none" xmlns="http://www.w3.org/2000/svg">
<path fill-rule="evenodd" clip-rule="evenodd" d="M13.9378 6.31786L14.6998 7.07978C15.2427 6.93729 15.8257 7.14551 16.1995 7.51934L17.961 9.28083C18.5245 9.84433 18.7515 10.5966 18.8583 11.2453C18.9118 11.5701 18.9397 11.9052 18.957 12.2147L19.2556 12.1206C19.6507 11.9962 20.0718 12.2155 20.1963 12.6106C20.3208 13.0057 20.1014 13.4268 19.7064 13.5513L19.3909 13.6507L20.0536 14.9371C20.2664 15.3503 20.4535 15.7134 20.5745 16.0295C20.7049 16.3703 20.7882 16.7285 20.7317 17.1258C20.6747 17.5262 20.493 17.8441 20.2685 18.1293L16.0038 22.394C15.7187 22.6185 15.4007 22.8002 15.0003 22.8572C14.603 22.9137 14.2449 22.8303 13.904 22.7C13.5879 22.579 13.2248 22.3919 12.8116 22.1791L11.5252 21.5164L11.4258 21.8318C11.3013 22.2269 10.8802 22.4463 10.4851 22.3218C10.09 22.1973 9.87067 21.7761 9.99515 21.3811L10.0892 21.0825C9.77969 21.0652 9.44461 21.0373 9.11979 20.9838C8.47108 20.877 7.71884 20.65 7.15534 20.0865L5.39385 18.325C5.01984 17.951 4.81161 17.3676 4.95449 16.8245L4.19286 16.0628C3.86198 15.732 3.99532 15.1255 4.30296 14.8178L5.14046 13.9803C5.4481 13.6727 6.0546 13.5393 6.38548 13.8702L6.81025 14.295L12.17 8.93525L11.7452 8.51048C11.4143 8.1796 11.5477 7.5731 11.8553 7.26546L12.6928 6.42796C13.0005 6.12032 13.607 5.98698 13.9378 6.31786ZM14.4396 21.2992L12.5621 20.3583C12.3792 20.2666 12.3397 20.0227 12.4844 19.878L17.752 14.6104C17.8967 14.4657 18.1407 14.5051 18.2323 14.6881L19.1732 16.5656C19.2273 16.6956 19.2864 17.0048 19.0897 17.2015L15.0755 21.2157C14.8928 21.3984 14.5755 21.3475 14.4396 21.2992ZM17.4173 11.5224C17.792 11.3458 17.9526 10.8989 17.776 10.5242C17.5994 10.1495 17.1525 9.98891 16.7779 10.1655L16.1805 10.447C15.8058 10.6236 15.6452 11.0705 15.8218 11.4451C15.9983 11.8198 16.4452 11.9804 16.8199 11.8039L17.4173 11.5224ZM13.2087 13.6113C13.5134 13.3307 13.5329 12.8562 13.2523 12.5515C12.9717 12.2468 12.4973 12.2273 12.1926 12.5079L10.4922 14.0737C10.1875 14.3543 10.1679 14.8288 10.4485 15.1335C10.7291 15.4382 11.2036 15.4577 11.5083 15.1771L13.2087 13.6113ZM9.56658 19.1171C9.83811 18.8043 9.80465 18.3306 9.49185 18.0591C9.17905 17.7875 8.70535 17.821 8.43382 18.1338L8.02543 18.6043C7.7539 18.9171 7.78736 19.3908 8.10016 19.6623C8.41297 19.9338 8.88666 19.9004 9.15819 19.5876L9.56658 19.1171Z" fill="#141B34"/>
<path fill-rule="evenodd" clip-rule="evenodd" d="M2 2.125C2 1.57272 2.44772 1.125 3 1.125H21C21.5523 1.125 22 1.57272 22 2.125C22 2.67728 21.5523 3.125 21 3.125H3C2.44772 3.125 2 2.67728 2 2.125Z" fill="#141B34"/>
</svg>
