<svg width="24" height="24" viewBox="0 0 24 24" fill="none" xmlns="http://www.w3.org/2000/svg">
<path opacity="0.4" d="M15.9196 7.6804L17.681 9.44189C18.4803 10.2411 18.4449 11.7092 18.4929 12.69L11.1842 19.9987C10.2034 19.9507 8.73527 19.9861 7.93604 19.1869L6.17455 17.4254C5.885 17.1358 5.82623 16.7072 6.03778 16.428L7.34708 14.6999L13.1941 8.85294L14.9222 7.54364C15.2014 7.33208 15.63 7.39086 15.9196 7.6804Z" fill="#141B34"/>
<path d="M3.25098 1.75293H21.251" stroke="#141B34" stroke-width="1.5" stroke-linecap="round" stroke-linejoin="round"/>
<path d="M10.9222 21.2091L10.9799 20.1042M10.9799 20.1042C11.2771 20.1811 11.7958 20.3179 12.0632 20.4597C14.4006 21.6995 14.9397 22.1446 15.8753 21.3601L19.8238 17.46C20.6196 16.5344 20.1798 15.9912 18.9635 13.6441C18.8244 13.3754 18.658 12.8907 18.5842 12.5931M10.9799 20.1042C9.85082 19.812 8.82737 19.9018 8.13423 19.3704C8.02086 19.2835 6.92335 18.1481 6.11704 17.3342C5.51121 16.7227 6.12191 16.1565 6.65175 15.539C6.98845 15.1466 7.21426 14.8565 7.57847 14.4894M10.9799 20.1042L18.5842 12.5931M18.5842 12.5931C18.3038 11.4626 18.4399 10.4071 17.9153 9.70925C17.8295 9.59512 16.7571 8.43321 15.8981 7.67309C15.3219 7.16322 14.8143 7.56735 14.3385 7.96388C13.9173 8.31498 13.452 8.63031 13.0578 9.01137C11.0191 10.9819 9.59708 12.4546 7.57847 14.4894M18.5842 12.5931L19.701 12.4563M7.57847 14.4894L6.75028 13.6193C6.37804 13.1359 5.72061 13.2409 5.33475 13.6366L4.56376 14.4271C4.18629 14.8141 4.18555 15.4307 4.56209 15.8186L5.97835 17.2778M8.24087 19.4457L9.2038 18.2147M11.21 14.2516L12.9343 12.6381M16.7217 10.7152L18.1351 10.1054M12.9102 9.11323L12.0712 8.23441C11.6896 7.83467 11.7054 7.20155 12.1065 6.82132L12.908 6.06159C13.3003 5.68964 13.9178 5.69674 14.3015 6.07761L15.7447 7.51019" stroke="#141B34" stroke-width="1.5" stroke-linecap="round" stroke-linejoin="round"/>
</svg>
