<svg width="24" height="24" viewBox="0 0 24 24" fill="none" xmlns="http://www.w3.org/2000/svg">
<path fill-rule="evenodd" clip-rule="evenodd" d="M7.55468 18.0429C8.01421 18.3493 8.13839 18.9701 7.83203 19.4297L5.83203 22.4297C5.52568 22.8892 4.90481 23.0134 4.44528 22.707C3.98576 22.4007 3.86158 21.7798 4.16793 21.3203L6.16793 18.3203C6.47429 17.8607 7.09516 17.7366 7.55468 18.0429ZM16.4453 18.0429C16.9048 17.7366 17.5257 17.8607 17.832 18.3203L19.832 21.3203C20.1384 21.7798 20.0142 22.4007 19.5547 22.707C19.0952 23.0134 18.4743 22.8892 18.1679 22.4297L16.1679 19.4297C15.8616 18.9701 15.9858 18.3493 16.4453 18.0429Z" fill="#141B34"/>
<path fill-rule="evenodd" clip-rule="evenodd" d="M11.9289 1.12495H12.0711H12.0712C13.8439 1.12492 15.2729 1.1249 16.3967 1.27623C17.5635 1.43333 18.546 1.76944 19.3262 2.55088C20.1065 3.33231 20.4421 4.31622 20.599 5.48478C20.75 6.61032 20.75 8.04141 20.75 9.81689V10.933C20.75 12.5813 20.75 13.9328 20.6292 15.0185C20.6221 15.0816 20.5635 15.1249 20.5 15.1249H18.75C18.3358 15.1249 18 15.4607 18 15.8749C18 16.2892 18.3358 16.6249 18.75 16.6249H19.4483C19.8434 16.6249 20.041 16.6249 20.1276 16.7749C20.2142 16.9249 20.1243 17.0807 19.9445 17.3922C19.7777 17.6813 19.5745 17.9504 19.3262 18.199C18.546 18.9805 17.5635 19.3166 16.3967 19.4737C15.2729 19.625 13.8439 19.625 12.0712 19.6249H11.9289C10.1561 19.625 8.72713 19.625 7.60329 19.4737C6.43648 19.3166 5.45405 18.9805 4.67379 18.199C4.42553 17.9504 4.22229 17.6813 4.05549 17.3922C3.87572 17.0807 3.78583 16.9249 3.87244 16.7749C3.95905 16.6249 4.1566 16.6249 4.55171 16.6249H5.25C5.66421 16.6249 6 16.2892 6 15.8749C6 15.4607 5.66421 15.1249 5.25 15.1249H3.5C3.43646 15.1249 3.37788 15.0816 3.37085 15.0185C3.24996 13.9328 3.24998 12.5813 3.25 10.9331V10.9331V9.81685V9.81683C3.24998 8.04139 3.24996 6.61031 3.40105 5.48478C3.55792 4.31622 3.89353 3.33231 4.67379 2.55088C5.45405 1.76944 6.43648 1.43333 7.60329 1.27623C8.72712 1.1249 10.1561 1.12492 11.9288 1.12495H11.9289ZM5.8698 5.62495H18.13C18.3819 5.62495 18.5078 5.62495 18.5938 5.7039C18.6799 5.78284 18.6903 5.90404 18.7112 6.14644C18.7922 7.08617 18.8054 8.3322 18.8054 9.88811L18.8053 10.8958C18.8053 11.1296 18.8053 11.2465 18.7369 11.3296C18.6685 11.4127 18.5552 11.4348 18.3286 11.4792C18.0711 11.5296 17.785 11.5825 17.4743 11.6355C16.0344 11.881 14.0786 12.1248 12.0003 12.1248C9.92209 12.1248 7.96634 11.881 6.52637 11.6355C6.2153 11.5825 5.92889 11.5295 5.67117 11.479C5.44456 11.4347 5.33125 11.4125 5.26287 11.3294C5.19449 11.2464 5.19448 11.1295 5.19445 10.8956L5.19434 9.88811C5.19434 8.3322 5.20757 7.08617 5.28856 6.14644C5.30945 5.90404 5.3199 5.78284 5.40594 5.7039C5.49199 5.62495 5.61793 5.62495 5.8698 5.62495Z" fill="#141B34"/>
</svg>
