<svg width="24" height="24" viewBox="0 0 24 24" fill="none" xmlns="http://www.w3.org/2000/svg">
<path fill-rule="evenodd" clip-rule="evenodd" d="M3.25 9.87495C3.25 5.04245 7.16751 1.12495 12 1.12495C16.8325 1.12495 20.75 5.04245 20.75 9.87495C20.75 12.266 19.7895 14.9199 18.2588 16.9792C16.7337 19.031 14.5364 20.6249 12 20.6249C9.46356 20.6249 7.26632 19.031 5.74121 16.9792C4.21053 14.9199 3.25 12.266 3.25 9.87495ZM9.42912 18.3853C10.2454 18.861 11.1132 19.1249 12 19.1249C12.8869 19.1249 13.7546 18.861 14.5709 18.3853C14.8382 18.2296 14.9719 18.1517 14.9833 17.9938C14.9947 17.8359 14.8771 17.7424 14.6419 17.5552C13.905 16.969 12.9889 16.6249 12 16.6249C11.0111 16.6249 10.095 16.969 9.35815 17.5552C9.12293 17.7424 9.00532 17.8359 9.01675 17.9938C9.02817 18.1517 9.16182 18.2296 9.42912 18.3853ZM16.1794 6.99257C15.1554 5.7214 13.5479 5.125 11.9999 5.125C10.4519 5.125 8.84446 5.72139 7.82052 6.99257C7.32935 7.60234 7.0498 8.34628 7.4143 9.06578C7.73107 9.69106 8.41506 10.016 9.03771 10.1984C9.96144 10.4691 10.9589 10.625 11.9999 10.625C13.041 10.625 14.0384 10.4691 14.9622 10.1984C15.5848 10.016 16.2688 9.69106 16.5856 9.06578C16.9501 8.34627 16.6705 7.60233 16.1794 6.99257Z" fill="#141B34"/>
<path fill-rule="evenodd" clip-rule="evenodd" d="M5.55468 18.0429C6.01421 18.3492 6.13839 18.9701 5.83203 19.4296L3.83203 22.4296C3.52568 22.8892 2.90481 23.0133 2.44528 22.707C1.98576 22.4006 1.86158 21.7798 2.16793 21.3202L4.16793 18.3202C4.47429 17.8607 5.09516 17.7365 5.55468 18.0429ZM18.4453 18.0429C18.9048 17.7365 19.5257 17.8607 19.832 18.3202L21.832 21.3202C22.1384 21.7798 22.0142 22.4006 21.5547 22.707C21.0952 23.0133 20.4743 22.8892 20.1679 22.4296L18.1679 19.4296C17.8616 18.9701 17.9858 18.3492 18.4453 18.0429Z" fill="#141B34"/>
</svg>
