<svg width="24" height="24" viewBox="0 0 24 24" fill="none" xmlns="http://www.w3.org/2000/svg">
<path d="M22.75 2C22.75 1.58579 22.4142 1.25 22 1.25H14C13.5858 1.25 13.25 1.58579 13.25 2V22C13.25 22.4142 13.5858 22.75 14 22.75H22C22.4142 22.75 22.75 22.4142 22.75 22V2Z" fill="#141B34"/>
<path fill-rule="evenodd" clip-rule="evenodd" d="M3.13889 3.20455H9.75V1.25H2.19444C1.67284 1.25 1.25 1.68754 1.25 2.22727V21.7727C1.25 22.3125 1.67284 22.75 2.19444 22.75H9.75V20.7955H3.13889V3.20455Z" fill="#141B34"/>
<path fill-rule="evenodd" clip-rule="evenodd" d="M7.79304 8.79297L4.58594 12.0001L7.79304 15.2072L9.20726 13.793L8.41436 13.0001H14.0002V11.0001H8.41436L9.20726 10.2072L7.79304 8.79297Z" fill="#141B34"/>
</svg>
