<svg width="24" height="24" viewBox="0 0 24 24" fill="none" xmlns="http://www.w3.org/2000/svg">
<path opacity="0.4" d="M15.3221 10.6354C18.9163 9.20818 22.7499 11.9233 22.7499 15.8035C22.7499 17.9692 21.0265 19.7517 18.8678 19.7517H3.31943C2.16176 19.7517 1.24988 18.7978 1.24988 17.6543C1.24988 16.7987 1.76464 16.019 2.56437 15.7015L15.3221 10.6354Z" fill="#141B34"/>
<path fill-rule="evenodd" clip-rule="evenodd" d="M16.7499 14.9998C16.7499 14.3094 17.3095 13.7498 17.9999 13.7498H18.0088C18.6992 13.7498 19.2588 14.3094 19.2588 14.9998C19.2588 15.6901 18.6992 16.2498 18.0088 16.2498H17.9999C17.3095 16.2498 16.7499 15.6901 16.7499 14.9998Z" fill="#141B34"/>
<path fill-rule="evenodd" clip-rule="evenodd" d="M22.9703 3.24253C23.1042 2.70673 22.7785 2.1638 22.2427 2.02985C21.7069 1.8959 21.164 2.22166 21.03 2.75746C20.8802 3.35686 20.6549 3.6011 20.4326 3.73531C20.1648 3.89696 19.7342 3.99999 19.0001 3.99999C18.5697 3.99999 18.1876 4.27542 18.0515 4.68376L16.1533 10.3784C16.8741 10.2169 17.5921 10.2117 18.2745 10.3391L19.7314 5.96855C20.3429 5.91133 20.9396 5.76545 21.4663 5.44749C22.2473 4.97597 22.7259 4.22022 22.9703 3.24253ZM17.0001 19.7517H18.8678C18.9121 19.7517 18.9562 19.7509 19.0001 19.7495V21C19.0001 21.5523 18.5524 22 18.0001 22C17.4478 22 17.0001 21.5523 17.0001 21V19.7517ZM4.5062 19.7517H6.74227L5.89452 21.4472C5.64753 21.9412 5.04686 22.1414 4.55288 21.8944C4.0589 21.6474 3.85868 21.0467 4.10567 20.5528L4.5062 19.7517ZM6.73565 14.0451L4.87389 14.7844L3.27912 10H1.99988C1.44759 10 0.999878 9.55231 0.999878 9.00003C0.999878 8.44774 1.44759 8.00003 1.99988 8.00003H3.97682C3.99232 7.99966 4.00779 7.99967 4.02322 8.00003H4.99988C5.55216 8.00003 5.99988 8.44774 5.99988 9.00003C5.99988 9.42367 5.73645 9.78578 5.36446 9.93149L6.73565 14.0451Z" fill="#141B34"/>
</svg>
