<svg width="24" height="24" viewBox="0 0 24 24" fill="none" xmlns="http://www.w3.org/2000/svg">
<path fill-rule="evenodd" clip-rule="evenodd" d="M17.9659 2.52526C18.1886 2.29819 18.2439 1.95531 18.1038 1.66973C17.9638 1.38415 17.6588 1.218 17.3429 1.25516C14.9566 1.5359 11.0092 2.31514 8.11912 4.53436C6.79737 5.51785 5.76755 6.84195 5.1398 8.36526L5.08679 8.49779L4.37701 7.81701C3.58978 7.06161 2.75157 6.25598 2.52551 6.034C2.2985 5.81109 1.95556 5.75566 1.66989 5.8957C1.38422 6.03575 1.21799 6.34079 1.25516 6.65676C1.5391 9.07019 2.33332 13.0853 4.61566 15.9849C5.58904 17.2583 6.88322 18.2503 8.36587 18.8593L8.49813 18.9122L7.78773 19.6525C7.02198 20.4501 6.21612 21.2884 6.03329 21.4747C5.8122 21.6999 5.75579 22.0395 5.89218 22.3241C6.02857 22.6088 6.32856 22.7775 6.64265 22.7464C9.36648 22.4759 12.0132 21.6844 14.4384 20.4151C16.417 19.3815 17.9773 17.6953 18.8546 15.6426L18.8613 15.6264L18.9113 15.5013L19.652 16.2119C20.45 16.9779 21.2883 17.7836 21.4744 17.9665C21.6995 18.1877 22.0391 18.2443 22.3238 18.108C22.6086 17.9717 22.7775 17.6717 22.7464 17.3576C22.4748 14.6151 21.6737 11.9509 20.3878 9.51342C19.3538 7.55604 17.6786 6.01342 15.6427 5.14396L15.6266 5.1373L15.5012 5.08715L16.1823 4.37725C16.9378 3.59004 17.7439 2.75152 17.9659 2.52526ZM12 8.25C9.92893 8.25 8.25 9.92893 8.25 12C8.25 14.0711 9.92893 15.75 12 15.75C14.0711 15.75 15.75 14.0711 15.75 12C15.75 9.92893 14.0711 8.25 12 8.25Z" fill="#141B34"/>
</svg>
