<svg width="24" height="24" viewBox="0 0 24 24" fill="none" xmlns="http://www.w3.org/2000/svg">
<path opacity="0.4" fill-rule="evenodd" clip-rule="evenodd" d="M18.6278 14.1904L18.1649 15.3477C17.3555 17.2415 15.916 18.797 14.0905 19.7505C12.5669 20.548 10.9527 21.1499 9.28631 21.5449C8.18044 21.8071 7.6275 21.9382 7.44193 21.6135C7.25636 21.2889 7.66459 20.8636 8.48103 20.0131C9.18483 19.2798 9.80899 18.6288 9.80899 18.6288L8.6508 18.1654C7.28942 17.6062 6.10128 16.6949 5.20823 15.5251C3.77912 13.7114 2.95656 11.4067 2.48315 9.36447C2.21794 8.22043 2.08534 7.64842 2.40951 7.46411C2.73368 7.27981 3.17089 7.69923 4.04532 8.53809C4.7549 9.21881 5.37033 9.80826 5.37033 9.80826L5.8332 8.65092C6.4099 7.2515 7.35639 6.0353 8.57131 5.13258C10.3703 3.7496 12.6304 2.94764 14.6369 2.48267C15.7797 2.21785 16.3511 2.08543 16.5354 2.40963C16.7196 2.73383 16.3007 3.17043 15.4628 4.04364C14.7811 4.75407 14.1903 5.37062 14.1903 5.37062L15.3481 5.83357C17.2258 6.6355 18.7709 8.05829 19.7246 9.86362C20.535 11.3999 21.1458 13.0294 21.545 14.7123C21.8075 15.8192 21.9388 16.3727 21.6142 16.5583C21.2896 16.7439 20.8638 16.3353 20.0121 15.518C19.2788 14.8143 18.6278 14.1904 18.6278 14.1904ZM12 14.9999C13.6568 14.9999 15 13.6568 15 11.9999C15 10.3431 13.6568 8.99991 12 8.99991C10.3431 8.99991 8.99996 10.3431 8.99996 11.9999C8.99996 13.6568 10.3431 14.9999 12 14.9999Z" fill="#141B34"/>
<path d="M18.1649 15.3478L18.6279 14.1905C18.6279 14.1905 19.2789 14.8144 20.0122 15.5181C20.8638 16.3354 21.2896 16.744 21.6142 16.5584C21.9388 16.3728 21.8076 15.8193 21.545 14.7124C21.1458 13.0294 20.535 11.4 19.7246 9.86371C18.7709 8.05838 17.2258 6.63559 15.3481 5.83366L14.1904 5.37071C14.1904 5.37071 14.7811 4.75416 15.4628 4.04374C16.3007 3.17052 16.7197 2.73392 16.5354 2.40972C16.3511 2.08552 15.7797 2.21794 14.6369 2.48276C12.6305 2.94773 10.3703 3.74969 8.57135 5.13267C7.35643 6.03539 6.40993 7.25159 5.83324 8.65101L5.37037 9.80835C5.37037 9.80835 4.75494 9.2189 4.04536 8.53818C3.17093 7.69932 2.73371 7.2799 2.40955 7.4642C2.08538 7.64851 2.21798 8.22053 2.48318 9.36456C2.9566 11.4068 3.77916 13.7115 5.20826 15.5252C6.10132 16.695 7.28946 17.6063 8.65084 18.1655L9.80903 18.6289C9.80903 18.6289 9.18487 19.2799 8.48107 20.0131C7.66462 20.8637 7.2564 21.289 7.44197 21.6136C7.62754 21.9383 8.18048 21.8072 9.28635 21.545C10.9527 21.15 12.5669 20.548 14.0906 19.7506C15.9161 18.7971 17.3556 17.2416 18.1649 15.3478Z" stroke="#141B34" stroke-width="1.5" stroke-linejoin="round"/>
<circle cx="12" cy="12" r="3" stroke="#141B34" stroke-width="1.5"/>
</svg>
