<svg width="24" height="24" viewBox="0 0 24 24" fill="none" xmlns="http://www.w3.org/2000/svg">
<path d="M21.6332 12.0933C21.8865 11.6048 21.6778 11.1507 21.5356 10.9095C21.3949 10.6709 21.1723 10.3962 20.9435 10.1139L19.9428 8.87867C19.7944 8.69547 19.7202 8.60387 19.615 8.58228C19.5099 8.56068 19.4056 8.61561 19.197 8.72549L18.3274 9.18352L18.3034 9.19411C17.4552 9.5676 16.5712 9.81466 15.6642 9.73507C14.7356 9.65359 13.871 9.23804 13.058 8.44844C12.469 7.87631 12.0368 7.7496 11.7015 7.74999C11.3208 7.75044 10.9144 7.91045 10.3537 8.20542C10.2421 8.26413 10.1251 8.32839 10.0026 8.39567C8.98824 8.95285 7.59843 9.71625 5.8055 9.23173L5.77787 9.22427L4.62437 8.81598C4.43129 8.74764 4.33475 8.71347 4.24304 8.73933C4.15134 8.76519 4.08688 8.84476 3.95795 9.00391L3.05879 10.1139C2.82996 10.3962 2.60733 10.6709 2.46665 10.9095C2.32448 11.1507 2.11571 11.6048 2.36905 12.0933C2.61322 12.5642 3.08736 12.6733 3.3611 12.7114C3.63998 12.7501 3.99986 12.7501 4.37841 12.75H19.6238C20.0024 12.7501 20.3623 12.7501 20.6411 12.7114C20.9149 12.6733 21.389 12.5642 21.6332 12.0933Z" fill="#141B34"/>
<path d="M5.76114 6.77802C5.51775 7.07847 5.39604 7.2287 5.43822 7.37824C5.48039 7.52778 5.66264 7.59229 6.02716 7.72131L6.22308 7.79066C7.38927 8.09569 8.23503 7.64059 9.27591 7.08052C9.39934 7.0141 9.52552 6.94621 9.6553 6.87793C10.2287 6.57627 10.9207 6.2509 11.6997 6.24999C12.5241 6.24903 13.313 6.60501 14.1031 7.37242C14.7107 7.96248 15.2646 8.19424 15.7953 8.24081C16.3416 8.28876 16.9503 8.1482 17.6754 7.83163L18.0235 7.64826C18.3227 7.49064 18.4723 7.41183 18.5009 7.27287C18.5294 7.13391 18.423 7.00251 18.2101 6.73972L17.0656 5.32693C16.0597 4.08526 15.2524 3.08867 14.5173 2.41047C13.7561 1.70813 12.971 1.25 12.0011 1.25C11.0312 1.25 10.2461 1.70813 9.48489 2.41047C8.74982 3.08868 7.94255 4.08522 6.93669 5.32691L5.76114 6.77802Z" fill="#141B34"/>
<path d="M20.2087 21.196C20.2521 20.8733 20.252 20.4765 20.252 20.0438V14.5922C20.252 14.3093 20.252 14.1679 20.1641 14.0801C20.0762 13.9922 19.9348 13.9922 19.652 13.9922L4.35196 13.9922C4.06912 13.9922 3.9277 13.9922 3.83983 14.0801C3.75196 14.1679 3.75196 14.3094 3.75196 14.5922L3.75196 20.0436C3.75191 20.4764 3.75186 20.8732 3.79526 21.196C3.84305 21.5515 3.9555 21.9273 4.26452 22.2363C4.57355 22.5453 4.94927 22.6577 5.30475 22.7055C5.62756 22.7489 6.02439 22.7489 6.4572 22.7488H8.85098C9.03954 22.7488 9.13382 22.7488 9.1924 22.6903C9.25098 22.6317 9.25098 22.5374 9.25098 22.3488V17.999C9.25098 16.4802 10.4822 15.249 12.001 15.249C13.5198 15.249 14.751 16.4802 14.751 17.999V22.3488C14.751 22.5374 14.751 22.6317 14.8096 22.6903C14.8681 22.7488 14.9624 22.7488 15.151 22.7488H17.5467C17.9795 22.7489 18.3764 22.7489 18.6992 22.7055C19.0546 22.6577 19.4304 22.5453 19.7394 22.2363C20.0484 21.9273 20.1609 21.5515 20.2087 21.196Z" fill="#141B34"/>
<path d="M12.851 22.7488C13.0395 22.7488 13.1338 22.7488 13.1924 22.6903C13.251 22.6317 13.251 22.5374 13.251 22.3488V17.999C13.251 17.3087 12.6913 16.749 12.001 16.749C11.3106 16.749 10.751 17.3087 10.751 17.999V22.3488C10.751 22.5374 10.751 22.6317 10.8096 22.6903C10.8681 22.7488 10.9624 22.7488 11.151 22.7488H12.851Z" fill="#141B34"/>
</svg>
