<svg width="24" height="24" viewBox="0 0 24 24" fill="none" xmlns="http://www.w3.org/2000/svg">
<path fill-rule="evenodd" clip-rule="evenodd" d="M12 1.25C6.06294 1.25 1.25 6.06294 1.25 12C1.25 17.9371 6.06294 22.75 12 22.75C17.9371 22.75 22.75 17.9371 22.75 12C22.75 6.06294 17.9371 1.25 12 1.25ZM12 6C9.79086 6 8 7.79086 8 10C8 10.5523 8.44772 11 9 11C9.55229 11 10 10.5523 10 10C10 8.89543 10.8954 8 12 8C13.1046 8 14 8.89543 14 10C14 10.5879 13.5694 11.3122 12.6745 12.1071C11.8205 12.8657 10.7389 13.5149 9.88371 13.966C8.78906 14.5434 8 15.6808 8 17C8 17.5523 8.44772 18 9 18H15C15.5523 18 16 17.5523 16 17C16 16.4477 15.5523 16 15 16H10.4482C10.5546 15.898 10.6781 15.8081 10.8168 15.735C11.731 15.2528 12.9742 14.516 14.0027 13.6024C14.9904 12.725 16 11.4907 16 10C16 7.79086 14.2091 6 12 6Z" fill="#141B34"/>
</svg>
