<svg width="24" height="24" viewBox="0 0 24 24" fill="none" xmlns="http://www.w3.org/2000/svg">
<path d="M10.6984 5.15372V11.9939M10.6984 5.15372C10.6984 4.2985 10.2512 3.47631 9.16143 3.47631C8.31232 3.47631 7.61287 4.06253 7.61287 5.1602V9.98717M10.6984 5.15372L10.7356 3.47631C10.7356 2.62109 11.4163 2.00684 12.2654 2.00684C13.1146 2.00684 13.7825 2.67721 13.7825 3.54332V12.4872M13.8927 9.99976C13.8927 9.99976 15.7864 9.67043 16.4751 10.4654C16.6431 10.6918 16.7501 10.8975 16.8163 11.1001M16.8163 11.1001C17.0049 11.6765 16.8644 12.2285 16.8644 13.1658M16.8163 11.1001C16.7796 11.1094 16.7598 11.1152 16.7598 11.1152M16.8163 11.1001C17.0741 11.0349 18.1631 10.7969 19.0501 11.1756C19.4903 11.3635 19.8552 11.7424 19.94 12.2137C20.1956 13.6335 19.9338 16.9934 19.9794 18.5843C20.0896 22.4276 16.4751 21.9881 16.0749 21.9866C15.6747 21.985 8.17058 21.9866 8.17058 21.9866C3.41654 14.6937 2.20346 14.8669 7.61287 9.98717M7.61287 14.4972V9.98717" stroke="#141B34" stroke-width="1.5"/>
</svg>
