<svg width="24" height="24" viewBox="0 0 24 24" fill="none" xmlns="http://www.w3.org/2000/svg">
<path opacity="0.4" d="M10.8093 10.7362C11.048 10.7362 11.2415 10.5476 11.2415 10.315V3.04661C11.2415 2.33051 11.822 1.75 12.5381 1.75C13.2542 1.75 13.8347 2.33051 13.8347 3.04661V10.315C13.8347 10.5476 14.0282 10.7362 14.2669 10.7362C14.5056 10.7362 14.6991 10.5476 14.6991 10.315V8.34995C14.6991 8.06094 14.6991 7.91643 14.8005 7.82687C14.9019 7.73731 15.0338 7.75371 15.2976 7.78652C15.9803 7.8714 16.7173 8.11913 17.1822 8.68279C17.2321 8.74324 17.257 8.77346 17.2747 8.82264C17.2923 8.87181 17.2923 8.91915 17.2923 9.01384V11.4383C17.2923 11.6709 17.4858 11.8595 17.7245 11.8595C17.9632 11.8595 18.1567 11.6709 18.1567 11.4383V9.68234C18.1567 9.34652 18.1567 9.17861 18.2947 9.09008C18.4327 9.00154 18.5655 9.06242 18.831 9.18418C19.748 9.60474 20.5 10.5209 20.5 11.4999L20.5 14.5118C20.5003 16.3578 20.5005 17.488 20.1639 18.4222C19.5731 20.0615 18.2621 21.3454 16.6027 21.922C15.6574 22.2504 14.513 22.2503 12.6268 22.25C11.565 22.2501 10.6507 22.2501 10.0414 22.1208C8.97624 21.8949 7.99531 21.3799 7.21051 20.6327C6.76124 20.205 6.40024 19.6731 5.81235 18.8071L5.17578 17.8695C4.689 17.1525 4.29344 16.57 4.01761 16.0648C3.73104 15.5399 3.53969 15.0402 3.50651 14.4816C3.48749 14.1616 3.5102 13.8405 3.57406 13.5262C3.68545 12.978 3.94502 12.5095 4.30239 12.029C4.63461 11.5823 5.1469 11.0165 5.70663 10.3983L5.90391 10.2089C6.33776 9.79242 6.55469 9.58417 6.73706 9.6619C6.91943 9.73963 6.91943 10.0403 6.91943 10.6417V14.2465C6.91943 14.4791 7.11294 14.6677 7.35164 14.6677C7.59034 14.6677 7.78384 14.4791 7.78384 14.2465V5.04656C7.78384 4.33046 8.36435 3.74995 9.08045 3.74995C9.79655 3.74995 10.3771 4.33046 10.3771 5.04656V10.315C10.3771 10.5476 10.5706 10.7362 10.8093 10.7362Z" fill="#141B34"/>
</svg>
