<svg width="24" height="24" viewBox="0 0 24 24" fill="none" xmlns="http://www.w3.org/2000/svg">
<path fill-rule="evenodd" clip-rule="evenodd" d="M2.25 3C2.25 2.58579 2.58579 2.25 3 2.25H21C21.4142 2.25 21.75 2.58579 21.75 3V21C21.75 21.4142 21.4142 21.75 21 21.75H3C2.58579 21.75 2.25 21.4142 2.25 21V3ZM14.25 13.2C14.25 12.123 15.123 11.25 16.2 11.25H18.75V12.75H16.2C15.9515 12.75 15.75 12.9515 15.75 13.2V13.8C15.75 14.0485 15.9515 14.25 16.2 14.25H16.8C17.877 14.25 18.75 15.123 18.75 16.2V16.8C18.75 17.877 17.877 18.75 16.8 18.75H14.25V17.25H16.8C17.0485 17.25 17.25 17.0485 17.25 16.8V16.2C17.25 15.9515 17.0485 15.75 16.8 15.75H16.2C15.123 15.75 14.25 14.877 14.25 13.8V13.2ZM13.25 11.25H7.75V12.75H9.75V18.75H11.25V12.75H13.25V11.25Z" fill="#141B34"/>
</svg>
