<svg width="25" height="24" viewBox="0 0 25 24" fill="none" xmlns="http://www.w3.org/2000/svg">
<path fill-rule="evenodd" clip-rule="evenodd" d="M1.75 12C1.75 5.92487 6.67487 1 12.75 1C18.8251 1 23.75 5.92487 23.75 12C23.75 18.0751 18.8251 23 12.75 23C6.67487 23 1.75 18.0751 1.75 12ZM5.79816 6.60379C4.63979 8.09394 3.95 9.96642 3.95 12C3.95 16.8601 7.88989 20.8 12.75 20.8C14.7836 20.8 16.6561 20.1102 18.1462 18.9518L5.79816 6.60379ZM7.35379 5.04816L19.7018 17.3962C20.8602 15.9061 21.55 14.0336 21.55 12C21.55 7.13989 17.6101 3.2 12.75 3.2C10.7164 3.2 8.84394 3.88979 7.35379 5.04816Z" fill="#141B34"/>
</svg>
