<svg width="24" height="24" viewBox="0 0 24 24" fill="none" xmlns="http://www.w3.org/2000/svg">
<path opacity="0.4" d="M2.03177 16.9036C2.16293 17.7317 2.84714 18.4159 4.21556 19.7843C5.58398 21.1527 6.26819 21.8369 7.09632 21.9681C7.36377 22.0105 7.63623 22.0105 7.90368 21.9681C8.73181 21.8369 9.41602 21.1527 10.7844 19.7843C12.1529 18.4159 12.8371 17.7317 12.9682 16.9036C13.0106 16.6361 13.0106 16.3637 12.9682 16.0962C12.9156 15.7637 12.7738 15.4545 12.5344 15.1149L8.88502 11.4655C8.54538 11.2261 8.23613 11.0843 7.90368 11.0316C7.63623 10.9893 7.36377 10.9893 7.09632 11.0316C6.26819 11.1628 5.58398 11.847 4.21556 13.2154C2.84714 14.5839 2.16293 15.2681 2.03177 16.0962C1.98941 16.3637 1.98941 16.6361 2.03177 16.9036Z" fill="#141B34"/>
<path d="M9.54297 14.4558L14.456 9.54285" stroke="#141B34" stroke-width="1.5" stroke-linecap="round"/>
<path d="M21 15.9999H19M16 20.9999V18.9999" stroke="#141B34" stroke-width="1.5" stroke-linecap="round" stroke-linejoin="round"/>
<path d="M3 7.99988H5M8 2.99988V4.99988" stroke="#141B34" stroke-width="1.5" stroke-linecap="round" stroke-linejoin="round"/>
<path d="M12.5685 15.1087C13.3082 16.2491 13.1108 17.4181 12.2563 18.2726L9.26109 21.2679C8.28269 22.2463 6.69638 22.2463 5.71798 21.2679L2.73185 18.2817C1.75345 17.3033 1.75345 15.717 2.73185 14.7386L5.72706 11.7434C6.429 11.0414 7.76312 10.6361 8.90958 11.4663M15.1083 12.5689C16.2487 13.3086 17.4177 13.1112 18.2722 12.2567L21.2674 9.2615C22.2458 8.28309 22.2458 6.69678 21.2674 5.71837L18.2813 2.73222C17.3029 1.75381 15.7166 1.75381 14.7382 2.73222L11.743 5.72745C11.041 6.42939 10.6357 7.76352 11.4659 8.90998" stroke="#141B34" stroke-width="1.5" stroke-linecap="round" stroke-linejoin="round"/>
</svg>
