<svg width="24" height="24" viewBox="0 0 24 24" fill="none" xmlns="http://www.w3.org/2000/svg">
<path opacity="0.4" fill-rule="evenodd" clip-rule="evenodd" d="M19.8088 4.19116C18.2206 2.60295 15.6456 2.60295 14.0574 4.19116L11.1912 7.05741C9.60295 8.64563 9.60295 11.2206 11.1912 12.8088C12.7398 14.3574 15.2271 14.3961 16.8219 12.9247C17.2279 12.5503 17.8605 12.5757 18.235 12.9817C18.6095 13.3876 18.584 14.0202 18.1781 14.3947C15.7976 16.5909 12.0875 16.5336 9.77695 14.2231C7.40768 11.8538 7.40768 8.01246 9.77695 5.6432L12.6432 2.77695C15.0125 0.407685 18.8538 0.407685 21.2231 2.77695C23.5923 5.14621 23.5923 8.98754 21.2231 11.3568L20.7587 11.8211C20.3682 12.2117 19.735 12.2117 19.3445 11.8211C18.954 11.4306 18.954 10.7975 19.3445 10.4069L19.8088 9.94258C21.3971 8.35437 21.3971 5.77937 19.8088 4.19116Z" fill="#141B34"/>
<path fill-rule="evenodd" clip-rule="evenodd" d="M8.68501 12.7371C6.40809 15.1129 6.43874 18.8848 8.77695 21.223C11.1462 23.5923 14.9875 23.5923 17.3568 21.223L20.2231 18.3568C22.5923 15.9875 22.5923 12.1462 20.2231 9.77694C17.9125 7.46636 14.2024 7.40914 11.8219 9.60526C11.416 9.97975 11.3905 10.6124 11.765 11.0183C12.1395 11.4243 12.7721 11.4497 13.1781 11.0753C14.7729 9.60392 17.2602 9.64256 18.8088 11.1912C20.3971 12.7794 20.3971 15.3544 18.8088 16.9426L15.9426 19.8088C14.3544 21.397 11.7794 21.397 10.1912 19.8088C8.70006 18.3177 8.60888 15.9568 9.91764 14.3594C9.87019 14.3148 9.82329 14.2694 9.77695 14.2231C9.32784 13.7739 8.96386 13.2719 8.68501 12.7371Z" fill="#141B34"/>
<path opacity="0.4" fill-rule="evenodd" clip-rule="evenodd" d="M3.90027 3.20006C4.3421 2.86869 4.9689 2.95823 5.30027 3.40006L6.80027 5.40006C7.13164 5.84189 7.0421 6.46869 6.60027 6.80006C6.15844 7.13143 5.53164 7.04189 5.20027 6.60006L3.70027 4.60006C3.3689 4.15823 3.45844 3.53143 3.90027 3.20006ZM1.05159 7.68383C1.22624 7.15989 1.79256 6.87673 2.3165 7.05138L5.3165 8.05138C5.84044 8.22602 6.1236 8.79234 5.94895 9.31629C5.77431 9.84023 5.20799 10.1234 4.68404 9.94874L1.68404 8.94874C1.1601 8.77409 0.87694 8.20777 1.05159 7.68383ZM5.80027 11.4001C6.13164 11.8419 6.0421 12.4687 5.60027 12.8001L3.60027 14.3001C3.15844 14.6314 2.53164 14.5419 2.20027 14.1001C1.8689 13.6582 1.95844 13.0314 2.40027 12.7001L4.40027 11.2001C4.8421 10.8687 5.4689 10.9582 5.80027 11.4001Z" fill="#141B34"/>
</svg>
