<svg width="24" height="24" viewBox="0 0 24 24" fill="none" xmlns="http://www.w3.org/2000/svg">
<path fill-rule="evenodd" clip-rule="evenodd" d="M7 8.01306C4.79086 8.01306 3 9.80392 3 12.0131C3 14.2222 4.79086 16.0131 7 16.0131H10.5V18.0131H7C3.68629 18.0131 1 15.3268 1 12.0131C1 8.69935 3.68629 6.01306 7 6.01306H10.5V8.01306H7ZM17 8.01306H13.5V6.01306H17C20.3137 6.01306 23 8.69935 23 12.0131C23 15.3268 20.3137 18.0131 17 18.0131H13.5V16.0131H17C19.2091 16.0131 21 14.2222 21 12.0131C21 9.80392 19.2091 8.01306 17 8.01306Z" fill="#141B34"/>
<path fill-rule="evenodd" clip-rule="evenodd" d="M9.21875 4.74714L7.21875 2.24864L8.78049 1L10.7805 3.4985L9.21875 4.74714ZM13.2188 3.4985L15.2188 1L16.7805 2.24864L14.7805 4.74715L13.2188 3.4985ZM10.7805 20.5015L8.78049 23L7.21875 21.7514L9.21875 19.2529L10.7805 20.5015ZM14.7805 19.2529L16.7805 21.7514L15.2188 23L13.2188 20.5015L14.7805 19.2529Z" fill="#141B34"/>
</svg>
