<svg width="24" height="24" viewBox="0 0 24 24" fill="none" xmlns="http://www.w3.org/2000/svg">
<path fill-rule="evenodd" clip-rule="evenodd" d="M20.7294 11.7327L17.5535 10.1442L18.4482 8.35547L22.4468 10.3555C22.9119 10.5881 23.1211 11.1383 22.928 11.6212L18.9293 21.6211C18.7775 22.0008 18.4098 22.2498 18.0008 22.2498L6.00082 22.2498C5.59188 22.2498 5.22414 22.0008 5.0723 21.6211L1.07362 11.6212C0.880554 11.1383 1.08974 10.5881 1.5548 10.3555L5.55348 8.35547L6.44816 10.1442L3.2722 11.7327L6.67794 20.2498L17.3237 20.2498L20.7294 11.7327Z" fill="#141B34"/>
<path fill-rule="evenodd" clip-rule="evenodd" d="M12.0021 1.75L15.7092 5.4574L14.2949 6.87156L13.0021 5.5786L13.0021 13.1643H11.0021L11.0021 5.5786L9.70919 6.87156L8.29492 5.4574L12.0021 1.75Z" fill="#141B34"/>
</svg>
