<svg width="24" height="24" viewBox="0 0 24 24" fill="none" xmlns="http://www.w3.org/2000/svg">
<path d="M17.3691 1.75C18.291 1.75 19.1598 2.15809 19.7129 2.85059L22.0547 5.78418C22.2052 5.97274 22.2649 6.19755 22.2441 6.41504C22.2473 6.44296 22.25 6.47123 22.25 6.5V19.5C22.25 21.0188 21.0188 22.25 19.5 22.25H4.5C2.98133 22.2499 1.75 21.0187 1.75 19.5V6.5C1.75 6.47127 1.75174 6.44293 1.75488 6.41504C1.7341 6.19758 1.79484 5.97271 1.94531 5.78418L4.28711 2.85059C4.8402 2.15809 5.70905 1.75 6.63086 1.75H17.3691ZM12 9.5C11.7349 9.50008 11.4804 9.6055 11.293 9.79297L8.29297 12.793C7.90264 13.1835 7.90264 13.8165 8.29297 14.207C8.65903 14.5731 9.23809 14.5956 9.63086 14.2754L9.70703 14.207L11 12.9141V17.5C11 18.0522 11.4478 18.4998 12 18.5C12.5523 18.5 13 18.0523 13 17.5V12.9141L14.293 14.207C14.6834 14.5975 15.3165 14.5974 15.707 14.207C16.0976 13.8165 16.0976 13.1835 15.707 12.793L12.707 9.79297C12.5195 9.60552 12.2651 9.5 12 9.5ZM6.63086 3.58301C6.32359 3.58301 6.03397 3.71936 5.84961 3.9502L4.41211 5.75H19.5879L18.1504 3.9502C17.966 3.71936 17.6764 3.58301 17.3691 3.58301H6.63086Z" fill="#141B34"/>
</svg>
