<svg width="24" height="24" viewBox="0 0 24 24" fill="none" xmlns="http://www.w3.org/2000/svg">
<path opacity="0.4" d="M22.25 13.5499V13.4999V6.49992C22.25 6.08571 21.9142 5.74992 21.5 5.74992H2.5C2.08579 5.74992 1.75 6.08571 1.75 6.49992V13.4999V13.5499C1.74999 15.3907 1.74998 16.8486 1.90332 17.9892C2.06096 19.1615 2.39329 20.11 3.1416 20.8583C3.88991 21.6066 4.83844 21.939 6.01074 22.0966C7.15129 22.2499 8.60922 22.2499 10.45 22.2499H10.5H13.5H13.55C15.3908 22.2499 16.8487 22.2499 17.9893 22.0966C19.1616 21.939 20.1101 21.6066 20.8584 20.8583C21.6067 20.11 21.939 19.1615 22.0967 17.9892C22.25 16.8486 22.25 15.3907 22.25 13.5499Z" fill="#141B34"/>
<path d="M12 18.4999C11.4477 18.4999 11 18.0522 11 17.4999V12.6093C10.6896 12.9668 10.3584 13.3735 10.1455 13.6464C10.0396 13.7821 9.86487 14.0143 9.80565 14.0927C9.47823 14.5373 8.85189 14.6328 8.40721 14.3056C7.96264 13.9782 7.86714 13.3518 8.19432 12.9072C8.25898 12.8215 8.45592 12.5613 8.56932 12.4159C8.79529 12.1264 9.10759 11.737 9.44823 11.3447C9.78454 10.9573 10.1683 10.5439 10.5351 10.2197C10.7175 10.0585 10.9198 9.89783 11.1279 9.77238C11.3086 9.66348 11.6227 9.49992 12 9.49992C12.3772 9.49993 12.6914 9.66348 12.8721 9.77238C13.0802 9.89783 13.2825 10.0585 13.4648 10.2197C13.8317 10.5438 14.2154 10.9573 14.5517 11.3447C14.8924 11.737 15.2047 12.1264 15.4306 12.4159C15.5441 12.5613 15.741 12.8215 15.8056 12.9072C16.1328 13.3518 16.0373 13.9772 15.5928 14.3046C15.1481 14.6321 14.5218 14.5364 14.1943 14.0917C14.1351 14.0133 13.9604 13.7821 13.8545 13.6464C13.6415 13.3735 13.3104 12.9668 13 12.6093V17.4999C13 18.0522 12.5523 18.4999 12 18.4999Z" fill="#141B34"/>
<path d="M14.4404 1.75007C16.2584 1.75007 17.4972 1.72795 18.5762 2.23444C19.6549 2.74107 20.3791 3.68436 21.4697 5.04987L22.0547 5.78425C22.2054 5.97306 22.2652 6.1983 22.2441 6.41608C22.2023 6.04154 21.8857 5.75007 21.5 5.75007H2.5C2.11425 5.75009 1.7967 6.0415 1.75488 6.41608C1.73388 6.1984 1.79468 5.97299 1.94531 5.78425L2.53125 5.04987C3.62174 3.68454 4.34523 2.74107 5.42383 2.23444C6.50284 1.72784 7.7415 1.75007 9.55957 1.75007H14.4404Z" fill="#141B34"/>
</svg>
