<svg width="24" height="24" viewBox="0 0 24 24" fill="none" xmlns="http://www.w3.org/2000/svg">
<path fill-rule="evenodd" clip-rule="evenodd" d="M20 11.4C20 10.9699 19.9707 10.5478 19.9142 10.1357L21.8957 9.86429C21.9645 10.3662 22 10.879 22 11.4C22 17.1924 17.5827 22 12 22C6.41734 22 2 17.1924 2 11.4C2 10.879 2.03552 10.3662 2.10427 9.86429L4.08576 10.1357C4.02931 10.5478 4 10.9699 4 11.4C4 16.2114 7.64154 20 12 20C16.3585 20 20 16.2114 20 11.4Z" fill="#141B34"/>
<path fill-rule="evenodd" clip-rule="evenodd" d="M12.0001 2L15.7072 5.7074L14.293 7.12156L13.0001 5.8286L13.0001 13.4143H11.0001L11.0001 5.8286L9.70723 7.12156L8.29297 5.7074L12.0001 2Z" fill="#141B34"/>
</svg>
