<svg width="24" height="24" viewBox="0 0 24 24" fill="none" xmlns="http://www.w3.org/2000/svg">
<path fill-rule="evenodd" clip-rule="evenodd" d="M10.4285 4.12871C10.2504 3.68363 9.78161 3.42749 9.31089 3.51814C8.84017 3.60879 8.5 4.02073 8.5 4.5001V10.7501C8.5 12.2403 7.24022 13.5001 5.75 13.5001C4.25978 13.5001 3 12.2403 3 10.7501V4.5001C3 3.94781 2.55228 3.5001 2 3.5001C1.44772 3.5001 1 3.94781 1 4.5001V10.7501C1 13.3449 3.15521 15.5001 5.75 15.5001C8.34479 15.5001 10.5 13.3449 10.5 10.7501V9.42039C10.7998 10.0232 11.127 10.625 11.4834 11.1992C11.5915 11.3735 11.7037 11.5476 11.8202 11.7204C11.6362 12.7038 11.422 13.8443 11.2163 14.9388C11.0008 16.0847 10.7949 17.1787 10.6427 17.9863L10.3923 19.3147C10.29 19.8574 10.6469 20.3804 11.1897 20.4828C11.7324 20.5851 12.2554 20.2278 12.3577 19.6851L12.6081 18.3565C12.7603 17.5488 12.9663 16.4546 13.1818 15.3083L13.4816 13.7129C14.5997 14.7615 15.9669 15.5001 17.625 15.5001C20.5602 15.5001 23 13.0603 23 10.1251C23 7.1899 20.5602 4.7501 17.625 4.7501C14.7614 4.7501 12.9921 6.70955 12.4008 8.74986C11.7147 7.40533 11.1692 6.01374 10.7199 4.86752C10.618 4.60748 10.521 4.36007 10.4285 4.12871ZM17.6252 13.5001C16.2469 13.5001 15.0311 12.6535 13.9434 11.2477C14.073 10.5531 14.1764 9.99597 14.234 9.67914C14.5107 8.15829 15.6882 6.75012 17.6252 6.75012C19.4558 6.75012 21.0002 8.29449 21.0002 10.1251C21.0002 11.9558 19.4558 13.5001 17.6252 13.5001Z" fill="#141B34"/>
</svg>
