<svg width="24" height="24" viewBox="0 0 24 24" fill="none" xmlns="http://www.w3.org/2000/svg">
<path opacity="0.4" d="M8.96166 1.25H9.03835H9.03837C9.70792 1.24999 10.2667 1.24997 10.719 1.29599C11.1925 1.34415 11.6318 1.44886 12.0278 1.71346C12.3281 1.9141 12.5859 2.17191 12.7865 2.47218C13.0511 2.86818 13.1559 3.30755 13.204 3.78102C13.25 4.23335 13.25 4.7921 13.25 5.46166L13.25 6.15379C13.25 6.33949 13.25 6.43233 13.2898 6.50166C13.3295 6.57099 13.4249 6.62676 13.6155 6.73832C13.7938 6.84263 13.9634 6.9709 14.1215 7.12913C14.9224 7.93041 14.9787 9.06609 14.9956 10.237C15.0036 10.7892 14.5624 11.2433 14.0101 11.2513C13.4579 11.2593 13.0038 10.8181 12.9958 10.2659C12.9769 8.95601 12.8492 8.68526 12.707 8.54301C12.6308 8.46683 12.4949 8.37267 12.0613 8.31434C11.5988 8.25213 10.9711 8.25001 10 8.25001H8.00004C7.02895 8.25001 6.40127 8.25213 5.9388 8.31434C5.50515 8.37267 5.36924 8.46683 5.2931 8.54301C5.21689 8.61925 5.12268 8.75542 5.06435 9.1895C5.00216 9.6523 5.00004 10.2804 5.00004 11.2519V16.7545C5.00004 17.7321 5.00488 18.075 5.0577 18.3407C5.2945 19.5317 6.225 20.4624 7.41485 20.6992C7.54622 20.7253 7.71831 20.7424 8.02585 20.7503C8.57795 20.7646 9.01396 21.2237 8.9997 21.7758C8.98545 22.3279 8.52633 22.7639 7.97423 22.7497C7.62574 22.7407 7.32144 22.7198 7.0245 22.6607C5.04082 22.2659 3.49055 20.7146 3.09609 18.7307C2.99968 18.2457 2.99982 17.6883 3.00002 16.8702L3.00003 11.1861C2.99998 10.2991 2.99994 9.53501 3.08217 8.92312C3.17028 8.26744 3.36897 7.63895 3.87855 7.12913C4.03668 6.97092 4.20624 6.84266 4.3845 6.73835C4.57516 6.6268 4.67049 6.57102 4.71024 6.50169C4.75 6.43236 4.75 6.33952 4.75 6.15383L4.75 5.46166C4.74998 4.79208 4.74997 4.23335 4.79598 3.78102C4.84415 3.30755 4.94886 2.86818 5.21346 2.47218C5.4141 2.17191 5.67191 1.9141 5.97218 1.71346C6.36818 1.44886 6.80755 1.34415 7.28102 1.29599C7.73334 1.24997 8.29209 1.24999 8.96164 1.25H8.96166Z" fill="#141B34"/>
<path fill-rule="evenodd" clip-rule="evenodd" d="M7.99805 3.29688C7.58383 3.29688 7.24805 3.63266 7.24805 4.04688C7.24805 4.46109 7.58383 4.79688 7.99805 4.79688H9.99805C10.4123 4.79688 10.748 4.46109 10.748 4.04688C10.748 3.63266 10.4123 3.29688 9.99805 3.29688H7.99805Z" fill="#141B34"/>
<path fill-rule="evenodd" clip-rule="evenodd" d="M12.307 14.2059C13.0776 13.3125 14.2279 12.75 15.5002 12.75C16.7726 12.75 17.9228 13.3125 18.6935 14.2059C18.9907 14.0116 19.3486 13.8362 19.7545 13.7333C20.2898 13.5976 20.8338 13.9215 20.9696 14.4569C21.1053 14.9922 20.7813 15.5363 20.246 15.672C20.07 15.7166 19.8973 15.8033 19.7453 15.9087C19.6876 15.9486 19.6376 15.988 19.5957 16.0238C19.645 16.2588 19.6739 16.5015 19.6806 16.75H20.0002C20.5525 16.75 21.0002 17.1977 21.0002 17.75C21.0002 18.3023 20.5525 18.75 20.0002 18.75H19.6806C19.6739 18.9985 19.645 19.2412 19.5957 19.4762C19.6376 19.512 19.6876 19.5514 19.7453 19.5913C19.8973 19.6967 20.0699 19.7834 20.246 19.828C20.7813 19.9637 21.1053 20.5078 20.9696 21.0431C20.8338 21.5785 20.2898 21.9024 19.7545 21.7667C19.3486 21.6638 18.9907 21.4884 18.6935 21.2941C17.9228 22.1875 16.7726 22.75 15.5002 22.75C14.2279 22.75 13.0776 22.1875 12.307 21.2941C12.0098 21.4884 11.6518 21.6638 11.246 21.7667C10.7107 21.9024 10.1666 21.5785 10.0309 21.0431C9.89518 20.5078 10.2191 19.9637 10.7545 19.828C10.9305 19.7834 11.1032 19.6967 11.2552 19.5913C11.3128 19.5514 11.3629 19.512 11.4048 19.4762C11.3555 19.2412 11.3266 18.9985 11.3199 18.75H11.0002C10.448 18.75 10.0002 18.3023 10.0002 17.75C10.0002 17.1977 10.448 16.75 11.0002 16.75H11.3199C11.3266 16.5015 11.3555 16.2588 11.4048 16.0238C11.3629 15.988 11.3128 15.9486 11.2552 15.9087C11.1032 15.8033 10.9305 15.7166 10.7545 15.672C10.2191 15.5363 9.89518 14.9922 10.0309 14.4569C10.1666 13.9215 10.7107 13.5976 11.246 13.7333C11.6518 13.8362 12.0098 14.0116 12.307 14.2059ZM13.3184 18.6389C13.3184 19.7838 14.2739 20.75 15.5002 20.75C16.7265 20.75 17.6821 19.7838 17.6821 18.6389V16.8611C17.6821 15.7162 16.7265 14.75 15.5002 14.75C14.2739 14.75 13.3184 15.7162 13.3184 16.8611V18.6389Z" fill="#141B34"/>
</svg>
