<svg width="24" height="24" viewBox="0 0 24 24" fill="none" xmlns="http://www.w3.org/2000/svg">
<path fill-rule="evenodd" clip-rule="evenodd" d="M6 1.25C5.58579 1.25 5.25 1.58579 5.25 2V6.75H3.75V16.9318C3.75 20.1451 6.32436 22.75 9.5 22.75V20.8106C7.38291 20.8106 5.66667 19.074 5.66667 16.9318V8.68939H13.3333V13.9318H15.25V6.75H13.75V2C13.75 1.58579 13.4142 1.25 13 1.25H6ZM11 5.25H8V3.75H11V5.25Z" fill="#141B34"/>
<path fill-rule="evenodd" clip-rule="evenodd" d="M20.2502 16.0431L13.543 22.7502L10.3359 19.5431L11.7502 18.1289L13.543 19.9218L18.8359 14.6289L20.2502 16.0431Z" fill="#141B34"/>
</svg>
