<svg width="24" height="24" viewBox="0 0 24 24" fill="none" xmlns="http://www.w3.org/2000/svg">
<path d="M15.8021 13.9119C16.3588 13.6233 17.0786 13.25 17.9999 13.25C18.9251 13.25 19.6456 13.6239 20.203 13.9132L20.2418 13.9333C20.8366 14.2417 21.2583 14.448 21.7835 14.448H22.3706L22.5115 15.0171C22.9716 16.8747 22.7532 18.6232 21.9624 20.01C21.1693 21.4011 19.8272 22.3781 18.1497 22.7195L17.9999 22.75L17.8501 22.7195C16.1725 22.3781 14.8305 21.4011 14.0374 20.01C13.2467 18.6232 13.0282 16.8747 13.4883 15.0171L13.6292 14.448H14.2163C14.7427 14.448 15.1662 14.2413 15.7611 13.9332L15.8021 13.9119Z" fill="#141B34"/>
<path d="M12.0323 14.6565L12.4554 12.948H13.6282C12.5156 12.4986 11.2843 12.25 10 12.25C5.26471 12.25 1.25 15.6289 1.25 20V20.75H12.7191C11.7383 18.9937 11.4981 16.813 12.0323 14.6565Z" fill="#141B34"/>
<path d="M5.25 6C5.25 3.37665 7.37665 1.25 10 1.25C12.6234 1.25 14.75 3.37665 14.75 6C14.75 8.62335 12.6234 10.75 10 10.75C7.37665 10.75 5.25 8.62335 5.25 6Z" fill="#141B34"/>
</svg>
