<svg width="24" height="24" viewBox="0 0 24 24" fill="none" xmlns="http://www.w3.org/2000/svg">
<path fill-rule="evenodd" clip-rule="evenodd" d="M12.75 17.25C12.75 15.0409 14.5409 13.25 16.75 13.25C18.9591 13.25 20.75 15.0409 20.75 17.25C20.75 17.9918 20.5481 18.6865 20.1962 19.282L21.4571 20.5429C21.8476 20.9334 21.8476 21.5666 21.4571 21.9571C21.0666 22.3476 20.4334 22.3476 20.0429 21.9571L18.782 20.6962C18.1865 21.0481 17.4918 21.25 16.75 21.25C14.5409 21.25 12.75 19.4591 12.75 17.25ZM16.75 15.25C15.6454 15.25 14.75 16.1454 14.75 17.25C14.75 18.3546 15.6454 19.25 16.75 19.25C17.8546 19.25 18.75 18.3546 18.75 17.25C18.75 16.1454 17.8546 15.25 16.75 15.25Z" fill="#141B34"/>
<path d="M13.9316 12.8199C12.4696 13.7519 11.5 15.3877 11.5 17.25C11.5 18.3654 11.8479 19.3996 12.441 20.25H3C2.58579 20.25 2.25 19.9142 2.25 19.5C2.25 15.8234 4.81022 12.7447 8.2451 11.9495C6.20857 11.2274 4.75 9.28405 4.75 7C4.75 4.10051 7.1005 1.75 10 1.75C12.8995 1.75 15.25 4.10051 15.25 7C15.25 9.28405 13.7914 11.2274 11.7549 11.9495C12.5317 12.1294 13.2638 12.426 13.9316 12.8199Z" fill="#141B34"/>
</svg>
