<svg width="24" height="24" viewBox="0 0 24 24" fill="none" xmlns="http://www.w3.org/2000/svg">
<path d="M15.25 19C15.25 16.9289 16.9289 15.25 19 15.25C21.0711 15.25 22.75 16.9289 22.75 19C22.75 21.0711 21.0711 22.75 19 22.75C16.9289 22.75 15.25 21.0711 15.25 19Z" fill="#141B34"/>
<path fill-rule="evenodd" clip-rule="evenodd" d="M1.25 12C1.25 6.06294 6.06294 1.25 12 1.25C17.9371 1.25 22.75 6.06294 22.75 12C22.75 13.1184 22.5792 14.1969 22.2623 15.2108C21.3867 14.4562 20.2466 14 19 14C16.2386 14 14 16.2386 14 19C14 20.2466 14.4562 21.3867 15.2108 22.2623C14.1969 22.5792 13.1184 22.75 12 22.75C6.06294 22.75 1.25 17.9371 1.25 12ZM12 5.25C10.2051 5.25 8.75 6.70507 8.75 8.5C8.75 9.78708 9.49818 10.8994 10.5833 11.4258C8.12834 12.0478 6.30285 14.249 6.25112 16.8853V17.1919C7.65682 18.6258 9.83216 19.75 12 19.75C12.2666 19.75 12.5302 19.7365 12.7899 19.7102C12.7635 19.4771 12.75 19.2401 12.75 19C12.75 16.4719 14.2511 14.2943 16.4106 13.31C15.6467 12.3983 14.6054 11.727 13.4167 11.4258C14.5018 10.8994 15.25 9.78708 15.25 8.5C15.25 6.70507 13.7949 5.25 12 5.25Z" fill="#141B34"/>
</svg>
