<svg width="24" height="24" viewBox="0 0 24 24" fill="none" xmlns="http://www.w3.org/2000/svg">
<path d="M4.4426 14.6547C7.53812 12.7818 11.4622 12.7818 14.5577 14.6547C14.6547 14.7134 14.7758 14.7828 14.9137 14.8618C15.5264 15.2128 16.4717 15.7545 17.1183 16.3976C17.5234 16.8005 17.9171 17.3398 17.9888 18.0063C18.0653 18.7171 17.7585 19.3796 17.1581 19.9609C16.1413 20.9452 14.905 21.75 13.2969 21.75H5.70341C4.09536 21.75 2.85901 20.9452 1.84219 19.9609C1.24178 19.3796 0.935065 18.7171 1.01154 18.0063C1.08323 17.3398 1.47697 16.8005 1.88204 16.3976C2.52862 15.7545 3.47396 15.2128 4.08661 14.8618C4.22454 14.7828 4.3456 14.7134 4.4426 14.6547Z" fill="#141B34"/>
<path d="M4.75024 7C4.75024 4.37665 6.87689 2.25 9.50024 2.25C12.1236 2.25 14.2502 4.37665 14.2502 7C14.2502 9.62335 12.1236 11.75 9.50024 11.75C6.87689 11.75 4.75024 9.62335 4.75024 7Z" fill="#141B34"/>
<path fill-rule="evenodd" clip-rule="evenodd" d="M16 5C16 4.44772 16.4477 4 17 4L22 4C22.5523 4 23 4.44772 23 5C23 5.55229 22.5523 6 22 6L17 6C16.4477 6 16 5.55228 16 5ZM16 8C16 7.44772 16.4477 7 17 7L22 7C22.5523 7 23 7.44772 23 8C23 8.55229 22.5523 9 22 9L17 9C16.4477 9 16 8.55228 16 8ZM19 11C19 10.4477 19.4477 10 20 10H22C22.5523 10 23 10.4477 23 11C23 11.5523 22.5523 12 22 12H20C19.4477 12 19 11.5523 19 11Z" fill="#141B34"/>
</svg>
