<svg width="24" height="24" viewBox="0 0 24 24" fill="none" xmlns="http://www.w3.org/2000/svg">
<path fill-rule="evenodd" clip-rule="evenodd" d="M22.75 3.25L1.25 3.25L1.25 20.75L22.75 20.75L22.75 3.25ZM3.75 16C3.75 13.7915 5.25722 11.935 7.29916 11.4031C6.66868 11.0044 6.25 10.3011 6.25 9.5C6.25 8.25736 7.25736 7.25 8.5 7.25C9.74264 7.25 10.75 8.25736 10.75 9.5C10.75 10.3011 10.3313 11.0044 9.70084 11.4031C11.7428 11.935 13.25 13.7915 13.25 16V16.75H3.75V16ZM14.25 11.5H20.25V13.5L14.25 13.5L14.25 11.5ZM20.25 8H14.25V10H20.25V8Z" fill="#141B34"/>
</svg>
