<svg width="24" height="24" viewBox="0 0 24 24" fill="none" xmlns="http://www.w3.org/2000/svg">
<path fill-rule="evenodd" clip-rule="evenodd" d="M20.9859 8.40051C21.0767 7.95619 21.3275 7.57243 21.6762 7.31124C22.3641 8.72824 22.7499 10.3191 22.7499 12C22.7499 17.9371 17.9369 22.75 11.9999 22.75C6.06282 22.75 1.24988 17.9371 1.24988 12C1.24988 6.06294 6.06282 1.25 11.9999 1.25C13.6808 1.25 15.2716 1.63581 16.6886 2.32371C16.4275 2.67243 16.0437 2.92319 15.5994 3.01401L13.9999 3.34093L13.9999 6.65907L15.5994 6.986C16.3117 7.13158 16.8683 7.68823 17.0139 8.40051L17.3408 10H20.659L20.9859 8.40051ZM11.9999 13C13.6567 13 14.9999 11.6569 14.9999 10C14.9999 8.34315 13.6567 7 11.9999 7C10.343 7 8.99988 8.34315 8.99988 10C8.99988 11.6569 10.343 13 11.9999 13ZM13.5981 15H10.4014C8.60708 15 6.95037 15.9614 6.06015 17.5193L5.70422 18.1422C7.30153 19.7791 9.53195 20.7955 11.9998 20.7955C14.4676 20.7955 16.698 19.7791 18.2953 18.1422L17.9394 17.5193C17.0491 15.9614 15.3924 15 13.5981 15ZM19.7612 1.84981L19.6386 1.25L18.3612 1.25L18.2386 1.84981C17.9927 3.05274 17.0526 3.99282 15.8497 4.23869L15.2499 4.36128L15.2499 5.63872L15.8497 5.76132C17.0526 6.00718 17.9927 6.94726 18.2386 8.15019L18.3612 8.75H19.6386L19.7612 8.15019C20.0071 6.94726 20.9471 6.00718 22.1501 5.76132L22.7499 5.63872V4.36128L22.1501 4.23869C20.9471 3.99282 20.0071 3.05274 19.7612 1.84981Z" fill="#141B34"/>
</svg>
