<svg width="24" height="24" viewBox="0 0 24 24" fill="none" xmlns="http://www.w3.org/2000/svg">
<path d="M16.7215 13.3057C17.0023 13.1933 17.4353 12.9589 17.5852 12.8772C17.8473 12.7032 18.179 12.7156 18.4238 12.883C18.5737 12.9648 18.9976 13.1933 19.2784 13.3057C19.8437 13.5318 20.6221 13.752 21.4999 13.752C21.9141 13.752 22.2499 14.0878 22.2499 14.502V17.002C22.2499 19.0429 21.2155 20.3668 20.2133 21.1543C19.7168 21.5444 19.2238 21.808 18.8559 21.9744C18.7079 22.0414 18.4524 22.1348 18.2987 22.19C18.2057 22.2305 18.1041 22.2523 17.9999 22.2522C17.9223 22.2523 17.8455 22.24 17.7732 22.2171C17.6607 22.1769 17.3289 22.0581 17.144 21.9744C16.7761 21.808 16.2831 21.5444 15.7866 21.1543C14.7844 20.3668 13.75 19.0429 13.75 17.002V14.502C13.75 14.0878 14.0858 13.752 14.5 13.752C15.3778 13.752 16.1562 13.5318 16.7215 13.3057Z" fill="#141B34"/>
<path d="M13.354 20.25C12.849 19.3854 12.5 18.3105 12.5 17.0021V14.5021C12.5 13.7934 12.8685 13.1709 13.4244 12.8156C12.7585 12.4238 12.0289 12.1287 11.2549 11.9495C13.2914 11.2274 14.75 9.28405 14.75 7C14.75 4.10051 12.3995 1.75 9.5 1.75C6.6005 1.75 4.25 4.10051 4.25 7C4.25 9.28405 5.70857 11.2274 7.7451 11.9495C4.31022 12.7447 1.75 15.8234 1.75 19.5C1.75 19.9142 2.08579 20.25 2.5 20.25H13.354Z" fill="#141B34"/>
</svg>
