<svg width="24" height="24" viewBox="0 0 24 24" fill="none" xmlns="http://www.w3.org/2000/svg">
<path fill-rule="evenodd" clip-rule="evenodd" d="M13.25 17.25C13.25 14.7647 15.2647 12.75 17.75 12.75C20.2353 12.75 22.25 14.7647 22.25 17.25C22.25 19.7353 20.2353 21.75 17.75 21.75C15.2647 21.75 13.25 19.7353 13.25 17.25ZM15.4222 16.3364C15.311 16.6194 15.25 16.9276 15.25 17.25C15.25 18.6307 16.3693 19.75 17.75 19.75C18.0724 19.75 18.3806 19.689 18.6636 19.5778L15.4222 16.3364ZM16.8364 14.9222L20.0778 18.1636C20.189 17.8806 20.25 17.5724 20.25 17.25C20.25 15.8693 19.1307 14.75 17.75 14.75C17.4276 14.75 17.1194 14.811 16.8364 14.9222Z" fill="#141B34"/>
<path d="M13.5096 13.3665C12.5721 14.3896 12 15.753 12 17.25C12 18.567 12.4428 19.7806 13.1876 20.75H2.5C2.08579 20.75 1.75 20.4142 1.75 20C1.75 16.3234 4.31022 13.2447 7.7451 12.4495C5.70857 11.7274 4.25 9.78405 4.25 7.5C4.25 4.60051 6.6005 2.25 9.5 2.25C12.3995 2.25 14.75 4.60051 14.75 7.5C14.75 9.78405 13.2914 11.7274 11.2549 12.4495C12.062 12.6364 12.8209 12.9493 13.5096 13.3665Z" fill="#141B34"/>
</svg>
