<svg width="24" height="24" viewBox="0 0 24 24" fill="none" xmlns="http://www.w3.org/2000/svg">
<path d="M6.75 7C6.75 4.37665 8.87665 2.25 11.5 2.25C14.1234 2.25 16.25 4.37665 16.25 7C16.25 9.62335 14.1234 11.75 11.5 11.75C8.87665 11.75 6.75 9.62335 6.75 7Z" fill="#141B34"/>
<path d="M3.75 19C3.75 15.8244 6.32436 13.25 9.5 13.25H13.5C16.6756 13.25 19.25 15.8244 19.25 19C19.25 20.5188 18.0188 21.75 16.5 21.75H6.5C4.98122 21.75 3.75 20.5188 3.75 19Z" fill="#141B34"/>
<path fill-rule="evenodd" clip-rule="evenodd" d="M19.25 4.75C19.8023 4.75 20.25 5.19772 20.25 5.75V9.75C20.25 10.3023 19.8023 10.75 19.25 10.75C18.6977 10.75 18.25 10.3023 18.25 9.75V5.75C18.25 5.19772 18.6977 4.75 19.25 4.75ZM19.25 11.75C19.8023 11.75 20.25 12.1977 20.25 12.75V12.76C20.25 13.3123 19.8023 13.76 19.25 13.76C18.6977 13.76 18.25 13.3123 18.25 12.76V12.75C18.25 12.1977 18.6977 11.75 19.25 11.75Z" fill="#141B34"/>
</svg>
