<svg width="24" height="24" viewBox="0 0 24 24" fill="none" xmlns="http://www.w3.org/2000/svg">
<path d="M5.25 6C5.25 3.37665 7.37665 1.25 10 1.25C12.6234 1.25 14.75 3.37665 14.75 6C14.75 8.62335 12.6234 10.75 10 10.75C7.37665 10.75 5.25 8.62335 5.25 6Z" fill="#141B34"/>
<path fill-rule="evenodd" clip-rule="evenodd" d="M17 13.25C14.3766 13.25 12.25 15.3766 12.25 18C12.25 20.6234 14.3766 22.75 17 22.75C19.6234 22.75 21.75 20.6234 21.75 18C21.75 15.3766 19.6234 13.25 17 13.25ZM17.75 16C17.75 15.5858 17.4142 15.25 17 15.25C16.5858 15.25 16.25 15.5858 16.25 16V18.4C16.25 18.7067 16.4367 18.9825 16.7215 19.0964L18.2215 19.6964C18.606 19.8502 19.0425 19.6631 19.1964 19.2785C19.3502 18.894 19.1631 18.4575 18.7785 18.3036L17.75 17.8922V16Z" fill="#141B34"/>
<path d="M13.9005 12.5715C12.0183 13.6485 10.75 15.6761 10.75 18C10.75 18.9868 10.9787 19.9201 11.3859 20.75H5C3.48122 20.75 2.25 19.5188 2.25 18C2.25 14.8244 4.82436 12.25 8 12.25H12C12.666 12.25 13.3056 12.3632 13.9005 12.5715Z" fill="#141B34"/>
</svg>
