<svg width="24" height="24" viewBox="0 0 24 24" fill="none" xmlns="http://www.w3.org/2000/svg">
<path d="M5.25 6C5.25 3.65279 7.15279 1.75 9.5 1.75C11.8472 1.75 13.75 3.65279 13.75 6C13.75 8.34721 11.8472 10.25 9.5 10.25C7.15279 10.25 5.25 8.34721 5.25 6Z" fill="#141B34"/>
<path fill-rule="evenodd" clip-rule="evenodd" d="M17 12.75C14.3766 12.75 12.25 14.8766 12.25 17.5C12.25 20.1234 14.3766 22.25 17 22.25C19.6234 22.25 21.75 20.1234 21.75 17.5C21.75 14.8766 19.6234 12.75 17 12.75ZM17.75 15.5C17.75 15.0858 17.4142 14.75 17 14.75C16.5858 14.75 16.25 15.0858 16.25 15.5V17.9C16.25 18.2067 16.4367 18.4825 16.7215 18.5964L18.2215 19.1964C18.606 19.3502 19.0425 19.1631 19.1964 18.7785C19.3502 18.394 19.1631 17.9575 18.7785 17.8036L17.75 17.3922V15.5Z" fill="#141B34"/>
<path d="M13.4475 12.3571C11.8177 13.485 10.75 15.3678 10.75 17.5C10.75 18.1075 10.8367 18.6947 10.9983 19.25H4C3.0335 19.25 2.25 18.4665 2.25 17.5V16.4704C2.25 15.0343 2.90039 13.486 4.37858 12.8122C5.86094 12.1364 7.62141 11.75 9.5 11.75C10.9041 11.75 12.2422 11.9659 13.4475 12.3571Z" fill="#141B34"/>
</svg>
