<svg width="24" height="24" viewBox="0 0 24 24" fill="none" xmlns="http://www.w3.org/2000/svg">
<path d="M17.9982 13.25C18.67 13.25 19.12 13.7533 19.3627 14.245L19.3632 14.2459L20.0587 15.6484L20.0645 15.654C20.0693 15.6583 20.0749 15.663 20.0811 15.6676C20.0874 15.6722 20.0935 15.6763 20.0992 15.6798L20.1075 15.6844L21.3626 15.8947C21.9028 15.9855 22.4905 16.275 22.6893 16.8985C22.8877 17.521 22.5775 18.0974 22.1899 18.486L22.1889 18.487L21.2132 19.4708C21.2098 19.4778 21.2053 19.4888 21.2014 19.5027C21.197 19.5181 21.1949 19.5314 21.1942 19.5401L21.4735 20.7579C21.5995 21.3093 21.6116 22.0753 21.0171 22.5123C20.4194 22.9516 19.6913 22.7048 19.2061 22.4159L18.0294 21.7135C18.0283 21.702 18.0142 21.6859 17.9668 21.7142L16.7916 22.4156C16.3047 22.7069 15.5783 22.9496 14.9815 22.5106C14.3883 22.0742 14.397 21.3106 14.524 20.7572L14.8031 19.5401C14.8024 19.5314 14.8003 19.5181 14.7959 19.5027C14.792 19.4888 14.7875 19.4778 14.7841 19.4708L13.8065 18.4851C13.4213 18.0967 13.1123 17.5211 13.3091 16.8998C13.5068 16.2757 14.0941 15.9855 14.6351 15.8946L15.8859 15.6851L15.893 15.681C15.8987 15.6775 15.9049 15.6734 15.9113 15.6687C15.9176 15.6639 15.9233 15.6592 15.9282 15.6547L15.9345 15.6487L16.6315 14.2431C16.8762 13.7522 17.3273 13.25 17.9982 13.25Z" fill="#141B34"/>
<path d="M5.74938 6.5C5.74938 3.6005 8.09988 1.25 10.9994 1.25C13.8989 1.25 16.2494 3.6005 16.2494 6.5C16.2494 9.39949 13.8989 11.75 10.9994 11.75C8.09988 11.75 5.74938 9.39949 5.74938 6.5Z" fill="#141B34"/>
<path d="M14.4392 14.3825C14.4892 14.3525 14.5141 14.3375 14.5303 14.3244C14.7022 14.1856 14.6658 13.9073 14.4641 13.8172C14.4451 13.8087 14.4184 13.801 14.365 13.7855C13.8204 13.628 13.0835 13.4302 12.6039 13.3625C11.5401 13.2125 10.4583 13.2125 9.39446 13.3625C7.92998 13.5691 6.49791 14.0602 5.19306 14.8372C5.07678 14.9064 4.93314 14.9874 4.77052 15.0792C4.05771 15.4813 2.98009 16.0893 2.24192 16.8118C1.78025 17.2637 1.3416 17.8592 1.26185 18.5888C1.17705 19.3646 1.51551 20.0927 2.19453 20.7396C3.36597 21.8556 4.77176 22.75 6.59007 22.75H12.2937C12.7005 22.75 12.9039 22.75 12.9935 22.6475C13.0832 22.545 13.0509 22.3047 12.9862 21.8241C12.9096 21.2541 12.9887 20.7329 13.0601 20.4219L13.09 20.2912C13.1262 20.1337 13.1442 20.055 13.1231 19.9808C13.1019 19.9066 13.045 19.8493 12.9312 19.7346L12.7397 19.5414C12.178 18.9751 11.436 17.84 11.8772 16.4469C12.3099 15.081 13.5275 14.5747 14.3222 14.4264C14.3314 14.4247 14.336 14.4238 14.3391 14.4232C14.3715 14.4164 14.3982 14.4063 14.4269 14.3899C14.4297 14.3883 14.4329 14.3864 14.4392 14.3825Z" fill="#141B34"/>
</svg>
