<svg width="24" height="24" viewBox="0 0 24 24" fill="none" xmlns="http://www.w3.org/2000/svg">
<path d="M7.7451 12.9495C4.31022 13.7447 1.75 16.8234 1.75 20.5V21.25H17.25V20.5C17.25 16.8234 14.6898 13.7447 11.2549 12.9495C13.2914 12.2274 14.75 10.2841 14.75 8C14.75 5.10051 12.3995 2.75 9.5 2.75C6.6005 2.75 4.25 5.10051 4.25 8C4.25 10.2841 5.70857 12.2274 7.7451 12.9495Z" fill="#141B34"/>
<path d="M19 7.75C18.5858 7.75 18.25 8.08579 18.25 8.5V9.25H22.25V14.75H15.75V9.25H16.75V8.5C16.75 7.25736 17.7574 6.25 19 6.25C19.5758 6.25 20.1026 6.46726 20.5002 6.8231L21.059 7.32328L20.0587 8.44098L19.4998 7.9408C19.3666 7.82159 19.1926 7.75 19 7.75Z" fill="#141B34"/>
</svg>
