<svg width="24" height="24" viewBox="0 0 24 24" fill="none" xmlns="http://www.w3.org/2000/svg">
<path d="M4.25 8C4.25 5.1005 6.6005 2.75 9.5 2.75C12.3995 2.75 14.75 5.1005 14.75 8C14.75 10.2841 13.2914 12.2274 11.2549 12.9495C14.6898 13.7447 17.25 16.8234 17.25 20.5C17.25 20.9142 16.9142 21.25 16.5 21.25H2.5C2.08579 21.25 1.75 20.9142 1.75 20.5C1.75 16.8234 4.31022 13.7447 7.74511 12.9495C5.70858 12.2274 4.25 10.2841 4.25 8Z" fill="#141B34"/>
<path d="M19 7.75C18.5858 7.75 18.25 8.08579 18.25 8.5V9.25H20.5C21.4665 9.25 22.25 10.0335 22.25 11V13C22.25 13.9665 21.4665 14.75 20.5 14.75H17.5C16.5335 14.75 15.75 13.9665 15.75 13V11C15.75 10.3019 16.1588 9.69927 16.75 9.41841V8.5C16.75 7.25736 17.7574 6.25 19 6.25C19.5758 6.25 20.1026 6.46726 20.5002 6.8231C20.8088 7.09934 20.8351 7.57349 20.5589 7.88213C20.2826 8.19078 19.8085 8.21704 19.4998 7.9408C19.3666 7.82159 19.1926 7.75 19 7.75Z" fill="#141B34"/>
</svg>
