<svg width="24" height="24" viewBox="0 0 24 24" fill="none" xmlns="http://www.w3.org/2000/svg">
<path d="M6.24988 6C6.24988 3.65279 8.15267 1.75 10.4999 1.75C12.8471 1.75 14.7499 3.65279 14.7499 6C14.7499 8.34721 12.8471 10.25 10.4999 10.25C8.15267 10.25 6.24988 8.34721 6.24988 6Z" fill="#141B34"/>
<path fill-rule="evenodd" clip-rule="evenodd" d="M17.4999 12.75C14.8765 12.75 12.7499 14.8766 12.7499 17.5C12.7499 20.1234 14.8765 22.25 17.4999 22.25C20.1232 22.25 22.2499 20.1234 22.2499 17.5C22.2499 14.8766 20.1232 12.75 17.4999 12.75ZM18.2499 15.5C18.2499 15.0858 17.9141 14.75 17.4999 14.75C17.0857 14.75 16.7499 15.0858 16.7499 15.5V17.9C16.7499 18.2067 16.9366 18.4825 17.2213 18.5964L18.7213 19.1964C19.1059 19.3502 19.5424 19.1631 19.6962 18.7785C19.8501 18.394 19.663 17.9575 19.2784 17.8036L18.2499 17.3922V15.5Z" fill="#141B34"/>
<path d="M14.0528 12.2856C12.3637 13.4045 11.2498 15.3221 11.2498 17.5C11.2498 18.4868 11.4784 19.4201 11.8857 20.25H5.1017C4.35912 20.25 3.64082 19.9677 3.10641 19.4556L2.57009 18.9417C1.81169 18.2149 1.43456 17.0047 2.06991 15.958C3.7881 13.1275 7.10744 11.75 10.4998 11.75C11.7172 11.75 12.925 11.9274 14.0528 12.2856Z" fill="#141B34"/>
</svg>
