<svg width="24" height="24" viewBox="0 0 24 24" fill="none" xmlns="http://www.w3.org/2000/svg">
<path opacity="0.4" d="M14 6C14 7.933 12.433 9.5 10.5 9.5C8.567 9.5 7 7.933 7 6C7 4.067 8.567 2.5 10.5 2.5C12.433 2.5 14 4.067 14 6Z" stroke="#141B34" stroke-width="1.5" stroke-linecap="round" stroke-linejoin="round"/>
<path d="M19 18.5L17.5 17.9V15.5M13.5 17.5C13.5 19.7091 15.2909 21.5 17.5 21.5C19.7091 21.5 21.5 19.7091 21.5 17.5C21.5 15.2909 19.7091 13.5 17.5 13.5C15.2909 13.5 13.5 15.2909 13.5 17.5Z" stroke="#141B34" stroke-width="1.5" stroke-linecap="round" stroke-linejoin="round"/>
<path opacity="0.4" d="M13.0095 12.8004C12.2829 12.6212 11.4464 12.5002 10.5 12.5C8.46224 12.5004 6.93392 13.0617 5.91504 13.5571C5.91504 13.5571 0.94821 16.071 2.99439 17.9368C3.99393 18.8482 5.10717 19.5 6.50677 19.5L11.3134 19.4996" stroke="#141B34" stroke-width="1.5" stroke-linecap="round" stroke-linejoin="round"/>
</svg>
