<svg width="24" height="24" viewBox="0 0 24 24" fill="none" xmlns="http://www.w3.org/2000/svg">
<path d="M4.801 14.6493C7.98419 12.7836 12.0162 12.7836 15.1994 14.6493C15.3002 14.7084 15.4257 14.7781 15.5686 14.8574C16.2012 15.2086 17.1731 15.7481 17.8385 16.3892C18.254 16.7896 18.6635 17.3303 18.7383 18.0037C18.8184 18.7252 18.4961 19.3911 17.8798 19.9691C16.8297 20.9539 15.5618 21.75 13.9194 21.75H6.08096C4.43862 21.75 3.1707 20.9538 2.12062 19.9691C1.5043 19.3911 1.18195 18.7252 1.26207 18.0037C1.33684 17.3303 1.7464 16.7896 2.16189 16.3892C2.82728 15.7481 3.79919 15.2086 4.43183 14.8574C4.57465 14.7781 4.7002 14.7084 4.801 14.6493Z" fill="#141B34"/>
<path d="M5.25019 7C5.25019 4.37665 7.37684 2.25 10.0002 2.25C12.6235 2.25 14.7502 4.37665 14.7502 7C14.7502 9.62335 12.6235 11.75 10.0002 11.75C7.37684 11.75 5.25019 9.62335 5.25019 7Z" fill="#141B34"/>
<path fill-rule="evenodd" clip-rule="evenodd" d="M15.251 5.7C15.251 3.79462 16.7956 2.25 18.701 2.25C20.6064 2.25 22.151 3.79462 22.151 5.7C22.151 6.37964 21.9545 7.01339 21.6151 7.5475L22.533 8.4714C22.825 8.76525 22.8234 9.24012 22.5296 9.53205C22.2357 9.82399 21.7609 9.82245 21.4689 9.5286L20.5558 8.6095C20.0201 8.95168 19.3837 9.15 18.701 9.15C16.7956 9.15 15.251 7.60538 15.251 5.7ZM18.701 3.75C17.624 3.75 16.751 4.62304 16.751 5.7C16.751 6.77696 17.624 7.65 18.701 7.65C19.7779 7.65 20.651 6.77696 20.651 5.7C20.651 4.62304 19.7779 3.75 18.701 3.75Z" fill="#141B34"/>
</svg>
