<svg width="24" height="24" viewBox="0 0 24 24" fill="none" xmlns="http://www.w3.org/2000/svg">
<path fill-rule="evenodd" clip-rule="evenodd" d="M18.7501 20.1643L21.3358 22.7498L22.75 21.3356L20.1643 18.7501L22.75 16.1644L21.3358 14.7502L18.7501 17.3359L16.1642 14.75L14.75 16.1642L17.3359 18.7501L14.75 21.3361L16.1642 22.7503L18.7501 20.1643Z" fill="#141B34"/>
<path d="M10 1.25C7.37665 1.25 5.25 3.37665 5.25 6C5.25 8.62335 7.37665 10.75 10 10.75C12.6234 10.75 14.75 8.62335 14.75 6C14.75 3.37665 12.6234 1.25 10 1.25Z" fill="#141B34"/>
<path d="M10 12.25C5.26471 12.25 1.25 15.6289 1.25 20V20.75H13.2153L15.2148 18.7503L12.6289 16.1644L15.0942 13.6991C13.6473 12.7829 11.8805 12.25 10 12.25Z" fill="#141B34"/>
</svg>
