<svg width="24" height="24" viewBox="0 0 24 24" fill="none" xmlns="http://www.w3.org/2000/svg">
<path fill-rule="evenodd" clip-rule="evenodd" d="M4.78447 3.47447C6.50068 2.1158 8.98359 1.75 12 1.75C15.0164 1.75 17.4993 2.1158 19.2155 3.47447C20.9793 4.87075 21.75 7.15524 21.75 10.5C21.75 13.8448 20.9793 16.1293 19.2155 17.5255C17.4993 18.8842 15.0164 19.25 12 19.25C11.7638 19.25 11.5317 19.2477 11.3035 19.2429L8.63524 21.9249C8.42819 22.133 8.14674 22.25 7.85318 22.25C7.24391 22.25 6.75 21.7561 6.75 21.1468V18.5774C5.37021 18.0973 4.2602 17.3082 3.48859 16.0708C2.63347 14.6995 2.25 12.8656 2.25 10.5C2.25 7.15524 3.02075 4.87075 4.78447 3.47447ZM8.74151 5.50365C8.96511 5.52579 9.167 5.64702 9.29164 5.83398L10.4486 7.56941C10.7758 8.06019 10.7111 8.71369 10.294 9.13078L9.57525 9.84951C9.93295 10.4341 10.3773 11.0349 10.9212 11.5787C11.465 12.1226 12.0658 12.5669 12.6504 12.9246L13.3691 12.2059C13.7862 11.7888 14.4397 11.7241 14.9305 12.0513L16.6659 13.2083C16.8529 13.3329 16.9741 13.5348 16.9962 13.7584C17.0184 13.982 16.9391 14.2037 16.7802 14.3626L16.1365 15.0063C15.7116 15.4312 15.0668 15.6256 14.4472 15.4147C13.9679 15.2515 13.2324 14.9657 12.4151 14.5204C11.596 14.0742 10.682 13.4609 9.86052 12.6394C9.039 11.8179 8.42575 10.9039 7.97949 10.0848C7.53421 9.26748 7.2484 8.53199 7.08522 8.0527C6.87427 7.43311 7.06866 6.78829 7.4936 6.36335L8.13728 5.71967C8.29616 5.56079 8.51791 5.48151 8.74151 5.50365ZM13.5999 9.49961C13.5999 9.16824 13.3313 8.89961 12.9999 8.89961C12.779 8.89961 12.5999 8.72052 12.5999 8.49961C12.5999 8.2787 12.779 8.09961 12.9999 8.09961C13.7731 8.09961 14.3999 8.72641 14.3999 9.49961C14.3999 9.72052 14.2208 9.89961 13.9999 9.89961C13.779 9.89961 13.5999 9.72052 13.5999 9.49961ZM12.9999 7.39961C14.1597 7.39961 15.0999 8.33981 15.0999 9.49961C15.0999 9.72052 15.279 9.89961 15.4999 9.89961C15.7208 9.89961 15.8999 9.72052 15.8999 9.49961C15.8999 7.89798 14.6015 6.59961 12.9999 6.59961C12.779 6.59961 12.5999 6.7787 12.5999 6.99961C12.5999 7.22052 12.779 7.39961 12.9999 7.39961ZM16.5999 9.49961C16.5999 7.51138 14.9881 5.89961 12.9999 5.89961C12.779 5.89961 12.5999 5.72052 12.5999 5.49961C12.5999 5.2787 12.779 5.09961 12.9999 5.09961C15.43 5.09961 17.3999 7.06956 17.3999 9.49961C17.3999 9.72052 17.2208 9.89961 16.9999 9.89961C16.779 9.89961 16.5999 9.72052 16.5999 9.49961Z" fill="#141B34"/>
</svg>
