<svg width="24" height="24" viewBox="0 0 24 24" fill="none" xmlns="http://www.w3.org/2000/svg">
<path opacity="0.4" d="M5.09902 4.74621C4.81935 3.19396 6.00087 1.75 7.58476 1.75C8.71735 1.75 9.70614 2.50727 10.0143 3.5958L11.3621 7.74681L12.6203 3.57744C12.9254 2.49978 13.9043 1.75 15.0257 1.75C16.6172 1.75 17.7919 3.21971 17.4761 4.7722L16.1528 9.50277C16.4949 9.56425 16.7667 9.62356 16.9855 9.69482C19.2138 10.4205 20.5702 12.6808 20.1849 14.9993C20.1241 15.3648 19.9863 15.7818 19.7684 16.4413L19.7684 16.4414L19.2956 17.8726C18.9394 18.9518 18.7111 19.6436 18.3265 20.2035C17.7126 21.0972 16.8123 21.7527 15.7751 22.0587C15.1251 22.2504 14.4002 22.2503 13.2746 22.25L11.5149 22.2501H11.5149C9.89863 22.2506 8.85269 22.2509 7.9388 21.8429C7.544 21.6666 7.17524 21.4366 6.84282 21.1594C6.07407 20.5182 5.60785 19.5765 4.88499 18.1164C4.57553 17.4918 4.23136 16.7971 4.05765 16.3606C3.8769 15.9063 3.76105 15.4835 3.75092 15.0252C3.7429 14.6622 3.78724 14.3 3.8826 13.9498C4.00305 13.5074 4.21758 13.1255 4.50266 12.729C4.77655 12.3481 5.14399 11.9163 5.5947 11.3866L5.59471 11.3866L6.55175 10.2802L5.09902 4.74621Z" fill="#141B34"/>
</svg>
