<svg width="24" height="24" viewBox="0 0 24 24" fill="none" xmlns="http://www.w3.org/2000/svg">
<path d="M21.3358 22.75L1.25 2.66421L2.66421 1.25L22.75 21.3358L21.3358 22.75Z" fill="#141B34"/>
<path d="M2 3.24976C1.58579 3.24976 1.25 3.58554 1.25 3.99976V19.9998C1.25 20.414 1.58579 20.7498 2 20.7498H17C17.4142 20.7498 17.75 20.414 17.75 19.9998V17.7498L3.25 3.24976H2Z" fill="#141B34"/>
<path d="M22.75 6.71128C22.75 6.36487 22.5715 6.04523 22.2828 5.87456C21.994 5.70388 21.6396 5.70856 21.3551 5.88679L17.75 8.14511V3.99976C17.75 3.58554 17.4142 3.24976 17 3.24976H6.78553L17.75 14.2142V10.3878L20.908 8.40957V17.3722L22.75 19.2142V6.71128Z" fill="#141B34"/>
</svg>
