<svg width="24" height="24" viewBox="0 0 24 24" fill="none" xmlns="http://www.w3.org/2000/svg">
<path fill-rule="evenodd" clip-rule="evenodd" d="M10.9763 1.49951H13.0237C14.9764 1.49949 16.5433 1.49947 17.7741 1.66495C19.0491 1.83637 20.1122 2.2017 20.955 3.04452C21.7978 3.88735 22.1631 4.9504 22.3346 6.22543C22.5 7.45624 22.5 9.02314 22.5 10.9758V12.9657C22.5 14.161 22.5 15.204 22.4655 16.1029C22.4648 16.1216 22.4641 16.1405 22.4634 16.1595C22.452 16.4608 22.4392 16.8009 22.3815 17.0781C22.3115 17.414 22.1287 17.8904 21.6012 18.1507C21.0633 18.4161 20.5651 18.2571 20.2624 18.1093C20.0048 17.9836 19.7214 17.7828 19.4648 17.601C19.4492 17.59 19.4336 17.579 19.4182 17.568L18.0724 16.6158C17.6216 16.2968 17.5147 15.6728 17.8337 15.2219C18.1527 14.7711 18.7767 14.6642 19.2276 14.9832L20.1696 15.6497C20.3033 15.7443 20.3701 15.7916 20.4238 15.7646C20.4775 15.7376 20.4793 15.6561 20.4831 15.4931C20.4999 14.7584 20.5 13.9206 20.5 12.9495V11.0495C20.5 9.00599 20.4979 7.57394 20.3524 6.49192C20.2108 5.43867 19.9501 4.86803 19.5408 4.45874C19.1315 4.04945 18.5608 3.78872 17.5076 3.64711C16.4256 3.50164 14.9935 3.49951 12.95 3.49951H11.05C9.00648 3.49951 7.57443 3.50164 6.49241 3.64711C5.43916 3.78872 4.86852 4.04945 4.45923 4.45874C4.04994 4.86803 3.78921 5.43867 3.6476 6.49192C3.50213 7.57394 3.5 9.00599 3.5 11.0495V12.9495C3.5 14.993 3.50213 16.4251 3.6476 17.5071C3.78921 18.5604 4.04994 19.131 4.45923 19.5403C4.86852 19.9496 5.43916 20.2103 6.49241 20.3519C7.57443 20.4974 9.00648 20.4995 11.05 20.4995H12.95C15.0294 20.4995 16.4747 20.4972 17.5609 20.3446C18.1078 20.2678 18.6134 20.6488 18.6903 21.1957C18.7671 21.7427 18.386 22.2483 17.8391 22.3251C16.5975 22.4996 15.0111 22.4995 13.0277 22.4995H10.9763C9.02362 22.4995 7.45673 22.4996 6.22592 22.3341C4.95089 22.1627 3.88784 21.7973 3.04501 20.9545C2.20218 20.1117 1.83686 19.0486 1.66543 17.7736C1.49995 16.5428 1.49997 14.9759 1.5 13.0232V10.9758C1.49997 9.02315 1.49995 7.45625 1.66543 6.22543C1.83686 4.9504 2.20218 3.88735 3.04501 3.04452C3.88784 2.2017 4.95089 1.83637 6.22592 1.66495C7.45674 1.49947 9.02364 1.49949 10.9763 1.49951Z" fill="#141B34"/>
<path d="M12.9054 9.00883L12.8244 8.96591C12.0509 8.5557 11.4151 8.2186 10.8916 8.01074C10.3592 7.79942 9.80872 7.66398 9.24815 7.81224C8.86157 7.91448 8.50485 8.10979 8.21396 8.38371C7.7826 8.78991 7.63215 9.33633 7.56522 9.88836C7.49996 10.4266 7.49998 11.1193 7.5 11.9509V12.0486C7.49998 12.8803 7.49996 13.5729 7.56522 14.1112C7.63215 14.6632 7.7826 15.2096 8.21396 15.6158C8.50485 15.8898 8.86157 16.0851 9.24815 16.1873C9.80872 16.3356 10.3592 16.2001 10.8916 15.9888C11.4152 15.781 12.0509 15.4439 12.8245 15.0336L12.9054 14.9907C13.7056 14.5664 14.3624 14.2182 14.8367 13.8948C15.3113 13.5712 15.7541 13.1762 15.9171 12.5981C16.0276 12.2063 16.0276 11.7932 15.9171 11.4015C15.7541 10.8234 15.3113 10.4283 14.8367 10.1047C14.3624 9.78135 13.7056 9.43312 12.9054 9.00883Z" fill="#141B34"/>
</svg>
