<svg width="24" height="24" viewBox="0 0 24 24" fill="none" xmlns="http://www.w3.org/2000/svg">
<path fill-rule="evenodd" clip-rule="evenodd" d="M8.71014 3.00009C10.9034 3.00164 13.0966 3.00164 15.2899 3.00009C16.9816 2.9989 18.5711 3.07657 19.8558 4.28243C20.5937 4.97498 21.083 5.97257 21.8189 7.47304C22.1496 8.14725 22.5143 8.8144 22.7261 9.53823C22.8036 9.80298 22.8649 10.0735 22.9096 10.3477C23.0002 10.9023 23.0001 11.4683 23 12.3663L23 15.0002C23 15.5525 22.5523 16.0002 22 16.0002C21.4477 16.0002 21 15.5525 21 15.0002V12.4524C21 11.4408 20.997 11.0451 20.9358 10.6699C20.904 10.4756 20.8608 10.285 20.8066 10.0999C20.7031 9.74629 20.5433 9.41325 20.1168 8.54446C19.252 6.78273 18.924 6.15076 18.4871 5.74072C17.5538 4.86472 16.287 5.00019 15.0845 5.00019H8.91549C7.71303 5.00019 6.44623 4.86472 5.5129 5.74072C5.07602 6.15076 4.74803 6.78273 3.88318 8.54446C3.45668 9.41326 3.29688 9.74629 3.1934 10.0999C3.13923 10.285 3.096 10.4756 3.06427 10.6699C3.00302 11.0451 3.00001 11.4408 3.00001 12.4524V15.0002C3.00001 15.5525 2.5523 16.0002 2.00001 16.0002C1.44773 16.0002 1.00001 15.5525 1.00001 15.0002V12.4524C1.00001 11.5041 0.997001 10.9198 1.0904 10.3477C1.13516 10.0735 1.19642 9.80297 1.27389 9.53823C1.48534 8.81563 1.85083 8.14642 2.18111 7.47302C2.91703 5.97257 3.40631 4.97498 4.14419 4.28243C5.42896 3.07657 7.01838 2.9989 8.71014 3.00009Z" fill="#141B34"/>
<path fill-rule="evenodd" clip-rule="evenodd" d="M6.94965 7.99981H17.0494C17.9415 7.99979 18.6844 7.99978 19.2886 8.06001C20.6801 8.19874 21.8253 8.93202 22.483 10.1851C22.773 10.7376 22.8906 11.3379 22.9459 12.0088C23.0044 12.7192 23.0023 13.4345 23.0003 14.1477C22.9999 14.2795 22.9995 14.4112 22.9995 14.5428C22.9995 15.5344 22.9995 16.3398 22.9459 16.9908C22.8906 17.6617 22.773 18.262 22.483 18.8146C22.1426 19.4632 21.6466 20.0138 21.0356 20.4018C20.5033 20.7399 19.9218 20.8765 19.2886 20.9396C18.2967 21.0385 17.2387 21.0706 16.2421 20.9813C15.1761 20.8857 14.1778 20.4255 13.3844 19.6843C13.09 19.4093 12.8178 19.1075 12.5493 18.8036C12.3317 18.5573 12.2229 18.4341 12.081 18.4393C11.9392 18.4445 11.8384 18.577 11.6368 18.8419L11.6367 18.8419C11.4366 19.105 11.2284 19.3617 10.9935 19.5927C10.2689 20.3054 9.35824 20.7794 8.37001 20.9398C7.2042 21.129 5.87624 21.0558 4.71039 20.9396C4.07722 20.8765 3.49574 20.7399 2.9634 20.4018C2.35242 20.0138 1.85644 19.4632 1.51598 18.8146C1.22596 18.262 1.1084 17.6617 1.05312 16.9908C0.999482 16.3398 0.999491 15.5344 0.999501 14.5428C0.999501 14.4112 0.999118 14.2795 0.998735 14.1477C0.996663 13.4345 0.994585 12.7192 1.05312 12.0088C1.1084 11.3379 1.22596 10.7376 1.51598 10.1851C2.17366 8.93202 3.31887 8.19874 4.71039 8.06001C5.31458 7.99978 6.05747 7.99979 6.94965 7.99981ZM16 12C15.4477 12 15 12.4477 15 13C15 13.5523 15.4477 14 16 14H18C18.5523 14 19 13.5523 19 13C19 12.4477 18.5523 12 18 12H16Z" fill="#141B34"/>
</svg>
