<svg width="24" height="24" viewBox="0 0 24 24" fill="none" xmlns="http://www.w3.org/2000/svg">
<path fill-rule="evenodd" clip-rule="evenodd" d="M4.5 1.75C2.98122 1.75 1.75 2.98122 1.75 4.5L1.75 19.5C1.75 21.0188 2.98122 22.25 4.5 22.25L19.5 22.25C21.0188 22.25 22.25 21.0188 22.25 19.5L22.25 4.5C22.25 2.98122 21.0188 1.75 19.5 1.75L4.5 1.75ZM18.4701 8.24277C18.6041 7.70698 18.2783 7.16404 17.7425 7.03009C17.2067 6.89615 16.6638 7.22191 16.5299 7.7577C16.0805 9.55508 14.8542 10.5697 13.7269 11.0933C13.6501 11.129 13.5744 11.162 13.5 11.1927V8.00024C13.5 7.44795 13.0523 7.00024 12.5 7.00024H10.5C9.94772 7.00024 9.5 7.44795 9.5 8.00024C9.5 8.55252 9.94772 9.00024 10.5 9.00024H11.5V14.5566C9.71628 13.6623 7.5 11.6388 7.5 8.00024C7.5 7.44795 7.05228 7.00024 6.5 7.00024C5.94772 7.00024 5.5 7.44795 5.5 8.00024C5.5 13.8284 10.0009 16.4062 12.2575 16.9704C12.5562 17.0451 12.8727 16.9779 13.1154 16.7884C13.3581 16.5989 13.5 16.3082 13.5 16.0002L13.5 13.3081C13.7193 13.2451 13.9487 13.1673 14.1835 13.0736C14.5956 13.2434 15.1145 13.5356 15.5571 13.9529C16.1104 14.4745 16.5 15.1436 16.5 16.0002C16.5 16.5525 16.9477 17.0002 17.5 17.0002C18.0523 17.0002 18.5 16.5525 18.5 16.0002C18.5 14.4569 17.7723 13.2926 16.929 12.4976C16.6884 12.2708 16.4348 12.0701 16.1793 11.8946C17.1672 11.0782 18.0566 9.89713 18.4701 8.24277Z" fill="#141B34"/>
</svg>
