<svg width="24" height="24" viewBox="0 0 24 24" fill="none" xmlns="http://www.w3.org/2000/svg">
<path fill-rule="evenodd" clip-rule="evenodd" d="M11.9428 1.75H12.0572C14.2479 1.74999 15.9686 1.74998 17.312 1.93059C18.6886 2.11568 19.7809 2.50271 20.6391 3.36091C21.4973 4.21911 21.8843 5.31137 22.0694 6.68802C22.25 8.03144 22.25 9.75214 22.25 11.9428V12.0572C22.25 14.2479 22.25 15.9686 22.0694 17.312C21.8843 18.6886 21.4973 19.7809 20.6391 20.6391C19.7809 21.4973 18.6886 21.8843 17.312 22.0694C15.9686 22.25 14.2479 22.25 12.0572 22.25H11.9428C9.7521 22.25 8.03144 22.25 6.68802 22.0694C5.31137 21.8843 4.21911 21.4973 3.36091 20.6391C2.50272 19.7809 2.11568 18.6886 1.93059 17.312C1.74998 15.9686 1.74999 14.2479 1.75 12.0572V12.0572V11.9428V11.9428C1.74999 9.75211 1.74998 8.03144 1.93059 6.68802C2.11568 5.31137 2.50272 4.21911 3.36091 3.36091C4.21911 2.50271 5.31137 2.11568 6.68802 1.93059C8.03143 1.74998 9.75214 1.74999 11.9428 1.75ZM18.4701 8.24277C18.6041 7.70698 18.2783 7.16404 17.7425 7.03009C17.2067 6.89615 16.6638 7.22191 16.5299 7.7577C16.0805 9.55508 14.8542 10.5697 13.7269 11.0933C13.6501 11.129 13.5744 11.162 13.5 11.1927V8.00024C13.5 7.44795 13.0523 7.00024 12.5 7.00024H11.5C10.9477 7.00024 10.5 7.44795 10.5 8.00024C10.5 8.55252 10.9477 9.00024 11.5 9.00024V14.5566C9.71628 13.6623 7.5 11.6388 7.5 8.00024C7.5 7.44795 7.05228 7.00024 6.5 7.00024C5.94772 7.00024 5.5 7.44795 5.5 8.00024C5.5 13.8284 10.0009 16.4062 12.2575 16.9704C12.5562 17.0451 12.8727 16.9779 13.1154 16.7884C13.3581 16.5989 13.5 16.3082 13.5 16.0002L13.5 13.3081C13.7193 13.2451 13.9487 13.1673 14.1835 13.0736C14.5956 13.2434 15.1145 13.5356 15.5571 13.9529C16.1104 14.4745 16.5 15.1436 16.5 16.0002C16.5 16.5525 16.9477 17.0002 17.5 17.0002C18.0523 17.0002 18.5 16.5525 18.5 16.0002C18.5 14.4569 17.7723 13.2926 16.929 12.4976C16.6884 12.2708 16.4348 12.0701 16.1793 11.8946C17.1672 11.0782 18.0566 9.89713 18.4701 8.24277Z" fill="#141B34"/>
</svg>
