<svg width="24" height="24" viewBox="0 0 24 24" fill="none" xmlns="http://www.w3.org/2000/svg">
<path opacity="0.4" fill-rule="evenodd" clip-rule="evenodd" d="M9.18557 2.45052C9.2129 3.00213 8.7879 3.47146 8.23629 3.4988C6.16432 3.60148 5.19943 3.90811 4.55377 4.55377C3.90811 5.19943 3.60148 6.16432 3.4988 8.23629C3.47146 8.7879 3.00213 9.21291 2.45052 9.18557C1.89892 9.15823 1.47391 8.6889 1.50125 8.1373C1.60669 6.00982 1.92267 4.35645 3.13956 3.13956C4.35645 1.92267 6.00982 1.60669 8.13729 1.50125C8.6889 1.47391 9.15823 1.89892 9.18557 2.45052ZM14.8145 2.45052C14.8418 1.89892 15.3111 1.47391 15.8628 1.50125C17.9902 1.60669 19.6436 1.92267 20.8605 3.13956C22.0774 4.35645 22.3934 6.00982 22.4988 8.1373C22.5261 8.6889 22.1011 9.15823 21.5495 9.18557C20.9979 9.21291 20.5286 8.7879 20.5012 8.23629C20.3986 6.16432 20.0919 5.19943 19.4463 4.55377C18.8006 3.90811 17.8357 3.60148 15.7638 3.4988C15.2121 3.47146 14.7871 3.00213 14.8145 2.45052ZM2.45052 14.8145C3.00213 14.7871 3.47146 15.2121 3.4988 15.7638C3.60148 17.8357 3.90811 18.8006 4.55377 19.4463C5.19943 20.0919 6.16432 20.3986 8.23629 20.5012C8.78789 20.5286 9.2129 20.9979 9.18556 21.5495C9.15822 22.1011 8.68889 22.5261 8.13729 22.4988C6.00982 22.3934 4.35645 22.0774 3.13956 20.8605C1.92267 19.6436 1.60669 17.9902 1.50125 15.8628C1.47391 15.3111 1.89892 14.8418 2.45052 14.8145ZM21.5495 14.8145C22.1011 14.8418 22.5261 15.3111 22.4988 15.8628C22.3934 17.9902 22.0774 19.6436 20.8605 20.8605C19.6436 22.0774 17.9902 22.3934 15.8628 22.4988C15.3111 22.5261 14.8418 22.1011 14.8145 21.5495C14.7871 20.9979 15.2121 20.5286 15.7638 20.5012C17.8357 20.3986 18.8006 20.0919 19.4463 19.4463C20.0919 18.8006 20.3986 17.8357 20.5012 15.7638C20.5286 15.2121 20.9979 14.7871 21.5495 14.8145Z" fill="#141B34"/>
<path fill-rule="evenodd" clip-rule="evenodd" d="M12 6C12.5523 6 13 6.44772 13 7V17C13 17.5523 12.5523 18 12 18C11.4478 18 11 17.5523 11 17V7C11 6.44772 11.4478 6 12 6ZM8.00006 8C8.55235 8 9.00006 8.44772 9.00006 9V15C9.00006 15.5523 8.55235 16 8.00006 16C7.44778 16 7.00006 15.5523 7.00006 15V9C7.00006 8.44772 7.44778 8 8.00006 8ZM16.0001 8C16.5523 8 17.0001 8.44772 17.0001 9V15C17.0001 15.5523 16.5523 16 16.0001 16C15.4478 16 15.0001 15.5523 15.0001 15V9C15.0001 8.44772 15.4478 8 16.0001 8Z" fill="#141B34"/>
</svg>
