<svg width="24" height="24" viewBox="0 0 24 24" fill="none" xmlns="http://www.w3.org/2000/svg">
<path d="M21.3348 22.75L1.24902 2.66421L2.66324 1.25L22.749 21.3358L21.3348 22.75Z" fill="#141B34"/>
<path d="M14.7454 3.99951C14.7454 3.72515 14.5956 3.47269 14.3548 3.34122C14.1139 3.20975 13.8206 3.22027 13.5898 3.36865L9.51903 5.98583L14.7454 11.2122V3.99951Z" fill="#141B34"/>
<path d="M6.7758 7.74951H1.99609C1.58188 7.74951 1.24609 8.0853 1.24609 8.49951V15.4995C1.24609 15.9137 1.58188 16.2495 1.99609 16.2495H6.7758L13.5898 20.6304C13.8206 20.7788 14.1139 20.7893 14.3548 20.6578C14.5956 20.5263 14.7454 20.2739 14.7454 19.9995V14.7477L7.36705 7.36938L6.7758 7.74951Z" fill="#141B34"/>
<path d="M20.7454 11.9995C20.7454 10.3785 20.1062 8.87447 19.0078 7.6748L20.4829 6.32422C21.8861 7.8568 22.7454 9.83197 22.7454 11.9995C22.7454 13.988 22.0222 15.8146 20.8193 17.2861L19.396 15.8628C20.2553 14.7486 20.7454 13.4189 20.7454 11.9995Z" fill="#141B34"/>
<path d="M16.7442 11.9997C16.7442 11.0848 16.4432 10.2537 15.9492 9.60624L17.5393 8.39307C18.2961 9.38499 18.7442 10.6414 18.7442 11.9997C18.7442 12.938 18.5303 13.8278 18.1485 14.6153L16.6018 13.0686C16.6943 12.7307 16.7442 12.3721 16.7442 11.9997Z" fill="#141B34"/>
</svg>
