<svg width="24" height="24" viewBox="0 0 24 24" fill="none" xmlns="http://www.w3.org/2000/svg">
<path fill-rule="evenodd" clip-rule="evenodd" d="M1.25 12.0002C1.25 6.06312 6.06294 1.25018 12 1.25018C17.9371 1.25018 22.75 6.06312 22.75 12.0002C22.75 14.7549 21.7139 17.2675 20.0101 19.1698C19.7069 19.5083 19.5553 19.6776 19.4138 19.6717C19.3604 19.6695 19.3337 19.6623 19.2864 19.6374C19.1612 19.5714 19.0937 19.2458 18.9588 18.5945C18.292 15.3753 15.4075 13.0002 11.9996 13.0002C8.59169 13.0002 5.70797 15.3754 5.04117 18.5945L5.04117 18.5945C4.90627 19.2458 4.83882 19.5714 4.71357 19.6374C4.66625 19.6623 4.63961 19.6695 4.58617 19.6717C4.44474 19.6776 4.29313 19.5083 3.9899 19.1698C2.28612 17.2675 1.25 14.7549 1.25 12.0002ZM7.91415 7.37604C7.56951 7.14627 7.10385 7.2394 6.87409 7.58405C6.64432 7.9287 6.73745 8.39435 7.0821 8.62411C7.18652 8.69372 7.4078 8.82749 7.51987 8.89514C7.66531 8.9838 7.79644 9.06721 7.91141 9.15329C8.16911 9.34621 8.20671 9.45182 8.20976 9.46941L8.20911 9.47199C8.20362 9.49406 8.18479 9.56965 8.11195 9.672C7.97676 9.86194 7.7571 10.0996 7.39428 10.4883C7.11165 10.7912 7.12802 11.2657 7.43083 11.5484C7.73365 11.831 8.20824 11.8146 8.49086 11.5118L8.52223 11.4782C8.84355 11.134 9.13388 10.823 9.33404 10.5418C9.55104 10.2369 9.73789 9.86564 9.71027 9.40694C9.70636 9.34196 9.69882 9.27724 9.68769 9.21309C9.58124 8.59925 9.13156 8.19296 8.81036 7.9525C8.63588 7.82188 8.45464 7.70823 8.30058 7.61432C8.2546 7.5863 8.21236 7.56079 8.17316 7.53711L8.17313 7.53709C8.07015 7.47489 7.98812 7.42535 7.91415 7.37604ZM16.9142 8.62411C17.2588 8.39435 17.3519 7.9287 17.1222 7.58405C16.8924 7.2394 16.4267 7.14627 16.0821 7.37604C16.0081 7.42534 15.9261 7.47488 15.8232 7.53706L15.8231 7.53709L15.8231 7.5371L15.8229 7.53723C15.7837 7.56088 15.7416 7.58634 15.6957 7.61432C15.5416 7.70823 15.3604 7.82188 15.1859 7.9525C14.8647 8.19296 14.415 8.59925 14.3086 9.21309C14.2974 9.27725 14.2899 9.34196 14.286 9.40694C14.2584 9.86564 14.4452 10.2369 14.6622 10.5418C14.8624 10.823 15.1527 11.134 15.474 11.4782L15.5054 11.5118C15.788 11.8146 16.2626 11.831 16.5654 11.5484C16.8682 11.2657 16.8846 10.7912 16.602 10.4883C16.2391 10.0996 16.0195 9.86194 15.8843 9.672C15.8083 9.5652 15.7865 9.46941 15.7865 9.46941C15.7895 9.45181 15.8271 9.34621 16.0848 9.15329C16.1998 9.06721 16.3309 8.9838 16.4764 8.89514C16.5885 8.82749 16.8097 8.69373 16.9142 8.62411Z" fill="#141B34"/>
<path fill-rule="evenodd" clip-rule="evenodd" d="M9.21559 16.7321C9.21837 16.9134 9.22379 17.1044 9.2294 17.3019C9.25045 18.043 9.27408 18.8751 9.17039 19.6232C9.01741 20.7269 8.57794 21.83 7.42094 22.6195C7.07879 22.853 6.61216 22.7649 6.37869 22.4227C6.14522 22.0806 6.23331 21.614 6.57546 21.3805C7.27596 20.9025 7.56922 20.2497 7.68459 19.4173C7.69229 19.3618 7.69915 19.3062 7.70524 19.2504C7.58234 19.5988 7.21786 19.8114 6.84608 19.7344C6.44047 19.6504 6.17977 19.2535 6.26379 18.8479C6.80928 16.2143 9.17747 14.25 11.9982 14.25C14.8189 14.25 17.1871 16.2143 17.7326 18.8479C17.8166 19.2535 17.5559 19.6504 17.1503 19.7344C16.7796 19.8112 16.4162 19.6 16.2922 19.2535C16.2982 19.3074 16.3049 19.3613 16.3123 19.415C16.4282 20.2496 16.7221 20.9038 17.4208 21.3804C17.763 21.6138 17.8512 22.0805 17.6178 22.4226C17.3844 22.7648 16.9177 22.853 16.5756 22.6196C15.419 21.8307 14.9799 20.7252 14.8266 19.6213C14.7224 18.8709 14.7459 18.037 14.7667 17.296C14.7722 17.1003 14.7776 16.9111 14.7803 16.7317C14.0276 16.1197 13.0589 15.75 11.9982 15.75C10.9373 15.75 9.9684 16.1199 9.21559 16.7321ZM11.9982 18.25C12.4124 18.25 12.7482 18.5858 12.7482 19V21C12.7482 21.4142 12.4124 21.75 11.9982 21.75C11.584 21.75 11.2482 21.4142 11.2482 21V19C11.2482 18.5858 11.584 18.25 11.9982 18.25Z" fill="#141B34"/>
</svg>
