<svg width="24" height="24" viewBox="0 0 24 24" fill="none" xmlns="http://www.w3.org/2000/svg">
<path fill-rule="evenodd" clip-rule="evenodd" d="M1.53476 2.51846C1.71708 2.34655 1.96437 2.24998 2.22222 2.24998H17.7778C18.3147 2.24998 18.75 2.66038 18.75 3.16664V6.24998H22C22.4142 6.24998 22.75 6.58576 22.75 6.99998V21C22.75 21.4142 22.4142 21.75 22 21.75H2.00004C1.58582 21.75 1.25004 21.4142 1.25004 21L1.25 6.99998L1.25001 6.99635L1.25 3.16664C1.25 2.92352 1.35243 2.69037 1.53476 2.51846ZM16.8056 4.08329V6.24998H3.19445L3.19445 4.08329H16.8056ZM17.5 11.75C18.7426 11.75 19.75 12.7574 19.75 14C19.75 15.2426 18.7426 16.25 17.5 16.25C16.2574 16.25 15.25 15.2426 15.25 14C15.25 12.7574 16.2574 11.75 17.5 11.75Z" fill="#141B34"/>
</svg>
