<svg width="24" height="24" viewBox="0 0 24 24" fill="none" xmlns="http://www.w3.org/2000/svg">
<path d="M6.90576 8H19.9989" stroke="#141B34" stroke-width="1.5" stroke-linecap="round" stroke-linejoin="round"/>
<path opacity="0.4" d="M13.4526 3V2" stroke="#141B34" stroke-width="1.5" stroke-linecap="round" stroke-linejoin="round"/>
<path d="M9.26967 6.20508C8.61713 6.81013 8.48822 6.90444 8.30949 7.07048C8.05332 7.30847 7.96568 7.67285 8.05487 8.00914L10.1232 15.8071C10.2583 16.3163 10.6822 16.7002 11.2068 16.7883C12.7124 17.0411 14.2482 17.0501 15.7533 16.7863C16.2506 16.6991 16.6525 16.3361 16.7855 15.8541L18.9568 7.98219C19.0425 7.67138 18.982 7.32926 18.756 7.0973C18.5719 6.90833 18.4429 6.83883 17.7595 6.20508C17.0016 5.50237 16.2761 4.23423 15.9698 3.84922C15.6634 3.46422 15.4277 3.27522 15.0389 3.18796C14.0354 2.96274 12.9937 2.96274 11.9902 3.18796C11.6014 3.27522 11.401 3.41763 11.0594 3.84922C10.7178 4.28082 10.0275 5.50237 9.26967 6.20508Z" stroke="#141B34" stroke-width="1.5" stroke-linecap="round" stroke-linejoin="round"/>
<path opacity="0.4" d="M4.00146 18.3028L7.98974 19.8481C10.5253 20.8306 11.7932 21.3218 12.6961 20.7702C13.5989 20.2184 13.5989 18.9526 13.5989 16.4207V8.00635M4.00146 14.0036V22" stroke="#141B34" stroke-width="1.5" stroke-linecap="round" stroke-linejoin="round"/>
</svg>
