<svg width="24" height="24" viewBox="0 0 24 24" fill="none" xmlns="http://www.w3.org/2000/svg">
<path opacity="0.4" fill-rule="evenodd" clip-rule="evenodd" d="M21.9983 13V15C21.9983 17.8284 21.9983 19.2426 21.1196 20.1213C20.2409 21 18.8267 21 15.9983 21H9.99829C6.22705 21 4.34144 21 3.16986 19.8284C1.99829 18.6568 1.99829 16.7712 1.99829 13V11C1.99829 9.33128 1.99829 8.03178 2.09978 6.99996H17.9983C18.5792 6.91908 20.0167 6.98158 21.1196 7.87864C21.9983 8.75732 21.9983 10.1715 21.9983 13ZM17.5002 15C16.6718 15 16.0002 14.3284 16.0002 13.5C16.0002 12.6716 16.6718 12 17.5002 12C18.3287 12 19.0002 12.6716 19.0002 13.5C19.0002 14.3284 18.3287 15 17.5002 15Z" fill="#141B34"/>
<path d="M16.0002 13.5C16.0002 14.3284 16.6718 15 17.5002 15C18.3287 15 19.0002 14.3284 19.0002 13.5C19.0002 12.6716 18.3287 12 17.5002 12C16.6718 12 16.0002 12.6716 16.0002 13.5Z" stroke="#141B34" stroke-width="1.5"/>
<path d="M10.0002 15L3.00024 22M10.0002 22L3.00024 15" stroke="#141B34" stroke-width="1.5" stroke-linecap="round"/>
<path d="M10.0002 7H16.0002C18.8287 7 20.2429 7 21.1216 7.87868C22.0002 8.75736 22.0002 10.1716 22.0002 13V15C22.0002 17.8284 22.0002 19.2426 21.1216 20.1213C20.2429 21 18.8287 21 16.0002 21H13.4993M18.0002 7C18.0002 6.07003 18.0002 5.60504 17.898 5.22354C17.6206 4.18827 16.812 3.37962 15.7767 3.10222C15.3952 3 14.9302 3 14.0002 3H10.0002C6.22901 3 4.34339 3 3.17182 4.17157C2.00024 5.34315 2.00024 7.22876 2.00024 11V12" stroke="#141B34" stroke-width="1.5" stroke-linecap="round"/>
</svg>
