<svg width="24" height="24" viewBox="0 0 24 24" fill="none" xmlns="http://www.w3.org/2000/svg">
<path d="M14.8303 18.75H9.17013C8.41206 18.75 7.79176 18.75 7.27978 18.7923C6.74446 18.8366 6.27355 18.9303 5.82241 19.1444C5.37127 19.3585 5.02216 19.6541 4.68369 20.0245C4.5396 20.1822 4.04819 21.013 3.62049 21.726C3.33259 22.2059 3.18863 22.4458 3.27502 22.5979C3.36142 22.7499 3.63769 22.7499 4.19024 22.7499H19.81C20.3625 22.7499 20.6388 22.7499 20.7252 22.5979C20.8116 22.4458 20.6677 22.2059 20.3798 21.7259C19.9521 21.013 19.4608 20.1822 19.3167 20.0245C18.9782 19.6541 18.6291 19.3585 18.178 19.1444C17.7268 18.9303 17.2559 18.8366 16.7206 18.7923C16.2086 18.75 15.5883 18.75 14.8303 18.75Z" fill="#141B34"/>
<path d="M8.76321 5.25C8.58791 5.25 8.50025 5.25 8.42914 5.20747C8.36011 5.16618 8.29605 5.06858 8.28564 4.98883C8.27492 4.90666 8.30192 4.84441 8.35591 4.7199C8.46291 4.47319 8.63334 4.26093 8.9742 3.83641L10.0254 2.52716C10.3315 2.21336 10.6686 1.86776 10.9273 1.66545C11.2114 1.4433 11.559 1.25 12.0018 1.25C12.4445 1.25 12.7922 1.4433 13.0762 1.66545C13.3349 1.86776 13.672 2.21336 13.9781 2.52716L15.0294 3.83645C15.3702 4.26094 15.5406 4.4732 15.6476 4.7199C15.7016 4.84441 15.7286 4.90666 15.7179 4.98883C15.7075 5.06858 15.6434 5.16618 15.5744 5.20747C15.5033 5.25 15.4156 5.25 15.2403 5.25H8.76321Z" fill="#141B34"/>
<path opacity="0.4" d="M12.0009 13C12.5532 13 13.0009 13.4477 13.0009 14V16.65C13.0009 16.9328 13.0009 17.0743 13.0887 17.1621C13.1766 17.25 13.318 17.25 13.6009 17.25H16.8165C17.1384 17.25 17.2993 17.25 17.389 17.1466C17.4787 17.0431 17.456 16.8838 17.4105 16.5651L16.0819 7.26515C16.0468 7.01953 16.0293 6.89673 15.9447 6.82336C15.8601 6.75 15.736 6.75 15.4879 6.75H8.51344C8.26534 6.75 8.14128 6.75 8.05669 6.82336C7.9721 6.89673 7.95456 7.01953 7.91947 7.26515L6.5909 16.5651C6.54538 16.8838 6.52262 17.0431 6.61233 17.1466C6.70205 17.25 6.86299 17.25 7.18487 17.25H10.4009C10.6837 17.25 10.8251 17.25 10.913 17.1621C11.0009 17.0743 11.0009 16.9328 11.0009 16.65L11.0009 14C11.0009 13.4477 11.4486 13 12.0009 13Z" fill="#141B34"/>
</svg>
