<svg width="25" height="24" viewBox="0 0 25 24" fill="none" xmlns="http://www.w3.org/2000/svg">
<path opacity="0.4" d="M5.25 5L5.85461 15.5362C6.00945 18.1069 6.08688 19.3923 6.72868 20.3166C7.046 20.7736 7.4548 21.1593 7.92905 21.4492C8.51127 21.8051 9.21343 21.945 10.25 22H13.2943C14.4271 22 15.3123 22 16.0217 21.9349C15.9184 21.9157 15.8151 21.8923 15.7119 21.8647C14.645 21.5788 13.7949 20.8875 13.2831 20.001C12.5868 18.795 12.7309 17.3562 12.8835 16.9657C13.4552 14.8319 15.6486 13.5655 17.7824 14.1373C18.4098 14.3054 18.9621 14.6136 19.4148 15.0193L19.75 11.5L20.25 5H5.25Z" fill="#141B34"/>
<path d="M3.75 5H9.17963C9.84834 5 10.4728 4.6658 10.8437 4.1094L11.6563 2.8906C12.0272 2.3342 12.6517 2 13.3204 2H17.8085C18.6693 2 19.4336 2.55086 19.7058 3.36754L20.25 5" stroke="#141B34" stroke-width="1.5" stroke-linecap="round"/>
<path d="M21.75 5H8.75" stroke="#141B34" stroke-width="1.5" stroke-linecap="round"/>
<path d="M20.25 5L19.75 11.5M5.25 5L5.85461 15.5362C6.00945 18.1069 6.08688 19.3923 6.72868 20.3166C7.046 20.7736 7.4548 21.1593 7.92905 21.4492C8.51127 21.8051 9.21343 21.945 10.25 22" stroke="#141B34" stroke-width="1.5" stroke-linecap="round"/>
<path d="M11.75 15.5L12.8863 16.9657C13.458 14.8319 15.6514 13.5655 17.7852 14.1373C18.8775 14.43 19.7425 15.1475 20.25 16.0646M21.75 20.5L20.6137 19.0363C20.0419 21.1701 17.8486 22.4365 15.7147 21.8647C14.6478 21.5788 13.7977 20.8875 13.2859 20.001" stroke="#141B34" stroke-width="1.5" stroke-linecap="round" stroke-linejoin="round"/>
</svg>
