<svg width="24" height="24" viewBox="0 0 24 24" fill="none" xmlns="http://www.w3.org/2000/svg">
<path opacity="0.4" d="M15.8868 4.07666C17.1488 5.55214 17.9211 7.53349 17.9211 9.71187C17.9211 14.2721 14.5364 17.9689 10.3612 17.9689C8.04167 17.9689 6.03867 16.909 4.67822 15.2243" stroke="#141B34" stroke-width="1.5" stroke-linecap="round" stroke-linejoin="round"/>
<path d="M16.4175 3.57289L13.3562 6.41545C13.2666 6.49867 13.2726 6.64195 13.3537 6.73354C14.0308 7.49899 14.048 9.14306 13.2715 10.1707C12.4455 11.2638 11.2161 11.1154 10.774 10.8879L10.5235 11.5917C10.4287 11.8579 10.1611 12.0221 9.88068 11.9859L8.23877 11.7745C8.11395 11.7584 7.98884 11.8019 7.90094 11.8919L4.97952 14.8836L3.58065 16.3787C2.72253 17.2959 2.8051 18.7535 3.9034 19.3632C7.37659 21.2914 12.9566 22.332 17.8425 17.736C22.3576 13.07 21.2088 7.40784 19.431 3.95722C18.844 2.81796 17.3568 2.70069 16.4175 3.57289Z" stroke="#141B34" stroke-width="1.5" stroke-linecap="round" stroke-linejoin="round"/>
</svg>
