<svg width="24" height="24" viewBox="0 0 24 24" fill="none" xmlns="http://www.w3.org/2000/svg">
<path fill-rule="evenodd" clip-rule="evenodd" d="M3.225 1.25006C2.68652 1.25006 2.25 1.68658 2.25 2.22506V19.7751C2.25 20.3135 2.68652 20.7501 3.225 20.7501H6.15V18.8001H4.2V8.00006H19.8V18.8001H17.85V20.7501H20.775C21.3135 20.7501 21.75 20.3135 21.75 19.7751V2.22506C21.75 1.68658 21.3135 1.25006 20.775 1.25006H3.225ZM8 3.62506H6V5.62506H8V3.62506ZM12 3.62506H10V5.62506H12V3.62506Z" fill="#141B34"/>
<path d="M12.0001 22.7501C12.0001 22.7501 11.3289 22.5261 11.1441 22.4424C10.7761 22.276 10.2832 22.0124 9.7867 21.6223C8.7845 20.8349 7.75006 19.5109 7.75006 17.47V14.4014H8.50006C9.37785 14.4014 10.1563 14.1812 10.7215 13.9551C11.0024 13.8427 11.4358 13.6081 11.5857 13.5263L12.0001 13.2501L12.4143 13.5262C12.5642 13.608 12.9977 13.8427 13.2786 13.9551C13.8439 14.1812 14.6223 14.4014 15.5001 14.4014H16.2501V17.47C16.2501 19.5109 15.2156 20.8349 14.2134 21.6223C13.7169 22.0124 13.224 22.276 12.8561 22.4424C12.6712 22.5261 12.0001 22.7501 12.0001 22.7501Z" fill="#141B34"/>
</svg>
