<svg width="24" height="24" viewBox="0 0 24 24" fill="none" xmlns="http://www.w3.org/2000/svg">
<path fill-rule="evenodd" clip-rule="evenodd" d="M3 2.25C2.58579 2.25 2.25 2.58579 2.25 3V21C2.25 21.4142 2.58579 21.75 3 21.75H21C21.4142 21.75 21.75 21.4142 21.75 21V3C21.75 2.58579 21.4142 2.25 21 2.25H3ZM18.4801 9.19606L18.6762 8.21547L16.7151 7.82324L16.519 8.80382C16.3648 9.57465 16.0098 10.8559 15.4575 12.1262C15.1898 12.7418 14.8884 13.3253 14.5589 13.8376L13.4773 8.79041L11.5348 8.73682C11.2992 9.60047 10.8213 10.9868 10.1682 12.2891C9.86393 12.8957 9.54092 13.4445 9.2104 13.9049L8.34806 7.86857L6.36816 8.15141L7.72258 17.6323L9.01403 16.8574C10.276 16.1003 11.2571 14.5792 11.9559 13.1857C12.0561 12.986 12.1525 12.7847 12.2448 12.5838L13.3608 17.7916L14.6242 16.7808C15.8163 15.8271 16.6876 14.3129 17.2916 12.9237C17.906 11.5106 18.3009 10.0919 18.4801 9.19606Z" fill="#141B34"/>
</svg>
