<svg width="24" height="24" viewBox="0 0 24 24" fill="none" xmlns="http://www.w3.org/2000/svg">
<path d="M18.2327 15.2949L22 5.5C19.3345 5.5 17.541 6.87715 16.8604 8.91886L15.1452 14.3892C15.1336 14.4261 15.0978 14.4498 15.0593 14.4461C15.0208 14.4424 14.9902 14.4122 14.986 14.3738L14 5.5C11.7699 5.5 10.0077 6.76591 9.26031 8.68777L7.12972 14.4067C7.11783 14.4386 7.08557 14.4582 7.05176 14.454C7.01796 14.4498 6.99144 14.423 6.98768 14.3891L6.44173 9.47554C6.19025 7.21226 4.27721 5.5 2 5.5L5 18.5C7.08422 18.5 8.98482 17.2071 9.71664 15.2556L11.4628 10.5992C11.4756 10.5651 11.5096 10.5438 11.5458 10.5472C11.5821 10.5505 11.6116 10.5778 11.6179 10.6136L13 18.5C15.9583 18.5 17.4901 17.2259 18.2327 15.2949Z" stroke="#141B34" stroke-width="1.5" stroke-linecap="round"/>
</svg>
