<svg width="24" height="24" viewBox="0 0 24 24" fill="none" xmlns="http://www.w3.org/2000/svg">
<path fill-rule="evenodd" clip-rule="evenodd" d="M19.4573 18.043L21.7502 20.3359L20.3359 21.7502L18.043 19.4573L15.7502 21.7502L14.3359 20.3359L16.6288 18.043L14.3359 15.7502L15.7502 14.3359L18.043 16.6288L20.3359 14.3359L21.7502 15.7502L19.4573 18.043Z" fill="#141B34"/>
<path d="M12 2.25C7.87293 2.25 4.14061 3.94598 1.46433 6.67711C1.20837 6.93831 1.17812 7.34604 1.39273 7.64216L11.3927 21.4401C11.5338 21.6348 11.7596 21.75 12 21.75C12.2404 21.75 12.4662 21.6348 12.6073 21.4401L12.9063 21.0276L12.2148 20.3362L14.5077 18.0433L12.2148 15.7504L15.7504 12.2148L17.8045 14.269L22.6073 7.64216C22.8219 7.34604 22.7916 6.93831 22.5357 6.67711C19.8594 3.94598 16.1271 2.25 12 2.25Z" fill="#141B34"/>
</svg>
