<svg width="24" height="24" viewBox="0 0 24 24" fill="none" xmlns="http://www.w3.org/2000/svg">
<path d="M11.9999 3.5C15.4573 3.49998 18.8689 4.77591 22 7.25L20.5817 8.67531C17.8024 6.53419 14.8793 5.49999 11.9999 5.5C9.1206 5.50001 6.19753 6.53421 3.41835 8.67531L2 7.25C5.1311 4.77594 8.54264 3.50002 11.9999 3.5Z" fill="#141B34"/>
<path d="M9.48647 14.7732L8.06492 13.3447C9.18886 12.4482 10.5944 12 11.9999 12V14C11.1087 14 10.2174 14.2577 9.48647 14.7732Z" fill="#141B34"/>
<path d="M6.62988 11.9026L5.21012 10.4759C9.39276 7.19102 14.7903 7.16099 18.7975 10.4682L17.3819 11.8907C14.2061 9.37815 10.0255 9.35741 6.62988 11.9026Z" fill="#141B34"/>
<path fill-rule="evenodd" clip-rule="evenodd" d="M18.7073 16.7929L21.0002 19.0858L19.5859 20.5L17.293 18.2071L15.0002 20.5L13.5859 19.0858L15.8788 16.7929L13.5859 14.5L15.0002 13.0858L17.293 15.3787L19.5859 13.0858L21.0002 14.5L18.7073 16.7929Z" fill="#141B34"/>
</svg>
