<svg width="24" height="24" viewBox="0 0 24 24" fill="none" xmlns="http://www.w3.org/2000/svg">
<path fill-rule="evenodd" clip-rule="evenodd" d="M19.7073 8.20711L22.0002 10.5L20.5859 11.9142L18.293 9.62132L16.0002 11.9142L14.5859 10.5L16.8788 8.20711L14.5859 5.91421L16.0002 4.5L18.293 6.79289L20.5859 4.5L22.0002 5.91421L19.7073 8.20711Z" fill="#141B34"/>
<path d="M11.9999 4.5C8.54366 4.50002 5.1329 5.76356 2 8.21401L3.31491 9.72465C6.12597 7.5501 9.08526 6.50001 11.9999 6.5L11.9999 4.5Z" fill="#141B34"/>
<path d="M15.0413 16.2071C13.4323 14.5976 10.5664 14.5976 8.95744 16.2071L7.64246 14.6964C10.0127 12.4345 13.9863 12.4345 16.3564 14.6965L15.0413 16.2071Z" fill="#141B34"/>
<path d="M6.29179 13.1447L4.97802 11.6353C7.10542 9.90341 9.56254 9.02143 11.9999 9.00039V11.0004C10.0379 11.0199 8.04943 11.7311 6.29179 13.1447Z" fill="#141B34"/>
<path d="M12 17.5C11.4477 17.5 11 17.9477 11 18.5C11 19.0523 11.4477 19.5 12 19.5H12.0118C12.5641 19.5 13.0118 19.0523 13.0118 18.5C13.0118 17.9477 12.5641 17.5 12.0118 17.5H12Z" fill="#141B34"/>
</svg>
