<svg width="24" height="24" viewBox="0 0 24 24" fill="none" xmlns="http://www.w3.org/2000/svg">
<path fill-rule="evenodd" clip-rule="evenodd" d="M3.46313 2.32553C4.86203 0.89149 7.13797 0.891488 8.53687 2.32553L12.0001 5.87577L15.4631 2.32572C16.862 0.891674 19.138 0.891675 20.5369 2.32572C20.821 2.61703 20.821 3.08182 20.5369 3.37314L15.0478 9.00009L20.5369 14.627C20.821 14.9184 20.821 15.3832 20.5369 15.6745C19.138 17.1085 16.862 17.1085 15.4631 15.6745L12.0001 12.1244L8.53687 15.6747C7.13797 17.1087 4.86203 17.1087 3.46313 15.6747C3.17896 15.3833 3.17896 14.9185 3.46313 14.6272L8.95235 9.00009L3.46313 3.37295C3.17896 3.08164 3.17896 2.61685 3.46313 2.32553ZM10.1299 9.00006C10.2048 9.09391 10.2575 9.20602 10.2806 9.3284C10.4164 10.0453 10.9919 10.6088 11.7146 10.727C11.8181 10.7439 11.9149 10.7819 12.0001 10.8368C12.0852 10.7819 12.182 10.7439 12.2856 10.7269C13.0082 10.6087 13.5837 10.0452 13.7194 9.32829C13.7426 9.20596 13.7952 9.09389 13.87 9.00006C13.7952 8.90623 13.7426 8.79415 13.7194 8.67182C13.5838 7.9549 13.0083 7.39133 12.2857 7.27308C12.1821 7.25613 12.0852 7.21807 12.0001 7.16308C11.9149 7.21806 11.8181 7.25612 11.7144 7.27307C10.9918 7.39127 10.4163 7.95481 10.2806 8.67171C10.2574 8.79409 10.2048 8.90621 10.1299 9.00006Z" fill="#141B34"/>
<path fill-rule="evenodd" clip-rule="evenodd" d="M12 7.25C11.0335 7.25 10.25 8.0335 10.25 9C10.25 9.9665 11.0335 10.75 12 10.75C12.9665 10.75 13.75 9.9665 13.75 9C13.75 8.0335 12.9665 7.25 12 7.25ZM8.75 9C8.75 7.20507 10.2051 5.75 12 5.75C13.7949 5.75 15.25 7.20507 15.25 9C15.25 10.7949 13.7949 12.25 12 12.25C10.2051 12.25 8.75 10.7949 8.75 9Z" fill="#141B34"/>
<path d="M14.2862 16.617L14.7468 21.9361C14.765 22.1455 14.6944 22.3529 14.5524 22.5078C14.4103 22.6627 14.2098 22.7508 13.9996 22.7508H10C9.78982 22.7508 9.58929 22.6626 9.44723 22.5077C9.30518 22.3528 9.23464 22.1454 9.25281 21.936L9.71422 16.6167L12.0001 14.2734L14.2862 16.617Z" fill="#141B34"/>
</svg>
