<svg width="24" height="24" viewBox="0 0 24 24" fill="none" xmlns="http://www.w3.org/2000/svg">
<path d="M15.25 19.5C15.25 17.7051 16.7051 16.25 18.5 16.25C20.2949 16.25 21.75 17.7051 21.75 19.5C21.75 21.2949 20.2949 22.75 18.5 22.75C16.7051 22.75 15.25 21.2949 15.25 19.5Z" fill="#141B34"/>
<path d="M15.25 9.5C15.25 7.70507 16.7051 6.25 18.5 6.25C20.2949 6.25 21.75 7.70507 21.75 9.5C21.75 11.2949 20.2949 12.75 18.5 12.75C16.7051 12.75 15.25 11.2949 15.25 9.5Z" fill="#141B34"/>
<path d="M2.25 14.5C2.25 12.7051 3.70507 11.25 5.5 11.25C7.29493 11.25 8.75 12.7051 8.75 14.5C8.75 16.2949 7.29493 17.75 5.5 17.75C3.70507 17.75 2.25 16.2949 2.25 14.5Z" fill="#141B34"/>
<path d="M2.25 4.5C2.25 2.70507 3.70507 1.25 5.5 1.25C7.29493 1.25 8.75 2.70507 8.75 4.5C8.75 6.29493 7.29493 7.75 5.5 7.75C3.70507 7.75 2.25 6.29493 2.25 4.5Z" fill="#141B34"/>
<path fill-rule="evenodd" clip-rule="evenodd" d="M14.1132 9.5001L7.47 5.3481L8.53 3.6521L16.53 8.6521C16.8224 8.83484 17 9.15531 17 9.5001C17 9.84489 16.8224 10.1654 16.53 10.3481L9.8868 14.5001L16.53 18.6521L15.47 20.3481L7.47 15.3481C7.17762 15.1654 7 14.8449 7 14.5001C7 14.1553 7.17762 13.8348 7.47 13.6521L14.1132 9.5001Z" fill="#141B34"/>
</svg>
