<svg width="24" height="24" viewBox="0 0 24 24" fill="none" xmlns="http://www.w3.org/2000/svg">
<path d="M6.99813 9.49951C6.99813 10.3279 6.32698 10.9995 5.49907 10.9995C4.67115 10.9995 4 10.3279 4 9.49951C4 8.67108 4.67115 7.99951 5.49907 7.99951C6.32698 7.99951 6.99813 8.67108 6.99813 9.49951Z" stroke="#141B34" stroke-width="1.5"/>
<path opacity="0.4" d="M9.80755 9.96898C9.87527 9.55147 9.85395 9.12851 9.77613 8.49951L16.1323 11.1424C16.432 11.267 16.693 11.4609 16.8967 11.7039L14.6177 13.9995L9.09839 11.7938C9.50792 10.9672 9.72375 10.4857 9.80755 9.96898Z" fill="#141B34"/>
<path d="M8.97082 3.00049L9.82883 8.77188C9.85763 8.96567 9.8721 9.16131 9.8721 9.35722V9.43799C9.8721 9.64711 9.85012 9.85565 9.80654 10.0602L9.75675 10.2938C9.73973 10.3737 9.71294 10.4512 9.67697 10.5246L6.99817 15.9895M10.4283 8.75483L15.9429 11.0595L16.501 11.3019C16.8389 11.4486 17.0966 11.7343 17.2075 12.0851L20 20.9995M9.51402 11.9602L14.6357 13.9713M14.6357 13.9713L12.0215 20.8737M14.6357 13.9713L16.8165 11.8065" stroke="#141B34" stroke-width="1.5" stroke-linecap="round" stroke-linejoin="round"/>
</svg>
