<svg width="24" height="24" viewBox="0 0 24 24" fill="none" xmlns="http://www.w3.org/2000/svg">
<path d="M18.5 6.8201C18.4999 8.40394 16.9715 9.86336 14.6755 12.1483C13.1984 13.6183 10.8014 13.6165 9.32349 12.1473C7.02907 9.86393 5.49987 8.40368 5.5 6.81984C5.50013 5.236 5.88383 4.91827 9.40918 1.4099C9.74841 1.0694 10.3319 1.30879 10.3319 1.78823L10.3321 5.40117C10.3321 6.31823 11.0778 7.0629 11.9993 7.06282C12.9208 7.06275 13.6679 6.31933 13.6681 5.40227L13.6689 1.78929C13.669 1.30984 14.2526 1.07035 14.5917 1.41079C18.1165 4.91858 18.5001 5.23626 18.5 6.8201Z" fill="#141B34"/>
<path fill-rule="evenodd" clip-rule="evenodd" d="M15.6019 13.6726C15.75 13.7596 15.75 14.0525 15.75 14.6382L15.75 19.1642C15.75 21.1835 14.0305 22.749 12 22.749C9.96951 22.749 8.25 21.1835 8.25 19.1642L8.25 14.6371C8.25 14.0517 8.25 13.7589 8.39807 13.672C8.54614 13.585 8.8303 13.7435 9.3986 14.0604C11.006 14.9568 12.9928 14.9581 14.6008 14.0614C15.1695 13.7442 15.4539 13.5856 15.6019 13.6726ZM11.115 18.1229C10.6283 18.6095 10.6283 19.3984 11.115 19.885C11.6016 20.3717 12.3905 20.3717 12.8771 19.885L12.885 19.8771C13.3717 19.3905 13.3717 18.6016 12.885 18.115C12.3984 17.6283 11.6095 17.6283 11.1229 18.115L11.115 18.1229Z" fill="#141B34"/>
</svg>
