<svg width="24" height="24" viewBox="0 0 24 24" fill="none" xmlns="http://www.w3.org/2000/svg">
<path d="M6.69955 10.7547L6.74749 10.7768L7.5248 11.135L7.58071 11.1608L7.58072 11.1608C8.47455 11.5727 9.21927 11.9158 9.72981 12.2437C10.2205 12.5588 10.7903 13.0434 10.7479 13.8184C10.7054 14.594 10.0854 15.0128 9.56305 15.2716C9.01972 15.5407 8.24198 15.7989 7.30876 16.1088L6.43982 16.3974L6.38971 16.414C5.99069 16.5467 5.60493 16.6749 5.26972 16.725C4.87514 16.784 4.45987 16.751 4.0641 16.4816C3.69532 16.2305 3.50046 15.8977 3.40069 15.5216C3.31972 15.2163 3.29571 14.8513 3.27234 14.496L3.26893 14.4443C3.25637 14.2546 3.25 14.0633 3.25 13.8706C3.25 13.3576 3.29517 12.8545 3.38189 12.3655L3.39094 12.3144C3.45285 11.9644 3.51654 11.6045 3.63036 11.3102C3.77073 10.9473 4.00109 10.6379 4.39543 10.4292C4.81871 10.2052 5.23523 10.2187 5.62066 10.3212C5.94823 10.4082 6.31748 10.5785 6.69955 10.7547Z" fill="#141B34"/>
<path d="M19.1656 8.34661L19.1997 8.38498C19.5664 8.79737 19.8919 9.24478 20.1698 9.7216L20.1968 9.76778C20.3727 10.0693 20.5568 10.3848 20.6572 10.6828C20.7832 11.0567 20.7975 11.4487 20.6088 11.8617C20.4088 12.2994 20.0639 12.5415 19.6986 12.697C19.3822 12.8317 18.978 12.9301 18.5521 13.0339L18.5017 13.0462L17.9734 13.175C16.9074 13.435 16.0338 13.648 15.379 13.7211C14.7725 13.7888 13.9748 13.788 13.5068 13.1424C13.0169 12.4667 13.3274 11.7119 13.6172 11.1954C13.929 10.6398 14.4577 9.9439 15.0963 9.10332L15.1345 9.05304L15.4157 8.68288L15.4473 8.64138L15.4473 8.64138C15.703 8.30461 15.9495 7.97999 16.2002 7.74666C16.4949 7.47229 16.8516 7.2682 17.3237 7.25121C17.7653 7.23532 18.1203 7.37652 18.4319 7.61339C18.6856 7.80632 18.9288 8.08003 19.1656 8.34661Z" fill="#141B34"/>
<path d="M15.3584 14.3589C16.0056 14.4788 16.8488 14.7725 17.8653 15.1489C18.2543 15.2929 18.6268 15.4403 18.9244 15.631C19.2507 15.84 19.523 16.1227 19.6676 16.5386L19.6742 16.5575L19.6798 16.5767C19.7956 16.9764 19.7602 17.3358 19.6385 17.6835C19.5375 17.9719 19.3664 18.2759 19.1972 18.5762L19.174 18.6175L19.1618 18.6392L18.5528 19.5722L18.5377 19.5923C18.3126 19.8915 18.081 20.1855 17.8269 20.3989C17.5435 20.637 17.2014 20.8018 16.7755 20.7968L16.7507 20.7965L16.7259 20.7945C16.2585 20.7578 15.929 20.5106 15.6813 20.2329C15.467 19.9927 15.2569 19.663 15.0388 19.3206L15.0388 19.3206L15.0114 19.2776L14.9816 19.2309C14.3759 18.2808 13.8831 17.5077 13.5908 16.8997C13.3209 16.3382 13.0552 15.5965 13.4509 14.9341L13.4662 14.9085L13.4834 14.8843C13.9607 14.2117 14.7692 14.2497 15.3584 14.3589Z" fill="#141B34"/>
<path d="M10.6196 15.4019C10.9325 15.2455 11.3072 15.1861 11.691 15.3381C12.0645 15.486 12.296 15.7743 12.4345 16.0755C12.5652 16.3597 12.6316 16.6917 12.6716 17.0275C12.75 17.6863 12.75 18.6 12.75 19.7236L12.75 20.0769L12.75 20.1259C12.75 20.5639 12.7501 20.9734 12.6992 21.3077C12.6415 21.6865 12.505 22.0726 12.1565 22.3782C11.8214 22.6721 11.4476 22.7707 11.056 22.7464C10.7537 22.7277 10.4186 22.6313 10.1125 22.5431L10.061 22.5283C9.61293 22.3996 9.18127 22.2276 8.76979 22.017L8.72466 21.994L8.72465 21.994C8.43383 21.8453 8.12409 21.687 7.8848 21.494C7.58532 21.2525 7.3757 20.9466 7.28692 20.528C7.19301 20.0853 7.28757 19.7012 7.45919 19.3507C7.60685 19.0491 7.83705 18.7249 8.07821 18.3851L8.10674 18.345L8.27257 18.1113L8.30809 18.0612C8.92641 17.1898 9.43564 16.4721 9.86685 16.0077C10.0865 15.7711 10.336 15.5437 10.6196 15.4019Z" fill="#141B34"/>
<path d="M11.2125 1.25063C11.6035 1.24196 11.9868 1.32046 12.3482 1.58732C12.7381 1.87523 12.9108 2.2582 12.9839 2.66038C13.0453 2.99797 13.0452 3.40771 13.0451 3.82765L13.0451 3.8818L13.0451 6.62831C13.0451 7.98058 13.0451 9.07502 12.9413 9.85245C12.8885 10.2476 12.8008 10.6355 12.6276 10.9576C12.439 11.3083 12.1381 11.5964 11.7008 11.7066C11.27 11.8152 10.8721 11.7098 10.5378 11.5125C10.2235 11.3271 9.93799 11.0462 9.67089 10.7339C9.14553 10.1197 8.52869 9.1841 7.76144 8.02042L6.30161 5.80634L6.274 5.76449C6.05492 5.43239 5.84311 5.1113 5.71267 4.81927C5.56067 4.47897 5.47549 4.08657 5.61729 3.6497C5.75002 3.2408 6.01247 2.97302 6.31461 2.77383C6.5708 2.60492 6.9014 2.45748 7.23854 2.30712L7.28217 2.28765C8.1475 1.90146 9.07974 1.60297 10.0481 1.41746L10.0967 1.40814C10.4949 1.33176 10.8793 1.25802 11.2125 1.25063Z" fill="#141B34"/>
</svg>
