<svg width="24" height="24" viewBox="0 0 24 24" fill="none" xmlns="http://www.w3.org/2000/svg">
<path d="M14.8066 4C14.8066 2.48122 13.5754 1.25 12.0566 1.25C10.5378 1.25 9.30658 2.48122 9.30658 4C9.30658 5.51878 10.5378 6.75 12.0566 6.75C13.5754 6.75 14.8066 5.51878 14.8066 4Z" fill="#141B34"/>
<path d="M12.0584 7.25C14.19 7.25 16.1011 8.19263 17.3909 9.67795C17.8938 10.2571 18.083 10.9568 18.1845 11.4949C18.3456 12.3495 18.6724 13.3444 19.1928 14.0985C19.7006 14.8344 20.3178 15.25 21.1124 15.25V17.25C19.4464 17.25 18.2812 16.313 17.5337 15.2299C16.7988 14.165 16.3976 12.8745 16.2069 11.8633C16.1881 11.7633 16.1679 11.672 16.1461 11.5886C15.7359 12.4877 15.4759 13.2999 15.5749 14.2357C15.6761 15.1927 16.3035 15.9095 17.3024 16.5744C17.7985 16.9046 18.3542 17.2005 18.9327 17.4971C19.0314 17.5477 19.1312 17.5985 19.2315 17.6496C19.7056 17.891 20.1921 18.1387 20.6271 18.3956C21.6231 18.9838 21.9016 20.0911 21.6771 20.9917C21.4488 21.9075 20.6651 22.7499 19.4514 22.7499C17.4578 22.7499 15.5788 22.5939 13.6631 21.6988C13.6359 21.6861 13.6095 21.6718 13.584 21.6559L12 20.6711L10.416 21.6559C10.3905 21.6718 10.3641 21.6861 10.3369 21.6988C8.42118 22.5939 6.54216 22.7499 4.54856 22.7499C3.3349 22.7499 2.5512 21.9075 2.32293 20.9917C2.09842 20.0911 2.37686 18.9838 3.37288 18.3956C3.80788 18.1387 4.29441 17.891 4.76848 17.6496C4.86884 17.5985 4.96864 17.5477 5.06728 17.4971C5.64583 17.2005 6.20151 16.9046 6.69761 16.5744C7.6965 15.9095 8.32392 15.1927 8.42515 14.2357C8.51782 13.3597 8.29586 12.5919 7.9306 11.7598C7.92354 11.7933 7.91666 11.8277 7.90996 11.8633C7.71931 12.8745 7.31803 14.165 6.58319 15.2299C5.83572 16.313 4.67047 17.25 3.0045 17.25V15.25C3.79903 15.25 4.41625 14.8344 4.92405 14.0985C5.44448 13.3444 5.77128 12.3495 5.9324 11.4949C6.03385 10.9568 6.22305 10.2571 6.72593 9.67795C8.01574 8.19263 9.92691 7.25 12.0584 7.25Z" fill="#141B34"/>
</svg>
