<svg width="24" height="24" viewBox="0 0 24 24" fill="none" xmlns="http://www.w3.org/2000/svg">
<path fill-rule="evenodd" clip-rule="evenodd" d="M19.7 16.2464C21.4144 15.0247 22.4998 13.1548 22.4998 11C22.4998 7.17634 19.0823 4.24996 14.797 4.24996C12.7797 4.24996 10.3272 4.71717 8.07735 5.46528C8.04811 5.41888 8.01466 5.37427 7.97695 5.33198C7.60128 4.91065 7.05357 4.3067 6.42444 3.83094C5.81984 3.37374 4.952 2.88936 3.96401 3.02232C3.42344 3.09507 2.91986 3.37862 2.36631 3.69031L2.24143 3.76053C1.83377 3.98914 1.63884 4.46963 1.77199 4.91764L2.7467 8.19719L2.71382 8.22511C2.27991 8.59579 1.88748 9.01368 1.6019 9.47299C1.46872 9.68718 1.40213 9.79428 1.45929 9.89712C1.51644 9.99996 1.65256 9.99996 1.92478 9.99996H3.86402C4.41294 9.99996 4.85792 10.4477 4.85792 11C4.85792 11.5522 4.41294 12 3.86402 12H1.92478C1.65256 12 1.51645 12 1.45929 12.1028C1.40213 12.2056 1.46872 12.3127 1.6019 12.5269C1.88748 12.9862 2.27991 13.4041 2.71382 13.7748C2.72473 13.7841 2.73569 13.7934 2.7467 13.8027L1.77199 17.0823C1.63884 17.5303 1.83377 18.0108 2.24143 18.2394L2.36631 18.3096C2.91986 18.6213 3.42344 18.9049 3.96401 18.9776C4.952 19.1106 5.81984 18.6262 6.42444 18.169C7.05357 17.6932 7.60128 17.0893 7.97695 16.6679C8.01466 16.6256 8.04811 16.581 8.07735 16.5346C8.66723 16.7308 9.27105 16.9076 9.87731 17.0618C9.89265 17.0868 9.90921 17.1114 9.927 17.1354L11.0168 18.6063L11.0934 18.71C11.4666 19.215 11.794 19.6582 12.2481 19.9567C12.7097 20.26 13.2403 20.3738 13.8279 20.4998L13.9482 20.5256L14.7144 20.6911L14.7763 20.7045C15.3867 20.8364 15.9441 20.9568 16.411 20.9903C16.9286 21.0274 17.4781 20.9713 17.9885 20.6226C18.4879 20.2813 18.7517 19.7944 18.9306 19.3051C19.0976 18.8486 19.2325 18.2656 19.3853 17.6053L19.3853 17.6053L19.3985 17.5484L19.7 16.2464ZM6.08535 15.7735C5.81222 16.0624 5.52034 16.3452 5.21812 16.5737C4.73858 16.9364 4.41739 17.0206 4.23075 16.9955C4.17022 16.9873 4.09947 16.9652 3.92001 16.8752L4.48284 14.9814C4.98502 15.2634 5.52417 15.5283 6.08535 15.7735ZM4.48284 7.01848C4.98502 6.73653 5.52417 6.47166 6.08535 6.22644C5.81222 5.93755 5.52034 5.65472 5.21812 5.42618C4.73858 5.06355 4.41739 4.97934 4.23075 5.00445C4.17022 5.0126 4.09947 5.03468 3.92001 5.12474L4.48284 7.01848ZM12.7726 17.6157C13.1427 18.1102 13.2414 18.2162 13.3465 18.2853C13.4566 18.3576 13.5921 18.4026 14.3704 18.5707L15.1366 18.7362C15.8295 18.8858 16.2459 18.9733 16.5539 18.9954C16.6952 19.0055 16.7716 18.9977 16.8105 18.9899C16.8406 18.9839 16.8514 18.9772 16.8609 18.9707L17.0523 18.6182L17.3772 17.3759C16.5721 17.6189 15.704 17.75 14.797 17.75C14.159 17.75 13.4775 17.7032 12.7726 17.6157Z" fill="#141B34"/>
</svg>
