<svg width="24" height="24" viewBox="0 0 24 24" fill="none" xmlns="http://www.w3.org/2000/svg">
<path fill-rule="evenodd" clip-rule="evenodd" d="M19.6997 16.2463C21.4141 15.0245 22.4995 13.1547 22.4995 10.9998C22.4995 7.17622 19.082 4.24984 14.7968 4.24984C12.7795 4.24984 10.3269 4.71705 8.07711 5.46516C8.04787 5.41876 8.01441 5.37415 7.9767 5.33186C7.60104 4.91053 7.05333 4.30657 6.4242 3.83082C5.8196 3.37362 4.95176 2.88924 3.96376 3.0222C3.4232 3.09494 2.91962 3.3785 2.36606 3.69019L2.24119 3.76041C1.83353 3.98901 1.63859 4.4695 1.77175 4.91752L2.74645 8.19707L2.71358 8.22499C2.27967 8.59567 1.88724 9.01355 1.60165 9.47287C1.46848 9.68706 1.40189 9.79415 1.45904 9.897C1.5162 9.99984 1.65231 9.99984 1.92453 9.99984H3.86378C4.41269 9.99984 4.85768 10.4476 4.85768 10.9998C4.85768 11.5521 4.41269 11.9998 3.86378 11.9998H1.92454C1.65231 11.9998 1.5162 11.9998 1.45904 12.1027C1.40189 12.2055 1.46848 12.3126 1.60165 12.5268C1.88724 12.9861 2.27967 13.404 2.71358 13.7747C2.72449 13.784 2.73545 13.7933 2.74645 13.8026L1.77175 17.0822C1.63859 17.5302 1.83353 18.0107 2.24119 18.2393L2.36606 18.3095C2.91962 18.6212 3.4232 18.9047 3.96376 18.9775C4.95176 19.1104 5.8196 18.6261 6.4242 18.1689C7.05333 17.6931 7.60104 17.0891 7.9767 16.6678C8.01441 16.6255 8.04787 16.5809 8.07711 16.5345C8.66699 16.7307 9.27081 16.9075 9.87707 17.0617C9.8924 17.0867 9.90896 17.1112 9.92676 17.1353L11.0165 18.6062L11.0932 18.7099C11.4663 19.2149 11.7937 19.6581 12.2479 19.9566C12.7095 20.2599 13.2401 20.3737 13.8277 20.4996L13.948 20.5255L14.7142 20.691L14.7761 20.7043C15.3865 20.8362 15.9438 20.9567 16.4107 20.9901C16.9284 21.0272 17.4778 20.9712 17.9883 20.6224C18.4876 20.2812 18.7514 19.7943 18.9304 19.305C19.0973 18.8485 19.2323 18.2655 19.3851 17.6051L19.3851 17.6051L19.3983 17.5482L19.6997 16.2463ZM6.08511 15.7734C5.81197 16.0622 5.5201 16.3451 5.21787 16.5736C4.73833 16.9363 4.41715 17.0205 4.2305 16.9953C4.16998 16.9872 4.09923 16.9651 3.91976 16.8751L4.48259 14.9813C4.98478 15.2633 5.52392 15.5281 6.08511 15.7734ZM4.48259 7.01836C4.98478 6.7364 5.52392 6.47154 6.08511 6.22631C5.81197 5.93743 5.5201 5.6546 5.21787 5.42605C4.73833 5.06342 4.41715 4.97921 4.2305 5.00433C4.16998 5.01248 4.09923 5.03455 3.91976 5.12462L4.48259 7.01836ZM12.7724 17.6155C13.1425 18.11 13.2412 18.2161 13.3463 18.2852C13.4564 18.3575 13.5918 18.4025 14.3701 18.5706L15.1364 18.736C15.8293 18.8857 16.2457 18.9732 16.5537 18.9952C16.6949 19.0054 16.7714 18.9975 16.8103 18.9898C16.8404 18.9838 16.8512 18.9771 16.8607 18.9706L17.052 18.6181L17.3769 17.3758C16.5719 17.6187 15.7037 17.7498 14.7968 17.7498C14.1588 17.7498 13.4772 17.7031 12.7724 17.6155Z" fill="#141B34"/>
</svg>
