<svg width="24" height="24" viewBox="0 0 24 24" fill="none" xmlns="http://www.w3.org/2000/svg">
<path opacity="0.4" fill-rule="evenodd" clip-rule="evenodd" d="M7 3H17C19.2091 3 21 4.79086 21 7V17C21 19.2091 19.2091 21 17 21H7C4.79086 21 3 19.2091 3 17V7C3 4.79086 4.79086 3 7 3ZM14.5 9C17.5376 9 20 11.4624 20 14.5C20 17.5376 17.5376 20 14.5 20C11.4624 20 9 17.5376 9 14.5C9 11.4624 11.4624 9 14.5 9Z" fill="#141B34"/>
<path d="M18.5016 18.5L21 21M20 14.5C20 11.4624 17.5376 9 14.5 9C11.4624 9 9 11.4624 9 14.5C9 17.5376 11.4624 20 14.5 20C17.5376 20 20 17.5376 20 14.5Z" stroke="#141B34" stroke-width="1.5" stroke-linecap="round" stroke-linejoin="round"/>
<path d="M14.5 12.5V16.5M16.5 14.5H12.5" stroke="#141B34" stroke-width="1.5" stroke-linecap="round" stroke-linejoin="round"/>
<path d="M10 3H14M3 10V14M6.5 21C4.567 21 3 19.433 3 17.5M17.5 3C19.433 3 21 4.567 21 6.5M3 6.5C3 4.567 4.567 3 6.5 3" stroke="#141B34" stroke-width="1.5" stroke-linecap="round" stroke-linejoin="round"/>
</svg>
