<svg xmlns="http://www.w3.org/2000/svg" viewBox="0 0 384 512"><!--! Font Awesome Pro 7.1.0 by @fontawesome - https://fontawesome.com License - https://fontawesome.com/license (Commercial License) Copyright 2025 Fonticons, Inc. --><path fill="currentColor" d="M272 144c26.5 0 48 21.5 48 48l0 208 48 0c8.8 0 16 7.2 16 16s-7.2 16-16 16l-48 0 0 32-.2 4.9C317.3 493.1 296.9 512 272 512l-160 0-4.9-.2C82.9 509.3 64 488.9 64 464l0-32-48 0c-8.8 0-16-7.2-16-16s7.2-16 16-16l48 0 0-208c0-26.5 21.5-48 48-48l160 0zM96 464c0 8.8 7.2 16 16 16l160 0c8.8 0 16-7.2 16-16l0-32-192 0 0 32zm16-288c-8.8 0-16 7.2-16 16l0 208 192 0 0-208c0-8.8-7.2-16-16-16l-160 0zM232 352a24 24 0 1 1 0-48 24 24 0 1 1 0 48zm0-80a24 24 0 1 1 0-48 24 24 0 1 1 0 48zM320 0c8.8 0 16 7.2 16 16s-7.2 16-16 16l-32 0 0 64-32 0 0-64-128 0 0 64-32 0 0-64-32 0c-8.8 0-16-7.2-16-16S55.2 0 64 0L320 0z"/></svg>