<svg xmlns="http://www.w3.org/2000/svg" viewBox="0 0 576 512"><!--! Font Awesome Pro 7.0.0 by @fontawesome - https://fontawesome.com License - https://fontawesome.com/license (Commercial License) Copyright 2025 Fonticons, Inc. --><path fill="currentColor" d="M64 96c-17.7 0-32 14.3-32 32l0 128c0 17.7 14.3 32 32 32l448 0c17.7 0 32-14.3 32-32l0-128c0-17.7-14.3-32-32-32L64 96zM0 128C0 92.7 28.7 64 64 64l448 0c35.3 0 64 28.7 64 64l0 128c0 35.3-28.7 64-64 64L64 320c-35.3 0-64-28.7-64-64L0 128zm112 64l352 0c8.8 0 16 7.2 16 16s-7.2 16-16 16l-352 0c-8.8 0-16-7.2-16-16s7.2-16 16-16zM224 480l0-112 32 0 0 112c0 35.3-28.7 64-64 64s-64-28.7-64-64c0-8.8 7.2-16 16-16s16 7.2 16 16c0 17.7 14.3 32 32 32s32-14.3 32-32zM352 368l0 112c0 17.7 14.3 32 32 32s32-14.3 32-32l0-8c0-8.8 7.2-16 16-16s16 7.2 16 16l0 8c0 35.3-28.7 64-64 64s-64-28.7-64-64l0-112 32 0z"/></svg>