<svg xmlns="http://www.w3.org/2000/svg" viewBox="0 0 512 512"><!--! Font Awesome Pro 7.0.0 by @fontawesome - https://fontawesome.com License - https://fontawesome.com/license (Commercial License) Copyright 2025 Fonticons, Inc. --><path fill="currentColor" d="M16 32C7.2 32 0 39.2 0 48S7.2 64 16 64l16 0 0 384-16 0c-8.8 0-16 7.2-16 16s7.2 16 16 16l152 0c8.8 0 16-7.2 16-16l0-104c0-39.8 32.2-72 72-72s72 32.2 72 72l0 104c0 8.8 7.2 16 16 16l152 0c8.8 0 16-7.2 16-16s-7.2-16-16-16l-16 0 0-384 16 0c8.8 0 16-7.2 16-16s-7.2-16-16-16L16 32zM448 64l0 64-384 0 0-64 384 0zm0 96l0 288-88 0 0-88c0-57.4-46.6-104-104-104S152 302.6 152 360l0 88-88 0 0-288 384 0z"/></svg>