<svg xmlns="http://www.w3.org/2000/svg" viewBox="0 0 512 512"><!--! Font Awesome Pro 7.0.0 by @fontawesome - https://fontawesome.com License - https://fontawesome.com/license (Commercial License) Copyright 2025 Fonticons, Inc. --><path fill="currentColor" d="M256 32c123.7 0 224 100.3 224 224 0 8.8 7.2 16 16 16s16-7.2 16-16C512 114.6 397.4 0 256 0S0 114.6 0 256c0 8.8 7.2 16 16 16s16-7.2 16-16C32 132.3 132.3 32 256 32zM379.3 395.3c6.2-6.2 6.2-16.4 0-22.6s-16.4-6.2-22.6 0L272 457.4 272 176c0-8.8-7.2-16-16-16s-16 7.2-16 16l0 281.4-84.7-84.7c-6.2-6.2-16.4-6.2-22.6 0s-6.2 16.4 0 22.6l112 112c6.2 6.2 16.4 6.2 22.6 0l112-112z"/></svg>