<svg xmlns="http://www.w3.org/2000/svg" viewBox="0 0 512 512"><!--! Font Awesome Pro 7.0.0 by @fontawesome - https://fontawesome.com License - https://fontawesome.com/license (Commercial License) Copyright 2025 Fonticons, Inc. --><path fill="currentColor" d="M331.3-27.3c-6.2-6.2-16.4-6.2-22.6 0l-96 96c-6.2 6.2-6.2 16.4 0 22.6s16.4 6.2 22.6 0l68.7-68.7 0 287.8c-21.9-23.6-53.2-38.4-88-38.4l-161.4 0 68.7-68.7c6.2-6.2 6.2-16.4 0-22.6s-16.4-6.2-22.6 0l-96 96c-6.2 6.2-6.2 16.4 0 22.6l96 96c6.2 6.2 16.4 6.2 22.6 0s6.2-16.4 0-22.6L54.6 304 216 304c48.6 0 88 39.4 88 88 0 1.5 .2 2.9 .6 4.3 6.2 64.9 60.9 115.7 127.4 115.7l32 0c8.8 0 16-7.2 16-16s-7.2-16-16-16l-32 0c-53 0-96-43-96-96l0-361.4 68.7 68.7c6.2 6.2 16.4 6.2 22.6 0s6.2-16.4 0-22.6l-96-96z"/></svg>