<svg xmlns="http://www.w3.org/2000/svg" viewBox="0 0 512 512"><!--! Font Awesome Pro 7.0.0 by @fontawesome - https://fontawesome.com License - https://fontawesome.com/license (Commercial License) Copyright 2025 Fonticons, Inc. --><path fill="currentColor" d="M283.3 139.3c-6.2 6.2-16.4 6.2-22.6 0s-6.2-16.4 0-22.6l112-112c6.2-6.2 16.4-6.2 22.6 0l112 112c6.2 6.2 6.2 16.4 0 22.6s-16.4 6.2-22.6 0l-84.7-84.7 0 185.4 96 0c8.8 0 16 7.2 16 16s-7.2 16-16 16l-352 0 0 185.4 84.7-84.7c6.2-6.2 16.4-6.2 22.6 0s6.2 16.4 0 22.6l-112 112c-6.2 6.2-16.4 6.2-22.6 0l-112-112c-6.2-6.2-6.2-16.4 0-22.6s16.4-6.2 22.6 0l84.7 84.7 0-185.4-96 0c-8.8 0-16-7.2-16-16s7.2-16 16-16l352 0 0-185.4-84.7 84.7zM400 320l0 176c0 8.8-7.2 16-16 16s-16-7.2-16-16l0-176 32 0zM112 16c0-8.8 7.2-16 16-16s16 7.2 16 16l0 176-32 0 0-176z"/></svg>