<svg xmlns="http://www.w3.org/2000/svg" viewBox="0 0 512 512"><!--! Font Awesome Pro 7.0.0 by @fontawesome - https://fontawesome.com License - https://fontawesome.com/license (Commercial License) Copyright 2025 Fonticons, Inc. --><path fill="currentColor" d="M0 80c0-8.8 7.2-16 16-16s16 7.2 16 16l0 352c0 8.8-7.2 16-16 16S0 440.8 0 432L0 80zM132.7 267.3c-6.2-6.2-6.2-16.4 0-22.6l144-144c6.2-6.2 16.4-6.2 22.6 0s6.2 16.4 0 22.6L182.6 240 496 240c8.8 0 16 7.2 16 16s-7.2 16-16 16l-313.4 0 116.7 116.7c6.2 6.2 6.2 16.4 0 22.6s-16.4 6.2-22.6 0l-144-144z"/></svg>