<svg xmlns="http://www.w3.org/2000/svg" viewBox="0 0 384 512"><!--! Font Awesome Pro 7.0.0 by @fontawesome - https://fontawesome.com License - https://fontawesome.com/license (Commercial License) Copyright 2025 Fonticons, Inc. --><path fill="currentColor" d="M180.7 4.7c6.2-6.2 16.4-6.2 22.6 0l144 144c6.2 6.2 6.2 16.4 0 22.6s-16.4 6.2-22.6 0L208 54.6 208 368c0 8.8-7.2 16-16 16s-16-7.2-16-16L176 54.6 59.3 171.3c-6.2 6.2-16.4 6.2-22.6 0s-6.2-16.4 0-22.6l144-144zM0 488c0-13.3 10.7-24 24-24s24 10.7 24 24-10.7 24-24 24-24-10.7-24-24zm136-24c13.3 0 24 10.7 24 24s-10.7 24-24 24-24-10.7-24-24 10.7-24 24-24zm88 24c0-13.3 10.7-24 24-24s24 10.7 24 24-10.7 24-24 24-24-10.7-24-24zm136-24c13.3 0 24 10.7 24 24s-10.7 24-24 24-24-10.7-24-24 10.7-24 24-24z"/></svg>