<svg xmlns="http://www.w3.org/2000/svg" viewBox="0 0 384 512"><!--! Font Awesome Pro 7.0.0 by @fontawesome - https://fontawesome.com License - https://fontawesome.com/license (Commercial License) Copyright 2025 Fonticons, Inc. --><path fill="currentColor" d="M16 32C7.2 32 0 24.8 0 16S7.2 0 16 0l96 0c53 0 96 43 96 96l0 361.4 116.7-116.7c6.2-6.2 16.4-6.2 22.6 0s6.2 16.4 0 22.6l-144 144c-3 3-7.1 4.7-11.3 4.7s-8.3-1.7-11.3-4.7l-144-144c-6.2-6.2-6.2-16.4 0-22.6s16.4-6.2 22.6 0L176 457.4 176 96c0-35.3-28.7-64-64-64L16 32z"/></svg>