<svg xmlns="http://www.w3.org/2000/svg" viewBox="0 0 384 512"><!--! Font Awesome Pro 7.0.0 by @fontawesome - https://fontawesome.com License - https://fontawesome.com/license (Commercial License) Copyright 2025 Fonticons, Inc. --><path fill="currentColor" d="M283.3 107.3l-80 80c-6.2 6.2-16.4 6.2-22.6 0l-80-80c-6.2-6.2-6.2-16.4 0-22.6s16.4-6.2 22.6 0L176 137.4 176-16c0-8.8 7.2-16 16-16s16 7.2 16 16l0 153.4 52.7-52.7c6.2-6.2 16.4-6.2 22.6 0s6.2 16.4 0 22.6zm0 297.4c6.2 6.2 6.2 16.4 0 22.6s-16.4 6.2-22.6 0L208 374.6 208 528c0 8.8-7.2 16-16 16s-16-7.2-16-16l0-153.4-52.7 52.7c-6.2 6.2-16.4 6.2-22.6 0s-6.2-16.4 0-22.6l80-80c6.2-6.2 16.4-6.2 22.6 0l80 80zM48 256a24 24 0 1 1 -48 0 24 24 0 1 1 48 0zm88 24a24 24 0 1 1 0-48 24 24 0 1 1 0 48zm136-24a24 24 0 1 1 -48 0 24 24 0 1 1 48 0zm88 24a24 24 0 1 1 0-48 24 24 0 1 1 0 48z"/></svg>