<svg xmlns="http://www.w3.org/2000/svg" viewBox="0 0 576 512"><!--! Font Awesome Pro 7.0.0 by @fontawesome - https://fontawesome.com License - https://fontawesome.com/license (Commercial License) Copyright 2025 Fonticons, Inc. --><path fill="currentColor" d="M160.5 512c-4.2 0-8.3-1.7-11.3-4.7l-128-128c-6.2-6.2-6.2-16.4 0-22.6s16.4-6.2 22.6 0l100.7 100.7 0-273.4c0-101.6 82.4-184 184-184s184 82.4 184 184l0 248-.3 3.2c-1.5 7.3-8 12.8-15.7 12.8s-14.2-5.5-15.7-12.8l-.3-3.2 0-248c0-83.9-68.1-152-152-152s-152 68.1-152 152l0 273.4 100.7-100.7 2.5-2.1c6.2-4.1 14.7-3.4 20.1 2.1s6.2 13.9 2.1 20.1l-2.1 2.5-128 128c-3 3-7.1 4.7-11.3 4.7z"/></svg>