<svg xmlns="http://www.w3.org/2000/svg" viewBox="0 0 448 512"><!--! Font Awesome Pro 7.0.0 by @fontawesome - https://fontawesome.com License - https://fontawesome.com/license (Commercial License) Copyright 2025 Fonticons, Inc. --><path fill="currentColor" d="M224 0c8.8 0 16 7.2 16 16l0 212.3 184-106.2c7.7-4.4 17.4-1.8 21.9 5.9s1.8 17.4-5.9 21.9L256 256 440 362.1c7.7 4.4 10.3 14.2 5.9 21.9s-14.2 10.3-21.9 5.9L240 283.7 240 496c0 8.8-7.2 16-16 16s-16-7.2-16-16l0-212.3-184 106.2c-7.7 4.4-17.4 1.8-21.9-5.9S.4 366.6 8 362.1L192 256 8 149.9C.4 145.4-2.3 135.7 2.1 128s14.2-10.3 21.9-5.9L208 228.3 208 16c0-8.8 7.2-16 16-16z"/></svg>