<svg xmlns="http://www.w3.org/2000/svg" viewBox="0 0 512 512"><!--! Font Awesome Pro 7.0.0 by @fontawesome - https://fontawesome.com License - https://fontawesome.com/license (Commercial License) Copyright 2025 Fonticons, Inc. --><path fill="currentColor" d="M480 144c0 34.8-15.9 66-40.9 86.6-22.3 18.4-42.7 44.7-49.1 77.6-9.4 47.7-31 93.8-57.5 120.3-68.7 68.7-180.2 68.7-248.9 0s-68.7-180.2 0-248.9c26.5-26.5 72.5-48.1 120.3-57.5 32.9-6.4 59.3-26.8 77.6-49.1 20.6-25 51.7-40.9 86.6-40.9 61.9 0 112 50.1 112 112zM421.3 314.3c4.6-23.5 19.6-43.9 38.1-59.1 32.1-26.4 52.6-66.4 52.6-111.3 0-79.5-64.5-144-144-144-44.8 0-84.9 20.5-111.3 52.6-15.2 18.5-35.6 33.5-59.1 38.1-51.9 10.2-104.5 34-136.7 66.3-81.2 81.2-81.2 212.9 0 294.2s212.9 81.2 294.2 0c32.3-32.3 56.1-84.9 66.3-136.7zM176.1 240.1c38.2-38.2 88.1-40.4 112.1-16.4s21.8 73.9-16.4 112.1-88.1 40.4-112.1 16.4-21.8-73.9 16.4-112.1zm134.8-39c-41.4-41.4-112.1-28.8-157.4 16.4s-57.8 116-16.4 157.4 112.1 28.8 157.4-16.4 57.8-116 16.4-157.4z"/></svg>