<svg xmlns="http://www.w3.org/2000/svg" viewBox="0 0 448 512"><!--! Font Awesome Pro 7.0.0 by @fontawesome - https://fontawesome.com License - https://fontawesome.com/license (Commercial License) Copyright 2025 Fonticons, Inc. --><path fill="currentColor" d="M252.6-24c-17.6-10.7-39.7-10.7-57.3 0-10.7 6.5-18.4 10.1-26 12.1s-16.1 2.8-28.6 2.5c-20.6-.5-39.7 10.6-49.6 28.6-6 10.9-10.9 17.9-16.5 23.5S62.2 53.2 51.3 59.2c-18.1 9.9-29.1 29-28.6 49.6 .3 12.5-.5 20.9-2.5 28.6s-5.6 15.3-12.1 26c-10.7 17.6-10.7 39.7 0 57.3 6.5 10.7 10.1 18.4 12.1 26s2.8 16.1 2.5 28.6c-.5 20.6 10.6 39.7 28.6 49.6 10.9 6 17.9 10.9 23.5 16.5s10.5 12.5 16.5 23.5l.1 .1-49.9 93.6c-8.3 15.5-2.5 34.9 13.1 43.2l75.8 40.8c15.6 8.4 35.1 2.5 43.5-13.2l50.3-95 50.3 95c8.3 15.7 27.8 21.6 43.5 13.2l75.8-40.8c15.5-8.4 21.4-27.7 13.1-43.2l-49.9-93.6c0 0 0-.1 .1-.1 6-10.9 10.9-17.9 16.5-23.5s12.5-10.5 23.5-16.5c18.1-9.9 29.1-29 28.6-49.6-.3-12.5 .5-20.9 2.5-28.6s5.6-15.3 12.1-26c10.7-17.6 10.7-39.7 0-57.3-6.5-10.7-10.1-18.4-12.1-26s-2.8-16.1-2.5-28.6c.5-20.6-10.6-39.7-28.6-49.6-10.9-6-17.9-10.9-23.5-16.5s-10.5-12.5-16.5-23.5c-9.9-18.1-29-29.1-49.6-28.6-12.5 .3-20.9-.5-28.6-2.5s-15.3-5.6-26-12.1zm80 411.7l45.7 85.7-75.8 40.8-54.9-103.6c1.7-.8 3.3-1.7 4.9-2.7 10.7-6.5 18.4-10.1 26-12.1s16.1-2.8 28.6-2.5c9 .2 17.7-1.8 25.5-5.6zM69.6 473.5l45.7-85.7c7.8 3.8 16.5 5.8 25.5 5.6 12.5-.3 20.9 .5 28.6 2.5s15.3 5.6 26 12.1c1.6 1 3.2 1.9 4.9 2.7l-54.9 103.7-75.8-40.8zM212 3.4c7.4-4.5 16.6-4.5 24 0 12 7.3 22.7 12.5 34.4 15.7s23.5 3.9 37.6 3.6c8.6-.2 16.6 4.4 20.8 12 6.7 12.4 13.4 22.2 21.9 30.8S369 80.6 381.4 87.3c7.6 4.1 12.2 12.1 12 20.8-.3 14.1 .5 25.9 3.6 37.6s8.4 22.3 15.7 34.4c4.5 7.4 4.5 16.6 0 24-7.3 12-12.5 22.7-15.7 34.4s-3.9 23.5-3.6 37.6c.2 8.6-4.4 16.6-12 20.8-12.3 6.7-22.2 13.4-30.8 21.9s-15.2 18.4-21.9 30.8c-4.1 7.6-12.1 12.2-20.8 12-14.1-.3-25.9 .5-37.6 3.6S248 373.3 236 380.6c-7.4 4.5-16.6 4.5-24 0-12-7.3-22.7-12.5-34.4-15.7s-23.5-3.9-37.6-3.6c-8.6 .2-16.6-4.4-20.8-12-6.7-12.3-13.4-22.2-21.9-30.8S79 303.4 66.6 296.7c-7.6-4.1-12.2-12.1-12-20.8 .3-14.1-.5-25.9-3.6-37.6S42.7 216 35.4 204c-4.5-7.4-4.5-16.6 0-24 7.3-12 12.5-22.7 15.7-34.4s3.9-23.5 3.6-37.6c-.2-8.6 4.4-16.6 12-20.8 12.4-6.7 22.2-13.4 30.8-21.9S112.6 47 119.3 34.6c4.1-7.6 12.1-12.2 20.8-12 14.1 .3 25.9-.5 37.6-3.6S200 10.7 212 3.4zM304 192a80 80 0 1 1 -160 0 80 80 0 1 1 160 0zM224 80a112 112 0 1 0 0 224 112 112 0 1 0 0-224z"/></svg>