<svg xmlns="http://www.w3.org/2000/svg" viewBox="0 0 640 512"><!--! Font Awesome Pro 7.0.0 by @fontawesome - https://fontawesome.com License - https://fontawesome.com/license (Commercial License) Copyright 2025 Fonticons, Inc. --><path fill="currentColor" d="M608 208c0-97.2-78.8-176-176-176-43.1 0-82.6 15.5-113.1 41.2-10.6-5.1-21.7-9.5-33-13.1 37.6-37.1 89.2-60 146.2-60 114.9 0 208 93.1 208 208 0 112.8-89.7 204.6-201.7 207.9 5.2-10.6 9.6-21.6 13.3-33 88-9.8 156.4-84.3 156.4-174.9zM364.6 84.4l17.6-.5c6.2-.2 12.1-2.1 17.2-5.6l14.5-10c10.9-7.5 25.3-7.5 36.2 0l14.5 10c5.1 3.5 11 5.4 17.2 5.6l17.6 .5c13.2 .4 24.8 8.8 29.3 21.3l5.9 16.6c2.1 5.8 5.8 10.9 10.6 14.6l14 10.7c10.5 8.1 14.9 21.7 11.2 34.4l-5 16.9c-1.7 5.9-1.7 12.2 0 18.1l5 16.9c3.7 12.7-.7 26.3-11.2 34.4l-14 10.7c-4.9 3.8-8.6 8.8-10.6 14.6l-5.9 16.6c-4.4 12.5-16.1 20.9-29.3 21.3l-17.6 .5c-6.2 .2-12.1 2.1-17.2 5.6l-3.1 2.1c1.6-11.7 2.5-23.6 2.5-35.8l0-1.2c5.5-1.7 11.2-2.6 16.9-2.8l17.6-.5 5.9-16.6c4.1-11.6 11.5-21.8 21.3-29.3l14-10.7-5-16.9c-3.5-11.8-3.5-24.4 0-36.2l5-16.9-14-10.7c-9.8-7.5-17.1-17.7-21.3-29.3l-5.9-16.6-17.6-.5c-12.3-.3-24.3-4.2-34.4-11.2l-14.5-10-14.5 10c-10.2 7-22.1 10.8-34.4 11.2l-1.3 0c-10.5-9.7-21.8-18.5-33.8-26.3 4.8-3.2 10.6-5 16.6-5.2zM384 304a176 176 0 1 0 -352 0 176 176 0 1 0 352 0zM0 304a208 208 0 1 1 416 0 208 208 0 1 1 -416 0zm208-80a80 80 0 1 1 0 160 80 80 0 1 1 0-160zm48 80a48 48 0 1 0 -96 0 48 48 0 1 0 96 0zM128 192a16 16 0 1 1 32 0 16 16 0 1 1 -32 0zm192 32a16 16 0 1 1 0 32 16 16 0 1 1 0-32zM112 384a16 16 0 1 1 0 32 16 16 0 1 1 0-32zm128 32a16 16 0 1 1 0 32 16 16 0 1 1 0-32zm48-16a16 16 0 1 1 32 0 16 16 0 1 1 -32 0zM80 256a16 16 0 1 1 0 32 16 16 0 1 1 0-32z"/></svg>