<svg xmlns="http://www.w3.org/2000/svg" viewBox="0 0 512 512"><!--! Font Awesome Pro 7.0.0 by @fontawesome - https://fontawesome.com License - https://fontawesome.com/license (Commercial License) Copyright 2025 Fonticons, Inc. --><path fill="currentColor" d="M406.6 128l-256 256 146.7 0 182.6-182.6 0-41.4c0-17.7-14.3-32-32-32l-41.4 0zm-45.3 0L214.6 128 32 310.6 32 352c0 17.7 14.3 32 32 32l41.4 0 256-256zM32 265.4L169.4 128 64 128c-17.7 0-32 14.3-32 32l0 105.4zM342.6 384L448 384c17.7 0 32-14.3 32-32L480 246.6 342.6 384zM0 160c0-35.3 28.7-64 64-64l384 0c35.3 0 64 28.7 64 64l0 192c0 35.3-28.7 64-64 64L64 416c-35.3 0-64-28.7-64-64L0 160z"/></svg>