<svg xmlns="http://www.w3.org/2000/svg" viewBox="0 0 576 512"><!--! Font Awesome Pro 7.0.0 by @fontawesome - https://fontawesome.com License - https://fontawesome.com/license (Commercial License) Copyright 2025 Fonticons, Inc. --><path fill="currentColor" d="M256-32c-25.1 0-48 9.7-65.1 25.4 0 0-.3 .3-1 .3s-1.2-.2-1.3-.3C173.9-17.5 155.7-24 136-24 87.4-24 48 15.4 48 64s39.4 88 88 88c19.7 0 37.9-6.5 52.6-17.4 .1-.1 .6-.3 1.3-.3s1 .3 1 .3C208 150.3 230.9 160 256 160s48-9.7 65.1-25.4c0 0 .3-.3 1-.3s1.2 .2 1.3 .3c14.7 10.9 32.9 17.4 52.6 17.4 48.6 0 88-39.4 88-88s-39.4-88-88-88c-19.7 0-37.9 6.5-52.6 17.4-.1 .1-.6 .3-1.3 .3s-1-.3-1-.3C304-22.3 281.1-32 256-32zM212.6 16.9C224 6.4 239.3 0 256 0s32 6.4 43.4 16.9c11.9 11 30.5 11.6 43.2 2.1 9.3-7 20.9-11.1 33.4-11.1 30.9 0 56 25.1 56 56s-25.1 56-56 56c-12.6 0-24.1-4.1-33.4-11.1-12.7-9.5-31.3-8.9-43.2 2.1-11.4 10.5-26.6 16.9-43.4 16.9s-32-6.4-43.4-16.9c-11.9-11-30.5-11.6-43.2-2.1-9.3 7-20.9 11.1-33.4 11.1-30.9 0-56-25.1-56-56S105.1 8 136 8c12.6 0 24.1 4.1 33.4 11.1 12.7 9.5 31.2 8.9 43.2-2.1zM64 179.4L64 416c0 53 43 96 96 96l192 0c53 0 96-43 96-96l0-22.1 101.5-50.7c16.3-8.1 26.5-24.8 26.5-42.9L576 176c0-26.5-21.5-48-48-48l-32 0c-6.3 11.8-14.3 22.6-23.7 32l55.7 0c8.8 0 16 7.2 16 16l0 124.2c0 6.1-3.4 11.6-8.8 14.3l-87.2 43.6 0-178.7c-9.9 6.2-20.6 11.1-32 14.6l0 189.7c0 .2 0 .4 0 .7l0 31.7c0 35.3-28.7 64-64 64l-192 0c-35.3 0-64-28.7-64-64l0-222c-11.4-3.5-22.1-8.4-32-14.6zM176 224c-8.8 0-16 7.2-16 16l0 160c0 8.8 7.2 16 16 16s16-7.2 16-16l0-160c0-8.8-7.2-16-16-16zm160 0c-8.8 0-16 7.2-16 16l0 160c0 8.8 7.2 16 16 16s16-7.2 16-16l0-160c0-8.8-7.2-16-16-16zm-80 0c-8.8 0-16 7.2-16 16l0 160c0 8.8 7.2 16 16 16s16-7.2 16-16l0-160c0-8.8-7.2-16-16-16z"/></svg>