<svg xmlns="http://www.w3.org/2000/svg" viewBox="0 0 576 512"><!--! Font Awesome Pro 7.0.0 by @fontawesome - https://fontawesome.com License - https://fontawesome.com/license (Commercial License) Copyright 2025 Fonticons, Inc. --><path fill="currentColor" d="M192 64l0 32-64 0 0-32 64 0zM96 64l0 32c-35.3 0-64 28.7-64 64l0 32-16 0c-8.8 0-16 7.2-16 16s7.2 16 16 16l19.2 0 23 230.4C61.5 487.1 89 512 121.9 512l332.2 0c32.9 0 60.4-24.9 63.7-57.6l23-230.4 19.2 0c8.8 0 16-7.2 16-16s-7.2-16-16-16l-16 0 0-32c0-35.3-28.7-64-64-64l0-32c0-17.7-14.3-32-32-32l-64 0c-17.7 0-32 14.3-32 32l0 32c-35.3 0-64 28.7-64 64 0-35.3-28.7-64-64-64l0-32c0-17.7-14.3-32-32-32l-64 0c-17.7 0-32 14.3-32 32zM512 192l-192 0 0-32c0-17.7 14.3-32 32-32l128 0c17.7 0 32 14.3 32 32l0 32zm-256 0l-192 0 0-32c0-17.7 14.3-32 32-32l128 0c17.7 0 32 14.3 32 32l0 32zM448 64l0 32-64 0 0-32 64 0zM90.1 451.2L67.4 224 508.6 224 485.9 451.2c-1.6 16.4-15.4 28.8-31.8 28.8l-332.2 0c-16.4 0-30.2-12.5-31.8-28.8z"/></svg>