<svg xmlns="http://www.w3.org/2000/svg" viewBox="0 0 448 512"><!--! Font Awesome Pro 7.0.0 by @fontawesome - https://fontawesome.com License - https://fontawesome.com/license (Commercial License) Copyright 2025 Fonticons, Inc. --><path fill="currentColor" d="M448 56c0-8.8-7.2-16-16-16s-16 7.2-16 16l0 360c0 17.7-14.3 32-32 32L24 448c-8.8 0-16 7.2-16 16s7.2 16 16 16l360 0c35.3 0 64-28.7 64-64l0-360zM184 64a24 24 0 1 0 -48 0 24 24 0 1 0 48 0zM288 40a24 24 0 1 0 0 48 24 24 0 1 0 0-48zM56 64A24 24 0 1 0 8 64 24 24 0 1 0 56 64zM32 296a24 24 0 1 0 0 48 24 24 0 1 0 0-48zM56 192a24 24 0 1 0 -48 0 24 24 0 1 0 48 0z"/></svg>