<svg xmlns="http://www.w3.org/2000/svg" viewBox="0 0 448 512"><!--! Font Awesome Pro 7.0.0 by @fontawesome - https://fontawesome.com License - https://fontawesome.com/license (Commercial License) Copyright 2025 Fonticons, Inc. --><path fill="currentColor" d="M0 464c0 8.8 7.2 16 16 16s16-7.2 16-16L32 96c0-17.7 14.3-32 32-32l368 0c8.8 0 16-7.2 16-16s-7.2-16-16-16L64 32C28.7 32 0 60.7 0 96L0 464zm264-16a24 24 0 1 0 48 0 24 24 0 1 0 -48 0zM160 472a24 24 0 1 0 0-48 24 24 0 1 0 0 48zm232-24a24 24 0 1 0 48 0 24 24 0 1 0 -48 0zm24-232a24 24 0 1 0 0-48 24 24 0 1 0 0 48zM392 320a24 24 0 1 0 48 0 24 24 0 1 0 -48 0z"/></svg>