<svg xmlns="http://www.w3.org/2000/svg" viewBox="0 0 512 512"><!--! Font Awesome Pro 7.0.0 by @fontawesome - https://fontawesome.com License - https://fontawesome.com/license (Commercial License) Copyright 2025 Fonticons, Inc. --><path fill="currentColor" d="M160.6 132.7c-6.2-6.2-6.2-16.4 0-22.6L262.1 8.6c6.2-6.2 16.4-6.2 22.6 0l82.7 82.7c6.2 6.2 6.2 16.4 0 22.6L265.9 215.4c-6.2 6.2-16.4 6.2-22.6 0l-82.7-82.7zm-22.6 22.6l68.6 68.6-94.6 0c-8.8 0-16 7.2-16 16s7.2 16 16 16l288 0c8.8 0 16-7.2 16-16s-7.2-16-16-16l-97.4 0 87.5-87.5c18.7-18.7 18.7-49.1 0-67.9L307.4-14.1c-18.7-18.7-49.1-18.7-67.9 0L137.9 87.5c-18.7 18.7-18.7 49.1 0 67.9zM433.2 160l14.8 0c17.7 0 32 14.3 32 32l0 128-448 0 0-128c0-17.7 14.3-32 32-32l19.6 0c-4.5-10.2-7.2-21.1-7.9-32L64 128c-35.3 0-64 28.7-64 64L0 448c0 35.3 28.7 64 64 64l384 0c35.3 0 64-28.7 64-64l0-256c0-35-28.1-63.4-62.9-64-3.1 11.3-8.4 22.2-15.8 32zM480 352l0 96c0 17.7-14.3 32-32 32L64 480c-17.7 0-32-14.3-32-32l0-96 448 0z"/></svg>