<svg xmlns="http://www.w3.org/2000/svg" viewBox="0 0 576 512"><!--! Font Awesome Pro 7.1.0 by @fontawesome - https://fontawesome.com License - https://fontawesome.com/license (Commercial License) Copyright 2025 Fonticons, Inc. --><path fill="currentColor" d="M256.7 16c-4.8 10.1-8.6 20.9-11.4 32l-99.9 0c-10.3 0-20 5-26 13.4L71.8 128 245.3 128c2.7 11.1 6.5 21.9 11.3 32l-192.1 0 0 256c0 17.7 14.3 32 32 32l320 0c17.7 0 32-14.3 32-32l0-164.8c8.5-2.1 16.7-4.8 24.6-8.1l7.4 7.4 0 165.4-.3 6.5c-3.1 30.1-27 54.1-57.1 57.1l-6.5 .3-320 0-6.5-.3c-30.1-3.1-54.1-27-57.1-57.1l-.3-6.5 0-267.5c0-11.7 3.2-23.1 9.2-33l2.7-4.2 48.9-68.5c10.5-14.7 26.7-24.2 44.4-26.3l7.7-.5 111.3 0zm-.2 192c8.8 0 16 7.2 16 16l0 121.4 44.7-44.7c6.2-6.2 16.4-6.2 22.6 0s6.2 16.4 0 22.6l-72 72-2.5 2.1c-6.2 4.1-14.7 3.4-20.1-2.1l-72-72-2.1-2.5c-4.1-6.2-3.4-14.7 2.1-20.1s13.9-6.2 20.1-2.1l2.5 2.1 44.7 44.7 0-121.4c0-8.8 7.2-16 16-16zm152-239.9c66.3 0 120 53.7 120 120 0 27.4-9.2 52.5-24.6 72.7l67.9 68c6.2 6.2 6.2 16.4 0 22.6-5.5 5.5-13.9 6.1-20.1 2l-2.5-2-67.9-68c-20.2 15.4-45.4 24.7-72.8 24.7-66.3 0-120-53.7-120-120s53.7-120 120-120zm0 32a88 88 0 1 0 0 176 88 88 0 1 0 0-176z"/></svg>