<svg xmlns="http://www.w3.org/2000/svg" viewBox="0 0 512 512"><!--! Font Awesome Pro 7.0.0 by @fontawesome - https://fontawesome.com License - https://fontawesome.com/license (Commercial License) Copyright 2025 Fonticons, Inc. --><path fill="currentColor" d="M64 224c-17.7 0-32-14.3-32-32 0-39.1 22.3-70.6 63.7-93.9 42-23.6 100.2-36.5 160.3-36.5S374.3 74.5 416.3 98.1c41.4 23.3 63.7 54.8 63.7 93.9 0 17.7-14.3 32-32 32s-32 14.3-32 32l0 176c0 8.8-7.2 16-16 16l-288 0c-8.8 0-16-7.2-16-16l0-176c0-17.7-14.3-32-32-32zm384 64l0-32c35.3 0 64-28.7 64-64 0-216.5-512-216.5-512 0 0 35.3 28.7 64 64 64l0 176c0 26.5 21.5 48 48 48l288 0c26.5 0 48-21.5 48-48l0-144z"/></svg>