<svg xmlns="http://www.w3.org/2000/svg" viewBox="0 0 576 512"><!--! Font Awesome Pro 7.0.0 by @fontawesome - https://fontawesome.com License - https://fontawesome.com/license (Commercial License) Copyright 2025 Fonticons, Inc. --><path fill="currentColor" d="M16 32C7.2 32 0 39.2 0 48S7.2 64 16 64l32 0 0 64-32 0c-8.8 0-16 7.2-16 16L0 256c0 7.3 5 13.7 12.1 15.5l3.4 .9C44 279.5 64 305.1 64 334.5L64 448c0 17.7 14.3 32 32 32l64 0c17.7 0 32-14.3 32-32l0-96c0-35.3 28.7-64 64-64 6.3 0 12.4 .9 18.2 2.6 6.5-9.3 13.7-18 21.7-26-12.1-5.5-25.6-8.6-39.8-8.6-53 0-96 43-96 96l0 96-64 0 0-113.5c0-41-26-77.1-64-90.5l0-83.9 448 0 0 54c11.1 2.9 21.8 6.7 32 11.4l0-81.4c0-8.8-7.2-16-16-16l-32 0 0-64 32 0c8.8 0 16-7.2 16-16s-7.2-16-16-16L16 32zM432 64l0 64-96 0 0-64 96 0zM304 64l0 64-96 0 0-64 96 0zM176 64l0 64-96 0 0-64 96 0zM320 400a112 112 0 1 1 224 0 112 112 0 1 1 -224 0zm256 0a144 144 0 1 0 -288 0 144 144 0 1 0 288 0zM432 484a20 20 0 1 0 0-40 20 20 0 1 0 0 40zm0-164c-8.8 0-16 7.2-16 16l0 64c0 8.8 7.2 16 16 16s16-7.2 16-16l0-64c0-8.8-7.2-16-16-16z"/></svg>