<svg xmlns="http://www.w3.org/2000/svg" viewBox="0 0 576 512"><!--! Font Awesome Pro 7.0.0 by @fontawesome - https://fontawesome.com License - https://fontawesome.com/license (Commercial License) Copyright 2025 Fonticons, Inc. --><path fill="currentColor" d="M16 32C7.2 32 0 39.2 0 48S7.2 64 16 64l32 0 0 64-32 0c-8.8 0-16 7.2-16 16L0 256c0 7.3 5 13.7 12.1 15.5l3.4 .9C44 279.5 64 305.1 64 334.5L64 448c0 17.7 14.3 32 32 32l64 0c17.7 0 32-14.3 32-32l0-96c0-35.3 28.7-64 64-64 33.7 0 61.3 26 63.8 59.1 4.6-6.9 10-13.2 16.2-18.7l0-24.4c0-1.7 0-3.3 .1-4.9-17.2-25.9-46.6-43.1-80.1-43.1-53 0-96 43-96 96l0 96-64 0 0-113.5c0-41-26-77.1-64-90.5l0-83.9 448 0 0 17c11.2 1.4 21.9 4.2 32 8.3l0-41.3c0-8.8-7.2-16-16-16l-32 0 0-64 32 0c8.8 0 16-7.2 16-16s-7.2-16-16-16L16 32zM432 64l0 64-96 0 0-64 96 0zM304 64l0 64-96 0 0-64 96 0zM176 64l0 64-96 0 0-64 96 0zM384 352.1l0 2.6c-18.6 6.6-32 24.4-32 45.3l0 96c0 26.5 21.5 48 48 48l128 0c26.5 0 48-21.5 48-48l0-96c0-20.9-13.4-38.7-32-45.3l0-50.6c0-44.2-35.8-80-80-80s-80 35.8-80 80l0 48zm0 47.9c0-8.2 6.2-15 14.3-15.9l131.5 0c8 .9 14.3 7.7 14.3 15.9l0 96c0 8.8-7.2 16-16 16l-128 0c-8.8 0-16-7.2-16-16l0-96zm128-95.9l0 47.9-96 0 0-47.9c0-26.5 21.5-48 48-48s48 21.5 48 48z"/></svg>