<svg xmlns="http://www.w3.org/2000/svg" viewBox="0 0 512 512"><!--! Font Awesome Pro 7.0.0 by @fontawesome - https://fontawesome.com License - https://fontawesome.com/license (Commercial License) Copyright 2025 Fonticons, Inc. --><path fill="currentColor" d="M352 32L96 32C78.3 32 64 46.3 64 64l0 384c0 17.7 14.3 32 32 32l64 0 0-64c0-35.3 28.7-64 64-64 11 0 21.3 2.8 30.3 7.6-6.7 8.3-11.4 18.3-13.4 29.2-4.9-3.1-10.7-4.9-17-4.9-17.7 0-32 14.3-32 32l0 64 48 0 0 32-144 0c-35.3 0-64-28.7-64-64L32 64C32 28.7 60.7 0 96 0L352 0c35.3 0 64 28.7 64 64l0 272-32 0 0-272c0-17.7-14.3-32-32-32zm-80 80l16 0c8.8 0 16 7.2 16 16l0 16c0 8.8-7.2 16-16 16l-16 0c-8.8 0-16-7.2-16-16l0-16c0-8.8 7.2-16 16-16zM256 240c0-8.8 7.2-16 16-16l16 0c8.8 0 16 7.2 16 16l0 16c0 8.8-7.2 16-16 16l-16 0c-8.8 0-16-7.2-16-16l0-16zM160 112l16 0c8.8 0 16 7.2 16 16l0 16c0 8.8-7.2 16-16 16l-16 0c-8.8 0-16-7.2-16-16l0-16c0-8.8 7.2-16 16-16zM144 240c0-8.8 7.2-16 16-16l16 0c8.8 0 16 7.2 16 16l0 16c0 8.8-7.2 16-16 16l-16 0c-8.8 0-16-7.2-16-16l0-16zM428.3 384.4c7.2-1.7 14.7 1.8 18 8.4l33.7 67.4 0-60.2c0-8.8 7.2-16 16-16s16 7.2 16 16l0 128c0 7.4-5.1 13.9-12.3 15.6s-14.7-1.8-18-8.4L448 467.8 448 528c0 8.8-7.2 16-16 16s-16-7.2-16-16l0-128c0-7.4 5.1-13.9 12.3-15.6zM320 400l0 96c0 8.8 7.2 16 16 16s16-7.2 16-16l0-96c0-8.8 7.2-16 16-16s16 7.2 16 16l0 96c0 26.5-21.5 48-48 48s-48-21.5-48-48l0-96c0-8.8 7.2-16 16-16s16 7.2 16 16z"/></svg>