<svg xmlns="http://www.w3.org/2000/svg" viewBox="0 0 640 512"><!--! Font Awesome Pro 7.0.0 by @fontawesome - https://fontawesome.com License - https://fontawesome.com/license (Commercial License) Copyright 2025 Fonticons, Inc. --><path fill="currentColor" d="M250.4 32c-17.1 0-32.9 9.1-41.5 23.8L185.5 96 128 96c-35.3 0-64 28.7-64 64l0 256c0 35.3 28.7 64 64 64l193.4 0c-4.7-10.2-8.5-20.9-11.4-32l-182 0c-17.7 0-32-14.3-32-32l0-256c0-17.7 14.3-32 32-32l66.7 0c5.7 0 11-3 13.8-7.9l28.1-48.1c2.9-4.9 8.1-7.9 13.8-7.9l139.2 0c5.7 0 11 3 13.8 7.9l28.1 48.1c2.9 4.9 8.1 7.9 13.8 7.9l66.7 0c17.7 0 32 14.3 32 32l0 54c11.1 2.9 21.8 6.7 32 11.4l0-65.4c0-35.3-28.7-64-64-64l-57.5 0-23.4-40.2C422.5 41.1 406.7 32 389.6 32L250.4 32zM320 176c-61.9 0-112 50.1-112 112 0 56.4 41.7 103.1 96 110.9 .1-10.9 1-21.6 2.8-31.9-37.9-6.3-66.8-39.2-66.8-78.9 0-44.2 35.8-80 80-80 27.4 0 51.5 13.7 65.9 34.7 8.7-6.1 18-11.5 27.7-16.2-20-30.4-54.5-50.5-93.6-50.5zM496 288a112 112 0 1 1 0 224 112 112 0 1 1 0-224zm0 256a144 144 0 1 0 0-288 144 144 0 1 0 0 288zm0-224c-8.8 0-16 7.2-16 16l0 64c0 8.8 7.2 16 16 16l48 0c8.8 0 16-7.2 16-16s-7.2-16-16-16l-32 0 0-48c0-8.8-7.2-16-16-16z"/></svg>