<svg xmlns="http://www.w3.org/2000/svg" viewBox="0 0 512 512"><!--! Font Awesome Pro 7.0.0 by @fontawesome - https://fontawesome.com License - https://fontawesome.com/license (Commercial License) Copyright 2025 Fonticons, Inc. --><path fill="currentColor" d="M226.4 30.1c13.4 12.5 24.8 26.1 37.3 41.3 7 8.5 19.9 8.9 27.4 .9 4.5-4.8 12.7-13.6 18.2-18.9 31.5 30 61.8 77 61.8 121.2 0 28.9-10.2 55.2-27.2 75.5 .6-3.7 .9-7.6 .9-11.5 0-52.2-58-100.4-79.4-116.5-4.7-3.5-11-3.5-15.7 0-21.5 16.1-79.4 64.4-79.4 116.5 0 5.3 .6 10.6 1.6 15.6-19.2-20.7-30.8-48.7-30.8-79.6 0-25.1 11.1-52.1 28.2-78.3 16.5-25.2 37.8-48.4 57.3-66.2zm89.3 208.5c0 25.8-22 50.1-53.6 52.2-1.7 .1-3.4 .1-5.2 .2-33.7-.3-57.6-25.5-57.6-52.4 0-15.8 9.2-34.3 24.9-53.2 11-13.2 23.5-24.5 33.3-32.6 9.8 8 22.2 19.3 33.3 32.6 15.7 18.9 24.9 37.4 24.9 53.2zM208.6 7c-21.2 19.2-45.1 44.8-63.8 73.4-18.6 28.4-32.9 61.1-32.9 94.2 0 80.6 64 145.5 144.1 145.5s144.1-64.8 144.1-145.5c0-56.8-38.1-111.9-72.8-144.2-10.1-9.4-25.9-9.5-36.1-.1-3.6 3.3-8.5 8.4-13 13.1-10.5-12.6-21.3-24.8-34-36.4-4.2-3.9-9.7-6.9-17-6.9-5.5 0-13.1 1.7-18.7 6.9zM21.9 289.1c-8.2-3.3-17.5 .7-20.8 8.9s.7 17.5 8.9 20.8L212.9 400 10.1 481.1c-8.2 3.3-12.2 12.6-8.9 20.8s12.6 12.2 20.8 8.9L256 417.2 490.1 510.9c8.2 3.3 17.5-.7 20.8-8.9s-.7-17.5-8.9-20.8L299.1 400 501.9 318.9c8.2-3.3 12.2-12.6 8.9-20.8s-12.6-12.2-20.8-8.9L256 382.8 21.9 289.1z"/></svg>