<svg xmlns="http://www.w3.org/2000/svg" viewBox="0 0 384 512"><!--! Font Awesome Pro 7.0.0 by @fontawesome - https://fontawesome.com License - https://fontawesome.com/license (Commercial License) Copyright 2025 Fonticons, Inc. --><path fill="currentColor" d="M336 432l0-146.4c-12.8 6.5-27.7 11.9-43.7 16.2-6.5 1.7-13.3 3.3-20.4 4.7-1.3 43-36.6 77.6-80 77.6s-78.7-34.5-80-77.6c-7-1.4-13.8-3-20.4-4.7-16-4.3-30.8-9.7-43.7-16.2L48 432c0 3 1.5 7.5 7.6 13.3 6.1 5.8 15.9 11.8 29.2 17.1 26.6 10.7 64.5 17.6 107.2 17.6s80.6-6.9 107.2-17.6c13.4-5.3 23.1-11.3 29.2-17.1 6.1-5.8 7.6-10.3 7.6-13.3zm0-183.7l0-120.7c-7.4 4.7-15.9 8.9-24.9 12.5-31.3 12.5-73.4 19.9-119.1 19.9s-87.8-7.4-119.1-19.9c-9.1-3.6-17.5-7.8-24.9-12.5l0 120.7c11.7 8.5 29.3 16.4 51.9 22.5 5.6 1.5 11.4 2.9 17.5 4.1 11.6-29.8 40.6-50.9 74.5-50.9s62.9 21.1 74.5 50.9c6.1-1.2 11.9-2.6 17.5-4.1 22.7-6.1 40.3-14 51.9-22.5zM48 80c0 3 1.5 7.5 7.6 13.3 6.1 5.8 15.9 11.8 29.2 17.1 26.6 10.7 64.5 17.6 107.2 17.6s80.6-6.9 107.2-17.6c13.4-5.3 23.1-11.3 29.2-17.1 6.1-5.8 7.6-10.3 7.6-13.3s-1.5-7.5-7.6-13.3C322.3 60.9 312.6 54.9 299.2 49.6 272.6 38.9 234.7 32 192 32S111.4 38.9 84.8 49.6C71.4 54.9 61.7 60.9 55.6 66.7 49.5 72.5 48 77 48 80zm320 0l0 360c0 39.8-78.8 72-176 72S16 479.8 16 440L16 72C16 32.2 94.8 0 192 0S368 32.2 368 72l0 8zM192 352a48 48 0 1 0 0-96 48 48 0 1 0 0 96z"/></svg>