<svg xmlns="http://www.w3.org/2000/svg" viewBox="0 0 576 512"><!--! Font Awesome Pro 7.0.0 by @fontawesome - https://fontawesome.com License - https://fontawesome.com/license (Commercial License) Copyright 2025 Fonticons, Inc. --><path fill="currentColor" d="M575.9 94.7c.6 6.8-3.3 13.3-9.6 16l-97.8 41.9c17.5 30.5 27.5 65.8 27.5 103.4 0 114.9-93.1 208-208 208-37.6 0-72.9-10-103.4-27.5l-41.9 97.7c-2.7 6.3-9.1 10.2-16 9.6s-12.6-5.4-14.2-12.1l-11.8-47.2-31.6 10.5c-5.7 1.9-12.1 .4-16.4-3.9s-5.8-10.6-3.9-16.4l10.5-31.6-47.2-11.8C5.5 429.9 .6 424.1 .1 417.3s3.3-13.3 9.6-16l97.7-41.9C90 329 80 293.7 80 256 80 141.1 173.1 48 288 48 325.6 48 360.9 58 391.4 75.5l41.9-97.8c2.7-6.3 9.1-10.2 16-9.6s12.6 5.4 14.2 12.1l11.8 47.2 31.6-10.5c5.8-1.9 12.1-.4 16.4 3.9s5.8 10.6 3.9 16.4l-10.5 31.6 47.2 11.8c6.7 1.7 11.5 7.4 12.1 14.2zm-157.6-.8c11.7 9.4 22.4 20.1 31.8 31.8l60-25.7-17.9-4.5c-4.3-1.1-8-3.9-10.1-7.8s-2.6-8.5-1.2-12.8l5.9-17.6-17.6 5.9c-4.2 1.4-8.9 1-12.8-1.2s-6.7-5.8-7.8-10.1L444 34 418.3 93.9zM390.8 398.8L112.4 243.5c-.3 4.1-.4 8.3-.4 12.5 0 97.2 78.8 176 176 176 38.4 0 73.9-12.3 102.9-33.2zm25.5-22.4c17.9-19.1 31.6-42.2 39.6-67.8L158 137.3c-18.6 20.4-32.5 45.2-40 72.7L416.3 376.4zm46.5-100.7c.7-6.5 1.1-13 1.1-19.7 0-97.2-78.8-176-176-176-39.3 0-75.7 12.9-105 34.7L462.9 275.7zm-337 110.6L66 412 83.9 416.5c4.3 1.1 8 3.9 10.1 7.8s2.6 8.5 1.2 12.8l-5.9 17.6 17.6-5.9c4.2-1.4 8.9-1 12.8 1.2s6.7 5.8 7.8 10.1l4.5 17.9 25.7-59.9c-11.7-9.4-22.4-20.1-31.8-31.8z"/></svg>