<svg xmlns="http://www.w3.org/2000/svg" viewBox="0 0 640 512"><!--! Font Awesome Pro 7.0.0 by @fontawesome - https://fontawesome.com License - https://fontawesome.com/license (Commercial License) Copyright 2025 Fonticons, Inc. --><path fill="currentColor" d="M110.9 96c-8 0-14.7 5.9-15.8 13.7-6 42-39.3 75.3-81.3 81.3-7.9 1.1-13.7 7.9-13.7 15.8L0 352c0 35.3 28.7 64 64 64l512 0c35.3 0 64-28.7 64-64l0-192c0-35.3-28.7-64-64-64L110.9 96zM32 220c45-11.6 80.4-47 92-92l36 0 0 112-128 0 0-20zm0 52l128 0 0 112-96 0c-17.7 0-32-14.3-32-32l0-80zM192 384l0-112 128 0 0 112-128 0zm160 0l0-256 224 0c17.7 0 32 14.3 32 32l0 192c0 17.7-14.3 32-32 32l-224 0zM320 128l0 112-128 0 0-112 128 0z"/></svg>