<svg xmlns="http://www.w3.org/2000/svg" viewBox="0 0 448 512"><!--! Font Awesome Pro 7.0.0 by @fontawesome - https://fontawesome.com License - https://fontawesome.com/license (Commercial License) Copyright 2025 Fonticons, Inc. --><path fill="currentColor" d="M243.1 95.3l-22.6 22.6c-12.5 12.5-32.8 12.5-45.3 0s-12.5-32.8 0-45.3L197.8 50c16.7-16.7 37-27.9 58.3-33.4l0 68.6c-4.7 2.7-9.1 6.1-13.1 10.1zm77.8-9.9c-10-5.9-21.4-8.9-32.7-8.9l0-64c27.8 0 55.6 8.9 78.7 26.9l-46 46zM343.5 108l46-46c15.2 19.6 24 42.5 26.3 66l-64.6 0c-1.4-7-3.9-13.7-7.6-20zm71.4 52c-3.5 23-13.4 45.3-29.5 64l-90 0 38.2-38.2c7.5-7.5 12.7-16.3 15.7-25.8l65.5 0zM199.4 320l64-64 90.5 0-64 64-90.5 0zm58.5 32l-64 64-90.5 0 64-64 90.5 0zM73.4 491.2c-11.8-11.8-12.5-30.7-1.8-43.2l90.3 0-43.2 43.2c-12.5 12.5-32.8 12.5-45.3 0zM265.7 117.9c12.5-12.5 32.8-12.5 45.3 0s12.5 32.8 0 45.3L50.7 423.4c-25 25-25 65.5 0 90.5s65.5 25 90.5 0L401.5 253.7c62.5-62.5 62.5-163.8 0-226.3s-163.8-62.5-226.3 0L152.6 50c-25 25-25 65.5 0 90.5s65.5 25 90.5 0l22.6-22.6z"/></svg>