<svg xmlns="http://www.w3.org/2000/svg" viewBox="0 0 640 512"><!--! Font Awesome Pro 7.0.0 by @fontawesome - https://fontawesome.com License - https://fontawesome.com/license (Commercial License) Copyright 2025 Fonticons, Inc. --><path fill="currentColor" d="M126.8 94.2L87.6 192 146 192c-1.3 5.1-2 10.5-2 16s.7 10.9 2 16l-82 0c-17.7 0-32 14.3-32 32l0 80c0 17.7 14.3 32 32 32l3.3 0c10.4-36.9 44.4-64 84.7-64s74.2 27.1 84.7 64l150.6 0c10.4-36.9 44.4-64 84.7-64s74.2 27.1 84.7 64l19.3 0c17.7 0 32-14.3 32-32l0-16c0-53-43-96-96-96l-114 0c1.3-5.1 2-10.5 2-16s-.7-10.9-2-16l74 0-81.6-108.8C381.3 71.1 367.1 64 352 64L171.3 64c-19.6 0-37.3 11.9-44.6 30.2zM52.8 193L97.1 82.3C109.2 51.9 138.6 32 171.3 32L352 32c25.2 0 48.9 11.9 64 32l96 128c70.7 0 128 57.3 128 128l0 16c0 35.3-28.7 64-64 64l-16.4 0c-4 44.9-41.7 80-87.6 80s-83.6-35.1-87.6-80l-144.7 0c-4 44.9-41.7 80-87.6 80s-83.6-35.1-87.6-80l-.4 0c-35.3 0-64-28.7-64-64l0-80c0-31.5 22.8-57.7 52.8-63zM152 448a56 56 0 1 0 0-112 56 56 0 1 0 0 112zm376-56a56 56 0 1 0 -112 0 56 56 0 1 0 112 0zM315.3 123.3L246.6 192 336 192c6.5 0 12.3 3.9 14.8 9.9s1.1 12.9-3.5 17.4l-96 96c-6.2 6.2-16.4 6.2-22.6 0s-6.2-16.4 0-22.6l68.7-68.7-89.4 0c-6.5 0-12.3-3.9-14.8-9.9s-1.1-12.9 3.5-17.4l96-96c6.2-6.2 16.4-6.2 22.6 0s6.2 16.4 0 22.6z"/></svg>