<svg xmlns="http://www.w3.org/2000/svg" viewBox="0 0 512 512"><!--! Font Awesome Pro 7.0.0 by @fontawesome - https://fontawesome.com License - https://fontawesome.com/license (Commercial License) Copyright 2025 Fonticons, Inc. --><path fill="currentColor" d="M108.9 107.8l-28.1 84.2 55.7 0c-5.6 9.8-8.6 20.8-8.6 32l-64 0c-17.7 0-32 14.3-32 32l0 128 448 0 0-128c0-17.7-14.3-32-32-32l-64 0c0-8.2-1.6-16.6-4.9-24.5-1.1-2.6-2.3-5.1-3.7-7.5l55.7 0-28.1-84.2C394.3 81.6 369.9 64 342.3 64L169.7 64c-27.5 0-52 17.6-60.7 43.8zM46.3 194.5L78.6 97.6C91.7 58.4 128.3 32 169.7 32l172.7 0c41.3 0 78 26.4 91.1 65.6l32.3 96.8c26.7 7.7 46.3 32.3 46.3 61.5l0 208c0 8.8-7.2 16-16 16s-16-7.2-16-16l0-48-448 0 0 48c0 8.8-7.2 16-16 16S0 472.8 0 464L0 256c0-29.2 19.6-53.8 46.3-61.5zM104 280a24 24 0 1 1 0 48 24 24 0 1 1 0-48zm280 24a24 24 0 1 1 48 0 24 24 0 1 1 -48 0zM299.3 139.3L230.6 208 320 208c6.5 0 12.3 3.9 14.8 9.9s1.1 12.9-3.5 17.4l-96 96c-6.2 6.2-16.4 6.2-22.6 0s-6.2-16.4 0-22.6l68.7-68.7-89.4 0c-6.5 0-12.3-3.9-14.8-9.9s-1.1-12.9 3.5-17.4l96-96c6.2-6.2 16.4-6.2 22.6 0s6.2 16.4 0 22.6z"/></svg>