<svg xmlns="http://www.w3.org/2000/svg" viewBox="0 0 512 512"><!--! Font Awesome Pro 7.0.0 by @fontawesome - https://fontawesome.com License - https://fontawesome.com/license (Commercial License) Copyright 2025 Fonticons, Inc. --><path fill="currentColor" d="M454.7 64.3c32.3 3.3 57.5 30.5 57.5 63.7l0 320-.3 6.5c-3.1 30.1-27 54.1-57.1 57.1l-6.5 .3-192 0-6.5-.3c-12.1-1.2-23.1-5.9-32.3-12.8l70.3-18.8 160.5 0c17.7 0 32-14.3 32-32l0-320c0-17.7-14.3-32-32-32l-75 0-8.6-32 83.5 0 6.5 .3zM233.3-18.6c32-5.2 63.4 14.6 72 46.6l82.8 309.1 1.4 6.4c4.8 29.9-12.1 59.2-40.4 70l-6.2 2-185.4 49.7-6.4 1.3c-29.9 4.8-59.2-12.1-70-40.4L79 420-3.8 110.9c-8.6-32 8.7-64.9 39-76.4l6.2-2 185.5-49.7 6.4-1.3zm41.1 54.9c-4.6-17.1-22.1-27.2-39.2-22.6L49.7 63.4C32.7 68 22.5 85.5 27.1 102.6l82.8 309.1c4.6 17.1 22.1 27.2 39.2 22.6l185.4-49.7c17.1-4.6 27.2-22.1 22.6-39.2L274.4 36.3z"/></svg>