<svg xmlns="http://www.w3.org/2000/svg" viewBox="0 0 320 512"><!--! Font Awesome Pro 7.1.0 by @fontawesome - https://fontawesome.com License - https://fontawesome.com/license (Commercial License) Copyright 2025 Fonticons, Inc. --><path fill="currentColor" d="M137.9 374.6c12.9 11.6 32.4 12.8 45.2 0l128-128c9.2-9.2 11.9-22.9 6.9-34.9l-2.2-4.3c-5.7-9.5-16.1-15.5-27.4-15.5l-256 0-4.8 .3c-9.4 1.4-17.7 7-22.6 15.1l-2.2 4.3C-1.4 222.2 .2 234 6.7 243l3.1 3.7 128 128zm22.7-23c-.3-.1-.7-.3-1.1-.7L32.5 224 288.5 224 160.8 351.7c-.1 0-.2-.1-.2-.1z"/></svg>