<svg xmlns="http://www.w3.org/2000/svg" viewBox="0 0 512 512"><!--! Font Awesome Pro 7.0.0 by @fontawesome - https://fontawesome.com License - https://fontawesome.com/license (Commercial License) Copyright 2025 Fonticons, Inc. --><path fill="currentColor" d="M96.4 112.5l-27.9 111.5 375 0-27.9-111.5C408.5 84 382.9 64 353.5 64L158.5 64c-29.4 0-55 20-62.1 48.5zM33.6 231.7l31.7-127C76 62 114.4 32 158.5 32l195.1 0c44.1 0 82.4 30 93.1 72.7l31.7 127c20 10.8 33.6 32 33.6 56.3l0 176c0 8.8-7.2 16-16 16s-16-7.2-16-16l0-48-448 0 0 48c0 8.8-7.2 16-16 16S0 472.8 0 464L0 288c0-24.3 13.6-45.5 33.6-56.3zM64 256c-17.7 0-32 14.3-32 32l0 96 448 0 0-96c0-17.7-14.3-32-32-32L64 256zm32 40a24 24 0 1 1 0 48 24 24 0 1 1 0-48zm296 24a24 24 0 1 1 48 0 24 24 0 1 1 -48 0zM176 176a24 24 0 1 0 0-48 24 24 0 1 0 0 48zm0-80a56 56 0 1 1 0 112 56 56 0 1 1 0-112zm184 56a24 24 0 1 0 -48 0 24 24 0 1 0 48 0zm-80 0a56 56 0 1 1 112 0 56 56 0 1 1 -112 0z"/></svg>