<svg xmlns="http://www.w3.org/2000/svg" viewBox="0 0 576 512"><!--! Font Awesome Pro 7.0.0 by @fontawesome - https://fontawesome.com License - https://fontawesome.com/license (Commercial License) Copyright 2025 Fonticons, Inc. --><path fill="currentColor" d="M415-8c-12.5-12.5-32.8-12.5-45.3 0L357.6 4.1c-25.9 25.9-33.9 63-24 95.8-10.9-2.6-22.3-3.9-34.1-3.9-58.3 0-111.3 34.1-135.5 87.2L35.2 466.8c-5.5 12.1-2.9 26.4 6.5 35.9s23.7 12 35.9 6.5L361.1 380.3c53.1-24.1 87.2-77.1 87.2-135.5 0-11.7-1.4-23.1-3.9-34.1 32.8 9.9 69.9 1.9 95.8-24l12.1-12.1c12.5-12.5 12.5-32.8 0-45.3l-12.1-12.1c-23.6-23.6-56.5-32.4-86.9-26.2 6.1-30.5-2.6-63.3-26.2-86.9L415-8zM352.4 112l0 0 28.7 28.7 0 0-28.7-28.7zm51.3 51.3l0 0 28.7 28.7 0 0-28.7-28.7zM415 152l12.4-12.4c25-24.7 65.3-24.6 90.2 .3l12.1 12.1-12.1 12.1c-25 25-65.5 25-90.5 0L415 152zm-10.5-34.7l-12.1 12.1-12.1-12.1c-25-25-25-65.5 0-90.5l12.1-12.1 12.1 12.1c25 25 25 65.5 0 90.5l0 0zM299.6 128c64.5 0 116.8 52.3 116.8 116.8 0 45.8-26.8 87.4-68.5 106.3l-92 41.8-4.2-4.2-32-32c-6.2-6.2-16.4-6.2-22.6 0s-6.2 16.4 0 22.6L224.8 407.1 64.4 480 193.3 196.5c1.3-2.9 2.8-5.8 4.3-8.6l47.5 47.5c6.2 6.2 16.4 6.2 22.6 0s6.2-16.4 0-22.6l-48-48-2.6-2.6c21.5-21.5 51-34.1 82.5-34.1z"/></svg>