<svg xmlns="http://www.w3.org/2000/svg" viewBox="0 0 256 512"><!--! Font Awesome Pro 7.0.0 by @fontawesome - https://fontawesome.com License - https://fontawesome.com/license (Commercial License) Copyright 2025 Fonticons, Inc. --><path fill="currentColor" d="M40.6-21.4C42.9-27.8 48.9-32 55.7-32l144.6 0c6.7 0 12.8 4.2 15.1 10.6 21.4 59.6 43.9 149.8 40.2 226.2-1.8 38.1-10.2 74.8-30.4 102.2-18.2 24.8-45.1 40.7-81.2 44.2l0 160.8 64 0c8.8 0 16 7.2 16 16s-7.2 16-16 16l-160 0c-8.8 0-16-7.2-16-16s7.2-16 16-16l64 0 0-160.8C75.9 347.7 49 331.8 30.8 307 10.6 279.5 2.2 242.9 .4 204.8-3.2 128.4 19.2 38.2 40.6-21.4zM33 160c-1.1 14.8-1.3 29.3-.7 43.2 1.7 35.2 9.3 64.6 24.2 84.8 14.2 19.3 36.2 32 71.5 32s57.3-12.7 71.5-32c14.9-20.2 22.5-49.6 24.2-84.8 .7-13.9 .4-28.5-.7-43.2L33 160zm3.4-32l183.2 0C213.4 82.4 201.4 36.6 189 0L67 0C54.6 36.6 42.6 82.4 36.4 128z"/></svg>