<svg xmlns="http://www.w3.org/2000/svg" viewBox="0 0 640 512"><!--! Font Awesome Pro 7.0.0 by @fontawesome - https://fontawesome.com License - https://fontawesome.com/license (Commercial License) Copyright 2025 Fonticons, Inc. --><path fill="currentColor" d="M336 34.4l0 173.6 132 0c-30 4.3-57.8 15.6-81.8 32L336 240c-17.7 0-32-14.3-32-32l0-176c0-17.7 14.4-32.2 31.9-29.9 107 14.2 191.8 99 206 206 .2 1.2 .2 2.3 .2 3.4-10.6-2.6-21.6-4.3-32.8-5.1-14.3-88.5-84.6-158.3-173.3-172zM272 288l65.6 0c-7.1 10-13.3 20.7-18.4 32L272 320c-26.5 0-48-21.5-48-48l0-202.4c-91.7 21.7-160 104.1-160 202.4 0 114.9 93.1 208 208 208 15.5 0 30.6-1.7 45.1-4.9 4.3 10.2 9.4 20 15.3 29.2-19.3 5-39.5 7.7-60.4 7.7-132.5 0-240-107.5-240-240 0-114.1 79.6-209.6 186.3-234 20.4-4.7 37.7 11.6 37.7 30.7L256 272c0 8.8 7.2 16 16 16zM496 512a112 112 0 1 0 0-224 112 112 0 1 0 0 224zm0-256a144 144 0 1 1 0 288 144 144 0 1 1 0-288zm-16 64c0-8.8 7.2-16 16-16s16 7.2 16 16l0 8 16 0c8.8 0 16 7.2 16 16s-7.2 16-16 16l-45.8 0c-5.6 0-10.2 4.6-10.2 10.2 0 4.9 3.5 9.1 8.3 10l45 8.2c20 3.6 34.6 21.1 34.6 41.5 0 23.3-18.9 42.2-42.2 42.2l-5.8 0 0 8c0 8.8-7.2 16-16 16s-16-7.2-16-16l0-8-16 0c-8.8 0-16-7.2-16-16s7.2-16 16-16l53.8 0c5.6 0 10.2-4.6 10.2-10.2 0-4.9-3.5-9.1-8.3-10l-45-8.2c-20-3.6-34.6-21.1-34.6-41.5 0-22.6 17.7-41 40-42.1l0-8.1z"/></svg>