<svg xmlns="http://www.w3.org/2000/svg" viewBox="0 0 512 512"><!--! Font Awesome Pro 7.0.0 by @fontawesome - https://fontawesome.com License - https://fontawesome.com/license (Commercial License) Copyright 2025 Fonticons, Inc. --><path fill="currentColor" d="M32 48c0-8.8-7.2-16-16-16S0 39.2 0 48L0 400c0 44.2 35.8 80 80 80l416 0c8.8 0 16-7.2 16-16s-7.2-16-16-16L80 448c-26.5 0-48-21.5-48-48L32 48zm98.9 165.3c2.3-8.4 6-19.3 11.4-30.1 11.2-22.5 27.1-39.2 49.7-39.2 17.7 0 31.6 8.5 44.7 24.2 13.6 16.3 24.8 38.5 37 62.9 .6 1.2 1.2 2.5 1.9 3.8 11.3 22.7 22.8 45.8 39.1 65.3 16.9 20.2 39 35.8 69.3 35.8 40.8 0 64.9-31.4 77.7-56.8 6.7-13.2 11.2-26.2 13.9-35.8 1.6-5.5 3.1-11 4.1-16.6 1.6-8.7-4.2-17-12.9-18.6s-17 4.2-18.6 12.9c-.9 4.5-2.1 9-3.3 13.4-2.4 8.4-6.2 19.4-11.8 30.2-11.5 22.7-27.4 39.2-49.2 39.2-17.7 0-31.6-8.5-44.7-24.2-14.2-17.1-24.3-37.4-34.2-57.2-1.1-2.2-2.2-4.4-3.3-6.7l0 0c-11.6-23.3-24.3-48.7-40.5-68.1-16.9-20.2-39-35.8-69.3-35.8-41.4 0-65.5 31.3-78.3 56.8-6.6 13.2-10.9 26.2-13.6 35.9-1.5 5.5-2.9 11-3.9 16.6-1.5 8.6 4.5 17 13.1 18.5 8.7 1.5 17-4.4 18.4-13.1 .8-4.5 1.9-9 3.1-13.4z"/></svg>