<svg xmlns="http://www.w3.org/2000/svg" viewBox="0 0 512 512"><!--! Font Awesome Pro 7.0.0 by @fontawesome - https://fontawesome.com License - https://fontawesome.com/license (Commercial License) Copyright 2025 Fonticons, Inc. --><path fill="currentColor" d="M16 32c8.8 0 16 7.2 16 16l0 352c0 26.5 21.5 48 48 48l416 0c8.8 0 16 7.2 16 16s-7.2 16-16 16L80 480c-44.2 0-80-35.8-80-80L0 48c0-8.8 7.2-16 16-16zM368 96c-8.8 0-16-7.2-16-16s7.2-16 16-16l96 0c8.8 0 16 7.2 16 16l0 96c0 8.8-7.2 16-16 16s-16-7.2-16-16l0-57.4-148.7 148.7c-6.2 6.2-16.4 6.2-22.6 0l-68.7-68.7-84.7 84.7c-6.2 6.2-16.4 6.2-22.6 0s-6.2-16.4 0-22.6l96-96c3-3 7.1-4.7 11.3-4.7s8.3 1.7 11.3 4.7L288 233.4 425.4 96 368 96zm57.4 256l-71.4-71.4 22.6-22.6 71.4 71.4 0-57.4c0-8.8 7.2-16 16-16s16 7.2 16 16l0 96c0 8.8-7.2 16-16 16l-96 0c-8.8 0-16-7.2-16-16s7.2-16 16-16l57.4 0z"/></svg>