<svg xmlns="http://www.w3.org/2000/svg" viewBox="0 0 384 512"><!--! Font Awesome Pro 7.0.0 by @fontawesome - https://fontawesome.com License - https://fontawesome.com/license (Commercial License) Copyright 2025 Fonticons, Inc. --><path fill="currentColor" d="M352 0c17.7 0 32 14.3 32 32l0 138.7c0 13.8-4.5 27.3-12.8 38.4l-35.2 46.9 0 128 42.7 71.1c3.5 5.8 5.3 12.5 5.3 19.3 0 20.8-16.8 37.6-37.6 37.6L37.6 512c-20.8 0-37.6-16.8-37.6-37.6 0-6.8 1.8-13.5 5.3-19.3L48 384 48 256 12.8 209.1C4.5 198 0 184.5 0 170.7L0 32C0 14.3 14.3 0 32 0L352 0zM75.4 400.5L32.8 471.5c-.2 .4-.4 .9-.6 1.3l-.2 1.5c0 3.1 2.5 5.6 5.6 5.6l308.8 0c3.1 0 5.6-2.5 5.6-5.6 0-.5-.1-1-.2-1.5l-.6-1.3-42.7-71.1c-.1-.2-.2-.3-.2-.5L75.7 400c-.1 .2-.2 .3-.2 .5zM32 170.7c0 6.9 2.2 13.7 6.4 19.2l35.2 46.9c4.2 5.5 6.4 12.3 6.4 19.2l0 112 224 0 0-112c0-6.9 2.3-13.6 6.4-19.2l35.2-46.9 2.7-4.4c2.4-4.6 3.7-9.7 3.7-14.8l0-138.7-80 0 0 48c0 8.8-7.2 16-16 16s-16-7.2-16-16l0-48-96 0 0 48c0 8.8-7.2 16-16 16s-16-7.2-16-16l0-48-80 0 0 138.7z"/></svg>