<svg xmlns="http://www.w3.org/2000/svg" viewBox="0 0 512 512"><!--! Font Awesome Pro 7.0.0 by @fontawesome - https://fontawesome.com License - https://fontawesome.com/license (Commercial License) Copyright 2025 Fonticons, Inc. --><path fill="currentColor" d="M256 32a224 224 0 1 1 0 448 224 224 0 1 1 0-448zm0 480a256 256 0 1 0 0-512 256 256 0 1 0 0 512zm48-352l-96 0c-8.8 0-16 7.2-16 16l0 72c0 8.8 7.2 16 16 16l68 0c15.5 0 28 12.5 28 28s-12.5 28-28 28l-68 0c-8.8 0-16 7.2-16 16s7.2 16 16 16l68 0c33.1 0 60-26.9 60-60s-26.9-60-60-60l-52 0 0-40 80 0c8.8 0 16-7.2 16-16s-7.2-16-16-16z"/></svg>