<svg xmlns="http://www.w3.org/2000/svg" viewBox="0 0 512 512"><!--! Font Awesome Pro 7.0.0 by @fontawesome - https://fontawesome.com License - https://fontawesome.com/license (Commercial License) Copyright 2025 Fonticons, Inc. --><path fill="currentColor" d="M256 32a224 224 0 1 1 0 448 224 224 0 1 1 0-448zm0 480a256 256 0 1 0 0-512 256 256 0 1 0 0 512zM204.5 166c-5.5-6.9-15.6-8-22.5-2.5s-8 15.6-2.5 22.5l56 70-56 70c-5.5 6.9-4.4 17 2.5 22.5s17 4.4 22.5-2.5L256 281.6 307.5 346c5.5 6.9 15.6 8 22.5 2.5s8-15.6 2.5-22.5l-56-70 56-70c5.5-6.9 4.4-17-2.5-22.5s-17-4.4-22.5 2.5L256 230.4 204.5 166z"/></svg>