<svg xmlns="http://www.w3.org/2000/svg" viewBox="0 0 512 512"><!--! Font Awesome Pro 7.0.0 by @fontawesome - https://fontawesome.com License - https://fontawesome.com/license (Commercial License) Copyright 2025 Fonticons, Inc. --><path fill="currentColor" d="M256 32a224 224 0 1 1 0 448 224 224 0 1 1 0-448zm0 480a256 256 0 1 0 0-512 256 256 0 1 0 0 512zM144 144c0 8.8 7.2 16 16 16l80 0 0 68.5-61.1 20.4c-8.4 2.8-12.9 11.9-10.1 20.2s11.9 12.9 20.2 10.1l50.9-17 0 30.3-61.1 20.4c-8.4 2.8-12.9 11.9-10.1 20.2s11.9 12.9 20.2 10.1l50.9-17 0 41.8c0 8.8 7.2 16 16 16s16-7.2 16-16l0-52.5 61.1-20.4c8.4-2.8 12.9-11.9 10.1-20.2s-11.9-12.9-20.2-10.1l-50.9 17 0-30.3 61.1-20.4c8.4-2.8 12.9-11.9 10.1-20.2s-11.9-12.9-20.2-10.1l-50.9 17 0-57.8 80 0c8.8 0 16-7.2 16-16s-7.2-16-16-16l-192 0c-8.8 0-16 7.2-16 16z"/></svg>