<svg xmlns="http://www.w3.org/2000/svg" viewBox="0 0 512 512"><!--! Font Awesome Pro 7.0.0 by @fontawesome - https://fontawesome.com License - https://fontawesome.com/license (Commercial License) Copyright 2025 Fonticons, Inc. --><path fill="currentColor" d="M256 32a224 224 0 1 1 0 448 224 224 0 1 1 0-448zm0 480a256 256 0 1 0 0-512 256 256 0 1 0 0 512zM192 216c0 13.8 5 26.4 13.2 36.1-12.9 10.3-21.2 26.1-21.2 43.9 0 30.9 25.1 56 56 56l32 0c30.9 0 56-25.1 56-56 0-17.8-8.3-33.6-21.2-43.9 8.2-9.8 13.2-22.4 13.2-36.1 0-30.9-25.1-56-56-56l-16 0c-30.9 0-56 25.1-56 56zm96 0c0 13.3-10.7 24-24 24l-16 0c-13.3 0-24-10.7-24-24s10.7-24 24-24l16 0c13.3 0 24 10.7 24 24zm-48 56l32 0c13.3 0 24 10.7 24 24s-10.7 24-24 24l-32 0c-13.3 0-24-10.7-24-24s10.7-24 24-24z"/></svg>