<svg xmlns="http://www.w3.org/2000/svg" viewBox="0 0 512 512"><!--! Font Awesome Pro 7.0.0 by @fontawesome - https://fontawesome.com License - https://fontawesome.com/license (Commercial License) Copyright 2025 Fonticons, Inc. --><path fill="currentColor" d="M256 32a224 224 0 1 1 0 448 224 224 0 1 1 0-448zm0 480a256 256 0 1 0 0-512 256 256 0 1 0 0 512zm0-353.9l29.2 65.9-58.4 0 29.2-65.9zm20.5-32.7c-3.6-8.1-11.6-13.4-20.5-13.4s-16.9 5.2-20.5 13.4L191.8 224 144 224c-8.8 0-16 7.2-16 16s7.2 16 16 16l33.6 0-14.2 32-19.5 0c-8.8 0-16 7.2-16 16s7.2 16 16 16l5.3 0-11.3 25.5c-3.6 8.1 .1 17.5 8.2 21.1s17.5-.1 21.1-8.2l17-38.5 143.4 0 17 38.5c3.6 8.1 13 11.7 21.1 8.2s11.7-13 8.2-21.1l-11.3-25.5 5.3 0c8.8 0 16-7.2 16-16s-7.2-16-16-16l-19.5 0-14.2-32 33.6 0c8.8 0 16-7.2 16-16s-7.2-16-16-16l-47.8 0-43.7-98.6zM212.6 256l86.8 0 14.2 32-115.1 0 14.2-32z"/></svg>