<svg xmlns="http://www.w3.org/2000/svg" viewBox="0 0 640 512"><!--! Font Awesome Pro 7.0.0 by @fontawesome - https://fontawesome.com License - https://fontawesome.com/license (Commercial License) Copyright 2025 Fonticons, Inc. --><path fill="currentColor" d="M310 352c2.9-11.1 6.7-21.8 11.4-32l-1.4 0-64 0C196.1 320 145.9 361.1 131.9 416.6 90 375.9 64 319 64 256 64 132.3 164.3 32 288 32 395.3 32 485.1 107.5 506.9 208.3 518.4 208.9 529.6 210.6 540.4 213.2 520.1 92.2 414.8 0 288 0 146.6 0 32 114.6 32 256S146.6 512 288 512c16.7 0 33-1.6 48.8-4.6-6.3-9.3-11.8-19.3-16.4-29.7-10.6 1.5-21.4 2.3-32.4 2.3-47.5 0-91.5-14.8-127.7-39.9 4-49.3 45.3-88.1 95.7-88.1l54 0zM288 240a48 48 0 1 1 0-96 48 48 0 1 1 0 96zm-80-48a80 80 0 1 0 160 0 80 80 0 1 0 -160 0zM384 400a112 112 0 1 1 224 0 112 112 0 1 1 -224 0zm256 0a144 144 0 1 0 -288 0 144 144 0 1 0 288 0zM496 484a20 20 0 1 0 0-40 20 20 0 1 0 0 40zm0-140c13.3 0 24 10.7 24 24 0 7.2-4.2 13.7-10.8 16.6l-12.4 5.5c-10.2 4.5-16.8 14.7-16.8 25.9 0 8.8 7.2 16 16 16 8 0 14.6-5.9 15.8-13.5l10.4-4.6c18.1-8.1 29.8-26 29.8-45.9 0-30.9-25.1-56-56-56-27.1 0-49.7 19.2-54.9 44.8-1.8 8.7 3.8 17.1 12.5 18.9s17.1-3.8 18.9-12.5c2.2-11 11.9-19.2 23.5-19.2z"/></svg>