<svg xmlns="http://www.w3.org/2000/svg" viewBox="0 0 512 512"><!--! Font Awesome Pro 7.0.0 by @fontawesome - https://fontawesome.com License - https://fontawesome.com/license (Commercial License) Copyright 2025 Fonticons, Inc. --><path fill="currentColor" d="M256 32a224 224 0 1 1 0 448 224 224 0 1 1 0-448zm0 480a256 256 0 1 0 0-512 256 256 0 1 0 0 512zM240 120l0 17.1c-58.7 7.8-104 58.1-104 118.9s45.3 111.1 104 118.9l0 17.1c0 8.8 7.2 16 16 16s16-7.2 16-16l0-17.1c58.7-7.8 104-58.1 104-118.9 0-8.8-7.2-16-16-16l-88 0 0-70.6c17.6 3.2 33.3 11.7 45.6 23.7 6.3 6.2 16.4 6.1 22.6-.2s6.1-16.4-.2-22.6c-18-17.7-41.7-29.7-68-33.2l0-17.1c0-8.8-7.2-16-16-16s-16 7.2-16 16zM168 256c0-43.1 31-79 72-86.5l0 173.1c-41-7.5-72-43.4-72-86.6zm174.5 16c-6.6 35.8-34.8 64-70.6 70.6l0-70.6 70.6 0z"/></svg>