<svg xmlns="http://www.w3.org/2000/svg" viewBox="0 0 512 512"><!--! Font Awesome Pro 7.0.0 by @fontawesome - https://fontawesome.com License - https://fontawesome.com/license (Commercial License) Copyright 2025 Fonticons, Inc. --><path fill="currentColor" d="M256 32a224 224 0 1 0 0 448 224 224 0 1 0 0-448zm0 480a256 256 0 1 1 0-512 256 256 0 1 1 0 512zM192 219.3l0 100.7 100.7 0-24.7-24.7c-6.2-6.2-6.2-16.4 0-22.6L332.7 208 304 179.3 239.3 244c-3 3-7.1 4.7-11.3 4.7s-8.3-1.7-11.3-4.7L192 219.3zM184 352c-13.3 0-24-10.7-24-24l0-128c0-21.2 26-32 41-17l27 27 59-59c9.4-9.4 24.6-9.4 33.9 0l40 40c9.4 9.4 9.4 24.6 0 33.9l-59 59 27 27c15 15 4.3 41-17 41l-128 0z"/></svg>