<svg xmlns="http://www.w3.org/2000/svg" viewBox="0 0 512 512"><!--! Font Awesome Pro 7.0.0 by @fontawesome - https://fontawesome.com License - https://fontawesome.com/license (Commercial License) Copyright 2025 Fonticons, Inc. --><path fill="currentColor" d="M256 32a224 224 0 1 1 0 448 224 224 0 1 1 0-448zm0 480a256 256 0 1 0 0-512 256 256 0 1 0 0 512zm74.5-324c6.6-5.8 7.3-15.9 1.5-22.6s-15.9-7.3-22.6-1.5L208 252.7 208 176c0-8.8-7.2-16-16-16s-16 7.2-16 16l0 160c0 8.8 7.2 16 16 16s16-7.2 16-16l0-40.7 30.1-26.3 70 77.8c5.9 6.6 16 7.1 22.6 1.2s7.1-16 1.2-22.6l-69.7-77.4 68.3-59.8z"/></svg>