<svg xmlns="http://www.w3.org/2000/svg" viewBox="0 0 512 512"><!--! Font Awesome Pro 7.0.0 by @fontawesome - https://fontawesome.com License - https://fontawesome.com/license (Commercial License) Copyright 2025 Fonticons, Inc. --><path fill="currentColor" d="M256 32a224 224 0 1 1 0 448 224 224 0 1 1 0-448zm0 480a256 256 0 1 0 0-512 256 256 0 1 0 0 512zM171.3 240l84.7-84.7 84.7 84.7-36.7 0c-8.8 0-16 7.2-16 16l0 88c0 4.4-3.6 8-8 8l-48 0c-4.4 0-8-3.6-8-8l0-88c0-8.8-7.2-16-16-16l-36.7 0zM377 231L273 127c-9.4-9.4-24.6-9.4-33.9 0L135 231c-6.9 6.9-8.9 17.2-5.2 26.2S142.3 272 152 272l40 0 0 72c0 22.1 17.9 40 40 40l48 0c22.1 0 40-17.9 40-40l0-72 40 0c9.7 0 18.5-5.8 22.2-14.8s1.7-19.3-5.2-26.2z"/></svg>