<svg xmlns="http://www.w3.org/2000/svg" viewBox="0 0 512 512"><!--! Font Awesome Pro 7.0.1 by @fontawesome - https://fontawesome.com License - https://fontawesome.com/license (Commercial License) Copyright 2025 Fonticons, Inc. --><path fill="currentColor" d="M256 32a224 224 0 1 1 0 448 224 224 0 1 1 0-448zm0 480a256 256 0 1 0 0-512 256 256 0 1 0 0 512zM240 352l0-64 32 0 0 64-32 0zm-32 0l-24 0c-13.3 0-24-10.7-24-24l0-121.1 96-74.7 96 74.7 0 121.1c0 13.3-10.7 24-24 24l-24 0 0-64c0-17.7-14.3-32-32-32l-32 0c-17.7 0-32 14.3-32 32l0 64zM128 231.8l0 96.2c0 30.9 25.1 56 56 56l144 0c30.9 0 56-25.1 56-56l0-96.2 6.2 4.8c7 5.4 17 4.2 22.5-2.8s4.2-17-2.8-22.5l-144-112c-5.8-4.5-13.9-4.5-19.6 0l-144 112c-7 5.4-8.2 15.5-2.8 22.5s15.5 8.2 22.5 2.8l6.2-4.8z"/></svg>