<svg xmlns="http://www.w3.org/2000/svg" viewBox="0 0 512 512"><!--! Font Awesome Pro 7.0.0 by @fontawesome - https://fontawesome.com License - https://fontawesome.com/license (Commercial License) Copyright 2025 Fonticons, Inc. --><path fill="currentColor" d="M224 34.3C115.5 49.8 32 143.2 32 256 32 379.7 132.3 480 256 480 368.8 480 462.2 396.5 477.7 288L272 288c-26.5 0-48-21.5-48-48l0-205.7zM224.1 2C241.6-.2 256 14.3 256 32l0 208c0 8.8 7.2 16 16 16l208 0C497.7 256 512.2 270.4 510 287.9 494.3 414.2 386.6 512 256 512 114.6 512 0 397.4 0 256 0 125.4 97.8 17.7 224.1 2z"/></svg>