<svg xmlns="http://www.w3.org/2000/svg" viewBox="0 0 576 512"><!--! Font Awesome Pro 7.0.0 by @fontawesome - https://fontawesome.com License - https://fontawesome.com/license (Commercial License) Copyright 2025 Fonticons, Inc. --><path fill="currentColor" d="M288 64a160 160 0 1 1 0 320 160 160 0 1 1 0-320zm0 352a192 192 0 1 0 0-384 192 192 0 1 0 0 384zM16 336c-8.8 0-16 7.2-16 16L0 456c0 30.9 25.1 56 56 56l464 0c30.9 0 56-25.1 56-56l0-104c0-8.8-7.2-16-16-16s-16 7.2-16 16l0 104c0 13.3-10.7 24-24 24L56 480c-13.3 0-24-10.7-24-24l0-104c0-8.8-7.2-16-16-16zM288 120c-8.8 0-16 7.2-16 16l0 8-1.7 0c-25.6 0-46.3 20.7-46.3 46.3 0 22.6 16.4 42 38.7 45.7l45.3 7.6c6.9 1.2 12 7.1 12 14.1 0 7.9-6.4 14.3-14.3 14.3L248 272c-8.8 0-16 7.2-16 16s7.2 16 16 16l24 0 0 8c0 8.8 7.2 16 16 16s16-7.2 16-16l0-8 1.7 0c25.6 0 46.3-20.7 46.3-46.3 0-22.6-16.4-42-38.7-45.7L268 204.4c-6.9-1.2-12-7.1-12-14.1 0-7.9 6.4-14.3 14.3-14.3l49.7 0c8.8 0 16-7.2 16-16s-7.2-16-16-16l-16 0 0-8c0-8.8-7.2-16-16-16z"/></svg>