<svg xmlns="http://www.w3.org/2000/svg" viewBox="0 0 512 512"><!--! Font Awesome Pro 7.0.0 by @fontawesome - https://fontawesome.com License - https://fontawesome.com/license (Commercial License) Copyright 2025 Fonticons, Inc. --><path fill="currentColor" d="M480 256a224 224 0 1 0 -448 0 224 224 0 1 0 448 0zM0 256a256 256 0 1 1 512 0 256 256 0 1 1 -512 0zm272-52.2l0 136.8c30.3-13.2 62.9-20.2 96-20.6l0-144c-27.5 .4-54.6 7.1-79.3 19.4L272 203.8zM240 340.6l0-136.8-16.7-8.4c-24.7-12.3-51.8-19-79.3-19.4l0 144c33.1 .4 65.7 7.4 96 20.6zM256 176l18.4-9.2c30-15 63.1-22.8 96.6-22.8l2 0c14.9 0 27 12.1 27 27l0 154c0 14.9-12.1 27-27 27l-2 0c-33.5 0-66.6 7.8-96.6 22.8L264.1 380c-5.1 2.5-11 2.5-16.1 0l-10.3-5.2c-30-15-63.1-22.8-96.6-22.8l-2 0c-14.9 0-27-12.1-27-27l0-154c0-14.9 12.1-27 27-27l2 0c33.5 0 66.6 7.8 96.6 22.8L256 176z"/></svg>