<svg xmlns="http://www.w3.org/2000/svg" viewBox="0 0 512 512"><!--! Font Awesome Pro 7.0.0 by @fontawesome - https://fontawesome.com License - https://fontawesome.com/license (Commercial License) Copyright 2025 Fonticons, Inc. --><path fill="currentColor" d="M32 256a224 224 0 1 1 448 0 224 224 0 1 1 -448 0zm480 0a256 256 0 1 0 -512 0 256 256 0 1 0 512 0zM276.7 132.7l-112 112c-6.2 6.2-6.2 16.4 0 22.6l112 112c6.2 6.2 16.4 6.2 22.6 0s6.2-16.4 0-22.6L198.6 256 299.3 155.3c6.2-6.2 6.2-16.4 0-22.6s-16.4-6.2-22.6 0z"/></svg>