<svg xmlns="http://www.w3.org/2000/svg" viewBox="0 0 512 512"><!--! Font Awesome Pro 7.0.0 by @fontawesome - https://fontawesome.com License - https://fontawesome.com/license (Commercial License) Copyright 2025 Fonticons, Inc. --><path fill="currentColor" d="M256 32a224 224 0 1 1 0 448 224 224 0 1 1 0-448zm0 480a256 256 0 1 0 0-512 256 256 0 1 0 0 512zM238.6 160c-30.1 0-54.6 24.4-54.6 54.6 0 27.2 20 50.2 46.8 54l45.8 6.5c11.1 1.6 19.4 11.1 19.4 22.3 0 12.5-10.1 22.6-22.6 22.6L208 320c-8.8 0-16 7.2-16 16s7.2 16 16 16l32 0 0 16c0 8.8 7.2 16 16 16s16-7.2 16-16l0-16 1.4 0c30.1 0 54.6-24.4 54.6-54.6 0-27.1-20-50.2-46.8-54l-45.8-6.5c-11.1-1.6-19.4-11.1-19.4-22.3 0-12.5 10.1-22.6 22.6-22.6l57.4 0c8.8 0 16-7.2 16-16s-7.2-16-16-16l-24 0 0-16c0-8.8-7.2-16-16-16s-16 7.2-16 16l0 16-1.4 0z"/></svg>