<svg xmlns="http://www.w3.org/2000/svg" viewBox="0 0 512 512"><!--! Font Awesome Pro 7.0.0 by @fontawesome - https://fontawesome.com License - https://fontawesome.com/license (Commercial License) Copyright 2025 Fonticons, Inc. --><path fill="currentColor" d="M256 32a224 224 0 1 1 0 448 224 224 0 1 1 0-448zm0 480a256 256 0 1 0 0-512 256 256 0 1 0 0 512zm24-320c4.4 0 8 3.6 8 8l0 112c0 4.4-3.6 8-8 8l-112 0c-4.4 0-8-3.6-8-8l0-112c0-4.4 3.6-8 8-8l112 0zm40 14.1l0-6.1c0-22.1-17.9-40-40-40l-112 0c-22.1 0-40 17.9-40 40l0 112c0 22.1 17.9 40 40 40l112 0c22.1 0 40-17.9 40-40l0-6.1 56.8 28.4c5 2.5 10.9 2.2 15.6-.7s7.6-8.1 7.6-13.6l0-128c0-5.5-2.9-10.7-7.6-13.6s-10.6-3.2-15.6-.7L320 206.1zm0 35.8l48-24 0 76.2-48-24 0-28.2z"/></svg>