<svg xmlns="http://www.w3.org/2000/svg" viewBox="0 0 576 512"><!--! Font Awesome Pro 7.0.0 by @fontawesome - https://fontawesome.com License - https://fontawesome.com/license (Commercial License) Copyright 2025 Fonticons, Inc. --><path fill="currentColor" d="M453.6-14.8c-4.9-2-10.5-1.5-14.9 1.4L368 33.6 297.3-13.3c-4.4-2.9-10-3.5-14.9-1.4s-8.5 6.4-9.5 11.6L256 80 172.8 96.8c-5.2 1.1-9.5 4.6-11.6 9.5s-1.5 10.5 1.4 14.9L177.8 144c14.7 .2 28.9 2.3 42.4 6.2l-17.8-26.8 70.3-14.2c6.3-1.3 11.2-6.2 12.5-12.5L299.4 26.4 359.2 66c5.3 3.5 12.3 3.5 17.6 0l59.8-39.6 14.2 70.3c1.3 6.3 6.2 11.2 12.5 12.5l70.3 14.2-39.6 59.8c-3.5 5.3-3.5 12.3 0 17.6l39.6 59.8-70.3 14.2c-1.4 .3-2.8 .8-4.1 1.4 .2 .9 .5 1.7 .7 2.6 14.9 4.8 28.7 11.9 41.1 20.9l62.2-12.6c5.2-1.1 9.5-4.6 11.6-9.5s1.5-10.5-1.4-14.9l-46.9-70.7 46.9-70.7c2.9-4.4 3.5-10 1.4-14.9s-6.4-8.5-11.6-9.5L480 80 463.2-3.2c-1.1-5.2-4.6-9.5-9.5-11.6zM448 192c0-44.2-35.8-80-80-80-40.7 0-74.3 30.4-79.4 69.8 10.8-3.3 22.2-5.2 34-5.7 6.6-18.7 24.4-32.1 45.3-32.1 26.5 0 48 21.5 48 48 0 5-.8 9.9-2.2 14.5 9 7.3 17 15.7 23.8 25 6.6-11.6 10.4-25.1 10.4-39.5zM96 304c0-44.2 35.8-80 80-80 35.3 0 65.3 22.9 75.9 54.7 2 5.9 7.1 10.1 13.3 10.8s12.2-2.1 15.5-7.3c9.9-15.7 27.5-26.1 47.4-26.1 30.9 0 56 25.1 56 56 0 7.4-1.4 14.4-4 20.9-2.3 5.6-1.1 12.1 2.9 16.6s10.3 6.4 16.2 4.8c5.4-1.5 11.1-2.3 16.9-2.3 35.3 0 64 28.7 64 64s-28.7 64-64 64L96 480c-35.3 0-64-28.7-64-64 0-32.5 24.3-59.4 55.7-63.5 4.8-.6 9.1-3.4 11.6-7.5s3-9.2 1.4-13.8C97.7 322.7 96 313.6 96 304zm80-112c-61.9 0-112 50.1-112 112 0 7.1 .7 14.1 1.9 20.8-38.3 12.6-65.9 48.7-65.9 91.2 0 53 43 96 96 96l320 0c53 0 96-43 96-96s-43-96-96-96l-.4 0c.2-2.6 .4-5.3 .4-8 0-48.6-39.4-88-88-88-21.7 0-41.5 7.9-56.9 20.9-19.8-31.7-55-52.9-95.1-52.9z"/></svg>