<svg xmlns="http://www.w3.org/2000/svg" viewBox="0 0 512 512"><!--! Font Awesome Pro 7.0.0 by @fontawesome - https://fontawesome.com License - https://fontawesome.com/license (Commercial License) Copyright 2025 Fonticons, Inc. --><path fill="currentColor" d="M176 32c-44.2 0-80 35.8-80 80 0 9.6 1.7 18.7 4.7 27.2 1.7 4.6 1.1 9.6-1.4 13.8s-6.8 6.9-11.6 7.5c-31.4 4-55.7 30.9-55.7 63.5 0 35.3 28.7 64 64 64l77.5 0-32 32-45.5 0c-53 0-96-43-96-96 0-42.5 27.6-78.6 65.9-91.2-1.3-6.7-1.9-13.7-1.9-20.8 0-61.9 50.1-112 112-112 40.2 0 75.4 21.1 95.1 52.9 15.3-13 35.2-20.9 56.9-20.9 48.6 0 88 39.4 88 88 0 2.7-.1 5.4-.4 8l.4 0c53 0 96 43 96 96s-43 96-96 96l-41.5 0c-3.3-1.7-6.8-3.1-10.4-4.3l4.7-17c1-3.6 1.7-7.2 2.2-10.7l45 0c35.3 0 64-28.7 64-64s-28.7-64-64-64c-5.9 0-11.6 .8-16.9 2.3-5.9 1.6-12.1-.3-16.2-4.8s-5.2-11-2.9-16.6c2.6-6.4 4-13.5 4-20.9 0-30.9-25.1-56-56-56-19.9 0-37.4 10.4-47.4 26.1-3.3 5.2-9.3 8.1-15.5 7.3s-11.3-5-13.2-10.8C241.3 54.9 211.3 32 176 32zM293.7 240c19.8 0 34.1 18.8 28.8 37.9l-20.6 74.1 38.7 0c15.1 0 27.3 12.2 27.3 27.3 0 7.2-2.9 14.2-8 19.3L239.4 519.3c-5.6 5.6-13.2 8.7-21.1 8.7-19.8 0-34.1-18.8-28.8-37.9l20.6-74.1-38.7 0c-15.1 0-27.3-12.2-27.3-27.3 0-7.2 2.9-14.2 8-19.3L272.6 248.7c5.6-5.6 13.2-8.7 21.1-8.7zM182.6 384l48.5 0c10.4 0 18.2 10.2 15.4 20.3l-24.1 86.6 106.9-106.9-48.5 0c-10.4 0-18.2-10.2-15.4-20.3L289.5 277.1 182.6 384z"/></svg>