<svg xmlns="http://www.w3.org/2000/svg" viewBox="0 0 640 512"><!--! Font Awesome Pro 7.0.0 by @fontawesome - https://fontawesome.com License - https://fontawesome.com/license (Commercial License) Copyright 2025 Fonticons, Inc. --><path fill="currentColor" d="M425.3 68c-7.8-7.6-16.6-14.2-26.2-19.6 23.5-47.7 72.5-80.5 129.3-80.5 10.7 0 21.4 1.2 31.9 3.5 5.6 1.3 9.7 5.9 10.4 11.6s-2.3 11.2-7.4 13.7c-3.6 1.8-7 3.8-10.3 5.9-28.4 18.5-47.1 50.5-47.1 86.8 0 56 44.4 101.5 99.9 103.4 4 .1 7.9 0 11.9-.3 5.7-.5 11 2.7 13.4 7.9s1.2 11.3-3 15.3c-3.2 3.1-6.6 6.1-10.1 8.9-26.3 20.9-54.2 31.8-89.7 31.2 0-11.1-1.4-21.8-4-32 1.4 .1 2.8 .1 4.2 .1 13 0 25.5-2.2 37.1-6.3-53.3-18.2-91.6-68.8-91.6-128.2 0-33.2 12-63.6 31.8-87.2-36.3 7.5-66.1 32.5-80.3 65.7zM257 264.7c5.6-5.6 13.2-8.7 21.1-8.7 19.8 0 34.1 18.8 28.8 37.9l-20.6 74.1 38.7 0c15.1 0 27.3 12.2 27.3 27.3 0 7.2-2.9 14.2-8 19.3L223.8 535.3c-5.6 5.6-13.2 8.7-21.1 8.7-19.8 0-34.1-18.8-28.8-37.9l20.6-74.1-38.7 0c-15.1 0-27.3-12.2-27.3-27.3 0-7.2 2.9-14.2 8-19.3L257 264.7zm16.9 28.3L167 400 215.5 400c10.4 0 18.2 10.2 15.4 20.3l-24.1 86.6 106.9-106.9-48.5 0c-10.4 0-18.2-10.2-15.4-20.3l24.1-86.6zM208.4 80c-35.3 0-64 28.7-64 64 0 4.4 .4 8.7 1.3 12.8 1 4.8-.3 9.7-3.4 13.4s-7.7 5.8-12.6 5.8c-35.3-.7-65.3 28.6-65.3 64 0 35.3 28.7 64 64 64l29.5 0-32 32c-51.9-1.3-93.6-43.8-93.6-96 0-47.6 34.6-87 80-94.7-.7-53.3 42.5-97.3 96-97.3 34.9 0 65.4 18.6 82.2 46.4 13-9.1 28.7-14.4 45.8-14.4 44.2 0 80 35.8 80 80 0 5.9-.6 11.7-1.9 17.2 37.4 6.7 65.8 39.4 65.8 78.7 0 44.1-35.8 79.9-79.9 80l-41.6 0c-3.3-1.7-6.8-3.1-10.3-4.3l4.7-17c1-3.6 1.7-7.2 2.2-10.8l45 0c26.5 0 47.9-21.5 47.9-48 0-28.8-26.4-51.5-54.7-47.5-6.1 .8-12.1-1.9-15.5-7s-3.6-11.7-.4-17c4.2-7.1 6.7-15.5 6.7-24.4 0-26.5-21.5-48-48-48-15.7 0-29.6 7.5-38.4 19.2-3.6 4.8-9.7 7.2-15.7 6.1s-10.8-5.4-12.5-11.3c-7.8-26.6-32.4-46-61.4-46z"/></svg>