<svg xmlns="http://www.w3.org/2000/svg" viewBox="0 0 384 512"><!--! Font Awesome Pro 7.0.0 by @fontawesome - https://fontawesome.com License - https://fontawesome.com/license (Commercial License) Copyright 2025 Fonticons, Inc. --><path fill="currentColor" d="M32 80a48 48 0 1 1 96 0 48 48 0 1 1 -96 0zm64 78.4c36.5-7.4 64-39.7 64-78.4 0-44.2-35.8-80-80-80S0 35.8 0 80c0 38.7 27.5 71 64 78.4l0 195.2C27.5 361 0 393.3 0 432 0 476.2 35.8 512 80 512s80-35.8 80-80c0-38.7-27.5-71-64-78.4l0-195.2zM304 112a32 32 0 1 0 0-64 32 32 0 1 0 0 64zm32 120a32 32 0 1 0 -64 0 32 32 0 1 0 64 0zM128 432c0 26.5-21.5 48-48 48s-48-21.5-48-48 21.5-48 48-48 48 21.5 48 48zm176 48c-26.5 0-48-21.5-48-48s21.5-48 48-48 48 21.5 48 48-21.5 48-48 48zm0 32c44.2 0 80-35.8 80-80s-35.8-80-80-80-80 35.8-80 80 35.8 80 80 80z"/></svg>