<svg xmlns="http://www.w3.org/2000/svg" viewBox="0 0 512 512"><!--! Font Awesome Pro 7.0.0 by @fontawesome - https://fontawesome.com License - https://fontawesome.com/license (Commercial License) Copyright 2025 Fonticons, Inc. --><path fill="currentColor" d="M315.3 27.3c6.2-6.2 6.2-16.4 0-22.6s-16.4-6.2-22.6 0l-64 64c-6.2 6.2-6.2 16.4 0 22.6l64 64c6.2 6.2 16.4 6.2 22.6 0s6.2-16.4 0-22.6L278.6 96 352 96c26.5 0 48 21.5 48 48l0 209.6c-36.5 7.4-64 39.7-64 78.4 0 44.2 35.8 80 80 80s80-35.8 80-80c0-38.7-27.5-71-64-78.4L432 144c0-44.2-35.8-80-80-80l-73.4 0 36.7-36.7zM48 80a48 48 0 1 1 96 0 48 48 0 1 1 -96 0zm64 78.4c36.5-7.4 64-39.7 64-78.4 0-44.2-35.8-80-80-80S16 35.8 16 80c0 38.7 27.5 71 64 78.4l0 195.2c-36.5 7.4-64 39.7-64 78.4 0 44.2 35.8 80 80 80s80-35.8 80-80c0-38.7-27.5-71-64-78.4l0-195.2zM48 432a48 48 0 1 1 96 0 48 48 0 1 1 -96 0zm368-48a48 48 0 1 1 0 96 48 48 0 1 1 0-96z"/></svg>