<svg xmlns="http://www.w3.org/2000/svg" viewBox="0 0 448 512"><!--! Font Awesome Pro 7.0.0 by @fontawesome - https://fontawesome.com License - https://fontawesome.com/license (Commercial License) Copyright 2025 Fonticons, Inc. --><path fill="currentColor" d="M48.8 372.9l28.8-33.6c36.6-42.7 90.1-67.3 146.3-67.3 65.6 0 127.9-28.7 170.6-78.5l17-19.8c14.3 62.2-6.8 139.9-68.4 201.5-87.7 87.7-208.1 93.3-269.9 31.5-9.9-9.9-18.1-21.3-24.4-33.8zM36.4 338.3c-14.3-62.2 6.8-139.9 68.4-201.5 87.7-87.7 208.1-93.3 269.9-31.5 9.9 9.9 18.1 21.3 24.4 33.8l-28.8 33.6c-36.6 42.7-90.1 67.3-146.3 67.3-65.6 0-127.9 28.7-170.6 78.5l-17 19.8zM82.2 114.2C-13.6 209.9-27.7 351 50.6 429.4S270.1 493.6 365.8 397.8 475.7 161 397.4 82.6 177.9 18.4 82.2 114.2z"/></svg>