<svg xmlns="http://www.w3.org/2000/svg" viewBox="0 0 640 512"><!--! Font Awesome Pro 7.0.0 by @fontawesome - https://fontawesome.com License - https://fontawesome.com/license (Commercial License) Copyright 2025 Fonticons, Inc. --><path fill="currentColor" d="M96 128c0-17.7 14.3-32 32-32l306.7 0c8.5 0 16.6 3.4 22.6 9.4L608 256 457.4 406.6c-6 6-14.1 9.4-22.6 9.4L128 416c-17.7 0-32-14.3-32-32l0-256zm32-64c-35.3 0-64 28.7-64 64l0 256c0 35.3 28.7 64 64 64l306.7 0c17 0 33.3-6.7 45.3-18.7L630.6 278.6c6-6 9.4-14.1 9.4-22.6s-3.4-16.6-9.4-22.6L480 82.7C468 70.7 451.7 64 434.7 64L128 64zm92.7 124.7c-6.2 6.2-6.2 16.4 0 22.6l44.7 44.7-44.7 44.7c-6.2 6.2-6.2 16.4 0 22.6s16.4 6.2 22.6 0l44.7-44.7 44.7 44.7c6.2 6.2 16.4 6.2 22.6 0s6.2-16.4 0-22.6l-44.7-44.7 44.7-44.7c6.2-6.2 6.2-16.4 0-22.6s-16.4-6.2-22.6 0l-44.7 44.7-44.7-44.7c-6.2-6.2-16.4-6.2-22.6 0z"/></svg>