<svg xmlns="http://www.w3.org/2000/svg" viewBox="0 0 576 512"><!--! Font Awesome Pro 7.0.0 by @fontawesome - https://fontawesome.com License - https://fontawesome.com/license (Commercial License) Copyright 2025 Fonticons, Inc. --><path fill="currentColor" d="M288 56a24 24 0 1 0 0-48 24 24 0 1 0 0 48zm16 232l0-127c63.1 7.9 112 61.7 112 127 0 70.7-57.3 128-128 128S160 358.7 160 288c0-65.3 48.9-119.1 112-127l0 127c0 8.8 7.2 16 16 16s16-7.2 16-16zM288 128a160 160 0 1 0 0 320 160 160 0 1 0 0-320zM568 288a24 24 0 1 0 -48 0 24 24 0 1 0 48 0zM32 312a24 24 0 1 0 0-48 24 24 0 1 0 0 48zM120 96a24 24 0 1 0 -48 0 24 24 0 1 0 48 0zm360 24a24 24 0 1 0 0-48 24 24 0 1 0 0 48zM120 480a24 24 0 1 0 -48 0 24 24 0 1 0 48 0zm360 24a24 24 0 1 0 0-48 24 24 0 1 0 0 48z"/></svg>