<svg xmlns="http://www.w3.org/2000/svg" viewBox="0 0 512 512"><!--! Font Awesome Pro 7.0.0 by @fontawesome - https://fontawesome.com License - https://fontawesome.com/license (Commercial License) Copyright 2025 Fonticons, Inc. --><path fill="currentColor" d="M17 297C6.1 286.1 0 271.4 0 256s6.1-30.1 17-41L215 17C225.9 6.1 240.6 0 256 0s30.1 6.1 41 17L495 215c10.9 10.9 17 25.6 17 41s-6.1 30.1-17 41L297 495c-10.9 10.9-25.6 17-41 17s-30.1-6.1-41-17L17 297zM274.3 39.6C269.5 34.7 262.9 32 256 32s-13.5 2.7-18.3 7.6L39.6 237.7C34.7 242.5 32 249.1 32 256s2.7 13.5 7.6 18.3L237.7 472.4c4.9 4.9 11.5 7.6 18.3 7.6s13.5-2.7 18.3-7.6L472.4 274.3c4.9-4.9 7.6-11.5 7.6-18.3s-2.7-13.5-7.6-18.3L274.3 39.6zM256 144c8.8 0 16 7.2 16 16l0 128c0 8.8-7.2 16-16 16s-16-7.2-16-16l0-128c0-8.8 7.2-16 16-16zM236 353.3a20 20 0 1 1 40 0 20 20 0 1 1 -40 0z"/></svg>