<svg xmlns="http://www.w3.org/2000/svg" viewBox="0 0 640 512"><!--! Font Awesome Pro 7.0.0 by @fontawesome - https://fontawesome.com License - https://fontawesome.com/license (Commercial License) Copyright 2025 Fonticons, Inc. --><path fill="currentColor" d="M52.1 322.8C64.8 348.4 76.6 352 80 352l76 0c4.4 11.3 9.9 22 16.5 32L80 384C35.8 384 0 312.4 0 224S35.8 64 80 64l480 0c44.2 0 80 71.6 80 160s-35.8 160-80 160l-92.5 0c6.5-10 12.1-20.7 16.5-32l76 0c3.4 0 15.2-3.6 27.9-29.2 11.8-23.6 20.1-58.5 20.1-98.8s-8.2-75.2-20.1-98.8C575.2 99.6 563.4 96 560 96L80 96C76.6 96 64.8 99.6 52.1 125.2 40.2 148.8 32 183.7 32 224s8.2 75.2 20.1 98.8zM416 288a96 96 0 1 0 -192 0 96 96 0 1 0 192 0zM384 398.9c-18.8 10.9-40.7 17.1-64 17.1s-45.2-6.2-64-17.1l0 76.1 57.5-25.6c4.1-1.8 8.9-1.8 13 0l57.5 25.6 0-76.1zm32-26.2l0 116.7c0 12.5-10.1 22.6-22.6 22.6-3.2 0-6.3-.7-9.2-1.9l-64.2-28.5-64.2 28.5c-2.9 1.3-6 1.9-9.2 1.9-12.5 0-22.6-10.1-22.6-22.6l0-116.7c-19.9-22.6-32-52.2-32-84.7 0-70.7 57.3-128 128-128s128 57.3 128 128c0 32.5-12.1 62.1-32 84.7zM320 264a24 24 0 1 0 0 48 24 24 0 1 0 0-48zm0 80a56 56 0 1 1 0-112 56 56 0 1 1 0 112z"/></svg>