<svg xmlns="http://www.w3.org/2000/svg" viewBox="0 0 512 512"><!--! Font Awesome Pro 7.0.0 by @fontawesome - https://fontawesome.com License - https://fontawesome.com/license (Commercial License) Copyright 2025 Fonticons, Inc. --><path fill="currentColor" d="M91.9 122c40.5-25.3 98.4-42 164.1-42 3.1 0 6.2 0 9.3 .1l-20.6 20.6c-6.2 6.2-6.2 16.4 0 22.6s16.4 6.2 22.6 0l39.8-39.8c44.4 6.1 83.3 20 112.9 38.5 40.9 25.6 59.9 56.8 59.9 86s-19 60.4-59.9 86c-40.5 25.3-98.4 42-164.1 42S132.4 319.3 91.9 294C51 268.4 32 237.2 32 208s19-60.4 59.9-86zM256 48C114.6 48 0 119.6 0 208l0 96c0 88.4 114.6 160 256 160s256-71.6 256-160l0-96c0-88.4-114.6-160-256-160zM480 304c0 29.2-19 60.4-59.9 86-40.5 25.3-98.4 42-164.1 42S132.4 415.3 91.9 390C51 364.4 32 333.2 32 304l0-18.5C75.7 334.7 159.6 368 256 368s180.3-33.3 224-82.5l0 18.5zM256 240c44.2 0 80-21.5 80-48s-35.8-48-80-48-80 21.5-80 48 35.8 48 80 48zM171.3 116.7c-6.2-6.2-16.4-6.2-22.6 0l-32 32c-6.2 6.2-6.2 16.4 0 22.6s16.4 6.2 22.6 0l32-32c6.2-6.2 6.2-16.4 0-22.6zm201.4 16c-6.2 6.2-6.2 16.4 0 22.6l32 32c6.2 6.2 16.4 6.2 22.6 0s6.2-16.4 0-22.6l-32-32c-6.2-6.2-16.4-6.2-22.6 0zM48 208c0 8.8 7.2 16 16 16l32 0c8.8 0 16-7.2 16-16s-7.2-16-16-16l-32 0c-8.8 0-16 7.2-16 16zm324.7 20.7c-6.2 6.2-6.2 16.4 0 22.6l16 16c6.2 6.2 16.4 6.2 22.6 0s6.2-16.4 0-22.6l-16-16c-6.2-6.2-16.4-6.2-22.6 0zm-240 16c-6.2 6.2-6.2 16.4 0 22.6l32 32c6.2 6.2 16.4 6.2 22.6 0s6.2-16.4 0-22.6l-32-32c-6.2-6.2-16.4-6.2-22.6 0zm198.6 16c-6.2-6.2-16.4-6.2-22.6 0l-32 32c-6.2 6.2-6.2 16.4 0 22.6s16.4 6.2 22.6 0l32-32c6.2-6.2 6.2-16.4 0-22.6zM256 216c-26.5 0-48-10.7-48-24s21.5-24 48-24 48 10.7 48 24-21.5 24-48 24z"/></svg>