<svg xmlns="http://www.w3.org/2000/svg" viewBox="0 0 448 512"><!--! Font Awesome Pro 7.0.0 by @fontawesome - https://fontawesome.com License - https://fontawesome.com/license (Commercial License) Copyright 2025 Fonticons, Inc. --><path fill="currentColor" d="M385 201L241 345c-9.4 9.4-24.6 9.4-33.9 0L63 201c-6.9-6.9-8.9-17.2-5.2-26.2S70.3 160 80 160l80 0 0-112c0-26.5 21.5-48 48-48l32 0c26.5 0 48 21.5 48 48l0 112 80 0c9.7 0 18.5 5.8 22.2 14.8s1.7 19.3-5.2 26.2zM99.3 192L224 316.7 348.7 192 272 192c-8.8 0-16-7.2-16-16l0-128c0-8.8-7.2-16-16-16l-32 0c-8.8 0-16 7.2-16 16l0 128c0 8.8-7.2 16-16 16l-76.7 0zM32 336l0 80c0 35.3 28.7 64 64 64l256 0c35.3 0 64-28.7 64-64l0-80c0-8.8 7.2-16 16-16s16 7.2 16 16l0 80c0 53-43 96-96 96L96 512c-53 0-96-43-96-96l0-80c0-8.8 7.2-16 16-16s16 7.2 16 16z"/></svg>