<svg xmlns="http://www.w3.org/2000/svg" viewBox="0 0 512 512"><!--! Font Awesome Pro 7.0.0 by @fontawesome - https://fontawesome.com License - https://fontawesome.com/license (Commercial License) Copyright 2025 Fonticons, Inc. --><path fill="currentColor" d="M144 16c0-8.8-7.2-16-16-16s-16 7.2-16 16l0 336-82.3 0c-16.4 0-29.7 13.3-29.7 29.7 0 7.9 3.1 15.4 8.7 21L111 505c4.5 4.5 10.6 7 17 7s12.5-2.5 17-7L247.3 402.6c5.6-5.6 8.7-13.1 8.7-21 0-16.4-13.3-29.7-29.7-29.7l-82.3 0 0-336zM400 496l0-336 82.3 0c16.4 0 29.7-13.3 29.7-29.7 0-7.9-3.1-15.4-8.7-21L401 7c-4.5-4.5-10.6-7-17-7s-12.5 2.5-17 7L264.7 109.4c-5.6 5.6-8.7 13.1-8.7 21 0 16.4 13.3 29.7 29.7 29.7l82.3 0 0 336c0 8.8 7.2 16 16 16s16-7.2 16-16zM291.3 128l92.7-92.7 92.7 92.7-185.4 0zM128 476.7L35.3 384 220.7 384 128 476.7z"/></svg>