<svg xmlns="http://www.w3.org/2000/svg" viewBox="0 0 512 512"><!--! Font Awesome Pro 7.0.0 by @fontawesome - https://fontawesome.com License - https://fontawesome.com/license (Commercial License) Copyright 2025 Fonticons, Inc. --><path fill="currentColor" d="M400 320c-1.6 0-3.1 0-4.7 .1 3-10.2 4.7-21 4.7-32.1 61.9 0 112 50.1 112 112s-50.1 112-112 112-112-50.1-112-112c11.2 0 22-1.6 32.1-4.7-.1 1.5-.1 3.1-.1 4.7 0 44.2 35.8 80 80 80s80-35.8 80-80-35.8-80-80-80zm-79.5 23.1c-6.4 3.8-13.6 6.5-21.3 7.9-3.7 .6-7.4 1-11.3 1l-64 0c-3.8 0-7.6-.3-11.3-1-7.6-1.4-14.8-4.1-21.3-7.9l-68.2 68.2c-6.2 6.2-16.4 6.2-22.6 0s-6.2-16.4 0-22.6l68.2-68.2c-3.8-6.4-6.5-13.6-7.9-21.3-.6-3.7-1-7.4-1-11.3l0-64c0-3.8 .3-7.6 1-11.3 1.4-7.6 4.1-14.8 7.9-21.3l-68.2-68.2c-6.2-6.2-6.2-16.4 0-22.6s16.4-6.2 22.6 0l68.2 68.2c6.4-3.8 13.6-6.5 21.3-7.9 3.7-.6 7.4-1 11.3-1l64 0c3.8 0 7.6 .3 11.3 1 7.6 1.4 14.8 4.1 21.3 7.9l68.2-68.2c6.2-6.2 16.4-6.2 22.6 0s6.2 16.4 0 22.6l-68.2 68.2c3.8 6.4 6.5 13.6 7.9 21.3 .6 3.7 1 7.4 1 11.3l0 64c0 3.8-.3 7.6-1 11.3-1.4 7.6-4.1 14.8-7.9 21.3l68.2 68.2c6.2 6.2 6.2 16.4 0 22.6s-16.4 6.2-22.6 0l-68.2-68.2zM112 0c61.9 0 112 50.1 112 112-11.2 0-22 1.6-32.1 4.7 .1-1.5 .1-3.1 .1-4.7 0-44.2-35.8-80-80-80s-80 35.8-80 80 35.8 80 80 80c1.6 0 3.1 0 4.7-.1-3 10.2-4.7 21-4.7 32.1-61.9 0-112-50.1-112-112S50.1 0 112 0zM0 400c0-61.9 50.1-112 112-112 0 11.2 1.6 22 4.7 32.1-1.5-.1-3.1-.1-4.7-.1-44.2 0-80 35.8-80 80s35.8 80 80 80 80-35.8 80-80c0-1.6 0-3.1-.1-4.7 10.2 3 21 4.7 32.1 4.7 0 61.9-50.1 112-112 112S0 461.9 0 400zM320.1 116.7c-10.2-3-21-4.7-32.1-4.7 0-61.9 50.1-112 112-112s112 50.1 112 112-50.1 112-112 112c0-11.2-1.6-22-4.7-32.1 1.5 .1 3.1 .1 4.7 .1 44.2 0 80-35.8 80-80s-35.8-80-80-80-80 35.8-80 80c0 1.6 0 3.1 .1 4.7zM224 192c-17.7 0-32 14.3-32 32l0 64c0 17.7 14.3 32 32 32l64 0c17.7 0 32-14.3 32-32l0-64c0-17.7-14.3-32-32-32l-64 0z"/></svg>