<svg xmlns="http://www.w3.org/2000/svg" viewBox="0 0 384 512"><!--! Font Awesome Pro 7.0.0 by @fontawesome - https://fontawesome.com License - https://fontawesome.com/license (Commercial License) Copyright 2025 Fonticons, Inc. --><path fill="currentColor" d="M192.2-16c10 0 19.3 4.5 25.2 12.5 36.4 49.4 166.6 232.3 166.6 323.5 0 106-86 192-192 192S0 426 0 320c0-91.2 130.2-274.1 166.6-323.5 5.2-7 12.9-11.3 21.5-12.3l3.7-.2 .4 0zM192 16c-18.1 24.6-58.7 81.3-94.8 142.7-18.2 31-34.8 62.6-46.8 91.5-12.3 29.6-18.5 53.4-18.5 69.8 0 88.4 71.6 160 160 160s160-71.6 160-160c0-16.4-6.2-40.2-18.5-69.8-12-28.9-28.6-60.5-46.8-91.5-36-61.5-76.6-118.1-94.7-142.7zm0 216c8.8 0 16 7.2 16 16l0 56 56 0c8.8 0 16 7.2 16 16s-7.2 16-16 16l-56 0 0 56-.3 3.2c-1.5 7.3-8 12.8-15.7 12.8s-14.2-5.5-15.7-12.8l-.3-3.2 0-56-56 0c-8.8 0-16-7.2-16-16s7.2-16 16-16l56 0 0-56c0-8.8 7.2-16 16-16z"/></svg>