<svg xmlns="http://www.w3.org/2000/svg" viewBox="0 0 448 512"><!--! Font Awesome Pro 7.0.0 by @fontawesome - https://fontawesome.com License - https://fontawesome.com/license (Commercial License) Copyright 2025 Fonticons, Inc. --><path fill="currentColor" d="M224 64c-4.5 0-8.8 1.9-11.8 5.2l-176 192c-4.3 4.7-5.4 11.4-2.9 17.3S41.7 288 48 288l352 0c6.3 0 12.1-3.8 14.6-9.6s1.4-12.6-2.9-17.3l-176-192c-3-3.3-7.3-5.2-11.8-5.2zm0-32c13.5 0 26.3 5.6 35.4 15.6l176 192c12.9 14 16.2 34.3 8.6 51.8S419 320 400 320L48 320c-19 0-36.3-11.2-43.9-28.7s-4.3-37.7 8.6-51.8l176-192C197.7 37.6 210.5 32 224 32zM56 400c-13.3 0-24 10.7-24 24s10.7 24 24 24l336 0c13.3 0 24-10.7 24-24s-10.7-24-24-24L56 400zM0 424c0-30.9 25.1-56 56-56l336 0c30.9 0 56 25.1 56 56s-25.1 56-56 56L56 480c-30.9 0-56-25.1-56-56z"/></svg>