<svg xmlns="http://www.w3.org/2000/svg" viewBox="0 0 640 512"><!--! Font Awesome Pro 7.0.0 by @fontawesome - https://fontawesome.com License - https://fontawesome.com/license (Commercial License) Copyright 2025 Fonticons, Inc. --><path fill="currentColor" d="M224 111.8c0-44.1 35.7-79.8 79.8-79.8 41.5 0 76.1 31.8 79.6 73.2l.7 8.1c.7 8.8 8.5 15.3 17.3 14.6s15.4-8.5 14.6-17.3l-.7-8.1c-1.1-13-4.4-25.4-9.5-36.7 60.3 10.3 106.2 62.9 106.2 126.2l0 112c0 8.8 7.2 16 16 16s16-7.2 16-16l0-112c0-88.4-71.6-160-160-160l-1.9 0c-20.2-19.9-48-32-78.3-32-30.5 0-58.2 12.3-78.4 32.1-107.4 3.5-193.4 91.6-193.4 199.9 0 55.5 0 24.5 0 51.1 0 25.4-8.7 50.1-24.5 70L3.5 358C-2 364.9-.9 375 6 380.5s17 4.4 22.5-2.5l3.9-4.9c20.4-25.5 31.6-57.3 31.6-90 0-29.7 0-18.1 0-51.1 0-82.4 59.3-150.9 137.4-165.2-6.1 13.8-9.4 29-9.4 45.1 0 58.2 44.6 106.6 102.5 111.4l8.1 .7c8.8 .7 16.5-5.8 17.3-14.6s-5.8-16.5-14.6-17.3l-8.1-.7c-41.4-3.4-73.2-38-73.2-79.6zM413.4 295.3c-2.8-4.4-7.8-7.3-13.4-7.3-8.8 0-16 7.2-16 16l0 160c0 8.8-7.2 16-16 16l-32 0c-8.8 0-16-7.2-16-16l0-80c0-.7 0-1.4-.1-2 .5-3.8-.4-7.8-2.7-11.2-5.1-7.2-15-9-22.3-4-15.5 10.8-34.4 17.2-54.8 17.2s-39.3-6.4-54.8-17.2c-7.2-5.1-17.2-3.3-22.3 4-2.4 3.4-3.2 7.4-2.7 11.2-.1 .7-.1 1.4-.1 2l0 80c0 8.8-7.2 16-16 16l-32 0c-8.8 0-16-7.2-16-16l0-112c0-8.8-7.2-16-16-16s-16 7.2-16 16l0 112c0 26.5 21.5 48 48 48l32 0c26.5 0 48-21.5 48-48l0-57.3c14.8 6 31 9.3 48 9.3s33.2-3.3 48-9.3l0 57.3c0 26.5 21.5 48 48 48l32 0c26.5 0 48-21.5 48-48l0-114.4c7.2 7.2 14.7 13.2 22.8 18.1 3 1.9 6.1 3.5 9.2 5l0 10.4c0 53.5 43.4 96.9 96.9 96.9 44.4 0 83.2-30.2 94-73.4l.7-2.7c2.1-8.6-3.1-17.3-11.6-19.4s-17.3 3.1-19.4 11.6l-.7 2.7c-7.2 28.9-33.2 49.1-62.9 49.1-35.8 0-64.9-29-64.9-64.9l0-.8c7.6 1.1 15.6 1.7 24 1.7 36.6 0 73.4-10.3 99.4-36.8 6.2-6.3 6.1-16.4-.2-22.6s-16.4-6.1-22.6 .2c-18 18.4-45.3 27.2-76.6 27.2-20.5 0-35.4-3.6-48.6-11.7-13.5-8.2-26.6-22-42-45zM480 208a16 16 0 1 0 -32 0 16 16 0 1 0 32 0z"/></svg>