<svg xmlns="http://www.w3.org/2000/svg" viewBox="0 0 512 512"><!--! Font Awesome Pro 7.0.0 by @fontawesome - https://fontawesome.com License - https://fontawesome.com/license (Commercial License) Copyright 2025 Fonticons, Inc. --><path fill="currentColor" d="M0 80c0-8.8 7.2-16 16-16l192 0c8.8 0 16 7.2 16 16s-7.2 16-16 16l-176 0 0 144 160 0c8.8 0 16 7.2 16 16s-7.2 16-16 16l-160 0 0 144 176 0c8.8 0 16 7.2 16 16s-7.2 16-16 16L16 448c-8.8 0-16-7.2-16-16L0 80zm272 0c0-8.8 7.2-16 16-16l208 0c5.7 0 11 3.1 13.9 8.1s2.8 11.1-.1 16.1L316 416 496 416c8.8 0 16 7.2 16 16s-7.2 16-16 16l-208 0c-5.7 0-11-3.1-13.9-8.1s-2.8-11.1 .1-16.1L468 96 288 96c-8.8 0-16-7.2-16-16z"/></svg>