<svg xmlns="http://www.w3.org/2000/svg" viewBox="0 0 576 512"><!--! Font Awesome Pro 7.0.0 by @fontawesome - https://fontawesome.com License - https://fontawesome.com/license (Commercial License) Copyright 2025 Fonticons, Inc. --><path fill="currentColor" d="M213.7-22.2c8.5-2.3 13.6-11.1 11.3-19.6S214-55.4 205.5-53.1C126.4-31.9 55.3 19.5 11.1 96 6.7 103.7 9.4 113.4 17 117.9s17.4 1.8 21.9-5.9C78.6 43.1 142.5-3.1 213.7-22.2zM565.4 416c4.4-7.7 1.8-17.4-5.9-21.9s-17.4-1.8-21.9 5.9c-39.8 68.9-103.7 115.1-174.9 134.2-8.5 2.3-13.6 11.1-11.3 19.6s11.1 13.6 19.6 11.3c79.1-21.2 150.1-72.6 194.3-149.1zM383.7 89.7A191.9 191.9 0 1 1 192.3 422.3 191.9 191.9 0 1 1 383.7 89.7zM176.3 450A223.9 223.9 0 1 0 399.7 62 223.9 223.9 0 1 0 176.3 450zm87.5-263.6a24 24 0 1 0 -41.6-24 24 24 0 1 0 41.6 24zm105.8 88.8a24 24 0 1 0 24-41.6 24 24 0 1 0 -24 41.6zM223.3 368.6a42 42 0 1 1 42-72.7 42 42 0 1 1 -42 72.7zm-39.6-71.4a70 70 0 1 0 121.2 70 70 70 0 1 0 -121.2-70z"/></svg>