<svg xmlns="http://www.w3.org/2000/svg" viewBox="0 0 512 512"><!--! Font Awesome Pro 7.0.0 by @fontawesome - https://fontawesome.com License - https://fontawesome.com/license (Commercial License) Copyright 2025 Fonticons, Inc. --><path fill="currentColor" d="M480 256c0 63.3-26.2 120.4-68.4 161.1 .6 .5 1.1 1.1 1.7 1.6 7.5 7.5 12.8 16.4 15.8 25.9 51-46.8 83-114 83-188.7 0-141.4-114.6-256-256-256S0 114.6 0 256c0 73.2 30.7 139.2 80 185.9l0-47.3C49.9 356.5 32 308.3 32 256 32 132.3 132.3 32 256 32S480 132.3 480 256zM339.4 320.2c9.5-.7 19 .7 28 4.3-5.8-56.4-53.5-100.4-111.4-100.4-50.8 0-93.7 33.8-107.4 80.2 11.2 .8 21.5 4.4 30.4 10.2 9.4-33.7 40.4-58.4 77-58.4 32.2 0 59.9 19 72.6 46.4 4.7 5.4 8.3 11.5 10.8 17.8zM204.8 134.4c-5.3-7.1-15.3-8.5-22.4-3.2l-64 48c-7.1 5.3-8.5 15.3-3.2 22.4s15.3 8.5 22.4 3.2l64-48c7.1-5.3 8.5-15.3 3.2-22.4zm105.6 22.4l64 48c7.1 5.3 17.1 3.9 22.4-3.2s3.9-17.1-3.2-22.4l-64-48c-7.1-5.3-17.1-3.9-22.4 3.2s-3.9 17.1 3.2 22.4zM291.3 355.3c6.2-6.2 6.2-16.4 0-22.6s-16.4-6.2-22.6 0l-72 72c-6.2 6.2-6.2 16.4 0 22.6s16.4 6.2 22.6 0l72-72zM160 368c0-8.8-7.2-16-16-16s-16 7.2-16 16l0 104c0 57.4 46.6 104 104 104l3.5 0c27.6 0 54-11 73.5-30.5l70.2-70.2c6.2-6.2 6.2-16.4 0-22.6s-16.4-6.2-22.6 0l-70.2 70.2C273 536.4 254.6 544 235.5 544l-3.5 0c-39.8 0-72-32.2-72-72l0-104zm195.3 27.3c6.2-6.2 6.2-16.4 0-22.6s-16.4-6.2-22.6 0l-80 80c-6.2 6.2-6.2 16.4 0 22.6s16.4 6.2 22.6 0l80-80z"/></svg>