<svg xmlns="http://www.w3.org/2000/svg" viewBox="0 0 640 512"><!--! Font Awesome Pro 7.0.0 by @fontawesome - https://fontawesome.com License - https://fontawesome.com/license (Commercial License) Copyright 2025 Fonticons, Inc. --><path fill="currentColor" d="M503.8 384l.1 0c7.5 7.6 16.1 14.1 25.5 19.1-46.3 65.8-122.9 108.9-209.5 108.9S156.8 469 110.5 403.1c9.4-5.1 18-11.6 25.5-19.1l.1 0c40.5 58 107.7 96 183.8 96s143.4-38 183.8-96zm31.6-189.4C508.8 100.8 422.4 32 320 32S131.2 100.8 104.5 194.6c-1 .1-1.9 .2-2.9 .3l-31.2 3.9C96.4 85 198.3 0 320 0S543.6 85 569.6 198.8l-31.2-3.9c-1-.1-1.9-.2-2.9-.3zM428.5 340c-34 7.8-70.5 12-108.5 12s-74.5-4.2-108.5-12c22.7 36.1 62.8 60 108.5 60s85.8-23.9 108.5-60zm25-40c11.6-3.7 23.4 5.6 20 17.3-19.5 66.3-80.9 114.7-153.5 114.7S186 383.6 166.5 317.3c-3.4-11.7 8.4-21 20-17.3 39.9 12.8 85.3 20 133.5 20s93.6-7.2 133.5-20zM208 218c0 8.8-7.2 16-16 16s-16-7.2-16-16c0-35.3 28.7-64 64-64s64 28.7 64 64c0 8.8-7.2 16-16 16s-16-7.2-16-16c0-17.7-14.3-32-32-32s-32 14.3-32 32zm192-32c-17.7 0-32 14.3-32 32 0 8.8-7.2 16-16 16s-16-7.2-16-16c0-35.3 28.7-64 64-64s64 28.7 64 64c0 8.8-7.2 16-16 16s-16-7.2-16-16c0-17.7-14.3-32-32-32zM32 308.5c0 15.2 12.3 27.5 27.5 27.5 13.9 0 25.6-10.3 27.3-24.1l4.4-35.1-35.1 4.4C42.3 283 32 294.6 32 308.5zm551.9-27.3l-35.1-4.4 4.4 35.1c1.7 13.8 13.4 24.1 27.3 24.1 15.2 0 27.5-12.3 27.5-27.5 0-13.9-10.3-25.6-24.1-27.3zM52.1 249.5l55.5-6.9c10.4-1.3 19.2 7.5 17.9 17.9l-6.9 55.5c-3.7 29.8-29 52.1-59 52.1-32.9 0-59.5-26.6-59.5-59.5 0-30 22.3-55.3 52.1-59zm535.8 0c29.8 3.7 52.1 29 52.1 59 0 32.9-26.6 59.5-59.5 59.5-30 0-55.3-22.3-59-52.1l-6.9-55.5c-1.3-10.4 7.5-19.2 17.9-17.9l55.5 6.9z"/></svg>