<svg xmlns="http://www.w3.org/2000/svg" viewBox="0 0 512 512"><!--! Font Awesome Pro 7.0.0 by @fontawesome - https://fontawesome.com License - https://fontawesome.com/license (Commercial License) Copyright 2025 Fonticons, Inc. --><path fill="currentColor" d="M480 256a224 224 0 1 0 -448 0 224 224 0 1 0 448 0zM0 256a256 256 0 1 1 512 0 256 256 0 1 1 -512 0zM256 400c53.7 0 99.7-33.1 118.7-80l-237.4 0c19 46.9 65 80 118.7 80zM123.3 288l265.4 0c14.2 0 25.4 12.3 21.7 26-18.5 68-80.6 118-154.4 118S120 382 101.6 314c-3.7-13.7 7.5-26 21.7-26zM176 184c-17.7 0-32 14.3-32 32 0 8.8-7.2 16-16 16s-16-7.2-16-16c0-35.3 28.7-64 64-64s64 28.7 64 64c0 8.8-7.2 16-16 16s-16-7.2-16-16c0-17.7-14.3-32-32-32zm128 32c0 8.8-7.2 16-16 16s-16-7.2-16-16c0-35.3 28.7-64 64-64s64 28.7 64 64c0 8.8-7.2 16-16 16s-16-7.2-16-16c0-17.7-14.3-32-32-32s-32 14.3-32 32z"/></svg>