<svg xmlns="http://www.w3.org/2000/svg" viewBox="0 0 576 512"><!--! Font Awesome Pro 7.0.0 by @fontawesome - https://fontawesome.com License - https://fontawesome.com/license (Commercial License) Copyright 2025 Fonticons, Inc. --><path fill="currentColor" d="M459.6 400c-41.1 48.9-102.7 80-171.6 80-123.7 0-224-100.3-224-224S164.3 32 288 32c113.4 0 207.1 84.2 221.9 193.5-4.5-1-9.2-1.5-13.9-1.5l-176 0c-8.8 0-16 7.2-16 16s7.2 16 16 16l176 0c17.7 0 32 14.3 32 32s-14.3 32-32 32l-96 0c-8.8 0-16 7.2-16 16s7.2 16 16 16l96 0c35.3 0 64-28.7 64-64 0-16.3-6.1-31.3-16.2-42.6-5.5-136.5-117.9-245.4-255.8-245.4-141.4 0-256 114.6-256 256S146.6 512 288 512c88 0 165.6-44.4 211.7-112l-40.1 0zM232 176a24 24 0 1 0 -48 0 24 24 0 1 0 48 0zm136 24a24 24 0 1 0 0-48 24 24 0 1 0 0 48zM240 384l64 0c8.8 0 16-7.2 16-16s-7.2-16-16-16l-64 0c-26.5 0-48 21.5-48 48 0 8.8 7.2 16 16 16s16-7.2 16-16 7.2-16 16-16z"/></svg>