<svg xmlns="http://www.w3.org/2000/svg" viewBox="0 0 512 512"><!--! Font Awesome Pro 7.0.0 by @fontawesome - https://fontawesome.com License - https://fontawesome.com/license (Commercial License) Copyright 2025 Fonticons, Inc. --><path fill="currentColor" d="M256 32a224 224 0 1 1 0 448 224 224 0 1 1 0-448zm0 480a256 256 0 1 0 0-512 256 256 0 1 0 0 512zm58.9-339.7c6.4-8.6 14.1-12.3 21.1-12.3s14.7 3.8 21.1 12.3 10.9 21.1 10.9 35.7-4.4 27.1-10.9 35.7-14.1 12.3-21.1 12.3-14.7-3.8-21.1-12.3-10.9-21.1-10.9-35.7 4.4-27.1 10.9-35.7zm-25.6-19.2c-11 14.6-17.3 34.1-17.3 54.9s6.3 40.2 17.3 54.9 27.3 25.1 46.7 25.1 35.8-10.5 46.7-25.1 17.3-34.1 17.3-54.9-6.3-40.2-17.3-54.9-27.3-25.1-46.7-25.1-35.8 10.5-46.7 25.1zm-77.4 94.4c8.6-2.1 13.8-10.8 11.6-19.4s-10.8-13.8-19.4-11.6l-64 16c-8.6 2.1-13.8 10.8-11.6 19.4s10.8 13.8 19.4 11.6l64-16zM220.5 102c-5.5-6.9-15.6-8-22.5-2.5l-80 64c-6.9 5.5-8 15.6-2.5 22.5s15.6 8 22.5 2.5l80-64c6.9-5.5 8-15.6 2.5-22.5zM381.2 345c5-7.3 3.1-17.2-4.2-22.2s-17.2-3.1-22.2 4.2l-22.1 32.3c-3.8 5.5-10 8.8-16.6 8.8-4.4 0-8.6-1.4-12.1-4L276 343c-21-15.8-49.2-18.3-72.7-6.6-14.4 7.2-31.8 4.4-43.2-7l-4.8-4.8c-6.2-6.2-16.4-6.2-22.6 0s-6.2 16.4 0 22.6l4.8 4.8c21.1 21.1 53.4 26.4 80.2 13 12.7-6.3 27.9-5 39.2 3.5l27.9 21c9 6.8 20 10.4 31.3 10.4 17.2 0 33.3-8.5 43-22.7L381.2 345z"/></svg>