<svg xmlns="http://www.w3.org/2000/svg" viewBox="0 0 512 512"><!--! Font Awesome Pro 7.0.0 by @fontawesome - https://fontawesome.com License - https://fontawesome.com/license (Commercial License) Copyright 2025 Fonticons, Inc. --><path fill="currentColor" d="M128.1 96a32 32 0 1 0 0-64 32 32 0 1 0 0 64zm0-96a64 64 0 1 1 0 128 64 64 0 1 1 0-128zm-32 192c-17.7 0-32 14.3-32 32l0 64c0 17.7 14.3 32 32 32l33 0c-.7 5.2-1 10.6-1 16l0 16-32 0 0 144c0 8.8-7.2 16-16 16s-16-7.2-16-16l0-152.6c-19.1-11.1-32-31.7-32-55.4l0-64c0-35.3 28.7-64 64-64l58.8 0c-1.8 7.7-2.8 15.7-2.8 24 0 2.7 .1 5.4 .3 8l-56.3 0zm320 192l-33.3 0c.9-5.2 1.3-10.5 1.3-16l0-16 85.6 0-34.8-121.7c-6.5-22.7-27.2-38.3-50.8-38.3-8.9 0-17.5 2.2-25 6.3 .6-4.7 1-9.4 1-14.3 0-6.8-.7-13.5-1.9-20 8.2-2.6 16.9-4 25.9-4 37.9 0 71.2 25.1 81.6 61.5l34.8 121.7c5.8 20.4-9.5 40.8-30.8 40.8l-21.6 0 0 112c0 8.8-7.2 16-16 16s-16-7.2-16-16l0-112zm-32-288a32 32 0 1 0 0-64 32 32 0 1 0 0 64zm0-96a64 64 0 1 1 0 128 64 64 0 1 1 0-128zm-128 208a24 24 0 1 0 0-48 24 24 0 1 0 0 48zm0-80a56 56 0 1 1 0 112 56 56 0 1 1 0-112zm0 160c-26.5 0-48 21.5-48 48l0 32c0 8.8 7.2 16 16 16l64 0c8.8 0 16-7.2 16-16l0-32c0-26.5-21.5-48-48-48zm-48 125.3c-18.6-6.6-32-24.4-32-45.3l0-32c0-44.2 35.8-80 80-80s80 35.8 80 80l0 32c0 20.9-13.4 38.7-32 45.3l0 82.7c0 8.8-7.2 16-16 16s-16-7.2-16-16l0-80-32 0 0 80c0 8.8-7.2 16-16 16s-16-7.2-16-16l0-82.7z"/></svg>