<svg xmlns="http://www.w3.org/2000/svg" viewBox="0 0 576 512"><!--! Font Awesome Pro 7.0.0 by @fontawesome - https://fontawesome.com License - https://fontawesome.com/license (Commercial License) Copyright 2025 Fonticons, Inc. --><path fill="currentColor" d="M224 32L96 32C78.3 32 64 46.3 64 64l0 384c0 17.7 14.3 32 32 32l80 0 0 32-80 0c-35.3 0-64-28.7-64-64L32 64C32 28.7 60.7 0 96 0L229.5 0c17 0 33.3 6.7 45.3 18.7L397.3 141.3c12 12 18.7 28.3 18.7 45.3l0 149.5-32 0 0-144-96 0c-35.3 0-64-28.7-64-64l0-96zM370.7 160L256 45.3 256 128c0 17.7 14.3 32 32 32l82.7 0zM264 384l16 0c22.1 0 40 17.9 40 40l0 8c0 8.8-7.2 16-16 16s-16-7.2-16-16l0-8c0-4.4-3.6-8-8-8l-16 0c-4.4 0-8 3.6-8 8l0 80c0 4.4 3.6 8 8 8l16 0c4.4 0 8-3.6 8-8l0-8c0-8.8 7.2-16 16-16s16 7.2 16 16l0 8c0 22.1-17.9 40-40 40l-16 0c-22.1 0-40-17.9-40-40l0-80c0-22.1 17.9-40 40-40zm133.7 0l26.3 0c8.8 0 16 7.2 16 16s-7.2 16-16 16l-26.3 0c-7.5 0-13.7 6.1-13.7 13.7 0 5.2 2.9 9.9 7.6 12.2l31.2 15.6c15.5 7.7 25.2 23.5 25.2 40.8 0 25.2-20.4 45.7-45.7 45.7L368 544c-8.8 0-16-7.2-16-16s7.2-16 16-16l34.3 0c7.5 0 13.7-6.1 13.7-13.7 0-5.2-2.9-9.9-7.6-12.2l-31.2-15.6c-15.5-7.7-25.2-23.5-25.2-40.8 0-25.2 20.4-45.7 45.7-45.7zm98.3 0c8.8 0 16 7.2 16 16l0 31.6c0 23 5.5 45.6 16 66 10.5-20.3 16-42.9 16-66l0-31.6c0-8.8 7.2-16 16-16s16 7.2 16 16l0 31.6c0 34.7-10.3 68.7-29.6 97.6l-5.1 7.7c-3 4.5-8 7.1-13.3 7.1s-10.3-2.7-13.3-7.1l-5.1-7.7c-19.3-28.9-29.6-62.9-29.6-97.6l0-31.6c0-8.8 7.2-16 16-16z"/></svg>