<svg xmlns="http://www.w3.org/2000/svg" viewBox="0 0 512 512"><!--! Font Awesome Pro 7.0.0 by @fontawesome - https://fontawesome.com License - https://fontawesome.com/license (Commercial License) Copyright 2025 Fonticons, Inc. --><path fill="currentColor" d="M128 32l128 0 0 96c0 35.3 28.7 64 64 64l96 0 0 256c0 17.7-14.3 32-32 32l-256 0c-17.7 0-32-14.3-32-32l0-48-32 0 0 48c0 35.3 28.7 64 64 64l256 0c35.3 0 64-28.7 64-64l0-261.5c0-17-6.7-33.3-18.7-45.3L306.7 18.7C294.7 6.7 278.5 0 261.5 0L128 0C92.7 0 64 28.7 64 64l0 208 32 0 0-208c0-17.7 14.3-32 32-32zM288 45.3L402.7 160 320 160c-17.7 0-32-14.3-32-32l0-82.7zM0 336c0 8.8 7.2 16 16 16l249.4 0-44.7 44.7c-6.2 6.2-6.2 16.4 0 22.6s16.4 6.2 22.6 0l72-72c6.2-6.2 6.2-16.4 0-22.6l-72-72c-6.2-6.2-16.4-6.2-22.6 0s-6.2 16.4 0 22.6L265.4 320 16 320c-8.8 0-16 7.2-16 16z"/></svg>