<svg xmlns="http://www.w3.org/2000/svg" viewBox="0 0 576 512"><!--! Font Awesome Pro 7.0.0 by @fontawesome - https://fontawesome.com License - https://fontawesome.com/license (Commercial License) Copyright 2025 Fonticons, Inc. --><path fill="currentColor" d="M224 32L96 32C78.3 32 64 46.3 64 64l0 384c0 17.7 14.3 32 32 32l144 0 0 32-144 0c-35.3 0-64-28.7-64-64L32 64C32 28.7 60.7 0 96 0L229.5 0c17 0 33.3 6.7 45.3 18.7L397.3 141.3c12 12 18.7 28.3 18.7 45.3l0 149.5-32 0 0-144-96 0c-35.3 0-64-28.7-64-64l0-96zM370.7 160L256 45.3 256 128c0 17.7 14.3 32 32 32l82.7 0zM328 384l16 0c22.1 0 40 17.9 40 40 0 8.8-7.2 16-16 16s-16-7.2-16-16c0-4.4-3.6-8-8-8l-16 0c-4.4 0-8 3.6-8 8l0 80c0 4.4 3.6 8 8 8l16 0c4.4 0 8-3.6 8-8l0-8c-8.8 0-16-7.2-16-16s7.2-16 16-16l16 0c8.8 0 16 7.2 16 16l0 24c0 22.1-17.9 40-40 40l-16 0c-22.1 0-40-17.9-40-40l0-80c0-22.1 17.9-40 40-40zm120 16l0 128c0 8.8-7.2 16-16 16s-16-7.2-16-16l0-128c0-8.8 7.2-16 16-16s16 7.2 16 16zm32 0c0-8.8 7.2-16 16-16l48 0c8.8 0 16 7.2 16 16s-7.2 16-16 16l-32 0 0 32 32 0c8.8 0 16 7.2 16 16s-7.2 16-16 16l-32 0 0 48c0 8.8-7.2 16-16 16s-16-7.2-16-16l0-128z"/></svg>