<svg xmlns="http://www.w3.org/2000/svg" viewBox="0 0 384 512"><!--! Font Awesome Pro 7.0.0 by @fontawesome - https://fontawesome.com License - https://fontawesome.com/license (Commercial License) Copyright 2025 Fonticons, Inc. --><path fill="currentColor" d="M203.8 .3c14.6 1.5 28.4 7.9 38.9 18.4L365.2 141.2c12 12 18.7 28.3 18.7 45.2l0 261.5-.3 6.5c-3.1 30.1-27 54.1-57.1 57.1l-6.5 .3-256 0-6.5-.3C25.2 508.4 0 481.1 0 448L0 64C0 30.9 25.2 3.6 57.5 .3L64 0 197.5 0 203.8 .3zM64 32C46.3 32 32 46.3 32 64l0 384c0 17.7 14.3 32 32 32l256 0c17.7 0 32-14.3 32-32l0-256-96 0c-35.3 0-64-28.7-64-64l0-96-128 0zm80 224c8.8 0 16 7.2 16 16s-7.2 16-16 16l-16 0 0 14.1c0 6.7-2.1 13.2-5.9 18.6l-1.8 2.2-11.2 13.1 11.2 13.1c5 5.8 7.7 13.2 7.7 20.8l0 14.1 16 0c8.8 0 16 7.2 16 16s-7.2 16-16 16l-16 0c-17.7 0-32-14.3-32-32l0-14.1-20.2-23.5c-5.1-6-5.1-14.8 0-20.8L96 302.1 96 288c0-17.7 14.3-32 32-32l16 0zm112 0c17.7 0 32 14.3 32 32l0 14.1 20.2 23.5c5.1 6 5.1 14.8 0 20.8L288 369.9 288 384c0 17.7-14.3 32-32 32l-16 0c-8.8 0-16-7.2-16-16s7.2-16 16-16l16 0 0-14.1c0-7.6 2.8-15 7.7-20.8l11.2-13.1-11.2-13.1-1.8-2.2c-3.8-5.4-5.9-11.9-5.9-18.6l0-14.1-16 0c-8.8 0-16-7.2-16-16s7.2-16 16-16l16 0zM224 128c0 17.7 14.3 32 32 32l82.8 0-114.8-114.8 0 82.8z"/></svg>