<svg xmlns="http://www.w3.org/2000/svg" viewBox="0 0 384 512"><!--! Font Awesome Pro 7.0.0 by @fontawesome - https://fontawesome.com License - https://fontawesome.com/license (Commercial License) Copyright 2025 Fonticons, Inc. --><path fill="currentColor" d="M64 32l128 0 0 96c0 35.3 28.7 64 64 64l96 0 0 256c0 17.7-14.3 32-32 32L64 480c-17.7 0-32-14.3-32-32L32 64c0-17.7 14.3-32 32-32zM224 45.3L338.7 160 256 160c-17.7 0-32-14.3-32-32l0-82.7zM64 0C28.7 0 0 28.7 0 64L0 448c0 35.3 28.7 64 64 64l256 0c35.3 0 64-28.7 64-64l0-261.5c0-17-6.7-33.3-18.7-45.3L242.7 18.7C230.7 6.7 214.5 0 197.5 0L64 0zm56 224c-22.1 0-40 17.9-40 40 0 19.4 13.7 35.5 32 39.2l0 65.6c-18.3 3.7-32 19.8-32 39.2 0 22.1 17.9 40 40 40 19.4 0 35.5-13.7 39.2-32l65.6 0c3.7 18.3 19.8 32 39.2 32 22.1 0 40-17.9 40-40 0-19.4-13.7-35.5-32-39.2l0-65.6c18.3-3.7 32-19.8 32-39.2 0-22.1-17.9-40-40-40-19.4 0-35.5 13.7-39.2 32l-65.6 0c-3.7-18.3-19.8-32-39.2-32zM232 384l-80 0c-2.3-3-5-5.7-8-8l0-80c3-2.3 5.7-5 8-8l80 0c2.3 3 5 5.7 8 8l0 80c-3 2.3-5.7 5-8 8zM120 252a12 12 0 1 1 0 24 12 12 0 1 1 0-24zm132 12a12 12 0 1 1 24 0 12 12 0 1 1 -24 0zM120 420c-6.6 0-12-5.4-12-12s5.4-12 12-12 12 5.4 12 12-5.4 12-12 12zm156-12c0 6.6-5.4 12-12 12s-12-5.4-12-12 5.4-12 12-12 12 5.4 12 12z"/></svg>