<svg xmlns="http://www.w3.org/2000/svg" viewBox="0 0 576 512"><!--! Font Awesome Pro 7.0.0 by @fontawesome - https://fontawesome.com License - https://fontawesome.com/license (Commercial License) Copyright 2025 Fonticons, Inc. --><path fill="currentColor" d="M27.3-27.2c-6.2-6.2-16.4-6.2-22.6 0s-6.2 16.4 0 22.6l544 544c6.2 6.2 16.4 6.2 22.6 0s6.2-16.4 0-22.6l-68.2-68.2c5.7-9.5 8.9-20.7 8.9-32.6l0-320c0-35.3-28.7-64-64-64L128 32c-11.9 0-23 3.2-32.6 8.9L27.3-27.2zm92.3 92.3c2.7-.7 5.5-1.1 8.4-1.1l32 0 0 41.5-40.4-40.4zM192 137.5l0-73.5 192 0 0 265.5-192-192zM438.5 384l41.5 0 0 32c0 2.9-.4 5.7-1.1 8.4L438.5 384zM64 122.5L64 416c0 35.3 28.7 64 64 64l293.5 0-32-32-197.5 0 0-197.5-10.5-10.5-85.5 0 0-85.5-32-32zM128 448c-17.7 0-32-14.3-32-32l0-32 64 0 0 64-32 0zM96 352l0-80 64 0 0 80-64 0zm384-80l0 80-64 0 0-80 64 0zm0-112l0 80-64 0 0-80 64 0zm0-64l0 32-64 0 0-64 32 0c17.7 0 32 14.3 32 32z"/></svg>