<svg xmlns="http://www.w3.org/2000/svg" viewBox="0 0 640 512"><!--! Font Awesome Pro 7.0.0 by @fontawesome - https://fontawesome.com License - https://fontawesome.com/license (Commercial License) Copyright 2025 Fonticons, Inc. --><path fill="currentColor" d="M192 368l0 80 88.4 0c-4.3 9.8-7.1 20.5-8 32L128 480c-35.3 0-64-28.7-64-64L64 96c0-35.3 28.7-64 64-64l320 0c35.3 0 64 28.7 64 64l0 102-32 6.7 0-44.6-64 0 0 58c-12.7 3.3-23.7 10.3-32 19.6l0-173.7-192 0 0 304zm-32 16l-64 0 0 32c0 17.7 14.3 32 32 32l32 0 0-64zM96 352l64 0 0-80-64 0 0 80zm64-112l0-80-64 0 0 80 64 0zm0-176l-32 0c-17.7 0-32 14.3-32 32l0 32 64 0 0-64zm320 64l0-32c0-17.7-14.3-32-32-32l-32 0 0 64 64 0zM640 239.9l0 216.1c0 30.7-28.4 56-64 56s-64-25.3-64-56 28.4-56 64-56c11.7 0 22.6 2.7 32 7.5l0-67.9-160 33.3 0 115.1c0 30.7-28.4 56-64 56s-64-25.3-64-56 28.4-56 64-56c11.7 0 22.6 2.7 32 7.5l0-159.6c0-7.6 5.3-14.1 12.7-15.7l192-40c4.7-1 9.6 .2 13.4 3.2s5.9 7.6 5.9 12.4zm-32 67l0-47.3-160 33.3 0 47.3 160-33.3zM352 487.9c0 9.6 10.4 24 32 24s32-14.4 32-24-10.4-24-32-24-32 14.4-32 24zm224-56c-21.6 0-32 14.4-32 24s10.4 24 32 24 32-14.4 32-24-10.4-24-32-24z"/></svg>