<svg xmlns="http://www.w3.org/2000/svg" viewBox="0 0 448 512"><!--! Font Awesome Pro 7.0.0 by @fontawesome - https://fontawesome.com License - https://fontawesome.com/license (Commercial License) Copyright 2025 Fonticons, Inc. --><path fill="currentColor" d="M280-8c53 0 96 43 96 96 0 21-6.8 40.2-18.2 56 11.4 15.8 18.2 35 18.2 56 0 53-43 96-96 96-14.3 0-27.8-3.3-40-8.9l0 107.8c30.2-42.9 79.1-71.8 134.9-74.6l9.1-.2 34.5 0 3 .2c14.9 1.5 26.5 14.1 26.5 29.4l-.2 8.4C443.6 441 377 507.6 293.9 511.8l-8.4 .2-123.1 0-8.4-.2C71 507.6 4.4 441 .2 357.9L0 349.5c0-15.3 11.6-27.9 26.5-29.4l3-.2 34.5 0 9.1 .2c55.8 2.8 104.7 31.7 134.9 74.6l0-107.8c-12.2 5.7-25.7 8.9-40 8.9-53 0-96-43-96-96 0-20.9 6.8-40.2 18.2-56-11.4-15.8-18.2-35.1-18.2-56 0-53 43-96 96-96 20.9 0 40.2 6.8 56 18.2 15.8-11.4 35.1-18.2 56-18.2zM32.1 352c1.3 70.9 59.2 128 130.4 128l44.6 0c-8-72-69-128-143.1-128l-31.9 0zM384 352c-74.1 0-135.1 56-143.1 128l44.6 0c71.2 0 129.1-57.1 130.4-128L384 352zM280 24c-17.4 0-33.2 7-44.8 18.3-6.2 6.1-16.2 6.1-22.4 0-11.6-11.4-27.3-18.3-44.8-18.3-35.3 0-64 28.7-64 64 0 17.4 7 33.2 18.3 44.8 6.1 6.2 6.1 16.2 0 22.4-11.4 11.6-18.3 27.3-18.3 44.8 0 35.3 28.7 64 64 64 17.4 0 33.2-7 44.8-18.3l2.5-2c6.2-4 14.5-3.3 19.9 2l4.5 4c11 9 25 14.3 40.2 14.3 35.3 0 64-28.7 64-64 0-17.4-7-33.2-18.3-44.8-6.1-6.2-6.1-16.2 0-22.4 11.4-11.6 18.3-27.4 18.3-44.8 0-35.3-28.7-64-64-64zM224 168a24 24 0 1 1 0-48 24 24 0 1 1 0 48z"/></svg>