<svg xmlns="http://www.w3.org/2000/svg" viewBox="0 0 576 512"><!--! Font Awesome Pro 7.0.0 by @fontawesome - https://fontawesome.com License - https://fontawesome.com/license (Commercial License) Copyright 2025 Fonticons, Inc. --><path fill="currentColor" d="M460.7 20.7L180 301.4 242.6 364 523.3 83.3c6.2-6.2 6.2-16.4 0-22.6l-40-40c-6.2-6.2-16.4-6.2-22.6 0zM157.4 324L52.7 428.7c-6.2 6.2-6.2 16.4 0 22.6l40 40c6.2 6.2 16.4 6.2 22.6 0L220 386.6 157.4 324zM438.1-1.9c18.7-18.7 49.1-18.7 67.9 0l40 40c18.7 18.7 18.7 49.1 0 67.9l-408 408c-18.7 18.7-49.1 18.7-67.9 0l-40-40c-18.7-18.7-18.7-49.1 0-67.9l408-408zM280 248a16 16 0 1 1 32 0 16 16 0 1 1 -32 0zM128 400a16 16 0 1 1 0 32 16 16 0 1 1 0-32zM344 184a16 16 0 1 1 32 0 16 16 0 1 1 -32 0zm80-80a16 16 0 1 1 0 32 16 16 0 1 1 0-32z"/></svg>