<svg xmlns="http://www.w3.org/2000/svg" viewBox="0 0 512 512"><!--! Font Awesome Pro 7.0.0 by @fontawesome - https://fontawesome.com License - https://fontawesome.com/license (Commercial License) Copyright 2025 Fonticons, Inc. --><path fill="currentColor" d="M480 384l0-240c0-17.7-14.3-32-32-32l-32 0 0 160c0 5.5-2.9 10.7-7.6 13.6s-10.6 3.2-15.6 .7l-56.8-28.4-56.8 28.4c-5 2.5-10.9 2.2-15.6-.7S256 277.5 256 272l0-176-34.1-25.6c-5.5-4.2-12.3-6.4-19.2-6.4L64 64C46.3 64 32 78.3 32 96l0 288c0 17.7 14.3 32 32 32l384 0c17.7 0 32-14.3 32-32zM400 80l48 0c35.3 0 64 28.7 64 64l0 240c0 35.3-28.7 64-64 64L64 448c-35.3 0-64-28.7-64-64L0 96C0 60.7 28.7 32 64 32l138.7 0c13.8 0 27.3 4.5 38.4 12.8l38.4 28.8c5.5 4.2 12.3 6.4 19.2 6.4L400 80zm-16 32l-85.3 0c-3.6 0-7.2-.3-10.7-.9l0 135 40.8-20.4c4.5-2.3 9.8-2.3 14.3 0L384 246.1 384 112z"/></svg>