<svg xmlns="http://www.w3.org/2000/svg" viewBox="0 0 384 512"><!--! Font Awesome Pro 7.0.0 by @fontawesome - https://fontawesome.com License - https://fontawesome.com/license (Commercial License) Copyright 2025 Fonticons, Inc. --><path fill="currentColor" d="M112 0l0 205.1c9.8 4.8 20.6 9 32 12.2L144 0c0-8.8-7.2-16-16-16S112-8.8 112 0zm80 224c5.4 0 10.7-.3 16-.8L208 48c0-8.8-7.2-16-16-16s-16 7.2-16 16l0 175.2c5.3 .5 10.6 .8 16 .8zm48-6.8c11.4-3.2 22.2-7.3 32-12.2L272 16c0-8.8-7.2-16-16-16s-16 7.2-16 16l0 201.2zM315.8 171c5.5-7.7 12.4-13.9 20.2-18.4L336 48c0-8.8-7.2-16-16-16s-16 7.2-16 16l0 136c4.7-4.2 8.7-8.6 11.8-13zM68.2 171c3.1 4.4 7.1 8.8 11.8 13L80 48c0-8.8-7.2-16-16-16S48 39.2 48 48l0 104.6c7.8 4.5 14.7 10.7 20.2 18.4zM29.1 198.7c-4.5-6.3-12.7-8.5-19.7-5.3s-10.7 11-8.8 18.4L55.4 431.5C62.5 460 88.1 480 117.5 480l149 0c29.4 0 55-20 62.1-48.5l54.9-219.6c1.9-7.5-1.8-15.2-8.8-18.4s-15.3-1-19.7 5.3C324.6 241.6 256.3 272 192 272S59.4 241.6 29.1 198.7zm57.4 225L45.1 258.3c85.9 60.5 208 60.5 293.9 0L297.6 423.8C294 438 281.2 448 266.5 448l-149 0c-14.7 0-27.5-10-31-24.2z"/></svg>