<svg xmlns="http://www.w3.org/2000/svg" viewBox="0 0 576 512"><!--! Font Awesome Pro 7.0.0 by @fontawesome - https://fontawesome.com License - https://fontawesome.com/license (Commercial License) Copyright 2025 Fonticons, Inc. --><path fill="currentColor" d="M512 96c17.7 0 32 14.3 32 32l0 96c0 17.7-14.3 32-32 32L64 256c-17.7 0-32-14.3-32-32l0-96c0-17.7 14.3-32 32-32l448 0zM64 64C28.7 64 0 92.7 0 128l0 96c0 35.3 28.7 64 64 64l448 0c35.3 0 64-28.7 64-64l0-96c0-35.3-28.7-64-64-64L64 64zm0 320l0 32-32 0 0-32 32 0zM32 352c-17.7 0-32 14.3-32 32l0 32c0 17.7 14.3 32 32 32l32 0c17.7 0 32-14.3 32-32l0-32c0-17.7-14.3-32-32-32l-32 0zm160 32l32 0 0 32-32 0 0-32zm-32 0l0 32c0 17.7 14.3 32 32 32l32 0c17.7 0 32-14.3 32-32l0-32c0-17.7-14.3-32-32-32l-32 0c-17.7 0-32 14.3-32 32zm224 0l0 32-32 0 0-32 32 0zm-32-32c-17.7 0-32 14.3-32 32l0 32c0 17.7 14.3 32 32 32l32 0c17.7 0 32-14.3 32-32l0-32c0-17.7-14.3-32-32-32l-32 0zm160 32l32 0 0 32-32 0 0-32zm-32 0l0 32c0 17.7 14.3 32 32 32l32 0c17.7 0 32-14.3 32-32l0-32c0-17.7-14.3-32-32-32l-32 0c-17.7 0-32 14.3-32 32z"/></svg>