<svg xmlns="http://www.w3.org/2000/svg" viewBox="0 0 576 512"><!--! Font Awesome Pro 7.0.0 by @fontawesome - https://fontawesome.com License - https://fontawesome.com/license (Commercial License) Copyright 2025 Fonticons, Inc. --><path fill="currentColor" d="M179.3 117.7c-3.1-3.1-3.1-8.2 0-11.3L282.8 2.9c3.1-3.1 8.2-3.1 11.3 0l31.4 31.4c3.1 3.1 3.1 8.2 0 11.3L222.1 149.1c-3.1 3.1-8.2 3.1-11.3 0l-31.4-31.4zM316.7-19.7c-15.6-15.6-40.9-15.6-56.6 0L156.7 83.7c-15.6 15.6-15.6 40.9 0 56.6l31.4 31.4c11.2 11.2 27.4 14.4 41.5 9.5l55.5 55.5-232 232c-6.2 6.2-6.2 16.4 0 22.6s16.4 6.2 22.6 0l232-232 55.5 55.5c-4.9 14-1.7 30.3 9.5 41.5l31.4 31.4c15.6 15.6 40.9 15.6 56.6 0L564.1 284.3c15.6-15.6 15.6-40.9 0-56.6l-31.4-31.4c-11.2-11.2-27.4-14.4-41.5-9.5L357.6 53.2c4.9-14 1.7-30.3-9.5-41.5L316.7-19.7zM465.8 206.6l-82.7 82.7-128-128 82.7-82.7 128 128zm-39 158.5l-31.4-31.4c-3.1-3.1-3.1-8.2 0-11.3L498.8 218.9c3.1-3.1 8.2-3.1 11.3 0l31.4 31.4c3.1 3.1 3.1 8.2 0 11.3L438.1 365.1c-3.1 3.1-8.2 3.1-11.3 0z"/></svg>