<svg xmlns="http://www.w3.org/2000/svg" viewBox="0 0 576 512"><!--! Font Awesome Pro 7.0.0 by @fontawesome - https://fontawesome.com License - https://fontawesome.com/license (Commercial License) Copyright 2025 Fonticons, Inc. --><path fill="currentColor" d="M181 1.1c-3.6-1-7.4 .7-9.2 4L157.4 32.8c-2.3 4.5-6.6 7.6-11.6 8.4-5.7 .9-11.3 2.4-16.6 4.5-4.7 1.8-10 1.2-14.2-1.5L88.7 27.4c-3.2-2-7.3-1.6-10 1.1l-18 18c-2.7 2.7-3.1 6.8-1.1 10L76.4 82.8c2.7 4.2 3.2 9.5 1.5 14.2-1 2.7-1.9 5.4-2.6 8.2s-1.4 5.6-1.8 8.4c-.8 5-3.9 9.2-8.4 11.6L37.3 139.7c-3.3 1.7-5 5.5-4 9.2l6.6 24.6c1 3.6 4.3 6.1 8.1 5.9L79.1 178c5-.2 9.9 1.9 13.1 5.8 3.6 4.4 7.7 8.5 12.2 12.2 3.9 3.2 6 8 5.8 13.1l-1.3 31.2c-.2 3.7 2.3 7.1 5.9 8.1l24.6 6.6c3.6 1 7.4-.7 9.2-4L163 223.2c2.3-4.5 6.6-7.6 11.6-8.4 5.7-.9 11.3-2.4 16.6-4.5 4.7-1.8 10-1.2 14.2 1.5l26.3 16.8c3.2 2 7.3 1.6 10-1.1l18-18c2.7-2.7 3.1-6.8 1.1-10l-16.8-26.3c-2.7-4.2-3.2-9.5-1.5-14.2 1-2.7 1.9-5.4 2.6-8.2s1.4-5.6 1.8-8.4c.8-5 3.9-9.2 8.4-11.6l27.7-14.4c3.3-1.7 5-5.5 4-9.2l-6.6-24.6c-1-3.6-4.3-6.1-8.1-5.9L241.3 78c-5 .2-9.9-1.9-13.1-5.8-3.6-4.4-7.7-8.5-12.2-12.2-3.9-3.2-6-8-5.8-13.1l1.3-31.2c.2-3.7-2.3-7.1-5.9-8.1L181 1.1zM143.5-9.7c8.7-16.6 27.7-25 45.8-20.1l24.6 6.6c18.1 4.9 30.4 21.6 29.6 40.4l-1 23.5c1.7 1.6 3.4 3.3 5 5l23.6-1c18.7-.8 35.5 11.5 40.4 29.6l6.6 24.6c4.9 18.1-3.5 37.2-20.1 45.8L277 155.6c-.5 2.3-1.2 4.6-1.8 6.8l12.7 19.9c10.1 15.8 7.8 36.5-5.5 49.8l-18 18c-13.3 13.3-33.9 15.5-49.8 5.5L194.7 243c-2.3 .7-4.5 1.3-6.9 1.8l-10.9 20.9c-8.7 16.6-27.7 25-45.8 20.2l-24.6-6.6c-18.1-4.9-30.4-21.6-29.6-40.4l1-23.5c-1.7-1.6-3.4-3.3-5-5l-23.6 1c-18.7 .8-35.5-11.5-40.4-29.6L2.4 157.1c-4.9-18.1 3.5-37.2 20.1-45.8l20.9-10.9c.5-2.3 1.2-4.6 1.8-6.8L32.6 73.6c-10.1-15.8-7.8-36.5 5.5-49.8l18-18C69.3-7.4 90-9.7 105.9 .4L125.7 13c2.3-.7 4.5-1.3 6.9-1.8L143.5-9.7zm2.2 191.8a56 56 0 1 1 29-108.2 56 56 0 1 1 -29 108.2zm37.7-47.9a24 24 0 1 0 -46.4-12.4 24 24 0 1 0 46.4 12.4zM370.8 263.7c-3.6 1-6.1 4.3-5.9 8.1l1.3 31.2c.2 5-1.9 9.9-5.8 13.1-4.5 3.7-8.5 7.8-12.2 12.2-3.2 3.9-8 6.1-13.1 5.8l-31.2-1.3c-3.7-.2-7.1 2.3-8.1 5.9l-6.6 24.6c-1 3.6 .7 7.4 4 9.2L321 386.8c4.5 2.3 7.6 6.6 8.4 11.6 .5 2.8 1.1 5.6 1.8 8.4s1.6 5.6 2.6 8.2c1.8 4.7 1.2 10-1.5 14.2l-16.8 26.3c-2 3.2-1.6 7.3 1.1 10l18 18c2.7 2.7 6.8 3.1 10 1.1L371 467.9c4.2-2.7 9.5-3.2 14.2-1.5 5.4 2 10.9 3.5 16.6 4.5 5 .8 9.2 3.9 11.6 8.4l14.4 27.7c1.7 3.3 5.5 5 9.2 4l24.6-6.6c3.6-1 6.1-4.3 5.9-8.1l-1.3-31.2c-.2-5 1.9-9.9 5.8-13 4.5-3.7 8.5-7.8 12.2-12.2 3.2-3.9 8-6.1 13.1-5.8l31.2 1.3c3.7 .2 7.1-2.3 8.1-5.9l6.6-24.6c1-3.6-.7-7.4-4-9.2l-27.7-14.4c-4.5-2.3-7.6-6.6-8.4-11.6-.5-2.8-1.1-5.6-1.8-8.4s-1.6-5.6-2.6-8.2c-1.8-4.7-1.2-10 1.5-14.2l16.8-26.3c2-3.2 1.6-7.3-1.1-10l-18-18c-2.7-2.7-6.8-3.1-10-1.1l-26.3 16.8c-4.2 2.7-9.5 3.3-14.2 1.5-5.4-2-10.9-3.5-16.6-4.5-5-.8-9.2-3.9-11.6-8.4l-14.4-27.7c-1.7-3.3-5.5-5-9.2-4l-24.6 6.6zm-37.9 9.5c-.8-18.7 11.5-35.5 29.6-40.4l24.6-6.6c18.1-4.9 37.2 3.5 45.8 20.1l10.9 20.9c2.3 .5 4.6 1.2 6.9 1.8l19.9-12.7c15.8-10.1 36.5-7.8 49.8 5.5l18 18c13.3 13.3 15.5 33.9 5.5 49.8l-12.7 19.9c.7 2.2 1.3 4.5 1.8 6.8l20.9 10.9c16.6 8.7 25 27.7 20.2 45.8l-6.6 24.6c-4.9 18.1-21.6 30.4-40.4 29.6l-23.6-1c-1.6 1.7-3.3 3.4-5 5l1 23.5c.8 18.7-11.5 35.5-29.6 40.4l-24.6 6.6c-18.1 4.9-37.2-3.5-45.8-20.2l-10.9-20.9c-2.3-.5-4.6-1.2-6.9-1.8l-19.9 12.7c-15.8 10.1-36.5 7.8-49.8-5.5l-18-18c-13.3-13.3-15.5-33.9-5.5-49.8l12.7-19.9c-.7-2.2-1.3-4.5-1.8-6.8l-20.9-10.9c-16.6-8.7-25-27.7-20.1-45.8l6.6-24.6c4.9-18.1 21.6-30.4 40.4-29.6l23.6 1c1.6-1.7 3.3-3.4 5-5l-1-23.5zm97.8 165a56 56 0 1 1 -29-108.2 56 56 0 1 1 29 108.2zm8.7-60.3a24 24 0 1 0 -46.4 12.4 24 24 0 1 0 46.4-12.4z"/></svg>