<svg xmlns="http://www.w3.org/2000/svg" viewBox="0 0 512 512"><!--! Font Awesome Pro 7.0.0 by @fontawesome - https://fontawesome.com License - https://fontawesome.com/license (Commercial License) Copyright 2025 Fonticons, Inc. --><path fill="currentColor" d="M351.8 32c26.6 0 48.2 21.5 48.2 48 0 26.5-21.5 48-48 48l-78.1 0 34.7-69.3c8.2-16.3 25-26.7 43.3-26.7zM222.7 160l-43.2 54c-5.5 6.9-4.4 17 2.5 22.5s17 4.4 22.5-2.5L256 169.6 307.5 234c5.5 6.9 15.6 8 22.5 2.5s8-15.6 2.5-22.5l-43.2-54 158.7 0c17.7 0 32 14.3 32 32l0 128-448 0 0-128c0-17.7 14.3-32 32-32l158.7 0zM96 128l-32 0c-35.3 0-64 28.7-64 64L0 416c0 35.3 28.7 64 64 64l384 0c35.3 0 64-28.7 64-64l0-224c0-35.3-28.7-64-64-64l-32 0c10-13.4 16-30 16-48 0-44.2-36-80-80.2-80-30.4 0-58.3 17.2-71.9 44.4L256 92.2 232.1 44.4C218.5 17.2 190.5 0 160.2 0 116 0 80 35.8 80 80 80 98 86 114.6 96 128zm64 0c-26.5 0-48-21.5-48-48 0-26.5 21.6-48 48.2-48 18.3 0 35.1 10.4 43.3 26.7l34.7 69.3-78.1 0zM32 352l448 0 0 64c0 17.7-14.3 32-32 32L64 448c-17.7 0-32-14.3-32-32l0-64z"/></svg>