<svg xmlns="http://www.w3.org/2000/svg" viewBox="0 0 576 512"><!--! Font Awesome Pro 7.0.0 by @fontawesome - https://fontawesome.com License - https://fontawesome.com/license (Commercial License) Copyright 2025 Fonticons, Inc. --><path fill="currentColor" d="M544 80c0 50.7-33.7 93.6-80 107.4l0 33.1c64.1-14.6 112-71.9 112-140.4 0-79.5-64.5-144-144-144-56.5 0-105.5 32.6-129 80l37.1 0c20.2-29 53.9-48 91.9-48 61.9 0 112 50.1 112 112zM96 96l288 0 0 160-288 0 0-160zm0 288l0-96 288 0 0 96c0 53-43 96-96 96l-96 0c-53 0-96-43-96-96zM64 96l0 288c0 70.7 57.3 128 128 128l96 0c70.7 0 128-57.3 128-128l0-288c0-17.7-14.3-32-32-32L96 64C78.3 64 64 78.3 64 96z"/></svg>