<svg xmlns="http://www.w3.org/2000/svg" viewBox="0 0 384 512"><!--! Font Awesome Pro 7.0.0 by @fontawesome - https://fontawesome.com License - https://fontawesome.com/license (Commercial License) Copyright 2025 Fonticons, Inc. --><path fill="currentColor" d="M32.5 40.7c-.4-4.7 3.3-8.7 8-8.7l303.7 0c4.7 0 8.4 4 8 8.7l-8.2 97.7-38 19c-19.2 9.6-42.3 7.2-59.1-6.3-31.8-25.5-77.1-25.5-108.9 0-16.8 13.4-39.9 15.9-59.1 6.3l-38.1-19-8.2-97.6zm11.4 135L64.5 186c30.4 15.2 66.9 11.3 93.4-9.9 20.1-16.1 48.8-16.1 68.9 0 26.5 21.2 63 25.1 93.4 9.9l20.5-10.3-23.2 275c-1.4 16.6-15.3 29.3-31.9 29.3L99 480c-16.6 0-30.5-12.7-31.9-29.3L43.9 175.6zM40.5 0C17.1 0-1.3 20 .6 43.4l34.6 410C38 486.5 65.7 512 99 512l186.8 0c33.3 0 61-25.5 63.8-58.6l34.6-410C386.1 20 367.6 0 344.2 0L40.5 0z"/></svg>