<svg xmlns="http://www.w3.org/2000/svg" viewBox="0 0 576 512"><!--! Font Awesome Pro 7.0.0 by @fontawesome - https://fontawesome.com License - https://fontawesome.com/license (Commercial License) Copyright 2025 Fonticons, Inc. --><path fill="currentColor" d="M320 480c15.5 0 39.4-15 61.5-59.9 19-38.6 32.1-91.3 34.2-148.1l-95.7 0 0-32 95.7 0C413.6 183.2 400.5 130.5 381.5 91.9 359.4 47 335.5 32 320 32s-39.4 15-61.5 59.9c-18.6 37.7-31.5 88.8-34 144l-122.6 36.1-5.3 0 .1 1.5-31.3 9.2C64.5 273.9 64 265 64 256 64 114.6 178.6 0 320 0S576 114.6 576 256 461.4 512 320 512c-22.8 0-45-3-66-8.6l17.7-60.2c18 27.1 35.9 36.7 48.3 36.7zM200.6 344.8l-.3-1.6 .9-.3-.6 1.9zM389.2 469.1c85-27.6 147.7-104.6 154.2-197.1l-95.7 0c-2.7 79.3-25.5 152.9-58.5 197.1zM447.7 240l95.7 0c-6.5-92.5-69.2-169.5-154.2-197.1 33 44.2 55.8 117.8 58.5 197.1zM250.8 42.9C165.8 70.5 103.1 147.5 96.6 240l95.7 0c2.7-79.3 25.5-152.9 58.5-197.1zM87.1 359.8L137.5 385c9.3 4.6 16.8 12.2 21.5 21.5l25.2 50.5 40.5-137.7-137.7 40.5zm156.8-79.5c12.1-3.6 23.4 7.7 19.9 19.9L203.5 505c-4.1 13.9-23.2 15.6-29.7 2.6l-38.3-76.5-92.2 92.2c-6.2 6.2-16.4 6.2-22.6 0s-6.2-16.4 0-22.6l92.2-92.2-76.5-38.3c-13-6.5-11.3-25.6 2.6-29.7l204.8-60.2z"/></svg>