<svg xmlns="http://www.w3.org/2000/svg" viewBox="0 0 640 512"><!--! Font Awesome Pro 7.0.0 by @fontawesome - https://fontawesome.com License - https://fontawesome.com/license (Commercial License) Copyright 2025 Fonticons, Inc. --><path fill="currentColor" d="M208 32l272 0c35.3 0 64 28.7 64 64l0 90c-10.1-4.7-21.1-7-32-7l0-83c0-17.7-14.3-32-32-32l-32 0 0 148.5c-13.4 15.6-30 36.1-45.8 59.5l-66.2 0 0 176 9.5 0c1.5 11.1 4.1 21.8 7.6 32L160 480c-35.3 0-64-28.7-64-64L96 96c0-35.3 28.7-64 64-64l48 0zM128 272l0 144c0 17.7 14.3 32 32 32l32 0 0-176-64 0zm96 176l80 0 0-176-80 0 0 176zM416 64l-80 0 0 176 80 0 0-176zM304 64l-80 0 0 176 80 0 0-176zM192 64l-32 0c-17.7 0-32 14.3-32 32l0 144 64 0 0-176zM424 426.1c0 46.9 38.9 85.9 88 85.9s88-39 88-85.9c0-25.6-12.4-57.1-31.8-89.4-18-29.9-39.9-57.1-56.2-75.8-16.4 18.7-38.2 45.8-56.2 75.8-19.4 32.3-31.8 63.8-31.8 89.4zM512 544c-66.3 0-120-52.8-120-117.9 0-68.9 64.1-150.4 98.6-189.3 11.6-13.1 31.3-13.1 42.9 0 34.5 38.9 98.6 120.4 98.6 189.3 0 65.1-53.7 117.9-120 117.9z"/></svg>