<svg xmlns="http://www.w3.org/2000/svg" viewBox="0 0 448 512"><!--! Font Awesome Pro 7.0.0 by @fontawesome - https://fontawesome.com License - https://fontawesome.com/license (Commercial License) Copyright 2025 Fonticons, Inc. --><path fill="currentColor" d="M0 48c0-8.8 7.2-16 16-16l416 0c8.8 0 16 7.2 16 16s-7.2 16-16 16L16 64C7.2 64 0 56.8 0 48zm32 96l0 48 48 0 0-48-48 0zM0 144c0-17.7 14.3-32 32-32l48 0c17.7 0 32 14.3 32 32l0 48c0 17.7-14.3 32-32 32l-48 0c-17.7 0-32-14.3-32-32l0-48zM32 400l0 48 48 0 0-48-48 0zM0 400c0-17.7 14.3-32 32-32l48 0c17.7 0 32 14.3 32 32l0 48c0 17.7-14.3 32-32 32l-48 0c-17.7 0-32-14.3-32-32l0-48zm200 0l0 48 48 0 0-48-48 0zm-32 0c0-17.7 14.3-32 32-32l48 0c17.7 0 32 14.3 32 32l0 48c0 17.7-14.3 32-32 32l-48 0c-17.7 0-32-14.3-32-32l0-48zm248 0l-48 0 0 48 48 0 0-48zm-48-32l48 0c17.7 0 32 14.3 32 32l0 48c0 17.7-14.3 32-32 32l-48 0c-17.7 0-32-14.3-32-32l0-48c0-17.7 14.3-32 32-32zM248 144l-48 0 0 48 48 0 0-48zm-48-32l48 0c17.7 0 32 14.3 32 32l0 48c0 17.7-14.3 32-32 32l-48 0c-17.7 0-32-14.3-32-32l0-48c0-17.7 14.3-32 32-32zm168 32l0 48 48 0 0-48-48 0zm-32 0c0-17.7 14.3-32 32-32l48 0c17.7 0 32 14.3 32 32l0 48c0 17.7-14.3 32-32 32l-48 0c-17.7 0-32-14.3-32-32l0-48zM16 288l416 0c8.8 0 16 7.2 16 16s-7.2 16-16 16L16 320c-8.8 0-16-7.2-16-16s7.2-16 16-16z"/></svg>