<svg xmlns="http://www.w3.org/2000/svg" viewBox="0 0 512 512"><!--! Font Awesome Pro 7.0.0 by @fontawesome - https://fontawesome.com License - https://fontawesome.com/license (Commercial License) Copyright 2025 Fonticons, Inc. --><path fill="currentColor" d="M32 80c0-8.8-7.2-16-16-16S0 71.2 0 80L0 432c0 8.8 7.2 16 16 16s16-7.2 16-16l0-160 192 0 0 160c0 8.8 7.2 16 16 16s16-7.2 16-16l0-352c0-8.8-7.2-16-16-16s-16 7.2-16 16l0 160-192 0 0-160zm400 0c0-5.5-2.9-10.7-7.6-13.6s-10.6-3.2-15.6-.7l-80 40c-7.9 4-11.1 13.6-7.2 21.5s13.6 11.1 21.5 7.2l56.8-28.4 0 310.1-64 0c-8.8 0-16 7.2-16 16s7.2 16 16 16l160 0c8.8 0 16-7.2 16-16s-7.2-16-16-16l-64 0 0-336z"/></svg>