<svg xmlns="http://www.w3.org/2000/svg" viewBox="0 0 512 512"><!--! Font Awesome Pro 7.0.0 by @fontawesome - https://fontawesome.com License - https://fontawesome.com/license (Commercial License) Copyright 2025 Fonticons, Inc. --><path fill="currentColor" d="M378.9 64c-32.4 0-62.9 15.6-81.9 41.9l-28 38.7c-3 4.2-7.8 6.6-13 6.6s-10-2.5-13-6.6l-28-38.7C196.1 79.6 165.6 64 133.1 64 77.3 64 32 109.3 32 165.1 32 202.5 47.9 238.5 69.8 272l53.6 0c6.3 0 12-3.7 14.6-9.4l31.5-69.2c2.5-5.6 8-9.2 14.1-9.4s11.8 3.1 14.6 8.5l58.9 111.3 49.3-80.2c3-4.8 8.2-7.7 13.9-7.6s10.8 3.2 13.6 8.1l22.8 39.9c2.8 5 8.2 8.1 13.9 8.1l71.7 0C464.1 238.5 480 202.5 480 165.1 480 109.3 434.7 64 378.9 64zM448 304l-77.4 0c-17.2 0-33.1-9.2-41.7-24.2l-9.4-16.5-49.9 81c-3 4.9-8.4 7.8-14.1 7.6s-10.9-3.4-13.6-8.5l-56.8-107.2-18 39.6C159.3 293 142.2 304 123.4 304l-70.5 0C24.5 264.2 0 216.9 0 165.1 0 91.6 59.6 32 133.1 32 175.8 32 216 52.5 241 87.1l15 20.7 15-20.7C296 52.5 336.2 32 378.9 32 452.4 32 512 91.6 512 165.1 512 216.9 487.5 264.2 459.1 304L448 304zM91 352l43.2 0c34.6 36.6 71.1 67.9 98.1 88.5 6.2 4.8 14.4 7.5 23.7 7.5s17.4-2.7 23.7-7.5c27-20.6 63.5-51.9 98.1-88.5l43.2 0c-41.5 47.6-88.7 88.5-121.9 113.9-12.4 9.4-27.6 14.1-43.1 14.1s-30.8-4.6-43.1-14.1C179.6 440.5 132.5 399.6 91 352z"/></svg>