<svg xmlns="http://www.w3.org/2000/svg" viewBox="0 0 576 512"><!--! Font Awesome Pro 7.0.0 by @fontawesome - https://fontawesome.com License - https://fontawesome.com/license (Commercial License) Copyright 2025 Fonticons, Inc. --><path fill="currentColor" d="M61.3 275.9L157.5 444c7.1 12.4 20.4 20.1 34.7 20.1l191.6 0c14.3 0 27.6-7.7 34.7-20.1l96.2-168.1c7-12.3 7-27.4 0-39.7L418.5 68.1C411.4 55.7 398.2 48 383.8 48L192.2 48c-14.3 0-27.6 7.7-34.7 20.1L61.3 236.2c-7 12.3-7 27.4 0 39.7zM33.5 291.8c-12.7-22.2-12.7-49.4 0-71.5L129.7 52.2C142.5 29.8 166.4 16 192.2 16l191.6 0c25.8 0 49.7 13.8 62.5 36.2l96.2 168.1c12.7 22.2 12.7 49.4 0 71.5L446.3 459.9c-12.8 22.4-36.7 36.2-62.5 36.2l-191.6 0c-25.8 0-49.7-13.8-62.5-36.2L33.5 291.8zm332.1-91.3l-80 128c-2.8 4.5-7.6 7.3-12.9 7.5s-10.3-2.2-13.5-6.4l-48-64c-5.3-7.1-3.9-17.1 3.2-22.4s17.1-3.9 22.4 3.2l34 45.3 67.6-108.2c4.7-7.5 14.6-9.8 22-5.1s9.8 14.6 5.1 22z"/></svg>