<svg xmlns="http://www.w3.org/2000/svg" viewBox="0 0 640 512"><!--! Font Awesome Pro 7.0.0 by @fontawesome - https://fontawesome.com License - https://fontawesome.com/license (Commercial License) Copyright 2025 Fonticons, Inc. --><path fill="currentColor" d="M288 0C146.6 0 32 114.6 32 256S146.6 512 288 512c8.7 0 21.9-2.6 36.4-7.8 14.3-5.1 28.4-12.2 38.9-20.1 35.6-26.8 83.8-26.8 119.4 0 16.2 12.2 37.3 22.3 58.5 25.9 21 3.5 41 .5 57.2-11.7 7.1-5.3 17.1-3.9 22.4 3.2s3.9 17.1-3.2 22.4c-25 18.9-54.6 22.3-81.8 17.7-27-4.6-52.8-17.1-72.4-31.9-24.2-18.2-56.7-18.2-80.8 0-13.7 10.3-30.9 18.8-47.4 24.7-16.3 5.8-33.5 9.7-47.2 9.7-159.1 0-288-128.9-288-288S128.9-32 288-32c8.8 0 16 7.2 16 16S296.8 0 288 0zm64 208l0 122.6c-5.3 2.8-10.5 5.9-15.6 9.4-6.3 4.3-11.8 7.7-16.4 10.4L320 208c0-10.1 4.7-19.6 12.8-25.6l96-72c11.4-8.5 27.1-8.5 38.5 0l95.5 72c8 6 12.7 15.5 12.7 25.5l.3 148.4c-6.2 3.4-11.3 3.6-17.3 2.6-4.2-.8-9.1-2.3-14.7-4.8l-.3-146-95.5-71.9-96 72zm30.6 205.7c-13.7 10.3-30.9 18.8-47.4 24.7-16.3 5.8-33.5 9.7-47.2 9.7-106 0-192-86-192-192S182 64 288 64c8.8 0 16 7.2 16 16s-7.2 16-16 16c-88.4 0-160 71.6-160 160s71.6 160 160 160c8.7 0 21.9-2.6 36.4-7.8 14.3-5.1 28.4-12.2 38.9-20.1 35.6-26.8 83.8-26.8 119.4 0 16.2 12.2 37.3 22.3 58.5 25.9 21 3.5 41 .5 57.2-11.7 7.1-5.3 17.1-3.9 22.4 3.2s3.9 17.1-3.2 22.4c-25 18.9-54.6 22.3-81.8 17.7-27-4.6-52.8-17.1-72.4-31.9-24.2-18.2-56.7-18.2-80.8 0z"/></svg>