<svg xmlns="http://www.w3.org/2000/svg" viewBox="0 0 640 512"><!--! Font Awesome Pro 7.0.0 by @fontawesome - https://fontawesome.com License - https://fontawesome.com/license (Commercial License) Copyright 2025 Fonticons, Inc. --><path fill="currentColor" d="M272-48c-8.8 0-16 7.2-16 16l0 32-32 0c-8.8 0-16 7.2-16 16s7.2 16 16 16l32 0 0 32c0 8.8 7.2 16 16 16s16-7.2 16-16l0-32 32 0c8.8 0 16-7.2 16-16S328.8 0 320 0l-32 0 0-32c0-8.8-7.2-16-16-16zM127-31c-4.9-.7-9.9-1-15-1-61.9 0-112 50.1-112 112S50.1 192 112 192c30.6 0 58.4-12.3 78.6-32.2 .7-.6 1.3-1.3 1.9-2 6-6.2 10.8-12.6 14.8-19 3.9-6.2-3.2-13.3-10.4-12-2.4 .4-4.9 .8-7.5 .9-3.4 .3-7.5 .3-11.9-.1-.4 0-.8-.1-1.2-.1-36.1-3.8-64.3-34.4-64.3-71.6 0-20.8 8.8-39.5 22.9-52.7 .3-.3 .6-.5 .9-.8 2.9-2.7 6.1-5.1 9.4-7.2 2.1-1.4 4.3-2.6 6.6-3.7 6.6-3.3 8-13.2 1.1-15.9-7-2.7-14.7-5-23.2-6.3-.9-.1-1.8-.3-2.7-.4zM80 56c0 43.9 27.1 81.4 65.5 96.7-10.2 4.7-21.6 7.3-33.5 7.3-44.2 0-80-35.8-80-80 0-38.4 27.1-70.5 63.3-78.2-9.7 15.8-15.3 34.4-15.3 54.2zM379.1 76.5c-6.2-6-16-6-22.2 0l-224 216c-6.4 6.1-6.5 16.3-.4 22.6s16.3 6.5 22.6 .4L176 295.4 176 480c0 35.3 28.7 64 64 64l256 0c35.3 0 64-28.7 64-64l0-184.6 20.9 20.2c6.4 6.1 16.5 5.9 22.6-.4s5.9-16.5-.4-22.6l-224-216zM528 264.5L528 480c0 17.7-14.3 32-32 32l-256 0c-17.7 0-32-14.3-32-32l0-215.5 160-154.3 160 154.3zM304 312l0 48c0 22.1 17.9 40 40 40l48 0c22.1 0 40-17.9 40-40l0-48c0-22.1-17.9-40-40-40l-48 0c-22.1 0-40 17.9-40 40zm40-8l48 0c4.4 0 8 3.6 8 8l0 48c0 4.4-3.6 8-8 8l-48 0c-4.4 0-8-3.6-8-8l0-48c0-4.4 3.6-8 8-8zM560 16c-8.8 0-16 7.2-16 16l0 32-32 0c-8.8 0-16 7.2-16 16s7.2 16 16 16l32 0 0 32c0 8.8 7.2 16 16 16s16-7.2 16-16l0-32 32 0c8.8 0 16-7.2 16-16s-7.2-16-16-16l-32 0 0-32c0-8.8-7.2-16-16-16z"/></svg>