<svg xmlns="http://www.w3.org/2000/svg" viewBox="0 0 640 512"><!--! Font Awesome Pro 7.0.0 by @fontawesome - https://fontawesome.com License - https://fontawesome.com/license (Commercial License) Copyright 2025 Fonticons, Inc. --><path fill="currentColor" d="M277.1 4.3c6.1-5.7 15.7-5.7 21.8 0L448.8 144.2c-12.9-1.1-26.1 1.8-37.5 8.7L288 37.9 112 202.2 112 448c0 17.7 14.3 32 32 32l64 0 0-112c0-35.3 28.7-64 64-64l19.3 0c-4.7 10.4-8.9 21.2-12.1 32l-7.2 0c-17.7 0-32 14.3-32 32l0 112 56.1 0c5.9 11.3 12.8 22 20.6 32L144 512c-35.3 0-64-28.7-64-64l0-216-21.1 19.7c-6.5 6-16.6 5.7-22.6-.8s-5.7-16.6 .8-22.6l240-224zM427.5 199.6c6.3-5.6 14.5-7.5 20.6-7.5 8 .1 14 3.3 18.7 7.6 14.2 12.8 26.3 26.4 38 40.3 5-5.2 10.6-10.9 14.6-14.5 11.2-10.3 28.6-10.2 39.7 .1 38.5 35.5 80.9 96.1 80.9 158.6 0 88.8-71.2 160-160 160l-.1 0c-88.8-.1-159.9-71.2-159.9-160 0-36.5 16-72.5 36.6-103.7 20.8-31.5 47.3-59.6 70.9-80.8zM608 384.2c0-48.7-33.7-100.4-68.8-133.5-6.1 5.8-15.4 15.6-20.5 21-8.3 8.8-22.3 8.3-30-.9-14-16.9-26.7-31.8-41.7-45.7-21.7 19.7-45.4 45.2-63.8 73-19 28.8-31.3 58.6-31.3 86.1 0 33.6 12.7 64.1 33.6 86.8-1.1-5.3-1.6-10.8-1.6-16.4 0-57.4 63.8-110.5 87.4-128.2 5.2-3.9 12.1-3.9 17.3 0 23.6 17.7 87.4 70.8 87.4 128.2 0 5.6-.6 11.1-1.6 16.4 20.9-22.7 33.6-53.2 33.6-86.8zm-127.9 128c37.4-.1 63.9-27.9 63.9-57.6 0-17.4-10.1-37.7-27.4-58.5-12.1-14.5-25.8-27-36.6-35.8-10.7 8.8-24.5 21.3-36.6 35.8-17.3 20.7-27.4 41.1-27.4 58.5 0 29.8 26.5 57.6 64 57.6l.1 0z"/></svg>