<svg xmlns="http://www.w3.org/2000/svg" viewBox="0 0 640 512"><!--! Font Awesome Pro 7.0.0 by @fontawesome - https://fontawesome.com License - https://fontawesome.com/license (Commercial License) Copyright 2025 Fonticons, Inc. --><path fill="currentColor" d="M448 64L128 64c-17.7 0-32 14.3-32 32l0 320c0 17.7 14.3 32 32 32l152.4 0c-4.3 9.8-7.1 20.5-8 32L128 480c-35.3 0-64-28.7-64-64L64 96c0-35.3 28.7-64 64-64l320 0c35.3 0 64 28.7 64 64l0 102-32 6.7 0-108.6c0-17.7-14.3-32-32-32zM353.6 202.3l26.3 40.6C372.4 253.4 368 266.3 368 280l0 3.5-41.3-63.8c-1.5-2.3-4-3.7-6.7-3.7s-5.2 1.4-6.7 3.7l-45.6 70.4c-2.9 4.5-7.8 7.2-13.1 7.3s-10.3-2.5-13.4-6.8l-10.6-15.2c-1.5-2.1-3.9-3.4-6.6-3.4s-5.1 1.3-6.6 3.4l-56 80c-1.7 2.4-1.9 5.6-.5 8.3S165 368 168 368l200 0 0 17.2c-15.2 2.1-30 7.2-43.3 14.8L168 400c-14.9 0-28.6-8.3-35.5-21.5s-5.8-29.2 2.7-41.4l56-80c7.5-10.7 19.7-17.1 32.8-17.1 11.3 0 22 4.8 29.6 13.1l32.9-50.8c7.4-11.4 20-18.3 33.6-18.3s26.2 6.9 33.6 18.3zM192 144a16 16 0 1 0 0 32 16 16 0 1 0 0-32zm48 16a48 48 0 1 1 -96 0 48 48 0 1 1 96 0zm400 79.9l0 216.1c0 30.7-28.4 56-64 56s-64-25.3-64-56 28.4-56 64-56c11.7 0 22.6 2.7 32 7.5l0-67.9-160 33.3 0 115.1c0 30.7-28.4 56-64 56s-64-25.3-64-56 28.4-56 64-56c11.7 0 22.6 2.7 32 7.5l0-159.6c0-7.6 5.3-14.1 12.7-15.7l192-40c4.7-1 9.6 .2 13.4 3.2s5.9 7.6 5.9 12.4zm-32 67l0-47.3-160 33.3 0 47.3 160-33.3zM352 487.9c0 9.6 10.4 24 32 24s32-14.4 32-24-10.4-24-32-24-32 14.4-32 24zm224-56c-21.6 0-32 14.4-32 24s10.4 24 32 24 32-14.4 32-24-10.4-24-32-24z"/></svg>