<svg xmlns="http://www.w3.org/2000/svg" viewBox="0 0 512 512"><!--! Font Awesome Pro 7.0.0 by @fontawesome - https://fontawesome.com License - https://fontawesome.com/license (Commercial License) Copyright 2025 Fonticons, Inc. --><path fill="currentColor" d="M97.5 64C81.6 64 68.1 75.6 65.8 91.3L34.5 304 135.4 304c10.7 0 20.7 5.3 26.6 14.2l22.5 33.8 142.9 0 22.5-33.8c5.9-8.9 15.9-14.2 26.6-14.2l100.9 0-31.3-212.7C443.9 75.6 430.4 64 414.5 64L97.5 64zM32 416c0 17.7 14.3 32 32 32l384 0c17.7 0 32-14.3 32-32l0-80-103.4 0-22.5 33.8c-5.9 8.9-15.9 14.2-26.6 14.2l-142.9 0c-10.7 0-20.7-5.3-26.6-14.2L135.4 336 32 336 32 416zM34.1 86.7C38.8 55.3 65.7 32 97.5 32l317.1 0c31.7 0 58.7 23.3 63.3 54.7l33.5 227.5c.5 3.1 .7 6.2 .7 9.3l0 92.5c0 35.3-28.7 64-64 64L64 480c-35.3 0-64-28.7-64-64l0-92.5c0-3.1 .2-6.2 .7-9.3L34.1 86.7zM339.3 227.3l-72 72c-6.2 6.2-16.4 6.2-22.6 0l-72-72c-6.2-6.2-6.2-16.4 0-22.6s16.4-6.2 22.6 0L240 249.4 240 128c0-8.8 7.2-16 16-16s16 7.2 16 16l0 121.4 44.7-44.7c6.2-6.2 16.4-6.2 22.6 0s6.2 16.4 0 22.6z"/></svg>