<svg xmlns="http://www.w3.org/2000/svg" viewBox="0 0 512 512"><!--! Font Awesome Pro 7.0.0 by @fontawesome - https://fontawesome.com License - https://fontawesome.com/license (Commercial License) Copyright 2025 Fonticons, Inc. --><path fill="currentColor" d="M32 80c0-8.8 7.2-16 16-16l64 0c8.8 0 16 7.2 16 16l0 149.3c0 5.9 3.2 11.3 8.5 14.1s11.5 2.5 16.4-.8l138.7-92.5c5.3-3.5 12.4 .3 12.4 6.7l0 81.9c0 6 3.4 11.5 8.7 14.2s11.8 2.3 16.6-1.3l138-99.3c5.3-3.8 12.7 0 12.7 6.5L480 416c0 17.7-14.3 32-32 32L64 448c-17.7 0-32-14.3-32-32L32 80zM48 32C21.5 32 0 53.5 0 80L0 416c0 35.3 28.7 64 64 64l384 0c35.3 0 64-28.7 64-64l0-257.1c0-32.6-36.9-51.5-63.4-32.5l-112.6 81.1 0-50.6c0-31.9-35.6-51-62.2-33.3L160 199.4 160 80c0-26.5-21.5-48-48-48L48 32zm56 272c-13.3 0-24 10.7-24 24l0 48c0 13.3 10.7 24 24 24l48 0c13.3 0 24-10.7 24-24l0-48c0-13.3-10.7-24-24-24l-48 0zm104 24l0 48c0 13.3 10.7 24 24 24l48 0c13.3 0 24-10.7 24-24l0-48c0-13.3-10.7-24-24-24l-48 0c-13.3 0-24 10.7-24 24zm32 40l0-32 32 0 0 32-32 0zm120-64c-13.3 0-24 10.7-24 24l0 48c0 13.3 10.7 24 24 24l48 0c13.3 0 24-10.7 24-24l0-48c0-13.3-10.7-24-24-24l-48 0zm40 64l-32 0 0-32 32 0 0 32zm-288 0l0-32 32 0 0 32-32 0z"/></svg>