<svg xmlns="http://www.w3.org/2000/svg" viewBox="0 0 512 512"><!--! Font Awesome Pro 7.0.0 by @fontawesome - https://fontawesome.com License - https://fontawesome.com/license (Commercial License) Copyright 2025 Fonticons, Inc. --><path fill="currentColor" d="M336 0l0 48-80 0 0-48 80 0zM256 80l96 0c8.8 0 16-7.2 16-16l0-80c0-8.8-7.2-16-16-16L240-32c-8.8 0-16 7.2-16 16l0 144-176 0c-8.8 0-16 7.2-16 16s7.2 16 16 16l16 0 0 240-16 0c-8.8 0-16 7.2-16 16s7.2 16 16 16l416 0c8.8 0 16-7.2 16-16s-7.2-16-16-16l-16 0 0-240 16 0c8.8 0 16-7.2 16-16s-7.2-16-16-16l-208 0 0-48zm160 80l0 240-80 0 0-240 80 0zm-208 0l96 0 0 240-96 0 0-240zm-32 0l0 240-80 0 0-240 80 0zM0 496c0 8.8 7.2 16 16 16l480 0c8.8 0 16-7.2 16-16s-7.2-16-16-16L16 480c-8.8 0-16 7.2-16 16z"/></svg>