<svg xmlns="http://www.w3.org/2000/svg" viewBox="0 0 512 512"><!--! Font Awesome Pro 7.0.0 by @fontawesome - https://fontawesome.com License - https://fontawesome.com/license (Commercial License) Copyright 2025 Fonticons, Inc. --><path fill="currentColor" d="M498.5 .3C506 1.8 511.4 8.4 511.4 16l0 194.1c0 127.4-100.8 231.3-226.5 237.7l-12.2 .3c-89.3 0-163.7-66.6-175.1-153-40 32.3-65.5 81.7-65.5 137l0 32c0 8.8-7.2 16-16 16S0 472.8 0 464l0-32c0-73.9 38.7-138.8 96.7-175.7 7.9-89.9 83.4-160.3 175.3-160.3 88.6 0 141-23.2 170.9-44.9 15-10.9 24.6-21.8 30.4-29.6 2.9-3.9 4.8-7.1 6-9.2 .6-1 1-1.8 1.2-2.2l.2-.4c3-7 10.4-10.9 17.9-9.4zM479.4 62.4c-5.1 4.7-10.9 9.7-17.6 14.5-33.8 24.6-88 48-172.4 50.8l-17.3 .3-7.4 .2C188.5 132 128 195 128 272 128 351.5 193 416 272.6 416l10.6-.3c108.9-5.5 196.2-95.6 196.2-205.7l0-147.7zM265.5 176.3c14.3 1.4 27.8 7.5 38.5 17.2 12.3-11.2 28.4-17.6 45.1-17.6l2.9 0c35.3 0 64 28.7 64 64 0 35.3-23.1 64.5-45 84.6-16.8 15.4-34.7 27.2-46.5 34.2l-9.4 5.4c-6.1 3.3-13.2 3.7-19.6 1.2l-2.7-1.2c-9.1-4.9-33.5-19.1-55.9-39.6-20.5-18.8-42.1-45.7-44.7-78L192 240c0-35.3 28.7-64 64-64l2.9 0 6.6 .3zM256 208c-17.7 0-32 14.3-32 32l.2 4c1.7 20 15.6 39.7 34.5 57 16.8 15.5 35.4 27 45.4 32.7 10-5.7 28.5-17.2 45.4-32.7 20.1-18.5 34.6-39.7 34.6-61 0-17.7-14.3-32-32-32l-2.9 0c-8.1 0-15.9 2.8-22.1 7.9l-2.6 2.3-9.1 9.1c-3 3-7.1 4.7-11.3 4.7s-8.3-1.7-11.3-4.7l-9.1-9.1c-6.5-6.5-15.4-10.2-24.7-10.2l-2.9 0z"/></svg>