<svg xmlns="http://www.w3.org/2000/svg" viewBox="0 0 576 512"><!--! Font Awesome Pro 7.0.0 by @fontawesome - https://fontawesome.com License - https://fontawesome.com/license (Commercial License) Copyright 2025 Fonticons, Inc. --><path fill="currentColor" d="M27.3-27.2c-6.2-6.2-16.4-6.2-22.6 0s-6.2 16.4 0 22.6l544 544c6.2 6.2 16.4 6.2 22.6 0s6.2-16.4 0-22.6L405.5 351c6.4-9.5 13.9-18.5 21.8-26.8 32.7-34.4 52.7-80.9 52.7-132.1 0-106-86-192-192-192-63.6 0-120 30.9-154.9 78.6L27.3-27.2zM156 101.5c28.8-42 77.2-69.5 132-69.5 88.4 0 160 71.6 160 160 0 42.7-16.7 81.4-43.9 110.1-7.3 7.7-14.7 16.4-21.6 25.9L211 156.5c8.2-25.8 32.4-44.5 61-44.5 8.8 0 16-7.2 16-16s-7.2-16-16-16c-37.2 0-69.4 21.2-85.4 52.1L156 101.5zM96 192c0 51.2 20 97.7 52.7 132.1 23.6 24.9 43.3 55.3 43.3 89.6l0 18.3c0 44.2 35.8 80 80 80l32 0c40.8 0 74.5-30.6 79.4-70.1l-57.9-57.9-105.1 0c-8.1-33.3-28.6-61-48.5-81.9-27.2-28.7-43.9-67.4-43.9-110.1 0-1.8 0-3.6 .1-5.4l-29-29c-2 11.2-3.1 22.7-3.1 34.4zM224 432l0-16 128 0 0 16c0 26.5-21.5 48-48 48l-32 0c-26.5 0-48-21.5-48-48z"/></svg>