<svg xmlns="http://www.w3.org/2000/svg" viewBox="0 0 576 512"><!--! Font Awesome Pro 7.0.0 by @fontawesome - https://fontawesome.com License - https://fontawesome.com/license (Commercial License) Copyright 2025 Fonticons, Inc. --><path fill="currentColor" d="M279.4 2.5c5.3-3.4 12-3.4 17.3 0l112 72c7.4 4.8 9.6 14.7 4.8 22.1s-14.7 9.6-22.1 4.8l-7.4-4.7 0 63.3 16 0c8.8 0 16 7.2 16 16s-7.2 16-16 16l-9.6 0 57.6 288 16 0c8.8 0 16 7.2 16 16s-7.2 16-16 16l-352 0c-8.8 0-16-7.2-16-16s7.2-16 16-16l16 0 57.6-288-9.6 0c-8.8 0-16-7.2-16-16s7.2-16 16-16l16 0 0-63.3-7.3 4.7c-7.4 4.8-17.3 2.6-22.1-4.8s-2.6-17.3 4.8-22.1l112-72zM272 480l32 0 0-64c0-8.8-7.2-16-16-16s-16 7.2-16 16l0 64zm64 0l79.4 0-57.6-288-139.5 0-57.6 288 79.4 0 0-64c0-26.5 21.5-48 48-48s48 21.5 48 48l0 64zM352 76.2l-64-41.1-64 41.1 0 83.8 128 0 0-83.8zM39.2 17.7l64 32c7.9 4 11.1 13.6 7.2 21.5S96.8 82.3 88.8 78.3l-64-32c-7.9-4-11.1-13.6-7.2-21.5s13.6-11.1 21.5-7.2zm64 188.6l-64 32c-7.9 4-17.5 .7-21.5-7.2s-.7-17.5 7.2-21.5l64-32c7.9-4 17.5-.7 21.5 7.2s.7 17.5-7.2 21.5zM558.3 24.8c4 7.9 .7 17.5-7.2 21.5l-64 32c-7.9 4-17.5 .7-21.5-7.2s-.7-17.5 7.2-21.5l64-32c7.9-4 17.5-.7 21.5 7.2zm-92.6 160c4-7.9 13.6-11.1 21.5-7.2l64 32c7.9 4 11.1 13.6 7.2 21.5s-13.6 11.1-21.5 7.2l-64-32c-7.9-4-11.1-13.6-7.2-21.5z"/></svg>