<svg xmlns="http://www.w3.org/2000/svg" viewBox="0 0 576 512"><!--! Font Awesome Pro 7.0.0 by @fontawesome - https://fontawesome.com License - https://fontawesome.com/license (Commercial License) Copyright 2025 Fonticons, Inc. --><path fill="currentColor" d="M536.2 5.4c20.2-5 39.8 10.2 39.8 31l0 95c0 14.7-10 27.5-24.2 31L448 188.5 448 400c0 53-50.1 96-112 96s-112-43-112-96 50.1-96 112-96c31.3 0 59.7 11 80 28.8l0-272.3c0-14.7 10-27.5 24.2-31l96-24zM336 336c-49 0-80 33.1-80 64s31 64 80 64 80-33.1 80-64-31-64-80-64zM448 155.5l96-24 0-95-96 24 0 95zM48 80l288 0c8.8 0 16 7.2 16 16s-7.2 16-16 16L48 112c-8.8 0-16-7.2-16-16s7.2-16 16-16zm0 160l160 0c8.8 0 16 7.2 16 16s-7.2 16-16 16L48 272c-8.8 0-16-7.2-16-16s7.2-16 16-16zm0 160l112 0c8.8 0 16 7.2 16 16s-7.2 16-16 16L48 432c-8.8 0-16-7.2-16-16s7.2-16 16-16z"/></svg>