<svg xmlns="http://www.w3.org/2000/svg" viewBox="0 0 512 512"><!--! Font Awesome Pro 7.0.0 by @fontawesome - https://fontawesome.com License - https://fontawesome.com/license (Commercial License) Copyright 2025 Fonticons, Inc. --><path fill="currentColor" d="M214.6 16L416 16c17.7 0 32 14.3 32 32l0 64c0 17.7-14.3 32-32 32l-201.4 0c-8.5 0-16.6-3.4-22.6-9.4L148.7 91.3c-6.2-6.2-6.2-16.4 0-22.6L192 25.4c6-6 14.1-9.4 22.6-9.4zm0 32l-32 32 32 32 201.4 0 0-64-201.4 0zM56 104a24 24 0 1 1 0-48 24 24 0 1 1 0 48zm0 176a24 24 0 1 1 0-48 24 24 0 1 1 0 48zM32 432a24 24 0 1 1 48 0 24 24 0 1 1 -48 0zm182.6-64L416 368c17.7 0 32 14.3 32 32l0 64c0 17.7-14.3 32-32 32l-201.4 0c-8.5 0-16.6-3.4-22.6-9.4l-43.3-43.3c-6.2-6.2-6.2-16.4 0-22.6L192 377.4c6-6 14.1-9.4 22.6-9.4zm0 32l-32 32 32 32 201.4 0 0-64-201.4 0zM192 201.4c6-6 14.1-9.4 22.6-9.4L480 192c17.7 0 32 14.3 32 32l0 64c0 17.7-14.3 32-32 32l-265.4 0c-8.5 0-16.6-3.4-22.6-9.4l-43.3-43.3c-6.2-6.2-6.2-16.4 0-22.6L192 201.4zM480 224l-265.4 0-32 32 32 32 265.4 0 0-64z"/></svg>