<svg xmlns="http://www.w3.org/2000/svg" viewBox="0 0 384 512"><!--! Font Awesome Pro 7.0.0 by @fontawesome - https://fontawesome.com License - https://fontawesome.com/license (Commercial License) Copyright 2025 Fonticons, Inc. --><path fill="currentColor" d="M32 188.6C32 102.6 103.1 32 192 32s160 70.6 160 156.6c0 50.3-25.9 109.4-61.4 165.6-34 53.8-74 100.5-98.6 127.4-24.6-26.9-64.6-73.7-98.6-127.4-35.5-56.2-61.4-115.3-61.4-165.6zM192 0C86 0 0 84.4 0 188.6 0 307.9 120.2 450.9 170.4 505.4 182.2 518.2 201.8 518.2 213.6 505.4 263.8 450.9 384 307.9 384 188.6 384 84.4 298 0 192 0zm0 144c20.6 0 37.2 16.7 37.2 37.2 0 17.8-11 27-23.2 32.5-14.7 6.6-30.1 21.5-30.1 42.3 0 8.8 7.2 16 16 16s16-7.2 16-16c0-3.8 3.4-9.6 11.1-13.1 17.8-8 42.1-25.9 42.1-61.7 0-38.2-31-69.2-69.2-69.2s-69.2 31-69.2 69.2c0 8.8 7.2 16 16 16s16-7.2 16-16c0-20.6 16.7-37.2 37.2-37.2zm20 176a20 20 0 1 0 -40 0 20 20 0 1 0 40 0z"/></svg>