<svg xmlns="http://www.w3.org/2000/svg" viewBox="0 0 384 512"><!--! Font Awesome Pro 7.0.0 by @fontawesome - https://fontawesome.com License - https://fontawesome.com/license (Commercial License) Copyright 2025 Fonticons, Inc. --><path fill="currentColor" d="M32 188.6C32 102.6 103.1 32 192 32s160 70.6 160 156.6c0 50.3-25.9 109.4-61.4 165.6-34 53.8-74 100.5-98.6 127.4-24.6-26.9-64.6-73.7-98.6-127.4-35.5-56.2-61.4-115.3-61.4-165.6zM192 0C86 0 0 84.4 0 188.6 0 307.9 120.2 450.9 170.4 505.4 182.2 518.2 201.8 518.2 213.6 505.4 263.8 450.9 384 307.9 384 188.6 384 84.4 298 0 192 0zM124.7 124.7c-6.2 6.2-6.2 16.4 0 22.6l44.7 44.7-44.7 44.7c-6.2 6.2-6.2 16.4 0 22.6s16.4 6.2 22.6 0l44.7-44.7 44.7 44.7c6.2 6.2 16.4 6.2 22.6 0s6.2-16.4 0-22.6l-44.7-44.7 44.7-44.7c6.2-6.2 6.2-16.4 0-22.6s-16.4-6.2-22.6 0l-44.7 44.7-44.7-44.7c-6.2-6.2-16.4-6.2-22.6 0z"/></svg>