<svg xmlns="http://www.w3.org/2000/svg" viewBox="0 0 576 512"><!--! Font Awesome Pro 7.0.0 by @fontawesome - https://fontawesome.com License - https://fontawesome.com/license (Commercial License) Copyright 2025 Fonticons, Inc. --><path fill="currentColor" d="M27.3-27.2c-6.2-6.2-16.4-6.2-22.6 0s-6.2 16.4 0 22.6l544 544c6.2 6.2 16.4 6.2 22.6 0s6.2-16.4 0-22.6l-167-167 105.5-274.3c4.5-11.8 1.7-25.2-7.2-34.1s-22.3-11.8-34.1-7.2L194.2 139.6 27.3-27.2zM218.9 164.4L480 64 379.6 325.1 218.9 164.4zM52.5 194.1C39.9 199 31.7 211.2 32 224.7s9.1 25.4 21.9 29.6l176.8 58.9 58.9 176.8c4.3 12.8 16.1 21.6 29.6 21.9s25.7-7.9 30.6-20.5l23.1-60-24.8-24.8-28.2 73.3-50.7-152.2-53-53-152.2-50.7 73.3-28.2-24.8-24.8-60 23.1z"/></svg>