<svg xmlns="http://www.w3.org/2000/svg" viewBox="0 0 576 512"><!--! Font Awesome Pro 7.0.0 by @fontawesome - https://fontawesome.com License - https://fontawesome.com/license (Commercial License) Copyright 2025 Fonticons, Inc. --><path fill="currentColor" d="M304 16c0-8.8-7.2-16-16-16s-16 7.2-16 16l0 166.9-48 28.8 0-135.4C224 51.9 204.1 32 179.6 32l-.8 0c-12 0-23.4 5.1-31.4 13.9L134.8 59.8C48.1 155.1 0 279.4 0 408.4l0 5.4c0 54.3 44 98.3 98.3 98.3 19.4 0 38.4-5.7 54.5-16.5L167 486c35.6-23.7 57-63.7 57-106.5l0-130.4 64-38.4 64 38.4 0 130.4c0 42.8 21.4 82.8 57 106.5l14.2 9.5c16.1 10.8 35.1 16.5 54.5 16.5 54.3 0 98.3-44 98.3-98.3l0-5.4c0-128.9-48.1-253.2-134.8-348.6L428.6 45.9C420.6 37.1 409.2 32 397.2 32l-.8 0C371.9 32 352 51.9 352 76.4l0 135.4-48-28.8 0-166.9zM192 230.9l-72.2 43.3c-7.6 4.5-10 14.4-5.5 21.9s14.4 10 22 5.5l55.8-33.5 0 111.2c0 32.1-16 62.1-42.7 79.9L135 468.9c-10.9 7.3-23.7 11.1-36.7 11.1-36.6 0-66.3-29.7-66.3-66.3l0-5.4c0-121 45.1-237.6 126.5-327.1L171 67.4c2-2.2 4.8-3.4 7.8-3.4l.8 0c6.8 0 12.4 5.5 12.4 12.4l0 154.6zM384 379.5l0-111.2 55.8 33.5c7.6 4.5 17.4 2.1 22-5.5s2.1-17.4-5.5-21.9L384 230.9 384 76.4c0-6.8 5.5-12.4 12.4-12.4l.8 0c3 0 5.8 1.2 7.8 3.4l12.6 13.8C498.9 170.8 544 287.4 544 408.4l0 5.4c0 36.6-29.7 66.3-66.3 66.3-13.1 0-25.9-3.9-36.7-11.1l-14.2-9.5C400 441.6 384 411.6 384 379.5z"/></svg>