<svg xmlns="http://www.w3.org/2000/svg" viewBox="0 0 512 512"><!--! Font Awesome Pro 7.0.0 by @fontawesome - https://fontawesome.com License - https://fontawesome.com/license (Commercial License) Copyright 2025 Fonticons, Inc. --><path fill="currentColor" d="M480 256a224 224 0 1 0 -448 0 224 224 0 1 0 448 0zM0 256a256 256 0 1 1 512 0 256 256 0 1 1 -512 0zm112 0c0 60.2 37 111.9 89.6 133.4 14.3-13.2 33.4-21.4 54.4-21.4s40.2 8.1 54.4 21.4C363 367.9 400 316.2 400 256s-37-111.9-89.6-133.4C296.2 135.9 277 144 256 144s-40.2-8.1-54.4-21.4C149 144.1 112 195.8 112 256zm-32 0c0-77.8 50.5-143.9 120.6-167.1 7.1-2.4 14.6 1.4 19.6 7 8.8 9.9 21.6 16.1 35.8 16.1s27-6.2 35.8-16.1c5-5.6 12.4-9.4 19.6-7 70.1 23.2 120.6 89.3 120.6 167.1S381.5 399.9 311.4 423.1c-7.1 2.4-14.6-1.4-19.6-7-8.8-9.9-21.6-16.1-35.8-16.1s-27 6.2-35.8 16.1c-5 5.6-12.4 9.4-19.6 7-70.1-23.2-120.6-89.3-120.6-167.1zm160-40a24 24 0 1 1 -48 0 24 24 0 1 1 48 0zM216 320a24 24 0 1 1 0-48 24 24 0 1 1 0 48zM320 216a24 24 0 1 1 -48 0 24 24 0 1 1 48 0zM296 320a24 24 0 1 1 0-48 24 24 0 1 1 0 48z"/></svg>