<svg xmlns="http://www.w3.org/2000/svg" viewBox="0 0 512 512"><!--! Font Awesome Pro 7.0.0 by @fontawesome - https://fontawesome.com License - https://fontawesome.com/license (Commercial License) Copyright 2025 Fonticons, Inc. --><path fill="currentColor" d="M16 32C9.7 32 3.9 35.7 1.4 41.5S-.1 54.1 4.2 58.8l83.8 92.2 0 9 8.2 0 143.8 158.2 0 161.8-96 0c-8.8 0-16 7.2-16 16s7.2 16 16 16l224 0c8.8 0 16-7.2 16-16s-7.2-16-16-16l-96 0 0-161.8 143.8-158.2 8.2 0 0-9 83.8-92.2c4.3-4.7 5.4-11.4 2.8-17.2S502.3 32 496 32L16 32zm385.7 96l-291.3 0-58.2-64 407.7 0-58.2 64zM139.4 160L372.6 160 256 288.2 139.4 160z"/></svg>