<svg xmlns="http://www.w3.org/2000/svg" viewBox="0 0 512 512"><!--! Font Awesome Pro 7.0.0 by @fontawesome - https://fontawesome.com License - https://fontawesome.com/license (Commercial License) Copyright 2025 Fonticons, Inc. --><path fill="currentColor" d="M179.2 533.6s0 0 0 0l-6.4 4.8c-4.8 3.6-10.7 5.6-16.8 5.6-15.5 0-28-12.5-28-28l0-68-32 0c-53 0-96-43-96-96L0 128C0 75 43 32 96 32l320 0c53 0 96 43 96 96l0 224c0 53-43 96-96 96l-120 0c-1.7 0-3.4 .6-4.8 1.6l-112 84zM160 468l0 40 112-84c6.9-5.2 15.3-8 24-8l120 0c35.3 0 64-28.7 64-64l0-224c0-35.3-28.7-64-64-64L96 64c-35.3 0-64 28.7-64 64l0 224c0 35.3 28.7 64 64 64l40 0c13.3 0 24 10.7 24 24l0 28zM296 128l24 0c8.8 0 16 7.2 16 16s-7.2 16-16 16l-16 0 0 112-.1-.1c.1 1.3 .1 2.7 .1 4.1 0 33.1-28.7 60-64 60s-64-26.9-64-60 28.7-60 64-60c11.7 0 22.6 2.9 32 8l0-72c0-13.3 10.7-24 24-24zM272 276c0-13.5-12.3-28-32-28s-32 14.5-32 28 12.4 28 32 28 32-14.5 32-28z"/></svg>