<svg xmlns="http://www.w3.org/2000/svg" viewBox="0 0 512 512"><!--! Font Awesome Pro 7.0.0 by @fontawesome - https://fontawesome.com License - https://fontawesome.com/license (Commercial License) Copyright 2025 Fonticons, Inc. --><path fill="currentColor" d="M512 384c0 53-43 96-96 96L96 480c-53 0-96-43-96-96L0 160c0-53 43-96 96-96l68 0c2.5 0 4.9-1.2 6.4-3.2l60-80c6-8.1 15.5-12.8 25.6-12.8s19.6 4.7 25.6 12.8L344 64 416 64c53 0 96 43 96 96l0 224zm-96 64c35.3 0 64-28.7 64-64l0-224c0-35.3-28.7-64-64-64l-76 0c-7.6 0-14.7-3.6-19.2-9.6L256 0 196 80c-7.6 10.1-19.4 16-32 16L96 96c-35.3 0-64 28.7-64 64l0 224c0 35.3 28.7 64 64 64l320 0z"/></svg>