<svg xmlns="http://www.w3.org/2000/svg" viewBox="0 0 576 512"><!--! Font Awesome Pro 7.0.1 by @fontawesome - https://fontawesome.com License - https://fontawesome.com/license (Commercial License) Copyright 2025 Fonticons, Inc. --><path fill="currentColor" d="M512 96c17.7 0 32 14.3 32 32l0 256c0 17.7-14.3 32-32 32L64 416c-17.7 0-32-14.3-32-32l0-256c0-17.7 14.3-32 32-32l448 0zM480 448l0 16c0 8.8 7.2 16 16 16s16-7.2 16-16l0-16c35.3 0 64-28.7 64-64l0-256c0-35.3-28.7-64-64-64L64 64C28.7 64 0 92.7 0 128L0 384c0 35.3 28.7 64 64 64l0 16c0 8.8 7.2 16 16 16s16-7.2 16-16l0-16 384 0zM448 176l0 160c0 8.8 7.2 16 16 16s16-7.2 16-16l0-160c0-8.8-7.2-16-16-16s-16 7.2-16 16zM128 320l0-128 224 0 0 128-224 0zM96 184l0 144c0 13.3 10.7 24 24 24l240 0c13.3 0 24-10.7 24-24l0-144c0-13.3-10.7-24-24-24l-240 0c-13.3 0-24 10.7-24 24z"/></svg>