<svg xmlns="http://www.w3.org/2000/svg" viewBox="0 0 512 512"><!--! Font Awesome Pro 7.0.0 by @fontawesome - https://fontawesome.com License - https://fontawesome.com/license (Commercial License) Copyright 2025 Fonticons, Inc. --><path fill="currentColor" d="M320 52.3c0-20.1 19.3-36.5 39.6-30.2l4.1 1.6 8.1 3.9C455 69.9 512 156.3 512 256 512 397.4 397.4 512 256 512S0 397.4 0 256C0 153.1 60.8 64.4 148.3 23.7l4.1-1.6c20.3-6.4 39.6 10 39.6 30.2l0 59.7 .3 3.2c1.5 7.3 8 12.8 15.7 12.8l96 0 3.2-.3c7.3-1.5 12.8-8 12.8-15.7l0-59.7zM352 112l-.2 4.9c-2.3 22.6-20.3 40.6-42.8 42.8l-4.9 .2-96 0c-24.9 0-45.3-18.9-47.8-43.1l-.2-4.9 0-58.4C84.3 89.6 32 166.7 32 256 32 379.7 132.3 480 256 480S480 379.7 480 256c0-89.3-52.3-166.4-128-202.4l0 58.4zM256 432a24 24 0 1 1 0-48 24 24 0 1 1 0 48zm-90.5-51.6a24 24 0 1 1 -33.9-33.9 24 24 0 1 1 33.9 33.9zm214.9 0a24 24 0 1 1 -33.9-33.9 24 24 0 1 1 33.9 33.9zM104 280a24 24 0 1 1 0-48 24 24 0 1 1 0 48zm304 0a24 24 0 1 1 0-48 24 24 0 1 1 0 48z"/></svg>