<svg xmlns="http://www.w3.org/2000/svg" viewBox="0 0 576 512"><!--! Font Awesome Pro 7.0.0 by @fontawesome - https://fontawesome.com License - https://fontawesome.com/license (Commercial License) Copyright 2025 Fonticons, Inc. --><path fill="currentColor" d="M53.2 340.7c5.5-5.5 13.9-6.2 20.1-2.1l2.5 2.1 48 48 2.1 2.5c4.1 6.2 3.4 14.7-2.1 20.1s-13.9 6.2-20.1 2.1l-2.5-2.1-20.7-20.7 0 25.4c0 44.2 35.8 80 80 80 22.6 0 42.9-9.4 57.5-24.5l22.7 22.7c-20.3 20.9-48.7 33.8-80.2 33.8-61.9 0-112-50.1-112-112l0-25.4-20.7 20.7c-6.2 6.2-16.4 6.2-22.6 0s-6.2-16.4 0-22.6l48-48zM184.1 14.3c25.1-20.5 62.2-19 85.7 4.4l256 256 4.4 4.8c20.5 25.1 19 62.2-4.4 85.7l-128 128c-23.4 23.4-60.5 24.9-85.7 4.4l-4.8-4.4-256-256c-25-25-25-65.5 0-90.5l128-128 4.8-4.4zm63 27c-11.6-11.6-30.1-12.4-42.6-2.4l-3.1 2.8-127.6 127.6c-12.5 12.5-12.5 32.8 0 45.2l255.6 255.6 3.1 2.8c12.5 10.1 30.9 9.3 42.6-2.4l128-128 2.1-2.3c9.6-11.6 9.7-28.4 .5-40.2L502.7 297 247.1 41.4zM407.7 322.6c6.2-4.1 14.7-3.4 20.1 2.1s6.2 13.9 2.1 20.1l-2.1 2.5-48 48c-6.2 6.2-16.4 6.2-22.6 0s-6.2-16.4 0-22.6l48-48 2.5-2.1zM416.5-16c61.9 0 112 50.1 112 112l0 25.4 20.7-20.7c6.2-6.2 16.4-6.2 22.6 0s6.2 16.4 0 22.6l-48 48c-5.5 5.5-13.9 6.2-20.1 2.1l-2.5-2.1-48-48-2.1-2.5c-4.1-6.2-3.4-14.7 2.1-20.1s13.9-6.2 20.1-2.1l2.5 2.1 20.7 20.7 0-25.4c0-44.2-35.8-80-80-80-22.6 0-42.9 9.4-57.5 24.5L336.3 17.8C356.7-3 385.1-16 416.5-16z"/></svg>