<svg xmlns="http://www.w3.org/2000/svg" viewBox="0 0 512 512"><!--! Font Awesome Pro 7.0.0 by @fontawesome - https://fontawesome.com License - https://fontawesome.com/license (Commercial License) Copyright 2025 Fonticons, Inc. --><path fill="currentColor" d="M64 96c-17.7 0-32 14.3-32 32l0 128 112 0c5.6 0 10.8 2.9 13.7 7.8l32.3 53.9 67.4-148.3c2.6-5.6 8.1-9.3 14.3-9.4s11.8 3.3 14.6 8.8l43.6 87.2 70.1 0c8.8 0 16 7.2 16 16s-7.2 16-16 16l-80 0c-6.1 0-11.6-3.4-14.3-8.8l-33-66-66.1 145.5c-2.5 5.4-7.7 9-13.7 9.4s-11.6-2.6-14.6-7.7L134.9 288 32 288 32 384c0 17.7 14.3 32 32 32l384 0c17.7 0 32-14.3 32-32l0-256c0-17.7-14.3-32-32-32L64 96zM0 128C0 92.7 28.7 64 64 64l384 0c35.3 0 64 28.7 64 64l0 256c0 35.3-28.7 64-64 64L64 448c-35.3 0-64-28.7-64-64L0 128z"/></svg>