<svg xmlns="http://www.w3.org/2000/svg" viewBox="0 0 512 512"><!--! Font Awesome Pro 7.0.0 by @fontawesome - https://fontawesome.com License - https://fontawesome.com/license (Commercial License) Copyright 2025 Fonticons, Inc. --><path fill="currentColor" d="M32 256c0 123.7 100.3 224 224 224 52.4 0 100.6-18 138.7-48.1-114.3-3.2-210.7-98.7-210.7-215.9 0-76.6 39.9-143.9 100-182.3-9.2-1.1-18.5-1.7-28-1.7-123.7 0-224 100.3-224 224zM0 256c0-141.4 114.6-256 256-256 19.4 0 38.4 2.2 56.7 6.3 9.9 2.2 17.3 10.5 18.5 20.5s-4 19.8-13.1 24.4c-60.6 30.2-102.1 92.7-102.1 164.8 0 106.1 93.4 191.8 198.8 183.4 10.1-.8 19.6 4.8 23.8 14.1s2 20.1-5.3 27.1C387.3 484.8 324.8 512 256 512 114.6 512 0 397.4 0 256zM416 128l0 64 64 0c8.8 0 16 7.2 16 16s-7.2 16-16 16l-64 0 0 64c0 8.8-7.2 16-16 16s-16-7.2-16-16l0-64-64 0c-8.8 0-16-7.2-16-16s7.2-16 16-16l64 0 0-64c0-8.8 7.2-16 16-16s16 7.2 16 16z"/></svg>