<svg xmlns="http://www.w3.org/2000/svg" viewBox="0 0 576 512"><!--! Font Awesome Pro 7.0.0 by @fontawesome - https://fontawesome.com License - https://fontawesome.com/license (Commercial License) Copyright 2025 Fonticons, Inc. --><path fill="currentColor" d="M288 9.7L420.5 120.5c17.4 14.6 27.5 36.1 27.5 58.8 0 42.3-34.3 76.7-76.7 76.7l-166.7 0c-42.3 0-76.7-34.3-76.7-76.7 0-22.7 10.1-44.3 27.5-58.8L288 9.7zM96 179.3c0 29.9 12.1 57 31.7 76.7l-95.7 0 0-48c0-8.8-7.2-16-16-16S0 199.2 0 208L0 448c0 35.3 28.7 64 64 64l448 0c35.3 0 64-28.7 64-64l0-236c0-11-9-20-20-20s-20 9-20 20l0 44-87.7 0c19.6-19.7 31.7-46.8 31.7-76.7 0-32.2-14.3-62.7-39-83.4L298.3-23.4c-5.9-5-14.6-5-20.5 0L135 96c-24.7 20.6-39 51.2-39 83.4zM536 288l8 0 0 160c0 17.7-14.3 32-32 32l-160 0 0-64c0-35.3-28.7-64-64-64s-64 28.7-64 64l0 64-160 0c-17.7 0-32-14.3-32-32l0-160 504 0zM256 416c0-17.7 14.3-32 32-32s32 14.3 32 32l0 64-64 0 0-64z"/></svg>