<svg xmlns="http://www.w3.org/2000/svg" viewBox="0 0 512 512"><!--! Font Awesome Pro 7.0.0 by @fontawesome - https://fontawesome.com License - https://fontawesome.com/license (Commercial License) Copyright 2025 Fonticons, Inc. --><path fill="currentColor" d="M379.4 36.6c6.2-3 13.2-4.6 20.6-4.6 26.5 0 48 21.5 48 48 0 9.6-2.8 18.6-7.7 26.1-12.5-5.5-26-8.9-40.3-9.8l0-.3c0-22.4-7.7-43-20.6-59.4zm88.2 86.2c7.8-12.4 12.4-27.1 12.4-42.8 0-44.2-35.8-80-80-80-16.9 0-32.7 5.3-45.6 14.3-14.6-9-31.9-14.3-50.4-14.3-53.1 0-96 43.4-96 96.3 0 25.7 10.2 49.8 27.5 67.5-79.7 16.8-139.5 87.5-139.5 172.2 0 18 6 34.6 16 48l-48 0c-35.3 0-64 28.7-64 64s28.7 64 64 64l400 0c8.8 0 16-7.2 16-16s-7.2-16-16-16L64 480c-17.7 0-32-14.3-32-32s14.3-32 32-32l292.1 0c24.2 0 43.9-19.7 43.9-43.9 0-18.9-12.1-35.7-30-41.6l-12.8-4.3 21.7-54.2 85.2 0c26.5 0 48-21.5 48-48l0-8c0-37.6-17.3-71.2-44.4-93.2zM176 384c-26.5 0-48-21.5-48-48 0-79.5 64.5-144 144-144l16 0c7.7 0 14.4-5.5 15.7-13.1s-2.9-15.1-10.1-17.8l-12.1-4.5c-24.9-9.3-41.5-33.4-41.5-60.2 0-35.4 28.7-64.3 64-64.3 35.3 0 64 28.7 64 64l0 16c0 8.8 7.2 16 16 16l8 0c48.6 0 88 39.4 88 88l0 8c0 8.8-7.2 16-16 16l-96 0c-6.5 0-12.4 4-14.9 10.1l-26.4 66-33.7-11.2c-8.4-2.8-17.4 1.7-20.2 10.1s1.7 17.4 10.1 20.2l76.9 25.6c4.9 1.6 8.1 6.2 8.1 11.3 0 6.6-5.3 11.9-11.9 11.9L176 384zM336 80c0-8.8-7.2-16-16-16s-16 7.2-16 16l0 16-16 0c-8.8 0-16 7.2-16 16s7.2 16 16 16l32 0c8.8 0 16-7.2 16-16l0-32zm96 108a20 20 0 1 0 -40 0 20 20 0 1 0 40 0z"/></svg>