<svg xmlns="http://www.w3.org/2000/svg" viewBox="0 0 576 512"><!--! Font Awesome Pro 7.0.0 by @fontawesome - https://fontawesome.com License - https://fontawesome.com/license (Commercial License) Copyright 2025 Fonticons, Inc. --><path fill="currentColor" d="M96 96l320 0 0 256c0 35.3-28.7 64-64 64l-192 0c-35.3 0-64-28.7-64-64L96 96zm352 0l16 0c44.2 0 80 35.8 80 80s-35.8 80-80 80l-16 0 0-160zm0 192l16 0c61.9 0 112-50.1 112-112S525.9 64 464 64L96 64C78.3 64 64 78.3 64 96l0 256c0 53 43 96 96 96l192 0c53 0 96-43 96-96l0-64z"/></svg>