<svg xmlns="http://www.w3.org/2000/svg" viewBox="0 0 512 512"><!--! Font Awesome Pro 7.0.0 by @fontawesome - https://fontawesome.com License - https://fontawesome.com/license (Commercial License) Copyright 2025 Fonticons, Inc. --><path fill="currentColor" d="M261.3 32.1c1.8 5 2.7 10.4 2.7 15.9 0 26.5-21.5 48-48 48-25.9 0-46.9-20.5-48-46.1 27-11.5 56.7-17.9 88-17.9 1.8 0 3.5 0 5.3 .1zM295 35.4c105.1 18.5 185 110.2 185 220.6 0 17.7-14.3 32-32 32L64 288c-17.7 0-32-14.3-32-32 0-80.4 42.3-150.9 105.9-190.4 8 35.7 39.9 62.4 78.1 62.4 44.2 0 80-35.8 80-80 0-4.3-.3-8.5-1-12.6zM64 320l116 0-15.5 124c-2.4 19.1 12.5 36 31.8 36l119.5 0c19.2 0 34.1-16.9 31.8-36L332 320 448 320c35.3 0 64-28.7 64-64 0-141.4-114.6-256-256-256S0 114.6 0 256c0 35.3 28.7 64 64 64zM196.2 448l16-128 87.5 0 16 128-119.5 0zM128 240a32 32 0 1 0 0-64 32 32 0 1 0 0 64zm240-80a16 16 0 1 1 0 32 16 16 0 1 1 0-32zm0 64a48 48 0 1 0 0-96 48 48 0 1 0 0 96z"/></svg>