<svg xmlns="http://www.w3.org/2000/svg" viewBox="0 0 384 512"><!--! Font Awesome Pro 7.0.0 by @fontawesome - https://fontawesome.com License - https://fontawesome.com/license (Commercial License) Copyright 2025 Fonticons, Inc. --><path fill="currentColor" d="M384 36.5c0-20.8-19.6-36.1-39.8-31l-96 24C234 33 224 45.8 224 60.5l0 272.3c-20.3-17.8-48.7-28.8-80-28.8-61.9 0-112 43-112 96s50.1 96 112 96 112-43 112-96l0-211.5 103.8-25.9c14.2-3.6 24.2-16.4 24.2-31l0-95zM224 400c0 30.9-31 64-80 64s-80-33.1-80-64 31-64 80-64 80 33.1 80 64zM352 131.5l-96 24 0-95 96-24 0 95z"/></svg>