<svg xmlns="http://www.w3.org/2000/svg" viewBox="0 0 448 512"><!--! Font Awesome Pro 7.0.0 by @fontawesome - https://fontawesome.com License - https://fontawesome.com/license (Commercial License) Copyright 2025 Fonticons, Inc. --><path fill="currentColor" d="M93.2 38.9c-4-5.8-11.2-8.3-17.9-6.2S64 41 64 48l0 208-48 0c-8.8 0-16 7.2-16 16s7.2 16 16 16l48 0 0 176c0 8.8 7.2 16 16 16s16-7.2 16-16l0-176 130.7 0 128.2 185.1c4 5.8 11.2 8.3 17.9 6.2S384 471 384 464l0-176 48 0c8.8 0 16-7.2 16-16s-7.2-16-16-16l-48 0 0-208c0-8.8-7.2-16-16-16s-16 7.2-16 16l0 208-108.5 0-150.3-217.1zM265.6 288l86.4 0 0 124.8-86.4-124.8zm-61.1-32L96 256 96 99.2 204.5 256z"/></svg>