<svg xmlns="http://www.w3.org/2000/svg" viewBox="0 0 576 512"><!--! Font Awesome Pro 7.0.0 by @fontawesome - https://fontawesome.com License - https://fontawesome.com/license (Commercial License) Copyright 2025 Fonticons, Inc. --><path fill="currentColor" d="M416 64L96 64C78.3 64 64 78.3 64 96l0 320c0 17.7 14.3 32 32 32l209 0 2.3 32-211.3 0c-35.3 0-64-28.7-64-64L32 96c0-35.3 28.7-64 64-64l320 0c35.3 0 64 28.7 64 64l0 80-32 0 0-80c0-17.7-14.3-32-32-32zm-32 96l0 20.1c-12.5 4.4-23.6 12.2-32 22.6l0-42.7-80 0 0 50.7c12.1 4.3 21.9 13.2 27.4 24.7-16.6 11.6-27.4 30.8-27.4 52.5 0 4.4 .4 8.7 1.3 12.9-5.4 2.1-11.2 3.2-17.3 3.2-26.5 0-48-21.5-48-48 0-20.9 13.4-38.7 32-45.3l0-50.7c0-17.7 14.3-32 32-32l80 0c17.7 0 32 14.3 32 32zM300.5 384L160 384c-17.7 0-32-14.3-32-32l0-192c0-17.7 14.3-32 32-32l16 0c8.8 0 16 7.2 16 16s-7.2 16-16 16l-16 0 0 192 138.2 0 2.3 32zM412.9 256.1l-8 15.9 86 0-8-15.9-70.1 0zm-42.4 13.3l16-32c4.1-8.1 12.4-13.3 21.5-13.3l80 0c9.1 0 17.4 5.1 21.5 13.3l16 32c.4 .9 .8 1.7 1.1 2.6l33.4 0c8.8 0 16 7.2 16 16s-7.2 16-16 16l-53.9 0c-.7 .1-1.4 .1-2.1 .1l-112 0c-.7 0-1.4 0-2.1-.1L336 304c-8.8 0-16-7.2-16-16s7.2-16 16-16l33.4 0c.3-.9 .7-1.8 1.1-2.6zM357.9 514.3l-12.7-178.2 32.1 0 12.6 175.9 116.4 0 12.6-175.9 32.1 0-12.7 178.2C536.9 531 523 544 506.2 544l-116.4 0c-16.8 0-30.7-13-31.9-29.7z"/></svg>