<svg xmlns="http://www.w3.org/2000/svg" viewBox="0 0 384 512"><!--! Font Awesome Pro 7.0.0 by @fontawesome - https://fontawesome.com License - https://fontawesome.com/license (Commercial License) Copyright 2025 Fonticons, Inc. --><path fill="currentColor" d="M182.9 511.8C89.9 507.1 16 430.2 16 336l.2-9.1c4.4-87.7 73-158.4 159.8-166.2l0-53.3-59.4 34.2-2.9 1.3c-7.1 2.4-15.1-.5-18.9-7.2s-2.3-15.1 3.2-20l2.6-1.9 59.2-34.2-59.1-34.1-2.6-1.9c-5.6-4.9-7.1-13.3-3.2-20s11.8-9.6 18.9-7.2l2.9 1.3 59.2 34.2 0-68.2 .3-3.2c1.5-7.3 8-12.8 15.7-12.8s14.2 5.5 15.7 12.8l.3 3.2 0 68 58.9-34c7.7-4.4 17.4-1.8 21.8 5.9 3.9 6.7 2.4 15-3.2 20l-2.6 1.9-59.1 34.1 59.2 34.2c7.7 4.4 10.3 14.2 5.8 21.9-3.9 6.7-11.8 9.5-18.9 7.2l-2.9-1.3-59.1-34.1 0 53.1c86.7 7.8 155.3 78.5 159.8 166.2l.2 9.1c0 97.2-78.8 176-176 176l-9.1-.2zM192 480c79.5 0 144-64.5 144-144 0-77-60.5-140-136.6-143.8l-7.4-.2-7.4 .2C108.5 196 48 259 48 336 48 415.5 112.5 480 192 480z"/></svg>