<svg xmlns="http://www.w3.org/2000/svg" viewBox="0 0 384 512"><!--! Font Awesome Pro 7.0.0 by @fontawesome - https://fontawesome.com License - https://fontawesome.com/license (Commercial License) Copyright 2025 Fonticons, Inc. --><path fill="currentColor" d="M32 452.5L172.3 256 32 59.5 32 452.5zM51.7 480L332.3 480 192 283.5 51.7 480zm160-224L352 452.5 352 59.5 211.7 256zM332.3 32L51.7 32 192 228.5 332.3 32zM0 48C0 21.5 21.5 0 48 0L336 0c26.5 0 48 21.5 48 48l0 416c0 26.5-21.5 48-48 48L48 512c-26.5 0-48-21.5-48-48L0 48z"/></svg>