<svg xmlns="http://www.w3.org/2000/svg" viewBox="0 0 576 512"><!--! Font Awesome Pro 7.0.0 by @fontawesome - https://fontawesome.com License - https://fontawesome.com/license (Commercial License) Copyright 2025 Fonticons, Inc. --><path fill="currentColor" d="M32 64a32 32 0 1 1 64 0 32 32 0 1 1 -64 0zm48 62c22.5-5.8 40.2-23.5 46-46l324 0c5.8 22.5 23.5 40.2 46 46l0 260c-22.5 5.8-40.2 23.5-46 46l-324 0c-5.8-22.5-23.5-40.2-46-46l0-260zM512 0c-29.8 0-54.9 20.4-62 48L126 48C118.9 20.4 93.8 0 64 0 28.7 0 0 28.7 0 64 0 93.8 20.4 118.9 48 126l0 260c-27.6 7.1-48 32.2-48 62 0 35.3 28.7 64 64 64 29.8 0 54.9-20.4 62-48l324 0c7.1 27.6 32.2 48 62 48 35.3 0 64-28.7 64-64 0-29.8-20.4-54.9-48-62l0-260c27.6-7.1 48-32.2 48-62 0-35.3-28.7-64-64-64zM480 64a32 32 0 1 1 64 0 32 32 0 1 1 -64 0zM64 416a32 32 0 1 1 0 64 32 32 0 1 1 0-64zm416 32a32 32 0 1 1 64 0 32 32 0 1 1 -64 0zM288 160l0 80-128 0 0-80 128 0zM160 128c-17.7 0-32 14.3-32 32l0 80c0 17.7 14.3 32 32 32l128 0c17.7 0 32-14.3 32-32l0-80c0-17.7-14.3-32-32-32l-128 0zM272 320l0 32c0 17.7 14.3 32 32 32l112 0c17.7 0 32-14.3 32-32l0-80c0-17.7-14.3-32-32-32l-48 0c0 11.4-2.4 22.2-6.7 32l54.7 0 0 80-112 0 0-33.6c-5.2 1-10.5 1.6-16 1.6l-16 0z"/></svg>