<svg xmlns="http://www.w3.org/2000/svg" viewBox="0 0 512 512"><!--! Font Awesome Pro 7.0.0 by @fontawesome - https://fontawesome.com License - https://fontawesome.com/license (Commercial License) Copyright 2025 Fonticons, Inc. --><path fill="currentColor" d="M14.6 364.4c-9-9-14.1-21.2-14.1-33.9l0-148.8c0-12.7 5.1-24.9 14.1-33.9L148.1 14.1c9-9 21.2-14.1 33.9-14.1l148.8 0c12.7 0 24.9 5.1 33.9 14.1L498.3 147.6c9 9 14.1 21.2 14.1 33.9l0 148.8c0 12.7-5.1 24.9-14.1 33.9L364.8 497.9c-9 9-21.2 14.1-33.9 14.1l-148.8 0c-12.7 0-24.9-5.1-33.9-14.1L14.6 364.4zM170.7 36.8L37.2 170.3c-3 3-4.7 7.1-4.7 11.3l0 148.8c0 4.2 1.7 8.3 4.7 11.3L170.7 475.2c3 3 7.1 4.7 11.3 4.7l148.8 0c4.2 0 8.3-1.7 11.3-4.7L475.7 341.7c3-3 4.7-7.1 4.7-11.3l0-148.8c0-4.2-1.7-8.3-4.7-11.3L342.2 36.8c-3-3-7.1-4.7-11.3-4.7L182 32.1c-4.2 0-8.3 1.7-11.3 4.7z"/></svg>