<svg xmlns="http://www.w3.org/2000/svg" viewBox="0 0 512 512"><!--! Font Awesome Pro 7.0.0 by @fontawesome - https://fontawesome.com License - https://fontawesome.com/license (Commercial License) Copyright 2025 Fonticons, Inc. --><path fill="currentColor" d="M.5 330.4c0 12.7 5.1 24.9 14.1 33.9L148.1 497.9c9 9 21.2 14.1 33.9 14.1l148.8 0c12.7 0 24.9-5.1 33.9-14.1L498.3 364.4c9-9 14.1-21.2 14.1-33.9l0-148.8c0-12.7-5.1-24.9-14.1-33.9L364.8 14.1c-9-9-21.2-14.1-33.9-14.1L182 .1c-12.7 0-24.9 5.1-33.9 14.1L14.6 147.6c-9 9-14.1 21.2-14.1 33.9l0 148.8zM182 32.1l148.8 0c4.2 0 8.3 1.7 11.3 4.7L475.7 170.3c3 3 4.7 7.1 4.7 11.3l0 148.8c0 4.2-1.7 8.3-4.7 11.3L342.2 475.2c-3 3-7.1 4.7-11.3 4.7l-148.8 0c-4.2 0-8.3-1.7-11.3-4.7L37.2 341.7c-3-3-4.7-7.1-4.7-11.3l0-148.8c0-4.2 1.7-8.3 4.7-11.3L170.7 36.8c3-3 7.1-4.7 11.3-4.7zM165.1 164.7c-6.2 6.2-6.2 16.4 0 22.6l68.7 68.7-68.7 68.7c-6.2 6.2-6.2 16.4 0 22.6s16.4 6.2 22.6 0l68.7-68.7 68.7 68.7c6.2 6.2 16.4 6.2 22.6 0s6.2-16.4 0-22.6l-68.7-68.7 68.7-68.7c6.2-6.2 6.2-16.4 0-22.6s-16.4-6.2-22.6 0l-68.7 68.7-68.7-68.7c-6.2-6.2-16.4-6.2-22.6 0z"/></svg>