<svg xmlns="http://www.w3.org/2000/svg" viewBox="0 0 576 512"><!--! Font Awesome Pro 7.0.0 by @fontawesome - https://fontawesome.com License - https://fontawesome.com/license (Commercial License) Copyright 2025 Fonticons, Inc. --><path fill="currentColor" d="M75.8 136.5C68.2 128.9 64 118.7 64 108s4.2-20.9 11.8-28.5l35.7-35.7C119.1 36.2 129.3 32 140 32s20.9 4.2 28.5 11.8l100.6 100.6 22.6-22.6-100.6-100.6C177.6 7.6 159.2 0 140 0S102.4 7.6 88.9 21.2L53.2 56.9C39.6 70.4 32 88.8 32 108s7.6 37.6 21.2 51.1l65 65c10.7-4.9 22-8.8 33.7-11.6L75.8 136.5zM351.9 457.5c9.8 8.4 21.4 14.6 33.9 18.1l127.8 35.5c8.3 2.3 17.3 0 23.4-6.2s8.5-15.1 6.2-23.4L507.6 353.8c-4.1-14.6-11.8-27.9-22.6-38.7l-30.8-30.8-22.6 22.6 30.8 30.8c6.8 6.8 11.8 15.3 14.4 24.6l31.7 114.1-114.1-31.7c-9.3-2.6-17.8-7.5-24.6-14.4l-6.3-6.3c-2.7 11.6-6.6 22.8-11.5 33.4zM509.1 32c19.3 0 34.9 15.6 34.9 34.9 0 9.3-3.7 18.1-10.2 24.7l-230 230c-11.6-20.7-28.7-37.8-49.4-49.4l230-230C491 35.7 499.8 32 509.1 32zM461.8 19.6L221.9 259.5c-9.6-2.3-19.6-3.5-29.9-3.5-70.7 0-128 57.3-128 128 0 15.5 2.8 30.4 7.8 44.2 7.6 20.8-5.8 51.8-28 51.8L16 480c-8.8 0-16 7.2-16 16s7.2 16 16 16l176 0c70.7 0 128-57.3 128-128 0-10.3-1.2-20.3-3.5-29.9L556.4 114.2C569 101.7 576 84.7 576 66.9 576 30 546 0 509.1 0 491.3 0 474.3 7 461.8 19.6zM192 480l-96.4 0c.7-1.3 1.4-2.6 2.1-3.8 8.3-16.7 11.7-38.9 4.2-59-3.8-10.3-5.9-21.4-5.9-33.1 0-53 43-96 96-96s96 43 96 96-43 96-96 96z"/></svg>