<svg xmlns="http://www.w3.org/2000/svg" viewBox="0 0 512 512"><!--! Font Awesome Pro 7.0.0 by @fontawesome - https://fontawesome.com License - https://fontawesome.com/license (Commercial License) Copyright 2025 Fonticons, Inc. --><path fill="currentColor" d="M413.3 183.7C451.2 167.8 464 148.3 464 128s-12.8-39.8-50.7-55.7C375.4 56.4 320.3 48 256 48S136.6 56.4 98.7 72.3c-37.9 15.9-50.7 35.4-50.7 55.7 0 24.6 20.1 49.4 80 65.6 20.4 5.5 36 24.1 36 46.7L164 344c0 11 9 20 20 20s20-9 20-20l0-87.8c0-27.2 22.3-48.3 48.6-48.2l3.4 0c64.3 0 119.4-8.4 157.3-24.3zM496 128c0 14.9-3.9 28.2-11.3 40 7.3 11.8 11.3 25.1 11.3 40s-3.9 28.2-11.3 40c7.3 11.8 11.3 25.1 11.3 40s-3.9 28.2-11.3 40c7.3 11.8 11.3 25.1 11.3 40 0 77.9-107.5 112-240 112S16 445.9 16 368c0-14.9 3.9-28.2 11.3-40-7.3-11.8-11.3-25.1-11.3-40s3.9-28.2 11.3-40C19.9 236.2 16 222.9 16 208s3.9-28.2 11.3-40C19.9 156.2 16 142.9 16 128 16 50.1 123.5 16 256 16S496 50.1 496 128zM256 240l-3.6 0c-9 0-16.4 7.2-16.4 16.2l0 87.8c0 28.7-23.3 52-52 52s-52-23.3-52-52l0-103.7c0-7.4-5.2-13.9-12.3-15.8-27.9-7.6-51.5-18-69.1-31.5-1.8 4.9-2.6 9.9-2.6 15 0 19.9 12.2 38.8 48 54.5L96 297c-17.7-6.5-33.1-14.5-45.4-24-1.8 4.9-2.6 9.9-2.6 15 0 19.9 12.3 38.9 48.2 54.6 1 14.1 5.4 27.2 12.3 38.6-23.1-7.2-42.7-16.6-58-28.2-1.8 4.9-2.6 9.9-2.6 15 0 20.3 12.8 39.8 50.7 55.7 37.9 15.9 93 24.3 157.3 24.3s119.4-8.4 157.3-24.3c37.9-15.9 50.7-35.4 50.7-55.7 0-5.1-.8-10.1-2.6-15-42.1 32.2-118.3 47-205.4 47-3.9 0-7.7 0-11.5-.1 9.4-8.9 16.8-19.8 21.5-32 60-.8 111.4-9.1 147.3-24.2 37.9-15.9 50.7-35.4 50.7-55.7 0-5.1-.8-10.1-2.6-15-39.5 30.2-109 45.1-189.4 46.8l0-32c57.4-1.3 106.6-9.5 141.3-24.1 37.9-15.9 50.7-35.4 50.7-55.7 0-5.1-.8-10.1-2.6-15-42.1 32.2-118.3 47-205.4 47zM192 128c0 8.8 7.2 16 16 16l96 0c8.8 0 16-7.2 16-16s-7.2-16-16-16l-96 0c-8.8 0-16 7.2-16 16zm-32 0c0-26.5 21.5-48 48-48l96 0c26.5 0 48 21.5 48 48s-21.5 48-48 48l-96 0c-26.5 0-48-21.5-48-48z"/></svg>