<svg xmlns="http://www.w3.org/2000/svg" viewBox="0 0 576 512"><!--! Font Awesome Pro 7.0.0 by @fontawesome - https://fontawesome.com License - https://fontawesome.com/license (Commercial License) Copyright 2025 Fonticons, Inc. --><path fill="currentColor" d="M156 272L516.1 272 69.2 474.5 156 272zm360.2-32L156 240 69.2 37.5 516.1 240zM34.1 37L128 256 34.1 475c-1.4 3.3-2.1 6.9-2.1 10.5 0 14.5 11.8 26.5 26.3 26.5 3.7 0 7.4-.8 10.9-2.3l485-219.8c13.3-6 21.9-19.3 21.9-33.9s-8.6-27.9-21.9-33.9L69.2 2.3C65.8 .8 62.1 0 58.3 0 43.8 0 32 12 32 26.5 32 30.1 32.7 33.7 34.1 37z"/></svg>