<svg xmlns="http://www.w3.org/2000/svg" viewBox="0 0 384 512"><!--! Font Awesome Pro 7.0.0 by @fontawesome - https://fontawesome.com License - https://fontawesome.com/license (Commercial License) Copyright 2025 Fonticons, Inc. --><path fill="currentColor" d="M16 112C16 50.1 66.1 0 128 0L368 0c8.8 0 16 7.2 16 16s-7.2 16-16 16l-48 0 0 304c0 8.8-7.2 16-16 16s-16-7.2-16-16l0-304-64 0 0 304c0 8.8-7.2 16-16 16s-16-7.2-16-16l0-112-64 0C66.1 224 16 173.9 16 112zm176 80l0-160-64 0c-44.2 0-80 35.8-80 80s35.8 80 80 80l64 0zM107.3 356.7c6.2 6.2 6.2 16.4 0 22.6L54.6 432 368 432c8.8 0 16 7.2 16 16s-7.2 16-16 16l-313.4 0 52.7 52.7c6.2 6.2 6.2 16.4 0 22.6s-16.4 6.2-22.6 0l-80-80c-6.2-6.2-6.2-16.4 0-22.6l80-80c6.2-6.2 16.4-6.2 22.6 0z"/></svg>