<svg xmlns="http://www.w3.org/2000/svg" viewBox="0 0 384 512"><!--! Font Awesome Pro 7.0.0 by @fontawesome - https://fontawesome.com License - https://fontawesome.com/license (Commercial License) Copyright 2025 Fonticons, Inc. --><path fill="currentColor" d="M320 32c17.7 0 32 14.3 32 32l0 384c0 17.7-14.3 32-32 32L64 480c-17.7 0-32-14.3-32-32L32 64c0-17.7 14.3-32 32-32l256 0zM64 0C28.7 0 0 28.7 0 64L0 448c0 35.3 28.7 64 64 64l256 0c35.3 0 64-28.7 64-64l0-384c0-35.3-28.7-64-64-64L64 0zM229.3 296.5c9.5-18.5 15.9-43.9 17.7-72.5l39.7 0c-5.5 32.8-27.6 59.9-57.4 72.5zm-74.5 0C125 283.9 102.8 256.8 97.3 224l39.7 0c1.8 28.6 8.3 54 17.7 72.5zM169.1 224l45.8 0c-1.6 22.5-6.5 41.6-12.7 55-4.5 9.7-8.2 13.8-10.2 15.5-2-1.7-5.7-5.8-10.2-15.5-6.2-13.4-11.1-32.5-12.7-55zm0-32c1.6-22.5 6.5-41.6 12.7-55 4.5-9.6 8.2-13.8 10.2-15.5 2 1.7 5.7 5.8 10.2 15.5 6.2 13.4 11.1 32.5 12.7 55l-45.8 0zm77.9 0c-1.8-28.6-8.3-54-17.7-72.5 29.8 12.6 51.9 39.7 57.4 72.5L247 192zm-92.2-72.5C145.3 138 138.8 163.4 137 192l-39.7 0c5.5-32.8 27.6-59.9 57.4-72.5zM192 336a128 128 0 1 0 0-256 128 128 0 1 0 0 256zm-80 48c-8.8 0-16 7.2-16 16s7.2 16 16 16l160 0c8.8 0 16-7.2 16-16s-7.2-16-16-16l-160 0z"/></svg>