<svg xmlns="http://www.w3.org/2000/svg" viewBox="0 0 512 512"><!--! Font Awesome Pro 7.0.0 by @fontawesome - https://fontawesome.com License - https://fontawesome.com/license (Commercial License) Copyright 2025 Fonticons, Inc. --><path fill="currentColor" d="M256 224c41.3 0 134.4 35.9 186.8 177.2 3.6 9.7 5.2 20.1 5.2 30.5l0 4.4-.2 4.5c-2.2 22.1-21 39.4-43.7 39.4l-10-.4c-9.9-.8-19.8-2.6-29.3-5.6l-80.2-25.1-7-1.9c-16.6-3.8-33.9-3.2-50.2 1.9L147.2 474c-12.7 4-26 6-39.3 6l-4.5-.2c-20.7-2.1-37.1-18.5-39.2-39.2l-.2-4.5 0-4.4c0-7.8 .9-15.6 2.9-23.1l2.3-7.4C121.6 259.9 214.7 224 256 224zm0 32c-24.9 0-103.2 23.9-152.2 144.3l-4.6 12C97.1 418 96 424.5 96 431.7l0 4.4c0 6.6 5.3 11.9 11.9 11.9 10.1 0 20.1-1.5 29.7-4.5l80.2-25.1 9.4-2.6c22.1-5.1 45.2-4.2 67 2.6l80.2 25.1c9.6 3 19.6 4.5 29.7 4.5 6.6 0 11.9-5.3 11.9-11.9l0-4.4c0-5.4-.6-10.4-1.8-14.9l-1.4-4.4C364.2 281.4 281.7 256 256 256zM21.8 165.3c24.5-14 59.7 .9 78.5 33.3s14.3 70.1-10.2 84.2c-23 13.2-55.3 .9-74.8-27.4l-3.7-5.8C-7.2 217-2.7 179.3 21.8 165.3zm389.8 33.3c18.9-32.4 54-47.3 78.5-33.3s29.1 51.7 10.2 84.2l-3.7 5.8c-19.5 28.3-51.8 40.6-74.8 27.4-24.5-14-29.1-51.7-10.2-84.2zM50.7 194c-7.3-3.1-11.3-1.8-13-.9-1.6 .9-4.6 3.6-5.5 11.3-.9 7.7 .8 18.2 7 29s14.7 17.6 22 20.7 11.3 1.8 13 .9c1.6-.9 4.6-3.6 5.5-11.2 .9-7.7-.8-18.2-7-29S58 197.1 50.7 194zm423.5-.9c-1.6-.9-5.7-2.2-13 .9s-15.7 9.9-22 20.7-8 21.4-7 29c.9 7.6 3.9 10.3 5.5 11.2 1.6 .9 5.7 2.2 13-.9s15.7-9.9 22-20.7 8-21.4 7-29c-.9-7.6-3.9-10.3-5.5-11.3zM150.1 34.3c32.3-10.6 70.1 15.6 84.4 58.5s-.3 86.2-32.6 96.8c-30.3 9.9-65.4-12.5-81.5-50.7l-2.9-7.8c-14.3-42.9 .3-86.2 32.6-96.8zM277.5 92.8c14.3-42.9 52.1-69.1 84.4-58.5s46.9 53.9 32.6 96.8l-2.9 7.8c-16.1 38.2-51.2 60.6-81.5 50.7-32.3-10.6-46.9-53.9-32.6-96.8zm-96.7-23c-9.1-6.3-16.3-6.6-20.8-5.1-4.4 1.5-10 5.8-13.4 16.1-3.5 10.3-3.9 24.7 1.2 40.2s14.3 26.8 23.3 33.1 16.3 6.6 20.8 5.1c4.4-1.5 10-5.8 13.4-16.1 3.5-10.3 3.9-24.7-1.2-40.2s-14.3-26.8-23.3-33.1zM352 64.8c-4.5-1.5-11.7-1.2-20.8 5.1s-18.2 17.6-23.3 33.1-4.7 29.9-1.2 40.2c3.5 10.3 9 14.6 13.4 16.1 4.5 1.5 11.7 1.2 20.8-5.1s18.2-17.6 23.3-33.1 4.7-29.9 1.2-40.2c-3.5-10.3-9-14.6-13.4-16.1z"/></svg>