<svg xmlns="http://www.w3.org/2000/svg" viewBox="0 0 576 512"><!--! Font Awesome Pro 7.0.0 by @fontawesome - https://fontawesome.com License - https://fontawesome.com/license (Commercial License) Copyright 2025 Fonticons, Inc. --><path fill="currentColor" d="M27.3-27.2c-6.2-6.2-16.4-6.2-22.6 0s-6.2 16.4 0 22.6l544 544c6.2 6.2 16.4 6.2 22.6 0s6.2-16.4 0-22.6L368.2 313.7 522.8 159.1C536.4 145.6 544 127.2 544 108s-7.6-37.6-21.2-51.1L487.1 21.2C473.6 7.6 455.2 0 436 0s-37.6 7.6-51.1 21.2l-58.5 58.5-25.1-25.1c-25-25-65.5-25-90.5 0L160 105.4 27.3-27.2zM182.6 128l50.8-50.8c12.5-12.5 32.8-12.5 45.3 0l25.1 25.1-73.4 73.4-47.7-47.7zm70.3 70.3l73.4-73.4 92.7 92.7-73.4 73.4-92.7-92.7zm-79.1 33.9L90.9 315.1c-10.7 10.7-18.5 24.1-22.6 38.7L32.9 481.6c-2.3 8.3 0 17.3 6.2 23.4s15.1 8.5 23.4 6.2l127.8-35.5c14.6-4.1 27.9-11.8 38.7-22.6l82.8-82.8-22.6-22.6-82.8 82.8c-6.8 6.8-15.3 11.8-24.6 14.4L67.5 476.5 99.2 362.4c2.6-9.3 7.5-17.8 14.4-24.6l82.8-82.8-22.6-22.6zM407.5 43.8C415.1 36.2 425.3 32 436 32s20.9 4.2 28.5 11.8l35.7 35.7C507.8 87.1 512 97.3 512 108s-4.2 20.9-11.8 28.5L441.7 195 349 102.3 407.5 43.8z"/></svg>