<svg xmlns="http://www.w3.org/2000/svg" viewBox="0 0 576 512"><!--! Font Awesome Pro 7.0.0 by @fontawesome - https://fontawesome.com License - https://fontawesome.com/license (Commercial License) Copyright 2025 Fonticons, Inc. --><path fill="currentColor" d="M27.3-27.2c-6.2-6.2-16.4-6.2-22.6 0s-6.2 16.4 0 22.6l544 544c6.2 6.2 16.4 6.2 22.6 0s6.2-16.4 0-22.6L349.1 294.6 516.7 143.7c17.4-15.6 27.3-37.9 27.3-61.3 0-45.5-36.9-82.4-82.4-82.4-23.4 0-45.6 9.9-61.3 27.3L249.5 194.9 27.3-27.2zM272.1 217.6l152-168.9c9.6-10.6 23.2-16.7 37.5-16.7 27.8 0 50.4 22.6 50.4 50.4 0 14.3-6.1 27.9-16.7 37.5l-168.9 152-54.3-54.3zM130.9 265.4c-19.8 6.1-35.4 21.3-41.9 40.9L34.9 468.6c-8.3 25 15.5 48.8 40.5 40.5L237.6 455c19.6-6.5 34.9-22.1 40.9-41.9l17.9-58.1-25.6-25.6-22.9 74.3c-3 9.9-10.7 17.7-20.5 20.9L99.2 467.4 166.7 400c.4 0 .9 0 1.3 0 13.3 0 24-10.7 24-24s-10.7-24-24-24-24 10.7-24 24c0 .4 0 .9 0 1.3l-67.4 67.4 42.8-128.3c3.3-9.8 11.1-17.4 20.9-20.5l74.3-22.9-25.6-25.6-58.1 17.9z"/></svg>