<svg xmlns="http://www.w3.org/2000/svg" viewBox="0 0 576 512"><!--! Font Awesome Pro 7.0.0 by @fontawesome - https://fontawesome.com License - https://fontawesome.com/license (Commercial License) Copyright 2025 Fonticons, Inc. --><path fill="currentColor" d="M320 64a32 32 0 1 0 -64 0 32 32 0 1 0 64 0zm-96 0a64 64 0 1 1 128 0 64 64 0 1 1 -128 0zm-96 48a24 24 0 1 0 0-48 24 24 0 1 0 0 48zm0-80a56 56 0 1 1 0 112 56 56 0 1 1 0-112zm320 80a24 24 0 1 0 0-48 24 24 0 1 0 0 48zm0-80a56 56 0 1 1 0 112 56 56 0 1 1 0-112zM159.2 193c-7.1 9.6-13.1 20-17.9 31-42.9 1.4-77.3 36.7-77.3 80 0 23.7 10.3 45 26.7 59.6 3.4 3 5.3 7.4 5.3 11.9l0 56.4-32 0 0-49.6c-19.8-20.2-32-47.9-32-78.4 0-61.9 50.1-112 112-112 5.2 0 10.2 .3 15.2 1zM368 382.4l0 49.6-32 0 0-56.4c0-4.6 1.9-8.9 5.3-11.9 16.4-14.7 26.7-35.9 26.7-59.6l0-16c0-44.2-35.8-80-80-80s-80 35.8-80 80l0 16c0 23.7 10.3 45 26.7 59.6 3.4 3 5.3 7.4 5.3 11.9l0 56.4-32 0 0-49.6c-19.8-20.2-32-47.9-32-78.4l0-16c0-61.9 50.1-112 112-112s112 50.1 112 112l0 16c0 30.5-12.2 58.2-32 78.4zM480 432l0-56.4c0-4.6 1.9-8.9 5.3-11.9 16.4-14.7 26.7-35.9 26.7-59.6 0-43.3-34.4-78.5-77.3-80-4.8-11-10.9-21.4-17.9-31 5-.7 10.1-1 15.2-1 61.9 0 112 50.1 112 112 0 30.5-12.2 58.2-32 78.4l0 49.6-32 0zM16 480l544 0c8.8 0 16 7.2 16 16s-7.2 16-16 16L16 512c-8.8 0-16-7.2-16-16s7.2-16 16-16z"/></svg>