<svg xmlns="http://www.w3.org/2000/svg" viewBox="0 0 576 512"><!--! Font Awesome Pro 7.0.0 by @fontawesome - https://fontawesome.com License - https://fontawesome.com/license (Commercial License) Copyright 2025 Fonticons, Inc. --><path fill="currentColor" d="M539.3 59.3c6.2-6.2 6.2-16.4 0-22.6s-16.4-6.2-22.6 0L485.3 68.1c-27.6-22.6-62.8-36.1-101.3-36.1-52.5 0-99.1 25.3-128.3 64.4-10.4 13.9 1 31.6 18.3 31.6l8.2 0-171.8 236.2c-9 12.4-23.5 19.8-38.8 19.8L64 384c-26.5 0-48 21.5-48 48s21.5 48 48 48l23.9 0c67.6 0 133.5-21.4 188.2-61.2l171.8-125 0 8.2c0 17.3 17.8 28.6 31.6 18.3 39.1-29.2 64.4-75.8 64.4-128.3 0-38.4-13.5-73.7-36.1-101.3l31.4-31.4zM479.9 276.8c-.1-1.9-.3-3.8-.6-5.7l0 0c-1.8-11.2-6.9-21.3-14.3-29.2l0 0c-10.2-11-24.8-17.9-41-17.9l-72 0 0-72c0-16.2-6.9-30.8-17.9-41l0 0c-7.9-7.4-18-12.5-29.2-14.3l0 0c-1.9-.3-3.8-.5-5.7-.6 22.6-20 52.3-32.1 84.8-32.1 70.7 0 128 57.3 128 128 0 32.5-12.1 62.2-32.1 84.8zM136.3 383.1L315 137.3c3.1 4.1 5 9.2 5 14.7l0 80c0 13.3 10.7 24 24 24l80 0c5.5 0 10.6 1.9 14.7 5L257.3 392.9C208.1 428.7 148.8 448 87.9 448L64 448c-8.8 0-16-7.2-16-16s7.2-16 16-16l7.6 0c25.6 0 49.6-12.2 64.7-32.9z"/></svg>