<svg xmlns="http://www.w3.org/2000/svg" viewBox="0 0 512 512"><!--! Font Awesome Pro 7.0.0 by @fontawesome - https://fontawesome.com License - https://fontawesome.com/license (Commercial License) Copyright 2025 Fonticons, Inc. --><path fill="currentColor" d="M224 59.1l0 4.9 128 0 0-26.2-128 21.3zM366.2 95.2c1.2 5.4 1.8 11 1.8 16.8 0 44.2-35.8 80-80 80s-80-35.8-80-80c0-5.8 .6-11.4 1.8-16.8-10.2-2.7-17.8-12.1-17.8-23.2l0-19.7c0-11.7 8.5-21.7 20.1-23.7l144-24C370.7 2.2 384 13.5 384 28.3L384 72c0 11.1-7.5 20.4-17.8 23.2zm-33 .8l-90.5 0c-1.8 5-2.7 10.4-2.7 16 0 26.5 21.5 48 48 48s48-21.5 48-48c0-5.6-1-11-2.7-16zM0 240c0-8.8 7.2-16 16-16l296.3 0c40.2 0 77.3 21.5 97.2 56.4L509.9 456.1c4.4 7.7 1.7 17.4-6 21.8s-17.4 1.7-21.8-6L384 300.2 384 464c0 26.5-21.5 48-48 48l-96 0c-26.5 0-48-21.5-48-48l0-31.6c0-.2 0-.5 0-.7l0-175.6-176 0c-8.8 0-16-7.2-16-16zM224 464c0 8.8 7.2 16 16 16l96 0c8.8 0 16-7.2 16-16l0-16-128 0 0 16zM352 296c0-4.3-.7-8.5-1.9-12.4L241.8 416 352 416 352 296zm-40-40l-88 0 0 131.2 104.4-127.6c-5-2.3-10.6-3.5-16.4-3.5z"/></svg>