<svg xmlns="http://www.w3.org/2000/svg" viewBox="0 0 512 512"><!--! Font Awesome Pro 7.0.0 by @fontawesome - https://fontawesome.com License - https://fontawesome.com/license (Commercial License) Copyright 2025 Fonticons, Inc. --><path fill="currentColor" d="M264 40a24 24 0 1 0 -48 0 24 24 0 1 0 48 0zm-80 0a56 56 0 1 1 112 0 56 56 0 1 1 -112 0zM113.7 260l38.9-100-48.3 0c-5.1 0-9.9 2.4-12.9 6.6L36.9 241.4c-5.2 7.1-15.2 8.7-22.4 3.5s-8.7-15.2-3.5-22.4l54.4-74.8c9-12.4 23.5-19.8 38.8-19.8l71.3 0c.2 0 .5 0 .7 0l45 0c32.3 0 61.4 19.4 73.8 49.2L312 217.5c2.1 5.1 6.7 8.7 12.1 9.6l78.5 13.1c8.7 1.5 14.6 9.7 13.2 18.4s-9.7 14.6-18.4 13.2l-78.5-13.1c-16.3-2.7-30.1-13.6-36.4-28.9l-16.8-40.3-.3-.8-38 101.2 61.2 42.8c8.4 5.9 14.8 14.4 18 24.1l44.7 134c2.8 8.4-1.7 17.4-10.1 20.2s-17.4-1.7-20.2-10.1l-44.7-134c-1.1-3.3-3.2-6.1-6-8l-55.8-39-66 0 22.4 62.9c4.9 13.8-.2 29.2-12.4 37.4L24.9 509.3c-7.4 4.9-17.3 2.9-22.2-4.4s-2.9-17.3 4.4-22.2l133.6-89.1-27.8-77.8c-6.5-18.1-6.2-38 .8-55.9zm126.7-96c-5.9-2.6-12.4-4-19.1-4l-34.4 0-43.4 111.6c-2.1 5.3-3.1 10.9-3.3 16.4l53.6 0 46.5-124zM480 384a32 32 0 1 0 -64 0 32 32 0 1 0 64 0zm-96 0a64 64 0 1 1 128 0 64 64 0 1 1 -128 0z"/></svg>