<svg xmlns="http://www.w3.org/2000/svg" viewBox="0 0 640 512"><!--! Font Awesome Pro 7.0.0 by @fontawesome - https://fontawesome.com License - https://fontawesome.com/license (Commercial License) Copyright 2025 Fonticons, Inc. --><path fill="currentColor" d="M208 32.1c8.8 0 16-7.2 16-16l0-48c0-8.8-7.2-16-16-16s-16 7.2-16 16l0 48c0 8.8 7.2 16 16 16zM16 144.1c0 8.8 7.2 16 16 16l48 0c8.8 0 16-7.2 16-16s-7.2-16-16-16l-48 0c-8.8 0-16 7.2-16 16zM94.9 279.9l33.9-33.9c6.2-6.2 6.2-16.4 0-22.6s-16.4-6.2-22.6 0L72.2 257.2c-6.2 6.2-6.2 16.4 0 22.6s16.4 6.2 22.6 0zM72.2 8.3C66 14.6 66 24.7 72.2 31l33.9 33.9c6.2 6.2 16.4 6.2 22.6 0s6.2-16.4 0-22.6L94.9 8.3c-6.2-6.2-16.4-6.2-22.6 0zM352 0a24 24 0 1 1 0 48 24 24 0 1 1 0-48zm0 80a56 56 0 1 0 0-112 56 56 0 1 0 0 112zM204.5 298L284.6 197.9 230.8 363c-3.4 10.3 4.3 21 15.2 21l42 0 0 144c0 8.8 7.2 16 16 16s16-7.2 16-16l0-144 64 0 0 144c0 8.8 7.2 16 16 16s16-7.2 16-16l0-144 42 0c10.9 0 18.6-10.6 15.2-21L419.4 197.9 499.5 298c5.5 6.9 15.6 8 22.5 2.5s8-15.6 2.5-22.5L415.7 142c-15.2-19-38.2-30-62.5-30l-2.5 0c-24.3 0-47.3 11-62.5 30L179.5 278c-5.5 6.9-4.4 17 2.5 22.5s17 4.4 22.5-2.5zm63.6 54l62-190.5c3.1-9.5 12-15.9 21.9-15.9s18.9 6.4 21.9 15.9l62 190.5-167.9 0z"/></svg>