<svg xmlns="http://www.w3.org/2000/svg" viewBox="0 0 576 512"><!--! Font Awesome Pro 7.0.0 by @fontawesome - https://fontawesome.com License - https://fontawesome.com/license (Commercial License) Copyright 2025 Fonticons, Inc. --><path fill="currentColor" d="M400.8 72a24 24 0 1 1 48 0 24 24 0 1 1 -48 0zm80 0a56 56 0 1 0 -112 0 56 56 0 1 0 112 0zM512 221.9c7.3-4.2 10.1-13.4 6.3-21-4-7.9-13.6-11.1-21.5-7.2l-40.4 20.2c-6.8 3.4-15.2 1.5-19.8-4.6l-24-31.2c-28.1-36.5-67.4-62.6-111.9-74.3L263 93.9c-36.4-9.6-73.2 14.2-79.4 51.4l-6.8 40.9-153.6 245.8 37.7 0 144.5-231.2c.7-1.1 1.3-2.2 1.7-3.4 .4-1 .6-2 .8-3.1l7.3-43.7c3.1-18.6 21.5-30.5 39.7-25.7l35.1 9.2-54.3 93.7c-18.5 31.9-6.2 72.8 26.8 89.3l72.4 36.2c7.4 3.7 10.7 12.4 7.8 20.1L303.8 474.3c-.7 1.9-1.1 3.8-1.1 5.7l-138.2 0 53-66.3c2.9-3.7 5.3-7.8 7.1-12.2l16.6-41.4c-10.1-5.1-19.1-11.5-26.9-18.9l-19.4 48.4c-.6 1.5-1.4 2.8-2.4 4.1l-61 76.3-8 10-107.5 0c-8.8 0-16 7.2-16 16s7.2 16 16 16l493.5 0c21.2 0 41.6-8.4 56.6-23.4l5.3-5.3c6.2-6.2 6.2-16.4 0-22.6s-16.4-6.2-22.6 0l-5.3 5.3c-9 9-21.2 14.1-33.9 14.1l-173.6 0 36.6-95.1c8.9-23.1-1.2-49.1-23.3-60.2l-26.4-13.2 68.4-108.8 20.1 26.1c14 18.2 39 23.9 59.5 13.7l9.3-4.6 0 194.1 32 0 0-210.1zM294 297.1l-17.2-8.6c-16.5-8.2-22.6-28.7-13.4-44.7l57.3-99c17.8 8.1 34.2 19.2 48.4 32.7L294 297.1z"/></svg>