<svg xmlns="http://www.w3.org/2000/svg" viewBox="0 0 576 512"><!--! Font Awesome Pro 7.0.0 by @fontawesome - https://fontawesome.com License - https://fontawesome.com/license (Commercial License) Copyright 2025 Fonticons, Inc. --><path fill="currentColor" d="M472 80a24 24 0 1 0 0-48 24 24 0 1 0 0 48zm0-80a56 56 0 1 1 0 112 56 56 0 1 1 0-112zM9.8 304.6c4.1-7.8 13.7-10.9 21.6-6.8l215.1 111.7 69.4-104.1-90.7-102c-5.1-5.8-8.6-12.3-10.4-19.1l63.1 30.2 62 69.7c9.7 10.9 10.8 26.9 2.7 39L275 424.3 414.8 496.9c15.9 8.3 34.8 8.4 50.9 .4l15.2-7.6c7.9-4 17.5-.7 21.5 7.2s.7 17.5-7.2 21.5L480 525.9c-25.2 12.6-54.9 12.4-79.9-.6L16.6 326.2c-7.8-4.1-10.9-13.7-6.8-21.6zM102.7 49.5l18.5 8.5 8.5-17.1c4-7.9 13.6-11.1 21.5-7.2s11.1 13.6 7.2 21.5l-8.1 16.1 107.3 49.2 59.1-26.3c24-10.7 52.1-.1 63.1 23.7l34.3 74.2 72.7 33.3c8 3.7 11.6 13.2 7.9 21.2s-13.2 11.6-21.2 7.9l-337.4-154.6-9.6 19.3c-4 7.9-13.6 11.1-21.5 7.2s-11.1-13.6-7.2-21.5l9.1-18.3-17.5-8c-8-3.7-11.6-13.2-7.9-21.2s13.2-11.6 21.2-7.9zm248 81.9c-3.7-7.9-13-11.5-21-7.9l-33.3 14.8 72.9 33.4-18.6-40.3z"/></svg>