<svg xmlns="http://www.w3.org/2000/svg" viewBox="0 0 576 512"><!--! Font Awesome Pro 7.0.0 by @fontawesome - https://fontawesome.com License - https://fontawesome.com/license (Commercial License) Copyright 2025 Fonticons, Inc. --><path fill="currentColor" d="M96 48a24 24 0 1 0 0-48 24 24 0 1 0 0 48zm0-80A56 56 0 1 1 96 80 56 56 0 1 1 96-32zm.5 144c25.5 0 48.6 15 58.9 38.3l34.3 77.2c7.7 17.3 24.9 28.5 43.9 28.5l38.4 0c8.8 0 16 7.2 16 16s-7.2 16-16 16l-38.4 0c-31.6 0-60.3-18.6-73.1-47.5l-.5-1.1 0 128.6c20.1 15.1 32 38.8 32 64l0 96c0 8.8-7.2 16-16 16s-16-7.2-16-16l0-96c0-15.1-7.1-29.3-19.2-38.4L64 336c-20.1-15.1-32-38.8-32-64l0-95.5C32 140.9 60.9 112 96.5 112zM32 528l0-156.1c1.1 .8 2.1 1.7 3.2 2.5L64 396 64 528c0 8.8-7.2 16-16 16s-16-7.2-16-16zm96-352c0-17.7-14.3-32-32-32s-32 14.3-32 32l0 96c0 15.1 7.1 29.3 19.2 38.4L128 344 128 176zm278.3 56.8c1.6 3.2 2.1 6.9 1.4 10.4l-36 172.7 172.3 0 0-368c0-8.8-7.2-16-16-16L305.9 32 406.3 232.8zM544 528l0-80-192 0c-4.8 0-9.4-2.2-12.4-5.9s-4.2-8.6-3.3-13.4l38.9-186.6-87.2-174.4 0 136.2-32 0 0-156c0-26.5 21.5-48 48-48L528 0c26.5 0 48 21.5 48 48l0 480c0 8.8-7.2 16-16 16s-16-7.2-16-16zm-256 0c0 8.8-7.2 16-16 16s-16-7.2-16-16l0-188 32 0 0 188z"/></svg>