<svg xmlns="http://www.w3.org/2000/svg" viewBox="0 0 512 512"><!--! Font Awesome Pro 7.0.0 by @fontawesome - https://fontawesome.com License - https://fontawesome.com/license (Commercial License) Copyright 2025 Fonticons, Inc. --><path fill="currentColor" d="M448 56a24 24 0 1 0 -48 0 24 24 0 1 0 48 0zm-80 0a56 56 0 1 1 112 0 56 56 0 1 1 -112 0zM302.4 160L144 160c-8.8 0-16-7.2-16-16s7.2-16 16-16l216 0c18.6 0 35 9 45.2 23 18.3 24.5 13.3 59.1-11.1 77.5l-77.7 58.3 32.6 14.5c11.6 5.1 19 16.6 19 29.2L368 432c0 8.8-7.2 16-16 16s-16-7.2-16-16l0-101.6-86.4-38.4c-32.9-14.6-38.6-58.9-10.5-81.3L302.4 160zm77.1 9.9c-8-10.4-22.9-12.2-33.2-4l-87.2 69.8c-9.4 7.5-7.5 22.2 3.5 27.1l20.4 9 92-69c6.2-4.6 9.4-11.7 9.4-18.8l-.2 0c0-5.3-1.7-10.1-4.6-14.1zm-195 119c5 9.4 11.7 17.9 20.2 25.1l-89.3 89.3c-6.2 6.2-16.4 6.2-22.6 0s-6.2-16.4 0-22.6l91.8-91.8zm263.1 179l-.4 1.7c-6.2 24.9-28.6 42.4-54.3 42.4L304 512c-8.8 0-16-7.2-16-16s7.2-16 16-16l88.8 0c11 0 20.6-7.5 23.3-18.2l.4-1.7c2.1-8.6 10.8-13.8 19.4-11.6s13.8 10.8 11.6 19.4zm-297.2-3c4 7.9 .7 17.5-7.2 21.5l-6.2 3.1c-21.6 10.8-47.6 6.6-64.6-10.5L12.7 419.3c-6.2-6.2-6.2-16.4 0-22.6s16.4-6.2 22.6 0l59.6 59.6c7.3 7.3 18.5 9.1 27.7 4.5l6.2-3.1c7.9-4 17.5-.7 21.5 7.2z"/></svg>