<svg xmlns="http://www.w3.org/2000/svg" viewBox="0 0 512 512"><!--! Font Awesome Pro 7.0.0 by @fontawesome - https://fontawesome.com License - https://fontawesome.com/license (Commercial License) Copyright 2025 Fonticons, Inc. --><path fill="currentColor" d="M208 80a48 48 0 1 1 96 0 48 48 0 1 1 -96 0zm128 0a80 80 0 1 0 -160 0 80 80 0 1 0 160 0zM112 368c0-42.6 18.5-81 48-107.3l0 171.3 32 0 0-193c19.3-9.6 41-15 64-15s44.7 5.4 64 15l0 193 32 0 0-171.3c29.5 26.4 48 64.7 48 107.3l0 64 32 0 0-64c0-97.2-78.8-176-176-176S80 270.8 80 368l0 64 32 0 0-64zm152 0a24 24 0 1 0 -48 0 24 24 0 1 0 48 0zM16 480c-8.8 0-16 7.2-16 16s7.2 16 16 16l480 0c8.8 0 16-7.2 16-16s-7.2-16-16-16L16 480zM120 192a24 24 0 1 0 -48 0 24 24 0 1 0 48 0zm360 88a24 24 0 1 0 0-48 24 24 0 1 0 0 48z"/></svg>