<svg xmlns="http://www.w3.org/2000/svg" viewBox="0 0 512 512"><!--! Font Awesome Pro 7.0.0 by @fontawesome - https://fontawesome.com License - https://fontawesome.com/license (Commercial License) Copyright 2025 Fonticons, Inc. --><path fill="currentColor" d="M0 147.9L0 176c0 26.5 21.5 48 48 48l11.6 0 21.3-32-33 0c-8.8 0-16-7.2-16-16l0-28.1c0-4.5 1.7-6.9 2.9-7.9 29.7-23.8 108-76 221.1-76s191.3 52.2 221.1 76c1.2 1 2.9 3.4 2.9 7.9l0 28.1c0 8.8-7.2 16-16 16l-33 0 21.3 32 11.6 0c26.5 0 48-21.5 48-48l0-28.1c0-12.7-5-24.9-15-32.9-32.8-26.2-118-83-241-83S47.7 88.8 15 115C5 123 0 135.2 0 147.9zM64 373.8c0-7.9 2.3-15.6 6.7-22.2l96.9-145.4c5.9-8.9 15.9-14.2 26.6-14.2l123.5 0c10.7 0 20.7 5.3 26.6 14.2l96.9 145.4c4.4 6.6 6.7 14.3 6.7 22.2l0 42.2c0 17.7-14.3 32-32 32L96 448c-17.7 0-32-14.3-32-32l0-42.2zm-32 0L32 416c0 35.3 28.7 64 64 64l320 0c35.3 0 64-28.7 64-64l0-42.2c0-14.2-4.2-28.1-12.1-39.9L371 188.5c-11.5-17.2-30.5-27.7-51-28.5l0-32c0-8.8-7.2-16-16-16s-16 7.2-16 16l0 32-64 0 0-32c0-8.8-7.2-16-16-16s-16 7.2-16 16l0 32c-20.5 .7-39.5 11.3-51 28.5L44.1 333.9C36.2 345.7 32 359.6 32 373.8zM256 272a48 48 0 1 1 0 96 48 48 0 1 1 0-96zm0 128a80 80 0 1 0 0-160 80 80 0 1 0 0 160z"/></svg>