<svg xmlns="http://www.w3.org/2000/svg" viewBox="0 0 512 512"><!--! Font Awesome Pro 7.0.0 by @fontawesome - https://fontawesome.com License - https://fontawesome.com/license (Commercial License) Copyright 2025 Fonticons, Inc. --><path fill="currentColor" d="M367.7 42.7c3.4-8 12.2-12.3 20.6-10.1l6.7 1.8C448.2 49 490 99.1 477.9 157.4 444.4 318 318 444.4 157.4 477.9 99.1 490 49 448.2 34.4 394.9l-1.8-6.7c-2.3-8.4 2-17.2 10.1-20.6L136 328.8c7.1-2.9 15.2-.9 20.1 5l36.6 44.7c4.7 5.7 12.6 7.5 19.2 4.3 75-35.6 135-97.6 168.1-174 2.8-6.6 1-14.2-4.6-18.7l-41.6-34.1c-5.9-4.8-8-13-5-20.1l38.9-93.3zm29-40.9c-23.9-6.5-49 5.7-58.5 28.6l-38.9 93.3c-8.4 20.1-2.6 43.4 14.3 57.2l32.1 26.3c-29 60.5-77.1 110.2-136.3 141.3l-28.5-34.9c-13.8-16.9-37-22.7-57.2-14.3L30.4 338.1C7.5 347.7-4.8 372.7 1.7 396.7l1.8 6.7c17.7 65 81.2 122.3 160.3 105.9 173.1-36 309.3-172.2 345.3-345.3 16.5-79.1-40.9-142.6-105.9-160.3l-6.7-1.8z"/></svg>