<svg xmlns="http://www.w3.org/2000/svg" viewBox="0 0 640 512"><!--! Font Awesome Pro 7.0.0 by @fontawesome - https://fontawesome.com License - https://fontawesome.com/license (Commercial License) Copyright 2025 Fonticons, Inc. --><path fill="currentColor" d="M256 32c-17.7 0-32 14.3-32 32l0 224c0 17.7 14.3 32 32 32l320 0c17.7 0 32-14.3 32-32l0-224c0-17.7-14.3-32-32-32L256 32zM192 64c0-35.3 28.7-64 64-64L576 0c35.3 0 64 28.7 64 64l0 224c0 35.3-28.7 64-64 64l-320 0c-35.3 0-64-28.7-64-64l0-224zm96 8a24 24 0 1 1 0 48 24 24 0 1 1 0-48zm166.5 51.3c-1.5-2.1-4-3.3-6.6-3.3s-5 1.3-6.5 3.5L386 203.7c-3 4.3-7.8 6.9-13 6.9s-10.1-2.4-13.1-6.6l-18-24.8c-1.6-2.2-4.1-3.4-6.8-3.3s-5.1 1.5-6.5 3.8l-39.4 63.9c-1.5 2.5-1.6 5.6-.2 8.1s4.1 4.1 7 4.1l239.8 0c3 0 5.8-1.7 7.1-4.4s1.1-5.9-.7-8.3L454.5 123.3zm-7-35.3c12.9-.2 25.2 5.9 32.8 16.3l87.8 119.8c8.9 12.2 10.2 28.3 3.4 41.7s-20.6 21.9-35.7 21.9l-239.8 0c-14.5 0-27.9-7.8-34.9-20.5s-6.7-28.2 .9-40.5l39.4-63.9c7-11.4 19.2-18.5 32.6-19s26 5.7 33.9 16.5l4.7 6.5 42.6-61.7c7.4-10.7 19.4-17.1 32.4-17.3zM128 128l16 0 0 32-16 0 0 288 192 0 0-48 32 0 0 48 32 0c17.7 0 32-14.3 32-32l0-16 32 0 0 16c0 35.3-28.7 64-64 64L64 480c-35.3 0-64-28.7-64-64L0 192c0-35.3 28.7-64 64-64l64 0zM96 160l-32 0c-17.7 0-32 14.3-32 32l0 48 64 0 0-80zm0 288l0-80-64 0 0 48c0 17.7 14.3 32 32 32l32 0zm0-112l0-64-64 0 0 64 64 0z"/></svg>