<svg xmlns="http://www.w3.org/2000/svg" viewBox="0 0 576 512"><!--! Font Awesome Pro 7.0.0 by @fontawesome - https://fontawesome.com License - https://fontawesome.com/license (Commercial License) Copyright 2025 Fonticons, Inc. --><path fill="currentColor" d="M544 224C544 260 535.5 294 520.5 324.1 465.3 187.6 356.4 78.7 219.9 23.5 250 8.5 284 0 320 0 443.7 0 544 100.3 544 224zM502.1 366.7c4 12.1 19.5 15.6 26.9 5.2 29.6-41.8 47-92.8 47-147.9 0-64.9-24.2-124.2-64-169.4l27.3-27.3c6.2-6.2 6.2-16.4 0-22.6s-16.4-6.2-22.6 0L489.4 32c-45.1-39.8-104.4-64-169.4-64-55.1 0-106.2 17.4-147.9 47-10.4 7.3-6.8 22.9 5.2 26.9 71.3 23.7 135.7 62.6 189.2 112.9L36.7 484.7c-6.2 6.2-6.2 16.4 0 22.6s16.4 6.2 22.6 0L389.2 177.4c50.3 53.5 89.2 117.9 112.9 189.2z"/></svg>