<svg xmlns="http://www.w3.org/2000/svg" viewBox="0 0 576 512"><!--! Font Awesome Pro 7.0.0 by @fontawesome - https://fontawesome.com License - https://fontawesome.com/license (Commercial License) Copyright 2025 Fonticons, Inc. --><path fill="currentColor" d="M37.2 308.2l110.9-101.6 22.6 22.6-106.7 97.8 0 50.8 170.9-57c4.9-1.6 10.2-.8 14.4 2.2s6.6 7.8 6.6 13l0 88c0 4.9-2.2 9.5-6 12.5l-74 59.2 0 19.8 108.1-27c2.5-.6 5.2-.6 7.8 0l108.1 27 0-19.8-74-59.2c-3.8-3-6-7.6-6-12.5l0-45.5 32 32 0 5.8 29 23.2 51 51 0 45.5c0 4.9-2.3 9.6-6.2 12.6s-8.9 4.1-13.7 2.9l-124.1-31-124.1 31c-4.8 1.2-9.8 .1-13.7-2.9S144 540.9 144 536l0-48c0-4.9 2.2-9.5 6-12.5l74-59.2 0-58.1-170.9 57c-4.9 1.6-10.2 .8-14.4-2.2S32 405.1 32 400l0-80c0-4.5 1.9-8.8 5.2-11.8zm405.9 80.4L571.3 516.8c6.2 6.2 6.2 16.4 0 22.6s-16.4 6.2-22.6 0L4.7-4.6c-6.2-6.2-6.2-16.4 0-22.6s16.4-6.2 22.6 0L207 152.5 224 137 224 32c0-35.3 28.7-64 64-64s64 28.7 64 64l0 105 186.8 171.2c3.3 3 5.2 7.3 5.2 11.8l0 80c0 5.1-2.5 10-6.6 13s-9.5 3.8-14.4 2.2l-79.8-26.6zM392.5 338L512 377.8 512 327 325.2 155.8c-3.3-3-5.2-7.3-5.2-11.8l0-112c0-17.7-14.3-32-32-32s-32 14.3-32 32l0 112c0 4.5-1.9 8.8-5.2 11.8L229.7 175.2 392.5 338z"/></svg>