<svg xmlns="http://www.w3.org/2000/svg" viewBox="0 0 448 512"><!--! Font Awesome Pro 7.0.0 by @fontawesome - https://fontawesome.com License - https://fontawesome.com/license (Commercial License) Copyright 2025 Fonticons, Inc. --><path fill="currentColor" d="M352 32c8.8 0 16 7.2 16 16l0 160.9 42.4-15.9c8.3-3.1 17.5 1.1 20.6 9.4s-1.1 17.5-9.4 20.6L368 243.1 368 464c0 8.8-7.2 16-16 16s-16-7.2-16-16l0-208.9-42.4 15.9c-8.3 3.1-17.5-1.1-20.6-9.4s1.1-17.5 9.4-20.6L336 220.9 336 48c0-8.8 7.2-16 16-16zM16 192l192 0c6.1 0 11.6 3.4 14.3 8.8s2.1 11.9-1.5 16.8L48 448 208 448c8.8 0 16 7.2 16 16s-7.2 16-16 16L16 480c-6.1 0-11.6-3.4-14.3-8.8s-2.1-11.9 1.5-16.8L176 224 16 224c-8.8 0-16-7.2-16-16s7.2-16 16-16z"/></svg>