<svg xmlns="http://www.w3.org/2000/svg" viewBox="0 0 512 512"><!--! Font Awesome Pro 7.0.0 by @fontawesome - https://fontawesome.com License - https://fontawesome.com/license (Commercial License) Copyright 2025 Fonticons, Inc. --><path fill="currentColor" d="M480 256a224 224 0 1 0 -448 0 224 224 0 1 0 448 0zM0 256a256 256 0 1 1 512 0 256 256 0 1 1 -512 0zm368-64a112 112 0 1 0 -224 0 112 112 0 1 0 224 0zm-256 0a144 144 0 1 1 288 0 144 144 0 1 1 -288 0zm144-32a16 16 0 1 0 0-32 16 16 0 1 0 0 32zm37.3 14.2c11.5 10.3 18.7 25.2 18.7 41.8 0 30.9-25.1 56-56 56s-56-25.1-56-56c0-16.6 7.2-31.5 18.7-41.8-6.7-8.3-10.7-18.8-10.7-30.2 0-26.5 21.5-48 48-48s48 21.5 48 48c0 11.5-4 22-10.7 30.2zM256 192a24 24 0 1 0 0 48 24 24 0 1 0 0-48z"/></svg>