<svg xmlns="http://www.w3.org/2000/svg" viewBox="0 0 576 512"><!--! Font Awesome Pro 7.0.0 by @fontawesome - https://fontawesome.com License - https://fontawesome.com/license (Commercial License) Copyright 2025 Fonticons, Inc. --><path fill="currentColor" d="M384 144l0-37.5c0-8.5-3.4-16.6-9.4-22.6L332.1 41.4c-6-6-14.1-9.4-22.6-9.4L160 32c-17.7 0-32 14.3-32 32l0 80-32 0 0-80c0-35.3 28.7-64 64-64L309.5 0c17 0 33.3 6.7 45.3 18.7l42.5 42.5c12 12 18.7 28.3 18.7 45.3l0 37.5-32 0zm-74.5 80L64 224c-17.7 0-32 14.3-32 32l0 128 64 0 0-32c0-17.7 14.3-32 32-32l116.8 0c-2.5 10.3-4.1 21-4.6 32l-112.2 0 0 128 162.3 0c13.3 13.1 28.8 23.9 45.8 32L128 512c-17.7 0-32-14.3-32-32l0-64-64 0c-17.7 0-32-14.3-32-32L0 256c0-35.3 28.7-64 64-64l344 0 0 .1c-36.8 0-70.8 11.8-98.5 31.9zM408 448.1a88 88 0 1 0 0-176 88 88 0 1 0 0 176zm0 32c-66.3 0-120-53.7-120-120s53.7-120 120-120 120 53.7 120 120c0 27.4-9.1 52.6-24.6 72.7l67.9 68c6.2 6.3 6.2 16.4 0 22.6s-16.4 6.2-22.6 0l-67.8-67.9c-20.2 15.4-45.4 24.6-72.8 24.6z"/></svg>