<svg xmlns="http://www.w3.org/2000/svg" viewBox="0 0 512 512"><!--! Font Awesome Pro 7.0.0 by @fontawesome - https://fontawesome.com License - https://fontawesome.com/license (Commercial License) Copyright 2025 Fonticons, Inc. --><path fill="currentColor" d="M169.1 17.3C183.8 6.3 203.2 0 224 0S264.2 6.3 278.9 17.3 304 44.6 304 64c0 19.5-10.6 35.9-25.3 46.8-5.2 3.8-6.7 7.7-6.7 10 0 4 3.2 7.2 7.2 7.2l56.8 0c26.5 0 48 21.5 48 48l0 56.8c0 4 3.2 7.2 7.2 7.2 2.3 0 6.1-1.6 10-6.7 11-14.7 27.4-25.3 46.8-25.3 19.4 0 35.8 10.5 46.7 25.1s17.3 34.1 17.3 54.9-6.3 40.2-17.3 54.9-27.3 25.1-46.7 25.1c-19.5 0-35.9-10.6-46.8-25.3-3.8-5.2-7.7-6.7-10-6.7-4 0-7.2 3.2-7.2 7.2L384 464c0 26.5-21.5 48-48 48l-56.8 0c-21.7 0-39.2-17.5-39.2-39.2 0-16.2 9.9-28.4 19.6-35.6 8.6-6.4 12.4-14.1 12.4-21.2 0-7.1-3.8-14.7-12.3-21.1S238.5 384 224 384 196.9 388.4 188.3 394.9 176 408.9 176 416c0 7.1 3.8 14.8 12.4 21.2 9.7 7.2 19.6 19.4 19.6 35.6 0 21.7-17.5 39.2-39.2 39.2L48 512c-26.5 0-48-21.5-48-48L0 343.2c0-21.7 17.5-39.2 39.2-39.2 16.2 0 28.4 9.9 35.6 19.6 6.4 8.6 14.1 12.4 21.2 12.4 7.1 0 14.7-3.8 21.1-12.3S128 302.5 128 288 123.6 260.9 117.1 252.3 103.1 240 96 240c-7.1 0-14.8 3.8-21.2 12.4-7.2 9.7-19.4 19.6-35.6 19.6-21.6 0-39.2-17.5-39.2-39.2L0 176c0-26.5 21.5-48 48-48l120.8 0c4 0 7.2-3.2 7.2-7.2 0-2.3-1.6-6.1-6.7-10-14.7-11-25.3-27.4-25.3-46.8 0-19.4 10.5-35.8 25.1-46.7zm19.2 25.6c-8.6 6.4-12.3 14.1-12.3 21.1 0 7.1 3.8 14.8 12.4 21.2 9.7 7.2 19.6 19.4 19.6 35.6 0 21.6-17.5 39.2-39.2 39.2L48 160c-8.8 0-16 7.2-16 16l0 56.8c0 4 3.2 7.2 7.2 7.2 2.3 0 6.1-1.6 10-6.7 11-14.7 27.4-25.3 46.8-25.3 19.4 0 35.8 10.5 46.7 25.1S160 267.2 160 288 153.7 328.2 142.7 342.9 115.4 368 96 368c-19.5 0-35.9-10.6-46.8-25.3-3.8-5.2-7.7-6.7-10-6.7-4 0-7.2 3.2-7.2 7.2L32 464c0 8.8 7.2 16 16 16l120.8 0c4 0 7.2-3.2 7.2-7.2 0-2.3-1.6-6.1-6.7-10-14.7-11-25.3-27.4-25.3-46.8 0-19.4 10.5-35.8 25.1-46.7s34.1-17.3 54.9-17.3 40.2 6.3 54.9 17.3 25.1 27.3 25.1 46.7c0 19.5-10.6 35.9-25.3 46.8-5.2 3.8-6.7 7.7-6.7 10 0 4 3.2 7.2 7.2 7.2l56.8 0c8.8 0 16-7.2 16-16l0-120.8c0-21.7 17.5-39.2 39.2-39.2 16.2 0 28.4 9.9 35.6 19.6 6.4 8.6 14.1 12.4 21.2 12.4 7.1 0 14.7-3.8 21.1-12.3s10.9-21.1 10.9-35.7-4.4-27.1-10.9-35.7-14.1-12.3-21.1-12.3c-7.1 0-14.8 3.8-21.2 12.4-7.2 9.7-19.4 19.6-35.6 19.6-21.7 0-39.2-17.5-39.2-39.2l0-56.8c0-8.8-7.2-16-16-16l-56.8 0c-21.7 0-39.2-17.5-39.2-39.2 0-16.2 9.9-28.4 19.6-35.6 8.6-6.4 12.4-14.1 12.4-21.2 0-7.1-3.8-14.7-12.3-21.1S238.5 32 224 32 196.9 36.4 188.3 42.9z"/></svg>