<svg xmlns="http://www.w3.org/2000/svg" viewBox="0 0 512 512"><!--! Font Awesome Pro 7.0.0 by @fontawesome - https://fontawesome.com License - https://fontawesome.com/license (Commercial License) Copyright 2025 Fonticons, Inc. --><path fill="currentColor" d="M64 96c-17.7 0-32 14.3-32 32l0 256c0 17.7 14.3 32 32 32l384 0c17.7 0 32-14.3 32-32l0-256c0-17.7-14.3-32-32-32L64 96zM0 128C0 92.7 28.7 64 64 64l384 0c35.3 0 64 28.7 64 64l0 256c0 35.3-28.7 64-64 64L64 448c-35.3 0-64-28.7-64-64L0 128zm164.7 36.7c6.2-6.2 16.4-6.2 22.6 0l68.7 68.7 68.7-68.7c6.2-6.2 16.4-6.2 22.6 0s6.2 16.4 0 22.6l-68.7 68.7 68.7 68.7c6.2 6.2 6.2 16.4 0 22.6s-16.4 6.2-22.6 0l-68.7-68.7-68.7 68.7c-6.2 6.2-16.4 6.2-22.6 0s-6.2-16.4 0-22.6l68.7-68.7-68.7-68.7c-6.2-6.2-6.2-16.4 0-22.6z"/></svg>