<svg xmlns="http://www.w3.org/2000/svg" viewBox="0 0 576 512"><!--! Font Awesome Pro 7.0.0 by @fontawesome - https://fontawesome.com License - https://fontawesome.com/license (Commercial License) Copyright 2025 Fonticons, Inc. --><path fill="currentColor" d="M371.8 2.4c12-5 25.7-2.2 34.9 6.9l160 160c12.5 12.5 12.5 32.8 0 45.3l-160 160c-9.2 9.2-22.9 11.9-34.9 6.9S352 364.9 352 352l0-80-144 0c-4.2 0-8.3-1.7-11.3-4.7S192 260.2 192 256l0-96-160 160 160 160 0-96c0-8.8 7.2-16 16-16l64 0c8.8 0 16 7.2 16 16s-7.2 16-16 16l-48 0 0 80c0 12.9-7.8 24.6-19.8 29.6s-25.7 2.2-34.9-6.9l-160-160c-12.5-12.5-12.5-32.8 0-45.3l160-160c9.2-9.2 22.9-11.9 34.9-6.9S224 147.1 224 160l0 80 144 0c4.2 0 8.3 1.7 11.3 4.7s4.7 7.1 4.7 11.3l0 96 160-160-160-160 0 96c0 8.8-7.2 16-16 16l-64 0c-8.8 0-16-7.2-16-16s7.2-16 16-16l48 0 0-80c0-12.9 7.8-24.6 19.8-29.6z"/></svg>