<svg xmlns="http://www.w3.org/2000/svg" viewBox="0 0 512 512"><!--! Font Awesome Pro 7.0.0 by @fontawesome - https://fontawesome.com License - https://fontawesome.com/license (Commercial License) Copyright 2025 Fonticons, Inc. --><path fill="currentColor" d="M476.7 128L384 220.7 384 35.3 476.7 128zM381.7 0C365.3 0 352 13.3 352 29.7l0 82.3-336 0c-8.8 0-16 7.2-16 16s7.2 16 16 16l336 0 0 82.3c0 16.4 13.3 29.7 29.7 29.7 7.9 0 15.4-3.1 21-8.7L505 145c4.5-4.5 7-10.6 7-17s-2.5-12.5-7-17L402.6 8.7c-5.6-5.6-13.1-8.7-21-8.7zM496 400c8.8 0 16-7.2 16-16s-7.2-16-16-16l-336 0 0-82.3c0-16.4-13.3-29.7-29.7-29.7-7.9 0-15.4 3.1-21 8.7L7 367c-4.5 4.5-7 10.6-7 17s2.5 12.5 7 17L109.4 503.3c5.6 5.6 13.1 8.7 21 8.7 16.4 0 29.7-13.3 29.7-29.7l0-82.3 336 0zM128 291.3l0 185.4-92.7-92.7 92.7-92.7z"/></svg>