<svg xmlns="http://www.w3.org/2000/svg" viewBox="0 0 448 512"><!--! Font Awesome Pro 7.0.0 by @fontawesome - https://fontawesome.com License - https://fontawesome.com/license (Commercial License) Copyright 2025 Fonticons, Inc. --><path fill="currentColor" d="M280.4 160a56 56 0 1 1 -112 0 56 56 0 1 1 112 0zm-56-24a24 24 0 1 0 0 48 24 24 0 1 0 0-48zM107.8 260.6L36.1 332.3c-12.2 12.2-16.9 30-12.4 46.6l26.2 95.9c6.5 23.7 36.1 31.6 53.5 14.2l75.8-75.8c25-25 65.5-25 90.5 0L345.4 489c17.4 17.4 47 9.5 53.5-14.2L425 378.9c4.5-16.6-.2-34.4-12.4-46.6L341 260.6c32.2-139.1-39.5-219.9-99.2-264.3-10.4-7.7-24.5-7.7-34.8 0-59.7 44.4-131.4 125.2-99.2 264.3zm51.8 127.1c-27.3 25-52.6 52.5-78.8 78.7L54.6 370.5c-1.5-5.5 .1-11.5 4.1-15.5l59.1-59.1c9.5 28.4 23.2 59 41.7 91.9zm171.4-91.9L390 354.9c4.1 4.1 5.6 10 4.1 15.5L368 466.4c-26.2-26.2-51.5-53.7-78.8-78.7 18.6-32.9 32.2-63.5 41.7-91.9zm-68.7 74.5c-24.1-10.4-51.7-10.4-75.8 0-55.6-99.3-61.7-171.8-49.1-223.8 13.7-56.7 51-96.1 87.1-123.3 36.1 27.2 73.4 66.6 87.1 123.3 12.6 52.1 6.5 124.5-49.1 223.8z"/></svg>