<svg xmlns="http://www.w3.org/2000/svg" viewBox="0 0 640 512"><!--! Font Awesome Pro 7.0.0 by @fontawesome - https://fontawesome.com License - https://fontawesome.com/license (Commercial License) Copyright 2025 Fonticons, Inc. --><path fill="currentColor" d="M521.9 32c-20.8 0-40.8 8.1-55.7 22.6L221.1 292.3c-2.3 2.3-5.4 3.5-8.7 3.5-6.9 0-12.5-5.6-12.5-12.5l0-4.5c0-2.3 .5-4.7 1.4-6.8l49-112.1 21.5 0c8.8 0 16-7.2 16-16s-7.2-16-16-16L16 128c-8.8 0-16 7.2-16 16s7.2 16 16 16l12.3 0-24.7 117.2C1.2 288.6 0 300.2 0 311.8l0 5.6c0 89.8 72.8 162.6 162.6 162.6 48.8 0 94.9-21.9 125.8-59.6L522.8 133.9c3-3.7 7.6-5.9 12.4-5.9l77.5 0c15.1 0 27.3-12.2 27.3-27.3 0-7.2-2.9-14.2-8-19.3L606.1 55.4c-15-15-35.4-23.4-56.6-23.4l-27.6 0zM61 160l154.6 0-43.4 99.3c-2.7 6.2-4.1 12.9-4.1 19.6l0 4.5c0 24.6 19.9 44.5 44.5 44.5 11.6 0 22.7-4.5 31-12.5L488.5 77.5c9-8.7 20.9-13.5 33.4-13.5l27.6 0c12.7 0 24.9 5.1 33.9 14.1l17.9 17.9-66.2 0c-14.4 0-28 6.5-37.2 17.6L263.6 400.1C238.8 430.4 201.7 448 162.6 448 90.5 448 32 389.5 32 317.4l0-5.6c0-9.4 1-18.8 2.9-28.1L61 160zm43 176a24 24 0 1 0 0-48 24 24 0 1 0 0 48zm40-104a24 24 0 1 0 -48 0 24 24 0 1 0 48 0z"/></svg>