<svg xmlns="http://www.w3.org/2000/svg" viewBox="0 0 640 512"><!--! Font Awesome Pro 7.0.0 by @fontawesome - https://fontawesome.com License - https://fontawesome.com/license (Commercial License) Copyright 2025 Fonticons, Inc. --><path fill="currentColor" d="M268.2 19.3c11.6-9.2 28-9.2 39.7 0L445.6 128 512 128c35.3 0 64 28.7 64 64l0 33.4c-10.2-4.7-20.9-8.5-32-11.4l0-22c0-17.7-14.3-32-32-32l-72 0c-3.6 0-7.1-1.2-9.9-3.4L288 44.4 145.9 156.6c-2.8 2.2-6.3 3.4-9.9 3.4l-72 0c-17.7 0-32 14.3-32 32l0 256c0 17.7 14.3 32 32 32l160 0 0-96c0-26.5 21.5-48 48-48l32 0c3.6 0 7.1 .4 10.5 1.2-3.5 10-6.1 20.4-7.9 31.1-.9-.1-1.7-.2-2.6-.2l-32 0c-8.8 0-16 7.2-16 16l0 96 64 0 0 0 1.4 0c5.2 11.3 11.4 22 18.6 32L64 512c-35.3 0-64-28.7-64-64L0 192c0-35.3 28.7-64 64-64l66.4 0 137.7-108.7zM144 384c0 8.8-7.2 16-16 16l-16 0c-8.8 0-16-7.2-16-16l0-16c0-8.8 7.2-16 16-16l16 0c8.8 0 16 7.2 16 16l0 16zm-16-96l-16 0c-8.8 0-16-7.2-16-16l0-16c0-8.8 7.2-16 16-16l16 0c8.8 0 16 7.2 16 16l0 16c0 8.8-7.2 16-16 16zm160-64a32 32 0 1 0 0-64 32 32 0 1 0 0 64zm0-96a64 64 0 1 1 0 128 64 64 0 1 1 0-128zM608 400a112 112 0 1 0 -224 0 112 112 0 1 0 224 0zm-256 0a144 144 0 1 1 288 0 144 144 0 1 1 -288 0zm144 44a20 20 0 1 1 0 40 20 20 0 1 1 0-40zm0-124c8.8 0 16 7.2 16 16l0 64c0 8.8-7.2 16-16 16s-16-7.2-16-16l0-64c0-8.8 7.2-16 16-16z"/></svg>