<svg xmlns="http://www.w3.org/2000/svg" viewBox="0 0 512 512"><!--! Font Awesome Pro 7.0.0 by @fontawesome - https://fontawesome.com License - https://fontawesome.com/license (Commercial License) Copyright 2025 Fonticons, Inc. --><path fill="currentColor" d="M64 32l105.4 0 80 80 45.3 0-80-80 73.4 0c17.7 0 32 14.3 32 32l0 48 32 0 0-48c0-35.3-28.7-64-64-64L64 0C28.7 0 0 28.7 0 64L0 288c0 35.3 28.7 64 64 64l48 0 0-32-48 0c-17.7 0-32-14.3-32-32l0-73.4 80 80 0-45.3-80-80 0-105.4c0-2.9 .4-5.6 1.1-8.3L134.3 156.9c6.4-8.6 14-16.2 22.6-22.6L55.7 33.1c2.6-.7 5.4-1.1 8.3-1.1zM224 192l224 0c17.7 0 32 14.3 32 32l0 224c0 17.7-14.3 32-32 32l-224 0c-17.7 0-32-14.3-32-32l0-224c0-17.7 14.3-32 32-32zm-64 32l0 224c0 35.3 28.7 64 64 64l224 0c35.3 0 64-28.7 64-64l0-224c0-35.3-28.7-64-64-64l-224 0c-35.3 0-64 28.7-64 64z"/></svg>