<svg xmlns="http://www.w3.org/2000/svg" viewBox="0 0 576 512"><!--! Font Awesome Pro 7.0.0 by @fontawesome - https://fontawesome.com License - https://fontawesome.com/license (Commercial License) Copyright 2025 Fonticons, Inc. --><path fill="currentColor" d="M416 208c-5.3-5.3-122.6-123.6-160-161.3l0 97.3c0 8.8-7.2 16-16 16l-64 0c-79.5 0-144 64.5-144 144 0 43.8 15.5 76.7 33.7 100.1-1.1-6.3-1.7-13-1.7-20.1 0-70.7 57.3-128 128-128l48 0c8.8 0 16 7.2 16 16l0 97.3c37.4-37.7 154.7-156 160-161.3zM251.3 8c7.1 0 14 2.7 19.3 8 23.1 23.3 162.3 163.7 168 169.4 12.5 12.5 12.5 32.8 0 45.3-5.7 5.7-145 146.1-168 169.4-5.3 5.3-12.2 8-19.3 8-15.1 0-27.3-12.2-27.3-27.3l0-92.7-32 0c-53 0-96 43-96 96 0 27.4 11.2 44.1 26.2 66.5l3.1 4.6c4 6 3.5 14-1.3 19.5s-12.7 7-19.2 3.7C87.2 469.5 0 417.5 0 304 0 206.8 78.8 128 176 128l48 0 0-92.7C224 20.2 236.2 8 251.3 8zM372.7 36.7c-6.2-6.2-6.2-16.4 0-22.6s16.4-6.2 22.6 0L566.6 185.4c12.5 12.5 12.5 32.8 0 45.3L395.3 401.9c-6.2 6.2-16.4 6.2-22.6 0s-6.2-16.4 0-22.6L544 208 372.7 36.7z"/></svg>