<svg xmlns="http://www.w3.org/2000/svg" viewBox="0 0 576 512"><!--! Font Awesome Pro 7.0.0 by @fontawesome - https://fontawesome.com License - https://fontawesome.com/license (Commercial License) Copyright 2025 Fonticons, Inc. --><path fill="currentColor" d="M27.3-27.2c-6.2-6.2-16.4-6.2-22.6 0s-6.2 16.4 0 22.6l544 544c6.2 6.2 16.4 6.2 22.6 0s6.2-16.4 0-22.6L447.4 392.9c62.3-85.3 80.3-187.1 80.6-252.9 .1-26.2-16.3-47.9-38.3-57.2L313 7.8c-16-6.8-34-6.8-50 0L122.1 67.6 27.3-27.2zM146.5 92l129-54.7c8-3.4 17-3.4 25 0l176.7 75c11.3 4.8 18.9 15.5 18.8 27.6-.3 61.2-16.9 152.9-71.6 230.1L146.5 92zM48 140c.5 99.2 41.3 280.7 213.6 363.2 16.7 8 36.1 8 52.8 0 30.2-14.4 56.3-31.9 78.9-51.4L370.5 429c-20.2 17.2-43.4 32.6-69.9 45.3-7.9 3.8-17.2 3.8-25.1 0-156.1-74.7-195-240.4-195.4-334.5 0-.4 0-.9 0-1.3L54.3 112.8c-4 8.1-6.3 17.3-6.3 27.2z"/></svg>