<svg xmlns="http://www.w3.org/2000/svg" viewBox="0 0 640 512"><!--! Font Awesome Pro 7.0.0 by @fontawesome - https://fontawesome.com License - https://fontawesome.com/license (Commercial License) Copyright 2025 Fonticons, Inc. --><path fill="currentColor" d="M272 32c-8.8 0-16 7.2-16 16l0 16 128 0 0-16c0-8.8-7.2-16-16-16l-96 0zM224 64l0-16c0-26.5 21.5-48 48-48l96 0c26.5 0 48 21.5 48 48l0 16 16 0c44.2 0 80 35.8 80 80l0 108.8 21.6 8.6c14.8 5.9 22.5 22.4 17.4 37.5-11 33-28.6 62.3-51.1 86.8-11.8-4.4-24.1-7.3-36.5-8.8 25.3-23.1 45-52.6 56.6-86.5L336 216.9 336 417.5c-6.5 3.7-10.7 5.3-13.2 6L320 424c-1.1 0-5.6-.7-16-6.5l0-200.6-184.1 73.6c11.6 33.9 31.4 63.4 56.6 86.5-12.4 1.4-24.6 4.4-36.5 8.8-22.5-24.5-40.1-53.9-51.1-86.8-5.1-15.2 2.6-31.6 17.4-37.5l21.6-8.6 0-108.8c0-44.2 35.8-80 80-80l16 0zm256 80c0-26.5-21.5-48-48-48L208 96c-26.5 0-48 21.5-48 48l0 96 136.2-54.5c15.3-6.1 32.3-6.1 47.5 0L480 240 480 144zM402 469.9c-25.6 18.3-52.9 34.1-82 34.1s-56.4-15.8-82-34.1c-26-18.6-61.1-18.6-87.1 0-24.7 17.6-54.6 33.7-86.9 33.5-19.3-.1-38.6-6-57.2-19.3-7.2-5.1-8.9-15.1-3.7-22.3s15.1-8.9 22.3-3.7c13.4 9.6 26.4 13.3 38.8 13.3 22 .1 45-11 68.2-27.5 37.1-26.5 87.1-26.5 124.3 0 25.3 18.1 45.3 28.1 63.5 28.1s38.1-10.1 63.5-28.1c37.1-26.5 87.1-26.5 124.3 0 18.2 13 36.5 22.8 54.4 26.2 17.2 3.3 34.6 .8 52.6-12 7.2-5.1 17.2-3.5 22.3 3.7s3.5 17.2-3.7 22.3c-25.6 18.2-52 22.2-77.2 17.4-24.5-4.7-47.2-17.5-67-31.6-26-18.6-61.1-18.6-87.1 0z"/></svg>