<svg xmlns="http://www.w3.org/2000/svg" viewBox="0 0 640 512"><!--! Font Awesome Pro 7.0.0 by @fontawesome - https://fontawesome.com License - https://fontawesome.com/license (Commercial License) Copyright 2025 Fonticons, Inc. --><path fill="currentColor" d="M491.4-11.3c-6.2-6.2-16.4-6.2-22.6 0L424.7 32.8c-15.7 15.7-24.6 37.1-24.6 59.3 0 17.4 5.3 33.5 14.3 46.9l-121.7 121.7-64-64c-19.8-19.8-52.2-18.5-70.4 2.7L29.1 350.3c-16.3 19-15.2 47.4 2.5 65.2L160.7 544.6c17.7 17.7 46.1 18.8 65.2 2.5L376.8 417.7c21.2-18.2 22.5-50.6 2.7-70.4l-64-64 121.7-121.7c13.4 9.1 29.5 14.3 46.9 14.3 22.2 0 43.6-8.8 59.3-24.6l44.1-44.1c6.2-6.2 6.2-16.4 0-22.6l-96-96zM447.3 55.4l32.8-32.8 73.4 73.4-32.8 32.8c-9.7 9.7-22.9 15.2-36.7 15.2-28.7 0-51.9-23.2-51.9-51.9 0-13.8 5.5-27 15.2-36.7zM182.7 220.2c6.1-7.1 16.9-7.5 23.5-.9L356.8 370c6.6 6.6 6.2 17.4-.9 23.5L205.1 522.8c-6.3 5.4-15.8 5.1-21.7-.8L54.2 392.8c-5.9-5.9-6.3-15.4-.8-21.7L182.7 220.2zm36.8 95.1c6.2-6.2 6.2-16.4 0-22.6s-16.4-6.2-22.6 0l-80 80c-6.2 6.2-6.2 16.4 0 22.6s16.4 6.2 22.6 0l80-80zm64 64c6.2-6.2 6.2-16.4 0-22.6s-16.4-6.2-22.6 0l-80 80c-6.2 6.2-6.2 16.4 0 22.6s16.4 6.2 22.6 0l80-80z"/></svg>