<svg xmlns="http://www.w3.org/2000/svg" viewBox="0 0 512 512"><!--! Font Awesome Pro 7.0.0 by @fontawesome - https://fontawesome.com License - https://fontawesome.com/license (Commercial License) Copyright 2025 Fonticons, Inc. --><path fill="currentColor" d="M80 0c8.8 0 16 7.2 16 16l0 48 400 0c8.8 0 16 7.2 16 16s-7.2 16-16 16L96 96 96 496c0 8.8-7.2 16-16 16s-16-7.2-16-16l0-400-48 0C7.2 96 0 88.8 0 80S7.2 64 16 64l48 0 0-48C64 7.2 71.2 0 80 0zM208 192c-8.8 0-16 7.2-16 16l0 128c0 8.8 7.2 16 16 16l224 0c8.8 0 16-7.2 16-16l0-128c0-8.8-7.2-16-16-16l-224 0zm-48 16c0-26.5 21.5-48 48-48l224 0c26.5 0 48 21.5 48 48l0 128c0 26.5-21.5 48-48 48l-224 0c-26.5 0-48-21.5-48-48l0-128z"/></svg>