<svg xmlns="http://www.w3.org/2000/svg" viewBox="0 0 512 512"><!--! Font Awesome Pro 7.0.0 by @fontawesome - https://fontawesome.com License - https://fontawesome.com/license (Commercial License) Copyright 2025 Fonticons, Inc. --><path fill="currentColor" d="M256 0c8.8 0 16 7.2 16 16l0 80 152 0c8.8 0 16 7.2 16 16s-7.2 16-16 16l-152 0 0 64 216 0c8.8 0 16 7.2 16 16s-7.2 16-16 16l-216 0 0 64 120 0c8.8 0 16 7.2 16 16s-7.2 16-16 16l-120 0 0 96 64 0c44.2 0 80 35.8 80 80 0 8.8-7.2 16-16 16s-16-7.2-16-16c0-26.5-21.5-48-48-48l-160 0c-26.5 0-48 21.5-48 48 0 8.8-7.2 16-16 16s-16-7.2-16-16c0-44.2 35.8-80 80-80l64 0 0-96-120 0c-8.8 0-16-7.2-16-16s7.2-16 16-16l120 0 0-64-216 0c-8.8 0-16-7.2-16-16s7.2-16 16-16l216 0 0-64-152 0c-8.8 0-16-7.2-16-16s7.2-16 16-16l152 0 0-80c0-8.8 7.2-16 16-16z"/></svg>