<svg xmlns="http://www.w3.org/2000/svg" viewBox="0 0 640 512"><!--! Font Awesome Pro 7.0.0 by @fontawesome - https://fontawesome.com License - https://fontawesome.com/license (Commercial License) Copyright 2025 Fonticons, Inc. --><path fill="currentColor" d="M454.5 32.3C486.8 35.6 512 62.9 512 96l0 320-.3 6.5c-.9 9.2-3.8 17.8-8.3 25.5l24.6 0c26.5 0 48-21.5 48-48l0-210.8c-18.6-6.6-32-24.3-32-45.2 0-26.5 21.5-48 48-48s48 21.5 48 48c0 20.9-13.4 38.6-32 45.2L608 400c0 44.2-35.8 80-80 80l-432 0-6.5-.3c-30.1-3.1-54.1-27-57.1-57.1L32 416 32 96c0-33.1 25.2-60.4 57.5-63.7l6.5-.3 352 0 6.5 .3zM96 64C79.4 64 65.8 76.6 64.2 92.7L64 96 64 416c0 17.7 14.3 32 32 32l352 0c17.7 0 32-14.3 32-32l0-320c0-16.6-12.6-30.2-28.7-31.8L448 64 96 64zm99.7 96.4c3.6 .9 6.9 3 9.1 6s3.3 6.8 3.1 10.5l-.7 3.7-48 160c-2.5 8.5-11.4 13.3-19.9 10.7s-13.3-11.4-10.7-19.9L170.5 192 144 192c-8.8 0-16-7.2-16-16s7.2-16 16-16l48 0 3.7 .4zm112 0c3.6 .9 6.9 3 9.1 6s3.3 6.8 3.1 10.5l-.7 3.7-48 160c-2.5 8.5-11.4 13.3-19.9 10.7s-13.3-11.4-10.7-19.9L282.5 192 256 192c-8.8 0-16-7.2-16-16s7.2-16 16-16l48 0 3.7 .4zm112 0c3.6 .9 6.9 3 9.1 6s3.3 6.8 3.1 10.5l-.7 3.7-48 160c-2.5 8.5-11.4 13.3-19.9 10.7s-13.3-11.4-10.7-19.9L394.5 192 368 192c-8.8 0-16-7.2-16-16s7.2-16 16-16l48 0 3.7 .4zM592 128a16 16 0 1 0 0 32 16 16 0 1 0 0-32z"/></svg>