<svg xmlns="http://www.w3.org/2000/svg" viewBox="0 0 640 512"><!--! Font Awesome Pro 7.0.0 by @fontawesome - https://fontawesome.com License - https://fontawesome.com/license (Commercial License) Copyright 2025 Fonticons, Inc. --><path fill="currentColor" d="M480-16c8.8 0 16 7.2 16 16l0 32 32 0c8.8 0 16 7.2 16 16s-7.2 16-16 16l-32 0 0 32c0 8.8-7.2 16-16 16s-16-7.2-16-16l0-32-32 0c-8.8 0-16-7.2-16-16s7.2-16 16-16l32 0 0-32c0-8.8 7.2-16 16-16zM224 64c8.8 0 16 7.2 16 16l0 73.4 20.7-20.7c6.2-6.2 16.4-6.2 22.6 0s6.2 16.4 0 22.6l-43.3 43.3 0 61.7 53.4-30.8 15.9-59.2c2.3-8.5 11.1-13.6 19.6-11.3s13.6 11.1 11.3 19.6l-7.6 28.3 63.5-36.7c7.7-4.4 17.4-1.8 21.9 5.9s1.8 17.4-5.9 21.9l-63.5 36.7 28.3 7.6c8.5 2.3 13.6 11.1 11.3 19.6s-11.1 13.6-19.6 11.3l-59.2-15.9-53.4 30.8 53.4 30.8 59.2-15.9c8.5-2.3 17.3 2.8 19.6 11.3s-2.8 17.3-11.3 19.6l-28.3 7.6 63.5 36.7c7.7 4.4 10.3 14.2 5.9 21.9s-14.2 10.3-21.9 5.9l-63.5-36.7 7.6 28.3c2.3 8.5-2.8 17.3-11.3 19.6s-17.3-2.8-19.6-11.3l-15.9-59.2-53.4-30.8 0 61.7 43.3 43.3c6.2 6.2 6.2 16.4 0 22.6s-16.4 6.2-22.6 0L240 422.6 240 496c0 8.8-7.2 16-16 16s-16-7.2-16-16l0-73.4-20.7 20.7c-6.2 6.2-16.4 6.2-22.6 0s-6.2-16.4 0-22.6l43.3-43.3 0-61.7-53.4 30.8-15.9 59.2c-2.3 8.5-11.1 13.6-19.6 11.3s-13.6-11.1-11.3-19.6l7.6-28.3-63.5 36.7c-7.7 4.4-17.4 1.8-21.9-5.9s-1.8-17.4 5.9-21.9l63.5-36.7-28.3-7.6c-8.5-2.3-13.6-11.1-11.3-19.6S70.9 300.7 79.4 303l59.2 15.9 53.4-30.8-53.4-30.8-59.2 15.9c-8.5 2.3-17.3-2.8-19.6-11.3s2.8-17.3 11.3-19.6l28.3-7.6-63.5-36.7c-7.7-4.4-10.3-14.2-5.9-21.9s14.2-10.3 21.9-5.9l63.5 36.7-7.6-28.3c-2.3-8.5 2.8-17.3 11.3-19.6s17.3 2.8 19.6 11.3l15.9 59.2 53.4 30.8 0-61.7-43.3-43.3c-6.2-6.2-6.2-16.4 0-22.6s16.4-6.2 22.6 0L208 153.4 208 80c0-8.8 7.2-16 16-16zm352 96l0 32 32 0c8.8 0 16 7.2 16 16s-7.2 16-16 16l-32 0 0 32c0 8.8-7.2 16-16 16s-16-7.2-16-16l0-32-32 0c-8.8 0-16-7.2-16-16s7.2-16 16-16l32 0 0-32c0-8.8 7.2-16 16-16s16 7.2 16 16z"/></svg>