<svg xmlns="http://www.w3.org/2000/svg" viewBox="0 0 576 512"><!--! Font Awesome Pro 7.0.0 by @fontawesome - https://fontawesome.com License - https://fontawesome.com/license (Commercial License) Copyright 2025 Fonticons, Inc. --><path fill="currentColor" d="M256-32c8.8 0 16 7.2 16 16l0 105.4 36.7-36.7c6.2-6.2 16.4-6.2 22.6 0s6.2 16.4 0 22.6l-59.3 59.3 0 93.7 40.9-23.6c4.2 9.9 9.9 19.1 16.7 27.3l-41.6 24 81.1 46.8 81-21.7c1.4-.4 2.7-.5 4.1-.6l-18.3 37.5-27.6 7.4 18.7 10.8-14.1 28.8-20.6-11.9 10.5 39.2c-1.9 8.1-2.8 16.4-2.8 24.8 0 1 0 1.9 0 2.9-1.6 1.3-3.5 2.2-5.6 2.8-8.5 2.3-17.3-2.8-19.6-11.3l-21.7-81-81.1-46.8 0 93.7 59.3 59.3c6.2 6.2 6.2 16.4 0 22.6s-16.4 6.2-22.6 0L272 422.6 272 528c0 8.8-7.2 16-16 16s-16-7.2-16-16l0-105.4-36.7 36.7c-6.2 6.2-16.4 6.2-22.6 0s-6.2-16.4 0-22.6l59.3-59.3 0-93.7-81.1 46.8-21.7 81c-2.3 8.5-11.1 13.6-19.6 11.3s-13.6-11.1-11.3-19.6l13.4-50.1-91.3 52.7c-7.7 4.4-17.4 1.8-21.9-5.9s-1.8-17.4 5.9-21.9l91.3-52.7-50.1-13.4C45 309.7 40 301 42.3 292.4s11.1-13.6 19.6-11.3l81 21.7 81.1-46.8-81.1-46.8-81 21.7c-8.5 2.3-17.3-2.8-19.6-11.3S45 202.3 53.6 200l50.1-13.4-91.3-52.7C4.8 129.4 2.2 119.7 6.6 112s14.2-10.3 21.9-5.9l91.3 52.7-13.4-50.1c-2.3-8.5 2.8-17.3 11.3-19.6s17.3 2.8 19.6 11.3l21.7 81 81.1 46.8 0-93.7-59.3-59.3c-6.2-6.2-6.2-16.4 0-22.6s16.4-6.2 22.6 0L240 89.4 240-16c0-8.8 7.2-16 16-16zM416 88.5l-28.9 59.1c-2.1 4.2-3.1 8.8-3.1 13.5 0 17 13.8 30.8 30.8 30.8l2.4 0c17 0 30.8-13.8 30.8-30.8 0-4.7-1.1-9.3-3.1-13.5L416 88.5zm-57.6 45.1l46.1-94.4c2.1-4.4 6.6-7.2 11.5-7.2s9.4 2.8 11.5 7.2l46.1 94.4c4.2 8.6 6.4 18 6.4 27.6 0 34.7-28.1 62.8-62.8 62.8l-2.4 0c-34.7 0-62.8-28.1-62.8-62.8 0-9.6 2.2-19 6.4-27.6zm182.5 270l-28.9-59.1-28.9 59.1c-2.1 4.2-3.1 8.8-3.1 13.5 0 17 13.8 30.8 30.8 30.8l2.4 0c17 0 30.8-13.8 30.8-30.8 0-4.7-1.1-9.3-3.1-13.5zM448 417.2c0-9.6 2.2-19 6.4-27.6l46.1-94.4c2.1-4.4 6.6-7.2 11.5-7.2s9.4 2.8 11.5 7.2l46.1 94.4c4.2 8.6 6.4 18 6.4 27.6 0 34.7-28.1 62.8-62.8 62.8l-2.4 0c-34.7 0-62.8-28.1-62.8-62.8z"/></svg>