<svg xmlns="http://www.w3.org/2000/svg" viewBox="0 0 448 512"><!--! Font Awesome Pro 7.0.0 by @fontawesome - https://fontawesome.com License - https://fontawesome.com/license (Commercial License) Copyright 2025 Fonticons, Inc. --><path fill="currentColor" d="M64 64C46.3 64 32 78.3 32 96l0 320c0 17.7 14.3 32 32 32l320 0c17.7 0 32-14.3 32-32l0-320c0-17.7-14.3-32-32-32L64 64zM0 96C0 60.7 28.7 32 64 32l320 0c35.3 0 64 28.7 64 64l0 320c0 35.3-28.7 64-64 64L64 480c-35.3 0-64-28.7-64-64L0 96zm224 78.1l-29.2 65.9 58.4 0-29.2-65.9zm20.5-32.7l43.7 98.6 47.8 0c8.8 0 16 7.2 16 16s-7.2 16-16 16l-33.6 0 14.2 32 19.5 0c8.8 0 16 7.2 16 16s-7.2 16-16 16l-5.3 0 11.3 25.5c3.6 8.1-.1 17.5-8.2 21.1s-17.5-.1-21.1-8.2l-17-38.5-143.4 0-17 38.5c-3.6 8.1-13 11.7-21.1 8.2s-11.7-13-8.2-21.1l11.3-25.5-5.3 0c-8.8 0-16-7.2-16-16s7.2-16 16-16l19.5 0 14.2-32-33.6 0c-8.8 0-16-7.2-16-16s7.2-16 16-16l47.8 0 43.7-98.6c3.6-8.1 11.6-13.4 20.5-13.4s16.9 5.2 20.5 13.4zM180.6 272l-14.2 32 115.1 0-14.2-32-86.8 0z"/></svg>