<svg xmlns="http://www.w3.org/2000/svg" viewBox="0 0 448 512"><!--! Font Awesome Pro 7.0.0 by @fontawesome - https://fontawesome.com License - https://fontawesome.com/license (Commercial License) Copyright 2025 Fonticons, Inc. --><path fill="currentColor" d="M64 64C46.3 64 32 78.3 32 96l0 320c0 17.7 14.3 32 32 32l320 0c17.7 0 32-14.3 32-32l0-320c0-17.7-14.3-32-32-32L64 64zM0 96C0 60.7 28.7 32 64 32l320 0c35.3 0 64 28.7 64 64l0 320c0 35.3-28.7 64-64 64L64 480c-35.3 0-64-28.7-64-64L0 96zm160 64c0-35.3 28.7-64 64-64s64 28.7 64 64l0 96c0 35.3-28.7 64-64 64s-64-28.7-64-64l0-96zm64-32c-17.7 0-32 14.3-32 32l0 96c0 17.7 14.3 32 32 32s32-14.3 32-32l0-96c0-17.7-14.3-32-32-32zM112 224c8.8 0 16 7.2 16 16l0 16c0 53 43 96 96 96s96-43 96-96l0-16c0-8.8 7.2-16 16-16s16 7.2 16 16l0 16c0 65.3-48.9 119.1-112 127l0 17c0 8.8-7.2 16-16 16s-16-7.2-16-16l0-17c-63.1-7.9-112-61.7-112-127l0-16c0-8.8 7.2-16 16-16z"/></svg>