<svg xmlns="http://www.w3.org/2000/svg" viewBox="0 0 448 512"><!--! Font Awesome Pro 7.0.0 by @fontawesome - https://fontawesome.com License - https://fontawesome.com/license (Commercial License) Copyright 2025 Fonticons, Inc. --><path fill="currentColor" d="M64 64C46.3 64 32 78.3 32 96l0 320c0 17.7 14.3 32 32 32l320 0c17.7 0 32-14.3 32-32l0-320c0-17.7-14.3-32-32-32L64 64zM0 96C0 60.7 28.7 32 64 32l320 0c35.3 0 64 28.7 64 64l0 320c0 35.3-28.7 64-64 64L64 480c-35.3 0-64-28.7-64-64L0 96zm128 48l80 0c35.3 0 64 28.7 64 64l0 64c0 8.8-7.2 16-16 16s-16-7.2-16-16l0-64c0-17.7-14.3-32-32-32l-64 0 0 176c0 8.8-7.2 16-16 16s-16-7.2-16-16l0-192c0-8.8 7.2-16 16-16zm208 16l0 144c0 35.3-28.7 64-64 64l-80 0c-4.2 0-8.3-1.7-11.3-4.7S176 356.2 176 352l0-112c0-8.8 7.2-16 16-16s16 7.2 16 16l0 96 64 0c17.7 0 32-14.3 32-32l0-144c0-8.8 7.2-16 16-16s16 7.2 16 16z"/></svg>