<svg xmlns="http://www.w3.org/2000/svg" viewBox="0 0 576 512"><!--! Font Awesome Pro 7.0.0 by @fontawesome - https://fontawesome.com License - https://fontawesome.com/license (Commercial License) Copyright 2025 Fonticons, Inc. --><path fill="currentColor" d="M120 32l8 0c8.8 0 16 7.2 16 16s-7.2 16-16 16l-8 0c-30.9 0-56 25.1-56 56l0 8c0 8.8-7.2 16-16 16s-16-7.2-16-16l0-8c0-48.6 39.4-88 88-88zM48 192c8.8 0 16 7.2 16 16l0 96c0 8.8-7.2 16-16 16s-16-7.2-16-16l0-96c0-8.8 7.2-16 16-16zM64 384l0 8c0 30.9 25.1 56 56 56l126 0c2.9 11.1 6.7 21.8 11.4 32L120 480c-48.6 0-88-39.4-88-88l0-8c0-8.8 7.2-16 16-16s16 7.2 16 16zM480 120l0 94c-10.4-2.7-21-4.5-32-5.4l0-88.7c0-30.9-25.1-56-56-56l-8 0c-8.8 0-16-7.2-16-16s7.2-16 16-16l8 0c48.6 0 88 39.4 88 88zM320 48c0 8.8-7.2 16-16 16l-96 0c-8.8 0-16-7.2-16-16s7.2-16 16-16l96 0c8.8 0 16 7.2 16 16zM544 400a112 112 0 1 0 -224 0 112 112 0 1 0 224 0zm-256 0a144 144 0 1 1 288 0 144 144 0 1 1 -288 0zm160-64l0 48 48 0c8.8 0 16 7.2 16 16s-7.2 16-16 16l-48 0 0 48c0 8.8-7.2 16-16 16s-16-7.2-16-16l0-48-48 0c-8.8 0-16-7.2-16-16s7.2-16 16-16l48 0 0-48c0-8.8 7.2-16 16-16s16 7.2 16 16z"/></svg>