<svg xmlns="http://www.w3.org/2000/svg" viewBox="0 0 448 512"><!--! Font Awesome Pro 7.0.0 by @fontawesome - https://fontawesome.com License - https://fontawesome.com/license (Commercial License) Copyright 2025 Fonticons, Inc. --><path fill="currentColor" d="M64 64l320 0c17.7 0 32 14.3 32 32l0 320c0 17.7-14.3 32-32 32L64 448c-17.7 0-32-14.3-32-32L32 96c0-17.7 14.3-32 32-32zm0-32C28.7 32 0 60.7 0 96L0 416c0 35.3 28.7 64 64 64l320 0c35.3 0 64-28.7 64-64l0-320c0-35.3-28.7-64-64-64L64 32zm80 112l0 40-16 0c-8.8 0-16 7.2-16 16s7.2 16 16 16l16 0 0 16-16 0c-8.8 0-16 7.2-16 16s7.2 16 16 16l16 0 0 104c0 8.8 7.2 16 16 16s16-7.2 16-16l0-48 48 0c38.7 0 72.1-23 87.3-56l24.7 0c8.8 0 16-7.2 16-16s-7.2-16-16-16l-16.3 0c.2-2.6 .3-5.3 .3-8s-.1-5.4-.3-8l16.3 0c8.8 0 16-7.2 16-16s-7.2-16-16-16l-24.7 0c-15.2-33-48.5-56-87.3-56l-64 0c-8.8 0-16 7.2-16 16zm80 16c20.2 0 38.2 9.4 50 24l-98 0 0-24 48 0zm-48 72l0-16 111.5 0c.3 2.6 .5 5.3 .5 8s-.2 5.4-.5 8L176 232zm0 32l98 0c-11.7 14.6-29.7 24-50 24l-48 0 0-24z"/></svg>