<svg xmlns="http://www.w3.org/2000/svg" viewBox="0 0 576 512"><!--! Font Awesome Pro 7.0.0 by @fontawesome - https://fontawesome.com License - https://fontawesome.com/license (Commercial License) Copyright 2025 Fonticons, Inc. --><path fill="currentColor" d="M253.9 9.6C262.2 3.4 272.3 0 282.7 0L560 0c8.8 0 16 7.2 16 16s-7.2 16-16 16l-48 0 0 96 48 0c8.8 0 16 7.2 16 16s-7.2 16-16 16l-256 0 0 288c0 8.8-7.2 16-16 16l-51.3 0c-10.4 36.9-44.4 64-84.7 64s-74.2-27.1-84.7-64L48 464c-26.5 0-48-21.5-48-48L0 224c0-15.1 7.1-29.3 19.2-38.4L253.9 9.6zM239.6 432l32.4 0 0-256-230.4 172.8-9.6 7.2 0 60c0 8.8 7.2 16 16 16l16.4 0c4-44.9 41.7-80 87.6-80s83.6 35.1 87.6 80zM304 128l176 0 0-96-176 0 0 96zM272 36L38.4 211.2c-4 3-6.4 7.8-6.4 12.8l0 92 237.9-178.4c.7-.5 1.4-1 2.1-1.5L272 36zM208 440a56 56 0 1 0 -112 0 56 56 0 1 0 112 0zM469.5 240l-85.5 0 0 132.1c15.2-12.6 34.7-20.1 56-20.1 44.6 0 81.4 33.2 87.2 76.2 10-5.4 16.8-16 16.8-28.2l0-85.5c0-8.5-3.4-16.6-9.4-22.6l-42.5-42.5c-6-6-14.1-9.4-22.6-9.4zM352 384l0-144c0-17.7 14.3-32 32-32l85.5 0c17 0 33.3 6.7 45.3 18.7l42.5 42.5c12 12 18.7 28.3 18.7 45.3l0 85.5c0 30.9-21.9 56.6-50.9 62.7-10 37.6-44.3 65.3-85.1 65.3-48.6 0-88-39.4-88-88l0-56zm88 112a56 56 0 1 0 0-112 56 56 0 1 0 0 112z"/></svg>