<svg xmlns="http://www.w3.org/2000/svg" viewBox="0 0 512 512"><!--! Font Awesome Pro 7.0.0 by @fontawesome - https://fontawesome.com License - https://fontawesome.com/license (Commercial License) Copyright 2025 Fonticons, Inc. --><path fill="currentColor" d="M32 48c0-8.8-7.2-16-16-16S0 39.2 0 48L0 464c0 8.8 7.2 16 16 16s16-7.2 16-16l0-156.2 79.5 17C137.3 378.7 192.3 416 256 416s118.7-37.3 144.5-91.2l79.5-17 0 156.2c0 8.8 7.2 16 16 16s16-7.2 16-16l0-416c0-8.8-7.2-16-16-16s-16 7.2-16 16l0 156.2-79.5-17C374.7 133.3 319.7 96 256 96s-118.7 37.3-144.5 91.2L32 204.2 32 48zM412.5 222.5l67.5 14.5 0 38.1-67.5 14.5c2.3-10.8 3.5-22 3.5-33.5s-1.2-22.7-3.5-33.5zm-313 67.1l-67.5-14.5 0-38.1 67.5-14.5c-2.3 10.8-3.5 22-3.5 33.5s1.2 22.7 3.5 33.5zM256 128a128 128 0 1 1 0 256 128 128 0 1 1 0-256zm48 128a48 48 0 1 1 -96 0 48 48 0 1 1 96 0zm-48-80a80 80 0 1 0 0 160 80 80 0 1 0 0-160z"/></svg>