<svg xmlns="http://www.w3.org/2000/svg" viewBox="0 0 512 512"><!--! Font Awesome Pro 7.0.0 by @fontawesome - https://fontawesome.com License - https://fontawesome.com/license (Commercial License) Copyright 2025 Fonticons, Inc. --><path fill="currentColor" d="M429.8 287.9l-55.6 96.1 98.4 0c4.1 0 7.4-3.3 7.4-7.4 0-1.3-.3-2.6-1-3.7l-49.2-85zM411.3 256l-74.1-128-162.5 0-74.1 128 74.1 128 162.5 0 74.1-128zm37 0l58.4 100.9c3.5 6 5.3 12.8 5.3 19.7 0 21.7-17.6 39.4-39.4 39.4l-117 0-61.3 105.8C286.5 535.6 271.8 544 256 544s-30.5-8.4-38.4-22.2l-61.3-105.8-117 0c-21.7 0-39.4-17.6-39.4-39.4 0-6.9 1.8-13.7 5.3-19.7L63.7 256 5.3 155.1C1.8 149.1 0 142.3 0 135.4 0 113.6 17.6 96 39.4 96l117 0 61.3-105.8C225.5-23.6 240.2-32 256-32s30.5 8.4 38.4 22.2l61.3 105.8 117 0c21.7 0 39.4 17.6 39.4 39.4 0 6.9-1.8 13.7-5.3 19.7L448.3 256zM374.2 128l55.6 96.1 49.2-85c.6-1.1 1-2.4 1-3.7 0-4.1-3.3-7.4-7.4-7.4l-98.4 0zM318.7 96l-52-89.8C264.5 2.4 260.4 0 256 0s-8.5 2.4-10.7 6.2l-52 89.8 125.4 0zM137.8 128l-98.4 0c-4.1 0-7.4 3.3-7.4 7.4 0 1.3 .3 2.6 1 3.7l49.2 85 55.6-96.1zM82.2 287.9L33 373c-.6 1.1-1 2.4-1 3.7 0 4.1 3.3 7.4 7.4 7.4l98.4 0-55.6-96.1zM193.3 416l52 89.8c2.2 3.8 6.3 6.2 10.7 6.2s8.5-2.4 10.7-6.2l52-89.8-125.4 0z"/></svg>