<svg xmlns="http://www.w3.org/2000/svg" viewBox="0 0 576 512"><!--! Font Awesome Pro 7.0.0 by @fontawesome - https://fontawesome.com License - https://fontawesome.com/license (Commercial License) Copyright 2025 Fonticons, Inc. --><path fill="currentColor" d="M124.8 25.6c5.3-7.1 3.9-17.1-3.2-22.4S104.5-.7 99.2 6.4L9.6 125.9C3.4 134.2 0 144.3 0 154.7L0 357.3c0 10.4 3.4 20.5 9.6 28.8L99.2 505.6c5.3 7.1 15.3 8.5 22.4 3.2s8.5-15.3 3.2-22.4L35.2 366.9c-2.1-2.8-3.2-6.1-3.2-9.6l0-49.4 116.1 25.8C175.5 382.8 227.9 416 288 416s112.5-33.2 139.9-82.2l116.1-25.8 0 41.9c0 3.3-1 6.5-2.9 9.2L450.9 486.8c-5.1 7.2-3.4 17.2 3.8 22.3s17.2 3.4 22.3-3.8l90.1-127.7c5.7-8.1 8.8-17.8 8.8-27.7l0-202.6c0-10.9-3.7-21.5-10.5-30L476.5 6C471-.9 460.9-2 454 3.5s-8 15.6-2.5 22.5l89 111.2c2.3 2.8 3.5 6.4 3.5 10l0 56.8-116.1-25.8C400.5 129.2 348.1 96 288 96s-112.5 33.2-139.9 82.2L32 204.1 32 154.7c0-3.5 1.1-6.8 3.2-9.6L124.8 25.6zM442.5 214.3l101.5 22.6 0 38.3-101.5 22.6c3.6-13.3 5.5-27.3 5.5-41.7s-1.9-28.4-5.5-41.7zm-309 83.4L32 275.2 32 236.8 133.5 214.3c-3.6 13.3-5.5 27.3-5.5 41.7s1.9 28.4 5.5 41.7zM288 128a128 128 0 1 1 0 256 128 128 0 1 1 0-256zm48 128a48 48 0 1 1 -96 0 48 48 0 1 1 96 0zm-48-80a80 80 0 1 0 0 160 80 80 0 1 0 0-160z"/></svg>