<svg xmlns="http://www.w3.org/2000/svg" viewBox="0 0 512 512"><!--! Font Awesome Pro 7.0.0 by @fontawesome - https://fontawesome.com License - https://fontawesome.com/license (Commercial License) Copyright 2025 Fonticons, Inc. --><path fill="currentColor" d="M160 16c0-8.8-7.2-16-16-16s-16 7.2-16 16l0 64c0 61.9 50.1 112 112 112l20 0c-2.6 10.2-4 21-4 32l0 48c0 44.2-35.8 80-80 80l-64 0c-54.5 0-100 39-110 90.6-1.3 6.2-2 12.6-2 19.1L0 496c0 8.8 7.2 16 16 16s16-7.2 16-16l0-32c0-5.2 .5-10.2 1.4-15.1 3.8-16.7 14.9-31.2 30.6-39 24.8-12.4 56.5-5.7 78.4 15.2 38.9 37.2 104.1 86.9 177.6 86.9 106 0 192-86 192-192l0-96c0-70.7-57.3-128-128-128-47.4 0-88.7 25.7-110.9 64L240 160c-44.2 0-80-35.8-80-80l0-64zm4.5 386c-7.4-7.1-15.9-13.2-25-18l36.4 0c56.4 0 103.1-41.7 110.9-96l9.4 0c21.2 0 41.6 8.4 56.6 23.4l7.8 7.8c21 21 49.5 32.8 79.2 32.8l37 0c-14.8 73-79.4 128-156.8 128-60.3 0-117.5-41.7-155.5-78zM480 320l-40.2 0c-21.2 0-41.6-8.4-56.6-23.4l-7.8-7.8c-21-21-49.5-32.8-79.2-32.8l-8.2 0 0-32c0-53 43-96 96-96s96 43 96 96l0 96z"/></svg>