<svg xmlns="http://www.w3.org/2000/svg" viewBox="0 0 576 512"><!--! Font Awesome Pro 7.0.0 by @fontawesome - https://fontawesome.com License - https://fontawesome.com/license (Commercial License) Copyright 2025 Fonticons, Inc. --><path fill="currentColor" d="M128.3 64C106.8 64 88 78.2 82.1 98.8L37.2 256 224 256c17.7 0 32 14.3 32 32l64 0c0-17.7 14.3-32 32-32l186.8 0-44.9-157.2C488 78.2 469.2 64 447.7 64L416 64c-8.8 0-16-7.2-16-16s7.2-16 16-16l31.7 0c35.7 0 67.1 23.7 76.9 58l48.3 169c2 7.1 3.1 14.5 3.1 22l0 103c0 53-43 96-96 96l-64 0c-53 0-96-43-96-96l0-64-64 0 0 64c0 53-43 96-96 96l-64 0c-53 0-96-43-96-96L0 281c0-7.4 1-14.8 3.1-22L51.4 90c9.8-34.3 41.2-58 76.9-58L160 32c8.8 0 16 7.2 16 16s-7.2 16-16 16l-31.7 0zM518.7 288l-166.7 0 0 96c0 12.1 3.3 23.3 9.1 33L518.7 288zM544 308.7L384.1 439.5c9.4 5.4 20.3 8.5 31.9 8.5l64 0c35.3 0 64-28.7 64-64l0-75.3zM32 288l0 96c0 12.1 3.3 23.3 9.1 33L198.7 288 32 288zM96 448l64 0c35.3 0 64-28.7 64-64l0-75.3-159.9 130.8c9.4 5.4 20.3 8.5 31.9 8.5z"/></svg>