<svg xmlns="http://www.w3.org/2000/svg" viewBox="0 0 448 512"><!--! Font Awesome Pro 7.0.0 by @fontawesome - https://fontawesome.com License - https://fontawesome.com/license (Commercial License) Copyright 2025 Fonticons, Inc. --><path fill="currentColor" d="M384 64c17.7 0 32 14.3 32 32l0 144-256 0 0-176 224 0zm32 208l0 144c0 17.7-14.3 32-32 32l-224 0 0-176 256 0zM160 32L64 32C28.7 32 0 60.7 0 96L0 416c0 35.3 28.7 64 64 64l320 0c35.3 0 64-28.7 64-64l0-320c0-35.3-28.7-64-64-64L160 32zM64 448c-17.7 0-32-14.3-32-32L32 96c0-17.7 14.3-32 32-32l64 0 0 384-64 0z"/></svg>