<svg xmlns="http://www.w3.org/2000/svg" viewBox="0 0 512 512"><!--! Font Awesome Pro 7.0.0 by @fontawesome - https://fontawesome.com License - https://fontawesome.com/license (Commercial License) Copyright 2025 Fonticons, Inc. --><path fill="currentColor" d="M212.7 81.9L256 48.4 299.3 81.9C310.8 90.8 325 95.4 339.6 95l54.7-1.7 15.3 52.6c4.1 14 12.9 26.1 24.9 34.3l45.3 30.8-8.2 22.7c8.6 8.6 16.7 17.8 24.2 27.4l14.5-40.3c4.7-13.1 0-27.8-11.6-35.7l-46.1-31.4c-5.9-4-10.2-9.9-12.2-16.8L424.7 83.3c-3.9-13.4-16.4-22.5-30.4-22.1L338.6 63c-7.1 .2-14.1-2-19.7-6.4L274.8 22.4c-11-8.6-26.5-8.6-37.5 0L193.1 56.6c-5.6 4.4-12.6 6.6-19.7 6.4l-55.8-1.7c-14-.4-26.5 8.6-30.4 22.1L71.7 136.9c-2 6.8-6.3 12.8-12.2 16.8L13.4 185C1.9 192.9-2.9 207.6 1.8 220.7L16.3 261c7.5-9.6 15.6-18.8 24.2-27.4l-8.2-22.7 45.3-30.8c12-8.2 20.8-20.3 24.9-34.3l15.3-52.6 54.7 1.7c14.5 .4 28.8-4.2 40.3-13.1zM256 224c123.7 0 224 100.3 224 224L32 448c0-123.7 100.3-224 224-224zM32 480l448 0c17.7 0 32-14.3 32-32 0-141.4-114.6-256-256-256S0 306.6 0 448c0 17.7 14.3 32 32 32zm96-72a24 24 0 1 0 0-48 24 24 0 1 0 0 48zm88-88a24 24 0 1 0 -48 0 24 24 0 1 0 48 0z"/></svg>