<svg xmlns="http://www.w3.org/2000/svg" viewBox="0 0 512 512"><!--! Font Awesome Pro 7.0.0 by @fontawesome - https://fontawesome.com License - https://fontawesome.com/license (Commercial License) Copyright 2025 Fonticons, Inc. --><path fill="currentColor" d="M480 128l0 128-96 0c-35.3 0-64 28.7-64 64l0 96-256 0c-17.7 0-32-14.3-32-32l0-256c0-17.7 14.3-32 32-32l384 0c17.7 0 32 14.3 32 32zM466.7 288L352 402.7 352 320c0-17.7 14.3-32 32-32l82.7 0zM512 128c0-35.3-28.7-64-64-64L64 64C28.7 64 0 92.7 0 128L0 384c0 35.3 28.7 64 64 64l261.5 0c17 0 33.3-6.7 45.3-18.7L493.3 306.7c12-12 18.7-28.3 18.7-45.3L512 128zM96 184a24 24 0 1 0 0-48 24 24 0 1 0 0 48z"/></svg>