<svg xmlns="http://www.w3.org/2000/svg" viewBox="0 0 512 512"><!--! Font Awesome Pro 7.0.0 by @fontawesome - https://fontawesome.com License - https://fontawesome.com/license (Commercial License) Copyright 2025 Fonticons, Inc. --><path fill="currentColor" d="M192 32l0 32 128 0 0-32-128 0zM160 64l0-32c0-17.7 14.3-32 32-32L320 0c17.7 0 32 14.3 32 32l0 32 .8 0c44.5 0 83.1 30.5 93.4 73.8L459.4 193c29.9 5.4 52.6 31.5 52.6 63l0 208c0 8.8-7.2 16-16 16s-16-7.2-16-16l0-48-448 0 0 48c0 8.8-7.2 16-16 16S0 472.8 0 464L0 256c0-31.5 22.7-57.6 52.6-63l13.2-55.2C76.1 94.5 114.7 64 159.2 64l.8 0zM320 96L159.2 96c-29.6 0-55.4 20.3-62.3 49.2l-11.1 46.8 340.4 0-11.1-46.8C408.2 116.3 382.4 96 352.8 96L320 96zM433.8 224L64 224c-17.7 0-32 14.3-32 32l0 128 448 0 0-128c0-17.7-14.3-32-32-32l-14.2 0zM80 304a24 24 0 1 1 48 0 24 24 0 1 1 -48 0zm328-24a24 24 0 1 1 0 48 24 24 0 1 1 0-48z"/></svg>