<svg xmlns="http://www.w3.org/2000/svg" viewBox="0 0 512 512"><!--! Font Awesome Pro 7.0.0 by @fontawesome - https://fontawesome.com License - https://fontawesome.com/license (Commercial License) Copyright 2025 Fonticons, Inc. --><path fill="currentColor" d="M256 0c-50.7 0-94.4 29.4-115.2 72.1-1.6-.1-3.2-.1-4.8-.1-75.1 0-136 60.9-136 136S60.9 344 136 344c10.8 0 21.2-1.3 31.3-3.6 20.5 26.5 52.6 43.6 88.7 43.6s68.2-17.1 88.7-43.6c10.1 2.4 20.5 3.6 31.3 3.6 75.1 0 136-60.9 136-136S451.1 72 376 72c-1.6 0-3.2 0-4.8 .1-20.7-42.7-64.5-72.1-115.2-72.1zM166 94.5C179.6 58 214.8 32 256 32s76.4 26 90 62.5c2.6 7 9.6 11.2 17 10.3 4.3-.5 8.6-.8 13-.8 57.4 0 104 46.6 104 104S433.4 312 376 312c-11.5 0-22.6-1.9-32.9-5.3-7.1-2.4-14.8 .5-18.7 6.9-14.1 23.1-39.4 38.5-68.4 38.5s-54.3-15.4-68.4-38.5c-3.9-6.4-11.6-9.2-18.7-6.9-10.3 3.4-21.4 5.3-32.9 5.3-57.4 0-104-46.6-104-104S78.6 104 136 104c4.4 0 8.8 .3 13 .8 7.4 .9 14.4-3.3 17-10.3zM144 416a16 16 0 1 1 0 32 16 16 0 1 1 0-32zm0 64a48 48 0 1 0 0-96 48 48 0 1 0 0 96zm-88 0a24 24 0 1 0 -48 0 24 24 0 1 0 48 0z"/></svg>