<svg xmlns="http://www.w3.org/2000/svg" viewBox="0 0 512 512"><!--! Font Awesome Pro 7.0.0 by @fontawesome - https://fontawesome.com License - https://fontawesome.com/license (Commercial License) Copyright 2025 Fonticons, Inc. --><path fill="currentColor" d="M368 32l7.5 .4c32.4 3.9 56.5 32.4 56.4 64.2 25.5 14.8 37.7 46.1 29.2 74.2 21.5 21.6 24.6 56.1 7.7 81.2 25.9 38.1 2.2 95.8-47.3 99.8l-5.4 .2-151.5 0 30.8 54.7 3.1 6.2c12.9 29.5 3.1 64.1-23.2 82.7l-5.9 3.7c-30.7 17.2-69 8.1-88.9-20l-3.7-5.9-51.1-90.7C119.5 402 101.4 416 80 416l-32 0c-26.5 0-48-21.5-48-48L0 144c0-26.5 21.5-48 48-48l32 0c13.3 0 25.3 5.4 34 14.1 14.1-24.6 35.8-44.8 62.8-56.8l.1 0C199.1 43.5 224 32 253.6 32L368 32zM253.6 64c-21.7 0-40.3 8.2-63.9 18.6l0 0c-37.5 16.7-61.7 53.9-61.8 95l.2 130.7c.7 10.1 3.6 19.9 8.6 28.7l67.9 120.7 2 3.1c10.5 14.9 30.8 19.7 47.1 10.6l3.1-2c13.9-9.8 19-28.1 12.2-43.7l-1.6-3.3-44.2-78.5c-2.8-5-2.7-11 .1-15.9s8.1-7.9 13.8-7.9l178.8 0 5.2-.4c25-4.2 35.9-37.9 15.9-55.5-3.4-3-5.4-7.4-5.4-12s2-9 5.4-12c15.6-13.7 13.7-39.7-3.9-51-7.1-4.6-9.5-14-5.3-21.3 9.6-17 .9-40-17.9-46.1-7.8-2.5-12.4-10.6-10.7-18.7 4-18.2-9.4-36.5-27.5-38.7L368 64 253.6 64zM48 128c-8.8 0-16 7.2-16 16l0 224c0 8.8 7.2 16 16 16l32 0c8.8 0 16-7.2 16-16l0-224c0-8.8-7.2-16-16-16l-32 0z"/></svg>