<svg xmlns="http://www.w3.org/2000/svg" viewBox="0 0 640 512"><!--! Font Awesome Pro 7.0.0 by @fontawesome - https://fontawesome.com License - https://fontawesome.com/license (Commercial License) Copyright 2025 Fonticons, Inc. --><path fill="currentColor" d="M160 64c-17.7 0-32 14.3-32 32l0 224c0 17.7 14.3 32 32 32l384 0c17.7 0 32-14.3 32-32l0-38.7c-28.2-12.3-48-40.5-48-73.3s19.8-61 48-73.3L576 96c0-17.7-14.3-32-32-32L160 64zM96 96c0-35.3 28.7-64 64-64l384 0c35.3 0 64 28.7 64 64l0 48c0 8.8-7.4 15.7-15.7 18.6-18.8 6.5-32.3 24.4-32.3 45.4s13.5 38.9 32.3 45.4c8.3 2.9 15.7 9.8 15.7 18.6l0 48c0 35.3-28.7 64-64 64l-384 0c-35.3 0-64-28.7-64-64L96 96zM16 128c8.8 0 16 7.2 16 16l0 280c0 13.3 10.7 24 24 24l440 0c8.8 0 16 7.2 16 16s-7.2 16-16 16L56 480c-30.9 0-56-25.1-56-56L0 144c0-8.8 7.2-16 16-16zm306.3 42.9c1.6 4.9 .8 10.2-2.2 14.4s-7.8 6.6-13 6.6l-45.3 0c-4.2 0-8.3-1.7-11.3-4.7l-11.3-11.3-11.2 0 7.3 21.9c2.2 6.6 2.2 13.7 0 20.2l-7.3 21.9 11.2 0 11.3-11.3c3-3 7.1-4.7 11.3-4.7l45.3 0c5.1 0 10 2.5 13 6.6s3.8 9.5 2.2 14.4L308 288 328 288c2.8 0 5.5-1.5 6.9-4l30.4-52.1c2.9-4.9 8.1-7.9 13.8-7.9l52.9 0c8.8 0 16-7.2 16-16s-7.2-16-16-16l-52.9 0c-5.7 0-11-3-13.8-7.9L334.9 132c-1.4-2.5-4.1-4-6.9-4l-20 0 14.3 42.9zM296.9 96L328 96c14.2 0 27.4 7.6 34.6 19.8l0 0 25.8 44.2 43.7 0c26.5 0 48 21.5 48 48s-21.5 48-48 48l-43.7 0-25.8 44.2C355.4 312.4 342.2 320 328 320l-31.1 0c-16.4 0-27.9-16-22.8-31.6l10.8-32.4-16.5 0-6.6 6.6c-6 6-14.1 9.4-22.6 9.4l-22.3 0c-16.4 0-27.9-16-22.8-31.6l10.8-32.4-10.8-32.4c-5.2-15.5 6.4-31.6 22.8-31.6l22.3 0c8.5 0 16.6 3.4 22.6 9.4l6.6 6.6 16.5 0-10.8-32.4C268.9 112 280.5 96 296.9 96z"/></svg>