<svg xmlns="http://www.w3.org/2000/svg" viewBox="0 0 576 512"><!--! Font Awesome Pro 7.0.0 by @fontawesome - https://fontawesome.com License - https://fontawesome.com/license (Commercial License) Copyright 2025 Fonticons, Inc. --><path fill="currentColor" d="M64 96c-17.7 0-32 14.3-32 32l0 256c0 17.7 14.3 32 32 32l448 0c17.7 0 32-14.3 32-32l0-54.7c-28.2-12.3-48-40.5-48-73.3s19.8-61 48-73.3l0-54.7c0-17.7-14.3-32-32-32L64 96zM0 128C0 92.7 28.7 64 64 64l448 0c35.3 0 64 28.7 64 64l0 64c0 8.8-7.4 15.7-15.7 18.6-18.8 6.5-32.3 24.4-32.3 45.4s13.5 38.9 32.3 45.4c8.3 2.9 15.7 9.8 15.7 18.6l0 64c0 35.3-28.7 64-64 64L64 448c-35.3 0-64-28.7-64-64L0 128zm392 32a24 24 0 1 1 48 0 24 24 0 1 1 -48 0zm0 96a24 24 0 1 1 48 0 24 24 0 1 1 -48 0zm24 72a24 24 0 1 1 0 48 24 24 0 1 1 0-48zM193.8 218.9c1.6 4.9 .8 10.2-2.2 14.4s-7.8 6.6-13 6.6L136 240c-5 0-9.8-2.4-12.8-6.4l-19.2-25.6-3.5 0 10.1 40.2c1.3 5.1 1.3 10.4 0 15.5l-10.1 40.2 3.5 0 19.2-25.6c3-4 7.8-6.4 12.8-6.4l42.7 0c5.1 0 10 2.5 13 6.6s3.8 9.5 2.2 14.4l-19.6 58.9 20 0c2.8 0 5.5-1.5 6.9-4l39.7-68.1c2.9-4.9 8.1-7.9 13.8-7.9l49.3 0c8.8 0 16-7.2 16-16s-7.2-16-16-16l-49.3 0c-5.7 0-11-3-13.8-7.9L201.1 164c-1.4-2.5-4.1-4-6.9-4l-20 0 19.6 58.9zM163.1 128l31.1 0c14.2 0 27.4 7.6 34.6 19.8l35.1 60.2 40.1 0c26.5 0 48 21.5 48 48s-21.5 48-48 48l-40.1 0-35.1 60.2c-7.2 12.3-20.3 19.8-34.6 19.8l-31.1 0c-16.4 0-27.9-16-22.8-31.6l16.1-48.4-12.5 0-14.4 19.2c-6 8.1-15.5 12.8-25.6 12.8l-13.8 0c-15.6 0-27.1-14.7-23.3-29.8L79.5 256 67 205.8C63.2 190.7 74.6 176 90.2 176l13.8 0c10.1 0 19.6 4.7 25.6 12.8l14.4 19.2 12.5 0-16.1-48.4c-5.2-15.5 6.4-31.6 22.8-31.6z"/></svg>