<svg xmlns="http://www.w3.org/2000/svg" viewBox="0 0 576 512"><!--! Font Awesome Pro 7.0.0 by @fontawesome - https://fontawesome.com License - https://fontawesome.com/license (Commercial License) Copyright 2025 Fonticons, Inc. --><path fill="currentColor" d="M144 96a48 48 0 1 0 -96 0 48 48 0 1 0 96 0zm32 0c0 38.7-27.5 71-64 78.4l0 81.6 224 0 0-81.6c-36.5-7.4-64-39.7-64-78.4 0-44.2 35.8-80 80-80s80 35.8 80 80c0 38.7-27.5 71-64 78.4l0 81.6 153.4 0-44.7-44.7c-6.2-6.2-6.2-16.4 0-22.6s16.4-6.2 22.6 0l72 72c6.2 6.2 6.2 16.4 0 22.6l-72 72c-6.2 6.2-16.4 6.2-22.6 0s-6.2-16.4 0-22.6l44.7-44.7-281.4 0 0 49.6c36.5 7.4 64 39.7 64 78.4 0 44.2-35.8 80-80 80s-80-35.8-80-80c0-38.7 27.5-71 64-78.4l0-49.6-192 0c-8.8 0-16-7.2-16-16s7.2-16 16-16l64 0 0-81.6C43.5 167 16 134.7 16 96 16 51.8 51.8 16 96 16s80 35.8 80 80zm176 48a48 48 0 1 0 0-96 48 48 0 1 0 0 96zM272 416a48 48 0 1 0 -96 0 48 48 0 1 0 96 0z"/></svg>