<svg xmlns="http://www.w3.org/2000/svg" viewBox="0 0 512 512"><!--! Font Awesome Pro 7.0.0 by @fontawesome - https://fontawesome.com License - https://fontawesome.com/license (Commercial License) Copyright 2025 Fonticons, Inc. --><path fill="currentColor" d="M256 0c-8.8 0-16 7.2-16 16l0 96c0 8.8 7.2 16 16 16s16-7.2 16-16l0-79.4c116.2 8.2 208 105.1 208 223.4 0 123.7-100.3 224-224 224S32 379.7 32 256c0-61.9 25.1-117.8 65.6-158.4 6.2-6.2 6.2-16.4 0-22.6S81.2 68.7 75 75C28.7 121.3 0 185.3 0 256 0 397.4 114.6 512 256 512S512 397.4 512 256 397.4 0 256 0zM171.3 148.7c-6.2-6.2-16.4-6.2-22.6 0s-6.2 16.4 0 22.6l96 96c6.2 6.2 16.4 6.2 22.6 0s6.2-16.4 0-22.6l-96-96z"/></svg>