<svg xmlns="http://www.w3.org/2000/svg" viewBox="0 0 576 512"><!--! Font Awesome Pro 7.0.0 by @fontawesome - https://fontawesome.com License - https://fontawesome.com/license (Commercial License) Copyright 2025 Fonticons, Inc. --><path fill="currentColor" d="M416 128c70.7 0 128 57.3 128 128S486.7 384 416 384l-256 0C89.3 384 32 326.7 32 256S89.3 128 160 128l256 0zM576 256c0-88.4-71.6-160-160-160L160 96C71.6 96 0 167.6 0 256S71.6 416 160 416l256 0c88.4 0 160-71.6 160-160zm-352 0a64 64 0 1 1 -128 0 64 64 0 1 1 128 0zM64 256a96 96 0 1 0 192 0 96 96 0 1 0 -192 0z"/></svg>