<svg xmlns="http://www.w3.org/2000/svg" viewBox="0 0 320 512"><!--! Font Awesome Pro 7.0.0 by @fontawesome - https://fontawesome.com License - https://fontawesome.com/license (Commercial License) Copyright 2025 Fonticons, Inc. --><path fill="currentColor" d="M56 32C42.7 32 32 42.7 32 56l0 40 256 0 0-40c0-13.3-10.7-24-24-24L56 32zM32 448l256 0 0-112-24 0c-22.1 0-40-17.9-40-40l0-48c0-22.1 17.9-40 40-40l24 0 0-80-256 0 0 320zM288 304l0-64-24 0c-4.4 0-8 3.6-8 8l0 48c0 4.4 3.6 8 8 8l24 0zm32 32l0 160c0 8.8-7.2 16-16 16s-16-7.2-16-16l0-16-256 0 0 16c0 8.8-7.2 16-16 16S0 504.8 0 496L0 56C0 25.1 25.1 0 56 0L264 0c30.9 0 56 25.1 56 56l0 280z"/></svg>