<svg xmlns="http://www.w3.org/2000/svg" viewBox="0 0 576 512"><!--! Font Awesome Pro 7.0.0 by @fontawesome - https://fontawesome.com License - https://fontawesome.com/license (Commercial License) Copyright 2025 Fonticons, Inc. --><path fill="currentColor" d="M27.3-27.2c-6.2-6.2-16.4-6.2-22.6 0s-6.2 16.4 0 22.6l544 544c6.2 6.2 16.4 6.2 22.6 0s6.2-16.4 0-22.6l-36.2-36.2c5.7-9.5 8.9-20.7 8.9-32.6l0-224c0-50.8-11.2-97.5-30.1-132.1-18.6-34-46.8-59.9-81.9-59.9L144 32c-15.9 0-30.4 5.3-43.2 14.3L27.3-27.2zM124 69.5c6.7-3.7 13.5-5.5 20-5.5l225.3 0c-7.2 8.2-13.6 17.7-19.2 27.9-18.9 34.6-30.1 81.4-30.1 132.1 0 15.2 1 30.1 2.9 44.4L124 69.5zM365.2 310.7c-8.3-24.9-13.2-54.5-13.2-86.7 0-46.5 10.3-87.7 26.2-116.8 16.2-29.7 35.9-43.2 53.8-43.2s37.6 13.5 53.8 43.2C501.7 136.3 512 177.5 512 224s-10.3 87.7-26.2 116.8c-14.4 26.4-31.6 40-47.8 42.7l-72.8-72.8zm98 98c19.8-9.5 36.3-27.5 48.7-49.2l0 88.4c0 2.9-.4 5.7-1.1 8.4l-47.6-47.6zM32 224c0 50.8 11.2 97.5 30.1 132.1 18.6 34 46.8 59.9 81.9 59.9l16 0 0 32c0 35.3 28.7 64 64 64l229.5 0-32-32-197.5 0c-17.7 0-32-14.3-32-32l0-32 165.5 0-32-32-181.5 0c-17.9 0-37.6-13.5-53.8-43.2-15.9-29.1-26.2-70.3-26.2-116.8 0-32.7 5.1-62.8 13.6-87.9L52.8 111.3C39.6 143.1 32 182.2 32 224zm400 48c13.3 0 24-21.5 24-48s-10.7-48-24-48-24 21.5-24 48 10.7 48 24 48z"/></svg>