<svg xmlns="http://www.w3.org/2000/svg" viewBox="0 0 512 512"><!--! Font Awesome Pro 7.0.0 by @fontawesome - https://fontawesome.com License - https://fontawesome.com/license (Commercial License) Copyright 2025 Fonticons, Inc. --><path fill="currentColor" d="M272 0c0-8.8-7.2-16-16-16S240-8.8 240 0l0 40.4C223 25.2 200.6 16 176 16l-32 0c-17.7 0-32 14.3-32 32 0 26.4 10.6 50.3 27.9 67.6-83 30.7-139.9 96.2-139.9 188.4 0 130.9 114.6 208 256 208s256-77.1 256-208c0-92.2-56.9-157.7-139.9-188.4 17.2-17.4 27.9-41.2 27.9-67.6 0-17.7-14.3-32-32-32l-32 0c-24.6 0-47 9.2-64 24.4L272 0zM240 112l-32 0c-35.3 0-64-28.7-64-64l32 0c35.3 0 64 28.7 64 64zm-32 32l32 0c0 35.3-28.7 64-64 64l-32 0c0-35.3 28.7-64 64-64zm64 0l32 0c35.3 0 64 28.7 64 64l-32 0c-35.3 0-64-28.7-64-64zm32-32l-32 0c0-35.3 28.7-64 64-64l32 0c0 35.3-28.7 64-64 64zm80.6 43.8c12 6 23 12.8 32.9 20.5 38.8 29.9 62.5 72.7 62.5 127.7s-23.6 97.8-62.5 127.7C377.9 462.2 321.2 480 256 480S134.1 462.2 94.5 431.7C55.6 401.8 32 359 32 304s23.6-97.8 62.5-127.7c9.9-7.6 21-14.5 32.9-20.5-9.7 15-15.4 32.9-15.4 52.2 0 17.7 14.3 32 32 32l32 0c33.4 0 62.8-17 80-42.9 17.2 25.9 46.6 42.9 80 42.9l32 0c17.7 0 32-14.3 32-32 0-19.2-5.7-37.2-15.4-52.2z"/></svg>