<svg xmlns="http://www.w3.org/2000/svg" viewBox="0 0 448 512"><!--! Font Awesome Pro 7.0.0 by @fontawesome - https://fontawesome.com License - https://fontawesome.com/license (Commercial License) Copyright 2025 Fonticons, Inc. --><path fill="currentColor" d="M144 16c0-8.8 7.2-16 16-16L288 0c8.8 0 16 7.2 16 16s-7.2 16-16 16l-48 0 0 64 192 0c5 0 9.8 2.4 12.8 6.4s4 9.2 2.6 14L389.2 320 400 320c8.8 0 16 7.2 16 16s-7.2 16-16 16l-16 0 0 160-32 0 0-160-256 0 0 160-32 0 0-160-16 0c-8.8 0-16-7.2-16-16s7.2-16 16-16L58.8 320 .6 116.4c-1.4-4.8-.4-10 2.6-14S11 96 16 96l192 0 0-64-48 0c-8.8 0-16-7.2-16-16zM355.9 320l54.9-192-90.8 0 0 192 35.9 0zM288 320l0-192-128 0 0 192 128 0zm-160 0l0-192-90.8 0 54.9 192 35.9 0z"/></svg>