<svg xmlns="http://www.w3.org/2000/svg" viewBox="0 0 512 512"><!--! Font Awesome Pro 7.0.0 by @fontawesome - https://fontawesome.com License - https://fontawesome.com/license (Commercial License) Copyright 2025 Fonticons, Inc. --><path fill="currentColor" d="M167.9 32.5c8.6 2.1 13.8 10.8 11.6 19.4l-15 60.1 183 0-15-60.1c-2.1-8.6 3.1-17.3 11.6-19.4s17.3 3.1 19.4 11.6l17 67.9 51.5 0c8.8 0 16 7.2 16 16s-7.2 16-16 16l-43.5 0 24 96 51.5 0c8.8 0 16 7.2 16 16s-7.2 16-16 16l-43.5 0 24 96 51.5 0c8.8 0 16 7.2 16 16s-7.2 16-16 16l-43.5 0 15 60.1c2.1 8.6-3.1 17.3-11.6 19.4s-17.3-3.1-19.4-11.6l-17-67.9-327 0-17 67.9c-2.1 8.6-10.8 13.8-19.4 11.6s-13.8-10.8-11.6-19.4l15-60.1-43.5 0c-8.8 0-16-7.2-16-16s7.2-16 16-16l51.5 0 24-96-43.5 0c-8.8 0-16-7.2-16-16s7.2-16 16-16l51.5 0 24-96-43.5 0c-8.8 0-16-7.2-16-16s7.2-16 16-16l51.5 0 17-67.9c2.1-8.6 10.8-13.8 19.4-11.6zM156.5 144l-24 96 247 0-24-96-199 0zm231 128l-263 0-24 96 311 0-24-96z"/></svg>