<svg xmlns="http://www.w3.org/2000/svg" viewBox="0 0 640 512"><!--! Font Awesome Pro 7.0.0 by @fontawesome - https://fontawesome.com License - https://fontawesome.com/license (Commercial License) Copyright 2025 Fonticons, Inc. --><path fill="currentColor" d="M280.2 64.4C320.5 68.5 352 102.6 352 144l0 192-.4 8.2c-3.6 35.4-30.2 63.9-64.7 70.4l29.9 39.8 1.7 2.8c3.2 6.7 1.3 15-4.9 19.6-6.2 4.6-14.6 4.1-20.2-.8l-2.2-2.4-43.2-57.6-112 0-43.2 57.6c-5.3 7.1-15.3 8.5-22.4 3.2s-8.5-15.3-3.2-22.4L97 414.6c-34.4-6.5-61-35-64.6-70.4L32 336 32 144c0-41.4 31.5-75.5 71.8-79.6l8.2-.4 160 0 8.2 .4zM512 0c61.9 0 112 50.1 112 112 0 56.4-41.7 103.1-96 110.8L528 464c0 8.8-7.2 16-16 16s-16-7.2-16-16l0-241.2c-54.3-7.8-96-54.4-96-110.8 0-61.9 50.1-112 112-112zM64 336c0 26.5 21.5 48 48 48l160 0c26.5 0 48-21.5 48-48l0-80-256 0 0 80zm128 8a24 24 0 1 1 0-48 24 24 0 1 1 0 48zM112 96c-24.9 0-45.3 18.9-47.8 43.1l-.2 4.9 0 80 256 0 0-80c0-26.5-21.5-48-48-48L112 96zM512 32a80 80 0 1 0 0 160 80 80 0 1 0 0-160z"/></svg>