<svg xmlns="http://www.w3.org/2000/svg" viewBox="0 0 576 512"><!--! Font Awesome Pro 7.0.0 by @fontawesome - https://fontawesome.com License - https://fontawesome.com/license (Commercial License) Copyright 2025 Fonticons, Inc. --><path fill="currentColor" d="M288 0a24 24 0 1 1 0 48 24 24 0 1 1 0-48zm0 80a56 56 0 1 0 0-112 56 56 0 1 0 0 112zM144 544l288 0c8.8 0 16-7.2 16-16s-7.2-16-16-16l-288 0c-8.8 0-16 7.2-16 16s7.2 16 16 16zm64-432c-8.8 0-16 7.2-16 16s7.2 16 16 16l160 0c8.8 0 16-7.2 16-16s-7.2-16-16-16l-160 0zm-32 64c-8.8 0-16 7.2-16 16s7.2 16 16 16l224 0c8.8 0 16-7.2 16-16s-7.2-16-16-16l-224 0zm-32 64c-8.8 0-16 7.2-16 16s7.2 16 16 16l288 0c8.8 0 16-7.2 16-16s-7.2-16-16-16l-288 0zm-16 64c-8.8 0-16 7.2-16 16s7.2 16 16 16l320 0c8.8 0 16-7.2 16-16s-7.2-16-16-16l-320 0zm80 64c-8.8 0-16 7.2-16 16s7.2 16 16 16l160 0c8.8 0 16-7.2 16-16s-7.2-16-16-16l-160 0zm0 64c-8.8 0-16 7.2-16 16s7.2 16 16 16l160 0c8.8 0 16-7.2 16-16s-7.2-16-16-16l-160 0zM64 128l-7.3-25.4C55.6 98.7 52.1 96 48 96s-7.6 2.7-8.7 6.6L32 128 6.6 135.3C2.7 136.4 0 139.9 0 144s2.7 7.6 6.6 8.7L32 160 39.3 185.4c1.1 3.9 4.7 6.6 8.7 6.6s7.6-2.7 8.7-6.6L64 160 89.4 152.7c3.9-1.1 6.6-4.7 6.6-8.7s-2.7-7.6-6.6-8.7L64 128zM536.7 6.6C535.6 2.7 532.1 0 528 0s-7.6 2.7-8.7 6.6L512 32 486.6 39.3c-3.9 1.1-6.6 4.7-6.6 8.7s2.7 7.6 6.6 8.7L512 64 519.3 89.4c1.1 3.9 4.7 6.6 8.7 6.6s7.6-2.7 8.7-6.6L544 64 569.4 56.7c3.9-1.1 6.6-4.7 6.6-8.7s-2.7-7.6-6.6-8.7L544 32 536.7 6.6z"/></svg>