<svg xmlns="http://www.w3.org/2000/svg" viewBox="0 0 576 512"><!--! Font Awesome Pro 7.0.0 by @fontawesome - https://fontawesome.com License - https://fontawesome.com/license (Commercial License) Copyright 2025 Fonticons, Inc. --><path fill="currentColor" d="M160 0c0 8.8-7.2 16-16 16L70.6 16 128 73.4 148.7 52.7c6.2-6.2 16.4-6.2 22.6 0s6.2 16.4 0 22.6L150.6 96 178.2 123.6C206.9 96.6 245.5 80 288 80s81.1 16.6 109.8 43.6L505.4 16 432 16c-8.8 0-16-7.2-16-16s7.2-16 16-16l112 0c8.8 0 16 7.2 16 16l0 112c0 8.8-7.2 16-16 16s-16-7.2-16-16l0-73.4-109.2 109.2c18.4 26.1 29.2 57.9 29.2 92.2 0 83-63.1 151.2-144 159.2l0 48.8 48 0c8.8 0 16 7.2 16 16s-7.2 16-16 16l-48 0 0 48c0 8.8-7.2 16-16 16s-16-7.2-16-16l0-48-48 0c-8.8 0-16-7.2-16-16s7.2-16 16-16l48 0 0-48.8c-80.9-8-144-76.2-144-159.2 0-34.3 10.8-66.1 29.2-92.2l-29.2-29.2-20.7 20.7c-6.2 6.2-16.4 6.2-22.6 0s-6.2-16.4 0-22.6L105.4 96 48 38.6 48 112c0 8.8-7.2 16-16 16s-16-7.2-16-16L16 0c0-8.8 7.2-16 16-16l112 0c8.8 0 16 7.2 16 16zM288 368a128 128 0 1 0 0-256 128 128 0 1 0 0 256z"/></svg>