<svg xmlns="http://www.w3.org/2000/svg" viewBox="0 0 576 512"><!--! Font Awesome Pro 7.0.0 by @fontawesome - https://fontawesome.com License - https://fontawesome.com/license (Commercial License) Copyright 2025 Fonticons, Inc. --><path fill="currentColor" d="M192.5 27.4c2-6.8 8.3-11.4 15.3-11.4l96.4 0c7.1 0 13.3 4.6 15.3 11.4l11 36.6-149 0 11-36.6zM148.1 64L48 64c-8.8 0-16 7.2-16 16s7.2 16 16 16l416 0c8.8 0 16-7.2 16-16s-7.2-16-16-16l-100.1 0-13.7-45.8C344.1-2.1 325.4-16 304.2-16l-96.4 0c-21.2 0-39.9 13.9-46 34.2L148.1 64zM60.7 144L83.6 452.7c2.5 33.4 30.3 59.3 63.8 59.3L276 512c-7.2-10-13.4-20.7-18.6-32l-110 0c-16.8 0-30.7-12.9-31.9-29.6L92.8 144 60.7 144zm390.5 0l-32.1 0-4.8 64.8c12.1-1.1 23.1-.9 32.1-.3l4.8-64.5zM432 288a112 112 0 1 1 0 224 112 112 0 1 1 0-224zm0 256a144 144 0 1 0 0-288 144 144 0 1 0 0 288zm0-224c-8.8 0-16 7.2-16 16l0 64c0 8.8 7.2 16 16 16l48 0c8.8 0 16-7.2 16-16s-7.2-16-16-16l-32 0 0-48c0-8.8-7.2-16-16-16z"/></svg>