<svg xmlns="http://www.w3.org/2000/svg" viewBox="0 0 512 512"><!--! Font Awesome Pro 7.0.0 by @fontawesome - https://fontawesome.com License - https://fontawesome.com/license (Commercial License) Copyright 2025 Fonticons, Inc. --><path fill="currentColor" d="M272-16c0-8.8-7.2-16-16-16s-16 7.2-16 16l0 35.3c-7.8 3.4-14.5 9.3-18.9 17.1l-216 384c-7 12.4-6.8 27.5 .3 39.8S25.8 480 40 480l432 0c14.2 0 27.4-7.5 34.5-19.8s7.3-27.4 .3-39.8l-99.6-177.1-23.5 23.5 95.2 169.3c1.4 2.5 1.4 5.5-.1 8s-4.1 4-6.9 4L40 448c-2.8 0-5.5-1.5-6.9-4s-1.5-5.5-.1-8l0 0 216-384c1.4-2.5 4.1-4.1 7-4.1s5.6 1.6 7 4.1l0 0 80 142.3-60.4 60.4c-7.9-4.3-17-6.7-26.6-6.7-30.9 0-56 25.1-56 56s25.1 56 56 56 56-25.1 56-56c0-9.6-2.4-18.7-6.7-26.6 75.7-75.7 94.6-94.6 194-194 6.2-6.2 6.2-16.4 0-22.6s-16.4-6.2-22.6 0L366.5 170.9 290.9 36.4c-4.3-7.7-11-13.6-18.9-17.1L272-16zm8 320a24 24 0 1 1 -48 0 24 24 0 1 1 48 0z"/></svg>