<svg xmlns="http://www.w3.org/2000/svg" viewBox="0 0 320 512"><!--! Font Awesome Pro 7.0.0 by @fontawesome - https://fontawesome.com License - https://fontawesome.com/license (Commercial License) Copyright 2025 Fonticons, Inc. --><path fill="currentColor" d="M292.7 372.7c6.2-6.2 16.4-6.2 22.6 0 6.2 6.2 6.2 16.4 0 22.6l-144 144-2.5 2.1c-6.2 4.1-14.7 3.4-20.1-2.1l-144-144-2.1-2.5c-4.1-6.2-3.4-14.7 2.1-20.1 5.5-5.5 13.9-6.2 20.1-2.1l2.5 2.1 132.7 132.7 132.7-132.7zm0-192c6.2-6.2 16.4-6.2 22.6 0s6.2 16.4 0 22.6l-144 144-2.5 2.1c-6.2 4.1-14.7 3.4-20.1-2.1l-144-144-2.1-2.5c-4.1-6.2-3.4-14.7 2.1-20.1 5.5-5.5 13.9-6.2 20.1-2.1l2.5 2.1 132.7 132.7 132.7-132.7zm0-192c6.2-6.2 16.4-6.2 22.6 0s6.2 16.4 0 22.6l-144 144-2.5 2.1c-6.2 4.1-14.7 3.4-20.1-2.1L4.7 11.3 2.7 8.8c-4.1-6.2-3.4-14.7 2.1-20.1 5.5-5.5 13.9-6.2 20.1-2.1L27.4-11.3 160 121.4 292.7-11.3z"/></svg>