<svg xmlns="http://www.w3.org/2000/svg" viewBox="0 0 640 512"><!--! Font Awesome Pro 7.0.0 by @fontawesome - https://fontawesome.com License - https://fontawesome.com/license (Commercial License) Copyright 2025 Fonticons, Inc. --><path fill="currentColor" d="M16 32C7.2 32 0 39.2 0 48S7.2 64 16 64l16 0 0 96-16 0c-8.8 0-16 7.2-16 16s7.2 16 16 16l320 0c8.8 0 16-7.2 16-16s-7.2-16-16-16l-32 0 0-96 32 0c8.8 0 16-7.2 16-16s-7.2-16-16-16L16 32zM272 64l0 96-48 0 0-96 48 0zm-80 0l0 96-48 0 0-96 48 0zm-80 0l0 96-48 0 0-96 48 0zM384 272l192 0 0 80c0 17.7-14.3 32-32 32l-.4 0c-4-44.9-41.7-80-87.6-80s-83.6 35.1-87.6 80l-96.7 0c-4-44.9-41.7-80-87.6-80s-83.6 35.1-87.6 80L80 384c-8.8 0-16-7.2-16-16l0-80c0-8.8 7.2-16 16-16l304 0zm0-32L80 240c-26.5 0-48 21.5-48 48l0 80c0 26.5 21.5 48 48 48l19.3 0c10.4 36.9 44.4 64 84.7 64s74.2-27.1 84.7-64l102.6 0c10.4 36.9 44.4 64 84.7 64s74.2-27.1 84.7-64l3.3 0c35.3 0 64-28.7 64-64l0-95.4c0-11.4-3-22.1-8.1-31.1l-53.7-96.6C535 108.6 513.6 96 490.3 96L416 96c-17.7 0-32 14.3-32 32l0 112zm32 0l0-112 74.3 0c11.6 0 22.3 6.3 28 16.5L571.4 240 416 240zM128 392a56 56 0 1 1 112 0 56 56 0 1 1 -112 0zm328-56a56 56 0 1 1 0 112 56 56 0 1 1 0-112z"/></svg>