<svg xmlns="http://www.w3.org/2000/svg" viewBox="0 0 640 512"><!--! Font Awesome Pro 7.0.0 by @fontawesome - https://fontawesome.com License - https://fontawesome.com/license (Commercial License) Copyright 2025 Fonticons, Inc. --><path fill="currentColor" d="M64 64l352 0c17.7 0 32 14.3 32 32l0 277.4c-8.6 12.3-14.2 26.8-15.6 42.6l-112.7 0c-4-44.9-41.7-80-87.6-80-29.8 0-56.1 14.8-72 37.4-15.9-22.6-42.2-37.4-72-37.4-21.3 0-40.8 7.5-56 20.1L32 96c0-17.7 14.3-32 32-32zM0 384l0 40c0 48.6 39.4 88 88 88 29.8 0 56.1-14.8 72-37.4 15.9 22.6 42.2 37.4 72 37.4 40.3 0 74.2-27.1 84.7-64l118.6 0c10.4 36.9 44.4 64 84.7 64 43 0 78.9-30.9 86.5-71.7 20-10.8 33.5-32 33.5-56.3l0-156.1c0-17-6.7-33.3-18.7-45.3l-35.9-35.9c-12-12-28.3-18.7-45.3-18.7l-60.1 0 0-32c0-35.3-28.7-64-64-64L64 32C28.7 32 0 60.7 0 96L0 384zM480 160l60.1 0c8.5 0 16.6 3.4 22.6 9.4l35.9 35.9c6 6 9.4 14.1 9.4 22.6l0 28.1-128 0 0-96zM608 288l0 96c0 5.4-1.3 10.4-3.6 14.8-10.8-36.3-44.5-62.8-84.4-62.8-14.4 0-28 3.5-40 9.6l0-57.6 128 0zM88 368a56 56 0 1 1 0 112 56 56 0 1 1 0-112zm376 56a56 56 0 1 1 112 0 56 56 0 1 1 -112 0zM232 368a56 56 0 1 1 0 112 56 56 0 1 1 0-112z"/></svg>