<svg xmlns="http://www.w3.org/2000/svg" viewBox="0 0 576 512"><!--! Font Awesome Pro 7.0.0 by @fontawesome - https://fontawesome.com License - https://fontawesome.com/license (Commercial License) Copyright 2025 Fonticons, Inc. --><path fill="currentColor" d="M224 64l0 96 200 0-62.4-83.2C355.6 68.7 346.1 64 336 64L224 64zm-32 96l0-96c0-17.7 14.3-32 32-32l112 0c20.1 0 39.1 9.5 51.2 25.6L464 160 528 160c26.5 0 48 21.5 48 48l0 64c0 16.9-8.7 31.8-21.9 40.3 13.8 20.5 21.9 45.1 21.9 71.7 0 70.7-57.3 128-128 128S320 454.7 320 384c0-23.3 6.2-45.2 17.1-64l-98.2 0c10.9 18.8 17.1 40.7 17.1 64 0 70.7-57.3 128-128 128S0 454.7 0 384C0 357.4 8.1 332.8 21.9 312.3 8.7 303.8 0 288.9 0 272l0-64c0-26.5 21.5-48 48-48l144 0zM363.3 288c22.6-19.9 52.2-32 84.7-32 32.2 0 61.6 11.9 84.1 31.5 6.9-1.8 11.9-8 11.9-15.5l0-64c0-8.8-7.2-16-16-16L48 192c-8.8 0-16 7.2-16 16l0 64c0 7.4 5.1 13.7 11.9 15.5 22.5-19.6 51.9-31.5 84.1-31.5 32.5 0 62.1 12.1 84.7 32l150.7 0zM128 464c8.4 0 15.3 6.5 15.9 14.7 14.6-2.4 28.1-8.2 39.7-16.5-5.3-6.3-5-15.7 .9-21.7s15.4-6.2 21.7-.9c8.3-11.6 14-25.1 16.5-39.7-8.2-.7-14.7-7.6-14.7-15.9s6.5-15.3 14.7-15.9c-2.4-14.6-8.2-28.1-16.5-39.7-6.3 5.3-15.7 5-21.7-.9s-6.2-15.4-.9-21.7c-11.6-8.3-25.1-14-39.7-16.5-.7 8.2-7.6 14.7-15.9 14.7s-15.3-6.5-15.9-14.7c-14.6 2.4-28.1 8.2-39.7 16.5 5.3 6.3 5 15.7-.9 21.7s-15.4 6.2-21.7 .9c-8.3 11.6-14 25.1-16.5 39.7 8.2 .7 14.7 7.6 14.7 15.9s-6.5 15.3-14.7 15.9c2.4 14.6 8.2 28.1 16.5 39.7 6.3-5.3 15.7-5 21.7 .9s6.2 15.4 .9 21.7c11.6 8.3 25.1 14 39.7 16.5 .7-8.2 7.6-14.7 15.9-14.7zm0-144a64 64 0 1 1 0 128 64 64 0 1 1 0-128zm32 64a32 32 0 1 0 -64 0 32 32 0 1 0 64 0zm272.1 94.7c.7-8.2 7.6-14.7 15.9-14.7s15.3 6.5 15.9 14.7c14.6-2.4 28.1-8.2 39.7-16.5-5.3-6.3-5-15.7 .9-21.7s15.4-6.2 21.7-.9c8.3-11.6 14-25.1 16.5-39.7-8.2-.7-14.7-7.6-14.7-15.9s6.5-15.3 14.7-15.9c-2.4-14.6-8.2-28.1-16.5-39.7-6.3 5.3-15.7 5-21.7-.9s-6.2-15.4-.9-21.7c-11.6-8.3-25.1-14-39.7-16.5-.7 8.2-7.6 14.7-15.9 14.7s-15.3-6.5-15.9-14.7c-14.6 2.4-28.1 8.2-39.7 16.5 5.3 6.3 5 15.7-.9 21.7s-15.4 6.2-21.7 .9c-8.3 11.6-14 25.1-16.5 39.7 8.2 .7 14.7 7.6 14.7 15.9s-6.5 15.3-14.7 15.9c2.4 14.6 8.2 28.1 16.5 39.7 6.3-5.3 15.7-5 21.7 .9s6.2 15.4 .9 21.7c11.6 8.3 25.1 14 39.7 16.5zM384 384a64 64 0 1 1 128 0 64 64 0 1 1 -128 0zm64 32a32 32 0 1 0 0-64 32 32 0 1 0 0 64z"/></svg>