<svg xmlns="http://www.w3.org/2000/svg" viewBox="0 0 640 512"><!--! Font Awesome Pro 7.0.0 by @fontawesome - https://fontawesome.com License - https://fontawesome.com/license (Commercial License) Copyright 2025 Fonticons, Inc. --><path fill="currentColor" d="M464 128c-8.8 0-16 7.2-16 16l0 212.1c-17.6 14.5-29.5 35.8-31.6 59.9l-96.7 0c-4-44.9-41.7-80-87.6-80-29.8 0-56.1 14.8-72 37.4-15.9-22.6-42.2-37.4-72-37.4-48.6 0-88 39.4-88 88s39.4 88 88 88c29.8 0 56.1-14.8 72-37.4 15.9 22.6 42.2 37.4 72 37.4 40.3 0 74.2-27.1 84.7-64l102.6 0c10.4 36.9 44.4 64 84.7 64 40.8 0 75.1-27.7 85.1-65.3 29.1-6 50.9-31.8 50.9-62.7l0-156.1c0-17-6.7-33.3-18.7-45.3l-35.9-35.9c-12-12-28.3-18.7-45.3-18.7L464 128zm40 240a56 56 0 1 1 0 112 56 56 0 1 1 0-112zm87.2 44.2c-5.8-43-42.6-76.2-87.2-76.2-8.3 0-16.4 1.2-24 3.3l0-51.3 128 0 0 96c0 12.2-6.8 22.7-16.8 28.2zM480 256l0-96 60.1 0c8.5 0 16.6 3.4 22.6 9.4l35.9 35.9c6 6 9.4 14.1 9.4 22.6l0 28.1-128 0zM32 424a56 56 0 1 1 112 0 56 56 0 1 1 -112 0zm256 0a56 56 0 1 1 -112 0 56 56 0 1 1 112 0z"/></svg>