<svg xmlns="http://www.w3.org/2000/svg" viewBox="0 0 384 512"><!--! Font Awesome Pro 7.0.0 by @fontawesome - https://fontawesome.com License - https://fontawesome.com/license (Commercial License) Copyright 2025 Fonticons, Inc. --><path fill="currentColor" d="M112 32c8.8 0 16 7.2 16 16l0 77.1 155.6-44.5c8.5-2.4 17.4 2.5 19.8 11s-2.5 17.4-11 19.8l-164.4 47 0 62.7 155.6-44.5c8.5-2.4 17.4 2.5 19.8 11s-2.5 17.4-11 19.8l-164.4 47 0 193.6 80 0c79.5 0 144-64.5 144-144 0-8.8 7.2-16 16-16s16 7.2 16 16c0 97.2-78.8 176-176 176l-96 0c-8.8 0-16-7.2-16-16l0-200.5-27.6 7.9c-8.5 2.4-17.4-2.5-19.8-11s2.5-17.4 11-19.8l36.4-10.4 0-62.7-27.6 7.9c-8.5 2.4-17.4-2.5-19.8-11s2.5-17.4 11-19.8L96 134.2 96 48c0-8.8 7.2-16 16-16z"/></svg>