<svg xmlns="http://www.w3.org/2000/svg" viewBox="0 0 576 512"><!--! Font Awesome Pro 7.0.0 by @fontawesome - https://fontawesome.com License - https://fontawesome.com/license (Commercial License) Copyright 2025 Fonticons, Inc. --><path fill="currentColor" d="M160 208c0-70.7 57.3-128 128-128s128 57.3 128 128l0 9.3c-27.6 25.5-76.4 39.9-128 39.9s-100.4-14.3-128-39.9l0-9.3zm-31.9-6.6c-.1 2.2-.1 4.4-.1 6.6l0 16c0 4.1 1.6 8 4.4 11 35.3 37.4 97 54.2 155.6 54.2S408.3 272.3 443.6 235c2.8-3 4.4-6.9 4.4-11l0-16c0-2.2 0-4.4-.1-6.6 9.1 3.3 17.6 6.8 25.7 10.6 47.9 22.5 70.5 50.5 70.5 76s-22.6 53.5-70.5 76c-46.7 22-112.2 36-185.5 36s-138.9-14-185.5-36C54.6 341.5 32 313.5 32 288s22.6-53.5 70.5-76c8-3.8 16.6-7.3 25.7-10.6zm5.5-35.6c-16.1 5-31.1 10.8-44.8 17.2-50.5 23.8-88.9 59.8-88.9 105s38.3 81.2 88.9 105c51.8 24.4 122.2 39 199.1 39s147.4-14.6 199.1-39c50.5-23.8 88.9-59.8 88.9-105s-38.3-81.2-88.9-105C473.5 176.6 458.5 170.8 442.4 165.8 423.9 97.9 361.8 48 288 48S152.1 97.9 133.6 165.8zM312 336a24 24 0 1 0 -48 0 24 24 0 1 0 48 0zm-192-8a24 24 0 1 0 0-48 24 24 0 1 0 0 48zm360-24a24 24 0 1 0 -48 0 24 24 0 1 0 48 0z"/></svg>