<svg xmlns="http://www.w3.org/2000/svg" viewBox="0 0 384 512"><!--! Font Awesome Pro 7.0.0 by @fontawesome - https://fontawesome.com License - https://fontawesome.com/license (Commercial License) Copyright 2025 Fonticons, Inc. --><path fill="currentColor" d="M169.4 41.4c6.3-6.3 14.5-9.4 22.6-9.4s16.4 3.1 22.6 9.4l160 160c9.2 9.2 11.9 22.9 6.9 34.9S364.9 256 352 256l-96 0 0 176c0 26.5-21.5 48-48 48l-32 0c-26.5 0-48-21.5-48-48l0-176-96 0c-12.9 0-24.6-7.8-29.6-19.8S.2 210.5 9.4 201.4l0 0 160-160zM352 224L192 64 32 224 144 224c8.8 0 16 7.2 16 16l0 192c0 8.8 7.2 16 16 16l32 0c8.8 0 16-7.2 16-16l0-192c0-8.8 7.2-16 16-16l112 0z"/></svg>