<svg xmlns="http://www.w3.org/2000/svg" viewBox="0 0 640 512"><!--! Font Awesome Pro 7.0.0 by @fontawesome - https://fontawesome.com License - https://fontawesome.com/license (Commercial License) Copyright 2025 Fonticons, Inc. --><path fill="currentColor" d="M59.3-27.2c-6.2-6.2-16.4-6.2-22.6 0s-6.2 16.4 0 22.6l544 544c6.2 6.2 16.4 6.2 22.6 0s6.2-16.4 0-22.6l-277-277c58.9-3.3 105.6-52.1 105.6-111.8 0-61.9-50.1-112-112-112-59.7 0-108.5 46.7-111.8 105.6L59.3-27.2zM287.8 201.2l-41-41c-4.3-9.9-6.8-20.8-6.8-32.2 0-44.2 35.8-80 80-80s80 35.8 80 80-35.8 80-80 80c-11.5 0-22.4-2.4-32.2-6.8zM80.2 106.7c-10.2 15.3-16.2 33.6-16.2 53.3 0 53 43 96 96 96 19.7 0 38.1-6 53.3-16.2L190 216.5c-9 4.8-19.2 7.5-30 7.5-35.3 0-64-28.7-64-64 0-10.9 2.7-21.1 7.5-30L80.2 106.7zM264.7 291.2C195.8 305.6 144 366.8 144 440l0 24c0 8.8 7.2 16 16 16s16-7.2 16-16l0-24c0-65.4 52.4-118.7 117.5-120l-28.8-28.8zM510.8 337c1.7 .2 3.4 .5 5.1 .8 47.6 8.6 84.7 47.1 91.1 95.4L639.9 466c.1-.7 .1-1.3 .1-2l0-16c0-79.5-64.5-144-144-144l-18.2 0 33 33zM452.4 217.8c-6.1 9.1-13.2 17.4-21 25 14.2 8.4 30.9 13.2 48.6 13.2 53 0 96-43 96-96s-43-96-96-96c-4.4 0-8.7 .3-12.9 .9 4.3 9.9 7.6 20.4 9.8 31.2 1.1-.1 2.1-.1 3.2-.1 35.3 0 64 28.7 64 64s-28.7 64-64 64c-9.9 0-19.2-2.2-27.6-6.2zM149.4 304l-5.4 0C64.5 304 0 368.5 0 448l0 16c0 8.8 7.2 16 16 16s16-7.2 16-16l0-16c0-55.1 39.7-100.8 92.1-110.2 7.2-12.1 15.7-23.5 25.3-33.8z"/></svg>