<svg xmlns="http://www.w3.org/2000/svg" viewBox="0 0 448 512"><!--! Font Awesome Pro 7.0.0 by @fontawesome - https://fontawesome.com License - https://fontawesome.com/license (Commercial License) Copyright 2025 Fonticons, Inc. --><path fill="currentColor" d="M224 32a96 96 0 1 1 0 192 96 96 0 1 1 0-192zM96 128a128 128 0 1 0 256 0 128 128 0 1 0 -256 0zM32 496c0-62.7 40.1-116 96-135.8l0 42.1c-23.1 6.9-40 28.3-40 53.7 0 30.9 25.1 56 56 56s56-25.1 56-56c0-25.4-16.9-46.8-40-53.7l0-49.4c5.3-.6 10.6-.9 16-.9l96 0c5.4 0 10.7 .3 16 .9l0 49.1c-27.6 7.1-48 32.2-48 62l0 24c0 8.8 7.2 16 16 16s16-7.2 16-16l0-24c0-17.7 14.3-32 32-32s32 14.3 32 32l0 24c0 8.8 7.2 16 16 16s16-7.2 16-16l0-24c0-29.8-20.4-54.9-48-62l0-41.8c55.9 19.8 96 73.1 96 135.8 0 8.8 7.2 16 16 16s16-7.2 16-16c0-97.2-78.8-176-176-176l-96 0c-97.2 0-176 78.8-176 176 0 8.8 7.2 16 16 16s16-7.2 16-16zm136-40c0 13.3-10.7 24-24 24s-24-10.7-24-24 10.7-24 24-24 24 10.7 24 24z"/></svg>