<svg xmlns="http://www.w3.org/2000/svg" viewBox="0 0 448 512"><!--! Font Awesome Pro 7.0.0 by @fontawesome - https://fontawesome.com License - https://fontawesome.com/license (Commercial License) Copyright 2025 Fonticons, Inc. --><path fill="currentColor" d="M96 175C96 93.3 155.9 32 224 32S352 93.3 352 175c0 41.8-21.1 80-49.1 112-27.8 31.8-59.8 54.3-75 64.1-.6 .4-1.8 .9-3.8 .9s-3.3-.5-3.8-.9c-15.3-9.8-47.2-32.3-75-64.1-28-32-49.1-70.2-49.1-112zM224 0c-88.4 0-160 78.3-160 175 0 105.5 105.8 181.8 138.8 203 6.3 4.1 13.7 6 21.2 6s14.9-1.9 21.2-6C278.2 356.8 384 280.5 384 175 384 78.3 312.4 0 224 0zM0 496c0 8.8 7.2 16 16 16s16-7.2 16-16C32 438.5 75.4 391.1 131.2 384.7 121.9 376.9 112 368 102.2 358.2 43.1 376.1 0 431 0 496zm416 0c0 8.8 7.2 16 16 16s16-7.2 16-16c0-65-43.1-119.9-102.2-137.8-9.8 9.9-19.7 18.7-29 26.6 55.8 6.3 99.2 53.7 99.2 111.3zM232 229.7c0 14.5 11.8 26.3 26.3 26.3 42.9 0 77.7-34.8 77.7-77.7 0-14.5-11.8-26.3-26.3-26.3-42.9 0-77.7 34.8-77.7 77.7zm71.6-45.3c-20.4 2.7-36.5 18.8-39.2 39.2 20.4-2.7 36.5-18.8 39.2-39.2zM138.3 152c-14.5 0-26.3 11.8-26.3 26.3 0 42.9 34.8 77.7 77.7 77.7 14.5 0 26.3-11.8 26.3-26.3 0-42.9-34.8-77.7-77.7-77.7zm6.1 32.4c20.4 2.7 36.5 18.8 39.2 39.2-20.4-2.7-36.5-18.8-39.2-39.2z"/></svg>