<svg xmlns="http://www.w3.org/2000/svg" viewBox="0 0 448 512"><!--! Font Awesome Pro 7.0.0 by @fontawesome - https://fontawesome.com License - https://fontawesome.com/license (Commercial License) Copyright 2025 Fonticons, Inc. --><path fill="currentColor" d="M336 83.2l0 7.3c-19.5 7.2-51.2 16.9-86.8 20.3l27.5-27.5c6.2-6.2 6.2-16.4 0-22.6L235.3 19.3c-6.2-6.2-16.4-6.2-22.6 0L171.3 60.7c-6.2 6.2-6.2 16.4 0 22.6l27.5 27.5c-35.6-3.4-67.3-13.1-86.8-20.3l0-7.3c0-11.2-5.9-21.7-15.5-27.4L82 47.1c-1.2-.7-2-2.1-2-3.5 0-1.8 1.2-3.5 3-3.9L224 1.2 365 39.6c1.8 .5 3 2.1 3 3.9 0 1.4-.8 2.8-2 3.5l-14.5 8.7C341.9 61.5 336 72 336 83.2zm32 0l14.5-8.7C393.3 68 400 56.2 400 43.6 400 27.3 389.1 13 373.4 8.7l-141-38.5c-5.5-1.5-11.3-1.5-16.8 0L74.6 8.7C58.9 13 48 27.3 48 43.6 48 56.2 54.7 68 65.5 74.5l14.5 8.7 0 8.6c0 11.4 6 21.8 16 26.7l0 9.5c0 27.7-9 54.6-25.6 76.8L53.6 227.2C50 232 48 237.9 48 244 48 259.5 60.5 272 76 272l296 0c15.5 0 28-12.5 28-28 0-6.1-2-12-5.6-16.8l-16.8-22.4C361 182.6 352 155.7 352 128l0-9.5c10-5 16-15.4 16-26.7l0-8.6zM338.1 202c4 7.7 8.6 15 13.9 22l12 16-55.3 0c12.1-10.6 22.1-23.5 29.5-38zM139.3 240L84 240 96 224c5.2-7 9.9-14.3 13.9-22 7.4 14.5 17.4 27.4 29.5 38zM128 144l0-14.6c25.9 7.5 59.9 14.6 96 14.6s70.1-7.1 96-14.6l0 14.6c0 53-43 96-96 96s-96-43-96-96zm48 176c0 8.8 7.2 16 16 16l6.1 0-27.3 54.6-45.7-66.3c-4.3-6.3-12.6-8.7-19.6-5.6-62.1 27.1-105.6 89.2-105.6 161.3l0 16c0 8.8 7.2 16 16 16s16-7.2 16-16l0-16c0-54.4 30.1-101.7 74.7-126.2L210.8 505.1c3 4.3 7.9 6.9 13.2 6.9s10.2-2.6 13.2-6.9L341.3 353.8C385.9 378.3 416 425.6 416 480l0 16c0 8.8 7.2 16 16 16s16-7.2 16-16l0-16c0-72.2-43.5-134.2-105.6-161.3-7-3.1-15.2-.7-19.6 5.6l-45.7 66.3-27.3-54.6 6.1 0c8.8 0 16-7.2 16-16s-7.2-16-16-16l-64 0c-8.8 0-16 7.2-16 16zm48 147.8l-32.4-47.1 32.4-64.9 32.4 64.9-32.4 47.1zm0-414.5L242.7 72 224 90.7 205.3 72 224 53.3z"/></svg>