<svg xmlns="http://www.w3.org/2000/svg" viewBox="0 0 448 512"><!--! Font Awesome Pro 7.0.0 by @fontawesome - https://fontawesome.com License - https://fontawesome.com/license (Commercial License) Copyright 2025 Fonticons, Inc. --><path fill="currentColor" d="M224 240c-53 0-96-43-96-96l0-16 13.2 0c26.2 0 51.6-9.2 71.7-26l11.1-9.2 11.1 9.2c20.1 16.8 45.5 26 71.7 26l13.2 0 0 16c0 53-43 96-96 96zM224 0c-50.5 0-94.2 29.3-115 71.8-7.1-4.9-15.7-7.8-25-7.8-24.3 0-44 19.7-44 44l0 56c0 24.3 19.7 44 44 44 9.3 0 17.9-2.9 25-7.8 20.8 42.5 64.5 71.8 115 71.8s94.2-29.3 115-71.8c7.1 4.9 15.7 7.8 25 7.8 24.3 0 44-19.7 44-44l0-56c0-24.3-19.7-44-44-44-9.3 0-17.9 2.9-25 7.8-20.8-42.5-64.5-71.8-115-71.8zM96 128l0 36c0 6.6-5.4 12-12 12s-12-5.4-12-12l0-56c0-6.6 5.4-12 12-12s12 5.4 12 12l0 20zm256 16l0-36c0-6.6 5.4-12 12-12s12 5.4 12 12l0 56c0 6.6-5.4 12-12 12s-12-5.4-12-12l0-20zM224 32c41.8 0 77.4 26.7 90.5 64l-7.8 0c-18.7 0-36.8-6.6-51.2-18.5L234.2 59.7c-5.9-4.9-14.6-4.9-20.5 0L192.5 77.5C178.1 89.4 160 96 141.2 96l-7.8 0c13.2-37.3 48.7-64 90.5-64zM32 496c0-79.5 64.5-144 144-144l96 0c79.5 0 144 64.5 144 144 0 8.8 7.2 16 16 16s16-7.2 16-16c0-97.2-78.8-176-176-176l-96 0c-97.2 0-176 78.8-176 176 0 8.8 7.2 16 16 16s16-7.2 16-16z"/></svg>