<svg xmlns="http://www.w3.org/2000/svg" viewBox="0 0 448 512"><!--! Font Awesome Pro 7.0.0 by @fontawesome - https://fontawesome.com License - https://fontawesome.com/license (Commercial License) Copyright 2025 Fonticons, Inc. --><path fill="currentColor" d="M336 83.2l0 7.3c-19.5 7.2-51.2 16.9-86.8 20.3l27.5-27.5c6.2-6.2 6.2-16.4 0-22.6L235.3 19.3c-6.2-6.2-16.4-6.2-22.6 0L171.3 60.7c-6.2 6.2-6.2 16.4 0 22.6l27.5 27.5c-35.6-3.4-67.3-13.1-86.8-20.3l0-7.3c0-11.2-5.9-21.7-15.5-27.4L82 47.1c-1.2-.7-2-2.1-2-3.5 0-1.8 1.2-3.5 3-3.9L224 1.2 365 39.6c1.8 .5 3 2.1 3 3.9 0 1.4-.8 2.8-2 3.5l-14.5 8.7C341.9 61.5 336 72 336 83.2zm32 0l14.5-8.7C393.3 68 400 56.2 400 43.6 400 27.3 389.1 13 373.4 8.7l-141-38.5c-5.5-1.5-11.3-1.5-16.8 0L74.6 8.7C58.9 13 48 27.3 48 43.6 48 56.2 54.7 68 65.5 74.5l14.5 8.7 0 8.6c0 11.4 6 21.8 16 26.7L96 144c0 70.7 57.3 128 128 128s128-57.3 128-128l0-25.5c10-5 16-15.4 16-26.7l0-8.6zM128 144l0-14.6c25.9 7.5 59.9 14.6 96 14.6s70.1-7.1 96-14.6l0 14.6c0 53-43 96-96 96s-96-43-96-96zm28.1 168.8c-3.8-4.4-9.6-6.4-15.3-5.2-80.3 16.3-140.8 87.3-140.8 172.5l0 16c0 8.8 7.2 16 16 16s16-7.2 16-16l0-16c0-66.4 45-122.4 106.2-139l73.7 85.4c3 3.5 7.5 5.6 12.1 5.6s9.1-2 12.1-5.6L309.8 341C371 357.6 416 413.6 416 480l0 16c0 8.8 7.2 16 16 16s16-7.2 16-16l0-16c0-85.2-60.5-156.2-140.8-172.5-5.7-1.2-11.5 .8-15.3 5.2l-67.9 78.7-67.9-78.7zM224 53.3L242.7 72 224 90.7 205.3 72 224 53.3zM336 448c0 8.8-7.2 16-16 16s-16-7.2-16-16 7.2-16 16-16 16 7.2 16 16zm32 0a48 48 0 1 0 -96 0 48 48 0 1 0 96 0z"/></svg>