<svg xmlns="http://www.w3.org/2000/svg" viewBox="0 0 448 512"><!--! Font Awesome Pro 7.0.0 by @fontawesome - https://fontawesome.com License - https://fontawesome.com/license (Commercial License) Copyright 2025 Fonticons, Inc. --><path fill="currentColor" d="M240 24c0-8.8-7.2-16-16-16s-16 7.2-16 16l0 40-64 0c-44.2 0-80 35.8-80 80l0 32-24 0c-8.8 0-16 7.2-16 16s7.2 16 16 16l24 0 0 32c0 44.2 35.8 80 80 80l160 0c44.2 0 80-35.8 80-80l0-32 24 0c8.8 0 16-7.2 16-16s-7.2-16-16-16l-24 0 0-32c0-44.2-35.8-80-80-80l-64 0 0-40zM352 144l0 96c0 26.5-21.5 48-48 48l-160 0c-26.5 0-48-21.5-48-48l0-96c0-26.5 21.5-48 48-48l160 0c26.5 0 48 21.5 48 48zM32 440c0-30.9 25.1-56 56-56l272 0c30.9 0 56 25.1 56 56l0 56c0 8.8 7.2 16 16 16s16-7.2 16-16l0-56c0-48.6-39.4-88-88-88L88 352c-48.6 0-88 39.4-88 88l0 56c0 8.8 7.2 16 16 16s16-7.2 16-16l0-56zm128 24c0-8.8-7.2-16-16-16s-16 7.2-16 16l0 32c0 8.8 7.2 16 16 16s16-7.2 16-16l0-32zm64-16c-8.8 0-16 7.2-16 16l0 32c0 8.8 7.2 16 16 16s16-7.2 16-16l0-32c0-8.8-7.2-16-16-16zm96 48l0-32c0-8.8-7.2-16-16-16s-16 7.2-16 16l0 32c0 8.8 7.2 16 16 16s16-7.2 16-16zM155.3 140.7c-6.2-6.2-16.4-6.2-22.6 0s-6.2 16.4 0 22.6l12.7 12.7-12.7 12.7c-6.2 6.2-6.2 16.4 0 22.6s16.4 6.2 22.6 0l12.7-12.7 12.7 12.7c6.2 6.2 16.4 6.2 22.6 0s6.2-16.4 0-22.6l-12.7-12.7 12.7-12.7c6.2-6.2 6.2-16.4 0-22.6s-16.4-6.2-22.6 0l-12.7 12.7-12.7-12.7zm112 0c-6.2-6.2-16.4-6.2-22.6 0s-6.2 16.4 0 22.6l12.7 12.7-12.7 12.7c-6.2 6.2-6.2 16.4 0 22.6s16.4 6.2 22.6 0l12.7-12.7 12.7 12.7c6.2 6.2 16.4 6.2 22.6 0s6.2-16.4 0-22.6l-12.7-12.7 12.7-12.7c6.2-6.2 6.2-16.4 0-22.6s-16.4-6.2-22.6 0l-12.7 12.7-12.7-12.7z"/></svg>