<svg xmlns="http://www.w3.org/2000/svg" viewBox="0 0 576 512"><!--! Font Awesome Pro 7.0.0 by @fontawesome - https://fontawesome.com License - https://fontawesome.com/license (Commercial License) Copyright 2025 Fonticons, Inc. --><path fill="currentColor" d="M27.3-27.2c-6.2-6.2-16.4-6.2-22.6 0s-6.2 16.4 0 22.6l544 544c6.2 6.2 16.4 6.2 22.6 0s6.2-16.4 0-22.6L512 457.5 512 16c0-8.8-7.2-16-16-16l-8 0C412.9 0 352 60.9 352 136l0 152c0 3.5 .3 6.9 .8 10.3l-81-81c8.2-13.6 12.5-29.8 11.3-47L272 14.9C271.3 6 263.7-.6 254.9 0S239.4 8.3 240 17.1l11.1 155.4c.5 7.4-.6 14.5-3.1 20.9L223.7 169.1 216 15.2C215.5 6.4 208-.4 199.2 0S183.6 8 184 16.8l5.9 118.6-26.6-26.6 4.6-92C168.4 8 161.6 .5 152.8 0S136.5 6.4 136 15.2l-3.2 63.1-23.6-23.6 2.7-37.6C112.6 8.3 106 .7 97.1 0S80.7 6 80 14.9l-.7 9.9-52-52zM405.7 351.2c3.4 .5 6.8 .8 10.3 .8l64 0 0 73.5-74.3-74.3zM68.9 170.3c-3.3 46.3 33.4 85.7 79.8 85.7l11.3 0 0 240c0 8.8 7.2 16 16 16s16-7.2 16-16l0-240 5.5 0-32-32-16.8 0c-27.9 0-49.9-23.6-47.9-51.4l.9-12.3-29.9-29.9-2.9 40zM480 320l-64 0c-17.7 0-32-14.3-32-32l0-152c0-54.7 42.3-99.6 96-103.7L480 320z"/></svg>