<svg xmlns="http://www.w3.org/2000/svg" viewBox="0 0 576 512"><!--! Font Awesome Pro 7.0.0 by @fontawesome - https://fontawesome.com License - https://fontawesome.com/license (Commercial License) Copyright 2025 Fonticons, Inc. --><path fill="currentColor" d="M352 96c17.7 0 32 14.3 32 32l0 256c0 17.7-14.3 32-32 32L96 416c-17.7 0-32-14.3-32-32l0-256c0-17.7 14.3-32 32-32l256 0zM96 64c-35.3 0-64 28.7-64 64l0 256c0 35.3 28.7 64 64 64l256 0c35.3 0 64-28.7 64-64l0-256c0-35.3-28.7-64-64-64L96 64zM464 172l0 40 80-60 0 208-80-60 0 40 73.6 55.2c4.2 3.1 9.2 4.8 14.4 4.8 13.3 0 24-10.7 24-24l0-240c0-13.3-10.7-24-24-24-5.2 0-10.2 1.7-14.4 4.8L464 172zm-240 4c20.6 0 37.2 16.7 37.2 37.2 0 17.8-11 27-23.2 32.5-14.7 6.6-30.1 21.5-30.1 42.3 0 8.8 7.2 16 16 16s16-7.2 16-16c0-3.8 3.4-9.6 11.1-13.1 17.8-8 42.1-25.9 42.1-61.7 0-38.2-31-69.2-69.2-69.2s-69.2 31-69.2 69.2c0 8.8 7.2 16 16 16s16-7.2 16-16c0-20.6 16.7-37.2 37.2-37.2zm20 176a20 20 0 1 0 -40 0 20 20 0 1 0 40 0z"/></svg>