<svg xmlns="http://www.w3.org/2000/svg" viewBox="0 0 512 512"><!--! Font Awesome Pro 7.0.0 by @fontawesome - https://fontawesome.com License - https://fontawesome.com/license (Commercial License) Copyright 2025 Fonticons, Inc. --><path fill="currentColor" d="M213 58.7c-2.5 5-7.4 8.3-12.9 8.8s-11-2-14.3-6.4c-5.9-7.9-15.2-13-25.8-13-17.7 0-32 14.3-32 32s14.3 32 32 32c9.7 0 18.3-4.3 24.2-11.1 3.1-3.6 7.7-5.6 12.4-5.5s9.2 2.3 12.2 6l46.7 58.4c.1 .2 .3 .2 .5 .2s.4-.1 .5-.2l46.7-58.4c3-3.7 7.4-5.9 12.2-6s9.3 1.9 12.4 5.5c5.9 6.8 14.5 11.1 24.2 11.1 17.7 0 32-14.3 32-32s-14.3-32-32-32c-10.6 0-19.9 5.1-25.8 13-3.3 4.5-8.7 6.9-14.3 6.4s-10.5-3.8-12.9-8.8C291.1 42.8 274.8 32 256 32s-35.1 10.8-43 26.7zM256 0c23.9 0 45.3 10.5 60 27.1 10.3-7 22.6-11.1 36-11.1 35.3 0 64 28.7 64 64s-28.7 64-64 64c-12.5 0-24.2-3.6-34.1-9.8l-36.4 45.6c-6.2 7.7-15.6 12.3-25.5 12.3s-19.3-4.5-25.5-12.3l-36.4-45.6c-9.9 6.2-21.5 9.8-34.1 9.8-35.3 0-64-28.7-64-64s28.7-64 64-64c13.4 0 25.8 4.1 36 11.1 14.6-16.6 36.1-27.1 60-27.1zM32 459.8C32 471 41 480 52.2 480l407.7 0c11.1 0 20.2-9 20.2-20.2 0-4.9-1.8-9.7-5.1-13.4L387 347.5 362 385c-6.3 9.4-16.8 15-28 15-8.9 0-17.5-3.6-23.8-9.9l-34.5-34.5c-12.6-12.6-29.6-19.6-47.3-19.6-13.2 0-26.1 3.9-37.1 11.2l-17.8 11.9c-8.7 5.8-18.9 8.9-29.3 8.9s-20.6-3.1-29.3-8.9L37.1 446.4c-3.3 3.7-5.1 8.5-5.1 13.4zm303.4-92.6l29.6-44.4-40.3-45.3c-12.1-13.7-29.6-21.5-47.8-21.5l-41.8 0c-18.3 0-35.7 7.8-47.8 21.5l-50.8 57.1c2.4 .9 4.9 1.4 7.5 1.4 4.1 0 8.1-1.2 11.6-3.5l17.8-11.9c16.3-10.8 35.4-16.6 54.9-16.6 26.2 0 51.4 10.4 70 29l34.5 34.5c.3 .3 .8 .5 1.2 .5 .6 0 1.1-.3 1.4-.8zm13.3-111c60 67.5 26.8 30.2 56.7 63.8l93.5 105.2c8.5 9.5 13.2 21.9 13.2 34.7 0 28.8-23.4 52.2-52.2 52.2L52.2 512c-28.8 0-52.2-23.4-52.2-52.2 0-12.8 4.7-25.1 13.2-34.7 124.2-139.8 94.6-106.4 150.2-169 18.2-20.5 44.3-32.2 71.8-32.2l41.8 0c27.4 0 53.5 11.7 71.8 32.2z"/></svg>