<svg xmlns="http://www.w3.org/2000/svg" viewBox="0 0 576 512"><!--! Font Awesome Pro 7.0.0 by @fontawesome - https://fontawesome.com License - https://fontawesome.com/license (Commercial License) Copyright 2025 Fonticons, Inc. --><path fill="currentColor" d="M64 128l448 0c17.7 0 32 14.3 32 32l0 192c0 17.7-14.3 32-32 32l-117.5 0c-8.5 0-16.6-3.4-22.6-9.4l-33.9-33.9C324.7 327.4 306.7 320 288 320s-36.7 7.4-49.9 20.7l-33.9 33.9c-6 6-14.1 9.4-22.6 9.4L64 384c-17.7 0-32-14.3-32-32l0-192c0-17.7 14.3-32 32-32zM512 96L64 96C28.7 96 0 124.7 0 160L0 352c0 35.3 28.7 64 64 64l117.5 0c17 0 33.3-6.7 45.3-18.7l33.9-33.9c7.2-7.2 17.1-11.3 27.3-11.3s20.1 4.1 27.3 11.3l33.9 33.9c12 12 28.3 18.7 45.3 18.7L512 416c35.3 0 64-28.7 64-64l0-192c0-35.3-28.7-64-64-64zM160 272a32 32 0 1 1 0-64 32 32 0 1 1 0 64zM96 240a64 64 0 1 0 128 0 64 64 0 1 0 -128 0zm320 32a32 32 0 1 1 0-64 32 32 0 1 1 0 64zm-64-32a64 64 0 1 0 128 0 64 64 0 1 0 -128 0z"/></svg>