<svg xmlns="http://www.w3.org/2000/svg" viewBox="0 0 512 512"><!--! Font Awesome Pro 7.0.0 by @fontawesome - https://fontawesome.com License - https://fontawesome.com/license (Commercial License) Copyright 2025 Fonticons, Inc. --><path fill="currentColor" d="M128 96l0 168c0 13.3-10.7 24-24 24l-88 0c-8.8 0-16-7.2-16-16s7.2-16 16-16l80 0 0-168c0-13.3 10.7-24 24-24l128 0c13.3 0 24 10.7 24 24l0 328 112 0 0-168c0-13.3 10.7-24 24-24l88 0c8.8 0 16 7.2 16 16s-7.2 16-16 16l-80 0 0 168c0 13.3-10.7 24-24 24l-128 0c-13.3 0-24-10.7-24-24l0-328-112 0z"/></svg>