<svg xmlns="http://www.w3.org/2000/svg" viewBox="0 0 640 512"><!--! Font Awesome Pro 7.0.0 by @fontawesome - https://fontawesome.com License - https://fontawesome.com/license (Commercial License) Copyright 2025 Fonticons, Inc. --><path fill="currentColor" d="M592 64c26.5 0 48 21.5 48 48l0 70.5c0 21-13.6 39.3-33.2 45.7l-4 1.1-186.8 43.1C415.8 387.1 322.7 480 208 480 93.1 480 0 386.9 0 272S93.1 64 208 64l384 0zM208 96C110.8 96 32 174.8 32 272s78.8 176 176 176 176-78.8 176-176c0-3.6-.2-7.4-.4-11.2-.5-7.8 4.7-14.8 12.4-16.6l199.6-46.1 2.6-.8c5.8-2.5 9.8-8.2 9.8-14.8l0-70.5c0-8.8-7.2-16-16-16l-144 0 0 48c0 8.8-7.2 16-16 16s-16-7.2-16-16l0-48-208 0zm0 256a80 80 0 1 1 0-160 80 80 0 1 1 0 160zm0-128a48 48 0 1 0 0 96 48 48 0 1 0 0-96z"/></svg>