<svg xmlns="http://www.w3.org/2000/svg" viewBox="0 0 576 512"><!--! Font Awesome Pro 7.0.0 by @fontawesome - https://fontawesome.com License - https://fontawesome.com/license (Commercial License) Copyright 2025 Fonticons, Inc. --><path fill="currentColor" d="M512 64L224 64c-17.7 0-32 14.3-32 32l0 16-32 0 0-16c0-35.3 28.7-64 64-64l288 0c35.3 0 64 28.7 64 64l0 192c0 35.3-28.7 64-64 64l-48 0 0-32 48 0c17.7 0 32-14.3 32-32l0-192c0-17.7-14.3-32-32-32zM352 192L64 192c-17.7 0-32 14.3-32 32l0 32 352 0 0-32c0-17.7-14.3-32-32-32zm32 96l-352 0 0 128c0 17.7 14.3 32 32 32l288 0c17.7 0 32-14.3 32-32l0-128zM64 160l288 0c35.3 0 64 28.7 64 64l0 192c0 35.3-28.7 64-64 64L64 480c-35.3 0-64-28.7-64-64L0 224c0-35.3 28.7-64 64-64z"/></svg>