<?xml version="1.0" standalone="no"?>
<!DOCTYPE svg PUBLIC "-//W3C//DTD SVG 1.1//EN" "http://www.w3.org/Graphics/SVG/1.1/DTD/svg11.dtd" >
<svg xmlns="http://www.w3.org/2000/svg" xmlns:xlink="http://www.w3.org/1999/xlink" version="1.1">
<metadata>
Created by FontForge 20170731 at Tue Feb 28 12:44:08 2017
 By Aleksey,,,
2006 Lukasz Dziedzic published by FSI FontShop International GmbH
</metadata>
<defs>
<font id="ClanW01-Ultra" horiz-adv-x="631" >
  <font-face 
    font-family="Clan W01"
    font-weight="950"
    font-stretch="normal"
    units-per-em="1000"
    panose-1="2 11 11 4 3 1 1 2 1 2"
    ascent="800"
    descent="-200"
    x-height="617"
    cap-height="750"
    bbox="-47 -186 1118 938"
    underline-thickness="100"
    underline-position="-200"
    unicode-range="U+000D-2122"
  />
<missing-glyph horiz-adv-x="639" 
d="M37 0v750h565v-750h-565zM164 127h311v496h-311v-496z" />
    <glyph glyph-name=".notdef" horiz-adv-x="639" 
d="M37 0v750h565v-750h-565zM164 127h311v496h-311v-496z" />
    <glyph glyph-name=".null" horiz-adv-x="0" 
 />
    <glyph glyph-name=".null" horiz-adv-x="0" 
 />
    <glyph glyph-name="nonmarkingreturn" horiz-adv-x="333" 
 />
    <glyph glyph-name="CR" unicode="&#xd;" horiz-adv-x="223" 
 />
    <glyph glyph-name="space" unicode=" " horiz-adv-x="223" 
 />
    <glyph glyph-name="exclam" unicode="!" horiz-adv-x="303" 
d="M243 236h-182l-34 514h249zM276 87q0 -100 -120 -100q-63 0 -91 23t-28 77q0 102 119 102q120 0 120 -102z" />
    <glyph glyph-name="quotedbl" unicode="&#x22;" horiz-adv-x="485" 
d="M264 763h215l-36 -308h-148zM32 763h215l-36 -308h-148z" />
    <glyph glyph-name="numbersign" unicode="#" 
d="M41 313h67l14 111h-81v163h100l19 163h183l-20 -163h50l19 163h180l-20 -163h42v-163h-60l-14 -111h74v-165h-91l-18 -148h-179l18 148h-51l-18 -148h-183l18 148h-49v165zM306 424l-15 -111h50l14 111h-49z" />
    <glyph glyph-name="dollar" unicode="$" 
d="M305 -78l-122 11l12 62q-87 11 -140 37l28 199q73 -35 148 -51l19 99q-32 12 -58 24.5t-53.5 33.5t-45.5 45.5t-30 60.5t-12 79q0 234 292 240l12 63l134 -11l-13 -62q43 -8 78 -19l-11 -192q-68 13 -107 17l-19 -92q36 -13 64.5 -29.5t55.5 -43t42 -66.5t15 -90
q0 -126 -66 -187.5t-210 -63.5zM406 206q0 17 -36 32l-14 -68q50 5 50 36zM261 533q0 -18 32 -29l11 60q-43 -5 -43 -31z" />
    <glyph glyph-name="percent" unicode="%" horiz-adv-x="773" 
d="M353 581q0 -85 -44.5 -130.5t-128.5 -45.5q-169 0 -169 176q0 90 41 132t130 42q86 0 128.5 -41.5t42.5 -132.5zM203 581q0 44 -21 44q-12 0 -16.5 -9t-4.5 -35q0 -25 5 -34t16 -9q12 0 16.5 8.5t4.5 34.5zM532 695l128 -99l-430 -556l-128 100zM762 163
q0 -85 -44.5 -130t-128.5 -45q-170 0 -170 175q0 91 41.5 134.5t129.5 43.5q172 0 172 -178zM612 163q0 41 -22 41q-11 0 -16 -8.5t-5 -32.5t5 -32.5t16 -8.5q12 0 17 8t5 33z" />
    <glyph glyph-name="ampersand" unicode="&#x26;" horiz-adv-x="750" 
d="M746 188l-82 -197q-73 24 -160 76q-111 -81 -248 -81q-127 0 -189 65t-62 158q0 116 122 205q-59 89 -59 151q0 89 58.5 143t193.5 54q107 0 179 -46.5t72 -124.5q0 -60 -43.5 -106.5t-120.5 -96.5q36 -34 76 -63q22 42 36 91h197q-11 -90 -70 -190q54 -24 100 -38z
M294 185q16 0 44 4q-40 30 -84 74q-9 -17 -9 -34q0 -44 49 -44zM283 565q0 -19 14 -47q42 27 42 53q0 15 -8 21.5t-16 6.5q-32 0 -32 -34z" />
    <glyph glyph-name="quotesingle" unicode="'" horiz-adv-x="253" 
d="M19 763h215l-36 -308h-148z" />
    <glyph glyph-name="parenleft" unicode="(" horiz-adv-x="389" 
d="M221 781l165 -14q-107 -175 -107 -447t107 -447l-165 -14q-82 84 -123 203.5t-41 257.5t41 257.5t123 203.5z" />
    <glyph glyph-name="parenright" unicode=")" horiz-adv-x="389" 
d="M3 767l165 14q82 -84 123 -203.5t41 -257.5t-41 -257.5t-123 -203.5l-165 14q108 176 108 447t-108 447z" />
    <glyph glyph-name="asterisk" unicode="*" horiz-adv-x="398" 
d="M151 775h101l18 -94l88 20l36 -98l-86 -47l47 -83l-77 -57l-75 68l-77 -70l-81 55l45 87l-85 46l38 99l89 -20z" />
    <glyph glyph-name="plus" unicode="+" horiz-adv-x="607" 
d="M558 234h-154v-154h-202v154h-154v196h154v154h202v-154h154v-196z" />
    <glyph glyph-name="comma" unicode="," horiz-adv-x="284" 
d="M140 208q121 0 121 -123q0 -49 -34.5 -117.5t-78.5 -115.5l-82 19l25 118q-28 16 -49 43.5t-21 59.5q0 53 29 84.5t90 31.5z" />
    <glyph glyph-name="hyphen" unicode="-" horiz-adv-x="372" 
d="M29 420h313v-154h-313v154z" />
    <glyph glyph-name="period" unicode="." horiz-adv-x="290" 
d="M269 99q0 -112 -123 -112q-66 0 -95.5 26t-29.5 86q0 113 125 113q123 0 123 -113z" />
    <glyph glyph-name="slash" unicode="/" horiz-adv-x="486" 
d="M305 774h198l-339 -890h-191z" />
    <glyph glyph-name="zero" unicode="0" 
d="M607 370q0 -195 -71 -287.5t-223 -92.5t-220.5 91.5t-68.5 288.5q0 209 68 298.5t224 89.5q153 0 222 -90t69 -298zM368 373q0 82 -6.5 123.5t-16 52t-29.5 10.5q-21 0 -31.5 -12t-16.5 -52.5t-6 -122.5q0 -86 6 -127t16 -51t32 -10q20 0 30 11t16 53t6 125z" />
    <glyph glyph-name="one" unicode="1" 
d="M141 0v161h83v317l-109 -56l-24 187l235 140h147v-588h85v-161h-417z" />
    <glyph glyph-name="two" unicode="2" 
d="M588 526q0 -81 -55 -153t-171 -170v-3h219l-4 -200h-516v149q21 21 52.5 54t49 51t42 44.5t38.5 42t31.5 37t26.5 36t18 31.5t12.5 31t3.5 28q0 51 -67 51q-71 0 -165 -57l-56 186q113 75 269 75q135 0 203.5 -63.5t68.5 -169.5z" />
    <glyph glyph-name="three" unicode="3" 
d="M594 226q0 -113 -78 -174.5t-235 -61.5q-132 0 -229 54l44 177q95 -42 178 -42q82 0 82 55q0 30 -29 47.5t-121 17.5v161q64 0 97 7.5t41.5 19t8.5 32.5q0 44 -75 44q-99 0 -181 -57l-53 179q48 34 115 54t135 20q135 0 210.5 -60t75.5 -163q0 -100 -86 -152v-2
q100 -48 100 -156z" />
    <glyph glyph-name="four" unicode="4" 
d="M616 121h-50v-121h-225v121h-313l-20 144l269 485h289v-439h55zM349 311l5 120l6 81l-2 1l-104 -202h95z" />
    <glyph glyph-name="five" unicode="5" 
d="M598 261q0 -128 -72.5 -199.5t-227.5 -71.5q-143 0 -245 53l42 178q96 -41 180 -41q49 0 65 14t16 48q0 29 -19.5 41.5t-63.5 12.5q-67 0 -123 -13l-82 87l31 380h451l9 -201h-266l-5 -71q57 3 60 3q118 0 184 -56t66 -164z" />
    <glyph glyph-name="six" unicode="6" 
d="M609 269q0 -142 -74 -210.5t-207 -68.5q-151 0 -228 89t-77 285q0 189 90 292.5t263 103.5q113 0 185 -28l-15 -192q-70 21 -140 21q-64 0 -96 -20t-45 -62l2 -2q47 21 101 21q116 0 178.5 -58t62.5 -171zM371 272q0 28 -11.5 41.5t-39.5 13.5q-11 0 -28.5 -6t-21.5 -15
q1 -75 13 -100t44 -25q44 0 44 91z" />
    <glyph glyph-name="seven" unicode="7" 
d="M598 748v-192l-237 -556h-273l274 533h-336l11 215h561z" />
    <glyph glyph-name="eight" unicode="8" 
d="M22 232q0 44 20 86.5t59 71.5q-54 62 -54 160q0 100 67.5 155.5t202.5 55.5q137 0 202.5 -56.5t65.5 -155.5q0 -84 -60 -146q83 -58 83 -172q0 -241 -291 -241q-295 0 -295 242zM374 214q0 27 -23.5 43.5t-70.5 33.5q-25 -28 -25 -60q0 -36 16.5 -50t51.5 -14q51 0 51 47
zM272 539q0 -24 18.5 -39t54.5 -28q25 27 25 58q0 27 -12.5 39t-42.5 12q-43 0 -43 -42z" />
    <glyph glyph-name="nine" unicode="9" 
d="M606 397q0 -211 -84 -309t-257 -98q-120 0 -209 36l34 186q75 -29 153 -29q58 0 85.5 21.5t35.5 68.5q-46 -17 -107 -17q-113 0 -174 64t-61 172q0 126 72 197t214 71q144 0 221 -91t77 -272zM364 466q0 60 -14.5 81.5t-45.5 21.5q-50 0 -50 -68q0 -37 11.5 -52t41.5 -15
q52 0 57 32z" />
    <glyph glyph-name="colon" unicode=":" horiz-adv-x="290" 
d="M269 462q0 -112 -123 -112q-66 0 -95.5 26t-29.5 86q0 113 125 113q123 0 123 -113zM269 99q0 -112 -123 -112q-66 0 -95.5 26t-29.5 86q0 113 125 113q123 0 123 -113z" />
    <glyph glyph-name="semicolon" unicode=";" horiz-adv-x="290" 
d="M269 462q0 -112 -123 -112q-66 0 -95.5 26t-29.5 86q0 113 125 113q123 0 123 -113zM147 208q121 0 121 -123q0 -49 -34.5 -117.5t-78.5 -115.5l-82 19l25 118q-28 16 -49 43.5t-21 59.5q0 53 29 84.5t90 31.5z" />
    <glyph glyph-name="less" unicode="&#x3c;" horiz-adv-x="607" 
d="M526 404l-106 -47l-74 -31v-3l73 -33l108 -51v-204l-447 237v108l446 237v-213z" />
    <glyph glyph-name="equal" unicode="=" horiz-adv-x="607" 
d="M535 350h-463v165h463v-165zM535 124h-463v165h463v-165z" />
    <glyph glyph-name="greater" unicode="&#x3e;" horiz-adv-x="607" 
d="M80 35v204l107 51l74 33v3l-75 31l-105 47v213l446 -237v-108z" />
    <glyph glyph-name="question" unicode="?" horiz-adv-x="502" 
d="M492 557q0 -149 -157 -232l-7 -88h-180l-12 168q58 27 88.5 54t30.5 60q0 17 -14 28t-42 11q-72 0 -118 -40l-79 174q39 30 102 48t130 18q125 0 191.5 -54.5t66.5 -146.5zM355 87q0 -100 -119 -100q-63 0 -91.5 23t-28.5 77q0 102 120 102q119 0 119 -102z" />
    <glyph glyph-name="at" unicode="@" horiz-adv-x="929" 
d="M456 613q56 0 92 -36l17 30l119 -7l-42 -278q-5 -32 -5 -45q0 -52 44 -52q43 0 70.5 44.5t27.5 142.5q0 126 -71.5 203.5t-211.5 77.5q-171 0 -257.5 -94t-86.5 -249q0 -163 87 -259t260 -96q179 0 313 101l49 -106q-59 -46 -155 -78.5t-209 -32.5q-219 0 -346.5 121.5
t-127.5 348.5q0 94 32 177.5t91 147.5t150 101t202 37q185 0 296.5 -112t111.5 -287q0 -86 -21.5 -151.5t-57 -102t-76.5 -54.5t-86 -18q-99 0 -143 63q-58 -63 -154 -63q-68 0 -114 54t-46 154q0 129 71.5 223.5t176.5 94.5zM474 323l16 130q-4 13 -21 13q-34 0 -56 -52
t-22 -118q0 -57 31 -57q41 0 52 84z" />
    <glyph glyph-name="A" unicode="A" horiz-adv-x="762" 
d="M493 0l-25 113h-188l-26 -113h-264l239 750h298l245 -750h-279zM375 535l-17 -80l-34 -149h102l-33 149l-15 80h-3z" />
    <glyph glyph-name="B" unicode="B" horiz-adv-x="696" 
d="M677 224q0 -106 -74.5 -165t-228.5 -59h-334v750h340q133 0 203 -54t70 -144q0 -109 -96 -155v-2q120 -41 120 -171zM426 241q0 29 -10 39.5t-41 10.5h-95v-100h98q30 0 39 9.5t9 40.5zM414 510q0 26 -9.5 35.5t-34.5 9.5h-89v-93h89q27 0 35.5 10t8.5 38z" />
    <glyph glyph-name="C" unicode="C" horiz-adv-x="586" 
d="M568 736l-23 -199q-68 18 -135 18q-79 0 -102 -35.5t-23 -142.5q0 -112 24.5 -149t103.5 -37q76 0 133 24l24 -190q-88 -39 -193 -39q-355 0 -355 391q0 187 92 287t281 100q93 0 173 -28z" />
    <glyph glyph-name="D" unicode="D" horiz-adv-x="725" 
d="M703 379q0 -199 -88 -289t-263 -90h-312v750h308q187 0 271 -89.5t84 -281.5zM441 380q0 103 -18 132.5t-76 29.5h-57v-336h57q41 0 59.5 11.5t26.5 47t8 115.5z" />
    <glyph glyph-name="E" unicode="E" horiz-adv-x="613" 
d="M290 203h303l-4 -203h-549v750h537l3 -206h-290v-71h236v-185h-236v-85z" />
    <glyph glyph-name="F" unicode="F" horiz-adv-x="590" 
d="M579 540h-289v-90h239l-2 -199h-237v-251h-250v750h536z" />
    <glyph glyph-name="G" unicode="G" horiz-adv-x="669" 
d="M635 409v-383q-97 -40 -234 -40q-203 0 -291 98t-88 291q0 192 93.5 290t293.5 98q122 0 218 -31l-23 -202q-82 28 -180 28q-90 0 -114.5 -35t-24.5 -145q0 -115 21 -150t88 -35q13 0 20 1v215h221z" />
    <glyph glyph-name="H" unicode="H" horiz-adv-x="728" 
d="M688 0h-250v273h-148v-273h-250v750h250v-268h148v268h250v-750z" />
    <glyph glyph-name="I" unicode="I" horiz-adv-x="352" 
d="M48 0v750h256v-750h-256z" />
    <glyph glyph-name="J" unicode="J" horiz-adv-x="551" 
d="M511 750v-451q0 -171 -86.5 -242t-252.5 -71q-83 0 -147 22l11 196q37 -14 95 -14q66 0 96 25.5t30 87.5v447h254z" />
    <glyph glyph-name="K" unicode="K" horiz-adv-x="740" 
d="M744 0h-295l-126 286h-33v-286h-250v750h250v-277h36l129 277h280l-182 -358z" />
    <glyph glyph-name="L" unicode="L" horiz-adv-x="561" 
d="M292 209h259l-5 -209h-506v750h252v-541z" />
    <glyph glyph-name="M" unicode="M" horiz-adv-x="931" 
d="M40 750h272l124 -327l27 -76h3l27 76l127 327h271v-750h-228v252l2 81l-3 1l-27 -77l-94 -257h-161l-92 254l-26 77l-2 -1l1 -81v-249h-221v750z" />
    <glyph glyph-name="N" unicode="N" horiz-adv-x="734" 
d="M694 0h-173l-212 288l-46 66l-2 -1l1 -81v-272h-222v750h205l228 -326l2 1l-2 80v245h221v-750z" />
    <glyph glyph-name="O" unicode="O" horiz-adv-x="756" 
d="M733 375q0 -202 -85 -295.5t-270 -93.5q-182 0 -269 96.5t-87 292.5q0 197 85.5 292t270.5 95q184 0 269.5 -95t85.5 -292zM471 376q0 111 -18 144t-76 33q-55 0 -73.5 -34t-18.5 -143q0 -111 19 -146.5t75 -35.5q55 0 73.5 35.5t18.5 146.5z" />
    <glyph glyph-name="P" unicode="P" horiz-adv-x="678" 
d="M663 471q0 -265 -331 -265h-42v-206h-250v750h292q175 0 253 -68.5t78 -210.5zM405 472q0 53 -13.5 68.5t-59.5 15.5h-42v-165h42q44 0 58.5 14.5t14.5 66.5z" />
    <glyph glyph-name="Q" unicode="Q" horiz-adv-x="756" 
d="M733 375q0 -279 -169 -355l121 -104l-267 -67l-67 138q-168 7 -248.5 103t-80.5 285q0 197 85.5 292t270.5 95q184 0 269.5 -95t85.5 -292zM471 376q0 111 -18 144t-76 33q-55 0 -73.5 -34t-18.5 -143q0 -111 19 -146.5t75 -35.5q55 0 73.5 35.5t18.5 146.5z" />
    <glyph glyph-name="R" unicode="R" horiz-adv-x="702" 
d="M665 497q0 -71 -26 -126t-74 -79l150 -292h-290l-90 242h-45v-242h-250v750h299q163 0 244.5 -61.5t81.5 -191.5zM404 488q0 42 -12.5 55.5t-50.5 13.5h-51v-141h51q38 0 50.5 13t12.5 59z" />
    <glyph glyph-name="S" unicode="S" horiz-adv-x="589" 
d="M576 236q0 -115 -82.5 -182.5t-222.5 -67.5q-136 0 -246 54l30 200q114 -53 213 -53q38 0 53 8t15 26q0 13 -17 23t-44.5 19t-61 19.5t-67 29t-61 43.5t-44.5 65.5t-17 92.5q0 110 75 180t226 70q124 0 225 -37l-27 -196q-106 27 -184 27q-48 0 -62 -7.5t-14 -23.5
t23 -28.5t58 -21.5t75.5 -27t75.5 -41.5t58 -68t23 -103.5z" />
    <glyph glyph-name="T" unicode="T" horiz-adv-x="615" 
d="M607 540h-173v-540h-253v540h-174l5 210h590z" />
    <glyph glyph-name="U" unicode="U" horiz-adv-x="714" 
d="M680 750v-483q0 -281 -321 -281q-162 0 -243.5 71.5t-81.5 209.5v483h250v-481q0 -38 17 -55.5t58 -17.5q42 0 57.5 16.5t15.5 56.5v481h248z" />
    <glyph glyph-name="V" unicode="V" horiz-adv-x="732" 
d="M487 750h258l-241 -750h-277l-240 750h275l92 -409l17 -79h3l16 79z" />
    <glyph glyph-name="W" unicode="W" horiz-adv-x="1068" 
d="M406 750h266l68 -415l12 -80h3l9 80l60 415h247l-171 -750h-296l-58 394l-10 81h-3l-11 -81l-57 -394h-296l-172 750h260l58 -417l10 -80h3l11 80z" />
    <glyph glyph-name="X" unicode="X" horiz-adv-x="730" 
d="M732 750l-193 -356l194 -394h-281l-54 136l-28 76h-3l-29 -76l-54 -136h-287l190 387l-189 363h294l76 -186h3l30 74l48 112h283z" />
    <glyph glyph-name="Y" unicode="Y" horiz-adv-x="731" 
d="M-13 750h280l78 -219l26 -76h3l24 77l74 218h272l-248 -526v-224h-255v224z" />
    <glyph glyph-name="Z" unicode="Z" horiz-adv-x="619" 
d="M594 0h-575v152l228 323l47 63l-1 2h-269l6 210h562v-169l-217 -307l-47 -62l1 -3h267z" />
    <glyph glyph-name="bracketleft" unicode="[" horiz-adv-x="383" 
d="M57 -135v910h323v-148h-115v-616h115v-146h-323z" />
    <glyph glyph-name="backslash" unicode="\" horiz-adv-x="368" 
d="M-42 774h188l285 -890h-186z" />
    <glyph glyph-name="bracketright" unicode="]" horiz-adv-x="382" 
d="M325 775v-910h-322v146h115v616h-115v148h322z" />
    <glyph glyph-name="asciicircum" unicode="^" 
d="M418 465l-102 172l-102 -172h-179l204 339h155l201 -339h-177z" />
    <glyph glyph-name="underscore" unicode="_" horiz-adv-x="400" 
d="M0 -31h400v-127h-400v127z" />
    <glyph glyph-name="grave" unicode="`" horiz-adv-x="413" 
d="M352 650h-171l-134 147h255z" />
    <glyph glyph-name="a" unicode="a" horiz-adv-x="590" 
d="M380 0l-15 44q-62 -54 -152 -54q-93 0 -143.5 54t-50.5 156q0 86 60 141.5t160 55.5q48 0 90 -8v8q0 51 -87 51q-81 0 -167 -30l-18 169q98 40 229 40q150 0 210.5 -63t60.5 -199v-365h-177zM329 199v48q-23 5 -46 5q-49 0 -49 -49q0 -45 43 -45q22 0 37 11t15 30z" />
    <glyph glyph-name="b" unicode="b" horiz-adv-x="641" 
d="M624 312q0 -162 -68 -243t-191 -81q-88 0 -146 53l-23 -41h-156v767l230 11v-106l-2 -80l2 -2q54 37 123 37q109 0 170 -78.5t61 -236.5zM385 307q0 60 -6.5 89t-18 37t-35.5 8q-36 0 -55 -30v-220q21 -31 55 -31t47 28t13 119z" />
    <glyph glyph-name="c" unicode="c" horiz-adv-x="487" 
d="M466 604l-11 -181q-46 12 -82 12q-69 0 -93 -28t-24 -105q0 -66 29.5 -98.5t82.5 -32.5q36 0 90 12l15 -165q-57 -30 -156 -30q-146 0 -223 80.5t-77 233.5q0 324 304 324q84 0 145 -22z" />
    <glyph glyph-name="d" unicode="d" horiz-adv-x="641" 
d="M600 0h-180l-18 44q-59 -56 -150 -56q-114 0 -174.5 80.5t-60.5 243.5q0 149 60.5 233t170.5 84q68 0 122 -40l2 2l-2 80v96l230 11v-778zM370 191v224q-19 23 -52 23q-36 0 -49.5 -27.5t-13.5 -106.5q0 -87 12.5 -114.5t51.5 -27.5q36 0 51 29z" />
    <glyph glyph-name="e" unicode="e" horiz-adv-x="596" 
d="M351 -11q-167 0 -250.5 83t-83.5 237q0 152 72.5 235t220.5 83q131 0 200.5 -72.5t69.5 -214.5q0 -50 -7 -101h-317q14 -64 124 -64q85 0 161 20l24 -170q-87 -36 -214 -36zM251 380h118q-1 38 -14.5 54t-42.5 16q-32 0 -44 -13.5t-17 -56.5z" />
    <glyph glyph-name="f" unicode="f" horiz-adv-x="406" 
d="M300 0h-231v458h-61v159h61v23q0 67 57.5 114t165.5 47q58 0 110 -14l-12 -139q-24 6 -47 6q-43 0 -43 -19v-18h99v-159h-99v-458z" />
    <glyph glyph-name="g" unicode="g" horiz-adv-x="604" 
d="M290 235q-28 0 -55 3q-3 -6 -3 -12q0 -15 26 -16l143 -6q104 -4 153 -45t49 -119q0 -101 -77 -156.5t-231 -55.5q-135 0 -201.5 44.5t-66.5 117.5q0 49 38 85q-44 36 -44 93q0 78 75 118q-65 49 -65 144q0 89 62.5 143.5t194.5 54.5q94 0 157 -30l109 29l47 -103l-60 -50
q4 -26 4 -44q0 -93 -63 -144t-192 -51zM360 26l-137 7q-3 -8 -3 -15q0 -17 16 -23.5t54 -6.5q65 0 87 4.5t22 16.5q0 10 -7.5 13t-31.5 4zM291 468q-20 0 -27 -9t-7 -34q0 -44 29 -44q23 0 30.5 8.5t7.5 35.5q0 24 -7 33.5t-26 9.5z" />
    <glyph glyph-name="h" unicode="h" horiz-adv-x="642" 
d="M608 0h-230v378q0 32 -12 46.5t-40 14.5q-38 0 -56 -23v-416h-230v767l230 11v-105l-2 -80l2 -2q57 38 132 38q95 0 150.5 -67t55.5 -184v-378z" />
    <glyph glyph-name="i" unicode="i" horiz-adv-x="328" 
d="M282 0h-236v611l236 10v-621zM285 726q0 -82 -121 -82q-63 0 -92 19t-29 63q0 84 121 84t121 -84z" />
    <glyph glyph-name="j" unicode="j" horiz-adv-x="329" 
d="M284 621v-601q0 -103 -59 -147.5t-153 -44.5q-53 0 -99 16l10 148q15 -4 31 -4q40 0 40 38v585zM286 726q0 -82 -121 -82q-63 0 -92 19t-29 63q0 84 121 84t121 -84z" />
    <glyph glyph-name="k" unicode="k" horiz-adv-x="652" 
d="M270 778v-364h53l76 203h248l-126 -280l127 -337h-252l-74 241h-52v-241h-230v767z" />
    <glyph glyph-name="l" unicode="l" horiz-adv-x="313" 
d="M273 0h-233v767l233 11v-778z" />
    <glyph glyph-name="m" unicode="m" horiz-adv-x="965" 
d="M932 0h-230v378q0 61 -51 61q-28 0 -40 -14.5t-12 -46.5v-378h-230v378q0 33 -12 47t-40 14q-32 0 -50 -23v-416h-230v611l165 10l34 -49q69 58 153 58q105 0 157 -74q65 73 170 73q98 0 157 -64t59 -183v-382z" />
    <glyph glyph-name="n" unicode="n" horiz-adv-x="639" 
d="M605 0h-230v378q0 33 -12.5 47t-38.5 14q-36 0 -57 -23v-416h-230v612l165 10l30 -44q68 51 158 51q99 0 157 -66t58 -185v-378z" />
    <glyph glyph-name="o" unicode="o" horiz-adv-x="636" 
d="M619 306q0 -168 -71.5 -244t-229.5 -76q-157 0 -229 76t-72 244t72.5 245t229.5 77t228.5 -77t71.5 -245zM256 306q0 -91 13 -118.5t50 -27.5q36 0 49 28t13 118t-13 118t-49 28q-37 0 -50 -27.5t-13 -118.5z" />
    <glyph glyph-name="p" unicode="p" horiz-adv-x="637" 
d="M620 309q0 -152 -64 -235t-173 -83q-73 0 -115 32l-3 -1l2 -81v-101h-230v772l160 9l41 -44q66 50 147 50q119 0 177 -74t58 -244zM382 311q0 78 -12 102.5t-49 24.5q-38 0 -54 -28v-212q21 -30 52 -30q33 0 48 28.5t15 114.5z" />
    <glyph glyph-name="q" unicode="q" horiz-adv-x="638" 
d="M601 -160h-230v175q-50 -24 -113 -24q-109 0 -175 79.5t-66 234.5q0 154 61.5 238t185.5 84q104 0 165 -55l24 44h148v-776zM371 193v223q-18 20 -54 20q-39 0 -50 -23t-11 -108q0 -78 13 -106.5t52 -28.5q32 0 50 23z" />
    <glyph glyph-name="r" unicode="r" horiz-adv-x="475" 
d="M267 0h-230v612l183 8l19 -78h3q54 86 149 86q44 0 73 -11l-13 -212q-36 12 -76 12q-50 0 -79 -28.5t-29 -82.5v-306z" />
    <glyph glyph-name="s" unicode="s" horiz-adv-x="503" 
d="M485 206q0 -218 -258 -218q-116 0 -197 34l21 176q76 -35 176 -35q45 0 45 23q0 15 -26 24t-63 19t-74 27.5t-63 59t-26 103.5q0 93 64.5 150.5t192.5 57.5q90 0 184 -33l-17 -174q-75 28 -171 28q-33 0 -33 -19q0 -13 18 -22t45.5 -14.5t59 -18t59 -30t45.5 -53.5
t18 -85z" />
    <glyph glyph-name="t" unicode="t" horiz-adv-x="415" 
d="M407 457h-120v-253q0 -24 12 -34.5t41 -10.5q28 0 47 7l11 -156q-44 -20 -129 -20q-105 0 -158.5 56t-53.5 152v259h-49v160h61l36 124l182 15v-139h120v-160z" />
    <glyph glyph-name="u" unicode="u" horiz-adv-x="635" 
d="M601 617v-385q0 -242 -283 -242q-284 0 -284 242v385h230v-381q0 -30 12.5 -43.5t41.5 -13.5q30 0 42 13t12 44v381h229z" />
    <glyph glyph-name="v" unicode="v" horiz-adv-x="670" 
d="M425 617h249l-207 -617h-266l-205 617h249l71 -312l17 -79h3l16 79z" />
    <glyph glyph-name="w" unicode="w" horiz-adv-x="912" 
d="M340 617h238l46 -319l11 -80h3l8 80l38 319h223l-125 -617h-280l-30 258l-7 81h-3l-8 -81l-31 -258h-281l-137 617h230l42 -316l10 -80h3l8 80z" />
    <glyph glyph-name="x" unicode="x" horiz-adv-x="652" 
d="M390 0l-44 114l-27 77h-3l-66 -191h-251l167 311l-165 306h265l65 -181h3l26 76l38 105h253l-156 -302l158 -315h-263z" />
    <glyph glyph-name="y" unicode="y" horiz-adv-x="672" 
d="M173 -18q64 0 80 40l2 6l-259 589h259l84 -274l22 -78h3l14 79l56 273h243l-193 -585q-35 -108 -101.5 -158t-167.5 -50q-66 0 -116 18l16 150q30 -10 58 -10z" />
    <glyph glyph-name="z" unicode="z" horiz-adv-x="533" 
d="M504 467l-173 -226l-49 -61l1 -3h234l-6 -177h-492v151l172 224l50 61l-1 2h-217l8 179h473v-150z" />
    <glyph glyph-name="braceleft" unicode="{" horiz-adv-x="406" 
d="M303 437q0 -75 -57 -115q57 -40 57 -114q0 -24 -3 -61t-3 -53q0 -31 18.5 -53.5t50.5 -22.5h37v-158h-26q-152 0 -218 52t-66 153q0 23 5.5 75t5.5 71q0 49 -47 70v83q47 19 47 70q0 18 -5.5 70.5t-5.5 74.5q0 101 66 153t218 52h26v-157h-37q-32 0 -50.5 -22.5
t-18.5 -53.5q0 -16 3 -53t3 -61z" />
    <glyph glyph-name="bar" unicode="|" horiz-adv-x="302" 
d="M62 -178v979h178v-979h-178z" />
    <glyph glyph-name="braceright" unicode="}" horiz-adv-x="406" 
d="M103 208q0 74 57 114q-57 40 -57 115q0 24 3.5 61t3.5 53q0 31 -19 53.5t-50 22.5h-38v157h26q152 0 218.5 -52t66.5 -153q0 -22 -6 -74.5t-6 -70.5q0 -50 47 -70v-83q-47 -22 -47 -70q0 -19 6 -71t6 -75q0 -101 -66.5 -153t-218.5 -52h-26v158h38q31 0 50 22.5t19 53.5
q0 16 -3.5 53t-3.5 61z" />
    <glyph glyph-name="asciitilde" unicode="~" 
d="M171 555l-126 -1q2 235 167 235q44 0 111.5 -30t92.5 -30q17 0 30 15t13 29h127q0 -115 -43.5 -174.5t-123.5 -59.5q-45 0 -110 29.5t-89 29.5q-19 0 -33 -13.5t-16 -29.5z" />
    <glyph glyph-name="uni00A0" unicode="&#xa0;" horiz-adv-x="223" 
 />
    <glyph glyph-name="exclamdown" unicode="&#xa1;" horiz-adv-x="301" 
d="M57 416h188l25 -548h-239zM28 552q0 100 119 100q63 0 91.5 -23t28.5 -77q0 -102 -120 -102q-119 0 -119 102z" />
    <glyph glyph-name="cent" unicode="&#xa2;" 
d="M518 604l-11 -181q-46 12 -82 12q-69 0 -93 -28t-24 -105q0 -66 29.5 -98.5t82.5 -32.5q36 0 90 12l15 -165q-39 -21 -103 -27l-8 -103h-175l9 117q-179 60 -179 297q0 272 216 316l10 110h176l-11 -110q23 -3 58 -14z" />
    <glyph glyph-name="sterling" unicode="&#xa3;" 
d="M55 284l-9 166h43q-18 44 -18 85q0 47 17 86.5t52.5 72.5t99 52t149.5 19q92 0 177 -25l-26 -193q-68 17 -122 17q-100 0 -100 -61q0 -26 8 -53h218v-166h-179q-2 -58 -48 -89l2 -3q61 15 137 15q73 0 136 -10l-11 -205q-109 14 -238 14q-160 0 -282 -11l-12 200
q37 1 62.5 26t25.5 57v6h-82z" />
    <glyph glyph-name="currency" unicode="&#xa4;" 
d="M103 363q0 48 18 87l-74 75l115 115l78 -78q37 13 74 13t74 -13l80 78l114 -115l-74 -74q19 -43 19 -88q0 -37 -13 -74l68 -69l-115 -114l-65 64q-39 -19 -88 -19q-45 0 -88 19l-65 -65l-114 115l69 69q-13 33 -13 74zM247 366q0 -28 19.5 -47.5t47.5 -19.5t48 19.5
t20 47.5t-20 48t-48 20t-47.5 -19.5t-19.5 -48.5z" />
    <glyph glyph-name="yen" unicode="&#xa5;" 
d="M68 382h69l-139 367h271l45 -312h3l10 80l35 232h267l-135 -367h80v-124h-124v-29h124v-124h-124v-105h-267v105h-115v124h115v29h-115v124z" />
    <glyph glyph-name="brokenbar" unicode="&#xa6;" horiz-adv-x="302" 
d="M62 372v429h178v-429h-178zM62 -160v420h178v-420h-178z" />
    <glyph glyph-name="section" unicode="&#xa7;" horiz-adv-x="579" 
d="M23 307q0 93 73 149q-56 51 -56 117q0 97 69 147t199 50q127 0 210 -34l-13 -161q-103 28 -183 28q-44 0 -44 -21q0 -12 20.5 -24t51.5 -21.5t67.5 -27.5t67.5 -40.5t51.5 -61.5t20.5 -89q0 -91 -74 -150q56 -51 56 -116q0 -97 -68.5 -147t-199.5 -50q-128 0 -210 35
l14 160q103 -28 182 -28q45 0 45 21q0 12 -20.5 24t-51.5 21.5t-67.5 27.5t-67.5 40.5t-51.5 61.5t-20.5 89zM335 294q0 30 -76 67q-14 -12 -14 -30t19 -33.5t57 -34.5q14 14 14 31z" />
    <glyph glyph-name="dieresis" unicode="&#xa8;" horiz-adv-x="413" 
d="M192 726q0 -82 -90 -82q-46 0 -68 19t-22 63q0 84 90 84t90 -84zM401 726q0 -82 -90 -82q-46 0 -68 19t-22 63q0 84 90 84t90 -84z" />
    <glyph glyph-name="copyright" unicode="&#xa9;" horiz-adv-x="830" 
d="M24 377q0 161 115 276t276 115q162 0 276.5 -115t114.5 -276q0 -162 -114.5 -276t-276.5 -114t-276.5 114t-114.5 276zM135 376q0 -117 81.5 -200t198.5 -83t199 83t82 200q0 115 -82 197t-199 82q-116 0 -198 -82t-82 -197zM594 566l-15 -150q-48 25 -101 25
q-43 0 -64.5 -17.5t-21.5 -46.5q0 -65 89 -65q58 0 96 21l20 -144q-29 -28 -79 -49t-103 -21q-109 0 -181 75t-72 181q0 103 71 178t185 75q104 0 176 -62z" />
    <glyph glyph-name="ordfeminine" unicode="&#xaa;" horiz-adv-x="474" 
d="M299 298l-15 34q-42 -41 -114 -41q-75 0 -116.5 45.5t-41.5 132.5q0 73 49 120t127 47q38 0 68 -8v8q0 35 -73 35q-58 0 -125 -25l-13 148q88 34 181 34q123 0 173 -53t50 -169v-308h-150zM256 467v40q-10 2 -29 2q-33 0 -33 -38q0 -33 29 -33q33 0 33 29z" />
    <glyph glyph-name="guillemotleft" unicode="&#xab;" horiz-adv-x="684" 
d="M653 397l-124 -83l124 -82v-163l-340 239v13l340 239v-163zM356 397l-124 -83l124 -82v-163l-340 239v13l340 239v-163z" />
    <glyph glyph-name="logicalnot" unicode="&#xac;" 
d="M371 244h-295v183h479v-326h-184v143z" />
    <glyph glyph-name="uni00AD" unicode="&#xad;" horiz-adv-x="372" 
d="M29 420h313v-154h-313v154z" />
    <glyph glyph-name="registered" unicode="&#xae;" horiz-adv-x="430" 
d="M9 625q0 86 61 147t147 61q85 0 145.5 -61t60.5 -147q0 -85 -60.5 -145t-145.5 -60q-86 0 -147 60t-61 145zM67 626q0 -61 44 -104.5t105 -43.5t104.5 43.5t43.5 104.5t-43.5 104.5t-104.5 43.5t-105 -43.5t-44 -104.5zM321 658q0 -37 -27 -55l26 -77h-92l-16 63h-4v-63
h-90v207h102q101 0 101 -75zM234 653q0 12 -13 12h-13v-24h13q13 1 13 12z" />
    <glyph glyph-name="macron" unicode="&#xaf;" horiz-adv-x="413" 
d="M390 789v-130h-365v130h365z" />
    <glyph glyph-name="degree" unicode="&#xb0;" horiz-adv-x="335" 
d="M14 665q0 64 44.5 108.5t108.5 44.5t109 -44.5t45 -108.5q0 -65 -44.5 -109.5t-109.5 -44.5t-109 44.5t-44 109.5zM111 665q0 -25 15.5 -41t41.5 -16q25 0 40.5 16t15.5 41t-15.5 40.5t-40.5 15.5t-41 -15.5t-16 -40.5z" />
    <glyph glyph-name="plusminus" unicode="&#xb1;" 
d="M559 322h-144v-133h-201v133h-143v180h143v134h201v-134h144v-180zM559 3h-487v159h487v-159z" />
    <glyph glyph-name="twosuperior" unicode="&#xb2;" horiz-adv-x="398" 
d="M369 750q0 -44 -31.5 -76t-99.5 -71v-3h127l-2 -119h-327v93q27 22 59.5 47.5t49.5 39t34 28.5t23.5 26t6.5 22q0 23 -41 23q-43 0 -109 -32l-35 112q71 41 173 41q87 0 129.5 -36t42.5 -95z" />
    <glyph glyph-name="threesuperior" unicode="&#xb3;" horiz-adv-x="398" 
d="M376 600q0 -124 -193 -124q-93 0 -152 34l31 106q64 -28 120 -28q46 0 46 19q0 25 -94 25v95q40 0 61.5 3.5t26 7.5t4.5 11q0 17 -45 17q-67 0 -121 -31l-33 105q68 41 161 41q86 0 133 -32.5t47 -88.5q0 -51 -51 -78v-2q59 -24 59 -80z" />
    <glyph glyph-name="acute" unicode="&#xb4;" horiz-adv-x="413" 
d="M168 797h255l-127 -147h-171z" />
    <glyph glyph-name="mu" unicode="&#xb5;" horiz-adv-x="638" 
d="M328 -8q-59 0 -90 42l-2 -1q8 -106 19 -186l-218 -16v786h230v-383q0 -22 14.5 -36.5t39.5 -14.5q54 0 54 51v383h230v-612l-163 -11l-25 32q-37 -34 -89 -34z" />
    <glyph glyph-name="paragraph" unicode="&#xb6;" horiz-adv-x="746" 
d="M370 -168h-198v602q-75 4 -121.5 45.5t-46.5 119.5q0 67 48.5 109t128.5 42h544l-10 -173h-72v-745h-199v745h-74v-745z" />
    <glyph glyph-name="periodcentered" unicode="&#xb7;" horiz-adv-x="312" 
d="M279 346q0 -112 -123 -112q-66 0 -95.5 26t-29.5 86q0 113 125 113q123 0 123 -113z" />
    <glyph glyph-name="cedilla" unicode="&#xb8;" horiz-adv-x="413" 
d="M81 -186l81 208l150 2l-32 -210h-199z" />
    <glyph glyph-name="onesuperior" unicode="&#xb9;" horiz-adv-x="301" 
d="M261 876v-395h-153v234l-74 -36l-12 116l142 81h97z" />
    <glyph glyph-name="ordmasculine" unicode="&#xba;" horiz-adv-x="525" 
d="M502 560q0 -143 -56.5 -205t-183.5 -62q-125 0 -182.5 62t-57.5 205q0 142 58 205.5t182 63.5q126 0 183 -63t57 -206zM222 560q0 -75 8.5 -96.5t32.5 -21.5t32 21.5t8 96.5t-8.5 96t-32.5 21t-32 -21t-8 -96z" />
    <glyph glyph-name="guillemotright" unicode="&#xbb;" horiz-adv-x="684" 
d="M330 69v163l124 82l-124 83v163l340 -239v-13zM33 69v163l124 82l-124 83v163l340 -239v-13z" />
    <glyph glyph-name="onequarter" unicode="&#xbc;" horiz-adv-x="912" 
d="M307 750v-394h-153v233l-74 -36l-12 116l142 81h97zM900 58h-30v-58h-142v58h-203l-12 83l175 253h182v-222h33zM734 172l7 92l-6 1l-57 -90l2 -5zM633 750h158l-490 -750h-157z" />
    <glyph glyph-name="onehalf" unicode="&#xbd;" horiz-adv-x="912" 
d="M611 750h158l-490 -750h-157zM890 269q0 -44 -32 -76.5t-100 -71.5v-3h128l-2 -118h-327v93q27 22 59.5 47.5t49.5 39t34 28.5t23.5 26t6.5 22q0 23 -41 23q-45 0 -109 -33l-35 113q71 41 173 41q86 0 129 -36.5t43 -94.5zM314 750v-394h-153v233l-74 -36l-12 116l142 81
h97z" />
    <glyph glyph-name="threequarters" unicode="&#xbe;" horiz-adv-x="912" 
d="M840 58h-30v-58h-142v58h-203l-12 83l175 253h182v-222h33zM674 172l7 92l-6 1l-57 -90l2 -5zM622 750h158l-490 -750h-157zM384 474q0 -124 -193 -124q-90 0 -152 34l31 106q64 -28 120 -28q46 0 46 19q0 25 -94 25v95q40 0 61.5 3.5t26 7.5t4.5 11q0 17 -45 17
q-70 0 -121 -31l-33 106q69 40 161 40q86 0 133 -32.5t47 -88.5q0 -51 -51 -78v-2q59 -24 59 -80z" />
    <glyph glyph-name="questiondown" unicode="&#xbf;" horiz-adv-x="488" 
d="M6 101q0 147 157 230l7 89h180l11 -168q-118 -55 -118 -114q0 -17 14 -28t42 -11q70 0 118 40l79 -174q-38 -29 -101.5 -47t-130.5 -18q-125 0 -191.5 54t-66.5 147zM143 570q0 100 119 100q63 0 91 -23t28 -77q0 -102 -119 -102t-119 102z" />
    <glyph glyph-name="Agrave" unicode="&#xc0;" horiz-adv-x="762" 
d="M493 0l-25 113h-188l-26 -113h-264l239 750h298l245 -750h-279zM375 535l-17 -80l-34 -149h102l-33 149l-15 80h-3zM482 789h-183l-138 124h263z" />
    <glyph glyph-name="Aacute" unicode="&#xc1;" horiz-adv-x="762" 
d="M493 0l-25 113h-188l-26 -113h-264l239 750h298l245 -750h-279zM375 535l-17 -80l-34 -149h102l-33 149l-15 80h-3zM325 911h282l-150 -124h-180z" />
    <glyph glyph-name="Acircumflex" unicode="&#xc2;" horiz-adv-x="762" 
d="M493 0l-25 113h-188l-26 -113h-264l239 750h298l245 -750h-279zM375 535l-17 -80l-34 -149h102l-33 149l-15 80h-3zM252 912h245l95 -125h-193l-22 53h-2l-23 -53h-191z" />
    <glyph glyph-name="Atilde" unicode="&#xc3;" horiz-adv-x="762" 
d="M493 0l-25 113h-188l-26 -113h-264l239 750h298l245 -750h-279zM375 535l-17 -80l-34 -149h102l-33 149l-15 80h-3zM281 787h-102q0 61 34 98.5t92 37.5q44 0 94.5 -11t60.5 -11q20 0 21 12l97 -1q0 -62 -34.5 -98t-91.5 -36q-44 0 -90.5 11t-56.5 11q-24 0 -24 -13z" />
    <glyph glyph-name="Adieresis" unicode="&#xc4;" horiz-adv-x="762" 
d="M493 0l-25 113h-188l-26 -113h-264l239 750h298l245 -750h-279zM375 535l-17 -80l-34 -149h102l-33 149l-15 80h-3zM363 859q0 -77 -89 -77q-47 0 -68.5 18t-21.5 59q0 79 90 79q89 0 89 -79zM569 859q0 -77 -89 -77q-46 0 -67.5 18t-21.5 59q0 79 89 79t89 -79z" />
    <glyph glyph-name="Aring" unicode="&#xc5;" horiz-adv-x="762" 
d="M205 803q0 59 36.5 88.5t129.5 29.5q171 0 171 -118q0 -37 -12 -63l242 -740h-279l-25 113h-188l-26 -113h-264l232 730q-17 26 -17 73zM375 535l-17 -80l-34 -149h102l-33 149l-15 80h-3zM321 795q0 -17 10 -23.5t46 -6.5q32 0 42.5 6t10.5 24q0 17 -10.5 24.5
t-42.5 7.5q-35 0 -45.5 -7t-10.5 -25z" />
    <glyph glyph-name="AE" unicode="&#xc6;" horiz-adv-x="1076" 
d="M1042 545h-278l1 -72h223v-185h-221l1 -85h288l-4 -203h-533l-1 114h-189l-46 -114h-293l386 750h663zM512 573l-29 -76l-77 -192h110l-2 186l1 81z" />
    <glyph glyph-name="Ccedilla" unicode="&#xc7;" horiz-adv-x="586" 
d="M224 -186l69 179q-271 43 -271 384q0 187 92 287t281 100q93 0 173 -28l-23 -199q-68 18 -135 18q-79 0 -102 -35.5t-23 -142.5q0 -112 24.5 -149t103.5 -37q76 0 133 24l24 -190q-51 -23 -120 -33l-27 -178h-199z" />
    <glyph glyph-name="Egrave" unicode="&#xc8;" horiz-adv-x="613" 
d="M290 203h303l-4 -203h-549v750h537l3 -206h-290v-71h236v-185h-236v-85zM422 789h-183l-138 124h263z" />
    <glyph glyph-name="Eacute" unicode="&#xc9;" horiz-adv-x="613" 
d="M290 203h303l-4 -203h-549v750h537l3 -206h-290v-71h236v-185h-236v-85zM264 911h282l-150 -124h-180z" />
    <glyph glyph-name="Ecircumflex" unicode="&#xca;" horiz-adv-x="613" 
d="M290 203h303l-4 -203h-549v750h537l3 -206h-290v-71h236v-185h-236v-85zM191 912h245l95 -125h-193l-22 53h-2l-23 -53h-191z" />
    <glyph glyph-name="Edieresis" unicode="&#xcb;" horiz-adv-x="613" 
d="M290 203h303l-4 -203h-549v750h537l3 -206h-290v-71h236v-185h-236v-85zM302 859q0 -77 -89 -77q-47 0 -68.5 18t-21.5 59q0 79 90 79q89 0 89 -79zM508 859q0 -77 -89 -77q-46 0 -67.5 18t-21.5 59q0 79 89 79t89 -79z" />
    <glyph glyph-name="Igrave" unicode="&#xcc;" horiz-adv-x="352" 
d="M48 0v750h256v-750h-256zM281 789h-183l-138 124h263z" />
    <glyph glyph-name="Iacute" unicode="&#xcd;" horiz-adv-x="352" 
d="M48 0v750h256v-750h-256zM123 911h282l-150 -124h-180z" />
    <glyph glyph-name="Icircumflex" unicode="&#xce;" horiz-adv-x="352" 
d="M48 0v750h256v-750h-256zM50 912h245l95 -125h-193l-22 53h-2l-23 -53h-191z" />
    <glyph glyph-name="Idieresis" unicode="&#xcf;" horiz-adv-x="352" 
d="M48 0v750h256v-750h-256zM161 859q0 -77 -89 -77q-47 0 -68.5 18t-21.5 59q0 79 90 79q89 0 89 -79zM367 859q0 -77 -89 -77q-46 0 -67.5 18t-21.5 59q0 79 89 79t89 -79z" />
    <glyph glyph-name="Eth" unicode="&#xd0;" horiz-adv-x="739" 
d="M717 379q0 -199 -88 -289t-263 -90h-312v319h-46v135h46v296h308q187 0 271 -89.5t84 -281.5zM455 380q0 103 -18 132.5t-76 29.5h-57v-88h55v-135h-55v-113h57q41 0 59.5 11.5t26.5 47t8 115.5z" />
    <glyph glyph-name="Ntilde" unicode="&#xd1;" horiz-adv-x="734" 
d="M694 0h-173l-212 288l-46 66l-2 -1l1 -81v-272h-222v750h205l228 -326l2 1l-2 80v245h221v-750zM270 787h-102q0 61 34 98.5t92 37.5q44 0 94.5 -11t60.5 -11q20 0 21 12l97 -1q0 -62 -34.5 -98t-91.5 -36q-44 0 -90.5 11t-56.5 11q-24 0 -24 -13z" />
    <glyph glyph-name="Ograve" unicode="&#xd2;" horiz-adv-x="756" 
d="M733 375q0 -202 -85 -295.5t-270 -93.5q-182 0 -269 96.5t-87 292.5q0 197 85.5 292t270.5 95q184 0 269.5 -95t85.5 -292zM471 376q0 111 -18 144t-76 33q-55 0 -73.5 -34t-18.5 -143q0 -111 19 -146.5t75 -35.5q55 0 73.5 35.5t18.5 146.5zM491 789h-183l-138 124h263z
" />
    <glyph glyph-name="Oacute" unicode="&#xd3;" horiz-adv-x="756" 
d="M733 375q0 -202 -85 -295.5t-270 -93.5q-182 0 -269 96.5t-87 292.5q0 197 85.5 292t270.5 95q184 0 269.5 -95t85.5 -292zM471 376q0 111 -18 144t-76 33q-55 0 -73.5 -34t-18.5 -143q0 -111 19 -146.5t75 -35.5q55 0 73.5 35.5t18.5 146.5zM327 911h282l-150 -124h-180
z" />
    <glyph glyph-name="Ocircumflex" unicode="&#xd4;" horiz-adv-x="756" 
d="M733 375q0 -202 -85 -295.5t-270 -93.5q-182 0 -269 96.5t-87 292.5q0 197 85.5 292t270.5 95q184 0 269.5 -95t85.5 -292zM471 376q0 111 -18 144t-76 33q-55 0 -73.5 -34t-18.5 -143q0 -111 19 -146.5t75 -35.5q55 0 73.5 35.5t18.5 146.5zM255 912h245l95 -125h-193
l-22 53h-2l-23 -53h-191z" />
    <glyph glyph-name="Otilde" unicode="&#xd5;" horiz-adv-x="756" 
d="M733 375q0 -202 -85 -295.5t-270 -93.5q-182 0 -269 96.5t-87 292.5q0 197 85.5 292t270.5 95q184 0 269.5 -95t85.5 -292zM471 376q0 111 -18 144t-76 33q-55 0 -73.5 -34t-18.5 -143q0 -111 19 -146.5t75 -35.5q55 0 73.5 35.5t18.5 146.5zM284 787h-102q0 61 34 98.5
t92 37.5q44 0 94.5 -11t60.5 -11q20 0 21 12l97 -1q0 -62 -34.5 -98t-91.5 -36q-44 0 -90.5 11t-56.5 11q-24 0 -24 -13z" />
    <glyph glyph-name="Odieresis" unicode="&#xd6;" horiz-adv-x="756" 
d="M733 375q0 -202 -85 -295.5t-270 -93.5q-182 0 -269 96.5t-87 292.5q0 197 85.5 292t270.5 95q184 0 269.5 -95t85.5 -292zM471 376q0 111 -18 144t-76 33q-55 0 -73.5 -34t-18.5 -143q0 -111 19 -146.5t75 -35.5q55 0 73.5 35.5t18.5 146.5zM366 859q0 -77 -89 -77
q-47 0 -68.5 18t-21.5 59q0 79 90 79q89 0 89 -79zM572 859q0 -77 -89 -77q-46 0 -67.5 18t-21.5 59q0 79 89 79t89 -79z" />
    <glyph glyph-name="multiply" unicode="&#xd7;" horiz-adv-x="607" 
d="M552 205l-132 -132l-117 116l-115 -117l-132 132l117 116l-121 120l131 133l121 -121l121 121l131 -131l-122 -122z" />
    <glyph glyph-name="Oslash" unicode="&#xd8;" horiz-adv-x="756" 
d="M129 -20l-115 98l54 64q-46 89 -46 233q0 197 85.5 292t270.5 95q129 0 208 -46l44 50l113 -101l-53 -61q43 -89 43 -229q0 -202 -85 -295.5t-270 -93.5q-124 0 -205 45zM285 376v-19l158 176q-20 20 -66 20q-55 0 -73.5 -34t-18.5 -143zM471 376v12l-156 -175
q20 -19 63 -19q56 0 74.5 35.5t18.5 146.5z" />
    <glyph glyph-name="Ugrave" unicode="&#xd9;" horiz-adv-x="714" 
d="M680 750v-483q0 -281 -321 -281q-162 0 -243.5 71.5t-81.5 209.5v483h250v-481q0 -38 17 -55.5t58 -17.5q42 0 57.5 16.5t15.5 56.5v481h248zM465 789h-183l-138 124h263z" />
    <glyph glyph-name="Uacute" unicode="&#xda;" horiz-adv-x="714" 
d="M680 750v-483q0 -281 -321 -281q-162 0 -243.5 71.5t-81.5 209.5v483h250v-481q0 -38 17 -55.5t58 -17.5q42 0 57.5 16.5t15.5 56.5v481h248zM307 911h282l-150 -124h-180z" />
    <glyph glyph-name="Ucircumflex" unicode="&#xdb;" horiz-adv-x="714" 
d="M680 750v-483q0 -281 -321 -281q-162 0 -243.5 71.5t-81.5 209.5v483h250v-481q0 -38 17 -55.5t58 -17.5q42 0 57.5 16.5t15.5 56.5v481h248zM235 912h245l95 -125h-193l-22 53h-2l-23 -53h-191z" />
    <glyph glyph-name="Udieresis" unicode="&#xdc;" horiz-adv-x="714" 
d="M680 750v-483q0 -281 -321 -281q-162 0 -243.5 71.5t-81.5 209.5v483h250v-481q0 -38 17 -55.5t58 -17.5q42 0 57.5 16.5t15.5 56.5v481h248zM346 859q0 -77 -89 -77q-47 0 -68.5 18t-21.5 59q0 79 90 79q89 0 89 -79zM552 859q0 -77 -89 -77q-46 0 -67.5 18t-21.5 59
q0 79 89 79t89 -79z" />
    <glyph glyph-name="Yacute" unicode="&#xdd;" horiz-adv-x="731" 
d="M-13 750h280l78 -219l26 -76h3l24 77l74 218h272l-248 -526v-224h-255v224zM318 911h282l-150 -124h-180z" />
    <glyph glyph-name="Thorn" unicode="&#xde;" horiz-adv-x="681" 
d="M663 372q0 -265 -331 -265h-42v-107h-250v750h250v-99h42q175 0 253 -68.5t78 -210.5zM405 373q0 53 -13.5 68.5t-59.5 15.5h-43v-165h43q44 0 58.5 14.5t14.5 66.5z" />
    <glyph glyph-name="germandbls" unicode="&#xdf;" horiz-adv-x="686" 
d="M40 0v474q0 289 285 289q117 0 188 -57t71 -142q0 -40 -23 -80t-23 -48t21 -24t45.5 -35t45.5 -60.5t21 -93.5q0 -105 -70.5 -169t-184.5 -64q-79 0 -123 25l10 181q24 -15 72 -15q62 0 62 36q0 21 -23 42.5t-50.5 39t-50.5 46.5t-23 63q0 30 18 60.5t35.5 53.5t17.5 35
q0 28 -42 28q-29 0 -39 -18t-10 -73v-494h-230z" />
    <glyph glyph-name="agrave" unicode="&#xe0;" horiz-adv-x="590" 
d="M380 0l-15 44q-62 -54 -152 -54q-93 0 -143.5 54t-50.5 156q0 86 60 141.5t160 55.5q48 0 90 -8v8q0 51 -87 51q-81 0 -167 -30l-18 169q98 40 229 40q150 0 210.5 -63t60.5 -199v-365h-177zM329 199v48q-23 5 -46 5q-49 0 -49 -49q0 -45 43 -45q22 0 37 11t15 30z
M395 650h-171l-134 147h255z" />
    <glyph glyph-name="aacute" unicode="&#xe1;" horiz-adv-x="590" 
d="M380 0l-15 44q-62 -54 -152 -54q-93 0 -143.5 54t-50.5 156q0 86 60 141.5t160 55.5q48 0 90 -8v8q0 51 -87 51q-81 0 -167 -30l-18 169q98 40 229 40q150 0 210.5 -63t60.5 -199v-365h-177zM329 199v48q-23 5 -46 5q-49 0 -49 -49q0 -45 43 -45q22 0 37 11t15 30z
M230 797h255l-127 -147h-171z" />
    <glyph glyph-name="acircumflex" unicode="&#xe2;" horiz-adv-x="590" 
d="M380 0l-15 44q-62 -54 -152 -54q-93 0 -143.5 54t-50.5 156q0 86 60 141.5t160 55.5q48 0 90 -8v8q0 51 -87 51q-81 0 -167 -30l-18 169q98 40 229 40q150 0 210.5 -63t60.5 -199v-365h-177zM329 199v48q-23 5 -46 5q-49 0 -49 -49q0 -45 43 -45q22 0 37 11t15 30z
M193 797h198l94 -147h-166l-23 54h-6l-24 -54h-165z" />
    <glyph glyph-name="atilde" unicode="&#xe3;" horiz-adv-x="590" 
d="M380 0l-15 44q-62 -54 -152 -54q-93 0 -143.5 54t-50.5 156q0 86 60 141.5t160 55.5q48 0 90 -8v8q0 51 -87 51q-81 0 -167 -30l-18 169q98 40 229 40q150 0 210.5 -63t60.5 -199v-365h-177zM329 199v48q-23 5 -46 5q-49 0 -49 -49q0 -45 43 -45q22 0 37 11t15 30z
M205 654h-101q0 66 33.5 109t89.5 43q42 0 82.5 -18.5t56.5 -18.5q20 0 26 26h102q0 -68 -34.5 -109.5t-89.5 -41.5q-41 0 -82 18.5t-56 18.5q-23 0 -27 -27z" />
    <glyph glyph-name="adieresis" unicode="&#xe4;" horiz-adv-x="590" 
d="M380 0l-15 44q-62 -54 -152 -54q-93 0 -143.5 54t-50.5 156q0 86 60 141.5t160 55.5q48 0 90 -8v8q0 51 -87 51q-81 0 -167 -30l-18 169q98 40 229 40q150 0 210.5 -63t60.5 -199v-365h-177zM329 199v48q-23 5 -46 5q-49 0 -49 -49q0 -45 43 -45q22 0 37 11t15 30z
M281 726q0 -82 -90 -82q-46 0 -68 19t-22 63q0 84 90 84t90 -84zM490 726q0 -82 -90 -82q-46 0 -68 19t-22 63q0 84 90 84t90 -84z" />
    <glyph glyph-name="aring" unicode="&#xe5;" horiz-adv-x="590" 
d="M380 0l-15 44q-62 -54 -152 -54q-93 0 -143.5 54t-50.5 156q0 86 60 141.5t160 55.5q48 0 90 -8v8q0 51 -87 51q-81 0 -167 -30l-18 169q98 40 229 40q150 0 210.5 -63t60.5 -199v-365h-177zM329 199v48q-23 5 -46 5q-49 0 -49 -49q0 -45 43 -45q22 0 37 11t15 30z
M139 741q0 49 35 74t119 25q157 0 157 -99q0 -54 -36 -77t-121 -23q-82 0 -118 22t-36 78zM246 739q0 -11 9.5 -15.5t41.5 -4.5q28 0 38.5 4.5t10.5 15.5q0 12 -10 17.5t-39 5.5q-30 0 -40.5 -5.5t-10.5 -17.5z" />
    <glyph glyph-name="ae" unicode="&#xe6;" horiz-adv-x="889" 
d="M285 627q118 0 173 -46q63 46 161 46q118 0 186 -73t68 -214q0 -43 -6 -101h-318q14 -64 124 -64q85 0 161 24l25 -174q-89 -36 -215 -36q-141 0 -222 72q-69 -71 -187 -71q-216 0 -216 210q0 86 60 141.5t160 55.5q48 0 90 -8v8q0 51 -87 51q-81 0 -167 -30l-18 169
q103 40 228 40zM329 199v48q-23 5 -46 5q-49 0 -49 -49q0 -45 43 -45q22 0 37 11t15 30zM544 380h119q-2 38 -15.5 54t-42.5 16q-32 0 -44 -13.5t-17 -56.5z" />
    <glyph glyph-name="ccedilla" unicode="&#xe7;" horiz-adv-x="487" 
d="M160 -186l71 183q-105 21 -159.5 98.5t-54.5 206.5q0 324 304 324q84 0 145 -22l-11 -181q-46 12 -82 12q-69 0 -93 -28t-24 -105q0 -66 29.5 -98.5t82.5 -32.5q36 0 90 12l15 -165q-33 -17 -87 -25l-27 -179h-199z" />
    <glyph glyph-name="egrave" unicode="&#xe8;" horiz-adv-x="596" 
d="M351 -11q-167 0 -250.5 83t-83.5 237q0 152 72.5 235t220.5 83q131 0 200.5 -72.5t69.5 -214.5q0 -50 -7 -101h-317q14 -64 124 -64q85 0 161 20l24 -170q-87 -36 -214 -36zM251 380h118q-1 38 -14.5 54t-42.5 16q-32 0 -44 -13.5t-17 -56.5zM413 650h-171l-134 147h255z
" />
    <glyph glyph-name="eacute" unicode="&#xe9;" horiz-adv-x="596" 
d="M351 -11q-167 0 -250.5 83t-83.5 237q0 152 72.5 235t220.5 83q131 0 200.5 -72.5t69.5 -214.5q0 -50 -7 -101h-317q14 -64 124 -64q85 0 161 20l24 -170q-87 -36 -214 -36zM251 380h118q-1 38 -14.5 54t-42.5 16q-32 0 -44 -13.5t-17 -56.5zM247 797h255l-127 -147h-171
z" />
    <glyph glyph-name="ecircumflex" unicode="&#xea;" horiz-adv-x="596" 
d="M351 -11q-167 0 -250.5 83t-83.5 237q0 152 72.5 235t220.5 83q131 0 200.5 -72.5t69.5 -214.5q0 -50 -7 -101h-317q14 -64 124 -64q85 0 161 20l24 -170q-87 -36 -214 -36zM251 380h118q-1 38 -14.5 54t-42.5 16q-32 0 -44 -13.5t-17 -56.5zM210 797h198l94 -147h-166
l-23 54h-6l-24 -54h-165z" />
    <glyph glyph-name="edieresis" unicode="&#xeb;" horiz-adv-x="596" 
d="M351 -11q-167 0 -250.5 83t-83.5 237q0 152 72.5 235t220.5 83q131 0 200.5 -72.5t69.5 -214.5q0 -50 -7 -101h-317q14 -64 124 -64q85 0 161 20l24 -170q-87 -36 -214 -36zM251 380h118q-1 38 -14.5 54t-42.5 16q-32 0 -44 -13.5t-17 -56.5zM285 726q0 -82 -90 -82
q-46 0 -68 19t-22 63q0 84 90 84t90 -84zM494 726q0 -82 -90 -82q-46 0 -68 19t-22 63q0 84 90 84t90 -84z" />
    <glyph glyph-name="igrave" unicode="&#xec;" horiz-adv-x="328" 
d="M282 0h-236v611l236 10v-621zM273 650h-171l-134 147h255z" />
    <glyph glyph-name="iacute" unicode="&#xed;" horiz-adv-x="328" 
d="M282 0h-236v611l236 10v-621zM107 797h255l-127 -147h-171z" />
    <glyph glyph-name="icircumflex" unicode="&#xee;" horiz-adv-x="328" 
d="M282 0h-236v611l236 10v-621zM70 797h198l94 -147h-166l-23 54h-6l-24 -54h-165z" />
    <glyph glyph-name="idieresis" unicode="&#xef;" horiz-adv-x="328" 
d="M282 0h-236v611l236 10v-621zM156 726q0 -82 -90 -82q-46 0 -68 19t-22 63q0 84 90 84t90 -84zM365 726q0 -82 -90 -82q-46 0 -68 19t-22 63q0 84 90 84t90 -84z" />
    <glyph glyph-name="eth" unicode="&#xf0;" horiz-adv-x="637" 
d="M530 697l-66 -33q71 -72 113.5 -157.5t42.5 -169.5q0 -186 -73 -266.5t-227 -80.5q-53 0 -96 8t-82.5 28.5t-66.5 52.5t-42.5 83t-15.5 117q0 120 64 186t175 66q55 0 95 -15l2 2q-24 33 -56 63l-86 -42l-76 82l65 34q-26 17 -72 40l163 97q40 -20 79 -47l86 45zM256 270
q0 -61 13 -82.5t42 -21.5q38 0 53.5 27t15.5 94q0 36 -17 50.5t-50 14.5t-45 -17.5t-12 -64.5z" />
    <glyph glyph-name="ntilde" unicode="&#xf1;" horiz-adv-x="639" 
d="M605 0h-230v378q0 33 -12.5 47t-38.5 14q-36 0 -57 -23v-416h-230v612l165 10l30 -44q68 51 158 51q99 0 157 -66t58 -185v-378zM240 654h-101q0 66 33.5 109t89.5 43q42 0 82.5 -18.5t56.5 -18.5q20 0 26 26h102q0 -68 -34.5 -109.5t-89.5 -41.5q-41 0 -82 18.5
t-56 18.5q-23 0 -27 -27z" />
    <glyph glyph-name="ograve" unicode="&#xf2;" horiz-adv-x="636" 
d="M619 306q0 -168 -71.5 -244t-229.5 -76q-157 0 -229 76t-72 244t72.5 245t229.5 77t228.5 -77t71.5 -245zM256 306q0 -91 13 -118.5t50 -27.5q36 0 49 28t13 118t-13 118t-49 28q-37 0 -50 -27.5t-13 -118.5zM421 650h-171l-134 147h255z" />
    <glyph glyph-name="oacute" unicode="&#xf3;" horiz-adv-x="636" 
d="M619 306q0 -168 -71.5 -244t-229.5 -76q-157 0 -229 76t-72 244t72.5 245t229.5 77t228.5 -77t71.5 -245zM256 306q0 -91 13 -118.5t50 -27.5q36 0 49 28t13 118t-13 118t-49 28q-37 0 -50 -27.5t-13 -118.5zM256 797h255l-127 -147h-171z" />
    <glyph glyph-name="ocircumflex" unicode="&#xf4;" horiz-adv-x="636" 
d="M619 306q0 -168 -71.5 -244t-229.5 -76q-157 0 -229 76t-72 244t72.5 245t229.5 77t228.5 -77t71.5 -245zM256 306q0 -91 13 -118.5t50 -27.5q36 0 49 28t13 118t-13 118t-49 28q-37 0 -50 -27.5t-13 -118.5zM218 797h198l94 -147h-166l-23 54h-6l-24 -54h-165z" />
    <glyph glyph-name="otilde" unicode="&#xf5;" horiz-adv-x="636" 
d="M619 306q0 -168 -71.5 -244t-229.5 -76q-157 0 -229 76t-72 244t72.5 245t229.5 77t228.5 -77t71.5 -245zM256 306q0 -91 13 -118.5t50 -27.5q36 0 49 28t13 118t-13 118t-49 28q-37 0 -50 -27.5t-13 -118.5zM230 654h-101q0 66 33.5 109t89.5 43q42 0 82.5 -18.5
t56.5 -18.5q20 0 26 26h102q0 -68 -34.5 -109.5t-89.5 -41.5q-41 0 -82 18.5t-56 18.5q-23 0 -27 -27z" />
    <glyph glyph-name="odieresis" unicode="&#xf6;" horiz-adv-x="636" 
d="M619 306q0 -168 -71.5 -244t-229.5 -76q-157 0 -229 76t-72 244t72.5 245t229.5 77t228.5 -77t71.5 -245zM256 306q0 -91 13 -118.5t50 -27.5q36 0 49 28t13 118t-13 118t-49 28q-37 0 -50 -27.5t-13 -118.5zM303 726q0 -82 -90 -82q-46 0 -68 19t-22 63q0 84 90 84
t90 -84zM512 726q0 -82 -90 -82q-46 0 -68 19t-22 63q0 84 90 84t90 -84z" />
    <glyph glyph-name="divide" unicode="&#xf7;" horiz-adv-x="607" 
d="M441 549q0 -98 -136 -98q-70 0 -102.5 21.5t-32.5 76.5q0 99 135 99q136 0 136 -99zM441 116q0 -98 -136 -98q-70 0 -102.5 22t-32.5 76q0 100 135 100q136 0 136 -100zM559 234h-510v196h510v-196z" />
    <glyph glyph-name="oslash" unicode="&#xf8;" horiz-adv-x="636" 
d="M114 -24l-93 80l39 46q-43 74 -43 204q0 168 72.5 245t229.5 77q102 0 166 -32l36 42l93 -81l-39 -45q44 -73 44 -206q0 -168 -71.5 -244t-229.5 -76q-101 0 -168 32zM319 160q36 0 49 27t15 115l-112 -118q13 -24 48 -24zM319 452q-36 0 -49.5 -25.5t-14.5 -110.5
l109 115q-12 21 -45 21z" />
    <glyph glyph-name="ugrave" unicode="&#xf9;" horiz-adv-x="635" 
d="M601 617v-385q0 -242 -283 -242q-284 0 -284 242v385h230v-381q0 -30 12.5 -43.5t41.5 -13.5q30 0 42 13t12 44v381h229zM421 650h-171l-134 147h255z" />
    <glyph glyph-name="uacute" unicode="&#xfa;" horiz-adv-x="635" 
d="M601 617v-385q0 -242 -283 -242q-284 0 -284 242v385h230v-381q0 -30 12.5 -43.5t41.5 -13.5q30 0 42 13t12 44v381h229zM256 797h255l-127 -147h-171z" />
    <glyph glyph-name="ucircumflex" unicode="&#xfb;" horiz-adv-x="635" 
d="M601 617v-385q0 -242 -283 -242q-284 0 -284 242v385h230v-381q0 -30 12.5 -43.5t41.5 -13.5q30 0 42 13t12 44v381h229zM218 797h198l94 -147h-166l-23 54h-6l-24 -54h-165z" />
    <glyph glyph-name="udieresis" unicode="&#xfc;" horiz-adv-x="635" 
d="M601 617v-385q0 -242 -283 -242q-284 0 -284 242v385h230v-381q0 -30 12.5 -43.5t41.5 -13.5q30 0 42 13t12 44v381h229zM302 726q0 -82 -90 -82q-46 0 -68 19t-22 63q0 84 90 84t90 -84zM511 726q0 -82 -90 -82q-46 0 -68 19t-22 63q0 84 90 84t90 -84z" />
    <glyph glyph-name="yacute" unicode="&#xfd;" horiz-adv-x="672" 
d="M173 -18q64 0 80 40l2 6l-259 589h259l84 -274l22 -78h3l14 79l56 273h243l-193 -585q-35 -108 -101.5 -158t-167.5 -50q-66 0 -116 18l16 150q30 -10 58 -10zM283 797h255l-127 -147h-171z" />
    <glyph glyph-name="thorn" unicode="&#xfe;" horiz-adv-x="640" 
d="M623 309q0 -152 -64 -235t-172 -83q-67 0 -117 28v-179h-230v927l229 11v-113l-2 -80l3 -2q58 44 132 44q108 0 164.5 -75t56.5 -243zM385 311q0 78 -12 102.5t-49 24.5q-36 0 -54 -28v-212q21 -30 53 -30t47 28.5t15 114.5z" />
    <glyph glyph-name="ydieresis" unicode="&#xff;" horiz-adv-x="672" 
d="M173 -18q64 0 80 40l2 6l-259 589h259l84 -274l22 -78h3l14 79l56 273h243l-193 -585q-35 -108 -101.5 -158t-167.5 -50q-66 0 -116 18l16 150q30 -10 58 -10zM323 726q0 -82 -90 -82q-46 0 -68 19t-22 63q0 84 90 84t90 -84zM532 726q0 -82 -90 -82q-46 0 -68 19t-22 63
q0 84 90 84t90 -84z" />
    <glyph glyph-name="dotlessi" unicode="&#x131;" horiz-adv-x="328" 
d="M282 0h-236v611l236 10v-621z" />
    <glyph glyph-name="OE" unicode="&#x152;" horiz-adv-x="1039" 
d="M1015 0h-524v32l-2 1q-62 -47 -160 -47q-148 0 -227.5 98t-79.5 291q0 387 310 387q90 0 157 -43l2 1v30h512l4 -206h-291v-71h236v-185h-236v-85h303zM471 376q0 111 -18 144t-76 33q-55 0 -73.5 -34t-18.5 -143q0 -111 19 -146.5t75 -35.5q55 0 73.5 35.5t18.5 146.5z
" />
    <glyph glyph-name="oe" unicode="&#x153;" horiz-adv-x="958" 
d="M721 -11q-145 0 -215 63q-64 -66 -208 -66q-145 0 -214 76.5t-69 243.5q0 166 70 244t214 78q133 0 199 -60q64 59 182 59q124 0 192.5 -72.5t68.5 -214.5q0 -58 -6 -101h-318q14 -64 124 -64q85 0 161 24l25 -174q-89 -36 -206 -36zM254 306q0 -91 13 -118.5t50 -27.5
q36 0 49 28t13 118t-13 118t-49 28q-37 0 -50 -27.5t-13 -118.5zM613 380h118q-1 38 -14.5 54t-43.5 16q-32 0 -44 -13.5t-16 -56.5z" />
    <glyph glyph-name="Scaron" unicode="&#x160;" horiz-adv-x="589" 
d="M576 236q0 -115 -82.5 -182.5t-222.5 -67.5q-136 0 -246 54l30 200q114 -53 213 -53q38 0 53 8t15 26q0 13 -17 23t-44.5 19t-61 19.5t-67 29t-61 43.5t-44.5 65.5t-17 92.5q0 110 75 180t226 70q124 0 225 -37l-27 -196q-106 27 -184 27q-48 0 -62 -7.5t-14 -23.5
t23 -28.5t58 -21.5t75.5 -27t75.5 -41.5t58 -68t23 -103.5zM441 787h-243l-93 125h193l22 -56h2l23 56h192z" />
    <glyph glyph-name="scaron" unicode="&#x161;" horiz-adv-x="503" 
d="M485 206q0 -218 -258 -218q-116 0 -197 34l21 176q76 -35 176 -35q45 0 45 23q0 15 -26 24t-63 19t-74 27.5t-63 59t-26 103.5q0 93 64.5 150.5t192.5 57.5q90 0 184 -33l-17 -174q-75 28 -171 28q-33 0 -33 -19q0 -13 18 -22t45.5 -14.5t59 -18t59 -30t45.5 -53.5
t18 -85zM363 650h-200l-90 147h165l23 -59h6l22 59h168z" />
    <glyph glyph-name="Ydieresis" unicode="&#x178;" horiz-adv-x="731" 
d="M-13 750h280l78 -219l26 -76h3l24 77l74 218h272l-248 -526v-224h-255v224zM357 859q0 -77 -89 -77q-47 0 -68.5 18t-21.5 59q0 79 90 79q89 0 89 -79zM563 859q0 -77 -89 -77q-46 0 -67.5 18t-21.5 59q0 79 89 79t89 -79z" />
    <glyph glyph-name="Zcaron" unicode="&#x17d;" horiz-adv-x="619" 
d="M594 0h-575v152l228 323l47 63l-1 2h-269l6 210h562v-169l-217 -307l-47 -62l1 -3h267zM442 787h-243l-93 125h193l22 -56h2l23 56h192z" />
    <glyph glyph-name="zcaron" unicode="&#x17e;" horiz-adv-x="533" 
d="M504 467l-173 -226l-49 -61l1 -3h234l-6 -177h-492v151l172 224l50 61l-1 2h-217l8 179h473v-150zM368 650h-200l-90 147h165l23 -59h6l22 59h168z" />
    <glyph glyph-name="florin" unicode="&#x192;" horiz-adv-x="449" 
d="M182 -159h-229l130 612h-62l36 163h61l3 19q11 67 80.5 116.5t180.5 49.5q57 0 106 -14l-42 -139q-24 6 -46 6q-44 0 -47 -19l-4 -19h100l-36 -163h-100z" />
    <glyph glyph-name="uni0237" unicode="&#x237;" horiz-adv-x="329" 
d="M284 621v-601q0 -103 -59 -147.5t-153 -44.5q-53 0 -99 16l10 148q15 -4 31 -4q40 0 40 38v585z" />
    <glyph glyph-name="circumflex" unicode="&#x2c6;" horiz-adv-x="413" 
d="M108 797h198l94 -147h-166l-23 54h-6l-24 -54h-165z" />
    <glyph glyph-name="tilde" unicode="&#x2dc;" horiz-adv-x="413" 
d="M120 654h-101q0 66 33.5 109t89.5 43q42 0 82.5 -18.5t56.5 -18.5q20 0 26 26h102q0 -68 -34.5 -109.5t-89.5 -41.5q-41 0 -82 18.5t-56 18.5q-23 0 -27 -27z" />
    <glyph glyph-name="endash" unicode="&#x2013;" horiz-adv-x="496" 
d="M30 420h437v-154h-437v154z" />
    <glyph glyph-name="emdash" unicode="&#x2014;" horiz-adv-x="685" 
d="M30 420h625v-154h-625v154z" />
    <glyph glyph-name="quoteleft" unicode="&#x2018;" horiz-adv-x="279" 
d="M142 464q-122 0 -122 123q0 49 34.5 117t78.5 115l82 -19l-25 -118q28 -14 49 -42t21 -60q0 -53 -28.5 -84.5t-89.5 -31.5z" />
    <glyph glyph-name="quoteright" unicode="&#x2019;" horiz-adv-x="279" 
d="M138 772q121 0 121 -123q0 -49 -34.5 -117.5t-78.5 -115.5l-82 19l25 118q-28 16 -49 43.5t-21 59.5q0 53 29 84.5t90 31.5z" />
    <glyph glyph-name="quotesinglbase" unicode="&#x201a;" horiz-adv-x="279" 
d="M138 208q121 0 121 -123q0 -49 -34.5 -117.5t-78.5 -115.5l-82 19l25 118q-28 16 -49 43.5t-21 59.5q0 53 29 84.5t90 31.5z" />
    <glyph glyph-name="quotedblleft" unicode="&#x201c;" horiz-adv-x="539" 
d="M142 464q-122 0 -122 123q0 49 34.5 117t78.5 115l82 -19l-25 -118q28 -14 49 -42t21 -60q0 -53 -28.5 -84.5t-89.5 -31.5zM401 464q-122 0 -122 123q0 49 35 117.5t79 115.5l81 -19l-25 -118q28 -15 49 -42.5t21 -60.5q0 -53 -28.5 -84.5t-89.5 -31.5z" />
    <glyph glyph-name="quotedblright" unicode="&#x201d;" horiz-adv-x="539" 
d="M138 769q121 0 121 -123q0 -49 -34.5 -117.5t-78.5 -115.5l-82 19l25 118q-28 16 -49 43.5t-21 59.5q0 53 29 84.5t90 31.5zM397 769q121 0 121 -123q0 -49 -34.5 -117.5t-78.5 -115.5l-82 19l25 118q-28 16 -49 43.5t-21 59.5q0 53 29 84.5t90 31.5z" />
    <glyph glyph-name="quotedblbase" unicode="&#x201e;" horiz-adv-x="539" 
d="M397 208q121 0 121 -123q0 -49 -34.5 -117.5t-78.5 -115.5l-82 19l25 118q-28 16 -49 43.5t-21 59.5q0 53 29 84.5t90 31.5zM138 208q121 0 121 -123q0 -49 -34.5 -117.5t-78.5 -115.5l-82 19l25 118q-28 16 -49 43.5t-21 59.5q0 53 29 84.5t90 31.5z" />
    <glyph glyph-name="dagger" unicode="&#x2020;" horiz-adv-x="480" 
d="M11 628l135 -15l-20 166h229l-16 -166l130 15v-200l-130 14l16 -591h-229l20 591l-135 -14v200z" />
    <glyph glyph-name="daggerdbl" unicode="&#x2021;" horiz-adv-x="480" 
d="M469 211v-200l-131 16l17 -176h-229l20 176l-135 -16v200l137 -13l-2 244l-135 -14v200l135 -15l-20 166h229l-16 -166l130 15v-200l-130 14v-244z" />
    <glyph glyph-name="bullet" unicode="&#x2022;" horiz-adv-x="422" 
d="M25 322q0 183 184 183q187 0 187 -183q0 -185 -187 -185q-184 0 -184 185z" />
    <glyph glyph-name="ellipsis" unicode="&#x2026;" horiz-adv-x="843" 
d="M821 99q0 -112 -123 -112q-66 0 -95.5 26t-29.5 86q0 113 125 113q123 0 123 -113zM547 99q0 -112 -123 -112q-66 0 -95.5 26t-29.5 86q0 113 125 113q123 0 123 -113zM269 99q0 -112 -123 -112q-66 0 -95.5 26t-29.5 86q0 113 125 113q123 0 123 -113z" />
    <glyph glyph-name="perthousand" unicode="&#x2030;" horiz-adv-x="1128" 
d="M353 581q0 -85 -44.5 -130.5t-128.5 -45.5q-169 0 -169 176q0 90 41 132t130 42q86 0 128.5 -41.5t42.5 -132.5zM203 581q0 44 -21 44q-12 0 -16.5 -9t-4.5 -35q0 -25 5 -34t16 -9q12 0 16.5 8.5t4.5 34.5zM532 695l128 -99l-430 -556l-128 100zM762 163
q0 -85 -44.5 -130t-128.5 -45q-170 0 -170 175q0 91 41.5 134.5t129.5 43.5q172 0 172 -178zM612 163q0 41 -22 41q-11 0 -16 -8.5t-5 -32.5t5 -32.5t16 -8.5q12 0 17 8t5 33zM1118 163q0 -85 -44.5 -130t-128.5 -45q-170 0 -170 175q0 91 41.5 134.5t129.5 43.5
q172 0 172 -178zM968 163q0 41 -22 41q-11 0 -16 -8.5t-5 -32.5t5 -32.5t16 -8.5q12 0 17 8t5 33z" />
    <glyph glyph-name="guilsinglleft" unicode="&#x2039;" horiz-adv-x="381" 
d="M353 397l-124 -83l124 -82v-163l-340 239v13l340 239v-163z" />
    <glyph glyph-name="guilsinglright" unicode="&#x203a;" horiz-adv-x="381" 
d="M28 69v163l124 82l-124 83v163l340 -239v-13z" />
    <glyph glyph-name="Euro" unicode="&#x20ac;" 
d="M513 352l-25 -108h-125q32 -70 125 -70q37 0 94 17l15 -170q-68 -31 -178 -31q-263 0 -316 254h-78l1 108h65v28h-65l-1 112h79q29 119 115 189.5t213 70.5q96 0 171 -24l-47 -187q-27 9 -66 9q-90 0 -122 -58h179l-27 -112h-175v-28h168z" />
    <glyph glyph-name="trademark" unicode="&#x2122;" horiz-adv-x="728" 
d="M713 449h-118v56l1 81l-3 1l-20 -70l-20 -68h-96l-18 57l-24 78l-2 -1l1 -68v-66h-116v300h168l20 -66l22 -78h3l18 72l21 72h163v-300zM278 638h-67v-189h-138v189h-69v111h274v-111z" />
    </font>
</defs>
</svg>
