<?xml version="1.0" standalone="no"?>
<!DOCTYPE svg PUBLIC "-//W3C//DTD SVG 1.1//EN" "http://www.w3.org/Graphics/SVG/1.1/DTD/svg11.dtd" >
<svg xmlns="http://www.w3.org/2000/svg" xmlns:xlink="http://www.w3.org/1999/xlink" version="1.1">
<metadata>
Created by FontForge 20170731 at Tue Feb 28 12:37:18 2017
 By Aleksey,,,
2006 Lukasz Dziedzic published by FSI FontShop International GmbH
</metadata>
<defs>
<font id="ClanW01-Bold" horiz-adv-x="641" >
  <font-face 
    font-family="ClanW01-Bold"
    font-weight="700"
    font-stretch="normal"
    units-per-em="1000"
    panose-1="2 11 8 4 2 1 1 2 1 2"
    ascent="800"
    descent="-200"
    x-height="606"
    cap-height="750"
    bbox="-24 -189 1042 916"
    underline-thickness="50"
    underline-position="-175"
    unicode-range="U+000D-2122"
  />
<missing-glyph horiz-adv-x="629" 
d="M62 0v750h505v-750h-505zM156 94h317v562h-317v-562z" />
    <glyph glyph-name=".notdef" horiz-adv-x="629" 
d="M62 0v750h505v-750h-505zM156 94h317v562h-317v-562z" />
    <glyph glyph-name="glyph1" horiz-adv-x="0" 
 />
    <glyph glyph-name="glyph1" horiz-adv-x="0" 
 />
    <glyph glyph-name="uni000D" unicode="&#xd;" horiz-adv-x="266" 
 />
    <glyph glyph-name="space" unicode=" " horiz-adv-x="266" 
 />
    <glyph glyph-name="exclam" unicode="!" horiz-adv-x="303" 
d="M212 218h-121l-24 532h168zM241 66q0 -37 -21.5 -57.5t-65.5 -20.5q-45 0 -66 18.5t-21 59.5q0 38 22 58.5t65 20.5q87 0 87 -79z" />
    <glyph glyph-name="quotedbl" unicode="&#x22;" horiz-adv-x="430" 
d="M250 766h149l-27 -273h-100zM47 766h149l-27 -273h-100z" />
    <glyph glyph-name="numbersign" unicode="#" 
d="M54 303h95l19 140h-113v118h127l24 189h124l-24 -189h85l24 189h121l-24 -189h77v-118h-90l-20 -140h110v-120h-123l-24 -183h-121l23 183h-86l-23 -183h-124l24 183h-81v120zM292 443l-20 -140h86l20 140h-86z" />
    <glyph glyph-name="dollar" unicode="$" 
d="M307 -81l-85 8l9 64q-42 5 -86 16.5t-75 28.5l20 145q73 -39 160 -55l27 186q-65 24 -110 52.5t-71.5 72t-26.5 104.5q0 105 69 161.5t203 59.5l9 64l93 -7l-10 -63q12 -2 46.5 -8.5t64.5 -18.5l-9 -139q-55 16 -123 24l-25 -166q64 -22 105 -50t65.5 -71.5t24.5 -104.5
q0 -119 -64 -176.5t-201 -59.5zM454 200q0 13 -8.5 28t-29.5 28t-54 26l-25 -162q117 3 117 80zM211 548q0 -19 17 -35.5t72 -36.5l20 143q-27 -1 -53.5 -8t-41 -24t-14.5 -39z" />
    <glyph glyph-name="percent" unicode="%" horiz-adv-x="738" 
d="M342 585q0 -176 -156 -176q-79 0 -117 44t-38 132q0 91 37.5 132.5t118.5 41.5q78 0 116.5 -41.5t38.5 -132.5zM239 585q0 44 -12.5 61t-39.5 17q-28 0 -40 -16.5t-12 -61.5q0 -33 9 -55.5t43 -22.5q27 0 39.5 16.5t12.5 61.5zM523 715l88 -71l-408 -617l-88 71zM707 165
q0 -175 -156 -175q-79 0 -117 43.5t-38 131.5q0 91 37 134t119 43q78 0 116.5 -42.5t38.5 -134.5zM604 165q0 43 -12.5 60t-39.5 17q-28 0 -40 -16.5t-12 -60.5q0 -33 9 -55t43 -22q28 0 40 16.5t12 60.5z" />
    <glyph glyph-name="ampersand" unicode="&#x26;" horiz-adv-x="719" 
d="M711 132l-55 -141q-75 32 -159 91q-108 -96 -242 -96q-73 0 -122.5 26t-76.5 73.5t-27 111.5q0 121 131 220q-62 95 -62 162q0 60 25 100t72.5 61.5t118.5 21.5q56 0 106 -18.5t76 -55.5t26 -79q0 -33 -14.5 -63t-45.5 -61.5t-113 -88.5q60 -64 133 -123q6 11 22 45.5
t28 81.5h133q-5 -42 -24.5 -97t-50.5 -107q66 -41 121 -64zM280 131q27 0 56 10t52 26q-81 69 -148 145q-50 -50 -50 -101q0 -38 24.5 -59t65.5 -21zM243 579q0 -33 32 -86q44 28 67.5 52t23.5 50q0 24 -15.5 36.5t-40.5 12.5q-30 0 -48.5 -17.5t-18.5 -47.5z" />
    <glyph glyph-name="quotesingle" unicode="'" horiz-adv-x="228" 
d="M39 766h149l-27 -273h-100z" />
    <glyph glyph-name="parenleft" unicode="(" horiz-adv-x="357" 
d="M238 789l117 -10q-30 -45 -61 -113.5t-49 -158.5t-18 -181q0 -124 33 -241.5t94 -210.5l-116 -10q-77 85 -118.5 205.5t-41.5 256.5q0 139 40.5 256.5t119.5 206.5z" />
    <glyph glyph-name="parenright" unicode=")" horiz-adv-x="357" 
d="M3 779l117 10q78 -89 119 -207t41 -256q0 -136 -41.5 -256.5t-118.5 -205.5l-117 10q62 93 94.5 210.5t32.5 241.5q0 91 -18 181t-48.5 158.5t-60.5 113.5z" />
    <glyph glyph-name="asterisk" unicode="*" horiz-adv-x="377" 
d="M154 783h72l11 -103l98 25l26 -74l-98 -42l58 -89l-55 -44l-75 80l-77 -81l-58 42l57 92l-97 42l27 74l99 -25z" />
    <glyph glyph-name="plus" unicode="+" horiz-adv-x="602" 
d="M539 265h-171v-169h-137v169h-169v142h169v169h137v-169h171v-142z" />
    <glyph glyph-name="comma" unicode="," horiz-adv-x="265" 
d="M131 158q44 0 66.5 -25t22.5 -69q0 -18 -10 -52.5t-33.5 -80t-47.5 -76.5l-56 14l26 121q-22 10 -38 31.5t-16 47.5q0 29 11.5 50.5t32.5 30t42 8.5z" />
    <glyph glyph-name="hyphen" unicode="-" horiz-adv-x="390" 
d="M52 398h286v-112h-286v112z" />
    <glyph glyph-name="period" unicode="." horiz-adv-x="269" 
d="M224 75q0 -41 -22 -64t-67 -23q-47 0 -68.5 20.5t-21.5 66.5q0 86 90 86q89 0 89 -86z" />
    <glyph glyph-name="slash" unicode="/" horiz-adv-x="461" 
d="M332 784h134l-342 -905h-130z" />
    <glyph glyph-name="zero" unicode="0" 
d="M599 372q0 -200 -67 -291t-213 -91t-211.5 90.5t-65.5 291.5q0 105 16 179t49.5 119.5t86.5 67t127 21.5q73 0 125.5 -21.5t86 -67t50 -120t16.5 -178.5zM438 374q0 75 -8 128.5t-30.5 83t-78.5 29.5q-41 0 -65.5 -16.5t-39 -65.5t-14.5 -159q0 -77 8 -131t30.5 -83.5
t80.5 -29.5q48 0 71.5 22.5t34.5 75t11 146.5z" />
    <glyph glyph-name="one" unicode="1" 
d="M163 0v118h111v433l-137 -79l-17 136l223 142h99v-632h109v-118h-388z" />
    <glyph glyph-name="two" unicode="2" 
d="M577 539q0 -49 -23 -102t-80 -117t-186 -172v-3h288l-3 -145h-498v108q25 25 71.5 70t90 87.5t83 88t63.5 88t24 81.5q0 41 -29.5 65t-88.5 24q-88 0 -181 -66l-39 134q48 36 112.5 57.5t137.5 21.5q30 0 66 -5t69.5 -19.5t61.5 -40t44.5 -66t16.5 -89.5z" />
    <glyph glyph-name="three" unicode="3" 
d="M586 225q0 -110 -73 -172t-218 -62q-50 0 -110.5 12t-117.5 44l32 130q89 -49 191 -49q69 0 102.5 28t33.5 75q0 56 -50 77.5t-149 21.5v117q95 0 142 20t47 73q0 37 -30.5 57t-90.5 20q-105 0 -191 -65l-38 129q45 35 109 56.5t130 21.5q124 0 194 -55t70 -152
q0 -55 -27 -95.5t-76 -63.5v-2q120 -44 120 -166z" />
    <glyph glyph-name="four" unicode="4" 
d="M607 142h-73v-142h-152v142h-331l-14 104l301 504h196v-470h77zM388 280l6 238l4 81l-2 1l-183 -320h175z" />
    <glyph glyph-name="five" unicode="5" 
d="M583 259q0 -129 -68.5 -198.5t-209.5 -69.5q-137 0 -231 56l29 130q49 -25 91.5 -37t94.5 -12q71 0 101.5 28.5t30.5 88.5q0 51 -31.5 74.5t-97.5 23.5q-36 0 -79 -7.5t-73 -18.5l-57 62l30 371h429l5 -145h-304l-11 -139q53 11 108 11q118 0 180.5 -55.5t62.5 -162.5z
" />
    <glyph glyph-name="six" unicode="6" 
d="M594 263q0 -136 -68.5 -204t-196.5 -68q-105 0 -166 43t-89.5 122t-28.5 202q0 196 84.5 298.5t246.5 102.5q102 0 174 -28l-11 -140q-68 24 -143 24q-90 0 -135 -40.5t-56 -126.5l2 -2q68 42 150 42q237 0 237 -225zM434 266q0 49 -26 73.5t-82 24.5q-29 0 -64 -13.5
t-51 -33.5q1 -106 27.5 -147t89.5 -41q106 0 106 137z" />
    <glyph glyph-name="seven" unicode="7" 
d="M594 749v-139l-281 -610h-185l304 593h-383l7 156h538z" />
    <glyph glyph-name="eight" unicode="8" 
d="M44 220q0 51 27.5 97t75.5 75q-76 59 -76 167q0 95 62.5 147.5t188.5 52.5q127 0 188 -52.5t61 -148.5q0 -48 -21.5 -89.5t-59.5 -70.5q107 -57 107 -179q0 -113 -69.5 -170.5t-205.5 -57.5q-278 0 -278 229zM439 207q0 18 -9 37.5t-39 38t-114 46.5q-76 -46 -76 -110
q0 -52 30 -76t95 -24q53 0 83 21.5t30 66.5zM223 551q0 -28 15.5 -47t43.5 -32t79 -28q65 41 65 101q0 84 -105 84q-98 0 -98 -78z" />
    <glyph glyph-name="nine" unicode="9" 
d="M592 405q0 -216 -78.5 -315t-238.5 -99q-59 0 -103.5 8.5t-86.5 26.5l23 134q74 -30 151 -30q86 0 126.5 44t48.5 141l-2 2q-59 -39 -150 -39q-117 0 -177.5 62t-60.5 168q0 57 16.5 104t49 79.5t83.5 50t117 17.5q136 0 209 -89.5t73 -264.5zM430 457q0 33 -6 64
t-20 53.5t-37.5 34.5t-59.5 12q-107 0 -107 -107t113 -107q39 0 69.5 13t47.5 37z" />
    <glyph glyph-name="colon" unicode=":" horiz-adv-x="269" 
d="M224 484q0 -41 -22 -64t-67 -23q-47 0 -68.5 20.5t-21.5 66.5q0 86 90 86q89 0 89 -86zM224 75q0 -41 -22 -64t-67 -23q-47 0 -68.5 20.5t-21.5 66.5q0 86 90 86q89 0 89 -86z" />
    <glyph glyph-name="semicolon" unicode=";" horiz-adv-x="271" 
d="M226 484q0 -41 -22 -64t-67 -23q-47 0 -68.5 20.5t-21.5 66.5q0 86 90 86q89 0 89 -86zM135 158q44 0 66.5 -25t22.5 -69q0 -18 -10 -52.5t-33.5 -80t-47.5 -76.5l-56 14l26 121q-22 10 -38 31.5t-16 47.5q0 29 11.5 50.5t32.5 30t42 8.5z" />
    <glyph glyph-name="less" unicode="&#x3c;" horiz-adv-x="602" 
d="M516 445l-171 -80l-73 -32v-3l73 -33l171 -82v-148l-430 225v78l429 229z" />
    <glyph glyph-name="equal" unicode="=" horiz-adv-x="602" 
d="M527 369h-453v120h453v-120zM527 165h-453v120h453v-120z" />
    <glyph glyph-name="greater" unicode="&#x3e;" horiz-adv-x="602" 
d="M86 67v148l172 81l74 33v3l-74 32l-172 81v154l430 -229v-78z" />
    <glyph glyph-name="question" unicode="?" horiz-adv-x="508" 
d="M479 570q0 -151 -170 -240l-6 -111h-122l-8 169q53 28 86.5 54t47 52t13.5 50q0 34 -25.5 53t-70.5 19q-43 0 -81.5 -14.5t-67.5 -40.5l-56 125q39 33 100.5 53.5t126.5 20.5q114 0 173.5 -50.5t59.5 -139.5zM329 66q0 -37 -21.5 -57.5t-65.5 -20.5q-45 0 -66 18.5
t-21 59.5q0 79 87 79t87 -79z" />
    <glyph glyph-name="at" unicode="@" horiz-adv-x="892" 
d="M451 591q58 0 92 -40l16 34l83 -6l-44 -269q-3 -18 -3 -37q0 -69 57 -69q50 0 81.5 50.5t31.5 154.5q0 65 -18.5 120.5t-55 96.5t-92 63.5t-125.5 22.5q-84 0 -149.5 -28t-109 -78t-65 -117.5t-21.5 -143.5q0 -80 21 -148.5t64 -118.5t109 -77.5t152 -27.5q91 0 168.5 27
t132.5 73l34 -79q-40 -33 -98 -59t-119.5 -37t-118.5 -11q-100 0 -181.5 31t-138 90t-86.5 145t-30 192q0 91 29 174t85 146t138.5 99t184.5 36q85 0 155.5 -29t120.5 -81.5t76.5 -125t26.5 -155.5q0 -58 -12 -115t-39.5 -99.5t-69 -67.5t-94.5 -25q-45 0 -78 18t-49 52
q-25 -32 -62 -51t-83 -19q-22 0 -46.5 8t-46 28.5t-36.5 58t-15 95.5t17.5 112.5t48.5 96.5t73 66t89 24zM482 314l22 145q-12 24 -45 24q-17 0 -36 -11t-37 -38.5t-27.5 -67.5t-9.5 -74q0 -37 14 -57.5t40 -20.5q28 0 50 28t29 72z" />
    <glyph glyph-name="A" unicode="A" horiz-adv-x="734" 
d="M540 0l-42 146h-272l-42 -146h-178l259 750h201l262 -750h-188zM363 623l-21 -79l-75 -257h191l-72 257l-20 79h-3z" />
    <glyph glyph-name="B" unicode="B" horiz-adv-x="691" 
d="M648 218q0 -51 -15.5 -91.5t-48 -68.5t-84 -43t-120.5 -15h-309v750h305q120 0 182.5 -50.5t62.5 -141.5q0 -60 -27 -101t-73 -60v-2q46 -13 76 -41.5t40.5 -65.5t10.5 -70zM479 231q0 47 -23.5 68t-77.5 21h-145v-182h149q51 0 74 21t23 72zM460 528q0 43 -21.5 61.5
t-68.5 18.5h-136v-163h140q45 0 65.5 20t20.5 63z" />
    <glyph glyph-name="C" unicode="C" horiz-adv-x="597" 
d="M565 732l-17 -145q-28 11 -68.5 18t-78.5 7q-64 0 -102.5 -18.5t-58.5 -66.5t-20 -148q0 -88 15.5 -140t53 -78t115.5 -26t146 29l17 -137q-37 -18 -88 -29.5t-99 -11.5q-170 0 -253.5 97t-83.5 297q0 383 348 383q39 0 89 -8.5t85 -22.5z" />
    <glyph glyph-name="D" unicode="D" horiz-adv-x="732" 
d="M689 378q0 -100 -21 -172.5t-63 -117.5t-105 -66.5t-146 -21.5h-283v750h281q177 0 257 -89t80 -283zM512 379q0 83 -13.5 129.5t-46.5 68.5t-102 22h-110v-449h111q68 0 100.5 21.5t46.5 70t14 137.5z" />
    <glyph glyph-name="E" unicode="E" horiz-adv-x="619" 
d="M240 147h345l-4 -147h-510v750h495l3 -149h-329v-149h277v-134h-277v-171z" />
    <glyph glyph-name="F" unicode="F" horiz-adv-x="592" 
d="M569 598h-329v-162h274l-2 -144h-272v-292h-168v750h494z" />
    <glyph glyph-name="G" unicode="G" horiz-adv-x="675" 
d="M624 403v-375q-41 -19 -102.5 -30.5t-122.5 -11.5q-188 0 -272 96t-84 292q0 198 87.5 293.5t274.5 95.5q48 0 105.5 -9t101.5 -25l-16 -146q-37 14 -88 23t-94 9q-84 0 -123.5 -25.5t-55 -76t-15.5 -137.5q0 -88 14.5 -138.5t50 -75.5t110.5 -25q46 0 80 10v256h149z
" />
    <glyph glyph-name="H" unicode="H" horiz-adv-x="742" 
d="M670 0h-168v307h-262v-307h-169v750h169v-291h262v291h168v-750z" />
    <glyph glyph-name="I" unicode="I" horiz-adv-x="336" 
d="M82 0v750h172v-750h-172z" />
    <glyph glyph-name="J" unicode="J" horiz-adv-x="550" 
d="M479 750v-475q0 -57 -13.5 -110.5t-47.5 -93t-91.5 -62.5t-145.5 -23t-149 32l9 142q20 -12 49.5 -19t64.5 -7q76 0 114 35t38 109v472h172z" />
    <glyph glyph-name="K" unicode="K" horiz-adv-x="720" 
d="M707 0h-203l-185 316h-79v-316h-169v750h169v-297h81l181 297h193l-224 -356z" />
    <glyph glyph-name="L" unicode="L" horiz-adv-x="568" 
d="M241 152h309l-4 -152h-475v750h170v-598z" />
    <glyph glyph-name="M" unicode="M" horiz-adv-x="922" 
d="M71 750h186l174 -438l28 -75h3l28 75l175 438h186v-750h-154v382l2 81l-3 1l-28 -76l-154 -388h-112l-153 387l-28 76l-2 -1l1 -81v-381h-149v750z" />
    <glyph glyph-name="N" unicode="N" horiz-adv-x="747" 
d="M676 0h-118l-291 409l-45 67l-2 -1l1 -81v-394h-150v750h144l267 -387l45 -67l2 1l-2 80v373h149v-750z" />
    <glyph glyph-name="O" unicode="O" horiz-adv-x="748" 
d="M704 375q0 -204 -77.5 -296.5t-252.5 -92.5q-172 0 -251.5 94.5t-79.5 294.5q0 201 78.5 294t252.5 93t252 -93t78 -294zM528 375q0 71 -9 122.5t-38.5 82.5t-106.5 31q-66 0 -97 -23.5t-44 -73.5t-13 -139t13 -139.5t44.5 -74.5t97.5 -24q32 0 60.5 7t49 29.5t32 68
t11.5 133.5z" />
    <glyph glyph-name="P" unicode="P" horiz-adv-x="664" 
d="M633 493q0 -122 -70.5 -185.5t-222.5 -63.5h-100v-244h-169v750h269q154 0 223.5 -62.5t69.5 -194.5zM459 494q0 42 -10 66.5t-34.5 36.5t-74.5 12h-100v-230h100q73 0 96 27.5t23 87.5z" />
    <glyph glyph-name="Q" unicode="Q" horiz-adv-x="748" 
d="M704 375q0 -160 -47 -250t-149 -120l140 -109l-190 -48l-105 138q-161 6 -235.5 100.5t-74.5 288.5q0 201 78.5 294t252.5 93t252 -93t78 -294zM528 375q0 71 -9 122.5t-38.5 82.5t-106.5 31q-66 0 -97 -23.5t-44 -73.5t-13 -139t13 -139.5t44.5 -74.5t97.5 -24
q32 0 60.5 7t49 29.5t32 68t11.5 133.5z" />
    <glyph glyph-name="R" unicode="R" horiz-adv-x="680" 
d="M625 517q0 -76 -32 -130.5t-94 -73.5l175 -313h-197l-131 280h-106v-280h-169v750h275q140 0 209.5 -57t69.5 -176zM449 510q0 55 -23.5 77.5t-78.5 22.5h-107v-204h104q55 0 80 21.5t25 82.5z" />
    <glyph glyph-name="S" unicode="S" horiz-adv-x="578" 
d="M549 225q0 -111 -74 -175t-204 -64q-128 0 -232 56l22 145q104 -55 208 -55q59 0 88.5 21.5t29.5 60.5q0 16 -9.5 30.5t-31.5 27t-90.5 37t-103 44t-58.5 43.5t-38 58.5t-14 78.5q0 48 16 90t49.5 73.5t86 49t120.5 17.5q49 0 107 -10t103 -29l-21 -142q-45 14 -93.5 23
t-87.5 9q-118 0 -118 -72q0 -15 9.5 -29.5t31.5 -27t90.5 -36t103 -43t58.5 -43.5t38 -58.5t14 -79.5z" />
    <glyph glyph-name="T" unicode="T" horiz-adv-x="597" 
d="M585 598h-202v-598h-170v598h-201l4 152h565z" />
    <glyph glyph-name="U" unicode="U" horiz-adv-x="726" 
d="M665 750v-482q0 -141 -76 -211.5t-225 -70.5t-226 71t-77 211v482h168v-480q0 -68 32.5 -99.5t102.5 -31.5t102 31t32 100v480h167z" />
    <glyph glyph-name="V" unicode="V" horiz-adv-x="710" 
d="M529 750h175l-255 -750h-188l-255 750h186l145 -507l21 -78h3l20 78z" />
    <glyph glyph-name="W" unicode="W" horiz-adv-x="1036" 
d="M430 750h183l106 -504l15 -79h3l13 80l94 503h167l-177 -750h-202l-99 502l-14 80h-3l-14 -81l-98 -501h-202l-177 750h175l94 -508l13 -80h3l14 79z" />
    <glyph glyph-name="X" unicode="X" horiz-adv-x="712" 
d="M684 750l-209 -358l218 -392h-191l-109 214l-34 73h-3l-35 -74l-107 -213h-195l213 388l-208 362h200l97 -187l36 -72h3l35 72l97 187h192z" />
    <glyph glyph-name="Y" unicode="Y" horiz-adv-x="698" 
d="M6 750h190l126 -284l31 -74h3l30 75l121 283h185l-255 -511v-239h-172v239z" />
    <glyph glyph-name="Z" unicode="Z" horiz-adv-x="618" 
d="M576 0h-541v110l291 422l46 64l-1 2h-328l5 152h528v-123l-284 -410l-46 -63l1 -3h332z" />
    <glyph glyph-name="bracketleft" unicode="[" horiz-adv-x="352" 
d="M78 -131v916h271v-109h-131v-701h131v-106h-271z" />
    <glyph glyph-name="backslash" unicode="\" horiz-adv-x="377" 
d="M-14 784h127l294 -905h-126z" />
    <glyph glyph-name="bracketright" unicode="]" horiz-adv-x="352" 
d="M274 785v-916h-271v106h131v701h-131v109h271z" />
    <glyph glyph-name="asciicircum" unicode="^" 
d="M466 464l-145 226l-145 -226h-124l216 340h107l213 -340h-122z" />
    <glyph glyph-name="underscore" unicode="_" horiz-adv-x="416" 
d="M15 -38h388v-94h-388v94z" />
    <glyph glyph-name="grave" unicode="`" horiz-adv-x="405" 
d="M315 656h-117l-120 145h177z" />
    <glyph glyph-name="a" unicode="a" horiz-adv-x="581" 
d="M406 0l-12 58l-3 1q-27 -33 -70 -51t-94 -18q-88 0 -138 51t-50 150q0 85 57.5 137t158.5 52q62 0 116 -17v35q0 46 -27 67.5t-88 21.5q-50 0 -89 -8.5t-78 -24.5l-13 124q94 40 208 40q66 0 107 -13t69 -35.5t46.5 -69t18.5 -125.5v-375h-119zM371 184v76q-12 5 -36 9
t-50 4q-101 0 -101 -80t86 -80q18 0 41.5 7t41.5 25t18 39z" />
    <glyph glyph-name="b" unicode="b" horiz-adv-x="635" 
d="M600 305q0 -81 -16.5 -141.5t-48.5 -99.5t-78 -57.5t-104 -18.5q-49 0 -91 17t-70 45l-20 -50h-105v779l155 7v-141l-2 -80l3 -2q30 27 68.5 40.5t80.5 13.5q53 0 95 -18t71.5 -55.5t45.5 -97.5t16 -141zM440 302q0 55 -9 98.5t-34 62t-70 18.5q-33 0 -61 -13.5
t-44 -37.5v-265q15 -23 42.5 -37.5t63.5 -14.5q35 0 58.5 13.5t38.5 52.5t15 123z" />
    <glyph glyph-name="c" unicode="c" horiz-adv-x="493" 
d="M458 590l-9 -132q-54 19 -103 19q-84 0 -117 -39.5t-33 -135.5q0 -95 37.5 -138t109.5 -43q61 0 110 23l11 -121q-57 -35 -155 -35q-135 0 -204.5 78.5t-69.5 235.5q0 314 277 314q35 0 77 -7.5t69 -18.5z" />
    <glyph glyph-name="d" unicode="d" horiz-adv-x="633" 
d="M568 0h-121l-15 52l-3 1q-56 -65 -162 -65q-117 0 -174.5 78t-57.5 240q0 151 58 231.5t172 80.5q87 0 148 -55l2 2l-2 80v133l155 8v-786zM413 165v268q-14 21 -41.5 33.5t-60.5 12.5q-64 0 -90 -39.5t-26 -140.5q0 -106 24.5 -145.5t90.5 -39.5q29 0 58 11.5t45 39.5z
" />
    <glyph glyph-name="e" unicode="e" horiz-adv-x="586" 
d="M337 -11q-154 0 -228 81t-74 241q0 72 16.5 129t49.5 96.5t84 60t117 20.5q119 0 184.5 -71t65.5 -211q0 -45 -4 -73h-353q6 -75 44 -107t117 -32q84 0 162 30l17 -125q-39 -18 -91 -28.5t-107 -10.5zM192 365h218q-3 123 -107 123q-55 0 -80.5 -28.5t-30.5 -94.5z" />
    <glyph glyph-name="f" unicode="f" horiz-adv-x="405" 
d="M253 0h-155v491h-76v115h76v26q0 44 22 83.5t71.5 61t114.5 21.5q56 0 98 -13l-9 -100q-27 6 -58 6q-84 0 -84 -63v-22h129v-115h-129v-491z" />
    <glyph glyph-name="g" unicode="g" horiz-adv-x="587" 
d="M286 244q-40 0 -76 6q-9 -5 -15 -13t-6 -16q0 -11 10.5 -19t29.5 -9l144 -8q103 -6 149.5 -44t46.5 -110q0 -45 -14 -77t-39.5 -56.5t-80 -43.5t-144.5 -19q-78 0 -132 18t-84 53.5t-30 88.5q0 27 12 52.5t35 45.5q-46 34 -46 89q0 31 18.5 59t54.5 45q-66 48 -66 143
q0 64 27.5 105t78 62t126.5 21q38 0 79 -7.5t72 -25.5l103 33l32 -74l-64 -50q9 -27 9 -64q0 -185 -230 -185zM346 54l-144 10q-11 -10 -18 -24t-7 -25q0 -32 27 -47.5t84 -15.5q71 0 106.5 12.5t35.5 43.5q0 22 -17.5 32t-66.5 14zM287 500q-44 0 -62.5 -17.5t-18.5 -57.5
q0 -41 20 -57.5t57 -16.5q47 0 65.5 17t18.5 58q0 40 -18.5 57t-61.5 17z" />
    <glyph glyph-name="h" unicode="h" horiz-adv-x="633" 
d="M577 0h-155v386q0 94 -97 94q-32 0 -60 -13t-43 -33v-434h-155v778l155 8v-138l-2 -80l3 -2q62 52 151 52q96 0 149.5 -61.5t53.5 -170.5v-386z" />
    <glyph glyph-name="i" unicode="i" horiz-adv-x="319" 
d="M239 0h-159v602l159 7v-609zM248 737q0 -66 -88 -66q-45 0 -67 15.5t-22 50.5q0 32 22.5 49.5t66.5 17.5q88 0 88 -67z" />
    <glyph glyph-name="j" unicode="j" horiz-adv-x="319" 
d="M239 609v-604q0 -35 -9 -67t-30.5 -55t-54.5 -35.5t-80 -12.5q-42 0 -82 14l7 109q20 -6 37 -6q26 0 41.5 14.5t15.5 42.5v593zM247 738q0 -67 -88 -67q-45 0 -66.5 15.5t-21.5 51.5q0 32 22 49.5t66 17.5q88 0 88 -67z" />
    <glyph glyph-name="k" unicode="k" horiz-adv-x="617" 
d="M222 786v-399h79l126 219h172l-165 -275l171 -331h-175l-129 261h-79v-261h-155v779z" />
    <glyph glyph-name="l" unicode="l" horiz-adv-x="305" 
d="M231 0h-157v779l157 7v-786z" />
    <glyph glyph-name="m" unicode="m" horiz-adv-x="943" 
d="M887 0h-155v387q0 46 -24 69.5t-67 23.5q-40 0 -64.5 -23t-24.5 -65v-392h-155v392q0 44 -23.5 66t-64.5 22q-27 0 -52.5 -12.5t-38.5 -33.5v-434h-156v602l112 8l25 -57q31 30 72 47t82 17q113 0 160 -81q30 40 74 60.5t96 20.5q68 0 113.5 -30t68 -79t22.5 -118v-390z
" />
    <glyph glyph-name="n" unicode="n" horiz-adv-x="629" 
d="M573 0h-155v386q0 94 -98 94q-30 0 -58.5 -12.5t-43.5 -33.5v-434h-156v603l112 7l23 -52q33 29 76.5 44.5t90.5 15.5q97 0 153 -60.5t56 -171.5v-386z" />
    <glyph glyph-name="o" unicode="o" horiz-adv-x="624" 
d="M590 301q0 -166 -66 -240.5t-211 -74.5q-144 0 -211 74.5t-67 240.5q0 165 67 240.5t211 75.5t210.5 -75t66.5 -241zM196 301q0 -55 7 -96t30 -66.5t80 -25.5q41 0 65.5 14.5t37.5 52.5t13 121q0 55 -8 100t-33.5 66.5t-74.5 21.5q-50 0 -73.5 -19.5t-33.5 -59.5
t-10 -109z" />
    <glyph glyph-name="p" unicode="p" horiz-adv-x="630" 
d="M596 304q0 -155 -63 -234.5t-172 -79.5q-91 0 -141 49l-3 -1l2 -81v-111h-157v756l109 7l30 -53q31 29 74.5 45t89.5 16q56 0 99 -17t72.5 -53.5t44.5 -97t15 -145.5zM435 305q0 89 -22 131.5t-90 42.5q-33 0 -60.5 -13t-43.5 -36v-260q15 -23 41 -37.5t60 -14.5
q64 0 89.5 46t25.5 141z" />
    <glyph glyph-name="q" unicode="q" horiz-adv-x="631" 
d="M567 -154l-155 -1v107l2 81l-2 1q-55 -43 -140 -43q-53 0 -96.5 18t-75 56t-48.5 97.5t-17 138.5q0 155 60.5 235.5t180.5 80.5q109 0 173 -66l18 55l100 -1v-759zM412 173v259q-12 20 -40 33t-62 13q-41 0 -65 -13t-36.5 -48.5t-12.5 -115.5q0 -100 26.5 -140t89.5 -40
q39 0 66.5 15.5t33.5 36.5z" />
    <glyph glyph-name="r" unicode="r" horiz-adv-x="458" 
d="M218 0h-156v602l124 6l14 -101h3q28 53 71 81t95 28q37 0 66 -9l-10 -153q-32 10 -66 10q-62 0 -101.5 -43t-39.5 -117v-304z" />
    <glyph glyph-name="s" unicode="s" horiz-adv-x="497" 
d="M465 190q0 -70 -28 -114t-78.5 -66t-124.5 -22q-113 0 -190 42l16 128q26 -15 73 -29t100 -14q44 0 66 16.5t22 44.5q0 13 -8.5 25.5t-30 22.5t-73 26t-83 33t-51 40.5t-27.5 50.5t-8 55q0 62 29.5 103.5t79.5 62.5t121 21q42 0 89 -9t83 -24l-13 -127q-32 13 -78 22
t-84 9q-37 0 -58 -14t-21 -37q0 -16 14 -30.5t63.5 -29.5t61.5 -19q72 -25 105 -64.5t33 -102.5z" />
    <glyph glyph-name="t" unicode="t" horiz-adv-x="403" 
d="M380 490h-135v-310q0 -67 72 -67q29 0 48 7l9 -113q-17 -7 -46.5 -12t-57.5 -5q-89 0 -134.5 48.5t-45.5 136.5v315h-68v116h75l26 137l122 11v-148h135v-116z" />
    <glyph glyph-name="u" unicode="u" horiz-adv-x="622" 
d="M566 606v-392q0 -111 -63.5 -168t-191.5 -57q-127 0 -191 58t-64 167v392h155v-389q0 -91 100 -91t100 91v389h155z" />
    <glyph glyph-name="v" unicode="v" horiz-adv-x="652" 
d="M466 606h170l-220 -606h-180l-220 606h170l116 -388l22 -78h3l21 78z" />
    <glyph glyph-name="w" unicode="w" horiz-adv-x="890" 
d="M367 606h162l81 -397l15 -79h3l12 80l68 396h152l-136 -606h-190l-68 362l-13 81h-3l-14 -81l-71 -362h-190l-145 606h156l73 -395l14 -80h3l13 80z" />
    <glyph glyph-name="x" unicode="x" horiz-adv-x="624" 
d="M423 0l-81 161l-34 73h-3l-34 -74l-78 -160h-171l181 306l-178 300h180l76 -153l34 -73h3l33 73l75 153h172l-170 -296l175 -310h-180z" />
    <glyph glyph-name="y" unicode="y" horiz-adv-x="653" 
d="M181 -52q33 0 56 13t37 45l3 8l-261 592h177l132 -370l26 -76h3l19 78l99 368h165l-207 -598q-32 -91 -87 -133.5t-134 -42.5q-59 0 -103 19l12 110q32 -13 63 -13z" />
    <glyph glyph-name="z" unicode="z" horiz-adv-x="538" 
d="M491 498l-222 -304l-48 -62l1 -3h278l-4 -129h-454v109l222 303l48 63l-1 2h-261l5 129h436v-108z" />
    <glyph glyph-name="braceleft" unicode="{" horiz-adv-x="386" 
d="M276 438q0 -35 -15 -64t-42 -45q27 -17 42 -45.5t15 -63.5q0 -30 -6 -81.5t-6 -77.5q0 -35 22 -57t64 -22h33v-116h-26q-78 0 -128 18t-77 55.5t-27 101.5q0 30 7.5 92t7.5 89q0 29 -17.5 49t-44.5 26v64q27 6 44.5 26t17.5 49q0 27 -7.5 89t-7.5 92q0 64 27 101.5
t77 55.5t128 18h26v-116h-33q-42 0 -64 -22t-22 -57q0 -26 6 -77.5t6 -81.5z" />
    <glyph glyph-name="bar" unicode="|" horiz-adv-x="290" 
d="M85 -178v985h120v-985h-120z" />
    <glyph glyph-name="braceright" unicode="}" horiz-adv-x="386" 
d="M111 220q0 35 14.5 63.5t41.5 45.5q-27 16 -41.5 45t-14.5 64q0 30 5.5 81.5t5.5 77.5q0 35 -22 57t-64 22h-33v116h26q78 0 128.5 -18t77 -55.5t26.5 -101.5q0 -30 -7.5 -92t-7.5 -89q0 -29 17.5 -49t45.5 -26v-64q-28 -6 -45.5 -26t-17.5 -49q0 -27 7.5 -89t7.5 -92
q0 -64 -26.5 -101.5t-77 -55.5t-128.5 -18h-26v116h33q42 0 64 22t22 57q0 26 -5.5 77.5t-5.5 81.5z" />
    <glyph glyph-name="asciitilde" unicode="~" 
d="M160 590l-88 -1q4 94 41 142.5t105 48.5q25 0 49 -8t76 -32.5t78 -24.5q24 0 39 15t20 36h89q-3 -58 -19 -99.5t-47 -66t-80 -24.5q-25 0 -49 8t-75 32.5t-76 24.5q-24 0 -40.5 -14.5t-22.5 -36.5z" />
    <glyph glyph-name="uni00A0" unicode="&#xa0;" horiz-adv-x="266" 
 />
    <glyph glyph-name="exclamdown" unicode="&#xa1;" horiz-adv-x="302" 
d="M88 439h127l18 -572h-164zM62 582q0 37 21.5 57t65.5 20q45 0 66 -18t21 -59q0 -38 -22 -58.5t-65 -20.5q-87 0 -87 79z" />
    <glyph glyph-name="cent" unicode="&#xa2;" 
d="M513 590l-9 -132q-54 19 -103 19q-84 0 -117 -39.5t-33 -135.5q0 -95 37.5 -138t109.5 -43q61 0 110 23l11 -121q-16 -10 -44 -19.5t-74 -13.5l-7 -118h-120l9 125q-193 41 -193 305q0 280 220 310l9 118h120l-9 -119q50 -8 83 -21z" />
    <glyph glyph-name="sterling" unicode="&#xa3;" 
d="M72 310l-7 122h48q-22 64 -22 109q0 70 33.5 119.5t97 76t159.5 26.5q100 0 182 -32l-19 -139q-28 10 -68 17.5t-76 7.5q-74 0 -108.5 -26t-34.5 -71q0 -36 16 -88h242v-122h-212q3 -21 3 -43q0 -44 -18 -78t-50 -53l2 -3q79 20 182 20q78 0 174 -12q-1 -8 -4 -77t-4 -71
q-129 14 -241 14q-151 0 -281 -12l-8 144q42 9 68 43.5t26 76.5q0 19 -4 51h-76z" />
    <glyph glyph-name="currency" unicode="&#xa4;" 
d="M127 362q0 52 23 93l-68 71l78 84l73 -74q42 21 86 21t88 -21l73 74l79 -84l-70 -72q23 -44 23 -92q0 -44 -19 -85l65 -67l-79 -84l-64 65q-44 -25 -96 -25q-51 0 -95 25l-64 -65l-79 84l65 67q-19 40 -19 85zM226 364q0 -17 9 -38t32.5 -36t51.5 -15t51.5 15t32.5 36
t9 38q0 36 -27.5 62.5t-65.5 26.5t-65.5 -26.5t-27.5 -62.5z" />
    <glyph glyph-name="yen" unicode="&#xa5;" 
d="M108 359h86l-175 391h184l95 -321l22 -78h3l21 78l95 321h181l-170 -391h90v-92h-128v-39h128v-93h-128v-135h-179v135h-125v93h125v39h-125v92z" />
    <glyph glyph-name="brokenbar" unicode="&#xa6;" horiz-adv-x="290" 
d="M85 373v434h120v-434h-120zM85 -165v431h120v-431h-120z" />
    <glyph glyph-name="section" unicode="&#xa7;" horiz-adv-x="569" 
d="M45 329q0 43 21 83t62 66q-67 53 -67 121q0 87 62.5 133.5t179.5 46.5q51 0 106.5 -11t92.5 -30l-11 -117q-91 36 -179 36q-43 0 -66.5 -13.5t-23.5 -37.5q0 -11 9.5 -24t31.5 -25t81.5 -38.5t95.5 -50t55 -47t30.5 -51t11.5 -65.5q0 -43 -21.5 -83.5t-62.5 -66.5
q68 -53 68 -120q0 -87 -62.5 -133.5t-179.5 -46.5q-50 0 -105.5 11t-92.5 30l11 117q89 -36 178 -36q43 0 66.5 13.5t23.5 38.5q0 7 -5 18t-24.5 23.5t-86 42t-102.5 53t-55 47t-30.5 51t-11.5 65.5zM387 289q0 18 -13.5 37t-41.5 36.5t-78 42.5l-10 5q-49 -22 -49 -65
q0 -19 13.5 -38t41.5 -36.5t78 -42.5l10 -5q49 23 49 66z" />
    <glyph glyph-name="dieresis" unicode="&#xa8;" horiz-adv-x="405" 
d="M178 738q0 -65 -66 -65q-33 0 -49 15.5t-16 49.5q0 66 65 66q66 0 66 -66zM360 738q0 -65 -65 -65q-33 0 -49.5 15.5t-16.5 49.5q0 32 17 49t49 17q65 0 65 -66z" />
    <glyph glyph-name="copyright" unicode="&#xa9;" horiz-adv-x="871" 
d="M44 378q0 78 30.5 150t85 126t126.5 84.5t150 30.5t150 -30.5t126 -84.5t84.5 -126t30.5 -150t-30.5 -150t-84.5 -126t-126 -84.5t-150 -30.5t-150 30.5t-126.5 84.5t-85 126t-30.5 150zM122 378q0 -62 24 -119t67.5 -100.5t101 -68t121.5 -24.5q30 0 69.5 8t80.5 30
t78.5 59.5t62 95t24.5 119.5q0 61 -24.5 117.5t-68 99.5t-101.5 67t-121 24q-64 0 -121.5 -24t-101 -67t-67.5 -99.5t-24 -117.5zM605 576l-11 -109q-21 11 -54 19.5t-59 8.5q-69 0 -104.5 -33.5t-35.5 -83.5q0 -55 37.5 -87t105.5 -32q28 0 60.5 8t54.5 21l14 -105
q-29 -26 -76.5 -45.5t-95.5 -19.5q-40 0 -84 13.5t-77 41t-53 59t-31 69t-11 76.5q0 49 18 95.5t51.5 82t82 56t105.5 20.5q49 0 91.5 -15.5t71.5 -39.5z" />
    <glyph glyph-name="ordfeminine" unicode="&#xaa;" horiz-adv-x="444" 
d="M300 337l-10 41l-3 1q-40 -49 -114 -49q-66 0 -103.5 40.5t-37.5 119.5q0 67 43.5 109t117.5 42q45 0 78 -12v23q0 30 -19 44t-64 14q-59 0 -118 -24l-10 108q33 14 75 22t81 8q64 0 104 -18t61 -58.5t21 -116.5v-294h-102zM271 485v54q-20 8 -53 8q-62 0 -62 -55
q0 -54 53 -54q25 0 43.5 13.5t18.5 33.5z" />
    <glyph glyph-name="guillemotleft" unicode="&#xab;" horiz-adv-x="651" 
d="M588 422l-160 -102l160 -101v-120l-313 216v11l313 216v-120zM335 422l-160 -102l160 -101v-120l-313 216v11l313 216v-120z" />
    <glyph glyph-name="logicalnot" unicode="&#xac;" 
d="M419 271h-323v134h449v-283h-126v149z" />
    <glyph glyph-name="uni00AD" unicode="&#xad;" horiz-adv-x="390" 
d="M52 398h286v-112h-286v112z" />
    <glyph glyph-name="registered" unicode="&#xae;" horiz-adv-x="440" 
d="M29 640q0 29 10 62t34 62t62 50t87 21q38 0 73 -15t61 -42t41 -63t15 -75q0 -28 -10 -60t-37 -65t-66 -50t-77 -17q-39 0 -74.5 15t-62 41.5t-41.5 62t-15 73.5zM72 641q0 -22 8 -46.5t26.5 -47.5t48 -39t66.5 -16q22 0 47 8t47.5 26.5t38.5 48t16 66.5q0 61 -44 105
t-105 44t-105 -44t-44 -105zM317 678q0 -17 -8 -32.5t-25 -23.5l36 -79h-67l-27 70h-28v-70h-64v204h95q45 0 66.5 -18.5t21.5 -50.5zM256 675q0 20 -26 20h-32v-41h34q11 1 17.5 7t6.5 14z" />
    <glyph glyph-name="macron" unicode="&#xaf;" horiz-adv-x="405" 
d="M364 780v-96h-320v96h320z" />
    <glyph glyph-name="degree" unicode="&#xb0;" horiz-adv-x="344" 
d="M32 675q0 58 41 100t99 42t99 -41.5t41 -100.5q0 -58 -41.5 -100t-98.5 -42t-98.5 42t-41.5 100zM102 675q0 -28 20.5 -48t49.5 -20q30 0 50.5 19.5t20.5 48.5t-20.5 49t-50.5 20t-50 -20t-20 -49z" />
    <glyph glyph-name="plusminus" unicode="&#xb1;" 
d="M552 332h-164v-148h-137v148h-163v132h163v154h137v-154h164v-132zM551 34h-463v116h463v-116z" />
    <glyph glyph-name="uni00B2" unicode="&#xb2;" horiz-adv-x="373" 
d="M341 767q0 -40 -29.5 -79t-130.5 -106v-3h159l-2 -89h-298v69q18 16 81 69t84.5 80t21.5 50q0 18 -15 29t-46 11q-50 0 -107 -35l-25 85q63 41 153 41q76 0 115 -33.5t39 -88.5z" />
    <glyph glyph-name="uni00B3" unicode="&#xb3;" horiz-adv-x="373" 
d="M345 608q0 -59 -42.5 -91t-130.5 -32q-30 0 -68 7t-71 26l23 80q56 -29 116 -29q33 0 50.5 12t17.5 32q0 22 -23 32.5t-87 10.5v73q48 0 76.5 7.5t28.5 32.5q0 33 -63 33q-66 0 -115 -33l-25 79q27 19 66 30t79 11q75 0 117 -29.5t42 -82.5q0 -57 -57 -82v-2
q66 -22 66 -85z" />
    <glyph glyph-name="acute" unicode="&#xb4;" horiz-adv-x="405" 
d="M201 801h178l-120 -145h-117z" />
    <glyph glyph-name="mu" unicode="&#xb5;" horiz-adv-x="628" 
d="M325 -9q-40 0 -73.5 17t-53.5 49l-2 -1q6 -117 16 -205l-150 -12v767h156v-389q0 -40 28.5 -64.5t73.5 -24.5q44 0 71 21.5t27 60.5v396h154v-602l-110 -9l-19 43q-47 -47 -118 -47z" />
    <glyph glyph-name="paragraph" unicode="&#xb6;" horiz-adv-x="700" 
d="M317 -160h-135v623q-70 3 -112.5 41.5t-42.5 107.5q0 61 43 99.5t118 38.5h476l-7 -126h-74v-784h-136v784h-130v-784z" />
    <glyph glyph-name="periodcentered" unicode="&#xb7;" horiz-adv-x="296" 
d="M237 346q0 -41 -22 -64t-67 -23q-47 0 -68.5 20.5t-21.5 66.5q0 86 90 86q89 0 89 -86z" />
    <glyph glyph-name="cedilla" unicode="&#xb8;" horiz-adv-x="405" 
d="M106 -189l71 202l103 1l-36 -203h-138z" />
    <glyph glyph-name="uni00B9" unicode="&#xb9;" horiz-adv-x="285" 
d="M230 885v-395h-108v270l-79 -44l-9 88l128 81h68z" />
    <glyph glyph-name="ordmasculine" unicode="&#xba;" horiz-adv-x="487" 
d="M451 577q0 -132 -49 -189t-158 -57q-81 0 -125 29t-63.5 81.5t-19.5 135.5q0 132 50 190t158 58q109 0 158 -58t49 -190zM172 577q0 -72 13.5 -104t58.5 -32t58.5 32.5t13.5 103.5q0 72 -13.5 104.5t-58.5 32.5q-41 0 -56.5 -27.5t-15.5 -109.5z" />
    <glyph glyph-name="guillemotright" unicode="&#xbb;" horiz-adv-x="651" 
d="M309 99v120l159 101l-159 102v120l312 -216v-11zM56 99v120l159 101l-159 102v120l312 -216v-11z" />
    <glyph glyph-name="onequarter" unicode="&#xbc;" horiz-adv-x="893" 
d="M294 751v-395h-108v270l-79 -44l-9 88l128 81h68zM841 70h-38v-70h-101v70h-202l-9 61l182 263h130v-238h41zM706 156l2 64l5 80h-3l-51 -77l-45 -64l1 -3h91zM646 750h110l-498 -750h-109z" />
    <glyph glyph-name="onehalf" unicode="&#xbd;" horiz-adv-x="893" 
d="M630 750h110l-498 -750h-109zM842 277q0 -40 -29.5 -79t-130.5 -106v-3h159l-2 -89h-298v70q16 14 80 67.5t85.5 80.5t21.5 50q0 18 -15 29t-46 11q-49 0 -107 -34l-25 84q63 41 153 41q76 0 115 -33.5t39 -88.5zM297 751v-395h-108v270l-79 -44l-9 88l128 81h68z" />
    <glyph glyph-name="threequarters" unicode="&#xbe;" horiz-adv-x="893" 
d="M808 70h-38v-70h-101v70h-202l-9 61l182 263h130v-238h41zM673 156l2 64l5 80h-3l-51 -77l-45 -64l1 -3h91zM640 750h110l-498 -750h-109zM365 474q0 -59 -43 -91.5t-130 -32.5q-39 0 -76 9.5t-63 24.5l23 80q56 -29 116 -29q33 0 50.5 12t17.5 32q0 22 -23 32.5
t-87 10.5v72q48 0 76.5 8t28.5 33q0 33 -63 33q-66 0 -115 -33l-25 79q27 19 66 30t79 11q75 0 117 -30t42 -82q0 -57 -57 -82v-2q66 -22 66 -85z" />
    <glyph glyph-name="questiondown" unicode="&#xbf;" horiz-adv-x="489" 
d="M27 89q0 151 170 239l6 112h122l8 -169q-53 -28 -86 -54.5t-46.5 -52t-13.5 -50.5q0 -34 25 -52.5t70 -18.5q87 0 150 55l55 -125q-38 -33 -99.5 -53.5t-127.5 -20.5q-114 0 -173.5 50.5t-59.5 139.5zM177 593q0 37 22 57.5t65 20.5q45 0 66.5 -18.5t21.5 -59.5
q0 -38 -22 -58.5t-66 -20.5q-43 0 -65 20.5t-22 58.5z" />
    <glyph glyph-name="Agrave" unicode="&#xc0;" horiz-adv-x="734" 
d="M540 0l-42 146h-272l-42 -146h-178l259 750h201l262 -750h-188zM363 623l-21 -79l-75 -257h191l-72 257l-20 79h-3zM444 794h-126l-128 120h184z" />
    <glyph glyph-name="Aacute" unicode="&#xc1;" horiz-adv-x="734" 
d="M540 0l-42 146h-272l-42 -146h-178l259 750h201l262 -750h-188zM363 623l-21 -79l-75 -257h191l-72 257l-20 79h-3zM351 913h198l-139 -121h-124z" />
    <glyph glyph-name="Acircumflex" unicode="&#xc2;" horiz-adv-x="734" 
d="M540 0l-42 146h-272l-42 -146h-178l259 750h201l262 -750h-188zM363 623l-21 -79l-75 -257h191l-72 257l-20 79h-3zM281 913h165l107 -121h-136l-53 57l-52 -57h-134z" />
    <glyph glyph-name="Atilde" unicode="&#xc3;" horiz-adv-x="734" 
d="M540 0l-42 146h-272l-42 -146h-178l259 750h201l262 -750h-188zM363 623l-21 -79l-75 -257h191l-72 257l-20 79h-3zM264 795l-71 1q2 39 18 68.5t40 40.5t46 11q21 0 43 -6t53.5 -20.5t45.5 -14.5q26 0 31 30l68 -1q-1 -25 -11 -53.5t-35.5 -47.5t-58.5 -19q-21 0 -42 6
t-51 20.5t-44 14.5q-11 0 -20.5 -8.5t-11.5 -21.5z" />
    <glyph glyph-name="Adieresis" unicode="&#xc4;" horiz-adv-x="734" 
d="M540 0l-42 146h-272l-42 -146h-178l259 750h201l262 -750h-188zM363 623l-21 -79l-75 -257h191l-72 257l-20 79h-3zM330 853q0 -61 -64 -61q-33 0 -49.5 14.5t-16.5 46.5q0 30 17 46.5t49 16.5q64 0 64 -63zM529 853q0 -61 -65 -61q-33 0 -49 14.5t-16 46.5q0 63 65 63
t65 -63z" />
    <glyph glyph-name="Aring" unicode="&#xc5;" horiz-adv-x="734" 
d="M233 803q0 47 29 74t99 27t101 -27.5t31 -72.5q0 -21 -6 -39.5t-16 -29.5l257 -735h-188l-42 146h-272l-42 -146h-178l252 730q-25 24 -25 73zM363 623l-21 -79l-75 -257h191l-72 257l-20 79h-3zM313 798q0 -17 11 -25t41 -8q20 0 35 6t15 27q0 18 -11 27t-39 9
q-22 0 -37 -6.5t-15 -29.5z" />
    <glyph glyph-name="AE" unicode="&#xc6;" horiz-adv-x="1064" 
d="M1018 601h-331l9 -149h266v-134h-257l10 -171h315l-4 -147h-472l-9 148h-258l-69 -148h-199l404 750h592zM516 637l-33 -74l-131 -277h185l-15 269l-3 81z" />
    <glyph glyph-name="Ccedilla" unicode="&#xc7;" horiz-adv-x="597" 
d="M259 -189l62 178q-140 16 -209 112.5t-69 278.5q0 383 348 383q39 0 89 -8.5t85 -22.5l-17 -145q-28 11 -68.5 18t-78.5 7q-64 0 -102.5 -18.5t-58.5 -66.5t-20 -148q0 -88 15.5 -140t53 -78t115.5 -26t146 29l17 -137q-26 -13 -64.5 -23.5t-74.5 -14.5l-31 -178h-138z
" />
    <glyph glyph-name="Egrave" unicode="&#xc8;" horiz-adv-x="619" 
d="M240 147h345l-4 -147h-510v750h495l3 -149h-329v-149h277v-134h-277v-171zM407 794h-126l-128 120h184z" />
    <glyph glyph-name="Eacute" unicode="&#xc9;" horiz-adv-x="619" 
d="M240 147h345l-4 -147h-510v750h495l3 -149h-329v-149h277v-134h-277v-171zM313 913h198l-139 -121h-124z" />
    <glyph glyph-name="Ecircumflex" unicode="&#xca;" horiz-adv-x="619" 
d="M240 147h345l-4 -147h-510v750h495l3 -149h-329v-149h277v-134h-277v-171zM243 913h165l107 -121h-136l-53 57l-52 -57h-134z" />
    <glyph glyph-name="Edieresis" unicode="&#xcb;" horiz-adv-x="619" 
d="M240 147h345l-4 -147h-510v750h495l3 -149h-329v-149h277v-134h-277v-171zM293 853q0 -61 -64 -61q-33 0 -49.5 14.5t-16.5 46.5q0 30 17 46.5t49 16.5q64 0 64 -63zM492 853q0 -61 -65 -61q-33 0 -49 14.5t-16 46.5q0 63 65 63t65 -63z" />
    <glyph glyph-name="Igrave" unicode="&#xcc;" horiz-adv-x="336" 
d="M82 0v750h172v-750h-172zM247 794h-126l-128 120h184z" />
    <glyph glyph-name="Iacute" unicode="&#xcd;" horiz-adv-x="336" 
d="M82 0v750h172v-750h-172zM154 913h198l-139 -121h-124z" />
    <glyph glyph-name="Icircumflex" unicode="&#xce;" horiz-adv-x="336" 
d="M82 0v750h172v-750h-172zM84 913h165l107 -121h-136l-53 57l-52 -57h-134z" />
    <glyph glyph-name="Idieresis" unicode="&#xcf;" horiz-adv-x="336" 
d="M82 0v750h172v-750h-172zM133 853q0 -61 -64 -61q-33 0 -49.5 14.5t-16.5 46.5q0 30 17 46.5t49 16.5q64 0 64 -63zM332 853q0 -61 -65 -61q-33 0 -49 14.5t-16 46.5q0 63 65 63t65 -63z" />
    <glyph glyph-name="Eth" unicode="&#xd0;" horiz-adv-x="742" 
d="M699 378q0 -100 -21 -172.5t-63 -117.5t-105 -66.5t-146 -21.5h-283v339h-59v100h59v311h281q177 0 257 -89t80 -283zM522 379q0 83 -13.5 129.5t-46.5 68.5t-102 22h-110v-160h83v-100h-83v-189h111q68 0 100.5 21.5t46.5 70t14 137.5z" />
    <glyph glyph-name="Ntilde" unicode="&#xd1;" horiz-adv-x="747" 
d="M676 0h-118l-291 409l-45 67l-2 -1l1 -81v-394h-150v750h144l267 -387l45 -67l2 1l-2 80v373h149v-750zM276 795l-71 1q2 39 18 68.5t40 40.5t46 11q21 0 43 -6t53.5 -20.5t45.5 -14.5q26 0 31 30l68 -1q-1 -25 -11 -53.5t-35.5 -47.5t-58.5 -19q-21 0 -42 6t-51 20.5
t-44 14.5q-11 0 -20.5 -8.5t-11.5 -21.5z" />
    <glyph glyph-name="Ograve" unicode="&#xd2;" horiz-adv-x="748" 
d="M704 375q0 -204 -77.5 -296.5t-252.5 -92.5q-172 0 -251.5 94.5t-79.5 294.5q0 201 78.5 294t252.5 93t252 -93t78 -294zM528 375q0 71 -9 122.5t-38.5 82.5t-106.5 31q-66 0 -97 -23.5t-44 -73.5t-13 -139t13 -139.5t44.5 -74.5t97.5 -24q32 0 60.5 7t49 29.5t32 68
t11.5 133.5zM466 794h-126l-128 120h184z" />
    <glyph glyph-name="Oacute" unicode="&#xd3;" horiz-adv-x="748" 
d="M704 375q0 -204 -77.5 -296.5t-252.5 -92.5q-172 0 -251.5 94.5t-79.5 294.5q0 201 78.5 294t252.5 93t252 -93t78 -294zM528 375q0 71 -9 122.5t-38.5 82.5t-106.5 31q-66 0 -97 -23.5t-44 -73.5t-13 -139t13 -139.5t44.5 -74.5t97.5 -24q32 0 60.5 7t49 29.5t32 68
t11.5 133.5zM361 913h198l-139 -121h-124z" />
    <glyph glyph-name="Ocircumflex" unicode="&#xd4;" horiz-adv-x="748" 
d="M704 375q0 -204 -77.5 -296.5t-252.5 -92.5q-172 0 -251.5 94.5t-79.5 294.5q0 201 78.5 294t252.5 93t252 -93t78 -294zM528 375q0 71 -9 122.5t-38.5 82.5t-106.5 31q-66 0 -97 -23.5t-44 -73.5t-13 -139t13 -139.5t44.5 -74.5t97.5 -24q32 0 60.5 7t49 29.5t32 68
t11.5 133.5zM291 913h165l107 -121h-136l-53 57l-52 -57h-134z" />
    <glyph glyph-name="Otilde" unicode="&#xd5;" horiz-adv-x="748" 
d="M704 375q0 -204 -77.5 -296.5t-252.5 -92.5q-172 0 -251.5 94.5t-79.5 294.5q0 201 78.5 294t252.5 93t252 -93t78 -294zM528 375q0 71 -9 122.5t-38.5 82.5t-106.5 31q-66 0 -97 -23.5t-44 -73.5t-13 -139t13 -139.5t44.5 -74.5t97.5 -24q32 0 60.5 7t49 29.5t32 68
t11.5 133.5zM275 795l-71 1q2 39 18 68.5t40 40.5t46 11q21 0 43 -6t53.5 -20.5t45.5 -14.5q26 0 31 30l68 -1q-1 -25 -11 -53.5t-35.5 -47.5t-58.5 -19q-21 0 -42 6t-51 20.5t-44 14.5q-11 0 -20.5 -8.5t-11.5 -21.5z" />
    <glyph glyph-name="Odieresis" unicode="&#xd6;" horiz-adv-x="748" 
d="M704 375q0 -204 -77.5 -296.5t-252.5 -92.5q-172 0 -251.5 94.5t-79.5 294.5q0 201 78.5 294t252.5 93t252 -93t78 -294zM528 375q0 71 -9 122.5t-38.5 82.5t-106.5 31q-66 0 -97 -23.5t-44 -73.5t-13 -139t13 -139.5t44.5 -74.5t97.5 -24q32 0 60.5 7t49 29.5t32 68
t11.5 133.5zM341 853q0 -61 -64 -61q-33 0 -49.5 14.5t-16.5 46.5q0 30 17 46.5t49 16.5q64 0 64 -63zM540 853q0 -61 -65 -61q-33 0 -49 14.5t-16 46.5q0 63 65 63t65 -63z" />
    <glyph glyph-name="multiply" unicode="&#xd7;" horiz-adv-x="602" 
d="M524 197l-90 -96l-133 131l-133 -131l-90 95l134 131l-136 133l90 97l136 -134l135 133l89 -95l-136 -134z" />
    <glyph glyph-name="Oslash" unicode="&#xd8;" horiz-adv-x="748" 
d="M113 -17l-80 72l57 71q-47 91 -47 249q0 201 78.5 294t252.5 93q141 0 218 -61l53 63l78 -75l-62 -75q43 -89 43 -239q0 -204 -78 -296.5t-252 -92.5q-137 0 -213 57zM220 375q0 -59 5 -109l264 304q-17 22 -45.5 31.5t-70.5 9.5q-55 0 -87 -17.5t-49 -65t-17 -153.5z
M527 375l-3 99l-262 -300q33 -37 112 -37q55 0 87 18t49 66t17 154z" />
    <glyph glyph-name="Ugrave" unicode="&#xd9;" horiz-adv-x="726" 
d="M665 750v-482q0 -141 -76 -211.5t-225 -70.5t-226 71t-77 211v482h168v-480q0 -68 32.5 -99.5t102.5 -31.5t102 31t32 100v480h167zM444 794h-126l-128 120h184z" />
    <glyph glyph-name="Uacute" unicode="&#xda;" horiz-adv-x="726" 
d="M665 750v-482q0 -141 -76 -211.5t-225 -70.5t-226 71t-77 211v482h168v-480q0 -68 32.5 -99.5t102.5 -31.5t102 31t32 100v480h167zM351 913h198l-139 -121h-124z" />
    <glyph glyph-name="Ucircumflex" unicode="&#xdb;" horiz-adv-x="726" 
d="M665 750v-482q0 -141 -76 -211.5t-225 -70.5t-226 71t-77 211v482h168v-480q0 -68 32.5 -99.5t102.5 -31.5t102 31t32 100v480h167zM280 913h165l107 -121h-136l-53 57l-52 -57h-134z" />
    <glyph glyph-name="Udieresis" unicode="&#xdc;" horiz-adv-x="726" 
d="M665 750v-482q0 -141 -76 -211.5t-225 -70.5t-226 71t-77 211v482h168v-480q0 -68 32.5 -99.5t102.5 -31.5t102 31t32 100v480h167zM330 853q0 -61 -64 -61q-33 0 -49.5 14.5t-16.5 46.5q0 30 17 46.5t49 16.5q64 0 64 -63zM529 853q0 -61 -65 -61q-33 0 -49 14.5
t-16 46.5q0 63 65 63t65 -63z" />
    <glyph glyph-name="Yacute" unicode="&#xdd;" horiz-adv-x="698" 
d="M6 750h190l126 -284l31 -74h3l30 75l121 283h185l-255 -511v-239h-172v239zM339 913h198l-139 -121h-124z" />
    <glyph glyph-name="Thorn" unicode="&#xde;" horiz-adv-x="665" 
d="M633 378q0 -60 -17 -106.5t-53.5 -78t-95 -48t-138.5 -16.5h-89v-129h-169v750h169v-115h89q161 0 232.5 -62t71.5 -195zM459 379q0 66 -28.5 90.5t-101.5 24.5h-89v-230h89q81 0 105.5 27.5t24.5 87.5z" />
    <glyph glyph-name="germandbls" unicode="&#xdf;" horiz-adv-x="657" 
d="M67 0v489q0 135 65 204.5t192 69.5q95 0 155 -49.5t60 -121.5q0 -28 -13.5 -54t-41.5 -55t-32.5 -37.5t-4.5 -14.5q0 -9 12.5 -18.5t39 -25.5t39.5 -25q90 -66 90 -160q0 -96 -65 -153.5t-172 -57.5q-35 0 -75 7.5t-66 24.5l9 131q18 -12 48 -19t57 -7q34 0 60 9.5
t36 26.5t10 34q0 20 -10.5 36t-24 27.5t-70 47.5t-71 58.5t-14.5 43.5q0 38 48.5 87.5t55 64.5t6.5 24q0 21 -19 34t-51 13q-51 0 -74.5 -31t-23.5 -100v-503h-155z" />
    <glyph glyph-name="agrave" unicode="&#xe0;" horiz-adv-x="581" 
d="M406 0l-12 58l-3 1q-27 -33 -70 -51t-94 -18q-88 0 -138 51t-50 150q0 85 57.5 137t158.5 52q62 0 116 -17v35q0 46 -27 67.5t-88 21.5q-50 0 -89 -8.5t-78 -24.5l-13 124q94 40 208 40q66 0 107 -13t69 -35.5t46.5 -69t18.5 -125.5v-375h-119zM371 184v76q-12 5 -36 9
t-50 4q-101 0 -101 -80t86 -80q18 0 41.5 7t41.5 25t18 39zM362 656h-117l-120 145h177z" />
    <glyph glyph-name="aacute" unicode="&#xe1;" horiz-adv-x="581" 
d="M406 0l-12 58l-3 1q-27 -33 -70 -51t-94 -18q-88 0 -138 51t-50 150q0 85 57.5 137t158.5 52q62 0 116 -17v35q0 46 -27 67.5t-88 21.5q-50 0 -89 -8.5t-78 -24.5l-13 124q94 40 208 40q66 0 107 -13t69 -35.5t46.5 -69t18.5 -125.5v-375h-119zM371 184v76q-12 5 -36 9
t-50 4q-101 0 -101 -80t86 -80q18 0 41.5 7t41.5 25t18 39zM265 801h178l-120 -145h-117z" />
    <glyph glyph-name="acircumflex" unicode="&#xe2;" horiz-adv-x="581" 
d="M406 0l-12 58l-3 1q-27 -33 -70 -51t-94 -18q-88 0 -138 51t-50 150q0 85 57.5 137t158.5 52q62 0 116 -17v35q0 46 -27 67.5t-88 21.5q-50 0 -89 -8.5t-78 -24.5l-13 124q94 40 208 40q66 0 107 -13t69 -35.5t46.5 -69t18.5 -125.5v-375h-119zM371 184v76q-12 5 -36 9
t-50 4q-101 0 -101 -80t86 -80q18 0 41.5 7t41.5 25t18 39zM219 801h135l100 -145h-115l-52 82l-51 -82h-115z" />
    <glyph glyph-name="atilde" unicode="&#xe3;" horiz-adv-x="581" 
d="M406 0l-12 58l-3 1q-27 -33 -70 -51t-94 -18q-88 0 -138 51t-50 150q0 85 57.5 137t158.5 52q62 0 116 -17v35q0 46 -27 67.5t-88 21.5q-50 0 -89 -8.5t-78 -24.5l-13 124q94 40 208 40q66 0 107 -13t69 -35.5t46.5 -69t18.5 -125.5v-375h-119zM371 184v76q-12 5 -36 9
t-50 4q-101 0 -101 -80t86 -80q18 0 41.5 7t41.5 25t18 39zM191 668l-71 1q1 27 11 58.5t34.5 53.5t57.5 22q37 0 72 -23t45.5 -26t16.5 -3q25 0 35 41l71 -1q-2 -60 -30.5 -96.5t-73.5 -36.5q-21 0 -39.5 7t-47.5 26t-46 19q-13 0 -22 -13t-13 -29z" />
    <glyph glyph-name="adieresis" unicode="&#xe4;" horiz-adv-x="581" 
d="M406 0l-12 58l-3 1q-27 -33 -70 -51t-94 -18q-88 0 -138 51t-50 150q0 85 57.5 137t158.5 52q62 0 116 -17v35q0 46 -27 67.5t-88 21.5q-50 0 -89 -8.5t-78 -24.5l-13 124q94 40 208 40q66 0 107 -13t69 -35.5t46.5 -69t18.5 -125.5v-375h-119zM371 184v76q-12 5 -36 9
t-50 4q-101 0 -101 -80t86 -80q18 0 41.5 7t41.5 25t18 39zM266 738q0 -65 -66 -65q-33 0 -49 15.5t-16 49.5q0 66 65 66q66 0 66 -66zM448 738q0 -65 -65 -65q-33 0 -49.5 15.5t-16.5 49.5q0 32 17 49t49 17q65 0 65 -66z" />
    <glyph glyph-name="aring" unicode="&#xe5;" horiz-adv-x="581" 
d="M406 0l-12 58l-3 1q-27 -33 -70 -51t-94 -18q-88 0 -138 51t-50 150q0 85 57.5 137t158.5 52q62 0 116 -17v35q0 46 -27 67.5t-88 21.5q-50 0 -89 -8.5t-78 -24.5l-13 124q94 40 208 40q66 0 107 -13t69 -35.5t46.5 -69t18.5 -125.5v-375h-119zM371 184v76q-12 5 -36 9
t-50 4q-101 0 -101 -80t86 -80q18 0 41.5 7t41.5 25t18 39zM164 743q0 42 30.5 66t94.5 24q62 0 94 -24.5t32 -65.5q0 -45 -31 -67.5t-95 -22.5q-63 0 -94 21.5t-31 68.5zM239 742q0 -15 11.5 -23t40.5 -8q51 0 51 31t-51 31q-52 0 -52 -31z" />
    <glyph glyph-name="ae" unicode="&#xe6;" horiz-adv-x="909" 
d="M284 616q129 0 177 -64q67 65 174 65q53 0 97.5 -17.5t76 -52.5t49 -88.5t17.5 -123.5q0 -31 -4 -73h-353q6 -74 44.5 -106.5t116.5 -32.5q80 0 162 32l17 -127q-39 -18 -91 -28.5t-107 -10.5q-155 0 -225 88q-23 -31 -57.5 -52t-70.5 -28.5t-65 -7.5q-98 0 -150.5 50.5
t-52.5 150.5q0 85 57.5 136.5t158.5 51.5q57 0 116 -16v35q0 46 -27 67.5t-88 21.5q-50 0 -89 -8.5t-78 -24.5l-13 124q97 39 208 39zM371 192v67q-12 5 -36 9t-50 4q-101 0 -101 -80t86 -80q20 0 43.5 7.5t40.5 27t17 45.5zM515 365h218q-3 123 -107 123q-54 0 -80 -29
t-31 -94z" />
    <glyph glyph-name="ccedilla" unicode="&#xe7;" horiz-adv-x="493" 
d="M185 -189l64 182q-214 32 -214 309q0 314 277 314q35 0 77 -7.5t69 -18.5l-9 -132q-54 19 -103 19q-84 0 -117 -39.5t-33 -135.5q0 -95 37.5 -138t109.5 -43q61 0 110 23l11 -121q-19 -12 -48.5 -20.5t-60.5 -11.5l-32 -180h-138z" />
    <glyph glyph-name="egrave" unicode="&#xe8;" horiz-adv-x="586" 
d="M337 -11q-154 0 -228 81t-74 241q0 72 16.5 129t49.5 96.5t84 60t117 20.5q119 0 184.5 -71t65.5 -211q0 -45 -4 -73h-353q6 -75 44 -107t117 -32q84 0 162 30l17 -125q-39 -18 -91 -28.5t-107 -10.5zM192 365h218q-3 123 -107 123q-55 0 -80.5 -28.5t-30.5 -94.5z
M377 656h-117l-120 145h177z" />
    <glyph glyph-name="eacute" unicode="&#xe9;" horiz-adv-x="586" 
d="M337 -11q-154 0 -228 81t-74 241q0 72 16.5 129t49.5 96.5t84 60t117 20.5q119 0 184.5 -71t65.5 -211q0 -45 -4 -73h-353q6 -75 44 -107t117 -32q84 0 162 30l17 -125q-39 -18 -91 -28.5t-107 -10.5zM192 365h218q-3 123 -107 123q-55 0 -80.5 -28.5t-30.5 -94.5z
M280 801h178l-120 -145h-117z" />
    <glyph glyph-name="ecircumflex" unicode="&#xea;" horiz-adv-x="586" 
d="M337 -11q-154 0 -228 81t-74 241q0 72 16.5 129t49.5 96.5t84 60t117 20.5q119 0 184.5 -71t65.5 -211q0 -45 -4 -73h-353q6 -75 44 -107t117 -32q84 0 162 30l17 -125q-39 -18 -91 -28.5t-107 -10.5zM192 365h218q-3 123 -107 123q-55 0 -80.5 -28.5t-30.5 -94.5z
M234 801h135l100 -145h-115l-52 82l-51 -82h-115z" />
    <glyph glyph-name="edieresis" unicode="&#xeb;" horiz-adv-x="586" 
d="M337 -11q-154 0 -228 81t-74 241q0 72 16.5 129t49.5 96.5t84 60t117 20.5q119 0 184.5 -71t65.5 -211q0 -45 -4 -73h-353q6 -75 44 -107t117 -32q84 0 162 30l17 -125q-39 -18 -91 -28.5t-107 -10.5zM192 365h218q-3 123 -107 123q-55 0 -80.5 -28.5t-30.5 -94.5z
M268 738q0 -65 -66 -65q-33 0 -49 15.5t-16 49.5q0 66 65 66q66 0 66 -66zM450 738q0 -65 -65 -65q-33 0 -49.5 15.5t-16.5 49.5q0 32 17 49t49 17q65 0 65 -66z" />
    <glyph glyph-name="igrave" unicode="&#xec;" horiz-adv-x="319" 
d="M239 0h-159v602l159 7v-609zM237 656h-117l-120 145h177z" />
    <glyph glyph-name="iacute" unicode="&#xed;" horiz-adv-x="319" 
d="M239 0h-159v602l159 7v-609zM140 801h178l-120 -145h-117z" />
    <glyph glyph-name="icircumflex" unicode="&#xee;" horiz-adv-x="319" 
d="M239 0h-159v602l159 7v-609zM94 801h135l100 -145h-115l-52 82l-51 -82h-115z" />
    <glyph glyph-name="idieresis" unicode="&#xef;" horiz-adv-x="319" 
d="M239 0h-159v602l159 7v-609zM139 738q0 -65 -66 -65q-33 0 -49 15.5t-16 49.5q0 66 65 66q66 0 66 -66zM321 738q0 -65 -65 -65q-33 0 -49.5 15.5t-16.5 49.5q0 32 17 49t49 17q65 0 65 -66z" />
    <glyph glyph-name="eth" unicode="&#xf0;" horiz-adv-x="625" 
d="M490 730l-70 -43q75 -73 122.5 -167t47.5 -185t-17.5 -157.5t-52 -108t-86.5 -61t-120 -19.5q-64 0 -115 14.5t-87.5 48t-56.5 91t-20 139.5q0 131 60 198.5t177 67.5q72 0 124 -26l2 2q-37 55 -85 99l-89 -54l-54 60l75 47q-39 25 -86 51l108 71q17 -9 43.5 -25.5
t42.5 -28.5l85 53zM196 276q0 -80 23.5 -119t89.5 -39q62 0 91 43t29 139q0 62 -29.5 90t-89.5 28q-63 0 -88.5 -31.5t-25.5 -110.5z" />
    <glyph glyph-name="ntilde" unicode="&#xf1;" horiz-adv-x="629" 
d="M573 0h-155v386q0 94 -98 94q-30 0 -58.5 -12.5t-43.5 -33.5v-434h-156v603l112 7l23 -52q33 29 76.5 44.5t90.5 15.5q97 0 153 -60.5t56 -171.5v-386zM224 668l-71 1q1 27 11 58.5t34.5 53.5t57.5 22q37 0 72 -23t45.5 -26t16.5 -3q25 0 35 41l71 -1q-2 -60 -30.5 -96.5
t-73.5 -36.5q-21 0 -39.5 7t-47.5 26t-46 19q-13 0 -22 -13t-13 -29z" />
    <glyph glyph-name="ograve" unicode="&#xf2;" horiz-adv-x="624" 
d="M590 301q0 -166 -66 -240.5t-211 -74.5q-144 0 -211 74.5t-67 240.5q0 165 67 240.5t211 75.5t210.5 -75t66.5 -241zM196 301q0 -55 7 -96t30 -66.5t80 -25.5q41 0 65.5 14.5t37.5 52.5t13 121q0 55 -8 100t-33.5 66.5t-74.5 21.5q-50 0 -73.5 -19.5t-33.5 -59.5
t-10 -109zM388 656h-117l-120 145h177z" />
    <glyph glyph-name="oacute" unicode="&#xf3;" horiz-adv-x="624" 
d="M590 301q0 -166 -66 -240.5t-211 -74.5q-144 0 -211 74.5t-67 240.5q0 165 67 240.5t211 75.5t210.5 -75t66.5 -241zM196 301q0 -55 7 -96t30 -66.5t80 -25.5q41 0 65.5 14.5t37.5 52.5t13 121q0 55 -8 100t-33.5 66.5t-74.5 21.5q-50 0 -73.5 -19.5t-33.5 -59.5
t-10 -109zM291 801h178l-120 -145h-117z" />
    <glyph glyph-name="ocircumflex" unicode="&#xf4;" horiz-adv-x="624" 
d="M590 301q0 -166 -66 -240.5t-211 -74.5q-144 0 -211 74.5t-67 240.5q0 165 67 240.5t211 75.5t210.5 -75t66.5 -241zM196 301q0 -55 7 -96t30 -66.5t80 -25.5q41 0 65.5 14.5t37.5 52.5t13 121q0 55 -8 100t-33.5 66.5t-74.5 21.5q-50 0 -73.5 -19.5t-33.5 -59.5
t-10 -109zM244 801h135l100 -145h-115l-52 82l-51 -82h-115z" />
    <glyph glyph-name="otilde" unicode="&#xf5;" horiz-adv-x="624" 
d="M590 301q0 -166 -66 -240.5t-211 -74.5q-144 0 -211 74.5t-67 240.5q0 165 67 240.5t211 75.5t210.5 -75t66.5 -241zM196 301q0 -55 7 -96t30 -66.5t80 -25.5q41 0 65.5 14.5t37.5 52.5t13 121q0 55 -8 100t-33.5 66.5t-74.5 21.5q-50 0 -73.5 -19.5t-33.5 -59.5
t-10 -109zM216 668l-71 1q1 27 11 58.5t34.5 53.5t57.5 22q37 0 72 -23t45.5 -26t16.5 -3q25 0 35 41l71 -1q-2 -60 -30.5 -96.5t-73.5 -36.5q-21 0 -39.5 7t-47.5 26t-46 19q-13 0 -22 -13t-13 -29z" />
    <glyph glyph-name="odieresis" unicode="&#xf6;" horiz-adv-x="624" 
d="M590 301q0 -166 -66 -240.5t-211 -74.5q-144 0 -211 74.5t-67 240.5q0 165 67 240.5t211 75.5t210.5 -75t66.5 -241zM196 301q0 -55 7 -96t30 -66.5t80 -25.5q41 0 65.5 14.5t37.5 52.5t13 121q0 55 -8 100t-33.5 66.5t-74.5 21.5q-50 0 -73.5 -19.5t-33.5 -59.5
t-10 -109zM287 738q0 -65 -66 -65q-33 0 -49 15.5t-16 49.5q0 66 65 66q66 0 66 -66zM469 738q0 -65 -65 -65q-33 0 -49.5 15.5t-16.5 49.5q0 32 17 49t49 17q65 0 65 -66z" />
    <glyph glyph-name="divide" unicode="&#xf7;" horiz-adv-x="602" 
d="M397 526q0 -37 -24.5 -56.5t-71.5 -19.5q-48 0 -72 17.5t-24 58.5q0 37 25 57t71 20q47 0 71.5 -19.5t24.5 -57.5zM397 145q0 -75 -96 -75q-48 0 -72 17t-24 58q0 37 25 57t71 20q47 0 71.5 -19.5t24.5 -57.5zM544 264h-486v143h486v-143z" />
    <glyph glyph-name="oslash" unicode="&#xf8;" horiz-adv-x="624" 
d="M96 -14l-65 60l43 53q-39 71 -39 202q0 165 67 240.5t211 75.5q107 0 169 -40l37 45l65 -59l-40 -50q45 -73 45 -212q0 -166 -65.5 -240.5t-210.5 -74.5q-116 0 -180 45zM429 301l-2 78l-207 -225q14 -22 36.5 -31.5t56.5 -9.5q41 0 65.5 14.5t37.5 52.5t13 121zM195 301
l1 -62l202 218q-26 32 -85 32q-41 0 -66 -14.5t-38.5 -52.5t-13.5 -121z" />
    <glyph glyph-name="ugrave" unicode="&#xf9;" horiz-adv-x="622" 
d="M567 606v-392q0 -111 -63.5 -168t-191.5 -57q-127 0 -191 58t-64 167v392h155v-389q0 -91 100 -91t100 91v389h155zM388 656h-117l-120 145h177z" />
    <glyph glyph-name="uacute" unicode="&#xfa;" horiz-adv-x="622" 
d="M567 606v-392q0 -111 -63.5 -168t-191.5 -57q-127 0 -191 58t-64 167v392h155v-389q0 -91 100 -91t100 91v389h155zM290 801h178l-120 -145h-117z" />
    <glyph glyph-name="ucircumflex" unicode="&#xfb;" horiz-adv-x="622" 
d="M567 606v-392q0 -111 -63.5 -168t-191.5 -57q-127 0 -191 58t-64 167v392h155v-389q0 -91 100 -91t100 91v389h155zM244 801h135l100 -145h-115l-52 82l-51 -82h-115z" />
    <glyph glyph-name="udieresis" unicode="&#xfc;" horiz-adv-x="622" 
d="M567 606v-392q0 -111 -63.5 -168t-191.5 -57q-127 0 -191 58t-64 167v392h155v-389q0 -91 100 -91t100 91v389h155zM286 738q0 -65 -66 -65q-33 0 -49 15.5t-16 49.5q0 66 65 66q66 0 66 -66zM468 738q0 -65 -65 -65q-33 0 -49.5 15.5t-16.5 49.5q0 32 17 49t49 17
q65 0 65 -66z" />
    <glyph glyph-name="yacute" unicode="&#xfd;" horiz-adv-x="653" 
d="M181 -52q33 0 56 13t37 45l3 8l-261 592h177l132 -370l26 -76h3l19 78l99 368h165l-207 -598q-32 -91 -87 -133.5t-134 -42.5q-59 0 -103 19l12 110q32 -13 63 -13zM308 801h178l-120 -145h-117z" />
    <glyph glyph-name="thorn" unicode="&#xfe;" horiz-adv-x="635" 
d="M600 304q0 -155 -62 -234.5t-172 -79.5q-88 0 -142 46l-3 -1l2 -81v-108h-156v932l156 8v-145l-2 -80l3 -2q30 27 70.5 42.5t84.5 15.5q80 0 127.5 -36t70.5 -104t23 -173zM438 305q0 89 -21.5 131.5t-88.5 42.5q-34 0 -61.5 -13t-43.5 -36v-260q15 -23 41 -37.5
t60 -14.5q64 0 89 46t25 141z" />
    <glyph glyph-name="ydieresis" unicode="&#xff;" horiz-adv-x="653" 
d="M181 -52q33 0 56 13t37 45l3 8l-261 592h177l132 -370l26 -76h3l19 78l99 368h165l-207 -598q-32 -91 -87 -133.5t-134 -42.5q-59 0 -103 19l12 110q32 -13 63 -13zM302 738q0 -65 -66 -65q-33 0 -49 15.5t-16 49.5q0 66 65 66q66 0 66 -66zM484 738q0 -65 -65 -65
q-33 0 -49.5 15.5t-16.5 49.5q0 32 17 49t49 17q65 0 65 -66z" />
    <glyph glyph-name="dotlessi" unicode="&#x131;" horiz-adv-x="319" 
d="M239 0h-159v602l159 7v-609z" />
    <glyph glyph-name="OE" unicode="&#x152;" horiz-adv-x="1070" 
d="M1033 0h-493v59l-2 1q-65 -74 -196 -74q-150 0 -224.5 95.5t-74.5 293.5q0 199 74 293t227 94q59 0 109.5 -17t84.5 -50l2 1v54h478l3 -149h-329v-149h276v-134h-276v-171h344zM526 375q0 107 -16.5 154t-48.5 64.5t-87 17.5q-66 0 -97 -23.5t-44 -73.5t-13 -139
t13 -139.5t44.5 -74.5t97.5 -24q54 0 86 18t48.5 66t16.5 154z" />
    <glyph glyph-name="oe" unicode="&#x153;" horiz-adv-x="982" 
d="M738 -11q-156 0 -222 85q-59 -88 -212 -88q-137 0 -201.5 75t-64.5 240q0 164 65.5 240t200.5 76q147 0 208 -81q59 81 191 81q56 0 101 -17.5t77.5 -52.5t49.5 -88.5t17 -123.5q0 -31 -4 -73h-352q5 -74 43.5 -106.5t116.5 -32.5q80 0 162 32l17 -127q-39 -18 -90 -28.5
t-103 -10.5zM198 301q0 -55 6.5 -91.5t20.5 -57.5t36 -30t55 -9q41 0 65 14.5t37 52.5t13 121q0 69 -9.5 109t-33 59.5t-72.5 19.5q-41 0 -66 -14.5t-38.5 -52.5t-13.5 -121zM589 365h217q-3 123 -107 123q-54 0 -80 -29t-30 -94z" />
    <glyph glyph-name="Scaron" unicode="&#x160;" horiz-adv-x="578" 
d="M549 225q0 -111 -74 -175t-204 -64q-128 0 -232 56l22 145q104 -55 208 -55q59 0 88.5 21.5t29.5 60.5q0 16 -9.5 30.5t-31.5 27t-90.5 37t-103 44t-58.5 43.5t-38 58.5t-14 78.5q0 48 16 90t49.5 73.5t86 49t120.5 17.5q49 0 107 -10t103 -29l-21 -142q-45 14 -93.5 23
t-87.5 9q-118 0 -118 -72q0 -15 9.5 -29.5t31.5 -27t90.5 -36t103 -43t58.5 -43.5t38 -58.5t14 -79.5zM395 792h-165l-104 121h135l52 -60l53 60h135z" />
    <glyph glyph-name="scaron" unicode="&#x161;" horiz-adv-x="497" 
d="M465 190q0 -70 -28 -114t-78.5 -66t-124.5 -22q-113 0 -190 42l16 128q26 -15 73 -29t100 -14q44 0 66 16.5t22 44.5q0 13 -8.5 25.5t-30 22.5t-73 26t-83 33t-51 40.5t-27.5 50.5t-8 55q0 62 29.5 103.5t79.5 62.5t121 21q42 0 89 -9t83 -24l-13 -127q-32 13 -78 22
t-84 9q-37 0 -58 -14t-21 -37q0 -16 14 -30.5t63.5 -29.5t61.5 -19q72 -25 105 -64.5t33 -102.5zM328 656h-137l-97 145h115l51 -86l50 86h117z" />
    <glyph glyph-name="Ydieresis" unicode="&#x178;" horiz-adv-x="698" 
d="M6 750h190l126 -284l31 -74h3l30 75l121 283h185l-255 -511v-239h-172v239zM318 853q0 -61 -64 -61q-33 0 -49.5 14.5t-16.5 46.5q0 30 17 46.5t49 16.5q64 0 64 -63zM517 853q0 -61 -65 -61q-33 0 -49 14.5t-16 46.5q0 63 65 63t65 -63z" />
    <glyph glyph-name="Zcaron" unicode="&#x17d;" horiz-adv-x="618" 
d="M576 0h-541v110l291 422l46 64l-1 2h-328l5 152h528v-123l-284 -410l-46 -63l1 -3h332zM399 792h-165l-104 121h135l52 -60l53 60h135z" />
    <glyph glyph-name="zcaron" unicode="&#x17e;" horiz-adv-x="538" 
d="M491 498l-222 -304l-48 -62l1 -3h278l-4 -129h-454v109l222 303l48 63l-1 2h-261l5 129h436v-108zM342 656h-137l-97 145h115l51 -86l50 86h117z" />
    <glyph glyph-name="florin" unicode="&#x192;" horiz-adv-x="427" 
d="M130 -154h-154l138 641h-62l25 118h62l6 34q7 40 35 76.5t77 56.5t107 20q48 0 93 -13l-30 -101q-28 7 -52 7q-65 0 -74 -45l-7 -35h123l-24 -118h-124z" />
    <glyph glyph-name="uni0237" unicode="&#x237;" horiz-adv-x="319" 
d="M239 609v-604q0 -35 -9 -67t-30.5 -55t-54.5 -35.5t-80 -12.5q-42 0 -82 14l7 109q20 -6 37 -6q26 0 41.5 14.5t15.5 42.5v593z" />
    <glyph glyph-name="circumflex" unicode="&#x2c6;" horiz-adv-x="405" 
d="M135 801h135l100 -145h-115l-52 82l-51 -82h-115z" />
    <glyph glyph-name="tilde" unicode="&#x2dc;" horiz-adv-x="405" 
d="M109 668l-71 1q1 27 11 58.5t34.5 53.5t57.5 22q37 0 72 -23t45.5 -26t16.5 -3q25 0 35 41l71 -1q-2 -60 -30.5 -96.5t-73.5 -36.5q-21 0 -39.5 7t-47.5 26t-46 19q-13 0 -22 -13t-13 -29z" />
    <glyph glyph-name="endash" unicode="&#x2013;" horiz-adv-x="516" 
d="M52 398h412v-112h-412v112z" />
    <glyph glyph-name="emdash" unicode="&#x2014;" horiz-adv-x="697" 
d="M52 398h594v-112h-594v112z" />
    <glyph glyph-name="quoteleft" unicode="&#x2018;" horiz-adv-x="254" 
d="M129 518q-44 0 -66.5 25t-22.5 69q0 38 28.5 102t61.5 107l56 -14l-25 -120q21 -11 37 -32.5t16 -46.5q0 -30 -11.5 -51.5t-32 -30t-41.5 -8.5z" />
    <glyph glyph-name="quoteright" unicode="&#x2019;" horiz-adv-x="254" 
d="M125 782q44 0 66.5 -25t22.5 -69q0 -18 -10 -52.5t-33.5 -80t-47.5 -76.5l-56 14l26 121q-22 10 -38 31.5t-16 47.5q0 29 11.5 50.5t32.5 30t42 8.5z" />
    <glyph glyph-name="quotesinglbase" unicode="&#x201a;" horiz-adv-x="254" 
d="M125 158q44 0 66.5 -25t22.5 -69q0 -18 -10 -52.5t-33.5 -80t-47.5 -76.5l-56 14l26 121q-22 10 -38 31.5t-16 47.5q0 29 11.5 50.5t32.5 30t42 8.5z" />
    <glyph glyph-name="quotedblleft" unicode="&#x201c;" horiz-adv-x="471" 
d="M129 518q-44 0 -66.5 25t-22.5 69q0 38 28.5 102t61.5 107l56 -14l-25 -120q21 -11 37 -32.5t16 -46.5q0 -30 -11.5 -51.5t-32 -30t-41.5 -8.5zM346 519q-45 0 -67 25t-22 69q0 38 29 101.5t62 106.5l56 -13l-26 -121q21 -10 37.5 -32t16.5 -47q0 -29 -11.5 -50.5
t-32.5 -30t-42 -8.5z" />
    <glyph glyph-name="quotedblright" unicode="&#x201d;" horiz-adv-x="471" 
d="M125 780q44 0 66.5 -25t22.5 -69q0 -18 -10 -52.5t-33.5 -80t-47.5 -76.5l-56 14l26 121q-22 10 -38 31.5t-16 47.5q0 29 11.5 50.5t32.5 30t42 8.5zM343 780q44 0 66.5 -25t22.5 -69q0 -18 -10 -52.5t-33.5 -80t-47.5 -76.5l-56 14l26 121q-22 10 -38 31.5t-16 47.5
q0 29 11.5 50.5t32.5 30t42 8.5z" />
    <glyph glyph-name="quotedblbase" unicode="&#x201e;" horiz-adv-x="471" 
d="M343 158q44 0 66.5 -25t22.5 -69q0 -18 -10 -52.5t-33.5 -80t-47.5 -76.5l-56 14l26 121q-22 10 -38 31.5t-16 47.5q0 29 11.5 50.5t32.5 30t42 8.5zM125 158q44 0 66.5 -25t22.5 -69q0 -18 -10 -52.5t-33.5 -80t-47.5 -76.5l-56 14l26 121q-22 10 -38 31.5t-16 47.5
q0 29 11.5 50.5t32.5 30t42 8.5z" />
    <glyph glyph-name="dagger" unicode="&#x2020;" horiz-adv-x="492" 
d="M30 615l151 -11l-13 182h154l-12 -182l152 11v-146l-152 11l12 -627h-154l13 627l-151 -11v146z" />
    <glyph glyph-name="daggerdbl" unicode="&#x2021;" horiz-adv-x="492" 
d="M462 176v-145l-152 11l12 -189h-154l13 189l-151 -11v145l152 -10l-1 314l-151 -10v145l151 -11l-13 182h154l-12 -182l152 11v-145l-152 10v-314z" />
    <glyph glyph-name="bullet" unicode="&#x2022;" horiz-adv-x="414" 
d="M48 322q0 160 156 160q159 0 159 -160q0 -161 -159 -161q-79 0 -117.5 40t-38.5 121z" />
    <glyph glyph-name="ellipsis" unicode="&#x2026;" horiz-adv-x="739" 
d="M693 75q0 -41 -22 -64t-67 -23q-47 0 -68.5 20.5t-21.5 66.5q0 86 90 86q89 0 89 -86zM462 75q0 -41 -22 -64t-67 -23q-47 0 -68.5 20.5t-21.5 66.5q0 86 90 86q89 0 89 -86zM224 75q0 -41 -22 -64t-67 -23q-47 0 -68.5 20.5t-21.5 66.5q0 86 90 86q89 0 89 -86z" />
    <glyph glyph-name="perthousand" unicode="&#x2030;" horiz-adv-x="1073" 
d="M342 585q0 -176 -156 -176q-79 0 -117 44t-38 132q0 91 37 132.5t119 41.5q78 0 116.5 -41.5t38.5 -132.5zM239 585q0 44 -12.5 61t-39.5 17q-28 0 -40.5 -16.5t-12.5 -61.5q0 -44 12.5 -61t40.5 -17q27 0 39.5 16.5t12.5 61.5zM523 715l89 -71l-407 -617l-90 71z
M707 165q0 -175 -156 -175q-79 0 -117 43.5t-38 131.5q0 91 37 134t119 43q78 0 116.5 -42.5t38.5 -134.5zM605 165q0 43 -13 60t-40 17q-28 0 -40.5 -17t-12.5 -60q0 -44 12.5 -60.5t40.5 -16.5t40.5 16.5t12.5 60.5zM1042 165q0 -175 -157 -175q-79 0 -116.5 43.5
t-37.5 131.5q0 91 37 134t118 43q78 0 117 -42.5t39 -134.5zM939 165q0 43 -12.5 60t-40.5 17q-27 0 -39.5 -17t-12.5 -60q0 -33 9 -55t43 -22q28 0 40.5 16.5t12.5 60.5z" />
    <glyph glyph-name="guilsinglleft" unicode="&#x2039;" horiz-adv-x="394" 
d="M344 422l-160 -102l160 -101v-120l-313 216v11l313 216v-120z" />
    <glyph glyph-name="guilsinglright" unicode="&#x203a;" horiz-adv-x="394" 
d="M51 99v120l159 101l-159 102v120l312 -216v-11z" />
    <glyph glyph-name="Euro" unicode="&#x20ac;" 
d="M506 347l-19 -81h-201q16 -75 61.5 -108.5t121.5 -33.5q31 0 68 9t67 23l12 -124q-79 -42 -191 -42q-135 0 -212 68.5t-98 207.5h-83v81h76l-1 34v11h-75v85h83q11 63 37.5 114.5t67 87.5t95 55.5t119.5 19.5q106 0 177 -30l-32 -134q-51 18 -108 18q-76 0 -121 -32.5
t-62 -98.5h254l-20 -84h-245v-46h229z" />
    <glyph glyph-name="trademark" unicode="&#x2122;" horiz-adv-x="692" 
d="M659 471h-81v102l2 81l-3 1l-26 -77l-39 -107h-66l-40 105l-27 77l-2 -1l1 -81v-100h-79v288h116l39 -106l26 -76h3l25 76l39 106h112v-288zM268 678h-77v-207h-94v207h-77v81h248v-81z" />
    </font>
</defs>
</svg>
