<svg xmlns="http://www.w3.org/2000/svg" viewBox="0 0 448 512"><!--! Font Awesome Pro 7.0.0 by @fontawesome - https://fontawesome.com License - https://fontawesome.com/license (Commercial License) Copyright 2025 Fonticons, Inc. --><path fill="currentColor" d="M399.6 240c-4.1 78.1-39 189.3-165.5 236.4-6.5 2.4-13.7 2.4-20.2 0-126.5-47.2-161.4-158.3-165.5-236.4l351.1 0zM228.8 9.6c8-10.6 23-12.8 33.6-4.8s12.7 23 4.8 33.6l-4.8 6.4c-4.4 5.9-7.9 12.4-10.3 19.2L352 64c53 0 96 43 96 96 0 17.7-14.3 32-32 32L32 192c-17.7 0-32-14.3-32-32 0-53 43-96 96-96l106.4 0C206 46.7 213.3 30.3 224 16l4.8-6.4z"/></svg>