<svg xmlns="http://www.w3.org/2000/svg" viewBox="0 0 576 512"><!--! Font Awesome Pro 7.0.0 by @fontawesome - https://fontawesome.com License - https://fontawesome.com/license (Commercial License) Copyright 2025 Fonticons, Inc. --><path fill="currentColor" d="M520 32c13.3 0 24 10.7 24 24s-10.7 24-24 24l-38.5 0c-1.2 0-2.2 .7-2.7 1.8l-7.1 15.9c50.1 8.7 88.2 52.4 88.2 105.1 0 29.4-23.9 53.3-53.3 53.3L432 256c-6.2 0-12.3-.8-18.2-2.2 1.4 5.8 2.2 11.9 2.2 18.1 0 5.9-.7 11.7-1.9 17.3l74.7 49.9 5.7 4.1c12.7 10.1 22.3 23.7 27.4 39.2l25.1 75.2 .9 3.9c1.1 9.2-4.4 18.3-13.6 21.3-9.2 3-19-.9-23.6-8.9l-1.7-3.7-25.1-75.2c-2.7-8.1-7.7-15.2-14.4-20.5l-3-2.2-71-47.3c-1.6 1.8-3.3 3.5-5 5.2l25.8 25.8c11.7 11.7 19.7 26.7 23 42.9l12.2 61 .4 4.1c0 9.3-6.6 17.6-16.1 19.5-9.5 1.9-18.8-3.3-22.4-11.8l-1.2-3.8-12.2-61c-1.7-8.5-5.9-16.4-12-22.5L353.7 350c-5.7 1.3-11.6 2-17.7 2-3.6 0-7.1-.3-10.5-.8l-68 122.5-2.3 3.3c-6.1 7.1-16.4 9.1-24.9 4.4s-12.2-14.6-9.4-23.5l1.6-3.7 65.7-118.2c-9-6.7-16.6-15.3-22.1-25.1l-90.4 162.8-2.3 3.3c-6.1 7.1-16.5 9.1-24.9 4.4-8.4-4.7-12.2-14.6-9.4-23.5l1.6-3.7 57.7-103.8c-5.9 1-12 1.6-18.2 1.6l-15.1 0-67.6 121.7-2.3 3.3c-6.1 7.1-16.4 9.1-24.9 4.4S58.1 466.9 60.9 458l1.6-3.7 56.8-102.3-28.7 0C49.4 352 16 318.6 16 277.3 16 194.9 82.9 128 165.3 128l10.7 0c51.9 0 95.4 35.3 108.2 83.1 14-11.9 32-19.1 51.8-19.1 6.2 0 12.3 .8 18.1 2.1-1.3-5.8-2.1-11.9-2.1-18.1 0-39.9 29.2-72.9 67.4-78.9L435 62.2C443.1 43.9 461.4 32 481.5 32L520 32zM464 152a24 24 0 1 0 0 48 24 24 0 1 0 0-48z"/></svg>