<svg xmlns="http://www.w3.org/2000/svg" viewBox="0 0 512 512"><!--! Font Awesome Pro 7.0.0 by @fontawesome - https://fontawesome.com License - https://fontawesome.com/license (Commercial License) Copyright 2025 Fonticons, Inc. --><path fill="currentColor" d="M32 64a32 32 0 1 0 0 64 32 32 0 1 0 0-64zM137.4 233.4c-12.5 12.5-12.5 32.8 0 45.3l128 128c12.5 12.5 32.8 12.5 45.3 0s12.5-32.8 0-45.3L237.3 288 480 288c17.7 0 32-14.3 32-32s-14.3-32-32-32l-242.7 0 73.4-73.4c12.5-12.5 12.5-32.8 0-45.3s-32.8-12.5-45.3 0l-128 128zM0 202.7a32 32 0 1 0 64 0 32 32 0 1 0 -64 0zm32 74.7a32 32 0 1 0 0 64 32 32 0 1 0 0-64zM0 416a32 32 0 1 0 64 0 32 32 0 1 0 -64 0z"/></svg>