<svg xmlns="http://www.w3.org/2000/svg" viewBox="0 0 448 512"><!--! Font Awesome Pro 7.0.0 by @fontawesome - https://fontawesome.com License - https://fontawesome.com/license (Commercial License) Copyright 2025 Fonticons, Inc. --><path fill="currentColor" d="M384 160c0 17.7 14.3 32 32 32s32-14.3 32-32l0-64c0-53-43-96-96-96L96 0C43 0 0 43 0 96l0 64c0 17.7 14.3 32 32 32s32-14.3 32-32l0-64c0-17.7 14.3-32 32-32l256 0c17.7 0 32 14.3 32 32l0 64zM201.4 502.6c12.5 12.5 32.8 12.5 45.3 0l128-128c12.5-12.5 12.5-32.8 0-45.3s-32.8-12.5-45.3 0L256 402.7 256 192c0-17.7-14.3-32-32-32s-32 14.3-32 32l0 210.7-73.4-73.4c-12.5-12.5-32.8-12.5-45.3 0s-12.5 32.8 0 45.3l128 128z"/></svg>