<svg xmlns="http://www.w3.org/2000/svg" viewBox="0 0 576 512"><!--! Font Awesome Pro 7.0.0 by @fontawesome - https://fontawesome.com License - https://fontawesome.com/license (Commercial License) Copyright 2025 Fonticons, Inc. --><path fill="currentColor" d="M396.3 504.8c12.6 10.3 31.1 9.5 42.8-2.2l112-112c12.5-12.5 12.5-32.8 0-45.2s-32.8-12.5-45.2 0l-57.4 57.4 0-210.7C448.5 89.3 367.8 5.4 266.4 .3L256.5 0c-106 0-192 86-192 192l0 224 .2 3.3C66.3 435.4 79.9 448 96.5 448s30.2-12.6 31.8-28.7l.2-3.3 0-224c0-70.7 57.3-128 128-128l6.6 .2c67.6 3.4 121.4 59.4 121.4 127.8l0 210.7-57.4-57.4-2.4-2.2c-12.6-10.2-31.1-9.5-42.8 2.2s-12.4 30.2-2.2 42.8l2.2 2.4 112 112 2.4 2.2z"/></svg>