<svg xmlns="http://www.w3.org/2000/svg" viewBox="0 0 512 512"><!--! Font Awesome Pro 7.0.0 by @fontawesome - https://fontawesome.com License - https://fontawesome.com/license (Commercial License) Copyright 2025 Fonticons, Inc. --><path fill="currentColor" d="M150.6 41.4c-12.5-12.5-32.8-12.5-45.3 0l-80 80c-12.5 12.5-12.5 32.8 0 45.3s32.8 12.5 45.3 0L96 141.3 96 448c0 17.7 14.3 32 32 32s32-14.3 32-32l0-306.7 25.4 25.4c12.5 12.5 32.8 12.5 45.3 0s12.5-32.8 0-45.3l-80-80zM288 80l0 64c0 26.5 21.5 48 48 48l64 0c26.5 0 48-21.5 48-48l0-64c0-26.5-21.5-48-48-48l-64 0c-26.5 0-48 21.5-48 48zm0 224l0 128c0 26.5 21.5 48 48 48l128 0c26.5 0 48-21.5 48-48l0-128c0-26.5-21.5-48-48-48l-128 0c-26.5 0-48 21.5-48 48z"/></svg>