<svg xmlns="http://www.w3.org/2000/svg" viewBox="0 0 512 512"><!--! Font Awesome Pro 7.0.0 by @fontawesome - https://fontawesome.com License - https://fontawesome.com/license (Commercial License) Copyright 2025 Fonticons, Inc. --><path fill="currentColor" d="M7.7 148.2c-10.3-12.6-9.5-31.1 2.2-42.8l112-112c12.5-12.5 32.8-12.5 45.2 0s12.5 32.8 0 45.2L109.7 96 320.5 96c102.7 0 186.6 80.7 191.8 182.1l.2 9.9c0 106-86 192-192 192l-224 0-3.3-.2c-16.1-1.6-28.7-15.3-28.7-31.8s12.6-30.2 28.7-31.8l3.3-.2 224 0c70.7 0 128-57.3 128-128l-.2-6.6C444.9 213.8 389 160 320.5 160l-210.8 0 57.4 57.4 2.2 2.4c10.2 12.6 9.5 31.1-2.2 42.8s-30.2 12.4-42.8 2.2l-2.4-2.2-112-112-2.2-2.4z"/></svg>