<svg xmlns="http://www.w3.org/2000/svg" viewBox="0 0 448 512"><!--! Font Awesome Pro 7.0.0 by @fontawesome - https://fontawesome.com License - https://fontawesome.com/license (Commercial License) Copyright 2025 Fonticons, Inc. --><path fill="currentColor" d="M9.4 41.4c12.5-12.5 32.8-12.5 45.3 0L128 114.7 128 80c0-17.7 14.3-32 32-32s32 14.3 32 32l0 112c0 17.7-14.3 32-32 32L48 224c-17.7 0-32-14.3-32-32s14.3-32 32-32l34.7 0-73.4-73.4C-3.1 74.1-3.1 53.9 9.4 41.4zm429.3 0c12.5 12.5 12.5 32.8 0 45.3L365.3 160 400 160c17.7 0 32 14.3 32 32s-14.3 32-32 32l-112 0c-17.7 0-32-14.3-32-32l0-112c0-17.7 14.3-32 32-32s32 14.3 32 32l0 34.7 73.4-73.4c12.5-12.5 32.8-12.5 45.3 0zM48 352c-17.7 0-32-14.3-32-32s14.3-32 32-32l112 0c17.7 0 32 14.3 32 32l0 112c0 17.7-14.3 32-32 32s-32-14.3-32-32l0-34.7-73.4 73.4c-12.5 12.5-32.8 12.5-45.3 0s-12.5-32.8 0-45.3L82.7 352 48 352zm208-32c0-17.7 14.3-32 32-32l112 0c17.7 0 32 14.3 32 32s-14.3 32-32 32l-34.7 0 73.4 73.4c12.5 12.5 12.5 32.8 0 45.3s-32.8 12.5-45.3 0L320 397.3 320 432c0 17.7-14.3 32-32 32s-32-14.3-32-32l0-112z"/></svg>