<svg xmlns="http://www.w3.org/2000/svg" viewBox="0 0 448 512"><!--! Font Awesome Pro 7.0.0 by @fontawesome - https://fontawesome.com License - https://fontawesome.com/license (Commercial License) Copyright 2025 Fonticons, Inc. --><path fill="currentColor" d="M202.1-25.9c13.4-8.2 30.3-8.2 43.7 0 24.4 14.9 39.5 18.9 68.1 18.3 15.7-.4 30.3 8.1 37.9 21.9 13.7 25.1 24.8 36.2 49.9 49.9 13.8 7.5 22.2 22.2 21.9 37.9-.7 28.6 3.4 43.7 18.3 68.1 8.2 13.4 8.2 30.3 0 43.7-14.9 24.4-18.9 39.5-18.3 68.1 .4 15.7-8.1 30.3-21.9 37.9-25 13.7-36.1 24.7-49.7 49.6l0 135.7c0 17.8-18.8 29.4-34.7 21.5L224 480 130.7 526.6c-16 8-34.7-3.6-34.7-21.5l0-135.7c-13.6-24.9-24.7-36-49.7-49.6-13.8-7.5-22.2-22.2-21.9-37.9 .7-28.6-3.4-43.7-18.3-68.1-8.2-13.4-8.2-30.3 0-43.7 14.9-24.4 18.9-39.5 18.3-68.1-.4-15.7 8.1-30.3 21.9-37.9 25.1-13.7 36.2-24.8 49.9-49.9 7.5-13.8 22.2-22.2 37.9-21.9 28.6 .7 43.7-3.4 68.1-18.3zM224 288a96 96 0 1 0 0-192 96 96 0 1 0 0 192z"/></svg>