<svg xmlns="http://www.w3.org/2000/svg" viewBox="0 0 448 512"><!--! Font Awesome Pro 7.0.0 by @fontawesome - https://fontawesome.com License - https://fontawesome.com/license (Commercial License) Copyright 2025 Fonticons, Inc. --><path fill="currentColor" d="M224 16c-35.3 0-64 28.7-64 64l0 48 128 0 0-48c0-35.3-28.7-64-64-64zM48 128l64 0 0-48c0-61.9 50.1-112 112-112S336 18.1 336 80l0 48 64 0c26.5 0 48 21.5 48 48l0 208c0 53-43 96-96 96L96 480c-53 0-96-43-96-96L0 176c0-26.5 21.5-48 48-48zm176 80c-13.3 0-24 10.7-24 24l0 48-48 0c-13.3 0-24 10.7-24 24s10.7 24 24 24l48 0 0 48c0 13.3 10.7 24 24 24s24-10.7 24-24l0-48 48 0c13.3 0 24-10.7 24-24s-10.7-24-24-24l-48 0 0-48c0-13.3-10.7-24-24-24z"/></svg>