<svg xmlns="http://www.w3.org/2000/svg" viewBox="0 0 576 512"><!--! Font Awesome Pro 7.0.0 by @fontawesome - https://fontawesome.com License - https://fontawesome.com/license (Commercial License) Copyright 2025 Fonticons, Inc. --><path fill="currentColor" d="M41 455l92-92c7.3-7.3 13.4-15.7 18-24.9l66.1-132.1c4.6-9.2 10.7-17.7 18-24.9L430.8-14.7c11.1-11.1 26.1-17.3 41.7-17.3 15.1 0 29.7 5.8 40.6 16.2l47.2 44.8c12.6 12 19.1 29 17.5 46.4-1.2 13.3-7 25.8-16.5 35.2L363.1 309c-7.3 7.3-15.7 13.4-25 18L206 393c-9.2 4.6-17.7 10.7-24.9 18l-92 92 1.7 1.8c7.7 9.4 7.1 23.3-1.7 32.1s-22.7 9.3-32.1 1.7l-1.8-1.7-48-48-1.7-1.8c-7.7-9.4-7.1-23.3 1.7-32.1s22.7-9.3 32.1-1.7L41 455z"/></svg>