<svg xmlns="http://www.w3.org/2000/svg" viewBox="0 0 448 512"><!--! Font Awesome Pro 7.0.0 by @fontawesome - https://fontawesome.com License - https://fontawesome.com/license (Commercial License) Copyright 2025 Fonticons, Inc. --><path fill="currentColor" d="M225.2 9.9c2.5-6 8.3-9.9 14.8-9.9l36.6 0c59.3 0 107.4 48.1 107.4 107.4 0 19.9-6.9 38.1-18.3 52.6l18.3 0c35.3 0 64 28.7 64 64s-28.7 64-64 64L64 288c-35.3 0-64-28.7-64-64s28.7-64 64-64l8.6 0c-5.4-9.4-8.6-20.3-8.6-32 0-35.3 28.7-64 64-64l94.1 0c9.9 0 17.9-8 17.9-17.9 0-4.8-1.9-9.3-5.3-12.7l-6.1-6.1c-4.6-4.6-5.9-11.5-3.5-17.4zM32 336l0 8c0 57.4 46.6 104 104 104l14.1 0-20.4 40.8c-2.5 5-2.2 10.9 .7 15.6s8.1 7.6 13.6 7.6l160 0c5.5 0 10.7-2.9 13.6-7.6s3.2-10.6 .7-15.6L297.9 448 312 448c57.4 0 104-46.6 104-104l0-8-384 0z"/></svg>