<svg xmlns="http://www.w3.org/2000/svg" viewBox="0 0 576 512"><!--! Font Awesome Pro 7.0.0 by @fontawesome - https://fontawesome.com License - https://fontawesome.com/license (Commercial License) Copyright 2025 Fonticons, Inc. --><path fill="currentColor" d="M143.5 60.7c2.6-13-5.8-25.6-18.8-28.2S99.1 38.3 96.5 51.3L60.3 232.1c-27.3 26.2-44.3 63.1-44.3 103.9 0 79.5 64.5 144 144 144 49.9 0 93.9-25.4 119.8-64l16.5 0c25.8 38.6 69.8 64 119.8 64 79.5 0 144-64.5 144-144 0-40.8-17-77.7-44.3-103.9L479.5 51.3c-2.6-13-15.2-21.4-28.2-18.8s-21.4 15.2-18.8 28.2l37.3 186.6-14.7 5.9C403 274 357.4 308.1 322.7 352l-69.5 0c-34.6-43.9-80.2-78-132.3-98.8l-14.7-5.9 37.3-186.6z"/></svg>