<svg xmlns="http://www.w3.org/2000/svg" viewBox="0 0 576 512"><!--! Font Awesome Pro 7.0.0 by @fontawesome - https://fontawesome.com License - https://fontawesome.com/license (Commercial License) Copyright 2025 Fonticons, Inc. --><path fill="currentColor" d="M64 32l96 0 0 20.6c10.1-3 20.9-4.6 32-4.6l32 0 0-16c0-35.3-28.7-64-64-64L64-32C28.7-32 0-3.3 0 32l0 96c0 35.3 28.7 64 64 64l16 0 0-32c0-11.1 1.6-21.9 4.6-32L64 128 64 32zM352 480c0 35.3 28.7 64 64 64l96 0c35.3 0 64-28.7 64-64l0-96c0-35.3-28.7-64-64-64l-16 0 0 32c0 11.1-1.6 21.9-4.6 32l20.6 0 0 96-96 0 0-20.6c-10.1 3-20.9 4.6-32 4.6l-32 0 0 16zM192 96c-35.3 0-64 28.7-64 64l0 192c0 35.3 28.7 64 64 64l192 0c35.3 0 64-28.7 64-64l0-192c0-35.3-28.7-64-64-64L192 96z"/></svg>