<svg xmlns="http://www.w3.org/2000/svg" viewBox="0 0 640 512"><!--! Font Awesome Pro 7.0.0 by @fontawesome - https://fontawesome.com License - https://fontawesome.com/license (Commercial License) Copyright 2025 Fonticons, Inc. --><path fill="currentColor" d="M448 128l64 0 0 144 64 0 0-144c0-35.3-28.7-64-64-64L128 64c-35.3 0-64 28.7-64 64l0 144 384 0 0-144zM64 320c-17.7 0-32 14.3-32 32s14.3 32 32 32l0 32c0 17.7 14.3 32 32 32l448 0c17.7 0 32-14.3 32-32l0-32 8 0c17.7 0 32-14.3 32-32s-14.3-32-32-32L64 320z"/></svg>