<svg xmlns="http://www.w3.org/2000/svg" viewBox="0 0 576 512"><!--! Font Awesome Pro 7.0.0 by @fontawesome - https://fontawesome.com License - https://fontawesome.com/license (Commercial License) Copyright 2025 Fonticons, Inc. --><path fill="currentColor" d="M0 112c0 70.7 57.3 128 128 128l224 0c70.7 0 128-57.3 128-128S422.7-16 352-16c-48.2 0-90.2 26.6-112 66-21.8-39.4-63.8-66-112-66-70.7 0-128 57.3-128 128zm304 0a48 48 0 1 1 96 0 48 48 0 1 1 -96 0zM128 64a48 48 0 1 1 0 96 48 48 0 1 1 0-96zM64 352l0 64c0 35.3 28.7 64 64 64l224 0c35.3 0 64-28.7 64-64l0-64c0-35.3-28.7-64-64-64l-224 0c-35.3 0-64 28.7-64 64zM537.5 490.8c4.2 3.4 9.4 5.2 14.8 5.2 13.1 0 23.7-10.6 23.7-23.7l0-240.6c0-13.1-10.6-23.7-23.7-23.7-5.4 0-10.6 1.8-14.8 5.2l-73.5 58.8 0 160 73.5 58.8z"/></svg>