<svg xmlns="http://www.w3.org/2000/svg" viewBox="0 0 576 512"><!--! Font Awesome Pro 7.0.0 by @fontawesome - https://fontawesome.com License - https://fontawesome.com/license (Commercial License) Copyright 2025 Fonticons, Inc. --><path fill="currentColor" d="M49.5-33l47 47 47-47c9.4-9.4 24.6-9.4 33.9 0s9.4 24.6 0 33.9l-64 64c-9.4 9.4-24.6 9.4-33.9 0L15.5 1C6.2-8.4 6.2-23.6 15.5-33s24.6-9.4 33.9 0zM171.2 96l10.4-31.2C188.1 45.2 206.4 32 227.1 32l122.8 0c20.7 0 39 13.2 45.5 32.8l10.4 31.2 74.7 0c35.3 0 64 28.7 64 64l0 256c0 35.3-28.7 64-64 64l-384 0c-35.3 0-64-28.7-64-64l0-256c0-35.3 28.7-64 64-64l74.7 0zM384.5 288a96 96 0 1 0 -192 0 96 96 0 1 0 192 0z"/></svg>