<svg xmlns="http://www.w3.org/2000/svg" viewBox="0 0 576 512"><!--! Font Awesome Pro 7.0.0 by @fontawesome - https://fontawesome.com License - https://fontawesome.com/license (Commercial License) Copyright 2025 Fonticons, Inc. --><path fill="currentColor" d="M157.1 7c-33.2-12.1-69.9 5-82 38.3L20.4 195.6c-12.1 33.2 5 69.9 38.3 82l93.7 34.1 0 8.3 0 96c0 4.4-3.6 8-8 8l-64 0 0-24c0-13.3-10.7-24-24-24s-24 10.7-24 24l0 96c0 13.3 10.7 24 24 24s24-10.7 24-24l0-24 64 0c30.9 0 56-25.1 56-56l0-86.8 66.2 24.1c10.9 4 23.1 1.7 31.9-5.9L491.9 179.5c18.4-16 12.9-45.9-10-54.2L157.1 7zM449.5 419.9c16.6 6 35-2.5 41-19.1l43.8-120.3c6-16.6-2.5-35-19.1-41l-13.6-4.9-165.9 143.9 113.8 41.4z"/></svg>