<svg xmlns="http://www.w3.org/2000/svg" viewBox="0 0 576 512"><!--! Font Awesome Pro 7.0.0 by @fontawesome - https://fontawesome.com License - https://fontawesome.com/license (Commercial License) Copyright 2025 Fonticons, Inc. --><path fill="currentColor" d="M393.1 371.6C307.4 273.8 270.4 138.4 259.5 59.2 257 41.7 265.9 24.8 282.7 19.1 310.5 9.7 356.3 0 419.2 0S528 9.7 555.8 19.1c16.8 5.7 25.7 22.5 23.2 40.1-11 79.1-47.9 214.5-133.6 312.4-13.9 15.9-38.3 15.9-52.3 0zm26.1-69.9c18.8-26.1 34.5-54.5 47.5-83.2-14.6-1.2-30.4-2-47.5-2s-32.9 .7-47.5 2c13 28.7 28.7 57 47.5 83.2zm0-184.8c31.4 0 58.6 2.4 81.4 6 4.7-17.6 8.4-34.3 11.3-49.7-22.1-5-53-9.3-92.7-9.3s-70.6 4.3-92.7 9.3c2.8 15.3 6.5 32.1 11.3 49.7 22.8-3.6 50-6 81.4-6zm-232.5 23c85.7 97.9 122.7 233.3 133.6 312.4 2.4 17.6-6.5 34.4-23.2 40.1-27.7 9.4-73.6 19.1-136.5 19.1S51.8 501.8 24.1 492.4c-16.8-5.7-25.7-22.5-23.2-40.1 11-79.1 47.9-214.5 133.6-312.4 13.9-15.9 38.3-15.9 52.3 0zm-26.1 69.9c-18.8 26.1-34.5 54.5-47.5 83.2 14.6 1.2 30.4 2 47.5 2s32.9-.7 47.5-2c-13-28.7-28.7-57-47.5-83.2zm0 184.8c-31.4 0-58.6-2.4-81.4-6-4.7 17.6-8.4 34.3-11.3 49.7 22.1 5 53 9.3 92.7 9.3s70.6-4.3 92.7-9.3c-2.8-15.3-6.5-32.1-11.3-49.7-22.8 3.6-50 6-81.4 6z"/></svg>