<svg xmlns="http://www.w3.org/2000/svg" viewBox="0 0 512 512"><!--! Font Awesome Pro 7.0.0 by @fontawesome - https://fontawesome.com License - https://fontawesome.com/license (Commercial License) Copyright 2025 Fonticons, Inc. --><path fill="currentColor" d="M39.6 196.8L74.8 96.3C88.3 57.8 124.6 32 165.4 32l181.2 0c40.8 0 77.1 25.8 90.6 64.3l35.2 100.5c23.2 9.6 39.6 32.5 39.6 59.2l0 192c0 17.7-14.3 32-32 32l-32 0c-17.7 0-32-14.3-32-32l0-32-320 0 0 32c0 17.7-14.3 32-32 32l-32 0c-17.7 0-32-14.3-32-32L0 256c0-26.7 16.4-49.6 39.6-59.2zM128 304a32 32 0 1 0 -64 0 32 32 0 1 0 64 0zm288 32a32 32 0 1 0 0-64 32 32 0 1 0 0 64zM184.5 224l45.5 0-24.4 78c-2.8 8.9 3.9 18 13.2 18 3.3 0 6.6-1.2 9.1-3.4l110.4-95.7c3.6-3.1 5.7-7.7 5.7-12.5 0-9.1-7.4-16.5-16.5-16.5l-45.5 0 24.4-78c2.8-8.9-3.9-18-13.2-18-3.3 0-6.6 1.2-9.1 3.4L173.7 195.1c-3.6 3.1-5.7 7.7-5.7 12.5 0 9.1 7.4 16.5 16.5 16.5z"/></svg>