<svg xmlns="http://www.w3.org/2000/svg" viewBox="0 0 640 512"><!--! Font Awesome Pro 7.0.0 by @fontawesome - https://fontawesome.com License - https://fontawesome.com/license (Commercial License) Copyright 2025 Fonticons, Inc. --><path fill="currentColor" d="M24-16C10.7-16 0-5.3 0 8S10.7 32 24 32l45.3 0c3.9 0 7.2 2.8 7.9 6.6l52.1 286.3c6.2 34.2 36 59.1 70.8 59.1l104.6 0c1.4-16.7 4.9-32.8 10.3-48l-114.9 0c-11.6 0-21.5-8.3-23.6-19.7L171.3 288 340 288c34.9-48.5 91.7-80 156-80 15.8 0 31.2 1.9 46 5.5L568.9 69.9C572.6 50.2 557.5 32 537.4 32l-412.7 0-.4-2c-4.8-26.6-28-46-55.1-46L24-16zM208 512a48 48 0 1 0 0-96 48 48 0 1 0 0 96zm288 32a144 144 0 1 0 0-288 144 144 0 1 0 0 288zm0-100a20 20 0 1 1 0 40 20 20 0 1 1 0-40zm0-140c8.8 0 16 7.2 16 16l0 80c0 8.8-7.2 16-16 16s-16-7.2-16-16l0-80c0-8.8 7.2-16 16-16z"/></svg>