<svg xmlns="http://www.w3.org/2000/svg" viewBox="0 0 576 512"><!--! Font Awesome Pro 7.0.0 by @fontawesome - https://fontawesome.com License - https://fontawesome.com/license (Commercial License) Copyright 2025 Fonticons, Inc. --><path fill="currentColor" d="M400 0c-17.7 0-32 14.3-32 32s14.3 32 32 32l28.8 0-109.4 87.5-108.2-81.1c-11.7-8.8-27.8-8.5-39.2 .6L12 199c-13.8 11-16 31.2-5 45s31.2 16 45 5l140.6-112.5 108.2 81.1c11.7 8.8 27.8 8.5 39.2-.6l140-112 0 39c0 17.7 14.3 32 32 32s32-14.3 32-32l0-112c0-17.7-14.3-32-32-32L400 0zM192 224c-17.7 0-32 14.3-32 32l0 192c0 17.7 14.3 32 32 32s32-14.3 32-32l0-192c0-17.7-14.3-32-32-32zM64 320c-17.7 0-32 14.3-32 32l0 96c0 17.7 14.3 32 32 32s32-14.3 32-32l0-96c0-17.7-14.3-32-32-32zM432 544a144 144 0 1 0 0-288 144 144 0 1 0 0 288zm0-240c8.8 0 16 7.2 16 16l0 8 16 0c8.8 0 16 7.2 16 16s-7.2 16-16 16l-45.8 0c-5.6 0-10.2 4.6-10.2 10.2 0 4.9 3.5 9.1 8.3 10l45 8.2c20 3.6 34.6 21.1 34.6 41.5 0 23.3-18.9 42.2-42.2 42.2l-5.8 0 0 8c0 8.8-7.2 16-16 16s-16-7.2-16-16l0-8-16 0c-8.8 0-16-7.2-16-16s7.2-16 16-16l53.8 0c5.6 0 10.2-4.6 10.2-10.2 0-4.9-3.5-9.1-8.3-10l-45-8.2c-20-3.6-34.6-21.1-34.6-41.5 0-22.6 17.7-41 40-42.1l0-8.1c0-8.8 7.2-16 16-16z"/></svg>