<svg xmlns="http://www.w3.org/2000/svg" viewBox="0 0 512 512"><!--! Font Awesome Pro 7.0.0 by @fontawesome - https://fontawesome.com License - https://fontawesome.com/license (Commercial License) Copyright 2025 Fonticons, Inc. --><path fill="currentColor" d="M32 32c17.7 0 32 14.3 32 32l0 336c0 8.8 7.2 16 16 16l400 0c17.7 0 32 14.3 32 32s-14.3 32-32 32L80 480c-44.2 0-80-35.8-80-80L0 64C0 46.3 14.3 32 32 32zM361.4 201.4L329 169c-15.1-15.1-4.4-41 17-41L456 128c13.3 0 24 10.7 24 24l0 110.1c0 21.4-25.9 32.1-41 17l-32.4-32.4-80 80c-12.5 12.5-32.8 12.5-45.3 0l-73.4-73.4-41.4 41.4c-12.5 12.5-32.8 12.5-45.3 0s-12.5-32.8 0-45.3l64-64c12.5-12.5 32.8-12.5 45.3 0l73.4 73.4 57.4-57.4z"/></svg>