<svg xmlns="http://www.w3.org/2000/svg" viewBox="0 0 512 512"><!--! Font Awesome Pro 7.0.0 by @fontawesome - https://fontawesome.com License - https://fontawesome.com/license (Commercial License) Copyright 2025 Fonticons, Inc. --><path fill="currentColor" d="M256 512a256 256 0 1 0 0-512 256 256 0 1 0 0 512zM152 136l88 0c39.8 0 72 32.2 72 72l0 56c0 13.3-10.7 24-24 24s-24-10.7-24-24l0-56c0-13.3-10.7-24-24-24l-64 0 0 168c0 13.3-10.7 24-24 24s-24-10.7-24-24l0-192c0-13.3 10.7-24 24-24zm232 24l0 144c0 39.8-32.2 72-72 72l-88 0c-6.4 0-12.5-2.5-17-7s-7-10.6-7-17l0-104c0-13.3 10.7-24 24-24s24 10.7 24 24l0 80 64 0c13.3 0 24-10.7 24-24l0-144c0-13.3 10.7-24 24-24s24 10.7 24 24z"/></svg>