<svg xmlns="http://www.w3.org/2000/svg" viewBox="0 0 512 512"><!--! Font Awesome Pro 7.0.0 by @fontawesome - https://fontawesome.com License - https://fontawesome.com/license (Commercial License) Copyright 2025 Fonticons, Inc. --><path fill="currentColor" d="M256 512a256 256 0 1 0 0-512 256 256 0 1 0 0 512zM240 120c0-8.8 7.2-16 16-16s16 7.2 16 16l0 9.1c58.7 7.8 104 58.1 104 118.9l0 96c0 13.3-10.7 24-24 24s-24-10.7-24-24l0-96c0-34.3-23.9-62.9-56-70.2L272 352c0 8.8-7.2 16-16 16s-16-7.2-16-16l0-174.2c-32.1 7.3-56 36-56 70.2l0 96c0 13.3-10.7 24-24 24s-24-10.7-24-24l0-96c0-60.8 45.3-111.1 104-118.9l0-9.1z"/></svg>