<svg xmlns="http://www.w3.org/2000/svg" viewBox="0 0 512 512"><!--! Font Awesome Pro 7.0.0 by @fontawesome - https://fontawesome.com License - https://fontawesome.com/license (Commercial License) Copyright 2025 Fonticons, Inc. --><path fill="currentColor" d="M256 512a256 256 0 1 0 0-512 256 256 0 1 0 0 512zM368 256l0 85.5c0 23.5-19 42.5-42.5 42.5l-139 0C163 384 144 365 144 341.5l0-85.5-9.7 0c-12.3 0-22.3-10-22.3-22.3 0-6.2 2.5-12 7-16.3L242.2 101.5C245.9 98 250.9 96 256 96s10.1 2 13.8 5.5L393 217.4c4.5 4.2 7 10.1 7 16.3 0 12.3-10 22.3-22.3 22.3l-9.7 0zM224 288l0 48 64 0 0-48c0-8.8-7.2-16-16-16l-32 0c-8.8 0-16 7.2-16 16z"/></svg>