<svg xmlns="http://www.w3.org/2000/svg" viewBox="0 0 512 512"><!--! Font Awesome Pro 7.0.0 by @fontawesome - https://fontawesome.com License - https://fontawesome.com/license (Commercial License) Copyright 2025 Fonticons, Inc. --><path fill="currentColor" d="M256 512a256 256 0 1 0 0-512 256 256 0 1 0 0 512zM224 96c8.8 0 16 7.2 16 16l0 16 16 0 0-16c0-8.8 7.2-16 16-16s16 7.2 16 16l0 16.9c36.3 5.8 64 37.2 64 75.1 0 16.2-5.1 31.3-13.8 43.7 18.1 13.9 29.8 35.8 29.8 60.3 0 42-34 76-76 76l-4 0 0 16c0 8.8-7.2 16-16 16s-16-7.2-16-16l0-16-16 0 0 16c0 8.8-7.2 16-16 16s-16-7.2-16-16l0-16-13.9 0c-14.4 0-26.1-11.7-26.1-26.1L168 152c0-13.3 10.7-24 24-24l16 0 0-16c0-8.8 7.2-16 16-16zm-8 80l0 56 60 0c15.5 0 28-12.5 28-28s-12.5-28-28-28l-60 0zm0 104l0 56 76 0c15.5 0 28-12.5 28-28s-12.5-28-28-28l-76 0z"/></svg>