<svg xmlns="http://www.w3.org/2000/svg" viewBox="0 0 448 512"><!--! Font Awesome Pro 7.0.0 by @fontawesome - https://fontawesome.com License - https://fontawesome.com/license (Commercial License) Copyright 2025 Fonticons, Inc. --><path fill="currentColor" d="M384 224a160 160 0 1 0 -320 0 160 160 0 1 0 320 0zM224 0C347.7 0 448 100.3 448 224l0 224c0 35.3-28.7 64-64 64L64 512c-35.3 0-64-28.7-64-64L0 224C0 100.3 100.3 0 224 0zm0 112c13.3 0 24 10.7 24 24l0 78.1 41 41c9.4 9.4 9.4 24.6 0 33.9s-24.6 9.4-33.9 0l-48-48c-4.5-4.5-7-10.6-7-17l0-88c0-13.3 10.7-24 24-24z"/></svg>