<svg xmlns="http://www.w3.org/2000/svg" viewBox="0 0 576 512"><!--! Font Awesome Pro 7.0.0 by @fontawesome - https://fontawesome.com License - https://fontawesome.com/license (Commercial License) Copyright 2025 Fonticons, Inc. --><path fill="currentColor" d="M288.5 147c6.6-82.3 75.5-147 159.5-147 12.2 0 24 1.4 35.4 3.9 6.2 1.4 10.8 6.5 11.6 12.8s-2.5 12.4-8.2 15.2c-37.8 18.9-63.8 57.9-63.8 103 0 63.5 51.5 115 115 115 3.1 0 6.2-.1 9.2-.4 6.3-.5 12.3 3 14.9 8.8s1.3 12.6-3.3 17C530.1 303 491 320 448 320l-1 0c-6.2-49.6-40.8-90.4-87-105.6-12.4-31-38.2-55.1-70.3-65.2-.4-.7-.8-1.5-1.2-2.2zM114 320l-42 0c-39.8 0-72-32.2-72-72s32.2-72 72-72c10.1 0 19.7 2.1 28.4 5.8 10.8-31.3 40.6-53.8 75.6-53.8 38.7 0 71 27.5 78.4 64 .5 0 1.1 0 1.6 0 17.1 0 32.6 6.7 44 17.5-25.4 4-48.3 15.4-66.4 32-5.8-1-11.7-1.5-17.7-1.5-49 0-90.1 33.9-101.1 79.5l-.9 .5zm62 192c-44.2 0-80-35.8-80-80 0-39 27.9-71.5 64.8-78.6-.5-3.1-.8-6.2-.8-9.4 0-30.9 25.1-56 56-56 12.4 0 23.9 4 33.1 10.8 13.4-25.5 40.1-42.8 70.9-42.8 44.2 0 80 35.8 80 80 0 7.4-1 14.6-2.9 21.5 29.8 11.6 50.9 40.6 50.9 74.5 0 44.2-35.8 80-80 80l-192 0z"/></svg>