<svg xmlns="http://www.w3.org/2000/svg" viewBox="0 0 384 512"><!--! Font Awesome Pro 7.0.0 by @fontawesome - https://fontawesome.com License - https://fontawesome.com/license (Commercial License) Copyright 2025 Fonticons, Inc. --><path fill="currentColor" d="M11.5 114.9l91-104C108.5 4 117.3 0 126.5 0l131 0c9.2 0 18 4 24.1 10.9l91 104c7.4 8.5 11.5 19.3 11.5 30.6 0 4.4-.6 8.7-1.8 12.9L286.7 488.9c-4 13.7-16.5 23.1-30.7 23.1l-127.9 0c-14.3 0-26.8-9.4-30.7-23.1L1.8 158.3c-1.2-4.2-1.8-8.5-1.8-12.9 0-11.2 4.1-22.1 11.5-30.6z"/></svg>