<svg xmlns="http://www.w3.org/2000/svg" viewBox="0 0 512 512"><!--! Font Awesome Pro 7.0.0 by @fontawesome - https://fontawesome.com License - https://fontawesome.com/license (Commercial License) Copyright 2025 Fonticons, Inc. --><path fill="currentColor" d="M0 208l0 96c0 29.1 19.4 55.9 52 77.3L52 295c11.7 8.7 25.1 16.6 40 23.6l0 83.7c23.5 9.8 50.5 17.5 80 22.7l0-80.9c12.9 2.5 26.3 4.5 40 5.8l0 80.2c14.3 1.2 29 1.9 44 1.9s29.7-.6 44-1.9l0-80.2c13.7-1.3 27.1-3.3 40-5.8l0 80.9c29.5-5.1 56.5-12.9 80-22.7l0-83.7c14.9-7 28.3-14.9 40-23.6l0 86.3c32.6-21.5 52-48.3 52-77.3l0-96c0-79.5-114.6-144-256-144S0 128.5 0 208zm256 96c-106 0-192-43-192-96s86-96 192-96 192 43 192 96-86 96-192 96z"/></svg>