<svg xmlns="http://www.w3.org/2000/svg" viewBox="0 0 512 512"><!--! Font Awesome Pro 7.1.0 by @fontawesome - https://fontawesome.com License - https://fontawesome.com/license (Commercial License) Copyright 2025 Fonticons, Inc. --><path fill="currentColor" d="M256 0C397.4 0 512 107.5 512 240S397.4 480 256 480c-37.1 0-72.3-7.4-104.1-20.7L33.5 510.1c-9.4 4-20.2 1.7-27.1-5.8S-2 485.8 2.8 476.8l48.8-92.2C19.2 344.3 0 294.3 0 240 0 107.5 114.6 0 256 0zm0 304a32 32 0 1 0 0 64 32 32 0 1 0 0-64zm0-192c-18.2 0-32.7 15.5-31.4 33.7l7.4 104c.9 12.6 11.4 22.3 23.9 22.3 12.6 0 23-9.7 23.9-22.3l7.4-104c1.3-18.2-13.1-33.7-31.4-33.7z"/></svg>