<svg xmlns="http://www.w3.org/2000/svg" viewBox="0 0 448 512"><!--! Font Awesome Pro 7.0.0 by @fontawesome - https://fontawesome.com License - https://fontawesome.com/license (Commercial License) Copyright 2025 Fonticons, Inc. --><path fill="currentColor" d="M0 48C0 21.5 21.5 0 48 0L400 0c26.5 0 48 21.5 48 48l0 320c0 26.5-21.5 48-48 48L48 416c-26.5 0-48-21.5-48-48L0 48zM32 480l0-16 384 0 0 16c0 17.7-14.3 32-32 32L64 512c-17.7 0-32-14.3-32-32zM96 64C78.3 64 64 78.3 64 96l0 128c0 17.7 14.3 32 32 32l256 0c17.7 0 32-14.3 32-32l0-128c0-17.7-14.3-32-32-32L96 64zM88 352a24 24 0 1 0 0-48 24 24 0 1 0 0 48zm136-24c0 13.3 10.7 24 24 24l112 0c13.3 0 24-10.7 24-24s-10.7-24-24-24l-112 0c-13.3 0-24 10.7-24 24z"/></svg>