<svg xmlns="http://www.w3.org/2000/svg" viewBox="0 0 640 512"><!--! Font Awesome Pro 7.0.0 by @fontawesome - https://fontawesome.com License - https://fontawesome.com/license (Commercial License) Copyright 2025 Fonticons, Inc. --><path fill="currentColor" d="M192 160l0-96-64 0c-17.7 0-32-14.3-32-32S110.3 0 128 0l64 0 0 0 64 0 0 0 64 0c17.7 0 32 14.3 32 32s-14.3 32-32 32l-64 0 0 64 135.4 0c.2 0 .4 0 .6 0l48 0c22.1 0 40 17.9 40 40l0 32c0 13.3-10.7 24-24 24s-24-10.7-24-24l0-8-208 0c-17.7 0-32-14.3-32-32zM416 280c0-13.3 10.7-24 24-24l48 0c13.3 0 24 10.7 24 24l0 40 32 0c53 0 96 43 96 96s-43 96-96 96L96 512c-53 0-96-43-96-96s43-96 96-96l0-40c0-13.3 10.7-24 24-24l48 0c13.3 0 24 10.7 24 24l0 40 64 0 0-40c0-13.3 10.7-24 24-24l48 0c13.3 0 24 10.7 24 24l0 40 64 0 0-40zM128 448a32 32 0 1 0 0-64 32 32 0 1 0 0 64zm224-32a32 32 0 1 0 -64 0 32 32 0 1 0 64 0zm160 32a32 32 0 1 0 0-64 32 32 0 1 0 0 64z"/></svg>