<svg xmlns="http://www.w3.org/2000/svg" viewBox="0 0 384 512"><!--! Font Awesome Pro 7.0.0 by @fontawesome - https://fontawesome.com License - https://fontawesome.com/license (Commercial License) Copyright 2025 Fonticons, Inc. --><path fill="currentColor" d="M178.5 25.6C185 1.1 207.2-16 232.6-16L264-16c13.3 0 24 10.7 24 24s-10.7 24-24 24l-31.4 0c-3.6 0-6.8 2.4-7.7 5.9L209.4 96 352 96c13.3 0 24 10.7 24 24s-10.7 24-24 24L32 144c-13.3 0-24-10.7-24-24S18.7 96 32 96l127.7 0 18.8-70.4zM50.1 352l-13.9-160 311.7 0c-7.1 82-13.1 150-24 276.2-2.2 24.8-22.9 43.8-47.8 43.8l-168 0c-24.9 0-45.7-19-47.8-43.8-4.2-48.8-7.6-87.5-10.1-116.2zM212 341.3C227.5 318 253.7 304 281.7 304l8.2 0 4.2-48-12.4 0c-44.1 0-85.2 22-109.7 58.7-15.5 23.3-41.7 37.3-69.7 37.3l-4 0 4.2 48c44 0 85.1-22.1 109.5-58.7z"/></svg>