<svg xmlns="http://www.w3.org/2000/svg" viewBox="0 0 384 512"><!--! Font Awesome Pro 7.0.0 by @fontawesome - https://fontawesome.com License - https://fontawesome.com/license (Commercial License) Copyright 2025 Fonticons, Inc. --><path fill="currentColor" d="M192-32c17.7 0 32 14.3 32 32l0 96 112 0c26.5 0 48 21.5 48 48s-21.5 48-48 48c-20.9 0-38.7-13.4-45.3-32L93.3 160c-6.6 18.6-24.4 32-45.3 32-26.5 0-48-21.5-48-48S21.5 96 48 96l112 0 0-96c0-17.7 14.3-32 32-32zM128 208l128 0 0 258.7c0 8.5-3.4 16.6-9.4 22.6l-43.3 43.3c-6.2 6.2-16.4 6.2-22.6 0l-43.3-43.3c-6-6-9.4-14.1-9.4-22.6L128 208z"/></svg>