<svg xmlns="http://www.w3.org/2000/svg" viewBox="0 0 512 512"><!--! Font Awesome Pro 7.0.0 by @fontawesome - https://fontawesome.com License - https://fontawesome.com/license (Commercial License) Copyright 2025 Fonticons, Inc. --><path fill="currentColor" d="M280 32l0 158.1 39-39c9.4-9.4 24.6-9.4 33.9 0s9.4 24.6 0 33.9l-80 80c-9.4 9.4-24.6 9.4-33.9 0l-80-80c-9.4-9.4-9.4-24.6 0-33.9s24.6-9.4 33.9 0l39 39 0-158.1c0-13.3 10.7-24 24-24s24 10.7 24 24zM64 32l112 0 0 64-80 0c-17.7 0-32 14.3-32 32l0 160c0 17.7 14.3 32 32 32l320 0c17.7 0 32-14.3 32-32l0-160c0-17.7-14.3-32-32-32l-80 0 0-64 112 0c35.3 0 64 28.7 64 64l0 256c0 35.3-28.7 64-64 64l-144 0 16 48 72 0c13.3 0 24 10.7 24 24s-10.7 24-24 24l-272 0c-13.3 0-24-10.7-24-24s10.7-24 24-24l72 0 16-48-144 0c-35.3 0-64-28.7-64-64L0 96C0 60.7 28.7 32 64 32z"/></svg>