<svg xmlns="http://www.w3.org/2000/svg" viewBox="0 0 576 512"><!--! Font Awesome Pro 7.0.0 by @fontawesome - https://fontawesome.com License - https://fontawesome.com/license (Commercial License) Copyright 2025 Fonticons, Inc. --><path fill="currentColor" d="M253.3 4.8c18.9-20 50.8-20 69.7 0L543 237.1c18.2 19.3 17.4 49.7-1.9 67.9L321.1 512.9c-18.5 17.5-47.4 17.5-65.9 0L35 305c-19.3-18.2-20.1-48.6-1.9-67.9L253.3 4.8zM288.1 60c-11 0-20 9-20 20l0 214.9-151.6-34.4-4-.5c-9.3-.2-17.8 6.2-19.9 15.6-2.1 9.4 2.8 18.8 11.2 22.7l3.8 1.3 160.4 36.4 0 96.1c0 11 9 20 20 20s20-9 20-20l0-96.1 160.4-36.4c10.8-2.5 17.5-13.2 15.1-23.9-2.5-10.8-13.2-17.5-23.9-15.1l-151.6 34.4 0-214.9c0-11-9-20-20-20z"/></svg>