<svg xmlns="http://www.w3.org/2000/svg" viewBox="0 0 576 512"><!--! Font Awesome Pro 7.0.0 by @fontawesome - https://fontawesome.com License - https://fontawesome.com/license (Commercial License) Copyright 2025 Fonticons, Inc. --><path fill="currentColor" d="M251.1 13.4c19.2-23.5 55.1-23.5 74.3 0L545 281.9c17.1 20.9 13.6 51.8-7.7 68.3L317.7 521.1c-17.3 13.5-41.6 13.5-58.9 0L39 350.2c-21.3-16.6-24.8-47.4-7.7-68.3L251.1 13.4zM288.2 92c-11 0-20 9-20 20l0 320c0 11 9 20 20 20 11 0 20-9 20-20l0-320c0-11-9-20-20-20z"/></svg>