<svg xmlns="http://www.w3.org/2000/svg" viewBox="0 0 512 512"><!--! Font Awesome Pro 7.0.0 by @fontawesome - https://fontawesome.com License - https://fontawesome.com/license (Commercial License) Copyright 2025 Fonticons, Inc. --><path fill="currentColor" d="M32 96c0-35.3 28.7-64 64-64l320 0c35.3 0 64 28.7 64 64l0 320c17.7 0 32 14.3 32 32s-14.3 32-32 32L32 480c-17.7 0-32-14.3-32-32s14.3-32 32-32L32 96zM224 256a32 32 0 1 1 64 0 32 32 0 1 1 -64 0zm192 0a160 160 0 1 0 -320 0 160 160 0 1 0 320 0z"/></svg>