<svg xmlns="http://www.w3.org/2000/svg" viewBox="0 0 512 512"><!--! Font Awesome Pro 7.0.0 by @fontawesome - https://fontawesome.com License - https://fontawesome.com/license (Commercial License) Copyright 2025 Fonticons, Inc. --><path fill="currentColor" d="M0 64C0 46.3 14.3 32 32 32l448 0c17.7 0 32 14.3 32 32s-14.3 32-32 32L32 96C14.3 96 0 81.7 0 64zM96 208c0-26.5 21.5-48 48-48l224 0c26.5 0 48 21.5 48 48l0 96c0 26.5-21.5 48-48 48l-224 0c-26.5 0-48-21.5-48-48l0-96zM32 416l448 0c17.7 0 32 14.3 32 32s-14.3 32-32 32L32 480c-17.7 0-32-14.3-32-32s14.3-32 32-32z"/></svg>