<svg xmlns="http://www.w3.org/2000/svg" viewBox="0 0 512 512"><!--! Font Awesome Pro 7.0.0 by @fontawesome - https://fontawesome.com License - https://fontawesome.com/license (Commercial License) Copyright 2025 Fonticons, Inc. --><path fill="currentColor" d="M361.4 9.4c12.5-12.5 32.8-12.5 45.3 0l96 96c9.2 9.2 11.9 22.9 6.9 34.9S492.9 160 480 160l-64 0 0 320c0 17.7-14.3 32-32 32s-32-14.3-32-32l0-320-64 0c-12.9 0-24.6-7.8-29.6-19.8s-2.2-25.7 6.9-34.9l96-96zm-256 493.3l-96-96c-9.2-9.2-11.9-22.9-6.9-34.9S19.1 352 32 352l64 0 0-320c0-17.7 14.3-32 32-32s32 14.3 32 32l0 320 64 0c12.9 0 24.6 7.8 29.6 19.8s2.2 25.7-6.9 34.9l-96 96c-12.5 12.5-32.8 12.5-45.3 0z"/></svg>