<svg xmlns="http://www.w3.org/2000/svg" viewBox="0 0 384 512"><!--! Font Awesome Pro 7.0.0 by @fontawesome - https://fontawesome.com License - https://fontawesome.com/license (Commercial License) Copyright 2025 Fonticons, Inc. --><path fill="currentColor" d="M384 32c0 17.7-14.3 32-32 32L32 64C14.3 64 0 49.7 0 32S14.3 0 32 0L352 0c17.7 0 32 14.3 32 32zM209 505c-9.4 9.4-24.6 9.4-33.9 0L31 361c-6.9-6.9-8.9-17.2-5.2-26.2S38.3 320 48 320l80 0 0-144c0-26.5 21.5-48 48-48l32 0c26.5 0 48 21.5 48 48l0 144 80 0c9.7 0 18.5 5.8 22.2 14.8s1.7 19.3-5.2 26.2L209 505z"/></svg>