<svg xmlns="http://www.w3.org/2000/svg" viewBox="0 0 384 512"><!--! Font Awesome Pro 7.0.0 by @fontawesome - https://fontawesome.com License - https://fontawesome.com/license (Commercial License) Copyright 2025 Fonticons, Inc. --><path fill="currentColor" d="M304 348c-12 8.6-22.3 19.7-27.8 33.4l-20.1 50.2C236.7 480.1 189.7 512 137.3 512l-9.3 0C57.3 512 0 454.7 0 384L0 192C0 86 86 0 192 0S384 86 384 192c0 64.2-31.5 121.1-80 156zM112 192c0-44.2 35.8-80 80-80s80 35.8 80 80l0 8c0 13.3 10.7 24 24 24s24-10.7 24-24l0-8c0-70.7-57.3-128-128-128S64 121.3 64 192l0 40c0 13.3 10.7 24 24 24l16 0c13.3 0 24 10.7 24 24s-10.7 24-24 24l-16 0c-13.3 0-24 10.7-24 24s10.7 24 24 24l16 0c39.8 0 72-32.2 72-72 0-37.1-28-67.6-64-71.6l0-16.4z"/></svg>