<svg xmlns="http://www.w3.org/2000/svg" viewBox="0 0 576 512"><!--! Font Awesome Pro 7.0.0 by @fontawesome - https://fontawesome.com License - https://fontawesome.com/license (Commercial License) Copyright 2025 Fonticons, Inc. --><path fill="currentColor" d="M376 80c13.3 0 24-10.7 24-24s-10.7-24-24-24L200 32c-13.3 0-24 10.7-24 24s10.7 24 24 24l64 0 0 48-120 0c-26.5 0-48 21.5-48 48l0 56-32 0 0-80c0-13.3-10.7-24-24-24s-24 10.7-24 24l0 208c0 13.3 10.7 24 24 24s24-10.7 24-24l0-80 32 0 0 56c0 26.5 21.5 48 48 48l37.3 0 23.7 35.5c11.9 17.8 31.9 28.5 53.3 28.5L384 448c35.3 0 64-28.7 64-64l0-192c0-35.3-28.7-64-64-64l-72 0 0-48 64 0zM496 184l0 208c0 13.3 10.7 24 24 24s24-10.7 24-24l0-208c0-13.3-10.7-24-24-24s-24 10.7-24 24zM328 240l-112 0c-13.3 0-24-10.7-24-24s10.7-24 24-24l112 0c13.3 0 24 10.7 24 24s-10.7 24-24 24z"/></svg>