<svg xmlns="http://www.w3.org/2000/svg" viewBox="0 0 640 512"><!--! Font Awesome Pro 7.0.0 by @fontawesome - https://fontawesome.com License - https://fontawesome.com/license (Commercial License) Copyright 2025 Fonticons, Inc. --><path fill="currentColor" d="M416 384c0-26.3-10.6-50.2-27.8-67.5L576 160 576 304 457.9 422.1c-6.4 6.4-9.9 15-9.9 24 0 18.7 15.2 33.9 33.9 33.9l78.1 0c44.2 0 80-35.8 80-80l0-321c0-26-21-47-47-47-11 0-21.6 3.9-30.1 10.9L384 192 302 55.3C293.3 40.8 277.7 32 260.8 32L176 32c-26.5 0-48 21.5-48 48l0 112-48 0c-26.5 0-48 21.5-48 48l0 72.4C12.4 330 0 355.6 0 384 0 437 43 480 96 480l224 0c53 0 96-43 96-96zM309.4 192l-117.4 0 0-96 59.8 0 57.6 96zM64 384c0-17.7 14.3-32 32-32l224 0c17.7 0 32 14.3 32 32s-14.3 32-32 32L96 416c-17.7 0-32-14.3-32-32z"/></svg>