<svg xmlns="http://www.w3.org/2000/svg" viewBox="0 0 640 512"><!--! Font Awesome Pro 7.0.0 by @fontawesome - https://fontawesome.com License - https://fontawesome.com/license (Commercial License) Copyright 2025 Fonticons, Inc. --><path fill="currentColor" d="M532-40c0-11 9-20 20-20l64 0c7.7 0 14.7 4.4 18 11.3s2.4 15.2-2.4 21.2L593.6 20 616 20c11 0 20 9 20 20s-9 20-20 20l-64 0c-7.7 0-14.7-4.4-18-11.3s-2.4-15.2 2.4-21.2l38-47.5-22.4 0c-11 0-20-9-20-20zM388 56c0-11 9-20 20-20l64 0c7.7 0 14.7 4.4 18 11.3s2.4 15.2-2.4 21.2l-38 47.5 22.4 0c11 0 20 9 20 20s-9 20-20 20l-64 0c-7.7 0-14.7-4.4-18-11.3s-2.4-15.2 2.4-21.2l38-47.5-22.4 0c-11 0-20-9-20-20zM364.4 3.8c-14.9 12.5-24.4 31.2-24.4 52.2 0 15 4.8 28.8 13 40-14.7 20.2-17.2 46.8-6.3 69.5 11.3 23.6 35.1 38.5 61.3 38.5l64 0c37.6 0 68-30.4 68-68 0-4.5-.4-8.8-1.3-13.1 23.6 38.8 37.3 84.3 37.3 133.1 0 141.4-114.6 256-256 256S64 397.4 64 256 178.6 0 320 0c15.1 0 30 1.3 44.4 3.8zM196 280c0-11-9-20-20-20s-20 9-20 20c0 33.1 26.9 60 60 60l16 0c33.1 0 60-26.9 60-60 0-11-9-20-20-20s-20 9-20 20-9 20-20 20l-16 0c-11 0-20-9-20-20zm212 20c-11 0-20-9-20-20s-9-20-20-20-20 9-20 20c0 33.1 26.9 60 60 60l16 0c33.1 0 60-26.9 60-60 0-11-9-20-20-20s-20 9-20 20-9 20-20 20l-16 0zM360 416a40 40 0 1 0 -80 0 40 40 0 1 0 80 0z"/></svg>