<svg xmlns="http://www.w3.org/2000/svg" viewBox="0 0 576 512"><!--! Font Awesome Pro 7.0.0 by @fontawesome - https://fontawesome.com License - https://fontawesome.com/license (Commercial License) Copyright 2025 Fonticons, Inc. --><path fill="currentColor" d="M288 512c141.4 0 256-114.6 256-256S429.4 0 288 0 32 114.6 32 256c0 16.4 1.5 32.4 4.5 47.9l160.4-32.1c44.8-9 84.3 30.5 75.3 75.3l-5 24.9 13.8 0 34.5-27.6c6.8-5.4 16.3-5.9 23.6-1l39.9 26.6 14.7-4.9c10.5-3.5 21.8 2.2 25.3 12.6s-2.2 21.8-12.6 25.3l-24 8c-5.9 2-12.3 1.1-17.4-2.3l-35.8-23.9-28.6 22.9c-3.5 2.8-8 4.4-12.5 4.4l-28.8 0-19.1 95.5c15.5 2.9 31.5 4.5 47.9 4.5zM157.8 164.3c-6.2-5.2-7.6-14.3-3.1-21.1s13.3-9.2 20.6-5.5l79.6 40c5.4 2.7 8.8 8.2 8.8 14.3s-3.4 11.6-8.8 14.3l-79.6 40c-7.3 3.6-16.1 1.3-20.6-5.5s-3.1-15.9 3.1-21.1L191 192 157.8 164.3zm263.6-21.1c4.5 6.8 3.1 15.9-3.1 21.1L385 192 418.2 219.7c6.2 5.2 7.6 14.3 3.1 21.1s-13.3 9.2-20.6 5.5l-79.6-40c-5.4-2.7-8.8-8.2-8.8-14.3s3.4-11.6 8.8-14.3l79.6-40c7.3-3.6 16.1-1.3 20.6 5.5zM48 416L37.5 478.9c-2.7 16.2 11.4 30.3 27.6 27.6L128 496 153 533.5c4.4 6.6 11.8 10.5 19.6 10.5 11.3 0 21-7.9 23.2-19l37.1-185.7c3.4-16.8-11.4-31.6-28.2-28.2L19 348.2c-11 2.2-19 11.9-19 23.2 0 7.9 3.9 15.3 10.5 19.7L48 416z"/></svg>