<svg xmlns="http://www.w3.org/2000/svg" viewBox="0 0 640 512"><!--! Font Awesome Pro 7.0.0 by @fontawesome - https://fontawesome.com License - https://fontawesome.com/license (Commercial License) Copyright 2025 Fonticons, Inc. --><path fill="currentColor" d="M360.7 508.8c-10.6-19.9-16.6-42.5-16.6-66.6l0-28c-7.8 1.2-15.8 1.8-24 1.8s-16.2-.6-24-1.8l0 28c0 24.1-6 46.8-16.6 66.6 13.2 2.1 26.8 3.2 40.6 3.2s27.4-1.1 40.6-3.2zM64.1 256c0 2.6 0 5.1 .1 7.7 24.6-20.4 61.1-19 84.2 4l34.9 34.9c11.7-13.8 29.3-22.6 48.8-22.6 35.3 0 64 28.7 64 64l0 21.4c7.7 1.7 15.8 2.6 24 2.6s16.3-.9 24-2.6l0-21.4c0-35.3 28.7-64 64-64 19.6 0 37.1 8.8 48.8 22.6l34.9-34.9c23-23 59.6-24.4 84.2-4 .1-2.6 .1-5.1 .1-7.7 0-141.4-114.6-256-256-256s-256 114.6-256 256zm148-48l0 8c0 11-9 20-20 20s-20-9-20-20l0-8c0-37.6 30.4-68 68-68s68 30.4 68 68l0 8c0 11-9 20-20 20s-20-9-20-20l0-8c0-15.5-12.5-28-28-28s-28 12.5-28 28zm188-28c-15.5 0-28 12.5-28 28l0 8c0 11-9 20-20 20s-20-9-20-20l0-8c0-37.6 30.4-68 68-68s68 30.4 68 68l0 8c0 11-9 20-20 20s-20-9-20-20l0-8c0-15.5-12.5-28-28-28zm-144 262.2l0-98.2c0-13.3-10.7-24-24-24s-24 10.7-24 24l0 30.3c0 3.6-4.3 5.4-6.8 2.8L120.1 296c-8.8-8.8-23.2-8.8-32 0s-8.8 23.2 0 32l48 48c4.4 4.4 4.4 11.6 0 16s-11.6 4.4-16 0l-64-64c-8.8-8.8-23.2-8.8-32 0s-8.8 23.2 0 32l64 64c4.4 4.4 4.4 11.6 0 16s-11.6 4.4-16 0l-32-32c-8.8-8.8-23.2-8.8-32 0s-8.8 23.2 0 32l74.2 74.2c19.1 19.1 45 29.8 72 29.8 56.2 0 101.8-45.6 101.8-101.8zm128 0c0 56.2 45.6 101.8 101.8 101.8 27 0 52.9-10.7 72-29.8L632.1 440c8.8-8.8 8.8-23.2 0-32s-23.2-8.8-32 0l-32 32c-4.4 4.4-11.6 4.4-16 0s-4.4-11.6 0-16l64-64c8.8-8.8 8.8-23.2 0-32s-23.2-8.8-32 0l-64 64c-4.4 4.4-11.6 4.4-16 0s-4.4-11.6 0-16l48-48c8.8-8.8 8.8-23.2 0-32s-23.2-8.8-32 0L439 377.2c-2.5 2.5-6.8 .7-6.8-2.8l0-30.3c0-13.3-10.7-24-24-24s-24 10.7-24 24l0 98.2z"/></svg>