<svg xmlns="http://www.w3.org/2000/svg" viewBox="0 0 512 512"><!--! Font Awesome Pro 7.0.0 by @fontawesome - https://fontawesome.com License - https://fontawesome.com/license (Commercial License) Copyright 2025 Fonticons, Inc. --><path fill="currentColor" d="M498.3 339.8c9.1-26.2 14-54.4 14-83.8 0-141.4-114.6-256-256-256S.3 114.6 .3 256c0 29.6 5 58.1 14.3 84.6 31.3-22.2 73.8-21.5 104.4 2.1L156.8 320c19.8-11.9 45.1-8.7 61.4 7.6s19.4 41.6 7.6 61.4l-22.6 37.7c18.3 23.8 22.8 54.9 13.5 82.2 13 2 26.2 3.1 39.7 3.1 14 0 27.7-1.1 41.1-3.3-9.3-27.3-4.8-58.2 13.5-82L288.4 389c-11.9-19.8-8.7-45.1 7.6-61.4s41.6-19.4 61.4-7.6L395 342.7c30.2-23.3 72.1-24.2 103.3-2.9zM120.3 224l80 0c13.3 0 24 10.7 24 24s-10.7 24-24 24l-80 0c-13.3 0-24-10.7-24-24s10.7-24 24-24zm192 0l80 0c13.3 0 24 10.7 24 24s-10.7 24-24 24l-80 0c-13.3 0-24-10.7-24-24s10.7-24 24-24zm73.9-88.9c4.9 9.9 .9 21.9-8.9 26.8l-64 32c-9.9 4.9-21.9 .9-26.8-8.9s-.9-21.9 8.9-26.8l64-32c9.9-4.9 21.9-.9 26.8 8.9zM135.4 161.9c-9.9-4.9-13.9-17-8.9-26.8s17-13.9 26.8-8.9l64 32c9.9 4.9 13.9 17 8.9 26.8s-17 13.9-26.8 8.9l-64-32zM493.9 435.1c-.6-.6-1.3-1.3-2-1.9 8.6-17.8 5.4-39.9-9.4-54.7-18.7-18.7-49.1-18.7-67.9 0-4.8 4.8-8.3 10.3-10.7 16.2l-67.3-40.4c-4-2.4-9.2-1.8-12.5 1.5s-4 8.5-1.5 12.5L363 435.7c-5.9 2.3-11.4 5.9-16.2 10.7-18.7 18.7-18.7 49.1 0 67.9 14.8 14.8 36.8 17.9 54.7 9.4 .6 .7 1.2 1.3 1.9 2 25 25 65.5 25 90.5 0s25-65.5 0-90.5zM22.2 433.2c-.7 .6-1.3 1.2-2 1.9-25 25-25 65.5 0 90.5s65.5 25 90.5 0c.6-.6 1.3-1.3 1.9-2 17.9 8.6 39.9 5.4 54.7-9.4 18.7-18.7 18.7-49.1 0-67.9-4.8-4.8-10.3-8.3-16.2-10.7l40.4-67.3c2.4-4 1.8-9.2-1.5-12.5s-8.5-4-12.5-1.5l-67.3 40.4c-2.3-5.9-5.9-11.4-10.7-16.2-18.7-18.7-49.1-18.7-67.9 0-14.8 14.8-17.9 36.8-9.4 54.7z"/></svg>