<svg xmlns="http://www.w3.org/2000/svg" viewBox="0 0 512 512"><!--! Font Awesome Pro 7.0.0 by @fontawesome - https://fontawesome.com License - https://fontawesome.com/license (Commercial License) Copyright 2025 Fonticons, Inc. --><path fill="currentColor" d="M128.1 0a64 64 0 1 1 0 128 64 64 0 1 1 0-128zm-32 160l64 0c.4 0 .9 0 1.3 0-.9 5.2-1.3 10.5-1.3 16 0 21.6 7.1 41.6 19.2 57.6-31.1 23.4-51.2 60.5-51.2 102.4l0 16c0 30.5 12.2 58.2 32 78.4l0 49.6c0 9.6 1.7 18.8 4.8 27.3-6.3 3-13.3 4.7-20.8 4.7l-32 0c-26.5 0-48-21.5-48-48l0-120.6c-19.1-11.1-32-31.7-32-55.4l0-64c0-35.3 28.7-64 64-64zm272 352c-7.4 0-14.5-1.7-20.8-4.7 3.1-8.5 4.8-17.7 4.8-27.3l0-49.6c19.8-20.2 32-47.8 32-78.4l0-16c0-41.9-20.1-79-51.2-102.4 12.1-16 19.2-36 19.2-57.6 0-3.2-.2-6.4-.5-9.5 10.1-4.2 21.1-6.5 32.5-6.5 37.9 0 71.2 25.1 81.6 61.5l34.8 121.7c5.8 20.4-9.5 40.8-30.8 40.8l-21.6 0 0 80c0 26.5-21.5 48-48 48l-32 0zm16-512a64 64 0 1 1 0 128 64 64 0 1 1 0-128zm-128 128a48 48 0 1 1 0 96 48 48 0 1 1 0-96zm0 128c44.2 0 80 35.8 80 80l0 16c0 23.7-12.9 44.4-32 55.4l0 72.6c0 17.7-14.3 32-32 32l-32 0c-17.7 0-32-14.3-32-32l0-72.6c-19.1-11.1-32-31.7-32-55.4l0-16c0-44.2 35.8-80 80-80z"/></svg>