<svg xmlns="http://www.w3.org/2000/svg" viewBox="0 0 512 512"><!--! Font Awesome Pro 7.0.0 by @fontawesome - https://fontawesome.com License - https://fontawesome.com/license (Commercial License) Copyright 2025 Fonticons, Inc. --><path fill="currentColor" d="M432 544a80 80 0 1 1 0-160 80 80 0 1 1 0 160zm-2.9-345.5L264.9 447.1C238.2 487.6 192.9 512 144.4 512 64.7 512 0 447.3 0 367.6L0 344c0-30.9 25.1-56 56-56s56 25.1 56 56l0 23.6c0 17.9 14.5 32.4 32.4 32.4 10.9 0 21.1-5.5 27.1-14.6l162.6-246.3 95 59.4zM409.3 25.2C426.3-.7 461-7.8 486.9 9.2S519.8 61 502.8 86.8l-47.2 71.6-95-59.4 48.8-73.9z"/></svg>