<svg xmlns="http://www.w3.org/2000/svg" viewBox="0 0 576 512"><!--! Font Awesome Pro 7.0.0 by @fontawesome - https://fontawesome.com License - https://fontawesome.com/license (Commercial License) Copyright 2025 Fonticons, Inc. --><path fill="currentColor" d="M96 32c0-17.7 14.3-32 32-32l96 0c17.7 0 32 14.3 32 32l64 0c17.7 0 32 14.3 32 32s-14.3 32-32 32l0 352c17.7 0 32 14.3 32 32s-14.3 32-32 32L32 512c-17.7 0-32-14.3-32-32s14.3-32 32-32L32 96C14.3 96 0 81.7 0 64S14.3 32 32 32l64 0zm448 80c17.7 0 32 14.3 32 32l0 144c0 17.7-14.3 32-32 32s-32 14.3-32 32l0 48c0 17.7-14.3 32-32 32l-112 0 0-48 32 0c8.8 0 16-7.2 16-16l0-32c0-8.8-7.2-16-16-16l-32 0 0-96 32 0c8.8 0 16-7.2 16-16l0-32c0-8.8-7.2-16-16-16l-32 0 0-48 176 0zM96 136l0 272c0 13.3 10.7 24 24 24s24-10.7 24-24l0-272c0-13.3-10.7-24-24-24s-24 10.7-24 24zm384 24c-8.8 0-16 7.2-16 16l0 32c0 8.8 7.2 16 16 16l32 0c8.8 0 16-7.2 16-16l0-32c0-8.8-7.2-16-16-16l-32 0z"/></svg>