<svg xmlns="http://www.w3.org/2000/svg" viewBox="0 0 576 512"><!--! Font Awesome Pro 7.0.0 by @fontawesome - https://fontawesome.com License - https://fontawesome.com/license (Commercial License) Copyright 2025 Fonticons, Inc. --><path fill="currentColor" d="M1.8 78.8C5.5 69.8 14.3 64 24 64l336 0c9.7 0 18.5 5.8 22.2 14.8s1.7 19.3-5.2 26.2l-129 129 0 190.1c0 9.7-5.8 18.5-14.8 22.2s-19.3 1.7-26.2-5.2l-64-64c-4.5-4.5-7-10.6-7-17L136 233.9 7 105C.2 98.1-1.9 87.8 1.8 78.8zM448 96c0-17.7 14.3-32 32-32l32 0c17.7 0 32 14.3 32 32s-14.3 32-32 32l-32 0c-17.7 0-32-14.3-32-32zM320 256c0-17.7 14.3-32 32-32l160 0c17.7 0 32 14.3 32 32s-14.3 32-32 32l-160 0c-17.7 0-32-14.3-32-32zm0 160c0-17.7 14.3-32 32-32l160 0c17.7 0 32 14.3 32 32s-14.3 32-32 32l-160 0c-17.7 0-32-14.3-32-32z"/></svg>