<svg xmlns="http://www.w3.org/2000/svg" viewBox="0 0 576 512"><!--! Font Awesome Pro 7.0.0 by @fontawesome - https://fontawesome.com License - https://fontawesome.com/license (Commercial License) Copyright 2025 Fonticons, Inc. --><path fill="currentColor" d="M0 64C0 46.3 14.3 32 32 32l512 0c17.7 0 32 14.3 32 32l0 32c0 17.7-14.3 32-32 32l0 352c0 17.7-14.3 32-32 32l-32 0 0-160c0-106-86-192-192-192S96 246 96 352l0 160-32 0c-17.7 0-32-14.3-32-32l0-352C14.3 128 0 113.7 0 96L0 64zM309 263.5l10-11.3c4.4-5 10.9-7.2 17.1-7.2 5.9 0 11.7 2.1 16.3 6.4 16.1 15 32.6 35.4 45 57.8 12.4 22.3 21.4 47.6 21.4 72.1 0 72.6-58.4 130.8-130.9 130.8-73.3 0-130.9-58.3-130.9-130.8 0-30.5 13.1-60 30.1-85.5 17.1-25.6 38.9-48.3 58-65.6 4.7-4.2 10.7-6.3 16.6-6.1s10.9 2.6 15.4 6.1c11.8 9.3 31.8 33.3 31.8 33.3zm31.3 157c0-29.9-30.3-59.7-44.8-72.3-4.4-3.8-10.7-3.8-15.1 0-14.5 12.6-44.8 42.5-44.8 72.3 0 28.9 23.4 52.4 52.4 52.4s52.4-23.4 52.4-52.4z"/></svg>