<svg xmlns="http://www.w3.org/2000/svg" viewBox="0 0 576 512"><!--! Font Awesome Pro 7.0.0 by @fontawesome - https://fontawesome.com License - https://fontawesome.com/license (Commercial License) Copyright 2025 Fonticons, Inc. --><path fill="currentColor" d="M320 64c120 0 256 128 256 192S440 448 320 448c-74.8 0-155.9-49.8-206.3-102.8-6-6.3-15.8-7.2-22.5-1.7L26.1 396.4c-5.3 4.3-12.9 4.8-18.7 1.1s-8.6-10.7-6.9-17.4L30.5 259.9c.6-2.6 .6-5.2 0-7.8L.5 131.9c-1.6-6.5 .9-13.2 6.4-17s12.7-3.8 18.2 0l72 49.5c6.6 4.5 15.5 3.5 21.1-2.2 50.7-51.2 129.1-98.1 201.8-98.1zm1 79c-9.4-9.4-24.6-9.4-33.9 0l-64 64c-9.4 9.4-9.4 24.6 0 33.9s24.6 9.4 33.9 0l64-64c9.4-9.4 9.4-24.6 0-33.9zm112 16c-9.4-9.4-24.6-9.4-33.9 0L239 319c-9.4 9.4-9.4 24.6 0 33.9s24.6 9.4 33.9 0L433 193c9.4-9.4 9.4-24.6 0-33.9zm16 112c-9.4-9.4-24.6-9.4-33.9 0l-64 64c-9.4 9.4-9.4 24.6 0 33.9s24.6 9.4 33.9 0l64-64c9.4-9.4 9.4-24.6 0-33.9z"/></svg>