<svg xmlns="http://www.w3.org/2000/svg" viewBox="0 0 576 512"><!--! Font Awesome Pro 7.0.0 by @fontawesome - https://fontawesome.com License - https://fontawesome.com/license (Commercial License) Copyright 2025 Fonticons, Inc. --><path fill="currentColor" d="M288 0L128 0C110.3 0 96 14.3 96 32s14.3 32 32 32L128 215.5 7.5 426.3C2.6 435 0 444.7 0 454.7 0 486.4 25.6 512 57.3 512l193.4 0c-1-1.5-2-3.1-2.9-4.7l-22.5-40.4c-15.4-27.6-10.8-61 9.4-83.4-15.5-17.2-21.9-40.9-17-63.5l-75.7 0 41.6-72.7c5.5-9.7 8.4-20.6 8.4-31.8l0-151.5 64 0 0 151.5c0 9.2 2 18.2 5.8 26.6 16.7-15.5 39.9-22.1 62.3-17.9l.4-1-4.4-7.7 0-151.5c17.7 0 32-14.3 32-32S337.7 0 320 0L288 0zm80.2 247.6l0 5.9c0 19-24.2 33-40.7 23.5l-4.8-2.8c-11.6-6.7-26.4-2.6-32.9 9.1l-22.5 40.3c-6.3 11.2-2.6 25.3 8.3 32.1l4.5 2.8c16.3 10.1 16.2 40.1 0 50.2l-4.4 2.7c-10.9 6.8-14.6 20.9-8.3 32.1l22.5 40.4c6.5 11.7 21.4 15.8 33 9.1l4.8-2.8c16.5-9.5 40.7 4.5 40.7 23.5l0 5.9c0 13.3 10.7 24 24 24l48 0c13.3 0 24-10.7 24-24l0-6.1c0-18.9 24.1-32.8 40.5-23.4l4.9 2.9c11.6 6.7 26.5 2.6 33-9.1l22.4-40.4c6.2-11.2 2.5-25.3-8.3-32l-4.6-2.9c-16.2-10.1-16.2-39.9 0-50.1l4.7-2.9c10.8-6.8 14.4-20.8 8.2-32l-22.4-40.2c-6.5-11.7-21.4-15.8-33-9.1l-5 2.9c-16.4 9.5-40.5-4.5-40.5-23.4l0-6.1c0-13.3-10.7-24-24-24l-48 0c-13.3 0-24 10.7-24 24zm-4.1 136.2a52 52 0 1 1 104 0 52 52 0 1 1 -104 0z"/></svg>