<svg xmlns="http://www.w3.org/2000/svg" viewBox="0 0 448 512"><!--! Font Awesome Pro 7.0.0 by @fontawesome - https://fontawesome.com License - https://fontawesome.com/license (Commercial License) Copyright 2025 Fonticons, Inc. --><path fill="currentColor" d="M288-8c48.6 0 88 39.4 88 88 0 25.3-10.7 48-27.8 64 17 16 27.8 38.7 27.8 64 0 48.6-39.4 88-88 88-11.3 0-22.1-2.3-32-6.2l0 105c31.8-45.3 84.5-74.8 144-74.8l18.5 0c16.3 0 29.5 13.2 29.5 29.5 0 89.7-72.7 162.5-162.5 162.5l-123.1 0C72.7 512 0 439.3 0 349.5 0 333.2 13.2 320 29.5 320L48 320c59.5 0 112.2 29.6 144 74.8l0-105c-9.9 3.9-20.7 6.2-32 6.2-48.6 0-88-39.4-88-88 0-25.2 10.7-48 27.7-64-17-16-27.7-38.8-27.7-64 0-48.6 39.4-88 88-88 25.2 0 48 10.7 64 27.7 16-17 38.8-27.7 64-27.7zM224 96a48 48 0 1 0 0 96 48 48 0 1 0 0-96z"/></svg>