<svg xmlns="http://www.w3.org/2000/svg" viewBox="0 0 640 512"><!--! Font Awesome Pro 7.0.0 by @fontawesome - https://fontawesome.com License - https://fontawesome.com/license (Commercial License) Copyright 2025 Fonticons, Inc. --><path fill="currentColor" d="M192 64c0-35.3 28.7-64 64-64L416 0c35.3 0 64 28.7 64 64l0 192 16 0c35.3 0 64 28.7 64 64l0 32c0 8.8 7.2 16 16 16s16-7.2 16-16l0-130c-27.6-7.1-48-32.2-48-62l0-59.5-25.8-28.3c-8.9-9.8-8.2-25 1.6-33.9s25-8.2 33.9 1.6l71.7 78.8c9.4 10.3 14.6 23.7 14.6 37.7L640 352c0 35.3-28.7 64-64 64s-64-28.7-64-64l0-32c0-8.8-7.2-16-16-16l-16 0 0 160c0 26.5-21.5 48-48 48l-192 0c-26.5 0-48-21.5-48-48l0-400zm64 16l0 96c0 8.8 7.2 16 16 16l128 0c8.8 0 16-7.2 16-16l0-96c0-8.8-7.2-16-16-16L272 64c-8.8 0-16 7.2-16 16zM99.1 164.2c3.2-2.7 7.2-4.2 11.3-4.2 9.7 0 17.6 7.9 17.6 17.6l0 156.9c0 9.7-7.9 17.6-17.6 17.6-4.2 0-8.2-1.5-11.3-4.2l-93-78.7C2.2 265.9 0 261.1 0 256s2.2-9.9 6.1-13.2l93-78.7z"/></svg>