<svg xmlns="http://www.w3.org/2000/svg" viewBox="0 0 576 512"><!--! Font Awesome Pro 7.0.0 by @fontawesome - https://fontawesome.com License - https://fontawesome.com/license (Commercial License) Copyright 2025 Fonticons, Inc. --><path fill="currentColor" d="M41-24.9c-9.4-9.4-24.6-9.4-33.9 0S-2.3-.3 7 9.1l528 528c9.4 9.4 24.6 9.4 33.9 0s9.4-24.6 0-33.9l-63.4-63.4C528.4 427.6 544 403.6 544 376l0-219.6c0-13.9-5.2-27.4-14.6-37.7L457.8 39.9c-8.9-9.8-24.1-10.5-33.9-1.6s-10.5 24.1-1.6 33.9l25.8 28.3 0 59.5c0 29.8 20.4 54.9 48 62l0 154c0 13.3-10.7 24-24 24L465.8 400 352 286.2 352 64c0-35.3-28.7-64-64-64L128 0C110.8 0 95.2 6.8 83.7 17.8L41-24.9zm92.7 92.7c2.8-2.4 6.4-3.8 10.4-3.8l128 0c8.8 0 16 7.2 16 16l0 96c0 8.8-7.2 16-16 16l-14.2 0-124.2-124.2zM64 465.4c-9.3 3.3-16 12.2-16 22.6 0 13.3 10.7 24 24 24l272 0c13.3 0 24-10.7 24-24 0-10.5-6.7-19.3-16-22.6l0-43.5-288-288 0 331.5z"/></svg>