<svg xmlns="http://www.w3.org/2000/svg" viewBox="0 0 640 512"><!--! Font Awesome Pro 7.0.0 by @fontawesome - https://fontawesome.com License - https://fontawesome.com/license (Commercial License) Copyright 2025 Fonticons, Inc. --><path fill="currentColor" d="M288 0c126.8 0 232.1 92.2 252.4 213.2-14.3-3.4-29.1-5.2-44.4-5.2-70.9 0-132.8 38.4-166.1 95.6-5.3-4.6-11.3-8.3-17.9-11L312 120c0-13.3-10.7-24-24-24s-24 10.7-24 24l0 172.7c-23.5 9.5-40 32.5-40 59.3 0 35.3 28.7 64 64 64 5.7 0 11.2-.7 16.5-2.1 2.5 34.5 14 66.4 32.3 93.5-15.8 3-32.1 4.6-48.8 4.6-141.4 0-256-114.6-256-256S146.6 0 288 0zM176 176a32 32 0 1 0 0-64 32 32 0 1 0 0 64zm-16 80a32 32 0 1 0 -64 0 32 32 0 1 0 64 0zM432 144a32 32 0 1 0 -64 0 32 32 0 1 0 64 0zM352 400a144 144 0 1 1 288 0 144 144 0 1 1 -288 0zm177.4-77c-5.8-4.2-13.8-4-19.4 .5l-80 64c-5.3 4.2-7.4 11.4-5.1 17.8S433.2 416 440 416l32.9 0-15.9 42.4c-2.5 6.7-.2 14.3 5.6 18.6s13.8 4 19.4-.5l80-64c5.3-4.2 7.4-11.4 5.1-17.8S558.8 384 552 384l-32.9 0 15.9-42.4c2.5-6.7 .2-14.3-5.6-18.6z"/></svg>