<svg xmlns="http://www.w3.org/2000/svg" viewBox="0 0 512 512"><!--! Font Awesome Pro 7.0.0 by @fontawesome - https://fontawesome.com License - https://fontawesome.com/license (Commercial License) Copyright 2025 Fonticons, Inc. --><path fill="currentColor" d="M139.4-28.4c7.1-4.4 15.9-4.8 23.3-1.1l208 104c8.1 4.1 13.3 12.4 13.3 21.5 0 8-3.9 15.3-10.4 19.8l-2.9 1.7-194.7 97.3 0 78.8c25.2-3.6 52.1-5.6 80-5.6 141.4 0 256 50.1 256 112S397.4 512 256 512 0 461.9 0 400c0-41.5 51.5-77.6 128-97l0-95c0-1.4 .1-2.7 .3-4-.2-1.3-.3-2.6-.3-4l0-208 .2-3.1c.9-7.1 5-13.5 11.2-17.3zM224 352c-35.3 0-64 14.3-64 32s28.7 32 64 32 64-14.3 64-32-28.7-32-64-32z"/></svg>