<svg xmlns="http://www.w3.org/2000/svg" viewBox="0 0 576 512"><!--! Font Awesome Pro 7.0.0 by @fontawesome - https://fontawesome.com License - https://fontawesome.com/license (Commercial License) Copyright 2025 Fonticons, Inc. --><path fill="currentColor" d="M515.8-15.1c8.3-15.6 27.7-21.5 43.3-13.2S580.6-.5 572.3 15.1L329.8 469.7c-13.9 26.1-41.1 42.3-70.6 42.3L64 512c-17.7 0-32-14.3-32-32l0-24 44 0c11 0 20-9 20-20s-9-20-20-20l-44 0 0-32 44 0c11 0 20-9 20-20s-9-20-20-20l-44 0 0-24 .2-3.7c1-8.5 5.3-16.3 12.1-21.6 7.8-6.1 17.9-8.2 27.4-5.8L320.5 351.1 515.8-15.1z"/></svg>