<svg xmlns="http://www.w3.org/2000/svg" viewBox="0 0 384 512"><!--! Font Awesome Pro 7.0.0 by @fontawesome - https://fontawesome.com License - https://fontawesome.com/license (Commercial License) Copyright 2025 Fonticons, Inc. --><path fill="currentColor" d="M149.7-18.3c-4.3-9.1-13.9-14.5-23.9-13.6s-18.4 8-21 17.8l-72 272c-2.6 9.7 1.2 20 9.4 25.8s19.2 5.8 27.4 .1c93.7-64.5 182.7-70.6 233.4-67 11.9 .8 21.9 9.5 24.4 23.4 .4 2.3 .6 4.7 .6 7 0 22.1-18.8 40.8-40.8 40.8L184 288c-13.3 0-24 10.7-24 24s10.7 24 24 24l103.2 0c49.1 0 88.8-39.8 88.8-88.8 0-40.8-27.2-74.2-59.7-90.6-45.7-23.1-118.4-73.5-166.6-174.9zM64 384c-17.7 0-32 14.3-32 32l0 32c-17.7 0-32 14.3-32 32s14.3 32 32 32l320 0c17.7 0 32-14.3 32-32s-14.3-32-32-32l0-32c0-17.7-14.3-32-32-32L64 384z"/></svg>