<svg xmlns="http://www.w3.org/2000/svg" viewBox="0 0 448 512"><!--! Font Awesome Pro 7.0.0 by @fontawesome - https://fontawesome.com License - https://fontawesome.com/license (Commercial License) Copyright 2025 Fonticons, Inc. --><path fill="currentColor" d="M64 32C28.7 32 0 60.7 0 96L0 416c0 35.3 28.7 64 64 64l320 0c35.3 0 64-28.7 64-64l0-320c0-35.3-28.7-64-64-64L64 32zm0 64l40 0 0 136-40 0 0-136zm0 184l40 0 0 136-40 0 0-136zm88 136l0-136 48 0 0 136-48 0zm96 0l0-136 48 0 0 136-48 0zm96 0l0-136 40 0 0 136-40 0zm40-184l-40 0 0-136 40 0 0 136zM296 96l0 136-48 0 0-136 48 0zm-96 0l0 136-48 0 0-136 48 0z"/></svg>