<svg xmlns="http://www.w3.org/2000/svg" viewBox="0 0 448 512"><!--! Font Awesome Pro 7.0.0 by @fontawesome - https://fontawesome.com License - https://fontawesome.com/license (Commercial License) Copyright 2025 Fonticons, Inc. --><path fill="currentColor" d="M0 64C0 46.3 14.3 32 32 32l48 0c17.7 0 32 14.3 32 32l0 48c0 17.7-14.3 32-32 32l-48 0c-17.7 0-32-14.3-32-32L0 64zM0 232c0-17.7 14.3-32 32-32l48 0c17.7 0 32 14.3 32 32l0 48c0 17.7-14.3 32-32 32l-48 0c-17.7 0-32-14.3-32-32l0-48zM112 400l0 48c0 17.7-14.3 32-32 32l-48 0c-17.7 0-32-14.3-32-32l0-48c0-17.7 14.3-32 32-32l48 0c17.7 0 32 14.3 32 32zM168 64c0-17.7 14.3-32 32-32l48 0c17.7 0 32 14.3 32 32l0 48c0 17.7-14.3 32-32 32l-48 0c-17.7 0-32-14.3-32-32l0-48zM280 232l0 48c0 17.7-14.3 32-32 32l-48 0c-17.7 0-32-14.3-32-32l0-48c0-17.7 14.3-32 32-32l48 0c17.7 0 32 14.3 32 32zM168 400c0-17.7 14.3-32 32-32l48 0c17.7 0 32 14.3 32 32l0 48c0 17.7-14.3 32-32 32l-48 0c-17.7 0-32-14.3-32-32l0-48zM448 64l0 48c0 17.7-14.3 32-32 32l-48 0c-17.7 0-32-14.3-32-32l0-48c0-17.7 14.3-32 32-32l48 0c17.7 0 32 14.3 32 32zM336 232c0-17.7 14.3-32 32-32l48 0c17.7 0 32 14.3 32 32l0 48c0 17.7-14.3 32-32 32l-48 0c-17.7 0-32-14.3-32-32l0-48zM448 400l0 48c0 17.7-14.3 32-32 32l-48 0c-17.7 0-32-14.3-32-32l0-48c0-17.7 14.3-32 32-32l48 0c17.7 0 32 14.3 32 32z"/></svg>