<svg xmlns="http://www.w3.org/2000/svg" viewBox="0 0 512 512"><!--! Font Awesome Pro 7.0.0 by @fontawesome - https://fontawesome.com License - https://fontawesome.com/license (Commercial License) Copyright 2025 Fonticons, Inc. --><path fill="currentColor" d="M32 64c17.7 0 32 14.3 32 32l0 128 96 0 0-128c0-17.7 14.3-32 32-32s32 14.3 32 32l0 320c0 17.7-14.3 32-32 32s-32-14.3-32-32l0-128-96 0 0 128c0 17.7-14.3 32-32 32S0 433.7 0 416L0 96C0 78.3 14.3 64 32 64zm352 64c-17.7 0-32 14.3-32 32l0 53.5c10-3.5 20.8-5.5 32-5.5l32 0c53 0 96 43 96 96l0 48c0 53-43 96-96 96l-32 0c-53 0-96-43-96-96l0-192c0-53 43-96 96-96l64 0c17.7 0 32 14.3 32 32s-14.3 32-32 32l-64 0zM352 304l0 48c0 17.7 14.3 32 32 32l32 0c17.7 0 32-14.3 32-32l0-48c0-17.7-14.3-32-32-32l-32 0c-17.7 0-32 14.3-32 32z"/></svg>