<svg xmlns="http://www.w3.org/2000/svg" viewBox="0 0 448 512"><!--! Font Awesome Pro 7.0.0 by @fontawesome - https://fontawesome.com License - https://fontawesome.com/license (Commercial License) Copyright 2025 Fonticons, Inc. --><path fill="currentColor" d="M96 128l-52.2 0c-6.5 0-11.8-5.3-11.8-11.8 0-3.9 1.9-7.5 5.1-9.7L75.6 80 37.1 53.5C33.9 51.3 32 47.7 32 43.8 32 37.3 37.3 32 43.8 32l53 0C100.5 13.7 116.6 0 136 0s35.5 13.7 39.2 32l.8 0c8.8 0 16 7.2 16 16l0 64c0 8.8-7.2 16-16 16l-80 0zm0 112l0-80 80 0 0 28.2c8.5-7.6 19.7-12.2 32-12.2 25.3 0 46 19.5 47.9 44.3 8.5-7.7 19.8-12.3 32.1-12.3 25.3 0 46 19.5 47.9 44.3 8.5-7.7 19.8-12.3 32.1-12.3 26.5 0 48 21.5 48 48l0 96c0 70.7-57.3 128-128 128l-118.1 0c-37.4 0-73.7-13.1-102.4-37.1l-5.4-4.5C32.9 446.1 16 410 16 372L16 334c0-19 8.4-37 23-49.2l19.2-16c1.9-1.6 3.8-3.1 5.8-4.5L64 320c0 8.8 7.2 16 16 16s16-7.2 16-16l0-80z"/></svg>