<svg xmlns="http://www.w3.org/2000/svg" viewBox="0 0 576 512"><!--! Font Awesome Pro 7.0.0 by @fontawesome - https://fontawesome.com License - https://fontawesome.com/license (Commercial License) Copyright 2025 Fonticons, Inc. --><path fill="currentColor" d="M416 112a144 144 0 1 0 -288 0 144 144 0 1 0 288 0zM256 32c0-8.8 7.2-16 16-16s16 7.2 16 16l0 8 16 0c8.8 0 16 7.2 16 16s-7.2 16-16 16l-45.8 0c-5.6 0-10.2 4.6-10.2 10.2 0 4.9 3.5 9.1 8.3 10l45 8.2c20 3.6 34.6 21.1 34.6 41.5 0 23.3-18.9 42.2-42.2 42.2l-5.8 0 0 8c0 8.8-7.2 16-16 16s-16-7.2-16-16l0-8-16 0c-8.8 0-16-7.2-16-16s7.2-16 16-16l53.8 0c5.6 0 10.2-4.6 10.2-10.2 0-4.9-3.5-9.1-8.3-10l-45-8.2c-20-3.6-34.6-21.1-34.6-41.5 0-22.6 17.7-41 40-42.1l0-8.1zM109.3 341.5L66.7 384 32 384c-17.7 0-32 14.3-32 32l0 64c0 17.7 14.3 32 32 32l320.5 0c29 0 57.3-9.3 80.7-26.5l126.6-93.3c17.8-13.1 21.6-38.1 8.5-55.9s-38.1-21.6-55.9-8.5L392.6 416 280 416c-13.3 0-24-10.7-24-24s10.7-24 24-24l72 0c17.7 0 32-14.3 32-32s-14.3-32-32-32l-152.2 0c-33.9 0-66.5 13.5-90.5 37.5z"/></svg>