<svg xmlns="http://www.w3.org/2000/svg" viewBox="0 0 640 512"><!--! Font Awesome Pro 7.0.0 by @fontawesome - https://fontawesome.com License - https://fontawesome.com/license (Commercial License) Copyright 2025 Fonticons, Inc. --><path fill="currentColor" d="M246.7 .7c17.3 3.7 28.3 20.7 24.6 38l-19.1 89.3 126.5 0 22-102.7C404.4 8 421.4-3 438.7 .7s28.3 20.7 24.6 38L444.2 128 512 128c17.7 0 32 14.3 32 32 0 6-1.7 11.7-4.6 16.5-3.8-.3-7.6-.5-11.4-.5-22.5 0-43.6 5.8-62 16l-35.6 0-8.7 40.6C408 253 400 277.6 400 304l0 24.4c-19.6 17.6-32 43.1-32 71.5l0 83.5-.7 3.3c-3.7 17.3-20.7 28.3-38 24.6s-28.3-20.7-24.6-38l19.1-89.3-126.5 0-22 102.7c-3.7 17.3-20.7 28.3-38 24.6s-28.3-20.7-24.6-38L131.8 384 64 384c-17.7 0-32-14.3-32-32s14.3-32 32-32l81.6 0 27.4-128-67.8 0c-17.7 0-32-14.3-32-32s14.3-32 32-32l81.6 0 22-102.7C212.4 8 229.4-3 246.7 .7zM238.4 192l-27.4 128 126.5 0 27.4-128-126.5 0zM560 352l0-47.9c0-17.7-14.3-32-32-32s-32 14.3-32 32l0 47.9 64 0zM416 400c0-20.9 13.4-38.7 32-45.3l0-50.6c0-44.2 35.8-80 80-80s80 35.8 80 80l0 50.6c18.6 6.6 32 24.4 32 45.3l0 96c0 26.5-21.5 48-48 48l-128 0c-26.5 0-48-21.5-48-48l0-96z"/></svg>