<svg xmlns="http://www.w3.org/2000/svg" viewBox="0 0 576 512"><!--! Font Awesome Pro 7.0.0 by @fontawesome - https://fontawesome.com License - https://fontawesome.com/license (Commercial License) Copyright 2025 Fonticons, Inc. --><path fill="currentColor" d="M41-24.9c-9.4-9.4-24.6-9.4-33.9 0S-2.3-.3 7 9.1l528 528c9.4 9.4 24.6 9.4 33.9 0s9.4-24.6 0-33.9l-70.3-70.3c8.5-14.3 13.3-31 13.3-48.8l0-160C512 100.3 411.7 0 288 0 226.6 0 171 24.7 130.5 64.7L41-24.9zM175.8 109.9C204.7 81.5 244.3 64 288 64 376.4 64 448 135.6 448 224l0 37.5c-10-3.5-20.8-5.5-32-5.5l-16 0c-21.1 0-39.1 13.7-45.5 32.7L175.8 109.9zm11.8 147.5c-3.7-.9-7.6-1.4-11.6-1.4l-16 0c-11.2 0-22 1.9-32 5.5l0-37.5c0-8.3 .6-16.4 1.8-24.3L77.5 147.3C68.8 171.2 64 197.1 64 224l0 160c0 53 43 96 96 96l16 0c26.5 0 48-21.5 48-48l0-128c0-4-.5-7.9-1.4-11.6l-35-35z"/></svg>