<svg xmlns="http://www.w3.org/2000/svg" viewBox="0 0 576 512"><!--! Font Awesome Pro 7.0.0 by @fontawesome - https://fontawesome.com License - https://fontawesome.com/license (Commercial License) Copyright 2025 Fonticons, Inc. --><path fill="currentColor" d="M33.5 291.8c-12.7-22.2-12.7-49.4 0-71.5L129.7 52.2C142.5 29.8 166.4 16 192.2 16l191.6 0c25.8 0 49.7 13.8 62.5 36.2l96.2 168.1c12.7 22.2 12.7 49.4 0 71.5L446.3 459.9c-12.8 22.4-36.7 36.2-62.5 36.2l-191.6 0c-25.8 0-49.7-13.8-62.5-36.2L33.5 291.8zM199 167c-9.4 9.4-9.4 24.6 0 33.9l55 55-55 55c-9.4 9.4-9.4 24.6 0 33.9s24.6 9.4 33.9 0l55-55 55 55c9.4 9.4 24.6 9.4 33.9 0s9.4-24.6 0-33.9l-55-55 55-55c9.4-9.4 9.4-24.6 0-33.9s-24.6-9.4-33.9 0l-55 55-55-55c-9.4-9.4-24.6-9.4-33.9 0z"/></svg>