<svg xmlns="http://www.w3.org/2000/svg" viewBox="0 0 576 512"><!--! Font Awesome Pro 7.0.0 by @fontawesome - https://fontawesome.com License - https://fontawesome.com/license (Commercial License) Copyright 2025 Fonticons, Inc. --><path fill="currentColor" d="M33.5 291.8c-12.7-22.2-12.7-49.4 0-71.5L129.7 52.2C142.5 29.8 166.4 16 192.2 16l191.6 0c25.8 0 49.7 13.8 62.5 36.2l96.2 168.1c12.7 22.2 12.7 49.4 0 71.5L446.3 459.9c-12.8 22.4-36.7 36.2-62.5 36.2l-191.6 0c-25.8 0-49.7-13.8-62.5-36.2L33.5 291.8zm338.8-79.1c7-11.2 3.6-26-7.6-33.1s-26-3.6-33.1 7.6l-61.4 98.3-27-36c-8-10.6-23-12.8-33.6-4.8s-12.8 23-4.8 33.6l48 64c4.7 6.3 12.3 9.9 20.2 9.6s15.1-4.5 19.3-11.3l80-128z"/></svg>