<svg xmlns="http://www.w3.org/2000/svg" viewBox="0 0 576 512"><!--! Font Awesome Pro 7.1.0 by @fontawesome - https://fontawesome.com License - https://fontawesome.com/license (Commercial License) Copyright 2025 Fonticons, Inc. --><path fill="currentColor" d="M383.8 16c25.8 0 49.7 13.8 62.5 36.2l96.2 168c12.7 22.2 12.7 49.4 0 71.5L446.3 459.9c-12.8 22.4-36.7 36.2-62.5 36.2l-191.6 0c-25.8 0-49.7-13.8-62.5-36.2L33.5 291.8c-12.7-22.2-12.7-49.4 0-71.5l96.2-168C142.5 29.8 166.4 16 192.2 16l191.6 0zM406 145.7c-10.7-7.8-25.7-5.4-33.5 5.3L253.1 315.2 201 263.1c-9.4-9.4-24.6-9.4-33.9 0s-9.4 24.6 0 33.9l72 72c5 5 11.9 7.5 18.8 7s13.4-4.1 17.5-9.8L411.3 179.2c7.8-10.7 5.4-25.7-5.3-33.5z"/></svg>