<svg xmlns="http://www.w3.org/2000/svg" viewBox="0 0 640 512"><!--! Font Awesome Pro 7.0.0 by @fontawesome - https://fontawesome.com License - https://fontawesome.com/license (Commercial License) Copyright 2025 Fonticons, Inc. --><path fill="currentColor" d="M531.9 272l-19.9 0 0 94.4c-21-9.7-43.5-14.5-66-14.4-32.5 .2-64.9 10.7-92.4 31.4-22.1 16.6-29.1 16.6-51.2 0-28.1-21.1-61.3-31.6-94.4-31.4-27.7 .2-55.4 7.8-80 23l0-103-19.9 0c-15.5 0-28.1-12.6-28.1-28.1 0-7.6 3.1-14.9 8.6-20.2L292.5 27.1C299.9 20 309.7 16 320 16s20.1 4 27.5 11.1L551.4 223.7c5.5 5.3 8.6 12.6 8.6 20.2 0 15.5-12.6 28.1-28.1 28.1zM296 224c-13.3 0-24 10.7-24 24l0 48c0 13.3 10.7 24 24 24l48 0c13.3 0 24-10.7 24-24l0-48c0-13.3-10.7-24-24-24l-48 0zM403.4 476.1C379.1 494.3 351.1 512 320 512s-59.1-17.7-83.4-35.9c-21.3-16.1-49.9-16.1-71.2 0-23.8 17.9-54.1 35.5-88.1 35.3-20.4-.1-40.7-6.7-59.8-21.1-10.6-8-12.7-23-4.7-33.6s23-12.7 33.6-4.7c11.3 8.5 21.6 11.4 31.2 11.5 17.6 .1 37.3-9.4 58.9-25.7 38.4-29 90.5-29 129 0 24 18.1 40.7 26.3 54.5 26.3s30.5-8.2 54.5-26.3c38.4-29 90.5-29 129 0 16.9 12.7 32.9 21.5 47.8 24.6 13.7 2.8 27.4 .9 42.3-10.3 10.6-8 25.6-5.9 33.6 4.7s5.9 25.6-4.7 33.6c-26.4 19.9-54.2 24.4-80.7 19.1-25.3-5.1-48.1-18.9-67.2-33.3-21.3-16.1-49.9-16.1-71.2 0z"/></svg>