<svg xmlns="http://www.w3.org/2000/svg" viewBox="0 0 640 512"><!--! Font Awesome Pro 7.0.0 by @fontawesome - https://fontawesome.com License - https://fontawesome.com/license (Commercial License) Copyright 2025 Fonticons, Inc. --><path fill="currentColor" d="M320 64l0 52.1 118.2 103.4c16.4 14.3 25.8 35.1 25.8 56.8 0 25.5-12.6 48.1-32 61.7l0 121.2c0 19.4-5.5 37.4-14.9 52.8L576 512c35.3 0 64-28.7 64-64l0-384c0-35.3-28.7-64-64-64L384 0c-35.3 0-64 28.7-64 64zm120.4 93.6l-56-49c1.6-7.2 8-12.6 15.6-12.6l32 0c8.8 0 16 7.2 16 16l0 32c0 5.8-3 10.8-7.6 13.6zM528 96l32 0c8.8 0 16 7.2 16 16l0 32c0 8.8-7.2 16-16 16l-32 0c-8.8 0-16-7.2-16-16l0-32c0-8.8 7.2-16 16-16zM512 240c0-8.8 7.2-16 16-16l32 0c8.8 0 16 7.2 16 16l0 32c0 8.8-7.2 16-16 16l-32 0c-8.8 0-16-7.2-16-16l0-32zm16 112l32 0c8.8 0 16 7.2 16 16l0 32c0 8.8-7.2 16-16 16l-32 0c-8.8 0-16-7.2-16-16l0-32c0-8.8 7.2-16 16-16zM384 304l4.5 0c15.2 0 27.5-12.3 27.5-27.5 0-7.9-3.4-15.5-9.4-20.7L236 106.5C228.3 99.7 218.3 96 208 96s-20.3 3.7-28 10.5L9.4 255.8C3.4 261 0 268.6 0 276.5 0 291.7 12.3 304 27.5 304l4.5 0 0 155.4C32 488.4 55.6 512 84.6 512l246.8 0c29.1 0 52.6-23.6 52.6-52.6L384 304zm-224-8c0-13.3 10.7-24 24-24l48 0c13.3 0 24 10.7 24 24l0 48c0 13.3-10.7 24-24 24l-48 0c-13.3 0-24-10.7-24-24l0-48z"/></svg>