<svg xmlns="http://www.w3.org/2000/svg" viewBox="0 0 576 512"><!--! Font Awesome Pro 7.0.0 by @fontawesome - https://fontawesome.com License - https://fontawesome.com/license (Commercial License) Copyright 2025 Fonticons, Inc. --><path fill="currentColor" d="M160 32c-35.3 0-64 28.7-64 64l0 256c0 35.3 28.7 64 64 64l320 0c35.3 0 64-28.7 64-64l0-256c0-35.3-28.7-64-64-64L160 32zM48 152c0-13.3-10.7-24-24-24S0 138.7 0 152L0 448c0 35.3 28.7 64 64 64l360 0c13.3 0 24-10.7 24-24s-10.7-24-24-24L64 464c-8.8 0-16-7.2-16-16l0-296zM208 336c0-44.2 35.8-80 80-80l64 0c44.2 0 80 35.8 80 80 0 8.8-7.2 16-16 16l-192 0c-8.8 0-16-7.2-16-16zM320 104a56 56 0 1 1 0 112 56 56 0 1 1 0-112z"/></svg>