<svg xmlns="http://www.w3.org/2000/svg" viewBox="0 0 512 512"><!--! Font Awesome Pro 7.0.0 by @fontawesome - https://fontawesome.com License - https://fontawesome.com/license (Commercial License) Copyright 2025 Fonticons, Inc. --><path fill="currentColor" d="M456-8c0-13.3-10.7-24-24-24S408-21.3 408-8l0 32-32 0c-13.3 0-24 10.7-24 24s10.7 24 24 24l32 0 0 32c0 13.3 10.7 24 24 24s24-10.7 24-24l0-32 32 0c13.3 0 24-10.7 24-24s-10.7-24-24-24l-32 0 0-32zM279.5 101.2c-14.9-6.9-32.1-6.9-47 0L13.9 202.2C5.4 206.1 0 214.6 0 224s5.4 17.9 13.9 21.8l218.6 101c14.9 6.9 32.1 6.9 47 0l218.6-101c8.5-3.9 13.9-12.4 13.9-21.8s-5.4-17.9-13.9-21.8l-218.6-101zM13.9 362.2C5.4 366.1 0 374.6 0 384s5.4 17.9 13.9 21.8l218.6 101c14.9 6.9 32.1 6.9 47 0l218.6-101c8.5-3.9 13.9-12.4 13.9-21.8s-5.4-17.9-13.9-21.8l-68.7-31.8-129.7 59.9c-27.7 12.8-59.6 12.8-87.3 0L82.7 330.4 13.9 362.2z"/></svg>