<svg xmlns="http://www.w3.org/2000/svg" viewBox="0 0 512 512"><!--! Font Awesome Pro 7.0.0 by @fontawesome - https://fontawesome.com License - https://fontawesome.com/license (Commercial License) Copyright 2025 Fonticons, Inc. --><path fill="currentColor" d="M376 24l112 0c13.3 0 24 10.7 24 24s-10.7 24-24 24L376 72c-13.3 0-24-10.7-24-24s10.7-24 24-24zM232.5 101.2c14.9-6.9 32.1-6.9 47 0l218.6 101c8.5 3.9 13.9 12.4 13.9 21.8s-5.4 17.9-13.9 21.8l-218.6 101c-14.9 6.9-32.1 6.9-47 0L13.9 245.8C5.4 241.8 0 233.3 0 224s5.4-17.9 13.9-21.8l218.6-101zM82.7 330.4l129.7 59.9c27.7 12.8 59.6 12.8 87.3 0l129.7-59.9 68.7 31.8c8.5 3.9 13.9 12.4 13.9 21.8s-5.4 17.9-13.9 21.8l-218.6 101c-14.9 6.9-32.1 6.9-47 0L13.9 405.8C5.4 401.8 0 393.3 0 384s5.4-17.9 13.9-21.8l68.7-31.8z"/></svg>