<svg xmlns="http://www.w3.org/2000/svg" viewBox="0 0 512 512"><!--! Font Awesome Pro 7.0.0 by @fontawesome - https://fontawesome.com License - https://fontawesome.com/license (Commercial License) Copyright 2025 Fonticons, Inc. --><path fill="currentColor" d="M492.7 .5C503.9 2.7 512 12.6 512 24l0 186.9C512 342.1 403.9 448 273.2 448 191.7 448 121.9 392.4 101.8 316.8 68.7 347.4 48 391.3 48 440l0 16c0 13.3-10.7 24-24 24S0 469.2 0 456l0-16c0-75.1 38.3-141.2 96.4-179.9 6.1-91.7 82.4-164.1 175.6-164.1 83.3 0 132.2-22.6 159.6-43.2 14.2-10.6 25.3-23.2 34.3-38.2 4.4-10.5 15.6-16.3 26.8-14.1zM357.3 176c-18.5 0-35.9 8.7-46.9 23.5l-6.4 8.5-6.4-8.5c-11.1-14.8-28.5-23.5-46.9-23.5-32.4 0-58.6 26.3-58.7 58.7l0 5.3c0 49.1 65.8 98.1 96.5 118.3 9.5 6.2 21.5 6.2 30.9 0 30.7-20.2 96.5-69.3 96.5-118.3l0-5.3c0-32.4-26.3-58.7-58.7-58.7z"/></svg>