<svg xmlns="http://www.w3.org/2000/svg" viewBox="0 0 448 512"><!--! Font Awesome Pro 7.0.0 by @fontawesome - https://fontawesome.com License - https://fontawesome.com/license (Commercial License) Copyright 2025 Fonticons, Inc. --><path fill="currentColor" d="M64 192c0-88.4 71.6-160 160-160s160 71.6 160 160l0 112-320 0 0-112zm168-64c13.3 0 24-10.7 24-24s-10.7-24-24-24c-66.3 0-120 53.7-120 120 0 13.3 10.7 24 24 24s24-10.7 24-24c0-39.8 32.2-72 72-72zM32 352l384 0c17.7 0 32 14.3 32 32l0 64c0 17.7-14.3 32-32 32L32 480c-17.7 0-32-14.3-32-32l0-64c0-17.7 14.3-32 32-32z"/></svg>