<svg xmlns="http://www.w3.org/2000/svg" viewBox="0 0 640 512"><!--! Font Awesome Pro 7.0.0 by @fontawesome - https://fontawesome.com License - https://fontawesome.com/license (Commercial License) Copyright 2025 Fonticons, Inc. --><path fill="currentColor" d="M69.3 36c-11-7.4-25.9-4.4-33.3 6.7S31.7 68.6 42.7 76l48 32c11 7.4 25.9 4.4 33.3-6.7s4.4-25.9-6.7-33.3l-48-32zM597.3 76c11-7.4 14-22.3 6.7-33.3s-22.3-14-33.3-6.7l-48 32c-11 7.4-14 22.3-6.7 33.3s22.3 14 33.3 6.7l48-32zM24 192c-13.3 0-24 10.7-24 24s10.7 24 24 24l64 0c13.3 0 24-10.7 24-24s-10.7-24-24-24l-64 0zm528 0c-13.3 0-24 10.7-24 24s10.7 24 24 24l64 0c13.3 0 24-10.7 24-24s-10.7-24-24-24l-64 0zM320 32c-88.4 0-160 71.6-160 160l0 112 320 0 0-112c0-88.4-71.6-160-160-160zM256 200c0 13.3-10.7 24-24 24s-24-10.7-24-24c0-66.3 53.7-120 120-120 13.3 0 24 10.7 24 24s-10.7 24-24 24c-39.8 0-72 32.2-72 72zM96 384l0 64c0 17.7 14.3 32 32 32l384 0c17.7 0 32-14.3 32-32l0-64c0-17.7-14.3-32-32-32l-384 0c-17.7 0-32 14.3-32 32z"/></svg>