<svg xmlns="http://www.w3.org/2000/svg" viewBox="0 0 576 512"><!--! Font Awesome Pro 7.0.0 by @fontawesome - https://fontawesome.com License - https://fontawesome.com/license (Commercial License) Copyright 2025 Fonticons, Inc. --><path fill="currentColor" d="M41-24.9c-9.4-9.4-24.6-9.4-33.9 0S-2.3-.3 7 9.1l528 528c9.4 9.4 24.6 9.4 33.9 0s9.4-24.6 0-33.9l-55.9-55.9c38.3-29.2 62.9-75.3 62.9-127.2 0-59.3-32.3-111.1-80.3-138.8 .2 3.6 .3 7.1 .3 10.8 0 21.9-3.4 42.9-9.6 62.7 15.9 17.1 25.6 40.1 25.6 65.3 0 34.2-17.9 64.3-44.9 81.3l-82.1-82.1C423.3 290 448 243.9 448 192 448 103.6 376.4 32 288 32L160 32c-18.6 0-36.5 3.2-53.1 9L41-24.9zM161.8 96L288 96c53 0 96 43 96 96 0 34.2-17.9 64.3-44.9 81.3L289.8 224 304 224c17.7 0 32-14.3 32-32s-14.3-32-32-32l-16 0c-18.6 0-36.5 3.2-53.1 9l-73-73zM410.2 480l-64-64-58.2 0c-53 0-96-43-96-96 0-16.8 4.3-32.6 11.9-46.3l-46.3-46.3c-18.6 26.1-29.5 58.1-29.5 92.6 0 88.4 71.6 160 160 160l122.2 0zM29.5 99.4c-18.6 26.1-29.5 58.1-29.5 92.6 0 59.3 32.3 111.1 80.3 138.8-.2-3.6-.3-7.1-.3-10.8 0-21.9 3.4-42.9 9.6-62.7-15.9-17.1-25.6-40.1-25.6-65.3 0-16.8 4.3-32.6 11.9-46.3L29.5 99.4z"/></svg>