<svg xmlns="http://www.w3.org/2000/svg" viewBox="0 0 384 512"><!--! Font Awesome Pro 7.0.0 by @fontawesome - https://fontawesome.com License - https://fontawesome.com/license (Commercial License) Copyright 2025 Fonticons, Inc. --><path fill="currentColor" d="M192 32c35.3 0 64 28.7 64 64l0 64-128 0 0-64c0-35.3 28.7-64 64-64zM64 96l0 64c-35.3 0-64 28.7-64 64L0 448c0 35.3 28.7 64 64 64l256 0c35.3 0 64-28.7 64-64l0-224c0-35.3-28.7-64-64-64l0-64c0-70.7-57.3-128-128-128S64 25.3 64 96zM192 224c9.4 0 18 5.5 21.9 14.1l80 176c5.5 12.1 .1 26.3-11.9 31.8s-26.3 .1-31.8-11.9l-15.4-33.9-85.5 0-15.4 33.9c-5.5 12.1-19.7 17.4-31.8 11.9s-17.4-19.7-11.9-31.8l80-176C174 229.5 182.6 224 192 224zm0 82l-20.9 46 41.8 0-20.9-46z"/></svg>