<svg xmlns="http://www.w3.org/2000/svg" viewBox="0 0 512 512"><!--! Font Awesome Pro 7.0.0 by @fontawesome - https://fontawesome.com License - https://fontawesome.com/license (Commercial License) Copyright 2025 Fonticons, Inc. --><path fill="currentColor" d="M448 256a192 192 0 1 0 -384 0 192 192 0 1 0 384 0zM0 256a256 256 0 1 1 512 0 256 256 0 1 1 -512 0zM281.1 131.9c5.9-7.5 14.9-14.6 23.9-11.3 55.4 20 95 73.1 95 135.5s-39.6 115.4-95 135.5c-9 3.2-18-3.8-23.9-11.3-5.9-7.4-14.9-12.1-25.1-12.1s-19.2 4.7-25.1 12.1c-5.9 7.5-14.9 14.6-23.9 11.3-55.4-20-95-73.1-95-135.5s39.6-115.4 95-135.5c9-3.2 18 3.8 23.9 11.3 5.9 7.4 14.9 12.1 25.1 12.1s19.2-4.7 25.1-12.1zM216 192a24 24 0 1 0 0 48 24 24 0 1 0 0-48zm0 80a24 24 0 1 0 0 48 24 24 0 1 0 0-48zm56-56a24 24 0 1 0 48 0 24 24 0 1 0 -48 0zm24 56a24 24 0 1 0 0 48 24 24 0 1 0 0-48z"/></svg>