<svg xmlns="http://www.w3.org/2000/svg" viewBox="0 0 512 512"><!--! Font Awesome Pro 7.1.0 by @fontawesome - https://fontawesome.com License - https://fontawesome.com/license (Commercial License) Copyright 2025 Fonticons, Inc. --><path fill="currentColor" d="M416 32c53 0 96 43 96 96l0 224c0 53-43 96-96 96l-120 0c-5.2 0-10.3 1.7-14.4 4.8L166.4 539.2c-4.2 3.1-9.2 4.8-14.4 4.8-13.3 0-24-10.7-24-24l0-72-32 0c-53 0-96-43-96-96L0 128C0 75 43 32 96 32l320 0zm-42 97.7c-10.7-7.8-25.7-5.4-33.5 5.3L221.1 299.2 169 247.1c-9.4-9.4-24.6-9.4-33.9 0s-9.4 24.6 0 33.9l72 72c5 5 11.9 7.5 18.8 7s13.4-4.1 17.5-9.8L379.3 163.2c7.8-10.7 5.4-25.7-5.3-33.5z"/></svg>