<svg xmlns="http://www.w3.org/2000/svg" viewBox="0 0 576 512"><!--! Font Awesome Pro 7.0.0 by @fontawesome - https://fontawesome.com License - https://fontawesome.com/license (Commercial License) Copyright 2025 Fonticons, Inc. --><path fill="currentColor" d="M288 512c22.8 0 45-3 66.1-8.6l11.8-39.4c-34.4-1.4-61.9-29.8-61.9-64.5 0-18.4 7.8-35.9 21.5-48.1L466.7 225c12.2-10.9 28-17 44.4-17 10.8 0 20.8 2.5 29.6 6.9-19.7-121.9-125.3-214.9-252.7-214.9-141.4 0-256 114.6-256 256S146.6 512 288 512zM408 152l0 48c0 13.3-10.7 24-24 24s-24-10.7-24-24l0-48c0-13.3 10.7-24 24-24s24 10.7 24 24zM288 128c13.3 0 24 10.7 24 24l0 48c0 13.3-10.7 24-24 24s-24-10.7-24-24l0-48c0-13.3 10.7-24 24-24zm-72 24l0 48c0 13.3-10.7 24-24 24s-24-10.7-24-24l0-48c0-13.3 10.7-24 24-24s24 10.7 24 24zM368.6 416l61.8 0-31.2 104.1c-3.6 11.9 5.3 23.9 17.8 23.9 4.6 0 9-1.7 12.4-4.7L570.5 412.9c3.5-3.1 5.5-7.6 5.5-12.4 0-9.2-7.4-16.6-16.6-16.6l-61.8 0 31.2-104.1c3.6-11.9-5.3-23.9-17.8-23.9-4.6 0-9 1.7-12.4 4.7L357.5 387.1c-3.5 3.1-5.5 7.6-5.5 12.4 0 9.2 7.4 16.6 16.6 16.6z"/></svg>