<svg xmlns="http://www.w3.org/2000/svg" viewBox="0 0 640 512"><!--! Font Awesome Pro 7.0.0 by @fontawesome - https://fontawesome.com License - https://fontawesome.com/license (Commercial License) Copyright 2025 Fonticons, Inc. --><path fill="currentColor" d="M272 382.1c0 48.4 16.6 93.8 44.8 129.9-139.9-1.7-252.8-115.7-252.8-256 0-141.4 114.6-256 256-256 112.9 0 208.8 73.1 242.8 174.6-17.7-5.1-37.2-2.2-52.9 8.6-7.9-7.9-15.9-15.6-24.2-23.1-23.8-21.4-60-21.5-83.9-.2-36.4 32.6-67.7 69.8-90.2 106.4-21.4 34.7-39.5 76.1-39.5 115.8zm71.7-234c-1.9-11.4-11.8-20.1-23.7-20.1-13.3 0-24 10.7-24 24l0 45.7c15.3-18.7 31.7-35.3 47.7-49.6zM224 128c-13.3 0-24 10.7-24 24l0 48c0 13.3 10.7 24 24 24s24-10.7 24-24l0-48c0-13.3-10.7-24-24-24zM505.7 240.1L518 226.3c5.4-6.1 13.3-8.8 20.9-8.9 7.2 0 14.3 2.6 19.9 7.8 19.7 18.3 39.8 43.2 55 70.6 15.1 27.2 26.2 58.1 26.2 88.1 0 88.7-71.3 159.8-160 159.8-89.6 0-160-71.3-160-159.8 0-37.3 16-73.4 36.8-104.5 20.9-31.3 47.5-59 70.9-80.2 5.7-5.2 13.1-7.7 20.3-7.5s13.4 3.2 18.8 7.5c14.4 11.4 38.9 40.7 38.9 40.7zM544 432c0-36.5-37-73-54.8-88.4-5.4-4.7-13.1-4.7-18.5 0-17.7 15.4-54.8 51.9-54.8 88.4 0 35.3 28.7 64 64 64s64-28.7 64-64z"/></svg>