<svg xmlns="http://www.w3.org/2000/svg" viewBox="0 0 512 512"><!--! Font Awesome Pro 7.0.0 by @fontawesome - https://fontawesome.com License - https://fontawesome.com/license (Commercial License) Copyright 2025 Fonticons, Inc. --><path fill="currentColor" d="M320 49.4c0-20.9 19.8-36.2 39-27.8 90.1 39.6 153 129.7 153 234.5 0 141.4-114.6 256-256 256S0 397.4 0 256c0-104.8 62.9-194.8 153-234.5 19.1-8.4 39 6.9 39 27.8L192 64c0 17.7 14.3 32 32 32l64 0c17.7 0 32-14.3 32-32l0-14.7zM256 384a32 32 0 1 0 0 64 32 32 0 1 0 0-64zm-90.5-37.5a32 32 0 1 0 -45.2 45.2 32 32 0 1 0 45.2-45.2zm226.3 0a32 32 0 1 0 -45.3 45.2 32 32 0 1 0 45.3-45.2zM96 224a32 32 0 1 0 0 64 32 32 0 1 0 0-64zm320 0a32 32 0 1 0 0 64 32 32 0 1 0 0-64z"/></svg>