<svg xmlns="http://www.w3.org/2000/svg" viewBox="0 0 512 512"><!--! Font Awesome Pro 7.0.0 by @fontawesome - https://fontawesome.com License - https://fontawesome.com/license (Commercial License) Copyright 2025 Fonticons, Inc. --><path fill="currentColor" d="M0 109.5L0 419.6c0 19.4 11.8 37.3 30.3 43.3 94 30 158.8 8.4 223.3-13.1 62.4-20.8 124.4-41.5 212.1-15.3 22.2 6.6 46.2-8.8 46.2-32l0-310.1c0-19.4-11.8-37.3-30.3-43.3-94-30-158.8-8.4-223.3 13.1-62.4 20.8-124.4 41.5-212.1 15.3-22.2-6.6-46.3 8.8-46.3 32zM256 352c-44.2 0-80-43-80-96s35.8-96 80-96 80 43 80 96-35.8 96-80 96z"/></svg>