<svg xmlns="http://www.w3.org/2000/svg" viewBox="0 0 576 512"><!--! Font Awesome Pro 7.0.0 by @fontawesome - https://fontawesome.com License - https://fontawesome.com/license (Commercial License) Copyright 2025 Fonticons, Inc. --><path fill="currentColor" d="M384 0c-137.4 0-249.4 108.2-255.7 244 10.1-2.6 20.8-4 31.7-4 49.5 0 92.4 28.1 113.7 69.2 45.4 14.3 78.3 56.7 78.3 106.8 0 34.4-15.5 65.2-39.9 85.7 22.8 6.7 47 10.2 71.9 10.2 68.8 0 131.3-27.2 177.3-71.4 7.3-7 9.4-17.9 5.3-27.1s-13.7-14.9-23.8-14.1c-4.9 .4-9.8 .6-14.8 .6-101.6 0-184-82.4-184-184 0-72.1 41.5-134.6 102.1-164.8 9.1-4.5 14.3-14.3 13.1-24.4S450.6 8.5 440.7 6.3C422.4 2.2 403.4 0 384 0zM240 480c35.3 0 64-28.7 64-64s-28.7-64-64-64c-.5 0-1.1 0-1.6 0-7.4-36.5-39.7-64-78.4-64-33.3 0-61.9 20.4-73.9 49.4-4.6-.9-9.3-1.4-14.1-1.4-39.8 0-72 32.2-72 72s32.2 72 72 72l168 0z"/></svg>