<svg xmlns="http://www.w3.org/2000/svg" viewBox="0 0 512 512"><!--! Font Awesome Pro 7.0.0 by @fontawesome - https://fontawesome.com License - https://fontawesome.com/license (Commercial License) Copyright 2025 Fonticons, Inc. --><path fill="currentColor" d="M0 256c0-141.4 114.6-256 256-256 19.4 0 38.4 2.2 56.7 6.3 9.9 2.2 17.3 10.5 18.5 20.5s-4 19.8-13.1 24.4c-60.6 30.2-102.1 92.7-102.1 164.8 0 101.6 82.4 184 184 184 5 0 9.9-.2 14.8-.6 10.1-.8 19.6 4.8 23.8 14.1s2 20.1-5.3 27.1C387.3 484.8 324.8 512 256 512 114.6 512 0 397.4 0 256zm371.2-19.2l-58-16.6c-5.5-1.6-9.2-6.6-9.2-12.2s3.8-10.7 9.2-12.2l58-16.6 16.6-58c1.6-5.5 6.6-9.2 12.2-9.2s10.7 3.8 12.2 9.2l16.6 58 58 16.6c5.5 1.6 9.2 6.6 9.2 12.2s-3.8 10.7-9.2 12.2l-58 16.6-16.6 58c-1.6 5.5-6.6 9.2-12.2 9.2s-10.7-3.8-12.2-9.2l-16.6-58z"/></svg>