<svg xmlns="http://www.w3.org/2000/svg" viewBox="0 0 640 512"><!--! Font Awesome Pro 7.0.0 by @fontawesome - https://fontawesome.com License - https://fontawesome.com/license (Commercial License) Copyright 2025 Fonticons, Inc. --><path fill="currentColor" d="M147.9 148.4c21.4-23.2 51.5-36.4 83.1-36.4 35.4 0 66.3 16.7 89 43.1 22.6-26.4 53.6-43.1 89-43.1 31.6 0 61.7 13.2 83.1 36.4l2 2.1c27.6 29.9 74.6 30.9 103.4 2.1 9.8-9.8 25-12 35.5-1.6 4.7 4.7 7 10.8 7 17l0 39.4c0 106.4-86.2 192.6-192.6 192.6-46.7 0-91.7-16.9-126.9-47.7l-.5-.4-.5 .4C284.4 383.1 239.3 400 192.6 400 86.2 400 0 313.8 0 207.4L0 168c0-6.1 2.3-12.3 7-17 10.4-10.4 25.7-8.2 35.5 1.6 28.8 28.8 75.8 27.9 103.4-2.1l2-2.1z"/></svg>