<svg xmlns="http://www.w3.org/2000/svg" viewBox="0 0 576 512"><!--! Font Awesome Pro 7.0.0 by @fontawesome - https://fontawesome.com License - https://fontawesome.com/license (Commercial License) Copyright 2025 Fonticons, Inc. --><path fill="currentColor" d="M32 96c0-35.3 28.7-64 64-64l320 0c35.3 0 64 28.7 64 64l0 81c-5.2-.7-10.6-1-16-1-17 0-33.2 3.3-48 9.3l0-49.3c0-22.1-17.9-40-40-40L272 96c-22.1 0-40 17.9-40 40l0 78.4c-14.3 8.3-24 23.8-24 41.6 0 26.5 21.5 48 48 48s48-21.5 48-48c0-17.8-9.7-33.3-24-41.6l0-70.4 88 0 0 75.3c-19.9 22.6-32 52.2-32 84.7l0 24.4c-11.9 10.7-21.1 24.2-26.6 39.6l-165.4 0 0-224 24 0c13.3 0 24-10.7 24-24s-10.7-24-24-24l-32 0c-22.1 0-40 17.9-40 40l0 240c0 22.1 17.9 40 40 40l168 0 0 64-208 0c-35.3 0-64-28.7-64-64L32 96zM496 304.1c0-17.7-14.3-32-32-32s-32 14.3-32 32l0 47.9 64 0 0-47.9zM352 400c0-20.9 13.4-38.7 32-45.3l0-50.6c0-44.2 35.8-80 80-80s80 35.8 80 80l0 50.6c18.6 6.6 32 24.4 32 45.3l0 96c0 26.5-21.5 48-48 48l-128 0c-26.5 0-48-21.5-48-48l0-96z"/></svg>