<svg xmlns="http://www.w3.org/2000/svg" viewBox="0 0 448 512"><!--! Font Awesome Pro 7.0.0 by @fontawesome - https://fontawesome.com License - https://fontawesome.com/license (Commercial License) Copyright 2025 Fonticons, Inc. --><path fill="currentColor" d="M0 96C0 60.7 28.7 32 64 32l320 0c35.3 0 64 28.7 64 64l0 320c0 35.3-28.7 64-64 64L64 480c-35.3 0-64-28.7-64-64L0 96zm64 40l0 240c0 22.1 17.9 40 40 40l240 0c22.1 0 40-17.9 40-40l0-240c0-22.1-17.9-40-40-40L240 96c-22.1 0-40 17.9-40 40l0 78.4c-14.3 8.3-24 23.8-24 41.6 0 26.5 21.5 48 48 48s48-21.5 48-48c0-17.8-9.7-33.3-24-41.6l0-70.4 88 0 0 224-224 0 0-224 24 0c13.3 0 24-10.7 24-24s-10.7-24-24-24l-32 0c-22.1 0-40 17.9-40 40z"/></svg>