<svg xmlns="http://www.w3.org/2000/svg" viewBox="0 0 512 512"><!--! Font Awesome Pro 7.0.0 by @fontawesome - https://fontawesome.com License - https://fontawesome.com/license (Commercial License) Copyright 2025 Fonticons, Inc. --><path fill="currentColor" d="M112 48c0-17.7-14.3-32-32-32S48 30.3 48 48l0 400c0 17.7 14.3 32 32 32s32-14.3 32-32l0-81.8 29.1-26.5 88.7 126.7c10.1 14.5 30.1 18 44.6 7.9s18-30.1 7.9-44.6l-93.4-133.4 88.7-80.6c13.1-11.9 14-32.1 2.2-45.2s-32.1-14-45.2-2.2L112 279.7 112 48zM448 224l16 0c17.7 0 32-14.3 32-32s-14.3-32-32-32l-16 0c-23.9 0-47 6.7-66.8 18.8-5-11.1-16.2-18.8-29.2-18.8-17.7 0-32 14.3-32 32l0 256c0 17.7 14.3 32 32 32s32-14.3 32-32l0-160c0-13.8 4.5-27.3 12.8-38.4 12.1-16.1 31.1-25.6 51.2-25.6z"/></svg>