<svg xmlns="http://www.w3.org/2000/svg" viewBox="0 0 512 512"><!--! Font Awesome Pro 7.0.0 by @fontawesome - https://fontawesome.com License - https://fontawesome.com/license (Commercial License) Copyright 2025 Fonticons, Inc. --><path fill="currentColor" d="M143.4 18.8c12-12 28.3-18.7 45.3-18.7l135.6 0c17 0 33.3 6.7 45.3 18.7L493.6 143c12 12 18.7 28.3 18.7 45.3l0 135.6c0 17-6.7 33.3-18.7 45.3L369.5 493.2c-12 12-28.3 18.7-45.3 18.7l-135.6 0c-17 0-33.3-6.7-45.3-18.7L19.2 369C7.2 357 .5 340.8 .5 323.8l0-135.6c0-17 6.7-33.3 18.7-45.3L143.4 18.8zM256.4 136c-13.3 0-24 10.7-24 24l0 112c0 13.3 10.7 24 24 24s24-10.7 24-24l0-112c0-13.3-10.7-24-24-24zm26.7 216a26.7 26.7 0 1 0 -53.3 0 26.7 26.7 0 1 0 53.3 0z"/></svg>