<svg xmlns="http://www.w3.org/2000/svg" viewBox="0 0 576 512"><!--! Font Awesome Pro 7.0.0 by @fontawesome - https://fontawesome.com License - https://fontawesome.com/license (Commercial License) Copyright 2025 Fonticons, Inc. --><path fill="currentColor" d="M32 48l0 160c0 26.5 21.5 48 48 48l160 0c26.5 0 48-21.5 48-48l0-160c0-26.5-21.5-48-48-48L80 0C53.5 0 32 21.5 32 48zm0 272c-17.7 0-32 14.3-32 32s14.3 32 32 32l32 0 0 64-32 0c-17.7 0-32 14.3-32 32s14.3 32 32 32l512 0c17.7 0 32-14.3 32-32s-14.3-32-32-32l-32 0 0-64 32 0c17.7 0 32-14.3 32-32s-14.3-32-32-32L32 320zm96 64l128 0 0 64-128 0 0-64zm192 0l128 0 0 64-128 0 0-64zM400 64c-26.5 0-48 21.5-48 48l0 96c0 26.5 21.5 48 48 48l96 0c26.5 0 48-21.5 48-48l0-96c0-26.5-21.5-48-48-48l-96 0z"/></svg>