<svg xmlns="http://www.w3.org/2000/svg" viewBox="0 0 512 512"><!--! Font Awesome Pro 7.0.0 by @fontawesome - https://fontawesome.com License - https://fontawesome.com/license (Commercial License) Copyright 2025 Fonticons, Inc. --><path fill="currentColor" d="M256 192c86.2 0 160.1-20.1 191.7-48.9 10.2-9.3 16-19.5 16.3-30.2 0-.3 0-.6 0-1 0-44.2-93.1-80-208-80S48 67.8 48 112c0 .3 0 .6 0 1 .2 5.7 1.9 11.3 5 16.6 6.5 11.2 19.2 21.5 36.5 30.4 6.7 3.4 14.2 6.7 22.2 9.7 2.1 .8 4.2 1.5 6.4 2.3l1.6 .6c14 4.7 24.1 17.3 24.1 32L144 352c0 13.3 10.7 24 24 24s24-10.7 24-24l0-127.6c0-19.2 16.9-34.1 36.1-33.1 1.4 .1 2.8 .1 4.2 .2 7.8 .3 15.7 .5 23.7 .5zm0 48c-5.4 0-10.7-.1-16-.2l0 48c5.3 .1 10.6 .2 16 .2 132.5 0 240-34.1 240-112 0-4.7-.4-9.3-1.2-13.7-4.6 6.2-9.7 11.7-14.9 16.4-16.5 15-37.6 26.2-59.6 34.7-44.4 17.1-102.5 26.6-164.3 26.6zM96.5 215.2c-1.6-.6-3.2-1.2-4.8-1.8-22-8.5-43.2-19.8-59.6-34.7-5.2-4.7-10.3-10.2-14.9-16.4-.8 4.4-1.2 9-1.2 13.7 0 41.8 30.9 70.9 80 89l0-41c0-3 .2-5.9 .5-8.8zM96 315.6c-9.9-3-19.3-6.4-28.3-10.2-18.3-7.7-36.2-17.8-51.6-30.7 .6 17.2 6.5 32.3 16.9 45.2l0 0c13.9 17.3 35.6 30.9 63.1 41l0-45.4zm144 68.2c5.3 .1 10.6 .2 16 .2 101.2 0 187.8-19.9 223.1-64l0 0c10.4-13 16.3-28 16.9-45.2-15.4 12.8-33.3 22.9-51.6 30.7-51.8 21.8-119 30.6-188.3 30.6-5.3 0-10.7-.1-16-.2l0 48zM256 432c-69.3 0-136.5-8.8-188.3-30.6-18.3-7.7-36.2-17.8-51.6-30.7 2.5 75.9 109 109.2 240 109.2s237.4-33.3 240-109.2c-15.4 12.8-33.3 22.9-51.6 30.7-51.8 21.8-119 30.6-188.3 30.6zM216 80l80 0c13.3 0 24 10.7 24 24s-10.7 24-24 24l-80 0c-13.3 0-24-10.7-24-24s10.7-24 24-24z"/></svg>