<svg xmlns="http://www.w3.org/2000/svg" viewBox="0 0 576 512"><!--! Font Awesome Pro 7.0.0 by @fontawesome - https://fontawesome.com License - https://fontawesome.com/license (Commercial License) Copyright 2025 Fonticons, Inc. --><path fill="currentColor" d="M104 24a56 56 0 1 1 112 0 56 56 0 1 1 -112 0zM80 400l-17.8 0c-10.9 0-18.6-10.7-15.2-21.1l45.3-136-32.1 60.2c-8.3 15.6-27.7 21.5-43.3 13.1S-4.5 288.5 3.8 272.9L56.6 174C77 135.8 116.8 112 160 112s83 23.8 103.4 62l24.6 46.1 24.6-46.1 0 0c20.4-38.2 60.1-62 103.4-62s83 23.8 103.4 62l52.9 98.9c8.3 15.6 2.4 35-13.1 43.3s-35 2.4-43.3-13.1l-32.1-60.2 45.3 136c3.5 10.4-4.3 21.1-15.2 21.1l-17.8 0 0 112c0 17.7-14.3 32-32 32s-32-14.3-32-32l0-112-32 0 0 112c0 17.7-14.3 32-32 32s-32-14.3-32-32l0-112-17.8 0c-10.9 0-18.6-10.7-15.2-21.1l45.3-136-32.1 60.1C310.7 313.5 299.8 320 288 320s-22.7-6.5-28.2-16.9l-32.1-60.2 45.3 136c3.5 10.4-4.3 21.1-15.2 21.1l-17.8 0 0 112c0 17.7-14.3 32-32 32s-32-14.3-32-32l0-112-32 0 0 112c0 17.7-14.3 32-32 32s-32-14.3-32-32l0-112zM360 24a56 56 0 1 1 112 0 56 56 0 1 1 -112 0z"/></svg>