<svg xmlns="http://www.w3.org/2000/svg" viewBox="0 0 576 512"><!--! Font Awesome Pro 7.0.0 by @fontawesome - https://fontawesome.com License - https://fontawesome.com/license (Commercial License) Copyright 2025 Fonticons, Inc. --><path fill="currentColor" d="M288 128a64 64 0 1 0 0-128 64 64 0 1 0 0 128zm0 32c-37.9 0-71.2 25.1-81.6 61.5L171.7 343.2c-5.8 20.4 9.5 40.8 30.8 40.8l21.6 0 0 80c0 26.5 21.5 48 48 48l32 0c26.5 0 48-21.5 48-48l0-80 21.6 0c21.3 0 36.6-20.3 30.8-40.8L369.6 221.5C359.2 185.1 325.9 160 288 160zM64 48L32 48C14.3 48 0 62.3 0 80l0 32c0 76.7 45 142.9 110 173.7-28.1 23.5-46 58.8-46 98.3l0 16c0 17.7 14.3 32 32 32l32 0c14.6 0 28.6-2.4 41.7-6.9-34.8-15.6-55.6-55.3-44.2-95l34.8-121.7c7.9-27.7 24.2-51.2 45.8-68-14-15-23.9-33.8-28-54.8-31.9-23.6-71.4-37.5-114.1-37.5zM448 432l32 0c17.7 0 32-14.3 32-32l0-16c0-39.5-17.9-74.8-46-98.3 65-30.7 110-97 110-173.7l0-32c0-17.7-14.3-32-32-32l-32 0c-42.7 0-82.2 14-114.1 37.5-4.1 20.9-14 39.8-27.9 54.8 21.5 16.9 37.8 40.4 45.8 68L450.5 330c11.4 39.8-9.4 79.4-44.2 95 13.1 4.5 27.1 6.9 41.7 6.9z"/></svg>