<svg xmlns="http://www.w3.org/2000/svg" viewBox="0 0 576 512"><!--! Font Awesome Pro 7.0.0 by @fontawesome - https://fontawesome.com License - https://fontawesome.com/license (Commercial License) Copyright 2025 Fonticons, Inc. --><path fill="currentColor" d="M180.8 121.2C164.7 30 132.8-32 96-32 43-32 0 96.9 0 256S43 544 96 544c19.8 0 38.2-17.9 53.4-48.7-39.2-5.2-69.4-38.7-69.4-79.3 0-44.2 35.8-80 80-80l28.2 0c1.2-12.7 2.2-25.8 2.8-39.1-38.8-17.5-57.3-62.7-41.3-102.6l21.9-54.9c2.6-6.4 5.6-12.5 9.2-18.3zM416 80a56 56 0 1 0 0-112 56 56 0 1 0 0 112zM275.7 181c1.2-3 4.2-5 7.4-5l35.9 0-22.7 90.6c-8.3 33.2 11 67 43.7 76.8L436 372.2 386.8 483c-7.2 16.1 .1 35.1 16.2 42.2s35.1-.1 42.2-16.2l56.6-127.4c11.7-26.4-2.4-57.2-30.1-65.5l-75.4-22.6 20.7-70.4 10 17.1c11.5 19.7 32.5 31.8 55.3 31.8l61.6 0c17.7 0 32-14.3 32-32s-14.3-32-32-32l-61.6 0-32.8-56.3c-14.3-24.6-40.6-39.7-69.1-39.7l-97.3 0c-29.4 0-55.9 17.9-66.9 45.3l-21.9 54.9c-6.6 16.4 1.4 35 17.8 41.6s35-1.4 41.6-17.8L275.7 181zM275.1 357l-2.1 5.8c-4.5 12.7-16.6 21.2-30.1 21.2L160 384c-17.7 0-32 14.3-32 32s14.3 32 32 32l82.9 0c38.2 0 72.6-22.7 87.8-57.3l-4.5-1.3c-20.4-6.1-37.9-17.6-51.2-32.4z"/></svg>