<svg xmlns="http://www.w3.org/2000/svg" viewBox="0 0 576 512"><!--! Font Awesome Pro 7.0.0 by @fontawesome - https://fontawesome.com License - https://fontawesome.com/license (Commercial License) Copyright 2025 Fonticons, Inc. --><path fill="currentColor" d="M288 0a64 64 0 1 1 0 128 64 64 0 1 1 0-128zM256 160l64 0c35.3 0 64 28.7 64 64l0 64c0 23.7-12.9 44.4-32 55.4L352 464c0 26.5-21.5 48-48 48l-32 0c-26.5 0-48-21.5-48-48l0-120.6c-19.1-11.1-32-31.7-32-55.4l0-64c0-35.3 28.7-64 64-64zM64 48c42.7 0 82.2 14 114.1 37.5 3.1 15.9 9.6 30.7 18.7 43.4-31.7 19.8-52.7 55-52.7 95.1l0 64c0 30.5 12.2 58.2 32 78.4l0 56.3c-14.8 6-31 9.3-48 9.3l-32 0c-17.7 0-32-14.3-32-32l0-16c0-39.5 17.9-74.8 46-98.3-65-30.7-110-97-110-173.7L0 80C0 62.3 14.3 48 32 48l32 0zM448 432c-17 0-33.2-3.3-48-9.3l0-56.3c19.8-20.2 32-47.8 32-78.4l0-64c0-40.1-21.1-75.3-52.7-95.1 9.1-12.7 15.6-27.5 18.7-43.4 31.9-23.6 71.4-37.5 114.1-37.5l32 0c17.7 0 32 14.3 32 32l0 32c0 76.7-45 142.9-110 173.7 28.1 23.5 46 58.8 46 98.3l0 16c0 17.7-14.3 32-32 32l-32 0z"/></svg>