<svg xmlns="http://www.w3.org/2000/svg" viewBox="0 0 640 512"><!--! Font Awesome Pro 7.0.0 by @fontawesome - https://fontawesome.com License - https://fontawesome.com/license (Commercial License) Copyright 2025 Fonticons, Inc. --><path fill="currentColor" d="M496 64a56 56 0 1 1 0 112 56 56 0 1 1 0-112zM208 240l85.9-73.6-36.2-13.6c-9.1-3.4-19.3-2.5-27.7 2.5l-53.5 32.1c-15.2 9.1-34.8 4.2-43.9-11s-4.2-34.8 11-43.9l53.5-32.1c25.1-15.1 55.7-17.8 83.1-7.6l68.6 25.7c24.4 9.1 46.5 23.4 65 41.8 22.5 22.5 38.5 50.2 46.8 80.2-4.8-.4-9.7-.6-14.5-.6-32.5 .2-64.9 10.7-92.4 31.4-22.1 16.6-29.1 16.6-51.2 0-28.1-21.1-61.3-31.6-94.4-31.4l0 0zM474.6 348.1c-21.3-16.1-49.9-16.1-71.2 0-24.2 18.3-52.3 35.9-83.4 35.9s-59.1-17.7-83.4-35.9c-21.3-16.1-49.9-16.1-71.2 0-23.8 17.9-54.1 35.5-88.1 35.3-20.4-.1-40.7-6.7-59.8-21.1-10.6-8-12.7-23-4.7-33.6s23-12.7 33.6-4.7c11.3 8.5 21.6 11.4 31.2 11.5 17.6 .1 37.3-9.4 58.9-25.7 38.4-29 90.5-29 129 0 24 18.1 40.7 26.3 54.5 26.3s30.5-8.2 54.5-26.3c38.4-29 90.5-29 129 0 16.9 12.7 32.9 21.5 47.8 24.6 13.7 2.8 27.4 .9 42.3-10.3 10.6-8 25.6-5.9 33.6 4.7s5.9 25.6-4.7 33.6c-26.4 19.9-54.2 24.4-80.7 19.1-25.3-5.1-48.1-18.9-67.2-33.3zM32 416a32 32 0 1 1 0 64 32 32 0 1 1 0-64zm144 0a32 32 0 1 1 0 64 32 32 0 1 1 0-64zm256 32a32 32 0 1 1 64 0 32 32 0 1 1 -64 0zm176-32a32 32 0 1 1 0 64 32 32 0 1 1 0-64zM288 448a32 32 0 1 1 64 0 32 32 0 1 1 -64 0z"/></svg>