<svg xmlns="http://www.w3.org/2000/svg" viewBox="0 0 448 512"><!--! Font Awesome Pro 7.1.0 by @fontawesome - https://fontawesome.com License - https://fontawesome.com/license (Commercial License) Copyright 2025 Fonticons, Inc. --><path fill="currentColor" d="M264 72a56 56 0 1 0 -112 0 56 56 0 1 0 112 0zm0 248l0-92c0-28.7-23.3-52-52-52s-52 23.3-52 52l0 92c0 35.3 28.7 64 64 64l80 0c8.8 0 16 7.2 16 16l0 80c0 17.7 14.3 32 32 32l48 0c17.7 0 32-14.3 32-32s-14.3-32-32-32l-16 0 0-48c0-44.2-35.8-80-80-80l-40 0zM112 192c0-17.7-14.3-32-32-32s-32 14.3-32 32l0 176c0 70.7 57.3 128 128 128l64 0c17.7 0 32-14.3 32-32s-14.3-32-32-32l-64 0c-35.3 0-64-28.7-64-64l0-176z"/></svg>