<svg xmlns="http://www.w3.org/2000/svg" viewBox="0 0 448 512"><!--! Font Awesome Pro 7.0.0 by @fontawesome - https://fontawesome.com License - https://fontawesome.com/license (Commercial License) Copyright 2025 Fonticons, Inc. --><path fill="currentColor" d="M182.4 72L168 72c-22.1 0-40 17.9-40 40l0 32 280 0c13.3 0 24 10.7 24 24s-10.7 24-24 24l-12.2 0-22.7 261.5c-2.9 33.1-30.6 58.5-63.8 58.5l-170.6 0c-33.2 0-60.9-25.4-63.8-58.5L52.2 192 40 192c-13.3 0-24-10.7-24-24s10.7-24 24-24l40 0 0-32c0-48.6 39.4-88 88-88l14.4 0C190.7 9.7 206.2 0 224 0l64 0c26.5 0 48 21.5 48 48s-21.5 48-48 48l-64 0c-17.8 0-33.3-9.7-41.6-24zm52.3 197.8c-4.4-8.9-17.1-8.9-21.5 0l-17.5 35.4-39 5.7c-9.8 1.4-13.8 13.5-6.7 20.5l28.2 27.5-6.7 38.9c-1.7 9.8 8.6 17.3 17.4 12.6L224 392 258.9 410.4c8.8 4.6 19.1-2.8 17.4-12.6l-6.7-38.9 28.2-27.5c7.1-6.9 3.2-19-6.7-20.5l-39-5.7-17.5-35.4z"/></svg>