<svg xmlns="http://www.w3.org/2000/svg" viewBox="0 0 640 512"><!--! Font Awesome Pro 7.0.0 by @fontawesome - https://fontawesome.com License - https://fontawesome.com/license (Commercial License) Copyright 2025 Fonticons, Inc. --><path fill="currentColor" d="M128 32c0-17.7 14.3-32 32-32L320 0c17.7 0 32 14.3 32 32s-14.3 32-32 32l0 320-256 0c0 17.7-14.3 32-32 32S0 401.7 0 384L0 224c0-17.7 14.3-32 32-32s32 14.3 32 32l96 0 0-160c-17.7 0-32-14.3-32-32zM576 96c35.3 0 64 28.7 64 64l0 288c0 35.3-28.7 64-64 64l-144 0c-35.3 0-64-28.7-64-64l0-288c0-35.3 28.7-64 64-64l144 0zM432 216c0 13.3 10.7 24 24 24l96 0c13.3 0 24-10.7 24-24s-10.7-24-24-24l-96 0c-13.3 0-24 10.7-24 24zm0 88c0 13.3 10.7 24 24 24l96 0c13.3 0 24-10.7 24-24s-10.7-24-24-24l-96 0c-13.3 0-24 10.7-24 24zm0 88c0 13.3 10.7 24 24 24l96 0c13.3 0 24-10.7 24-24s-10.7-24-24-24l-96 0c-13.3 0-24 10.7-24 24z"/></svg>