<svg xmlns="http://www.w3.org/2000/svg" viewBox="0 0 576 512"><!--! Font Awesome Pro 7.0.0 by @fontawesome - https://fontawesome.com License - https://fontawesome.com/license (Commercial License) Copyright 2025 Fonticons, Inc. --><path fill="currentColor" d="M257.4 480c-11.2-24.4-17.4-51.4-17.4-80 0-106 86-192 192-192L64 208c-35.3 0-64 28.7-64 64L0 416c0 35.3 28.7 64 64 64l193.4 0zM464 136c0-13.3-10.7-24-24-24L72 112c-13.3 0-24 10.7-24 24s10.7 24 24 24l368 0c13.3 0 24-10.7 24-24zM416 40c0-13.3-10.7-24-24-24L120 16c-13.3 0-24 10.7-24 24s10.7 24 24 24l272 0c13.3 0 24-10.7 24-24zM576 400a144 144 0 1 0 -288 0 144 144 0 1 0 288 0zm-66.3 80.7C489.5 500.1 462.2 512 432 512s-57.5-11.9-77.7-31.3c6.2-19 24-32.7 45.1-32.7l65.2 0c21 0 38.9 13.7 45.1 32.7zM384 368a48 48 0 1 1 96 0 48 48 0 1 1 -96 0z"/></svg>