<svg xmlns="http://www.w3.org/2000/svg" viewBox="0 0 512 512"><!--! Font Awesome Pro 7.0.0 by @fontawesome - https://fontawesome.com License - https://fontawesome.com/license (Commercial License) Copyright 2025 Fonticons, Inc. --><path fill="currentColor" d="M480 384a32 32 0 1 1 0 64 32 32 0 1 1 0-64zM377 239c9.4 9.4 9.4 24.6 0 33.9L233 417c-6.9 6.9-17.2 8.9-26.2 5.2S192 409.7 192 400l0-80-144 0c-26.5 0-48-21.5-48-48l0-32c0-26.5 21.5-48 48-48l144 0 0-80c0-9.7 5.8-18.5 14.8-22.2S226.1 88.2 233 95L377 239zm71 70.3a32 32 0 1 1 64 0 32 32 0 1 1 -64 0zm32-138.7a32 32 0 1 1 0 64 32 32 0 1 1 0-64zM448 96a32 32 0 1 1 64 0 32 32 0 1 1 -64 0z"/></svg>