<svg xmlns="http://www.w3.org/2000/svg" viewBox="0 0 384 512"><!--! Font Awesome Pro 7.0.0 by @fontawesome - https://fontawesome.com License - https://fontawesome.com/license (Commercial License) Copyright 2025 Fonticons, Inc. --><path fill="currentColor" d="M311.5 448l-239 0 32-256 175 0 32 256zm-239 64l239 0c38.5 0 68.3-33.7 63.5-71.9L335.9 127C326.8 54.5 265.1 0 192 0S57.2 54.5 48.1 127L9 440.1C4.2 478.3 34 512 72.5 512zM192 48a16 16 0 1 1 0 32 16 16 0 1 1 0-32zM128 96a16 16 0 1 1 32 0 16 16 0 1 1 -32 0zM240 80a16 16 0 1 1 0 32 16 16 0 1 1 0-32z"/></svg>