<svg xmlns="http://www.w3.org/2000/svg" viewBox="0 0 512 512"><!--! Font Awesome Pro 7.0.0 by @fontawesome - https://fontawesome.com License - https://fontawesome.com/license (Commercial License) Copyright 2025 Fonticons, Inc. --><path fill="currentColor" d="M320 160c0-42 26.9-77.7 64.5-90.7L369.2 27.4c-.8-2.2-1.2-4.6-1.2-7 0-11.3 9.1-20.4 20.4-20.4l55.2 0c11.3 0 20.4 9.1 20.4 20.4 0 2.4-.4 4.7-1.2 7L447.5 69.3c37.5 13 64.5 48.7 64.5 90.7 0 194.4-157.6 352-352 352-42 0-77.7-26.9-90.7-64.5L27.4 462.8c-2.2 .8-4.6 1.2-7 1.2-11.3 0-20.4-9.1-20.4-20.4l0-55.2c0-11.3 9.1-20.4 20.4-20.4 2.4 0 4.7 .4 7 1.2l41.9 15.2c13-37.5 48.7-64.5 90.7-64.5 88.4 0 160-71.6 160-160zm92 8c0-11-9-20-20-20s-20 9-20 20c0 112.7-91.3 204-204 204-11 0-20 9-20 20s9 20 20 20c134.8 0 244-109.2 244-244z"/></svg>