<svg xmlns="http://www.w3.org/2000/svg" viewBox="0 0 512 512"><!--! Font Awesome Pro 7.0.0 by @fontawesome - https://fontawesome.com License - https://fontawesome.com/license (Commercial License) Copyright 2025 Fonticons, Inc. --><path fill="currentColor" d="M32 0C49.7 0 64 14.3 64 32l0 128 384 0 0-128c0-17.7 14.3-32 32-32s32 14.3 32 32l0 448c0 17.7-14.3 32-32 32s-32-14.3-32-32L64 480c0 17.7-14.3 32-32 32S0 497.7 0 480L0 32C0 14.3 14.3 0 32 0zM64 416l384 0 0-192-384 0 0 192zm88-160l48 0c22.1 0 40 17.9 40 40l0 48c0 22.1-17.9 40-40 40l-48 0c-22.1 0-40-17.9-40-40l0-48c0-22.1 17.9-40 40-40zm120 40c0-22.1 17.9-40 40-40l48 0c22.1 0 40 17.9 40 40l0 48c0 22.1-17.9 40-40 40l-48 0c-22.1 0-40-17.9-40-40l0-48zM312 0l48 0c22.1 0 40 17.9 40 40l0 48c0 22.1-17.9 40-40 40l-48 0c-22.1 0-40-17.9-40-40l0-48c0-22.1 17.9-40 40-40z"/></svg>