<svg xmlns="http://www.w3.org/2000/svg" viewBox="0 0 640 512"><!--! Font Awesome Pro 7.0.0 by @fontawesome - https://fontawesome.com License - https://fontawesome.com/license (Commercial License) Copyright 2025 Fonticons, Inc. --><path fill="currentColor" d="M21.5 181.1L78.3 67.4C89.2 45.7 111.3 32 135.6 32l304.9 0c24.2 0 46.4 13.7 57.2 35.4l56.8 113.7c3.6 7.2 5.5 15.1 5.5 23.2 0 27.3-21.2 49.7-48 51.6l0 48.1-64 0 0-48-96 0 0 48-64 0 0-48-160 0 0 112c0 8.8 7.2 16 16 16l160 0 0 96-192 0c-26.5 0-48-21.5-48-48l0-176.1c-26.8-1.9-48-24.3-48-51.6 0-8 1.9-16 5.5-23.2zM348 400c0-28.7 23.3-52 52-52s52 23.3 52 52l0 1c0 14.6-5.4 28.7-15 39.6L405.4 476 432 476c11 0 20 9 20 20s-9 20-20 20l-58.2 0c-14.2 0-25.8-11.5-25.8-25.8 0-6.3 2.3-12.4 6.5-17.1L407.1 414c3.2-3.6 4.9-8.2 4.9-13l0-1c0-6.6-5.4-12-12-12s-12 5.4-12 12c0 11-9 20-20 20s-20-9-20-20zm128 32l0-64c0-11 9-20 20-20s20 9 20 20l0 44 24 0 0-44c0-11 9-20 20-20s20 9 20 20l0 128c0 11-9 20-20 20s-20-9-20-20l0-44-44 0c-5.3 0-10.4-2.1-14.1-5.9S476 437.3 476 432z"/></svg>