<svg xmlns="http://www.w3.org/2000/svg" viewBox="0 0 512 512"><!--! Font Awesome Pro 7.0.0 by @fontawesome - https://fontawesome.com License - https://fontawesome.com/license (Commercial License) Copyright 2025 Fonticons, Inc. --><path fill="currentColor" d="M64 448l192 0 0-384-192 0C28.7 64 0 92.7 0 128L0 384c0 35.3 28.7 64 64 64zM448 64l-144 0 0 384 144 0c35.3 0 64-28.7 64-64l0-256c0-35.3-28.7-64-64-64zm-8 64c13.3 0 24 10.7 24 24s-10.7 24-24 24l-64 0c-13.3 0-24-10.7-24-24s10.7-24 24-24l64 0zm24 112c0 13.3-10.7 24-24 24l-64 0c-13.3 0-24-10.7-24-24s10.7-24 24-24l64 0c13.3 0 24 10.7 24 24zm-24 64c13.3 0 24 10.7 24 24s-10.7 24-24 24l-64 0c-13.3 0-24-10.7-24-24s10.7-24 24-24l64 0z"/></svg>