<svg xmlns="http://www.w3.org/2000/svg" viewBox="0 0 512 512"><!--! Font Awesome Pro 7.0.0 by @fontawesome - https://fontawesome.com License - https://fontawesome.com/license (Commercial License) Copyright 2025 Fonticons, Inc. --><path fill="currentColor" d="M64 48l0 16C28.7 64 0 92.7 0 128L0 384c0 35.3 28.7 64 64 64l0 32c0 17.7 14.3 32 32 32s32-14.3 32-32l0-32 256 0 0 32c0 17.7 14.3 32 32 32s32-14.3 32-32l0-32c35.3 0 64-28.7 64-64l0-256c0-35.3-28.7-64-64-64l0-16c0-17.7-14.3-32-32-32s-32 14.3-32 32l0 16-256 0 0-16c0-17.7-14.3-32-32-32S64 30.3 64 48z"/></svg>