<svg xmlns="http://www.w3.org/2000/svg" viewBox="0 0 640 512"><!--! Font Awesome Pro 7.0.0 by @fontawesome - https://fontawesome.com License - https://fontawesome.com/license (Commercial License) Copyright 2025 Fonticons, Inc. --><path fill="currentColor" d="M616 392c13.3 0 24 10.7 24 24l0 8c0 48.6-39.4 88-88 88L24 512c-13.3 0-24-10.7-24-24s10.7-24 24-24l528 0c22.1 0 40-17.9 40-40l0-8c0-13.3 10.7-24 24-24zM393.5 0c19.9 0 34.7 18.3 30.7 37.7L412 96 344 96c-13.2 0-24 10.8-24 24s10.8 24 24 24l58 0-10 48-64 0c-13.2 0-24 10.8-24 24s10.8 24 24 24l54 0 88.2 32.6c25.1 9.3 41.8 33.2 41.8 60l0 19.4c0 35.3-28.7 64-64 64l-293 0c-30.4 0-53.2-28-47-57.8l27.3-131.3c4.1-.7 9.6-1.8 16-3.6 14.1-4.1 32.9-11.9 52.6-26.3 37-27.2 75-76.7 92.2-165l65.2 0 1.5-7.1C365.8 10.4 378.6 0 393.5 0zM255.3 32c-16.1 74.6-48 112.9-75 132.7-13.3 9.8-26 15.4-35.8 18.7L165.4 83c6.2-29.7 32.3-51 62.7-51l27.2 0z"/></svg>