<svg xmlns="http://www.w3.org/2000/svg" viewBox="0 0 576 512"><!--! Font Awesome Pro 7.0.0 by @fontawesome - https://fontawesome.com License - https://fontawesome.com/license (Commercial License) Copyright 2025 Fonticons, Inc. --><path fill="currentColor" d="M327.9 111.3c-22-9.8-46.3-15.3-71.9-15.3-80.6 0-148.5 54.1-169.4 128-8.6 3.9-16.8 8.6-24.6 13.8-37.2-22.4-62.1-63.2-62.1-109.7 0-70.7 57.3-128 128-128 40.1 0 75.9 18.4 99.3 47.3 18.1-9.7 38.7-15.3 60.7-15.3 38.5 0 73 17 96.4 43.8-21.1 8.2-40.3 20.3-56.5 35.5zM144.7 208.7c22-38.6 63.6-64.7 111.3-64.7 31.3 0 60.1 11.3 82.3 30 22.4-37.1 63.1-62 109.7-62 70.7 0 128 57.3 128 128 0 37.3-16 70.9-41.4 94.3-23-33.3-59.6-56.4-101.9-61.3-29.1-39.4-75.9-65-128.7-65-25.1 0-49 5.8-70.2 16.2-22.5-10.4-47.5-16.2-73.8-16.2-5.1 0-10.2 .2-15.3 .7zM160 512C89.3 512 32 454.7 32 384S89.3 256 160 256c27.9 0 53.7 8.9 74.7 24 19.1-15 43.1-24 69.3-24 44.9 0 83.6 26.4 101.5 64.6 3.4-.4 7-.6 10.5-.6 53 0 96 43 96 96s-43 96-96 96l-256 0z"/></svg>