<svg xmlns="http://www.w3.org/2000/svg" viewBox="0 0 448 512"><!--! Font Awesome Pro 7.0.0 by @fontawesome - https://fontawesome.com License - https://fontawesome.com/license (Commercial License) Copyright 2025 Fonticons, Inc. --><path fill="currentColor" d="M160-32C124.7-32 96-3.3 96 32l0 352c0 35.3 28.7 64 64 64l224 0c35.3 0 64-28.7 64-64l0-352c0-35.3-28.7-64-64-64L160-32zM272 184a104 104 0 1 1 0 208 104 104 0 1 1 0-208zm56 104a56 56 0 1 0 -112 0 56 56 0 1 0 112 0zM240 64a32 32 0 1 1 64 0 32 32 0 1 1 -64 0zM48 88c0-13.3-10.7-24-24-24S0 74.7 0 88L0 480c0 35.3 28.7 64 64 64l264 0c13.3 0 24-10.7 24-24s-10.7-24-24-24L64 496c-8.8 0-16-7.2-16-16L48 88z"/></svg>