<svg xmlns="http://www.w3.org/2000/svg" viewBox="0 0 512 512"><!--! Font Awesome Pro 7.0.0 by @fontawesome - https://fontawesome.com License - https://fontawesome.com/license (Commercial License) Copyright 2025 Fonticons, Inc. --><path fill="currentColor" d="M403.8 2.4c12-5 25.7-2.2 34.9 6.9l64 64c6 6 9.4 14.1 9.4 22.6s-3.4 16.6-9.4 22.6l-64 64c-9.2 9.2-22.9 11.9-34.9 6.9S384 172.9 384 160l0-32-37.5 0c-8.5 0-16.6 3.4-22.6 9.4L205.3 256 323.9 374.6c6 6 14.1 9.4 22.6 9.4l37.5 0 0-32c0-12.9 7.8-24.6 19.8-29.6s25.7-2.2 34.9 6.9l64 64c6 6 9.4 14.1 9.4 22.6s-3.4 16.6-9.4 22.6l-64 64c-9.2 9.2-22.9 11.9-34.9 6.9S384 492.9 384 480l0-32-37.5 0c-25.5 0-49.9-10.1-67.9-28.1L146.7 288 32 288c-17.7 0-32-14.3-32-32s14.3-32 32-32l114.7 0 131.9-131.9c18-18 42.4-28.1 67.9-28.1l37.5 0 0-32c0-12.9 7.8-24.6 19.8-29.6z"/></svg>