<svg xmlns="http://www.w3.org/2000/svg" viewBox="0 0 384 512"><!--! Font Awesome Pro 7.0.0 by @fontawesome - https://fontawesome.com License - https://fontawesome.com/license (Commercial License) Copyright 2025 Fonticons, Inc. --><path fill="currentColor" d="M0 0L0 96c0 15.3 10.8 28.4 25.7 31.4L128 147.8 128 82.6 64 69.8 64 0 0 0zM256 82.6l0 65.3 102.3-20.5c15-3 25.7-16.1 25.7-31.4l0-96-64 0 0 69.8-64 12.8zM160 344a24 24 0 1 0 -48 0 24 24 0 1 0 48 0zm-48 64c0-13.3-10.7-24-24-24s-24 10.7-24 24 10.7 24 24 24 24-10.7 24-24zM24 496c13.3 0 24-10.7 24-24s-10.7-24-24-24-24 10.7-24 24 10.7 24 24 24zM272 344a24 24 0 1 0 -48 0 24 24 0 1 0 48 0zm-80 88c13.3 0 24-10.7 24-24s-10.7-24-24-24-24 10.7-24 24 10.7 24 24 24zm-32 40c0-13.3-10.7-24-24-24s-24 10.7-24 24 10.7 24 24 24 24-10.7 24-24zm136-40c13.3 0 24-10.7 24-24s-10.7-24-24-24-24 10.7-24 24 10.7 24 24 24zm-24 40c0-13.3-10.7-24-24-24s-24 10.7-24 24 10.7 24 24 24 24-10.7 24-24zm88 24c13.3 0 24-10.7 24-24s-10.7-24-24-24-24 10.7-24 24 10.7 24 24 24zM224 64c0-17.7-14.3-32-32-32s-32 14.3-32 32l0 128-64 0c-17.7 0-32 14.3-32 32s14.3 32 32 32l192 0c17.7 0 32-14.3 32-32s-14.3-32-32-32l-64 0 0-128z"/></svg>