<svg xmlns="http://www.w3.org/2000/svg" viewBox="0 0 448 512"><!--! Font Awesome Pro 7.0.0 by @fontawesome - https://fontawesome.com License - https://fontawesome.com/license (Commercial License) Copyright 2025 Fonticons, Inc. --><path fill="currentColor" d="M64 32C28.7 32 0 60.7 0 96L0 416c0 35.3 28.7 64 64 64l320 0c35.3 0 64-28.7 64-64l0-320c0-35.3-28.7-64-64-64L64 32zm160 76c6 0 11.5 3.4 14.3 8.7l35.9 70.3 77.9 12.4c5.9 .9 10.8 5.1 12.7 10.9s.4 12-3.9 16.3l-55.8 55.8 12.3 77.9c.9 5.9-1.5 11.9-6.4 15.4s-11.3 4-16.7 1.3L224 341.3 153.7 377c-5.4 2.7-11.8 2.2-16.7-1.3s-7.3-9.5-6.4-15.4l12.3-77.9-55.8-55.8c-4.2-4.3-5.8-10.5-3.9-16.3s6.8-9.9 12.7-10.9l77.9-12.4 35.9-70.3c2.7-5.4 8.2-8.7 14.3-8.7z"/></svg>