<svg xmlns="http://www.w3.org/2000/svg" viewBox="0 0 448 512"><!--! Font Awesome Pro 7.0.0 by @fontawesome - https://fontawesome.com License - https://fontawesome.com/license (Commercial License) Copyright 2025 Fonticons, Inc. --><path fill="currentColor" d="M64 32C28.7 32 0 60.7 0 96L0 416c0 35.3 28.7 64 64 64l320 0c35.3 0 64-28.7 64-64l0-320c0-35.3-28.7-64-64-64L64 32zm40 112l72 0c13.3 0 24 10.7 24 24s-10.7 24-24 24l-48 0 0 43.2 40 0c13.3 0 24 10.7 24 24s-10.7 24-24 24l-40 0 0 36.8 49.6 0c13.3 0 24 10.7 24 24s-10.7 24-24 24L104 368c-13.3 0-24-10.7-24-24l0-176c0-13.3 10.7-24 24-24zm152 0l88 0c8.3 0 16 4.3 20.4 11.4s4.8 15.9 1 23.4L294.8 320 344 320c13.3 0 24 10.7 24 24s-10.7 24-24 24l-88 0c-8.3 0-16-4.3-20.4-11.4s-4.8-15.9-1-23.4L305.2 192 256 192c-13.3 0-24-10.7-24-24s10.7-24 24-24z"/></svg>