<svg xmlns="http://www.w3.org/2000/svg" viewBox="0 0 576 512"><!--! Font Awesome Pro 7.1.0 by @fontawesome - https://fontawesome.com License - https://fontawesome.com/license (Commercial License) Copyright 2025 Fonticons, Inc. --><path fill="currentColor" d="M288.1-32c9 0 17.3 5.1 21.4 13.1l73.6 144.2 159.9 25.4c8.9 1.4 16.3 7.7 19.1 16.3s.5 18-5.8 24.4L441.7 305.9 467 465.8c1.4 8.9-2.3 17.9-9.6 23.2s-17 6.1-25 2L288.1 417.6 143.8 491c-8 4.1-17.7 3.3-25-2s-11-14.2-9.6-23.2L134.4 305.9 20 191.4c-6.4-6.4-8.6-15.8-5.8-24.4s10.2-14.9 19.1-16.3l159.8-25.4 73.6-144.2 1.7-2.9c4.5-6.3 11.8-10.2 19.7-10.2zm0 336a32 32 0 1 0 0 64 32 32 0 1 0 0-64zm0-176c-18.3 0-32.8 15.7-31.3 34l7.3 88c1 12.4 11.4 22 23.9 22s22.9-9.6 23.9-22l7.3-88c1.5-18.3-12.9-34-31.3-34z"/></svg>