<svg xmlns="http://www.w3.org/2000/svg" viewBox="0 0 512 512"><!--! Font Awesome Pro 7.0.0 by @fontawesome - https://fontawesome.com License - https://fontawesome.com/license (Commercial License) Copyright 2025 Fonticons, Inc. --><path fill="currentColor" d="M232 488c0 13.3 10.7 24 24 24s24-10.7 24-24l0-56c0-13.3-10.7-24-24-24s-24 10.7-24 24l0 56zm0-408c0 13.3 10.7 24 24 24s24-10.7 24-24l0-56c0-13.3-10.7-24-24-24s-24 10.7-24 24l0 56zM75 75c-9.4 9.4-9.4 24.6 0 33.9l39.6 39.6c9.4 9.4 24.6 9.4 33.9 0s9.4-24.6 0-33.9L108.9 75c-9.4-9.4-24.6-9.4-33.9 0zM363.5 363.5c-9.4 9.4-9.4 24.6 0 33.9L403.1 437c9.4 9.4 24.6 9.4 33.9 0s9.4-24.6 0-33.9l-39.6-39.6c-9.4-9.4-24.6-9.4-33.9 0zM0 256c0 13.3 10.7 24 24 24l56 0c13.3 0 24-10.7 24-24s-10.7-24-24-24l-56 0c-13.3 0-24 10.7-24 24zm408 0c0 13.3 10.7 24 24 24l56 0c13.3 0 24-10.7 24-24s-10.7-24-24-24l-56 0c-13.3 0-24 10.7-24 24zM75 437c9.4 9.4 24.6 9.4 33.9 0l39.6-39.6c9.4-9.4 9.4-24.6 0-33.9s-24.6-9.4-33.9 0L75 403.1c-9.4 9.4-9.4 24.6 0 33.9zM363.5 148.5c9.4 9.4 24.6 9.4 33.9 0L437 108.9c9.4-9.4 9.4-24.6 0-33.9s-24.6-9.4-33.9 0l-39.6 39.6c-9.4 9.4-9.4 24.6 0 33.9zM256 368a112 112 0 1 0 0-224 112 112 0 1 0 0 224z"/></svg>