<svg xmlns="http://www.w3.org/2000/svg" viewBox="0 0 512 512"><!--! Font Awesome Pro 7.0.0 by @fontawesome - https://fontawesome.com License - https://fontawesome.com/license (Commercial License) Copyright 2025 Fonticons, Inc. --><path fill="currentColor" d="M0 66.7L0 16C0 7.2 7.2 0 16 0L66.7 0c8.5 0 16.6 3.4 22.6 9.4l276.7 276.7-80 80-276.7-276.7C3.4 83.4 0 75.2 0 66.7zM400 448l-79.6 26.5c-10.1 3.4-21.1 .7-28.6-6.8-10.9-10.9-10.9-28.6 0-39.6L428.2 291.8c10.9-10.9 28.6-10.9 39.6 0 7.5 7.5 10.1 18.6 6.8 28.6L448 400 489.4 441.4c12.5 12.5 12.5 32.8 0 45.3l-2.7 2.7c-12.5 12.5-32.8 12.5-45.3 0L400 448zM112 320l30.1-30.1 80 80-30.1 30.1 28.2 28.2c10.9 10.9 10.9 28.6 0 39.6-7.5 7.5-18.6 10.1-28.6 6.8L112 448 70.6 489.4c-12.5 12.5-32.8 12.5-45.3 0l-2.7-2.7c-12.5-12.5-12.5-32.8 0-45.3L64 400 37.5 320.4c-3.4-10.1-.7-21.1 6.8-28.6 10.9-10.9 28.6-10.9 39.6 0L112 320zM502.6 89.4l-132.7 132.7-80-80 132.7-132.7c6-6 14.1-9.4 22.6-9.4L496 0c8.8 0 16 7.2 16 16l0 50.7c0 8.5-3.4 16.6-9.4 22.6z"/></svg>