<svg xmlns="http://www.w3.org/2000/svg" viewBox="0 0 576 512"><!--! Font Awesome Pro 7.0.0 by @fontawesome - https://fontawesome.com License - https://fontawesome.com/license (Commercial License) Copyright 2025 Fonticons, Inc. --><path fill="currentColor" d="M41-24.9c-9.4-9.4-24.6-9.4-33.9 0S-2.3-.3 7 9.1l528 528c9.4 9.4 24.6 9.4 33.9 0s9.4-24.6 0-33.9l-137-137c-.5-41.9-19-79.5-48-105.5L384 96c0-53-43-96-96-96s-96 43-96 96l0 30.2-151-151zm223 223L264 88c0-13.3 10.7-24 24-24s24 10.7 24 24l0 158.2-48-48zM224 368c0-20.3 9.4-38.3 24.1-50.1l-56.7-56.7c-29.1 26.3-47.4 64.4-47.4 106.8 0 79.5 64.5 144 144 144 42.4 0 80.4-18.3 106.8-47.4l-56.7-56.7c-11.7 14.7-29.8 24.1-50.1 24.1-35.3 0-64-28.7-64-64z"/></svg>