<svg xmlns="http://www.w3.org/2000/svg" viewBox="0 0 512 512"><!--! Font Awesome Pro 7.0.0 by @fontawesome - https://fontawesome.com License - https://fontawesome.com/license (Commercial License) Copyright 2025 Fonticons, Inc. --><path fill="currentColor" d="M256 0C114.6 0 0 114.6 0 256L0 448c0 35.3 28.7 64 64 64l30.1 0 66-66c-27.6-7.1-48.1-32.2-48.1-62l0-192c0-35.3 28.7-64 64-64l160 0c35.3 0 64 28.7 64 64l0 192c0 29.8-20.4 54.9-48.1 62l66 66 30.1 0c35.3 0 64-28.7 64-64l0-192C512 114.6 397.4 0 256 0zm94.1 512l-64-64-60.1 0-64 64 188.1 0zM280 320l48 0c13.3 0 24-10.7 24-24l0-80c0-13.3-10.7-24-24-24l-48 0 0 128zM232 192l-48 0c-13.3 0-24 10.7-24 24l0 80c0 13.3 10.7 24 24 24l48 0 0-128zM184 400a24 24 0 1 0 0-48 24 24 0 1 0 0 48zm168-24a24 24 0 1 0 -48 0 24 24 0 1 0 48 0z"/></svg>