<svg xmlns="http://www.w3.org/2000/svg" viewBox="0 0 512 512"><!--! Font Awesome Pro 7.0.0 by @fontawesome - https://fontawesome.com License - https://fontawesome.com/license (Commercial License) Copyright 2025 Fonticons, Inc. --><path fill="currentColor" d="M0 240C0 354.9 93.1 448 208 448l128 0 0 48c0 12.9 7.8 24.6 19.8 29.6s25.7 2.2 34.9-6.9l112-112 2.2-2.4c10.2-12.6 9.5-31.1-2.2-42.8l-112-112c-9.2-9.2-22.9-11.9-34.9-6.9S336 259.1 336 272l0 48-128 0c-44.2 0-80-35.8-80-80s35.8-80 80-80l208 0c17.7 0 32-14.3 32-32l0-64c0-17.7-14.3-32-32-32L208 32C93.1 32 0 125.1 0 240z"/></svg>