<svg xmlns="http://www.w3.org/2000/svg" viewBox="0 0 576 512"><!--! Font Awesome Pro 7.0.0 by @fontawesome - https://fontawesome.com License - https://fontawesome.com/license (Commercial License) Copyright 2025 Fonticons, Inc. --><path fill="currentColor" d="M103.2 80L72.5 80c-13.3 0-24 10.7-24 24s10.7 24 24 24l24 0 0 16c0 70.7 57.3 128 128 128 7.3 0 14.5-.6 21.5-1.8 21.7-26.8 51.5-46.7 85.7-56.2 13.2-20.1 20.9-44.2 20.9-70.1l0-16 24 0c13.3 0 24-10.7 24-24s-10.7-24-24-24l-30.7 0c-10.4-53.7-31.9-112-68.3-112-9.6 0-19 3.9-27.5 8.2-8.2 4.1-18.4 7.8-25.5 7.8s-17.3-3.7-25.5-7.8c-8.5-4.3-17.9-8.2-27.5-8.2-36.4 0-57.8 58.3-68.3 112zM194 304c-9.7 0-17.5 7.8-17.5 17.5 0 4.2 1.5 8.2 4.2 11.4l27.4 32-31 115.1-.6 0-34.6-138.5c-2.2-8.7-11.1-14-19.5-10.8-61.9 23.6-105.9 83.6-105.9 153.8 0 15.1 12.3 27.4 27.4 27.4l233.9 0c-42-30.5-69.3-80.1-69.3-136 0-25.8 5.8-50.2 16.2-72L194 304zM304.5 128l0 16c0 44.2-35.8 80-80 80s-80-35.8-80-80l0-16 160 0zm72 176.1a72 72 0 1 1 0 144 72 72 0 1 1 0-144zm0 192c24.5 0 47.2-7.3 66.2-19.9l60.8 60.9c9.4 9.4 24.6 9.4 33.9 0s9.4-24.6 0-33.9l-60.8-60.9c12.6-19 19.9-41.7 19.9-66.2 0-66.3-53.7-120-120-120s-120 53.7-120 120 53.7 120 120 120z"/></svg>