<svg xmlns="http://www.w3.org/2000/svg" viewBox="0 0 448 512"><!--! Font Awesome Pro 7.0.0 by @fontawesome - https://fontawesome.com License - https://fontawesome.com/license (Commercial License) Copyright 2025 Fonticons, Inc. --><path fill="currentColor" d="M144 144c0 44.2 35.8 80 80 80s80-35.8 80-80l0-32-17.9 0c-27.5 0-52-17.6-60.7-43.8l-1.4-4.2-1.4 4.2c-8.7 26.1-33.2 43.8-60.7 43.8l-17.9 0 0 32zm208 0c0 24.7-7 47.8-19.1 67.3l15 22.5c2.7 4 4.1 8.8 4.1 13.6 0 13.6-11 24.6-24.6 24.6l-206.9 0c-13.6 0-24.6-11-24.6-24.6 0-4.8 1.4-9.6 4.1-13.6l15-22.5C103 191.8 96 168.7 96 144l0-32 0-1.4c-9.3-3.3-16-12.2-16-22.6 0-13.3 10.7-24 24-24 .9 0 1.8 .1 2.7 .2 17.9-37.9 56.6-64.2 101.3-64.2l32 0c44.7 0 83.4 26.2 101.3 64.2 .9-.1 1.8-.2 2.7-.2 13.3 0 24 10.7 24 24 0 10.5-6.7 19.3-16 22.6l0 1.4 0 32zM193.5 304l61 0c9.7 0 17.5 7.8 17.5 17.5 0 4.2-1.5 8.2-4.2 11.4l-27.4 32 31 115.1 .6 0 34.6-138.5c2.2-8.7 11.1-14 19.5-10.8 61.9 23.6 105.9 83.6 105.9 153.8 0 15.1-12.3 27.4-27.4 27.4L43.4 512c-15.1 0-27.4-12.3-27.4-27.4 0-70.2 44-130.2 105.9-153.8 8.4-3.2 17.3 2.1 19.5 10.8l34.6 138.5 .6 0 31-115.1-27.4-32c-2.7-3.2-4.2-7.2-4.2-11.4 0-9.7 7.8-17.5 17.5-17.5z"/></svg>