<svg xmlns="http://www.w3.org/2000/svg" viewBox="0 0 448 512"><!--! Font Awesome Pro 7.0.0 by @fontawesome - https://fontawesome.com License - https://fontawesome.com/license (Commercial License) Copyright 2025 Fonticons, Inc. --><path fill="currentColor" d="M304 144c0 44.2-35.8 80-80 80s-80-35.8-80-80l0-16 48 0c20.8 0 41-6.7 57.6-19.2L288 80 288 80c10 13.4 16 30 16 48l0 16zM224 0C153.3 0 96 57.3 96 128l0 16c0 70.7 57.3 128 128 128s128-57.3 128-128l0-16C352 57.3 294.7 0 224 0zM180.6 320C89.7 320 16 393.7 16 484.6 16 499.7 28.3 512 43.4 512l361.1 0c15.1 0 27.4-12.3 27.4-27.4 0-90.9-73.7-164.6-164.6-164.6l-86.9 0z"/></svg>