<svg xmlns="http://www.w3.org/2000/svg" viewBox="0 0 448 512"><!--! Font Awesome Pro 7.0.0 by @fontawesome - https://fontawesome.com License - https://fontawesome.com/license (Commercial License) Copyright 2025 Fonticons, Inc. --><path fill="currentColor" d="M215.6-29.7L65.7 11.2C55.3 14 48 23.5 48 34.4 48 42.8 52.4 50.7 59.7 55L80 67.2 80 91.8c0 11.4 6 21.8 16 26.7L96 144c0 70.7 57.3 128 128 128s128-57.3 128-128l0-25.5c10-5 16-15.4 16-26.7l0-24.6 20.3-12.2c7.2-4.3 11.7-12.2 11.7-20.6 0-10.8-7.3-20.4-17.7-23.2L232.4-29.7c-5.5-1.5-11.3-1.5-16.8 0zM144 133.7c23.2 5.7 50.9 10.3 80 10.3s56.8-4.6 80-10.3l0 10.3c0 44.2-35.8 80-80 80s-80-35.8-80-80l0-10.3zM254.5 304l-61 0c-9.7 0-17.5 7.8-17.5 17.5 0 4.2 1.5 8.2 4.2 11.4l27.4 32-31 115.1-.6 0-34.6-138.5c-2.2-8.7-11.1-14-19.5-10.8-61.9 23.6-105.9 83.6-105.9 153.8 0 15.1 12.3 27.4 27.4 27.4l361.1 0c15.1 0 27.4-12.3 27.4-27.4 0-70.2-44-130.2-105.9-153.8-8.4-3.2-17.3 2.1-19.5 10.8l-34.6 138.5-.6 0-31-115.1 27.4-32c2.7-3.2 4.2-7.2 4.2-11.4 0-9.7-7.8-17.5-17.5-17.5zM229.7 29.7l28.7 28.7c3.1 3.1 3.1 8.2 0 11.3L229.7 98.3c-3.1 3.1-8.2 3.1-11.3 0L189.7 69.7c-3.1-3.1-3.1-8.2 0-11.3l28.7-28.7c3.1-3.1 8.2-3.1 11.3 0z"/></svg>