<svg xmlns="http://www.w3.org/2000/svg" viewBox="0 0 448 512"><!--! Font Awesome Pro 7.0.0 by @fontawesome - https://fontawesome.com License - https://fontawesome.com/license (Commercial License) Copyright 2025 Fonticons, Inc. --><path fill="currentColor" d="M215.6-29.7L65.7 11.2C55.3 14 48 23.5 48 34.4 48 42.8 52.4 50.7 59.7 55L80 67.2 80 91.8c0 11.4 6 21.8 16 26.7l0 33.7c0 25.5-10.1 49.9-28.1 67.9L54.6 233.4c-4.2 4.2-6.6 10-6.6 16 0 12.5 10.1 22.6 22.6 22.6l306.7 0c12.5 0 22.6-10.1 22.6-22.6 0-6-2.4-11.8-6.6-16l-13.3-13.3c-18-18-28.1-42.4-28.1-67.9l0-33.7c10-5 16-15.4 16-26.7l0-24.6 20.3-12.2c7.2-4.3 11.7-12.2 11.7-20.6 0-10.8-7.3-20.4-17.7-23.2L232.4-29.7c-5.5-1.5-11.3-1.5-16.8 0zM224 224c-44.2 0-80-35.8-80-80l0-10.3c23.2 5.7 50.9 10.3 80 10.3s56.8-4.6 80-10.3l0 10.3c0 44.2-35.8 80-80 80zm48 97.5c0-9.7-7.8-17.5-17.5-17.5l-61 0c-9.7 0-17.5 7.8-17.5 17.5 0 4.2 1.5 8.2 4.2 11.4l27.4 32-31 115.1-.6 0-34.6-138.5c-2.2-8.7-11.1-14-19.5-10.8-61.9 23.6-105.9 83.6-105.9 153.8 0 15.1 12.3 27.4 27.4 27.4l361.1 0c15.1 0 27.4-12.3 27.4-27.4 0-70.2-44-130.2-105.9-153.8-8.4-3.2-17.3 2.1-19.5 10.8l-34.6 138.5-.6 0-31-115.1 27.4-32c2.7-3.2 4.2-7.2 4.2-11.4zM161.7 40.8c4-7.9 13.6-11.1 21.5-7.2L224 54.1 264.8 33.7c7.9-4 17.5-.7 21.5 7.2s.7 17.5-7.2 21.5l-48 24c-4.5 2.3-9.8 2.3-14.3 0l-48-24c-7.9-4-11.1-13.6-7.2-21.5zM336 416l32 0c8.8 0 16 7.2 16 16s-7.2 16-16 16l-32 0c-8.8 0-16-7.2-16-16s7.2-16 16-16z"/></svg>