<svg xmlns="http://www.w3.org/2000/svg" viewBox="0 0 448 512"><!--! Font Awesome Pro 7.0.0 by @fontawesome - https://fontawesome.com License - https://fontawesome.com/license (Commercial License) Copyright 2025 Fonticons, Inc. --><path fill="currentColor" d="M64 168C64 75.2 135.6 0 224 0S384 75.2 384 168c0 101.6-106.6 186.1-139.2 209.5-6.1 4.4-13.3 6.5-20.8 6.5s-14.7-2.1-20.8-6.5C170.6 354.1 64 269.6 64 168zm244.6 8c-37.9 0-68.6 30.7-68.6 68.6 0 6.3 5.1 11.4 11.4 11.4l16 0c37.9 0 68.6-30.7 68.6-68.6 0-6.3-5.1-11.4-11.4-11.4l-16 0zM208 244.6c0-37.9-30.7-68.6-68.6-68.6l-16 0c-6.3 0-11.4 5.1-11.4 11.4 0 37.9 30.7 68.6 68.6 68.6l16 0c6.3 0 11.4-5.1 11.4-11.4zM16 489.1c0-60.2 38.7-111.3 92.6-129.8 26.9 27.3 52.8 47.2 66.5 57.1 15 10.8 32.3 15.5 48.8 15.5s33.8-4.7 48.8-15.5c13.8-9.9 39.7-29.8 66.5-57.1 53.9 18.5 92.6 69.6 92.6 129.8 0 12.6-10.2 22.9-22.9 22.9L38.9 512C26.2 512 16 501.8 16 489.1z"/></svg>