<svg xmlns="http://www.w3.org/2000/svg" viewBox="0 0 448 512"><!--! Font Awesome Pro 7.0.0 by @fontawesome - https://fontawesome.com License - https://fontawesome.com/license (Commercial License) Copyright 2025 Fonticons, Inc. --><path fill="currentColor" d="M304 144l0-16c0-18-5.9-34.6-16-48l0 0-38.4 28.8C233 121.3 212.8 128 192 128l-48 0 0 16c0 44.2 35.8 80 80 80s80-35.8 80-80zM224 0c70.7 0 128 57.3 128 128l0 16c0 70.7-57.3 128-128 128S96 214.7 96 144l0-16C96 57.3 153.3 0 224 0zM193.5 304l61 0c9.7 0 17.5 7.8 17.5 17.5 0 4.2-1.5 8.2-4.2 11.4l-27.4 32 31 115.1 .6 0 34.6-138.5c2.2-8.7 11.1-14 19.5-10.8 61.9 23.6 105.9 83.6 105.9 153.8 0 15.1-12.3 27.4-27.4 27.4L43.4 512c-15.1 0-27.4-12.3-27.4-27.4 0-70.2 44-130.2 105.9-153.8 8.4-3.2 17.3 2.1 19.5 10.8l34.6 138.5 .6 0 31-115.1-27.4-32c-2.7-3.2-4.2-7.2-4.2-11.4 0-9.7 7.8-17.5 17.5-17.5z"/></svg>