<svg xmlns="http://www.w3.org/2000/svg" viewBox="0 0 576 512"><!--! Font Awesome Pro 7.0.0 by @fontawesome - https://fontawesome.com License - https://fontawesome.com/license (Commercial License) Copyright 2025 Fonticons, Inc. --><path fill="currentColor" d="M93.5 0C38.3 0-3.3 50.3 7.1 104.6l24.9 129.7 0 5.7 144 0 0-240-82.5 0zM32 288l0 112c0 61.9 50.1 112 112 112 56.4 0 103.1-41.7 110.9-96l66.3 0c7.8 54.3 54.4 96 110.9 96 61.9 0 112-50.1 112-112l0-112-512 0zm192-48l128 0 0-240-128 0 0 0 0 240zm176 0l144 0 0-5.7 24.9-129.7C579.4 50.3 537.8 0 482.6 0l-82.5 0 0 0 0 240zm87.1 127.5c5.6 9.5 8.9 20.6 8.9 32.4l0 .1c0 11.9-3.2 23-8.9 32.5l-32.5-32.5 32.5-32.5zM432 422.6l32.5 32.5c-9.5 5.6-20.6 8.9-32.5 8.9s-23-3.2-32.5-8.9L432 422.6zm-55.1 9.9c-5.6-9.5-8.9-20.6-8.9-32.5s3.2-23 8.9-32.5l32.5 32.5-32.5 32.5zM432 377.4l-32.5-32.5c9.5-5.6 20.6-8.9 32.5-8.9s23 3.2 32.5 8.9L432 377.4zM88.9 432.5C83.3 423 80 411.9 80 400s3.2-23 8.9-32.5l32.5 32.5-32.5 32.5zM144 377.4l-32.5-32.5c9.5-5.6 20.6-8.9 32.5-8.9s23 3.2 32.5 8.9L144 377.4zm-32.5 77.8l32.5-32.5 32.5 32.5c-9.5 5.6-20.6 8.9-32.5 8.9s-23-3.2-32.5-8.9zM166.7 400l32.5-32.5c5.6 9.5 8.9 20.6 8.9 32.5s-3.2 23-8.9 32.5L166.7 400z"/></svg>