<svg xmlns="http://www.w3.org/2000/svg" viewBox="0 0 576 512"><!--! Font Awesome Pro 7.0.0 by @fontawesome - https://fontawesome.com License - https://fontawesome.com/license (Commercial License) Copyright 2025 Fonticons, Inc. --><path fill="currentColor" d="M0 480L0 142.1c0-27.5 17.6-52 43.8-60.7L272.8 5.1c9.9-3.3 20.5-3.3 30.4 0L532.2 81.4c26.1 8.7 43.8 33.2 43.8 60.7L576 480c0 17.7-14.3 32-32 32s-32-14.3-32-32l0-256c0-17.7-14.3-32-32-32L96 192c-17.7 0-32 14.3-32 32l0 256c0 17.7-14.3 32-32 32S0 497.7 0 480zM160 256l128 0c17.7 0 32 14.3 32 32l0 80c0 8.8 7.2 16 16 16l80 0c17.7 0 32 14.3 32 32l0 64c0 17.7-14.3 32-32 32l-256 0c-17.7 0-32-14.3-32-32l0-192c0-17.7 14.3-32 32-32z"/></svg>