<svg xmlns="http://www.w3.org/2000/svg" viewBox="0 0 448 512"><!--! Font Awesome Pro 7.0.0 by @fontawesome - https://fontawesome.com License - https://fontawesome.com/license (Commercial License) Copyright 2025 Fonticons, Inc. --><path fill="currentColor" d="M0 64C0 28.7 28.7 0 64 0L384 0c35.3 0 64 28.7 64 64l0 384c0 35.3-28.7 64-64 64L64 512c-35.3 0-64-28.7-64-64L0 64zM368 304a144 144 0 1 0 -288 0 144 144 0 1 0 288 0zM96 120a24 24 0 1 0 0-48 24 24 0 1 0 0 48zM216 96a24 24 0 1 0 -48 0 24 24 0 1 0 48 0zm8 304c-53 0-96-43-96-96 0-17.5 4.7-33.8 12.8-48 1.1 0 2.1 0 3.2 0 64 0 96 64 160 64 5 0 10-.2 14.8-.6-7.4 45.7-47 80.6-94.8 80.6z"/></svg>