<svg xmlns="http://www.w3.org/2000/svg" viewBox="0 0 576 512"><!--! Font Awesome Pro 7.0.0 by @fontawesome - https://fontawesome.com License - https://fontawesome.com/license (Commercial License) Copyright 2025 Fonticons, Inc. --><path fill="currentColor" d="M287.1 0c14.8-.4 27.9 9.3 31.8 23.6l74 271.2 26.5-53.1c5.4-10.8 16.5-17.7 28.6-17.7l96 0c17.7 0 32 14.3 32 32s-14.3 32-32 32l-76.2 0-55.2 110.3c-5.9 11.9-18.6 18.8-31.8 17.5s-24.2-10.6-27.7-23.4l-61.4-225.1-68.4 319.4c-3.1 14.4-15.5 24.8-30.2 25.3s-27.8-9.1-31.8-23.2L103.9 288 32 288c-17.7 0-32-14.3-32-32s14.3-32 32-32l96 0c14.3 0 26.8 9.5 30.8 23.2L187.6 348 256.7 25.3C259.8 10.9 272.4 .4 287.1 0z"/></svg>