<svg xmlns="http://www.w3.org/2000/svg" viewBox="0 0 640 512"><!--! Font Awesome Pro 7.0.0 by @fontawesome - https://fontawesome.com License - https://fontawesome.com/license (Commercial License) Copyright 2025 Fonticons, Inc. --><path fill="currentColor" d="M400 64c8.8 0 16 7.2 16 16 0 17.7 14.3 32 32 32s32-14.3 32-32c0-8.8 7.2-16 16-16l112 0c17.7 0 32 14.3 32 32l0 70.3c0 15-10.4 28-25.1 31.2L413.8 242.2c1.4 9.7 2.2 19.6 2.2 29.8 0 114.9-93.1 208-208 208S0 386.9 0 272 93.1 64 208 64l192 0zM208 192a80 80 0 1 0 0 160 80 80 0 1 0 0-160z"/></svg>