<svg xmlns="http://www.w3.org/2000/svg" viewBox="0 0 640 512"><!--! Font Awesome Pro 7.0.0 by @fontawesome - https://fontawesome.com License - https://fontawesome.com/license (Commercial License) Copyright 2025 Fonticons, Inc. --><path fill="currentColor" d="M439.8 384c-40.5 58-107.7 96-183.8 96-123.7 0-224-100.3-224-224S132.3 32 256 32c118.3 0 215.2 91.8 223.4 208L408 240c-39.8 0-72 32.2-72 72s32.2 72 72 72l31.8 0zM280 160c0-13.3-10.7-24-24-24s-24 10.7-24 24l0 112c0 13.3 10.7 24 24 24s24-10.7 24-24l0-112zM256 378.7a26.7 26.7 0 1 0 0-53.3 26.7 26.7 0 1 0 0 53.3zM480 440c0-13.3 10.7-24 24-24l16 0c22.1 0 40-17.9 40-40s-17.9-40-40-40l-112 0c-13.3 0-24-10.7-24-24s10.7-24 24-24l112 0c48.6 0 88 39.4 88 88s-39.4 88-88 88l-16 0c-13.3 0-24-10.7-24-24zm46.1-216c-1.9-16.5-5.3-32.5-10.1-48l36 0c22.1 0 40-17.9 40-40s-17.9-40-40-40l-16 0c-13.3 0-24-10.7-24-24s10.7-24 24-24l16 0c48.6 0 88 39.4 88 88s-39.4 88-88 88l-25.9 0z"/></svg>