<svg xmlns="http://www.w3.org/2000/svg" viewBox="0 0 448 512"><!--! Font Awesome Pro 7.0.0 by @fontawesome - https://fontawesome.com License - https://fontawesome.com/license (Commercial License) Copyright 2025 Fonticons, Inc. --><path fill="currentColor" d="M32 208c132.5 0 240 107.5 240 240 0 17.7-14.3 32-32 32-17.7 0-32-14.3-32-32 0-97.2-78.8-176-176-176-17.7 0-32-14.3-32-32 0-17.7 14.3-32 32-32zM32 32c229.7 0 416 186.3 416 416 0 17.7-14.3 32-32 32-17.7 0-32-14.3-32-32 0-194.4-157.6-352-352-352-17.7 0-32-14.3-32-32 0-17.7 14.3-32 32-32zM82 465.9A48 48 0 1 1 14.1 398 48 48 0 1 1 82 465.9z"/></svg>