<svg xmlns="http://www.w3.org/2000/svg" viewBox="0 0 512 512"><!--! Font Awesome Pro 7.0.0 by @fontawesome - https://fontawesome.com License - https://fontawesome.com/license (Commercial License) Copyright 2025 Fonticons, Inc. --><path fill="currentColor" d="M51.8 373.9c-20.5-9.7-36.8-28-43.1-51.6S7.3 274.6 20.3 256C7.4 237.3 2.4 213.4 8.7 189.7s22.6-41.9 43.1-51.6C50 115.5 57.7 92.3 75 75s40.5-25 63.1-23.2c9.7-20.5 28-36.8 51.6-43.1S237.4 7.3 256 20.2C274.7 7.3 298.7 2.4 322.3 8.7s41.9 22.6 51.6 43.1C396.5 50 419.7 57.7 437 75s25 40.5 23.2 63.1c20.5 9.7 36.8 28 43.1 51.6s1.4 47.6-11.5 66.3c12.9 18.6 17.8 42.6 11.5 66.3s-22.6 41.9-43.1 51.6c1.8 22.6-5.9 45.8-23.2 63.1-10.6 10.6-23.5 17.6-37 21l0-6.2c0-37.4-30.4-67.8-67.8-67.8-9.5 0-18.9 2-27.5 5.8l-48.7 21.6-48.7-21.6c-8.7-3.9-18-5.8-27.5-5.8-37.4 0-67.8 30.4-67.8 67.8l0 6.2c-13.6-3.4-26.4-10.4-37-21-17.3-17.3-25-40.5-23.2-63.1zM289.2 192c-4.2 0-8.3-1.7-11.3-4.7l-10.5-10.5c-6.2-6.2-16.4-6.2-22.6 0l-10.5 10.5c-3 3-7.1 4.7-11.3 4.7L208 192c-8.8 0-16 7.2-16 16l0 14.9c0 4.2-1.7 8.3-4.7 11.3l-10.5 10.5c-6.2 6.2-6.2 16.4 0 22.6l10.5 10.5c3 3 4.7 7.1 4.7 11.3l0 14.9c0 8.8 7.2 16 16 16l14.9 0c4.2 0 8.3 1.7 11.3 4.7l10.5 10.5c6.2 6.2 16.4 6.2 22.6 0l10.5-10.5c3-3 7.1-4.7 11.3-4.7l14.9 0c8.8 0 16-7.2 16-16l0-14.9c0-4.2 1.7-8.3 4.7-11.3l10.5-10.5c6.2-6.2 6.2-16.4 0-22.6l-10.5-10.5c-3-3-4.7-7.1-4.7-11.3l0-14.9c0-8.8-7.2-16-16-16l-14.9 0zM160 451.8c0-10.9 8.9-19.8 19.8-19.8 2.8 0 5.5 .6 8 1.7L256 464 324.2 433.7c2.5-1.1 5.3-1.7 8-1.7 10.9 0 19.8 8.9 19.8 19.8l0 72.4c0 10.9-8.9 19.8-19.8 19.8-2.8 0-5.5-.6-8-1.7L256 512 187.9 542.3c-2.5 1.1-5.3 1.7-8 1.7-10.9 0-19.8-8.9-19.8-19.8l0-72.4z"/></svg>