<?xml version="1.0" standalone="no"?>
<!DOCTYPE svg PUBLIC "-//W3C//DTD SVG 1.1//EN" "http://www.w3.org/Graphics/SVG/1.1/DTD/svg11.dtd" >
<svg xmlns="http://www.w3.org/2000/svg" xmlns:xlink="http://www.w3.org/1999/xlink" version="1.1">
<metadata>
Created by FontForge 20170731 at Fri Aug  8 18:59:33 2014
 By Aleksey,,,
Copyright (c) Olivier Gourvat - Mostardesign Studio, 2012. All rights reserved.
</metadata>
<defs>
<font id="SofiaPro-Italic" horiz-adv-x="580" >
  <font-face 
    font-family="Sofia Pro"
    font-weight="400"
    font-style="italic"
    font-stretch="normal"
    units-per-em="1000"
    panose-1="2 11 0 0 0 0 0 0 0 0"
    ascent="756"
    descent="-244"
    x-height="467"
    cap-height="689"
    bbox="-173 -251 1203 1091"
    underline-thickness="50"
    underline-position="-200"
    slope="-12"
    unicode-range="U+0020-FB04"
  />
<missing-glyph horiz-adv-x="635" 
d="M555 0h-475l117 665h475zM260 431h62q7 37 32.5 60t57.5 23q33 0 52.5 -20.5t13.5 -52.5q-5 -29 -32 -50q-20 -17 -37 -21q-97 -25 -112 -110l-7 -38h62l6 38q4 21 17.5 32t41.5 18q46 13 79.5 48.5t42.5 82.5q11 59 -23.5 97t-93.5 38q-58 0 -104 -40t-58 -105zM259 131
q-4 -18 7.5 -30.5t30.5 -12.5q28 0 46 27t-1 46q-18 21 -47.5 10t-35.5 -40z" />
    <glyph glyph-name="f_f" unicode="ff" horiz-adv-x="707" 
d="M787 721h51l-16 -87h-51q-89 0 -108 -120l-8 -47h108l-14 -77h-108l-68 -390h-92l68 390h-272l-68 -390h-92l68 390h-90l14 77h90l8 47q16 98 71.5 152.5t144.5 54.5h51l-16 -87h-51q-89 0 -108 -120l-8 -47h272l8 47q16 98 71.5 152.5t144.5 54.5z" />
    <glyph glyph-name="fi" unicode="fi" horiz-adv-x="631" 
d="M557 0h-90l68 390h-258l-68 -390h-92l68 390h-90l14 77h90l8 47q16 98 71.5 152.5t144.5 54.5h51l-16 -87h-51q-89 0 -108 -120l-8 -47h348zM572 597q-15 17 -11 42t26 42t48 17t41 -17t11 -42t-26 -42q-21 -17 -47 -17t-42 17z" />
    <glyph glyph-name="fl" unicode="fl" horiz-adv-x="616" 
d="M540 0h-91l111 634h-153q-89 0 -108 -120l-8 -47h108l-14 -77h-108l-68 -390h-92l68 390h-90l14 77h90l9 47q16 98 71 152.5t144 54.5h244z" />
    <glyph glyph-name="f_f_i" unicode="ffi" horiz-adv-x="995" 
d="M831 0l68 390h-258l-68 -390h-92l68 390h-272l-68 -390h-92l68 390h-90l14 77h90l8 47q16 98 71.5 152.5t144.5 54.5h51l-16 -87h-51q-89 0 -108 -120l-8 -47h272l8 47q16 98 71.5 152.5t144.5 54.5h51l-16 -87h-51q-89 0 -108 -120l-8 -47h348l-82 -467h-90zM936 597
q-15 17 -11 42t26 42t48 17t41 -17t11 -42t-26 -42q-21 -17 -47 -17t-42 17z" />
    <glyph glyph-name="f_f_l" unicode="ffl" horiz-adv-x="980" 
d="M904 0h-91l111 634h-153q-89 0 -108 -120l-8 -47h108l-14 -77h-108l-68 -390h-92l68 390h-272l-68 -390h-92l68 390h-90l14 77h90l8 47q16 98 71.5 152.5t144.5 54.5h51l-16 -87h-51q-89 0 -108 -120l-8 -47h272l9 47q16 98 71 152.5t144 54.5h244z" />
    <glyph glyph-name="f_f_j" unicode="ffj" horiz-adv-x="987" 
d="M703 -229h-62l15 85h54q48 0 71.5 30t33.5 86l74 418h-248l-68 -390h-92l68 390h-272l-68 -390h-92l68 390h-90l14 77h90l8 47q16 98 71.5 152.5t144.5 54.5h51l-16 -87h-51q-89 0 -108 -120l-8 -47h272l8 47q16 98 71.5 152.5t144.5 54.5h51l-16 -87h-51
q-89 0 -108 -120l-8 -47h340l-88 -496q-35 -200 -204 -200zM927 597q-15 17 -11 42t26 42t48 17t41 -17t11 -42t-26 -42q-21 -17 -47 -17t-42 17z" />
    <glyph glyph-name="f_j" unicode="fj" horiz-adv-x="623" 
d="M339 -229h-62l15 85h54q48 0 71.5 30t33.5 86l74 418h-248l-68 -390h-92l68 390h-90l14 77h90l8 47q16 98 71.5 152.5t144.5 54.5h51l-16 -87h-51q-89 0 -108 -120l-8 -47h340l-88 -496q-35 -200 -204 -200zM563 597q-15 17 -11 42t26 42t48 17t41 -17t11 -42t-26 -42
q-21 -17 -47 -17t-42 17z" />
    <glyph glyph-name=".notdef" horiz-adv-x="635" 
d="M555 0h-475l117 665h475zM260 431h62q7 37 32.5 60t57.5 23q33 0 52.5 -20.5t13.5 -52.5q-5 -29 -32 -50q-20 -17 -37 -21q-97 -25 -112 -110l-7 -38h62l6 38q4 21 17.5 32t41.5 18q46 13 79.5 48.5t42.5 82.5q11 59 -23.5 97t-93.5 38q-58 0 -104 -40t-58 -105zM259 131
q-4 -18 7.5 -30.5t30.5 -12.5q28 0 46 27t-1 46q-18 21 -47.5 10t-35.5 -40z" />
    <glyph glyph-name=".null" horiz-adv-x="0" 
 />
    <glyph glyph-name="nonmarkingreturn" horiz-adv-x="333" 
 />
    <glyph glyph-name="space" unicode=" " horiz-adv-x="260" 
 />
    <glyph glyph-name="exclam" unicode="!" horiz-adv-x="264" 
d="M212 689h90l-98 -504h-71zM210 52q-4 -26 -27 -44t-51 -18q-27 -2 -42 17t-11.5 46t26.5 44q32 30 72.5 13t32.5 -58z" />
    <glyph glyph-name="quotedbl" unicode="&#x22;" horiz-adv-x="355" 
d="M146 401l50 288h71l-50 -288h-71zM280 401l50 288h71l-50 -288h-71z" />
    <glyph glyph-name="numbersign" unicode="#" horiz-adv-x="656" 
d="M684 689l-78 -174h105l-39 -85h-106l-78 -175h105l-38 -85h-105l-79 -170h-86l78 170h-107l-79 -170h-85l78 170h-104l38 85h104l77 175h-102l38 85h104l78 174h87l-78 -174h107l78 174h87zM479 430h-107l-78 -175h107z" />
    <glyph glyph-name="dollar" unicode="$" horiz-adv-x="562" 
d="M325 -9l-20 -110h-62l20 111q-88 10 -135 71t-34 136h93q-8 -47 27 -85q36 -37 99 -37q60 0 101 28t56 73q12 49 -14.5 80t-81.5 43l-84 22q-159 42 -136 180q14 79 81 131q69 54 152 61l18 100h62l-18 -101q81 -11 122 -64.5t27 -134.5h-93q9 51 -22 82t-88 31
q-51 0 -95 -29q-43 -28 -52 -75q-14 -72 80 -96l87 -22q94 -24 132 -79.5t14 -136.5q-22 -73 -86 -122.5t-150 -56.5z" />
    <glyph glyph-name="percent" unicode="%" horiz-adv-x="682" 
d="M595 673h66l-448 -673h-66zM143 539q11 56 56 95t101 39q57 0 88 -40q32 -40 22 -94q-11 -57 -56 -95q-47 -38 -102 -38q-56 0 -88 38q-32 39 -21 95zM213 539q-5 -27 10 -45t42 -18t49 18t26 45q5 26 -10.5 45t-41.5 19q-27 0 -48.5 -18.5t-26.5 -45.5zM566 257
q56 0 87 -39q33 -40 23 -95q-11 -57 -56 -95q-47 -38 -102 -38q-56 0 -88 38q-32 39 -21 95q11 57 55 95q46 39 102 39zM606 123q5 26 -11 45t-42 19q-26 2 -48 -18.5t-26 -45.5t9 -45q21 -30 67.5 -13t50.5 58z" />
    <glyph glyph-name="ampersand" unicode="&#x26;" horiz-adv-x="657" 
d="M373 422h135l17 89h86l-17 -90h87l-14 -73h-87l-23 -137q-5 -38 -5 -68.5t20.5 -49t63.5 -18.5l-13 -84q-54 0 -93 20t-54 54q-68 -74 -181 -74q-99 0 -152 63q-52 63 -35 157q21 118 135 182q-43 46 -28 124q14 72 74 122q62 50 136 50q51 0 90.5 -26.5t57.5 -71.5
l-82 -46q-24 57 -82 57q-40 0 -70 -24t-37 -61q-7 -38 13.5 -66.5t57.5 -28.5zM470 205l24 143h-137q-58 0 -105 -41q-46 -41 -57 -96q-11 -57 21 -95t93 -38q59 0 104 36t57 91z" />
    <glyph glyph-name="quotesingle" unicode="'" horiz-adv-x="221" 
d="M146 401l50 288h71l-50 -288h-71z" />
    <glyph glyph-name="parenleft" unicode="(" horiz-adv-x="363" 
d="M484 697l-16 -89q-86 0 -156 -102q-68 -101 -100 -274q-31 -172 3 -274q35 -102 120 -102l-16 -89q-125 0 -178 125q-52 123 -14 340q38 216 135 340q98 125 222 125z" />
    <glyph glyph-name="parenright" unicode=")" horiz-adv-x="363" 
d="M0 -233l13 89q86 0 155 102q69 100 101 274q32 173 -3 274q-33 102 -119 102l16 89q124 0 177 -125q52 -123 14 -340q-38 -215 -134 -340t-220 -125z" />
    <glyph glyph-name="asterisk" unicode="*" horiz-adv-x="467" 
d="M317 463l-98 -113l-51 46l104 105l-125 37l19 38l19 35l117 -49l15 135h79l-32 -135l62 23q62 23 73 26l10 -73l-136 -35l67 -108l-70 -43z" />
    <glyph glyph-name="plus" unicode="+" horiz-adv-x="519" 
d="M106 305h162l30 162h87l-30 -162h162l-14 -87h-162l-29 -163h-87l29 163h-162z" />
    <glyph glyph-name="comma" unicode="," horiz-adv-x="257" 
d="M58 -126l-59 21q87 101 105 220h96q-20 -83 -59 -146t-83 -95z" />
    <glyph glyph-name="hyphen" unicode="-" horiz-adv-x="486" 
d="M102 190l15 87h348l-15 -87h-348z" />
    <glyph glyph-name="period" unicode="." horiz-adv-x="266" 
d="M212 52q-4 -26 -27 -44t-51 -18q-27 -2 -42 17t-11.5 46t26.5 44q32 30 72.5 13t32.5 -58z" />
    <glyph glyph-name="slash" unicode="/" horiz-adv-x="501" 
d="M492 689h99l-461 -689h-99z" />
    <glyph glyph-name="zero" unicode="0" horiz-adv-x="605" 
d="M126 325q25 146 89 237q70 99 207 99q69 0 112.5 -26.5t59.5 -72t18 -106.5t-13 -131q-25 -143 -89 -235q-68 -99 -206 -99q-68 0 -111.5 26.5t-60 71.5t-19 106t12.5 130zM215 325q-45 -245 104 -245q78 0 123.5 62.5t66.5 182.5q11 70 10.5 124.5t-29 88t-84.5 33.5
q-79 0 -124.5 -63t-66.5 -183z" />
    <glyph glyph-name="one" unicode="1" horiz-adv-x="334" 
d="M238 0h-90l94 539l-112 -37l14 86l210 71z" />
    <glyph glyph-name="two" unicode="2" horiz-adv-x="527" 
d="M60 0l6 40l322 321q60 58 67 107q8 45 -20 74t-77 29q-46 0 -84 -28t-53 -75l-84 21q27 78 92 125q67 47 144 47q87 0 136 -54q50 -54 35 -139q-15 -86 -101 -169l-214 -209h249l-15 -90h-403z" />
    <glyph glyph-name="three" unicode="3" horiz-adv-x="535" 
d="M239 513l-58 53q36 48 91.5 74t114.5 22q78 -5 120 -58q42 -52 28 -123q-7 -29 -13 -40q-29 -59 -88 -89q47 -18 66 -70q21 -52 6 -106q-23 -83 -102 -137q-80 -54 -169 -47q-62 4 -108 41t-62 95l87 43q8 -36 38 -61.5t68 -28.5h-1q55 -3 102 28t58 79q10 46 -22 82
q-32 35 -83 35h-74l16 87h74q33 0 62 21t41 54q15 41 1 67q-18 35 -69 38q-68 6 -124 -59z" />
    <glyph glyph-name="four" unicode="4" horiz-adv-x="592" 
d="M572 134h-94l-23 -134h-89l23 134h-340l454 519h67l-76 -434h94zM453 491l-235 -272h187z" />
    <glyph glyph-name="five" unicode="5" horiz-adv-x="564" 
d="M72 139l84 42q10 -48 42.5 -76t79.5 -28q76 0 123.5 36t57.5 97q11 58 -21 91.5t-91 33.5q-41 0 -79 -12q-36 -11 -93 -42l-48 46l114 325h348l-14 -86h-274l-70 -185q24 16 62 27t68 11q95 0 149 -56q54 -55 37 -153q-16 -100 -96 -160q-78 -60 -188 -60
q-68 0 -120 40.5t-71 108.5z" />
    <glyph glyph-name="six" unicode="6" horiz-adv-x="556" 
d="M596 535l-85 -34q-24 75 -99 75q-68 0 -120 -64q-51 -64 -61 -164q45 74 148 74q87 0 134 -68t29 -156q-19 -87 -94 -150q-74 -62 -161 -57q-87 4 -133 63.5t-36 160.5q12 119 54 247q32 91 102 146q71 56 158 53q65 -3 105.5 -32t58.5 -94zM208 212q-10 -54 18 -91
t80 -39t93 32q42 34 54 88q12 53 -15 91q-25 37 -77 39q-52 1 -97 -33q-46 -35 -56 -87z" />
    <glyph glyph-name="seven" unicode="7" horiz-adv-x="530" 
d="M177 653h451l-473 -653h-105l410 564h-299z" />
    <glyph glyph-name="eight" unicode="8" horiz-adv-x="562" 
d="M211 494q12 70 70 118q58 49 133 49q74 0 116 -49q43 -49 31 -118q-12 -67 -72 -115q88 -61 69 -175q-17 -92 -92 -152q-74 -61 -170 -61t-150 61q-54 62 -38 152q10 54 44.5 100.5t85.5 74.5q-39 44 -27 115zM198 204q-10 -52 22.5 -88t90.5 -36q57 0 102 36
q46 36 55 88q9 51 -23 89q-31 37 -89 37l-7 -1q-55 -4 -99 -41q-43 -34 -52 -84zM300 494q-6 -33 12.5 -56.5t51.5 -23.5l8 1q37 3 65 25t34 54t-14.5 54.5t-57.5 22.5q-36 0 -64.5 -22.5t-34.5 -54.5z" />
    <glyph glyph-name="nine" unicode="9" horiz-adv-x="555" 
d="M82 116l86 34q24 -75 98 -75q68 0 120 64t61 164q-42 -74 -147 -74q-89 0 -135 67q-47 68 -27 157q19 87 94 150q75 61 162 57t132 -63.5t35 -160.5q-12 -119 -54 -247q-32 -91 -102 -146q-71 -56 -158 -53q-65 3 -106 32t-59 94zM472 439q10 54 -19 91t-80 39
q-51 1 -94 -33q-43 -35 -53 -87q-11 -54 15 -91.5t77 -38.5q53 -2 97 32q46 34 57 88z" />
    <glyph glyph-name="colon" unicode=":" horiz-adv-x="269" 
d="M213 52q-4 -26 -27 -44t-50 -18t-42.5 17.5t-11.5 44.5t26.5 45t49.5 18t43 -18t12 -45zM157 370q-15 18 -11 45t27 44q23 18 50 18t42 -18q16 -17 12 -44t-27 -45t-50 -18t-43 18z" />
    <glyph glyph-name="semicolon" unicode=";" horiz-adv-x="284" 
d="M75 -126l-66 21q89 98 107 220h101q-19 -82 -58 -145.5t-84 -95.5zM167 370q-15 18 -11 45t26 44q23 18 50 18t43 -18q16 -17 12 -44t-28 -45q-23 -18 -50 -18t-42 18z" />
    <glyph glyph-name="less" unicode="&#x3c;" horiz-adv-x="622" 
d="M575 127l-17 -95l-472 193l15 87l542 194l-18 -97l-405 -140z" />
    <glyph glyph-name="equal" unicode="=" horiz-adv-x="608" 
d="M127 303l15 87h460l-15 -87h-460zM93 110l14 87h460l-14 -87h-460z" />
    <glyph glyph-name="greater" unicode="&#x3e;" horiz-adv-x="621" 
d="M628 312l-15 -87l-541 -194l16 96l407 142l-357 140l19 97z" />
    <glyph glyph-name="question" unicode="?" horiz-adv-x="483" 
d="M219 488h-86q16 94 84 151q67 58 150 58q84 0 135 -54q52 -54 36 -141q-12 -68 -61 -119t-117 -70q-40 -10 -59 -26t-25 -47l-11 -55h-89l10 55q12 66 51.5 102.5t110.5 56.5q36 10 65.5 40t35.5 63q9 47 -21 76q-30 30 -76 30q-44 0 -85 -33q-39 -33 -48 -87zM144 8
q-16 18 -12 45t26 45q23 18 50 18t43 -18t12 -45t-27 -45q-22 -17 -49 -17t-43 17z" />
    <glyph glyph-name="at" unicode="@" horiz-adv-x="970" 
d="M644 128l23 129q10 54 -21 91q-32 38 -85 38q-54 0 -98 -38t-54 -91q-11 -53 21 -91q31 -38 85.5 -36.5t106.5 47.5l-14 -85q-53 -34 -106 -34q-82 0 -130 58t-34 141q15 83 84 141q70 59 152 59q78 0 127 -55q50 -56 39 -136l-27 -145q-12 -66 61 -66q67 0 108 77
q36 70 47 137q26 150 -67.5 250.5t-249.5 100.5q-152 0 -276 -108q-123 -106 -150 -260q-27 -155 58 -259q85 -106 237 -106h23l-12 -71h-23q-118 -2 -208.5 57t-130 160.5t-15.5 218.5q33 184 180 311q149 128 329 128q89 0 166.5 -31.5t129.5 -88.5q53 -56 75 -135t6 -167
q-17 -97 -75 -185q-28 -45 -72 -72t-93 -27q-66 0 -98.5 35.5t-18.5 107.5z" />
    <glyph glyph-name="A" unicode="A" horiz-adv-x="645" 
d="M423 565l-169 -306h228zM536 0l-37 175h-292l-97 -175h-99l383 689h100l140 -689h-98z" />
    <glyph glyph-name="B" unicode="B" horiz-adv-x="628" 
d="M631 511q-20 -110 -112 -144q51 -10 77 -62t16 -106q-15 -83 -80 -142q-64 -57 -156 -57h-282l121 689h260q86 0 128 -48t28 -130zM294 603l-36 -200h166q43 0 72.5 29.5t38.5 75.5q7 45 -15.5 70t-69.5 25h-156zM425 321h-181l-42 -234h184q49 0 86 34q38 35 45 79
q8 47 -17 83q-26 38 -75 38z" />
    <glyph glyph-name="C" unicode="C" horiz-adv-x="683" 
d="M644 168l60 -59q-122 -119 -283 -119q-147 0 -229 103t-57 250q25 145 145 250q121 104 266 104q77 0 139 -31t99 -86l-81 -58q-61 85 -172 85q-107 0 -196 -77q-88 -76 -108 -187t41 -187t169 -76q118 0 207 88z" />
    <glyph glyph-name="D" unicode="D" horiz-adv-x="724" 
d="M361 0h-267l121 689h267q144 0 210 -98q66 -97 39 -248q-27 -150 -127 -247q-100 -96 -243 -96zM292 602l-91 -515h174q103 0 174 71q69 71 89 185q20 115 -25 186q-43 73 -147 73h-174z" />
    <glyph glyph-name="E" unicode="E" horiz-adv-x="565" 
d="M94 0l121 689h408l-16 -87h-315l-38 -220h275l-16 -87h-275l-37 -208h325l-14 -87h-418z" />
    <glyph glyph-name="F" unicode="F" horiz-adv-x="526" 
d="M94 0l121 689h402l-16 -87h-309l-38 -220h245l-16 -87h-245l-51 -295h-93z" />
    <glyph glyph-name="G" unicode="G" horiz-adv-x="756" 
d="M762 606l-78 -62q-61 64 -154 64q-106 0 -195 -78q-88 -76 -108 -187t40 -187q62 -77 168 -77q93 0 164 50q71 51 90 136h-196l14 81h302q-30 -174 -132 -265t-257 -91q-147 0 -229 103q-82 102 -56 250q25 146 145 251q118 103 265 103q136 0 217 -91z" />
    <glyph glyph-name="H" unicode="H" horiz-adv-x="708" 
d="M641 689h94l-121 -689h-94l52 300h-333l-52 -300h-93l121 689h93l-54 -304h333z" />
    <glyph glyph-name="I" unicode="I" horiz-adv-x="281" 
d="M94 0l121 689h93l-121 -689h-93z" />
    <glyph glyph-name="J" unicode="J" horiz-adv-x="281" 
d="M-142 -240l24 88q26 -8 65 -8q58 0 93.5 35.5t47.5 97.5l127 716h93l-127 -716q-18 -103 -81.5 -163.5t-168.5 -60.5q-20 0 -73 11z" />
    <glyph glyph-name="K" unicode="K" horiz-adv-x="578" 
d="M651 689l-326 -344l260 -345h-125l-222 294l-51 -294h-93l121 689h93l-52 -298l280 298h115z" />
    <glyph glyph-name="L" unicode="L" horiz-adv-x="495" 
d="M94 0l121 689h93l-107 -602h281l-14 -87h-374z" />
    <glyph glyph-name="M" unicode="M" horiz-adv-x="934" 
d="M345 689l153 -506l333 506h85l-37 -689h-92l28 518l-293 -442h-82l-139 442l-154 -518h-92l205 689h85z" />
    <glyph glyph-name="N" unicode="N" horiz-adv-x="684" 
d="M711 689l-121 -689h-89l-223 519l-91 -519h-93l121 689h92l219 -515l92 515h93z" />
    <glyph glyph-name="O" unicode="O" horiz-adv-x="796" 
d="M135 343q25 146 145 251q118 103 265 103t230 -104q84 -103 58 -250q-25 -146 -146 -250q-119 -103 -267 -103q-147 0 -229 103q-82 102 -56 250zM228 343q-20 -111 40 -187t168 -76q109 0 195 76q87 77 107 187q20 111 -40 187q-60 77 -168 77q-107 0 -196 -77
q-86 -76 -106 -187z" />
    <glyph glyph-name="P" unicode="P" horiz-adv-x="606" 
d="M94 0l121 689h275q102 0 142 -63q41 -64 25 -153q-17 -91 -79 -153t-165 -62h-181l-44 -258h-94zM473 602h-180l-45 -257h175q57 0 94.5 36t46.5 92t-14 92.5t-77 36.5z" />
    <glyph glyph-name="Q" unicode="Q" horiz-adv-x="796" 
d="M616 43l51 -114l-79 -44l-57 122q-54 -17 -111 -17q-147 0 -229 103q-82 102 -56 250q25 146 145 251q118 103 265 103q148 0 230 -103q83 -103 58 -251q-16 -92 -74 -171.5t-143 -128.5zM445 202l79 45l55 -126q62 35 104 93.5t55 128.5q20 111 -40 187q-60 77 -168 77
q-106 0 -195 -77q-87 -77 -107 -187q-18 -105 36 -179t154 -80q43 -3 77 4z" />
    <glyph glyph-name="R" unicode="R" horiz-adv-x="619" 
d="M428 261l139 -261h-113l-134 258h-88l-44 -258h-94l121 689h265q69 0 111 -33q76 -59 55 -183q-15 -83 -71 -144t-147 -68zM461 602h-168l-45 -257h164q57 0 93 35.5t45 92.5q10 56 -12.5 92.5t-76.5 36.5z" />
    <glyph glyph-name="S" unicode="S" horiz-adv-x="573" 
d="M101 199h93q-8 -47 27 -85q36 -37 99 -37q60 0 100.5 28t55.5 73q25 93 -95 123l-84 22q-161 44 -136 180q15 85 90 139q76 55 167 55q96 0 149 -56q54 -56 38 -146h-93q9 51 -22 82t-88 31q-52 0 -96 -29q-43 -28 -52 -75q-14 -72 80 -96l88 -22q94 -24 132 -79.5
t14 -136.5q-24 -78 -95 -129t-168 -51q-102 0 -161 62q-58 63 -43 147z" />
    <glyph glyph-name="T" unicode="T" horiz-adv-x="568" 
d="M134 601l15 88h512l-15 -88h-209l-106 -601h-94l106 601h-209z" />
    <glyph glyph-name="U" unicode="U" horiz-adv-x="678" 
d="M557 237l80 452h93l-80 -452q-20 -110 -105 -179q-86 -68 -190 -68q-105 0 -167 68q-62 69 -42 179l80 452h94l-80 -452q-12 -69 26 -113q39 -44 105 -44q65 0 120 44q54 43 66 113z" />
    <glyph glyph-name="V" unicode="V" horiz-adv-x="562" 
d="M149 689h97l62 -532l250 532h96l-328 -689h-89z" />
    <glyph glyph-name="W" unicode="W" horiz-adv-x="901" 
d="M638 150l269 539h100l-354 -689h-81l-46 430l-197 -430h-81l-112 689h100l77 -539l207 446h71z" />
    <glyph glyph-name="X" unicode="X" horiz-adv-x="615" 
d="M699 689l-271 -319l176 -370h-112l-134 293l-236 -293h-111l305 370l-158 319h112l115 -243l202 243h112z" />
    <glyph glyph-name="Y" unicode="Y" horiz-adv-x="628" 
d="M417 317l-55 -317h-96l55 317l-195 372h111l149 -279l249 279h112z" />
    <glyph glyph-name="Z" unicode="Z" horiz-adv-x="573" 
d="M42 0l14 81l456 520h-350l15 88h468l-14 -81l-459 -520h366l-14 -88h-482z" />
    <glyph glyph-name="bracketleft" unicode="[" horiz-adv-x="327" 
d="M243 -227h-201l163 916h201l-15 -83h-111l-132 -750h111z" />
    <glyph glyph-name="backslash" unicode="\" horiz-adv-x="501" 
d="M470 0h-99l-219 689h99z" />
    <glyph glyph-name="bracketright" unicode="]" horiz-adv-x="327" 
d="M163 689h201l-163 -916h-199l14 83h111l132 750h-111z" />
    <glyph glyph-name="underscore" unicode="_" horiz-adv-x="699" 
d="M48 -109l16 81h561l-16 -81h-561z" />
    <glyph glyph-name="grave" unicode="`" horiz-adv-x="512" 
d="M433 554h-87l-92 154h109z" />
    <glyph glyph-name="a" unicode="a" horiz-adv-x="612" 
d="M555 0h-90l11 72q-29 -38 -77.5 -60t-100.5 -22q-99 0 -156 68t-38 176q19 107 100 176q80 67 180 67q52 0 94 -21.5t57 -58.5l11 70h90zM504 235q14 71 -27 112q-39 41 -100 41q-65 0 -117 -43q-51 -42 -63 -110t24 -112t100 -44q65 0 117 42t66 114z" />
    <glyph glyph-name="b" unicode="b" horiz-adv-x="612" 
d="M179 72l-12 -72h-91l127 721h91l-57 -324q29 38 76.5 59t101.5 21q101 0 156 -67t36 -176q-20 -109 -100 -176q-82 -68 -180 -68q-51 0 -92 22t-56 60zM336 79q63 0 115 44q51 43 63 112q13 67 -23 110t-100 43q-60 0 -116 -41q-53 -40 -67 -112q-13 -70 25 -114
q37 -42 103 -42z" />
    <glyph glyph-name="c" unicode="c" horiz-adv-x="512" 
d="M394 477q112 0 167 -75l-79 -58q-36 44 -103 44q-66 0 -119 -43q-54 -42 -66 -110q-12 -69 26 -113t103 -44q69 0 119 46l60 -58q-83 -76 -194 -76q-103 0 -163 68q-60 69 -41 177t103 175q83 67 187 67z" />
    <glyph glyph-name="d" unicode="d" horiz-adv-x="612" 
d="M555 0h-91l11 72q-29 -38 -77.5 -60t-100.5 -22q-99 0 -156 68q-56 69 -37 176q19 108 99 176q79 67 179 67q55 0 96 -21t56 -59l57 324h91zM376 388q-64 0 -116 -43q-51 -42 -63 -110t23 -112q36 -44 100 -44t117 42q53 43 66 114q14 71 -27 112q-39 41 -100 41z" />
    <glyph glyph-name="e" unicode="e" horiz-adv-x="556" 
d="M202 270h290q1 58 -31.5 91.5t-88.5 33.5q-59 0 -106 -34t-64 -91zM575 235l-7 -36h-379q-3 -57 32.5 -92t95.5 -35q43 0 82.5 19.5t64.5 52.5l74 -30q-41 -59 -104 -91.5t-134 -32.5q-102 0 -159 68q-56 68 -37 177t99 175q80 67 183 67q102 0 154 -67q54 -66 35 -175z
" />
    <glyph glyph-name="f" unicode="f" horiz-adv-x="343" 
d="M423 721h51l-16 -87h-51q-89 0 -107 -120l-9 -47h108l-14 -77h-108l-68 -390h-92l68 390h-90l14 77h90l9 47q16 98 71 152.5t144 54.5z" />
    <glyph glyph-name="g" unicode="g" horiz-adv-x="611" 
d="M94 -86l39 19q14 -37 47 -58.5t74 -21.5q165 0 203 212l2 11q-26 -39 -77 -62.5t-103 -23.5q-99 0 -156 67q-57 68 -38 175q20 110 100 177q83 68 181 68q52 0 93 -22.5t56 -60.5l13 73h90l-70 -396q-54 -304 -309 -304q-67 0 -117 33t-72 93zM485 233q12 70 -24 112.5
t-103 42.5q-63 0 -116 -44q-52 -43 -64 -111t23.5 -111t101.5 -43q61 0 115 42t67 112z" />
    <glyph glyph-name="h" unicode="h" 
d="M211 252l-44 -252h-91l127 721h91l-57 -324q26 40 75 59q50 21 93 21q89 0 130 -55t22 -152l-47 -270h-91l46 264q10 57 -14.5 90.5t-73.5 33.5q-56 0 -105 -34q-49 -33 -61 -102z" />
    <glyph glyph-name="i" unicode="i" horiz-adv-x="242" 
d="M166 0h-90l82 467h90zM181 597q-15 17 -11 42t26 42t48 17t41 -17t11 -42t-26 -42q-21 -17 -47 -17t-42 17z" />
    <glyph glyph-name="j" unicode="j" horiz-adv-x="244" 
d="M-40 -229h-62l16 85h54q47 0 69.5 29.5t32.5 86.5l88 495h92l-88 -496q-35 -200 -202 -200zM182 597q-15 17 -11 42t26 42t48 17t41 -17t11 -42t-26 -42q-21 -17 -47 -17t-42 17z" />
    <glyph glyph-name="k" unicode="k" horiz-adv-x="502" 
d="M379 0l-173 228l-40 -228h-90l127 721h90l-74 -417l190 163h124l-236 -202l202 -265h-120z" />
    <glyph glyph-name="l" unicode="l" horiz-adv-x="243" 
d="M76 0l127 721h91l-127 -721h-91z" />
    <glyph glyph-name="m" unicode="m" horiz-adv-x="881" 
d="M681 388q-56 1 -96.5 -37t-51.5 -99l-44 -252h-91l46 265q10 57 -11.5 90t-67.5 33q-57 0 -99.5 -35t-54.5 -101l-44 -252h-91l82 467h91l-12 -70q22 33 62.5 54t79.5 24q27 1 51 -3q86 -14 105 -91q67 96 180 96q87 0 124 -54t19 -153l-47 -270h-91l46 264q11 58 -12 91
t-73 33z" />
    <glyph glyph-name="n" unicode="n" horiz-adv-x="563" 
d="M211 252l-44 -252h-91l82 467h91l-12 -70q26 38 70.5 59t89.5 21q87 0 124 -54t19 -153l-47 -270h-91l46 264q10 58 -11.5 91t-69.5 33q-59 0 -101.5 -35t-54.5 -101z" />
    <glyph glyph-name="o" unicode="o" horiz-adv-x="579" 
d="M104 235q20 108 101 175q82 67 186 67t162 -67q59 -68 40 -175q-20 -108 -103 -177q-83 -68 -185 -68t-161 68t-40 177zM502 235q12 68 -24 110.5t-102 42.5t-118 -42t-64 -111q-12 -71 24 -114q37 -43 102 -43t117 43q53 44 65 114z" />
    <glyph glyph-name="p" unicode="p" horiz-adv-x="609" 
d="M158 467h91l-13 -73q30 38 78.5 60.5t99.5 22.5q97 0 153 -68t37 -177q-19 -107 -99 -175q-79 -67 -178 -67q-52 0 -93 21t-56 59l-53 -297h-91zM208 231q-14 -71 26 -112q39 -40 100 -40q66 0 115 42q51 42 63 110q12 69 -24 113q-35 44 -99 44t-116 -43
q-51 -41 -65 -114z" />
    <glyph glyph-name="q" unicode="q" horiz-adv-x="609" 
d="M531 394l12 73h91l-124 -694h-91l53 297q-27 -38 -75 -59t-101 -21q-100 0 -155 67q-56 68 -37 175q20 110 99 177q82 68 179 68q52 0 93 -22.5t56 -60.5zM501 231q13 71 -23 114t-102 43q-63 0 -116 -44q-51 -43 -63 -113q-12 -67 23 -109.5t100 -42.5q62 0 114 40
q53 40 67 112z" />
    <glyph glyph-name="r" unicode="r" horiz-adv-x="395" 
d="M197 170l-30 -170h-91l82 467h91l-19 -105q55 115 151 115q55 0 77 -18l-29 -85q-28 16 -66 16q-62 0 -105 -59t-61 -161z" />
    <glyph glyph-name="s" unicode="s" horiz-adv-x="439" 
d="M287 191l-60 15q-65 18 -90 54.5t-8 97.5q13 50 66 85q52 34 116 34q68 0 106.5 -34t32.5 -98h-87q1 24 -17 38.5t-46 14.5q-26 0 -48 -11.5t-30 -30.5q-10 -24 -6 -37q6 -22 50 -36l65 -17q115 -30 97 -136q-10 -63 -71 -102q-59 -38 -135 -38q-66 0 -112 41
q-45 41 -36 109h83q0 -36 29 -53q31 -19 72 -16q32 2 54 19t27 42q9 44 -52 59z" />
    <glyph glyph-name="t" unicode="t" horiz-adv-x="328" 
d="M315 643l-31 -176h99l-14 -77h-99l-68 -390h-91l68 390h-84l14 77h84l31 176h91z" />
    <glyph glyph-name="u" unicode="u" horiz-adv-x="562" 
d="M450 215l45 252h91l-82 -467h-91l11 70q-26 -38 -70 -59t-89 -21q-87 0 -124 54t-19 153l48 270h91l-47 -264q-10 -58 11 -91t69 -33q59 0 101.5 34.5t54.5 101.5z" />
    <glyph glyph-name="v" unicode="v" horiz-adv-x="510" 
d="M211 0l-112 467h96l79 -351l204 351h97l-277 -467h1h-88z" />
    <glyph glyph-name="w" unicode="w" horiz-adv-x="790" 
d="M851 467l-255 -467h-75l-67 343l-183 -343h-74l-96 467h97l59 -327l175 327h88l59 -327l175 327h97z" />
    <glyph glyph-name="x" unicode="x" horiz-adv-x="500" 
d="M242 256l-115 211h109l72 -137l121 137h109l-190 -211l140 -256h-108l-99 181l-162 -181h-107z" />
    <glyph glyph-name="y" unicode="y" horiz-adv-x="509" 
d="M574 467l-414 -694h-95l141 241l-106 453h97l80 -338l200 338h97z" />
    <glyph glyph-name="z" unicode="z" horiz-adv-x="502" 
d="M140 467h395l-13 -75l-338 -305h283l-14 -87h-411l12 75l332 305h-262z" />
    <glyph glyph-name="braceleft" unicode="{" horiz-adv-x="400" 
d="M211 143l-31 -174q-9 -48 17 -83q25 -34 70 -34h67l-15 -79h-64q-83 0 -130 54q-47 55 -31 142l31 174q4 20 -11.5 35.5t-40.5 15.5l15 81q24 0 44.5 15.5t24.5 35.5l32 176q15 88 81 141q68 54 150 54h64l-13 -79h-67q-45 0 -82 -34q-38 -34 -47 -82l-32 -176
q-6 -29 -23.5 -54.5t-42.5 -37.5q20 -11 29 -37t5 -54z" />
    <glyph glyph-name="bar" unicode="|" horiz-adv-x="230" 
d="M224 795h62l-162 -914h-62z" />
    <glyph glyph-name="braceright" unicode="}" horiz-adv-x="400" 
d="M207 -31l32 174q4 26 22.5 52.5t41.5 38.5q-20 12 -28.5 38t-3.5 54l31 176q9 48 -16.5 82t-70.5 34h-67l14 79h64q84 0 131 -54q48 -52 31 -141l-31 -176q-4 -20 11.5 -35.5t40.5 -15.5l-14 -81q-24 0 -45 -15.5t-25 -35.5l-31 -174q-17 -89 -83 -142q-67 -54 -150 -54
h-62l13 79h67q44 0 81 34q38 35 47 83z" />
    <glyph glyph-name="exclamdown" unicode="&#xa1;" horiz-adv-x="241" 
d="M134 282h71l-82 -509h-90zM127 415q2 26 26 44t49.5 18t43.5 -18q16 -19 12 -44t-27.5 -45t-50.5 -18q-26 0 -41.5 18t-11.5 45z" />
    <glyph glyph-name="cent" unicode="&#xa2;" horiz-adv-x="531" 
d="M309 -117h-62l19 111q-84 15 -131 80q-45 64 -28 161q16 93 85 159q68 64 159 79l19 106h62l-18 -103q97 -4 150 -74l-79 -58q-36 44 -103 44q-66 0 -119 -43q-54 -42 -66 -110q-12 -69 26 -113t103 -44q68 0 120 46l60 -58q-77 -69 -178 -75z" />
    <glyph glyph-name="sterling" unicode="&#xa3;" horiz-adv-x="632" 
d="M124 348h76l28 154q15 87 85 140q70 55 155 55q83 0 129 -58q46 -57 30 -151h-90q8 42 -6.5 73t-44.5 40q-17 6 -45 4q-44 -2 -80 -31.5t-44 -71.5l-28 -154h153l-10 -61h-153l-35 -197h244q19 0 21 22l10 57h90l-9 -49q-10 -55 -40 -87.5t-76 -32.5h-436l15 90h92
l35 197h-76z" />
    <glyph glyph-name="currency" unicode="&#xa4;" horiz-adv-x="610" 
d="M300 417q-38 -31 -45 -78t18 -78q26 -32 72 -32t84 32q40 32 47 78q8 47 -19 78q-27 33 -73 33t-84 -33zM227 177l-82 -71l-45 55l82 71q-23 44 -12 107q10 59 52 108l-59 71l64 55l59 -71q53 33 112 33q61 0 103 -33l82 71l46 -55l-82 -71q23 -53 13 -108
q-11 -60 -52 -107l58 -71l-65 -55l-58 71q-53 -33 -114 -33q-59 0 -102 33z" />
    <glyph glyph-name="yen" unicode="&#xa5;" horiz-adv-x="687" 
d="M617 253h-183l-14 -78h183l-11 -64h-183l-19 -111h-96l19 111h-181l11 64h181l14 78h-181l11 64h181l-195 372h111l149 -279l249 279h112l-330 -372h183z" />
    <glyph glyph-name="brokenbar" unicode="&#xa6;" horiz-adv-x="234" 
d="M219 405h-62l69 390h62zM133 269h62l-69 -388h-62z" />
    <glyph glyph-name="section" unicode="&#xa7;" horiz-adv-x="516" 
d="M238 491l-28 -160q-9 -48 17 -78t74 -30q30 0 57 11l-15 -89q-34 -8 -57 -8q-83 0 -130 53q-47 54 -32 141l28 160q15 87 81 141q67 54 150 54q64 0 108.5 -36.5t56.5 -99.5l-87 -24q-19 74 -93 74q-47 0 -84 -30.5t-46 -78.5zM378 78l28 160q9 48 -17.5 78t-74.5 30
q-28 0 -55 -11l16 89q30 8 55 8q84 0 130 -54q47 -53 32 -140l-28 -160q-15 -87 -82 -141q-66 -54 -149 -54q-64 0 -109.5 37t-55.5 99l87 24q8 -35 33 -54.5t60 -19.5q47 0 84 30.5t46 78.5z" />
    <glyph glyph-name="dieresis" unicode="&#xa8;" horiz-adv-x="533" 
d="M307 689q25 0 40 -17t11 -42q-4 -24 -25 -41.5t-46 -17.5q-26 0 -41 17t-11 42t25 42t47 17zM415 588q-15 17 -11 42t25 42t47 17t41 -17t11 -42t-25 -42t-47 -17t-41 17z" />
    <glyph glyph-name="copyright" unicode="&#xa9;" horiz-adv-x="809" 
d="M610 222q-77 -65 -150 -65q-75 0 -119 53q-43 52 -29 128q13 74 75 127t137 53q74 0 126 -66l-55 -47q-39 46 -83 46q-47 0 -86 -33q-39 -34 -46 -80q-8 -47 18.5 -80.5t73.5 -33.5q42 0 101 48zM840 343q-25 -146 -147 -250q-119 -103 -266 -103t-229 103t-57 250
q25 145 145 250q121 104 266 104q146 0 230 -104q84 -103 58 -250zM439 52q121 0 218 85q99 85 121 206t-48 206q-69 86 -190 86q-120 0 -218 -86t-120 -206t47 -206q69 -85 190 -85z" />
    <glyph glyph-name="ordfeminine" unicode="&#xaa;" horiz-adv-x="505" 
d="M474 325h-63l8 50q-20 -26 -54 -41.5t-70 -15.5q-69 0 -110 47q-40 47 -26 124q13 76 70 123q58 47 127 47q37 0 65.5 -15t38.5 -41l8 49h63zM440 490q9 47 -18.5 77t-72.5 30q-46 0 -81 -30t-43 -77q-8 -48 16.5 -79t69.5 -31q47 0 83.5 30t45.5 80zM450 215h-315l9 50
h315z" />
    <glyph glyph-name="guillemotleft" unicode="&#xab;" horiz-adv-x="489" 
d="M188 26l-102 207l175 207h79l-175 -207l102 -207h-79zM364 26l-102 207l175 207h79l-175 -207l102 -207h-79z" />
    <glyph glyph-name="logicalnot" unicode="&#xac;" horiz-adv-x="641" 
d="M136 359h489l-42 -241h-87l27 154h-402z" />
    <glyph glyph-name="registered" unicode="&#xae;" horiz-adv-x="809" 
d="M603 165h-84l-67 122h-23l-21 -122h-69l62 353h137q52 0 77 -33.5t16 -82.5q-6 -40 -31.5 -70.5t-65.5 -39.5zM458 450l-18 -95h66q21 0 37.5 14t19.5 33q3 21 -7 34.5t-30 13.5h-68zM840 343q-25 -146 -147 -250q-119 -103 -266 -103t-229 103t-57 250q25 145 145 250
q121 104 266 104q146 0 230 -104q84 -103 58 -250zM439 52q121 0 218 85q99 85 121 206t-48 206q-69 86 -190 86q-120 0 -218 -86t-120 -206t47 -206q69 -85 190 -85z" />
    <glyph glyph-name="overscore" unicode="&#xaf;" horiz-adv-x="492" 
d="M222 580l15 80h252l-15 -80h-252z" />
    <glyph glyph-name="degree" unicode="&#xb0;" horiz-adv-x="370" 
d="M185 473q-31 38 -22 93t54 92q45 39 99 39t86 -39q32 -38 23 -92t-55 -93q-47 -38 -100 -38t-85 38zM232 566q-5 -26 10.5 -44t40.5 -18q26 0 47.5 18.5t25.5 43.5q5 26 -10.5 44t-40.5 18q-26 0 -47.5 -18.5t-25.5 -43.5z" />
    <glyph glyph-name="plusminus" unicode="&#xb1;" horiz-adv-x="542" 
d="M133 364h158l25 143h87l-25 -143h159l-16 -87h-159l-25 -145h-87l25 145h-158zM487 82l-14 -82h-404l14 82h404z" />
    <glyph glyph-name="twosuperior" unicode="&#xb2;" horiz-adv-x="320" 
d="M112 430l6 28l190 191q32 32 38 61q4 27 -12 44t-43 17t-50 -18t-32 -47l-50 14q16 48 56 78t86 30q52 0 82 -33.5t21 -84.5q-10 -54 -60 -102l-123 -119h145l-10 -59h-244z" />
    <glyph glyph-name="threesuperior" unicode="&#xb3;" horiz-adv-x="320" 
d="M217 738l-35 32q22 28 55 43.5t68 13.5q47 -2 72.5 -33.5t17.5 -74.5q-5 -20 -8 -24q-15 -35 -52 -54q27 -11 39.5 -41.5t3.5 -63.5q-14 -51 -61 -83q-49 -32 -102 -28q-38 3 -65 25.5t-37 56.5l53 26q6 -22 23.5 -37.5t38.5 -16.5h-1q34 -2 63 16.5t34 47.5q7 28 -12 49
t-50 21h-45l9 52h45q21 0 38 13t24 32q9 24 0 40q-8 21 -41 23q-42 4 -75 -35z" />
    <glyph glyph-name="acute" unicode="&#xb4;" horiz-adv-x="512" 
d="M350 708h109l-146 -154h-87z" />
    <glyph glyph-name="mu" unicode="&#xb5;" horiz-adv-x="555" 
d="M146 -153h-91l110 620h91l-48 -270q-10 -54 9 -85.5t63 -31.5q57 0 100 34.5t55 98.5l45 254h91l-82 -467h-91l10 57q-25 -31 -65 -48.5t-79 -17.5q-64 0 -87 30z" />
    <glyph glyph-name="paragraph" unicode="&#xb6;" horiz-adv-x="651" 
d="M389 689h73l-132 -745h-83l56 311q-85 4 -135 68t-34 149q16 90 90 153q73 64 165 64zM387 -64l133 753h93q55 0 90 -41q35 -40 24 -96l-16 -85h-82l16 85q3 21 -7.5 37t-28.5 16h-20l-117 -654q-9 -53 -58 -93q-49 -41 -103 -44h-88l13 76h88q21 0 40.5 14t22.5 32z" />
    <glyph glyph-name="middot" unicode="&#xb7;" horiz-adv-x="269" 
d="M127 206q-15 18 -11 45t26 45q23 18 50 18t43 -18t12 -45t-27 -45q-23 -17 -50 -17t-43 17z" />
    <glyph glyph-name="cedilla" unicode="&#xb8;" horiz-adv-x="522" 
d="M211 -117q11 -33 46 -23q16 7 24 22t5 31l-22 120h50l33 -95q5 -18 0 -42q-12 -67 -78 -92q-21 -8 -41 -8q-30 0 -51 17t-28 47q-6 24 -1 49l63 -4q-3 -14 0 -22z" />
    <glyph glyph-name="onesuperior" unicode="&#xb9;" horiz-adv-x="208" 
d="M230 430h-60l54 305l-75 -35l10 57l141 70z" />
    <glyph glyph-name="ordmasculine" unicode="&#xba;" horiz-adv-x="497" 
d="M303 318q-72 0 -112 48q-41 49 -28 124q14 77 71 122q59 47 130 47q72 0 113 -47q42 -47 29 -122q-13 -76 -72 -124q-58 -48 -131 -48zM314 380q46 0 82.5 31t45.5 79q9 47 -17.5 77t-72.5 30t-81.5 -30t-44.5 -77q-9 -48 16.5 -79t71.5 -31zM453 215h-331l9 50h331z" />
    <glyph glyph-name="guillemotright" unicode="&#xbb;" horiz-adv-x="489" 
d="M383 440l100 -207l-174 -207h-79l174 207l-100 207h79zM207 440l100 -207l-174 -207h-79l174 207l-100 207h79z" />
    <glyph glyph-name="onequarter" unicode="&#xbc;" horiz-adv-x="733" 
d="M280 665l-70 -395h-53l57 324l-67 -22l9 51zM604 131l29 164l-142 -164h113zM714 131l-9 -51h-57l-13 -80h-53l13 80h-204l273 312h40l-47 -261h57zM647 670h67l-571 -680h-68z" />
    <glyph glyph-name="onehalf" unicode="&#xbd;" horiz-adv-x="771" 
d="M281 665l-70 -395h-53l57 324l-67 -22l9 51zM720 0h-242l3 24l194 193q36 39 40 64q5 27 -13 44.5t-49 17.5q-28 0 -50.5 -16.5t-31.5 -45.5l-47 13q15 46 55 74.5t87 28.5q52 0 81.5 -32.5t20.5 -83.5q-11 -53 -61 -102l-128 -125h150zM645 670h67l-571 -680h-68z" />
    <glyph glyph-name="threequarters" unicode="&#xbe;" horiz-adv-x="812" 
d="M570 131h113l29 164zM728 80l-14 -80h-53l14 80h-204l272 312h40l-47 -261h57l-8 -51h-57zM205 578l-34 32q21 28 54 43.5t69 13.5q47 -3 72.5 -34.5t16.5 -73.5q-4 -23 -20 -44.5t-39 -33.5q27 -11 39 -41.5t4 -63.5q-14 -51 -62 -83q-49 -32 -102 -28q-38 3 -65 25.5
t-37 56.5l53 25q5 -21 22.5 -36.5t41.5 -17.5h-1q33 -2 61 17t35 48q7 27 -12.5 48.5t-49.5 21.5h-45l9 52h45q43 0 61 45q9 25 -2.5 42.5t-38.5 21.5q-40 3 -75 -36zM231 -10h-68l572 680h67z" />
    <glyph glyph-name="questiondown" unicode="&#xbf;" horiz-adv-x="472" 
d="M359 -24h86q-16 -94 -84 -151q-67 -58 -150 -58q-84 0 -135 54t-36 141q12 68 61.5 119t117.5 70q39 10 58 26t25 47l13 59h88l-11 -59q-12 -66 -51.5 -102t-111.5 -57q-34 -9 -64 -39.5t-36 -63.5q-8 -46 21.5 -76t76.5 -30q46 0 84.5 33.5t47.5 86.5zM435 459
q16 -17 12 -44t-28 -45q-23 -18 -50 -18t-42 18t-11 45t26 44q23 18 50 18t43 -18z" />
    <glyph glyph-name="Agrave" unicode="&#xc0;" horiz-adv-x="645" 
d="M423 565l-169 -306h228zM536 0l-37 175h-292l-97 -175h-99l383 689h100l140 -689h-98zM508 776h-87l-91 154h109z" />
    <glyph glyph-name="Aacute" unicode="&#xc1;" horiz-adv-x="645" 
d="M482 259l-59 306l-169 -306h228zM207 175l-97 -175h-99l383 689h100l140 -689h-98l-37 175h-292zM537 930h109l-147 -154h-87z" />
    <glyph glyph-name="Acircumflex" unicode="&#xc2;" horiz-adv-x="645" 
d="M423 565l-169 -306h228zM536 0l-37 175h-292l-97 -175h-99l383 689h100l140 -689h-98zM615 776h-82l-59 87l-90 -87h-82l138 154h93z" />
    <glyph glyph-name="Atilde" unicode="&#xc3;" horiz-adv-x="645" 
d="M423 565l-169 -306h228zM536 0l-37 175h-292l-97 -175h-99l383 689h100l140 -689h-98zM423 832q-10 0 -19.5 -11.5t-14.5 -32.5h-61q14 58 43.5 87.5t65.5 29.5q25 0 53 -24q20 -17 28 -17q26 0 36 41h61q-14 -57 -43.5 -85.5t-65.5 -28.5q-24 0 -53 25q-19 16 -30 16z
" />
    <glyph glyph-name="Adieresis" unicode="&#xc4;" horiz-adv-x="645" 
d="M482 259l-59 306l-169 -306h228zM207 175l-97 -175h-99l383 689h100l140 -689h-98l-37 175h-292zM399 911q25 0 40 -17t11 -42q-4 -24 -25.5 -41.5t-46.5 -17.5q-26 0 -40.5 17t-10.5 42t25 42t47 17zM506 810q-14 17 -10 42t25 42t47 17t41 -17t11 -42t-26 -42
q-21 -17 -47 -17t-41 17z" />
    <glyph glyph-name="Aring" unicode="&#xc5;" horiz-adv-x="645" 
d="M482 259l-59 306l-169 -306h228zM207 175l-97 -175h-99l383 689h100l140 -689h-98l-37 175h-292zM370 867q8 45 43.5 75.5t79.5 30.5q45 0 70.5 -30.5t17.5 -75.5q-8 -44 -44 -74t-81 -30q-44 0 -69 30.5t-17 73.5zM423 867q-4 -21 8.5 -36t33.5 -15q22 0 40.5 15
t22.5 36q4 22 -9 37.5t-36 15.5q-21 0 -38.5 -15.5t-21.5 -37.5z" />
    <glyph glyph-name="AE" unicode="&#xc6;" horiz-adv-x="934" 
d="M494 173h-245l-140 -173h-109l556 689h435l-16 -92h-313l-38 -213h274l-16 -92h-274l-36 -200h324l-15 -92h-416zM564 560l-244 -298h190z" />
    <glyph glyph-name="Ccedilla" unicode="&#xc7;" horiz-adv-x="684" 
d="M320 -117q11 -33 46 -23q16 7 24 22t5 31l-15 79q-130 14 -200 114t-46 237q25 146 146 250t266 104q158 0 238 -117l-81 -58q-63 85 -173 85q-107 0 -196 -77q-87 -77 -107 -187q-20 -111 40 -187q61 -76 169 -76q118 0 207 88l60 -59q-115 -111 -264 -118l18 -53
q5 -18 0 -42q-12 -65 -79 -92q-21 -8 -41 -8q-29 0 -50 17t-28 47q-6 25 -2 49l63 -4q-3 -14 0 -22z" />
    <glyph glyph-name="Egrave" unicode="&#xc8;" horiz-adv-x="565" 
d="M94 0l121 689h408l-16 -87h-315l-38 -220h275l-16 -87h-275l-37 -208h325l-14 -87h-418zM490 776h-87l-91 154h109z" />
    <glyph glyph-name="Eacute" unicode="&#xc9;" horiz-adv-x="565" 
d="M623 689l-16 -87h-315l-38 -220h275l-16 -87h-275l-37 -208h325l-14 -87h-418l121 689h408zM476 930h109l-147 -154h-87z" />
    <glyph glyph-name="Ecircumflex" unicode="&#xca;" horiz-adv-x="565" 
d="M94 0l121 689h408l-16 -87h-315l-38 -220h275l-16 -87h-275l-37 -208h325l-14 -87h-418zM575 776h-82l-59 87l-90 -87h-82l138 154h93z" />
    <glyph glyph-name="Edieresis" unicode="&#xcb;" horiz-adv-x="565" 
d="M623 689l-16 -87h-315l-38 -220h275l-16 -87h-275l-37 -208h325l-14 -87h-418l121 689h408zM363 911q25 0 40 -17t11 -42q-4 -24 -25.5 -41.5t-46.5 -17.5q-26 0 -40.5 17t-10.5 42t25 42t47 17zM470 810q-14 17 -10 42t25 42t47 17t41 -17t11 -42t-26 -42
q-21 -17 -47 -17t-41 17z" />
    <glyph glyph-name="Igrave" unicode="&#xcc;" horiz-adv-x="281" 
d="M94 0l121 689h93l-121 -689h-93zM323 776h-87l-91 154h109z" />
    <glyph glyph-name="Iacute" unicode="&#xcd;" horiz-adv-x="281" 
d="M308 689l-121 -689h-93l121 689h93zM354 930h109l-147 -154h-87z" />
    <glyph glyph-name="Icircumflex" unicode="&#xce;" horiz-adv-x="281" 
d="M94 0l121 689h93l-121 -689h-93zM433 776h-82l-59 87l-90 -87h-82l138 154h93z" />
    <glyph glyph-name="Idieresis" unicode="&#xcf;" horiz-adv-x="281" 
d="M308 689l-121 -689h-93l121 689h93zM217 911q25 0 40 -17t11 -42q-4 -24 -25.5 -41.5t-46.5 -17.5q-26 0 -40.5 17t-10.5 42t25 42t47 17zM324 810q-14 17 -10 42t25 42t47 17t41 -17t11 -42t-26 -42q-21 -17 -47 -17t-41 17z" />
    <glyph glyph-name="Eth" unicode="&#xd0;" horiz-adv-x="724" 
d="M363 0h-263l55 311h-93l12 68h93l54 310h263q143 0 208 -98t38 -248q-27 -151 -126 -247q-98 -96 -241 -96zM298 597l-38 -218h165l-12 -68h-165l-39 -219h170q103 0 171 69q68 71 87 182q20 114 -23 183q-44 71 -146 71h-170z" />
    <glyph glyph-name="Ntilde" unicode="&#xd1;" horiz-adv-x="684" 
d="M711 689l-121 -689h-89l-223 519l-91 -519h-93l121 689h92l219 -515l92 515h93zM443 832q-10 0 -19.5 -11.5t-14.5 -32.5h-61q14 58 43.5 87.5t65.5 29.5q25 0 53 -24q20 -17 28 -17q26 0 36 41h61q-14 -57 -43.5 -85.5t-65.5 -28.5q-24 0 -53 25q-19 16 -30 16z" />
    <glyph glyph-name="Ograve" unicode="&#xd2;" horiz-adv-x="796" 
d="M135 343q25 146 145 251q118 103 265 103t230 -104q84 -103 58 -250q-25 -146 -146 -250q-119 -103 -267 -103q-147 0 -229 103q-82 102 -56 250zM228 343q-20 -111 40 -187t168 -76q109 0 195 76q87 77 107 187q20 111 -40 187q-60 77 -168 77q-107 0 -196 -77
q-86 -76 -106 -187zM613 776h-87l-92 154h109z" />
    <glyph glyph-name="Oacute" unicode="&#xd3;" horiz-adv-x="796" 
d="M135 343q25 146 145 251q118 103 265 103t230 -104q84 -103 58 -250q-25 -146 -146 -250q-119 -103 -267 -103q-147 0 -229 103q-82 102 -56 250zM228 343q-20 -111 40 -187t168 -76q109 0 195 76q87 77 107 187q20 111 -40 187q-60 77 -168 77q-107 0 -196 -77
q-86 -76 -106 -187zM619 930h109l-146 -154h-87z" />
    <glyph glyph-name="Ocircumflex" unicode="&#xd4;" horiz-adv-x="796" 
d="M135 343q25 146 145 251q118 103 265 103t230 -104q84 -103 58 -250q-25 -146 -146 -250q-119 -103 -267 -103q-147 0 -229 103q-82 102 -56 250zM228 343q-20 -111 40 -187t168 -76q109 0 195 76q87 77 107 187q20 111 -40 187q-60 77 -168 77q-107 0 -196 -77
q-86 -76 -106 -187zM716 776h-82l-59 87l-90 -87h-82l137 154h93z" />
    <glyph glyph-name="Otilde" unicode="&#xd5;" horiz-adv-x="796" 
d="M135 343q25 146 145 251q118 103 265 103t230 -104q84 -103 58 -250q-25 -146 -146 -250q-119 -103 -267 -103q-147 0 -229 103q-82 102 -56 250zM228 343q-20 -111 40 -187t168 -76q109 0 195 76q87 77 107 187q20 111 -40 187q-60 77 -168 77q-107 0 -196 -77
q-86 -76 -106 -187zM491 788h-61q14 58 43.5 87.5t65.5 29.5q25 0 53 -24q20 -17 28 -17q25 0 36 41h61q-14 -57 -44 -85.5t-65 -28.5q-25 0 -54 25q-27 21 -39.5 13.5t-23.5 -41.5z" />
    <glyph glyph-name="Odieresis" unicode="&#xd6;" horiz-adv-x="796" 
d="M135 343q25 146 145 251q118 103 265 103t230 -104q84 -103 58 -250q-25 -146 -146 -250q-119 -103 -267 -103q-147 0 -229 103q-82 102 -56 250zM228 343q-20 -111 40 -187t168 -76q109 0 195 76q87 77 107 187q20 111 -40 187q-60 77 -168 77q-107 0 -196 -77
q-86 -76 -106 -187zM500 911q25 0 39.5 -17t10.5 -42q-4 -24 -25 -41.5t-46 -17.5q-26 0 -41 17t-11 42t25.5 42t47.5 17zM607 810q-15 17 -11 42t25 42q22 17 48 17t40 -17q15 -17 11 -42t-25 -42t-47 -17t-41 17z" />
    <glyph glyph-name="multiply" unicode="&#xd7;" horiz-adv-x="497" 
d="M88 148l148 125l-103 124l73 60l100 -123l148 125l50 -63l-146 -123l101 -124l-71 -63l-104 125l-145 -123z" />
    <glyph glyph-name="Oslash" unicode="&#xd8;" horiz-adv-x="795" 
d="M188 66l-94 -82l-39 47l96 82q-67 97 -43 230q25 146 145 251q118 103 265 103q128 0 210 -81l93 81l39 -46l-94 -82q62 -100 40 -226q-25 -146 -146 -250q-119 -103 -267 -103q-126 0 -205 76zM201 343q-17 -92 24 -164l427 371q-60 57 -149 57q-107 0 -196 -77
q-86 -76 -106 -187zM409 80q109 0 195 76q87 77 107 187q17 92 -22 159l-425 -370q58 -52 145 -52z" />
    <glyph glyph-name="Ugrave" unicode="&#xd9;" horiz-adv-x="678" 
d="M557 237l80 452h93l-80 -452q-20 -110 -105 -179q-86 -68 -190 -68q-105 0 -167 68q-62 69 -42 179l80 452h94l-80 -452q-12 -69 26 -113q39 -44 105 -44q65 0 120 44q54 43 66 113zM556 776h-87l-92 154h109z" />
    <glyph glyph-name="Uacute" unicode="&#xda;" horiz-adv-x="678" 
d="M557 237l80 452h93l-80 -452q-20 -110 -105 -179q-86 -68 -190 -68q-105 0 -167 68q-62 69 -42 179l80 452h94l-80 -452q-12 -69 26 -113q39 -44 105 -44q65 0 120 44q54 43 66 113zM546 930h109l-146 -154h-87z" />
    <glyph glyph-name="Ucircumflex" unicode="&#xdb;" horiz-adv-x="678" 
d="M557 237l80 452h93l-80 -452q-20 -110 -105 -179q-86 -68 -190 -68q-105 0 -167 68q-62 69 -42 179l80 452h94l-80 -452q-12 -69 26 -113q39 -44 105 -44q65 0 120 44q54 43 66 113zM650 776h-82l-60 87l-89 -87h-82l137 154h93z" />
    <glyph glyph-name="Udieresis" unicode="&#xdc;" horiz-adv-x="678" 
d="M557 237l80 452h93l-80 -452q-20 -110 -105 -179q-86 -68 -190 -68q-105 0 -167 68q-62 69 -42 179l80 452h94l-80 -452q-12 -69 26 -113q39 -44 105 -44q65 0 120 44q54 43 66 113zM434 911q25 0 39.5 -17t10.5 -42q-4 -24 -25 -41.5t-46 -17.5q-26 0 -41 17t-11 42
t25.5 42t47.5 17zM541 810q-15 17 -11 42t25 42q22 17 48 17t40 -17q15 -17 11 -42t-25 -42t-47 -17t-41 17z" />
    <glyph glyph-name="Yacute" unicode="&#xdd;" horiz-adv-x="628" 
d="M417 317l-55 -317h-96l55 317l-195 372h111l149 -279l249 279h112zM514 930h109l-147 -154h-87z" />
    <glyph glyph-name="Thorn" unicode="&#xde;" horiz-adv-x="572" 
d="M351 138h-140l-24 -138h-93l121 689h93l-21 -123h140q90 0 140 -59q49 -59 33 -153q-16 -95 -88 -156q-70 -60 -161 -60zM271 479l-44 -251h140q49 0 90 35q41 36 51 91q9 55 -21 88t-84 34z" />
    <glyph glyph-name="germandbls" unicode="&#xdf;" horiz-adv-x="566" 
d="M205 4l15 85q42 -16 81 -16q63 0 112 43q50 43 61 102q9 56 -27 99q-35 44 -94 44h-37l13 74h35q39 0 71.5 27t39.5 64q7 35 -17.5 59.5t-66.5 27.5l-9 1q-49 0 -86.5 -34t-47.5 -90l-86 -490h-86l87 490q16 96 81 152q64 55 153 55h10q76 0 121 -50q46 -50 32 -121
q-12 -69 -84 -119q46 -24 70 -77.5t14 -111.5q-16 -96 -95 -162q-78 -66 -177 -66q-40 -2 -83 14z" />
    <glyph glyph-name="agrave" unicode="&#xe0;" horiz-adv-x="612" 
d="M555 0h-90l11 72q-29 -38 -77.5 -60t-100.5 -22q-99 0 -156 68t-38 176q19 107 100 176q80 67 180 67q52 0 94 -21.5t57 -58.5l11 70h90zM504 235q14 71 -27 112q-39 41 -100 41q-65 0 -117 -43q-51 -42 -63 -110t24 -112t100 -44q65 0 117 42t66 114zM489 554h-87
l-92 154h109z" />
    <glyph glyph-name="aacute" unicode="&#xe1;" horiz-adv-x="612" 
d="M555 0h-90l11 72q-29 -38 -77.5 -60t-100.5 -22q-99 0 -156 68t-38 176q19 107 100 176q80 67 180 67q52 0 94 -21.5t57 -58.5l11 70h90zM504 235q14 71 -27 112q-39 41 -100 41q-65 0 -117 -43q-51 -42 -63 -110t24 -112t100 -44q65 0 117 42t66 114zM462 708h109
l-146 -154h-87z" />
    <glyph glyph-name="acircumflex" unicode="&#xe2;" horiz-adv-x="612" 
d="M555 0h-90l11 72q-29 -38 -77.5 -60t-100.5 -22q-99 0 -156 68t-38 176q19 107 100 176q80 67 180 67q52 0 94 -21.5t57 -58.5l11 70h90zM504 235q14 71 -27 112q-39 41 -100 41q-65 0 -117 -43q-51 -42 -63 -110t24 -112t100 -44q65 0 117 42t66 114zM561 554h-82
l-60 87l-89 -87h-82l137 154h93z" />
    <glyph glyph-name="atilde" unicode="&#xe3;" horiz-adv-x="612" 
d="M555 0h-90l11 72q-29 -38 -77.5 -60t-100.5 -22q-99 0 -156 68t-38 176q19 107 100 176q80 67 180 67q52 0 94 -21.5t57 -58.5l11 70h90zM504 235q14 71 -27 112q-39 41 -100 41q-65 0 -117 -43q-51 -42 -63 -110t24 -112t100 -44q65 0 117 42t66 114zM386 610
q-10 0 -20.5 -12t-13.5 -32h-61q14 58 43.5 87.5t65.5 29.5q24 0 53 -24q20 -17 27 -17q11 0 21.5 10.5t15.5 30.5h61q-14 -57 -44 -85.5t-66 -28.5q-24 0 -53 25q-17 16 -29 16z" />
    <glyph glyph-name="adieresis" unicode="&#xe4;" horiz-adv-x="612" 
d="M555 0h-90l11 72q-29 -38 -77.5 -60t-100.5 -22q-99 0 -156 68t-38 176q19 107 100 176q80 67 180 67q52 0 94 -21.5t57 -58.5l11 70h90zM504 235q14 71 -27 112q-39 41 -100 41q-65 0 -117 -43q-51 -42 -63 -110t24 -112t100 -44q65 0 117 42t66 114zM345 689
q25 0 40.5 -17t11.5 -42q-4 -24 -25 -41.5t-46 -17.5q-26 0 -41 17t-11 42t24.5 42t46.5 17zM454 588q-15 17 -11 42t24 42q21 17 47 17t41 -17q16 -17 12 -42t-25 -42t-47 -17t-41 17z" />
    <glyph glyph-name="aring" unicode="&#xe5;" horiz-adv-x="612" 
d="M555 0h-90l11 72q-29 -38 -77.5 -60t-100.5 -22q-99 0 -156 68t-38 176q19 107 100 176q80 67 180 67q52 0 94 -21.5t57 -58.5l11 70h90zM504 235q14 71 -27 112q-39 41 -100 41q-65 0 -117 -43q-51 -42 -63 -110t24 -112t100 -44q65 0 117 42t66 114zM317 645
q8 45 43 75.5t79 30.5q45 0 71 -30.5t18 -75.5q-7 -43 -44 -74q-37 -30 -82 -30q-43 0 -68 30t-17 74zM370 645q-4 -21 8.5 -36t33.5 -15q22 0 40.5 15t22.5 36q4 22 -9 37.5t-36 15.5q-21 0 -38.5 -15.5t-21.5 -37.5z" />
    <glyph glyph-name="ae" unicode="&#xe6;" horiz-adv-x="957" 
d="M546 467h90l-6 -38q68 48 157 48q102 0 154 -67q54 -66 35 -175l-7 -36h-379q-3 -57 32.5 -92t95.5 -35q43 0 82.5 19.5t64.5 52.5l74 -30q-41 -59 -104 -91.5t-134 -32.5q-90 0 -140 49l-6 -39h-90l11 72q-29 -38 -77.5 -60t-100.5 -22q-99 0 -156 68t-38 176
q19 107 100 176q80 67 180 67q52 0 94 -21.5t57 -58.5zM504 235q14 71 -27 112q-39 41 -100 41q-65 0 -117 -43q-51 -42 -63 -110t24 -112t100 -44q65 0 117 42t66 114zM603 270h290q1 58 -31.5 91.5t-88.5 33.5q-59 0 -106 -34t-64 -91z" />
    <glyph glyph-name="ccedilla" unicode="&#xe7;" horiz-adv-x="512" 
d="M331 -8l19 -54q4 -18 0 -42q-12 -65 -79 -92q-21 -8 -41 -8q-29 0 -50 17t-28 47q-6 25 -2 49l63 -4q-3 -14 0 -22q11 -33 46 -23q16 7 24 22t5 31l-15 79q-89 11 -139 77q-49 66 -32 166q19 108 103 175q83 67 187 67q112 0 167 -75l-79 -58q-36 44 -103 44
q-66 0 -119 -43q-54 -42 -66 -110q-12 -69 26 -113t103 -44q68 0 120 46l60 -58q-74 -67 -170 -74z" />
    <glyph glyph-name="egrave" unicode="&#xe8;" horiz-adv-x="556" 
d="M202 270h290q1 58 -31.5 91.5t-88.5 33.5q-59 0 -106 -34t-64 -91zM575 235l-7 -36h-379q-3 -57 32.5 -92t95.5 -35q43 0 82.5 19.5t64.5 52.5l74 -30q-41 -59 -104 -91.5t-134 -32.5q-102 0 -159 68q-56 68 -37 177t99 175q80 67 183 67q102 0 154 -67q54 -66 35 -175z
M450 554h-87l-92 154h109z" />
    <glyph glyph-name="eacute" unicode="&#xe9;" horiz-adv-x="556" 
d="M202 270h290q1 58 -31.5 91.5t-88.5 33.5q-59 0 -106 -34t-64 -91zM575 235l-7 -36h-379q-3 -57 32.5 -92t95.5 -35q43 0 82.5 19.5t64.5 52.5l74 -30q-41 -59 -104 -91.5t-134 -32.5q-102 0 -159 68q-56 68 -37 177t99 175q80 67 183 67q102 0 154 -67q54 -66 35 -175z
M457 708h109l-146 -154h-87z" />
    <glyph glyph-name="ecircumflex" unicode="&#xea;" horiz-adv-x="556" 
d="M202 270h290q1 58 -31.5 91.5t-88.5 33.5q-59 0 -106 -34t-64 -91zM575 235l-7 -36h-379q-3 -57 32.5 -92t95.5 -35q43 0 82.5 19.5t64.5 52.5l74 -30q-41 -59 -104 -91.5t-134 -32.5q-102 0 -159 68q-56 68 -37 177t99 175q80 67 183 67q102 0 154 -67q54 -66 35 -175z
M553 554h-82l-60 87l-89 -87h-82l137 154h93z" />
    <glyph glyph-name="edieresis" unicode="&#xeb;" horiz-adv-x="556" 
d="M202 270h290q1 58 -31.5 91.5t-88.5 33.5q-59 0 -106 -34t-64 -91zM575 235l-7 -36h-379q-3 -57 32.5 -92t95.5 -35q43 0 82.5 19.5t64.5 52.5l74 -30q-41 -59 -104 -91.5t-134 -32.5q-102 0 -159 68q-56 68 -37 177t99 175q80 67 183 67q102 0 154 -67q54 -66 35 -175z
M335 689q25 0 40.5 -17t11.5 -42q-4 -24 -25 -41.5t-46 -17.5q-26 0 -41 17t-11 42t24.5 42t46.5 17zM444 588q-15 17 -11 42t24 42q21 17 47 17t41 -17q16 -17 12 -42t-25 -42t-47 -17t-41 17z" />
    <glyph glyph-name="igrave" unicode="&#xec;" horiz-adv-x="241" 
d="M158 467h89l-82 -467h-89zM261 554h-87l-91 154h109z" />
    <glyph glyph-name="iacute" unicode="&#xed;" horiz-adv-x="241" 
d="M165 0h-89l82 467h89zM297 708h109l-147 -154h-87z" />
    <glyph glyph-name="icircumflex" unicode="&#xee;" horiz-adv-x="241" 
d="M158 467h89l-82 -467h-89zM379 554h-82l-60 87l-89 -87h-82l137 154h93z" />
    <glyph glyph-name="idieresis" unicode="&#xef;" horiz-adv-x="241" 
d="M165 0h-89l82 467h89zM162 689q25 0 40 -17t11 -42q-4 -24 -25 -41.5t-46 -17.5q-26 0 -41 17t-11 42t25 42t47 17zM270 588q-15 17 -11 42t25 42t47 17t41 -17t11 -42t-25 -42t-47 -17t-41 17z" />
    <glyph glyph-name="eth" unicode="&#xf0;" horiz-adv-x="578" 
d="M376 689l31 -49l73 40l27 -42l-69 -42l133 -215q35 -62 20 -146q-19 -108 -102 -177q-83 -68 -184 -68q-102 0 -161 68q-59 70 -40 177q20 107 101 174q83 68 178 68q21 0 34 -10l-59 83l-94 -53l-24 47l89 50l-58 95h105zM377 391q-68 0 -121 -43q-54 -44 -66 -113
q-12 -70 26 -115q38 -44 104 -44q65 0 120 44q54 45 66 115q12 69 -25 112.5t-104 43.5z" />
    <glyph glyph-name="ntilde" unicode="&#xf1;" horiz-adv-x="563" 
d="M211 252l-44 -252h-91l82 467h91l-12 -70q26 38 70.5 59t89.5 21q87 0 124 -54t19 -153l-47 -270h-91l46 264q10 58 -11.5 91t-69.5 33q-59 0 -101.5 -35t-54.5 -101zM344 610q-10 0 -19.5 -11.5t-14.5 -32.5h-61q14 58 43.5 87.5t65.5 29.5q24 0 53 -24q20 -17 28 -17
q26 0 36 41h61q-14 -57 -44 -85.5t-66 -28.5q-24 0 -53 25q-17 16 -29 16z" />
    <glyph glyph-name="ograve" unicode="&#xf2;" horiz-adv-x="579" 
d="M104 235q20 108 101 175q82 67 186 67t162 -67q59 -68 40 -175q-20 -108 -103 -177q-83 -68 -185 -68t-161 68t-40 177zM502 235q12 68 -24 110.5t-102 42.5t-118 -42t-64 -111q-12 -71 24 -114q37 -43 102 -43t117 43q53 44 65 114zM456 554h-87l-92 154h109z" />
    <glyph glyph-name="oacute" unicode="&#xf3;" horiz-adv-x="579" 
d="M104 235q20 108 101 175q82 67 186 67t162 -67q59 -68 40 -175q-20 -108 -103 -177q-83 -68 -185 -68t-161 68t-40 177zM194 235q-12 -71 24 -114q37 -43 102 -43t117 43q53 44 65 114q12 68 -24 110.5t-102 42.5t-118 -42t-64 -111zM470 708h109l-146 -154h-87z" />
    <glyph glyph-name="ocircumflex" unicode="&#xf4;" horiz-adv-x="579" 
d="M104 235q20 108 101 175q82 67 186 67t162 -67q59 -68 40 -175q-20 -108 -103 -177q-83 -68 -185 -68t-161 68t-40 177zM502 235q12 68 -24 110.5t-102 42.5t-118 -42t-64 -111q-12 -71 24 -114q37 -43 102 -43t117 43q53 44 65 114zM562 554h-82l-60 87l-89 -87h-82
l137 154h93z" />
    <glyph glyph-name="otilde" unicode="&#xf5;" horiz-adv-x="579" 
d="M104 235q20 108 101 175q82 67 186 67t162 -67q59 -68 40 -175q-20 -108 -103 -177q-83 -68 -185 -68t-161 68t-40 177zM502 235q12 68 -24 110.5t-102 42.5t-118 -42t-64 -111q-12 -71 24 -114q37 -43 102 -43t117 43q53 44 65 114zM370 610q-10 0 -20.5 -12t-13.5 -32
h-61q14 58 43.5 87.5t65.5 29.5q24 0 53 -24q20 -17 27 -17q11 0 21.5 10.5t15.5 30.5h61q-14 -57 -44 -85.5t-66 -28.5q-24 0 -53 25q-17 16 -29 16z" />
    <glyph glyph-name="odieresis" unicode="&#xf6;" horiz-adv-x="579" 
d="M104 235q20 108 101 175q82 67 186 67t162 -67q59 -68 40 -175q-20 -108 -103 -177q-83 -68 -185 -68t-161 68t-40 177zM194 235q-12 -71 24 -114q37 -43 102 -43t117 43q53 44 65 114q12 68 -24 110.5t-102 42.5t-118 -42t-64 -111zM344 689q25 0 40.5 -17t11.5 -42
q-4 -24 -25 -41.5t-46 -17.5q-26 0 -41 17t-11 42t24.5 42t46.5 17zM453 588q-15 17 -11 42t24 42q21 17 47 17t41 -17q16 -17 12 -42t-25 -42t-47 -17t-41 17z" />
    <glyph glyph-name="divide" unicode="&#xf7;" horiz-adv-x="537" 
d="M349 90q-4 -26 -27 -44t-51 -18q-27 -2 -42 17t-11.5 46t26.5 44q34 29 73.5 12.5t31.5 -57.5zM277 424q2 26 26 44t49.5 18t43.5 -18q16 -19 12 -44t-27.5 -45t-50.5 -18q-26 0 -41.5 18t-11.5 45zM100 214l15 83h411l-15 -83h-411z" />
    <glyph glyph-name="oslash" unicode="&#xf8;" horiz-adv-x="577" 
d="M150 33l-68 -58l-39 47l66 57q-41 66 -25 156q19 107 102 175q82 67 186 67q81 0 142 -47l59 51l39 -46l-59 -51q34 -64 21 -149q-20 -108 -103 -177q-83 -68 -185 -68q-84 0 -136 43zM357 388q-65 0 -118 -42q-52 -42 -64 -111q-9 -54 9 -90l254 219q-33 24 -81 24z
M301 78q65 0 117 43q53 44 65 114q8 41 -7 82l-250 -218q30 -21 75 -21z" />
    <glyph glyph-name="ugrave" unicode="&#xf9;" horiz-adv-x="562" 
d="M461 554h-87l-91 154h109zM450 215l45 252h91l-82 -467h-91l11 70q-26 -38 -70 -59t-89 -21q-87 0 -124 54t-19 153l48 270h91l-47 -264q-10 -58 11 -91t69 -33q59 0 101.5 34.5t54.5 101.5z" />
    <glyph glyph-name="uacute" unicode="&#xfa;" horiz-adv-x="562" 
d="M468 708h109l-147 -154h-87zM450 215l45 252h91l-82 -467h-91l11 70q-26 -38 -70 -59t-89 -21q-87 0 -124 54t-19 153l48 270h91l-47 -264q-10 -58 11 -91t69 -33q59 0 101.5 34.5t54.5 101.5z" />
    <glyph glyph-name="ucircumflex" unicode="&#xfb;" horiz-adv-x="562" 
d="M543 554h-82l-59 87l-90 -87h-82l138 154h93zM450 215l45 252h91l-82 -467h-91l11 70q-26 -38 -70 -59t-89 -21q-87 0 -124 54t-19 153l48 270h91l-47 -264q-10 -58 11 -91t69 -33q59 0 101.5 34.5t54.5 101.5z" />
    <glyph glyph-name="udieresis" unicode="&#xfc;" horiz-adv-x="562" 
d="M450 215l45 252h91l-82 -467h-91l11 70q-26 -38 -70 -59t-89 -21q-87 0 -124 54t-19 153l48 270h91l-47 -264q-10 -58 11 -91t69 -33q59 0 101.5 34.5t54.5 101.5zM342 689q25 0 40 -17t11 -42q-4 -24 -25 -41.5t-46 -17.5q-26 0 -41 17t-11 42t25 42t47 17zM450 588
q-15 17 -11 42t25 42t47 17t41 -17t11 -42t-25 -42t-47 -17t-41 17z" />
    <glyph glyph-name="yacute" unicode="&#xfd;" horiz-adv-x="509" 
d="M65 -227l141 241l-106 453h97l80 -338l200 338h97l-414 -694h-95zM400 708h109l-147 -154h-87z" />
    <glyph glyph-name="thorn" unicode="&#xfe;" horiz-adv-x="602" 
d="M128 -213h-91l167 933h91l-57 -311q63 67 165 67q103 0 158 -67q57 -65 37 -175q-20 -109 -100 -176q-80 -68 -182 -68q-46 0 -84 18.5t-56 50.5zM508 234q12 68 -22.5 109.5t-98.5 41.5q-59 0 -114 -41q-53 -41 -66 -110q-13 -70 23 -112t103 -42q64 0 113 43
q50 44 62 111z" />
    <glyph glyph-name="ydieresis" unicode="&#xff;" horiz-adv-x="509" 
d="M65 -227l141 241l-106 453h97l80 -338l200 338h97l-414 -694h-95zM294 689q25 0 40 -17t11 -42q-4 -24 -25 -41.5t-46 -17.5q-26 0 -41 17t-11 42t25 42t47 17zM402 588q-15 17 -11 42t25 42t47 17t41 -17t11 -42t-25 -42t-47 -17t-41 17z" />
    <glyph glyph-name="Amacron" unicode="&#x100;" horiz-adv-x="645" 
d="M423 565l-169 -306h228zM536 0l-37 175h-292l-97 -175h-99l383 689h100l140 -689h-98zM338 802l14 80h252l-14 -80h-252z" />
    <glyph glyph-name="amacron" unicode="&#x101;" horiz-adv-x="612" 
d="M555 0h-90l11 72q-29 -38 -77.5 -60t-100.5 -22q-99 0 -156 68t-38 176q19 107 100 176q80 67 180 67q52 0 94 -21.5t57 -58.5l11 70h90zM504 235q14 71 -27 112q-39 41 -100 41q-65 0 -117 -43q-51 -42 -63 -110t24 -112t100 -44q65 0 117 42t66 114zM299 580l15 80h252
l-15 -80h-252z" />
    <glyph glyph-name="Abreve" unicode="&#x102;" horiz-adv-x="645" 
d="M482 259l-59 306l-169 -306h228zM207 175l-97 -175h-99l383 689h100l140 -689h-98l-37 175h-292zM352 905h74q-5 -26 7 -42.5t38 -16.5q24 0 43 17.5t23 41.5h76q-10 -59 -52 -93.5t-102 -34.5q-63 0 -90 35.5t-17 92.5z" />
    <glyph glyph-name="abreve" unicode="&#x103;" horiz-adv-x="612" 
d="M555 0h-90l11 72q-29 -38 -77.5 -60t-100.5 -22q-99 0 -156 68t-38 176q19 107 100 176q80 67 180 67q52 0 94 -21.5t57 -58.5l11 70h90zM504 235q14 71 -27 112q-39 41 -100 41q-65 0 -117 -43q-51 -42 -63 -110t24 -112t100 -44q65 0 117 42t66 114zM315 683h74
q-6 -26 6.5 -42.5t38.5 -16.5q24 0 42.5 17.5t23.5 41.5h76q-11 -59 -53 -93.5t-102 -34.5q-63 0 -89.5 35.5t-16.5 92.5z" />
    <glyph glyph-name="Aogonek" unicode="&#x104;" horiz-adv-x="645" 
d="M423 565l-169 -306h228zM490 -62l44 63l-35 174h-292l-97 -175h-99l383 689h100l140 -689h-44l-48 -87q-8 -16 -5 -31t16 -22q33 -11 55 23l6 22l65 4q-7 -31 -19 -49q-38 -64 -101 -64q-20 0 -38 8q-58 28 -47 92q3 23 16 42z" />
    <glyph glyph-name="aogonek" unicode="&#x105;" horiz-adv-x="612" 
d="M536 -117l6 22l65 4q-7 -31 -18 -49q-18 -30 -45.5 -47t-56.5 -17q-19 0 -37 8q-58 28 -47 92q3 23 16 42l44 63l13 71q-29 -38 -77.5 -60t-100.5 -22q-99 0 -156 68t-38 176q19 107 100 176q80 67 180 67q52 0 94 -21.5t57 -58.5l11 70h90l-81 -467h-36l-48 -87
q-8 -16 -5 -31t16 -22q14 -5 29.5 1.5t24.5 21.5zM504 235q14 71 -27 112q-39 41 -100 41q-65 0 -117 -43q-51 -42 -63 -110t24 -112t100 -44q65 0 117 42t66 114z" />
    <glyph glyph-name="Cacute" unicode="&#x106;" horiz-adv-x="683" 
d="M704 109q-122 -119 -283 -119q-147 0 -229 103t-57 250q25 145 145 250q121 104 266 104q77 0 139 -31t99 -86l-81 -58q-61 85 -172 85q-107 0 -196 -77q-88 -76 -108 -187t41 -187t169 -76q118 0 207 88zM615 930h109l-146 -154h-87z" />
    <glyph glyph-name="cacute" unicode="&#x107;" horiz-adv-x="512" 
d="M394 477q112 0 167 -75l-79 -58q-36 44 -103 44q-66 0 -119 -43q-54 -42 -66 -110q-12 -69 26 -113t103 -44q69 0 119 46l60 -58q-83 -76 -194 -76q-103 0 -163 68q-60 69 -41 177t103 175q83 67 187 67zM454 708h109l-146 -154h-87z" />
    <glyph glyph-name="Ccircumflex" unicode="&#x108;" horiz-adv-x="683" 
d="M644 168l60 -59q-122 -119 -283 -119q-147 0 -229 103t-57 250q25 145 145 250q121 104 266 104q77 0 139 -31t99 -86l-81 -58q-61 85 -172 85q-107 0 -196 -77q-88 -76 -108 -187t41 -187t169 -76q118 0 207 88zM715 776h-82l-59 87l-90 -87h-82l137 154h93z" />
    <glyph glyph-name="ccircumflex" unicode="&#x109;" horiz-adv-x="512" 
d="M394 477q112 0 167 -75l-79 -58q-36 44 -103 44q-66 0 -119 -43q-54 -42 -66 -110q-12 -69 26 -113t103 -44q69 0 119 46l60 -58q-83 -76 -194 -76q-103 0 -163 68q-60 69 -41 177t103 175q83 67 187 67zM561 554h-82l-60 87l-89 -87h-82l137 154h93z" />
    <glyph glyph-name="Cdotaccent" unicode="&#x10a;" horiz-adv-x="683" 
d="M704 109q-122 -119 -283 -119q-147 0 -229 103t-57 250q25 145 145 250q121 104 266 104q77 0 139 -31t99 -86l-81 -58q-61 85 -172 85q-107 0 -196 -77q-88 -76 -108 -187t41 -187t169 -76q118 0 207 88zM569 920q27 0 42 -17t11 -42t-25.5 -42t-47.5 -17t-41.5 17
t-11.5 42t25.5 42t47.5 17z" />
    <glyph glyph-name="cdotaccent" unicode="&#x10b;" horiz-adv-x="512" 
d="M394 477q112 0 167 -75l-79 -58q-36 44 -103 44q-66 0 -119 -43q-54 -42 -66 -110q-12 -69 26 -113t103 -44q69 0 119 46l60 -58q-83 -76 -194 -76q-103 0 -163 68q-60 69 -41 177t103 175q83 67 187 67zM429 698q27 0 42 -17t11 -42t-25.5 -42t-48.5 -17q-26 0 -41 17
t-11 42t25.5 42t47.5 17z" />
    <glyph glyph-name="Ccaron" unicode="&#x10c;" horiz-adv-x="683" 
d="M704 109q-122 -119 -283 -119q-147 0 -229 103t-57 250q25 145 145 250q121 104 266 104q77 0 139 -31t99 -86l-81 -58q-61 85 -172 85q-107 0 -196 -77q-88 -76 -108 -187t41 -187t169 -76q118 0 207 88zM497 930l60 -87l89 87h82l-137 -154h-93l-83 154h82z" />
    <glyph glyph-name="ccaron" unicode="&#x10d;" horiz-adv-x="512" 
d="M394 477q112 0 167 -75l-79 -58q-36 44 -103 44q-66 0 -119 -43q-54 -42 -66 -110q-12 -69 26 -113t103 -44q69 0 119 46l60 -58q-83 -76 -194 -76q-103 0 -163 68q-60 69 -41 177t103 175q83 67 187 67zM348 708l59 -87l90 87h82l-137 -154h-93l-83 154h82z" />
    <glyph glyph-name="Dcaron" unicode="&#x10e;" horiz-adv-x="724" 
d="M94 0l121 689h267q144 0 210 -98q66 -97 39 -248q-27 -150 -127 -247q-100 -96 -243 -96h-267zM375 87q103 0 174 71q69 71 89 185q20 115 -25 186q-43 73 -147 73h-174l-91 -515h174zM464 930l59 -87l90 87h82l-138 -154h-93l-82 154h82z" />
    <glyph glyph-name="dcaron" unicode="&#x10f;" horiz-adv-x="602" 
d="M578 705h90l-123 -705h-88q1 8 4.5 31.5t3.5 29.5q-30 -33 -74 -51.5t-90 -18.5q-102 0 -159 67q-57 68 -38 177t99 175q81 66 183 66q46 0 84 -17.5t56 -48.5zM194 235q-12 -66 23 -110t99 -44q63 0 115 41q50 41 64 113q13 69 -26 110t-98 41q-65 0 -114 -42
q-49 -40 -63 -109zM732 496l-54 19q38 42 54 78t21 96h90q-21 -128 -111 -193z" />
    <glyph glyph-name="Dcroat" unicode="&#x110;" horiz-adv-x="724" 
d="M363 0h-263l55 311h-93l12 68h93l54 310h263q143 0 208 -98t38 -248q-27 -151 -126 -247q-98 -96 -241 -96zM298 597l-38 -218h165l-12 -68h-165l-39 -219h170q103 0 171 69q68 71 87 182q20 114 -23 183q-44 71 -146 71h-170z" />
    <glyph glyph-name="dslash" unicode="&#x111;" horiz-adv-x="612" 
d="M728 559h-75v-1l-98 -558h-91l11 72q-29 -38 -77.5 -60t-100.5 -22q-99 0 -156 68q-56 69 -37 176q19 108 99 176q79 67 179 67q55 0 96 -21t56 -59l28 162h-150l11 62h150l18 100h91l-18 -100h75zM376 388q-64 0 -116 -43q-51 -42 -63 -110t23 -112q36 -44 100 -44
t117 42q53 43 66 114q14 71 -27 112q-39 41 -100 41z" />
    <glyph glyph-name="Emacron" unicode="&#x112;" horiz-adv-x="565" 
d="M94 0l121 689h408l-16 -87h-315l-38 -220h275l-16 -87h-275l-37 -208h325l-14 -87h-418zM317 802l14 80h252l-14 -80h-252z" />
    <glyph glyph-name="emacron" unicode="&#x113;" horiz-adv-x="556" 
d="M202 270h290q1 58 -31.5 91.5t-88.5 33.5q-59 0 -106 -34t-64 -91zM575 235l-7 -36h-379q-3 -57 32.5 -92t95.5 -35q43 0 82.5 19.5t64.5 52.5l74 -30q-41 -59 -104 -91.5t-134 -32.5q-102 0 -159 68q-56 68 -37 177t99 175q80 67 183 67q102 0 154 -67q54 -66 35 -175z
M274 580l15 80h252l-15 -80h-252z" />
    <glyph glyph-name="Ebreve" unicode="&#x114;" horiz-adv-x="565" 
d="M623 689l-16 -87h-315l-38 -220h275l-16 -87h-275l-37 -208h325l-14 -87h-418l121 689h408zM312 905h74q-5 -26 7 -42.5t38 -16.5q24 0 43 17.5t23 41.5h76q-10 -59 -52 -93.5t-102 -34.5q-63 0 -90 35.5t-17 92.5z" />
    <glyph glyph-name="ebreve" unicode="&#x115;" horiz-adv-x="556" 
d="M202 270h290q1 58 -31.5 91.5t-88.5 33.5q-59 0 -106 -34t-64 -91zM575 235l-7 -36h-379q-3 -57 32.5 -92t95.5 -35q43 0 82.5 19.5t64.5 52.5l74 -30q-41 -59 -104 -91.5t-134 -32.5q-102 0 -159 68q-56 68 -37 177t99 175q80 67 183 67q102 0 154 -67q54 -66 35 -175z
M290 683h74q-6 -26 6.5 -42.5t38.5 -16.5q24 0 42.5 17.5t23.5 41.5h76q-11 -59 -53 -93.5t-102 -34.5q-63 0 -89.5 35.5t-16.5 92.5z" />
    <glyph glyph-name="Edotaccent" unicode="&#x116;" horiz-adv-x="565" 
d="M623 689l-16 -87h-315l-38 -220h275l-16 -87h-275l-37 -208h325l-14 -87h-418l121 689h408zM467 920q27 0 42 -17t11 -42t-25.5 -42t-47.5 -17t-41.5 17t-11.5 42t25.5 42t47.5 17z" />
    <glyph glyph-name="edotaccent" unicode="&#x117;" horiz-adv-x="556" 
d="M202 270h290q1 58 -31.5 91.5t-88.5 33.5q-59 0 -106 -34t-64 -91zM575 235l-7 -36h-379q-3 -57 32.5 -92t95.5 -35q43 0 82.5 19.5t64.5 52.5l74 -30q-41 -59 -104 -91.5t-134 -32.5q-102 0 -159 68q-56 68 -37 177t99 175q80 67 183 67q102 0 154 -67q54 -66 35 -175z
M426 698q27 0 42 -17t11 -42t-25.5 -42t-48.5 -17q-26 0 -41 17t-11 42t25.5 42t47.5 17z" />
    <glyph glyph-name="Eogonek" unicode="&#x118;" horiz-adv-x="565" 
d="M512 0h-5l-42 -76q-9 -16 -6 -31t17 -22q14 -5 29.5 1.5t24.5 21.5l7 22l64 4q-1 -20 -18 -49q-18 -30 -45.5 -47t-56.5 -17q-19 0 -37 8q-58 28 -47 92q3 21 16 42l37 51h-356l121 689h408l-16 -87h-315l-38 -220h275l-16 -87h-275l-37 -208h325z" />
    <glyph glyph-name="eogonek" unicode="&#x119;" horiz-adv-x="557" 
d="M381 -87q-8 -16 -5 -31t16 -22q14 -5 29.5 1.5t24.5 21.5l6 22l65 4q-7 -31 -18 -49q-18 -30 -45.5 -47t-56.5 -17q-19 0 -37 8q-58 28 -47 92q3 23 16 42l44 61q-36 -9 -73 -9q-102 0 -159 68q-56 68 -37 177t99 175q80 67 183 67q102 0 154 -67q54 -66 35 -175l-7 -36
h-379q-3 -57 32.5 -92t95.5 -35q43 0 82.5 19.5t64.5 52.5l74 -30q-6 -9 -65 -65q-52 -52 -92 -136zM202 270h290q1 58 -31.5 91.5t-88.5 33.5q-59 0 -106 -34t-64 -91z" />
    <glyph glyph-name="Ecaron" unicode="&#x11a;" horiz-adv-x="565" 
d="M623 689l-16 -87h-315l-38 -220h275l-16 -87h-275l-37 -208h325l-14 -87h-418l121 689h408zM372 930l59 -87l90 87h82l-138 -154h-93l-82 154h82z" />
    <glyph glyph-name="ecaron" unicode="&#x11b;" horiz-adv-x="556" 
d="M202 270h290q1 58 -31.5 91.5t-88.5 33.5q-59 0 -106 -34t-64 -91zM575 235l-7 -36h-379q-3 -57 32.5 -92t95.5 -35q43 0 82.5 19.5t64.5 52.5l74 -30q-41 -59 -104 -91.5t-134 -32.5q-102 0 -159 68q-56 68 -37 177t99 175q80 67 183 67q102 0 154 -67q54 -66 35 -175z
M349 708l59 -87l90 87h82l-137 -154h-93l-83 154h82z" />
    <glyph glyph-name="Gcircumflex" unicode="&#x11c;" horiz-adv-x="756" 
d="M762 606l-78 -62q-61 64 -154 64q-106 0 -195 -78q-88 -76 -108 -187t40 -187q62 -77 168 -77q93 0 164 50q71 51 90 136h-196l14 81h302q-30 -174 -132 -265t-257 -91q-147 0 -229 103q-82 102 -56 250q25 146 145 251q118 103 265 103q136 0 217 -91zM700 776h-82
l-59 87l-90 -87h-82l137 154h93z" />
    <glyph glyph-name="gcircumflex" unicode="&#x11d;" horiz-adv-x="611" 
d="M94 -86l39 19q14 -37 47 -58.5t74 -21.5q165 0 203 212l2 11q-26 -39 -77 -62.5t-103 -23.5q-99 0 -156 67q-57 68 -38 175q20 110 100 177q83 68 181 68q52 0 93 -22.5t56 -60.5l13 73h90l-70 -396q-54 -304 -309 -304q-67 0 -117 33t-72 93zM485 233q12 70 -24 112.5
t-103 42.5q-63 0 -116 -44q-52 -43 -64 -111t23.5 -111t101.5 -43q61 0 115 42t67 112zM559 554h-82l-59 87l-90 -87h-82l138 154h93z" />
    <glyph glyph-name="Gbreve" unicode="&#x11e;" horiz-adv-x="756" 
d="M762 606l-78 -62q-61 64 -154 64q-106 0 -195 -78q-88 -76 -108 -187t40 -187q62 -77 168 -77q93 0 164 50q71 51 90 136h-196l14 81h302q-30 -174 -132 -265t-257 -91q-147 0 -229 103q-82 102 -56 250q25 146 145 251q118 103 265 103q136 0 217 -91zM437 905h74
q-5 -26 7 -42.5t38 -16.5q24 0 42.5 17.5t23.5 41.5h76q-11 -59 -53 -93.5t-101 -34.5q-63 0 -90 35.5t-17 92.5z" />
    <glyph glyph-name="gbreve" unicode="&#x11f;" horiz-adv-x="611" 
d="M133 -67q14 -37 47 -58.5t74 -21.5q165 0 203 212l2 11q-26 -39 -77 -62.5t-103 -23.5q-99 0 -156 67q-57 68 -38 175q20 110 100 177q83 68 181 68q52 0 93 -22.5t56 -60.5l13 73h90l-70 -396q-54 -304 -309 -304q-67 0 -117 33t-72 93l44 21zM485 233q12 70 -24 112.5
t-103 42.5q-63 0 -116 -44q-52 -43 -64 -111t23.5 -111t101.5 -43q61 0 115 42t67 112zM296 683h74q-5 -26 7 -42.5t38 -16.5q24 0 43 17.5t23 41.5h76q-10 -59 -52.5 -93.5t-102.5 -34.5q-63 0 -89.5 35.5t-16.5 92.5z" />
    <glyph glyph-name="Gdotaccent" unicode="&#x120;" horiz-adv-x="756" 
d="M762 606l-78 -62q-61 64 -154 64q-106 0 -195 -78q-88 -76 -108 -187t40 -187q62 -77 168 -77q93 0 164 50q71 51 90 136h-196l14 81h302q-30 -174 -132 -265t-257 -91q-147 0 -229 103q-82 102 -56 250q25 146 145 251q118 103 265 103q136 0 217 -91zM582 920
q27 0 42 -17t11 -42t-25.5 -42t-47.5 -17t-41.5 17t-11.5 42t25.5 42t47.5 17z" />
    <glyph glyph-name="gdotaccent" unicode="&#x121;" horiz-adv-x="611" 
d="M133 -67q14 -37 47 -58.5t74 -21.5q165 0 203 212l2 11q-26 -39 -77 -62.5t-103 -23.5q-99 0 -156 67q-57 68 -38 175q20 110 100 177q83 68 181 68q52 0 93 -22.5t56 -60.5l13 73h90l-70 -396q-54 -304 -309 -304q-67 0 -117 33t-72 93l44 21zM485 233q12 70 -24 112.5
t-103 42.5q-63 0 -116 -44q-52 -43 -64 -111t23.5 -111t101.5 -43q61 0 115 42t67 112zM365 597q-15 17 -11 42t26 42t48 17t41 -17t11 -42t-26 -42q-21 -17 -47 -17t-42 17z" />
    <glyph glyph-name="Gcommaaccent" unicode="&#x122;" horiz-adv-x="756" 
d="M762 606l-78 -62q-61 64 -154 64q-106 0 -195 -78q-88 -76 -108 -187t40 -187q62 -77 168 -77q93 0 164 50q71 51 90 136h-196l14 81h302q-30 -174 -132 -265t-257 -91q-147 0 -229 103q-82 102 -56 250q25 146 145 251q118 103 265 103q136 0 217 -91zM351 -250l-54 19
q40 44 55 78q16 36 21 96h90q-22 -128 -112 -193z" />
    <glyph glyph-name="gcommaaccent" unicode="&#x123;" horiz-adv-x="611" 
d="M133 -67q14 -37 47 -58.5t74 -21.5q165 0 203 212l2 11q-26 -39 -77 -62.5t-103 -23.5q-99 0 -156 67q-57 68 -38 175q20 110 100 177q83 68 181 68q52 0 93 -22.5t56 -60.5l13 73h90l-70 -396q-54 -304 -309 -304q-67 0 -117 33t-72 93l44 21zM485 233q12 70 -24 112.5
t-103 42.5q-63 0 -116 -44q-52 -43 -64 -111t23.5 -111t101.5 -43q61 0 115 42t67 112zM442 749l55 -19q-40 -44 -55 -78q-18 -39 -22 -96h-90q22 128 112 193z" />
    <glyph glyph-name="Hcircumflex" unicode="&#x124;" horiz-adv-x="708" 
d="M641 689h94l-121 -689h-94l52 300h-333l-52 -300h-93l121 689h93l-54 -304h333zM646 776h-82l-59 87l-90 -87h-82l138 154h93z" />
    <glyph glyph-name="hcircumflex" unicode="&#x125;" 
d="M211 252l-44 -252h-91l127 721h91l-57 -324q26 40 75 59q50 21 93 21q89 0 130 -55t22 -152l-47 -270h-91l46 264q10 57 -14.5 90.5t-73.5 33.5q-56 0 -105 -34q-49 -33 -61 -102zM414 765h-82l-59 87l-90 -87h-82l137 154h93z" />
    <glyph glyph-name="Hbar" unicode="&#x126;" horiz-adv-x="716" 
d="M738 689l-22 -125h70l-11 -62h-70l-88 -502h-93l52 298h-332l-52 -298h-93l88 502h-69l11 62h69l22 125h93l-22 -125h332l22 125h93zM280 502l-20 -116h332l20 116h-332z" />
    <glyph glyph-name="hbar" unicode="&#x127;" 
d="M395 559h-130l-28 -162q26 40 75 59q50 21 93 21q89 0 130 -55t22 -152l-47 -270h-91l46 264q10 57 -14.5 90.5t-73.5 33.5q-56 0 -105 -34q-49 -33 -61 -102l-44 -252h-91l98 559h-70l11 62h70l18 100h91l-18 -100h130z" />
    <glyph glyph-name="Itilde" unicode="&#x128;" horiz-adv-x="281" 
d="M94 0l121 689h93l-121 -689h-93zM242 832q-10 0 -19.5 -11.5t-14.5 -32.5h-61q14 58 43.5 87.5t65.5 29.5q24 0 53 -24q20 -17 28 -17q26 0 36 41h61q-14 -57 -43.5 -85.5t-65.5 -28.5q-24 0 -53 25q-19 16 -30 16z" />
    <glyph glyph-name="itilde" unicode="&#x129;" horiz-adv-x="241" 
d="M158 467h89l-82 -467h-89zM187 610q-10 0 -19.5 -11.5t-14.5 -32.5h-61q14 58 43.5 87.5t65.5 29.5q25 0 53 -24q20 -17 28 -17q26 0 36 41h61q-14 -57 -44 -85.5t-66 -28.5q-24 0 -53 25q-17 16 -29 16z" />
    <glyph glyph-name="Imacron" unicode="&#x12a;" horiz-adv-x="281" 
d="M94 0l121 689h93l-121 -689h-93zM157 802l14 80h252l-14 -80h-252z" />
    <glyph glyph-name="imacron" unicode="&#x12b;" horiz-adv-x="241" 
d="M158 467h89l-82 -467h-89zM101 580l14 80h252l-14 -80h-252z" />
    <glyph glyph-name="Ibreve" unicode="&#x12c;" horiz-adv-x="281" 
d="M308 689l-121 -689h-93l121 689h93zM170 905h74q-5 -26 7 -42.5t38 -16.5q24 0 43 17.5t23 41.5h76q-10 -59 -52 -93.5t-102 -34.5q-63 0 -90 35.5t-17 92.5z" />
    <glyph glyph-name="ibreve" unicode="&#x12d;" horiz-adv-x="241" 
d="M165 0h-89l82 467h89zM116 683h74q-5 -26 7 -42.5t38 -16.5q24 0 43 17.5t23 41.5h76q-11 -59 -53 -93.5t-102 -34.5q-63 0 -89.5 35.5t-16.5 92.5z" />
    <glyph glyph-name="Iogonek" unicode="&#x12e;" horiz-adv-x="281" 
d="M192 0h-39l-48 -87q-8 -16 -5 -31t16 -22q14 -5 29.5 1.5t24.5 21.5l6 22l65 4q-7 -31 -18 -49q-18 -30 -45.5 -47t-56.5 -17q-19 0 -37 8q-58 28 -47 92q3 23 16 42l44 63l122 688h93z" />
    <glyph glyph-name="iogonek" unicode="&#x12f;" horiz-adv-x="242" 
d="M171 0h-35l-48 -87q-8 -16 -5 -31t16 -22q14 -5 29.5 1.5t24.5 21.5l6 22l65 4q-7 -31 -18 -49q-18 -30 -45.5 -47t-56.5 -17q-19 0 -37 8q-58 28 -47 92q3 23 16 42l45 62l81 467h90zM263 698q27 0 42 -17t11 -42t-25.5 -42t-48.5 -17q-26 0 -41 17t-11 42t25.5 42
t47.5 17z" />
    <glyph glyph-name="Idot" unicode="&#x130;" horiz-adv-x="281" 
d="M308 689l-121 -689h-93l121 689h93zM303 920q27 0 42 -17t11 -42t-25.5 -42t-47.5 -17t-41.5 17t-11.5 42t25.5 42t47.5 17z" />
    <glyph glyph-name="dotlessi" unicode="&#x131;" horiz-adv-x="242" 
d="M158 467h90l-82 -467h-90z" />
    <glyph glyph-name="IJ" unicode="&#x132;" horiz-adv-x="562" 
d="M94 0l121 689h93l-121 -689h-93zM137 -240l25 88q24 -8 64 -8q59 0 95 35.5t48 97.5l127 716h93l-127 -716q-18 -103 -82.5 -163.5t-169.5 -60.5q-20 0 -73 11z" />
    <glyph glyph-name="ij" unicode="&#x133;" horiz-adv-x="486" 
d="M166 0h-90l82 467h90zM181 597q-15 17 -11 42t26 42t48 17t41 -17t11 -42t-26 -42q-21 -17 -47 -17t-42 17zM200 -229h-62l16 85h54q54 0 77 39q20 29 27 77l88 495h92l-88 -496q-35 -200 -204 -200zM424 597q-15 17 -11 42t26 42t48 17t41 -17t11 -42t-26 -42
q-21 -17 -47 -17t-42 17z" />
    <glyph glyph-name="Jcircumflex" unicode="&#x134;" horiz-adv-x="281" 
d="M-142 -240l24 88q26 -8 65 -8q58 0 93.5 35.5t47.5 97.5l127 716h93l-127 -716q-18 -103 -81.5 -163.5t-168.5 -60.5q-20 0 -73 11zM426 776h-82l-59 87l-90 -87h-82l138 154h93z" />
    <glyph glyph-name="jcircumflex" unicode="&#x135;" horiz-adv-x="244" 
d="M-40 -229h-62l16 85h54q47 0 69.5 29.5t32.5 86.5l88 495h92l-88 -496q-35 -200 -202 -200zM380 554h-82l-59 87l-90 -87h-82l138 154h93z" />
    <glyph glyph-name="Kcommaaccent" unicode="&#x136;" horiz-adv-x="578" 
d="M651 689l-326 -344l260 -345h-125l-222 294l-51 -294h-93l121 689h93l-52 -298l280 298h115zM255 -250l-54 19q40 44 55 78q16 36 21 96h90q-21 -129 -112 -193z" />
    <glyph glyph-name="kcommaaccent" unicode="&#x137;" horiz-adv-x="502" 
d="M379 0l-173 228l-40 -228h-90l127 721h90l-74 -417l190 163h124l-236 -202l202 -265h-120zM201 -250l-54 19q40 44 55 78q16 36 21 96h90q-21 -129 -112 -193z" />
    <glyph glyph-name="kgreenlandic" unicode="&#x138;" horiz-adv-x="494" 
d="M358 0l-160 187l-32 -187h-90l82 467h90l-33 -187l211 187h119l-258 -231l197 -236h-126z" />
    <glyph glyph-name="Lacute" unicode="&#x139;" horiz-adv-x="495" 
d="M308 689l-107 -602h281l-14 -87h-374l121 689h93zM359 919h109l-146 -154h-87z" />
    <glyph glyph-name="lacute" unicode="&#x13a;" horiz-adv-x="243" 
d="M294 721l-127 -721h-91l127 721h91zM338 931h109l-146 -154h-87z" />
    <glyph glyph-name="Lcommaaccent" unicode="&#x13b;" horiz-adv-x="495" 
d="M94 0l121 689h93l-107 -602h281l-14 -87h-374zM194 -250l-54 19q40 44 55 78q17 36 21 96h90q-21 -129 -112 -193z" />
    <glyph glyph-name="lcommaaccent" unicode="&#x13c;" horiz-adv-x="243" 
d="M76 0l127 721h91l-127 -721h-91zM43 -250l-52 19q36 40 53 79q16 36 21 95h90q-21 -129 -112 -193z" />
    <glyph glyph-name="Lcaron" unicode="&#x13d;" horiz-adv-x="495" 
d="M94 0l121 689h93l-107 -602h281l-14 -87h-374zM398 496l-54 19q38 42 54 78q18 39 22 96h90q-21 -129 -112 -193z" />
    <glyph glyph-name="lcaron" unicode="&#x13e;" horiz-adv-x="243" 
d="M76 0l127 721h91l-127 -721h-91zM360 528l-55 19q39 42 55 77q18 40 22 97h90q-21 -129 -112 -193z" />
    <glyph glyph-name="Ldot" unicode="&#x13f;" horiz-adv-x="495" 
d="M94 0l121 689h93l-107 -602h281l-14 -87h-374zM323 216q-16 18 -12 45t26 45q23 18 50 18t43 -18t12 -45t-27 -45q-22 -17 -49 -17t-43 17z" />
    <glyph glyph-name="ldot" unicode="&#x140;" horiz-adv-x="337" 
d="M76 0l127 721h91l-127 -721h-91zM280 216q-16 18 -12 45t26 45q23 18 50 18t43 -18t12 -45t-27 -45q-22 -17 -49 -17t-43 17z" />
    <glyph glyph-name="Lslash" unicode="&#x141;" horiz-adv-x="499" 
d="M312 689l-41 -237l114 65l-11 -66l-115 -65l-53 -294h280l-15 -92h-372l57 328l-72 -41l12 66l72 41l52 295h92z" />
    <glyph glyph-name="lslash" unicode="&#x142;" horiz-adv-x="255" 
d="M211 721h90l-50 -281l86 50l-12 -64l-86 -50l-65 -376h-90l55 319l-74 -43l12 64l74 43z" />
    <glyph glyph-name="Nacute" unicode="&#x143;" horiz-adv-x="684" 
d="M501 0l-223 519l-91 -519h-93l121 689h92l219 -515l92 515h93l-121 -689h-89zM530 930h109l-147 -154h-87z" />
    <glyph glyph-name="nacute" unicode="&#x144;" horiz-adv-x="563" 
d="M211 252l-44 -252h-91l82 467h91l-12 -70q26 38 70.5 59t89.5 21q87 0 124 -54t19 -153l-47 -270h-91l46 264q10 58 -11.5 91t-69.5 33q-59 0 -101.5 -35t-54.5 -101zM439 708h109l-147 -154h-87z" />
    <glyph glyph-name="Ncommaaccent" unicode="&#x145;" horiz-adv-x="684" 
d="M711 689l-121 -689h-89l-223 519l-91 -519h-93l121 689h92l219 -515l92 515h93zM272 -250l-54 19q40 44 55 78q17 36 21 96h90q-21 -129 -112 -193z" />
    <glyph glyph-name="ncommaaccent" unicode="&#x146;" horiz-adv-x="563" 
d="M211 252l-44 -252h-91l82 467h91l-12 -70q26 38 70.5 59t89.5 21q87 0 124 -54t19 -153l-47 -270h-91l46 264q10 58 -11.5 91t-69.5 33q-59 0 -101.5 -35t-54.5 -101zM207 -250l-54 19q40 44 55 78q16 36 21 96h90q-21 -129 -112 -193z" />
    <glyph glyph-name="Ncaron" unicode="&#x147;" horiz-adv-x="684" 
d="M501 0l-223 519l-91 -519h-93l121 689h92l219 -515l92 515h93l-121 -689h-89zM431 930l59 -87l90 87h82l-138 -154h-93l-82 154h82z" />
    <glyph glyph-name="ncaron" unicode="&#x148;" horiz-adv-x="563" 
d="M211 252l-44 -252h-91l82 467h91l-12 -70q26 38 70.5 59t89.5 21q87 0 124 -54t19 -153l-47 -270h-91l46 264q10 58 -11.5 91t-69.5 33q-59 0 -101.5 -35t-54.5 -101zM332 708l58 -87l91 87h82l-138 -154h-93l-82 154h82z" />
    <glyph glyph-name="napostrophe" unicode="&#x149;" horiz-adv-x="563" 
d="M90 469l-61 19q59 66 72 114q4 14 7 59h95q-21 -127 -113 -192zM210 252l-43 -252h-91l81 467h91l-11 -70q26 38 70 59t89 21q87 0 124 -54t20 -153l-48 -270h-90l46 264q10 58 -11.5 91t-69.5 33q-59 0 -102 -35t-55 -101z" />
    <glyph glyph-name="Eng" unicode="&#x14a;" horiz-adv-x="682" 
d="M490 -23l6 33l-219 505l-91 -515h-92l121 689h91l218 -515l92 515h92l-121 -685q-44 -251 -255 -251q-32 0 -74 11l25 93q24 -6 54 -9q42 -3 71 11q66 28 82 118z" />
    <glyph glyph-name="eng" unicode="&#x14b;" horiz-adv-x="562" 
d="M540 270l-47 -256q-44 -233 -248 -233q-31 0 -71 10l24 91q34 -12 63 -12q58 0 93 35t48 95l46 264q10 58 -11.5 91t-69.5 33q-59 0 -101.5 -35t-54.5 -101l-44 -252h-91l82 467h91l-12 -70q26 38 70.5 59t89.5 21q87 0 124.5 -54.5t18.5 -152.5z" />
    <glyph glyph-name="Omacron" unicode="&#x14c;" horiz-adv-x="796" 
d="M135 343q25 146 145 251q118 103 265 103t230 -104q84 -103 58 -250q-25 -146 -146 -250q-119 -103 -267 -103q-147 0 -229 103q-82 102 -56 250zM228 343q-20 -111 40 -187t168 -76q109 0 195 76q87 77 107 187q20 111 -40 187q-60 77 -168 77q-107 0 -196 -77
q-86 -76 -106 -187zM440 802l13 80h252l-13 -80h-252z" />
    <glyph glyph-name="omacron" unicode="&#x14d;" horiz-adv-x="579" 
d="M104 235q20 108 101 175q82 67 186 67t162 -67q59 -68 40 -175q-20 -108 -103 -177q-83 -68 -185 -68t-161 68t-40 177zM502 235q12 68 -24 110.5t-102 42.5t-118 -42t-64 -111q-12 -71 24 -114q37 -43 102 -43t117 43q53 44 65 114zM274 580l15 80h252l-15 -80h-252z
" />
    <glyph glyph-name="Obreve" unicode="&#x14e;" horiz-adv-x="796" 
d="M135 343q25 146 145 251q118 103 265 103t230 -104q84 -103 58 -250q-25 -146 -146 -250q-119 -103 -267 -103q-147 0 -229 103q-82 102 -56 250zM228 343q-20 -111 40 -187t168 -76q109 0 195 76q87 77 107 187q20 111 -40 187q-60 77 -168 77q-107 0 -196 -77
q-86 -76 -106 -187zM453 905h74q-5 -26 7 -42.5t38 -16.5q24 0 42.5 17.5t23.5 41.5h76q-11 -59 -53 -93.5t-101 -34.5q-63 0 -90 35.5t-17 92.5z" />
    <glyph glyph-name="obreve" unicode="&#x14f;" horiz-adv-x="579" 
d="M104 235q20 108 101 175q82 67 186 67t162 -67q59 -68 40 -175q-20 -108 -103 -177q-83 -68 -185 -68t-161 68t-40 177zM194 235q-12 -71 24 -114q37 -43 102 -43t117 43q53 44 65 114q12 68 -24 110.5t-102 42.5t-118 -42t-64 -111zM299 683h74q-6 -26 6.5 -42.5
t38.5 -16.5q24 0 42.5 17.5t23.5 41.5h76q-11 -59 -53 -93.5t-102 -34.5q-63 0 -89.5 35.5t-16.5 92.5z" />
    <glyph glyph-name="Ohungarumlaut" unicode="&#x150;" horiz-adv-x="796" 
d="M135 343q25 146 145 251q118 103 265 103t230 -104q84 -103 58 -250q-25 -146 -146 -250q-119 -103 -267 -103q-147 0 -229 103q-82 102 -56 250zM228 343q-20 -111 40 -187t168 -76q109 0 195 76q87 77 107 187q20 111 -40 187q-60 77 -168 77q-107 0 -196 -77
q-86 -76 -106 -187zM550 930h92l-116 -154h-83zM692 930h94l-129 -154h-81z" />
    <glyph glyph-name="ohungarumlaut" unicode="&#x151;" horiz-adv-x="579" 
d="M104 235q20 108 101 175q82 67 186 67t162 -67q59 -68 40 -175q-20 -108 -103 -177q-83 -68 -185 -68t-161 68t-40 177zM194 235q-12 -71 24 -114q37 -43 102 -43t117 43q53 44 65 114q12 68 -24 110.5t-102 42.5t-118 -42t-64 -111zM380 708h92l-116 -154h-83zM522 708
h94l-129 -154h-81z" />
    <glyph glyph-name="OE" unicode="&#x152;" horiz-adv-x="1120" 
d="M776 578l21 111h406l-17 -92h-313l-37 -213h274l-17 -92h-274l-35 -200h324l-15 -92h-417l18 108q-119 -118 -275 -118q-146 0 -228 103q-81 103 -55 250q25 147 144 251q118 103 264 103q75 0 135.5 -31.5t96.5 -87.5zM435 83q105 0 190 72q87 75 109 177l3 22
q14 106 -46 177q-58 73 -163 73q-108 0 -194 -76q-86 -77 -105 -185t40 -185q59 -75 166 -75z" />
    <glyph glyph-name="oe" unicode="&#x153;" horiz-adv-x="955" 
d="M974 235l-7 -36h-379q-3 -57 32.5 -92t95.5 -35q43 0 82.5 19.5t64.5 52.5l74 -30q-41 -59 -104 -91.5t-134 -32.5q-61 0 -107.5 25.5t-70.5 71.5q-88 -97 -216 -97q-102 0 -161 68t-40 177q20 108 101 175q82 67 186 67q61 0 109 -25t73 -71q85 96 212 96q102 0 154 -67
q54 -66 35 -175zM502 235q12 68 -24 110.5t-102 42.5t-118 -42t-64 -111q-12 -71 24 -114q37 -43 102 -43t117 43q53 44 65 114zM601 270h290q1 58 -31.5 91.5t-88.5 33.5q-59 0 -106 -34t-64 -91z" />
    <glyph glyph-name="Racute" unicode="&#x154;" horiz-adv-x="619" 
d="M567 0h-113l-134 258h-88l-44 -258h-94l121 689h265q66 0 109 -31t55 -81q12 -48 2 -104q-15 -83 -71 -144t-147 -68zM293 602l-45 -257h164q57 0 93 35.5t45 92.5q10 56 -12.5 92.5t-76.5 36.5h-168zM466 930h109l-147 -154h-87z" />
    <glyph glyph-name="racute" unicode="&#x155;" horiz-adv-x="395" 
d="M197 170l-30 -170h-91l82 467h91l-19 -105q55 115 151 115q55 0 77 -18l-29 -85q-28 16 -66 16q-62 0 -105 -59t-61 -161zM299 708h109l-147 -154h-87z" />
    <glyph glyph-name="Rcommaaccent" unicode="&#x156;" horiz-adv-x="619" 
d="M428 261l139 -261h-113l-134 258h-88l-44 -258h-94l121 689h265q69 0 111 -33q76 -59 55 -183q-15 -83 -71 -144t-147 -68zM461 602h-168l-45 -257h164q57 0 93 35.5t45 92.5q10 56 -12.5 92.5t-76.5 36.5zM240 -250l-54 19q40 44 55 78q17 36 21 96h90
q-21 -129 -112 -193z" />
    <glyph glyph-name="rcommaaccent" unicode="&#x157;" horiz-adv-x="395" 
d="M197 170l-30 -170h-91l82 467h91l-19 -105q55 115 151 115q55 0 77 -18l-29 -85q-28 16 -66 16q-62 0 -105 -59t-61 -161zM43 -250l-52 19q36 40 53 79q16 36 21 95h90q-21 -129 -112 -193z" />
    <glyph glyph-name="Rcaron" unicode="&#x158;" horiz-adv-x="619" 
d="M567 0h-113l-134 258h-88l-44 -258h-94l121 689h265q66 0 109 -31t55 -81q12 -48 2 -104q-15 -83 -71 -144t-147 -68zM293 602l-45 -257h164q57 0 93 35.5t45 92.5q10 56 -12.5 92.5t-76.5 36.5h-168zM398 930l59 -87l90 87h82l-138 -154h-93l-82 154h82z" />
    <glyph glyph-name="rcaron" unicode="&#x159;" horiz-adv-x="395" 
d="M197 170l-30 -170h-91l82 467h91l-19 -105q55 115 151 115q55 0 77 -18l-29 -85q-28 16 -66 16q-62 0 -105 -59t-61 -161zM256 708l58 -87l91 87h82l-138 -154h-93l-82 154h82z" />
    <glyph glyph-name="Sacute" unicode="&#x15a;" horiz-adv-x="573" 
d="M485 930h109l-146 -154h-87zM194 199q-8 -47 27 -85q36 -37 99 -37q60 0 100.5 28t55.5 73q26 95 -95 123l-84 22q-161 44 -136 180q15 85 90 139q76 55 167 55q96 0 149 -56q54 -56 38 -146h-93q9 51 -22 82t-88 31q-52 0 -96 -29q-43 -28 -52 -75q-14 -72 80 -96
l88 -22q94 -24 132 -79.5t14 -136.5q-22 -76 -94 -129q-70 -51 -169 -51q-102 0 -161 62q-58 63 -43 147h93z" />
    <glyph glyph-name="sacute" unicode="&#x15b;" horiz-adv-x="439" 
d="M287 191l-60 15q-65 18 -90 54.5t-8 97.5q13 50 66 85q52 34 116 34q68 0 106.5 -34t32.5 -98h-87q1 24 -17 38.5t-46 14.5q-26 0 -48 -11.5t-30 -30.5q-10 -24 -6 -37q6 -22 50 -36l65 -17q115 -30 97 -136q-10 -63 -71 -102q-59 -38 -135 -38q-66 0 -112 41
q-45 41 -36 109h83q0 -36 29 -53q31 -19 72 -16q32 2 54 19t27 42q9 44 -52 59zM374 708h109l-146 -154h-87z" />
    <glyph glyph-name="Scircumflex" unicode="&#x15c;" horiz-adv-x="573" 
d="M585 776h-82l-59 87l-90 -87h-82l137 154h93zM101 199h93q-8 -47 27 -85q36 -37 99 -37q60 0 100.5 28t55.5 73q26 95 -95 123l-84 22q-161 44 -136 180q15 85 90 139q76 55 167 55q96 0 149 -56q54 -56 38 -146h-93q9 51 -22 82t-88 31q-52 0 -96 -29q-43 -28 -52 -75
q-14 -72 80 -96l88 -22q94 -24 132 -79.5t14 -136.5q-22 -76 -94 -129q-70 -51 -169 -51q-102 0 -161 62q-58 63 -43 147z" />
    <glyph glyph-name="scircumflex" unicode="&#x15d;" horiz-adv-x="439" 
d="M287 191l-60 15q-65 18 -90 54.5t-8 97.5q13 50 66 85q52 34 116 34q68 0 106.5 -34t32.5 -98h-87q1 24 -17 38.5t-46 14.5q-26 0 -48 -11.5t-30 -30.5q-10 -24 -6 -37q6 -22 50 -36l65 -17q115 -30 97 -136q-10 -63 -71 -102q-59 -38 -135 -38q-66 0 -112 41
q-45 41 -36 109h83q0 -36 29 -53q31 -19 72 -16q32 2 54 19t27 42q9 44 -52 59zM482 554h-82l-59 87l-90 -87h-82l137 154h93z" />
    <glyph glyph-name="Scedilla" unicode="&#x15e;" horiz-adv-x="573" 
d="M247 -117q11 -33 46 -23q16 7 24 22t5 31l-15 77h-2q-102 0 -161 62q-58 63 -43 147h93q-8 -47 27 -85q36 -37 99 -37q60 0 100.5 28t55.5 73q14 49 -13 80t-82 43l-84 22q-161 44 -136 180q15 85 90 139q76 55 167 55q96 0 149 -56q54 -56 38 -146h-93q9 51 -22 82
t-88 31q-52 0 -96 -29q-43 -28 -52 -75q-14 -72 80 -96l88 -22q94 -24 132 -79.5t14 -136.5q-19 -66 -74 -113t-130 -61l20 -58q4 -18 0 -42q-12 -65 -79 -92q-21 -8 -41 -8q-29 0 -50 17t-28 47q-7 25 -2 49l63 -4q-3 -14 0 -22z" />
    <glyph glyph-name="scedilla" unicode="&#x15f;" horiz-adv-x="440" 
d="M288 -1l22 -61q4 -18 0 -42q-12 -65 -79 -92q-21 -8 -41 -8q-29 0 -50 17t-28 47q-6 25 -2 49l63 -4q-3 -14 0 -22q11 -33 46 -23q16 7 24.5 22t5.5 31l-14 78q-1 0 -6 -0.5t-7 -0.5q-66 0 -112 41q-45 41 -36 109h83q0 -36 29 -53q26 -19 72 -16q32 2 54 19t27 42
q9 44 -52 59l-60 15q-65 18 -90 54.5t-8 97.5q13 50 66 85q52 34 116 34q68 0 106.5 -34t32.5 -98h-87q1 24 -17 38.5t-46 14.5q-26 0 -48 -11.5t-30 -30.5q-10 -24 -6 -37q6 -22 50 -36l65 -17q114 -30 96 -136q-9 -48 -46.5 -83t-92.5 -48z" />
    <glyph glyph-name="Scaron" unicode="&#x160;" horiz-adv-x="573" 
d="M392 930l60 -87l89 87h82l-137 -154h-93l-83 154h82zM194 199q-8 -47 27 -85q36 -37 99 -37q60 0 100.5 28t55.5 73q26 95 -95 123l-84 22q-161 44 -136 180q15 85 90 139q76 55 167 55q96 0 149 -56q54 -56 38 -146h-93q9 51 -22 82t-88 31q-52 0 -96 -29
q-43 -28 -52 -75q-14 -72 80 -96l88 -22q94 -24 132 -79.5t14 -136.5q-22 -76 -94 -129q-70 -51 -169 -51q-102 0 -161 62q-58 63 -43 147h93z" />
    <glyph glyph-name="scaron" unicode="&#x161;" horiz-adv-x="439" 
d="M287 191l-60 15q-65 18 -90 54.5t-8 97.5q13 50 66 85q52 34 116 34q68 0 106.5 -34t32.5 -98h-87q1 24 -17 38.5t-46 14.5q-26 0 -48 -11.5t-30 -30.5q-10 -24 -6 -37q6 -22 50 -36l65 -17q115 -30 97 -136q-10 -63 -71 -102q-59 -38 -135 -38q-66 0 -112 41
q-45 41 -36 109h83q0 -36 29 -53q31 -19 72 -16q32 2 54 19t27 42q9 44 -52 59zM278 708l59 -87l90 87h82l-137 -154h-93l-83 154h82z" />
    <glyph glyph-name="Tcommaaccent" unicode="&#x162;" horiz-adv-x="568" 
d="M134 601l15 88h512l-15 -88h-209l-106 -601h-94l106 601h-209zM204 -250l-54 19q38 42 54 78t21 96h90q-21 -128 -111 -193z" />
    <glyph glyph-name="tcommaaccent" unicode="&#x163;" horiz-adv-x="328" 
d="M315 643l-31 -176h99l-14 -77h-99l-68 -390h-91l68 390h-84l14 77h84l31 176h91zM77 -250l-54 19q40 44 55 78q16 36 21 96h90q-21 -129 -112 -193z" />
    <glyph glyph-name="Tcaron" unicode="&#x164;" horiz-adv-x="568" 
d="M661 689l-15 -88h-209l-106 -601h-94l106 601h-209l15 88h512zM373 930l60 -87l89 87h82l-137 -154h-93l-83 154h82z" />
    <glyph glyph-name="tcaron" unicode="&#x165;" horiz-adv-x="328" 
d="M383 467l-14 -77h-99l-68 -390h-91l68 390h-84l14 77h84l31 176h91l-31 -176h99zM392 528l-55 19q40 44 55 78q18 39 22 96h90q-21 -129 -112 -193z" />
    <glyph glyph-name="Tbar" unicode="&#x166;" horiz-adv-x="567" 
d="M435 597l-33 -187h133l-12 -66h-133l-60 -344h-93l60 344h-132l12 66h132l33 187h-211l16 92h515l-16 -92h-211z" />
    <glyph glyph-name="tbar" unicode="&#x167;" horiz-adv-x="330" 
d="M203 0h-91l40 226h-68l10 61h68l18 103h-84l14 77h84l31 176h91l-31 -176h99l-14 -77h-99l-18 -103h76l-10 -61h-76z" />
    <glyph glyph-name="Utilde" unicode="&#x168;" horiz-adv-x="678" 
d="M557 237l80 452h93l-80 -452q-20 -110 -105 -179q-86 -68 -190 -68q-105 0 -167 68q-62 69 -42 179l80 452h94l-80 -452q-12 -69 26 -113q39 -44 105 -44q65 0 120 44q54 43 66 113zM425 788h-61q14 58 43.5 87.5t65.5 29.5q25 0 53 -24q20 -17 27 -17q11 0 21.5 10.5
t15.5 30.5h61q-14 -57 -44 -85.5t-65 -28.5q-25 0 -54 25q-27 21 -39.5 13.5t-23.5 -41.5z" />
    <glyph glyph-name="utilde" unicode="&#x169;" horiz-adv-x="562" 
d="M450 215l45 252h91l-82 -467h-91l11 70q-26 -38 -70 -59t-89 -21q-87 0 -124 54t-19 153l48 270h91l-47 -264q-10 -58 11 -91t69 -33q59 0 101.5 34.5t54.5 101.5zM368 610q-10 0 -20 -11.5t-15 -32.5h-61q14 58 43.5 87.5t65.5 29.5q25 0 53 -24q20 -17 28 -17
q26 0 36 41h61q-14 -57 -44 -85.5t-66 -28.5q-24 0 -53 25q-17 16 -28 16z" />
    <glyph glyph-name="Umacron" unicode="&#x16a;" horiz-adv-x="678" 
d="M557 237l80 452h93l-80 -452q-20 -110 -105 -179q-86 -68 -190 -68q-105 0 -167 68q-62 69 -42 179l80 452h94l-80 -452q-12 -69 26 -113q39 -44 105 -44q65 0 120 44q54 43 66 113zM374 802l13 80h252l-13 -80h-252z" />
    <glyph glyph-name="umacron" unicode="&#x16b;" horiz-adv-x="562" 
d="M450 215l45 252h91l-82 -467h-91l11 70q-26 -38 -70 -59t-89 -21q-87 0 -124 54t-19 153l48 270h91l-47 -264q-10 -58 11 -91t69 -33q59 0 101.5 34.5t54.5 101.5zM281 580l15 80h252l-15 -80h-252z" />
    <glyph glyph-name="Ubreve" unicode="&#x16c;" horiz-adv-x="678" 
d="M557 237l80 452h93l-80 -452q-20 -110 -105 -179q-86 -68 -190 -68q-105 0 -167 68q-62 69 -42 179l80 452h94l-80 -452q-12 -69 26 -113q39 -44 105 -44q65 0 120 44q54 43 66 113zM387 905h74q-5 -26 7 -42.5t38 -16.5q24 0 42.5 17.5t23.5 41.5h76q-11 -59 -53 -93.5
t-101 -34.5q-63 0 -90 35.5t-17 92.5z" />
    <glyph glyph-name="ubreve" unicode="&#x16d;" horiz-adv-x="562" 
d="M450 215l45 252h91l-82 -467h-91l11 70q-26 -38 -70 -59t-89 -21q-87 0 -124 54t-19 153l48 270h91l-47 -264q-10 -58 11 -91t69 -33q59 0 101.5 34.5t54.5 101.5zM296 683h74q-5 -26 7 -42.5t38 -16.5q24 0 43 17.5t23 41.5h76q-10 -59 -52.5 -93.5t-102.5 -34.5
q-63 0 -89.5 35.5t-16.5 92.5z" />
    <glyph glyph-name="Uring" unicode="&#x16e;" horiz-adv-x="678" 
d="M557 237l80 452h93l-80 -452q-20 -110 -105 -179q-86 -68 -190 -68q-105 0 -167 68q-62 69 -42 179l80 452h94l-80 -452q-12 -69 26 -113q39 -44 105 -44q65 0 120 44q54 43 66 113zM404 867q8 45 44 75.5t80 30.5q45 0 70 -30.5t17 -75.5q-8 -44 -44 -74t-81 -30
q-44 0 -69 30.5t-17 73.5zM458 867q-4 -21 8 -36t33 -15q23 0 41.5 15t22.5 36q4 22 -9.5 37.5t-36.5 15.5q-21 0 -38 -15.5t-21 -37.5z" />
    <glyph glyph-name="uring" unicode="&#x16f;" horiz-adv-x="562" 
d="M450 215l45 252h91l-82 -467h-91l11 70q-26 -38 -70 -59t-89 -21q-87 0 -124 54t-19 153l48 270h91l-47 -264q-10 -58 11 -91t69 -33q59 0 101.5 34.5t54.5 101.5zM314 645q8 45 43 75.5t79 30.5q45 0 71 -30.5t18 -75.5q-7 -43 -44 -74q-37 -30 -82 -30q-43 0 -68 30
t-17 74zM367 645q-4 -21 8.5 -36t33.5 -15q22 0 40.5 15t22.5 36q4 22 -9 37.5t-36 15.5q-21 0 -38.5 -15.5t-21.5 -37.5z" />
    <glyph glyph-name="Uhungarumlaut" unicode="&#x170;" horiz-adv-x="678" 
d="M557 237l80 452h93l-80 -452q-20 -110 -105 -179q-86 -68 -190 -68q-105 0 -167 68q-62 69 -42 179l80 452h94l-80 -452q-12 -69 26 -113q39 -44 105 -44q65 0 120 44q54 43 66 113zM471 930h92l-116 -154h-83zM613 930h94l-129 -154h-81z" />
    <glyph glyph-name="uhungarumlaut" unicode="&#x171;" horiz-adv-x="562" 
d="M450 215l45 252h91l-82 -467h-91l11 70q-26 -38 -70 -59t-89 -21q-87 0 -124 54t-19 153l48 270h91l-47 -264q-10 -58 11 -91t69 -33q59 0 101.5 34.5t54.5 101.5zM372 708h92l-117 -154h-83zM514 708h94l-130 -154h-81z" />
    <glyph glyph-name="Uogonek" unicode="&#x172;" horiz-adv-x="678" 
d="M410 -117l6 22l65 4q-4 -28 -18 -49q-18 -30 -45.5 -47t-56.5 -17q-19 0 -37 8q-58 28 -47 92q3 23 16 42l38 53q-96 7 -150 75q-53 68 -35 171l80 452h94l-80 -452q-12 -69 26 -113t104 -44q65 0 120 44q54 43 66 113l80 452h93l-79 -452q-16 -100 -92 -168
q-76 -67 -170 -77l-43 -79q-8 -16 -5 -31t16 -22q14 -5 29.5 1.5t24.5 21.5z" />
    <glyph glyph-name="uogonek" unicode="&#x173;" horiz-adv-x="562" 
d="M486 -117l6 22l65 4q-7 -31 -18 -49q-18 -30 -45.5 -47t-56.5 -17q-19 0 -37 8q-28 13 -40.5 38t-7.5 54q3 23 16 42l45 62l11 70q-26 -38 -70 -59t-89 -21q-87 0 -124 54t-19 153l48 270h91l-47 -264q-10 -58 11 -91t69 -33q59 0 101.5 34.5t54.5 101.5l45 252h91
l-82 -467h-35l-48 -87q-9 -16 -6 -31t17 -22q14 -5 29.5 1.5t24.5 21.5z" />
    <glyph glyph-name="Wcircumflex" unicode="&#x174;" horiz-adv-x="901" 
d="M638 150l269 539h100l-354 -689h-81l-46 430l-197 -430h-81l-112 689h100l77 -539l207 446h71zM743 776h-82l-59 87l-90 -87h-82l138 154h93z" />
    <glyph glyph-name="wcircumflex" unicode="&#x175;" horiz-adv-x="790" 
d="M851 467l-255 -467h-75l-67 343l-183 -343h-74l-96 467h97l59 -327l175 327h88l59 -327l175 327h97zM647 554h-82l-59 87l-90 -87h-82l138 154h93z" />
    <glyph glyph-name="Ycircumflex" unicode="&#x176;" horiz-adv-x="628" 
d="M417 317l-55 -317h-96l55 317l-195 372h111l149 -279l249 279h112zM608 776h-82l-59 87l-90 -87h-82l138 154h93z" />
    <glyph glyph-name="ycircumflex" unicode="&#x177;" horiz-adv-x="509" 
d="M574 467l-414 -694h-95l141 241l-106 453h97l80 -338l200 338h97zM511 554h-82l-59 87l-90 -87h-82l138 154h93z" />
    <glyph glyph-name="Ydieresis" unicode="&#x178;" horiz-adv-x="628" 
d="M417 317l-55 -317h-96l55 317l-195 372h111l149 -279l249 279h112zM392 911q25 0 40 -17t11 -42q-4 -24 -25.5 -41.5t-46.5 -17.5q-26 0 -40.5 17t-10.5 42t25 42t47 17zM499 810q-14 17 -10 42t25 42t47 17t41 -17t11 -42t-26 -42q-21 -17 -47 -17t-41 17z" />
    <glyph glyph-name="Zacute" unicode="&#x179;" horiz-adv-x="573" 
d="M42 0l14 81l456 520h-350l15 88h468l-14 -81l-459 -520h366l-14 -88h-482zM480 930h109l-147 -154h-87z" />
    <glyph glyph-name="zacute" unicode="&#x17a;" horiz-adv-x="502" 
d="M522 392l-338 -305h283l-14 -87h-411l12 75l332 305h-262l16 87h395zM398 708h109l-147 -154h-87z" />
    <glyph glyph-name="Zdotaccent" unicode="&#x17b;" horiz-adv-x="573" 
d="M42 0l14 81l456 520h-350l15 88h468l-14 -81l-459 -520h366l-14 -88h-482zM445 920q27 0 42 -17t11 -42t-25.5 -42t-47.5 -17t-41.5 17t-11.5 42t25.5 42t47.5 17z" />
    <glyph glyph-name="zdotaccent" unicode="&#x17c;" horiz-adv-x="502" 
d="M522 392l-338 -305h283l-14 -87h-411l12 75l332 305h-262l16 87h395zM308 597q-15 17 -11 42t26 42t48 17t41 -17t11 -42t-26 -42q-21 -17 -47 -17t-42 17z" />
    <glyph glyph-name="Zcaron" unicode="&#x17d;" horiz-adv-x="573" 
d="M42 0l14 81l456 520h-350l15 88h468l-14 -81l-459 -520h366l-14 -88h-482zM372 930l59 -87l90 87h82l-138 -154h-93l-82 154h82z" />
    <glyph glyph-name="zcaron" unicode="&#x17e;" horiz-adv-x="502" 
d="M522 392l-338 -305h283l-14 -87h-411l12 75l332 305h-262l16 87h395zM298 708l58 -87l91 87h82l-138 -154h-93l-82 154h82z" />
    <glyph glyph-name="longs" unicode="&#x17f;" horiz-adv-x="305" 
d="M423 721h51l-16 -87h-51q-89 0 -108 -120l-90 -514h-92l68 390h-90l14 77h90l8 47q16 98 71.5 152.5t144.5 54.5z" />
    <glyph glyph-name="florin" unicode="&#x192;" horiz-adv-x="617" 
d="M212 16l145 367h-86l33 84h86l16 40q71 175 208 194q23 4 59 2l37 -2l-32 -83h-58q-42 5 -85 -41q-10 -10 -19 -28l-13 -27l-12 -30l-10 -25h108l-32 -84h-109l-135 -341q-39 -102 -91 -158t-129 -68q-24 -4 -94 1l29 82h59q52 0 82 40q25 31 43 77z" />
    <glyph glyph-name="Aringacute" unicode="&#x1fa;" horiz-adv-x="645" 
d="M207 175l-97 -175h-99l383 689h100l140 -689h-98l-37 175h-292zM559 1091h109l-125 -132q49 -28 38 -92q-8 -44 -44 -74t-81 -30q-44 0 -69 30.5t-17 73.5q7 36 31.5 63.5t58.5 37.5zM482 259l-59 306l-169 -306h228zM423 867q-4 -21 8.5 -36t33.5 -15q22 0 40.5 15
t22.5 36q4 22 -9 37.5t-36 15.5q-21 0 -38.5 -15.5t-21.5 -37.5z" />
    <glyph glyph-name="aringacute" unicode="&#x1fb;" horiz-adv-x="612" 
d="M555 0h-90l11 72q-29 -38 -77.5 -60t-100.5 -22q-99 0 -156 68t-38 176q19 107 100 176q80 67 180 67q52 0 94 -21.5t57 -58.5l11 70h90zM504 235q14 71 -27 112q-39 41 -100 41q-65 0 -117 -43q-51 -42 -63 -110t24 -112t100 -44q65 0 117 42t66 114zM494 861h109
l-125 -132q48 -28 37 -92q-8 -44 -44 -74t-81 -30q-43 0 -68 30t-17 74q7 36 32 63.5t58 37.5zM358 637q-4 -21 8 -36t33 -15q23 0 41.5 15t22.5 36q4 22 -9.5 37.5t-36.5 15.5q-21 0 -38 -15.5t-21 -37.5z" />
    <glyph glyph-name="AEacute" unicode="&#x1fc;" horiz-adv-x="934" 
d="M109 0h-109l556 689h435l-16 -92h-313l-38 -213h274l-16 -92h-274l-36 -200h324l-15 -92h-416l29 173h-245zM510 262l54 298l-244 -298h190zM721 930h109l-147 -154h-87z" />
    <glyph glyph-name="aeacute" unicode="&#x1fd;" horiz-adv-x="957" 
d="M630 429q68 48 157 48q102 0 154 -67q54 -66 35 -175l-7 -36h-379q-3 -57 32.5 -92t95.5 -35q43 0 82.5 19.5t64.5 52.5l74 -30q-41 -59 -104 -91.5t-134 -32.5q-90 0 -140 49l-6 -39h-90l11 72q-29 -38 -77.5 -60t-100.5 -22q-99 0 -156 68t-38 176q19 107 100 176
q80 67 180 67q52 0 94 -21.5t57 -58.5l11 70h90zM504 235q14 71 -27 112q-39 41 -100 41q-65 0 -117 -43q-51 -42 -63 -110t24 -112t100 -44q65 0 117 42t66 114zM603 270h290q1 58 -31.5 91.5t-88.5 33.5q-59 0 -106 -34t-64 -91zM660 708h109l-146 -154h-87z" />
    <glyph glyph-name="Oslashacute" unicode="&#x1fe;" horiz-adv-x="795" 
d="M607 930h109l-146 -154h-87zM94 -16l-39 47l96 82q-67 97 -43 230q25 146 145 251q118 103 265 103q128 0 210 -81l93 81l39 -46l-94 -82q62 -100 40 -226q-25 -146 -146 -250q-119 -103 -267 -103q-126 0 -205 76zM201 343q-17 -92 24 -164l427 371q-60 57 -149 57
q-107 0 -196 -77q-86 -76 -106 -187zM409 80q109 0 195 76q87 77 107 187q17 92 -22 159l-425 -370q58 -52 145 -52z" />
    <glyph glyph-name="oslashacute" unicode="&#x1ff;" horiz-adv-x="577" 
d="M451 708h109l-146 -154h-87zM82 -25l-39 47l66 57q-41 66 -25 156q19 107 102 175q82 67 186 67q81 0 142 -47l59 51l39 -46l-59 -51q34 -64 21 -149q-20 -108 -103 -177q-83 -68 -185 -68q-84 0 -136 43zM357 388q-65 0 -118 -42q-52 -42 -64 -111q-9 -54 9 -90l254 219
q-33 24 -81 24zM301 78q65 0 117 43q53 44 65 114q8 41 -7 82l-250 -218q30 -21 75 -21z" />
    <glyph glyph-name="Scommaaccent" unicode="&#x218;" horiz-adv-x="573" 
d="M234 -250l-54 19q40 44 55 78q17 36 21 96h90q-22 -128 -112 -193zM101 199h93q-8 -47 27 -85q36 -37 99 -37q60 0 100.5 28t55.5 73q26 95 -95 123l-84 22q-161 44 -136 180q15 85 90 139q76 55 167 55q96 0 149 -56q54 -56 38 -146h-93q9 51 -22 82t-88 31
q-52 0 -96 -29q-43 -28 -52 -75q-14 -72 80 -96l88 -22q94 -24 132 -79.5t14 -136.5q-22 -76 -94 -129q-70 -51 -169 -51q-102 0 -161 62q-58 63 -43 147z" />
    <glyph glyph-name="scommaaccent" unicode="&#x219;" horiz-adv-x="439" 
d="M287 191l-60 15q-65 18 -90 54.5t-8 97.5q13 50 66 85q52 34 116 34q68 0 106.5 -34t32.5 -98h-87q1 24 -17 38.5t-46 14.5q-26 0 -48 -11.5t-30 -30.5q-10 -24 -6 -37q6 -22 50 -36l65 -17q115 -30 97 -136q-10 -63 -71 -102q-59 -38 -135 -38q-66 0 -112 41
q-45 41 -36 109h83q0 -36 29 -53q31 -19 72 -16q32 2 54 19t27 42q9 44 -52 59zM158 -250l-54 19q40 44 55 78q17 36 21 96h90q-21 -129 -112 -193z" />
    <glyph glyph-name="circumflex" unicode="&#x2c6;" horiz-adv-x="523" 
d="M515 554h-82l-60 87l-89 -87h-82l137 154h93z" />
    <glyph glyph-name="caron" unicode="&#x2c7;" horiz-adv-x="523" 
d="M312 708l59 -87l90 87h82l-137 -154h-93l-83 154h82z" />
    <glyph glyph-name="breve" unicode="&#x2d8;" horiz-adv-x="481" 
d="M241 683h74q-6 -26 6.5 -42.5t38.5 -16.5q24 0 42.5 17.5t23.5 41.5h76q-11 -59 -53 -93.5t-102 -34.5q-63 0 -89.5 35.5t-16.5 92.5z" />
    <glyph glyph-name="dotaccent" unicode="&#x2d9;" horiz-adv-x="526" 
d="M389 698q27 0 42 -17t11 -42t-25.5 -42t-48.5 -17q-26 0 -41 17t-11 42t25.5 42t47.5 17z" />
    <glyph glyph-name="ring" unicode="&#x2da;" horiz-adv-x="531" 
d="M282 645q8 45 43 75.5t79 30.5q45 0 71 -30.5t18 -75.5q-7 -43 -44 -74q-37 -30 -82 -30q-43 0 -68 30t-17 74zM335 645q-4 -21 8.5 -36t33.5 -15q22 0 40.5 15t22.5 36q4 22 -9 37.5t-36 15.5q-21 0 -38.5 -15.5t-21.5 -37.5z" />
    <glyph glyph-name="ogonek" unicode="&#x2db;" horiz-adv-x="522" 
d="M278 -117l6 22l65 4q-7 -31 -18 -49q-18 -30 -45.5 -47t-56.5 -17q-19 0 -37 8q-58 28 -47 92q3 23 16 42l68 95h49l-65 -120q-9 -16 -6 -31t17 -22q14 -5 29.5 1.5t24.5 21.5z" />
    <glyph glyph-name="tilde" unicode="&#x2dc;" horiz-adv-x="426" 
d="M275 610q-10 0 -20.5 -12t-13.5 -32h-61q14 58 43.5 87.5t65.5 29.5q25 0 53 -24q20 -17 28 -17q26 0 36 41h61q-14 -57 -44 -85.5t-66 -28.5q-24 0 -53 25q-17 16 -29 16z" />
    <glyph glyph-name="hungarumlaut" unicode="&#x2dd;" horiz-adv-x="476" 
d="M284 708h92l-116 -154h-83zM426 708h94l-129 -154h-81z" />
    <glyph glyph-name="Wgrave" unicode="&#x1e80;" horiz-adv-x="901" 
d="M638 150l269 539h100l-354 -689h-81l-46 430l-197 -430h-81l-112 689h100l77 -539l207 446h71zM632 776h-87l-91 154h109z" />
    <glyph glyph-name="wgrave" unicode="&#x1e81;" horiz-adv-x="790" 
d="M851 467l-255 -467h-75l-67 343l-183 -343h-74l-96 467h97l59 -327l175 327h88l59 -327l175 327h97zM537 554h-87l-91 154h109z" />
    <glyph glyph-name="Wacute" unicode="&#x1e82;" horiz-adv-x="901" 
d="M1007 689l-354 -689h-81l-46 430l-197 -430h-81l-112 689h100l77 -539l207 446h71l47 -446l269 539h100zM665 930h109l-147 -154h-87z" />
    <glyph glyph-name="wacute" unicode="&#x1e83;" horiz-adv-x="790" 
d="M521 0l-67 343l-183 -343h-74l-96 467h97l59 -327l175 327h88l59 -327l175 327h97l-255 -467h-75zM571 708h109l-147 -154h-87z" />
    <glyph glyph-name="Wdieresis" unicode="&#x1e84;" horiz-adv-x="901" 
d="M1007 689l-354 -689h-81l-46 430l-197 -430h-81l-112 689h100l77 -539l207 446h71l47 -446l269 539h100zM527 911q25 0 40 -17t11 -42q-4 -24 -25.5 -41.5t-46.5 -17.5q-26 0 -40.5 17t-10.5 42t25 42t47 17zM634 810q-14 17 -10 42t25 42t47 17t41 -17t11 -42t-26 -42
q-21 -17 -47 -17t-41 17z" />
    <glyph glyph-name="wdieresis" unicode="&#x1e85;" horiz-adv-x="790" 
d="M521 0l-67 343l-183 -343h-74l-96 467h97l59 -327l175 327h88l59 -327l175 327h97l-255 -467h-75zM430 689q25 0 40 -17t11 -42q-4 -24 -25 -41.5t-46 -17.5q-26 0 -41 17t-11 42t25 42t47 17zM538 588q-15 17 -11 42t25 42t47 17t41 -17t11 -42t-25 -42t-47 -17t-41 17z
" />
    <glyph glyph-name="Ygrave" unicode="&#x1ef2;" horiz-adv-x="628" 
d="M417 317l-55 -317h-96l55 317l-195 372h111l149 -279l249 279h112zM500 776h-87l-91 154h109z" />
    <glyph glyph-name="ygrave" unicode="&#x1ef3;" horiz-adv-x="509" 
d="M574 467l-414 -694h-95l141 241l-106 453h97l80 -338l200 338h97zM427 554h-87l-91 154h109z" />
    <glyph glyph-name="thinspace" unicode="&#x2009;" horiz-adv-x="14" 
 />
    <glyph glyph-name="endash" unicode="&#x2013;" horiz-adv-x="595" 
d="M105 195l15 78h453l-15 -78h-453z" />
    <glyph glyph-name="emdash" unicode="&#x2014;" horiz-adv-x="801" 
d="M105 195l15 78h659l-15 -78h-659z" />
    <glyph glyph-name="quoteleft" unicode="&#x2018;" horiz-adv-x="248" 
d="M274 688l50 -19q-82 -92 -100 -211h-83q19 77 58 141q38 62 75 89z" />
    <glyph glyph-name="quoteright" unicode="&#x2019;" horiz-adv-x="245" 
d="M183 454l-50 19q80 92 101 211h83q-20 -77 -57 -139.5t-77 -90.5z" />
    <glyph glyph-name="quotesinglbase" unicode="&#x201a;" horiz-adv-x="242" 
d="M69 -65l-50 19q80 92 101 211h83q-20 -77 -57 -139.5t-77 -90.5z" />
    <glyph glyph-name="quotedblleft" unicode="&#x201c;" horiz-adv-x="397" 
d="M274 689l50 -19q-80 -92 -101 -211h-83q20 76 58 139t76 91zM423 689l50 -19q-80 -92 -101 -211h-83q20 76 58 139t76 91z" />
    <glyph glyph-name="quotedblright" unicode="&#x201d;" horiz-adv-x="395" 
d="M333 459l-49 19q80 91 100 211h83q-20 -78 -57 -140t-77 -90zM184 459l-49 19q80 91 100 211h83q-20 -78 -57 -140t-77 -90z" />
    <glyph glyph-name="quotedblbase" unicode="&#x201e;" horiz-adv-x="391" 
d="M218 -65l-50 19q80 92 101 211h83q-20 -77 -57 -139.5t-77 -90.5zM69 -65l-50 19q80 92 101 211h83q-20 -77 -57 -139.5t-77 -90.5z" />
    <glyph glyph-name="dagger" unicode="&#x2020;" horiz-adv-x="414" 
d="M370 676l-32 -179h121l-16 -90h-121l-93 -528h-89l93 528h-120l16 90h120l32 179h89z" />
    <glyph glyph-name="daggerdbl" unicode="&#x2021;" horiz-adv-x="448" 
d="M388 676l-32 -179h121l-17 -90h-121l-42 -235h121l-15 -89h-121l-35 -204h-89l35 204h-120l15 89h120l42 235h-120l17 90h120l32 179h89z" />
    <glyph glyph-name="bullet" unicode="&#x2022;" horiz-adv-x="461" 
d="M159 137q-37 40 -26 102q10 60 62 101t113 41q62 0 98 -41q37 -39 26 -101q-10 -61 -62 -102q-50 -41 -112 -41q-61 0 -99 41z" />
    <glyph glyph-name="ellipsis" unicode="&#x2026;" horiz-adv-x="718" 
d="M211 52q-4 -26 -27 -44t-51 -18q-27 -2 -42 17t-11.5 46t26.5 44q32 30 72.5 13t32.5 -58zM437 52q-4 -26 -27 -44t-51 -18q-27 -2 -42 17t-11.5 46t26.5 44q32 30 72.5 13t32.5 -58zM663 52q-4 -26 -27 -44t-51 -18q-27 -2 -42 17t-11.5 46t26.5 44q32 30 72.5 13
t32.5 -58z" />
    <glyph glyph-name="perthousand" unicode="&#x2030;" horiz-adv-x="991" 
d="M596 673h66l-448 -673h-66zM144 539q11 56 56 95t101 39q57 0 88 -40q32 -40 22 -94q-11 -57 -56 -95q-47 -38 -102 -38q-56 0 -88 38q-32 39 -21 95zM214 539q-5 -27 10 -45t42 -18t49 18t26 45q5 26 -10.5 45t-41.5 19q-27 0 -48.5 -18.5t-26.5 -45.5zM567 257
q55 0 87 -39q33 -40 23 -95q-11 -57 -56 -95q-47 -38 -102 -38q-56 0 -88 38q-32 39 -21 95q11 57 55 95q47 39 102 39zM607 123q5 26 -11 45t-42 19q-26 2 -48 -18.5t-26 -45.5t9 -45q21 -30 67.5 -13t50.5 58zM876 257q56 0 87 -39q33 -40 23 -95q-11 -57 -56 -95
q-47 -38 -102 -38q-56 0 -88 38q-32 39 -21 95q11 57 55 95q46 39 102 39zM916 123q5 26 -11 45t-42 19q-26 2 -48 -18.5t-26 -45.5t9 -45q21 -30 67.5 -13t50.5 58z" />
    <glyph glyph-name="guilsinglleft" unicode="&#x2039;" horiz-adv-x="313" 
d="M188 26l-102 207l175 207h79l-175 -207l102 -207h-79z" />
    <glyph glyph-name="guilsinglright" unicode="&#x203a;" horiz-adv-x="313" 
d="M207 440l100 -207l-174 -207h-79l174 207l-100 207h79z" />
    <glyph glyph-name="fraction" unicode="&#x2044;" horiz-adv-x="180" 
d="M397 670h67l-569 -680h-68z" />
    <glyph glyph-name="zerosuperior" unicode="&#x2070;" horiz-adv-x="364" 
d="M184 625q18 100 60 151.5t119 51.5q145 0 107 -203q-34 -200 -178 -200q-143 0 -108 200zM243 625q-25 -142 59 -142t109 142q25 144 -58 144q-85 0 -110 -144z" />
    <glyph glyph-name="foursuperior" unicode="&#x2074;" horiz-adv-x="359" 
d="M422 509h-56l-15 -79h-59l15 79h-203l273 314h44l-45 -258h56zM342 715l-126 -150h101z" />
    <glyph glyph-name="fivesuperior" unicode="&#x2075;" horiz-adv-x="340" 
d="M115 507l55 35q6 -27 27.5 -43.5t49.5 -16.5q39 0 66.5 21t33.5 54q6 32 -12.5 50t-50.5 18q-46 0 -117 -33l-14 23l72 207h201l-11 -56h-152q-3 -10 -16 -45.5t-18 -50.5q32 13 66 13q58 0 89.5 -34t20.5 -92q-10 -60 -56.5 -96.5t-111.5 -36.5q-43 0 -76.5 22.5
t-45.5 60.5z" />
    <glyph glyph-name="sixsuperior" unicode="&#x2076;" horiz-adv-x="338" 
d="M437 746l-56 -22q-15 46 -56 46q-38 0 -68 -37t-40 -95q35 47 89 47q53 0 82 -41q28 -39 17 -96q-13 -55 -58 -91q-43 -36 -98 -34q-52 2 -80.5 38.5t-22.5 96.5q9 77 30 135q53 136 159 133q81 -5 102 -80zM207 557q-7 -30 9.5 -51.5t46.5 -22.5q29 -1 52.5 18.5
t30.5 49.5q7 31 -8 52t-44 22q-30 1 -55.5 -18.5t-31.5 -49.5z" />
    <glyph glyph-name="sevensuperior" unicode="&#x2077;" horiz-adv-x="327" 
d="M183 823h275l-284 -393h-69l242 334h-174z" />
    <glyph glyph-name="eightsuperior" unicode="&#x2078;" horiz-adv-x="342" 
d="M202 725q8 43 43.5 73t80.5 30q46 0 72 -30t18 -73q-8 -38 -41 -67q51 -38 39 -105q-9 -54 -55 -91t-104 -37q-57 0 -89.5 37t-23.5 91q14 71 74 105q-22 29 -14 67zM355 553q5 30 -13.5 52.5t-50.5 22.5h-4q-47 1 -75 -47.5t2 -77.5q21 -20 51 -20t58.5 20.5t31.5 49.5z
M298 678l5 1q20 2 35.5 15.5t18.5 30.5q5 29 -23.5 40.5t-53.5 -9.5q-23 -19 -17.5 -48.5t35.5 -29.5z" />
    <glyph glyph-name="ninesuperior" unicode="&#x2079;" horiz-adv-x="338" 
d="M127 504l56 22q13 -46 56 -46q38 0 67.5 36.5t40.5 95.5q-33 -47 -88 -47q-53 0 -82 41q-28 39 -17 96q12 53 56 90t98 35t82 -38.5t23 -96.5q-11 -90 -46 -169q-21 -47 -58.5 -73.5t-85.5 -25.5q-83 5 -102 80zM358 693q12 46 -31.5 67t-78.5 -12q-24 -18 -30 -48.5
t8.5 -53t43.5 -21.5q30 -1 55 18.5t33 49.5z" />
    <glyph glyph-name="zeroinferior" unicode="&#x2080;" horiz-adv-x="364" 
d="M63 49q18 100 60 151.5t119 51.5q145 0 107 -203q-35 -200 -179 -200q-76 0 -100 51t-7 149zM122 49q-25 -142 59 -142t109 142q26 144 -58 144t-110 -144z" />
    <glyph glyph-name="oneinferior" unicode="&#x2081;" horiz-adv-x="207" 
d="M126 -146h-60l54 305l-74 -35l10 57l141 70z" />
    <glyph glyph-name="twoinferior" unicode="&#x2082;" horiz-adv-x="325" 
d="M12 -146l6 28l191 191q32 32 38 61q4 27 -12 44t-43 17t-50 -18t-33 -47l-50 14q16 48 55.5 78t87.5 30q52 0 82 -33.5t21 -84.5q-11 -53 -61 -102l-122 -119h145l-11 -59h-244z" />
    <glyph glyph-name="threeinferior" unicode="&#x2083;" horiz-adv-x="320" 
d="M115 162l-35 32q22 28 55 43.5t68 13.5q47 -2 72.5 -34t16.5 -74q-1 -4 -8 -24q-17 -35 -52 -54q27 -11 39.5 -41.5t4.5 -63.5q-14 -51 -62 -82q-49 -33 -102 -29q-38 3 -65 25.5t-36 56.5l52 26q6 -23 23 -38t40 -16h-1q33 -2 62 16.5t34 47.5q7 28 -12 49t-50 21h-45
l9 52h45q21 0 38.5 13t24.5 32q9 24 -1 40q-8 21 -41 23q-41 5 -74 -35z" />
    <glyph glyph-name="fourinferior" unicode="&#x2084;" horiz-adv-x="360" 
d="M320 -67h-56l-15 -79h-59l15 79h-203l274 314h44l-46 -258h56zM241 139l-127 -150h101z" />
    <glyph glyph-name="fiveinferior" unicode="&#x2085;" horiz-adv-x="338" 
d="M13 -69l54 35q7 -27 28.5 -43.5t49.5 -16.5q39 0 66.5 21t32.5 54q6 32 -12.5 50t-49.5 18q-46 0 -117 -33l-14 23l72 207h201l-11 -56h-152q-6 -20 -35 -96q32 13 66 13q58 0 89.5 -34t20.5 -92q-10 -60 -56.5 -96.5t-111.5 -36.5q-43 0 -76 22.5t-45 60.5z" />
    <glyph glyph-name="sixinferior" unicode="&#x2086;" horiz-adv-x="337" 
d="M337 170l-57 -22q-15 46 -56 46q-38 0 -68 -37t-40 -95q35 47 89 47q53 0 82 -41q28 -39 17 -96q-13 -54 -59 -91q-43 -36 -97 -34t-82 38.5t-21 96.5q6 70 30 135q49 136 159 133q81 -4 103 -80zM105 -19q-5 -30 11 -51t46 -23q28 -1 52 19t31 49q7 31 -8 52t-44 22
q-31 1 -56 -18.5t-32 -49.5z" />
    <glyph glyph-name="seveninferior" unicode="&#x2087;" horiz-adv-x="320" 
d="M83 247h275l-285 -393h-68l241 334h-174z" />
    <glyph glyph-name="eightinferior" unicode="&#x2088;" horiz-adv-x="342" 
d="M101 149q8 43 43.5 73t80.5 30q46 0 72 -30t18 -73q-6 -36 -41 -67q50 -38 38 -105q-11 -54 -56 -91q-44 -37 -103 -37q-58 0 -91 37q-32 38 -22 91q14 71 75 105q-22 29 -14 67zM254 -23q5 30 -13.5 52.5t-50.5 22.5h-4q-47 1 -75 -47.5t2 -76.5q21 -21 51 -21
t58.5 20.5t31.5 49.5zM196 102l5 1q20 2 35.5 15.5t18.5 30.5q5 29 -23 40.5t-53 -9.5q-24 -20 -18 -49t35 -29z" />
    <glyph glyph-name="nineinferior" unicode="&#x2089;" horiz-adv-x="338" 
d="M25 -72l57 22q13 -46 55 -46q38 0 68 37t40 95q-33 -47 -88 -47q-53 0 -82 41q-28 39 -17 96q13 55 57 91t98 34t82 -38.5t22 -96.5q-11 -90 -46 -169q-21 -47 -58.5 -73.5t-85.5 -25.5q-81 5 -102 80zM256 117q6 30 -10.5 51t-46.5 23q-28 1 -51.5 -19t-30.5 -49
q-7 -30 8 -51.5t44 -22.5q31 -1 55.5 18.5t31.5 49.5z" />
    <glyph glyph-name="colonmonetary" unicode="&#x20a1;" horiz-adv-x="702" 
d="M313 0l-60 -109l-43 17l57 108q-37 15 -68 43l-70 -131l-44 16l79 150q-81 103 -55 249q25 138 133 238q108 101 244 114l59 110l44 -17l-50 -92q45 -2 84 -15l47 87l43 -16l-48 -89q58 -30 94 -83l-81 -58q-24 34 -59 54l-261 -490q26 -6 54 -6q117 0 206 88l60 -59
q-122 -119 -283 -119q-42 0 -82 10zM505 607h-13l-245 -457q26 -29 66 -49l264 494q-33 12 -72 12zM202 343q-15 -80 17 -148l215 402q-86 -22 -152 -94q-63 -69 -80 -160z" />
    <glyph glyph-name="lira" unicode="&#x20a4;" horiz-adv-x="635" 
d="M138 398h76l18 104q15 87 85 140q70 55 155 55q83 0 129 -58q46 -57 30 -151h-90q8 42 -6.5 73t-44.5 40q-21 7 -45 4q-40 -1 -79 -31q-38 -28 -45 -72l-18 -104h153l-10 -53h-153l-11 -66h153l-9 -53h-153l-25 -136h244q19 0 21 22l10 57h90l-9 -49q-10 -55 -40 -87.5
t-76 -32.5h-436l15 90h92l25 136h-76l9 53h76l11 66h-76z" />
    <glyph glyph-name="uni20A6" unicode="&#x20a6;" horiz-adv-x="757" 
d="M666 250l-44 -250h-89l-107 250h-163l-44 -250h-93l44 250h-69l9 55h69l14 74h-69l10 55h69l44 255h92l110 -255h157l44 255h93l-44 -255h82l-10 -55h-82l-14 -74h82l-9 -55h-82zM371 379h-85l-14 -74h129zM596 379h-124l31 -74h79zM347 434l-37 85l-14 -85h51zM573 250
h-46l31 -76z" />
    <glyph glyph-name="peseta" unicode="&#x20a7;" horiz-adv-x="745" 
d="M133 0l70 399h-80l10 55h80l8 49h-80l10 55h80l23 131h275q70 0 111.5 -35.5t53.5 -95.5h104l-10 -55h-90q0 -10 -4 -41l-1 -8h87l-10 -55h-95q-61 -141 -223 -141h-181l-44 -258h-94zM307 454h293l1 8q2 18 2 41h-288zM297 399l-10 -54h175q76 0 114 54h-279zM512 602
h-180l-7 -44h264q-23 44 -77 44z" />
    <glyph glyph-name="rupee" unicode="&#x20a8;" horiz-adv-x="674" 
d="M363 0l-134 258h-118l15 87h194q55 0 90 33.5t47 89.5h-309l10 55h303q-7 79 -91 79h-198l14 87h560l-10 -55h-216q40 -45 39 -111h158l-10 -55h-154q-17 -84 -71 -141q-54 -59 -145 -66l139 -261h-113z" />
    <glyph glyph-name="uni20A9" unicode="&#x20a9;" horiz-adv-x="982" 
d="M288 0l-45 274h-135l9 55h117l-16 100h-83l9 55h64l-32 205h100l29 -205h202l52 112h71l12 -112h202l103 205h100l-107 -205h66l-9 -55h-84l-52 -100h118l-9 -55h-136l-141 -274h-81l-30 274h-88l-125 -274h-81zM817 429h-169l11 -100h108zM482 429h-169l14 -100h109z
M741 274h-76l13 -124zM411 274h-75l17 -124zM565 429h-1l-46 -100h58z" />
    <glyph glyph-name="afii57636" unicode="&#x20aa;" horiz-adv-x="751" 
d="M562 332l-29 -167h-89l29 167q8 51 -20 84t-81 33h-107l-79 -449h-90l95 538h197q94 0 142 -59t32 -147zM282 206l30 167h89l-30 -167q-9 -51 19 -84t82 -33h107l81 449h90l-95 -538h-197q-93 0 -143 59q-48 59 -33 147z" />
    <glyph glyph-name="Euro" unicode="&#x20ac;" horiz-adv-x="783" 
d="M593 421l-10 -56h-467l10 56h102q47 114 147 188q101 74 219 74q142 0 229 -110l-73 -63q-69 84 -172 84q-82 0 -150 -49q-69 -48 -105 -124h270zM95 249l10 55h467l-10 -55h-269q11 -76 63 -122.5t131 -46.5q103 0 203 85l52 -64q-128 -110 -270 -110q-118 0 -192 72
q-75 73 -82 186h-103z" />
    <glyph glyph-name="uni2113" unicode="&#x2113;" horiz-adv-x="393" 
d="M265 89h95l-15 -89h-107q-138 0 -110 159l68 379q28 159 165 159q68 0 93.5 -42t12.5 -117l-35 -190q-17 -89 -62 -124q-46 -36 -148 -36l-5 -29q-9 -49 10 -61q13 -9 38 -9zM284 532l-45 -254h48q43 0 57 75l32 179q13 76 -30 76q-49 0 -62 -76z" />
    <glyph glyph-name="afii61352" unicode="&#x2116;" horiz-adv-x="969" 
d="M908 689q54 0 86 -39t22 -92q-11 -55 -55 -93q-46 -38 -99 -38q-55 0 -87 38q-32 40 -22 93q11 55 55 92q45 39 100 39zM821 558q-5 -26 11 -45t42 -19t48.5 19t26.5 45q5 26 -10.5 45t-41.5 19q-27 0 -49.5 -19t-26.5 -45zM972 338h-253l8 47h253zM503 0l-223 519
l-91 -519h-93l121 689h92l219 -515l92 515h93l-121 -689h-89z" />
    <glyph glyph-name="trademark" unicode="&#x2122;" horiz-adv-x="844" 
d="M176 622l10 59h357l75 -270l171 270h58l-22 -383h-65l16 268l-142 -227h-55l-64 227l-79 -268h-66l96 324h-106l-58 -324h-68l58 324h-116z" />
    <glyph glyph-name="estimated" unicode="&#x212e;" horiz-adv-x="659" 
d="M682 279h-429l-34 -193q54 -63 140 -63q72 0 125 31t108 96l27 -19q-59 -72 -121 -106.5t-145 -34.5q-119 0 -180 84q-61 85 -39 206q23 124 112 206q90 84 215 84t183 -85q60 -85 38 -206zM259 312h309l28 163q-25 28 -63 45t-78 17q-97 0 -168 -62z" />
    <glyph glyph-name="minus" unicode="&#x2212;" horiz-adv-x="576" 
d="M113 223l14 82h428l-14 -82h-428z" />
    <glyph glyph-name="notequal" unicode="&#x2260;" horiz-adv-x="594" 
d="M415 303l-71 -106h216l-14 -87h-259l-73 -110h-70l73 110h-131l14 87h173l72 106h-225l15 87h267l74 110h71l-74 -110h122l-15 -87h-165z" />
    <glyph glyph-name="lessequal" unicode="&#x2264;" horiz-adv-x="654" 
d="M613 237l-17 -96l-471 194l15 87l540 194l-17 -97l-405 -140zM75 0l14 80h497l-14 -80h-497z" />
    <glyph glyph-name="greaterequal" unicode="&#x2265;" horiz-adv-x="654" 
d="M662 422l-15 -87l-541 -194l17 96l405 142l-355 140l17 97zM593 80l-14 -80h-497l14 80h497z" />
    <glyph glyph-name="commaaccent" unicode="&#xf6c3;" horiz-adv-x="277" 
d="M82 -250l-54 19q40 44 55 78q17 36 21 96h90q-21 -129 -112 -193z" />
    <glyph glyph-name="rupiah" unicode="&#xf6dd;" horiz-adv-x="1176" 
d="M408 261l139 -261h-113l-134 258h-88l-44 -258h-94l121 689h265q69 0 111 -33q76 -59 55 -183q-15 -83 -71 -144t-147 -68zM441 602h-168l-45 -257h164q57 0 93 35.5t45 92.5q10 56 -12.5 92.5t-76.5 36.5zM735 467h91l-13 -73q30 38 78.5 60.5t99.5 22.5q97 0 153 -68
t37 -177q-19 -107 -99 -175q-79 -67 -178 -67q-52 0 -93 21t-56 59l-53 -297h-91zM785 231q-14 -71 26 -112q39 -40 100 -40q66 0 115 42q51 42 63 110q12 69 -24 113q-35 44 -99 44t-116 -43q-51 -41 -65 -114z" />
    <glyph glyph-name="apple" unicode="&#xf8ff;" horiz-adv-x="847" 
d="M68 687h687l12 -687h-687zM420 332l-266 263l6 -377h81l-75 75l-3 178l259 -253l252 253l3 -178l-73 -75h84l-6 377zM191 96l-14 36h-15l1 -53h9l-1 37l14 -37h10l10 37l1 -37h9l-1 53h-14zM246 132q-16 0 -22 -13t0.5 -26.5t22.5 -13.5q22 0 22 26q0 27 -23 27zM246 89
q-6 0 -11.5 5.5t-5.5 10.5q0 6 5 11.5t12 5.5q12 0 12 -17q0 -16 -12 -16zM282 99h-13q0 -20 23 -20q21 0 21 17q0 11 -15 14q-16 3 -16 6q0 6 9 6q10 0 10 -6h9q0 16 -19 16t-19 -16q0 -8 16 -15q13 0 13 -5q0 -7 -10 -7q-9 0 -9 10zM313 132v-10h17l1 -43h8l-1 43h15v10
h-40zM397 79l-22 53h-9l-21 -53h12l3 13h22l4 -13h11zM369 119h3l7 -18h-16zM424 132h-28l1 -53h9l-1 22h13q9 0 9 -9q0 -2 1 -8v-5h13q-2 2 -4 12.5t-7 13.5q7 3 7 9q0 18 -13 18zM418 108h-13v14h13q9 0 9 -6q0 -8 -9 -8zM464 132h-20l1 -53h20q24 0 24 28q0 25 -25 25z
M464 89h-8v33h4q17 0 17 -17q0 -6 -4 -11t-9 -5zM529 122v10h-37l1 -53h40l-1 10h-28v12h25v9h-25v12h25zM541 99h-9q0 -20 23 -20q21 0 21 17q0 11 -15 14q-17 3 -17 6q0 6 7 6q12 0 12 -6h10q0 16 -19 16q-5 0 -11 -2.5t-9.5 -7t0.5 -10t17 -11.5q12 0 12 -5q0 -7 -9 -7
q-13 0 -13 10zM588 79l-1 53h-7l1 -53h7zM631 86l5 -7h6l-1 29h-22v-9h12q-4 -10 -12 -10q-6 0 -11 5t-5 11t4.5 11.5t11.5 5.5q9 0 9 -10h13q-5 20 -22 20q-11 0 -18 -8t-7 -19q0 -10 7 -18t19 -8q10 0 11 7zM677 99l-22 33h-8l1 -53h8l-1 33l23 -33h13l-1 53h-13v-33z" />
    <glyph glyph-name="NULL" horiz-adv-x="0" 
 />
    <glyph glyph-name="CR" horiz-adv-x="333" 
 />
    <glyph glyph-name="published" horiz-adv-x="809" 
d="M444 280l-22 -122h-69l63 353h136q53 0 77.5 -33.5t15.5 -82.5q-7 -43 -44 -80q-35 -35 -90 -35h-67zM473 443l-18 -95h65q21 0 36 13.5t18 33.5q4 21 -5 34.5t-29 13.5h-67zM840 343q-25 -146 -147 -250q-119 -103 -266 -103t-229 103t-57 250q25 145 145 250
q121 104 266 104q146 0 230 -104q84 -103 58 -250zM439 52q121 0 218 85q99 85 121 206t-48 206q-69 86 -190 86q-120 0 -218 -86t-120 -206t47 -206q69 -85 190 -85z" />
    <glyph glyph-name="frenchfranc" horiz-adv-x="726" 
d="M497 116l-19 -116h-91l58 330h-200l-58 -330h-90l119 676h392l-16 -90h-302l-29 -166h291l-20 -112q52 115 150 115q54 0 78 -18l-29 -85q-31 16 -66 16q-62 0 -106 -59t-62 -161z" />
    <glyph glyph-name="parenleft.case" horiz-adv-x="363" 
d="M147 348q39 216 135 340q98 125 222 125l-16 -89q-86 0 -156 -102q-68 -99 -100 -274q-31 -172 3 -274q35 -102 121 -102l-16 -89q-125 0 -178 125t-15 340z" />
    <glyph glyph-name="parenright.case" horiz-adv-x="363" 
d="M19 -117l15 89q86 0 155 101q68 101 100 275q32 173 -3 274q-33 102 -119 102l16 89q124 0 177 -125q52 -123 14 -340q-38 -215 -134 -340t-221 -125z" />
    <glyph glyph-name="hyphen.case" horiz-adv-x="486" 
d="M123 307l15 87h348l-15 -87h-348z" />
    <glyph glyph-name="at.case" horiz-adv-x="971" 
d="M661 225l23 129q9 54 -22 91.5t-85 37.5t-98 -38t-53 -91q-9 -54 22 -91t85 -37q49 0 107 48l-15 -85q-53 -34 -106 -34q-83 0 -132 58q-48 59 -33 141t84 141q70 59 152 59q80 0 129 -55q48 -57 38 -136l-26 -145q-12 -66 60 -66q33 0 61.5 21t47.5 56q34 67 46 137
q27 150 -67 250q-95 101 -250 101q-151 0 -276 -108q-123 -106 -150 -260q-28 -153 57 -259t239 -106h23l-13 -71h-23q-117 -2 -207 57t-130 160.5t-17 218.5q32 183 180 310q148 129 330 129q89 0 166.5 -31.5t128.5 -88.5q52 -56 74 -135t6 -167q-17 -99 -74 -185
q-30 -46 -73 -72.5t-92 -26.5q-66 0 -98.5 35.5t-18.5 107.5z" />
    <glyph glyph-name="bracketleft.case" horiz-adv-x="327" 
d="M265 -107h-201l162 916h201l-14 -83h-111l-133 -750h111z" />
    <glyph glyph-name="bracketright.case" horiz-adv-x="327" 
d="M184 807h201l-163 -916h-201l16 83h111l132 750h-111z" />
    <glyph glyph-name="braceleft.case" horiz-adv-x="400" 
d="M231 255l-31 -174q-9 -48 17 -83q25 -34 70 -34h67l-14 -79h-64q-83 0 -131 54q-47 55 -31 142l31 174q4 20 -11.5 35.5t-40.5 15.5l15 81q24 0 44.5 15.5t24.5 35.5l32 176q15 88 81 141q66 54 149 54h64l-12 -79h-67q-45 0 -82 -34q-38 -34 -47 -82l-32 -176
q-6 -29 -23.5 -54.5t-42.5 -37.5q20 -11 29 -37t5 -54z" />
    <glyph glyph-name="braceright.case" horiz-adv-x="400" 
d="M227 81l32 174q4 26 22.5 52.5t41.5 38.5q-20 12 -28.5 38t-3.5 54l31 176q9 48 -16.5 82t-70.5 34h-67l13 79h64q84 0 132 -54t31 -141l-31 -176q-4 -20 11.5 -35.5t40.5 -15.5l-14 -81q-24 0 -45 -15.5t-25 -35.5l-31 -174q-17 -89 -83 -142q-66 -54 -149 -54h-64
l14 79h67q44 0 81 34q38 35 47 83z" />
    <glyph glyph-name="exclamdown.case" horiz-adv-x="263" 
d="M185 502h71l-80 -503h-90zM177 635q4 26 27 44t50 18t42.5 -17.5t11.5 -44.5t-26.5 -45t-49.5 -18t-43 18t-12 45z" />
    <glyph glyph-name="guillemotleft.case" horiz-adv-x="515" 
d="M220 143l-102 207l175 207h79l-175 -207l102 -207h-79zM396 143l-102 207l175 207h79l-175 -207l102 -207h-79z" />
    <glyph glyph-name="periodcentered.case" horiz-adv-x="268" 
d="M265 353q-4 -26 -27 -44t-51 -18q-27 -2 -42 17t-11.5 46t26.5 44q34 29 73.5 12.5t31.5 -57.5z" />
    <glyph glyph-name="guillemotright.case" horiz-adv-x="515" 
d="M419 557l100 -207l-174 -207h-79l174 207l-100 207h79zM243 557l100 -207l-174 -207h-79l174 207l-100 207h79z" />
    <glyph glyph-name="questiondown.case" horiz-adv-x="482" 
d="M401 199h90q-16 -91 -85 -151q-67 -58 -150 -58q-84 0 -135 54t-35 141q12 68 61 119t117 70q40 10 59 26t25 47l12 59h89l-11 -59q-12 -66 -51.5 -102t-111.5 -57q-31 -8 -53 -30q-40 -31 -47 -73q-9 -47 21 -77q31 -29 76 -29q46 0 82.5 33.5t46.5 86.5zM479 679
q16 -17 12 -44t-27 -45q-22 -18 -49 -18t-43 18t-12 45t27 44q23 18 50 18t42 -18z" />
    <glyph glyph-name="endash.case" horiz-adv-x="597" 
d="M127 311l14 78h453l-14 -78h-453z" />
    <glyph glyph-name="emdash.case" horiz-adv-x="803" 
d="M127 311l14 78h659l-14 -78h-659z" />
    <glyph glyph-name="bullet.case" horiz-adv-x="463" 
d="M154 350q10 61 61 101q53 41 114 41q62 0 98 -41t26 -101q-10 -61 -62 -102t-113 -41t-99 41q-36 40 -25 102z" />
    <glyph glyph-name="guilsinglleft.case" horiz-adv-x="339" 
d="M220 143l-102 207l175 207h79l-175 -207l102 -207h-79z" />
    <glyph glyph-name="guilsinglright.case" horiz-adv-x="339" 
d="M243 557l100 -207l-174 -207h-79l174 207l-100 207h79z" />
    <glyph glyph-name="cent.case" horiz-adv-x="533" 
d="M331 0h-62l18 107q-84 15 -131 80q-45 64 -28 161q16 93 85 159q68 64 159 79l18 103h62l-17 -100q97 -4 151 -74l-79 -58q-38 44 -104 44t-119 -43q-54 -42 -66 -110q-12 -69 26 -113t103 -44q68 0 120 46l60 -58q-77 -69 -178 -75z" />
    <glyph glyph-name="zero.tnum" 
d="M113 325q25 146 89 237q70 99 207 99q69 0 112.5 -26.5t59.5 -72t18 -106.5t-13 -131q-25 -143 -89 -235q-68 -99 -206 -99q-68 0 -111.5 26.5t-60 71.5t-19 106t12.5 130zM202 325q-45 -245 104 -245q78 0 123.5 62.5t66.5 182.5q11 70 10.5 124.5t-29 88t-84.5 33.5
q-79 0 -124.5 -63t-66.5 -183z" />
    <glyph glyph-name="one.tnum" 
d="M361 0h-90l94 539l-112 -37l14 86l210 71z" />
    <glyph glyph-name="two.tnum" 
d="M86 0l6 40l322 321q60 58 67 107q8 45 -20 74t-77 29q-46 0 -84 -28t-53 -75l-84 21q27 78 92 125q67 47 144 47q87 0 136 -54q50 -54 35 -139q-15 -86 -101 -169l-214 -209h249l-15 -90h-403z" />
    <glyph glyph-name="three.tnum" 
d="M261 513l-58 53q36 48 91.5 74t114.5 22q78 -5 120 -58q42 -52 28 -123q-7 -29 -13 -40q-29 -59 -88 -89q47 -18 66 -70q21 -52 6 -106q-23 -83 -102 -137q-80 -54 -169 -47q-62 4 -108 41t-62 95l87 43q8 -36 38 -61.5t68 -28.5h-1q55 -3 102 28t58 79q10 46 -22 82
q-32 35 -83 35h-74l16 87h74q33 0 62 21t41 54q15 41 1 67q-18 35 -69 38q-68 6 -124 -59z" />
    <glyph glyph-name="four.tnum" 
d="M566 134h-94l-23 -134h-89l23 134h-340l454 519h67l-76 -434h94zM447 491l-235 -272h187z" />
    <glyph glyph-name="five.tnum" 
d="M80 139l84 42q10 -48 42.5 -76t79.5 -28q76 0 123.5 36t57.5 97q11 58 -21 91.5t-91 33.5q-41 0 -79 -12q-36 -11 -93 -42l-48 46l114 325h348l-14 -86h-274l-70 -185q24 16 62 27t68 11q95 0 149 -56q54 -55 37 -153q-16 -100 -96 -160q-78 -60 -188 -60
q-68 0 -120 40.5t-71 108.5z" />
    <glyph glyph-name="six.tnum" 
d="M608 535l-85 -34q-24 75 -99 75q-68 0 -120 -64q-51 -64 -61 -164q45 74 148 74q87 0 134 -68t29 -156q-19 -87 -94 -150q-74 -62 -161 -57q-87 4 -133 63.5t-36 160.5q12 119 54 247q32 91 102 146q71 56 158 53q65 -3 105.5 -32t58.5 -94zM220 212q-10 -54 18 -91
t80 -39t93 32q42 34 54 88q12 53 -15 91q-25 37 -77 39q-52 1 -97 -33q-46 -35 -56 -87z" />
    <glyph glyph-name="seven.tnum" 
d="M202 653h451l-473 -653h-105l410 564h-299z" />
    <glyph glyph-name="eight.tnum" 
d="M220 494q12 70 70 118q58 49 133 49q74 0 116 -49q43 -49 31 -118q-12 -67 -72 -115q88 -61 69 -175q-17 -92 -92 -152q-74 -61 -170 -61t-150 61q-54 62 -38 152q10 54 44.5 100.5t85.5 74.5q-39 44 -27 115zM207 204q-10 -52 22.5 -88t90.5 -36q57 0 102 36
q46 36 55 88q9 51 -23 89q-31 37 -89 37l-7 -1q-55 -4 -99 -41q-43 -34 -52 -84zM309 494q-6 -33 12.5 -56.5t51.5 -23.5l8 1q37 3 65 25t34 54t-14.5 54.5t-57.5 22.5q-36 0 -64.5 -22.5t-34.5 -54.5z" />
    <glyph glyph-name="nine.tnum" 
d="M94 116l86 34q24 -75 98 -75q68 0 120 64t61 164q-42 -74 -147 -74q-89 0 -135 67q-47 68 -27 157q19 87 94 150q75 61 162 57t132 -63.5t35 -160.5q-12 -126 -55 -248l1 1q-32 -91 -102 -146q-71 -56 -158 -53q-65 3 -106 32t-59 94zM484 439q10 54 -19 91t-80 39
q-51 1 -94 -33q-43 -35 -53 -87q-11 -54 15 -91.5t77 -38.5q53 -2 97 32q46 34 57 88z" />
    <glyph glyph-name="zero.taboldstyle" 
d="M306 -10q-100 0 -159 72q-58 71 -38 186q19 115 104 186q86 71 185 71q102 0 159 -71q58 -69 38 -186q-19 -113 -104 -186q-84 -72 -185 -72zM321 79q64 0 117 47q53 46 67 122q13 74 -24 120q-36 47 -100 47t-117 -47q-52 -46 -66 -120q-13 -75 23 -122q38 -47 100 -47z
" />
    <glyph glyph-name="one.taboldstyle" 
d="M217 388l260 128l-90 -516h-90l65 370l-162 -77z" />
    <glyph glyph-name="two.taboldstyle" 
d="M100 0l6 41l280 254q44 36 48 66q5 26 -15 44t-57 18q-34 0 -60.5 -20t-35.5 -54l-85 15q18 68 76 108q59 41 126 41q75 0 115 -43q41 -42 29 -109q-4 -18 -11 -37q-15 -30 -30 -47q-6 -6 -12 -13t-14 -15l-14 -13l-16 -15q-15 -14 -16 -14l-133 -117h199l-15 -90h-365z
" />
    <glyph glyph-name="six.taboldstyle" 
d="M608 535l-85 -34q-24 75 -99 75q-68 0 -120 -64q-51 -64 -61 -164q45 74 148 74q87 0 134 -68t29 -156q-19 -87 -94 -150q-74 -62 -161 -57q-87 4 -133 63.5t-36 160.5q12 119 54 247q32 91 102 146q71 56 158 53q65 -3 105.5 -32t58.5 -94zM220 212q-10 -54 18 -91
t80 -39t93 32q42 34 54 88q12 53 -15 91q-25 37 -77 39q-52 1 -97 -33q-46 -35 -56 -87z" />
    <glyph glyph-name="eight.taboldstyle" 
d="M220 494q12 70 70 118q58 49 133 49q74 0 116 -49q43 -49 31 -118q-12 -67 -72 -115q88 -61 69 -175q-17 -92 -92 -152q-74 -61 -170 -61t-150 61q-54 62 -38 152q10 54 44.5 100.5t85.5 74.5q-39 44 -27 115zM207 204q-10 -52 22.5 -88t90.5 -36q57 0 102 36
q46 36 55 88q9 51 -23 89q-31 37 -89 37l-7 -1q-55 -4 -99 -41q-43 -34 -52 -84zM309 494q-6 -33 12.5 -56.5t51.5 -23.5l8 1q37 3 65 25t34 54t-14.5 54.5t-57.5 22.5q-36 0 -64.5 -22.5t-34.5 -54.5z" />
    <glyph glyph-name="three.taboldstyle" 
d="M230 325l-58 53q36 48 91.5 74t114.5 22q78 -5 120 -58q42 -52 28 -123q-7 -29 -13 -40q-29 -59 -87 -89q46 -18 65 -70q21 -52 7 -106q-23 -83 -102 -137q-80 -54 -170 -47q-62 4 -108 41t-61 95l86 43q9 -36 38.5 -61.5t67.5 -28.5h-1q53 -3 102 29q48 31 59 78
q10 46 -22 82q-32 35 -84 35h-74l16 87h74q33 -1 62.5 20.5t41.5 54.5q13 39 0 67q-20 35 -69 38q-68 6 -124 -59z" />
    <glyph glyph-name="four.taboldstyle" 
d="M532 -53h-94l-23 -134h-89l23 134h-340l455 519h67l-77 -434h94zM413 304l-235 -272h187z" />
    <glyph glyph-name="five.taboldstyle" 
d="M47 -48l85 42q11 -48 43.5 -76t77.5 -28q76 0 123.5 36t57.5 97q11 58 -21 91.5t-91 33.5q-42 0 -79 -12q-36 -10 -93 -42l-48 46l114 325h348l-14 -86h-274l-69 -185q24 16 61.5 27t67.5 11q95 0 149 -56q54 -55 37 -153q-18 -100 -96 -160q-76 -60 -187 -60
q-68 0 -120.5 40.5t-71.5 108.5z" />
    <glyph glyph-name="seven.taboldstyle" 
d="M169 465h451l-473 -653h-105l410 564h-299z" />
    <glyph glyph-name="nine.taboldstyle" 
d="M66 -73l85 34q24 -75 98 -75q68 0 120 64q51 63 62 164q-45 -74 -148 -74q-89 0 -135 67q-47 68 -27 157q19 87 94 150q75 62 162 57q87 -4 132.5 -63.5t35.5 -160.5q-12 -118 -55 -248l1 1q-32 -91 -103 -146q-71 -56 -158 -53q-65 3 -105.5 32t-58.5 94zM455 250
q10 53 -19 91q-28 37 -80 39q-51 2 -93 -33t-54 -87q-12 -53 14 -91q27 -37 78 -39q53 -2 97 32q46 34 57 88z" />
    <glyph glyph-name="zero.oldstyle" horiz-adv-x="592" 
d="M312 -10q-100 0 -159 72q-58 71 -38 186q19 115 104 186q86 71 185 71q102 0 159 -71q58 -69 38 -186q-19 -113 -104 -186q-84 -72 -185 -72zM327 79q64 0 117 47q53 46 67 122q13 74 -24 120q-36 47 -100 47t-117 -47q-52 -46 -66 -120q-13 -75 23 -122q38 -47 100 -47z
" />
    <glyph glyph-name="one.oldstyle" horiz-adv-x="365" 
d="M110 388l260 128l-90 -516h-90l65 370l-162 -77z" />
    <glyph glyph-name="two.oldstyle" horiz-adv-x="475" 
d="M48 0l6 41l280 254q44 36 48 66q5 26 -15 44t-57 18q-34 0 -60.5 -20t-35.5 -54l-85 15q18 68 76 108q59 41 126 41q75 0 115 -43q41 -42 29 -109q-4 -18 -11 -37q-15 -30 -30 -47q-6 -6 -12 -13t-14 -15l-14 -13l-16 -15q-15 -14 -16 -14l-133 -117h199l-15 -90h-365z
" />
    <glyph glyph-name="three.oldstyle" horiz-adv-x="515" 
d="M197 325l-58 53q36 48 91.5 74t114.5 22q78 -5 120 -58q42 -52 28 -123q-7 -29 -13 -40q-29 -59 -87 -89q46 -18 65 -70q21 -52 7 -106q-23 -83 -102 -137q-80 -54 -170 -47q-62 4 -108 41t-61 95l86 43q9 -36 38.5 -61.5t67.5 -28.5h-1q53 -3 102 29q48 31 59 78
q10 46 -22 82q-32 35 -84 35h-74l16 87h74q33 -1 62.5 20.5t41.5 54.5q13 39 0 67q-20 35 -69 38q-68 6 -124 -59z" />
    <glyph glyph-name="four.oldstyle" 
d="M532 -53h-94l-23 -134h-89l23 134h-340l455 519h67l-77 -434h94zM413 304l-235 -272h187z" />
    <glyph glyph-name="five.oldstyle" horiz-adv-x="548" 
d="M31 -48l85 42q11 -48 43.5 -76t77.5 -28q76 0 123.5 36t57.5 97q11 58 -21 91.5t-91 33.5q-42 0 -79 -12q-36 -10 -93 -42l-48 46l114 325h348l-14 -86h-274l-69 -185q24 16 61.5 27t67.5 11q95 0 149 -56q54 -55 37 -153q-18 -100 -96 -160q-76 -60 -187 -60
q-68 0 -120.5 40.5t-71.5 108.5z" />
    <glyph glyph-name="six.oldstyle" horiz-adv-x="556" 
d="M596 535l-85 -34q-24 75 -99 75q-68 0 -120 -64q-51 -64 -61 -164q45 74 148 74q87 0 134 -68t29 -156q-19 -87 -94 -150q-74 -62 -161 -57q-87 4 -133 63.5t-36 160.5q12 119 54 247q32 91 102 146q71 56 158 53q65 -3 105.5 -32t58.5 -94zM208 212q-10 -54 18 -91
t80 -39t93 32q42 34 54 88q12 53 -15 91q-25 37 -77 39q-52 1 -97 -33q-46 -35 -56 -87z" />
    <glyph glyph-name="seven.oldstyle" horiz-adv-x="506" 
d="M132 465h451l-473 -653h-104l409 564h-299z" />
    <glyph glyph-name="eight.oldstyle" horiz-adv-x="562" 
d="M211 494q12 70 70 118q58 49 133 49q74 0 116 -49q43 -49 31 -118q-12 -67 -72 -115q88 -61 69 -175q-17 -92 -92 -152q-74 -61 -170 -61t-150 61q-54 62 -38 152q10 54 44.5 100.5t85.5 74.5q-39 44 -27 115zM198 204q-10 -52 22.5 -88t90.5 -36q57 0 102 36
q46 36 55 88q9 51 -23 89q-31 37 -89 37l-7 -1q-55 -4 -99 -41q-43 -34 -52 -84zM300 494q-6 -33 12.5 -56.5t51.5 -23.5l8 1q37 3 65 25t34 54t-14.5 54.5t-57.5 22.5q-36 0 -64.5 -22.5t-34.5 -54.5z" />
    <glyph glyph-name="nine.oldstyle" horiz-adv-x="534" 
d="M43 -73l85 34q24 -75 98 -75q68 0 120 64q51 63 62 164q-45 -74 -148 -74q-89 0 -135 67q-47 68 -27 157q19 87 94 150q75 62 162 57q87 -4 132.5 -63.5t35.5 -160.5q-12 -118 -55 -248l1 1q-32 -91 -103 -146q-71 -56 -158 -53q-65 3 -105.5 32t-58.5 94zM432 250
q10 53 -19 91q-28 37 -80 39q-51 2 -93 -33t-54 -87q-12 -53 14 -91q27 -37 78 -39q53 -2 97 32q46 34 57 88z" />
    <glyph glyph-name="Lslash.sc" horiz-adv-x="434" 
d="M280 584l-35 -196l96 54l-10 -63l-98 -55l-42 -241h235l-14 -83h-319l47 272l-60 -35l11 64l61 35l44 248h84z" />
    <glyph glyph-name="Zcaron.sc" horiz-adv-x="507" 
d="M45 0l12 72l379 433h-290l14 79h399l-13 -72l-381 -432h305l-14 -80h-411zM327 786l48 -71l76 71h75l-121 -134h-80l-74 134h76z" />
    <glyph glyph-name="exclam.sc" horiz-adv-x="262" 
d="M197 584h81l-84 -429h-65zM89 46q4 21 22 36t39 15q22 0 34 -14.5t8 -36.5q-3 -20 -20.5 -34.5t-39.5 -14.5q-21 0 -33.5 14.5t-9.5 34.5z" />
    <glyph glyph-name="ampersand.sc" horiz-adv-x="577" 
d="M329 360h110l14 74h78l-14 -75h73l-12 -67h-73l-20 -112q-10 -56 4.5 -83.5t63.5 -27.5l-13 -77q-45 0 -78.5 16t-48.5 43q-62 -59 -151 -59q-85 0 -130 54q-44 54 -30 134q16 98 111 154q-31 37 -19 102q10 61 62 105q52 43 117 43q44 0 78.5 -23.5t50.5 -62.5l-76 -43
q-20 51 -67 51q-32 0 -57 -20t-30 -50q-5 -31 11.5 -53.5t45.5 -22.5zM406 175l21 117h-111q-48 0 -88 -34q-40 -35 -47 -78q-8 -46 18.5 -77.5t76.5 -31.5q47 0 83 29.5t47 74.5z" />
    <glyph glyph-name="question.sc" horiz-adv-x="426" 
d="M197 410h-78q13 80 72 130t129 50q73 0 116 -46q44 -45 30 -119q-11 -59 -53 -102.5t-99 -59.5q-33 -10 -48.5 -22.5t-19.5 -36.5l-10 -49h-80l9 49q9 56 43.5 88.5t94.5 48.5q30 8 54 31.5t29 52.5q6 36 -18 60.5t-62 24.5t-69.5 -28t-39.5 -72zM187 104q25 0 38.5 -16
t9.5 -41q-4 -24 -23.5 -39.5t-44.5 -15.5q-24 0 -38 15.5t-10 39.5t24 40.5t44 16.5z" />
    <glyph glyph-name="A.sc" horiz-adv-x="570" 
d="M367 467l-135 -244h184zM462 0l-31 147h-241l-81 -147h-90l325 584h88l119 -584h-89z" />
    <glyph glyph-name="B.sc" horiz-adv-x="553" 
d="M545 431q-15 -86 -86 -119q40 -12 60 -54t12 -88q-13 -71 -69 -121q-55 -49 -133 -49h-240l103 584h221q74 0 109 -41t23 -112zM263 506l-29 -161h136q35 0 59 23.5t30 60.5q7 36 -11.5 56.5t-57.5 20.5h-127zM370 270h-149l-34 -191h151q39 0 70 27.5t37 64.5
q6 36 -15 67q-20 32 -60 32z" />
    <glyph glyph-name="C.sc" horiz-adv-x="600" 
d="M557 148l54 -53q-107 -104 -242 -104q-124 0 -196 87q-72 88 -49 213t125 212t226 87q135 0 204 -100l-72 -53q-54 72 -146 72q-91 0 -164 -64q-72 -62 -89 -154q-16 -90 34 -155q51 -63 141 -63q95 0 174 75z" />
    <glyph glyph-name="D.sc" horiz-adv-x="633" 
d="M316 0h-227l103 584h227q121 0 177 -83t33 -210q-22 -127 -107 -210q-84 -81 -206 -81zM262 506l-76 -427h143q86 0 143 59q56 58 73 153q16 93 -20 154q-34 61 -120 61h-143z" />
    <glyph glyph-name="E.sc" horiz-adv-x="499" 
d="M89 0l103 584h348l-14 -78h-264l-32 -179h231l-14 -79h-231l-30 -169h272l-13 -79h-356z" />
    <glyph glyph-name="F.sc" horiz-adv-x="464" 
d="M89 0l103 584h343l-14 -78h-259l-32 -179h205l-14 -79h-205l-43 -248h-84z" />
    <glyph glyph-name="G.sc" horiz-adv-x="659" 
d="M658 511l-70 -56q-46 55 -129 55q-89 0 -162 -64t-89 -155q-16 -90 34 -155q49 -64 139 -64q78 0 134 40q57 40 74 110h-164l12 74h259q-26 -149 -112 -227t-217 -78q-125 0 -196 87q-70 87 -47 213q23 125 123 212t226 87q118 0 185 -79z" />
    <glyph glyph-name="H.sc" horiz-adv-x="620" 
d="M549 584h85l-103 -584h-85l44 252h-273l-44 -252h-84l103 584h84l-46 -255h273z" />
    <glyph glyph-name="I.sc" horiz-adv-x="262" 
d="M89 0l103 584h84l-103 -584h-84z" />
    <glyph glyph-name="J.sc" horiz-adv-x="262" 
d="M-108 -201l23 81q22 -8 57 -8q47 0 75.5 29t37.5 79l107 604h84l-107 -604q-16 -87 -70 -138.5t-142 -51.5q-21 0 -65 9z" />
    <glyph glyph-name="K.sc" horiz-adv-x="515" 
d="M565 584l-276 -292l225 -292h-115l-184 242l-42 -242h-84l103 584h84l-43 -244l230 244h102z" />
    <glyph glyph-name="L.sc" horiz-adv-x="430" 
d="M89 0l103 584h84l-90 -505h236l-13 -79h-320z" />
    <glyph glyph-name="M.sc" horiz-adv-x="810" 
d="M306 584l127 -419l277 419h76l-32 -584h-84l24 427l-242 -363h-73l-113 363l-127 -427h-83l174 584h76z" />
    <glyph glyph-name="N.sc" horiz-adv-x="601" 
d="M615 584l-103 -584h-80l-184 428l-75 -428h-84l103 584h82l182 -423l75 423h84z" />
    <glyph glyph-name="O.sc" horiz-adv-x="694" 
d="M171 78q-70 87 -47 213q23 125 123 212t226 87q125 0 195 -87q71 -87 48 -212q-22 -123 -124 -213q-100 -87 -225 -87t-196 87zM297 445q-72 -62 -89 -154q-16 -90 34 -155q50 -63 139 -63t161 63q73 64 89 155q16 90 -34 154q-49 64 -138 64t-162 -64z" />
    <glyph glyph-name="P.sc" horiz-adv-x="534" 
d="M89 0l103 584h234q86 0 121 -54q35 -55 22 -130q-13 -76 -68 -131q-55 -53 -141 -53h-149l-37 -216h-85zM411 506h-148l-38 -211h144q64 -4 99 59q31 55 14 105q-16 50 -71 47z" />
    <glyph glyph-name="Q.sc" horiz-adv-x="694" 
d="M537 39l41 -96l-73 -42l-46 104q-53 -14 -92 -14q-125 0 -196 87q-70 87 -47 213q23 125 123 212t226 87q125 0 195 -87q71 -87 48 -212q-14 -78 -62 -145t-117 -107zM383 174l73 41l47 -105q51 29 84.5 76.5t43.5 104.5q16 90 -34 154q-49 64 -138 64t-162 -64
q-72 -62 -89 -154q-15 -84 31 -145q47 -63 128 -70q40 0 58 3q-5 15 -42 95z" />
    <glyph glyph-name="R.sc" horiz-adv-x="546" 
d="M378 220l117 -220h-102l-112 216h-70l-37 -216h-85l103 584h225q87 0 121 -54q35 -55 22 -130q-14 -71 -60 -122t-122 -58zM401 506h-138l-38 -211h134q46 0 75.5 29t38.5 76q9 45 -10 75.5t-62 30.5z" />
    <glyph glyph-name="S.sc" horiz-adv-x="505" 
d="M94 173h85q-7 -41 21 -72t81 -31q49 0 83.5 23.5t46.5 58.5q13 39 -10 64.5t-69 36.5l-71 19q-134 36 -115 154q12 70 77 117t142 47q83 0 127.5 -48t30.5 -126h-84q7 42 -18 68t-71 26q-43 0 -78 -24t-42 -60q-10 -58 66 -77l72 -19q79 -21 111 -68.5t13 -116.5
q-23 -66 -83 -110q-61 -44 -140 -44q-89 0 -138 54q-49 55 -37 128z" />
    <glyph glyph-name="T.sc" horiz-adv-x="482" 
d="M112 505l14 79h436l-14 -79h-176l-89 -505h-85l89 505h-175z" />
    <glyph glyph-name="U.sc" horiz-adv-x="595" 
d="M326 73q54 0 99 36q44 35 55 92l68 383h84l-68 -383q-17 -94 -90 -152q-71 -58 -162 -58q-90 0 -142 58t-35 152l68 383h85l-68 -383q-11 -56 21 -92q31 -36 85 -36z" />
    <glyph glyph-name="V.sc" horiz-adv-x="498" 
d="M136 584h87l53 -438l205 438h87l-279 -584h-79z" />
    <glyph glyph-name="W.sc" horiz-adv-x="785" 
d="M553 138l222 446h90l-301 -584h-72l-39 352l-160 -352h-72l-95 584h90l64 -446l170 368h63z" />
    <glyph glyph-name="X.sc" horiz-adv-x="546" 
d="M608 584l-229 -271l149 -313h-102l-111 242l-195 -242h-101l258 314l-133 270h101l95 -200l168 200h100z" />
    <glyph glyph-name="Y.sc" horiz-adv-x="563" 
d="M371 268l-47 -268h-86l47 268l-166 316h99l123 -233l209 233h102z" />
    <glyph glyph-name="Z.sc" horiz-adv-x="507" 
d="M45 0l12 72l379 433h-290l14 79h399l-13 -72l-381 -432h305l-14 -80h-411z" />
    <glyph glyph-name="Scaron.sc" horiz-adv-x="505" 
d="M345 786l47 -71l77 71h76l-123 -134h-80l-73 134h76zM179 173q-7 -41 21 -72t81 -31q49 0 83.5 23.5t46.5 58.5q13 39 -10 64.5t-69 36.5l-71 19q-134 36 -115 154q12 70 77 117t142 47q83 0 127.5 -48t30.5 -126h-84q7 42 -18 68t-71 26q-43 0 -78 -24t-42 -60
q-10 -58 66 -77l72 -19q79 -21 111 -68.5t13 -116.5q-23 -66 -83 -110q-61 -44 -140 -44q-89 0 -138 54q-49 55 -37 128h85z" />
    <glyph glyph-name="OE.sc" horiz-adv-x="964" 
d="M665 496l15 88h347l-15 -83h-263l-31 -173h230l-14 -83h-230l-29 -162h272l-14 -83h-356l15 86q-103 -95 -227 -95q-123 0 -194 87q-70 87 -47 213q23 125 123 212t224 87q61 0 112 -25t82 -69zM380 76q82 0 153 60q71 62 93 145l3 19q8 85 -41 145q-49 61 -132 61
q-89 0 -161 -63q-71 -61 -88 -152q-16 -89 34 -153q50 -62 139 -62z" />
    <glyph glyph-name="Ydieresis.sc" horiz-adv-x="563" 
d="M371 268l-47 -268h-86l47 268l-166 316h99l123 -233l209 233h102zM283 718q3 22 22 37t42 15q22 0 35 -14.5t10 -37.5q-4 -23 -22 -38t-41 -15t-36.5 15t-9.5 38zM425 718q3 22 22 37t42 15t36 -15t10 -37q-4 -23 -22 -38t-42 -15q-23 0 -36.5 15t-9.5 38z" />
    <glyph glyph-name="exclamdown.sc" horiz-adv-x="264" 
d="M236 591q25 0 38.5 -15.5t9.5 -39.5t-23 -40t-44 -16q-23 0 -37.5 16t-10.5 40t23.5 39.5t43.5 15.5zM172 0h-81l84 429h65z" />
    <glyph glyph-name="questiondown.sc" horiz-adv-x="426" 
d="M322 -14h81q-15 -82 -73 -131q-59 -50 -128 -50q-73 0 -116 46q-44 47 -30 120q11 58 53 100q45 45 98 61q33 10 49 23t20 36l10 53h80l-9 -53q-9 -55 -43 -87t-95 -50q-25 -7 -43 -23q-30 -23 -38 -60q-7 -37 16.5 -61.5t62.5 -24.5q36 0 66 28t39 73zM403 351
q-5 -24 -24 -40t-44 -16t-38.5 16t-8.5 40t23.5 39.5t43.5 15.5t38.5 -15.5t9.5 -39.5z" />
    <glyph glyph-name="Agrave.sc" horiz-adv-x="570" 
d="M367 467l-135 -244h184zM462 0l-31 147h-241l-81 -147h-90l325 584h88l119 -584h-89zM448 652h-80l-81 134h99z" />
    <glyph glyph-name="Aacute.sc" horiz-adv-x="570" 
d="M462 780h99l-127 -134h-80zM416 223l-49 244l-135 -244h184zM190 147l-81 -147h-90l325 584h88l119 -584h-89l-31 147h-241z" />
    <glyph glyph-name="Acircumflex.sc" horiz-adv-x="570" 
d="M367 467l-135 -244h184zM462 0l-31 147h-241l-81 -147h-90l325 584h88l119 -584h-89zM538 652h-77l-50 72l-73 -72h-75l121 134h80z" />
    <glyph glyph-name="Atilde.sc" horiz-adv-x="570" 
d="M367 467l-135 -244h184zM462 0l-31 147h-241l-81 -147h-90l325 584h88l119 -584h-89zM370 698q-20 0 -27 -36h-57q14 52 39.5 77.5t56.5 25.5q22 0 41 -18l-1 1l6 -5q16 -12 23 -12q19 0 26 34h57q-11 -51 -37.5 -76.5t-58.5 -25.5q-23 0 -45 22l-10 6q-8 7 -13 7z" />
    <glyph glyph-name="Adieresis.sc" horiz-adv-x="570" 
d="M285 718q3 22 22.5 37t42.5 15q22 0 34.5 -14.5t9.5 -37.5q-4 -23 -22 -38t-41 -15t-36.5 15t-9.5 38zM427 718q3 22 22 37t42 15t36 -14.5t10 -37.5q-4 -23 -22.5 -38t-42.5 -15q-23 0 -36 15t-9 38zM416 223l-49 244l-135 -244h184zM190 147l-81 -147h-90l325 584h88
l119 -584h-89l-31 147h-241z" />
    <glyph glyph-name="Aring.sc" horiz-adv-x="570" 
d="M322 731q7 39 37.5 65t68.5 26q40 0 62 -26t15 -65q-7 -38 -38 -64t-71 -26q-38 0 -59.5 26t-14.5 64zM404 691q18 0 33 12t18 28q3 17 -7 29t-28 12q-16 0 -30 -12.5t-17 -28.5t6 -28t25 -12zM416 223l-49 244l-135 -244h184zM190 147l-81 -147h-90l325 584h88l119 -584
h-89l-31 147h-241z" />
    <glyph glyph-name="AE.sc" horiz-adv-x="814" 
d="M428 145h-200l-117 -145h-100l473 584h370l-15 -83h-263l-31 -173h229l-14 -83h-229l-29 -162h272l-14 -83h-356zM484 461l-190 -235h150z" />
    <glyph glyph-name="Ccedilla.sc" horiz-adv-x="601" 
d="M288 -74l-2 -20q2 -11 13 -16.5t22 -1.5q28 12 23 41l-13 64q-110 14 -170 97q-59 86 -38 201q22 124 124 212q102 87 226 87q135 0 204 -100l-72 -53q-54 72 -146 72q-90 0 -163 -64q-72 -62 -89 -154q-16 -90 34 -155q49 -63 140 -63q96 0 174 75l54 -53
q-98 -94 -222 -103l13 -40q5 -18 2 -36q-11 -54 -71 -81q-14 -6 -35 -6q-24 0 -42.5 15t-24.5 40q-5 23 0 46z" />
    <glyph glyph-name="Egrave.sc" horiz-adv-x="499" 
d="M89 0l103 584h348l-14 -78h-264l-32 -179h231l-14 -79h-231l-30 -169h272l-13 -79h-356zM431 652h-80l-81 134h100z" />
    <glyph glyph-name="Eacute.sc" horiz-adv-x="499" 
d="M411 786h100l-129 -134h-80zM540 584l-14 -78h-264l-32 -179h231l-14 -79h-231l-30 -169h272l-13 -79h-356l103 584h348z" />
    <glyph glyph-name="Ecircumflex.sc" horiz-adv-x="499" 
d="M89 0l103 584h348l-14 -78h-264l-32 -179h231l-14 -79h-231l-30 -169h272l-13 -79h-356zM502 652h-75l-50 72l-74 -72h-76l122 134h80z" />
    <glyph glyph-name="Edieresis.sc" horiz-adv-x="499" 
d="M253 718q3 22 22.5 37t43.5 15q22 0 34.5 -15t9.5 -37q-4 -23 -22.5 -38t-40.5 -15q-24 0 -37.5 15t-9.5 38zM395 718q3 22 22.5 37t42.5 15q22 0 35 -14.5t10 -37.5q-4 -23 -22 -38t-42 -15q-23 0 -36.5 15t-9.5 38zM540 584l-14 -78h-264l-32 -179h231l-14 -79h-231
l-30 -169h272l-13 -79h-356l103 584h348z" />
    <glyph glyph-name="Igrave.sc" horiz-adv-x="261" 
d="M89 0l103 584h83l-103 -584h-83zM290 652h-80l-80 134h100z" />
    <glyph glyph-name="Iacute.sc" horiz-adv-x="261" 
d="M310 786h99l-129 -134h-80zM275 584l-103 -584h-83l103 584h83z" />
    <glyph glyph-name="Icircumflex.sc" horiz-adv-x="262" 
d="M89 0l103 584h84l-103 -584h-84zM384 652h-76l-51 72l-73 -72h-76l122 134h80z" />
    <glyph glyph-name="Idieresis.sc" horiz-adv-x="261" 
d="M131 718q3 22 22.5 37t42.5 15q22 0 35 -14.5t10 -37.5q-4 -23 -22 -38t-42 -15q-23 0 -36.5 15t-9.5 38zM273 718q3 22 22 37t42 15t36 -14.5t10 -37.5q-4 -23 -22.5 -38t-42.5 -15q-23 0 -36 15t-9 38zM275 584l-103 -584h-83l103 584h83z" />
    <glyph glyph-name="Eth.sc" horiz-adv-x="630" 
d="M316 0h-223l45 262h-78l11 60h78l46 262h223q122 0 176 -83q55 -81 32 -210q-22 -128 -106 -210q-82 -81 -204 -81zM265 501l-32 -179h138l-11 -60h-138l-32 -179h139q84 0 141 57t73 151q16 95 -20 152.5t-119 57.5h-139z" />
    <glyph glyph-name="Ntilde.sc" horiz-adv-x="601" 
d="M615 584l-103 -584h-80l-184 428l-75 -428h-84l103 584h82l182 -423l75 423h84zM386 698q-8 0 -16 -9.5t-11 -26.5h-57q14 52 39 77.5t57 25.5q16 0 42 -18l5 -3q13 -13 21 -13q22 0 26 34h58q-11 -51 -38 -76.5t-59 -25.5q-22 0 -44 22l-10 6q-8 7 -13 7z" />
    <glyph glyph-name="Ograve.sc" horiz-adv-x="694" 
d="M171 78q-70 87 -47 213q23 125 123 212t226 87q125 0 195 -87q71 -87 48 -212q-22 -123 -124 -213q-100 -87 -225 -87t-196 87zM297 445q-72 -62 -89 -154q-16 -90 34 -155q50 -63 139 -63t161 63q73 64 89 155q16 90 -34 154q-49 64 -138 64t-162 -64zM535 652h-80
l-80 134h98z" />
    <glyph glyph-name="Oacute.sc" horiz-adv-x="694" 
d="M534 786h99l-128 -134h-80zM247 503q100 87 226 87q125 0 195 -87q71 -87 48 -212q-22 -123 -124 -213q-100 -87 -225 -87t-196 87q-70 87 -47 213q23 125 123 212zM242 136q50 -63 139 -63t161 63q73 64 89 155q16 90 -34 154q-49 64 -138 64t-162 -64q-72 -62 -89 -154
q-16 -90 34 -155z" />
    <glyph glyph-name="Ocircumflex.sc" horiz-adv-x="694" 
d="M171 78q-70 87 -47 213q23 125 123 212t226 87q125 0 195 -87q71 -87 48 -212q-22 -123 -124 -213q-100 -87 -225 -87t-196 87zM297 445q-72 -62 -89 -154q-16 -90 34 -155q50 -63 139 -63t161 63q73 64 89 155q16 90 -34 154q-49 64 -138 64t-162 -64zM621 652h-75
l-49 72l-74 -72h-76l121 134h80z" />
    <glyph glyph-name="Otilde.sc" horiz-adv-x="694" 
d="M171 78q-70 87 -47 213q23 125 123 212t226 87q125 0 195 -87q71 -87 48 -212q-22 -123 -124 -213q-100 -87 -225 -87t-196 87zM297 445q-72 -62 -89 -154q-16 -90 34 -155q50 -63 139 -63t161 63q73 64 89 155q16 90 -34 154q-49 64 -138 64t-162 -64zM455 698
q-17 0 -25 -36h-58q12 51 38 77t57 26q17 0 43 -18l5 -3q13 -13 20 -13q20 0 27 34h57q-11 -51 -37.5 -76.5t-58.5 -25.5q-22 0 -44 22l-11 6q-8 7 -13 7z" />
    <glyph glyph-name="Odieresis.sc" horiz-adv-x="694" 
d="M370 718q3 22 22 37t43 15q22 0 34.5 -15t9.5 -37q-4 -23 -22 -38t-40 -15q-24 0 -37.5 15t-9.5 38zM513 718q3 22 21.5 37t41.5 15t36 -14.5t10 -37.5q-4 -23 -22 -38t-42 -15q-23 0 -36 15t-9 38zM247 503q100 87 226 87q125 0 195 -87q71 -87 48 -212
q-22 -123 -124 -213q-100 -87 -225 -87t-196 87q-70 87 -47 213q23 125 123 212zM242 136q50 -63 139 -63t161 63q73 64 89 155q16 90 -34 154q-49 64 -138 64t-162 -64q-72 -62 -89 -154q-16 -90 34 -155z" />
    <glyph glyph-name="Oslash.sc" horiz-adv-x="692" 
d="M171 54l-80 -69l-35 44l79 69q-55 86 -35 193q23 125 123 212q101 87 225 87q108 0 175 -66l80 67l36 -42l-79 -68q51 -88 32 -190q-22 -123 -124 -213q-100 -87 -225 -87q-106 0 -172 63zM184 291q-14 -78 19 -134l352 307q-47 45 -120 45q-89 0 -162 -64
q-72 -62 -89 -154zM356 73q88 0 162 63q73 64 89 155q13 69 -17 130l-351 -307q47 -41 117 -41z" />
    <glyph glyph-name="Ugrave.sc" horiz-adv-x="595" 
d="M488 652h-80l-80 134h100zM326 73q54 0 99 36q44 35 55 92l68 383h84l-68 -383q-17 -94 -90 -152q-71 -58 -162 -58q-90 0 -142 58t-35 152l68 383h85l-68 -383q-11 -56 21 -92q31 -36 85 -36z" />
    <glyph glyph-name="Uacute.sc" horiz-adv-x="595" 
d="M326 73q54 0 99 36q44 35 55 92l68 383h84l-68 -383q-17 -94 -90 -152q-71 -58 -162 -58q-90 0 -142 58t-35 152l68 383h85l-68 -383q-11 -56 21 -92q31 -36 85 -36zM474 786h99l-130 -134h-80z" />
    <glyph glyph-name="Ucircumflex.sc" horiz-adv-x="595" 
d="M566 652h-76l-48 72l-74 -72h-76l122 134h80zM326 73q54 0 99 36q44 35 55 92l68 383h84l-68 -383q-17 -94 -90 -152q-71 -58 -162 -58q-90 0 -142 58t-35 152l68 383h85l-68 -383q-11 -56 21 -92q31 -36 85 -36z" />
    <glyph glyph-name="Udieresis.sc" horiz-adv-x="595" 
d="M326 73q54 0 99 36q44 35 55 92l68 383h84l-68 -383q-17 -94 -90 -152q-71 -58 -162 -58q-90 0 -142 58t-35 152l68 383h85l-68 -383q-11 -56 21 -92q31 -36 85 -36zM315 718q3 22 22 37t42 15q22 0 35 -14.5t10 -37.5q-4 -23 -22 -38t-41 -15t-36.5 15t-9.5 38zM457 718
q3 22 22 37t42 15t36 -14.5t10 -37.5q-4 -23 -22 -38t-42 -15q-23 0 -36.5 15t-9.5 38z" />
    <glyph glyph-name="Yacute.sc" horiz-adv-x="563" 
d="M371 268l-47 -268h-86l47 268l-166 316h99l123 -233l209 233h102zM448 786h100l-129 -134h-80z" />
    <glyph glyph-name="Thorn.sc" horiz-adv-x="505" 
d="M306 116h-114l-19 -116h-84l103 584h84l-18 -103h114q78 0 120 -50q43 -49 28 -131t-76 -133q-62 -51 -138 -51zM243 402l-36 -205h114q41 0 74 29t41 74q9 44 -15.5 71.5t-69.5 29.5h-54q-24 1 -54 1z" />
    <glyph glyph-name="Amacron.sc" horiz-adv-x="570" 
d="M367 467l-135 -244h184zM462 0l-31 147h-241l-81 -147h-90l325 584h88l119 -584h-89zM295 673l12 73h217l-12 -73h-217z" />
    <glyph glyph-name="Abreve.sc" horiz-adv-x="570" 
d="M308 765h68q-4 -21 5.5 -35t29.5 -14q19 0 34 14.5t18 34.5h69q-10 -52 -46 -82.5t-87 -30.5q-54 0 -77 31.5t-14 81.5zM416 223l-49 244l-135 -244h184zM190 147l-81 -147h-90l325 584h88l119 -584h-89l-31 147h-241z" />
    <glyph glyph-name="Cacute.sc" horiz-adv-x="600" 
d="M531 786h99l-129 -134h-80zM611 95q-107 -104 -242 -104q-124 0 -196 87q-72 88 -49 213t125 212t226 87q135 0 204 -100l-72 -53q-54 72 -146 72q-91 0 -164 -64q-72 -62 -89 -154q-16 -90 34 -155q51 -63 141 -63q95 0 174 75z" />
    <glyph glyph-name="Ccircumflex.sc" horiz-adv-x="600" 
d="M557 148l54 -53q-107 -104 -242 -104q-124 0 -196 87q-72 88 -49 213t125 212t226 87q135 0 204 -100l-72 -53q-54 72 -146 72q-91 0 -164 -64q-72 -62 -89 -154q-16 -90 34 -155q51 -63 141 -63q95 0 174 75zM622 652h-76l-49 72l-75 -72h-75l121 134h80z" />
    <glyph glyph-name="Cdotaccent.sc" horiz-adv-x="600" 
d="M429 726q4 22 23 37t42 15t36.5 -15t9.5 -37q-4 -23 -22.5 -38t-42.5 -15q-23 0 -36.5 15t-9.5 38zM611 95q-107 -104 -242 -104q-124 0 -196 87q-72 88 -49 213t125 212t226 87q135 0 204 -100l-72 -53q-54 72 -146 72q-91 0 -164 -64q-72 -62 -89 -154q-16 -90 34 -155
q51 -63 141 -63q95 0 174 75z" />
    <glyph glyph-name="Ccaron.sc" horiz-adv-x="600" 
d="M435 786l48 -71l75 71h76l-122 -134h-80l-72 134h75zM611 95q-107 -104 -242 -104q-124 0 -196 87q-72 88 -49 213t125 212t226 87q135 0 204 -100l-72 -53q-54 72 -146 72q-91 0 -164 -64q-72 -62 -89 -154q-16 -90 34 -155q51 -63 141 -63q95 0 174 75z" />
    <glyph glyph-name="Dcaron.sc" horiz-adv-x="626" 
d="M402 786l48 -71l75 71h75l-120 -134h-80l-74 134h76zM89 0l103 584h223q122 0 176 -82t31 -211q-22 -128 -106 -210q-82 -81 -204 -81h-223zM187 83h139q84 0 140.5 56.5t72.5 151.5t-20 152.5t-119 57.5h-139z" />
    <glyph glyph-name="Aogonek.sc" horiz-adv-x="570" 
d="M367 467l-134 -244h183q-5 34 -26 128zM423 -48l36 52l-29 143h-240l-81 -147h-90l325 584h88l119 -584h-39l-39 -71q-14 -31 8 -41q23 -8 41 18l6 20l60 4q-3 -22 -16 -46q-16 -25 -40.5 -40t-49.5 -15q-20 0 -32 6q-48 25 -40 81q1 12 13 36z" />
    <glyph glyph-name="Emacron.sc" horiz-adv-x="499" 
d="M89 0l103 584h348l-14 -78h-264l-32 -179h231l-14 -79h-231l-30 -169h272l-13 -79h-356zM276 673l12 73h217l-12 -73h-217z" />
    <glyph glyph-name="Ebreve.sc" horiz-adv-x="499" 
d="M272 765h68q-4 -21 6 -35t31 -14q18 0 33 15t18 34h69q-10 -52 -45.5 -82.5t-86.5 -30.5q-54 0 -78 31.5t-15 81.5zM540 584l-14 -78h-264l-32 -179h231l-14 -79h-231l-30 -169h272l-13 -79h-356l103 584h348z" />
    <glyph glyph-name="Edotaccent.sc" horiz-adv-x="499" 
d="M341 726q4 22 22.5 37t41.5 15q24 0 38 -15t10 -37q-4 -23 -23 -38t-43 -15q-23 0 -36.5 15t-9.5 38zM540 584l-14 -78h-264l-32 -179h231l-14 -79h-231l-30 -169h272l-13 -79h-356l103 584h348z" />
    <glyph glyph-name="Ecaron.sc" horiz-adv-x="499" 
d="M327 786l49 -71l75 71h75l-121 -134h-80l-74 134h76zM540 584l-14 -78h-264l-32 -179h231l-14 -79h-231l-30 -169h272l-13 -79h-356l103 584h348z" />
    <glyph glyph-name="Gcircumflex.sc" horiz-adv-x="659" 
d="M658 511l-70 -56q-46 55 -129 55q-89 0 -162 -64t-89 -155q-16 -90 34 -155q49 -64 139 -64q78 0 134 40q57 40 74 110h-164l12 74h259q-26 -149 -112 -227t-217 -78q-125 0 -196 87q-70 87 -47 213q23 125 123 212t226 87q118 0 185 -79zM608 652h-76l-49 72l-73 -72
h-76l121 134h79z" />
    <glyph glyph-name="Gbreve.sc" horiz-adv-x="659" 
d="M378 765h69q-4 -21 5.5 -35t29.5 -14q19 0 33.5 14.5t17.5 34.5h71q-10 -52 -46 -82.5t-88 -30.5q-54 0 -77.5 31.5t-14.5 81.5zM588 455q-46 55 -129 55q-89 0 -162 -64t-89 -155q-16 -90 34 -155q49 -64 139 -64q78 0 134 40q57 40 74 110h-164l12 74h259
q-26 -149 -112 -227t-217 -78q-125 0 -196 87q-70 87 -47 213q23 125 123 212t226 87q118 0 185 -79z" />
    <glyph glyph-name="Eogonek.sc" horiz-adv-x="499" 
d="M442 1l-2 -1l-33 -62q-7 -11 -5 -23.5t13 -17.5q22 -8 41 18l6 21l61 3q-6 -26 -18 -46q-14 -25 -38.5 -40t-49.5 -15q-19 0 -32 7q-50 25 -40 80q3 19 12 36l29 39h-297l103 584h349l-14 -78h-265l-32 -179h231l-14 -79h-231l-30 -169h272z" />
    <glyph glyph-name="Dcroat.sc" horiz-adv-x="631" 
d="M317 0h-223l45 260h-78l12 66h78l45 258h223q122 0 176 -83q55 -81 32 -210q-22 -128 -106 -210q-83 -81 -204 -81zM266 501l-31 -175h138l-12 -66h-138l-32 -177h139q84 0 141 57t73 151q16 95 -20 152.5t-119 57.5h-139z" />
    <glyph glyph-name="Gdotaccent.sc" horiz-adv-x="659" 
d="M417 726q4 22 23 37t42 15t36.5 -15t9.5 -37q-4 -23 -22.5 -38t-42.5 -15q-23 0 -36.5 15t-9.5 38zM588 455q-46 55 -129 55q-89 0 -162 -64t-89 -155q-16 -90 34 -155q49 -64 139 -64q78 0 134 40q57 40 74 110h-164l12 74h259q-26 -149 -112 -227t-217 -78
q-125 0 -196 87q-70 87 -47 213q23 125 123 212t226 87q118 0 185 -79z" />
    <glyph glyph-name="Hcircumflex.sc" horiz-adv-x="620" 
d="M549 584h85l-103 -584h-85l44 252h-273l-44 -252h-84l103 584h84l-46 -255h273zM562 652h-76l-50 72l-73 -72h-75l121 134h80z" />
    <glyph glyph-name="Hbar.sc" horiz-adv-x="628" 
d="M637 584l-19 -105h59l-9 -52h-59l-75 -427h-84l44 250h-273l-44 -250h-84l75 427h-57l9 52h57l19 105h84l-19 -105h273l19 105h84zM252 427l-17 -97h273l17 97h-273z" />
    <glyph glyph-name="Itilde.sc" horiz-adv-x="262" 
d="M89 0l103 584h84l-103 -584h-84zM217 698q-19 0 -27 -36h-57q14 52 39.5 77.5t56.5 25.5q17 0 42 -18l5 -3q13 -13 21 -13q20 0 27 34h57q-11 -51 -38 -76.5t-59 -25.5q-22 0 -44 22l-10 6q-8 7 -13 7z" />
    <glyph glyph-name="Imacron.sc" horiz-adv-x="262" 
d="M89 0l103 584h84l-103 -584h-84zM142 673l12 73h217l-12 -73h-217z" />
    <glyph glyph-name="Iogonek.sc" horiz-adv-x="262" 
d="M177 0h-34l-38 -71q-15 -29 7 -41q24 -8 42 18l6 20l60 4q-8 -33 -17 -46q-34 -55 -89 -55q-20 0 -32 6q-49 26 -41 81q3 17 13 36l39 53l103 579h84z" />
    <glyph glyph-name="IJ.sc" horiz-adv-x="524" 
d="M89 0l103 584h84l-103 -584h-84zM152 -201l22 81q22 -8 57 -8q96 0 115 108l108 604h84l-108 -604q-16 -88 -69.5 -139t-143.5 -51q-21 0 -65 9z" />
    <glyph glyph-name="Jcircumflex.sc" horiz-adv-x="262" 
d="M376 652h-75l-49 72l-74 -72h-76l123 134h80zM-108 -201l23 81q22 -8 57 -8q47 0 75.5 29t37.5 79l107 604h84l-107 -604q-16 -87 -70 -138.5t-142 -51.5q-21 0 -65 9z" />
    <glyph glyph-name="Lacute.sc" horiz-adv-x="430" 
d="M313 777h99l-128 -135h-80zM276 584l-90 -505h236l-13 -79h-320l103 584h84z" />
    <glyph glyph-name="Lcaron.sc" horiz-adv-x="431" 
d="M89 0l103 584h84l-90 -505h236l-13 -79h-320zM359 423l-53 14q47 53 58 112q4 26 4 30h82q-20 -107 -91 -156z" />
    <glyph glyph-name="Ldot.sc" horiz-adv-x="430" 
d="M89 0l103 584h84l-90 -505h236l-13 -79h-320zM337 272q22 0 35.5 -14.5t9.5 -35.5t-22.5 -35t-40.5 -14q-21 0 -33 14t-8 35t21.5 35.5t37.5 14.5z" />
    <glyph glyph-name="Nacute.sc" horiz-adv-x="601" 
d="M457 786h100l-129 -134h-80zM432 0l-184 428l-75 -428h-84l103 584h82l182 -423l75 423h84l-103 -584h-80z" />
    <glyph glyph-name="Ncaron.sc" horiz-adv-x="601" 
d="M377 786l48 -71l75 71h75l-120 -134h-80l-74 134h76zM432 0l-184 428l-75 -428h-84l103 584h82l182 -423l75 423h84l-103 -584h-80z" />
    <glyph glyph-name="Omacron.sc" horiz-adv-x="694" 
d="M171 78q-70 87 -47 213q23 125 123 212t226 87q125 0 195 -87q71 -87 48 -212q-22 -123 -124 -213q-100 -87 -225 -87t-196 87zM297 445q-72 -62 -89 -154q-16 -90 34 -155q50 -63 139 -63t161 63q73 64 89 155q16 90 -34 154q-49 64 -138 64t-162 -64zM380 673l12 73
h217l-12 -73h-217z" />
    <glyph glyph-name="Obreve.sc" horiz-adv-x="694" 
d="M392 765h67q-4 -21 6 -35t31 -14q19 0 33.5 14.5t17.5 34.5h69q-10 -52 -45.5 -82.5t-86.5 -30.5q-54 0 -77.5 31.5t-14.5 81.5zM247 503q100 87 226 87q125 0 195 -87q71 -87 48 -212q-22 -123 -124 -213q-100 -87 -225 -87t-196 87q-70 87 -47 213q23 125 123 212z
M242 136q50 -63 139 -63t161 63q73 64 89 155q16 90 -34 154q-49 64 -138 64t-162 -64q-72 -62 -89 -154q-16 -90 34 -155z" />
    <glyph glyph-name="Ohungarumlaut.sc" horiz-adv-x="694" 
d="M475 786h86l-103 -134h-77zM595 786h86l-114 -134h-75zM247 503q100 87 226 87q125 0 195 -87q71 -87 48 -212q-22 -123 -124 -213q-100 -87 -225 -87t-196 87q-70 87 -47 213q23 125 123 212zM242 136q50 -63 139 -63t161 63q73 64 89 155q16 90 -34 154q-49 64 -138 64
t-162 -64q-72 -62 -89 -154q-16 -90 34 -155z" />
    <glyph glyph-name="Racute.sc" horiz-adv-x="546" 
d="M404 786h98l-128 -134h-80zM495 0h-102l-112 216h-70l-37 -216h-85l103 584h225q87 0 121 -54q35 -55 22 -130q-14 -71 -60 -122t-122 -58zM263 506l-38 -211h134q46 0 75.5 29t38.5 76q9 45 -10 75.5t-62 30.5h-138z" />
    <glyph glyph-name="Rcaron.sc" horiz-adv-x="546" 
d="M349 786l49 -71l75 71h75l-121 -134h-80l-74 134h76zM495 0h-102l-112 216h-70l-37 -216h-85l103 584h225q87 0 121 -54q35 -55 22 -130q-14 -71 -60 -122t-122 -58zM263 506l-38 -211h134q46 0 75.5 29t38.5 76q9 45 -10 75.5t-62 30.5h-138z" />
    <glyph glyph-name="Sacute.sc" horiz-adv-x="505" 
d="M420 786h100l-130 -134h-80zM179 173q-7 -41 21 -72t81 -31q49 0 83.5 23.5t46.5 58.5q13 39 -10 64.5t-69 36.5l-71 19q-134 36 -115 154q12 70 77 117t142 47q83 0 127.5 -48t30.5 -126h-84q7 42 -18 68t-71 26q-43 0 -78 -24t-42 -60q-10 -58 66 -77l72 -19
q79 -21 111 -68.5t13 -116.5q-23 -66 -83 -110q-61 -44 -140 -44q-89 0 -138 54q-49 55 -37 128h85z" />
    <glyph glyph-name="Scircumflex.sc" horiz-adv-x="505" 
d="M510 652h-76l-48 72l-75 -72h-76l123 134h80zM94 173h85q-7 -41 21 -72t81 -31q49 0 83.5 23.5t46.5 58.5q13 39 -10 64.5t-69 36.5l-71 19q-134 36 -115 154q12 70 77 117t142 47q83 0 127.5 -48t30.5 -126h-84q7 42 -18 68t-71 26q-43 0 -78 -24t-42 -60
q-10 -58 66 -77l72 -19q79 -21 111 -68.5t13 -116.5q-23 -66 -83 -110q-61 -44 -140 -44q-89 0 -138 54q-49 55 -37 128z" />
    <glyph glyph-name="Scedilla.sc" horiz-adv-x="506" 
d="M226 -74l-2 -20q3 -11 13 -16.5t21 -1.5q12 5 18.5 17t4.5 24l-14 62q-87 1 -136 55q-49 53 -37 127h85q-7 -41 22.5 -72t79.5 -31q49 0 83.5 23.5t46.5 58.5q13 39 -10 64.5t-69 36.5l-71 19q-136 34 -115 154q12 70 77 117t142 47q83 0 127.5 -48t30.5 -126h-84
q7 42 -18 68t-71 26q-43 0 -78 -24t-42 -60q-10 -58 66 -77l73 -19q78 -21 110 -69t13 -116q-18 -54 -63.5 -94.5t-105.5 -52.5l14 -46q5 -18 2 -36q-11 -56 -71 -81q-14 -6 -35 -6q-24 0 -42 15t-24 40q-5 23 0 46z" />
    <glyph glyph-name="Utilde.sc" horiz-adv-x="595" 
d="M400 698q-8 0 -15.5 -9.5t-10.5 -26.5h-57q12 51 38 77t57 26q24 0 44 -19l4 -4q16 -11 22 -11q19 0 26 34h56q-11 -51 -37 -76.5t-58 -25.5q-23 0 -46 22l-6 3q-11 10 -17 10zM326 73q54 0 99 36q44 35 55 92l68 383h84l-68 -383q-17 -94 -90 -152q-71 -58 -162 -58
q-90 0 -142 58t-35 152l68 383h85l-68 -383q-11 -56 21 -92q31 -36 85 -36z" />
    <glyph glyph-name="Umacron.sc" horiz-adv-x="595" 
d="M326 673l11 73h217l-11 -73h-217zM326 73q54 0 99 36q44 35 55 92l68 383h84l-68 -383q-17 -94 -90 -152q-71 -58 -162 -58q-90 0 -142 58t-35 152l68 383h85l-68 -383q-11 -56 21 -92q31 -36 85 -36z" />
    <glyph glyph-name="Ubreve.sc" horiz-adv-x="595" 
d="M326 73q54 0 99 36q44 35 55 92l68 383h84l-68 -383q-17 -94 -90 -152q-71 -58 -162 -58q-90 0 -142 58t-35 152l68 383h85l-68 -383q-11 -56 21 -92q31 -36 85 -36zM337 765h68q-4 -21 6 -35t30 -14q18 0 33 15t18 34h70q-10 -52 -46 -82.5t-87 -30.5q-54 0 -77.5 31.5
t-14.5 81.5z" />
    <glyph glyph-name="Uring.sc" horiz-adv-x="595" 
d="M326 73q54 0 99 36q44 35 55 92l68 383h84l-68 -383q-17 -94 -90 -152q-71 -58 -162 -58q-90 0 -142 58t-35 152l68 383h85l-68 -383q-11 -56 21 -92q31 -36 85 -36zM351 731q7 39 38 65t69 26q40 0 62 -26t15 -65q-7 -38 -38 -64t-71 -26q-38 0 -60 26t-15 64zM434 691
q17 0 32.5 12t18.5 28q3 17 -7.5 29t-27.5 12q-16 0 -30.5 -12.5t-17.5 -28.5t6.5 -28t25.5 -12z" />
    <glyph glyph-name="Uhungarumlaut.sc" horiz-adv-x="595" 
d="M326 73q54 0 99 36q44 35 55 92l68 383h84l-68 -383q-17 -94 -90 -152q-71 -58 -162 -58q-90 0 -142 58t-35 152l68 383h85l-68 -383q-11 -56 21 -92q31 -36 85 -36zM411 786h85l-104 -134h-76zM530 786h86l-114 -134h-76z" />
    <glyph glyph-name="Uogonek.sc" horiz-adv-x="597" 
d="M356 -94l1 1l6 19l61 4q-6 -29 -17 -46q-36 -55 -90 -55q-21 0 -33 6q-47 26 -39 81q1 12 12 36l31 41q-81 8 -125 65q-44 58 -29 143l68 383h85l-68 -383q-11 -56 21 -92t85 -36q54 0 99 36q44 35 55 92l68 383h84l-68 -383q-15 -84 -77 -142q-61 -55 -143 -66
q-5 -10 -18.5 -34t-16.5 -30q-14 -31 7 -41q25 -7 41 18z" />
    <glyph glyph-name="Wcircumflex.sc" horiz-adv-x="785" 
d="M553 138l222 446h90l-301 -584h-72l-39 352l-160 -352h-72l-95 584h90l64 -446l170 368h63zM645 652h-76l-49 72l-74 -72h-76l121 134h80z" />
    <glyph glyph-name="Ycircumflex.sc" horiz-adv-x="563" 
d="M535 652h-77l-49 72l-74 -72h-75l121 134h80zM371 268l-47 -268h-86l47 268l-166 316h99l123 -233l209 233h102z" />
    <glyph glyph-name="Tcaron.sc" horiz-adv-x="482" 
d="M318 786l48 -71l75 71h76l-123 -134h-80l-72 134h76zM562 584l-14 -79h-176l-89 -505h-85l89 505h-175l14 79h436z" />
    <glyph glyph-name="Tbar.sc" horiz-adv-x="483" 
d="M371 501l-27 -151h112l-10 -57h-112l-51 -293h-84l51 293h-110l10 57h110l27 151h-177l15 83h439l-15 -83h-178z" />
    <glyph glyph-name="Zacute.sc" horiz-adv-x="507" 
d="M45 0l12 72l379 433h-290l14 79h399l-13 -72l-381 -432h305l-14 -80h-411zM415 786h100l-130 -134h-80z" />
    <glyph glyph-name="Zdotaccent.sc" horiz-adv-x="507" 
d="M45 0l12 72l379 433h-290l14 79h399l-13 -72l-381 -432h305l-14 -80h-411zM322 726q4 22 23 37t42 15q24 0 37.5 -15t9.5 -37q-4 -23 -22.5 -38t-42.5 -15t-37.5 15t-9.5 38z" />
    <glyph glyph-name="Wgrave.sc" horiz-adv-x="785" 
d="M553 138l222 446h90l-301 -584h-72l-39 352l-160 -352h-72l-95 584h90l64 -446l170 368h63zM552 652h-80l-82 134h100z" />
    <glyph glyph-name="Wacute.sc" horiz-adv-x="785" 
d="M572 786h99l-129 -134h-80zM865 584l-301 -584h-72l-39 352l-160 -352h-72l-95 584h90l64 -446l170 368h63l40 -368l222 446h90z" />
    <glyph glyph-name="Wdieresis.sc" horiz-adv-x="785" 
d="M393 718q3 22 22 37t42 15t36 -15t10 -37q-4 -23 -22 -38t-42 -15q-23 0 -36.5 15t-9.5 38zM535 718q3 22 22 37t43 15q22 0 35 -14.5t10 -37.5q-4 -23 -22 -38t-41 -15q-24 0 -37.5 15t-9.5 38zM865 584l-301 -584h-72l-39 352l-160 -352h-72l-95 584h90l64 -446
l170 368h63l40 -368l222 446h90z" />
    <glyph glyph-name="Aringacute.sc" horiz-adv-x="570" 
d="M482 921h100l-107 -112q41 -25 30 -78q-7 -38 -38 -64t-71 -26q-38 0 -59.5 26t-14.5 64q5 31 26 54.5t50 31.5zM404 691q18 0 33 12t18 28q3 17 -7 29t-28 12q-16 0 -30 -12.5t-17 -28.5t6 -28t25 -12zM416 223l-49 244l-135 -244h184zM190 147l-81 -147h-90l325 584h88
l119 -584h-89l-31 147h-241z" />
    <glyph glyph-name="AEacute.sc" horiz-adv-x="814" 
d="M622 786h99l-129 -134h-80zM111 0h-100l473 584h370l-15 -83h-263l-31 -173h229l-14 -83h-229l-29 -162h272l-14 -83h-356l24 145h-200zM444 226l40 235l-190 -235h150z" />
    <glyph glyph-name="Oslashacute.sc" horiz-adv-x="692" 
d="M522 786h99l-130 -134h-80zM91 -15l-35 44l79 69q-55 86 -35 193q23 125 123 212q101 87 225 87q108 0 175 -66l80 67l36 -42l-79 -68q51 -88 32 -190q-22 -123 -124 -213q-100 -87 -225 -87q-106 0 -172 63zM184 291q-14 -78 19 -134l352 307q-47 45 -120 45
q-89 0 -162 -64q-72 -62 -89 -154zM356 73q88 0 162 63q73 64 89 155q13 69 -17 130l-351 -307q47 -41 117 -41z" />
    <glyph glyph-name="Ibreve.sc" horiz-adv-x="262" 
d="M154 765h67q-4 -21 6 -35t30 -14q19 0 34 14.5t18 34.5h69q-10 -52 -46 -82.5t-87 -30.5q-54 0 -77 31.5t-14 81.5zM276 584l-103 -584h-84l103 584h84z" />
    <glyph glyph-name="Eng.sc" horiz-adv-x="599" 
d="M421 -17l4 26l-178 415l-75 -424h-83l103 584h81l180 -423l75 423h85l-103 -578q-38 -213 -218 -213q-35 0 -65 10l21 83l49 -7q34 -2 53 8q57 22 71 96z" />
    <glyph glyph-name="Ygrave.sc" horiz-adv-x="563" 
d="M444 652h-80l-81 134h99zM371 268l-47 -268h-86l47 268l-166 316h99l123 -233l209 233h102z" />
    <glyph glyph-name="Gcommaaccent.sc" horiz-adv-x="659" 
d="M658 511l-70 -56q-46 55 -129 55q-89 0 -162 -64t-89 -155q-16 -90 34 -155q49 -64 139 -64q78 0 134 40q57 40 74 110h-164l12 74h259q-26 -149 -112 -227t-217 -78q-125 0 -196 87q-70 87 -47 213q23 125 123 212t226 87q118 0 185 -79zM306 -210l-51 17q54 59 64 116
l4 36h81q-20 -111 -98 -169z" />
    <glyph glyph-name="Kcommaaccent.sc" horiz-adv-x="515" 
d="M228 -210l-52 17q55 57 65 116l4 36h81q-20 -111 -98 -169zM565 584l-276 -292l225 -292h-115l-184 242l-42 -242h-84l103 584h84l-43 -244l230 244h102z" />
    <glyph glyph-name="Lcommaaccent.sc" horiz-adv-x="430" 
d="M89 0l103 584h84l-90 -505h236l-13 -79h-320zM181 -210l-52 17q55 57 65 116l4 36h81q-20 -111 -98 -169z" />
    <glyph glyph-name="Ncommaaccent.sc" horiz-adv-x="601" 
d="M615 584l-103 -584h-80l-184 428l-75 -428h-84l103 584h82l182 -423l75 423h84zM246 -210l-52 17q55 57 65 116l4 36h81q-20 -111 -98 -169z" />
    <glyph glyph-name="Rcommaaccent.sc" horiz-adv-x="546" 
d="M378 220l117 -220h-102l-112 216h-70l-37 -216h-85l103 584h225q87 0 121 -54q35 -55 22 -130q-14 -71 -60 -122t-122 -58zM401 506h-138l-38 -211h134q46 0 75.5 29t38.5 76q9 45 -10 75.5t-62 30.5zM224 -210l-52 17q55 57 65 116l4 36h81q-20 -111 -98 -169z" />
    <glyph glyph-name="Tcommaaccent.sc" horiz-adv-x="482" 
d="M112 505l14 79h436l-14 -79h-176l-89 -505h-85l89 505h-175zM171 -210l-51 17q54 58 64 116l5 36h81q-19 -112 -99 -169z" />
    <glyph glyph-name="Scommaaccent.sc" horiz-adv-x="505" 
d="M94 173h85q-7 -41 21 -72t81 -31q49 0 83.5 23.5t46.5 58.5q13 39 -10 64.5t-69 36.5l-71 19q-134 36 -115 154q12 70 77 117t142 47q83 0 127.5 -48t30.5 -126h-84q7 42 -18 68t-71 26q-43 0 -78 -24t-42 -60q-10 -58 66 -77l72 -19q79 -21 111 -68.5t13 -116.5
q-23 -66 -83 -110q-61 -44 -140 -44q-89 0 -138 54q-49 55 -37 128zM209 -210l-51 17q54 59 64 116l4 36h81q-16 -112 -98 -169z" />
    <glyph glyph-name="Idotaccent.sc" horiz-adv-x="262" 
d="M203 726q4 22 23 37t42 15q24 0 37.5 -15t9.5 -37q-4 -23 -22.5 -38t-42.5 -15t-37.5 15t-9.5 38zM276 584l-103 -584h-84l103 584h84z" />
    <glyph glyph-name="zero.numr" horiz-adv-x="364" 
d="M155 455q18 100 60 151.5t119 51.5q145 0 107 -203q-18 -98 -60 -149t-118 -51q-144 0 -108 200zM214 455q-25 -142 59 -142t109 142q26 144 -58 144t-110 -144z" />
    <glyph glyph-name="one.numr" horiz-adv-x="209" 
d="M200 260h-60l54 305l-75 -35l10 57l141 70z" />
    <glyph glyph-name="two.numr" horiz-adv-x="319" 
d="M81 260l5 28l191 191q32 32 38 61q4 27 -12 44t-43 17t-50 -18t-33 -47l-50 14q16 48 55.5 78t87.5 30q52 0 82 -33.5t21 -84.5q-11 -54 -60 -102l-123 -119h145l-10 -59h-244z" />
    <glyph glyph-name="three.numr" horiz-adv-x="321" 
d="M187 563l-39 36q48 61 126 59q48 -3 74 -35t17 -75q-9 -44 -54 -76q50 -29 38 -96q-9 -55 -53.5 -87.5t-103.5 -32.5q-36 0 -68 22.5t-42 55.5l55 29q6 -20 26.5 -34t42.5 -14q31 0 54.5 16.5t28.5 43.5q7 27 -7 46.5t-43 19.5h-56l10 57h47q18 0 34 11.5t23 29.5
q9 27 -3 43.5t-42 16.5q-35 0 -65 -36z" />
    <glyph glyph-name="four.numr" horiz-adv-x="361" 
d="M394 339h-56l-15 -79h-59l15 79h-203l273 314h44l-46 -258h56zM314 545l-127 -150h101z" />
    <glyph glyph-name="five.numr" horiz-adv-x="340" 
d="M86 337l55 35q6 -27 27.5 -43.5t49.5 -16.5q39 0 66.5 21t33.5 54q6 32 -12.5 50t-50.5 18q-47 0 -117 -33l-14 23l72 207h201l-11 -56h-152q-3 -10 -16 -45.5t-18 -50.5q32 13 66 13q58 0 89 -33.5t21 -92.5q-10 -60 -56.5 -96.5t-112.5 -36.5q-43 0 -76 22.5t-45 60.5z
" />
    <glyph glyph-name="six.numr" horiz-adv-x="338" 
d="M407 576l-56 -22q-15 46 -56 46q-38 0 -68 -37t-40 -95q35 47 89 47q53 0 82 -41q28 -39 17 -96q-13 -55 -58 -91q-43 -36 -98 -34q-52 2 -80.5 38.5t-22.5 96.5q9 77 30 135q53 136 159 133q81 -5 102 -80zM177 387q-7 -30 9.5 -51.5t46.5 -22.5q29 -1 52.5 18.5
t30.5 49.5q7 31 -8 52t-44 22q-31 1 -56 -18.5t-31 -49.5z" />
    <glyph glyph-name="seven.numr" horiz-adv-x="322" 
d="M151 653h275l-284 -393h-69l242 334h-174z" />
    <glyph glyph-name="eight.numr" horiz-adv-x="342" 
d="M172 555q8 43 43.5 73t80.5 30q46 0 72 -30t18 -73q-8 -38 -41 -67q51 -38 39 -105q-9 -54 -55 -91t-104 -37q-57 0 -89.5 37t-23.5 91q14 71 74 105q-22 29 -14 67zM235 313q32 0 58.5 20.5t31.5 49.5q5 30 -13.5 52.5t-50.5 22.5h-4q-30 0 -55.5 -22.5t-30.5 -52.5
q-5 -29 13 -49.5t51 -20.5zM267 508h5q20 1 35.5 15t18.5 32t-8.5 31t-31.5 13t-36 -13t-19 -31t7.5 -32t28.5 -15z" />
    <glyph glyph-name="nine.numr" horiz-adv-x="337" 
d="M96 334l57 22q13 -46 55 -46q38 0 68 37t40 95q-33 -47 -88 -47q-53 0 -82 41q-28 40 -16 96q12 53 56 90t98 35t82 -38.5t22 -96.5q-9 -77 -31 -135q-49 -136 -159 -133q-81 5 -102 80zM328 523q5 30 -11.5 51t-46.5 23q-28 1 -51.5 -19t-30.5 -49q-7 -30 8 -51.5
t44 -22.5q30 -1 55 18.5t33 49.5z" />
    <glyph glyph-name="zero.dnom" horiz-adv-x="364" 
d="M108 195q36 203 180 203q76 0 100 -51.5t6 -151.5q-34 -200 -178 -200q-143 0 -108 200zM167 195q-27 -142 60 -142q45 0 70 35t38 107q27 144 -57 144t-111 -144z" />
    <glyph glyph-name="one.dnom" horiz-adv-x="209" 
d="M154 0h-60l52 305l-73 -35l10 57l141 70z" />
    <glyph glyph-name="two.dnom" horiz-adv-x="319" 
d="M36 0l4 28l192 191q33 35 38 61q4 27 -12 44t-43 17t-50 -18t-33 -47l-51 14q16 48 56 78t88 30q52 0 82 -33.5t21 -84.5q-11 -54 -62 -102l-122 -119h145l-9 -59h-244z" />
    <glyph glyph-name="three.dnom" horiz-adv-x="321" 
d="M141 303l-38 36q23 29 57 45t69 14q47 -2 73 -34.5t17 -75.5q-6 -41 -53 -76q50 -29 38 -96q-9 -55 -53.5 -87.5t-103.5 -32.5q-37 0 -69 22.5t-42 55.5l55 29q6 -20 27 -34t43 -14q31 0 54 16.5t28 43.5q7 27 -7 46.5t-43 19.5h-56l10 57h47q18 0 34.5 11.5t23.5 29.5
q8 27 -3.5 43.5t-41.5 16.5q-35 0 -66 -36z" />
    <glyph glyph-name="four.dnom" horiz-adv-x="361" 
d="M347 79h-56l-13 -79h-59l13 79h-203l275 314h44l-47 -258h56zM269 285l-128 -150h101z" />
    <glyph glyph-name="five.dnom" horiz-adv-x="340" 
d="M40 77l55 35q6 -27 28 -43.5t50 -16.5q39 0 66 21t32 54q6 32 -12.5 50t-49.5 18q-47 0 -116 -33l-15 23l73 207h201l-11 -56h-152l-35 -96q30 13 65 13q58 0 89.5 -34t20.5 -92q-10 -60 -56 -96.5t-111 -36.5q-43 0 -76.5 22.5t-45.5 60.5z" />
    <glyph glyph-name="six.dnom" horiz-adv-x="338" 
d="M361 316l-57 -22q-13 46 -55 46q-38 0 -68 -37t-40 -95q33 47 88 47q53 0 82 -41q28 -39 17 -96q-13 -54 -58 -91q-43 -36 -97 -34t-82 38.5t-22 96.5q11 93 45 169q21 47 59 73.5t86 25.5q81 -5 102 -80zM129 127q-5 -30 11.5 -51t46.5 -23q28 -1 51.5 19t30.5 49
q7 30 -8 51.5t-44 22.5q-30 1 -55 -18.5t-33 -49.5z" />
    <glyph glyph-name="seven.dnom" horiz-adv-x="321" 
d="M106 393h275l-284 -393h-69l241 334h-174z" />
    <glyph glyph-name="eight.dnom" horiz-adv-x="342" 
d="M126 295q7 43 43 73t82 30q45 0 70.5 -30t18.5 -73q-6 -36 -40 -67q50 -38 38 -105q-11 -54 -56 -91q-44 -37 -103 -37q-58 0 -91 37q-32 38 -22 91q14 71 75 105q-21 27 -15 67zM190 53q32 0 58 20.5t31 49.5q5 30 -13.5 52.5t-50.5 22.5h-4q-30 0 -55.5 -22.5
t-30.5 -52.5q-5 -29 13.5 -49.5t51.5 -20.5zM221 248l5 1q20 2 35.5 15.5t18.5 30.5q5 29 -21.5 40.5t-54.5 -9.5q-24 -20 -18 -49t35 -29z" />
    <glyph glyph-name="nine.dnom" horiz-adv-x="337" 
d="M50 74l58 22q13 -46 55 -46q38 0 68 37t39 95q-32 -47 -88 -47q-53 0 -82 41q-28 40 -16 96q12 54 57 90q44 37 98 35q52 -2 80.5 -38.5t23.5 -96.5q-11 -90 -46 -169q-21 -47 -58.5 -73.5t-85.5 -25.5q-82 4 -103 80zM282 263q5 30 -11 51t-46 23q-28 1 -52 -19t-31 -49
q-7 -31 8 -52t44 -22q31 -1 56 18.5t32 49.5z" />
    <glyph glyph-name="l.alt1" horiz-adv-x="279" 
d="M297 85h31l-15 -85h-39q-169 0 -133 200l93 521h92l-93 -520q-23 -116 64 -116z" />
    <glyph glyph-name="a.alt1" horiz-adv-x="540" 
d="M242 71q40 0 93 21t81 58l7 34q-66 24 -135 24q-114 0 -127 -73q-5 -29 16 -46.5t65 -17.5zM190 335l-47 54q76 88 209 88q102 0 149.5 -51t29.5 -145l-11 -60l-38 -221h-90l9 60q-29 -33 -78 -51.5t-98 -18.5q-81 0 -121.5 38.5t-28.5 106.5t69 107.5t157 39.5
q63 0 135 -25l5 24q9 52 -20.5 83t-89.5 31q-78 0 -141 -60z" />
    <glyph glyph-name="y.alt1" horiz-adv-x="508" 
d="M169 -48l37 62l-106 453h97l79 -336l200 336h97l-326 -550q-53 -83 -99 -116q-46 -34 -117 -34q-29 0 -53 7l15 80q17 -3 51 -3q41 0 66 23q23 21 59 78z" />
    <glyph glyph-name="lslash.alt1" horiz-adv-x="290" 
d="M269 85h31l-14 -85h-39q-170 0 -134 200l21 118l-73 -42l12 64l73 42l60 339h92l-50 -280l85 49l-12 -64l-84 -49l-32 -176q-23 -116 64 -116z" />
    <glyph glyph-name="lacute.alt1" horiz-adv-x="279" 
d="M368 931h109l-145 -154h-87zM313 0h-39q-169 0 -133 200l93 521h92l-93 -520q-23 -116 64 -116h31z" />
    <glyph glyph-name="lcommaaccent.alt1" horiz-adv-x="279" 
d="M122 -250l-54 19q40 44 55 78q17 36 21 96h90q-21 -129 -112 -193zM260 85h31l-14 -85h-39q-170 0 -134 200l93 521h92l-93 -520q-23 -116 64 -116z" />
    <glyph glyph-name="lcaron.alt1" horiz-adv-x="279" 
d="M391 528l-54 19q37 40 54 77q17 39 23 97h90q-21 -130 -113 -193zM313 0h-39q-169 0 -133 200l93 521h92l-93 -520q-23 -116 64 -116h31z" />
    <glyph glyph-name="aacute.alt1" horiz-adv-x="540" 
d="M242 71q40 0 93 21t81 58l7 34q-66 24 -135 24q-114 0 -127 -73q-5 -29 16 -46.5t65 -17.5zM190 335l-47 54q76 88 209 88q102 0 149.5 -51t29.5 -145l-11 -60l-38 -221h-90l9 60q-29 -33 -78 -51.5t-98 -18.5q-81 0 -121.5 38.5t-28.5 106.5t69 107.5t157 39.5
q63 0 135 -25l5 24q9 52 -20.5 83t-89.5 31q-78 0 -141 -60zM441 708h109l-146 -154h-87z" />
    <glyph glyph-name="agrave.alt1" horiz-adv-x="540" 
d="M242 71q40 0 93 21t81 58l7 34q-66 24 -135 24q-114 0 -127 -73q-5 -29 16 -46.5t65 -17.5zM190 335l-47 54q76 88 209 88q102 0 149.5 -51t29.5 -145l-11 -60l-38 -221h-90l9 60q-29 -33 -78 -51.5t-98 -18.5q-81 0 -121.5 38.5t-28.5 106.5t69 107.5t157 39.5
q63 0 135 -25l5 24q9 52 -20.5 83t-89.5 31q-78 0 -141 -60zM426 554h-87l-92 154h109z" />
    <glyph glyph-name="acircumflex.alt1" horiz-adv-x="540" 
d="M520 554h-82l-59 87l-90 -87h-82l137 154h93zM242 71q40 0 93 21t81 58l7 34q-66 24 -135 24q-114 0 -127 -73q-5 -29 16 -46.5t65 -17.5zM190 335l-47 54q76 88 209 88q102 0 149.5 -51t29.5 -145l-11 -60l-38 -221h-90l9 60q-29 -33 -78 -51.5t-98 -18.5
q-81 0 -121.5 38.5t-28.5 106.5t69 107.5t157 39.5q63 0 135 -25l5 24q9 52 -20.5 83t-89.5 31q-78 0 -141 -60z" />
    <glyph glyph-name="adieresis.alt1" horiz-adv-x="540" 
d="M242 71q40 0 93 21t81 58l7 34q-66 24 -135 24q-114 0 -127 -73q-5 -29 16 -46.5t65 -17.5zM190 335l-47 54q76 88 209 88q102 0 149.5 -51t29.5 -145l-11 -60l-38 -221h-90l9 60q-29 -33 -78 -51.5t-98 -18.5q-81 0 -121.5 38.5t-28.5 106.5t69 107.5t157 39.5
q63 0 135 -25l5 24q9 52 -20.5 83t-89.5 31q-78 0 -141 -60zM316 689q25 0 40 -17t11 -42q-4 -24 -25 -41.5t-46 -17.5q-26 0 -41 17t-11 42t25 42t47 17zM424 588q-15 17 -11 42t25 42t47 17t41 -17t11 -42t-25 -42t-47 -17t-41 17z" />
    <glyph glyph-name="atilde.alt1" horiz-adv-x="540" 
d="M328 610q-10 0 -20.5 -12t-13.5 -32h-61q14 58 43.5 87.5t65.5 29.5q24 0 53 -24q20 -17 28 -17q25 0 36 41h61q-14 -57 -44 -85.5t-66 -28.5q-24 0 -53 25q-17 16 -29 16zM242 71q40 0 93 21t81 58l7 34q-66 24 -135 24q-114 0 -127 -73q-5 -29 16 -46.5t65 -17.5z
M190 335l-47 54q76 88 209 88q102 0 149.5 -51t29.5 -145l-11 -60l-38 -221h-90l9 60q-29 -33 -78 -51.5t-98 -18.5q-81 0 -121.5 38.5t-28.5 106.5t69 107.5t157 39.5q63 0 135 -25l5 24q9 52 -20.5 83t-89.5 31q-78 0 -141 -60z" />
    <glyph glyph-name="aring.alt1" horiz-adv-x="540" 
d="M279 645q8 45 43.5 75.5t79.5 30.5q45 0 70.5 -30.5t17.5 -75.5q-7 -43 -44 -74q-38 -30 -82 -30q-43 0 -68 30t-17 74zM333 645q-4 -21 8 -36t33 -15q23 0 41.5 15t22.5 36q4 22 -9 37.5t-36 15.5q-21 0 -38.5 -15.5t-21.5 -37.5zM242 71q40 0 93 21t81 58l7 34
q-66 24 -135 24q-114 0 -127 -73q-5 -29 16 -46.5t65 -17.5zM190 335l-47 54q76 88 209 88q102 0 149.5 -51t29.5 -145l-11 -60l-38 -221h-90l9 60q-29 -33 -78 -51.5t-98 -18.5q-81 0 -121.5 38.5t-28.5 106.5t69 107.5t157 39.5q63 0 135 -25l5 24q9 52 -20.5 83t-89.5 31
q-78 0 -141 -60z" />
    <glyph glyph-name="amacron.alt1" horiz-adv-x="540" 
d="M251 580l14 80h252l-14 -80h-252zM242 71q40 0 93 21t81 58l7 34q-66 24 -135 24q-114 0 -127 -73q-5 -29 16 -46.5t65 -17.5zM190 335l-47 54q76 88 209 88q102 0 149.5 -51t29.5 -145l-11 -60l-38 -221h-90l9 60q-29 -33 -78 -51.5t-98 -18.5q-81 0 -121.5 38.5
t-28.5 106.5t69 107.5t157 39.5q63 0 135 -25l5 24q9 52 -20.5 83t-89.5 31q-78 0 -141 -60z" />
    <glyph glyph-name="abreve.alt1" horiz-adv-x="540" 
d="M242 71q40 0 93 21t81 58l7 34q-66 24 -135 24q-114 0 -127 -73q-5 -29 16 -46.5t65 -17.5zM190 335l-47 54q76 88 209 88q102 0 149.5 -51t29.5 -145l-11 -60l-38 -221h-90l9 60q-29 -33 -78 -51.5t-98 -18.5q-81 0 -121.5 38.5t-28.5 106.5t69 107.5t157 39.5
q63 0 135 -25l5 24q9 52 -20.5 83t-89.5 31q-78 0 -141 -60zM271 683h74q-6 -26 6.5 -42.5t38.5 -16.5q24 0 42.5 17.5t23.5 41.5h76q-11 -59 -53 -93.5t-102 -34.5q-63 0 -89.5 35.5t-16.5 92.5z" />
    <glyph glyph-name="aogonek.alt1" horiz-adv-x="540" 
d="M190 335l-47 54q76 88 209 88q102 0 149 -50.5t30 -145.5l-49 -281h-35l-48 -87q-8 -16 -5 -31t16 -22q14 -5 29.5 1.5t24.5 21.5l6 22l65 4q-4 -28 -18 -49q-18 -30 -45.5 -47t-56.5 -17q-19 0 -37 8q-58 28 -47 92q3 23 16 42l45 62l9 60q-29 -33 -78 -51.5t-98 -18.5
q-81 0 -121.5 38.5t-28.5 106.5t69 107.5t157 39.5q62 0 136 -25l4 24q8 52 -21 83t-89 31q-78 0 -141 -60zM242 71q40 0 93 21t81 58l7 34q-66 24 -135 24q-114 0 -127 -73q-5 -29 16 -46.5t65 -17.5z" />
    <glyph glyph-name="yacute.alt1" horiz-adv-x="508" 
d="M420 708h109l-147 -154h-87zM206 14l-106 453h97l79 -336l200 336h97l-326 -550q-53 -83 -99 -116q-46 -34 -117 -34q-29 0 -53 7l15 80q17 -3 51 -3q41 0 66 23q23 21 59 78z" />
    <glyph glyph-name="ydieresis.alt1" horiz-adv-x="508" 
d="M295 689q25 0 40 -17t11 -42q-4 -24 -25 -41.5t-46 -17.5q-26 0 -41 17t-11 42t25 42t47 17zM403 588q-15 17 -11 42t25 42t47 17t41 -17t11 -42t-25 -42t-47 -17t-41 17zM206 14l-106 453h97l79 -336l200 336h97l-326 -550q-53 -83 -99 -116q-46 -34 -117 -34
q-29 0 -53 7l15 80q17 -3 51 -3q41 0 66 23q23 21 59 78z" />
    <glyph glyph-name="ae.alt1" horiz-adv-x="890" 
d="M488 38l-6 -38h-90l9 60q-29 -33 -78 -51.5t-98 -18.5q-81 0 -121.5 38.5t-28.5 106.5t69 107.5t157 39.5q62 0 136 -25l4 24q8 52 -21 83t-89 31q-78 0 -141 -60l-47 54q76 88 209 88q127 0 168 -77q83 77 193 77q102 0 154 -67q54 -66 35 -175l-7 -36h-379
q-2 -58 33.5 -92.5t95.5 -34.5q43 0 82 19t64 53l39 -17l35 -13q-41 -59 -104 -91.5t-134 -32.5q-87 0 -139 48zM529 270h290q1 58 -31 91.5t-89 33.5q-60 0 -106 -34t-64 -91zM242 71q40 0 93 21t81 58l7 34q-66 24 -135 24q-114 0 -127 -73q-5 -29 16 -46.5t65 -17.5z" />
    <glyph glyph-name="aeacute.alt1" horiz-adv-x="890" 
d="M639 708h109l-146 -154h-87zM482 0h-90l9 60q-29 -33 -78 -51.5t-98 -18.5q-81 0 -121.5 38.5t-28.5 106.5t69 107.5t157 39.5q62 0 136 -25l4 24q8 52 -21 83t-89 31q-78 0 -141 -60l-47 54q76 88 209 88q127 0 168 -77q83 77 193 77q102 0 154 -67q54 -66 35 -175
l-7 -36h-379q-2 -58 33.5 -92.5t95.5 -34.5q43 0 82 19t64 53l39 -17l35 -13q-41 -59 -104 -91.5t-134 -32.5q-87 0 -139 48zM819 270q1 58 -31 91.5t-89 33.5q-60 0 -106 -34t-64 -91h290zM242 71q40 0 93 21t81 58l7 34q-66 24 -135 24q-114 0 -127 -73q-5 -29 16 -46.5
t65 -17.5z" />
    <glyph glyph-name="ycircumflex.alt1" horiz-adv-x="508" 
d="M506 554h-82l-59 87l-90 -87h-82l138 154h93zM169 -48l37 62l-106 453h97l79 -336l200 336h97l-326 -550q-53 -83 -99 -116q-46 -34 -117 -34q-29 0 -53 7l15 80q17 -3 51 -3q41 0 66 23q23 21 59 78z" />
    <glyph glyph-name="ldot.alt1" horiz-adv-x="339" 
d="M297 85h31l-15 -85h-39q-169 0 -133 200l93 521h92l-93 -520q-23 -116 64 -116zM310 216q-15 18 -11 45t26 45q23 18 50 18t43 -18t12 -45t-27 -45q-23 -17 -50 -17t-43 17z" />
    <glyph glyph-name="t.alt1" horiz-adv-x="351" 
d="M302 85h27l-14 -85h-35q-170 0 -134 200l34 190h-84l14 77h84l21 125l98 28l-27 -153h98l-14 -77h-98l-34 -189q-23 -116 64 -116z" />
    <glyph glyph-name="tcaron.alt1" horiz-adv-x="351" 
d="M393 528l-55 19q40 44 55 78q18 39 22 96h90q-21 -129 -112 -193zM315 0h-35q-170 0 -134 200l34 190h-84l14 77h84l21 125l98 28l-27 -153h98l-14 -77h-98l-34 -189q-23 -116 64 -116h27z" />
    <glyph glyph-name="tbar.alt1" horiz-adv-x="353" 
d="M304 85h27l-14 -85h-35q-171 0 -133 200l5 26h-68l10 61h68l18 103h-84l14 77h84l22 125l97 28l-27 -153h98l-14 -77h-98l-18 -103h75l-10 -61h-75l-5 -25q-24 -116 63 -116z" />
    <glyph glyph-name="tcommaaccent.alt1" horiz-adv-x="351" 
d="M147 -250l-54 19q40 44 55 78q16 36 21 96h90q-21 -129 -112 -193zM302 85h27l-14 -85h-35q-170 0 -134 200l34 190h-84l14 77h84l22 125l97 28l-27 -153h98l-14 -77h-98l-34 -189q-23 -116 64 -116z" />
    <glyph glyph-name="T.sc.alt1" horiz-adv-x="482" 
d="M112 505l14 79h436l-14 -79h-176l-89 -505h-85l89 505h-175z" />
    <glyph glyph-name="Tcaron.sc.alt1" horiz-adv-x="482" 
d="M318 786l48 -71l75 71h76l-123 -134h-80l-72 134h76zM562 584l-14 -79h-176l-89 -505h-85l89 505h-175l14 79h436z" />
    <glyph glyph-name="Tbar.sc.alt1" horiz-adv-x="483" 
d="M371 501l-27 -151h112l-10 -57h-112l-51 -293h-84l51 293h-110l10 57h110l27 151h-177l15 83h439l-15 -83h-178z" />
    <glyph glyph-name="Tcommaaccent.sc.alt1" horiz-adv-x="482" 
d="M112 505l14 79h436l-14 -79h-176l-89 -505h-85l89 505h-175zM171 -210l-51 17q54 58 64 116l5 36h81q-19 -112 -99 -169z" />
    <glyph glyph-name="aringacute.alt1" horiz-adv-x="540" 
d="M472 861h109l-126 -132q49 -28 38 -92q-7 -43 -44 -74q-37 -30 -82 -30q-43 0 -68 30t-17 74q7 36 32 63.5t58 37.5zM335 637q-4 -21 8.5 -36t33.5 -15q22 0 40.5 15t22.5 36q4 22 -9 37.5t-36 15.5q-21 0 -38.5 -15.5t-21.5 -37.5zM242 71q40 0 93 21t81 58l7 34
q-59 21 -136 21q-113 0 -126 -70q-5 -29 16 -46.5t65 -17.5zM190 335l-47 54q76 88 209 88q102 0 149.5 -51t29.5 -145l-11 -60l-38 -221h-90l9 60q-29 -33 -78 -51.5t-98 -18.5q-81 0 -121.5 38.5t-28.5 106.5t69 107.5t157 39.5q63 0 135 -25l5 24q9 52 -20.5 83t-89.5 31
q-78 0 -141 -60z" />
    </font>
</defs>
</svg>
