<?xml version="1.0" standalone="no"?>
<!DOCTYPE svg PUBLIC "-//W3C//DTD SVG 1.1//EN" "http://www.w3.org/Graphics/SVG/1.1/DTD/svg11.dtd" >
<svg xmlns="http://www.w3.org/2000/svg" xmlns:xlink="http://www.w3.org/1999/xlink" version="1.1">
<metadata>
Created by FontForge 20170731 at Fri Aug  8 19:21:38 2014
 By Aleksey,,,
Copyright (c) Olivier Gourvat - Mostardesign Studio, 2012. All rights reserved.
</metadata>
<defs>
<font id="SofiaProExtraLight-Italic" horiz-adv-x="620" >
  <font-face 
    font-family="Sofia Pro Extra Light"
    font-weight="400"
    font-style="italic"
    font-stretch="normal"
    units-per-em="1000"
    panose-1="2 0 0 0 0 0 0 0 0 0"
    ascent="759"
    descent="-241"
    x-height="467"
    cap-height="689"
    bbox="-162 -234 1233 1039"
    underline-thickness="50"
    underline-position="-200"
    slope="-12"
    unicode-range="U+0020-FB04"
  />
<missing-glyph horiz-adv-x="635" 
d="M555 0h-475l117 665h475zM260 431h62q7 37 32.5 60t57.5 23q33 0 52.5 -20.5t13.5 -52.5q-5 -29 -32 -50q-21 -17 -37 -21q-49 -13 -76.5 -38.5t-35.5 -71.5l-7 -38h62l6 38q5 37 59 50q46 13 79.5 48.5t42.5 82.5q11 59 -23.5 97t-93.5 38q-58 0 -104 -40t-58 -105z
M259 131q-4 -18 7.5 -30.5t30.5 -12.5q28 0 46 27t-1 46q-18 21 -47.5 10t-35.5 -40z" />
    <glyph glyph-name="f_f" unicode="ff" horiz-adv-x="652" 
d="M460 0l75 426h-293l-75 -426h-45l75 426h-94l7 41h94l12 68q36 198 195 198h41l-9 -44h-41q-114 0 -141 -154l-12 -68h293l12 68q36 198 195 198h41l-9 -44h-41q-114 0 -141 -154l-12 -68h125l-7 -41h-125l-75 -426h-45z" />
    <glyph glyph-name="fi" unicode="fi" horiz-adv-x="569" 
d="M442 0l75 426h-275l-75 -426h-45l75 426h-94l7 41h94l12 68q36 198 195 198h41l-9 -44h-41q-114 0 -141 -154l-12 -68h320l-82 -467h-45zM571 603q-17 0 -27 10.5t-7 26.5t16.5 26.5t30.5 10.5q29 2 32 -25q2 -27 -21 -43q-11 -7 -24 -6z" />
    <glyph glyph-name="fl" unicode="fl" horiz-adv-x="554" 
d="M425 0l121 689h-144q-114 0 -141 -154l-12 -68h125l-7 -41h-125l-75 -426h-45l75 426h-94l7 41h94l12 68q36 198 195 198h189l-130 -733h-45z" />
    <glyph glyph-name="f_f_i" unicode="ffi" horiz-adv-x="907" 
d="M825 0h-45l75 426h-275l-75 -426h-45l75 426h-293l-75 -426h-45l75 426h-94l7 41h94l12 68q36 198 195 198h41l-9 -44h-41q-114 0 -141 -154l-12 -68h293l12 68q36 198 195 198h41l-9 -44h-41q-114 0 -141 -154l-12 -68h320zM909 603q-17 0 -27 10.5t-7 26.5t16.5 26.5
t30.5 10.5q29 2 32 -25q2 -27 -21 -43q-11 -7 -24 -6z" />
    <glyph glyph-name="f_f_l" unicode="ffl" horiz-adv-x="892" 
d="M460 0l75 426h-293l-75 -426h-45l75 426h-94l7 41h94l12 68q36 198 195 198h41l-9 -44h-41q-114 0 -141 -154l-12 -68h293l12 68q36 198 195 198h41l-9 -44h-41q-114 0 -141 -154l-12 -68h125l-7 -41h-125l-75 -426h-45zM763 0l130 733h45l-130 -733h-45z" />
    <glyph glyph-name="f_f_j" unicode="ffj" horiz-adv-x="914" 
d="M587 467h327l-88 -496q-35 -197 -195 -197h-41l10 44h41q113 0 140 153l81 455h-282l-75 -426h-45l75 426h-293l-75 -426h-45l75 426h-94l7 41h94l12 68q36 198 195 198h41l-9 -44h-41q-114 0 -141 -154l-12 -68h293l12 68q36 198 195 198h41l-9 -44h-41
q-114 0 -141 -154zM917 603q-17 0 -27 10.5t-7 26.5t16.5 26.5t30.5 10.5q29 2 32 -25q2 -27 -21 -43q-11 -7 -24 -6z" />
    <glyph glyph-name="f_j" unicode="fj" horiz-adv-x="576" 
d="M249 467h327l-88 -496q-35 -197 -195 -197h-41l10 44h41q113 0 140 153l81 455h-282l-75 -426h-45l75 426h-94l7 41h94l12 68q36 198 195 198h41l-9 -44h-41q-114 0 -141 -154zM579 603q-17 0 -27 10.5t-7 26.5t16.5 26.5t30.5 10.5q29 2 32 -25q2 -27 -21 -43
q-11 -7 -24 -6z" />
    <glyph glyph-name=".notdef" horiz-adv-x="635" 
d="M555 0h-475l117 665h475zM260 431h62q7 37 32.5 60t57.5 23q33 0 52.5 -20.5t13.5 -52.5q-5 -29 -32 -50q-21 -17 -37 -21q-49 -13 -76.5 -38.5t-35.5 -71.5l-7 -38h62l6 38q5 37 59 50q46 13 79.5 48.5t42.5 82.5q11 59 -23.5 97t-93.5 38q-58 0 -104 -40t-58 -105z
M259 131q-4 -18 7.5 -30.5t30.5 -12.5q28 0 46 27t-1 46q-18 21 -47.5 10t-35.5 -40z" />
    <glyph glyph-name=".null" horiz-adv-x="0" 
 />
    <glyph glyph-name="nonmarkingreturn" horiz-adv-x="333" 
 />
    <glyph glyph-name="space" unicode=" " horiz-adv-x="270" 
 />
    <glyph glyph-name="exclam" unicode="!" horiz-adv-x="245" 
d="M174 168h-40l90 521h45zM136 70q18 0 28.5 -11t7.5 -27t-17.5 -27.5t-31.5 -11.5t-27 11.5t-7 27.5t16.5 27t30.5 11z" />
    <glyph glyph-name="quotedbl" unicode="&#x22;" horiz-adv-x="303" 
d="M297 432h-40l46 257h40zM196 432h-40l46 257h40z" />
    <glyph glyph-name="numbersign" unicode="#" horiz-adv-x="697" 
d="M443 222l109 242h-180l-109 -242h180zM654 689h44l-83 -182h131l-20 -43h-131l-108 -242h130l-19 -43h-131l-80 -179h-44l81 179h-180l-81 -179h-43l81 179h-130l20 43h129l109 242h-130l20 43h130l82 182h43l-82 -182h180z" />
    <glyph glyph-name="dollar" unicode="$" horiz-adv-x="550" 
d="M388 697l18 97h38l-19 -98q78 -8 120 -56.5t32 -122.5h-45q7 60 -33 97.5t-109 37.5q-66 0 -123 -39q-56 -39 -67 -98q-16 -95 101 -124l92 -22q92 -22 131 -76t10 -140q-22 -60 -85 -108q-61 -47 -147 -54l-21 -114h-38l20 113q-85 4 -134 61q-47 57 -40 128h45
q-5 -57 36 -101q40 -43 112 -43q76 0 133 36.5t77 89.5q39 126 -116 164l-94 23q-152 35 -128 167q13 75 83 127q68 50 151 55z" />
    <glyph glyph-name="percent" unicode="%" horiz-adv-x="674" 
d="M643 668l-443 -668h-39l444 668h38zM147 552q9 50 50 85q40 36 92 36q51 0 79 -36q29 -35 20 -85q-9 -52 -51 -86q-40 -34 -92 -34q-51 0 -79 34.5t-19 85.5zM280 628q-32 0 -57.5 -22t-30.5 -54t12 -53.5t49 -21.5q33 0 59 21.5t31 53.5t-13.5 54t-49.5 22zM563 234
q50 0 80 -36q30 -35 21 -85q-9 -51 -50 -86q-40 -34 -92 -34t-80 34t-19 86q9 51 49 86t91 35zM619 113q6 31 -12.5 53.5t-50.5 22.5t-57 -22t-31 -54t12 -53.5t50 -21.5t57.5 21.5t31.5 53.5z" />
    <glyph glyph-name="ampersand" unicode="&#x26;" horiz-adv-x="662" 
d="M302 35q77 0 133 46q59 47 72 117l31 177h-175q-74 0 -135 -50q-59 -50 -71 -120q-13 -72 27 -121t118 -49zM272 535q-9 -51 19 -84t81 -33h173l17 89h45l-17 -90h94l-7 -42h-94l-30 -170q-7 -47 -7.5 -83.5t21.5 -60t68 -25.5l-7 -44q-55 0 -89 28.5t-35 79.5
q-33 -54 -91 -82q-61 -29 -120 -29q-96 0 -147 62q-51 63 -35 154q11 64 56.5 117.5t109.5 77.5q-30 21 -43.5 58t-6.5 77q12 69 69 115q59 47 130 47q98 0 135 -73l-42 -25q-29 53 -101 53q-54 0 -95 -34q-42 -35 -51 -83z" />
    <glyph glyph-name="quotesingle" unicode="'" horiz-adv-x="202" 
d="M196 432h-40l46 257h40z" />
    <glyph glyph-name="parenleft" unicode="(" horiz-adv-x="345" 
d="M134 231q37 214 127 337q90 124 205 128l-7 -45q-95 -5 -170 -116q-75 -110 -110 -304t1 -304q37 -111 130 -115l-8 -46q-113 4 -160 128q-46 121 -8 337z" />
    <glyph glyph-name="parenright" unicode=")" horiz-adv-x="345" 
d="M329 231q-37 -212 -128 -336q-88 -124 -202 -129l7 46q93 5 168 115q76 112 110 304q35 195 -1 304q-36 112 -129 116l7 45q113 -4 160 -128q46 -120 8 -337z" />
    <glyph glyph-name="asterisk" unicode="*" horiz-adv-x="465" 
d="M322 493l-111 -127l-33 29l117 117l-139 41l24 47l131 -54l17 151h52l-36 -151l152 54l6 -46l-151 -39l73 -120l-43 -27z" />
    <glyph glyph-name="plus" unicode="+" horiz-adv-x="519" 
d="M101 239l9 44h177l30 176h44l-30 -176h178l-9 -44h-178l-32 -178h-44l32 178h-177z" />
    <glyph glyph-name="comma" unicode="," horiz-adv-x="229" 
d="M39 -137l-29 11q76 86 94 199h50q-26 -127 -115 -210z" />
    <glyph glyph-name="hyphen" unicode="-" horiz-adv-x="479" 
d="M439 207h-329l8 43h329z" />
    <glyph glyph-name="period" unicode="." horiz-adv-x="233" 
d="M82 28q3 17 17 28t31 11q18 0 28 -11t7 -28q-4 -29 -37 -36q-32 -6 -44 14q-5 9 -2 22z" />
    <glyph glyph-name="slash" unicode="/" horiz-adv-x="457" 
d="M86 0h-50l456 689h50z" />
    <glyph glyph-name="zero" unicode="0" horiz-adv-x="604" 
d="M131 331q25 148 89 241q70 101 204 101t165 -101q28 -86 2 -241q-25 -148 -87 -240q-68 -101 -202 -101q-67 0 -109 27t-58 73t-17.5 108t13.5 133zM178 331q-14 -83 -12 -149q2 -67 39 -106.5t105 -39.5q106 0 162 87q50 75 74 208q14 84 12 149q-1 68 -37.5 107.5
t-104.5 39.5q-107 0 -164 -87q-50 -78 -74 -209z" />
    <glyph glyph-name="one" unicode="1" horiz-adv-x="308" 
d="M322 671l-118 -671h-46l107 609l-123 -41l7 43z" />
    <glyph glyph-name="two" unicode="2" horiz-adv-x="514" 
d="M148 45h308l-7 -45h-389l2 16l339 334q73 70 85 138q11 62 -24.5 101t-99.5 39q-57 0 -104.5 -29.5t-67.5 -78.5l-40 11q26 65 86 103q61 39 134 39q84 0 130 -52q46 -50 31 -133q-15 -87 -102 -169z" />
    <glyph glyph-name="three" unicode="3" horiz-adv-x="540" 
d="M491 490q14 56 -16 94.5t-95 43.5q-44 4 -88.5 -16.5t-71.5 -54.5l-33 22q36 46 90.5 72t113.5 22q88 -6 126.5 -58.5t17.5 -129.5q-11 -40 -42.5 -75t-73.5 -52q53 -14 78 -69q26 -56 9 -115q-23 -83 -101 -136q-80 -54 -168 -47q-62 4 -107 37.5t-59 85.5l44 18
q12 -41 48 -67t84 -29q71 -4 134 37q61 40 81 107q14 68 -24 111q-37 43 -101 43h-66l8 44h66q46 0 90 32t56 80z" />
    <glyph glyph-name="four" unicode="4" horiz-adv-x="573" 
d="M412 187l69 388l-335 -388h266zM561 187l-7 -43h-104l-24 -144h-45l24 144h-348l453 520h33l-86 -477h104z" />
    <glyph glyph-name="five" unicode="5" horiz-adv-x="553" 
d="M571 664l-9 -45h-276l-90 -251q96 41 160 41q86 0 140 -56q54 -55 38 -149q-17 -96 -90 -154q-74 -59 -179 -59q-64 0 -119 37q-55 38 -74 94l21 12q16 8 24 14q15 -47 59 -79q44 -31 97 -31q85 0 144 47t71 119q13 72 -31 116q-43 43 -108 43q-49 0 -91 -11
q-35 -9 -105 -40l-14 24l117 328h315z" />
    <glyph glyph-name="six" unicode="6" horiz-adv-x="553" 
d="M124 208q4 39 11 86q18 105 46 178q76 205 252 201q121 -1 153 -114l-44 -17q-24 84 -119 86q-94 1 -151 -73q-23 -30 -43 -78q-29 -72 -47 -174q27 53 81.5 81t114.5 26q86 -3 131 -67t26 -152q-19 -86 -91 -146q-70 -58 -157 -55q-84 3 -128.5 62t-34.5 156zM168 207
q-13 -72 24 -121q38 -49 105 -50q68 -2 123 43q56 45 71 114t-20 119q-35 51 -102 52q-70 2 -128 -43q-60 -46 -73 -114z" />
    <glyph glyph-name="seven" unicode="7" horiz-adv-x="504" 
d="M600 664l-483 -664h-52l451 619h-349l8 45h425z" />
    <glyph glyph-name="eight" unicode="8" horiz-adv-x="561" 
d="M360 403l10 1q52 3 92 35t47 77q8 48 -22 79q-28 33 -80 33q-51 0 -91 -33q-40 -31 -48 -79q-8 -47 18.5 -80t73.5 -33zM156 198q-12 -69 29 -116q42 -47 117 -47t134 47t71 116q12 66 -30 115t-115 49l-11 -1q-72 -5 -127 -51q-56 -47 -68 -112zM223 516q12 66 67 111
q55 46 126 46t111 -46q40 -45 28 -111q-14 -84 -101 -131q55 -24 82 -74.5t16 -112.5q-16 -87 -91 -148q-74 -60 -167 -60q-94 0 -147 60q-52 61 -36 148q11 62 55 113t108 75q-65 41 -51 130z" />
    <glyph glyph-name="nine" unicode="9" horiz-adv-x="554" 
d="M556 455q-14 -137 -51 -247q-22 -67 -54 -112q-32 -48 -86 -77.5t-118 -28.5q-126 2 -155 113l43 18q26 -85 122 -86q92 -1 149 72q24 30 44 77q28 68 46 173q-25 -50 -83 -79q-55 -27 -112 -25q-86 3 -131 66q-44 65 -26 153q19 86 91 146q71 58 159 55q84 -2 128 -61.5
t34 -156.5zM512 456q14 72 -24 120q-38 50 -104 51q-69 2 -125 -43q-56 -46 -71 -115q-15 -70 20 -120q34 -49 103 -51q68 -2 126 43q59 45 75 115z" />
    <glyph glyph-name="colon" unicode=":" horiz-adv-x="233" 
d="M155 438q3 17 17 28t31 11q18 0 28 -11t7 -28q-4 -29 -36 -36q-31 -6 -44 13q-5 11 -3 23zM82 28q3 17 17 28t31 11q18 0 28 -11t7 -28q-4 -29 -37 -36q-32 -6 -44 14q-5 9 -2 22z" />
    <glyph glyph-name="semicolon" unicode=";" horiz-adv-x="267" 
d="M64 -137l-30 11q77 89 95 199h49q-26 -125 -114 -210zM177 438q3 17 16.5 28t30.5 11q18 0 28.5 -11t7.5 -28q-4 -29 -36 -36q-31 -6 -44 13q-5 11 -3 23z" />
    <glyph glyph-name="less" unicode="&#x3c;" horiz-adv-x="634" 
d="M645 481l-9 -49l-486 -172l425 -172l-9 -48l-475 195l10 51z" />
    <glyph glyph-name="equal" unicode="=" horiz-adv-x="609" 
d="M550 121h-451l9 44h451zM588 331h-451l8 44h451z" />
    <glyph glyph-name="greater" unicode="&#x3e;" horiz-adv-x="634" 
d="M80 40l8 48l487 172l-426 172l9 49l475 -195l-10 -51z" />
    <glyph glyph-name="question" unicode="?" horiz-adv-x="479" 
d="M185 518l-45 2q18 80 80 128q63 48 140 48q81 0 131 -53t35 -135q-12 -67 -61 -116q-48 -49 -110 -66q-57 -16 -83 -37.5t-34 -68.5l-9 -52h-45l9 52q12 67 49 98t107 51q50 15 86 52t45 87q12 63 -27 103q-37 40 -100 40q-60 0 -107 -37t-61 -96zM188 70q18 0 28.5 -11
t7.5 -27t-17.5 -27.5t-31.5 -11.5t-27 11.5t-7 27.5t16.5 27t30.5 11z" />
    <glyph glyph-name="at" unicode="@" horiz-adv-x="998" 
d="M526 -152l-8 -43h-28q-186 0 -289 129q-104 130 -71 315q33 187 184 317q152 131 336 131q121 2 217.5 -54t143 -156.5t23.5 -218.5q-19 -102 -72 -186q-28 -45 -70.5 -71.5t-90.5 -26.5q-61 0 -91.5 32.5t-19.5 100.5l25 138q12 64 -26 109q-37 45 -101 45t-117 -45
t-63 -109q-11 -65 25 -109q38 -45 101 -45q56 0 102 35l-9 -48q-53 -30 -101 -30q-81 0 -129 58q-46 58 -33 139t82 139q68 58 151 58q80 0 128 -57q48 -55 34 -136l-26 -144q-15 -88 76 -88q50 0 91 41q69 70 92 200q29 165 -75 275q-103 111 -274 111q-167 0 -304 -119
q-136 -118 -166 -286q-23 -113 18 -208.5t130.5 -147.5t204.5 -45z" />
    <glyph glyph-name="A" unicode="A" horiz-adv-x="626" 
d="M201 229h305l-82 397zM553 0l-40 187h-336l-104 -187h-48l385 689h48l143 -689h-48z" />
    <glyph glyph-name="B" unicode="B" horiz-adv-x="618" 
d="M616 523q-10 -55 -39 -96t-74 -59q50 -15 75 -70q26 -56 16 -110q-13 -77 -75 -133q-59 -55 -145 -55h-271l121 689h243q82 0 122 -44t27 -122zM423 344h-214l-53 -299h224q64 0 111 42q47 41 58 101q10 58 -25 107q-34 49 -101 49zM457 644h-195l-45 -257h221
q52 0 88 41q36 40 45 95q10 57 -20.5 89t-93.5 32z" />
    <glyph glyph-name="C" unicode="C" horiz-adv-x="660" 
d="M641 115l25 -32q-114 -93 -249 -93q-143 0 -222 103q-78 103 -52 250q25 147 141 251q115 103 258 103q134 0 217 -93l-36 -32q-74 80 -189 80q-124 0 -224 -90q-100 -91 -122 -219q-23 -128 45 -218q67 -90 192 -90q115 0 216 80z" />
    <glyph glyph-name="D" unicode="D" horiz-adv-x="722" 
d="M472 644h-211l-106 -599h211q121 0 204 83t107 215q24 133 -30 217q-53 84 -175 84zM359 0h-256l121 689h256q142 0 205 -97q64 -97 37 -249q-27 -151 -124 -247t-239 -96z" />
    <glyph glyph-name="E" unicode="E" horiz-adv-x="551" 
d="M497 0h-394l121 689h382l-8 -45h-337l-50 -283h295l-8 -45h-295l-48 -271h349z" />
    <glyph glyph-name="F" unicode="F" horiz-adv-x="514" 
d="M148 0h-45l121 689h377l-8 -45h-332l-50 -283h263l-8 -46h-263z" />
    <glyph glyph-name="G" unicode="G" horiz-adv-x="758" 
d="M747 283h-211l7 43h261q-32 -165 -130.5 -251t-248.5 -86q-146 0 -228 103q-80 103 -55 251q25 147 144 251q118 103 264 103q118 0 198 -72l-37 -34q-65 61 -169 61q-126 0 -230 -90q-103 -91 -125 -219q-23 -129 48 -219q71 -89 198 -89q117 0 199.5 64.5t114.5 183.5z
" />
    <glyph glyph-name="H" unicode="H" horiz-adv-x="710" 
d="M626 364l57 325h45l-121 -689h-45l56 321h-414l-56 -321h-45l121 689h45l-57 -325h414z" />
    <glyph glyph-name="I" unicode="I" horiz-adv-x="251" 
d="M103 0l121 689h45l-121 -689h-45z" />
    <glyph glyph-name="J" unicode="J" horiz-adv-x="252" 
d="M-143 -227l7 22l6 22q21 -4 46 -4q76 0 122 45.5t61 123.5l125 707h46l-125 -707q-18 -100 -78 -157.5t-159 -57.5q-20 0 -51 6z" />
    <glyph glyph-name="K" unicode="K" horiz-adv-x="534" 
d="M472 0l-269 316l-55 -316h-45l121 689h45l-61 -347l342 347h55l-353 -357l282 -332h-62z" />
    <glyph glyph-name="L" unicode="L" horiz-adv-x="479" 
d="M450 0h-347l121 689h45l-114 -644h302z" />
    <glyph glyph-name="M" unicode="M" horiz-adv-x="950" 
d="M270 689h47l178 -572l381 572h45l-34 -689h-45l31 612l-363 -543h-47l-171 544l-185 -613h-44z" />
    <glyph glyph-name="N" unicode="N" horiz-adv-x="684" 
d="M548 73l109 616h45l-121 -689h-49l-276 616l-108 -616h-45l121 689h51z" />
    <glyph glyph-name="O" unicode="O" horiz-adv-x="805" 
d="M187 343q-23 -128 48 -218q72 -90 198 -90q127 0 230 90q105 91 127 218q23 130 -49 219q-72 90 -199 90q-126 0 -229 -90t-126 -219zM142 343q25 147 144 251q118 103 264 103q145 0 228 -104q82 -103 57 -250q-25 -145 -145 -250q-118 -103 -265 -103q-145 0 -227 103
q-82 102 -56 250z" />
    <glyph glyph-name="P" unicode="P" horiz-adv-x="598" 
d="M484 644h-222l-57 -321h217q73 0 119 44.5t59 115.5q12 68 -16 114q-27 47 -100 47zM417 278h-219l-49 -278h-46l121 689h268q96 0 132 -60q36 -59 21 -146q-15 -88 -73 -146q-57 -59 -155 -59z" />
    <glyph glyph-name="Q" unicode="Q" horiz-adv-x="805" 
d="M142 343q25 147 144 251q118 103 264 103t228 -103t57 -251q-18 -99 -81 -181q-62 -81 -151 -128l57 -125l-42 -24l-61 129q-66 -24 -132 -24q-145 0 -227 103q-82 102 -56 250zM541 53l-61 130l43 24l61 -135q79 40 134.5 112.5t71.5 158.5q23 130 -49 219
q-72 90 -199 90q-126 0 -229 -90t-126 -219q-23 -128 48 -218q72 -90 198 -90q55 0 108 18z" />
    <glyph glyph-name="R" unicode="R" horiz-adv-x="604" 
d="M483 0l-148 278h-137l-49 -278h-46l121 689h254q96 0 132 -60q36 -59 21 -146q-15 -88 -73 -146q-57 -59 -155 -59h-13l148 -278h-55zM470 644h-208l-57 -321h203q73 0 119 44.5t59 115.5q12 68 -16 114q-27 47 -100 47z" />
    <glyph glyph-name="S" unicode="S" horiz-adv-x="562" 
d="M96 179h45q-5 -57 36 -101q40 -43 112 -43q76 0 133 36.5t77 89.5q39 126 -116 164l-94 23q-152 35 -128 167q15 78 88 130t156 52q90 0 139 -49q51 -49 39 -131h-45q8 60 -31.5 97.5t-109.5 37.5q-66 0 -123 -39q-56 -39 -67 -98q-16 -95 101 -124l92 -22
q92 -22 131 -76t10 -140q-25 -65 -95 -115q-68 -48 -165 -48q-93 0 -142 57q-50 58 -43 132z" />
    <glyph glyph-name="T" unicode="T" horiz-adv-x="556" 
d="M368 644h-228l8 45h502l-8 -45h-229l-113 -644h-45z" />
    <glyph glyph-name="U" unicode="U" horiz-adv-x="673" 
d="M672 689h46l-82 -460q-20 -107 -101 -174q-81 -66 -182 -66t-159 67t-39 173l82 460h44l-81 -460q-15 -85 32 -140q46 -54 129 -54q82 0 148 54q67 53 82 140z" />
    <glyph glyph-name="V" unicode="V" horiz-adv-x="543" 
d="M626 689l-327 -689h-54l-86 689h47l76 -625l297 625h47z" />
    <glyph glyph-name="W" unicode="W" horiz-adv-x="918" 
d="M584 587l59 -520l319 622h48l-355 -689h-48l-59 507l-238 -507h-47l-113 689h47l99 -622l244 520h44z" />
    <glyph glyph-name="X" unicode="X" horiz-adv-x="576" 
d="M360 410l234 279h55l-268 -317l181 -372h-55l-160 335l-278 -335h-55l312 372l-158 317h55z" />
    <glyph glyph-name="Y" unicode="Y" horiz-adv-x="602" 
d="M651 689h54l-324 -363l-57 -326h-46l57 326l-194 363h54l172 -316z" />
    <glyph glyph-name="Z" unicode="Z" horiz-adv-x="538" 
d="M610 650l-504 -604h396l-7 -46h-455l5 37l505 606h-391l8 46h449z" />
    <glyph glyph-name="bracketleft" unicode="[" horiz-adv-x="283" 
d="M197 -226h-146l163 915h146l-8 -46h-100l-146 -823h100z" />
    <glyph glyph-name="backslash" unicode="\" horiz-adv-x="457" 
d="M371 0l-214 689h50l214 -689h-50z" />
    <glyph glyph-name="bracketright" unicode="]" horiz-adv-x="283" 
d="M157 643l8 46h146l-163 -915h-144l7 46h100l146 823h-100z" />
    <glyph glyph-name="underscore" unicode="_" horiz-adv-x="679" 
d="M588 -85h-531l8 44h531z" />
    <glyph glyph-name="grave" unicode="`" horiz-adv-x="437" 
d="M355 545h-45l-62 130h55z" />
    <glyph glyph-name="a" unicode="a" 
d="M555 0h-46l17 101q-37 -51 -96 -81t-122 -30q-101 0 -159 70q-59 70 -39 174q20 105 101 173q82 70 183 70q63 0 111.5 -29.5t67.5 -80.5l17 100h46zM316 36q82 0 149 54q68 56 84 139q15 88 -33 145t-130 57t-149 -57q-66 -55 -81 -140q-15 -83 32 -141q47 -57 128 -57z
" />
    <glyph glyph-name="b" unicode="b" 
d="M403 431q-83 0 -151 -57q-67 -57 -82 -145q-13 -84 33 -139q48 -54 130 -54q80 0 148 57q67 57 82 141t-32 140q-46 57 -128 57zM147 101l-17 -101h-46l129 733h46l-64 -366q36 51 95 80.5t122 29.5q101 0 158 -70q59 -69 39 -173q-20 -105 -101 -174q-82 -70 -183 -70
q-62 0 -110.5 30t-67.5 81z" />
    <glyph glyph-name="c" unicode="c" horiz-adv-x="499" 
d="M456 80l24 -34q-79 -56 -170 -56q-102 0 -161 68t-39 177q20 108 101 175q82 67 185 67q91 0 149 -55l-34 -34q-52 44 -123 44q-84 0 -151 -55q-67 -54 -82 -142q-15 -89 32 -145q48 -55 131 -55q74 0 138 45z" />
    <glyph glyph-name="d" unicode="d" 
d="M555 0h-46l17 101q-37 -51 -96 -81t-122 -30q-101 0 -159 70q-59 70 -39 174q20 105 101 173q82 70 183 70q63 0 111.5 -29.5t67.5 -80.5l65 366h46zM316 36q82 0 149 54q68 56 84 139q15 88 -33 145t-130 57t-149 -57q-66 -55 -81 -140q-15 -83 32 -141q47 -57 128 -57z
" />
    <glyph glyph-name="e" unicode="e" horiz-adv-x="560" 
d="M161 256h372q7 81 -34.5 128.5t-117.5 47.5q-77 0 -138 -48q-61 -47 -82 -128zM575 235q0 -2 -4 -21h-417q-8 -80 36 -129.5t121 -49.5q107 0 178 89l42 -15q-40 -56 -100.5 -87.5t-127.5 -31.5q-100 0 -156 68q-55 68 -36 177q20 108 98 175q79 67 180 67t153 -67
q52 -66 33 -175z" />
    <glyph glyph-name="f" unicode="f" horiz-adv-x="314" 
d="M122 0l75 426h-94l7 41h94l12 68q36 198 195 198h41l-9 -44h-41q-113 0 -141 -154l-12 -68h125l-7 -41h-125l-75 -426h-45z" />
    <glyph glyph-name="g" unicode="g" 
d="M297 36q82 0 149 55q69 55 84 142q17 86 -32 142q-48 56 -131 56q-81 0 -148 -57t-82 -141q-15 -85 31 -141q47 -56 129 -56zM67 -127l42 25q40 -85 142 -85t164 60t86 196l6 34q-36 -51 -95.5 -82t-122.5 -31q-101 0 -159 69q-58 71 -39 174q20 105 101 174
q82 70 184 70q62 0 110.5 -30t67.5 -81l18 101h46l-71 -397q-28 -164 -107 -234q-76 -69 -197 -69q-59 0 -105.5 27t-70.5 79z" />
    <glyph glyph-name="h" unicode="h" horiz-adv-x="559" 
d="M130 0h-46l129 733h46l-64 -358q28 50 78 76t106 26q85 0 126.5 -55.5t24.5 -147.5l-49 -274h-45l48 274q13 72 -18.5 115t-95.5 43q-72 0 -125 -43t-70 -127z" />
    <glyph glyph-name="i" unicode="i" horiz-adv-x="213" 
d="M211 467l-82 -467h-45l82 467h45zM185 613q-9 11 -6 27t16 26q13 11 30 11t26 -11q10 -10 7 -26t-16 -27q-13 -10 -30 -10t-27 10z" />
    <glyph glyph-name="j" unicode="j" horiz-adv-x="213" 
d="M166 467h45l-88 -496q-35 -197 -193 -197h-41l9 44h41q60 0 92.5 39.5t46.5 113.5zM214 603q-30 -2 -33 25q-4 26 18 42q13 8 27 7q29 2 32 -25t-20 -43q-11 -7 -24 -6z" />
    <glyph glyph-name="k" unicode="k" horiz-adv-x="454" 
d="M466 467l-237 -203l219 -264h-63l-212 254l-44 -254h-45l129 733h45l-81 -459l224 193h65z" />
    <glyph glyph-name="l" unicode="l" horiz-adv-x="213" 
d="M258 733l-129 -733h-45l129 733h45z" />
    <glyph glyph-name="m" unicode="m" horiz-adv-x="911" 
d="M526 262l-45 -262h-45l48 274q13 72 -18.5 115t-95.5 43q-72 0 -125 -43t-70 -127l-45 -262h-46l82 467h46l-17 -92q26 49 78 75.5t106 26.5q63 0 102.5 -31.5t47.5 -89.5q22 46 60.5 74.5t72.5 37.5t69 9q85 0 126.5 -55.5t24.5 -147.5l-49 -274h-45l48 274
q13 72 -18.5 115t-95.5 43q-72 0 -125.5 -43t-70.5 -127z" />
    <glyph glyph-name="n" unicode="n" horiz-adv-x="559" 
d="M130 0h-46l82 467h46l-17 -92q28 50 78 76t106 26q85 0 126.5 -55.5t24.5 -147.5l-49 -274h-45l48 274q13 72 -18.5 115t-95.5 43q-72 0 -125 -43t-70 -127z" />
    <glyph glyph-name="o" unicode="o" horiz-adv-x="590" 
d="M155 235q-15 -89 32 -145q48 -55 132 -55t151 55q68 56 83 145t-33 143q-47 54 -131 54q-85 0 -152 -55q-67 -54 -82 -142zM110 235q20 108 101 175q82 67 186 67q103 0 161 -67q59 -68 40 -175q-20 -109 -102 -177q-83 -68 -185 -68q-103 0 -162 68t-39 177z" />
    <glyph glyph-name="p" unicode="p" 
d="M166 467h46l-18 -101q37 51 96 81t122 30q101 0 158 -70q58 -70 39 -175q-20 -105 -101 -173q-82 -69 -183 -69q-63 0 -111 29t-67 80l-59 -325h-46zM404 431q-83 0 -150 -55q-66 -53 -83 -139q-15 -86 32 -144q48 -57 130 -57q81 0 148 56q67 55 82 140q15 83 -32 141
q-46 58 -127 58z" />
    <glyph glyph-name="q" unicode="q" 
d="M316 36q82 0 150 57t83 144q13 84 -34 139q-46 55 -129 55q-81 0 -148 -58q-67 -57 -82 -141q-15 -85 31 -140q47 -56 129 -56zM572 366l18 101h46l-123 -693h-46l59 325q-38 -51 -96.5 -80t-121.5 -29q-100 0 -159 69t-39 173q20 105 101 175q82 70 183 70
q62 0 110.5 -30t67.5 -81z" />
    <glyph glyph-name="r" unicode="r" horiz-adv-x="369" 
d="M161 180l-31 -180h-46l82 467h46l-22 -121q60 131 177 131q41 0 66 -13l-15 -44q-25 11 -60 11q-85 0 -136 -85q-42 -69 -61 -166z" />
    <glyph glyph-name="s" unicode="s" horiz-adv-x="422" 
d="M299 477q59 0 93 -31t30 -86h-45q1 33 -22.5 53t-62.5 20q-40 0 -73 -19t-43 -49q-24 -73 65 -96l63 -16q109 -28 92 -129q-10 -60 -62 -97t-125 -37q-62 0 -103 34q-41 35 -38 95h42q13 -85 110 -85q53 0 88.5 24.5t43.5 65.5q12 66 -66 85l-64 16q-54 14 -81 44
q-29 31 -9 102q15 47 62 76.5t105 29.5z" />
    <glyph glyph-name="t" unicode="t" horiz-adv-x="293" 
d="M239 467h109l-7 -41h-109l-75 -426h-45l75 426h-85l7 41h85l34 188h45z" />
    <glyph glyph-name="u" unicode="u" horiz-adv-x="560" 
d="M528 467h46l-82 -467h-46l16 92q-28 -50 -78 -76t-106 -26q-84 0 -125 55t-25 148l48 274h46l-48 -274q-13 -72 18.5 -115t94.5 -43q72 0 125 43t70 127z" />
    <glyph glyph-name="v" unicode="v" horiz-adv-x="501" 
d="M159 467l99 -416l249 416h49l-279 -467h-53l-114 467h49z" />
    <glyph glyph-name="w" unicode="w" horiz-adv-x="817" 
d="M599 70l220 397h48l-257 -467h-42l-88 417l-229 -417h-42l-98 467h49l80 -398l220 398h59z" />
    <glyph glyph-name="x" unicode="x" horiz-adv-x="462" 
d="M283 297l152 170h57l-189 -209l142 -258h-56l-120 219l-197 -219h-55l230 258l-113 209h57z" />
    <glyph glyph-name="y" unicode="y" horiz-adv-x="500" 
d="M507 467h49l-421 -693h-45l134 224l-114 469h48l101 -412z" />
    <glyph glyph-name="z" unicode="z" horiz-adv-x="479" 
d="M114 45h326l-7 -45h-391l5 36l393 386h-317l8 45h384l-7 -37z" />
    <glyph glyph-name="braceleft" unicode="{" horiz-adv-x="373" 
d="M299 -183l-9 -43h-35q-79 0 -125 52q-45 51 -30 135l31 173q5 30 -9.5 53.5t-41.5 27.5l6 39q29 4 52.5 27t28.5 53l32 176q13 82 78 135q64 52 143 52h35l-8 -43h-35q-60 0 -110 -41q-49 -40 -58 -103l-32 -176q-5 -30 -26 -58.5t-49 -42.5q22 -13 33 -41.5t6 -57.5
l-30 -173q-11 -65 23 -104q34 -40 95 -40h35z" />
    <glyph glyph-name="bar" unicode="|" horiz-adv-x="224" 
d="M70 -126l163 920h38l-163 -920h-38z" />
    <glyph glyph-name="braceright" unicode="}" horiz-adv-x="372" 
d="M34 -226h-33l7 43h35q62 0 109 40q49 41 59 104l31 173q5 30 26 58t48 41q-23 14 -33.5 42.5t-5.5 58.5l32 176q12 67 -24.5 105.5t-103.5 38.5h-24l7 43h35q73 0 120 -47q46 -46 37 -122l-6 -39l-28 -155q-5 -28 10.5 -51.5t41.5 -28.5l-7 -39q-28 -4 -51.5 -28
t-28.5 -53l-31 -173q-15 -83 -79 -135t-143 -52z" />
    <glyph glyph-name="exclamdown" unicode="&#xa1;" horiz-adv-x="220" 
d="M91 -226h-45l95 521h40zM145 431q4 17 17.5 28t29.5 11q29 0 35 -24t-17 -42q-21 -17 -46.5 -7.5t-18.5 34.5z" />
    <glyph glyph-name="cent" unicode="&#xa2;" horiz-adv-x="520" 
d="M318 -10l-19 -110h-38l20 112q-89 10 -139 77q-48 66 -30 166q18 99 89 164q72 66 164 76l20 104h38l-19 -102q87 -3 143 -55l-34 -34q-52 44 -123 44q-84 0 -151 -55q-67 -54 -82 -142q-15 -89 32 -145q48 -55 131 -55q74 0 138 45l24 -34q-74 -53 -164 -56z" />
    <glyph glyph-name="sterling" unicode="&#xa3;" horiz-adv-x="635" 
d="M55 45h101l44 247h-83l7 40h83l33 183q15 82 83 135q70 53 149 53q77 0 122 -49t35 -128h-45q7 59 -27 95t-93 36q-63 0 -115 -40q-54 -40 -64 -102l-32 -183h138l-7 -40h-139l-44 -247h307q14 0 25 10.5t14 26.5l10 50h45l-9 -50q-6 -34 -33 -58t-59 -24h-453z" />
    <glyph glyph-name="currency" unicode="&#xa4;" horiz-adv-x="600" 
d="M235 464l-63 76l34 28l63 -77q55 40 122 40q66 0 110 -41l92 78l22 -28l-90 -78q32 -53 20 -116q-12 -64 -60 -117l63 -77l-33 -28l-64 77q-58 -42 -125 -42q-70 0 -111 41l-88 -75l-23 29l89 74q-35 50 -21 118q13 68 63 118zM220 346q-11 -60 22 -100q34 -40 93 -40
q60 0 107 40t58 100q11 59 -23 99q-33 41 -92 41q-58 0 -107 -41q-47 -40 -58 -99z" />
    <glyph glyph-name="yen" unicode="&#xa5;" horiz-adv-x="632" 
d="M665 689h54l-324 -363l-6 -34h163l-6 -37h-163l-17 -95h163l-7 -37h-163l-21 -123h-46l21 123h-164l7 37h164l17 95h-164l6 37h164l6 34l-194 363h54l172 -316z" />
    <glyph glyph-name="brokenbar" unicode="&#xa6;" horiz-adv-x="228" 
d="M72 -126l64 365h38l-64 -365h-38zM273 794l-66 -366h-38l66 366h38z" />
    <glyph glyph-name="section" unicode="&#xa7;" horiz-adv-x="503" 
d="M227 325l8 49q39 13 78 13q80 0 125 -52q46 -51 31 -135l-24 -137q-15 -84 -79 -136t-144 -52q-58 0 -100.5 29t-53.5 79l45 15q10 -36 41.5 -57t74.5 -21q62 0 111 40q50 39 60 103l24 137q11 63 -22.5 102.5t-96.5 39.5q-44 0 -78 -17zM376 248l-8 -49q-40 -14 -78 -14
q-80 0 -126 51q-45 52 -30 136l25 137q15 84 79 136t144 52q58 0 99.5 -29t53.5 -79l-44 -15q-10 36 -42.5 57t-75.5 21q-61 0 -110 -40t-59 -103l-25 -137q-12 -63 22 -102.5t97 -39.5q46 0 78 18z" />
    <glyph glyph-name="dieresis" unicode="&#xa8;" horiz-adv-x="482" 
d="M234 629q3 16 16 26.5t29 10.5q17 0 27 -10.5t7 -26.5t-16.5 -26t-30.5 -10q-16 0 -25.5 10.5t-6.5 25.5zM397 629q3 16 16 26.5t29 10.5q17 0 27 -10.5t7 -26.5t-16.5 -26t-30.5 -10q-16 0 -25.5 10.5t-6.5 25.5z" />
    <glyph glyph-name="copyright" unicode="&#xa9;" horiz-adv-x="819" 
d="M587 229q-59 -49 -123 -49q-66 0 -104 48q-38 49 -26 114q14 69 67 116q55 48 122 48q60 0 106 -49l-33 -30q-36 39 -81 39q-50 0 -92 -36q-41 -37 -50 -88q-9 -49 20 -87q29 -36 79 -36q44 0 93 39zM845 343q-25 -146 -147 -250q-119 -103 -266 -103t-229 103t-57 250
q25 145 145 250q121 104 266 104q146 0 230 -104q84 -103 58 -250zM439 31q129 0 235 91q108 92 130 221q23 129 -51 221t-203 92q-127 0 -234 -92t-129 -221q-23 -131 50 -221q73 -91 202 -91z" />
    <glyph glyph-name="ordfeminine" unicode="&#xaa;" horiz-adv-x="482" 
d="M458 358h-38l9 55q-24 -28 -60 -44.5t-73 -16.5q-66 0 -104 45q-37 46 -25 115q12 68 66 113q53 46 121 46q82 0 111 -60l10 53h38zM206 512q-9 -51 19.5 -86.5t78.5 -35.5q51 0 92 33.5t51 84.5q9 54 -20 89.5t-80 35.5q-50 0 -91 -35t-50 -86zM440 263h-305l6 34h305z
" />
    <glyph glyph-name="guillemotleft" unicode="&#xab;" horiz-adv-x="426" 
d="M143 232l103 -207h-51l-102 207l175 207h50zM272 232l102 -207h-50l-102 207l175 207h50z" />
    <glyph glyph-name="logicalnot" unicode="&#xac;" horiz-adv-x="651" 
d="M148 340h484l-38 -210h-44l30 167h-440q2 15 8 43z" />
    <glyph glyph-name="registered" unicode="&#xae;" horiz-adv-x="819" 
d="M427 303l-22 -121h-40l58 318h120q44 0 63 -27.5t10 -71.5q-7 -41 -32.5 -67t-66.5 -30l65 -122h-47l-64 121h-44zM455 461l-20 -120h78q53 0 65 60q4 26 -6.5 43t-36.5 17h-80zM845 343q-25 -146 -147 -250q-119 -103 -266 -103t-229 103t-57 250q25 145 145 250
q121 104 266 104q146 0 230 -104q84 -103 58 -250zM439 31q129 0 235 91q108 92 130 221q23 129 -51 221t-203 92q-127 0 -234 -92t-129 -221q-23 -131 50 -221q73 -91 202 -91z" />
    <glyph glyph-name="overscore" unicode="&#xaf;" horiz-adv-x="472" 
d="M458 604h-232l7 42h232z" />
    <glyph glyph-name="degree" unicode="&#xb0;" horiz-adv-x="359" 
d="M192 496q-28 33 -20 84q7 47 49 83q40 34 90 34q49 0 76 -34q28 -33 20 -83q-7 -49 -49 -84q-40 -34 -89 -34t-77 34zM211 580q-6 -33 13.5 -56t51.5 -23t59.5 23t33.5 56q6 32 -13.5 55t-51.5 23t-59.5 -23t-33.5 -55z" />
    <glyph glyph-name="plusminus" unicode="&#xb1;" horiz-adv-x="549" 
d="M84 44h395l-7 -44h-395zM122 257l7 43h175l29 162h44l-29 -162h176l-7 -43h-176l-30 -163h-44l30 163h-175z" />
    <glyph glyph-name="twosuperior" unicode="&#xb2;" horiz-adv-x="318" 
d="M348 658l-150 -147h168l-7 -40h-237l3 17l199 196q42 42 46 75q5 33 -14 53.5t-53 20.5q-31 0 -58 -17.5t-37 -46.5l-35 9q16 43 53 68.5t83 25.5q52 0 80.5 -31.5t19.5 -81.5q-9 -52 -61 -101z" />
    <glyph glyph-name="threesuperior" unicode="&#xb3;" horiz-adv-x="326" 
d="M361 760q8 29 -6.5 49.5t-47.5 23.5q-23 2 -47 -9t-39 -30l-28 22q22 28 55 43.5t68 13.5q50 -4 74 -35.5t14 -76.5q-5 -23 -23 -44t-43 -33q30 -9 44 -41.5t5 -66.5q-13 -49 -60 -82q-48 -32 -100 -28q-77 6 -100 74l36 19q14 -49 75 -53q37 -3 68.5 19t40.5 57
q7 35 -13 58.5t-56 23.5h-41l6 38h41q26 0 48 16.5t29 41.5z" />
    <glyph glyph-name="acute" unicode="&#xb4;" horiz-adv-x="437" 
d="M224 545l99 130h56l-111 -130h-44z" />
    <glyph glyph-name="mu" unicode="&#xb5;" horiz-adv-x="560" 
d="M110 -149h-46l109 616h46l-48 -274q-13 -72 18.5 -115t94.5 -43q73 0 126 43.5t68 126.5l48 262h45l-82 -467h-46l16 92q-28 -50 -77.5 -76t-105.5 -26q-97 0 -130 68z" />
    <glyph glyph-name="paragraph" unicode="&#xb6;" horiz-adv-x="601" 
d="M385 689h57l-134 -756h-45l60 333q-92 0 -148 62q-55 62 -39 150q17 88 88 149q74 62 161 62zM243 -186l7 42h46q29 0 55 21.5t31 49.5l135 762h57q52 0 82 -37t21 -89l-12 -70h-45l12 70q6 37 -16 59t-62 22l-125 -710q-7 -49 -50 -84q-41 -36 -90 -36h-46z" />
    <glyph glyph-name="middot" unicode="&#xb7;" horiz-adv-x="233" 
d="M121 246q3 17 17 28t31 11q18 0 28 -11t7 -28q-4 -29 -37 -36q-32 -6 -44 14q-5 10 -2 22z" />
    <glyph glyph-name="cedilla" unicode="&#xb8;" horiz-adv-x="506" 
d="M142 -97h40q-3 -15 1 -29q5 -20 24 -28t41 0q38 15 42 48q2 13 -1 24l-21 96h42l18 -80q10 -38 -11 -74t-61 -51q-39 -15 -71.5 0t-42.5 52q-3 24 0 42z" />
    <glyph glyph-name="onesuperior" unicode="&#xb9;" horiz-adv-x="195" 
d="M175 829l114 39l-70 -397h-40l61 343l-72 -24z" />
    <glyph glyph-name="ordmasculine" unicode="&#xba;" horiz-adv-x="477" 
d="M296 352q-66 0 -104 45q-37 46 -25 115q12 68 66 113q53 46 121 46t105 -46q38 -46 26 -113q-12 -68 -67 -114t-122 -46zM206 512q-9 -51 19.5 -86.5t78.5 -35.5t91 35q42 36 51 87t-19.5 86t-79.5 35q-50 0 -91 -35t-50 -86zM440 263h-305l6 34h305z" />
    <glyph glyph-name="guillemotright" unicode="&#xbb;" horiz-adv-x="426" 
d="M413 232l-174 -207h-51l175 207l-100 207h50zM284 232l-174 -207h-50l174 207l-100 207h50z" />
    <glyph glyph-name="onequarter" unicode="&#xbc;" horiz-adv-x="749" 
d="M84 -10l570 683h48l-570 -683h-48zM667 121h59l-7 -37h-59l-13 -84h-40l13 84h-207l274 312h30zM490 121h137l36 200zM160 626l113 39l-71 -397h-40l61 343l-71 -24z" />
    <glyph glyph-name="onehalf" unicode="&#xbd;" horiz-adv-x="774" 
d="M706 186l-150 -146h168l-6 -40h-237l1 16l200 197q38 38 46 74q6 33 -13 53.5t-55 20.5q-32 0 -58 -17t-36 -46l-35 9q15 42 53 68t84 26q52 0 80.5 -32t19.5 -82q-7 -48 -62 -101zM79 -10l570 683h48l-570 -683h-48zM161 626l113 39l-71 -397h-40l61 343l-71 -24z" />
    <glyph glyph-name="threequarters" unicode="&#xbe;" horiz-adv-x="846" 
d="M181 -10l570 683h48l-570 -683h-48zM764 121h59l-7 -37h-59l-13 -84h-40l13 84h-207l274 312h30zM587 121h137l36 200zM343 557q7 31 -7.5 50.5t-47.5 22.5q-23 2 -47 -9t-39 -30l-27 22q21 27 54.5 43t68.5 14q50 -4 74 -35t14 -76q-5 -24 -23.5 -45t-43.5 -32
q30 -10 44 -41.5t5 -67.5q-14 -51 -60 -82q-48 -32 -100 -28q-76 6 -99 74l36 20q13 -49 74 -54q38 -3 69.5 19t40.5 57q7 35 -14 58.5t-57 23.5h-41l8 38h41q25 0 47 16.5t30 41.5z" />
    <glyph glyph-name="questiondown" unicode="&#xbf;" horiz-adv-x="465" 
d="M386 -51l44 -2q-18 -80 -81 -128q-61 -48 -139 -48q-81 0 -131 53q-49 52 -34 135q12 66 60 116q49 49 111 66q57 16 83 37.5t34 68.5l9 52h45l-9 -52q-12 -67 -49 -98q-38 -32 -106 -51q-50 -15 -86.5 -52t-45.5 -87q-12 -62 26 -103q39 -40 101 -40q60 0 107 37
q47 36 61 96zM383 397q-18 0 -28.5 11t-6.5 27q6 26 32.5 36t43.5 -9q17 -17 0.5 -41t-41.5 -24z" />
    <glyph glyph-name="Agrave" unicode="&#xc0;" horiz-adv-x="626" 
d="M424 626l-223 -397h305zM177 187l-104 -187h-48l385 689h48l143 -689h-48l-40 187h-336zM469 745h-45l-63 130h55z" />
    <glyph glyph-name="Aacute" unicode="&#xc1;" horiz-adv-x="626" 
d="M201 229h305l-82 397zM553 0l-40 187h-336l-104 -187h-48l385 689h48l143 -689h-48zM422 745l98 130h56l-110 -130h-44z" />
    <glyph glyph-name="Acircumflex" unicode="&#xc2;" horiz-adv-x="626" 
d="M201 229h305l-82 397zM553 0l-40 187h-336l-104 -187h-48l385 689h48l143 -689h-48zM354 745h-46l127 130h64l81 -130h-46l-72 99z" />
    <glyph glyph-name="Atilde" unicode="&#xc3;" horiz-adv-x="626" 
d="M201 229h305l-82 397zM553 0l-40 187h-336l-104 -187h-48l385 689h48l143 -689h-48zM409 816q-14 0 -27 -12.5t-17 -32.5h-39q9 39 33.5 62.5t50.5 23.5h9q19 0 45 -21q25 -21 40 -21q14 0 26.5 11t17.5 32h39q-9 -39 -33 -62t-50 -23q-21 0 -51 21q-29 22 -44 22z" />
    <glyph glyph-name="Adieresis" unicode="&#xc4;" horiz-adv-x="626" 
d="M424 626l-223 -397h305zM177 187l-104 -187h-48l385 689h48l143 -689h-48l-40 187h-336zM338 829q3 16 16.5 26.5t29.5 10.5q29 2 32 -25t-19 -42q-12 -7 -26 -6q-16 0 -26 10.5t-7 25.5zM501 829q3 16 16.5 26.5t29.5 10.5q29 2 32 -25t-19 -42q-12 -7 -26 -6
q-16 0 -26 10.5t-7 25.5z" />
    <glyph glyph-name="Aring" unicode="&#xc5;" horiz-adv-x="626" 
d="M424 626l-223 -397h305zM177 187l-104 -187h-48l385 689h48l143 -689h-48l-40 187h-336zM476 934q38 0 59.5 -26t14.5 -64q-7 -37 -37.5 -62.5t-68.5 -25.5q-36 0 -57 25.5t-14 62.5t37 63.5t66 26.5zM410 844q-4 -21 8 -35.5t34 -14.5t39.5 14.5t21.5 35.5q4 22 -8.5 37
t-34.5 15t-39 -15t-21 -37z" />
    <glyph glyph-name="AE" unicode="&#xc6;" horiz-adv-x="959" 
d="M69 0h-54l567 689h432l-8 -45h-337l-50 -283h295l-8 -46h-295l-48 -270h349l-7 -45h-394l33 189h-320zM259 233h292l73 411h-23z" />
    <glyph glyph-name="Ccedilla" unicode="&#xc7;" horiz-adv-x="660" 
d="M244 -97h40q-3 -15 1 -29q5 -20 23.5 -28t40.5 0q39 15 43 48q1 8 -2 24l-16 75q-125 15 -191 114q-66 100 -42 236q25 147 141 251q115 103 259 103q133 0 216 -93l-36 -32q-74 80 -189 80q-124 0 -224 -90q-100 -91 -122 -219q-23 -128 45 -218q67 -90 192 -90
q116 0 216 80l25 -32q-113 -92 -247 -93l13 -56q9 -38 -11.5 -74t-60.5 -51q-39 -15 -71.5 0t-42.5 52q-4 24 0 42z" />
    <glyph glyph-name="Egrave" unicode="&#xc8;" horiz-adv-x="551" 
d="M224 689h382l-8 -45h-337l-50 -283h295l-8 -45h-295l-48 -271h349l-7 -45h-394zM462 745h-45l-63 130h55z" />
    <glyph glyph-name="Eacute" unicode="&#xc9;" horiz-adv-x="551" 
d="M497 0h-394l121 689h382l-8 -45h-337l-50 -283h295l-8 -45h-295l-48 -271h349zM364 745l98 130h56l-110 -130h-44z" />
    <glyph glyph-name="Ecircumflex" unicode="&#xca;" horiz-adv-x="551" 
d="M497 0h-394l121 689h382l-8 -45h-337l-50 -283h295l-8 -45h-295l-48 -271h349zM321 745h-46l127 130h64l81 -130h-46l-72 99z" />
    <glyph glyph-name="Edieresis" unicode="&#xcb;" horiz-adv-x="551" 
d="M224 689h382l-8 -45h-337l-50 -283h295l-8 -45h-295l-48 -271h349l-7 -45h-394zM305 829q3 16 16.5 26.5t29.5 10.5q29 2 32 -25t-19 -42q-12 -7 -26 -6q-16 0 -26 10.5t-7 25.5zM468 829q3 16 16.5 26.5t29.5 10.5q29 2 32 -25t-19 -42q-12 -7 -26 -6q-16 0 -26 10.5
t-7 25.5z" />
    <glyph glyph-name="Igrave" unicode="&#xcc;" horiz-adv-x="251" 
d="M269 689l-121 -689h-45l121 689h45zM279 745h-45l-63 130h55z" />
    <glyph glyph-name="Iacute" unicode="&#xcd;" horiz-adv-x="251" 
d="M103 0l121 689h45l-121 -689h-45zM233 745l98 130h56l-110 -130h-44z" />
    <glyph glyph-name="Icircumflex" unicode="&#xce;" horiz-adv-x="251" 
d="M103 0l121 689h45l-121 -689h-45zM167 745h-46l127 130h64l81 -130h-46l-72 99z" />
    <glyph glyph-name="Idieresis" unicode="&#xcf;" horiz-adv-x="251" 
d="M269 689l-121 -689h-45l121 689h45zM151 829q3 16 16.5 26.5t29.5 10.5q29 2 32 -25t-19 -42q-12 -7 -26 -6q-16 0 -26 10.5t-7 25.5zM314 829q3 16 16.5 26.5t29.5 10.5q29 2 32 -25t-19 -42q-12 -7 -26 -6q-16 0 -26 10.5t-7 25.5z" />
    <glyph glyph-name="Eth" unicode="&#xd0;" horiz-adv-x="727" 
d="M475 644h-211l-50 -282h185l-6 -42h-185l-49 -275h211q122 0 205 83t107 215t-30 216q-54 85 -177 85zM363 0h-256l56 320h-98l6 42h98l59 327h256q141 0 206 -98q64 -97 37 -248q-27 -150 -125 -247q-98 -96 -239 -96z" />
    <glyph glyph-name="Ntilde" unicode="&#xd1;" horiz-adv-x="684" 
d="M548 73l109 616h45l-121 -689h-49l-276 616l-108 -616h-45l121 689h51zM438 816q-14 0 -27 -12.5t-17 -32.5h-39q9 39 33.5 62.5t50.5 23.5h9q20 0 46 -21t39 -21q14 0 26.5 11t17.5 32h39q-9 -39 -33 -62t-50 -23q-21 0 -51 21q-29 22 -44 22z" />
    <glyph glyph-name="Ograve" unicode="&#xd2;" horiz-adv-x="805" 
d="M187 343q-23 -128 48 -218q72 -90 198 -90q127 0 230 90q105 91 127 218q23 130 -49 219q-72 90 -199 90q-126 0 -229 -90t-126 -219zM142 343q25 147 144 251q118 103 264 103q145 0 228 -104q82 -103 57 -250q-25 -145 -145 -250q-118 -103 -265 -103q-145 0 -227 103
q-82 102 -56 250zM578 745h-45l-64 130h55z" />
    <glyph glyph-name="Oacute" unicode="&#xd3;" horiz-adv-x="805" 
d="M187 343q-23 -128 48 -218q72 -90 198 -90q127 0 230 90q105 91 127 218q23 130 -49 219q-72 90 -199 90q-126 0 -229 -90t-126 -219zM142 343q25 147 144 251q118 103 264 103q145 0 228 -104q82 -103 57 -250q-25 -145 -145 -250q-118 -103 -265 -103q-145 0 -227 103
q-82 102 -56 250zM539 745l97 130h56l-109 -130h-44z" />
    <glyph glyph-name="Ocircumflex" unicode="&#xd4;" horiz-adv-x="805" 
d="M187 343q-23 -128 48 -218q72 -90 198 -90q127 0 230 90q105 91 127 218q23 130 -49 219q-72 90 -199 90q-126 0 -229 -90t-126 -219zM142 343q25 147 144 251q118 103 264 103q145 0 228 -104q82 -103 57 -250q-25 -145 -145 -250q-118 -103 -265 -103q-145 0 -227 103
q-82 102 -56 250zM472 745h-46l126 130h64l82 -130h-46l-72 99z" />
    <glyph glyph-name="Otilde" unicode="&#xd5;" horiz-adv-x="805" 
d="M187 343q-23 -128 48 -218q72 -90 198 -90q127 0 230 90q105 91 127 218q23 130 -49 219q-72 90 -199 90q-126 0 -229 -90t-126 -219zM142 343q25 147 144 251q118 103 264 103q145 0 228 -104q82 -103 57 -250q-25 -145 -145 -250q-118 -103 -265 -103q-145 0 -227 103
q-82 102 -56 250zM526 816q-14 0 -26.5 -12t-17.5 -33h-39q9 39 34 62.5t51 23.5h9q19 0 45 -21t39 -21q14 0 27 11.5t18 31.5h39q-9 -39 -33.5 -62t-50.5 -23q-21 0 -51 21q-29 22 -44 22z" />
    <glyph glyph-name="Odieresis" unicode="&#xd6;" horiz-adv-x="805" 
d="M187 343q-23 -128 48 -218q72 -90 198 -90q127 0 230 90q105 91 127 218q23 130 -49 219q-72 90 -199 90q-126 0 -229 -90t-126 -219zM142 343q25 147 144 251q118 103 264 103q145 0 228 -104q82 -103 57 -250q-25 -145 -145 -250q-118 -103 -265 -103q-145 0 -227 103
q-82 102 -56 250zM456 829q3 16 16 26.5t29 10.5q30 2 33 -25q4 -27 -19 -42q-11 -7 -26 -6q-16 0 -26 10.5t-7 25.5zM619 829q3 16 16 26.5t29 10.5q30 2 33 -25q4 -27 -19 -42q-11 -7 -26 -6q-16 0 -26 10.5t-7 25.5z" />
    <glyph glyph-name="multiply" unicode="&#xd7;" horiz-adv-x="471" 
d="M126 112l-26 31l154 130l-108 129l37 30l105 -128l154 129l24 -31l-150 -129l106 -131l-36 -31l-109 130z" />
    <glyph glyph-name="Oslash" unicode="&#xd8;" horiz-adv-x="804" 
d="M407 35q127 0 230 90t126 218q21 116 -37 203l-505 -436q72 -75 186 -75zM160 343q-20 -118 38 -205l504 435q-69 79 -186 79q-127 0 -230 -90q-104 -90 -126 -219zM184 78l-103 -88l-23 27l103 89q-70 100 -46 237q25 145 145 250q119 104 264 104q135 0 217 -91l107 92
l23 -27l-109 -93q70 -100 46 -235q-25 -145 -145 -250q-118 -103 -265 -103q-135 0 -214 88z" />
    <glyph glyph-name="Ugrave" unicode="&#xd9;" horiz-adv-x="673" 
d="M672 689h46l-82 -460q-20 -107 -101 -174q-81 -66 -182 -66t-159 67t-39 173l82 460h44l-81 -460q-15 -85 32 -140q46 -54 129 -54q82 0 148 54q67 53 82 140zM519 745h-45l-63 130h55z" />
    <glyph glyph-name="Uacute" unicode="&#xda;" horiz-adv-x="673" 
d="M672 689h46l-82 -460q-20 -107 -101 -174q-81 -66 -182 -66t-159 67t-39 173l82 460h44l-81 -460q-15 -85 32 -140q46 -54 129 -54q82 0 148 54q67 53 82 140zM452 745l98 130h56l-110 -130h-44z" />
    <glyph glyph-name="Ucircumflex" unicode="&#xdb;" horiz-adv-x="673" 
d="M672 689h46l-82 -460q-20 -107 -101 -174q-81 -66 -182 -66t-159 67t-39 173l82 460h44l-81 -460q-15 -85 32 -140q46 -54 129 -54q82 0 148 54q67 53 82 140zM396 745h-46l127 130h64l81 -130h-46l-71 99z" />
    <glyph glyph-name="Udieresis" unicode="&#xdc;" horiz-adv-x="673" 
d="M672 689h46l-82 -460q-20 -107 -101 -174q-81 -66 -182 -66t-159 67t-39 173l82 460h44l-81 -460q-15 -85 32 -140q46 -54 129 -54q82 0 148 54q67 53 82 140zM381 829q3 16 16 26.5t29 10.5q30 2 33 -25q4 -27 -19 -42q-11 -7 -26 -6q-16 0 -26 10.5t-7 25.5zM544 829
q3 16 16 26.5t29 10.5q30 2 33 -25q4 -27 -19 -42q-11 -7 -26 -6q-16 0 -26 10.5t-7 25.5z" />
    <glyph glyph-name="Yacute" unicode="&#xdd;" horiz-adv-x="602" 
d="M651 689h54l-324 -363l-57 -326h-46l57 326l-194 363h54l172 -316zM401 745l98 130h56l-110 -130h-44z" />
    <glyph glyph-name="Thorn" unicode="&#xde;" horiz-adv-x="568" 
d="M417 512h-179l-56 -318h179q65 0 118 45q51 44 65 116q13 69 -23.5 113t-103.5 44zM352 149h-179l-25 -149h-45l121 689h45l-23 -132h179q86 0 133 -56q48 -56 32 -146q-16 -91 -85 -149q-67 -57 -153 -57z" />
    <glyph glyph-name="germandbls" unicode="&#xdf;" horiz-adv-x="572" 
d="M514 212q10 70 -30 120q-40 51 -114 51h-34q1 5 8 42h33q52 0 91 33q41 35 48 83q9 53 -22 88q-32 36 -87 36h-10q-67 0 -116.5 -44t-62.5 -118l-88 -503h-46l88 503q16 95 81 151q64 55 152 55h10q74 0 116 -49t30 -119q-7 -43 -40 -83q-31 -39 -73 -51q62 -11 93 -71
t18 -123q-16 -93 -91 -157q-73 -64 -172 -64q-52 0 -100 20l15 43q38 -19 91 -19q80 0 138 51q60 51 74 125z" />
    <glyph glyph-name="agrave" unicode="&#xe0;" 
d="M555 0h-46l17 101q-37 -51 -96 -81t-122 -30q-101 0 -159 70q-59 70 -39 174q20 105 101 173q82 70 183 70q63 0 111.5 -29.5t67.5 -80.5l17 100h46zM316 36q82 0 149 54q68 56 84 139q15 88 -33 145t-130 57t-149 -57q-66 -55 -81 -140q-15 -83 32 -141q47 -57 128 -57z
M440 545h-45l-62 130h55z" />
    <glyph glyph-name="aacute" unicode="&#xe1;" 
d="M555 0h-46l17 101q-37 -51 -96 -81t-122 -30q-101 0 -159 70q-59 70 -39 174q20 105 101 173q82 70 183 70q63 0 111.5 -29.5t67.5 -80.5l17 100h46zM316 36q82 0 149 54q68 56 84 139q15 88 -33 145t-130 57t-149 -57q-66 -55 -81 -140q-15 -83 32 -141q47 -57 128 -57z
M377 545l99 130h56l-111 -130h-44z" />
    <glyph glyph-name="acircumflex" unicode="&#xe2;" 
d="M555 0h-46l17 101q-37 -51 -96 -81t-122 -30q-101 0 -159 70q-59 70 -39 174q20 105 101 173q82 70 183 70q63 0 111.5 -29.5t67.5 -80.5l17 100h46zM316 36q82 0 149 54q68 56 84 139q15 88 -33 145t-130 57t-149 -57q-66 -55 -81 -140q-15 -83 32 -141q47 -57 128 -57z
M318 545h-46l128 130h64l80 -130h-46l-73 99z" />
    <glyph glyph-name="atilde" unicode="&#xe3;" 
d="M555 0h-46l17 101q-37 -51 -96 -81t-122 -30q-101 0 -159 70q-59 70 -39 174q20 105 101 173q82 70 183 70q63 0 111.5 -29.5t67.5 -80.5l17 100h46zM316 36q82 0 149 54q68 56 84 139q15 88 -33 145t-130 57t-149 -57q-66 -55 -81 -140q-15 -83 32 -141q47 -57 128 -57z
M388 616q-14 0 -26.5 -12t-16.5 -33h-39q9 39 32.5 62.5t49.5 23.5h9q21 0 46 -21t40 -21q14 0 26.5 11.5t16.5 31.5h39q-9 -39 -33 -62t-50 -23q-21 0 -51 21q-28 22 -43 22z" />
    <glyph glyph-name="adieresis" unicode="&#xe4;" 
d="M555 0h-46l17 101q-37 -51 -96 -81t-122 -30q-101 0 -159 70q-59 70 -39 174q20 105 101 173q82 70 183 70q63 0 111.5 -29.5t67.5 -80.5l17 100h46zM316 36q82 0 149 54q68 56 84 139q15 88 -33 145t-130 57t-149 -57q-66 -55 -81 -140q-15 -83 32 -141q47 -57 128 -57z
M301 629q3 16 16 26.5t29 10.5q17 0 27 -10.5t7 -26.5t-16.5 -26t-30.5 -10q-16 0 -25.5 10.5t-6.5 25.5zM464 629q3 16 16 26.5t29 10.5q17 0 27 -10.5t7 -26.5t-16.5 -26t-30.5 -10q-16 0 -25.5 10.5t-6.5 25.5z" />
    <glyph glyph-name="aring" unicode="&#xe5;" 
d="M555 0h-46l17 101q-37 -51 -96 -81t-122 -30q-101 0 -159 70q-59 70 -39 174q20 105 101 173q82 70 183 70q63 0 111.5 -29.5t67.5 -80.5l17 100h46zM316 36q82 0 149 54q68 56 84 139q15 88 -33 145t-130 57t-149 -57q-66 -55 -81 -140q-15 -83 32 -141q47 -57 128 -57z
M441 734q38 0 59 -26t14 -64q-7 -37 -37 -62.5t-68 -25.5q-36 0 -57.5 25.5t-14.5 62.5t37.5 63.5t66.5 26.5zM374 644q-4 -21 8 -35.5t34 -14.5t39.5 14.5t21.5 35.5q4 22 -9 37t-35 15t-38 -14.5t-21 -37.5z" />
    <glyph glyph-name="ae" unicode="&#xe6;" horiz-adv-x="999" 
d="M569 85l-14 -85h-46l17 101q-37 -51 -96 -81t-122 -30q-101 0 -159 70q-59 70 -39 174q20 105 101 173q82 70 183 70q63 0 111.5 -29.5t67.5 -80.5l17 100h46l-14 -84q82 94 206 94q101 0 153 -67q52 -66 33 -175q0 -2 -4 -21h-417q-8 -80 36 -129.5t121 -49.5
q107 0 178 89l42 -15q-40 -56 -100.5 -87.5t-127.5 -31.5q-59 0 -104.5 25t-68.5 70zM316 36q82 0 149 54q68 56 84 139q15 88 -33 145t-130 57t-149 -57q-66 -55 -81 -140q-15 -83 32 -141q47 -57 128 -57zM600 256h372q7 81 -34.5 128.5t-117.5 47.5t-138 -48
q-61 -47 -82 -128z" />
    <glyph glyph-name="ccedilla" unicode="&#xe7;" horiz-adv-x="501" 
d="M318 -10l13 -56q10 -38 -11 -74t-61 -51q-39 -15 -71.5 0t-42.5 52q-3 22 -1 42h40q-2 -18 2 -29q5 -20 23.5 -28t40.5 0q39 15 43 48q1 8 -2 24l-16 75q-88 12 -136 77q-47 67 -29 165q20 108 101 175q82 67 185 67q91 0 149 -55l-34 -34q-50 44 -123 44q-84 0 -151 -55
q-67 -54 -82 -142q-15 -89 32 -145q48 -55 131 -55q74 0 138 45l24 -34q-71 -53 -162 -56z" />
    <glyph glyph-name="egrave" unicode="&#xe8;" horiz-adv-x="560" 
d="M533 256q7 81 -34.5 128.5t-117.5 47.5q-77 0 -138 -48q-61 -47 -82 -128h372zM575 235q0 -2 -4 -21h-417q-8 -80 36 -129.5t121 -49.5q107 0 178 89l42 -15q-40 -56 -100.5 -87.5t-127.5 -31.5q-100 0 -156 68q-55 68 -36 177q20 108 98 175q79 67 180 67t153 -67
q52 -66 33 -175zM463 545h-45l-62 130h55z" />
    <glyph glyph-name="eacute" unicode="&#xe9;" horiz-adv-x="560" 
d="M161 256h372q7 81 -34.5 128.5t-117.5 47.5q-77 0 -138 -48q-61 -47 -82 -128zM575 235q0 -2 -4 -21h-417q-8 -80 36 -129.5t121 -49.5q107 0 178 89l42 -15q-40 -56 -100.5 -87.5t-127.5 -31.5q-100 0 -156 68q-55 68 -36 177q20 108 98 175q79 67 180 67t153 -67
q52 -66 33 -175zM332 545l99 130h56l-111 -130h-44z" />
    <glyph glyph-name="ecircumflex" unicode="&#xea;" horiz-adv-x="560" 
d="M161 256h372q7 81 -34.5 128.5t-117.5 47.5q-77 0 -138 -48q-61 -47 -82 -128zM575 235q0 -2 -4 -21h-417q-8 -80 36 -129.5t121 -49.5q107 0 178 89l42 -15q-40 -56 -100.5 -87.5t-127.5 -31.5q-100 0 -156 68q-55 68 -36 177q20 108 98 175q79 67 180 67t153 -67
q52 -66 33 -175zM308 545h-46l128 130h64l80 -130h-46l-73 99z" />
    <glyph glyph-name="edieresis" unicode="&#xeb;" horiz-adv-x="560" 
d="M533 256q7 81 -34.5 128.5t-117.5 47.5q-77 0 -138 -48q-61 -47 -82 -128h372zM575 235q0 -2 -4 -21h-417q-8 -80 36 -129.5t121 -49.5q107 0 178 89l42 -15q-40 -56 -100.5 -87.5t-127.5 -31.5q-100 0 -156 68q-55 68 -36 177q20 108 98 175q79 67 180 67t153 -67
q52 -66 33 -175zM293 629q3 16 16 26.5t29 10.5q17 0 27 -10.5t7 -26.5t-16.5 -26t-30.5 -10q-16 0 -25.5 10.5t-6.5 25.5zM456 629q3 16 16 26.5t29 10.5q17 0 27 -10.5t7 -26.5t-16.5 -26t-30.5 -10q-16 0 -25.5 10.5t-6.5 25.5z" />
    <glyph glyph-name="igrave" unicode="&#xec;" horiz-adv-x="214" 
d="M84 0l82 467h46l-82 -467h-46zM226 545h-45l-62 130h55z" />
    <glyph glyph-name="iacute" unicode="&#xed;" horiz-adv-x="214" 
d="M212 467l-82 -467h-46l82 467h46zM178 545l99 130h56l-111 -130h-44z" />
    <glyph glyph-name="icircumflex" unicode="&#xee;" horiz-adv-x="214" 
d="M211 467l-81 -467h-46l81 467h46zM113 545h-46l128 130h64l80 -130h-46l-73 99z" />
    <glyph glyph-name="idieresis" unicode="&#xef;" horiz-adv-x="214" 
d="M84 0l82 467h46l-82 -467h-46zM98 629q3 16 16 26.5t29 10.5q30 2 33 -25q4 -27 -19 -42q-12 -7 -26 -6q-16 0 -26 10.5t-7 25.5zM261 629q3 16 16 26.5t29 10.5q30 2 33 -25q4 -27 -19 -42q-11 -7 -26 -6q-16 0 -26 10.5t-7 25.5z" />
    <glyph glyph-name="eth" unicode="&#xf0;" horiz-adv-x="592" 
d="M390 432q-85 0 -152 -55q-67 -54 -82 -142q-15 -89 33 -144q48 -56 131 -56q82 0 150 56t83 144t-33 142q-46 55 -130 55zM472 461l-95 150l-100 -58l-16 29l100 58l-58 93h55l45 -70l80 45l18 -27l-81 -45l159 -254q35 -56 20 -147q-19 -109 -102 -178q-83 -68 -185 -68
q-103 0 -162 68q-59 70 -40 178t100 175q82 67 179 67q51 0 83 -16z" />
    <glyph glyph-name="ntilde" unicode="&#xf1;" horiz-adv-x="559" 
d="M130 0h-46l82 467h46l-17 -92q28 50 78 76t106 26q85 0 126.5 -55.5t24.5 -147.5l-49 -274h-45l48 274q13 72 -18.5 115t-95.5 43q-72 0 -125 -43t-70 -127zM342 616q-14 0 -26.5 -12t-16.5 -33h-39q9 39 33 62.5t50 23.5h9q20 0 46 -21t39 -21q14 0 26.5 11t17.5 32h39
q-9 -39 -33.5 -62t-50.5 -23q-21 0 -51 21q-28 22 -43 22z" />
    <glyph glyph-name="ograve" unicode="&#xf2;" horiz-adv-x="590" 
d="M155 235q-15 -89 32 -145q48 -55 132 -55t151 55q68 56 83 145t-33 143q-47 54 -131 54q-85 0 -152 -55q-67 -54 -82 -142zM598 235q-20 -109 -102 -177q-83 -68 -185 -68q-103 0 -162 68t-39 177q20 108 101 175q82 67 186 67q103 0 161 -67q59 -68 40 -175zM431 545
h-45l-62 130h55z" />
    <glyph glyph-name="oacute" unicode="&#xf3;" horiz-adv-x="590" 
d="M155 235q-15 -89 32 -145q48 -55 132 -55t151 55q68 56 83 145t-33 143q-47 54 -131 54q-85 0 -152 -55q-67 -54 -82 -142zM110 235q20 108 101 175q82 67 186 67q103 0 161 -67q59 -68 40 -175q-20 -109 -102 -177q-83 -68 -185 -68q-103 0 -162 68t-39 177zM380 545
l99 130h56l-111 -130h-44z" />
    <glyph glyph-name="ocircumflex" unicode="&#xf4;" horiz-adv-x="590" 
d="M155 235q-15 -89 32 -145q48 -55 132 -55t151 55q68 56 83 145t-33 143q-47 54 -131 54q-85 0 -152 -55q-67 -54 -82 -142zM110 235q20 108 101 175q82 67 186 67q103 0 161 -67q59 -68 40 -175q-20 -109 -102 -177q-83 -68 -185 -68q-103 0 -162 68t-39 177zM319 545
h-46l128 130h64l80 -130h-46l-73 99z" />
    <glyph glyph-name="otilde" unicode="&#xf5;" horiz-adv-x="590" 
d="M155 235q-15 -89 32 -145q48 -55 132 -55t151 55q68 56 83 145t-33 143q-47 54 -131 54q-85 0 -152 -55q-67 -54 -82 -142zM110 235q20 108 101 175q82 67 186 67q103 0 161 -67q59 -68 40 -175q-20 -109 -102 -177q-83 -68 -185 -68q-103 0 -162 68t-39 177zM374 616
q-14 0 -26.5 -12t-16.5 -33h-39q8 39 32 62.5t50 23.5h9q20 0 46 -21q25 -21 40 -21q14 0 26.5 11.5t16.5 31.5h39q-9 -39 -33.5 -62t-50.5 -23q-21 0 -50 21q-28 22 -43 22z" />
    <glyph glyph-name="odieresis" unicode="&#xf6;" horiz-adv-x="590" 
d="M155 235q-15 -89 32 -145q48 -55 132 -55t151 55q68 56 83 145t-33 143q-47 54 -131 54q-85 0 -152 -55q-67 -54 -82 -142zM598 235q-20 -109 -102 -177q-83 -68 -185 -68q-103 0 -162 68t-39 177q20 108 101 175q82 67 186 67q103 0 161 -67q59 -68 40 -175zM303 629
q3 16 16.5 26.5t29.5 10.5q29 2 32 -25t-19 -42q-12 -7 -26 -6q-16 0 -26 10.5t-7 25.5zM466 629q3 16 16.5 26.5t29.5 10.5q29 2 32 -25t-19 -42q-12 -7 -26 -6q-16 0 -26 10.5t-7 25.5z" />
    <glyph glyph-name="divide" unicode="&#xf7;" horiz-adv-x="577" 
d="M323 438q3 17 17 28t31 11q18 0 28 -11t7 -28q-4 -29 -36 -36q-31 -6 -44 13q-5 11 -3 23zM261 86q4 17 17 28t30 11q18 0 29 -11t7 -28q-5 -29 -38 -36q-32 -6 -43 14q-5 9 -2 22zM129 290h418l-7 -44h-418z" />
    <glyph glyph-name="oslash" unicode="&#xf8;" horiz-adv-x="589" 
d="M371 432q-85 0 -152 -55q-66 -53 -83 -142q-13 -75 22 -129l331 285q-47 41 -118 41zM301 35q84 0 151 55q68 56 83 145q13 76 -23 129l-332 -286q46 -43 121 -43zM142 46l-65 -56l-23 27l65 56q-43 65 -27 162q20 108 101 175q82 67 186 67q91 0 148 -54l66 57l22 -27
l-64 -56q44 -66 28 -162q-19 -109 -102 -177t-185 -68q-91 0 -150 56z" />
    <glyph glyph-name="ugrave" unicode="&#xf9;" horiz-adv-x="560" 
d="M528 467h46l-82 -467h-46l16 92q-28 -50 -78 -76t-106 -26q-84 0 -125 55t-25 148l48 274h46l-48 -274q-13 -72 18.5 -115t94.5 -43q72 0 125 43t70 127zM430 545h-45l-63 130h55z" />
    <glyph glyph-name="uacute" unicode="&#xfa;" horiz-adv-x="560" 
d="M528 467h46l-82 -467h-46l16 92q-28 -50 -78 -76t-106 -26q-84 0 -125 55t-25 148l48 274h46l-48 -274q-13 -72 18.5 -115t94.5 -43q72 0 125 43t70 127zM333 545l98 130h56l-110 -130h-44z" />
    <glyph glyph-name="ucircumflex" unicode="&#xfb;" horiz-adv-x="560" 
d="M528 467h46l-82 -467h-46l16 92q-28 -50 -78 -76t-106 -26q-84 0 -125 55t-25 148l48 274h46l-48 -274q-13 -72 18.5 -115t94.5 -43q72 0 125 43t70 127zM309 545h-46l127 130h64l81 -130h-46l-73 99z" />
    <glyph glyph-name="udieresis" unicode="&#xfc;" horiz-adv-x="560" 
d="M528 467h46l-82 -467h-46l16 92q-28 -50 -78 -76t-106 -26q-84 0 -125 55t-25 148l48 274h46l-48 -274q-13 -72 18.5 -115t94.5 -43q72 0 125 43t70 127zM280 629q3 16 16.5 26.5t29.5 10.5q29 2 32 -25t-19 -42q-12 -7 -26 -6q-16 0 -26 10.5t-7 25.5zM443 629
q3 16 16.5 26.5t29.5 10.5q29 2 32 -25t-19 -42q-12 -7 -26 -6q-16 0 -26 10.5t-7 25.5z" />
    <glyph glyph-name="yacute" unicode="&#xfd;" horiz-adv-x="500" 
d="M507 467h49l-421 -693h-45l134 224l-114 469h48l101 -412zM299 545l98 130h56l-110 -130h-44z" />
    <glyph glyph-name="thorn" unicode="&#xfe;" 
d="M563 235q15 85 -31 140q-47 57 -128 57q-83 0 -151 -58q-69 -57 -84 -144q-13 -84 34 -140q48 -54 130 -54q80 0 148 57q69 60 82 142zM147 101l-59 -327h-46l171 959h46l-64 -365q36 51 94.5 80t122.5 29q101 0 158 -69q59 -69 39 -173q-20 -105 -101 -175
q-82 -70 -183 -70q-62 0 -110.5 30t-67.5 81z" />
    <glyph glyph-name="ydieresis" unicode="&#xff;" horiz-adv-x="500" 
d="M135 -226h-45l134 224l-114 469h48l101 -412l248 412h49zM242 629q3 16 16 26.5t29 10.5q30 2 33 -25q4 -27 -19 -42q-11 -7 -26 -6q-16 0 -26 10.5t-7 25.5zM405 629q3 16 16 26.5t29 10.5q30 2 33 -25q4 -27 -19 -42q-11 -7 -26 -6q-16 0 -26 10.5t-7 25.5z" />
    <glyph glyph-name="Amacron" unicode="&#x100;" horiz-adv-x="626" 
d="M201 229h305l-82 397zM553 0l-40 187h-336l-104 -187h-48l385 689h48l143 -689h-48zM570 804h-232l8 42h232z" />
    <glyph glyph-name="amacron" unicode="&#x101;" 
d="M555 0h-46l17 101q-37 -51 -96 -81t-122 -30q-101 0 -159 70q-59 70 -39 174q20 105 101 173q82 70 183 70q63 0 111.5 -29.5t67.5 -80.5l17 100h46zM316 36q82 0 149 54q68 56 84 139q15 88 -33 145t-130 57t-149 -57q-66 -55 -81 -140q-15 -83 32 -141q47 -57 128 -57z
M549 604h-232l7 42h232z" />
    <glyph glyph-name="Abreve" unicode="&#x102;" horiz-adv-x="626" 
d="M424 626l-223 -397h305zM177 187l-104 -187h-48l385 689h48l143 -689h-48l-40 187h-336zM544 866h37q-8 -49 -45.5 -79.5t-90.5 -30.5q-55 0 -79.5 31t-15.5 79h37q-2 -32 14 -51.5t51 -19.5t60 20t32 51z" />
    <glyph glyph-name="abreve" unicode="&#x103;" 
d="M555 0h-46l17 101q-37 -51 -96 -81t-122 -30q-101 0 -159 70q-59 70 -39 174q20 105 101 173q82 70 183 70q63 0 111.5 -29.5t67.5 -80.5l17 100h46zM316 36q82 0 149 54q68 56 84 139q15 88 -33 145t-130 57t-149 -57q-66 -55 -81 -140q-15 -83 32 -141q47 -57 128 -57z
M523 666h37q-9 -50 -46 -80t-89 -30q-55 0 -80 31.5t-16 78.5h37q-2 -32 14 -51.5t51 -19.5t60.5 20t31.5 51z" />
    <glyph glyph-name="Aogonek" unicode="&#x104;" horiz-adv-x="626" 
d="M201 229h305l-82 397zM410 689h48l143 -689h-6l-47 -82q-8 -15 -10 -24q-5 -33 26 -48q18 -8 40 0t35 28q6 8 11 29h40q-5 -24 -16 -42q-23 -37 -60.5 -51.5t-71.5 -0.5q-35 16 -43 51.5t15 73.5l39 66l-40 187h-336l-104 -187h-48z" />
    <glyph glyph-name="aogonek" unicode="&#x105;" 
d="M470 -66l39 66l17 101q-37 -51 -96 -81t-122 -30q-101 0 -159 70q-59 70 -39 174q20 105 101 173q82 70 183 70q63 0 111.5 -29.5t67.5 -80.5l17 100h46l-81 -467h-8l-43 -82q-9 -15 -11 -24q-5 -33 26 -48q18 -8 40.5 0t35.5 28q6 12 10 29h40q-3 -21 -15 -42
q-23 -37 -60.5 -51.5t-71.5 -0.5q-35 16 -43 51.5t15 73.5zM316 36q82 0 149 54q68 56 84 139q15 88 -33 145t-130 57t-149 -57q-66 -55 -81 -140q-15 -83 32 -141q47 -57 128 -57z" />
    <glyph glyph-name="Cacute" unicode="&#x106;" horiz-adv-x="660" 
d="M641 115l25 -32q-114 -93 -249 -93q-143 0 -222 103q-78 103 -52 250q25 147 141 251q115 103 258 103q134 0 217 -93l-36 -32q-74 80 -189 80q-124 0 -224 -90q-100 -91 -122 -219q-23 -128 45 -218q67 -90 192 -90q115 0 216 80zM506 745l97 130h56l-109 -130h-44z" />
    <glyph glyph-name="cacute" unicode="&#x107;" horiz-adv-x="499" 
d="M456 80l24 -34q-79 -56 -170 -56q-102 0 -161 68t-39 177q20 108 101 175q82 67 185 67q91 0 149 -55l-34 -34q-52 44 -123 44q-84 0 -151 -55q-67 -54 -82 -142q-15 -89 32 -145q48 -55 131 -55q74 0 138 45zM369 545l99 130h56l-111 -130h-44z" />
    <glyph glyph-name="Ccircumflex" unicode="&#x108;" horiz-adv-x="660" 
d="M641 115l25 -32q-114 -93 -249 -93q-143 0 -222 103q-78 103 -52 250q25 147 141 251q115 103 258 103q134 0 217 -93l-36 -32q-74 80 -189 80q-124 0 -224 -90q-100 -91 -122 -219q-23 -128 45 -218q67 -90 192 -90q115 0 216 80zM458 745h-46l126 130h64l82 -130h-46
l-72 99z" />
    <glyph glyph-name="ccircumflex" unicode="&#x109;" horiz-adv-x="499" 
d="M456 80l24 -34q-79 -56 -170 -56q-102 0 -161 68t-39 177q20 108 101 175q82 67 185 67q91 0 149 -55l-34 -34q-52 44 -123 44q-84 0 -151 -55q-67 -54 -82 -142q-15 -89 32 -145q48 -55 131 -55q74 0 138 45zM303 545h-46l128 130h64l80 -130h-46l-73 99z" />
    <glyph glyph-name="Cdotaccent" unicode="&#x10a;" horiz-adv-x="660" 
d="M666 83q-114 -93 -249 -93q-143 0 -222 103q-78 103 -52 250q25 147 141 251q115 103 258 103q134 0 217 -93l-36 -32q-74 80 -189 80q-124 0 -224 -90q-100 -91 -122 -219q-23 -128 45 -218q67 -90 192 -90q115 0 216 80zM517 829q3 16 16 26.5t29 10.5q30 2 33 -25
q4 -27 -19 -42q-11 -7 -26 -6q-16 0 -26 10.5t-7 25.5z" />
    <glyph glyph-name="cdotaccent" unicode="&#x10b;" horiz-adv-x="499" 
d="M456 80l24 -34q-79 -56 -170 -56q-102 0 -161 68t-39 177q20 108 101 175q82 67 185 67q91 0 149 -55l-34 -34q-52 44 -123 44q-84 0 -151 -55q-67 -54 -82 -142q-15 -89 32 -145q48 -55 131 -55q74 0 138 45zM379 629q3 16 16 26.5t29 10.5q17 0 27 -10.5t7 -26.5
t-16.5 -26t-30.5 -10q-16 0 -25.5 10.5t-6.5 25.5z" />
    <glyph glyph-name="Ccaron" unicode="&#x10c;" horiz-adv-x="660" 
d="M641 115l25 -32q-114 -93 -249 -93q-143 0 -222 103q-78 103 -52 250q25 147 141 251q115 103 258 103q134 0 217 -93l-36 -32q-74 80 -189 80q-124 0 -224 -90q-100 -91 -122 -219q-23 -128 45 -218q67 -90 192 -90q115 0 216 80zM647 875h46l-126 -130h-64l-82 130h46
l73 -99z" />
    <glyph glyph-name="ccaron" unicode="&#x10d;" horiz-adv-x="499" 
d="M456 80l24 -34q-79 -56 -170 -56q-102 0 -161 68t-39 177q20 108 101 175q82 67 185 67q91 0 149 -55l-34 -34q-52 44 -123 44q-84 0 -151 -55q-67 -54 -82 -142q-15 -89 32 -145q48 -55 131 -55q74 0 138 45zM509 675h46l-128 -130h-64l-80 130h46l71 -99z" />
    <glyph glyph-name="Dcaron" unicode="&#x10e;" horiz-adv-x="722" 
d="M472 644h-211l-106 -599h211q121 0 204 83t107 215q24 133 -30 217q-53 84 -175 84zM359 0h-256l121 689h256q142 0 205 -97q64 -97 37 -249q-27 -151 -124 -247t-239 -96zM570 875h46l-127 -130h-64l-81 130h46l72 -99z" />
    <glyph glyph-name="dcaron" unicode="&#x10f;" 
d="M726 548l-27 8q65 77 67 154h54q-16 -106 -94 -162zM555 0h-46l17 101q-37 -51 -96 -81t-122 -30q-101 0 -159 70q-59 70 -39 174q20 105 101 173q82 70 183 70q63 0 111.5 -29.5t67.5 -80.5l65 366h46zM316 36q82 0 149 54q68 56 84 139q15 88 -33 145t-130 57t-149 -57
q-66 -55 -81 -140q-15 -83 32 -141q47 -57 128 -57z" />
    <glyph glyph-name="Dcroat" unicode="&#x110;" horiz-adv-x="727" 
d="M475 644h-211l-50 -282h185l-6 -42h-185l-49 -275h211q122 0 205 83t107 215t-30 216q-54 85 -177 85zM363 0h-256l56 320h-98l6 42h98l59 327h256q141 0 206 -98q64 -97 37 -248q-27 -150 -125 -247q-98 -96 -239 -96z" />
    <glyph glyph-name="dslash" unicode="&#x111;" 
d="M316 36q82 0 150 56t83 142t-34 141q-50 56 -129 56q-82 0 -149 -57q-66 -55 -81 -140q-15 -83 32 -141q47 -57 128 -57zM611 585h-163l8 37h163l19 111h46l-19 -111h89l-8 -37h-89l-102 -585h-46l17 101q-37 -51 -96 -81t-122 -30q-101 0 -159 70q-59 70 -39 174
q20 105 101 173q82 70 183 70q63 0 111.5 -29.5t67.5 -80.5z" />
    <glyph glyph-name="Emacron" unicode="&#x112;" horiz-adv-x="551" 
d="M497 0h-394l121 689h382l-8 -45h-337l-50 -283h295l-8 -45h-295l-48 -271h349zM537 804h-232l8 42h232z" />
    <glyph glyph-name="emacron" unicode="&#x113;" horiz-adv-x="560" 
d="M161 256h372q7 81 -34.5 128.5t-117.5 47.5q-77 0 -138 -48q-61 -47 -82 -128zM575 235q0 -2 -4 -21h-417q-8 -80 36 -129.5t121 -49.5q107 0 178 89l42 -15q-40 -56 -100.5 -87.5t-127.5 -31.5q-100 0 -156 68q-55 68 -36 177q20 108 98 175q79 67 180 67t153 -67
q52 -66 33 -175zM525 604h-232l7 42h232z" />
    <glyph glyph-name="Ebreve" unicode="&#x114;" horiz-adv-x="551" 
d="M224 689h382l-8 -45h-337l-50 -283h295l-8 -45h-295l-48 -271h349l-7 -45h-394zM511 866h37q-8 -49 -45.5 -79.5t-90.5 -30.5q-55 0 -79.5 31t-15.5 79h37q-2 -32 14 -51.5t51 -19.5t60 20t32 51z" />
    <glyph glyph-name="ebreve" unicode="&#x115;" horiz-adv-x="560" 
d="M533 256q7 81 -34.5 128.5t-117.5 47.5q-77 0 -138 -48q-61 -47 -82 -128h372zM575 235q0 -2 -4 -21h-417q-8 -80 36 -129.5t121 -49.5q107 0 178 89l42 -15q-40 -56 -100.5 -87.5t-127.5 -31.5q-100 0 -156 68q-55 68 -36 177q20 108 98 175q79 67 180 67t153 -67
q52 -66 33 -175zM498 666h37q-9 -50 -46 -80t-89 -30q-55 0 -80 31.5t-16 78.5h37q-2 -32 14 -51.5t51 -19.5t60.5 20t31.5 51z" />
    <glyph glyph-name="Edotaccent" unicode="&#x116;" horiz-adv-x="551" 
d="M224 689h382l-8 -45h-337l-50 -283h295l-8 -45h-295l-48 -271h349l-7 -45h-394zM407 829q3 16 16.5 26.5t29.5 10.5q29 2 32 -25t-19 -42q-12 -7 -26 -6q-16 0 -26 10.5t-7 25.5z" />
    <glyph glyph-name="edotaccent" unicode="&#x117;" horiz-adv-x="560" 
d="M533 256q7 81 -34.5 128.5t-117.5 47.5q-77 0 -138 -48q-61 -47 -82 -128h372zM575 235q0 -2 -4 -21h-417q-8 -80 36 -129.5t121 -49.5q107 0 178 89l42 -15q-40 -56 -100.5 -87.5t-127.5 -31.5q-100 0 -156 68q-55 68 -36 177q20 108 98 175q79 67 180 67t153 -67
q52 -66 33 -175zM374 629q3 16 16 26.5t29 10.5q17 0 27 -10.5t7 -26.5t-16.5 -26t-30.5 -10q-16 0 -25.5 10.5t-6.5 25.5z" />
    <glyph glyph-name="Eogonek" unicode="&#x118;" horiz-adv-x="551" 
d="M504 45l-7 -45l-49 -82q-9 -16 -10 -24q-5 -33 26 -48q18 -8 40 0t35 28q6 8 11 29h40q-5 -24 -16 -42q-23 -37 -60.5 -51.5t-71.5 -0.5q-35 16 -43 51.5t15 73.5l50 66h-361l121 689h382l-8 -45h-337l-50 -283h295l-8 -45h-295l-48 -271h349z" />
    <glyph glyph-name="eogonek" unicode="&#x119;" horiz-adv-x="561" 
d="M489 124l42 -15l-43 -47l-42 -45q-36 -40 -71 -99q-9 -15 -11 -24q-5 -33 26 -48q18 -8 40.5 0t35.5 28q6 12 10 29h40q-4 -24 -15 -42q-23 -37 -60.5 -51.5t-71.5 -0.5q-35 16 -43 51.5t15 73.5l47 71q-40 -15 -85 -15q-100 0 -156 68q-55 68 -36 177q20 108 98 175
q79 67 180 67q90 0 137.5 -61t47.5 -182q0 -10 -3 -20h-417q-8 -80 36 -129.5t121 -49.5q107 0 178 89zM161 256h372q7 81 -34.5 128.5t-117.5 47.5q-77 0 -138 -48q-61 -47 -82 -128z" />
    <glyph glyph-name="Ecaron" unicode="&#x11a;" horiz-adv-x="551" 
d="M497 0h-394l121 689h382l-8 -45h-337l-50 -283h295l-8 -45h-295l-48 -271h349zM524 875h46l-127 -130h-64l-81 130h46l72 -99z" />
    <glyph glyph-name="ecaron" unicode="&#x11b;" horiz-adv-x="560" 
d="M161 256h372q7 81 -34.5 128.5t-117.5 47.5q-77 0 -138 -48q-61 -47 -82 -128zM575 235q0 -2 -4 -21h-417q-8 -80 36 -129.5t121 -49.5q107 0 178 89l42 -15q-40 -56 -100.5 -87.5t-127.5 -31.5q-100 0 -156 68q-55 68 -36 177q20 108 98 175q79 67 180 67t153 -67
q52 -66 33 -175zM512 675h46l-128 -130h-64l-80 130h46l71 -99z" />
    <glyph glyph-name="Gcircumflex" unicode="&#x11c;" horiz-adv-x="758" 
d="M747 283h-211l7 43h261q-32 -165 -130.5 -251t-248.5 -86q-146 0 -228 103q-80 103 -55 251q25 147 144 251q118 103 264 103q118 0 198 -72l-37 -34q-65 61 -169 61q-126 0 -230 -90q-103 -91 -125 -219q-23 -129 48 -219q71 -89 198 -89q117 0 199.5 64.5t114.5 183.5z
M451 745h-46l126 130h64l82 -130h-46l-72 99z" />
    <glyph glyph-name="gcircumflex" unicode="&#x11d;" 
d="M297 36q82 0 149 55q69 55 84 142q17 86 -32 142q-48 56 -131 56q-81 0 -148 -57t-82 -141q-15 -85 31 -141q47 -56 129 -56zM67 -127l42 25q40 -85 142 -85t164 60t86 196l6 34q-36 -51 -95.5 -82t-122.5 -31q-101 0 -159 69q-58 71 -39 174q20 105 101 174
q82 70 184 70q62 0 110.5 -30t67.5 -81l18 101h46l-71 -397q-28 -164 -107 -234q-76 -69 -197 -69q-59 0 -105.5 27t-70.5 79zM313 545h-46l128 130h64l80 -130h-46l-72 99z" />
    <glyph glyph-name="Gbreve" unicode="&#x11e;" horiz-adv-x="758" 
d="M747 283h-211l7 43h261q-32 -165 -130.5 -251t-248.5 -86q-146 0 -228 103q-80 103 -55 251q25 147 144 251q118 103 264 103q118 0 198 -72l-37 -34q-65 61 -169 61q-126 0 -230 -90q-103 -91 -125 -219q-23 -129 48 -219q71 -89 198 -89q117 0 199.5 64.5t114.5 183.5z
M641 866h37q-7 -49 -45 -79.5t-91 -30.5q-55 0 -79.5 31t-15.5 79h37q-2 -31 14.5 -51t51.5 -20t59.5 20t31.5 51z" />
    <glyph glyph-name="gbreve" unicode="&#x11f;" 
d="M297 36q82 0 149 55q69 55 84 142q17 86 -32 142q-48 56 -131 56q-81 0 -148 -57t-82 -141q-15 -85 31 -141q47 -56 129 -56zM67 -127l42 25q40 -85 142 -85t164 60t86 196l6 34q-36 -51 -95.5 -82t-122.5 -31q-101 0 -159 69q-58 71 -39 174q20 105 101 174
q82 70 184 70q62 0 110.5 -30t67.5 -81l18 101h46l-71 -397q-28 -164 -107 -234q-76 -69 -197 -69q-59 0 -105.5 27t-70.5 79zM504 666h37q-8 -50 -45.5 -80t-89.5 -30q-55 0 -80 31.5t-16 78.5h37q-2 -31 14.5 -51t51.5 -20t60 20t31 51z" />
    <glyph glyph-name="Gdotaccent" unicode="&#x120;" horiz-adv-x="758" 
d="M747 283h-211l7 43h261q-32 -165 -130.5 -251t-248.5 -86q-146 0 -228 103q-80 103 -55 251q25 147 144 251q118 103 264 103q118 0 198 -72l-37 -34q-65 61 -169 61q-126 0 -230 -90q-103 -91 -125 -219q-23 -129 48 -219q71 -89 198 -89q117 0 199.5 64.5t114.5 183.5z
M517 829q3 16 16 26.5t29 10.5q30 2 33 -25q4 -27 -19 -42q-11 -7 -26 -6q-16 0 -26 10.5t-7 25.5z" />
    <glyph glyph-name="gdotaccent" unicode="&#x121;" 
d="M297 36q82 0 149 55q69 55 84 142q17 86 -32 142q-48 56 -131 56q-81 0 -148 -57t-82 -141q-15 -85 31 -141q47 -56 129 -56zM67 -127l42 25q40 -85 142 -85t164 60t86 196l6 34q-36 -51 -95.5 -82t-122.5 -31q-101 0 -159 69q-58 71 -39 174q20 105 101 174
q82 70 184 70q62 0 110.5 -30t67.5 -81l18 101h46l-71 -397q-28 -164 -107 -234q-76 -69 -197 -69q-59 0 -105.5 27t-70.5 79zM380 629q3 16 16 26.5t29 10.5q30 2 33 -25q4 -27 -19 -42q-11 -7 -26 -6q-16 0 -26 10.5t-7 25.5z" />
    <glyph glyph-name="Gcommaaccent" unicode="&#x122;" horiz-adv-x="758" 
d="M747 283h-211l7 43h261q-32 -165 -130.5 -251t-248.5 -86q-146 0 -228 103q-80 103 -55 251q25 147 144 251q118 103 264 103q118 0 198 -72l-37 -34q-65 61 -169 61q-126 0 -230 -90q-103 -91 -125 -219q-23 -129 48 -219q71 -89 198 -89q117 0 199.5 64.5t114.5 183.5z
M314 -223q74 69 87 156h51q-25 -108 -102 -161q-28 4 -36 5z" />
    <glyph glyph-name="gcommaaccent" unicode="&#x123;" 
d="M404 546h-49q16 106 91 168l27 -11q-62 -66 -69 -157zM297 36q82 0 149 55q69 55 84 142q17 86 -32 142q-48 56 -131 56q-81 0 -148 -57t-82 -141q-15 -85 31 -141q47 -56 129 -56zM67 -127l42 25q40 -85 142 -85t164 60t86 196l6 34q-36 -51 -95.5 -82t-122.5 -31
q-101 0 -159 69q-58 71 -39 174q20 105 101 174q82 70 184 70q62 0 110.5 -30t67.5 -81l18 101h46l-71 -397q-28 -164 -107 -234q-76 -69 -197 -69q-59 0 -105.5 27t-70.5 79z" />
    <glyph glyph-name="Hcircumflex" unicode="&#x124;" horiz-adv-x="710" 
d="M626 364l57 325h45l-121 -689h-45l56 321h-414l-56 -321h-45l121 689h45l-57 -325h414zM396 745h-46l127 130h64l81 -130h-46l-72 99z" />
    <glyph glyph-name="hcircumflex" unicode="&#x125;" horiz-adv-x="559" 
d="M130 0h-46l129 733h46l-64 -358q28 50 78 76t106 26q85 0 126.5 -55.5t24.5 -147.5l-49 -274h-45l48 274q13 72 -18.5 115t-95.5 43q-72 0 -125 -43t-70 -127zM151 760h-46l127 130h64l81 -130h-46l-72 99z" />
    <glyph glyph-name="Hbar" unicode="&#x126;" horiz-adv-x="723" 
d="M786 558l-7 -37h-75l-91 -521h-45l56 321h-414l-56 -321h-45l91 521h-69l7 37h69l23 131h45l-23 -131h414l23 131h45l-23 -131h75zM218 364h414l27 157h-414z" />
    <glyph glyph-name="hbar" unicode="&#x127;" horiz-adv-x="559" 
d="M129 0h-45l103 586h-87l7 36h87l19 111h45l-19 -111h166l-7 -36h-166l-38 -211q28 50 78 76t107 26q84 0 125.5 -55.5t24.5 -147.5l-48 -274h-45l48 274q13 72 -18.5 115t-95.5 43q-73 0 -126 -43.5t-67 -126.5z" />
    <glyph glyph-name="Itilde" unicode="&#x128;" horiz-adv-x="251" 
d="M103 0l121 689h45l-121 -689h-45zM222 816q-14 0 -27 -12.5t-17 -32.5h-39q9 39 33.5 62.5t50.5 23.5h9q20 0 46 -21t39 -21q14 0 26.5 11t17.5 32h39q-9 -39 -33 -62t-50 -23q-21 0 -51 21q-29 22 -44 22z" />
    <glyph glyph-name="itilde" unicode="&#x129;" horiz-adv-x="214" 
d="M212 467l-82 -467h-46l82 467h46zM168 616q-14 0 -26.5 -12t-16.5 -33h-39q9 39 33 62.5t50 23.5h9q20 0 46 -21t39 -21q14 0 26.5 11t17.5 32h39q-9 -39 -33.5 -62t-50.5 -23q-21 0 -51 21q-28 22 -43 22z" />
    <glyph glyph-name="Imacron" unicode="&#x12a;" horiz-adv-x="251" 
d="M103 0l121 689h45l-121 -689h-45zM383 804h-232l8 42h232z" />
    <glyph glyph-name="imacron" unicode="&#x12b;" horiz-adv-x="214" 
d="M212 467l-82 -467h-46l82 467h46zM330 604h-232l8 42h232z" />
    <glyph glyph-name="Ibreve" unicode="&#x12c;" horiz-adv-x="251" 
d="M269 689l-121 -689h-45l121 689h45zM357 866h37q-8 -49 -45.5 -79.5t-90.5 -30.5q-55 0 -79.5 31t-15.5 79h37q-2 -32 14 -51.5t51 -19.5t60 20t32 51z" />
    <glyph glyph-name="ibreve" unicode="&#x12d;" horiz-adv-x="214" 
d="M84 0l82 467h46l-82 -467h-46zM303 666h37q-8 -50 -45 -80t-90 -30q-55 0 -80 31.5t-16 78.5h37q-2 -31 14.5 -51t51.5 -20t60 20t31 51z" />
    <glyph glyph-name="Iogonek" unicode="&#x12e;" horiz-adv-x="251" 
d="M72 -66l39 66l121 689h45l-121 -689h-4l-46 -82q-8 -15 -10 -24q-5 -33 26 -48q18 -8 40 0t35 28q6 8 11 29h40q-5 -24 -16 -42q-23 -37 -60.5 -51.5t-71.5 -0.5q-35 16 -43 51.5t15 73.5z" />
    <glyph glyph-name="iogonek" unicode="&#x12f;" horiz-adv-x="213" 
d="M53 -66l39 66l82 467h45l-82 -467h-4l-46 -82q-8 -15 -10 -24q-5 -33 26 -48q18 -8 40 0t35 28q6 8 11 29h40q-5 -24 -16 -42q-23 -37 -60.5 -51.5t-71.5 -0.5q-35 16 -43 51.5t15 73.5zM193 613q-9 11 -6 27t16 26q13 11 30 11t26 -11q10 -10 7 -26t-16 -27
q-13 -10 -30 -10t-27 10z" />
    <glyph glyph-name="Idot" unicode="&#x130;" horiz-adv-x="251" 
d="M269 689l-121 -689h-45l121 689h45zM232 829q3 16 16.5 26.5t29.5 10.5q29 2 32 -25t-19 -42q-12 -7 -26 -6q-16 0 -26 10.5t-7 25.5z" />
    <glyph glyph-name="dotlessi" unicode="&#x131;" horiz-adv-x="214" 
d="M212 467l-82 -467h-46l82 467h46z" />
    <glyph glyph-name="IJ" unicode="&#x132;" horiz-adv-x="503" 
d="M103 0l121 689h45l-121 -689h-45zM106 -227q0 3 6 22t7 22q21 -4 46 -4q77 0 123.5 45t61.5 124l125 707h46l-125 -707q-18 -100 -78 -157.5t-161 -57.5q-19 0 -51 6z" />
    <glyph glyph-name="ij" unicode="&#x133;" horiz-adv-x="426" 
d="M211 467l-82 -467h-45l82 467h45zM185 613q-9 11 -6 27t16 26q13 11 30 11t26 -11q10 -10 7 -26t-16 -27q-13 -10 -30 -10t-27 10zM379 467h45l-88 -496q-35 -197 -195 -197h-41l9 44h41q113 0 141 153zM399 613q-9 11 -6 27t16 26q13 11 30 11t26 -11q10 -10 7 -26
t-16 -27q-13 -10 -30 -10t-27 10z" />
    <glyph glyph-name="Jcircumflex" unicode="&#x134;" horiz-adv-x="252" 
d="M166 745h-46l127 130h64l81 -130h-46l-72 99zM-143 -227l7 22l6 22q21 -4 46 -4q76 0 122 45.5t61 123.5l125 707h46l-125 -707q-18 -100 -78 -157.5t-159 -57.5q-20 0 -51 6z" />
    <glyph glyph-name="jcircumflex" unicode="&#x135;" horiz-adv-x="213" 
d="M166 467h45l-88 -496q-35 -197 -193 -197h-41l9 44h41q60 0 92.5 39.5t46.5 113.5zM109 545h-46l127 130h64l81 -130h-46l-73 99z" />
    <glyph glyph-name="Kcommaaccent" unicode="&#x136;" horiz-adv-x="534" 
d="M472 0l-269 316l-55 -316h-45l121 689h45l-61 -347l342 347h55l-353 -357l282 -332h-62zM178 -223q72 69 86 156h51q-25 -108 -102 -161q-2 0 -8 1t-12.5 2t-14.5 2z" />
    <glyph glyph-name="kcommaaccent" unicode="&#x137;" horiz-adv-x="454" 
d="M466 467l-237 -203l219 -264h-63l-212 254l-44 -254h-45l129 733h45l-81 -459l224 193h65zM130 -223q72 69 86 156h51q-25 -108 -102 -161q-2 0 -8 1t-12.5 2t-14.5 2z" />
    <glyph glyph-name="kgreenlandic" unicode="&#x138;" horiz-adv-x="431" 
d="M415 0h-63l-187 210l-36 -210h-45l82 467h45l-41 -231l245 231h59l-256 -242z" />
    <glyph glyph-name="Lacute" unicode="&#x139;" horiz-adv-x="479" 
d="M240 767l97 130h56l-109 -130h-44zM450 0h-347l121 689h45l-114 -644h302z" />
    <glyph glyph-name="lacute" unicode="&#x13a;" horiz-adv-x="213" 
d="M226 793l99 130h55l-109 -130h-45zM258 733l-129 -733h-45l129 733h45z" />
    <glyph glyph-name="Lcommaaccent" unicode="&#x13b;" horiz-adv-x="479" 
d="M450 0h-347l121 689h45l-114 -644h302zM151 -223q72 69 86 156h51q-25 -108 -102 -161z" />
    <glyph glyph-name="lcommaaccent" unicode="&#x13c;" horiz-adv-x="213" 
d="M258 733l-129 -733h-45l129 733h45zM-11 -223q72 72 84 156h51q-25 -108 -102 -161q-3 0 -33 5z" />
    <glyph glyph-name="Lcaron" unicode="&#x13d;" horiz-adv-x="479" 
d="M450 0h-347l121 689h45l-114 -644h302zM358 484q-5 2 -9.5 4t-7 3l-5 2t-4.5 1l-1 1q75 84 91 194h45q-24 -123 -109 -205z" />
    <glyph glyph-name="lcaron" unicode="&#x13e;" horiz-adv-x="213" 
d="M258 733l-129 -733h-45l129 733h45zM297 528l-27 11q75 84 91 194h45q-24 -124 -109 -205z" />
    <glyph glyph-name="Ldot" unicode="&#x13f;" horiz-adv-x="479" 
d="M450 0h-347l121 689h45l-114 -644h302zM285 246q3 17 17 28t31 11q18 0 28 -11t7 -28q-4 -29 -37 -36q-32 -6 -44 14q-5 10 -2 22z" />
    <glyph glyph-name="ldot" unicode="&#x140;" horiz-adv-x="301" 
d="M258 733l-129 -733h-45l129 733h45zM259 246q3 17 17 28t31 11q18 0 28 -11t7 -28q-4 -29 -37 -36q-32 -6 -44 14q-5 10 -2 22z" />
    <glyph glyph-name="Lslash" unicode="&#x141;" horiz-adv-x="486" 
d="M457 0h-347l60 344l-86 -48l8 41l85 48l54 304h45l-49 -275l123 69l-8 -42l-121 -69l-59 -327h302z" />
    <glyph glyph-name="lslash" unicode="&#x142;" horiz-adv-x="235" 
d="M92 0l60 342l-88 -50l7 42l88 50l62 349h46l-57 -320l109 62l-6 -42l-110 -62l-65 -371h-46z" />
    <glyph glyph-name="Nacute" unicode="&#x143;" horiz-adv-x="684" 
d="M446 767l97 130h55l-108 -130h-44zM548 73l109 616h45l-121 -689h-49l-276 616l-108 -616h-45l121 689h51z" />
    <glyph glyph-name="nacute" unicode="&#x144;" horiz-adv-x="559" 
d="M130 0h-46l82 467h46l-17 -92q28 50 78 76t106 26q85 0 126.5 -55.5t24.5 -147.5l-49 -274h-45l48 274q13 72 -18.5 115t-95.5 43q-72 0 -125 -43t-70 -127zM345 545l99 130h56l-111 -130h-44z" />
    <glyph glyph-name="Ncommaaccent" unicode="&#x145;" horiz-adv-x="684" 
d="M548 73l109 616h45l-121 -689h-49l-276 616l-108 -616h-45l121 689h51zM218 -223q72 69 86 156h51q-25 -108 -102 -161q-2 0 -8 1t-12.5 2t-14.5 2z" />
    <glyph glyph-name="ncommaaccent" unicode="&#x146;" horiz-adv-x="559" 
d="M130 0h-46l82 467h46l-17 -92q28 50 78 76t106 26q85 0 126.5 -55.5t24.5 -147.5l-49 -274h-45l48 274q13 72 -18.5 115t-95.5 43q-72 0 -125 -43t-70 -127zM168 -223q72 69 86 156h51q-25 -108 -102 -161q-2 0 -8 1t-12.5 2t-14.5 2z" />
    <glyph glyph-name="Ncaron" unicode="&#x147;" horiz-adv-x="684" 
d="M590 897h46l-126 -130h-64l-82 130h46l73 -99zM548 73l109 616h45l-121 -689h-49l-276 616l-108 -616h-45l121 689h51z" />
    <glyph glyph-name="ncaron" unicode="&#x148;" horiz-adv-x="559" 
d="M130 0h-46l82 467h46l-17 -92q28 50 78 76t106 26q85 0 126.5 -55.5t24.5 -147.5l-49 -274h-45l48 274q13 72 -18.5 115t-95.5 43q-72 0 -125 -43t-70 -127zM491 675h46l-128 -130h-64l-80 130h46l72 -99z" />
    <glyph glyph-name="napostrophe" unicode="&#x149;" horiz-adv-x="560" 
d="M113 505l-27 7q62 76 66 150h49q-16 -99 -88 -157zM130 0h-46l82 467h46l-17 -92q28 50 78 76t106 26q84 0 125.5 -55t25.5 -148l-48 -274h-46l48 274q13 72 -18.5 115t-95.5 43q-72 0 -125 -43t-70 -127z" />
    <glyph glyph-name="Eng" unicode="&#x14a;" horiz-adv-x="684" 
d="M531 -19l5 19l-280 616l-108 -616h-45l121 689h51l275 -609l107 609h45l-121 -689l-4 -19q-20 -100 -80 -157.5t-159 -57.5q-21 0 -51 6l6 23l6 21q23 -4 47 -4q142 0 185 169z" />
    <glyph glyph-name="eng" unicode="&#x14b;" horiz-adv-x="559" 
d="M432 -18l52 292q13 72 -18.5 115t-95.5 43q-72 0 -125 -43t-70 -127l-45 -262h-46l82 467h46l-17 -92q28 50 78 76t106 26q85 0 126 -55t24 -148l-52 -292q-18 -100 -77.5 -157.5t-160.5 -57.5q-23 0 -51 5l6 22l7 23q22 -5 46 -5q77 0 123.5 45.5t61.5 124.5z" />
    <glyph glyph-name="Omacron" unicode="&#x14c;" horiz-adv-x="805" 
d="M187 343q-23 -128 48 -218q72 -90 198 -90q127 0 230 90q105 91 127 218q23 130 -49 219q-72 90 -199 90q-126 0 -229 -90t-126 -219zM142 343q25 147 144 251q118 103 264 103q145 0 228 -104q82 -103 57 -250q-25 -145 -145 -250q-118 -103 -265 -103q-145 0 -227 103
q-82 102 -56 250zM688 804h-232l8 42h232z" />
    <glyph glyph-name="omacron" unicode="&#x14d;" horiz-adv-x="590" 
d="M155 235q-15 -89 32 -145q48 -55 132 -55t151 55q68 56 83 145t-33 143q-47 54 -131 54q-85 0 -152 -55q-67 -54 -82 -142zM110 235q20 108 101 175q82 67 186 67q103 0 161 -67q59 -68 40 -175q-20 -109 -102 -177q-83 -68 -185 -68q-103 0 -162 68t-39 177zM536 604
h-232l7 42h232z" />
    <glyph glyph-name="Obreve" unicode="&#x14e;" horiz-adv-x="805" 
d="M187 343q-23 -128 48 -218q72 -90 198 -90q127 0 230 90q105 91 127 218q23 130 -49 219q-72 90 -199 90q-126 0 -229 -90t-126 -219zM142 343q25 147 144 251q118 103 264 103q145 0 228 -104q82 -103 57 -250q-25 -145 -145 -250q-118 -103 -265 -103q-145 0 -227 103
q-82 102 -56 250zM661 866h37q-7 -49 -45 -79.5t-91 -30.5q-55 0 -79.5 31t-15.5 79h37q-2 -31 14.5 -51t51.5 -20t59.5 20t31.5 51z" />
    <glyph glyph-name="obreve" unicode="&#x14f;" horiz-adv-x="590" 
d="M155 235q-15 -89 32 -145q48 -55 132 -55t151 55q68 56 83 145t-33 143q-47 54 -131 54q-85 0 -152 -55q-67 -54 -82 -142zM598 235q-20 -109 -102 -177q-83 -68 -185 -68q-103 0 -162 68t-39 177q20 108 101 175q82 67 186 67q103 0 161 -67q59 -68 40 -175zM509 666h37
q-9 -50 -46 -80t-89 -30q-55 0 -80 31.5t-16 78.5h37q-2 -32 14 -51.5t51 -19.5t60.5 20t31.5 51z" />
    <glyph glyph-name="Ohungarumlaut" unicode="&#x150;" horiz-adv-x="805" 
d="M187 343q-23 -128 48 -218q72 -90 198 -90q127 0 230 90q105 91 127 218q23 130 -49 219q-72 90 -199 90q-126 0 -229 -90t-126 -219zM142 343q25 147 144 251q118 103 264 103q145 0 228 -104q82 -103 57 -250q-25 -145 -145 -250q-118 -103 -265 -103q-145 0 -227 103
q-82 102 -56 250zM584 745l97 130h56l-109 -130h-44zM470 745l96 130h52l-102 -130h-46z" />
    <glyph glyph-name="ohungarumlaut" unicode="&#x151;" horiz-adv-x="590" 
d="M426 545l99 130h56l-111 -130h-44zM312 545l98 130h52l-104 -130h-46zM155 235q-15 -89 32 -145q48 -55 132 -55t151 55q68 56 83 145t-33 143q-47 54 -131 54q-85 0 -152 -55q-67 -54 -82 -142zM110 235q20 108 101 175q82 67 186 67q103 0 161 -67q59 -68 40 -175
q-20 -109 -102 -177q-83 -68 -185 -68q-103 0 -162 68t-39 177z" />
    <glyph glyph-name="OE" unicode="&#x152;" horiz-adv-x="1152" 
d="M187 343q-23 -128 48 -218q72 -90 198 -90q130 0 231 91q102 90 125 222q21 127 -51 215q-71 89 -196 89q-126 0 -229 -90t-126 -219zM821 514l30 175h382l-9 -45h-336l-50 -283h294l-8 -46h-294l-47 -270h348l-7 -45h-394l29 172q-59 -83 -148 -133q-88 -49 -186 -49
q-145 0 -227 103q-82 102 -56 250q25 147 144 251q118 103 264 103q97 0 169 -49.5t102 -133.5z" />
    <glyph glyph-name="oe" unicode="&#x153;" horiz-adv-x="1002" 
d="M603 256h372q7 81 -34.5 128.5t-117.5 47.5q-77 0 -138 -48q-61 -47 -82 -128zM551 226l1 9q12 91 -34 143q-46 54 -129 54q-85 0 -152 -55q-67 -54 -82 -142q-15 -89 32 -145q48 -55 132 -55q83 0 154 53q71 54 78 138zM1017 235q0 -2 -4 -21h-417q-8 -80 36 -129.5
t121 -49.5q107 0 178 89l42 -15q-40 -56 -100.5 -87.5t-127.5 -31.5q-72 0 -123 37t-67 101q-40 -64 -105.5 -101t-138.5 -37q-103 0 -162 68t-39 177q20 108 101 175q82 67 186 67q73 0 126 -36.5t71 -99.5q37 63 101 99.5t136 36.5q101 0 153 -67q52 -66 33 -175z" />
    <glyph glyph-name="Racute" unicode="&#x154;" horiz-adv-x="604" 
d="M483 0l-148 278h-137l-49 -278h-46l121 689h254q96 0 132 -60q36 -59 21 -146q-15 -88 -73 -146q-57 -59 -155 -59h-13l148 -278h-55zM470 644h-208l-57 -321h203q73 0 119 44.5t59 115.5q12 68 -16 114q-27 47 -100 47zM394 745l98 130h56l-110 -130h-44z" />
    <glyph glyph-name="racute" unicode="&#x155;" horiz-adv-x="369" 
d="M161 180l-31 -180h-46l82 467h46l-22 -121q60 131 177 131q41 0 66 -13l-15 -44q-25 11 -60 11q-85 0 -136 -85q-42 -69 -61 -166zM194 545l99 130h56l-111 -130h-44z" />
    <glyph glyph-name="Rcommaaccent" unicode="&#x156;" horiz-adv-x="604" 
d="M483 0l-148 278h-137l-49 -278h-46l121 689h254q96 0 132 -60q36 -59 21 -146q-15 -88 -73 -146q-57 -59 -155 -59h-13l148 -278h-55zM470 644h-208l-57 -321h203q73 0 119 44.5t59 115.5q12 68 -16 114q-27 47 -100 47zM189 -223q72 69 86 156h51q-25 -108 -102 -161
q-2 0 -8 1t-12.5 2t-14.5 2z" />
    <glyph glyph-name="rcommaaccent" unicode="&#x157;" horiz-adv-x="369" 
d="M161 180l-31 -180h-46l82 467h46l-22 -121q60 131 177 131q41 0 66 -13l-15 -44q-25 11 -60 11q-85 0 -136 -85q-42 -69 -61 -166zM-12 -223q72 72 84 156h51q-25 -108 -102 -161q-3 0 -33 5z" />
    <glyph glyph-name="Rcaron" unicode="&#x158;" horiz-adv-x="604" 
d="M483 0l-148 278h-137l-49 -278h-46l121 689h254q96 0 132 -60q36 -59 21 -146q-15 -88 -73 -146q-57 -59 -155 -59h-13l148 -278h-55zM470 644h-208l-57 -321h203q73 0 119 44.5t59 115.5q12 68 -16 114q-27 47 -100 47zM547 875h46l-127 -130h-64l-81 130h46l72 -99z
" />
    <glyph glyph-name="rcaron" unicode="&#x159;" horiz-adv-x="369" 
d="M161 180l-31 -180h-46l82 467h46l-22 -121q60 131 177 131q41 0 66 -13l-15 -44q-25 11 -60 11q-85 0 -136 -85q-42 -69 -61 -166zM406 675h46l-128 -130h-64l-80 130h46l72 -99z" />
    <glyph glyph-name="Sacute" unicode="&#x15a;" horiz-adv-x="562" 
d="M96 179h45q-5 -57 36 -101q40 -43 112 -43q76 0 133 36.5t77 89.5q39 126 -116 164l-94 23q-152 35 -128 167q15 78 88 130t156 52q90 0 139 -49q51 -49 39 -131h-45q8 60 -31.5 97.5t-109.5 37.5q-66 0 -123 -39q-56 -39 -67 -98q-16 -95 101 -124l92 -22
q92 -22 131 -76t10 -140q-25 -65 -95 -115q-68 -48 -165 -48q-93 0 -142 57q-50 58 -43 132zM381 745l98 130h56l-110 -130h-44z" />
    <glyph glyph-name="sacute" unicode="&#x15b;" horiz-adv-x="422" 
d="M299 477q59 0 93 -31t30 -86h-45q1 33 -22.5 53t-62.5 20q-40 0 -73 -19t-43 -49q-24 -73 65 -96l63 -16q109 -28 92 -129q-10 -60 -62 -97t-125 -37q-62 0 -103 34q-41 35 -38 95h42q13 -85 110 -85q53 0 88.5 24.5t43.5 65.5q12 66 -66 85l-64 16q-54 14 -81 44
q-29 31 -9 102q15 47 62 76.5t105 29.5zM277 545l99 130h56l-111 -130h-44z" />
    <glyph glyph-name="Scircumflex" unicode="&#x15c;" horiz-adv-x="562" 
d="M96 179h45q-5 -57 36 -101q40 -43 112 -43q76 0 133 36.5t77 89.5q39 126 -116 164l-94 23q-152 35 -128 167q15 78 88 130t156 52q90 0 139 -49q51 -49 39 -131h-45q8 60 -31.5 97.5t-109.5 37.5q-66 0 -123 -39q-56 -39 -67 -98q-16 -95 101 -124l92 -22
q92 -22 131 -76t10 -140q-25 -65 -95 -115q-68 -48 -165 -48q-93 0 -142 57q-50 58 -43 132zM321 745h-46l127 130h64l81 -130h-46l-71 99z" />
    <glyph glyph-name="scircumflex" unicode="&#x15d;" horiz-adv-x="422" 
d="M299 477q59 0 93 -31t30 -86h-45q1 33 -22.5 53t-62.5 20q-40 0 -73 -19t-43 -49q-24 -73 65 -96l63 -16q109 -28 92 -129q-10 -60 -62 -97t-125 -37q-62 0 -103 34q-41 35 -38 95h42q13 -85 110 -85q53 0 88.5 24.5t43.5 65.5q12 66 -66 85l-64 16q-54 14 -81 44
q-29 31 -9 102q15 47 62 76.5t105 29.5zM218 545h-46l128 130h64l80 -130h-46l-73 99z" />
    <glyph glyph-name="Scedilla" unicode="&#x15e;" horiz-adv-x="563" 
d="M152 -97h40q-3 -11 2 -29q5 -20 23.5 -28t40.5 0q38 15 42 48q2 13 -1 24l-15 72h-2q-92 0 -142 57q-50 58 -43 132h45q-5 -57 36 -101q40 -43 112 -43q76 0 133 36.5t77 89.5q39 126 -116 164l-94 23q-152 35 -128 167q15 78 88 130t156 52q90 0 139 -49q51 -49 39 -131
h-45q8 60 -31.5 97.5t-109.5 37.5q-66 0 -123 -39q-56 -39 -67 -98q-16 -95 101 -124l92 -22q92 -22 131 -76t10 -140q-22 -56 -80 -104q-58 -46 -137 -56l14 -59q9 -38 -11.5 -74t-60.5 -51q-39 -15 -71.5 0t-42.5 52q-4 26 -1 42z" />
    <glyph glyph-name="scedilla" unicode="&#x15f;" horiz-adv-x="422" 
d="M226 -82l-15 72h-2q-62 0 -103 34q-41 35 -38 95h42q13 -85 110 -85q53 0 88.5 24.5t43.5 65.5q12 65 -65 85l-65 16q-54 14 -81 44q-29 31 -9 102q15 47 62 76.5t105 29.5q59 0 93 -31t30 -86h-45q1 33 -22.5 53t-62.5 20q-40 0 -73 -19t-43 -49q-24 -73 65 -96l63 -16
q109 -28 92 -129q-9 -50 -48 -85t-95 -45l13 -60q10 -38 -11 -74t-61 -51q-39 -15 -71.5 0t-42.5 52q-3 22 -1 42h40q-3 -11 2 -29q5 -20 23.5 -28t40.5 0q37 15 42 48q2 13 -1 24z" />
    <glyph glyph-name="Scaron" unicode="&#x160;" horiz-adv-x="562" 
d="M96 179h45q-5 -57 36 -101q40 -43 112 -43q76 0 133 36.5t77 89.5q39 126 -116 164l-94 23q-152 35 -128 167q15 78 88 130t156 52q90 0 139 -49q51 -49 39 -131h-45q8 60 -31.5 97.5t-109.5 37.5q-66 0 -123 -39q-56 -39 -67 -98q-16 -95 101 -124l92 -22
q92 -22 131 -76t10 -140q-25 -65 -95 -115q-68 -48 -165 -48q-93 0 -142 57q-50 58 -43 132zM535 875h46l-127 -130h-64l-81 130h46l73 -99z" />
    <glyph glyph-name="scaron" unicode="&#x161;" horiz-adv-x="422" 
d="M299 477q59 0 93 -31t30 -86h-45q1 33 -22.5 53t-62.5 20q-40 0 -73 -19t-43 -49q-24 -73 65 -96l63 -16q109 -28 92 -129q-10 -60 -62 -97t-125 -37q-62 0 -103 34q-41 35 -38 95h42q13 -85 110 -85q53 0 88.5 24.5t43.5 65.5q12 66 -66 85l-64 16q-54 14 -81 44
q-29 31 -9 102q15 47 62 76.5t105 29.5zM422 675h46l-128 -130h-64l-80 130h46l72 -99z" />
    <glyph glyph-name="Tcommaaccent" unicode="&#x162;" horiz-adv-x="556" 
d="M368 644h-228l8 45h502l-8 -45h-229l-113 -644h-45zM157 -223q72 69 86 156h51q-24 -108 -102 -161z" />
    <glyph glyph-name="tcommaaccent" unicode="&#x163;" horiz-adv-x="293" 
d="M239 467h109l-7 -41h-109l-75 -426h-45l75 426h-85l7 41h85l34 188h45zM12 -223q72 69 86 156h51q-25 -108 -102 -161q-2 0 -8 1t-12.5 2t-14.5 2z" />
    <glyph glyph-name="Tcaron" unicode="&#x164;" horiz-adv-x="556" 
d="M368 644h-228l8 45h502l-8 -45h-229l-113 -644h-45zM522 875h46l-127 -130h-64l-81 130h46l73 -99z" />
    <glyph glyph-name="tcaron" unicode="&#x165;" horiz-adv-x="293" 
d="M368 678h49q-19 -104 -92 -163l-28 10q60 63 71 153zM341 426h-109l-75 -426h-45l75 426h-85l7 41h85l34 188h45l-34 -188h109z" />
    <glyph glyph-name="Tbar" unicode="&#x166;" horiz-adv-x="556" 
d="M300 0h-45l63 358h-131l7 39h131l43 247h-228l8 45h502l-8 -45h-229l-43 -247h131l-7 -39h-131z" />
    <glyph glyph-name="tbar" unicode="&#x167;" horiz-adv-x="297" 
d="M199 234l-40 -234h-45l40 234h-68l7 38h68l28 154h-85l7 41h85l34 188h45l-34 -188h109l-7 -41h-109l-28 -154h77l-7 -38h-77z" />
    <glyph glyph-name="Utilde" unicode="&#x168;" horiz-adv-x="673" 
d="M672 689h46l-82 -460q-20 -107 -101 -174q-81 -66 -182 -66t-159 67t-39 173l82 460h44l-81 -460q-15 -85 32 -140q46 -54 129 -54q82 0 148 54q67 53 82 140zM452 816q-14 0 -27 -12.5t-17 -32.5h-39q9 39 34 62.5t51 23.5h9q19 0 45 -21t39 -21q14 0 26.5 11t17.5 32
h39q-9 -39 -33 -62t-50 -23q-21 0 -51 21q-29 22 -44 22z" />
    <glyph glyph-name="utilde" unicode="&#x169;" horiz-adv-x="560" 
d="M528 467h46l-82 -467h-46l16 92q-28 -50 -78 -76t-106 -26q-84 0 -125 55t-25 148l48 274h46l-48 -274q-13 -72 18.5 -115t94.5 -43q72 0 125 43t70 127zM363 616q-14 0 -26 -11.5t-17 -33.5h-39q9 39 33 62.5t50 23.5h9q19 0 45 -21t40 -21t26.5 11t17.5 32h39
q-9 -39 -33.5 -62t-50.5 -23q-21 0 -51 21q-28 22 -43 22z" />
    <glyph glyph-name="Umacron" unicode="&#x16a;" horiz-adv-x="673" 
d="M672 689h46l-82 -460q-20 -107 -101 -174q-81 -66 -182 -66t-159 67t-39 173l82 460h44l-81 -460q-15 -85 32 -140q46 -54 129 -54q82 0 148 54q67 53 82 140zM612 804h-232l9 42h232z" />
    <glyph glyph-name="umacron" unicode="&#x16b;" horiz-adv-x="560" 
d="M528 467h46l-82 -467h-46l16 92q-28 -50 -78 -76t-106 -26q-84 0 -125 55t-25 148l48 274h46l-48 -274q-13 -72 18.5 -115t94.5 -43q72 0 125 43t70 127zM526 604h-232l7 42h232z" />
    <glyph glyph-name="Ubreve" unicode="&#x16c;" horiz-adv-x="673" 
d="M672 689h46l-82 -460q-20 -107 -101 -174q-81 -66 -182 -66t-159 67t-39 173l82 460h44l-81 -460q-15 -85 32 -140q46 -54 129 -54q82 0 148 54q67 53 82 140zM587 866h37q-7 -49 -45 -79.5t-91 -30.5q-55 0 -79.5 31t-15.5 79h37q-2 -31 14.5 -51t51.5 -20t59.5 20
t31.5 51z" />
    <glyph glyph-name="ubreve" unicode="&#x16d;" horiz-adv-x="560" 
d="M528 467h46l-82 -467h-46l16 92q-28 -50 -78 -76t-106 -26q-84 0 -125 55t-25 148l48 274h46l-48 -274q-13 -72 18.5 -115t94.5 -43q72 0 125 43t70 127zM499 666h37q-9 -50 -46.5 -80t-89.5 -30q-55 0 -79.5 31t-15.5 79h37q-3 -31 13.5 -51t51.5 -20t60 20t32 51z" />
    <glyph glyph-name="Uring" unicode="&#x16e;" horiz-adv-x="673" 
d="M672 689h46l-82 -460q-20 -107 -101 -174q-81 -66 -182 -66t-159 67t-39 173l82 460h44l-81 -460q-15 -85 32 -140q46 -54 129 -54q82 0 148 54q67 53 82 140zM417 844q7 38 36.5 64t65.5 26q38 0 60 -26t15 -64q-7 -37 -38 -62.5t-69 -25.5q-36 0 -56.5 25.5t-13.5 62.5
zM453 844q-4 -21 8.5 -35.5t34.5 -14.5t39 14.5t21 35.5q4 22 -8 37t-34 15t-39.5 -15t-21.5 -37z" />
    <glyph glyph-name="uring" unicode="&#x16f;" horiz-adv-x="560" 
d="M528 467h46l-82 -467h-46l16 92q-28 -50 -78 -76t-106 -26q-84 0 -125 55t-25 148l48 274h46l-48 -274q-13 -72 18.5 -115t94.5 -43q72 0 125 43t70 127zM431 734q38 0 59 -26t14 -64q-7 -37 -37 -62.5t-68 -25.5q-36 0 -57.5 25.5t-14.5 62.5t37.5 63.5t66.5 26.5z
M364 644q-4 -21 8.5 -35.5t34.5 -14.5t39 14.5t21 35.5q4 22 -8.5 37t-34.5 15t-38.5 -14.5t-21.5 -37.5z" />
    <glyph glyph-name="Uhungarumlaut" unicode="&#x170;" horiz-adv-x="673" 
d="M672 689h46l-82 -460q-20 -107 -101 -174q-81 -66 -182 -66t-159 67t-39 173l82 460h44l-81 -460q-15 -85 32 -140q46 -54 129 -54q82 0 148 54q67 53 82 140zM508 745l98 130h56l-110 -130h-44zM394 745l97 130h52l-103 -130h-46z" />
    <glyph glyph-name="uhungarumlaut" unicode="&#x171;" horiz-adv-x="560" 
d="M528 467h46l-82 -467h-46l16 92q-28 -50 -78 -76t-106 -26q-84 0 -125 55t-25 148l48 274h46l-48 -274q-13 -72 18.5 -115t94.5 -43q72 0 125 43t70 127zM408 545l98 130h56l-110 -130h-44zM294 545l97 130h52l-103 -130h-46z" />
    <glyph glyph-name="Uogonek" unicode="&#x172;" horiz-adv-x="675" 
d="M445 -97h40q-5 -24 -15 -42q-23 -37 -60.5 -51.5t-71.5 -0.5q-35 16 -43 51.5t15 73.5l32 55q-97 4 -152 70q-54 66 -36 170l81 460h45l-81 -460q-15 -85 32 -140q47 -54 129 -54t148 54q67 53 82 140l81 460h45l-81 -460q-16 -96 -88 -162t-161 -76l-42 -73
q-9 -15 -11 -24q-5 -33 26 -48q18 -8 40.5 0t35.5 28q6 12 10 29z" />
    <glyph glyph-name="uogonek" unicode="&#x173;" horiz-adv-x="560" 
d="M543 -97h40q-5 -19 -15 -42q-24 -37 -61.5 -51.5t-71.5 -0.5q-35 16 -43 51.5t15 73.5l39 66l16 92q-28 -50 -78 -76t-106 -26q-84 0 -125 55t-25 148l48 274h46l-48 -274q-13 -72 18.5 -115t94.5 -43q72 0 125 43t70 127l46 262h46l-82 -467h-4l-47 -82q-8 -15 -10 -24
q-5 -33 26 -48q18 -8 40 0t35 28q6 8 11 29z" />
    <glyph glyph-name="Wcircumflex" unicode="&#x174;" horiz-adv-x="918" 
d="M584 587l59 -520l319 622h48l-355 -689h-48l-59 507l-238 -507h-47l-113 689h47l99 -622l244 520h44zM500 745h-46l127 130h64l81 -130h-46l-72 99z" />
    <glyph glyph-name="wcircumflex" unicode="&#x175;" horiz-adv-x="817" 
d="M599 70l220 397h48l-257 -467h-42l-88 417l-229 -417h-42l-98 467h49l80 -398l220 398h59zM413 545h-46l127 130h64l81 -130h-46l-73 99z" />
    <glyph glyph-name="Ycircumflex" unicode="&#x176;" horiz-adv-x="602" 
d="M651 689h54l-324 -363l-57 -326h-46l57 326l-194 363h54l172 -316zM343 745h-46l127 130h64l81 -130h-46l-72 99z" />
    <glyph glyph-name="ycircumflex" unicode="&#x177;" horiz-adv-x="500" 
d="M507 467h49l-421 -693h-45l134 224l-114 469h48l101 -412zM258 545h-46l127 130h64l81 -130h-46l-73 99z" />
    <glyph glyph-name="Ydieresis" unicode="&#x178;" horiz-adv-x="602" 
d="M651 689h54l-324 -363l-57 -326h-46l57 326l-194 363h54l172 -316zM327 829q3 16 16.5 26.5t29.5 10.5q29 2 32 -25t-19 -42q-12 -7 -26 -6q-16 0 -26 10.5t-7 25.5zM490 829q3 16 16.5 26.5t29.5 10.5q29 2 32 -25t-19 -42q-12 -7 -26 -6q-16 0 -26 10.5t-7 25.5z" />
    <glyph glyph-name="Zacute" unicode="&#x179;" horiz-adv-x="538" 
d="M610 650l-504 -604h396l-7 -46h-455l5 37l505 606h-391l8 46h449zM358 745l98 130h56l-110 -130h-44z" />
    <glyph glyph-name="zacute" unicode="&#x17a;" horiz-adv-x="479" 
d="M114 45h326l-7 -45h-391l5 36l393 386h-317l8 45h384l-7 -37zM291 545l99 130h56l-111 -130h-44z" />
    <glyph glyph-name="Zdotaccent" unicode="&#x17b;" horiz-adv-x="538" 
d="M610 650l-504 -604h396l-7 -46h-455l5 37l505 606h-391l8 46h449zM374 829q3 16 16.5 26.5t29.5 10.5q29 2 32 -25t-19 -42q-12 -7 -26 -6q-16 0 -26 10.5t-7 25.5z" />
    <glyph glyph-name="zdotaccent" unicode="&#x17c;" horiz-adv-x="479" 
d="M433 0h-391l5 36l393 386h-317l8 45h384l-7 -37l-394 -385h326zM309 629q3 16 16 26.5t29 10.5q30 2 33 -25q4 -27 -19 -42q-11 -7 -26 -6q-16 0 -26 10.5t-7 25.5z" />
    <glyph glyph-name="Zcaron" unicode="&#x17d;" horiz-adv-x="538" 
d="M610 650l-504 -604h396l-7 -46h-455l5 37l505 606h-391l8 46h449zM511 875h46l-127 -130h-64l-81 130h46l72 -99z" />
    <glyph glyph-name="zcaron" unicode="&#x17e;" horiz-adv-x="479" 
d="M114 45h326l-7 -45h-391l5 36l393 386h-317l8 45h384l-7 -37zM447 675h46l-128 -130h-64l-80 130h46l72 -99z" />
    <glyph glyph-name="longs" unicode="&#x17f;" horiz-adv-x="271" 
d="M122 0l75 426h-94l7 41h94l12 68q36 198 195 198h41l-9 -44h-41q-113 0 -141 -154l-94 -535h-45z" />
    <glyph glyph-name="florin" unicode="&#x192;" horiz-adv-x="594" 
d="M424 426l-160 -442q-35 -98 -90.5 -148t-141.5 -50h-38l13 44h41q115 0 170 154l160 442h-93l15 41h94l24 68q37 99 91 148.5t140 49.5h41l-17 -44h-41q-113 0 -168 -154l-25 -68h125l-15 -41h-125z" />
    <glyph glyph-name="Aringacute" unicode="&#x1fa;" horiz-adv-x="626" 
d="M452 794q22 0 39.5 14.5t21.5 36.5t-8.5 37t-34.5 15q-21 0 -38 -15t-21 -37t8 -36.5t33 -14.5zM455 931l82 108h55l-92 -109q27 -8 41.5 -32t9.5 -54q-7 -37 -37.5 -62.5t-68.5 -25.5q-37 0 -57.5 25.5t-13.5 62.5q6 32 28.5 56t52.5 31zM201 229h305l-82 397zM553 0
l-40 187h-336l-104 -187h-48l385 689h48l143 -689h-48z" />
    <glyph glyph-name="aringacute" unicode="&#x1fb;" 
d="M555 0h-46l17 101q-37 -51 -96 -81t-122 -30q-101 0 -159 70q-59 70 -39 174q20 105 101 173q82 70 183 70q63 0 111.5 -29.5t67.5 -80.5l17 100h46zM316 36q82 0 149 54q68 56 84 139q15 88 -33 145t-130 57t-149 -57q-66 -55 -81 -140q-15 -83 32 -141q47 -57 128 -57z
M423 584q22 0 39.5 14.5t21.5 36.5q5 22 -7 37t-34 15q-21 0 -39 -15t-22 -37t8 -36.5t33 -14.5zM427 721l82 108h55l-92 -109q27 -8 41.5 -32t8.5 -54q-7 -37 -37.5 -62.5t-67.5 -25.5t-58 25.5t-14 62.5q6 32 29 56t53 31z" />
    <glyph glyph-name="AEacute" unicode="&#x1fc;" horiz-adv-x="959" 
d="M69 0h-54l567 689h432l-8 -45h-337l-50 -283h295l-8 -46h-295l-48 -270h349l-7 -45h-394l33 189h-320zM259 233h292l73 411h-23zM612 745l98 130h56l-110 -130h-44z" />
    <glyph glyph-name="aeacute" unicode="&#x1fd;" horiz-adv-x="999" 
d="M569 85l-14 -85h-46l17 101q-37 -51 -96 -81t-122 -30q-101 0 -159 70q-59 70 -39 174q20 105 101 173q82 70 183 70q63 0 111.5 -29.5t67.5 -80.5l17 100h46l-14 -84q82 94 206 94q101 0 153 -67q52 -66 33 -175q0 -2 -4 -21h-417q-8 -80 36 -129.5t121 -49.5
q107 0 178 89l42 -15q-40 -56 -100.5 -87.5t-127.5 -31.5q-59 0 -104.5 25t-68.5 70zM316 36q82 0 149 54q68 56 84 139q15 88 -33 145t-130 57t-149 -57q-66 -55 -81 -140q-15 -83 32 -141q47 -57 128 -57zM600 256h372q7 81 -34.5 128.5t-117.5 47.5t-138 -48
q-61 -47 -82 -128zM600 545l99 130h56l-111 -130h-44z" />
    <glyph glyph-name="Oslashacute" unicode="&#x1fe;" horiz-adv-x="804" 
d="M513 745l98 130h56l-110 -130h-44zM407 35q127 0 230 90t126 218q21 116 -37 203l-505 -436q72 -75 186 -75zM160 343q-20 -118 38 -205l504 435q-69 79 -186 79q-127 0 -230 -90q-104 -90 -126 -219zM184 78l-103 -88l-23 27l103 89q-70 100 -46 237q25 145 145 250
q119 104 264 104q135 0 217 -91l107 92l23 -27l-109 -93q70 -100 46 -235q-25 -145 -145 -250q-118 -103 -265 -103q-135 0 -214 88z" />
    <glyph glyph-name="oslashacute" unicode="&#x1ff;" horiz-adv-x="589" 
d="M371 432q-85 0 -152 -55q-66 -53 -83 -142q-13 -75 22 -129l331 285q-47 41 -118 41zM301 35q84 0 151 55q68 56 83 145q13 76 -23 129l-332 -286q46 -43 121 -43zM142 46l-65 -56l-23 27l65 56q-43 65 -27 162q20 108 101 175q82 67 186 67q91 0 148 -54l66 57l22 -27
l-64 -56q44 -66 28 -162q-19 -109 -102 -177t-185 -68q-91 0 -150 56zM363 545l99 130h56l-111 -130h-44z" />
    <glyph glyph-name="Scommaaccent" unicode="&#x218;" horiz-adv-x="562" 
d="M96 179h45q-5 -57 36 -101q40 -43 112 -43q76 0 133 36.5t77 89.5q39 126 -116 164l-94 23q-152 35 -128 167q15 78 88 130t156 52q90 0 139 -49q51 -49 39 -131h-45q8 60 -31.5 97.5t-109.5 37.5q-66 0 -123 -39q-56 -39 -67 -98q-16 -95 101 -124l92 -22
q92 -22 131 -76t10 -140q-25 -65 -95 -115q-68 -48 -165 -48q-93 0 -142 57q-50 58 -43 132zM169 -223q73 69 87 156h51q-25 -109 -103 -161q-2 0 -8 1t-12.5 2t-14.5 2z" />
    <glyph glyph-name="scommaaccent" unicode="&#x219;" horiz-adv-x="422" 
d="M299 477q59 0 93 -31t30 -86h-45q1 33 -22.5 53t-62.5 20q-40 0 -73 -19t-43 -49q-24 -73 65 -96l63 -16q109 -28 92 -129q-10 -60 -62 -97t-125 -37q-62 0 -103 34q-41 35 -38 95h42q13 -85 110 -85q53 0 88.5 24.5t43.5 65.5q12 66 -66 85l-64 16q-54 14 -81 44
q-29 31 -9 102q15 47 62 76.5t105 29.5zM93 -223q72 69 86 156h51q-25 -108 -102 -161q-2 0 -8 1t-12.5 2t-14.5 2z" />
    <glyph glyph-name="circumflex" unicode="&#x2c6;" horiz-adv-x="482" 
d="M246 545h-46l128 130h64l80 -130h-46l-73 99z" />
    <glyph glyph-name="caron" unicode="&#x2c7;" horiz-adv-x="482" 
d="M450 675h46l-128 -130h-64l-80 130h46l72 -99z" />
    <glyph glyph-name="breve" unicode="&#x2d8;" horiz-adv-x="509" 
d="M458 666h37q-9 -50 -46 -80t-89 -30q-55 0 -80 31.5t-16 78.5h37q-2 -32 14 -51.5t51 -19.5t60.5 20t31.5 51z" />
    <glyph glyph-name="dotaccent" unicode="&#x2d9;" horiz-adv-x="479" 
d="M314 629q3 16 16 26.5t29 10.5q17 0 27 -10.5t7 -26.5t-16.5 -26t-30.5 -10q-16 0 -25.5 10.5t-6.5 25.5z" />
    <glyph glyph-name="ring" unicode="&#x2da;" horiz-adv-x="497" 
d="M280 644q7 37 38 63.5t67 26.5q38 0 58.5 -26t13.5 -64q-7 -37 -36.5 -62.5t-67.5 -25.5q-36 0 -58 26t-15 62zM317 644q-4 -21 8.5 -35.5t34.5 -14.5t39 14.5t21 35.5q4 22 -8.5 37t-34.5 15t-38.5 -14.5t-21.5 -37.5z" />
    <glyph glyph-name="ogonek" unicode="&#x2db;" horiz-adv-x="506" 
d="M301 -97h40q-5 -24 -16 -42q-23 -37 -60.5 -51.5t-71.5 -0.5q-35 16 -43 51.5t15 73.5l46 80h42l-54 -96q-8 -15 -10 -24q-5 -33 26 -48q18 -8 40 0t35 28q6 8 11 29z" />
    <glyph glyph-name="tilde" unicode="&#x2dc;" horiz-adv-x="451" 
d="M286 616q-14 0 -26.5 -12t-16.5 -33h-39q9 39 32.5 62.5t49.5 23.5h9q19 0 46 -21t40 -21q14 0 26.5 11.5t16.5 31.5h39q-8 -39 -32 -62t-51 -23q-21 0 -51 21q-28 22 -43 22z" />
    <glyph glyph-name="hungarumlaut" unicode="&#x2dd;" horiz-adv-x="405" 
d="M289 545l99 130h56l-111 -130h-44zM175 545l98 130h52l-104 -130h-46z" />
    <glyph glyph-name="Wgrave" unicode="&#x1e80;" horiz-adv-x="918" 
d="M962 689h48l-355 -689h-48l-59 507l-238 -507h-47l-113 689h47l99 -622l244 520h44l59 -520zM591 745h-45l-63 130h55z" />
    <glyph glyph-name="wgrave" unicode="&#x1e81;" horiz-adv-x="817" 
d="M867 467l-257 -467h-42l-88 417l-229 -417h-42l-98 467h49l80 -398l220 398h59l80 -397l220 397h48zM521 545h-45l-63 130h55z" />
    <glyph glyph-name="Wacute" unicode="&#x1e82;" horiz-adv-x="918" 
d="M584 587l59 -520l319 622h48l-355 -689h-48l-59 507l-238 -507h-47l-113 689h47l99 -622l244 520h44zM585 745l98 130h56l-110 -130h-44z" />
    <glyph glyph-name="wacute" unicode="&#x1e83;" horiz-adv-x="817" 
d="M599 70l220 397h48l-257 -467h-42l-88 417l-229 -417h-42l-98 467h49l80 -398l220 398h59zM487 545l98 130h56l-110 -130h-44z" />
    <glyph glyph-name="Wdieresis" unicode="&#x1e84;" horiz-adv-x="918" 
d="M962 689h48l-355 -689h-48l-59 507l-238 -507h-47l-113 689h47l99 -622l244 520h44l59 -520zM484 829q3 16 16.5 26.5t29.5 10.5q29 2 32 -25t-19 -42q-12 -7 -26 -6q-16 0 -26 10.5t-7 25.5zM647 829q3 16 16.5 26.5t29.5 10.5q29 2 32 -25t-19 -42q-12 -7 -26 -6
q-16 0 -26 10.5t-7 25.5z" />
    <glyph glyph-name="wdieresis" unicode="&#x1e85;" horiz-adv-x="817" 
d="M867 467l-257 -467h-42l-88 417l-229 -417h-42l-98 467h49l80 -398l220 398h59l80 -397l220 397h48zM397 629q3 16 16.5 26.5t29.5 10.5q29 2 32 -25t-19 -42q-12 -7 -26 -6q-16 0 -26 10.5t-7 25.5zM560 629q3 16 16.5 26.5t29.5 10.5q29 2 32 -25t-19 -42
q-12 -7 -26 -6q-16 0 -26 10.5t-7 25.5z" />
    <glyph glyph-name="Ygrave" unicode="&#x1ef2;" horiz-adv-x="602" 
d="M651 689h54l-324 -363l-57 -326h-46l57 326l-194 363h54l172 -316zM466 745h-45l-63 130h55z" />
    <glyph glyph-name="ygrave" unicode="&#x1ef3;" horiz-adv-x="500" 
d="M135 -226h-45l134 224l-114 469h48l101 -412l248 412h49zM395 545h-45l-63 130h55z" />
    <glyph glyph-name="thinspace" unicode="&#x2009;" horiz-adv-x="14" 
 />
    <glyph glyph-name="endash" unicode="&#x2013;" horiz-adv-x="585" 
d="M549 204h-443l7 42h443z" />
    <glyph glyph-name="emdash" unicode="&#x2014;" horiz-adv-x="792" 
d="M756 204h-650l7 42h650z" />
    <glyph glyph-name="quoteleft" unicode="&#x2018;" horiz-adv-x="222" 
d="M265 698q3 -2 29 -11q-76 -81 -93 -195h-45q24 121 109 206z" />
    <glyph glyph-name="quoteright" unicode="&#x2019;" horiz-adv-x="223" 
d="M174 484l-26 11q75 87 91 194h45q-26 -124 -110 -205z" />
    <glyph glyph-name="quotesinglbase" unicode="&#x201a;" horiz-adv-x="216" 
d="M49 -78q-2 0 -14 5t-14 6q76 85 92 194h45q-24 -123 -109 -205z" />
    <glyph glyph-name="quotedblleft" unicode="&#x201c;" horiz-adv-x="325" 
d="M368 698l29 -11q-77 -81 -93 -195h-45q24 121 109 206zM265 698q3 -2 29 -11q-76 -81 -93 -195h-45q24 124 109 206z" />
    <glyph glyph-name="quotedblright" unicode="&#x201d;" horiz-adv-x="325" 
d="M173 483l-26 11q75 87 91 195h45q-25 -121 -110 -206zM276 483l-26 11q75 87 91 195h45q-26 -125 -110 -206z" />
    <glyph glyph-name="quotedblbase" unicode="&#x201e;" horiz-adv-x="319" 
d="M48 -78l-27 11q75 85 91 194h45q-24 -123 -109 -205zM151 -78l-27 11q75 85 91 194h45q-25 -124 -109 -205z" />
    <glyph glyph-name="dagger" unicode="&#x2020;" horiz-adv-x="402" 
d="M299 689h45l-35 -196h132l-7 -46h-132l-104 -579h-45l104 579h-131l7 46h131z" />
    <glyph glyph-name="daggerdbl" unicode="&#x2021;" horiz-adv-x="428" 
d="M312 689h45l-35 -196h132l-7 -46h-132l-57 -311h132l-7 -45h-132l-40 -223h-45l40 223h-131l7 45h131l57 311h-131l7 46h131z" />
    <glyph glyph-name="bullet" unicode="&#x2022;" horiz-adv-x="436" 
d="M140 236q9 52 52 86q44 35 97 35q52 0 84 -35t23 -86q-9 -52 -53 -87t-96 -35q-54 0 -85 35t-22 87z" />
    <glyph glyph-name="ellipsis" unicode="&#x2026;" horiz-adv-x="658" 
d="M82 28q3 17 17 28t31 11q18 0 28 -11t7 -28q-4 -29 -37 -36q-32 -6 -44 14q-5 9 -2 22zM295 28q3 17 17 28t31 11q18 0 28 -11t7 -28q-4 -29 -37 -36q-32 -6 -44 14q-5 9 -2 22zM508 28q5 30 37 37q31 6 43 -16q4 -9 2 -21q-4 -29 -37 -36q-31 -6 -43 14q-5 9 -2 22z" />
    <glyph glyph-name="perthousand" unicode="&#x2030;" horiz-adv-x="959" 
d="M644 668l-443 -668h-39l444 668h38zM148 552q9 50 50 85q40 36 92 36q50 0 79 -36q29 -35 20 -85q-9 -52 -51 -86q-40 -34 -92 -34q-51 0 -79 34.5t-19 85.5zM281 628q-32 0 -57.5 -22t-30.5 -54t12 -53.5t49 -21.5q33 0 59 21.5t31 53.5t-13.5 54t-49.5 22zM564 234
q50 0 80 -36q30 -35 21 -85q-9 -51 -50 -86q-40 -34 -92 -34t-80 34t-19 86q9 51 49 86t91 35zM620 113q6 31 -12.5 53.5t-50.5 22.5t-57 -22t-31 -54t12 -53.5t50 -21.5t57.5 21.5t31.5 53.5zM850 234q50 0 80 -36q30 -35 21 -85q-9 -51 -50 -86q-40 -34 -92 -34t-80 34
t-19 86q9 51 49 86t91 35zM906 113q6 31 -12.5 53.5t-50.5 22.5t-57 -22t-31 -54t12 -53.5t50 -21.5t57.5 21.5t31.5 53.5z" />
    <glyph glyph-name="guilsinglleft" unicode="&#x2039;" horiz-adv-x="297" 
d="M143 232l102 -207h-50l-102 207l175 207h50z" />
    <glyph glyph-name="guilsinglright" unicode="&#x203a;" horiz-adv-x="297" 
d="M284 232l-174 -207h-50l174 207l-100 207h50z" />
    <glyph glyph-name="fraction" unicode="&#x2044;" horiz-adv-x="180" 
d="M-162 -10l568 683h49l-568 -683h-49z" />
    <glyph glyph-name="zerosuperior" unicode="&#x2070;" horiz-adv-x="359" 
d="M352 873q136 0 98 -202q-18 -99 -58 -150.5t-112 -51.5q-138 0 -101 202q18 99 59 150.5t114 51.5zM288 509q50 0 78.5 41t43.5 121q28 162 -65 162q-97 0 -126 -162t69 -162z" />
    <glyph glyph-name="foursuperior" unicode="&#x2074;" horiz-adv-x="355" 
d="M368 592h60l-6 -37h-60l-15 -84h-39l15 84h-207l273 312h29zM192 592h137l37 200z" />
    <glyph glyph-name="fivesuperior" unicode="&#x2075;" horiz-adv-x="342" 
d="M237 867h195l-7 -39h-161l-47 -130q47 21 85 21q55 0 86.5 -34t21.5 -90q-11 -58 -56 -93.5t-110 -35.5q-39 0 -70.5 23t-44.5 60l38 23q7 -29 31 -47.5t54 -18.5q47 0 79.5 25t38.5 64q7 38 -15 61t-59 23q-48 0 -123 -32l-8 13z" />
    <glyph glyph-name="sixsuperior" unicode="&#x2076;" horiz-adv-x="339" 
d="M159 599q12 92 31 146q41 125 156 129q78 -4 94 -71l-37 -16q-15 48 -65 48q-54 1 -88 -49q-33 -51 -40 -120q29 58 104 56q52 -1 80 -41q28 -39 16 -92t-56 -89q-44 -35 -95 -33q-52 2 -79.5 37.5t-20.5 94.5zM199 598q-7 -38 12.5 -63.5t55.5 -27.5q36 -1 66 23t38 61
t-10.5 63t-54.5 28q-37 2 -68.5 -22.5t-38.5 -61.5z" />
    <glyph glyph-name="sevensuperior" unicode="&#x2077;" horiz-adv-x="316" 
d="M191 867h262l-287 -396h-47l260 357h-195z" />
    <glyph glyph-name="eightsuperior" unicode="&#x2078;" horiz-adv-x="345" 
d="M218 776q8 41 41.5 69t76.5 28q44 0 69 -28t17 -69q-9 -48 -51 -75q29 -15 42 -44t7 -65q-11 -53 -55 -90q-43 -36 -101 -36t-89 36q-32 38 -22 90q6 35 30 64.5t58 45.5q-33 29 -23 74zM192 592q-6 -37 16 -62q23 -25 63 -25t72 25q33 24 38.5 61.5t-17 64.5t-61.5 25
q-40 0 -73 -27q-32 -27 -38 -62zM257 776q-5 -27 10.5 -44t44.5 -16q25 0 45.5 18t24.5 42t-10.5 40.5t-41.5 16.5q-26 0 -47.5 -17t-25.5 -40z" />
    <glyph glyph-name="ninesuperior" unicode="&#x2079;" horiz-adv-x="339" 
d="M423 740q-12 -94 -31 -146q-43 -127 -157 -128q-78 2 -95 71l38 14q12 -46 67 -47q54 -2 86 48t41 120q-15 -27 -43 -41.5t-60 -13.5q-53 2 -81 40q-28 39 -17 93q11 53 55 88q43 36 97 34q51 -2 78.5 -37.5t21.5 -94.5zM383 741q7 38 -13 63.5t-56 27.5q-26 3 -50.5 -12
t-38 -39t-17.5 -50t13 -46q17 -27 53.5 -28t69 23t39.5 61z" />
    <glyph glyph-name="zeroinferior" unicode="&#x2080;" horiz-adv-x="359" 
d="M257 224q51 0 77 -27.5t27.5 -72.5t-7.5 -102q-18 -100 -58 -151t-111 -51q-138 0 -102 202t174 202zM192 -140q50 0 78.5 41t43.5 121q28 162 -65 162q-97 0 -126 -162t69 -162z" />
    <glyph glyph-name="oneinferior" unicode="&#x2081;" horiz-adv-x="194" 
d="M59 185l115 39l-70 -396h-40l61 342l-72 -24z" />
    <glyph glyph-name="twoinferior" unicode="&#x2082;" horiz-adv-x="320" 
d="M233 14l-149 -147h168l-6 -39h-237l2 16l198 197q39 37 46 74q6 33 -13 53.5t-54 20.5q-31 0 -57.5 -17.5t-36.5 -46.5l-35 10q16 43 53.5 68.5t82.5 25.5q51 0 80 -32t20 -82q-7 -48 -62 -101z" />
    <glyph glyph-name="threeinferior" unicode="&#x2083;" horiz-adv-x="325" 
d="M245 117q8 30 -6.5 49.5t-47.5 22.5q-52 5 -85 -38q-8 4 -29 21q22 28 55 43.5t69 13.5q50 -4 73.5 -35t14.5 -76q-5 -24 -23.5 -45t-43.5 -32q30 -9 44 -41t5 -68q-13 -50 -60 -81q-46 -32 -99 -28q-78 5 -101 73q4 1 20 11l18 9q13 -49 73 -54q38 -3 69.5 19t40.5 57
q7 35 -13.5 58.5t-56.5 23.5h-41l6 39h41q26 0 48 16.5t29 41.5z" />
    <glyph glyph-name="fourinferior" unicode="&#x2084;" horiz-adv-x="354" 
d="M255 -51h60l-6 -38h-60l-15 -83h-39l15 83h-207l273 313h29zM79 -51h137l36 200z" />
    <glyph glyph-name="fiveinferior" unicode="&#x2085;" horiz-adv-x="340" 
d="M123 224h195l-7 -40h-161l-47 -129q48 21 85 21q55 0 86.5 -34t21.5 -90q-11 -59 -56 -94.5t-110 -35.5q-39 0 -71 23t-45 60l38 24q7 -29 31 -48t54 -19q47 0 79 25t39 65q7 38 -15 61t-59 23q-48 0 -123 -33l-8 14z" />
    <glyph glyph-name="sixinferior" unicode="&#x2086;" horiz-adv-x="339" 
d="M43 -44q12 94 31 145q42 126 156 129q77 -2 95 -71l-38 -15q-15 46 -65 48q-53 1 -87 -49t-41 -120q15 27 43.5 42t60.5 14q53 -2 79 -41q28 -38 17 -92q-10 -52 -55 -89q-43 -35 -95 -34q-52 2 -79.5 37.5t-21.5 95.5zM83 -45q-7 -38 12.5 -64t55.5 -28q36 -1 66 23.5
t38 61.5t-10.5 63t-53.5 28q-37 2 -69 -22.5t-39 -61.5z" />
    <glyph glyph-name="seveninferior" unicode="&#x2087;" horiz-adv-x="313" 
d="M78 224h262l-287 -396h-47l260 356h-195z" />
    <glyph glyph-name="eightinferior" unicode="&#x2088;" horiz-adv-x="345" 
d="M103 132q7 41 41 69t77 28q44 0 68.5 -28t17.5 -69q-7 -46 -52 -74q63 -34 49 -110q-9 -53 -54 -89q-44 -36 -101 -36t-89 36t-23 89q7 36 30.5 65t57.5 45q-33 27 -22 74zM187 37q-39 0 -71.5 -26.5t-39.5 -62.5t16 -61t63 -25t71.5 25t38.5 61t-16 62.5t-62 26.5z
M141 132q-4 -27 11 -43.5t44 -16.5q25 0 46 18t25 42t-11 41t-42 17q-26 0 -47 -17t-26 -41z" />
    <glyph glyph-name="nineinferior" unicode="&#x2089;" horiz-adv-x="338" 
d="M308 96q-12 -94 -31 -145q-42 -126 -156 -129q-80 5 -96 71l38 15q15 -47 67 -47q54 -2 86 48q33 49 42 120q-15 -28 -43.5 -42.5t-60.5 -13.5q-53 2 -81 40q-27 40 -16 93t55 88q43 36 97 34q51 -2 78 -37t21 -95zM268 97q7 38 -12.5 64t-55.5 28q-36 1 -65.5 -23
t-37.5 -61q-8 -38 10 -64.5t54 -27.5q36 -2 67.5 22.5t39.5 61.5z" />
    <glyph glyph-name="colonmonetary" unicode="&#x20a1;" horiz-adv-x="679" 
d="M512 652l-296 -542q30 -32 63 -48l314 576q-36 12 -81 14zM159 343q-21 -115 33 -201l276 507q-112 -13 -201 -101q-87 -85 -108 -205zM290 6l-58 -105l-33 13l57 106q-33 15 -66 45l-71 -131l-34 13l80 147q-77 100 -51 249q25 141 134 244q107 101 245 109l57 102
l33 -13l-47 -88q44 -4 80 -17l46 85l34 -13l-47 -87q46 -21 82 -61l-37 -32q-31 31 -67 50l-314 -573q40 -14 83 -14q116 0 216 80l26 -32q-114 -93 -250 -93q-51 0 -98 16z" />
    <glyph glyph-name="lira" unicode="&#x20a4;" horiz-adv-x="639" 
d="M115 253h83l14 78h-83l7 40h83l26 144q15 82 83 135q70 53 149 53q77 0 122 -49t35 -128h-45q7 59 -27 95t-93 36q-63 0 -115 -40q-54 -40 -64 -102l-26 -144h139l-7 -40h-139l-14 -78h139l-7 -41h-139l-30 -167h307q14 0 25 10.5t14 26.5l10 50h45l-9 -50
q-6 -34 -33 -58t-59 -24h-453l7 45h101l30 167h-83z" />
    <glyph glyph-name="uni20A6" unicode="&#x20a6;" horiz-adv-x="719" 
d="M242 436h112l-80 180zM564 73l35 192h-119zM412 303l-41 95h-135l-18 -95h194zM605 303l18 95h-202l41 -95h143zM674 689h45l-45 -253h61l-6 -38h-61l-18 -95h61l-6 -38h-61l-46 -265h-49l-119 265h-218l-46 -265h-46l46 265h-59l6 38h59l18 95h-59l6 38h59l45 253h51
l111 -253h226z" />
    <glyph glyph-name="peseta" unicode="&#x20a7;" horiz-adv-x="712" 
d="M629 483q3 12 3 36h-364l-13 -74h363q6 14 11 38zM512 644h-222l-15 -86h353q-18 86 -116 86zM600 406h-352l-15 -83h217q102 0 150 83zM677 558h83l-7 -39h-76q0 -24 -3 -36q-7 -31 -10 -38h76l-7 -39h-84q-60 -128 -203 -128h-220l-49 -278h-46l71 406h-73l7 39h73
l13 74h-73l7 39h73l23 131h268q72 0 111 -34.5t46 -96.5z" />
    <glyph glyph-name="rupee" unicode="&#x20a8;" horiz-adv-x="672" 
d="M444 0l-148 278h-169l7 45h206q27 0 51 3q63 6 102 48.5t52 108.5q3 15 3 17h-382l6 37h376q-3 50 -32.5 78.5t-84.5 28.5h-240l8 45h283h261l-7 -37h-187q45 -37 46 -115h121l-6 -37h-117l-3 -17q-14 -81 -64 -137q-51 -57 -137 -65l-37 -2l147 -279h-55z" />
    <glyph glyph-name="uni20A9" unicode="&#x20a9;" horiz-adv-x="974" 
d="M290 0l-37 216h-144l7 41h130l-18 116h-91l7 40h77l-44 276h47l43 -276h218l82 174h44l19 -174h217l142 276h48l-143 -276h80l-7 -40h-93l-61 -116h133l-7 -41h-147l-110 -216h-48l-26 216h-171l-100 -216h-47zM466 373h-192l18 -116h119zM827 373h-192l12 -116h120z
M590 373h-79l-55 -116h147zM746 216h-94l18 -149zM392 216h-93l24 -149zM585 413l-10 94l-45 -94h55z" />
    <glyph glyph-name="afii57636" unicode="&#x20aa;" horiz-adv-x="738" 
d="M357 493h-122l-86 -493h-45l95 538h167q92 0 138 -58q47 -57 32 -142l-28 -156h-45l28 156q12 67 -25.5 111t-108.5 44zM473 45h123l88 493h45l-95 -538h-168q-91 0 -139 57q-47 59 -32 143l28 156h45l-27 -156q-12 -66 24 -111q38 -44 108 -44z" />
    <glyph glyph-name="Euro" unicode="&#x20ac;" horiz-adv-x="790" 
d="M204 274h-102l5 36h455l-5 -36h-307q2 -104 68 -172q67 -67 174 -67q116 0 216 80l25 -32q-114 -93 -249 -93q-125 0 -202 80q-76 80 -78 204zM274 412h307l-7 -36h-455l7 36h102q45 125 151 204q107 81 231 81q134 0 216 -93l-36 -32q-74 80 -189 80q-106 0 -197 -68
q-90 -67 -130 -172z" />
    <glyph glyph-name="uni2113" unicode="&#x2113;" horiz-adv-x="378" 
d="M253 569l-54 -303h81q77 0 95 105l35 198q20 105 -58 105q-43 0 -66.5 -26t-32.5 -79zM240 45h93l-7 -45h-93q-127 0 -100 151l74 418q27 150 153 150q122 0 95 -150l-35 -198q-27 -151 -149 -151h-80l-12 -69q-18 -106 61 -106z" />
    <glyph glyph-name="afii61352" unicode="&#x2116;" horiz-adv-x="955" 
d="M703 689l-121 -689h-49l-276 616l-108 -616h-45l121 689h51l273 -616l109 616h45zM873 468q-46 0 -73 32.5t-19 79.5t46 79q39 33 86 33t73.5 -32.5t18.5 -79.5t-47 -80q-38 -32 -85 -32zM974 426l-6 -33h-215l6 33h215zM817 580q-5 -32 13.5 -54t49.5 -22t57 22t32 54
q6 31 -12 53.5t-50 22.5q-31 0 -57.5 -22t-32.5 -54z" />
    <glyph glyph-name="trademark" unicode="&#x2122;" horiz-adv-x="847" 
d="M586 338l-88 277l-93 -310h-39l105 345h-130l-62 -345h-39l62 345h-121l6 39h326l98 -303l203 303h31l-21 -384h-38l18 311l-186 -278h-32z" />
    <glyph glyph-name="estimated" unicode="&#x212e;" horiz-adv-x="669" 
d="M687 279h-429l-34 -193q54 -63 140 -63q72 0 125 31t108 96l27 -19q-59 -72 -121 -106.5t-145 -34.5q-118 0 -180 84q-61 85 -39 206q23 124 112 206q90 84 215 84t183 -85q60 -85 38 -206zM264 312h309l28 163q-25 28 -63 45t-78 17q-97 0 -168 -62z" />
    <glyph glyph-name="minus" unicode="&#x2212;" horiz-adv-x="576" 
d="M539 241h-418l8 44h418z" />
    <glyph glyph-name="notequal" unicode="&#x2260;" horiz-adv-x="603" 
d="M293 165h262l-9 -44h-289l-92 -112h-46l92 112h-116l9 44h142l139 166h-252l8 44h279l87 107h47l-88 -107h126l-8 -44h-152z" />
    <glyph glyph-name="lessequal" unicode="&#x2264;" horiz-adv-x="676" 
d="M584 0h-508l7 44h508zM681 550l-8 -49l-487 -172l426 -172l-8 -48l-475 195l9 51z" />
    <glyph glyph-name="greaterequal" unicode="&#x2265;" horiz-adv-x="676" 
d="M99 44h508l-7 -44h-508zM118 157l486 172l-425 172l8 49l475 -195l-9 -51l-543 -195z" />
    <glyph glyph-name="commaaccent" unicode="&#xf6c3;" horiz-adv-x="250" 
d="M29 -223q72 69 86 156h51q-25 -108 -102 -161z" />
    <glyph glyph-name="rupiah" unicode="&#xf6dd;" horiz-adv-x="1150" 
d="M458 0l-148 278h-137l-49 -278h-46l121 689h254q96 0 132 -60q36 -59 21 -146q-15 -88 -73 -146q-57 -59 -155 -59h-13l148 -278h-55zM445 644h-208l-57 -321h203q73 0 119 44.5t59 115.5q12 68 -16 114q-27 47 -100 47zM711 467h46l-18 -101q37 51 96 81t122 30
q101 0 158 -70q58 -70 39 -175q-20 -105 -101 -173q-83 -69 -183 -69q-63 0 -111 29t-67 80l-59 -325h-46zM948 431q-82 0 -149 -55q-66 -53 -83 -139q-15 -86 32 -144q48 -57 130 -57q81 0 148 56q67 55 82 140q15 83 -32 141q-46 58 -128 58z" />
    <glyph glyph-name="apple" unicode="&#xf8ff;" horiz-adv-x="847" 
d="M68 687h687l12 -687h-687zM420 332l-266 263l6 -377h81l-75 75l-3 178l259 -253l252 253l3 -178l-73 -75h84l-6 377zM191 96l-14 36h-15l1 -53h9l-1 37l14 -37h10l10 37l1 -37h9l-1 53h-14zM246 132q-16 0 -22 -13t0.5 -26.5t22.5 -13.5q22 0 22 26q0 27 -23 27zM246 89
q-6 0 -11.5 5.5t-5.5 10.5q0 6 5 11.5t12 5.5q12 0 12 -17q0 -16 -12 -16zM282 99h-13q0 -20 23 -20q21 0 21 17q0 11 -15 14q-16 3 -16 6q0 6 9 6q10 0 10 -6h9q0 16 -19 16t-19 -16q0 -8 16 -15q13 0 13 -5q0 -7 -10 -7q-9 0 -9 10zM313 132v-10h17l1 -43h8l-1 43h15v10
h-40zM397 79l-22 53h-9l-21 -53h12l3 13h22l4 -13h11zM369 119h3l7 -18h-16zM424 132h-28l1 -53h9l-1 22h13q9 0 9 -9q0 -2 1 -8v-5h13q-2 2 -4 12.5t-7 13.5q7 3 7 9q0 18 -13 18zM418 108h-13v14h13q9 0 9 -6q0 -8 -9 -8zM464 132h-20l1 -53h20q24 0 24 28q0 25 -25 25z
M464 89h-8v33h4q17 0 17 -17q0 -6 -4 -11t-9 -5zM529 122v10h-37l1 -53h40l-1 10h-28v12h25v9h-25v12h25zM541 99h-9q0 -20 23 -20q21 0 21 17q0 11 -15 14q-17 3 -17 6q0 6 7 6q12 0 12 -6h10q0 16 -19 16q-5 0 -11 -2.5t-9.5 -7t0.5 -10t17 -11.5q12 0 12 -5q0 -7 -9 -7
q-13 0 -13 10zM588 79l-1 53h-7l1 -53h7zM631 86l5 -7h6l-1 29h-22v-9h12q-4 -10 -12 -10q-6 0 -11 5t-5 11t4.5 11.5t11.5 5.5q9 0 9 -10h13q-5 20 -22 20q-11 0 -18 -8t-7 -19q0 -10 7 -18t19 -8q10 0 11 7zM677 99l-22 33h-8l1 -53h8l-1 33l23 -33h13l-1 53h-13v-33z" />
    <glyph glyph-name="NULL" horiz-adv-x="0" 
 />
    <glyph glyph-name="CR" horiz-adv-x="333" 
 />
    <glyph glyph-name="published" horiz-adv-x="819" 
d="M470 456l-21 -120h84q53 0 65 60q9 60 -42 60h-86zM441 298l-22 -121h-39l58 318h125q45 0 64 -27.5t10 -71.5t-37 -71t-74 -27h-85zM845 343q-25 -146 -147 -250q-119 -103 -266 -103t-229 103t-57 250q25 145 145 250q121 104 266 104q146 0 230 -104q84 -103 58 -250z
M439 31q129 0 235 91q108 92 130 221q23 129 -51 221t-203 92q-127 0 -234 -92t-129 -221q-23 -131 50 -221q73 -91 202 -91z" />
    <glyph glyph-name="frenchfranc" horiz-adv-x="706" 
d="M593 644h-331l-43 -247h291l-20 -106q54 116 174 116q41 0 68 -12l-17 -44q-28 11 -59 11q-76 0 -124 -57q-20 -25 -36 -61q-25 -60 -39 -142l-17 -102h-46l61 352h-245l-61 -352h-45l121 689h376z" />
    <glyph glyph-name="parenleft.case" horiz-adv-x="345" 
d="M486 809l-7 -45q-95 -5 -170 -116q-75 -110 -110 -304t1 -304q37 -111 130 -115l-8 -46q-113 4 -160 128q-46 121 -8 337q37 212 127 337q90 124 205 128z" />
    <glyph glyph-name="parenright.case" horiz-adv-x="345" 
d="M349 344q-37 -211 -128 -337q-90 -124 -204 -128l8 46q94 4 169 115q76 112 110 304q35 195 -1 304q-36 112 -129 116l7 45q113 -4 160 -128q46 -120 8 -337z" />
    <glyph glyph-name="hyphen.case" horiz-adv-x="479" 
d="M460 320h-329l7 43h329z" />
    <glyph glyph-name="at.case" horiz-adv-x="998" 
d="M543 -54l-8 -43h-28q-185 0 -289 129q-104 130 -71 315q33 187 184 317q152 131 336 131q121 2 217.5 -54t143 -156.5t23.5 -218.5q-19 -102 -72 -186q-28 -45 -70.5 -71.5t-90.5 -26.5q-61 0 -91 32.5t-19 100.5l25 138q12 64 -26 109q-37 45 -101 45t-117 -45
q-52 -45 -64 -109q-11 -65 25 -109q38 -45 101 -45q56 0 102 35l-9 -48q-50 -30 -100 -30q-81 0 -129 58t-34 139q13 81 82 139q68 58 150 58q80 0 127 -56q48 -56 35 -137l-24 -144q-15 -88 75 -88q50 0 91 41q69 70 92 200q20 106 -22 196.5t-130 141t-198 48.5
q-166 0 -303 -119q-136 -118 -166 -286q-32 -176 72 -293q103 -115 281 -108z" />
    <glyph glyph-name="bracketleft.case" horiz-adv-x="283" 
d="M71 -113l164 915h146l-9 -46h-100l-146 -823h100l-9 -46h-146z" />
    <glyph glyph-name="bracketright.case" horiz-adv-x="283" 
d="M177 756l9 46h146l-164 -915h-146l9 46h100l146 823h-100z" />
    <glyph glyph-name="braceleft.case" horiz-adv-x="373" 
d="M319 -70l-9 -43h-35q-79 0 -125 52q-45 51 -30 135l32 173q5 29 -10 53t-42 28l7 39q28 4 51.5 27.5t29.5 52.5l31 176q13 83 78 135q64 52 143 52h35l-8 -43h-35q-60 0 -110 -41q-49 -40 -58 -103l-31 -176q-5 -30 -26.5 -58.5t-49.5 -42.5q23 -14 34 -42t5 -57
l-30 -173q-11 -65 23 -104q34 -40 95 -40h35z" />
    <glyph glyph-name="braceright.case" horiz-adv-x="373" 
d="M54 -113h-35l9 43h35q62 0 109 40q49 41 59 104l31 173q5 30 26 58t48 41q-23 14 -33 42t-5 59l31 176q12 67 -24.5 105.5t-103.5 38.5h-24l7 43h35q73 0 120 -47q46 -46 37 -122l-6 -39l-27 -155q-5 -29 10 -52.5t42 -27.5l-8 -39q-28 -4 -51.5 -28t-28.5 -53l-31 -173
q-15 -83 -79 -135t-143 -52z" />
    <glyph glyph-name="exclamdown.case" horiz-adv-x="242" 
d="M144 0h-45l93 521h40zM196 657q4 17 17.5 28t29.5 11q29 0 35 -24t-17 -42q-21 -17 -46.5 -7.5t-18.5 34.5z" />
    <glyph glyph-name="guillemotleft.case" horiz-adv-x="451" 
d="M173 345l103 -207h-51l-102 207l175 207h50zM302 345l102 -207h-50l-102 207l175 207h50z" />
    <glyph glyph-name="periodcentered.case" horiz-adv-x="233" 
d="M141 359q3 17 17 28t31 11q18 0 28 -11t7 -28q-4 -29 -37 -36q-32 -6 -44 14q-5 9 -2 22z" />
    <glyph glyph-name="guillemotright.case" horiz-adv-x="451" 
d="M448 345l-174 -207h-51l175 207l-100 207h50zM319 345l-174 -207h-50l174 207l-100 207h50z" />
    <glyph glyph-name="questiondown.case" horiz-adv-x="480" 
d="M432 170l44 -2q-18 -80 -81 -128q-61 -48 -139 -48q-82 0 -131 52q-50 53 -35 136q12 66 60 116q50 50 111 66q57 16 83 37.5t34 68.5l9 52h45l-9 -52q-12 -67 -49 -98q-38 -32 -106 -51q-50 -15 -86.5 -52t-45.5 -87q-12 -62 26 -103q39 -40 101 -40q60 0 107.5 37
t61.5 96zM428 618q-18 0 -28.5 11t-6.5 27q6 26 32.5 36t43.5 -9q17 -17 0.5 -41t-41.5 -24z" />
    <glyph glyph-name="endash.case" horiz-adv-x="587" 
d="M570 317h-443l7 42h443z" />
    <glyph glyph-name="emdash.case" horiz-adv-x="794" 
d="M777 317h-650l7 42h650z" />
    <glyph glyph-name="bullet.case" horiz-adv-x="434" 
d="M159 349q9 52 52 86q44 35 97 35q52 0 84 -35t23 -86q-9 -52 -53 -87t-96 -35q-54 0 -85 35t-22 87z" />
    <glyph glyph-name="guilsinglleft.case" horiz-adv-x="322" 
d="M173 345l102 -207h-50l-102 207l175 207h50z" />
    <glyph glyph-name="guilsinglright.case" horiz-adv-x="322" 
d="M319 345l-174 -207h-50l174 207l-100 207h50z" />
    <glyph glyph-name="cent.case" horiz-adv-x="523" 
d="M339 102l-18 -103h-38l19 105q-89 10 -139 77q-48 66 -30 166q18 99 89 164q72 66 164 76l19 103h38l-18 -101q87 -3 143 -55l-34 -34q-52 44 -123 44q-84 0 -151 -55q-67 -54 -82 -142q-15 -89 32 -145q48 -55 131 -55q75 0 137 45l25 -34q-74 -53 -164 -56z" />
    <glyph glyph-name="zero.tnum" horiz-adv-x="580" 
d="M119 331q25 148 89 241q70 101 204 101t165 -101q28 -86 2 -241q-25 -148 -87 -240q-68 -101 -202 -101q-67 0 -109 27t-58 73t-17.5 108t13.5 133zM166 331q-14 -83 -12 -149q2 -67 39 -106.5t105 -39.5q106 0 162 87q50 75 74 208q14 84 12 149q-1 68 -37.5 107.5
t-104.5 39.5q-107 0 -164 -87q-50 -78 -74 -209z" />
    <glyph glyph-name="one.tnum" horiz-adv-x="580" 
d="M458 671l-118 -671h-46l107 609l-123 -41l7 43z" />
    <glyph glyph-name="two.tnum" horiz-adv-x="580" 
d="M181 45h308l-7 -45h-389l2 16l339 334q73 70 85 138q11 62 -24.5 101t-99.5 39q-57 0 -104.5 -29.5t-67.5 -78.5l-40 11q26 65 86 103q62 39 134 39q84 0 130 -52q46 -50 31 -133q-15 -87 -102 -169z" />
    <glyph glyph-name="three.tnum" horiz-adv-x="580" 
d="M511 490q14 56 -16 94.5t-95 43.5q-44 4 -88.5 -16.5t-71.5 -54.5l-33 22q36 46 90.5 72t113.5 22q88 -6 126.5 -58.5t17.5 -129.5q-11 -40 -42.5 -75t-73.5 -52q53 -14 78 -69q26 -56 9 -115q-23 -83 -101 -136q-80 -54 -168 -47q-62 4 -107 37.5t-59 85.5l44 18
q12 -41 48 -67t84 -29q71 -4 134 37q61 40 81 107q14 68 -24 111q-37 43 -101 43h-66l8 44h66q46 0 90 32t56 80z" />
    <glyph glyph-name="four.tnum" horiz-adv-x="580" 
d="M415 187l69 388l-335 -388h266zM564 187l-7 -43h-104l-24 -144h-45l24 144h-348l453 520h33l-86 -477h104z" />
    <glyph glyph-name="five.tnum" horiz-adv-x="580" 
d="M584 664l-9 -45h-276l-90 -251q96 41 160 41q86 0 140 -56q55 -55 38 -149q-17 -96 -90 -154q-74 -59 -179 -59q-64 0 -119 37q-55 38 -74 94l21 12q16 8 24 14q15 -47 59 -79q44 -31 97 -31q85 0 144 47t71 119q13 72 -31 116q-43 43 -108 43q-49 0 -91 -11
q-35 -9 -105 -40l-14 24l117 328h315z" />
    <glyph glyph-name="six.tnum" horiz-adv-x="580" 
d="M137 208q4 39 11 86q18 105 46 178q76 205 252 201q122 -1 153 -114l-44 -17q-24 84 -119 86q-94 1 -151 -73q-23 -30 -43 -78q-29 -72 -47 -174q27 53 81.5 81t114.5 26q86 -3 131 -67t26 -152q-19 -86 -91 -146q-70 -58 -157 -55q-84 3 -128.5 62t-34.5 156zM181 207
q-13 -72 24 -121q38 -49 105 -50q68 -2 123 43q56 45 71 114t-20 119q-35 51 -102 52q-70 2 -128 -43q-60 -46 -73 -114z" />
    <glyph glyph-name="seven.tnum" horiz-adv-x="580" 
d="M638 664l-483 -664h-52l451 619h-349l8 45h425z" />
    <glyph glyph-name="eight.tnum" horiz-adv-x="580" 
d="M369 403l10 1q52 3 92 35t47 77q8 48 -22 79q-29 33 -80 33q-50 0 -91 -33q-40 -31 -48 -79q-8 -47 18.5 -80t73.5 -33zM165 198q-12 -69 29 -116q42 -47 117 -47t134 47t71 116q12 66 -30 115t-115 49l-11 -1q-72 -5 -127 -51q-56 -47 -68 -112zM232 516q12 66 67 111
q55 46 126 46t111 -46q40 -45 28 -111q-14 -84 -101 -131q55 -24 82 -74.5t16 -112.5q-16 -87 -91 -148q-74 -60 -167 -60q-95 0 -147 60q-52 61 -36 148q11 62 55 113t108 75q-65 41 -51 130z" />
    <glyph glyph-name="nine.tnum" horiz-adv-x="580" 
d="M569 455q-14 -137 -51 -247q-22 -67 -54 -112q-32 -48 -86 -77.5t-118 -28.5q-126 2 -155 113l43 18q26 -85 122 -86q92 -1 149 72q24 30 44 77q28 68 46 173q-25 -50 -83 -79q-55 -27 -112 -25q-86 3 -131 66q-44 65 -26 153q19 86 91 146q71 58 159 55q84 -2 128 -61.5
t34 -156.5zM525 456q13 72 -24 120q-38 50 -104 51q-69 2 -125 -43q-56 -46 -71 -115q-15 -70 20 -120q34 -49 103 -51q68 -2 126 43q59 45 75 115z" />
    <glyph glyph-name="zero.taboldstyle" horiz-adv-x="580" 
d="M306 -11q-101 0 -159 73q-58 72 -38 189q20 116 104 187q85 72 186 72t160 -72q58 -70 38 -187q-19 -115 -105 -189q-83 -73 -186 -73zM314 35q84 0 151 60q69 60 87 156q17 96 -31 154q-47 60 -131 60q-82 0 -150 -59t-86 -155q-16 -95 30 -156q48 -60 130 -60z" />
    <glyph glyph-name="one.taboldstyle" horiz-adv-x="580" 
d="M231 423l229 86l-90 -509h-45l77 442l-178 -64z" />
    <glyph glyph-name="two.taboldstyle" horiz-adv-x="580" 
d="M456 0h-341l4 25l289 258q56 49 64 93q7 42 -21.5 69.5t-80.5 27.5q-47 0 -84 -21.5t-50 -56.5l-42 9q18 52 69.5 83t115.5 31q72 0 111 -39.5t29 -102.5q-10 -64 -83 -125l-234 -206h261z" />
    <glyph glyph-name="six.taboldstyle" horiz-adv-x="580" 
d="M137 208q5 46 14 102q25 137 61 204q84 167 235 159q122 -2 152 -114l-43 -17q-26 85 -120 86q-109 0 -174 -109q-17 -29 -31 -70q-22 -68 -35 -146q27 53 81 81t114 26q86 -3 131 -67q46 -64 27 -152q-19 -86 -91 -146q-70 -58 -158 -55q-84 3 -128.5 62t-34.5 156z
M182 207q-13 -72 24 -121q38 -48 104 -50q69 -2 124 43q56 45 71 114q15 70 -21 119q-35 51 -102 52q-69 2 -127 -43q-60 -46 -73 -114z" />
    <glyph glyph-name="eight.taboldstyle" horiz-adv-x="580" 
d="M369 403l11 1q52 3 92 35t47 77q8 47 -21.5 79.5t-81.5 32.5q-50 0 -91 -33q-40 -31 -48 -79q-8 -47 18.5 -80t73.5 -33zM165 198q-12 -69 29 -116q42 -47 117 -47t134 47t71 116q12 66 -30 115t-115 49l-11 -1q-72 -5 -127 -51q-56 -47 -68 -112zM232 516q12 66 67 111
q55 46 126 46t111 -46q40 -45 28 -111q-14 -84 -101 -131q55 -24 82.5 -75.5t16.5 -111.5q-16 -87 -91 -148q-75 -60 -168 -60t-146 60q-53 62 -37 148q11 62 55.5 113t107.5 75q-65 41 -51 130z" />
    <glyph glyph-name="three.taboldstyle" horiz-adv-x="580" 
d="M476 291q14 56 -15.5 94.5t-94.5 43.5q-42 4 -89 -17q-45 -20 -71 -54l-33 22q36 46 90.5 72t112.5 22q88 -7 127 -59t18 -129q-11 -40 -42.5 -75t-73.5 -52q53 -13 78 -69q25 -55 10 -115q-22 -82 -102 -136q-80 -55 -169 -47q-63 4 -108 38t-58 85l45 18q12 -41 48 -67
t84 -29q71 -4 134 37q61 40 81 107q13 67 -25 111q-37 43 -100 43h-66l8 44h66q44 -1 89 31q44 33 56 81z" />
    <glyph glyph-name="four.taboldstyle" horiz-adv-x="580" 
d="M381 -12l68 388l-334 -388h266zM530 -12l-8 -43h-104l-26 -143h-45l26 143h-349l454 521h33l-85 -478h104z" />
    <glyph glyph-name="five.taboldstyle" horiz-adv-x="580" 
d="M549 466l-9 -45h-276l-89 -251q94 41 160 41q86 0 140 -55t37 -150q-17 -96 -90 -154q-74 -59 -179 -59q-63 0 -118 38t-74 93q3 3 20 12q22 12 24 14q15 -46 59 -78t96 -32q85 0 144 47q58 46 72 119q13 72 -31 116q-43 43 -107 43q-49 0 -91 -11q-35 -9 -105 -40
l-15 24l117 328h315z" />
    <glyph glyph-name="seven.taboldstyle" horiz-adv-x="580" 
d="M602 466l-484 -664h-52l452 619h-349l8 45h425z" />
    <glyph glyph-name="nine.taboldstyle" horiz-adv-x="580" 
d="M538 257q-4 -47 -12 -87q-16 -102 -45 -178q-35 -92 -92 -143q-65 -58 -160 -57q-124 1 -154 114l43 17q24 -85 121 -86q94 -1 149 73q23 29 44 78q31 72 48 174q-27 -53 -81.5 -81t-114.5 -26q-88 3 -131 66q-44 65 -26 153q19 86 91 146q70 58 157 55
q85 -3 129.5 -62.5t33.5 -155.5zM494 258q14 72 -24 120q-38 50 -104 51q-68 2 -123 -43q-54 -44 -71 -114q-16 -69 19 -120q36 -50 103 -51q69 -3 127 42t73 115z" />
    <glyph glyph-name="zero.oldstyle" horiz-adv-x="604" 
d="M318 -11q-101 0 -159 73q-58 72 -38 189q20 116 104 187q85 72 186 72t160 -72q58 -70 38 -187q-19 -115 -105 -189q-83 -73 -186 -73zM326 35q84 0 151 60q69 60 87 156q17 96 -31 154q-47 60 -131 60q-82 0 -150 -59t-86 -155q-16 -95 30 -156q48 -60 130 -60z" />
    <glyph glyph-name="one.oldstyle" horiz-adv-x="348" 
d="M115 423l229 86l-90 -509h-45l77 442l-178 -64z" />
    <glyph glyph-name="two.oldstyle" horiz-adv-x="459" 
d="M396 0h-341l4 25l289 258q57 49 64 93q7 42 -21.5 69.5t-80.5 27.5q-47 0 -84 -21.5t-50 -56.5l-42 9q18 52 69.5 83t115.5 31q72 0 111 -39.5t29 -102.5q-10 -64 -83 -125l-234 -206h261z" />
    <glyph glyph-name="three.oldstyle" horiz-adv-x="520" 
d="M446 291q14 56 -15.5 94.5t-94.5 43.5q-42 4 -89 -17q-45 -20 -71 -54l-33 22q36 46 90.5 72t112.5 22q88 -7 127 -59t18 -129q-11 -40 -42.5 -75t-73.5 -52q53 -13 78 -69q25 -55 10 -115q-22 -82 -102 -136q-80 -55 -169 -47q-63 4 -108 38t-58 85l45 18q12 -41 48 -67
t84 -29q71 -4 134 37q61 40 81 107q13 67 -25 111q-37 43 -100 43h-66l8 44h66q44 -1 89 31q44 33 56 81z" />
    <glyph glyph-name="four.oldstyle" horiz-adv-x="560" 
d="M372 -12l68 388l-334 -388h266zM520 -12l-8 -43h-103l-26 -143h-45l26 143h-349l454 521h33l-85 -478h103z" />
    <glyph glyph-name="five.oldstyle" horiz-adv-x="539" 
d="M529 466l-9 -45h-276l-89 -251q94 41 160 41q86 0 140 -55t37 -150q-17 -96 -90 -154q-74 -59 -179 -59q-63 0 -118 38t-74 93q3 3 20 12q22 12 24 14q15 -46 59 -78t96 -32q85 0 144 47q58 46 72 119q13 72 -31 116q-43 43 -107 43q-49 0 -91 -11q-35 -9 -105 -40
l-15 24l117 328h315z" />
    <glyph glyph-name="six.oldstyle" horiz-adv-x="553" 
d="M124 208q5 46 14 102q25 137 61 204q84 167 235 159q122 -2 152 -114l-43 -17q-26 85 -120 86t-151 -73q-23 -30 -43 -78q-28 -68 -46 -174q27 53 81 81t114 26q86 -3 131 -67t26 -152q-19 -86 -91 -146q-70 -58 -157 -55q-84 3 -128.5 62t-34.5 156zM168 207
q-13 -72 24 -121q38 -49 105 -50q68 -2 123 43q56 45 71 114t-20 119q-35 51 -102 52q-70 2 -128 -43q-60 -46 -73 -114z" />
    <glyph glyph-name="seven.oldstyle" horiz-adv-x="480" 
d="M552 466l-484 -664h-52l452 619h-349l8 45h425z" />
    <glyph glyph-name="eight.oldstyle" horiz-adv-x="561" 
d="M360 403l10 1q52 3 92 35t47 77q8 48 -22 79q-28 33 -80 33q-51 0 -91 -33q-40 -31 -48 -79q-8 -47 18.5 -80t73.5 -33zM156 198q-12 -69 29 -116q42 -47 117 -47t134 47t71 116q12 66 -30 115t-115 49l-11 -1q-72 -5 -127 -51q-56 -47 -68 -112zM223 516q12 66 67 111
q55 46 126 46t111 -46q40 -45 28 -111q-14 -84 -101 -131q55 -24 82 -74.5t16 -112.5q-16 -87 -91 -148q-74 -60 -167 -60q-94 0 -147 60q-52 61 -36 148q11 62 55 113t108 75q-65 41 -51 130z" />
    <glyph glyph-name="nine.oldstyle" horiz-adv-x="531" 
d="M514 257q-4 -47 -12 -87q-16 -102 -45 -178q-35 -92 -92 -143q-65 -58 -160 -57q-124 1 -154 114l43 17q24 -85 121 -86q94 -1 149 73q23 29 44 78q31 72 48 174q-27 -52 -82 -80.5t-114 -26.5q-87 3 -132 66q-44 66 -25 153q19 86 91 146q70 58 157 55
q85 -3 129.5 -62.5t33.5 -155.5zM469 258q13 72 -24 120q-38 50 -103 51q-69 2 -124 -43q-56 -45 -71 -114q-16 -69 19 -120q36 -49 104 -51q68 -3 126 42t73 115z" />
    <glyph glyph-name="Lslash.sc" horiz-adv-x="432" 
d="M409 43l-8 -43h-298l50 290l-70 -39l6 37l72 40l45 258h43l-41 -231l102 59l-6 -38l-102 -59l-48 -274h255z" />
    <glyph glyph-name="Zcaron.sc" horiz-adv-x="482" 
d="M530 548l-424 -505h335l-7 -43h-389l5 36l426 507h-329l7 43h383zM448 759h43l-109 -112h-57l-68 112h42l59 -83z" />
    <glyph glyph-name="exclam.sc" horiz-adv-x="244" 
d="M249 586l-81 -441h-36l75 441h42zM99 3q-14 15 -3.5 35t29.5 25.5t34 -9.5q14 -14 3.5 -34t-29.5 -25.5t-34 8.5z" />
    <glyph glyph-name="ampersand.sc" horiz-adv-x="583" 
d="M270 35q63 0 110 38q48 39 60 97l26 147h-145q-62 0 -113 -42q-49 -40 -60 -98q-11 -60 23.5 -101t98.5 -41zM247 453q-8 -42 15 -70t67 -28h143l14 76h42l-14 -77h79l-6 -37h-79l-26 -140q-4 -39 -4.5 -70.5t17.5 -51.5t58 -21l-8 -41q-46 0 -75 24t-32 66
q-26 -42 -75 -66t-101 -24q-82 0 -126 53t-30 131q9 52 47 96.5t91 65.5q-52 40 -39 114q11 57 59 97q50 41 110 41q84 0 115 -65l-38 -22q-23 45 -84 45q-44 0 -78.5 -27.5t-41.5 -68.5z" />
    <glyph glyph-name="question.sc" horiz-adv-x="426" 
d="M171 437l-42 2q15 69 69 111t120 42q69 0 111 -45q44 -45 30 -116q-10 -56 -50.5 -98t-96.5 -57q-46 -12 -67.5 -31t-29.5 -57l-8 -43h-42l8 43q9 55 41 83t93 45q41 12 71 43t38 72q9 52 -22 85t-83 33q-51 0 -90 -31t-50 -81zM135 3q-14 15 -3.5 35t29.5 25.5t34 -9.5
q14 -14 3.5 -34t-29.5 -25.5t-34 8.5z" />
    <glyph glyph-name="A.sc" horiz-adv-x="557" 
d="M525 0h-46l-33 158h-282l-88 -158h-45l328 586h45zM371 527l-185 -330h252z" />
    <glyph glyph-name="B.sc" horiz-adv-x="547" 
d="M535 444q-18 -103 -96 -131q43 -13 65 -59q23 -47 14 -93q-14 -69 -65 -114q-53 -47 -125 -47h-231l103 586h209q70 0 104 -38t22 -104zM370 291h-180l-44 -249h187q53 0 93 34.5t49 84.5q9 49 -21 89q-29 41 -84 41zM398 544h-162l-38 -214h183q42 0 72.5 33t39.5 81
q9 47 -17 73.5t-78 26.5z" />
    <glyph glyph-name="C.sc" horiz-adv-x="584" 
d="M555 102l24 -30q-97 -82 -215 -82q-123 0 -190 88q-67 87 -44 213q22 124 121 212q97 88 220 88q118 0 186 -80q-26 -23 -35 -30q-60 68 -158 68q-104 0 -188 -75q-84 -76 -103 -183q-19 -106 38 -182q59 -75 162 -75q96 0 182 68z" />
    <glyph glyph-name="D.sc" horiz-adv-x="633" 
d="M315 0h-218l103 586h218q120 0 174 -83q55 -82 32 -211q-22 -127 -106 -211q-82 -81 -203 -81zM411 543h-176l-89 -500h176q102 0 170 69q70 71 89 180q19 110 -24 180q-44 71 -146 71z" />
    <glyph glyph-name="E.sc" horiz-adv-x="490" 
d="M439 42l-6 -42h-336l103 586h327l-7 -42h-284l-42 -236h249l-8 -42h-249l-40 -224h293z" />
    <glyph glyph-name="F.sc" horiz-adv-x="457" 
d="M186 266l-46 -266h-43l103 586h322l-7 -42h-279l-42 -236h222l-8 -42h-222z" />
    <glyph glyph-name="G.sc" horiz-adv-x="663" 
d="M640 238h-178l8 41h225q-27 -140 -112 -214.5t-212 -74.5q-124 0 -194 88q-70 87 -47 213q23 125 123 212q100 88 225 88q102 0 170 -62l-35 -31q-57 51 -142 51q-107 0 -192 -75q-87 -76 -106 -183t41 -183q60 -75 166 -75q99 0 167 53.5t93 151.5z" />
    <glyph glyph-name="H.sc" horiz-adv-x="624" 
d="M195 311h344l48 275h43l-103 -586h-43l47 271h-344l-47 -271h-43l103 586h43z" />
    <glyph glyph-name="I.sc" horiz-adv-x="237" 
d="M140 0h-43l103 586h43z" />
    <glyph glyph-name="J.sc" horiz-adv-x="236" 
d="M-112 -194l12 42q18 -5 40 -5q63 0 102 38t51 103l107 602h41l-106 -602q-16 -85 -66.5 -134t-135.5 -49q-20 0 -45 5z" />
    <glyph glyph-name="K.sc" horiz-adv-x="478" 
d="M411 0l-225 268l-46 -268h-43l103 586h43l-52 -292l286 292h51l-296 -302l237 -284h-58z" />
    <glyph glyph-name="L.sc" horiz-adv-x="426" 
d="M401 42l-6 -42h-298l103 586h43l-97 -544h255z" />
    <glyph glyph-name="M.sc" horiz-adv-x="826" 
d="M239 586h43l150 -480l318 480h43l-30 -586h-42l26 512l-303 -452h-43l-141 453l-155 -513h-42z" />
    <glyph glyph-name="N.sc" horiz-adv-x="602" 
d="M247 586l228 -515l91 515h42l-103 -586h-46l-228 515l-91 -515h-43l103 586h47z" />
    <glyph glyph-name="O.sc" horiz-adv-x="703" 
d="M478 591q124 0 194 -88q70 -86 47 -212q-22 -123 -124 -213q-100 -88 -224 -88t-194 88q-70 87 -47 213q22 124 124 212q100 88 224 88zM173 291q-19 -106 41 -182q60 -75 166 -75t192 75q85 75 105 182q20 109 -40 183q-59 75 -166 75t-192 -75q-87 -76 -106 -183z" />
    <glyph glyph-name="P.sc" horiz-adv-x="530" 
d="M363 235h-183l-40 -235h-43l103 586h229q82 0 112.5 -51t17.5 -126q-12 -74 -62 -124t-134 -50zM422 544h-186l-48 -267h181q61 0 99 36.5t48 95.5q10 60 -13 97.5t-81 37.5z" />
    <glyph glyph-name="Q.sc" horiz-adv-x="703" 
d="M720 291q-15 -82 -67.5 -152t-128.5 -110l48 -104l-39 -23l-51 109q-57 -21 -111 -21q-124 0 -194 88q-70 87 -47 213q23 125 123 212q100 88 225 88q124 0 194 -88q71 -87 48 -212zM464 47l-48 110l39 23l52 -116q66 34 112 94.5t59 132.5q19 107 -41 183
q-60 75 -166 75t-193 -75q-87 -76 -106 -183q-19 -106 41 -182q61 -75 166 -75q49 0 85 13z" />
    <glyph glyph-name="R.sc" horiz-adv-x="535" 
d="M349 233h-3l124 -233h-52l-125 235h-113l-40 -235h-43l103 586h216q82 0 112 -52q32 -51 18 -126q-13 -79 -63.5 -127t-133.5 -48zM409 543h-173l-48 -267h169q61 0 98.5 36.5t47.5 95.5q10 60 -13 97.5t-81 37.5z" />
    <glyph glyph-name="S.sc" horiz-adv-x="498" 
d="M94 154h43q-5 -48 28 -85q34 -37 94 -37q63 0 110 30.5t63 75.5q18 52 -8.5 86t-87.5 50l-76 19q-132 32 -112 143q12 67 74 111t135 44q75 0 119 -42q44 -43 34 -113h-43q6 51 -26.5 82t-90.5 31q-54 0 -103 -32q-47 -32 -56 -81q-14 -80 84 -103l78 -18
q78 -18 110.5 -64.5t8.5 -120.5q-21 -56 -80 -98q-58 -42 -141 -42q-79 0 -122 49t-35 115z" />
    <glyph glyph-name="T.sc" horiz-adv-x="487" 
d="M222 0l96 543h-192l7 43h427l-7 -43h-192l-96 -543h-43z" />
    <glyph glyph-name="U.sc" horiz-adv-x="593" 
d="M578 585h43l-69 -390q-17 -92 -86 -148q-70 -57 -156 -57t-136 57q-49 57 -33 148l69 390h43l-69 -390q-12 -72 27 -117q41 -45 108 -45t123 45q55 45 67 117z" />
    <glyph glyph-name="V.sc" horiz-adv-x="483" 
d="M500 586h45l-279 -586h-49l-73 586h45l63 -523z" />
    <glyph glyph-name="W.sc" horiz-adv-x="798" 
d="M468 500h40l47 -436l267 522h46l-302 -586h-44l-49 423l-198 -423h-43l-96 586h45l81 -521z" />
    <glyph glyph-name="X.sc" horiz-adv-x="512" 
d="M203 586l113 -235l198 235h52l-230 -270l155 -316h-52l-135 281l-232 -281h-51l264 316l-133 270h51z" />
    <glyph glyph-name="Y.sc" horiz-adv-x="534" 
d="M562 586h51l-276 -310l-48 -276h-44l48 277l-164 309h51l144 -266z" />
    <glyph glyph-name="Z.sc" horiz-adv-x="482" 
d="M530 548l-424 -505h335l-7 -43h-389l5 36l426 507h-329l7 43h383z" />
    <glyph glyph-name="Scaron.sc" horiz-adv-x="498" 
d="M469 765h42l-108 -112h-57l-68 112h42l60 -82zM94 154h43q-5 -48 28 -85q34 -37 94 -37q63 0 110 30.5t63 75.5q35 102 -96 136l-76 19q-132 32 -112 143q12 67 74 111t135 44q75 0 119 -42q44 -43 34 -113h-43q6 51 -26.5 82t-90.5 31q-54 0 -103 -32q-47 -32 -56 -81
q-14 -80 84 -103l78 -18q78 -19 110.5 -65.5t8.5 -119.5q-21 -56 -80 -98q-58 -42 -141 -42q-79 0 -122 49t-35 115z" />
    <glyph glyph-name="OE.sc" horiz-adv-x="997" 
d="M705 443l25 143h327l-7 -43h-284l-42 -235h248l-7 -42h-248l-40 -223h293l-7 -43h-336l24 140q-52 -69 -126 -109.5t-154 -40.5q-124 0 -194 88q-70 87 -47 213q22 124 124 212q100 88 224 88q80 0 140 -39.5t87 -108.5zM173 291q-19 -106 41 -182q60 -75 166 -75
q109 0 194 76t103 186q18 106 -42 179q-59 74 -164 74q-107 0 -192 -75q-87 -76 -106 -183z" />
    <glyph glyph-name="Ydieresis.sc" horiz-adv-x="534" 
d="M289 716q2 26 32 32q28 6 38 -13q4 -9 2 -19q-3 -26 -33 -31q-29 -6 -38 13q-3 9 -1 18zM429 716q3 15 15 24.5t26 9.5q15 0 24.5 -9.5t6.5 -24.5q-3 -26 -33 -31q-29 -6 -38 13q-3 9 -1 18zM562 586h51l-276 -310l-48 -276h-44l48 277l-164 309h51l144 -266z" />
    <glyph glyph-name="exclamdown.sc" horiz-adv-x="242" 
d="M99 -1l81 441h36l-75 -441h-42zM188 530q-13 15 -2 35t29.5 25.5t33.5 -9.5q14 -14 3 -34t-30.5 -25.5t-33.5 8.5z" />
    <glyph glyph-name="questiondown.sc" horiz-adv-x="426" 
d="M372 148l42 -2q-15 -69 -69 -111t-120 -42q-69 0 -111 45t-30 116q10 56 50.5 98t96.5 57q47 13 69 31.5t28 56.5l7 43h43l-8 -43q-9 -55 -40.5 -83t-92.5 -45q-42 -12 -72 -42.5t-38 -72.5q-9 -52 22 -85t83 -33q51 0 90 31t50 81zM408 581q14 -14 3 -34t-30.5 -25.5
t-33.5 8.5q-13 15 -2 35t29.5 25.5t33.5 -9.5z" />
    <glyph glyph-name="Agrave.sc" horiz-adv-x="557" 
d="M365 757l47 -112h-42l-56 112h51zM525 0h-46l-33 158h-282l-88 -158h-45l328 586h45zM371 527l-185 -330h252z" />
    <glyph glyph-name="Aacute.sc" horiz-adv-x="557" 
d="M374 645l85 112h51l-94 -112h-42zM446 158h-282l-88 -158h-45l328 586h45l121 -586h-46zM438 197l-67 330l-185 -330h252z" />
    <glyph glyph-name="Acircumflex.sc" horiz-adv-x="557" 
d="M406 728l-89 -83h-42l107 112h58l69 -112h-43zM525 0h-46l-33 158h-282l-88 -158h-45l328 586h45zM371 527l-185 -330h252z" />
    <glyph glyph-name="Atilde.sc" horiz-adv-x="557" 
d="M361 704q-11 0 -22 -9.5t-14 -28.5h-35q8 39 31 58t51 19q20 0 39 -19q20 -18 32 -18q11 0 22 10t14 27h35q-8 -37 -30 -56t-47 -19q-19 0 -42 18q-21 18 -34 18zM525 0h-46l-33 158h-282l-88 -158h-45l328 586h45zM371 527l-185 -330h252z" />
    <glyph glyph-name="Adieresis.sc" horiz-adv-x="557" 
d="M297 716q6 27 35 33q28 5 36 -15q3 -8 1 -18q-2 -26 -32 -31q-28 -6 -38 12q-4 9 -2 19zM437 716q3 15 15 24.5t26 9.5q16 0 25 -9.5t6 -24.5q-3 -14 -14.5 -23.5t-27.5 -9.5q-15 0 -24 9.5t-6 23.5zM446 158h-282l-88 -158h-45l328 586h45l121 -586h-46zM438 197
l-67 330l-185 -330h252z" />
    <glyph glyph-name="Aring.sc" horiz-adv-x="557" 
d="M418 807q33 0 51.5 -23t12.5 -55t-32 -54.5t-59 -22.5q-32 0 -50 22.5t-12 54.5t32 55t57 23zM398 686q32 -2 45 31q14 32 -6 49q-9 8 -23 7q-18 0 -32.5 -13t-18.5 -31t6 -30.5t29 -12.5zM446 158h-282l-88 -158h-45l328 586h45l121 -586h-46zM438 197l-67 330
l-185 -330h252z" />
    <glyph glyph-name="AE.sc" horiz-adv-x="836" 
d="M522 543l-284 -343h239l61 343h-16zM204 159l-129 -159h-51l481 586h367l-7 -43h-284l-42 -235h249l-8 -42h-249l-39 -223h294l-7 -43h-337l27 159h-265z" />
    <glyph glyph-name="Ccedilla.sc" horiz-adv-x="585" 
d="M366 -9l11 -50q11 -43 -27 -81q-36 -37 -80 -28q-27 6 -41 28.5t-9 54.5l35 -2q-4 -26 13 -40t41 -5q19 6 28 24t6 35l-15 66q-108 14 -163 98q-56 86 -35 200q22 126 120 213t220 87q120 0 186 -80l-35 -30q-60 68 -158 68q-105 0 -187 -75q-84 -76 -103 -183
q-19 -106 38 -182q57 -75 161 -75q95 0 183 68l23 -30q-99 -81 -212 -81z" />
    <glyph glyph-name="Egrave.sc" horiz-adv-x="490" 
d="M357 757l46 -112h-42l-57 112h53zM439 42l-6 -42h-336l103 586h327l-7 -42h-284l-42 -236h249l-8 -42h-249l-40 -224h293z" />
    <glyph glyph-name="Eacute.sc" horiz-adv-x="490" 
d="M347 645l84 112h51l-93 -112h-42zM97 0l103 586h327l-7 -42h-284l-42 -236h249l-8 -42h-249l-40 -224h293l-6 -42h-336z" />
    <glyph glyph-name="Ecircumflex.sc" horiz-adv-x="490" 
d="M387 728l-88 -83h-42l106 112h58l69 -112h-43zM439 42l-6 -42h-336l103 586h327l-7 -42h-284l-42 -236h249l-8 -42h-249l-40 -224h293z" />
    <glyph glyph-name="Edieresis.sc" horiz-adv-x="490" 
d="M280 716q6 27 35 33q28 5 36 -15q3 -8 1 -18q-2 -26 -32 -31q-28 -6 -38 12q-4 9 -2 19zM420 716q6 27 35 33q28 5 36 -15q3 -8 1 -18q-2 -26 -32 -31q-28 -6 -38 12q-4 9 -2 19zM97 0l103 586h327l-7 -42h-284l-42 -236h249l-8 -42h-249l-40 -224h293l-6 -42h-336z" />
    <glyph glyph-name="Igrave.sc" horiz-adv-x="237" 
d="M140 0h-43l103 586h43zM207 757l45 -112h-41l-56 112h52z" />
    <glyph glyph-name="Iacute.sc" horiz-adv-x="237" 
d="M210 645l84 112h52l-94 -112h-42zM200 586h43l-103 -586h-43z" />
    <glyph glyph-name="Icircumflex.sc" horiz-adv-x="237" 
d="M246 728l-88 -83h-42l107 112h58l69 -112h-43zM140 0h-43l103 586h43z" />
    <glyph glyph-name="Idieresis.sc" horiz-adv-x="237" 
d="M139 716q3 15 15 24.5t26 9.5q15 0 24 -9.5t6 -24.5q-2 -26 -32 -31q-28 -6 -38 13q-3 9 -1 18zM278 716q6 27 35 33q28 5 36 -15q3 -8 1 -18q-2 -26 -32 -31q-28 -6 -38 12q-4 9 -2 19zM200 586h43l-103 -586h-43z" />
    <glyph glyph-name="Eth.sc" horiz-adv-x="635" 
d="M317 0h-218l47 271h-83l6 39h83l50 276h218q120 0 174 -83q55 -82 32 -211q-22 -127 -106 -211q-82 -81 -203 -81zM412 543h-176l-42 -233h155l-6 -39h-155l-40 -228h176q102 0 170 69q70 71 89 180q20 110 -25 180q-44 71 -146 71z" />
    <glyph glyph-name="Ntilde.sc" horiz-adv-x="602" 
d="M247 586l228 -515l91 515h42l-103 -586h-46l-228 515l-91 -515h-43l103 586h47zM384 704q-12 0 -22.5 -10t-14.5 -28h-35q8 39 31.5 58t51.5 19q20 0 39 -19q20 -18 32 -18q11 0 22 10t14 27h35q-9 -37 -30.5 -56t-47.5 -19q-19 0 -41 18q-21 18 -34 18z" />
    <glyph glyph-name="Ograve.sc" horiz-adv-x="703" 
d="M478 591q124 0 194 -88q70 -86 47 -212q-22 -123 -124 -213q-100 -88 -224 -88t-194 88q-70 87 -47 213q22 124 124 212q100 88 224 88zM173 291q-19 -106 41 -182q60 -75 166 -75t192 75q85 75 105 182q20 109 -40 183q-59 75 -166 75t-192 -75q-87 -76 -106 -183z
M467 758l45 -112h-41l-56 112h52z" />
    <glyph glyph-name="Oacute.sc" horiz-adv-x="703" 
d="M458 646l85 112h52l-95 -112h-42zM371 -10q-124 0 -194 88q-70 87 -47 213q22 124 124 212q100 88 224 88t194 -88q70 -86 47 -212q-22 -123 -124 -213q-100 -88 -224 -88zM173 291q-19 -106 41 -182q60 -75 166 -75t192 75q85 75 105 182q20 109 -40 183q-59 75 -166 75
t-192 -75q-87 -76 -106 -183z" />
    <glyph glyph-name="Ocircumflex.sc" horiz-adv-x="703" 
d="M478 591q124 0 194 -88q70 -86 47 -212q-22 -123 -124 -213q-100 -88 -224 -88t-194 88q-70 87 -47 213q22 124 124 212q100 88 224 88zM173 291q-19 -106 41 -182q60 -75 166 -75t192 75q85 75 105 182q20 109 -40 183q-59 75 -166 75t-192 -75q-87 -76 -106 -183z
M504 728l-88 -82h-43l108 112h58l68 -112h-43z" />
    <glyph glyph-name="Otilde.sc" horiz-adv-x="703" 
d="M478 591q124 0 194 -88q70 -86 47 -212q-22 -123 -124 -213q-100 -88 -224 -88t-194 88q-70 87 -47 213q22 124 124 212q100 88 224 88zM173 291q-19 -106 41 -182q60 -75 166 -75t192 75q85 75 105 182q20 109 -40 183q-59 75 -166 75t-192 -75q-87 -76 -106 -183z
M458 704q-11 0 -21.5 -10.5t-13.5 -27.5h-35q8 39 31 58t50 19q20 0 39 -19q21 -18 32 -18t22 10t14 27h35q-8 -38 -29.5 -56.5t-47.5 -18.5q-18 0 -41 18q-22 18 -35 18z" />
    <glyph glyph-name="Odieresis.sc" horiz-adv-x="703" 
d="M428 684q-28 -2 -30 24q-1 24 20 37q10 6 21 5q15 0 24.5 -9.5t6.5 -23.5t-15.5 -23.5t-26.5 -9.5zM544 693q-13 14 -3 32.5t28.5 23t33.5 -8.5q20 -18 -3 -41q-22 -23 -45 -14q-6 3 -11 8zM371 -10q-124 0 -194 88q-70 87 -47 213q22 124 124 212q100 88 224 88t194 -88
q70 -86 47 -212q-22 -123 -124 -213q-100 -88 -224 -88zM173 291q-19 -106 41 -182q60 -75 166 -75t192 75q85 75 105 182q20 109 -40 183q-59 75 -166 75t-192 -75q-87 -76 -106 -183z" />
    <glyph glyph-name="Oslash.sc" horiz-adv-x="703" 
d="M167 65l-86 -75l-21 25l87 75q-60 86 -39 201q23 125 123 212q100 88 224 88q115 0 183 -75l92 77l19 -25l-89 -78q58 -85 37 -199q-22 -123 -124 -213q-100 -88 -225 -88q-109 0 -181 75zM151 291q-17 -99 30 -171l424 365q-64 64 -157 64q-106 0 -192 -75t-105 -183z
M357 34q107 0 192 75t105 182q17 96 -31 169l-419 -365q58 -61 153 -61z" />
    <glyph glyph-name="Ugrave.sc" horiz-adv-x="593" 
d="M458 645h-42l-56 112h52zM578 585h43l-69 -390q-17 -92 -86 -148q-70 -57 -156 -57t-136 57q-49 57 -33 148l69 390h43l-69 -390q-12 -72 27 -117q41 -45 108 -45t123 45q55 45 67 117z" />
    <glyph glyph-name="Uacute.sc" horiz-adv-x="593" 
d="M481 757h52l-94 -112h-41zM578 585h43l-69 -390q-17 -92 -86 -148q-70 -57 -156 -57t-136 57q-49 57 -33 148l69 390h43l-69 -390q-12 -72 27 -117q41 -45 108 -45t123 45q55 45 67 117z" />
    <glyph glyph-name="Ucircumflex.sc" horiz-adv-x="593" 
d="M578 585h43l-69 -390q-17 -92 -86 -148q-70 -57 -156 -57t-136 57q-49 57 -33 148l69 390h43l-69 -390q-12 -72 27 -117q41 -45 108 -45t123 45q55 45 67 117zM443 728l-89 -82h-43l108 112h58l68 -112h-43z" />
    <glyph glyph-name="Udieresis.sc" horiz-adv-x="593" 
d="M334 716q3 15 14.5 24.5t25.5 9.5q16 0 25 -9.5t6 -24.5q-3 -14 -14.5 -23.5t-27.5 -9.5q-15 0 -23.5 9.5t-5.5 23.5zM474 716q3 15 14.5 24.5t25.5 9.5q16 0 25.5 -9.5t6.5 -24.5q-6 -26 -35 -31q-28 -5 -36 14q-3 7 -1 17zM578 585h43l-69 -390q-17 -92 -86 -148
q-70 -57 -156 -57t-136 57q-49 57 -33 148l69 390h43l-69 -390q-12 -72 27 -117q41 -45 108 -45t123 45q55 45 67 117z" />
    <glyph glyph-name="Yacute.sc" horiz-adv-x="534" 
d="M562 586h51l-276 -310l-48 -276h-44l48 277l-164 309h51l144 -266zM441 757h51l-94 -112h-41z" />
    <glyph glyph-name="Thorn.sc" horiz-adv-x="503" 
d="M310 125h-149l-21 -125h-43l103 586h43l-20 -111h149q72 0 113 -48q41 -49 28 -125q-13 -78 -72 -128q-58 -49 -131 -49zM363 432h-148l-46 -264h149q55 0 98 37q44 38 54 97q10 57 -21 93.5t-86 36.5z" />
    <glyph glyph-name="Amacron.sc" horiz-adv-x="557" 
d="M509 730l-8 -39h-200l8 39h200zM525 0h-46l-33 158h-282l-88 -158h-45l328 586h45zM371 527l-185 -330h252z" />
    <glyph glyph-name="Abreve.sc" horiz-adv-x="557" 
d="M475 757h35q-7 -43 -39.5 -69t-77.5 -26q-47 0 -68 27t-14 68h35q-2 -27 11.5 -43t42.5 -16t49.5 16.5t25.5 42.5zM446 158h-282l-88 -158h-45l328 586h45l121 -586h-46zM438 197l-67 330l-185 -330h252z" />
    <glyph glyph-name="Cacute.sc" horiz-adv-x="584" 
d="M457 653l85 112h52l-96 -112h-41zM555 102l24 -30q-97 -82 -215 -82q-123 0 -190 88q-67 87 -44 213q22 124 121 212q97 88 220 88q118 0 186 -80q-26 -23 -35 -30q-60 68 -158 68q-104 0 -188 -75q-84 -76 -103 -183q-19 -106 38 -182q59 -75 162 -75q96 0 182 68z" />
    <glyph glyph-name="Ccircumflex.sc" horiz-adv-x="584" 
d="M555 102l24 -30q-97 -82 -215 -82q-123 0 -190 88q-67 87 -44 213q22 124 121 212q97 88 220 88q118 0 186 -80q-26 -23 -35 -30q-60 68 -158 68q-104 0 -188 -75q-84 -76 -103 -183q-19 -106 38 -182q59 -75 162 -75q96 0 182 68zM488 736l-89 -83h-42l107 112h58
l68 -112h-43z" />
    <glyph glyph-name="Cdotaccent.sc" horiz-adv-x="584" 
d="M445 725q3 26 32 32q28 6 38 -13q4 -9 2 -19q-2 -14 -14.5 -23.5t-27.5 -9.5q-14 0 -23 9.5t-7 23.5zM555 102l24 -30q-97 -82 -215 -82q-123 0 -190 88q-67 87 -44 213q22 124 121 212q97 88 220 88q118 0 186 -80q-26 -23 -35 -30q-60 68 -158 68q-104 0 -188 -75
q-84 -76 -103 -183q-19 -106 38 -182q59 -75 162 -75q96 0 182 68z" />
    <glyph glyph-name="Ccaron.sc" horiz-adv-x="584" 
d="M564 765h42l-108 -112h-58l-68 112h43l60 -82zM555 102l24 -30q-97 -82 -215 -82q-123 0 -190 88q-67 87 -44 213q22 124 121 212q97 88 220 88q118 0 186 -80q-26 -23 -35 -30q-60 68 -158 68q-104 0 -188 -75q-84 -76 -103 -183q-19 -106 38 -182q59 -75 162 -75
q96 0 182 68z" />
    <glyph glyph-name="Dcaron.sc" horiz-adv-x="633" 
d="M507 765h43l-108 -112h-58l-68 112h43l60 -82zM315 0h-218l103 586h218q120 0 174 -83q55 -82 32 -211q-22 -127 -106 -211q-82 -81 -203 -81zM235 543l-89 -500h176q102 0 170 69q70 71 89 180q19 110 -24 180q-44 71 -146 71h-176z" />
    <glyph glyph-name="Aogonek.sc" horiz-adv-x="557" 
d="M525 0h-9l-44 -73q-10 -14 -6.5 -33t18.5 -26q21 -9 44 5.5t27 39.5l34 2q-5 -32 -27 -54.5t-52 -28.5q-51 -8 -73 29q-23 36 6 80l36 59l-33 158h-282l-88 -158h-45l328 586h45zM371 527l-185 -330h252z" />
    <glyph glyph-name="Emacron.sc" horiz-adv-x="490" 
d="M486 730l-8 -39h-199l8 39h199zM439 42l-6 -42h-336l103 586h327l-7 -42h-284l-42 -236h249l-8 -42h-249l-40 -224h293z" />
    <glyph glyph-name="Ebreve.sc" horiz-adv-x="490" 
d="M454 757h36q-8 -43 -40 -69t-78 -26q-47 0 -68 27t-14 68h35q-2 -27 11.5 -43t42.5 -16t49.5 16.5t25.5 42.5zM97 0l103 586h327l-7 -42h-284l-42 -236h249l-8 -42h-249l-40 -224h293l-6 -42h-336z" />
    <glyph glyph-name="Edotaccent.sc" horiz-adv-x="490" 
d="M356 725q3 26 32 32q28 6 38 -13q4 -9 2 -19q-3 -26 -32 -31.5t-39 14.5q-3 7 -1 17zM97 0l103 586h327l-7 -42h-284l-42 -236h249l-8 -42h-249l-40 -224h293l-6 -42h-336z" />
    <glyph glyph-name="Ecaron.sc" horiz-adv-x="490" 
d="M467 765h42l-108 -112h-58l-67 112h42l60 -82zM97 0l103 586h327l-7 -42h-284l-42 -236h249l-8 -42h-249l-40 -224h293l-6 -42h-336z" />
    <glyph glyph-name="Gcircumflex.sc" horiz-adv-x="663" 
d="M640 238h-178l8 41h225q-27 -140 -112 -214.5t-212 -74.5q-124 0 -194 88q-70 87 -47 213q23 125 123 212q100 88 225 88q102 0 170 -62l-35 -31q-57 51 -142 51q-107 0 -192 -75q-87 -76 -106 -183t41 -183q60 -75 166 -75q99 0 167 53.5t93 151.5zM489 736l-89 -83h-43
l108 112h58l68 -112h-43z" />
    <glyph glyph-name="Gbreve.sc" horiz-adv-x="663" 
d="M564 757h35q-8 -43 -39 -69t-76 -26q-48 0 -69.5 27t-14.5 68h35q-2 -27 12 -43t43 -16t49.5 17t24.5 42zM640 238h-178l8 41h225q-27 -140 -112 -214.5t-212 -74.5q-124 0 -194 88q-70 87 -47 213q23 125 123 212q100 88 225 88q102 0 170 -62l-35 -31q-57 51 -142 51
q-107 0 -192 -75q-87 -76 -106 -183t41 -183q60 -75 166 -75q99 0 167 53.5t93 151.5z" />
    <glyph glyph-name="Eogonek.sc" horiz-adv-x="490" 
d="M360 -59l42 59h-305l103 586h327l-7 -42h-284l-42 -236h249l-8 -42h-249l-40 -224h293l-6 -42l-44 -73q-10 -14 -6.5 -33t18.5 -26q21 -9 44 5.5t27 39.5l34 2q-5 -32 -27 -54.5t-52 -28.5q-53 -8 -75 29t8 80z" />
    <glyph glyph-name="Dcroat.sc" horiz-adv-x="635" 
d="M317 0h-218l47 271h-83l6 39h83l50 276h218q120 0 174 -83q55 -82 32 -211q-22 -127 -106 -211q-82 -81 -203 -81zM412 543h-176l-42 -233h155l-6 -39h-155l-40 -228h176q102 0 170 69q70 71 89 180q20 110 -25 180q-44 71 -146 71z" />
    <glyph glyph-name="Gdotaccent.sc" horiz-adv-x="663" 
d="M459 725q3 26 32 32q28 6 38 -13q4 -9 2 -19q-3 -26 -32 -31.5t-39 14.5q-3 7 -1 17zM640 238h-178l8 41h225q-27 -140 -112 -214.5t-212 -74.5q-124 0 -194 88q-70 87 -47 213q23 125 123 212q100 88 225 88q102 0 170 -62l-35 -31q-57 51 -142 51q-107 0 -192 -75
q-87 -76 -106 -183t41 -183q60 -75 166 -75q99 0 167 53.5t93 151.5z" />
    <glyph glyph-name="Hcircumflex.sc" horiz-adv-x="624" 
d="M195 311h344l48 275h43l-103 -586h-43l47 271h-344l-47 -271h-43l103 586h43zM442 736l-89 -83h-43l108 112h58l68 -112h-43z" />
    <glyph glyph-name="Hbar.sc" horiz-adv-x="634" 
d="M223 443l-23 -132h344l23 132h-344zM616 476h63l-6 -33h-63l-78 -443h-43l47 271h-344l-47 -271h-43l78 443h-58l6 33h58l19 110h43l-19 -110h344l19 110h43z" />
    <glyph glyph-name="Itilde.sc" horiz-adv-x="237" 
d="M203 710q-11 0 -21.5 -9.5t-15.5 -28.5h-35q9 39 32 58t51 19q20 0 39 -18t32 -18q11 0 22 9.5t14 26.5h35q-8 -37 -30 -56t-47 -19q-19 0 -41 18q-23 18 -35 18zM140 0h-43l103 586h43z" />
    <glyph glyph-name="Imacron.sc" horiz-adv-x="237" 
d="M140 0h-43l103 586h43zM346 730l-8 -39h-198l8 39h198z" />
    <glyph glyph-name="Iogonek.sc" horiz-adv-x="237" 
d="M83 -59l36 59l103 586h43l-103 -586h-6l-44 -73q-10 -14 -6.5 -33t18.5 -26q21 -9 43.5 5.5t26.5 39.5l35 2q-5 -32 -27 -54.5t-52 -28.5q-51 -8 -73 29q-23 36 6 80z" />
    <glyph glyph-name="IJ.sc" horiz-adv-x="473" 
d="M140 0h-43l103 586h43zM123 -194l13 42q18 -5 40 -5q64 0 103 38t51 103l107 602h41l-106 -602q-16 -85 -67 -134t-137 -49q-20 0 -45 5z" />
    <glyph glyph-name="Jcircumflex.sc" horiz-adv-x="236" 
d="M-112 -194l12 42q18 -5 40 -5q63 0 102 38t51 103l107 602h41l-106 -602q-16 -85 -66.5 -134t-135.5 -49q-20 0 -45 5zM248 736l-90 -83h-43l108 112h58l68 -112h-43z" />
    <glyph glyph-name="Lacute.sc" horiz-adv-x="426" 
d="M213 653l85 112h52l-95 -112h-42zM97 0l103 586h43l-97 -544h255l-6 -42h-298z" />
    <glyph glyph-name="Lcaron.sc" horiz-adv-x="427" 
d="M377 585h42q-22 -112 -92 -167l-22 10q58 64 72 157zM401 42l-6 -42h-298l103 586h43l-97 -544h255z" />
    <glyph glyph-name="Ldot.sc" horiz-adv-x="426" 
d="M401 42l-6 -42h-298l103 586h43l-97 -544h255zM269 224q4 27 33 33q28 5 37 -16q3 -8 2 -17q-3 -26 -32 -31.5t-39 14.5q-3 8 -1 17z" />
    <glyph glyph-name="Nacute.sc" horiz-adv-x="602" 
d="M400 653l85 112h51l-94 -112h-42zM566 586h42l-103 -586h-46l-228 515l-91 -515h-43l103 586h47l228 -515z" />
    <glyph glyph-name="Ncaron.sc" horiz-adv-x="602" 
d="M525 765h43l-109 -112h-57l-68 112h42l61 -82zM566 586h42l-103 -586h-46l-228 515l-91 -515h-43l103 586h47l228 -515z" />
    <glyph glyph-name="Omacron.sc" horiz-adv-x="703" 
d="M478 591q124 0 194 -88q70 -86 47 -212q-22 -123 -124 -213q-100 -88 -224 -88t-194 88q-70 87 -47 213q22 124 124 212q100 88 224 88zM173 291q-19 -106 41 -182q60 -75 166 -75t192 75q85 75 105 182q20 109 -40 183q-59 75 -166 75t-192 -75q-87 -76 -106 -183z
M603 730l-8 -39h-199l8 39h199z" />
    <glyph glyph-name="Obreve.sc" horiz-adv-x="703" 
d="M576 758h34q-8 -44 -39.5 -70t-76.5 -26q-48 0 -69 27t-14 69h35q-2 -27 11.5 -43.5t42.5 -16.5t50 17.5t26 42.5zM371 -10q-124 0 -194 88q-70 87 -47 213q22 124 124 212q100 88 224 88t194 -88q70 -86 47 -212q-22 -123 -124 -213q-100 -88 -224 -88zM173 291
q-19 -106 41 -182q60 -75 166 -75t192 75q85 75 105 182q20 109 -40 183q-59 75 -166 75t-192 -75q-87 -76 -106 -183z" />
    <glyph glyph-name="Ohungarumlaut.sc" horiz-adv-x="703" 
d="M511 654l84 112h51l-93 -112h-42zM412 654l83 112h48l-87 -112h-44zM371 -10q-124 0 -194 88q-70 87 -47 213q22 124 124 212q100 88 224 88t194 -88q70 -86 47 -212q-22 -123 -124 -213q-100 -88 -224 -88zM173 291q-19 -106 41 -182q60 -75 166 -75t192 75
q85 75 105 182q20 109 -40 183q-59 75 -166 75t-192 -75q-87 -76 -106 -183z" />
    <glyph glyph-name="Racute.sc" horiz-adv-x="535" 
d="M337 653l85 112h52l-95 -112h-42zM346 233l124 -233h-52l-125 235h-113l-40 -235h-43l103 586h216q82 0 112 -52q32 -51 18 -126q-13 -79 -63.5 -127t-133.5 -48h-3zM409 543h-173l-48 -267h169q61 0 98.5 36.5t47.5 95.5q10 60 -13 97.5t-81 37.5z" />
    <glyph glyph-name="Rcaron.sc" horiz-adv-x="535" 
d="M478 765h42l-108 -112h-57l-69 112h43l60 -82zM346 233l124 -233h-52l-125 235h-113l-40 -235h-43l103 586h216q82 0 112 -52q32 -51 18 -126q-13 -79 -63.5 -127t-133.5 -48h-3zM409 543h-173l-48 -267h169q61 0 98.5 36.5t47.5 95.5q10 60 -13 97.5t-81 37.5z" />
    <glyph glyph-name="Sacute.sc" horiz-adv-x="498" 
d="M338 653l85 112h52l-95 -112h-42zM94 154h43q-5 -49 29 -84q34 -36 94 -36q63 0 109.5 30t62.5 74q35 102 -96 136l-76 19q-132 32 -112 143q12 67 74 111t135 44q75 0 119 -42q44 -43 34 -113h-43q6 51 -26.5 82t-90.5 31q-54 0 -103 -32q-47 -32 -56 -81
q-14 -80 84 -103l78 -18q78 -19 110.5 -65.5t8.5 -119.5q-21 -56 -80 -98q-58 -42 -141 -42q-79 0 -122 49t-35 115z" />
    <glyph glyph-name="Scircumflex.sc" horiz-adv-x="498" 
d="M94 154h43q-5 -49 29 -84q34 -36 94 -36q63 0 109.5 30t62.5 74q18 52 -8.5 86t-87.5 50l-76 19q-132 32 -112 143q12 67 74 111t135 44q75 0 119 -42q44 -43 34 -113h-43q6 51 -26.5 82t-90.5 31q-54 0 -103 -32q-47 -32 -56 -81q-14 -80 84 -103l78 -18
q78 -18 110.5 -64.5t8.5 -120.5q-21 -56 -80 -98q-58 -42 -141 -42q-79 0 -122 49t-35 115zM389 736l-89 -83h-43l108 112h58l68 -112h-42z" />
    <glyph glyph-name="Scedilla.sc" horiz-adv-x="500" 
d="M95 154h43q-5 -49 29 -84q35 -36 94 -36q63 0 109.5 30t62.5 74q36 103 -95 136l-77 19q-132 32 -112 143q12 67 74 111t135 44q76 0 119 -42q44 -43 34 -113h-43q6 51 -26.5 82t-90.5 31q-54 0 -103 -32q-47 -32 -56 -81q-14 -80 84 -103l78 -18q78 -19 110.5 -65.5
t8.5 -119.5q-20 -53 -71.5 -92t-118.5 -46l12 -51q11 -45 -24 -81q-34 -36 -83 -28q-27 6 -41 28.5t-9 54.5l35 -2q-4 -25 13 -39.5t41 -5.5q19 6 28 24t6 35l-15 63q-76 3 -118 52q-40 49 -33 112z" />
    <glyph glyph-name="Utilde.sc" horiz-adv-x="593" 
d="M578 585h43l-69 -390q-17 -92 -86 -148q-70 -57 -156 -57t-136 57q-49 57 -33 148l69 390h43l-69 -390q-12 -72 27 -117q41 -45 108 -45t123 45q55 45 67 117zM398 704q-11 0 -21.5 -10.5t-13.5 -27.5h-35q8 39 31 58t50 19q20 0 39 -19q21 -18 32 -18t22 10t14 27h35
q-8 -38 -29.5 -56.5t-47.5 -18.5q-18 0 -41 18q-22 18 -35 18z" />
    <glyph glyph-name="Umacron.sc" horiz-adv-x="593" 
d="M578 585h43l-69 -390q-17 -92 -86 -148q-70 -57 -156 -57t-136 57q-49 57 -33 148l69 390h43l-69 -390q-12 -72 27 -117q41 -45 108 -45t123 45q55 45 67 117zM545 730l-8 -39h-200l8 39h200z" />
    <glyph glyph-name="Ubreve.sc" horiz-adv-x="593" 
d="M510 757h36q-8 -43 -40 -69t-77 -26q-47 0 -68.5 27t-14.5 68h35q-5 -59 54 -59q29 0 50 17t25 42zM578 585h43l-69 -390q-17 -92 -86 -148q-70 -57 -156 -57t-136 57q-49 57 -33 148l69 390h43l-69 -390q-12 -72 27 -117q41 -45 108 -45t123 45q55 45 67 117z" />
    <glyph glyph-name="Uring.sc" horiz-adv-x="593" 
d="M366 736q6 33 32 56t57 23q33 0 52 -23t13 -56q-6 -32 -32.5 -54t-59.5 -22q-32 0 -50 22.5t-12 53.5zM486 737q3 19 -7.5 31t-28.5 12t-33 -12.5t-18 -30.5t7 -30.5t28 -12.5t33.5 12.5t18.5 30.5zM578 585h43l-69 -390q-17 -92 -86 -148q-70 -57 -156 -57t-136 57
q-49 57 -33 148l69 390h43l-69 -390q-12 -72 27 -117q41 -45 108 -45t123 45q55 45 67 117z" />
    <glyph glyph-name="Uhungarumlaut.sc" horiz-adv-x="593" 
d="M578 585h43l-69 -390q-17 -92 -86 -148q-70 -57 -156 -57t-136 57q-49 57 -33 148l69 390h43l-69 -390q-12 -72 27 -117q41 -45 108 -45t123 45q55 45 67 117zM445 654l83 112h52l-94 -112h-41zM346 654l82 112h48l-87 -112h-43z" />
    <glyph glyph-name="Uogonek.sc" horiz-adv-x="593" 
d="M577 585h43l-69 -390q-15 -85 -78 -141q-61 -56 -141 -63l-38 -64q-10 -14 -6.5 -33t18.5 -26q21 -9 43.5 5.5t26.5 39.5l35 2q-5 -32 -27.5 -54.5t-52.5 -28.5q-51 -8 -73 29q-23 36 6 80l30 50q-79 4 -125 61q-44 58 -29 143l69 390h43l-69 -390q-12 -72 27 -117
q40 -45 108 -45t123 45t67 117z" />
    <glyph glyph-name="Wcircumflex.sc" horiz-adv-x="798" 
d="M468 500h40l47 -436l267 522h46l-302 -586h-44l-49 423l-198 -423h-43l-96 586h45l81 -521zM528 736l-89 -83h-43l109 112h58l67 -112h-42z" />
    <glyph glyph-name="Ycircumflex.sc" horiz-adv-x="534" 
d="M562 586h51l-276 -310l-48 -276h-44l48 277l-164 309h51l144 -266zM397 736l-89 -83h-43l108 112h58l68 -112h-42z" />
    <glyph glyph-name="Tcaron.sc" horiz-adv-x="488" 
d="M222 0l96 543h-192l7 43h428l-7 -43h-193l-96 -543h-43zM452 765h42l-108 -112h-57l-69 112h43l61 -82z" />
    <glyph glyph-name="Tbar.sc" horiz-adv-x="489" 
d="M319 303l-53 -303h-43l53 303h-109l8 36h109l35 204h-192l7 43h428l-7 -43h-193l-35 -204h110l-8 -36h-110z" />
    <glyph glyph-name="Zacute.sc" horiz-adv-x="482" 
d="M530 548l-424 -505h335l-7 -43h-389l5 36l426 507h-329l7 43h383zM315 654l83 112h52l-94 -112h-41z" />
    <glyph glyph-name="Zdotaccent.sc" horiz-adv-x="482" 
d="M332 725q2 15 14.5 24.5t27.5 9.5q14 0 22.5 -9.5t6.5 -24.5q-2 -26 -32 -31q-28 -6 -38 13q-3 9 -1 18zM530 548l-424 -505h335l-7 -43h-389l5 36l426 507h-329l7 43h383z" />
    <glyph glyph-name="Wgrave.sc" horiz-adv-x="798" 
d="M468 500h40l47 -436l267 522h46l-302 -586h-44l-49 423l-198 -423h-43l-96 586h45l81 -521zM471 765l45 -112h-42l-55 112h52z" />
    <glyph glyph-name="Wacute.sc" horiz-adv-x="798" 
d="M518 653l85 112h53l-96 -112h-42zM555 64l267 522h46l-302 -586h-44l-49 423l-198 -423h-43l-96 586h45l81 -521l206 435h40z" />
    <glyph glyph-name="Wdieresis.sc" horiz-adv-x="798" 
d="M421 724q3 15 15 24.5t26 9.5q15 0 24 -9.5t6 -24.5q-6 -26 -35 -31q-28 -4 -35 16q-3 6 -1 15zM560 724q3 15 15 24.5t27 9.5q16 0 24.5 -9.5t5.5 -24.5q-8 -32 -42 -32q-15 0 -24 9t-6 23zM555 64l267 522h46l-302 -586h-44l-49 423l-198 -423h-43l-96 586h45l81 -521
l206 435h40z" />
    <glyph glyph-name="Aringacute.sc" horiz-adv-x="557" 
d="M446 158h-282l-88 -158h-45l328 586h45l121 -586h-46zM438 197l-67 330l-185 -330h252zM333 736q5 30 26.5 51.5t50.5 26.5l60 80h52l-73 -85q21 -8 31.5 -28t6.5 -45q-6 -32 -33 -54t-60 -22q-31 0 -48.5 22t-12.5 54zM366 737q-3 -18 7 -30.5t28 -12.5t33.5 12.5
t18.5 30.5q7 32 -24 40q-31 9 -52 -14q-9 -11 -11 -26z" />
    <glyph glyph-name="AEacute.sc" horiz-adv-x="836" 
d="M539 654l84 112h51l-94 -112h-41zM477 200l61 343h-16l-284 -343h239zM24 0l481 586h367l-7 -43h-284l-42 -235h249l-8 -42h-249l-39 -223h294l-7 -43h-337l27 159h-265l-129 -159h-51z" />
    <glyph glyph-name="Oslashacute.sc" horiz-adv-x="703" 
d="M440 654l84 112h52l-94 -112h-42zM167 65l-86 -75l-21 25l87 75q-60 86 -39 201q23 125 123 212q100 88 224 88q115 0 183 -75l92 77l19 -25l-89 -78q58 -85 37 -199q-22 -123 -124 -213q-100 -88 -225 -88q-109 0 -181 75zM151 291q-17 -99 30 -171l424 365
q-64 64 -157 64q-106 0 -192 -75t-105 -183zM357 34q107 0 192 75t105 182q17 96 -31 169l-419 -365q58 -61 153 -61z" />
    <glyph glyph-name="Ibreve.sc" horiz-adv-x="237" 
d="M316 757h35q-8 -43 -40 -69t-77 -26q-47 0 -68 27t-14 68h34q-2 -27 12 -43t43 -16t49.5 16.5t25.5 42.5zM200 586h43l-103 -586h-43z" />
    <glyph glyph-name="Eng.sc" horiz-adv-x="602" 
d="M458 -25l5 25l-232 515l-91 -515h-43l103 586h47l228 -513l91 513h42l-104 -586q-16 -92 -64 -146q-47 -53 -143 -53q-20 0 -45 5l13 39q16 -4 40 -4q127 0 153 134z" />
    <glyph glyph-name="Ygrave.sc" horiz-adv-x="534" 
d="M411 647h-42l-56 112h52zM562 586h51l-276 -310l-48 -276h-44l48 277l-164 309h51l144 -266z" />
    <glyph glyph-name="Gcommaaccent.sc" horiz-adv-x="663" 
d="M640 238h-178l8 41h225q-27 -140 -112 -214.5t-212 -74.5q-124 0 -194 88q-70 87 -47 213q23 125 123 212q100 88 225 88q102 0 170 -62l-35 -31q-57 51 -142 51q-107 0 -192 -75q-87 -76 -106 -183t41 -183q60 -75 166 -75q99 0 167 53.5t93 151.5zM297 -197l-33 7
q61 58 72 134h47q-20 -94 -86 -141z" />
    <glyph glyph-name="Kcommaaccent.sc" horiz-adv-x="478" 
d="M199 -197l-32 7q61 58 72 134h47q-20 -93 -87 -141zM411 0l-225 268l-46 -268h-43l103 586h43l-52 -292l286 292h51l-296 -302l237 -284h-58z" />
    <glyph glyph-name="Lcommaaccent.sc" horiz-adv-x="426" 
d="M401 42l-6 -42h-298l103 586h43l-97 -544h255zM185 -197l-32 7q61 58 72 134h47q-20 -93 -87 -141z" />
    <glyph glyph-name="Ncommaaccent.sc" horiz-adv-x="602" 
d="M247 586l228 -515l91 515h42l-103 -586h-46l-228 515l-91 -515h-43l103 586h47zM223 -197l-32 7q61 58 72 134h47q-20 -93 -87 -141z" />
    <glyph glyph-name="Rcommaaccent.sc" horiz-adv-x="535" 
d="M349 233h-3l124 -233h-52l-125 235h-113l-40 -235h-43l103 586h216q82 0 112 -52q32 -51 18 -126q-13 -79 -63.5 -127t-133.5 -48zM409 543h-173l-48 -267h169q61 0 98.5 36.5t47.5 95.5q10 60 -13 97.5t-81 37.5zM199 -197l-32 7q61 58 72 134h47q-20 -93 -87 -141z" />
    <glyph glyph-name="Tcommaaccent.sc" horiz-adv-x="487" 
d="M222 0l96 543h-192l7 43h427l-7 -43h-192l-96 -543h-43zM173 -197l-32 7q60 59 71 134h47q-16 -91 -86 -141z" />
    <glyph glyph-name="Scommaaccent.sc" horiz-adv-x="498" 
d="M94 154h43q-5 -48 28 -85q34 -37 94 -37q63 0 110 30.5t63 75.5q18 52 -8.5 86t-87.5 50l-76 19q-132 32 -112 143q12 67 74 111t135 44q75 0 119 -42q44 -43 34 -113h-43q6 51 -26.5 82t-90.5 31q-54 0 -103 -32q-47 -32 -56 -81q-14 -80 84 -103l78 -18
q78 -18 110.5 -64.5t8.5 -120.5q-21 -56 -80 -98q-58 -42 -141 -42q-79 0 -122 49t-35 115zM181 -197l-32 7q60 59 71 134h47q-20 -94 -86 -141z" />
    <glyph glyph-name="Idotaccent.sc" horiz-adv-x="237" 
d="M211 725q2 26 30.5 32t38.5 -13q5 -8 2 -19q-2 -14 -14.5 -23.5t-27.5 -9.5q-14 0 -22.5 9.5t-6.5 23.5zM200 586h43l-103 -586h-43z" />
    <glyph glyph-name="zero.numr" horiz-adv-x="359" 
d="M336 671q51 0 77 -27.5t27.5 -72.5t-7.5 -102q-18 -100 -58 -151t-111 -51q-138 0 -102 202t174 202zM271 307q50 0 78.5 41t43.5 121q29 162 -65 162q-98 0 -126 -162t69 -162z" />
    <glyph glyph-name="one.numr" horiz-adv-x="194" 
d="M139 626l114 39l-71 -397h-40l61 343l-72 -24z" />
    <glyph glyph-name="two.numr" horiz-adv-x="320" 
d="M312 455l-150 -147h168l-7 -40h-237l4 17l197 196q39 36 47 75q6 33 -13 53.5t-55 20.5q-31 0 -57.5 -17.5t-35.5 -46.5l-36 10q15 42 53 67.5t83 25.5q52 2 81 -30t19.5 -84t-61.5 -100z" />
    <glyph glyph-name="three.numr" horiz-adv-x="325" 
d="M324 557q8 31 -6 50.5t-49 22.5q-23 2 -47 -9t-39 -30l-27 22q21 27 54.5 43t68.5 14q50 -4 74 -35t14 -76q-5 -24 -23.5 -45t-43.5 -32q30 -10 44 -41.5t5 -67.5q-14 -51 -60 -82q-48 -32 -100 -28q-76 6 -99 74l36 20q13 -49 74 -54q38 -3 69.5 19t40.5 57
q7 35 -14 58.5t-57 23.5h-41l8 38h41q26 0 48 16.5t29 41.5z" />
    <glyph glyph-name="four.numr" horiz-adv-x="355" 
d="M334 389h60l-7 -37h-60l-15 -84h-39l15 84h-207l274 312h29zM158 389h137l36 200z" />
    <glyph glyph-name="five.numr" horiz-adv-x="340" 
d="M201 664h195l-7 -39h-161l-47 -130q48 22 84 22q55 0 87 -34t22 -90q-11 -59 -56.5 -94.5t-110.5 -35.5q-39 0 -70.5 23t-44.5 60l38 24q8 -30 31.5 -48.5t53.5 -18.5q47 0 79.5 25t39.5 65q7 38 -15.5 60.5t-59.5 22.5q-49 0 -122 -32l-8 14z" />
    <glyph glyph-name="six.numr" horiz-adv-x="339" 
d="M123 396q12 106 45 179q43 97 142 96q78 -5 94 -71l-38 -15q-14 47 -65 47q-54 1 -88 -49q-33 -51 -40 -120q31 57 104 56q52 -1 80 -40q29 -40 17 -93t-56 -89q-44 -35 -95 -33q-52 2 -79.5 37.5t-20.5 94.5zM163 396q-7 -38 12.5 -64t54.5 -28q37 -1 67 23t38 61
t-11 63.5t-54 28.5q-37 2 -68.5 -22.5t-38.5 -61.5z" />
    <glyph glyph-name="seven.numr" horiz-adv-x="311" 
d="M154 664h262l-288 -396h-47l261 357h-195z" />
    <glyph glyph-name="eight.numr" horiz-adv-x="345" 
d="M180 573q8 41 42 69t77 28q44 0 68.5 -28t16.5 -69q-9 -48 -50 -74q28 -16 42 -45.5t7 -64.5q-9 -53 -55 -90q-45 -36 -102 -36t-88 36t-22 90q13 75 88 110q-33 28 -24 74zM265 478q-39 0 -71.5 -26.5t-38.5 -62.5t16.5 -61t61.5 -25q40 0 72.5 25t38.5 61t-17 62.5
t-62 26.5zM219 573q-5 -26 11 -43.5t45 -16.5q24 0 44 17.5t25 42.5q5 24 -10 40.5t-42 16.5q-26 0 -47 -16.5t-26 -40.5z" />
    <glyph glyph-name="nine.numr" horiz-adv-x="338" 
d="M386 537q-11 -89 -31 -146q-42 -125 -157 -128q-75 1 -95 71l38 15q13 -47 66 -48q55 -1 87 49q34 50 41 120q-15 -27 -43 -42t-61 -14q-52 1 -80 40q-28 40 -16 93q12 55 55 89q44 35 97 33q51 -2 78.5 -37.5t20.5 -94.5zM346 538q7 38 -12.5 63.5t-55.5 27.5
q-36 1 -65.5 -23t-37.5 -61q-8 -38 10 -64t55 -27q36 -2 67 22.5t39 61.5z" />
    <glyph glyph-name="zero.dnom" horiz-adv-x="359" 
d="M288 399q51 0 77 -27.5t27.5 -72.5t-7.5 -102q-18 -100 -58 -151t-111 -51q-138 0 -102 202t174 202zM154 197q-27 -162 69 -162q50 0 78.5 41t43.5 121q29 162 -65 162q-98 0 -126 -162z" />
    <glyph glyph-name="one.dnom" horiz-adv-x="194" 
d="M90 358l115 39l-70 -397h-40l60 342l-72 -23z" />
    <glyph glyph-name="two.dnom" horiz-adv-x="318" 
d="M263 186l-149 -146h168l-6 -40h-237l2 16l198 197q39 37 46 74q6 33 -13 53.5t-55 20.5q-31 0 -57 -17t-36 -46l-35 9q15 42 53 68t83 26q52 0 80.5 -32t19.5 -82q-7 -48 -62 -101z" />
    <glyph glyph-name="three.dnom" horiz-adv-x="325" 
d="M276 289q8 29 -6.5 49t-48.5 23q-52 5 -85 -38l-28 22q21 28 54.5 43t69.5 13q50 -3 73.5 -34.5t13.5 -76.5q-12 -52 -66 -77q30 -9 44 -41t5 -67q-14 -51 -60 -82q-48 -32 -100 -28q-76 4 -100 73l37 20q15 -48 74 -53q38 -2 69 19.5t41 56.5q7 34 -14 58t-56 24h-41
l6 38h41q26 0 48 16.5t29 41.5z" />
    <glyph glyph-name="four.dnom" horiz-adv-x="354" 
d="M285 121h60l-6 -37h-60l-14 -84h-39l14 84h-207l274 312h29zM109 121h137l37 200z" />
    <glyph glyph-name="five.dnom" horiz-adv-x="340" 
d="M154 396h195l-8 -39h-161l-46 -130q48 21 84 21q55 0 86.5 -34t21.5 -90q-11 -58 -56 -93.5t-110 -35.5q-39 0 -70.5 23t-44.5 60l38 23q7 -29 31 -47.5t54 -18.5q47 0 79 25t39 64q7 38 -15 61t-59 23q-51 0 -123 -33l-8 14z" />
    <glyph glyph-name="six.dnom" horiz-adv-x="339" 
d="M74 128q12 92 31 146q42 125 156 128q77 -2 95 -70l-38 -16q-15 46 -65 48q-54 1 -88 -49q-33 -51 -40 -120q29 58 104 56q53 -2 79 -41q28 -38 17 -92q-10 -52 -55 -89q-44 -35 -95 -33q-52 2 -79.5 37.5t-21.5 94.5zM113 127q-6 -38 13.5 -64t55.5 -28q35 -4 66 23
t38 61.5t-11 63.5q-16 27 -53 28t-70 -23t-39 -61z" />
    <glyph glyph-name="seven.dnom" horiz-adv-x="312" 
d="M107 396h262l-287 -396h-47l259 356h-195z" />
    <glyph glyph-name="eight.dnom" horiz-adv-x="345" 
d="M134 305q8 40 42 68.5t76 28.5q44 0 68.5 -28.5t17.5 -68.5q-7 -46 -52 -75q29 -15 42.5 -44.5t7.5 -64.5q-11 -53 -55 -90q-44 -36 -101 -36q-58 0 -89 36q-32 38 -22 90q6 35 30 64.5t58 45.5q-32 27 -23 74zM108 121q-7 -35 16 -62q22 -25 63 -25q40 0 71 25
q33 24 39 61t-16.5 64t-61.5 25q-39 0 -71.5 -26t-39.5 -62zM173 305q-5 -26 10.5 -43.5t43.5 -17.5q24 0 45 18t26 43q4 24 -11 40.5t-42 16.5q-26 0 -46.5 -16.5t-25.5 -40.5z" />
    <glyph glyph-name="nine.dnom" horiz-adv-x="339" 
d="M338 268q-12 -91 -31 -145q-42 -125 -156 -128q-78 2 -95 71l38 14q14 -46 67 -47q54 -2 86 48t41 120q-15 -27 -43 -41.5t-60 -13.5q-53 2 -81 40q-27 39 -16 92q11 55 54 89q43 36 98 34q51 -2 78 -37.5t20 -95.5zM299 270q7 38 -13 63.5t-56 27.5q-35 1 -64.5 -23
t-37.5 -61q-8 -38 10 -64t54 -27q36 -2 67.5 22.5t39.5 61.5z" />
    <glyph glyph-name="l.alt1" horiz-adv-x="253" 
d="M147 197l95 536h46l-96 -536q-27 -153 88 -153h26l-7 -44h-26q-161 0 -126 197z" />
    <glyph glyph-name="a.alt1" horiz-adv-x="538" 
d="M228 33q49 0 115 26q66 28 104 76l9 53q-74 33 -170 33q-148 0 -164 -96q-7 -42 20 -67t86 -25zM334 432q-79 0 -155 -59l-24 32q73 72 195 72q99 0 143 -49t28 -143l-50 -285h-45l13 80q-48 -46 -110 -69q-60 -22 -111 -22q-77 0 -114.5 36t-26.5 100q12 65 65.5 102
t151.5 37q73 0 172 -33l10 54q26 147 -142 147z" />
    <glyph glyph-name="y.alt1" horiz-adv-x="503" 
d="M-13 -229l8 44q9 -4 32 -4q50 0 88 29t81 97l28 51l-115 479h49l99 -425l252 425h48l-325 -548q-50 -81 -98.5 -116.5t-113.5 -35.5q-18 0 -33 4z" />
    <glyph glyph-name="lslash.alt1" horiz-adv-x="267" 
d="M68 334l92 52l61 347h45l-57 -319l107 61l-6 -42l-107 -61l-32 -175q-29 -153 87 -153h26l-7 -44h-26q-160 0 -125 197l26 147l-91 -52z" />
    <glyph glyph-name="lacute.alt1" horiz-adv-x="253" 
d="M256 793l98 130h55l-108 -130h-45zM147 197l95 536h46l-96 -536q-27 -153 88 -153h26l-7 -44h-26q-161 0 -126 197z" />
    <glyph glyph-name="lcommaaccent.alt1" horiz-adv-x="253" 
d="M112 -223q72 69 86 156h51q-25 -108 -102 -161q-2 0 -8 1t-12.5 2t-14.5 2zM130 197l95 536h45l-96 -536q-27 -153 88 -153h26l-7 -44h-26q-160 0 -125 197z" />
    <glyph glyph-name="lcaron.alt1" horiz-adv-x="253" 
d="M326 528l-27 11q72 81 92 194h45q-25 -126 -110 -205zM242 733h46l-96 -536q-27 -153 88 -153h26l-7 -44h-26q-161 0 -126 197z" />
    <glyph glyph-name="aacute.alt1" horiz-adv-x="538" 
d="M334 545l99 130h56l-111 -130h-44zM228 33q49 0 115 26q66 28 104 76l9 53q-74 33 -170 33q-148 0 -164 -96q-7 -42 20 -67t86 -25zM334 432q-79 0 -155 -59l-24 32q73 72 195 72q99 0 143 -49t28 -143l-50 -285h-45l13 80q-48 -46 -110 -69q-60 -22 -111 -22
q-77 0 -114.5 36t-26.5 100q12 65 65.5 102t151.5 37q73 0 172 -33l10 54q28 147 -142 147z" />
    <glyph glyph-name="agrave.alt1" horiz-adv-x="538" 
d="M397 545h-45l-62 130h55zM228 33q49 0 115 26q66 28 104 76l9 53q-74 33 -170 33q-148 0 -164 -96q-7 -42 20 -67t86 -25zM334 432q-79 0 -155 -59l-24 32q73 72 195 72q99 0 143 -49t28 -143l-50 -285h-45l13 80q-48 -46 -110 -69q-60 -22 -111 -22q-77 0 -114.5 36
t-26.5 100q12 65 65.5 102t151.5 37q73 0 172 -33l10 54q28 147 -142 147z" />
    <glyph glyph-name="acircumflex.alt1" horiz-adv-x="538" 
d="M270 545h-46l128 130h64l80 -130h-46l-73 99zM228 33q49 0 115 26q66 28 104 76l9 53q-74 33 -170 33q-148 0 -164 -96q-7 -42 20 -67t86 -25zM334 432q-79 0 -155 -59l-24 32q73 72 195 72q99 0 143 -49t28 -143l-50 -285h-45l13 80q-48 -46 -110 -69q-60 -22 -111 -22
q-77 0 -114.5 36t-26.5 100q12 65 65.5 102t151.5 37q73 0 172 -33l10 54q28 147 -142 147z" />
    <glyph glyph-name="adieresis.alt1" horiz-adv-x="538" 
d="M258 629q3 16 16 26.5t29 10.5q17 0 27 -10.5t7 -26.5t-16.5 -26t-30.5 -10q-16 0 -25.5 10.5t-6.5 25.5zM421 629q3 16 16 26.5t29 10.5q17 0 27 -10.5t7 -26.5t-16.5 -26t-30.5 -10q-16 0 -25.5 10.5t-6.5 25.5zM228 33q49 0 115 26q66 28 104 76l9 53q-74 33 -170 33
q-148 0 -164 -96q-7 -42 20 -67t86 -25zM334 432q-79 0 -155 -59l-24 32q73 72 195 72q99 0 143 -49t28 -143l-50 -285h-45l13 80q-48 -46 -110 -69q-60 -22 -111 -22q-77 0 -114.5 36t-26.5 100q12 65 65.5 102t151.5 37q73 0 172 -33l10 54q28 147 -142 147z" />
    <glyph glyph-name="atilde.alt1" horiz-adv-x="538" 
d="M342 616q-14 0 -26.5 -12t-16.5 -33h-39q9 39 32.5 62.5t49.5 23.5h9q21 0 46 -21q26 -21 40 -21t26.5 11.5t16.5 31.5h39q-9 -39 -33 -62t-50 -23q-21 0 -51 21q-28 22 -43 22zM228 33q49 0 115 26q66 28 104 76l9 53q-74 33 -170 33q-148 0 -164 -96q-7 -42 20 -67
t86 -25zM334 432q-79 0 -155 -59l-24 32q73 72 195 72q99 0 143 -49t28 -143l-50 -285h-45l13 80q-48 -46 -110 -69q-60 -22 -111 -22q-77 0 -114.5 36t-26.5 100q12 65 65.5 102t151.5 37q73 0 172 -33l10 54q28 147 -142 147z" />
    <glyph glyph-name="aring.alt1" horiz-adv-x="538" 
d="M398 734q38 0 59 -26t14 -64q-7 -37 -37 -62.5t-68 -25.5q-36 0 -57.5 25.5t-14.5 62.5t37.5 63.5t66.5 26.5zM331 644q-4 -21 8 -35.5t34 -14.5t39.5 14.5t21.5 35.5q4 22 -8.5 37t-34.5 15t-38.5 -14.5t-21.5 -37.5zM228 33q49 0 115 26q66 28 104 76l9 53
q-74 33 -170 33q-148 0 -164 -96q-7 -42 20 -67t86 -25zM334 432q-79 0 -155 -59l-24 32q73 72 195 72q99 0 143 -49t28 -143l-50 -285h-45l13 80q-48 -46 -110 -69q-60 -22 -111 -22q-77 0 -114.5 36t-26.5 100q12 65 65.5 102t151.5 37q73 0 172 -33l10 54
q28 147 -142 147z" />
    <glyph glyph-name="amacron.alt1" horiz-adv-x="538" 
d="M492 604h-232l7 42h232zM228 33q49 0 115 26q66 28 104 76l9 53q-74 33 -170 33q-148 0 -164 -96q-7 -42 20 -67t86 -25zM334 432q-79 0 -155 -59l-24 32q73 72 195 72q99 0 143 -49t28 -143l-50 -285h-45l13 80q-48 -46 -110 -69q-60 -22 -111 -22q-77 0 -114.5 36
t-26.5 100q12 65 65.5 102t151.5 37q73 0 172 -33l10 54q28 147 -142 147z" />
    <glyph glyph-name="abreve.alt1" horiz-adv-x="538" 
d="M480 666h37q-9 -50 -46 -80t-89 -30q-55 0 -80 31.5t-16 78.5h37q-2 -32 14 -51.5t51 -19.5t60.5 20t31.5 51zM228 33q49 0 115 26q66 28 104 76l9 53q-74 33 -170 33q-148 0 -164 -96q-7 -42 20 -67t86 -25zM334 432q-79 0 -155 -59l-24 32q73 72 195 72q99 0 143 -49
t28 -143l-50 -285h-45l13 80q-48 -46 -110 -69q-60 -22 -111 -22q-77 0 -114.5 36t-26.5 100q12 65 65.5 102t151.5 37q73 0 172 -33l10 54q28 147 -142 147z" />
    <glyph glyph-name="aogonek.alt1" horiz-adv-x="538" 
d="M334 432q-79 0 -155 -59l-24 32q73 72 195 72q99 0 143 -49t28 -143l-50 -285h-7l-43 -82q-8 -15 -10 -24q-5 -35 25 -48q18 -8 40.5 0t35.5 28q9 16 10 29h40q-3 -21 -15 -42q-23 -37 -60.5 -51.5t-71.5 -0.5q-35 16 -43 51.5t15 73.5l39 66l13 80q-48 -46 -110 -69
q-60 -22 -111 -22q-77 0 -114.5 36t-26.5 100q12 65 65.5 102t151.5 37q73 0 172 -33l10 54q28 147 -142 147zM228 33q49 0 115 26q66 28 104 76l9 53q-74 33 -170 33q-148 0 -164 -96q-7 -42 20 -67t86 -25z" />
    <glyph glyph-name="yacute.alt1" horiz-adv-x="503" 
d="M-13 -229l8 44q9 -4 32 -4q50 0 88 29t81 97l28 51l-115 479h49l99 -425l252 425h48l-325 -548q-50 -81 -98.5 -116.5t-113.5 -35.5q-18 0 -33 4zM322 545l99 130h56l-111 -130h-44z" />
    <glyph glyph-name="ydieresis.alt1" horiz-adv-x="503" 
d="M252 629q3 16 16 26.5t29 10.5q30 2 33 -25q4 -27 -19 -42q-11 -7 -26 -6q-16 0 -26 10.5t-7 25.5zM415 629q3 16 16 26.5t29 10.5q30 2 33 -25q4 -27 -19 -42q-11 -7 -26 -6q-16 0 -26 10.5t-7 25.5zM-13 -229l8 44q9 -4 32 -4q50 0 88 29t81 97l28 51l-115 479h49
l99 -425l252 425h48l-325 -548q-50 -81 -98.5 -116.5t-113.5 -35.5q-18 0 -33 4z" />
    <glyph glyph-name="ae.alt1" horiz-adv-x="923" 
d="M485 85l-14 -85h-45l13 80q-48 -46 -110 -69q-60 -22 -111 -22q-77 0 -114.5 36t-26.5 100q12 65 65.5 102t151.5 37q73 0 172 -33l10 54q28 147 -142 147q-79 0 -155 -59l-24 32q73 72 195 72q154 0 172 -113q40 53 98.5 83t123.5 30q90 0 138 -61t48 -182q0 -8 -4 -20
h-417q-8 -80 36 -129.5t121 -49.5q108 0 179 89l41 -15q-40 -56 -100.5 -87.5t-127.5 -31.5q-59 0 -104.5 25t-68.5 70zM516 256h372q7 81 -34.5 128.5t-117.5 47.5t-138 -48q-61 -47 -82 -128zM228 33q49 0 115 26q66 28 104 76l9 53q-74 33 -170 33q-148 0 -164 -96
q-7 -42 20 -67t86 -25z" />
    <glyph glyph-name="aeacute.alt1" horiz-adv-x="923" 
d="M485 85l-14 -85h-45l13 80q-48 -46 -110 -69q-60 -22 -111 -22q-77 0 -114.5 36t-26.5 100q12 65 65.5 102t151.5 37q73 0 172 -33l10 54q28 147 -142 147q-79 0 -155 -59l-24 32q73 72 195 72q154 0 172 -113q40 53 98.5 83t123.5 30q90 0 138 -61t48 -182q0 -8 -4 -20
h-417q-8 -80 36 -129.5t121 -49.5q108 0 179 89l41 -15q-40 -56 -100.5 -87.5t-127.5 -31.5q-59 0 -104.5 25t-68.5 70zM516 256h372q7 81 -34.5 128.5t-117.5 47.5t-138 -48q-61 -47 -82 -128zM228 33q49 0 115 26q66 28 104 76l9 53q-74 33 -170 33q-148 0 -164 -96
q-7 -42 20 -67t86 -25zM557 545l99 130h56l-111 -130h-44z" />
    <glyph glyph-name="ycircumflex.alt1" horiz-adv-x="503" 
d="M260 545h-46l128 130h64l80 -130h-46l-72 99zM-13 -229l8 44q9 -4 32 -4q50 0 88 29t81 97l28 51l-115 479h49l99 -425l252 425h48l-325 -548q-50 -81 -98.5 -116.5t-113.5 -35.5q-18 0 -33 4z" />
    <glyph glyph-name="ldot.alt1" horiz-adv-x="261" 
d="M267 246q4 30 37 37q31 7 43 -13q6 -10 3 -24q-4 -29 -36 -36q-31 -6 -44 13q-6 10 -3 23zM147 197l95 536h46l-96 -536q-27 -153 88 -153h26l-7 -44h-26q-161 0 -126 197z" />
    <glyph glyph-name="t.alt1" horiz-adv-x="312" 
d="M113 467h85l25 138l48 16l-28 -154h109l-7 -41h-109l-46 -258q-12 -66 8.5 -95t84.5 -29h17l-8 -44h-17q-86 0 -115 40t-14 128l45 258h-85z" />
    <glyph glyph-name="tcaron.alt1" horiz-adv-x="312" 
d="M223 605l48 16l-28 -154h109l-7 -41h-109l-46 -258q-12 -66 8.5 -95t84.5 -29h17l-8 -44h-17q-86 0 -115 40t-14 128l45 258h-85l7 41h85zM372 678h49q-19 -104 -92 -163l-28 10q60 63 71 153z" />
    <glyph glyph-name="tbar.alt1" horiz-adv-x="315" 
d="M116 467h85l25 138l47 16l-27 -154h109l-7 -41h-109l-28 -154h77l-7 -38h-77l-11 -66q-12 -67 8 -95.5t84 -28.5h17l-7 -44h-17q-86 0 -115.5 40t-14.5 128l11 66h-68l7 38h68l28 154h-85z" />
    <glyph glyph-name="tcommaaccent.alt1" horiz-adv-x="312" 
d="M120 -223q74 69 87 156h51q-25 -109 -103 -161zM113 467h85l25 138l48 16l-28 -154h109l-7 -41h-109l-46 -258q-12 -66 8.5 -95t84.5 -29h17l-8 -44h-17q-86 0 -115 40t-14 128l45 258h-85z" />
    <glyph glyph-name="T.sc.alt1" horiz-adv-x="487" 
d="M222 0l96 543h-192l7 43h427l-7 -43h-192l-96 -543h-43z" />
    <glyph glyph-name="Tcaron.sc.alt1" horiz-adv-x="488" 
d="M222 0l96 543h-192l7 43h428l-7 -43h-193l-96 -543h-43zM452 765h42l-108 -112h-57l-69 112h43l61 -82z" />
    <glyph glyph-name="Tbar.sc.alt1" horiz-adv-x="489" 
d="M319 303l-53 -303h-43l53 303h-109l8 36h109l35 204h-192l7 43h428l-7 -43h-193l-35 -204h110l-8 -36h-110z" />
    <glyph glyph-name="Tcommaaccent.sc.alt1" horiz-adv-x="487" 
d="M222 0l96 543h-192l7 43h427l-7 -43h-192l-96 -543h-43zM173 -197l-32 7q60 59 71 134h47q-16 -91 -86 -141z" />
    <glyph glyph-name="aringacute.alt1" horiz-adv-x="538" 
d="M382 584q22 0 39 14.5t21 36.5q5 22 -7 37t-34 15q-21 0 -39 -15t-22 -37t8.5 -36.5t33.5 -14.5zM385 721l82 108h55l-92 -109q27 -8 41.5 -32t8.5 -54q-7 -37 -37.5 -62.5t-67.5 -25.5t-58 25.5t-14 62.5q6 32 29 56t53 31zM228 33q49 0 115 26q66 28 104 76l9 53
q-74 33 -170 33q-148 0 -164 -96q-7 -42 20 -67t86 -25zM334 432q-79 0 -155 -59l-24 32q73 72 195 72q99 0 143 -49t28 -143l-50 -285h-45l13 80q-48 -46 -110 -69q-60 -22 -111 -22q-77 0 -114.5 36t-26.5 100q12 65 65.5 102t151.5 37q73 0 172 -33l10 54
q28 147 -142 147z" />
    </font>
</defs>
</svg>
