<?xml version="1.0" standalone="no"?>
<!DOCTYPE svg PUBLIC "-//W3C//DTD SVG 1.1//EN" "http://www.w3.org/Graphics/SVG/1.1/DTD/svg11.dtd" >
<svg xmlns="http://www.w3.org/2000/svg" xmlns:xlink="http://www.w3.org/1999/xlink" version="1.1">
<metadata>
Created by FontForge 20170731 at Wed Sep 26 13:59:16 2001
 By Aleksey,,,
Copyright (c) 1991 Adobe Systems Incorporated.  All Rights Reserved.Trade Gothic is a trademark of Linotype-Hell AG and/or its subsidiaries.
</metadata>
<defs>
<font id="TradeGothicLT-BoldExtended" horiz-adv-x="278" >
  <font-face 
    font-family="TradeGothic LT Extended"
    font-weight="700"
    font-stretch="normal"
    units-per-em="1000"
    panose-1="2 0 8 4 4 0 0 2 0 4"
    ascent="800"
    descent="-200"
    x-height="537"
    cap-height="727"
    bbox="-176 -250 1068 1013"
    underline-thickness="50"
    underline-position="-175"
    unicode-range="U+0020-2122"
  />
<missing-glyph horiz-adv-x="500" 
d="M442 8v496h-384v-496h384zM50 512h400v-512h-400v512z" />
    <glyph glyph-name=".notdef" horiz-adv-x="500" 
d="M442 8v496h-384v-496h384zM50 512h400v-512h-400v512z" />
    <glyph glyph-name=".null" horiz-adv-x="0" 
 />
    <glyph glyph-name="nonmarkingreturn" horiz-adv-x="361" 
 />
    <glyph glyph-name="space" unicode=" " horiz-adv-x="361" 
 />
    <glyph glyph-name="exclam" unicode="!" horiz-adv-x="333" 
d="M100 142h133v-142h-133v142zM239 727l-27 -496h-91l-27 496h145z" />
    <glyph glyph-name="quotedbl" unicode="&#x22;" horiz-adv-x="444" 
d="M72 727h96v-296h-96v296zM276 727h96v-296h-96v296z" />
    <glyph glyph-name="numbersign" unicode="#" horiz-adv-x="722" 
d="M443 424h-148l-16 -121h148zM416 217h-148l-29 -217h-88l29 217h-90v86h101l16 121h-90v86h101l29 217h88l-29 -217h148l29 217h88l-29 -217h90v-86h-101l-16 -121h90v-86h-101l-29 -217h-88z" />
    <glyph glyph-name="dollar" unicode="$" horiz-adv-x="722" 
d="M410 100q31 2 60.5 8.5t52 18.5t36 29.5t13.5 43.5q0 29 -26.5 48t-74.5 30l-61 14v-192zM314 627h-22q-18 -1 -41 -5.5t-43 -15t-33 -28t-11 -42.5q0 -26 16.5 -42.5t40 -26t49 -15t44.5 -8.5v183zM410 426l82 -19q49 -11 87 -27t64 -39t39.5 -55t13.5 -75
q0 -63 -25.5 -105.5t-66 -69.5t-91.5 -39.5t-103 -14.5v-122h-96v122q-56 4 -102.5 19t-83.5 36.5t-62.5 46.5t-39.5 48l90 89q9 -12 24.5 -30t39.5 -36t57 -33t77 -22v210l-72 18q-44 11 -81 24.5t-64 35.5t-42 55t-15 83q0 57 24 98.5t63 68t88 39.5t99 13v85h96v-85
q51 -3 95.5 -18t79 -35.5t59 -43t35.5 -38.5l-87 -89q-11 17 -29.5 34.5t-42 32.5t-52 25.5t-58.5 13.5v-201z" />
    <glyph glyph-name="percent" unicode="%" horiz-adv-x="1000" 
d="M666 166q0 -35 24.5 -59.5t59.5 -24.5t59.5 24.5t24.5 59.5t-24.5 59.5t-59.5 24.5t-59.5 -24.5t-24.5 -59.5zM750 -18q-38 0 -71.5 14.5t-58.5 39.5t-39.5 58.5t-14.5 71.5t14.5 71.5t39.5 58.5t58.5 39.5t71.5 14.5t71.5 -14.5t58.5 -39.5t39.5 -58.5t14.5 -71.5
t-14.5 -71.5t-39.5 -58.5t-58.5 -39.5t-71.5 -14.5zM66 561q0 38 14.5 71.5t39.5 58.5t58.5 39.5t71.5 14.5t71.5 -14.5t58.5 -39.5t39.5 -58.5t14.5 -71.5t-14.5 -71.5t-39.5 -58.5t-58.5 -39.5t-71.5 -14.5t-71.5 14.5t-58.5 39.5t-39.5 58.5t-14.5 71.5zM670 745h88
l-430 -776h-88zM250 477q35 0 59.5 24.5t24.5 59.5t-24.5 59.5t-59.5 24.5t-59.5 -24.5t-24.5 -59.5t24.5 -59.5t59.5 -24.5z" />
    <glyph glyph-name="ampersand" unicode="&#x26;" horiz-adv-x="944" 
d="M166 211q0 -32 16.5 -53.5t41 -34.5t54 -18t55.5 -5q45 0 84.5 10t81.5 25l32 14l-32 27q-61 51 -141 137l-27 30l-28 -10q-21 -7 -45 -17t-44.5 -24.5t-34 -34t-13.5 -46.5zM892 -18q-43 0 -82.5 8.5t-73 21t-60 27.5t-44.5 29l-34 -22q-35 -17 -66 -29.5t-63 -20
t-65.5 -11t-72.5 -3.5q-68 0 -124 15t-96 43.5t-62 70.5t-22 97q0 43 17.5 79t45.5 64t64 48t74 31l31 9l-17 23q-22 29 -30 58t-8 55q0 42 18 74t47 53.5t67 32t77 10.5q42 0 81.5 -9.5t71 -30.5t50.5 -54t19 -79q0 -41 -14 -72.5t-36.5 -54t-50 -38t-54.5 -25.5l-11 -4
l9 -9q33 -34 68 -68t70 -63l23 -19l9 7q21 16 40 36t36 41.5t31.5 42t25.5 38.5l8 13l111 -58l-8 -13q-27 -45 -57.5 -83.5t-68.5 -76.5l-24 -22q31 -23 72.5 -31.5t76.5 -8.5h26v-122h-25zM416 475q18 6 35.5 15t31 22t22 29t8.5 37q0 41 -26.5 63t-68.5 22t-67 -23
t-25 -65q0 -26 16 -49t32 -41l18 -17z" />
    <glyph glyph-name="quotesingle" unicode="'" 
d="M91 727h96v-296h-96v296z" />
    <glyph glyph-name="parenleft" unicode="(" horiz-adv-x="333" 
d="M323 745q-41 -42 -74 -87t-56.5 -95.5t-36.5 -107.5t-13 -121q0 -65 13 -121.5t36.5 -107t56.5 -95.5t74 -87h-136q-37 37 -68 83t-53.5 98.5t-35.5 110t-13 119.5q0 61 13 119t35.5 110.5t53.5 98.5t68 83h136z" />
    <glyph glyph-name="parenright" unicode=")" horiz-adv-x="333" 
d="M10 -77q41 42 74 87t56.5 95.5t36.5 107t13 121.5q0 64 -13 121t-36.5 107.5t-56.5 95.5t-74 87h136q37 -37 68 -83t53.5 -98.5t35.5 -110.5t13 -119q0 -62 -13 -119.5t-35.5 -110t-53.5 -98.5t-68 -83h-136z" />
    <glyph glyph-name="asterisk" unicode="*" horiz-adv-x="500" 
d="M445 560l-152 -20l116 -105l-93 -68l-68 138l-58 -139l-95 68l107 106l-147 20l31 101l133 -66l-27 150h113l-30 -150l136 72z" />
    <glyph glyph-name="plus" unicode="+" horiz-adv-x="600" 
d="M252 205h-205v96h205v205h96v-205h205v-96h-205v-205h-96v205z" />
    <glyph glyph-name="comma" unicode="," horiz-adv-x="361" 
d="M114 142h133v-147l-63 -149h-66l54 154h-58v142z" />
    <glyph glyph-name="hyphenminus" unicode="-" horiz-adv-x="333" 
d="M44 336h245v-106h-245v106z" />
    <glyph glyph-name="period" unicode="." horiz-adv-x="361" 
d="M114 142h133v-142h-133v142z" />
    <glyph glyph-name="slash" unicode="/" 
d="M201 745h106l-230 -763h-106z" />
    <glyph glyph-name="zero" unicode="0" horiz-adv-x="722" 
d="M33 363q0 80 18.5 149.5t58 121.5t102 81.5t150.5 29.5t150 -29.5t101.5 -81.5t57.5 -121.5t18 -149.5q0 -96 -24 -168t-67 -119t-103 -70.5t-133 -23.5t-133.5 23.5t-104 70.5t-67.5 119t-24 168zM166 363q0 -68 14.5 -118t40.5 -83t62 -49.5t79 -16.5t78.5 16.5
t61 49.5t40 83t14.5 118q0 48 -8 96t-29.5 86t-59.5 62t-97 24t-97 -24t-60 -62t-30.5 -86t-8.5 -96z" />
    <glyph glyph-name="one" unicode="1" horiz-adv-x="722" 
d="M174 641q59 8 109 30t93 74h74v-745h-126v559h-150v82z" />
    <glyph glyph-name="two" unicode="2" horiz-adv-x="722" 
d="M22 100l369 224q29 18 56.5 36t49 38.5t34.5 45.5t13 56q0 33 -11 55.5t-28.5 37t-39.5 22.5t-42.5 11.5t-38.5 4t-27 0.5q-46 0 -79 -11t-56 -30.5t-37 -45t-21 -54.5h-133q0 39 17.5 83.5t56.5 82.5t100.5 63.5t150.5 25.5q62 0 120 -12t102.5 -41t71.5 -76.5
t27 -117.5q0 -45 -14.5 -82t-39 -67.5t-57 -55t-69.5 -45.5l-226 -128v-2h397v-118h-646v100z" />
    <glyph glyph-name="three" unicode="3" horiz-adv-x="722" 
d="M245 439h106q40 0 73 4.5t56 15t35.5 29t12.5 47.5q0 27 -13 45t-35.5 29.5t-53.5 16.5t-68 5q-57 0 -93.5 -11.5t-57.5 -26.5t-29 -30.5t-8 -23.5h-126q0 13 4 33t16 43t33 46t56 41.5t84.5 30.5t118.5 12q149 0 227 -56t78 -150q0 -37 -11.5 -63.5t-27.5 -44.5
t-33.5 -28.5t-30.5 -15.5q14 -6 34.5 -18t40 -32.5t33 -51t13.5 -74.5q0 -47 -20.5 -88.5t-60.5 -73t-100.5 -49.5t-139.5 -18q-104 0 -168 25.5t-99.5 62t-48.5 76t-14 67.5h133q4 -21 16.5 -41.5t35 -37.5t55.5 -27.5t78 -10.5q41 0 77 7t63 22.5t43 40.5t17 60
q0 17 -7.5 34.5t-26.5 32t-51 23.5t-80 9h-136v114z" />
    <glyph glyph-name="four" unicode="4" horiz-adv-x="722" 
d="M471 591l-312 -327h312v327zM458 727h139v-463h93v-110h-93v-154h-126v154h-454v110z" />
    <glyph glyph-name="five" unicode="5" horiz-adv-x="722" 
d="M648 613h-464l-10 -158q30 19 80 36t123 17q68 0 125 -16.5t98 -48.5t63.5 -80t22.5 -112q0 -53 -17 -101.5t-56 -85.5t-102 -59.5t-155 -22.5q-73 0 -126 13.5t-89 35t-57.5 47.5t-33 51t-15 45t-3.5 30h136q0 -11 9 -29t31 -35.5t58.5 -30.5t91.5 -13q91 0 143 42
t52 113q0 34 -14.5 61.5t-40.5 46.5t-61 29t-75 10q-44 0 -75.5 -8.5t-52.5 -20t-33.5 -23t-17.5 -17.5h-124l12 398h577v-114z" />
    <glyph glyph-name="six" unicode="6" horiz-adv-x="722" 
d="M556 230q0 58 -46 95t-127 37q-47 0 -81 -11t-58.5 -25.5t-41 -29.5t-27.5 -24q6 -37 22.5 -69t42 -56t60.5 -37.5t79 -13.5q37 0 69 8.5t56 25t38 41.5t14 59zM544 542q-1 12 -11.5 27.5t-30 29t-48 23t-64.5 9.5q-41 0 -79.5 -13t-69 -41t-49.5 -72t-20 -107
q16 12 37 25t48 24t61 18t75 7q74 0 129.5 -20t92.5 -53t55.5 -76t18.5 -89q0 -55 -21 -101.5t-61 -80t-96.5 -52t-128.5 -18.5q-69 0 -132.5 22t-111.5 67t-76.5 115t-28.5 166q0 65 17.5 134.5t59 127t110 94.5t169.5 37q76 0 129.5 -21t88 -51.5t51.5 -66t19 -64.5h-133z
" />
    <glyph glyph-name="seven" unicode="7" horiz-adv-x="722" 
d="M509 613h-464v114h632v-64l-367 -663h-155z" />
    <glyph glyph-name="eight" unicode="8" horiz-adv-x="722" 
d="M181 533q0 -29 14 -48.5t38 -31t57 -16t71 -4.5t71 4.5t57.5 16t38.5 31t14 48.5q0 34 -20 53.5t-48 29.5t-59.5 12.5t-53.5 2.5q-23 0 -53.5 -2.5t-59 -12.5t-48 -29.5t-19.5 -53.5zM168 212q0 -33 14.5 -55.5t40.5 -36t61 -19t77 -5.5t77 5.5t61 19t40.5 36t14.5 55.5
q0 34 -16 55.5t-43 34t-62 17t-72 4.5t-72 -4.5t-62 -17t-43 -34t-16 -55.5zM35 200q0 40 13.5 72t33.5 54.5t42.5 36.5t40.5 19v2q-53 22 -83 60.5t-30 99.5q0 42 18.5 79t56.5 64t96 42.5t138 15.5q81 0 140 -17t96.5 -44.5t55.5 -64t18 -75.5q0 -35 -10 -61.5t-26 -45.5
t-36.5 -32t-41.5 -21v-2q18 -5 40.5 -19t42.5 -36.5t33.5 -54.5t13.5 -72q0 -59 -25.5 -100.5t-69.5 -67.5t-103.5 -38t-127.5 -12t-127.5 12t-103.5 38t-69.5 67.5t-25.5 100.5z" />
    <glyph glyph-name="nine" unicode="9" horiz-adv-x="722" 
d="M166 497q0 -58 46 -95t127 -37q46 0 80.5 11t59 25.5t41 29.5t27.5 24q-6 37 -22.5 69t-42 56t-60.5 37.5t-79 13.5q-37 0 -69 -8.5t-56 -25t-38 -41.5t-14 -59zM178 185q1 -12 11.5 -27.5t30 -29t48 -23t64.5 -9.5q41 0 79.5 13t69 41t49 72t20.5 107q-16 -12 -37 -25
t-48 -24t-61 -18t-75 -7q-74 0 -129.5 19.5t-92.5 52.5t-55.5 76t-18.5 90q0 55 21 101.5t61 80t96.5 52t128.5 18.5q69 0 132.5 -22t111.5 -67t76.5 -115t28.5 -166q0 -65 -17.5 -134.5t-59 -127t-110 -94.5t-169.5 -37q-76 0 -129.5 21t-88 51.5t-51.5 66t-19 64.5h133z
" />
    <glyph glyph-name="colon" unicode=":" horiz-adv-x="361" 
d="M114 142h133v-142h-133v142zM114 444h133v-142h-133v142z" />
    <glyph glyph-name="semicolon" unicode=";" horiz-adv-x="361" 
d="M114 444h133v-142h-133v142zM114 142h133v-147l-63 -149h-66l54 154h-58v142z" />
    <glyph glyph-name="less" unicode="&#x3c;" horiz-adv-x="600" 
d="M47 208v86l506 220v-100l-370 -163l370 -163v-100z" />
    <glyph glyph-name="equal" unicode="=" horiz-adv-x="600" 
d="M47 190h506v-96h-506v96zM47 412h506v-96h-506v96z" />
    <glyph glyph-name="greater" unicode="&#x3e;" horiz-adv-x="600" 
d="M553 294v-86l-506 -220v100l370 163l-370 163v100z" />
    <glyph glyph-name="question" unicode="?" horiz-adv-x="611" 
d="M218 142h133v-142h-133v142zM229 264q0 20 3 39t11 36.5t23 34.5t38 33l56 38q19 13 35 24t28 23t18.5 26t6.5 33q0 24 -10.5 40.5t-29.5 27t-45 15.5t-57 5q-57 0 -92.5 -15.5t-56 -35.5t-29 -38.5t-11.5 -24.5l-111 49q2 6 9.5 21.5t21.5 34.5t36 39.5t53 37t72.5 27.5
t95.5 11q75 0 128.5 -14.5t88 -40.5t51 -62.5t19.5 -80.5q2 -42 -26 -91t-98 -91q-27 -17 -48.5 -29.5t-36.5 -25.5t-23 -28.5t-8 -37.5v-15h-112v35z" />
    <glyph glyph-name="at" unicode="@" horiz-adv-x="800" 
d="M624 558l-60 -237q-7 -26 -11 -47.5t-4 -33.5t3 -17.5t14 -5.5q24 0 47 15.5t41.5 42.5t30 63t11.5 77q0 63 -22 110.5t-60 79.5t-89.5 48t-111.5 16q-63 0 -117 -23t-94 -64t-63 -96.5t-23 -121.5t23 -122t63 -97t94.5 -64t116.5 -23q76 0 137.5 23t102.5 71h80
q-51 -81 -133.5 -125.5t-181.5 -44.5q-78 0 -149 27.5t-124.5 78t-85 120.5t-31.5 156q0 85 31.5 155t85.5 120.5t126 78t153 27.5q69 0 132 -22t111 -63t76.5 -99t28.5 -129q0 -75 -27.5 -130.5t-66.5 -92t-81.5 -54t-72.5 -17.5q-26 0 -44 14.5t-20 44.5h-3
q-17 -27 -50 -43t-68 -16q-32 0 -60.5 13.5t-49.5 36.5t-33 53.5t-12 65.5q0 49 16 97t46 85t72 60t94 23q36 0 66.5 -17t50.5 -56l18 59h77zM496 396q0 37 -18.5 62.5t-59.5 25.5q-30 0 -54.5 -15.5t-42 -39.5t-27.5 -53.5t-10 -56.5q0 -42 22.5 -67.5t57.5 -25.5
q29 0 53.5 16t42 41t27 55t9.5 58z" />
    <glyph glyph-name="A" unicode="A" horiz-adv-x="889" 
d="M366 727h162l353 -727h-150l-76 167h-419l-77 -167h-151zM599 289l-152 324l-152 -324h304z" />
    <glyph glyph-name="B" unicode="B" horiz-adv-x="889" 
d="M533 440q70 0 102 19t32 65q0 47 -32 66t-102 19h-305v-169h305zM537 118q34 0 63 4t50 15.5t33 32t12 52.5q0 57 -43 78.5t-115 21.5h-309v-204h309zM86 727h438q64 0 116.5 -9.5t90 -31.5t58 -57.5t20.5 -87.5q0 -35 -7.5 -59t-19.5 -41.5t-27 -29.5t-30 -21
q19 -8 39 -24t36 -38.5t26.5 -51.5t10.5 -65q0 -103 -76.5 -157t-209.5 -54h-465v727z" />
    <glyph glyph-name="C" unicode="C" horiz-adv-x="889" 
d="M850 259q-3 -20 -11.5 -48.5t-26 -59.5t-45.5 -61t-72 -54t-106 -39t-145 -15q-86 0 -161 24t-130.5 73t-87.5 123t-32 173q0 79 25.5 147t77.5 117.5t131.5 77.5t187.5 28q81 0 140.5 -16t101 -40.5t68 -54t42 -57.5t22.5 -50t10 -32h-142q-3 9 -16 30.5t-40 43
t-70.5 38t-107.5 16.5q-75 0 -129 -20t-88.5 -55.5t-51 -83.5t-16.5 -105q0 -63 21.5 -110.5t58.5 -79.5t87.5 -48.5t109.5 -16.5q62 0 107.5 16.5t76 40t47.5 50.5t22 48h142z" />
    <glyph glyph-name="D" unicode="D" horiz-adv-x="889" 
d="M86 727h350q86 0 161.5 -19.5t131.5 -62t88.5 -111t32.5 -166.5q0 -93 -30 -162t-84 -115t-129 -68.5t-165 -22.5h-356v727zM372 122q91 0 154.5 14t104 44t59 76t18.5 110q0 67 -19 112.5t-59.5 73.5t-104.5 40.5t-153 12.5h-144v-483h144z" />
    <glyph glyph-name="E" unicode="E" horiz-adv-x="778" 
d="M86 727h652v-122h-510v-169h439v-122h-439v-192h522v-122h-664v727z" />
    <glyph glyph-name="F" unicode="F" horiz-adv-x="778" 
d="M86 727h669v-122h-527v-169h453v-122h-453v-314h-142v727z" />
    <glyph glyph-name="G" unicode="G" horiz-adv-x="889" 
d="M836 373v-381h-86l-28 75q-21 -14 -46 -28.5t-57.5 -27.5t-74 -21t-94.5 -8q-46 0 -95 8t-94.5 26t-86 47.5t-70.5 71.5t-47.5 98.5t-17.5 128.5q0 73 23 142t72 122.5t126 86t186 32.5q63 0 126 -12.5t116 -41.5t91.5 -75.5t51.5 -115.5h-145q-6 14 -18.5 35t-37 40.5
t-64.5 33.5t-103 14q-86 0 -140.5 -25.5t-86 -64t-43.5 -83t-12 -82.5q0 -65 20.5 -113.5t56.5 -81t85.5 -49t107.5 -16.5q106 0 166 37t86 114h-255v114h388z" />
    <glyph glyph-name="H" unicode="H" horiz-adv-x="944" 
d="M86 727h142v-288h488v288h142v-727h-142v313h-488v-313h-142v727z" />
    <glyph glyph-name="I" unicode="I" horiz-adv-x="332" 
d="M95 727h142v-727h-142v727z" />
    <glyph glyph-name="J" unicode="J" horiz-adv-x="611" 
d="M22 141q38 -10 76.5 -16.5t86.5 -6.5q63 0 102 10.5t60.5 32t29 52.5t6.5 71v443h142v-451q-1 -80 -21.5 -134.5t-60.5 -87.5t-100.5 -47.5t-140.5 -14.5q-26 0 -52 1t-50 3.5t-44.5 5.5t-33.5 6v133z" />
    <glyph glyph-name="K" unicode="K" horiz-adv-x="889" 
d="M86 727h142v-339l403 339h202l-347 -288l382 -439h-186l-299 355l-155 -129v-226h-142v727z" />
    <glyph glyph-name="L" unicode="L" horiz-adv-x="778" 
d="M86 727h142v-601h527v-126h-669v727z" />
    <glyph glyph-name="M" unicode="M" horiz-adv-x="1000" 
d="M210 551h-2v-551h-126v727h191l227 -539l231 539h187v-727h-126v551h-2l-233 -551h-113z" />
    <glyph glyph-name="N" unicode="N" horiz-adv-x="944" 
d="M86 727h150l486 -525v525h136v-727h-130l-506 544v-544h-136v727z" />
    <glyph glyph-name="O" unicode="O" horiz-adv-x="944" 
d="M39 358q0 75 22.5 144.5t74 123.5t134 86.5t202.5 32.5t202.5 -32.5t134 -86.5t74 -123.5t22.5 -144.5q0 -57 -19.5 -122.5t-68 -122t-132.5 -94t-213 -37.5t-213 37.5t-132.5 94t-68 122t-19.5 122.5zM472 104q51 0 103 12t93.5 42t68 80.5t26.5 127.5q0 66 -22 114
t-61 80t-92.5 47.5t-115.5 15.5t-115.5 -15.5t-92.5 -47.5t-61 -80t-22 -114q0 -77 26.5 -127.5t68 -80.5t93.5 -42t103 -12z" />
    <glyph glyph-name="P" unicode="P" horiz-adv-x="833" 
d="M522 404q30 0 57.5 2.5t48.5 12.5t33.5 30.5t12.5 55.5t-12.5 55t-33.5 30t-48.5 12.5t-57.5 2.5h-294v-201h294zM86 727h405q31 0 67 -1t72 -7t69.5 -19.5t59.5 -38.5t41.5 -63t15.5 -94q0 -55 -15.5 -93.5t-41.5 -63t-59.5 -38t-69.5 -19.5t-72 -7t-67 -1h-263v-282
h-142v727z" />
    <glyph glyph-name="Q" unicode="Q" horiz-adv-x="944" 
d="M917 -102q-34 0 -64.5 2t-61.5 13t-62.5 34t-67.5 65q-78 -30 -189 -30q-129 0 -213 37.5t-132.5 94t-68 122t-19.5 122.5q0 75 22.5 144.5t74 123.5t134 86.5t202.5 32.5t202.5 -32.5t134 -86.5t74 -123.5t22.5 -144.5q0 -34 -6.5 -72t-22.5 -76t-41.5 -74t-63.5 -65
q18 -16 32.5 -25.5t30.5 -15t35.5 -8t47.5 -2.5v-122zM493 319q43 -3 74.5 -18.5t54 -36.5t38 -45.5t26.5 -46.5q35 31 56 78t21 116q0 66 -22 114t-61 80t-92.5 47.5t-115.5 15.5t-115.5 -15.5t-92.5 -47.5t-61 -80t-22 -114q0 -77 26.5 -127.5t68 -80.5t93.5 -42t103 -12
q55 0 104 13q-13 31 -30 49.5t-53 30.5v122z" />
    <glyph glyph-name="R" unicode="R" horiz-adv-x="889" 
d="M86 727h437q64 0 118.5 -9t94 -33t61.5 -66t22 -109q0 -50 -16.5 -89t-44.5 -66t-65 -42t-77 -17l223 -296h-175l-211 286h-225v-286h-142v727zM502 404q43 0 76 4t55 15t33 31.5t11 52.5t-11 52t-33 31t-55 15t-76 4h-274v-205h274z" />
    <glyph glyph-name="S" unicode="S" horiz-adv-x="833" 
d="M652 506q-9 24 -25.5 46t-46 38.5t-74 26.5t-109.5 10q-36 0 -70.5 -5t-62 -15.5t-44 -28t-16.5 -42.5q0 -12 5 -23.5t22 -22.5t49.5 -20t86.5 -16l172 -26q61 -9 109 -26t81.5 -42.5t51 -60.5t17.5 -81q0 -65 -28.5 -109.5t-77.5 -73t-114 -41t-138 -12.5
q-117 0 -192.5 25t-120.5 59t-65.5 69t-26.5 56l137 43q10 -20 26.5 -42.5t47 -42t78.5 -32.5t120 -13q43 0 82 7t67.5 20t45.5 31.5t17 42.5q0 71 -158 91l-174 24q-127 17 -194.5 70t-67.5 137q0 54 21 91.5t54 62t73.5 37.5t78 19t68 7t44.5 1q117 0 189.5 -23.5
t113.5 -55.5t58 -64.5t24 -51.5z" />
    <glyph glyph-name="T" unicode="T" horiz-adv-x="832" 
d="M345 605h-325v122h792v-122h-325v-605h-142v605z" />
    <glyph glyph-name="U" unicode="U" horiz-adv-x="944" 
d="M858 312q0 -88 -27 -150.5t-77 -102.5t-121.5 -58.5t-160.5 -18.5t-160.5 18.5t-121.5 58.5t-77 102.5t-27 150.5v415h142v-405q0 -45 10 -84.5t37 -69.5t74.5 -47t122.5 -17t122.5 17t74.5 47t37 69.5t10 84.5v405h142v-415z" />
    <glyph glyph-name="V" unicode="V" horiz-adv-x="889" 
d="M17 727h152l273 -580l278 580h152l-356 -727h-148z" />
    <glyph glyph-name="W" unicode="W" horiz-adv-x="1018" 
d="M19 727h142l140 -500h2l139 500h136l141 -499h2l139 499h139l-212 -727h-136l-138 516h-2l-139 -516h-139z" />
    <glyph glyph-name="X" unicode="X" horiz-adv-x="833" 
d="M419 274l-232 -274h-185l329 376l-304 351h181l211 -249l210 249h180l-305 -351l327 -376h-182z" />
    <glyph glyph-name="Y" unicode="Y" horiz-adv-x="888" 
d="M373 291l-355 436h174l252 -308l251 308h175l-355 -436v-291h-142v291z" />
    <glyph glyph-name="Z" unicode="Z" horiz-adv-x="778" 
d="M24 0v70l508 535h-482v122h692v-80l-494 -525h506v-122h-730z" />
    <glyph glyph-name="bracketleft" unicode="[" horiz-adv-x="333" 
d="M42 727h271v-69h-157v-651h154v-69h-268v789z" />
    <glyph glyph-name="backslash" unicode="\" 
d="M-29 745h106l230 -763h-106z" />
    <glyph glyph-name="bracketright" unicode="]" horiz-adv-x="333" 
d="M291 -62h-271v69h157v651h-154v69h268v-789z" />
    <glyph glyph-name="asciicircum" unicode="^" horiz-adv-x="600" 
d="M300 609l-140 -286h-100l199 404h82l199 -404h-100z" />
    <glyph glyph-name="underscore" unicode="_" horiz-adv-x="500" 
d="M0 -125v50h500v-50h-500z" />
    <glyph glyph-name="grave" unicode="`" 
d="M-22 758h139l109 -143h-88z" />
    <glyph glyph-name="a" unicode="a" horiz-adv-x="667" 
d="M475 271q-54 -2 -101.5 -9t-91.5 -18q-58 -14 -85.5 -35t-28.5 -56t21.5 -55t68.5 -20q35 0 66.5 7t59 17.5t50.5 22.5t41 23v123zM599 87q0 -27 2 -51.5t8 -35.5h-127q-3 14 -5 27t-2 27q-20 -11 -44 -24t-53.5 -23.5t-63.5 -17.5t-74 -7q-27 0 -62.5 6.5t-68 24.5
t-55 49.5t-22.5 81.5q0 45 21 78t55.5 56.5t80 38t94.5 24t99 13.5t93 7v24q0 31 -31 50.5t-108 19.5q-43 0 -70 -7t-42.5 -17.5t-22.5 -23t-10 -23.5h-129q11 55 41 88.5t69 52t82 24.5t81 6q97 0 150.5 -21t78.5 -51.5t30 -65t5 -62.5v-268z" />
    <glyph glyph-name="b" unicode="b" horiz-adv-x="722" 
d="M196 166q18 -14 37 -28t40.5 -25t47.5 -18t58 -7q36 0 69.5 11.5t59 34t41 56.5t15.5 78q0 45 -16 79t-42.5 56.5t-60.5 34t-70 11.5q-34 0 -60.5 -7t-48.5 -18t-39 -24t-31 -25v-209zM72 727h124v-246q20 14 40 27.5t44 24t53.5 16.5t68.5 6q66 0 119.5 -21.5t91 -59
t57.5 -89.5t20 -113q0 -68 -23 -122t-61.5 -91.5t-90 -57t-108.5 -19.5q-46 0 -81.5 10t-61.5 23.5t-43 28.5t-27 25v-69h-122v727z" />
    <glyph glyph-name="c" unicode="c" horiz-adv-x="666" 
d="M634 192q-6 -28 -24.5 -64.5t-52.5 -68.5t-86 -54.5t-126 -22.5q-65 0 -121.5 16.5t-99.5 52.5t-67.5 93t-24.5 138q0 53 20.5 102t59 87t94.5 61t128 23q74 0 127 -18.5t88.5 -48.5t53.5 -66t21 -70h-124q-5 16 -17 33t-31.5 31.5t-47 23.5t-62.5 9q-44 0 -78 -15
t-57.5 -39t-36 -55t-12.5 -63q0 -39 10.5 -73t32 -60t54 -41t77.5 -15q40 0 70.5 9.5t51.5 24.5t33.5 33.5t16.5 36.5h130z" />
    <glyph glyph-name="d" unicode="d" horiz-adv-x="722" 
d="M526 375q-14 12 -31 25t-39 24t-48.5 18t-60.5 7q-36 0 -70 -11.5t-60.5 -34t-42.5 -56.5t-16 -79q0 -44 15.5 -78t41 -56.5t59 -34t69.5 -11.5q32 0 58 7t47.5 18t40.5 25t37 28v209zM528 69q-11 -10 -28 -25t-43 -28.5t-61 -23.5t-81 -10q-57 0 -108.5 19.5t-90 57
t-61.5 91.5t-23 122q0 61 20 113t57.5 89.5t91 59t119.5 21.5q39 0 68.5 -6t53.5 -16.5t44 -24t40 -27.5v246h124v-727h-122v69z" />
    <glyph glyph-name="e" unicode="e" horiz-adv-x="667" 
d="M622 161q-3 -17 -19.5 -47t-49.5 -59t-84.5 -51t-126.5 -22q-72 0 -129 21.5t-96.5 59.5t-60.5 91t-21 116q0 57 18.5 108.5t56 91t93.5 62.5t130 23q76 -1 132 -24t93 -64.5t55.5 -100.5t18.5 -132h-471q2 -13 8.5 -37.5t24.5 -49t52.5 -44t91.5 -21.5q59 0 96.5 23.5
t51.5 55.5h136zM500 330q-14 68 -58.5 96.5t-111.5 28.5q-24 0 -49.5 -5t-48 -19t-40.5 -38t-27 -63h335z" />
    <glyph glyph-name="f" unicode="f" horiz-adv-x="500" 
d="M137 0v413h-119v106h119v62q0 41 13 69.5t33 47t44.5 28t48 14t43 5t29.5 0.5q18 0 33.5 -1t31 -3t32.5 -5t37 -7v-106q-24 6 -40.5 9t-28 4.5t-21 2t-19.5 0.5q-38 1 -60 -7t-33.5 -20.5t-15 -27.5t-3.5 -28v-37h193v-106h-193v-413h-124z" />
    <glyph glyph-name="g" unicode="g" horiz-adv-x="667" 
d="M316 253q25 0 51 5.5t48 18t36 32.5t14 50t-14 50t-35.5 32t-47.5 17t-51 5q-26 0 -51.5 -5t-46 -17t-33.5 -32.5t-13 -50.5q0 -32 13 -52t33.5 -32t46 -16.5t50.5 -4.5zM226 -7q-11 0 -23.5 -1.5t-23 -6t-17.5 -12t-7 -19.5q0 -33 41 -41t115 -8q36 0 72 2.5t64.5 8.5
t46.5 16.5t18 26.5q0 14 -5.5 21t-22.5 10t-49 3h-82h-127zM647 450q-8 2 -21 6t-24 2q-11 0 -22.5 -3.5t-17.5 -6.5q6 -8 15.5 -31t9.5 -58q0 -55 -22.5 -92.5t-60 -61t-87 -34t-102.5 -10.5q-38 0 -66.5 5t-46.5 12q-11 -7 -22.5 -18t-11.5 -25q0 -7 3.5 -13t16 -10t36 -6
t64.5 -2h169q91 -3 141 -31.5t50 -91.5q0 -48 -32 -80t-82 -50.5t-112 -26.5t-123 -8q-56 0 -107 6t-89.5 20t-61 37t-22.5 56q0 24 9.5 38.5t25 23t35 13t38.5 8.5v2q-35 3 -58 22.5t-23 60.5q0 20 8.5 37.5t22 31t30.5 22t33 10.5v2q-45 25 -67 64t-22 90q0 59 24.5 97
t64.5 59.5t89 30t99 8.5q71 0 114.5 -15t71.5 -34q7 7 18 17t25.5 19t32 15.5t37.5 6.5h20v-114z" />
    <glyph glyph-name="h" unicode="h" horiz-adv-x="667" 
d="M67 727h124v-257q13 14 30.5 29t41.5 27.5t55 20.5t72 8q42 0 80 -10t67 -34t46 -65t17 -102v-344h-124v298q0 80 -26 115.5t-89 35.5q-37 0 -64 -7t-46.5 -18.5t-33.5 -25.5t-26 -28v-370h-124v727z" />
    <glyph glyph-name="i" unicode="i" 
d="M77 745h124v-110h-124v110zM77 537h124v-537h-124v537z" />
    <glyph glyph-name="j" unicode="j" 
d="M77 745h124v-110h-124v110zM77 537h124v-564q0 -49 -16.5 -79.5t-40 -48t-50.5 -23.5t-48 -6q-13 0 -31 2t-34 7v111q8 -2 17.5 -4t22.5 -2q34 0 45 24.5t11 55.5v527z" />
    <glyph glyph-name="k" unicode="k" horiz-adv-x="667" 
d="M67 727h124v-411l272 221h178l-229 -182l243 -355h-149l-188 279l-127 -102v-177h-124v727z" />
    <glyph glyph-name="l" unicode="l" 
d="M77 727h124v-727h-124v727z" />
    <glyph glyph-name="m" unicode="m" horiz-adv-x="1000" 
d="M63 537h122v-61q12 11 27.5 24.5t37 25.5t50 20.5t67.5 8.5q41 0 70 -8.5t49 -21.5t33.5 -28t22.5 -28q10 13 26.5 28t39.5 28t53.5 21.5t69.5 8.5q45 0 83 -10t65 -31t42.5 -54t15.5 -80v-380h-124v325q0 68 -25.5 96t-82.5 28q-23 0 -44.5 -7t-39.5 -17t-33 -22
t-26 -22v-381h-124v325q0 68 -25.5 96t-82.5 28q-23 0 -44.5 -7t-39.5 -17t-33 -22t-26 -22v-381h-124v537z" />
    <glyph glyph-name="n" unicode="n" horiz-adv-x="667" 
d="M67 537h122v-67q15 14 32.5 29t41.5 27.5t55 20.5t72 8q42 0 80 -10t67 -34t46 -65t17 -102v-344h-124v298q0 80 -26 115.5t-89 35.5q-37 0 -64 -7t-46.5 -18.5t-33.5 -25.5t-26 -28v-370h-124v537z" />
    <glyph glyph-name="o" unicode="o" horiz-adv-x="666" 
d="M333 88q84 0 129.5 48.5t45.5 134.5q0 47 -14 81t-38 55.5t-56 31.5t-67 10q-36 0 -67.5 -10t-55.5 -31.5t-38 -55.5t-14 -81q0 -86 45.5 -134.5t129.5 -48.5zM333 -18q-55 0 -109 14.5t-96.5 48.5t-69 89t-26.5 135q0 54 17 105.5t53.5 91.5t93.5 64.5t137 24.5
t137 -24.5t93.5 -64.5t53.5 -91.5t17 -105.5q0 -80 -26.5 -135t-69 -89t-96.5 -48.5t-109 -14.5z" />
    <glyph glyph-name="p" unicode="p" horiz-adv-x="722" 
d="M196 166q18 -14 37 -28t40.5 -25t47.5 -18t58 -7q36 0 69.5 11.5t59 34t41 56.5t15.5 78q0 45 -16 79t-42.5 56.5t-60.5 34t-70 11.5q-34 0 -60.5 -7t-48.5 -18t-39 -24t-31 -25v-209zM72 537h122v-69q10 10 27.5 25t43 28.5t59.5 23.5t78 10q66 0 119.5 -21.5t91 -59
t57.5 -89.5t20 -113q0 -68 -23 -122t-61.5 -91.5t-90 -57t-108.5 -19.5q-41 0 -71.5 6t-55 16.5t-44.5 24t-40 27.5v-240h-124v721z" />
    <glyph glyph-name="q" unicode="q" horiz-adv-x="722" 
d="M526 375q-14 12 -31 25t-39 24t-48.5 18t-60.5 7q-36 0 -70 -11.5t-60.5 -34t-42.5 -56.5t-16 -79q0 -44 15.5 -78t41 -56.5t59 -34t69.5 -11.5q32 0 58 7t47.5 18t40.5 25t37 28v209zM526 56q-20 -14 -40 -27.5t-44.5 -24t-55.5 -16.5t-71 -6q-57 0 -108.5 19.5t-90 57
t-61.5 91.5t-23 122q0 61 20 113t57.5 89.5t91 59t119.5 21.5q44 0 78 -10t59.5 -23.5t42.5 -28.5t28 -25v69h122v-721h-124v240z" />
    <glyph glyph-name="r" unicode="r" horiz-adv-x="444" 
d="M67 537h124v-80h3q10 16 25.5 33.5t38.5 32t53.5 23.5t70.5 9h24t20 -2v-134l-27 6t-49 4q-59 0 -91 -17.5t-47 -40.5t-18 -47.5t-3 -38.5v-285h-124v537z" />
    <glyph glyph-name="s" unicode="s" horiz-adv-x="611" 
d="M472 372q-7 9 -19.5 23.5t-33 28t-50.5 23t-72 9.5q-34 0 -57 -6t-37 -15.5t-20 -21t-6 -22.5q0 -16 9.5 -25.5t26 -16t39.5 -10t51 -7.5q55 -7 106 -16.5t90 -28t62 -49t23 -80.5q0 -39 -14 -67.5t-36.5 -48t-51 -31.5t-58.5 -18.5t-58 -8.5t-50 -2q-69 0 -116.5 12.5
t-80 31.5t-54 42.5t-38.5 44.5l105 61q16 -26 37.5 -44t47 -28.5t54 -15t57.5 -4.5q25 0 47.5 4t40 12t28 20.5t10.5 30.5q0 15 -7 24.5t-25 15.5t-49.5 11t-80.5 12q-76 10 -124 26.5t-75 39t-36.5 49.5t-9.5 58q0 21 10 50.5t38 56t77.5 45.5t127.5 19q23 0 57.5 -4
t72.5 -17t76.5 -38.5t68.5 -67.5z" />
    <glyph glyph-name="t" unicode="t" horiz-adv-x="444" 
d="M9 519h96v175h124v-175h187v-106h-187v-246q0 -14 3.5 -28.5t13 -25.5t26.5 -18t44 -7q18 0 50 4t56 11v-109q-23 -3 -40.5 -5.5t-33 -4t-30 -2t-30.5 -0.5q-44 0 -78.5 8t-57.5 26t-35 48t-12 74v275h-96v106z" />
    <glyph glyph-name="u" unicode="u" horiz-adv-x="667" 
d="M600 0h-122v67q-14 -14 -32 -29t-42 -27.5t-55 -20.5t-72 -8q-42 0 -80 10t-67 34t-46 64.5t-17 102.5v344h124v-298q0 -80 26 -115.5t89 -35.5q37 0 64 7t46.5 18t33.5 25.5t26 28.5v370h124v-537z" />
    <glyph glyph-name="v" unicode="v" horiz-adv-x="667" 
d="M153 537l181 -398l180 398h136l-256 -537h-124l-253 537h136z" />
    <glyph glyph-name="w" unicode="w" horiz-adv-x="944" 
d="M472 376l-137 -376h-117l-212 537h130l141 -377l140 377h110l142 -377l143 377h126l-210 -537h-119z" />
    <glyph glyph-name="x" unicode="x" horiz-adv-x="611" 
d="M598 537l-217 -262l229 -275h-156l-150 186l-147 -186h-156l229 275l-219 262h156l137 -174l137 174h157z" />
    <glyph glyph-name="y" unicode="y" horiz-adv-x="667" 
d="M39 -62q12 -3 31.5 -7.5t44.5 -4.5q38 0 64 7.5t42 19.5t23 27t7 30q0 19 -4.5 38.5t-17.5 45.5l-215 443h136l182 -392l182 392h136l-279 -580q-36 -76 -93 -108.5t-131 -32.5q-36 0 -63.5 5t-44.5 11v106z" />
    <glyph glyph-name="z" unicode="z" horiz-adv-x="611" 
d="M31 77l346 354h-327v106h520v-78l-346 -353h356v-106h-549v77z" />
    <glyph glyph-name="braceleft" unicode="{" horiz-adv-x="333" 
d="M309 658h-46q-27 0 -35.5 -21t-8.5 -46v-149q0 -32 -9.5 -52t-22 -32t-26 -17.5t-21.5 -7.5v-2q8 -2 21.5 -7t26 -17t22 -32.5t9.5 -51.5v-149q0 -25 8.5 -46t35.5 -21h46v-69h-98q-45 0 -71.5 28t-26.5 83v161q0 22 -7 38t-17.5 26.5t-23.5 15.5t-25 5v75q12 0 25 5
t23.5 15.5t17.5 26.5t7 38v161q0 55 26.5 83t71.5 28h98v-69z" />
    <glyph glyph-name="bar" unicode="|" horiz-adv-x="222" 
d="M63 750h96v-1000h-96v1000z" />
    <glyph glyph-name="braceright" unicode="}" horiz-adv-x="333" 
d="M24 7h46q27 0 35.5 21t8.5 46v149q0 31 9.5 51.5t22 32.5t26 17.5t21.5 7.5v2q-8 1 -21.5 6.5t-26 17.5t-22 32t-9.5 52v149q0 25 -8.5 46t-35.5 21h-46v69h98q45 0 71.5 -28t26.5 -83v-161q0 -22 7 -38t17.5 -26.5t23.5 -15.5t25 -5v-75q-12 0 -25 -5t-23.5 -15.5
t-17.5 -26.5t-7 -38v-161q0 -55 -26.5 -83t-71.5 -28h-98v69z" />
    <glyph glyph-name="asciitilde" unicode="~" horiz-adv-x="600" 
d="M534 267q-12 -17 -24.5 -32.5t-27.5 -27.5t-33 -19t-40 -7q-29 0 -54.5 11t-50.5 24t-52 24t-60 11q-17 0 -29.5 -6.5t-23 -16.5t-18 -22.5t-13.5 -24.5l-42 80q20 38 50 62t75 24q29 0 58 -10.5t58 -23.5q28 -14 52.5 -25t44.5 -11q16 0 29 7t23.5 17.5t19 23t16.5 22.5
z" />
    <glyph glyph-name="Euro" horiz-adv-x="722" 
d="M671 43q-26 -16 -54.5 -28t-55.5 -19q-30 -8 -63.5 -11t-61.5 -3t-60 4t-65 15t-65.5 31t-61.5 53q-26 29 -47.5 71.5t-30.5 94.5h-102l36 88h55q0 4 -1 15t-1 21t0.5 18.5t1.5 13.5h-91l36 88h67q11 60 41 106t67 75q28 22 58.5 36t61.5 21t60.5 9.5t56.5 2.5
q38 0 72 -4.5t68 -15.5q35 -11 62.5 -25t48.5 -30l-49 -122q-13 11 -40.5 30.5t-67.5 33.5q-26 9 -52.5 14t-55.5 5q-36 0 -70.5 -8.5t-63.5 -33.5q-25 -22 -42 -53q-10 -19 -16 -41h386l-35 -88h-369q-1 -5 -1.5 -15t-0.5 -21q0 -9 0.5 -18t1.5 -14h341l-35 -88h-293
q3 -18 15 -48.5t44 -59.5q29 -26 61.5 -36.5t71.5 -10.5q21 0 42 3q33 5 66 17q32 11 65 29.5t65 46.5v-149z" />
    <glyph glyph-name="Euro" unicode="&#x20ac;" horiz-adv-x="722" 
d="M671 43q-26 -16 -54.5 -28t-55.5 -19q-30 -8 -63.5 -11t-61.5 -3t-60 4t-65 15t-65.5 31t-61.5 53q-26 29 -47.5 71.5t-30.5 94.5h-102l36 88h55q0 4 -1 15t-1 21t0.5 18.5t1.5 13.5h-91l36 88h67q11 60 41 106t67 75q28 22 58.5 36t61.5 21t60.5 9.5t56.5 2.5
q38 0 72 -4.5t68 -15.5q35 -11 62.5 -25t48.5 -30l-49 -122q-13 11 -40.5 30.5t-67.5 33.5q-26 9 -52.5 14t-55.5 5q-36 0 -70.5 -8.5t-63.5 -33.5q-25 -22 -42 -53q-10 -19 -16 -41h386l-35 -88h-369q-1 -5 -1.5 -15t-0.5 -21q0 -9 0.5 -18t1.5 -14h341l-35 -88h-293
q3 -18 15 -48.5t44 -59.5q29 -26 61.5 -36.5t71.5 -10.5q21 0 42 3q33 5 66 17q32 11 65 29.5t65 46.5v-149z" />
    <glyph glyph-name="Zcaron" horiz-adv-x="778" 
d="M334 780l-120 143h103l72 -89l75 89h100l-119 -143h-111zM24 0v70l508 535h-482v122h692v-80l-494 -525h506v-122h-730z" />
    <glyph glyph-name="Zcaron" unicode="&#x17d;" horiz-adv-x="778" 
d="M334 780l-120 143h103l72 -89l75 89h100l-119 -143h-111zM24 0v70l508 535h-482v122h692v-80l-494 -525h506v-122h-730z" />
    <glyph glyph-name="zcaron" horiz-adv-x="611" 
d="M251 615l-120 143h103l72 -89l75 89h100l-119 -143h-111zM31 77l346 354h-327v106h520v-78l-346 -353h356v-106h-549v77z" />
    <glyph glyph-name="zcaron" unicode="&#x17e;" horiz-adv-x="611" 
d="M251 615l-120 143h103l72 -89l75 89h100l-119 -143h-111zM31 77l346 354h-327v106h520v-78l-346 -353h356v-106h-549v77z" />
    <glyph glyph-name="nonbreakingspace" unicode="&#xa0;" horiz-adv-x="361" 
 />
    <glyph glyph-name="exclamdown" unicode="&#xa1;" horiz-adv-x="333" 
d="M233 419h-133v142h133v-142zM94 -166l27 496h91l27 -496h-145z" />
    <glyph glyph-name="cent" unicode="&#xa2;" horiz-adv-x="722" 
d="M206 13q-68 32 -109 97.5t-41 171.5q0 53 20.5 102t59 87t94.5 61t128 23q12 0 23.5 -0.5t20.5 -1.5l45 122h92l-51 -139q40 -14 69 -35t48.5 -46t29.5 -51.5t13 -51.5h-124q-6 21 -24 43t-50 36l-124 -341q7 -2 14 -2h16q40 0 70.5 9.5t51.5 24.5t33.5 33.5t16.5 36.5
h130q-6 -28 -24.5 -64.5t-52.5 -68.5t-86 -54.5t-126 -22.5q-21 0 -41 1.5t-39 5.5l-47 -128h-92zM364 449q-44 0 -77.5 -15t-57 -39.5t-35.5 -55t-12 -62.5q0 -48 15.5 -88t48.5 -67z" />
    <glyph glyph-name="sterling" unicode="&#xa3;" horiz-adv-x="722" 
d="M685 220q0 -15 -1 -39t-8.5 -50.5t-22.5 -53t-42 -47.5t-68.5 -34.5t-100.5 -13.5q-62 0 -124.5 20t-119.5 52q-8 -7 -27 -25t-43 -27q-26 -11 -48 -14.5t-50 -5.5v128q28 5 52.5 14t41.5 30.5t26 59.5t7 101h-127v100h117q-2 18 -4.5 39t-2.5 47q0 59 18.5 104.5
t52 76.5t79.5 47t102 16q81 0 133.5 -21t84.5 -53.5t46 -72t19 -75.5h-129q-6 35 -22 56t-37 32.5t-44 15.5t-42 4q-38 0 -62.5 -11.5t-39 -30.5t-20.5 -43.5t-6 -50.5q0 -20 2 -40t5 -40h174v-100h-165q-1 0 -1.5 -15.5t-3.5 -39t-8.5 -52.5t-15.5 -56q24 -11 47 -21
t45.5 -17t46.5 -11t50 -3q34 0 55.5 12.5t33.5 30.5t16.5 39t6.5 38h124z" />
    <glyph glyph-name="currency" unicode="&#xa4;" horiz-adv-x="722" 
d="M197 363q0 -34 13 -64t35 -52t52 -35t64 -13t64 13t52 35t35 52t13 64t-13 64t-35 52t-52 35t-64 13t-64 -13t-52 -35t-35 -52t-13 -64zM154 228q-20 29 -30.5 63t-10.5 72t10.5 72t29.5 64l-56 56l71 71l56 -56q30 20 64.5 30.5t72.5 10.5t73 -10.5t64 -30.5l56 56
l71 -65l-58 -59q20 -30 31 -65.5t11 -73.5q0 -77 -42 -136l58 -58l-71 -71l-58 58q-28 -20 -62.5 -30.5t-72.5 -10.5q-74 0 -135 41l-58 -58l-71 73z" />
    <glyph glyph-name="yen" unicode="&#xa5;" horiz-adv-x="722" 
d="M303 136h-173v88h173v67l-1 1h-172v88h134l-250 347h142l203 -308l207 308h142l-251 -347h133v-88h-172l-1 -1v-67h173v-88h-173v-136h-114v136z" />
    <glyph glyph-name="brokenbar" unicode="&#xa6;" horiz-adv-x="222" 
d="M63 675h96v-350h-96v350zM63 175h96v-350h-96v350z" />
    <glyph glyph-name="section" unicode="&#xa7;" horiz-adv-x="500" 
d="M338 601q-8 9 -16.5 19.5t-18 19t-21.5 14t-27 5.5q-20 0 -34.5 -12t-14.5 -37q1 -28 26.5 -56.5t72.5 -73.5l39 -36q23 -22 45 -45.5t38.5 -48.5t26.5 -51t10 -53q0 -26 -8 -48t-23 -38t-36 -25t-48 -8q25 -29 40 -57.5t14 -66.5q0 -28 -10 -54.5t-29 -47t-45.5 -33
t-60.5 -12.5q-32 0 -58 7t-48.5 19.5t-42 29.5t-38.5 38l81 58q16 -29 39 -47t50 -17q28 0 42 16t14 40q0 15 -9 31.5t-23 33.5t-31.5 34.5t-34.5 35.5l-55 56q-32 32 -52.5 57.5t-33 46.5t-17.5 40t-5 38q0 33 11 56t28 38.5t36.5 23t37.5 8.5q-7 8 -15.5 19.5t-16 25.5
t-12.5 31.5t-5 38.5q0 17 7 39.5t23.5 43t44.5 34.5t71 14q53 0 94.5 -24t75.5 -62zM358 235q0 10 -3 20t-10.5 22t-19.5 27t-31 35q-43 46 -69.5 67t-48.5 21q-15 0 -27 -10.5t-13 -29.5q1 -22 23 -53.5t75 -82.5q20 -19 33.5 -29.5t23 -16t16.5 -7t15 -1.5q17 0 26.5 12
t9.5 26z" />
    <glyph glyph-name="dieresis" unicode="&#xa8;" 
d="M-9 745h112v-110h-112v110zM175 745h112v-110h-112v110z" />
    <glyph glyph-name="copyright" unicode="&#xa9;" horiz-adv-x="800" 
d="M693 364q0 62 -23.5 116t-63.5 94.5t-93 64t-113 23.5t-113 -23.5t-93 -64t-63.5 -94.5t-23.5 -116t23.5 -116.5t63.5 -95t93 -64t113 -23.5t113 23.5t93 64t63.5 95t23.5 116.5zM18 364q0 79 30 148t82 121t121.5 82t148.5 30t148.5 -30t121.5 -82t82 -121t30 -148
t-30 -148.5t-82 -121.5t-121.5 -82t-148.5 -30t-148.5 30t-121.5 82t-82 121.5t-30 148.5zM587 298q-6 -38 -22.5 -68t-40.5 -51t-53.5 -32t-62.5 -11q-48 0 -87 17.5t-66.5 48.5t-42.5 73t-15 91t14 91t41 72.5t65.5 48t87.5 17.5q69 0 118.5 -40t60.5 -117h-79
q-6 36 -32.5 58.5t-71.5 22.5q-31 0 -55 -11.5t-40 -32t-24.5 -48.5t-8.5 -61q0 -32 9 -60t26 -49t41.5 -33t54.5 -12q42 0 69 22t32 64h82z" />
    <glyph glyph-name="ordfeminine" unicode="&#xaa;" horiz-adv-x="434" 
d="M309 572q-59 -3 -118 -17q-68 -15 -69 -51q-1 -17 14 -28.5t44 -11.5q43 0 77 11.5t52 25.5v71zM397 464q0 -16 1.5 -30.5t6.5 -21.5h-91q-5 18 -5 32q-20 -14 -56.5 -28.5t-88.5 -14.5q-17 0 -40.5 4t-44.5 15t-35.5 29.5t-14.5 48.5q0 42 29 67.5t71.5 39.5t91.5 19.5
t88 7.5v11q0 17 -19 28t-64 11q-28 0 -45.5 -4t-28 -10t-15 -13t-5.5 -13h-84q7 33 26.5 53t45 31.5t53.5 15t52 3.5q63 0 98 -12.5t51.5 -31t19.5 -39.5t3 -37v-161z" />
    <glyph glyph-name="guillemotleft" unicode="&#xab;" horiz-adv-x="500" 
d="M138 431h122l-120 -165l120 -165h-124l-118 165zM354 431h122l-120 -165l120 -165h-124l-118 165z" />
    <glyph glyph-name="logicalnot" unicode="&#xac;" horiz-adv-x="600" 
d="M457 316h-410v96h506v-306h-96v210z" />
    <glyph glyph-name="hyphen" unicode="&#xad;" horiz-adv-x="333" 
d="M44 336h245v-106h-245v106z" />
    <glyph glyph-name="hyphen" unicode="&#x2010;" horiz-adv-x="333" 
d="M44 336h245v-106h-245v106z" />
    <glyph glyph-name="registered" unicode="&#xae;" horiz-adv-x="800" 
d="M107 364q0 -62 23.5 -116.5t63.5 -95t93 -64t113 -23.5t113 23.5t93 64t63.5 95t23.5 116.5t-23.5 116t-63.5 94.5t-93 64t-113 23.5t-113 -23.5t-93 -64t-63.5 -94.5t-23.5 -116zM18 364q0 79 30 148t82 121t121.5 82t148.5 30t148.5 -30t121.5 -82t82 -121t30 -148
t-30 -148.5t-82 -121.5t-121.5 -82t-148.5 -30t-148.5 30t-121.5 82t-82 121.5t-30 148.5zM404 387q18 0 34 2t28 8t19 18.5t7 33.5q0 18 -8 29t-20.5 17t-28 8t-30.5 2h-73v-118h72zM385 328h-53v-178h-77v414h158q76 0 116 -27.5t40 -93.5q0 -56 -30.5 -82t-73.5 -30
l111 -181h-87z" />
    <glyph glyph-name="macron" unicode="&#xaf;" 
d="M-13 719h304v-76h-304v76z" />
    <glyph glyph-name="degree" unicode="&#xb0;" horiz-adv-x="400" 
d="M127 567q0 -30 21.5 -51.5t51.5 -21.5t51.5 21.5t21.5 51.5t-21.5 51.5t-51.5 21.5t-51.5 -21.5t-21.5 -51.5zM57 567q0 30 11 56t30.5 45.5t45.5 30.5t56 11t56 -11t45.5 -30.5t30.5 -45.5t11 -56t-11 -56t-30.5 -45.5t-45.5 -30.5t-56 -11t-56 11t-45.5 30.5
t-30.5 45.5t-11 56z" />
    <glyph glyph-name="plusminus" unicode="&#xb1;" horiz-adv-x="600" 
d="M47 96h506v-96h-506v96zM47 370h205v136h96v-136h205v-96h-205v-136h-96v136h-205v96z" />
    <glyph glyph-name="twosuperior" unicode="&#xb2;" horiz-adv-x="469" 
d="M24 372l240 134q38 22 62 43.5t24 48.5q0 39 -31.5 52t-76.5 13q-25 0 -45 -6.5t-35 -17t-23 -23t-9 -24.5h-100q0 23 11.5 50t38 50t68.5 38t104 15q36 0 71.5 -7t63.5 -24.5t45.5 -46t17.5 -70.5q-1 -26 -8 -46.5t-21.5 -38t-36 -33.5t-51.5 -32l-120 -62v-2h231v-85
h-420v74z" />
    <glyph glyph-name="threesuperior" unicode="&#xb3;" horiz-adv-x="469" 
d="M159 559h69q18 0 37 3t35 10t26 17t10 25q0 29 -29 39t-85 10q-34 0 -55 -4t-33.5 -10t-17 -13.5t-5.5 -14.5h-86q0 11 6.5 32t28 41.5t62.5 35.5t109 15q101 0 153 -33.5t52 -90.5q0 -22 -8 -37.5t-19 -26t-24 -17t-22 -9.5v-2q10 -3 24.5 -10t27.5 -19t22.5 -30.5
t9.5 -44.5q0 -28 -13.5 -53t-40.5 -44t-67 -30t-93 -11q-69 0 -111.5 15.5t-66 37t-31.5 45.5t-9 41h91q5 -25 33 -41t89 -16q24 0 45.5 3t38 9.5t26 17.5t9.5 26q0 29 -22.5 46.5t-79.5 17.5h-86v70z" />
    <glyph glyph-name="acute" unicode="&#xb4;" 
d="M160 758h140l-160 -143h-88z" />
    <glyph glyph-name="mu" unicode="&#xb5;" horiz-adv-x="667" 
d="M600 0h-122v67q-14 -14 -31.5 -29t-41 -27.5t-53.5 -20.5t-69 -8q-24 0 -48 6.5t-44 23.5v-196h-124v721h124v-298q0 -80 26 -115.5t89 -35.5q37 0 64 7t46.5 18t33.5 25.5t26 28.5v370h124v-537z" />
    <glyph glyph-name="paragraph" unicode="&#xb6;" horiz-adv-x="722" 
d="M277 349q-50 0 -90 13.5t-67.5 38t-42.5 59.5t-15 78q0 52 17 88t48 58.5t74 32.5t96 10h283v-853h-100v765h-103v-765h-100v475z" />
    <glyph glyph-name="periodcentered" unicode="&#xb7;" horiz-adv-x="361" 
d="M92 287q0 18 7 34t19 28t28.5 19.5t34.5 7.5t34 -7t28 -19.5t19.5 -28.5t7.5 -34t-7.5 -34t-19.5 -28t-28 -19.5t-34 -7.5t-34.5 7.5t-28.5 20t-19 28.5t-7 33z" />
    <glyph glyph-name="periodcentered" unicode="&#x22c5;" horiz-adv-x="361" 
d="M92 287q0 18 7 34t19 28t28.5 19.5t34.5 7.5t34 -7t28 -19.5t19.5 -28.5t7.5 -34t-7.5 -34t-19.5 -28t-28 -19.5t-34 -7.5t-34.5 7.5t-28.5 20t-19 28.5t-7 33z" />
    <glyph glyph-name="periodcentered" unicode="&#x2219;" horiz-adv-x="361" 
d="M92 287q0 18 7 34t19 28t28.5 19.5t34.5 7.5t34 -7t28 -19.5t19.5 -28.5t7.5 -34t-7.5 -34t-19.5 -28t-28 -19.5t-34 -7.5t-34.5 7.5t-28.5 20t-19 28.5t-7 33z" />
    <glyph glyph-name="cedilla" unicode="&#xb8;" 
d="M175 0l-44 -60l2 -2q13 5 37 5q14 0 28 -5.5t25.5 -15t18.5 -23.5t7 -32q0 -27 -11 -46t-29 -31t-41 -18t-47 -6q-26 0 -53.5 7.5t-44.5 15.5l19 50q10 -5 27.5 -11t41.5 -6t40 10t16 29q0 17 -11 28t-34 11q-14 0 -24 -3t-16 -5l-22 18l66 90h49z" />
    <glyph glyph-name="onesuperior" unicode="&#xb9;" horiz-adv-x="469" 
d="M113 683q38 5 70.5 18t60.5 44h60v-447h-100v325h-91v60z" />
    <glyph glyph-name="ordmasculine" unicode="&#xba;" horiz-adv-x="433" 
d="M111 575q0 -48 27.5 -76t77.5 -28q51 0 78.5 28t27.5 76q0 26 -8.5 45t-23.5 31t-34 18t-40 6t-40 -6t-33.5 -18t-23 -31t-8.5 -45zM21 573q0 33 11 64t34.5 55t60.5 38.5t89 14.5t89.5 -14.5t61 -38.5t34.5 -55t11 -64q0 -48 -17 -81t-45 -53t-63 -29t-71 -9t-70.5 9
t-62.5 29t-45 53t-17 81z" />
    <glyph glyph-name="guillemotright" unicode="&#xbb;" horiz-adv-x="500" 
d="M362 101h-122l120 165l-120 165h124l118 -165zM146 101h-122l120 165l-120 165h124l118 -165z" />
    <glyph glyph-name="onequarter" unicode="&#xbc;" horiz-adv-x="1083" 
d="M856 355l-191 -192h191v192zM856 90h-297v70l287 287h110v-284h61v-73h-61v-90h-100v90zM66 683q38 5 70.5 18t60.5 44h60v-447h-100v325h-91v60zM661 745h88l-430 -763h-88z" />
    <glyph glyph-name="onehalf" unicode="&#xbd;" horiz-adv-x="1083" 
d="M591 74l240 134q38 22 62 43.5t24 48.5q0 39 -31.5 52t-76.5 13q-25 0 -45 -6.5t-35 -17t-23 -23t-9 -24.5h-100q0 23 11.5 50t38 50t68.5 38t104 15q36 0 71.5 -7t63.5 -24.5t45.5 -46t17.5 -70.5q-1 -26 -8 -46.5t-21.5 -38t-36 -33.5t-51.5 -32l-120 -62v-2h231v-85
h-420v74zM66 683q38 5 70.5 18t60.5 44h60v-447h-100v325h-91v60zM630 745h88l-430 -763h-88z" />
    <glyph glyph-name="threequarters" unicode="&#xbe;" horiz-adv-x="1083" 
d="M907 355l-191 -192h191v192zM907 90h-297v70l287 287h110v-284h61v-73h-61v-90h-100v90zM159 559h69q18 0 37 3t35 10t26 17t10 25q0 29 -29 39t-85 10q-34 0 -55 -4t-33.5 -10t-17 -13.5t-5.5 -14.5h-86q0 11 6.5 32t28 41.5t62.5 35.5t109 15q101 0 153 -33.5t52 -90.5
q0 -22 -8 -37.5t-19 -26t-24 -17t-22 -9.5v-2q10 -3 24.5 -10t27.5 -19t22.5 -30.5t9.5 -44.5q0 -28 -13.5 -53t-40.5 -44t-67 -30t-93 -11q-69 0 -111.5 15.5t-66 37t-31.5 45.5t-9 41h91q5 -25 33 -41t89 -16q24 0 45.5 3t38 9.5t26 17.5t9.5 26q0 29 -22.5 46.5
t-79.5 17.5h-86v70zM736 745h88l-430 -763h-88z" />
    <glyph glyph-name="questiondown" unicode="&#xbf;" horiz-adv-x="611" 
d="M393 419h-133v142h133v-142zM382 297q0 -41 -14.5 -76t-60.5 -67l-56 -38q-19 -13 -35 -24t-28 -23t-18.5 -26t-6.5 -33q0 -47 40 -67.5t102 -20.5q57 0 92.5 15.5t56 35.5t29 38.5t11.5 24.5l111 -49q-3 -7 -10 -22t-21 -34t-36 -39.5t-53 -37t-72.5 -27.5t-95.5 -11
q-75 0 -128.5 14.5t-88 40.5t-51 62.5t-19.5 80.5q-2 42 26 91t98 91q27 16 48.5 29t36.5 26t23 28.5t8 37.5v15h112v-35z" />
    <glyph glyph-name="Agrave" unicode="&#xc0;" horiz-adv-x="889" 
d="M284 923h139l109 -143h-88zM366 727h162l353 -727h-150l-76 167h-419l-77 -167h-151zM599 289l-152 324l-152 -324h304z" />
    <glyph glyph-name="Aacute" unicode="&#xc1;" horiz-adv-x="889" 
d="M466 923h140l-160 -143h-88zM366 727h162l353 -727h-150l-76 167h-419l-77 -167h-151zM599 289l-152 324l-152 -324h304z" />
    <glyph glyph-name="Acircumflex" unicode="&#xc2;" horiz-adv-x="889" 
d="M445 869l-75 -89h-100l119 143h111l120 -143h-103zM366 727h162l353 -727h-150l-76 167h-419l-77 -167h-151zM599 289l-152 324l-152 -324h304z" />
    <glyph glyph-name="Atilde" unicode="&#xc3;" horiz-adv-x="889" 
d="M608 909q0 -7 -3.5 -26t-14.5 -38.5t-31.5 -35t-53.5 -15.5q-17 0 -35.5 5.5t-35.5 13.5q-17 7 -32.5 12.5t-27.5 5.5q-19 0 -26.5 -15t-7.5 -29h-58q0 22 7 43t20 37.5t32.5 26t44.5 9.5q17 0 33.5 -6t32.5 -13q16 -8 30.5 -14t25.5 -6q16 0 24.5 5t12.5 12t4.5 14.5
t0.5 13.5h58zM366 727h162l353 -727h-150l-76 167h-419l-77 -167h-151zM599 289l-152 324l-152 -324h304z" />
    <glyph glyph-name="Adieresis" unicode="&#xc4;" horiz-adv-x="889" 
d="M297 910h112v-110h-112v110zM481 910h112v-110h-112v110zM366 727h162l353 -727h-150l-76 167h-419l-77 -167h-151zM599 289l-152 324l-152 -324h304z" />
    <glyph glyph-name="Aring" unicode="&#xc5;" horiz-adv-x="889" 
d="M386 891q0 -25 17 -42t42 -17t42 17t17 42t-17 42t-42 17t-42 -17t-17 -42zM323 891q0 25 9.5 47.5t26 39t39 26t47.5 9.5t47.5 -9.5t39 -26t26 -39t9.5 -47.5t-9.5 -47.5t-26 -39t-39 -26t-47.5 -9.5t-47.5 9.5t-39 26t-26 39t-9.5 47.5zM366 727h162l353 -727h-150
l-76 167h-419l-77 -167h-151zM599 289l-152 324l-152 -324h304z" />
    <glyph glyph-name="AE" unicode="&#xc6;" horiz-adv-x="1055" 
d="M525 167h-267l-95 -167h-155l418 727h587v-122h-352v-169h280v-122h-280v-192h366v-122h-502v167zM525 635h-2l-196 -346h198v346z" />
    <glyph glyph-name="Ccedilla" unicode="&#xc7;" horiz-adv-x="889" 
d="M850 259q-4 -20 -11.5 -47.5t-24 -57.5t-43 -59.5t-68 -53.5t-99 -40.5t-135.5 -18.5l-32 -42l2 -2q13 5 37 5q14 0 28 -5.5t25.5 -15t18.5 -23.5t7 -32q0 -27 -11 -46t-29 -31t-41 -18t-47 -6q-26 0 -53.5 7.5t-44.5 15.5l19 50q10 -5 27.5 -11t41.5 -6t40 10t16 29
q0 17 -11 28t-34 11q-14 0 -24 -3t-16 -5l-22 18l54 72q-82 3 -153 29t-123 75t-81.5 121t-29.5 168q0 79 25.5 147t77.5 117.5t131.5 77.5t187.5 28q81 0 140.5 -16t101 -40.5t68 -54t42 -57.5t22.5 -50t10 -32h-142q-3 9 -16 30.5t-40 43t-70.5 38t-107.5 16.5
q-75 0 -129 -20t-88.5 -55.5t-51 -83.5t-16.5 -105q0 -63 21.5 -110.5t58.5 -79.5t87.5 -48.5t109.5 -16.5q62 0 107.5 16.5t76 40t47.5 50.5t22 48h142z" />
    <glyph glyph-name="Egrave" unicode="&#xc8;" horiz-adv-x="778" 
d="M228 923h139l109 -143h-88zM86 727h652v-122h-510v-169h439v-122h-439v-192h522v-122h-664v727z" />
    <glyph glyph-name="Eacute" unicode="&#xc9;" horiz-adv-x="778" 
d="M410 923h140l-160 -143h-88zM86 727h652v-122h-510v-169h439v-122h-439v-192h522v-122h-664v727z" />
    <glyph glyph-name="Ecircumflex" unicode="&#xca;" horiz-adv-x="778" 
d="M389 869l-75 -89h-100l119 143h111l120 -143h-103zM86 727h652v-122h-510v-169h439v-122h-439v-192h522v-122h-664v727z" />
    <glyph glyph-name="Edieresis" unicode="&#xcb;" horiz-adv-x="778" 
d="M241 910h112v-110h-112v110zM425 910h112v-110h-112v110zM86 727h652v-122h-510v-169h439v-122h-439v-192h522v-122h-664v727z" />
    <glyph glyph-name="Igrave" unicode="&#xcc;" horiz-adv-x="332" 
d="M5 923h139l109 -143h-88zM95 727h142v-727h-142v727z" />
    <glyph glyph-name="Iacute" unicode="&#xcd;" horiz-adv-x="332" 
d="M187 923h140l-160 -143h-88zM95 727h142v-727h-142v727z" />
    <glyph glyph-name="Icircumflex" unicode="&#xce;" horiz-adv-x="332" 
d="M166 869l-75 -89h-100l119 143h111l120 -143h-103zM95 727h142v-727h-142v727z" />
    <glyph glyph-name="Idieresis" unicode="&#xcf;" horiz-adv-x="332" 
d="M18 910h112v-110h-112v110zM202 910h112v-110h-112v110zM95 727h142v-727h-142v727z" />
    <glyph glyph-name="Eth" unicode="&#xd0;" horiz-adv-x="889" 
d="M86 328h-87v96h87v303h350q86 0 161.5 -19.5t131.5 -62t88.5 -111t32.5 -166.5q0 -93 -30 -162t-84 -115t-129 -68.5t-165 -22.5h-356v328zM465 424v-96h-237v-206h144q91 0 154.5 14t104 44t59 76t18.5 110q0 67 -19 112.5t-59.5 73.5t-104.5 40.5t-153 12.5h-144v-181
h237z" />
    <glyph glyph-name="Ntilde" unicode="&#xd1;" horiz-adv-x="944" 
d="M635 909q0 -7 -3.5 -26t-14.5 -38.5t-31.5 -35t-53.5 -15.5q-17 0 -35.5 5.5t-35.5 13.5q-17 7 -32.5 12.5t-27.5 5.5q-19 0 -26.5 -15t-7.5 -29h-58q0 22 7 43t20 37.5t32.5 26t44.5 9.5q17 0 33.5 -6t32.5 -13q16 -8 30.5 -14t25.5 -6q16 0 24.5 5t12.5 12t4.5 14.5
t0.5 13.5h58zM86 727h150l486 -525v525h136v-727h-130l-506 544v-544h-136v727z" />
    <glyph glyph-name="Ograve" unicode="&#xd2;" horiz-adv-x="944" 
d="M311 923h139l109 -143h-88zM39 358q0 75 22.5 144.5t74 123.5t134 86.5t202.5 32.5t202.5 -32.5t134 -86.5t74 -123.5t22.5 -144.5q0 -57 -19.5 -122.5t-68 -122t-132.5 -94t-213 -37.5t-213 37.5t-132.5 94t-68 122t-19.5 122.5zM472 104q51 0 103 12t93.5 42t68 80.5
t26.5 127.5q0 66 -22 114t-61 80t-92.5 47.5t-115.5 15.5t-115.5 -15.5t-92.5 -47.5t-61 -80t-22 -114q0 -77 26.5 -127.5t68 -80.5t93.5 -42t103 -12z" />
    <glyph glyph-name="Oacute" unicode="&#xd3;" horiz-adv-x="944" 
d="M493 923h140l-160 -143h-88zM39 358q0 75 22.5 144.5t74 123.5t134 86.5t202.5 32.5t202.5 -32.5t134 -86.5t74 -123.5t22.5 -144.5q0 -57 -19.5 -122.5t-68 -122t-132.5 -94t-213 -37.5t-213 37.5t-132.5 94t-68 122t-19.5 122.5zM472 104q51 0 103 12t93.5 42t68 80.5
t26.5 127.5q0 66 -22 114t-61 80t-92.5 47.5t-115.5 15.5t-115.5 -15.5t-92.5 -47.5t-61 -80t-22 -114q0 -77 26.5 -127.5t68 -80.5t93.5 -42t103 -12z" />
    <glyph glyph-name="Ocircumflex" unicode="&#xd4;" horiz-adv-x="944" 
d="M472 869l-75 -89h-100l119 143h111l120 -143h-103zM39 358q0 75 22.5 144.5t74 123.5t134 86.5t202.5 32.5t202.5 -32.5t134 -86.5t74 -123.5t22.5 -144.5q0 -57 -19.5 -122.5t-68 -122t-132.5 -94t-213 -37.5t-213 37.5t-132.5 94t-68 122t-19.5 122.5zM472 104
q51 0 103 12t93.5 42t68 80.5t26.5 127.5q0 66 -22 114t-61 80t-92.5 47.5t-115.5 15.5t-115.5 -15.5t-92.5 -47.5t-61 -80t-22 -114q0 -77 26.5 -127.5t68 -80.5t93.5 -42t103 -12z" />
    <glyph glyph-name="Otilde" unicode="&#xd5;" horiz-adv-x="944" 
d="M635 909q0 -7 -3.5 -26t-14.5 -38.5t-31.5 -35t-53.5 -15.5q-17 0 -35.5 5.5t-35.5 13.5q-17 7 -32.5 12.5t-27.5 5.5q-19 0 -26.5 -15t-7.5 -29h-58q0 22 7 43t20 37.5t32.5 26t44.5 9.5q17 0 33.5 -6t32.5 -13q16 -8 30.5 -14t25.5 -6q16 0 24.5 5t12.5 12t4.5 14.5
t0.5 13.5h58zM39 358q0 75 22.5 144.5t74 123.5t134 86.5t202.5 32.5t202.5 -32.5t134 -86.5t74 -123.5t22.5 -144.5q0 -57 -19.5 -122.5t-68 -122t-132.5 -94t-213 -37.5t-213 37.5t-132.5 94t-68 122t-19.5 122.5zM472 104q51 0 103 12t93.5 42t68 80.5t26.5 127.5
q0 66 -22 114t-61 80t-92.5 47.5t-115.5 15.5t-115.5 -15.5t-92.5 -47.5t-61 -80t-22 -114q0 -77 26.5 -127.5t68 -80.5t93.5 -42t103 -12z" />
    <glyph glyph-name="Odieresis" unicode="&#xd6;" horiz-adv-x="944" 
d="M324 910h112v-110h-112v110zM508 910h112v-110h-112v110zM39 358q0 75 22.5 144.5t74 123.5t134 86.5t202.5 32.5t202.5 -32.5t134 -86.5t74 -123.5t22.5 -144.5q0 -57 -19.5 -122.5t-68 -122t-132.5 -94t-213 -37.5t-213 37.5t-132.5 94t-68 122t-19.5 122.5zM472 104
q51 0 103 12t93.5 42t68 80.5t26.5 127.5q0 66 -22 114t-61 80t-92.5 47.5t-115.5 15.5t-115.5 -15.5t-92.5 -47.5t-61 -80t-22 -114q0 -77 26.5 -127.5t68 -80.5t93.5 -42t103 -12z" />
    <glyph glyph-name="multiply" unicode="&#xd7;" horiz-adv-x="600" 
d="M300 181l-166 -165l-71 71l166 166l-166 165l70 71l167 -166l167 166l70 -71l-166 -165l166 -166l-71 -71z" />
    <glyph glyph-name="Oslash" unicode="&#xd8;" horiz-adv-x="944" 
d="M144 96q-30 29 -50 62t-32 67t-17.5 68t-5.5 65q0 75 22.5 144.5t74 123.5t134 86.5t202.5 32.5q81 0 144.5 -15t112.5 -43l97 98h126l-150 -152q55 -54 79 -125.5t24 -149.5q0 -57 -19.5 -122.5t-68 -122t-132.5 -94t-213 -37.5q-83 0 -145.5 16t-109.5 44l-99 -100
h-126zM633 590q-69 33 -161 33q-62 0 -115.5 -15.5t-92.5 -47.5t-61 -80t-22 -114q0 -59 16 -102t42 -72zM311 137q37 -18 78 -25.5t83 -7.5q51 0 103 12t93.5 42t68 80.5t26.5 127.5q0 54 -15 96.5t-43 72.5z" />
    <glyph glyph-name="Ugrave" unicode="&#xd9;" horiz-adv-x="944" 
d="M311 923h139l109 -143h-88zM858 312q0 -88 -27 -150.5t-77 -102.5t-121.5 -58.5t-160.5 -18.5t-160.5 18.5t-121.5 58.5t-77 102.5t-27 150.5v415h142v-405q0 -45 10 -84.5t37 -69.5t74.5 -47t122.5 -17t122.5 17t74.5 47t37 69.5t10 84.5v405h142v-415z" />
    <glyph glyph-name="Uacute" unicode="&#xda;" horiz-adv-x="944" 
d="M493 923h140l-160 -143h-88zM858 312q0 -88 -27 -150.5t-77 -102.5t-121.5 -58.5t-160.5 -18.5t-160.5 18.5t-121.5 58.5t-77 102.5t-27 150.5v415h142v-405q0 -45 10 -84.5t37 -69.5t74.5 -47t122.5 -17t122.5 17t74.5 47t37 69.5t10 84.5v405h142v-415z" />
    <glyph glyph-name="Ucircumflex" unicode="&#xdb;" horiz-adv-x="944" 
d="M472 869l-75 -89h-100l119 143h111l120 -143h-103zM858 312q0 -88 -27 -150.5t-77 -102.5t-121.5 -58.5t-160.5 -18.5t-160.5 18.5t-121.5 58.5t-77 102.5t-27 150.5v415h142v-405q0 -45 10 -84.5t37 -69.5t74.5 -47t122.5 -17t122.5 17t74.5 47t37 69.5t10 84.5v405h142
v-415z" />
    <glyph glyph-name="Udieresis" unicode="&#xdc;" horiz-adv-x="944" 
d="M324 910h112v-110h-112v110zM508 910h112v-110h-112v110zM858 312q0 -88 -27 -150.5t-77 -102.5t-121.5 -58.5t-160.5 -18.5t-160.5 18.5t-121.5 58.5t-77 102.5t-27 150.5v415h142v-405q0 -45 10 -84.5t37 -69.5t74.5 -47t122.5 -17t122.5 17t74.5 47t37 69.5t10 84.5
v405h142v-415z" />
    <glyph glyph-name="Yacute" unicode="&#xdd;" horiz-adv-x="888" 
d="M465 923h140l-160 -143h-88zM373 291l-355 436h174l252 -308l251 308h175l-355 -436v-291h-142v291z" />
    <glyph glyph-name="Thorn" unicode="&#xde;" horiz-adv-x="833" 
d="M522 297q30 0 57.5 2.5t48.5 12.5t33.5 30.5t12.5 55.5t-12.5 55t-33.5 30t-48.5 12.5t-57.5 2.5h-294v-201h294zM86 727h142v-107h263q31 0 67 -1t72 -7t69.5 -19.5t59.5 -38.5t41.5 -63t15.5 -94q0 -55 -15.5 -93.5t-41.5 -63t-59.5 -38t-69.5 -19.5t-72 -7t-67 -1
h-263v-175h-142v727z" />
    <glyph glyph-name="germandbls" unicode="&#xdf;" horiz-adv-x="667" 
d="M304 440q27 2 54.5 5t49 12.5t35.5 28.5t14 52q0 54 -35 77.5t-94 23.5q-54 0 -83.5 -17t-44 -45t-17 -64.5t-2.5 -76.5v-436h-124v488q0 58 16 105t48.5 81t83 52.5t119.5 18.5q56 0 103.5 -12t81.5 -36.5t53 -61t19 -85.5q0 -40 -10.5 -65.5t-26 -41.5t-35.5 -25
t-39 -15v-2q30 -3 60.5 -15t54.5 -35t39.5 -59t15.5 -87q0 -59 -19 -101t-51 -69t-74 -40t-89 -13q-15 0 -33.5 2t-38 6t-38 10.5t-32.5 14.5v118q15 -9 28.5 -17.5t28.5 -14.5t32 -9.5t38 -3.5q33 0 56.5 10t38.5 26.5t22 38.5t7 45q0 42 -18 68t-47.5 40t-67.5 19t-79 5
v100z" />
    <glyph glyph-name="agrave" unicode="&#xe0;" horiz-adv-x="667" 
d="M173 758h139l109 -143h-88zM475 271q-54 -2 -101.5 -9t-91.5 -18q-58 -14 -85.5 -35t-28.5 -56t21.5 -55t68.5 -20q35 0 66.5 7t59 17.5t50.5 22.5t41 23v123zM599 87q0 -27 2 -51.5t8 -35.5h-127q-3 14 -5 27t-2 27q-20 -11 -44 -24t-53.5 -23.5t-63.5 -17.5t-74 -7
q-27 0 -62.5 6.5t-68 24.5t-55 49.5t-22.5 81.5q0 45 21 78t55.5 56.5t80 38t94.5 24t99 13.5t93 7v24q0 31 -31 50.5t-108 19.5q-43 0 -70 -7t-42.5 -17.5t-22.5 -23t-10 -23.5h-129q11 55 41 88.5t69 52t82 24.5t81 6q97 0 150.5 -21t78.5 -51.5t30 -65t5 -62.5v-268z" />
    <glyph glyph-name="aacute" unicode="&#xe1;" horiz-adv-x="667" 
d="M355 758h140l-160 -143h-88zM475 271q-54 -2 -101.5 -9t-91.5 -18q-58 -14 -85.5 -35t-28.5 -56t21.5 -55t68.5 -20q35 0 66.5 7t59 17.5t50.5 22.5t41 23v123zM599 87q0 -27 2 -51.5t8 -35.5h-127q-3 14 -5 27t-2 27q-20 -11 -44 -24t-53.5 -23.5t-63.5 -17.5t-74 -7
q-27 0 -62.5 6.5t-68 24.5t-55 49.5t-22.5 81.5q0 45 21 78t55.5 56.5t80 38t94.5 24t99 13.5t93 7v24q0 31 -31 50.5t-108 19.5q-43 0 -70 -7t-42.5 -17.5t-22.5 -23t-10 -23.5h-129q11 55 41 88.5t69 52t82 24.5t81 6q97 0 150.5 -21t78.5 -51.5t30 -65t5 -62.5v-268z" />
    <glyph glyph-name="acircumflex" unicode="&#xe2;" horiz-adv-x="667" 
d="M334 704l-75 -89h-100l119 143h111l120 -143h-103zM475 271q-54 -2 -101.5 -9t-91.5 -18q-58 -14 -85.5 -35t-28.5 -56t21.5 -55t68.5 -20q35 0 66.5 7t59 17.5t50.5 22.5t41 23v123zM599 87q0 -27 2 -51.5t8 -35.5h-127q-3 14 -5 27t-2 27q-20 -11 -44 -24t-53.5 -23.5
t-63.5 -17.5t-74 -7q-27 0 -62.5 6.5t-68 24.5t-55 49.5t-22.5 81.5q0 45 21 78t55.5 56.5t80 38t94.5 24t99 13.5t93 7v24q0 31 -31 50.5t-108 19.5q-43 0 -70 -7t-42.5 -17.5t-22.5 -23t-10 -23.5h-129q11 55 41 88.5t69 52t82 24.5t81 6q97 0 150.5 -21t78.5 -51.5
t30 -65t5 -62.5v-268z" />
    <glyph glyph-name="atilde" unicode="&#xe3;" horiz-adv-x="667" 
d="M497 744q0 -7 -3.5 -26t-14.5 -38.5t-31.5 -35t-53.5 -15.5q-17 0 -35.5 5.5t-35.5 13.5q-17 7 -32.5 12.5t-27.5 5.5q-19 0 -26.5 -15t-7.5 -29h-58q0 22 7 43t20 37.5t32.5 26t44.5 9.5q17 0 33.5 -6t32.5 -13q16 -8 30.5 -14t25.5 -6q16 0 24.5 5t12.5 12t4.5 14.5
t0.5 13.5h58zM475 271q-54 -2 -101.5 -9t-91.5 -18q-58 -14 -85.5 -35t-28.5 -56t21.5 -55t68.5 -20q35 0 66.5 7t59 17.5t50.5 22.5t41 23v123zM599 87q0 -27 2 -51.5t8 -35.5h-127q-3 14 -5 27t-2 27q-20 -11 -44 -24t-53.5 -23.5t-63.5 -17.5t-74 -7q-27 0 -62.5 6.5
t-68 24.5t-55 49.5t-22.5 81.5q0 45 21 78t55.5 56.5t80 38t94.5 24t99 13.5t93 7v24q0 31 -31 50.5t-108 19.5q-43 0 -70 -7t-42.5 -17.5t-22.5 -23t-10 -23.5h-129q11 55 41 88.5t69 52t82 24.5t81 6q97 0 150.5 -21t78.5 -51.5t30 -65t5 -62.5v-268z" />
    <glyph glyph-name="adieresis" unicode="&#xe4;" horiz-adv-x="667" 
d="M186 745h112v-110h-112v110zM370 745h112v-110h-112v110zM475 271q-54 -2 -101.5 -9t-91.5 -18q-58 -14 -85.5 -35t-28.5 -56t21.5 -55t68.5 -20q35 0 66.5 7t59 17.5t50.5 22.5t41 23v123zM599 87q0 -27 2 -51.5t8 -35.5h-127q-3 14 -5 27t-2 27q-20 -11 -44 -24
t-53.5 -23.5t-63.5 -17.5t-74 -7q-27 0 -62.5 6.5t-68 24.5t-55 49.5t-22.5 81.5q0 45 21 78t55.5 56.5t80 38t94.5 24t99 13.5t93 7v24q0 31 -31 50.5t-108 19.5q-43 0 -70 -7t-42.5 -17.5t-22.5 -23t-10 -23.5h-129q11 55 41 88.5t69 52t82 24.5t81 6q97 0 150.5 -21
t78.5 -51.5t30 -65t5 -62.5v-268z" />
    <glyph glyph-name="aring" unicode="&#xe5;" horiz-adv-x="667" 
d="M275 736q0 -25 17 -42t42 -17t42 17t17 42t-17 42t-42 17t-42 -17t-17 -42zM212 736q0 25 9.5 47.5t26 39t39 26t47.5 9.5t47.5 -9.5t39 -26t26 -39t9.5 -47.5t-9.5 -47.5t-26 -39t-39 -26t-47.5 -9.5t-47.5 9.5t-39 26t-26 39t-9.5 47.5zM475 271q-54 -2 -101.5 -9
t-91.5 -18q-58 -14 -85.5 -35t-28.5 -56t21.5 -55t68.5 -20q35 0 66.5 7t59 17.5t50.5 22.5t41 23v123zM599 87q0 -27 2 -51.5t8 -35.5h-127q-3 14 -5 27t-2 27q-20 -11 -44 -24t-53.5 -23.5t-63.5 -17.5t-74 -7q-27 0 -62.5 6.5t-68 24.5t-55 49.5t-22.5 81.5q0 45 21 78
t55.5 56.5t80 38t94.5 24t99 13.5t93 7v24q0 31 -31 50.5t-108 19.5q-43 0 -70 -7t-42.5 -17.5t-22.5 -23t-10 -23.5h-129q11 55 41 88.5t69 52t82 24.5t81 6q97 0 150.5 -21t78.5 -51.5t30 -65t5 -62.5v-268z" />
    <glyph glyph-name="ae" unicode="&#xe6;" horiz-adv-x="1000" 
d="M838 330q0 27 -11 49.5t-30.5 39.5t-45.5 26.5t-57 9.5q-39 0 -68 -13t-48 -32t-28 -40.5t-9 -39.5h297zM419 273q-16 -1 -42.5 -3t-55.5 -7t-59 -13.5t-54 -21.5t-39 -31.5t-15 -43.5q0 -21 8 -35t20.5 -22.5t29.5 -12t35 -3.5q22 0 45 6t45.5 16t43 22.5t38.5 25.5v123
zM966 160q-12 -33 -32 -65t-52 -57t-78.5 -40.5t-110.5 -15.5q-51 0 -88.5 9.5t-64 23t-44 29t-29.5 27.5q-51 -35 -111.5 -61t-142.5 -26q-53 0 -89.5 15t-59 39t-33 53.5t-10.5 58.5q0 45 20 78.5t53 57t75 38t86 23t86.5 11.5t75.5 3v25q0 32 -28.5 50.5t-91.5 18.5
q-36 0 -59.5 -7.5t-37 -18t-20 -22.5t-9.5 -20h-126q0 15 12 43t41.5 56t79.5 48.5t125 20.5q49 0 83.5 -8t58 -19.5t38 -24t22.5 -20.5q11 10 26.5 22.5t36.5 23.5t48.5 18.5t62.5 7.5q81 0 137 -26.5t91.5 -71t51 -102.5t15.5 -121h-433q0 -18 5.5 -44t22.5 -50t49 -41
t85 -17q30 0 51.5 8t36 20t23.5 25.5t16 24.5h136z" />
    <glyph glyph-name="ccedilla" unicode="&#xe7;" horiz-adv-x="666" 
d="M634 192q-13 -53 -40 -91.5t-63 -64t-79.5 -39t-89.5 -15.5l-32 -42l2 -2q13 5 37 5q14 0 28 -5.5t25.5 -15t18.5 -23.5t7 -32q0 -27 -11 -46t-29 -31t-41 -18t-47 -6q-26 0 -53.5 7.5t-44.5 15.5l19 50q10 -5 27.5 -11t41.5 -6t40 10t16 29q0 17 -11 28t-34 11
q-14 0 -24 -3t-16 -5l-22 18l54 72q-56 4 -107 23t-89.5 55t-61.5 91t-23 131q0 58 21.5 108t61 87t95.5 57.5t124 20.5q121 0 196.5 -51.5t93.5 -151.5h-124q-12 39 -52 68t-106 29q-39 0 -72.5 -12t-58 -34.5t-39 -54t-14.5 -69.5q0 -39 13 -73.5t35.5 -61t52 -41.5
t61.5 -15q39 0 68 7t50.5 20.5t37.5 32.5t28 44h130z" />
    <glyph glyph-name="egrave" unicode="&#xe8;" horiz-adv-x="667" 
d="M173 758h139l109 -143h-88zM622 161q-3 -17 -19.5 -47t-49.5 -59t-84.5 -51t-126.5 -22q-72 0 -129 21.5t-96.5 59.5t-60.5 91t-21 116q0 57 18.5 108.5t56 91t93.5 62.5t130 23q76 -1 132 -24t93 -64.5t55.5 -100.5t18.5 -132h-471q2 -13 8.5 -37.5t24.5 -49t52.5 -44
t91.5 -21.5q59 0 96.5 23.5t51.5 55.5h136zM500 330q-14 68 -58.5 96.5t-111.5 28.5q-24 0 -49.5 -5t-48 -19t-40.5 -38t-27 -63h335z" />
    <glyph glyph-name="eacute" unicode="&#xe9;" horiz-adv-x="667" 
d="M355 758h140l-160 -143h-88zM622 161q-3 -17 -19.5 -47t-49.5 -59t-84.5 -51t-126.5 -22q-72 0 -129 21.5t-96.5 59.5t-60.5 91t-21 116q0 57 18.5 108.5t56 91t93.5 62.5t130 23q76 -1 132 -24t93 -64.5t55.5 -100.5t18.5 -132h-471q2 -13 8.5 -37.5t24.5 -49t52.5 -44
t91.5 -21.5q59 0 96.5 23.5t51.5 55.5h136zM500 330q-14 68 -58.5 96.5t-111.5 28.5q-24 0 -49.5 -5t-48 -19t-40.5 -38t-27 -63h335z" />
    <glyph glyph-name="ecircumflex" unicode="&#xea;" horiz-adv-x="667" 
d="M334 704l-75 -89h-100l119 143h111l120 -143h-103zM622 161q-3 -17 -19.5 -47t-49.5 -59t-84.5 -51t-126.5 -22q-72 0 -129 21.5t-96.5 59.5t-60.5 91t-21 116q0 57 18.5 108.5t56 91t93.5 62.5t130 23q76 -1 132 -24t93 -64.5t55.5 -100.5t18.5 -132h-471
q2 -13 8.5 -37.5t24.5 -49t52.5 -44t91.5 -21.5q59 0 96.5 23.5t51.5 55.5h136zM500 330q-14 68 -58.5 96.5t-111.5 28.5q-24 0 -49.5 -5t-48 -19t-40.5 -38t-27 -63h335z" />
    <glyph glyph-name="edieresis" unicode="&#xeb;" horiz-adv-x="667" 
d="M186 745h112v-110h-112v110zM370 745h112v-110h-112v110zM622 161q-3 -17 -19.5 -47t-49.5 -59t-84.5 -51t-126.5 -22q-72 0 -129 21.5t-96.5 59.5t-60.5 91t-21 116q0 57 18.5 108.5t56 91t93.5 62.5t130 23q76 -1 132 -24t93 -64.5t55.5 -100.5t18.5 -132h-471
q2 -13 8.5 -37.5t24.5 -49t52.5 -44t91.5 -21.5q59 0 96.5 23.5t51.5 55.5h136zM500 330q-14 68 -58.5 96.5t-111.5 28.5q-24 0 -49.5 -5t-48 -19t-40.5 -38t-27 -63h335z" />
    <glyph glyph-name="igrave" unicode="&#xec;" 
d="M-22 758h139l109 -143h-88zM77 537h124v-537h-124v537z" />
    <glyph glyph-name="iacute" unicode="&#xed;" 
d="M160 758h140l-160 -143h-88zM77 537h124v-537h-124v537z" />
    <glyph glyph-name="icircumflex" unicode="&#xee;" 
d="M139 704l-75 -89h-100l119 143h111l120 -143h-103zM77 537h124v-537h-124v537z" />
    <glyph glyph-name="idieresis" unicode="&#xef;" 
d="M-9 745h112v-110h-112v110zM175 745h112v-110h-112v110zM77 537h124v-537h-124v537z" />
    <glyph glyph-name="eth" unicode="&#xf0;" horiz-adv-x="666" 
d="M237 636q-24 14 -47.5 23t-44.5 17l68 69q23 -4 62.5 -17t74.5 -36l108 53l43 -42l-94 -46q42 -25 83 -59.5t73 -82t51.5 -109t19.5 -139.5q0 -55 -16.5 -106.5t-52.5 -91t-93 -63.5t-139 -24q-81 0 -138.5 23t-93.5 60.5t-52.5 85t-16.5 97.5t16 98t49.5 86t84.5 61
t122 23q44 0 76.5 -7t59.5 -30l2 2q-26 38 -64 69.5t-80 53.5l-121 -59l-43 42zM165 253q0 -32 9 -63t29 -55t52 -38.5t78 -14.5t78 14.5t52 38.5t29 55t9 63t-9 62.5t-29 54t-52 38t-78 14.5t-78 -14.5t-52 -38t-29 -54t-9 -62.5z" />
    <glyph glyph-name="ntilde" unicode="&#xf1;" horiz-adv-x="667" 
d="M497 744q0 -7 -3.5 -26t-14.5 -38.5t-31.5 -35t-53.5 -15.5q-17 0 -35.5 5.5t-35.5 13.5q-17 7 -32.5 12.5t-27.5 5.5q-19 0 -26.5 -15t-7.5 -29h-58q0 22 7 43t20 37.5t32.5 26t44.5 9.5q17 0 33.5 -6t32.5 -13q16 -8 30.5 -14t25.5 -6q16 0 24.5 5t12.5 12t4.5 14.5
t0.5 13.5h58zM67 537h122v-67q15 14 32.5 29t41.5 27.5t55 20.5t72 8q42 0 80 -10t67 -34t46 -65t17 -102v-344h-124v298q0 80 -26 115.5t-89 35.5q-37 0 -64 -7t-46.5 -18.5t-33.5 -25.5t-26 -28v-370h-124v537z" />
    <glyph glyph-name="ograve" unicode="&#xf2;" horiz-adv-x="666" 
d="M172 758h139l109 -143h-88zM333 88q84 0 129.5 48.5t45.5 134.5q0 47 -14 81t-38 55.5t-56 31.5t-67 10q-36 0 -67.5 -10t-55.5 -31.5t-38 -55.5t-14 -81q0 -86 45.5 -134.5t129.5 -48.5zM333 -18q-55 0 -109 14.5t-96.5 48.5t-69 89t-26.5 135q0 54 17 105.5t53.5 91.5
t93.5 64.5t137 24.5t137 -24.5t93.5 -64.5t53.5 -91.5t17 -105.5q0 -80 -26.5 -135t-69 -89t-96.5 -48.5t-109 -14.5z" />
    <glyph glyph-name="oacute" unicode="&#xf3;" horiz-adv-x="666" 
d="M354 758h140l-160 -143h-88zM333 88q84 0 129.5 48.5t45.5 134.5q0 47 -14 81t-38 55.5t-56 31.5t-67 10q-36 0 -67.5 -10t-55.5 -31.5t-38 -55.5t-14 -81q0 -86 45.5 -134.5t129.5 -48.5zM333 -18q-55 0 -109 14.5t-96.5 48.5t-69 89t-26.5 135q0 54 17 105.5t53.5 91.5
t93.5 64.5t137 24.5t137 -24.5t93.5 -64.5t53.5 -91.5t17 -105.5q0 -80 -26.5 -135t-69 -89t-96.5 -48.5t-109 -14.5z" />
    <glyph glyph-name="ocircumflex" unicode="&#xf4;" horiz-adv-x="666" 
d="M333 704l-75 -89h-100l119 143h111l120 -143h-103zM333 88q84 0 129.5 48.5t45.5 134.5q0 47 -14 81t-38 55.5t-56 31.5t-67 10q-36 0 -67.5 -10t-55.5 -31.5t-38 -55.5t-14 -81q0 -86 45.5 -134.5t129.5 -48.5zM333 -18q-55 0 -109 14.5t-96.5 48.5t-69 89t-26.5 135
q0 54 17 105.5t53.5 91.5t93.5 64.5t137 24.5t137 -24.5t93.5 -64.5t53.5 -91.5t17 -105.5q0 -80 -26.5 -135t-69 -89t-96.5 -48.5t-109 -14.5z" />
    <glyph glyph-name="otilde" unicode="&#xf5;" horiz-adv-x="666" 
d="M496 744q0 -7 -3.5 -26t-14.5 -38.5t-31.5 -35t-53.5 -15.5q-17 0 -35.5 5.5t-35.5 13.5q-17 7 -32.5 12.5t-27.5 5.5q-19 0 -26.5 -15t-7.5 -29h-58q0 22 7 43t20 37.5t32.5 26t44.5 9.5q17 0 33.5 -6t32.5 -13q16 -8 30.5 -14t25.5 -6q16 0 24.5 5t12.5 12t4.5 14.5
t0.5 13.5h58zM333 88q84 0 129.5 48.5t45.5 134.5q0 47 -14 81t-38 55.5t-56 31.5t-67 10q-36 0 -67.5 -10t-55.5 -31.5t-38 -55.5t-14 -81q0 -86 45.5 -134.5t129.5 -48.5zM333 -18q-55 0 -109 14.5t-96.5 48.5t-69 89t-26.5 135q0 54 17 105.5t53.5 91.5t93.5 64.5
t137 24.5t137 -24.5t93.5 -64.5t53.5 -91.5t17 -105.5q0 -80 -26.5 -135t-69 -89t-96.5 -48.5t-109 -14.5z" />
    <glyph glyph-name="odieresis" unicode="&#xf6;" horiz-adv-x="666" 
d="M185 745h112v-110h-112v110zM369 745h112v-110h-112v110zM333 88q84 0 129.5 48.5t45.5 134.5q0 47 -14 81t-38 55.5t-56 31.5t-67 10q-36 0 -67.5 -10t-55.5 -31.5t-38 -55.5t-14 -81q0 -86 45.5 -134.5t129.5 -48.5zM333 -18q-55 0 -109 14.5t-96.5 48.5t-69 89
t-26.5 135q0 54 17 105.5t53.5 91.5t93.5 64.5t137 24.5t137 -24.5t93.5 -64.5t53.5 -91.5t17 -105.5q0 -80 -26.5 -135t-69 -89t-96.5 -48.5t-109 -14.5z" />
    <glyph glyph-name="divide" unicode="&#xf7;" horiz-adv-x="600" 
d="M216 459q0 35 24.5 59.5t59.5 24.5t59.5 -24.5t24.5 -59.5t-24.5 -59.5t-59.5 -24.5t-59.5 24.5t-24.5 59.5zM216 47q0 35 24.5 59.5t59.5 24.5t59.5 -24.5t24.5 -59.5t-24.5 -59.5t-59.5 -24.5t-59.5 24.5t-24.5 59.5zM47 301h506v-96h-506v96z" />
    <glyph glyph-name="oslash" unicode="&#xf8;" horiz-adv-x="666" 
d="M104 67q-33 35 -52.5 84t-19.5 118q0 54 17 105.5t53.5 91.5t93.5 64.5t137 24.5q54 0 96 -11t76 -31l69 77h112l-117 -130q34 -40 49.5 -89.5t15.5 -101.5q0 -80 -26.5 -135t-69 -89t-96.5 -48.5t-109 -14.5q-42 0 -83.5 8t-77.5 28l-80 -89h-112zM427 427
q-41 22 -94 22q-36 0 -67.5 -10t-55.5 -31.5t-38 -55.5t-14 -81q0 -68 29 -112zM250 105q36 -17 83 -17q84 0 129.5 48.5t45.5 134.5q0 58 -22 96z" />
    <glyph glyph-name="ugrave" unicode="&#xf9;" horiz-adv-x="667" 
d="M173 758h139l109 -143h-88zM600 0h-122v67q-14 -14 -32 -29t-42 -27.5t-55 -20.5t-72 -8q-42 0 -80 10t-67 34t-46 64.5t-17 102.5v344h124v-298q0 -80 26 -115.5t89 -35.5q37 0 64 7t46.5 18t33.5 25.5t26 28.5v370h124v-537z" />
    <glyph glyph-name="uacute" unicode="&#xfa;" horiz-adv-x="667" 
d="M355 758h140l-160 -143h-88zM600 0h-122v67q-14 -14 -32 -29t-42 -27.5t-55 -20.5t-72 -8q-42 0 -80 10t-67 34t-46 64.5t-17 102.5v344h124v-298q0 -80 26 -115.5t89 -35.5q37 0 64 7t46.5 18t33.5 25.5t26 28.5v370h124v-537z" />
    <glyph glyph-name="ucircumflex" unicode="&#xfb;" horiz-adv-x="667" 
d="M334 704l-75 -89h-100l119 143h111l120 -143h-103zM600 0h-122v67q-14 -14 -32 -29t-42 -27.5t-55 -20.5t-72 -8q-42 0 -80 10t-67 34t-46 64.5t-17 102.5v344h124v-298q0 -80 26 -115.5t89 -35.5q37 0 64 7t46.5 18t33.5 25.5t26 28.5v370h124v-537z" />
    <glyph glyph-name="udieresis" unicode="&#xfc;" horiz-adv-x="667" 
d="M186 745h112v-110h-112v110zM370 745h112v-110h-112v110zM600 0h-122v67q-14 -14 -32 -29t-42 -27.5t-55 -20.5t-72 -8q-42 0 -80 10t-67 34t-46 64.5t-17 102.5v344h124v-298q0 -80 26 -115.5t89 -35.5q37 0 64 7t46.5 18t33.5 25.5t26 28.5v370h124v-537z" />
    <glyph glyph-name="yacute" unicode="&#xfd;" horiz-adv-x="667" 
d="M355 758h140l-160 -143h-88zM39 -62q12 -3 31.5 -7.5t44.5 -4.5q38 0 64 7.5t42 19.5t23 27t7 30q0 19 -4.5 38.5t-17.5 45.5l-215 443h136l182 -392l182 392h136l-279 -580q-36 -76 -93 -108.5t-131 -32.5q-36 0 -63.5 5t-44.5 11v106z" />
    <glyph glyph-name="thorn" unicode="&#xfe;" horiz-adv-x="722" 
d="M196 166q18 -14 37 -28t40.5 -25t47.5 -18t58 -7q36 0 69.5 11.5t59 34t41 56.5t15.5 78q0 45 -16 79t-42.5 56.5t-60.5 34t-70 11.5q-34 0 -60.5 -7t-48.5 -18t-39 -24t-31 -25v-209zM72 727h124v-246q20 14 40 27.5t44 24t53.5 16.5t68.5 6q66 0 119.5 -21.5t91 -59
t57.5 -89.5t20 -113q0 -68 -23 -122t-61.5 -91.5t-90 -57t-108.5 -19.5q-41 0 -71.5 6t-55 16.5t-44.5 24t-40 27.5v-240h-124v911z" />
    <glyph glyph-name="ydieresis" unicode="&#xff;" horiz-adv-x="667" 
d="M186 745h112v-110h-112v110zM370 745h112v-110h-112v110zM39 -62q12 -3 31.5 -7.5t44.5 -4.5q38 0 64 7.5t42 19.5t23 27t7 30q0 19 -4.5 38.5t-17.5 45.5l-215 443h136l182 -392l182 392h136l-279 -580q-36 -76 -93 -108.5t-131 -32.5q-36 0 -63.5 5t-44.5 11v106z" />
    <glyph glyph-name="OE" unicode="&#x152;" horiz-adv-x="1073" 
d="M1045 0h-545q-20 0 -41 -2t-41 -4t-38 -4t-34 -2q-82 0 -140 28.5t-95 79t-54.5 118.5t-17.5 148q0 78 19 146.5t57 120t96 81t135 29.5q20 0 38.5 -2t38.5 -4l38 -4t39 -2h531v-122h-350v-169h278v-122h-278v-192h364v-122zM535 468q0 28 -4.5 54.5t-20 47.5t-46 34
t-82.5 13q-54 0 -92 -18t-62.5 -51t-35.5 -79.5t-11 -103.5q0 -58 9.5 -106t32.5 -82t63 -52.5t101 -18.5q49 0 78.5 13t45 36t20 55.5t4.5 70.5v187z" />
    <glyph glyph-name="oe" unicode="&#x153;" horiz-adv-x="1000" 
d="M841 330q-4 63 -39.5 94t-97.5 31q-119 0 -132 -125h269zM441 274q0 91 -42 133t-106 42q-65 0 -105.5 -44.5t-40.5 -136.5q0 -37 8 -69.5t26 -57t45.5 -39t66.5 -14.5q40 0 68 14.5t46 40t26 59.5t8 72zM962 160q-9 -33 -28 -65t-50.5 -57t-76 -40.5t-105.5 -15.5
q-44 0 -76.5 10t-57 23.5t-41.5 28.5t-29 25q-10 -11 -26 -26t-40.5 -28.5t-58.5 -23t-80 -9.5q-69 0 -120 21t-84.5 59t-50.5 91.5t-17 119.5q0 75 23 128.5t60.5 87.5t85 50t97.5 16q61 0 118.5 -24t95.5 -68q41 48 95.5 70t109.5 22q58 0 107 -17.5t85 -56t56 -99.5
t20 -148h-407q0 -42 14 -71t35 -47t46 -26t47 -8q42 0 72 20t48 58h133z" />
    <glyph glyph-name="Scaron" unicode="&#x160;" horiz-adv-x="833" 
d="M362 780l-120 143h103l72 -89l75 89h100l-119 -143h-111zM652 506q-9 24 -25.5 46t-46 38.5t-74 26.5t-109.5 10q-36 0 -70.5 -5t-62 -15.5t-44 -28t-16.5 -42.5q0 -12 5 -23.5t22 -22.5t49.5 -20t86.5 -16l172 -26q61 -9 109 -26t81.5 -42.5t51 -60.5t17.5 -81
q0 -65 -28.5 -109.5t-77.5 -73t-114 -41t-138 -12.5q-117 0 -192.5 25t-120.5 59t-65.5 69t-26.5 56l137 43q10 -20 26.5 -42.5t47 -42t78.5 -32.5t120 -13q43 0 82 7t67.5 20t45.5 31.5t17 42.5q0 71 -158 91l-174 24q-127 17 -194.5 70t-67.5 137q0 54 21 91.5t54 62
t73.5 37.5t78 19t68 7t44.5 1q117 0 189.5 -23.5t113.5 -55.5t58 -64.5t24 -51.5z" />
    <glyph glyph-name="scaron" unicode="&#x161;" horiz-adv-x="611" 
d="M251 615l-120 143h103l72 -89l75 89h100l-119 -143h-111zM472 372q-7 9 -19.5 23.5t-33 28t-50.5 23t-72 9.5q-34 0 -57 -6t-37 -15.5t-20 -21t-6 -22.5q0 -16 9.5 -25.5t26 -16t39.5 -10t51 -7.5q55 -7 106 -16.5t90 -28t62 -49t23 -80.5q0 -39 -14 -67.5t-36.5 -48
t-51 -31.5t-58.5 -18.5t-58 -8.5t-50 -2q-69 0 -116.5 12.5t-80 31.5t-54 42.5t-38.5 44.5l105 61q16 -26 37.5 -44t47 -28.5t54 -15t57.5 -4.5q25 0 47.5 4t40 12t28 20.5t10.5 30.5q0 15 -7 24.5t-25 15.5t-49.5 11t-80.5 12q-76 10 -124 26.5t-75 39t-36.5 49.5t-9.5 58
q0 21 10 50.5t38 56t77.5 45.5t127.5 19q23 0 57.5 -4t72.5 -17t76.5 -38.5t68.5 -67.5z" />
    <glyph glyph-name="Ydieresis" unicode="&#x178;" horiz-adv-x="888" 
d="M296 910h112v-110h-112v110zM480 910h112v-110h-112v110zM373 291l-355 436h174l252 -308l251 308h175l-355 -436v-291h-142v291z" />
    <glyph glyph-name="florin" unicode="&#x192;" horiz-adv-x="722" 
d="M155 476h177l10 43q10 41 22.5 82t37.5 73.5t66.5 52t109.5 18.5q45 -1 71 -7t36 -8l-21 -106q-10 2 -33.5 8.5t-61.5 6.5q-29 0 -46 -7.5t-26.5 -21t-14.5 -32.5t-9 -41l-12 -61h173v-106h-192l-58 -296q-15 -75 -32.5 -125t-44 -79.5t-64 -41.5t-92.5 -12q-39 0 -67 4
t-47 8l20 107q19 -5 39 -9t43 -4q27 0 45 5.5t31 18.5t21 35t14 54l63 335h-158v106z" />
    <glyph glyph-name="circumflex" unicode="&#x2c6;" 
d="M139 704l-75 -89h-100l119 143h111l120 -143h-103z" />
    <glyph glyph-name="tilde" unicode="&#x2dc;" 
d="M302 744q0 -7 -3.5 -26t-14.5 -38.5t-31.5 -35t-53.5 -15.5q-17 0 -35.5 5.5t-35.5 13.5q-17 7 -32.5 12.5t-27.5 5.5q-19 0 -26.5 -15t-7.5 -29h-58q0 22 7 43t20 37.5t32.5 26t44.5 9.5q17 0 33.5 -6t32.5 -13q16 -8 30.5 -14t25.5 -6q16 0 24.5 5t12.5 12t4.5 14.5
t0.5 13.5h58z" />
    <glyph glyph-name="endash" unicode="&#x2013;" horiz-adv-x="500" 
d="M0 327h500v-88h-500v88z" />
    <glyph glyph-name="emdash" unicode="&#x2014;" horiz-adv-x="1000" 
d="M1000 327v-88h-1000v88h1000z" />
    <glyph glyph-name="quoteleft" unicode="&#x2018;" 
d="M73 578l63 149h66l-54 -154h58v-142h-133v147z" />
    <glyph glyph-name="quoteright" unicode="&#x2019;" 
d="M72 727h133v-147l-63 -149h-66l54 154h-58v142z" />
    <glyph glyph-name="quotesinglbase" unicode="&#x201a;" 
d="M72 142h133v-147l-63 -149h-66l54 154h-58v142z" />
    <glyph glyph-name="quotedblleft" unicode="&#x201c;" horiz-adv-x="444" 
d="M44 578l63 149h66l-54 -154h58v-142h-133v147zM267 578l63 149h66l-54 -154h58v-142h-133v147z" />
    <glyph glyph-name="quotedblright" unicode="&#x201d;" horiz-adv-x="444" 
d="M267 727h133v-147l-63 -149h-66l54 154h-58v142zM44 727h133v-147l-63 -149h-66l54 154h-58v142z" />
    <glyph glyph-name="quotedblbase" unicode="&#x201e;" horiz-adv-x="444" 
d="M267 142h133v-147l-63 -149h-66l54 154h-58v142zM44 142h133v-147l-63 -149h-66l54 154h-58v142z" />
    <glyph glyph-name="dagger" unicode="&#x2020;" horiz-adv-x="500" 
d="M454 440l-180 41q2 -24 7 -47.5t13 -51.5q7 -26 13.5 -47t11.5 -32q-4 -16 -8 -40t-8.5 -52.5t-9 -60t-7.5 -61.5q-3 -35 -5.5 -65.5t-4 -58.5t-3 -55t-2.5 -54h-42q-1 27 -2.5 54t-3 55t-4 58.5t-5.5 65.5q-3 30 -7.5 61.5t-9 60t-8.5 52.5t-8 40q5 11 11.5 32t13.5 47
q8 28 13 51.5t7 47.5l-180 -41v126l180 -43l-38 222h124l-38 -222l180 43v-126z" />
    <glyph glyph-name="daggerdbl" unicode="&#x2021;" horiz-adv-x="500" 
d="M454 441l-181 40l44 -173l-44 -186l181 40v-126l-181 40l39 -220h-124l39 220l-181 -40v126l181 -40l-44 186l44 173l-181 -40v126l181 -42l-39 220h124l-39 -220l181 42v-126z" />
    <glyph glyph-name="bullet" unicode="&#x2022;" horiz-adv-x="500" 
d="M68 364q0 38 14 71t39 58t58 39t71 14t71 -14t58 -39t39 -58t14 -71t-14 -71t-39 -58t-58 -39t-71 -14t-71 14t-58 39t-39 58t-14 71z" />
    <glyph glyph-name="ellipsis" unicode="&#x2026;" horiz-adv-x="1000" 
d="M767 142h133v-142h-133v142zM434 142h133v-142h-133v142zM101 142h133v-142h-133v142z" />
    <glyph glyph-name="perthousand" unicode="&#x2030;" horiz-adv-x="1000" 
d="M690 133q0 31 12 58.5t32.5 48t48 32.5t58.5 12t58.5 -12t48 -32.5t32.5 -48t12 -58.5t-12 -58.5t-32.5 -48t-48 -32.5t-58.5 -12t-58.5 12t-48 32.5t-32.5 48t-12 58.5zM772 133q0 -29 20 -49t49 -20t49 20t20 49t-20 49t-49 20t-49 -20t-20 -49zM8 594q0 31 12 58.5
t32.5 48t48 32.5t58.5 12t58.5 -12t48 -32.5t32.5 -48t12 -58.5t-12 -58.5t-32.5 -48t-48 -32.5t-58.5 -12t-58.5 12t-48 32.5t-32.5 48t-12 58.5zM325 133q0 31 12 58.5t32.5 48t48 32.5t58.5 12t58.5 -12t48 -32.5t32.5 -48t12 -58.5t-12 -58.5t-32.5 -48t-48 -32.5
t-58.5 -12t-58.5 12t-48 32.5t-32.5 48t-12 58.5zM90 594q0 -29 20 -49t49 -20t49 20t20 49t-20 49t-49 20t-49 -20t-20 -49zM497 745h88l-430 -763h-88zM407 133q0 -29 20 -49t49 -20t49 20t20 49t-20 49t-49 20t-49 -20t-20 -49z" />
    <glyph glyph-name="guilsinglleft" unicode="&#x2039;" 
d="M132 431h122l-120 -165l120 -165h-124l-118 165z" />
    <glyph glyph-name="guilsinglright" unicode="&#x203a;" 
d="M146 101h-122l120 165l-120 165h124l118 -165z" />
    <glyph glyph-name="trademark" unicode="&#x2122;" horiz-adv-x="1000" 
d="M862 627h-2l-117 -312h-62l-117 312h-2v-312h-82v412h124l109 -283l107 283h124v-412h-82v312zM179 657h-123v70h332v-70h-123v-342h-86v342z" />
    <glyph glyph-name="fraction" horiz-adv-x="167" 
d="M255 745h88l-431 -763h-88z" />
    <glyph glyph-name="fi" horiz-adv-x="722" 
d="M94 0v413h-100v106h100v62q0 41 13 69.5t33 47t44.5 28t48 14t43 5t29.5 0.5q18 0 33.5 -1t31 -3t32.5 -5t37 -7v-106q-24 6 -40.5 9t-28 4.5t-21 2t-19.5 0.5q-38 1 -60 -7t-33.5 -20.5t-15 -27.5t-3.5 -28v-37h193v-106h-193v-413h-124zM521 745h124v-110h-124v110z
M521 537h124v-537h-124v537z" />
    <glyph glyph-name="fl" horiz-adv-x="722" 
d="M94 413h-100v106h100v62q0 41 13 69.5t33 47t44.5 28t48 14t43 5t29.5 0.5q18 0 33.5 -1t31 -3t32.5 -5t37 -7v-106q-24 6 -40.5 9t-28 4.5t-21 2t-19.5 0.5q-38 1 -60 -7t-33.5 -20.5t-15 -27.5t-3.5 -28v-37h193v-106h-193v-413h-124v413zM521 727h124v-727h-124v727z
" />
    <glyph glyph-name="breve" 
d="M49 760q3 -39 27.5 -56.5t61.5 -17.5q41 0 63.5 16.5t27.5 57.5h61q-6 -70 -44.5 -107t-110.5 -37q-41 0 -69 13t-45 33.5t-25 46t-8 51.5h61z" />
    <glyph glyph-name="dotaccent" 
d="M83 745h112v-110h-112v110z" />
    <glyph glyph-name="ring" 
d="M80 736q0 -25 17 -42t42 -17t42 17t17 42t-17 42t-42 17t-42 -17t-17 -42zM17 736q0 25 9.5 47.5t26 39t39 26t47.5 9.5t47.5 -9.5t39 -26t26 -39t9.5 -47.5t-9.5 -47.5t-26 -39t-39 -26t-47.5 -9.5t-47.5 9.5t-39 26t-26 39t-9.5 47.5z" />
    <glyph glyph-name="hungarumlaut" 
d="M244 758h142l-161 -143h-88zM49 758h142l-161 -143h-88z" />
    <glyph glyph-name="ogonek" 
d="M251 0q-48 -33 -69.5 -67.5t-21.5 -60.5q0 -50 41 -50q12 0 24.5 0.5t19.5 2.5l15 -52q-13 -3 -31 -5t-36 -2q-48 0 -81.5 23t-33.5 71q0 25 10 45t27 37t39.5 31t47.5 27h49z" />
    <glyph glyph-name="caron" 
d="M84 615l-120 143h103l72 -89l75 89h100l-119 -143h-111z" />
    <glyph glyph-name="Lslash" horiz-adv-x="778" 
d="M86 252l-86 -48v90l86 48v385h142v-305l276 154v-90l-276 -154v-206h527v-126h-669v252z" />
    <glyph glyph-name="dotlessi" 
d="M77 537h124v-537h-124v537z" />
    <glyph glyph-name="lslash" 
d="M77 309l-79 -58v80l79 58v338h124v-248l79 58v-78l-79 -58v-401h-124v309z" />
    <glyph glyph-name="minus" horiz-adv-x="600" 
d="M47 301h506v-96h-506v96z" />
    </font>
</defs>
</svg>
