<?xml version="1.0" standalone="no"?>
<!DOCTYPE svg PUBLIC "-//W3C//DTD SVG 1.1//EN" "http://www.w3.org/Graphics/SVG/1.1/DTD/svg11.dtd" >
<svg xmlns="http://www.w3.org/2000/svg" xmlns:xlink="http://www.w3.org/1999/xlink" version="1.1">
<metadata>
Created by FontForge 20170731 at Tue Oct  9 23:16:46 2001
 By Aleksey,,,
Copyright (c) 1989, 1992 Adobe Systems Incorporated. All Rights Reserved.Trade Gothic is a trademark of Linotype-Hell AG and/or its subsidiaries.
</metadata>
<defs>
<font id="TradeGothicLT-BoldTwoOblique" horiz-adv-x="611" >
  <font-face 
    font-family="TradeGothic LT"
    font-weight="700"
    font-style="oblique"
    font-stretch="normal"
    units-per-em="1000"
    panose-1="2 0 8 3 4 0 0 2 0 4"
    ascent="800"
    descent="-200"
    x-height="520"
    cap-height="722"
    bbox="-169 -229 1086 977"
    underline-thickness="50"
    underline-position="-175"
    slope="-12"
    unicode-range="U+0020-FB02"
  />
<missing-glyph horiz-adv-x="305" 
 />
    <glyph glyph-name=".notdef" horiz-adv-x="305" 
 />
    <glyph glyph-name=".null" horiz-adv-x="0" 
 />
    <glyph glyph-name="nonmarkingreturn" horiz-adv-x="305" 
 />
    <glyph glyph-name="space" unicode=" " horiz-adv-x="305" 
 />
    <glyph glyph-name="space" unicode="&#xa0;" horiz-adv-x="305" 
 />
    <glyph glyph-name="exclam" unicode="!" horiz-adv-x="333" 
d="M97 0l30 142h138l-30 -142h-138zM266 244h-96l78 478h148z" />
    <glyph glyph-name="quotedbl" unicode="&#x22;" horiz-adv-x="333" 
d="M180 722h112l-59 -272h-112zM353 722h112l-59 -272h-112z" />
    <glyph glyph-name="numbersign" unicode="#" 
d="M357 421l-43 -120h96l43 120h-96zM565 211h-93l-73 -211h-94l72 211h-96l-73 -211h-94l72 211h-80l20 90h93l43 120h-80l19 90h92l74 211h94l-73 -211h96l74 211h94l-73 -211h80l-19 -90h-92l-43 -120h80z" />
    <glyph glyph-name="dollar" unicode="$" 
d="M397 622q-47 -3 -79 -24.5t-43 -70.5q-1 -5 -1.5 -9.5t-0.5 -8.5q0 -26 20.5 -40t64.5 -27zM358 100q19 0 39.5 4t38.5 14.5t31.5 28t19.5 44.5q2 5 2 10v11q0 34 -24 53t-65 30zM331 317q-36 8 -67.5 22.5t-55 34.5t-37.5 47t-14 60q0 20 4 37q11 50 36.5 88t60.5 63.5
t76.5 38.5t84.5 14l15 72h74l-15 -72q57 -2 100.5 -26t82.5 -73l-94 -77q-24 29 -48.5 49.5t-62.5 26.5l-43 -200q84 -27 130.5 -67t46.5 -108q0 -25 -6 -53q-11 -50 -36 -85.5t-60 -59t-77.5 -35.5t-88.5 -14l-26 -120h-74l26 120q-66 7 -116.5 35t-79.5 84l102 74
q19 -42 46 -62.5t69 -30.5z" />
    <glyph glyph-name="percent" unicode="%" horiz-adv-x="889" 
d="M731 262q-17 0 -33.5 -7t-30 -18t-23 -26t-13.5 -31q-2 -10 -2 -16q0 -27 19 -46.5t48 -19.5q17 0 33 7t29.5 18t23.5 26t13 31q1 5 1.5 8.5t0.5 8.5q0 27 -18.5 46t-47.5 19zM349 624q-17 0 -33.5 -7t-30 -18t-23.5 -26t-13 -31q-2 -10 -2 -16q0 -27 18.5 -46.5
t47.5 -19.5q17 0 33.5 7t30 18t23.5 26t13 31q2 10 2 16q0 27 -18.5 46.5t-47.5 19.5zM770 732h85l-576 -742h-85zM752 360q33 0 59.5 -11t45.5 -29.5t29.5 -44.5t10.5 -56q0 -22 -4 -39q-8 -37 -29 -69.5t-50 -57t-65 -39t-74 -14.5q-33 0 -60 11t-46 30t-29.5 45t-10.5 56
q0 9 1 18.5t3 19.5q8 37 29 69.5t50.5 57t65.5 39t74 14.5zM370 722q33 0 60 -11t45.5 -30t29 -45t10.5 -56q0 -9 -1 -18.5t-3 -19.5q-8 -37 -29 -69.5t-50.5 -57t-65.5 -39t-74 -14.5q-33 0 -60 11t-45.5 30t-29 45t-10.5 56q0 9 1 18.5t3 19.5q8 37 29 69.5t50.5 57
t65.5 39t74 14.5z" />
    <glyph glyph-name="ampersand" unicode="&#x26;" horiz-adv-x="667" 
d="M339 573q-5 -23 -5 -40q0 -20 4.5 -39.5t12.5 -37.5q37 23 70 54t41 66q3 12 3 22q0 23 -12 37.5t-37 14.5q-21 0 -45 -20t-32 -57zM214 206q-1 -5 -1.5 -9t-0.5 -9q0 -34 24 -58t62 -24q26 0 53.5 10t51.5 30q-70 66 -110 155q-30 -21 -50.5 -40.5t-28.5 -54.5zM691 332
q-27 -46 -57.5 -90.5t-68.5 -86.5q19 -21 42 -34.5t49 -14.5l-25 -116q-26 0 -45 2.5t-37 10.5t-37 23t-44 40q-45 -38 -95.5 -57t-104.5 -19q-88 0 -140 37.5t-52 115.5q0 14 2 27.5t5 29.5q7 33 22 60.5t36 50.5t47 42t56 37q-14 30 -22 56.5t-8 56.5q0 14 1.5 29t5.5 32
q8 38 28.5 69t49.5 53t65 34t76 12q63 0 102 -36t39 -92q0 -17 -4 -33q-8 -35 -26 -63.5t-43 -52.5t-54.5 -45t-59.5 -41q21 -40 45 -76.5t51 -66.5q29 32 53 66t45 70z" />
    <glyph glyph-name="quotesingle" unicode="'" horiz-adv-x="222" 
d="M211 722h112l-59 -272h-112z" />
    <glyph glyph-name="parenleft" unicode="(" horiz-adv-x="333" 
d="M465 732q-94 -94 -151.5 -194t-81.5 -214q-16 -70 -16 -139q0 -142 72 -269h-121q-29 69 -46.5 131t-17.5 133q0 33 4 68t13 76q13 64 34 116.5t48.5 100.5t63 94.5t78.5 96.5h121z" />
    <glyph glyph-name="parenright" unicode=")" horiz-adv-x="333" 
d="M7 -84q94 94 151.5 194t82.5 214q15 70 15 137q0 142 -72 271h121q29 -69 46.5 -132t17.5 -134q0 -65 -16 -142q-14 -64 -34.5 -117t-48.5 -101t-63.5 -94t-78.5 -96h-121z" />
    <glyph glyph-name="asterisk" unicode="*" horiz-adv-x="500" 
d="M353 577l1 145h99l-58 -146l4 -5l144 74l11 -90l-151 -23l84 -106l-87 -58l-38 133l-7 -1l-93 -131l-63 53l129 105l-1 6l-142 18l45 89l118 -68z" />
    <glyph glyph-name="plus" unicode="+" horiz-adv-x="600" 
d="M627 314l-23 -108h-206l-44 -206h-108l44 206h-206l23 108h206l45 206h108l-45 -206h206z" />
    <glyph glyph-name="comma" unicode="," horiz-adv-x="305" 
d="M143 0h-60l30 142h138l-30 -142l-97 -150h-65z" />
    <glyph glyph-name="hyphen" unicode="-" horiz-adv-x="333" 
d="M88 206l23 108h245l-23 -108h-245z" />
    <glyph glyph-name="hyphen" unicode="&#xad;" horiz-adv-x="333" 
d="M88 206l23 108h245l-23 -108h-245z" />
    <glyph glyph-name="period" unicode="." horiz-adv-x="305" 
d="M83 0l30 142h138l-30 -142h-138z" />
    <glyph glyph-name="slash" unicode="/" horiz-adv-x="278" 
d="M78 -10h-108l385 742h109z" />
    <glyph glyph-name="zero" unicode="0" 
d="M250 361q-18 -83 -18 -136q0 -70 25.5 -98.5t68.5 -28.5q30 0 57 13.5t51.5 44t45 81t36.5 124.5q9 42 13 75.5t4 60.5q0 70 -25 98.5t-68 28.5q-30 0 -57.5 -13.5t-51.5 -44t-44.5 -81t-36.5 -124.5zM120 361q16 78 45 145.5t71.5 117.5t98.5 79t128 29q54 0 92 -17
t62 -47t35 -72t11 -92q0 -64 -17 -143q-17 -78 -46 -145.5t-71.5 -117.5t-98.5 -79t-128 -29q-54 0 -91.5 16.5t-61.5 46.5t-35 71.5t-11 91.5q0 65 17 145z" />
    <glyph glyph-name="one" unicode="1" 
d="M146 0l21 100h112l108 498h-128l18 84q51 2 94.5 14t73.5 36h101l-137 -632h111l-21 -100h-353z" />
    <glyph glyph-name="two" unicode="2" 
d="M56 0l25 119q12 28 47.5 60t82 66t99 69.5t98 71t78 70.5t39.5 68q3 15 3 27q0 35 -23 54t-65 19q-54 0 -93 -32t-62 -82l-111 25q15 42 44 78t68 62.5t85 41.5t94 15q42 0 77.5 -10.5t61.5 -30.5t41 -50t15 -69q0 -11 -1 -23t-4 -25q-14 -66 -53 -115.5t-96 -95
t-129 -93t-153 -108.5h342l-24 -112h-486z" />
    <glyph glyph-name="three" unicode="3" 
d="M288 437q40 0 76 3.5t64.5 14.5t48.5 31t27 52q1 5 1.5 9t0.5 9q0 32 -23.5 50t-63.5 18q-46 0 -83.5 -21.5t-70.5 -50.5l-69 78q65 56 125.5 79t116.5 23q44 0 81 -9.5t64 -27.5t42 -45.5t15 -63.5q0 -9 -1 -19t-3 -21q-12 -54 -49 -93.5t-94 -62.5q99 -34 99 -134
q0 -24 -6 -49q-12 -57 -43 -98t-72.5 -67.5t-90.5 -39t-97 -12.5q-77 0 -139 35.5t-85 104.5l116 59q17 -45 49 -68t84 -23q24 0 48 7t44.5 21t35 34.5t20.5 46.5q3 15 3 29q0 34 -19 52.5t-48 27.5t-63 11t-64 2z" />
    <glyph glyph-name="four" unicode="4" 
d="M406 266l70 322h-2l-293 -322h225zM87 293l401 429h141l-99 -456h102l-22 -100h-102l-35 -166h-124l35 166h-325z" />
    <glyph glyph-name="five" unicode="5" 
d="M271 722h390l-24 -112h-292l-46 -164q21 18 53 30t91 12q41 0 73 -15.5t53.5 -41t32.5 -59t11 -70.5q0 -27 -6 -54q-13 -59 -40.5 -107t-68 -81.5t-94.5 -51.5t-119 -18q-86 0 -136.5 37t-67.5 98l120 56q4 -19 15 -34t26 -25.5t33 -16.5t36 -6h6q66 0 106 41.5t54 107.5
q4 16 4 35q0 43 -25 70t-73 27q-38 0 -70 -17.5t-53 -44.5l-99 20z" />
    <glyph glyph-name="six" unicode="6" 
d="M481 223q5 23 5 40q0 43 -25 67t-76 24q-87 0 -148 -82q-6 -30 -6 -55q0 -31 8.5 -53.5t23.5 -37t34.5 -21.5t41.5 -7q52 0 91.5 34t50.5 91zM605 574q-19 20 -45.5 35t-65.5 15q-37 0 -73 -17t-67 -47t-54.5 -70t-33.5 -86q42 31 83 44.5t91 13.5q40 0 73 -12.5
t56.5 -35.5t36 -55.5t12.5 -72.5q0 -28 -6 -58q-13 -57 -42 -101t-70 -74.5t-91 -46.5t-104 -16q-93 0 -147 53.5t-54 162.5q0 25 3 53t10 59q21 94 58.5 170.5t89 130.5t115 83.5t137.5 29.5q53 0 92.5 -14t74.5 -40z" />
    <glyph glyph-name="seven" unicode="7" 
d="M214 722h495l-16 -75l-437 -647h-143l424 610h-347z" />
    <glyph glyph-name="eight" unicode="8" 
d="M440 632q-60 0 -89.5 -23t-37.5 -59q-2 -5 -2 -10v-9q0 -21 9.5 -37.5t23 -28.5t29 -18.5t27.5 -6.5q14 0 35 10t42 25.5t37 35t21 39.5q1 5 1.5 10t0.5 10q0 28 -22 45t-75 17zM324 90q69 0 109.5 28.5t51.5 76.5q1 3 1 6v7q0 23 -14.5 44t-34 37.5t-40 26.5t-31.5 10
q-12 0 -36 -10t-48.5 -28t-45.5 -42t-27 -51q-3 -12 -3 -24q0 -37 29 -59t89 -22zM665 552q-14 -64 -54 -101.5t-100 -66.5q50 -24 78.5 -60.5t28.5 -90.5q0 -11 -1 -22.5t-4 -24.5q-10 -44 -38 -80.5t-69.5 -62t-94 -39.5t-109.5 -14q-51 0 -93 11t-72.5 32t-47 50.5
t-16.5 65.5q0 20 4 37q16 75 65.5 122t122.5 76q-39 23 -63 53t-24 75q0 9 1.5 19t3.5 21q9 41 33 74.5t60.5 57t84 36t102.5 12.5q98 0 152 -38.5t54 -104.5q0 -20 -4 -37z" />
    <glyph glyph-name="nine" unicode="9" 
d="M274 499q-2 -11 -3.5 -21t-1.5 -20q0 -42 25 -66t75 -24q87 0 148 82q6 31 6 56q0 31 -8.5 53t-23 36.5t-34 21.5t-41.5 7q-52 0 -91.5 -34t-50.5 -91zM150 148q18 -20 45 -35t66 -15q37 0 73 17t66.5 47t53.5 70t34 86q-42 -31 -83 -44.5t-91 -13.5q-41 0 -74 12.5
t-56 36t-35.5 56t-12.5 72.5q0 27 6 57q13 57 42 101t70 74.5t91 46.5t104 16q46 0 83 -13.5t63 -40t40.5 -67t14.5 -94.5q0 -52 -13 -113q-21 -95 -58.5 -171.5t-89 -130.5t-115.5 -83t-137 -29q-53 0 -92 14t-75 40z" />
    <glyph glyph-name="colon" unicode=":" horiz-adv-x="305" 
d="M83 0l30 142h138l-30 -142h-138zM147 300l31 142h138l-31 -142h-138z" />
    <glyph glyph-name="semicolon" unicode=";" horiz-adv-x="305" 
d="M147 300l31 142h138l-31 -142h-138zM143 0h-60l30 142h138l-30 -142l-97 -150h-65z" />
    <glyph glyph-name="less" unicode="&#x3c;" horiz-adv-x="600" 
d="M558 -8l-472 222l20 92l568 222l-24 -111l-406 -157l338 -157z" />
    <glyph glyph-name="equal" unicode="=" horiz-adv-x="600" 
d="M580 96h-520l24 108h520zM628 316h-520l23 108h520z" />
    <glyph glyph-name="greater" unicode="&#x3e;" horiz-adv-x="600" 
d="M62 103l406 157l-338 157l24 111l472 -222l-20 -92l-568 -222z" />
    <glyph glyph-name="question" unicode="?" horiz-adv-x="444" 
d="M131 0l30 142h138l-30 -142h-138zM195 243l12 55q9 43 37 80t60 71q31 34 58 65.5t34 63.5q1 3 1 9q0 20 -15 32.5t-38 12.5q-18 0 -34 -8t-29 -20.5t-23 -28t-16 -31.5l-108 32q35 75 97 115.5t143 40.5q32 0 59.5 -8t47.5 -23t31.5 -38t11.5 -53q0 -9 -1 -18.5
t-3 -19.5q-11 -50 -41 -85.5t-64 -67.5t-63.5 -64.5t-38.5 -74.5l-8 -37h-110z" />
    <glyph glyph-name="at" unicode="@" horiz-adv-x="800" 
d="M434 249q24 0 45.5 10.5t39 27t30 38t17.5 44.5q3 12 3 22q0 27 -16.5 43.5t-45.5 16.5q-23 0 -44 -9.5t-38 -25.5t-29.5 -37.5t-17.5 -45.5q-3 -14 -3 -25q0 -26 15 -42.5t44 -16.5zM643 542h88l-102 -244q-3 -8 -7.5 -17.5t-6.5 -18.5q-1 -4 -1 -11q0 -11 10 -11
q17 0 36.5 10.5t38.5 30.5t34.5 50.5t24.5 70.5q7 32 7 63q0 45 -15.5 79t-43 57t-66.5 35t-87 12q-61 0 -115.5 -22t-98 -60.5t-74 -91t-43.5 -114.5q-4 -20 -6 -37.5t-2 -34.5q0 -50 16 -89.5t46 -67.5t73 -42.5t96 -14.5q57 0 110 19t97 51h90q-68 -75 -150.5 -114.5
t-173.5 -39.5q-67 0 -123 21t-96.5 59.5t-63 91.5t-22.5 117q0 39 9 81q17 79 61 147t105.5 118t135 78.5t150.5 28.5q57 0 108 -17t89 -48.5t60.5 -76t22.5 -100.5q0 -14 -2 -29t-5 -31q-12 -55 -35.5 -97.5t-53 -74.5t-62 -54t-63 -35.5t-56 -19.5t-40.5 -6q-19 0 -31 9.5
t-12 29.5q0 8 1 12l-1 1q-23 -21 -53 -36.5t-56 -15.5q-27 0 -50 10.5t-39.5 29t-25.5 43.5t-9 54q0 9 1 18.5t3 19.5q10 45 33.5 87.5t56.5 75.5t74.5 53t87.5 20q36 0 63 -15t41 -47z" />
    <glyph glyph-name="A" unicode="A" 
d="M281 270h168l-13 314h-2zM377 723h172l49 -723h-137l-7 156h-228l-76 -156h-137z" />
    <glyph glyph-name="B" unicode="B" horiz-adv-x="667" 
d="M309 434h138q50 0 80 25t38 63q3 12 3 22q0 29 -20 47.5t-62 18.5h-138zM240 112h138q60 0 93 26.5t44 78.5q4 16 4 33q0 35 -23 53.5t-73 18.5h-138zM234 722h268q49 0 87.5 -7.5t65.5 -24.5t41.5 -44t14.5 -65q0 -17 -3 -36q-12 -57 -46 -99t-99 -65q49 -22 71.5 -49
t22.5 -73q0 -29 -9 -69q-9 -42 -32 -77t-60.5 -60t-90 -39t-121.5 -14h-266z" />
    <glyph glyph-name="C" unicode="C" 
d="M557 512q-5 46 -31 75t-77 29q-69 0 -122.5 -63.5t-80.5 -191.5q-16 -68 -16 -121q0 -134 112 -134q23 0 43.5 5t40 17t39 32.5t42.5 52.5l120 -34q-53 -94 -131.5 -141.5t-178.5 -47.5q-110 0 -167.5 62t-57.5 178q0 29 4 62t12 69q19 88 53.5 157.5t81.5 116.5
t106.5 72t128.5 25q104 0 155 -46.5t56 -143.5z" />
    <glyph glyph-name="D" unicode="D" horiz-adv-x="667" 
d="M241 116h92q59 0 101.5 20t71.5 54t46.5 78.5t28.5 92.5q5 26 8.5 49.5t3.5 46.5q0 32 -7.5 59t-25.5 47t-47.5 31.5t-73.5 11.5h-92zM234 722h239q59 0 107 -14t82 -43.5t52.5 -75.5t18.5 -109q0 -51 -14 -119q-21 -96 -60 -164t-91 -112t-115.5 -64.5t-135.5 -20.5
h-239z" />
    <glyph glyph-name="E" unicode="E" 
d="M84 0l156 722h478l-25 -116h-340l-38 -172h247l-25 -116h-247l-43 -202h351l-25 -116h-489z" />
    <glyph glyph-name="F" unicode="F" horiz-adv-x="556" 
d="M78 0l156 722h460l-25 -116h-322l-38 -172h241l-25 -116h-241l-68 -318h-138z" />
    <glyph glyph-name="G" unicode="G" horiz-adv-x="667" 
d="M576 514q-14 54 -41.5 78t-81.5 24q-38 0 -70.5 -18.5t-59 -52.5t-46.5 -82.5t-33 -108.5q-12 -56 -12 -100q0 -70 28 -109t83 -39q34 0 63.5 10.5t53.5 29.5t40.5 45.5t24.5 57.5h-137l26 116h270l-79 -365h-100l16 74q-54 -48 -102 -66t-105 -18q-58 0 -100 17.5
t-69.5 49t-40.5 75.5t-13 97q0 29 3.5 59t10.5 62q15 69 44.5 137.5t76 122.5t111.5 88t152 34q54 0 94 -14t67 -38.5t42 -58t19 -73.5z" />
    <glyph glyph-name="H" unicode="H" horiz-adv-x="722" 
d="M84 0l156 722h138l-63 -288h278l63 288h138l-156 -722h-138l67 310h-278l-67 -310h-138z" />
    <glyph glyph-name="I" unicode="I" horiz-adv-x="333" 
d="M97 0l156 722h138l-156 -722h-138z" />
    <glyph glyph-name="J" unicode="J" horiz-adv-x="444" 
d="M124 158q11 -30 25.5 -41t37.5 -11q25 0 45 19t31 67l115 530h138l-114 -527q-46 -205 -240 -205q-57 0 -93 25.5t-56 71.5z" />
    <glyph glyph-name="K" unicode="K" horiz-adv-x="667" 
d="M78 0l156 722h138l-70 -321l311 321h159l-264 -271l141 -451h-153l-105 343l-129 -126l-46 -217h-138z" />
    <glyph glyph-name="L" unicode="L" horiz-adv-x="556" 
d="M78 0l156 722h138l-131 -606h314l-25 -116h-452z" />
    <glyph glyph-name="M" unicode="M" horiz-adv-x="833" 
d="M81 0l156 722h194l30 -504h2l249 504h196l-156 -722h-120l122 568h-2l-284 -568h-105l-38 568h-2l-122 -568h-120z" />
    <glyph glyph-name="N" unicode="N" horiz-adv-x="722" 
d="M81 0l156 722h144l177 -492h2l107 492h130l-156 -722h-133l-184 514h-2l-111 -514h-130z" />
    <glyph glyph-name="O" unicode="O" horiz-adv-x="667" 
d="M576 361q14 67 14 113q0 142 -124 142q-85 0 -139 -63.5t-81 -191.5q-15 -68 -15 -116q0 -139 124 -139q85 0 139 63.5t82 191.5zM714 361q-38 -178 -136.5 -274.5t-247.5 -96.5q-118 0 -177.5 62t-59.5 179q0 58 15 130q38 178 136 274.5t247 96.5q119 0 178.5 -62.5
t59.5 -179.5q0 -59 -15 -129z" />
    <glyph glyph-name="P" unicode="P" 
d="M293 404h110q39 0 66 7t45 20.5t28.5 32.5t15.5 43q4 16 4 32q0 34 -25 52.5t-89 18.5h-110zM68 0l156 722h264q101 0 158 -37t57 -118q0 -29 -7 -60q-12 -56 -38.5 -97t-65.5 -67t-89 -38.5t-108 -12.5h-126l-63 -292h-138z" />
    <glyph glyph-name="Q" unicode="Q" horiz-adv-x="667" 
d="M401 316q52 -5 80.5 -28.5t47.5 -63.5q15 27 26.5 61t20.5 76q14 67 14 113q0 142 -124 142q-85 0 -139 -63.5t-81 -191.5q-15 -68 -15 -116q0 -139 124 -139q51 0 92 24q-11 23 -27.5 40t-45.5 23zM643 -54q-35 0 -56.5 3.5t-37 12.5t-28.5 24.5t-30 39.5
q-71 -36 -161 -36q-118 0 -177.5 62t-59.5 179q0 58 15 130q38 178 136 274.5t247 96.5q119 0 178.5 -62.5t59.5 -179.5q0 -59 -15 -129q-38 -169 -130 -266q16 -15 36.5 -23.5t47.5 -9.5z" />
    <glyph glyph-name="R" unicode="R" horiz-adv-x="667" 
d="M303 406h102q40 0 69 6.5t48 19t30 31.5t16 45q2 8 3 15.5t1 14.5q0 72 -98 72h-126zM78 0l156 722h288q51 0 87 -11.5t59 -32.5t33.5 -49.5t10.5 -62.5q0 -28 -6 -58q-14 -67 -57.5 -117t-114.5 -69l90 -322h-153l-73 294h-119l-63 -294h-138z" />
    <glyph glyph-name="S" unicode="S" 
d="M533 530q-7 42 -33 68t-75 26q-45 0 -78.5 -19t-42.5 -61q-1 -4 -1 -12q0 -26 22.5 -44t56.5 -33.5t74 -32t74 -39t56.5 -53.5t22.5 -77q0 -10 -1.5 -20t-3.5 -21q-24 -112 -102 -167t-199 -55q-44 0 -83.5 12t-70 34t-51.5 54t-28 71l125 50q7 -26 17 -46.5t26 -35.5
t38 -23t52 -8q26 0 49 5t42 16.5t32 30t19 44.5q1 5 1.5 8.5t0.5 7.5q0 29 -22.5 49t-56.5 37t-73.5 33.5t-73.5 38.5t-56.5 51.5t-22.5 73.5q0 20 4 37q10 48 37.5 86t65 63.5t82.5 39t92 13.5q88 0 146 -42t74 -121z" />
    <glyph glyph-name="T" unicode="T" horiz-adv-x="556" 
d="M692 723l-25 -116h-189l-131 -607h-138l131 607h-189l25 116h516z" />
    <glyph glyph-name="U" unicode="U" horiz-adv-x="722" 
d="M656 722h138l-98 -452q-17 -79 -51.5 -132.5t-79.5 -86.5t-98.5 -47t-108.5 -14q-47 0 -88 10t-72 32.5t-48.5 59.5t-17.5 91q0 41 10 87l98 452h138l-99 -458q-8 -38 -8 -64q0 -52 28 -73t84 -21q70 0 112 35t62 123z" />
    <glyph glyph-name="V" unicode="V" horiz-adv-x="556" 
d="M166 722h136l13 -532h2l249 532h136l-347 -722h-154z" />
    <glyph glyph-name="W" unicode="W" horiz-adv-x="833" 
d="M176 722h129l-15 -487h2l209 487h142l-11 -487h2l205 487h129l-306 -722h-140l6 514h-2l-215 -514h-140z" />
    <glyph glyph-name="X" unicode="X" horiz-adv-x="556" 
d="M176 722h150l60 -223l156 223h150l-259 -352l115 -370h-150l-67 245l-173 -245h-150l275 370z" />
    <glyph glyph-name="Y" unicode="Y" horiz-adv-x="556" 
d="M372 436l186 286h144l-293 -434l-62 -288h-138l62 288l-105 434h144z" />
    <glyph glyph-name="Z" unicode="Z" horiz-adv-x="556" 
d="M530 0h-514l25 117l443 489h-314l25 116h488l-24 -110l-456 -496h352z" />
    <glyph glyph-name="bracketleft" unicode="[" horiz-adv-x="333" 
d="M35 -74l173 796h233l-13 -60h-125l-147 -676h127l-13 -60h-235z" />
    <glyph glyph-name="backslash" unicode="\" horiz-adv-x="278" 
d="M130 732h109l64 -742h-109z" />
    <glyph glyph-name="bracketright" unicode="]" horiz-adv-x="333" 
d="M29 -74l13 60h127l147 676h-125l13 60h233l-173 -796h-235z" />
    <glyph glyph-name="asciicircum" unicode="^" horiz-adv-x="600" 
d="M145 347l261 375h100l99 -375h-110l-63 263l-178 -263h-109z" />
    <glyph glyph-name="underscore" unicode="_" horiz-adv-x="500" 
d="M-27 -125l11 50h499l-11 -50h-499z" />
    <glyph glyph-name="grave" unicode="`" horiz-adv-x="278" 
d="M284 732l62 -146h-102l-114 146h154z" />
    <glyph glyph-name="a" unicode="a" horiz-adv-x="500" 
d="M369 249q-32 -6 -64.5 -13t-60 -18.5t-47 -29.5t-25.5 -45q-1 -5 -1.5 -8.5t-0.5 -7.5q0 -22 13 -33.5t36 -11.5q15 0 32 5.5t34 13.5t32.5 18t27.5 18zM329 0l1 45q-43 -26 -84 -40.5t-90 -14.5q-59 0 -87 30.5t-28 74.5q0 8 1 16.5t3 16.5q20 89 103 137.5t239 66.5
l10 44q2 10 2 14q0 23 -18 35.5t-47 12.5q-44 0 -74 -19.5t-54 -44.5l-66 61q16 20 40.5 37.5t52.5 30t58 20t58 7.5h5q84 -2 124.5 -30.5t40.5 -97.5q0 -36 -10 -82l-53 -245q-3 -14 -5.5 -27.5t-2.5 -27.5q0 -5 0.5 -10t1.5 -10h-121z" />
    <glyph glyph-name="b" unicode="b" horiz-adv-x="556" 
d="M217 136q8 -8 15 -16t16 -14.5t22 -11t33 -4.5q56 0 95.5 43.5t57.5 126.5q5 19 6.5 36t1.5 32q0 102 -87 102q-30 0 -56.5 -13.5t-49.5 -30.5zM220 722h124l-54 -250h2q12 12 29 23t36 18.5t38 12t35 4.5q41 0 71 -15t50 -40.5t30 -59t10 -71.5q0 -32 -8 -70
q-13 -61 -37.5 -113t-59 -90t-78 -59.5t-95.5 -21.5q-42 0 -71 17t-55 49l-26 -56h-97z" />
    <glyph glyph-name="c" unicode="c" horiz-adv-x="500" 
d="M427 351q-4 16 -9 30.5t-14 25.5t-24 17t-37 6q-52 0 -86 -41t-53 -129q-5 -23 -7.5 -43t-2.5 -37q0 -90 79 -90q41 0 71.5 24t56.5 59l82 -53q-52 -69 -107 -99.5t-125 -30.5h-4q-87 0 -132 48.5t-45 135.5q0 20 2.5 41.5t7.5 44.5q13 62 39 112t63 85t83 54t99 19
q74 0 120.5 -36.5t54.5 -102.5z" />
    <glyph glyph-name="d" unicode="d" horiz-adv-x="556" 
d="M451 386q-15 17 -35.5 30.5t-50.5 13.5q-56 0 -95.5 -43.5t-57.5 -126.5q-5 -19 -6.5 -36t-1.5 -32q0 -102 87 -102q20 0 35 4.5t27 11t22.5 14.5t21.5 16zM492 0h-105l6 56q-41 -32 -77.5 -49t-78.5 -17q-81 0 -119.5 50.5t-38.5 133.5q0 47 12 100q10 48 34 94t58 82
t77.5 58t93.5 22q32 0 66 -16.5t48 -41.5h2l54 250h124z" />
    <glyph glyph-name="e" unicode="e" horiz-adv-x="500" 
d="M418 324q3 16 3 32q0 39 -20.5 60.5t-58.5 21.5q-45 0 -78 -30t-46 -84h200zM199 240q-6 -30 -6 -54q0 -51 23.5 -73.5t58.5 -22.5q44 0 72 17.5t57 44.5l78 -56q-48 -56 -107 -81t-134 -25q-83 0 -127 49t-44 135q0 42 10 86q13 62 39 112t63 85t83 54t99 19h2
q42 0 73 -13.5t51.5 -37.5t30.5 -56t10 -68q0 -33 -7 -64l-11 -51h-314z" />
    <glyph glyph-name="f" unicode="f" horiz-adv-x="333" 
d="M298 420l-90 -420h-124l90 420h-72l22 100h71l14 64q9 42 23.5 70.5t36.5 45.5t51.5 24.5t67.5 7.5h82l-22 -100h-34q-39 0 -57 -13t-25 -43l-12 -56h105l-22 -100h-105z" />
    <glyph glyph-name="g" unicode="g" horiz-adv-x="500" 
d="M216 10q-26 0 -44 -6.5t-30.5 -15.5t-19 -19.5t-7.5 -18.5q-2 -8 -2 -12q0 -23 28.5 -34.5t98.5 -11.5q30 0 52 6.5t36.5 15.5t22 19t9.5 17q0 2 0.5 2.5t0.5 2.5q0 9 -7 18.5t-23.5 18t-44.5 13.5t-70 5zM398 352q1 5 1.5 9t0.5 9q0 29 -19 48.5t-50 19.5q-40 0 -70 -25
t-38 -61q-2 -5 -2 -10v-10q0 -29 19 -47.5t54 -18.5q18 0 34.5 6.5t31 18.5t24.5 27.5t14 33.5zM584 446q-22 0 -44 -1.5t-39 -10.5q13 -24 13 -55q0 -8 -1 -17.5t-3 -19.5q-8 -37 -27.5 -67.5t-48.5 -53t-68.5 -35t-88.5 -12.5q-41 0 -70 -5t-34 -27q0 -2 -0.5 -3t-0.5 -3
q0 -17 23 -23t57 -8.5t74.5 -4.5t74.5 -12t57 -31t23 -60q0 -17 -4 -33q-6 -28 -26.5 -55.5t-55 -49.5t-83 -35.5t-110.5 -13.5q-96 0 -151 25.5t-55 76.5v11q0 5 2 11q5 24 17 42t28 30t34 18t35 6v2q-7 5 -17 10t-19.5 12.5t-16.5 18t-7 26.5q0 4 0.5 8t1.5 9
q4 19 16.5 35t28.5 28.5t31.5 20.5t24.5 11q-21 21 -36 46t-15 59q0 17 4 33q7 34 27.5 66.5t51.5 58t72.5 41t92.5 15.5q33 0 65.5 -12.5t52.5 -33.5q44 46 122 46h10z" />
    <glyph glyph-name="h" unicode="h" horiz-adv-x="556" 
d="M64 0l156 722h124l-56 -258q34 24 76 45t88 21q63 0 93 -31.5t30 -86.5q0 -26 -6 -56l-77 -356h-124l73 338q3 13 4 23.5t1 19.5q0 28 -12.5 38.5t-36.5 10.5q-41 0 -74.5 -18.5t-53.5 -36.5l-81 -375h-124z" />
    <glyph glyph-name="i" unicode="i" horiz-adv-x="278" 
d="M210 616l25 116h124l-25 -116h-124zM201 0h-124l112 520h124z" />
    <glyph glyph-name="j" unicode="j" horiz-adv-x="278" 
d="M223 616l25 116h124l-25 -116h-124zM-14 -81q10 -1 17.5 -2t21.5 -1q22 0 37 13t23 51l117 540h124l-121 -560q-17 -80 -59.5 -115t-119.5 -35q-19 0 -33.5 2t-28.5 6z" />
    <glyph glyph-name="k" unicode="k" horiz-adv-x="500" 
d="M64 0l156 722h124l-87 -403h4l196 201h142l-195 -194l94 -326h-132l-65 233l-79 -73l-34 -160h-124z" />
    <glyph glyph-name="l" unicode="l" horiz-adv-x="278" 
d="M77 0l156 722h124l-156 -722h-124z" />
    <glyph glyph-name="m" unicode="m" horiz-adv-x="833" 
d="M64 0l112 520h113l-12 -56q42 32 79.5 49t90.5 17q41 0 72 -19t40 -57q39 32 84.5 54t110.5 22q17 0 34.5 -5t32 -17t24 -32t9.5 -50q0 -22 -6 -52l-80 -374h-124l78 363q3 13 3 23q0 41 -50 44q-12 0 -27 -5t-30.5 -13t-31 -18t-28.5 -20l-80 -374h-124l78 363
q3 13 3 23q0 41 -50 44q-12 0 -27 -5t-30.5 -13t-31 -18t-28.5 -20l-80 -374h-124z" />
    <glyph glyph-name="n" unicode="n" horiz-adv-x="556" 
d="M64 0l112 520h114l-12 -56q40 24 84 45t90 21q63 0 93 -31.5t30 -86.5q0 -26 -6 -56l-77 -356h-124l73 338q3 13 4 23.5t1 19.5q0 28 -12.5 38.5t-36.5 10.5q-41 0 -74.5 -18.5t-53.5 -36.5l-81 -375h-124z" />
    <glyph glyph-name="o" unicode="o" horiz-adv-x="500" 
d="M408 260q5 23 7.5 43.5t2.5 37.5q0 89 -75 89q-52 0 -86 -41t-53 -129q-5 -23 -7.5 -43.5t-2.5 -37.5q0 -89 75 -89q52 0 86 41t53 129zM80 260q13 62 39 112t63 85t83 54t99 19q87 0 132.5 -49t45.5 -136q0 -20 -2.5 -41t-7.5 -44q-14 -62 -40 -112t-63 -85t-83 -54
t-99 -19q-87 0 -132 48.5t-45 135.5q0 20 2.5 41.5t7.5 44.5z" />
    <glyph glyph-name="p" unicode="p" horiz-adv-x="556" 
d="M217 134q15 -17 35.5 -30.5t50.5 -13.5q56 0 95.5 43.5t57.5 126.5q5 19 6.5 36t1.5 32q0 102 -87 102q-20 0 -35 -4.5t-27 -11t-22.5 -15t-21.5 -15.5zM176 520h119l-10 -48q32 26 67.5 42t77.5 16q81 0 119.5 -51t38.5 -134q0 -23 -2.5 -48t-8.5 -51q-11 -48 -34.5 -94
t-58 -82t-78 -58t-93.5 -22q-32 0 -65.5 16.5t-47.5 41.5h-2l-52 -238h-124z" />
    <glyph glyph-name="q" unicode="q" horiz-adv-x="556" 
d="M451 384q-8 7 -15 15.5t-16 15t-22 11t-33 4.5q-56 0 -95.5 -43.5t-57.5 -126.5q-5 -19 -6.5 -36t-1.5 -32q0 -102 87 -102q30 0 56.5 13.5t49.5 30.5zM450 -190h-124l52 238h-2q-12 -12 -29.5 -23t-36.5 -18.5t-38 -12t-35 -4.5q-41 0 -71 14.5t-50 40t-29.5 59
t-9.5 71.5q0 33 8 71q13 61 37.5 113t58.5 90t77.5 59.5t95.5 21.5q42 0 71.5 -17t55.5 -49l26 56h97z" />
    <glyph glyph-name="r" unicode="r" horiz-adv-x="333" 
d="M56 0l112 520h114l-19 -89h2q32 47 71.5 72t95.5 27l-28 -131q-5 1 -10 1h-12q-23 0 -46.5 -11.5t-42.5 -26t-31.5 -28t-13.5 -18.5l-68 -316h-124z" />
    <glyph glyph-name="s" unicode="s" horiz-adv-x="444" 
d="M399 383q-14 20 -35 37.5t-50 17.5q-36 0 -56 -14t-25 -37q-1 -3 -1 -9q0 -18 16 -29.5t39.5 -21.5t51 -20.5t51 -26t39.5 -39t16 -58.5q0 -18 -4 -37q-9 -41 -29.5 -70t-50.5 -48.5t-67 -28.5t-78 -9q-63 0 -107 27t-67 78l96 62q16 -30 40.5 -52.5t64.5 -22.5
q33 0 57 16.5t30 42.5q1 3 1 9q0 18 -16 30t-39.5 22t-51 21t-51 26.5t-39.5 38t-16 56.5q0 18 4 35q8 36 28 64.5t48 47.5t61 29t67 10q52 0 96.5 -19.5t69.5 -59.5z" />
    <glyph glyph-name="t" unicode="t" horiz-adv-x="333" 
d="M196 520l37 172h124l-37 -172h102l-22 -100h-102l-63 -294q-1 -5 -1 -12q0 -14 9 -19t29 -5q14 0 29.5 3.5t29.5 6.5l-22 -102q-26 -3 -50 -5.5t-50 -2.5q-57 0 -81.5 22t-24.5 61q0 8 1 17.5t3 19.5l67 310h-72l22 100h72z" />
    <glyph glyph-name="u" unicode="u" horiz-adv-x="556" 
d="M604 520l-112 -520h-114l12 56q-40 -24 -84.5 -45t-90.5 -21q-63 0 -93 31t-30 86q0 14 2 27.5t5 29.5l77 356h124l-73 -338q-3 -13 -4 -23.5t-1 -19.5q0 -28 12.5 -38.5t36.5 -10.5q41 0 74.5 18.5t53.5 36.5l81 375h124z" />
    <glyph glyph-name="v" unicode="v" horiz-adv-x="444" 
d="M122 520h124l10 -352h2l164 352h124l-261 -520h-130z" />
    <glyph glyph-name="w" unicode="w" horiz-adv-x="667" 
d="M122 520h118l1 -324h2l145 324h115l2 -324h2l144 324h118l-246 -520h-112l-7 324h-2l-146 -324h-112z" />
    <glyph glyph-name="x" unicode="x" horiz-adv-x="444" 
d="M215 270l-93 250h137l42 -144l105 144h134l-200 -250l100 -270h-132l-52 162l-119 -162h-133z" />
    <glyph glyph-name="y" unicode="y" horiz-adv-x="444" 
d="M-8 -84q13 -3 24.5 -3.5t25.5 -0.5q32 0 53.5 9.5t37.5 31.5q14 19 22 32t12 29q1 5 1 14q0 11 -1.5 23.5t-2.5 24.5l-43 444h125l17 -320h2l158 320h124l-277 -521q-33 -56 -60.5 -92.5t-55 -58t-58 -30t-68.5 -8.5q-22 0 -34.5 1t-23.5 3z" />
    <glyph glyph-name="z" unicode="z" horiz-adv-x="444" 
d="M151 520h385l-19 -88l-322 -332h252l-21 -100h-408l19 88l322 332h-230z" />
    <glyph glyph-name="braceleft" unicode="{" horiz-adv-x="333" 
d="M84 354q30 0 54 17.5t30 47.5l42 194q14 62 56 90.5t98 28.5h71l-13 -60h-49q-21 0 -34.5 -15t-18.5 -35l-41 -190q-11 -50 -33.5 -73.5t-65.5 -33.5l-1 -2q30 -8 44 -22.5t14 -43.5q0 -9 -1 -19t-4 -22l-41 -190q-1 -4 -1 -8v-6q0 -15 7.5 -25.5t24.5 -10.5h49l-13 -60
h-71q-48 0 -77 20.5t-29 65.5q0 17 4 33l42 194q1 5 1.5 8.5t0.5 7.5q0 23 -16 36t-42 13z" />
    <glyph glyph-name="bar" unicode="|" horiz-adv-x="222" 
d="M215 732h108l-161 -742h-108z" />
    <glyph glyph-name="braceright" unicode="}" horiz-adv-x="333" 
d="M388 294q-30 0 -53.5 -17.5t-30.5 -47.5l-42 -194q-14 -62 -56 -90.5t-98 -28.5h-71l13 60h49q21 0 35 15t18 35l41 190q11 50 34 73.5t65 33.5l1 2q-29 8 -43.5 23t-14.5 44q0 15 5 40l41 190q2 10 2 15q0 15 -8 25t-25 10h-49l13 60h71q48 0 77 -20.5t29 -65.5
q0 -17 -4 -33l-42 -194q-2 -10 -2 -15q0 -23 16 -36.5t42 -13.5z" />
    <glyph glyph-name="asciitilde" unicode="~" horiz-adv-x="600" 
d="M586 260q-14 -16 -29.5 -31.5t-33.5 -28t-39.5 -20t-46.5 -7.5q-35 0 -58.5 15t-49.5 30q-18 10 -38 17t-47 7q-18 0 -32.5 -6.5t-27.5 -16.5t-23.5 -23t-19.5 -26l-15 90q11 16 25.5 31.5t32 27.5t38.5 19.5t46 7.5q28 0 55.5 -10.5t53 -23.5t48.5 -23.5t42 -10.5
q15 0 28.5 6.5t26.5 16.5t25 23t23 26z" />
    <glyph glyph-name="exclamdown" unicode="&#xa1;" horiz-adv-x="333" 
d="M353 542l-31 -142h-138l31 142h138zM183 298h96l-77 -478h-148z" />
    <glyph glyph-name="cent" unicode="&#xa2;" 
d="M431 426q-12 4 -30 4q-52 0 -91 -41t-58 -129q-9 -39 -9 -69q0 -21 4 -37t11 -28zM299 95q7 -3 15 -4t17 -1q41 0 71.5 24t56.5 59l82 -53q-52 -69 -107 -99.5t-125 -30.5h-4q-32 0 -62 8l-72 -123h-58l84 145q-69 46 -69 154q0 20 2.5 41.5t7.5 44.5q13 62 39 112t63 85
t83 54t99 19q35 0 64 -8l61 106h58l-73 -128q57 -36 65 -109l-112 -40q-2 12 -5.5 22.5t-8.5 20.5z" />
    <glyph glyph-name="sterling" unicode="&#xa3;" 
d="M342 314q-3 -17 -9.5 -39t-14.5 -45.5t-18 -45t-21 -36.5q25 -17 50 -29.5t59 -12.5q26 0 43 10t28.5 26t18.5 36t13 40h120q-10 -47 -29.5 -88t-47 -72.5t-63 -49.5t-78.5 -18q-36 0 -62.5 4t-47.5 11.5t-40 19.5t-40 27q-29 -26 -67 -44t-81 -18h-6l27 124
q28 2 49.5 16.5t36.5 35t24 44.5t14 46q3 15 5 29.5t3 28.5h-95l21 94h81q1 29 3.5 59.5t10.5 65.5q21 97 87.5 148t175.5 51q84 0 129 -41t45 -114q0 -14 -2 -28t-5 -30h-120q1 7 1 13v13q0 36 -16 57.5t-62 21.5q-24 0 -42 -9t-30.5 -23.5t-21 -33t-12.5 -38.5
q-5 -22 -6.5 -40.5t-1.5 -36.5v-17t1 -18h130l-21 -94h-116z" />
    <glyph glyph-name="currency" unicode="&#xa4;" 
d="M243 361q-4 -17 -4 -37q0 -50 30 -80.5t82 -30.5q30 0 58 11t51 31t39.5 47t23.5 59q4 17 4 36q0 50 -30 81t-82 31q-30 0 -58.5 -11t-51.5 -31t-39 -47t-23 -59zM622 506q20 -43 20 -93q0 -13 -1 -25.5t-4 -26.5q-9 -40 -29 -76.5t-49 -68.5l41 -52l-76 -64l-44 51
q-35 -20 -73.5 -32t-78.5 -12t-74 12t-60 32l-66 -51l-48 64l63 52q-20 42 -20 91q0 27 6 54q8 40 28 76.5t49 68.5l-41 52l76 64l44 -51q35 20 74 32t79 12t73.5 -12t59.5 -32l66 51l48 -64z" />
    <glyph glyph-name="yen" unicode="&#xa5;" 
d="M362 0h-114l43 202h-180l21 94h176l-20 68h-142l21 94h95l-78 264h124l86 -310l221 310h124l-192 -264h94l-21 -94h-141l-49 -68h176l-21 -94h-180z" />
    <glyph glyph-name="brokenbar" unicode="&#xa6;" horiz-adv-x="222" 
d="M215 732h108l-61 -282h-108zM115 272h108l-61 -282h-108z" />
    <glyph glyph-name="section" unicode="&#xa7;" horiz-adv-x="500" 
d="M230 398q0 -2 -0.5 -3t-0.5 -3q0 -13 11 -33.5t37 -53.5q55 -76 84 -76q20 0 34.5 11t18.5 29q1 2 1 7q0 17 -14 38t-37 53q-32 43 -49.5 57t-33.5 14q-17 0 -32 -11.5t-19 -28.5zM466 597q-12 19 -28.5 36t-42.5 17q-20 0 -37 -12t-21 -30q-1 -3 -1 -9q0 -28 27.5 -61.5
t60.5 -71.5t60.5 -79.5t27.5 -86.5q0 -13 -3 -25q-4 -17 -13 -34.5t-25 -33.5t-39.5 -28.5t-55.5 -17.5q14 -19 21.5 -40t7.5 -46q0 -16 -3 -31q-7 -31 -24 -55t-40 -40t-51 -24.5t-57 -8.5q-50 0 -84 24.5t-57 60.5l79 53q10 -22 27 -39t44 -17q26 0 45 11.5t25 38.5
q1 4 1 12q0 21 -13.5 44.5t-33 48t-43 50.5t-43 53.5t-33 55t-13.5 55.5q0 5 0.5 10.5t1.5 10.5q11 49 49 81t86 35q-13 20 -20 38t-7 40q0 8 1 16.5t3 17.5q6 27 20.5 48.5t35.5 36.5t47.5 23t55.5 8q27 0 47 -4t36 -13t30 -24.5t29 -38.5z" />
    <glyph glyph-name="dieresis" unicode="&#xa8;" horiz-adv-x="278" 
d="M448 712l-26 -116h-120l26 116h120zM258 712l-26 -116h-120l26 116h120z" />
    <glyph glyph-name="copyright" unicode="&#xa9;" horiz-adv-x="800" 
d="M660 305q-15 -38 -38 -67.5t-51 -49.5t-60 -30t-64 -10q-40 0 -71.5 12t-53 34t-33 51.5t-11.5 65.5q0 26 6 53q10 46 33 86t56 68.5t75 45t90 16.5q64 0 104 -35t40 -104v-13h-86v2q0 34 -22.5 48t-54.5 14q-49 0 -82.5 -34t-45.5 -92q-2 -10 -3 -19.5t-1 -18.5
q0 -41 20.5 -66.5t58.5 -25.5q37 0 64.5 16.5t39.5 52.5h90zM762 361q4 19 6 36.5t2 34.5q0 52 -17 94t-47 72t-72 46t-92 16q-59 0 -115.5 -22t-103.5 -61.5t-81 -94.5t-48 -121q-5 -20 -6.5 -38.5t-1.5 -35.5q0 -51 16.5 -92.5t46.5 -71t71.5 -45.5t92.5 -16
q58 0 114.5 22t103.5 61.5t81.5 94.5t49.5 121zM397 -10q-65 0 -122 19t-99 55.5t-66 89t-24 120.5q0 43 10 87q19 87 65.5 156t109.5 117t137.5 73t149.5 25q65 0 122 -19t99 -55.5t66.5 -89.5t24.5 -121q0 -43 -10 -86q-19 -87 -65.5 -156t-110 -117t-138 -73t-149.5 -25z
" />
    <glyph glyph-name="ordfeminine" unicode="&#xaa;" horiz-adv-x="300" 
d="M315 563q-19 -3 -38 -7.5t-35 -11t-27.5 -17.5t-14.5 -27q-1 -3 -1 -9q0 -19 28 -19q20 0 41.5 7t32.5 17zM292 414l1 28q-24 -16 -50 -25t-58 -9q-39 0 -57 19t-18 45v9q0 5 2 10q11 54 64 82.5t150 39.5l5 23q1 3 1 9q0 23 -38 23q-29 0 -47.5 -8t-32.5 -22l-44 37
q10 12 25.5 22.5t34 18t38 12t37.5 4.5h3q56 -2 82.5 -18.5t26.5 -60.5q0 -20 -6 -47l-32 -147q-4 -15 -4 -31q0 -9 1 -14h-84z" />
    <glyph glyph-name="guillemotleft" unicode="&#xab;" horiz-adv-x="556" 
d="M474 420h112l-158 -163l89 -157h-112l-86 157zM270 420h112l-158 -163l89 -157h-112l-86 157z" />
    <glyph glyph-name="logicalnot" unicode="&#xac;" horiz-adv-x="600" 
d="M520 316h-412l23 108h520l-71 -328h-108z" />
    <glyph glyph-name="registered" unicode="&#xae;" horiz-adv-x="800" 
d="M422 397h77q36 0 54.5 15.5t23.5 38.5q1 4 1 12q0 20 -16.5 27t-44.5 7h-73zM371 158h-88l88 407h153q69 0 106 -19.5t37 -68.5q0 -18 -4 -35q-12 -57 -47 -81t-88 -27l68 -176h-89l-58 171h-41zM762 361q4 19 6 36.5t2 34.5q0 52 -17 94t-47 72t-72 46t-92 16
q-59 0 -115.5 -22t-103.5 -61.5t-81 -94.5t-48 -121q-5 -20 -6.5 -38.5t-1.5 -35.5q0 -51 16.5 -92.5t46.5 -71t71.5 -45.5t92.5 -16q58 0 114.5 22t103.5 61.5t81.5 94.5t49.5 121zM397 -10q-65 0 -122 19t-99 55.5t-66 89t-24 120.5q0 43 10 87q19 87 65.5 156t109.5 117
t137.5 73t149.5 25q65 0 122 -19t99 -55.5t66.5 -89.5t24.5 -121q0 -43 -10 -86q-19 -87 -65.5 -156t-110 -117t-138 -73t-149.5 -25z" />
    <glyph glyph-name="macron" unicode="&#xaf;" horiz-adv-x="278" 
d="M99 618l16 74h346l-16 -74h-346z" />
    <glyph glyph-name="macron" unicode="&#x2c9;" horiz-adv-x="278" 
d="M99 618l16 74h346l-16 -74h-346z" />
    <glyph glyph-name="degree" unicode="&#xb0;" horiz-adv-x="400" 
d="M248 589q-1 -5 -1.5 -9t-0.5 -9q0 -27 17 -46t46 -19q16 0 32 7t29 18t22.5 26t13.5 32q1 5 1.5 9t0.5 9q0 27 -17 46t-46 19q-17 0 -32.5 -7t-28.5 -18t-22.5 -26.5t-13.5 -31.5zM296 446q-52 0 -83.5 31.5t-31.5 80.5q0 14 3 31q6 30 23 56t40.5 45.5t52 30.5t58.5 11
q52 0 83.5 -31.5t31.5 -80.5q0 -15 -3 -31q-6 -30 -23 -56t-40.5 -45.5t-52 -30.5t-58.5 -11z" />
    <glyph glyph-name="plusminus" unicode="&#xb1;" horiz-adv-x="600" 
d="M63 108h520l-23 -108h-520zM358 520h108l-29 -132h206l-23 -108h-206l-29 -133h-108l29 133h-206l23 108h206z" />
    <glyph glyph-name="twosuperior" unicode="&#xb2;" horiz-adv-x="366" 
d="M83 292l15 72q7 17 29.5 36t52.5 39.5t63 41.5t61.5 41.5t49 40.5t24.5 38q1 5 1.5 8.5t0.5 7.5q0 43 -56 43q-35 0 -60 -19t-39 -48l-72 15q10 27 28.5 49.5t43.5 39t54.5 26t61.5 9.5q55 0 92 -25.5t37 -73.5q0 -13 -3 -26q-9 -39 -33.5 -69t-60.5 -57t-81 -54.5
t-94 -62.5h216l-15 -72h-316z" />
    <glyph glyph-name="threesuperior" unicode="&#xb3;" horiz-adv-x="366" 
d="M240 556q25 0 47.5 2t40 8t29 17t15.5 28q1 3 1 10q0 17 -14 27.5t-40 11.5q-30 -1 -54 -13.5t-45 -29.5l-46 48q43 38 81 52.5t83 14.5q57 0 92 -22t35 -65q0 -11 -3 -24q-8 -33 -31 -56.5t-59 -36.5l-1 -2q33 -9 49.5 -30.5t16.5 -51.5q0 -14 -3 -27
q-8 -34 -27.5 -58.5t-46.5 -40.5t-58.5 -24t-62.5 -8q-50 0 -90.5 22.5t-55.5 68.5l76 35q11 -26 32 -40t55 -14q31 0 57.5 16.5t33.5 48.5q2 10 2 14q0 19 -12 29.5t-30.5 16t-40 6.5t-40.5 1z" />
    <glyph glyph-name="acute" unicode="&#xb4;" horiz-adv-x="278" 
d="M464 732l-178 -146h-102l126 146h154z" />
    <glyph glyph-name="mu" unicode="&#xb5;" horiz-adv-x="556" 
d="M604 520l-112 -520h-114l12 56q-40 -24 -84.5 -45t-90.5 -21q-8 0 -15 0.5t-14 1.5l-40 -182h-124l154 710h124l-73 -338q-3 -13 -4 -23.5t-1 -19.5q0 -28 12.5 -38.5t36.5 -10.5q41 0 74.5 18.5t53.5 36.5l81 375h124z" />
    <glyph glyph-name="mu" unicode="&#x3bc;" horiz-adv-x="556" 
d="M604 520l-112 -520h-114l12 56q-40 -24 -84.5 -45t-90.5 -21q-8 0 -15 0.5t-14 1.5l-40 -182h-124l154 710h124l-73 -338q-3 -13 -4 -23.5t-1 -19.5q0 -28 12.5 -38.5t36.5 -10.5q41 0 74.5 18.5t53.5 36.5l81 375h124z" />
    <glyph glyph-name="paragraph" unicode="&#xb6;" horiz-adv-x="620" 
d="M299 369q-77 0 -121 34.5t-44 97.5q0 18 5 41q12 53 37.5 88t59.5 55.5t73.5 28.5t78.5 8h354l-18 -84h-73l-153 -706h-102l153 706h-89l-153 -706h-102z" />
    <glyph glyph-name="periodcentered" unicode="&#xb7;" horiz-adv-x="305" 
d="M284 260q-4 -16 -13 -30t-22 -24t-28.5 -16t-31.5 -6q-27 0 -43 16.5t-16 42.5q0 5 0.5 8.5t1.5 8.5q7 31 33 53.5t57 22.5q28 0 46 -17.5t18 -43.5q0 -5 -2 -15z" />
    <glyph glyph-name="periodcentered" unicode="&#x2219;" horiz-adv-x="305" 
d="M284 260q-4 -16 -13 -30t-22 -24t-28.5 -16t-31.5 -6q-27 0 -43 16.5t-16 42.5q0 5 0.5 8.5t1.5 8.5q7 31 33 53.5t57 22.5q28 0 46 -17.5t18 -43.5q0 -5 -2 -15z" />
    <glyph glyph-name="cedilla" unicode="&#xb8;" horiz-adv-x="278" 
d="M4 -161q11 -5 32 -10.5t42 -5.5q25 0 40.5 8t20.5 34q1 3 1 9q0 14 -11.5 18t-25.5 4q-11 0 -23 -2t-20 -4l-16 20l79 90h53l-57 -63q10 2 19 3.5t18 1.5q29 0 51 -13.5t22 -43.5v-9q0 -5 -2 -10q-5 -25 -20.5 -43t-36.5 -29.5t-45 -17t-45 -5.5q-29 0 -54 7.5t-48 18.5z
" />
    <glyph glyph-name="onesuperior" unicode="&#xb9;" horiz-adv-x="366" 
d="M138 292l14 66h67l62 288h-77l12 56q32 2 60.5 9t48.5 21h67l-81 -374h70l-14 -66h-229z" />
    <glyph glyph-name="ordmasculine" unicode="&#xba;" horiz-adv-x="300" 
d="M333 570q3 13 4 24t1 21q0 53 -44 53q-62 0 -82 -98q-6 -26 -6 -45q0 -53 46 -53q59 0 81 98zM126 570q16 75 64.5 118.5t117.5 43.5q57 0 86.5 -30t29.5 -84q0 -11 -1 -23t-4 -25q-17 -75 -64.5 -118.5t-116.5 -43.5q-57 0 -87.5 29.5t-30.5 83.5q0 23 6 49z" />
    <glyph glyph-name="guillemotright" unicode="&#xbb;" horiz-adv-x="556" 
d="M193 100h-112l158 163l-89 157h112l86 -157zM397 100h-112l158 163l-89 157h112l86 -157z" />
    <glyph glyph-name="onequarter" unicode="&#xbc;" horiz-adv-x="916" 
d="M807 342h-2l-164 -176h127zM148 292l14 66h67l62 288h-77l12 56q32 2 60.5 9t48.5 21h67l-81 -374h70l-14 -66h-229zM782 732h88l-573 -742h-89zM569 184l246 250h103l-58 -268h63l-14 -66h-63l-21 -100h-92l21 100h-203z" />
    <glyph glyph-name="onehalf" unicode="&#xbd;" horiz-adv-x="916" 
d="M148 292l14 66h67l62 288h-77l12 56q32 2 60.5 9t48.5 21h67l-81 -374h70l-14 -66h-229zM766 732h88l-573 -742h-89zM532 0l15 72q7 17 29.5 36t52.5 39.5t63 41.5t61.5 41.5t48.5 40.5t24 38q1 5 1.5 9t0.5 8q0 42 -55 42q-35 0 -60 -19t-39 -48l-72 15q9 27 28 49.5
t44 39t54.5 26t61.5 9.5q55 0 92 -25.5t37 -73.5q0 -13 -3 -26q-9 -39 -33.5 -69t-60.5 -57t-81 -54.5t-94 -62.5h216l-15 -72h-316z" />
    <glyph glyph-name="threequarters" unicode="&#xbe;" horiz-adv-x="916" 
d="M807 342h-2l-164 -176h127zM796 732h88l-573 -742h-89zM256 556q25 0 47.5 2t40 8t29 17t15.5 28q1 3 1 10q0 17 -14 27.5t-40 11.5q-30 -1 -54 -13.5t-45 -29.5l-46 48q43 38 81 52.5t83 14.5q57 0 92 -22t35 -65q0 -11 -3 -24q-8 -33 -31 -56.5t-59 -36.5l-1 -2
q33 -9 49.5 -30.5t16.5 -51.5q0 -14 -3 -27q-8 -34 -27.5 -58.5t-46.5 -40.5t-58.5 -24t-62.5 -8q-50 0 -90.5 22.5t-55.5 68.5l76 35q11 -26 32 -40t55 -14q31 0 57.5 16.5t33.5 48.5q2 10 2 14q0 19 -12 29.5t-30.5 16t-40 6.5t-40.5 1zM569 184l246 250h103l-58 -268h63
l-14 -66h-63l-21 -100h-92l21 100h-203z" />
    <glyph glyph-name="questiondown" unicode="&#xbf;" horiz-adv-x="444" 
d="M430 542l-31 -142h-138l31 142h138zM365 299l-12 -55q-9 -43 -37 -80t-59 -71q-32 -34 -58.5 -65.5t-33.5 -63.5q-1 -3 -1 -10q0 -19 15 -31.5t37 -12.5q18 0 34 8t29 20.5t23 28t16 31.5l108 -32q-35 -75 -97 -115.5t-143 -40.5q-32 0 -59.5 8t-47.5 23t-31.5 38
t-11.5 53q0 9 1 18.5t3 19.5q11 50 41 85.5t64 67.5t63.5 64.5t38.5 74.5l8 37h110z" />
    <glyph glyph-name="Agrave" unicode="&#xc0;" 
d="M489 908l62 -146h-102l-114 146h154zM281 270h168l-13 314h-2zM377 723h172l49 -723h-137l-7 156h-228l-76 -156h-137z" />
    <glyph glyph-name="Aacute" unicode="&#xc1;" 
d="M669 908l-178 -146h-102l126 146h154zM281 270h168l-13 314h-2zM377 723h172l49 -723h-137l-7 156h-228l-76 -156h-137z" />
    <glyph glyph-name="Acircumflex" unicode="&#xc2;" 
d="M281 270h168l-13 314h-2zM563 908l83 -146h-113l-45 82l-82 -82h-112l145 146h124zM377 723h172l49 -723h-137l-7 156h-228l-76 -156h-137z" />
    <glyph glyph-name="Atilde" unicode="&#xc3;" 
d="M281 270h168l-13 314h-2zM683 898q-10 -23 -23 -45t-29.5 -39t-37.5 -27.5t-48 -10.5q-19 0 -37.5 5.5t-36 12t-34 12t-31.5 5.5q-20 0 -32.5 -12t-22.5 -29h-62q9 23 22 45t31 39t40 27.5t48 10.5q20 0 39 -6t35.5 -12.5t31 -12.5t26.5 -6q18 0 33 13t23 30h65zM377 723
h172l49 -723h-137l-7 156h-228l-76 -156h-137z" />
    <glyph glyph-name="Adieresis" unicode="&#xc4;" 
d="M653 888l-25 -116h-120l25 116h120zM463 888l-25 -116h-120l25 116h120zM281 270h168l-13 314h-2zM377 723h172l49 -723h-137l-7 156h-228l-76 -156h-137z" />
    <glyph glyph-name="Aring" unicode="&#xc5;" 
d="M440 869q-1 -4 -1 -12q0 -18 11.5 -30t31.5 -12q23 0 42 15.5t24 38.5q1 4 1 11q0 19 -12 31t-32 12q-23 0 -41.5 -15.5t-23.5 -38.5zM281 270h168l-13 314h-2zM386 869q5 22 17.5 42t30.5 34.5t39 23t44 8.5q39 0 63.5 -24t24.5 -61q0 -11 -3 -23q-5 -23 -17.5 -42.5
t-30.5 -34t-40 -23t-44 -8.5q-39 0 -63 23.5t-24 60.5q0 12 3 24zM377 723h172l49 -723h-137l-7 156h-228l-76 -156h-137z" />
    <glyph glyph-name="AE" unicode="&#xc6;" horiz-adv-x="944" 
d="M515 285l73 337h-2l-234 -337h163zM7 0l519 722h525l-25 -116h-303l-38 -172h210l-25 -116h-210l-43 -202h314l-25 -116h-452l36 169h-220l-116 -169h-147z" />
    <glyph glyph-name="Ccedilla" unicode="&#xc7;" 
d="M180 -161q11 -5 32 -10.5t42 -5.5q25 0 40.5 8t20.5 34q1 3 1 9q0 14 -11.5 18t-25.5 4q-11 0 -23 -2t-20 -4l-16 20l71 81q-98 7 -148.5 68t-50.5 170q0 62 16 132q19 88 53.5 157.5t81.5 116.5t106.5 72t128.5 25q104 0 155 -46.5t56 -143.5l-132 -30q-5 46 -31 75
t-77 29q-69 0 -122.5 -63.5t-80.5 -191.5q-16 -68 -16 -121q0 -134 112 -134q23 0 43.5 5t40 17t39 32.5t42.5 52.5l120 -34q-49 -88 -121 -135t-163 -53l-48 -54q10 2 19 3.5t18 1.5q29 0 51 -13.5t22 -43.5v-9q0 -5 -2 -10q-5 -25 -20.5 -43t-36.5 -29.5t-45 -17t-45 -5.5
q-29 0 -54 7.5t-49 18.5z" />
    <glyph glyph-name="Egrave" unicode="&#xc8;" 
d="M508 908l62 -146h-102l-114 146h154zM84 0l156 722h478l-25 -116h-340l-38 -172h247l-25 -116h-247l-43 -202h351l-25 -116h-489z" />
    <glyph glyph-name="Eacute" unicode="&#xc9;" 
d="M688 908l-178 -146h-102l126 146h154zM84 0l156 722h478l-25 -116h-340l-38 -172h247l-25 -116h-247l-43 -202h351l-25 -116h-489z" />
    <glyph glyph-name="Ecircumflex" unicode="&#xca;" 
d="M582 908l83 -146h-113l-45 82l-82 -82h-112l145 146h124zM84 0l156 722h478l-25 -116h-340l-38 -172h247l-25 -116h-247l-43 -202h351l-25 -116h-489z" />
    <glyph glyph-name="Edieresis" unicode="&#xcb;" 
d="M482 888l-25 -116h-120l25 116h120zM672 888l-25 -116h-120l25 116h120zM84 0l156 722h478l-25 -116h-340l-38 -172h247l-25 -116h-247l-43 -202h351l-25 -116h-489z" />
    <glyph glyph-name="Igrave" unicode="&#xcc;" horiz-adv-x="333" 
d="M347 908l62 -146h-102l-114 146h154zM97 0l156 722h138l-156 -722h-138z" />
    <glyph glyph-name="Iacute" unicode="&#xcd;" horiz-adv-x="333" 
d="M527 908l-178 -146h-102l126 146h154zM97 0l156 722h138l-156 -722h-138z" />
    <glyph glyph-name="Icircumflex" unicode="&#xce;" horiz-adv-x="333" 
d="M421 908l83 -146h-113l-45 82l-82 -82h-112l145 146h124zM97 0l156 722h138l-156 -722h-138z" />
    <glyph glyph-name="Idieresis" unicode="&#xcf;" horiz-adv-x="333" 
d="M321 888l-25 -116h-120l25 116h120zM511 888l-25 -116h-120l25 116h120zM97 0l156 722h138l-156 -722h-138z" />
    <glyph glyph-name="Eth" unicode="&#xd0;" horiz-adv-x="667" 
d="M309 434h149l-26 -124h-149l-42 -194h92q59 0 101.5 20t71.5 54t46.5 78.5t28.5 92.5q5 26 8.5 49.5t3.5 46.5q0 32 -7.5 59t-25.5 47t-47.5 31.5t-73.5 11.5h-92zM145 310h-67l26 124h67l63 288h239q59 0 107 -14t82 -43.5t52.5 -75.5t18.5 -109q0 -51 -14 -119
q-21 -96 -60 -164t-91 -112t-115.5 -64.5t-135.5 -20.5h-239z" />
    <glyph glyph-name="Ntilde" unicode="&#xd1;" horiz-adv-x="722" 
d="M738 898q-10 -23 -23 -45t-29.5 -39t-37.5 -27.5t-48 -10.5q-19 0 -37.5 5.5t-36 12t-34 12t-31.5 5.5q-20 0 -32.5 -12t-22.5 -29h-62q9 23 22 45t31 39t40 27.5t48 10.5q20 0 39 -6t35.5 -12.5t31 -12.5t26.5 -6q18 0 33 13t23 30h65zM81 0l156 722h144l177 -492h2
l107 492h130l-156 -722h-133l-184 514h-2l-111 -514h-130z" />
    <glyph glyph-name="Ograve" unicode="&#xd2;" horiz-adv-x="667" 
d="M517 908l62 -146h-102l-114 146h154zM576 361q14 67 14 113q0 142 -124 142q-85 0 -139 -63.5t-81 -191.5q-15 -68 -15 -116q0 -139 124 -139q85 0 139 63.5t82 191.5zM714 361q-38 -178 -136.5 -274.5t-247.5 -96.5q-118 0 -177.5 62t-59.5 179q0 58 15 130
q38 178 136 274.5t247 96.5q119 0 178.5 -62.5t59.5 -179.5q0 -59 -15 -129z" />
    <glyph glyph-name="Oacute" unicode="&#xd3;" horiz-adv-x="667" 
d="M697 908l-178 -146h-102l126 146h154zM576 361q14 67 14 113q0 142 -124 142q-85 0 -139 -63.5t-81 -191.5q-15 -68 -15 -116q0 -139 124 -139q85 0 139 63.5t82 191.5zM714 361q-38 -178 -136.5 -274.5t-247.5 -96.5q-118 0 -177.5 62t-59.5 179q0 58 15 130
q38 178 136 274.5t247 96.5q119 0 178.5 -62.5t59.5 -179.5q0 -59 -15 -129z" />
    <glyph glyph-name="Ocircumflex" unicode="&#xd4;" horiz-adv-x="667" 
d="M591 908l83 -146h-113l-45 82l-82 -82h-112l145 146h124zM576 361q14 67 14 113q0 142 -124 142q-85 0 -139 -63.5t-81 -191.5q-15 -68 -15 -116q0 -139 124 -139q85 0 139 63.5t82 191.5zM714 361q-38 -178 -136.5 -274.5t-247.5 -96.5q-118 0 -177.5 62t-59.5 179
q0 58 15 130q38 178 136 274.5t247 96.5q119 0 178.5 -62.5t59.5 -179.5q0 -59 -15 -129z" />
    <glyph glyph-name="Otilde" unicode="&#xd5;" horiz-adv-x="667" 
d="M711 898q-10 -23 -23 -45t-29.5 -39t-37.5 -27.5t-48 -10.5q-19 0 -37.5 5.5t-36 12t-34 12t-31.5 5.5q-20 0 -32.5 -12t-22.5 -29h-62q9 23 22 45t31 39t40 27.5t48 10.5q20 0 39 -6t35.5 -12.5t31 -12.5t26.5 -6q18 0 33 13t23 30h65zM576 361q14 67 14 113
q0 142 -124 142q-85 0 -139 -63.5t-81 -191.5q-15 -68 -15 -116q0 -139 124 -139q85 0 139 63.5t82 191.5zM714 361q-38 -178 -136.5 -274.5t-247.5 -96.5q-118 0 -177.5 62t-59.5 179q0 58 15 130q38 178 136 274.5t247 96.5q119 0 178.5 -62.5t59.5 -179.5q0 -59 -15 -129
z" />
    <glyph glyph-name="Odieresis" unicode="&#xd6;" horiz-adv-x="667" 
d="M681 888l-25 -116h-120l25 116h120zM491 888l-25 -116h-120l25 116h120zM576 361q14 67 14 113q0 142 -124 142q-85 0 -139 -63.5t-81 -191.5q-15 -68 -15 -116q0 -139 124 -139q85 0 139 63.5t82 191.5zM714 361q-38 -178 -136.5 -274.5t-247.5 -96.5q-118 0 -177.5 62
t-59.5 179q0 58 15 130q38 178 136 274.5t247 96.5q119 0 178.5 -62.5t59.5 -179.5q0 -59 -15 -129z" />
    <glyph glyph-name="multiply" unicode="&#xd7;" horiz-adv-x="600" 
d="M117 0l-61 78l223 183l-143 183l93 76l144 -182l222 182l61 -76l-223 -183l143 -183l-93 -78l-144 184z" />
    <glyph glyph-name="Oslash" unicode="&#xd8;" horiz-adv-x="667" 
d="M552 588q-31 28 -86 28q-85 0 -139 -63.5t-81 -191.5q-8 -34 -12 -63t-4 -53v-10q0 -4 1 -9zM267 136q31 -30 88 -30q85 0 139 63.5t82 191.5q13 61 13 109v15t-1 14zM700 626q29 -56 29 -137q0 -58 -15 -128q-38 -178 -136.5 -274.5t-247.5 -96.5q-99 0 -154 43l-88 -99
h-113l145 165q-27 54 -27 132q0 58 15 130q38 178 136 274.5t247 96.5q95 0 152 -42l62 72h115z" />
    <glyph glyph-name="Ugrave" unicode="&#xd9;" horiz-adv-x="722" 
d="M541 908l62 -146h-102l-114 146h154zM656 722h138l-98 -452q-17 -79 -51.5 -132.5t-79.5 -86.5t-98.5 -47t-108.5 -14q-47 0 -88 10t-72 32.5t-48.5 59.5t-17.5 91q0 41 10 87l98 452h138l-99 -458q-8 -38 -8 -64q0 -52 28 -73t84 -21q70 0 112 35t62 123z" />
    <glyph glyph-name="Uacute" unicode="&#xda;" horiz-adv-x="722" 
d="M721 908l-178 -146h-102l126 146h154zM656 722h138l-98 -452q-17 -79 -51.5 -132.5t-79.5 -86.5t-98.5 -47t-108.5 -14q-47 0 -88 10t-72 32.5t-48.5 59.5t-17.5 91q0 41 10 87l98 452h138l-99 -458q-8 -38 -8 -64q0 -52 28 -73t84 -21q70 0 112 35t62 123z" />
    <glyph glyph-name="Ucircumflex" unicode="&#xdb;" horiz-adv-x="722" 
d="M615 908l83 -146h-113l-45 82l-82 -82h-112l145 146h124zM656 722h138l-98 -452q-17 -79 -51.5 -132.5t-79.5 -86.5t-98.5 -47t-108.5 -14q-47 0 -88 10t-72 32.5t-48.5 59.5t-17.5 91q0 41 10 87l98 452h138l-99 -458q-8 -38 -8 -64q0 -52 28 -73t84 -21q70 0 112 35
t62 123z" />
    <glyph glyph-name="Udieresis" unicode="&#xdc;" horiz-adv-x="722" 
d="M515 888l-25 -116h-120l25 116h120zM705 888l-25 -116h-120l25 116h120zM656 722h138l-98 -452q-17 -79 -51.5 -132.5t-79.5 -86.5t-98.5 -47t-108.5 -14q-47 0 -88 10t-72 32.5t-48.5 59.5t-17.5 91q0 41 10 87l98 452h138l-99 -458q-8 -38 -8 -64q0 -52 28 -73t84 -21
q70 0 112 35t62 123z" />
    <glyph glyph-name="Yacute" unicode="&#xdd;" horiz-adv-x="556" 
d="M641 908l-178 -146h-102l126 146h154zM372 436l186 286h144l-293 -434l-62 -288h-138l62 288l-105 434h144z" />
    <glyph glyph-name="Thorn" unicode="&#xde;" 
d="M264 271h110q39 0 66.5 7t45.5 20.5t28 32.5t15 43q4 16 4 32q0 34 -25 52.5t-89 18.5h-110zM68 0l156 722h138l-29 -133h126q101 0 158 -37t57 -118q0 -29 -7 -60q-12 -56 -38.5 -97t-65.5 -67t-89 -38.5t-108 -12.5h-126l-34 -159h-138z" />
    <glyph glyph-name="germandbls" unicode="&#xdf;" horiz-adv-x="500" 
d="M53 0l119 550q8 37 26 68.5t46.5 54.5t66.5 36t85 13q84 0 123.5 -34t39.5 -94q0 -11 -1 -23t-4 -25q-11 -53 -34.5 -89t-73.5 -59l-1 -2q39 -12 62 -43.5t23 -86.5q0 -28 -8 -68q-13 -59 -34.5 -99t-50 -64t-64 -34.5t-75.5 -10.5q-8 0 -18.5 2t-21 5t-20 7.5t-15.5 9.5
l49 88q8 -5 19.5 -8.5t22.5 -3.5q60 0 86 114q4 16 5.5 30.5t1.5 27.5q0 33 -15 53.5t-54 20.5h-26l22 100h16q27 0 48 21.5t31 67.5q4 19 4 37q0 60 -57 60q-65 0 -81 -76l-118 -546h-124z" />
    <glyph glyph-name="agrave" unicode="&#xe0;" horiz-adv-x="500" 
d="M395 732l62 -146h-102l-114 146h154zM369 249q-32 -6 -64.5 -13t-60 -18.5t-47 -29.5t-25.5 -45q-1 -5 -1.5 -8.5t-0.5 -7.5q0 -22 13 -33.5t36 -11.5q15 0 32 5.5t34 13.5t32.5 18t27.5 18zM329 0l1 45q-43 -26 -84 -40.5t-90 -14.5q-59 0 -87 30.5t-28 74.5q0 8 1 16.5
t3 16.5q20 89 103 137.5t239 66.5l10 44q2 10 2 14q0 23 -18 35.5t-47 12.5q-44 0 -74 -19.5t-54 -44.5l-66 61q16 20 40.5 37.5t52.5 30t58 20t58 7.5h5q84 -2 124.5 -30.5t40.5 -97.5q0 -36 -10 -82l-53 -245q-3 -14 -5.5 -27.5t-2.5 -27.5q0 -5 0.5 -10t1.5 -10h-121z
" />
    <glyph glyph-name="aacute" unicode="&#xe1;" horiz-adv-x="500" 
d="M575 732l-178 -146h-102l126 146h154zM369 249q-32 -6 -64.5 -13t-60 -18.5t-47 -29.5t-25.5 -45q-1 -5 -1.5 -8.5t-0.5 -7.5q0 -22 13 -33.5t36 -11.5q15 0 32 5.5t34 13.5t32.5 18t27.5 18zM329 0l1 45q-43 -26 -84 -40.5t-90 -14.5q-59 0 -87 30.5t-28 74.5
q0 8 1 16.5t3 16.5q20 89 103 137.5t239 66.5l10 44q2 10 2 14q0 23 -18 35.5t-47 12.5q-44 0 -74 -19.5t-54 -44.5l-66 61q16 20 40.5 37.5t52.5 30t58 20t58 7.5h5q84 -2 124.5 -30.5t40.5 -97.5q0 -36 -10 -82l-53 -245q-3 -14 -5.5 -27.5t-2.5 -27.5q0 -5 0.5 -10
t1.5 -10h-121z" />
    <glyph glyph-name="acircumflex" unicode="&#xe2;" horiz-adv-x="500" 
d="M369 249q-32 -6 -64.5 -13t-60 -18.5t-47 -29.5t-25.5 -45q-1 -5 -1.5 -8.5t-0.5 -7.5q0 -22 13 -33.5t36 -11.5q15 0 32 5.5t34 13.5t32.5 18t27.5 18zM469 732l83 -146h-113l-45 82l-82 -82h-112l145 146h124zM329 0l1 45q-43 -26 -84 -40.5t-90 -14.5q-59 0 -87 30.5
t-28 74.5q0 8 1 16.5t3 16.5q20 89 103 137.5t239 66.5l10 44q2 10 2 14q0 23 -18 35.5t-47 12.5q-44 0 -74 -19.5t-54 -44.5l-66 61q16 20 40.5 37.5t52.5 30t58 20t58 7.5h5q84 -2 124.5 -30.5t40.5 -97.5q0 -36 -10 -82l-53 -245q-3 -14 -5.5 -27.5t-2.5 -27.5
q0 -5 0.5 -10t1.5 -10h-121z" />
    <glyph glyph-name="atilde" unicode="&#xe3;" horiz-adv-x="500" 
d="M369 249q-32 -6 -64.5 -13t-60 -18.5t-47 -29.5t-25.5 -45q-1 -5 -1.5 -8.5t-0.5 -7.5q0 -22 13 -33.5t36 -11.5q15 0 32 5.5t34 13.5t32.5 18t27.5 18zM589 722q-10 -23 -23 -45t-29.5 -39t-37.5 -27.5t-48 -10.5q-19 0 -37.5 5.5t-36 12t-34 12t-31.5 5.5
q-20 0 -32.5 -12t-22.5 -29h-62q8 23 21.5 45t31 39t39.5 27.5t48 10.5q20 0 39 -6t35.5 -12.5t31 -12.5t26.5 -6q18 0 33.5 13t23.5 30h65zM329 0l1 45q-43 -26 -84 -40.5t-90 -14.5q-59 0 -87 30.5t-28 74.5q0 8 1 16.5t3 16.5q20 89 103 137.5t239 66.5l10 44q2 10 2 14
q0 23 -18 35.5t-47 12.5q-44 0 -74 -19.5t-54 -44.5l-66 61q16 20 40.5 37.5t52.5 30t58 20t58 7.5h5q84 -2 124.5 -30.5t40.5 -97.5q0 -36 -10 -82l-53 -245q-3 -14 -5.5 -27.5t-2.5 -27.5q0 -5 0.5 -10t1.5 -10h-121z" />
    <glyph glyph-name="adieresis" unicode="&#xe4;" horiz-adv-x="500" 
d="M559 712l-26 -116h-120l26 116h120zM369 712l-26 -116h-120l26 116h120zM369 249q-32 -6 -64.5 -13t-60 -18.5t-47 -29.5t-25.5 -45q-1 -5 -1.5 -8.5t-0.5 -7.5q0 -22 13 -33.5t36 -11.5q15 0 32 5.5t34 13.5t32.5 18t27.5 18zM329 0l1 45q-43 -26 -84 -40.5t-90 -14.5
q-59 0 -87 30.5t-28 74.5q0 8 1 16.5t3 16.5q20 89 103 137.5t239 66.5l10 44q2 10 2 14q0 23 -18 35.5t-47 12.5q-44 0 -74 -19.5t-54 -44.5l-66 61q16 20 40.5 37.5t52.5 30t58 20t58 7.5h5q84 -2 124.5 -30.5t40.5 -97.5q0 -36 -10 -82l-53 -245q-3 -14 -5.5 -27.5
t-2.5 -27.5q0 -5 0.5 -10t1.5 -10h-121z" />
    <glyph glyph-name="aring" unicode="&#xe5;" horiz-adv-x="500" 
d="M345 693q-1 -4 -1 -11q0 -19 12 -31t32 -12q23 0 41.5 15.5t23.5 38.5q1 4 1 12q0 18 -11.5 30t-31.5 12q-23 0 -42 -15.5t-24 -38.5zM369 249q-32 -6 -64.5 -13t-60 -18.5t-47 -29.5t-25.5 -45q-1 -5 -1.5 -8.5t-0.5 -7.5q0 -22 13 -33.5t36 -11.5q15 0 32 5.5t34 13.5
t32.5 18t27.5 18zM291 693q5 22 17.5 42t30.5 34.5t39.5 23t44.5 8.5q39 0 63 -23.5t24 -60.5q0 -12 -3 -24q-5 -23 -17.5 -42.5t-30 -34t-39.5 -23t-44 -8.5q-39 0 -63 24.5t-24 61.5v10q0 6 2 12zM329 0l1 45q-43 -26 -84 -40.5t-90 -14.5q-59 0 -87 30.5t-28 74.5
q0 8 1 16.5t3 16.5q20 89 103 137.5t239 66.5l10 44q2 10 2 14q0 23 -18 35.5t-47 12.5q-44 0 -74 -19.5t-54 -44.5l-66 61q16 20 40.5 37.5t52.5 30t58 20t58 7.5h5q84 -2 124.5 -30.5t40.5 -97.5q0 -36 -10 -82l-53 -245q-3 -14 -5.5 -27.5t-2.5 -27.5q0 -5 0.5 -10
t1.5 -10h-121z" />
    <glyph glyph-name="ae" unicode="&#xe6;" horiz-adv-x="778" 
d="M706 324q3 16 3 32q0 39 -20.5 60.5t-58.5 21.5q-47 0 -80 -30t-46 -84h202zM373 249q-34 -6 -67.5 -13t-61 -18.5t-47 -29.5t-25.5 -45q-1 -5 -1.5 -8.5t-0.5 -7.5q0 -22 13 -33.5t36 -11.5q15 0 32 5.5t34.5 13.5t34 18t29.5 18zM485 240l-11 -52q-2 -6 -2 -12v-10
q0 -35 23.5 -55.5t65.5 -20.5q22 0 40 4.5t33.5 13t29.5 19.5t28 25l78 -56q-48 -56 -107 -81t-134 -25q-21 0 -42.5 3.5t-41 13t-35.5 25t-26 39.5q-43 -27 -76 -43t-60 -24.5t-49 -11t-43 -2.5q-59 0 -87 30.5t-28 74.5q0 8 1 16.5t3 16.5q20 89 103.5 137.5t242.5 66.5
l10 44q1 4 1.5 7t0.5 6q0 24 -20 36.5t-49 12.5q-44 0 -74 -19.5t-54 -44.5l-66 61q16 20 40.5 37.5t52.5 30t58 20t58 7.5h5q58 -2 90.5 -16t48.5 -40q65 56 153 56h2q43 0 75.5 -14t53.5 -38t31.5 -56t10.5 -68q0 -32 -7 -63l-11 -51h-316z" />
    <glyph glyph-name="ccedilla" unicode="&#xe7;" horiz-adv-x="500" 
d="M115 -161q11 -5 32 -10.5t42 -5.5q25 0 40.5 8t20.5 34q1 3 1 9q0 14 -11.5 18t-25.5 4q-11 0 -23 -2t-20 -4l-16 20l71 81q-76 6 -116 54t-40 129q0 20 2.5 41.5t7.5 44.5q13 62 39 112t63 85t83 54t99 19q74 0 120.5 -36.5t54.5 -102.5l-112 -40q-4 16 -9 30.5
t-14 25.5t-24 17t-37 6q-52 0 -86 -41t-53 -129q-5 -23 -7.5 -43t-2.5 -37q0 -90 79 -90q41 0 71.5 24t56.5 59l82 -53q-47 -63 -95.5 -93t-108.5 -35l-49 -55q10 2 19 3.5t18 1.5q29 0 51 -13.5t22 -43.5v-9q0 -5 -2 -10q-5 -25 -20.5 -43t-36.5 -29.5t-45 -17t-45 -5.5
q-29 0 -54 7.5t-49 18.5z" />
    <glyph glyph-name="egrave" unicode="&#xe8;" horiz-adv-x="500" 
d="M418 324q3 16 3 32q0 39 -20.5 60.5t-58.5 21.5q-45 0 -78 -30t-46 -84h200zM395 732l62 -146h-102l-114 146h154zM199 240q-6 -30 -6 -54q0 -51 23.5 -73.5t58.5 -22.5q44 0 72 17.5t57 44.5l78 -56q-48 -56 -107 -81t-134 -25q-83 0 -127 49t-44 135q0 42 10 86
q13 62 39 112t63 85t83 54t99 19h2q42 0 73 -13.5t51.5 -37.5t30.5 -56t10 -68q0 -33 -7 -64l-11 -51h-314z" />
    <glyph glyph-name="eacute" unicode="&#xe9;" horiz-adv-x="500" 
d="M418 324q3 16 3 32q0 39 -20.5 60.5t-58.5 21.5q-45 0 -78 -30t-46 -84h200zM575 732l-178 -146h-102l126 146h154zM199 240q-6 -30 -6 -54q0 -51 23.5 -73.5t58.5 -22.5q44 0 72 17.5t57 44.5l78 -56q-48 -56 -107 -81t-134 -25q-83 0 -127 49t-44 135q0 42 10 86
q13 62 39 112t63 85t83 54t99 19h2q42 0 73 -13.5t51.5 -37.5t30.5 -56t10 -68q0 -33 -7 -64l-11 -51h-314z" />
    <glyph glyph-name="ecircumflex" unicode="&#xea;" horiz-adv-x="500" 
d="M418 324q3 16 3 32q0 39 -20.5 60.5t-58.5 21.5q-45 0 -78 -30t-46 -84h200zM469 732l83 -146h-113l-45 82l-82 -82h-112l145 146h124zM199 240q-6 -30 -6 -54q0 -51 23.5 -73.5t58.5 -22.5q44 0 72 17.5t57 44.5l78 -56q-48 -56 -107 -81t-134 -25q-83 0 -127 49
t-44 135q0 42 10 86q13 62 39 112t63 85t83 54t99 19h2q42 0 73 -13.5t51.5 -37.5t30.5 -56t10 -68q0 -33 -7 -64l-11 -51h-314z" />
    <glyph glyph-name="edieresis" unicode="&#xeb;" horiz-adv-x="500" 
d="M559 712l-26 -116h-120l26 116h120zM369 712l-26 -116h-120l26 116h120zM418 324q3 16 3 32q0 39 -20.5 60.5t-58.5 21.5q-45 0 -78 -30t-46 -84h200zM199 240q-6 -30 -6 -54q0 -51 23.5 -73.5t58.5 -22.5q44 0 72 17.5t57 44.5l78 -56q-48 -56 -107 -81t-134 -25
q-83 0 -127 49t-44 135q0 42 10 86q13 62 39 112t63 85t83 54t99 19h2q42 0 73 -13.5t51.5 -37.5t30.5 -56t10 -68q0 -33 -7 -64l-11 -51h-314z" />
    <glyph glyph-name="igrave" unicode="&#xec;" horiz-adv-x="278" 
d="M286 732l62 -146h-102l-114 146h154zM201 0h-124l112 520h124z" />
    <glyph glyph-name="iacute" unicode="&#xed;" horiz-adv-x="278" 
d="M466 732l-178 -146h-102l126 146h154zM201 0h-124l112 520h124z" />
    <glyph glyph-name="icircumflex" unicode="&#xee;" horiz-adv-x="278" 
d="M360 732l83 -146h-113l-45 82l-82 -82h-112l145 146h124zM201 0h-124l112 520h124z" />
    <glyph glyph-name="idieresis" unicode="&#xef;" horiz-adv-x="278" 
d="M260 712l-26 -116h-120l26 116h120zM450 712l-26 -116h-120l26 116h120zM201 0h-124l112 520h124z" />
    <glyph glyph-name="eth" unicode="&#xf0;" horiz-adv-x="500" 
d="M269 90q52 0 85.5 39.5t49.5 114.5q5 19 6.5 36t1.5 31q0 87 -76 87q-52 0 -85.5 -39.5t-50.5 -114.5q-4 -19 -6 -35t-2 -30q0 -89 77 -89zM402 722q13 -11 23.5 -22.5t21.5 -25.5l111 48l22 -64l-97 -43q29 -54 43.5 -118.5t14.5 -131.5q0 -31 -3.5 -61.5t-9.5 -59.5
q-12 -56 -37.5 -102.5t-62 -80.5t-82.5 -52.5t-99 -18.5q-88 0 -133.5 49.5t-45.5 131.5q0 17 1.5 35t6.5 38q12 56 38 102.5t62 80.5t82 52.5t99 18.5q10 0 19.5 -1t21.5 -4q-4 20 -11 38.5t-15 35.5l-112 -49l-23 64l101 44q-11 17 -24.5 32.5t-27.5 29.5z" />
    <glyph glyph-name="ntilde" unicode="&#xf1;" horiz-adv-x="556" 
d="M612 722q-10 -23 -23 -45t-29.5 -39t-37.5 -27.5t-48 -10.5q-19 0 -37.5 5.5t-36 12t-34 12t-31.5 5.5q-20 0 -32.5 -12t-22.5 -29h-62q8 23 21.5 45t31 39t39.5 27.5t48 10.5q20 0 39 -6t35.5 -12.5t31 -12.5t26.5 -6q18 0 33.5 13t23.5 30h65zM64 0l112 520h114
l-12 -56q40 24 84 45t90 21q63 0 93 -31.5t30 -86.5q0 -26 -6 -56l-77 -356h-124l73 338q3 13 4 23.5t1 19.5q0 28 -12.5 38.5t-36.5 10.5q-41 0 -74.5 -18.5t-53.5 -36.5l-81 -375h-124z" />
    <glyph glyph-name="ograve" unicode="&#xf2;" horiz-adv-x="500" 
d="M392 732l62 -146h-102l-114 146h154zM408 260q5 23 7.5 43.5t2.5 37.5q0 89 -75 89q-52 0 -86 -41t-53 -129q-5 -23 -7.5 -43.5t-2.5 -37.5q0 -89 75 -89q52 0 86 41t53 129zM80 260q13 62 39 112t63 85t83 54t99 19q87 0 132.5 -49t45.5 -136q0 -20 -2.5 -41t-7.5 -44
q-14 -62 -40 -112t-63 -85t-83 -54t-99 -19q-87 0 -132 48.5t-45 135.5q0 20 2.5 41.5t7.5 44.5z" />
    <glyph glyph-name="oacute" unicode="&#xf3;" horiz-adv-x="500" 
d="M572 732l-178 -146h-102l126 146h154zM408 260q5 23 7.5 43.5t2.5 37.5q0 89 -75 89q-52 0 -86 -41t-53 -129q-5 -23 -7.5 -43.5t-2.5 -37.5q0 -89 75 -89q52 0 86 41t53 129zM80 260q13 62 39 112t63 85t83 54t99 19q87 0 132.5 -49t45.5 -136q0 -20 -2.5 -41t-7.5 -44
q-14 -62 -40 -112t-63 -85t-83 -54t-99 -19q-87 0 -132 48.5t-45 135.5q0 20 2.5 41.5t7.5 44.5z" />
    <glyph glyph-name="ocircumflex" unicode="&#xf4;" horiz-adv-x="500" 
d="M466 732l83 -146h-113l-45 82l-82 -82h-112l145 146h124zM408 260q5 23 7.5 43.5t2.5 37.5q0 89 -75 89q-52 0 -86 -41t-53 -129q-5 -23 -7.5 -43.5t-2.5 -37.5q0 -89 75 -89q52 0 86 41t53 129zM80 260q13 62 39 112t63 85t83 54t99 19q87 0 132.5 -49t45.5 -136
q0 -20 -2.5 -41t-7.5 -44q-14 -62 -40 -112t-63 -85t-83 -54t-99 -19q-87 0 -132 48.5t-45 135.5q0 20 2.5 41.5t7.5 44.5z" />
    <glyph glyph-name="otilde" unicode="&#xf5;" horiz-adv-x="500" 
d="M586 722q-10 -23 -23 -45t-29.5 -39t-37.5 -27.5t-48 -10.5q-19 0 -37.5 5.5t-36 12t-34 12t-31.5 5.5q-20 0 -32.5 -12t-22.5 -29h-62q8 23 21.5 45t31 39t39.5 27.5t48 10.5q20 0 39 -6t35.5 -12.5t31 -12.5t26.5 -6q18 0 33.5 13t23.5 30h65zM408 260q5 23 7.5 43.5
t2.5 37.5q0 89 -75 89q-52 0 -86 -41t-53 -129q-5 -23 -7.5 -43.5t-2.5 -37.5q0 -89 75 -89q52 0 86 41t53 129zM80 260q13 62 39 112t63 85t83 54t99 19q87 0 132.5 -49t45.5 -136q0 -20 -2.5 -41t-7.5 -44q-14 -62 -40 -112t-63 -85t-83 -54t-99 -19q-87 0 -132 48.5
t-45 135.5q0 20 2.5 41.5t7.5 44.5z" />
    <glyph glyph-name="odieresis" unicode="&#xf6;" horiz-adv-x="500" 
d="M556 712l-26 -116h-120l26 116h120zM366 712l-26 -116h-120l26 116h120zM408 260q5 23 7.5 43.5t2.5 37.5q0 89 -75 89q-52 0 -86 -41t-53 -129q-5 -23 -7.5 -43.5t-2.5 -37.5q0 -89 75 -89q52 0 86 41t53 129zM80 260q13 62 39 112t63 85t83 54t99 19q87 0 132.5 -49
t45.5 -136q0 -20 -2.5 -41t-7.5 -44q-14 -62 -40 -112t-63 -85t-83 -54t-99 -19q-87 0 -132 48.5t-45 135.5q0 20 2.5 41.5t7.5 44.5z" />
    <glyph glyph-name="divide" unicode="&#xf7;" horiz-adv-x="600" 
d="M486 449q-4 -17 -14.5 -32.5t-25.5 -28t-33 -20t-36 -7.5q-30 0 -50 21.5t-20 50.5q0 6 2 16q3 16 13.5 32t25.5 29t32.5 20.5t34.5 7.5q32 0 52.5 -22.5t20.5 -51.5q0 -5 -2 -15zM404 70q-4 -17 -14.5 -32.5t-25.5 -28t-33 -20t-36 -7.5q-30 0 -50 21.5t-20 50.5
q0 6 2 16q3 16 13.5 32t25.5 29t32.5 20.5t34.5 7.5q32 0 52.5 -22.5t20.5 -51.5q0 -5 -2 -15zM84 206l23 108h520l-23 -108h-520z" />
    <glyph glyph-name="oslash" unicode="&#xf8;" horiz-adv-x="500" 
d="M231 98q16 -8 38 -8q52 0 86 41t53 129q10 46 10 82zM386 419q-17 11 -43 11q-52 0 -86 -41t-53 -129q-11 -47 -11 -78q0 -4 0.5 -7t0.5 -6zM79 -100h-90l116 153q-35 47 -35 121q0 20 2.5 41.5t7.5 44.5q13 62 39 112t63 85t83 54t99 19q55 0 92 -20l78 102h91
l-114 -149q31 -47 31 -117q0 -20 -2.5 -41.5t-7.5 -44.5q-14 -62 -40 -112t-63 -85t-83 -54t-99 -19q-47 0 -86 17z" />
    <glyph glyph-name="ugrave" unicode="&#xf9;" horiz-adv-x="556" 
d="M423 732l62 -146h-102l-114 146h154zM604 520l-112 -520h-114l12 56q-40 -24 -84.5 -45t-90.5 -21q-63 0 -93 31t-30 86q0 14 2 27.5t5 29.5l77 356h124l-73 -338q-3 -13 -4 -23.5t-1 -19.5q0 -28 12.5 -38.5t36.5 -10.5q41 0 74.5 18.5t53.5 36.5l81 375h124z" />
    <glyph glyph-name="uacute" unicode="&#xfa;" horiz-adv-x="556" 
d="M603 732l-178 -146h-102l126 146h154zM604 520l-112 -520h-114l12 56q-40 -24 -84.5 -45t-90.5 -21q-63 0 -93 31t-30 86q0 14 2 27.5t5 29.5l77 356h124l-73 -338q-3 -13 -4 -23.5t-1 -19.5q0 -28 12.5 -38.5t36.5 -10.5q41 0 74.5 18.5t53.5 36.5l81 375h124z" />
    <glyph glyph-name="ucircumflex" unicode="&#xfb;" horiz-adv-x="556" 
d="M497 732l83 -146h-113l-45 82l-82 -82h-112l145 146h124zM604 520l-112 -520h-114l12 56q-40 -24 -84.5 -45t-90.5 -21q-63 0 -93 31t-30 86q0 14 2 27.5t5 29.5l77 356h124l-73 -338q-3 -13 -4 -23.5t-1 -19.5q0 -28 12.5 -38.5t36.5 -10.5q41 0 74.5 18.5t53.5 36.5
l81 375h124z" />
    <glyph glyph-name="udieresis" unicode="&#xfc;" horiz-adv-x="556" 
d="M397 712l-26 -116h-120l26 116h120zM587 712l-26 -116h-120l26 116h120zM604 520l-112 -520h-114l12 56q-40 -24 -84.5 -45t-90.5 -21q-63 0 -93 31t-30 86q0 14 2 27.5t5 29.5l77 356h124l-73 -338q-3 -13 -4 -23.5t-1 -19.5q0 -28 12.5 -38.5t36.5 -10.5
q41 0 74.5 18.5t53.5 36.5l81 375h124z" />
    <glyph glyph-name="yacute" unicode="&#xfd;" horiz-adv-x="444" 
d="M547 732l-178 -146h-102l126 146h154zM-8 -84q13 -3 24.5 -3.5t25.5 -0.5q32 0 53.5 9.5t37.5 31.5q14 19 22 32t12 29q1 5 1 14q0 11 -1.5 23.5t-2.5 24.5l-43 444h125l17 -320h2l158 320h124l-277 -521q-33 -56 -60.5 -92.5t-55 -58t-58 -30t-68.5 -8.5q-22 0 -34.5 1
t-23.5 3z" />
    <glyph glyph-name="thorn" unicode="&#xfe;" horiz-adv-x="556" 
d="M217 134q15 -17 35.5 -30.5t50.5 -13.5q56 0 95.5 43.5t57.5 126.5q5 19 6.5 36t1.5 32q0 102 -87 102q-20 0 -35 -4.5t-27 -11t-22.5 -15t-21.5 -15.5zM220 722h119l-54 -250q32 26 67.5 42t77.5 16q81 0 119.5 -51t38.5 -134q0 -23 -2.5 -48t-8.5 -51
q-11 -48 -34.5 -94t-58 -82t-78 -58t-93.5 -22q-32 0 -65.5 16.5t-47.5 41.5h-2l-52 -238h-124z" />
    <glyph glyph-name="ydieresis" unicode="&#xff;" horiz-adv-x="444" 
d="M341 712l-26 -116h-120l26 116h120zM531 712l-26 -116h-120l26 116h120zM-8 -84q13 -3 24.5 -3.5t25.5 -0.5q32 0 53.5 9.5t37.5 31.5q14 19 22 32t12 29q1 5 1 14q0 11 -1.5 23.5t-2.5 24.5l-43 444h125l17 -320h2l158 320h124l-277 -521q-33 -56 -60.5 -92.5t-55 -58
t-58 -30t-68.5 -8.5q-22 0 -34.5 1t-23.5 3z" />
    <glyph glyph-name="dotlessi" unicode="&#x131;" horiz-adv-x="278" 
d="M201 0h-124l112 520h124z" />
    <glyph glyph-name="Lslash" unicode="&#x141;" horiz-adv-x="556" 
d="M241 116h314l-25 -116h-452l62 290l-85 -32l22 100l85 32l72 332h138l-60 -276l172 64l-22 -100l-172 -64z" />
    <glyph glyph-name="lslash" unicode="&#x142;" horiz-adv-x="278" 
d="M201 0h-124l68 317l-85 -39l21 100l86 39l66 305h124l-53 -243l86 39l-22 -100l-85 -39z" />
    <glyph glyph-name="OE" unicode="&#x152;" horiz-adv-x="944" 
d="M557 456q5 22 7.5 40.5t2.5 33.5q0 50 -28 68t-86 18q-35 0 -67.5 -9.5t-61.5 -37t-53.5 -77.5t-41.5 -131q-16 -71 -16 -121q0 -42 10 -68t27.5 -40.5t41 -20t50.5 -5.5q37 0 65 7t49 25t35 49t25 79zM881 318h-216l-43 -202h323l-25 -116h-403q-44 0 -88.5 -5t-89.5 -5
q-138 0 -201.5 59t-63.5 174q0 59 17 138q39 181 136.5 276t272.5 95q32 0 72 -5t84 -5h403l-25 -116h-306l-38 -172h216z" />
    <glyph glyph-name="oe" unicode="&#x153;" horiz-adv-x="778" 
d="M706 324q3 16 3 32q0 39 -19.5 60.5t-54.5 21.5q-42 0 -74 -30t-45 -84h190zM192 260q-10 -46 -10 -81q0 -89 71 -89q49 0 82.5 41t52.5 129q10 46 10 81q0 89 -71 89q-49 0 -82.5 -41t-52.5 -129zM497 240q-4 -18 -5.5 -34t-1.5 -30q0 -46 21 -66t64 -20q35 0 61.5 17.5
t55.5 44.5l78 -56q-48 -56 -105 -81t-120 -25q-51 0 -85 18.5t-53 50.5q-35 -35 -80 -52t-98 -17q-83 0 -127 49t-44 135q0 42 10 86q13 62 39 112t62.5 85t81 54t95.5 19t89 -16t58 -51q67 67 161 67h2q41 0 71.5 -13.5t51 -37.5t30.5 -56t10 -68q0 -33 -7 -64l-11 -51
h-304z" />
    <glyph glyph-name="Scaron" unicode="&#x160;" 
d="M407 762l-81 146h112l46 -82l81 82h113l-147 -146h-124zM533 530q-7 42 -33 68t-75 26q-45 0 -78.5 -19t-42.5 -61q-1 -4 -1 -12q0 -26 22.5 -44t56.5 -33.5t74 -32t74 -39t56.5 -53.5t22.5 -77q0 -10 -1.5 -20t-3.5 -21q-24 -112 -102 -167t-199 -55q-44 0 -83.5 12
t-70 34t-51.5 54t-28 71l125 50q7 -26 17 -46.5t26 -35.5t38 -23t52 -8q26 0 49 5t42 16.5t32 30t19 44.5q1 5 1.5 8.5t0.5 7.5q0 29 -22.5 49t-56.5 37t-73.5 33.5t-73.5 38.5t-56.5 51.5t-22.5 73.5q0 20 4 37q10 48 37.5 86t65 63.5t82.5 39t92 13.5q88 0 146 -42
t74 -121z" />
    <glyph glyph-name="scaron" unicode="&#x161;" horiz-adv-x="444" 
d="M285 586l-81 146h112l46 -82l81 82h113l-147 -146h-124zM399 383q-14 20 -35 37.5t-50 17.5q-36 0 -56 -14t-25 -37q-1 -3 -1 -9q0 -18 16 -29.5t39.5 -21.5t51 -20.5t51 -26t39.5 -39t16 -58.5q0 -18 -4 -37q-9 -41 -29.5 -70t-50.5 -48.5t-67 -28.5t-78 -9
q-63 0 -107 27t-67 78l96 62q16 -30 40.5 -52.5t64.5 -22.5q33 0 57 16.5t30 42.5q1 3 1 9q0 18 -16 30t-39.5 22t-51 21t-51 26.5t-39.5 38t-16 56.5q0 18 4 35q8 36 28 64.5t48 47.5t61 29t67 10q52 0 96.5 -19.5t69.5 -59.5z" />
    <glyph glyph-name="Ydieresis" unicode="&#x178;" horiz-adv-x="556" 
d="M435 888l-25 -116h-120l25 116h120zM625 888l-25 -116h-120l25 116h120zM372 436l186 286h144l-293 -434l-62 -288h-138l62 288l-105 434h144z" />
    <glyph glyph-name="Zcaron" unicode="&#x17d;" horiz-adv-x="556" 
d="M379 762l-81 146h112l46 -82l81 82h113l-147 -146h-124zM530 0h-514l25 117l443 489h-314l25 116h488l-24 -110l-456 -496h352z" />
    <glyph glyph-name="zcaron" unicode="&#x17e;" horiz-adv-x="444" 
d="M285 586l-81 146h112l46 -82l81 82h113l-147 -146h-124zM151 520h385l-19 -88l-322 -332h252l-21 -100h-408l19 88l322 332h-230z" />
    <glyph glyph-name="florin" unicode="&#x192;" 
d="M60 -76q10 -3 21.5 -6.5t30.5 -3.5q12 0 21.5 4t20.5 19t25.5 44t36 79.5t52 125t73.5 180.5h-97l20 94h119q30 73 55.5 124.5t54 84.5t62 48t78.5 15q23 0 41 -2.5t35 -6.5l-39 -106q-11 5 -21.5 8t-23.5 3q-21 0 -37 -11t-29.5 -32.5t-26 -53t-26.5 -71.5h103l-20 -94
h-120q-57 -132 -95.5 -234.5t-77.5 -173t-87 -108t-122 -40.5h-7q-18 0 -33 2.5t-29 5.5z" />
    <glyph glyph-name="circumflex" unicode="&#x2c6;" horiz-adv-x="278" 
d="M358 732l83 -146h-113l-45 82l-82 -82h-112l145 146h124z" />
    <glyph glyph-name="caron" unicode="&#x2c7;" horiz-adv-x="278" 
d="M202 586l-81 146h112l46 -82l81 82h113l-147 -146h-124z" />
    <glyph glyph-name="breve" unicode="&#x2d8;" horiz-adv-x="278" 
d="M466 732q-26 -75 -79.5 -110.5t-128.5 -35.5q-63 0 -98 28.5t-35 85.5q0 15 3 32h66q0 -2 -0.5 -4.5t-0.5 -4.5q0 -18 8 -30t20.5 -18.5t28.5 -9.5t33 -3q41 0 70 14t47 56h66z" />
    <glyph glyph-name="dotaccent" unicode="&#x2d9;" horiz-adv-x="278" 
d="M353 712l-26 -116h-120l26 116h120z" />
    <glyph glyph-name="ring" unicode="&#x2da;" horiz-adv-x="278" 
d="M234 693q-1 -4 -1 -11q0 -19 12 -31t32 -12q23 0 41.5 15.5t23.5 38.5q1 4 1 12q0 18 -11.5 30t-31.5 12q-23 0 -42 -15.5t-24 -38.5zM180 693q5 22 17.5 42t30.5 34.5t39.5 23t44.5 8.5q39 0 63 -23.5t24 -60.5q0 -12 -3 -24q-5 -23 -17.5 -42.5t-30 -34t-39.5 -23
t-44 -8.5q-39 0 -63 24.5t-24 61.5v10q0 6 2 12z" />
    <glyph glyph-name="ogonek" unicode="&#x2db;" horiz-adv-x="278" 
d="M259 9q-21 -8 -48 -19t-52 -26t-43.5 -35t-24.5 -45q-1 -4 -1 -11q0 -18 12 -27.5t31 -9.5q24 0 53 14t52 27l12 -36q-38 -23 -79.5 -40t-83.5 -17q-38 0 -63 17t-25 52q0 5 0.5 10t1.5 10q8 38 37 64t67 43.5t80 27t77 13.5z" />
    <glyph glyph-name="tilde" unicode="&#x2dc;" horiz-adv-x="278" 
d="M478 722q-10 -23 -23 -45t-29.5 -39t-37.5 -27.5t-48 -10.5q-19 0 -37.5 5.5t-36 12t-34 12t-31.5 5.5q-20 0 -32.5 -12t-22.5 -29h-62q8 23 21.5 45t31 39t39.5 27.5t48 10.5q20 0 39 -6t35.5 -12.5t31 -12.5t26.5 -6q18 0 33.5 13t23.5 30h65z" />
    <glyph glyph-name="hungarumlaut" unicode="&#x2dd;" horiz-adv-x="278" 
d="M344 732l-164 -146h-98l108 146h154zM538 732l-178 -146h-102l126 146h154z" />
    <glyph glyph-name="endash" unicode="&#x2013;" horiz-adv-x="500" 
d="M47 218l18 84h500l-18 -84h-500z" />
    <glyph glyph-name="emdash" unicode="&#x2014;" horiz-adv-x="1000" 
d="M47 218l18 84h1000l-18 -84h-1000z" />
    <glyph glyph-name="quoteleft" unicode="&#x2018;" horiz-adv-x="278" 
d="M273 582h60l-30 -142h-138l30 142l97 150h65z" />
    <glyph glyph-name="quoteright" unicode="&#x2019;" horiz-adv-x="278" 
d="M255 580h-60l31 142h138l-31 -142l-96 -150h-65z" />
    <glyph glyph-name="quotesinglbase" unicode="&#x201a;" horiz-adv-x="278" 
d="M130 0h-60l30 142h138l-30 -142l-97 -150h-65z" />
    <glyph glyph-name="quotedblleft" unicode="&#x201c;" horiz-adv-x="444" 
d="M245 582h60l-30 -142h-138l30 142l97 150h65zM468 582h60l-30 -142h-138l30 142l97 150h65z" />
    <glyph glyph-name="quotedblright" unicode="&#x201d;" horiz-adv-x="444" 
d="M449 580h-60l31 142h138l-31 -142l-96 -150h-65zM226 580h-60l31 142h138l-31 -142l-96 -150h-65z" />
    <glyph glyph-name="quotedblbase" unicode="&#x201e;" horiz-adv-x="444" 
d="M324 0h-60l30 142h138l-30 -142l-97 -150h-65zM101 0h-60l30 142h138l-30 -142l-97 -150h-65z" />
    <glyph glyph-name="dagger" unicode="&#x2020;" horiz-adv-x="500" 
d="M532 464l-152 30l-8 -161l-121 -407h-36l57 407l60 161l-164 -30l23 106l151 -30l16 192h100l-68 -192l165 30z" />
    <glyph glyph-name="daggerdbl" unicode="&#x2021;" horiz-adv-x="500" 
d="M334 502l-164 -30l23 106l151 -30l14 184h100l-66 -184l165 30l-23 -106l-152 30l-11 -173l-64 -173l165 30l-23 -106l-152 30l-14 -184h-100l66 184l-164 -30l23 106l151 -30l12 173z" />
    <glyph glyph-name="bullet" unicode="&#x2022;" horiz-adv-x="500" 
d="M147 361q8 37 29 70t51 57.5t65.5 38.5t73.5 14q66 0 106 -40t40 -102q0 -9 -1 -18.5t-3 -19.5q-8 -38 -29.5 -70.5t-51.5 -57.5t-66.5 -39t-73.5 -14q-32 0 -58.5 10.5t-45.5 29.5t-29.5 45t-10.5 56q0 21 4 40z" />
    <glyph glyph-name="ellipsis" unicode="&#x2026;" horiz-adv-x="1000" 
d="M429 0l30 142h142l-30 -142h-142zM96 0l30 142h142l-30 -142h-142zM762 0l30 142h142l-30 -142h-142z" />
    <glyph glyph-name="perthousand" unicode="&#x2030;" horiz-adv-x="1000" 
d="M884 214q-29 0 -51.5 -19t-28.5 -47q-2 -10 -2 -15q0 -22 14 -36.5t39 -14.5q29 0 52 19t29 47q2 10 2 15q0 23 -14.5 37t-39.5 14zM523 214q-29 0 -51.5 -19t-28.5 -47q-2 -10 -2 -15q0 -22 14 -36.5t39 -14.5q29 0 52 19t29 47q2 10 2 15q0 23 -14.5 37t-39.5 14z
M300 640q-29 0 -51.5 -19t-28.5 -47q-2 -10 -2 -15q0 -22 14 -36.5t39 -14.5q29 0 52 19t29 47q2 10 2 15q0 23 -14.5 37t-39.5 14zM642 732h77l-569 -742h-77zM902 296q54 0 86.5 -33t32.5 -84q0 -16 -3 -31q-7 -30 -24.5 -57t-41.5 -47.5t-53.5 -32t-60.5 -11.5
q-54 0 -87 33t-33 83q0 8 1 16t3 16q6 30 23.5 57t42 47.5t54 32t60.5 11.5zM541 296q54 0 86.5 -33t32.5 -84q0 -16 -3 -31q-7 -30 -24.5 -57t-41.5 -47.5t-53.5 -32t-60.5 -11.5q-54 0 -87 33t-33 83q0 8 1 16t3 16q6 30 23.5 57t42 47.5t54 32t60.5 11.5zM318 722
q54 0 86.5 -33t32.5 -84q0 -16 -3 -31q-7 -30 -24.5 -57t-41.5 -47.5t-53.5 -32t-60.5 -11.5q-54 0 -87 33t-33 83q0 8 1 16t3 16q6 30 23.5 57t42 47.5t54 32t60.5 11.5z" />
    <glyph glyph-name="guilsinglleft" unicode="&#x2039;" horiz-adv-x="333" 
d="M251 420h112l-158 -163l89 -157h-112l-86 157z" />
    <glyph glyph-name="guilsinglright" unicode="&#x203a;" horiz-adv-x="333" 
d="M347 257l-154 -157h-112l157 157l-88 163h112z" />
    <glyph glyph-name="fraction" unicode="&#x2044;" horiz-adv-x="167" 
d="M404 732h88l-572 -742h-89z" />
    <glyph glyph-name="fraction" unicode="&#x2215;" horiz-adv-x="167" 
d="M404 732h88l-572 -742h-89z" />
    <glyph glyph-name="Euro" unicode="&#x20ac;" 
d="M122 467h61q18 52 48 99q31 48 70 83q46 42 96 62q52 21 112 21q48 0 80 -12q33 -11 58 -33q27 -26 39 -60q14 -34 13 -75l-124 -30q-3 47 -28 72q-23 26 -66 26q-31 0 -60 -15q-28 -14 -52 -42q-18 -22 -33 -47q-14 -24 -22 -49h330l-48 -78h-308l-12 -56h282l-48 -78
h-244q-2 -46 1 -64q3 -17 11 -32q12 -30 36 -44q25 -13 59 -13q24 0 46 7q24 8 42 23q13 11 30 32q18 21 29 39l108 -34q-23 -47 -58 -84q-35 -36 -72 -57q-36 -20 -78 -29t-78 -9q-76 0 -122 29q-46 30 -67 91q-11 28 -15 65t-1 80h-92l48 78h54l12 56h-85z" />
    <glyph glyph-name="trademark" unicode="&#x2122;" horiz-adv-x="1000" 
d="M501 638h-121l-71 -328h-100l71 328h-120l18 84h341zM787 464h2l148 258h149l-89 -412h-100l60 281l-3 2l-161 -283h-77l-39 282h-4l-61 -282h-100l89 412h149z" />
    <glyph glyph-name="minus" unicode="&#x2212;" horiz-adv-x="600" 
d="M84 206l23 108h520l-23 -108h-520z" />
    <glyph glyph-name="fi" unicode="&#xfb01;" horiz-adv-x="556" 
d="M501 616l25 116h124l-25 -116h-124zM492 0h-124l112 520h124zM298 420l-90 -420h-124l90 420h-72l22 100h71l14 64q9 42 23.5 70.5t36.5 45.5t51.5 24.5t67.5 7.5h82l-22 -100h-34q-39 0 -57 -13t-25 -43l-12 -56h105l-22 -100h-105z" />
    <glyph glyph-name="fl" unicode="&#xfb02;" horiz-adv-x="556" 
d="M368 0l156 722h124l-156 -722h-124zM298 420l-90 -420h-124l90 420h-72l22 100h71l14 64q9 42 23.5 70.5t36.5 45.5t51.5 24.5t67.5 7.5h82l-22 -100h-34q-39 0 -57 -13t-25 -43l-12 -56h105l-22 -100h-105z" />
    <glyph glyph-name="nonbreakingspace" horiz-adv-x="305" 
 />
    </font>
</defs>
</svg>
