<?xml version="1.0" standalone="no"?>
<!DOCTYPE svg PUBLIC "-//W3C//DTD SVG 1.1//EN" "http://www.w3.org/Graphics/SVG/1.1/DTD/svg11.dtd" >
<svg xmlns="http://www.w3.org/2000/svg" xmlns:xlink="http://www.w3.org/1999/xlink" version="1.1">
<metadata>
Created by FontForge 20170731 at Tue Oct  9 23:16:57 2001
 By Aleksey,,,
Copyright (c) 1989 Adobe Systems Incorporated. All Rights Reserved.Trade Gothic is a trademark of Linotype AG and/or its subsidiaries.
</metadata>
<defs>
<font id="TradeGothicLT-BoldCondTwentyObl" horiz-adv-x="444" >
  <font-face 
    font-family="TradeGothic LT CondEighteen"
    font-weight="700"
    font-style="italic"
    font-stretch="normal"
    units-per-em="1000"
    panose-1="2 0 8 6 2 0 0 2 0 4"
    ascent="800"
    descent="-200"
    x-height="538"
    cap-height="722"
    bbox="-169 -236 1066 964"
    underline-thickness="50"
    underline-position="-175"
    slope="-12"
    unicode-range="U+0020-FB02"
  />
<missing-glyph horiz-adv-x="222" 
 />
    <glyph glyph-name=".notdef" horiz-adv-x="222" 
 />
    <glyph glyph-name=".null" horiz-adv-x="0" 
 />
    <glyph glyph-name="nonmarkingreturn" horiz-adv-x="222" 
 />
    <glyph glyph-name="space" unicode=" " horiz-adv-x="222" 
 />
    <glyph glyph-name="space" unicode="&#xa0;" horiz-adv-x="222" 
 />
    <glyph glyph-name="exclam" unicode="!" horiz-adv-x="278" 
d="M80 0l25 118h118l-25 -118h-118zM232 722h126l-133 -510h-82z" />
    <glyph glyph-name="quotedbl" unicode="&#x22;" horiz-adv-x="333" 
d="M355 722h94l-60 -274h-94zM196 722h94l-60 -274h-94z" />
    <glyph glyph-name="numbersign" unicode="#" 
d="M285 430l-46 -138h80l46 138h-80zM454 214h-72l-70 -214h-90l71 214h-81l-70 -214h-91l71 214h-66l17 78h76l45 138h-66l16 78h76l72 214h89l-72 -214h81l72 214h89l-72 -214h64l-16 -78h-72l-46 -138h62z" />
    <glyph glyph-name="dollar" unicode="$" 
d="M327 624q-26 -8 -43.5 -28t-22.5 -46q-3 -15 -3 -28q0 -22 8.5 -38.5t22.5 -33.5zM272 96q34 12 51 35t25 58q3 15 3 27q0 24 -10 41.5t-26 35.5zM367 810h60l-19 -88q40 -8 71 -32t48 -59l-90 -65q-8 19 -18 36t-32 22l-45 -207q23 -17 44.5 -35.5t38 -39.5t26 -45.5
t9.5 -55.5q0 -11 -1 -22.5t-4 -24.5q-8 -38 -25.5 -71.5t-44 -59.5t-60 -43t-73.5 -20l-26 -116h-60l26 116q-51 5 -85.5 38t-52.5 75l97 63q4 -26 19 -49t42 -31l51 235q-22 15 -42 32.5t-35.5 38t-24.5 44.5t-9 53q0 9 1 18.5t3 19.5q7 35 24 66.5t41.5 56t56.5 41
t70 21.5z" />
    <glyph glyph-name="percent" unicode="%" horiz-adv-x="778" 
d="M250 558q-1 -5 -1.5 -8.5t-0.5 -8.5q0 -29 19 -48t49 -19q35 0 64.5 24.5t37.5 59.5q1 5 1.5 8.5t0.5 8.5q0 29 -19 48t-49 19q-35 0 -64.5 -24.5t-37.5 -59.5zM515 164q-1 -5 -1.5 -8.5t-0.5 -8.5q0 -29 19 -48t49 -19q35 0 64.5 24.5t37.5 59.5q1 5 1.5 8.5t0.5 8.5
q0 29 -19 48t-49 19q-35 0 -64.5 -24.5t-37.5 -59.5zM790 732l-570 -742h-75l570 742h75zM435 164q7 34 26.5 64t46.5 52t59.5 35t66.5 13q60 0 96.5 -36.5t36.5 -92.5q0 -19 -4 -35q-8 -34 -27 -64t-46 -52t-59.5 -35t-66.5 -13q-60 0 -96.5 36.5t-36.5 92.5q0 19 4 35z
M170 558q7 34 26.5 64t46.5 52t60 35t67 13q60 0 96 -36t36 -92q0 -8 -1 -17.5t-3 -18.5q-7 -34 -26.5 -64t-46.5 -52t-59.5 -35t-66.5 -13q-60 0 -96.5 37t-36.5 93q0 8 1 16.5t3 17.5z" />
    <glyph glyph-name="ampersand" unicode="&#x26;" horiz-adv-x="556" 
d="M203 175q-1 -5 -1.5 -9t-0.5 -9q0 -26 15.5 -42.5t43.5 -16.5q18 0 31 4.5t30 16.5q-21 34 -38.5 69.5t-28.5 75.5q-21 -24 -32.5 -42.5t-18.5 -46.5zM319 589q-3 -13 -4 -26t-1 -27q0 -23 2.5 -44.5t6.5 -41.5q28 29 54 61.5t34 70.5q3 11 4 20.5t1 17.5q0 40 -33 40
q-23 0 -39.5 -18.5t-24.5 -52.5zM575 323q-21 -50 -50 -96t-58 -93q11 -13 27 -22t34 -12l-24 -110q-39 1 -72 15t-56 40q-36 -29 -71.5 -42t-82.5 -13q-67 0 -104 34.5t-37 91.5q0 18 5 43q6 28 19.5 56t32.5 54t41.5 50t45.5 44q-7 32 -13 69t-6 74q0 14 1 28t4 28
q8 37 24.5 68t41.5 53.5t57 35.5t71 13q57 0 88 -29t31 -80q0 -10 -1.5 -20t-3.5 -21q-7 -34 -25 -63.5t-42 -56.5t-51 -51.5t-53 -47.5q11 -39 25 -76t33 -71q20 33 39 66t34 68z" />
    <glyph glyph-name="quotesingle" unicode="'" horiz-adv-x="222" 
d="M220 722h94l-60 -274h-94z" />
    <glyph glyph-name="parenleft" unicode="(" horiz-adv-x="278" 
d="M404 732q-75 -88 -128.5 -192.5t-78.5 -216.5q-18 -84 -18 -164q0 -67 12.5 -128.5t35.5 -116.5h-96q-23 54 -35 117t-12 132q0 77 17 160q24 111 78.5 217t128.5 192h96z" />
    <glyph glyph-name="parenright" unicode=")" horiz-adv-x="278" 
d="M286 732q23 -54 35 -116.5t12 -130.5q0 -80 -18 -162q-23 -111 -77.5 -217t-128.5 -192h-96q75 88 128.5 192.5t77.5 216.5q9 42 14 83t5 82q0 66 -12.5 128t-35.5 116h96z" />
    <glyph glyph-name="asterisk" unicode="*" 
d="M522 556q-39 -2 -78 -7t-77 -10q20 -29 41.5 -56t46.5 -51l-91 -55q-5 36 -14 70.5t-17 69.5q-23 -35 -47 -69.5t-44 -70.5l-67 55q35 24 68.5 51t65.5 56q-37 5 -73 10t-74 7l49 89q54 -38 113 -67q4 31 5.5 61t1.5 60v23h94q-16 -35 -30 -71t-25 -73q36 15 71 31.5
t70 35.5z" />
    <glyph glyph-name="plus" unicode="+" horiz-adv-x="600" 
d="M360 506h98l-44 -204h204l-21 -98h-204l-44 -204h-98l44 204h-204l21 98h204z" />
    <glyph glyph-name="comma" unicode="," horiz-adv-x="222" 
d="M170 0l-96 -124h-53l76 124h-45l25 118h118z" />
    <glyph glyph-name="hyphen" unicode="-" horiz-adv-x="333" 
d="M92 223l20 92h245l-20 -92h-245z" />
    <glyph glyph-name="hyphen" unicode="&#xad;" horiz-adv-x="333" 
d="M92 223l20 92h245l-20 -92h-245z" />
    <glyph glyph-name="period" unicode="." horiz-adv-x="222" 
d="M52 0l25 118h118l-25 -118h-118z" />
    <glyph glyph-name="slash" unicode="/" horiz-adv-x="278" 
d="M359 732h98l-383 -742h-97z" />
    <glyph glyph-name="zero" unicode="0" 
d="M402 565q3 13 3 25q0 44 -46 44q-58 0 -73 -69l-89 -408q-3 -14 -3 -24q0 -45 47 -45q57 0 72 69zM161 534q22 102 74 150t145 48q74 0 108.5 -29t34.5 -92q0 -17 -2.5 -36t-7.5 -41l-75 -346q-22 -103 -73.5 -150.5t-145.5 -47.5q-74 0 -108 29.5t-34 92.5q0 32 9 76z
" />
    <glyph glyph-name="one" unicode="1" 
d="M300 572h-98l15 67q46 21 88 44t79 49h63l-158 -732h-112z" />
    <glyph glyph-name="two" unicode="2" 
d="M44 0l20 97q76 84 135 151t101 121t67 98.5t34 84.5q4 17 4 33q0 25 -11 37t-31 12q-30 0 -49.5 -21t-27.5 -54l-10 -49h-118l7 34q9 40 28.5 74t49 59.5t66.5 40t81 14.5q33 0 58.5 -10t43 -27t26.5 -40t9 -49q0 -8 -1 -17t-3 -17q-9 -43 -26.5 -83.5t-53.5 -92.5
t-96.5 -122t-154.5 -172h219l-22 -102h-345z" />
    <glyph glyph-name="three" unicode="3" 
d="M203 209l-11 -49q-3 -15 -3 -26q0 -46 44 -46q27 0 47 20t30 65l12 55q5 25 5 40q0 35 -21.5 48.5t-67.5 13.5l21 98q27 0 47.5 5t35.5 17.5t25 34t17 53.5q7 31 7 54q0 42 -36 42q-26 0 -44.5 -15.5t-27.5 -58.5l-7 -30h-112l8 34q8 37 26 67.5t44 53t60 35t75 12.5
q33 0 56.5 -10.5t39.5 -28.5t23.5 -42.5t7.5 -52.5q0 -24 -6 -51q-7 -32 -15.5 -56.5t-21.5 -44.5t-31.5 -36t-45.5 -29q33 -20 47 -42.5t14 -56.5q0 -17 -3 -36.5t-8 -43.5q-23 -109 -78 -160.5t-148 -51.5q-64 0 -99 27.5t-35 89.5q0 28 7 59l10 43h112z" />
    <glyph glyph-name="four" unicode="4" 
d="M291 266l61 282h-2l-182 -282h123zM269 174h-216l20 92l309 456h120l-99 -456h66l-20 -92h-66l-37 -174h-114z" />
    <glyph glyph-name="five" unicode="5" 
d="M207 209l-13 -58q-1 -5 -1.5 -9t-0.5 -9q0 -21 11.5 -33t32.5 -12q29 0 49 19.5t31 68.5l35 164q3 12 3 23q0 23 -12 33t-29 10q-29 0 -47 -16t-32 -39h-96q11 42 21 81t21 82t22.5 93.5t25.5 114.5h301l-26 -102h-195l-41 -156l1 -2q30 28 53 35t52 7q53 0 77 -27.5
t24 -79.5q0 -34 -11 -83l-21 -100q-25 -114 -76 -169t-141 -55q-32 0 -59 6.5t-47 20t-31 35.5t-11 54q0 22 6 48l12 55h112z" />
    <glyph glyph-name="six" unicode="6" 
d="M197 157q-3 -14 -3 -24q0 -45 47 -45q57 0 72 69l26 120q3 15 3 26q0 43 -40 43q-17 0 -37 -12t-34 -21zM389 528l8 37q2 8 3 15.5t1 13.5q0 40 -42 40q-58 0 -73 -69l-37 -169q15 12 27.5 21t25 15t27 9t33.5 3q45 0 75.5 -23.5t30.5 -77.5q0 -20 -6 -47l-19 -86
q-25 -114 -78 -167t-146 -53q-74 0 -108 29.5t-34 92.5q0 32 9 76l75 346q22 102 74 150t145 48h4q61 0 93.5 -33.5t32.5 -86.5q0 -21 -4 -40l-9 -44h-108z" />
    <glyph glyph-name="seven" unicode="7" 
d="M190 620l22 102h326l-15 -70l-288 -652h-117l279 620h-207z" />
    <glyph glyph-name="eight" unicode="8" 
d="M316 436q29 0 46.5 23t28.5 76q4 16 5.5 29t1.5 24q0 46 -39 46q-29 0 -47 -23t-29 -76q-3 -16 -5 -28.5t-2 -23.5q0 -47 40 -47zM241 88q36 0 56.5 31.5t33.5 88.5q8 37 8 61q0 59 -47 59q-36 0 -56.5 -31.5t-32.5 -88.5q-8 -38 -8 -62q0 -28 10.5 -43t35.5 -15zM89 200
q7 33 16 60.5t22.5 50.5t32 41t44.5 33q-20 17 -29.5 43.5t-9.5 55.5q0 20 5 45q23 106 78 154.5t132 48.5q62 0 96.5 -31.5t34.5 -98.5q0 -33 -9 -73q-9 -42 -33.5 -81t-62.5 -63q25 -19 35.5 -44t10.5 -57q0 -19 -3 -39.5t-8 -44.5q-23 -103 -78.5 -156.5t-143.5 -53.5
q-69 0 -104 34.5t-35 100.5q0 33 9 75z" />
    <glyph glyph-name="nine" unicode="9" 
d="M402 565q3 13 3 25q0 44 -46 44q-58 0 -73 -69l-26 -120q-3 -14 -3 -25q0 -44 40 -44q17 0 37 12t34 21zM210 194l-8 -37q-3 -17 -3 -28q0 -41 42 -41q57 0 72 69l37 169q-29 -24 -52 -36t-60 -12q-45 0 -75.5 23.5t-30.5 77.5q0 20 6 47l18 86q25 114 78 167t146 53
q74 0 108.5 -29t34.5 -92q0 -17 -2.5 -36t-7.5 -41l-75 -346q-22 -103 -73.5 -150.5t-145.5 -47.5h-4q-61 0 -93.5 33.5t-32.5 86.5q0 21 4 40l9 44h108z" />
    <glyph glyph-name="colon" unicode=":" horiz-adv-x="222" 
d="M112 278l25 118h118l-25 -118h-118zM52 0l25 118h118l-25 -118h-118z" />
    <glyph glyph-name="semicolon" unicode=";" horiz-adv-x="222" 
d="M112 278l25 118h118l-25 -118h-118zM170 0l-96 -124h-53l76 124h-45l25 118h118z" />
    <glyph glyph-name="less" unicode="&#x3c;" horiz-adv-x="600" 
d="M553 0l-461 211l18 84l552 211l-22 -104l-398 -149l333 -149z" />
    <glyph glyph-name="equal" unicode="=" horiz-adv-x="600" 
d="M574 100h-506l21 98h506zM619 308h-506l21 98h506z" />
    <glyph glyph-name="greater" unicode="&#x3e;" horiz-adv-x="600" 
d="M69 104l397 149l-332 149l22 104l460 -211l-18 -84l-551 -211z" />
    <glyph glyph-name="question" unicode="?" horiz-adv-x="389" 
d="M124 0l25 118h118l-25 -118h-118zM182 212l19 84q11 52 36.5 94.5t52.5 78.5t50 67t29 59q1 4 1 11q0 14 -8.5 24t-24.5 10t-29 -7t-24 -18t-19.5 -24.5t-14.5 -26.5l-89 36q38 66 88 99t122 33q50 0 84 -29.5t34 -77.5q0 -14 -3 -27q-6 -28 -16 -49.5t-22.5 -39.5
t-27.5 -34l-30 -32t-30 -33t-28 -38t-24 -47t-18 -59l-12 -54h-96z" />
    <glyph glyph-name="at" unicode="@" horiz-adv-x="800" 
d="M419 233q27 0 53 14t47 36t35.5 48.5t20.5 52.5q2 5 2 10v11q0 29 -16 47.5t-45 18.5q-27 0 -53 -14t-47 -36t-36 -48t-20 -51q-3 -12 -3 -24q0 -29 16.5 -47t45.5 -18zM657 548h81l-119 -257q-4 -9 -8.5 -19t-6.5 -20q-1 -4 -1.5 -7t-0.5 -6q0 -14 12 -14q21 0 45 13.5
t45.5 38t39 58t26.5 73.5q7 29 7 60q0 45 -16.5 80t-45.5 58.5t-70 35.5t-89 12q-64 0 -121.5 -22.5t-103.5 -62t-78 -93.5t-46 -117q-8 -38 -8 -69q0 -50 17 -91t48.5 -70t76 -45t100.5 -16q63 0 123 21.5t108 61.5h83q-68 -78 -155.5 -119.5t-181.5 -41.5q-69 0 -126 20
t-98 57t-63.5 89.5t-22.5 117.5q0 43 10 87q17 81 61.5 149t106 117.5t136 77t152.5 27.5q59 0 111 -17t90.5 -48.5t61 -76.5t22.5 -100q0 -32 -7 -61q-17 -77 -57 -131t-87 -88.5t-92.5 -50.5t-72.5 -16q-20 0 -33 10t-13 32q0 8 1 12l-2 1q-25 -23 -57.5 -39t-62.5 -16
q-27 0 -50 10t-39 27.5t-25 41t-9 51.5q0 20 4 36q10 47 35.5 92.5t61.5 81t80 57t93 21.5q76 0 103 -65z" />
    <glyph glyph-name="A" unicode="A" 
d="M230 268h100l18 310h-2zM132 0h-120l289 722h154l-23 -722h-120l12 160h-136z" />
    <glyph glyph-name="B" unicode="B" horiz-adv-x="500" 
d="M276 426h45q35 0 64 23.5t39 68.5q5 23 5 39q0 63 -64 63h-47zM206 102h52q50 0 76 28t38 83q2 12 3.5 22.5t1.5 19.5q0 35 -19.5 52t-63.5 17h-40zM216 722h184q81 0 119.5 -32.5t38.5 -95.5q0 -26 -8 -63q-5 -23 -15 -46.5t-24.5 -43.5t-34.5 -36t-44 -25
q33 -17 51.5 -43.5t18.5 -70.5q0 -28 -7 -57q-10 -45 -28.5 -83t-48 -66t-69.5 -44t-93 -16h-196z" />
    <glyph glyph-name="C" unicode="C" horiz-adv-x="500" 
d="M414 481l12 56q4 16 4 32q0 29 -12.5 42t-32.5 13q-38 0 -56.5 -19.5t-27.5 -60.5l-79 -366q-4 -17 -4 -34q0 -23 12 -34.5t41 -11.5q34 0 51 19t25 54l18 87h124l-18 -83q-8 -38 -26.5 -72t-47 -59t-66.5 -39.5t-84 -14.5q-81 0 -118.5 38.5t-37.5 97.5q0 23 6 49
l81 372q8 38 27 72t47.5 59t67.5 39.5t88 14.5q38 0 66 -11t46 -30t26.5 -45t8.5 -57q0 -27 -6 -55l-11 -53h-124z" />
    <glyph glyph-name="D" unicode="D" horiz-adv-x="500" 
d="M206 102h43q49 0 73.5 22t36.5 79l69 316q6 25 6 45q0 32 -17.5 44t-55.5 12h-43zM216 722h184q158 0 158 -142q0 -34 -9 -76l-62 -286q-24 -112 -85 -165t-158 -53h-184z" />
    <glyph glyph-name="E" unicode="E" 
d="M60 0l156 722h332l-24 -108h-208l-40 -186h160l-23 -108h-160l-46 -212h222l-23 -108h-346z" />
    <glyph glyph-name="F" unicode="F" 
d="M60 0l156 722h346l-24 -108h-222l-40 -186h166l-23 -108h-166l-69 -320h-124z" />
    <glyph glyph-name="G" unicode="G" horiz-adv-x="500" 
d="M310 366h203l-79 -366h-60l-12 54q-35 -33 -65 -48.5t-74 -15.5q-62 0 -97 34.5t-35 97.5q0 24 6 53l81 372q8 38 26.5 72t47 59t65.5 39.5t83 14.5q39 0 67 -11t46 -30.5t27 -45.5t9 -57q0 -26 -6 -54l-10 -46h-118q5 25 8 44t3 34q0 33 -13 45.5t-39 12.5
q-23 0 -42.5 -16.5t-30.5 -62.5l-80 -371q-2 -8 -3 -15.5t-1 -14.5q0 -21 10.5 -33.5t35.5 -12.5q38 0 58 23t31 77l16 70h-79z" />
    <glyph glyph-name="H" unicode="H" horiz-adv-x="500" 
d="M60 0l156 722h124l-64 -294h132l64 294h124l-156 -722h-124l69 320h-132l-69 -320h-124z" />
    <glyph glyph-name="I" unicode="I" horiz-adv-x="278" 
d="M77 0l156 722h124l-156 -722h-124z" />
    <glyph glyph-name="J" unicode="J" horiz-adv-x="278" 
d="M24 98h26q36 0 53.5 15t24.5 45l122 564h124l-125 -578q-8 -35 -22 -63t-38 -48.5t-60.5 -31.5t-87.5 -11h-41z" />
    <glyph glyph-name="K" unicode="K" 
d="M54 0l156 722h124l-58 -267h2l188 267h124l-192 -269l53 -453h-126l-29 336h-2l-61 -80l-55 -256h-124z" />
    <glyph glyph-name="L" unicode="L" horiz-adv-x="389" 
d="M54 0l156 722h124l-133 -614h195l-23 -108h-319z" />
    <glyph glyph-name="M" unicode="M" horiz-adv-x="611" 
d="M713 722l-156 -722h-108l122 564h-2l-234 -564h-60l10 564h-2l-122 -564h-108l156 722h163l-4 -422h2l180 422h163z" />
    <glyph glyph-name="N" unicode="N" horiz-adv-x="500" 
d="M60 0l156 722h115l61 -413h2l90 413h112l-156 -722h-108l-61 451h-2l-97 -451h-112z" />
    <glyph glyph-name="O" unicode="O" horiz-adv-x="500" 
d="M222 178q-4 -17 -4 -34q0 -23 12 -34.5t41 -11.5q38 0 56 19.5t27 60.5l79 366q5 22 5 35q0 23 -12 34t-41 11q-38 0 -56.5 -19.5t-27.5 -60.5zM178 547q8 38 27 72t47.5 59t67.5 39.5t88 14.5q81 0 118.5 -38.5t37.5 -97.5q0 -24 -6 -49l-81 -372q-8 -38 -27 -72
t-47.5 -59t-67.5 -39.5t-88 -14.5q-81 0 -118.5 38.5t-37.5 97.5q0 23 6 49z" />
    <glyph glyph-name="P" unicode="P" horiz-adv-x="500" 
d="M270 398h48q30 0 51.5 5t36.5 18t25 34.5t17 53.5q6 28 6 49q0 35 -20 48.5t-68 13.5h-48zM60 0l156 722h178q94 0 140.5 -32t46.5 -107q0 -32 -9 -74q-13 -58 -35 -98.5t-55 -66t-78 -37t-102 -11.5h-54l-64 -296h-124z" />
    <glyph glyph-name="Q" unicode="Q" horiz-adv-x="500" 
d="M314 258q9 -5 21.5 -14.5t26.5 -29.5l71 330q5 22 5 35q0 23 -12 34t-41 11q-38 0 -56.5 -19.5t-27.5 -60.5l-79 -366q-4 -17 -4 -34q0 -23 12 -34.5t41 -11.5q28 0 44 11q-6 20 -12.5 27t-11.5 12zM465 -54q-17 0 -32.5 2t-29 9t-26 20.5t-24.5 35.5q-46 -23 -106 -23
q-81 0 -118.5 38.5t-37.5 97.5q0 23 6 49l81 372q8 38 27 72t47.5 59t67.5 39.5t88 14.5q81 0 118.5 -38.5t37.5 -97.5q0 -24 -6 -49l-81 -372q-11 -52 -41 -93q17 -18 29.5 -22.5t22.5 -5.5z" />
    <glyph glyph-name="R" unicode="R" horiz-adv-x="500" 
d="M270 398h44q25 0 43.5 5t32.5 18t23.5 34.5t16.5 53.5q6 30 6 51q0 34 -18 47t-56 13h-44zM184 0h-124l156 722h174q86 0 129.5 -32t43.5 -106q0 -33 -9 -75q-9 -44 -23.5 -75t-32 -52.5t-36 -34.5t-35.5 -20l35 -327h-126l-24 299q-12 -2 -29.5 -2.5t-34.5 -0.5z" />
    <glyph glyph-name="S" unicode="S" 
d="M403 544q1 6 1.5 11t0.5 10q0 34 -16 46.5t-34 12.5q-30 0 -50 -18.5t-28 -52.5q-1 -5 -1.5 -9.5t-0.5 -9.5q0 -25 13 -47.5t33 -45t42.5 -45.5t42.5 -49.5t33 -57t13 -68.5q0 -11 -1 -22.5t-4 -23.5q-9 -45 -31 -79.5t-53 -58t-70 -35.5t-82 -12q-37 0 -64.5 12
t-45.5 32.5t-27 48.5t-9 61q0 11 1 22.5t3 23.5l121 17q-2 -9 -2 -17v-16q0 -38 14 -57t39 -19q32 0 55.5 17t30.5 49q3 13 3 25q0 28 -13 51.5t-33 45.5t-42.5 44t-42.5 48t-33 56t-13 69q0 22 6 49q19 87 79 133.5t152 46.5q69 0 102.5 -40t33.5 -105q0 -8 -0.5 -15
t-1.5 -15z" />
    <glyph glyph-name="T" unicode="T" horiz-adv-x="389" 
d="M264 614h-120l24 108h364l-24 -108h-120l-132 -614h-124z" />
    <glyph glyph-name="U" unicode="U" horiz-adv-x="500" 
d="M216 722h124l-118 -545q-4 -15 -4 -30q0 -49 53 -49q65 0 83 79l118 545h124l-117 -540q-20 -94 -81.5 -143t-150.5 -49q-75 0 -115 34.5t-40 100.5q0 13 2 27.5t5 29.5z" />
    <glyph glyph-name="V" unicode="V" 
d="M469 722h122l-307 -722h-124l5 722h122l-19 -501h2z" />
    <glyph glyph-name="W" unicode="W" horiz-adv-x="667" 
d="M431 722h102l-16 -460h2l169 460h116l-283 -722h-104l13 477h-2l-187 -477h-104l19 722h116l-24 -460h2z" />
    <glyph glyph-name="X" unicode="X" 
d="M237 378l-57 344h122l26 -229h2l119 229h122l-200 -344l59 -378h-122l-28 263h-2l-142 -263h-122z" />
    <glyph glyph-name="Y" unicode="Y" 
d="M284 0h-124l64 300l-58 422h126l27 -275h2l143 275h126l-242 -422z" />
    <glyph glyph-name="Z" unicode="Z" 
d="M204 614l24 108h328l-26 -118l-335 -496h228l-23 -108h-356l25 118l338 496h-203z" />
    <glyph glyph-name="bracketleft" unicode="[" horiz-adv-x="278" 
d="M395 674h-118l-152 -702h118l-10 -48h-214l173 798h214z" />
    <glyph glyph-name="backslash" unicode="\" horiz-adv-x="278" 
d="M296 -10h-98l-61 742h98z" />
    <glyph glyph-name="bracketright" unicode="]" horiz-adv-x="278" 
d="M184 722h214l-173 -798h-214l10 48h118l152 702h-118z" />
    <glyph glyph-name="asciicircum" unicode="^" horiz-adv-x="600" 
d="M121 302l281 420h108l99 -420h-109l-71 302l-201 -302h-107z" />
    <glyph glyph-name="underscore" unicode="_" horiz-adv-x="500" 
d="M-27 -125l11 50h499l-11 -50h-499z" />
    <glyph glyph-name="grave" unicode="`" horiz-adv-x="222" 
d="M129 746h135l48 -144h-83z" />
    <glyph glyph-name="a" unicode="a" 
d="M332 273q-43 -22 -71.5 -40t-46.5 -35t-27 -33t-13 -34q-1 -5 -1.5 -9t-0.5 -8q0 -32 43 -32q23 0 45 15t41 35zM124 380q22 82 79.5 125t136.5 43q66 0 101.5 -26t35.5 -79q0 -10 -1.5 -20t-3.5 -21l-75 -345q-3 -13 -4 -28t-1 -29h-107q2 11 1.5 21.5t1.5 20.5
q-38 -26 -70 -39t-73 -13q-47 0 -69 24t-22 62q0 19 4 35q9 44 31.5 79t58.5 64t86 53.5t115 47.5l7 32q3 15 3 26q0 43 -43 43q-38 0 -54.5 -20.5t-25.5 -55.5h-112z" />
    <glyph glyph-name="b" unicode="b" 
d="M189 110q14 -12 27.5 -20t30.5 -8q11 0 22 3.5t20.5 13.5t17 26.5t13.5 43.5l43 200q6 25 6 42q0 27 -12 36t-29 9t-33.5 -8t-36.5 -20zM54 0l156 722h112l-50 -230q19 13 35 23.5t30.5 18t29.5 11t33 3.5q42 0 65 -24.5t23 -72.5q0 -23 -6 -53l-56 -258
q-16 -74 -55 -112t-92 -38q-42 0 -64 15.5t-41 50.5h-2l-12 -56h-106z" />
    <glyph glyph-name="c" unicode="c" 
d="M360 354l3 14q5 23 5 38q0 50 -48 50q-30 0 -50 -20.5t-31 -67.5l-43 -198q-4 -19 -4 -37q0 -27 12 -39t35 -12q30 0 50.5 20.5t30.5 67.5l8 34h112l-3 -14q-10 -44 -27 -81t-43.5 -63.5t-63 -41t-84.5 -14.5q-75 0 -107 34.5t-32 93.5q0 33 9 72l34 158q9 44 26.5 81
t43.5 63.5t62.5 41t84.5 14.5q75 0 107 -34.5t32 -94.5q0 -15 -1.5 -31.5t-5.5 -33.5h-112z" />
    <glyph glyph-name="d" unicode="d" 
d="M370 428q-14 12 -27.5 20t-30.5 8q-23 0 -42 -17t-31 -70l-43 -200q-3 -13 -4 -23t-1 -18q0 -27 11.5 -36.5t28.5 -9.5t34 8t36 20zM284 0l12 56h-2q-36 -35 -64.5 -50.5t-70.5 -15.5t-64.5 24t-22.5 72q0 24 6 54l56 258q16 74 54.5 112t91.5 38q18 0 31.5 -3.5t25 -11
t22.5 -18t25 -23.5l50 230h112l-156 -722h-106z" />
    <glyph glyph-name="e" unicode="e" 
d="M357 340l6 28q5 23 5 38q0 50 -48 50q-30 0 -50 -20.5t-31 -67.5l-6 -28h124zM449 248h-236l-17 -78q-4 -19 -4 -37q0 -27 12 -39t35 -12q30 0 50.5 20.5t30.5 67.5l3 12h112q-10 -43 -27.5 -78t-44 -60.5t-62 -39.5t-82.5 -14q-75 0 -107 34.5t-32 93.5q0 33 9 72
l34 158q9 44 26.5 81t43.5 63.5t62.5 41t84.5 14.5q75 0 107 -34.5t32 -94.5q0 -31 -8 -71z" />
    <glyph glyph-name="f" unicode="f" horiz-adv-x="278" 
d="M172 446h-66l20 92h66l14 67q14 66 53.5 96.5t99.5 30.5h56l-20 -92h-32q-20 0 -30 -8t-15 -28l-14 -66h64l-20 -92h-64l-96 -446h-112z" />
    <glyph glyph-name="g" unicode="g" 
d="M211 -90q28 0 47 2.5t31 7t18 12t8 18.5q1 3 1 9q0 17 -19 24t-69 7q-56 0 -77.5 -9.5t-25.5 -30.5q-1 -3 -1 -9q0 -16 18.5 -23.5t68.5 -7.5zM247 230q16 0 28 5t21.5 17.5t16.5 34.5t15 56q5 23 7.5 40.5t2.5 30.5q0 25 -10 33.5t-32 8.5q-14 0 -25.5 -5t-21 -17.5
t-18 -34.5t-15.5 -56q-9 -42 -9 -65q0 -28 10.5 -38t29.5 -10zM524 455q-5 1 -9 1h-9q-15 0 -29 -3.5t-28 -13.5v-11q0 -20 -2 -40t-5 -34q-13 -62 -32.5 -103t-46.5 -66.5t-61 -36t-77 -10.5h-36q-9 -2 -17 -8.5t-10 -16.5q0 -2 -0.5 -2.5t-0.5 -2.5q0 -15 19 -19.5
t48 -5.5t62.5 -2.5t62.5 -9.5t48 -26.5t19 -53.5q0 -17 -4 -33q-15 -69 -81.5 -98.5t-175.5 -29.5q-77 0 -119 18.5t-42 53.5q0 4 2 14q6 32 33 54.5t58 29.5v2q-17 8 -27.5 20t-10.5 31q0 4 0.5 8t1.5 9q3 14 12 27t21.5 24t26.5 20.5t26 15.5q-23 19 -34 37.5t-11 51.5
q0 35 15 104q12 55 29.5 93t43.5 61.5t61.5 33.5t82.5 10q36 0 64 -13.5t48 -44.5q15 16 26.5 27.5t22.5 18t24 9.5t31 3z" />
    <glyph glyph-name="h" unicode="h" 
d="M54 0l156 722h112l-51 -234q18 13 33.5 24.5t32 19t35 12t42.5 4.5q36 0 55 -20.5t19 -56.5q0 -19 -4 -36l-94 -435h-112l90 417q1 3 1 6v6q0 14 -9 20.5t-24 6.5q-18 0 -37 -10t-42 -24l-91 -422h-112z" />
    <glyph glyph-name="i" unicode="i" horiz-adv-x="222" 
d="M189 620l22 102h112l-22 -102h-112zM55 0l116 538h112l-116 -538h-112z" />
    <glyph glyph-name="j" unicode="j" horiz-adv-x="222" 
d="M195 620l22 102h112l-22 -102h-112zM-14 -68h18q23 0 35 12t16 30l122 563h112l-123 -568q-9 -40 -25 -67t-37.5 -43t-46.5 -22.5t-51 -6.5h-42z" />
    <glyph glyph-name="k" unicode="k" 
d="M373 368l51 -368h-113l-33 267h-2l-70 -79l-40 -188h-112l156 722h112l-81 -374h2l164 190h120z" />
    <glyph glyph-name="l" unicode="l" horiz-adv-x="222" 
d="M55 0l156 722h112l-156 -722h-112z" />
    <glyph glyph-name="m" unicode="m" horiz-adv-x="667" 
d="M277 0l90 417q1 4 1 11q0 14 -9 21t-23 7q-18 0 -37 -10t-42 -24l-91 -422h-112l116 538h106l-12 -54q21 15 37.5 27t32.5 20t32 12.5t36 4.5q21 0 35 -4t23 -11.5t15 -20t11 -28.5q25 19 44 31.5t35 20t30.5 10t29.5 2.5q43 0 64 -20.5t21 -57.5q0 -18 -4 -35l-94 -435
h-112l90 417q1 4 1 11q0 14 -9.5 21t-23.5 7q-18 0 -37 -10t-41 -24l-91 -422h-112z" />
    <glyph glyph-name="n" unicode="n" 
d="M54 0l116 538h106l-12 -54q21 15 38 27t33.5 20t35.5 12.5t43 4.5q36 0 55 -20.5t19 -56.5q0 -19 -4 -36l-94 -435h-112l90 417q1 3 1 6v6q0 14 -9 20.5t-24 6.5q-18 0 -37 -10t-42 -24l-91 -422h-112z" />
    <glyph glyph-name="o" unicode="o" 
d="M363 368q5 23 5 38q0 50 -48 50q-30 0 -50 -20.5t-31 -67.5l-43 -198q-4 -19 -4 -37q0 -27 12 -39t35 -12q30 0 50.5 20.5t30.5 67.5zM123 348q9 44 26.5 81t43.5 63.5t62.5 41t84.5 14.5q75 0 107 -34.5t32 -94.5q0 -31 -8 -71l-34 -158q-10 -44 -27 -81t-43.5 -63.5
t-63 -41t-84.5 -14.5q-75 0 -107 34.5t-32 93.5q0 33 9 72z" />
    <glyph glyph-name="p" unicode="p" 
d="M189 110q14 -12 27.5 -20t30.5 -8q11 0 22 3.5t20.5 13.5t17 26.5t13.5 43.5l43 200q6 25 6 42q0 27 -12 36t-29 9t-33.5 -8t-36.5 -20zM276 538l-12 -56h2q35 35 63.5 50.5t70.5 15.5t65 -24.5t23 -72.5q0 -23 -6 -53l-56 -258q-16 -74 -55 -112t-92 -38
q-18 0 -31.5 3.5t-25 11t-22.5 17.5t-25 24l-46 -216h-112l153 708h106z" />
    <glyph glyph-name="q" unicode="q" 
d="M370 428q-14 12 -27.5 20t-30.5 8q-23 0 -42 -17t-31 -70l-43 -200q-3 -13 -4 -23t-1 -18q0 -27 11.5 -36.5t28.5 -9.5t34 8t36 20zM506 538l-153 -708h-112l46 216q-19 -14 -34.5 -24t-30 -17.5t-30 -11t-33.5 -3.5q-42 0 -64.5 24t-22.5 72q0 24 6 54l56 258
q16 74 54.5 112t91.5 38q42 0 64 -15.5t42 -50.5h2l12 56h106z" />
    <glyph glyph-name="r" unicode="r" horiz-adv-x="333" 
d="M54 0l116 538h107l-14 -63h2q28 35 65.5 54t77.5 19h23l-25 -117q-14 4 -29.5 7.5t-40.5 3.5q-29 0 -55.5 -18t-34.5 -54l-80 -370h-112z" />
    <glyph glyph-name="s" unicode="s" horiz-adv-x="389" 
d="M342 389v4q0 63 -50 63q-22 0 -37.5 -11t-20.5 -32q-1 -4 -1 -11q0 -26 24 -48t53.5 -47.5t53.5 -58t24 -78.5q0 -19 -4 -35q-16 -72 -68 -108.5t-121 -36.5q-71 0 -104.5 36t-33.5 102v12l104 27q0 -5 -0.5 -8.5t-0.5 -7.5q0 -29 11 -49t45 -20q22 0 38.5 12t21.5 35
q1 4 1.5 7t0.5 6q0 19 -11.5 35.5t-28.5 33t-37.5 33t-37.5 35.5t-28.5 42t-11.5 52q0 14 3 31q7 32 24 58.5t41.5 45.5t54 29.5t61.5 10.5q66 0 99.5 -38.5t33.5 -101.5v-3z" />
    <glyph glyph-name="t" unicode="t" horiz-adv-x="278" 
d="M106 446l20 92h62l31 145h112l-31 -145h75l-20 -92h-75l-67 -310q-1 -5 -1.5 -8.5t-0.5 -7.5q0 -28 30 -28h37l-20 -96q-12 -3 -24.5 -4.5t-33.5 -1.5q-53 0 -80.5 20.5t-27.5 63.5q0 8 1 17.5t3 19.5l72 335h-62z" />
    <glyph glyph-name="u" unicode="u" 
d="M506 538l-116 -538h-106l11 54q-21 -15 -37.5 -27t-33.5 -20t-36 -12.5t-43 -4.5q-36 0 -54.5 20t-18.5 56q0 8 1 17.5t3 19.5l94 435h112l-90 -417q-1 -4 -1 -12q0 -27 32 -27q18 0 37.5 10t42.5 24l91 422h112z" />
    <glyph glyph-name="v" unicode="v" horiz-adv-x="389" 
d="M381 538h114l-246 -538h-109l-14 538h114l-9 -360h2z" />
    <glyph glyph-name="w" unicode="w" horiz-adv-x="556" 
d="M352 537h83l-13 -335h2l134 336h108l-240 -538h-90l12 340h-2l-146 -340h-90l12 538h108l-24 -336h2z" />
    <glyph glyph-name="x" unicode="x" horiz-adv-x="389" 
d="M193 285l-56 253h116l24 -150l93 150h116l-170 -251l60 -287h-116l-26 182h-2l-104 -182h-116z" />
    <glyph glyph-name="y" unicode="y" horiz-adv-x="389" 
d="M382 538h113l-266 -578q-17 -37 -35.5 -61.5t-40.5 -39.5t-48 -21.5t-57 -6.5h-47l20 92h27q42 0 62.5 22t30.5 65q4 20 4 46q0 6 -0.5 12t-0.5 13l-18 457h114l-3 -344h2z" />
    <glyph glyph-name="z" unicode="z" horiz-adv-x="389" 
d="M140 446l20 92h315l-20 -92l-286 -354h209l-19 -92h-329l19 92l282 354h-191z" />
    <glyph glyph-name="braceleft" unicode="{" horiz-adv-x="278" 
d="M76 354q22 0 43 19t30 61l44 202q11 48 38 72t87 24h110l-10 -48h-82q-20 0 -31 -13.5t-16 -36.5l-42 -194q-7 -30 -20 -51.5t-28 -35t-29.5 -20t-23.5 -7.5l-1 -3q7 -1 17 -5.5t18 -13.5t14 -24t6 -36q0 -19 -4 -38l-42 -194q-2 -6 -2 -11v-10q0 -14 6 -21.5t21 -7.5h82
l-10 -48h-110q-48 0 -67.5 15t-19.5 46q0 8 1 16.5t3 18.5l44 206q3 16 3 29q0 26 -12 38.5t-29 12.5z" />
    <glyph glyph-name="bar" unicode="|" horiz-adv-x="222" 
d="M220 732h98l-161 -742h-98z" />
    <glyph glyph-name="braceright" unicode="}" horiz-adv-x="278" 
d="M341 292q-22 0 -43 -19t-31 -61l-43 -202q-11 -48 -38 -72t-87 -24h-109l10 48h81q20 0 31 13.5t16 36.5l42 194q7 30 20 51.5t28 35t29.5 20t23.5 7.5v3q-7 1 -16.5 5.5t-17.5 13.5t-14 24t-6 36q0 19 4 38l42 194q2 6 2 11v10q0 14 -6 21.5t-21 7.5h-82l10 48h110
q48 0 67.5 -15t19.5 -46q0 -8 -1 -16.5t-3 -18.5l-44 -206q-4 -15 -4 -30q0 -26 12.5 -38t29.5 -12z" />
    <glyph glyph-name="asciitilde" unicode="~" horiz-adv-x="600" 
d="M592 249q-17 -13 -33.5 -26.5t-34.5 -25t-38 -19t-43 -7.5q-28 0 -50.5 9.5t-44.5 23.5q-19 12 -46.5 21.5t-62.5 9.5q-33 0 -56.5 -20.5t-40.5 -43.5l-26 86q14 13 29.5 26.5t34 25t40 19t46.5 7.5q26 0 52 -9.5t52 -22.5q26 -12 47.5 -22t47.5 -10q30 0 54.5 20.5
t47.5 43.5z" />
    <glyph glyph-name="exclamdown" unicode="&#xa1;" horiz-adv-x="278" 
d="M314 538l-26 -118h-118l26 118h118zM162 -184h-126l132 510h82z" />
    <glyph glyph-name="cent" unicode="&#xa2;" 
d="M339 465q-5 1 -16 1q-32 0 -56.5 -20.5t-35.5 -67.5l-43 -198q-1 -5 -1 -15v-9t1 -8h2zM375 364l3 14q4 16 4 31q0 16 -6 28l-164 -337q11 -8 30 -8q32 0 56 20.5t34 67.5l8 34h112l-3 -14q-10 -44 -27.5 -81t-44.5 -63.5t-65 -41t-89 -14.5q-26 0 -43 4l-59 -120h-75
l72 145q-24 17 -34.5 43.5t-10.5 60.5q0 29 8 67l34 158q10 44 27.5 81t45.5 63.5t66 41t89 14.5q9 0 16.5 -0.5t15.5 -1.5l63 128h74l-74 -150q25 -17 36.5 -44.5t11.5 -62.5q0 -31 -7 -63h-104z" />
    <glyph glyph-name="sterling" unicode="&#xa3;" 
d="M55 97q25 8 43.5 23t33 41.5t26 65t23.5 92.5h-77l18 84h63q0 14 -0.5 28.5t-0.5 28.5q0 31 1.5 58.5t6.5 48.5q17 78 66.5 121.5t134.5 43.5q127 0 127 -122q0 -37 -10 -80h-102q6 37 6 60q0 29 -10.5 39.5t-33.5 10.5q-49 0 -64 -64q-5 -23 -6 -44.5t-1 -44.5v-43v-20
t-1 -21h99l-18 -84h-90q-8 -33 -15.5 -61.5t-16.5 -53t-20 -46.5t-27 -42q13 -11 29 -17.5t35 -6.5q16 0 28 8.5t21 23.5t15 34.5t11 40.5h100l-13 -59q-16 -71 -59 -110.5t-107 -39.5q-38 0 -66.5 13.5t-50.5 34.5q-30 -18 -59.5 -31.5t-61.5 -16.5z" />
    <glyph glyph-name="currency" unicode="&#xa4;" 
d="M188 361q-3 -15 -3 -28q0 -39 24.5 -64t64.5 -25q23 0 45.5 9t41 24.5t32 37t19.5 46.5q3 13 3 26q0 40 -25 65.5t-65 25.5q-23 0 -45.5 -9t-41 -25t-32 -37t-18.5 -46zM417 146l-38 48q-27 -17 -59 -26.5t-64 -9.5q-33 0 -61 9.5t-49 26.5l-57 -48l-38 53l57 46
q-17 32 -17 72q0 19 5 44q7 32 23 62t39 54l-37 46l61 53l37 -48q28 17 60 26.5t65 9.5q32 0 60 -9.5t48 -26.5l58 48l39 -53l-57 -46q16 -31 16 -74q0 -23 -4 -42q-8 -32 -24 -62t-38 -54l37 -46z" />
    <glyph glyph-name="yen" unicode="&#xa5;" 
d="M501 384h-121l-45 -80h148l-18 -84h-148l-47 -220h-96l47 220h-148l18 84h148l-9 80h-121l18 84h87l-36 254h100l36 -299h2l162 299h100l-146 -254h87z" />
    <glyph glyph-name="brokenbar" unicode="&#xa6;" horiz-adv-x="222" 
d="M252 426h-98l66 306h98zM157 -10h-98l67 306h98z" />
    <glyph glyph-name="section" unicode="&#xa7;" horiz-adv-x="500" 
d="M230 395q0 -14 15 -42t35.5 -56.5t42 -49.5t35.5 -21q20 0 36 13.5t20 30.5v3q0 13 -14.5 40.5t-35 56t-43 50t-38.5 21.5q-21 0 -35 -12.5t-18 -29.5v-4zM463 602q-6 8 -12 17.5t-13.5 17t-17.5 12.5t-22 5q-52 0 -62 -46q-1 -4 -1 -11q0 -20 13 -41t32.5 -43.5
t42.5 -47t42.5 -50t32.5 -53.5t13 -57q0 -13 -3 -25q-11 -49 -46 -82.5t-87 -35.5q14 -17 22 -34.5t8 -40.5q0 -17 -4 -33q-6 -30 -21.5 -54.5t-36.5 -42t-47.5 -27.5t-55.5 -10q-55 0 -88.5 22t-63.5 59l85 57q8 -23 22 -41.5t44 -18.5q26 0 45 12t24 38q1 4 1 11
q0 20 -13 42.5t-32.5 47t-42 51t-42 54t-32.5 56t-13 57.5v12t2 12q11 51 48 80t88 34q-31 27 -31 73q0 17 4 32q11 53 54 87.5t116 34.5q46 0 78.5 -23.5t49.5 -56.5z" />
    <glyph glyph-name="dieresis" unicode="&#xa8;" horiz-adv-x="222" 
d="M242 722l-24 -108h-108l24 108h108zM268 614l24 108h108l-24 -108h-108z" />
    <glyph glyph-name="copyright" unicode="&#xa9;" horiz-adv-x="800" 
d="M659 299q-14 -37 -37 -66t-51.5 -49.5t-61 -31t-65.5 -10.5q-41 0 -72.5 12.5t-53 34.5t-33 52.5t-11.5 66.5q0 26 6 55q10 48 33.5 88.5t57 70t76 46t91.5 16.5q66 0 106.5 -36t40.5 -105v-13h-78q0 38 -24 57t-62 19q-57 0 -95 -39t-51 -102q-5 -23 -5 -42
q0 -45 23.5 -74t67.5 -29q42 0 73 20.5t44 58.5h81zM760 361q8 38 8 69q0 50 -16.5 91.5t-46.5 71t-72 45.5t-92 16q-59 0 -115 -21.5t-102.5 -60.5t-80 -93t-47.5 -118q-4 -19 -6 -36t-2 -34q0 -50 16.5 -91t46 -70.5t71 -45.5t92.5 -16q58 0 114.5 21.5t103 60.5t80.5 93
t48 118zM397 -10q-66 0 -122 20t-97.5 57t-65 90t-23.5 119q0 40 9 85q18 84 64 152.5t109 117t137.5 75t149.5 26.5q66 0 122.5 -20t98 -57.5t65 -91t23.5 -119.5q0 -40 -9 -83q-18 -85 -64.5 -153.5t-109.5 -117t-137.5 -74.5t-149.5 -26z" />
    <glyph glyph-name="ordfeminine" unicode="&#xaa;" horiz-adv-x="266" 
d="M284 559q-50 -23 -67 -39.5t-21 -37.5q-1 -3 -1 -8q0 -18 24 -18q15 0 28.5 9t21.5 21zM150 631q14 49 52 75t92 26q44 0 67 -16t23 -48q0 -11 -3 -24l-45 -208q-2 -8 -2 -17v-17h-70v4v12v5q-23 -15 -44 -21t-47 -6q-31 0 -45.5 14.5t-14.5 38.5q0 5 0.5 10t1.5 10
q11 53 56.5 86t125.5 61l4 19q1 5 1.5 8.5t0.5 6.5q0 22 -28 22q-22 0 -32 -11.5t-15 -29.5h-78z" />
    <glyph glyph-name="guillemotleft" unicode="&#xab;" horiz-adv-x="500" 
d="M465 115h-96l-81 155l148 153h99l-150 -154zM298 115h-96l-81 155l148 153h99l-150 -154z" />
    <glyph glyph-name="logicalnot" unicode="&#xac;" horiz-adv-x="600" 
d="M521 308h-408l21 98h506l-66 -307h-98z" />
    <glyph glyph-name="registered" unicode="&#xae;" horiz-adv-x="800" 
d="M419 395h71q45 0 66 14.5t28 43.5q2 10 2 14q0 21 -18.5 29.5t-57.5 8.5h-67zM367 154h-82l90 415h157q67 0 102.5 -19.5t35.5 -67.5q0 -19 -4 -36q-12 -57 -47 -82t-77 -29l61 -181h-91l-55 177h-52zM760 361q8 38 8 69q0 50 -16.5 91.5t-46.5 71t-72 45.5t-92 16
q-59 0 -115 -21.5t-102.5 -60.5t-80 -93t-47.5 -118q-4 -19 -6 -36t-2 -34q0 -50 16.5 -91t46 -70.5t71 -45.5t92.5 -16q58 0 114.5 21.5t103 60.5t80.5 93t48 118zM397 -10q-66 0 -122 20t-97.5 57t-65 90t-23.5 119q0 40 9 85q18 84 64 152.5t109 117t137.5 75t149.5 26.5
q66 0 122.5 -20t98 -57.5t65 -91t23.5 -119.5q0 -40 -9 -83q-18 -85 -64.5 -153.5t-109.5 -117t-137.5 -74.5t-149.5 -26z" />
    <glyph glyph-name="macron" unicode="&#xaf;" horiz-adv-x="222" 
d="M115 701h294l-14 -64h-294z" />
    <glyph glyph-name="macron" unicode="&#x2c9;" horiz-adv-x="222" 
d="M115 701h294l-14 -64h-294z" />
    <glyph glyph-name="degree" unicode="&#xb0;" horiz-adv-x="400" 
d="M308 502q36 0 64.5 25.5t36.5 61.5q1 5 1.5 10t0.5 10q0 29 -17 48t-48 19q-36 0 -64.5 -25.5t-36.5 -61.5q-1 -5 -1.5 -10t-0.5 -10q0 -29 17 -48t48 -19zM296 446q-53 0 -84.5 31.5t-31.5 80.5q0 14 3 31q6 30 23 56t40.5 45.5t52.5 30.5t59 11q53 0 84.5 -31.5
t31.5 -80.5q0 -15 -3 -31q-6 -30 -23 -56t-40.5 -45.5t-52.5 -30.5t-59 -11z" />
    <glyph glyph-name="plusminus" unicode="&#xb1;" horiz-adv-x="600" 
d="M68 98h506l-21 -98h-506zM360 506h98l-30 -137h204l-21 -98h-204l-29 -137h-98l29 137h-204l21 98h204z" />
    <glyph glyph-name="twosuperior" unicode="&#xb2;" horiz-adv-x="266" 
d="M77 292l17 81q94 85 142 144t59 107q0 2 0.5 4t0.5 4q0 20 -23 20q-14 0 -25.5 -10t-14.5 -24l-4 -19h-86l4 20q5 24 19 44.5t34.5 36t46 24t54.5 8.5q44 0 67 -22.5t23 -54.5q0 -5 -0.5 -9.5t-1.5 -9.5q-6 -27 -16 -54t-30 -57.5t-54 -67.5t-86 -85h126l-17 -80h-235z
" />
    <glyph glyph-name="threesuperior" unicode="&#xb3;" horiz-adv-x="266" 
d="M196 418l-5 -21q-1 -4 -1 -10q0 -21 22 -21q14 0 22 9t13 30l6 25q3 13 3 23q0 20 -12.5 25.5t-36.5 5.5l16 74q28 0 44 10.5t24 47.5q1 5 1.5 8.5t0.5 7.5q0 24 -20 24q-13 0 -20.5 -8.5t-10.5 -19.5l-3 -17h-84l4 20q10 45 46 73t89 28q50 0 71.5 -24.5t21.5 -59.5
q0 -14 -3 -27q-8 -38 -22.5 -60.5t-46.5 -38.5q20 -11 28.5 -25t8.5 -34q0 -10 -2 -22t-5 -27q-14 -65 -50.5 -96.5t-102.5 -31.5q-42 0 -66.5 18t-24.5 56q0 17 4 33l5 25h86z" />
    <glyph glyph-name="acute" unicode="&#xb4;" horiz-adv-x="222" 
d="M253 602h-83l110 144h135z" />
    <glyph glyph-name="mu" unicode="&#xb5;" 
d="M506 538l-116 -538h-106l11 54q-19 -14 -34.5 -24.5t-30.5 -19t-31 -13.5t-36 -7l-34 -160h-112l153 708h112l-90 -417q-1 -4 -1 -12q0 -27 32 -27q18 0 37.5 10t42.5 24l91 422h112z" />
    <glyph glyph-name="mu" unicode="&#x3bc;" 
d="M506 538l-116 -538h-106l11 54q-19 -14 -34.5 -24.5t-30.5 -19t-31 -13.5t-36 -7l-34 -160h-112l153 708h112l-90 -417q-1 -4 -1 -12q0 -27 32 -27q18 0 37.5 10t42.5 24l91 422h112z" />
    <glyph glyph-name="paragraph" unicode="&#xb6;" horiz-adv-x="500" 
d="M271 352q-75 0 -115 38t-40 99q0 11 1.5 22t3.5 23q11 50 33.5 86t54.5 58.5t72.5 33t88.5 10.5h288l-14 -64h-56l-160 -738h-82l160 738h-87l-160 -738h-82z" />
    <glyph glyph-name="periodcentered" unicode="&#xb7;" horiz-adv-x="222" 
d="M98 253q6 28 29.5 47.5t52.5 19.5q24 0 39 -15t15 -38q0 -4 -0.5 -7t-1.5 -7q-6 -29 -29.5 -48t-51.5 -19q-25 0 -40 14.5t-15 37.5q0 5 2 15z" />
    <glyph glyph-name="periodcentered" unicode="&#x2219;" horiz-adv-x="222" 
d="M98 253q6 28 29.5 47.5t52.5 19.5q24 0 39 -15t15 -38q0 -4 -0.5 -7t-1.5 -7q-6 -29 -29.5 -48t-51.5 -19q-25 0 -40 14.5t-15 37.5q0 5 2 15z" />
    <glyph glyph-name="cedilla" unicode="&#xb8;" horiz-adv-x="222" 
d="M-27 -163q11 -6 29 -11.5t32 -5.5q26 0 44.5 12t22.5 29q1 3 1 8q0 15 -12 21.5t-28 6.5q-20 0 -37 -7l-18 18l88 92h48l-54 -60q5 1 10.5 1.5t10.5 0.5q29 -2 52.5 -16.5t23.5 -43.5q0 -4 -0.5 -7.5t-1.5 -8.5q-5 -24 -19.5 -43t-34.5 -32t-44 -20t-48 -7q-35 0 -58.5 9
t-34.5 14z" />
    <glyph glyph-name="onesuperior" unicode="&#xb9;" horiz-adv-x="266" 
d="M229 627h-52l11 48q32 11 59.5 25.5t51.5 31.5h49l-95 -440h-96z" />
    <glyph glyph-name="ordmasculine" unicode="&#xba;" horiz-adv-x="266" 
d="M297 619q3 13 3 22q0 27 -23 27q-30 0 -42 -49l-23 -110q-3 -12 -3 -22q0 -27 23 -27q32 0 42 49zM152 612q11 53 44 86.5t95 33.5q51 0 71.5 -21.5t20.5 -57.5q0 -10 -1.5 -20t-3.5 -21l-21 -95q-11 -54 -43.5 -87.5t-95.5 -33.5q-50 0 -71 22t-21 59q0 17 5 40z" />
    <glyph glyph-name="guillemotright" unicode="&#xbb;" horiz-adv-x="500" 
d="M231 269l-84 154h99l82 -153l-149 -155h-96zM398 269l-84 154h99l82 -153l-149 -155h-96z" />
    <glyph glyph-name="onequarter" unicode="&#xbc;" horiz-adv-x="666" 
d="M550 176l28 133h-2l-90 -133h64zM237 627h-52l11 48q32 11 59.5 25.5t51.5 30.5h49l-95 -439h-96zM71 -10l571 742h91l-571 -742h-91zM533 100h-142l17 80l184 253h95l-55 -257h38l-17 -76h-38l-21 -100h-82z" />
    <glyph glyph-name="onehalf" unicode="&#xbd;" horiz-adv-x="666" 
d="M235 627h-52l11 48q32 11 59.5 25.5t51.5 31.5h49l-95 -440h-96zM398 0l17 81q93 85 141.5 144t58.5 107q1 3 1 9q0 19 -23 19q-14 0 -25 -10t-14 -24l-4 -19h-86l4 20q5 24 19 44.5t34.5 36t46 24t54.5 8.5q44 0 67 -22.5t23 -54.5q0 -5 -0.5 -9.5t-1.5 -9.5
q-6 -27 -16.5 -54t-30.5 -57.5t-53.5 -67.5t-85.5 -85h126l-17 -80h-235zM63 -10l571 742h91l-571 -742h-91z" />
    <glyph glyph-name="threequarters" unicode="&#xbe;" horiz-adv-x="666" 
d="M550 176l28 133h-2l-90 -133h64zM206 418l-5 -21q-1 -4 -1 -10q0 -21 22 -21q14 0 22 9t13 30l6 25q3 13 3 23q0 20 -12.5 25.5t-36.5 5.5l16 74q28 0 44 10.5t24 47.5q1 5 1.5 8.5t0.5 7.5q0 24 -20 24q-13 0 -20.5 -8.5t-10.5 -19.5l-3 -17h-84l4 20q10 45 46 73t89 28
q50 0 71.5 -24.5t21.5 -59.5q0 -14 -3 -27q-8 -38 -22.5 -60.5t-46.5 -38.5q20 -11 28.5 -25t8.5 -34q0 -10 -2 -22t-5 -27q-14 -65 -50.5 -96.5t-102.5 -31.5q-42 0 -66.5 18t-24.5 56q0 17 4 33l5 25h86zM90 -10l571 742h91l-571 -742h-91zM533 100h-142l17 80l184 253h95
l-55 -257h38l-17 -76h-38l-21 -100h-82z" />
    <glyph glyph-name="questiondown" unicode="&#xbf;" horiz-adv-x="389" 
d="M381 538l-26 -118h-118l26 118h118zM322 326l-18 -84q-11 -52 -36.5 -94.5t-53.5 -78.5q-27 -36 -50 -67t-29 -59q-1 -4 -1 -11q0 -14 8.5 -24t24.5 -10t29 7t24 18t20 24.5t15 26.5l88 -36q-38 -66 -87.5 -99t-121.5 -33q-50 0 -84 29.5t-34 77.5q0 13 3 27
q12 55 38.5 89t56.5 66q15 16 30 33t28 38t24 47t18 59l12 54h96z" />
    <glyph glyph-name="Agrave" unicode="&#xc0;" 
d="M274 904h135l48 -144h-83zM230 268h100l18 310h-2zM132 0h-120l289 722h154l-23 -722h-120l12 160h-136z" />
    <glyph glyph-name="Aacute" unicode="&#xc1;" 
d="M398 760h-83l110 144h135zM230 268h100l18 310h-2zM132 0h-120l289 722h154l-23 -722h-120l12 160h-136z" />
    <glyph glyph-name="Acircumflex" unicode="&#xc2;" 
d="M230 268h100l18 310h-2zM362 904h110l65 -144h-92l-40 89l-78 -89h-92zM132 0h-120l289 722h154l-23 -722h-120l12 160h-136z" />
    <glyph glyph-name="Atilde" unicode="&#xc3;" 
d="M230 268h100l18 310h-2zM577 891q-9 -21 -20.5 -42.5t-27 -38t-35.5 -27t-45 -10.5q-18 0 -32.5 6t-28.5 14t-27 13.5t-29 5.5q-23 0 -34.5 -11t-16.5 -33h-56q9 21 20.5 42.5t27 38t35.5 27t45 10.5q18 0 32.5 -6t28.5 -13l27 -13.5t29 -6.5q23 0 34.5 11t16.5 33h56z
M132 0h-120l289 722h154l-23 -722h-120l12 160h-136z" />
    <glyph glyph-name="Adieresis" unicode="&#xc4;" 
d="M387 880l-23 -108h-108l23 108h108zM414 772l23 108h108l-23 -108h-108zM230 268h100l18 310h-2zM132 0h-120l289 722h154l-23 -722h-120l12 160h-136z" />
    <glyph glyph-name="Aring" unicode="&#xc5;" 
d="M356 862q-1 -4 -1 -11q0 -18 11.5 -29.5t30.5 -11.5q22 0 40 15t23 37q1 4 1 11q0 18 -11.5 29.5t-30.5 11.5q-22 0 -40 -15t-23 -37zM230 268h100l18 310h-2zM306 862q4 21 16.5 39.5t29 32.5t37 22t41.5 8q37 0 59.5 -23t22.5 -58v-11q0 -5 -2 -10q-5 -21 -17 -39.5
t-28.5 -32.5t-37 -22t-41.5 -8q-37 0 -59.5 23t-22.5 58v10q0 6 2 11zM132 0h-120l289 722h154l-23 -722h-120l12 160h-136z" />
    <glyph glyph-name="AE" unicode="&#xc6;" horiz-adv-x="722" 
d="M394 278l76 354h-2l-184 -354h110zM401 722h425l-24 -108h-212l-40 -186h164l-23 -108h-164l-46 -212h226l-23 -108h-350l36 170h-144l-88 -170h-126z" />
    <glyph glyph-name="Ccedilla" unicode="&#xc7;" horiz-adv-x="500" 
d="M111 -163q11 -6 29.5 -11.5t32.5 -5.5q26 0 44.5 12t22.5 29q1 3 1 8q0 15 -12 21.5t-28 6.5q-20 0 -37 -7l-18 18l79 83q-70 5 -101.5 43t-31.5 93q0 20 5 48l81 372q8 38 27 72t47.5 59t67.5 39.5t88 14.5q38 0 66 -11t46 -30t26.5 -45t8.5 -57q0 -27 -6 -55l-11 -53
h-124l12 56q4 16 4 32q0 29 -12.5 42t-32.5 13q-38 0 -56.5 -19.5t-27.5 -60.5l-79 -366q-4 -17 -4 -34q0 -23 12 -34.5t41 -11.5q34 0 51 19t25 54l18 87h124l-18 -83q-8 -36 -24.5 -67.5t-41 -56t-58 -40t-73.5 -19.5l-46 -52q5 1 10.5 1.5t10.5 0.5q29 -2 52.5 -16.5
t23.5 -43.5q0 -4 -0.5 -7.5t-1.5 -8.5q-5 -24 -19.5 -43t-34.5 -32t-44 -20t-48 -7q-36 0 -59.5 9t-34.5 14z" />
    <glyph glyph-name="Egrave" unicode="&#xc8;" 
d="M286 904h135l48 -144h-83zM60 0l156 722h332l-24 -108h-208l-40 -186h160l-23 -108h-160l-46 -212h222l-23 -108h-346z" />
    <glyph glyph-name="Eacute" unicode="&#xc9;" 
d="M410 760h-83l110 144h135zM60 0l156 722h332l-24 -108h-208l-40 -186h160l-23 -108h-160l-46 -212h222l-23 -108h-346z" />
    <glyph glyph-name="Ecircumflex" unicode="&#xca;" 
d="M374 904h110l65 -144h-92l-40 89l-78 -89h-92zM60 0l156 722h332l-24 -108h-208l-40 -186h160l-23 -108h-160l-46 -212h222l-23 -108h-346z" />
    <glyph glyph-name="Edieresis" unicode="&#xcb;" 
d="M426 772l23 108h108l-23 -108h-108zM399 880l-23 -108h-108l23 108h108zM60 0l156 722h332l-24 -108h-208l-40 -186h160l-23 -108h-160l-46 -212h222l-23 -108h-346z" />
    <glyph glyph-name="Igrave" unicode="&#xcc;" horiz-adv-x="278" 
d="M191 904h135l48 -144h-83zM77 0l156 722h124l-156 -722h-124z" />
    <glyph glyph-name="Iacute" unicode="&#xcd;" horiz-adv-x="278" 
d="M315 760h-83l110 144h135zM77 0l156 722h124l-156 -722h-124z" />
    <glyph glyph-name="Icircumflex" unicode="&#xce;" horiz-adv-x="278" 
d="M279 904h110l65 -144h-92l-40 89l-78 -89h-92zM77 0l156 722h124l-156 -722h-124z" />
    <glyph glyph-name="Idieresis" unicode="&#xcf;" horiz-adv-x="278" 
d="M331 772l23 108h108l-23 -108h-108zM304 880l-23 -108h-108l23 108h108zM77 0l156 722h124l-156 -722h-124z" />
    <glyph glyph-name="Eth" unicode="&#xd0;" horiz-adv-x="500" 
d="M327 320h-74l-47 -218h43q49 0 73.5 22t36.5 79l69 316q6 25 6 45q0 32 -17.5 44t-55.5 12h-43l-42 -192h74zM112 428h40l64 294h184q158 0 158 -142q0 -34 -9 -76l-62 -286q-24 -112 -85 -165t-158 -53h-184l69 320h-40z" />
    <glyph glyph-name="Ntilde" unicode="&#xd1;" horiz-adv-x="500" 
d="M605 891q-9 -21 -20.5 -42.5t-27 -38t-35.5 -27t-45 -10.5q-18 0 -32.5 6t-28.5 14t-27 13.5t-29 5.5q-23 0 -34.5 -11t-16.5 -33h-56q9 21 20.5 42.5t27 38t35.5 27t45 10.5q18 0 32.5 -6t28.5 -13l27 -13.5t29 -6.5q23 0 34.5 11t16.5 33h56zM60 0l156 722h115l61 -413
h2l90 413h112l-156 -722h-108l-61 451h-2l-97 -451h-112z" />
    <glyph glyph-name="Ograve" unicode="&#xd2;" horiz-adv-x="500" 
d="M302 904h135l48 -144h-83zM222 178q-4 -17 -4 -34q0 -23 12 -34.5t41 -11.5q38 0 56 19.5t27 60.5l79 366q5 22 5 35q0 23 -12 34t-41 11q-38 0 -56.5 -19.5t-27.5 -60.5zM178 547q8 38 27 72t47.5 59t67.5 39.5t88 14.5q81 0 118.5 -38.5t37.5 -97.5q0 -24 -6 -49
l-81 -372q-8 -38 -27 -72t-47.5 -59t-67.5 -39.5t-88 -14.5q-81 0 -118.5 38.5t-37.5 97.5q0 23 6 49z" />
    <glyph glyph-name="Oacute" unicode="&#xd3;" horiz-adv-x="500" 
d="M426 760h-83l110 144h135zM222 178q-4 -17 -4 -34q0 -23 12 -34.5t41 -11.5q38 0 56 19.5t27 60.5l79 366q5 22 5 35q0 23 -12 34t-41 11q-38 0 -56.5 -19.5t-27.5 -60.5zM178 547q8 38 27 72t47.5 59t67.5 39.5t88 14.5q81 0 118.5 -38.5t37.5 -97.5q0 -24 -6 -49
l-81 -372q-8 -38 -27 -72t-47.5 -59t-67.5 -39.5t-88 -14.5q-81 0 -118.5 38.5t-37.5 97.5q0 23 6 49z" />
    <glyph glyph-name="Ocircumflex" unicode="&#xd4;" horiz-adv-x="500" 
d="M390 904h110l65 -144h-92l-40 89l-78 -89h-92zM222 178q-4 -17 -4 -34q0 -23 12 -34.5t41 -11.5q38 0 56 19.5t27 60.5l79 366q5 22 5 35q0 23 -12 34t-41 11q-38 0 -56.5 -19.5t-27.5 -60.5zM178 547q8 38 27 72t47.5 59t67.5 39.5t88 14.5q81 0 118.5 -38.5t37.5 -97.5
q0 -24 -6 -49l-81 -372q-8 -38 -27 -72t-47.5 -59t-67.5 -39.5t-88 -14.5q-81 0 -118.5 38.5t-37.5 97.5q0 23 6 49z" />
    <glyph glyph-name="Otilde" unicode="&#xd5;" horiz-adv-x="500" 
d="M605 891q-9 -21 -20.5 -42.5t-27 -38t-35.5 -27t-45 -10.5q-18 0 -32.5 6t-28.5 14t-27 13.5t-29 5.5q-23 0 -34.5 -11t-16.5 -33h-56q9 21 20.5 42.5t27 38t35.5 27t45 10.5q18 0 32.5 -6t28.5 -13l27 -13.5t29 -6.5q23 0 34.5 11t16.5 33h56zM222 178q-4 -17 -4 -34
q0 -23 12 -34.5t41 -11.5q38 0 56 19.5t27 60.5l79 366q5 22 5 35q0 23 -12 34t-41 11q-38 0 -56.5 -19.5t-27.5 -60.5zM178 547q8 38 27 72t47.5 59t67.5 39.5t88 14.5q81 0 118.5 -38.5t37.5 -97.5q0 -24 -6 -49l-81 -372q-8 -38 -27 -72t-47.5 -59t-67.5 -39.5t-88 -14.5
q-81 0 -118.5 38.5t-37.5 97.5q0 23 6 49z" />
    <glyph glyph-name="Odieresis" unicode="&#xd6;" horiz-adv-x="500" 
d="M415 880l-23 -108h-108l23 108h108zM442 772l23 108h108l-23 -108h-108zM222 178q-4 -17 -4 -34q0 -23 12 -34.5t41 -11.5q38 0 56 19.5t27 60.5l79 366q5 22 5 35q0 23 -12 34t-41 11q-38 0 -56.5 -19.5t-27.5 -60.5zM178 547q8 38 27 72t47.5 59t67.5 39.5t88 14.5
q81 0 118.5 -38.5t37.5 -97.5q0 -24 -6 -49l-81 -372q-8 -38 -27 -72t-47.5 -59t-67.5 -39.5t-88 -14.5q-81 0 -118.5 38.5t-37.5 97.5q0 23 6 49z" />
    <glyph glyph-name="multiply" unicode="&#xd7;" horiz-adv-x="600" 
d="M424 253l144 -183l-84 -70l-145 184l-223 -184l-54 70l223 183l-144 184l84 69l144 -184l224 184l54 -69z" />
    <glyph glyph-name="Oslash" unicode="&#xd8;" horiz-adv-x="500" 
d="M223 121q6 -23 48 -23q38 0 56 19.5t27 60.5l53 246h-2zM437 582q0 21 -12 31.5t-40 10.5q-38 0 -56.5 -19.5t-27.5 -60.5l-62 -287h2zM84 -120h-82l107 176q-17 30 -17 72q0 11 1 23t4 24l81 372q8 38 27 72t47.5 59t67.5 39.5t88 14.5q60 0 98 -24l59 96h81l-92 -152
q9 -24 9 -56q0 -12 -1.5 -24t-3.5 -25l-81 -372q-8 -38 -27 -72t-47.5 -59t-67.5 -39.5t-88 -14.5q-50 0 -86 17z" />
    <glyph glyph-name="Ugrave" unicode="&#xd9;" horiz-adv-x="500" 
d="M302 904h135l48 -144h-83zM216 722h124l-118 -545q-4 -15 -4 -30q0 -49 53 -49q65 0 83 79l118 545h124l-117 -540q-20 -94 -81.5 -143t-150.5 -49q-75 0 -115 34.5t-40 100.5q0 13 2 27.5t5 29.5z" />
    <glyph glyph-name="Uacute" unicode="&#xda;" horiz-adv-x="500" 
d="M426 760h-83l110 144h135zM216 722h124l-118 -545q-4 -15 -4 -30q0 -49 53 -49q65 0 83 79l118 545h124l-117 -540q-20 -94 -81.5 -143t-150.5 -49q-75 0 -115 34.5t-40 100.5q0 13 2 27.5t5 29.5z" />
    <glyph glyph-name="Ucircumflex" unicode="&#xdb;" horiz-adv-x="500" 
d="M390 904h110l65 -144h-92l-40 89l-78 -89h-92zM216 722h124l-118 -545q-4 -15 -4 -30q0 -49 53 -49q65 0 83 79l118 545h124l-117 -540q-20 -94 -81.5 -143t-150.5 -49q-75 0 -115 34.5t-40 100.5q0 13 2 27.5t5 29.5z" />
    <glyph glyph-name="Udieresis" unicode="&#xdc;" horiz-adv-x="500" 
d="M442 772l23 108h108l-23 -108h-108zM415 880l-23 -108h-108l23 108h108zM216 722h124l-118 -545q-4 -15 -4 -30q0 -49 53 -49q65 0 83 79l118 545h124l-117 -540q-20 -94 -81.5 -143t-150.5 -49q-75 0 -115 34.5t-40 100.5q0 13 2 27.5t5 29.5z" />
    <glyph glyph-name="Yacute" unicode="&#xdd;" 
d="M398 760h-83l110 144h135zM284 0h-124l64 300l-58 422h126l27 -275h2l143 275h126l-242 -422z" />
    <glyph glyph-name="Thorn" unicode="&#xde;" horiz-adv-x="500" 
d="M239 258h48q30 0 52 5t37 18t24.5 34.5t16.5 53.5q3 15 5 27t2 23q0 35 -21 48t-68 13h-48zM309 582h54q94 0 140.5 -32t46.5 -106q0 -33 -9 -75q-12 -58 -34.5 -98.5t-55.5 -66t-78 -37t-102 -11.5h-54l-33 -156h-124l156 722h124z" />
    <glyph glyph-name="germandbls" unicode="&#xdf;" 
d="M54 0l116 540q20 94 72 141t128 47q38 0 64 -9t42 -25.5t23 -39t7 -49.5q0 -35 -9 -74q-13 -60 -37 -94.5t-65 -39.5v-2q31 -11 46.5 -35t15.5 -68q0 -35 -11 -88q-13 -59 -29.5 -98.5t-36 -63t-43 -33t-51.5 -9.5h-66l20 95q12 -3 26 -3q23 0 34.5 16.5t19.5 50.5
l22 101q3 16 3 30q0 48 -48 48l20 92q15 2 25 6t16.5 12t11 21t9.5 33l15 70q3 15 3 26q0 38 -41 38q-29 0 -45 -17.5t-24 -56.5l-121 -562h-112z" />
    <glyph glyph-name="agrave" unicode="&#xe0;" 
d="M240 746h135l48 -144h-83zM332 273q-43 -22 -71.5 -40t-46.5 -35t-27 -33t-13 -34q-1 -5 -1.5 -9t-0.5 -8q0 -32 43 -32q23 0 45 15t41 35zM124 380q22 82 79.5 125t136.5 43q66 0 101.5 -26t35.5 -79q0 -10 -1.5 -20t-3.5 -21l-75 -345q-3 -13 -4 -28t-1 -29h-107
q2 11 1.5 21.5t1.5 20.5q-38 -26 -70 -39t-73 -13q-47 0 -69 24t-22 62q0 19 4 35q9 44 31.5 79t58.5 64t86 53.5t115 47.5l7 32q3 15 3 26q0 43 -43 43q-38 0 -54.5 -20.5t-25.5 -55.5h-112z" />
    <glyph glyph-name="aacute" unicode="&#xe1;" 
d="M364 602h-83l110 144h135zM332 273q-43 -22 -71.5 -40t-46.5 -35t-27 -33t-13 -34q-1 -5 -1.5 -9t-0.5 -8q0 -32 43 -32q23 0 45 15t41 35zM124 380q22 82 79.5 125t136.5 43q66 0 101.5 -26t35.5 -79q0 -10 -1.5 -20t-3.5 -21l-75 -345q-3 -13 -4 -28t-1 -29h-107
q2 11 1.5 21.5t1.5 20.5q-38 -26 -70 -39t-73 -13q-47 0 -69 24t-22 62q0 19 4 35q9 44 31.5 79t58.5 64t86 53.5t115 47.5l7 32q3 15 3 26q0 43 -43 43q-38 0 -54.5 -20.5t-25.5 -55.5h-112z" />
    <glyph glyph-name="acircumflex" unicode="&#xe2;" 
d="M332 273q-43 -22 -71.5 -40t-46.5 -35t-27 -33t-13 -34q-1 -5 -1.5 -9t-0.5 -8q0 -32 43 -32q23 0 45 15t41 35zM328 746h110l65 -144h-92l-40 89l-78 -89h-92zM124 380q22 82 79.5 125t136.5 43q66 0 101.5 -26t35.5 -79q0 -10 -1.5 -20t-3.5 -21l-75 -345
q-3 -13 -4 -28t-1 -29h-107q2 11 1.5 21.5t1.5 20.5q-38 -26 -70 -39t-73 -13q-47 0 -69 24t-22 62q0 19 4 35q9 44 31.5 79t58.5 64t86 53.5t115 47.5l7 32q3 15 3 26q0 43 -43 43q-38 0 -54.5 -20.5t-25.5 -55.5h-112z" />
    <glyph glyph-name="atilde" unicode="&#xe3;" 
d="M332 273q-43 -22 -71.5 -40t-46.5 -35t-27 -33t-13 -34q-1 -5 -1.5 -9t-0.5 -8q0 -32 43 -32q23 0 45 15t41 35zM543 733q-9 -21 -20.5 -42.5t-27 -38t-35.5 -27t-45 -10.5q-18 0 -32.5 6t-28.5 14t-27 13.5t-29 5.5q-23 0 -34.5 -11t-16.5 -33h-56q9 21 20.5 42.5t27 38
t35.5 27t45 10.5q18 0 32.5 -6t28.5 -13l27 -13.5t29 -6.5q23 0 34.5 11t16.5 33h56zM124 380q22 82 79.5 125t136.5 43q66 0 101.5 -26t35.5 -79q0 -10 -1.5 -20t-3.5 -21l-75 -345q-3 -13 -4 -28t-1 -29h-107q2 11 1.5 21.5t1.5 20.5q-38 -26 -70 -39t-73 -13
q-47 0 -69 24t-22 62q0 19 4 35q9 44 31.5 79t58.5 64t86 53.5t115 47.5l7 32q3 15 3 26q0 43 -43 43q-38 0 -54.5 -20.5t-25.5 -55.5h-112z" />
    <glyph glyph-name="adieresis" unicode="&#xe4;" 
d="M353 722l-24 -108h-108l24 108h108zM379 614l24 108h108l-24 -108h-108zM332 273q-43 -22 -71.5 -40t-46.5 -35t-27 -33t-13 -34q-1 -5 -1.5 -9t-0.5 -8q0 -32 43 -32q23 0 45 15t41 35zM124 380q22 82 79.5 125t136.5 43q66 0 101.5 -26t35.5 -79q0 -10 -1.5 -20
t-3.5 -21l-75 -345q-3 -13 -4 -28t-1 -29h-107q2 11 1.5 21.5t1.5 20.5q-38 -26 -70 -39t-73 -13q-47 0 -69 24t-22 62q0 19 4 35q9 44 31.5 79t58.5 64t86 53.5t115 47.5l7 32q3 15 3 26q0 43 -43 43q-38 0 -54.5 -20.5t-25.5 -55.5h-112z" />
    <glyph glyph-name="aring" unicode="&#xe5;" 
d="M322 704q-1 -4 -1 -11q0 -18 11.5 -29.5t30.5 -11.5q22 0 40 15t23 37q1 4 1 11q0 18 -11.5 29.5t-30.5 11.5q-22 0 -40 -15t-23 -37zM332 273q-43 -22 -71.5 -40t-46.5 -35t-27 -33t-13 -34q-1 -5 -1.5 -9t-0.5 -8q0 -32 43 -32q23 0 45 15t41 35zM272 704
q4 21 16.5 39.5t29 32.5t37 22t41.5 8q37 0 59.5 -23t22.5 -58v-11q0 -5 -2 -10q-5 -21 -17 -39.5t-28.5 -32.5t-37 -22t-41.5 -8q-37 0 -59.5 23t-22.5 58v10q0 6 2 11zM124 380q22 82 79.5 125t136.5 43q66 0 101.5 -26t35.5 -79q0 -10 -1.5 -20t-3.5 -21l-75 -345
q-3 -13 -4 -28t-1 -29h-107q2 11 1.5 21.5t1.5 20.5q-38 -26 -70 -39t-73 -13q-47 0 -69 24t-22 62q0 19 4 35q9 44 31.5 79t58.5 64t86 53.5t115 47.5l7 32q3 15 3 26q0 43 -43 43q-38 0 -54.5 -20.5t-25.5 -55.5h-112z" />
    <glyph glyph-name="ae" unicode="&#xe6;" horiz-adv-x="667" 
d="M580 340l6 28q5 23 5 38q0 50 -48 50q-30 0 -49.5 -20.5t-30.5 -67.5l-6 -28h123zM331 273q-43 -22 -71.5 -40t-46 -35t-26.5 -33t-13 -34q-1 -5 -1.5 -9t-0.5 -8q0 -32 43 -32q23 0 45 15t40 35zM437 248l-17 -78q-2 -11 -3.5 -20.5t-1.5 -17.5q0 -50 47 -50
q30 0 50.5 20.5t30.5 67.5l3 12h112q-10 -43 -27.5 -78t-44 -60.5t-62 -39.5t-82.5 -14q-50 0 -79.5 19t-41.5 51q-33 -24 -58 -38t-44.5 -21t-34.5 -9t-27 -2q-55 0 -79 24.5t-24 62.5q0 18 4 34q9 44 31.5 79t58 64t85.5 53.5t115 47.5l7 32q3 15 3 27q0 42 -42 42
q-38 0 -54.5 -20.5t-25.5 -55.5h-112q22 82 77.5 125t122.5 43q87 0 118 -50q26 26 59 38t71 12q70 0 100 -34.5t30 -93.5q0 -17 -2 -34.5t-6 -37.5l-22 -100h-235z" />
    <glyph glyph-name="ccedilla" unicode="&#xe7;" 
d="M83 -163q11 -6 29.5 -11.5t32.5 -5.5q26 0 44.5 12t22.5 29q1 3 1 8q0 15 -12 21.5t-28 6.5q-20 0 -37 -7l-18 18l79 83q-63 5 -90 39t-27 88q0 33 9 72l34 158q9 44 26.5 81t43.5 63.5t62.5 41t84.5 14.5q75 0 107 -34.5t32 -94.5q0 -15 -1.5 -31.5t-5.5 -33.5h-112
l3 14q5 23 5 38q0 50 -48 50q-30 0 -50 -20.5t-31 -67.5l-43 -198q-4 -19 -4 -37q0 -27 12 -39t35 -12q30 0 50.5 20.5t30.5 67.5l8 34h112l-3 -14q-18 -83 -63 -136.5t-128 -61.5l-46 -52q5 1 10.5 1.5t10.5 0.5q29 -2 52.5 -16.5t23.5 -43.5q0 -4 -0.5 -7.5t-1.5 -8.5
q-5 -24 -19.5 -43t-34.5 -32t-44 -20t-48 -7q-36 0 -59.5 9t-34.5 14z" />
    <glyph glyph-name="egrave" unicode="&#xe8;" 
d="M357 340l6 28q5 23 5 38q0 50 -48 50q-30 0 -50 -20.5t-31 -67.5l-6 -28h124zM240 746h135l48 -144h-83zM449 248h-236l-17 -78q-4 -19 -4 -37q0 -27 12 -39t35 -12q30 0 50.5 20.5t30.5 67.5l3 12h112q-10 -43 -27.5 -78t-44 -60.5t-62 -39.5t-82.5 -14q-75 0 -107 34.5
t-32 93.5q0 33 9 72l34 158q9 44 26.5 81t43.5 63.5t62.5 41t84.5 14.5q75 0 107 -34.5t32 -94.5q0 -31 -8 -71z" />
    <glyph glyph-name="eacute" unicode="&#xe9;" 
d="M357 340l6 28q5 23 5 38q0 50 -48 50q-30 0 -50 -20.5t-31 -67.5l-6 -28h124zM364 602h-83l110 144h135zM449 248h-236l-17 -78q-4 -19 -4 -37q0 -27 12 -39t35 -12q30 0 50.5 20.5t30.5 67.5l3 12h112q-10 -43 -27.5 -78t-44 -60.5t-62 -39.5t-82.5 -14q-75 0 -107 34.5
t-32 93.5q0 33 9 72l34 158q9 44 26.5 81t43.5 63.5t62.5 41t84.5 14.5q75 0 107 -34.5t32 -94.5q0 -31 -8 -71z" />
    <glyph glyph-name="ecircumflex" unicode="&#xea;" 
d="M357 340l6 28q5 23 5 38q0 50 -48 50q-30 0 -50 -20.5t-31 -67.5l-6 -28h124zM328 746h110l65 -144h-92l-40 89l-78 -89h-92zM449 248h-236l-17 -78q-4 -19 -4 -37q0 -27 12 -39t35 -12q30 0 50.5 20.5t30.5 67.5l3 12h112q-10 -43 -27.5 -78t-44 -60.5t-62 -39.5
t-82.5 -14q-75 0 -107 34.5t-32 93.5q0 33 9 72l34 158q9 44 26.5 81t43.5 63.5t62.5 41t84.5 14.5q75 0 107 -34.5t32 -94.5q0 -31 -8 -71z" />
    <glyph glyph-name="edieresis" unicode="&#xeb;" 
d="M353 722l-24 -108h-108l24 108h108zM379 614l24 108h108l-24 -108h-108zM357 340l6 28q5 23 5 38q0 50 -48 50q-30 0 -50 -20.5t-31 -67.5l-6 -28h124zM449 248h-236l-17 -78q-4 -19 -4 -37q0 -27 12 -39t35 -12q30 0 50.5 20.5t30.5 67.5l3 12h112q-10 -43 -27.5 -78
t-44 -60.5t-62 -39.5t-82.5 -14q-75 0 -107 34.5t-32 93.5q0 33 9 72l34 158q9 44 26.5 81t43.5 63.5t62.5 41t84.5 14.5q75 0 107 -34.5t32 -94.5q0 -31 -8 -71z" />
    <glyph glyph-name="igrave" unicode="&#xec;" horiz-adv-x="222" 
d="M129 746h135l48 -144h-83zM55 0l116 538h112l-116 -538h-112z" />
    <glyph glyph-name="iacute" unicode="&#xed;" horiz-adv-x="222" 
d="M253 602h-83l110 144h135zM55 0l116 538h112l-116 -538h-112z" />
    <glyph glyph-name="icircumflex" unicode="&#xee;" horiz-adv-x="222" 
d="M217 746h110l65 -144h-92l-40 89l-78 -89h-92zM55 0l116 538h112l-116 -538h-112z" />
    <glyph glyph-name="idieresis" unicode="&#xef;" horiz-adv-x="222" 
d="M268 614l24 108h108l-24 -108h-108zM242 722l-24 -108h-108l24 108h108zM55 0l116 538h112l-116 -538h-112z" />
    <glyph glyph-name="eth" unicode="&#xf0;" 
d="M354 325q4 16 4 32q0 49 -49 49q-30 0 -50 -19t-29 -62l-35 -162q-4 -17 -4 -33q0 -48 48 -48q30 0 50 19t30 62zM556 648l-103 -37q12 -35 18.5 -75.5t6.5 -85.5q0 -66 -15 -136l-30 -140q-9 -41 -25.5 -75t-42.5 -58t-62 -37.5t-84 -13.5q-77 0 -109 32.5t-32 89.5
q0 31 7 62l30 140q9 41 25.5 75t42.5 58t62 37.5t84 13.5q9 0 17.5 -0.5t19.5 -1.5q0 3 0.5 6.5t0.5 6.5q0 19 -4 36t-9 31l-113 -40l-12 72l101 35q-7 14 -15.5 28.5t-19.5 26.5l91 24q22 -19 37 -46l118 42z" />
    <glyph glyph-name="ntilde" unicode="&#xf1;" 
d="M543 733q-9 -21 -20.5 -42.5t-27 -38t-35.5 -27t-45 -10.5q-18 0 -32.5 6t-28.5 14t-27 13.5t-29 5.5q-23 0 -34.5 -11t-16.5 -33h-56q9 21 20.5 42.5t27 38t35.5 27t45 10.5q18 0 32.5 -6t28.5 -13l27 -13.5t29 -6.5q23 0 34.5 11t16.5 33h56zM54 0l116 538h106l-12 -54
q21 15 38 27t33.5 20t35.5 12.5t43 4.5q36 0 55 -20.5t19 -56.5q0 -19 -4 -36l-94 -435h-112l90 417q1 3 1 6v6q0 14 -9 20.5t-24 6.5q-18 0 -37 -10t-42 -24l-91 -422h-112z" />
    <glyph glyph-name="ograve" unicode="&#xf2;" 
d="M240 746h135l48 -144h-83zM363 368q5 23 5 38q0 50 -48 50q-30 0 -50 -20.5t-31 -67.5l-43 -198q-4 -19 -4 -37q0 -27 12 -39t35 -12q30 0 50.5 20.5t30.5 67.5zM123 348q9 44 26.5 81t43.5 63.5t62.5 41t84.5 14.5q75 0 107 -34.5t32 -94.5q0 -31 -8 -71l-34 -158
q-10 -44 -27 -81t-43.5 -63.5t-63 -41t-84.5 -14.5q-75 0 -107 34.5t-32 93.5q0 33 9 72z" />
    <glyph glyph-name="oacute" unicode="&#xf3;" 
d="M364 602h-83l110 144h135zM363 368q5 23 5 38q0 50 -48 50q-30 0 -50 -20.5t-31 -67.5l-43 -198q-4 -19 -4 -37q0 -27 12 -39t35 -12q30 0 50.5 20.5t30.5 67.5zM123 348q9 44 26.5 81t43.5 63.5t62.5 41t84.5 14.5q75 0 107 -34.5t32 -94.5q0 -31 -8 -71l-34 -158
q-10 -44 -27 -81t-43.5 -63.5t-63 -41t-84.5 -14.5q-75 0 -107 34.5t-32 93.5q0 33 9 72z" />
    <glyph glyph-name="ocircumflex" unicode="&#xf4;" 
d="M328 746h110l65 -144h-92l-40 89l-78 -89h-92zM363 368q5 23 5 38q0 50 -48 50q-30 0 -50 -20.5t-31 -67.5l-43 -198q-4 -19 -4 -37q0 -27 12 -39t35 -12q30 0 50.5 20.5t30.5 67.5zM123 348q9 44 26.5 81t43.5 63.5t62.5 41t84.5 14.5q75 0 107 -34.5t32 -94.5
q0 -31 -8 -71l-34 -158q-10 -44 -27 -81t-43.5 -63.5t-63 -41t-84.5 -14.5q-75 0 -107 34.5t-32 93.5q0 33 9 72z" />
    <glyph glyph-name="otilde" unicode="&#xf5;" 
d="M543 733q-9 -21 -20.5 -42.5t-27 -38t-35.5 -27t-45 -10.5q-18 0 -32.5 6t-28.5 14t-27 13.5t-29 5.5q-23 0 -34.5 -11t-16.5 -33h-56q9 21 20.5 42.5t27 38t35.5 27t45 10.5q18 0 32.5 -6t28.5 -13l27 -13.5t29 -6.5q23 0 34.5 11t16.5 33h56zM363 368q5 23 5 38
q0 50 -48 50q-30 0 -50 -20.5t-31 -67.5l-43 -198q-4 -19 -4 -37q0 -27 12 -39t35 -12q30 0 50.5 20.5t30.5 67.5zM123 348q9 44 26.5 81t43.5 63.5t62.5 41t84.5 14.5q75 0 107 -34.5t32 -94.5q0 -31 -8 -71l-34 -158q-10 -44 -27 -81t-43.5 -63.5t-63 -41t-84.5 -14.5
q-75 0 -107 34.5t-32 93.5q0 33 9 72z" />
    <glyph glyph-name="odieresis" unicode="&#xf6;" 
d="M353 722l-24 -108h-108l24 108h108zM379 614l24 108h108l-24 -108h-108zM363 368q5 23 5 38q0 50 -48 50q-30 0 -50 -20.5t-31 -67.5l-43 -198q-4 -19 -4 -37q0 -27 12 -39t35 -12q30 0 50.5 20.5t30.5 67.5zM123 348q9 44 26.5 81t43.5 63.5t62.5 41t84.5 14.5
q75 0 107 -34.5t32 -94.5q0 -31 -8 -71l-34 -158q-10 -44 -27 -81t-43.5 -63.5t-63 -41t-84.5 -14.5q-75 0 -107 34.5t-32 93.5q0 33 9 72z" />
    <glyph glyph-name="divide" unicode="&#xf7;" horiz-adv-x="600" 
d="M319 460q4 16 13.5 31t22.5 25.5t28.5 17t32.5 6.5q29 0 47 -18t18 -45q0 -5 -0.5 -8.5t-1.5 -8.5q-3 -17 -12.5 -31.5t-23 -25t-29.5 -17t-32 -6.5q-29 0 -47 18.5t-18 45.5q0 4 0.5 7.5t1.5 8.5zM229 46q4 16 13.5 31t23 25.5t29 17t32.5 6.5q29 0 46.5 -17.5
t17.5 -44.5q0 -5 -0.5 -9t-1.5 -9q-3 -17 -12.5 -31.5t-23 -25t-29.5 -17t-32 -6.5q-29 0 -47 18.5t-18 45.5q0 4 0.5 7.5t1.5 8.5zM91 204l21 98h506l-21 -98h-506z" />
    <glyph glyph-name="oslash" unicode="&#xf8;" 
d="M204 94q13 -12 35 -12q30 0 50.5 20.5t30.5 67.5l40 183h-2zM357 442q-11 14 -37 14q-30 0 -50 -20.5t-31 -67.5l-42 -195h2zM82 -120h-66l91 153q-14 17 -20.5 39t-6.5 48q0 32 9 70l34 158q9 44 26.5 81t43.5 63.5t62.5 41t84.5 14.5q38 0 69 -11l64 109h68l-85 -143
q24 -33 24 -84q0 -32 -9 -71l-34 -158q-10 -44 -27 -81t-43.5 -63.5t-63 -41t-84.5 -14.5q-39 0 -66 11z" />
    <glyph glyph-name="ugrave" unicode="&#xf9;" 
d="M240 746h135l48 -144h-83zM506 538l-116 -538h-106l11 54q-21 -15 -37.5 -27t-33.5 -20t-36 -12.5t-43 -4.5q-36 0 -54.5 20t-18.5 56q0 8 1 17.5t3 19.5l94 435h112l-90 -417q-1 -4 -1 -12q0 -27 32 -27q18 0 37.5 10t42.5 24l91 422h112z" />
    <glyph glyph-name="uacute" unicode="&#xfa;" 
d="M364 602h-83l110 144h135zM506 538l-116 -538h-106l11 54q-21 -15 -37.5 -27t-33.5 -20t-36 -12.5t-43 -4.5q-36 0 -54.5 20t-18.5 56q0 8 1 17.5t3 19.5l94 435h112l-90 -417q-1 -4 -1 -12q0 -27 32 -27q18 0 37.5 10t42.5 24l91 422h112z" />
    <glyph glyph-name="ucircumflex" unicode="&#xfb;" 
d="M328 746h110l65 -144h-92l-40 89l-78 -89h-92zM506 538l-116 -538h-106l11 54q-21 -15 -37.5 -27t-33.5 -20t-36 -12.5t-43 -4.5q-36 0 -54.5 20t-18.5 56q0 8 1 17.5t3 19.5l94 435h112l-90 -417q-1 -4 -1 -12q0 -27 32 -27q18 0 37.5 10t42.5 24l91 422h112z" />
    <glyph glyph-name="udieresis" unicode="&#xfc;" 
d="M379 614l24 108h108l-24 -108h-108zM353 722l-24 -108h-108l24 108h108zM506 538l-116 -538h-106l11 54q-21 -15 -37.5 -27t-33.5 -20t-36 -12.5t-43 -4.5q-36 0 -54.5 20t-18.5 56q0 8 1 17.5t3 19.5l94 435h112l-90 -417q-1 -4 -1 -12q0 -27 32 -27q18 0 37.5 10
t42.5 24l91 422h112z" />
    <glyph glyph-name="yacute" unicode="&#xfd;" horiz-adv-x="389" 
d="M337 602h-83l110 144h135zM382 538h113l-266 -578q-17 -37 -35.5 -61.5t-40.5 -39.5t-48 -21.5t-57 -6.5h-47l20 92h27q42 0 62.5 22t30.5 65q4 20 4 46q0 6 -0.5 12t-0.5 13l-18 457h114l-3 -344h2z" />
    <glyph glyph-name="thorn" unicode="&#xfe;" 
d="M189 110q14 -12 27.5 -20t30.5 -8q11 0 22 3.5t20.5 13.5t17 26.5t13.5 43.5l43 200q6 25 6 42q0 27 -12 36t-29 9t-33.5 -8t-36.5 -20zM322 722l-51 -235h2q30 32 57.5 46.5t69.5 14.5t65 -24.5t23 -72.5q0 -23 -6 -53l-56 -258q-16 -74 -55 -112t-92 -38
q-18 0 -31.5 3.5t-25 11t-22.5 17.5t-25 24l-46 -216h-112l193 892h112z" />
    <glyph glyph-name="ydieresis" unicode="&#xff;" horiz-adv-x="389" 
d="M352 614l24 108h108l-24 -108h-108zM326 722l-24 -108h-108l24 108h108zM382 538h113l-266 -578q-17 -37 -35.5 -61.5t-40.5 -39.5t-48 -21.5t-57 -6.5h-47l20 92h27q42 0 62.5 22t30.5 65q4 20 4 46q0 6 -0.5 12t-0.5 13l-18 457h114l-3 -344h2z" />
    <glyph glyph-name="dotlessi" unicode="&#x131;" horiz-adv-x="222" 
d="M55 0l116 538h112l-116 -538h-112z" />
    <glyph glyph-name="Lslash" unicode="&#x141;" horiz-adv-x="389" 
d="M201 108h195l-23 -108h-319l62 290l-58 -22l17 82l59 22l76 350h124l-65 -301l126 47l-18 -82l-126 -47z" />
    <glyph glyph-name="lslash" unicode="&#x142;" horiz-adv-x="222" 
d="M167 0h-112l72 333l-78 -36l16 74l78 36l68 315h112l-56 -258l78 36l-16 -74l-78 -36z" />
    <glyph glyph-name="OE" unicode="&#x152;" horiz-adv-x="722" 
d="M446 540q3 15 3 26q0 26 -14.5 37.5t-40.5 11.5q-42 0 -65.5 -26.5t-32.5 -68.5l-68 -315q-4 -16 -4 -35q0 -28 14 -44t46 -16q31 0 54 17t32 58zM270 0q-85 0 -128 38.5t-43 111.5q0 16 1.5 33.5t6.5 36.5l61 282q23 107 88.5 163.5t169.5 56.5h400l-24 -108h-216
l-40 -186h168l-23 -108h-168l-46 -212h230l-23 -108h-414z" />
    <glyph glyph-name="oe" unicode="&#x153;" horiz-adv-x="667" 
d="M580 340l6 28q5 23 5 38q0 50 -48 50q-30 0 -46.5 -20.5t-27.5 -67.5l-6 -28h117zM357 368q2 11 3.5 20.5t1.5 17.5q0 26 -11 38t-31 12q-30 0 -50 -20.5t-31 -67.5l-43 -198q-4 -19 -4 -37q0 -27 12 -39t35 -12q26 0 45.5 20.5t29.5 67.5zM443 248l-17 -78
q-6 -26 -6 -44q0 -44 42 -44q30 0 50.5 20.5t30.5 67.5l3 12h112q-10 -43 -27.5 -78t-42.5 -60.5t-58.5 -39.5t-75.5 -14q-46 0 -71.5 16.5t-35.5 45.5q-23 -29 -56 -45.5t-84 -16.5q-68 0 -97.5 34t-29.5 92q0 33 9 74l34 158q9 44 26 81t42.5 63.5t59 41t77.5 14.5
q52 0 79 -15t36 -46q49 61 132 61q68 0 97.5 -34.5t29.5 -93.5q0 -17 -2 -34.5t-6 -37.5l-22 -100h-229z" />
    <glyph glyph-name="Scaron" unicode="&#x160;" 
d="M441 760h-110l-65 144h92l40 -89l78 89h92zM403 544q1 6 1.5 11t0.5 10q0 34 -16 46.5t-34 12.5q-30 0 -50 -18.5t-28 -52.5q-1 -5 -1.5 -9.5t-0.5 -9.5q0 -25 13 -47.5t33 -45t42.5 -45.5t42.5 -49.5t33 -57t13 -68.5q0 -11 -1 -22.5t-4 -23.5q-9 -45 -31 -79.5t-53 -58
t-70 -35.5t-82 -12q-37 0 -64.5 12t-45.5 32.5t-27 48.5t-9 61q0 11 1 22.5t3 23.5l121 17q-2 -9 -2 -17v-16q0 -38 14 -57t39 -19q32 0 55.5 17t30.5 49q3 13 3 25q0 28 -13 51.5t-33 45.5t-42.5 44t-42.5 48t-33 56t-13 69q0 22 6 49q19 87 79 133.5t152 46.5
q69 0 102.5 -40t33.5 -105q0 -8 -0.5 -15t-1.5 -15z" />
    <glyph glyph-name="scaron" unicode="&#x161;" horiz-adv-x="389" 
d="M380 602h-110l-65 144h92l40 -89l78 89h92zM342 389v4q0 63 -50 63q-22 0 -37.5 -11t-20.5 -32q-1 -4 -1 -11q0 -26 24 -48t53.5 -47.5t53.5 -58t24 -78.5q0 -19 -4 -35q-16 -72 -68 -108.5t-121 -36.5q-71 0 -104.5 36t-33.5 102v12l104 27q0 -5 -0.5 -8.5t-0.5 -7.5
q0 -29 11 -49t45 -20q22 0 38.5 12t21.5 35q1 4 1.5 7t0.5 6q0 19 -11.5 35.5t-28.5 33t-37.5 33t-37.5 35.5t-28.5 42t-11.5 52q0 14 3 31q7 32 24 58.5t41.5 45.5t54 29.5t61.5 10.5q66 0 99.5 -38.5t33.5 -101.5v-3z" />
    <glyph glyph-name="Ydieresis" unicode="&#x178;" 
d="M414 772l23 108h108l-23 -108h-108zM387 880l-23 -108h-108l23 108h108zM284 0h-124l64 300l-58 422h126l27 -275h2l143 275h126l-242 -422z" />
    <glyph glyph-name="Zcaron" unicode="&#x17d;" 
d="M441 760h-110l-65 144h92l40 -89l78 89h92zM204 614l24 108h328l-26 -118l-335 -496h228l-23 -108h-356l25 118l338 496h-203z" />
    <glyph glyph-name="zcaron" unicode="&#x17e;" horiz-adv-x="389" 
d="M380 602h-110l-65 144h92l40 -89l78 89h92zM140 446l20 92h315l-20 -92l-286 -354h209l-19 -92h-329l19 92l282 354h-191z" />
    <glyph glyph-name="florin" unicode="&#x192;" 
d="M18 -73q5 -3 12.5 -4t15.5 -1q27 0 46 16t40 63t47 133.5t66 227.5h-93l18 84h100q22 80 50 135t60 88.5t68 48t73 14.5q12 0 23 -1.5t23 -3.5l-20 -94q-22 13 -49 13q-16 0 -31.5 -9t-31 -31.5t-30 -61t-29.5 -98.5h102l-18 -84h-106q-35 -127 -67 -226t-68 -167
t-80 -103.5t-103 -35.5q-20 0 -37 5z" />
    <glyph glyph-name="circumflex" unicode="&#x2c6;" horiz-adv-x="222" 
d="M217 746h110l65 -144h-92l-40 89l-78 -89h-92z" />
    <glyph glyph-name="caron" unicode="&#x2c7;" horiz-adv-x="222" 
d="M296 602h-110l-65 144h92l40 -89l78 89h92z" />
    <glyph glyph-name="breve" unicode="&#x2d8;" horiz-adv-x="222" 
d="M420 749q-9 -29 -24 -54.5t-37 -45t-51.5 -31t-65.5 -11.5q-32 0 -54 9t-36.5 24t-21 35.5t-6.5 44.5q0 7 0.5 14t1.5 15h58q-1 -4 -1 -8v-6q0 -32 19 -46t55 -14q40 0 65.5 17.5t39.5 56.5h58z" />
    <glyph glyph-name="dotaccent" unicode="&#x2d9;" horiz-adv-x="222" 
d="M321 722l-24 -108h-108l24 108h108z" />
    <glyph glyph-name="ring" unicode="&#x2da;" horiz-adv-x="222" 
d="M211 704q-1 -4 -1 -11q0 -18 11.5 -29.5t30.5 -11.5q22 0 40 15t23 37q1 4 1 11q0 18 -11.5 29.5t-30.5 11.5q-22 0 -40 -15t-23 -37zM161 704q4 21 16.5 39.5t29 32.5t37 22t41.5 8q37 0 59.5 -23t22.5 -58v-11q0 -5 -2 -10q-5 -21 -17 -39.5t-28.5 -32.5t-37 -22
t-41.5 -8q-37 0 -59.5 23t-22.5 58v10q0 6 2 11z" />
    <glyph glyph-name="ogonek" unicode="&#x2db;" horiz-adv-x="222" 
d="M244 9q-20 -8 -45.5 -19t-49 -26t-41.5 -35t-24 -45q-1 -4 -1 -11q0 -18 11.5 -27t28.5 -9q23 0 50.5 13.5t48.5 26.5l11 -36q-36 -23 -75.5 -41.5t-79.5 -18.5q-35 0 -57.5 17.5t-22.5 52.5v11q0 5 2 11q9 39 37.5 65.5t65.5 43t76 25.5t68 14z" />
    <glyph glyph-name="tilde" unicode="&#x2dc;" horiz-adv-x="222" 
d="M432 733q-9 -21 -20.5 -42.5t-27 -38t-35.5 -27t-45 -10.5q-18 0 -32.5 6t-28.5 14t-27 13.5t-29 5.5q-23 0 -34.5 -11t-16.5 -33h-56q9 21 20.5 42.5t27 38t35.5 27t45 10.5q18 0 32.5 -6t28.5 -13l27 -13.5t29 -6.5q23 0 34.5 11t16.5 33h56z" />
    <glyph glyph-name="hungarumlaut" unicode="&#x2dd;" horiz-adv-x="222" 
d="M163 602h-79l100 144h135zM333 602h-83l110 144h135z" />
    <glyph glyph-name="endash" unicode="&#x2013;" horiz-adv-x="500" 
d="M50 233l16 72h500l-16 -72h-500z" />
    <glyph glyph-name="emdash" unicode="&#x2014;" horiz-adv-x="1000" 
d="M50 233l16 72h1000l-16 -72h-1000z" />
    <glyph glyph-name="quoteleft" unicode="&#x2018;" horiz-adv-x="222" 
d="M183 608l96 124h53l-76 -124h45l-25 -118h-118z" />
    <glyph glyph-name="quoteright" unicode="&#x2019;" horiz-adv-x="222" 
d="M300 604l-96 -124h-53l76 124h-45l26 118h118z" />
    <glyph glyph-name="quotesinglbase" unicode="&#x201a;" horiz-adv-x="222" 
d="M170 0l-96 -124h-53l76 124h-45l25 118h118z" />
    <glyph glyph-name="quotedblleft" unicode="&#x201c;" 
d="M386 608l96 124h53l-76 -124h45l-25 -118h-118zM201 608l96 124h53l-76 -124h45l-25 -118h-118z" />
    <glyph glyph-name="quotedblright" unicode="&#x201d;" 
d="M319 604l-96 -124h-53l76 124h-45l26 118h118zM504 604l-96 -124h-53l76 124h-45l26 118h118z" />
    <glyph glyph-name="quotedblbase" unicode="&#x201e;" 
d="M189 0l-96 -124h-53l76 124h-45l25 118h118zM374 0l-96 -124h-53l76 124h-45l25 118h118z" />
    <glyph glyph-name="dagger" unicode="&#x2020;" horiz-adv-x="500" 
d="M531 450l-158 42l8 -169q-26 -51 -57 -153t-73 -250h-38q20 131 32.5 225.5t12.5 150.5v14q0 7 -1 13l82 169l-176 -42l27 124l154 -42l4 200h120l-82 -200l172 42z" />
    <glyph glyph-name="daggerdbl" unicode="&#x2021;" horiz-adv-x="500" 
d="M531 450l-158 42l9 -166l-81 -166l176 42l-27 -124l-154 42l-4 -200h-120l82 200l-172 -42l27 124l158 -42l-9 166l81 166l-176 -42l27 124l154 -42l4 200h120l-82 -200l172 42z" />
    <glyph glyph-name="bullet" unicode="&#x2022;" horiz-adv-x="500" 
d="M147 361q8 37 29 70t51 57.5t65.5 38.5t73.5 14q66 0 106 -40t40 -102q0 -9 -1 -18.5t-3 -19.5q-8 -38 -29.5 -70.5t-51.5 -57.5t-66.5 -39t-73.5 -14q-32 0 -58.5 10.5t-45.5 29.5t-29.5 45t-10.5 56q0 21 4 40z" />
    <glyph glyph-name="ellipsis" unicode="&#x2026;" horiz-adv-x="1000" 
d="M443 0l25 118h114l-25 -118h-114zM776 0l25 118h114l-25 -118h-114zM110 0l25 118h114l-25 -118h-114z" />
    <glyph glyph-name="perthousand" unicode="&#x2030;" horiz-adv-x="1000" 
d="M217 572q-2 -10 -2 -15q0 -24 15.5 -39.5t41.5 -15.5q29 0 54 20.5t31 49.5q2 10 2 16q0 23 -15.5 38.5t-41.5 15.5q-29 0 -53.5 -20.5t-31.5 -49.5zM798 150q-2 -10 -2 -15q0 -24 15.5 -39.5t41.5 -15.5q29 0 54 20.5t31 49.5q2 10 2 15q0 24 -15.5 39.5t-41.5 15.5
q-29 0 -54 -20.5t-31 -49.5zM444 150q-2 -10 -2 -15q0 -24 15.5 -39.5t41.5 -15.5q29 0 54 20.5t31 49.5q2 10 2 15q0 24 -15.5 39.5t-41.5 15.5q-29 0 -54 -20.5t-31 -49.5zM665 732h70l-572 -742h-70zM364 150q7 31 24.5 58.5t42 47.5t54.5 32t61 12q54 0 88 -33.5
t34 -84.5q0 -8 -1 -16t-3 -16q-7 -31 -24.5 -58.5t-42 -47.5t-54.5 -32t-61 -12q-54 0 -88 33.5t-34 84.5q0 8 1 16t3 16zM718 150q7 31 24.5 58.5t42 47.5t54.5 32t61 12q54 0 88 -33.5t34 -84.5q0 -8 -1 -16t-3 -16q-7 -31 -24.5 -58.5t-42 -47.5t-54.5 -32t-61 -12
q-54 0 -88 33.5t-34 84.5q0 8 1 16t3 16zM137 572q7 31 24.5 58.5t42.5 47.5t55 32t61 12q27 0 49.5 -9t38 -25t24.5 -37.5t9 -46.5q0 -8 -1 -16t-3 -16q-7 -31 -24.5 -58.5t-42 -47.5t-54.5 -32t-61 -12q-54 0 -88 33.5t-34 84.5q0 8 1 16t3 16z" />
    <glyph glyph-name="guilsinglleft" unicode="&#x2039;" horiz-adv-x="333" 
d="M298 115h-96l-81 155l148 153h99l-150 -154z" />
    <glyph glyph-name="guilsinglright" unicode="&#x203a;" horiz-adv-x="333" 
d="M231 269l-84 154h99l82 -153l-149 -155h-96z" />
    <glyph glyph-name="fraction" unicode="&#x2044;" horiz-adv-x="167" 
d="M-169 -10l570 742h91l-570 -742h-91z" />
    <glyph glyph-name="fraction" unicode="&#x2215;" horiz-adv-x="167" 
d="M-169 -10l570 742h91l-570 -742h-91z" />
    <glyph glyph-name="Euro" unicode="&#x20ac;" horiz-adv-x="500" 
d="M170 315l17 80h-60l41 84h37l15 68q9 44 33.5 78.5t58 58t73 36t78.5 12.5q42 0 80 -14t64 -43l-56 -114q-17 32 -45.5 47.5t-60.5 15.5q-34 0 -63.5 -19t-38.5 -61l-14 -65h181l-41 -84h-158l-17 -80h138l-42 -84h-115l-10 -48q-3 -14 -3 -24q0 -32 20.5 -47t49.5 -15
q34 0 65 9.5t63 34.5l-25 -116q-35 -19 -71 -27t-69 -8q-34 0 -63.5 9.5t-51 28t-34 45t-12.5 60.5q0 17 5 42l12 56h-60l42 84h37z" />
    <glyph glyph-name="trademark" unicode="&#x2122;" horiz-adv-x="990" 
d="M510 647h-120l-73 -337h-96l73 337h-120l16 75h336zM759 451l162 271h135l-89 -412h-92l65 302h-2l-175 -302h-69l-45 302h-2l-65 -302h-92l89 412h136z" />
    <glyph glyph-name="minus" unicode="&#x2212;" horiz-adv-x="600" 
d="M91 204l21 98h506l-21 -98h-506z" />
    <glyph glyph-name="fi" unicode="&#xfb01;" 
d="M411 620l22 102h112l-22 -102h-112zM277 0l116 538h112l-116 -538h-112zM158 446h-66l20 92h66l14 67q14 66 53.5 96.5t99.5 30.5h56l-20 -92h-32q-20 0 -30 -8t-15 -28l-14 -66h64l-20 -92h-64l-96 -446h-112z" />
    <glyph glyph-name="fl" unicode="&#xfb02;" 
d="M277 0l156 722h112l-156 -722h-112zM158 446h-66l20 92h66l14 67q14 66 53.5 96.5t99.5 30.5h56l-20 -92h-32q-20 0 -30 -8t-15 -28l-14 -66h64l-20 -92h-64l-96 -446h-112z" />
    <glyph glyph-name="nonbreakingspace" horiz-adv-x="222" 
 />
    </font>
</defs>
</svg>
