<svg xmlns="http://www.w3.org/2000/svg" viewBox="0 0 540 540"><!--! Font Awesome Pro 7.1.0 by @fontawesome - https://fontawesome.com License - https://fontawesome.com/license (Commercial License) Copyright 2025 Fonticons, Inc. --><path fill="currentColor" d="M54 72C24.2 72 0 96.2 0 126L0 414c0 29.8 24.2 54 54 54l432 0c29.8 0 54-24.2 54-54l0-288c0-29.8-24.2-54-54-54L54 72zM306 234l108 0c19.9 0 36 16.1 36 36s-16.1 36-36 36l-108 0c-19.9 0-36-16.1-36-36s16.1-36 36-36zM90 270a54 54 0 1 1 108 0 54 54 0 1 1 -108 0zM54 99l432 0c7.5 0 13.5 6 13.5 13.5S493.5 126 486 126l-432 0 0 288c0 7.5-6 13.5-13.5 13.5S27 421.5 27 414l0-288c0-14.9 12.1-27 27-27zM504 270c0 49.7-40.3 90-90 90l-108 0c-7.5 0-13.5-6-13.5-13.5s6-13.5 13.5-13.5l108 0c34.8 0 63-28.2 63-63 0-7.5 6-13.5 13.5-13.5s13.5 6 13.5 13.5zM247.4 301.2c-13.4 44.4-54.6 76.8-103.4 76.8-7.5 0-13.5-6-13.5-13.5s6-13.5 13.5-13.5c36.6 0 67.5-24.3 77.6-57.6 2.1-7.1 9.7-11.2 16.8-9s11.2 9.7 9 16.8z"/></svg>