<svg xmlns="http://www.w3.org/2000/svg" viewBox="0 0 540 540"><!--! Font Awesome Pro 7.1.0 by @fontawesome - https://fontawesome.com License - https://fontawesome.com/license (Commercial License) Copyright 2025 Fonticons, Inc. --><path fill="currentColor" d="M270 126c79.5 0 144 64.5 144 144S349.5 414 270 414c-44.7 0-84.6-20.3-111.1-52.4-19-23-53-26.2-76-7.3s-26.2 53-7.3 76C121.8 486.2 191.7 522 270 522 409.2 522 522 409.2 522 270S409.2 18 270 18c-50.8 0-99.9 17-139.7 47.8-7.6 5.9-18.4 5.7-25.2-1.1L92.2 51.8C76.7 36.4 53.5 31.8 33.3 40.1S0 68.2 0 90L0 216c0 29.8 24.2 54 54 54l126 0c21.8 0 41.5-13.2 49.9-33.3s3.7-43.4-11.7-58.8l-10.4-10.4c-7.5-7.5-6.9-20 2.2-25.3 18.1-10.5 38.7-16.1 60-16.1zm0-81c7.5 0 13.5 6 13.5 13.5S277.5 72 270 72c-38.8 0-76.2 13-106.6 36.5-13.3 10.3-29.9 15.8-46.6 15.5-7.5-.1-13.4-6.2-13.3-13.7s6.2-13.4 13.7-13.3c10.7 .2 21.3-3.4 29.7-9.9 35-27.2 78.3-42.2 123.1-42.2zM61.3 72.4c2.9 6.9-.4 14.8-7.3 17.6l0 126c0 7.5-6 13.5-13.5 13.5S27 223.5 27 216L27 90c0-10.9 6.6-20.8 16.7-24.9 6.9-2.9 14.8 .4 17.6 7.3zM441 270c0-7.5 6-13.5 13.5-13.5s13.5 6 13.5 13.5c0 109.4-88.6 198-198 198-7.5 0-13.5-6-13.5-13.5s6-13.5 13.5-13.5c94.4 0 171-76.6 171-171zM100.1 375.2c11.5-9.5 28.5-7.9 38 3.6 4.7 5.7 3.9 14.3-1.8 19s-14.3 3.9-19-1.8c0 7.5-6.1 13.5-13.5 13.5S90.3 403.4 90.3 396c0-7.7 3.3-15.5 9.8-20.8z"/></svg>