<svg xmlns="http://www.w3.org/2000/svg" viewBox="0 0 468 540"><!--! Font Awesome Pro 7.1.0 by @fontawesome - https://fontawesome.com License - https://fontawesome.com/license (Commercial License) Copyright 2025 Fonticons, Inc. --><path fill="currentColor" d="M382.6 46.1c16.5-11.8 38.1-13.3 56.1-4.1S468 69.8 468 90l0 360c0 20.2-11.3 38.8-29.3 48s-39.6 7.7-56.1-4.1L165.3 338.8c-8.9-6.4-21.3 0-21.3 11L144 450c0 29.8-24.2 54-54 54l-36 0c-29.8 0-54-24.2-54-54L0 90C0 60.2 24.2 36 54 36l36 0c29.8 0 54 24.2 54 54l0 100.3c0 11 12.4 17.4 21.3 11L382.6 46.1zm15.7 22L181 223.2c-8.5 6.1-17.9 8.3-26.9 7.5-7.4-.7-14 4.8-14.6 12.3s4.8 14 12.3 14.6c15.1 1.3 31-2.4 44.9-12.4L414 90c6.6 3.4 14.8 .8 18.2-5.8s.8-14.8-5.8-18.2c-9-4.6-19.8-3.8-28 2zM90 63L54 63C39.1 63 27 75.1 27 90l0 360c0 7.5 6 13.5 13.5 13.5S54 457.5 54 450l0-360 36 0c7.5 0 13.5-6 13.5-13.5S97.5 63 90 63z"/></svg>