<svg xmlns="http://www.w3.org/2000/svg" viewBox="0 0 468 540"><!--! Font Awesome Pro 7.1.0 by @fontawesome - https://fontawesome.com License - https://fontawesome.com/license (Commercial License) Copyright 2025 Fonticons, Inc. --><path fill="currentColor" d="M90 144c0 9.9-8.1 18-18 18-28.2 0-51.7 21.7-53.8 49.9l-18 234c-1.2 15 4 29.8 14.2 40.8S39 504 54 504l360 0c15 0 29.4-6.3 39.6-17.3s15.4-25.8 14.2-40.8l-18-234c-2.2-28.1-25.6-49.9-53.8-49.9-9.9 0-18-8.1-18-18 0-79.5-64.5-144-144-144S90 64.5 90 144zm144-36c19.9 0 36 16.1 36 36 0 9.9-8.1 18-18 18l-36 0c-9.9 0-18-8.1-18-18 0-19.9 16.1-36 36-36zm-90 36c0 39.8-32.2 72-72 72L54 450c-.6 7.4-7.1 13-14.5 12.4s-13-7.1-12.4-14.5l18-234c1.1-14.1 12.8-24.9 26.9-24.9 24.9 0 45-20.1 45-45 0-64.6 52.4-117 117-117 7.5 0 13.5 6 13.5 13.5S241.5 54 234 54c-49.7 0-90 40.3-90 90zm180 0c0 39.8-32.2 72-72 72l-36 0c-7.5 0-13.5-6-13.5-13.5s6-13.5 13.5-13.5l36 0c24.9 0 45-20.1 45-45 0-7.5 6-13.5 13.5-13.5s13.5 6 13.5 13.5z"/></svg>