<svg xmlns="http://www.w3.org/2000/svg" viewBox="0 0 540 540"><!--! Font Awesome Pro 7.1.0 by @fontawesome - https://fontawesome.com License - https://fontawesome.com/license (Commercial License) Copyright 2025 Fonticons, Inc. --><path fill="currentColor" d="M425 70.1c10.1-10.3 23.9-16.1 38.3-16.1s28.2 5.6 38.4 15.8l22.5 22.5c21.1 21.1 21.1 55.3 0 76.4l-288 288c-21.1 21.1-55.3 21.1-76.4 0l-144-144c-21.1-21.1-21.1-55.3 0-76.4l22.5-22.5C48.6 203.6 62.5 197.9 77 198s28.3 6.1 38.4 16.5l70.2 72.8c7 7.3 18.7 7.3 25.8 .1L425 70.1zM463.5 108c5.2-5.3 5.2-13.9-.2-19.1s-13.9-5.2-19.1 .2L230.6 306.3c-8.9 9.1-20.7 13.5-32.5 13.4-7.5-.1-13.6 5.9-13.6 13.4s5.9 13.6 13.4 13.6c18.8 .2 37.7-7 52-21.5L463.5 108zM76.5 252c5.3-5.3 5.3-13.8 0-19.1s-13.8-5.3-19.1 0L34.9 255.4c-5.3 5.3-5.3 13.8 0 19.1s13.8 5.3 19.1 0L76.5 252z"/></svg>