<svg xmlns="http://www.w3.org/2000/svg" viewBox="0 0 540 540"><!--! Font Awesome Pro 7.1.0 by @fontawesome - https://fontawesome.com License - https://fontawesome.com/license (Commercial License) Copyright 2025 Fonticons, Inc. --><path fill="currentColor" d="M198 378c109.4 0 198-80.6 198-180S307.4 18 198 18 0 98.6 0 198c0 35.8 11.5 69.2 31.3 97.2 6.7 9.5 4.2 23.2-2.7 32.6-10.8 14.6-14 34.2-6.8 52.3 11.1 27.7 42.5 41.2 70.2 30.1 17.5-7 33-17.4 45.9-30.3 4.8-4.9 11.8-7.1 18.5-5.8 13.4 2.6 27.3 4 41.6 4zM54 198c0 7.5-6 13.5-13.5 13.5S27 205.5 27 198c0-82 74-153 171-153 7.5 0 13.5 6 13.5 13.5S205.5 72 198 72C113.6 72 54 133 54 198zM89.3 305.6c.6 21.6-7.7 41.5-17.3 54.3-4.4 6-12.9 7.2-18.9 2.8s-7.2-12.9-2.8-18.9c6.6-8.9 12.4-22.9 12-37.5-.2-7.5 5.7-13.7 13.1-13.9s13.7 5.7 13.9 13.1zm438.2-62.2c-8.8-21.5-30.4-34.9-53.5-33.4s-42.8 17.7-48.7 40.1c-15.1 57.5-55.4 105.2-109.5 134.2-21.8 11.7-32.8 36.7-26.9 60.6s27.5 40.8 52.2 40.9c14.2 0 28.5-1.3 42.4-4 6.7-1.3 13.7 1 18.5 5.8 12.9 12.9 28.4 23.3 45.8 30.3 27.7 11.1 59.1-2.4 70.2-30.1 7.2-18.1 4-37.7-6.8-52.3-6.9-9.3-9.4-23.1-2.7-32.5 19.9-28.1 31.4-61.5 31.4-97.2 0-21.8-4.4-43-12.5-62.5zm-50 20.5c-19.4 73.6-70.4 132.8-136.2 168.1 1.8 7.2-2.6 14.6-9.8 16.4s-14.6-2.6-16.4-9.8c-3-12 2.5-24.5 13.4-30.3 59.9-32.2 105.6-85.6 122.9-151.1 1.9-7.2 9.3-11.5 16.5-9.6s11.5 9.3 9.6 16.5z"/></svg>