<svg xmlns="http://www.w3.org/2000/svg" viewBox="0 0 396 540"><!--! Font Awesome Pro 7.1.0 by @fontawesome - https://fontawesome.com License - https://fontawesome.com/license (Commercial License) Copyright 2025 Fonticons, Inc. --><path fill="currentColor" d="M77.2 19.3C110.8 6.7 153.5 0 198 0s87.2 6.7 120.8 19.3c16.6 6.2 33.7 14.9 47.7 27.3 13.9 12.3 29.5 33 29.5 61.4 0 91.7-132.9 108-198 108S0 199.7 0 108c0-28.4 15.6-49.1 29.5-61.4 14-12.4 31.2-21.1 47.7-27.3zm19 50.6c26.1-9.8 62.1-15.8 101.8-15.8 7.5 0 13.5-6 13.5-13.5S205.5 27 198 27c-42.1 0-81.5 6.4-111.3 17.5-14.8 5.5-28.7 12.8-39.3 22.2-10.8 9.5-20.4 23.4-20.4 41.2 0 7.5 6 13.5 13.5 13.5S54 115.5 54 108c0-7.3 3.9-14.5 11.3-21 7.3-6.5 17.8-12.3 30.9-17.2zM0 265.5L0 270c0 91.7 132.9 108 198 108s198-16.3 198-108l0-4.5c0-27.3-36.3-45.1-61.9-35.4-47.2 17.7-101.6 21.9-136.1 21.9s-88.9-4.2-136.1-21.9C36.3 220.5 0 238.2 0 265.5zm61 5c-1.3 6.8-7.4 11.4-14.1 11-6.5 3.5-14.7 1-18.2-5.5-3.5-6.6-1.1-14.7 5.4-18.3 3.1-1.7 9.2-4.2 16-2.9 7.3 1.4 12.1 8.4 10.8 15.8zM353 280.7c-55.8 21-117.6 25.3-155 25.3-7.5 0-13.5-6-13.5-13.5s6-13.5 13.5-13.5c35.9 0 94-4.3 145.5-23.6 7-2.6 14.8 .9 17.4 7.9S360 278 353 280.7zM0 427.5c0-27.3 36.3-45.1 61.9-35.4 47.2 17.7 101.6 21.9 136.1 21.9s88.9-4.2 136.1-21.9c25.6-9.6 61.9 8.1 61.9 35.4l0 4.5c0 28.4-15.6 49.1-29.5 61.4-14 12.4-31.2 21.1-47.7 27.3-33.5 12.6-76.3 19.3-120.8 19.3s-87.2-6.7-120.8-19.3C60.6 514.5 43.5 505.8 29.5 493.4 15.6 481.1 0 460.4 0 432l0-4.5zm61 5c1.4-7.3-3.4-14.4-10.8-15.8-6.8-1.3-12.9 1.2-16 2.9-6.6 3.5-9 11.7-5.4 18.3 3.5 6.5 11.6 9 18.2 5.5 6.7 .4 12.8-4.2 14.1-11zM353 442.7c7-2.6 10.5-10.4 7.9-17.4s-10.4-10.5-17.4-7.9c-51.5 19.3-109.5 23.6-145.5 23.6-7.5 0-13.5 6-13.5 13.5s6 13.5 13.5 13.5c37.4 0 99.2-4.4 155-25.3z"/></svg>