<svg xmlns="http://www.w3.org/2000/svg" viewBox="0 0 540 540"><!--! Font Awesome Pro 7.1.0 by @fontawesome - https://fontawesome.com License - https://fontawesome.com/license (Commercial License) Copyright 2025 Fonticons, Inc. --><path fill="currentColor" d="M90 144c-29.8 0-54 24.2-54 54l0 72c0 29.8 24.2 54 54 54s54-24.2 54-54l0-72c0-29.8-24.2-54-54-54zm14 40.5c0 7.6-6 13.7-13.5 13.9l0 71.6c0 7.7-6.2 13.9-14 13.9s-14-6.2-14-13.9l0-72c0-15.2 12.3-27.4 27.5-27.4 7.7 0 14 6.2 14 13.9zM450 144c-29.8 0-54 24.2-54 54l0 72c0 29.8 24.2 54 54 54s54-24.2 54-54l0-72c0-29.8-24.2-54-54-54zM464 184.5c0 7.6-6 13.7-13.5 13.9l0 71.6c0 7.7-6.2 13.9-13.9 13.9s-13.9-6.2-13.9-13.9l0-72c0-15.2 12.3-27.4 27.4-27.4 7.7 0 13.9 6.2 13.9 13.9zM188.8 342.7c-32.4-5.3-62.8 20.5-62.8 53.3 0 79.5 64.5 144 144 144s144-64.5 144-144c0-32.8-30.4-58.6-62.8-53.3-26.8 4.4-54.1 8.3-81.2 8.3-27.1 0-54.5-4-81.2-8.3zM180 396.1c-.1 7.4-6.1 13.4-13.5 13.4-7.5 0-13.5-6-13.5-13.5 0-16.7 15.5-29.2 31.8-26.6 7.3 1.2 12.6 8.1 11.4 15.5-1.6 9.8-8.8 9.6-16.2 11.2zm190.7-15.5c1.2 7.4-3.8 14.3-11.1 15.5-29.6 4.9-59.5 8.9-89.5 8.9-7.5 0-13.5-6-13.5-13.5s6-13.5 13.5-13.5c28.6 0 57-3.9 85.2-8.6 7.4-1.2 14.3 3.8 15.5 11.1zM90 108c4.3 0 8.1 1.4 11.9 3.3 26.7 13.3 59.1 2.5 72.4-24.1s2.5-59.1-24.1-72.4C131.4 5.3 111.1 0 90 0S48.6 5.3 29.9 14.7C3.2 28-7.6 60.5 5.7 87.1s45.8 37.5 72.4 24.1C82 109.4 85.7 108 90 108zM54 63c3.3 6.7 .6 14.8-6 18.1s-14.8 .6-18.1-6C23.2 61.7 28.6 45.5 41.9 38.9 57.3 31.2 73 27 89 27 96.5 27 102.5 33 102.5 40.5S96.5 54 89 54c-11.1 0-22.8 2.9-35 9zm396 45c4.3 0 8.1 1.4 11.9 3.3 26.7 13.3 59.1 2.5 72.4-24.1s2.5-59.1-24.2-72.4C491.4 5.3 471.1 0 450 0s-41.4 5.3-60.2 14.7C363.2 28 352.4 60.5 365.7 87.1s45.8 37.5 72.4 24.1c3.8-1.9 7.5-3.3 11.9-3.3zM414 63c3.3 6.7 .6 14.8-6 18.1s-14.8 .6-18.1-6c-6.7-13.3-1.3-29.6 12.1-36.2 15.4-7.7 31.1-11.9 47.1-11.9 7.5 0 13.5 6 13.5 13.5S456.5 54 449 54c-11.1 0-22.8 2.9-35 9z"/></svg>