<svg xmlns="http://www.w3.org/2000/svg" viewBox="0 0 540 540"><!--! Font Awesome Pro 7.1.0 by @fontawesome - https://fontawesome.com License - https://fontawesome.com/license (Commercial License) Copyright 2025 Fonticons, Inc. --><path fill="currentColor" d="M539.5 61.3c2.3-16.7-3.4-33.5-15.3-45.5S495.4-1.8 478.7 .5L240.6 33C123.4 48.9 36 149.1 36 267.4 36 313.2 49 355.9 71.5 392.1L15.8 447.8c-21.1 21.1-21.1 55.3 0 76.4s55.3 21.1 76.4 0l55.7-55.7c36.2 22.5 79 35.5 124.7 35.5 118.3 0 218.4-87.4 234.4-204.6L539.5 61.3zM486 54L247.9 86.5c-90.5 12.3-157.9 89.6-157.9 180.9 0 7.5-6 13.5-13.5 13.5S63 274.9 63 267.4C63 162.6 140.4 73.9 244.3 59.7L482.4 27.2c7.4-1 14.2 4.2 15.2 11.6S493.4 53 486 54zM125.3 397.3c-1.2 12.1-6.4 23.9-15.6 33L54 486c-5.3 5.3-13.8 5.3-19.1 0s-5.3-13.8 0-19.1l55.7-55.7c4.6-4.6 7.2-10.4 7.8-16.5 .7-7.4 7.3-12.9 14.7-12.1s12.9 7.3 12.1 14.7z"/></svg>