<svg xmlns="http://www.w3.org/2000/svg" viewBox="0 0 504 540"><!--! Font Awesome Pro 7.1.0 by @fontawesome - https://fontawesome.com License - https://fontawesome.com/license (Commercial License) Copyright 2025 Fonticons, Inc. --><path fill="currentColor" d="M252 0c-49.7 0-90 40.3-90 90 0 5-6.1 7.6-9.6 4L92.2 33.8c-21.1-21.1-55.3-21.1-76.4 0s-21.1 55.3 0 76.4L321.3 415.6c.4 .4 .8 .8 1.2 1.2l89.3 89.3c21.1 21.1 55.3 21.1 76.4 0s21.1-55.3 0-76.4l-40.5-40.5c-6.4-6.4-7-16.6-1.9-24.1 25.4-37.4 40.2-82.6 40.2-131.2 0-29.8-24.2-54-54-54s-54 24.2-54 54c0 16.4-3.1 32.1-8.8 46.4-4.3 10.8-18 12.4-26.2 4.2l-1.2-1.2c-5.5-5.5-6.7-13.8-4.2-21.2 2.9-8.9 4.5-18.4 4.5-28.2l0-144c0-49.7-40.3-90-90-90zm0 27c7.5 0 13.5 6 13.5 13.5S259.5 54 252 54c-19.9 0-36 16.1-36 36 0 33-24.9 55.7-52.3 59.2-7.4 1-14.2-4.2-15.1-11.6s4.2-14.2 11.6-15.1c15.5-2 28.7-14.6 28.7-32.5 0-34.8 28.2-63 63-63zM73.1 52.9c5.3 5.3 5.3 13.8 0 19.1S59.3 77.3 54 72c5.3 5.3 5.3 13.8 0 19.1s-13.8 5.3-19.1 0c-10.5-10.5-10.5-27.6 0-38.2s27.6-10.5 38.2 0zM432 207c7.5 0 13.5 6 13.5 13.5S439.5 234 432 234c0 23.3-4.4 45.7-12.6 66.3-11.2 28.3-34.7 41.7-58.6 43.1-7.4 .4-13.8-5.2-14.3-12.7s5.2-13.8 12.7-14.3c14.4-.9 28.1-8.5 35.1-26.1 6.9-17.5 10.7-36.5 10.7-56.4 0-14.9 12.1-27 27-27zM252 540c29.8 0 54-24.2 54-54 0-14.1-5.6-27.6-15.6-37.5L88 246c-7.7-7.7-18.1-12-29-12-22.6 0-41.4 18.5-37.5 40.8 15.4 87.4 79.2 158 162.7 183.2 8 2.4 13.8 9.6 13.8 17.9l0 10c0 29.8 24.2 54 54 54zM45.7 277.5a13.5 13.5 0 1 1 26.3-6 13.5 13.5 0 1 1 -26.3 6zM252 476l0 10c0 7.5-6 13.5-13.5 13.5S225 493.5 225 486l0-10c0-7.5 6-13.5 13.5-13.5s13.5 6 13.5 13.5z"/></svg>