<svg xmlns="http://www.w3.org/2000/svg" viewBox="0 0 540 540"><!--! Font Awesome Pro 7.1.0 by @fontawesome - https://fontawesome.com License - https://fontawesome.com/license (Commercial License) Copyright 2025 Fonticons, Inc. --><path fill="currentColor" d="M512.2 60.8C529.4 70.3 540 88.4 540 108l0 279c0 17.2-8.2 33.3-22 43.5-44.7 32.8-102.5 55.5-158 55.5-43.4 0-79.4-14.6-105.4-25.1-29.6-12-46.8-18.6-65.6-18.6-36.8 0-75.4 16.7-106.5 35.6-16.6 10.3-37.6 10.8-54.7 1.3-17.1-9.5-27.8-27.6-27.8-47.2L0 153c0-17.2 8.2-33.3 22-43.5 44.7-32.8 102.5-55.5 158-55.5 43.4 0 79.4 14.6 105.4 25.1 29.6 12 46.7 18.6 65.6 18.6 36.8 0 75.4-16.7 106.5-35.6 16.6-10.3 37.6-10.8 54.7-1.3zm-172.3 226c0-49.7-31.3-97.8-69.9-107.4s-69.9 22.9-69.9 72.6 31.3 97.8 69.9 107.4 69.9-22.9 69.9-72.6zM92.7 130.5c23.4-11.2 54.9-22.5 87.3-22.5 7.5 0 13.5-6 13.5-13.5S187.5 81 180 81c-38.2 0-73.9 13.1-99 25.2-15.5 7.4-30.1 15.6-43 25.1-6.9 5.1-11 13.2-11 21.8l0 279c0 7.5 6 13.5 13.5 13.5S54 439.5 54 432l0-279c11.1-8.2 24.1-15.5 38.7-22.5zm393.2-22.4c6.4-3.9 8.4-12.2 4.5-18.6s-12.2-8.4-18.6-4.5c-36.2 22.2-77.7 39.7-120.8 39.7-7.5 0-13.5 6-13.5 13.5s6 13.5 13.5 13.5c48.1 0 94.4-18.9 134.9-43.7zm-92 178.8c0-7.5-6-13.5-13.5-13.5s-13.5 6-13.5 13.5c0 30.2-9.5 58-28 77.3-13.9 14.4-31.9 22.9-51.6 23.9-7.4 .4-13.2 6.7-12.8 14.2s6.7 13.2 14.2 12.8c26.8-1.4 51.3-13 69.6-32.2 24.4-25.3 35.6-60.4 35.6-96z"/></svg>