<svg xmlns="http://www.w3.org/2000/svg" viewBox="0 0 360 540"><!--! Font Awesome Pro 7.1.0 by @fontawesome - https://fontawesome.com License - https://fontawesome.com/license (Commercial License) Copyright 2025 Fonticons, Inc. --><path fill="currentColor" d="M360 36c0-29.8-24.2-54-54-54L54-18C24.2-18 0 6.2 0 36L0 504c0 29.8 24.2 54 54 54l252 0c29.8 0 54-24.2 54-54l0-468zM54 504c0 7.5-6 13.5-13.5 13.5S27 511.5 27 504L27 36C27 21.1 39.1 9 54 9L306 9c7.5 0 13.5 6 13.5 13.5S313.5 36 306 36L54 36 54 504z"/></svg>