<svg xmlns="http://www.w3.org/2000/svg" viewBox="0 0 540 540"><!--! Font Awesome Pro 7.1.0 by @fontawesome - https://fontawesome.com License - https://fontawesome.com/license (Commercial License) Copyright 2025 Fonticons, Inc. --><path fill="currentColor" d="M126 72c0-29.8 24.2-54 54-54l180 0c29.8 0 54 24.2 54 54l0 34.5c0 16.4-7.4 31.9-20.2 42.1s-29.5 14.1-45.5 10.6l-58.8-13.1c-12.9-2.9-26.2-2.9-39 0l-58.8 13.1c-16 3.6-32.7-.3-45.5-10.6S126 122.9 126 106.5L126 72zm54-27c-14.9 0-27 12.1-27 27l0 34.5c0 7.5 6 13.5 13.5 13.5s13.5-6 13.5-13.5l0-34.5 180 0c7.5 0 13.5-6 13.5-13.5S367.5 45 360 45L180 45zm78.3 136.3c7.7-1.7 15.7-1.7 23.4 0l162 36c14.9 3.3 27.7 12.8 35.3 26.1s9.1 29.2 4.2 43.7L444.8 402.4c-1.5 4.6 11.3 8.3 14.2 9.7 7.8 3.9 18.6 1.9 27.1 1.9 29.8 0 54 24.2 54 54s-24.2 54-54 54l-19 0c-19.6 0-38.9-4.6-56.3-13.3-3.6-1.8-7.7-1.8-11.3 0-17.5 8.7-37.8 13.3-57.4 13.3s-39.9-4.6-57.4-13.3c-4.4-2.2-9.6-4.7-14.6-4.7s-10.3 2.5-14.6 4.7C237.9 517.4 217.6 522 198 522s-39.9-4.6-57.4-13.3c-3.6-1.8-7.7-1.8-11.3 0-17.5 8.7-36.8 13.3-56.3 13.3l-19 0c-29.8 0-54-24.2-54-54s24.2-54 54-54l19 0c3.8 0 24.2-5.5 22.2-11.6L56.8 287.1c-4.8-14.5-3.3-30.4 4.2-43.7s20.4-22.8 35.3-26.1l162-36zm17.6 26.4c-3.9-.9-7.9-.9-11.7 0l-162 36c-7.5 1.7-13.9 6.4-17.6 13.1-3.7 6.5-1.4 14.7 5.1 18.4s14.7 1.4 18.4-5.1l162-36c7.3 1.6 14.5-3 16.1-10.2s-3-14.5-10.2-16.1zM149.3 405.5c.3-7.5-5.5-13.7-12.9-14s-13.7 5.5-14 12.9c-.4 10.7-6.8 20.6-16.5 25.4l-12.7 6.4C86.9 439.4 80 441 73 441l-19 0c-14.9 0-27 12.1-27 27 0 7.5 6 13.5 13.5 13.5S54 475.5 54 468l19 0c11.2 0 22.2-2.6 32.2-7.6L118 454c18.5-9.2 30.5-27.9 31.4-48.5z"/></svg>