<svg xmlns="http://www.w3.org/2000/svg" viewBox="0 0 396 540"><!--! Font Awesome Pro 7.1.0 by @fontawesome - https://fontawesome.com License - https://fontawesome.com/license (Commercial License) Copyright 2025 Fonticons, Inc. --><path fill="currentColor" d="M159.8 15.8c21.1-21.1 55.3-21.1 76.4 0l144 144c15.4 15.4 20.1 38.7 11.7 58.8S363.8 252 342 252L54 252c-21.8 0-41.5-13.2-49.9-33.3S.4 175.3 15.8 159.8l144-144zm57.3 19.1c-10.5-10.5-27.6-10.5-38.2 0l-144 144c-7.7 7.7-10 19.3-5.9 29.4 2.9 6.9 10.8 10.2 17.6 7.3S56.9 204.9 54 198L198 54c5.3 5.3 13.8 5.3 19.1 0s5.3-13.8 0-19.1zM380.2 380.2l-144 144c-21.1 21.1-55.3 21.1-76.4 0l-144-144C.4 364.7-4.2 341.5 4.1 321.3S32.2 288 54 288l288 0c21.8 0 41.5 13.2 49.9 33.3s3.7 43.4-11.7 58.8zM54 315c-10.9 0-20.8 6.6-24.9 16.7-2.9 6.9 .4 14.8 7.3 17.6s14.8-.4 17.6-7.3l288 0c7.5 0 13.5-6 13.5-13.5S349.5 315 342 315L54 315z"/></svg>