<svg xmlns="http://www.w3.org/2000/svg" viewBox="0 0 504 540"><!--! Font Awesome Pro 7.1.0 by @fontawesome - https://fontawesome.com License - https://fontawesome.com/license (Commercial License) Copyright 2025 Fonticons, Inc. --><path fill="currentColor" d="M108 54c0-29.8 24.2-54 54-54L342 0c29.8 0 54 24.2 54 54s-24.2 54-54 54l-32.2 0c-4.4 0-5.1 6.4-1 7.6 25.3 6.9 48.8 18.3 69.5 33.2 6.7 4.8 15.7 5.2 22.3 .3l17.6-12.8c24.1-17.5 57.9-12.2 75.4 11.9s12.2 57.9-11.9 75.4l-17.5 12.8c-6.6 4.8-9.1 13.5-6.6 21.3 6.7 20.9 10.3 43.1 10.3 66.2 0 119.3-96.7 216-216 216S36 443.3 36 324c0-99.6 67.4-183.5 159.1-208.4 4.2-1.1 3.5-7.6-1-7.6L162 108c-29.8 0-54-24.2-54-54zM252 216c-19.9 0-36 16.1-36 36l0 72c0 19.9 16.1 36 36 36s36-16.1 36-36l0-72c0-19.9-16.1-36-36-36zM162 27c-14.9 0-27 12.1-27 27 0 7.5 6 13.5 13.5 13.5S162 61.5 162 54l180 0c7.5 0 13.5-6 13.5-13.5S349.5 27 342 27L162 27zm90 84.8c0-7.5-6-13.5-13.5-13.5s-13.5 6-13.5 13.5c0 14.2-9.6 26.2-22.8 29.8-80.3 21.8-139.2 95.3-139.2 182.4 0 7.5 6 13.5 13.5 13.5S90 331.5 90 324c0-74.6 50.5-137.6 119.3-156.3 24.7-6.7 42.7-29.2 42.7-55.8zM450 180c6-4.4 7.4-12.8 3-18.9s-12.8-7.4-18.9-3l-17.6 12.8c-6.8 5-14.3 7.6-21.9 8.4-7.4 .7-12.8 7.4-12.1 14.8s7.4 12.8 14.8 12.1c12.2-1.2 24.3-5.6 35.1-13.4L450 180zM342 252c0-7.5-6-13.5-13.5-13.5S315 244.5 315 252l0 72c0 34.8-28.2 63-63 63-7.5 0-13.5 6-13.5 13.5s6 13.5 13.5 13.5c49.7 0 90-40.3 90-90l0-72z"/></svg>