<svg width="24" height="24" viewBox="0 0 24 24" fill="none" xmlns="http://www.w3.org/2000/svg">
<path d="M9.3177 2.28681C11.2735 2.23774 12.7265 2.23773 14.6823 2.28681C16.1917 2.32464 17.5084 2.35765 18.5093 2.53176C18.8796 2.59616 19.2289 2.68184 19.5587 2.79811C19.6464 2.81873 19.7305 2.85104 19.809 2.89389C20.3249 3.1077 20.7913 3.40728 21.2146 3.83174C21.9641 4.58311 22.3229 5.4586 22.5047 6.50416C22.6753 7.48537 22.7028 8.77164 22.734 10.2371V10.2371C22.7469 10.841 22.752 11.2735 22.7493 11.742C22.7462 12.2856 22.3002 12.7203 21.7566 12.7203C21.1965 12.7203 20.7482 12.2599 20.751 11.6997C20.7532 11.2611 20.7482 10.8519 20.736 10.2797C20.72 9.53051 20.7058 8.89687 20.6798 8.3503C20.6604 7.9448 20.6507 7.74203 20.5039 7.66109C20.3571 7.58014 20.1765 7.68242 19.8155 7.88697L15.5798 10.287C14.2801 11.0234 13.181 11.5 11.9998 11.5C10.8186 11.5 9.71946 11.0234 8.41985 10.287L4.18445 7.88719C3.82343 7.68263 3.64292 7.58035 3.49608 7.6613C3.34924 7.74225 3.33957 7.94501 3.32023 8.35053C3.29416 8.89704 3.28003 9.53061 3.26403 10.2797C3.24333 11.2492 3.24334 11.7508 3.26405 12.7203C3.29736 14.2803 3.32261 15.3393 3.46432 16.1543C3.59776 16.9218 3.82038 17.3777 4.20122 17.7595C4.5781 18.1374 5.04027 18.3638 5.83355 18.5018C6.67174 18.6476 7.76497 18.6776 9.36791 18.7178C10.3319 18.742 11.1695 18.7541 12.0074 18.754C12.563 18.7539 13.0167 19.2018 13.0167 19.7574C13.0167 20.3042 12.5766 20.7498 12.0298 20.75C11.1677 20.7503 10.307 20.738 9.31772 20.7132H9.31769C7.80834 20.6754 6.49162 20.6424 5.49066 20.4683C4.42829 20.2835 3.53878 19.9236 2.78537 19.1683C2.03592 18.4169 1.67707 17.5414 1.49527 16.4959C1.32511 15.5172 1.29937 14.3101 1.26823 12.8498L1.26799 12.8383C1.24668 11.8403 1.24628 11.1597 1.26758 10.1617C1.29883 8.69623 1.32465 7.48538 1.49526 6.50416C1.67705 5.4586 2.0359 4.58311 2.78536 3.83174C3.53876 3.07641 4.42828 2.71654 5.49065 2.53175C6.49161 2.35765 7.80834 2.32464 9.3177 2.28681Z" fill="#141B34"/>
<path d="M18.5 13.25C18.8138 13.25 19.0945 13.4454 19.2034 13.7397L19.4613 14.4367C19.8233 15.4151 19.9388 15.6809 20.1289 15.8711C20.3191 16.0612 20.5849 16.1767 21.5633 16.5387L22.2603 16.7966C22.5546 16.9055 22.75 17.1862 22.75 17.5C22.75 17.8138 22.5546 18.0945 22.2603 18.2034L21.5633 18.4613C20.5849 18.8233 20.3191 18.9388 20.1289 19.1289C19.9388 19.3191 19.8233 19.5849 19.4613 20.5633L19.2034 21.2603C19.0945 21.5546 18.8138 21.75 18.5 21.75C18.1862 21.75 17.9055 21.5546 17.7966 21.2603L17.5387 20.5633C17.1767 19.5849 17.0612 19.3191 16.8711 19.1289C16.6809 18.9388 16.4151 18.8233 15.4367 18.4613L14.7397 18.2034C14.4454 18.0945 14.25 17.8138 14.25 17.5C14.25 17.1862 14.4454 16.9055 14.7397 16.7966L15.4367 16.5387C16.4151 16.1767 16.6809 16.0612 16.8711 15.8711C17.0612 15.6809 17.1767 15.4151 17.5387 14.4367L17.7966 13.7397C17.9055 13.4454 18.1862 13.25 18.5 13.25Z" fill="#141B34"/>
</svg>
