<svg width="24" height="24" viewBox="0 0 24 24" fill="none" xmlns="http://www.w3.org/2000/svg">
<path d="M13.998 21.75C16.253 21.75 18.0331 21.75 19.3515 21.5537C20.6903 21.3543 21.7763 20.9217 22.3759 19.8633L22.4795 19.6641C22.9508 18.6611 22.7579 17.5714 22.2763 16.3945C21.8927 15.4569 21.277 14.3483 20.499 13.0195L19.6689 11.6162L17.7441 8.37109L17.6982 8.29297C16.5955 6.4338 15.7229 4.96328 14.9111 3.96484C14.0828 2.94615 13.1844 2.25 12 2.25C10.8155 2.25004 9.91711 2.94615 9.08883 3.96484C8.47155 4.72408 7.81868 5.7561 7.0566 7.02441L6.25582 8.37109L4.33102 11.6162L4.28317 11.6963C3.13452 13.6328 2.22816 15.1614 1.7236 16.3945C1.21 17.6498 1.02504 18.8058 1.62399 19.8633L1.74215 20.0547C2.36044 20.9749 3.39339 21.3668 4.6484 21.5537C5.96685 21.75 7.74695 21.75 10.0019 21.75L13.998 21.75ZM12 9.99805C11.4477 9.99798 11 9.55029 11 8.99805V8.98828C11 8.43604 11.4477 7.98835 12 7.98828C12.5522 7.98828 13 8.436 13 8.98828V8.99805C13 9.55033 12.5522 9.99805 12 9.99805ZM12 18C11.4477 17.9999 11 17.5522 11 17L11 12.5C11 11.9478 11.4477 11.5001 12 11.5C12.5522 11.5 13 11.9477 13 12.5L13 17C13 17.5523 12.5522 18 12 18Z" fill="#141B34"/>
</svg>
