<svg width="24" height="24" viewBox="0 0 24 24" fill="none" xmlns="http://www.w3.org/2000/svg">
<path d="M11.4999 1.25C17.1609 1.25 21.7499 5.83908 21.7499 11.5C21.7499 17.1609 17.1609 21.75 11.4999 21.75C9.74473 21.75 8.0904 21.3084 6.64447 20.5293C5.88505 20.1201 5.28222 20.1112 4.73627 20.2139C4.44452 20.2688 4.16725 20.3556 3.85834 20.4531L3.84076 20.459C3.55363 20.5496 3.21634 20.6558 2.87787 20.707C2.4555 20.7709 2.05414 20.6147 1.77924 20.3398C1.34804 19.9083 1.30197 19.288 1.50287 18.8145L1.57611 18.6318C1.93607 17.6714 2.2095 16.0536 1.77142 14.7363C1.43284 13.7181 1.24994 12.6296 1.24994 11.5C1.24994 5.83908 5.83902 1.25 11.4999 1.25ZM11.4999 6.75C10.2573 6.75 9.24994 7.75736 9.24994 9C9.24994 9.81117 9.6804 10.5201 10.3242 10.916C8.54903 11.4261 7.24994 13.0608 7.24994 15C7.24994 15.4142 7.58573 15.75 7.99994 15.75H14.9999C15.4142 15.75 15.7499 15.4142 15.7499 15C15.7499 13.0605 14.4503 11.4259 12.6747 10.916C13.3189 10.5202 13.7499 9.81147 13.7499 9C13.7499 7.75736 12.7426 6.75 11.4999 6.75Z" fill="#141B34"/>
</svg>
