<svg width="24" height="24" viewBox="0 0 24 24" fill="none" xmlns="http://www.w3.org/2000/svg">
<path fill-rule="evenodd" clip-rule="evenodd" d="M8.1 1.25C8.63848 1.25 9.075 1.68754 9.075 2.22727V3.21284C9.6529 3.20453 10.2784 3.20453 10.9537 3.20454H13.0463C13.7216 3.20453 14.3471 3.20453 14.925 3.21284V2.22727C14.925 1.68754 15.3615 1.25 15.9 1.25C16.4385 1.25 16.875 1.68754 16.875 2.22727V3.29947C17.0513 3.31556 17.221 3.33437 17.3843 3.35638C18.5544 3.51407 19.5397 3.85141 20.3221 4.63573C21.1046 5.42004 21.4412 6.40758 21.5985 7.58045C21.75 8.71014 21.75 10.1465 21.75 11.9285V14.026C21.75 15.808 21.75 17.2444 21.5985 18.3741C21.4412 19.547 21.1046 20.5345 20.3221 21.3188C19.5397 22.1031 18.5544 22.4405 17.3843 22.5982C16.2572 22.75 14.8242 22.75 13.0463 22.75H10.9537C9.17581 22.75 7.74279 22.75 6.61573 22.5982C5.44558 22.4405 4.46035 22.1031 3.67786 21.3188C2.89537 20.5345 2.5588 19.547 2.40148 18.3741C2.24995 17.2444 2.24998 15.8081 2.25 14.0261V11.9285C2.24998 10.1465 2.24995 8.71012 2.40148 7.58045C2.5588 6.40758 2.89537 5.42004 3.67786 4.63573C4.46035 3.85141 5.44558 3.51407 6.61573 3.35638C6.77902 3.33437 6.94874 3.31556 7.125 3.29947V2.22727C7.125 1.68754 7.56152 1.25 8.1 1.25ZM4.21386 9.75C4.20045 10.3958 4.20001 11.1378 4.20001 12V13.9545C4.20001 15.8249 4.20208 17.1294 4.3341 18.1137C4.46235 19.0698 4.69693 19.5761 5.05673 19.9367C5.41652 20.2974 5.92166 20.5325 6.87557 20.6611C7.85752 20.7934 9.15897 20.7955 11.025 20.7955H12.975C14.8411 20.7955 16.1425 20.7934 17.1245 20.6611C18.0784 20.5325 18.5835 20.2974 18.9433 19.9367C19.3031 19.5761 19.5377 19.0698 19.6659 18.1137C19.7979 17.1294 19.8 15.8249 19.8 13.9545V12C19.8 11.1378 19.7996 10.3958 19.7862 9.75H4.21386Z" fill="#141B34"/>
</svg>
