<svg width="24" height="24" viewBox="0 0 24 24" fill="none" xmlns="http://www.w3.org/2000/svg">
<path d="M18.7113 21.7333C20.4365 21.9235 21.7504 20.4991 21.7504 18.9103V17.4402C21.7504 16.3427 20.8839 15.563 19.9766 15.398C19.4468 15.3016 18.8692 15.1405 18.3685 14.9809C17.3064 14.6423 16.0861 14.8688 15.2504 15.7045L12.9863 17.9677C10.0284 16.4015 7.59807 13.9716 6.03211 11.0135L8.35429 8.69325C9.14303 7.90451 9.40357 6.75267 9.09312 5.71221C8.92934 5.16344 8.75071 4.52185 8.63421 3.98605C8.43907 3.08892 7.63771 2.25037 6.56053 2.25037H5.09048C3.50169 2.25037 2.07729 3.56423 2.26749 5.28948C3.22053 13.9249 10.0759 20.7802 18.7113 21.7333Z" fill="#141B34"/>
<path d="M19.2933 3.29332C19.6839 2.9028 20.3169 2.9028 20.7074 3.29332C21.0979 3.68384 21.0979 4.31686 20.7074 4.70738L16.4447 8.9691C16.859 8.93953 17.2931 8.89357 17.7103 8.8441C18.1417 8.79294 18.579 8.73747 18.9135 8.70836C19.4636 8.66049 19.9485 9.06741 19.9965 9.61754C20.0443 10.1677 19.6374 10.6526 19.0873 10.7005C18.7942 10.726 18.4114 10.7753 17.9467 10.8304C17.4958 10.8839 16.9866 10.9406 16.4916 10.973C16.0035 11.005 15.4887 11.0166 15.0326 10.9671C14.6376 10.9243 14.0307 10.8139 13.6088 10.392C13.1869 9.97004 13.0764 9.36309 13.0336 8.96813C12.9841 8.51207 12.9957 7.99724 13.0277 7.50914C13.0602 7.01409 13.1168 6.50493 13.1703 6.05406C13.2254 5.58933 13.2747 5.20654 13.3002 4.91344C13.3482 4.36335 13.8331 3.95639 14.3832 4.00426C14.9333 4.0522 15.3402 4.53711 15.2924 5.08727C15.2633 5.42172 15.2078 5.85899 15.1566 6.29039C15.1072 6.70728 15.0602 7.14098 15.0306 7.55504L19.2933 3.29332Z" fill="#141B34"/>
</svg>
