<svg width="24" height="24" viewBox="0 0 24 24" fill="none" xmlns="http://www.w3.org/2000/svg">
<path d="M18.7113 21.7333C20.4365 21.9235 21.7504 20.4991 21.7504 18.9103V17.4402C21.7504 16.3427 20.8838 15.563 19.9766 15.398C19.4468 15.3016 18.8692 15.1405 18.3685 14.9809C17.3063 14.6423 16.0861 14.8688 15.2504 15.7045L12.9863 17.9677C10.0284 16.4015 7.59805 13.9716 6.0321 11.0135L8.35427 8.69325C9.14302 7.90451 9.40355 6.75267 9.09311 5.71221C8.92932 5.16344 8.7507 4.52185 8.63419 3.98605C8.43906 3.08892 7.63769 2.25037 6.56051 2.25037H5.09047C3.50167 2.25037 2.07728 3.56423 2.26748 5.28948C3.22051 13.9249 10.0759 20.7802 18.7113 21.7333Z" fill="#141B34"/>
<path d="M21.7053 4.70461C21.5418 4.1771 20.9818 3.88199 20.4543 4.04543C18.5163 4.64601 16.9249 6.37792 15.8811 7.77785C15.5115 8.27351 15.1935 8.753 14.9338 9.16847C14.6013 8.81679 14.2735 8.56448 13.968 8.38625C13.6691 8.21198 13.4017 8.11528 13.1887 8.06203C13.0828 8.03557 12.9886 8.00051 12.7502 8.00051C12.1979 8.00051 11.7502 8.44822 11.7502 9.00051C11.7502 9.55246 12.1974 9.999 12.7493 9.99953C13.1449 10.1176 13.6688 10.6244 14.1672 11.4966C14.3504 11.8171 14.6957 12.0111 15.0647 12.0005C15.4334 11.9899 15.7663 11.7768 15.9309 11.4468C16 11.3179 16.2034 10.9386 16.3381 10.7085C16.6084 10.247 16.9998 9.6234 17.4846 8.97316C18.4912 7.62312 19.7573 6.35502 21.0461 5.95558C21.5736 5.79211 21.8687 5.23212 21.7053 4.70461Z" fill="#141B34"/>
</svg>
