<svg width="24" height="24" viewBox="0 0 24 24" fill="none" xmlns="http://www.w3.org/2000/svg">
<path d="M18.7113 21.7333C20.4365 21.9235 21.7504 20.4991 21.7504 18.9103V17.4402C21.7504 16.3427 20.8839 15.563 19.9766 15.398C19.4468 15.3016 18.8692 15.1405 18.3685 14.9809C17.3064 14.6423 16.0861 14.8688 15.2504 15.7045L12.9863 17.9677C10.0284 16.4015 7.59807 13.9716 6.03211 11.0135L8.35429 8.69325C9.14303 7.90451 9.40357 6.75267 9.09312 5.71221C8.92934 5.16344 8.75071 4.52185 8.63421 3.98605C8.43907 3.08892 7.63771 2.25037 6.56053 2.25037H5.09048C3.50169 2.25037 2.07729 3.56423 2.26749 5.28948C3.22053 13.9249 10.0759 20.7802 18.7113 21.7333Z" fill="#141B34"/>
<path d="M19.0004 9.75022V11.2502C19.0004 11.8025 19.4481 12.2502 20.0004 12.2502C20.5527 12.2502 21.0004 11.8025 21.0004 11.2502V9.75022L21.0004 9.68118C21.0004 8.79604 21.0005 8.03302 20.9184 7.42209C20.8302 6.76669 20.6311 6.1387 20.1215 5.62912C19.6119 5.11954 18.9839 4.9204 18.3285 4.83225C17.7018 4.74798 16.9149 4.75022 16.0004 4.75022H15.2426C15.3342 4.6778 15.425 4.60627 15.5141 4.53635C15.7543 4.34762 16.0243 4.13547 16.1976 3.96701C16.5934 3.58205 16.602 2.94889 16.2172 2.55295C15.8322 2.1572 15.1991 2.14858 14.8031 2.53342C14.7235 2.61077 14.5542 2.74672 14.2787 2.96311C14.0255 3.16196 13.7126 3.40677 13.4144 3.6594C13.1208 3.90821 12.8068 4.19372 12.559 4.48459C12.4347 4.63052 12.3064 4.80185 12.2055 4.99045C12.1088 5.17112 12.0004 5.43516 12.0004 5.75022C12.0004 6.06528 12.1088 6.32932 12.2055 6.50998C12.3064 6.69859 12.4347 6.86991 12.559 7.01584C12.8068 7.30672 13.1208 7.59223 13.4144 7.84104C13.7126 8.09367 14.0255 8.33847 14.2787 8.53733C14.5542 8.75371 14.7235 8.88967 14.8031 8.96701C15.1991 9.35186 15.8322 9.34324 16.2172 8.94748C16.602 8.55154 16.5934 7.91838 16.1976 7.53342C16.0243 7.36496 15.7543 7.15282 15.5141 6.96408C15.425 6.89417 15.3342 6.82264 15.2426 6.75022H16.0004C16.9715 6.75022 17.5994 6.75249 18.0619 6.81467C18.4955 6.87299 18.6313 6.96708 18.7074 7.04319C18.7835 7.1193 18.8776 7.25515 18.9359 7.68869C18.9981 8.1512 19.0004 8.77914 19.0004 9.75022Z" fill="#141B34"/>
</svg>
