<svg width="24" height="24" viewBox="0 0 24 24" fill="none" xmlns="http://www.w3.org/2000/svg">
<path d="M18.7093 21.7333C20.4346 21.9235 21.7484 20.4991 21.7484 18.9103V17.4402C21.7484 16.3427 20.8819 15.563 19.9747 15.398C19.4448 15.3016 18.8672 15.1405 18.3666 14.9809C17.3044 14.6423 16.0842 14.8688 15.2484 15.7045L12.9843 17.9677C10.0264 16.4015 7.59611 13.9716 6.03016 11.0135L8.35234 8.69325C9.14108 7.90451 9.40162 6.75267 9.09117 5.71221C8.92739 5.16344 8.74876 4.52185 8.63226 3.98605C8.43712 3.08892 7.63576 2.25037 6.55857 2.25037H5.08853C3.49974 2.25037 2.07534 3.56423 2.26554 5.28948C3.21857 13.9249 10.0739 20.7802 18.7093 21.7333Z" fill="#141B34"/>
<path d="M15.4984 11.0004V8.50037H12.9984C12.4461 8.50037 11.9984 8.05265 11.9984 7.50037C11.9984 6.94808 12.4461 6.50037 12.9984 6.50037H15.4984V4.00037C15.4984 3.44808 15.9461 3.00037 16.4984 3.00037C17.0507 3.00037 17.4984 3.44808 17.4984 4.00037V6.50037H19.9984C20.5507 6.50037 20.9984 6.94808 20.9984 7.50037C20.9984 8.05265 20.5507 8.50037 19.9984 8.50037H17.4984V11.0004C17.4984 11.5527 17.0507 12.0004 16.4984 12.0004C15.9461 12.0004 15.4984 11.5527 15.4984 11.0004Z" fill="#141B34"/>
</svg>
