<svg width="24" height="24" viewBox="0 0 24 24" fill="none" xmlns="http://www.w3.org/2000/svg">
<path d="M18.7113 21.7333C20.4365 21.9235 21.7504 20.4991 21.7504 18.9103V17.4402C21.7504 16.3427 20.8839 15.5631 19.9766 15.398C19.4468 15.3016 18.8692 15.1406 18.3685 14.9809C17.3064 14.6424 16.0861 14.8688 15.2504 15.7045L12.9863 17.9677C10.0284 16.4015 7.59807 13.9716 6.03211 11.0135L8.35429 8.69326C9.14303 7.90451 9.40357 6.75267 9.09312 5.71222C8.92934 5.16345 8.75071 4.52186 8.63421 3.98606C8.43907 3.08893 7.63771 2.25037 6.56053 2.25037H5.09048C3.50169 2.25037 2.07729 3.56424 2.26749 5.28949C3.22053 13.9249 10.0759 20.7802 18.7113 21.7333Z" fill="#141B34"/>
<path d="M18.9682 3.03358C18.5121 2.98415 17.9973 2.99573 17.5092 3.02772C17.0141 3.06018 16.505 3.11683 16.0541 3.1703C15.5894 3.22541 15.2066 3.27468 14.9135 3.30018C14.3634 3.34817 13.9564 3.83306 14.0043 4.38319C14.0522 4.93332 14.5371 5.34023 15.0873 5.29237C15.4217 5.26326 15.859 5.20778 16.2904 5.15662C16.7073 5.10719 17.141 5.06022 17.5551 5.03065L13.2934 9.29334C12.9028 9.68387 12.9028 10.3169 13.2934 10.7074C13.6839 11.0979 14.3169 11.0979 14.7074 10.7074L18.9691 6.44471C18.9396 6.85904 18.8936 7.29315 18.8441 7.71034C18.793 8.14174 18.7375 8.57901 18.7084 8.91346C18.6605 9.46362 19.0674 9.94852 19.6176 9.99647C20.1677 10.0443 20.6526 9.63738 20.7006 9.08729C20.7261 8.79418 20.7753 8.41139 20.8305 7.94666C20.8839 7.49579 20.9406 6.98664 20.973 6.49159C21.005 6.00348 21.0166 5.48866 20.9672 5.0326C20.9243 4.63763 20.8139 4.03069 20.392 3.60877C19.9701 3.18686 19.3631 3.07641 18.9682 3.03358Z" fill="#141B34"/>
</svg>
