<svg width="24" height="24" viewBox="0 0 24 24" fill="none" xmlns="http://www.w3.org/2000/svg">
<path d="M19.2217 1.72849C18.9499 1.04512 17.894 1.0939 17.7344 1.87497C17.44 3.31483 16.3149 4.43999 14.875 4.73435C14.0418 4.90464 14.0418 6.0953 14.875 6.2656C16.3148 6.55995 17.44 7.68512 17.7344 9.12497C17.9047 9.95814 19.0953 9.95814 19.2656 9.12497C19.56 7.68512 20.6851 6.55995 22.125 6.2656C22.9582 6.09531 22.9582 4.90464 22.125 4.73435C20.7749 4.45835 19.7014 3.45199 19.3301 2.1406L19.2656 1.87497L19.2217 1.72849Z" fill="#141B34"/>
<path d="M12 2.25C13.4756 2.25 14.8992 2.28018 16.2383 2.33691C15.9279 2.87996 15.4158 3.29039 14.7998 3.46484L14.624 3.50781C12.459 3.95094 12.459 7.0449 14.624 7.48828C15.5731 7.6823 16.3155 8.42405 16.5098 9.37305C16.9525 11.5391 20.0475 11.5391 20.4902 9.37305C20.6844 8.42416 21.4261 7.68241 22.375 7.48828C22.4731 7.46823 22.5661 7.44059 22.6553 7.41016C22.6771 7.81932 22.6935 8.25582 22.71 8.72363C22.7359 9.45905 22.75 10.2205 22.75 11C22.75 11.7795 22.7359 12.5409 22.71 13.2764C22.6298 15.5495 22.6167 17.0869 21.4023 18.3105C20.7921 18.9254 20.0995 19.2383 19.2588 19.4082C18.4718 19.5672 17.5091 19.6083 16.3418 19.6582L16.2754 19.6611C15.5355 19.6928 14.7696 19.7165 13.9834 19.7314C13.1863 19.7466 12.9733 19.7607 12.7988 19.8271C12.6239 19.8938 12.4615 20.0198 11.873 20.5244L9.69336 22.3936C9.4251 22.6236 9.08286 22.75 8.72949 22.75C7.91249 22.7498 7.25022 22.0875 7.25 21.2705V19.6396C6.26419 19.5959 5.43456 19.5483 4.74121 19.4082C3.90049 19.2383 3.20788 18.9254 2.59766 18.3105C1.38331 17.0869 1.37023 15.5495 1.29004 13.2764C1.26409 12.5409 1.25 11.7795 1.25 11C1.25 10.2205 1.26409 9.45905 1.29004 8.72363C1.37023 6.45046 1.38331 4.91312 2.59766 3.68945C3.20788 3.07464 3.90049 2.76171 4.74121 2.5918C5.52815 2.43277 6.49097 2.39169 7.6582 2.3418L7.72461 2.33887C9.0745 2.28112 10.5108 2.25 12 2.25ZM7.99512 10C7.44294 10.0001 6.99512 10.4478 6.99512 11C6.99512 11.5522 7.44294 11.9999 7.99512 12H8.00391L8.10645 11.9951C8.61066 11.9439 9.00391 11.5177 9.00391 11C9.00391 10.4823 8.61066 10.0561 8.10645 10.0049L8.00391 10H7.99512ZM11.9902 10C11.4382 10.0003 10.9902 10.4479 10.9902 11C10.9902 11.5521 11.4382 11.9997 11.9902 12H12C12.5521 11.9998 13 11.5522 13 11C13 10.4478 12.5521 10.0002 12 10H11.9902Z" fill="#141B34"/>
</svg>
