<svg width="24" height="24" viewBox="0 0 24 24" fill="none" xmlns="http://www.w3.org/2000/svg">
<path d="M12 1.75C13.4892 1.75 14.9255 1.78112 16.2754 1.83887L16.3418 1.8418C17.509 1.89169 18.4719 1.93277 19.2588 2.0918C20.0995 2.26171 20.7921 2.57464 21.4023 3.18945C22.6167 4.41312 22.6298 5.95045 22.71 8.22363C22.7359 8.95905 22.75 9.72053 22.75 10.5C22.75 11.2795 22.7359 12.0409 22.71 12.7764C22.6298 15.0495 22.6167 16.5869 21.4023 17.8105C20.7921 18.4254 20.0995 18.7383 19.2588 18.9082C18.4718 19.0672 17.5091 19.1083 16.3418 19.1582L16.2754 19.1611C15.5355 19.1928 14.7696 19.2165 13.9834 19.2314C13.1863 19.2466 12.9733 19.2607 12.7988 19.3271C12.6239 19.3938 12.4615 19.5198 11.873 20.0244L9.69336 21.8936C9.4251 22.1236 9.08286 22.25 8.72949 22.25C7.91249 22.2498 7.25022 21.5875 7.25 20.7705V19.1396C6.26419 19.0959 5.43456 19.0483 4.74121 18.9082C3.90049 18.7383 3.20788 18.4254 2.59766 17.8105C1.38331 16.5869 1.37023 15.0495 1.29004 12.7764C1.26409 12.0409 1.25 11.2795 1.25 10.5C1.25 9.72053 1.26409 8.95905 1.29004 8.22363C1.37023 5.95046 1.38331 4.41312 2.59766 3.18945C3.20788 2.57464 3.90049 2.26171 4.74121 2.0918C5.52815 1.93277 6.49097 1.89169 7.6582 1.8418L7.72461 1.83887C9.0745 1.78112 10.5108 1.75 12 1.75ZM12 6C11.6228 6.00004 11.3086 6.16357 11.1279 6.27246C10.9199 6.3979 10.7175 6.55864 10.5352 6.71973C10.1683 7.04391 9.78453 7.4574 9.44824 7.84473C9.10763 8.23705 8.79528 8.62648 8.56934 8.91602C8.45592 9.06135 8.25996 9.32163 8.19531 9.40723C7.86789 9.85189 7.96263 10.4782 8.40723 10.8057C8.82412 11.1124 9.40008 11.0475 9.74023 10.6719L9.89453 10.4736C9.95374 10.3952 10.0396 10.2822 10.1455 10.1465C10.3584 9.87363 10.6896 9.46591 11 9.1084V14C11 14.5522 11.4478 14.9999 12 15C12.5523 15 13 14.5523 13 14V9.1084C13.3104 9.4659 13.6415 9.87361 13.8545 10.1465C13.9604 10.2822 14.136 10.5143 14.1953 10.5928C14.5228 11.0374 15.1481 11.1321 15.5928 10.8047C16.0373 10.4773 16.1328 9.85188 15.8057 9.40723C15.7409 9.32155 15.544 9.0613 15.4307 8.91602C15.2047 8.62648 14.8924 8.23704 14.5518 7.84473C14.2155 7.4574 13.8317 7.0439 13.4648 6.71973C13.2825 6.55863 13.0801 6.39789 12.8721 6.27246C12.714 6.1772 12.4538 6.03967 12.1387 6.00684L12 6Z" fill="#141B34"/>
</svg>
