<svg width="24" height="24" viewBox="0 0 24 24" fill="none" xmlns="http://www.w3.org/2000/svg">
<path d="M12 1.75C13.4892 1.75 14.9255 1.78112 16.2754 1.83887L16.3418 1.8418C17.509 1.89169 18.4719 1.93277 19.2588 2.0918C20.0995 2.26171 20.7921 2.57464 21.4023 3.18945C22.6167 4.41312 22.6298 5.95045 22.71 8.22363C22.7359 8.95905 22.75 9.72053 22.75 10.5C22.75 11.2795 22.7359 12.0409 22.71 12.7764C22.6298 15.0495 22.6167 16.5869 21.4023 17.8105C20.7921 18.4254 20.0995 18.7383 19.2588 18.9082C18.4718 19.0672 17.5091 19.1083 16.3418 19.1582L16.2754 19.1611C15.5355 19.1928 14.7696 19.2165 13.9834 19.2314C13.1863 19.2466 12.9733 19.2607 12.7988 19.3271C12.6239 19.3938 12.4615 19.5198 11.873 20.0244L9.69336 21.8936C9.4251 22.1236 9.08286 22.25 8.72949 22.25C7.91249 22.2498 7.25022 21.5875 7.25 20.7705V19.1396C6.26419 19.0959 5.43456 19.0483 4.74121 18.9082C3.90049 18.7383 3.20788 18.4254 2.59766 17.8105C1.38331 16.5869 1.37023 15.0495 1.29004 12.7764C1.26409 12.0409 1.25 11.2795 1.25 10.5C1.25 9.72053 1.26409 8.95905 1.29004 8.22363C1.37023 5.95046 1.38331 4.41312 2.59766 3.18945C3.20788 2.57464 3.90049 2.26171 4.74121 2.0918C5.52815 1.93277 6.49097 1.89169 7.6582 1.8418L7.72461 1.83887C9.0745 1.78112 10.5108 1.75 12 1.75ZM12 6.75C10.2466 6.75 8.82782 7.624 7.88672 8.43066C7.41043 8.83893 7.03755 9.24558 6.7832 9.55078C6.6556 9.70391 6.4443 9.99142 6.37598 10.084C6.2066 10.338 6.20814 10.6694 6.37988 10.9219C6.44915 11.0141 6.66294 11.3004 6.79199 11.4531C7.04928 11.7576 7.42596 12.1637 7.9043 12.5713C8.84758 13.375 10.2663 14.25 12 14.25C13.7337 14.25 15.1524 13.375 16.0957 12.5713C16.574 12.1637 16.9507 11.7576 17.208 11.4531C17.3371 11.3004 17.5509 11.0141 17.6201 10.9219C17.7704 10.701 17.7905 10.4197 17.6797 10.1826C17.6609 10.1558 17.5458 9.97192 17.5117 9.92578C17.4434 9.83321 17.3444 9.70391 17.2168 9.55078C16.9625 9.24558 16.5896 8.83893 16.1133 8.43066C15.1722 7.624 13.7534 6.75 12 6.75Z" fill="#141B34"/>
<path d="M12.0001 9C12.8249 9 13.4935 9.67157 13.4935 10.5C13.4935 11.3284 12.8249 12 12.0001 12H11.9869C11.1622 12 10.4935 11.3284 10.4935 10.5C10.4935 9.67159 11.1622 9.00003 11.9869 9H12.0001Z" fill="#141B34"/>
</svg>
