<svg width="24" height="24" viewBox="0 0 24 24" fill="none" xmlns="http://www.w3.org/2000/svg">
<path d="M2.25 10.333V14C2.25 18.2802 5.71979 21.75 10 21.75C14.2802 21.75 17.75 18.2802 17.75 14V8.99999C17.75 8.58578 17.4142 8.24999 17 8.24999H4.33301C4.0714 8.24999 3.79336 8.24352 3.54688 8.30956C2.9431 8.47141 2.47141 8.94309 2.30957 9.54687C2.24353 9.79335 2.24999 10.0714 2.25 10.333Z" fill="#141B34"/>
<path d="M20 12.25C20 11.1454 19.1046 10.25 18 10.25H17C16.4477 10.25 16 9.80228 16 9.25C16 8.69772 16.4477 8.25 17 8.25H18C20.2091 8.25 22 10.0409 22 12.25C22 14.4591 20.2091 16.25 18 16.25H17C16.4477 16.25 16 15.8023 16 15.25C16 14.6977 16.4477 14.25 17 14.25H18C19.1046 14.25 20 13.3546 20 12.25Z" fill="#141B34"/>
<path d="M5 5.25V3.25C5 2.69772 5.44772 2.25 6 2.25C6.55228 2.25 7 2.69772 7 3.25V5.25C7 5.80228 6.55228 6.25 6 6.25C5.44772 6.25 5 5.80228 5 5.25ZM9 5.25V3.25C9 2.69772 9.44772 2.25 10 2.25C10.5523 2.25 11 2.69772 11 3.25V5.25C11 5.80228 10.5523 6.25 10 6.25C9.44772 6.25 9 5.80228 9 5.25ZM13 5.25V3.25C13 2.69772 13.4477 2.25 14 2.25C14.5523 2.25 15 2.69772 15 3.25V5.25C15 5.80228 14.5523 6.25 14 6.25C13.4477 6.25 13 5.80228 13 5.25Z" fill="#141B34"/>
</svg>
