<svg width="24" height="24" viewBox="0 0 24 24" fill="none" xmlns="http://www.w3.org/2000/svg">
<path fill-rule="evenodd" clip-rule="evenodd" d="M2 20.75C2 20.1977 2.44772 19.75 3 19.75H21C21.5523 19.75 22 20.1977 22 20.75C22 21.3023 21.5523 21.75 21 21.75H3C2.44772 21.75 2 21.3023 2 20.75Z" fill="#141B34"/>
<path d="M20 21.75C20.4142 21.75 20.75 21.4142 20.75 21V11C20.75 6.16751 16.8325 2.25 12 2.25C7.16751 2.25 3.25 6.16751 3.25 11L3.25 21C3.25 21.4142 3.58579 21.75 4 21.75L20 21.75ZM12 10C10.8954 10 10 9.10457 10 8C10 6.89543 10.8954 6 12 6C13.1046 6 14 6.89543 14 8C14 9.10457 13.1046 10 12 10ZM15 21.75C14.5858 21.75 14.25 21.4142 14.25 21V17C14.25 16.2319 14.0285 15.6877 13.6895 15.3389C13.3539 14.9938 12.816 14.75 12 14.75C11.184 14.75 10.6461 14.9938 10.3105 15.3389C9.97154 15.6877 9.75 16.2319 9.75 17V21C9.75 21.4142 9.41421 21.75 9 21.75C8.58579 21.75 8.25 21.4142 8.25 21V17C8.25 15.9456 8.55855 14.9895 9.23438 14.2939C9.91375 13.5948 10.8759 13.25 12 13.25C13.1241 13.25 14.0862 13.5948 14.7656 14.2939C15.4414 14.9895 15.75 15.9456 15.75 17V21C15.75 21.4142 15.4142 21.75 15 21.75Z" fill="#141B34"/>
</svg>
