<svg width="24" height="24" viewBox="0 0 24 24" fill="none" xmlns="http://www.w3.org/2000/svg">
<path fill-rule="evenodd" clip-rule="evenodd" d="M9.25 17C9.25 16.0335 10.0335 15.25 11 15.25H14.0002C14.4144 15.25 14.7502 15.5858 14.7502 16C14.7502 16.4142 14.4144 16.75 14.0002 16.75H11C10.8619 16.75 10.75 16.8619 10.75 17V18C10.75 18.1381 10.8619 18.25 11 18.25H13.0002C13.9667 18.25 14.7502 19.0335 14.7502 20V21C14.7502 21.9665 13.9667 22.75 13.0002 22.75H10C9.58579 22.75 9.25 22.4142 9.25 22C9.25 21.5858 9.58579 21.25 10 21.25H13.0002C13.1383 21.25 13.2502 21.1381 13.2502 21V20C13.2502 19.8619 13.1383 19.75 13.0002 19.75H11C10.0335 19.75 9.25 18.9665 9.25 18V17Z" fill="#141B34"/>
<path fill-rule="evenodd" clip-rule="evenodd" d="M5.71217 16.7701C5.51585 16.7523 5.28764 16.75 5.00505 16.75C4.12263 16.75 3.94175 16.8764 3.90081 16.9194C3.88649 16.9344 3.84261 16.9873 3.80623 17.1653C3.76826 17.351 3.75 17.6137 3.75 18V20C3.75 20.3863 3.76826 20.649 3.80623 20.8347C3.84261 21.0127 3.88649 21.0656 3.90081 21.0807C3.94175 21.1237 4.12263 21.25 5.00505 21.25C5.28764 21.25 5.51585 21.2477 5.71217 21.2299C5.90967 21.212 6.02707 21.1817 6.09656 21.1509C6.15123 21.1267 6.16675 21.1073 6.17932 21.0864C6.19865 21.0543 6.24076 20.9615 6.25081 20.7455C6.27008 20.3318 6.62112 20.012 7.03488 20.0312C7.44865 20.0505 7.76845 20.4015 7.74919 20.8153C7.73153 21.1946 7.64998 21.5518 7.4645 21.8599C7.27228 22.1793 7.00187 22.3904 6.70429 22.5223C6.1897 22.7503 5.54578 22.7502 5.042 22.75C5.02959 22.75 5.01728 22.75 5.00505 22.75C4.16757 22.75 3.34592 22.6733 2.81431 22.1148C2.54236 21.8291 2.40746 21.4817 2.33663 21.1352C2.26739 20.7965 2.25 20.4107 2.25 20V18C2.25 17.5893 2.26739 17.2035 2.33663 16.8648C2.40746 16.5184 2.54236 16.1709 2.81431 15.8852C3.34592 15.3267 4.16757 15.25 5.00505 15.25C5.01728 15.25 5.02959 15.25 5.04199 15.25C5.54578 15.2499 6.1897 15.2497 6.7043 15.4777C7.00188 15.6096 7.27228 15.8207 7.46451 16.1401C7.64998 16.4483 7.73153 16.8055 7.74919 17.1847C7.76845 17.5985 7.44865 17.9495 7.03488 17.9688C6.62112 17.9881 6.27008 17.6683 6.25081 17.2545C6.24076 17.0386 6.19865 16.9457 6.17932 16.9136C6.16675 16.8927 6.15123 16.8733 6.09656 16.8491C6.02707 16.8183 5.90967 16.788 5.71217 16.7701Z" fill="#141B34"/>
<path fill-rule="evenodd" clip-rule="evenodd" d="M16.25 17C16.25 16.0335 17.0335 15.25 18 15.25H21.0002C21.4144 15.25 21.7502 15.5858 21.7502 16C21.7502 16.4142 21.4144 16.75 21.0002 16.75H18C17.8619 16.75 17.75 16.8619 17.75 17V18C17.75 18.1381 17.8619 18.25 18 18.25H20.0002C20.9667 18.25 21.7502 19.0335 21.7502 20V21C21.7502 21.9665 20.9667 22.75 20.0002 22.75H17C16.5858 22.75 16.25 22.4142 16.25 22C16.25 21.5858 16.5858 21.25 17 21.25H20.0002C20.1383 21.25 20.2502 21.1381 20.2502 21V20C20.2502 19.8619 20.1383 19.75 20.0002 19.75H18C17.0335 19.75 16.25 18.9665 16.25 18V17Z" fill="#141B34"/>
<path fill-rule="evenodd" clip-rule="evenodd" d="M13.1375 1.41733C12.662 1.24866 12.1575 1.24934 11.5876 1.2501C10.0619 1.25008 8.65425 1.25017 7.6755 1.36504C6.66281 1.48389 5.7951 1.7369 5.06008 2.33261C4.79027 2.55128 4.5445 2.79833 4.32696 3.06954C3.73433 3.80839 3.48263 4.6806 3.3644 5.69856C3.25012 6.6824 3.25013 7.91892 3.25015 9.45257V10.75C3.25015 12.1642 3.25015 12.8713 3.68949 13.3106C4.12883 13.75 4.83594 13.75 6.25015 13.75L17.75 13.75C19.1642 13.75 19.8713 13.75 20.3106 13.3107C20.7499 12.8714 20.75 12.1643 20.75 10.7501L20.75 10.5518C20.751 9.88846 20.7519 9.29971 20.5279 8.75596C20.3038 8.2122 19.889 7.79654 19.4217 7.32819L14.6388 2.52054C14.2364 2.11489 13.8801 1.75582 13.4253 1.53715C13.3315 1.49208 13.2355 1.45209 13.1375 1.41733ZM17.9493 8.6144C18.5674 9.2357 18.6728 9.36608 18.7296 9.50391C17.362 9.50393 16.7134 9.50314 15.8465 9.38658C14.9463 9.26557 14.1885 9.00667 13.5866 8.40476C12.9846 7.80284 12.7257 7.04497 12.6047 6.14486C12.4884 5.27967 12.4884 4.63195 12.4884 3.2701V3.26172C12.6701 3.31641 12.8115 3.44983 13.3444 3.98554L17.9493 8.6144Z" fill="#141B34"/>
</svg>
