<svg width="24" height="24" viewBox="0 0 24 24" fill="none" xmlns="http://www.w3.org/2000/svg">
<path d="M2.25 6.75C2.25 9.23528 4.26472 11.25 6.75 11.25C9.23528 11.25 11.25 9.23528 11.25 6.75C11.25 4.26472 9.23528 2.25 6.75 2.25C4.26472 2.25 2.25 4.26472 2.25 6.75Z" fill="#141B34"/>
<path d="M12.75 17.25C12.75 19.7353 14.7647 21.75 17.25 21.75C19.7353 21.75 21.75 19.7353 21.75 17.25C21.75 14.7647 19.7353 12.75 17.25 12.75C14.7647 12.75 12.75 14.7647 12.75 17.25Z" fill="#141B34"/>
<path d="M2.25 17.25C2.25 19.7353 4.26472 21.75 6.75 21.75C9.23528 21.75 11.25 19.7353 11.25 17.25C11.25 14.7647 9.23528 12.75 6.75 12.75C4.26472 12.75 2.25 14.7647 2.25 17.25Z" fill="#141B34"/>
<path d="M18.0326 2.78098C18.7405 2.073 19.8884 2.07301 20.5964 2.78099L21.219 3.40361C21.927 4.1116 21.927 5.25946 21.219 5.96744L17.8702 9.3162C17.3204 9.86604 16.6201 10.2408 15.8576 10.3933L14.1471 10.7354C13.9012 10.7846 13.647 10.7076 13.4697 10.5303C13.2923 10.353 13.2154 10.0988 13.2646 9.85291L13.6067 8.14238C13.7592 7.37989 14.134 6.67959 14.6838 6.12975L18.0326 2.78098Z" fill="#141B34"/>
</svg>
