<svg width="24" height="24" viewBox="0 0 24 24" fill="none" xmlns="http://www.w3.org/2000/svg">
<path fill-rule="evenodd" clip-rule="evenodd" d="M19.9424 17.7671C19.5761 19.5006 18.0379 20.7358 16.2609 20.7499C15.9708 20.7659 15.9163 20.9311 15.9253 21.0117C15.9253 21.9718 15.147 22.75 14.187 22.75L8.00426 22.75C7.57144 22.7501 7.17461 22.7501 6.8518 22.7067C6.49632 22.6589 6.12059 22.5465 5.81157 22.2374C5.50254 21.9284 5.3901 21.5527 5.3423 21.1972C5.2989 20.8744 5.29895 20.4776 5.299 20.0447L5.299 19.8537C5.299 19.3947 5.299 19.1652 5.43737 19.0767C5.57574 18.9882 5.79386 19.089 6.23008 19.2906C6.37771 19.3588 6.52725 19.4237 6.6786 19.4851C7.06237 19.641 7.48662 19.4225 7.61434 19.0285C7.74206 18.6345 7.52459 18.2145 7.14275 18.0539C6.60978 17.8299 6.10365 17.5558 5.63042 17.2378C5.51808 17.1623 5.40758 17.0841 5.299 17.0037C3.14752 15.4102 1.74989 12.868 1.74989 10C1.74989 5.15769 5.72754 1.25 10.6121 1.25C15.2494 1.25 19.0677 4.77057 19.444 9.27103C19.4493 9.42115 19.4738 9.7398 19.5297 9.81345L21.6582 12.6187C21.8062 12.8131 21.9618 13.0176 22.0661 13.205C22.1861 13.4205 22.3091 13.7348 22.2192 14.1102C22.1296 14.4843 21.8788 14.7091 21.6759 14.8475C21.4984 14.9686 21.2674 15.0824 21.0465 15.1912L20.6644 15.3796C20.5347 15.4436 20.4699 15.4755 20.4274 15.5307C20.3849 15.5859 20.3705 15.6568 20.3417 15.7985L19.9424 17.7671ZM13.5083 9.56811C13.1945 9.29768 13.1594 8.8241 13.4298 8.51035C13.7003 8.1966 14.1738 8.16148 14.4876 8.43192L15.4075 9.22481L15.4353 9.24874C15.6041 9.39411 15.7834 9.54855 15.9145 9.69668C16.0628 9.86416 16.2479 10.13 16.2479 10.5C16.2479 10.8701 16.0628 11.1359 15.9145 11.3033C15.7834 11.4515 15.6041 11.6059 15.4353 11.7513L15.4075 11.7752L14.4876 12.5681C14.1738 12.8385 13.7003 12.8034 13.4298 12.4897C13.1594 12.1759 13.1945 11.7023 13.5083 11.4319L14.4282 10.639C14.4894 10.5863 14.5421 10.5408 14.5886 10.5C14.5421 10.4592 14.4894 10.4137 14.4282 10.361L13.5083 9.56811ZM7.56604 8.51035C7.83647 8.8241 7.80135 9.29768 7.4876 9.56811L6.56769 10.361C6.50652 10.4137 6.45377 10.4592 6.40725 10.5C6.45377 10.5408 6.50652 10.5863 6.56769 10.639L7.4876 11.4319C7.80135 11.7023 7.83647 12.1759 7.56604 12.4897C7.29561 12.8034 6.82203 12.8385 6.50828 12.5681L5.58838 11.7752L5.56059 11.7513C5.39182 11.6059 5.2125 11.4515 5.08138 11.3033C4.93312 11.1359 4.74794 10.8701 4.74794 10.5C4.74794 10.13 4.93312 9.86416 5.08138 9.69668C5.2125 9.54855 5.39182 9.39411 5.56059 9.24874L5.58838 9.22481L6.50828 8.43192C6.82203 8.16148 7.29561 8.1966 7.56604 8.51035ZM12.1945 8.27874C12.3483 7.89416 12.1613 7.45768 11.7767 7.30384C11.3921 7.15001 10.9556 7.33707 10.8018 7.72166L8.80178 12.7217C8.64795 13.1062 8.83501 13.5427 9.2196 13.6966C9.60418 13.8504 10.0407 13.6633 10.1945 13.2787L12.1945 8.27874Z" fill="#141B34"/>
</svg>
