<svg width="24" height="24" viewBox="0 0 24 24" fill="none" xmlns="http://www.w3.org/2000/svg">
<path d="M20.75 20.75L20.8525 20.7549C21.3567 20.8062 21.75 21.2323 21.75 21.75C21.75 22.2677 21.3567 22.6938 20.8525 22.7451L20.75 22.75H3.25C2.69772 22.75 2.25 22.3023 2.25 21.75C2.25 21.1977 2.69772 20.75 3.25 20.75H20.75Z" fill="#141B34"/>
<path d="M13.0645 1.25C14.4275 1.24997 15.5267 1.24995 16.3916 1.36621C17.2917 1.48723 18.0495 1.74672 18.6514 2.34863L18.7607 2.46289C19.2856 3.04541 19.5203 3.76456 19.6338 4.6084C19.7501 5.47331 19.75 6.57249 19.75 7.93555V22C19.75 22.4142 19.4142 22.75 19 22.75H5C4.58579 22.75 4.25 22.4142 4.25 22V7.93555C4.24997 6.57249 4.24995 5.47331 4.36621 4.6084C4.48723 3.70829 4.74672 2.95055 5.34863 2.34863C5.95055 1.74672 6.70829 1.48723 7.6084 1.36621C8.47331 1.24995 9.57249 1.24997 10.9355 1.25H13.0645ZM15.5 11C14.9477 11 14.5 11.4477 14.5 12V12.0098L14.5049 12.1123C14.5561 12.6165 14.9822 13.0098 15.5 13.0098C16.0178 13.0098 16.4439 12.6165 16.4951 12.1123L16.5 12.0098V12C16.5 11.4477 16.0523 11 15.5 11Z" fill="#141B34"/>
</svg>
