<svg width="24" height="24" viewBox="0 0 24 24" fill="none" xmlns="http://www.w3.org/2000/svg">
<path d="M14.4405 1.74993C16.2585 1.74993 17.4972 1.72777 18.5762 2.2343C19.655 2.74095 20.3791 3.68415 21.4698 5.04973L22.0547 5.78411C22.2053 5.97268 22.265 6.19744 22.2442 6.41497C22.2473 6.44289 22.25 6.47116 22.25 6.49993V13.5497C22.2501 15.3905 22.2501 16.8486 22.0967 17.9892C21.9391 19.1615 21.6068 20.11 20.8584 20.8583C20.1101 21.6066 19.1616 21.939 17.9893 22.0966C16.8488 22.25 15.3907 22.2499 13.5499 22.2499H10.4502C8.60944 22.2499 7.15133 22.25 6.01079 22.0966C4.83848 21.939 3.88996 21.6066 3.14165 20.8583C2.39334 20.11 2.06101 19.1615 1.90337 17.9892C1.75002 16.8486 1.75003 15.3906 1.75005 13.5497V6.49993C1.75005 6.4712 1.75178 6.44286 1.75493 6.41497C1.73416 6.19756 1.79495 5.9726 1.94536 5.78411L2.53032 5.04973C3.62095 3.68423 4.3452 2.74097 5.42387 2.2343C6.50289 1.72769 7.74152 1.74993 9.55962 1.74993H14.4405ZM12 9.49993C11.4478 9.49993 11 9.94764 11 10.4999V15.3906C10.6896 15.033 10.3585 14.6263 10.1456 14.3534C10.0396 14.2177 9.86493 13.9856 9.80571 13.9072C9.4783 13.4626 8.85195 13.3671 8.40727 13.6943C7.9627 14.0217 7.8672 14.648 8.19438 15.0927C8.25905 15.1783 8.45598 15.4386 8.56938 15.5839C8.79535 15.8735 9.10766 16.2629 9.44829 16.6552C9.7846 17.0426 10.1684 17.456 10.5352 17.7802C10.7175 17.9413 10.9199 18.102 11.128 18.2275C11.3086 18.3364 11.6228 18.4999 12 18.4999C12.3773 18.4999 12.6915 18.3364 12.8721 18.2275C13.0802 18.102 13.2825 17.9413 13.4649 17.7802C13.8317 17.456 14.2155 17.0425 14.5518 16.6552C14.8924 16.2629 15.2047 15.8735 15.4307 15.5839C15.5441 15.4386 15.741 15.1783 15.8057 15.0927C16.1328 14.6481 16.0373 14.0227 15.5928 13.6952C15.1481 13.3677 14.5219 13.4634 14.1944 13.9081C14.1352 13.9865 13.9605 14.2177 13.8545 14.3534C13.6416 14.6263 13.3105 15.033 13 15.3906V10.4999C13 9.94766 12.5523 9.49995 12 9.49993ZM9.55962 3.58391C7.5458 3.58391 6.86779 3.60645 6.2979 3.87395C5.78174 4.11629 5.38518 4.54714 4.41704 5.74993H19.5831C18.6152 4.54747 18.2192 4.11629 17.7032 3.87395C17.1332 3.60636 16.4546 3.58391 14.4405 3.58391H9.55962Z" fill="#141B34"/>
</svg>
