<svg width="24" height="24" viewBox="0 0 24 24" fill="none" xmlns="http://www.w3.org/2000/svg">
<path fill-rule="evenodd" clip-rule="evenodd" d="M14.0549 1.25H14.0549C15.4225 1.24998 16.5248 1.24997 17.3918 1.36653C18.2919 1.48754 19.0497 1.74644 19.6517 2.34835C20.2536 2.95027 20.5125 3.70814 20.6335 4.60825C20.75 5.47522 20.75 6.57754 20.75 7.94513V20C20.75 21.5188 19.5188 22.75 18 22.75H6C4.48122 22.75 3.25 21.5188 3.25 20V7.94511V7.9451V7.94508C3.24998 6.57751 3.24997 5.47521 3.36653 4.60825C3.48754 3.70814 3.74644 2.95027 4.34835 2.34835C4.95027 1.74644 5.70814 1.48754 6.60825 1.36653C7.47521 1.24997 8.57753 1.24998 9.9451 1.25H9.94511H9.94513H14.0549H14.0549ZM19.25 20C19.25 19.3096 18.6904 18.75 18 18.75H6C5.30965 18.75 4.75 19.3096 4.75 20C4.75 20.6904 5.30965 21.25 6 21.25H18C18.6904 21.25 19.25 20.6904 19.25 20ZM12 5.75C11.0335 5.75 10.25 6.5335 10.25 7.5C10.25 8.4665 11.0335 9.25 12 9.25C12.9665 9.25 13.75 8.4665 13.75 7.5C13.75 6.5335 12.9665 5.75 12 5.75ZM11 10.25C9.48122 10.25 8.25 11.4812 8.25 13V13.5C8.25 13.9142 8.58579 14.25 9 14.25H15C15.4142 14.25 15.75 13.9142 15.75 13.5V13C15.75 11.4812 14.5188 10.25 13 10.25H11ZM16.5 19.25C16.9142 19.25 17.25 19.5858 17.25 20V20.01C17.25 20.4242 16.9142 20.76 16.5 20.76C16.0858 20.76 15.75 20.4242 15.75 20.01V20C15.75 19.5858 16.0858 19.25 16.5 19.25ZM14.25 20C14.25 19.5858 13.9142 19.25 13.5 19.25C13.0858 19.25 12.75 19.5858 12.75 20V20.01C12.75 20.4242 13.0858 20.76 13.5 20.76C13.9142 20.76 14.25 20.4242 14.25 20.01V20Z" fill="#141B34"/>
</svg>
