<svg width="24" height="24" viewBox="0 0 24 24" fill="none" xmlns="http://www.w3.org/2000/svg">
<path d="M18.0527 12.75C18.7164 12.75 19.2603 12.75 19.7031 12.7139C20.1664 12.676 20.5849 12.5946 20.9756 12.3955C21.587 12.0839 22.0839 11.587 22.3955 10.9756C22.5946 10.5849 22.676 10.1664 22.7139 9.70312C22.75 9.2603 22.75 8.71641 22.75 8.05273V7.94727C22.75 7.28359 22.75 6.7397 22.7139 6.29687C22.676 5.83362 22.5946 5.41515 22.3955 5.02441C22.0839 4.41305 21.587 3.91605 20.9756 3.60449C20.5849 3.4054 20.1664 3.32398 19.7031 3.28613C19.2603 3.24995 18.7164 3.24998 18.0527 3.25L5.94727 3.25C5.2836 3.24998 4.73969 3.24995 4.29687 3.28613C3.83362 3.32398 3.41515 3.4054 3.02441 3.60449C2.41305 3.91605 1.91605 4.41305 1.60449 5.02441C1.4054 5.41515 1.32398 5.83362 1.28613 6.29688C1.24995 6.73969 1.24998 7.2836 1.25 7.94727V8.05273C1.24998 8.7164 1.24995 9.26031 1.28613 9.70312C1.32398 10.1664 1.4054 10.5849 1.60449 10.9756C1.91605 11.587 2.41305 12.0839 3.02441 12.3955C3.41515 12.5946 3.83362 12.676 4.29688 12.7139C4.7397 12.75 5.28359 12.75 5.94727 12.75L18.0527 12.75ZM16 10C15.6557 9.99997 15.3814 9.85206 15.2461 9.77051C15.0835 9.67244 14.9319 9.55068 14.8027 9.43652C14.542 9.20608 14.2747 8.91763 14.0469 8.65527C13.8149 8.38801 13.603 8.12348 13.4502 7.92773C13.3734 7.82933 13.3106 7.74672 13.2666 7.68848C13.2446 7.65941 13.2269 7.63635 13.2148 7.62012C13.2088 7.61204 13.2035 7.60511 13.2002 7.60059C13.1987 7.59859 13.1972 7.59692 13.1963 7.5957L13.1953 7.59375V7.59277H13.1943C12.8673 7.14811 12.9627 6.52173 13.4072 6.19434C13.8519 5.86719 14.4782 5.96276 14.8057 6.40723L14.8076 6.41016C14.8098 6.41314 14.8136 6.4184 14.8184 6.4248C14.8281 6.43783 14.8431 6.45793 14.8623 6.4834C14.9009 6.53444 14.957 6.60843 15.0264 6.69727C15.1661 6.87636 15.3558 7.11223 15.5576 7.34473C15.7126 7.52322 15.8649 7.68661 16 7.81836C16.1352 7.68659 16.2874 7.52326 16.4424 7.34473C16.6443 7.1122 16.8338 6.87639 16.9736 6.69727C17.043 6.60839 17.0991 6.53446 17.1377 6.4834C17.157 6.45788 17.1719 6.43785 17.1816 6.4248C17.1864 6.41835 17.1902 6.41316 17.1924 6.41016L17.1943 6.40723C17.5218 5.96259 18.1481 5.86791 18.5928 6.19531C19.0373 6.52274 19.1328 7.14813 18.8057 7.59277H18.8047V7.59375L18.8037 7.5957C18.8027 7.59702 18.8005 7.59834 18.7988 7.60059C18.7955 7.60513 18.7912 7.612 18.7852 7.62012C18.773 7.63636 18.7554 7.65935 18.7334 7.68848C18.6894 7.74674 18.6266 7.82927 18.5498 7.92773C18.397 8.1235 18.1852 8.38798 17.9531 8.65527C17.7253 8.91765 17.458 9.20607 17.1973 9.43652C17.068 9.5507 16.9165 9.67243 16.7539 9.77051C16.6186 9.85207 16.3443 9.99999 16 10Z" fill="#141B34"/>
<path d="M14.25 14.75C14.8023 14.75 15.25 15.1977 15.25 15.75C15.25 16.3023 14.8023 16.75 14.25 16.75H2.25C1.69772 16.75 1.25 16.3023 1.25 15.75C1.25 15.1977 1.69772 14.75 2.25 14.75H14.25Z" fill="#141B34"/>
<path d="M14.25 18.75C14.8023 18.75 15.25 19.1977 15.25 19.75C15.25 20.3023 14.8023 20.75 14.25 20.75H2.25C1.69772 20.75 1.25 20.3023 1.25 19.75C1.25 19.1977 1.69772 18.75 2.25 18.75H14.25Z" fill="#141B34"/>
</svg>
