<svg width="24" height="24" viewBox="0 0 24 24" fill="none" xmlns="http://www.w3.org/2000/svg">
<path fill-rule="evenodd" clip-rule="evenodd" d="M17 12.25C18.1707 12.25 19.264 12.4269 20.0918 12.7373C20.5029 12.8915 20.8881 13.0925 21.1836 13.3545C21.4592 13.5989 21.7114 13.9524 21.7432 14.4053C21.7471 14.4363 21.75 14.4679 21.75 14.5V20.5C21.75 20.9986 21.4782 21.3843 21.1836 21.6455C20.8881 21.9075 20.5029 22.1085 20.0918 22.2627C19.264 22.5731 18.1707 22.75 17 22.75C15.8293 22.75 14.736 22.5731 13.9082 22.2627C13.4971 22.1085 13.1119 21.9075 12.8164 21.6455C12.5218 21.3843 12.25 20.9986 12.25 20.5V14.5C12.25 14.4679 12.2519 14.4363 12.2559 14.4053C12.2876 13.9524 12.5407 13.5989 12.8164 13.3545C13.1119 13.0925 13.4971 12.8915 13.9082 12.7373C14.736 12.4269 15.8293 12.25 17 12.25ZM20.0918 19.2627C19.264 19.5731 18.1707 19.75 17 19.75C15.8293 19.75 14.736 19.5731 13.9082 19.2627C13.8546 19.2426 13.8026 19.219 13.75 19.1973V20.4551C13.7596 20.4681 13.7767 20.4915 13.8115 20.5225C13.9208 20.6194 14.122 20.7412 14.4346 20.8584C15.0545 21.0909 15.9616 21.25 17 21.25C18.0384 21.25 18.9455 21.0909 19.5654 20.8584C19.878 20.7412 20.0792 20.6194 20.1885 20.5225C20.2233 20.4915 20.2404 20.4681 20.25 20.4551V19.1973C20.1974 19.219 20.1454 19.2426 20.0918 19.2627ZM20.0918 16.2627C19.264 16.5731 18.1707 16.75 17 16.75C15.8293 16.75 14.736 16.5731 13.9082 16.2627C13.8546 16.2426 13.8026 16.219 13.75 16.1973V17.4561C13.7596 17.4692 13.7772 17.492 13.8115 17.5225C13.9208 17.6194 14.122 17.7412 14.4346 17.8584C15.0545 18.0909 15.9616 18.25 17 18.25C18.0384 18.25 18.9455 18.0909 19.5654 17.8584C19.878 17.7412 20.0792 17.6194 20.1885 17.5225C20.2234 17.4915 20.2406 17.4682 20.25 17.4551V16.1973C20.1974 16.219 20.1454 16.2426 20.0918 16.2627Z" fill="#141B34"/>
<path fill-rule="evenodd" clip-rule="evenodd" d="M10.5879 1.24998C11.1577 1.24922 11.6624 1.24835 12.1377 1.41697C12.2355 1.45168 12.3312 1.49211 12.4248 1.53709C12.8796 1.75576 13.2362 2.11485 13.6387 2.52049L18.4219 7.32811C18.8891 7.79633 19.3033 8.21225 19.5273 8.75584C19.7514 9.29958 19.751 9.8884 19.75 10.5517V11.3222C18.9133 11.1079 17.9657 11 17 11C15.7192 11 14.4705 11.1922 13.4697 11.5674C12.9783 11.7517 12.4388 12.0187 11.9873 12.4189C11.576 12.7836 11.0979 13.3949 11.0156 14.249C11.005 14.3334 11 14.4173 11 14.5V20.5C11 21.4865 11.5411 22.1854 11.9873 22.581C12.0535 22.6397 12.1219 22.6949 12.1914 22.748C11.8344 22.7496 11.4612 22.75 11.0713 22.75C9.29869 22.75 7.72733 22.7504 6.60352 22.5986C5.43673 22.4409 4.45408 22.1026 3.67383 21.3183C2.89372 20.5341 2.55822 19.5468 2.40137 18.374C2.25029 17.2444 2.24997 15.8082 2.25 14.0263V9.45213C2.24998 7.91867 2.24999 6.68197 2.36426 5.69822C2.48251 4.6804 2.73458 3.80809 3.32715 3.06932C3.54452 2.79836 3.79002 2.5515 4.05957 2.33299C4.7946 1.73728 5.66309 1.48407 6.67578 1.36522C7.65452 1.25039 9.06236 1.24996 10.5879 1.24998ZM11.4902 3.27049C11.4902 4.63189 11.4902 5.27958 11.6064 6.14451C11.7274 7.04439 11.9863 7.80244 12.5879 8.40428C13.1898 9.0062 13.9485 9.26568 14.8486 9.3867C15.7154 9.50321 16.3641 9.50391 17.7314 9.50389C17.6747 9.36606 17.5693 9.23554 16.9512 8.61424L12.3467 3.98533C11.8137 3.44962 11.6719 3.31639 11.4902 3.2617V3.27049Z" fill="#141B34"/>
</svg>
