<svg width="24" height="24" viewBox="0 0 24 24" fill="none" xmlns="http://www.w3.org/2000/svg">
<path d="M9.8417 12.1678C10.2104 11.9791 10.3564 11.5272 10.1676 11.1585C9.97892 10.7897 9.52702 10.6438 9.1583 10.8325L5.74828 12.5778C4.62994 13.1502 3.7667 14.149 3.42375 15.3867C2.94854 17.1018 2.25 19.9538 2.25 22.0002C2.25 22.4144 2.58579 22.7502 3 22.7502C3.41421 22.7502 3.75 22.4144 3.75 22.0002C3.75 20.1838 4.39054 17.5151 4.86929 15.7873C5.09278 14.9807 5.66166 14.3072 6.43169 13.9131L9.8417 12.1678Z" fill="#141B34"/>
<path d="M14.8417 10.8325C14.473 10.6438 14.0211 10.7897 13.8324 11.1585C13.6547 11.5055 13.7736 11.9263 14.0957 12.1319C12.3824 15.385 10.0238 16.1854 8.70997 16.2462C8.83214 15.8957 8.6782 15.5005 8.33751 15.3297C7.96723 15.1441 7.51656 15.2937 7.33092 15.664C7.16075 16.0034 7.01958 16.5112 6.90184 17.0321C6.7793 17.5742 6.66674 18.2035 6.57124 18.8298C6.38239 20.0685 6.25 21.3646 6.25 22.0002C6.25 22.4144 6.58579 22.7502 7 22.7502H21C21.4142 22.7502 21.75 22.4144 21.75 22.0002C21.75 20.399 21.3224 18.3047 20.9087 16.6476C20.8856 16.5554 20.754 16.5589 20.7346 16.652C20.4421 18.0715 19.9134 19.5467 19.1627 20.74C18.9422 21.0906 18.4791 21.196 18.1285 20.9754C17.7779 20.7549 17.6725 20.2918 17.8931 19.9412C18.5265 18.9344 19.0001 17.6374 19.2656 16.3486L19.2659 16.3471C19.3648 15.8719 19.515 15.1157 19.6434 14.3958C19.7125 14.0078 19.6134 13.6017 19.3258 13.3321C19.245 13.2563 19.0078 12.9769 18.8863 13.0228C18.832 13.0432 18.8204 13.1153 18.7972 13.2594L18.7323 13.6626C18.1792 16.1519 16.5298 17.9135 15.0838 19.0309C14.3555 19.5936 13.2227 20.3831 12.2787 20.6963C11.8942 20.8501 11.4577 20.663 11.3038 20.2785C11.1501 19.8942 11.3368 19.4581 11.7207 19.3039C12.5889 18.9065 13.4095 18.429 14.1666 17.844C15.4659 16.84 16.8115 15.3586 17.2632 13.3589C17.3149 13.0336 17.502 12.5263 17.3475 12.2221C17.274 12.0774 17.1181 11.9976 16.8065 11.8381L14.8417 10.8325Z" fill="#141B34"/>
<path fill-rule="evenodd" clip-rule="evenodd" d="M8.33751 15.3295C8.7078 15.5152 8.85747 15.9658 8.67182 16.3361C8.59131 16.4967 8.48196 16.8449 8.36494 17.3626C8.25272 17.8591 8.14628 18.4512 8.0541 19.0558C7.86761 20.2789 7.75 21.4828 7.75 22C7.75 22.4142 7.41421 22.75 7 22.75C6.58579 22.75 6.25 22.4142 6.25 22C6.25 21.3644 6.38239 20.0683 6.57124 18.8297C6.66674 18.2033 6.7793 17.5741 6.90184 17.0319C7.01958 16.511 7.16075 16.0032 7.33092 15.6638C7.51657 15.2936 7.96723 15.1439 8.33751 15.3295Z" fill="#141B34"/>
<path fill-rule="evenodd" clip-rule="evenodd" d="M16.7466 5.93355C16.7792 6.29935 16.7263 6.68847 16.6564 7.04652L16.2359 9.20188C15.8359 11.252 14.0725 12.75 11.9993 12.75C9.92616 12.75 8.1627 11.252 7.76271 9.20188L7.3422 7.04652C7.27234 6.68847 7.21945 6.29935 7.25205 5.93355C7.33376 3.40345 9.36191 1.25 11.9993 1.25C14.6367 1.25 16.6649 3.40345 16.7466 5.93355ZM8.81444 6.75929C8.79191 6.6438 8.86499 6.53308 8.97814 6.50082L11.2348 5.85746C11.7373 5.71418 12.2613 5.71418 12.7638 5.85746L15.0205 6.50082C15.1336 6.53308 15.2067 6.6438 15.1842 6.75928L14.7637 8.91464C14.4962 10.2855 13.3295 11.25 11.9993 11.25C10.6691 11.25 9.50241 10.2855 9.23495 8.91464L8.81444 6.75929Z" fill="#141B34"/>
</svg>
