<svg width="24" height="24" viewBox="0 0 24 24" fill="none" xmlns="http://www.w3.org/2000/svg">
<path d="M13.7832 21.9756C14.3223 22.0953 14.8568 21.7549 14.9766 21.2158L15.9131 17H19C19.5523 17 20 16.5523 20 16C20 15.4477 19.5523 15 19 15H16.3584L17.6914 9L21 9C21.5523 9 22 8.55226 22 8C22 7.44771 21.5523 7 21 7L18.1357 7L18.9766 3.21582C19.096 2.6769 18.7557 2.14222 18.2168 2.02246C17.6779 1.9029 17.1434 2.24346 17.0234 2.78223L16.0859 7H10.1357L10.9766 3.21582C11.096 2.6769 10.7557 2.14222 10.2168 2.02246C9.67792 1.9029 9.14341 2.24346 9.02344 2.78223L8.08594 7L5 7C4.44772 7 4 7.44771 4 8C4.00003 8.55226 4.44773 9 5 9L7.6416 9L6.30859 15H3C2.44772 15 2 15.4477 2 16C2.00003 16.5523 2.44773 17 3 17H5.86426L5.02344 20.7822C4.90377 21.3212 5.24421 21.8557 5.7832 21.9756C6.32227 22.0953 6.85677 21.7549 6.97656 21.2158L7.91309 17H13.8643L13.0234 20.7822C12.9038 21.3212 13.2442 21.8557 13.7832 21.9756ZM9.69141 9H15.6416L14.3086 15L8.3584 15L9.69141 9Z" fill="#141B34"/>
</svg>
