<svg width="24" height="24" viewBox="0 0 24 24" fill="none" xmlns="http://www.w3.org/2000/svg">
<path d="M17 2.75003C20.3484 2.75003 22.7499 5.45205 22.75 8.69437C22.75 11.1531 21.1899 13.6241 19.4189 15.6602C17.8453 17.4695 16.0032 19.0501 14.6074 20.1348L14.0381 20.5684C12.8985 21.4204 11.3812 21.4741 10.1943 20.7285L9.96191 20.5684C8.5291 19.4969 6.37954 17.728 4.58105 15.6602C2.8101 13.6241 1.25 11.1531 1.25 8.69437C1.25005 5.45205 3.65156 2.75003 7 2.75003C8.53685 2.75003 10.0261 3.22916 11.8066 4.79398L13.1553 8.84183L10.9238 11.5205C10.6758 11.8185 10.6957 12.2561 10.9697 12.5303L12.5869 14.1475L11.8291 15.666C11.6444 16.0364 11.7947 16.4868 12.165 16.6719C12.5353 16.8566 12.9857 16.7061 13.1709 16.336L14.1709 14.336C14.3152 14.0474 14.2583 13.698 14.0303 13.4698L12.5146 11.9541L14.5762 9.48148C14.7424 9.28208 14.7938 9.01 14.7119 8.7637L13.1387 4.043C14.5176 3.07042 15.743 2.75003 17 2.75003Z" fill="#141B34"/>
</svg>
