<svg width="24" height="24" viewBox="0 0 24 24" fill="none" xmlns="http://www.w3.org/2000/svg">
<path d="M17 2.75C20.3484 2.75 22.7499 5.45202 22.75 8.69434C22.75 9.41324 22.6129 10.132 22.3799 10.8418C22.076 10.753 21.7518 10.726 21.4268 10.7734L21.2188 10.8135L21.0977 10.8496C20.1571 11.1828 19.2176 11.7808 18.4541 12.4014C17.8451 12.9355 16.7004 14.1137 15.6074 15.3682C15.3259 15.1822 14.7962 14.9626 14.5391 14.8672C14.4131 14.8313 14.1406 14.75 13.75 14.75C12.5852 14.75 11.5117 15.6566 11.5117 16.7695C11.5117 18.2981 12.2761 18.9336 13.1699 19.1719C13.3078 19.3434 13.784 20.0076 13.9658 20.3711C14.0066 20.4242 14.0506 20.4745 14.0957 20.5234L14.0381 20.5684C12.8985 21.4204 11.3812 21.4741 10.1943 20.7285L9.96191 20.5684C8.5291 19.4969 6.37954 17.7279 4.58105 15.6602C2.8101 13.624 1.25 11.153 1.25 8.69434C1.25005 5.45202 3.65156 2.75 7 2.75C8.59184 2.75 10.1338 3.26268 12 4.96484C13.8662 3.26268 15.4082 2.75 17 2.75Z" fill="#141B34"/>
<path d="M22.6923 12.666C22.5194 12.1782 22.0068 11.9085 21.5146 12.0283C20.6365 12.3393 19.6984 12.9615 18.9619 13.6074C18.2149 14.2625 17.5161 15.0232 16.9228 15.7344C16.4838 16.2606 16.0953 16.7677 15.7802 17.1982C15.4917 16.8528 15.2037 16.6007 14.9296 16.418C14.6552 16.235 14.4041 16.1287 14.1962 16.0693C14.0932 16.0399 13.8856 16 13.7499 16C13.1977 16 12.7499 16.4477 12.7499 17C12.7499 17.5197 13.1463 17.9465 13.6533 17.9951C13.6736 18.0017 13.732 18.0232 13.8203 18.082C14.0195 18.2149 14.4821 18.6811 14.9228 19.5625C15.0973 19.8192 15.3841 19.9829 15.6992 19.999C16.0589 20.0173 16.4005 19.8402 16.5937 19.5361C16.6816 19.4041 16.9423 19.0141 17.1074 18.7803C17.4384 18.3113 17.9071 17.6771 18.4589 17.0156C19.0126 16.3519 19.6376 15.6749 20.2802 15.1113C20.9333 14.5386 21.645 14.0923 22.1786 13.9033C22.6367 13.6866 22.8651 13.154 22.6923 12.666Z" fill="#141B34"/>
</svg>
