<svg width="24" height="24" viewBox="0 0 24 24" fill="none" xmlns="http://www.w3.org/2000/svg">
<path fill-rule="evenodd" clip-rule="evenodd" d="M7.47818 1.25C7.48542 1.25 7.49267 1.25 7.49994 1.25L16.5217 1.25C16.736 1.24999 16.9328 1.24998 17.0982 1.26126C17.2758 1.27338 17.4711 1.30099 17.6696 1.38321C18.0984 1.56083 18.4391 1.90151 18.6167 2.33031C18.699 2.52881 18.7266 2.72415 18.7387 2.90179C18.75 3.06712 18.75 3.26396 18.7499 3.47824V3.52176C18.75 3.73604 18.75 3.93289 18.7387 4.09821C18.7266 4.27585 18.699 4.47119 18.6167 4.6697C18.4391 5.0985 18.0984 5.43918 17.6696 5.61679C17.4711 5.69901 17.2758 5.72663 17.0982 5.73875C16.9328 5.75003 16.736 5.75002 16.5217 5.75H7.47818C7.2639 5.75002 7.06706 5.75003 6.90173 5.73875C6.72409 5.72663 6.52875 5.69901 6.33024 5.61679C5.90145 5.43918 5.56077 5.0985 5.38315 4.6697C5.30093 4.47119 5.27332 4.27585 5.2612 4.09821C5.24992 3.93288 5.24993 3.73604 5.24994 3.52176C5.24994 3.51453 5.24994 3.50727 5.24994 3.5C5.24994 3.49273 5.24994 3.48548 5.24994 3.47825C5.24993 3.26397 5.24992 3.06712 5.2612 2.90179C5.27332 2.72415 5.30093 2.52881 5.38315 2.33031C5.56077 1.90151 5.90145 1.56083 6.33024 1.38321C6.52875 1.30099 6.72409 1.27338 6.90173 1.26126C7.06706 1.24998 7.26391 1.24999 7.47818 1.25ZM6.90125 2.77031C6.84242 2.79558 6.79552 2.84248 6.77024 2.90131C6.76838 2.90867 6.76228 2.93707 6.75772 3.0039C6.75035 3.11191 6.74994 3.25677 6.74994 3.5C6.74994 3.74323 6.75035 3.8881 6.75772 3.9961C6.76228 4.06293 6.76838 4.09134 6.77024 4.09869C6.79552 4.15753 6.84242 4.20442 6.90125 4.2297C6.90861 4.23157 6.93701 4.23767 7.00384 4.24223C7.11185 4.2496 7.25671 4.25 7.49994 4.25H16.4999C16.7432 4.25 16.888 4.2496 16.996 4.24223C17.0629 4.23767 17.0913 4.23157 17.0986 4.2297C17.1575 4.20442 17.2044 4.15752 17.2296 4.09869C17.2315 4.09133 17.2376 4.06292 17.2422 3.9961C17.2495 3.8881 17.2499 3.74323 17.2499 3.5C17.2499 3.25677 17.2495 3.11191 17.2422 3.0039C17.2376 2.93708 17.2315 2.90868 17.2296 2.90132C17.2044 2.84248 17.1575 2.79558 17.0986 2.77031C17.0913 2.76844 17.0629 2.76234 16.996 2.75778C16.888 2.75041 16.7432 2.75 16.4999 2.75H7.49994C7.25671 2.75 7.11185 2.75041 7.00384 2.75778C6.93701 2.76234 6.90861 2.76844 6.90125 2.77031Z" fill="#141B34"/>
<path fill-rule="evenodd" clip-rule="evenodd" d="M17.3507 4.84932C17.0928 4.53978 16.6183 4.25 16.2153 4.25H7.7846C7.38166 4.25 6.90719 4.53978 6.64924 4.84932C5.59062 6.11923 4.93731 6.90292 4.59341 7.8528C4.2495 8.80269 4.24968 9.82298 4.24995 11.4763L4.24997 16.0549C4.24995 17.4225 4.24993 18.5248 4.36649 19.3918C4.48751 20.2919 4.7464 21.0497 5.34832 21.6517C5.95024 22.2536 6.70811 22.5125 7.60822 22.6335C8.47519 22.75 9.57751 22.75 10.9451 22.75H13.0548C14.4224 22.75 15.5248 22.75 16.3917 22.6335C17.2918 22.5125 18.0497 22.2536 18.6516 21.6517C19.2535 21.0497 19.5124 20.2919 19.6334 19.3918C19.75 18.5248 19.75 17.4225 19.75 16.0549V16.0549V16.0549L19.75 11.4763C19.7503 9.82298 19.7504 8.80269 19.4065 7.8528C19.0626 6.90292 18.4093 6.11922 17.3507 4.84932ZM12.4324 9.38727C12.1731 9.20424 11.8267 9.20424 11.5674 9.38727L9.5674 10.799C9.36831 10.9396 9.24991 11.1681 9.24991 11.4118V12.6982C9.24991 12.7998 9.24991 12.8506 9.22748 12.8939C9.20506 12.9372 9.16357 12.9664 9.08058 13.025L7.5674 14.0932C7.36831 14.2337 7.24991 14.4622 7.24991 14.7059V16.5882C7.24991 16.8319 7.36831 17.0604 7.5674 17.201L9.5674 18.6127C9.82669 18.7958 10.1731 18.7958 10.4324 18.6127L11.7692 17.6691L11.7692 17.6691C11.8807 17.5904 11.9364 17.5511 11.9999 17.5511C12.0634 17.5511 12.1191 17.5904 12.2306 17.6691L12.2306 17.6691L13.5674 18.6127C13.8267 18.7958 14.1731 18.7958 14.4324 18.6127L16.4324 17.201C16.6315 17.0604 16.7499 16.8319 16.7499 16.5882V14.7059C16.7499 14.4622 16.6315 14.2337 16.4324 14.0932L14.9192 13.025C14.8362 12.9664 14.7948 12.9372 14.7723 12.8939C14.7499 12.8506 14.7499 12.7998 14.7499 12.6982V11.4118C14.7499 11.1681 14.6315 10.9396 14.4324 10.799L12.4324 9.38727ZM9.99991 14.257C10.0634 14.257 10.1191 14.2963 10.2306 14.375L11.0806 14.975C11.1636 15.0336 11.2051 15.0628 11.2275 15.1061C11.2499 15.1494 11.2499 15.2002 11.2499 15.3018V15.9924C11.2499 16.0939 11.2499 16.1447 11.2275 16.188C11.2051 16.2313 11.1636 16.2606 11.0806 16.3191L10.2306 16.9191C10.1191 16.9978 10.0634 17.0372 9.99991 17.0372C9.93643 17.0372 9.8807 16.9978 9.76923 16.9191L8.91923 16.3191C8.83625 16.2606 8.79475 16.2313 8.77233 16.188C8.74991 16.1447 8.74991 16.0939 8.74991 15.9924V15.3018C8.74991 15.2002 8.74991 15.1494 8.77233 15.1061C8.79475 15.0628 8.83625 15.0336 8.91923 14.975L9.76923 14.375C9.8807 14.2963 9.93643 14.257 9.99991 14.257ZM12.7723 15.1061C12.7948 15.0628 12.8362 15.0336 12.9192 14.975L13.7692 14.375L13.7692 14.375C13.8807 14.2963 13.9364 14.257 13.9999 14.257C14.0634 14.257 14.1191 14.2963 14.2306 14.375L14.2306 14.375L15.0806 14.975C15.1636 15.0336 15.2051 15.0628 15.2275 15.1061C15.2499 15.1494 15.2499 15.2002 15.2499 15.3018V15.9924C15.2499 16.0939 15.2499 16.1447 15.2275 16.188C15.2051 16.2313 15.1636 16.2606 15.0806 16.3191L14.2306 16.9191C14.1191 16.9978 14.0634 17.0372 13.9999 17.0372C13.9364 17.0372 13.8807 16.9978 13.7692 16.9191L13.7692 16.9191L12.9192 16.3191C12.8362 16.2606 12.7948 16.2313 12.7723 16.188C12.7499 16.1447 12.7499 16.0939 12.7499 15.9924V15.3018C12.7499 15.2002 12.7499 15.1494 12.7723 15.1061ZM13.2275 12.8939C13.2051 12.9372 13.1636 12.9664 13.0806 13.025L12.2306 13.625C12.1191 13.7037 12.0634 13.743 11.9999 13.743C11.9364 13.743 11.8807 13.7037 11.7692 13.625L10.9192 13.025C10.8362 12.9664 10.7948 12.9372 10.7723 12.8939C10.7499 12.8506 10.7499 12.7998 10.7499 12.6982V12.0076C10.7499 11.9061 10.7499 11.8553 10.7723 11.812C10.7948 11.7687 10.8362 11.7394 10.9192 11.6809L11.7692 11.0809C11.8807 11.0022 11.9364 10.9628 11.9999 10.9628C12.0634 10.9628 12.1191 11.0022 12.2306 11.0809L12.2306 11.0809L13.0806 11.6809C13.1636 11.7394 13.2051 11.7687 13.2275 11.812C13.2499 11.8553 13.2499 11.9061 13.2499 12.0076V12.6982C13.2499 12.7998 13.2499 12.8506 13.2275 12.8939Z" fill="#141B34"/>
</svg>
