<svg width="24" height="24" viewBox="0 0 24 24" fill="none" xmlns="http://www.w3.org/2000/svg">
<path d="M13.7656 1.75396C14.7522 1.76779 15.4824 1.83025 16.1611 2.11139C17.0659 2.4862 17.7605 3.2 18.873 4.31256L19.6875 5.12701L20.4482 5.89264C21.1358 6.5998 21.6075 7.16034 21.8887 7.83892L21.9541 8.00982C22.2616 8.87066 22.25 9.83812 22.25 11.3135V12.6866C22.25 14.162 22.2616 15.1295 21.9541 15.9903L21.8887 16.1612C21.6076 16.8398 21.1359 17.4003 20.4482 18.1075L19.6875 18.8731L18.873 19.6876C17.7605 20.8001 17.0659 21.5139 16.1611 21.8887C15.2562 22.2635 14.2602 22.2501 12.6865 22.2501H11.3135C9.83806 22.2501 8.8706 22.2616 8.00977 21.9542L7.83887 21.8887C7.16029 21.6076 6.59974 21.1359 5.89258 20.4483L5.12695 19.6876L4.3125 18.8731C3.19995 17.7606 2.48614 17.066 2.11133 16.1612C1.83019 15.4824 1.76774 14.7522 1.75391 13.7657L1.75 12.6866V11.3135C1.75 9.73989 1.7365 8.74383 2.11133 7.83892L2.18555 7.67193C2.57682 6.84587 3.26933 6.17018 4.3125 5.12701L5.12695 4.31256L5.89258 3.55181C6.59976 2.86421 7.16027 2.39251 7.83887 2.11139L8.00977 2.04596C8.8706 1.73848 9.83806 1.75006 11.3135 1.75006H12.6865L13.7656 1.75396ZM12 10.5001C11.4477 10.5001 11 10.9478 11 11.5001V16.0001C11 16.5523 11.4477 17 12 17.0001C12.5523 17.0001 13 16.5523 13 16.0001V11.5001C13 10.9478 12.5523 10.5001 12 10.5001ZM12 6.9981C11.4477 6.99814 11 7.44584 11 7.9981V8.00787C11 8.56013 11.4477 9.00784 12 9.00787C12.5523 9.00787 13 8.56015 13 8.00787V7.9981C13 7.44582 12.5523 6.9981 12 6.9981Z" fill="#141B34"/>
</svg>
