<svg width="24" height="24" viewBox="0 0 24 24" fill="none" xmlns="http://www.w3.org/2000/svg">
<path d="M11.3155 1.37402C11.5285 1.31429 11.7577 1.25 12.0001 1.25C12.2425 1.25 12.4717 1.31429 12.6847 1.37402L12.7365 1.38853L19.772 3.34695C20.0937 3.43646 20.3949 3.52027 20.638 3.61988C20.9085 3.73075 21.1812 3.88904 21.3938 4.16937C21.6063 4.44957 21.6854 4.75475 21.7195 5.04508C21.7502 5.3062 21.7501 5.61921 21.7501 5.9539V7.78189C21.7501 8.13364 21.7501 8.30952 21.6355 8.3996C21.5208 8.48969 21.3499 8.44808 21.0082 8.36485L12.6111 6.32011L12.6002 6.31755C12.2048 6.22748 11.7948 6.22748 11.3994 6.31755L2.99205 8.36473C2.65029 8.44795 2.47941 8.48955 2.36476 8.39947C2.2501 8.30938 2.2501 8.13351 2.2501 7.78176L2.2501 5.95393C2.25006 5.61922 2.25002 5.30622 2.28072 5.04508C2.31484 4.75475 2.3939 4.44957 2.60642 4.16937C2.81905 3.88904 3.09168 3.73075 3.36221 3.61988C3.6053 3.52026 3.90649 3.43646 4.2282 3.34695L11.2637 1.38853L11.3155 1.37402Z" fill="#141B34"/>
<path fill-rule="evenodd" clip-rule="evenodd" d="M2.2501 10.8749C2.2501 10.4977 2.2501 10.3091 2.35694 10.1732C2.46378 10.0372 2.64703 9.99256 3.01351 9.90332L10.7552 8.01816C10.983 7.96268 11.0969 7.93494 11.1734 7.995C11.2498 8.05505 11.2498 8.1723 11.2498 8.40681V10.2382C11.2498 10.3151 11.2498 10.3536 11.2278 10.381C11.2058 10.4084 11.1683 10.4168 11.0932 10.4334L10.9373 10.4681C10.533 10.5579 10.278 10.9586 10.3679 11.3629C10.4384 11.6806 10.7008 11.906 11.0061 11.9445C11.1352 11.9608 11.1998 11.969 11.2248 11.9973C11.2498 12.0257 11.2498 12.0771 11.2498 12.1801V22H12.7498V12.1801C12.7498 12.0772 12.7498 12.0257 12.7748 11.9973C12.7998 11.969 12.8644 11.9608 12.9937 11.9446C13.2991 11.9061 13.5615 11.6806 13.6321 11.3629C13.722 10.9586 13.4671 10.5579 13.0627 10.4681L12.9064 10.4334C12.8313 10.4167 12.7938 10.4083 12.7718 10.3809C12.7498 10.3535 12.7498 10.315 12.7498 10.2381V8.40681C12.7498 8.1723 12.7498 8.05505 12.8262 7.995C12.9027 7.93494 13.0166 7.96268 13.2444 8.01816L20.9867 9.90346C21.3532 9.9927 21.5364 10.0373 21.6433 10.1733C21.7501 10.3093 21.7501 10.4979 21.7501 10.8751L21.7501 11.9168C21.7501 12.1493 21.7501 12.2656 21.6744 12.3256C21.5987 12.3857 21.4855 12.3592 21.259 12.3063L19.8208 11.9699C19.4174 11.8756 19.014 12.1261 18.9197 12.5295C18.8254 12.9328 19.0759 13.3362 19.4792 13.4305L20.9778 13.781C21.3483 13.8676 21.5336 13.9109 21.6418 14.0474C21.7501 14.1839 21.7501 14.3742 21.7501 14.7547L21.7501 22.75H2.25011L2.2501 14.7536C2.2501 14.3728 2.2501 14.1824 2.35847 14.0459C2.46683 13.9093 2.65225 13.8661 3.02308 13.7797L4.52028 13.4306C4.92367 13.3366 5.17446 12.9334 5.08042 12.53C4.98639 12.1266 4.58313 11.8758 4.17974 11.9698L2.74091 12.3052C2.51459 12.358 2.40143 12.3844 2.32577 12.3243C2.2501 12.2643 2.2501 12.1481 2.2501 11.9157L2.2501 10.8749ZM9.13215 11.6375C9.222 12.0419 8.96705 12.4425 8.5627 12.5324L7.6627 12.7324C7.25835 12.8222 6.85772 12.5673 6.76787 12.1629C6.67801 11.7586 6.93296 11.3579 7.33731 11.2681L8.23731 11.0681C8.64166 10.9782 9.04229 11.2332 9.13215 11.6375ZM14.8679 11.6375C14.9577 11.2332 15.3584 10.9782 15.7627 11.0681L16.6627 11.2681C17.0671 11.3579 17.322 11.7586 17.2321 12.1629C17.1423 12.5673 16.7417 12.8222 16.3373 12.7324L15.4373 12.5324C15.033 12.4425 14.778 12.0419 14.8679 11.6375Z" fill="#141B34"/>
<path fill-rule="evenodd" clip-rule="evenodd" d="M1 22C1 21.4477 1.44772 21 2 21H22C22.5523 21 23 21.4477 23 22C23 22.5523 22.5523 23 22 23H2C1.44772 23 1 22.5523 1 22Z" fill="#141B34"/>
</svg>
