<svg width="24" height="24" viewBox="0 0 24 24" fill="none" xmlns="http://www.w3.org/2000/svg">
<path fill-rule="evenodd" clip-rule="evenodd" d="M1.91533 16.25C1.60581 16.25 1.45105 16.25 1.36121 16.1446C1.27138 16.0391 1.29481 15.8934 1.34167 15.6018C1.56043 14.2408 2.09336 12.9847 2.86378 11.9102C2.92368 11.8266 2.95364 11.7848 2.96803 11.7401C2.98242 11.6953 2.98242 11.6462 2.98242 11.5482L2.98242 9.25C2.98242 5.38401 6.11921 2.25 9.98864 2.25C13.8581 2.25 16.9949 5.38401 16.9949 9.25V11.5493C16.9949 11.6473 16.9949 11.6964 17.0092 11.7411C17.0236 11.7859 17.0536 11.8277 17.1134 11.9112C17.7662 12.822 18.2484 13.8631 18.5134 14.988C18.5531 15.1568 18.7464 15.1734 18.7464 15V13C18.7464 11.3431 20.0907 10 21.749 10C22.3018 10 22.7499 10.4477 22.7499 11C22.7499 11.5523 22.3018 12 21.749 12C21.1962 12 20.7481 12.4477 20.7481 13V15C20.7481 16.1627 20.0862 17.1708 19.1182 17.6688C18.9229 17.7693 18.8252 17.8196 18.7818 17.8862C18.7384 17.9528 18.7326 18.0503 18.7211 18.2453C18.685 18.854 18.5968 19.4736 18.3812 20.0105C18.1863 20.4957 17.8757 20.9495 17.3846 21.2744C16.8961 21.5977 16.2949 21.75 15.5932 21.75H4.38327C3.68158 21.75 3.08036 21.5977 2.59189 21.2744C2.10081 20.9495 1.79021 20.4957 1.59531 20.0105C1.39353 19.5081 1.30334 18.9333 1.26303 18.3628C1.24316 18.0816 1.23322 17.941 1.3222 17.8455C1.41117 17.75 1.55724 17.75 1.84939 17.75H8.99001C9.4046 17.75 9.74068 17.4142 9.74068 17C9.74068 16.5858 9.4046 16.25 8.99001 16.25H1.91533ZM4.9842 9.25C4.9842 9.48963 5.25541 9.6326 5.46047 9.50862C6.10004 9.12192 6.79312 8.81467 7.526 8.60056C7.75294 8.53427 7.86641 8.50112 7.92637 8.42113C7.98633 8.34115 7.98633 8.22743 7.98633 8C7.98633 6.89543 8.88255 6 9.9881 6C11.0937 6 11.9899 6.89543 11.9899 8C11.9899 8.22739 11.9899 8.34108 12.0498 8.42107C12.1098 8.50105 12.2233 8.5342 12.4502 8.60049C13.1833 8.81464 13.8766 9.12199 14.5164 9.50883C14.7216 9.63294 14.9931 9.48984 14.9931 9.25C14.9931 6.48858 12.7525 4.25 9.98864 4.25C7.22476 4.25 4.9842 6.48858 4.9842 9.25Z" fill="#141B34"/>
</svg>
