<svg width="24" height="24" viewBox="0 0 24 24" fill="none" xmlns="http://www.w3.org/2000/svg">
<path fill-rule="evenodd" clip-rule="evenodd" d="M17.1887 15.9909C17.3548 15.8111 17.5027 15.6403 17.6294 15.476C17.9902 15.0079 18.25 14.5048 18.25 13.8916C18.25 13.3961 18.0804 12.9726 17.825 12.5813L18.5683 11.8224C19.5184 11.8197 20.4669 11.4481 21.1876 10.7123C22.4608 9.4122 22.5541 7.42497 21.656 6.0011C21.9276 4.86964 21.6096 3.6303 20.702 2.75148C19.3229 1.41617 17.1 1.41617 15.7209 2.75148L11.5331 6.80652C11.3767 6.76995 11.2136 6.75 11.042 6.75C10.4295 6.75 9.92493 7.00406 9.45182 7.36131C9.0055 7.69834 8.51093 8.18786 7.92249 8.77028L7.92248 8.77029L7.92247 8.7703L2.97786 13.6639C2.52241 14.1137 2.1503 14.4811 1.94962 14.9606C1.74861 15.4409 1.7492 15.9627 1.74992 16.5995L1.75 17.8727C1.74997 18.6957 1.74994 19.3886 1.82487 19.9402C1.9044 20.5257 2.08065 21.0624 2.51676 21.494C2.9518 21.9246 3.49095 22.0976 4.0788 22.1758C4.63457 22.2498 5.3334 22.2497 6.16602 22.2497L12.7393 22.25H12.7394C13.5801 22.25 14.2842 22.2501 14.844 22.1764C15.4349 22.0986 15.9765 21.9267 16.4142 21.4981C16.8542 21.0673 17.0326 20.5306 17.113 19.9445C17.1887 19.3932 17.1887 18.7009 17.1887 17.8799L17.1887 15.9909ZM13.2718 7.90689L17.1122 4.1883C17.7157 3.6039 18.7072 3.6039 19.3107 4.1883C19.8962 4.75519 19.8962 5.66055 19.3107 6.22744C18.9574 6.56957 18.4663 6.71622 17.9887 6.6505C17.6782 6.60778 17.3657 6.71306 17.1444 6.93492L14.7411 9.34398L14.1615 8.77029C13.8393 8.45137 13.5452 8.16031 13.2718 7.90689ZM16.1627 10.7509L18.243 8.66552C18.9437 8.65932 19.6472 8.45081 20.2497 8.03514C20.2574 8.50138 20.0954 8.9691 19.7587 9.31286C19.3624 9.71752 18.827 9.87898 18.3186 9.8052C18.0027 9.75936 17.6839 9.86708 17.4606 10.0951L16.4954 11.0806C16.4017 10.9874 16.305 10.8918 16.2057 10.7935L16.2057 10.7935L16.1627 10.7509Z" fill="#141B34"/>
</svg>
