<svg width="24" height="24" viewBox="0 0 24 24" fill="none" xmlns="http://www.w3.org/2000/svg">
<path fill-rule="evenodd" clip-rule="evenodd" d="M9.28862 1.27859C9.63531 1.17975 10.0033 1.34155 10.1648 1.66384C10.3317 1.99693 10.5782 2.25638 10.8714 2.43803C11.0732 2.56312 11.1742 2.62566 11.2121 2.69371C11.2499 2.76176 11.2499 2.85514 11.2499 3.04191V8.99976C11.2499 9.41397 11.5857 9.74976 11.9999 9.74976C12.4142 9.74976 12.7499 9.41397 12.7499 8.99976V3.04174C12.7499 2.855 12.7499 2.76163 12.7878 2.69359C12.8257 2.62555 12.9266 2.563 13.1284 2.43792C13.4215 2.25627 13.668 1.99686 13.8348 1.66384C13.9963 1.34155 14.3643 1.17975 14.711 1.27859L16.9005 1.9027C17.5254 2.08023 18.0299 2.22357 18.4823 2.60408C18.934 2.98392 19.1312 3.39305 19.3735 3.89543L19.4025 3.95551C20.3469 5.9109 21.475 9.22067 21.721 13.3559L21.7236 13.3994C21.7431 13.7271 21.7624 14.0497 21.7387 14.32C21.7112 14.6332 21.6202 14.9726 21.3454 15.2635C21.0662 15.5591 20.7235 15.6666 20.4115 15.711C20.1372 15.75 19.8041 15.7499 19.4597 15.7499L18.3173 15.7499C18.337 16.8347 18.3324 18.04 18.3198 19.098L18.3192 19.1474C18.3116 19.7867 18.305 20.3414 18.2384 20.7875C18.1664 21.2694 18.0118 21.7272 17.6328 22.1009C17.2527 22.4756 16.7892 22.6234 16.304 22.689C15.8529 22.7499 15.2917 22.7499 14.6426 22.7499H9.35702C8.70788 22.7499 8.14666 22.7499 7.69563 22.689C7.21038 22.6234 6.7469 22.4756 6.36682 22.1009C5.98783 21.7272 5.83317 21.2694 5.76121 20.7875C5.6946 20.3414 5.68801 19.7867 5.68042 19.1475L5.67983 19.098C5.6672 18.04 5.66257 16.8347 5.68226 15.7499L4.53988 15.7499C4.19549 15.7499 3.86243 15.75 3.58812 15.711C3.27614 15.6666 2.93343 15.5591 2.65421 15.2635C2.37941 14.9726 2.28841 14.6332 2.26092 14.32C2.2372 14.0497 2.25646 13.727 2.27603 13.3993L2.27863 13.3559C2.52457 9.22067 3.6527 5.9109 4.59716 3.95551L4.62614 3.89543C4.86838 3.39305 5.06565 2.98392 5.51727 2.60408C5.96969 2.22357 6.47422 2.08024 7.09913 1.9027L9.28862 1.27859ZM5.77829 13.1741C5.76564 13.4051 5.7541 13.6359 5.7436 13.8661C5.73529 14.048 5.73114 14.139 5.67317 14.1944C5.61519 14.2498 5.52447 14.2498 5.34302 14.2498H4.15342C3.97246 14.2498 3.88198 14.2498 3.82339 14.1911C3.76479 14.1324 3.7649 14.0454 3.76511 13.8714C3.76541 13.6192 3.77817 13.3672 3.7963 13.1156C3.80873 12.9431 3.81494 12.8569 3.87252 12.8033C3.93011 12.7498 4.01762 12.7498 4.19264 12.7498H5.37776C5.57681 12.7498 5.67633 12.7498 5.7355 12.8123C5.79467 12.8748 5.78921 12.9745 5.77829 13.1741ZM18.6199 12.7498H19.8051C19.9798 12.7498 20.0672 12.7498 20.1248 12.8033C20.1824 12.8569 20.1886 12.9431 20.201 13.1156C20.2089 13.2247 20.2161 13.3344 20.2227 13.4448C20.2336 13.6285 20.241 13.7788 20.2444 13.9018C20.2484 14.0437 20.2503 14.1147 20.194 14.1748C20.1377 14.2348 20.0664 14.2374 19.9238 14.2426C19.7871 14.2476 19.6189 14.2498 19.4153 14.2498H18.6547C18.4732 14.2498 18.3825 14.2498 18.3245 14.1944C18.2666 14.139 18.2624 14.048 18.2541 13.8661C18.2436 13.6359 18.2321 13.4051 18.2194 13.1741C18.2085 12.9745 18.203 12.8748 18.2622 12.8123C18.3214 12.7498 18.4209 12.7498 18.6199 12.7498Z" fill="#141B34"/>
</svg>
