<svg width="24" height="24" viewBox="0 0 24 24" fill="none" xmlns="http://www.w3.org/2000/svg">
<path d="M21.8168 17.25H2.18199L0.909524 19.3935C0.901861 19.4065 0.894588 19.4196 0.887713 19.4329C0.44234 20.2975 1.10832 21.25 2.0152 21.25H21.9836C22.8905 21.25 23.5565 20.2975 23.1111 19.4329C23.1042 19.4196 23.0969 19.4065 23.0893 19.3935L21.8168 17.25Z" fill="#141B34"/>
<path d="M15.5532 2.75C16.6859 2.74998 17.6115 2.75041 18.3423 2.84863C19.1062 2.95134 19.7687 3.17346 20.2974 3.70215C20.8261 4.23084 21.0482 4.89328 21.1509 5.65723C21.2491 6.38803 21.2495 7.31363 21.2495 8.44629V15.75H2.74951V8.44629C2.74949 7.31362 2.74992 6.38804 2.84814 5.65723C2.95086 4.89328 3.17297 4.23084 3.70166 3.70215C4.23035 3.17346 4.89279 2.95134 5.65674 2.84863C6.38754 2.75041 7.31314 2.74998 8.4458 2.75H15.5532ZM11.9995 6.25C10.7569 6.25 9.74951 7.32491 9.74951 8.65039H9.18701C8.25503 8.65039 7.49951 9.45608 7.49951 10.4502C7.49961 11.4442 8.25509 12.25 9.18701 12.25H14.812C15.7439 12.25 16.4994 11.4442 16.4995 10.4502C16.4995 9.45608 15.744 8.65039 14.812 8.65039H14.2495C14.2495 7.32491 13.2422 6.25 11.9995 6.25Z" fill="#141B34"/>
</svg>
