<svg width="24" height="24" viewBox="0 0 24 24" fill="none" xmlns="http://www.w3.org/2000/svg">
<path d="M21.8177 17.25H2.18283L0.910363 19.3935C0.902701 19.4065 0.895427 19.4196 0.888553 19.4329C0.443179 20.2975 1.10916 21.25 2.01603 21.25H21.9844C22.8913 21.25 23.5573 20.2975 23.1119 19.4329C23.1051 19.4196 23.0978 19.4065 23.0901 19.3935L21.8177 17.25Z" fill="#141B34"/>
<path d="M15.5538 2.75C16.6865 2.74998 17.6121 2.75041 18.3429 2.84863C19.1068 2.95134 19.7693 3.17346 20.298 3.70215C20.8267 4.23084 21.0488 4.89328 21.1515 5.65723C21.2497 6.38803 21.2501 7.31363 21.2501 8.44629V15.75H2.75012V8.44629C2.7501 7.31362 2.75053 6.38804 2.84876 5.65723C2.95147 4.89328 3.17358 4.23084 3.70227 3.70215C4.23096 3.17346 4.8934 2.95134 5.65735 2.84863C6.38815 2.75041 7.31375 2.74998 8.44641 2.75H15.5538ZM11.1212 6C10.3352 6.00007 9.7502 6.65483 9.75012 7.39746V11.1025C9.7502 11.8452 10.3352 12.4999 11.1212 12.5C11.3848 12.5 11.6414 12.4229 11.8605 12.2803L14.5695 10.5156C15.0005 10.235 15.2501 9.75383 15.2501 9.25C15.2501 8.74617 15.0005 8.265 14.5695 7.98438L11.8605 6.21973C11.6414 6.07713 11.3848 6 11.1212 6Z" fill="#141B34"/>
</svg>
