<svg width="24" height="24" viewBox="0 0 24 24" fill="none" xmlns="http://www.w3.org/2000/svg">
<path d="M3.43379 14.8281C2.97382 15.0479 2.57882 15.2518 2.26898 15.4535C1.76745 15.7801 1.25 16.2528 1.25 17.0002C1.25 17.7476 1.76745 18.2204 2.26898 18.5469C2.76766 18.8715 3.48698 19.2019 4.34265 19.5949L9.4353 21.9344C10.4756 22.413 11.2087 22.7502 12 22.7502C12.7913 22.7502 13.5244 22.413 14.5647 21.9344L19.6573 19.595C20.513 19.2019 21.2323 18.8715 21.731 18.5469C22.2326 18.2204 22.75 17.7476 22.75 17.0002C22.75 16.2528 22.2326 15.7801 21.731 15.4535C21.4212 15.2518 21.0262 15.0479 20.5662 14.8281C20.499 14.8591 20.4317 14.8899 20.3646 14.9208L15.0478 17.3634C14.1346 17.785 13.1268 18.2502 12 18.2502C10.8732 18.2502 9.86543 17.785 8.95222 17.3634L3.63539 14.9208C3.56827 14.8899 3.50101 14.8591 3.43379 14.8281Z" fill="#141B34"/>
<path fill-rule="evenodd" clip-rule="evenodd" d="M10.3858 5.14294C10.1566 5.43484 9.91012 5.74839 9.71708 5.94699C9.33215 6.34302 8.69904 6.35202 8.30301 5.96708C7.90698 5.58214 7.89798 4.94904 8.28292 4.55301C8.3848 4.44819 8.55578 4.23503 8.81301 3.90754C8.83157 3.88391 8.85043 3.85988 8.86959 3.83548C9.09751 3.54511 9.36619 3.20281 9.64315 2.87596C9.93969 2.52601 10.2745 2.15896 10.6113 1.87211C10.7801 1.72834 10.9729 1.58436 11.1822 1.47233C11.3836 1.36454 11.6673 1.25 12 1.25C12.3327 1.25 12.6164 1.36454 12.8178 1.47233C13.0272 1.58436 13.2199 1.72834 13.3887 1.87211C13.7255 2.15896 14.0603 2.52601 14.3569 2.87596C14.6338 3.20281 14.9025 3.54511 15.1304 3.83547C15.1496 3.85987 15.1684 3.88391 15.187 3.90754C15.4442 4.23503 15.6152 4.44819 15.7171 4.55301C16.102 4.94904 16.093 5.58214 15.697 5.96708C15.301 6.35202 14.6679 6.34302 14.2829 5.94699C14.0899 5.74839 13.8434 5.43484 13.6142 5.14294C13.5964 5.12036 13.5786 5.09766 13.5607 5.07485C13.3812 4.84615 13.1928 4.60619 13 4.37161V10.25C13 10.8023 12.5523 11.25 12 11.25C11.4477 11.25 11 10.8023 11 10.25V4.37161C10.8072 4.60618 10.6189 4.84614 10.4393 5.07483C10.4214 5.09765 10.4036 5.12036 10.3858 5.14294Z" fill="#141B34"/>
<path d="M7.52067 6.94531L4.34271 8.40518C3.48701 8.7982 2.76767 9.1286 2.26898 9.45326C1.76745 9.77977 1.25 10.2526 1.25 10.9999C1.25 11.7473 1.76745 12.2201 2.26898 12.5466C2.76766 12.8713 3.48698 13.2016 4.34265 13.5947L9.4353 15.9341C10.4756 16.4127 11.2087 16.7499 12 16.7499C12.7913 16.7499 13.5244 16.4127 14.5647 15.9341L19.6573 13.5947C20.513 13.2017 21.2323 12.8713 21.731 12.5466C22.2326 12.2201 22.75 11.7473 22.75 10.9999C22.75 10.2526 22.2326 9.77977 21.731 9.45326C21.2323 9.1286 20.513 8.79821 19.6573 8.40518L16.4793 6.94531C15.8517 7.49388 14.9949 7.63442 14.25 7.37178V10.2499C14.25 11.4926 13.2426 12.4999 12 12.4999C10.7574 12.4999 9.75 11.4926 9.75 10.2499V7.37178C9.00514 7.63442 8.14826 7.49388 7.52067 6.94531Z" fill="#141B34"/>
</svg>
