<svg width="24" height="24" viewBox="0 0 24 24" fill="none" xmlns="http://www.w3.org/2000/svg">
<path d="M13.0498 2.25C14.8906 2.24999 16.3487 2.24998 17.4893 2.40332C18.6616 2.56096 19.6101 2.89329 20.3584 3.6416C21.1067 4.38991 21.439 5.33844 21.5967 6.51074C21.75 7.65129 21.75 9.10939 21.75 10.9502V13.0498C21.75 14.8906 21.75 16.3487 21.5967 17.4893C21.439 18.6616 21.1067 19.6101 20.3584 20.3584C19.6101 21.1067 18.6616 21.439 17.4893 21.5967C16.3487 21.75 14.8906 21.75 13.0498 21.75H10.9502C9.10939 21.75 7.65129 21.75 6.51074 21.5967C5.33844 21.439 4.38991 21.1067 3.6416 20.3584C2.89329 19.6101 2.56096 18.6616 2.40332 17.4893C2.24998 16.3487 2.24999 14.8906 2.25 13.0498V10.9502C2.24999 9.10938 2.24998 7.65129 2.40332 6.51074C2.56096 5.33844 2.89329 4.38991 3.6416 3.6416C4.38991 2.89329 5.33844 2.56096 6.51074 2.40332C7.65129 2.24998 9.10937 2.24999 10.9502 2.25H13.0498ZM8 15C7.44772 15 7 15.4477 7 16C7 16.5523 7.44772 17 8 17H16C16.5523 17 17 16.5523 17 16C17 15.4477 16.5523 15 16 15H8Z" fill="#141B34"/>
</svg>
