<svg width="24" height="24" viewBox="0 0 24 24" fill="none" xmlns="http://www.w3.org/2000/svg">
<path d="M15.4551 9.66206L19.6909 7.26203C20.0519 7.05748 20.2324 6.9552 20.3793 7.03615C20.5261 7.1171 20.5358 7.31986 20.5551 7.72536C20.5812 8.27193 20.5953 8.90557 20.6113 9.65477C20.6188 10.0071 20.6236 10.7024 20.6257 10.855C20.6332 11.4149 21.0717 11.8749 21.6317 11.8749C22.175 11.8749 22.6297 11.4408 22.6249 10.8975C22.6235 10.7308 22.6183 10.0289 22.6094 9.61221L22.6078 9.53683C22.5765 8.07134 22.5507 6.86043 22.3801 5.87922C22.1983 4.83367 21.8395 3.95817 21.09 3.2068C20.6666 2.78234 20.2002 2.48276 19.6844 2.26896C19.6059 2.2261 19.5217 2.19379 19.4341 2.17317C19.1043 2.0569 18.755 1.97122 18.3847 1.90682C17.3838 1.73271 16.1419 1.70158 14.6325 1.66374L14.5577 1.66187C12.6019 1.61279 11.1488 1.6128 9.19307 1.66187L9.11822 1.66375C7.60886 1.70158 6.36698 1.73271 5.36601 1.90681C4.30364 2.0916 3.41413 2.45147 2.66072 3.2068C1.91127 3.95817 1.55242 4.83366 1.37062 5.87922C1.20001 6.86044 1.1742 8.07129 1.14295 9.53681L1.14134 9.6122C1.12003 10.6101 1.12005 11.14 1.14135 12.1379L1.14296 12.2133C1.17421 13.6788 1.20003 14.8897 1.37064 15.8709C1.55243 16.9165 1.91128 17.792 2.66074 18.5433C3.41414 19.2987 4.30366 19.6585 5.36603 19.8433C6.36699 20.0174 7.60886 20.0485 9.11822 20.0864L9.19308 20.0883C9.87465 20.1054 9.98103 20.1165 10.8774 20.1217C11.4286 20.1249 11.8752 19.6782 11.8752 19.1271C11.8752 18.5759 11.4285 18.1288 10.8774 18.1256C9.99532 18.1205 9.90933 18.1096 9.24328 18.0929C7.64033 18.0526 6.5471 18.0227 5.70891 17.8769C4.91563 17.7389 4.45347 17.5125 4.07658 17.1346C3.69575 16.7528 3.47312 16.2969 3.33968 15.5294C3.19797 14.7144 3.17272 13.6554 3.13941 12.0954C3.11871 11.1258 3.1187 10.6243 3.1394 9.65476C3.15539 8.90567 3.16953 8.2721 3.1956 7.72559C3.21494 7.32007 3.22461 7.11731 3.37145 7.03636C3.51829 6.95541 3.6988 7.05769 4.05982 7.26225L8.29522 9.66206C9.59483 10.3984 10.694 10.875 11.8752 10.875C13.0564 10.875 14.1555 10.3984 15.4551 9.66206Z" fill="#141B34"/>
<path fill-rule="evenodd" clip-rule="evenodd" d="M12.8752 16.9016C12.8752 14.4016 14.9018 12.375 17.4017 12.375C19.9016 12.375 21.9282 14.4016 21.9282 16.9016C21.9282 17.7906 21.672 18.6197 21.2292 19.3192L22.5812 20.6668C22.9723 21.0567 22.9733 21.6899 22.5834 22.081C22.1935 22.4722 21.5604 22.4732 21.1692 22.0833L19.814 20.7324C19.1157 21.1731 18.2885 21.4281 17.4017 21.4281C14.9018 21.4281 12.8752 19.4015 12.8752 16.9016ZM17.4017 14.375C16.0063 14.375 14.8752 15.5062 14.8752 16.9016C14.8752 18.2969 16.0063 19.4281 17.4017 19.4281C18.7971 19.4281 19.9282 18.2969 19.9282 16.9016C19.9282 15.5062 18.7971 14.375 17.4017 14.375Z" fill="#141B34"/>
</svg>
