<svg width="24" height="24" viewBox="0 0 24 24" fill="none" xmlns="http://www.w3.org/2000/svg">
<path d="M15.4548 9.662L19.6906 7.26197C20.0516 7.05742 20.2321 6.95514 20.379 7.03609C20.5258 7.11703 20.5355 7.3198 20.5548 7.7253C20.5809 8.27187 20.595 8.90551 20.611 9.6547C20.6185 10.0071 20.6233 10.7025 20.6254 10.855C20.6329 11.4149 21.0714 11.875 21.6314 11.875C22.1747 11.875 22.6294 11.4409 22.6246 10.8976C22.6232 10.7309 22.618 10.0288 22.6091 9.61215L22.6075 9.53677C22.5762 8.07128 22.5504 6.86037 22.3798 5.87916C22.198 4.8336 21.8392 3.95811 21.0897 3.20674C20.6663 2.78228 20.1999 2.4827 19.6841 2.26889C19.6056 2.22604 19.5214 2.19373 19.4338 2.17311C19.104 2.05684 18.7547 1.97116 18.3844 1.90676C17.3834 1.73265 16.1416 1.70152 14.6322 1.66368L14.5574 1.66181C12.6016 1.61273 11.1485 1.61274 9.19276 1.66181L9.11791 1.66369C7.60855 1.70152 6.36667 1.73265 5.36571 1.90675C4.30334 2.09154 3.41382 2.45141 2.66042 3.20674C1.91096 3.95811 1.55211 4.8336 1.37032 5.87916C1.19971 6.86038 1.17389 8.07123 1.14264 9.53675L1.14104 9.61214C1.11973 10.6101 1.11974 11.14 1.14105 12.1379L1.14266 12.2133C1.17391 13.6788 1.19972 14.8896 1.37033 15.8709C1.55213 16.9164 1.91098 17.7919 2.66043 18.5433C3.41384 19.2986 4.30335 19.6585 5.36572 19.8433C6.36668 20.0174 7.60856 20.0485 9.11792 20.0863L9.19278 20.0882C9.87435 20.1053 9.98072 20.1164 10.8771 20.1216C11.4283 20.1248 11.8749 19.6782 11.8749 19.127C11.8749 18.5758 11.4282 18.1288 10.877 18.1256C9.99501 18.1204 9.90903 18.1095 9.24298 18.0928C7.64003 18.0526 6.5468 18.0226 5.70861 17.8768C4.91533 17.7388 4.45316 17.5124 4.07628 17.1345C3.69545 16.7527 3.47282 16.2968 3.33938 15.5293C3.19767 14.7143 3.17242 13.6553 3.13911 12.0953C3.11841 11.1258 3.11839 10.6242 3.13909 9.6547C3.15509 8.90561 3.16923 8.27204 3.19529 7.72553C3.21463 7.32001 3.2243 7.11725 3.37114 7.0363C3.51798 6.95535 3.69849 7.05763 4.05951 7.26219L8.29491 9.662C9.59452 10.3984 10.6937 10.875 11.8749 10.875C13.0561 10.875 14.1552 10.3984 15.4548 9.662Z" fill="#141B34"/>
<path fill-rule="evenodd" clip-rule="evenodd" d="M17.8752 11.375C18.4275 11.375 18.8752 11.8227 18.8752 12.375V12.7736C19.6156 12.9438 20.2849 13.2991 20.8264 13.789L21.3344 13.4624C21.799 13.1637 22.4177 13.2982 22.7163 13.7628C23.015 14.2274 22.8805 14.8461 22.416 15.1447L21.9518 15.4432C22.1177 15.89 22.2085 16.3723 22.2085 16.875C22.2085 17.3778 22.1176 17.8602 21.9517 18.307L22.4155 18.6053C22.8801 18.9039 23.0146 19.5226 22.7159 19.9872C22.4173 20.4518 21.7985 20.5863 21.334 20.2876L20.8262 19.9612C20.2848 20.451 19.6155 20.8062 18.8752 20.9764V21.375C18.8752 21.9273 18.4275 22.375 17.8752 22.375C17.3229 22.375 16.8752 21.9273 16.8752 21.375V20.9764C16.1349 20.8062 15.4656 20.451 14.9241 19.9612L14.4164 20.2876C13.9518 20.5863 13.3331 20.4518 13.0344 19.9872C12.7358 19.5226 12.8703 18.9039 13.3348 18.6053L13.7987 18.307C13.6327 17.8602 13.5418 17.3778 13.5418 16.875C13.5418 16.3723 13.6327 15.89 13.7986 15.4432L13.3344 15.1447C12.8698 14.8461 12.7354 14.2274 13.034 13.7628C13.3327 13.2982 13.9514 13.1637 14.416 13.4624L14.924 13.789C15.4655 13.2991 16.1348 12.9438 16.8752 12.7736V12.375C16.8752 11.8227 17.3229 11.375 17.8752 11.375ZM17.8752 14.6607C17.0503 14.6607 16.3366 15.0648 15.9234 15.6613C15.6808 16.0116 15.5418 16.4276 15.5418 16.875C15.5418 17.3225 15.6808 17.7385 15.9235 18.0888C16.3367 18.6852 17.0504 19.0893 17.8752 19.0893C18.7 19.0893 19.4137 18.6852 19.8269 18.0888C20.0696 17.7385 20.2085 17.3225 20.2085 16.875C20.2085 16.4276 20.0696 16.0116 19.827 15.6613C19.4138 15.0648 18.7 14.6607 17.8752 14.6607Z" fill="#141B34"/>
</svg>
