<svg width="24" height="24" viewBox="0 0 24 24" fill="none" xmlns="http://www.w3.org/2000/svg">
<path fill-rule="evenodd" clip-rule="evenodd" d="M9.25256 2.67783C9.27925 3.2163 8.86436 3.67445 8.32589 3.70114C6.30326 3.80138 5.36134 4.10071 4.73106 4.731C4.10077 5.36128 3.80144 6.3032 3.7012 8.32583C3.67452 8.86431 3.21636 9.27919 2.67789 9.2525C2.13942 9.22582 1.72453 8.76766 1.75122 8.22919C1.85415 6.15238 2.1626 4.53837 3.35052 3.35046C4.53843 2.16254 6.15244 1.85408 8.22925 1.75116C8.76772 1.72447 9.22587 2.13936 9.25256 2.67783ZM14.7474 2.67783C14.7741 2.13936 15.2323 1.72447 15.7708 1.75116C17.8476 1.85408 19.4616 2.16254 20.6495 3.35046C21.8374 4.53837 22.1459 6.15238 22.2488 8.22919C22.2755 8.76766 21.8606 9.22582 21.3221 9.2525C20.7836 9.27919 20.3255 8.86431 20.2988 8.32583C20.1986 6.3032 19.8992 5.36128 19.2689 4.731C18.6387 4.10071 17.6967 3.80138 15.6741 3.70114C15.1356 3.67445 14.7208 3.2163 14.7474 2.67783ZM2.67789 14.7474C3.21636 14.7207 3.67452 15.1356 3.7012 15.674C3.80144 17.6967 4.10077 18.6386 4.73106 19.2689C5.36134 19.8992 6.30326 20.1985 8.32588 20.2987C8.86436 20.3254 9.27924 20.7836 9.25255 21.3221C9.22587 21.8605 8.76772 22.2754 8.22924 22.2487C6.15243 22.1458 4.53843 21.8373 3.35052 20.6494C2.1626 19.4615 1.85415 17.8475 1.75122 15.7707C1.72453 15.2322 2.13942 14.7741 2.67789 14.7474ZM21.3221 14.7474C21.8606 14.7741 22.2755 15.2322 22.2488 15.7707C22.1459 17.8475 21.8374 19.4615 20.6495 20.6494C19.4616 21.8373 17.8476 22.1458 15.7708 22.2487C15.2323 22.2754 14.7741 21.8605 14.7474 21.3221C14.7208 20.7836 15.1356 20.3254 15.6741 20.2987C17.6967 20.1985 18.6387 19.8992 19.2689 19.2689C19.8992 18.6386 20.1986 17.6967 20.2988 15.674C20.3255 15.1356 20.7836 14.7207 21.3221 14.7474Z" fill="#141B34"/>
<path d="M12.0957 16.7862C12.8129 17.1809 13.5612 17.3352 14.29 17.2052C15.0248 17.074 15.6618 16.6689 16.1738 16.088C16.1834 16.0772 16.1923 16.0652 16.2012 16.0538C16.803 15.2856 17.1996 14.5549 17.4395 13.7726C17.6777 12.9954 17.75 12.2045 17.75 11.337C17.75 9.0032 15.7706 7.75034 14.2227 7.75011C13.8823 7.75011 13.5787 7.7848 13.3037 7.84679C13.435 7.54084 13.5841 7.33008 13.707 7.20714C14.0975 6.81667 14.0974 6.18361 13.707 5.79308C13.3165 5.40255 12.6835 5.40255 12.293 5.79308C11.8038 6.28231 11.3829 7.02534 11.1631 7.98839C10.7744 7.83628 10.3227 7.75011 9.77734 7.75011C8.2294 7.75034 6.25 9.0032 6.25 11.337C6.25003 12.2045 6.32232 12.9954 6.56055 13.7726C6.80041 14.5549 7.19704 15.2856 7.79883 16.0538C7.80771 16.0652 7.81665 16.0772 7.82617 16.088C8.33822 16.6689 8.97518 17.074 9.70996 17.2052C10.4385 17.3352 11.1864 17.1806 11.9033 16.7862L11.9043 16.7872L12 16.7384L12.0957 16.7862Z" fill="#141B34"/>
</svg>
