<svg width="24" height="24" viewBox="0 0 24 24" fill="none" xmlns="http://www.w3.org/2000/svg">
<path fill-rule="evenodd" clip-rule="evenodd" d="M13.875 5.50586C13.3227 5.50586 12.875 5.05814 12.875 4.50586C12.875 3.95357 13.3227 3.50586 13.875 3.50586L18.375 3.50586L18.375 2.9116C18.3749 2.73596 18.3747 2.52031 18.3968 2.34387L18.3972 2.34053C18.413 2.21408 18.4848 1.63804 19.0504 1.36368C19.6173 1.08872 20.1174 1.39065 20.2256 1.45597L20.2296 1.45841C20.3826 1.55062 20.5535 1.68477 20.6941 1.79511L20.7243 1.81885C21.1002 2.11348 21.5844 2.49545 21.9754 2.87588C22.1705 3.06571 22.3717 3.28297 22.5306 3.51388C22.6718 3.71914 22.875 4.06934 22.875 4.5C22.875 4.93067 22.6718 5.28086 22.5306 5.48612C22.3717 5.71703 22.1705 5.93429 21.9754 6.12412C21.5844 6.50455 21.1002 6.88652 20.7243 7.18115L20.6941 7.20488C20.5535 7.31523 20.3827 7.44938 20.2296 7.54159L20.2256 7.54403C20.1174 7.60935 19.6172 7.91128 19.0504 7.63632C18.4848 7.36196 18.413 6.78592 18.3972 6.65947L18.3968 6.65613C18.3747 6.47969 18.3749 6.26403 18.375 6.0884L18.375 5.50586L13.875 5.50586Z" fill="#141B34"/>
<path fill-rule="evenodd" clip-rule="evenodd" d="M22.5832 10.9213C22.5371 10.2078 22.4113 9.51639 22.2147 8.85623C22.1153 8.52254 22.0656 8.35569 21.9176 8.3063C21.7696 8.25691 21.6232 8.36527 21.3304 8.58199L20.9911 8.83307C20.8273 8.93297 19.7026 9.61889 18.3958 8.98494C17.6045 8.60109 17.2351 7.97086 17.0618 7.49111C16.9709 7.23956 16.9254 7.11379 16.8479 7.05934C16.7703 7.00488 16.6561 7.00488 16.4278 7.00488L13.875 7.00488C12.4943 7.00488 11.375 5.88559 11.375 4.50488C11.375 4.38538 11.3834 4.26784 11.3996 4.15282C11.5604 3.01203 11.6408 2.44164 11.546 2.33742C11.4512 2.2332 11.081 2.24995 10.3406 2.28344C10.1107 2.29384 9.88187 2.3066 9.65465 2.3217C5.088 2.62526 1.46472 6.31155 1.1668 10.9213C1.11107 11.7837 1.11107 12.6758 1.1668 13.5382C1.27772 15.2546 2.02648 16.803 2.85881 18.0594C3.10814 18.5409 2.97823 19.2631 2.5119 20.1468L2.49042 20.1875C2.33374 20.4842 2.18036 20.7747 2.09188 21.0224C1.99813 21.2848 1.90123 21.7015 2.14291 22.1135C2.36496 22.4921 2.71975 22.6308 3.00652 22.6863C3.24461 22.7323 3.53655 22.7393 3.81044 22.7458L3.85617 22.7469C5.27592 22.7815 6.27636 22.3716 7.0688 21.7872L7.16407 21.7171C7.28359 21.6292 7.34335 21.5852 7.42104 21.5756C7.49873 21.5659 7.56703 21.5938 7.70361 21.6494C7.77126 21.677 7.84733 21.7083 7.93339 21.7437C8.47478 21.9667 9.08972 22.1003 9.65465 22.1379C11.1119 22.2347 12.6351 22.2349 14.0954 22.1379C18.662 21.8343 22.2853 18.148 22.5832 13.5382C22.6389 12.6758 22.6389 11.7837 22.5832 10.9213ZM7.87502 11.5C7.32273 11.5 6.87502 11.9477 6.87502 12.5C6.87502 13.0523 7.32273 13.5 7.87502 13.5H7.88399C8.43628 13.5 8.88399 13.0523 8.88399 12.5C8.88399 11.9477 8.43628 11.5 7.88399 11.5H7.87502ZM11.8705 11.5C11.3182 11.5 10.8705 11.9477 10.8705 12.5C10.8705 13.0523 11.3182 13.5 11.8705 13.5H11.8795C12.4318 13.5 12.8795 13.0523 12.8795 12.5C12.8795 11.9477 12.4318 11.5 11.8795 11.5H11.8705ZM15.866 11.5C15.3138 11.5 14.866 11.9477 14.866 12.5C14.866 13.0523 15.3138 13.5 15.866 13.5H15.875C16.4273 13.5 16.875 13.0523 16.875 12.5C16.875 11.9477 16.4273 11.5 15.875 11.5H15.866Z" fill="#141B34"/>
</svg>
