<svg width="24" height="24" viewBox="0 0 24 24" fill="none" xmlns="http://www.w3.org/2000/svg">
<path d="M16.0645 3.25C17.4275 3.24997 18.5267 3.24995 19.3916 3.36621C20.2917 3.48723 21.0495 3.74672 21.6514 4.34863C22.2533 4.95055 22.5128 5.70829 22.6338 6.6084C22.7501 7.47331 22.75 8.57249 22.75 9.93555V12.0645C22.75 12.9966 22.7491 13.8052 22.7119 14.5H21.25V13.75C21.25 12.5074 20.2426 11.5 19 11.5C17.7574 11.5 16.75 12.5074 16.75 13.75V14.5H16C14.7574 14.5 13.75 15.5074 13.75 16.75C13.75 17.6221 14.2472 18.3766 14.9727 18.75H7.93555C6.57249 18.75 5.47331 18.7501 4.6084 18.6338C3.76456 18.5203 3.04541 18.2856 2.46289 17.7607L2.34863 17.6514C1.74672 17.0495 1.48723 16.2917 1.36621 15.3916C1.24995 14.5267 1.24997 13.4275 1.25 12.0645V9.93555C1.24997 8.57249 1.24995 7.47331 1.36621 6.6084C1.48723 5.70829 1.74672 4.95055 2.34863 4.34863C2.95055 3.74672 3.70829 3.48723 4.6084 3.36621C5.47331 3.24995 6.57249 3.24997 7.93555 3.25H16.0645ZM2.77051 14.0703C2.78514 14.4986 2.81007 14.867 2.85352 15.1904C2.95216 15.9241 3.13246 16.3131 3.40918 16.5898L3.51856 16.6895C3.78837 16.9107 4.16662 17.0592 4.80859 17.1455C5.13201 17.189 5.50041 17.2149 5.92871 17.2295C5.62343 15.6338 4.36609 14.3758 2.77051 14.0703ZM12 8C10.3431 8 9 9.34315 9 11C9 12.6569 10.3431 14 12 14C13.6569 14 15 12.6569 15 11C15 9.34315 13.6569 8 12 8ZM5.92871 4.76953C5.50045 4.78416 5.13199 4.80909 4.80859 4.85254C4.07504 4.95116 3.68593 5.13158 3.40918 5.4082C3.13246 5.68493 2.95218 6.07406 2.85352 6.80762C2.81005 7.13108 2.78514 7.50034 2.77051 7.92871C4.36612 7.62327 5.62342 6.3652 5.92871 4.76953ZM18.0713 4.76953C18.3783 6.35971 19.6389 7.6139 21.2295 7.92481C21.2148 7.49791 21.1898 7.1302 21.1465 6.80762C21.0478 6.07403 20.8675 5.68493 20.5908 5.4082C20.3141 5.1315 19.925 4.95119 19.1914 4.85254C18.8681 4.8091 18.4994 4.78417 18.0713 4.76953Z" fill="#141B34"/>
<path d="M18 19.75V17.75H16C15.4477 17.75 15 17.3023 15 16.75C15 16.1977 15.4477 15.75 16 15.75H18V13.75C18 13.1977 18.4477 12.75 19 12.75C19.5523 12.75 20 13.1977 20 13.75V15.75H22C22.5523 15.75 23 16.1977 23 16.75C23 17.3023 22.5523 17.75 22 17.75H20V19.75C20 20.3023 19.5523 20.75 19 20.75C18.4477 20.75 18 20.3023 18 19.75Z" fill="#141B34"/>
</svg>
