<svg width="24" height="24" viewBox="0 0 24 24" fill="none" xmlns="http://www.w3.org/2000/svg">
<path d="M11.9965 13.75C12.963 13.75 13.7465 12.9665 13.7465 12C13.7465 11.0335 12.963 10.25 11.9965 10.25C11.03 10.25 10.2465 11.0335 10.2465 12C10.2465 12.9665 11.03 13.75 11.9965 13.75Z" fill="#141B34"/>
<path d="M11.9965 7.75C12.963 7.75 13.7465 6.9665 13.7465 6C13.7465 5.0335 12.963 4.25 11.9965 4.25C11.03 4.25 10.2465 5.0335 10.2465 6C10.2465 6.9665 11.03 7.75 11.9965 7.75Z" fill="#141B34"/>
<path d="M11.9965 19.75C12.963 19.75 13.7465 18.9665 13.7465 18C13.7465 17.0335 12.963 16.25 11.9965 16.25C11.03 16.25 10.2465 17.0335 10.2465 18C10.2465 18.9665 11.03 19.75 11.9965 19.75Z" fill="#141B34"/>
</svg>
