<svg width="24" height="24" viewBox="0 0 24 24" fill="none" xmlns="http://www.w3.org/2000/svg">
<path d="M12.0043 13.75C12.9708 13.75 13.7543 12.9665 13.7543 12C13.7543 11.0335 12.9708 10.25 12.0043 10.25C11.0378 10.25 10.2543 11.0335 10.2543 12C10.2543 12.9665 11.0378 13.75 12.0043 13.75Z" fill="#141B34"/>
<path d="M18.0043 13.75C18.9708 13.75 19.7543 12.9665 19.7543 12C19.7543 11.0335 18.9708 10.25 18.0043 10.25C17.0378 10.25 16.2543 11.0335 16.2543 12C16.2543 12.9665 17.0378 13.75 18.0043 13.75Z" fill="#141B34"/>
<path d="M6.0043 13.75C6.9708 13.75 7.7543 12.9665 7.7543 12C7.7543 11.0335 6.9708 10.25 6.0043 10.25C5.0378 10.25 4.2543 11.0335 4.2543 12C4.2543 12.9665 5.0378 13.75 6.0043 13.75Z" fill="#141B34"/>
</svg>
