<svg width="24" height="24" viewBox="0 0 24 24" fill="none" xmlns="http://www.w3.org/2000/svg">
<path d="M12 1.74609C12.7662 1.74609 13.5122 1.83276 14.2305 1.99219C13.1655 2.9952 12.5 4.41769 12.5 5.99609C12.5 9.03366 14.9625 11.496 18 11.4961C19.5784 11.4961 20.9999 10.8296 22.0029 9.76465C22.1625 10.4832 22.25 11.2295 22.25 11.9961C22.25 17.657 17.6609 22.2461 12 22.2461C10.3267 22.2461 8.74535 21.8443 7.34863 21.1318L7.07227 20.9854C6.71477 20.789 6.19863 20.7614 5.86719 20.8291L3.2373 21.7051C2.9679 21.7949 2.6706 21.7251 2.46973 21.5244C2.26896 21.3236 2.19846 21.0262 2.28809 20.7568L3.16504 18.126C3.22291 17.8421 3.22096 17.3851 3.08496 17.0752L3.00879 16.9209C2.20626 15.4586 1.75 13.7795 1.75 11.9961C1.75 6.33518 6.33908 1.74609 12 1.74609ZM18 1.74609C20.3472 1.74609 22.25 3.64888 22.25 5.99609C22.25 8.34331 20.3472 10.2461 18 10.2461C15.6528 10.2461 13.75 8.34328 13.75 5.99609C13.75 3.64891 15.6528 1.74613 18 1.74609Z" fill="#141B34"/>
</svg>
