<svg width="24" height="24" viewBox="0 0 24 24" fill="none" xmlns="http://www.w3.org/2000/svg">
<path d="M8 7C8 7.88747 7.99556 8.75333 8.09082 9.46191C8.2015 10.2851 8.53614 11.1924 9.17188 11.8281C9.2882 11.9352 9.55673 12.1718 9.7002 12.2617C10.3032 12.6653 10.9551 12.8307 11.5381 12.9092L12 12.9541C12 13.6931 12.5316 14.4768 13.1807 14.8242C13.6807 15.0489 14.248 15.0567 14.75 14.8535V17.0391C14.75 18.1784 14.75 19.1088 14.6514 19.8428C14.5487 20.6067 14.3265 21.2692 13.7979 21.7979C13.2692 22.3265 12.6067 22.5487 11.8428 22.6514C11.1088 22.75 10.1784 22.75 9.03906 22.75H7.96094C6.82159 22.75 5.89119 22.75 5.15723 22.6514C4.39328 22.5487 3.73084 22.3265 3.20215 21.7979C2.67346 21.2692 2.45134 20.6067 2.34863 19.8428C2.24999 19.1088 2.24999 18.1784 2.25 17.0391V10.9609C2.24999 9.82159 2.24999 8.89119 2.34863 8.15723C2.45134 7.39328 2.67346 6.73084 3.20215 6.20215C3.73084 5.67346 4.39328 5.45134 5.15723 5.34863C5.89119 5.24999 6.82159 5.24999 7.96094 5.25H8V7ZM8.5 18.4961C7.94772 18.4961 7.5 18.9438 7.5 19.4961C7.5 20.0484 7.94772 20.4961 8.5 20.4961H8.50977L8.61231 20.4912C9.11655 20.44 9.50977 20.0139 9.50977 19.4961C9.50977 18.9783 9.11655 18.5522 8.61231 18.501L8.50977 18.4961H8.5Z" fill="#141B34"/>
<path d="M17.0469 1.25C17.9476 1.24998 18.699 1.24996 19.2949 1.33008C19.9225 1.41451 20.489 1.60031 20.9443 2.05566L21.1025 2.23145C21.4444 2.65357 21.596 3.15585 21.6699 3.70508C21.75 4.30099 21.75 5.05236 21.75 5.95313V7.04688C21.75 7.94765 21.75 8.69901 21.6699 9.29492C21.596 9.84415 21.4444 10.3464 21.1025 10.7686L20.9443 10.9443C20.489 11.3997 19.9225 11.5855 19.2949 11.6699C18.7393 11.7446 18.0485 11.7487 17.2275 11.749L14.416 13.624C14.186 13.7774 13.8903 13.7915 13.6465 13.6611C13.4026 13.5306 13.25 13.2766 13.25 13V11.7471C12.6545 11.7428 12.1385 11.7282 11.7051 11.6699C11.1559 11.596 10.6536 11.4444 10.2314 11.1025L10.0557 10.9443C9.60031 10.489 9.41451 9.92253 9.33008 9.29492C9.24996 8.69901 9.24998 7.94765 9.25 7.04688V5.95313C9.24998 5.05236 9.24996 4.30099 9.33008 3.70508C9.41451 3.07747 9.60031 2.51102 10.0557 2.05566C10.511 1.60031 11.0775 1.41451 11.7051 1.33008C12.301 1.24996 13.0524 1.24998 13.9531 1.25H17.0469ZM13 7.25C12.5858 7.25 12.25 7.58579 12.25 8C12.25 8.41421 12.5858 8.75 13 8.75H15.5C15.9142 8.75 16.25 8.41421 16.25 8C16.25 7.58579 15.9142 7.25 15.5 7.25H13ZM13 4.25C12.5858 4.25 12.25 4.58579 12.25 5C12.25 5.41421 12.5858 5.75 13 5.75H18C18.4142 5.75 18.75 5.41421 18.75 5C18.75 4.58579 18.4142 4.25 18 4.25H13Z" fill="#141B34"/>
</svg>
