<svg width="24" height="24" viewBox="0 0 24 24" fill="none" xmlns="http://www.w3.org/2000/svg">
<path d="M13.0498 2.25C14.8906 2.24999 16.3487 2.24998 17.4893 2.40332C18.6616 2.56096 19.6101 2.89329 20.3584 3.6416C21.1067 4.38991 21.439 5.33844 21.5967 6.51074C21.75 7.65129 21.75 9.10937 21.75 10.9502V13.0498C21.75 14.8906 21.75 16.3487 21.5967 17.4893C21.439 18.6616 21.1067 19.6101 20.3584 20.3584C19.6101 21.1067 18.6616 21.439 17.4893 21.5967C16.3487 21.75 14.8906 21.75 13.0498 21.75H10.9502C10.6214 21.75 10.3047 21.7489 10 21.748V20.5C10 19.9477 9.55228 19.5 9 19.5C8.44772 19.5 8 19.9477 8 20.5V21.7148C7.45234 21.6926 6.95721 21.6567 6.51074 21.5967C5.33844 21.439 4.38991 21.1067 3.6416 20.3584C2.89329 19.6101 2.56096 18.6616 2.40332 17.4893C2.24998 16.3487 2.24999 14.8906 2.25 13.0498V10.9502C2.24999 9.10939 2.24998 7.65129 2.40332 6.51074C2.56096 5.33844 2.89329 4.38991 3.6416 3.6416C4.38991 2.89329 5.33844 2.56096 6.51074 2.40332C6.95722 2.34329 7.45232 2.30641 8 2.28418V3.5C8 4.05228 8.44772 4.5 9 4.5C9.55228 4.5 10 4.05228 10 3.5V2.25098C10.3047 2.2501 10.6214 2.25 10.9502 2.25H13.0498ZM9 15C8.44772 15 8 15.4477 8 16V17C8 17.5523 8.44772 18 9 18C9.55228 18 10 17.5523 10 17V16C10 15.4477 9.55228 15 9 15ZM9 10.5C8.44772 10.5 8 10.9477 8 11.5V12.5C8 13.0523 8.44772 13.5 9 13.5C9.55228 13.5 10 13.0523 10 12.5V11.5C10 10.9477 9.55228 10.5 9 10.5ZM9 6C8.44772 6 8 6.44772 8 7V8C8 8.55228 8.44772 9 9 9C9.55228 9 10 8.55228 10 8V7C10 6.44772 9.55228 6 9 6Z" fill="#141B34"/>
</svg>
