<svg width="24" height="24" viewBox="0 0 24 24" fill="none" xmlns="http://www.w3.org/2000/svg">
<path fill-rule="evenodd" clip-rule="evenodd" d="M6.75006 15.25C6.75006 15.8023 6.30235 16.25 5.75006 16.25H5.2127L5.17545 16.2472C4.23324 16.1767 3.39322 15.9996 2.68916 15.4397C2.45821 15.2561 2.24862 15.0471 2.06435 14.8167C1.50029 14.1113 1.32306 13.2688 1.25281 12.3242C1.21186 11.7734 1.62514 11.2937 2.1759 11.2528C2.72667 11.2118 3.20635 11.6251 3.24731 12.1758C3.30799 12.9919 3.44348 13.3389 3.62631 13.5676C3.71699 13.6809 3.8202 13.7839 3.93401 13.8744C4.15988 14.054 4.5008 14.1879 5.2884 14.25H5.75006C6.30235 14.25 6.75006 14.6977 6.75006 15.25ZM2.25006 10.75C1.69778 10.75 1.25006 10.3023 1.25006 9.75V7.75C1.25006 7.19771 1.69778 6.75 2.25006 6.75C2.80235 6.75 3.25006 7.19771 3.25006 7.75V9.75C3.25006 10.3023 2.80235 10.75 2.25006 10.75ZM15.2501 6.75C14.6978 6.75 14.2501 6.30229 14.2501 5.75L14.2501 5.2881C14.1881 4.4978 14.0539 4.15768 13.8738 3.93245C13.7831 3.81906 13.6799 3.71613 13.5661 3.62562C13.3368 3.44326 12.9889 3.30808 12.1754 3.24721C11.6247 3.20601 11.2116 2.72613 11.2528 2.17539C11.2941 1.62464 11.7739 1.21158 12.3247 1.25279C13.2669 1.32328 14.1069 1.50035 14.811 2.06026C15.0419 2.24393 15.2515 2.45292 15.4358 2.68334C15.9998 3.38868 16.1771 4.23121 16.2473 5.17584L16.2501 5.21287L16.2501 5.75C16.2501 6.30228 15.8023 6.75 15.2501 6.75ZM2.17545 6.24721C1.6247 6.20601 1.21164 5.72613 1.25285 5.17539C1.32335 4.23318 1.50041 3.39316 2.06032 2.6891C2.24399 2.45815 2.45298 2.24856 2.6834 2.06429C3.38874 1.50023 4.23127 1.323 5.1759 1.25275C5.72667 1.2118 6.20635 1.62508 6.24731 2.17584C6.28826 2.72661 5.87498 3.20629 5.32422 3.24725C4.50814 3.30793 4.16114 3.44342 3.93251 3.62625C3.81912 3.71693 3.71619 3.82014 3.62568 3.93395C3.44332 4.16326 3.30814 4.51115 3.24727 5.32461C3.20607 5.87536 2.7262 6.28842 2.17545 6.24721ZM10.7501 2.25C10.7501 2.80229 10.3023 3.25 9.75006 3.25H7.75006C7.19778 3.25 6.75006 2.80229 6.75006 2.25C6.75006 1.69771 7.19778 1.25 7.75006 1.25H9.75006C10.3023 1.25 10.7501 1.69771 10.7501 2.25Z" fill="#141B34"/>
<path d="M15.4528 22.75C14.0847 22.75 12.9926 22.75 12.1255 22.6496C11.2326 22.5461 10.4833 22.3277 9.85023 21.8228C9.60143 21.6244 9.37569 21.3986 9.17728 21.1498C8.67238 20.5167 8.45395 19.7675 8.35049 18.8745C8.25004 18.0075 8.25005 16.9154 8.25006 15.5473L8.25047 14.9992C8.25065 14.7668 8.25074 14.6507 8.28871 14.559C8.33943 14.4365 8.43673 14.3391 8.55921 14.2884C8.65088 14.2504 8.76707 14.2502 8.99943 14.25C10.2542 14.2487 11.1477 14.2358 11.8363 14.1428C12.5088 14.0519 12.91 13.8931 13.2148 13.65C13.3758 13.5216 13.5219 13.3755 13.6503 13.2145C13.8933 12.9097 14.0522 12.5086 14.143 11.8361C14.2359 11.1476 14.2487 10.2542 14.2501 8.99937C14.2503 8.767 14.2504 8.65082 14.2884 8.55915C14.3392 8.43667 14.4365 8.33937 14.559 8.28864C14.6507 8.25068 14.7669 8.25059 14.9993 8.25041L15.5473 8.25C16.9155 8.24999 18.0076 8.24998 18.8746 8.35043C19.7675 8.45389 20.5168 8.67232 21.1499 9.17721C21.3987 9.37563 21.6244 9.60136 21.8228 9.85017C22.3277 10.4833 22.5462 11.2325 22.6496 12.1255C22.7501 12.9925 22.7501 14.0846 22.7501 15.4527V15.5473C22.7501 16.9154 22.7501 18.0075 22.6496 18.8745C22.5462 19.7675 22.3277 20.5167 21.8228 21.1498C21.6244 21.3986 21.3987 21.6244 21.1499 21.8228C20.5168 22.3277 19.7675 22.5461 18.8746 22.6496C18.0076 22.75 16.9155 22.75 15.5473 22.75H15.4528Z" fill="#141B34"/>
</svg>
