<svg width="24" height="24" viewBox="0 0 24 24" fill="none" xmlns="http://www.w3.org/2000/svg">
<path d="M12.0645 1.25C13.4275 1.24997 14.5267 1.24995 15.3916 1.36621C16.2917 1.48723 17.0495 1.74672 17.6514 2.34863C18.2533 2.95055 18.5128 3.70829 18.6338 4.6084C18.7501 5.47331 18.75 6.57249 18.75 7.93555V16.0645C18.75 17.4275 18.7501 18.5267 18.6338 19.3916C18.5128 20.2917 18.2533 21.0494 17.6514 21.6514C17.0495 22.2533 16.2917 22.5128 15.3916 22.6338C14.5267 22.7501 13.4275 22.75 12.0645 22.75H11.9355C10.5725 22.75 9.47331 22.7501 8.6084 22.6338C7.70829 22.5128 6.95055 22.2533 6.34863 21.6514C5.74672 21.0494 5.48723 20.2917 5.36621 19.3916C5.24995 18.5267 5.24997 17.4275 5.25 16.0645V7.93555C5.24997 6.57249 5.24995 5.47331 5.36621 4.6084C5.48723 3.70829 5.74672 2.95055 6.34863 2.34863C6.95055 1.74672 7.70829 1.48723 8.6084 1.36621C9.47331 1.24995 10.5725 1.24997 11.9355 1.25H12.0645ZM12 17C11.4477 17 11 17.4477 11 18V18.0098C11 18.562 11.4477 19.0098 12 19.0098C12.5523 19.0098 13 18.562 13 18.0098V18C13 17.4477 12.5523 17 12 17ZM10 9C9.44772 9 9 9.44771 9 10C9 10.5523 9.44772 11 10 11H14C14.5523 11 15 10.5523 15 10C15 9.44771 14.5523 9 14 9H10ZM10 5C9.44772 5 9 5.44772 9 6C9 6.55228 9.44772 7 10 7H14C14.5523 7 15 6.55228 15 6C15 5.44772 14.5523 5 14 5H10Z" fill="#141B34"/>
</svg>
