<svg width="24" height="24" viewBox="0 0 24 24" fill="none" xmlns="http://www.w3.org/2000/svg">
<path d="M14.7305 1.34792C14.1076 1.26325 13.3464 1.25158 12.4548 1.25H8.54518C7.6536 1.25158 6.89242 1.26325 6.26946 1.34792C5.50417 1.45194 4.80442 1.68195 4.24096 2.25159C3.67751 2.82122 3.44999 3.52866 3.3471 4.30234C3.24993 5.03302 3.24996 5.95181 3.25 7.0463V16.9532C3.24996 18.0477 3.24993 18.9665 3.3471 19.6972C3.44999 20.4709 3.67751 21.1783 4.24096 21.7479C4.80442 22.3176 5.50417 22.5476 6.26946 22.6516C6.9922 22.7498 7.90099 22.7498 8.9836 22.7498H12.0163C13.0989 22.7498 14.0078 22.7498 14.7305 22.6516C15.4958 22.5476 16.1956 22.3176 16.759 21.7479C17.3225 21.1783 17.55 20.4709 17.6529 19.6972C17.7501 18.9665 17.75 18.0945 17.75 17V16.9667C17.75 16.4328 17.3172 16 16.7833 16C16.2495 16 15.8167 16.4328 15.8167 16.9667V17C15.8167 17.5745 15.8162 18.5899 15.8067 19H5.19334C5.18384 18.5899 5.18335 17.4596 5.18335 16.885V7.11229C5.18335 5.93294 5.18541 5.14673 5.26321 4.56168C5.33728 4.00473 5.46368 3.77851 5.60805 3.63256C5.75242 3.4866 5.97618 3.35882 6.52708 3.28394C6.9056 3.23249 7.36924 3.2138 7.97115 3.20703L8.1854 3.64025C8.34915 3.97134 8.68387 4.18047 9.05002 4.18047H11.95C12.3162 4.18047 12.6509 3.97134 12.8146 3.64025L13.0289 3.20703C13.6308 3.2138 14.0944 3.23249 14.4729 3.28394C15.0238 3.35882 15.2476 3.4866 15.392 3.63256C15.5364 3.77851 15.6628 4.00473 15.7368 4.56168C15.8146 5.14673 15.8167 5.82065 15.8167 7V7.03334C15.8167 7.56721 16.2495 8 16.7833 8C17.3172 8 17.75 7.56721 17.75 7.03334V6.99995C17.75 5.90545 17.7501 5.03303 17.6529 4.30234C17.55 3.52866 17.3225 2.82123 16.759 2.25159C16.1956 1.68195 15.4958 1.45194 14.7305 1.34792Z" fill="#141B34"/>
<path fill-rule="evenodd" clip-rule="evenodd" d="M13.0429 8.29289C13.4334 7.90237 14.0666 7.90237 14.4571 8.29289L16.75 10.5858L19.0429 8.29289C19.4334 7.90237 20.0666 7.90237 20.4571 8.29289C20.8476 8.68342 20.8476 9.31658 20.4571 9.70711L18.1642 12L20.4571 14.2929C20.8476 14.6834 20.8476 15.3166 20.4571 15.7071C20.0666 16.0976 19.4334 16.0976 19.0429 15.7071L16.75 13.4142L14.4571 15.7071C14.0666 16.0976 13.4334 16.0976 13.0429 15.7071C12.6524 15.3166 12.6524 14.6834 13.0429 14.2929L15.3358 12L13.0429 9.70711C12.6524 9.31658 12.6524 8.68342 13.0429 8.29289Z" fill="#141B34"/>
</svg>
