<svg width="24" height="24" viewBox="0 0 24 24" fill="none" xmlns="http://www.w3.org/2000/svg">
<path d="M18.75 16.0645C18.75 17.4275 18.7501 18.5267 18.6338 19.3916C18.5128 20.2917 18.2533 21.0494 17.6514 21.6514C17.0494 22.2533 16.2917 22.5128 15.3916 22.6338C14.5267 22.7501 13.4275 22.75 12.0645 22.75H11.9355C10.5725 22.75 9.47331 22.7501 8.6084 22.6338C7.70829 22.5128 6.95055 22.2533 6.34863 21.6514C5.74672 21.0494 5.48723 20.2917 5.36621 19.3916C5.30237 18.9167 5.27566 18.3711 5.2627 17.75H10C10.4502 17.75 10.8634 17.7519 11.1973 17.707C11.5527 17.6592 11.9283 17.5463 12.2373 17.2373C12.5463 16.9283 12.6592 16.5527 12.707 16.1973C12.7519 15.8634 12.75 15.4502 12.75 15V13C12.75 12.5498 12.7519 12.1366 12.707 11.8027C12.6592 11.4473 12.5463 11.0717 12.2373 10.7627C11.9283 10.4537 11.5527 10.3408 11.1973 10.293C10.8634 10.2481 10.4502 10.25 10 10.25H5.25V7.98633C5.49321 7.99727 5.75667 8 6 8H18C18.2433 8 18.5068 7.99727 18.75 7.98633V16.0645ZM10 11.75C10.4924 11.75 10.7864 11.752 10.9971 11.7803C11.0936 11.7933 11.1423 11.8084 11.1641 11.8174C11.169 11.8194 11.1729 11.8213 11.1748 11.8223L11.1768 11.8232L11.1777 11.8252C11.1787 11.8271 11.1806 11.831 11.1826 11.8359C11.1916 11.8577 11.2067 11.9064 11.2197 12.0029C11.248 12.2136 11.25 12.5076 11.25 13V15C11.25 15.4924 11.248 15.7864 11.2197 15.9971C11.2067 16.0936 11.1916 16.1423 11.1826 16.1641C11.1806 16.169 11.1787 16.1729 11.1777 16.1748L11.1768 16.1768L11.1748 16.1777C11.1729 16.1787 11.169 16.1806 11.1641 16.1826C11.1423 16.1916 11.0936 16.2067 10.9971 16.2197C10.7864 16.248 10.4924 16.25 10 16.25H5.25V11.75H10Z" fill="#141B34"/>
<path d="M20.75 4.01091V4V3.98909C20.75 3.67832 20.75 3.40489 20.7334 3.17871C20.716 2.94259 20.6775 2.69936 20.5693 2.45898C20.3638 2.00221 19.9978 1.63624 19.541 1.43066C19.3006 1.32253 19.0574 1.28395 18.8213 1.2666C18.5951 1.25 18.3217 1.25 18.0109 1.25H18H6H5.98908C5.67831 1.25 5.40488 1.25 5.17871 1.2666C4.94259 1.28395 4.69936 1.32253 4.45898 1.43066C4.00221 1.63624 3.63624 2.00221 3.43066 2.45898C3.32253 2.69936 3.28395 2.94259 3.2666 3.17871C3.25 3.40488 3.25 3.67831 3.25 3.98908V4V4.01092C3.25 4.32169 3.25 4.59512 3.2666 4.82129C3.28395 5.05741 3.32253 5.30064 3.43066 5.54102C3.63624 5.99779 4.00221 6.36376 4.45898 6.56934C4.69936 6.67747 4.94259 6.71605 5.17871 6.7334C5.40488 6.75 5.67831 6.75 5.98906 6.75H6H18H18.0109C18.3217 6.75 18.5951 6.75 18.8213 6.7334C19.0574 6.71605 19.3006 6.67747 19.541 6.56934C19.9978 6.36376 20.3638 5.99779 20.5693 5.54102C20.6775 5.30064 20.716 5.05741 20.7334 4.82129C20.75 4.59511 20.75 4.32168 20.75 4.01091Z" fill="#141B34"/>
</svg>
