<svg width="24" height="24" viewBox="0 0 24 24" fill="none" xmlns="http://www.w3.org/2000/svg">
<path fill-rule="evenodd" clip-rule="evenodd" d="M9.25256 2.67789C9.27925 3.21636 8.86436 3.67452 8.32589 3.7012C6.30326 3.80144 5.36134 4.10077 4.73106 4.73106C4.10077 5.36134 3.80144 6.30326 3.7012 8.32589C3.67452 8.86437 3.21636 9.27925 2.67789 9.25256C2.13942 9.22588 1.72453 8.76772 1.75122 8.22925C1.85415 6.15244 2.1626 4.53843 3.35052 3.35052C4.53843 2.1626 6.15244 1.85415 8.22925 1.75122C8.76772 1.72453 9.22587 2.13942 9.25256 2.67789ZM14.7474 2.67789C14.7741 2.13942 15.2323 1.72453 15.7708 1.75122C17.8476 1.85415 19.4616 2.1626 20.6495 3.35052C21.8374 4.53843 22.1459 6.15244 22.2488 8.22925C22.2755 8.76772 21.8606 9.22588 21.3221 9.25256C20.7836 9.27925 20.3255 8.86437 20.2988 8.32589C20.1986 6.30326 19.8992 5.36134 19.2689 4.73106C18.6387 4.10077 17.6967 3.80144 15.6741 3.7012C15.1356 3.67452 14.7208 3.21636 14.7474 2.67789ZM2.67789 14.7474C3.21636 14.7208 3.67452 15.1356 3.7012 15.6741C3.80144 17.6967 4.10077 18.6387 4.73106 19.2689C5.36134 19.8992 6.30326 20.1986 8.32588 20.2988C8.86436 20.3255 9.27924 20.7836 9.25255 21.3221C9.22587 21.8606 8.76772 22.2755 8.22924 22.2488C6.15243 22.1459 4.53843 21.8374 3.35052 20.6495C2.1626 19.4616 1.85415 17.8476 1.75122 15.7708C1.72453 15.2323 2.13942 14.7741 2.67789 14.7474ZM21.3221 14.7474C21.8606 14.7741 22.2755 15.2323 22.2488 15.7708C22.1459 17.8476 21.8374 19.4616 20.6495 20.6495C19.4616 21.8374 17.8476 22.1459 15.7708 22.2488C15.2323 22.2755 14.7741 21.8606 14.7474 21.3221C14.7208 20.7836 15.1356 20.3255 15.6741 20.2988C17.6967 20.1986 18.6387 19.8992 19.2689 19.2689C19.8992 18.6387 20.1986 17.6967 20.2988 15.6741C20.3255 15.1356 20.7836 14.7208 21.3221 14.7474Z" fill="#141B34"/>
<path d="M14 10.0233V10V9.9767C14 9.53448 14 9.15316 13.9785 8.83789C13.956 8.50806 13.9065 8.17749 13.7715 7.85156C13.467 7.11679 12.8832 6.53299 12.1484 6.22852C11.8225 6.09351 11.4919 6.04399 11.1621 6.02148C10.8468 5.99999 10.4655 5.99999 10.0232 6H10H9.97675C9.53451 5.99999 9.15318 5.99999 8.83789 6.02148C8.50806 6.04399 8.17749 6.09351 7.85156 6.22852C7.11679 6.53299 6.53299 7.11679 6.22852 7.85156C6.09351 8.17749 6.04399 8.50806 6.02148 8.83789C5.99999 9.15318 5.99999 9.53451 6 9.97675V10V10.0232C5.99999 10.4655 5.99999 10.8468 6.02148 11.1621C6.04399 11.4919 6.09351 11.8225 6.22852 12.1484C6.53299 12.8832 7.11679 13.467 7.85156 13.7715C8.17749 13.9065 8.50806 13.956 8.83789 13.9785C9.15316 14 9.53448 14 9.9767 14H10H10.0233C10.4655 14 10.8468 14 11.1621 13.9785C11.4919 13.956 11.8225 13.9065 12.1484 13.7715C12.8832 13.467 13.467 12.8832 13.7715 12.1484C13.9065 11.8225 13.956 11.4919 13.9785 11.1621C14 10.8468 14 10.4655 14 10.0233Z" fill="#141B34"/>
<path d="M16 7.00977V7C16 6.44772 16.4477 6 17 6C17.5523 6 18 6.44772 18 7V7.00977C18 7.56205 17.5523 8.00977 17 8.00977C16.4477 8.00977 16 7.56205 16 7.00977Z" fill="#141B34"/>
<path d="M16 13V11C16 10.4477 16.4477 10 17 10C17.5523 10 18 10.4477 18 11V13C18 13.9145 18.0022 14.7014 17.918 15.3281C17.8298 15.9835 17.6307 16.6115 17.1211 17.1211C16.6115 17.6307 15.9835 17.8298 15.3281 17.918C14.7014 18.0022 13.9145 18 13 18C12.4477 18 12 17.5523 12 17C12 16.4477 12.4477 16 13 16C13.9711 16 14.599 15.9977 15.0615 15.9355C15.4951 15.8772 15.6309 15.7831 15.707 15.707C15.7831 15.6309 15.8772 15.4951 15.9355 15.0615C15.9977 14.599 16 13.9711 16 13Z" fill="#141B34"/>
<path d="M9 16C9.55228 16 10 16.4477 10 17C10 17.5523 9.55228 18 9 18H7C6.44772 18 6 17.5523 6 17C6 16.4477 6.44772 16 7 16H9Z" fill="#141B34"/>
</svg>
