<svg width="24" height="24" viewBox="0 0 24 24" fill="none" xmlns="http://www.w3.org/2000/svg">
<path d="M21.0029 15.976C20.5607 16.5708 19.8627 17.2745 19.0704 18.0707C18.2743 18.863 17.5708 19.5608 16.9759 20.003C16.3391 20.4764 15.688 20.7769 14.9076 20.7482C14.1377 20.7198 13.4858 20.3797 12.8338 19.8749C12.2034 19.3868 11.4912 18.678 10.6088 17.7998L7.216 14.4233C6.33362 13.5452 5.62134 12.8364 5.13082 12.2089C4.62365 11.5602 4.28055 10.9099 4.25192 10.1406C4.22288 9.36046 4.5263 8.71063 5.00204 8.07688C5.45359 7.47535 6.15479 6.77756 6.9681 5.9682C7.77745 5.1549 8.47529 4.45365 9.07682 4.0021C9.71057 3.52636 10.3604 3.22294 11.1406 3.25198C11.9099 3.28061 12.5602 3.62371 13.2089 4.13088C13.2919 4.19579 13.2927 4.32009 13.2162 4.39256C12.7983 4.78842 12.475 5.27531 12.2678 5.81135C12.0965 6.25444 12.0433 6.67885 12.0207 7.03454C11.9999 7.36014 12 7.74167 12 8.13373V8.24139C12 8.63344 11.9999 9.01498 12.0207 9.34058C12.0433 9.69627 12.0965 10.1207 12.2678 10.5638C12.6256 11.4894 13.3296 12.2685 14.269 12.6854C14.727 12.8886 15.1665 12.9509 15.5216 12.9769C15.8394 13.0001 16.2074 13.0001 16.567 13.0001H18.4329C18.7926 13.0001 19.1606 13.0001 19.4783 12.9769C19.8334 12.9509 20.273 12.8886 20.731 12.6854C21.0132 12.5601 21.1543 12.4975 21.2672 12.5378C21.2752 12.5406 21.2831 12.5438 21.2908 12.5473C21.3999 12.597 21.4455 12.7101 21.5367 12.9364C21.6606 13.2436 21.7354 13.5639 21.7481 13.9076C21.7769 14.6881 21.4764 15.3392 21.0029 15.976Z" fill="#141B34"/>
<path fill-rule="evenodd" clip-rule="evenodd" d="M20 4.74925V3.68756C20 2.31589 18.8548 1.25006 17.5 1.25006C16.1452 1.25006 15 2.31589 15 3.68756V4.74925C14.9249 4.77202 14.8502 4.79935 14.7761 4.83226C14.1559 5.1075 13.6789 5.62771 13.4337 6.26209C13.3278 6.53601 13.2871 6.81732 13.2682 7.11398C13.25 7.39946 13.25 7.74721 13.25 8.16395V8.21116C13.25 8.6279 13.25 8.97567 13.2682 9.26114C13.2871 9.5578 13.3278 9.83911 13.4337 10.113C13.6789 10.7474 14.1559 11.2676 14.7761 11.5429C15.0484 11.6637 15.3272 11.7093 15.6128 11.7302C15.8844 11.7501 16.2134 11.7501 16.5989 11.7501H18.4011C18.7866 11.7501 19.1156 11.7501 19.3872 11.7302C19.6728 11.7093 19.9516 11.6637 20.2239 11.5429C20.8441 11.2676 21.3211 10.7474 21.5663 10.113C21.6722 9.83911 21.7129 9.5578 21.7318 9.26114C21.75 8.97567 21.75 8.62791 21.75 8.21116V8.16398C21.75 7.74723 21.75 7.39946 21.7318 7.11398C21.7129 6.81732 21.6722 6.53601 21.5663 6.26209C21.3211 5.62771 20.8441 5.1075 20.2239 4.83226C20.1498 4.79935 20.0751 4.77202 20 4.74925ZM16.5 3.68756C16.5 3.19527 16.9218 2.75006 17.5 2.75006C18.0782 2.75006 18.5 3.19527 18.5 3.68756V4.62507H16.5V3.68756Z" fill="#141B34"/>
<path fill-rule="evenodd" clip-rule="evenodd" d="M2.96919 12.2507C3.38306 12.2337 3.73236 12.5554 3.74938 12.9693C3.80373 14.2909 4.26485 16.2698 5.44655 17.9568C6.4414 19.377 7.95221 20.6026 10.2173 21.0658L9.89083 20.7483C9.59389 20.4595 9.5873 19.9846 9.87609 19.6877C10.1649 19.3908 10.6397 19.3842 10.9367 19.673L12.1573 20.8601C12.1654 20.868 12.1736 20.876 12.182 20.8842C12.2949 20.9938 12.4339 21.1287 12.5302 21.2551C12.6185 21.371 12.8883 21.7602 12.6663 22.2295C12.4518 22.6825 12.0003 22.7354 11.8531 22.7459C11.6954 22.7571 11.5039 22.7425 11.3474 22.7306C11.3359 22.7297 11.3246 22.7288 11.3135 22.728C7.87235 22.4684 5.61307 20.809 4.21798 18.8173C2.8423 16.8534 2.31449 14.5834 2.25065 13.0309C2.23362 12.617 2.55533 12.2677 2.96919 12.2507Z" fill="#141B34"/>
</svg>
