<svg width="24" height="24" viewBox="0 0 24 24" fill="none" xmlns="http://www.w3.org/2000/svg">
<path fill-rule="evenodd" clip-rule="evenodd" d="M1.5 9C1.5 8.44772 1.94772 8 2.5 8H6.5C7.05228 8 7.5 8.44772 7.5 9C7.5 9.55228 7.05228 10 6.5 10H2.5C1.94772 10 1.5 9.55228 1.5 9Z" fill="#141B34"/>
<path fill-rule="evenodd" clip-rule="evenodd" d="M1.5 14C1.5 13.4477 1.94772 13 2.5 13H6.5C7.05228 13 7.5 13.4477 7.5 14C7.5 14.5523 7.05228 15 6.5 15H2.5C1.94772 15 1.5 14.5523 1.5 14Z" fill="#141B34"/>
<path fill-rule="evenodd" clip-rule="evenodd" d="M1.5 4C1.5 3.44772 1.94772 3 2.5 3H18.5C19.0523 3 19.5 3.44772 19.5 4C19.5 4.55228 19.0523 5 18.5 5H2.5C1.94772 5 1.5 4.55228 1.5 4Z" fill="#141B34"/>
<path fill-rule="evenodd" clip-rule="evenodd" d="M9 13.5C9 10.1863 11.6863 7.5 15 7.5C18.3137 7.5 21 10.1863 21 13.5C21 14.7958 20.5892 15.9957 19.8907 16.9765L22.2071 19.2929C22.5976 19.6834 22.5976 20.3166 22.2071 20.7071C21.8166 21.0976 21.1834 21.0976 20.7929 20.7071L18.4765 18.3907C17.4957 19.0892 16.2958 19.5 15 19.5C11.6863 19.5 9 16.8137 9 13.5ZM15 9.5C12.7909 9.5 11 11.2909 11 13.5C11 15.7091 12.7909 17.5 15 17.5C17.2091 17.5 19 15.7091 19 13.5C19 11.2909 17.2091 9.5 15 9.5Z" fill="#141B34"/>
</svg>
