<svg width="24" height="24" viewBox="0 0 24 24" fill="none" xmlns="http://www.w3.org/2000/svg">
<path fill-rule="evenodd" clip-rule="evenodd" d="M12 1.25005C6.06294 1.25005 1.25 6.06299 1.25 12.0001C1.25 17.9371 6.06293 22.7501 12 22.7501C17.937 22.7501 22.75 17.9371 22.75 12.0001C22.75 6.06299 17.937 1.25005 12 1.25005ZM12 7.00005C9.23857 7.00005 7 9.23863 7 12.0001C7 14.7615 9.23857 17.0001 12 17.0001C13.0191 17.0001 13.9669 16.6952 14.7574 16.1717L16.2929 17.7072C16.6834 18.0977 17.3166 18.0977 17.7071 17.7072C18.0976 17.3166 18.0976 16.6835 17.7071 16.2929L16.1716 14.7574C16.6951 13.967 17 13.0191 17 12.0001C17 9.23863 14.7614 7.00005 12 7.00005ZM9 12.0001C9 10.3432 10.3431 9.00005 12 9.00005C13.6568 9.00005 15 10.3432 15 12.0001C15 13.6569 13.6568 15.0001 12 15.0001C10.3431 15.0001 9 13.6569 9 12.0001Z" fill="#141B34"/>
</svg>
