<svg width="24" height="24" viewBox="0 0 24 24" fill="none" xmlns="http://www.w3.org/2000/svg">
<path fill-rule="evenodd" clip-rule="evenodd" d="M1.5 9.5C1.5 8.94772 1.94772 8.5 2.5 8.5H6.5C7.05228 8.5 7.5 8.94772 7.5 9.5C7.5 10.0523 7.05228 10.5 6.5 10.5H2.5C1.94772 10.5 1.5 10.0523 1.5 9.5Z" fill="#141B34"/>
<path fill-rule="evenodd" clip-rule="evenodd" d="M1.5 14.5C1.5 13.9477 1.94772 13.5 2.5 13.5H6.5C7.05228 13.5 7.5 13.9477 7.5 14.5C7.5 15.0523 7.05228 15.5 6.5 15.5H2.5C1.94772 15.5 1.5 15.0523 1.5 14.5Z" fill="#141B34"/>
<path fill-rule="evenodd" clip-rule="evenodd" d="M1.5 19.5C1.5 18.9477 1.94772 18.5 2.5 18.5H18.5C19.0523 18.5 19.5 18.9477 19.5 19.5C19.5 20.0523 19.0523 20.5 18.5 20.5H2.5C1.94772 20.5 1.5 20.0523 1.5 19.5Z" fill="#141B34"/>
<path fill-rule="evenodd" clip-rule="evenodd" d="M9 9.5C9 6.18629 11.6863 3.5 15 3.5C18.3137 3.5 21 6.18629 21 9.5C21 10.7958 20.5892 11.9957 19.8907 12.9765L22.2071 15.2929C22.5976 15.6834 22.5976 16.3166 22.2071 16.7071C21.8166 17.0976 21.1834 17.0976 20.7929 16.7071L18.4765 14.3907C17.4957 15.0892 16.2958 15.5 15 15.5C11.6863 15.5 9 12.8137 9 9.5ZM15 5.5C12.7909 5.5 11 7.29086 11 9.5C11 11.7091 12.7909 13.5 15 13.5C17.2091 13.5 19 11.7091 19 9.5C19 7.29086 17.2091 5.5 15 5.5Z" fill="#141B34"/>
</svg>
