<svg width="24" height="24" viewBox="0 0 24 24" fill="none" xmlns="http://www.w3.org/2000/svg">
<path d="M18.7206 18.7207C17.2098 20.3489 15.4398 21.4472 14.1698 22.1006L14.1327 22.1191C13.415 22.4885 12.908 22.75 11.9999 22.75C11.0919 22.75 10.5848 22.4885 9.86711 22.1191L9.83 22.1006C7.15328 20.7234 2.25006 17.3739 2.24992 11.2373V7.74805C2.24992 6.40064 2.22796 5.46059 2.81145 4.51855C3.05742 4.12145 3.31704 3.83713 3.60637 3.60645L18.7206 18.7207Z" fill="#141B34"/>
<path d="M11.9999 1.25C14.6089 1.25 17.0399 1.82765 19.0429 2.82422C19.9634 3.28219 20.6143 3.59167 21.1884 4.51855C21.7719 5.46058 21.7499 6.40065 21.7499 7.74805V11.2373C21.7499 13.393 21.1432 15.2039 20.2421 16.707L5.92473 2.38965C7.72285 1.66208 9.79792 1.25 11.9999 1.25Z" fill="#141B34"/>
<path d="M1.54289 1.54289C1.93342 1.15237 2.56643 1.15237 2.95696 1.54289L22.457 21.0429C22.8475 21.4334 22.8475 22.0664 22.457 22.457C22.0664 22.8475 21.4334 22.8475 21.0429 22.457L1.54289 2.95696C1.15237 2.56643 1.15237 1.93342 1.54289 1.54289Z" fill="#141B34"/>
</svg>
