<svg width="24" height="24" viewBox="0 0 24 24" fill="none" xmlns="http://www.w3.org/2000/svg">
<path d="M12.0527 1.75C14.2453 1.74999 15.9673 1.74998 17.3115 1.93066C18.6882 2.11575 19.7805 2.50313 20.6387 3.36133C21.4969 4.21953 21.8842 5.31182 22.0693 6.68848C22.25 8.03274 22.25 9.75468 22.25 11.9473V12.0527C22.25 14.2453 22.25 15.9673 22.0693 17.3115C21.8842 18.6882 21.4969 19.7805 20.6387 20.6387C19.7805 21.4969 18.6882 21.8842 17.3115 22.0693C15.9673 22.25 14.2453 22.25 12.0527 22.25H11.9473C9.75468 22.25 8.03274 22.25 6.68848 22.0693C5.31182 21.8842 4.21953 21.4969 3.36133 20.6387C2.50313 19.7805 2.11575 18.6882 1.93066 17.3115C1.74998 15.9673 1.74999 14.2453 1.75 12.0527V11.9473C1.74999 9.75468 1.74998 8.03274 1.93066 6.68848C2.11575 5.31182 2.50313 4.21953 3.36133 3.36133C4.21953 2.50313 5.31182 2.11575 6.68848 1.93066C8.03274 1.74998 9.75468 1.74999 11.9473 1.75H12.0527ZM16.707 6.29297C16.3165 5.90244 15.6835 5.90244 15.293 6.29297L6.29297 15.293C5.90244 15.6835 5.90244 16.3165 6.29297 16.707C6.6835 17.0975 7.31653 17.0975 7.70703 16.707L16.707 7.70703C17.0975 7.31653 17.0975 6.6835 16.707 6.29297ZM16.707 12.293C16.3165 11.9024 15.6835 11.9024 15.293 12.293L12.293 15.293C11.9024 15.6835 11.9024 16.3165 12.293 16.707C12.6835 17.0975 13.3165 17.0975 13.707 16.707L16.707 13.707C17.0975 13.3165 17.0975 12.6835 16.707 12.293Z" fill="#141B34"/>
</svg>
