<svg width="24" height="24" viewBox="0 0 24 24" fill="none" xmlns="http://www.w3.org/2000/svg">
<path d="M15.0468 6.25C15.9476 6.24998 16.6989 6.24996 17.2949 6.33008C17.9225 6.41451 18.4889 6.60031 18.9443 7.05566C19.3996 7.51102 19.5854 8.07747 19.6699 8.70508C19.75 9.30099 19.75 10.0524 19.7499 10.9531V13.7207C19.4096 13.0607 18.7533 12.5904 17.9804 12.5117L17.7499 12.5C16.5073 12.5001 15.4999 13.5074 15.4999 14.75V16.6279C14.8215 16.3889 14.0403 16.4791 13.4169 16.9375C12.4172 17.6737 12.2008 19.0828 12.9374 20.084C13.0007 20.1677 13.2133 20.448 13.3339 20.6025C13.5681 20.9025 13.8953 21.3105 14.2548 21.7246C14.5231 22.0336 14.8368 22.3766 15.1611 22.6904C14.2983 22.749 13.2705 22.75 12.0576 22.75H9.94232C8.34073 22.75 7.06215 22.75 6.05951 22.6152C5.02326 22.4759 4.17019 22.18 3.49506 21.5049C2.81993 20.8298 2.52403 19.9767 2.38471 18.9404C2.2499 17.9378 2.24992 16.6592 2.24994 15.0576V10.9531C2.24992 10.0524 2.2499 9.30099 2.33002 8.70508C2.41445 8.07747 2.60024 7.51102 3.0556 7.05566C3.51096 6.60031 4.07741 6.41451 4.70502 6.33008C5.30093 6.24996 6.0523 6.24998 6.95306 6.25H15.0468Z" fill="#141B34"/>
<path d="M13.85 9.30263C13.85 7.60378 13.4529 5.98066 12.8443 4.81373C12.2037 3.58541 11.4987 3.14474 11 3.14474C10.5012 3.14474 9.79627 3.58541 9.15563 4.81373C8.54704 5.98066 8.14997 7.60378 8.14997 9.30263C8.14997 9.82585 7.72464 10.25 7.19997 10.25C6.6753 10.25 6.24997 9.82585 6.24997 9.30263C6.24997 7.33906 6.70326 5.4095 7.46994 3.93945C8.20463 2.53078 9.40006 1.25 11 1.25C12.5999 1.25 13.7953 2.53078 14.53 3.93945C15.2967 5.4095 15.75 7.33906 15.75 9.30263C15.75 9.82585 15.3246 10.25 14.8 10.25C14.2753 10.25 13.85 9.82585 13.85 9.30263Z" fill="#141B34"/>
<path d="M17.75 13.75C17.1977 13.75 16.75 14.1977 16.75 14.75V19.6406C16.4395 19.2831 16.1084 18.8764 15.8955 18.6035C15.7895 18.4678 15.6148 18.2356 15.5556 18.1572C15.2282 17.7127 14.6019 17.6172 14.1572 17.9443C13.7126 18.2718 13.6171 18.8981 13.9443 19.3428C14.009 19.4284 14.2059 19.6887 14.3193 19.834C14.5453 20.1235 14.8576 20.5129 15.1982 20.9053C15.5345 21.2926 15.9183 21.7061 16.2851 22.0303C16.4675 22.1914 16.6698 22.3521 16.8779 22.4775C17.0585 22.5864 17.3727 22.75 17.75 22.75C18.1272 22.75 18.4414 22.5864 18.622 22.4775C18.8301 22.3521 19.0325 22.1914 19.2148 22.0303C19.5816 21.7061 19.9654 21.2926 20.3017 20.9053C20.6424 20.5129 20.9547 20.1235 21.1806 19.834C21.294 19.6887 21.491 19.4284 21.5556 19.3428C21.8828 18.8981 21.7872 18.2727 21.3427 17.9453C20.898 17.6178 20.2718 17.7135 19.9443 18.1582C19.7313 18.4311 19.0604 19.2831 18.75 19.6406V14.75C18.75 14.1977 18.3022 13.75 17.75 13.75Z" fill="#141B34"/>
</svg>
