<svg width="24" height="24" viewBox="0 0 24 24" fill="none" xmlns="http://www.w3.org/2000/svg">
<path d="M13.85 9.30257C13.85 7.60372 13.4529 5.9806 12.8443 4.81367C12.2037 3.58535 11.4987 3.14468 11 3.14468C10.5012 3.14468 9.79627 3.58535 9.15563 4.81367C8.54704 5.9806 8.14997 7.60372 8.14997 9.30257C8.14997 9.82579 7.72464 10.2499 7.19997 10.2499C6.6753 10.2499 6.24997 9.82579 6.24997 9.30257C6.24997 7.339 6.70326 5.40944 7.46994 3.93939C8.20463 2.53072 9.40006 1.24994 11 1.24994C12.5999 1.24994 13.7953 2.53072 14.53 3.93939C15.2967 5.40944 15.75 7.339 15.75 9.30257C15.75 9.82579 15.3246 10.2499 14.8 10.2499C14.2753 10.2499 13.85 9.82579 13.85 9.30257Z" fill="#141B34"/>
<path d="M21.6924 15.416C21.5079 14.8955 20.9365 14.6233 20.416 14.8076C19.5125 15.1276 18.7221 15.7414 18.0654 16.4072C17.402 17.0798 16.8241 17.8568 16.3535 18.5781C16.0779 19.0005 15.8352 19.4114 15.6289 19.7803C15.3906 19.5202 15.1566 19.3192 14.9297 19.168C14.6553 18.985 14.4041 18.8787 14.1963 18.8193C14.0932 18.7899 13.9093 18.75 13.75 18.75C13.1977 18.75 12.75 19.1977 12.75 19.75C12.75 20.2696 13.1464 20.6965 13.6533 20.7451C13.6736 20.7517 13.7321 20.7732 13.8203 20.832C14.0195 20.9649 14.4148 21.3159 14.8554 22.1973C15.0291 22.5446 15.3882 22.7602 15.7763 22.75C16.1645 22.7397 16.5119 22.5044 16.667 22.1484C16.7276 22.019 16.9062 21.6398 17.0244 21.4092C17.2614 20.9466 17.604 20.3223 18.0283 19.6719C18.4547 19.0183 18.9506 18.3576 19.4892 17.8115C20.0347 17.2586 20.5757 16.8724 21.084 16.6924C21.6044 16.5079 21.8767 15.9365 21.6924 15.416Z" fill="#141B34"/>
<path d="M15.0468 6.24974C15.9476 6.24972 16.6989 6.2497 17.2949 6.32982C17.9225 6.41425 18.4889 6.60005 18.9443 7.05541C19.3996 7.51076 19.5854 8.07721 19.6699 8.70482C19.75 9.30073 19.75 10.0521 19.7499 10.9529V13.7244C18.7115 14.1475 17.8491 14.8474 17.1757 15.53C16.4345 16.2815 15.7844 17.1636 15.2861 17.9275C15.0242 17.7858 14.7723 17.6846 14.539 17.6179C14.3831 17.5734 14.0736 17.5007 13.7499 17.5007C12.5073 17.5007 11.5 18.5081 11.4999 19.7507C11.5001 20.7983 12.2158 21.6753 13.1845 21.9265C13.2798 22.0194 13.4801 22.2492 13.7275 22.74C13.2148 22.7471 12.6588 22.7497 12.0576 22.7497H9.94232C8.34073 22.7498 7.06215 22.7498 6.05951 22.615C5.02326 22.4757 4.17019 22.1798 3.49506 21.5046C2.81993 20.8295 2.52403 19.9764 2.38471 18.9402C2.2499 17.9375 2.24992 16.659 2.24994 15.0574V10.9529C2.24992 10.0521 2.2499 9.30073 2.33002 8.70482C2.41445 8.07721 2.60024 7.51076 3.0556 7.05541C3.51096 6.60005 4.07741 6.41425 4.70502 6.32982C5.30093 6.2497 6.0523 6.24972 6.95306 6.24974H15.0468Z" fill="#141B34"/>
</svg>
