<svg width="24" height="24" viewBox="0 0 24 24" fill="none" xmlns="http://www.w3.org/2000/svg">
<path d="M2.45697 2.25L3.35736 2.25684C3.63806 2.26392 3.89752 2.27829 4.12982 2.30859C4.62306 2.37298 5.12891 2.5219 5.55658 2.91992C5.98431 3.31819 6.1691 3.81228 6.26849 4.2998C6.32535 4.57871 6.36041 4.8994 6.39056 5.25H15.5683L16.0683 5.75L15.1591 6.65918C14.2806 7.53787 14.2805 8.9622 15.1591 9.84082C16.0377 10.7194 17.4621 10.7193 18.3408 9.84082L19.2499 8.93164L20.1591 9.84082C20.8585 10.5401 21.9027 10.6805 22.7431 10.2666C22.7286 11.4323 22.6745 12.2479 22.4589 12.959C21.8045 15.1163 20.1162 16.8046 17.9589 17.459C16.9739 17.7577 15.7816 17.75 13.7314 17.75C11.7786 17.75 10.6415 17.7575 9.68451 17.4766C7.64394 16.8772 6.00474 15.3511 5.26166 13.3584C4.9421 12.5012 4.82219 11.2842 4.70306 9.62598L4.45111 6.10742C4.40199 5.41976 4.37006 5.001 4.30853 4.69922C4.25284 4.42614 4.19861 4.38779 4.19427 4.38379C4.19006 4.37987 4.14793 4.32814 3.87103 4.29199C3.71829 4.27207 3.53695 4.26134 3.30756 4.25586L2.45697 4.25H2.24994C1.69765 4.25 1.24994 3.80228 1.24994 3.25C1.24994 2.69772 1.69765 2.25 2.24994 2.25H2.45697Z" fill="#141B34"/>
<path d="M8.24994 20.25C8.24994 19.4216 8.92151 18.75 9.74994 18.75C10.5784 18.75 11.2499 19.4216 11.2499 20.25C11.2499 21.0784 10.5784 21.75 9.74994 21.75C8.92151 21.75 8.24994 21.0784 8.24994 20.25Z" fill="#141B34"/>
<path d="M16.7499 20.25C16.7499 19.4216 17.4215 18.75 18.2499 18.75C19.0784 18.75 19.7499 19.4216 19.7499 20.25C19.7499 21.0784 19.0784 21.75 18.2499 21.75C17.4215 21.75 16.7499 21.0784 16.7499 20.25Z" fill="#141B34"/>
<path d="M21.0431 2.54289C21.4336 2.15237 22.0666 2.15237 22.4571 2.54289C22.8476 2.93342 22.8476 3.56643 22.4571 3.95696L20.6642 5.74992L22.4571 7.54289C22.8476 7.93342 22.8476 8.56643 22.4571 8.95696C22.0666 9.34748 21.4336 9.34748 21.0431 8.95696L19.2501 7.16399L17.4571 8.95696C17.0666 9.34748 16.4336 9.34748 16.0431 8.95696C15.6525 8.56643 15.6525 7.93342 16.0431 7.54289L17.836 5.74992L16.0431 3.95696C15.6525 3.56643 15.6525 2.93342 16.0431 2.54289C16.4336 2.15237 17.0666 2.15237 17.4571 2.54289L19.2501 4.33586L21.0431 2.54289Z" fill="#141B34"/>
</svg>
