<svg width="24" height="24" viewBox="0 0 24 24" fill="none" xmlns="http://www.w3.org/2000/svg">
<path d="M8.24994 20.25C8.24994 19.4216 8.92151 18.75 9.74994 18.75C10.5784 18.75 11.2499 19.4216 11.2499 20.25C11.2499 21.0784 10.5784 21.75 9.74994 21.75C8.92151 21.75 8.24994 21.0784 8.24994 20.25Z" fill="#141B34"/>
<path d="M16.7499 20.25C16.7499 19.4216 17.4215 18.75 18.2499 18.75C19.0784 18.75 19.7499 19.4216 19.7499 20.25C19.7499 21.0784 19.0784 21.75 18.2499 21.75C17.4215 21.75 16.7499 21.0784 16.7499 20.25Z" fill="#141B34"/>
<path d="M2.45697 2.25L3.35736 2.25684C3.63806 2.26392 3.89752 2.27829 4.12982 2.30859C4.62306 2.37298 5.12891 2.5219 5.55658 2.91992C5.98431 3.31819 6.1691 3.81228 6.26849 4.2998C6.32535 4.57871 6.36041 4.8994 6.39056 5.25H13.0234C13.1194 6.13944 13.5057 6.89987 13.8886 7.46777C14.3422 8.14029 14.9096 8.72 15.414 9.17285C15.9267 9.63317 16.4306 10.012 16.8027 10.2734C16.8603 10.3139 17.3022 10.6624 17.7109 10.8379C18.2996 11.0907 18.9802 11.0472 19.5361 10.7109C19.6288 10.6509 19.9997 10.4122 20.1972 10.2734C20.5693 10.012 21.0731 9.63317 21.5859 9.17285C21.9602 8.83682 22.3688 8.43056 22.7402 7.96875C22.7501 8.2029 22.7499 8.46071 22.7499 8.75C22.7499 10.7885 22.7576 11.9741 22.4589 12.959C21.8045 15.1163 20.1162 16.8046 17.9589 17.459C16.9739 17.7577 15.7816 17.75 13.7314 17.75C11.7786 17.75 10.6415 17.7575 9.68451 17.4766C7.64394 16.8772 6.00474 15.3511 5.26166 13.3584C4.9421 12.5012 4.82219 11.2842 4.70306 9.62598L4.45111 6.10742C4.40199 5.41976 4.37006 5.001 4.30853 4.69922C4.25284 4.42614 4.19861 4.38779 4.19427 4.38379C4.19006 4.37987 4.14793 4.32814 3.87103 4.29199C3.71829 4.27207 3.53695 4.26134 3.30756 4.25586L2.45697 4.25H2.24994C1.69765 4.25 1.24994 3.80228 1.24994 3.25C1.24994 2.69772 1.69765 2.25 2.24994 2.25H2.45697Z" fill="#141B34"/>
<path d="M22.0752 6.76855C22.4457 6.21898 22.75 5.55431 22.75 4.83301C22.7499 3.45316 21.7225 2.25 20.25 2.25C19.6554 2.25 19.0976 2.42503 18.5 2.88281C17.9024 2.42503 17.3446 2.25 16.75 2.25C15.2775 2.25 14.2502 3.45316 14.25 4.83301C14.25 5.55431 14.5543 6.21898 14.9248 6.76855C15.2999 7.32485 15.7863 7.8277 16.249 8.24316C16.7149 8.6614 17.1771 9.00902 17.5215 9.25098C17.6944 9.37244 17.9536 9.5819 18.2041 9.68945C18.4245 9.78406 18.6799 9.7679 18.8887 9.6416L18.9048 9.63117C19.0211 9.556 19.3139 9.36664 19.4785 9.25098C19.8229 9.00902 20.2851 8.6614 20.751 8.24316C21.2138 7.8277 21.7001 7.32485 22.0752 6.76855Z" fill="#141B34"/>
</svg>
