<svg width="24" height="24" viewBox="0 0 24 24" fill="none" xmlns="http://www.w3.org/2000/svg">
<path d="M11.1527 2.25001C11.7396 2.25 12.2755 2.25058 12.7631 2.26075C12.8037 2.2539 12.8455 2.25004 12.8881 2.25001H15.1117C16.4263 2.25001 17.4866 2.24884 18.3226 2.35938C19.1805 2.47286 19.9069 2.71525 20.4974 3.27735C21.0874 3.839 21.3679 4.55358 21.5277 5.40723C21.6836 6.2401 21.7399 7.30451 21.8129 8.62598L22.1449 14.626C22.2257 16.0895 22.2915 17.2638 22.2172 18.1865C22.1411 19.1305 21.9112 19.9314 21.306 20.5752C20.7001 21.2197 19.9164 21.4969 18.9818 21.626C18.0692 21.752 16.8988 21.75 15.4427 21.75H12.557C12.5442 21.75 12.5316 21.7487 12.5189 21.7481C12.1991 21.7499 11.8626 21.75 11.5092 21.75H8.49158C7.06604 21.75 5.91769 21.75 5.01892 21.626C4.08424 21.4969 3.29963 21.2198 2.69373 20.5752C2.08873 19.9314 1.8586 19.1304 1.78259 18.1865C1.70942 17.2776 1.77279 16.1246 1.85193 14.6914L1.85583 14.626L2.18689 8.62598L2.18982 8.5752C2.26144 7.27737 2.31915 6.22933 2.47302 5.40723C2.63281 4.55354 2.91333 3.83901 3.5033 3.27735C4.09371 2.71539 4.81947 2.47288 5.67712 2.35938C6.50409 2.25 7.55108 2.24999 8.84607 2.25001H11.1527ZM16.9086 3.76466C17.2281 4.23461 17.4109 4.78323 17.5277 5.40723C17.6816 6.22921 17.7393 7.27665 17.8109 8.57423L17.8138 8.62598L18.1449 14.626L18.1488 14.6904C18.228 16.1239 18.2913 17.2774 18.2181 18.1865C18.1552 18.9682 17.9851 19.6509 17.5853 20.2285C18.0425 20.2131 18.4344 20.1869 18.7767 20.1397C19.5405 20.0342 19.9371 19.8415 20.2133 19.5479C20.49 19.2534 20.6596 18.8422 20.722 18.0664C20.7862 17.2694 20.73 16.2158 20.6469 14.709L20.3158 8.70899C20.2406 7.34692 20.1867 6.39778 20.0531 5.6836C19.9234 4.99046 19.7351 4.62322 19.4633 4.36427C19.1919 4.10601 18.819 3.93737 18.1263 3.84571C17.7808 3.80002 17.3818 3.77712 16.9086 3.76466ZM13.0004 5.25001C12.5862 5.25001 12.2504 5.58579 12.2504 6.00001C12.2504 7.24265 11.243 8.25001 10.0004 8.25001C8.75773 8.25001 7.75037 7.24265 7.75037 6.00001C7.75037 5.58579 7.41458 5.25001 7.00037 5.25001C6.58615 5.25001 6.25037 5.58579 6.25037 6.00001C6.25037 8.07108 7.9293 9.75001 10.0004 9.75001C12.0714 9.75001 13.7504 8.07108 13.7504 6.00001C13.7504 5.58579 13.4146 5.25001 13.0004 5.25001Z" fill="#141B34"/>
</svg>
