<svg width="24" height="24" viewBox="0 0 24 24" fill="none" xmlns="http://www.w3.org/2000/svg">
<path fill-rule="evenodd" clip-rule="evenodd" d="M6.12547 6C6.07261 6 6.0323 6.04674 6.03921 6.09915L7.62383 18.132C7.73665 18.9887 7.80985 19.5266 7.91921 19.9186C8.01799 20.2727 8.11539 20.3871 8.20803 20.4607C8.31178 20.5431 8.66148 20.6982 9.33067 20.821C9.95092 20.9348 10.7082 20.9973 11.4822 20.9999C12.2564 21.0026 13.0159 20.9452 13.6412 20.8329C14.3123 20.7124 14.6737 20.5546 14.7919 20.4607C14.8845 20.3871 14.9819 20.2727 15.0807 19.9186C15.19 19.5266 15.2633 18.9887 15.3761 18.132L16.9607 6.09915C16.9676 6.04674 16.9273 6 16.8744 6H6.12547ZM5.31544 4.06305C5.57368 4.01139 5.85515 4 6.12547 4H16.8744C17.1447 4 17.4262 4.01139 17.6845 4.06305C17.9448 4.11511 18.275 4.22589 18.5492 4.49755C18.8366 4.78219 18.9468 5.1272 18.9832 5.41995C19.0172 5.69389 18.994 5.97744 18.9607 6.23042L17.3504 18.458C17.2488 19.2302 17.1592 19.911 17.0071 20.4561C16.8402 21.0542 16.5698 21.6026 16.0359 22.0267C15.5054 22.4482 14.7191 22.6713 13.9947 22.8014C13.2246 22.9398 12.3408 23.0029 11.4754 22.9999C10.6097 22.9969 9.7308 22.9278 8.96971 22.7881C8.25755 22.6575 7.4807 22.4372 6.96398 22.0267C6.43005 21.6026 6.15965 21.0542 5.99277 20.4561C5.84072 19.911 5.75112 19.2302 5.6495 18.4581L4.03923 6.23042C4.00591 5.97744 3.98267 5.69389 4.01673 5.41995C4.05312 5.1272 4.16332 4.78219 4.45066 4.49755C4.72489 4.22589 5.05515 4.11511 5.31544 4.06305Z" fill="#141B34"/>
<path fill-rule="evenodd" clip-rule="evenodd" d="M14.9395 3.19445C14.9425 3.08619 15.0311 3 15.1394 3H19.0015C19.5538 3 20.0015 2.55228 20.0015 2C20.0015 1.44772 19.5538 1 19.0015 1H14.9444C13.8854 1 13.01 1.82543 12.9478 2.88256L12.9469 2.89803L12.5005 18.9722C12.4852 19.5243 12.9203 19.9843 13.4724 19.9996C14.0244 20.0149 14.4844 19.5798 14.4997 19.0278L14.9395 3.19445Z" fill="#141B34"/>
<path fill-rule="evenodd" clip-rule="evenodd" d="M6.1196 8.88935C6.62921 8.55616 7.31303 8.25 8.09133 8.25C8.57572 8.25 8.96761 8.32393 9.29675 8.47323C9.63278 8.62566 9.84564 8.8313 9.99231 8.9887C10.0465 9.04689 10.0846 9.0887 10.1127 9.11958L10.1128 9.11975C10.172 9.18476 10.1872 9.20154 10.2184 9.22267C10.2254 9.22736 10.2324 9.23141 10.2479 9.23584C10.266 9.24099 10.3079 9.25 10.3868 9.25C10.556 9.25 10.7843 9.20957 11.0951 9.12191C11.3407 9.05265 11.5994 8.96566 11.8904 8.86778C11.9669 8.84206 12.0456 8.81559 12.1269 8.78849C12.873 8.53979 13.7966 8.25 14.7504 8.25C16.4666 8.25 17.6775 9.17341 17.9371 9.38706L18.2585 9.6515L17.1048 18.4122C17.0016 19.1958 16.914 19.8612 16.7668 20.3889C16.6084 20.9565 16.3597 21.4506 15.8809 21.831C15.4019 22.2115 14.6687 22.4264 13.951 22.5554C13.199 22.6904 12.3308 22.7528 11.4767 22.7499C10.6225 22.747 9.75879 22.6787 9.01531 22.5422C8.30852 22.4125 7.58506 22.2005 7.11996 21.831C6.64119 21.4506 6.39242 20.9565 6.23405 20.3889C6.08685 19.8612 5.99925 19.1958 5.89609 18.4122L4.80859 10.1543L4.99586 9.90837C5.2135 9.62259 5.60948 9.22288 6.1196 8.88935ZM10 15C9.44772 15 9 15.4477 9 16C9 16.5523 9.44772 17 10 17H10.0089C10.5612 17 11.0089 16.5523 11.0089 16C11.0089 15.4477 10.5612 15 10.0089 15H10Z" fill="#141B34"/>
</svg>
