<svg width="24" height="24" viewBox="0 0 24 24" fill="none" xmlns="http://www.w3.org/2000/svg">
<path fill-rule="evenodd" clip-rule="evenodd" d="M20.0447 5.25C20.4776 5.24995 20.8744 5.24991 21.1972 5.29331C21.5527 5.3411 21.9284 5.45355 22.2374 5.76257C22.5465 6.07159 22.6589 6.44732 22.7067 6.8028C22.7501 7.1256 22.7501 7.5224 22.75 7.9552L22.75 14.052V14.052V14.0521C22.75 14.9505 22.7501 15.6997 22.6701 16.2945C22.5857 16.9223 22.4 17.4891 21.9445 17.9446C21.4891 18.4 20.9223 18.5857 20.2945 18.6701C19.6997 18.7501 18.9505 18.75 18.052 18.75L10 18.75L9.9973 18.75L3.47824 18.75C3.26399 18.75 3.0671 18.75 2.90179 18.7387C2.72415 18.7266 2.52881 18.699 2.33031 18.6168C1.90151 18.4392 1.56083 18.0985 1.38321 17.6697C1.30099 17.4712 1.27338 17.2759 1.26126 17.0982C1.24998 16.9329 1.24999 16.6925 1.25 16.4782V16.4782C1.24999 16.264 1.24998 16.0671 1.26126 15.9018C1.27338 15.7241 1.30099 15.5288 1.38321 15.3303C1.56083 14.9015 1.90151 14.5608 2.33031 14.3832C2.52881 14.301 2.72415 14.2734 2.90179 14.2613C3.06712 14.25 3.26397 14.25 3.47825 14.25L4.25001 14.25C4.24996 13.8172 4.24991 13.1256 4.29331 12.8028C4.3411 12.4473 4.45355 12.0716 4.76257 11.7626C5.07159 11.4535 5.44732 11.3411 5.8028 11.2933C6.12561 11.2499 6.81719 11.25 7.25001 11.25C7.24996 10.8172 7.24991 10.1256 7.29331 9.8028C7.3411 9.44732 7.45355 9.07159 7.76257 8.76257C8.07159 8.45355 8.44732 8.3411 8.8028 8.29331C9.12561 8.24991 9.81719 8.24996 10.25 8.25001C10.25 7.81719 10.2499 7.12561 10.2933 6.8028C10.3411 6.44732 10.4535 6.07159 10.7626 5.76257C11.0716 5.45355 11.4473 5.3411 11.8028 5.29331C12.1256 5.24991 12.5224 5.24995 12.9553 5.25H20.0447ZM18.25 6.75V8.25H11.75V8C11.75 7.50739 11.7516 7.21339 11.7799 7.00266C11.7775 6.93499 11.8187 6.7957 12.0027 6.77992C12.2134 6.75159 12.5074 6.75 13 6.75H18.25ZM10 9.75C9.5074 9.75 9.21339 9.75159 9.00267 9.77992C8.82746 9.79525 8.78117 9.9348 8.77993 10.0027C8.7516 10.2134 8.75001 10.5074 8.75001 11V11.25H15.25V9.75H10ZM12.25 12.75V14.25H10.0027L10 14.25L5.75001 14.25V14C5.75001 13.5074 5.7516 13.2134 5.77993 13.0027C5.78045 12.9348 5.82572 12.7953 6.00267 12.7799C6.21339 12.7516 6.5074 12.75 7.00001 12.75H12.25ZM4.99704 15.75L5.00001 15.75L9.25 15.75V17.25H3.5C3.25677 17.25 3.11191 17.2496 3.0039 17.2422C2.93707 17.2377 2.90867 17.2316 2.90131 17.2297C2.84248 17.2044 2.79558 17.1575 2.7703 17.0987C2.76844 17.0913 2.76234 17.0629 2.75778 16.9961C2.75041 16.8881 2.75 16.7432 2.75 16.5C2.75 16.2568 2.75041 16.1119 2.75778 16.0039C2.76234 15.9371 2.76844 15.9087 2.7703 15.9013C2.79558 15.8425 2.84248 15.7956 2.90131 15.7703C2.90867 15.7684 2.93707 15.7623 3.0039 15.7578C3.11191 15.7504 3.25677 15.75 3.5 15.75H4.99704Z" fill="#141B34"/>
</svg>
