<svg width="24" height="24" viewBox="0 0 24 24" fill="none" xmlns="http://www.w3.org/2000/svg">
<path d="M14.5 1.25C15.0523 1.25 15.5 1.69772 15.5 2.25C15.5 2.80228 15.0523 3.25 14.5 3.25H9.5C8.94772 3.25 8.5 2.80228 8.5 2.25C8.5 1.69772 8.94772 1.25 9.5 1.25H14.5Z" fill="#141B34"/>
<path d="M12 4.25C14.2033 4.25 16.2256 5.02159 17.8145 6.30762L18.6143 5.50879C18.9945 5.12864 19.611 5.12858 19.9912 5.50879C20.3714 5.889 20.3714 6.50549 19.9912 6.88574L19.1914 7.68457C20.478 9.27354 21.25 11.2962 21.25 13.5C21.25 18.6086 17.1086 22.75 12 22.75C6.89137 22.75 2.75 18.6086 2.75 13.5C2.75 8.39137 6.89137 4.25 12 4.25ZM16.207 9.29297C15.8409 8.92685 15.2619 8.90426 14.8691 9.22461L14.793 9.29297L11.293 12.793C10.9026 13.1835 10.9025 13.8165 11.293 14.207C11.6835 14.5974 12.3165 14.5974 12.707 14.207L16.207 10.707L16.2754 10.6309C16.5957 10.2381 16.573 9.65909 16.207 9.29297Z" fill="#141B34"/>
</svg>
