<svg width="24" height="24" viewBox="0 0 24 24" fill="none" xmlns="http://www.w3.org/2000/svg">
<path d="M19.1752 2.65703C18.3377 2.23186 17.3723 2.25097 15.9555 2.25078L8.04632 2.2498C6.62906 2.24961 5.66343 2.23088 4.82561 2.65605C3.98804 3.08128 3.43359 3.87162 2.5971 5.01542L2.2094 5.54472L2.20061 5.55839C1.82806 6.09143 1.45971 6.75954 1.31487 7.45976C1.16552 8.18184 1.24684 9.00163 1.87151 9.67167C2.4917 10.3367 3.38967 10.7498 4.37933 10.7498C5.41729 10.7498 6.36285 10.2904 6.98675 9.55937C7.58278 10.2858 8.48741 10.7498 9.50042 10.7498C10.506 10.7498 11.4043 10.2922 12.0004 9.575C12.5966 10.2922 13.4949 10.7498 14.5004 10.7498C15.513 10.7498 16.417 10.2862 17.0131 9.56035C17.637 10.2919 18.5831 10.7518 19.6215 10.7518C20.6112 10.7517 21.5091 10.3387 22.1293 9.67363C22.754 9.00358 22.8343 8.1838 22.685 7.46171C22.5401 6.76153 22.1728 6.09335 21.8002 5.56035L21.7914 5.54667L21.4028 5.0164C20.5665 3.87285 20.0127 3.08218 19.1752 2.65703Z" fill="#141B34"/>
<path d="M19.2507 17.2494C19.2507 17.0632 19.2006 16.8919 19.114 16.7445C18.9388 16.4462 18.6172 16.2494 18.2507 16.2494C17.8851 16.2494 17.564 16.4455 17.3884 16.7426C17.3011 16.8904 17.2507 17.0624 17.2507 17.2494C17.2507 17.4343 17.3 17.6046 17.3855 17.7513C17.5385 18.0137 17.8045 18.1986 18.115 18.2406L18.2507 18.2494L18.3865 18.2406C18.6977 18.1984 18.9642 18.0129 19.1169 17.7494C19.2017 17.6032 19.2507 17.4335 19.2507 17.2494ZM21.2507 17.2494C21.2507 17.4384 21.2316 17.6233 21.198 17.8031L21.7546 18.1283C22.2315 18.4068 22.3923 19.0186 22.114 19.4955C21.8355 19.9723 21.2237 20.1332 20.7468 19.8549L20.1941 19.5326C19.9166 19.769 19.5962 19.957 19.2449 20.0804V20.7494C19.2449 21.3016 18.7971 21.7493 18.2449 21.7494C17.6926 21.7494 17.2449 21.3017 17.2449 20.7494V20.0756C16.8995 19.9526 16.5839 19.768 16.3103 19.5355L15.7546 19.8607C15.2777 20.1391 14.6659 19.9782 14.3874 19.5013C14.1091 19.0245 14.27 18.4126 14.7468 18.1342L15.3035 17.808C15.2692 17.6267 15.2507 17.44 15.2507 17.2494C15.2507 17.054 15.2695 16.8626 15.3054 16.6771L14.7537 16.3549C14.2768 16.0764 14.1159 15.4646 14.3943 14.9877C14.6728 14.5108 15.2846 14.3499 15.7615 14.6283L16.3201 14.9545C16.5914 14.726 16.9037 14.5447 17.2449 14.4232V13.7494C17.2449 13.1971 17.6926 12.7494 18.2449 12.7494C18.7971 12.7494 19.2449 13.1971 19.2449 13.7494V14.4174C19.5921 14.5393 19.909 14.725 20.1843 14.9574L20.739 14.6342C21.2159 14.3556 21.8287 14.5166 22.1072 14.9935C22.3855 15.4704 22.2246 16.0822 21.7478 16.3607L21.1951 16.683C21.2303 16.8668 21.2507 17.0559 21.2507 17.2494Z" fill="#141B34"/>
<path d="M6.97418 10.9174C7.67982 11.44 8.55402 11.7513 9.50055 11.7513C10.4359 11.7512 11.2997 11.4462 12.0006 10.9349C12.7014 11.4462 13.5652 11.7513 14.5006 11.7513C15.4462 11.7512 16.3189 11.4399 17.024 10.9183C17.3674 11.1651 17.7485 11.3618 18.1548 11.5033C17.0791 11.5458 16.1988 12.3418 16.0269 13.3793C15.0236 13.0125 13.8715 13.4024 13.314 14.3568C12.7451 15.3317 12.9944 16.5557 13.8482 17.2416C12.9889 17.9263 12.7369 19.1547 13.3072 20.1322C13.8656 21.0882 15.0204 21.477 16.025 21.1068C16.0606 21.33 16.131 21.5415 16.2271 21.7377C15.7233 21.7478 15.1702 21.7504 14.565 21.7504H9.4361C8.07334 21.7504 6.97375 21.7504 6.10895 21.6342C5.20904 21.5131 4.45102 21.2535 3.84918 20.6517C3.24737 20.0498 2.98777 19.292 2.86676 18.392C2.7505 17.5271 2.75052 16.4279 2.75055 15.0648V11.4447C3.25643 11.6423 3.80688 11.7513 4.37946 11.7513C5.33984 11.7513 6.2414 11.4433 6.97418 10.9174Z" fill="#141B34"/>
</svg>
