<svg width="24" height="24" viewBox="0 0 24 24" fill="none" xmlns="http://www.w3.org/2000/svg">
<path fill-rule="evenodd" clip-rule="evenodd" d="M10.0319 5.25004C9.84827 5.91953 9.74991 6.62691 9.74991 7.3584C9.74991 10.2133 11.2483 12.701 13.4648 14.0026C12.7619 14.4748 11.9128 14.75 11.0006 14.75C10.0334 14.75 9.13703 14.4406 8.41065 13.915C7.68474 14.4403 6.78832 14.75 5.82075 14.75C5.24693 14.75 4.65651 14.6381 4.09487 14.4338L4.09487 16.7016C4.09487 17.9296 4.09698 18.7533 4.18212 19.3675C4.26327 19.953 4.40322 20.2035 4.57482 20.37C4.7481 20.538 5.01137 20.676 5.62076 20.7555C6.2569 20.8384 7.109 20.8404 8.37399 20.8404L13.6256 20.8404C14.8906 20.8404 15.7427 20.8384 16.3789 20.7555C16.9883 20.676 17.2515 20.538 17.4248 20.37C17.5964 20.2035 17.7364 19.953 17.8175 19.3675C17.9026 18.7533 17.9048 17.9296 17.9048 16.7016V14.9081C18.5871 14.819 19.24 14.6303 19.8498 14.3564V16.7685C19.8498 17.9121 19.8499 18.8669 19.7448 19.6251C19.6337 20.4268 19.3891 21.1495 18.7916 21.7291C18.1958 22.307 17.4556 22.542 16.6349 22.6491C15.8556 22.7507 14.8733 22.7507 13.6925 22.7506L8.30711 22.7506C7.12628 22.7507 6.14402 22.7507 5.36473 22.6491C4.54403 22.542 3.80384 22.307 3.20803 21.7291C2.61055 21.1495 2.36596 20.4268 2.25484 19.6251C2.14974 18.8669 2.14977 17.9121 2.14981 16.7685V16.7685L2.14981 13.3056C2.14981 13.2753 2.15126 13.2452 2.15408 13.2156C1.99568 13.057 1.85032 12.8885 1.7206 12.7111C1.64588 12.6091 1.54331 12.4692 1.46101 12.2863C1.37304 12.0909 1.3222 11.882 1.28303 11.6341C1.18657 11.0236 1.31965 10.616 1.47764 10.1321L2.12016 8.16053L2.12016 8.16053L2.12017 8.16052C2.30069 7.60651 2.45512 7.13257 2.62516 6.7587C2.80664 6.35969 3.03575 6.00374 3.4045 5.73189C3.77467 5.459 4.1814 5.34757 4.61431 5.29701C5.01728 5.24996 5.50788 5.24998 6.0772 5.25H6.07724H6.07728H6.07732L10.0319 5.25004Z" fill="#141B34"/>
<path fill-rule="evenodd" clip-rule="evenodd" d="M16.9999 1.25C13.8243 1.25 11.2499 3.82436 11.2499 7C11.2499 10.1756 13.8243 12.75 16.9999 12.75C20.1755 12.75 22.7499 10.1756 22.7499 7C22.7499 3.82436 20.1755 1.25 16.9999 1.25ZM19.2503 6.20717C19.6407 6.06889 19.8452 5.64027 19.7069 5.24982C19.5686 4.85937 19.14 4.65495 18.7495 4.79323C18.2674 4.96399 17.8198 5.28384 17.4411 5.61601C17.0545 5.955 16.6962 6.34574 16.3946 6.70726C16.2484 6.88246 16.1134 7.05341 15.9928 7.21192C15.9045 7.12935 15.8161 7.05964 15.7284 7.00117C15.5695 6.89522 15.4204 6.83142 15.2919 6.79469C15.2281 6.77648 15.1051 6.74377 14.9999 6.7502C14.5857 6.7502 14.2499 7.08599 14.2499 7.5002C14.2499 7.87492 14.5247 8.18546 14.8838 8.24127C14.9395 8.2784 15.1236 8.42459 15.3291 8.83561C15.45 9.07738 15.6916 9.2354 15.9616 9.24922C16.2314 9.26304 16.4882 9.13018 16.6331 8.90213C16.7959 8.67148 17.2759 7.9924 17.5464 7.66815C17.8184 7.34217 18.1218 7.01416 18.4301 6.74377C18.7462 6.46657 19.0265 6.28642 19.2503 6.20717Z" fill="#141B34"/>
</svg>
