<svg width="24" height="24" viewBox="0 0 24 24" fill="none" xmlns="http://www.w3.org/2000/svg">
<path fill-rule="evenodd" clip-rule="evenodd" d="M11.9999 1.74994C6.36017 1.74994 1.74579 6.15871 1.27346 11.4648C1.20678 12.214 1.24353 13.0797 1.89598 13.667C2.20933 13.9491 2.58236 14.0872 2.92979 14.1594C3.27254 14.2308 3.64957 14.2499 4.03095 14.2499H19.9688C20.3502 14.2499 20.7272 14.2308 21.07 14.1594C21.4174 14.0872 21.7904 13.9491 22.1038 13.667C22.7562 13.0797 22.793 12.214 22.7263 11.4648C22.254 6.15871 17.6396 1.74994 11.9999 1.74994ZM3.41264 12.2893C3.33679 12.2728 3.29886 12.2646 3.2549 12.212C3.21093 12.1594 3.2094 12.1173 3.20634 12.033C3.2027 11.9331 3.20581 11.8023 3.2209 11.6327C3.35707 10.103 3.91582 8.66453 4.78282 7.44242C4.9358 7.22678 5.0123 7.11896 5.12786 7.13036C5.24342 7.14175 5.29679 7.26113 5.40353 7.49988C6.03229 8.90623 6.17491 10.5342 5.78087 12.0433C5.74602 12.1768 5.72859 12.2435 5.67458 12.2853C5.62057 12.327 5.54873 12.327 5.40506 12.327H4.03133C3.79087 12.327 3.58602 12.327 3.41264 12.2893ZM20.7924 12.0715C20.7887 12.1353 20.7868 12.1672 20.7445 12.2179C20.7021 12.2686 20.6775 12.2745 20.6283 12.2864C20.4602 12.327 20.2157 12.327 19.9692 12.327H18.5958C18.4521 12.327 18.3803 12.327 18.3263 12.2853C18.2723 12.2435 18.2548 12.1768 18.22 12.0433C17.826 10.5343 17.9685 8.90647 18.5972 7.50019C18.7039 7.26141 18.7573 7.14202 18.8729 7.13063C18.9884 7.11923 19.0649 7.22706 19.2179 7.44272C20.0848 8.66477 20.6434 10.1031 20.7796 11.6327C20.7967 11.825 20.7984 11.9674 20.7924 12.0715Z" fill="#141B34"/>
<path fill-rule="evenodd" clip-rule="evenodd" d="M10.5477 16.9571C9.73356 15.9232 8.32723 15.423 6.95496 15.9714C6.77256 16.0443 6.26431 16.2123 6.01899 16.293C5.65758 16.4144 5.2467 16.5614 4.86279 16.7537C4.3534 17.0088 3.79102 17.3981 3.48327 18L2 18C1.44772 18 1 18.4477 1 19C1 19.5523 1.44772 20 2 20H3.48422C3.79218 20.6008 4.35392 20.9896 4.86279 21.2444C5.2467 21.4367 5.65758 21.5837 6.01899 21.7051C6.26431 21.7858 6.77256 21.9538 6.95497 22.0267C9.00944 22.8477 11.1403 21.3186 11.2459 19.1664C11.3035 19.1019 11.3535 19.0288 11.3941 18.9478C11.5564 18.6239 11.8048 18.5 12 18.5C12.1952 18.5 12.4436 18.6239 12.6059 18.9478C12.6465 19.0288 12.6965 19.1019 12.7541 19.1664C12.8597 21.3186 14.9906 22.8477 17.045 22.0267C17.2274 21.9538 17.7357 21.7858 17.981 21.7051C18.3424 21.5837 18.7533 21.4367 19.1372 21.2444C19.6461 20.9896 20.2078 20.6008 20.5158 20H22C22.5523 20 23 19.5523 23 19C23 18.4477 22.5523 18 22 18L20.5167 18C20.209 17.3981 19.6466 17.0088 19.1372 16.7537C18.7533 16.5614 18.3424 16.4144 17.981 16.293C17.7357 16.2123 17.2274 16.0443 17.045 15.9714C15.6728 15.423 14.2664 15.9232 13.4523 16.9571C13.0419 16.6733 12.5484 16.5 12 16.5C11.4516 16.5 10.9581 16.6733 10.5477 16.9571Z" fill="#141B34"/>
</svg>
