<svg width="24" height="24" viewBox="0 0 24 24" fill="none" xmlns="http://www.w3.org/2000/svg">
<path d="M4.19432 12.25C3.67272 12.25 3.24988 12.6728 3.24988 13.1944C3.24988 13.716 3.67272 14.1389 4.19432 14.1389H4.73414C4.98462 14.1389 5.22485 14.2384 5.40196 14.4155L6.786 15.7995L3.97367 18.6119C3.63294 18.4325 3.26782 18.3152 2.89567 18.2604C2.34928 18.18 1.84112 18.5577 1.76068 19.1041C1.68023 19.6505 2.05796 20.1586 2.60435 20.2391C2.88587 20.2805 3.15569 20.4088 3.37332 20.6264C3.59095 20.8441 3.71923 21.1139 3.76068 21.3954C3.84112 21.9418 4.34928 22.3195 4.89567 22.2391C5.44207 22.1586 5.81979 21.6505 5.73935 21.1041C5.68455 20.7319 5.56727 20.3668 5.38788 20.0261L8.20022 17.2138L9.58437 18.5979C9.76149 18.775 9.86099 19.0153 9.86099 19.2657V19.8056C9.86099 20.3272 10.2838 20.75 10.8054 20.75C11.327 20.75 11.7499 20.3272 11.7499 19.8056V19.2657C11.7499 18.5143 11.4514 17.7936 10.92 17.2623L6.73761 13.0799C6.20626 12.5485 5.48559 12.25 4.73414 12.25H4.19432Z" fill="#141B34"/>
<path d="M22.0302 1.96968C22.2131 2.15254 22.2888 2.41669 22.2307 2.66866L21.2233 7.03375C21.0924 7.60108 20.7848 8.11221 20.3448 8.49353C20.3362 8.50099 20.3275 8.50825 20.3185 8.51531L9.46477 17.0886C9.16627 17.3243 8.73853 17.2993 8.46955 17.0303L6.96955 15.5303C6.70058 15.2614 6.67556 14.8336 6.91134 14.5351L15.4846 3.68138C15.4916 3.67245 15.4989 3.66367 15.5064 3.65507C15.8877 3.21508 16.3988 2.90747 16.9661 2.77655L21.3312 1.76922C21.5832 1.71107 21.8474 1.78683 22.0302 1.96968Z" fill="#141B34"/>
</svg>
