<svg width="24" height="24" viewBox="0 0 24 24" fill="none" xmlns="http://www.w3.org/2000/svg">
<path fill-rule="evenodd" clip-rule="evenodd" d="M19.4595 1.57208C20.2082 1.74402 20.9664 2.0252 21.4706 2.5294C21.9748 3.0336 22.256 3.79184 22.4279 4.54046C22.6055 5.3138 22.6927 6.19907 22.7288 7.06907C22.8011 8.81159 22.6717 10.5921 22.5881 11.5022C22.5359 12.0702 22.3036 12.5946 21.9407 13.0168C19.2314 16.1691 16.4229 19.0388 13.3564 21.7845C11.9533 23.0408 9.85831 23.0541 8.39718 21.9228C5.9875 20.0571 3.94289 18.0125 2.07715 15.6028C0.94585 14.1417 0.959175 12.0467 2.21549 10.6436C4.96116 7.57712 7.83088 4.76863 10.9832 2.05931C11.4054 1.69644 11.9298 1.46409 12.4978 1.4119C13.4079 1.32827 15.1884 1.19887 16.9309 1.27116C17.8009 1.30726 18.6862 1.39446 19.4595 1.57208ZM19.0001 6.5C19.0001 5.67157 18.3285 5 17.5001 5C16.6716 5 16.0001 5.67157 16.0001 6.5C16.0001 7.32843 16.6716 8 17.5001 8C18.3285 8 19.0001 7.32843 19.0001 6.5ZM7.70717 13.2929C7.31664 12.9024 6.68348 12.9024 6.29295 13.2929C5.90243 13.6834 5.90243 14.3166 6.29295 14.7071L9.29295 17.7071C9.68348 18.0976 10.3166 18.0976 10.7072 17.7071C11.0977 17.3166 11.0977 16.6834 10.7072 16.2929L7.70717 13.2929Z" fill="#141B34"/>
</svg>
