<svg width="24" height="24" viewBox="0 0 24 24" fill="none" xmlns="http://www.w3.org/2000/svg">
<path fill-rule="evenodd" clip-rule="evenodd" d="M8.11815 14.6687C8.3034 15.0391 8.15323 15.4896 7.78274 15.6749L4.29901 17.4168C3.65597 17.7383 3.24968 17.9436 2.98351 18.1293C2.86135 18.2146 2.72829 18.2834 2.78463 18.4385C2.85637 18.6359 3.05336 18.9698 3.32486 19.3169C3.39753 19.4098 3.53492 19.4157 3.618 19.3319L4.58735 18.3552C4.87913 18.0611 5.354 18.0593 5.648 18.3511C5.94201 18.6429 5.94382 19.1178 5.65205 19.4118L4.67443 20.3969C4.59198 20.4799 4.59799 20.616 4.68997 20.6884C5.02846 20.9549 5.35408 21.1474 5.55021 21.2183C5.7143 21.2775 5.78265 21.1503 5.87384 21.0196C6.05958 20.7535 6.26488 20.3472 6.5864 19.7041L8.32827 16.2204C8.51351 15.8499 8.96402 15.6998 9.3345 15.885C9.70498 16.0702 9.85515 16.5208 9.66991 16.8912L7.92804 20.375C7.62821 20.9746 7.3675 21.5004 7.10395 21.878C6.83031 22.2702 6.46029 22.6415 5.89088 22.7339C5.32811 22.8252 4.76725 22.5491 4.30611 22.2555C3.2982 21.6138 2.38029 20.6862 1.74275 19.676C1.45552 19.2209 1.17928 18.6668 1.26926 18.1123C1.36166 17.5429 1.73298 17.1729 2.12512 16.8992C2.5028 16.6357 3.02852 16.3749 3.62819 16.0751L7.11192 14.3333C7.48241 14.148 7.93291 14.2982 8.11815 14.6687Z" fill="#141B34"/>
<path fill-rule="evenodd" clip-rule="evenodd" d="M13.9977 1.25391C12.6366 1.25391 11.5333 2.3573 11.5333 3.71834C11.5333 3.86271 11.5457 4.00418 11.5695 4.14175C11.4891 4.02753 11.3977 3.91862 11.2956 3.81644C10.3332 2.85401 8.77283 2.85401 7.81044 3.81644C6.84807 4.77886 6.84807 6.33923 7.81044 7.30165C7.91286 7.40407 8.02205 7.49559 8.13657 7.57622C7.99876 7.55231 7.85703 7.53984 7.71239 7.53984C6.35134 7.53984 5.24805 8.64324 5.24805 10.0043C5.24805 11.3653 6.35134 12.4687 7.71239 12.4687C7.85679 12.4687 7.99829 12.4563 8.13588 12.4325C8.02161 12.513 7.91265 12.6043 7.81044 12.7065C6.84807 13.6689 6.84807 15.2293 7.81044 16.1917C8.77283 17.1542 10.3332 17.1542 11.2956 16.1917C11.3977 16.0896 11.489 15.9807 11.5695 15.8665C11.5457 16.004 11.5333 16.1453 11.5333 16.2895C11.5333 17.6505 12.6366 18.7539 13.9977 18.7539C15.3587 18.7539 16.462 17.6505 16.462 16.2895C16.462 16.145 16.4496 16.0035 16.4257 15.8659C16.5063 15.9803 16.5978 16.0894 16.7001 16.1917C17.6625 17.1542 19.2228 17.1542 20.1852 16.1917C21.1476 15.2293 21.1476 13.6689 20.1852 12.7065C20.0825 12.6038 19.973 12.5121 19.8582 12.4313C19.9964 12.4554 20.1386 12.4679 20.2837 12.4679C21.6448 12.4679 22.748 11.3645 22.748 10.0035C22.748 8.64245 21.6448 7.53905 20.2837 7.53905C20.1394 7.53905 19.998 7.55146 19.8604 7.57527C19.9745 7.49487 20.0832 7.40367 20.1852 7.30165C21.1476 6.33923 21.1476 4.77886 20.1852 3.81644C19.2228 2.85401 17.6625 2.85401 16.7001 3.81644C16.5977 3.91882 16.5062 4.02797 16.4256 4.14244C16.4495 4.00466 16.462 3.86295 16.462 3.71834C16.462 2.3573 15.3587 1.25391 13.9977 1.25391ZM11.2965 7.30182C11.886 6.71228 12.1144 5.89837 11.9817 5.13497C12.4276 5.76879 13.1647 6.18294 13.9986 6.18294C14.8327 6.18294 15.5701 5.76849 16.0159 5.13428C15.883 5.89788 16.1113 6.7121 16.701 7.30182C17.2905 7.89134 18.1043 8.11976 18.8677 7.98709C18.2342 8.43308 17.8203 9.17004 17.8203 10.0037C17.8203 10.8383 18.2352 11.576 18.8699 12.0218C18.1059 11.8883 17.2911 12.1166 16.701 12.7067C16.1114 13.2963 15.8831 14.1103 16.0158 14.8738C15.57 14.2396 14.8327 13.8252 13.9986 13.8252C13.1648 13.8252 12.4277 14.2393 11.9818 14.8731C12.1143 14.1098 11.8859 13.2961 11.2965 12.7067C10.7069 12.1171 9.89301 11.8887 9.1296 12.0215C9.76347 11.5755 10.1776 10.8384 10.1776 10.0044C10.1776 9.17024 9.76317 8.43282 9.12891 7.98693C9.89252 8.11994 10.7068 7.89157 11.2965 7.30182Z" fill="#141B34"/>
</svg>
