<svg width="24" height="24" viewBox="0 0 24 24" fill="none" xmlns="http://www.w3.org/2000/svg">
<path d="M16.25 1.27628C16.6686 1.29306 17.0485 1.32098 17.3916 1.3671C18.2917 1.48811 19.0494 1.7476 19.6514 2.34952C20.2533 2.95143 20.5128 3.70918 20.6338 4.60928C20.7501 5.4742 20.75 6.57337 20.75 7.93643L20.75 16.0653C20.75 17.4284 20.7501 18.5276 20.6338 19.3925C20.5128 20.2926 20.2533 21.0503 19.6514 21.6523C19.0494 22.2542 18.2917 22.5137 17.3916 22.6347C16.5267 22.7509 15.4275 22.7509 14.0645 22.7509L9.93555 22.7509C8.57249 22.7509 7.47331 22.7509 6.6084 22.6347C5.70829 22.5137 4.95055 22.2542 4.34863 21.6523C3.74672 21.0503 3.48723 20.2926 3.36621 19.3925C3.24995 18.5276 3.24997 17.4284 3.25 16.0653L3.25 7.93643C3.24997 6.57337 3.24995 5.4742 3.36621 4.60928C3.48723 3.70918 3.74672 2.95143 4.34863 2.34952C4.95055 1.7476 5.70829 1.48811 6.6084 1.3671C6.95146 1.32098 7.33138 1.29306 7.75 1.27628V2.00089C7.75 2.68679 7.74833 3.27692 7.81152 3.74698C7.87764 4.23853 8.027 4.70952 8.40918 5.09171C8.79136 5.47389 9.26236 5.62325 9.75391 5.68936C10.224 5.75256 10.8141 5.75089 11.5 5.75089L12.5 5.75089C13.1859 5.75089 13.776 5.75256 14.2461 5.68936C14.7376 5.62325 15.2086 5.47389 15.5908 5.09171C15.973 4.70952 16.1224 4.23853 16.1885 3.74698C16.2517 3.27692 16.25 2.68679 16.25 2.00089V1.27628ZM8 14.2509C7.58579 14.2509 7.25 14.5867 7.25 15.0009C7.25 15.4151 7.58579 15.7509 8 15.7509H12C12.4142 15.7509 12.75 15.4151 12.75 15.0009C12.75 14.5867 12.4142 14.2509 12 14.2509H8ZM8 10.2509C7.58579 10.2509 7.25 10.5867 7.25 11.0009C7.25 11.4151 7.58579 11.7509 8 11.7509L16 11.7509C16.4142 11.7509 16.75 11.4151 16.75 11.0009C16.75 10.5867 16.4142 10.2509 16 10.2509L8 10.2509ZM14.75 1.25186V2.00089C14.75 2.72911 14.7488 3.19992 14.7021 3.54678C14.6584 3.87209 14.5874 3.97407 14.5303 4.03116C14.4732 4.08825 14.3712 4.1593 14.0459 4.20303C13.699 4.24965 13.2282 4.25089 12.5 4.25089H11.5C10.7718 4.25089 10.301 4.24965 9.9541 4.20303C9.6288 4.1593 9.52682 4.08825 9.46973 4.03116C9.41263 3.97406 9.34159 3.87208 9.29785 3.54678C9.25123 3.19992 9.25 2.72911 9.25 2.00089V1.25186C9.47068 1.25126 9.69915 1.25088 9.93555 1.25089L14.0645 1.25089C14.3009 1.25088 14.5293 1.25126 14.75 1.25186Z" fill="#141B34"/>
</svg>
