<svg width="24" height="24" viewBox="0 0 24 24" fill="none" xmlns="http://www.w3.org/2000/svg">
<path d="M20.2501 14.7501V10.7501C20.2501 8.83625 20.2478 7.50141 20.1124 6.49428C19.9808 5.51594 19.7402 4.99806 19.3712 4.62905C19.0021 4.26003 18.4843 4.01937 17.5059 3.88783C16.4988 3.75243 15.164 3.75014 13.2501 3.75014H10.7501C8.83617 3.75014 7.50134 3.75243 6.4942 3.88783C5.51586 4.01937 4.99798 4.26003 4.62897 4.62905C4.25996 4.99806 4.0193 5.51594 3.88776 6.49428C3.75235 7.50141 3.75006 8.83625 3.75006 10.7501V14.7501C3.75006 15.3024 3.30235 15.7501 2.75006 15.7501C2.19778 15.7501 1.75006 15.3024 1.75006 14.7501V10.7501C1.75006 8.89279 1.74785 7.39906 1.90534 6.22768C2.0667 5.02758 2.41238 4.01751 3.21491 3.21498C4.01744 2.41245 5.02751 2.06677 6.2276 1.90541C7.39898 1.74792 8.89271 1.75014 10.7501 1.75014H13.2501C15.1074 1.75014 16.6011 1.74792 17.7725 1.90541C18.9726 2.06677 19.9827 2.41245 20.7852 3.21498C21.5877 4.01751 21.9334 5.02758 22.0948 6.22768C22.2523 7.39906 22.2501 8.89279 22.2501 10.7501V14.7501C22.2501 15.3024 21.8023 15.7501 21.2501 15.7501C20.6978 15.7501 20.2501 15.3024 20.2501 14.7501Z" fill="#141B34"/>
<path d="M14.0313 5.75014C15.6419 5.75013 16.917 5.75014 17.9249 5.86928C18.9558 5.99115 19.8048 6.24646 20.5137 6.82826C20.7541 7.02558 20.9746 7.24606 21.1719 7.48647C21.7537 8.19539 22.0091 9.04441 22.1309 10.0753C22.2501 11.0832 22.2501 12.3583 22.2501 13.9689V14.0314C22.2501 15.642 22.2501 16.917 22.1309 17.9249C22.0091 18.9559 21.7537 19.8049 21.1719 20.5138C20.9746 20.7542 20.7541 20.9747 20.5137 21.172C19.8048 21.7538 18.9558 22.0091 17.9249 22.131C16.917 22.2501 15.6419 22.2501 14.0313 22.2501H9.96881C8.35821 22.2501 7.08316 22.2501 6.07526 22.131C5.04433 22.0091 4.19531 21.7538 3.48639 21.172C3.24598 20.9747 3.0255 20.7542 2.82819 20.5138C2.24639 19.8049 1.99107 18.9559 1.8692 17.9249C1.75006 16.917 1.75006 15.642 1.75006 14.0314V13.9689C1.75006 12.3583 1.75006 11.0832 1.8692 10.0753C1.99107 9.04441 2.24639 8.19539 2.82819 7.48647C3.0255 7.24606 3.24598 7.02558 3.48639 6.82826C4.19531 6.24646 5.04433 5.99115 6.07526 5.86928C7.08316 5.75014 8.35821 5.75013 9.96881 5.75014H14.0313ZM12.0001 9.50014C11.6228 9.50013 11.3087 9.66369 11.128 9.7726C10.9199 9.89805 10.7176 10.0587 10.5352 10.2199C10.1684 10.5441 9.78462 10.9575 9.4483 11.3449C9.10767 11.7372 8.79536 12.1266 8.5694 12.4162C8.456 12.5615 8.25907 12.8217 8.1944 12.9074C7.86722 13.352 7.96271 13.9784 8.40729 14.3058C8.85196 14.633 9.47831 14.5375 9.80573 14.0929C9.86495 14.0145 10.0396 13.7824 10.1456 13.6466C10.3585 13.3737 10.6896 12.967 11.0001 12.6095V17.5001C11.0001 18.0524 11.4478 18.5001 12.0001 18.5001C12.5523 18.5001 13.0001 18.0524 13.0001 17.5001V12.6095C13.3105 12.967 13.6416 13.3738 13.8546 13.6466C13.9605 13.7824 14.1352 14.0135 14.1944 14.0919C14.5219 14.5366 15.1481 14.6323 15.5928 14.3048C16.0373 13.9774 16.1329 13.352 15.8057 12.9074C15.7411 12.8218 15.5441 12.5615 15.4307 12.4162C15.2048 12.1266 14.8925 11.7372 14.5518 11.3449C14.2155 10.9575 13.8317 10.5441 13.4649 10.2199C13.2826 10.0588 13.0802 9.89805 12.8721 9.7726C12.6915 9.6637 12.3773 9.50015 12.0001 9.50014Z" fill="#141B34"/>
</svg>
