<svg width="24" height="24" viewBox="0 0 24 24" fill="none" xmlns="http://www.w3.org/2000/svg">
<path d="M5.37838 14.3122C6.86073 13.6364 8.62121 13.25 10.4998 13.25C12.3784 13.25 14.1389 13.6364 15.6212 14.3122C17.0994 14.986 17.7498 16.5343 17.7498 17.9704C17.7498 18.4032 17.7499 18.8744 17.7065 19.1972C17.6587 19.5527 17.5463 19.9284 17.2372 20.2374C16.9282 20.5465 16.5525 20.6589 16.197 20.7067C15.8742 20.7501 15.4774 20.7501 15.0445 20.75H15.0445H5.95505H5.95504C5.52222 20.7501 5.1254 20.7501 4.80259 20.7067C4.44711 20.6589 4.07138 20.5465 3.76236 20.2374C3.45333 19.9284 3.34089 19.5527 3.29309 19.1972C3.24969 18.8744 3.24974 18.4032 3.24979 17.9704C3.24979 16.5343 3.90018 14.986 5.37838 14.3122Z" fill="#141B34"/>
<path d="M6.24979 7.5C6.24979 5.15279 8.15258 3.25 10.4998 3.25C12.847 3.25 14.7498 5.15279 14.7498 7.5C14.7498 9.84721 12.847 11.75 10.4998 11.75C8.15258 11.75 6.24979 9.84721 6.24979 7.5Z" fill="#141B34"/>
<path d="M18.4333 20.7493C18.7711 20.265 18.8936 19.754 18.9462 19.3631C19.001 18.9553 19.0008 18.4148 19.0006 18.0198L19.0006 17.9695C19.0006 16.3515 18.321 14.4388 16.5994 13.4141C17.6878 13.5879 18.7079 13.8947 19.6222 14.3115C21.1004 14.9853 21.7508 16.5336 21.7508 17.9697C21.7509 18.4025 21.7509 18.8737 21.7075 19.1965C21.6597 19.552 21.5473 19.9277 21.2383 20.2367C20.9292 20.5458 20.5535 20.6582 20.198 20.706C19.8752 20.7494 19.4784 20.7494 19.0456 20.7493H18.4333Z" fill="#141B34"/>
<path d="M14.023 11.7235C15.2312 10.7146 15.9998 9.19708 15.9998 7.5C15.9998 5.80292 15.2312 4.28537 14.023 3.27647C14.1796 3.25898 14.3388 3.25 14.5 3.25C16.8472 3.25 18.75 5.15279 18.75 7.5C18.75 9.84721 16.8472 11.75 14.5 11.75C14.3388 11.75 14.1796 11.741 14.023 11.7235Z" fill="#141B34"/>
</svg>
