<svg width="24" height="24" viewBox="0 0 24 24" fill="none" xmlns="http://www.w3.org/2000/svg">
<path fill-rule="evenodd" clip-rule="evenodd" d="M10.2451 12.9495C6.81022 13.7447 4.25 16.8234 4.25 20.5C4.25 20.9142 4.58579 21.25 5 21.25L19 21.25C19.4142 21.25 19.75 20.9142 19.75 20.5C19.75 16.8234 17.1898 13.7447 13.7549 12.9495C15.7914 12.2274 17.25 10.2841 17.25 8C17.25 5.10051 14.8995 2.75 12 2.75C9.1005 2.75 6.75 5.10051 6.75 8C6.75 10.2841 8.20857 12.2274 10.2451 12.9495Z" fill="#141B34"/>
<path d="M18.4861 5.35474C18.8425 4.93283 19.4734 4.8797 19.8953 5.23608L21.3287 6.44684C21.661 6.72738 21.9835 6.99969 22.2146 7.25555C22.468 7.53601 22.75 7.94342 22.75 8.50002C22.75 9.05663 22.468 9.46403 22.2146 9.74449C21.9835 10.0004 21.661 10.2727 21.3287 10.5532L19.8953 11.764C19.4734 12.1203 18.8425 12.0672 18.4861 11.6453C18.1297 11.2234 18.1828 10.5925 18.6048 10.2361L20.6373 8.50002L18.6048 6.76397C18.1828 6.40759 18.1297 5.77666 18.4861 5.35474Z" fill="#141B34"/>
<path d="M5.51395 5.35468C5.87032 5.77659 5.8172 6.40753 5.39528 6.76391L3.36274 8.49996L5.39528 10.236C5.8172 10.5924 5.87032 11.2233 5.51395 11.6452C5.15757 12.0672 4.52663 12.1203 4.10472 11.7639L2.6713 10.5531C2.33903 10.2726 2.01651 10.0003 1.78539 9.74443C1.53206 9.46397 1.25 9.05656 1.25 8.49996C1.25 7.94336 1.53206 7.53595 1.78539 7.25549C2.01651 6.99962 2.33903 6.72732 2.6713 6.44677L4.10472 5.23602C4.52663 4.87964 5.15757 4.93276 5.51395 5.35468Z" fill="#141B34"/>
</svg>
