<svg width="24" height="24" viewBox="0 0 24 24" fill="none" xmlns="http://www.w3.org/2000/svg">
<path d="M7.0871 13.8825C8.17607 13.3532 9.81757 12.7504 11.9998 12.75C14.1819 12.7504 15.8237 13.3524 16.9129 13.8819L16.9357 13.8944C17.0957 13.9823 17.5029 14.2058 17.7199 14.3383C18.1724 14.6146 18.7687 15.0122 19.3061 15.4819C19.8259 15.9362 20.3748 16.5293 20.6188 17.2124C20.7464 17.5697 20.7977 17.972 20.6964 18.3892C20.5949 18.8075 20.3557 19.1759 20.0109 19.4903C18.9402 20.4666 17.654 21.2493 15.9933 21.2494L8.00681 21.25C6.346 21.25 5.05977 20.4673 3.98904 19.491C3.64423 19.1766 3.40507 18.8081 3.30355 18.3898C3.2023 17.9726 3.25358 17.5703 3.38119 17.2131C3.62518 16.53 4.17408 15.9368 4.69382 15.4826C5.23123 15.0129 5.82756 14.6153 6.28003 14.3389C6.50828 14.1996 6.94697 13.9595 7.0871 13.8825Z" fill="#141B34"/>
<path d="M7.75 7C7.75 4.65279 9.65279 2.75 12 2.75C14.3472 2.75 16.25 4.65279 16.25 7C16.25 9.34721 14.3472 11.25 12 11.25C9.65279 11.25 7.75 9.34721 7.75 7Z" fill="#141B34"/>
<path fill-rule="evenodd" clip-rule="evenodd" d="M19 4C19.5523 4 20 4.44772 20 5V9C20 9.55228 19.5523 10 19 10C18.4477 10 18 9.55228 18 9V5C18 4.44772 18.4477 4 19 4ZM19 11C19.5523 11 20 11.4477 20 12V12.01C20 12.5623 19.5523 13.01 19 13.01C18.4477 13.01 18 12.5623 18 12.01V12C18 11.4477 18.4477 11 19 11Z" fill="#141B34"/>
</svg>
