<svg width="24" height="24" viewBox="0 0 24 24" fill="none" xmlns="http://www.w3.org/2000/svg">
<path fill-rule="evenodd" clip-rule="evenodd" d="M7 6C7 4.89543 7.89543 4 9 4H11C12.1046 4 13 4.89543 13 6V18L14.9996 18L14.9996 13C14.9996 11.8954 15.8951 11 16.9996 11H20.9996C21.5519 11 21.9996 11.4477 21.9996 12C21.9996 12.5523 21.5519 13 20.9996 13H16.9996L16.9996 18C16.9996 19.1046 16.1042 20 14.9996 20L13 20C11.8954 20 11 19.1046 11 18V6H9V11C9 12.1046 8.10457 13 7 13H3C2.44772 13 2 12.5523 2 12C2 11.4477 2.44772 11 3 11H7V6Z" fill="#141B34"/>
</svg>
