<svg width="24" height="24" viewBox="0 0 24 24" fill="none" xmlns="http://www.w3.org/2000/svg">
<path fill-rule="evenodd" clip-rule="evenodd" d="M11.0874 1.24998C11.6574 1.24922 12.1619 1.24854 12.6373 1.41721C12.7353 1.45197 12.8314 1.49196 12.9251 1.53703C13.3799 1.7557 13.7362 2.11477 14.1387 2.52041L18.9215 7.32806C19.3889 7.79642 19.8036 8.21208 20.0277 8.75583C20.2518 9.29959 20.2509 9.88834 20.2499 10.5517L20.2498 12L8.04412 12.0004C7.67906 11.992 7.30733 12.0834 6.97107 12.2852C6.02391 12.8535 5.71678 14.082 6.28507 15.0292L7.16768 16.5002L6.28507 17.9712C5.71678 18.9184 6.02391 20.1469 6.97107 20.7152C7.30733 20.9169 7.67906 21.0083 8.04412 21H19.1104C19.0228 21.1097 18.9282 21.2159 18.826 21.3187C18.0457 22.103 17.0633 22.4404 15.8965 22.598C14.7727 22.7499 13.3438 22.7499 11.571 22.7499C9.79819 22.7499 8.22705 22.7499 7.10322 22.598C5.93643 22.4404 4.95402 22.103 4.17377 21.3187C3.39352 20.5344 3.05792 19.5469 2.90105 18.374C2.74996 17.2444 2.74998 15.808 2.75 14.0261V9.4525C2.74998 7.91886 2.74997 6.68227 2.86424 5.69844C2.98248 4.68048 3.23418 3.80827 3.82681 3.06942C4.04435 2.79821 4.29012 2.55116 4.55992 2.33249C5.29495 1.73678 6.16265 1.48377 7.17534 1.36492C8.1541 1.25005 9.5617 1.24996 11.0874 1.24998ZM18.2314 9.50379C18.1746 9.36596 18.0692 9.23558 17.4511 8.61427L12.8462 3.98542C12.3133 3.4497 12.1719 3.31628 11.9902 3.2616V3.26997C11.9902 4.63183 11.9902 5.27954 12.1065 6.14474C12.2275 7.04484 12.4864 7.80272 13.0884 8.40463C13.6903 9.00655 14.4481 9.26544 15.3483 9.38646C16.2152 9.50302 16.8638 9.50381 18.2314 9.50379Z" fill="#141B34"/>
<path d="M13.5 13.2499C13.9142 13.2499 14.25 13.5857 14.25 13.9999V16.9999C14.25 17.4925 14.2516 17.7865 14.2799 17.9972C14.2849 18.0653 14.3365 18.2051 14.5027 18.22C14.7134 18.2483 15.0074 18.2499 15.5 18.2499C15.9142 18.2499 16.25 18.5857 16.25 18.9999C16.25 19.4141 15.9142 19.7499 15.5 19.7499C15.0672 19.7499 14.6256 19.75 14.3028 19.7066C13.9473 19.6588 13.5716 19.5463 13.2626 19.2373C12.9535 18.9283 12.8411 18.5526 12.7933 18.1971C12.7499 17.8743 12.7499 17.4774 12.75 17.0446V17.0446L12.75 13.9999C12.75 13.5857 13.0858 13.2499 13.5 13.2499Z" fill="#141B34"/>
<path d="M7.61412 13.357C7.9693 13.1439 8.43 13.259 8.64311 13.6142L9.49999 15.0424L10.3569 13.6142C10.57 13.259 11.0307 13.1439 11.3859 13.357C11.741 13.5701 11.8562 14.0308 11.6431 14.386L10.3746 16.5001L11.6431 18.6142C11.8562 18.9694 11.741 19.4301 11.3859 19.6432C11.0307 19.8563 10.57 19.7412 10.3569 19.386L9.49999 17.9578L8.64311 19.386C8.43 19.7412 7.9693 19.8563 7.61412 19.6432C7.25893 19.4301 7.14376 18.9694 7.35687 18.6142L8.62535 16.5001L7.35687 14.386C7.14376 14.0308 7.25893 13.5701 7.61412 13.357Z" fill="#141B34"/>
<path fill-rule="evenodd" clip-rule="evenodd" d="M17.25 15.0001C17.25 14.0336 18.0335 13.2501 19 13.2501H20.5C20.9142 13.2501 21.25 13.5859 21.25 14.0001C21.25 14.4143 20.9142 14.7501 20.5 14.7501H19C18.8619 14.7501 18.75 14.8621 18.75 15.0001V15.5001C18.75 15.6382 18.8619 15.7501 19 15.7501H19.5C20.4665 15.7501 21.25 16.5336 21.25 17.5001V18.0001C21.25 18.9666 20.4665 19.7501 19.5 19.7501H18C17.5858 19.7501 17.25 19.4143 17.25 19.0001C17.25 18.5859 17.5858 18.2501 18 18.2501H19.5C19.6381 18.2501 19.75 18.1382 19.75 18.0001V17.5001C19.75 17.3621 19.6381 17.2501 19.5 17.2501H19C18.0335 17.2501 17.25 16.4666 17.25 15.5001V15.0001Z" fill="#141B34"/>
</svg>
