<svg xmlns="http://www.w3.org/2000/svg" viewBox="0 0 504 540"><!--! Font Awesome Pro 7.1.0 by @fontawesome - https://fontawesome.com License - https://fontawesome.com/license (Commercial License) Copyright 2025 Fonticons, Inc. --><path fill="currentColor" d="M216 126a36 36 0 1 1 72 0 36 36 0 1 1 -72 0zM0 396c0 29.4 17.9 55.9 45.3 66.9l180 72c17.2 6.9 36.3 6.9 53.5 0l180-72C486.1 451.9 504 425.4 504 396l0-72c0-39.8-32.2-72-72-72-35.2 0-64.6 25.3-70.8 58.8l-37.2 14.9 0-60.2c32.6-22.7 54-60.6 54-103.4l0-36C378 56.4 321.6 0 252 0S126 56.4 126 126c0 12 0 24 0 36 0 42.8 21.4 80.7 54 103.4l0 60.2-37.2-14.9c-6.2-33.4-35.5-58.8-70.8-58.8-39.8 0-72 32.2-72 72l0 72zM252 36c49.7 0 90 40.3 90 90 0 33.3-18.1 62.4-45 78-5.6 3.2-9 9.2-9 15.6l0 132.7c0 6 3 11.6 7.9 14.9s11.2 4 16.8 1.8l72-28.8c6.8-2.7 11.2-9.2 11.3-16.5 .2-19.7 16.2-35.6 36-35.6 19.9 0 36 16.1 36 36l0 36c0 14.7-9 28-22.6 33.4l-180 72c-8.6 3.4-18.2 3.4-26.7 0l-180-72C45 388 36 374.7 36 360l0-36c0-19.9 16.1-36 36-36 19.8 0 35.8 15.9 36 35.6 .1 7.3 4.5 13.8 11.3 16.5l72 28.8c5.5 2.2 11.8 1.5 16.8-1.8s7.9-8.9 7.9-14.9l0-132.7c0-6.4-3.4-12.4-9-15.6-27.6-16-44.9-46.1-45-78 0-49.7 40.3-90 90-90z"/></svg>