<svg xmlns="http://www.w3.org/2000/svg" viewBox="0 0 432 540"><!--! Font Awesome Pro 7.1.0 by @fontawesome - https://fontawesome.com License - https://fontawesome.com/license (Commercial License) Copyright 2025 Fonticons, Inc. --><path fill="currentColor" d="M165.1 111.1c28.1-28.1 73.7-28.1 101.8 0l144 144C425 269.1 432 287.6 432 306l0 36c0 18.4-7 36.9-21.1 50.9-28.1 28.1-73.7 28.1-101.8 0l-93.1-93.1-93.1 93.1C94.8 421 49.2 421 21.1 392.9 7 378.9 0 360.4 0 342l0-36c0-18.4 7-36.9 21.1-50.9l144-144zm76.4 25.5c-14.1-14.1-36.9-14.1-50.9 0l-144 144c-14.1 14.1-14.1 36.9 0 50.9s36.9 14.1 50.9 0L203.3 225.6c6.9-6.9 18.5-6.9 25.5 0L334.5 331.5c14.1 14.1 36.9 14.1 50.9 0s14.1-36.9 0-50.9l-144-144z"/></svg>