<svg xmlns="http://www.w3.org/2000/svg" viewBox="0 0 504 540"><!--! Font Awesome Pro 7.1.0 by @fontawesome - https://fontawesome.com License - https://fontawesome.com/license (Commercial License) Copyright 2025 Fonticons, Inc. --><path fill="currentColor" d="M468 234C468 114.7 371.3 18 252 18 202 18 153.9 36.5 116.9 69.7 96.6 53.5 68.8 49.4 44.4 59.5 17.5 70.6 0 96.9 0 126L0 252c0 38.3 29.9 69.6 67.6 71.9l0 36.1c0 15.8 5.2 31.7 15.8 45 39.5 49.2 100.3 81 168.6 81 119.3 0 216-96.7 216-216l0-36zm-36 0c0 99.4-80.6 180-180 180-56.9 0-107.6-26.4-140.5-67.5-12.4-15.5-9.9-38.2 5.6-50.6 15.2-12.2 38.3-9.8 50.6 5.6 19.9 24.8 50.2 40.5 84.3 40.5 59.6 0 108-48.4 108-108S311.6 126 252 126c-25 0-49 9.9-66.7 27.6l-.4 .4c-4.9 4.9-9.5 9.5-9.5 17 0 7.7 5.1 12.7 10.2 17.7 .6 .6 1.3 1.2 1.9 1.9 10.3 10.3 13.4 25.8 7.8 39.2S176.6 252 162 252l-90 0c-19.9 0-36-16.1-36-36l0-90c0-14.6 8.8-27.7 22.2-33.3s28.9-2.5 39.2 7.8l6.8 6.8c3.4 3.4 8 5.3 12.7 5.3s9.4-1.9 12.7-5.3l4.6-4.6C165.6 71.5 207.9 54 252 54 351.4 54 432 134.6 432 234zM217.9 297.4c4.3-5.3 7.9-11.3 10.7-17.9 3.7-8.9 5.5-18.3 5.5-27.6l0-36c0-4.9-.5-9.9-1.5-14.7 6.2-2.2 12.8-3.4 19.5-3.4 33.5 0 61.7 22.9 69.7 54-8 31.1-36.2 54-69.7 54-12.4 0-24-3.1-34.1-8.6z"/></svg>