<svg xmlns="http://www.w3.org/2000/svg" viewBox="0 0 504 540"><!--! Font Awesome Pro 7.1.0 by @fontawesome - https://fontawesome.com License - https://fontawesome.com/license (Commercial License) Copyright 2025 Fonticons, Inc. --><path fill="currentColor" d="M198 216c9.9 0 18-8.1 18-18s-8.1-18-18-18c-59.6 0-108 48.4-108 108 0 9.9 8.1 18 18 18s18-8.1 18-18c0-39.8 32.2-72 72-72zM396 18c-29.8 0-54 24.2-54 54l0 24.2-3.1-3.1C311.1 65.2 266.1 65 237.9 92.3 227.8 90.8 217.5 90 207 90 92.7 90 0 182.7 0 297l0 36C0 447.3 92.7 540 207 540s207-92.7 207-207l0-33.4C426 286 432 269 432 252l0-36c0-6.1-.8-12.1-2.3-18l2.3 0c29.8 0 54-24.2 54-54l0-72c0-29.8-24.2-54-54-54l-36 0zM207 468c-94.4 0-171-76.6-171-171s76.6-171 171-171c11.5 0 22.7 1.1 33.5 3.3 9.7 1.9 15.8-4.5 22-10.7 14.1-14.1 36.9-14.1 50.9 0l72 72c14.1 14.1 14.1 36.9 0 50.9-6.2 6.2-12.7 12.3-10.7 22 2.1 10.8 3.3 22 3.3 33.5 0 94.4-76.6 171-171 171zM432 54c9.9 0 18 8.1 18 18l0 36c0 9.9-8.1 18-18 18l-36 0c-9.9 0-18-8.1-18-18l0-36c0-9.9 8.1-18 18-18l36 0z"/></svg>