<svg xmlns="http://www.w3.org/2000/svg" viewBox="0 0 504 540"><!--! Font Awesome Pro 7.1.0 by @fontawesome - https://fontawesome.com License - https://fontawesome.com/license (Commercial License) Copyright 2025 Fonticons, Inc. --><path fill="currentColor" d="M0 252c0-18.5 7-36.8 21.1-50.9 28.1-28.1 73.7-28.1 101.8 0L180 258.2 381.1 57.1C409.2 29 454.8 29 482.9 57.1 497 71.1 504 89.6 504 108l0 36c0 18.4-7 36.9-21.1 50.9l-252 252c-28.1 28.1-73.7 28.1-101.8 0l-108-108C7.1 325 .1 306.6 0 288.3L0 252zM457.5 82.5c-14.1-14.1-36.9-14.1-50.9 0L192.7 296.4c-7 7-18.4 7-25.5 0L97.5 226.5c-14.1-14.1-36.9-14.1-50.9 0-7 7-10.5 16.3-10.5 25.5 0 9.2 3.5 18.4 10.5 25.4l108 108c14.1 14.1 36.9 14.1 50.9 0l252-252c14.1-14.1 14.1-36.9 0-50.9z"/></svg>