<svg xmlns="http://www.w3.org/2000/svg" viewBox="0 0 504 540"><!--! Font Awesome Pro 7.1.0 by @fontawesome - https://fontawesome.com License - https://fontawesome.com/license (Commercial License) Copyright 2025 Fonticons, Inc. --><path fill="currentColor" d="M0 252C0 112.8 112.8 0 252 0S504 112.8 504 252l0 36c0 139.2-112.8 252-252 252S0 427.2 0 288l0-36zm36 0c0 47.3 15.2 91.1 41 126.6 7.6-11 16.3-21.1 25.3-30.1 19.3-19.3 45.9-38.3 80.4-49.7-23.7-19.8-38.7-49.6-38.7-82.8 0-59.6 48.4-108 108-108s108 48.4 108 108c0 33.3-15 63-38.7 82.8 34.5 11.4 61.1 30.5 80.4 49.7 9 9 17.6 19.1 25.3 30.1 25.8-35.6 41-79.3 41-126.6 0-119.3-96.7-216-216-216S36 132.7 36 252zm65.5 155c38.9 37.8 92 61 150.5 61s111.6-23.3 150.5-61c-7.2-11.8-16.2-23-26.2-32.9-25.2-25.2-65.5-50-124.3-50s-99.1 24.8-124.3 50c-10 10-19.1 21.1-26.2 32.9zM252 144a72 72 0 1 0 0 144 72 72 0 1 0 0-144z"/></svg>