<svg xmlns="http://www.w3.org/2000/svg" viewBox="0 0 540 540"><!--! Font Awesome Pro 7.1.0 by @fontawesome - https://fontawesome.com License - https://fontawesome.com/license (Commercial License) Copyright 2025 Fonticons, Inc. --><path fill="currentColor" d="M297 36C242.2 36 194.1 64.8 167.1 108.1 105.8 110.1 56.4 159.3 54.1 220.5 21.4 243.3 0 281.1 0 324l0 36c0 69.6 56.4 126 126 126l279 0c64.6 0 117-52.4 117-117l0-36c0-50.2-31.6-92.9-75.9-109.6 2.5-11.1 3.9-22.6 3.9-34.4 0-84.5-68.5-153-153-153zM486 333c0 44.7-36.3 81-81 81l-279 0c-49.7 0-90-40.3-90-90 0-33.3 18.1-62.5 45.1-78 8.2-4.7 8.9-12.6 8.9-21 0-44.7 36.3-81 81-81 8.9 0 17.6-.3 22.4-9.4 19.6-37.3 58.7-62.6 103.6-62.6 64.6 0 117 52.4 117 117 0 14.3-2.6 27.9-7.2 40.5-3.8 10.3 2.8 21.9 13.5 23.9 37.4 7.1 65.7 40.1 65.7 79.6z"/></svg>