<svg xmlns="http://www.w3.org/2000/svg" viewBox="0 0 360 540"><!--! Font Awesome Pro 7.1.0 by @fontawesome - https://fontawesome.com License - https://fontawesome.com/license (Commercial License) Copyright 2025 Fonticons, Inc. --><path fill="currentColor" d="M0 432c0 33.2 30.8 55.2 58.1 67.4 32.1 14.3 75.2 22.6 121.9 22.6s89.7-8.4 121.9-22.6C329.2 487.2 360 465.2 360 432l0-324C360 74.8 329.2 52.8 301.9 40.6 269.7 26.4 226.7 18 180 18S90.3 26.4 58.1 40.6C30.8 52.8 0 74.8 0 108L0 432zM36 108C36 90.9 59.9 79.2 72.8 73.5 99.3 61.7 137.2 54 180 54s80.7 7.7 107.2 19.5C300.1 79.2 324 90.9 324 108l0 18c0 17.1-23.9 28.8-36.8 34.5-26.5 11.8-64.4 19.5-107.2 19.5s-80.7-7.7-107.2-19.5C59.9 154.8 36 143.1 36 126l0-18zm288 73.4l0 34.6c0 17.1-23.9 28.8-36.8 34.5-26.5 11.8-64.4 19.5-107.2 19.5s-80.7-7.7-107.2-19.5C59.9 244.8 36 233.1 36 216l0-34.6C77.5 208.6 131.5 216 180 216s102.5-7.4 144-34.6zm0 90l0 34.6c0 17.1-23.9 28.8-36.8 34.5-26.5 11.8-64.4 19.5-107.2 19.5s-80.7-7.7-107.2-19.5C59.9 334.8 36 323.1 36 306l0-34.6C77.5 298.6 131.5 306 180 306s102.5-7.4 144-34.6zm-288 90C77.5 388.6 131.5 396 180 396s102.5-7.4 144-34.6l0 34.6c0 17.1-23.9 28.8-36.8 34.5-26.5 11.8-64.4 19.5-107.2 19.5s-80.7-7.7-107.2-19.5C59.9 424.8 36 413.1 36 396l0-34.6z"/></svg>