<svg xmlns="http://www.w3.org/2000/svg" viewBox="0 0 432 540"><!--! Font Awesome Pro 7.1.0 by @fontawesome - https://fontawesome.com License - https://fontawesome.com/license (Commercial License) Copyright 2025 Fonticons, Inc. --><path fill="currentColor" d="M0 144c0-39.8 32.2-72 72-72l288 0c39.8 0 72 32.2 72 72l0 36c0 39.8-32.2 72-72 72L72 252c-39.8 0-72-32.2-72-72l0-36zm36 0c0 19.9 16.1 36 36 36l288 0c19.9 0 36-16.1 36-36s-16.1-36-36-36L72 108c-19.9 0-36 16.1-36 36zM0 360c0-39.8 32.2-72 72-72l288 0c39.8 0 72 32.2 72 72l0 36c0 39.8-32.2 72-72 72L72 468c-39.8 0-72-32.2-72-72l0-36zm36 0c0 19.9 16.1 36 36 36l288 0c19.9 0 36-16.1 36-36s-16.1-36-36-36L72 324c-19.9 0-36 16.1-36 36z"/></svg>