<svg xmlns="http://www.w3.org/2000/svg" viewBox="0 0 540 540"><!--! Font Awesome Pro 7.1.0 by @fontawesome - https://fontawesome.com License - https://fontawesome.com/license (Commercial License) Copyright 2025 Fonticons, Inc. --><path fill="currentColor" d="M351 144a27 27 0 1 0 0-54 27 27 0 1 0 0 54zM320.6 11.4c42.8-5.3 81.6-.6 104.6 3.5 41.9 7.5 74.5 40 82 82 2.9 16.1 6 39.8 5.8 67.2 0 24.5 .6 49-2.4 73.4-5.3 42.9-21.4 95.1-63.7 137.5-53.9 53.9-128.7 69.7-178.7 74.7-3.5 .4-7 .7-10.4 .9l-6.5 45.6c-4.5 31.2-28.7 55.8-59.7 60.9s-61.8-10.7-75.9-38.9l-25.3-50.5-50.5-25.3C15.1 430.1 0 404.9 0 378l0-35.3c0-4.1 .3-8.2 .9-12.3 5-31.1 29.7-55.3 60.9-59.7l45.6-6.5c.3-3.4 .6-6.9 .9-10.4 5-50.1 20.8-124.8 74.7-178.7 42.3-42.3 94.6-58.4 137.5-63.7zm151.1 91.8c-4.8-27.1-25.8-48-52.9-52.9-21.1-3.8-55.9-7.9-93.9-3.2-38 4.7-81.6 18.6-116.5 53.4-45 45-59.6 109.3-64.4 156.9-.8 8.1-1.4 15.9-1.7 23.4-.4 8.6-6.9 15.8-15.4 17l-60.1 8.6c-17.8 2.5-30.9 18.2-30.9 36 .1 13.3 7.7 25.7 19.9 31.9l55.9 27.9c3.5 1.7 6.3 4.6 8 8.1l28 55.9c7 14.1 22.4 22 38 19.4s27.6-14.9 29.9-30.4l8.6-60.1c1.2-8.6 8.4-15 17-15.4 7.4-.3 15.3-.9 23.4-1.7 47.5-4.8 111.9-19.4 156.9-64.4 34.8-34.8 48.7-78.5 53.4-116.5 1.4-11.4 2-22.5 2.1-33 0-20.4-1.7-40.8-5.3-60.9z"/></svg>