<svg xmlns="http://www.w3.org/2000/svg" viewBox="0 0 432 540"><!--! Font Awesome Pro 7.1.0 by @fontawesome - https://fontawesome.com License - https://fontawesome.com/license (Commercial License) Copyright 2025 Fonticons, Inc. --><path fill="currentColor" d="M431.9 184c-.5 8.3-2.4 16.5-5.7 24.3l-21.7 43.7 21.7 43.6c3.9 9.1 5.8 18.7 5.8 28.4l-.2 40.9c-2.5 37-34.2 67.1-71.8 67.1l-216 0 0 18c0 39.8-32.2 72-72 72S0 489.8 0 450L0 90c0-39.8 32.2-72 72-72 33.5 0 61.7 22.9 69.7 54L360 72c39.6 0 72 33 72 72l-.1 40zM144 108l0 252 216 0c28.5 0 42.3-28.6 32.2-52.1l-32.9-65.8c-2.5-5.1-2.5-11 0-16.1l32.9-65.8c10.1-23.5-3.7-52.1-32.2-52.1l-216 0zM72 450c19.9 0 36-16.1 36-36l0-324c0-19.9-16.1-36-36-36S36 70.1 36 90l0 324c0 19.9 16.1 36 36 36z"/></svg>