<svg xmlns="http://www.w3.org/2000/svg" viewBox="0 0 432 540"><!--! Font Awesome Pro 7.1.0 by @fontawesome - https://fontawesome.com License - https://fontawesome.com/license (Commercial License) Copyright 2025 Fonticons, Inc. --><path fill="currentColor" d="M252 144c0-39.8 32.2-72 72-72l36 0c39.8 0 72 32.2 72 72l0 252c0 39.8-32.2 72-72 72l-36 0c-39.8 0-72-32.2-72-72l0-45-136.8 102.6c-21.8 16.4-51 19-75.4 6.8S0 423.3 0 396L0 144c0-27.3 15.4-52.2 39.8-64.4s53.6-9.6 75.4 6.8L252 189 252 144zM36 360c0 13.6 7.7 26.1 19.9 32.2s26.8 4.8 37.7-3.4l144-108C246.7 274 252 263.3 252 252s-5.3-22-14.4-28.8l-144-108c-10.9-8.2-25.5-9.5-37.7-3.4S36 130.4 36 144l0 216zm252 0c0 19.9 16.1 36 36 36l36 0c19.9 0 36-16.1 36-36l0-216c0-19.9-16.1-36-36-36l-36 0c-19.9 0-36 16.1-36 36l0 216z"/></svg>