<svg xmlns="http://www.w3.org/2000/svg" viewBox="0 0 360 540"><!--! Font Awesome Pro 7.1.0 by @fontawesome - https://fontawesome.com License - https://fontawesome.com/license (Commercial License) Copyright 2025 Fonticons, Inc. --><path fill="currentColor" d="M288 18c39.6 0 71.8 32 72 71.6l0 36.4c0 54-22.1 105.9-60.2 144 38 38 60.1 89.8 60.2 143.7l0 36.3c0 39.8-32.2 72-72 72L72 522c-39.8 0-72-32.2-72-72l0-36.3C.1 359.8 22.2 308 60.2 270 22.1 231.9 0 180 0 126L0 89.6C.2 50 32.4 18 72 18l216 0zm36 72c0-19.9-16.1-36-36-36L72 54c-19.9 0-36 16.1-36 36 0 44.1 17.5 86.4 48.7 117.6l31.6 31.6c7 7 7 18.4 0 25.5L84.7 296.4C53.5 327.6 36 369.9 36 414 36 433.9 52.1 450 72 450l216 0c19.9 0 36-16.1 36-36 0-44.1-17.5-86.4-48.7-117.6l-31.6-31.6c-7-7-7-18.4 0-25.5l31.6-31.6C306.5 176.4 324 134.1 324 90zM192.7 188.4c-6.9 6.9-18.5 6.9-25.5 0l-31.6-31.6c-11.1-11.1-3-30.7 12.7-30.7l63.3 0c15.7 0 23.8 19.6 12.7 30.7l-31.6 31.6zm31.6 158.9c11.1 11.1 3 30.7-12.7 30.7l-63.3 0c-15.7 0-23.8-19.6-12.7-30.7l31.6-31.6c6.9-6.9 18.5-6.9 25.5 0l31.6 31.6z"/></svg>