<svg xmlns="http://www.w3.org/2000/svg" viewBox="0 0 468 540"><!--! Font Awesome Pro 7.1.0 by @fontawesome - https://fontawesome.com License - https://fontawesome.com/license (Commercial License) Copyright 2025 Fonticons, Inc. --><path fill="currentColor" d="M198 135a27 27 0 1 1 54 0 27 27 0 1 1 -54 0zM108 90c0-39.8 32.2-72 72-72l216 0c39.8 0 72 32.2 72 72l0 252c0 39.8-32.2 72-72 72l-36 0 0 36c0 39.8-32.2 72-72 72L72 522c-39.8 0-72-32.2-72-72L0 198c0-39.8 32.2-72 72-72l36 0 0-36zm0 72l-36 0c-19.9 0-36 16.1-36 36l0 216c0 19.9 16.1 36 36 36l216 0c19.9 0 36-16.1 36-36l0-36-144 0c-39.8 0-72-32.2-72-72l0-144zM396 54L180 54c-19.9 0-36 16.1-36 36l0 217.5 86.2-86.2c26.9-26.9 70.5-26.9 97.5 0 12.9 12.9 33.7 12.9 46.5 0L432 163.5 432 90c0-19.9-16.1-36-36-36zM164.1 338.3c4.8 2.4 10.2 3.7 15.9 3.7l216 0c19.9 0 36-16.1 36-36l0-91.5-32.3 32.3c-26.9 26.9-70.5 26.9-97.5 0-12.9-12.9-33.7-12.9-46.5 0l-91.6 91.6z"/></svg>