<svg xmlns="http://www.w3.org/2000/svg" viewBox="0 0 540 540"><!--! Font Awesome Pro 7.1.0 by @fontawesome - https://fontawesome.com License - https://fontawesome.com/license (Commercial License) Copyright 2025 Fonticons, Inc. --><path fill="currentColor" d="M42.5 186.3C15.6 198.4-.9 225.5 0 254.4L.7 297c.5 32.8 33.7 59.6 64.1 62.7l121.4 12.1 12.1 121.4c3.2 32.4 27.9 58.7 60.1 63.9s63.9-11.8 77.2-41.5l162-360c4.2-9.4 6.3-19.4 6.3-29.3l0-35.8c.1-18.9-7.2-37.4-21.1-51.3-21.2-21.2-53.2-27-80.5-14.7l-360 162zm415-121.8c10.6 10.6 13.5 26.6 7.4 40.2l-162 360c-6.7 14.9-22.5 23.4-38.6 20.8s-28.4-15.7-30-31.9l-13.6-136c-.9-8.5-7.6-15.3-16.1-16.1l-136-13.6c-16.2-1.6-29.3-13.9-31.9-30-2.6-15.8 6.1-32 20.8-38.6l360-162c13.6-6.1 29.7-3.2 40.2 7.4z"/></svg>