<svg xmlns="http://www.w3.org/2000/svg" viewBox="0 0 324 540"><!--! Font Awesome Pro 7.1.0 by @fontawesome - https://fontawesome.com License - https://fontawesome.com/license (Commercial License) Copyright 2025 Fonticons, Inc. --><path fill="currentColor" d="M189 387c0 14.9-12.1 27-27 27s-27-12.1-27-27 12.1-27 27-27 27 12.1 27 27zM126 90c-9.9 0-18 8.1-18 18s8.1 18 18 18l72 0c9.9 0 18-8.1 18-18s-8.1-18-18-18l-72 0zM72 18C32.2 18 0 50.2 0 90L0 450c0 39.8 32.2 72 72 72l180 0c39.8 0 72-32.2 72-72l0-360c0-39.8-32.2-72-72-72L72 18zM288 414c0 19.9-16.1 36-36 36L72 450c-19.9 0-36-16.1-36-36L36 90c0-19.9 16.1-36 36-36l180 0c19.9 0 36 16.1 36 36l0 324z"/></svg>