<svg xmlns="http://www.w3.org/2000/svg" viewBox="0 0 504 540"><!--! Font Awesome Pro 7.1.0 by @fontawesome - https://fontawesome.com License - https://fontawesome.com/license (Commercial License) Copyright 2025 Fonticons, Inc. --><path fill="currentColor" d="M0 369c0-29.3 15.9-54.5 38.8-71.7 18.8-14.1 42.8-23.4 69.2-26.3l0-145c0-35.2 25.4-65.2 60.2-71l216-36c20.9-3.5 42.2 2.4 58.4 16.1S468 68.8 468 90l0 279c0 29.3-15.9 54.5-38.8 71.7-22.9 17.2-53.8 27.3-87.2 27.3-34.2 0-69.7-10.8-95.4-34.1-6.5 16.9-18.5 31.6-33.4 42.8-22.9 17.2-53.8 27.3-87.2 27.3S61.8 493.9 38.8 476.7 0 434.3 0 405l0-36zM390.1 54.5l-216 36C156.7 93.4 144 108.4 144 126l0 162c0 9.9-8.1 18-18 18-26.3 0-49.4 8-65.6 20.1S36 353.6 36 369 44.3 399.8 60.4 411.9 99.7 432 126 432 175.4 424 191.6 411.9 216 384.4 216 369l0-197.3c0-8.8 6.4-16.3 15-17.8l108-18c10.8-1.8 21 6.8 21 17.8l0 98.3c0 9.9-8.1 18-18 18-26.3 0-49.4 8-65.6 20.1s-24.4 27.4-24.4 42.9 8.3 30.8 24.4 42.9 39.3 20.1 65.6 20.1 49.4-8 65.6-20.1 24.4-27.4 24.4-42.9l0-243c0-10.6-4.7-20.6-12.7-27.5s-18.7-9.8-29.2-8zM324 235l0-24-72 12 0 40.5c19.2-15.3 44.3-25.4 72-28.5z"/></svg>