<svg xmlns="http://www.w3.org/2000/svg" viewBox="0 0 468 540"><!--! Font Awesome Pro 7.1.0 by @fontawesome - https://fontawesome.com License - https://fontawesome.com/license (Commercial License) Copyright 2025 Fonticons, Inc. --><path fill="currentColor" d="M292.2 42.4C307.8 26.8 328.9 18 351 18s43.2 8.8 58.8 24.4l33.8 33.8C459.2 91.8 468 112.9 468 135l0 36c0 22.1-8.8 43.2-24.4 58.8L221.8 451.7c-9.1 9.1-20 16.1-32 20.6L65.5 518.9c-5.4 2-11.2 3.1-17 3.1-26.8 0-48.5-21.7-48.5-48.5l0-36c0-5.8 1-11.6 3.1-17L49.7 296.3c4.5-12 11.5-23 20.6-32L292.2 42.4zM270 115.5L102 283.5 202.5 384 370.5 216 270 115.5zm126 75.1l22.2-22.2C427 159.5 432 147.5 432 135s-5-24.5-13.8-33.4L384.4 67.8C375.5 59 363.5 54 351 54s-24.5 5-33.4 13.8L295.5 90 396 190.5zm-223.9 214L81.5 313.9 36.8 433.1c-3.7 9.8 6.5 19.6 16.1 16.1l119.2-44.7z"/></svg>