<svg xmlns="http://www.w3.org/2000/svg" viewBox="0 0 468 540"><!--! Font Awesome Pro 7.1.0 by @fontawesome - https://fontawesome.com License - https://fontawesome.com/license (Commercial License) Copyright 2025 Fonticons, Inc. --><path fill="currentColor" d="M86.1 30.1c28.6-19 66.6-15.3 90.8 9l45 45C236 98.2 243 116.6 243 135l0 36c0 18.4-7 36.8-21.1 50.9l-34.3 34.3c17.3 22.8 39 42.1 63.8 56.6l48.7-48.7c28.1-28.1 73.7-28.1 101.8 0l45 45c13.4 13.4 20.5 30.9 21.1 48.7l0 38.2c0 13.8-4 27.8-12.1 39.9l-35.5 53.2C407.6 508.9 385.3 522 360 522 161.2 522 0 360.8 0 162l0-36c0-25.4 13.1-47.6 32.9-60.4L86.1 30.1zM196.5 160.5c14-14.1 14.1-36.8 0-50.9l-45-45c-12.1-12.1-31.1-14-45.4-4.5L52.5 95.7c-10 6.4-16.5 17.6-16.5 30.3 0 178.9 145.1 324 324 324 12.7 0 23.9-6.6 30.3-16.5L426 380c9.5-14.3 7.6-33.3-4.5-45.4l-45-45c-14.1-14.1-36.9-14.1-50.9 0l-58.2 58.2c-5.5 5.5-13.9 6.8-20.8 3.3-48.1-24.3-87.3-63.5-111.6-111.6-3.5-6.9-2.2-15.3 3.3-20.8l58.2-58.2z"/></svg>