<svg xmlns="http://www.w3.org/2000/svg" viewBox="0 0 504 540"><!--! Font Awesome Pro 7.1.0 by @fontawesome - https://fontawesome.com License - https://fontawesome.com/license (Commercial License) Copyright 2025 Fonticons, Inc. --><path fill="currentColor" d="M72 90c0-25.6 13.6-49.2 35.7-62.2s49.4-13.1 71.6-.6l288 162C490 202 504 226 504 252l0 36c0 26-14 50-36.7 62.8l-288 162c-22.3 12.5-49.6 12.3-71.6-.6S72 475.6 72 450L72 90zm53.8 355.1c11 6.5 24.7 6.6 35.8 .3l288-162C461 277 468 265 468 252s-7-25-18.4-31.4l-288-162c-11.1-6.3-24.8-6.2-35.8 .3S108 77.2 108 90l0 324c0 12.8 6.8 24.6 17.8 31.1z"/></svg>