<svg xmlns="http://www.w3.org/2000/svg" viewBox="0 0 504 540"><!--! Font Awesome Pro 7.1.0 by @fontawesome - https://fontawesome.com License - https://fontawesome.com/license (Commercial License) Copyright 2025 Fonticons, Inc. --><path fill="currentColor" d="M108 18c18.7 0 35.8 7.1 48.6 18.8 1.7-.5 3.5-.8 5.4-.8l234 0c39.8 0 72 32.2 72 72l0 24.4c11.2 12.7 18 29.4 18 47.6l0 24.4c11.2 12.7 18 29.4 18 47.6l0 36c0 39.8-32.2 72-72 72l-81.7 0c1.2 4.6 2.2 9.3 3.2 14l5.2 25.9c1 5 1.5 10 1.4 15l0 34.5c.4 33.9-23.4 64.4-57.9 71.3-39 7.8-76.9-17.5-84.7-56.5l-5.2-25.9c-5.6-27.9-19.3-53.5-39.4-73.6l-7.8-7.8c-4.2-4.2-7.8-8.9-10.8-13.8-12.5 10.5-28.7 16.9-46.3 16.9l-36 0c-39.8 0-72-32.2-72-72L0 90C0 50.2 32.2 18 72 18l36 0zM252.7 421c3.9 19.5 22.9 32.1 42.4 28.2s32.1-22.9 28.2-42.4l-5.2-25.9c-4.7-23.4-12.6-45.8-23.5-66.8-2.9-5.6-2.7-12.3 .6-17.6s9.1-8.7 15.4-8.7L432 288c19.9 0 36-16.1 36-36 0-12.7-6.6-23.9-16.6-30.4-8-5.1-10.7-15.7-6-24 2.9-5.2 4.6-11.2 4.6-17.6 0-12.7-6.6-23.9-16.6-30.4-8-5.1-10.7-15.7-6-24 2.9-5.2 4.6-11.2 4.6-17.6 0-19.9-16.1-36-36-36l-216 0 0 197.9c0 4.9 .5 7.7 2.1 12.1 1.7 4.9 4.5 9.5 8.5 13.4l7.8 7.8c25.1 25.1 42.3 57.1 49.2 92l5.2 25.9zM72 288l36 0c19.9 0 36-16.1 36-36l0-162c0-19.9-16.1-36-36-36L72 54C52.1 54 36 70.1 36 90l0 162c0 19.9 16.1 36 36 36z"/></svg>