<svg xmlns="http://www.w3.org/2000/svg" viewBox="0 0 432 540"><!--! Font Awesome Pro 7.1.0 by @fontawesome - https://fontawesome.com License - https://fontawesome.com/license (Commercial License) Copyright 2025 Fonticons, Inc. --><path fill="currentColor" d="M180 288c0-9.9-8.1-18-18-18s-18 8.1-18 18l0 18c0 19.9 16.1 36 36 36l72 0c19.9 0 36-16.1 36-36l0-18c0-9.9-8.1-18-18-18s-18 8.1-18 18l0 18-72 0 0-18zM0 144c0-41 34.2-72 74.3-72 8-31.1 36.2-54 69.7-54l144 0c33.5 0 61.7 22.9 69.7 54 40.1 0 74.3 31 74.3 72l0 36c0 29.3-17.5 54.5-42.5 65.7L377.9 454c-2.1 38.2-33.7 68-71.9 68l-180 0c-38.2 0-69.8-29.9-71.9-68L42.5 245.7C17.5 234.5 0 209.3 0 180l0-36zm396 0c0-19.9-16.1-36-36-36l-18 0c-9.8 0-18-8.2-18-18 0-19.9-16.1-36-36-36L144 54c-19.9 0-36 16.1-36 36 0 9.9-8.1 18-18 18l-18 0c-19.9 0-36 16.1-36 36s16.1 36 36 36l288 0c19.9 0 36-16.1 36-36zM78.9 216L90.1 416c1.1 19.1 16.8 34 35.9 34l180 0c19.1 0 34.9-14.9 35.9-34l11.1-200-274.1 0z"/></svg>