<svg xmlns="http://www.w3.org/2000/svg" viewBox="0 0 504 540"><!--! Font Awesome Pro 7.1.0 by @fontawesome - https://fontawesome.com License - https://fontawesome.com/license (Commercial License) Copyright 2025 Fonticons, Inc. --><path fill="currentColor" d="M432 216c0 14.8-3.6 28.7-9.9 41 36.1 21.2 64 55.8 76.1 98.2 2.8 9.7 5.8 19.2 5.8 29.4l0 36c0 36.1-29.3 65.4-65.4 65.4L66.1 486C29.6 486 0 456.4 0 419.9l0-36c0-11 3.3-21.5 6-32 12.1-48.4 43.3-88.1 84.3-111.8-11.5-17.2-18.2-37.8-18.2-60.1l0-36c0-59.6 48.4-108 108-108 48.5 0 89.5 31.9 103.2 75.9 15.8-13.6 36.3-21.9 58.8-21.9 49.7 0 90 40.3 90 90l0 36zM108 144a72 72 0 1 0 144 0 72 72 0 1 0 -144 0zM468 384.6c0-6.7-2.6-13.2-4.4-19.5-16.1-56.3-67.5-95.1-126.1-95.1-9.1 0-18 .9-26.6 2.7 20.4 21.7 35.5 48.7 43.1 79.2 2.6 10.5 6 21.1 6 32 0 10.8-2.6 21.1-7.2 30.1l85.9 0c16.2 0 29.3-13.2 29.4-29.4zM293.9 414c16.6 0 30.1-13.5 30.1-30.1 0-7.9-3-15.8-4.9-23.3-16-63.8-73.3-108.6-139.1-108.6S56.9 296.8 40.9 360.6C39 368.1 36 376.1 36 383.9 36 400.5 49.5 414 66.1 414l227.8 0zM342 126a54 54 0 1 0 0 108 54 54 0 1 0 0-108z"/></svg>