<svg xmlns="http://www.w3.org/2000/svg" viewBox="0 0 432 540"><!--! Font Awesome Pro 7.1.0 by @fontawesome - https://fontawesome.com License - https://fontawesome.com/license (Commercial License) Copyright 2025 Fonticons, Inc. --><path fill="currentColor" d="M324 18c-29.7 0-57.5 12.1-76.9 31.6-8.5-18.6-27.3-31.6-49.1-31.6-13.8 0-26.4 5.2-36 13.8-9.6-8.6-22.2-13.8-36-13.8S99.6 23.2 90 31.8C80.4 23.2 67.8 18 54 18 24.2 18 0 42.2 0 72L0 196.7c0 36.1 18 69.8 48.1 89.9L54 290.5 54 450c0 39.8 32.2 72 72 72s72-32.2 72-72l0-159.5 5.9-3.9c4.3-2.9 8.3-6 12.1-9.4l0 10.8c0 26.7 14.5 49.9 36 62.4l0 99.6c0 39.8 32.2 72 72 72s72-32.2 72-72l0-360c0-39.8-32.2-72-72-72zM72 72l0 72c0 9.9 8.1 18 18 18s18-8.1 18-18l0-72c0-9.9 8.1-18 18-18s18 8.1 18 18l0 72c0 9.9 8.1 18 18 18s18-8.1 18-18l0-72c0-9.9 8.1-18 18-18s18 8.1 18 18l0 88.7c0 24.1-12 46.6-32.1 59.9L170 229.9c-5 3.3-8 9-8 15L162 414c0 19.9-16.1 36-36 36s-36-16.1-36-36l0-169.1c0-6-3-11.6-8-15l-13.9-9.3C48 207.3 36 184.8 36 160.7L36 72c0-9.9 8.1-18 18-18s18 8.1 18 18zm180 53.1c0-39.3 32.7-71.1 72-71.1 19.9 0 36 16.1 36 36l0 324c0 19.9-16.1 36-36 36s-36-16.1-36-36l0-111.1c0-7.6-4.8-14.4-12-17-14-5-24-18.3-24-34l0-126.9z"/></svg>