<?xml version="1.0" standalone="no"?>
<!DOCTYPE svg PUBLIC "-//W3C//DTD SVG 1.1//EN" "http://www.w3.org/Graphics/SVG/1.1/DTD/svg11.dtd" >
<svg xmlns="http://www.w3.org/2000/svg" xmlns:xlink="http://www.w3.org/1999/xlink" version="1.1">
<metadata>
Created by FontForge 20170731 at Fri Aug  7 14:24:16 2009
 By Aleksey,,,
Copyright (c) 2009 by Kris Sowersby. All rights reserved.
</metadata>
<defs>
<font id="Karbon-Bold" horiz-adv-x="520" >
  <font-face 
    font-family="Karbon Bold"
    font-weight="900"
    font-stretch="normal"
    units-per-em="1000"
    panose-1="0 0 8 0 0 0 0 0 0 0"
    ascent="680"
    descent="-320"
    x-height="450"
    cap-height="594"
    bbox="-125 -190 1112 874"
    underline-thickness="50"
    underline-position="-200"
    unicode-range="U+0020-FB04"
  />
<missing-glyph horiz-adv-x="190" 
 />
    <glyph glyph-name="ff" unicode="ff" horiz-adv-x="616" 
d="M221 332v-332h-142v332h-71v118h71v45q0 89 46 134t119 45q44 0 78 -17v-130q-22 15 -54 15q-47 0 -47 -54v-38h142v55q0 94 47.5 139.5t127.5 45.5q53 0 96 -22v-133q-40 24 -77 24q-52 0 -52 -54v-55h105v-118h-105v-332h-142v332h-142z" />
    <glyph glyph-name="fi" unicode="fi" horiz-adv-x="565" 
d="M221 332v-332h-142v332h-71v118h71v36q0 99 59 151.5t145 52.5q78 0 124 -30v-132q-46 31 -102 31q-36 0 -60 -18t-24 -57v-34h284v-450h-142v332h-142z" />
    <glyph glyph-name="fl" unicode="fl" horiz-adv-x="565" 
d="M79 450v61q0 89 46 134t119 45q39 0 70 -14v-129q-20 10 -48 10q-45 0 -45 -53v-54h81v-118h-81v-332h-142v332h-71v118h71zM505 680v-680h-142v680h142z" />
    <glyph glyph-name="ffi" unicode="ffi" horiz-adv-x="849" 
d="M505 332v-332h-142v332h-142v-332h-142v332h-71v118h71v45q0 89 46 134t119 45q44 0 78 -17v-130q-22 15 -54 15q-47 0 -47 -54v-38h142v36q0 99 59.5 151.5t145.5 52.5q77 0 123 -30v-132q-46 31 -102 31q-36 0 -60 -18t-24 -57v-34h284v-450h-142v332h-142z" />
    <glyph glyph-name="ffl" unicode="ffl" horiz-adv-x="849" 
d="M505 332v-332h-142v332h-142v-332h-142v332h-71v118h71v45q0 89 46 134t119 45q44 0 78 -17v-130q-22 15 -54 15q-47 0 -47 -54v-38h142v61q0 89 46.5 134t119.5 45q39 0 69 -14v-129q-20 10 -48 10q-45 0 -45 -53v-54h81v-118h-81zM789 680v-680h-142v680h142z" />
    <glyph glyph-name="f_f_j" unicode="ffj" horiz-adv-x="849" 
d="M647 332h-142v-332h-142v332h-142v-332h-142v332h-71v118h71v45q0 89 46 134t119 45q44 0 78 -17v-130q-22 15 -54 15q-47 0 -47 -54v-38h142v36q0 99 59.5 151.5t145.5 52.5q77 0 123 -30v-132q-46 31 -102 31q-36 0 -60 -18t-24 -57v-34h284v-487q0 -78 -47.5 -115.5
t-124.5 -37.5q-44 0 -87 15v118q39 -13 64 -13q27 0 40 12t13 45v345z" />
    <glyph glyph-name="f_j" unicode="fj" horiz-adv-x="565" 
d="M363 -13v345h-142v-332h-142v332h-71v118h71v36q0 99 59 151.5t145 52.5q78 0 124 -30v-132q-46 31 -102 31q-36 0 -60 -18t-24 -57v-34h284v-487q0 -78 -47.5 -115.5t-124.5 -37.5q-44 0 -87 15v118q39 -13 64 -13q27 0 40 12t13 45z" />
    <glyph glyph-name="f_b" unicode="fb" horiz-adv-x="849" 
d="M79 450v61q0 89 46 134t119 45q39 0 70 -14v-129q-20 10 -48 10q-45 0 -45 -53v-54h81v-118h-81v-332h-142v332h-71v118h71zM363 26v654h142v-242q39 22 98 22q95 0 156.5 -61t61.5 -160q0 -113 -68.5 -181t-199.5 -68q-100 0 -190 36zM505 309v-189q23 -9 54 -9
q52 0 84.5 30t32.5 94q0 42 -28 69.5t-70 27.5t-73 -23z" />
    <glyph glyph-name="f_k" unicode="fk" horiz-adv-x="828" 
d="M79 450v61q0 89 46 134t119 45q39 0 70 -14v-129q-20 10 -48 10q-45 0 -45 -53v-54h81v-118h-81v-332h-142v332h-71v118h71zM667 0l-157 244l149 206h165l-158 -204l162 -246h-161zM505 680v-680h-142v680h142z" />
    <glyph glyph-name="f_h" unicode="fh" horiz-adv-x="837" 
d="M79 450v61q0 89 46 134t119 45q39 0 70 -14v-129q-20 10 -48 10q-45 0 -45 -53v-54h81v-118h-81v-332h-142v332h-71v118h71zM363 0v680h142v-238q41 18 103 18q79 0 127 -43.5t48 -141.5v-275h-142v269q0 64 -64 64q-45 0 -72 -10v-323h-142z" />
    <glyph glyph-name="f_f_b" unicode="ffb" horiz-adv-x="1133" 
d="M505 332v-332h-142v332h-142v-332h-142v332h-71v118h71v45q0 89 46 134t119 45q44 0 78 -17v-130q-22 15 -54 15q-47 0 -47 -54v-38h142v61q0 89 46.5 134t119.5 45q39 0 69 -14v-129q-20 10 -48 10q-45 0 -45 -53v-54h81v-118h-81zM647 26v654h142v-242q39 22 98 22
q95 0 156.5 -61t61.5 -160q0 -113 -68.5 -181t-199.5 -68q-100 0 -190 36zM789 309v-189q23 -9 54 -9q52 0 84.5 30t32.5 94q0 42 -28 69.5t-70 27.5t-73 -23z" />
    <glyph glyph-name="f_f_h" unicode="ffh" horiz-adv-x="1121" 
d="M505 332v-332h-142v332h-142v-332h-142v332h-71v118h71v45q0 89 46 134t119 45q44 0 78 -17v-130q-22 15 -54 15q-47 0 -47 -54v-38h142v61q0 89 46.5 134t119.5 45q39 0 69 -14v-129q-20 10 -48 10q-45 0 -45 -53v-54h81v-118h-81zM647 0v680h142v-238q41 18 103 18
q79 0 127 -43.5t48 -141.5v-275h-142v269q0 64 -64 64q-45 0 -72 -10v-323h-142z" />
    <glyph glyph-name="f_f_k" unicode="ffk" horiz-adv-x="1112" 
d="M505 332v-332h-142v332h-142v-332h-142v332h-71v118h71v45q0 89 46 134t119 45q44 0 78 -17v-130q-22 15 -54 15q-47 0 -47 -54v-38h142v61q0 89 46.5 134t119.5 45q39 0 69 -14v-129q-20 10 -48 10q-45 0 -45 -53v-54h81v-118h-81zM951 0l-157 244l149 206h165
l-158 -204l162 -246h-161zM789 680v-680h-142v680h142z" />
    <glyph glyph-name=".notdef" horiz-adv-x="190" 
 />
    <glyph glyph-name=".null" horiz-adv-x="0" 
 />
    <glyph glyph-name="nonmarkingreturn" horiz-adv-x="333" 
 />
    <glyph glyph-name="space" unicode=" " horiz-adv-x="190" 
 />
    <glyph glyph-name="exclam" unicode="!" horiz-adv-x="256" 
d="M199 594v-388h-142v388h142zM37 82q0 38 26.5 64.5t63.5 26.5t64 -26.5t27 -64.5q0 -37 -26.5 -63.5t-64.5 -26.5q-37 0 -63.5 26t-26.5 64z" />
    <glyph glyph-name="quotedbl" unicode="&#x22;" horiz-adv-x="382" 
d="M50 407l20 237h121l-40 -237h-101zM211 407l20 237h121l-43 -237h-98z" />
    <glyph glyph-name="numbersign" unicode="#" horiz-adv-x="549" 
d="M205 153l-31 -153h-106l31 153h-69v93h88l21 107h-77v93h96l30 148h106l-30 -148h84l30 148h106l-30 -148h65v-93h-84l-21 -107h73v-93h-92l-31 -153h-106l31 153h-84zM224 246h84l21 107h-84z" />
    <glyph glyph-name="dollar" unicode="$" horiz-adv-x="453" 
d="M175 -95v96q-84 4 -143 40v141q83 -59 167 -59q85 0 85 51q0 25 -21 38t-71 24q-93 22 -132.5 64.5t-39.5 115.5q0 69 42.5 114.5t112.5 58.5v91h110v-90q61 -8 111 -38v-141q-75 60 -160 60q-34 0 -51.5 -12.5t-17.5 -33.5q0 -26 22.5 -38.5t76.5 -25.5
q91 -23 129 -65.5t38 -116.5q0 -69 -40 -111.5t-108 -58.5v-104h-110z" />
    <glyph glyph-name="percent" unicode="%" horiz-adv-x="696" 
d="M20 451q0 67 44 110t109 43t109 -43t44 -110t-44 -110t-109 -43t-109 43t-44 110zM123 451q0 -24 14 -38t36 -14q23 0 37 14t14 38t-14 38.5t-37 14.5q-22 0 -36 -14.5t-14 -38.5zM676 143q0 -67 -44 -110t-109 -43t-109 43t-44 110t44 110t109 43t109 -43t44 -110z
M574 143q0 24 -14 38.5t-37 14.5q-22 0 -36 -14.5t-14 -38.5t14 -38t36 -14q23 0 37 14t14 38zM573 594l-357 -594h-94l357 594h94z" />
    <glyph glyph-name="ampersand" unicode="&#x26;" horiz-adv-x="601" 
d="M339 288l71 -78q22 45 27 101h120q-3 -108 -66 -190l110 -121h-171l-33 35q-76 -45 -168 -45q-98 0 -153 45.5t-55 124.5q0 61 29 97t83 58q-47 56 -47 129q0 71 50.5 115.5t130.5 44.5q74 0 124.5 -41t50.5 -111q-2 -61 -33 -104q-25 -35 -70 -60zM318 118l-114 120
q-42 -24 -42 -72q0 -64 83 -64q38 0 73 16zM269 365q45 28 46 79q0 23 -13.5 35.5t-33.5 12.5t-33 -13t-13 -32t10 -35.5t37 -46.5z" />
    <glyph glyph-name="quotesingle" unicode="'" horiz-adv-x="221" 
d="M50 407l20 237h121l-40 -237h-101z" />
    <glyph glyph-name="parenleft" unicode="(" horiz-adv-x="421" 
d="M411 -138h-155q-80 75 -126 185.5t-46 223.5t46 224t126 185h155q-92 -91 -139.5 -196.5t-47.5 -212.5t47.5 -212.5t139.5 -196.5z" />
    <glyph glyph-name="parenright" unicode=")" horiz-adv-x="421" 
d="M10 680h155q80 -74 126 -185t46 -224t-46 -223.5t-126 -185.5h-155q92 91 139.5 196.5t47.5 212.5t-47.5 212.5t-139.5 196.5z" />
    <glyph glyph-name="asterisk" unicode="*" horiz-adv-x="400" 
d="M204 429l-57 -81l-83 59l60 80l-94 29l31 99l94 -34l-2 99h104l-3 -100l93 33l33 -98l-96 -29l60 -79l-83 -61z" />
    <glyph glyph-name="plus" unicode="+" horiz-adv-x="459" 
d="M178 241h-138v103h138v138h103v-138h138v-103h-138v-138h-103v138z" />
    <glyph glyph-name="comma" unicode="," horiz-adv-x="273" 
d="M71 125h144q0 -158 -104 -237h-102q62 96 62 237z" />
    <glyph glyph-name="hyphen" unicode="-" horiz-adv-x="355" 
d="M34 198v126h287v-126h-287z" />
    <glyph glyph-name="period" unicode="." horiz-adv-x="273" 
d="M46 82q0 38 26.5 64.5t63.5 26.5q38 0 64.5 -26.5t26.5 -64.5q0 -37 -26.5 -63.5t-64.5 -26.5t-64 26t-26 64z" />
    <glyph glyph-name="slash" unicode="/" horiz-adv-x="459" 
d="M-12 -138l314 818h146l-314 -818h-146z" />
    <glyph glyph-name="zero" unicode="0" horiz-adv-x="525" 
d="M26 296q0 137 65 222.5t172 85.5q106 0 171 -85.5t65 -222.5q0 -136 -65 -221t-171 -85q-107 0 -172 85t-65 221zM174 296q0 -89 23.5 -134.5t65.5 -45.5q41 0 65 45.5t24 134.5q0 90 -24 136t-65 46q-42 0 -65.5 -45.5t-23.5 -136.5z" />
    <glyph glyph-name="one" unicode="1" horiz-adv-x="332" 
d="M21 428v134l254 41v-603h-147v441z" />
    <glyph glyph-name="two" unicode="2" horiz-adv-x="453" 
d="M209 131h219v-131h-413v109q68 59 95.5 84t69.5 68.5t58 74.5t16 61q0 70 -81 70q-34 0 -75 -19.5t-72 -46.5v140q74 63 191 63q85 0 140.5 -47.5t55.5 -132.5q0 -79 -52.5 -149t-151.5 -144z" />
    <glyph glyph-name="three" unicode="3" horiz-adv-x="423" 
d="M32 412v137q72 55 174 55q84 0 133.5 -41.5t49.5 -116.5q0 -101 -97 -146q108 -35 108 -141q0 -85 -63.5 -127t-151.5 -42q-95 0 -165 44v138q70 -60 152 -60q36 0 57.5 14.5t21.5 43.5q0 36 -30 51t-94 15v116q113 0 113 72q0 51 -60 51q-70 0 -148 -63z" />
    <glyph glyph-name="four" unicode="4" horiz-adv-x="558" 
d="M441 594v-342h80v-116h-80v-136h-142v136h-278v120l279 338h141zM299 424l-138 -172h138v172z" />
    <glyph glyph-name="five" unicode="5" horiz-adv-x="422" 
d="M189 462l-6 -75q211 -29 211 -199q0 -95 -61.5 -146.5t-165.5 -51.5q-95 0 -153 44v131q72 -53 146 -53q96 0 96 71q0 26 -17 45t-49 29.5t-64.5 16t-77.5 8.5l22 312h311v-132h-192z" />
    <glyph glyph-name="six" unicode="6" horiz-adv-x="480" 
d="M203 594h154l-79 -135l-40 -64q14 4 32 4q79 0 137 -53t58 -144q0 -92 -62.5 -152t-164.5 -60q-98 0 -157 60t-59 152q0 83 73 207zM159 198q0 -39 23.5 -62.5t58.5 -23.5q36 0 59.5 23.5t23.5 62.5q0 40 -23.5 63.5t-59.5 23.5q-35 0 -58.5 -23.5t-23.5 -63.5z" />
    <glyph glyph-name="seven" unicode="7" horiz-adv-x="450" 
d="M257 462h-244v132h401v-133l-222 -461h-152z" />
    <glyph glyph-name="eight" unicode="8" horiz-adv-x="462" 
d="M231 -10q-90 0 -150 47t-60 126q0 50 28.5 85.5t70.5 50.5q-78 40 -78 134q0 79 54.5 125t134.5 46q81 0 134.5 -46t53.5 -125q0 -94 -76 -134q41 -15 69.5 -50.5t28.5 -85.5q0 -79 -60 -126t-150 -47zM231 365q26 0 42.5 16t16.5 44q0 27 -16.5 43t-42.5 16t-42.5 -16
t-16.5 -43q0 -28 16.5 -44t42.5 -16zM231 109q29 0 47.5 16.5t18.5 44.5q0 29 -18.5 46.5t-47.5 17.5t-47.5 -17.5t-18.5 -46.5q0 -28 18.5 -44.5t47.5 -16.5z" />
    <glyph glyph-name="nine" unicode="9" horiz-adv-x="480" 
d="M277 0h-154l79 135l40 64q-14 -4 -32 -4q-79 0 -137 53t-58 144q0 92 62.5 152t164.5 60q98 0 157 -60t59 -152q0 -83 -73 -207zM321 396q0 39 -23.5 62.5t-58.5 23.5q-36 0 -59.5 -23.5t-23.5 -62.5q0 -40 23.5 -63.5t59.5 -23.5q35 0 58.5 23.5t23.5 63.5z" />
    <glyph glyph-name="colon" unicode=":" horiz-adv-x="273" 
d="M46 82q0 38 26.5 64.5t63.5 26.5q38 0 64.5 -26.5t26.5 -64.5q0 -37 -26.5 -63.5t-64.5 -26.5t-64 26t-26 64zM46 340q0 38 26.5 64.5t63.5 26.5q38 0 64.5 -26.5t26.5 -64.5q0 -37 -26.5 -63.5t-64.5 -26.5t-64 26t-26 64z" />
    <glyph glyph-name="semicolon" unicode=";" horiz-adv-x="273" 
d="M71 125h144q0 -158 -104 -237h-102q62 96 62 237zM54 340q0 38 26.5 64.5t63.5 26.5q38 0 64.5 -26.5t26.5 -64.5q0 -37 -26.5 -63.5t-64.5 -26.5t-64 26t-26 64z" />
    <glyph glyph-name="less" unicode="&#x3c;" horiz-adv-x="359" 
d="M30 287v8l289 184v-117l-124 -71l124 -71v-117z" />
    <glyph glyph-name="equal" unicode="=" horiz-adv-x="469" 
d="M45 168v93h379v-93h-379zM45 328v93h379v-93h-379z" />
    <glyph glyph-name="greater" unicode="&#x3e;" horiz-adv-x="359" 
d="M329 295v-8l-289 -184v117l124 71l-124 71v117z" />
    <glyph glyph-name="question" unicode="?" horiz-adv-x="382" 
d="M15 412v134q66 58 171 58q84 0 135 -41t51 -131q0 -41 -15 -73t-40 -51.5t-48.5 -31t-48.5 -17.5v-53h-131v121q83 23 112 40t29 54q0 54 -66 54q-63 0 -149 -63zM66 80q0 39 25.5 66t61.5 27q40 0 67 -27t27 -66q0 -36 -27 -62t-67 -26q-35 0 -61 26t-26 62z" />
    <glyph glyph-name="at" unicode="@" horiz-adv-x="770" 
d="M557 394v-278q41 18 67.5 63t26.5 109q0 103 -64.5 160t-177.5 57q-136 0 -213.5 -81t-77.5 -213q0 -79 28 -136.5t76.5 -89t103.5 -46t118 -14.5q112 0 204 35v-72q-82 -34 -204 -34q-181 0 -292.5 90.5t-111.5 266.5q0 158 99 261t270 103q150 0 235.5 -79.5
t85.5 -207.5q0 -135 -82 -207t-214 -72q-108 0 -170.5 52.5t-62.5 150.5q0 94 61 150t160 56q75 0 135 -24zM448 110v198q-10 2 -26 2q-48 0 -75.5 -28t-27.5 -71q0 -47 28 -74.5t76 -27.5q14 0 25 1z" />
    <glyph glyph-name="A" unicode="A" horiz-adv-x="641" 
d="M438 113h-240l-41 -113h-157l231 594h179l231 -594h-163zM395 234l-75 211l-77 -211h152z" />
    <glyph glyph-name="B" unicode="B" horiz-adv-x="537" 
d="M61 4v584q94 16 182 16q237 0 237 -169q0 -50 -30.5 -84t-75.5 -43q60 -6 97.5 -43t37.5 -99q0 -174 -287 -174q-81 0 -161 12zM204 238v-122q26 -2 47 -2q106 0 106 63q0 61 -86 61h-67zM204 475v-119h43q87 0 87 66q0 57 -76 57q-32 0 -54 -4z" />
    <glyph glyph-name="C" unicode="C" horiz-adv-x="551" 
d="M500 566v-159q-63 63 -161 63q-72 0 -113 -48t-41 -125q0 -79 44 -126t116 -47q51 0 88.5 14.5t78.5 47.5v-152q-73 -44 -174 -44q-139 0 -222.5 85.5t-83.5 221.5t84.5 221.5t221.5 85.5q97 0 162 -38z" />
    <glyph glyph-name="D" unicode="D" horiz-adv-x="625" 
d="M61 6v583q94 15 199 15q153 0 243 -77.5t90 -223.5q0 -156 -91 -233.5t-246 -77.5q-131 0 -195 14zM210 464v-339q27 -3 64 -3q77 0 121.5 45.5t44.5 135.5q0 82 -47 123t-122 41q-34 0 -61 -3z" />
    <glyph glyph-name="E" unicode="E" horiz-adv-x="505" 
d="M208 131h253v-131h-400v594h393v-131h-246v-102h224v-128h-224v-102z" />
    <glyph glyph-name="F" unicode="F" horiz-adv-x="451" 
d="M210 0h-149v594h361v-131h-212v-126h189v-129h-189v-208z" />
    <glyph glyph-name="G" unicode="G" horiz-adv-x="587" 
d="M524 559v-153q-70 65 -174 65q-77 0 -121 -47.5t-44 -126.5q0 -82 45.5 -130.5t119.5 -48.5q34 0 51 5v155h146v-243q-68 -45 -201 -45q-145 0 -229.5 82t-84.5 225q0 136 85.5 221.5t222.5 85.5q112 0 184 -45z" />
    <glyph glyph-name="H" unicode="H" horiz-adv-x="658" 
d="M448 361v233h149v-594h-149v229h-238v-229h-149v594h149v-233h238z" />
    <glyph glyph-name="I" unicode="I" horiz-adv-x="271" 
d="M210 594v-594h-149v594h149z" />
    <glyph glyph-name="J" unicode="J" horiz-adv-x="394" 
d="M20 23v145q52 -41 108 -41q31 0 48 11.5t17 44.5v411h149v-428q0 -86 -52 -131t-141 -45q-79 0 -129 33z" />
    <glyph glyph-name="K" unicode="K" horiz-adv-x="578" 
d="M61 0v594h149v-594h-149zM213 294l181 300h172l-191 -288l204 -306h-175z" />
    <glyph glyph-name="L" unicode="L" horiz-adv-x="456" 
d="M61 0v594h149v-463h226v-131h-375z" />
    <glyph glyph-name="M" unicode="M" horiz-adv-x="826" 
d="M478 0h-132l-115 373l-51 -373h-147l81 594h178l124 -402l117 402h179l81 -594h-148l-52 373z" />
    <glyph glyph-name="N" unicode="N" horiz-adv-x="655" 
d="M211 594l239 -364v364h144v-594h-141l-248 357v-357h-144v594h150z" />
    <glyph glyph-name="O" unicode="O" horiz-adv-x="683" 
d="M32 297q0 134 89 220.5t220 86.5t220.5 -86.5t89.5 -220.5t-89.5 -220.5t-220.5 -86.5t-220 86.5t-89 220.5zM497 297q0 77 -43.5 125t-112.5 48q-68 0 -112 -48t-44 -125t44 -125t112 -48q69 0 112.5 48t43.5 125z" />
    <glyph glyph-name="P" unicode="P" horiz-adv-x="526" 
d="M210 174v-174h-149v589q94 15 194 15q115 0 183.5 -55t68.5 -164q0 -74 -36 -123.5t-89 -69.5t-119 -20q-29 0 -53 2zM210 468v-167q14 -2 45 -2q102 0 102 86q0 44 -28.5 65t-73.5 21q-27 0 -45 -3z" />
    <glyph glyph-name="Q" unicode="Q" horiz-adv-x="683" 
d="M435 -144l-112 135q-124 6 -207.5 91.5t-83.5 214.5q0 134 89 220.5t220 86.5t220.5 -86.5t89.5 -220.5q0 -96 -48.5 -170t-129.5 -110l135 -161h-173zM497 297q0 77 -43.5 125t-112.5 48q-68 0 -112 -48t-44 -125t44 -125t112 -48q69 0 112.5 48t43.5 125z" />
    <glyph glyph-name="R" unicode="R" horiz-adv-x="555" 
d="M209 190v-190h-148v591q76 13 188 13q118 0 186 -51.5t68 -154.5q0 -60 -29.5 -105.5t-77.5 -70.5l159 -222h-175l-128 190h-43zM209 473v-161h37q106 0 106 82q0 81 -102 81q-25 0 -41 -2z" />
    <glyph glyph-name="S" unicode="S" horiz-adv-x="458" 
d="M38 32v146q81 -61 164 -61q84 0 84 53q0 25 -21 38.5t-70 25.5q-91 23 -130 67t-39 119q0 86 58 135t148 49q91 0 164 -43v-146q-75 62 -158 62q-33 0 -50 -13t-17 -35q0 -26 22 -39t75 -27q90 -24 127 -68t37 -120q0 -92 -64 -138.5t-165 -46.5q-97 0 -165 42z" />
    <glyph glyph-name="T" unicode="T" horiz-adv-x="534" 
d="M341 463v-463h-148v463h-178v131h504v-131h-178z" />
    <glyph glyph-name="U" unicode="U" horiz-adv-x="614" 
d="M54 213v381h149v-348q0 -71 27 -101.5t80 -30.5q40 0 94 8v472h149v-573q-38 -12 -112 -21.5t-131 -9.5q-114 0 -185 52.5t-71 170.5z" />
    <glyph glyph-name="V" unicode="V" horiz-adv-x="623" 
d="M402 0h-181l-221 594h160l153 -443l151 443h159z" />
    <glyph glyph-name="W" unicode="W" horiz-adv-x="875" 
d="M364 594h150l103 -422l93 422h145l-141 -594h-185l-93 385l-92 -385h-183l-141 594h149l94 -422z" />
    <glyph glyph-name="X" unicode="X" horiz-adv-x="587" 
d="M571 594l-194 -287l210 -307h-171l-122 187l-127 -187h-167l211 307l-194 287h172l106 -167l110 167h166z" />
    <glyph glyph-name="Y" unicode="Y" horiz-adv-x="575" 
d="M290 358l120 236h165l-214 -378v-216h-148v216l-213 378h164z" />
    <glyph glyph-name="Z" unicode="Z" horiz-adv-x="510" 
d="M30 463v131h444v-131l-273 -332h278v-131h-448v131l267 332h-268z" />
    <glyph glyph-name="bracketleft" unicode="[" horiz-adv-x="379" 
d="M235 569v-596h94v-111h-226v818h226v-111h-94z" />
    <glyph glyph-name="backslash" unicode="\" horiz-adv-x="459" 
d="M157 680l314 -818h-146l-314 818h146z" />
    <glyph glyph-name="bracketright" unicode="]" horiz-adv-x="379" 
d="M144 -27v596h-94v111h226v-818h-226v111h94z" />
    <glyph glyph-name="asciicircum" unicode="^" horiz-adv-x="456" 
d="M290 594l146 -256h-134l-74 134l-74 -134h-134l146 256h124z" />
    <glyph glyph-name="underscore" unicode="_" horiz-adv-x="462" 
d="M50 -155v116h362v-116h-362z" />
    <glyph glyph-name="grave" unicode="`" horiz-adv-x="500" 
d="M356 513h-128l-85 152h128z" />
    <glyph glyph-name="a" unicode="a" horiz-adv-x="471" 
d="M279 269v18q0 53 -76 53q-69 0 -129 -37v120q63 37 155 37q190 0 190 -167v-283q-88 -20 -184 -20q-201 0 -201 141q0 138 197 138h48zM279 96v87h-38q-66 0 -66 -45q0 -46 58 -46q27 0 46 4z" />
    <glyph glyph-name="b" unicode="b" horiz-adv-x="547" 
d="M61 26v654h142v-242q39 22 98 22q95 0 156.5 -61t61.5 -160q0 -113 -68.5 -181t-199.5 -68q-100 0 -190 36zM203 309v-189q23 -9 54 -9q52 0 84.5 30t32.5 94q0 42 -28 69.5t-70 27.5t-73 -23z" />
    <glyph glyph-name="c" unicode="c" horiz-adv-x="432" 
d="M395 427v-132q-49 41 -112 41q-51 0 -81.5 -29.5t-30.5 -80.5q0 -49 31 -80.5t86 -31.5q62 0 109 39v-130q-50 -33 -130 -33q-112 0 -175.5 64t-63.5 170q0 104 66.5 170t172.5 66q73 0 128 -33z" />
    <glyph glyph-name="d" unicode="d" horiz-adv-x="543" 
d="M482 680v-667q-86 -23 -196 -23q-119 0 -188.5 61t-69.5 173q0 105 63.5 170.5t169.5 65.5q51 0 79 -12v232h142zM340 115v208q-26 13 -66 13q-47 0 -74.5 -28.5t-27.5 -78.5q0 -57 31 -87.5t88 -30.5q26 0 49 4z" />
    <glyph glyph-name="e" unicode="e" horiz-adv-x="483" 
d="M447 181h-282v-2q8 -34 43 -51t78 -17q80 0 149 36v-117q-60 -40 -165 -40q-113 0 -177.5 62t-64.5 166q0 112 62 177t160 65q104 0 150.5 -60.5t46.5 -157.5v-61zM166 261h151q0 36 -17 59.5t-53 23.5q-33 0 -54 -22.5t-27 -60.5z" />
    <glyph glyph-name="f" unicode="f" horiz-adv-x="332" 
d="M221 332v-332h-142v332h-71v118h71v55q0 94 47.5 139.5t127.5 45.5q52 0 96 -22v-129q-37 22 -75 22q-54 0 -54 -54v-57h105v-118h-105z" />
    <glyph glyph-name="g" unicode="g" horiz-adv-x="531" 
d="M332 11v10q-26 -14 -80 -14q-101 0 -162.5 59t-61.5 165q0 107 67 168t184 61q104 0 195 -36v-413q0 -57 -21.5 -98.5t-57.5 -62.5t-73.5 -30.5t-79.5 -9.5q-85 0 -159 35v131q79 -47 159 -47q41 0 65.5 21.5t24.5 60.5zM332 136v193q-21 8 -53 8q-50 0 -78.5 -26.5
t-28.5 -79.5q0 -49 27.5 -77.5t71.5 -28.5q28 0 61 11z" />
    <glyph glyph-name="h" unicode="h" horiz-adv-x="535" 
d="M61 0v680h142v-238q41 18 103 18q79 0 127 -43.5t48 -141.5v-275h-142v269q0 64 -64 64q-44 0 -72 -10v-323h-142z" />
    <glyph glyph-name="i" unicode="i" horiz-adv-x="264" 
d="M203 450v-450h-142v450h142zM132 504q-34 0 -58 23.5t-24 57.5t24 58t58 24q33 0 57 -24t24 -58q0 -33 -24 -57t-57 -24z" />
    <glyph glyph-name="j" unicode="j" horiz-adv-x="264" 
d="M61 -13v463h142v-487q0 -78 -47.5 -115.5t-124.5 -37.5q-44 0 -87 15v118q39 -13 64 -13q27 0 40 12t13 45zM132 504q-34 0 -58 23.5t-24 57.5t24 58t58 24q33 0 57 -24t24 -58q0 -33 -24 -57t-57 -24z" />
    <glyph glyph-name="k" unicode="k" horiz-adv-x="526" 
d="M365 0l-157 244l149 206h165l-158 -204l162 -246h-161zM203 680v-680h-142v680h142z" />
    <glyph glyph-name="l" unicode="l" horiz-adv-x="264" 
d="M203 680v-680h-142v680h142z" />
    <glyph glyph-name="m" unicode="m" horiz-adv-x="776" 
d="M579 0v274q0 30 -12 46t-45 16q-38 0 -68 -15q7 -16 7 -37v-284h-142v274q0 62 -56 62q-25 0 -60 -9v-327h-142v420q107 40 210 40q81 0 125 -36q72 36 148 36q86 0 131.5 -40.5t45.5 -139.5v-280h-142z" />
    <glyph glyph-name="n" unicode="n" horiz-adv-x="535" 
d="M61 0v418q105 42 224 42q95 0 145.5 -42t50.5 -143v-275h-142v269q0 64 -64 64q-42 0 -72 -11v-322h-142z" />
    <glyph glyph-name="o" unicode="o" horiz-adv-x="533" 
d="M28 225q0 104 68 169.5t170 65.5q103 0 171 -65.5t68 -169.5t-68 -169.5t-171 -65.5q-102 0 -170 65.5t-68 169.5zM362 225q0 52 -26.5 82.5t-69.5 30.5q-42 0 -68.5 -30.5t-26.5 -82.5t26.5 -82.5t68.5 -30.5q43 0 69.5 30.5t26.5 82.5z" />
    <glyph glyph-name="p" unicode="p" horiz-adv-x="541" 
d="M56 -180v599q95 41 210 41q110 0 178.5 -60.5t68.5 -162.5q0 -119 -66 -183t-186 -64q-39 0 -63 6v-176h-142zM198 323v-203q21 -7 51 -7q53 0 86.5 29t33.5 89q0 49 -29.5 75.5t-76.5 26.5q-38 0 -65 -10z" />
    <glyph glyph-name="q" unicode="q" horiz-adv-x="539" 
d="M482 423v-603h-142v179q-32 -9 -77 -9q-107 0 -171 63t-64 171t68.5 172t188.5 64q102 0 197 -37zM340 124v203q-28 8 -55 8q-52 0 -82 -28t-30 -83q0 -51 28 -81t76 -30q30 0 63 11z" />
    <glyph glyph-name="r" unicode="r" horiz-adv-x="359" 
d="M203 318v-318h-142v417q77 40 184 40q53 0 100 -13v-137q-39 17 -94 17q-23 0 -48 -6z" />
    <glyph glyph-name="s" unicode="s" horiz-adv-x="420" 
d="M47 27v125q74 -49 149 -49q53 0 53 28q0 14 -12 22t-43 12q-82 11 -118.5 45t-36.5 98q0 75 50.5 113.5t131.5 38.5q73 0 135 -34v-121q-66 42 -129 42q-50 0 -50 -29q0 -24 46 -31q93 -15 128.5 -51t35.5 -100q0 -73 -50 -109.5t-137 -36.5q-91 0 -153 37z" />
    <glyph glyph-name="t" unicode="t" horiz-adv-x="374" 
d="M0 332v118h67v111h141v-111h129v-118h-129v-148q0 -63 59 -63q45 0 82 25v-130q-49 -26 -122 -26q-69 0 -114.5 36.5t-45.5 116.5v189h-67z" />
    <glyph glyph-name="u" unicode="u" horiz-adv-x="522" 
d="M461 450v-434q-83 -26 -195 -26q-105 0 -159.5 40t-54.5 139v281h142v-268q0 -40 14.5 -58t57.5 -18q24 0 53 6v338h142z" />
    <glyph glyph-name="v" unicode="v" horiz-adv-x="521" 
d="M344 0h-167l-172 450h154l104 -309l104 309h149z" />
    <glyph glyph-name="w" unicode="w" horiz-adv-x="718" 
d="M421 450l76 -292l74 292h142l-128 -450h-155l-72 263l-72 -263h-153l-128 450h146l73 -292l77 292h120z" />
    <glyph glyph-name="x" unicode="x" horiz-adv-x="503" 
d="M489 450l-156 -218l166 -232h-165l-87 125l-85 -125h-158l166 231l-156 219h169l71 -112l72 112h163z" />
    <glyph glyph-name="y" unicode="y" horiz-adv-x="515" 
d="M158 450l103 -293l101 293h148l-246 -630h-140l65 171l-184 459h153z" />
    <glyph glyph-name="z" unicode="z" horiz-adv-x="435" 
d="M411 117v-117h-382v114l193 219h-188v117h360v-118l-195 -215h212z" />
    <glyph glyph-name="braceleft" unicode="{" horiz-adv-x="401" 
d="M291 528v-106q0 -66 -38 -107.5t-92 -43.5q54 -2 92 -43.5t38 -107.5v-106q0 -13 1.5 -20.5t9.5 -14t23 -6.5h36v-111h-58q-68 0 -107 38t-39 113v118q0 82 -74 82h-27v116h27q74 0 74 82v118q0 75 39 113t107 38h58v-111h-36q-15 0 -23 -6.5t-9.5 -14t-1.5 -20.5z" />
    <glyph glyph-name="bar" unicode="|" horiz-adv-x="309" 
d="M88 -138v818h133v-818h-133z" />
    <glyph glyph-name="braceright" unicode="}" horiz-adv-x="401" 
d="M110 14v106q0 66 38 107.5t92 43.5q-54 2 -92 43.5t-38 107.5v106q0 13 -1.5 20.5t-9.5 14t-23 6.5h-36v111h58q68 0 107 -38t39 -113v-118q0 -82 74 -82h27v-116h-27q-74 0 -74 -82v-118q0 -75 -39 -113t-107 -38h-58v111h36q15 0 23 6.5t9.5 14t1.5 20.5z" />
    <glyph glyph-name="asciitilde" unicode="~" horiz-adv-x="417" 
d="M281 350h101q0 -76 -27.5 -118.5t-78.5 -42.5q-32 0 -64 24t-45 24q-31 0 -31 -43h-101q0 76 27.5 118.5t78.5 42.5q32 0 64.5 -24t45.5 -24q30 0 30 43z" />
    <glyph glyph-name="uni00A0" unicode="&#xa0;" horiz-adv-x="190" 
 />
    <glyph glyph-name="exclamdown" unicode="&#xa1;" horiz-adv-x="256" 
d="M199 252v-388h-142v388h142zM37 376q0 38 26.5 64t63.5 26q38 0 64.5 -26.5t26.5 -63.5q0 -38 -27 -64.5t-64 -26.5t-63.5 26.5t-26.5 64.5z" />
    <glyph glyph-name="cent" unicode="&#xa2;" horiz-adv-x="429" 
d="M307 542v-85q44 -5 85 -30v-132q-49 41 -112 41q-51 0 -81.5 -29.5t-30.5 -80.5q0 -49 31 -80.5t86 -31.5q62 0 109 39v-130q-36 -23 -87 -30v-88h-110v92q-82 18 -127 78t-45 149q0 86 46.5 147t125.5 81v90h110z" />
    <glyph glyph-name="sterling" unicode="&#xa3;" horiz-adv-x="456" 
d="M93 238h-68v112h69v47q0 103 55 155t144 52q90 0 135 -41v-148q-47 52 -117 52q-76 0 -76 -81v-36h132v-112h-133q-10 -72 -60 -110h262v-129h-411v129q33 16 48.5 41t19.5 69z" />
    <glyph glyph-name="currency" unicode="&#xa4;" horiz-adv-x="582" 
d="M53 119l73 74q-32 50 -32 112q0 64 33 113l-73 73l52 52l73 -74q50 33 112 33t111 -33l74 73l52 -52l-73 -73q33 -49 33 -112q0 -64 -33 -113l74 -72l-53 -52l-73 73q-50 -33 -112 -33t-112 33l-74 -74zM217 304q0 -33 21.5 -55.5t52.5 -22.5q32 0 53.5 22.5t21.5 55.5
q0 34 -21.5 56.5t-53.5 22.5t-53 -22.5t-21 -56.5z" />
    <glyph glyph-name="yen" unicode="&#xa5;" horiz-adv-x="555" 
d="M171 287l-161 307h159l111 -235l105 235h160l-161 -307h87v-70h-120v-51h120v-70h-120v-96h-148v96h-120v70h120v51h-120v70h88z" />
    <glyph glyph-name="brokenbar" unicode="&#xa6;" horiz-adv-x="309" 
d="M88 339v341h133v-341h-133zM88 -138v341h133v-341h-133z" />
    <glyph glyph-name="section" unicode="&#xa7;" horiz-adv-x="492" 
d="M95 -83v121q66 -42 129 -42q50 0 50 29q0 13 -15 21.5t-62 23.5q-86 28 -126.5 64.5t-40.5 101.5q0 90 85 129q-35 35 -35 96q0 69 51 106t131 37q73 0 135 -34v-121q-66 42 -129 42q-50 0 -50 -29q0 -13 15 -21.5t62 -23.5q86 -28 126.5 -64.5t40.5 -101.5
q0 -92 -86 -129q36 -35 36 -96q0 -69 -51 -106t-131 -37q-73 0 -135 34zM257 181l15 -5q59 26 59 61q0 23 -19.5 37.5t-76.5 31.5l-15 4q-59 -24 -59 -60q0 -24 18.5 -37t77.5 -32z" />
    <glyph glyph-name="dieresis" unicode="&#xa8;" horiz-adv-x="500" 
d="M155 504q-32 0 -54.5 23t-22.5 55t22.5 54.5t54.5 22.5t55 -22.5t23 -54.5t-23 -55t-55 -23zM343 504q-32 0 -54.5 23t-22.5 55t22.5 54.5t54.5 22.5t55 -22.5t23 -54.5t-23 -55t-55 -23z" />
    <glyph glyph-name="copyright" unicode="&#xa9;" horiz-adv-x="698" 
d="M45 297q0 131 86.5 219t217.5 88t217.5 -88t86.5 -219t-86.5 -219t-217.5 -88t-217.5 88t-86.5 219zM85 297q0 -118 74.5 -194t189.5 -76t189.5 76t74.5 194t-74.5 194t-189.5 76t-189.5 -76t-74.5 -194zM474 245v-121q-44 -27 -103 -27q-92 0 -147 55.5t-55 144.5
t55 144.5t147 55.5q57 0 101 -27v-121q-39 41 -95 41q-40 0 -64 -26t-24 -67t24 -67t64 -26q58 0 97 41z" />
    <glyph glyph-name="ordfeminine" unicode="&#xaa;" horiz-adv-x="355" 
d="M209 458v8q0 40 -57 40q-52 0 -98 -28v98q48 28 118 28q150 0 150 -128v-216q-73 -15 -145 -15q-155 0 -155 108q0 105 151 105h36zM209 332v57h-25q-44 0 -44 -30t39 -30q15 0 30 3z" />
    <glyph glyph-name="guillemotleft" unicode="&#xab;" horiz-adv-x="507" 
d="M287 373l-122 -158l122 -158h-134l-123 158l123 158h134zM477 373l-122 -158l122 -158h-134l-123 158l123 158h134z" />
    <glyph glyph-name="uni00AD" unicode="&#xad;" horiz-adv-x="355" 
d="M34 198v126h287v-126h-287z" />
    <glyph glyph-name="registered" unicode="&#xae;" horiz-adv-x="455" 
d="M227 225q-80 0 -133.5 54.5t-53.5 134.5q0 81 53 135.5t134 54.5t134.5 -54.5t53.5 -135.5q0 -80 -53.5 -134.5t-134.5 -54.5zM227 260q65 0 107 44.5t42 109.5q0 66 -42 110.5t-107 44.5t-106.5 -44.5t-41.5 -110.5q0 -65 42 -109.5t106 -44.5zM209 376v-54h-57v185
q32 8 72 8q39 0 63.5 -18t24.5 -52q0 -44 -39 -58l51 -65h-65l-38 54h-12zM209 461v-41h13q30 0 30 21q0 22 -27 22q-8 0 -16 -2z" />
    <glyph glyph-name="macron" unicode="&#xaf;" horiz-adv-x="500" 
d="M130 516v102h239v-102h-239z" />
    <glyph glyph-name="degree" unicode="&#xb0;" horiz-adv-x="306" 
d="M25 478q0 53 37 89.5t91 36.5t91 -36.5t37 -89.5t-37 -89.5t-91 -36.5t-91 36.5t-37 89.5zM99 478q0 -24 14.5 -40t39.5 -16t39.5 16t14.5 40t-14.5 40t-39.5 16t-39.5 -16t-14.5 -40z" />
    <glyph glyph-name="plusminus" unicode="&#xb1;" horiz-adv-x="459" 
d="M178 318h-128v103h128v98h103v-98h128v-103h-128v-98h-103v98zM50 78v103h359v-103h-359z" />
    <glyph glyph-name="twosuperior" unicode="&#xb2;" horiz-adv-x="285" 
d="M151 324h121v-94h-261v81q66 51 101.5 87t35.5 64q0 38 -41 38q-46 0 -92 -38v100q47 38 122 38q57 0 91.5 -30t34.5 -82q0 -46 -27.5 -83.5t-84.5 -80.5z" />
    <glyph glyph-name="threesuperior" unicode="&#xb3;" horiz-adv-x="273" 
d="M22 467v102q48 31 112 31q54 0 86 -25.5t32 -74.5q0 -32 -19.5 -56t-47.5 -31q73 -19 73 -84q0 -56 -41.5 -80.5t-95.5 -24.5q-58 0 -108 27v106q42 -40 96 -40q37 0 37 26q0 18 -15.5 23t-52.5 5v76q62 0 62 31q0 24 -32 24q-45 0 -86 -35z" />
    <glyph glyph-name="acute" unicode="&#xb4;" horiz-adv-x="500" 
d="M271 513h-128l85 152h128z" />
    <glyph glyph-name="mu" unicode="&#xb5;" horiz-adv-x="522" 
d="M52 -180v630h142v-268q0 -40 14.5 -58t57.5 -18q24 0 53 6v338h142v-434q-83 -26 -182 -26q-55 0 -85 13v-183h-142z" />
    <glyph glyph-name="paragraph" unicode="&#xb6;" horiz-adv-x="519" 
d="M362 -106v700h106v-700h-106zM222 -106v332q-85 0 -143.5 48.5t-58.5 135.5t58.5 135.5t143.5 48.5h106v-700h-106z" />
    <glyph glyph-name="periodcentered" unicode="&#xb7;" horiz-adv-x="281" 
d="M50 261q0 38 26.5 64.5t63.5 26.5q38 0 64.5 -27t26.5 -64t-26.5 -63.5t-64.5 -26.5t-64 26.5t-26 63.5z" />
    <glyph glyph-name="cedilla" unicode="&#xb8;" horiz-adv-x="500" 
d="M232 16h114q0 -48 -20 -94t-51 -68h-121q78 72 78 162z" />
    <glyph glyph-name="onesuperior" unicode="&#xb9;" horiz-adv-x="217" 
d="M11 474v98l173 28v-370h-111v251z" />
    <glyph glyph-name="ordmasculine" unicode="&#xba;" horiz-adv-x="404" 
d="M20 425q0 79 52 129t130 50t130 -50t52 -129t-52 -129.5t-130 -50.5t-130 50.5t-52 129.5zM265 425q0 35 -17.5 55t-45.5 20t-46 -20t-18 -55t18 -55t46 -20t45.5 20t17.5 55z" />
    <glyph glyph-name="guillemotright" unicode="&#xbb;" horiz-adv-x="507" 
d="M152 215l-122 158h134l123 -158l-123 -158h-134zM342 215l-122 158h134l123 -158l-123 -158h-134z" />
    <glyph glyph-name="onequarter" unicode="&#xbc;" horiz-adv-x="739" 
d="M40 474v98l173 28v-370h-111v251zM637 364v-212h52v-80h-52v-72h-104v72h-167v80l167 212h104zM533 251l-80 -99h80v99zM114 0l357 594h94l-357 -594h-94z" />
    <glyph glyph-name="onehalf" unicode="&#xbd;" horiz-adv-x="751" 
d="M40 474v98l173 28v-370h-111v251zM580 94h121v-94h-261v81q66 51 101.5 87t35.5 64q0 38 -41 38q-46 0 -92 -38v100q47 38 122 38q57 0 91.5 -30t34.5 -82q0 -46 -27.5 -83.5t-84.5 -80.5zM114 0l357 594h94l-357 -594h-94z" />
    <glyph glyph-name="threequarters" unicode="&#xbe;" horiz-adv-x="778" 
d="M159 0l357 594h94l-357 -594h-94zM676 364v-212h52v-80h-52v-72h-104v72h-167v80l167 212h104zM572 251l-80 -99h80v99zM59 467v102q48 31 112 31q54 0 86 -25.5t32 -74.5q0 -32 -19.5 -56t-47.5 -31q73 -19 73 -84q0 -56 -41.5 -80.5t-95.5 -24.5q-58 0 -108 27v106
q42 -40 96 -40q37 0 37 26q0 18 -15.5 23t-52.5 5v76q62 0 62 31q0 24 -32 24q-45 0 -86 -35z" />
    <glyph glyph-name="questiondown" unicode="&#xbf;" horiz-adv-x="382" 
d="M372 46v-134q-66 -58 -171 -58q-84 0 -135 41t-51 131q0 41 15 73t40 51.5t48.5 31t48.5 17.5v53h131v-121q-83 -23 -112 -40t-29 -54q0 -54 66 -54q63 0 149 63zM321 378q0 -39 -25.5 -66t-61.5 -27q-40 0 -67 27t-27 66q0 36 27 62t67 26q35 0 61 -26t26 -62z" />
    <glyph glyph-name="Agrave" unicode="&#xc0;" horiz-adv-x="641" 
d="M438 113h-240l-41 -113h-157l231 594h179l231 -594h-163zM395 234l-75 211l-77 -211h152zM381 641h-128l-84 151h128z" />
    <glyph glyph-name="Aacute" unicode="&#xc1;" horiz-adv-x="641" 
d="M438 113h-240l-41 -113h-157l231 594h179l231 -594h-163zM395 234l-75 211l-77 -211h152zM386 641h-128l84 151h128z" />
    <glyph glyph-name="Acircumflex" unicode="&#xc2;" horiz-adv-x="641" 
d="M438 113h-240l-41 -113h-157l231 594h179l231 -594h-163zM395 234l-75 211l-77 -211h152zM365 793l117 -154h-112l-53 72l-53 -72h-112l117 154h96z" />
    <glyph glyph-name="Atilde" unicode="&#xc3;" horiz-adv-x="641" 
d="M438 113h-240l-41 -113h-157l231 594h179l231 -594h-163zM395 234l-75 211l-77 -211h152zM383 771h87q0 -61 -24 -97.5t-67 -36.5q-28 0 -56 19t-39 19q-27 0 -27 -34h-87q0 61 24 97.5t67 36.5q28 0 56.5 -19t39.5 -19q26 0 26 34z" />
    <glyph glyph-name="Adieresis" unicode="&#xc4;" horiz-adv-x="641" 
d="M438 113h-240l-41 -113h-157l231 594h179l231 -594h-163zM395 234l-75 211l-77 -211h152zM225 629q-32 0 -54.5 22.5t-22.5 53.5q0 33 22.5 56t54.5 23t55 -23t23 -56q0 -31 -23 -53.5t-55 -22.5zM413 629q-32 0 -54.5 22.5t-22.5 53.5q0 33 22.5 56t54.5 23t55 -23
t23 -56q0 -31 -23 -53.5t-55 -22.5z" />
    <glyph glyph-name="Aring" unicode="&#xc5;" horiz-adv-x="641" 
d="M438 113h-240l-41 -113h-157l231 594h179l231 -594h-163zM395 234l-75 211l-77 -211h152zM217 722q0 42 28 70.5t75 28.5q48 0 76 -28.5t28 -70.5q0 -43 -28 -71.5t-76 -28.5q-47 0 -75 28.5t-28 71.5zM359 722q0 16 -10.5 27.5t-28.5 11.5q-17 0 -27.5 -11.5
t-10.5 -27.5q0 -17 10.5 -28.5t27.5 -11.5q18 0 28.5 11.5t10.5 28.5z" />
    <glyph glyph-name="AE" unicode="&#xc6;" horiz-adv-x="868" 
d="M219 113l-62 -113h-157l328 594h489v-131h-246v-102h224v-128h-224v-102h253v-131h-400v113h-205zM286 234h138v252z" />
    <glyph glyph-name="Ccedilla" unicode="&#xc7;" horiz-adv-x="551" 
d="M300 -146h-121q69 65 77 145q-104 24 -164 104t-60 194q0 136 84.5 221.5t221.5 85.5q97 0 162 -38v-159q-63 63 -161 63q-72 0 -113 -48t-41 -125q0 -79 44 -126t116 -47q51 0 88.5 14.5t78.5 47.5v-152q-63 -38 -142 -43q-5 -43 -24 -81t-46 -56z" />
    <glyph glyph-name="Egrave" unicode="&#xc8;" horiz-adv-x="505" 
d="M326 636h-128l-84 151h128zM208 131h253v-131h-400v594h393v-131h-246v-102h224v-128h-224v-102z" />
    <glyph glyph-name="Eacute" unicode="&#xc9;" horiz-adv-x="505" 
d="M311 641h-128l84 151h128zM208 131h253v-131h-400v594h393v-131h-246v-102h224v-128h-224v-102z" />
    <glyph glyph-name="Ecircumflex" unicode="&#xca;" horiz-adv-x="505" 
d="M208 131h253v-131h-400v594h393v-131h-246v-102h224v-128h-224v-102zM311 793l117 -154h-112l-53 72l-53 -72h-112l117 154h96z" />
    <glyph glyph-name="Edieresis" unicode="&#xcb;" horiz-adv-x="505" 
d="M167 629q-32 0 -54.5 22.5t-22.5 53.5q0 33 22.5 56t54.5 23t55 -23t23 -56q0 -31 -23 -53.5t-55 -22.5zM355 629q-32 0 -54.5 22.5t-22.5 53.5q0 33 22.5 56t54.5 23t55 -23t23 -56q0 -31 -23 -53.5t-55 -22.5zM208 131h253v-131h-400v594h393v-131h-246v-102h224v-128
h-224v-102z" />
    <glyph glyph-name="Igrave" unicode="&#xcc;" horiz-adv-x="271" 
d="M210 594v-594h-149v594h149zM201 641h-128l-84 151h128z" />
    <glyph glyph-name="Iacute" unicode="&#xcd;" horiz-adv-x="271" 
d="M210 594v-594h-149v594h149zM191 641h-128l84 151h128z" />
    <glyph glyph-name="Icircumflex" unicode="&#xce;" horiz-adv-x="271" 
d="M210 594v-594h-149v594h149zM183 793l117 -154h-112l-53 72l-53 -72h-112l117 154h96z" />
    <glyph glyph-name="Idieresis" unicode="&#xcf;" horiz-adv-x="271" 
d="M210 594v-594h-149v594h149zM40 629q-32 0 -54.5 22.5t-22.5 53.5q0 33 22.5 56t54.5 23t55 -23t23 -56q0 -31 -23 -53.5t-55 -22.5zM228 629q-32 0 -54.5 22.5t-22.5 53.5q0 33 22.5 56t54.5 23t55 -23t23 -56q0 -31 -23 -53.5t-55 -22.5z" />
    <glyph glyph-name="Eth" unicode="&#xd0;" horiz-adv-x="636" 
d="M72 237h-52v120h52v232q94 15 199 15q153 0 243 -77.5t90 -223.5q0 -156 -91 -233.5t-246 -77.5q-131 0 -195 14v231zM221 237v-112q27 -3 64 -3q77 0 121.5 45.5t44.5 135.5q0 82 -47 123t-122 41q-34 0 -61 -3v-107h108v-120h-108z" />
    <glyph glyph-name="Ntilde" unicode="&#xd1;" horiz-adv-x="655" 
d="M211 594l239 -364v364h144v-594h-141l-248 357v-357h-144v594h150zM394 771h87q0 -61 -24 -97.5t-67 -36.5q-28 0 -56 19t-39 19q-27 0 -27 -34h-87q0 61 24 97.5t67 36.5q28 0 56.5 -19t39.5 -19q26 0 26 34z" />
    <glyph glyph-name="Ograve" unicode="&#xd2;" horiz-adv-x="683" 
d="M32 297q0 134 89 220.5t220 86.5t220.5 -86.5t89.5 -220.5t-89.5 -220.5t-220.5 -86.5t-220 86.5t-89 220.5zM497 297q0 77 -43.5 125t-112.5 48q-68 0 -112 -48t-44 -125t44 -125t112 -48q69 0 112.5 48t43.5 125zM407 641h-128l-84 151h128z" />
    <glyph glyph-name="Oacute" unicode="&#xd3;" horiz-adv-x="683" 
d="M32 297q0 134 89 220.5t220 86.5t220.5 -86.5t89.5 -220.5t-89.5 -220.5t-220.5 -86.5t-220 86.5t-89 220.5zM497 297q0 77 -43.5 125t-112.5 48q-68 0 -112 -48t-44 -125t44 -125t112 -48q69 0 112.5 48t43.5 125zM397 641h-128l84 151h128z" />
    <glyph glyph-name="Ocircumflex" unicode="&#xd4;" horiz-adv-x="683" 
d="M32 297q0 134 89 220.5t220 86.5t220.5 -86.5t89.5 -220.5t-89.5 -220.5t-220.5 -86.5t-220 86.5t-89 220.5zM497 297q0 77 -43.5 125t-112.5 48q-68 0 -112 -48t-44 -125t44 -125t112 -48q69 0 112.5 48t43.5 125zM389 793l117 -154h-112l-53 72l-53 -72h-112l117 154
h96z" />
    <glyph glyph-name="Otilde" unicode="&#xd5;" horiz-adv-x="683" 
d="M32 297q0 134 89 220.5t220 86.5t220.5 -86.5t89.5 -220.5t-89.5 -220.5t-220.5 -86.5t-220 86.5t-89 220.5zM497 297q0 77 -43.5 125t-112.5 48q-68 0 -112 -48t-44 -125t44 -125t112 -48q69 0 112.5 48t43.5 125zM404 771h87q0 -61 -24 -97.5t-67 -36.5q-28 0 -56 19
t-39 19q-27 0 -27 -34h-87q0 61 24 97.5t67 36.5q28 0 56.5 -19t39.5 -19q26 0 26 34z" />
    <glyph glyph-name="Odieresis" unicode="&#xd6;" horiz-adv-x="683" 
d="M244 629q-32 0 -54.5 22.5t-22.5 53.5q0 33 22.5 56t54.5 23t55 -23t23 -56q0 -31 -23 -53.5t-55 -22.5zM432 629q-32 0 -54.5 22.5t-22.5 53.5q0 33 22.5 56t54.5 23t55 -23t23 -56q0 -31 -23 -53.5t-55 -22.5zM32 297q0 134 89 220.5t220 86.5t220.5 -86.5t89.5 -220.5
t-89.5 -220.5t-220.5 -86.5t-220 86.5t-89 220.5zM497 297q0 77 -43.5 125t-112.5 48q-68 0 -112 -48t-44 -125t44 -125t112 -48q69 0 112.5 48t43.5 125z" />
    <glyph glyph-name="multiply" unicode="&#xd7;" horiz-adv-x="398" 
d="M129 292l-99 99l70 70l99 -99l99 99l70 -70l-99 -99l99 -99l-70 -70l-99 99l-99 -99l-70 70z" />
    <glyph glyph-name="Oslash" unicode="&#xd8;" horiz-adv-x="695" 
d="M657 594l-77 -90q77 -85 77 -207q0 -134 -89.5 -220.5t-220.5 -86.5q-91 0 -169 46l-31 -36h-109l77 89q-77 85 -77 208q0 134 89 220.5t220 86.5q94 0 169 -47l32 37h109zM485 393l-218 -253q35 -20 80 -20q69 0 114.5 50t45.5 127q0 54 -22 96zM210 200l217 253
q-35 21 -80 21q-68 0 -114 -50t-46 -127q0 -56 23 -97z" />
    <glyph glyph-name="Ugrave" unicode="&#xd9;" horiz-adv-x="614" 
d="M54 213v381h149v-348q0 -71 27 -101.5t80 -30.5q40 0 94 8v472h149v-573q-38 -12 -112 -21.5t-131 -9.5q-114 0 -185 52.5t-71 170.5zM371 641h-128l-84 151h128z" />
    <glyph glyph-name="Uacute" unicode="&#xda;" horiz-adv-x="614" 
d="M54 213v381h149v-348q0 -71 27 -101.5t80 -30.5q40 0 94 8v472h149v-573q-38 -12 -112 -21.5t-131 -9.5q-114 0 -185 52.5t-71 170.5zM359 641h-128l84 151h128z" />
    <glyph glyph-name="Ucircumflex" unicode="&#xdb;" horiz-adv-x="614" 
d="M54 213v381h149v-348q0 -71 27 -101.5t80 -30.5q40 0 94 8v472h149v-573q-38 -12 -112 -21.5t-131 -9.5q-114 0 -185 52.5t-71 170.5zM351 793l117 -154h-112l-53 72l-53 -72h-112l117 154h96z" />
    <glyph glyph-name="Udieresis" unicode="&#xdc;" horiz-adv-x="614" 
d="M206 629q-32 0 -54.5 22.5t-22.5 53.5q0 33 22.5 56t54.5 23t55 -23t23 -56q0 -31 -23 -53.5t-55 -22.5zM394 629q-32 0 -54.5 22.5t-22.5 53.5q0 33 22.5 56t54.5 23t55 -23t23 -56q0 -31 -23 -53.5t-55 -22.5zM54 213v381h149v-348q0 -71 27 -101.5t80 -30.5q40 0 94 8
v472h149v-573q-38 -12 -112 -21.5t-131 -9.5q-114 0 -185 52.5t-71 170.5z" />
    <glyph glyph-name="Yacute" unicode="&#xdd;" horiz-adv-x="575" 
d="M290 358l120 236h165l-214 -378v-216h-148v216l-213 378h164zM343 641h-128l84 151h128z" />
    <glyph glyph-name="Thorn" unicode="&#xde;" horiz-adv-x="526" 
d="M210 79v-79h-149v594h149v-86q15 1 45 1q115 0 183.5 -55t68.5 -164q0 -74 -36 -123.5t-89 -69.5t-119 -20q-29 0 -53 2zM210 373v-167q14 -2 45 -2q102 0 102 86q0 44 -28.5 65t-73.5 21q-27 0 -45 -3z" />
    <glyph glyph-name="germandbls" unicode="&#xdf;" horiz-adv-x="583" 
d="M61 0v461q0 109 57 169t161 60q94 0 150 -47t56 -114q0 -34 -13 -62.5t-28.5 -43.5t-28.5 -30.5t-13 -26.5q0 -10 16 -21.5t39 -26.5t46.5 -34.5t39.5 -52.5t16 -73q0 -78 -52 -123t-135 -45q-70 0 -108 27v122q52 -34 101 -34q27 0 42.5 13.5t15.5 37.5t-24.5 45.5
t-54 37t-54 45t-24.5 67.5q0 40 40 89t40 75q0 25 -18 40t-47 15q-39 0 -58.5 -27.5t-19.5 -72.5v-470h-142z" />
    <glyph glyph-name="agrave" unicode="&#xe0;" horiz-adv-x="471" 
d="M279 269v18q0 53 -76 53q-69 0 -129 -37v120q63 37 155 37q190 0 190 -167v-283q-88 -20 -184 -20q-201 0 -201 141q0 138 197 138h48zM279 96v87h-38q-66 0 -66 -45q0 -46 58 -46q27 0 46 4zM308 513h-128l-85 152h128z" />
    <glyph glyph-name="aacute" unicode="&#xe1;" horiz-adv-x="471" 
d="M279 269v18q0 53 -76 53q-69 0 -129 -37v120q63 37 155 37q190 0 190 -167v-283q-88 -20 -184 -20q-201 0 -201 141q0 138 197 138h48zM279 96v87h-38q-66 0 -66 -45q0 -46 58 -46q27 0 46 4zM289 513h-128l85 152h128z" />
    <glyph glyph-name="acircumflex" unicode="&#xe2;" horiz-adv-x="471" 
d="M279 269v18q0 53 -76 53q-69 0 -129 -37v120q63 37 155 37q190 0 190 -167v-283q-88 -20 -184 -20q-201 0 -201 141q0 138 197 138h48zM279 96v87h-38q-66 0 -66 -45q0 -46 58 -46q27 0 46 4zM283 665l117 -158h-112l-53 69l-53 -69h-112l117 158h96z" />
    <glyph glyph-name="atilde" unicode="&#xe3;" horiz-adv-x="471" 
d="M279 269v18q0 53 -76 53q-69 0 -129 -37v120q63 37 155 37q190 0 190 -167v-283q-88 -20 -184 -20q-201 0 -201 141q0 138 197 138h48zM279 96v87h-38q-66 0 -66 -45q0 -46 58 -46q27 0 46 4zM295 637h87q0 -61 -24 -97.5t-67 -36.5q-28 0 -56 19t-39 19q-27 0 -27 -34
h-87q0 61 24 97.5t67 36.5q28 0 56.5 -19t39.5 -19q26 0 26 34z" />
    <glyph glyph-name="adieresis" unicode="&#xe4;" horiz-adv-x="471" 
d="M279 269v18q0 53 -76 53q-69 0 -129 -37v120q63 37 155 37q190 0 190 -167v-283q-88 -20 -184 -20q-201 0 -201 141q0 138 197 138h48zM279 96v87h-38q-66 0 -66 -45q0 -46 58 -46q27 0 46 4zM141 504q-32 0 -54.5 23t-22.5 55t22.5 54.5t54.5 22.5t55 -22.5t23 -54.5
t-23 -55t-55 -23zM329 504q-32 0 -54.5 23t-22.5 55t22.5 54.5t54.5 22.5t55 -22.5t23 -54.5t-23 -55t-55 -23z" />
    <glyph glyph-name="aring" unicode="&#xe5;" horiz-adv-x="471" 
d="M279 269v18q0 53 -76 53q-69 0 -129 -37v120q63 37 155 37q190 0 190 -167v-283q-88 -20 -184 -20q-201 0 -201 141q0 138 197 138h48zM279 96v87h-38q-66 0 -66 -45q0 -46 58 -46q27 0 46 4zM131 590q0 42 28 70.5t75 28.5q48 0 76 -28.5t28 -70.5q0 -43 -28 -71.5
t-76 -28.5q-47 0 -75 28.5t-28 71.5zM273 590q0 16 -10.5 27.5t-28.5 11.5q-17 0 -27.5 -11.5t-10.5 -27.5q0 -17 10.5 -28.5t27.5 -11.5q18 0 28.5 11.5t10.5 28.5z" />
    <glyph glyph-name="ae" unicode="&#xe6;" horiz-adv-x="741" 
d="M705 181h-282q18 -70 121 -70q80 0 149 36v-117q-60 -40 -165 -40q-100 0 -160 49q-71 -49 -156 -49q-74 0 -126 34.5t-52 106.5q0 66 52 98t145 32h63q0 1 3 22q-9 59 -87 59q-73 0 -136 -39v120q63 37 152 37q94 0 138 -52q57 52 144 52q104 0 150.5 -60.5t46.5 -157.5
v-61zM293 181h-57q-61 0 -61 -46q0 -21 14.5 -32.5t38.5 -11.5q45 0 81 26q-11 28 -16 64zM422 261h153q0 36 -17 59.5t-53 23.5q-30 0 -52.5 -20.5t-30.5 -62.5z" />
    <glyph glyph-name="ccedilla" unicode="&#xe7;" horiz-adv-x="432" 
d="M234 -146h-121q69 65 77 145q-77 20 -119.5 79.5t-42.5 145.5q0 104 66.5 170t172.5 66q73 0 128 -33v-132q-49 41 -112 41q-51 0 -81.5 -29.5t-30.5 -80.5q0 -49 31 -80.5t86 -31.5q62 0 109 39v-130q-41 -26 -93 -31q-5 -43 -24 -81.5t-46 -56.5z" />
    <glyph glyph-name="egrave" unicode="&#xe8;" horiz-adv-x="483" 
d="M447 181h-282v-2q8 -34 43 -51t78 -17q80 0 149 36v-117q-60 -40 -165 -40q-113 0 -177.5 62t-64.5 166q0 112 62 177t160 65q104 0 150.5 -60.5t46.5 -157.5v-61zM166 261h151q0 36 -17 59.5t-53 23.5q-33 0 -54 -22.5t-27 -60.5zM328 513h-128l-85 152h128z" />
    <glyph glyph-name="eacute" unicode="&#xe9;" horiz-adv-x="483" 
d="M324 513h-128l85 152h128zM447 181h-282v-2q8 -34 43 -51t78 -17q80 0 149 36v-117q-60 -40 -165 -40q-113 0 -177.5 62t-64.5 166q0 112 62 177t160 65q104 0 150.5 -60.5t46.5 -157.5v-61zM166 261h151q0 36 -17 59.5t-53 23.5q-33 0 -54 -22.5t-27 -60.5z" />
    <glyph glyph-name="ecircumflex" unicode="&#xea;" horiz-adv-x="483" 
d="M447 181h-282v-2q8 -34 43 -51t78 -17q80 0 149 36v-117q-60 -40 -165 -40q-113 0 -177.5 62t-64.5 166q0 112 62 177t160 65q104 0 150.5 -60.5t46.5 -157.5v-61zM166 261h151q0 36 -17 59.5t-53 23.5q-33 0 -54 -22.5t-27 -60.5zM295 665l117 -158h-112l-53 69l-53 -69
h-112l117 158h96z" />
    <glyph glyph-name="edieresis" unicode="&#xeb;" horiz-adv-x="483" 
d="M159 504q-32 0 -54.5 23t-22.5 55t22.5 54.5t54.5 22.5t55 -22.5t23 -54.5t-23 -55t-55 -23zM347 504q-32 0 -54.5 23t-22.5 55t22.5 54.5t54.5 22.5t55 -22.5t23 -54.5t-23 -55t-55 -23zM447 181h-282v-2q8 -34 43 -51t78 -17q80 0 149 36v-117q-60 -40 -165 -40
q-113 0 -177.5 62t-64.5 166q0 112 62 177t160 65q104 0 150.5 -60.5t46.5 -157.5v-61zM166 261h151q0 36 -17 59.5t-53 23.5q-33 0 -54 -22.5t-27 -60.5z" />
    <glyph glyph-name="igrave" unicode="&#xec;" horiz-adv-x="264" 
d="M203 450v-450h-142v450h142zM196 513h-128l-85 152h128z" />
    <glyph glyph-name="iacute" unicode="&#xed;" horiz-adv-x="264" 
d="M203 450v-450h-142v450h142zM198 513h-128l85 152h128z" />
    <glyph glyph-name="icircumflex" unicode="&#xee;" horiz-adv-x="264" 
d="M203 450v-450h-142v450h142zM180 665l117 -158h-112l-53 69l-53 -69h-112l117 158h96z" />
    <glyph glyph-name="idieresis" unicode="&#xef;" horiz-adv-x="264" 
d="M37 504q-32 0 -54.5 23t-22.5 55t22.5 54.5t54.5 22.5t55 -22.5t23 -54.5t-23 -55t-55 -23zM225 504q-32 0 -54.5 23t-22.5 55t22.5 54.5t54.5 22.5t55 -22.5t23 -54.5t-23 -55t-55 -23zM203 450v-450h-142v450h142z" />
    <glyph glyph-name="eth" unicode="&#xf0;" horiz-adv-x="533" 
d="M445 567l-61 -19q121 -154 121 -308q0 -115 -67.5 -182.5t-171.5 -67.5q-102 0 -170 64.5t-68 166.5q0 101 65 163.5t162 62.5q42 0 60 -11q-21 34 -55 73l-171 -53v87l108 34q-54 54 -116 103h175q24 -20 68 -64l121 38v-87zM362 223q0 52 -26.5 81.5t-69.5 29.5
q-42 0 -68.5 -30t-26.5 -81t26.5 -81t68.5 -30q43 0 69.5 29.5t26.5 81.5z" />
    <glyph glyph-name="ntilde" unicode="&#xf1;" horiz-adv-x="535" 
d="M61 0v418q105 42 224 42q95 0 145.5 -42t50.5 -143v-275h-142v269q0 64 -64 64q-42 0 -72 -11v-322h-142zM334 637h87q0 -61 -24 -97.5t-67 -36.5q-28 0 -56 19t-39 19q-27 0 -27 -34h-87q0 61 24 97.5t67 36.5q28 0 56.5 -19t39.5 -19q26 0 26 34z" />
    <glyph glyph-name="ograve" unicode="&#xf2;" horiz-adv-x="533" 
d="M28 225q0 104 68 169.5t170 65.5q103 0 171 -65.5t68 -169.5t-68 -169.5t-171 -65.5q-102 0 -170 65.5t-68 169.5zM362 225q0 52 -26.5 82.5t-69.5 30.5q-42 0 -68.5 -30.5t-26.5 -82.5t26.5 -82.5t68.5 -30.5q43 0 69.5 30.5t26.5 82.5zM337 513h-128l-85 152h128z" />
    <glyph glyph-name="oacute" unicode="&#xf3;" horiz-adv-x="533" 
d="M28 225q0 104 68 169.5t170 65.5q103 0 171 -65.5t68 -169.5t-68 -169.5t-171 -65.5q-102 0 -170 65.5t-68 169.5zM362 225q0 52 -26.5 82.5t-69.5 30.5q-42 0 -68.5 -30.5t-26.5 -82.5t26.5 -82.5t68.5 -30.5q43 0 69.5 30.5t26.5 82.5zM329 513h-128l85 152h128z" />
    <glyph glyph-name="ocircumflex" unicode="&#xf4;" horiz-adv-x="533" 
d="M28 225q0 104 68 169.5t170 65.5q103 0 171 -65.5t68 -169.5t-68 -169.5t-171 -65.5q-102 0 -170 65.5t-68 169.5zM362 225q0 52 -26.5 82.5t-69.5 30.5q-42 0 -68.5 -30.5t-26.5 -82.5t26.5 -82.5t68.5 -30.5q43 0 69.5 30.5t26.5 82.5zM314 665l117 -158h-112l-53 69
l-53 -69h-112l117 158h96z" />
    <glyph glyph-name="otilde" unicode="&#xf5;" horiz-adv-x="533" 
d="M28 225q0 104 68 169.5t170 65.5q103 0 171 -65.5t68 -169.5t-68 -169.5t-171 -65.5q-102 0 -170 65.5t-68 169.5zM362 225q0 52 -26.5 82.5t-69.5 30.5q-42 0 -68.5 -30.5t-26.5 -82.5t26.5 -82.5t68.5 -30.5q43 0 69.5 30.5t26.5 82.5zM329 637h87q0 -61 -24 -97.5
t-67 -36.5q-28 0 -56 19t-39 19q-27 0 -27 -34h-87q0 61 24 97.5t67 36.5q28 0 56.5 -19t39.5 -19q26 0 26 34z" />
    <glyph glyph-name="odieresis" unicode="&#xf6;" horiz-adv-x="533" 
d="M173 504q-32 0 -54.5 23t-22.5 55t22.5 54.5t54.5 22.5t55 -22.5t23 -54.5t-23 -55t-55 -23zM361 504q-32 0 -54.5 23t-22.5 55t22.5 54.5t54.5 22.5t55 -22.5t23 -54.5t-23 -55t-55 -23zM28 225q0 104 68 169.5t170 65.5q103 0 171 -65.5t68 -169.5t-68 -169.5
t-171 -65.5q-102 0 -170 65.5t-68 169.5zM362 225q0 52 -26.5 82.5t-69.5 30.5q-42 0 -68.5 -30.5t-26.5 -82.5t26.5 -82.5t68.5 -30.5q43 0 69.5 30.5t26.5 82.5z" />
    <glyph glyph-name="divide" unicode="&#xf7;" horiz-adv-x="459" 
d="M40 241v103h379v-103h-379zM160 131q0 28 20.5 49t48.5 21q29 0 49.5 -20.5t20.5 -49.5q0 -28 -21 -48.5t-49 -20.5t-48.5 20.5t-20.5 48.5zM160 453q0 28 20.5 49t48.5 21q29 0 49.5 -20.5t20.5 -49.5q0 -28 -21 -48.5t-49 -20.5t-48.5 20.5t-20.5 48.5z" />
    <glyph glyph-name="oslash" unicode="&#xf8;" horiz-adv-x="543" 
d="M520 450l-64 -71q54 -64 54 -154q0 -104 -68 -169.5t-171 -65.5q-74 0 -132 36l-24 -26h-92l64 71q-54 64 -54 154q0 104 68 169.5t170 65.5q74 0 133 -37l24 27h92zM179 173l141 157q-21 12 -49 12q-44 0 -72 -31.5t-28 -85.5q0 -28 8 -52zM365 277l-143 -158
q22 -11 49 -11q45 0 73.5 31.5t28.5 85.5q0 28 -8 52z" />
    <glyph glyph-name="ugrave" unicode="&#xf9;" horiz-adv-x="522" 
d="M461 450v-434q-83 -26 -195 -26q-105 0 -159.5 40t-54.5 139v281h142v-268q0 -40 14.5 -58t57.5 -18q24 0 53 6v338h142zM327 513h-128l-85 152h128z" />
    <glyph glyph-name="uacute" unicode="&#xfa;" horiz-adv-x="522" 
d="M461 450v-434q-83 -26 -195 -26q-105 0 -159.5 40t-54.5 139v281h142v-268q0 -40 14.5 -58t57.5 -18q24 0 53 6v338h142zM314 513h-128l85 152h128z" />
    <glyph glyph-name="ucircumflex" unicode="&#xfb;" horiz-adv-x="522" 
d="M461 450v-434q-83 -26 -195 -26q-105 0 -159.5 40t-54.5 139v281h142v-268q0 -40 14.5 -58t57.5 -18q24 0 53 6v338h142zM304 665l117 -158h-112l-53 69l-53 -69h-112l117 158h96z" />
    <glyph glyph-name="udieresis" unicode="&#xfc;" horiz-adv-x="522" 
d="M168 504q-32 0 -54.5 23t-22.5 55t22.5 54.5t54.5 22.5t55 -22.5t23 -54.5t-23 -55t-55 -23zM356 504q-32 0 -54.5 23t-22.5 55t22.5 54.5t54.5 22.5t55 -22.5t23 -54.5t-23 -55t-55 -23zM461 450v-434q-83 -26 -195 -26q-105 0 -159.5 40t-54.5 139v281h142v-268
q0 -40 14.5 -58t57.5 -18q24 0 53 6v338h142z" />
    <glyph glyph-name="yacute" unicode="&#xfd;" horiz-adv-x="515" 
d="M158 450l103 -293l101 293h148l-246 -630h-140l65 171l-184 459h153zM321 513h-128l85 152h128z" />
    <glyph glyph-name="thorn" unicode="&#xfe;" horiz-adv-x="547" 
d="M61 -180v860h142v-242q39 22 98 22q95 0 156.5 -61t61.5 -160q0 -119 -66.5 -184t-186.5 -65q-39 0 -63 6v-176h-142zM203 309v-189q21 -7 51 -7q55 0 87.5 30.5t32.5 91.5q0 43 -27 70t-71 27q-42 0 -73 -23z" />
    <glyph glyph-name="ydieresis" unicode="&#xff;" horiz-adv-x="515" 
d="M158 450l103 -293l101 293h148l-246 -630h-140l65 171l-184 459h153zM168 504q-32 0 -54.5 23t-22.5 55t22.5 54.5t54.5 22.5t55 -22.5t23 -54.5t-23 -55t-55 -23zM356 504q-32 0 -54.5 23t-22.5 55t22.5 54.5t54.5 22.5t55 -22.5t23 -54.5t-23 -55t-55 -23z" />
    <glyph glyph-name="Amacron" unicode="&#x100;" horiz-adv-x="641" 
d="M438 113h-240l-41 -113h-157l231 594h179l231 -594h-163zM395 234l-75 211l-77 -211h152zM201 642v102h239v-102h-239z" />
    <glyph glyph-name="amacron" unicode="&#x101;" horiz-adv-x="471" 
d="M279 269v18q0 53 -76 53q-69 0 -129 -37v120q63 37 155 37q190 0 190 -167v-283q-88 -20 -184 -20q-201 0 -201 141q0 138 197 138h48zM279 96v87h-38q-66 0 -66 -45q0 -46 58 -46q27 0 46 4zM113 516v102h239v-102h-239z" />
    <glyph glyph-name="Abreve" unicode="&#x102;" horiz-adv-x="641" 
d="M438 113h-240l-41 -113h-157l231 594h179l231 -594h-163zM395 234l-75 211l-77 -211h152zM355 780h101q0 -68 -37.5 -105t-98.5 -37t-98.5 37t-37.5 105h101q0 -50 35 -50t35 50z" />
    <glyph glyph-name="abreve" unicode="&#x103;" horiz-adv-x="471" 
d="M279 269v18q0 53 -76 53q-69 0 -129 -37v120q63 37 155 37q190 0 190 -167v-283q-88 -20 -184 -20q-201 0 -201 141q0 138 197 138h48zM279 96v87h-38q-66 0 -66 -45q0 -46 58 -46q27 0 46 4zM271 655h101q0 -69 -38 -107.5t-98 -38.5t-98 38.5t-38 107.5h101
q0 -54 35 -54t35 54z" />
    <glyph glyph-name="Aogonek" unicode="&#x104;" horiz-adv-x="641" 
d="M641 0h-70q-57 -38 -57 -71q0 -23 28 -23q23 0 47 11v-93q-26 -14 -74 -14q-47 0 -77 21.5t-30 65.5q0 66 64 117l-34 99h-240l-41 -113h-157l231 594h179zM320 445l-77 -211h152z" />
    <glyph glyph-name="aogonek" unicode="&#x105;" horiz-adv-x="471" 
d="M279 269v18q0 53 -76 53q-69 0 -129 -37v120q63 37 155 37q190 0 190 -167v-283q-72 -38 -72 -81q0 -23 28 -23q23 0 47 11v-93q-26 -14 -74 -14q-47 0 -77 22t-30 69q0 58 42 91q-20 -2 -48 -2q-201 0 -201 141q0 138 197 138h48zM279 96v87h-38q-66 0 -66 -45
q0 -46 58 -46q27 0 46 4z" />
    <glyph glyph-name="Cacute" unicode="&#x106;" horiz-adv-x="551" 
d="M500 566v-159q-63 63 -161 63q-72 0 -113 -48t-41 -125q0 -79 44 -126t116 -47q51 0 88.5 14.5t78.5 47.5v-152q-73 -44 -174 -44q-139 0 -222.5 85.5t-83.5 221.5t84.5 221.5t221.5 85.5q97 0 162 -38zM400 641h-128l84 151h128z" />
    <glyph glyph-name="cacute" unicode="&#x107;" horiz-adv-x="432" 
d="M395 427v-132q-49 41 -112 41q-51 0 -81.5 -29.5t-30.5 -80.5q0 -49 31 -80.5t86 -31.5q62 0 109 39v-130q-50 -33 -130 -33q-112 0 -175.5 64t-63.5 170q0 104 66.5 170t172.5 66q73 0 128 -33zM316 513h-128l85 152h128z" />
    <glyph glyph-name="Ccircumflex" unicode="&#x108;" horiz-adv-x="551" 
d="M500 566v-159q-63 63 -161 63q-72 0 -113 -48t-41 -125q0 -79 44 -126t116 -47q51 0 88.5 14.5t78.5 47.5v-152q-73 -44 -174 -44q-139 0 -222.5 85.5t-83.5 221.5t84.5 221.5t221.5 85.5q97 0 162 -38zM378 793l117 -154h-112l-53 72l-53 -72h-112l117 154h96z" />
    <glyph glyph-name="ccircumflex" unicode="&#x109;" horiz-adv-x="432" 
d="M395 427v-132q-49 41 -112 41q-51 0 -81.5 -29.5t-30.5 -80.5q0 -49 31 -80.5t86 -31.5q62 0 109 39v-130q-50 -33 -130 -33q-112 0 -175.5 64t-63.5 170q0 104 66.5 170t172.5 66q73 0 128 -33zM298 665l117 -158h-112l-53 69l-53 -69h-112l117 158h96z" />
    <glyph glyph-name="Cdotaccent" unicode="&#x10a;" horiz-adv-x="551" 
d="M500 566v-159q-63 63 -161 63q-72 0 -113 -48t-41 -125q0 -79 44 -126t116 -47q51 0 88.5 14.5t78.5 47.5v-152q-73 -44 -174 -44q-139 0 -222.5 85.5t-83.5 221.5t84.5 221.5t221.5 85.5q97 0 162 -38zM330 634q-34 0 -58 23.5t-24 57.5t24 58t58 24q33 0 57 -24t24 -58
q0 -33 -24 -57t-57 -24z" />
    <glyph glyph-name="cdotaccent" unicode="&#x10b;" horiz-adv-x="432" 
d="M395 427v-132q-49 41 -112 41q-51 0 -81.5 -29.5t-30.5 -80.5q0 -49 31 -80.5t86 -31.5q62 0 109 39v-130q-50 -33 -130 -33q-112 0 -175.5 64t-63.5 170q0 104 66.5 170t172.5 66q73 0 128 -33zM253 504q-34 0 -58 23.5t-24 57.5t24 58t58 24q33 0 57 -24t24 -58
q0 -33 -24 -57t-57 -24z" />
    <glyph glyph-name="Ccaron" unicode="&#x10c;" horiz-adv-x="551" 
d="M500 566v-159q-63 63 -161 63q-72 0 -113 -48t-41 -125q0 -79 44 -126t116 -47q51 0 88.5 14.5t78.5 47.5v-152q-73 -44 -174 -44q-139 0 -222.5 85.5t-83.5 221.5t84.5 221.5t221.5 85.5q97 0 162 -38zM495 795l-117 -154h-96l-117 154h112l53 -72l53 72h112z" />
    <glyph glyph-name="ccaron" unicode="&#x10d;" horiz-adv-x="432" 
d="M395 427v-132q-49 41 -112 41q-51 0 -81.5 -29.5t-30.5 -80.5q0 -49 31 -80.5t86 -31.5q62 0 109 39v-130q-50 -33 -130 -33q-112 0 -175.5 64t-63.5 170q0 104 66.5 170t172.5 66q73 0 128 -33zM416 665l-117 -158h-96l-117 158h115l50 -73l50 73h115z" />
    <glyph glyph-name="Dcaron" unicode="&#x10e;" horiz-adv-x="625" 
d="M61 6v583q94 15 199 15q153 0 243 -77.5t90 -223.5q0 -156 -91 -233.5t-246 -77.5q-131 0 -195 14zM210 464v-339q27 -3 64 -3q77 0 121.5 45.5t44.5 135.5q0 82 -47 123t-122 41q-34 0 -61 -3zM464 795l-117 -154h-96l-117 154h112l53 -72l53 72h112z" />
    <glyph glyph-name="dcaron" unicode="&#x10f;" horiz-adv-x="543" 
d="M482 680v-667q-86 -23 -196 -23q-119 0 -188.5 61t-69.5 173q0 105 63.5 170.5t169.5 65.5q51 0 79 -12v232h142zM340 115v208q-26 13 -66 13q-47 0 -74.5 -28.5t-27.5 -78.5q0 -57 31 -87.5t88 -30.5q26 0 49 4zM671 680l-47 -167h-112l47 167h112z" />
    <glyph glyph-name="Dcroat" unicode="&#x110;" horiz-adv-x="636" 
d="M72 237h-52v120h52v232q94 15 199 15q153 0 243 -77.5t90 -223.5q0 -156 -91 -233.5t-246 -77.5q-131 0 -195 14v231zM221 237v-112q27 -3 64 -3q77 0 121.5 45.5t44.5 135.5q0 82 -47 123t-122 41q-34 0 -61 -3v-107h108v-120h-108z" />
    <glyph glyph-name="dcroat" unicode="&#x111;" horiz-adv-x="553" 
d="M340 515h-112v92h112v73h142v-73h61v-92h-61v-502q-86 -23 -196 -23q-119 0 -188.5 61t-69.5 173q0 105 63.5 170.5t169.5 65.5q51 0 79 -12v67zM340 115v208q-26 13 -66 13q-47 0 -74.5 -28.5t-27.5 -78.5q0 -57 31 -87.5t88 -30.5q26 0 49 4z" />
    <glyph glyph-name="Emacron" unicode="&#x112;" horiz-adv-x="505" 
d="M208 131h253v-131h-400v594h393v-131h-246v-102h224v-128h-224v-102zM140 642v102h239v-102h-239z" />
    <glyph glyph-name="emacron" unicode="&#x113;" horiz-adv-x="483" 
d="M447 181h-282v-2q8 -34 43 -51t78 -17q80 0 149 36v-117q-60 -40 -165 -40q-113 0 -177.5 62t-64.5 166q0 112 62 177t160 65q104 0 150.5 -60.5t46.5 -157.5v-61zM166 261h151q0 36 -17 59.5t-53 23.5q-33 0 -54 -22.5t-27 -60.5zM122 516v102h239v-102h-239z" />
    <glyph glyph-name="Ebreve" unicode="&#x114;" horiz-adv-x="505" 
d="M208 131h253v-131h-400v594h393v-131h-246v-102h224v-128h-224v-102zM298 780h101q0 -68 -37.5 -105t-98.5 -37t-98.5 37t-37.5 105h101q0 -50 35 -50t35 50z" />
    <glyph glyph-name="ebreve" unicode="&#x115;" horiz-adv-x="483" 
d="M447 181h-282v-2q8 -34 43 -51t78 -17q80 0 149 36v-117q-60 -40 -165 -40q-113 0 -177.5 62t-64.5 166q0 112 62 177t160 65q104 0 150.5 -60.5t46.5 -157.5v-61zM166 261h151q0 36 -17 59.5t-53 23.5q-33 0 -54 -22.5t-27 -60.5zM286 655h101q0 -69 -38 -107.5
t-98 -38.5t-98 38.5t-38 107.5h101q0 -54 35 -54t35 54z" />
    <glyph glyph-name="Edotaccent" unicode="&#x116;" horiz-adv-x="505" 
d="M208 131h253v-131h-400v594h393v-131h-246v-102h224v-128h-224v-102zM264 634q-34 0 -58 23.5t-24 57.5t24 58t58 24q33 0 57 -24t24 -58q0 -33 -24 -57t-57 -24z" />
    <glyph glyph-name="edotaccent" unicode="&#x117;" horiz-adv-x="483" 
d="M447 181h-282v-2q8 -34 43 -51t78 -17q80 0 149 36v-117q-60 -40 -165 -40q-113 0 -177.5 62t-64.5 166q0 112 62 177t160 65q104 0 150.5 -60.5t46.5 -157.5v-61zM166 261h151q0 36 -17 59.5t-53 23.5q-33 0 -54 -22.5t-27 -60.5zM252 504q-34 0 -58 23.5t-24 57.5
t24 58t58 24q33 0 57 -24t24 -58q0 -33 -24 -57t-57 -24z" />
    <glyph glyph-name="Eogonek" unicode="&#x118;" horiz-adv-x="505" 
d="M330 0h-269v594h393v-131h-246v-102h224v-128h-224v-102h253v-131h-31q-47 -34 -47 -71q0 -23 28 -23q23 0 47 11v-93q-26 -14 -74 -14q-47 0 -77 21.5t-30 65.5q0 62 53 103z" />
    <glyph glyph-name="eogonek" unicode="&#x119;" horiz-adv-x="483" 
d="M447 181h-282v-2q8 -34 43 -51t78 -17q80 0 149 36v-117q-6 -4 -18 -10l-14 -7q-61 -34 -61 -79q0 -28 29 -28q23 0 47 11v-93q-26 -14 -74 -14q-47 0 -77 22.5t-30 69.5q0 55 40 89q-3 -1 -10 -1q-111 0 -175 62t-64 166q0 112 62 177t160 65q104 0 150.5 -60.5
t46.5 -157.5v-61zM166 261h151q0 36 -17 59.5t-53 23.5q-33 0 -54 -22.5t-27 -60.5z" />
    <glyph glyph-name="Ecaron" unicode="&#x11a;" horiz-adv-x="505" 
d="M208 131h253v-131h-400v594h393v-131h-246v-102h224v-128h-224v-102zM428 795l-117 -154h-96l-117 154h112l53 -72l53 72h112z" />
    <glyph glyph-name="ecaron" unicode="&#x11b;" horiz-adv-x="483" 
d="M447 181h-282v-2q8 -34 43 -51t78 -17q80 0 149 36v-117q-60 -40 -165 -40q-113 0 -177.5 62t-64.5 166q0 112 62 177t160 65q104 0 150.5 -60.5t46.5 -157.5v-61zM166 261h151q0 36 -17 59.5t-53 23.5q-33 0 -54 -22.5t-27 -60.5zM407 665l-117 -158h-96l-117 158h115
l50 -73l50 73h115z" />
    <glyph glyph-name="Gcircumflex" unicode="&#x11c;" horiz-adv-x="587" 
d="M524 559v-153q-70 65 -174 65q-77 0 -121 -47.5t-44 -126.5q0 -82 45.5 -130.5t119.5 -48.5q34 0 51 5v155h146v-243q-68 -45 -201 -45q-145 0 -229.5 82t-84.5 225q0 136 85.5 221.5t222.5 85.5q112 0 184 -45zM382 793l117 -154h-112l-53 72l-53 -72h-112l117 154h96z
" />
    <glyph glyph-name="gcircumflex" unicode="&#x11d;" horiz-adv-x="531" 
d="M332 11v10q-26 -14 -80 -14q-101 0 -162.5 59t-61.5 165q0 107 67 168t184 61q104 0 195 -36v-413q0 -57 -21.5 -98.5t-57.5 -62.5t-73.5 -30.5t-79.5 -9.5q-85 0 -159 35v131q79 -47 159 -47q41 0 65.5 21.5t24.5 60.5zM332 136v193q-21 8 -53 8q-50 0 -78.5 -26.5
t-28.5 -79.5q0 -49 27.5 -77.5t71.5 -28.5q28 0 61 11zM331 665l117 -158h-112l-53 69l-53 -69h-112l117 158h96z" />
    <glyph glyph-name="Gbreve" unicode="&#x11e;" horiz-adv-x="587" 
d="M524 559v-153q-70 65 -174 65q-77 0 -121 -47.5t-44 -126.5q0 -82 45.5 -130.5t119.5 -48.5q34 0 51 5v155h146v-243q-68 -45 -201 -45q-145 0 -229.5 82t-84.5 225q0 136 85.5 221.5t222.5 85.5q112 0 184 -45zM368 780h101q0 -68 -37.5 -105t-98.5 -37t-98.5 37
t-37.5 105h101q0 -50 35 -50t35 50z" />
    <glyph glyph-name="gbreve" unicode="&#x11f;" horiz-adv-x="531" 
d="M332 11v10q-26 -14 -80 -14q-101 0 -162.5 59t-61.5 165q0 107 67 168t184 61q104 0 195 -36v-413q0 -57 -21.5 -98.5t-57.5 -62.5t-73.5 -30.5t-79.5 -9.5q-85 0 -159 35v131q79 -47 159 -47q41 0 65.5 21.5t24.5 60.5zM332 136v193q-21 8 -53 8q-50 0 -78.5 -26.5
t-28.5 -79.5q0 -49 27.5 -77.5t71.5 -28.5q28 0 61 11zM308 655h101q0 -69 -38 -107.5t-98 -38.5t-98 38.5t-38 107.5h101q0 -54 35 -54t35 54z" />
    <glyph glyph-name="Gdotaccent" unicode="&#x120;" horiz-adv-x="587" 
d="M524 559v-153q-70 65 -174 65q-77 0 -121 -47.5t-44 -126.5q0 -82 45.5 -130.5t119.5 -48.5q34 0 51 5v155h146v-243q-68 -45 -201 -45q-145 0 -229.5 82t-84.5 225q0 136 85.5 221.5t222.5 85.5q112 0 184 -45zM334 634q-34 0 -58 23.5t-24 57.5t24 58t58 24
q33 0 57 -24t24 -58q0 -33 -24 -57t-57 -24z" />
    <glyph glyph-name="gdotaccent" unicode="&#x121;" horiz-adv-x="531" 
d="M332 11v10q-26 -14 -80 -14q-101 0 -162.5 59t-61.5 165q0 107 67 168t184 61q104 0 195 -36v-413q0 -57 -21.5 -98.5t-57.5 -62.5t-73.5 -30.5t-79.5 -9.5q-85 0 -159 35v131q79 -47 159 -47q41 0 65.5 21.5t24.5 60.5zM332 136v193q-21 8 -53 8q-50 0 -78.5 -26.5
t-28.5 -79.5q0 -49 27.5 -77.5t71.5 -28.5q28 0 61 11zM274 504q-34 0 -58 23.5t-24 57.5t24 58t58 24q33 0 57 -24t24 -58q0 -33 -24 -57t-57 -24z" />
    <glyph glyph-name="Gcommaaccent" unicode="&#x122;" horiz-adv-x="587" 
d="M524 559v-153q-70 65 -174 65q-77 0 -121 -47.5t-44 -126.5q0 -82 45.5 -130.5t119.5 -48.5q34 0 51 5v155h146v-243q-68 -45 -201 -45q-145 0 -229.5 82t-84.5 225q0 136 85.5 221.5t222.5 85.5q112 0 184 -45zM281 -38h136q0 -101 -98 -152h-97q59 60 59 152z" />
    <glyph glyph-name="gcommaaccent" unicode="&#x123;" horiz-adv-x="531" 
d="M332 11v10q-26 -14 -80 -14q-101 0 -162.5 59t-61.5 165q0 107 67 168t184 61q104 0 195 -36v-413q0 -57 -21.5 -98.5t-57.5 -62.5t-73.5 -30.5t-79.5 -9.5q-85 0 -159 35v131q79 -47 159 -47q41 0 65.5 21.5t24.5 60.5zM332 136v193q-21 8 -53 8q-50 0 -78.5 -26.5
t-28.5 -79.5q0 -49 27.5 -77.5t71.5 -28.5q28 0 61 11zM346 513h-136q0 54 28 102t70 70h97q-59 -60 -59 -172z" />
    <glyph glyph-name="Hcircumflex" unicode="&#x124;" horiz-adv-x="658" 
d="M448 361v233h149v-594h-149v229h-238v-229h-149v594h149v-233h238zM377 793l117 -154h-112l-53 72l-53 -72h-112l117 154h96z" />
    <glyph glyph-name="hcircumflex" unicode="&#x125;" horiz-adv-x="535" 
d="M61 0v680h142v-238q41 18 103 18q79 0 127 -43.5t48 -141.5v-275h-142v269q0 64 -64 64q-44 0 -72 -10v-323h-142zM309 872l117 -154h-112l-53 72l-53 -72h-112l117 154h96z" />
    <glyph glyph-name="Hbar" unicode="&#x126;" horiz-adv-x="678" 
d="M71 401h-51v110h51v83h149v-83h238v83h149v-83h51v-110h-51v-401h-149v205h-238v-205h-149v401zM220 401v-80h238v80h-238z" />
    <glyph glyph-name="hbar" unicode="&#x127;" horiz-adv-x="545" 
d="M71 515h-61v92h61v73h142v-73h112v-92h-112v-73q41 18 103 18q79 0 127 -43.5t48 -141.5v-275h-142v269q0 64 -64 64q-45 0 -72 -10v-323h-142v515z" />
    <glyph glyph-name="Itilde" unicode="&#x128;" horiz-adv-x="271" 
d="M210 594v-594h-149v594h149zM198 771h87q0 -61 -24 -97.5t-67 -36.5q-28 0 -56 19t-39 19q-27 0 -27 -34h-87q0 61 24 97.5t67 36.5q28 0 56.5 -19t39.5 -19q26 0 26 34z" />
    <glyph glyph-name="itilde" unicode="&#x129;" horiz-adv-x="264" 
d="M203 450v-450h-142v450h142zM195 637h87q0 -61 -24 -97.5t-67 -36.5q-28 0 -56 19t-39 19q-27 0 -27 -34h-87q0 61 24 97.5t67 36.5q28 0 56.5 -19t39.5 -19q26 0 26 34z" />
    <glyph glyph-name="Imacron" unicode="&#x12a;" horiz-adv-x="271" 
d="M210 594v-594h-149v594h149zM16 642v102h239v-102h-239z" />
    <glyph glyph-name="imacron" unicode="&#x12b;" horiz-adv-x="264" 
d="M203 450v-450h-142v450h142zM13 516v102h239v-102h-239z" />
    <glyph glyph-name="Ibreve" unicode="&#x12c;" horiz-adv-x="271" 
d="M210 594v-594h-149v594h149zM170 780h101q0 -68 -37.5 -105t-98.5 -37t-98.5 37t-37.5 105h101q0 -50 35 -50t35 50z" />
    <glyph glyph-name="ibreve" unicode="&#x12d;" horiz-adv-x="264" 
d="M203 450v-450h-142v450h142zM167 655h101q0 -69 -38 -107.5t-98 -38.5t-98 38.5t-38 107.5h101q0 -54 35 -54t35 54z" />
    <glyph glyph-name="Iogonek" unicode="&#x12e;" horiz-adv-x="271" 
d="M210 594v-594q-75 -27 -75 -71q0 -23 28 -23q23 0 47 11v-93q-26 -14 -74 -14q-47 0 -77 21.5t-30 65.5q0 30 17 58t44 45h-29v594h149z" />
    <glyph glyph-name="iogonek" unicode="&#x12f;" horiz-adv-x="264" 
d="M132 511q-34 0 -58 23.5t-24 57.5t24 58t58 24q33 0 57 -24t24 -58q0 -33 -24 -57t-57 -24zM61 0v450h142v-450q-35 -12 -55 -31t-20 -37q0 -26 28 -26q23 0 47 11v-93q-26 -14 -74 -14q-47 0 -77 21.5t-30 65.5q0 72 73 103h-34z" />
    <glyph glyph-name="Idotaccent" unicode="&#x130;" horiz-adv-x="271" 
d="M210 594v-594h-149v594h149zM136 634q-34 0 -58 23.5t-24 57.5t24 58t58 24q33 0 57 -24t24 -58q0 -33 -24 -57t-57 -24z" />
    <glyph glyph-name="dotlessi" unicode="&#x131;" horiz-adv-x="264" 
d="M203 450v-450h-142v450h142z" />
    <glyph glyph-name="IJ" unicode="&#x132;" horiz-adv-x="665" 
d="M210 594v-594h-149v594h149zM291 23v145q52 -41 108 -41q31 0 48 11.5t17 44.5v411h149v-428q0 -86 -52 -131t-141 -45q-79 0 -129 33z" />
    <glyph glyph-name="ij" unicode="&#x133;" horiz-adv-x="528" 
d="M203 450v-450h-142v450h142zM132 504q-34 0 -58 23.5t-24 57.5t24 58t58 24q33 0 57 -24t24 -58q0 -33 -24 -57t-57 -24zM325 -13v463h142v-487q0 -78 -47.5 -115.5t-124.5 -37.5q-44 0 -87 15v118q39 -13 64 -13q27 0 40 12t13 45zM396 504q-34 0 -58 23.5t-24 57.5
t24 58t58 24q33 0 57 -24t24 -58q0 -33 -24 -57t-57 -24z" />
    <glyph glyph-name="Jcircumflex" unicode="&#x134;" horiz-adv-x="394" 
d="M20 23v145q52 -41 108 -41q31 0 48 11.5t17 44.5v411h149v-428q0 -86 -52 -131t-141 -45q-79 0 -129 33zM315 793l117 -154h-112l-53 72l-53 -72h-112l117 154h96z" />
    <glyph glyph-name="jcircumflex" unicode="&#x135;" horiz-adv-x="264" 
d="M61 -13v463h142v-487q0 -78 -47.5 -115.5t-124.5 -37.5q-44 0 -87 15v118q39 -13 64 -13q27 0 40 12t13 45zM176 653l117 -158h-112l-53 69l-53 -69h-112l117 158h96z" />
    <glyph glyph-name="Kcommaaccent" unicode="&#x136;" horiz-adv-x="578" 
d="M61 0v594h149v-594h-149zM213 294l181 300h172l-191 -288l204 -306h-175zM236 -38h136q0 -101 -98 -152h-97q59 60 59 152z" />
    <glyph glyph-name="kcommaaccent" unicode="&#x137;" horiz-adv-x="526" 
d="M365 0l-157 244l149 206h165l-158 -204l162 -246h-161zM203 680v-680h-142v680h142zM213 -38h136q0 -101 -98 -152h-97q59 60 59 152z" />
    <glyph glyph-name="kgreenlandic" unicode="&#x138;" horiz-adv-x="526" 
d="M365 0l-157 244l149 206h165l-158 -204l162 -246h-161zM203 450v-450h-142v450h142z" />
    <glyph glyph-name="Lacute" unicode="&#x139;" horiz-adv-x="456" 
d="M61 0v594h149v-463h226v-131h-375zM196 641h-128l84 151h128z" />
    <glyph glyph-name="lacute" unicode="&#x13a;" horiz-adv-x="264" 
d="M203 680v-680h-142v680h142zM194 723h-128l84 151h128z" />
    <glyph glyph-name="Lcommaaccent" unicode="&#x13b;" horiz-adv-x="456" 
d="M61 0v594h149v-463h226v-131h-375zM190 -38h136q0 -101 -98 -152h-97q59 60 59 152z" />
    <glyph glyph-name="lcommaaccent" unicode="&#x13c;" horiz-adv-x="264" 
d="M203 680v-680h-142v680h142zM68 -38h136q0 -101 -98 -152h-97q59 60 59 152z" />
    <glyph glyph-name="Lcaron" unicode="&#x13d;" horiz-adv-x="456" 
d="M61 0v594h149v-463h226v-131h-375zM422 594l-47 -167h-112l47 167h112z" />
    <glyph glyph-name="lcaron" unicode="&#x13e;" horiz-adv-x="264" 
d="M203 680v-680h-142v680h142zM392 680l-47 -167h-112l47 167h112z" />
    <glyph glyph-name="Ldot" unicode="&#x13f;" horiz-adv-x="468" 
d="M61 0v594h149v-463h226v-131h-375zM350 254q-34 0 -58 23.5t-24 57.5t24 58t58 24q33 0 57 -24t24 -58q0 -33 -24 -57t-57 -24z" />
    <glyph glyph-name="ldot" unicode="&#x140;" horiz-adv-x="429" 
d="M203 680v-680h-142v680h142zM342 251q-34 0 -58 23.5t-24 57.5t24 58t58 24q33 0 57 -24t24 -58q0 -33 -24 -57t-57 -24z" />
    <glyph glyph-name="Lslash" unicode="&#x141;" horiz-adv-x="462" 
d="M15 189v123l52 19v263h149v-214l127 48v-123l-127 -48v-126h226v-131h-375v208z" />
    <glyph glyph-name="lslash" unicode="&#x142;" horiz-adv-x="293" 
d="M218 680v-238l60 33v-107l-60 -34v-334h-142v268l-61 -34v107l61 34v305h142z" />
    <glyph glyph-name="Nacute" unicode="&#x143;" horiz-adv-x="655" 
d="M211 594l239 -364v364h144v-594h-141l-248 357v-357h-144v594h150zM387 641h-128l84 151h128z" />
    <glyph glyph-name="nacute" unicode="&#x144;" horiz-adv-x="535" 
d="M61 0v418q105 42 224 42q95 0 145.5 -42t50.5 -143v-275h-142v269q0 64 -64 64q-42 0 -72 -11v-322h-142zM329 513h-128l85 152h128z" />
    <glyph glyph-name="Ncommaaccent" unicode="&#x145;" horiz-adv-x="655" 
d="M211 594l239 -364v364h144v-594h-141l-248 357v-357h-144v594h150zM267 -38h136q0 -101 -98 -152h-97q59 60 59 152z" />
    <glyph glyph-name="ncommaaccent" unicode="&#x146;" horiz-adv-x="535" 
d="M61 0v418q105 42 224 42q95 0 145.5 -42t50.5 -143v-275h-142v269q0 64 -64 64q-42 0 -72 -11v-322h-142zM207 -38h136q0 -101 -98 -152h-97q59 60 59 152z" />
    <glyph glyph-name="Ncaron" unicode="&#x147;" horiz-adv-x="655" 
d="M211 594l239 -364v364h144v-594h-141l-248 357v-357h-144v594h150zM496 795l-117 -154h-96l-117 154h112l53 -72l53 72h112z" />
    <glyph glyph-name="ncaron" unicode="&#x148;" horiz-adv-x="535" 
d="M61 0v418q105 42 224 42q95 0 145.5 -42t50.5 -143v-275h-142v269q0 64 -64 64q-42 0 -72 -11v-322h-142zM436 665l-117 -158h-96l-117 158h115l50 -73l50 73h115z" />
    <glyph glyph-name="Eng" unicode="&#x14a;" horiz-adv-x="655" 
d="M594 594v-608q0 -86 -52 -131t-141 -45q-79 0 -129 33v139q52 -41 108 -41q31 0 48 11.5t17 44.5v16l-240 344v-357h-144v594h150l239 -364v364h144z" />
    <glyph glyph-name="eng" unicode="&#x14b;" horiz-adv-x="535" 
d="M339 -13v282q0 64 -64 64q-42 0 -72 -11v-322h-142v418q105 42 224 42q95 0 145.5 -42t50.5 -143v-312q0 -78 -47.5 -115.5t-124.5 -37.5q-44 0 -87 15v118q39 -13 64 -13q27 0 40 12t13 45z" />
    <glyph glyph-name="Omacron" unicode="&#x14c;" horiz-adv-x="683" 
d="M32 297q0 134 89 220.5t220 86.5t220.5 -86.5t89.5 -220.5t-89.5 -220.5t-220.5 -86.5t-220 86.5t-89 220.5zM497 297q0 77 -43.5 125t-112.5 48q-68 0 -112 -48t-44 -125t44 -125t112 -48q69 0 112.5 48t43.5 125zM222 642v102h239v-102h-239z" />
    <glyph glyph-name="omacron" unicode="&#x14d;" horiz-adv-x="533" 
d="M28 225q0 104 68 169.5t170 65.5q103 0 171 -65.5t68 -169.5t-68 -169.5t-171 -65.5q-102 0 -170 65.5t-68 169.5zM362 225q0 52 -26.5 82.5t-69.5 30.5q-42 0 -68.5 -30.5t-26.5 -82.5t26.5 -82.5t68.5 -30.5q43 0 69.5 30.5t26.5 82.5zM147 516v102h239v-102h-239z" />
    <glyph glyph-name="Obreve" unicode="&#x14e;" horiz-adv-x="683" 
d="M32 297q0 134 89 220.5t220 86.5t220.5 -86.5t89.5 -220.5t-89.5 -220.5t-220.5 -86.5t-220 86.5t-89 220.5zM497 297q0 77 -43.5 125t-112.5 48q-68 0 -112 -48t-44 -125t44 -125t112 -48q69 0 112.5 48t43.5 125zM376 780h101q0 -68 -37.5 -105t-98.5 -37t-98.5 37
t-37.5 105h101q0 -50 35 -50t35 50z" />
    <glyph glyph-name="obreve" unicode="&#x14f;" horiz-adv-x="533" 
d="M28 225q0 104 68 169.5t170 65.5q103 0 171 -65.5t68 -169.5t-68 -169.5t-171 -65.5q-102 0 -170 65.5t-68 169.5zM362 225q0 52 -26.5 82.5t-69.5 30.5q-42 0 -68.5 -30.5t-26.5 -82.5t26.5 -82.5t68.5 -30.5q43 0 69.5 30.5t26.5 82.5zM301 655h101q0 -69 -38 -107.5
t-98 -38.5t-98 38.5t-38 107.5h101q0 -54 35 -54t35 54z" />
    <glyph glyph-name="Ohungarumlaut" unicode="&#x150;" horiz-adv-x="683" 
d="M32 297q0 134 89 220.5t220 86.5t220.5 -86.5t89.5 -220.5t-89.5 -220.5t-220.5 -86.5t-220 86.5t-89 220.5zM497 297q0 77 -43.5 125t-112.5 48q-68 0 -112 -48t-44 -125t44 -125t112 -48q69 0 112.5 48t43.5 125zM318 641h-116l85 151h116zM475 641h-116l85 151h116z
" />
    <glyph glyph-name="ohungarumlaut" unicode="&#x151;" horiz-adv-x="533" 
d="M28 225q0 104 68 169.5t170 65.5q103 0 171 -65.5t68 -169.5t-68 -169.5t-171 -65.5q-102 0 -170 65.5t-68 169.5zM362 225q0 52 -26.5 82.5t-69.5 30.5q-42 0 -68.5 -30.5t-26.5 -82.5t26.5 -82.5t68.5 -30.5q43 0 69.5 30.5t26.5 82.5zM243 513h-116l85 152h116z
M400 513h-116l85 152h116z" />
    <glyph glyph-name="OE" unicode="&#x152;" horiz-adv-x="822" 
d="M771 594v-131h-246v-102h224v-128h-224v-102h253v-131h-437q-131 0 -220 83.5t-89 213.5t89 213.5t220 83.5h430zM378 130v334h-37q-68 0 -112 -46t-44 -121q0 -74 44 -120.5t112 -46.5h37z" />
    <glyph glyph-name="oe" unicode="&#x153;" horiz-adv-x="814" 
d="M766 147v-117q-60 -40 -165 -40q-107 0 -172 62q-69 -62 -163 -62q-102 0 -170 65.5t-68 169.5t68 169.5t170 65.5q95 0 162 -61q61 61 153 61q104 0 150.5 -60.5t46.5 -157.5v-61h-282v-2q8 -34 43 -51t78 -17q80 0 149 36zM362 225q0 52 -26.5 82.5t-69.5 30.5
q-42 0 -68.5 -30.5t-26.5 -82.5t26.5 -82.5t68.5 -30.5q43 0 69.5 30.5t26.5 82.5zM497 261h151q0 36 -17 59.5t-53 23.5q-33 0 -54 -22.5t-27 -60.5z" />
    <glyph glyph-name="Racute" unicode="&#x154;" horiz-adv-x="555" 
d="M209 190v-190h-148v591q76 13 188 13q118 0 186 -51.5t68 -154.5q0 -60 -29.5 -105.5t-77.5 -70.5l159 -222h-175l-128 190h-43zM209 473v-161h37q106 0 106 82q0 81 -102 81q-25 0 -41 -2zM332 641h-128l84 151h128z" />
    <glyph glyph-name="racute" unicode="&#x155;" horiz-adv-x="359" 
d="M203 318v-318h-142v417q77 40 184 40q53 0 100 -13v-137q-39 17 -94 17q-23 0 -48 -6zM273 513h-128l85 152h128z" />
    <glyph glyph-name="Rcommaaccent" unicode="&#x156;" horiz-adv-x="555" 
d="M209 190v-190h-148v591q76 13 188 13q118 0 186 -51.5t68 -154.5q0 -60 -29.5 -105.5t-77.5 -70.5l159 -222h-175l-128 190h-43zM209 473v-161h37q106 0 106 82q0 81 -102 81q-25 0 -41 -2zM222 -38h136q0 -101 -98 -152h-97q59 60 59 152z" />
    <glyph glyph-name="rcommaaccent" unicode="&#x157;" horiz-adv-x="359" 
d="M203 318v-318h-142v417q77 40 184 40q53 0 100 -13v-137q-39 17 -94 17q-23 0 -48 -6zM63 -38h136q0 -101 -98 -152h-97q59 60 59 152z" />
    <glyph glyph-name="Rcaron" unicode="&#x158;" horiz-adv-x="555" 
d="M209 190v-190h-148v591q76 13 188 13q118 0 186 -51.5t68 -154.5q0 -60 -29.5 -105.5t-77.5 -70.5l159 -222h-175l-128 190h-43zM209 473v-161h37q106 0 106 82q0 81 -102 81q-25 0 -41 -2zM441 795l-117 -154h-96l-117 154h112l53 -72l53 72h112z" />
    <glyph glyph-name="rcaron" unicode="&#x159;" horiz-adv-x="359" 
d="M203 318v-318h-142v417q77 40 184 40q53 0 100 -13v-137q-39 17 -94 17q-23 0 -48 -6zM380 665l-117 -158h-96l-117 158h115l50 -73l50 73h115z" />
    <glyph glyph-name="Sacute" unicode="&#x15a;" horiz-adv-x="458" 
d="M38 32v146q81 -61 164 -61q84 0 84 53q0 25 -21 38.5t-70 25.5q-91 23 -130 67t-39 119q0 86 58 135t148 49q91 0 164 -43v-146q-75 62 -158 62q-33 0 -50 -13t-17 -35q0 -26 22 -39t75 -27q90 -24 127 -68t37 -120q0 -92 -64 -138.5t-165 -46.5q-97 0 -165 42zM291 641
h-128l84 151h128z" />
    <glyph glyph-name="sacute" unicode="&#x15b;" horiz-adv-x="420" 
d="M47 27v125q74 -49 149 -49q53 0 53 28q0 14 -12 22t-43 12q-82 11 -118.5 45t-36.5 98q0 75 50.5 113.5t131.5 38.5q73 0 135 -34v-121q-66 42 -129 42q-50 0 -50 -29q0 -24 46 -31q93 -15 128.5 -51t35.5 -100q0 -73 -50 -109.5t-137 -36.5q-91 0 -153 37zM281 513h-128
l85 152h128z" />
    <glyph glyph-name="Scircumflex" unicode="&#x15c;" horiz-adv-x="458" 
d="M38 32v146q81 -61 164 -61q84 0 84 53q0 25 -21 38.5t-70 25.5q-91 23 -130 67t-39 119q0 86 58 135t148 49q91 0 164 -43v-146q-75 62 -158 62q-33 0 -50 -13t-17 -35q0 -26 22 -39t75 -27q90 -24 127 -68t37 -120q0 -92 -64 -138.5t-165 -46.5q-97 0 -165 42zM283 793
l117 -154h-112l-53 72l-53 -72h-112l117 154h96z" />
    <glyph glyph-name="scircumflex" unicode="&#x15d;" horiz-adv-x="420" 
d="M47 27v125q74 -49 149 -49q53 0 53 28q0 14 -12 22t-43 12q-82 11 -118.5 45t-36.5 98q0 75 50.5 113.5t131.5 38.5q73 0 135 -34v-121q-66 42 -129 42q-50 0 -50 -29q0 -24 46 -31q93 -15 128.5 -51t35.5 -100q0 -73 -50 -109.5t-137 -36.5q-91 0 -153 37zM263 665
l117 -158h-112l-53 69l-53 -69h-112l117 158h96z" />
    <glyph glyph-name="Scedilla" unicode="&#x15e;" horiz-adv-x="458" 
d="M226 -146h-121q65 59 76 137q-82 4 -143 41v146q81 -61 164 -61q84 0 84 53q0 25 -21 38.5t-70 25.5q-91 23 -130 67t-39 119q0 86 58 135t148 49q91 0 164 -43v-146q-75 62 -158 62q-33 0 -50 -13t-17 -35q0 -26 22 -39t75 -27q90 -24 127 -68t37 -120q0 -68 -36 -111.5
t-99 -61.5q-3 -45 -23 -86.5t-48 -61.5z" />
    <glyph glyph-name="scedilla" unicode="&#x15f;" horiz-adv-x="420" 
d="M208 -146h-121q67 62 76 138q-69 6 -116 35v125q74 -49 149 -49q53 0 53 28q0 14 -12 22t-43 12q-82 11 -118.5 45t-36.5 98q0 75 50.5 113.5t131.5 38.5q73 0 135 -34v-121q-66 42 -129 42q-50 0 -50 -29q0 -24 46 -31q93 -15 128.5 -51t35.5 -100q0 -108 -109 -137
q-3 -44 -22.5 -84.5t-47.5 -60.5z" />
    <glyph glyph-name="Scaron" unicode="&#x160;" horiz-adv-x="458" 
d="M38 32v146q81 -61 164 -61q84 0 84 53q0 25 -21 38.5t-70 25.5q-91 23 -130 67t-39 119q0 86 58 135t148 49q91 0 164 -43v-146q-75 62 -158 62q-33 0 -50 -13t-17 -35q0 -26 22 -39t75 -27q90 -24 127 -68t37 -120q0 -92 -64 -138.5t-165 -46.5q-97 0 -165 42zM400 795
l-117 -154h-96l-117 154h112l53 -72l53 72h112z" />
    <glyph glyph-name="scaron" unicode="&#x161;" horiz-adv-x="420" 
d="M47 27v125q74 -49 149 -49q53 0 53 28q0 14 -12 22t-43 12q-82 11 -118.5 45t-36.5 98q0 75 50.5 113.5t131.5 38.5q73 0 135 -34v-121q-66 42 -129 42q-50 0 -50 -29q0 -24 46 -31q93 -15 128.5 -51t35.5 -100q0 -73 -50 -109.5t-137 -36.5q-91 0 -153 37zM380 665
l-117 -158h-96l-117 158h115l50 -73l50 73h115z" />
    <glyph glyph-name="Tcommaaccent" unicode="&#x162;" horiz-adv-x="534" 
d="M341 463v-463h-148v463h-178v131h504v-131h-178zM199 -38h136q0 -101 -98 -152h-97q59 60 59 152z" />
    <glyph glyph-name="tcommaaccent" unicode="&#x163;" horiz-adv-x="374" 
d="M0 332v118h67v111h141v-111h129v-118h-129v-148q0 -63 59 -63q45 0 82 25v-130q-49 -26 -122 -26q-69 0 -114.5 36.5t-45.5 116.5v189h-67zM160 -38h136q0 -101 -98 -152h-97q59 60 59 152z" />
    <glyph glyph-name="Tcaron" unicode="&#x164;" horiz-adv-x="534" 
d="M341 463v-463h-148v463h-178v131h504v-131h-178zM432 795l-117 -154h-96l-117 154h112l53 -72l53 72h112z" />
    <glyph glyph-name="tcaron" unicode="&#x165;" horiz-adv-x="374" 
d="M0 332v118h67v111h141v-111h129v-118h-129v-148q0 -63 59 -63q45 0 82 25v-130q-49 -26 -122 -26q-69 0 -114.5 36.5t-45.5 116.5v189h-67zM296 680h112l-47 -167h-112z" />
    <glyph glyph-name="Tbar" unicode="&#x166;" horiz-adv-x="534" 
d="M193 227h-100v122h100v114h-178v131h504v-131h-178v-114h100v-122h-100v-227h-148v227z" />
    <glyph glyph-name="tbar" unicode="&#x167;" horiz-adv-x="394" 
d="M77 292v56h-67v102h67v111h141v-111h129v-102h-129v-56h129v-102h-129v-12q0 -63 59 -63q45 0 82 25v-124q-49 -26 -122 -26q-69 0 -114.5 36.5t-45.5 116.5v47h-67v102h67z" />
    <glyph glyph-name="Utilde" unicode="&#x168;" horiz-adv-x="614" 
d="M54 213v381h149v-348q0 -71 27 -101.5t80 -30.5q40 0 94 8v472h149v-573q-38 -12 -112 -21.5t-131 -9.5q-114 0 -185 52.5t-71 170.5zM366 771h87q0 -61 -24 -97.5t-67 -36.5q-28 0 -56 19t-39 19q-27 0 -27 -34h-87q0 61 24 97.5t67 36.5q28 0 56.5 -19t39.5 -19
q26 0 26 34z" />
    <glyph glyph-name="utilde" unicode="&#x169;" horiz-adv-x="522" 
d="M461 450v-434q-83 -26 -195 -26q-105 0 -159.5 40t-54.5 139v281h142v-268q0 -40 14.5 -58t57.5 -18q24 0 53 6v338h142zM319 637h87q0 -61 -24 -97.5t-67 -36.5q-28 0 -56 19t-39 19q-27 0 -27 -34h-87q0 61 24 97.5t67 36.5q28 0 56.5 -19t39.5 -19q26 0 26 34z" />
    <glyph glyph-name="Umacron" unicode="&#x16a;" horiz-adv-x="614" 
d="M54 213v381h149v-348q0 -71 27 -101.5t80 -30.5q40 0 94 8v472h149v-573q-38 -12 -112 -21.5t-131 -9.5q-114 0 -185 52.5t-71 170.5zM184 642v102h239v-102h-239z" />
    <glyph glyph-name="umacron" unicode="&#x16b;" horiz-adv-x="522" 
d="M461 450v-434q-83 -26 -195 -26q-105 0 -159.5 40t-54.5 139v281h142v-268q0 -40 14.5 -58t57.5 -18q24 0 53 6v338h142zM137 516v102h239v-102h-239z" />
    <glyph glyph-name="Ubreve" unicode="&#x16c;" horiz-adv-x="614" 
d="M54 213v381h149v-348q0 -71 27 -101.5t80 -30.5q40 0 94 8v472h149v-573q-38 -12 -112 -21.5t-131 -9.5q-114 0 -185 52.5t-71 170.5zM338 780h101q0 -68 -37.5 -105t-98.5 -37t-98.5 37t-37.5 105h101q0 -50 35 -50t35 50z" />
    <glyph glyph-name="ubreve" unicode="&#x16d;" horiz-adv-x="522" 
d="M461 450v-434q-83 -26 -195 -26q-105 0 -159.5 40t-54.5 139v281h142v-268q0 -40 14.5 -58t57.5 -18q24 0 53 6v338h142zM291 655h101q0 -69 -38 -107.5t-98 -38.5t-98 38.5t-38 107.5h101q0 -54 35 -54t35 54z" />
    <glyph glyph-name="Uring" unicode="&#x16e;" horiz-adv-x="614" 
d="M54 213v381h149v-348q0 -71 27 -101.5t80 -30.5q40 0 94 8v472h149v-573q-38 -12 -112 -21.5t-131 -9.5q-114 0 -185 52.5t-71 170.5zM200 722q0 42 28 70.5t75 28.5t75.5 -28.5t28.5 -70.5q0 -43 -28 -71.5t-76 -28.5q-47 0 -75 28.5t-28 71.5zM342 722q0 16 -10.5 27.5
t-28.5 11.5q-17 0 -27.5 -11.5t-10.5 -27.5q0 -17 10.5 -28.5t27.5 -11.5q18 0 28.5 11.5t10.5 28.5z" />
    <glyph glyph-name="uring" unicode="&#x16f;" horiz-adv-x="522" 
d="M461 450v-434q-83 -26 -195 -26q-105 0 -159.5 40t-54.5 139v281h142v-268q0 -40 14.5 -58t57.5 -18q24 0 53 6v338h142zM153 590q0 42 28 70.5t75 28.5q48 0 76 -28.5t28 -70.5q0 -43 -28 -71.5t-76 -28.5q-47 0 -75 28.5t-28 71.5zM295 590q0 16 -10.5 27.5t-28.5 11.5
q-17 0 -27.5 -11.5t-10.5 -27.5q0 -17 10.5 -28.5t27.5 -11.5q18 0 28.5 11.5t10.5 28.5z" />
    <glyph glyph-name="Uhungarumlaut" unicode="&#x170;" horiz-adv-x="614" 
d="M54 213v381h149v-348q0 -71 27 -101.5t80 -30.5q40 0 94 8v472h149v-573q-38 -12 -112 -21.5t-131 -9.5q-114 0 -185 52.5t-71 170.5zM280 641h-116l85 151h116zM437 641h-116l85 151h116z" />
    <glyph glyph-name="uhungarumlaut" unicode="&#x171;" horiz-adv-x="522" 
d="M461 450v-434q-83 -26 -195 -26q-105 0 -159.5 40t-54.5 139v281h142v-268q0 -40 14.5 -58t57.5 -18q24 0 53 6v338h142zM229 513h-116l85 152h116zM386 513h-116l85 152h116z" />
    <glyph glyph-name="Uogonek" unicode="&#x172;" horiz-adv-x="614" 
d="M54 213v381h149v-348q0 -71 27 -101.5t80 -30.5q40 0 94 8v472h149v-573q-86 -47 -86 -92q0 -23 28 -23q23 0 47 11v-93q-26 -14 -74 -14q-47 0 -77 21.5t-30 65.5q0 58 48 99q-53 -6 -99 -6q-114 0 -185 52.5t-71 170.5z" />
    <glyph glyph-name="uogonek" unicode="&#x173;" horiz-adv-x="522" 
d="M461 -83v-93q-26 -14 -74 -14q-47 0 -77 22.5t-30 70.5q0 55 37 90q-30 -3 -51 -3q-105 0 -159.5 40t-54.5 139v281h142v-268q0 -40 14.5 -58t57.5 -18q24 0 53 6v338h142v-434q-34 -17 -54.5 -40.5t-20.5 -46.5t28 -23q23 0 47 11z" />
    <glyph glyph-name="Wcircumflex" unicode="&#x174;" horiz-adv-x="875" 
d="M364 594h150l103 -422l93 422h145l-141 -594h-185l-93 385l-92 -385h-183l-141 594h149l94 -422zM485 793l117 -154h-112l-53 72l-53 -72h-112l117 154h96z" />
    <glyph glyph-name="wcircumflex" unicode="&#x175;" horiz-adv-x="718" 
d="M421 450l76 -292l74 292h142l-128 -450h-155l-72 263l-72 -263h-153l-128 450h146l73 -292l77 292h120zM407 665l117 -158h-112l-53 69l-53 -69h-112l117 158h96z" />
    <glyph glyph-name="Ycircumflex" unicode="&#x176;" horiz-adv-x="575" 
d="M290 358l120 236h165l-214 -378v-216h-148v216l-213 378h164zM335 793l117 -154h-112l-53 72l-53 -72h-112l117 154h96z" />
    <glyph glyph-name="ycircumflex" unicode="&#x177;" horiz-adv-x="515" 
d="M158 450l103 -293l101 293h148l-246 -630h-140l65 171l-184 459h153zM311 665l117 -158h-112l-53 69l-53 -69h-112l117 158h96z" />
    <glyph glyph-name="Ydieresis" unicode="&#x178;" horiz-adv-x="575" 
d="M290 358l120 236h165l-214 -378v-216h-148v216l-213 378h164zM192 629q-32 0 -54.5 22.5t-22.5 53.5q0 33 22.5 56t54.5 23t55 -23t23 -56q0 -31 -23 -53.5t-55 -22.5zM380 629q-32 0 -54.5 22.5t-22.5 53.5q0 33 22.5 56t54.5 23t55 -23t23 -56q0 -31 -23 -53.5
t-55 -22.5z" />
    <glyph glyph-name="Zacute" unicode="&#x179;" horiz-adv-x="510" 
d="M30 463v131h444v-131l-273 -332h278v-131h-448v131l267 332h-268zM310 641h-128l84 151h128z" />
    <glyph glyph-name="zacute" unicode="&#x17a;" horiz-adv-x="435" 
d="M411 117v-117h-382v114l193 219h-188v117h360v-118l-195 -215h212zM278 513h-128l85 152h128z" />
    <glyph glyph-name="Zdotaccent" unicode="&#x17b;" horiz-adv-x="510" 
d="M30 463v131h444v-131l-273 -332h278v-131h-448v131l267 332h-268zM255 634q-34 0 -58 23.5t-24 57.5t24 58t58 24q33 0 57 -24t24 -58q0 -33 -24 -57t-57 -24z" />
    <glyph glyph-name="zdotaccent" unicode="&#x17c;" horiz-adv-x="435" 
d="M411 117v-117h-382v114l193 219h-188v117h360v-118l-195 -215h212zM221 504q-34 0 -58 23.5t-24 57.5t24 58t58 24q33 0 57 -24t24 -58q0 -33 -24 -57t-57 -24z" />
    <glyph glyph-name="Zcaron" unicode="&#x17d;" horiz-adv-x="510" 
d="M30 463v131h444v-131l-273 -332h278v-131h-448v131l267 332h-268zM419 795l-117 -154h-96l-117 154h112l53 -72l53 72h112z" />
    <glyph glyph-name="zcaron" unicode="&#x17e;" horiz-adv-x="435" 
d="M411 117v-117h-382v114l193 219h-188v117h360v-118l-195 -215h212zM385 665l-117 -158h-96l-117 158h115l50 -73l50 73h115z" />
    <glyph glyph-name="florin" unicode="&#x192;" horiz-adv-x="384" 
d="M77 212h-57v120h76l13 87q15 95 59 140t119 45q43 0 77 -17v-136q-27 18 -58 18q-49 0 -57 -57l-12 -80h80v-120h-98l-51 -332h-142z" />
    <glyph glyph-name="Aringacute" unicode="&#x1fa;" horiz-adv-x="641" 
d="M0 0l223 574q-19 27 -19 59q0 44 31.5 73.5t84.5 29.5t84.5 -29.5t31.5 -73.5q0 -33 -19 -58l224 -575h-163l-40 113h-240l-41 -113h-157zM395 234l-75 211l-77 -211h152zM320 595q20 0 31.5 11t11.5 27q0 17 -11.5 28.5t-31.5 11.5t-31.5 -11.5t-11.5 -28.5
q0 -16 11.5 -27t31.5 -11zM386 763h-128l62 111h128z" />
    <glyph glyph-name="aringacute" unicode="&#x1fb;" horiz-adv-x="471" 
d="M301 694h-128l60 106h128zM131 576q0 39 29 65t77 26t77 -26t29 -65q0 -40 -29 -66t-77 -26t-77 26t-29 66zM237 541q17 0 28 10t11 25t-11 25t-28 10t-28 -10t-11 -25t11 -25t28 -10zM279 269v18q0 53 -76 53q-69 0 -129 -37v120q63 37 155 37q190 0 190 -167v-283
q-88 -20 -184 -20q-201 0 -201 141q0 138 197 138h48zM279 96v87h-38q-66 0 -66 -45q0 -46 58 -46q27 0 46 4z" />
    <glyph glyph-name="AEacute" unicode="&#x1fc;" horiz-adv-x="868" 
d="M219 113l-62 -113h-157l328 594h489v-131h-246v-102h224v-128h-224v-102h253v-131h-400v113h-205zM286 234h138v252zM602 641h-128l84 151h128z" />
    <glyph glyph-name="aeacute" unicode="&#x1fd;" horiz-adv-x="741" 
d="M705 181h-282q18 -70 121 -70q80 0 149 36v-117q-60 -40 -165 -40q-100 0 -160 49q-71 -49 -156 -49q-74 0 -126 34.5t-52 106.5q0 66 52 98t145 32h63q0 1 3 22q-9 59 -87 59q-73 0 -136 -39v120q63 37 152 37q94 0 138 -52q57 52 144 52q104 0 150.5 -60.5t46.5 -157.5
v-61zM293 181h-57q-61 0 -61 -46q0 -21 14.5 -32.5t38.5 -11.5q45 0 81 26q-11 28 -16 64zM422 261h153q0 36 -17 59.5t-53 23.5q-30 0 -52.5 -20.5t-30.5 -62.5zM432 513h-128l85 152h128z" />
    <glyph glyph-name="Oslashacute" unicode="&#x1fe;" horiz-adv-x="695" 
d="M657 594l-77 -90q77 -85 77 -207q0 -134 -89.5 -220.5t-220.5 -86.5q-91 0 -169 46l-31 -36h-109l77 89q-77 85 -77 208q0 134 89 220.5t220 86.5q94 0 169 -47l32 37h109zM485 393l-218 -253q35 -20 80 -20q69 0 114.5 50t45.5 127q0 54 -22 96zM210 200l217 253
q-35 21 -80 21q-68 0 -114 -50t-46 -127q0 -56 23 -97zM403 641h-128l84 151h128z" />
    <glyph glyph-name="oslashacute" unicode="&#x1ff;" horiz-adv-x="543" 
d="M520 450l-64 -71q54 -64 54 -154q0 -104 -68 -169.5t-171 -65.5q-74 0 -132 36l-24 -26h-92l64 71q-54 64 -54 154q0 104 68 169.5t170 65.5q74 0 133 -37l24 27h92zM179 173l141 157q-21 12 -49 12q-44 0 -72 -31.5t-28 -85.5q0 -28 8 -52zM365 277l-143 -158
q22 -11 49 -11q45 0 73.5 31.5t28.5 85.5q0 28 -8 52zM334 513h-128l85 152h128z" />
    <glyph glyph-name="Scommaaccent" unicode="&#x218;" horiz-adv-x="458" 
d="M38 32v146q81 -61 164 -61q84 0 84 53q0 25 -21 38.5t-70 25.5q-91 23 -130 67t-39 119q0 86 58 135t148 49q91 0 164 -43v-146q-75 62 -158 62q-33 0 -50 -13t-17 -35q0 -26 22 -39t75 -27q90 -24 127 -68t37 -120q0 -92 -64 -138.5t-165 -46.5q-97 0 -165 42zM151 -38
h136q0 -101 -98 -152h-97q59 60 59 152z" />
    <glyph glyph-name="scommaaccent" unicode="&#x219;" horiz-adv-x="420" 
d="M47 27v125q74 -49 149 -49q53 0 53 28q0 14 -12 22t-43 12q-82 11 -118.5 45t-36.5 98q0 75 50.5 113.5t131.5 38.5q73 0 135 -34v-121q-66 42 -129 42q-50 0 -50 -29q0 -24 46 -31q93 -15 128.5 -51t35.5 -100q0 -73 -50 -109.5t-137 -36.5q-91 0 -153 37zM145 -38h136
q0 -101 -98 -152h-97q59 60 59 152z" />
    <glyph glyph-name="uni021A" unicode="&#x21a;" horiz-adv-x="534" 
d="M341 463v-463h-148v463h-178v131h504v-131h-178zM199 -38h136q0 -101 -98 -152h-97q59 60 59 152z" />
    <glyph glyph-name="uni021B" unicode="&#x21b;" horiz-adv-x="374" 
d="M0 332v118h67v111h141v-111h129v-118h-129v-148q0 -63 59 -63q45 0 82 25v-130q-49 -26 -122 -26q-69 0 -114.5 36.5t-45.5 116.5v189h-67zM160 -38h136q0 -101 -98 -152h-97q59 60 59 152z" />
    <glyph glyph-name="uni0237" unicode="&#x237;" horiz-adv-x="264" 
d="M61 -13v463h142v-487q0 -78 -47.5 -115.5t-124.5 -37.5q-44 0 -87 15v118q39 -13 64 -13q27 0 40 12t13 45z" />
    <glyph glyph-name="circumflex" unicode="&#x2c6;" horiz-adv-x="500" 
d="M298 665l117 -158h-112l-53 69l-53 -69h-112l117 158h96z" />
    <glyph glyph-name="caron" unicode="&#x2c7;" horiz-adv-x="500" 
d="M415 665l-117 -158h-96l-117 158h115l50 -73l50 73h115z" />
    <glyph glyph-name="uni02C9" unicode="&#x2c9;" horiz-adv-x="500" 
d="M130 516v102h239v-102h-239z" />
    <glyph glyph-name="breve" unicode="&#x2d8;" horiz-adv-x="500" 
d="M285 655h101q0 -69 -38 -107.5t-98 -38.5t-98 38.5t-38 107.5h101q0 -54 35 -54t35 54z" />
    <glyph glyph-name="dotaccent" unicode="&#x2d9;" horiz-adv-x="500" 
d="M250 504q-34 0 -58 23.5t-24 57.5t24 58t58 24q33 0 57 -24t24 -58q0 -33 -24 -57t-57 -24z" />
    <glyph glyph-name="ring" unicode="&#x2da;" horiz-adv-x="500" 
d="M146 590q0 42 28 70.5t75 28.5t75.5 -28.5t28.5 -70.5q0 -43 -28 -71.5t-76 -28.5q-47 0 -75 28.5t-28 71.5zM288 590q0 16 -10.5 27.5t-28.5 11.5q-17 0 -27.5 -11.5t-10.5 -27.5q0 -17 10.5 -28.5t27.5 -11.5q18 0 28.5 11.5t10.5 28.5z" />
    <glyph glyph-name="ogonek" unicode="&#x2db;" horiz-adv-x="500" 
d="M232 12h99q-65 -39 -65 -83q0 -23 28 -23q23 0 47 11v-93q-26 -14 -74 -14q-47 0 -77 21.5t-30 65.5q0 36 20.5 67.5t51.5 47.5z" />
    <glyph glyph-name="tilde" unicode="&#x2dc;" horiz-adv-x="500" 
d="M313 637h87q0 -61 -24 -97.5t-67 -36.5q-28 0 -56 19t-39 19q-27 0 -27 -34h-87q0 61 24 97.5t67 36.5q28 0 56.5 -19t39.5 -19q26 0 26 34z" />
    <glyph glyph-name="hungarumlaut" unicode="&#x2dd;" horiz-adv-x="500" 
d="M187 513h-116l85 152h116zM344 513h-116l85 152h116z" />
    <glyph glyph-name="anoteleia" unicode="&#x387;" horiz-adv-x="281" 
d="M50 261q0 38 26.5 64.5t63.5 26.5q38 0 64.5 -27t26.5 -64t-26.5 -63.5t-64.5 -26.5t-64 26.5t-26 63.5z" />
    <glyph glyph-name="pi" unicode="&#x3c0;" horiz-adv-x="553" 
d="M510 121v-120q-26 -11 -67 -11q-133 0 -133 140v190h-72v-320h-140v320h-68v130h483v-130h-63v-168q0 -41 26 -41q18 0 34 10z" />
    <glyph glyph-name="Wgrave" unicode="&#x1e80;" horiz-adv-x="875" 
d="M364 594h150l103 -422l93 422h145l-141 -594h-185l-93 385l-92 -385h-183l-141 594h149l94 -422zM503 641h-128l-84 151h128z" />
    <glyph glyph-name="wgrave" unicode="&#x1e81;" horiz-adv-x="718" 
d="M421 450l76 -292l74 292h142l-128 -450h-155l-72 263l-72 -263h-153l-128 450h146l73 -292l77 292h120zM423 513h-128l-85 152h128z" />
    <glyph glyph-name="Wacute" unicode="&#x1e82;" horiz-adv-x="875" 
d="M364 594h150l103 -422l93 422h145l-141 -594h-185l-93 385l-92 -385h-183l-141 594h149l94 -422zM500 641h-128l84 151h128z" />
    <glyph glyph-name="wacute" unicode="&#x1e83;" horiz-adv-x="718" 
d="M421 450l76 -292l74 292h142l-128 -450h-155l-72 263l-72 -263h-153l-128 450h146l73 -292l77 292h120zM423 513h-128l85 152h128z" />
    <glyph glyph-name="Wdieresis" unicode="&#x1e84;" horiz-adv-x="875" 
d="M364 594h150l103 -422l93 422h145l-141 -594h-185l-93 385l-92 -385h-183l-141 594h149l94 -422zM342 629q-32 0 -54.5 22.5t-22.5 53.5q0 33 22.5 56t54.5 23t55 -23t23 -56q0 -31 -23 -53.5t-55 -22.5zM530 629q-32 0 -54.5 22.5t-22.5 53.5q0 33 22.5 56t54.5 23
t55 -23t23 -56q0 -31 -23 -53.5t-55 -22.5z" />
    <glyph glyph-name="wdieresis" unicode="&#x1e85;" horiz-adv-x="718" 
d="M421 450l76 -292l74 292h142l-128 -450h-155l-72 263l-72 -263h-153l-128 450h146l73 -292l77 292h120zM262 504q-32 0 -54.5 23t-22.5 55t22.5 54.5t54.5 22.5t55 -22.5t23 -54.5t-23 -55t-55 -23zM450 504q-32 0 -54.5 23t-22.5 55t22.5 54.5t54.5 22.5t55 -22.5
t23 -54.5t-23 -55t-55 -23z" />
    <glyph glyph-name="Ygrave" unicode="&#x1ef2;" horiz-adv-x="575" 
d="M290 358l120 236h165l-214 -378v-216h-148v216l-213 378h164zM356 641h-128l-84 151h128z" />
    <glyph glyph-name="ygrave" unicode="&#x1ef3;" horiz-adv-x="515" 
d="M158 450l103 -293l101 293h148l-246 -630h-140l65 171l-184 459h153zM333 513h-128l-85 152h128z" />
    <glyph glyph-name="uni2011" unicode="&#x2011;" horiz-adv-x="355" 
d="M34 198v126h287v-126h-287z" />
    <glyph glyph-name="figuredash" unicode="&#x2012;" horiz-adv-x="572" 
d="M34 217v107h504v-107h-504z" />
    <glyph glyph-name="endash" unicode="&#x2013;" horiz-adv-x="572" 
d="M34 217v107h504v-107h-504z" />
    <glyph glyph-name="emdash" unicode="&#x2014;" horiz-adv-x="952" 
d="M34 217v107h884v-107h-884z" />
    <glyph glyph-name="uni2015" unicode="&#x2015;" horiz-adv-x="952" 
d="M34 217v107h884v-107h-884z" />
    <glyph glyph-name="quoteleft" unicode="&#x2018;" horiz-adv-x="250" 
d="M184 404h-137q0 80 32 142.5t80 97.5h94q-69 -105 -69 -240z" />
    <glyph glyph-name="quoteright" unicode="&#x2019;" horiz-adv-x="250" 
d="M84 644h137q0 -80 -32 -142.5t-80 -97.5h-94q69 105 69 240z" />
    <glyph glyph-name="quotesinglbase" unicode="&#x201a;" horiz-adv-x="250" 
d="M73 125h137q0 -80 -32 -142.5t-80 -97.5h-94q69 105 69 240z" />
    <glyph glyph-name="quotedblleft" unicode="&#x201c;" horiz-adv-x="448" 
d="M184 404h-137q0 80 32 142.5t80 97.5h94q-69 -105 -69 -240zM382 404h-138q0 80 32.5 142.5t79.5 97.5h94q-68 -103 -68 -240z" />
    <glyph glyph-name="quotedblright" unicode="&#x201d;" horiz-adv-x="448" 
d="M84 644h137q0 -80 -32 -142.5t-80 -97.5h-94q69 105 69 240zM281 644h138q0 -80 -32 -142.5t-80 -97.5h-94q68 103 68 240z" />
    <glyph glyph-name="quotedblbase" unicode="&#x201e;" horiz-adv-x="448" 
d="M73 125h137q0 -80 -32 -142.5t-80 -97.5h-94q69 105 69 240zM270 125h138q0 -80 -32 -142.5t-80 -97.5h-94q68 103 68 240z" />
    <glyph glyph-name="dagger" unicode="&#x2020;" horiz-adv-x="298" 
d="M197 425v-183h-96v183h-81v85h81v84h96v-84h81v-85h-81z" />
    <glyph glyph-name="daggerdbl" unicode="&#x2021;" horiz-adv-x="298" 
d="M195 306v-64h-92v64h-83v82h83v60h-83v82h83v64h92v-64h83v-82h-83v-60h83v-82h-83z" />
    <glyph glyph-name="bullet" unicode="&#x2022;" horiz-adv-x="344" 
d="M50 261q0 51 35 87t86 36t87 -36t36 -87t-36 -86t-87 -35t-86 35t-35 86z" />
    <glyph glyph-name="ellipsis" unicode="&#x2026;" horiz-adv-x="819" 
d="M227 80q0 -36 -27 -62t-67 -26q-35 0 -61 26t-26 62q0 39 25.5 66t61.5 27q40 0 67 -27t27 -66zM500 80q0 -36 -27 -62t-67 -26q-35 0 -61 26t-26 62q0 39 25.5 66t61.5 27q40 0 67 -27t27 -66zM773 80q0 -36 -27 -62t-67 -26q-35 0 -61 26t-26 62q0 39 25.5 66t61.5 27
q40 0 67 -27t27 -66z" />
    <glyph glyph-name="perthousand" unicode="&#x2030;" horiz-adv-x="1025" 
d="M20 451q0 67 44 110t109 43t109 -43t44 -110t-44 -110t-109 -43t-109 43t-44 110zM123 451q0 -24 14 -38t36 -14q23 0 37 14t14 38t-14 38.5t-37 14.5q-22 0 -36 -14.5t-14 -38.5zM676 143q0 -67 -44 -110t-109 -43t-109 43t-44 110t44 110t109 43t109 -43t44 -110z
M574 143q0 24 -14 38.5t-37 14.5q-22 0 -36 -14.5t-14 -38.5t14 -38t36 -14q23 0 37 14t14 38zM1005 143q0 -67 -44 -110t-109 -43t-109 43t-44 110t44 110t109 43t109 -43t44 -110zM903 143q0 24 -14 38.5t-37 14.5q-22 0 -36 -14.5t-14 -38.5t14 -38t36 -14q23 0 37 14
t14 38zM573 594l-357 -594h-94l357 594h94z" />
    <glyph glyph-name="guilsinglleft" unicode="&#x2039;" horiz-adv-x="317" 
d="M287 373l-122 -158l122 -158h-134l-123 158l123 158h134z" />
    <glyph glyph-name="guilsinglright" unicode="&#x203a;" horiz-adv-x="317" 
d="M152 215l-122 158h134l123 -158l-123 -158h-134z" />
    <glyph glyph-name="fraction" unicode="&#x2044;" horiz-adv-x="201" 
d="M-125 0l357 594h94l-357 -594h-94z" />
    <glyph glyph-name="uni2070" unicode="&#x2070;" horiz-adv-x="345" 
d="M329 412q0 -83 -43.5 -135.5t-111.5 -52.5q-70 0 -114 52.5t-44 135.5q0 84 44 136t114 52q68 0 111.5 -52t43.5 -136zM219 412q0 47 -13 69.5t-32 22.5q-46 0 -46 -92t46 -92q19 0 32 23t13 69z" />
    <glyph glyph-name="uni2074" unicode="&#x2074;" horiz-adv-x="345" 
d="M282 594v-212h52v-80h-52v-72h-104v72h-167v80l167 212h104zM178 481l-80 -99h80v99z" />
    <glyph glyph-name="uni2075" unicode="&#x2075;" horiz-adv-x="268" 
d="M127 500l-4 -35q60 -6 95.5 -34t35.5 -81q0 -62 -40 -94t-104 -32q-60 0 -97 28v96q47 -34 92 -34q48 0 48 32q0 42 -122 46l15 202h194v-94h-113z" />
    <glyph glyph-name="uni2076" unicode="&#x2076;" horiz-adv-x="318" 
d="M128 594h113l-51 -85l-24 -32q9 3 19 3q52 0 87 -33.5t35 -88.5q0 -58 -41.5 -96t-106.5 -38q-64 0 -103.5 38t-39.5 96q0 55 40 120zM117 358q0 -22 11.5 -34t30.5 -12q21 0 33.5 12t12.5 34t-12.5 34t-33.5 12q-18 0 -30 -12t-12 -34z" />
    <glyph glyph-name="uni2077" unicode="&#x2077;" horiz-adv-x="277" 
d="M150 500h-137v94h250v-94l-121 -270h-113z" />
    <glyph glyph-name="uni2078" unicode="&#x2078;" horiz-adv-x="301" 
d="M151 224q-58 0 -98 28.5t-40 77.5q0 57 57 80q-47 26 -47 82q0 49 37 78.5t91 29.5t90.5 -29.5t36.5 -78.5q0 -57 -47 -82q57 -22 57 -80q0 -49 -39.5 -77.5t-97.5 -28.5zM151 456q13 0 22.5 8.5t9.5 23.5q0 13 -9.5 21.5t-22.5 8.5q-14 0 -23 -8.5t-9 -21.5
q0 -15 9 -23.5t23 -8.5zM151 306q14 0 23.5 9.5t9.5 21.5q0 14 -9.5 23.5t-23.5 9.5q-15 0 -24 -9.5t-9 -23.5q0 -13 9 -22t24 -9z" />
    <glyph glyph-name="uni2079" unicode="&#x2079;" horiz-adv-x="318" 
d="M190 230h-113l51 86l24 32q-9 -3 -19 -3q-52 0 -87 33.5t-35 88.5q0 58 41 96t106 38q64 0 103.5 -37.5t39.5 -96.5q0 -56 -39 -120zM201 467q0 21 -12 33.5t-31 12.5q-20 0 -32.5 -12.5t-12.5 -33.5q0 -22 12.5 -34t32.5 -12q19 0 31 12t12 34z" />
    <glyph glyph-name="uni2080" unicode="&#x2080;" horiz-adv-x="345" 
d="M329 182q0 -83 -43.5 -135.5t-111.5 -52.5q-70 0 -114 52.5t-44 135.5q0 84 44 136t114 52q68 0 111.5 -52t43.5 -136zM219 182q0 47 -13 69.5t-32 22.5q-46 0 -46 -92t46 -92q19 0 32 23t13 69z" />
    <glyph glyph-name="uni2081" unicode="&#x2081;" horiz-adv-x="217" 
d="M11 244v98l173 28v-370h-111v251z" />
    <glyph glyph-name="uni2082" unicode="&#x2082;" horiz-adv-x="285" 
d="M151 94h121v-94h-261v81q66 51 101.5 87t35.5 64q0 38 -41 38q-46 0 -92 -38v100q47 38 122 38q57 0 91.5 -30t34.5 -82q0 -46 -27.5 -83.5t-84.5 -80.5z" />
    <glyph glyph-name="uni2083" unicode="&#x2083;" horiz-adv-x="273" 
d="M22 237v102q48 31 112 31q54 0 86 -25.5t32 -74.5q0 -32 -19.5 -56t-47.5 -31q73 -19 73 -84q0 -56 -41.5 -80.5t-95.5 -24.5q-58 0 -108 27v106q42 -40 96 -40q37 0 37 26q0 18 -15.5 23t-52.5 5v76q62 0 62 31q0 24 -32 24q-45 0 -86 -35z" />
    <glyph glyph-name="uni2084" unicode="&#x2084;" horiz-adv-x="345" 
d="M282 364v-212h52v-80h-52v-72h-104v72h-167v80l167 212h104zM178 251l-80 -99h80v99z" />
    <glyph glyph-name="uni2085" unicode="&#x2085;" horiz-adv-x="268" 
d="M127 270l-4 -35q60 -6 95.5 -34t35.5 -81q0 -62 -40 -94t-104 -32q-60 0 -97 28v96q47 -34 92 -34q48 0 48 32q0 42 -122 46l15 202h194v-94h-113z" />
    <glyph glyph-name="uni2086" unicode="&#x2086;" horiz-adv-x="318" 
d="M128 364h113l-51 -85l-24 -32q9 3 19 3q52 0 87 -33.5t35 -88.5q0 -58 -41.5 -96t-106.5 -38q-64 0 -103.5 38t-39.5 96q0 55 40 120zM117 128q0 -22 11.5 -34t30.5 -12q21 0 33.5 12t12.5 34t-12.5 34t-33.5 12q-18 0 -30 -12t-12 -34z" />
    <glyph glyph-name="uni2087" unicode="&#x2087;" horiz-adv-x="277" 
d="M150 270h-137v94h250v-94l-121 -270h-113z" />
    <glyph glyph-name="uni2088" unicode="&#x2088;" horiz-adv-x="301" 
d="M151 -6q-58 0 -98 28.5t-40 77.5q0 57 57 80q-47 26 -47 82q0 49 37 78.5t91 29.5t90.5 -29.5t36.5 -78.5q0 -57 -47 -82q57 -22 57 -80q0 -49 -39.5 -77.5t-97.5 -28.5zM151 226q13 0 22.5 8.5t9.5 23.5q0 13 -9.5 21.5t-22.5 8.5q-14 0 -23 -8.5t-9 -21.5
q0 -15 9 -23.5t23 -8.5zM151 76q14 0 23.5 9.5t9.5 21.5q0 14 -9.5 23.5t-23.5 9.5q-15 0 -24 -9.5t-9 -23.5q0 -13 9 -22t24 -9z" />
    <glyph glyph-name="uni2089" unicode="&#x2089;" horiz-adv-x="318" 
d="M190 0h-113l51 86l24 32q-9 -3 -19 -3q-52 0 -87 33.5t-35 88.5q0 58 41 96t106 38q64 0 103.5 -37.5t39.5 -96.5q0 -56 -39 -120zM201 237q0 21 -12 33.5t-31 12.5q-20 0 -32.5 -12.5t-12.5 -33.5q0 -22 12.5 -34t32.5 -12q19 0 31 12t12 34z" />
    <glyph glyph-name="Euro" unicode="&#x20ac;" horiz-adv-x="508" 
d="M65 321h-50v70h60q24 98 92.5 155.5t166.5 57.5q86 0 144 -38v-159q-56 63 -138 63q-80 0 -109 -79h140l-14 -70h-139q-1 -8 -1 -24q0 -18 1 -27h131l-14 -70h-102q32 -76 112 -76q45 0 75.5 14.5t67.5 47.5v-152q-64 -44 -154 -44q-98 0 -166.5 56.5t-92.5 153.5h-60v70
h50q-1 9 -1 27q0 16 1 24z" />
    <glyph glyph-name="uni2117" unicode="&#x2117;" horiz-adv-x="698" 
d="M45 297q0 131 86.5 219t217.5 88t217.5 -88t86.5 -219t-86.5 -219t-217.5 -88t-217.5 88t-86.5 219zM85 297q0 -118 74.5 -194t189.5 -76t189.5 76t74.5 194t-74.5 194t-189.5 76t-189.5 -76t-74.5 -194zM336 217v-93h-109v343q74 14 130 14q73 0 115 -36t42 -99
q0 -65 -38.5 -98t-101.5 -33q-22 0 -38 2zM336 386v-79q10 -2 23 -2q48 0 48 41q0 42 -49 42q-10 0 -22 -2z" />
    <glyph glyph-name="trademark" unicode="&#x2122;" horiz-adv-x="716" 
d="M192 513v-196h-89v196h-83v81h255v-81h-83zM509 317h-69l-48 145l-26 -145h-89l48 277h103l48 -161l45 161h103l47 -277h-88l-29 145z" />
    <glyph glyph-name="uni2126" unicode="&#x2126;" horiz-adv-x="596" 
d="M329 0v154q90 58 90 187q0 66 -34 107.5t-87 41.5t-87 -41.5t-34 -107.5q0 -129 90 -187v-154h-224v126h99q-41 25 -71.5 86t-30.5 128q0 117 68 190.5t190 73.5t190 -73.5t68 -190.5q0 -67 -30.5 -128t-71.5 -86h99v-126h-224z" />
    <glyph glyph-name="uni2153" unicode="&#x2153;" horiz-adv-x="743" 
d="M40 474v98l173 28v-370h-111v251zM457 237v102q48 31 112 31q54 0 86 -25.5t32 -74.5q0 -32 -19.5 -56t-47.5 -31q73 -19 73 -84q0 -56 -41.5 -80.5t-95.5 -24.5q-58 0 -108 27v106q42 -40 96 -40q37 0 37 26q0 18 -15.5 23t-52.5 5v76q62 0 62 31q0 24 -32 24
q-45 0 -86 -35zM114 0l357 594h94l-357 -594h-94z" />
    <glyph glyph-name="uni2154" unicode="&#x2154;" horiz-adv-x="828" 
d="M190 324h121v-94h-261v81q66 51 101.5 87t35.5 64q0 38 -41 38q-46 0 -92 -38v100q47 38 122 38q57 0 91.5 -30t34.5 -82q0 -46 -27.5 -83.5t-84.5 -80.5zM542 237v102q48 31 112 31q54 0 86 -25.5t32 -74.5q0 -32 -19.5 -56t-47.5 -31q73 -19 73 -84q0 -56 -41.5 -80.5
t-95.5 -24.5q-58 0 -108 27v106q42 -40 96 -40q37 0 37 26q0 18 -15.5 23t-52.5 5v76q62 0 62 31q0 24 -32 24q-45 0 -86 -35zM199 0l357 594h94l-357 -594h-94z" />
    <glyph glyph-name="uni215B" unicode="&#x215b;" horiz-adv-x="748" 
d="M40 474v98l173 28v-370h-111v251zM561 -6q-58 0 -98 28.5t-40 77.5q0 57 57 80q-47 26 -47 82q0 49 37 78.5t91 29.5t90.5 -29.5t36.5 -78.5q0 -57 -47 -82q57 -22 57 -80q0 -49 -39.5 -77.5t-97.5 -28.5zM561 226q13 0 22.5 8.5t9.5 23.5q0 13 -9.5 21.5t-22.5 8.5
q-14 0 -23 -8.5t-9 -21.5q0 -15 9 -23.5t23 -8.5zM561 76q14 0 23.5 9.5t9.5 21.5q0 14 -9.5 23.5t-23.5 9.5q-15 0 -24 -9.5t-9 -23.5q0 -13 9 -22t24 -9zM114 0l357 594h94l-357 -594h-94z" />
    <glyph glyph-name="uni215C" unicode="&#x215c;" horiz-adv-x="799" 
d="M59 467v102q48 31 112 31q54 0 86 -25.5t32 -74.5q0 -32 -19.5 -56t-47.5 -31q73 -19 73 -84q0 -56 -41.5 -80.5t-95.5 -24.5q-58 0 -108 27v106q42 -40 96 -40q37 0 37 26q0 18 -15.5 23t-52.5 5v76q62 0 62 31q0 24 -32 24q-45 0 -86 -35zM612 -6q-58 0 -98 28.5
t-40 77.5q0 57 57 80q-47 26 -47 82q0 49 37 78.5t91 29.5t90.5 -29.5t36.5 -78.5q0 -57 -47 -82q57 -22 57 -80q0 -49 -39.5 -77.5t-97.5 -28.5zM612 226q13 0 22.5 8.5t9.5 23.5q0 13 -9.5 21.5t-22.5 8.5q-14 0 -23 -8.5t-9 -21.5q0 -15 9 -23.5t23 -8.5zM612 76
q14 0 23.5 9.5t9.5 21.5q0 14 -9.5 23.5t-23.5 9.5q-15 0 -24 -9.5t-9 -23.5q0 -13 9.5 -22t23.5 -9zM165 0l357 594h94l-357 -594h-94z" />
    <glyph glyph-name="uni215D" unicode="&#x215d;" horiz-adv-x="790" 
d="M164 500l-4 -35q60 -6 95.5 -34t35.5 -81q0 -62 -40 -94t-104 -32q-60 0 -97 28v96q47 -34 92 -34q48 0 48 32q0 42 -122 46l15 202h194v-94h-113zM603 -6q-58 0 -98 28.5t-40 77.5q0 57 57 80q-47 26 -47 82q0 49 37 78.5t91 29.5t90.5 -29.5t36.5 -78.5q0 -57 -47 -82
q57 -22 57 -80q0 -49 -39.5 -77.5t-97.5 -28.5zM603 226q13 0 22.5 8.5t9.5 23.5q0 13 -9.5 21.5t-22.5 8.5q-14 0 -23 -8.5t-9 -21.5q0 -15 9 -23.5t23 -8.5zM603 76q14 0 23.5 9.5t9.5 21.5q0 14 -9.5 23.5t-23.5 9.5q-15 0 -24 -9.5t-9 -23.5q0 -13 9 -22t24 -9zM156 0
l357 594h94l-357 -594h-94z" />
    <glyph glyph-name="uni215E" unicode="&#x215e;" horiz-adv-x="739" 
d="M172 500h-137v94h250v-94l-121 -270h-113zM552 -6q-58 0 -98 28.5t-40 77.5q0 57 57 80q-47 26 -47 82q0 49 37 78.5t91 29.5t90.5 -29.5t36.5 -78.5q0 -57 -47 -82q57 -22 57 -80q0 -49 -39.5 -77.5t-97.5 -28.5zM552 226q13 0 22.5 8.5t9.5 23.5q0 13 -9.5 21.5
t-22.5 8.5q-14 0 -23 -8.5t-9 -21.5q0 -15 9 -23.5t23 -8.5zM552 76q14 0 23.5 9.5t9.5 21.5q0 14 -9.5 23.5t-23.5 9.5q-15 0 -24 -9.5t-9 -23.5q0 -13 9.5 -22t23.5 -9zM105 0l357 594h94l-357 -594h-94z" />
    <glyph glyph-name="partialdiff" unicode="&#x2202;" horiz-adv-x="533" 
d="M81 680h175q107 -91 178 -203.5t71 -236.5q0 -115 -67.5 -182.5t-171.5 -67.5q-102 0 -170 64.5t-68 166.5t65 166t162 64q42 0 60 -11q-66 105 -234 240zM362 223q0 52 -26.5 81.5t-69.5 29.5q-42 0 -68.5 -30t-26.5 -81t26.5 -81t68.5 -30q43 0 69.5 29.5t26.5 81.5z
" />
    <glyph glyph-name="Delta" unicode="&#x2206;" horiz-adv-x="641" 
d="M641 0h-641l231 594h179zM199 118h238l-117 337z" />
    <glyph glyph-name="product" unicode="&#x220f;" horiz-adv-x="618" 
d="M557 -180h-149v642h-198v-642h-149v774h496v-774z" />
    <glyph glyph-name="summation" unicode="&#x2211;" horiz-adv-x="443" 
d="M186 207l-166 261v126h403v-126h-246l165 -261l-165 -261h246v-126h-403v126z" />
    <glyph glyph-name="minus" unicode="&#x2212;" horiz-adv-x="459" 
d="M40 241v103h379v-103h-379z" />
    <glyph glyph-name="radical" unicode="&#x221a;" horiz-adv-x="546" 
d="M400 594h136l-173 -594h-155l-95 273h-73v138h182l67 -231z" />
    <glyph glyph-name="infinity" unicode="&#x221e;" horiz-adv-x="689" 
d="M344 209l-13 -16q-61 -72 -137 -72q-66 0 -110 45t-44 121t44 121t110 45q76 0 137 -72l13 -16l14 16q61 72 137 72q66 0 110 -45t44 -121t-44 -121t-110 -45q-76 0 -137 72zM278 287l-25 30q-26 29 -52 29q-22 0 -37.5 -16t-15.5 -43t15.5 -43t37.5 -16q26 0 52 29z
M436 317l-25 -30l25 -30q26 -29 52 -29q22 0 37.5 16t15.5 43t-15.5 43t-37.5 16q-26 0 -52 -29z" />
    <glyph glyph-name="integral" unicode="&#x222b;" horiz-adv-x="376" 
d="M104 -7v426q0 94 46.5 139.5t122.5 45.5q46 0 80 -18v-129q-29 18 -56 18q-51 0 -51 -54v-426q0 -94 -46.5 -139.5t-122.5 -45.5q-46 0 -80 18v129q29 -18 56 -18q51 0 51 54z" />
    <glyph glyph-name="approxequal" unicode="&#x2248;" horiz-adv-x="469" 
d="M45 305v93q52 34 102 34q33 0 87 -16.5t86 -16.5q52 0 104 34v-93q-52 -34 -104 -34q-32 0 -86 16.5t-87 16.5q-50 0 -102 -34zM45 156v93q52 34 102 34q33 0 87 -16.5t86 -16.5q52 0 104 34v-93q-52 -34 -104 -34q-32 0 -86 16.5t-87 16.5q-50 0 -102 -34z" />
    <glyph glyph-name="notequal" unicode="&#x2260;" horiz-adv-x="469" 
d="M116 170h-71v89h126l44 71h-170v89h225l51 82h83l-51 -82h71v-89h-126l-44 -71h170v-89h-225l-51 -82h-83z" />
    <glyph glyph-name="lessequal" unicode="&#x2264;" horiz-adv-x="359" 
d="M30 337v8l289 164v-117l-104 -51l104 -51v-117zM30 38v103h289v-103h-289z" />
    <glyph glyph-name="greaterequal" unicode="&#x2265;" horiz-adv-x="359" 
d="M329 345v-8l-289 -164v117l104 51l-104 51v117zM329 141v-103h-289v103h289z" />
    <glyph glyph-name="dotmath" unicode="&#x22c5;" horiz-adv-x="281" 
d="M50 261q0 38 26.5 64.5t63.5 26.5q38 0 64.5 -27t26.5 -64t-26.5 -63.5t-64.5 -26.5t-64 26.5t-26 63.5z" />
    <glyph glyph-name="lozenge" unicode="&#x25ca;" horiz-adv-x="506" 
d="M25 297l180 297h96l180 -297l-180 -297h-96zM340 297l-87 156l-87 -156l87 -155z" />
    <glyph glyph-name="space_uni0326" horiz-adv-x="500" 
d="M211 -38h136q0 -101 -98 -152h-97q59 60 59 152z" />
    <glyph glyph-name="zero.op" horiz-adv-x="536" 
d="M26 233q0 106 70 174.5t172 68.5t172 -68.5t70 -174.5t-70 -174.5t-172 -68.5t-172 68.5t-70 174.5zM165 233q0 -51 29 -81.5t74 -30.5t74 30.5t29 81.5t-29 81.5t-74 30.5t-74 -30.5t-29 -81.5z" />
    <glyph glyph-name="one.op" horiz-adv-x="346" 
d="M24 298v134l253 41v-473h-148v311z" />
    <glyph glyph-name="two.op" horiz-adv-x="458" 
d="M241 126h183v-126h-388v117q17 12 50.5 31.5t57 34.5t48.5 34.5t38.5 40.5t13.5 42q0 42 -55 42q-73 0 -144 -59v138q72 55 176 55q76 0 127 -36t51 -112q0 -70 -46 -122.5t-112 -79.5z" />
    <glyph glyph-name="three.op" horiz-adv-x="429" 
d="M32 284v137q72 55 174 55q84 0 133.5 -41.5t49.5 -116.5q0 -101 -97 -146q108 -35 108 -141q0 -85 -63.5 -127t-151.5 -42q-95 0 -165 44v138q70 -60 152 -60q36 0 57.5 14.5t21.5 43.5q0 36 -30 51t-94 15v116q113 0 113 72q0 51 -60 51q-70 0 -148 -63z" />
    <glyph glyph-name="four.op" horiz-adv-x="566" 
d="M447 466v-343h80v-116h-80v-136h-142v136h-278v120l279 339h141zM305 295l-138 -172h138v172z" />
    <glyph glyph-name="five.op" horiz-adv-x="426" 
d="M189 334l-6 -75q211 -29 211 -199q0 -95 -61.5 -146.5t-165.5 -51.5q-95 0 -153 44v131q72 -53 146 -53q96 0 96 71q0 26 -17 45t-49 29.5t-64.5 16t-77.5 8.5l22 312h311v-132h-192z" />
    <glyph glyph-name="six.op" horiz-adv-x="495" 
d="M207 594h154l-79 -135l-40 -64q14 4 32 4q79 0 137 -53t58 -144q0 -92 -62.5 -152t-164.5 -60q-98 0 -157 60t-59 152q0 83 73 207zM163 198q0 -39 23.5 -62.5t58.5 -23.5q36 0 59.5 23.5t23.5 62.5q0 40 -23.5 63.5t-59.5 23.5q-35 0 -58.5 -23.5t-23.5 -63.5z" />
    <glyph glyph-name="seven.op" horiz-adv-x="458" 
d="M257 334h-244v132h401v-133l-222 -461h-152z" />
    <glyph glyph-name="eight.op" horiz-adv-x="480" 
d="M240 -10q-90 0 -150 47t-60 126q0 50 28.5 85.5t70.5 50.5q-78 40 -78 134q0 79 54.5 125t134.5 46q81 0 134.5 -46t53.5 -125q0 -94 -76 -134q41 -15 69.5 -50.5t28.5 -85.5q0 -79 -60 -126t-150 -47zM240 365q26 0 42.5 16t16.5 44q0 27 -16.5 43t-42.5 16t-42.5 -16
t-16.5 -43q0 -28 16.5 -44t42.5 -16zM240 109q29 0 47.5 16.5t18.5 44.5q0 29 -18.5 46.5t-47.5 17.5t-47.5 -17.5t-18.5 -46.5q0 -28 18.5 -44.5t47.5 -16.5z" />
    <glyph glyph-name="nine.op" horiz-adv-x="495" 
d="M288 -128h-154l79 135l40 64q-14 -4 -32 -4q-79 0 -137 53t-58 144q0 92 62.5 152t164.5 60q98 0 157 -60t59 -152q0 -83 -73 -207zM332 268q0 39 -23.5 62.5t-58.5 23.5q-36 0 -59.5 -23.5t-23.5 -62.5q0 -40 23.5 -63.5t59.5 -23.5q35 0 58.5 23.5t23.5 63.5z" />
    <glyph glyph-name="commaturn" horiz-adv-x="500" 
d="M288 513h-136q0 54 28 102t70 70h97q-59 -60 -59 -172z" />
    <glyph glyph-name="registered.cap" horiz-adv-x="698" 
d="M45 297q0 131 86.5 219t217.5 88t217.5 -88t86.5 -219t-86.5 -219t-217.5 -88t-217.5 88t-86.5 219zM85 297q0 -118 74.5 -194t189.5 -76t189.5 76t74.5 194t-74.5 194t-189.5 76t-189.5 -76t-74.5 -194zM320 226v-102h-109v343q74 14 130 14q73 0 115 -33t42 -95
q0 -38 -16.5 -65t-41.5 -37l89 -127h-129l-66 102h-14zM320 386v-81h17q54 0 54 41q0 42 -49 42q-10 0 -22 -2z" />
    <glyph glyph-name="plus.op" horiz-adv-x="459" 
d="M178 181h-138v103h138v138h103v-138h138v-103h-138v-138h-103v138z" />
    <glyph glyph-name="minus.op" horiz-adv-x="459" 
d="M40 181v103h379v-103h-379z" />
    <glyph glyph-name="multiply.op" horiz-adv-x="398" 
d="M129 232l-99 99l70 70l99 -99l99 99l70 -70l-99 -99l99 -99l-70 -70l-99 99l-99 -99l-70 70z" />
    <glyph glyph-name="divide.op" horiz-adv-x="459" 
d="M40 181v103h379v-103h-379zM160 71q0 28 20.5 49t48.5 21q29 0 49.5 -20.5t20.5 -49.5q0 -28 -21 -48.5t-49 -20.5t-48.5 20.5t-20.5 48.5zM160 393q0 28 20.5 49t48.5 21q29 0 49.5 -20.5t20.5 -49.5q0 -28 -21 -48.5t-49 -20.5t-48.5 20.5t-20.5 48.5z" />
    <glyph glyph-name="equal.op" horiz-adv-x="469" 
d="M45 108v93h379v-93h-379zM45 268v93h379v-93h-379z" />
    <glyph glyph-name="less.op" horiz-adv-x="359" 
d="M30 227v8l289 184v-117l-124 -71l124 -71v-117z" />
    <glyph glyph-name="greater.op" horiz-adv-x="359" 
d="M329 235v-8l-289 -184v117l124 71l-124 71v117z" />
    <glyph glyph-name="zero_slash.lt" 
d="M260 -10q-107 0 -172 85t-65 221q0 137 65 222.5t172 85.5q106 0 171 -85.5t65 -222.5q0 -136 -65 -221t-171 -85zM187 176l109 291q-17 11 -36 11q-42 0 -66.5 -46t-24.5 -136q0 -76 18 -120zM333 416l-109 -290q16 -10 36 -10q41 0 66 46t25 134q0 73 -18 120z" />
    <glyph glyph-name="zero.lt" 
d="M23 296q0 137 65 222.5t172 85.5q106 0 171 -85.5t65 -222.5q0 -136 -65 -221t-171 -85q-107 0 -172 85t-65 221zM171 296q0 -89 23.5 -134.5t65.5 -45.5q41 0 65 45.5t24 134.5q0 90 -24 136t-65 46q-42 0 -65.5 -45.5t-23.5 -136.5z" />
    <glyph glyph-name="one.lt" 
d="M66 421v134l299 48v-603h-147v441z" />
    <glyph glyph-name="two.lt" 
d="M237 131h219v-131h-413v109q68 59 95.5 84t69.5 68.5t58 74.5t16 61q0 70 -81 70q-34 0 -75 -19.5t-72 -46.5v140q74 63 191 63q85 0 140.5 -47.5t55.5 -132.5q0 -79 -52.5 -149t-151.5 -144z" />
    <glyph glyph-name="three.lt" 
d="M82 412v137q72 55 174 55q84 0 133.5 -41.5t49.5 -116.5q0 -101 -97 -146q108 -35 108 -141q0 -85 -63.5 -127t-151.5 -42q-95 0 -165 44v138q70 -60 152 -60q36 0 57.5 14.5t21.5 43.5q0 36 -30 51t-94 15v116q113 0 113 72q0 51 -60 51q-70 0 -148 -63z" />
    <glyph glyph-name="four.lt" 
d="M427 594v-342h70v-116h-70v-136h-142v136h-263v120l264 338h141zM285 424l-129 -172h129v172z" />
    <glyph glyph-name="five.lt" 
d="M242 462l-6 -75q211 -29 211 -199q0 -95 -61.5 -146.5t-165.5 -51.5q-95 0 -153 44v131q72 -53 146 -53q96 0 96 71q0 26 -17 45t-49 29.5t-64.5 16t-77.5 8.5l22 312h311v-132h-192z" />
    <glyph glyph-name="six.lt" 
d="M216 594h154l-79 -135l-40 -64q14 4 32 4q79 0 137 -53t58 -144q0 -92 -62.5 -152t-164.5 -60q-98 0 -157 60t-59 152q0 83 73 207zM172 198q0 -39 23.5 -62.5t58.5 -23.5q36 0 59.5 23.5t23.5 62.5q0 40 -23.5 63.5t-59.5 23.5q-35 0 -58.5 -23.5t-23.5 -63.5z" />
    <glyph glyph-name="seven.lt" 
d="M324 462h-280v132h431v-133l-252 -461h-152z" />
    <glyph glyph-name="eight.lt" 
d="M260 -10q-90 0 -150 47t-60 126q0 50 28.5 85.5t70.5 50.5q-78 40 -78 134q0 79 54.5 125t134.5 46q81 0 134.5 -46t53.5 -125q0 -94 -76 -134q41 -15 69.5 -50.5t28.5 -85.5q0 -79 -60 -126t-150 -47zM260 365q26 0 42.5 16t16.5 44q0 27 -16.5 43t-42.5 16t-42.5 -16
t-16.5 -43q0 -28 16.5 -44t42.5 -16zM260 109q29 0 47.5 16.5t18.5 44.5q0 29 -18.5 46.5t-47.5 17.5t-47.5 -17.5t-18.5 -46.5q0 -28 18.5 -44.5t47.5 -16.5z" />
    <glyph glyph-name="nine.lt" 
d="M301 0h-154l79 135l40 64q-14 -4 -32 -4q-79 0 -137 53t-58 144q0 92 62.5 152t164.5 60q98 0 157 -60t59 -152q0 -83 -73 -207zM345 396q0 39 -23.5 62.5t-58.5 23.5q-36 0 -59.5 -23.5t-23.5 -62.5q0 -40 23.5 -63.5t59.5 -23.5q35 0 58.5 23.5t23.5 63.5z" />
    <glyph glyph-name="zero_slash.ot" 
d="M260 -10q-98 0 -166 68.5t-68 174.5t68 174.5t166 68.5t166 -68.5t68 -174.5t-68 -174.5t-166 -68.5zM179 166l123 169q-22 10 -43 10q-42 0 -68.5 -30.5t-26.5 -82.5q0 -39 15 -66zM340 299l-123 -169q18 -9 42 -9q43 0 70 30t27 81q0 38 -16 67z" />
    <glyph glyph-name="zero.ot" 
d="M26 233q0 106 68 174.5t166 68.5t166 -68.5t68 -174.5t-68 -174.5t-166 -68.5t-166 68.5t-68 174.5zM164 232q0 -51 26.5 -81t68.5 -30q43 0 70 30t27 81q0 52 -27 82.5t-70 30.5q-42 0 -68.5 -30.5t-26.5 -82.5z" />
    <glyph glyph-name="one.ot" 
d="M94 292v138l283 43v-473h-148v311z" />
    <glyph glyph-name="two.ot" 
d="M271 126h183v-126h-388v117q17 12 50.5 31.5t57 34.5t48.5 34.5t38.5 40.5t13.5 42q0 42 -55 42q-73 0 -144 -59v138q72 55 176 55q76 0 127 -36t51 -112q0 -70 -46 -122.5t-112 -79.5z" />
    <glyph glyph-name="three.ot" 
d="M73 284v137q72 55 174 55q84 0 133.5 -41.5t49.5 -116.5q0 -101 -97 -146q108 -35 108 -141q0 -85 -63.5 -127t-151.5 -42q-95 0 -165 44v138q70 -60 152 -60q36 0 57.5 14.5t21.5 43.5q0 36 -30 51t-94 15v116q113 0 113 72q0 51 -60 51q-70 0 -148 -63z" />
    <glyph glyph-name="four.ot" 
d="M427 466v-343h70v-116h-70v-136h-142v136h-263v120l264 339h141zM285 295l-129 -172h129v172z" />
    <glyph glyph-name="five.ot" 
d="M232 334l-6 -75q211 -29 211 -199q0 -95 -61.5 -146.5t-165.5 -51.5q-95 0 -153 44v131q72 -53 146 -53q96 0 96 71q0 26 -17 45t-49 29.5t-64.5 16t-77.5 8.5l22 312h311v-132h-192z" />
    <glyph glyph-name="six.ot" 
d="M219 594h154l-79 -135l-40 -64q14 4 32 4q79 0 137 -53t58 -144q0 -92 -62.5 -152t-164.5 -60q-98 0 -157 60t-59 152q0 83 73 207zM175 198q0 -39 23.5 -62.5t58.5 -23.5q36 0 59.5 23.5t23.5 62.5q0 40 -23.5 63.5t-59.5 23.5q-35 0 -58.5 -23.5t-23.5 -63.5z" />
    <glyph glyph-name="seven.ot" 
d="M316 334h-280v132h431v-133l-252 -461h-152z" />
    <glyph glyph-name="eight.ot" 
d="M260 -10q-90 0 -150 47t-60 126q0 50 28.5 85.5t70.5 50.5q-78 40 -78 134q0 79 54.5 125t134.5 46q81 0 134.5 -46t53.5 -125q0 -94 -76 -134q41 -15 69.5 -50.5t28.5 -85.5q0 -79 -60 -126t-150 -47zM260 365q26 0 42.5 16t16.5 44q0 27 -16.5 43t-42.5 16t-42.5 -16
t-16.5 -43q0 -28 16.5 -44t42.5 -16zM260 109q29 0 47.5 16.5t18.5 44.5q0 29 -18.5 46.5t-47.5 17.5t-47.5 -17.5t-18.5 -46.5q0 -28 18.5 -44.5t47.5 -16.5z" />
    <glyph glyph-name="nine.ot" 
d="M300 -128h-154l79 135l40 64q-14 -4 -32 -4q-79 0 -137 53t-58 144q0 92 62.5 152t164.5 60q98 0 157 -60t59 -152q0 -83 -73 -207zM344 268q0 39 -23.5 62.5t-58.5 23.5q-36 0 -59.5 -23.5t-23.5 -62.5q0 -40 23.5 -63.5t59.5 -23.5q35 0 58.5 23.5t23.5 63.5z" />
    <glyph glyph-name="period.tab" horiz-adv-x="260" 
d="M39 82q0 38 26.5 64.5t63.5 26.5t64 -26.5t27 -64.5q0 -37 -26.5 -63.5t-64.5 -26.5q-37 0 -63.5 26t-26.5 64z" />
    <glyph glyph-name="comma.tab" horiz-adv-x="260" 
d="M56 125h144q0 -158 -104 -237h-102q62 96 62 237z" />
    <glyph glyph-name="colon.tab" horiz-adv-x="260" 
d="M39 82q0 38 26.5 64.5t63.5 26.5t64 -26.5t27 -64.5q0 -37 -26.5 -63.5t-64.5 -26.5q-37 0 -63.5 26t-26.5 64zM39 340q0 38 26.5 64.5t63.5 26.5t64 -26.5t27 -64.5q0 -37 -26.5 -63.5t-64.5 -26.5q-37 0 -63.5 26t-26.5 64z" />
    <glyph glyph-name="semicolon.tab" horiz-adv-x="260" 
d="M56 125h144q0 -158 -104 -237h-102q62 96 62 237zM39 340q0 38 26.5 64.5t63.5 26.5t64 -26.5t27 -64.5q0 -37 -26.5 -63.5t-64.5 -26.5q-37 0 -63.5 26t-26.5 64z" />
    <glyph glyph-name="zero_slash.op" horiz-adv-x="536" 
d="M268 -10q-102 0 -172 68.5t-70 174.5t70 174.5t172 68.5t172 -68.5t70 -174.5t-70 -174.5t-172 -68.5zM184 162l128 175q-22 10 -44 10q-45 0 -74.5 -31t-29.5 -83q0 -43 20 -71zM352 304l-129 -176q21 -9 45 -9q45 0 74.5 31t29.5 83q0 39 -20 71z" />
    <glyph glyph-name="space.tab" horiz-adv-x="260" 
 />
    <glyph glyph-name="plusminus.op" horiz-adv-x="459" 
d="M178 268h-128v103h128v98h103v-98h128v-103h-128v-98h-103v98zM50 28v103h359v-103h-359z" />
    <glyph glyph-name="lessequal.op" horiz-adv-x="359" 
d="M30 299v8l289 164v-117l-104 -51l104 -51v-117zM30 0v103h289v-103h-289z" />
    <glyph glyph-name="greaterequal.op" horiz-adv-x="359" 
d="M329 307v-8l-289 -164v117l104 51l-104 51v117zM329 103v-103h-289v103h289z" />
    <glyph glyph-name="notequal.op" horiz-adv-x="469" 
d="M116 120h-71v89h126l44 71h-170v89h225l51 81h83l-51 -81h71v-89h-126l-44 -71h170v-89h-225l-51 -82h-83z" />
    <glyph glyph-name="approxequal.op" horiz-adv-x="469" 
d="M45 255v93q52 34 102 34q33 0 87 -16.5t86 -16.5q52 0 104 34v-93q-52 -34 -104 -34q-32 0 -86 16.5t-87 16.5q-50 0 -102 -34zM45 106v93q52 34 102 34q33 0 87 -16.5t86 -16.5q52 0 104 34v-93q-52 -34 -104 -34q-32 0 -86 16.5t-87 16.5q-50 0 -102 -34z" />
    <glyph glyph-name="plus.lt" 
d="M208 241h-138v103h138v138h103v-138h138v-103h-138v-138h-103v138z" />
    <glyph glyph-name="minus.lt" 
d="M70 241v103h379v-103h-379z" />
    <glyph glyph-name="multiply.lt" 
d="M190 292l-99 99l70 70l99 -99l99 99l70 -70l-99 -99l99 -99l-70 -70l-99 99l-99 -99l-70 70z" />
    <glyph glyph-name="divide.lt" 
d="M70 241v103h379v-103h-379zM190 131q0 28 20.5 49t48.5 21q29 0 49.5 -20.5t20.5 -49.5q0 -28 -21 -48.5t-49 -20.5t-48.5 20.5t-20.5 48.5zM190 453q0 28 20.5 49t48.5 21q29 0 49.5 -20.5t20.5 -49.5q0 -28 -21 -48.5t-49 -20.5t-48.5 20.5t-20.5 48.5z" />
    <glyph glyph-name="equal.lt" 
d="M70 168v93h379v-93h-379zM70 328v93h379v-93h-379z" />
    <glyph glyph-name="less.lt" 
d="M115 287v8l289 184v-117l-124 -71l124 -71v-117z" />
    <glyph glyph-name="greater.lt" 
d="M404 295v-8l-289 -184v117l124 71l-124 71v117z" />
    <glyph glyph-name="plusminus.lt" 
d="M208 318h-128v103h128v98h103v-98h128v-103h-128v-98h-103v98zM80 78v103h359v-103h-359z" />
    <glyph glyph-name="lessequal.lt" 
d="M115 337v8l289 164v-117l-104 -51l104 -51v-117zM115 38v103h289v-103h-289z" />
    <glyph glyph-name="greaterequal.lt" 
d="M404 345v-8l-289 -164v117l104 51l-104 51v117zM404 141v-103h-289v103h289z" />
    <glyph glyph-name="notequal.lt" 
d="M141 170h-71v89h126l44 71h-170v89h225l51 82h83l-51 -82h71v-89h-126l-44 -71h170v-89h-225l-51 -82h-83z" />
    <glyph glyph-name="approxequal.lt" 
d="M70 305v93q52 34 102 34q32 0 86 -16.5t87 -16.5q52 0 104 34v-93q-52 -34 -104 -34q-33 0 -87 16.5t-86 16.5q-50 0 -102 -34zM70 156v93q52 34 102 34q32 0 86 -16.5t87 -16.5q52 0 104 34v-93q-52 -34 -104 -34q-33 0 -87 16.5t-86 16.5q-50 0 -102 -34z" />
    <glyph glyph-name="plus.ot" 
d="M208 181h-138v103h138v138h103v-138h138v-103h-138v-138h-103v138z" />
    <glyph glyph-name="minus.ot" 
d="M70 181v103h379v-103h-379z" />
    <glyph glyph-name="multiply.ot" 
d="M190 232l-99 99l70 70l99 -99l99 99l70 -70l-99 -99l99 -99l-70 -70l-99 99l-99 -99l-70 70z" />
    <glyph glyph-name="divide.ot" 
d="M70 181v103h379v-103h-379zM190 71q0 28 20.5 49t48.5 21q29 0 49.5 -20.5t20.5 -49.5q0 -28 -21 -48.5t-49 -20.5t-48.5 20.5t-20.5 48.5zM190 393q0 28 20.5 49t48.5 21q29 0 49.5 -20.5t20.5 -49.5q0 -28 -21 -48.5t-49 -20.5t-48.5 20.5t-20.5 48.5z" />
    <glyph glyph-name="equal.ot" 
d="M70 108v93h379v-93h-379zM70 268v93h379v-93h-379z" />
    <glyph glyph-name="less.ot" 
d="M115 227v8l289 184v-117l-124 -71l124 -71v-117z" />
    <glyph glyph-name="greater.ot" 
d="M404 235v-8l-289 -184v117l124 71l-124 71v117z" />
    <glyph glyph-name="plusminus.ot" 
d="M208 268h-128v103h128v98h103v-98h128v-103h-128v-98h-103v98zM80 28v103h359v-103h-359z" />
    <glyph glyph-name="lessequal.ot" 
d="M115 299v8l289 164v-117l-104 -51l104 -51v-117zM115 0v103h289v-103h-289z" />
    <glyph glyph-name="greaterequal.ot" 
d="M404 307v-8l-289 -164v117l104 51l-104 51v117zM404 103v-103h-289v103h289z" />
    <glyph glyph-name="notequal.ot" 
d="M141 120h-71v89h126l44 71h-170v89h225l51 81h83l-51 -81h71v-89h-126l-44 -71h170v-89h-225l-51 -82h-83z" />
    <glyph glyph-name="approxequal.ot" 
d="M70 255v93q52 34 102 34q32 0 86 -16.5t87 -16.5q52 0 104 34v-93q-52 -34 -104 -34q-33 0 -87 16.5t-86 16.5q-50 0 -102 -34zM70 106v93q52 34 102 34q32 0 86 -16.5t87 -16.5q52 0 104 34v-93q-52 -34 -104 -34q-33 0 -87 16.5t-86 16.5q-50 0 -102 -34z" />
    <glyph glyph-name="doublebar" horiz-adv-x="499" 
d="M88 -138v818h133v-818h-133zM278 -138v818h133v-818h-133z" />
    <glyph glyph-name="zero.slash" horiz-adv-x="525" 
d="M263 -10q-107 0 -172 85t-65 221q0 137 65 222.5t172 85.5q106 0 171 -85.5t65 -222.5q0 -136 -65 -221t-171 -85zM190 176l109 291q-17 11 -36 11q-42 0 -66.5 -46t-24.5 -136q0 -76 18 -120zM336 416l-109 -290q16 -10 36 -10q41 0 66 46t25 134q0 73 -18 120z" />
    <glyph glyph-name="invertedbreve" horiz-adv-x="500" 
d="M215 510h-101q0 69 38 107.5t98 38.5t98 -38.5t38 -107.5h-101q0 54 -35 54t-35 -54z" />
    <glyph glyph-name="doublegrave" horiz-adv-x="500" 
d="M429 513h-116l-85 152h116zM272 513h-116l-85 152h116z" />
    <glyph glyph-name="caronSlovak" horiz-adv-x="500" 
d="M217 680h112l-47 -167h-112z" />
    <glyph glyph-name="dotbelow" horiz-adv-x="500" 
d="M249 -190q-33 0 -56.5 23t-23.5 56q0 34 23.5 57.5t56.5 23.5t56.5 -23.5t23.5 -57.5q0 -33 -23.5 -56t-56.5 -23z" />
    <glyph glyph-name="altcedilla" horiz-adv-x="500" 
d="M231 0h114q-3 -45 -22.5 -85.5t-47.5 -60.5h-121q69 63 77 146z" />
    <glyph glyph-name="grave.cap" horiz-adv-x="500" 
d="M356 641h-128l-84 151h128z" />
    <glyph glyph-name="acute.cap" horiz-adv-x="500" 
d="M272 641h-128l84 151h128z" />
    <glyph glyph-name="circumflex.cap" horiz-adv-x="500" 
d="M298 793l117 -154h-112l-53 72l-53 -72h-112l117 154h96z" />
    <glyph glyph-name="tilde.cap" horiz-adv-x="500" 
d="M313 771h87q0 -61 -24 -97.5t-67 -36.5q-28 0 -56 19t-39 19q-27 0 -27 -34h-87q0 61 24 97.5t67 36.5q28 0 56.5 -19t39.5 -19q26 0 26 34z" />
    <glyph glyph-name="macron.cap" horiz-adv-x="500" 
d="M130 642v102h239v-102h-239z" />
    <glyph glyph-name="breve.cap" horiz-adv-x="500" 
d="M285 780h101q0 -68 -37.5 -105t-98.5 -37t-98.5 37t-37.5 105h101q0 -50 35 -50t35 50z" />
    <glyph glyph-name="invertedbreve.cap" horiz-adv-x="500" 
d="M215 638h-101q0 68 37.5 105t98.5 37t98.5 -37t37.5 -105h-101q0 50 -35 50t-35 -50z" />
    <glyph glyph-name="dotaccent.cap" horiz-adv-x="500" 
d="M250 634q-34 0 -58 23.5t-24 57.5t24 58t58 24q33 0 57 -24t24 -58q0 -33 -24 -57t-57 -24z" />
    <glyph glyph-name="dieresis.cap" horiz-adv-x="500" 
d="M155 629q-32 0 -54.5 22.5t-22.5 53.5q0 33 22.5 56t54.5 23t55 -23t23 -56q0 -31 -23 -53.5t-55 -22.5zM343 629q-32 0 -54.5 22.5t-22.5 53.5q0 33 22.5 56t54.5 23t55 -23t23 -56q0 -31 -23 -53.5t-55 -22.5z" />
    <glyph glyph-name="ring.cap" horiz-adv-x="500" 
d="M146 722q0 42 28 70.5t75 28.5t75.5 -28.5t28.5 -70.5q0 -43 -28 -71.5t-76 -28.5q-47 0 -75 28.5t-28 71.5zM288 722q0 16 -10.5 27.5t-28.5 11.5q-17 0 -27.5 -11.5t-10.5 -27.5q0 -17 10.5 -28.5t27.5 -11.5q18 0 28.5 11.5t10.5 28.5z" />
    <glyph glyph-name="hungarumlaut.cap" horiz-adv-x="500" 
d="M187 641h-116l85 151h116zM344 641h-116l85 151h116z" />
    <glyph glyph-name="doublegrave.cap" horiz-adv-x="500" 
d="M429 641h-116l-85 151h116zM272 641h-116l-85 151h116z" />
    <glyph glyph-name="caron.cap" horiz-adv-x="500" 
d="M415 795l-117 -154h-96l-117 154h112l53 -72l53 72h112z" />
    <glyph glyph-name="exclamdown.cap" horiz-adv-x="256" 
d="M199 388v-388h-142v388h142zM37 512q0 38 26.5 64t63.5 26q38 0 64.5 -26.5t26.5 -63.5q0 -38 -27 -64.5t-64 -26.5t-63.5 26.5t-26.5 64.5z" />
    <glyph glyph-name="questiondown.cap" horiz-adv-x="382" 
d="M367 182v-134q-66 -58 -171 -58q-84 0 -135 41t-51 131q0 41 15 73t40 51.5t48.5 31t48.5 17.5v53h131v-121q-83 -23 -112 -40t-29 -54q0 -54 66 -54q63 0 149 63zM316 514q0 -39 -25.5 -66t-61.5 -27q-40 0 -67 27t-27 66q0 36 27 62t67 26q35 0 61 -26t26 -62z" />
    <glyph glyph-name="guilsinglleft.cap" horiz-adv-x="317" 
d="M287 453l-122 -158l122 -158h-134l-123 158l123 158h134z" />
    <glyph glyph-name="guilsinglright.cap" horiz-adv-x="317" 
d="M152 295l-122 158h134l123 -158l-123 -158h-134z" />
    <glyph glyph-name="guillemotleft.cap" horiz-adv-x="507" 
d="M287 453l-122 -158l122 -158h-134l-123 158l123 158h134zM477 453l-122 -158l122 -158h-134l-123 158l123 158h134z" />
    <glyph glyph-name="guillemotright.cap" horiz-adv-x="507" 
d="M152 295l-122 158h134l123 -158l-123 -158h-134zM342 295l-122 158h134l123 -158l-123 -158h-134z" />
    <glyph glyph-name="slash.cap" horiz-adv-x="459" 
d="M11 -100l291 780h146l-291 -780h-146z" />
    <glyph glyph-name="backslash.cap" horiz-adv-x="459" 
d="M157 680l291 -780h-146l-291 780h146z" />
    <glyph glyph-name="bar.cap" horiz-adv-x="309" 
d="M88 -100v780h133v-780h-133z" />
    <glyph glyph-name="doublebar.cap" horiz-adv-x="499" 
d="M88 -100v780h133v-780h-133zM278 -100v780h133v-780h-133z" />
    <glyph glyph-name="brokenbar.cap" horiz-adv-x="309" 
d="M88 359v321h133v-321h-133zM88 -100v321h133v-321h-133z" />
    <glyph glyph-name="bullet.cap" horiz-adv-x="344" 
d="M50 291q0 51 35 87t86 36t87 -36t36 -87t-36 -86t-87 -35t-86 35t-35 86z" />
    <glyph glyph-name="periodcentered.cap" horiz-adv-x="281" 
d="M50 291q0 38 26.5 64.5t63.5 26.5q38 0 64.5 -27t26.5 -64t-26.5 -63.5t-64.5 -26.5t-64 26.5t-26 63.5z" />
    <glyph glyph-name="hyphen.cap" horiz-adv-x="355" 
d="M34 236v126h287v-126h-287z" />
    <glyph glyph-name="endash.cap" horiz-adv-x="572" 
d="M34 247v107h504v-107h-504z" />
    <glyph glyph-name="emdash.cap" horiz-adv-x="952" 
d="M34 247v107h884v-107h-884z" />
    <glyph glyph-name="parenleft.cap" horiz-adv-x="421" 
d="M411 -100h-161q-79 71 -122.5 176t-43.5 214q0 110 43.5 215t122.5 175h161q-92 -87 -139.5 -187.5t-47.5 -202.5q0 -101 47.5 -202.5t139.5 -187.5z" />
    <glyph glyph-name="parenright.cap" horiz-adv-x="421" 
d="M10 680h161q79 -70 122.5 -175t43.5 -215q0 -109 -43.5 -214t-122.5 -176h-161q92 86 139.5 187.5t47.5 202.5q0 102 -47.5 202.5t-139.5 187.5z" />
    <glyph glyph-name="bracketleft.cap" horiz-adv-x="379" 
d="M235 569v-558h94v-111h-226v780h226v-111h-94z" />
    <glyph glyph-name="bracketright.cap" horiz-adv-x="379" 
d="M144 11v558h-94v111h226v-780h-226v111h94z" />
    <glyph glyph-name="braceleft.cap" horiz-adv-x="401" 
d="M291 528v-87q0 -66 -38 -107.5t-92 -43.5q54 -2 92 -43.5t38 -107.5v-87q0 -13 1.5 -20.5t9.5 -14t23 -6.5h36v-111h-58q-68 0 -107 38t-39 113v99q0 82 -74 82h-27v116h27q74 0 74 82v99q0 75 39 113t107 38h58v-111h-36q-15 0 -23 -6.5t-9.5 -14t-1.5 -20.5z" />
    <glyph glyph-name="braceright.cap" horiz-adv-x="401" 
d="M110 52v87q0 66 38 107.5t92 43.5q-54 2 -92 43.5t-38 107.5v87q0 13 -1.5 20.5t-9.5 14t-23 6.5h-36v111h58q68 0 107 -38t39 -113v-99q0 -82 74 -82h27v-116h-27q-74 0 -74 -82v-99q0 -75 -39 -113t-107 -38h-58v111h36q15 0 23 6.5t9.5 14t1.5 20.5z" />
    <glyph glyph-name="at.cap" horiz-adv-x="770" 
d="M557 478v-278q41 18 67.5 63t26.5 109q0 103 -64.5 160t-177.5 57q-136 0 -213.5 -81t-77.5 -213q0 -79 28 -136.5t76.5 -89t103.5 -46t118 -14.5q112 0 204 35v-72q-82 -34 -204 -34q-181 0 -292.5 90.5t-111.5 266.5q0 158 99 261t270 103q150 0 235.5 -79.5
t85.5 -207.5q0 -135 -82 -207t-214 -72q-108 0 -170.5 52.5t-62.5 150.5q0 94 61 150t160 56q75 0 135 -24zM448 194v198q-10 2 -26 2q-48 0 -75.5 -28t-27.5 -71q0 -47 28 -74.5t76 -27.5q14 0 25 1z" />
    <glyph glyph-name="zero.inf" horiz-adv-x="345" 
d="M329 2q0 -83 -43.5 -135.5t-111.5 -52.5q-70 0 -114 52.5t-44 135.5q0 84 44 136t114 52q68 0 111.5 -52t43.5 -136zM219 2q0 47 -13 69.5t-32 22.5q-46 0 -46 -92t46 -92q19 0 32 23t13 69z" />
    <glyph glyph-name="one.inf" horiz-adv-x="217" 
d="M11 64v98l173 28v-370h-111v251z" />
    <glyph glyph-name="two.inf" horiz-adv-x="285" 
d="M151 -86h121v-94h-261v81q66 51 101.5 87t35.5 64q0 38 -41 38q-46 0 -92 -38v100q47 38 122 38q57 0 91.5 -30t34.5 -82q0 -46 -27.5 -83.5t-84.5 -80.5z" />
    <glyph glyph-name="three.inf" horiz-adv-x="273" 
d="M22 57v102q48 31 112 31q54 0 86 -25.5t32 -74.5q0 -32 -19.5 -56t-47.5 -31q73 -19 73 -84q0 -56 -41.5 -80.5t-95.5 -24.5q-58 0 -108 27v106q42 -40 96 -40q37 0 37 26q0 18 -15.5 23t-52.5 5v76q62 0 62 31q0 24 -32 24q-45 0 -86 -35z" />
    <glyph glyph-name="four.inf" horiz-adv-x="345" 
d="M282 184v-212h52v-80h-52v-72h-104v72h-167v80l167 212h104zM178 71l-80 -99h80v99z" />
    <glyph glyph-name="five.inf" horiz-adv-x="268" 
d="M127 90l-4 -35q60 -6 95.5 -34t35.5 -81q0 -62 -40 -94t-104 -32q-60 0 -97 28v96q47 -34 92 -34q48 0 48 32q0 42 -122 46l15 202h194v-94h-113z" />
    <glyph glyph-name="six.inf" horiz-adv-x="318" 
d="M128 184h113l-51 -85l-24 -32q9 3 19 3q52 0 87 -33.5t35 -88.5q0 -58 -41.5 -96t-106.5 -38q-64 0 -103.5 38t-39.5 96q0 55 40 120zM117 -52q0 -22 11.5 -34t30.5 -12q21 0 33.5 12t12.5 34t-12.5 34t-33.5 12q-18 0 -30 -12t-12 -34z" />
    <glyph glyph-name="seven.inf" horiz-adv-x="277" 
d="M150 90h-137v94h250v-94l-121 -270h-113z" />
    <glyph glyph-name="eight.inf" horiz-adv-x="301" 
d="M151 -186q-58 0 -98 28.5t-40 77.5q0 57 57 80q-47 26 -47 82q0 49 37 78.5t91 29.5t90.5 -29.5t36.5 -78.5q0 -57 -47 -82q57 -22 57 -80q0 -49 -39.5 -77.5t-97.5 -28.5zM151 46q13 0 22.5 8.5t9.5 23.5q0 13 -9.5 21.5t-22.5 8.5q-14 0 -23 -8.5t-9 -21.5
q0 -15 9 -23.5t23 -8.5zM151 -104q14 0 23.5 9.5t9.5 21.5q0 14 -9.5 23.5t-23.5 9.5q-15 0 -24 -9.5t-9 -23.5q0 -13 9 -22t24 -9z" />
    <glyph glyph-name="nine.inf" horiz-adv-x="318" 
d="M190 -180h-113l51 86l24 32q-9 -3 -19 -3q-52 0 -87 33.5t-35 88.5q0 58 41 96t106 38q64 0 103.5 -37.5t39.5 -96.5q0 -56 -39 -120zM201 57q0 21 -12 33.5t-31 12.5q-20 0 -32.5 -12.5t-12.5 -33.5q0 -22 12.5 -34t32.5 -12q19 0 31 12t12 34z" />
    </font>
</defs>
</svg>
