<?xml version="1.0" standalone="no"?>
<!DOCTYPE svg PUBLIC "-//W3C//DTD SVG 1.1//EN" "http://www.w3.org/Graphics/SVG/1.1/DTD/svg11.dtd" >
<svg xmlns="http://www.w3.org/2000/svg" xmlns:xlink="http://www.w3.org/1999/xlink" version="1.1">
<metadata>
Created by FontForge 20170731 at Fri Aug  7 14:23:34 2009
 By Aleksey,,,
Copyright (c) 2009 by Kris Sowersby. All rights reserved.
</metadata>
<defs>
<font id="Karbon-RegularItalic" horiz-adv-x="520" >
  <font-face 
    font-family="Karbon Regular"
    font-weight="600"
    font-style="italic"
    font-stretch="normal"
    units-per-em="1000"
    panose-1="0 0 5 0 0 0 0 0 0 0"
    ascent="680"
    descent="-320"
    x-height="436"
    cap-height="594"
    bbox="-137 -190 1033 852"
    underline-thickness="50"
    underline-position="-200"
    slope="-9"
    unicode-range="U+0020-FB04"
  />
<missing-glyph horiz-adv-x="190" 
 />
    <glyph glyph-name="ff" unicode="ff" horiz-adv-x="557" 
d="M181 385l-68 -385h-59l68 385h-68l9 51h68l18 103q11 66 49.5 102.5t97.5 36.5q48 0 77 -21l-10 -53q-25 21 -67 21q-36 0 -58 -21t-31 -72l-17 -96h212l20 115q11 66 50 102.5t99 36.5q52 0 83 -23l-10 -53q-28 23 -73 23q-38 0 -60 -21t-31 -72l-19 -108h120l-9 -51
h-120l-68 -385h-59l68 385h-212z" />
    <glyph glyph-name="fi" unicode="fi" horiz-adv-x="496" 
d="M181 385l-68 -385h-59l68 385h-68l9 51h68l20 114q12 68 54 104t102 36q71 0 115 -44l-11 -56q-46 48 -104 48q-40 0 -64.5 -21.5t-33.5 -73.5l-19 -107h271l-77 -436h-59l68 385h-212z" />
    <glyph glyph-name="fl" unicode="fl" horiz-adv-x="496" 
d="M375 669l-10 -53q-25 21 -67 21q-36 0 -58 -21t-31 -72l-19 -108h120l-9 -51h-120l-68 -385h-59l68 385h-68l9 51h68l20 115q11 66 49.5 102.5t97.5 36.5q49 0 77 -21zM504 680l-120 -680h-59l120 680h59z" />
    <glyph glyph-name="ffi" unicode="ffi" horiz-adv-x="767" 
d="M393 385h-212l-68 -385h-59l68 385h-68l9 51h68l18 103q11 66 49.5 102.5t97.5 36.5q48 0 77 -21l-10 -53q-25 21 -67 21q-36 0 -58 -21t-31 -72l-17 -96h212l20 114q12 68 54 104t102 36q71 0 115 -44l-11 -56q-46 48 -104 48q-40 0 -64.5 -21.5t-33.5 -73.5l-19 -107
h271l-77 -436h-59l68 385h-212l-68 -385h-59z" />
    <glyph glyph-name="ffl" unicode="ffl" horiz-adv-x="767" 
d="M393 385h-212l-68 -385h-59l68 385h-68l9 51h68l18 103q11 66 49.5 102.5t97.5 36.5q48 0 77 -21l-10 -53q-25 21 -67 21q-36 0 -58 -21t-31 -72l-17 -96h212l20 115q11 66 49.5 102.5t97.5 36.5q49 0 77 -21l-10 -53q-25 21 -67 21q-36 0 -58 -21t-31 -72l-19 -108h120
l-9 -51h-120l-68 -385h-59zM775 680l-120 -680h-59l120 680h59z" />
    <glyph glyph-name="f_f_j" unicode="ffj" horiz-adv-x="767" 
d="M588 -49l76 434h-212l-68 -385h-59l68 385h-212l-68 -385h-59l68 385h-68l9 51h68l18 103q11 66 49.5 102.5t97.5 36.5q48 0 77 -21l-10 -53q-25 21 -67 21q-36 0 -58 -21t-31 -72l-17 -96h212l20 114q12 68 54 104t102 36q71 0 115 -44l-11 -56q-46 48 -104 48
q-40 0 -64.5 -21.5t-33.5 -73.5l-19 -107h271l-86 -490q-24 -136 -145 -136q-56 0 -81 27l11 54q25 -29 70 -29q36 0 57 19.5t30 69.5z" />
    <glyph glyph-name="f_j" unicode="fj" horiz-adv-x="496" 
d="M317 -49l76 434h-212l-68 -385h-59l68 385h-68l9 51h68l20 114q12 68 54 104t102 36q71 0 115 -44l-11 -56q-46 48 -104 48q-40 0 -64.5 -21.5t-33.5 -73.5l-19 -107h271l-86 -490q-24 -136 -145 -136q-56 0 -81 27l11 54q25 -29 70 -29q36 0 57 19.5t30 69.5z" />
    <glyph glyph-name="f_b" unicode="fb" horiz-adv-x="802" 
d="M375 669l-10 -53q-25 21 -67 21q-36 0 -58 -21t-31 -72l-19 -108h120l-9 -51h-120l-68 -385h-59l68 385h-68l9 51h68l20 115q11 66 49.5 102.5t97.5 36.5q49 0 77 -21zM445 680h59l-45 -256q44 22 103 22q89 0 144.5 -54.5t55.5 -146.5q0 -114 -69 -184.5t-192 -70.5
q-48 0 -96 13t-74 31zM450 374l-55 -311q42 -22 106 -22q99 0 149.5 54.5t50.5 149.5q0 63 -39.5 107t-105.5 44q-59 0 -106 -22z" />
    <glyph glyph-name="f_k" unicode="fk" horiz-adv-x="731" 
d="M375 669l-10 -53q-25 21 -67 21q-36 0 -58 -21t-31 -72l-19 -108h120l-9 -51h-120l-68 -385h-59l68 385h-68l9 51h68l20 115q11 66 49.5 102.5t97.5 36.5q49 0 77 -21zM622 0l-192 238l243 198h87l-254 -201l187 -235h-71zM504 680l-120 -680h-59l120 680h59z" />
    <glyph glyph-name="f_h" unicode="fh" horiz-adv-x="793" 
d="M375 669l-10 -53q-25 21 -67 21q-36 0 -58 -21t-31 -72l-19 -108h120l-9 -51h-120l-68 -385h-59l68 385h-68l9 51h68l20 115q11 66 49.5 102.5t97.5 36.5q49 0 77 -21zM684 0h-59l47 264q6 30 6 54q0 41 -26 57t-77 16q-58 0 -127 -26l-64 -365h-59l120 680h59l-47 -263
q62 29 128 29q153 0 153 -117q0 -22 -7 -63z" />
    <glyph glyph-name="f_f_b" unicode="ffb" horiz-adv-x="1073" 
d="M393 385h-212l-68 -385h-59l68 385h-68l9 51h68l18 103q11 66 49.5 102.5t97.5 36.5q48 0 77 -21l-10 -53q-25 21 -67 21q-36 0 -58 -21t-31 -72l-17 -96h212l20 115q11 66 49.5 102.5t97.5 36.5q49 0 77 -21l-10 -53q-25 21 -67 21q-36 0 -58 -21t-31 -72l-19 -108h120
l-9 -51h-120l-68 -385h-59zM716 680h59l-45 -256q44 22 103 22q89 0 144.5 -54.5t55.5 -146.5q0 -114 -69 -184.5t-192 -70.5q-48 0 -96 13t-74 31zM721 374l-55 -311q42 -22 106 -22q99 0 149.5 54.5t50.5 149.5q0 63 -39.5 107t-105.5 44q-59 0 -106 -22z" />
    <glyph glyph-name="f_f_h" unicode="ffh" horiz-adv-x="1064" 
d="M393 385h-212l-68 -385h-59l68 385h-68l9 51h68l18 103q11 66 49.5 102.5t97.5 36.5q48 0 77 -21l-10 -53q-25 21 -67 21q-36 0 -58 -21t-31 -72l-17 -96h212l20 115q11 66 50 102.5t99 36.5q52 0 83 -23l-10 -53q-28 23 -73 23q-38 0 -60 -21t-31 -72l-19 -108h120
l-9 -51h-120l-68 -385h-59zM955 0h-59l47 264q6 30 6 54q0 41 -26 57t-77 16q-58 0 -127 -26l-64 -365h-59l120 680h59l-47 -263q62 29 128 29q153 0 153 -117q0 -22 -7 -63z" />
    <glyph glyph-name="f_f_k" unicode="ffk" horiz-adv-x="1002" 
d="M393 385h-212l-68 -385h-59l68 385h-68l9 51h68l18 103q11 66 49.5 102.5t97.5 36.5q48 0 77 -21l-10 -53q-25 21 -67 21q-36 0 -58 -21t-31 -72l-17 -96h212l20 115q11 66 50 102.5t99 36.5q52 0 83 -23l-10 -53q-28 23 -73 23q-38 0 -60 -21t-31 -72l-19 -108h120
l-9 -51h-120l-68 -385h-59zM893 0l-192 238l243 198h87l-254 -201l187 -235h-71zM775 680l-120 -680h-59l120 680h59z" />
    <glyph glyph-name=".notdef" horiz-adv-x="190" 
 />
    <glyph glyph-name=".null" horiz-adv-x="0" 
 />
    <glyph glyph-name="nonmarkingreturn" horiz-adv-x="333" 
 />
    <glyph glyph-name="space" unicode=" " horiz-adv-x="190" 
 />
    <glyph glyph-name="exclam" unicode="!" horiz-adv-x="269" 
d="M237 594l-75 -425h-59l75 425h59zM63 41q0 20 14.5 34.5t34.5 14.5t35 -14.5t15 -34.5t-15 -35t-35 -15t-34.5 15t-14.5 35z" />
    <glyph glyph-name="quotedbl" unicode="&#x22;" horiz-adv-x="304" 
d="M110 436l36 208h55l-46 -208h-45zM217 436l36 208h55l-46 -208h-45z" />
    <glyph glyph-name="numbersign" unicode="#" horiz-adv-x="523" 
d="M166 170l-64 -170h-58l64 170h-78l10 52h88l56 148h-86l9 52h96l65 172h58l-65 -172h130l65 172h58l-65 -172h75l-9 -52h-85l-56 -148h83l-10 -52h-93l-64 -170h-58l64 170h-130zM186 222h130l56 148h-130z" />
    <glyph glyph-name="dollar" unicode="$" horiz-adv-x="434" 
d="M325 680l-15 -92q66 -15 103 -57l-13 -61q-43 51 -100 67l-38 -216q66 -35 95.5 -67.5t29.5 -92.5q0 -71 -50.5 -115.5t-130.5 -46.5l-17 -94h-50l17 97q-86 14 -136 68l15 58q57 -63 130 -75l41 233q-64 32 -95 66t-31 93q0 66 49 107.5t128 41.5h4l14 86h50zM252 262
l-37 -211q53 4 83 32.5t30 77.5q0 35 -19 57.5t-57 43.5zM216 345l35 198q-54 -1 -83 -27t-29 -71q0 -35 20 -57.5t57 -42.5z" />
    <glyph glyph-name="percent" unicode="%" horiz-adv-x="680" 
d="M489 -10q-56 0 -93 35.5t-37 89.5q0 63 44 105.5t102 42.5q56 0 93 -35.5t37 -89.5q0 -63 -44 -105.5t-102 -42.5zM489 42q39 0 64.5 25.5t25.5 70.5q0 33 -20.5 53t-53.5 20q-39 0 -64.5 -25.5t-25.5 -70.5q0 -33 20.5 -53t53.5 -20zM206 604q56 0 93 -35.5t37 -89.5
q0 -63 -44 -105.5t-102 -42.5q-56 0 -93 35.5t-37 89.5q0 63 44 105.5t102 42.5zM206 552q-39 0 -64.5 -25.5t-25.5 -70.5q0 -33 20.5 -53t53.5 -20q39 0 64.5 25.5t25.5 70.5q0 33 -20.5 53t-53.5 20zM609 594l-461 -594h-62l461 594h62z" />
    <glyph glyph-name="ampersand" unicode="&#x26;" horiz-adv-x="552" 
d="M203 327l-9 11q-49 63 -49 121q0 63 43 104t109 41q63 0 97.5 -32.5t34.5 -86.5q0 -59 -38 -98.5t-106 -73.5l118 -152q38 63 55 137h55q-18 -100 -77 -179l92 -119h-68l-60 76q-86 -86 -196 -86q-80 0 -125 42t-45 105q0 61 40 104t129 86zM368 116l-135 172
q-78 -38 -108 -69t-30 -82q0 -41 30 -68.5t79 -27.5q96 0 164 75zM237 375l19 -24q54 24 84 53.5t30 80.5q0 30 -19.5 50t-53.5 20q-43 0 -68.5 -26.5t-25.5 -69.5q0 -40 34 -84z" />
    <glyph glyph-name="quotesingle" unicode="'" horiz-adv-x="197" 
d="M110 436l36 208h57l-46 -208h-47z" />
    <glyph glyph-name="parenleft" unicode="(" horiz-adv-x="321" 
d="M255 -138h-65q-137 133 -137 331q0 151 79 278t196 209h76q-295 -215 -295 -487q0 -103 38.5 -181.5t107.5 -149.5z" />
    <glyph glyph-name="parenright" unicode=")" horiz-adv-x="321" 
d="M98 680h65q137 -133 137 -331q0 -151 -79 -278t-196 -209h-76q295 215 295 487q0 103 -38.5 181.5t-107.5 149.5z" />
    <glyph glyph-name="asterisk" unicode="*" horiz-adv-x="336" 
d="M212 506l-76 -77l-32 32l79 75l-97 49l21 42l95 -54l17 109l46 -8l-22 -107l109 17l6 -45l-108 -14l50 -97l-41 -20z" />
    <glyph glyph-name="plus" unicode="+" horiz-adv-x="459" 
d="M209 266h-163l10 53h163l28 163h53l-28 -163h163l-10 -53h-163l-28 -163h-53z" />
    <glyph glyph-name="comma" unicode="," horiz-adv-x="239" 
d="M85 80h71q-11 -61 -50.5 -119.5t-84.5 -84.5h-47q90 81 111 204z" />
    <glyph glyph-name="hyphen" unicode="-" horiz-adv-x="355" 
d="M76 232l10 54h215l-10 -54h-215z" />
    <glyph glyph-name="period" unicode="." horiz-adv-x="239" 
d="M47 41q0 20 14.5 34.5t34.5 14.5t35 -14.5t15 -34.5t-15 -35t-35 -15t-34.5 15t-14.5 35z" />
    <glyph glyph-name="slash" unicode="/" horiz-adv-x="449" 
d="M-22 -138l457 818h60l-458 -818h-59z" />
    <glyph glyph-name="zero" unicode="0" horiz-adv-x="534" 
d="M247 -10q-95 0 -143 67t-48 174q0 156 74.5 264.5t188.5 108.5q95 0 143 -67t48 -174q0 -156 -74.5 -264.5t-188.5 -108.5zM319 551q-88 0 -144.5 -93.5t-56.5 -225.5q0 -84 33 -136.5t96 -52.5q88 0 144.5 93.5t56.5 225.5q0 84 -33 136.5t-96 52.5z" />
    <glyph glyph-name="one" unicode="1" horiz-adv-x="305" 
d="M71 513l11 57l191 33l-106 -603h-60l94 535z" />
    <glyph glyph-name="two" unicode="2" horiz-adv-x="420" 
d="M67 54h290l-9 -54h-377l9 48q71 49 114 80.5t98.5 78t86 83t52.5 80.5t22 86q0 41 -25.5 67t-70.5 26q-91 0 -182 -81l12 71q74 65 170 65q78 0 118 -38t40 -110q0 -180 -348 -402z" />
    <glyph glyph-name="three" unicode="3" horiz-adv-x="396" 
d="M72 475l12 67q60 62 153 62q74 0 112.5 -36.5t38.5 -97.5q0 -68 -47.5 -113.5t-119.5 -55.5q55 -7 92 -44t37 -93q0 -75 -59.5 -124.5t-150.5 -49.5q-47 0 -89 14t-65 37l10 59q65 -58 144 -58q66 0 107 33.5t41 88.5q0 49 -35.5 77.5t-112.5 38.5l8 42q82 10 129.5 46.5
t47.5 99.5q0 37 -22.5 59.5t-65.5 22.5q-85 0 -165 -75z" />
    <glyph glyph-name="four" unicode="4" horiz-adv-x="503" 
d="M441 594l-66 -378h113l-9 -51h-113l-29 -165h-57l29 165h-296l9 51l349 378h70zM372 525l-285 -309h231z" />
    <glyph glyph-name="five" unicode="5" horiz-adv-x="401" 
d="M193 540l-42 -172q207 -28 207 -188q0 -82 -58.5 -136t-155.5 -54q-46 0 -88 15t-64 39l11 57q62 -59 141 -59q71 0 111.5 36t40.5 102q0 123 -211 145l66 269h266l-10 -54h-214z" />
    <glyph glyph-name="six" unicode="6" horiz-adv-x="479" 
d="M330 594h73l-175 -194l-64 -59q39 32 98 32q78 0 128 -48.5t50 -129.5q0 -87 -58 -146t-150 -59q-90 0 -141 50t-51 131q0 63 30.5 116.5t89.5 118.5zM247 324q-65 0 -106 -43t-41 -111q0 -57 36 -94t96 -37q65 0 106 43.5t41 111.5q0 57 -36 93.5t-96 36.5z" />
    <glyph glyph-name="seven" unicode="7" horiz-adv-x="393" 
d="M362 540h-313l10 54h379l-10 -54l-361 -540h-67z" />
    <glyph glyph-name="eight" unicode="8" horiz-adv-x="476" 
d="M231 -10q-85 0 -140 43.5t-55 120.5q0 69 46 115t111 54q-35 13 -57.5 44.5t-22.5 75.5q0 75 51 118t119 43q69 0 113.5 -38.5t44.5 -107.5q0 -58 -34 -96.5t-83 -48.5q45 -12 76.5 -51t31.5 -91q0 -85 -58.5 -133t-142.5 -48zM271 345q46 0 78 30.5t32 81.5q0 43 -28 71
t-70 28q-47 0 -78.5 -30t-31.5 -82q0 -43 28 -71t70 -28zM230 39q58 0 99 34t41 98q0 54 -37.5 86t-94.5 32q-58 0 -99 -34.5t-41 -100.5q0 -52 37.5 -83.5t94.5 -31.5z" />
    <glyph glyph-name="nine" unicode="9" horiz-adv-x="479" 
d="M177 0h-73l175 194l64 59q-39 -32 -98 -32q-78 0 -128 48.5t-50 129.5q0 87 58 146t150 59q90 0 141 -50t51 -131q0 -63 -30.5 -116.5t-89.5 -118.5zM260 270q65 0 106 43t41 111q0 57 -36 94t-96 37q-65 0 -106 -43.5t-41 -111.5q0 -57 36 -93.5t96 -36.5z" />
    <glyph glyph-name="colon" unicode=":" horiz-adv-x="239" 
d="M47 41q0 20 14.5 34.5t34.5 14.5t35 -14.5t15 -34.5t-15 -35t-35 -15t-34.5 15t-14.5 35zM107 376q0 20 14.5 34.5t34.5 14.5t35 -14.5t15 -34.5t-15 -35t-35 -15t-34.5 15t-14.5 35z" />
    <glyph glyph-name="semicolon" unicode=";" horiz-adv-x="239" 
d="M85 80h71q-11 -61 -50.5 -119.5t-84.5 -84.5h-47q90 81 111 204zM107 376q0 20 14.5 34.5t34.5 14.5t35 -14.5t15 -34.5t-15 -35t-35 -15t-34.5 15t-14.5 35z" />
    <glyph glyph-name="less" unicode="&#x3c;" horiz-adv-x="329" 
d="M35 287l2 8l297 164l-11 -69l-191 -102l155 -102l-12 -63z" />
    <glyph glyph-name="equal" unicode="=" horiz-adv-x="469" 
d="M41 206l9 53h379l-9 -53h-379zM62 326l9 53h379l-9 -53h-379z" />
    <glyph glyph-name="greater" unicode="&#x3e;" horiz-adv-x="329" 
d="M321 295l-2 -8l-297 -164l11 69l191 102l-155 102l12 63z" />
    <glyph glyph-name="question" unicode="?" horiz-adv-x="403" 
d="M82 473l13 73q63 58 151 58q75 0 116 -39.5t41 -106.5q0 -44 -17 -79.5t-48.5 -59.5t-64 -40t-76.5 -30l-14 -80h-59l21 113q95 30 146 68t51 108q0 41 -27.5 66t-71.5 25q-83 0 -161 -76zM89 41q0 20 14.5 34.5t34.5 14.5t35 -14.5t15 -34.5t-15 -35t-35 -15t-34.5 15
t-14.5 35z" />
    <glyph glyph-name="at" unicode="@" horiz-adv-x="773" 
d="M581 373l-52 -290q67 20 109.5 76.5t42.5 144.5q0 100 -68 161.5t-184 61.5q-143 0 -233.5 -95t-90.5 -238q0 -63 19.5 -113.5t50.5 -82.5t72.5 -53.5t84 -30.5t86.5 -9q122 0 208 43l-3 -50q-75 -41 -205 -41q-53 0 -103 10.5t-99 35.5t-85 62.5t-58.5 96.5t-22.5 132
q0 161 106.5 271t272.5 110q143 0 224.5 -75t81.5 -196q0 -135 -92 -209.5t-227 -74.5q-96 0 -149.5 47.5t-53.5 129.5q0 94 61 153.5t163 59.5q86 0 144 -37zM477 73l48 268q-33 19 -90 19q-78 0 -123.5 -43t-45.5 -120q0 -65 43 -97.5t109 -32.5q29 0 59 6z" />
    <glyph glyph-name="A" unicode="A" horiz-adv-x="562" 
d="M459 0l-34 164h-288l-92 -164h-65l336 594h81l125 -594h-63zM349 543l-183 -327h249z" />
    <glyph glyph-name="B" unicode="B" horiz-adv-x="484" 
d="M56 7l103 587q60 10 115 10q85 0 136 -39t51 -113q0 -64 -40.5 -104t-98.5 -46q58 -8 91 -42.5t33 -90.5q0 -85 -68.5 -132t-178.5 -47q-80 0 -143 17zM163 274l-39 -226q34 -7 76 -7q87 0 136 32t49 96q0 105 -155 105h-67zM211 550l-38 -223h57q79 0 124.5 31t45.5 94
q0 48 -35 74.5t-91 26.5q-30 0 -63 -3z" />
    <glyph glyph-name="C" unicode="C" horiz-adv-x="570" 
d="M577 542l-12 -68q-71 74 -173 74q-124 0 -195 -78.5t-71 -204.5q0 -103 60.5 -161t153.5 -58q108 0 187 62l-13 -73q-71 -45 -174 -45q-125 0 -200.5 74t-75.5 201q0 153 92 246t236 93q111 0 185 -62z" />
    <glyph glyph-name="D" unicode="D" horiz-adv-x="617" 
d="M57 10l103 586q61 8 121 8q140 0 225 -69.5t85 -201.5q0 -88 -30.5 -155.5t-84.5 -107.5t-122 -60t-147 -20q-95 0 -150 20zM212 547l-87 -494q32 -9 82 -9q147 0 234.5 70.5t87.5 218.5q0 104 -68.5 160.5t-179.5 56.5q-33 0 -69 -3z" />
    <glyph glyph-name="E" unicode="E" horiz-adv-x="480" 
d="M125 54h283l-9 -54h-344l104 594h340l-9 -54h-279l-37 -210h261l-10 -55h-261z" />
    <glyph glyph-name="F" unicode="F" horiz-adv-x="429" 
d="M116 0h-61l104 594h309l-9 -54h-248l-38 -215h236l-10 -55h-236z" />
    <glyph glyph-name="G" unicode="G" horiz-adv-x="603" 
d="M578 550l-12 -71q-28 31 -75.5 50t-99.5 19q-123 0 -194 -78.5t-71 -204.5q0 -101 59.5 -160t158.5 -59q71 0 124 24l35 198h62l-42 -236q-81 -42 -179 -42q-131 0 -205.5 77t-74.5 198q0 155 93 247t234 92q112 0 187 -54z" />
    <glyph glyph-name="H" unicode="H" horiz-adv-x="660" 
d="M648 594l-104 -594h-61l48 275h-367l-48 -275h-61l104 594h61l-46 -264h367l46 264h61z" />
    <glyph glyph-name="I" unicode="I" horiz-adv-x="232" 
d="M220 594l-104 -594h-61l104 594h61z" />
    <glyph glyph-name="J" unicode="J" horiz-adv-x="369" 
d="M-1 43l12 68q43 -68 119 -68q85 0 105 110l78 441h61l-80 -453q-13 -74 -56.5 -112.5t-107.5 -38.5q-90 0 -131 53z" />
    <glyph glyph-name="K" unicode="K" horiz-adv-x="518" 
d="M172 293l320 301h80l-322 -302l252 -292h-77l-253 292v1zM220 594l-104 -594h-61l104 594h61z" />
    <glyph glyph-name="L" unicode="L" horiz-adv-x="423" 
d="M55 0l104 594h61l-95 -540h256l-9 -54h-317z" />
    <glyph glyph-name="M" unicode="M" horiz-adv-x="780" 
d="M394 0h-69l-75 530l-181 -530h-60l204 594h81l75 -533l264 533h82l-4 -594h-61l7 528z" />
    <glyph glyph-name="N" unicode="N" horiz-adv-x="646" 
d="M222 594l264 -511l89 511h59l-104 -594h-60l-266 511l-90 -511h-59l104 594h63z" />
    <glyph glyph-name="O" unicode="O" horiz-adv-x="681" 
d="M336 -10q-123 0 -197.5 75.5t-74.5 199.5q0 143 88 241t231 98q123 0 197.5 -75.5t74.5 -199.5q0 -143 -88 -241t-231 -98zM336 46q116 0 186.5 80.5t70.5 202.5q0 97 -56.5 158t-153.5 61q-116 0 -186.5 -80.5t-70.5 -202.5q0 -97 56.5 -158t153.5 -61z" />
    <glyph glyph-name="P" unicode="P" horiz-adv-x="455" 
d="M155 225l-39 -225h-61l105 595q63 9 110 9q94 0 147 -48.5t53 -130.5q0 -103 -69.5 -154t-178.5 -51q-39 0 -67 5zM213 549l-49 -274q18 -3 58 -3q84 0 134.5 37t50.5 116q0 59 -38 92.5t-99 33.5q-29 0 -57 -2z" />
    <glyph glyph-name="Q" unicode="Q" horiz-adv-x="681" 
d="M426 -138l-103 128q-118 5 -188.5 79.5t-70.5 195.5q0 143 88 241t231 98q123 0 197.5 -75.5t74.5 -199.5q0 -127 -71.5 -221t-190.5 -114l108 -132h-75zM336 46q116 0 186.5 80.5t70.5 202.5q0 97 -56.5 158t-153.5 61q-116 0 -186.5 -80.5t-70.5 -202.5
q0 -97 56.5 -158t153.5 -61z" />
    <glyph glyph-name="R" unicode="R" horiz-adv-x="503" 
d="M156 230l-40 -230h-61l104 594q49 9 103 9q101 0 156 -44.5t55 -126.5q0 -78 -49 -128.5t-118 -63.5l154 -240h-70l-144 230h-90zM212 549l-47 -268h62q84 0 133.5 37t49.5 114q0 60 -41.5 89.5t-106.5 29.5q-22 0 -50 -2z" />
    <glyph glyph-name="S" unicode="S" horiz-adv-x="434" 
d="M419 540l-13 -64q-60 75 -142 75q-55 0 -85 -26.5t-30 -74.5q0 -30 14.5 -52.5t31.5 -33.5t50 -29q76 -40 108.5 -75t32.5 -103q0 -75 -53.5 -121t-135.5 -46q-55 0 -102 20.5t-74 50.5l15 62q71 -80 160 -80q60 0 95 29.5t35 84.5q0 46 -26 71t-87 57q-63 33 -93.5 68
t-30.5 97q0 68 48.5 111t126.5 43q47 0 89 -18t66 -46z" />
    <glyph glyph-name="T" unicode="T" horiz-adv-x="474" 
d="M326 540l-95 -540h-61l95 540h-196l9 54h453l-9 -54h-196z" />
    <glyph glyph-name="U" unicode="U" horiz-adv-x="593" 
d="M70 205l68 389h61l-68 -389q-4 -21 -4 -49q0 -112 165 -112q70 0 134 18l94 532h61l-101 -574q-95 -30 -188 -30q-227 0 -227 160q0 28 5 55z" />
    <glyph glyph-name="V" unicode="V" horiz-adv-x="552" 
d="M275 0h-74l-118 594h63l101 -536l299 536h68z" />
    <glyph glyph-name="W" unicode="W" horiz-adv-x="763" 
d="M425 594h61l45 -538l233 538h61l-262 -594h-82l-38 511l-224 -511h-82l-54 594h60l47 -538z" />
    <glyph glyph-name="X" unicode="X" horiz-adv-x="522" 
d="M106 594h65l123 -242l205 242h70l-248 -289l161 -305h-65l-139 266l-232 -266h-71l277 315z" />
    <glyph glyph-name="Y" unicode="Y" horiz-adv-x="515" 
d="M275 293l232 301h70l-279 -357l-41 -237h-62l42 237l-154 357h66z" />
    <glyph glyph-name="Z" unicode="Z" horiz-adv-x="499" 
d="M119 540l9 54h399l-8 -50l-433 -490h357l-9 -54h-429l8 51l430 489h-324z" />
    <glyph glyph-name="bracketleft" unicode="[" horiz-adv-x="334" 
d="M228 631l-128 -722h137l-8 -47h-189l144 818h189l-8 -49h-137z" />
    <glyph glyph-name="backslash" unicode="\" horiz-adv-x="424" 
d="M175 680l175 -818h-53l-175 818h53z" />
    <glyph glyph-name="bracketright" unicode="]" horiz-adv-x="334" 
d="M138 -89l128 722h-137l8 47h189l-144 -818h-189l8 49h137z" />
    <glyph glyph-name="asciicircum" unicode="^" horiz-adv-x="416" 
d="M304 594l111 -256h-60l-88 205l-160 -205h-68l201 256h64z" />
    <glyph glyph-name="underscore" unicode="_" horiz-adv-x="462" 
d="M-6 -135l8 48h362l-8 -48h-362z" />
    <glyph glyph-name="grave" unicode="`" horiz-adv-x="500" 
d="M305 513h-53l-58 152h58z" />
    <glyph glyph-name="a" unicode="a" horiz-adv-x="429" 
d="M105 354l10 59q58 33 135 33q60 0 97 -27t37 -79q0 -16 -3 -35l-52 -297q-61 -16 -117 -16q-84 0 -133 31.5t-49 96.5q0 69 59.5 100.5t154.5 31.5h70l9 53q2 14 2 26q0 29 -21 46t-58 17q-68 0 -141 -40zM305 203h-61q-73 0 -114 -17.5t-41 -65.5q0 -40 33.5 -60
t89.5 -20q32 0 65 6z" />
    <glyph glyph-name="b" unicode="b" horiz-adv-x="514" 
d="M157 680h59l-45 -256q44 22 103 22q89 0 144.5 -54.5t55.5 -146.5q0 -114 -69 -184.5t-192 -70.5q-48 0 -96 13t-74 31zM162 374l-55 -311q42 -22 106 -22q99 0 149.5 54.5t50.5 149.5q0 63 -39.5 107t-105.5 44q-59 0 -106 -22z" />
    <glyph glyph-name="c" unicode="c" horiz-adv-x="442" 
d="M393 89l-12 -66q-51 -33 -133 -33q-93 0 -149 56.5t-56 143.5q0 122 70 189t167 67q90 0 144 -48l-12 -62q-57 57 -132 57t-125.5 -51.5t-50.5 -151.5q0 -62 38 -104.5t106 -42.5q79 0 145 46z" />
    <glyph glyph-name="d" unicode="d" horiz-adv-x="511" 
d="M519 680l-118 -668q-69 -22 -134 -22q-104 0 -165 55.5t-61 148.5q0 112 71 182t189 70q67 0 113 -27l46 261h59zM350 52l55 314q-41 28 -104 28q-93 0 -146 -53.5t-53 -145.5q0 -69 44 -112t121 -43q50 0 83 12z" />
    <glyph glyph-name="e" unicode="e" horiz-adv-x="478" 
d="M404 89l-12 -62q-57 -37 -142 -37q-95 0 -151 57t-56 146q0 108 64.5 180.5t166.5 72.5q89 0 129.5 -49t40.5 -121q0 -38 -9 -61h-332q-1 -8 -1 -22q0 -70 40 -111t108 -41q80 0 154 48zM111 265h273q1 7 1 15q0 51 -28.5 83.5t-83.5 32.5q-58 0 -101 -35t-61 -96z" />
    <glyph glyph-name="f" unicode="f" horiz-adv-x="286" 
d="M181 385l-68 -385h-59l68 385h-68l9 51h68l20 115q11 66 50 102.5t99 36.5q52 0 83 -23l-10 -53q-28 23 -73 23q-38 0 -60 -21t-31 -72l-19 -108h120l-9 -51h-120z" />
    <glyph glyph-name="g" unicode="g" horiz-adv-x="503" 
d="M35 -147l10 55q71 -47 139 -47q64 0 101.5 31t50.5 100l5 28q-41 -24 -101 -24q-91 0 -145.5 51.5t-54.5 145.5q0 112 72 182.5t195 70.5q94 0 161 -40l-75 -426q-29 -170 -209 -170q-92 0 -149 43zM350 72l54 301q-37 21 -97 21q-99 0 -152.5 -54t-53.5 -147
q0 -66 38 -106t101 -40q54 0 110 25z" />
    <glyph glyph-name="h" unicode="h" horiz-adv-x="507" 
d="M398 0h-59l47 264q6 30 6 54q0 41 -26 57t-77 16q-58 0 -127 -26l-64 -365h-59l120 680h59l-47 -263q62 29 128 29q153 0 153 -117q0 -22 -7 -63z" />
    <glyph glyph-name="i" unicode="i" horiz-adv-x="210" 
d="M175 436l-77 -436h-59l77 436h59zM168 537q-18 0 -31.5 13.5t-13.5 31.5q0 19 13.5 32t31.5 13q19 0 32 -13t13 -32q0 -18 -13 -31.5t-32 -13.5z" />
    <glyph glyph-name="j" unicode="j" horiz-adv-x="210" 
d="M168 537q-18 0 -31.5 13.5t-13.5 31.5q0 19 13.5 32t31.5 13q19 0 32 -13t13 -32q0 -18 -13 -31.5t-32 -13.5zM-137 -163l11 54q25 -29 70 -29q36 0 57 19.5t30 69.5l85 485h59l-86 -490q-24 -136 -145 -136q-56 0 -81 27z" />
    <glyph glyph-name="k" unicode="k" horiz-adv-x="445" 
d="M336 0l-192 238l243 198h87l-254 -201l187 -235h-71zM218 680l-120 -680h-59l120 680h59z" />
    <glyph glyph-name="l" unicode="l" horiz-adv-x="210" 
d="M218 680l-120 -680h-59l120 680h59z" />
    <glyph glyph-name="m" unicode="m" horiz-adv-x="754" 
d="M376 0h-59l48 265q5 25 5 54q0 41 -21.5 57t-67.5 16q-55 0 -118 -21l-65 -371h-59l72 410q95 36 178 36q77 0 111 -33q95 33 160 33q71 0 105 -28t34 -88q0 -28 -6 -63l-48 -267h-59l48 265q5 25 5 54q0 41 -21.5 57t-67.5 16q-68 0 -126 -22q6 -26 6 -43q0 -20 -6 -60z
" />
    <glyph glyph-name="n" unicode="n" horiz-adv-x="507" 
d="M398 0h-59l48 265q5 25 5 54q0 40 -26 56t-74 16q-56 0 -129 -20l-65 -371h-59l72 410q106 36 187 36q154 0 154 -116q0 -28 -6 -63z" />
    <glyph glyph-name="o" unicode="o" horiz-adv-x="524" 
d="M245 -10q-91 0 -146.5 56t-55.5 148q0 107 65 179.5t172 72.5q91 0 146.5 -56t55.5 -148q0 -107 -65 -179.5t-172 -72.5zM245 40q78 0 127 56.5t49 145.5q0 67 -38.5 110.5t-102.5 43.5q-78 0 -127 -56.5t-49 -145.5q0 -67 38.5 -110.5t102.5 -43.5z" />
    <glyph glyph-name="p" unicode="p" horiz-adv-x="518" 
d="M7 -180l105 596q72 30 151 30q104 0 159.5 -55.5t55.5 -150.5q0 -109 -68.5 -179.5t-187.5 -70.5q-77 0 -120 32l-35 -202h-60zM164 377l-52 -303q46 -33 110 -33q94 0 144.5 54t50.5 145q0 68 -41 110.5t-113 42.5q-53 0 -99 -16z" />
    <glyph glyph-name="q" unicode="q" horiz-adv-x="504" 
d="M367 -180h-59l33 184q-34 -14 -80 -14q-100 0 -160 55.5t-60 147.5q0 113 72.5 183t194.5 70q92 0 161 -45zM350 55l54 315q-38 24 -96 24q-97 0 -151.5 -53.5t-54.5 -146.5q0 -69 43 -111.5t116 -42.5q47 0 89 15z" />
    <glyph glyph-name="r" unicode="r" horiz-adv-x="325" 
d="M344 433l-10 -56q-29 10 -64 10q-64 0 -108 -23l-64 -364h-59l71 401q72 41 160 41q38 0 74 -9z" />
    <glyph glyph-name="s" unicode="s" horiz-adv-x="364" 
d="M18 42l11 60q55 -61 124 -61q92 0 92 77q0 26 -18.5 42.5t-56.5 36.5q-25 13 -38 21.5t-31 24t-26.5 35.5t-8.5 46q0 54 40 88t104 34q79 0 122 -41l-10 -58q-50 48 -112 48q-41 0 -63 -18.5t-22 -52.5q0 -14 5.5 -25t18.5 -21t22 -15.5t29 -16.5q25 -13 38 -21.5t31 -24
t26.5 -36t8.5 -46.5q0 -60 -42.5 -94t-108.5 -34q-43 0 -79 14.5t-56 37.5z" />
    <glyph glyph-name="t" unicode="t" horiz-adv-x="316" 
d="M46 385l9 51h67l19 106h59l-19 -106h123l-9 -51h-123l-47 -266q-4 -24 -4 -34q0 -44 47 -44q38 0 93 26l-10 -55q-47 -22 -91 -22q-98 0 -98 87q0 17 3 36l48 272h-67z" />
    <glyph glyph-name="u" unicode="u" horiz-adv-x="479" 
d="M98 436h59l-49 -282q-3 -16 -3 -27q0 -86 121 -86q54 0 98 11l67 384h59l-75 -426q-88 -20 -154 -20q-82 0 -129 30.5t-47 90.5q0 21 5 51z" />
    <glyph glyph-name="v" unicode="v" horiz-adv-x="418" 
d="M44 436h57l70 -380l219 380h63l-257 -436h-67z" />
    <glyph glyph-name="w" unicode="w" horiz-adv-x="629" 
d="M381 436l38 -382l183 382h62l-217 -436h-73l-36 358l-174 -358h-73l-47 436h58l37 -382l186 382h56z" />
    <glyph glyph-name="x" unicode="x" horiz-adv-x="410" 
d="M429 436l-191 -211l130 -225h-63l-105 187l-168 -187h-68l210 228l-120 208h63l95 -170l149 170h68z" />
    <glyph glyph-name="y" unicode="y" horiz-adv-x="428" 
d="M101 436l75 -398l224 398h63l-356 -616h-61l90 153l-92 463h57z" />
    <glyph glyph-name="z" unicode="z" horiz-adv-x="408" 
d="M349 51l-8 -51h-340l9 50l320 335h-249l9 51h319l-9 -50l-320 -335h269z" />
    <glyph glyph-name="braceleft" unicode="{" horiz-adv-x="335" 
d="M252 541l-27 -154q-10 -53 -41 -82t-66 -34q27 -4 47.5 -26t20.5 -62q0 -26 -16.5 -109t-16.5 -103q0 -62 63 -62h24l-8 -47h-21q-110 0 -110 98q0 28 16.5 113t16.5 108q0 67 -69 67h-30l8 46h30q36 0 63 22.5t36 72.5l27 152q12 70 47.5 104.5t102.5 34.5h27l-8 -47
h-24q-77 0 -92 -92z" />
    <glyph glyph-name="bar" unicode="|" horiz-adv-x="257" 
d="M47 -138l144 818h53l-144 -818h-53z" />
    <glyph glyph-name="braceright" unicode="}" horiz-adv-x="335" 
d="M118 1l27 154q10 53 41 82t66 34q-27 4 -47.5 26t-20.5 62q0 26 16.5 109t16.5 103q0 62 -63 62h-24l8 47h21q110 0 110 -98q0 -28 -16.5 -113t-16.5 -108q0 -67 69 -67h30l-8 -46h-30q-36 0 -63 -22.5t-36 -72.5l-27 -152q-12 -70 -47.5 -104.5t-102.5 -34.5h-27l8 47
h24q77 0 92 92z" />
    <glyph glyph-name="asciitilde" unicode="~" horiz-adv-x="459" 
d="M355 316h54q-10 -55 -39.5 -85t-71.5 -30q-31 0 -67.5 33.5t-53.5 33.5q-18 0 -32.5 -17t-20.5 -48h-54q10 55 39.5 85t72.5 30q31 0 67.5 -33.5t53.5 -33.5q18 0 32.5 17t19.5 48z" />
    <glyph glyph-name="uni00A0" unicode="&#xa0;" horiz-adv-x="190" 
 />
    <glyph glyph-name="exclamdown" unicode="&#xa1;" horiz-adv-x="269" 
d="M45 -158l75 426h59l-75 -426h-59zM219 396q0 -20 -14.5 -34.5t-34.5 -14.5t-35 14.5t-15 34.5t15 35t35 15t34.5 -15t14.5 -35z" />
    <glyph glyph-name="cent" unicode="&#xa2;" horiz-adv-x="442" 
d="M315 390l-61 -347q76 2 139 46l-12 -66q-51 -33 -133 -33h-3l-15 -85h-50l16 90q-71 16 -112 69t-41 126q0 120 68.5 187t163.5 69l15 82h50l-15 -85q59 -9 99 -45l-12 -62q-42 42 -97 54zM205 48l61 344q-70 -5 -116 -56t-46 -146q0 -51 26.5 -90t74.5 -52z" />
    <glyph glyph-name="sterling" unicode="&#xa3;" horiz-adv-x="453" 
d="M138 259h-81l9 52h81l19 112q16 91 63.5 136t116.5 45q83 0 124 -50l-13 -65q-41 59 -111 59q-99 0 -122 -130l-18 -107h146l-9 -52h-146l-5 -28q-21 -128 -102 -177h311l-9 -54h-380l9 54q48 29 74 69t38 109z" />
    <glyph glyph-name="currency" unicode="&#xa4;" horiz-adv-x="577" 
d="M468 77l-60 68q-52 -37 -121 -37q-72 0 -121 41l-79 -70l-33 38l78 71q-28 44 -28 101q0 82 52 142l-61 69l41 36l61 -69q52 35 118 35q70 0 120 -42l81 72l34 -38l-81 -72q29 -44 29 -101q0 -81 -51 -140l63 -68zM290 154q64 0 109 47t45 116q0 61 -37 100t-95 39
q-64 0 -109 -47t-45 -116q0 -61 37 -100t95 -39z" />
    <glyph glyph-name="yen" unicode="&#xa5;" horiz-adv-x="494" 
d="M207 283l-128 311h64l110 -286l210 286h70l-238 -311h132l-8 -49h-149l-10 -62h148l-9 -49h-148l-21 -123h-56l21 123h-148l9 49h148l10 62h-147l8 49h132z" />
    <glyph glyph-name="brokenbar" unicode="&#xa6;" horiz-adv-x="257" 
d="M131 339l60 341h53l-60 -341h-53zM47 -138l60 341h53l-60 -341h-53z" />
    <glyph glyph-name="section" unicode="&#xa7;" horiz-adv-x="430" 
d="M391 561l-10 -56q-50 48 -112 48q-41 0 -63 -18t-22 -50q0 -49 87 -98q63 -36 94.5 -69.5t31.5 -85.5q0 -50 -37 -87.5t-91 -48.5q42 -40 42 -94q0 -52 -39 -85.5t-103 -33.5q-77 0 -122 43l10 56q50 -48 112 -48q41 0 63 18t22 50q0 49 -86 98q-63 36 -94.5 69.5
t-31.5 85.5q0 49 37 86.5t90 48.5q-42 42 -42 95q0 52 39 85.5t103 33.5q77 0 122 -43zM205 142l17 -10q51 2 84 30.5t33 67.5q0 34 -23 57t-82 58l-17 10q-50 -2 -83.5 -30.5t-33.5 -66.5q0 -35 23 -58t82 -58z" />
    <glyph glyph-name="dieresis" unicode="&#xa8;" horiz-adv-x="500" 
d="M171 527q-18 0 -31.5 13.5t-13.5 31.5q0 19 13.5 32t31.5 13q19 0 32 -13t13 -32q0 -18 -13 -31.5t-32 -13.5zM329 527q-18 0 -31.5 13.5t-13.5 31.5q0 19 13.5 32t31.5 13q19 0 32 -13t13 -32q0 -18 -13 -31.5t-32 -13.5z" />
    <glyph glyph-name="copyright" unicode="&#xa9;" horiz-adv-x="698" 
d="M348 -10q-125 0 -205.5 81.5t-80.5 203.5q0 138 93.5 233.5t230.5 95.5q125 0 205.5 -81.5t80.5 -203.5q0 -138 -93.5 -233.5t-230.5 -95.5zM348 27q121 0 202 82.5t81 209.5q0 109 -68.5 178.5t-176.5 69.5q-121 0 -202 -82.5t-81 -209.5q0 -109 68.5 -178.5
t176.5 -69.5zM506 445l-10 -59q-44 46 -105 46q-65 0 -102.5 -42t-37.5 -106q0 -55 31.5 -88.5t82.5 -33.5q66 0 113 37l-10 -62q-40 -27 -106 -27q-76 0 -122 46.5t-46 127.5q0 88 56.5 143.5t143.5 55.5q67 0 112 -38z" />
    <glyph glyph-name="ordfeminine" unicode="&#xaa;" horiz-adv-x="327" 
d="M103 525l9 53q46 26 107 26q53 0 83 -23.5t30 -66.5q0 -15 -4 -39l-39 -217q-48 -13 -100 -13q-66 0 -105 25t-39 76q0 56 47 83t123 27h56l3 20q3 19 3 31q0 23 -16.5 36.5t-45.5 13.5q-53 0 -112 -32zM262 412h-47q-116 0 -116 -63q0 -60 92 -60q23 0 50 5z" />
    <glyph glyph-name="guillemotleft" unicode="&#xab;" horiz-adv-x="448" 
d="M277 373l-146 -161l91 -155h-62l-95 157l145 159h67zM415 373l-146 -161l91 -155h-62l-95 157l145 159h67z" />
    <glyph glyph-name="uni00AD" unicode="&#xad;" horiz-adv-x="355" 
d="M76 232l10 54h215l-10 -54h-215z" />
    <glyph glyph-name="registered" unicode="&#xae;" horiz-adv-x="455" 
d="M268 604q78 0 128 -50.5t50 -125.5q0 -86 -58 -144.5t-144 -58.5q-78 0 -128 50.5t-50 125.5q0 86 58 144.5t144 58.5zM268 569q-69 0 -115.5 -48.5t-46.5 -119.5q0 -61 38.5 -101t99.5 -40q69 0 115.5 48.5t46.5 119.5q0 61 -38.5 101t-99.5 40zM231 383l-10 -58h-44
l32 182q30 6 53 6q34 0 53.5 -15.5t19.5 -44.5q0 -47 -43 -63l38 -65h-46l-33 58h-20zM246 471l-8 -50h14q37 0 37 28q0 24 -27 24q-8 0 -16 -2z" />
    <glyph glyph-name="macron" unicode="&#xaf;" horiz-adv-x="500" 
d="M139 537l9 50h213l-9 -50h-213z" />
    <glyph glyph-name="degree" unicode="&#xb0;" horiz-adv-x="286" 
d="M187 602q49 0 79.5 -30.5t30.5 -76.5q0 -52 -35 -87.5t-89 -35.5q-49 0 -79.5 30.5t-30.5 76.5q0 52 35 87.5t89 35.5zM187 559q-35 0 -56 -22.5t-21 -57.5q0 -27 17 -45.5t46 -18.5q35 0 56 22.5t21 57.5q0 27 -17 45.5t-46 18.5z" />
    <glyph glyph-name="plusminus" unicode="&#xb1;" horiz-adv-x="459" 
d="M218 316h-163l10 53h163l21 123h53l-21 -123h163l-10 -53h-163l-21 -123h-53zM16 96l10 53h379l-10 -53h-379z" />
    <glyph glyph-name="twosuperior" unicode="&#xb2;" horiz-adv-x="258" 
d="M110 312h145l-9 -49h-218l8 44q47 33 71.5 51.5t56 46t45.5 52t14 48.5q0 44 -46 44t-97 -41l10 56q43 35 101 35q45 0 68 -22t23 -62q0 -95 -172 -203z" />
    <glyph glyph-name="threesuperior" unicode="&#xb3;" horiz-adv-x="243" 
d="M78 516l9 52q36 31 90 31q42 0 64.5 -20.5t22.5 -56.5q0 -37 -23.5 -61t-59.5 -31q62 -16 62 -73q0 -45 -34 -72.5t-87 -27.5q-58 0 -91 29l9 49q37 -32 80 -32q30 0 49 14.5t19 39.5q0 45 -74 51l7 42q86 7 86 64q0 37 -42 37q-40 0 -87 -35z" />
    <glyph glyph-name="acute" unicode="&#xb4;" horiz-adv-x="500" 
d="M225 513h-62l107 152h67z" />
    <glyph glyph-name="mu" unicode="&#xb5;" horiz-adv-x="479" 
d="M91 35l-38 -215h-60l109 616h59l-49 -282q-3 -16 -3 -27q0 -86 121 -86q54 0 98 11l67 384h59l-75 -426q-88 -20 -149 -20q-104 0 -139 45z" />
    <glyph glyph-name="paragraph" unicode="&#xb6;" horiz-adv-x="496" 
d="M308 -106l123 700h59l-123 -700h-59zM178 -106l65 372q-71 2 -123.5 41.5t-52.5 107.5q0 88 67 133.5t167 45.5h59l-123 -700h-59z" />
    <glyph glyph-name="periodcentered" unicode="&#xb7;" horiz-adv-x="239" 
d="M83 259q0 20 14.5 34.5t34.5 14.5t35 -14.5t15 -34.5t-15 -35t-35 -15t-34.5 15t-14.5 35z" />
    <glyph glyph-name="cedilla" unicode="&#xb8;" horiz-adv-x="500" 
d="M270 16h54q-4 -46 -30 -92.5t-58 -69.5h-61q88 81 95 162z" />
    <glyph glyph-name="onesuperior" unicode="&#xb9;" horiz-adv-x="192" 
d="M72 528l10 51l123 20l-59 -336h-55l49 275z" />
    <glyph glyph-name="ordmasculine" unicode="&#xba;" horiz-adv-x="406" 
d="M224 245q-72 0 -115.5 44.5t-43.5 117.5q0 81 51.5 138t135.5 57q72 0 115.5 -44.5t43.5 -117.5q0 -81 -51.5 -138t-135.5 -57zM224 293q58 0 94.5 41t36.5 106q0 50 -28 82t-75 32q-58 0 -94.5 -41t-36.5 -106q0 -50 28 -82t75 -32z" />
    <glyph glyph-name="guillemotright" unicode="&#xbb;" horiz-adv-x="448" 
d="M41 57l146 161l-91 155h62l95 -157l-145 -159h-67zM179 57l146 161l-91 155h62l95 -157l-145 -159h-67z" />
    <glyph glyph-name="onequarter" unicode="&#xbc;" horiz-adv-x="669" 
d="M82 528l10 51l123 20l-59 -336h-55l49 275zM585 331l-36 -202h55l-8 -44h-55l-15 -85h-52l15 85h-160l8 45l192 201h56zM521 268l-131 -139h107zM60 0l441 594h60l-441 -594h-60z" />
    <glyph glyph-name="onehalf" unicode="&#xbd;" horiz-adv-x="679" 
d="M82 528l10 51l123 20l-59 -336h-55l49 275zM452 49h145l-9 -49h-218l8 44q47 33 71.5 51.5t56 46t45.5 52t14 48.5q0 44 -46 44t-97 -41l10 56q43 35 101 35q45 0 68 -22t23 -62q0 -95 -172 -203zM60 0l441 594h60l-441 -594h-60z" />
    <glyph glyph-name="threequarters" unicode="&#xbe;" horiz-adv-x="729" 
d="M97 516l9 52q36 31 90 31q42 0 64.5 -20.5t22.5 -56.5q0 -37 -23.5 -61t-59.5 -31q62 -16 62 -73q0 -45 -34 -72.5t-87 -27.5q-58 0 -91 29l9 49q37 -32 80 -32q30 0 49 14.5t19 39.5q0 45 -74 51l7 42q86 7 86 64q0 37 -42 37q-40 0 -87 -35zM645 331l-36 -202h55
l-8 -44h-55l-15 -85h-52l15 85h-160l8 45l192 201h56zM581 268l-131 -139h107zM120 0l441 594h60l-441 -594h-60z" />
    <glyph glyph-name="questiondown" unicode="&#xbf;" horiz-adv-x="403" 
d="M339 -36l-13 -73q-63 -58 -151 -58q-75 0 -116 39.5t-41 106.5q0 44 17 79.5t48.5 59.5t64 40t76.5 30l14 80h59l-21 -113q-95 -30 -146 -68t-51 -108q0 -41 27.5 -66t71.5 -25q83 0 161 76zM332 396q0 -20 -14.5 -34.5t-34.5 -14.5t-35 14.5t-15 34.5t15 35t35 15
t34.5 -15t14.5 -35z" />
    <glyph glyph-name="Agrave" unicode="&#xc0;" horiz-adv-x="562" 
d="M459 0l-34 164h-288l-92 -164h-65l336 594h81l125 -594h-63zM349 543l-183 -327h249zM386 647h-53l-50 131h58z" />
    <glyph glyph-name="Aacute" unicode="&#xc1;" horiz-adv-x="562" 
d="M459 0l-34 164h-288l-92 -164h-65l336 594h81l125 -594h-63zM349 543l-183 -327h249zM394 647h-62l92 131h67z" />
    <glyph glyph-name="Acircumflex" unicode="&#xc2;" horiz-adv-x="562" 
d="M459 0l-34 164h-288l-92 -164h-65l336 594h81l125 -594h-63zM349 543l-183 -327h249zM399 774l90 -133h-61l-53 78l-81 -78h-67l138 133h34z" />
    <glyph glyph-name="Atilde" unicode="&#xc3;" horiz-adv-x="562" 
d="M459 0l-34 164h-288l-92 -164h-65l336 594h81l125 -594h-63zM349 543l-183 -327h249zM476 756h47q-10 -56 -34.5 -86.5t-61.5 -30.5q-21 0 -41.5 17t-38 34t-30.5 17q-34 0 -46 -66h-47q10 56 35 86.5t62 30.5q21 0 41.5 -17t38 -34t30.5 -17q34 0 45 66z" />
    <glyph glyph-name="Adieresis" unicode="&#xc4;" horiz-adv-x="562" 
d="M459 0l-34 164h-288l-92 -164h-65l336 594h81l125 -594h-63zM349 543l-183 -327h249zM288 641q-18 0 -31.5 13.5t-13.5 31.5q0 19 13.5 32t31.5 13q19 0 32 -13t13 -32q0 -18 -13 -31.5t-32 -13.5zM446 641q-18 0 -31.5 13.5t-13.5 31.5q0 19 13.5 32t31.5 13
q19 0 32 -13t13 -32q0 -18 -13 -31.5t-32 -13.5z" />
    <glyph glyph-name="Aring" unicode="&#xc5;" horiz-adv-x="562" 
d="M459 0l-34 164h-288l-92 -164h-65l336 594h81l125 -594h-63zM349 543l-183 -327h249zM372 634q-35 0 -57 22t-22 56q0 38 26 62t64 24q36 0 57.5 -22t21.5 -56q0 -38 -26 -62t-64 -24zM374 672q21 0 34.5 12.5t13.5 35.5q0 16 -10.5 28t-30.5 12q-21 0 -34.5 -12.5
t-13.5 -35.5q0 -16 10.5 -28t30.5 -12z" />
    <glyph glyph-name="AE" unicode="&#xc6;" horiz-adv-x="830" 
d="M749 0h-344l29 164h-248l-135 -164h-71l491 594h378l-9 -54h-279l-37 -210h261l-10 -55h-261l-39 -221h283zM501 545l-272 -329h214z" />
    <glyph glyph-name="Ccedilla" unicode="&#xc7;" horiz-adv-x="570" 
d="M259 -146h-61q74 67 91 139q-103 15 -164 87t-61 185q0 153 92 246t236 93q111 0 185 -62l-12 -68q-71 74 -173 74q-124 0 -195 -78.5t-71 -204.5q0 -103 60.5 -161t153.5 -58q108 0 187 62l-13 -73q-67 -43 -171 -45q-9 -41 -33 -79t-51 -57z" />
    <glyph glyph-name="Egrave" unicode="&#xc8;" horiz-adv-x="480" 
d="M125 54h283l-9 -54h-344l104 594h340l-9 -54h-279l-37 -210h261l-10 -55h-261zM368 647h-53l-50 131h58z" />
    <glyph glyph-name="Eacute" unicode="&#xc9;" horiz-adv-x="480" 
d="M125 54h283l-9 -54h-344l104 594h340l-9 -54h-279l-37 -210h261l-10 -55h-261zM377 647h-62l92 131h67z" />
    <glyph glyph-name="Ecircumflex" unicode="&#xca;" horiz-adv-x="480" 
d="M125 54h283l-9 -54h-344l104 594h340l-9 -54h-279l-37 -210h261l-10 -55h-261zM382 774l90 -133h-61l-53 78l-81 -78h-67l138 133h34z" />
    <glyph glyph-name="Edieresis" unicode="&#xcb;" horiz-adv-x="480" 
d="M125 54h283l-9 -54h-344l104 594h340l-9 -54h-279l-37 -210h261l-10 -55h-261zM275 641q-18 0 -31.5 13.5t-13.5 31.5q0 19 13.5 32t31.5 13q19 0 32 -13t13 -32q0 -18 -13 -31.5t-32 -13.5zM433 641q-18 0 -31.5 13.5t-13.5 31.5q0 19 13.5 32t31.5 13q19 0 32 -13
t13 -32q0 -18 -13 -31.5t-32 -13.5z" />
    <glyph glyph-name="Igrave" unicode="&#xcc;" horiz-adv-x="232" 
d="M220 594l-104 -594h-61l104 594h61zM220 647h-53l-50 131h58z" />
    <glyph glyph-name="Iacute" unicode="&#xcd;" horiz-adv-x="232" 
d="M220 594l-104 -594h-61l104 594h61zM229 647h-62l92 131h67z" />
    <glyph glyph-name="Icircumflex" unicode="&#xce;" horiz-adv-x="232" 
d="M220 594l-104 -594h-61l104 594h61zM234 774l90 -133h-61l-53 78l-81 -78h-67l138 133h34z" />
    <glyph glyph-name="Idieresis" unicode="&#xcf;" horiz-adv-x="232" 
d="M220 594l-104 -594h-61l104 594h61zM127 641q-18 0 -31.5 13.5t-13.5 31.5q0 19 13.5 32t31.5 13q19 0 32 -13t13 -32q0 -18 -13 -31.5t-32 -13.5zM285 641q-18 0 -31.5 13.5t-13.5 31.5q0 19 13.5 32t31.5 13q19 0 32 -13t13 -32q0 -18 -13 -31.5t-32 -13.5z" />
    <glyph glyph-name="Eth" unicode="&#xd0;" horiz-adv-x="623" 
d="M110 276h-60l9 54h60l47 266q61 8 121 8q140 0 225 -69.5t85 -201.5q0 -88 -30.5 -155.5t-84.5 -107.5t-122 -60t-147 -20q-95 0 -150 20zM170 276l-39 -223q32 -9 82 -9q147 0 234.5 70.5t87.5 218.5q0 104 -68.5 160.5t-179.5 56.5q-33 0 -69 -3l-38 -217h133l-9 -54
h-134z" />
    <glyph glyph-name="Ntilde" unicode="&#xd1;" horiz-adv-x="646" 
d="M222 594l264 -511l89 511h59l-104 -594h-60l-266 511l-90 -511h-59l104 594h63zM518 756h47q-10 -56 -34.5 -86.5t-61.5 -30.5q-21 0 -41.5 17t-38 34t-30.5 17q-34 0 -46 -66h-47q10 56 35 86.5t62 30.5q21 0 41.5 -17t38 -34t30.5 -17q34 0 45 66z" />
    <glyph glyph-name="Ograve" unicode="&#xd2;" horiz-adv-x="681" 
d="M336 -10q-123 0 -197.5 75.5t-74.5 199.5q0 143 88 241t231 98q123 0 197.5 -75.5t74.5 -199.5q0 -143 -88 -241t-231 -98zM336 46q116 0 186.5 80.5t70.5 202.5q0 97 -56.5 158t-153.5 61q-116 0 -186.5 -80.5t-70.5 -202.5q0 -97 56.5 -158t153.5 -61zM432 647h-53
l-50 131h58z" />
    <glyph glyph-name="Oacute" unicode="&#xd3;" horiz-adv-x="681" 
d="M336 -10q-123 0 -197.5 75.5t-74.5 199.5q0 143 88 241t231 98q123 0 197.5 -75.5t74.5 -199.5q0 -143 -88 -241t-231 -98zM336 46q116 0 186.5 80.5t70.5 202.5q0 97 -56.5 158t-153.5 61q-116 0 -186.5 -80.5t-70.5 -202.5q0 -97 56.5 -158t153.5 -61zM441 647h-62
l92 131h67z" />
    <glyph glyph-name="Ocircumflex" unicode="&#xd4;" horiz-adv-x="681" 
d="M336 -10q-123 0 -197.5 75.5t-74.5 199.5q0 143 88 241t231 98q123 0 197.5 -75.5t74.5 -199.5q0 -143 -88 -241t-231 -98zM336 46q116 0 186.5 80.5t70.5 202.5q0 97 -56.5 158t-153.5 61q-116 0 -186.5 -80.5t-70.5 -202.5q0 -97 56.5 -158t153.5 -61zM446 774l90 -133
h-61l-53 78l-81 -78h-67l138 133h34z" />
    <glyph glyph-name="Otilde" unicode="&#xd5;" horiz-adv-x="681" 
d="M336 -10q-123 0 -197.5 75.5t-74.5 199.5q0 143 88 241t231 98q123 0 197.5 -75.5t74.5 -199.5q0 -143 -88 -241t-231 -98zM336 46q116 0 186.5 80.5t70.5 202.5q0 97 -56.5 158t-153.5 61q-116 0 -186.5 -80.5t-70.5 -202.5q0 -97 56.5 -158t153.5 -61zM523 756h47
q-10 -56 -34.5 -86.5t-61.5 -30.5q-21 0 -41.5 17t-38 34t-30.5 17q-34 0 -46 -66h-47q10 56 35 86.5t62 30.5q21 0 41.5 -17t38 -34t30.5 -17q34 0 45 66z" />
    <glyph glyph-name="Odieresis" unicode="&#xd6;" horiz-adv-x="681" 
d="M336 -10q-123 0 -197.5 75.5t-74.5 199.5q0 143 88 241t231 98q123 0 197.5 -75.5t74.5 -199.5q0 -143 -88 -241t-231 -98zM336 46q116 0 186.5 80.5t70.5 202.5q0 97 -56.5 158t-153.5 61q-116 0 -186.5 -80.5t-70.5 -202.5q0 -97 56.5 -158t153.5 -61zM339 641
q-18 0 -31.5 13.5t-13.5 31.5q0 19 13.5 32t31.5 13q19 0 32 -13t13 -32q0 -18 -13 -31.5t-32 -13.5zM497 641q-18 0 -31.5 13.5t-13.5 31.5q0 19 13.5 32t31.5 13q19 0 32 -13t13 -32q0 -18 -13 -31.5t-32 -13.5z" />
    <glyph glyph-name="multiply" unicode="&#xd7;" horiz-adv-x="393" 
d="M172 291l-98 119l42 36l97 -120l140 120l31 -38l-140 -119l98 -119l-41 -35l-98 118l-139 -118l-32 37z" />
    <glyph glyph-name="Oslash" unicode="&#xd8;" horiz-adv-x="691" 
d="M670 594l-73 -79q63 -74 63 -186q0 -143 -88 -241t-231 -98q-104 0 -175 55l-42 -45h-65l72 79q-62 73 -62 186q0 143 88 241t231 98q103 0 174 -55l42 45h66zM173 124l349 381q-56 43 -134 43q-116 0 -186.5 -80.5t-70.5 -202.5q0 -85 42 -141zM556 469l-350 -380
q56 -43 135 -43q116 0 186.5 80.5t70.5 202.5q0 82 -42 140z" />
    <glyph glyph-name="Ugrave" unicode="&#xd9;" horiz-adv-x="593" 
d="M70 205l68 389h61l-68 -389q-4 -21 -4 -49q0 -112 165 -112q70 0 134 18l94 532h61l-101 -574q-95 -30 -188 -30q-227 0 -227 160q0 28 5 55zM391 647h-53l-50 131h58z" />
    <glyph glyph-name="Uacute" unicode="&#xda;" horiz-adv-x="593" 
d="M70 205l68 389h61l-68 -389q-4 -21 -4 -49q0 -112 165 -112q70 0 134 18l94 532h61l-101 -574q-95 -30 -188 -30q-227 0 -227 160q0 28 5 55zM399 647h-62l92 131h67z" />
    <glyph glyph-name="Ucircumflex" unicode="&#xdb;" horiz-adv-x="593" 
d="M70 205l68 389h61l-68 -389q-4 -21 -4 -49q0 -112 165 -112q70 0 134 18l94 532h61l-101 -574q-95 -30 -188 -30q-227 0 -227 160q0 28 5 55zM405 774l90 -133h-61l-53 78l-81 -78h-67l138 133h34z" />
    <glyph glyph-name="Udieresis" unicode="&#xdc;" horiz-adv-x="593" 
d="M70 205l68 389h61l-68 -389q-4 -21 -4 -49q0 -112 165 -112q70 0 134 18l94 532h61l-101 -574q-95 -30 -188 -30q-227 0 -227 160q0 28 5 55zM297 641q-18 0 -31.5 13.5t-13.5 31.5q0 19 13.5 32t31.5 13q19 0 32 -13t13 -32q0 -18 -13 -31.5t-32 -13.5zM455 641
q-18 0 -31.5 13.5t-13.5 31.5q0 19 13.5 32t31.5 13q19 0 32 -13t13 -32q0 -18 -13 -31.5t-32 -13.5z" />
    <glyph glyph-name="Yacute" unicode="&#xdd;" horiz-adv-x="515" 
d="M275 293l232 301h70l-279 -357l-41 -237h-62l42 237l-154 357h66zM369 647h-62l92 131h67z" />
    <glyph glyph-name="Thorn" unicode="&#xde;" horiz-adv-x="455" 
d="M136 116l-20 -116h-61l105 594h61l-18 -101q22 2 35 2q103 0 158 -47.5t55 -131.5q0 -103 -69.5 -154t-178.5 -51q-39 0 -67 5zM194 440l-49 -274q18 -3 58 -3q84 0 134.5 37t50.5 116q0 59 -41.5 92.5t-108.5 33.5q-16 0 -44 -2z" />
    <glyph glyph-name="germandbls" unicode="&#xdf;" horiz-adv-x="517" 
d="M39 0l90 514q14 83 62 129.5t120 46.5q71 0 110.5 -38t39.5 -95q0 -34 -18.5 -63.5t-40 -46.5t-40 -39.5t-18.5 -44.5q0 -24 20.5 -49t45 -44.5t45 -53t20.5 -71.5q0 -70 -47 -112.5t-116 -42.5q-84 0 -125 53l10 59q54 -63 115 -63q49 0 77 28.5t28 77.5
q0 24 -13.5 46.5t-33 40t-39 36t-33 43t-13.5 52.5q0 29 18.5 56t41 44.5t41 42.5t18.5 51q0 36 -25 59.5t-68 23.5q-101 0 -124 -133l-88 -507h-60z" />
    <glyph glyph-name="agrave" unicode="&#xe0;" horiz-adv-x="429" 
d="M105 354l10 59q58 33 135 33q60 0 97 -27t37 -79q0 -16 -3 -35l-52 -297q-61 -16 -117 -16q-84 0 -133 31.5t-49 96.5q0 69 59.5 100.5t154.5 31.5h70l9 53q2 14 2 26q0 29 -21 46t-58 17q-68 0 -141 -40zM305 203h-61q-73 0 -114 -17.5t-41 -65.5q0 -40 33.5 -60
t89.5 -20q32 0 65 6zM297 513h-53l-58 152h58z" />
    <glyph glyph-name="aacute" unicode="&#xe1;" horiz-adv-x="429" 
d="M105 354l10 59q58 33 135 33q60 0 97 -27t37 -79q0 -16 -3 -35l-52 -297q-61 -16 -117 -16q-84 0 -133 31.5t-49 96.5q0 69 59.5 100.5t154.5 31.5h70l9 53q2 14 2 26q0 29 -21 46t-58 17q-68 0 -141 -40zM305 203h-61q-73 0 -114 -17.5t-41 -65.5q0 -40 33.5 -60
t89.5 -20q32 0 65 6zM300 513h-62l107 152h67z" />
    <glyph glyph-name="acircumflex" unicode="&#xe2;" horiz-adv-x="429" 
d="M105 354l10 59q58 33 135 33q60 0 97 -27t37 -79q0 -16 -3 -35l-52 -297q-61 -16 -117 -16q-84 0 -133 31.5t-49 96.5q0 69 59.5 100.5t154.5 31.5h70l9 53q2 14 2 26q0 29 -21 46t-58 17q-68 0 -141 -40zM305 203h-61q-73 0 -114 -17.5t-41 -65.5q0 -40 33.5 -60
t89.5 -20q32 0 65 6zM308 655l89 -142h-61l-52 87l-82 -87h-67l139 142h34z" />
    <glyph glyph-name="atilde" unicode="&#xe3;" horiz-adv-x="429" 
d="M105 354l10 59q58 33 135 33q60 0 97 -27t37 -79q0 -16 -3 -35l-52 -297q-61 -16 -117 -16q-84 0 -133 31.5t-49 96.5q0 69 59.5 100.5t154.5 31.5h70l9 53q2 14 2 26q0 29 -21 46t-58 17q-68 0 -141 -40zM305 203h-61q-73 0 -114 -17.5t-41 -65.5q0 -40 33.5 -60
t89.5 -20q32 0 65 6zM382 628h47q-10 -56 -34.5 -86.5t-61.5 -30.5q-21 0 -41.5 17t-38 34t-30.5 17q-34 0 -46 -66h-47q10 56 35 86.5t62 30.5q21 0 41.5 -17t38 -34t30.5 -17q34 0 45 66z" />
    <glyph glyph-name="adieresis" unicode="&#xe4;" horiz-adv-x="429" 
d="M105 354l10 59q58 33 135 33q60 0 97 -27t37 -79q0 -16 -3 -35l-52 -297q-61 -16 -117 -16q-84 0 -133 31.5t-49 96.5q0 69 59.5 100.5t154.5 31.5h70l9 53q2 14 2 26q0 29 -21 46t-58 17q-68 0 -141 -40zM305 203h-61q-73 0 -114 -17.5t-41 -65.5q0 -40 33.5 -60
t89.5 -20q32 0 65 6zM201 527q-18 0 -31.5 13.5t-13.5 31.5q0 19 13.5 32t31.5 13q19 0 32 -13t13 -32q0 -18 -13 -31.5t-32 -13.5zM359 527q-18 0 -31.5 13.5t-13.5 31.5q0 19 13.5 32t31.5 13q19 0 32 -13t13 -32q0 -18 -13 -31.5t-32 -13.5z" />
    <glyph glyph-name="aring" unicode="&#xe5;" horiz-adv-x="429" 
d="M105 354l10 59q58 33 135 33q60 0 97 -27t37 -79q0 -16 -3 -35l-52 -297q-61 -16 -117 -16q-84 0 -133 31.5t-49 96.5q0 69 59.5 100.5t154.5 31.5h70l9 53q2 14 2 26q0 29 -21 46t-58 17q-68 0 -141 -40zM305 203h-61q-73 0 -114 -17.5t-41 -65.5q0 -40 33.5 -60
t89.5 -20q32 0 65 6zM280 497q-35 0 -57 22t-22 56q0 38 26 62t64 24q36 0 57.5 -22t21.5 -56q0 -38 -26 -62t-64 -24zM282 535q21 0 34.5 12.5t13.5 35.5q0 16 -10.5 28t-30.5 12q-21 0 -34.5 -12.5t-13.5 -35.5q0 -16 10.5 -28t30.5 -12z" />
    <glyph glyph-name="ae" unicode="&#xe6;" horiz-adv-x="730" 
d="M687 202h-324v-9q0 -69 39 -110.5t103 -41.5q80 0 154 48l-12 -62q-57 -37 -142 -37q-105 0 -160 73q-66 -71 -164 -71q-65 0 -108 32.5t-43 92.5q0 71 55 103t144 32h82q4 25 16 52q-2 38 -25.5 64t-62.5 26q-68 0 -138 -40l10 59q58 33 131 33q97 0 124 -76
q63 76 158 76q48 0 83 -16.5t53.5 -44t27 -58t8.5 -64.5q0 -38 -9 -61zM368 252h267q1 6 1 16q0 52 -28 90t-84 38t-99 -37t-57 -107zM305 202h-79q-65 0 -101 -17.5t-36 -67.5q0 -35 27.5 -56t64.5 -21q88 0 140 65q-16 38 -16 88v9z" />
    <glyph glyph-name="ccedilla" unicode="&#xe7;" horiz-adv-x="442" 
d="M393 89l-12 -66q-47 -31 -127 -33q-9 -41 -33 -79t-51 -57h-61q75 68 92 140q-73 14 -115.5 67.5t-42.5 128.5q0 122 70 189t167 67q90 0 144 -48l-12 -62q-57 57 -132 57t-125.5 -51.5t-50.5 -151.5q0 -62 38 -104.5t106 -42.5q79 0 145 46z" />
    <glyph glyph-name="egrave" unicode="&#xe8;" horiz-adv-x="478" 
d="M404 89l-12 -62q-57 -37 -142 -37q-95 0 -151 57t-56 146q0 108 64.5 180.5t166.5 72.5q89 0 129.5 -49t40.5 -121q0 -38 -9 -61h-332q-1 -8 -1 -22q0 -70 40 -111t108 -41q80 0 154 48zM111 265h273q1 7 1 15q0 51 -28.5 83.5t-83.5 32.5q-58 0 -101 -35t-61 -96z
M322 513h-53l-58 152h58z" />
    <glyph glyph-name="eacute" unicode="&#xe9;" horiz-adv-x="478" 
d="M404 89l-12 -62q-57 -37 -142 -37q-95 0 -151 57t-56 146q0 108 64.5 180.5t166.5 72.5q89 0 129.5 -49t40.5 -121q0 -38 -9 -61h-332q-1 -8 -1 -22q0 -70 40 -111t108 -41q80 0 154 48zM111 265h273q1 7 1 15q0 51 -28.5 83.5t-83.5 32.5q-58 0 -101 -35t-61 -96z
M326 513h-62l107 152h67z" />
    <glyph glyph-name="ecircumflex" unicode="&#xea;" horiz-adv-x="478" 
d="M404 89l-12 -62q-57 -37 -142 -37q-95 0 -151 57t-56 146q0 108 64.5 180.5t166.5 72.5q89 0 129.5 -49t40.5 -121q0 -38 -9 -61h-332q-1 -8 -1 -22q0 -70 40 -111t108 -41q80 0 154 48zM111 265h273q1 7 1 15q0 51 -28.5 83.5t-83.5 32.5q-58 0 -101 -35t-61 -96z
M338 655l89 -142h-61l-52 87l-82 -87h-67l139 142h34z" />
    <glyph glyph-name="edieresis" unicode="&#xeb;" horiz-adv-x="478" 
d="M404 89l-12 -62q-57 -37 -142 -37q-95 0 -151 57t-56 146q0 108 64.5 180.5t166.5 72.5q89 0 129.5 -49t40.5 -121q0 -38 -9 -61h-332q-1 -8 -1 -22q0 -70 40 -111t108 -41q80 0 154 48zM111 265h273q1 7 1 15q0 51 -28.5 83.5t-83.5 32.5q-58 0 -101 -35t-61 -96z
M224 527q-18 0 -31.5 13.5t-13.5 31.5q0 19 13.5 32t31.5 13q19 0 32 -13t13 -32q0 -18 -13 -31.5t-32 -13.5zM382 527q-18 0 -31.5 13.5t-13.5 31.5q0 19 13.5 32t31.5 13q19 0 32 -13t13 -32q0 -18 -13 -31.5t-32 -13.5z" />
    <glyph glyph-name="igrave" unicode="&#xec;" horiz-adv-x="210" 
d="M175 436l-77 -436h-59l77 436h59zM182 513h-53l-58 152h58z" />
    <glyph glyph-name="iacute" unicode="&#xed;" horiz-adv-x="210" 
d="M175 436l-77 -436h-59l77 436h59zM186 513h-62l107 152h67z" />
    <glyph glyph-name="icircumflex" unicode="&#xee;" horiz-adv-x="210" 
d="M175 436l-77 -436h-59l77 436h59zM198 655l89 -142h-61l-52 87l-82 -87h-67l139 142h34z" />
    <glyph glyph-name="idieresis" unicode="&#xef;" horiz-adv-x="210" 
d="M175 436l-77 -436h-59l77 436h59zM90 527q-18 0 -31.5 13.5t-13.5 31.5q0 19 13.5 32t31.5 13q19 0 32 -13t13 -32q0 -18 -13 -31.5t-32 -13.5zM248 527q-18 0 -31.5 13.5t-13.5 31.5q0 19 13.5 32t31.5 13q19 0 32 -13t13 -32q0 -18 -13 -31.5t-32 -13.5z" />
    <glyph glyph-name="eth" unicode="&#xf0;" horiz-adv-x="524" 
d="M328 526l-162 -43v47l129 34q-53 56 -137 116h79q66 -46 115 -100l113 30v-47l-81 -22q98 -128 98 -292q0 -113 -65 -186t-172 -73q-91 0 -146.5 56t-55.5 148q0 107 65 179.5t172 72.5q41 0 76 -17.5t53 -45.5q-23 74 -81 143zM245 40q78 0 127 56.5t49 145.5
q0 67 -38.5 110.5t-102.5 43.5q-78 0 -127 -56.5t-49 -145.5q0 -67 38.5 -110.5t102.5 -43.5z" />
    <glyph glyph-name="ntilde" unicode="&#xf1;" horiz-adv-x="507" 
d="M398 0h-59l48 265q5 25 5 54q0 40 -26 56t-74 16q-56 0 -129 -20l-65 -371h-59l72 410q106 36 187 36q154 0 154 -116q0 -28 -6 -63zM413 628h47q-10 -56 -34.5 -86.5t-61.5 -30.5q-21 0 -41.5 17t-38 34t-30.5 17q-34 0 -46 -66h-47q10 56 35 86.5t62 30.5
q21 0 41.5 -17t38 -34t30.5 -17q34 0 45 66z" />
    <glyph glyph-name="ograve" unicode="&#xf2;" horiz-adv-x="524" 
d="M245 -10q-91 0 -146.5 56t-55.5 148q0 107 65 179.5t172 72.5q91 0 146.5 -56t55.5 -148q0 -107 -65 -179.5t-172 -72.5zM245 40q78 0 127 56.5t49 145.5q0 67 -38.5 110.5t-102.5 43.5q-78 0 -127 -56.5t-49 -145.5q0 -67 38.5 -110.5t102.5 -43.5zM333 513h-53l-58 152
h58z" />
    <glyph glyph-name="oacute" unicode="&#xf3;" horiz-adv-x="524" 
d="M245 -10q-91 0 -146.5 56t-55.5 148q0 107 65 179.5t172 72.5q91 0 146.5 -56t55.5 -148q0 -107 -65 -179.5t-172 -72.5zM245 40q78 0 127 56.5t49 145.5q0 67 -38.5 110.5t-102.5 43.5q-78 0 -127 -56.5t-49 -145.5q0 -67 38.5 -110.5t102.5 -43.5zM333 513h-62l107 152
h67z" />
    <glyph glyph-name="ocircumflex" unicode="&#xf4;" horiz-adv-x="524" 
d="M245 -10q-91 0 -146.5 56t-55.5 148q0 107 65 179.5t172 72.5q91 0 146.5 -56t55.5 -148q0 -107 -65 -179.5t-172 -72.5zM245 40q78 0 127 56.5t49 145.5q0 67 -38.5 110.5t-102.5 43.5q-78 0 -127 -56.5t-49 -145.5q0 -67 38.5 -110.5t102.5 -43.5zM342 655l89 -142h-61
l-52 87l-82 -87h-67l139 142h34z" />
    <glyph glyph-name="otilde" unicode="&#xf5;" horiz-adv-x="524" 
d="M245 -10q-91 0 -146.5 56t-55.5 148q0 107 65 179.5t172 72.5q91 0 146.5 -56t55.5 -148q0 -107 -65 -179.5t-172 -72.5zM245 40q78 0 127 56.5t49 145.5q0 67 -38.5 110.5t-102.5 43.5q-78 0 -127 -56.5t-49 -145.5q0 -67 38.5 -110.5t102.5 -43.5zM413 628h47
q-10 -56 -34.5 -86.5t-61.5 -30.5q-21 0 -41.5 17t-38 34t-30.5 17q-34 0 -46 -66h-47q10 56 35 86.5t62 30.5q21 0 41.5 -17t38 -34t30.5 -17q34 0 45 66z" />
    <glyph glyph-name="odieresis" unicode="&#xf6;" horiz-adv-x="524" 
d="M245 -10q-91 0 -146.5 56t-55.5 148q0 107 65 179.5t172 72.5q91 0 146.5 -56t55.5 -148q0 -107 -65 -179.5t-172 -72.5zM245 40q78 0 127 56.5t49 145.5q0 67 -38.5 110.5t-102.5 43.5q-78 0 -127 -56.5t-49 -145.5q0 -67 38.5 -110.5t102.5 -43.5zM234 527
q-18 0 -31.5 13.5t-13.5 31.5q0 19 13.5 32t31.5 13q19 0 32 -13t13 -32q0 -18 -13 -31.5t-32 -13.5zM392 527q-18 0 -31.5 13.5t-13.5 31.5q0 19 13.5 32t31.5 13q19 0 32 -13t13 -32q0 -18 -13 -31.5t-32 -13.5z" />
    <glyph glyph-name="divide" unicode="&#xf7;" horiz-adv-x="459" 
d="M46 266l10 53h379l-10 -53h-379zM165 147q0 20 14.5 34.5t34.5 14.5t35 -14.5t15 -34.5t-15 -35t-35 -15t-34.5 15t-14.5 35zM216 439q0 20 14.5 34.5t34.5 14.5t35 -14.5t15 -34.5t-15 -35t-35 -15t-34.5 15t-14.5 35z" />
    <glyph glyph-name="oslash" unicode="&#xf8;" horiz-adv-x="524" 
d="M512 446l-71 -74q41 -54 41 -130q0 -107 -65 -179.5t-172 -72.5q-78 0 -131 42l-40 -42h-61l70 73q-40 52 -40 131q0 107 65 179.5t172 72.5q77 0 130 -42l40 42h62zM401 330l-250 -259q36 -31 94 -31q78 0 127.5 56.5t49.5 145.5q0 48 -21 88zM123 105l250 260
q-36 31 -93 31q-78 0 -127.5 -56.5t-49.5 -145.5q0 -51 20 -89z" />
    <glyph glyph-name="ugrave" unicode="&#xf9;" horiz-adv-x="479" 
d="M98 436h59l-49 -282q-3 -16 -3 -27q0 -86 121 -86q54 0 98 11l67 384h59l-75 -426q-88 -20 -154 -20q-82 0 -129 30.5t-47 90.5q0 21 5 51zM313 513h-53l-58 152h58z" />
    <glyph glyph-name="uacute" unicode="&#xfa;" horiz-adv-x="479" 
d="M98 436h59l-49 -282q-3 -16 -3 -27q0 -86 121 -86q54 0 98 11l67 384h59l-75 -426q-88 -20 -154 -20q-82 0 -129 30.5t-47 90.5q0 21 5 51zM317 513h-62l107 152h67z" />
    <glyph glyph-name="ucircumflex" unicode="&#xfb;" horiz-adv-x="479" 
d="M98 436h59l-49 -282q-3 -16 -3 -27q0 -86 121 -86q54 0 98 11l67 384h59l-75 -426q-88 -20 -154 -20q-82 0 -129 30.5t-47 90.5q0 21 5 51zM329 655l89 -142h-61l-52 87l-82 -87h-67l139 142h34z" />
    <glyph glyph-name="udieresis" unicode="&#xfc;" horiz-adv-x="479" 
d="M98 436h59l-49 -282q-3 -16 -3 -27q0 -86 121 -86q54 0 98 11l67 384h59l-75 -426q-88 -20 -154 -20q-82 0 -129 30.5t-47 90.5q0 21 5 51zM212 527q-18 0 -31.5 13.5t-13.5 31.5q0 19 13.5 32t31.5 13q19 0 32 -13t13 -32q0 -18 -13 -31.5t-32 -13.5zM370 527
q-18 0 -31.5 13.5t-13.5 31.5q0 19 13.5 32t31.5 13q19 0 32 -13t13 -32q0 -18 -13 -31.5t-32 -13.5z" />
    <glyph glyph-name="yacute" unicode="&#xfd;" horiz-adv-x="428" 
d="M101 436l75 -398l224 398h63l-356 -616h-61l90 153l-92 463h57zM296 513h-62l107 152h67z" />
    <glyph glyph-name="thorn" unicode="&#xfe;" horiz-adv-x="514" 
d="M5 -180l152 860h59l-45 -256q44 22 103 22q89 0 144.5 -55.5t55.5 -147.5q0 -110 -69 -181.5t-187 -71.5q-77 0 -119 31l-35 -201h-59zM162 374l-53 -300q46 -33 109 -33q94 0 144.5 55t50.5 147q0 63 -39.5 108t-105.5 45q-59 0 -106 -22z" />
    <glyph glyph-name="ydieresis" unicode="&#xff;" horiz-adv-x="428" 
d="M101 436l75 -398l224 398h63l-356 -616h-61l90 153l-92 463h57zM200 527q-18 0 -31.5 13.5t-13.5 31.5q0 19 13.5 32t31.5 13q19 0 32 -13t13 -32q0 -18 -13 -31.5t-32 -13.5zM358 527q-18 0 -31.5 13.5t-13.5 31.5q0 19 13.5 32t31.5 13q19 0 32 -13t13 -32
q0 -18 -13 -31.5t-32 -13.5z" />
    <glyph glyph-name="Amacron" unicode="&#x100;" horiz-adv-x="562" 
d="M459 0l-34 164h-288l-92 -164h-65l336 594h81l125 -594h-63zM349 543l-183 -327h249zM260 658l9 50h213l-9 -50h-213z" />
    <glyph glyph-name="amacron" unicode="&#x101;" horiz-adv-x="429" 
d="M105 354l10 59q58 33 135 33q60 0 97 -27t37 -79q0 -16 -3 -35l-52 -297q-61 -16 -117 -16q-84 0 -133 31.5t-49 96.5q0 69 59.5 100.5t154.5 31.5h70l9 53q2 14 2 26q0 29 -21 46t-58 17q-68 0 -141 -40zM305 203h-61q-73 0 -114 -17.5t-41 -65.5q0 -40 33.5 -60
t89.5 -20q32 0 65 6zM165 537l9 50h213l-9 -50h-213z" />
    <glyph glyph-name="Abreve" unicode="&#x102;" horiz-adv-x="562" 
d="M459 0l-34 164h-288l-92 -164h-65l336 594h81l125 -594h-63zM349 543l-183 -327h249zM446 773h52q-24 -126 -132 -126q-44 0 -68.5 24t-24.5 65q0 21 4 37h51q-3 -15 -3 -33q0 -21 11.5 -34.5t32.5 -13.5q32 0 49.5 20.5t27.5 60.5z" />
    <glyph glyph-name="abreve" unicode="&#x103;" horiz-adv-x="429" 
d="M105 354l10 59q58 33 135 33q60 0 97 -27t37 -79q0 -16 -3 -35l-52 -297q-61 -16 -117 -16q-84 0 -133 31.5t-49 96.5q0 69 59.5 100.5t154.5 31.5h70l9 53q2 14 2 26q0 29 -21 46t-58 17q-68 0 -141 -40zM305 203h-61q-73 0 -114 -17.5t-41 -65.5q0 -40 33.5 -60
t89.5 -20q32 0 65 6zM352 638h52q-24 -130 -132 -130q-44 0 -68.5 25t-24.5 67q0 22 4 38h51q-3 -15 -3 -34q0 -22 11.5 -36t32.5 -14q32 0 49.5 21t27.5 63z" />
    <glyph glyph-name="Aogonek" unicode="&#x104;" horiz-adv-x="562" 
d="M454 20l-29 144h-288l-92 -164h-65l336 594h81l125 -594h-27q-95 -57 -95 -117q0 -26 30 -26q28 0 47 9l-8 -47q-24 -9 -53 -9q-32 0 -52 17.5t-20 47.5q0 81 110 145zM349 543l-183 -327h249z" />
    <glyph glyph-name="aogonek" unicode="&#x105;" horiz-adv-x="429" 
d="M105 354l10 59q58 33 135 33q60 0 97 -27t37 -79q0 -16 -3 -35l-52 -297q-100 -75 -100 -125q0 -26 30 -26q28 0 47 9l-8 -47q-24 -9 -53 -9q-32 0 -52 17t-20 47q0 62 81 120q-24 -2 -42 -2q-84 0 -133 31.5t-49 96.5q0 69 59.5 100.5t154.5 31.5h70l9 53q2 14 2 26
q0 29 -21 46t-58 17q-68 0 -141 -40zM305 203h-61q-73 0 -114 -17.5t-41 -65.5q0 -40 33.5 -60t89.5 -20q32 0 65 6z" />
    <glyph glyph-name="Cacute" unicode="&#x106;" horiz-adv-x="570" 
d="M577 542l-12 -68q-71 74 -173 74q-124 0 -195 -78.5t-71 -204.5q0 -103 60.5 -161t153.5 -58q108 0 187 62l-13 -73q-71 -45 -174 -45q-125 0 -200.5 74t-75.5 201q0 153 92 246t236 93q111 0 185 -62zM430 647h-62l92 131h67z" />
    <glyph glyph-name="cacute" unicode="&#x107;" horiz-adv-x="442" 
d="M393 89l-12 -66q-51 -33 -133 -33q-93 0 -149 56.5t-56 143.5q0 122 70 189t167 67q90 0 144 -48l-12 -62q-57 57 -132 57t-125.5 -51.5t-50.5 -151.5q0 -62 38 -104.5t106 -42.5q79 0 145 46zM334 513h-62l107 152h67z" />
    <glyph glyph-name="Ccircumflex" unicode="&#x108;" horiz-adv-x="570" 
d="M577 542l-12 -68q-71 74 -173 74q-124 0 -195 -78.5t-71 -204.5q0 -103 60.5 -161t153.5 -58q108 0 187 62l-13 -73q-71 -45 -174 -45q-125 0 -200.5 74t-75.5 201q0 153 92 246t236 93q111 0 185 -62zM435 774l90 -133h-61l-53 78l-81 -78h-67l138 133h34z" />
    <glyph glyph-name="ccircumflex" unicode="&#x109;" horiz-adv-x="442" 
d="M393 89l-12 -66q-51 -33 -133 -33q-93 0 -149 56.5t-56 143.5q0 122 70 189t167 67q90 0 144 -48l-12 -62q-57 57 -132 57t-125.5 -51.5t-50.5 -151.5q0 -62 38 -104.5t106 -42.5q79 0 145 46zM346 655l89 -142h-61l-52 87l-82 -87h-67l139 142h34z" />
    <glyph glyph-name="Cdotaccent" unicode="&#x10a;" horiz-adv-x="570" 
d="M577 542l-12 -68q-71 74 -173 74q-124 0 -195 -78.5t-71 -204.5q0 -103 60.5 -161t153.5 -58q108 0 187 62l-13 -73q-71 -45 -174 -45q-125 0 -200.5 74t-75.5 201q0 153 92 246t236 93q111 0 185 -62zM407 641q-18 0 -31.5 13.5t-13.5 31.5q0 19 13.5 32t31.5 13
q19 0 32 -13t13 -32q0 -18 -13 -31.5t-32 -13.5z" />
    <glyph glyph-name="cdotaccent" unicode="&#x10b;" horiz-adv-x="442" 
d="M393 89l-12 -66q-51 -33 -133 -33q-93 0 -149 56.5t-56 143.5q0 122 70 189t167 67q90 0 144 -48l-12 -62q-57 57 -132 57t-125.5 -51.5t-50.5 -151.5q0 -62 38 -104.5t106 -42.5q79 0 145 46zM317 527q-18 0 -31.5 13.5t-13.5 31.5q0 19 13.5 32t31.5 13q19 0 32 -13
t13 -32q0 -18 -13 -31.5t-32 -13.5z" />
    <glyph glyph-name="Ccaron" unicode="&#x10c;" horiz-adv-x="570" 
d="M577 542l-12 -68q-71 74 -173 74q-124 0 -195 -78.5t-71 -204.5q0 -103 60.5 -161t153.5 -58q108 0 187 62l-13 -73q-71 -45 -174 -45q-125 0 -200.5 74t-75.5 201q0 153 92 246t236 93q111 0 185 -62zM384 644l-90 133h61l53 -78l81 78h67l-138 -133h-34z" />
    <glyph glyph-name="ccaron" unicode="&#x10d;" horiz-adv-x="442" 
d="M393 89l-12 -66q-51 -33 -133 -33q-93 0 -149 56.5t-56 143.5q0 122 70 189t167 67q90 0 144 -48l-12 -62q-57 57 -132 57t-125.5 -51.5t-50.5 -151.5q0 -62 38 -104.5t106 -42.5q79 0 145 46zM290 503l-89 142h61l52 -87l82 87h67l-139 -142h-34z" />
    <glyph glyph-name="Dcaron" unicode="&#x10e;" horiz-adv-x="617" 
d="M57 10l103 586q61 8 121 8q140 0 225 -69.5t85 -201.5q0 -88 -30.5 -155.5t-84.5 -107.5t-122 -60t-147 -20q-95 0 -150 20zM212 547l-87 -494q32 -9 82 -9q147 0 234.5 70.5t87.5 218.5q0 104 -68.5 160.5t-179.5 56.5q-33 0 -69 -3zM340 644l-90 133h61l53 -78l81 78
h67l-138 -133h-34z" />
    <glyph glyph-name="dcaron" unicode="&#x10f;" horiz-adv-x="511" 
d="M519 680l-118 -668q-69 -22 -134 -22q-104 0 -165 55.5t-61 148.5q0 112 71 182t189 70q67 0 113 -27l46 261h59zM350 52l55 314q-41 28 -104 28q-93 0 -146 -53.5t-53 -145.5q0 -69 44 -112t121 -43q50 0 83 12zM659 680l-60 -148h-57l60 148h57z" />
    <glyph glyph-name="Dcroat" unicode="&#x110;" horiz-adv-x="623" 
d="M110 276h-60l9 54h60l47 266q61 8 121 8q140 0 225 -69.5t85 -201.5q0 -88 -30.5 -155.5t-84.5 -107.5t-122 -60t-147 -20q-95 0 -150 20zM170 276l-39 -223q32 -9 82 -9q147 0 234.5 70.5t87.5 218.5q0 104 -68.5 160.5t-179.5 56.5q-33 0 -69 -3l-38 -217h133l-9 -54
h-134z" />
    <glyph glyph-name="dcroat" unicode="&#x111;" horiz-adv-x="511" 
d="M433 526h-102l8 48h102l19 106h59l-19 -106h54l-8 -48h-54l-91 -514q-69 -22 -134 -22q-104 0 -165 55.5t-61 148.5q0 112 71 182t189 70q67 0 113 -27zM350 52l55 314q-41 28 -104 28q-93 0 -146 -53.5t-53 -145.5q0 -69 44 -112t121 -43q50 0 83 12z" />
    <glyph glyph-name="Emacron" unicode="&#x112;" horiz-adv-x="480" 
d="M125 54h283l-9 -54h-344l104 594h340l-9 -54h-279l-37 -210h261l-10 -55h-261zM242 658l9 50h213l-9 -50h-213z" />
    <glyph glyph-name="emacron" unicode="&#x113;" horiz-adv-x="478" 
d="M404 89l-12 -62q-57 -37 -142 -37q-95 0 -151 57t-56 146q0 108 64.5 180.5t166.5 72.5q89 0 129.5 -49t40.5 -121q0 -38 -9 -61h-332q-1 -8 -1 -22q0 -70 40 -111t108 -41q80 0 154 48zM111 265h273q1 7 1 15q0 51 -28.5 83.5t-83.5 32.5q-58 0 -101 -35t-61 -96z
M190 537l9 50h213l-9 -50h-213z" />
    <glyph glyph-name="Ebreve" unicode="&#x114;" horiz-adv-x="480" 
d="M125 54h283l-9 -54h-344l104 594h340l-9 -54h-279l-37 -210h261l-10 -55h-261zM431 773h52q-24 -126 -132 -126q-44 0 -68.5 24t-24.5 65q0 21 4 37h51q-3 -15 -3 -33q0 -21 11.5 -34.5t32.5 -13.5q32 0 49.5 20.5t27.5 60.5z" />
    <glyph glyph-name="ebreve" unicode="&#x115;" horiz-adv-x="478" 
d="M404 89l-12 -62q-57 -37 -142 -37q-95 0 -151 57t-56 146q0 108 64.5 180.5t166.5 72.5q89 0 129.5 -49t40.5 -121q0 -38 -9 -61h-332q-1 -8 -1 -22q0 -70 40 -111t108 -41q80 0 154 48zM111 265h273q1 7 1 15q0 51 -28.5 83.5t-83.5 32.5q-58 0 -101 -35t-61 -96z
M382 638h52q-24 -130 -132 -130q-44 0 -68.5 25t-24.5 67q0 22 4 38h51q-3 -15 -3 -34q0 -22 11.5 -36t32.5 -14q32 0 49.5 21t27.5 63z" />
    <glyph glyph-name="Edotaccent" unicode="&#x116;" horiz-adv-x="480" 
d="M125 54h283l-9 -54h-344l104 594h340l-9 -54h-279l-37 -210h261l-10 -55h-261zM354 641q-18 0 -31.5 13.5t-13.5 31.5q0 19 13.5 32t31.5 13q19 0 32 -13t13 -32q0 -18 -13 -31.5t-32 -13.5z" />
    <glyph glyph-name="edotaccent" unicode="&#x117;" horiz-adv-x="478" 
d="M404 89l-12 -62q-57 -37 -142 -37q-95 0 -151 57t-56 146q0 108 64.5 180.5t166.5 72.5q89 0 129.5 -49t40.5 -121q0 -38 -9 -61h-332q-1 -8 -1 -22q0 -70 40 -111t108 -41q80 0 154 48zM111 265h273q1 7 1 15q0 51 -28.5 83.5t-83.5 32.5q-58 0 -101 -35t-61 -96z
M309 527q-18 0 -31.5 13.5t-13.5 31.5q0 19 13.5 32t31.5 13q19 0 32 -13t13 -32q0 -18 -13 -31.5t-32 -13.5z" />
    <glyph glyph-name="Eogonek" unicode="&#x118;" horiz-adv-x="480" 
d="M125 54h283l-9 -54h-38q-89 -70 -89 -117q0 -26 30 -26q28 0 47 9l-8 -47q-24 -9 -53 -9q-32 0 -52 17t-20 47q0 67 90 126h-251l104 594h340l-9 -54h-279l-37 -210h261l-10 -55h-261z" />
    <glyph glyph-name="eogonek" unicode="&#x119;" horiz-adv-x="478" 
d="M404 89l-12 -62q-3 -2 -44 -27q-36 -22 -59.5 -52t-23.5 -60q0 -31 30 -31q28 0 47 9l-8 -47q-24 -9 -53 -9q-32 0 -52 16.5t-20 47.5q0 32 20.5 64t57.5 55q-18 -3 -37 -3q-95 0 -151 57t-56 146q0 108 64.5 180.5t166.5 72.5q89 0 129.5 -49t40.5 -121q0 -38 -9 -61
h-332q-1 -8 -1 -22q0 -70 40 -111t108 -41q80 0 154 48zM111 265h273q1 7 1 15q0 51 -28.5 83.5t-83.5 32.5q-58 0 -101 -35t-61 -96z" />
    <glyph glyph-name="Ecaron" unicode="&#x11a;" horiz-adv-x="480" 
d="M125 54h283l-9 -54h-344l104 594h340l-9 -54h-279l-37 -210h261l-10 -55h-261zM331 644l-90 133h61l53 -78l81 78h67l-138 -133h-34z" />
    <glyph glyph-name="ecaron" unicode="&#x11b;" horiz-adv-x="478" 
d="M404 89l-12 -62q-57 -37 -142 -37q-95 0 -151 57t-56 146q0 108 64.5 180.5t166.5 72.5q89 0 129.5 -49t40.5 -121q0 -38 -9 -61h-332q-1 -8 -1 -22q0 -70 40 -111t108 -41q80 0 154 48zM111 265h273q1 7 1 15q0 51 -28.5 83.5t-83.5 32.5q-58 0 -101 -35t-61 -96z
M282 503l-89 142h61l52 -87l82 87h67l-139 -142h-34z" />
    <glyph glyph-name="Gcircumflex" unicode="&#x11c;" horiz-adv-x="603" 
d="M578 550l-12 -71q-28 31 -75.5 50t-99.5 19q-123 0 -194 -78.5t-71 -204.5q0 -101 59.5 -160t158.5 -59q71 0 124 24l35 198h62l-42 -236q-81 -42 -179 -42q-131 0 -205.5 77t-74.5 198q0 155 93 247t234 92q112 0 187 -54zM452 774l90 -133h-61l-53 78l-81 -78h-67
l138 133h34z" />
    <glyph glyph-name="gcircumflex" unicode="&#x11d;" horiz-adv-x="503" 
d="M35 -147l10 55q71 -47 139 -47q64 0 101.5 31t50.5 100l5 28q-41 -24 -101 -24q-91 0 -145.5 51.5t-54.5 145.5q0 112 72 182.5t195 70.5q94 0 161 -40l-75 -426q-29 -170 -209 -170q-92 0 -149 43zM350 72l54 301q-37 21 -97 21q-99 0 -152.5 -54t-53.5 -147
q0 -66 38 -106t101 -40q54 0 110 25zM364 655l89 -142h-61l-52 87l-82 -87h-67l139 142h34z" />
    <glyph glyph-name="Gbreve" unicode="&#x11e;" horiz-adv-x="603" 
d="M578 550l-12 -71q-28 31 -75.5 50t-99.5 19q-123 0 -194 -78.5t-71 -204.5q0 -101 59.5 -160t158.5 -59q71 0 124 24l35 198h62l-42 -236q-81 -42 -179 -42q-131 0 -205.5 77t-74.5 198q0 155 93 247t234 92q112 0 187 -54zM492 773h52q-24 -126 -132 -126
q-44 0 -68.5 24t-24.5 65q0 21 4 37h51q-3 -15 -3 -33q0 -21 11.5 -34.5t32.5 -13.5q32 0 49.5 20.5t27.5 60.5z" />
    <glyph glyph-name="gbreve" unicode="&#x11f;" horiz-adv-x="503" 
d="M35 -147l10 55q71 -47 139 -47q64 0 101.5 31t50.5 100l5 28q-41 -24 -101 -24q-91 0 -145.5 51.5t-54.5 145.5q0 112 72 182.5t195 70.5q94 0 161 -40l-75 -426q-29 -170 -209 -170q-92 0 -149 43zM350 72l54 301q-37 21 -97 21q-99 0 -152.5 -54t-53.5 -147
q0 -66 38 -106t101 -40q54 0 110 25zM408 638h52q-24 -130 -132 -130q-44 0 -68.5 25t-24.5 67q0 22 4 38h51q-3 -15 -3 -34q0 -22 11.5 -36t32.5 -14q32 0 49.5 21t27.5 63z" />
    <glyph glyph-name="Gdotaccent" unicode="&#x120;" horiz-adv-x="603" 
d="M578 550l-12 -71q-28 31 -75.5 50t-99.5 19q-123 0 -194 -78.5t-71 -204.5q0 -101 59.5 -160t158.5 -59q71 0 124 24l35 198h62l-42 -236q-81 -42 -179 -42q-131 0 -205.5 77t-74.5 198q0 155 93 247t234 92q112 0 187 -54zM424 641q-18 0 -31.5 13.5t-13.5 31.5
q0 19 13.5 32t31.5 13q19 0 32 -13t13 -32q0 -18 -13 -31.5t-32 -13.5z" />
    <glyph glyph-name="gdotaccent" unicode="&#x121;" horiz-adv-x="503" 
d="M35 -147l10 55q71 -47 139 -47q64 0 101.5 31t50.5 100l5 28q-41 -24 -101 -24q-91 0 -145.5 51.5t-54.5 145.5q0 112 72 182.5t195 70.5q94 0 161 -40l-75 -426q-29 -170 -209 -170q-92 0 -149 43zM350 72l54 301q-37 21 -97 21q-99 0 -152.5 -54t-53.5 -147
q0 -66 38 -106t101 -40q54 0 110 25zM335 527q-18 0 -31.5 13.5t-13.5 31.5q0 19 13.5 32t31.5 13q19 0 32 -13t13 -32q0 -18 -13 -31.5t-32 -13.5z" />
    <glyph glyph-name="Gcommaaccent" unicode="&#x122;" horiz-adv-x="603" 
d="M578 550l-12 -71q-28 31 -75.5 50t-99.5 19q-123 0 -194 -78.5t-71 -204.5q0 -101 59.5 -160t158.5 -59q71 0 124 24l35 198h62l-42 -236q-81 -42 -179 -42q-131 0 -205.5 77t-74.5 198q0 155 93 247t234 92q112 0 187 -54zM262 -46h64q-7 -75 -101 -134h-44q39 39 58 68
t23 66z" />
    <glyph glyph-name="gcommaaccent" unicode="&#x123;" horiz-adv-x="503" 
d="M35 -147l10 55q71 -47 139 -47q64 0 101.5 31t50.5 100l5 28q-41 -24 -101 -24q-91 0 -145.5 51.5t-54.5 145.5q0 112 72 182.5t195 70.5q94 0 161 -40l-75 -426q-29 -170 -209 -170q-92 0 -149 43zM350 72l54 301q-37 21 -97 21q-99 0 -152.5 -54t-53.5 -147
q0 -66 38 -106t101 -40q54 0 110 25zM357 513h-63q10 46 43.5 89.5t72.5 62.5h47q-81 -62 -100 -152z" />
    <glyph glyph-name="Hcircumflex" unicode="&#x124;" horiz-adv-x="660" 
d="M648 594l-104 -594h-61l48 275h-367l-48 -275h-61l104 594h61l-46 -264h367l46 264h61zM448 774l90 -133h-61l-53 78l-81 -78h-67l138 133h34z" />
    <glyph glyph-name="hcircumflex" unicode="&#x125;" horiz-adv-x="507" 
d="M398 0h-59l47 264q6 30 6 54q0 41 -26 57t-77 16q-58 0 -127 -26l-64 -365h-59l120 680h59l-47 -263q62 29 128 29q153 0 153 -117q0 -22 -7 -63zM362 846l90 -133h-61l-53 78l-81 -78h-67l138 133h34z" />
    <glyph glyph-name="Hbar" unicode="&#x126;" horiz-adv-x="669" 
d="M133 417h-75l8 52h76l22 125h61l-22 -125h367l22 125h61l-22 -125h75l-8 -52h-76l-73 -417h-61l43 245h-367l-43 -245h-61zM194 417l-20 -117h367l20 117h-367z" />
    <glyph glyph-name="hbar" unicode="&#x127;" horiz-adv-x="507" 
d="M132 526h-59l8 48h59l19 106h59l-19 -106h97l-8 -48h-98l-19 -109q62 29 128 29q153 0 153 -117q0 -22 -7 -63l-47 -266h-59l47 264q6 30 6 54q0 41 -26 57t-77 16q-58 0 -127 -26l-64 -365h-59z" />
    <glyph glyph-name="Itilde" unicode="&#x128;" horiz-adv-x="232" 
d="M220 594l-104 -594h-61l104 594h61zM311 756h47q-10 -56 -34.5 -86.5t-61.5 -30.5q-21 0 -41.5 17t-38 34t-30.5 17q-34 0 -46 -66h-47q10 56 35 86.5t62 30.5q21 0 41.5 -17t38 -34t30.5 -17q34 0 45 66z" />
    <glyph glyph-name="itilde" unicode="&#x129;" horiz-adv-x="210" 
d="M175 436l-77 -436h-59l77 436h59zM272 628h47q-10 -56 -34.5 -86.5t-61.5 -30.5q-21 0 -41.5 17t-38 34t-30.5 17q-34 0 -46 -66h-47q10 56 35 86.5t62 30.5q21 0 41.5 -17t38 -34t30.5 -17q34 0 45 66z" />
    <glyph glyph-name="Imacron" unicode="&#x12a;" horiz-adv-x="232" 
d="M220 594l-104 -594h-61l104 594h61zM94 658l9 50h213l-9 -50h-213z" />
    <glyph glyph-name="imacron" unicode="&#x12b;" horiz-adv-x="210" 
d="M175 436l-77 -436h-59l77 436h59zM57 537l9 50h213l-9 -50h-213z" />
    <glyph glyph-name="Ibreve" unicode="&#x12c;" horiz-adv-x="232" 
d="M220 594l-104 -594h-61l104 594h61zM283 773h52q-24 -126 -132 -126q-44 0 -68.5 24t-24.5 65q0 21 4 37h51q-3 -15 -3 -33q0 -21 11.5 -34.5t32.5 -13.5q32 0 49.5 20.5t27.5 60.5z" />
    <glyph glyph-name="ibreve" unicode="&#x12d;" horiz-adv-x="210" 
d="M175 436l-77 -436h-59l77 436h59zM242 638h52q-24 -130 -132 -130q-44 0 -68.5 25t-24.5 67q0 22 4 38h51q-3 -15 -3 -34q0 -22 11.5 -36t32.5 -14q32 0 49.5 21t27.5 63z" />
    <glyph glyph-name="Iogonek" unicode="&#x12e;" horiz-adv-x="232" 
d="M220 594l-104 -594q-104 -67 -104 -117q0 -26 30 -26q28 0 47 9l-8 -47q-24 -9 -53 -9q-33 0 -52.5 16t-19.5 48q0 67 99 126l1 4l103 590h61z" />
    <glyph glyph-name="iogonek" unicode="&#x12f;" horiz-adv-x="210" 
d="M175 436l-77 -436q-43 -28 -70.5 -59.5t-27.5 -57.5t30 -26q28 0 47 9l-8 -47q-24 -9 -53 -9q-32 0 -52 17t-20 47q0 68 95 128l1 5l76 429h59zM168 537q-18 0 -31.5 13.5t-13.5 31.5q0 19 13.5 32t31.5 13q19 0 32 -13t13 -32q0 -18 -13 -31.5t-32 -13.5z" />
    <glyph glyph-name="Idotaccent" unicode="&#x130;" horiz-adv-x="232" 
d="M220 594l-104 -594h-61l104 594h61zM206 641q-18 0 -31.5 13.5t-13.5 31.5q0 19 13.5 32t31.5 13q19 0 32 -13t13 -32q0 -18 -13 -31.5t-32 -13.5z" />
    <glyph glyph-name="dotlessi" unicode="&#x131;" horiz-adv-x="210" 
d="M175 436l-77 -436h-59l77 436h59z" />
    <glyph glyph-name="IJ" unicode="&#x132;" horiz-adv-x="601" 
d="M220 594l-104 -594h-61l104 594h61zM231 43l12 68q43 -68 119 -68q85 0 105 110l78 441h61l-80 -453q-13 -74 -56.5 -112.5t-107.5 -38.5q-90 0 -131 53z" />
    <glyph glyph-name="ij" unicode="&#x133;" horiz-adv-x="420" 
d="M175 436l-77 -436h-59l77 436h59zM168 537q-18 0 -31.5 13.5t-13.5 31.5q0 19 13.5 32t31.5 13q19 0 32 -13t13 -32q0 -18 -13 -31.5t-32 -13.5zM378 537q-18 0 -31.5 13.5t-13.5 31.5q0 19 13.5 32t31.5 13q19 0 32 -13t13 -32q0 -18 -13 -31.5t-32 -13.5zM73 -163
l11 54q25 -29 70 -29q36 0 57 19.5t30 69.5l85 485h59l-86 -490q-24 -136 -145 -136q-56 0 -81 27z" />
    <glyph glyph-name="Jcircumflex" unicode="&#x134;" horiz-adv-x="369" 
d="M-1 43l12 68q43 -68 119 -68q85 0 105 110l78 441h61l-80 -453q-13 -74 -56.5 -112.5t-107.5 -38.5q-90 0 -131 53zM387 774l90 -133h-61l-53 78l-81 -78h-67l138 133h34z" />
    <glyph glyph-name="jcircumflex" unicode="&#x135;" horiz-adv-x="210" 
d="M-137 -163l11 54q25 -29 70 -29q36 0 57 19.5t30 69.5l85 485h59l-86 -490q-24 -136 -145 -136q-56 0 -81 27zM195 655l89 -142h-61l-52 87l-82 -87h-67l139 142h34z" />
    <glyph glyph-name="Kcommaaccent" unicode="&#x136;" horiz-adv-x="518" 
d="M172 293l320 301h80l-322 -302l252 -292h-77l-253 292v1zM205 -46h64q-7 -75 -101 -134h-44q39 39 58 68t23 66zM220 594l-104 -594h-61l104 594h61z" />
    <glyph glyph-name="kcommaaccent" unicode="&#x137;" horiz-adv-x="445" 
d="M336 0l-192 238l243 198h87l-254 -201l187 -235h-71zM155 -46h64q-7 -75 -101 -134h-44q39 39 58 68t23 66zM218 680l-120 -680h-59l120 680h59z" />
    <glyph glyph-name="kgreenlandic" unicode="&#x138;" horiz-adv-x="445" 
d="M336 0l-192 238l243 198h87l-254 -201l187 -235h-71zM175 436l-77 -436h-59l77 436h59z" />
    <glyph glyph-name="Lacute" unicode="&#x139;" horiz-adv-x="423" 
d="M55 0l104 594h61l-95 -540h256l-9 -54h-317zM234 647h-62l92 131h67z" />
    <glyph glyph-name="lacute" unicode="&#x13a;" horiz-adv-x="210" 
d="M218 680l-120 -680h-59l120 680h59zM230 721h-62l92 131h67z" />
    <glyph glyph-name="Lcommaaccent" unicode="&#x13b;" horiz-adv-x="423" 
d="M55 0l104 594h61l-95 -540h256l-9 -54h-317zM179 -46h64q-7 -75 -101 -134h-44q39 39 58 68t23 66z" />
    <glyph glyph-name="lcommaaccent" unicode="&#x13c;" horiz-adv-x="210" 
d="M218 680l-120 -680h-59l120 680h59zM27 -46h64q-7 -75 -101 -134h-44q39 39 58 68t23 66z" />
    <glyph glyph-name="Lcaron" unicode="&#x13d;" horiz-adv-x="423" 
d="M55 0l104 594h61l-95 -540h256l-9 -54h-317zM407 594l-60 -148h-57l60 148h57z" />
    <glyph glyph-name="lcaron" unicode="&#x13e;" horiz-adv-x="210" 
d="M218 680l-120 -680h-59l120 680h59zM358 680l-60 -148h-57l60 148h57z" />
    <glyph glyph-name="Ldot" unicode="&#x13f;" horiz-adv-x="423" 
d="M55 0l104 594h61l-95 -540h256l-9 -54h-317zM306 260q-18 0 -31.5 13.5t-13.5 31.5q0 19 13.5 32t31.5 13q19 0 32 -13t13 -32q0 -18 -13 -31.5t-32 -13.5z" />
    <glyph glyph-name="ldot" unicode="&#x140;" horiz-adv-x="288" 
d="M218 680l-120 -680h-59l120 680h59zM273 295q-18 0 -31.5 13.5t-13.5 31.5q0 19 13.5 32t31.5 13q19 0 32 -13t13 -32q0 -18 -13 -31.5t-32 -13.5z" />
    <glyph glyph-name="Lslash" unicode="&#x141;" horiz-adv-x="432" 
d="M45 230l10 58l64 23l49 283h61l-47 -263l118 43l-10 -58l-118 -43l-38 -219h256l-9 -54h-317l45 253z" />
    <glyph glyph-name="lslash" unicode="&#x142;" horiz-adv-x="230" 
d="M21 251l11 62l81 49l56 318h59l-50 -285l84 52l-11 -62l-84 -52l-59 -333h-59l53 300z" />
    <glyph glyph-name="Nacute" unicode="&#x143;" horiz-adv-x="646" 
d="M222 594l264 -511l89 511h59l-104 -594h-60l-266 511l-90 -511h-59l104 594h63zM436 647h-62l92 131h67z" />
    <glyph glyph-name="nacute" unicode="&#x144;" horiz-adv-x="507" 
d="M398 0h-59l48 265q5 25 5 54q0 40 -26 56t-74 16q-56 0 -129 -20l-65 -371h-59l72 410q106 36 187 36q154 0 154 -116q0 -28 -6 -63zM329 513h-62l107 152h67z" />
    <glyph glyph-name="Ncommaaccent" unicode="&#x145;" horiz-adv-x="646" 
d="M222 594l264 -511l89 511h59l-104 -594h-60l-266 511l-90 -511h-59l104 594h63zM251 -46h64q-7 -75 -101 -134h-44q39 39 58 68t23 66z" />
    <glyph glyph-name="ncommaaccent" unicode="&#x146;" horiz-adv-x="507" 
d="M398 0h-59l48 265q5 25 5 54q0 40 -26 56t-74 16q-56 0 -129 -20l-65 -371h-59l72 410q106 36 187 36q154 0 154 -116q0 -28 -6 -63zM181 -46h64q-7 -75 -101 -134h-44q39 39 58 68t23 66z" />
    <glyph glyph-name="Ncaron" unicode="&#x147;" horiz-adv-x="646" 
d="M222 594l264 -511l89 511h59l-104 -594h-60l-266 511l-90 -511h-59l104 594h63zM390 644l-90 133h61l53 -78l81 78h67l-138 -133h-34z" />
    <glyph glyph-name="ncaron" unicode="&#x148;" horiz-adv-x="507" 
d="M398 0h-59l48 265q5 25 5 54q0 40 -26 56t-74 16q-56 0 -129 -20l-65 -371h-59l72 410q106 36 187 36q154 0 154 -116q0 -28 -6 -63zM277 503l-89 142h61l52 -87l82 87h67l-139 -142h-34z" />
    <glyph glyph-name="Eng" unicode="&#x14a;" horiz-adv-x="646" 
d="M464 -27l6 27l-266 511l-90 -511h-59l104 594h63l264 -511l89 511h59l-110 -627q-14 -78 -57 -117.5t-108 -39.5q-90 0 -131 53l12 68q43 -68 119 -68q45 0 69 28t36 82z" />
    <glyph glyph-name="eng" unicode="&#x14b;" horiz-adv-x="447" 
d="M296 -49l57 314q5 25 5 54q0 40 -26 56t-74 16q-56 0 -129 -20l-65 -371h-59l72 410q106 36 187 36q154 0 154 -116q0 -28 -6 -63l-58 -321q-24 -136 -145 -136q-56 0 -81 27l11 54q25 -29 70 -29q36 0 57 19.5t30 69.5z" />
    <glyph glyph-name="Omacron" unicode="&#x14c;" horiz-adv-x="681" 
d="M336 -10q-123 0 -197.5 75.5t-74.5 199.5q0 143 88 241t231 98q123 0 197.5 -75.5t74.5 -199.5q0 -143 -88 -241t-231 -98zM336 46q116 0 186.5 80.5t70.5 202.5q0 97 -56.5 158t-153.5 61q-116 0 -186.5 -80.5t-70.5 -202.5q0 -97 56.5 -158t153.5 -61zM306 658l9 50
h213l-9 -50h-213z" />
    <glyph glyph-name="omacron" unicode="&#x14d;" horiz-adv-x="524" 
d="M245 -10q-91 0 -146.5 56t-55.5 148q0 107 65 179.5t172 72.5q91 0 146.5 -56t55.5 -148q0 -107 -65 -179.5t-172 -72.5zM245 40q78 0 127 56.5t49 145.5q0 67 -38.5 110.5t-102.5 43.5q-78 0 -127 -56.5t-49 -145.5q0 -67 38.5 -110.5t102.5 -43.5zM201 537l9 50h213
l-9 -50h-213z" />
    <glyph glyph-name="Obreve" unicode="&#x14e;" horiz-adv-x="681" 
d="M336 -10q-123 0 -197.5 75.5t-74.5 199.5q0 143 88 241t231 98q123 0 197.5 -75.5t74.5 -199.5q0 -143 -88 -241t-231 -98zM336 46q116 0 186.5 80.5t70.5 202.5q0 97 -56.5 158t-153.5 61q-116 0 -186.5 -80.5t-70.5 -202.5q0 -97 56.5 -158t153.5 -61zM495 773h52
q-24 -126 -132 -126q-44 0 -68.5 24t-24.5 65q0 21 4 37h51q-3 -15 -3 -33q0 -21 11.5 -34.5t32.5 -13.5q32 0 49.5 20.5t27.5 60.5z" />
    <glyph glyph-name="obreve" unicode="&#x14f;" horiz-adv-x="524" 
d="M245 -10q-91 0 -146.5 56t-55.5 148q0 107 65 179.5t172 72.5q91 0 146.5 -56t55.5 -148q0 -107 -65 -179.5t-172 -72.5zM245 40q78 0 127 56.5t49 145.5q0 67 -38.5 110.5t-102.5 43.5q-78 0 -127 -56.5t-49 -145.5q0 -67 38.5 -110.5t102.5 -43.5zM385 638h52
q-24 -130 -132 -130q-44 0 -68.5 25t-24.5 67q0 22 4 38h51q-3 -15 -3 -34q0 -22 11.5 -36t32.5 -14q32 0 49.5 21t27.5 63z" />
    <glyph glyph-name="Ohungarumlaut" unicode="&#x150;" horiz-adv-x="681" 
d="M336 -10q-123 0 -197.5 75.5t-74.5 199.5q0 143 88 241t231 98q123 0 197.5 -75.5t74.5 -199.5q0 -143 -88 -241t-231 -98zM336 46q116 0 186.5 80.5t70.5 202.5q0 97 -56.5 158t-153.5 61q-116 0 -186.5 -80.5t-70.5 -202.5q0 -97 56.5 -158t153.5 -61zM377 647h-58
l92 131h63zM494 647h-58l92 131h63z" />
    <glyph glyph-name="ohungarumlaut" unicode="&#x151;" horiz-adv-x="524" 
d="M245 -10q-91 0 -146.5 56t-55.5 148q0 107 65 179.5t172 72.5q91 0 146.5 -56t55.5 -148q0 -107 -65 -179.5t-172 -72.5zM245 40q78 0 127 56.5t49 145.5q0 67 -38.5 110.5t-102.5 43.5q-78 0 -127 -56.5t-49 -145.5q0 -67 38.5 -110.5t102.5 -43.5zM266 513h-58l107 152
h63zM383 513h-58l107 152h63z" />
    <glyph glyph-name="OE" unicode="&#x152;" horiz-adv-x="808" 
d="M827 594l-9 -54h-279l-37 -210h261l-10 -55h-261l-39 -221h283l-9 -54h-392q-123 0 -197 73t-74 193q0 138 87.5 233t229.5 95h446zM392 54l86 486h-97q-115 0 -185 -77.5t-70 -196.5q0 -94 56 -153t153 -59h57z" />
    <glyph glyph-name="oe" unicode="&#x153;" horiz-adv-x="850" 
d="M776 89l-12 -62q-57 -37 -142 -37q-129 0 -184 106q-30 -48 -80.5 -77t-112.5 -29q-91 0 -146.5 56t-55.5 148q0 107 65 179.5t172 72.5q60 0 107.5 -28.5t71.5 -76.5q30 49 78.5 77t108.5 28q89 0 129.5 -49t40.5 -121q0 -38 -9 -61h-332q-1 -8 -1 -22q0 -70 40 -111
t108 -41q80 0 154 48zM245 40q78 0 127 56.5t49 145.5q0 67 -38.5 110.5t-102.5 43.5q-78 0 -127 -56.5t-49 -145.5q0 -67 38.5 -110.5t102.5 -43.5zM483 265h273q1 7 1 15q0 51 -28.5 83.5t-83.5 32.5q-58 0 -101 -35t-61 -96z" />
    <glyph glyph-name="Racute" unicode="&#x154;" horiz-adv-x="503" 
d="M156 230l-40 -230h-61l104 594q49 9 103 9q101 0 156 -44.5t55 -126.5q0 -78 -49 -128.5t-118 -63.5l154 -240h-70l-144 230h-90zM212 549l-47 -268h62q84 0 133.5 37t49.5 114q0 60 -41.5 89.5t-106.5 29.5q-22 0 -50 -2zM337 647h-62l92 131h67z" />
    <glyph glyph-name="racute" unicode="&#x155;" horiz-adv-x="325" 
d="M344 433l-10 -56q-29 10 -64 10q-64 0 -108 -23l-64 -364h-59l71 401q72 41 160 41q38 0 74 -9zM269 513h-62l107 152h67z" />
    <glyph glyph-name="Rcommaaccent" unicode="&#x156;" horiz-adv-x="503" 
d="M156 230l-40 -230h-61l104 594q49 9 103 9q101 0 156 -44.5t55 -126.5q0 -78 -49 -128.5t-118 -63.5l154 -240h-70l-144 230h-90zM212 549l-47 -268h62q84 0 133.5 37t49.5 114q0 60 -41.5 89.5t-106.5 29.5q-22 0 -50 -2zM198 -46h64q-7 -75 -101 -134h-44q39 39 58 68
t23 66z" />
    <glyph glyph-name="rcommaaccent" unicode="&#x157;" horiz-adv-x="325" 
d="M344 433l-10 -56q-29 10 -64 10q-64 0 -108 -23l-64 -364h-59l71 401q72 41 160 41q38 0 74 -9zM29 -46h64q-7 -75 -101 -134h-44q39 39 58 68t23 66z" />
    <glyph glyph-name="Rcaron" unicode="&#x158;" horiz-adv-x="503" 
d="M156 230l-40 -230h-61l104 594q49 9 103 9q101 0 156 -44.5t55 -126.5q0 -78 -49 -128.5t-118 -63.5l154 -240h-70l-144 230h-90zM212 549l-47 -268h62q84 0 133.5 37t49.5 114q0 60 -41.5 89.5t-106.5 29.5q-22 0 -50 -2zM291 644l-90 133h61l53 -78l81 78h67l-138 -133
h-34z" />
    <glyph glyph-name="rcaron" unicode="&#x159;" horiz-adv-x="325" 
d="M344 433l-10 -56q-29 10 -64 10q-64 0 -108 -23l-64 -364h-59l71 401q72 41 160 41q38 0 74 -9zM225 503l-89 142h61l52 -87l82 87h67l-139 -142h-34z" />
    <glyph glyph-name="Sacute" unicode="&#x15a;" horiz-adv-x="434" 
d="M419 540l-13 -64q-60 75 -142 75q-55 0 -85 -26.5t-30 -74.5q0 -30 14.5 -52.5t31.5 -33.5t50 -29q76 -40 108.5 -75t32.5 -103q0 -75 -53.5 -121t-135.5 -46q-55 0 -102 20.5t-74 50.5l15 62q71 -80 160 -80q60 0 95 29.5t35 84.5q0 46 -26 71t-87 57q-63 33 -93.5 68
t-30.5 97q0 68 48.5 111t126.5 43q47 0 89 -18t66 -46zM320 647h-62l92 131h67z" />
    <glyph glyph-name="sacute" unicode="&#x15b;" horiz-adv-x="364" 
d="M18 42l11 60q55 -61 124 -61q92 0 92 77q0 26 -18.5 42.5t-56.5 36.5q-25 13 -38 21.5t-31 24t-26.5 35.5t-8.5 46q0 54 40 88t104 34q79 0 122 -41l-10 -58q-50 48 -112 48q-41 0 -63 -18.5t-22 -52.5q0 -14 5.5 -25t18.5 -21t22 -15.5t29 -16.5q25 -13 38 -21.5t31 -24
t26.5 -36t8.5 -46.5q0 -60 -42.5 -94t-108.5 -34q-43 0 -79 14.5t-56 37.5zM262 513h-62l107 152h67z" />
    <glyph glyph-name="Scircumflex" unicode="&#x15c;" horiz-adv-x="434" 
d="M419 540l-13 -64q-60 75 -142 75q-55 0 -85 -26.5t-30 -74.5q0 -30 14.5 -52.5t31.5 -33.5t50 -29q76 -40 108.5 -75t32.5 -103q0 -75 -53.5 -121t-135.5 -46q-55 0 -102 20.5t-74 50.5l15 62q71 -80 160 -80q60 0 95 29.5t35 84.5q0 46 -26 71t-87 57q-63 33 -93.5 68
t-30.5 97q0 68 48.5 111t126.5 43q47 0 89 -18t66 -46zM325 774l90 -133h-61l-53 78l-81 -78h-67l138 133h34z" />
    <glyph glyph-name="scircumflex" unicode="&#x15d;" horiz-adv-x="364" 
d="M18 42l11 60q55 -61 124 -61q92 0 92 77q0 26 -18.5 42.5t-56.5 36.5q-25 13 -38 21.5t-31 24t-26.5 35.5t-8.5 46q0 54 40 88t104 34q79 0 122 -41l-10 -58q-50 48 -112 48q-41 0 -63 -18.5t-22 -52.5q0 -14 5.5 -25t18.5 -21t22 -15.5t29 -16.5q25 -13 38 -21.5t31 -24
t26.5 -36t8.5 -46.5q0 -60 -42.5 -94t-108.5 -34q-43 0 -79 14.5t-56 37.5zM270 655l89 -142h-61l-52 87l-82 -87h-67l139 142h34z" />
    <glyph glyph-name="Scedilla" unicode="&#x15e;" horiz-adv-x="434" 
d="M135 -146h-61q74 69 91 138q-92 12 -144 69l15 62q71 -80 160 -80q60 0 95 29.5t35 84.5q0 46 -26 71t-87 57q-63 33 -93.5 68t-30.5 97q0 68 48.5 111t126.5 43q47 0 89 -18t66 -46l-13 -64q-60 75 -142 75q-55 0 -85 -26.5t-30 -74.5q0 -30 14.5 -52.5t31.5 -33.5
t50 -29q76 -40 108.5 -75t32.5 -103q0 -70 -46.5 -115t-120.5 -51q-9 -41 -32.5 -79.5t-51.5 -57.5z" />
    <glyph glyph-name="scedilla" unicode="&#x15f;" horiz-adv-x="364" 
d="M86 -146h-61q74 67 91 139q-65 11 -98 49l11 60q55 -61 124 -61q92 0 92 77q0 26 -18.5 42.5t-56.5 36.5q-25 13 -38 21.5t-31 24t-26.5 35.5t-8.5 46q0 54 40 88t104 34q79 0 122 -41l-10 -58q-50 48 -112 48q-41 0 -63 -18.5t-22 -52.5q0 -14 5.5 -25t18.5 -21
t22 -15.5t29 -16.5q25 -13 38 -21.5t31 -24t26.5 -36t8.5 -46.5q0 -56 -37.5 -89.5t-96.5 -37.5q-9 -41 -32.5 -79.5t-51.5 -57.5z" />
    <glyph glyph-name="Scaron" unicode="&#x160;" horiz-adv-x="434" 
d="M419 540l-13 -64q-60 75 -142 75q-55 0 -85 -26.5t-30 -74.5q0 -30 14.5 -52.5t31.5 -33.5t50 -29q76 -40 108.5 -75t32.5 -103q0 -75 -53.5 -121t-135.5 -46q-55 0 -102 20.5t-74 50.5l15 62q71 -80 160 -80q60 0 95 29.5t35 84.5q0 46 -26 71t-87 57q-63 33 -93.5 68
t-30.5 97q0 68 48.5 111t126.5 43q47 0 89 -18t66 -46zM274 644l-90 133h61l53 -78l81 78h67l-138 -133h-34z" />
    <glyph glyph-name="scaron" unicode="&#x161;" horiz-adv-x="364" 
d="M18 42l11 60q55 -61 124 -61q92 0 92 77q0 26 -18.5 42.5t-56.5 36.5q-25 13 -38 21.5t-31 24t-26.5 35.5t-8.5 46q0 54 40 88t104 34q79 0 122 -41l-10 -58q-50 48 -112 48q-41 0 -63 -18.5t-22 -52.5q0 -14 5.5 -25t18.5 -21t22 -15.5t29 -16.5q25 -13 38 -21.5t31 -24
t26.5 -36t8.5 -46.5q0 -60 -42.5 -94t-108.5 -34q-43 0 -79 14.5t-56 37.5zM210 503l-89 142h61l52 -87l82 87h67l-139 -142h-34z" />
    <glyph glyph-name="Tcommaaccent" unicode="&#x162;" horiz-adv-x="474" 
d="M326 540l-95 -540h-61l95 540h-196l9 54h453l-9 -54h-196zM163 -46h64q-7 -75 -101 -134h-44q39 39 58 68t23 66z" />
    <glyph glyph-name="tcommaaccent" unicode="&#x163;" horiz-adv-x="316" 
d="M46 385l9 51h67l19 106h59l-19 -106h123l-9 -51h-123l-47 -266q-4 -24 -4 -34q0 -44 47 -44q38 0 93 26l-10 -55q-47 -22 -91 -22q-98 0 -98 87q0 17 3 36l48 272h-67zM87 -46h64q-7 -75 -101 -134h-44q39 39 58 68t23 66z" />
    <glyph glyph-name="Tcaron" unicode="&#x164;" horiz-adv-x="474" 
d="M326 540l-95 -540h-61l95 540h-196l9 54h453l-9 -54h-196zM302 644l-90 133h61l53 -78l81 78h67l-138 -133h-34z" />
    <glyph glyph-name="tcaron" unicode="&#x165;" horiz-adv-x="316" 
d="M46 385l9 51h67l19 106h59l-19 -106h123l-9 -51h-123l-47 -266q-4 -24 -4 -34q0 -44 47 -44q38 0 93 26l-10 -55q-47 -22 -91 -22q-98 0 -98 87q0 17 3 36l48 272h-67zM311 650h57l-60 -148h-57z" />
    <glyph glyph-name="Tbar" unicode="&#x166;" horiz-adv-x="474" 
d="M222 297h-110l10 53h110l33 190h-196l9 54h453l-9 -54h-196l-33 -190h113l-10 -53h-113l-52 -297h-61z" />
    <glyph glyph-name="tbar" unicode="&#x167;" horiz-adv-x="329" 
d="M52 385l9 51h67l19 106h59l-19 -106h123l-9 -51h-123l-20 -109h128l-9 -51h-128l-18 -106q-4 -24 -4 -34q0 -44 47 -44q38 0 93 26l-10 -55q-47 -22 -91 -22q-98 0 -98 87q0 17 3 36l20 112h-63l9 51h63l19 109h-67z" />
    <glyph glyph-name="Utilde" unicode="&#x168;" horiz-adv-x="593" 
d="M70 205l68 389h61l-68 -389q-4 -21 -4 -49q0 -112 165 -112q70 0 134 18l94 532h61l-101 -574q-95 -30 -188 -30q-227 0 -227 160q0 28 5 55zM482 756h47q-10 -56 -34.5 -86.5t-61.5 -30.5q-21 0 -41.5 17t-38 34t-30.5 17q-34 0 -46 -66h-47q10 56 35 86.5t62 30.5
q21 0 41.5 -17t38 -34t30.5 -17q34 0 45 66z" />
    <glyph glyph-name="utilde" unicode="&#x169;" horiz-adv-x="479" 
d="M98 436h59l-49 -282q-3 -16 -3 -27q0 -86 121 -86q54 0 98 11l67 384h59l-75 -426q-88 -20 -154 -20q-82 0 -129 30.5t-47 90.5q0 21 5 51zM403 628h47q-10 -56 -34.5 -86.5t-61.5 -30.5q-21 0 -41.5 17t-38 34t-30.5 17q-34 0 -46 -66h-47q10 56 35 86.5t62 30.5
q21 0 41.5 -17t38 -34t30.5 -17q34 0 45 66z" />
    <glyph glyph-name="Umacron" unicode="&#x16a;" horiz-adv-x="593" 
d="M70 205l68 389h61l-68 -389q-4 -21 -4 -49q0 -112 165 -112q70 0 134 18l94 532h61l-101 -574q-95 -30 -188 -30q-227 0 -227 160q0 28 5 55zM265 658l9 50h213l-9 -50h-213z" />
    <glyph glyph-name="umacron" unicode="&#x16b;" horiz-adv-x="479" 
d="M98 436h59l-49 -282q-3 -16 -3 -27q0 -86 121 -86q54 0 98 11l67 384h59l-75 -426q-88 -20 -154 -20q-82 0 -129 30.5t-47 90.5q0 21 5 51zM182 537l9 50h213l-9 -50h-213z" />
    <glyph glyph-name="Ubreve" unicode="&#x16c;" horiz-adv-x="593" 
d="M70 205l68 389h61l-68 -389q-4 -21 -4 -49q0 -112 165 -112q70 0 134 18l94 532h61l-101 -574q-95 -30 -188 -30q-227 0 -227 160q0 28 5 55zM454 773h52q-24 -126 -132 -126q-44 0 -68.5 24t-24.5 65q0 21 4 37h51q-3 -15 -3 -33q0 -21 11.5 -34.5t32.5 -13.5
q32 0 49.5 20.5t27.5 60.5z" />
    <glyph glyph-name="ubreve" unicode="&#x16d;" horiz-adv-x="479" 
d="M98 436h59l-49 -282q-3 -16 -3 -27q0 -86 121 -86q54 0 98 11l67 384h59l-75 -426q-88 -20 -154 -20q-82 0 -129 30.5t-47 90.5q0 21 5 51zM373 638h52q-24 -130 -132 -130q-44 0 -68.5 25t-24.5 67q0 22 4 38h51q-3 -15 -3 -34q0 -22 11.5 -36t32.5 -14q32 0 49.5 21
t27.5 63z" />
    <glyph glyph-name="Uring" unicode="&#x16e;" horiz-adv-x="593" 
d="M70 205l68 389h61l-68 -389q-4 -21 -4 -49q0 -112 165 -112q70 0 134 18l94 532h61l-101 -574q-95 -30 -188 -30q-227 0 -227 160q0 28 5 55zM377 634q-35 0 -57 22t-22 56q0 38 26 62t64 24q36 0 57.5 -22t21.5 -56q0 -38 -26 -62t-64 -24zM379 672q21 0 34.5 12.5
t13.5 35.5q0 16 -10.5 28t-30.5 12q-21 0 -34.5 -12.5t-13.5 -35.5q0 -16 10.5 -28t30.5 -12z" />
    <glyph glyph-name="uring" unicode="&#x16f;" horiz-adv-x="479" 
d="M98 436h59l-49 -282q-3 -16 -3 -27q0 -86 121 -86q54 0 98 11l67 384h59l-75 -426q-88 -20 -154 -20q-82 0 -129 30.5t-47 90.5q0 21 5 51zM289 497q-35 0 -57 22t-22 56q0 38 26 62t64 24q36 0 57.5 -22t21.5 -56q0 -38 -26 -62t-64 -24zM291 535q21 0 34.5 12.5
t13.5 35.5q0 16 -10.5 28t-30.5 12q-21 0 -34.5 -12.5t-13.5 -35.5q0 -16 10.5 -28t30.5 -12z" />
    <glyph glyph-name="Uhungarumlaut" unicode="&#x170;" horiz-adv-x="593" 
d="M70 205l68 389h61l-68 -389q-4 -21 -4 -49q0 -112 165 -112q70 0 134 18l94 532h61l-101 -574q-95 -30 -188 -30q-227 0 -227 160q0 28 5 55zM335 647h-58l92 131h63zM452 647h-58l92 131h63z" />
    <glyph glyph-name="uhungarumlaut" unicode="&#x171;" horiz-adv-x="479" 
d="M98 436h59l-49 -282q-3 -16 -3 -27q0 -86 121 -86q54 0 98 11l67 384h59l-75 -426q-88 -20 -154 -20q-82 0 -129 30.5t-47 90.5q0 21 5 51zM246 513h-58l107 152h63zM363 513h-58l107 152h63z" />
    <glyph glyph-name="Uogonek" unicode="&#x172;" horiz-adv-x="593" 
d="M70 205l68 389h61l-68 -389q-4 -21 -4 -49q0 -112 165 -112q70 0 134 18l94 532h61l-101 -574q-112 -84 -112 -137q0 -26 30 -26q28 0 47 9l-8 -47q-24 -9 -53 -9q-32 0 -52 17t-20 47q0 71 91 127q-60 -11 -111 -11q-227 0 -227 160q0 28 5 55z" />
    <glyph glyph-name="uogonek" unicode="&#x173;" horiz-adv-x="479" 
d="M98 436h59l-49 -282q-3 -16 -3 -27q0 -86 121 -86q54 0 98 11l67 384h59l-75 -426q-107 -72 -107 -127q0 -26 30 -26q28 0 47 9l-8 -47q-24 -9 -53 -9q-32 0 -52 17t-20 47q0 63 83 122q-39 -6 -74 -6q-82 0 -129 30.5t-47 90.5q0 21 5 51z" />
    <glyph glyph-name="Wcircumflex" unicode="&#x174;" horiz-adv-x="763" 
d="M425 594h61l45 -538l233 538h61l-262 -594h-82l-38 511l-224 -511h-82l-54 594h60l47 -538zM502 774l90 -133h-61l-53 78l-81 -78h-67l138 133h34z" />
    <glyph glyph-name="wcircumflex" unicode="&#x175;" horiz-adv-x="629" 
d="M381 436l38 -382l183 382h62l-217 -436h-73l-36 358l-174 -358h-73l-47 436h58l37 -382l186 382h56zM405 655l89 -142h-61l-52 87l-82 -87h-67l139 142h34z" />
    <glyph glyph-name="Ycircumflex" unicode="&#x176;" horiz-adv-x="515" 
d="M275 293l232 301h70l-279 -357l-41 -237h-62l42 237l-154 357h66zM374 774l90 -133h-61l-53 78l-81 -78h-67l138 133h34z" />
    <glyph glyph-name="ycircumflex" unicode="&#x177;" horiz-adv-x="428" 
d="M101 436l75 -398l224 398h63l-356 -616h-61l90 153l-92 463h57zM308 655l89 -142h-61l-52 87l-82 -87h-67l139 142h34z" />
    <glyph glyph-name="Ydieresis" unicode="&#x178;" horiz-adv-x="515" 
d="M275 293l232 301h70l-279 -357l-41 -237h-62l42 237l-154 357h66zM267 641q-18 0 -31.5 13.5t-13.5 31.5q0 19 13.5 32t31.5 13q19 0 32 -13t13 -32q0 -18 -13 -31.5t-32 -13.5zM425 641q-18 0 -31.5 13.5t-13.5 31.5q0 19 13.5 32t31.5 13q19 0 32 -13t13 -32
q0 -18 -13 -31.5t-32 -13.5z" />
    <glyph glyph-name="Zacute" unicode="&#x179;" horiz-adv-x="499" 
d="M119 540l9 54h399l-8 -50l-433 -490h357l-9 -54h-429l8 51l430 489h-324zM354 647h-62l92 131h67z" />
    <glyph glyph-name="zacute" unicode="&#x17a;" horiz-adv-x="408" 
d="M349 51l-8 -51h-340l9 50l320 335h-249l9 51h319l-9 -50l-320 -335h269zM290 513h-62l107 152h67z" />
    <glyph glyph-name="Zdotaccent" unicode="&#x17b;" horiz-adv-x="499" 
d="M119 540l9 54h399l-8 -50l-433 -490h357l-9 -54h-429l8 51l430 489h-324zM331 641q-18 0 -31.5 13.5t-13.5 31.5q0 19 13.5 32t31.5 13q19 0 32 -13t13 -32q0 -18 -13 -31.5t-32 -13.5z" />
    <glyph glyph-name="zdotaccent" unicode="&#x17c;" horiz-adv-x="408" 
d="M349 51l-8 -51h-340l9 50l320 335h-249l9 51h319l-9 -50l-320 -335h269zM273 527q-18 0 -31.5 13.5t-13.5 31.5q0 19 13.5 32t31.5 13q19 0 32 -13t13 -32q0 -18 -13 -31.5t-32 -13.5z" />
    <glyph glyph-name="Zcaron" unicode="&#x17d;" horiz-adv-x="499" 
d="M119 540l9 54h399l-8 -50l-433 -490h357l-9 -54h-429l8 51l430 489h-324zM308 644l-90 133h61l53 -78l81 78h67l-138 -133h-34z" />
    <glyph glyph-name="zcaron" unicode="&#x17e;" horiz-adv-x="408" 
d="M349 51l-8 -51h-340l9 50l320 335h-249l9 51h319l-9 -50l-320 -335h269zM246 503l-89 142h61l52 -87l82 87h67l-139 -142h-34z" />
    <glyph glyph-name="florin" unicode="&#x192;" horiz-adv-x="358" 
d="M46 262l9 50h73l55 165q42 127 146 127q41 0 69 -22l-10 -57q-29 26 -59 26q-33 0 -53.5 -20t-35.5 -65l-51 -154h103l-9 -50h-111l-126 -382h-60l126 382h-66z" />
    <glyph glyph-name="Aringacute" unicode="&#x1fa;" horiz-adv-x="562" 
d="M459 0l-34 164h-288l-92 -164h-65l326 577q-26 20 -26 54t26 56t64 22q36 0 57.5 -20t21.5 -50q0 -49 -47 -69v-2l120 -568h-63zM349 543l-183 -327h249zM361 597q21 0 34.5 11.5t13.5 30.5q0 14 -10.5 24t-30.5 10q-21 0 -34.5 -11.5t-13.5 -30.5q0 -14 10.5 -24
t30.5 -10zM419 743h-62l56 80h67z" />
    <glyph glyph-name="aringacute" unicode="&#x1fb;" horiz-adv-x="429" 
d="M288 478q-35 0 -57 20t-22 50q0 34 26 56t64 22q36 0 57.5 -20t21.5 -50q0 -34 -26 -56t-64 -22zM290 514q21 0 34.5 11.5t13.5 30.5q0 14 -10.5 24t-30.5 10q-21 0 -34.5 -11.5t-13.5 -30.5q0 -14 10.5 -24t30.5 -10zM348 662h-62l56 80h67zM105 354l10 59q58 33 135 33
q60 0 97 -27t37 -79q0 -16 -3 -35l-52 -297q-61 -16 -117 -16q-84 0 -133 31.5t-49 96.5q0 69 59.5 100.5t154.5 31.5h70l9 53q2 14 2 26q0 29 -21 46t-58 17q-68 0 -141 -40zM305 203h-61q-73 0 -114 -17.5t-41 -65.5q0 -40 33.5 -60t89.5 -20q32 0 65 6z" />
    <glyph glyph-name="AEacute" unicode="&#x1fc;" horiz-adv-x="830" 
d="M749 0h-344l29 164h-248l-135 -164h-71l491 594h378l-9 -54h-279l-37 -210h261l-10 -55h-261l-39 -221h283zM501 545l-272 -329h214zM671 647h-62l92 131h67z" />
    <glyph glyph-name="aeacute" unicode="&#x1fd;" horiz-adv-x="730" 
d="M687 202h-324v-9q0 -69 39 -110.5t103 -41.5q80 0 154 48l-12 -62q-57 -37 -142 -37q-105 0 -160 73q-66 -71 -164 -71q-65 0 -108 32.5t-43 92.5q0 71 55 103t144 32h82q4 25 16 52q-2 38 -25.5 64t-62.5 26q-68 0 -138 -40l10 59q58 33 131 33q97 0 124 -76
q63 76 158 76q48 0 83 -16.5t53.5 -44t27 -58t8.5 -64.5q0 -38 -9 -61zM368 252h267q1 6 1 16q0 52 -28 90t-84 38t-99 -37t-57 -107zM305 202h-79q-65 0 -101 -17.5t-36 -67.5q0 -35 27.5 -56t64.5 -21q88 0 140 65q-16 38 -16 88v9zM442 513h-62l107 152h67z" />
    <glyph glyph-name="Oslashacute" unicode="&#x1fe;" horiz-adv-x="691" 
d="M670 594l-73 -79q63 -74 63 -186q0 -143 -88 -241t-231 -98q-104 0 -175 55l-42 -45h-65l72 79q-62 73 -62 186q0 143 88 241t231 98q103 0 174 -55l42 45h66zM173 124l349 381q-56 43 -134 43q-116 0 -186.5 -80.5t-70.5 -202.5q0 -85 42 -141zM556 469l-350 -380
q56 -43 135 -43q116 0 186.5 80.5t70.5 202.5q0 82 -42 140zM446 647h-62l92 131h67z" />
    <glyph glyph-name="oslashacute" unicode="&#x1ff;" horiz-adv-x="524" 
d="M512 446l-71 -74q41 -54 41 -130q0 -107 -65 -179.5t-172 -72.5q-78 0 -131 42l-40 -42h-61l70 73q-40 52 -40 131q0 107 65 179.5t172 72.5q77 0 130 -42l40 42h62zM401 330l-250 -259q36 -31 94 -31q78 0 127.5 56.5t49.5 145.5q0 48 -21 88zM123 105l250 260
q-36 31 -93 31q-78 0 -127.5 -56.5t-49.5 -145.5q0 -51 20 -89zM335 513h-62l107 152h67z" />
    <glyph glyph-name="Scommaaccent" unicode="&#x218;" horiz-adv-x="434" 
d="M419 540l-13 -64q-60 75 -142 75q-55 0 -85 -26.5t-30 -74.5q0 -30 14.5 -52.5t31.5 -33.5t50 -29q76 -40 108.5 -75t32.5 -103q0 -75 -53.5 -121t-135.5 -46q-55 0 -102 20.5t-74 50.5l15 62q71 -80 160 -80q60 0 95 29.5t35 84.5q0 46 -26 71t-87 57q-63 33 -93.5 68
t-30.5 97q0 68 48.5 111t126.5 43q47 0 89 -18t66 -46zM135 -46h64q-7 -75 -101 -134h-44q39 39 58 68t23 66z" />
    <glyph glyph-name="scommaaccent" unicode="&#x219;" horiz-adv-x="364" 
d="M18 42l11 60q55 -61 124 -61q92 0 92 77q0 26 -18.5 42.5t-56.5 36.5q-25 13 -38 21.5t-31 24t-26.5 35.5t-8.5 46q0 54 40 88t104 34q79 0 122 -41l-10 -58q-50 48 -112 48q-41 0 -63 -18.5t-22 -52.5q0 -14 5.5 -25t18.5 -21t22 -15.5t29 -16.5q25 -13 38 -21.5t31 -24
t26.5 -36t8.5 -46.5q0 -60 -42.5 -94t-108.5 -34q-43 0 -79 14.5t-56 37.5zM104 -46h64q-7 -75 -101 -134h-44q39 39 58 68t23 66z" />
    <glyph glyph-name="uni021A" unicode="&#x21a;" horiz-adv-x="474" 
d="M326 540l-95 -540h-61l95 540h-196l9 54h453l-9 -54h-196zM163 -46h64q-7 -75 -101 -134h-44q39 39 58 68t23 66z" />
    <glyph glyph-name="uni021B" unicode="&#x21b;" horiz-adv-x="316" 
d="M46 385l9 51h67l19 106h59l-19 -106h123l-9 -51h-123l-47 -266q-4 -24 -4 -34q0 -44 47 -44q38 0 93 26l-10 -55q-47 -22 -91 -22q-98 0 -98 87q0 17 3 36l48 272h-67zM87 -46h64q-7 -75 -101 -134h-44q39 39 58 68t23 66z" />
    <glyph glyph-name="uni0237" unicode="&#x237;" horiz-adv-x="210" 
d="M-137 -163l11 54q25 -29 70 -29q36 0 57 19.5t30 69.5l85 485h59l-86 -490q-24 -136 -145 -136q-56 0 -81 27z" />
    <glyph glyph-name="circumflex" unicode="&#x2c6;" horiz-adv-x="500" 
d="M292 655l89 -142h-61l-52 87l-82 -87h-67l139 142h34z" />
    <glyph glyph-name="caron" unicode="&#x2c7;" horiz-adv-x="500" 
d="M208 503l-89 142h61l52 -87l82 87h67l-139 -142h-34z" />
    <glyph glyph-name="uni02C9" unicode="&#x2c9;" horiz-adv-x="500" 
d="M139 537l9 50h213l-9 -50h-213z" />
    <glyph glyph-name="breve" unicode="&#x2d8;" horiz-adv-x="500" 
d="M310 638h52q-24 -130 -132 -130q-44 0 -68.5 25t-24.5 67q0 22 4 38h51q-3 -15 -3 -34q0 -22 11.5 -36t32.5 -14q32 0 49.5 21t27.5 63z" />
    <glyph glyph-name="dotaccent" unicode="&#x2d9;" horiz-adv-x="500" 
d="M250 527q-18 0 -31.5 13.5t-13.5 31.5q0 19 13.5 32t31.5 13q19 0 32 -13t13 -32q0 -18 -13 -31.5t-32 -13.5z" />
    <glyph glyph-name="ring" unicode="&#x2da;" horiz-adv-x="500" 
d="M244 497q-35 0 -57 22t-22 56q0 38 26 62t64 24q36 0 57.5 -22t21.5 -56q0 -38 -26 -62t-64 -24zM246 535q21 0 34.5 12.5t13.5 35.5q0 16 -10.5 28t-30.5 12q-21 0 -34.5 -12.5t-13.5 -35.5q0 -16 10.5 -28t30.5 -12z" />
    <glyph glyph-name="ogonek" unicode="&#x2db;" horiz-adv-x="500" 
d="M278 12h52q-105 -79 -105 -129q0 -26 30 -26q28 0 47 9l-8 -47q-24 -9 -53 -9q-32 0 -52 17t-20 47q0 36 29.5 72.5t79.5 65.5z" />
    <glyph glyph-name="tilde" unicode="&#x2dc;" horiz-adv-x="500" 
d="M352 628h47q-10 -56 -34.5 -86.5t-61.5 -30.5q-21 0 -41.5 17t-38 34t-30.5 17q-34 0 -46 -66h-47q10 56 35 86.5t62 30.5q21 0 41.5 -17t38 -34t30.5 -17q34 0 45 66z" />
    <glyph glyph-name="hungarumlaut" unicode="&#x2dd;" horiz-adv-x="500" 
d="M164 513h-58l107 152h63zM281 513h-58l107 152h63z" />
    <glyph glyph-name="anoteleia" unicode="&#x387;" horiz-adv-x="239" 
d="M83 259q0 20 14.5 34.5t34.5 14.5t35 -14.5t15 -34.5t-15 -35t-35 -15t-34.5 15t-14.5 35z" />
    <glyph glyph-name="pi" unicode="&#x3c0;" horiz-adv-x="539" 
d="M468 52l-9 -51q-22 -11 -50 -11q-82 0 -82 79q0 15 5 42l48 269h-174l-67 -380h-60l67 380h-79l9 56h459l-9 -56h-86l-48 -270q-3 -18 -3 -30q0 -38 39 -38q18 0 40 10z" />
    <glyph glyph-name="Wgrave" unicode="&#x1e80;" horiz-adv-x="763" 
d="M425 594h61l45 -538l233 538h61l-262 -594h-82l-38 511l-224 -511h-82l-54 594h60l47 -538zM489 647h-53l-50 131h58z" />
    <glyph glyph-name="wgrave" unicode="&#x1e81;" horiz-adv-x="629" 
d="M381 436l38 -382l183 382h62l-217 -436h-73l-36 358l-174 -358h-73l-47 436h58l37 -382l186 382h56zM379 513h-53l-58 152h58z" />
    <glyph glyph-name="Wacute" unicode="&#x1e82;" horiz-adv-x="763" 
d="M425 594h61l45 -538l233 538h61l-262 -594h-82l-38 511l-224 -511h-82l-54 594h60l47 -538zM497 647h-62l92 131h67z" />
    <glyph glyph-name="wacute" unicode="&#x1e83;" horiz-adv-x="629" 
d="M381 436l38 -382l183 382h62l-217 -436h-73l-36 358l-174 -358h-73l-47 436h58l37 -382l186 382h56zM403 513h-62l107 152h67z" />
    <glyph glyph-name="Wdieresis" unicode="&#x1e84;" horiz-adv-x="763" 
d="M425 594h61l45 -538l233 538h61l-262 -594h-82l-38 511l-224 -511h-82l-54 594h60l47 -538zM395 641q-18 0 -31.5 13.5t-13.5 31.5q0 19 13.5 32t31.5 13q19 0 32 -13t13 -32q0 -18 -13 -31.5t-32 -13.5zM553 641q-18 0 -31.5 13.5t-13.5 31.5q0 19 13.5 32t31.5 13
q19 0 32 -13t13 -32q0 -18 -13 -31.5t-32 -13.5z" />
    <glyph glyph-name="wdieresis" unicode="&#x1e85;" horiz-adv-x="629" 
d="M381 436l38 -382l183 382h62l-217 -436h-73l-36 358l-174 -358h-73l-47 436h58l37 -382l186 382h56zM297 527q-18 0 -31.5 13.5t-13.5 31.5q0 19 13.5 32t31.5 13q19 0 32 -13t13 -32q0 -18 -13 -31.5t-32 -13.5zM455 527q-18 0 -31.5 13.5t-13.5 31.5q0 19 13.5 32
t31.5 13q19 0 32 -13t13 -32q0 -18 -13 -31.5t-32 -13.5z" />
    <glyph glyph-name="Ygrave" unicode="&#x1ef2;" horiz-adv-x="515" 
d="M275 293l232 301h70l-279 -357l-41 -237h-62l42 237l-154 357h66zM361 647h-53l-50 131h58z" />
    <glyph glyph-name="ygrave" unicode="&#x1ef3;" horiz-adv-x="428" 
d="M101 436l75 -398l224 398h63l-356 -616h-61l90 153l-92 463h57zM292 513h-53l-58 152h58z" />
    <glyph glyph-name="uni2011" unicode="&#x2011;" horiz-adv-x="355" 
d="M76 232l10 54h215l-10 -54h-215z" />
    <glyph glyph-name="figuredash" unicode="&#x2012;" horiz-adv-x="572" 
d="M76 235l8 48h432l-8 -48h-432z" />
    <glyph glyph-name="endash" unicode="&#x2013;" horiz-adv-x="572" 
d="M76 235l8 48h432l-8 -48h-432z" />
    <glyph glyph-name="emdash" unicode="&#x2014;" horiz-adv-x="952" 
d="M76 235l8 48h812l-8 -48h-812z" />
    <glyph glyph-name="uni2015" unicode="&#x2015;" horiz-adv-x="952" 
d="M76 235l8 48h812l-8 -48h-812z" />
    <glyph glyph-name="quoteleft" unicode="&#x2018;" horiz-adv-x="207" 
d="M171 457h-71q11 60 46 110t81 77h49q-86 -78 -105 -187z" />
    <glyph glyph-name="quoteright" unicode="&#x2019;" horiz-adv-x="207" 
d="M173 644h71q-11 -60 -46 -110t-81 -77h-49q86 78 105 187z" />
    <glyph glyph-name="quotesinglbase" unicode="&#x201a;" horiz-adv-x="207" 
d="M66 80h71q-11 -60 -46 -110t-81 -77h-49q86 78 105 187z" />
    <glyph glyph-name="quotedblleft" unicode="&#x201c;" horiz-adv-x="344" 
d="M171 457h-71q11 60 46 110t81 77h49q-86 -78 -105 -187zM308 457h-71q11 60 46 110t81 77h49q-86 -78 -105 -187z" />
    <glyph glyph-name="quotedblright" unicode="&#x201d;" horiz-adv-x="344" 
d="M310 644h71q-11 -60 -46 -110t-81 -77h-49q86 78 105 187zM173 644h71q-11 -60 -46 -110t-81 -77h-49q86 78 105 187z" />
    <glyph glyph-name="quotedblbase" unicode="&#x201e;" horiz-adv-x="344" 
d="M203 80h71q-11 -60 -46 -110t-81 -77h-49q86 78 105 187zM66 80h71q-11 -60 -46 -110t-81 -77h-49q86 78 105 187z" />
    <glyph glyph-name="dagger" unicode="&#x2020;" horiz-adv-x="254" 
d="M66 454l9 51h80l16 89h52l-16 -89h82l-9 -51h-82l-35 -202h-52l35 202h-80z" />
    <glyph glyph-name="daggerdbl" unicode="&#x2021;" horiz-adv-x="254" 
d="M49 341l9 48h82l12 68h-83l9 48h82l16 89h48l-16 -89h84l-9 -48h-83l-12 -68h84l-9 -48h-84l-15 -89h-48l15 89h-82z" />
    <glyph glyph-name="bullet" unicode="&#x2022;" horiz-adv-x="320" 
d="M80 259q0 37 26 63.5t64 26.5t64 -26.5t26 -63.5t-26 -63.5t-64 -26.5t-64 26.5t-26 63.5z" />
    <glyph glyph-name="ellipsis" unicode="&#x2026;" horiz-adv-x="717" 
d="M47 41q0 20 14.5 34.5t34.5 14.5t35 -14.5t15 -34.5t-15 -35t-35 -15t-34.5 15t-14.5 35zM286 41q0 20 14.5 34.5t34.5 14.5t35 -14.5t15 -34.5t-15 -35t-35 -15t-34.5 15t-14.5 35zM525 41q0 20 14.5 34.5t34.5 14.5t35 -14.5t15 -34.5t-15 -35t-35 -15t-34.5 15
t-14.5 35z" />
    <glyph glyph-name="perthousand" unicode="&#x2030;" horiz-adv-x="990" 
d="M489 -10q-56 0 -93 35.5t-37 89.5q0 63 44 105.5t102 42.5q56 0 93 -35.5t37 -89.5q0 -63 -44 -105.5t-102 -42.5zM489 42q39 0 64.5 25.5t25.5 70.5q0 33 -20.5 53t-53.5 20q-39 0 -64.5 -25.5t-25.5 -70.5q0 -33 20.5 -53t53.5 -20zM206 604q56 0 93 -35.5t37 -89.5
q0 -63 -44 -105.5t-102 -42.5q-56 0 -93 35.5t-37 89.5q0 63 44 105.5t102 42.5zM206 552q-39 0 -64.5 -25.5t-25.5 -70.5q0 -33 20.5 -53t53.5 -20q39 0 64.5 25.5t25.5 70.5q0 33 -20.5 53t-53.5 20zM799 -10q-56 0 -93 35.5t-37 89.5q0 63 44 105.5t102 42.5
q56 0 93 -35.5t37 -89.5q0 -63 -44 -105.5t-102 -42.5zM799 42q39 0 64.5 25.5t25.5 70.5q0 33 -20.5 53t-53.5 20q-39 0 -64.5 -25.5t-25.5 -70.5q0 -33 20.5 -53t53.5 -20zM609 594l-461 -594h-62l461 594h62z" />
    <glyph glyph-name="guilsinglleft" unicode="&#x2039;" horiz-adv-x="310" 
d="M277 373l-146 -161l91 -155h-62l-95 157l145 159h67z" />
    <glyph glyph-name="guilsinglright" unicode="&#x203a;" horiz-adv-x="310" 
d="M41 57l146 161l-91 155h62l95 -157l-145 -159h-67z" />
    <glyph glyph-name="fraction" unicode="&#x2044;" horiz-adv-x="195" 
d="M-132 0l441 594h60l-441 -594h-60z" />
    <glyph glyph-name="uni2070" unicode="&#x2070;" horiz-adv-x="311" 
d="M176 257q-53 0 -82 38.5t-29 99.5q0 87 42.5 145.5t106.5 58.5q53 0 82 -38t29 -99q0 -87 -42.5 -146t-106.5 -59zM178 304q39 0 65.5 45.5t26.5 112.5q0 41 -15 65.5t-43 24.5q-39 0 -65.5 -45t-26.5 -112q0 -41 15 -66t43 -25z" />
    <glyph glyph-name="uni2074" unicode="&#x2074;" horiz-adv-x="309" 
d="M303 594l-36 -202h55l-8 -44h-55l-15 -85h-52l15 85h-160l8 45l192 201h56zM239 531l-131 -139h107z" />
    <glyph glyph-name="uni2075" unicode="&#x2075;" horiz-adv-x="244" 
d="M157 545l-19 -73q109 -18 109 -103q0 -50 -34 -81t-91 -31q-56 0 -89 30l9 48q36 -32 80 -32q33 0 52.5 15.5t19.5 45.5q0 59 -112 70l38 160h159l-9 -49h-113z" />
    <glyph glyph-name="uni2076" unicode="&#x2076;" horiz-adv-x="283" 
d="M207 594h64l-85 -98l-33 -27q14 8 37 8q45 0 72 -28t27 -74q0 -51 -34 -84.5t-87 -33.5q-52 0 -82.5 29.5t-30.5 76.5q0 56 62 128zM176 435q-30 0 -49 -20t-19 -52q0 -27 17 -44t44 -17q30 0 49 20t19 52q0 27 -17 44t-44 17z" />
    <glyph glyph-name="uni2077" unicode="&#x2077;" horiz-adv-x="254" 
d="M230 545h-158l9 49h218l-9 -49l-186 -282h-61z" />
    <glyph glyph-name="uni2078" unicode="&#x2078;" horiz-adv-x="278" 
d="M167 257q-49 0 -81 24t-32 68q0 36 24.5 60t57.5 30q-44 21 -44 67q0 43 29.5 68t70.5 25q42 0 69 -22.5t27 -62.5q0 -31 -17.5 -53t-44.5 -29q55 -24 55 -76q0 -46 -33 -72.5t-81 -26.5zM188 459q21 0 36 14t15 37q0 20 -13.5 33t-33.5 13q-21 0 -35.5 -14t-14.5 -37
q0 -19 13 -32.5t33 -13.5zM167 300q26 0 43.5 16t17.5 43q0 24 -16.5 38.5t-42.5 14.5q-25 0 -43 -16t-18 -43q0 -23 16.5 -38t42.5 -15z" />
    <glyph glyph-name="uni2079" unicode="&#x2079;" horiz-adv-x="283" 
d="M151 262h-64l85 98l33 27q-14 -8 -37 -8q-45 0 -72 28t-27 74q0 51 34 84.5t87 33.5q52 0 82.5 -29.5t30.5 -76.5q0 -56 -62 -128zM182 421q30 0 49 20t19 52q0 27 -17 44t-44 17q-30 0 -49 -20t-19 -52q0 -27 17 -44t44 -17z" />
    <glyph glyph-name="uni2080" unicode="&#x2080;" horiz-adv-x="311" 
d="M131 -6q-53 0 -82 38.5t-29 99.5q0 87 42.5 145.5t106.5 58.5q53 0 82 -38t29 -99q0 -87 -42.5 -146t-106.5 -59zM133 41q39 0 65.5 45.5t26.5 112.5q0 41 -15 65.5t-43 24.5q-39 0 -65.5 -45t-26.5 -112q0 -41 15 -66t43 -25z" />
    <glyph glyph-name="uni2081" unicode="&#x2081;" horiz-adv-x="192" 
d="M27 265l10 51l123 20l-59 -336h-55l49 275z" />
    <glyph glyph-name="uni2082" unicode="&#x2082;" horiz-adv-x="258" 
d="M65 49h145l-9 -49h-218l8 44q47 33 71.5 51.5t56 46t45.5 52t14 48.5q0 44 -46 44t-97 -41l10 56q43 35 101 35q45 0 68 -22t23 -62q0 -95 -172 -203z" />
    <glyph glyph-name="uni2083" unicode="&#x2083;" horiz-adv-x="243" 
d="M33 253l9 52q36 31 90 31q42 0 64.5 -21t22.5 -56q0 -37 -23.5 -61t-59.5 -31q28 -7 45 -26t17 -47q0 -45 -34 -72.5t-87 -27.5q-58 0 -91 29l9 49q37 -32 80 -32q30 0 49 14.5t19 39.5q0 45 -74 51l7 42q86 7 86 64q0 37 -42 37q-40 0 -87 -35z" />
    <glyph glyph-name="uni2084" unicode="&#x2084;" horiz-adv-x="309" 
d="M258 331l-36 -202h55l-8 -44h-55l-15 -85h-52l15 85h-160l8 45l192 201h56zM194 268l-131 -139h107z" />
    <glyph glyph-name="uni2085" unicode="&#x2085;" horiz-adv-x="244" 
d="M112 282l-19 -73q109 -18 109 -103q0 -50 -34 -81t-91 -31q-56 0 -89 30l9 48q36 -32 80 -32q33 0 52.5 15.5t19.5 45.5q0 59 -112 70l38 160h159l-9 -49h-113z" />
    <glyph glyph-name="uni2086" unicode="&#x2086;" horiz-adv-x="283" 
d="M162 331h64l-85 -98l-33 -27q14 8 37 8q45 0 72 -28t27 -74q0 -51 -34 -84.5t-87 -33.5q-52 0 -82.5 29.5t-30.5 76.5q0 56 62 128zM131 172q-30 0 -49 -20t-19 -52q0 -27 17 -44t44 -17q30 0 49 20t19 52q0 27 -17 44t-44 17z" />
    <glyph glyph-name="uni2087" unicode="&#x2087;" horiz-adv-x="254" 
d="M185 282h-158l9 49h218l-9 -49l-186 -282h-61z" />
    <glyph glyph-name="uni2088" unicode="&#x2088;" horiz-adv-x="278" 
d="M122 -6q-49 0 -81 24t-32 68q0 36 24.5 60t57.5 30q-44 21 -44 67q0 43 29.5 68t70.5 25q42 0 69 -22.5t27 -62.5q0 -31 -17.5 -53t-44.5 -29q55 -24 55 -76q0 -46 -33 -72.5t-81 -26.5zM143 196q21 0 36 14t15 37q0 20 -13.5 33t-33.5 13q-21 0 -35.5 -14t-14.5 -37
q0 -20 13.5 -33t32.5 -13zM122 37q26 0 43.5 16t17.5 43q0 24 -16.5 38.5t-42.5 14.5q-25 0 -43 -16t-18 -43q0 -23 16.5 -38t42.5 -15z" />
    <glyph glyph-name="uni2089" unicode="&#x2089;" horiz-adv-x="283" 
d="M106 0h-64l85 97l33 27q-14 -8 -37 -8q-45 0 -72 28t-27 74q0 51 34 84.5t87 33.5q52 0 82.5 -29.5t30.5 -76.5q0 -56 -62 -128zM137 158q30 0 49 20t19 52q0 27 -17 44t-44 17q-30 0 -49 -20t-19 -52q0 -27 17 -44t44 -17z" />
    <glyph glyph-name="Euro" unicode="&#x20ac;" horiz-adv-x="514" 
d="M109 332h-65l9 50h68q31 102 100 160.5t159 58.5q89 0 143 -62l-14 -67q-52 73 -129 73q-69 0 -121 -43t-78 -120h200l-19 -50h-194q-7 -33 -8 -61h178l-19 -50h-160q4 -84 42 -129.5t102 -45.5q86 0 154 61l-14 -72q-58 -45 -140 -45q-91 0 -144.5 61.5t-57.5 169.5h-77
l9 50h69q2 35 7 61z" />
    <glyph glyph-name="uni2117" unicode="&#x2117;" horiz-adv-x="698" 
d="M348 -10q-125 0 -205.5 81.5t-80.5 203.5q0 138 93.5 233.5t230.5 95.5q125 0 205.5 -81.5t80.5 -203.5q0 -138 -93.5 -233.5t-230.5 -95.5zM348 27q121 0 202 82.5t81 209.5q0 109 -68.5 178.5t-176.5 69.5q-121 0 -202 -82.5t-81 -209.5q0 -109 68.5 -178.5
t176.5 -69.5zM317 241l-20 -120h-55l61 350q39 7 81 7q61 0 95.5 -29.5t34.5 -82.5q0 -64 -44.5 -96t-111.5 -32q-30 0 -41 3zM351 425l-26 -139q5 -2 38 -2q42 0 69 20t27 60q0 29 -20.5 46t-52.5 17q-26 0 -35 -2z" />
    <glyph glyph-name="trademark" unicode="&#x2122;" horiz-adv-x="678" 
d="M237 552l-42 -235h-51l42 235h-88l7 42h226l-7 -42h-87zM499 317h-48l-29 215l-71 -215h-49l93 277h61l29 -220l105 220h61l-5 -277h-48l5 215z" />
    <glyph glyph-name="uni2126" unicode="&#x2126;" horiz-adv-x="592" 
d="M514 0h-210l11 64q201 115 201 298q0 91 -46.5 142.5t-122.5 51.5q-97 0 -164 -79.5t-67 -195.5q0 -139 109 -217l-11 -64h-210l9 52h155q-43 28 -78 88.5t-35 140.5q0 136 83 229.5t209 93.5q109 0 170 -65t61 -174q0 -106 -64.5 -192t-143.5 -121h153z" />
    <glyph glyph-name="uni2153" unicode="&#x2153;" horiz-adv-x="661" 
d="M82 528l10 51l123 20l-59 -336h-55l49 275zM420 253l9 52q36 31 90 31q42 0 64.5 -21t22.5 -56q0 -37 -23.5 -61t-59.5 -31q28 -7 45 -26t17 -47q0 -45 -34 -72.5t-87 -27.5q-58 0 -91 29l9 49q37 -32 80 -32q30 0 49 14.5t19 39.5q0 45 -74 51l7 42q86 7 86 64
q0 37 -42 37q-40 0 -87 -35zM60 0l441 594h60l-441 -594h-60z" />
    <glyph glyph-name="uni2154" unicode="&#x2154;" horiz-adv-x="756" 
d="M132 312h145l-9 -49h-218l8 44q47 33 71.5 51.5t56 46t45.5 52t14 48.5q0 44 -46 44t-97 -41l10 56q43 35 101 35q45 0 68 -22t23 -62q0 -95 -172 -203zM515 253l9 52q36 31 90 31q42 0 64.5 -21t22.5 -56q0 -37 -23.5 -61t-59.5 -31q28 -7 45 -26t17 -47
q0 -45 -34 -72.5t-87 -27.5q-58 0 -91 29l9 49q37 -32 80 -32q30 0 49 14.5t19 39.5q0 45 -74 51l7 42q86 7 86 64q0 37 -42 37q-40 0 -87 -35zM155 0l441 594h60l-441 -594h-60z" />
    <glyph glyph-name="uni215B" unicode="&#x215b;" horiz-adv-x="675" 
d="M82 528l10 51l123 20l-59 -336h-55l49 275zM499 -6q-49 0 -81 24t-32 68q0 36 24.5 60t57.5 30q-44 21 -44 67q0 43 29.5 68t70.5 25q42 0 69 -22.5t27 -62.5q0 -31 -17.5 -53t-44.5 -29q55 -24 55 -76q0 -46 -33 -72.5t-81 -26.5zM520 196q21 0 36 14t15 37
q0 20 -13.5 33t-33.5 13q-21 0 -35.5 -14t-14.5 -37q0 -20 13 -33t33 -13zM499 37q26 0 43.5 16t17.5 43q0 24 -16.5 38.5t-42.5 14.5q-25 0 -43 -16t-18 -43q0 -23 16.5 -38t42.5 -15zM60 0l441 594h60l-441 -594h-60z" />
    <glyph glyph-name="uni215C" unicode="&#x215c;" horiz-adv-x="735" 
d="M97 516l9 52q36 31 90 31q42 0 64.5 -20.5t22.5 -56.5q0 -37 -23.5 -61t-59.5 -31q62 -16 62 -73q0 -45 -34 -72.5t-87 -27.5q-58 0 -91 29l9 49q37 -32 80 -32q30 0 49 14.5t19 39.5q0 45 -74 51l7 42q86 7 86 64q0 37 -42 37q-40 0 -87 -35zM559 -6q-49 0 -81 24
t-32 68q0 36 24.5 60t57.5 30q-44 21 -44 67q0 43 29.5 68t70.5 25q42 0 69 -22.5t27 -62.5q0 -31 -17.5 -53t-44.5 -29q55 -24 55 -76q0 -46 -33 -72.5t-81 -26.5zM580 196q21 0 36 14t15 37q0 20 -13.5 33t-33.5 13q-21 0 -35.5 -14t-14.5 -37q0 -20 13 -33t33 -13z
M559 37q26 0 43.5 16t17.5 43q0 24 -16.5 38.5t-42.5 14.5q-25 0 -43 -16t-18 -43q0 -23 16.5 -38t42.5 -15zM120 0l441 594h60l-441 -594h-60z" />
    <glyph glyph-name="uni215D" unicode="&#x215d;" horiz-adv-x="734" 
d="M174 545l-19 -73q109 -18 109 -103q0 -50 -34 -81t-91 -31q-56 0 -89 30l9 48q36 -32 80 -32q33 0 52.5 15.5t19.5 45.5q0 59 -112 70l38 160h159l-9 -49h-113zM558 -6q-49 0 -81 24t-32 68q0 36 24.5 60t57.5 30q-44 21 -44 67q0 43 29.5 68t70.5 25q42 0 69 -22.5
t27 -62.5q0 -31 -17.5 -53t-44.5 -29q55 -24 55 -76q0 -46 -33 -72.5t-81 -26.5zM579 196q21 0 36 14t15 37q0 20 -13.5 33t-33.5 13q-21 0 -35.5 -14t-14.5 -37q0 -20 13.5 -33t32.5 -13zM558 37q26 0 43.5 16t17.5 43q0 24 -16.5 38.5t-42.5 14.5q-25 0 -43 -16t-18 -43
q0 -23 16.5 -38t42.5 -15zM119 0l441 594h60l-441 -594h-60z" />
    <glyph glyph-name="uni215E" unicode="&#x215e;" horiz-adv-x="694" 
d="M247 545h-158l9 49h218l-9 -49l-186 -282h-61zM518 -6q-49 0 -81 24t-32 68q0 36 24.5 60t57.5 30q-44 21 -44 67q0 43 29.5 68t70.5 25q42 0 69 -22.5t27 -62.5q0 -31 -17.5 -53t-44.5 -29q55 -24 55 -76q0 -46 -33 -72.5t-81 -26.5zM539 196q21 0 36 14t15 37
q0 20 -13.5 33t-33.5 13q-21 0 -35.5 -14t-14.5 -37q0 -20 13.5 -33t32.5 -13zM518 37q26 0 43.5 16t17.5 43q0 24 -16.5 38.5t-42.5 14.5q-25 0 -43 -16t-18 -43q0 -23 16.5 -38t42.5 -15zM79 0l441 594h60l-441 -594h-60z" />
    <glyph glyph-name="partialdiff" unicode="&#x2202;" horiz-adv-x="524" 
d="M158 680h79q245 -174 245 -431q0 -113 -65 -186t-172 -73q-91 0 -146.5 56t-55.5 148q0 107 65 179.5t172 72.5q41 0 76 -17.5t53 -45.5q-49 154 -251 297zM245 40q78 0 127 56.5t49 145.5q0 67 -38.5 110.5t-102.5 43.5q-78 0 -127 -56.5t-49 -145.5q0 -67 38.5 -110.5
t102.5 -43.5z" />
    <glyph glyph-name="Delta" unicode="&#x2206;" horiz-adv-x="562" 
d="M532 0h-542l334 594h79zM86 52h373l-101 492z" />
    <glyph glyph-name="product" unicode="&#x220f;" horiz-adv-x="590" 
d="M433 -180h-62l127 719h-296l-127 -719h-62l136 774h420z" />
    <glyph glyph-name="summation" unicode="&#x2211;" horiz-adv-x="443" 
d="M226 215l-155 325l9 54h383l-9 -54h-321l160 -333l-270 -333h313l-9 -54h-382l8 54z" />
    <glyph glyph-name="minus" unicode="&#x2212;" horiz-adv-x="459" 
d="M46 266l10 53h379l-10 -53h-379z" />
    <glyph glyph-name="radical" unicode="&#x221a;" horiz-adv-x="528" 
d="M498 594h61l-289 -594h-72l-61 315h-73l10 58h113l53 -314z" />
    <glyph glyph-name="infinity" unicode="&#x221e;" horiz-adv-x="710" 
d="M361 244l-46 -45q-64 -64 -140 -64q-56 0 -91.5 33.5t-35.5 93.5q0 74 48 121.5t119 47.5q78 0 123 -64l32 -45l46 45q64 64 140 64q56 0 91.5 -33.5t35.5 -93.5q0 -74 -48 -121.5t-119 -47.5q-78 0 -123 64zM332 284l-29 39q-42 55 -93 55q-44 0 -73.5 -31t-29.5 -85
q0 -33 21 -53.5t50 -20.5q53 0 100 45zM399 282l33 -44q38 -50 89 -50q44 0 73.5 31t29.5 85q0 33 -21 53.5t-50 20.5q-53 0 -100 -45z" />
    <glyph glyph-name="integral" unicode="&#x222b;" horiz-adv-x="324" 
d="M53 -57l94 533q10 60 46 94t87 34q47 0 74 -22l-10 -53q-28 23 -64 23q-58 0 -73 -81l-94 -533q-10 -60 -46 -94t-87 -34q-47 0 -73 21l10 54q28 -23 63 -23q60 0 73 81z" />
    <glyph glyph-name="approxequal" unicode="&#x2248;" horiz-adv-x="469" 
d="M58 305l10 57q59 34 108 34q32 0 84 -16.5t84 -16.5q52 0 110 34l-11 -57q-57 -34 -110 -34q-33 0 -84 16.5t-83 16.5q-48 0 -108 -34zM39 193l10 57q58 34 108 34q33 0 84 -16.5t83 -16.5q52 0 110 34l-10 -57q-58 -34 -110 -34q-32 0 -83 16.5t-84 16.5q-50 0 -108 -34
z" />
    <glyph glyph-name="notequal" unicode="&#x2260;" horiz-adv-x="469" 
d="M137 206h-96l9 53h135l61 67h-184l9 53h223l82 90h60l-82 -90h96l-9 -53h-135l-61 -67h184l-9 -53h-223l-82 -90h-60z" />
    <glyph glyph-name="lessequal" unicode="&#x2264;" horiz-adv-x="329" 
d="M39 317l2 8l294 144l-11 -64l-180 -86l150 -86l-11 -60zM0 96l10 53h269l-10 -53h-269z" />
    <glyph glyph-name="greaterequal" unicode="&#x2265;" horiz-adv-x="329" 
d="M285 96h-269l10 53h269zM326 325l-2 -8l-294 -144l11 64l180 86l-150 86l11 60z" />
    <glyph glyph-name="dotmath" unicode="&#x22c5;" horiz-adv-x="239" 
d="M83 259q0 20 14.5 34.5t34.5 14.5t35 -14.5t15 -34.5t-15 -35t-35 -15t-34.5 15t-14.5 35z" />
    <glyph glyph-name="lozenge" unicode="&#x25ca;" horiz-adv-x="468" 
d="M45 297l222 297h72l118 -297l-222 -297h-72zM393 303l-95 248l-189 -260l95 -247z" />
    <glyph glyph-name="space_uni0326" horiz-adv-x="500" 
d="M258 -46h64q-7 -75 -101 -134h-44q39 39 58 68t23 66z" />
    <glyph glyph-name="zero.op" horiz-adv-x="548" 
d="M262 -10q-96 0 -156 60t-60 157q0 106 68 179.5t179 73.5q96 0 156 -60t60 -157q0 -106 -68 -179.5t-179 -73.5zM262 43q85 0 135 55.5t50 144.5q0 73 -43 118.5t-111 45.5q-86 0 -135.5 -55.5t-49.5 -144.5q0 -73 43 -118.5t111 -45.5z" />
    <glyph glyph-name="one.op" horiz-adv-x="295" 
d="M44 374l10 54l191 33l-81 -461h-60l69 394z" />
    <glyph glyph-name="two.op" horiz-adv-x="400" 
d="M94 54h257l-9 -54h-345l8 49q23 15 58 38l52.5 34.5t44.5 29.5t39.5 27.5t31 24.5t27 24.5t19 23t15 25t7.5 24.5t3 28q0 37 -23.5 57.5t-62.5 20.5q-45 0 -82.5 -19t-83.5 -59l12 68q62 64 154 64q71 0 109 -34t38 -98q0 -74 -63.5 -134t-205.5 -140z" />
    <glyph glyph-name="three.op" horiz-adv-x="396" 
d="M48 331l12 67q60 62 153 62q74 0 112.5 -36.5t38.5 -97.5q0 -68 -47.5 -113.5t-119.5 -55.5q55 -7 92 -44t37 -93q0 -75 -59.5 -124.5t-150.5 -49.5q-47 0 -89 14t-65 37l10 59q65 -58 144 -58q66 0 107 33.5t41 88.5q0 49 -35.5 77.5t-112.5 38.5l8 42q82 10 129.5 46.5
t47.5 99.5q0 37 -22.5 59.5t-65.5 22.5q-85 0 -165 -75z" />
    <glyph glyph-name="four.op" horiz-adv-x="491" 
d="M427 453l-66 -378h113l-9 -51h-113l-29 -165h-57l29 165h-296l9 51l349 378h70zM358 384l-285 -309h231z" />
    <glyph glyph-name="five.op" horiz-adv-x="381" 
d="M162 396l-42 -172q207 -28 207 -188q0 -82 -58.5 -136t-155.5 -54q-46 0 -88 15t-64 39l11 57q62 -59 141 -59q71 0 111.5 36t40.5 102q0 123 -211 145l66 269h266l-10 -54h-214z" />
    <glyph glyph-name="six.op" horiz-adv-x="494" 
d="M336 594h73l-175 -194l-64 -59q39 32 98 32q78 0 128 -48.5t50 -129.5q0 -87 -58 -146t-150 -59q-90 0 -141 50t-51 131q0 63 30.5 116.5t89.5 118.5zM253 324q-65 0 -106 -43t-41 -111q0 -57 36 -94t96 -37q65 0 106 43.5t41 111.5q0 57 -36 93.5t-96 36.5z" />
    <glyph glyph-name="seven.op" horiz-adv-x="409" 
d="M342 396h-313l10 54h379l-10 -54l-361 -540h-67z" />
    <glyph glyph-name="eight.op" horiz-adv-x="476" 
d="M227 -10q-85 0 -140 43.5t-55 120.5q0 69 46 115t111 54q-35 13 -57.5 44.5t-22.5 75.5q0 75 51 118t119 43q69 0 113.5 -38.5t44.5 -107.5q0 -58 -34 -96.5t-83 -48.5q45 -12 76.5 -51t31.5 -91q0 -85 -58.5 -133t-142.5 -48zM267 345q46 0 78 30.5t32 81.5q0 43 -28 71
t-70 28q-47 0 -78.5 -30t-31.5 -82q0 -43 28 -71t70 -28zM226 39q58 0 99 34t41 98q0 54 -37.5 86t-94.5 32q-58 0 -99 -34.5t-41 -100.5q0 -52 37.5 -83.5t94.5 -31.5z" />
    <glyph glyph-name="nine.op" horiz-adv-x="494" 
d="M166 -144h-73l175 194l64 59q-39 -32 -98 -32q-78 0 -128 48.5t-50 129.5q0 87 58 146t150 59q90 0 141 -50t51 -131q0 -63 -30.5 -116.5t-89.5 -118.5zM249 126q65 0 106 43t41 111q0 57 -36 94t-96 37q-65 0 -106 -43.5t-41 -111.5q0 -57 36 -93.5t96 -36.5z" />
    <glyph glyph-name="commaturn" horiz-adv-x="500" 
d="M231 513h-63q10 46 43.5 89.5t72.5 62.5h47q-81 -62 -100 -152z" />
    <glyph glyph-name="registered.cap" horiz-adv-x="698" 
d="M348 -10q-125 0 -205.5 81.5t-80.5 203.5q0 138 93.5 233.5t230.5 95.5q125 0 205.5 -81.5t80.5 -203.5q0 -138 -93.5 -233.5t-230.5 -95.5zM348 27q121 0 202 82.5t81 209.5q0 109 -68.5 178.5t-176.5 69.5q-121 0 -202 -82.5t-81 -209.5q0 -109 68.5 -178.5
t176.5 -69.5zM305 249l-23 -125h-54l62 351q33 6 80 6q63 0 97 -28t34 -80q0 -43 -26.5 -73.5t-65.5 -39.5l85 -136h-62l-75 125h-52zM336 431l-23 -135h36q42 0 68.5 19.5t26.5 57.5q0 60 -73 60q-21 0 -35 -2z" />
    <glyph glyph-name="plus.op" horiz-adv-x="459" 
d="M199 206h-163l10 53h163l28 163h53l-28 -163h163l-10 -53h-163l-28 -163h-53z" />
    <glyph glyph-name="minus.op" horiz-adv-x="459" 
d="M36 206l10 53h379l-10 -53h-379z" />
    <glyph glyph-name="multiply.op" horiz-adv-x="393" 
d="M162 231l-98 119l42 36l97 -120l140 120l31 -38l-140 -119l98 -119l-41 -35l-98 118l-139 -118l-32 37z" />
    <glyph glyph-name="divide.op" horiz-adv-x="459" 
d="M36 206l10 53h379l-10 -53h-379zM155 87q0 20 14.5 34.5t34.5 14.5t35 -14.5t15 -34.5t-15 -35t-35 -15t-34.5 15t-14.5 35zM206 379q0 20 14.5 34.5t34.5 14.5t35 -14.5t15 -34.5t-15 -35t-35 -15t-34.5 15t-14.5 35z" />
    <glyph glyph-name="equal.op" horiz-adv-x="469" 
d="M35 146l9 53h379l-9 -53h-379zM56 266l9 53h379l-9 -53h-379z" />
    <glyph glyph-name="less.op" horiz-adv-x="329" 
d="M29 227l2 8l297 164l-11 -69l-191 -102l155 -102l-12 -63z" />
    <glyph glyph-name="greater.op" horiz-adv-x="329" 
d="M315 235l-2 -8l-297 -164l11 69l191 102l-155 102l12 63z" />
    <glyph glyph-name="zero_slash.lt" 
d="M243 -10q-95 0 -143 67t-48 174q0 156 74.5 264.5t188.5 108.5q95 0 143 -67t48 -174q0 -156 -74.5 -264.5t-188.5 -108.5zM417 492l-246 -427q30 -22 72 -22q88 0 144.5 93.5t56.5 225.5q0 82 -27 130zM140 102l246 427q-30 22 -71 22q-88 0 -144.5 -93.5t-56.5 -225.5
q0 -81 26 -130z" />
    <glyph glyph-name="zero.lt" 
d="M243 -10q-95 0 -143 67t-48 174q0 156 74.5 264.5t188.5 108.5q95 0 143 -67t48 -174q0 -156 -74.5 -264.5t-188.5 -108.5zM315 551q-88 0 -144.5 -93.5t-56.5 -225.5q0 -84 33 -136.5t96 -52.5q88 0 144.5 93.5t56.5 225.5q0 84 -33 136.5t-96 52.5z" />
    <glyph glyph-name="one.lt" 
d="M138 506l11 57l235 40l-106 -603h-60l94 535z" />
    <glyph glyph-name="two.lt" 
d="M124 54h290l-9 -54h-377l9 48q71 49 114 80.5t98.5 78t86 83t52.5 80.5t22 86q0 41 -25.5 67t-70.5 26q-91 0 -182 -81l12 71q74 65 170 65q78 0 118 -38t40 -110q0 -180 -348 -402z" />
    <glyph glyph-name="three.lt" 
d="M135 475l12 67q60 62 153 62q74 0 112.5 -36.5t38.5 -97.5q0 -68 -47.5 -113.5t-119.5 -55.5q55 -7 92 -44t37 -93q0 -75 -59.5 -124.5t-150.5 -49.5q-47 0 -89 14t-65 37l10 59q65 -58 144 -58q66 0 107 33.5t41 88.5q0 49 -35.5 77.5t-112.5 38.5l8 42
q82 10 129.5 46.5t47.5 99.5q0 37 -22.5 59.5t-65.5 22.5q-85 0 -165 -75z" />
    <glyph glyph-name="four.lt" 
d="M459 594l-66 -378h99l-9 -51h-99l-29 -165h-57l29 165h-296l9 51l349 378h70zM390 525l-285 -309h231z" />
    <glyph glyph-name="five.lt" 
d="M249 540l-42 -172q207 -28 207 -188q0 -82 -58.5 -136t-155.5 -54q-46 0 -88 15t-64 39l11 57q62 -59 141 -59q71 0 111.5 36t40.5 102q0 123 -211 145l66 269h266l-10 -54h-214z" />
    <glyph glyph-name="six.lt" 
d="M354 594h73l-175 -194l-64 -59q39 32 98 32q78 0 128 -48.5t50 -129.5q0 -87 -58 -146t-150 -59q-90 0 -141 50t-51 131q0 63 30.5 116.5t89.5 118.5zM271 324q-65 0 -106 -43t-41 -111q0 -57 36 -94t96 -37q65 0 106 43.5t41 111.5q0 57 -36 93.5t-96 36.5z" />
    <glyph glyph-name="seven.lt" 
d="M442 540h-331l10 54h399l-10 -54l-361 -540h-69z" />
    <glyph glyph-name="eight.lt" 
d="M261 -10q-85 0 -140 43.5t-55 120.5q0 69 46 115t111 54q-35 13 -57.5 44.5t-22.5 75.5q0 75 51 118t119 43q69 0 113.5 -38.5t44.5 -107.5q0 -58 -34 -96.5t-83 -48.5q45 -12 76.5 -51t31.5 -91q0 -85 -58.5 -133t-142.5 -48zM301 345q46 0 78 30.5t32 81.5q0 43 -28 71
t-70 28q-47 0 -78.5 -30t-31.5 -82q0 -43 28 -71t70 -28zM260 39q58 0 99 34t41 98q0 54 -37.5 86t-94.5 32q-58 0 -99 -34.5t-41 -100.5q0 -52 37.5 -83.5t94.5 -31.5z" />
    <glyph glyph-name="nine.lt" 
d="M189 0h-73l175 194l64 59q-39 -32 -98 -32q-78 0 -128 48.5t-50 129.5q0 87 58 146t150 59q90 0 141 -50t51 -131q0 -63 -30.5 -116.5t-89.5 -118.5zM272 270q65 0 106 43t41 111q0 57 -36 94t-96 37q-65 0 -106 -43.5t-41 -111.5q0 -57 36 -93.5t96 -36.5z" />
    <glyph glyph-name="zero_slash.ot" 
d="M244 -10q-92 0 -149 60t-57 157q0 106 65.5 179.5t171.5 73.5q92 0 149 -60t57 -157q0 -106 -65.5 -179.5t-171.5 -73.5zM383 357l-215 -293q33 -21 76 -21q82 0 128.5 55t46.5 145q0 69 -36 114zM135 93l215 293q-32 21 -75 21q-82 0 -128.5 -55t-46.5 -145
q0 -68 35 -114z" />
    <glyph glyph-name="zero.ot" 
d="M244 -10q-92 0 -149 60t-57 157q0 106 65.5 179.5t171.5 73.5q92 0 149 -60t57 -157q0 -106 -65.5 -179.5t-171.5 -73.5zM244 43q82 0 128.5 55t46.5 145q0 73 -40 118.5t-104 45.5q-82 0 -128.5 -55t-46.5 -145q0 -73 40 -118.5t104 -45.5z" />
    <glyph glyph-name="one.ot" 
d="M122 368l10 54l228 39l-81 -461h-60l69 394z" />
    <glyph glyph-name="two.ot" 
d="M150 54h257l-9 -54h-345l8 49q23 15 58 38l52.5 34.5t44.5 29.5t39.5 27.5t31 24.5t27 24.5t19 23t15 25t7.5 24.5t3 28q0 37 -23.5 57.5t-62.5 20.5q-45 0 -82.5 -19t-83.5 -59l12 68q62 64 154 64q71 0 109 -34t38 -98q0 -74 -63.5 -134t-205.5 -140z" />
    <glyph glyph-name="three.ot" 
d="M105 331l12 67q60 62 153 62q74 0 112.5 -36.5t38.5 -97.5q0 -68 -47.5 -113.5t-119.5 -55.5q55 -7 92 -44t37 -93q0 -75 -59.5 -124.5t-150.5 -49.5q-47 0 -89 14t-65 37l10 59q65 -58 144 -58q66 0 107 33.5t41 88.5q0 49 -35.5 77.5t-112.5 38.5l8 42
q82 10 129.5 46.5t47.5 99.5q0 37 -22.5 59.5t-65.5 22.5q-85 0 -165 -75z" />
    <glyph glyph-name="four.ot" 
d="M440 453l-66 -378h99l-9 -51h-99l-29 -165h-57l29 165h-296l9 51l349 378h70zM371 384l-285 -309h231z" />
    <glyph glyph-name="five.ot" 
d="M225 396l-42 -172q207 -28 207 -188q0 -82 -58.5 -136t-155.5 -54q-46 0 -88 15t-64 39l11 57q62 -59 141 -59q71 0 111.5 36t40.5 102q0 123 -211 145l66 269h266l-10 -54h-214z" />
    <glyph glyph-name="six.ot" 
d="M350 594h73l-175 -194l-64 -59q39 32 98 32q78 0 128 -48.5t50 -129.5q0 -87 -58 -146t-150 -59q-90 0 -141 50t-51 131q0 63 30.5 116.5t89.5 118.5zM267 324q-65 0 -106 -43t-41 -111q0 -57 36 -94t96 -37q65 0 106 43.5t41 111.5q0 57 -36 93.5t-96 36.5z" />
    <glyph glyph-name="seven.ot" 
d="M428 396h-331l10 54h399l-10 -54l-361 -540h-69z" />
    <glyph glyph-name="eight.ot" 
d="M250 -10q-85 0 -140 43.5t-55 120.5q0 69 46 115t111 54q-35 13 -57.5 44.5t-22.5 75.5q0 75 51 118t119 43q69 0 113.5 -38.5t44.5 -107.5q0 -58 -34 -96.5t-83 -48.5q45 -12 76.5 -51t31.5 -91q0 -85 -58.5 -133t-142.5 -48zM290 345q46 0 78 30.5t32 81.5q0 43 -28 71
t-70 28q-47 0 -78.5 -30t-31.5 -82q0 -43 28 -71t70 -28zM249 39q58 0 99 34t41 98q0 54 -37.5 86t-94.5 32q-58 0 -99 -34.5t-41 -100.5q0 -52 37.5 -83.5t94.5 -31.5z" />
    <glyph glyph-name="nine.ot" 
d="M165 -144h-73l175 194l64 59q-39 -32 -98 -32q-78 0 -128 48.5t-50 129.5q0 87 58 146t150 59q90 0 141 -50t51 -131q0 -63 -30.5 -116.5t-89.5 -118.5zM248 126q65 0 106 43t41 111q0 57 -36 94t-96 37q-65 0 -106 -43.5t-41 -111.5q0 -57 36 -93.5t96 -36.5z" />
    <glyph glyph-name="period.tab" horiz-adv-x="260" 
d="M61 41q0 20 14.5 34.5t34.5 14.5t35 -14.5t15 -34.5t-15 -35t-35 -15t-34.5 15t-14.5 35z" />
    <glyph glyph-name="comma.tab" horiz-adv-x="260" 
d="M99 80h71q-11 -61 -50.5 -119.5t-84.5 -84.5h-47q90 81 111 204z" />
    <glyph glyph-name="colon.tab" horiz-adv-x="260" 
d="M61 41q0 20 14.5 34.5t34.5 14.5t35 -14.5t15 -34.5t-15 -35t-35 -15t-34.5 15t-14.5 35zM121 376q0 20 14.5 34.5t34.5 14.5t35 -14.5t15 -34.5t-15 -35t-35 -15t-34.5 15t-14.5 35z" />
    <glyph glyph-name="semicolon.tab" horiz-adv-x="260" 
d="M99 80h71q-11 -61 -50.5 -119.5t-84.5 -84.5h-47q90 81 111 204zM121 376q0 20 14.5 34.5t34.5 14.5t35 -14.5t15 -34.5t-15 -35t-35 -15t-34.5 15t-14.5 35z" />
    <glyph glyph-name="zero_slash.op" horiz-adv-x="548" 
d="M262 -10q-96 0 -156 60t-60 157q0 106 68 179.5t179 73.5q96 0 156 -60t60 -157q0 -106 -68 -179.5t-179 -73.5zM406 363l-222 -303q36 -17 78 -17q85 0 135 55.5t50 144.5q0 76 -41 120zM149 87l221 302q-33 18 -77 18q-86 0 -135.5 -55.5t-49.5 -144.5q0 -76 41 -120z
" />
    <glyph glyph-name="space.tab" horiz-adv-x="260" 
 />
    <glyph glyph-name="plusminus.op" horiz-adv-x="459" 
d="M208 256h-163l10 53h163l21 123h53l-21 -123h163l-10 -53h-163l-21 -123h-53zM6 36l10 53h379l-10 -53h-379z" />
    <glyph glyph-name="lessequal.op" horiz-adv-x="329" 
d="M34 257l2 8l294 144l-11 -64l-180 -86l150 -86l-11 -60zM-5 36l10 53h269l-10 -53h-269z" />
    <glyph glyph-name="greaterequal.op" horiz-adv-x="329" 
d="M277 36h-269l10 53h269zM318 265l-2 -8l-294 -144l11 64l180 86l-150 86l11 60z" />
    <glyph glyph-name="notequal.op" horiz-adv-x="469" 
d="M131 146h-96l9 53h135l61 67h-184l9 53h223l82 90h60l-82 -90h96l-9 -53h-135l-61 -67h184l-9 -53h-223l-82 -90h-60z" />
    <glyph glyph-name="approxequal.op" horiz-adv-x="469" 
d="M45 235l10 57q60 34 108 34q33 0 84 -16.5t84 -16.5q52 0 110 34l-11 -57q-57 -34 -110 -34q-32 0 -83 16.5t-84 16.5q-49 0 -108 -34zM26 123l10 57q58 34 108 34q32 0 83 -16.5t84 -16.5q52 0 110 34l-10 -57q-58 -34 -110 -34q-33 0 -84 16.5t-83 16.5q-50 0 -108 -34
z" />
    <glyph glyph-name="plus.lt" 
d="M239 266h-163l10 53h163l28 163h53l-28 -163h163l-10 -53h-163l-28 -163h-53z" />
    <glyph glyph-name="minus.lt" 
d="M76 266l10 53h379l-10 -53h-379z" />
    <glyph glyph-name="multiply.lt" 
d="M232 291l-98 119l42 36l97 -120l140 120l31 -38l-140 -119l98 -119l-41 -35l-98 118l-139 -118l-32 37z" />
    <glyph glyph-name="divide.lt" 
d="M76 266l10 53h379l-10 -53h-379zM195 147q0 20 14.5 34.5t34.5 14.5t35 -14.5t15 -34.5t-15 -35t-35 -15t-34.5 15t-14.5 35zM246 439q0 20 14.5 34.5t34.5 14.5t35 -14.5t15 -34.5t-15 -35t-35 -15t-34.5 15t-14.5 35z" />
    <glyph glyph-name="equal.lt" 
d="M71 206l9 53h379l-9 -53h-379zM92 326l9 53h379l-9 -53h-379z" />
    <glyph glyph-name="less.lt" 
d="M115 287l2 8l297 164l-11 -69l-191 -102l155 -102l-12 -63z" />
    <glyph glyph-name="greater.lt" 
d="M421 295l-2 -8l-297 -164l11 69l191 102l-155 102l12 63z" />
    <glyph glyph-name="plusminus.lt" 
d="M248 316h-163l10 53h163l21 123h53l-21 -123h163l-10 -53h-163l-21 -123h-53zM46 96l10 53h379l-10 -53h-379z" />
    <glyph glyph-name="lessequal.lt" 
d="M136 317l2 8l294 144l-11 -64l-180 -86l150 -86l-11 -60zM97 96l10 53h269l-10 -53h-269z" />
    <glyph glyph-name="greaterequal.lt" 
d="M385 96h-269l10 53h269zM426 325l-2 -8l-294 -144l11 64l180 86l-150 86l11 60z" />
    <glyph glyph-name="notequal.lt" 
d="M167 206h-96l9 53h135l61 67h-184l9 53h223l82 90h60l-82 -90h96l-9 -53h-135l-61 -67h184l-9 -53h-223l-82 -90h-60z" />
    <glyph glyph-name="approxequal.lt" 
d="M88 305l10 57q60 34 108 34q32 0 84 -16.5t84 -16.5q52 0 110 34l-11 -57q-57 -34 -110 -34q-33 0 -83.5 16.5t-83.5 16.5q-48 0 -108 -34zM69 193l10 57q58 34 108 34q33 0 84 -16.5t83 -16.5q52 0 110 34l-10 -57q-58 -34 -110 -34q-32 0 -83 16.5t-84 16.5
q-50 0 -108 -34z" />
    <glyph glyph-name="plus.ot" 
d="M219 206h-163l10 53h163l28 163h53l-28 -163h163l-10 -53h-163l-28 -163h-53z" />
    <glyph glyph-name="minus.ot" 
d="M56 206l10 53h379l-10 -53h-379z" />
    <glyph glyph-name="multiply.ot" 
d="M222 231l-98 119l42 36l97 -120l140 120l31 -38l-140 -119l98 -119l-41 -35l-98 118l-139 -118l-32 37z" />
    <glyph glyph-name="divide.ot" 
d="M56 206l10 53h379l-10 -53h-379zM175 87q0 20 14.5 34.5t34.5 14.5t35 -14.5t15 -34.5t-15 -35t-35 -15t-34.5 15t-14.5 35zM226 379q0 20 14.5 34.5t34.5 14.5t35 -14.5t15 -34.5t-15 -35t-35 -15t-34.5 15t-14.5 35z" />
    <glyph glyph-name="equal.ot" 
d="M55 146l9 53h379l-9 -53h-379zM76 266l9 53h379l-9 -53h-379z" />
    <glyph glyph-name="less.ot" 
d="M99 227l2 8l297 164l-11 -69l-191 -102l155 -102l-12 -63z" />
    <glyph glyph-name="greater.ot" 
d="M415 235l-2 -8l-297 -164l11 69l191 102l-155 102l12 63z" />
    <glyph glyph-name="plusminus.ot" 
d="M238 256h-163l10 53h163l21 123h53l-21 -123h163l-10 -53h-163l-21 -123h-53zM36 36l10 53h379l-10 -53h-379z" />
    <glyph glyph-name="lessequal.ot" 
d="M124 257l2 8l294 144l-11 -64l-180 -86l150 -86l-11 -60zM85 36l10 53h269l-10 -53h-269z" />
    <glyph glyph-name="greaterequal.ot" 
d="M367 36h-269l10 53h269zM408 265l-2 -8l-294 -144l11 64l180 86l-150 86l11 60z" />
    <glyph glyph-name="notequal.ot" 
d="M151 146h-96l9 53h135l61 67h-184l9 53h223l82 90h60l-82 -90h96l-9 -53h-135l-61 -67h184l-9 -53h-223l-82 -90h-60z" />
    <glyph glyph-name="approxequal.ot" 
d="M67 235l10 57q59 34 108 34q33 0 84 -16.5t84 -16.5q52 0 110 34l-11 -57q-57 -34 -110 -34q-32 0 -83 16.5t-84 16.5q-49 0 -108 -34zM48 123l10 57q58 34 108 34q32 0 83 -16.5t84 -16.5q52 0 110 34l-10 -57q-58 -34 -110 -34q-33 0 -84 16.5t-83 16.5q-50 0 -108 -34
z" />
    <glyph glyph-name="doublebar" horiz-adv-x="379" 
d="M47 -138l144 818h53l-144 -818h-53zM169 -138l144 818h53l-144 -818h-53z" />
    <glyph glyph-name="zero.slash" horiz-adv-x="534" 
d="M247 -10q-95 0 -143 67t-48 174q0 156 74.5 264.5t188.5 108.5q95 0 143 -67t48 -174q0 -156 -74.5 -264.5t-188.5 -108.5zM421 492l-246 -427q30 -22 72 -22q88 0 144.5 93.5t56.5 225.5q0 82 -27 130zM144 102l246 427q-30 22 -71 22q-88 0 -144.5 -93.5t-56.5 -225.5
q0 -81 26 -130z" />
    <glyph glyph-name="invertedbreve" horiz-adv-x="500" 
d="M189 513h-52q24 130 132 130q44 0 68.5 -25t24.5 -67q0 -22 -4 -38h-51q3 15 3 34q0 22 -11.5 36t-32.5 14q-32 0 -49.5 -21t-27.5 -63z" />
    <glyph glyph-name="doublegrave" horiz-adv-x="500" 
d="M353 513h-49l-58 152h54zM253 513h-49l-58 152h54z" />
    <glyph glyph-name="caronSlovak" horiz-adv-x="500" 
d="M251 680h57l-60 -148h-57z" />
    <glyph glyph-name="dotbelow" horiz-adv-x="500" 
d="M250 -175q-18 0 -31.5 13.5t-13.5 31.5q0 19 13.5 32t31.5 13q19 0 32 -13t13 -32q0 -18 -13 -31.5t-32 -13.5z" />
    <glyph glyph-name="altcedilla" horiz-adv-x="500" 
d="M269 0h54q-7 -43 -32 -84t-54 -62h-61q79 74 93 146z" />
    <glyph glyph-name="grave.cap" horiz-adv-x="500" 
d="M301 647h-53l-50 131h58z" />
    <glyph glyph-name="acute.cap" horiz-adv-x="500" 
d="M232 647h-62l92 131h67z" />
    <glyph glyph-name="circumflex.cap" horiz-adv-x="500" 
d="M291 774l90 -133h-61l-53 78l-81 -78h-67l138 133h34z" />
    <glyph glyph-name="tilde.cap" horiz-adv-x="500" 
d="M352 756h47q-10 -56 -34.5 -86.5t-61.5 -30.5q-21 0 -41.5 17t-38 34t-30.5 17q-34 0 -46 -66h-47q10 56 35 86.5t62 30.5q21 0 41.5 -17t38 -34t30.5 -17q34 0 45 66z" />
    <glyph glyph-name="macron.cap" horiz-adv-x="500" 
d="M139 658l9 50h213l-9 -50h-213z" />
    <glyph glyph-name="breve.cap" horiz-adv-x="500" 
d="M310 773h52q-24 -126 -132 -126q-44 0 -68.5 24t-24.5 65q0 21 4 37h51q-3 -15 -3 -33q0 -21 11.5 -34.5t32.5 -13.5q32 0 49.5 20.5t27.5 60.5z" />
    <glyph glyph-name="invertedbreve.cap" horiz-adv-x="500" 
d="M189 647h-52q24 126 132 126q44 0 68.5 -24t24.5 -65q0 -21 -4 -37h-51q3 15 3 33q0 21 -11.5 34.5t-32.5 13.5q-32 0 -49.5 -20.5t-27.5 -60.5z" />
    <glyph glyph-name="dotaccent.cap" horiz-adv-x="500" 
d="M250 641q-18 0 -31.5 13.5t-13.5 31.5q0 19 13.5 32t31.5 13q19 0 32 -13t13 -32q0 -18 -13 -31.5t-32 -13.5z" />
    <glyph glyph-name="dieresis.cap" horiz-adv-x="500" 
d="M171 641q-18 0 -31.5 13.5t-13.5 31.5q0 19 13.5 32t31.5 13q19 0 32 -13t13 -32q0 -18 -13 -31.5t-32 -13.5zM329 641q-18 0 -31.5 13.5t-13.5 31.5q0 19 13.5 32t31.5 13q19 0 32 -13t13 -32q0 -18 -13 -31.5t-32 -13.5z" />
    <glyph glyph-name="ring.cap" horiz-adv-x="500" 
d="M244 634q-35 0 -57 22t-22 56q0 38 26 62t64 24q36 0 57.5 -22t21.5 -56q0 -38 -26 -62t-64 -24zM246 672q21 0 34.5 12.5t13.5 35.5q0 16 -10.5 28t-30.5 12q-21 0 -34.5 -12.5t-13.5 -35.5q0 -16 10.5 -28t30.5 -12z" />
    <glyph glyph-name="hungarumlaut.cap" horiz-adv-x="500" 
d="M172 647h-58l92 131h63zM289 647h-58l92 131h63z" />
    <glyph glyph-name="doublegrave.cap" horiz-adv-x="500" 
d="M349 647h-49l-50 131h53zM249 647h-49l-50 131h53z" />
    <glyph glyph-name="caron.cap" horiz-adv-x="500" 
d="M209 644l-90 133h61l53 -78l81 78h67l-138 -133h-34z" />
    <glyph glyph-name="exclamdown.cap" horiz-adv-x="269" 
d="M74 0l75 426h59l-75 -426h-59zM248 554q0 -20 -14.5 -34.5t-34.5 -14.5t-35 14.5t-15 34.5t15 35t35 15t34.5 -15t14.5 -35z" />
    <glyph glyph-name="questiondown.cap" horiz-adv-x="380" 
d="M343 121l-13 -73q-63 -58 -151 -58q-75 0 -116 39.5t-41 106.5q0 44 17 79.5t48.5 59.5t64 40t76.5 30l14 80h59l-21 -113q-95 -30 -146 -68t-51 -108q0 -41 27.5 -66t71.5 -25q83 0 161 76zM336 553q0 -20 -14.5 -34.5t-34.5 -14.5t-35 14.5t-15 34.5t15 35t35 15
t34.5 -15t14.5 -35z" />
    <glyph glyph-name="guilsinglleft.cap" horiz-adv-x="310" 
d="M284 453l-146 -161l91 -155h-62l-95 157l145 159h67z" />
    <glyph glyph-name="guilsinglright.cap" horiz-adv-x="310" 
d="M69 137l146 161l-91 155h62l95 -157l-145 -159h-67z" />
    <glyph glyph-name="guillemotleft.cap" horiz-adv-x="448" 
d="M284 453l-146 -161l91 -155h-62l-95 157l145 159h67zM422 453l-146 -161l91 -155h-62l-95 157l145 159h67z" />
    <glyph glyph-name="guillemotright.cap" horiz-adv-x="448" 
d="M69 137l146 161l-91 155h62l95 -157l-145 -159h-67zM207 137l146 161l-91 155h62l95 -157l-145 -159h-67z" />
    <glyph glyph-name="slash.cap" horiz-adv-x="449" 
d="M5 -100l436 780h60l-437 -780h-59z" />
    <glyph glyph-name="backslash.cap" horiz-adv-x="424" 
d="M175 680l167 -780h-53l-167 780h53z" />
    <glyph glyph-name="bar.cap" horiz-adv-x="257" 
d="M54 -100l137 780h53l-137 -780h-53z" />
    <glyph glyph-name="doublebar.cap" horiz-adv-x="379" 
d="M54 -100l137 780h53l-137 -780h-53zM176 -100l137 780h53l-137 -780h-53z" />
    <glyph glyph-name="brokenbar.cap" horiz-adv-x="257" 
d="M135 359l56 321h53l-56 -321h-53zM54 -100l56 321h53l-56 -321h-53z" />
    <glyph glyph-name="bullet.cap" horiz-adv-x="320" 
d="M80 294q0 38 26 64t64 26t64 -26t26 -64t-26 -64t-64 -26t-64 26t-26 64z" />
    <glyph glyph-name="periodcentered.cap" horiz-adv-x="239" 
d="M83 295q0 20 14.5 34.5t34.5 14.5t35 -14.5t15 -34.5t-15 -35t-35 -15t-34.5 15t-14.5 35z" />
    <glyph glyph-name="hyphen.cap" horiz-adv-x="355" 
d="M80 267l10 54h215l-10 -54h-215z" />
    <glyph glyph-name="endash.cap" horiz-adv-x="572" 
d="M80 270l8 48h432l-8 -48h-432z" />
    <glyph glyph-name="emdash.cap" horiz-adv-x="952" 
d="M80 270l8 48h812l-8 -48h-812z" />
    <glyph glyph-name="parenleft.cap" horiz-adv-x="316" 
d="M243 -100h-65q-133 128 -133 316q0 144 76.5 265t190.5 199h74q-287 -205 -287 -464q0 -98 38 -172.5t106 -143.5z" />
    <glyph glyph-name="parenright.cap" horiz-adv-x="316" 
d="M105 680h65q133 -128 133 -316q0 -144 -76.5 -265t-190.5 -199h-74q287 205 287 464q0 98 -38 172.5t-106 143.5z" />
    <glyph glyph-name="bracketleft.cap" horiz-adv-x="334" 
d="M229 633l-122 -686h137l-8 -47h-189l137 780h189l-8 -47h-136z" />
    <glyph glyph-name="bracketright.cap" horiz-adv-x="334" 
d="M147 -53l122 686h-137l8 47h189l-137 -780h-189l8 47h136z" />
    <glyph glyph-name="braceleft.cap" horiz-adv-x="335" 
d="M252 541l-23 -135q-10 -53 -41 -82t-66 -34q28 -3 48 -25.5t20 -62.5q0 -26 -15 -99.5t-15 -93.5q0 -62 63 -62h24l-8 -47h-21q-110 0 -110 98q0 28 15 103.5t15 98.5q0 67 -69 67h-30l8 46h30q36 0 63 22.5t36 72.5l23 133q12 70 47.5 104.5t102.5 34.5h27l-8 -47h-24
q-77 0 -92 -92z" />
    <glyph glyph-name="braceright.cap" horiz-adv-x="335" 
d="M118 39l23 135q10 53 41 82t66 34q-28 3 -48 25.5t-20 62.5q0 26 15 99.5t15 93.5q0 62 -63 62h-24l8 47h21q110 0 110 -98q0 -28 -15 -103.5t-15 -98.5q0 -67 69 -67h30l-8 -46h-30q-36 0 -63 -22.5t-36 -72.5l-23 -133q-12 -70 -47.5 -104.5t-102.5 -34.5h-27l8 47h24
q77 0 92 92z" />
    <glyph glyph-name="at.cap" horiz-adv-x="768" 
d="M596 443l-52 -290q67 20 109.5 76.5t42.5 144.5q0 100 -68 161.5t-184 61.5q-143 0 -233.5 -95t-90.5 -238q0 -63 19.5 -113.5t50.5 -82.5t72.5 -53.5t84 -30.5t86.5 -9q122 0 208 43l-3 -50q-75 -41 -205 -41q-53 0 -103 10.5t-99 35.5t-85 62.5t-58.5 96.5t-22.5 132
q0 161 106.5 271t272.5 110q143 0 224.5 -75t81.5 -196q0 -135 -92 -209.5t-227 -74.5q-96 0 -149.5 47.5t-53.5 129.5q0 94 61 153.5t163 59.5q86 0 144 -37zM492 143l48 268q-33 19 -90 19q-78 0 -123.5 -43t-45.5 -120q0 -65 43 -97.5t109 -32.5q29 0 59 6z" />
    <glyph glyph-name="zero.inf" horiz-adv-x="311" 
d="M101 -186q-53 0 -82 38.5t-29 99.5q0 87 42.5 145.5t106.5 58.5q53 0 82 -38t29 -99q0 -87 -42.5 -146t-106.5 -59zM103 -139q39 0 65.5 45.5t26.5 112.5q0 41 -15 65.5t-43 24.5q-39 0 -65.5 -45t-26.5 -112q0 -41 15 -66t43 -25z" />
    <glyph glyph-name="one.inf" horiz-adv-x="192" 
d="M-3 85l10 51l123 20l-59 -336h-55l49 275z" />
    <glyph glyph-name="two.inf" horiz-adv-x="258" 
d="M35 -131h145l-9 -49h-218l8 44q47 33 71.5 51.5t56 46t45.5 52t14 48.5q0 44 -46 44t-97 -41l10 56q43 35 101 35q45 0 68 -22t23 -62q0 -95 -172 -203z" />
    <glyph glyph-name="three.inf" horiz-adv-x="243" 
d="M3 73l9 52q36 31 90 31q42 0 64.5 -21t22.5 -56q0 -37 -23.5 -61t-59.5 -31q28 -7 45 -26t17 -47q0 -45 -34 -72.5t-87 -27.5q-58 0 -91 29l9 49q37 -32 80 -32q30 0 49 14.5t19 39.5q0 45 -74 51l7 42q86 7 86 64q0 37 -42 37q-40 0 -87 -35z" />
    <glyph glyph-name="four.inf" horiz-adv-x="309" 
d="M228 151l-36 -202h55l-8 -44h-55l-15 -85h-52l15 85h-160l8 45l192 201h56zM164 88l-131 -139h107z" />
    <glyph glyph-name="five.inf" horiz-adv-x="244" 
d="M82 102l-19 -73q109 -18 109 -103q0 -50 -34 -81t-91 -31q-56 0 -89 30l9 48q36 -32 80 -32q33 0 52.5 15.5t19.5 45.5q0 59 -112 70l38 160h159l-9 -49h-113z" />
    <glyph glyph-name="six.inf" horiz-adv-x="283" 
d="M132 151h64l-85 -98l-33 -27q14 8 37 8q45 0 72 -28t27 -74q0 -51 -34 -84.5t-87 -33.5q-52 0 -82.5 29.5t-30.5 76.5q0 56 62 128zM101 -8q-30 0 -49 -20t-19 -52q0 -27 17 -44t44 -17q30 0 49 20t19 52q0 27 -17 44t-44 17z" />
    <glyph glyph-name="seven.inf" horiz-adv-x="254" 
d="M155 102h-158l9 49h218l-9 -49l-186 -282h-61z" />
    <glyph glyph-name="eight.inf" horiz-adv-x="278" 
d="M92 -186q-49 0 -81 24t-32 68q0 36 24.5 60t57.5 30q-44 21 -44 67q0 43 29.5 68t70.5 25q42 0 69 -22.5t27 -62.5q0 -31 -17.5 -53t-44.5 -29q55 -24 55 -76q0 -46 -33 -72.5t-81 -26.5zM113 16q21 0 36 14t15 37q0 20 -13.5 33t-33.5 13q-21 0 -35.5 -14t-14.5 -37
q0 -20 13.5 -33t32.5 -13zM92 -143q26 0 43.5 16t17.5 43q0 24 -16.5 38.5t-42.5 14.5q-25 0 -43 -16t-18 -43q0 -23 16.5 -38t42.5 -15z" />
    <glyph glyph-name="nine.inf" horiz-adv-x="283" 
d="M76 -181h-64l85 98l33 27q-14 -8 -37 -8q-45 0 -72 28t-27 74q0 51 34 84.5t87 33.5q52 0 82.5 -29.5t30.5 -76.5q0 -56 -62 -128zM107 -22q30 0 49 20t19 52q0 27 -17 44t-44 17q-30 0 -49 -20t-19 -52q0 -27 17 -44t44 -17z" />
    </font>
</defs>
</svg>
