<?xml version="1.0" standalone="no"?>
<!DOCTYPE svg PUBLIC "-//W3C//DTD SVG 1.1//EN" "http://www.w3.org/Graphics/SVG/1.1/DTD/svg11.dtd" >
<svg xmlns="http://www.w3.org/2000/svg" xmlns:xlink="http://www.w3.org/1999/xlink" version="1.1">
<metadata>
Created by FontForge 20170731 at Fri Aug  7 14:23:47 2009
 By Aleksey,,,
Copyright (c) 2009 by Kris Sowersby. All rights reserved.
</metadata>
<defs>
<font id="Karbon-Medium" horiz-adv-x="520" >
  <font-face 
    font-family="Karbon Medium"
    font-weight="700"
    font-stretch="normal"
    units-per-em="1000"
    panose-1="0 0 6 0 0 0 0 0 0 0"
    ascent="680"
    descent="-320"
    x-height="443"
    cap-height="594"
    bbox="-112 -190 1061 863"
    underline-thickness="50"
    underline-position="-200"
    unicode-range="U+0020-FB04"
  />
<missing-glyph horiz-adv-x="190" 
 />
    <glyph glyph-name="ff" unicode="ff" horiz-adv-x="575" 
d="M181 360v-360h-98v360h-69v83h69v73q0 78 40 119t108 41q41 0 71 -16v-90q-24 17 -60 17q-61 0 -61 -75v-69h179v83q0 81 40.5 122.5t112.5 41.5q50 0 87 -22v-92q-40 25 -77 25q-65 0 -65 -75v-83h114v-83h-114v-360h-98v360h-179z" />
    <glyph glyph-name="fi" unicode="fi" horiz-adv-x="527" 
d="M181 360v-360h-98v360h-69v83h69v64q0 87 49.5 135t127.5 48q71 0 115 -31v-94q-49 35 -105 35q-41 0 -65 -24t-24 -70v-63h277v-443h-98v360h-179z" />
    <glyph glyph-name="fl" unicode="fl" horiz-adv-x="527" 
d="M83 443v87q0 78 40 119t108 41q39 0 67 -15v-90q-22 15 -57 15q-60 0 -60 -74v-83h102v-83h-102v-360h-98v360h-69v83h69zM458 680v-680h-98v680h98z" />
    <glyph glyph-name="ffi" unicode="ffi" horiz-adv-x="804" 
d="M458 360v-360h-98v360h-179v-360h-98v360h-69v83h69v73q0 78 40 119t108 41q41 0 71 -16v-90q-24 17 -60 17q-61 0 -61 -75v-69h179v64q0 87 50 135t128 48q69 0 115 -31v-94q-49 35 -106 35q-41 0 -65 -24t-24 -70v-63h278v-443h-99v360h-179z" />
    <glyph glyph-name="ffl" unicode="ffl" horiz-adv-x="804" 
d="M458 360v-360h-98v360h-179v-360h-98v360h-69v83h69v73q0 78 40 119t108 41q41 0 71 -16v-90q-24 17 -60 17q-61 0 -61 -75v-69h179v87q0 78 40 119t108 41q38 0 68 -15v-90q-23 15 -58 15q-60 0 -60 -74v-83h102v-83h-102zM736 680v-680h-99v680h99z" />
    <glyph glyph-name="f_f_j" unicode="ffj" horiz-adv-x="804" 
d="M637 360h-179v-360h-98v360h-179v-360h-98v360h-69v83h69v73q0 78 40 119t108 41q41 0 71 -16v-90q-24 17 -60 17q-61 0 -61 -75v-69h179v64q0 87 50 135t128 48q69 0 115 -31v-94q-49 35 -106 35q-41 0 -65 -24t-24 -70v-63h278v-489q0 -71 -39.5 -107.5t-111.5 -36.5
q-42 0 -75 14v85q32 -15 65 -15q31 0 46.5 16t15.5 57v393z" />
    <glyph glyph-name="f_j" unicode="fj" horiz-adv-x="527" 
d="M360 -33v393h-179v-360h-98v360h-69v83h69v64q0 87 49.5 135t127.5 48q71 0 115 -31v-94q-49 35 -105 35q-41 0 -65 -24t-24 -70v-63h277v-489q0 -71 -39 -107.5t-111 -36.5q-42 0 -75 14v85q32 -15 65 -15q31 0 46.5 16t15.5 57z" />
    <glyph glyph-name="f_b" unicode="fb" horiz-adv-x="819" 
d="M83 443v87q0 78 40 119t108 41q39 0 67 -15v-90q-22 15 -57 15q-60 0 -60 -74v-83h102v-83h-102v-360h-98v360h-69v83h69zM360 19v661h99v-249q42 22 101 22q99 0 161.5 -60t62.5 -164q0 -109 -69 -174t-190 -65q-83 0 -165 29zM459 343v-259q29 -9 69 -9q71 0 113.5 39
t42.5 113q0 63 -39 100t-97 37q-51 0 -89 -21z" />
    <glyph glyph-name="f_k" unicode="fk" horiz-adv-x="781" 
d="M83 443v87q0 78 40 119t108 41q39 0 67 -15v-90q-22 15 -57 15q-60 0 -60 -74v-83h102v-83h-102v-360h-98v360h-69v83h69zM658 0l-195 240l187 203h122l-195 -201l199 -242h-118zM459 680v-680h-99v680h99z" />
    <glyph glyph-name="f_h" unicode="fh" horiz-adv-x="811" 
d="M83 443v87q0 78 40 119t108 41q39 0 67 -15v-90q-22 15 -57 15q-60 0 -60 -74v-83h102v-83h-102v-360h-98v360h-69v83h69zM360 0v680h99v-248q53 21 116 21q173 0 173 -168v-285h-98v276q0 87 -95 87q-53 0 -96 -15v-348h-99z" />
    <glyph glyph-name="f_f_b" unicode="ffb" horiz-adv-x="1096" 
d="M458 360v-360h-98v360h-179v-360h-98v360h-69v83h69v73q0 78 40 119t108 41q41 0 71 -16v-90q-24 17 -60 17q-61 0 -61 -75v-69h179v87q0 78 40 119t108 41q38 0 68 -15v-90q-23 15 -58 15q-60 0 -60 -74v-83h102v-83h-102zM637 19v661h99v-249q42 22 101 22
q99 0 161.5 -60t62.5 -164q0 -109 -69 -174t-190 -65q-83 0 -165 29zM736 343v-259q29 -9 69 -9q71 0 113.5 39t42.5 113q0 63 -39 100t-97 37q-51 0 -89 -21z" />
    <glyph glyph-name="f_f_h" unicode="ffh" horiz-adv-x="1088" 
d="M458 360v-360h-98v360h-179v-360h-98v360h-69v83h69v73q0 78 40 119t108 41q41 0 71 -16v-90q-24 17 -60 17q-61 0 -61 -75v-69h179v87q0 78 40 119t108 41q38 0 68 -15v-90q-23 15 -58 15q-60 0 -60 -74v-83h102v-83h-102zM637 0v680h99v-248q52 21 116 21
q173 0 173 -168v-285h-98v276q0 87 -95 87q-53 0 -96 -15v-348h-99z" />
    <glyph glyph-name="f_f_k" unicode="ffk" horiz-adv-x="1058" 
d="M458 360v-360h-98v360h-179v-360h-98v360h-69v83h69v73q0 78 40 119t108 41q41 0 71 -16v-90q-24 17 -60 17q-61 0 -61 -75v-69h179v87q0 78 40 119t108 41q38 0 68 -15v-90q-23 15 -58 15q-60 0 -60 -74v-83h102v-83h-102zM935 0l-195 240l187 203h122l-195 -201
l199 -242h-118zM736 680v-680h-99v680h99z" />
    <glyph glyph-name=".notdef" horiz-adv-x="190" 
 />
    <glyph glyph-name=".null" horiz-adv-x="0" 
 />
    <glyph glyph-name="nonmarkingreturn" horiz-adv-x="333" 
 />
    <glyph glyph-name="space" unicode=" " horiz-adv-x="190" 
 />
    <glyph glyph-name="exclam" unicode="!" horiz-adv-x="263" 
d="M180 594v-408h-97v408h97zM63 60q0 29 20 49t48 20q29 0 49.5 -20.5t20.5 -48.5t-20.5 -48.5t-49.5 -20.5q-28 0 -48 20t-20 49z" />
    <glyph glyph-name="quotedbl" unicode="&#x22;" horiz-adv-x="340" 
d="M55 423l20 221h87l-34 -221h-73zM187 423l20 221h87l-35 -221h-72z" />
    <glyph glyph-name="numbersign" unicode="#" horiz-adv-x="528" 
d="M183 162l-33 -162h-79l33 162h-74v71h88l26 129h-82v71h96l33 161h79l-33 -161h111l33 161h79l-33 -161h71v-71h-85l-26 -129h79v-71h-93l-33 -162h-79l33 162h-111zM197 233h111l26 129h-111z" />
    <glyph glyph-name="dollar" unicode="$" horiz-adv-x="435" 
d="M181 -95v95q-88 4 -151 50v102q87 -67 165 -67q51 0 83 19t32 60q0 40 -27.5 59.5t-87.5 34.5q-90 24 -131 62.5t-41 109.5q0 67 44.5 110t113.5 52v88h78v-89q64 -7 116 -41v-99q-75 58 -157 58q-43 0 -68.5 -19.5t-25.5 -54.5q0 -37 24.5 -54t89.5 -34
q92 -26 133 -66.5t41 -113.5q0 -68 -41.5 -108.5t-111.5 -53.5v-100h-78z" />
    <glyph glyph-name="percent" unicode="%" horiz-adv-x="694" 
d="M31 459q0 63 41.5 104t102.5 41t103 -41t42 -104t-42 -103.5t-103 -40.5t-102.5 40.5t-41.5 103.5zM109 459q0 -32 18.5 -51t47.5 -19q30 0 49 19t19 51q0 33 -19 52t-49 19q-29 0 -47.5 -19t-18.5 -52zM663 134q0 -62 -42 -103t-103 -41q-60 0 -102 41t-42 103
q0 63 42 104t102 41q61 0 103 -41t42 -104zM586 134q0 34 -19 52.5t-49 18.5q-29 0 -47.5 -18.5t-18.5 -52.5q0 -32 18.5 -50.5t47.5 -18.5q30 0 49 18.5t19 50.5zM563 594l-357 -594h-75l357 594h75z" />
    <glyph glyph-name="ampersand" unicode="&#x26;" horiz-adv-x="575" 
d="M155 316l-7 8q-62 64 -62 136q0 64 43.5 104t115.5 40t116 -38.5t44 -103.5q0 -100 -109 -160l113 -121q29 55 32 120h85q-2 -102 -59 -183l110 -118h-119l-51 54q-81 -63 -182 -63q-90 0 -143 43.5t-53 119.5q0 58 31.5 95t94.5 67zM227 376l18 -19q69 36 69 102
q0 30 -18.5 47.5t-49.5 18.5q-30 0 -47.5 -18t-17.5 -46q0 -36 46 -85zM352 111l-145 151q-79 -38 -79 -105q0 -40 28 -63.5t76 -23.5q66 0 120 41z" />
    <glyph glyph-name="quotesingle" unicode="'" horiz-adv-x="208" 
d="M55 423l20 221h87l-34 -221h-73z" />
    <glyph glyph-name="parenleft" unicode="(" horiz-adv-x="364" 
d="M354 -139h-108q-79 75 -127 182.5t-48 226.5t48 227t127 183h108q-187 -185 -187 -410q0 -224 187 -409z" />
    <glyph glyph-name="parenright" unicode=")" horiz-adv-x="364" 
d="M10 680h108q79 -75 127 -183t48 -227t-48 -226.5t-127 -182.5h-108q187 185 187 409q0 225 -187 410z" />
    <glyph glyph-name="asterisk" unicode="*" horiz-adv-x="366" 
d="M185 470l-60 -85l-58 41l62 84l-99 31l21 69l99 -35l-2 105h74l-3 -105l99 35l22 -69l-100 -31l63 -83l-58 -43z" />
    <glyph glyph-name="plus" unicode="+" horiz-adv-x="459" 
d="M191 254h-151v77h151v151h77v-151h151v-77h-151v-151h-77v151z" />
    <glyph glyph-name="comma" unicode="," horiz-adv-x="255" 
d="M78 101h104q0 -71 -29 -130t-72 -89h-73q70 89 70 219z" />
    <glyph glyph-name="hyphen" unicode="-" horiz-adv-x="355" 
d="M53 216v88h249v-88h-249z" />
    <glyph glyph-name="period" unicode="." horiz-adv-x="255" 
d="M59 60q0 29 20 49t48 20q29 0 49.5 -20t20.5 -49t-20.5 -49t-49.5 -20q-28 0 -48 20t-20 49z" />
    <glyph glyph-name="slash" unicode="/" horiz-adv-x="429" 
d="M0 -138l314 818h99l-314 -818h-99z" />
    <glyph glyph-name="zero" unicode="0" horiz-adv-x="534" 
d="M39 297q0 136 62.5 221.5t165.5 85.5t165.5 -85.5t62.5 -221.5t-62.5 -221.5t-165.5 -85.5t-165.5 85.5t-62.5 221.5zM141 297q0 -102 34.5 -161t91.5 -59q58 0 92.5 59t34.5 161t-34.5 161t-92.5 59q-57 0 -91.5 -59t-34.5 -161z" />
    <glyph glyph-name="one" unicode="1" horiz-adv-x="318" 
d="M18 475v91l217 37v-603h-101v491z" />
    <glyph glyph-name="two" unicode="2" horiz-adv-x="435" 
d="M142 90h261v-90h-393v75q56 48 84.5 73.5t71 67.5t63 70.5t37 64t16.5 66.5q0 47 -26 70t-71 23q-81 0 -158 -73v101q71 66 179 66q80 0 131 -45t51 -129q0 -157 -246 -340z" />
    <glyph glyph-name="three" unicode="3" horiz-adv-x="409" 
d="M29 443v99q67 62 164 62q82 0 128 -42t46 -110q0 -55 -32.5 -95.5t-85.5 -54.5q60 -12 95 -50.5t35 -96.5q0 -76 -57.5 -120.5t-147.5 -44.5q-96 0 -154 43v95q70 -54 148 -54q49 0 79 23t30 63q0 47 -34 69.5t-113 30.5v76q134 18 134 106q0 34 -23.5 53.5t-59.5 19.5
q-76 0 -152 -72z" />
    <glyph glyph-name="four" unicode="4" horiz-adv-x="531" 
d="M408 594v-361h97v-81h-97v-152h-98v152h-286v83l280 359h104zM310 480l-187 -247h187v247z" />
    <glyph glyph-name="five" unicode="5" horiz-adv-x="411" 
d="M158 504l-9 -128q227 -30 227 -200q0 -84 -57 -135t-159 -51q-87 0 -143 41v92q69 -49 139 -49q59 0 91 25.5t32 73.5q0 63 -59 91t-165 39l21 291h286v-90h-204z" />
    <glyph glyph-name="six" unicode="6" horiz-adv-x="479" 
d="M227 594h106l-106 -169l-46 -68q30 30 80 30q79 0 135.5 -52t56.5 -143q0 -86 -58.5 -144t-155.5 -58q-95 0 -150.5 58t-55.5 144q0 88 71 204zM129 190q0 -53 32 -84.5t80 -31.5q50 0 82 31.5t32 84.5t-32 84.5t-81 31.5t-81 -31.5t-32 -84.5z" />
    <glyph glyph-name="seven" unicode="7" horiz-adv-x="425" 
d="M287 504h-276v90h383v-91l-242 -503h-105z" />
    <glyph glyph-name="eight" unicode="8" horiz-adv-x="469" 
d="M235 -10q-88 0 -146 46.5t-58 125.5q0 56 34.5 95t81.5 51q-39 15 -63.5 50.5t-24.5 83.5q0 75 50.5 118.5t125.5 43.5t125 -43.5t50 -118.5q0 -48 -24.5 -83.5t-62.5 -50.5q46 -12 80.5 -51.5t34.5 -94.5q0 -79 -57.5 -125.5t-145.5 -46.5zM235 355q36 0 59.5 22.5
t23.5 60.5q0 39 -23.5 61.5t-59.5 22.5t-60 -22.5t-24 -61.5q0 -38 24 -60.5t60 -22.5zM235 72q45 0 74 25t29 69q0 45 -29.5 71.5t-73.5 26.5q-45 0 -74 -26.5t-29 -71.5q0 -44 29 -69t74 -25z" />
    <glyph glyph-name="nine" unicode="9" horiz-adv-x="479" 
d="M252 0h-106l106 169l46 68q-30 -30 -80 -30q-79 0 -135.5 52t-56.5 143q0 86 58.5 144t155.5 58q95 0 150.5 -58t55.5 -144q0 -88 -71 -204zM350 404q0 53 -32 84.5t-80 31.5q-50 0 -82 -31.5t-32 -84.5t32 -84.5t81 -31.5t81 31.5t32 84.5z" />
    <glyph glyph-name="colon" unicode=":" horiz-adv-x="255" 
d="M59 60q0 29 20 49t48 20q29 0 49.5 -20t20.5 -49t-20.5 -49t-49.5 -20q-28 0 -48 20t-20 49zM59 359q0 29 20 49t48 20q29 0 49.5 -20t20.5 -49t-20.5 -49t-49.5 -20q-28 0 -48 20t-20 49z" />
    <glyph glyph-name="semicolon" unicode=";" horiz-adv-x="255" 
d="M78 101h104q0 -71 -29 -130t-72 -89h-73q70 89 70 219zM63 359q0 29 20 49t48 20q29 0 49.5 -20t20.5 -49t-20.5 -49t-49.5 -20q-28 0 -48 20t-20 49z" />
    <glyph glyph-name="less" unicode="&#x3c;" horiz-adv-x="343" 
d="M25 287v8l278 173v-89l-150 -88l150 -88v-89z" />
    <glyph glyph-name="equal" unicode="=" horiz-adv-x="469" 
d="M45 188v72h379v-72h-379zM45 327v72h379v-72h-379z" />
    <glyph glyph-name="greater" unicode="&#x3e;" horiz-adv-x="343" 
d="M318 295v-8l-278 -173v89l150 88l-150 88v89z" />
    <glyph glyph-name="question" unicode="?" horiz-adv-x="381" 
d="M20 446v96q60 62 161 62q83 0 132 -45t49 -124q0 -131 -162 -180v-69h-93v116q84 26 120.5 51.5t36.5 76.5q0 39 -27 62t-67 23q-74 0 -150 -69zM87 59q0 29 19.5 49.5t47.5 20.5q30 0 50.5 -20.5t20.5 -49.5q0 -28 -20.5 -48t-50.5 -20q-28 0 -47.5 20t-19.5 48z" />
    <glyph glyph-name="at" unicode="@" horiz-adv-x="772" 
d="M550 390v-291q109 45 109 186q0 108 -67.5 170t-183.5 62q-138 0 -219 -84t-81 -218q0 -81 29.5 -141.5t79.5 -94t106.5 -49.5t119.5 -16q108 0 200 35v-60q-82 -34 -200 -34q-80 0 -149.5 21t-127 62.5t-90.5 112.5t-33 164q0 156 99 258t266 102q148 0 233 -80t85 -210
q0 -129 -82 -199.5t-214 -70.5q-102 0 -162.5 52t-60.5 146q0 92 59 146.5t155 54.5q71 0 129 -24zM471 90v240q-17 6 -50 6q-59 0 -94 -34t-35 -89q0 -58 36 -92t97 -34q30 0 46 3z" />
    <glyph glyph-name="A" unicode="A" horiz-adv-x="599" 
d="M430 140h-265l-52 -140h-108l231 594h125l232 -594h-111zM399 224l-101 274l-102 -274h203z" />
    <glyph glyph-name="B" unicode="B" horiz-adv-x="509" 
d="M74 2v590q86 12 149 12q225 0 225 -165q0 -54 -32.5 -89.5t-83.5 -43.5q65 -5 103.5 -42.5t38.5 -100.5q0 -172 -261 -172q-67 0 -139 11zM173 257v-179q29 -3 53 -3q145 0 145 93q0 89 -134 89h-64zM173 515v-175h48q126 0 126 93q0 86 -118 86q-24 0 -56 -4z" />
    <glyph glyph-name="C" unicode="C" horiz-adv-x="555" 
d="M509 562v-112q-65 62 -164 62q-88 0 -144.5 -59.5t-56.5 -155.5q0 -97 58 -156t146 -59q98 0 168 61v-109q-74 -44 -171 -44q-137 0 -221.5 85.5t-84.5 221.5t86 221.5t220 85.5q94 0 164 -42z" />
    <glyph glyph-name="D" unicode="D" horiz-adv-x="620" 
d="M74 2v591q81 11 158 11q172 0 260.5 -80.5t88.5 -216.5q0 -146 -89 -231t-258 -85q-91 0 -160 11zM176 507v-423q29 -4 67 -4q107 0 169.5 57t62.5 170q0 97 -61 150t-178 53q-30 0 -60 -3z" />
    <glyph glyph-name="E" unicode="E" horiz-adv-x="490" 
d="M175 90h268v-90h-369v594h363v-90h-262v-160h243v-88h-243v-166z" />
    <glyph glyph-name="F" unicode="F" horiz-adv-x="437" 
d="M176 0h-102v594h330v-90h-228v-173h206v-90h-206v-241z" />
    <glyph glyph-name="G" unicode="G" horiz-adv-x="590" 
d="M519 559v-109q-67 62 -168 62q-91 0 -149 -59t-58 -156t59 -157.5t148 -60.5q54 0 88 14v180h102v-239q-71 -44 -192 -44q-139 0 -224.5 84t-85.5 223q0 135 87 221t220 86q99 0 173 -45z" />
    <glyph glyph-name="H" unicode="H" horiz-adv-x="659" 
d="M483 344v250h102v-594h-102v254h-307v-254h-102v594h102v-250h307z" />
    <glyph glyph-name="I" unicode="I" horiz-adv-x="250" 
d="M176 594v-594h-102v594h102z" />
    <glyph glyph-name="J" unicode="J" horiz-adv-x="378" 
d="M17 33v105q54 -56 121 -56q39 0 57.5 19t18.5 64v429h102v-442q0 -79 -45 -120.5t-124 -41.5t-130 43z" />
    <glyph glyph-name="K" unicode="K" horiz-adv-x="546" 
d="M74 0v594h102v-594h-102zM180 293l227 301h122l-233 -292l249 -302h-124z" />
    <glyph glyph-name="L" unicode="L" horiz-adv-x="438" 
d="M74 0v594h102v-504h242v-90h-344z" />
    <glyph glyph-name="M" unicode="M" horiz-adv-x="794" 
d="M446 0h-100l-141 460l-72 -460h-101l95 594h127l144 -471l141 471h128l94 -594h-102l-72 460z" />
    <glyph glyph-name="N" unicode="N" horiz-adv-x="650" 
d="M178 594l299 -439v439h99v-594h-98l-305 435v-435h-99v594h104z" />
    <glyph glyph-name="O" unicode="O" horiz-adv-x="694" 
d="M39 297q0 135 88.5 221t219.5 86q130 0 219 -86t89 -221t-89 -221t-219 -86q-131 0 -219.5 86t-88.5 221zM550 297q0 96 -58 155.5t-145 59.5t-145 -59.5t-58 -155.5t58 -155.5t145 -59.5t145 59.5t58 155.5z" />
    <glyph glyph-name="P" unicode="P" horiz-adv-x="484" 
d="M176 200v-200h-102v592q76 12 146 12q117 0 179.5 -52t62.5 -150q0 -101 -66 -152.5t-175 -51.5q-19 0 -45 2zM176 511v-224q18 -2 38 -2q145 0 145 117q0 53 -35.5 82.5t-104.5 29.5q-23 0 -43 -3z" />
    <glyph glyph-name="Q" unicode="Q" horiz-adv-x="694" 
d="M453 -141l-119 131q-126 5 -210.5 90.5t-84.5 216.5q0 135 88.5 221t219.5 86q130 0 219 -86t89 -221q0 -107 -58 -185.5t-152 -107.5l132 -145h-124zM550 297q0 96 -58 155.5t-145 59.5t-145 -59.5t-58 -155.5t58 -155.5t145 -59.5t145 59.5t58 155.5z" />
    <glyph glyph-name="R" unicode="R" horiz-adv-x="524" 
d="M176 211v-211h-102v593q66 11 148 11q117 0 179 -50t62 -144q0 -63 -32.5 -109.5t-85.5 -66.5l179 -234h-123l-158 211h-67zM176 513v-218h50q63 0 98 28t35 84q0 52 -35 80t-102 28q-24 0 -46 -2z" />
    <glyph glyph-name="S" unicode="S" horiz-adv-x="442" 
d="M40 34v104q80 -61 157 -61q48 0 79 20.5t31 62.5q0 38 -26.5 58.5t-82.5 37.5q-89 28 -127.5 68t-38.5 113q0 78 54.5 122.5t134.5 44.5q85 0 152 -45v-102q-74 60 -149 60q-42 0 -67 -21t-25 -56q0 -34 24.5 -53.5t84.5 -38.5q89 -27 127.5 -69t38.5 -116
q0 -85 -58.5 -129t-150.5 -44q-94 0 -158 44z" />
    <glyph glyph-name="T" unicode="T" horiz-adv-x="507" 
d="M305 504v-504h-102v504h-188v90h477v-90h-187z" />
    <glyph glyph-name="U" unicode="U" horiz-adv-x="606" 
d="M63 203v391h102v-373q0 -80 38 -112t110 -32q59 0 117 10v507h102v-577q-99 -27 -219 -27q-250 0 -250 213z" />
    <glyph glyph-name="V" unicode="V" horiz-adv-x="585" 
d="M354 0h-123l-226 594h111l178 -491l177 491h109z" />
    <glyph glyph-name="W" unicode="W" horiz-adv-x="815" 
d="M354 594h109l119 -483l118 483h100l-152 -594h-130l-111 459l-112 -459h-129l-151 594h103l118 -483z" />
    <glyph glyph-name="X" unicode="X" horiz-adv-x="552" 
d="M531 594l-196 -286l212 -308h-118l-153 227l-156 -227h-115l213 308l-197 286h119l138 -207l139 207h114z" />
    <glyph glyph-name="Y" unicode="Y" horiz-adv-x="542" 
d="M272 323l152 271h113l-215 -367v-227h-102v227l-215 367h113z" />
    <glyph glyph-name="Z" unicode="Z" horiz-adv-x="493" 
d="M37 504v90h420v-89l-314 -415h323v-90h-438v90l309 414h-300z" />
    <glyph glyph-name="bracketleft" unicode="[" horiz-adv-x="339" 
d="M183 603v-664h106v-77h-196v818h196v-77h-106z" />
    <glyph glyph-name="backslash" unicode="\" horiz-adv-x="429" 
d="M115 680l314 -818h-99l-314 818h99z" />
    <glyph glyph-name="bracketright" unicode="]" horiz-adv-x="339" 
d="M156 -61v664h-106v77h196v-818h-196v77h106z" />
    <glyph glyph-name="asciicircum" unicode="^" horiz-adv-x="435" 
d="M263 594l152 -256h-97l-101 172l-100 -172h-97l151 256h92z" />
    <glyph glyph-name="underscore" unicode="_" horiz-adv-x="462" 
d="M50 -144v79h362v-79h-362z" />
    <glyph glyph-name="grave" unicode="`" horiz-adv-x="500" 
d="M338 513h-91l-85 152h91z" />
    <glyph glyph-name="a" unicode="a" horiz-adv-x="449" 
d="M291 260v37q0 35 -23 52.5t-62 17.5q-65 0 -128 -36v86q64 36 144 36q166 0 166 -151v-293q-69 -18 -152 -18q-199 0 -199 135q0 66 53.5 100t151.5 34h49zM291 70v124h-42q-114 0 -114 -65q0 -64 102 -64q24 0 54 5z" />
    <glyph glyph-name="b" unicode="b" horiz-adv-x="527" 
d="M68 19v661h99v-249q42 22 101 22q99 0 161.5 -60t62.5 -164q0 -109 -69 -174t-190 -65q-83 0 -165 29zM167 343v-259q29 -9 69 -9q71 0 113.5 39t42.5 113q0 63 -39 100t-97 37q-51 0 -89 -21z" />
    <glyph glyph-name="c" unicode="c" horiz-adv-x="436" 
d="M394 420v-96q-52 41 -117 41q-62 0 -102 -38t-40 -106q0 -65 40.5 -104.5t105.5 -39.5q63 0 118 40v-94q-59 -33 -131 -33q-103 0 -168 63t-65 168t66.5 168.5t166.5 63.5q68 0 126 -33z" />
    <glyph glyph-name="d" unicode="d" horiz-adv-x="526" 
d="M458 680v-671q-75 -19 -167 -19q-118 0 -187 60.5t-69 170.5q0 106 66.5 169t170.5 63q56 0 88 -17v244h98zM360 79v270q-31 17 -82 17q-64 0 -103.5 -38t-39.5 -105q0 -70 42.5 -109t115.5 -39q38 0 67 4z" />
    <glyph glyph-name="e" unicode="e" horiz-adv-x="477" 
d="M439 199h-308v-2q4 -57 46 -89.5t97 -32.5q84 0 149 43v-87q-59 -41 -156 -41q-104 0 -168 62t-64 166q0 105 60.5 170t153.5 65q94 0 142 -55t48 -149v-50zM134 263h212q-3 107 -100 107q-43 0 -72.5 -28.5t-39.5 -78.5z" />
    <glyph glyph-name="f" unicode="f" horiz-adv-x="298" 
d="M181 360v-360h-98v360h-69v83h69v83q0 81 40.5 122.5t112.5 41.5q50 0 87 -22v-91q-38 25 -76 25q-66 0 -66 -75v-84h113v-83h-113z" />
    <glyph glyph-name="g" unicode="g" 
d="M355 8v10q-28 -17 -85 -17q-107 0 -171 58t-64 166q0 106 67.5 167t183.5 61q89 0 167 -32v-419q0 -52 -19 -91t-51 -60t-68.5 -31t-76.5 -10q-79 0 -146 31v91q72 -39 146 -39q51 0 84 28t33 87zM355 99v256q-30 11 -69 11q-71 0 -111 -36.5t-40 -104.5q0 -65 39 -103
t104 -38q37 0 77 15z" />
    <glyph glyph-name="h" unicode="h" horiz-adv-x="519" 
d="M68 0v680h99v-248q53 21 116 21q173 0 173 -168v-285h-98v276q0 87 -95 87q-53 0 -96 -15v-348h-99z" />
    <glyph glyph-name="i" unicode="i" horiz-adv-x="235" 
d="M167 443v-443h-99v443h99zM117 516q-25 0 -43.5 18.5t-18.5 44.5q0 25 18.5 43t43.5 18t43.5 -18t18.5 -43q0 -26 -18.5 -44.5t-43.5 -18.5z" />
    <glyph glyph-name="j" unicode="j" horiz-adv-x="235" 
d="M68 -33v476h99v-489q0 -71 -39.5 -107.5t-110.5 -36.5q-41 0 -76 14v85q32 -15 65 -15q31 0 46.5 16t15.5 57zM117 516q-25 0 -43.5 18.5t-18.5 44.5q0 25 18.5 43t43.5 18t43.5 -18t18.5 -43q0 -26 -18.5 -44.5t-43.5 -18.5z" />
    <glyph glyph-name="k" unicode="k" horiz-adv-x="489" 
d="M366 0l-195 240l187 203h122l-195 -201l199 -242h-118zM167 680v-680h-99v680h99z" />
    <glyph glyph-name="l" unicode="l" horiz-adv-x="235" 
d="M167 680v-680h-99v680h99z" />
    <glyph glyph-name="m" unicode="m" horiz-adv-x="767" 
d="M606 0v284q0 82 -81 82q-56 0 -100 -20q10 -23 10 -56v-290h-98v284q0 82 -81 82q-42 0 -89 -15v-351h-99v414q103 39 192 39q77 0 120 -35q83 35 155 35q83 0 126 -38.5t43 -127.5v-287h-98z" />
    <glyph glyph-name="n" unicode="n" horiz-adv-x="519" 
d="M68 0v415q98 38 203 38q90 0 137.5 -39t47.5 -129v-285h-98v276q0 87 -95 87q-54 0 -96 -13v-350h-99z" />
    <glyph glyph-name="o" unicode="o" horiz-adv-x="527" 
d="M35 221q0 103 64 167.5t164 64.5t164.5 -64.5t64.5 -167.5q0 -102 -64.5 -166.5t-164.5 -64.5t-164 64.5t-64 166.5zM392 221q0 67 -35.5 107t-93.5 40q-56 0 -92 -40t-36 -107q0 -66 36 -106t92 -40q57 0 93 40t36 106z" />
    <glyph glyph-name="p" unicode="p" horiz-adv-x="524" 
d="M66 -180v598q83 35 179 35q112 0 178 -59.5t66 -166.5q0 -112 -65.5 -174.5t-178.5 -62.5q-50 0 -81 12v-182h-98zM164 353v-265q34 -13 75 -13q68 0 109 38.5t41 110.5q0 66 -39 103t-106 37q-47 0 -80 -11z" />
    <glyph glyph-name="q" unicode="q" horiz-adv-x="525" 
d="M458 420v-600h-98v184q-34 -14 -84 -14q-109 0 -175 61.5t-66 169.5q0 107 68.5 169.5t186.5 62.5q90 0 168 -33zM360 90v264q-37 11 -70 11q-73 0 -114 -38t-41 -106q0 -66 40 -105.5t107 -39.5q39 0 78 14z" />
    <glyph glyph-name="r" unicode="r" horiz-adv-x="343" 
d="M167 343v-343h-99v406q78 44 173 44q44 0 85 -11v-96q-36 14 -85 14q-39 0 -74 -14z" />
    <glyph glyph-name="s" unicode="s" horiz-adv-x="391" 
d="M48 26v94q66 -50 135 -50q73 0 73 50q0 26 -18.5 39t-64.5 25q-70 16 -100.5 47t-30.5 88q0 65 43.5 99.5t114.5 34.5q72 0 127 -34v-91q-63 45 -124 45q-31 0 -48.5 -14t-17.5 -36t15.5 -34.5t54.5 -23.5q77 -17 111 -49t34 -91q0 -67 -45.5 -101t-121.5 -34
q-83 0 -137 36z" />
    <glyph glyph-name="t" unicode="t" horiz-adv-x="343" 
d="M8 360v83h67v108h98v-108h126v-83h-126v-211q0 -71 61 -71q39 0 81 25v-89q-46 -24 -107 -24q-59 0 -96 33t-37 104v233h-67z" />
    <glyph glyph-name="u" unicode="u" horiz-adv-x="505" 
d="M436 443v-433q-80 -20 -172 -20q-101 0 -153 38t-52 127v288h98v-281q0 -90 105 -90q37 0 76 6v365h98z" />
    <glyph glyph-name="v" unicode="v" horiz-adv-x="466" 
d="M289 0h-113l-171 443h105l125 -347l124 347h102z" />
    <glyph glyph-name="w" unicode="w" horiz-adv-x="671" 
d="M381 443l94 -340l93 340h98l-130 -443h-111l-90 321l-90 -321h-110l-130 443h102l92 -340l93 340h89z" />
    <glyph glyph-name="x" unicode="x" horiz-adv-x="453" 
d="M437 443l-155 -215l164 -228h-113l-109 155l-109 -155h-108l164 227l-154 216h114l98 -142l96 142h112z" />
    <glyph glyph-name="y" unicode="y" horiz-adv-x="468" 
d="M111 443l126 -349l124 349h102l-240 -623h-97l62 160l-183 463h106z" />
    <glyph glyph-name="z" unicode="z" horiz-adv-x="421" 
d="M392 82v-82h-360v81l230 280h-221v82h339v-83l-233 -278h245z" />
    <glyph glyph-name="braceleft" unicode="{" horiz-adv-x="366" 
d="M238 535v-132q0 -58 -32 -93.5t-75 -38.5q43 -3 75 -38.5t32 -93.5v-132q0 -68 56 -68h30v-77h-39q-138 0 -138 145v136q0 89 -78 89h-29v78h29q78 0 78 89v136q0 145 138 145h39v-77h-30q-56 0 -56 -68z" />
    <glyph glyph-name="bar" unicode="|" horiz-adv-x="281" 
d="M95 -138v818h91v-818h-91z" />
    <glyph glyph-name="braceright" unicode="}" horiz-adv-x="366" 
d="M128 7v132q0 58 32 93.5t75 38.5q-43 3 -75 38.5t-32 93.5v132q0 68 -56 68h-30v77h39q138 0 138 -145v-136q0 -89 78 -89h29v-78h-29q-78 0 -78 -89v-136q0 -145 -138 -145h-39v77h30q56 0 56 68z" />
    <glyph glyph-name="asciitilde" unicode="~" horiz-adv-x="439" 
d="M310 332h76q0 -65 -26 -101t-72 -36q-32 0 -70 29.5t-53 29.5q-35 0 -35 -55h-76q0 65 26 100.5t72 35.5q31 0 69.5 -29t53.5 -29q35 0 35 55z" />
    <glyph glyph-name="uni00A0" unicode="&#xa0;" horiz-adv-x="190" 
 />
    <glyph glyph-name="exclamdown" unicode="&#xa1;" horiz-adv-x="263" 
d="M180 261v-409h-97v409h97zM63 387q0 29 20 49t48 20q29 0 49.5 -20.5t20.5 -48.5t-20.5 -48.5t-49.5 -20.5q-28 0 -48 20t-20 49z" />
    <glyph glyph-name="cent" unicode="&#xa2;" horiz-adv-x="435" 
d="M293 535v-83q53 -6 100 -32v-96q-52 41 -118 41q-62 0 -102 -38t-40 -106q0 -65 41 -104.5t106 -39.5q62 0 117 40v-94q-46 -27 -104 -32v-86h-78v90q-82 15 -131.5 75t-49.5 151t50.5 151.5t130.5 75.5v87h78z" />
    <glyph glyph-name="sterling" unicode="&#xa3;" horiz-adv-x="454" 
d="M110 249h-76v80h76v77q0 96 49.5 147t132.5 51q40 0 74.5 -12.5t52.5 -30.5v-106q-49 55 -119 55q-93 0 -93 -110v-71h139v-80h-139v-5q0 -100 -64 -156h286v-88h-395v88q41 23 58.5 60.5t17.5 100.5z" />
    <glyph glyph-name="currency" unicode="&#xa4;" horiz-adv-x="582" 
d="M57 115l72 74q-35 49 -35 116t36 117l-73 73l45 44l73 -73q50 36 116 36t116 -36l73 72l44 -44l-72 -73q36 -51 36 -116t-36 -117l73 -72l-45 -44l-73 72q-50 -36 -116 -36q-65 0 -117 36l-73 -73zM180 305q0 -50 32 -83.5t79 -33.5t79 33.5t32 83.5t-32 83.5t-79 33.5
t-79 -33.5t-32 -83.5z" />
    <glyph glyph-name="yen" unicode="&#xa5;" horiz-adv-x="522" 
d="M187 285l-172 309h111l137 -263l134 263h110l-172 -309h110v-59h-135v-57h135v-59h-135v-110h-98v110h-135v59h135v57h-135v59h110z" />
    <glyph glyph-name="brokenbar" unicode="&#xa6;" horiz-adv-x="281" 
d="M95 339v341h91v-341h-91zM95 -138v341h91v-341h-91z" />
    <glyph glyph-name="section" unicode="&#xa7;" horiz-adv-x="459" 
d="M90 -82v90q63 -45 126 -45q31 0 48 13.5t17 35.5t-17 36.5t-70 32.5q-85 29 -123 62.5t-38 97.5q0 91 95 133q-50 35 -50 100q0 62 44 96t114 34q72 0 126 -35v-90q-61 45 -123 45q-32 0 -49 -13.5t-17 -35.5t19 -36t73 -33q85 -29 123 -62.5t38 -97.5q0 -92 -97 -133
q48 -35 48 -100q0 -62 -44.5 -96t-113.5 -34q-75 0 -129 35zM239 156l13 -4q83 29 83 88q0 30 -25 49.5t-91 41.5l-12 3q-83 -28 -83 -87q0 -31 23.5 -48t91.5 -43z" />
    <glyph glyph-name="dieresis" unicode="&#xa8;" horiz-adv-x="500" 
d="M164 516q-25 0 -42.5 18t-17.5 42q0 25 17.5 42.5t42.5 17.5t42.5 -17.5t17.5 -42.5q0 -24 -17.5 -42t-42.5 -18zM336 516q-25 0 -42.5 18t-17.5 42q0 25 17.5 42.5t42.5 17.5t42.5 -17.5t17.5 -42.5q0 -24 -17.5 -42t-42.5 -18z" />
    <glyph glyph-name="copyright" unicode="&#xa9;" horiz-adv-x="698" 
d="M45 297q0 131 86.5 219t217.5 88t217.5 -88t86.5 -219t-86.5 -219t-217.5 -88t-217.5 88t-86.5 219zM85 297q0 -118 74.5 -194t189.5 -76t189.5 76t74.5 194t-74.5 194t-189.5 76t-189.5 -76t-74.5 -194zM471 220v-90q-44 -27 -104 -27q-86 0 -139.5 54t-53.5 139
q0 86 54 139.5t139 53.5q58 0 101 -26v-91q-39 39 -98 39q-48 0 -78 -32t-30 -83t30 -83t79 -32q59 0 100 39z" />
    <glyph glyph-name="ordfeminine" unicode="&#xaa;" horiz-adv-x="339" 
d="M222 457v20q0 55 -66 55q-53 0 -99 -28v73q49 27 111 27q135 0 135 -121v-225q-59 -13 -123 -13q-156 0 -156 105q0 52 42 79.5t118 27.5h38zM222 311v90h-33q-81 0 -81 -47q0 -46 73 -46q21 0 41 3z" />
    <glyph glyph-name="guillemotleft" unicode="&#xab;" horiz-adv-x="475" 
d="M267 373l-122 -158l122 -158h-98l-123 158l123 158h98zM429 373l-122 -158l122 -158h-98l-123 158l123 158h98z" />
    <glyph glyph-name="uni00AD" unicode="&#xad;" horiz-adv-x="355" 
d="M53 216v88h249v-88h-249z" />
    <glyph glyph-name="registered" unicode="&#xae;" horiz-adv-x="455" 
d="M227 225q-80 0 -133.5 54.5t-53.5 134.5q0 81 53 135.5t134 54.5t134.5 -54.5t53.5 -135.5q0 -80 -53.5 -134.5t-134.5 -54.5zM227 260q65 0 107 44.5t42 109.5q0 66 -42 110.5t-107 44.5t-106.5 -44.5t-41.5 -110.5q0 -65 42 -109.5t106 -44.5zM207 380v-56h-50v183
q37 7 65 7q37 0 60 -17.5t23 -50.5q0 -41 -36 -56l50 -66h-57l-39 56h-16zM207 467v-46h14q32 0 32 23q0 24 -30 24q-12 0 -16 -1z" />
    <glyph glyph-name="macron" unicode="&#xaf;" horiz-adv-x="500" 
d="M137 527v74h225v-74h-225z" />
    <glyph glyph-name="degree" unicode="&#xb0;" horiz-adv-x="295" 
d="M25 483q0 51 35.5 85.5t87.5 34.5t87 -34.5t35 -85.5t-35 -85.5t-87 -34.5t-87.5 34.5t-35.5 85.5zM85 483q0 -29 17 -47t46 -18t45.5 18.5t16.5 46.5t-16.5 46t-45.5 18t-46 -18t-17 -46z" />
    <glyph glyph-name="plusminus" unicode="&#xb1;" horiz-adv-x="459" 
d="M191 317h-146v76h146v112h77v-112h146v-76h-146v-111h-77v111zM45 88v76h369v-76h-369z" />
    <glyph glyph-name="twosuperior" unicode="&#xb2;" horiz-adv-x="267" 
d="M114 318h135v-70h-239v59q49 40 74.5 63t48.5 54.5t23 55.5q0 46 -48 46q-45 0 -90 -39v75q40 37 109 37q51 0 82 -26.5t31 -76.5q0 -85 -126 -178z" />
    <glyph glyph-name="threesuperior" unicode="&#xb3;" horiz-adv-x="254" 
d="M21 491v75q42 33 101 33q49 0 78 -24t29 -67q0 -31 -19 -54.5t-48 -30.5q33 -8 53 -29.5t20 -53.5q0 -48 -36.5 -73t-88.5 -25q-54 0 -95 25v77q40 -34 88 -34q50 0 50 38q0 22 -17.5 31.5t-57.5 11.5v58q69 5 69 46q0 33 -40 33q-42 0 -86 -37z" />
    <glyph glyph-name="acute" unicode="&#xb4;" horiz-adv-x="500" 
d="M253 513h-91l85 152h91z" />
    <glyph glyph-name="mu" unicode="&#xb5;" horiz-adv-x="505" 
d="M59 -180v623h98v-281q0 -90 105 -90q37 0 76 6v365h98v-433q-80 -20 -166 -20q-80 0 -113 27v-197h-98z" />
    <glyph glyph-name="paragraph" unicode="&#xb6;" horiz-adv-x="507" 
d="M362 -106v700h81v-700h-81zM227 -106v353q-85 0 -143.5 44t-58.5 130t58.5 129.5t143.5 43.5h81v-700h-81z" />
    <glyph glyph-name="periodcentered" unicode="&#xb7;" horiz-adv-x="259" 
d="M61 260q0 29 20 49t48 20q29 0 49.5 -20t20.5 -49t-20.5 -49t-49.5 -20q-28 0 -48 20t-20 49z" />
    <glyph glyph-name="cedilla" unicode="&#xb8;" horiz-adv-x="500" 
d="M236 16h82q0 -48 -20 -94t-51 -68h-89q78 72 78 162z" />
    <glyph glyph-name="onesuperior" unicode="&#xb9;" horiz-adv-x="200" 
d="M13 503v73l145 23v-351h-81v263z" />
    <glyph glyph-name="ordmasculine" unicode="&#xba;" horiz-adv-x="405" 
d="M24 424q0 80 50.5 130t127.5 50q78 0 128 -50t50 -130q0 -79 -50 -129t-128 -50q-77 0 -127.5 50t-50.5 129zM294 424q0 48 -25.5 76.5t-66.5 28.5t-67 -28.5t-26 -76.5q0 -47 26 -75.5t67 -28.5t66.5 28.5t25.5 75.5z" />
    <glyph glyph-name="guillemotright" unicode="&#xbb;" horiz-adv-x="475" 
d="M168 215l-122 158h98l123 -158l-123 -158h-98zM330 215l-122 158h98l123 -158l-123 -158h-98z" />
    <glyph glyph-name="onequarter" unicode="&#xbc;" horiz-adv-x="702" 
d="M40 503v73l145 23v-351h-81v263zM599 346v-206h53v-61h-53v-79h-77v79h-163v61l161 206h79zM522 261l-94 -121h94v121zM108 0l347 594h74l-346 -594h-75z" />
    <glyph glyph-name="onehalf" unicode="&#xbd;" horiz-adv-x="714" 
d="M529 70h135v-70h-239v60q72 58 109 98t37 75q0 46 -48 46q-44 0 -90 -40v75q41 38 109 38q51 0 82 -27t31 -77q0 -85 -126 -178zM40 503v73l145 23v-351h-81v263zM108 0l347 594h74l-346 -594h-75z" />
    <glyph glyph-name="threequarters" unicode="&#xbe;" horiz-adv-x="744" 
d="M56 491v75q42 33 101 33q49 0 78 -24t29 -67q0 -31 -19 -54.5t-48 -30.5q33 -8 53 -29.5t20 -53.5q0 -48 -36.5 -73t-88.5 -25q-54 0 -95 25v77q40 -34 88 -34q50 0 50 38q0 22 -17.5 31.5t-57.5 11.5v58q69 5 69 46q0 33 -40 33q-42 0 -86 -37zM640 346v-206h53v-61h-53
v-79h-77v79h-163v61l161 206h79zM563 261l-94 -121h94v121zM153 0l347 594h74l-346 -594h-75z" />
    <glyph glyph-name="questiondown" unicode="&#xbf;" horiz-adv-x="381" 
d="M367 1v-96q-60 -62 -161 -62q-83 0 -132 45t-49 124q0 131 162 180v69h93v-116q-84 -26 -120.5 -51.5t-36.5 -76.5q0 -39 27 -62t67 -23q74 0 150 69zM301 388q0 -29 -19.5 -49.5t-47.5 -20.5q-30 0 -50.5 20.5t-20.5 49.5q0 28 20.5 48t50.5 20q28 0 47.5 -20t19.5 -48z
" />
    <glyph glyph-name="Agrave" unicode="&#xc0;" horiz-adv-x="599" 
d="M430 140h-265l-52 -140h-108l231 594h125l232 -594h-111zM399 224l-101 274l-102 -274h203zM341 644h-91l-79 141h91z" />
    <glyph glyph-name="Aacute" unicode="&#xc1;" horiz-adv-x="599" 
d="M430 140h-265l-52 -140h-108l231 594h125l232 -594h-111zM399 224l-101 274l-102 -274h203zM348 644h-91l79 141h91z" />
    <glyph glyph-name="Acircumflex" unicode="&#xc2;" horiz-adv-x="599" 
d="M430 140h-265l-52 -140h-108l231 594h125l232 -594h-111zM399 224l-101 274l-102 -274h203zM329 783l116 -143h-85l-62 76l-62 -76h-85l116 143h62z" />
    <glyph glyph-name="Atilde" unicode="&#xc3;" horiz-adv-x="599" 
d="M430 140h-265l-52 -140h-108l231 594h125l232 -594h-111zM399 224l-101 274l-102 -274h203zM379 763h65q0 -58 -22 -91.5t-61 -33.5q-27 0 -62.5 27t-48.5 27q-29 0 -29 -51h-66q0 58 22 91.5t61 33.5q27 0 63 -27t49 -27q29 0 29 51z" />
    <glyph glyph-name="Adieresis" unicode="&#xc4;" horiz-adv-x="599" 
d="M430 140h-265l-52 -140h-108l231 594h125l232 -594h-111zM399 224l-101 274l-102 -274h203zM213 635q-25 0 -42.5 17.5t-17.5 42.5t17.5 42.5t42.5 17.5t42.5 -17.5t17.5 -42.5t-17.5 -42.5t-42.5 -17.5zM385 635q-25 0 -42.5 17.5t-17.5 42.5t17.5 42.5t42.5 17.5
t42.5 -17.5t17.5 -42.5t-17.5 -42.5t-42.5 -17.5z" />
    <glyph glyph-name="Aring" unicode="&#xc5;" horiz-adv-x="599" 
d="M430 140h-265l-52 -140h-108l231 594h125l232 -594h-111zM399 224l-101 274l-102 -274h203zM206 719q0 39 26 64.5t68 25.5q41 0 67 -25.5t26 -64.5t-26 -65t-67 -26t-67.5 26t-26.5 65zM342 719q0 17 -11.5 29t-30.5 12q-20 0 -31 -12t-11 -29q0 -18 11 -30t31 -12
t31 12t11 30z" />
    <glyph glyph-name="AE" unicode="&#xc6;" horiz-adv-x="842" 
d="M199 140l-84 -140h-110l359 594h426v-90h-262v-160h242v-88h-242v-166h267v-90h-369v140h-227zM249 224h177v294z" />
    <glyph glyph-name="Ccedilla" unicode="&#xc7;" horiz-adv-x="555" 
d="M302 -146h-89q66 60 77 140q-114 17 -182.5 99.5t-68.5 203.5q0 136 86 221.5t220 85.5q94 0 164 -42v-112q-65 62 -164 62q-88 0 -144.5 -59.5t-56.5 -155.5q0 -97 58 -156t146 -59q98 0 168 61v-109q-65 -38 -144 -43q-5 -43 -24 -81t-46 -56z" />
    <glyph glyph-name="Egrave" unicode="&#xc8;" horiz-adv-x="490" 
d="M311 642h-91l-79 141h91zM175 90h268v-90h-369v594h363v-90h-262v-160h243v-88h-243v-166z" />
    <glyph glyph-name="Eacute" unicode="&#xc9;" horiz-adv-x="490" 
d="M299 644h-91l79 141h91zM175 90h268v-90h-369v594h363v-90h-262v-160h243v-88h-243v-166z" />
    <glyph glyph-name="Ecircumflex" unicode="&#xca;" horiz-adv-x="490" 
d="M175 90h268v-90h-369v594h363v-90h-262v-160h243v-88h-243v-166zM295 783l116 -143h-85l-62 76l-62 -76h-85l116 143h62z" />
    <glyph glyph-name="Edieresis" unicode="&#xcb;" horiz-adv-x="490" 
d="M177 635q-25 0 -42.5 17.5t-17.5 42.5t17.5 42.5t42.5 17.5t42.5 -17.5t17.5 -42.5t-17.5 -42.5t-42.5 -17.5zM349 635q-25 0 -42.5 17.5t-17.5 42.5t17.5 42.5t42.5 17.5t42.5 -17.5t17.5 -42.5t-17.5 -42.5t-42.5 -17.5zM175 90h268v-90h-369v594h363v-90h-262v-160
h243v-88h-243v-166z" />
    <glyph glyph-name="Igrave" unicode="&#xcc;" horiz-adv-x="250" 
d="M176 594v-594h-102v594h102zM174 644h-91l-79 141h91z" />
    <glyph glyph-name="Iacute" unicode="&#xcd;" horiz-adv-x="250" 
d="M176 594v-594h-102v594h102zM164 644h-91l79 141h91z" />
    <glyph glyph-name="Icircumflex" unicode="&#xce;" horiz-adv-x="250" 
d="M176 594v-594h-102v594h102zM156 783l116 -143h-85l-62 76l-62 -76h-85l116 143h62z" />
    <glyph glyph-name="Idieresis" unicode="&#xcf;" horiz-adv-x="250" 
d="M176 594v-594h-102v594h102zM39 635q-25 0 -42.5 17.5t-17.5 42.5t17.5 42.5t42.5 17.5t42.5 -17.5t17.5 -42.5t-17.5 -42.5t-42.5 -17.5zM211 635q-25 0 -42.5 17.5t-17.5 42.5t17.5 42.5t42.5 17.5t42.5 -17.5t17.5 -42.5t-17.5 -42.5t-42.5 -17.5z" />
    <glyph glyph-name="Eth" unicode="&#xd0;" horiz-adv-x="632" 
d="M86 257h-55v86h55v250q81 11 158 11q172 0 260.5 -80.5t88.5 -216.5q0 -146 -89 -231t-258 -85q-91 0 -160 11v255zM188 257v-173q29 -4 67 -4q107 0 169.5 57t62.5 170q0 97 -61 150t-178 53q-30 0 -60 -3v-164h122v-86h-122z" />
    <glyph glyph-name="Ntilde" unicode="&#xd1;" horiz-adv-x="650" 
d="M406 763h65q0 -58 -22 -91.5t-61 -33.5q-27 0 -62.5 27t-48.5 27q-29 0 -29 -51h-66q0 58 22 91.5t61 33.5q27 0 63 -27t49 -27q29 0 29 51zM178 594l299 -439v439h99v-594h-98l-305 435v-435h-99v594h104z" />
    <glyph glyph-name="Ograve" unicode="&#xd2;" horiz-adv-x="694" 
d="M396 644h-91l-79 141h91zM39 297q0 135 88.5 221t219.5 86q130 0 219 -86t89 -221t-89 -221t-219 -86q-131 0 -219.5 86t-88.5 221zM550 297q0 96 -58 155.5t-145 59.5t-145 -59.5t-58 -155.5t58 -155.5t145 -59.5t145 59.5t58 155.5z" />
    <glyph glyph-name="Oacute" unicode="&#xd3;" horiz-adv-x="694" 
d="M386 644h-91l79 141h91zM39 297q0 135 88.5 221t219.5 86q130 0 219 -86t89 -221t-89 -221t-219 -86q-131 0 -219.5 86t-88.5 221zM550 297q0 96 -58 155.5t-145 59.5t-145 -59.5t-58 -155.5t58 -155.5t145 -59.5t145 59.5t58 155.5z" />
    <glyph glyph-name="Ocircumflex" unicode="&#xd4;" horiz-adv-x="694" 
d="M39 297q0 135 88.5 221t219.5 86q130 0 219 -86t89 -221t-89 -221t-219 -86q-131 0 -219.5 86t-88.5 221zM550 297q0 96 -58 155.5t-145 59.5t-145 -59.5t-58 -155.5t58 -155.5t145 -59.5t145 59.5t58 155.5zM378 783l116 -143h-85l-62 76l-62 -76h-85l116 143h62z" />
    <glyph glyph-name="Otilde" unicode="&#xd5;" horiz-adv-x="694" 
d="M426 763h65q0 -58 -22 -91.5t-61 -33.5q-27 0 -62.5 27t-48.5 27q-29 0 -29 -51h-66q0 58 22 91.5t61 33.5q27 0 63 -27t49 -27q29 0 29 51zM39 297q0 135 88.5 221t219.5 86q130 0 219 -86t89 -221t-89 -221t-219 -86q-131 0 -219.5 86t-88.5 221zM550 297
q0 96 -58 155.5t-145 59.5t-145 -59.5t-58 -155.5t58 -155.5t145 -59.5t145 59.5t58 155.5z" />
    <glyph glyph-name="Odieresis" unicode="&#xd6;" horiz-adv-x="694" 
d="M260 635q-25 0 -42.5 17.5t-17.5 42.5t17.5 42.5t42.5 17.5t42.5 -17.5t17.5 -42.5t-17.5 -42.5t-42.5 -17.5zM432 635q-25 0 -42.5 17.5t-17.5 42.5t17.5 42.5t42.5 17.5t42.5 -17.5t17.5 -42.5t-17.5 -42.5t-42.5 -17.5zM39 297q0 135 88.5 221t219.5 86q130 0 219 -86
t89 -221t-89 -221t-219 -86q-131 0 -219.5 86t-88.5 221zM550 297q0 96 -58 155.5t-145 59.5t-145 -59.5t-58 -155.5t58 -155.5t145 -59.5t145 59.5t58 155.5z" />
    <glyph glyph-name="multiply" unicode="&#xd7;" horiz-adv-x="395" 
d="M145 290l-110 110l53 53l109 -110l110 110l53 -53l-110 -110l110 -109l-53 -53l-110 110l-109 -110l-53 53z" />
    <glyph glyph-name="Oslash" unicode="&#xd8;" horiz-adv-x="700" 
d="M663 594l-81 -90q76 -86 76 -207q0 -135 -89 -221t-219 -86q-104 0 -185 57l-43 -47h-86l82 90q-76 84 -76 207q0 135 88.5 221t219.5 86q103 0 183 -58l44 48h86zM515 429l-286 -311q52 -38 121 -38q87 0 146 60.5t59 156.5q0 76 -40 132zM184 164l286 311
q-51 39 -120 39q-87 0 -146 -60.5t-59 -156.5q0 -78 39 -133z" />
    <glyph glyph-name="Ugrave" unicode="&#xd9;" horiz-adv-x="606" 
d="M347 644h-91l-79 141h91zM63 203v391h102v-373q0 -80 38 -112t110 -32q59 0 117 10v507h102v-577q-99 -27 -219 -27q-250 0 -250 213z" />
    <glyph glyph-name="Uacute" unicode="&#xda;" horiz-adv-x="606" 
d="M336 644h-91l79 141h91zM63 203v391h102v-373q0 -80 38 -112t110 -32q59 0 117 10v507h102v-577q-99 -27 -219 -27q-250 0 -250 213z" />
    <glyph glyph-name="Ucircumflex" unicode="&#xdb;" horiz-adv-x="606" 
d="M63 203v391h102v-373q0 -80 38 -112t110 -32q59 0 117 10v507h102v-577q-99 -27 -219 -27q-250 0 -250 213zM328 783l116 -143h-85l-62 76l-62 -76h-85l116 143h62z" />
    <glyph glyph-name="Udieresis" unicode="&#xdc;" horiz-adv-x="606" 
d="M210 635q-25 0 -42.5 17.5t-17.5 42.5t17.5 42.5t42.5 17.5t42.5 -17.5t17.5 -42.5t-17.5 -42.5t-42.5 -17.5zM382 635q-25 0 -42.5 17.5t-17.5 42.5t17.5 42.5t42.5 17.5t42.5 -17.5t17.5 -42.5t-17.5 -42.5t-42.5 -17.5zM63 203v391h102v-373q0 -80 38 -112t110 -32
q59 0 117 10v507h102v-577q-99 -27 -219 -27q-250 0 -250 213z" />
    <glyph glyph-name="Yacute" unicode="&#xdd;" horiz-adv-x="542" 
d="M272 323l152 271h113l-215 -367v-227h-102v227l-215 367h113zM310 644h-91l79 141h91z" />
    <glyph glyph-name="Thorn" unicode="&#xde;" horiz-adv-x="484" 
d="M176 97v-97h-102v594h102v-94q30 2 44 2q116 0 179 -53t63 -150q0 -101 -66 -152.5t-175 -51.5q-19 0 -45 2zM176 409v-225q9 -1 38 -1q145 0 145 116q0 54 -36 83t-103 29q-18 0 -44 -2z" />
    <glyph glyph-name="germandbls" unicode="&#xdf;" horiz-adv-x="547" 
d="M68 0v487q0 92 51 147.5t140 55.5q82 0 132 -42t50 -108q0 -31 -13.5 -59.5t-30.5 -45.5t-30.5 -35.5t-13.5 -31.5q0 -17 26 -38t57.5 -40.5t57.5 -57.5t26 -86q0 -67 -46.5 -111.5t-125.5 -44.5q-69 0 -111 31v92q56 -43 108 -43q36 0 57.5 19.5t21.5 55.5q0 25 -17 46
t-41.5 37.5t-49.5 34t-42 42.5t-17 56q0 29 22 58.5t44 58.5t22 56q0 33 -23 53t-62 20q-46 0 -69.5 -32t-23.5 -87v-488h-99z" />
    <glyph glyph-name="agrave" unicode="&#xe0;" horiz-adv-x="449" 
d="M291 260v37q0 35 -23 52.5t-62 17.5q-65 0 -128 -36v86q64 36 144 36q166 0 166 -151v-293q-69 -18 -152 -18q-199 0 -199 135q0 66 53.5 100t151.5 34h49zM291 70v124h-42q-114 0 -114 -65q0 -64 102 -64q24 0 54 5zM277 513h-91l-85 152h91z" />
    <glyph glyph-name="aacute" unicode="&#xe1;" horiz-adv-x="449" 
d="M291 260v37q0 35 -23 52.5t-62 17.5q-65 0 -128 -36v86q64 36 144 36q166 0 166 -151v-293q-69 -18 -152 -18q-199 0 -199 135q0 66 53.5 100t151.5 34h49zM291 70v124h-42q-114 0 -114 -65q0 -64 102 -64q24 0 54 5zM264 513h-91l85 152h91z" />
    <glyph glyph-name="acircumflex" unicode="&#xe2;" horiz-adv-x="449" 
d="M291 260v37q0 35 -23 52.5t-62 17.5q-65 0 -128 -36v86q64 36 144 36q166 0 166 -151v-293q-69 -18 -152 -18q-199 0 -199 135q0 66 53.5 100t151.5 34h49zM291 70v124h-42q-114 0 -114 -65q0 -64 102 -64q24 0 54 5zM257 660l116 -150h-87l-60 79l-60 -79h-87l116 150
h62z" />
    <glyph glyph-name="atilde" unicode="&#xe3;" horiz-adv-x="449" 
d="M291 260v37q0 35 -23 52.5t-62 17.5q-65 0 -128 -36v86q64 36 144 36q166 0 166 -151v-293q-69 -18 -152 -18q-199 0 -199 135q0 66 53.5 100t151.5 34h49zM291 70v124h-42q-114 0 -114 -65q0 -64 102 -64q24 0 54 5zM301 632h65q0 -58 -22 -91.5t-61 -33.5
q-27 0 -62.5 27t-48.5 27q-29 0 -29 -51h-66q0 59 21.5 92t61.5 33q27 0 63 -27t49 -27q29 0 29 51z" />
    <glyph glyph-name="adieresis" unicode="&#xe4;" horiz-adv-x="449" 
d="M291 260v37q0 35 -23 52.5t-62 17.5q-65 0 -128 -36v86q64 36 144 36q166 0 166 -151v-293q-69 -18 -152 -18q-199 0 -199 135q0 66 53.5 100t151.5 34h49zM291 70v124h-42q-114 0 -114 -65q0 -64 102 -64q24 0 54 5zM136 516q-25 0 -42.5 18t-17.5 42q0 25 17.5 42.5
t42.5 17.5t42.5 -17.5t17.5 -42.5q0 -24 -17.5 -42t-42.5 -18zM308 516q-25 0 -42.5 18t-17.5 42q0 25 17.5 42.5t42.5 17.5t42.5 -17.5t17.5 -42.5q0 -24 -17.5 -42t-42.5 -18z" />
    <glyph glyph-name="aring" unicode="&#xe5;" horiz-adv-x="449" 
d="M291 260v37q0 35 -23 52.5t-62 17.5q-65 0 -128 -36v86q64 36 144 36q166 0 166 -151v-293q-69 -18 -152 -18q-199 0 -199 135q0 66 53.5 100t151.5 34h49zM291 70v124h-42q-114 0 -114 -65q0 -64 102 -64q24 0 54 5zM129 584q0 39 26 64.5t68 25.5q41 0 67 -25.5
t26 -64.5t-26 -64.5t-67 -25.5q-42 0 -68 25.5t-26 64.5zM265 584q0 18 -11 30t-31 12t-31 -12t-11 -30t11 -30t31 -12t31 12t11 30z" />
    <glyph glyph-name="ae" unicode="&#xe6;" horiz-adv-x="735" 
d="M697 192h-308q8 -58 48 -87.5t95 -29.5q84 0 149 43v-87q-59 -41 -156 -41q-104 0 -166 62q-67 -62 -156 -62q-72 0 -119 33.5t-47 98.5q0 66 54 100t151 34h57q4 24 7 35q-7 77 -93 77q-70 0 -135 -37v86q64 36 143 36q99 0 137 -63q58 63 149 63q94 0 142 -57.5
t48 -152.5v-51zM298 192h-51q-112 0 -112 -68q0 -29 21 -44.5t54 -15.5q66 0 108 47q-17 40 -20 81zM390 256h214q-2 54 -26.5 84t-73.5 30q-44 0 -75 -30t-39 -84z" />
    <glyph glyph-name="ccedilla" unicode="&#xe7;" horiz-adv-x="436" 
d="M229 -146h-89q68 61 77 141q-82 14 -132 74.5t-50 151.5q0 105 66.5 168.5t166.5 63.5q68 0 126 -33v-96q-52 41 -117 41q-62 0 -102 -38t-40 -106q0 -65 40.5 -104.5t105.5 -39.5q63 0 118 40v-94q-46 -26 -100 -32q-5 -43 -24 -81t-46 -56z" />
    <glyph glyph-name="egrave" unicode="&#xe8;" horiz-adv-x="477" 
d="M439 199h-308v-2q4 -57 46 -89.5t97 -32.5q84 0 149 43v-87q-59 -41 -156 -41q-104 0 -168 62t-64 166q0 105 60.5 170t153.5 65q94 0 142 -55t48 -149v-50zM134 263h212q-3 107 -100 107q-43 0 -72.5 -28.5t-39.5 -78.5zM305 513h-91l-85 152h91z" />
    <glyph glyph-name="eacute" unicode="&#xe9;" horiz-adv-x="477" 
d="M299 513h-91l85 152h91zM439 199h-308v-2q4 -57 46 -89.5t97 -32.5q84 0 149 43v-87q-59 -41 -156 -41q-104 0 -168 62t-64 166q0 105 60.5 170t153.5 65q94 0 142 -55t48 -149v-50zM134 263h212q-3 107 -100 107q-43 0 -72.5 -28.5t-39.5 -78.5z" />
    <glyph glyph-name="ecircumflex" unicode="&#xea;" horiz-adv-x="477" 
d="M277 660l116 -150h-87l-60 79l-60 -79h-87l116 150h62zM439 199h-308v-2q4 -57 46 -89.5t97 -32.5q84 0 149 43v-87q-59 -41 -156 -41q-104 0 -168 62t-64 166q0 105 60.5 170t153.5 65q94 0 142 -55t48 -149v-50zM134 263h212q-3 107 -100 107q-43 0 -72.5 -28.5
t-39.5 -78.5z" />
    <glyph glyph-name="edieresis" unicode="&#xeb;" horiz-adv-x="477" 
d="M165 516q-25 0 -42.5 18t-17.5 42q0 25 17.5 42.5t42.5 17.5t42.5 -17.5t17.5 -42.5q0 -24 -17.5 -42t-42.5 -18zM337 516q-25 0 -42.5 18t-17.5 42q0 25 17.5 42.5t42.5 17.5t42.5 -17.5t17.5 -42.5q0 -24 -17.5 -42t-42.5 -18zM439 199h-308v-2q4 -57 46 -89.5
t97 -32.5q84 0 149 43v-87q-59 -41 -156 -41q-104 0 -168 62t-64 166q0 105 60.5 170t153.5 65q94 0 142 -55t48 -149v-50zM134 263h212q-3 107 -100 107q-43 0 -72.5 -28.5t-39.5 -78.5z" />
    <glyph glyph-name="igrave" unicode="&#xec;" horiz-adv-x="235" 
d="M167 443v-443h-99v443h99zM164 513h-91l-85 152h91z" />
    <glyph glyph-name="iacute" unicode="&#xed;" horiz-adv-x="235" 
d="M165 513h-91l85 152h91zM167 443v-443h-99v443h99z" />
    <glyph glyph-name="icircumflex" unicode="&#xee;" horiz-adv-x="235" 
d="M149 660l116 -150h-87l-60 79l-60 -79h-87l116 150h62zM167 443v-443h-99v443h99z" />
    <glyph glyph-name="idieresis" unicode="&#xef;" horiz-adv-x="235" 
d="M32 516q-25 0 -42.5 18t-17.5 42q0 25 17.5 42.5t42.5 17.5t42.5 -17.5t17.5 -42.5q0 -24 -17.5 -42t-42.5 -18zM204 516q-25 0 -42.5 18t-17.5 42q0 25 17.5 42.5t42.5 17.5t42.5 -17.5t17.5 -42.5q0 -24 -17.5 -42t-42.5 -18zM167 443v-443h-99v443h99z" />
    <glyph glyph-name="eth" unicode="&#xf0;" horiz-adv-x="527" 
d="M440 565l-70 -20q121 -152 121 -311q0 -112 -63.5 -178t-164.5 -66q-100 0 -164 64t-64 165q0 102 63 164.5t160 62.5q67 0 105 -44q-22 49 -81 117l-168 -49v66l120 35q-58 59 -125 109h124q50 -41 91 -83l116 33v-65zM392 220q0 67 -35.5 106.5t-93.5 39.5
q-56 0 -92 -39.5t-36 -106.5q0 -66 36 -105.5t92 -39.5q58 0 93.5 39.5t35.5 105.5z" />
    <glyph glyph-name="ntilde" unicode="&#xf1;" horiz-adv-x="519" 
d="M68 0v415q98 38 203 38q90 0 137.5 -39t47.5 -129v-285h-98v276q0 87 -95 87q-54 0 -96 -13v-350h-99zM338 632h65q0 -58 -22 -91.5t-61 -33.5q-27 0 -62.5 27t-48.5 27q-29 0 -29 -51h-66q0 59 21.5 92t61.5 33q27 0 63 -27t49 -27q29 0 29 51z" />
    <glyph glyph-name="ograve" unicode="&#xf2;" horiz-adv-x="527" 
d="M35 221q0 103 64 167.5t164 64.5t164.5 -64.5t64.5 -167.5q0 -102 -64.5 -166.5t-164.5 -64.5t-164 64.5t-64 166.5zM392 221q0 67 -35.5 107t-93.5 40q-56 0 -92 -40t-36 -107q0 -66 36 -106t92 -40q57 0 93 40t36 106zM314 513h-91l-85 152h91z" />
    <glyph glyph-name="oacute" unicode="&#xf3;" horiz-adv-x="527" 
d="M305 513h-91l85 152h91zM35 221q0 103 64 167.5t164 64.5t164.5 -64.5t64.5 -167.5q0 -102 -64.5 -166.5t-164.5 -64.5t-164 64.5t-64 166.5zM392 221q0 67 -35.5 107t-93.5 40q-56 0 -92 -40t-36 -107q0 -66 36 -106t92 -40q57 0 93 40t36 106z" />
    <glyph glyph-name="ocircumflex" unicode="&#xf4;" horiz-adv-x="527" 
d="M294 660l116 -150h-87l-60 79l-60 -79h-87l116 150h62zM35 221q0 103 64 167.5t164 64.5t164.5 -64.5t64.5 -167.5q0 -102 -64.5 -166.5t-164.5 -64.5t-164 64.5t-64 166.5zM392 221q0 67 -35.5 107t-93.5 40q-56 0 -92 -40t-36 -107q0 -66 36 -106t92 -40q57 0 93 40
t36 106z" />
    <glyph glyph-name="otilde" unicode="&#xf5;" horiz-adv-x="527" 
d="M35 221q0 103 64 167.5t164 64.5t164.5 -64.5t64.5 -167.5q0 -102 -64.5 -166.5t-164.5 -64.5t-164 64.5t-64 166.5zM392 221q0 67 -35.5 107t-93.5 40q-56 0 -92 -40t-36 -107q0 -66 36 -106t92 -40q57 0 93 40t36 106zM343 632h65q0 -58 -22 -91.5t-61 -33.5
q-27 0 -62.5 27t-48.5 27q-29 0 -29 -51h-66q0 59 21.5 92t61.5 33q27 0 63 -27t49 -27q29 0 29 51z" />
    <glyph glyph-name="odieresis" unicode="&#xf6;" horiz-adv-x="527" 
d="M178 516q-25 0 -42.5 18t-17.5 42q0 25 17.5 42.5t42.5 17.5t42.5 -17.5t17.5 -42.5q0 -24 -17.5 -42t-42.5 -18zM350 516q-25 0 -42.5 18t-17.5 42q0 25 17.5 42.5t42.5 17.5t42.5 -17.5t17.5 -42.5q0 -24 -17.5 -42t-42.5 -18zM35 221q0 103 64 167.5t164 64.5
t164.5 -64.5t64.5 -167.5q0 -102 -64.5 -166.5t-164.5 -64.5t-164 64.5t-64 166.5zM392 221q0 67 -35.5 107t-93.5 40q-56 0 -92 -40t-36 -107q0 -66 36 -106t92 -40q57 0 93 40t36 106z" />
    <glyph glyph-name="divide" unicode="&#xf7;" horiz-adv-x="459" 
d="M40 254v77h379v-77h-379zM171 140q0 24 17 41t41 17t41.5 -17t17.5 -41t-17.5 -41.5t-41.5 -17.5t-41 17.5t-17 41.5zM171 446q0 24 17 41t41 17t41.5 -17t17.5 -41t-17.5 -41.5t-41.5 -17.5t-41 17.5t-17 41.5z" />
    <glyph glyph-name="oslash" unicode="&#xf8;" horiz-adv-x="532" 
d="M504 448l-64 -72q54 -64 54 -155q0 -102 -64 -166.5t-164 -64.5q-77 0 -133 39l-31 -34h-74l63 71q-53 62 -53 155q0 103 64 167.5t164 64.5q74 0 133 -40l31 35h74zM154 137l186 211q-31 22 -74 22q-58 0 -94.5 -41t-36.5 -108q0 -48 19 -84zM377 305l-186 -211
q30 -21 75 -21q58 0 95 40.5t37 107.5q0 47 -21 84z" />
    <glyph glyph-name="ugrave" unicode="&#xf9;" horiz-adv-x="505" 
d="M436 443v-433q-80 -20 -172 -20q-101 0 -153 38t-52 127v288h98v-281q0 -90 105 -90q37 0 76 6v365h98zM298 513h-91l-85 152h91z" />
    <glyph glyph-name="uacute" unicode="&#xfa;" horiz-adv-x="505" 
d="M287 513h-91l85 152h91zM436 443v-433q-80 -20 -172 -20q-101 0 -153 38t-52 127v288h98v-281q0 -90 105 -90q37 0 76 6v365h98z" />
    <glyph glyph-name="ucircumflex" unicode="&#xfb;" horiz-adv-x="505" 
d="M278 660l116 -150h-87l-60 79l-60 -79h-87l116 150h62zM436 443v-433q-80 -20 -172 -20q-101 0 -153 38t-52 127v288h98v-281q0 -90 105 -90q37 0 76 6v365h98z" />
    <glyph glyph-name="udieresis" unicode="&#xfc;" horiz-adv-x="505" 
d="M165 516q-25 0 -42.5 18t-17.5 42q0 25 17.5 42.5t42.5 17.5t42.5 -17.5t17.5 -42.5q0 -24 -17.5 -42t-42.5 -18zM337 516q-25 0 -42.5 18t-17.5 42q0 25 17.5 42.5t42.5 17.5t42.5 -17.5t17.5 -42.5q0 -24 -17.5 -42t-42.5 -18zM436 443v-433q-80 -20 -172 -20
q-101 0 -153 38t-52 127v288h98v-281q0 -90 105 -90q37 0 76 6v365h98z" />
    <glyph glyph-name="yacute" unicode="&#xfd;" horiz-adv-x="468" 
d="M111 443l126 -349l124 349h102l-240 -623h-97l62 160l-183 463h106zM276 513h-91l85 152h91z" />
    <glyph glyph-name="thorn" unicode="&#xfe;" horiz-adv-x="527" 
d="M68 -180v860h99v-249q42 22 101 22q99 0 161.5 -60t62.5 -164q0 -112 -65.5 -175.5t-179.5 -63.5q-49 0 -80 12v-182h-99zM167 343v-255q33 -13 75 -13q68 0 109 39.5t41 112.5q0 63 -38.5 100t-97.5 37q-51 0 -89 -21z" />
    <glyph glyph-name="ydieresis" unicode="&#xff;" horiz-adv-x="468" 
d="M111 443l126 -349l124 349h102l-240 -623h-97l62 160l-183 463h106zM151 516q-25 0 -42.5 18t-17.5 42q0 25 17.5 42.5t42.5 17.5t42.5 -17.5t17.5 -42.5q0 -24 -17.5 -42t-42.5 -18zM323 516q-25 0 -42.5 18t-17.5 42q0 25 17.5 42.5t42.5 17.5t42.5 -17.5t17.5 -42.5
q0 -24 -17.5 -42t-42.5 -18z" />
    <glyph glyph-name="Amacron" unicode="&#x100;" horiz-adv-x="599" 
d="M430 140h-265l-52 -140h-108l231 594h125l232 -594h-111zM399 224l-101 274l-102 -274h203zM187 651v74h225v-74h-225z" />
    <glyph glyph-name="amacron" unicode="&#x101;" horiz-adv-x="449" 
d="M291 260v37q0 35 -23 52.5t-62 17.5q-65 0 -128 -36v86q64 36 144 36q166 0 166 -151v-293q-69 -18 -152 -18q-199 0 -199 135q0 66 53.5 100t151.5 34h49zM291 70v124h-42q-114 0 -114 -65q0 -64 102 -64q24 0 54 5zM109 527v74h225v-74h-225z" />
    <glyph glyph-name="Abreve" unicode="&#x102;" horiz-adv-x="599" 
d="M430 140h-265l-52 -140h-108l231 594h125l232 -594h-111zM399 224l-101 274l-102 -274h203zM347 776h75q0 -63 -33 -98t-90 -35t-90 35t-33 98h75q0 -66 48 -66t48 66z" />
    <glyph glyph-name="abreve" unicode="&#x103;" horiz-adv-x="449" 
d="M291 260v37q0 35 -23 52.5t-62 17.5q-65 0 -128 -36v86q64 36 144 36q166 0 166 -151v-293q-69 -18 -152 -18q-199 0 -199 135q0 66 53.5 100t151.5 34h49zM291 70v124h-42q-114 0 -114 -65q0 -64 102 -64q24 0 54 5zM274 646h75q0 -64 -33 -101t-90 -37t-90 37t-33 101
h75q0 -70 48 -70t48 70z" />
    <glyph glyph-name="Aogonek" unicode="&#x104;" horiz-adv-x="599" 
d="M593 0h-44q-59 -49 -59 -91q0 -29 32 -29q25 0 46 10v-69q-23 -11 -62 -11q-41 0 -67.5 20t-26.5 61q0 65 65 120l-47 129h-265l-52 -140h-108l231 594h125zM298 498l-102 -274h204z" />
    <glyph glyph-name="aogonek" unicode="&#x105;" horiz-adv-x="449" 
d="M291 260v37q0 35 -23 52.5t-62 17.5q-65 0 -128 -36v86q64 36 144 36q166 0 166 -151v-293q-76 -53 -76 -100q0 -29 31 -29q26 0 46 10v-69q-23 -11 -61 -11q-41 0 -67.5 20.5t-26.5 61.5q0 60 53 102q-27 -3 -51 -3q-199 0 -199 135q0 66 53.5 100t151.5 34h49zM291 70
v124h-42q-114 0 -114 -65q0 -64 102 -64q24 0 54 5z" />
    <glyph glyph-name="Cacute" unicode="&#x106;" horiz-adv-x="555" 
d="M509 562v-112q-65 62 -164 62q-88 0 -144.5 -59.5t-56.5 -155.5q0 -97 58 -156t146 -59q98 0 168 61v-109q-74 -44 -171 -44q-137 0 -221.5 85.5t-84.5 221.5t86 221.5t220 85.5q94 0 164 -42zM383 644h-91l79 141h91z" />
    <glyph glyph-name="cacute" unicode="&#x107;" horiz-adv-x="436" 
d="M301 513h-91l85 152h91zM394 420v-96q-52 41 -117 41q-62 0 -102 -38t-40 -106q0 -65 40.5 -104.5t105.5 -39.5q63 0 118 40v-94q-59 -33 -131 -33q-103 0 -168 63t-65 168t66.5 168.5t166.5 63.5q68 0 126 -33z" />
    <glyph glyph-name="Ccircumflex" unicode="&#x108;" horiz-adv-x="555" 
d="M509 562v-112q-65 62 -164 62q-88 0 -144.5 -59.5t-56.5 -155.5q0 -97 58 -156t146 -59q98 0 168 61v-109q-74 -44 -171 -44q-137 0 -221.5 85.5t-84.5 221.5t86 221.5t220 85.5q94 0 164 -42zM368 783l116 -143h-85l-62 76l-62 -76h-85l116 143h62z" />
    <glyph glyph-name="ccircumflex" unicode="&#x109;" horiz-adv-x="436" 
d="M285 660l116 -150h-87l-60 79l-60 -79h-87l116 150h62zM394 420v-96q-52 41 -117 41q-62 0 -102 -38t-40 -106q0 -65 40.5 -104.5t105.5 -39.5q63 0 118 40v-94q-59 -33 -131 -33q-103 0 -168 63t-65 168t66.5 168.5t166.5 63.5q68 0 126 -33z" />
    <glyph glyph-name="Cdotaccent" unicode="&#x10a;" horiz-adv-x="555" 
d="M337 638q-25 0 -43.5 18t-18.5 43q0 26 18 44.5t44 18.5t44 -18.5t18 -44.5q0 -25 -18.5 -43t-43.5 -18zM509 562v-112q-65 62 -164 62q-88 0 -144.5 -59.5t-56.5 -155.5q0 -97 58 -156t146 -59q98 0 168 61v-109q-74 -44 -171 -44q-137 0 -221.5 85.5t-84.5 221.5
t86 221.5t220 85.5q94 0 164 -42z" />
    <glyph glyph-name="cdotaccent" unicode="&#x10b;" horiz-adv-x="436" 
d="M394 420v-96q-52 41 -117 41q-62 0 -102 -38t-40 -106q0 -65 40.5 -104.5t105.5 -39.5q63 0 118 40v-94q-59 -33 -131 -33q-103 0 -168 63t-65 168t66.5 168.5t166.5 63.5q68 0 126 -33zM257 516q-26 0 -44 18.5t-18 44.5q0 25 18 43t44 18t44 -18t18 -43
q0 -26 -18 -44.5t-44 -18.5z" />
    <glyph glyph-name="Ccaron" unicode="&#x10c;" horiz-adv-x="555" 
d="M509 562v-112q-65 62 -164 62q-88 0 -144.5 -59.5t-56.5 -155.5q0 -97 58 -156t146 -59q98 0 168 61v-109q-74 -44 -171 -44q-137 0 -221.5 85.5t-84.5 221.5t86 221.5t220 85.5q94 0 164 -42zM484 785l-116 -142h-62l-116 142h85l62 -76l62 76h85z" />
    <glyph glyph-name="ccaron" unicode="&#x10d;" horiz-adv-x="436" 
d="M402 654l-116 -149h-62l-116 149h88l59 -80l59 80h88zM394 420v-96q-52 41 -117 41q-62 0 -102 -38t-40 -106q0 -65 40.5 -104.5t105.5 -39.5q63 0 118 40v-94q-59 -33 -131 -33q-103 0 -168 63t-65 168t66.5 168.5t166.5 63.5q68 0 126 -33z" />
    <glyph glyph-name="Dcaron" unicode="&#x10e;" horiz-adv-x="620" 
d="M432 785l-116 -142h-62l-116 142h85l62 -76l62 76h85zM74 2v591q81 11 158 11q172 0 260.5 -80.5t88.5 -216.5q0 -146 -89 -231t-258 -85q-91 0 -160 11zM176 507v-423q29 -4 67 -4q107 0 169.5 57t62.5 170q0 97 -61 150t-178 53q-30 0 -60 -3z" />
    <glyph glyph-name="dcaron" unicode="&#x10f;" horiz-adv-x="526" 
d="M542 680h80l-43 -157h-80zM458 680v-671q-75 -19 -167 -19q-118 0 -187 60.5t-69 170.5q0 106 66.5 169t170.5 63q56 0 88 -17v244h98zM360 79v270q-31 17 -82 17q-64 0 -103.5 -38t-39.5 -105q0 -70 42.5 -109t115.5 -39q38 0 67 4z" />
    <glyph glyph-name="Dcroat" unicode="&#x110;" horiz-adv-x="632" 
d="M86 257h-55v86h55v250q81 11 158 11q172 0 260.5 -80.5t88.5 -216.5q0 -146 -89 -231t-258 -85q-91 0 -160 11v255zM188 257v-173q29 -4 67 -4q107 0 169.5 57t62.5 170q0 97 -61 150t-178 53q-30 0 -60 -3v-164h122v-86h-122z" />
    <glyph glyph-name="dcroat" unicode="&#x111;" horiz-adv-x="534" 
d="M360 519h-119v70h119v91h98v-91h56v-70h-56v-510q-75 -19 -167 -19q-118 0 -187 60.5t-69 170.5q0 106 66.5 169t170.5 63q56 0 88 -17v83zM360 79v270q-31 17 -82 17q-64 0 -103.5 -38t-39.5 -105q0 -70 42.5 -109t115.5 -39q38 0 67 4z" />
    <glyph glyph-name="Emacron" unicode="&#x112;" horiz-adv-x="490" 
d="M150 651v74h225v-74h-225zM175 90h268v-90h-369v594h363v-90h-262v-160h243v-88h-243v-166z" />
    <glyph glyph-name="emacron" unicode="&#x113;" horiz-adv-x="477" 
d="M439 199h-308v-2q4 -57 46 -89.5t97 -32.5q84 0 149 43v-87q-59 -41 -156 -41q-104 0 -168 62t-64 166q0 105 60.5 170t153.5 65q94 0 142 -55t48 -149v-50zM134 263h212q-3 107 -100 107q-43 0 -72.5 -28.5t-39.5 -78.5zM133 527v74h225v-74h-225z" />
    <glyph glyph-name="Ebreve" unicode="&#x114;" horiz-adv-x="490" 
d="M312 776h75q0 -63 -33 -98t-90 -35t-90 35t-33 98h75q0 -66 48 -66t48 66zM175 90h268v-90h-369v594h363v-90h-262v-160h243v-88h-243v-166z" />
    <glyph glyph-name="ebreve" unicode="&#x115;" horiz-adv-x="477" 
d="M439 199h-308v-2q4 -57 46 -89.5t97 -32.5q84 0 149 43v-87q-59 -41 -156 -41q-104 0 -168 62t-64 166q0 105 60.5 170t153.5 65q94 0 142 -55t48 -149v-50zM134 263h212q-3 107 -100 107q-43 0 -72.5 -28.5t-39.5 -78.5zM299 646h75q0 -64 -33 -101t-90 -37t-90 37
t-33 101h75q0 -70 48 -70t48 70z" />
    <glyph glyph-name="Edotaccent" unicode="&#x116;" horiz-adv-x="490" 
d="M264 638q-25 0 -43.5 18t-18.5 43q0 26 18 44.5t44 18.5t44 -18.5t18 -44.5q0 -25 -18.5 -43t-43.5 -18zM175 90h268v-90h-369v594h363v-90h-262v-160h243v-88h-243v-166z" />
    <glyph glyph-name="edotaccent" unicode="&#x117;" horiz-adv-x="477" 
d="M439 199h-308v-2q4 -57 46 -89.5t97 -32.5q84 0 149 43v-87q-59 -41 -156 -41q-104 0 -168 62t-64 166q0 105 60.5 170t153.5 65q94 0 142 -55t48 -149v-50zM134 263h212q-3 107 -100 107q-43 0 -72.5 -28.5t-39.5 -78.5zM253 516q-26 0 -44 18.5t-18 44.5q0 25 18 43
t44 18t44 -18t18 -43q0 -26 -18 -44.5t-44 -18.5z" />
    <glyph glyph-name="Eogonek" unicode="&#x118;" horiz-adv-x="490" 
d="M338 0h-264v594h363v-90h-262v-160h243v-88h-243v-166h268v-90h-32q-55 -49 -55 -91q0 -29 32 -29q25 0 46 10v-69q-23 -11 -62 -11q-41 0 -67 20t-26 61q0 29 16 58.5t43 50.5z" />
    <glyph glyph-name="eogonek" unicode="&#x119;" horiz-adv-x="477" 
d="M439 199h-308v-2q4 -57 46 -89.5t97 -32.5q84 0 149 43v-87q-6 -4 -18.5 -10.5t-18.5 -9.5q-66 -40 -66 -96q0 -16 9.5 -25.5t24.5 -9.5q25 0 46 10v-69q-23 -11 -62 -11q-42 0 -68.5 21t-26.5 64q0 57 47 97q-18 -2 -25 -2q-103 0 -166.5 62t-63.5 166q0 105 60.5 170
t153.5 65q94 0 142 -55t48 -149v-50zM134 263h212q-3 107 -100 107q-43 0 -72.5 -28.5t-39.5 -78.5z" />
    <glyph glyph-name="Ecaron" unicode="&#x11a;" horiz-adv-x="490" 
d="M411 785l-116 -142h-62l-116 142h85l62 -76l62 76h85zM175 90h268v-90h-369v594h363v-90h-262v-160h243v-88h-243v-166z" />
    <glyph glyph-name="ecaron" unicode="&#x11b;" horiz-adv-x="477" 
d="M392 654l-116 -149h-62l-116 149h88l59 -80l59 80h88zM439 199h-308v-2q4 -57 46 -89.5t97 -32.5q84 0 149 43v-87q-59 -41 -156 -41q-104 0 -168 62t-64 166q0 105 60.5 170t153.5 65q94 0 142 -55t48 -149v-50zM134 263h212q-3 107 -100 107q-43 0 -72.5 -28.5
t-39.5 -78.5z" />
    <glyph glyph-name="Gcircumflex" unicode="&#x11c;" horiz-adv-x="590" 
d="M519 559v-109q-67 62 -168 62q-91 0 -149 -59t-58 -156t59 -157.5t148 -60.5q54 0 88 14v180h102v-239q-71 -44 -192 -44q-139 0 -224.5 84t-85.5 223q0 135 87 221t220 86q99 0 173 -45zM370 783l116 -143h-85l-62 76l-62 -76h-85l116 143h62z" />
    <glyph glyph-name="gcircumflex" unicode="&#x11d;" 
d="M310 660l116 -150h-87l-60 79l-60 -79h-87l116 150h62zM355 8v10q-28 -17 -85 -17q-107 0 -171 58t-64 166q0 106 67.5 167t183.5 61q89 0 167 -32v-419q0 -52 -19 -91t-51 -60t-68.5 -31t-76.5 -10q-79 0 -146 31v91q72 -39 146 -39q51 0 84 28t33 87zM355 99v256
q-30 11 -69 11q-71 0 -111 -36.5t-40 -104.5q0 -65 39 -103t104 -38q37 0 77 15z" />
    <glyph glyph-name="Gbreve" unicode="&#x11e;" horiz-adv-x="590" 
d="M387 776h75q0 -63 -33 -98t-90 -35t-90 35t-33 98h75q0 -66 48 -66t48 66zM519 559v-109q-67 62 -168 62q-91 0 -149 -59t-58 -156t59 -157.5t148 -60.5q54 0 88 14v180h102v-239q-71 -44 -192 -44q-139 0 -224.5 84t-85.5 223q0 135 87 221t220 86q99 0 173 -45z" />
    <glyph glyph-name="gbreve" unicode="&#x11f;" 
d="M355 8v10q-28 -17 -85 -17q-107 0 -171 58t-64 166q0 106 67.5 167t183.5 61q89 0 167 -32v-419q0 -52 -19 -91t-51 -60t-68.5 -31t-76.5 -10q-79 0 -146 31v91q72 -39 146 -39q51 0 84 28t33 87zM355 99v256q-30 11 -69 11q-71 0 -111 -36.5t-40 -104.5q0 -65 39 -103
t104 -38q37 0 77 15zM323 646h75q0 -64 -33 -101t-90 -37t-90 37t-33 101h75q0 -70 48 -70t48 70z" />
    <glyph glyph-name="Gdotaccent" unicode="&#x120;" horiz-adv-x="590" 
d="M339 638q-25 0 -43.5 18t-18.5 43q0 26 18 44.5t44 18.5t44 -18.5t18 -44.5q0 -25 -18.5 -43t-43.5 -18zM519 559v-109q-67 62 -168 62q-91 0 -149 -59t-58 -156t59 -157.5t148 -60.5q54 0 88 14v180h102v-239q-71 -44 -192 -44q-139 0 -224.5 84t-85.5 223q0 135 87 221
t220 86q99 0 173 -45z" />
    <glyph glyph-name="gdotaccent" unicode="&#x121;" 
d="M355 8v10q-28 -17 -85 -17q-107 0 -171 58t-64 166q0 106 67.5 167t183.5 61q89 0 167 -32v-419q0 -52 -19 -91t-51 -60t-68.5 -31t-76.5 -10q-79 0 -146 31v91q72 -39 146 -39q51 0 84 28t33 87zM355 99v256q-30 11 -69 11q-71 0 -111 -36.5t-40 -104.5q0 -65 39 -103
t104 -38q37 0 77 15zM275 516q-26 0 -44 18.5t-18 44.5q0 25 18 43t44 18t44 -18t18 -43q0 -26 -18 -44.5t-44 -18.5z" />
    <glyph glyph-name="Gcommaaccent" unicode="&#x122;" horiz-adv-x="590" 
d="M299 -42h96q0 -92 -89 -143h-67q60 61 60 143zM519 559v-109q-67 62 -168 62q-91 0 -149 -59t-58 -156t59 -157.5t148 -60.5q54 0 88 14v180h102v-239q-71 -44 -192 -44q-139 0 -224.5 84t-85.5 223q0 135 87 221t220 86q99 0 173 -45z" />
    <glyph glyph-name="gcommaaccent" unicode="&#x123;" 
d="M325 513h-95q0 50 25.5 94.5t65.5 66.5h67q-63 -64 -63 -161zM355 8v10q-28 -17 -85 -17q-107 0 -171 58t-64 166q0 106 67.5 167t183.5 61q89 0 167 -32v-419q0 -52 -19 -91t-51 -60t-68.5 -31t-76.5 -10q-79 0 -146 31v91q72 -39 146 -39q51 0 84 28t33 87zM355 99v256
q-30 11 -69 11q-71 0 -111 -36.5t-40 -104.5q0 -65 39 -103t104 -38q37 0 77 15z" />
    <glyph glyph-name="Hcircumflex" unicode="&#x124;" horiz-adv-x="659" 
d="M483 344v250h102v-594h-102v254h-307v-254h-102v594h102v-250h307zM361 783l116 -143h-85l-62 76l-62 -76h-85l116 143h62z" />
    <glyph glyph-name="hcircumflex" unicode="&#x125;" horiz-adv-x="519" 
d="M68 0v680h99v-248q53 21 116 21q173 0 173 -168v-285h-98v276q0 87 -95 87q-53 0 -96 -15v-348h-99zM289 856l116 -143h-85l-62 76l-62 -76h-85l116 143h62z" />
    <glyph glyph-name="Hbar" unicode="&#x126;" horiz-adv-x="679" 
d="M84 408h-64v81h64v105h102v-105h307v105h102v-105h64v-81h-64v-408h-102v226h-307v-226h-102v408zM186 408v-98h307v98h-307z" />
    <glyph glyph-name="hbar" unicode="&#x127;" horiz-adv-x="527" 
d="M76 519h-55v70h55v91h99v-91h118v-70h-118v-87q53 21 116 21q173 0 173 -168v-285h-98v276q0 87 -95 87q-53 0 -96 -15v-348h-99v519z" />
    <glyph glyph-name="Itilde" unicode="&#x128;" horiz-adv-x="250" 
d="M176 594v-594h-102v594h102zM204 763h65q0 -58 -22 -91.5t-61 -33.5q-27 0 -62.5 27t-48.5 27q-29 0 -29 -51h-66q0 58 22 91.5t61 33.5q27 0 63 -27t49 -27q29 0 29 51z" />
    <glyph glyph-name="itilde" unicode="&#x129;" horiz-adv-x="235" 
d="M167 443v-443h-99v443h99zM197 632h65q0 -58 -22 -91.5t-61 -33.5q-27 0 -62.5 27t-48.5 27q-29 0 -29 -51h-66q0 59 21.5 92t61.5 33q27 0 63 -27t49 -27q29 0 29 51z" />
    <glyph glyph-name="Imacron" unicode="&#x12a;" horiz-adv-x="250" 
d="M176 594v-594h-102v594h102zM13 651v74h225v-74h-225z" />
    <glyph glyph-name="imacron" unicode="&#x12b;" horiz-adv-x="235" 
d="M167 443v-443h-99v443h99zM6 527v74h225v-74h-225z" />
    <glyph glyph-name="Ibreve" unicode="&#x12c;" horiz-adv-x="250" 
d="M176 594v-594h-102v594h102zM173 776h75q0 -63 -33 -98t-90 -35t-90 35t-33 98h75q0 -66 48 -66t48 66z" />
    <glyph glyph-name="ibreve" unicode="&#x12d;" horiz-adv-x="235" 
d="M167 443v-443h-99v443h99zM166 646h75q0 -64 -33 -101t-90 -37t-90 37t-33 101h75q0 -70 48 -70t48 70z" />
    <glyph glyph-name="Iogonek" unicode="&#x12e;" horiz-adv-x="250" 
d="M176 594v-594q-67 -44 -67 -91q0 -29 32 -29q25 0 45 10v-69q-23 -11 -61 -11q-41 0 -67.5 20t-26.5 61q0 65 64 109h-21v594h102z" />
    <glyph glyph-name="iogonek" unicode="&#x12f;" horiz-adv-x="235" 
d="M117 520q-25 0 -43.5 18t-18.5 43q0 26 18.5 44.5t43.5 18.5t43.5 -18.5t18.5 -44.5q0 -25 -18.5 -43t-43.5 -18zM68 0v443h99v-443q-70 -38 -70 -88q0 -32 31 -32q24 0 44 10v-69q-23 -11 -61 -11q-40 0 -66 21t-26 60q0 34 20 62.5t53 46.5h-24z" />
    <glyph glyph-name="Idotaccent" unicode="&#x130;" horiz-adv-x="250" 
d="M176 594v-594h-102v594h102zM125 638q-25 0 -43.5 18t-18.5 43q0 26 18 44.5t44 18.5t44 -18.5t18 -44.5q0 -25 -18.5 -43t-43.5 -18z" />
    <glyph glyph-name="dotlessi" unicode="&#x131;" horiz-adv-x="235" 
d="M167 443v-443h-99v443h99z" />
    <glyph glyph-name="IJ" unicode="&#x132;" horiz-adv-x="628" 
d="M176 594v-594h-102v594h102zM267 33v105q54 -56 121 -56q39 0 57.5 19t18.5 64v429h102v-442q0 -79 -45 -120.5t-124 -41.5t-130 43z" />
    <glyph glyph-name="ij" unicode="&#x133;" horiz-adv-x="470" 
d="M167 443v-443h-99v443h99zM117 516q-25 0 -43.5 18.5t-18.5 44.5q0 25 18.5 43t43.5 18t43.5 -18t18.5 -43q0 -26 -18.5 -44.5t-43.5 -18.5zM303 -33v476h99v-489q0 -71 -39.5 -107.5t-110.5 -36.5q-41 0 -76 14v85q32 -15 65 -15q31 0 46.5 16t15.5 57zM352 516
q-25 0 -43.5 18.5t-18.5 44.5q0 25 18.5 43t43.5 18t43.5 -18t18.5 -43q0 -26 -18.5 -44.5t-43.5 -18.5z" />
    <glyph glyph-name="Jcircumflex" unicode="&#x134;" horiz-adv-x="378" 
d="M17 33v105q54 -56 121 -56q39 0 57.5 19t18.5 64v429h102v-442q0 -79 -45 -120.5t-124 -41.5t-130 43zM296 783l116 -143h-85l-62 76l-62 -76h-85l116 143h62z" />
    <glyph glyph-name="jcircumflex" unicode="&#x135;" horiz-adv-x="235" 
d="M68 -33v476h99v-489q0 -71 -39.5 -107.5t-110.5 -36.5q-41 0 -76 14v85q32 -15 65 -15q31 0 46.5 16t15.5 57zM147 654l116 -150h-87l-60 79l-60 -79h-87l116 150h62z" />
    <glyph glyph-name="Kcommaaccent" unicode="&#x136;" horiz-adv-x="546" 
d="M237 -42h96q0 -92 -89 -143h-67q60 61 60 143zM74 0v594h102v-594h-102zM180 293l227 301h122l-233 -292l249 -302h-124z" />
    <glyph glyph-name="kcommaaccent" unicode="&#x137;" horiz-adv-x="489" 
d="M212 -42h96q0 -92 -89 -143h-67q60 61 60 143zM366 0l-195 240l187 203h122l-195 -201l199 -242h-118zM167 680v-680h-99v680h99z" />
    <glyph glyph-name="kgreenlandic" unicode="&#x138;" horiz-adv-x="489" 
d="M366 0l-195 240l187 203h122l-195 -201l199 -242h-118zM167 443v-443h-99v443h99z" />
    <glyph glyph-name="Lacute" unicode="&#x139;" horiz-adv-x="438" 
d="M170 644h-91l79 141h91zM74 0v594h102v-504h242v-90h-344z" />
    <glyph glyph-name="lacute" unicode="&#x13a;" horiz-adv-x="235" 
d="M161 722h-91l79 141h91zM167 680v-680h-99v680h99z" />
    <glyph glyph-name="Lcommaaccent" unicode="&#x13b;" horiz-adv-x="438" 
d="M203 -42h96q0 -92 -89 -143h-67q60 61 60 143zM74 0v594h102v-504h242v-90h-344z" />
    <glyph glyph-name="lcommaaccent" unicode="&#x13c;" horiz-adv-x="235" 
d="M72 -42h96q0 -92 -89 -143h-67q60 61 60 143zM167 680v-680h-99v680h99z" />
    <glyph glyph-name="Lcaron" unicode="&#x13d;" horiz-adv-x="438" 
d="M311 594h80l-43 -157h-80zM74 0v594h102v-504h242v-90h-344z" />
    <glyph glyph-name="lcaron" unicode="&#x13e;" horiz-adv-x="235" 
d="M251 680h80l-43 -157h-80zM167 680v-680h-99v680h99z" />
    <glyph glyph-name="Ldot" unicode="&#x13f;" horiz-adv-x="444" 
d="M74 0v594h102v-504h242v-90h-344zM331 263q-26 0 -44 18.5t-18 44.5q0 25 18 43t44 18t44 -18t18 -43q0 -26 -18 -44.5t-44 -18.5z" />
    <glyph glyph-name="ldot" unicode="&#x140;" horiz-adv-x="352" 
d="M167 680v-680h-99v680h99zM291 274q-26 0 -44 18.5t-18 44.5q0 25 18 43t44 18t44 -18t18 -43q0 -26 -18 -44.5t-44 -18.5z" />
    <glyph glyph-name="Lslash" unicode="&#x141;" horiz-adv-x="445" 
d="M20 209v88l60 22v275h103v-242l127 47v-88l-127 -47v-174h242v-90h-345v232z" />
    <glyph glyph-name="lslash" unicode="&#x142;" horiz-adv-x="273" 
d="M184 680v-262l71 47v-81l-71 -48v-336h-98v286l-68 -45v82l68 45v312h98z" />
    <glyph glyph-name="Nacute" unicode="&#x143;" horiz-adv-x="650" 
d="M366 644h-91l79 141h91zM178 594l299 -439v439h99v-594h-98l-305 435v-435h-99v594h104z" />
    <glyph glyph-name="nacute" unicode="&#x144;" horiz-adv-x="519" 
d="M302 513h-91l85 152h91zM68 0v415q98 38 203 38q90 0 137.5 -39t47.5 -129v-285h-98v276q0 87 -95 87q-54 0 -96 -13v-350h-99z" />
    <glyph glyph-name="Ncommaaccent" unicode="&#x145;" horiz-adv-x="650" 
d="M281 -42h96q0 -92 -89 -143h-67q60 61 60 143zM178 594l299 -439v439h99v-594h-98l-305 435v-435h-99v594h104z" />
    <glyph glyph-name="ncommaaccent" unicode="&#x146;" horiz-adv-x="519" 
d="M217 -42h96q0 -92 -89 -143h-67q60 61 60 143zM68 0v415q98 38 203 38q90 0 137.5 -39t47.5 -129v-285h-98v276q0 87 -95 87q-54 0 -96 -13v-350h-99z" />
    <glyph glyph-name="Ncaron" unicode="&#x147;" horiz-adv-x="650" 
d="M474 785l-116 -142h-62l-116 142h85l62 -76l62 76h85zM178 594l299 -439v439h99v-594h-98l-305 435v-435h-99v594h104z" />
    <glyph glyph-name="ncaron" unicode="&#x148;" horiz-adv-x="519" 
d="M409 654l-116 -149h-62l-116 149h88l59 -80l59 80h88zM68 0v415q98 38 203 38q90 0 137.5 -39t47.5 -129v-285h-98v276q0 87 -95 87q-54 0 -96 -13v-350h-99z" />
    <glyph glyph-name="Eng" unicode="&#x14a;" horiz-adv-x="650" 
d="M576 594v-622q0 -79 -45 -120.5t-124 -41.5t-130 43v102q54 -56 121 -56q39 0 57.5 19t18.5 64v24l-301 429v-435h-99v594h104l299 -439v439h99z" />
    <glyph glyph-name="eng" unicode="&#x14b;" horiz-adv-x="519" 
d="M358 -33v309q0 87 -95 87q-54 0 -96 -13v-350h-99v415q98 38 203 38q90 0 137.5 -39t47.5 -129v-331q0 -71 -39 -107.5t-111 -36.5q-42 0 -75 14v85q32 -15 65 -15q31 0 46.5 16t15.5 57z" />
    <glyph glyph-name="Omacron" unicode="&#x14c;" horiz-adv-x="694" 
d="M235 651v74h225v-74h-225zM39 297q0 135 88.5 221t219.5 86q130 0 219 -86t89 -221t-89 -221t-219 -86q-131 0 -219.5 86t-88.5 221zM550 297q0 96 -58 155.5t-145 59.5t-145 -59.5t-58 -155.5t58 -155.5t145 -59.5t145 59.5t58 155.5z" />
    <glyph glyph-name="omacron" unicode="&#x14d;" horiz-adv-x="527" 
d="M151 527v74h225v-74h-225zM35 221q0 103 64 167.5t164 64.5t164.5 -64.5t64.5 -167.5q0 -102 -64.5 -166.5t-164.5 -64.5t-164 64.5t-64 166.5zM392 221q0 67 -35.5 107t-93.5 40q-56 0 -92 -40t-36 -107q0 -66 36 -106t92 -40q57 0 93 40t36 106z" />
    <glyph glyph-name="Obreve" unicode="&#x14e;" horiz-adv-x="694" 
d="M395 776h75q0 -63 -33 -98t-90 -35t-90 35t-33 98h75q0 -66 48 -66t48 66zM39 297q0 135 88.5 221t219.5 86q130 0 219 -86t89 -221t-89 -221t-219 -86q-131 0 -219.5 86t-88.5 221zM550 297q0 96 -58 155.5t-145 59.5t-145 -59.5t-58 -155.5t58 -155.5t145 -59.5
t145 59.5t58 155.5z" />
    <glyph glyph-name="obreve" unicode="&#x14f;" horiz-adv-x="527" 
d="M35 221q0 103 64 167.5t164 64.5t164.5 -64.5t64.5 -167.5q0 -102 -64.5 -166.5t-164.5 -64.5t-164 64.5t-64 166.5zM392 221q0 67 -35.5 107t-93.5 40q-56 0 -92 -40t-36 -107q0 -66 36 -106t92 -40q57 0 93 40t36 106zM311 646h75q0 -64 -33 -101t-90 -37t-90 37
t-33 101h75q0 -70 48 -70t48 70z" />
    <glyph glyph-name="Ohungarumlaut" unicode="&#x150;" horiz-adv-x="694" 
d="M39 297q0 135 88.5 221t219.5 86q130 0 219 -86t89 -221t-89 -221t-219 -86q-131 0 -219.5 86t-88.5 221zM550 297q0 96 -58 155.5t-145 59.5t-145 -59.5t-58 -155.5t58 -155.5t145 -59.5t145 59.5t58 155.5zM319 644h-84l79 141h84zM451 644h-84l79 141h84z" />
    <glyph glyph-name="ohungarumlaut" unicode="&#x151;" horiz-adv-x="527" 
d="M236 513h-84l85 152h84zM35 221q0 103 64 167.5t164 64.5t164.5 -64.5t64.5 -167.5q0 -102 -64.5 -166.5t-164.5 -64.5t-164 64.5t-64 166.5zM392 221q0 67 -35.5 107t-93.5 40q-56 0 -92 -40t-36 -107q0 -66 36 -106t92 -40q57 0 93 40t36 106zM368 513h-84l85 152h84z
" />
    <glyph glyph-name="OE" unicode="&#x152;" horiz-adv-x="813" 
d="M760 594v-90h-262v-160h242v-88h-242v-166h268v-90h-419q-131 0 -219.5 82.5t-88.5 214.5t88.5 214.5t219.5 82.5h413zM397 89v416h-50q-88 0 -145.5 -56.5t-57.5 -151.5q0 -94 58 -151t145 -57h50z" />
    <glyph glyph-name="oe" unicode="&#x153;" horiz-adv-x="831" 
d="M777 118v-87q-59 -41 -156 -41q-116 0 -182 80q-65 -80 -176 -80q-100 0 -164 64.5t-64 166.5q0 103 64 167.5t164 64.5q112 0 176 -81q60 81 164 81q94 0 142 -55t48 -149v-50h-308v-2q4 -57 46 -89.5t97 -32.5q84 0 149 43zM392 221q0 67 -35.5 107t-93.5 40
q-56 0 -92 -40t-36 -107q0 -66 36 -106t92 -40q57 0 93 40t36 106zM488 263h212q-3 107 -100 107q-43 0 -72.5 -28.5t-39.5 -78.5z" />
    <glyph glyph-name="Racute" unicode="&#x154;" horiz-adv-x="524" 
d="M176 211v-211h-102v593q66 11 148 11q117 0 179 -50t62 -144q0 -63 -32.5 -109.5t-85.5 -66.5l179 -234h-123l-158 211h-67zM176 513v-218h50q63 0 98 28t35 84q0 52 -35 80t-102 28q-24 0 -46 -2zM297 644h-91l79 141h91z" />
    <glyph glyph-name="racute" unicode="&#x155;" horiz-adv-x="343" 
d="M249 513h-91l85 152h91zM167 343v-343h-99v406q78 44 173 44q44 0 85 -11v-96q-36 14 -85 14q-39 0 -74 -14z" />
    <glyph glyph-name="Rcommaaccent" unicode="&#x156;" horiz-adv-x="524" 
d="M225 -42h96q0 -92 -89 -143h-67q60 61 60 143zM176 211v-211h-102v593q66 11 148 11q117 0 179 -50t62 -144q0 -63 -32.5 -109.5t-85.5 -66.5l179 -234h-123l-158 211h-67zM176 513v-218h50q63 0 98 28t35 84q0 52 -35 80t-102 28q-24 0 -46 -2z" />
    <glyph glyph-name="rcommaaccent" unicode="&#x157;" horiz-adv-x="343" 
d="M69 -42h96q0 -92 -89 -143h-67q60 61 60 143zM167 343v-343h-99v406q78 44 173 44q44 0 85 -11v-96q-36 14 -85 14q-39 0 -74 -14z" />
    <glyph glyph-name="Rcaron" unicode="&#x158;" horiz-adv-x="524" 
d="M405 785l-116 -142h-62l-116 142h85l62 -76l62 76h85zM176 211v-211h-102v593q66 11 148 11q117 0 179 -50t62 -144q0 -63 -32.5 -109.5t-85.5 -66.5l179 -234h-123l-158 211h-67zM176 513v-218h50q63 0 98 28t35 84q0 52 -35 80t-102 28q-24 0 -46 -2z" />
    <glyph glyph-name="rcaron" unicode="&#x159;" horiz-adv-x="343" 
d="M353 654l-116 -149h-62l-116 149h88l59 -80l59 80h88zM167 343v-343h-99v406q78 44 173 44q44 0 85 -11v-96q-36 14 -85 14q-39 0 -74 -14z" />
    <glyph glyph-name="Sacute" unicode="&#x15a;" horiz-adv-x="442" 
d="M40 34v104q80 -61 157 -61q48 0 79 20.5t31 62.5q0 38 -26.5 58.5t-82.5 37.5q-89 28 -127.5 68t-38.5 113q0 78 54.5 122.5t134.5 44.5q85 0 152 -45v-102q-74 60 -149 60q-42 0 -67 -21t-25 -56q0 -34 24.5 -53.5t84.5 -38.5q89 -27 127.5 -69t38.5 -116
q0 -85 -58.5 -129t-150.5 -44q-94 0 -158 44zM262 644h-91l79 141h91z" />
    <glyph glyph-name="sacute" unicode="&#x15b;" horiz-adv-x="391" 
d="M244 513h-91l85 152h91zM48 26v94q66 -50 135 -50q73 0 73 50q0 26 -18.5 39t-64.5 25q-70 16 -100.5 47t-30.5 88q0 65 43.5 99.5t114.5 34.5q72 0 127 -34v-91q-63 45 -124 45q-31 0 -48.5 -14t-17.5 -36t15.5 -34.5t54.5 -23.5q77 -17 111 -49t34 -91
q0 -67 -45.5 -101t-121.5 -34q-83 0 -137 36z" />
    <glyph glyph-name="Scircumflex" unicode="&#x15c;" horiz-adv-x="442" 
d="M40 34v104q80 -61 157 -61q48 0 79 20.5t31 62.5q0 38 -26.5 58.5t-82.5 37.5q-89 28 -127.5 68t-38.5 113q0 78 54.5 122.5t134.5 44.5q85 0 152 -45v-102q-74 60 -149 60q-42 0 -67 -21t-25 -56q0 -34 24.5 -53.5t84.5 -38.5q89 -27 127.5 -69t38.5 -116
q0 -85 -58.5 -129t-150.5 -44q-94 0 -158 44zM254 783l116 -143h-85l-62 76l-62 -76h-85l116 143h62z" />
    <glyph glyph-name="scircumflex" unicode="&#x15d;" horiz-adv-x="391" 
d="M232 660l116 -150h-87l-60 79l-60 -79h-87l116 150h62zM48 26v94q66 -50 135 -50q73 0 73 50q0 26 -18.5 39t-64.5 25q-70 16 -100.5 47t-30.5 88q0 65 43.5 99.5t114.5 34.5q72 0 127 -34v-91q-63 45 -124 45q-31 0 -48.5 -14t-17.5 -36t15.5 -34.5t54.5 -23.5
q77 -17 111 -49t34 -91q0 -67 -45.5 -101t-121.5 -34q-83 0 -137 36z" />
    <glyph glyph-name="Scedilla" unicode="&#x15e;" horiz-adv-x="442" 
d="M197 -146h-89q65 59 76 136q-86 4 -144 44v104q80 -61 157 -61q48 0 79 20.5t31 62.5q0 38 -26.5 58.5t-82.5 37.5q-89 28 -127.5 68t-38.5 113q0 78 54.5 122.5t134.5 44.5q85 0 152 -45v-102q-74 60 -149 60q-42 0 -67 -21t-25 -56q0 -34 24.5 -53.5t84.5 -38.5
q89 -27 127.5 -69t38.5 -116q0 -68 -38 -109.5t-102 -56.5q-4 -44 -23 -84t-47 -59z" />
    <glyph glyph-name="scedilla" unicode="&#x15f;" horiz-adv-x="391" 
d="M171 -146h-89q65 61 76 137q-67 6 -110 35v94q66 -50 135 -50q73 0 73 50q0 26 -18.5 39t-64.5 25q-70 16 -100.5 47t-30.5 88q0 65 43.5 99.5t114.5 34.5q72 0 127 -34v-91q-63 45 -124 45q-31 0 -48.5 -14t-17.5 -36t15.5 -34.5t54.5 -23.5q77 -17 111 -49t34 -91
q0 -105 -111 -130q-5 -44 -24 -83t-46 -58z" />
    <glyph glyph-name="Scaron" unicode="&#x160;" horiz-adv-x="442" 
d="M40 34v104q80 -61 157 -61q48 0 79 20.5t31 62.5q0 38 -26.5 58.5t-82.5 37.5q-89 28 -127.5 68t-38.5 113q0 78 54.5 122.5t134.5 44.5q85 0 152 -45v-102q-74 60 -149 60q-42 0 -67 -21t-25 -56q0 -34 24.5 -53.5t84.5 -38.5q89 -27 127.5 -69t38.5 -116
q0 -85 -58.5 -129t-150.5 -44q-94 0 -158 44zM370 785l-116 -142h-62l-116 142h85l62 -76l62 76h85z" />
    <glyph glyph-name="scaron" unicode="&#x161;" horiz-adv-x="391" 
d="M345 654l-116 -149h-62l-116 149h88l59 -80l59 80h88zM48 26v94q66 -50 135 -50q73 0 73 50q0 26 -18.5 39t-64.5 25q-70 16 -100.5 47t-30.5 88q0 65 43.5 99.5t114.5 34.5q72 0 127 -34v-91q-63 45 -124 45q-31 0 -48.5 -14t-17.5 -36t15.5 -34.5t54.5 -23.5
q77 -17 111 -49t34 -91q0 -67 -45.5 -101t-121.5 -34q-83 0 -137 36z" />
    <glyph glyph-name="Tcommaaccent" unicode="&#x162;" horiz-adv-x="507" 
d="M206 -42h96q0 -92 -89 -143h-67q60 61 60 143zM305 504v-504h-102v504h-188v90h477v-90h-187z" />
    <glyph glyph-name="tcommaaccent" unicode="&#x163;" horiz-adv-x="343" 
d="M161 -42h96q0 -92 -89 -143h-67q60 61 60 143zM8 360v83h67v108h98v-108h126v-83h-126v-211q0 -71 61 -71q39 0 81 25v-89q-46 -24 -107 -24q-59 0 -96 33t-37 104v233h-67z" />
    <glyph glyph-name="Tcaron" unicode="&#x164;" horiz-adv-x="507" 
d="M401 785l-116 -142h-62l-116 142h85l62 -76l62 76h85zM305 504v-504h-102v504h-188v90h477v-90h-187z" />
    <glyph glyph-name="tcaron" unicode="&#x165;" horiz-adv-x="343" 
d="M260 664h80l-43 -157h-80zM8 360v83h67v108h98v-108h126v-83h-126v-211q0 -71 61 -71q39 0 81 25v-89q-46 -24 -107 -24q-59 0 -96 33t-37 104v233h-67z" />
    <glyph glyph-name="Tbar" unicode="&#x166;" horiz-adv-x="507" 
d="M203 264h-106v86h106v154h-188v90h477v-90h-187v-154h106v-86h-106v-264h-102v264z" />
    <glyph glyph-name="tbar" unicode="&#x167;" horiz-adv-x="352" 
d="M80 283v85h-67v75h67v108h97v-108h126v-75h-126v-85h126v-74h-126v-63q0 -71 62 -71q39 0 81 25v-86q-48 -24 -107 -24t-96 33t-37 104v82h-67v74h67z" />
    <glyph glyph-name="Utilde" unicode="&#x168;" horiz-adv-x="606" 
d="M377 763h65q0 -58 -22 -91.5t-61 -33.5q-27 0 -62.5 27t-48.5 27q-29 0 -29 -51h-66q0 58 22 91.5t61 33.5q27 0 63 -27t49 -27q29 0 29 51zM63 203v391h102v-373q0 -80 38 -112t110 -32q59 0 117 10v507h102v-577q-99 -27 -219 -27q-250 0 -250 213z" />
    <glyph glyph-name="utilde" unicode="&#x169;" horiz-adv-x="505" 
d="M436 443v-433q-80 -20 -172 -20q-101 0 -153 38t-52 127v288h98v-281q0 -90 105 -90q37 0 76 6v365h98zM327 632h65q0 -58 -22 -91.5t-61 -33.5q-27 0 -62.5 27t-48.5 27q-29 0 -29 -51h-66q0 59 21.5 92t61.5 33q27 0 63 -27t49 -27q29 0 29 51z" />
    <glyph glyph-name="Umacron" unicode="&#x16a;" horiz-adv-x="606" 
d="M185 651v74h225v-74h-225zM63 203v391h102v-373q0 -80 38 -112t110 -32q59 0 117 10v507h102v-577q-99 -27 -219 -27q-250 0 -250 213z" />
    <glyph glyph-name="umacron" unicode="&#x16b;" horiz-adv-x="505" 
d="M436 443v-433q-80 -20 -172 -20q-101 0 -153 38t-52 127v288h98v-281q0 -90 105 -90q37 0 76 6v365h98zM135 527v74h225v-74h-225z" />
    <glyph glyph-name="Ubreve" unicode="&#x16c;" horiz-adv-x="606" 
d="M345 776h75q0 -63 -33 -98t-90 -35t-90 35t-33 98h75q0 -66 48 -66t48 66zM63 203v391h102v-373q0 -80 38 -112t110 -32q59 0 117 10v507h102v-577q-99 -27 -219 -27q-250 0 -250 213z" />
    <glyph glyph-name="ubreve" unicode="&#x16d;" horiz-adv-x="505" 
d="M436 443v-433q-80 -20 -172 -20q-101 0 -153 38t-52 127v288h98v-281q0 -90 105 -90q37 0 76 6v365h98zM295 646h75q0 -64 -33 -101t-90 -37t-90 37t-33 101h75q0 -70 48 -70t48 70z" />
    <glyph glyph-name="Uring" unicode="&#x16e;" horiz-adv-x="606" 
d="M63 203v391h102v-373q0 -80 38 -112t110 -32q59 0 117 10v507h102v-577q-99 -27 -219 -27q-250 0 -250 213zM204 719q0 39 26 64.5t68 25.5q41 0 67 -25.5t26 -64.5t-26 -65t-67 -26t-67.5 26t-26.5 65zM340 719q0 17 -11.5 29t-30.5 12q-20 0 -31 -12t-11 -29
q0 -18 11 -30t31 -12t31 12t11 30z" />
    <glyph glyph-name="uring" unicode="&#x16f;" horiz-adv-x="505" 
d="M154 584q0 39 26 64.5t68 25.5q41 0 67 -25.5t26 -64.5t-26 -64.5t-67 -25.5q-42 0 -68 25.5t-26 64.5zM290 584q0 18 -11 30t-31 12t-31 -12t-11 -30t11 -30t31 -12t31 12t11 30zM436 443v-433q-80 -20 -172 -20q-101 0 -153 38t-52 127v288h98v-281q0 -90 105 -90
q37 0 76 6v365h98z" />
    <glyph glyph-name="Uhungarumlaut" unicode="&#x170;" horiz-adv-x="606" 
d="M63 203v391h102v-373q0 -80 38 -112t110 -32q59 0 117 10v507h102v-577q-99 -27 -219 -27q-250 0 -250 213zM270 644h-84l79 141h84zM402 644h-84l79 141h84z" />
    <glyph glyph-name="uhungarumlaut" unicode="&#x171;" horiz-adv-x="505" 
d="M436 443v-433q-80 -20 -172 -20q-101 0 -153 38t-52 127v288h98v-281q0 -90 105 -90q37 0 76 6v365h98zM218 513h-84l85 152h84zM350 513h-84l85 152h84z" />
    <glyph glyph-name="Uogonek" unicode="&#x172;" horiz-adv-x="606" 
d="M63 203v391h102v-373q0 -80 38 -112t110 -32q59 0 117 10v507h102v-577q-84 -62 -84 -108q0 -29 31 -29q26 0 46 10v-69q-23 -11 -61 -11q-41 0 -67.5 20t-26.5 61q0 28 17 57.5t44 50.5q-59 -9 -118 -9q-250 0 -250 213z" />
    <glyph glyph-name="uogonek" unicode="&#x173;" horiz-adv-x="505" 
d="M436 -110v-69q-23 -11 -61 -11q-41 0 -67.5 20.5t-26.5 62.5q0 61 57 102q-45 -5 -74 -5q-101 0 -153 38t-52 127v288h98v-281q0 -90 105 -90q37 0 76 6v365h98v-433q-77 -55 -77 -101q0 -29 31 -29q26 0 46 10z" />
    <glyph glyph-name="Wcircumflex" unicode="&#x174;" horiz-adv-x="815" 
d="M354 594h109l119 -483l118 483h100l-152 -594h-130l-111 459l-112 -459h-129l-151 594h103l118 -483zM438 783l116 -143h-85l-62 76l-62 -76h-85l116 143h62z" />
    <glyph glyph-name="wcircumflex" unicode="&#x175;" horiz-adv-x="671" 
d="M366 660l116 -150h-87l-60 79l-60 -79h-87l116 150h62zM381 443l94 -340l93 340h98l-130 -443h-111l-90 321l-90 -321h-110l-130 443h102l92 -340l93 340h89z" />
    <glyph glyph-name="Ycircumflex" unicode="&#x176;" horiz-adv-x="542" 
d="M272 323l152 271h113l-215 -367v-227h-102v227l-215 367h113zM302 783l116 -143h-85l-62 76l-62 -76h-85l116 143h62z" />
    <glyph glyph-name="ycircumflex" unicode="&#x177;" horiz-adv-x="468" 
d="M111 443l126 -349l124 349h102l-240 -623h-97l62 160l-183 463h106zM268 660l116 -150h-87l-60 79l-60 -79h-87l116 150h62z" />
    <glyph glyph-name="Ydieresis" unicode="&#x178;" horiz-adv-x="542" 
d="M272 323l152 271h113l-215 -367v-227h-102v227l-215 367h113zM185 635q-25 0 -42.5 17.5t-17.5 42.5t17.5 42.5t42.5 17.5t42.5 -17.5t17.5 -42.5t-17.5 -42.5t-42.5 -17.5zM357 635q-25 0 -42.5 17.5t-17.5 42.5t17.5 42.5t42.5 17.5t42.5 -17.5t17.5 -42.5t-17.5 -42.5
t-42.5 -17.5z" />
    <glyph glyph-name="Zacute" unicode="&#x179;" horiz-adv-x="493" 
d="M37 504v90h420v-89l-314 -415h323v-90h-438v90l309 414h-300zM290 644h-91l79 141h91z" />
    <glyph glyph-name="zacute" unicode="&#x17a;" horiz-adv-x="421" 
d="M258 513h-91l85 152h91zM392 82v-82h-360v81l230 280h-221v82h339v-83l-233 -278h245z" />
    <glyph glyph-name="Zdotaccent" unicode="&#x17b;" horiz-adv-x="493" 
d="M252 638q-25 0 -43.5 18t-18.5 43q0 26 18 44.5t44 18.5t44 -18.5t18 -44.5q0 -25 -18.5 -43t-43.5 -18zM37 504v90h420v-89l-314 -415h323v-90h-438v90l309 414h-300z" />
    <glyph glyph-name="zdotaccent" unicode="&#x17c;" horiz-adv-x="421" 
d="M392 82v-82h-360v81l230 280h-221v82h339v-83l-233 -278h245zM219 516q-26 0 -44 18.5t-18 44.5q0 25 18 43t44 18t44 -18t18 -43q0 -26 -18 -44.5t-44 -18.5z" />
    <glyph glyph-name="Zcaron" unicode="&#x17d;" horiz-adv-x="493" 
d="M398 785l-116 -142h-62l-116 142h85l62 -76l62 76h85zM37 504v90h420v-89l-314 -415h323v-90h-438v90l309 414h-300z" />
    <glyph glyph-name="zcaron" unicode="&#x17e;" horiz-adv-x="421" 
d="M365 654l-116 -149h-62l-116 149h88l59 -80l59 80h88zM392 82v-82h-360v81l230 280h-221v82h339v-83l-233 -278h245z" />
    <glyph glyph-name="florin" unicode="&#x192;" horiz-adv-x="364" 
d="M82 239h-62v82h75l18 119q26 164 155 164q41 0 70 -17v-94q-27 20 -61 20q-55 0 -66 -76l-18 -116h92v-82h-105l-55 -359h-98z" />
    <glyph glyph-name="Aringacute" unicode="&#x1fa;" horiz-adv-x="599" 
d="M5 0l222 572q-28 23 -28 62q0 38 27.5 63t71.5 25t72 -25.5t28 -62.5q0 -39 -28 -62l223 -572h-111l-52 140h-265l-52 -140h-108zM399 224l-101 274l-102 -274h203zM254 634q0 -16 12 -27t32 -11t32 11t12 27q0 17 -12 28t-32 11t-32 -11t-12 -28zM345 752h-91l53 95h91z
" />
    <glyph glyph-name="aringacute" unicode="&#x1fb;" horiz-adv-x="449" 
d="M325 769l-52 -92h-91l52 92h91zM132 563q0 35 26.5 58.5t68.5 23.5t68.5 -23.5t26.5 -58.5t-26.5 -58.5t-68.5 -23.5t-68.5 23.5t-26.5 58.5zM227 527q19 0 30.5 10t11.5 26t-11.5 26.5t-30.5 10.5t-30.5 -10.5t-11.5 -26.5t11.5 -26t30.5 -10zM291 260v37q0 35 -23 52.5
t-62 17.5q-65 0 -128 -36v86q64 36 144 36q166 0 166 -151v-293q-69 -18 -152 -18q-199 0 -199 135q0 66 53.5 100t151.5 34h49zM291 70v124h-42q-114 0 -114 -65q0 -64 102 -64q24 0 54 5z" />
    <glyph glyph-name="AEacute" unicode="&#x1fc;" horiz-adv-x="842" 
d="M199 140l-84 -140h-110l359 594h426v-90h-262v-160h242v-88h-242v-166h267v-90h-369v140h-227zM249 224h177v294zM598 644h-91l79 141h91z" />
    <glyph glyph-name="aeacute" unicode="&#x1fd;" horiz-adv-x="735" 
d="M697 192h-308q8 -58 48 -87.5t95 -29.5q84 0 149 43v-87q-59 -41 -156 -41q-104 0 -166 62q-67 -62 -156 -62q-72 0 -119 33.5t-47 98.5q0 66 54 100t151 34h57q4 24 7 35q-7 77 -93 77q-70 0 -135 -37v86q64 36 143 36q99 0 137 -63q58 63 149 63q94 0 142 -57.5
t48 -152.5v-51zM298 192h-51q-112 0 -112 -68q0 -29 21 -44.5t54 -15.5q66 0 108 47q-17 40 -20 81zM390 256h214q-2 54 -26.5 84t-73.5 30q-44 0 -75 -30t-39 -84zM409 513h-91l85 152h91z" />
    <glyph glyph-name="Oslashacute" unicode="&#x1fe;" horiz-adv-x="700" 
d="M663 594l-81 -90q76 -86 76 -207q0 -135 -89 -221t-219 -86q-104 0 -185 57l-43 -47h-86l82 90q-76 84 -76 207q0 135 88.5 221t219.5 86q103 0 183 -58l44 48h86zM515 429l-286 -311q52 -38 121 -38q87 0 146 60.5t59 156.5q0 76 -40 132zM184 164l286 311
q-51 39 -120 39q-87 0 -146 -60.5t-59 -156.5q0 -78 39 -133zM388 644h-91l79 141h91z" />
    <glyph glyph-name="oslashacute" unicode="&#x1ff;" horiz-adv-x="532" 
d="M504 448l-64 -72q54 -64 54 -155q0 -102 -64 -166.5t-164 -64.5q-77 0 -133 39l-31 -34h-74l63 71q-53 62 -53 155q0 103 64 167.5t164 64.5q74 0 133 -40l31 35h74zM154 137l186 211q-31 22 -74 22q-58 0 -94.5 -41t-36.5 -108q0 -48 19 -84zM377 305l-186 -211
q30 -21 75 -21q58 0 95 40.5t37 107.5q0 47 -21 84zM307 513h-91l85 152h91z" />
    <glyph glyph-name="Scommaaccent" unicode="&#x218;" horiz-adv-x="442" 
d="M168 -42h96q0 -92 -89 -143h-67q60 61 60 143zM40 34v104q80 -61 157 -61q48 0 79 20.5t31 62.5q0 38 -26.5 58.5t-82.5 37.5q-89 28 -127.5 68t-38.5 113q0 78 54.5 122.5t134.5 44.5q85 0 152 -45v-102q-74 60 -149 60q-42 0 -67 -21t-25 -56q0 -34 24.5 -53.5
t84.5 -38.5q89 -27 127.5 -69t38.5 -116q0 -85 -58.5 -129t-150.5 -44q-94 0 -158 44z" />
    <glyph glyph-name="scommaaccent" unicode="&#x219;" horiz-adv-x="391" 
d="M153 -42h96q0 -92 -89 -143h-67q60 61 60 143zM48 26v94q66 -50 135 -50q73 0 73 50q0 26 -18.5 39t-64.5 25q-70 16 -100.5 47t-30.5 88q0 65 43.5 99.5t114.5 34.5q72 0 127 -34v-91q-63 45 -124 45q-31 0 -48.5 -14t-17.5 -36t15.5 -34.5t54.5 -23.5q77 -17 111 -49
t34 -91q0 -67 -45.5 -101t-121.5 -34q-83 0 -137 36z" />
    <glyph glyph-name="uni021A" unicode="&#x21a;" horiz-adv-x="507" 
d="M206 -42h96q0 -92 -89 -143h-67q60 61 60 143zM305 504v-504h-102v504h-188v90h477v-90h-187z" />
    <glyph glyph-name="uni021B" unicode="&#x21b;" horiz-adv-x="343" 
d="M161 -42h96q0 -92 -89 -143h-67q60 61 60 143zM8 360v83h67v108h98v-108h126v-83h-126v-211q0 -71 61 -71q39 0 81 25v-89q-46 -24 -107 -24q-59 0 -96 33t-37 104v233h-67z" />
    <glyph glyph-name="uni0237" unicode="&#x237;" horiz-adv-x="235" 
d="M68 -33v476h99v-489q0 -71 -39.5 -107.5t-110.5 -36.5q-41 0 -76 14v85q32 -15 65 -15q31 0 46.5 16t15.5 57z" />
    <glyph glyph-name="circumflex" unicode="&#x2c6;" horiz-adv-x="500" 
d="M281 660l116 -150h-87l-60 79l-60 -79h-87l116 150h62z" />
    <glyph glyph-name="caron" unicode="&#x2c7;" horiz-adv-x="500" 
d="M397 654l-116 -149h-62l-116 149h88l59 -80l59 80h88z" />
    <glyph glyph-name="uni02C9" unicode="&#x2c9;" horiz-adv-x="500" 
d="M137 527v74h225v-74h-225z" />
    <glyph glyph-name="breve" unicode="&#x2d8;" horiz-adv-x="500" 
d="M298 646h75q0 -64 -33 -101t-90 -37t-90 37t-33 101h75q0 -70 48 -70t48 70z" />
    <glyph glyph-name="dotaccent" unicode="&#x2d9;" horiz-adv-x="500" 
d="M250 516q-26 0 -44 18.5t-18 44.5q0 25 18 43t44 18t44 -18t18 -43q0 -26 -18 -44.5t-44 -18.5z" />
    <glyph glyph-name="ring" unicode="&#x2da;" horiz-adv-x="500" 
d="M156 584q0 39 26 64.5t68 25.5q41 0 67 -25.5t26 -64.5t-26 -64.5t-67 -25.5q-42 0 -68 25.5t-26 64.5zM292 584q0 18 -11 30t-31 12t-31 -12t-11 -30t11 -30t31 -12t31 12t11 30z" />
    <glyph glyph-name="ogonek" unicode="&#x2db;" horiz-adv-x="500" 
d="M245 12h71q-70 -53 -70 -103q0 -29 32 -29q25 0 46 10v-69q-23 -11 -62 -11q-41 0 -67 20t-26 61q0 33 21 67t55 54z" />
    <glyph glyph-name="tilde" unicode="&#x2dc;" horiz-adv-x="500" 
d="M329 632h65q0 -58 -22 -91.5t-61 -33.5q-27 0 -62.5 27t-48.5 27q-29 0 -29 -51h-66q0 59 21.5 92t61.5 33q27 0 63 -27t49 -27q29 0 29 51z" />
    <glyph glyph-name="hungarumlaut" unicode="&#x2dd;" horiz-adv-x="500" 
d="M183 513h-84l85 152h84zM315 513h-84l85 152h84z" />
    <glyph glyph-name="anoteleia" unicode="&#x387;" horiz-adv-x="259" 
d="M61 260q0 29 20 49t48 20q29 0 49.5 -20t20.5 -49t-20.5 -49t-49.5 -20q-28 0 -48 20t-20 49z" />
    <glyph glyph-name="pi" unicode="&#x3c0;" horiz-adv-x="546" 
d="M501 84v-83q-24 -11 -57 -11q-114 0 -114 126v236h-127v-352h-97v352h-74v91h470v-91h-75v-226q0 -52 39 -52q17 0 35 10z" />
    <glyph glyph-name="Wgrave" unicode="&#x1e80;" horiz-adv-x="815" 
d="M456 644h-91l-79 141h91zM354 594h109l119 -483l118 483h100l-152 -594h-130l-111 459l-112 -459h-129l-151 594h103l118 -483z" />
    <glyph glyph-name="wgrave" unicode="&#x1e81;" horiz-adv-x="671" 
d="M381 443l94 -340l93 340h98l-130 -443h-111l-90 321l-90 -321h-110l-130 443h102l92 -340l93 340h89zM379 513h-91l-85 152h91z" />
    <glyph glyph-name="Wacute" unicode="&#x1e82;" horiz-adv-x="815" 
d="M449 644h-91l79 141h91zM354 594h109l119 -483l118 483h100l-152 -594h-130l-111 459l-112 -459h-129l-151 594h103l118 -483z" />
    <glyph glyph-name="wacute" unicode="&#x1e83;" horiz-adv-x="671" 
d="M384 513h-91l85 152h91zM381 443l94 -340l93 340h98l-130 -443h-111l-90 321l-90 -321h-110l-130 443h102l92 -340l93 340h89z" />
    <glyph glyph-name="Wdieresis" unicode="&#x1e84;" horiz-adv-x="815" 
d="M321 635q-25 0 -42.5 17.5t-17.5 42.5t17.5 42.5t42.5 17.5t42.5 -17.5t17.5 -42.5t-17.5 -42.5t-42.5 -17.5zM493 635q-25 0 -42.5 17.5t-17.5 42.5t17.5 42.5t42.5 17.5t42.5 -17.5t17.5 -42.5t-17.5 -42.5t-42.5 -17.5zM354 594h109l119 -483l118 483h100l-152 -594
h-130l-111 459l-112 -459h-129l-151 594h103l118 -483z" />
    <glyph glyph-name="wdieresis" unicode="&#x1e85;" horiz-adv-x="671" 
d="M249 516q-25 0 -42.5 18t-17.5 42q0 25 17.5 42.5t42.5 17.5t42.5 -17.5t17.5 -42.5q0 -24 -17.5 -42t-42.5 -18zM421 516q-25 0 -42.5 18t-17.5 42q0 25 17.5 42.5t42.5 17.5t42.5 -17.5t17.5 -42.5q0 -24 -17.5 -42t-42.5 -18zM381 443l94 -340l93 340h98l-130 -443
h-111l-90 321l-90 -321h-110l-130 443h102l92 -340l93 340h89z" />
    <glyph glyph-name="Ygrave" unicode="&#x1ef2;" horiz-adv-x="542" 
d="M272 323l152 271h113l-215 -367v-227h-102v227l-215 367h113zM322 644h-91l-79 141h91z" />
    <glyph glyph-name="ygrave" unicode="&#x1ef3;" horiz-adv-x="468" 
d="M111 443l126 -349l124 349h102l-240 -623h-97l62 160l-183 463h106zM287 513h-91l-85 152h91z" />
    <glyph glyph-name="uni2011" unicode="&#x2011;" horiz-adv-x="355" 
d="M53 216v88h249v-88h-249z" />
    <glyph glyph-name="figuredash" unicode="&#x2012;" horiz-adv-x="572" 
d="M53 227v75h466v-75h-466z" />
    <glyph glyph-name="endash" unicode="&#x2013;" horiz-adv-x="572" 
d="M53 227v75h466v-75h-466z" />
    <glyph glyph-name="emdash" unicode="&#x2014;" horiz-adv-x="952" 
d="M53 227v75h846v-75h-846z" />
    <glyph glyph-name="uni2015" unicode="&#x2015;" horiz-adv-x="952" 
d="M53 227v75h846v-75h-846z" />
    <glyph glyph-name="quoteleft" unicode="&#x2018;" horiz-adv-x="228" 
d="M160 432h-101q0 69 30.5 125t75.5 87h69q-74 -94 -74 -212z" />
    <glyph glyph-name="quoteright" unicode="&#x2019;" horiz-adv-x="228" 
d="M94 644h101q0 -69 -30 -125t-75 -87h-70q74 94 74 212z" />
    <glyph glyph-name="quotesinglbase" unicode="&#x201a;" horiz-adv-x="228" 
d="M73 101h101q0 -69 -30 -125t-75 -87h-70q74 94 74 212z" />
    <glyph glyph-name="quotedblleft" unicode="&#x201c;" horiz-adv-x="392" 
d="M160 432h-101q0 69 30.5 125t75.5 87h69q-74 -94 -74 -212zM325 432h-101q0 69 30 125t75 87h70q-74 -94 -74 -212z" />
    <glyph glyph-name="quotedblright" unicode="&#x201d;" horiz-adv-x="392" 
d="M94 644h101q0 -69 -30 -125t-75 -87h-70q74 94 74 212zM259 644h101q0 -69 -30 -125t-75 -87h-70q74 94 74 212z" />
    <glyph glyph-name="quotedblbase" unicode="&#x201e;" horiz-adv-x="392" 
d="M73 101h101q0 -69 -30 -125t-75 -87h-70q74 94 74 212zM238 101h101q0 -69 -30 -125t-75 -87h-70q74 94 74 212z" />
    <glyph glyph-name="dagger" unicode="&#x2020;" horiz-adv-x="274" 
d="M173 441v-194h-72v194h-81v66h81v87h72v-87h81v-66h-81z" />
    <glyph glyph-name="daggerdbl" unicode="&#x2021;" horiz-adv-x="274" 
d="M171 325v-78h-68v78h-83v64h83v64h-83v64h83v77h68v-77h83v-64h-83v-64h83v-64h-83z" />
    <glyph glyph-name="bullet" unicode="&#x2022;" horiz-adv-x="331" 
d="M61 260q0 44 30.5 74.5t73.5 30.5t74 -30.5t31 -74.5q0 -43 -30.5 -73.5t-74.5 -30.5q-43 0 -73.5 30t-30.5 74z" />
    <glyph glyph-name="ellipsis" unicode="&#x2026;" horiz-adv-x="760" 
d="M197 59q0 -28 -20.5 -48t-50.5 -20q-28 0 -47.5 20t-19.5 48q0 29 19.5 49.5t47.5 20.5q30 0 50.5 -20.5t20.5 -49.5zM449 59q0 -28 -20.5 -48t-50.5 -20q-27 0 -46.5 20t-19.5 48t19.5 48.5t46.5 20.5q30 0 50.5 -20t20.5 -49zM702 59q0 -28 -21 -48t-51 -20
q-27 0 -46.5 20t-19.5 48q0 29 19.5 49.5t46.5 20.5q31 0 51.5 -20.5t20.5 -49.5z" />
    <glyph glyph-name="perthousand" unicode="&#x2030;" horiz-adv-x="1012" 
d="M31 459q0 63 41.5 104t102.5 41t103 -41t42 -104t-42 -103.5t-103 -40.5t-102.5 40.5t-41.5 103.5zM109 459q0 -32 18.5 -51t47.5 -19q30 0 49 19t19 51q0 33 -19 52t-49 19q-29 0 -47.5 -19t-18.5 -52zM663 134q0 -62 -42 -103t-103 -41q-60 0 -102 41t-42 103
q0 63 42 104t102 41q61 0 103 -41t42 -104zM586 134q0 34 -19 52.5t-49 18.5q-29 0 -47.5 -18.5t-18.5 -52.5q0 -32 18.5 -50.5t47.5 -18.5q30 0 49 18.5t19 50.5zM981 134q0 -62 -42 -103t-103 -41t-102.5 41t-41.5 103q0 64 41.5 104.5t102.5 40.5t103 -41t42 -104z
M904 134q0 34 -19 52.5t-49 18.5t-48.5 -18.5t-18.5 -52.5q0 -32 19 -50.5t48 -18.5q30 0 49 18.5t19 50.5zM563 594l-357 -594h-75l357 594h75z" />
    <glyph glyph-name="guilsinglleft" unicode="&#x2039;" horiz-adv-x="313" 
d="M267 373l-122 -158l122 -158h-98l-123 158l123 158h98z" />
    <glyph glyph-name="guilsinglright" unicode="&#x203a;" horiz-adv-x="313" 
d="M168 215l-122 158h98l123 -158l-123 -158h-98z" />
    <glyph glyph-name="fraction" unicode="&#x2044;" horiz-adv-x="198" 
d="M-112 0l347 594h74l-346 -594h-75z" />
    <glyph glyph-name="uni2070" unicode="&#x2070;" horiz-adv-x="325" 
d="M303 421q0 -79 -39 -129t-101 -50q-63 0 -102 50t-39 129t39 128.5t102 49.5q62 0 101 -49.5t39 -128.5zM223 421q0 52 -16.5 80.5t-43.5 28.5t-43.5 -28t-16.5 -81t16.5 -81.5t43.5 -28.5q26 0 43 29t17 81z" />
    <glyph glyph-name="uni2074" unicode="&#x2074;" horiz-adv-x="324" 
d="M255 594v-207h53v-60h-53v-79h-77v79h-163v61l161 206h79zM178 508l-94 -121h94v121z" />
    <glyph glyph-name="uni2075" unicode="&#x2075;" horiz-adv-x="252" 
d="M108 524l-4 -55q129 -14 129 -114q0 -53 -36 -83t-96 -30q-51 0 -87 25v71q44 -30 84 -30q59 0 59 45q0 52 -123 60l13 181h175v-70h-114z" />
    <glyph glyph-name="uni2076" unicode="&#x2076;" horiz-adv-x="296" 
d="M129 594h83l-56 -92l-23 -34q13 10 33 10q48 0 81 -30.5t33 -83.5t-36.5 -87.5t-95.5 -34.5q-58 0 -93 34.5t-35 87.5q0 52 40 117zM95 363q0 -26 15 -41t38 -15q25 0 40.5 15t15.5 41t-15.5 41.5t-40.5 15.5q-23 0 -38 -15.5t-15 -41.5z" />
    <glyph glyph-name="uni2077" unicode="&#x2077;" horiz-adv-x="257" 
d="M158 524h-149v70h232v-70l-131 -276h-82z" />
    <glyph glyph-name="uni2078" unicode="&#x2078;" horiz-adv-x="285" 
d="M143 242q-54 0 -89.5 27t-35.5 73q0 30 18.5 52t43.5 29q-48 22 -48 78q0 46 31.5 72t79.5 26q47 0 79 -26t32 -72q0 -56 -48 -78q25 -7 43 -29t18 -52q0 -46 -35.5 -73t-88.5 -27zM143 458q17 0 28.5 11t11.5 30q0 18 -11.5 28.5t-28.5 10.5t-29 -11t-12 -28
q0 -19 12 -30t29 -11zM143 304q20 0 33.5 11.5t13.5 31.5t-13.5 32.5t-33.5 12.5t-33.5 -12.5t-13.5 -32.5t13 -31.5t34 -11.5z" />
    <glyph glyph-name="uni2079" unicode="&#x2079;" horiz-adv-x="296" 
d="M168 248h-84l56 93l23 33q-13 -10 -33 -10q-48 0 -81 30.5t-33 83.5t36 87.5t96 34.5q58 0 93 -34.5t35 -87.5q0 -52 -40 -117zM202 479q0 26 -15.5 41t-39.5 15t-39.5 -15t-15.5 -41q0 -27 15 -42t40 -15q24 0 39.5 15.5t15.5 41.5z" />
    <glyph glyph-name="uni2080" unicode="&#x2080;" horiz-adv-x="325" 
d="M303 173q0 -79 -39 -129t-101 -50q-63 0 -102 50t-39 129t39 129t102 50q62 0 101 -50t39 -129zM223 173q0 52 -16.5 80.5t-43.5 28.5t-43.5 -28t-16.5 -81q0 -52 16.5 -80.5t43.5 -28.5q26 0 43 28.5t17 80.5z" />
    <glyph glyph-name="uni2081" unicode="&#x2081;" horiz-adv-x="200" 
d="M13 256v72l145 24v-352h-81v264z" />
    <glyph glyph-name="uni2082" unicode="&#x2082;" horiz-adv-x="267" 
d="M114 70h135v-70h-239v60q72 58 109 98t37 75q0 46 -48 46q-44 0 -90 -40v75q41 38 109 38q51 0 82 -27t31 -77q0 -85 -126 -178z" />
    <glyph glyph-name="uni2083" unicode="&#x2083;" horiz-adv-x="254" 
d="M21 243v76q44 33 101 33q49 0 78 -24.5t29 -67.5q0 -31 -19 -54t-48 -31q73 -17 73 -83q0 -48 -36.5 -73t-88.5 -25q-54 0 -95 25v77q40 -34 88 -34q50 0 50 38q0 23 -17 32t-58 11v58q69 5 69 46q0 34 -40 34q-43 0 -86 -38z" />
    <glyph glyph-name="uni2084" unicode="&#x2084;" horiz-adv-x="324" 
d="M255 346v-206h53v-61h-53v-79h-77v79h-163v61l161 206h79zM178 261l-94 -121h94v121z" />
    <glyph glyph-name="uni2085" unicode="&#x2085;" horiz-adv-x="252" 
d="M108 276l-4 -55q129 -14 129 -113q0 -53 -36 -83.5t-96 -30.5q-51 0 -87 25v72q43 -31 84 -31q59 0 59 45q0 53 -123 61l13 180h175v-70h-114z" />
    <glyph glyph-name="uni2086" unicode="&#x2086;" horiz-adv-x="296" 
d="M129 346h83l-56 -92l-23 -34q13 11 33 11q48 0 81 -31t33 -84q0 -52 -36.5 -87t-95.5 -35q-58 0 -93 35t-35 87q0 54 40 117zM95 116q0 -26 15 -41.5t38 -15.5q25 0 40.5 15t15.5 42q0 26 -15.5 41t-40.5 15q-23 0 -38 -15t-15 -41z" />
    <glyph glyph-name="uni2087" unicode="&#x2087;" horiz-adv-x="257" 
d="M158 276h-149v70h232v-70l-131 -276h-82z" />
    <glyph glyph-name="uni2088" unicode="&#x2088;" horiz-adv-x="285" 
d="M143 -6q-54 0 -89.5 27t-35.5 74q0 30 18 51.5t44 29.5q-48 22 -48 77q0 46 31.5 72.5t79.5 26.5q47 0 79 -26.5t32 -72.5q0 -55 -48 -77q26 -8 43.5 -29.5t17.5 -51.5q0 -47 -35 -74t-89 -27zM143 210q17 0 28.5 11t11.5 30q0 18 -11.5 28.5t-28.5 10.5t-29 -11t-12 -28
q0 -19 12 -30t29 -11zM143 56q20 0 33.5 12t13.5 31q0 20 -13.5 32.5t-33.5 12.5q-21 0 -34 -12t-13 -33q0 -19 13 -31t34 -12z" />
    <glyph glyph-name="uni2089" unicode="&#x2089;" horiz-adv-x="296" 
d="M168 0h-84l56 93l23 34q-13 -11 -33 -11q-48 0 -81 31t-33 84q0 52 36 86.5t96 34.5q58 0 93 -34.5t35 -86.5q0 -53 -40 -118zM202 231q0 26 -15.5 41.5t-39.5 15.5t-39.5 -15.5t-15.5 -41.5t15.5 -41.5t39.5 -15.5t39.5 15.5t15.5 41.5z" />
    <glyph glyph-name="Euro" unicode="&#x20ac;" horiz-adv-x="511" 
d="M75 326h-57v60h65q21 101 88 159.5t164 58.5q79 0 139 -41v-112q-55 61 -137 61q-55 0 -93.5 -33.5t-55.5 -92.5h171l-12 -60h-169q-1 -9 -1 -29q0 -18 1 -26h158l-12 -60h-136q17 -61 56.5 -95t95.5 -34q80 0 141 61v-110q-62 -43 -146 -43q-98 0 -165 59.5t-88 161.5
h-64v60h57q-1 9 -1 26q0 20 1 29z" />
    <glyph glyph-name="uni2117" unicode="&#x2117;" horiz-adv-x="698" 
d="M45 297q0 131 86.5 219t217.5 88t217.5 -88t86.5 -219t-86.5 -219t-217.5 -88t-217.5 88t-86.5 219zM85 297q0 -118 74.5 -194t189.5 -76t189.5 76t74.5 194t-74.5 194t-189.5 76t-189.5 -76t-74.5 -194zM325 229v-107h-80v347q58 10 107 10q70 0 110 -34t40 -94
q0 -62 -38 -93t-101 -31q-27 0 -38 2zM325 407v-111q14 -2 30 -2q66 0 66 57q0 27 -18 42.5t-50 15.5q-14 0 -28 -2z" />
    <glyph glyph-name="trademark" unicode="&#x2122;" horiz-adv-x="696" 
d="M185 534v-217h-69v217h-85v60h239v-60h-85zM495 317h-58l-58 182l-30 -182h-67l46 277h80l59 -193l56 193h81l45 -277h-67l-32 182z" />
    <glyph glyph-name="uni2126" unicode="&#x2126;" horiz-adv-x="594" 
d="M335 0v106q122 77 122 229q0 85 -44.5 137.5t-115.5 52.5t-115.5 -52.5t-44.5 -137.5q0 -152 121 -229v-106h-216v86h126q-50 30 -89 97.5t-39 151.5q0 117 68.5 193t188.5 76t188.5 -76t68.5 -193q0 -84 -39 -151.5t-89 -97.5h126v-86h-217z" />
    <glyph glyph-name="uni2153" unicode="&#x2153;" horiz-adv-x="698" 
d="M434 243v76q44 33 101 33q49 0 78 -24.5t29 -67.5q0 -31 -19 -54t-48 -31q73 -17 73 -83q0 -48 -36.5 -73t-88.5 -25q-54 0 -95 25v77q40 -34 88 -34q50 0 50 38q0 23 -17 32t-58 11v58q69 5 69 46q0 34 -40 34q-43 0 -86 -38zM40 503v73l145 23v-351h-81v263zM108 0
l347 594h74l-346 -594h-75z" />
    <glyph glyph-name="uni2154" unicode="&#x2154;" horiz-adv-x="785" 
d="M521 243v76q44 33 101 33q49 0 78 -24.5t29 -67.5q0 -31 -19 -54t-48 -31q73 -17 73 -83q0 -48 -36.5 -73t-88.5 -25q-54 0 -95 25v77q40 -34 88 -34q50 0 50 38q0 23 -17 32t-58 11v58q69 5 69 46q0 34 -40 34q-43 0 -86 -38zM154 318h135v-70h-239v59q49 40 74.5 63
t48.5 54.5t23 55.5q0 46 -48 46q-45 0 -90 -39v75q40 37 109 37q51 0 82 -26.5t31 -76.5q0 -85 -126 -178zM195 0l347 594h74l-346 -594h-75z" />
    <glyph glyph-name="uni215B" unicode="&#x215b;" horiz-adv-x="705" 
d="M531 -6q-54 0 -89.5 27t-35.5 74q0 30 18 51.5t44 29.5q-48 22 -48 77q0 46 31.5 72.5t79.5 26.5q47 0 79 -26.5t32 -72.5q0 -55 -48 -77q26 -8 43.5 -29.5t17.5 -51.5q0 -47 -35 -74t-89 -27zM531 210q17 0 28.5 11t11.5 30q0 18 -11.5 28.5t-28.5 10.5t-29 -11t-12 -28
q0 -19 12 -30t29 -11zM531 56q20 0 33.5 12t13.5 31q0 20 -13.5 32.5t-33.5 12.5q-21 0 -34 -12t-13 -33q0 -19 13 -31t34 -12zM40 503v73l145 23v-351h-81v263zM108 0l347 594h74l-346 -594h-75z" />
    <glyph glyph-name="uni215C" unicode="&#x215c;" horiz-adv-x="754" 
d="M580 -6q-54 0 -89.5 27t-35.5 74q0 30 18 51.5t44 29.5q-48 22 -48 77q0 46 31.5 72.5t79.5 26.5q47 0 79 -26.5t32 -72.5q0 -55 -48 -77q26 -8 43.5 -29.5t17.5 -51.5q0 -47 -35 -74t-89 -27zM580 210q17 0 28.5 11t11.5 30q0 18 -11.5 28.5t-28.5 10.5t-29 -11t-12 -28
q0 -19 12 -30t29 -11zM580 56q20 0 33.5 12t13.5 31q0 20 -13.5 32.5t-33.5 12.5q-21 0 -34 -12t-13 -33q0 -19 13 -31t34 -12zM56 491v75q42 33 101 33q49 0 78 -24t29 -67q0 -31 -19 -54.5t-48 -30.5q33 -8 53 -29.5t20 -53.5q0 -48 -36.5 -73t-88.5 -25q-54 0 -95 25v77
q40 -34 88 -34q50 0 50 38q0 22 -17.5 31.5t-57.5 11.5v58q69 5 69 46q0 33 -40 33q-42 0 -86 -37zM157 0l347 594h74l-346 -594h-75z" />
    <glyph glyph-name="uni215D" unicode="&#x215d;" horiz-adv-x="748" 
d="M141 524l-4 -55q129 -14 129 -114q0 -53 -36 -83t-96 -30q-51 0 -87 25v71q44 -30 84 -30q59 0 59 45q0 52 -123 60l13 181h175v-70h-114zM574 -6q-54 0 -89.5 27t-35.5 74q0 30 18 51.5t44 29.5q-48 22 -48 77q0 46 31.5 72.5t79.5 26.5q47 0 79 -26.5t32 -72.5
q0 -55 -48 -77q26 -8 43.5 -29.5t17.5 -51.5q0 -47 -35 -74t-89 -27zM574 210q17 0 28.5 11t11.5 30q0 18 -11.5 28.5t-28.5 10.5t-29 -11t-12 -28q0 -19 12 -30t29 -11zM574 56q20 0 33.5 12t13.5 31q0 20 -13.5 32.5t-33.5 12.5q-21 0 -34 -12t-13 -33q0 -19 13 -31
t34 -12zM151 0l347 594h74l-346 -594h-75z" />
    <glyph glyph-name="uni215E" unicode="&#x215e;" horiz-adv-x="701" 
d="M184 524h-149v70h232v-70l-131 -276h-82zM527 -6q-54 0 -89.5 27t-35.5 74q0 30 18 51.5t44 29.5q-48 22 -48 77q0 46 31.5 72.5t79.5 26.5q47 0 79 -26.5t32 -72.5q0 -55 -48 -77q26 -8 43.5 -29.5t17.5 -51.5q0 -47 -35 -74t-89 -27zM527 210q17 0 28.5 11t11.5 30
q0 18 -11.5 28.5t-28.5 10.5t-29 -11t-12 -28q0 -19 12 -30t29 -11zM527 56q20 0 33.5 12t13.5 31q0 20 -13.5 32.5t-33.5 12.5q-21 0 -34 -12t-13 -33q0 -19 13 -31t34 -12zM104 0l347 594h74l-346 -594h-75z" />
    <glyph glyph-name="partialdiff" unicode="&#x2202;" horiz-adv-x="527" 
d="M109 680h124q258 -207 258 -446q0 -112 -63.5 -178t-164.5 -66q-100 0 -164 64t-64 165q0 102 63 165.5t160 63.5q67 0 105 -44q-32 62 -98.5 135.5t-155.5 140.5zM392 220q0 67 -35.5 106.5t-93.5 39.5q-56 0 -92 -39.5t-36 -106.5q0 -66 36 -105.5t92 -39.5
q58 0 93.5 39.5t35.5 105.5z" />
    <glyph glyph-name="Delta" unicode="&#x2206;" horiz-adv-x="599" 
d="M593 0h-588l231 594h125zM142 83h311l-155 420z" />
    <glyph glyph-name="product" unicode="&#x220f;" horiz-adv-x="603" 
d="M529 -180h-102v683h-251v-683h-102v774h455v-774z" />
    <glyph glyph-name="summation" unicode="&#x2211;" horiz-adv-x="443" 
d="M217 207l-192 299v88h393v-88h-283l194 -299l-194 -299h283v-88h-393v88z" />
    <glyph glyph-name="minus" unicode="&#x2212;" horiz-adv-x="459" 
d="M40 254v77h379v-77h-379z" />
    <glyph glyph-name="radical" unicode="&#x221a;" horiz-adv-x="536" 
d="M421 594h95l-180 -594h-110l-107 295h-73v96h147l89 -276z" />
    <glyph glyph-name="infinity" unicode="&#x221e;" horiz-adv-x="700" 
d="M350 227l-27 -31q-60 -68 -134 -68q-63 0 -106 43t-43 114t42.5 113.5t106.5 42.5q75 0 134 -67l27 -31l27 31q59 67 134 67q64 0 106.5 -42.5t42.5 -113.5t-43 -114t-106 -43q-74 0 -134 68zM300 285l-35 41q-35 37 -71 37q-30 0 -51.5 -21.5t-21.5 -56.5t21.5 -56.5
t51.5 -21.5q37 0 71 37zM435 326l-35 -41l35 -41q34 -37 72 -37q30 0 51 21.5t21 56.5t-21 56.5t-51 21.5q-37 0 -72 -37z" />
    <glyph glyph-name="integral" unicode="&#x222b;" horiz-adv-x="348" 
d="M109 -34v483q0 76 38 115.5t104 39.5q45 0 74 -19v-90q-31 21 -63 21q-55 0 -55 -68v-483q0 -76 -38 -115.5t-104 -39.5q-45 0 -74 19v90q31 -21 63 -21q55 0 55 68z" />
    <glyph glyph-name="approxequal" unicode="&#x2248;" horiz-adv-x="469" 
d="M45 305v74q52 34 102 34q33 0 87 -16.5t86 -16.5q52 0 104 34v-74q-52 -34 -104 -34q-32 0 -86 16.5t-87 16.5q-50 0 -102 -34zM45 176v74q52 34 102 34q33 0 87 -16.5t86 -16.5q52 0 104 34v-74q-52 -34 -104 -34q-32 0 -86 16.5t-87 16.5q-50 0 -102 -34z" />
    <glyph glyph-name="notequal" unicode="&#x2260;" horiz-adv-x="469" 
d="M128 189h-83v70h131l46 69h-177v70h225l58 86h71l-58 -86h83v-70h-131l-46 -69h177v-70h-225l-58 -86h-71z" />
    <glyph glyph-name="lessequal" unicode="&#x2264;" horiz-adv-x="343" 
d="M25 326v8l278 154v-88l-137 -70l137 -69v-88zM25 69v76h278v-76h-278z" />
    <glyph glyph-name="greaterequal" unicode="&#x2265;" horiz-adv-x="343" 
d="M318 334v-8l-278 -153v88l137 69l-137 70v88zM318 145v-76h-278v76h278z" />
    <glyph glyph-name="dotmath" unicode="&#x22c5;" horiz-adv-x="259" 
d="M61 260q0 29 20 49t48 20q29 0 49.5 -20t20.5 -49t-20.5 -49t-49.5 -20q-28 0 -48 20t-20 49z" />
    <glyph glyph-name="lozenge" unicode="&#x25ca;" horiz-adv-x="486" 
d="M27 297l174 297h83l175 -297l-175 -297h-83zM359 297l-116 208l-117 -208l117 -207z" />
    <glyph glyph-name="space_uni0326" horiz-adv-x="500" 
d="M241 -42h96q0 -92 -89 -143h-67q60 61 60 143z" />
    <glyph glyph-name="zero.op" horiz-adv-x="549" 
d="M36 229q0 105 68.5 171.5t169.5 66.5t170 -66.5t69 -171.5t-69 -172t-170 -67t-169.5 67t-68.5 172zM134 229q0 -67 40.5 -108.5t99.5 -41.5q60 0 100.5 41.5t40.5 108.5t-40.5 108t-100.5 41q-59 0 -99.5 -41t-40.5 -108z" />
    <glyph glyph-name="one.op" horiz-adv-x="319" 
d="M22 339v91l217 37v-467h-101v355z" />
    <glyph glyph-name="two.op" horiz-adv-x="427" 
d="M172 88h226v-88h-365v81q18 12 51.5 35t50 35t41.5 31t38 32t27 30t19.5 33t5.5 33q0 66 -76 66t-152 -72v99q64 64 167 64q73 0 119.5 -36.5t46.5 -106.5q0 -71 -53 -128t-146 -108z" />
    <glyph glyph-name="three.op" horiz-adv-x="411" 
d="M29 306v99q67 62 164 62q82 0 128 -42t46 -110q0 -55 -32.5 -95.5t-85.5 -54.5q60 -12 95 -50.5t35 -96.5q0 -76 -57.5 -120.5t-147.5 -44.5q-96 0 -154 43v95q70 -54 148 -54q49 0 79 23t30 63q0 47 -34 69.5t-113 30.5v76q134 18 134 106q0 34 -23.5 53.5t-59.5 19.5
q-76 0 -152 -72z" />
    <glyph glyph-name="four.op" horiz-adv-x="526" 
d="M405 459v-361h97v-81h-97v-152h-98v152h-286v83l280 359h104zM307 345l-187 -247h187v247z" />
    <glyph glyph-name="five.op" horiz-adv-x="402" 
d="M158 367l-9 -128q227 -30 227 -200q0 -84 -57 -135t-159 -51q-87 0 -143 41v92q69 -49 139 -49q59 0 91 25.5t32 73.5q0 63 -59 91t-165 39l21 291h286v-90h-204z" />
    <glyph glyph-name="six.op" horiz-adv-x="494" 
d="M232 594h106l-106 -169l-46 -68q30 30 80 30q79 0 135.5 -52t56.5 -143q0 -86 -58.5 -144t-155.5 -58q-95 0 -150.5 58t-55.5 144q0 88 71 204zM134 190q0 -53 32 -84.5t80 -31.5q50 0 82 31.5t32 84.5t-32 84.5t-81 31.5t-81 -31.5t-32 -84.5z" />
    <glyph glyph-name="seven.op" horiz-adv-x="432" 
d="M287 367h-276v90h383v-91l-242 -503h-105z" />
    <glyph glyph-name="eight.op" horiz-adv-x="478" 
d="M239 -10q-88 0 -146 46.5t-58 125.5q0 56 34.5 95t81.5 51q-39 15 -63.5 50.5t-24.5 83.5q0 75 50.5 118.5t125.5 43.5t125 -43.5t50 -118.5q0 -48 -24.5 -83.5t-62.5 -50.5q46 -12 80.5 -51.5t34.5 -94.5q0 -79 -57.5 -125.5t-145.5 -46.5zM239 355q36 0 59.5 22.5
t23.5 60.5q0 39 -23.5 61.5t-59.5 22.5t-60 -22.5t-24 -61.5q0 -38 24 -60.5t60 -22.5zM239 72q45 0 74 25t29 69q0 45 -29.5 71.5t-73.5 26.5q-45 0 -74 -26.5t-29 -71.5q0 -44 29 -69t74 -25z" />
    <glyph glyph-name="nine.op" horiz-adv-x="494" 
d="M263 -137h-106l106 169l46 68q-30 -30 -80 -30q-79 0 -135.5 52t-56.5 143q0 86 58.5 144t155.5 58q95 0 150.5 -58t55.5 -144q0 -88 -71 -204zM361 267q0 53 -32 84.5t-80 31.5q-50 0 -82 -31.5t-32 -84.5t32 -84.5t81 -31.5t81 31.5t32 84.5z" />
    <glyph glyph-name="commaturn" horiz-adv-x="500" 
d="M274 513h-95q0 50 25.5 94.5t65.5 66.5h67q-63 -64 -63 -161z" />
    <glyph glyph-name="registered.cap" horiz-adv-x="698" 
d="M45 297q0 131 86.5 219t217.5 88t217.5 -88t86.5 -219t-86.5 -219t-217.5 -88t-217.5 88t-86.5 219zM85 297q0 -118 74.5 -194t189.5 -76t189.5 76t74.5 194t-74.5 194t-189.5 76t-189.5 -76t-74.5 -194zM308 238v-114h-80v346q53 11 107 11q71 0 110.5 -31.5t39.5 -91.5
q0 -36 -18 -63t-47 -39l98 -132h-95l-82 114h-33zM308 408v-108h28q68 0 68 55t-68 55q-14 0 -28 -2z" />
    <glyph glyph-name="plus.op" horiz-adv-x="459" 
d="M191 194h-151v77h151v151h77v-151h151v-77h-151v-151h-77v151z" />
    <glyph glyph-name="minus.op" horiz-adv-x="459" 
d="M40 194v77h379v-77h-379z" />
    <glyph glyph-name="multiply.op" horiz-adv-x="395" 
d="M145 230l-110 110l53 53l109 -110l110 110l53 -53l-110 -110l110 -109l-53 -53l-110 110l-109 -110l-53 53z" />
    <glyph glyph-name="divide.op" horiz-adv-x="459" 
d="M40 194v77h379v-77h-379zM171 80q0 24 17 41t41 17t41.5 -17t17.5 -41t-17.5 -41.5t-41.5 -17.5t-41 17.5t-17 41.5zM171 386q0 24 17 41t41 17t41.5 -17t17.5 -41t-17.5 -41.5t-41.5 -17.5t-41 17.5t-17 41.5z" />
    <glyph glyph-name="equal.op" horiz-adv-x="469" 
d="M45 128v72h379v-72h-379zM45 267v72h379v-72h-379z" />
    <glyph glyph-name="less.op" horiz-adv-x="343" 
d="M25 227v8l278 173v-89l-150 -88l150 -88v-89z" />
    <glyph glyph-name="greater.op" horiz-adv-x="343" 
d="M318 235v-8l-278 -173v89l150 88l-150 88v89z" />
    <glyph glyph-name="zero_slash.lt" 
d="M260 -10q-103 0 -165.5 85.5t-62.5 221.5t62.5 221.5t165.5 85.5t165.5 -85.5t62.5 -221.5t-62.5 -221.5t-165.5 -85.5zM173 131l136 372q-23 14 -49 14q-58 0 -92.5 -59t-34.5 -161q0 -109 40 -166zM347 463l-136 -373q20 -13 49 -13q58 0 92.5 59t34.5 161
q0 105 -40 166z" />
    <glyph glyph-name="zero.lt" 
d="M32 297q0 136 62.5 221.5t165.5 85.5t165.5 -85.5t62.5 -221.5t-62.5 -221.5t-165.5 -85.5t-165.5 85.5t-62.5 221.5zM134 297q0 -102 34.5 -161t91.5 -59t91.5 59t34.5 161t-34.5 161t-91.5 59t-91.5 -59t-34.5 -161z" />
    <glyph glyph-name="one.lt" 
d="M84 468v91l262 44v-603h-101v491z" />
    <glyph glyph-name="two.lt" 
d="M185 90h261v-90h-393v75q56 48 84.5 73.5t71 67.5t63 70.5t37 64t16.5 66.5q0 47 -26 70t-71 23q-81 0 -158 -73v101q71 66 179 66q80 0 131 -45t51 -129q0 -157 -246 -340z" />
    <glyph glyph-name="three.lt" 
d="M88 443v99q67 62 164 62q82 0 128 -42t46 -110q0 -55 -33 -95.5t-85 -54.5q59 -12 94.5 -50.5t35.5 -96.5q0 -76 -57.5 -120.5t-148.5 -44.5q-95 0 -153 43v95q70 -54 147 -54q50 0 79.5 22.5t29.5 63.5q0 47 -33.5 69.5t-112.5 30.5v76q133 18 133 106q0 34 -23 53.5
t-59 19.5q-76 0 -152 -72z" />
    <glyph glyph-name="four.lt" 
d="M402 594v-361h88v-81h-88v-152h-98v152h-279v83l273 359h104zM304 480l-183 -247h183v247z" />
    <glyph glyph-name="five.lt" 
d="M214 504l-9 -128q228 -30 228 -200q0 -84 -57.5 -135t-159.5 -51q-87 0 -143 41v92q71 -49 139 -49q59 0 91 25.5t32 73.5q0 63 -59 91t-164 39l20 291h286v-90h-204z" />
    <glyph glyph-name="six.lt" 
d="M242 594h107l-107 -169l-46 -68q30 30 81 30q79 0 135 -52t56 -143q0 -86 -58.5 -144t-155.5 -58q-95 0 -150.5 58t-55.5 144q0 88 71 204zM144 190q0 -53 32 -84.5t80 -31.5q50 0 82 31.5t32 84.5t-32 84.5t-81 31.5t-81 -31.5t-32 -84.5z" />
    <glyph glyph-name="seven.lt" 
d="M359 504h-303v90h407v-91l-256 -503h-104z" />
    <glyph glyph-name="eight.lt" 
d="M260 -10q-88 0 -146 46.5t-58 125.5q0 55 34.5 94.5t81.5 51.5q-39 15 -63.5 50.5t-24.5 83.5q0 75 50.5 118.5t125.5 43.5t125 -43.5t50 -118.5q0 -48 -24.5 -83.5t-62.5 -50.5q47 -12 81.5 -51.5t34.5 -94.5q0 -79 -58 -125.5t-146 -46.5zM260 355q36 0 60 22.5
t24 60.5q0 39 -24 61.5t-60 22.5t-60 -22.5t-24 -61.5q0 -38 24 -60.5t60 -22.5zM260 72q45 0 74 25t29 69q0 45 -29 71.5t-74 26.5t-74 -26.5t-29 -71.5q0 -44 29 -69t74 -25z" />
    <glyph glyph-name="nine.lt" 
d="M276 0h-107l107 169l46 68q-30 -30 -81 -30q-79 0 -135 52t-56 143q0 86 58.5 144t155.5 58q95 0 150.5 -58t55.5 -144q0 -88 -71 -204zM374 404q0 53 -32 84.5t-80 31.5q-50 0 -82 -31.5t-32 -84.5t32 -84.5t81 -31.5t81 31.5t32 84.5z" />
    <glyph glyph-name="zero_slash.ot" 
d="M260 -10q-98 0 -162.5 67.5t-64.5 171.5q0 106 64.5 172t162.5 66t162.5 -67t64.5 -171t-64.5 -171.5t-162.5 -67.5zM162 126l158 237q-27 15 -60 15q-57 0 -93 -41.5t-36 -108.5q0 -62 31 -102zM358 330l-159 -236q27 -15 61 -15q57 0 93 41t36 108q0 61 -31 102z" />
    <glyph glyph-name="zero.ot" 
d="M33 229q0 106 64.5 172t162.5 66t162.5 -67t64.5 -171t-64.5 -171.5t-162.5 -67.5t-162.5 67.5t-64.5 171.5zM131 228q0 -67 36 -108t93 -41t93 41t36 108t-36 108.5t-93 41.5t-93 -41.5t-36 -108.5z" />
    <glyph glyph-name="one.ot" 
d="M101 333v93l252 41v-467h-101v355z" />
    <glyph glyph-name="two.ot" 
d="M214 88h226v-88h-365v81q18 12 51.5 35t50 35t41.5 31t38 32t27 30t19.5 33t5.5 33q0 66 -77 66t-151 -72v99q64 64 167 64q72 0 119 -36.5t47 -106.5q0 -71 -53 -128t-146 -108z" />
    <glyph glyph-name="three.ot" 
d="M80 306v99q65 62 164 62q82 0 128 -41.5t46 -110.5q0 -55 -33 -95.5t-85 -54.5q59 -12 94.5 -50t35.5 -96q0 -77 -57.5 -121.5t-148.5 -44.5q-95 0 -153 43v95q70 -54 147 -54q49 0 79 23t30 64q0 46 -33.5 68.5t-112.5 30.5v76q133 18 133 106q0 35 -23 54.5t-59 19.5
q-77 0 -152 -73z" />
    <glyph glyph-name="four.ot" 
d="M402 459v-362h88v-81h-88v-151h-97v151h-280v83l273 360h104zM305 345l-183 -248h183v248z" />
    <glyph glyph-name="five.ot" 
d="M215 367l-9 -128q227 -29 227 -200q0 -84 -57 -135t-159 -51q-85 0 -143 41v92q72 -49 139 -49q59 0 91 26t32 74q0 63 -59 91t-165 38l21 291h286v-90h-204z" />
    <glyph glyph-name="six.ot" 
d="M244 594h106l-107 -169l-46 -68q30 30 81 30q79 0 135.5 -52t56.5 -143q0 -86 -58.5 -144t-155.5 -58q-95 0 -151 58t-56 144q0 87 72 204zM146 190q0 -53 32 -84.5t80 -31.5q49 0 81.5 31.5t32.5 84.5t-32 84.5t-82 31.5q-48 0 -80 -31.5t-32 -84.5z" />
    <glyph glyph-name="seven.ot" 
d="M352 367h-300v90h404v-90l-256 -504h-104z" />
    <glyph glyph-name="eight.ot" 
d="M260 -10q-88 0 -146 46.5t-58 125.5q0 55 34.5 94.5t81.5 51.5q-39 15 -63.5 50.5t-24.5 83.5q0 75 50.5 118.5t125.5 43.5t125 -43.5t50 -118.5q0 -48 -24.5 -83.5t-62.5 -50.5q47 -12 81.5 -51.5t34.5 -94.5q0 -79 -58 -125.5t-146 -46.5zM260 355q36 0 60 22.5
t24 60.5q0 39 -24 61.5t-60 22.5t-60 -22.5t-24 -61.5q0 -38 24 -60.5t60 -22.5zM260 72q45 0 74 25t29 69q0 45 -29 71.5t-74 26.5t-74 -26.5t-29 -71.5q0 -44 29 -69t74 -25z" />
    <glyph glyph-name="nine.ot" 
d="M275 -137h-106l107 170l46 68q-30 -31 -81 -31q-79 0 -135.5 52.5t-56.5 142.5q0 86 58.5 144t155.5 58q95 0 151 -57.5t56 -144.5q0 -88 -72 -203zM373 267q0 53 -31.5 85t-80.5 32t-81.5 -32t-32.5 -85q0 -52 32 -84t82 -32q48 0 80 32t32 84z" />
    <glyph glyph-name="period.tab" horiz-adv-x="260" 
d="M61 60q0 29 20 49t48 20q29 0 49.5 -20t20.5 -49t-20.5 -49t-49.5 -20q-28 0 -48 20t-20 49z" />
    <glyph glyph-name="comma.tab" horiz-adv-x="260" 
d="M76 101h104q0 -71 -29 -130t-72 -89h-73q70 89 70 219z" />
    <glyph glyph-name="colon.tab" horiz-adv-x="260" 
d="M61 60q0 29 20 49t48 20q29 0 49.5 -20t20.5 -49t-20.5 -49t-49.5 -20q-28 0 -48 20t-20 49zM61 359q0 29 20 49t48 20q29 0 49 -20t20 -49q0 -28 -20.5 -48t-48.5 -20t-48 20t-20 48z" />
    <glyph glyph-name="semicolon.tab" horiz-adv-x="260" 
d="M76 101h104q0 -71 -29 -130t-72 -89h-73q70 89 70 219zM61 359q0 29 20 49t48 20q29 0 49 -20t20 -49q0 -28 -20.5 -48t-48.5 -20t-48 20t-20 48z" />
    <glyph glyph-name="zero_slash.op" horiz-adv-x="549" 
d="M274 -10q-101 0 -169.5 67t-68.5 172t68.5 171.5t169.5 66.5t170 -66.5t69 -171.5t-69 -172t-170 -67zM173 122l163 243q-32 14 -62 14q-59 0 -99.5 -41.5t-40.5 -108.5q0 -66 39 -107zM376 335l-164 -243q30 -14 62 -14q60 0 100.5 41.5t40.5 109.5q0 64 -39 106z" />
    <glyph glyph-name="space.tab" horiz-adv-x="260" 
 />
    <glyph glyph-name="plusminus.op" horiz-adv-x="459" 
d="M191 262h-146v76h146v111h77v-111h146v-76h-146v-112h-77v112zM45 32v77h369v-77h-369z" />
    <glyph glyph-name="lessequal.op" horiz-adv-x="343" 
d="M25 277v8l278 153v-88l-137 -69l137 -70v-88zM25 19v77h278v-77h-278z" />
    <glyph glyph-name="greaterequal.op" horiz-adv-x="343" 
d="M318 285v-8l-278 -154v88l137 70l-137 69v88zM318 96v-77h-278v77h278z" />
    <glyph glyph-name="notequal.op" horiz-adv-x="469" 
d="M128 134h-83v70h131l46 69h-177v69h224l59 87h71l-59 -87h84v-69h-131l-46 -69h177v-70h-225l-58 -86h-71z" />
    <glyph glyph-name="approxequal.op" horiz-adv-x="469" 
d="M45 244v74q52 34 102 34q33 0 87 -16.5t86 -16.5q52 0 104 34v-74q-52 -34 -104 -34q-32 0 -86 16.5t-87 16.5q-50 0 -102 -34zM45 115v74q52 34 102 34q33 0 87 -16.5t86 -16.5q52 0 104 34v-74q-52 -34 -104 -34q-32 0 -86 16.5t-87 16.5q-50 0 -102 -34z" />
    <glyph glyph-name="plus.lt" 
d="M221 254h-151v77h151v151h77v-151h151v-77h-151v-151h-77v151z" />
    <glyph glyph-name="minus.lt" 
d="M70 254v77h379v-77h-379z" />
    <glyph glyph-name="multiply.lt" 
d="M207 290l-110 110l53 53l109 -110l110 110l53 -53l-110 -110l110 -109l-53 -53l-110 110l-109 -110l-53 53z" />
    <glyph glyph-name="divide.lt" 
d="M70 254v77h379v-77h-379zM201 140q0 24 17 41t41 17t41.5 -17t17.5 -41t-17.5 -41.5t-41.5 -17.5t-41 17.5t-17 41.5zM201 446q0 24 17 41t41 17t41.5 -17t17.5 -41t-17.5 -41.5t-41.5 -17.5t-41 17.5t-17 41.5z" />
    <glyph glyph-name="equal.lt" 
d="M70 188v72h379v-72h-379zM70 327v72h379v-72h-379z" />
    <glyph glyph-name="less.lt" 
d="M120 287v8l279 173v-89l-151 -88l151 -88v-89z" />
    <glyph glyph-name="greater.lt" 
d="M399 295v-8l-279 -173v89l151 88l-151 88v89z" />
    <glyph glyph-name="plusminus.lt" 
d="M221 317h-146v76h146v112h77v-112h146v-76h-146v-111h-77v111zM75 88v76h369v-76h-369z" />
    <glyph glyph-name="lessequal.lt" 
d="M120 326v8l279 154v-88l-137 -70l137 -69v-88zM120 69v76h279v-76h-279z" />
    <glyph glyph-name="greaterequal.lt" 
d="M399 334v-8l-279 -153v88l137 69l-137 70v88zM399 145v-76h-279v76h279z" />
    <glyph glyph-name="notequal.lt" 
d="M153 189h-83v70h131l46 69h-177v70h225l58 86h71l-58 -86h83v-70h-131l-46 -69h177v-70h-225l-58 -86h-71z" />
    <glyph glyph-name="approxequal.lt" 
d="M70 305v74q52 34 102 34q32 0 86 -16.5t87 -16.5q52 0 104 34v-74q-52 -34 -104 -34q-33 0 -87 16.5t-86 16.5q-50 0 -102 -34zM70 176v74q52 34 102 34q32 0 86 -16.5t87 -16.5q52 0 104 34v-74q-52 -34 -104 -34q-33 0 -87 16.5t-86 16.5q-50 0 -102 -34z" />
    <glyph glyph-name="plus.ot" 
d="M221 194h-151v77h151v151h77v-151h151v-77h-151v-151h-77v151z" />
    <glyph glyph-name="minus.ot" 
d="M70 194v77h379v-77h-379z" />
    <glyph glyph-name="multiply.ot" 
d="M207 230l-110 110l53 53l109 -110l110 110l53 -53l-110 -110l110 -109l-53 -53l-110 110l-109 -110l-53 53z" />
    <glyph glyph-name="divide.ot" 
d="M70 194v77h379v-77h-379zM201 80q0 24 17 41t41 17t41.5 -17t17.5 -41t-17.5 -41.5t-41.5 -17.5t-41 17.5t-17 41.5zM201 386q0 24 17 41t41 17t41.5 -17t17.5 -41t-17.5 -41.5t-41.5 -17.5t-41 17.5t-17 41.5z" />
    <glyph glyph-name="equal.ot" 
d="M70 128v72h379v-72h-379zM70 267v72h379v-72h-379z" />
    <glyph glyph-name="less.ot" 
d="M120 227v8l279 173v-89l-151 -88l151 -88v-89z" />
    <glyph glyph-name="greater.ot" 
d="M399 235v-8l-279 -173v89l151 88l-151 88v89z" />
    <glyph glyph-name="plusminus.ot" 
d="M221 262h-146v76h146v111h77v-111h146v-76h-146v-112h-77v112zM75 32v77h369v-77h-369z" />
    <glyph glyph-name="lessequal.ot" 
d="M120 277v8l279 153v-88l-137 -69l137 -70v-88zM120 19v77h279v-77h-279z" />
    <glyph glyph-name="greaterequal.ot" 
d="M399 285v-8l-279 -154v88l137 70l-137 69v88zM399 96v-77h-279v77h279z" />
    <glyph glyph-name="notequal.ot" 
d="M153 134h-83v70h131l46 69h-177v69h224l59 87h71l-59 -87h84v-69h-131l-46 -69h177v-70h-225l-58 -86h-71z" />
    <glyph glyph-name="approxequal.ot" 
d="M70 244v74q52 34 102 34q32 0 86 -16.5t87 -16.5q52 0 104 34v-74q-52 -34 -104 -34q-33 0 -87 16.5t-86 16.5q-50 0 -102 -34zM70 115v74q52 34 102 34q32 0 86 -16.5t87 -16.5q52 0 104 34v-74q-52 -34 -104 -34q-33 0 -87 16.5t-86 16.5q-50 0 -102 -34z" />
    <glyph glyph-name="doublebar" horiz-adv-x="434" 
d="M95 -138v818h91v-818h-91zM248 -138v818h90v-818h-90z" />
    <glyph glyph-name="zero.slash" horiz-adv-x="534" 
d="M267 -10q-103 0 -165.5 85.5t-62.5 221.5t62.5 221.5t165.5 85.5t165.5 -85.5t62.5 -221.5t-62.5 -221.5t-165.5 -85.5zM180 131l136 372q-23 14 -49 14q-58 0 -92.5 -59t-34.5 -161q0 -109 40 -166zM354 463l-136 -373q22 -13 49 -13q58 0 93 59t35 161q0 106 -41 166z
" />
    <glyph glyph-name="invertedbreve" horiz-adv-x="500" 
d="M202 512h-75q0 63 33.5 100t89.5 37t89.5 -37t33.5 -100h-75q0 70 -48 70t-48 -70z" />
    <glyph glyph-name="doublegrave" horiz-adv-x="500" 
d="M400 513h-84l-85 152h84zM268 513h-84l-85 152h84z" />
    <glyph glyph-name="caronSlovak" horiz-adv-x="500" 
d="M231 680h80l-43 -157h-80z" />
    <glyph glyph-name="dotbelow" horiz-adv-x="500" 
d="M250 -182q-25 0 -43.5 18t-18.5 42q0 27 18.5 45t43.5 18t43 -18t18 -45q0 -24 -18 -42t-43 -18z" />
    <glyph glyph-name="altcedilla" horiz-adv-x="500" 
d="M235 0h82q-4 -45 -23.5 -86t-46.5 -60h-89q69 65 77 146z" />
    <glyph glyph-name="grave.cap" horiz-adv-x="500" 
d="M335 644h-91l-79 141h91z" />
    <glyph glyph-name="acute.cap" horiz-adv-x="500" 
d="M256 644h-91l79 141h91z" />
    <glyph glyph-name="circumflex.cap" horiz-adv-x="500" 
d="M281 783l116 -143h-85l-62 76l-62 -76h-85l116 143h62z" />
    <glyph glyph-name="tilde.cap" horiz-adv-x="500" 
d="M329 763h65q0 -58 -22 -91.5t-61 -33.5q-27 0 -62.5 27t-48.5 27q-29 0 -29 -51h-66q0 58 22 91.5t61 33.5q27 0 63 -27t49 -27q29 0 29 51z" />
    <glyph glyph-name="macron.cap" horiz-adv-x="500" 
d="M137 651v74h225v-74h-225z" />
    <glyph glyph-name="breve.cap" horiz-adv-x="500" 
d="M298 776h75q0 -63 -33 -98t-90 -35t-90 35t-33 98h75q0 -66 48 -66t48 66z" />
    <glyph glyph-name="invertedbreve.cap" horiz-adv-x="500" 
d="M202 643h-75q0 63 33 98t90 35t90 -35t33 -98h-75q0 66 -48 66t-48 -66z" />
    <glyph glyph-name="dotaccent.cap" horiz-adv-x="500" 
d="M250 638q-25 0 -43.5 18t-18.5 43q0 26 18 44.5t44 18.5t44 -18.5t18 -44.5q0 -25 -18.5 -43t-43.5 -18z" />
    <glyph glyph-name="dieresis.cap" horiz-adv-x="500" 
d="M164 635q-25 0 -42.5 17.5t-17.5 42.5t17.5 42.5t42.5 17.5t42.5 -17.5t17.5 -42.5t-17.5 -42.5t-42.5 -17.5zM336 635q-25 0 -42.5 17.5t-17.5 42.5t17.5 42.5t42.5 17.5t42.5 -17.5t17.5 -42.5t-17.5 -42.5t-42.5 -17.5z" />
    <glyph glyph-name="ring.cap" horiz-adv-x="500" 
d="M156 719q0 39 26 64.5t68 25.5q41 0 67 -25.5t26 -64.5t-26 -65t-67 -26t-67.5 26t-26.5 65zM292 719q0 17 -11.5 29t-30.5 12q-20 0 -31 -12t-11 -29q0 -18 11 -30t31 -12t31 12t11 30z" />
    <glyph glyph-name="hungarumlaut.cap" horiz-adv-x="500" 
d="M183 644h-84l79 141h84zM315 644h-84l79 141h84z" />
    <glyph glyph-name="doublegrave.cap" horiz-adv-x="500" 
d="M394 644h-84l-79 141h84zM262 644h-84l-79 141h84z" />
    <glyph glyph-name="caron.cap" horiz-adv-x="500" 
d="M397 785l-116 -142h-62l-116 142h85l62 -76l62 76h85z" />
    <glyph glyph-name="exclamdown.cap" horiz-adv-x="263" 
d="M180 409v-409h-97v409h97zM63 535q0 29 20 49t48 20q29 0 49.5 -20.5t20.5 -48.5t-20.5 -48.5t-49.5 -20.5q-28 0 -48 20t-20 49z" />
    <glyph glyph-name="questiondown.cap" horiz-adv-x="381" 
d="M361 148v-96q-60 -62 -161 -62q-83 0 -132 45t-49 124q0 131 162 180v69h93v-116q-84 -26 -120.5 -51.5t-36.5 -76.5q0 -39 27 -62t67 -23q74 0 150 69zM295 535q0 -29 -19.5 -49.5t-47.5 -20.5q-30 0 -50.5 20.5t-20.5 49.5q0 28 20.5 48t50.5 20q28 0 47.5 -20
t19.5 -48z" />
    <glyph glyph-name="guilsinglleft.cap" horiz-adv-x="313" 
d="M267 453l-122 -158l122 -158h-98l-123 158l123 158h98z" />
    <glyph glyph-name="guilsinglright.cap" horiz-adv-x="313" 
d="M168 295l-122 158h98l123 -158l-123 -158h-98z" />
    <glyph glyph-name="guillemotleft.cap" horiz-adv-x="475" 
d="M267 453l-122 -158l122 -158h-98l-123 158l123 158h98zM429 453l-122 -158l122 -158h-98l-123 158l123 158h98z" />
    <glyph glyph-name="guillemotright.cap" horiz-adv-x="475" 
d="M168 295l-122 158h98l123 -158l-123 -158h-98zM330 295l-122 158h98l123 -158l-123 -158h-98z" />
    <glyph glyph-name="slash.cap" horiz-adv-x="429" 
d="M16 -100l298 780h99l-298 -780h-99z" />
    <glyph glyph-name="backslash.cap" horiz-adv-x="429" 
d="M115 680l298 -780h-99l-298 780h99z" />
    <glyph glyph-name="bar.cap" horiz-adv-x="281" 
d="M95 -100v780h91v-780h-91z" />
    <glyph glyph-name="doublebar.cap" horiz-adv-x="434" 
d="M95 -100v780h91v-780h-91zM248 -100v780h90v-780h-90z" />
    <glyph glyph-name="brokenbar.cap" horiz-adv-x="281" 
d="M95 359v321h91v-321h-91zM95 -100v321h91v-321h-91z" />
    <glyph glyph-name="bullet.cap" horiz-adv-x="331" 
d="M61 293q0 44 30.5 74.5t73.5 30.5q44 0 75 -30.5t31 -74.5t-31 -74.5t-75 -30.5t-74 30.5t-30 74.5z" />
    <glyph glyph-name="periodcentered.cap" horiz-adv-x="259" 
d="M61 293q0 29 20 49t48 20q29 0 49.5 -20t20.5 -49t-20.5 -49t-49.5 -20q-28 0 -48 20t-20 49z" />
    <glyph glyph-name="hyphen.cap" horiz-adv-x="355" 
d="M53 253v87h249v-87h-249z" />
    <glyph glyph-name="endash.cap" horiz-adv-x="572" 
d="M53 259v76h466v-76h-466z" />
    <glyph glyph-name="emdash.cap" horiz-adv-x="952" 
d="M53 259v76h846v-76h-846z" />
    <glyph glyph-name="parenleft.cap" horiz-adv-x="364" 
d="M354 -100h-111q-80 70 -126 172.5t-46 217.5t46.5 217.5t125.5 172.5h111q-188 -176 -188 -390t188 -390z" />
    <glyph glyph-name="parenright.cap" horiz-adv-x="364" 
d="M10 680h111q79 -70 125.5 -172.5t46.5 -217.5t-46 -217.5t-126 -172.5h-111q188 176 188 390t-188 390z" />
    <glyph glyph-name="bracketleft.cap" horiz-adv-x="339" 
d="M183 603v-626h106v-77h-196v780h196v-77h-106z" />
    <glyph glyph-name="bracketright.cap" horiz-adv-x="339" 
d="M156 -23v626h-106v77h196v-780h-196v77h106z" />
    <glyph glyph-name="braceleft.cap" horiz-adv-x="366" 
d="M238 535v-113q0 -58 -32 -93.5t-75 -38.5q43 -3 75 -38.5t32 -93.5v-113q0 -68 56 -68h30v-77h-39q-138 0 -138 145v117q0 89 -78 89h-29v78h29q78 0 78 89v117q0 145 138 145h39v-77h-30q-56 0 -56 -68z" />
    <glyph glyph-name="braceright.cap" horiz-adv-x="366" 
d="M128 45v113q0 58 32 93.5t75 38.5q-43 3 -75 38.5t-32 93.5v113q0 68 -56 68h-30v77h39q138 0 138 -145v-117q0 -89 78 -89h29v-78h-29q-78 0 -78 -89v-117q0 -145 -138 -145h-39v77h30q56 0 56 68z" />
    <glyph glyph-name="at.cap" horiz-adv-x="769" 
d="M550 467v-291q109 45 109 186q0 108 -67.5 170t-183.5 62q-138 0 -219 -84t-81 -218q0 -81 29.5 -141.5t79.5 -94t106.5 -49.5t119.5 -16q108 0 200 35v-60q-82 -34 -200 -34q-80 0 -149.5 21t-127 62.5t-90.5 112.5t-33 164q0 156 99 258t266 102q148 0 233 -80t85 -210
q0 -129 -82 -199.5t-214 -70.5q-102 0 -162.5 52t-60.5 146q0 92 59 146.5t155 54.5q71 0 129 -24zM471 167v240q-17 6 -50 6q-59 0 -94 -34t-35 -89q0 -58 36 -92t97 -34q30 0 46 3z" />
    <glyph glyph-name="zero.inf" horiz-adv-x="325" 
d="M303 -7q0 -79 -39 -129t-101 -50q-63 0 -102 50t-39 129t39 129t102 50q62 0 101 -50t39 -129zM223 -7q0 52 -16.5 80.5t-43.5 28.5t-43.5 -28t-16.5 -81q0 -52 16.5 -80.5t43.5 -28.5q26 0 43 28.5t17 80.5z" />
    <glyph glyph-name="one.inf" horiz-adv-x="200" 
d="M13 76v72l145 24v-352h-81v264z" />
    <glyph glyph-name="two.inf" horiz-adv-x="267" 
d="M114 -110h135v-70h-239v60q72 58 109 98t37 75q0 46 -48 46q-44 0 -90 -40v75q41 38 109 38q51 0 82 -27t31 -77q0 -85 -126 -178z" />
    <glyph glyph-name="three.inf" horiz-adv-x="254" 
d="M21 63v76q44 33 101 33q49 0 78 -24.5t29 -67.5q0 -31 -19 -54t-48 -31q73 -17 73 -83q0 -48 -36.5 -73t-88.5 -25q-54 0 -95 25v77q40 -34 88 -34q50 0 50 38q0 23 -17 32t-58 11v58q69 5 69 46q0 34 -40 34q-43 0 -86 -38z" />
    <glyph glyph-name="four.inf" horiz-adv-x="324" 
d="M255 166v-206h53v-61h-53v-79h-77v79h-163v61l161 206h79zM178 81l-94 -121h94v121z" />
    <glyph glyph-name="five.inf" horiz-adv-x="252" 
d="M108 96l-4 -55q129 -14 129 -113q0 -53 -36 -83.5t-96 -30.5q-51 0 -87 25v72q43 -31 84 -31q59 0 59 45q0 53 -123 61l13 180h175v-70h-114z" />
    <glyph glyph-name="six.inf" horiz-adv-x="296" 
d="M129 166h83l-56 -92l-23 -34q13 11 33 11q48 0 81 -31t33 -84q0 -52 -36.5 -87t-95.5 -35q-58 0 -93 35t-35 87q0 54 40 117zM95 -64q0 -26 15 -41.5t38 -15.5q25 0 40.5 15t15.5 42q0 26 -15.5 41t-40.5 15q-23 0 -38 -15t-15 -41z" />
    <glyph glyph-name="seven.inf" horiz-adv-x="257" 
d="M158 96h-149v70h232v-70l-131 -276h-82z" />
    <glyph glyph-name="eight.inf" horiz-adv-x="285" 
d="M143 -186q-54 0 -89.5 27t-35.5 74q0 30 18 51.5t44 29.5q-48 22 -48 77q0 46 31.5 72.5t79.5 26.5q47 0 79 -26.5t32 -72.5q0 -55 -48 -77q26 -8 43.5 -29.5t17.5 -51.5q0 -47 -35 -74t-89 -27zM143 30q17 0 28.5 11t11.5 30q0 18 -11.5 28.5t-28.5 10.5t-29 -11
t-12 -28q0 -19 12 -30t29 -11zM143 -124q20 0 33.5 12t13.5 31q0 20 -13.5 32.5t-33.5 12.5q-21 0 -34 -12t-13 -33q0 -19 13 -31t34 -12z" />
    <glyph glyph-name="nine.inf" horiz-adv-x="296" 
d="M168 -180h-84l56 93l23 34q-13 -11 -33 -11q-48 0 -81 31t-33 84q0 52 36 86.5t96 34.5q58 0 93 -34.5t35 -86.5q0 -53 -40 -118zM202 51q0 26 -15.5 41.5t-39.5 15.5t-39.5 -15.5t-15.5 -41.5t15.5 -41.5t39.5 -15.5t39.5 15.5t15.5 41.5z" />
    </font>
</defs>
</svg>
