<svg width="24" height="24" viewBox="0 0 24 24" fill="none" xmlns="http://www.w3.org/2000/svg">
<path fill-rule="evenodd" clip-rule="evenodd" d="M5 4C5 3.44772 5.44772 3 6 3H18C18.5523 3 19 3.44772 19 4C19 4.55228 18.5523 5 18 5H6C5.44772 5 5 4.55228 5 4ZM4 5C4.55228 5 5 5.44772 5 6V18C5 18.5523 4.55228 19 4 19C3.44772 19 3 18.5523 3 18V6C3 5.44772 3.44772 5 4 5ZM20 5C20.5523 5 21 5.44772 21 6V11.5C21 12.0523 20.5523 12.5 20 12.5C19.4477 12.5 19 12.0523 19 11.5V6C19 5.44772 19.4477 5 20 5ZM5 20C5 19.4477 5.44772 19 6 19H9.5C10.0523 19 10.5 19.4477 10.5 20C10.5 20.5523 10.0523 21 9.5 21H6C5.44772 21 5 20.5523 5 20Z" fill="#141B34"/>
<path d="M17.25 4C17.25 2.48122 18.4812 1.25 20 1.25C21.5188 1.25 22.75 2.48122 22.75 4C22.75 5.51878 21.5188 6.75 20 6.75C18.4812 6.75 17.25 5.51878 17.25 4Z" fill="#141B34"/>
<path d="M1.25 4C1.25 2.48122 2.48122 1.25 4 1.25C5.51878 1.25 6.75 2.48122 6.75 4C6.75 5.51878 5.51878 6.75 4 6.75C2.48122 6.75 1.25 5.51878 1.25 4Z" fill="#141B34"/>
<path d="M1.25 20C1.25 18.4812 2.48122 17.25 4 17.25C5.51878 17.25 6.75 18.4812 6.75 20C6.75 21.5188 5.51878 22.75 4 22.75C2.48122 22.75 1.25 21.5188 1.25 20Z" fill="#141B34"/>
<path d="M19.0429 14.0429C19.4334 13.6524 20.0666 13.6524 20.4571 14.0429L22.4571 16.0429C22.8476 16.4334 22.8476 17.0666 22.4571 17.4571C22.0666 17.8476 21.4334 17.8476 21.0429 17.4571L19.75 16.1642L19.1642 16.75L19.9571 17.5429C20.3476 17.9334 20.3476 18.5666 19.9571 18.9571C19.5666 19.3476 18.9334 19.3476 18.5429 18.9571L17.75 18.1642L16.5776 19.3366C16.6888 19.6196 16.75 19.9279 16.75 20.25C16.75 21.6307 15.6307 22.75 14.25 22.75C12.8693 22.75 11.75 21.6307 11.75 20.25C11.75 18.8693 12.8693 17.75 14.25 17.75C14.5721 17.75 14.8804 17.8112 15.1634 17.9224L19.0429 14.0429Z" fill="#141B34"/>
</svg>
