<svg width="24" height="24" viewBox="0 0 24 24" fill="none" xmlns="http://www.w3.org/2000/svg">
<path fill-rule="evenodd" clip-rule="evenodd" d="M5.50234 1.25086C3.98265 1.24956 2.75 2.48116 2.75 4.00086V19.9992C2.75 21.5179 3.98122 22.7492 5.5 22.7492H18.5C20.0188 22.7492 21.25 21.5179 21.25 19.9992L21.25 4.01192C21.25 2.49405 20.0202 1.26321 18.5023 1.26192L5.50234 1.25086ZM7 10.9991C6.44772 10.9991 6 11.4469 6 11.9991C6 12.5514 6.44772 12.9991 7 12.9991H16C16.5523 12.9991 17 12.5514 17 11.9991C17 11.4469 16.5523 10.9991 16 10.9991H7ZM7 15.9991C6.44772 15.9991 6 16.4469 6 16.9991C6 17.5514 6.44772 17.9991 7 17.9991H12C12.5523 17.9991 13 17.5514 13 16.9991C13 16.4469 12.5523 15.9991 12 15.9991H7Z" fill="#141B34"/>
</svg>
