<svg width="24" height="24" viewBox="0 0 24 24" fill="none" xmlns="http://www.w3.org/2000/svg">
<path fill-rule="evenodd" clip-rule="evenodd" d="M5.50234 1.25086C3.98265 1.24956 2.75 2.48116 2.75 4.00086V19.9992C2.75 21.5179 3.98122 22.7492 5.5 22.7492H18.5C20.0188 22.7492 21.25 21.5179 21.25 19.9992L21.25 4.01192C21.25 2.49405 20.0202 1.26321 18.5023 1.26192L5.50234 1.25086ZM7 5.99915C6.44772 5.99915 6 6.44686 6 6.99915C6 7.55143 6.44772 7.99915 7 7.99915H16C16.5523 7.99915 17 7.55143 17 6.99915C17 6.44686 16.5523 5.99915 16 5.99915H7ZM7 10.9991C6.44772 10.9991 6 11.4469 6 11.9991C6 12.5514 6.44772 12.9991 7 12.9991H11.5556C12.1078 12.9991 12.5556 12.5514 12.5556 11.9991C12.5556 11.4469 12.1078 10.9991 11.5556 10.9991H7Z" fill="#141B34"/>
</svg>
