<svg width="24" height="24" viewBox="0 0 24 24" fill="none" xmlns="http://www.w3.org/2000/svg">
<path d="M10.9999 3.25C10.9999 2.69772 11.4476 2.25 11.9999 2.25C12.5522 2.25 12.9999 2.69772 12.9999 3.25V7.83594L14.2929 6.54297C14.6834 6.15244 15.3164 6.15244 15.707 6.54297C16.0975 6.93349 16.0975 7.56651 15.707 7.95703L12.707 10.957C12.3164 11.3476 11.6834 11.3476 11.2929 10.957L8.29289 7.95703C7.90237 7.56651 7.90237 6.93349 8.29289 6.54297C8.68342 6.15244 9.31643 6.15244 9.70696 6.54297L10.9999 7.83594V3.25Z" fill="#141B34"/>
<path d="M10.9999 3.25C10.9999 2.69772 11.4476 2.25 11.9999 2.25C12.5522 2.25 12.9999 2.69772 12.9999 3.25V7.83594L14.2929 6.54297C14.6834 6.15244 15.3164 6.15244 15.707 6.54297C16.0975 6.93349 16.0975 7.56651 15.707 7.95703L12.707 10.957C12.3164 11.3476 11.6834 11.3476 11.2929 10.957L8.29289 7.95703C7.90237 7.56651 7.90237 6.93349 8.29289 6.54297C8.68342 6.15244 9.31643 6.15244 9.70696 6.54297L10.9999 7.83594V3.25Z" fill="#141B34"/>
<path d="M19.2627 4.08887C18.8175 2.9784 17.7388 2.25004 16.54 2.25H15.9751C15.4366 2.25 15 2.68657 15 3.2251C15 3.76363 15.4366 4.2002 15.9751 4.2002H16.54C16.9396 4.20024 17.2989 4.44334 17.4473 4.81348L20.4297 12.25H17.8281C17.0989 12.2501 16.3994 12.54 15.8838 13.0557L15.0557 13.8838C14.8213 14.1181 14.5033 14.2499 14.1719 14.25H9.82812C9.49671 14.2499 9.17869 14.1181 8.94434 13.8838L8.11621 13.0557C7.60056 12.54 6.90111 12.2501 6.17188 12.25H3.57031L6.55273 4.81348C6.70113 4.44334 7.06039 4.20024 7.45996 4.2002H8.0249C8.56343 4.2002 9 3.76363 9 3.2251C9 2.68657 8.56343 2.25 8.0249 2.25H7.45996C6.26117 2.25004 5.18253 2.9784 4.7373 4.08887L1.45996 12.2637C1.32149 12.6091 1.25005 12.9786 1.25 13.3506V18.8252C1.25011 20.4405 2.56259 21.7499 4.18164 21.75H19.8184C21.4374 21.7499 22.7499 20.4405 22.75 18.8252V13.3506C22.75 12.9786 22.6785 12.6091 22.54 12.2637L19.2627 4.08887Z" fill="#141B34"/>
</svg>
