<svg width="24" height="24" viewBox="0 0 24 24" fill="none" xmlns="http://www.w3.org/2000/svg">
<path fill-rule="evenodd" clip-rule="evenodd" d="M12.0001 3C12.5524 3 13.0001 3.44772 13.0001 4V10.2768L18.5039 7.13176C18.9834 6.85775 19.5942 7.02434 19.8682 7.50385C20.1423 7.98337 19.9757 8.59423 19.4961 8.86824L14.0155 12.0001L19.4959 15.1318C19.9754 15.4058 20.142 16.0166 19.868 16.4961C19.594 16.9757 18.9831 17.1423 18.5036 16.8682L13.0001 13.7233V20C13.0001 20.5523 12.5524 21 12.0001 21C11.4478 21 11.0001 20.5523 11.0001 20V13.7232L5.4964 16.8682C5.01689 17.1423 4.40603 16.9757 4.13202 16.4961C3.858 16.0166 4.0246 15.4058 4.50411 15.1318L9.98447 12.0001L4.50386 8.86824C4.02434 8.59422 3.85775 7.98337 4.13176 7.50385C4.40578 7.02434 5.01663 6.85775 5.49615 7.13176L11.0001 10.2769V4C11.0001 3.44772 11.4478 3 12.0001 3Z" fill="#141B34"/>
</svg>
