<svg width="24" height="24" viewBox="0 0 24 24" fill="none" xmlns="http://www.w3.org/2000/svg">
<path fill-rule="evenodd" clip-rule="evenodd" d="M22 22C22.5523 22 23 21.5523 23 21V3C23 2.44772 22.5523 2 22 2C21.4477 2 21 2.44772 21 3V6H18V3C18 2.44772 17.5523 2 17 2C16.4477 2 16 2.44772 16 3V6.25H10V5C10 4.44772 9.55228 4 9 4H6C5.44772 4 5 4.44772 5 5V6.25H3V3C3 2.44772 2.55228 2 2 2C1.44772 2 1 2.44772 1 3V21C1 21.5523 1.44772 22 2 22C2.55228 22 3 21.5523 3 21V19.75H16V21C16 21.5523 16.4477 22 17 22C17.5523 22 18 21.5523 18 21V20H21V21C21 21.5523 21.4477 22 22 22ZM18 8H21V10H18V8ZM3 10.75H16V15.25H10V14C10 13.4477 9.55228 13 9 13H6C5.44772 13 5 13.4477 5 14V15.25H3V10.75ZM18 12H21V14H18V12ZM18 16H21V18H18V16Z" fill="#141B34"/>
</svg>
