<svg width="24" height="24" viewBox="0 0 24 24" fill="none" xmlns="http://www.w3.org/2000/svg">
<path fill-rule="evenodd" clip-rule="evenodd" d="M22 22C22.5523 22 23 21.5523 23 21V9C23 8.44772 22.5523 8 22 8C21.4477 8 21 8.44772 21 9V10H7.74121C7.74813 9.88805 7.75172 9.77268 7.74512 9.65527C7.69642 8.79105 7.26224 7.98607 6.55273 7.49609C6.36423 7.36597 6.12171 7.26884 5.91699 7.19727C5.69545 7.11982 5.44522 7.04879 5.20117 6.98535C4.57208 6.82184 4.03676 6.66516 3.42383 6.80566C3.27489 6.83983 3.13515 6.89082 3 6.95312V4C3 3.44772 2.55228 3 2 3C1.44772 3 1 3.44772 1 4V21C1 21.5523 1.44772 22 2 22C2.55228 22 3 21.5523 3 21V17H5.25V18C5.25 18.9665 6.0335 19.75 7 19.75H18C18.9665 19.75 19.75 18.9665 19.75 18V17H21V21C21 21.5523 21.4477 22 22 22ZM3 10.6182L5.25 11.7432V15H3V10.6182ZM19.75 12H21V15H19.75V12Z" fill="#141B34"/>
</svg>
