<svg width="24" height="24" viewBox="0 0 24 24" fill="none" xmlns="http://www.w3.org/2000/svg">
<path d="M19.8779 1.25488C20.3678 1.30526 20.75 1.72179 20.75 2.22754V17.8633C20.75 18.403 20.3143 18.8408 19.7773 18.8408H19.6875C19.6572 18.8768 19.6244 18.9161 19.5928 18.96C19.4254 19.1924 19.292 19.4845 19.292 19.8184C19.292 20.152 19.4255 20.4434 19.5928 20.6758C19.6244 20.7198 19.6571 20.7598 19.6875 20.7959H19.7773C20.3142 20.7959 20.7499 21.2329 20.75 21.7725C20.75 22.3122 20.3143 22.75 19.7773 22.75H6.16699C4.55622 22.75 3.2501 21.4375 3.25 19.8184V4.18164C3.2501 2.56252 4.55622 1.25 6.16699 1.25H19.7773L19.8779 1.25488ZM6.16699 18.8398C5.63005 18.8398 5.19434 19.2777 5.19434 19.8174C5.19448 20.357 5.63014 20.7939 6.16699 20.7939H17.5C17.4082 20.5025 17.3477 20.1761 17.3477 19.8174C17.3477 19.4584 17.4081 19.1314 17.5 18.8398H6.16699ZM12.707 6.29297C12.3409 5.92686 11.7619 5.90425 11.3691 6.22461L11.293 6.29297L8.29297 9.29297C7.90256 9.6835 7.90249 10.3165 8.29297 10.707C8.68346 11.0974 9.31654 11.0974 9.70703 10.707L11 9.41406V13C11.0001 13.5522 11.4478 14 12 14C12.5522 14 12.9999 13.5522 13 13V9.41406L14.293 10.707L14.3691 10.7754C14.7619 11.0956 15.3409 11.073 15.707 10.707C16.0731 10.341 16.0956 9.76191 15.7754 9.36914L15.707 9.29297L12.707 6.29297Z" fill="#141B34"/>
</svg>
