<svg width="24" height="24" viewBox="0 0 24 24" fill="none" xmlns="http://www.w3.org/2000/svg">
<path d="M11.7498 1.5C17.4107 1.5 21.9998 6.08908 21.9998 11.75C21.9998 17.4109 17.4107 22 11.7498 22C10.0106 22 8.37088 21.5656 6.93439 20.7998C5.16022 20.0361 3.41539 20.4008 2.31525 20.4971C2.03569 20.5215 1.76598 20.3876 1.61603 20.1504C1.4662 19.9132 1.46136 19.6121 1.60333 19.3701C1.78675 19.0573 2.03981 18.3756 2.16779 17.5312C2.29472 16.6934 2.28489 15.7789 2.0213 14.9863C1.68272 13.9681 1.49982 12.8796 1.49982 11.75C1.49982 6.08908 6.0889 1.5 11.7498 1.5ZM11.7498 6.5C10.231 6.5 8.99982 7.73122 8.99982 9.25V10.0195C8.15187 10.1409 7.49982 10.8685 7.49982 11.75V14.25C7.49982 15.2165 8.28332 16 9.24982 16H14.2498C15.2163 16 15.9998 15.2165 15.9998 14.25V11.75C15.9998 10.7835 15.2163 10 14.2498 10H10.4998V9.25C10.4998 8.55964 11.0595 8 11.7498 8C12.0952 8 12.4066 8.13918 12.6336 8.36621C12.9264 8.65905 13.4012 8.65895 13.6942 8.36621C13.987 8.07332 13.987 7.59856 13.6942 7.30566C13.1973 6.80883 12.509 6.5 11.7498 6.5Z" fill="#141B34"/>
</svg>
