<svg width="24" height="24" viewBox="0 0 24 24" fill="none" xmlns="http://www.w3.org/2000/svg">
<path d="M11.75 1.5C17.4109 1.5 22 6.08908 22 11.75C22 17.4109 17.4109 22 11.75 22C10.0108 22 8.37106 21.5656 6.93457 20.7998C5.16041 20.0361 3.41557 20.4008 2.31543 20.4971C2.03587 20.5215 1.76617 20.3876 1.61621 20.1504C1.46638 19.9132 1.46155 19.6121 1.60352 19.3701C1.78694 19.0573 2.03999 18.3756 2.16797 17.5312C2.29491 16.6934 2.28507 15.7789 2.02148 14.9863C1.6829 13.9681 1.5 12.8796 1.5 11.75C1.5 6.08908 6.08908 1.5 11.75 1.5ZM13.75 8C13.0744 8 12.4391 8.20554 11.75 8.76172C11.0609 8.20554 10.4256 8 9.75 8C8.11874 8 7.00011 9.35509 7 10.8887C7 11.6911 7.33219 12.4392 7.74902 13.0703C8.17004 13.7078 8.71792 14.2872 9.24316 14.7686C9.77145 15.2527 10.2962 15.6559 10.6875 15.9365C10.8838 16.0773 11.3329 16.3607 11.4492 16.4375C11.6727 16.5353 11.9332 16.5182 12.1445 16.3877C12.2609 16.3109 12.6162 16.0773 12.8125 15.9365C13.2038 15.6559 13.7286 15.2527 14.2568 14.7686C14.7821 14.2872 15.33 13.7078 15.751 13.0703C16.1678 12.4392 16.5 11.6911 16.5 10.8887C16.4999 9.35509 15.3813 8 13.75 8Z" fill="#141B34"/>
</svg>
