<svg width="24" height="24" viewBox="0 0 24 24" fill="none" xmlns="http://www.w3.org/2000/svg">
<path fill-rule="evenodd" clip-rule="evenodd" d="M8.79277 12.0656C9.1833 11.6751 9.81646 11.6751 10.207 12.0656L11.9999 13.8585L13.7928 12.0656C14.1833 11.6751 14.8165 11.6751 15.207 12.0656C15.5975 12.4562 15.5975 13.0893 15.207 13.4798L13.4141 15.2727L15.207 17.0656C15.5975 17.4562 15.5975 18.0893 15.207 18.4798C14.8165 18.8704 14.1833 18.8704 13.7928 18.4798L11.9999 16.6869L10.207 18.4798C9.81646 18.8704 9.1833 18.8704 8.79277 18.4798C8.40225 18.0893 8.40225 17.4562 8.79277 17.0656L10.5857 15.2727L8.79277 13.4798C8.40225 13.0893 8.40225 12.4562 8.79277 12.0656Z" fill="#141B34"/>
<path fill-rule="evenodd" clip-rule="evenodd" d="M7.6125 1.25C8.15098 1.25 8.5875 1.68754 8.5875 2.22727V3.20455H15.4125V2.22727C15.4125 1.68754 15.849 1.25 16.3875 1.25C16.926 1.25 17.3625 1.68754 17.3625 2.22727V3.20455H18.825C20.4404 3.20455 21.75 4.51717 21.75 6.13636V19.8182C21.75 21.4374 20.4404 22.75 18.825 22.75H5.175C3.55957 22.75 2.25 21.4374 2.25 19.8182V6.13636C2.25 4.51717 3.55957 3.20455 5.175 3.20455H6.6375V2.22727C6.6375 1.68754 7.07403 1.25 7.6125 1.25ZM19.7999 9.75H4.19995V19.8182C4.19995 20.3579 4.63647 20.7955 5.17495 20.7955H18.8249C19.3634 20.7955 19.7999 20.3579 19.7999 19.8182V9.75Z" fill="#141B34"/>
</svg>
