<svg width="24" height="24" viewBox="0 0 24 24" fill="none" xmlns="http://www.w3.org/2000/svg">
<path d="M16.3623 2.22754C16.3623 1.68787 15.9261 1.2501 15.3877 1.25C14.8492 1.25 14.4121 1.68781 14.4121 2.22754V3.2041H7.58789V2.22754C7.58789 1.68781 7.15078 1.25 6.6123 1.25C6.07392 1.25011 5.6377 1.68787 5.6377 2.22754V3.2041H4.1748C2.55946 3.20421 1.25 4.51759 1.25 6.13672V19.8184C1.2501 21.4374 2.55952 22.7499 4.1748 22.75H10.5903C11.1299 22.75 11.5674 22.3126 11.5674 21.7729C11.5674 21.2333 11.1299 20.7959 10.5903 20.7959H4.1748C3.63645 20.7958 3.20029 20.358 3.2002 19.8184V9.75H18.7998V11.5903C18.7998 12.1289 19.2364 12.5654 19.7749 12.5654C20.3134 12.5654 20.75 12.1289 20.75 11.5903V6.13672C20.75 4.51759 19.4405 3.20421 17.8252 3.2041H16.3623V2.22754Z" fill="#141B34"/>
<path d="M16.5 13.25C16.9257 13.25 17.3479 13.3312 17.7432 13.4893L21.8145 15.1182C22.3795 15.3443 22.75 15.8914 22.75 16.5V19.5C22.75 19.9142 22.4142 20.25 22 20.25C21.5858 20.25 21.25 19.9142 21.25 19.5V18.1074L20.25 18.5068V20.1543C20.2498 20.9918 19.712 21.6684 19.0146 22.0977C18.3117 22.5302 17.4059 22.75 16.5 22.75C15.5941 22.75 14.6883 22.5302 13.9854 22.0977C13.288 21.6684 12.7502 20.9918 12.75 20.1543V18.5068L11.1855 17.8818C10.6205 17.6557 10.25 17.1086 10.25 16.5C10.25 15.8914 10.6205 15.3443 11.1855 15.1182L15.2568 13.4893C15.6521 13.3312 16.0743 13.25 16.5 13.25ZM17.7432 19.5107C17.3479 19.6688 16.9257 19.75 16.5 19.75C16.0743 19.75 15.6521 19.6688 15.2568 19.5107L14.25 19.1074V20.1543C14.2502 20.2958 14.3446 20.5575 14.7715 20.8203C15.1937 21.0802 15.8146 21.25 16.5 21.25C17.1854 21.25 17.8063 21.0802 18.2285 20.8203C18.6554 20.5575 18.7498 20.2958 18.75 20.1543V19.1074L17.7432 19.5107Z" fill="#141B34"/>
</svg>
