<svg width="24" height="24" viewBox="0 0 24 24" fill="none" xmlns="http://www.w3.org/2000/svg">
<path d="M7.61253 1.25C8.15101 1.25 8.58753 1.68754 8.58753 2.22727V3.20455H15.4125V2.22727C15.4125 1.68754 15.8491 1.25 16.3875 1.25C16.926 1.25 17.3625 1.68754 17.3625 2.22727V3.20455H18.825C20.4405 3.20455 21.75 4.51717 21.75 6.13636V13.525C21.75 14.0635 21.3135 14.5 20.775 14.5C20.2365 14.5 19.8 14.0635 19.8 13.525V9.75H4.19998V19.8182C4.19998 20.3579 4.6365 20.7955 5.17498 20.7955H11.0228C11.5625 20.7955 12 21.233 12 21.7727C12 22.3125 11.5625 22.75 11.0228 22.75H5.17503C3.5596 22.75 2.25003 21.4374 2.25003 19.8182V6.13636C2.25003 4.51717 3.5596 3.20455 5.17503 3.20455H6.63753V2.22727C6.63753 1.68754 7.07406 1.25 7.61253 1.25Z" fill="#141B34"/>
<path fill-rule="evenodd" clip-rule="evenodd" d="M17.5429 16.0429C17.9334 15.6524 18.5666 15.6524 18.9571 16.0429L21.4571 18.5429C21.8476 18.9334 21.8476 19.5666 21.4571 19.9571L18.9571 22.4571C18.5666 22.8476 17.9334 22.8476 17.5429 22.4571C17.1524 22.0666 17.1524 21.4334 17.5429 21.0429L18.3358 20.25H13.75C13.1977 20.25 12.75 19.8023 12.75 19.25C12.75 18.6977 13.1977 18.25 13.75 18.25H18.3358L17.5429 17.4571C17.1524 17.0666 17.1524 16.4334 17.5429 16.0429Z" fill="#141B34"/>
</svg>
