<svg width="24" height="24" viewBox="0 0 24 24" fill="none" xmlns="http://www.w3.org/2000/svg">
<path fill-rule="evenodd" clip-rule="evenodd" d="M17.25 15.75C15.8693 15.75 14.75 16.8693 14.75 18.25C14.75 18.5724 14.811 18.8806 14.9222 19.1636L18.1636 15.9222C17.8806 15.811 17.5724 15.75 17.25 15.75ZM19.5778 17.3364L16.3364 20.5778C16.6194 20.689 16.9276 20.75 17.25 20.75C18.6307 20.75 19.75 19.6307 19.75 18.25C19.75 17.9276 19.689 17.6194 19.5778 17.3364ZM12.75 18.25C12.75 15.7647 14.7647 13.75 17.25 13.75C19.7353 13.75 21.75 15.7647 21.75 18.25C21.75 20.7353 19.7353 22.75 17.25 22.75C14.7647 22.75 12.75 20.7353 12.75 18.25Z" fill="#141B34"/>
<path d="M7.6125 1.25C8.15098 1.25 8.5875 1.68754 8.5875 2.22727V3.20455H15.4125V2.22727C15.4125 1.68754 15.849 1.25 16.3875 1.25C16.926 1.25 17.3625 1.68754 17.3625 2.22727V3.20455H18.825C20.4404 3.20455 21.75 4.51717 21.75 6.13636V12.025C21.75 12.5635 21.3135 13 20.775 13C20.2365 13 19.7999 12.5635 19.7999 12.025V9.75H4.19995V19.8182C4.19995 20.3579 4.63647 20.7955 5.17495 20.7955H11.0227C11.5625 20.7955 12 21.233 12 21.7727C12 22.3125 11.5625 22.75 11.0227 22.75H5.175C3.55957 22.75 2.25 21.4374 2.25 19.8182V6.13636C2.25 4.51717 3.55957 3.20455 5.175 3.20455H6.6375V2.22727C6.6375 1.68754 7.07403 1.25 7.6125 1.25Z" fill="#141B34"/>
</svg>
