<svg width="24" height="24" viewBox="0 0 24 24" fill="none" xmlns="http://www.w3.org/2000/svg">
<path fill-rule="evenodd" clip-rule="evenodd" d="M16.7354 14.7523C16.7354 14.3368 17.0722 14 17.4877 14C17.9031 14 18.24 14.3368 18.24 14.7523V15.6445H16.7354V14.7523ZM14.7354 15.6644V14.7523C14.7354 13.2323 15.9676 12 17.4877 12C19.0077 12 20.24 13.2323 20.24 14.7523V15.6614C21.0909 15.7802 21.7458 16.5109 21.7458 17.3945V20.999C21.7458 21.9655 20.9623 22.749 19.9958 22.749H14.9999C14.0334 22.749 13.2499 21.9655 13.2499 20.999V17.3945C13.2499 16.518 13.8944 15.7919 14.7354 15.6644Z" fill="#141B34"/>
<path d="M7.6125 1.25C8.15098 1.25 8.5875 1.68754 8.5875 2.22727V3.20455H15.4125V2.22727C15.4125 1.68754 15.849 1.25 16.3875 1.25C16.926 1.25 17.3625 1.68754 17.3625 2.22727V3.20455H18.825C20.4404 3.20455 21.75 4.51717 21.75 6.13636V11.025C21.75 11.5635 21.3135 12 20.775 12C20.2365 12 19.7999 11.5635 19.7999 11.025V9.75H4.19995V19.8182C4.19995 20.3579 4.63647 20.7955 5.17495 20.7955H11.0227C11.5624 20.7955 11.9999 21.233 11.9999 21.7727C11.9999 22.3125 11.5624 22.75 11.0227 22.75H5.175C3.55957 22.75 2.25 21.4374 2.25 19.8182V6.13636C2.25 4.51717 3.55957 3.20455 5.175 3.20455H6.6375V2.22727C6.6375 1.68754 7.07403 1.25 7.6125 1.25Z" fill="#141B34"/>
</svg>
