<svg width="24" height="24" viewBox="0 0 24 24" fill="none" xmlns="http://www.w3.org/2000/svg">
<path d="M19.7368 21.7382C20.8685 21.7999 21.7411 20.8779 21.7411 19.8149V17.3736C21.7409 16.2713 20.8638 15.4927 19.932 15.3588C19.1246 15.2429 18.3673 14.9917 17.8621 14.7932C17.1455 14.5118 16.2705 14.6319 15.6731 15.2293L13.008 17.8944C10.0643 16.3352 7.64585 13.9171 6.0869 10.9732L8.7529 8.30914C9.35033 7.71171 9.47043 6.83675 9.18898 6.12016C8.99057 5.61492 8.73935 4.85764 8.62341 4.05019C8.48949 3.11846 7.7109 2.24131 6.60867 2.24112H4.16737C3.10428 2.24112 2.1823 3.11375 2.24404 4.24538C2.76015 13.6711 10.3111 21.2221 19.7368 21.7382Z" fill="#141B34"/>
<path d="M18.991 11.241V7.74104C18.991 7.18876 18.5433 6.74104 17.991 6.74104H15.4051L16.1981 7.53401C16.5886 7.92454 16.5886 8.55755 16.1981 8.94808C15.8075 9.3386 15.1745 9.3386 14.784 8.94808L12.284 6.44808C11.8935 6.05755 11.8935 5.42454 12.284 5.03401L14.784 2.53401C15.1745 2.14349 15.8075 2.14349 16.1981 2.53401C16.5886 2.92454 16.5886 3.55755 16.1981 3.94808L15.4051 4.74104H17.991C19.6479 4.74104 20.991 6.08419 20.991 7.74104V11.241C20.991 11.7933 20.5433 12.241 19.991 12.241C19.4387 12.241 18.991 11.7933 18.991 11.241Z" fill="#141B34"/>
</svg>
