<svg width="24" height="24" viewBox="0 0 24 24" fill="none" xmlns="http://www.w3.org/2000/svg">
<path fill-rule="evenodd" clip-rule="evenodd" d="M15.655 3.38433C15.139 2.67354 14.3124 2.25 13.4296 2.25H10.5704C9.6509 2.25 8.79226 2.70953 8.28223 3.47457L7.09861 5.25H4C2.48122 5.25 1.25 6.48122 1.25 8V19C1.25 20.5188 2.48122 21.75 4 21.75H20C21.5188 21.75 22.75 20.5188 22.75 19V8C22.75 7.71921 22.7079 7.44826 22.6297 7.19309C22.3601 7.57488 21.9432 7.8705 21.379 7.98581C20.6775 8.1292 20.1292 8.67746 19.9858 9.37902C19.5441 11.5403 16.4559 11.5403 16.0142 9.37902C15.8708 8.67746 15.3225 8.1292 14.621 7.98581C12.4596 7.54403 12.4598 4.45593 14.621 4.01419C15.0371 3.92915 15.3992 3.7017 15.655 3.38433ZM16 13C16 15.2091 14.2091 17 12 17C9.79086 17 8 15.2091 8 13C8 10.7909 9.79086 9 12 9C14.2091 9 16 10.7909 16 13ZM18.7611 2.87129C18.5918 2.04292 17.4082 2.04289 17.2389 2.87129C16.9952 4.0635 16.0635 4.9952 14.8713 5.23888C14.0429 5.40819 14.0429 6.59181 14.8713 6.76113C16.0635 7.0048 16.9952 7.9365 17.2389 9.12871C17.4082 9.9571 18.5918 9.9571 18.7611 9.12871C19.0048 7.9365 19.9365 7.0048 21.1287 6.76113C21.9571 6.59181 21.9571 5.40819 21.1287 5.23888C19.9365 4.9952 19.0048 4.0635 18.7611 2.87129Z" fill="#141B34"/>
</svg>
