<svg width="24" height="24" viewBox="0 0 24 24" fill="none" xmlns="http://www.w3.org/2000/svg">
<path d="M13.6973 2.75C14.4495 2.75001 15.152 3.12602 15.5693 3.75195L16.9014 5.75H20C21.5188 5.75 22.75 6.98122 22.75 8.5V18.5C22.75 20.0188 21.5188 21.25 20 21.25H4C2.48122 21.25 1.25 20.0188 1.25 18.5V8.5C1.25 6.98122 2.48122 5.75 4 5.75H7.09863L8.43066 3.75195C8.84795 3.12602 9.55046 2.75001 10.3027 2.75H13.6973ZM12 8.25C9.37664 8.25 7.25 10.3766 7.25 13C7.25 15.6234 9.37664 17.75 12 17.75C13.2041 17.75 14.3057 17.3012 15.1426 16.5625C15.453 16.2884 15.482 15.8144 15.208 15.5039C14.9339 15.1934 14.46 15.1634 14.1494 15.4375C13.576 15.9436 12.8248 16.25 12 16.25C10.2051 16.25 8.75 14.7949 8.75 13C8.75 11.2051 10.2051 9.75 12 9.75C13.4663 9.75 14.7041 10.7224 15.1084 12.0566L13.6475 11.7646C13.2414 11.6834 12.8461 11.9466 12.7646 12.3525C12.6834 12.7586 12.9466 13.1539 13.3525 13.2354L15.8525 13.7354C16.1633 13.7975 16.4805 13.6575 16.6436 13.3857L18.1436 10.8857C18.3564 10.5306 18.2408 10.0695 17.8857 9.85645C17.5306 9.64357 17.0695 9.75917 16.8564 10.1143L16.3154 11.0156C15.5637 9.38334 13.915 8.25 12 8.25Z" fill="#141B34"/>
</svg>
