<svg width="24" height="24" viewBox="0 0 24 24" fill="none" xmlns="http://www.w3.org/2000/svg">
<path d="M15.0634 12.7774C14.1877 13.3661 13.1333 13.7097 11.9987 13.7097C10.8641 13.7097 9.80976 13.3661 8.934 12.7773L7.30603 18.8139L7.3027 18.8272C7.12333 19.5444 7.40612 20.2155 7.8982 20.6041C8.39473 20.9962 9.12823 21.1128 9.77464 20.7047L11.9324 19.3425C11.9751 19.3156 12.0224 19.3156 12.0651 19.3425L14.2228 20.7047C14.8692 21.1128 15.6027 20.9962 16.0993 20.6041C16.5913 20.2155 16.8742 19.5443 16.6949 18.8272L15.0634 12.7774Z" fill="#141B34"/>
<path d="M15.9985 8.20996C15.9985 10.4191 14.2076 12.21 11.9985 12.21C9.78934 12.21 7.99847 10.4191 7.99847 8.20996C7.99847 6.00082 9.78934 4.20996 11.9985 4.20996C14.2076 4.20996 15.9985 6.00082 15.9985 8.20996Z" fill="#141B34"/>
<path d="M15.6547 12.3212C16.7878 11.3138 17.5016 9.84508 17.5016 8.20966C17.5016 6.57423 16.7878 5.10552 15.6547 4.09808C17.0103 3.55612 18.4888 3.21108 19.8642 3.05579C21.1925 2.90583 22.3483 3.84339 22.5225 5.14703C22.6324 5.96967 22.7289 7.0177 22.7514 8.19534C22.7516 8.20488 22.7516 8.21443 22.7514 8.22397C22.7289 9.40161 22.6324 10.4496 22.5225 11.2723C22.3483 12.5759 21.1925 13.5135 19.8642 13.3635C18.4888 13.2082 17.0104 12.8632 15.6547 12.3212Z" fill="#141B34"/>
<path d="M8.34262 12.3223C6.98773 12.8636 5.51031 13.2083 4.13582 13.3635C2.80759 13.5135 1.65171 12.5759 1.47753 11.2723C1.36761 10.4496 1.27109 9.40161 1.24861 8.22397C1.24843 8.21443 1.24843 8.20488 1.24861 8.19534C1.27109 7.0177 1.36761 5.96967 1.47753 5.14703C1.65171 3.84339 2.80759 2.90583 4.13582 3.05579C5.51031 3.21098 6.98773 3.55566 8.34262 4.097C7.20887 5.10448 6.49457 6.57365 6.49457 8.20966C6.49457 9.84566 7.20887 11.3148 8.34262 12.3223Z" fill="#141B34"/>
</svg>
