<svg width="24" height="24" viewBox="0 0 24 24" fill="none" xmlns="http://www.w3.org/2000/svg">
<path d="M12 2.24609C12.8529 2.24609 13.6887 2.25684 14.501 2.27637C14.5086 2.84188 14.7276 3.40533 15.1592 3.83691L16.0684 4.74609L15.1592 5.65527C14.2808 6.53395 14.2807 7.95831 15.1592 8.83691C16.0378 9.71544 17.4621 9.71532 18.3408 8.83691L19.25 7.92773L20.1592 8.83691C20.854 9.53163 21.889 9.67444 22.7266 9.27051C22.7414 9.83343 22.75 10.4097 22.75 10.9961C22.75 13.233 22.6381 15.3228 22.4434 17.085C22.3055 18.3319 21.308 19.2893 20.0723 19.4053C17.9753 19.6021 15.4756 19.7224 12.7803 19.7422L9.69336 22.3896C9.42511 22.6197 9.08286 22.7461 8.72949 22.7461C7.91249 22.7459 7.25023 22.0836 7.25 21.2666V19.6338C6.06373 19.5767 4.94824 19.501 3.92773 19.4053C2.69215 19.2893 1.69446 18.332 1.55664 17.085C1.36191 15.3228 1.25 13.233 1.25 10.9961C1.25 8.75918 1.36191 6.66938 1.55664 4.90723C1.69447 3.66013 2.69226 2.7029 3.92773 2.58691C6.22548 2.3713 9.00709 2.24609 12 2.24609ZM8.00879 10C7.45662 10.0001 7.00879 10.4478 7.00879 11C7.00879 11.5522 7.45662 11.9999 8.00879 12H8.01758L8.12012 11.9951C8.62433 11.9439 9.01758 11.5177 9.01758 11C9.01758 10.4823 8.62433 10.0561 8.12012 10.0049L8.01758 10H8.00879ZM12.0039 10C11.4519 10.0003 11.0039 10.4479 11.0039 11C11.0039 11.5521 11.4519 11.9997 12.0039 12H12.0137C12.5658 11.9998 13.0137 11.5522 13.0137 11C13.0137 10.4478 12.5658 10.0002 12.0137 10H12.0039Z" fill="#141B34"/>
<path d="M21.0431 1.53899C21.4337 1.14846 22.0667 1.14846 22.4572 1.53899C22.8477 1.92951 22.8477 2.56253 22.4572 2.95305L20.6642 4.74602L22.4572 6.53899C22.8477 6.92951 22.8477 7.56253 22.4572 7.95305C22.0667 8.34357 21.4337 8.34357 21.0431 7.95305L19.2502 6.16008L17.4572 7.95305C17.0667 8.34357 16.4337 8.34357 16.0431 7.95305C15.6526 7.56253 15.6526 6.92951 16.0431 6.53899L17.8361 4.74602L16.0431 2.95305C15.6526 2.56253 15.6526 1.92951 16.0431 1.53899C16.4337 1.14846 17.0667 1.14846 17.4572 1.53899L19.2502 3.33196L21.0431 1.53899Z" fill="#141B34"/>
</svg>
