<svg width="24" height="24" viewBox="0 0 24 24" fill="none" xmlns="http://www.w3.org/2000/svg">
<path d="M12.4336 2.25195C12.1514 2.83361 12 3.48211 12 4.13867C12 5.28214 12.4695 6.27202 12.9561 7.00879C13.4539 7.76263 14.0812 8.4206 14.6484 8.94043C15.2232 9.4672 15.7897 9.90139 16.209 10.2021C16.423 10.3557 16.8787 10.6513 17.1982 10.833C17.7969 11.0949 18.4906 11.0478 19.0518 10.7012C19.1569 10.6317 19.5699 10.3607 19.791 10.2021C20.2103 9.90139 20.7768 9.4672 21.3516 8.94043C21.7795 8.54824 22.2413 8.07719 22.6562 7.5459C22.7165 8.63598 22.75 9.79667 22.75 11C22.75 13.2369 22.6381 15.3267 22.4434 17.0889C22.3055 18.3358 21.308 19.2932 20.0723 19.4092C17.9753 19.606 15.4756 19.7263 12.7803 19.7461L9.69336 22.3936C9.42511 22.6236 9.08286 22.75 8.72949 22.75C7.91249 22.7498 7.25023 22.0875 7.25 21.2705V19.6377C6.06373 19.5806 4.94824 19.5049 3.92773 19.4092C2.69215 19.2932 1.69446 18.3359 1.55664 17.0889C1.36191 15.3267 1.25 13.2369 1.25 11C1.25 8.76308 1.36191 6.67328 1.55664 4.91113C1.69447 3.66404 2.69226 2.7068 3.92773 2.59082C6.22548 2.37521 9.00709 2.25 12 2.25C12.145 2.25 12.2896 2.25137 12.4336 2.25195ZM8.00879 10C7.45662 10.0001 7.00879 10.4478 7.00879 11C7.00879 11.5522 7.45662 11.9999 8.00879 12H8.01758L8.12012 11.9951C8.62433 11.9439 9.01758 11.5177 9.01758 11C9.01758 10.4823 8.62433 10.0561 8.12012 10.0049L8.01758 10H8.00879ZM12.0039 10C11.4519 10.0003 11.0039 10.4479 11.0039 11C11.0039 11.5521 11.4519 11.9997 12.0039 12H12.0137C12.5658 11.9998 13.0137 11.5522 13.0137 11C13.0137 10.4478 12.5658 10.0002 12.0137 10H12.0039Z" fill="#141B34"/>
<path d="M22.001 6.32031C22.4178 5.68918 22.75 4.94105 22.75 4.13867C22.7499 2.60509 21.6313 1.25 20 1.25C19.3244 1.25 18.6891 1.45554 18 2.01172C17.3109 1.45554 16.6756 1.25 16 1.25C14.3687 1.25 13.2501 2.60509 13.25 4.13867C13.25 4.94105 13.5822 5.68918 13.999 6.32031C14.42 6.95777 14.9679 7.53717 15.4932 8.01855C16.0214 8.50271 16.5462 8.90587 16.9375 9.18652C17.1338 9.32731 17.2987 9.43781 17.415 9.51465C17.4733 9.55309 17.6667 9.6668 17.6992 9.6875C17.9227 9.78533 18.1832 9.76821 18.3945 9.6377C18.5109 9.56085 18.8662 9.32731 19.0625 9.18652C19.4538 8.90587 19.9786 8.50271 20.5068 8.01855C21.0321 7.53717 21.58 6.95777 22.001 6.32031Z" fill="#141B34"/>
</svg>
