<svg width="24" height="24" viewBox="0 0 24 24" fill="none" xmlns="http://www.w3.org/2000/svg">
<path d="M12 1.75C14.9929 1.75 17.7745 1.87521 20.0723 2.09082C21.3077 2.20681 22.3055 3.16404 22.4434 4.41113C22.6381 6.17328 22.75 8.26308 22.75 10.5C22.75 12.7369 22.6381 14.8267 22.4434 16.5889C22.3055 17.8358 21.308 18.7932 20.0723 18.9092C17.9753 19.106 15.4756 19.2263 12.7803 19.2461L9.69336 21.8936C9.4251 22.1236 9.08286 22.25 8.72949 22.25C7.91249 22.2498 7.25022 21.5875 7.25 20.7705V19.1377C6.06373 19.0806 4.94824 19.0049 3.92773 18.9092C2.69215 18.7932 1.69446 17.8359 1.55664 16.5889C1.36191 14.8267 1.25 12.7369 1.25 10.5C1.25 8.26308 1.36191 6.17328 1.55664 4.41113C1.69447 3.16404 2.69226 2.2068 3.92773 2.09082C6.22548 1.87521 9.00709 1.75 12 1.75ZM12.207 6.79297C11.8165 6.40245 11.1835 6.40245 10.793 6.79297L7.79297 9.79297C7.40245 10.1835 7.40245 10.8165 7.79297 11.207L10.793 14.207C11.1835 14.5975 11.8165 14.5975 12.207 14.207C12.5975 13.8165 12.5975 13.1835 12.207 12.793L10.9141 11.5H15.5C16.0522 11.5 16.5 11.0522 16.5 10.5C16.5 9.94774 16.0522 9.50004 15.5 9.5H10.9141L12.207 8.20703C12.5975 7.81654 12.5975 7.1835 12.207 6.79297Z" fill="#141B34"/>
</svg>
