<svg width="24" height="24" viewBox="0 0 24 24" fill="none" xmlns="http://www.w3.org/2000/svg">
<path d="M12 2.25C12.8652 2.25 13.7128 2.26116 14.5361 2.28125L13.1592 3.65918C12.2807 4.53787 12.2805 5.96219 13.1592 6.84082L16.1592 9.84082C17.0378 10.7193 18.4622 10.7193 19.3408 9.84082C19.974 9.2076 20.1486 8.29157 19.8691 7.5H22.6533C22.7152 8.60338 22.75 9.77976 22.75 11C22.75 13.2369 22.6381 15.3267 22.4434 17.0889C22.3055 18.3358 21.308 19.2932 20.0723 19.4092C17.9753 19.606 15.4756 19.7263 12.7803 19.7461L9.69336 22.3936C9.42511 22.6236 9.08286 22.75 8.72949 22.75C7.91249 22.7498 7.25023 22.0875 7.25 21.2705V19.6377C6.06373 19.5806 4.94824 19.5049 3.92773 19.4092C2.69215 19.2932 1.69446 18.3359 1.55664 17.0889C1.36191 15.3267 1.25 13.2369 1.25 11C1.25 8.76308 1.36191 6.67328 1.55664 4.91113C1.69447 3.66404 2.69226 2.7068 3.92773 2.59082C6.22548 2.37521 9.00709 2.25 12 2.25ZM8.00879 10C7.45662 10.0001 7.00879 10.4478 7.00879 11C7.00879 11.5522 7.45662 11.9999 8.00879 12H8.01758L8.12012 11.9951C8.62433 11.9439 9.01758 11.5177 9.01758 11C9.01758 10.4823 8.62433 10.0561 8.12012 10.0049L8.01758 10H8.00879ZM12.0039 10C11.4519 10.0003 11.0039 10.4479 11.0039 11C11.0039 11.5521 11.4519 11.9997 12.0039 12H12.0137C12.5658 11.9998 13.0137 11.5522 13.0137 11C13.0137 10.4478 12.5658 10.0002 12.0137 10H12.0039Z" fill="#141B34"/>
<path d="M17.0429 1.54289C17.4334 1.15237 18.0664 1.15237 18.457 1.54289C18.8475 1.93341 18.8475 2.56644 18.457 2.95695L17.164 4.24992H21.7499C22.3022 4.24992 22.7499 4.69764 22.7499 5.24992C22.7499 5.80221 22.3022 6.24992 21.7499 6.24992H17.164L18.457 7.54289C18.8475 7.93341 18.8475 8.56643 18.457 8.95695C18.0664 9.34746 17.4334 9.34746 17.0429 8.95695L14.0429 5.95695C13.6524 5.56643 13.6524 4.93342 14.0429 4.54289L17.0429 1.54289Z" fill="#141B34"/>
</svg>
