<svg width="24" height="24" viewBox="0 0 24 24" fill="none" xmlns="http://www.w3.org/2000/svg">
<path d="M12 2.25C13.3878 2.25 14.7302 2.27775 16 2.32812V3.51172C15.3032 3.44852 14.5869 3.65041 14.0146 4.11719L13.8057 4.30566C12.7319 5.37957 12.7319 7.12043 13.8057 8.19434L16.8057 11.1943C17.8795 12.2682 19.6204 12.2681 20.6943 11.1943L22.7227 9.16504C22.7395 9.76263 22.75 10.3756 22.75 11C22.75 13.2369 22.6381 15.3267 22.4434 17.0889C22.3055 18.3358 21.308 19.2932 20.0723 19.4092C17.9753 19.606 15.4756 19.7263 12.7803 19.7461L9.69336 22.3936C9.42511 22.6236 9.08286 22.75 8.72949 22.75C7.91249 22.7498 7.25023 22.0875 7.25 21.2705V19.6377C6.06373 19.5806 4.94824 19.5049 3.92773 19.4092C2.69215 19.2932 1.69446 18.3359 1.55664 17.0889C1.36191 15.3267 1.25 13.2369 1.25 11C1.25 8.76308 1.36191 6.67328 1.55664 4.91113C1.69447 3.66404 2.69226 2.7068 3.92773 2.59082C6.22548 2.37521 9.00709 2.25 12 2.25ZM8.00879 10C7.45662 10.0001 7.00879 10.4478 7.00879 11C7.00879 11.5522 7.45662 11.9999 8.00879 12H8.01758L8.12012 11.9951C8.62433 11.9439 9.01758 11.5177 9.01758 11C9.01758 10.4823 8.62433 10.0561 8.12012 10.0049L8.01758 10H8.00879ZM12.0039 10C11.4519 10.0003 11.0039 10.4479 11.0039 11C11.0039 11.5521 11.4519 11.9997 12.0039 12H12.0137C12.5658 11.9998 13.0137 11.5522 13.0137 11C13.0137 10.4478 12.5658 10.0002 12.0137 10H12.0039Z" fill="#141B34"/>
<path d="M17.7502 2.25C17.7502 1.69772 18.1979 1.25 18.7502 1.25C19.3024 1.25001 19.7502 1.69772 19.7502 2.25V6.83594L21.0431 5.54297C21.4337 5.15246 22.0667 5.15246 22.4572 5.54297C22.8477 5.93349 22.8477 6.56651 22.4572 6.95703L19.4572 9.95703C19.0667 10.3475 18.4337 10.3475 18.0431 9.95703L15.0431 6.95703C14.6526 6.56651 14.6526 5.93349 15.0431 5.54297C15.4337 5.15245 16.0667 5.15245 16.4572 5.54297L17.7502 6.83594V2.25Z" fill="#141B34"/>
</svg>
