<svg width="24" height="24" viewBox="0 0 24 24" fill="none" xmlns="http://www.w3.org/2000/svg">
<path d="M5.853 6.86454C3.22664 7.39643 1.25 9.71699 1.25 12.5C1.25 13.7033 1.61964 14.8203 2.25157 15.7436C3.74304 17.7082 5.70109 18.3587 7.60562 18.1621C9.70468 17.9455 11.7853 16.6902 13.1021 14.877C13.5224 14.1152 12.9243 13.0839 12.0009 13.0839C11.2987 13.0839 10.7509 13.6404 10.7509 14.3006C10.7509 14.7148 10.4151 15.0506 10.0009 15.0506C9.5867 15.0506 9.25091 14.7148 9.25091 14.3006C9.25091 12.7884 10.494 11.5839 12.0009 11.5839C14.0151 11.5839 15.4577 13.8319 14.3798 15.6643C14.3682 15.684 14.3557 15.7032 14.3423 15.7218C14.192 15.9309 14.0329 16.134 13.8659 16.3306C14.1077 16.278 14.3592 16.25 14.6175 16.25C16.096 16.25 17.238 17.1038 17.8218 18.2403C20.5714 18.0741 22.75 15.7914 22.75 13C22.75 10.3541 20.7927 8.16534 18.2469 7.80273C18.1428 4.44224 15.3858 1.75 12 1.75C8.93585 1.75 6.38731 3.95456 5.853 6.86454Z" fill="#141B34"/>
<path d="M14.3124 19.3432C14.4058 19.2819 14.5091 19.25 14.6173 19.25C14.9124 19.25 15.2519 19.5281 15.2519 20C15.2519 20.4719 14.9124 20.75 14.6173 20.75C14.5493 20.75 14.4847 20.7375 14.424 20.7142C14.0371 20.5661 13.6035 20.7596 13.4554 21.1465C13.3072 21.5333 13.5008 21.9669 13.8876 22.1151C14.1155 22.2023 14.3616 22.25 14.6173 22.25C15.8516 22.25 16.7519 21.185 16.7519 20C16.7519 18.815 15.8516 17.75 14.6173 17.75C14.1864 17.75 13.7869 17.8851 13.4554 18.1119C13.447 18.1176 13.4387 18.1236 13.4305 18.1297C12.4536 18.8584 10.6095 19.8112 8.52952 20.0562C8.11815 20.1046 7.82395 20.4774 7.87241 20.8888C7.92087 21.3001 8.29363 21.5943 8.705 21.5459C11.0841 21.2657 13.1637 20.1959 14.3124 19.3432Z" fill="#141B34"/>
<path d="M3.33022 19.7106C3.51643 19.3406 3.96732 19.1916 4.33732 19.3778C4.88545 19.6537 5.44298 19.8422 6.0008 19.9597C6.40613 20.045 6.66555 20.4427 6.58022 20.8481C6.49489 21.2534 6.09713 21.5128 5.6918 21.4275C5.01318 21.2846 4.33221 21.0545 3.663 20.7177C3.293 20.5315 3.14401 20.0806 3.33022 19.7106Z" fill="#141B34"/>
<path d="M19 19.75C18.5858 19.75 18.25 20.0858 18.25 20.5C18.25 20.9142 18.5858 21.25 19 21.25H21C21.4142 21.25 21.75 20.9142 21.75 20.5C21.75 20.0858 21.4142 19.75 21 19.75H19Z" fill="#141B34"/>
</svg>
