<svg width="24" height="24" viewBox="0 0 24 24" fill="none" xmlns="http://www.w3.org/2000/svg">
<path fill-rule="evenodd" clip-rule="evenodd" d="M12 1.25C8.27208 1.25 5.25 4.27208 5.25 8C5.25 10.3803 6.48205 12.4728 8.34321 13.6746C9.33931 10.3905 12.3905 8 16 8C16.96 8 17.8804 8.16908 18.7333 8.47909C18.7444 8.32084 18.75 8.16108 18.75 8C18.75 4.27208 15.7279 1.25 12 1.25ZM9.25 16C9.25 12.2721 12.2721 9.25 16 9.25C19.7279 9.25 22.75 12.2721 22.75 16C22.75 19.7279 19.7279 22.75 16 22.75C12.2721 22.75 9.25 19.7279 9.25 16ZM8.06601 14.9673C6.29546 13.9655 4.94468 12.3083 4.34321 10.3252C2.48204 11.527 1.25 13.6195 1.25 15.9998C1.25 19.7277 4.27208 22.7498 8 22.7498C9.01796 22.7498 9.9833 22.5245 10.8488 22.121C9.1068 20.6535 8 18.4559 8 15.9998C8 15.65 8.02246 15.3053 8.06601 14.9673Z" fill="#141B34"/>
</svg>
