<svg width="24" height="24" viewBox="0 0 24 24" fill="none" xmlns="http://www.w3.org/2000/svg">
<path fill-rule="evenodd" clip-rule="evenodd" d="M8.2318 1.60984C8.58537 1.18556 9.21593 1.12824 9.64021 1.4818L12 3.44832L14.3598 1.4818C14.7841 1.12824 15.4147 1.18556 15.7682 1.60984C16.1218 2.03412 16.0645 2.66468 15.6402 3.01825L12.6402 5.51825C12.2694 5.82728 11.7307 5.82728 11.3598 5.51825L8.35984 3.01825C7.93556 2.66468 7.87824 2.03412 8.2318 1.60984Z" fill="#141B34"/>
<path d="M13.25 8.00146C13.25 7.03401 14.035 6.25012 15.0024 6.25146L20.0024 6.25844C20.968 6.25979 21.75 7.0429 21.75 8.00844V21.0001C21.75 21.9666 20.9665 22.7501 20 22.7501H15C14.0335 22.7501 13.25 21.9666 13.25 21.0001V8.00146Z" fill="#141B34"/>
<path d="M2.25 8.00146C2.25 7.03401 3.03499 6.25012 4.00244 6.25146L9.00244 6.25844C9.96799 6.25979 10.75 7.0429 10.75 8.00844V21.0001C10.75 21.9666 9.9665 22.7501 9 22.7501H4C3.0335 22.7501 2.25 21.9666 2.25 21.0001V8.00146Z" fill="#141B34"/>
</svg>
