<svg width="24" height="24" viewBox="0 0 24 24" fill="none" xmlns="http://www.w3.org/2000/svg">
<path fill-rule="evenodd" clip-rule="evenodd" d="M10.5 16.75C10.5 16.1977 10.9477 15.75 11.5 15.75H12.5C13.0523 15.75 13.5 16.1977 13.5 16.75V19.25C13.5 19.5261 13.7239 19.75 14 19.75H16C16.5523 19.75 17 20.1977 17 20.75C17 21.3023 16.5523 21.75 16 21.75H8C7.44772 21.75 7 21.3023 7 20.75C7 20.1977 7.44772 19.75 8 19.75H10C10.2761 19.75 10.5 19.5261 10.5 19.25V16.75Z" fill="#141B34"/>
<path fill-rule="evenodd" clip-rule="evenodd" d="M4 2.25C2.48122 2.25 1.25 3.48122 1.25 5V15C1.25 16.5188 2.48122 17.75 4 17.75H20C21.5188 17.75 22.75 16.5188 22.75 15V5C22.75 3.48122 21.5188 2.25 20 2.25H4ZM13.8945 6.55289C13.7136 6.19109 13.3326 5.97387 12.9292 6.00252C12.5257 6.03118 12.1792 6.30006 12.0513 6.68378L10.8148 10.3935L10.3944 9.5528C10.225 9.21402 9.87877 9.00001 9.5 9.00001H7C6.44772 9.00001 6 9.44773 6 10C6 10.5523 6.44772 11 7 11H8.88197L10.1056 13.4472C10.2865 13.809 10.6674 14.0262 11.0709 13.9975C11.4743 13.9688 11.8208 13.6999 11.9487 13.3162L13.1851 9.60689L13.6052 10.4471C13.7745 10.786 14.1208 11 14.4996 11H16.9996C17.5519 11 17.9996 10.5523 17.9996 10C17.9996 9.44773 17.5519 9.00001 16.9996 9.00001H15.1177L13.8945 6.55289Z" fill="#141B34"/>
</svg>
