<svg width="24" height="24" viewBox="0 0 24 24" fill="none" xmlns="http://www.w3.org/2000/svg">
<path fill-rule="evenodd" clip-rule="evenodd" d="M8.25 11.15C8.25 9.54837 9.54837 8.25 11.15 8.25C11.6839 8.25 12.1167 8.68279 12.1167 9.21667C12.1167 9.75054 11.6839 10.1833 11.15 10.1833C10.6161 10.1833 10.1833 10.6161 10.1833 11.15C10.1833 11.6839 9.75054 12.1167 9.21667 12.1167C8.68279 12.1167 8.25 11.6839 8.25 11.15ZM13.0833 9.21667C13.0833 8.68279 13.5161 8.25 14.05 8.25H16.95C17.4839 8.25 17.9167 8.68279 17.9167 9.21667C17.9167 9.75054 17.4839 10.1833 16.95 10.1833H14.05C13.5161 10.1833 13.0833 9.75054 13.0833 9.21667ZM18.8833 9.21667C18.8833 8.68279 19.3161 8.25 19.85 8.25C21.4516 8.25 22.75 9.54837 22.75 11.15C22.75 11.6839 22.3172 12.1167 21.7833 12.1167C21.2495 12.1167 20.8167 11.6839 20.8167 11.15C20.8167 10.6161 20.3839 10.1833 19.85 10.1833C19.3161 10.1833 18.8833 9.75054 18.8833 9.21667ZM9.21667 13.0833C9.75054 13.0833 10.1833 13.5161 10.1833 14.05V16.95C10.1833 17.4839 9.75054 17.9167 9.21667 17.9167C8.68279 17.9167 8.25 17.4839 8.25 16.95V14.05C8.25 13.5161 8.68279 13.0833 9.21667 13.0833ZM21.7833 13.0833C22.3172 13.0833 22.75 13.5161 22.75 14.05V16.95C22.75 17.4839 22.3172 17.9167 21.7833 17.9167C21.2495 17.9167 20.8167 17.4839 20.8167 16.95V14.05C20.8167 13.5161 21.2495 13.0833 21.7833 13.0833ZM9.21667 18.8833C9.75054 18.8833 10.1833 19.3161 10.1833 19.85C10.1833 20.3839 10.6161 20.8167 11.15 20.8167C11.6839 20.8167 12.1167 21.2495 12.1167 21.7833C12.1167 22.3172 11.6839 22.75 11.15 22.75C9.54837 22.75 8.25 21.4516 8.25 19.85C8.25 19.3161 8.68279 18.8833 9.21667 18.8833ZM21.7833 18.8833C22.3172 18.8833 22.75 19.3161 22.75 19.85C22.75 21.4516 21.4516 22.75 19.85 22.75C19.3161 22.75 18.8833 22.3172 18.8833 21.7833C18.8833 21.2495 19.3161 20.8167 19.85 20.8167C20.3839 20.8167 20.8167 20.3839 20.8167 19.85C20.8167 19.3161 21.2495 18.8833 21.7833 18.8833ZM13.0833 21.7833C13.0833 21.2495 13.5161 20.8167 14.05 20.8167H16.95C17.4839 20.8167 17.9167 21.2495 17.9167 21.7833C17.9167 22.3172 17.4839 22.75 16.95 22.75H14.05C13.5161 22.75 13.0833 22.3172 13.0833 21.7833Z" fill="#141B34"/>
<path d="M4 1.25C2.48122 1.25 1.25 2.48122 1.25 4V15C1.25 16.5188 2.48122 17.75 4 17.75H7V11.1502C7 8.8582 8.85802 7.00019 11.15 7.00019H17.75V4C17.75 2.48122 16.5188 1.25 15 1.25H4Z" fill="#141B34"/>
</svg>
