<svg width="24" height="24" viewBox="0 0 24 24" fill="none" xmlns="http://www.w3.org/2000/svg">
<path fill-rule="evenodd" clip-rule="evenodd" d="M4.67857 1.75C3.06117 1.75 1.75 3.06117 1.75 4.67857V6.63095C1.75 7.17009 2.18706 7.60714 2.72619 7.60714C3.26533 7.60714 3.70238 7.17009 3.70238 6.63095V4.67857C3.70238 4.13944 4.13944 3.70238 4.67857 3.70238H6.63095C7.17009 3.70238 7.60714 3.26533 7.60714 2.72619C7.60714 2.18706 7.17009 1.75 6.63095 1.75H4.67857ZM17.369 1.75C16.8299 1.75 16.3929 2.18706 16.3929 2.72619C16.3929 3.26533 16.8299 3.70238 17.369 3.70238H19.3214C19.8606 3.70238 20.2976 4.13944 20.2976 4.67857V6.63095C20.2976 7.17009 20.7347 7.60714 21.2738 7.60714C21.8129 7.60714 22.25 7.17009 22.25 6.63095V4.67857C22.25 3.06117 20.9388 1.75 19.3214 1.75H17.369ZM3.70238 17.369C3.70238 16.8299 3.26533 16.3929 2.72619 16.3929C2.18706 16.3929 1.75 16.8299 1.75 17.369V19.3214C1.75 20.9388 3.06117 22.25 4.67857 22.25H6.63095C7.17009 22.25 7.60714 21.8129 7.60714 21.2738C7.60714 20.7347 7.17009 20.2976 6.63095 20.2976H4.67857C4.13944 20.2976 3.70238 19.8606 3.70238 19.3214V17.369ZM22.25 17.369C22.25 16.8299 21.8129 16.3929 21.2738 16.3929C20.7347 16.3929 20.2976 16.8299 20.2976 17.369V19.3214C20.2976 19.8606 19.8606 20.2976 19.3214 20.2976H17.369C16.8299 20.2976 16.3929 20.7347 16.3929 21.2738C16.3929 21.8129 16.8299 22.25 17.369 22.25H19.3214C20.9388 22.25 22.25 20.9388 22.25 19.3214V17.369ZM10.0476 1.75C9.50848 1.75 9.07143 2.18706 9.07143 2.72619C9.07143 3.26533 9.50848 3.70238 10.0476 3.70238H13.9524C14.4915 3.70238 14.9286 3.26533 14.9286 2.72619C14.9286 2.18706 14.4915 1.75 13.9524 1.75H10.0476ZM3.70238 10.0476C3.70238 9.50848 3.26533 9.07143 2.72619 9.07143C2.18706 9.07143 1.75 9.50848 1.75 10.0476V13.9524C1.75 14.4915 2.18706 14.9286 2.72619 14.9286C3.26533 14.9286 3.70238 14.4915 3.70238 13.9524V10.0476ZM22.25 10.0476C22.25 9.50848 21.8129 9.07143 21.2738 9.07143C20.7347 9.07143 20.2976 9.50848 20.2976 10.0476V13.9524C20.2976 14.4915 20.7347 14.9286 21.2738 14.9286C21.8129 14.9286 22.25 14.4915 22.25 13.9524V10.0476ZM10.0476 20.2976C9.50848 20.2976 9.07143 20.7347 9.07143 21.2738C9.07143 21.8129 9.50848 22.25 10.0476 22.25H13.9524C14.4915 22.25 14.9286 21.8129 14.9286 21.2738C14.9286 20.7347 14.4915 20.2976 13.9524 20.2976H10.0476Z" fill="#141B34"/>
</svg>
