<svg width="24" height="24" viewBox="0 0 24 24" fill="none" xmlns="http://www.w3.org/2000/svg">
<path d="M12 18.75C13.1958 18.75 14.3156 18.5092 15.1641 18.085C15.9676 17.6832 16.75 16.9893 16.75 16V8L16.7412 7.81836C16.6525 6.92527 15.9175 6.29179 15.1641 5.91504C14.3156 5.49082 13.1958 5.25 12 5.25C10.8042 5.25 9.68438 5.49082 8.83594 5.91504C8.03242 6.31685 7.25 7.01068 7.25 8L7.25 16C7.25 16.9893 8.03242 17.6832 8.83594 18.085C9.68438 18.5092 10.8042 18.75 12 18.75ZM12 13.25C10.9866 13.25 10.1061 13.0428 9.50684 12.7432C8.86289 12.4211 8.75 12.1152 8.75 12V10.0381C8.77897 10.0534 8.80688 10.0704 8.83594 10.085C9.68438 10.5092 10.8042 10.75 12 10.75C13.1958 10.75 14.3156 10.5092 15.1641 10.085C15.1931 10.0704 15.221 10.0534 15.25 10.0381L15.25 12C15.25 12.1152 15.1371 12.4211 14.4932 12.7432C13.8939 13.0428 13.0134 13.25 12 13.25ZM12 17.25C10.9866 17.25 10.1061 17.0428 9.50684 16.7432C8.86289 16.4211 8.75 16.1152 8.75 16V14.0381C8.77897 14.0534 8.80688 14.0704 8.83594 14.085C9.68438 14.5092 10.8042 14.75 12 14.75C13.1958 14.75 14.3156 14.5092 15.1641 14.085C15.1931 14.0704 15.221 14.0534 15.25 14.0381V16C15.25 16.1152 15.1371 16.4211 14.4932 16.7432C13.8939 17.0428 13.0134 17.25 12 17.25Z" fill="#141B34"/>
<path d="M21.25 6V3.81055L18.5303 6.53027C18.2374 6.82317 17.7626 6.82317 17.4697 6.53027C17.1768 6.23738 17.1768 5.76262 17.4697 5.46973L20.1895 2.75H18C17.5858 2.75 17.25 2.41421 17.25 2C17.25 1.58579 17.5858 1.25 18 1.25H22C22.4142 1.25 22.75 1.58579 22.75 2V6C22.75 6.41421 22.4142 6.75 22 6.75C21.5858 6.75 21.25 6.41421 21.25 6Z" fill="#141B34"/>
<path d="M1.25 6V2C1.25 1.58579 1.58579 1.25 2 1.25H6C6.41421 1.25 6.75 1.58579 6.75 2C6.75 2.41421 6.41421 2.75 6 2.75H3.81055L6.53027 5.46973C6.82317 5.76262 6.82317 6.23738 6.53027 6.53027C6.23738 6.82317 5.76262 6.82317 5.46973 6.53027L2.75 3.81055V6C2.75 6.41421 2.41421 6.75 2 6.75C1.58579 6.75 1.25 6.41421 1.25 6Z" fill="#141B34"/>
<path d="M17.4697 17.4697C17.7626 17.1768 18.2374 17.1768 18.5303 17.4697L21.25 20.1895V18C21.25 17.5858 21.5858 17.25 22 17.25C22.4142 17.25 22.75 17.5858 22.75 18V22C22.75 22.4142 22.4142 22.75 22 22.75H18C17.5858 22.75 17.25 22.4142 17.25 22C17.25 21.5858 17.5858 21.25 18 21.25H20.1895L17.4697 18.5303C17.1768 18.2374 17.1768 17.7626 17.4697 17.4697Z" fill="#141B34"/>
<path d="M5.46973 17.4697C5.76262 17.1768 6.23738 17.1768 6.53027 17.4697C6.82317 17.7626 6.82317 18.2374 6.53027 18.5303L3.81055 21.25H6C6.41421 21.25 6.75 21.5858 6.75 22C6.75 22.4142 6.41421 22.75 6 22.75H2C1.58579 22.75 1.25 22.4142 1.25 22V18C1.25 17.5858 1.58579 17.25 2 17.25C2.41421 17.25 2.75 17.5858 2.75 18V20.1895L5.46973 17.4697Z" fill="#141B34"/>
</svg>
