<svg width="24" height="24" viewBox="0 0 24 24" fill="none" xmlns="http://www.w3.org/2000/svg">
<path d="M11.25 6C11.25 5.0335 10.4665 4.25 9.5 4.25H6.5C5.5335 4.25 4.75 5.0335 4.75 6V18C4.75 18.9665 5.5335 19.75 6.5 19.75H9.5C10.4665 19.75 11.25 18.9665 11.25 18V6Z" fill="#141B34"/>
<path fill-rule="evenodd" clip-rule="evenodd" d="M2.25 2C1.69772 2 1.25 2.44772 1.25 3V21C1.25 21.5523 1.69772 22 2.25 22C2.80228 22 3.25 21.5523 3.25 21V3C3.25 2.44772 2.80228 2 2.25 2Z" fill="#141B34"/>
<path fill-rule="evenodd" clip-rule="evenodd" d="M13.75 2C13.1977 2 12.75 2.44772 12.75 3V21C12.75 21.5523 13.1977 22 13.75 22C14.3023 22 14.75 21.5523 14.75 21V3C14.75 2.44772 14.3023 2 13.75 2Z" fill="#141B34"/>
<path d="M22.75 9C22.75 8.0335 21.9665 7.25 21 7.25H18C17.0335 7.25 16.25 8.0335 16.25 9V15C16.25 15.9665 17.0335 16.75 18 16.75H21C21.9665 16.75 22.75 15.9665 22.75 15V9Z" fill="#141B34"/>
</svg>
