<svg width="24" height="24" viewBox="0 0 24 24" fill="none" xmlns="http://www.w3.org/2000/svg">
<path fill-rule="evenodd" clip-rule="evenodd" d="M2.54295 2.54289C2.93348 2.15237 3.56664 2.15237 3.95717 2.54289L21.4572 20.0429C21.8477 20.4334 21.8477 21.0666 21.4572 21.4571C21.0666 21.8476 20.4335 21.8476 20.043 21.4571L2.54295 3.95711C2.15243 3.56658 2.15243 2.93342 2.54295 2.54289Z" fill="#141B34"/>
<path d="M8.99346 8.99333L3.96417 14.0227C3.56395 14.423 3.29697 14.9369 3.19966 15.4945L2.26136 20.8711C2.21937 21.1117 2.29717 21.3576 2.46987 21.5303C2.64257 21.703 2.88855 21.7808 3.12914 21.7388L8.50606 20.8004C9.06361 20.7031 9.57757 20.4361 9.97778 20.0359L15.0068 15.0067L8.99346 8.99333Z" fill="#141B34"/>
<path d="M16.7746 13.2389L18.4765 11.537L12.4631 5.5236L10.7612 7.22555L16.7746 13.2389Z" fill="#141B34"/>
<path d="M21.0911 8.92233L19.5372 10.4763L13.5238 4.46293L15.0777 2.90901C15.9563 2.03034 17.3809 2.03033 18.2596 2.90898L21.0911 5.74032C21.9698 6.61899 21.9698 8.04364 21.0911 8.92233Z" fill="#141B34"/>
</svg>
