<svg width="24" height="24" viewBox="0 0 24 24" fill="none" xmlns="http://www.w3.org/2000/svg">
<path d="M15 18.75C15.9665 18.75 16.75 17.9665 16.75 17V14.75H18.25V17C18.25 17.9665 19.0335 18.75 20 18.75H21C21.9665 18.75 22.75 17.9665 22.75 17V9C22.75 8.0335 21.9665 7.25 21 7.25H20C19.0335 7.25 18.25 8.0335 18.25 9V10.25L16.75 10.25V9C16.75 8.0335 15.9665 7.25 15 7.25H11.25V5.75H14C14.4142 5.75 14.75 5.41421 14.75 5C14.75 4.58579 14.4142 4.25 14 4.25H7C6.58579 4.25 6.25 4.58579 6.25 5C6.25 5.41421 6.58579 5.75 7 5.75H9.75V7.25L6 7.25C5.0335 7.25 4.25 8.0335 4.25 9V11.25H2.75L2.75 9C2.75 8.58579 2.41421 8.25 2 8.25C1.58579 8.25 1.25 8.58579 1.25 9L1.25 15C1.25 15.4142 1.58579 15.75 2 15.75C2.41421 15.75 2.75 15.4142 2.75 15V12.75H4.25L4.25 15.4648C4.25001 16.05 4.54246 16.5963 5.0293 16.9209L7.33203 18.4561C7.61949 18.6477 7.95725 18.75 8.30273 18.75L15 18.75Z" fill="#141B34"/>
</svg>
