<svg width="24" height="24" viewBox="0 0 24 24" fill="none" xmlns="http://www.w3.org/2000/svg">
<path d="M6.04492 3C6.06092 3.00073 6.07684 3.00241 6.09277 3.00391C6.09797 3.00438 6.10322 3.00433 6.1084 3.00488C6.13826 3.00815 6.1678 3.01361 6.19727 3.01953C6.19921 3.01992 6.20119 3.02011 6.20312 3.02051C6.23113 3.02631 6.25868 3.03381 6.28613 3.04199C6.29157 3.04361 6.29733 3.04419 6.30273 3.0459C6.32589 3.05323 6.34846 3.06227 6.37109 3.07129C6.3798 3.07477 6.38888 3.07734 6.39746 3.08105C6.55192 3.14772 6.69158 3.25437 6.7998 3.39844C6.80732 3.40844 6.81323 3.4195 6.82031 3.42969C6.82511 3.43658 6.83033 3.44318 6.83496 3.4502C6.86446 3.49498 6.88967 3.5413 6.91113 3.58887C6.91839 3.60493 6.92522 3.62119 6.93164 3.6377C6.93793 3.65389 6.94382 3.67012 6.94922 3.68652C6.95148 3.69336 6.95394 3.70013 6.95605 3.70703C6.96414 3.73352 6.97075 3.76024 6.97656 3.78711C6.97866 3.79677 6.97963 3.80664 6.98145 3.81641C6.985 3.83563 6.98879 3.85469 6.99121 3.87402C6.99317 3.88956 6.99486 3.90515 6.99609 3.9209C6.9976 3.94044 6.99866 3.95994 6.99902 3.97949C6.99916 3.98632 7 3.99314 7 4V8C7 8.55228 6.55228 9 6 9C5.44772 9 5 8.55228 5 8V6.34766C3.75004 7.89346 3 9.85834 3 12C3 16.9706 7.02944 21 12 21C12.6176 21 13.2198 20.9382 13.8008 20.8203C14.3419 20.7105 14.8705 21.0595 14.9805 21.6006C15.0903 22.1418 14.7403 22.6703 14.1992 22.7803C13.4879 22.9247 12.7521 23 12 23C5.92487 23 1 18.0751 1 12C1 9.3403 1.94541 6.90151 3.51562 5H2C1.44772 5 1 4.55228 1 4C1 3.44772 1.44772 3 2 3H6.04492ZM12 1C18.0751 1 23 5.92487 23 12C23 14.6597 22.0546 17.0985 20.4844 19H22C22.5523 19 23 19.4477 23 20C23 20.5523 22.5523 21 22 21H18C17.9931 21 17.9863 20.9992 17.9795 20.999C17.9632 20.9987 17.9469 20.9973 17.9307 20.9961C17.912 20.9948 17.8934 20.9935 17.875 20.9912C17.8609 20.9894 17.847 20.9868 17.833 20.9844C17.8136 20.9811 17.7944 20.978 17.7754 20.9736C17.7665 20.9716 17.7578 20.9691 17.749 20.9668C17.7255 20.9607 17.7025 20.954 17.6797 20.9463C17.6735 20.9442 17.6672 20.9426 17.6611 20.9404C17.6359 20.9313 17.6112 20.9212 17.5869 20.9102C17.5816 20.9078 17.5766 20.9048 17.5713 20.9023C17.5487 20.8916 17.5265 20.8805 17.5049 20.8682C17.4979 20.8642 17.4913 20.8596 17.4844 20.8555C17.4628 20.8424 17.4414 20.8291 17.4209 20.8145C17.4135 20.8092 17.4067 20.8033 17.3994 20.7979C17.3803 20.7835 17.3617 20.7686 17.3438 20.7529C17.3389 20.7487 17.3339 20.7446 17.3291 20.7402C17.3117 20.7244 17.2946 20.7084 17.2783 20.6914C17.268 20.6806 17.2579 20.6695 17.248 20.6582C17.234 20.6422 17.221 20.6253 17.208 20.6084C17.2059 20.6057 17.2032 20.6033 17.2012 20.6006C17.1988 20.5974 17.1967 20.594 17.1943 20.5908C17.1792 20.5702 17.1649 20.5491 17.1514 20.5273C17.146 20.5186 17.1409 20.5098 17.1357 20.501C17.0912 20.4243 17.0562 20.3417 17.0332 20.2539C17.0312 20.2464 17.0291 20.239 17.0273 20.2314C17.0097 20.1571 17 20.0797 17 20V16C17 15.4477 17.4477 15 18 15C18.5523 15 19 15.4477 19 16V17.6514C20.2497 16.1057 21 14.1414 21 12C21 7.02944 16.9706 3 12 3C11.3824 3 10.7802 3.06177 10.1992 3.17969C9.65809 3.28953 9.12955 2.94047 9.01953 2.39941C8.90968 1.85824 9.25966 1.32969 9.80078 1.21973C10.5121 1.07533 11.2479 1 12 1ZM12 5C12.5523 5 13 5.44772 13 6V7H15C15.5523 7 16 7.44772 16 8C16 8.55228 15.5523 9 15 9H13V11C14.6569 11 16 12.3431 16 14C16 15.6569 14.6569 17 13 17V18C13 18.5523 12.5523 19 12 19C11.4477 19 11 18.5523 11 18V17H9C8.44772 17 8 16.5523 8 16C8 15.4477 8.44772 15 9 15H11V13C9.34315 13 8 11.6569 8 10C8 8.34315 9.34315 7 11 7V6C11 5.44772 11.4477 5 12 5ZM13 15C13.5523 15 14 14.5523 14 14C14 13.4477 13.5523 13 13 13V15ZM11 9C10.4477 9 10 9.44772 10 10C10 10.5523 10.4477 11 11 11V9Z" fill="#141B34"/>
</svg>
