<svg width="24" height="24" viewBox="0 0 24 24" fill="none" xmlns="http://www.w3.org/2000/svg">
<path d="M18.9995 2.25C20.5183 2.25 21.7495 3.48122 21.7495 5V19C21.7495 20.5188 20.5183 21.75 18.9995 21.75H4.99951C3.48073 21.75 2.24951 20.5188 2.24951 19V5C2.24951 3.48122 3.48073 2.25 4.99951 2.25H18.9995ZM14.5005 6.75C13.6646 6.75 12.8771 7.02029 12.0005 7.7832C11.124 7.02026 10.3363 6.75011 9.50049 6.75C7.56087 6.75 6.25049 8.39961 6.25049 10.25C6.25049 11.2174 6.64112 12.1348 7.15088 12.9287C7.66432 13.7282 8.33582 14.4605 8.98584 15.0732C9.63877 15.6887 10.2889 16.2018 10.7739 16.5596C11.0169 16.7388 11.5981 17.1328 11.5981 17.1328L11.6929 17.1846C11.9206 17.2868 12.1891 17.2692 12.4038 17.1328L12.4077 17.1299C12.5558 17.0293 12.9867 16.7369 13.2271 16.5596C13.7121 16.2017 14.3623 15.6887 15.0151 15.0732C15.6651 14.4605 16.3367 13.7282 16.8501 12.9287C17.3598 12.1349 17.7505 11.2173 17.7505 10.25C17.7505 8.39976 16.4398 6.75028 14.5005 6.75Z" fill="#141B34"/>
</svg>
