<svg width="24" height="24" viewBox="0 0 24 24" fill="none" xmlns="http://www.w3.org/2000/svg">
<path fill-rule="evenodd" clip-rule="evenodd" d="M10.8286 0.999989C10.034 0.999989 9.2719 1.31522 8.70947 1.8765L2.88085 7.69317C2.31691 8.25596 2 9.01995 2 9.81666V20.0015C2 21.6584 3.34314 23.0015 5 23.0015H12C12.5523 23.0015 13 22.5538 13 22.0015C13 21.4492 12.5523 21.0015 12 21.0015H5C4.44772 21.0015 4 20.5538 4 20.0015V10.0015H8C9.65685 10.0015 11 8.65831 11 7.00145V2.99999H18C18.5523 2.99999 19 3.4477 19 3.99999V8.98703C19 9.53932 19.4477 9.98703 20 9.98703C20.5523 9.98703 21 9.53932 21 8.98703V3.99999C21 2.34313 19.6569 0.999989 18 0.999989H10.8286Z" fill="#141B34"/>
<path fill-rule="evenodd" clip-rule="evenodd" d="M14.7868 12.023C15.3264 11.9053 15.8593 12.2473 15.977 12.7869C16.1005 13.3529 16.675 14.4942 18 15.3454C19.3249 14.4942 19.8995 13.3529 20.0229 12.7869C20.1407 12.2473 20.6735 11.9053 21.2131 12.023C21.7527 12.1407 22.0947 12.6736 21.977 13.2132C21.7366 14.3152 20.8235 15.9396 19 17.0794V17.6828H20.5C21.0523 17.6828 21.5 18.1305 21.5 18.6828C21.5 19.235 21.0523 19.6828 20.5 19.6828H19V22.0003C19 22.5525 18.5523 23.0003 18 23.0003C17.4477 23.0003 17 22.5525 17 22.0003V19.6828H15.5C14.9477 19.6828 14.5 19.235 14.5 18.6828C14.5 18.1305 14.9477 17.6828 15.5 17.6828H17V17.0794C15.1765 15.9396 14.2634 14.3152 14.0229 13.2132C13.9052 12.6736 14.2472 12.1407 14.7868 12.023Z" fill="#141B34"/>
</svg>
