<svg width="24" height="24" viewBox="0 0 24 24" fill="none" xmlns="http://www.w3.org/2000/svg">
<path d="M21 5C21.5523 5 22 5.44772 22 6C22 6.55228 21.5523 7 21 7H3C2.44772 7 2 6.55228 2 6C2 5.44772 2.44772 5 3 5H21Z" fill="#141B34"/>
<path d="M11 11C11.5523 11 12 11.4477 12 12C12 12.5523 11.5523 13 11 13H6C5.44772 13 5 12.5523 5 12C5 11.4477 5.44772 11 6 11H11Z" fill="#141B34"/>
<path d="M20.293 11.293C20.6835 10.9024 21.3166 10.9024 21.7071 11.293C22.0976 11.6835 22.0976 12.3165 21.7071 12.707L19.4141 15L21.7071 17.293C22.0976 17.6835 22.0976 18.3165 21.7071 18.707C21.3166 19.0975 20.6835 19.0975 20.293 18.707L18 16.414L15.7071 18.707C15.3166 19.0975 14.6835 19.0975 14.293 18.707C13.9025 18.3165 13.9025 17.6835 14.293 17.293L16.586 15L14.293 12.707C13.9025 12.3165 13.9025 11.6835 14.293 11.293C14.6835 10.9024 15.3166 10.9024 15.7071 11.293L18 13.5859L20.293 11.293Z" fill="#141B34"/>
<path d="M11 17C11.5523 17 12 17.4477 12 18C12 18.5523 11.5523 19 11 19H9C8.44772 19 8 18.5523 8 18C8 17.4477 8.44772 17 9 17H11Z" fill="#141B34"/>
</svg>
