<svg width="24" height="24" viewBox="0 0 24 24" fill="none" xmlns="http://www.w3.org/2000/svg">
<path fill-rule="evenodd" clip-rule="evenodd" d="M17.85 22.75C20.0039 22.75 21.75 21.0586 21.75 18.9722C21.75 18.4506 21.3135 18.0278 20.775 18.0278C20.2365 18.0278 19.8 18.4506 19.8 18.9722C19.8 20.0154 18.927 20.8611 17.85 20.8611C17.3115 20.8611 16.875 21.284 16.875 21.8056C16.875 22.3272 17.3115 22.75 17.85 22.75ZM20.775 17.0833C21.3135 17.0833 21.75 16.6605 21.75 16.1389V14.1944C21.75 13.6728 21.3135 13.25 20.775 13.25C20.2365 13.25 19.8 13.6728 19.8 14.1944V16.1389C19.8 16.6605 20.2365 17.0833 20.775 17.0833ZM14.925 21.8056C14.925 21.284 14.4885 20.8611 13.95 20.8611H10.05C9.51152 20.8611 9.075 21.284 9.075 21.8056C9.075 22.3272 9.51152 22.75 10.05 22.75H13.95C14.4885 22.75 14.925 22.3272 14.925 21.8056ZM7.125 21.8056C7.125 21.284 6.68848 20.8611 6.15 20.8611C5.07304 20.8611 4.2 20.0154 4.2 18.9722C4.2 18.4506 3.76348 18.0278 3.225 18.0278C2.68652 18.0278 2.25 18.4506 2.25 18.9722C2.25 21.0586 3.99609 22.75 6.15 22.75C6.68848 22.75 7.125 22.3272 7.125 21.8056ZM3.225 17.0833C3.76348 17.0833 4.2 16.6605 4.2 16.1389L4.2 14.1944C4.2 13.6728 3.76348 13.25 3.225 13.25C2.68652 13.25 2.25 13.6728 2.25 14.1944L2.25 16.1389C2.25 16.6605 2.68652 17.0833 3.225 17.0833Z" fill="#141B34"/>
<path d="M20 11.75C20.9665 11.75 21.75 10.9665 21.75 10V5C21.75 2.92893 20.0711 1.25 18 1.25L6 1.25C3.92893 1.25 2.25 2.92893 2.25 5L2.25 10C2.25 10.9665 3.0335 11.75 4 11.75L20 11.75Z" fill="#141B34"/>
</svg>
