<svg width="24" height="24" viewBox="0 0 24 24" fill="none" xmlns="http://www.w3.org/2000/svg">
<path fill-rule="evenodd" clip-rule="evenodd" d="M13.1194 1.95639C12.4704 1.41558 11.5277 1.41558 10.8787 1.95639L8.72754 3.74907L5.49907 3.74907C4.53258 3.74907 3.74908 4.53257 3.74907 5.49907L3.74907 8.72754L1.95639 10.8787C1.41558 11.5277 1.41558 12.4704 1.95639 13.1194L3.74907 15.2706L3.74908 18.4991C3.74908 19.4656 4.53258 20.2491 5.49908 20.2491L8.72754 20.2491L10.8787 22.0418C11.5277 22.5826 12.4704 22.5826 13.1194 22.0418L15.2706 20.2491H18.4991C19.4656 20.2491 20.2491 19.4656 20.2491 18.4991L20.2491 15.2706L22.0417 13.1194C22.5826 12.4704 22.5826 11.5277 22.0418 10.8787L20.2491 8.72754L20.2491 5.49907C20.2491 4.53258 19.4656 3.74907 18.4991 3.74907L15.2706 3.74907L13.1194 1.95639ZM14.229 8.9955C14.2265 8.58129 13.8887 8.24753 13.4745 8.25001C13.0603 8.2525 12.7265 8.5903 12.729 9.0045L12.739 10.6784L12.0303 9.96967C11.7374 9.67678 11.2626 9.67678 10.9697 9.96967C10.6768 10.2626 10.6768 10.7374 10.9697 11.0303L12.75 12.8107V14C12.75 14.1381 12.6381 14.25 12.5 14.25H11C10.5858 14.25 10.25 14.5858 10.25 15C10.25 15.4142 10.5858 15.75 11 15.75H12.5C13.3816 15.75 14.111 15.0981 14.2323 14.25H17.1169C18.0885 14.25 18.6887 13.19 18.1888 12.3569L17.1431 10.6141C16.93 10.2589 16.4693 10.1438 16.1141 10.3569C15.7589 10.57 15.6438 11.0307 15.8569 11.3859L16.6754 12.75H14.25L14.25 12.5L14.229 8.9955ZM9.73813 8.99852C9.73732 8.5843 9.40087 8.24918 8.98665 8.25C8.57244 8.25082 8.23732 8.58727 8.23814 9.00148L8.24802 13.9995C8.24829 14.1378 8.13629 14.25 7.99802 14.25H7C6.58579 14.25 6.25 14.5858 6.25 15C6.25 15.4142 6.58579 15.75 7 15.75H7.99802C8.96587 15.75 9.74993 14.9644 9.74802 13.9965L9.73813 8.99852Z" fill="#141B34"/>
</svg>
