<svg width="24" height="24" viewBox="0 0 24 24" fill="none" xmlns="http://www.w3.org/2000/svg">
<path fill-rule="evenodd" clip-rule="evenodd" d="M4.5 1.25C3.5335 1.25 2.75 2.0335 2.75 3V7C2.75 7.9665 3.5335 8.75 4.5 8.75H6.5V17.5C6.5 19.1569 7.84315 20.5 9.5 20.5H13.75V21C13.75 21.9665 14.5335 22.75 15.5 22.75H19.5C20.4665 22.75 21.25 21.9665 21.25 21V18C21.25 17.0335 20.4665 16.25 19.5 16.25H15.5C14.5335 16.25 13.75 17.0335 13.75 18V18.5H9.5C8.94772 18.5 8.5 18.0523 8.5 17.5V12.5H13.75V13C13.75 13.9665 14.5335 14.75 15.5 14.75H19.5C20.4665 14.75 21.25 13.9665 21.25 13V10C21.25 9.0335 20.4665 8.25 19.5 8.25H15.5C14.5335 8.25 13.75 9.0335 13.75 10V10.5H8.5V8.75H10.5C11.4665 8.75 12.25 7.9665 12.25 7V3C12.25 2.0335 11.4665 1.25 10.5 1.25H4.5Z" fill="#141B34"/>
</svg>
