<svg width="24" height="24" viewBox="0 0 24 24" fill="none" xmlns="http://www.w3.org/2000/svg">
<path fill-rule="evenodd" clip-rule="evenodd" d="M4.67857 1.74902H19.1726L16.2746 5.41597L15.8034 4.96626C14.9044 4.10835 13.4802 4.14164 12.6223 5.04061C11.7644 5.93958 11.7977 7.36381 12.6966 8.22172L14.9549 10.3768C15.413 10.814 16.034 11.0379 16.6656 10.9936C17.2972 10.9493 17.881 10.641 18.2736 10.1442L22.25 5.11259V19.3205C22.25 20.9379 20.9388 22.249 19.3214 22.249H4.67857C3.06117 22.249 1.75 20.9379 1.75 19.3205V4.67759C1.75 3.06019 3.06117 1.74902 4.67857 1.74902ZM8.75001 11.001C9.23023 11.001 9.69078 11.1917 10.0303 11.5313L14 15.501L15.9697 13.5313C16.3092 13.1917 16.7698 13.001 17.25 13.001C17.7302 13.001 18.1908 13.1917 18.5303 13.5313L20.2976 15.2986V19.3205C20.2976 19.8596 19.8606 20.2966 19.3214 20.2966H4.67858C4.13945 20.2966 3.70239 19.8596 3.70239 19.3205V15.2986L7.46968 11.5313C7.80925 11.1917 8.26979 11.001 8.75001 11.001Z" fill="#141B34"/>
<path fill-rule="evenodd" clip-rule="evenodd" d="M21.87 1.96455C22.3033 2.30699 22.377 2.93586 22.0345 3.36916L17.2928 9.36916C17.1183 9.58995 16.8589 9.727 16.5781 9.74668C16.2974 9.76636 16.0214 9.66684 15.8178 9.47256L13.5595 7.31744C13.16 6.93614 13.1452 6.30315 13.5265 5.90361C13.9078 5.50407 14.5408 5.48927 14.9403 5.87056L16.4044 7.26773L20.4654 2.12909C20.8078 1.69578 21.4367 1.62212 21.87 1.96455Z" fill="#141B34"/>
</svg>
