<svg width="24" height="24" viewBox="0 0 24 24" fill="none" xmlns="http://www.w3.org/2000/svg">
<path d="M12 2.25C12.5522 2.25005 13 2.69775 13 3.25C13 3.80225 12.5522 4.24995 12 4.25H4.25C3.69772 4.25 3.25 4.69772 3.25 5.25V12.751H8C8.41421 12.751 8.75 13.0868 8.75 13.501V14.001C8.75026 15.5195 9.98138 16.751 11.5 16.751C13.0186 16.751 14.2497 15.5195 14.25 14.001V13.501C14.25 13.0868 14.5858 12.751 15 12.751H19.751V12C19.7511 11.4478 20.1988 11 20.751 11C21.3032 11 21.7509 11.4478 21.751 12V19.751C21.751 19.7767 21.7506 19.8026 21.75 19.8281V20.001C21.7497 21.5195 20.5186 22.751 19 22.751H4C2.48138 22.751 1.25026 21.5195 1.25 20.001V5.00098C1.25 3.48219 2.48122 2.25098 4 2.25098H4.19531C4.2135 2.25065 4.23174 2.25 4.25 2.25H12ZM18.5 1.25C20.8472 1.25 22.75 3.15279 22.75 5.5C22.75 7.84721 20.8472 9.75 18.5 9.75C16.1528 9.75 14.25 7.84721 14.25 5.5C14.25 3.15279 16.1528 1.25 18.5 1.25Z" fill="#141B34"/>
</svg>
