<svg width="24" height="24" viewBox="0 0 24 24" fill="none" xmlns="http://www.w3.org/2000/svg">
<path fill-rule="evenodd" clip-rule="evenodd" d="M7.25 8C7.25 6.48122 8.48122 5.25 10 5.25C11.5188 5.25 12.75 6.48122 12.75 8L12.75 9.25204C12.75 9.4839 12.6428 9.70273 12.4595 9.84479C12.2763 9.98684 12.0376 10.0362 11.8131 9.97836C11.2344 9.82942 10.627 9.75 10 9.75C9.37299 9.75 8.76563 9.82942 8.18694 9.97836C7.9624 10.0362 7.72374 9.98684 7.54049 9.84479C7.35724 9.70273 7.25 9.4839 7.25 9.25204V8Z" fill="#141B34"/>
<path fill-rule="evenodd" clip-rule="evenodd" d="M22 12C21.7239 12 21.5 12.2239 21.5 12.5V15C21.5 15.9454 20.9725 16.7115 20.3358 17.2048C19.6961 17.7003 18.8563 18 18 18C17.4477 18 17 17.5523 17 17C17 16.4477 17.4477 16 18 16C18.406 16 18.8163 15.852 19.111 15.6237C19.4087 15.3931 19.5 15.1591 19.5 15V12.5C19.5 11.1193 20.6193 10 22 10C22.5523 10 23 10.4477 23 11C23 11.5523 22.5523 12 22 12Z" fill="#141B34"/>
<path fill-rule="evenodd" clip-rule="evenodd" d="M3 9C3 5.13401 6.13401 2 10 2C13.866 2 17 5.13401 17 9V12H15V9C15 6.23858 12.7614 4 10 4C7.23858 4 5 6.23858 5 9V12H3V9Z" fill="#141B34"/>
<path fill-rule="evenodd" clip-rule="evenodd" d="M1.28169 16.25L12 16.25C12.4142 16.25 12.75 16.5858 12.75 17C12.75 17.4142 12.4142 17.75 12 17.75L1.25 17.75L1.25 19C1.25 20.5188 2.48122 21.75 4 21.75L16 21.75C17.5188 21.75 18.75 20.5188 18.75 19L18.75 17C18.75 12.1675 14.8325 8.25 10 8.25C5.42015 8.25 1.66212 11.7686 1.28169 16.25Z" fill="#141B34"/>
</svg>
