<svg width="24" height="24" viewBox="0 0 24 24" fill="none" xmlns="http://www.w3.org/2000/svg">
<path d="M12 1.25C6.06294 1.25 1.25 6.06294 1.25 12C1.25 14.927 2.41976 17.5807 4.31729 19.5192L19.0934 3.92227C17.2005 2.25874 14.718 1.25 12 1.25Z" fill="#141B34"/>
<path d="M20.1492 4.9888L16.7099 8.61919L22.6248 13.6459C22.7072 13.1093 22.75 12.5597 22.75 12C22.75 9.32111 21.7701 6.87108 20.1492 4.9888Z" fill="#141B34"/>
<path d="M22.2385 15.2861L15.6768 9.70971L13.3149 12.2028L20.5103 18.5688C21.2639 17.5939 21.8537 16.4859 22.2385 15.2861Z" fill="#141B34"/>
<path d="M19.5127 19.689L12.2827 13.2924L9.63356 16.0886L16.3008 21.8552C17.5018 21.3303 18.5884 20.5923 19.5127 19.689Z" fill="#141B34"/>
<path d="M14.6592 22.4186L8.60089 17.1787L5.43897 20.5163C7.25428 21.9169 9.52985 22.75 12 22.75C12.9178 22.75 13.8088 22.635 14.6592 22.4186Z" fill="#141B34"/>
</svg>
