<svg width="24" height="24" viewBox="0 0 24 24" fill="none" xmlns="http://www.w3.org/2000/svg">
<path fill-rule="evenodd" clip-rule="evenodd" d="M2.125 5.5C2.125 4.94772 2.57272 4.5 3.125 4.5L12.625 4.5C13.1773 4.5 13.625 4.94772 13.625 5.5C13.625 6.05229 13.1773 6.5 12.625 6.5L3.125 6.5C2.57272 6.5 2.125 6.05228 2.125 5.5Z" fill="#141B34"/>
<path fill-rule="evenodd" clip-rule="evenodd" d="M2.125 12C2.125 11.4477 2.57272 11 3.125 11L12.625 11C13.1773 11 13.625 11.4477 13.625 12C13.625 12.5523 13.1773 13 12.625 13L3.125 13C2.57272 13 2.125 12.5523 2.125 12Z" fill="#141B34"/>
<path fill-rule="evenodd" clip-rule="evenodd" d="M2.125 18.5C2.125 17.9477 2.57272 17.5 3.125 17.5L12.625 17.5C13.1773 17.5 13.625 17.9477 13.625 18.5C13.625 19.0523 13.1773 19.5 12.625 19.5L3.125 19.5C2.57272 19.5 2.125 19.0523 2.125 18.5Z" fill="#141B34"/>
<path fill-rule="evenodd" clip-rule="evenodd" d="M16.7391 15.357C17.0943 15.1439 17.555 15.2591 17.7681 15.6142L18.625 17.0424L19.4819 15.6142C19.695 15.2591 20.1557 15.1439 20.5109 15.357C20.8661 15.5701 20.9812 16.0308 20.7681 16.386L19.9496 17.7501H21.125C21.5392 17.7501 21.875 18.0859 21.875 18.5001C21.875 18.9143 21.5392 19.2501 21.125 19.2501H19.9496L20.7681 20.6142C20.9812 20.9694 20.8661 21.4301 20.5109 21.6432C20.1557 21.8563 19.695 21.7412 19.4819 21.386L18.625 19.9579L17.7681 21.386C17.555 21.7412 17.0943 21.8563 16.7391 21.6432C16.3839 21.4301 16.2688 20.9694 16.4819 20.6142L17.3004 19.2501H16.125C15.7108 19.2501 15.375 18.9143 15.375 18.5001C15.375 18.0859 15.7108 17.7501 16.125 17.7501H17.3004L16.4819 16.386C16.2688 16.0308 16.3839 15.5701 16.7391 15.357Z" fill="#141B34"/>
<path fill-rule="evenodd" clip-rule="evenodd" d="M16.7391 2.35699C17.0943 2.14388 17.555 2.25906 17.7681 2.61424L18.625 4.04238L19.4819 2.61424C19.695 2.25906 20.1557 2.14388 20.5109 2.35699C20.8661 2.5701 20.9812 3.0308 20.7681 3.38599L19.9496 4.75011H21.125C21.5392 4.75011 21.875 5.0859 21.875 5.50011C21.875 5.91433 21.5392 6.25011 21.125 6.25011H19.9496L20.7681 7.61424C20.9812 7.96943 20.8661 8.43012 20.5109 8.64323C20.1557 8.85634 19.695 8.74117 19.4819 8.38599L18.625 6.95785L17.7681 8.38599C17.555 8.74117 17.0943 8.85634 16.7391 8.64323C16.3839 8.43012 16.2688 7.96943 16.4819 7.61424L17.3004 6.25011H16.125C15.7108 6.25011 15.375 5.91433 15.375 5.50011C15.375 5.0859 15.7108 4.75011 16.125 4.75011H17.3004L16.4819 3.38599C16.2688 3.0308 16.3839 2.5701 16.7391 2.35699Z" fill="#141B34"/>
</svg>
