<svg width="24" height="24" viewBox="0 0 24 24" fill="none" xmlns="http://www.w3.org/2000/svg">
<path fill-rule="evenodd" clip-rule="evenodd" d="M12 1.63869C6.92757 1.63869 2.75 5.55704 2.75 10.4694C2.75 13.177 4.07718 15.1756 5.67363 16.8788C6.35837 17.6094 7.11246 18.3059 7.84456 18.982L7.8446 18.982L7.84539 18.9828C7.96133 19.0898 8.07671 19.1964 8.19117 19.3025C9.03952 20.0889 9.84562 20.8573 10.5352 21.6774C11.2845 22.5684 12.7108 22.5982 13.4858 21.7114C14.1933 20.902 15.0081 20.1314 15.8592 19.3359L16.0149 19.1904C16.8086 18.449 17.6288 17.6828 18.3679 16.8743C19.948 15.1457 21.25 13.1257 21.25 10.4694C21.25 5.55704 17.0724 1.63869 12 1.63869ZM12 6.88869C9.79086 6.88869 8 8.67956 8 10.8887C8 13.0978 9.79086 14.8887 12 14.8887C14.2091 14.8887 16 13.0978 16 10.8887C16 8.67956 14.2091 6.88869 12 6.88869Z" fill="#141B34"/>
</svg>
