<svg width="24" height="24" viewBox="0 0 24 24" fill="none" xmlns="http://www.w3.org/2000/svg">
<path d="M13.957 7.29291C13.5664 6.90239 12.9334 6.90239 12.5429 7.29291L8.54289 11.2929C8.15237 11.6834 8.15237 12.3165 8.54289 12.707L12.5429 16.707C12.9334 17.0975 13.5664 17.0975 13.957 16.707C14.3475 16.3165 14.3475 15.6834 13.957 15.2929L11.664 12.9999H20.7499C21.3022 12.9999 21.7499 12.5522 21.7499 11.9999C21.7499 11.4477 21.3022 10.9999 20.7499 10.9999H11.664L13.957 8.70697C14.3475 8.31645 14.3475 7.68344 13.957 7.29291Z" fill="#141B34"/>
<path d="M2.25 12C2.25 6.61522 6.52365 2.25 11.7955 2.25C12.3226 2.25 12.75 2.68652 12.75 3.225C12.75 3.76348 12.3226 4.2 11.7955 4.2C7.57801 4.2 4.15909 7.69218 4.15909 12C4.15909 16.3078 7.57801 19.8 11.7955 19.8C12.3226 19.8 12.75 20.2365 12.75 20.775C12.75 21.3135 12.3226 21.75 11.7955 21.75C6.52365 21.75 2.25 17.3848 2.25 12Z" fill="#141B34"/>
</svg>
