<svg width="24" height="24" viewBox="0 0 24 24" fill="none" xmlns="http://www.w3.org/2000/svg">
<path d="M18 1.75C19.5188 1.75 20.75 2.98122 20.75 4.5V19.5C20.75 21.0188 19.5188 22.25 18 22.25H6C4.48122 22.25 3.25 21.0188 3.25 19.5V4.5C3.25 2.98122 4.48122 1.75 6 1.75H18ZM16.457 7.29297C16.0665 6.90244 15.4335 6.90244 15.043 7.29297C14.6525 7.6835 14.6525 8.31652 15.043 8.70703L17.3359 11H9.25C8.69772 11 8.25 11.4477 8.25 12C8.25004 12.5522 8.69774 13 9.25 13H17.3359L15.043 15.293C14.6525 15.6835 14.6525 16.3165 15.043 16.707C15.4335 17.0975 16.0665 17.0975 16.457 16.707L20.457 12.707C20.8475 12.3165 20.8475 11.6835 20.457 11.293L16.457 7.29297Z" fill="#141B34"/>
</svg>
