<svg width="24" height="24" viewBox="0 0 24 24" fill="none" xmlns="http://www.w3.org/2000/svg">
<path d="M4.74997 2.25L7.24997 2.25C7.80226 2.25 8.24997 2.69772 8.24997 3.25C8.24997 3.80228 7.80225 4.25 7.24997 4.25H4.74997C4.47383 4.25 4.24997 4.47386 4.24997 4.75L4.24997 19.25C4.24997 19.5261 4.47383 19.75 4.74997 19.75H7.24997C7.80225 19.75 8.24997 20.1977 8.24997 20.75C8.24997 21.3023 7.80225 21.75 7.24997 21.75H4.74997C3.45563 21.75 2.39079 20.7664 2.26266 19.5059L2.24997 19.25L2.24997 4.75C2.24997 3.36929 3.36926 2.25 4.74997 2.25Z" fill="#141B34"/>
<path d="M8.25004 11C7.69776 11 7.25004 11.4478 7.25004 12C7.25004 12.5523 7.69776 13 8.25004 13L18.336 13L15.543 15.793C15.1525 16.1835 15.1525 16.8166 15.543 17.2071C15.9335 17.5976 16.5665 17.5976 16.9571 17.2071L21.4571 12.7071C21.8476 12.3166 21.8476 11.6835 21.4571 11.293L16.9571 6.79302C16.5665 6.40249 15.9335 6.40249 15.543 6.79302C15.1769 7.15913 15.1543 7.73813 15.4747 8.13091L15.543 8.20708L18.336 11L8.25004 11Z" fill="#141B34"/>
</svg>
