<svg width="24" height="24" viewBox="0 0 24 24" fill="none" xmlns="http://www.w3.org/2000/svg">
<path fill-rule="evenodd" clip-rule="evenodd" d="M18.6512 14.8493C17.7368 14.6043 16.8086 14.8084 16.0981 15.33C15.6529 15.6568 15.0271 15.5609 14.7003 15.1157C14.3734 14.6705 14.4694 14.0446 14.9146 13.7178C16.0932 12.8525 17.6435 12.5087 19.1688 12.9174C21.8356 13.632 23.4182 16.3731 22.7037 19.0399C22.5607 19.5734 22.0124 19.89 21.4789 19.747L20.0304 19.3589C19.4969 19.216 19.1804 18.6676 19.3233 18.1342C19.4662 17.6007 20.0146 17.2841 20.548 17.4271L20.8657 17.5122C20.7694 16.2806 19.9124 15.1872 18.6512 14.8493ZM13.0463 16.4523C13.1893 15.9188 13.7376 15.6022 14.2711 15.7452L15.7196 16.1333C16.2531 16.2762 16.5697 16.8246 16.4267 17.358C16.2838 17.8915 15.7354 18.2081 15.202 18.0651L14.8843 17.98C14.9806 19.2116 15.8376 20.305 17.0988 20.6429C18.0132 20.8879 18.9414 20.6838 19.6519 20.1622C20.0971 19.8354 20.7229 19.9314 21.0498 20.3765C21.3766 20.8217 21.2806 21.4476 20.8354 21.7744C19.6568 22.6397 18.1065 22.9835 16.5812 22.5748C13.9144 21.8602 12.3318 19.1191 13.0463 16.4523Z" fill="#141B34"/>
<path d="M11.5233 19.128L8.62476 17.8858V1.25381L14.1248 3.61096V12.4377C14.0919 12.4609 14.0593 12.4844 14.0269 12.5081C13.3899 12.9758 13.0389 13.6883 13.0084 14.4209C12.3376 14.7155 11.8018 15.3009 11.5974 16.0635C11.3195 17.1008 11.3089 18.1466 11.5233 19.128Z" fill="#141B34"/>
<path d="M15.6248 11.6485V3.99836H20.8748C21.8413 3.99836 22.6248 4.78186 22.6248 5.74836V13.3085C21.8225 12.4481 20.7771 11.795 19.5571 11.4681C18.2069 11.1063 16.8415 11.1986 15.6248 11.6485Z" fill="#141B34"/>
<path d="M7.12451 1.28496L2.09213 3.80115C1.49926 4.09758 1.12476 4.70354 1.12476 5.3664V17.3609C1.12476 18.5554 2.29497 19.3989 3.42815 19.0211L7.12476 17.7889L7.12451 1.28496Z" fill="#141B34"/>
</svg>
