<svg width="24" height="24" viewBox="0 0 24 24" fill="none" xmlns="http://www.w3.org/2000/svg">
<path fill-rule="evenodd" clip-rule="evenodd" d="M12.875 17.3549C12.875 14.8144 14.9345 12.7549 17.475 12.7549C20.0155 12.7549 22.075 14.8144 22.075 17.3549C22.075 18.2631 21.8118 19.1099 21.3574 19.8231L22.5821 21.0478C22.9726 21.4383 22.9726 22.0715 22.5821 22.462C22.1916 22.8525 21.5584 22.8525 21.1679 22.462L19.9432 21.2373C19.23 21.6916 18.3833 21.9549 17.475 21.9549C14.9345 21.9549 12.875 19.8954 12.875 17.3549ZM17.475 14.7549C16.0391 14.7549 14.875 15.9189 14.875 17.3549C14.875 18.7908 16.0391 19.9549 17.475 19.9549C18.9109 19.9549 20.075 18.7908 20.075 17.3549C20.075 15.9189 18.9109 14.7549 17.475 14.7549Z" fill="#141B34"/>
<path d="M11.6506 19.1737L8.625 17.8771V1.24512L14.125 3.60226V12.2569C12.4684 13.3475 11.375 15.2238 11.375 17.3555C11.375 17.9888 11.4715 18.5995 11.6506 19.1737Z" fill="#141B34"/>
<path d="M15.625 11.5411V3.98966H20.875C21.8415 3.98966 22.625 4.77317 22.625 5.73966V14.0849C21.5425 12.3839 19.6405 11.2555 17.475 11.2555C16.8301 11.2555 16.2085 11.3556 15.625 11.5411Z" fill="#141B34"/>
<path d="M7.125 1.28284L2.09238 3.79245C1.4995 4.08889 1.125 4.69485 1.125 5.3577V17.3522C1.125 18.5467 2.29522 19.3902 3.4284 19.0124L7.125 17.7802V1.28284Z" fill="#141B34"/>
</svg>
