<svg width="24" height="24" viewBox="0 0 24 24" fill="none" xmlns="http://www.w3.org/2000/svg">
<path fill-rule="evenodd" clip-rule="evenodd" d="M15.8176 3.48031C16.0179 3.48271 16.2089 3.56511 16.348 3.70914L19.9033 7.38907C20.0418 7.53243 20.1175 7.72503 20.1137 7.92434C20.11 8.12364 20.027 8.31324 19.8832 8.45127L15.2261 12.9213C14.9316 13.204 14.4651 13.1992 14.1764 12.9105L10.6212 9.35531C10.4799 9.21404 10.4009 9.02224 10.4015 8.82245C10.4022 8.62266 10.4826 8.4314 10.6248 8.29108L15.2819 3.69636C15.4245 3.5557 15.6174 3.47791 15.8176 3.48031ZM9.75 11.0889C9.94891 11.0889 10.1397 11.1679 10.2803 11.3086L12.2803 13.3086C12.5732 13.6015 12.5732 14.0763 12.2803 14.3692L5.28033 21.3692C4.98744 21.6621 4.51256 21.6621 4.21967 21.3692L2.21967 19.3692C2.07902 19.2286 2 19.0378 2 18.8389C2 18.64 2.07902 18.4492 2.21967 18.3086L9.21967 11.3086C9.36032 11.1679 9.55109 11.0889 9.75 11.0889Z" fill="#141B34"/>
<path fill-rule="evenodd" clip-rule="evenodd" d="M4.79559 2.55405C4.88402 2.22696 5.18077 1.99979 5.5196 1.99979C8.24128 1.99979 10.7267 2.44348 12.8846 3.35096C13.123 3.45119 13.2929 3.66713 13.3342 3.92237C13.3756 4.17761 13.2826 4.43614 13.0881 4.60651L10.8111 6.60081C10.5381 6.83991 10.1331 6.84926 9.84932 6.62301C8.35668 5.43277 6.78754 4.3577 5.1417 3.39762C4.84902 3.22689 4.70716 2.88114 4.79559 2.55405ZM19.7532 10.3952C19.9998 10.4437 20.2057 10.6125 20.3017 10.8449C21.1583 12.9197 21.6069 15.3515 21.6069 18.1263C21.6069 18.4619 21.384 18.7566 21.0612 18.848C20.7383 18.9393 20.394 18.8052 20.2182 18.5194C19.1759 16.8257 18.0659 15.2371 16.8884 13.7532C16.6526 13.456 16.6759 13.0294 16.9427 12.7596L19.0752 10.6037C19.252 10.4249 19.5065 10.3467 19.7532 10.3952Z" fill="#141B34"/>
</svg>
