<svg width="24" height="24" viewBox="0 0 24 24" fill="none" xmlns="http://www.w3.org/2000/svg">
<path fill-rule="evenodd" clip-rule="evenodd" d="M1.25 6.28174C1.25 5.13164 2.32779 4.32563 3.41016 4.56104L4.02148 4.68799C4.46159 4.77536 4.87578 4.84615 5.2666 4.90576L10.0674 9.70654C9.41485 10.2569 9 11.0801 9 12.0005C9 13.6573 10.3431 15.0005 12 15.0005C12.9205 15.0005 13.7427 14.5847 14.293 13.9321L19.5273 19.1665C18.5918 19.0012 17.3626 18.8599 16 18.8599C13.6492 18.8599 12.323 19.3029 10.4131 19.5767C8.63913 19.8309 6.59959 19.8813 3.27344 19.1753L2.59082 19.0239C1.79635 18.8403 1.25 18.1291 1.25 17.3286V6.28174ZM2.75 17.3315C2.75 17.4487 2.82913 17.5419 2.92871 17.5649L3.58105 17.7095C4.47848 17.9001 5.27117 18.0318 5.98242 18.1177C5.81383 16.3377 4.4788 14.8976 2.75 14.5698V17.3315ZM3.0918 6.02979C2.90276 5.98868 2.75003 6.13364 2.75 6.28467V8.92529C4.10182 8.64468 5.26117 7.64085 5.73047 6.48877C5.1209 6.41328 4.45971 6.30723 3.73535 6.16357L3.0918 6.02979Z" fill="#141B34"/>
<path fill-rule="evenodd" clip-rule="evenodd" d="M16 4.25049C18.851 4.25049 20.8692 4.79304 21.7979 5.11377C22.415 5.38682 22.75 6.00255 22.75 6.61865V17.4917C22.75 17.9847 22.5485 18.4075 22.2578 18.7231L21.1924 17.6577C21.2317 17.5993 21.25 17.5434 21.25 17.4946V15.0708C20.5735 15.1924 19.9339 15.4741 19.4092 15.8745L14.9404 11.4058C14.7031 10.2257 13.7739 9.29601 12.5938 9.05908L8.66113 5.12646C9.26378 5.10191 9.80432 5.04226 10.3184 4.96533C11.9537 4.72059 13.5636 4.25049 16 4.25049ZM18.5225 5.90283C18.6992 7.49574 19.9032 8.94584 21.25 9.35693V6.62158C21.25 6.53414 21.2044 6.49399 21.1816 6.48486C20.6826 6.3125 19.7963 6.06144 18.5225 5.90283Z" fill="#141B34"/>
<path d="M2.54289 2.54289C2.93342 2.15237 3.56658 2.15237 3.95711 2.54289L21.4571 20.0429C21.8476 20.4334 21.8476 21.0666 21.4571 21.4571C21.0666 21.8476 20.4334 21.8476 20.0429 21.4571L2.54289 3.95711C2.15237 3.56658 2.15237 2.93342 2.54289 2.54289Z" fill="#141B34"/>
</svg>
