<svg width="24" height="24" viewBox="0 0 24 24" fill="none" xmlns="http://www.w3.org/2000/svg">
<path fill-rule="evenodd" clip-rule="evenodd" d="M6.48547 1.24011C6.7403 1.02213 7.08743 0.94638 7.4099 1.0384C8.62921 1.38631 9.72039 2.19671 10.4016 3.38824C10.6857 3.88518 10.8776 4.41208 10.9816 4.94764C11.0869 5.48979 10.7328 6.01466 10.1907 6.11996C9.6485 6.22526 9.12364 5.87112 9.01833 5.32897C8.9554 5.00494 8.83921 4.68497 8.66537 4.38091C8.48314 4.06219 8.25372 3.78948 7.99132 3.56619C7.70341 4.55613 7.05241 5.44263 6.09263 6.0022C5.1318 6.56239 4.04175 6.68952 3.04372 6.44551C3.10317 6.79497 3.22382 7.13975 3.40963 7.46474C3.96811 8.44157 4.97338 8.98914 6.01032 8.99985C6.56258 9.00556 7.00564 9.45788 6.99994 10.0101C6.99423 10.5624 6.54191 11.0055 5.98965 10.9997C4.26545 10.9819 2.59554 10.0704 1.67337 8.45742C0.992402 7.26636 0.844885 5.9114 1.15437 4.67825C1.23625 4.35202 1.47664 4.08881 1.79412 3.97775C2.11161 3.8667 2.46365 3.92269 2.73102 4.12676C3.39721 4.63524 4.32155 4.71968 5.08529 4.27441C5.85109 3.82792 6.24726 2.96944 6.143 2.12214C6.10204 1.78931 6.23064 1.4581 6.48547 1.24011Z" fill="#141B34"/>
<path fill-rule="evenodd" clip-rule="evenodd" d="M8.44743 15.1058C8.94141 15.3528 9.14164 15.9535 8.89465 16.4474L7.89465 18.4474C7.64766 18.9414 7.04698 19.1416 6.55301 18.8946C6.05903 18.6477 5.8588 18.047 6.10579 17.553L7.10579 15.553C7.35278 15.059 7.95345 14.8588 8.44743 15.1058ZM12.9474 15.1058C13.4414 15.3528 13.6416 15.9535 13.3946 16.4474L12.3946 18.4474C12.1477 18.9414 11.547 19.1416 11.053 18.8946C10.559 18.6477 10.3588 18.047 10.6058 17.553L11.6058 15.553C11.8528 15.059 12.4535 14.8588 12.9474 15.1058ZM17.4474 15.1058C17.9414 15.3528 18.1416 15.9535 17.8946 16.4474L16.8946 18.4474C16.6477 18.9414 16.047 19.1416 15.553 18.8946C15.059 18.6477 14.8588 18.047 15.1058 17.553L16.1058 15.553C16.3528 15.059 16.9535 14.8588 17.4474 15.1058ZM9.44743 19.1058C9.94141 19.3528 10.1416 19.9535 9.89465 20.4474L8.89465 22.4474C8.64766 22.9414 8.04698 23.1416 7.55301 22.8946C7.05903 22.6477 6.8588 22.047 7.10579 21.553L8.10579 19.553C8.35278 19.059 8.95345 18.8588 9.44743 19.1058ZM13.9474 19.1058C14.4414 19.3528 14.6416 19.9535 14.3946 20.4474L13.3946 22.4474C13.1477 22.9414 12.547 23.1416 12.053 22.8946C11.559 22.6477 11.3588 22.047 11.6058 21.553L12.6058 19.553C12.8528 19.059 13.4535 18.8588 13.9474 19.1058Z" fill="#141B34"/>
<path d="M1.25 15.002C1.25 12.2189 3.22664 9.89838 5.853 9.36649C6.38731 6.45652 8.93585 4.25195 12 4.25195C15.3858 4.25195 18.1428 6.94419 18.2469 10.3047C20.7927 10.6673 22.75 12.856 22.75 15.502C22.75 18.4014 20.3995 20.752 17.5 20.752H15.8886C15.9151 20.6684 15.9369 20.5842 15.9542 20.4996C16.8883 20.5176 17.7945 20.0088 18.2402 19.1175L19.2402 17.1175C19.8577 15.8826 19.3571 14.3809 18.1222 13.7634C16.8872 13.1459 15.3855 13.6465 14.7681 14.8815L14.7541 14.9094C14.5221 14.4297 14.1356 14.0201 13.6222 13.7634C12.3872 13.1459 10.8855 13.6465 10.2681 14.8815L10.2541 14.9094C10.0221 14.4297 9.6356 14.0201 9.12216 13.7634C7.88721 13.1459 6.38553 13.6465 5.76806 14.8815L4.76806 16.8815C4.15058 18.1164 4.65114 19.6181 5.88609 20.2356C5.94122 20.2631 5.99689 20.2885 6.05298 20.3116L5.88666 20.6442C3.24384 20.1257 1.25 17.7967 1.25 15.002Z" fill="#141B34"/>
</svg>
