<svg width="24" height="24" viewBox="0 0 24 24" fill="none" xmlns="http://www.w3.org/2000/svg">
<path d="M6.00049 7.75C6.96699 7.75 7.75049 6.9665 7.75049 6C7.75049 5.0335 6.96699 4.25 6.00049 4.25C5.03399 4.25 4.25049 5.0335 4.25049 6C4.25049 6.9665 5.03399 7.75 6.00049 7.75Z" fill="#141B34"/>
<path d="M6.00049 13.75C6.96699 13.75 7.75049 12.9665 7.75049 12C7.75049 11.0335 6.96699 10.25 6.00049 10.25C5.03399 10.25 4.25049 11.0335 4.25049 12C4.25049 12.9665 5.03399 13.75 6.00049 13.75Z" fill="#141B34"/>
<path d="M6.00049 19.75C6.96699 19.75 7.75049 18.9665 7.75049 18C7.75049 17.0335 6.96699 16.25 6.00049 16.25C5.03399 16.25 4.25049 17.0335 4.25049 18C4.25049 18.9665 5.03399 19.75 6.00049 19.75Z" fill="#141B34"/>
<path d="M18.0005 7.75C18.967 7.75 19.7505 6.9665 19.7505 6C19.7505 5.0335 18.967 4.25 18.0005 4.25C17.034 4.25 16.2505 5.0335 16.2505 6C16.2505 6.9665 17.034 7.75 18.0005 7.75Z" fill="#141B34"/>
<path d="M18.0005 13.75C18.967 13.75 19.7505 12.9665 19.7505 12C19.7505 11.0335 18.967 10.25 18.0005 10.25C17.034 10.25 16.2505 11.0335 16.2505 12C16.2505 12.9665 17.034 13.75 18.0005 13.75Z" fill="#141B34"/>
<path d="M12.0005 13.75C12.967 13.75 13.7505 12.9665 13.7505 12C13.7505 11.0335 12.967 10.25 12.0005 10.25C11.034 10.25 10.2505 11.0335 10.2505 12C10.2505 12.9665 11.034 13.75 12.0005 13.75Z" fill="#141B34"/>
<path d="M12.0005 7.75C12.967 7.75 13.7505 6.9665 13.7505 6C13.7505 5.0335 12.967 4.25 12.0005 4.25C11.034 4.25 10.2505 5.0335 10.2505 6C10.2505 6.9665 11.034 7.75 12.0005 7.75Z" fill="#141B34"/>
<path d="M18.0005 19.75C18.967 19.75 19.7505 18.9665 19.7505 18C19.7505 17.0335 18.967 16.25 18.0005 16.25C17.034 16.25 16.2505 17.0335 16.2505 18C16.2505 18.9665 17.034 19.75 18.0005 19.75Z" fill="#141B34"/>
<path d="M12.0005 19.75C12.967 19.75 13.7505 18.9665 13.7505 18C13.7505 17.0335 12.967 16.25 12.0005 16.25C11.034 16.25 10.2505 17.0335 10.2505 18C10.2505 18.9665 11.034 19.75 12.0005 19.75Z" fill="#141B34"/>
</svg>
