<svg width="24" height="24" viewBox="0 0 24 24" fill="none" xmlns="http://www.w3.org/2000/svg">
<path fill-rule="evenodd" clip-rule="evenodd" d="M20.5 8.75C20.9142 8.75 21.25 9.08579 21.25 9.5V16.3458L22.6245 19.5476C23.0623 20.5676 22.3055 21.75 21.1714 21.75H19.8285C18.6944 21.75 17.9376 20.5676 18.3754 19.5476L19.75 16.3458V9.5C19.75 9.08579 20.0857 8.75 20.5 8.75Z" fill="#141B34"/>
<path fill-rule="evenodd" clip-rule="evenodd" d="M11.7718 2.26659C11.9242 2.24447 12.0748 2.24447 12.2272 2.26659C13.7892 2.49325 15.6895 3.25556 17.4248 4.09079C19.1777 4.93446 20.8329 5.88771 21.9242 6.54595C23.0246 7.20973 23.0246 8.79027 21.9242 9.45405C20.8329 10.1123 19.1777 11.0655 17.4248 11.9092C15.6895 12.7444 13.7892 13.5068 12.2272 13.7334C12.0748 13.7555 11.9242 13.7555 11.7718 13.7334C10.2098 13.5068 8.30954 12.7444 6.57421 11.9092C4.82135 11.0655 3.16612 10.1123 2.07485 9.45405C0.974399 8.79027 0.974399 7.20973 2.07485 6.54595C3.16612 5.88771 4.82135 4.93446 6.57421 4.09079C8.30954 3.25556 10.2098 2.49325 11.7718 2.26659Z" fill="#141B34"/>
<path d="M5.58545 13.0977L6.25637 17.1232C6.28675 17.3055 6.38402 17.4706 6.52832 17.5861L6.52922 17.5868L6.53173 17.5888L6.53947 17.5949L6.56572 17.6154C6.58793 17.6326 6.61948 17.6567 6.65975 17.6868C6.74026 17.7469 6.85589 17.8309 7.00171 17.9309C7.29271 18.1305 7.70733 18.3958 8.20572 18.6616C9.1854 19.1841 10.565 19.7499 11.9962 19.7499C13.4273 19.7499 14.8069 19.1841 15.7866 18.6616C16.285 18.3958 16.6996 18.1305 16.9906 17.9309C17.1364 17.8309 17.2521 17.7469 17.3326 17.6868C17.3729 17.6567 17.4044 17.6326 17.4266 17.6154L17.4529 17.5949L17.4606 17.5888L17.4631 17.5868L17.4647 17.5855C17.609 17.4701 17.7056 17.3055 17.736 17.1232L18.4069 13.0977C18.2958 13.1524 18.1841 13.2067 18.0721 13.2607C16.3128 14.1074 14.2402 14.9564 12.4393 15.2177C12.144 15.2606 11.8484 15.2606 11.5531 15.2177C9.75223 14.9564 7.67962 14.1074 5.92039 13.2607C5.80828 13.2067 5.69659 13.1523 5.58545 13.0977Z" fill="#141B34"/>
</svg>
