<svg width="24" height="24" viewBox="0 0 24 24" fill="none" xmlns="http://www.w3.org/2000/svg">
<path d="M11.25 5.27515C8.86192 5.43801 7.2136 6.39294 6.17746 7.93494C5.07617 9.57389 4.75 11.7583 4.75 14.0002C4.75 16.2422 5.07617 18.4266 6.17746 20.0656C7.31874 21.764 9.20274 22.7502 12 22.7502C14.7972 22.7502 16.6812 21.764 17.8225 20.0656C18.9238 18.4266 19.25 16.2422 19.25 14.0002C19.25 11.7583 18.9238 9.5739 17.8225 7.93494C16.7864 6.39296 15.1381 5.43802 12.75 5.27515V8.26797C13.5981 8.38928 14.25 9.11863 14.25 10.0003V12.0003C14.25 12.9667 13.4665 13.7502 12.5 13.7502H11.5C10.5335 13.7502 9.75 12.9667 9.75 12.0003V10.0003C9.75 9.11863 10.4019 8.38928 11.25 8.26797V5.27515Z" fill="#141B34"/>
<path d="M11.25 10.0003C11.25 9.86218 11.3619 9.75025 11.5 9.75025H12.5C12.6381 9.75025 12.75 9.86218 12.75 10.0003V12.0003C12.75 12.1383 12.6381 12.2503 12.5 12.2503H11.5C11.3619 12.2503 11.25 12.1383 11.25 12.0003V10.0003Z" fill="#141B34"/>
<path d="M6.75 1.99976C6.75 1.58554 6.41421 1.24976 6 1.24976C5.58579 1.24976 5.25 1.58554 5.25 1.99976V2.49976C5.25 3.46625 6.0335 4.24976 7 4.24976H11C11.1381 4.24976 11.25 4.36168 11.25 4.49976V5.27465C11.4923 5.25813 11.7423 5.24976 12 5.24976C12.2577 5.24976 12.5077 5.25813 12.75 5.27466V4.49976C12.75 3.53326 11.9665 2.74976 11 2.74976H7C6.86193 2.74976 6.75 2.63783 6.75 2.49976V1.99976Z" fill="#141B34"/>
</svg>
