<svg width="24" height="24" viewBox="0 0 24 24" fill="none" xmlns="http://www.w3.org/2000/svg">
<path d="M11.9979 2.25C12.3397 2.25 12.6765 2.27474 13.0067 2.32129C13.0759 3.45711 14.0167 4.37487 15.1854 4.375L13.5009 6.41602C12.962 7.06897 12.8504 7.97354 13.204 8.73633C13.5591 9.50135 14.3257 9.9999 15.1786 10H19.3827L20.6708 18.2803C20.7085 18.4924 20.746 18.7226 20.746 18.9014C20.7261 19.6589 20.3101 20.2701 19.8094 20.7158C19.2952 21.1735 18.6061 21.5411 17.8387 21.8301C16.2965 22.4107 14.2312 22.75 11.9979 22.75C9.76461 22.75 7.6993 22.4107 6.1571 21.8301C5.38972 21.5411 4.70062 21.1735 4.1864 20.7158C3.68572 20.2701 3.26979 19.6589 3.24988 18.9014C3.24989 18.7226 3.28721 18.469 3.32507 18.2803L4.86511 8.37988L4.92371 8.05176C5.60399 4.69122 8.55218 2.25003 11.9979 2.25ZM11.9979 16.8945C9.93598 16.8945 8.11247 17.2103 6.83972 17.6895C6.20001 17.9303 5.74938 18.1937 5.47644 18.4365C5.28284 18.5779 4.99858 18.8756 5.47644 19.2559C5.74934 19.4988 6.19985 19.762 6.83972 20.0029C8.11248 20.4821 9.93591 20.7988 11.9979 20.7988C14.0599 20.7988 15.8834 20.4822 17.1561 20.0029C17.796 19.762 18.2465 19.4988 18.5194 19.2559C18.9929 18.8865 18.7174 18.5755 18.5194 18.4365C18.2465 18.1937 17.7958 17.9303 17.1561 17.6895C15.8834 17.2103 14.0599 16.8945 11.9979 16.8945ZM12.9979 17.8477C13.5501 17.8478 13.9979 18.2955 13.9979 18.8477C13.9979 19.3999 13.5501 19.8475 12.9979 19.8477H10.9979C10.4456 19.8477 9.99792 19.3999 9.99792 18.8477C9.99792 18.2954 10.4456 17.8477 10.9979 17.8477H12.9979ZM19.955 1.25977C20.2611 1.30457 20.5283 1.50192 20.662 1.79004C20.7956 2.07824 20.7751 2.4126 20.6132 2.67871L20.535 2.78809L17.162 6.875H19.8212L19.9169 6.87988C20.3849 6.92807 20.7499 7.32722 20.7499 7.8125C20.7499 8.29778 20.3849 8.69693 19.9169 8.74512L19.8212 8.75H15.1786C14.8183 8.74996 14.4906 8.53935 14.3378 8.20996C14.1851 7.88063 14.2342 7.49131 14.4647 7.21191L17.8387 3.125H15.1786C14.6658 3.12494 14.2499 2.70523 14.2499 2.1875C14.2499 1.66977 14.6658 1.25006 15.1786 1.25H19.8212L19.955 1.25977Z" fill="#141B34"/>
</svg>
