<svg width="24" height="24" viewBox="0 0 24 24" fill="none" xmlns="http://www.w3.org/2000/svg">
<path fill-rule="evenodd" clip-rule="evenodd" d="M20.2812 22.7354C21.6679 22.5945 22.75 21.4238 22.75 20V14C22.75 12.4812 21.5188 11.25 20 11.25H10C8.48122 11.25 7.25 12.4812 7.25 14V20C7.25 21.5188 8.48122 22.75 10 22.75H20L20.2812 22.7354ZM20.207 17.1465L20.1074 17.0566C19.8666 16.8594 19.564 16.75 19.25 16.75C18.936 16.75 18.6334 16.8594 18.3926 17.0566L18.293 17.1465L17.25 18.1895L14.3838 15.3232C14.0168 14.9562 13.519 14.75 13 14.75C12.481 14.75 11.9832 14.9562 11.6162 15.3232L8.75 18.1895V14C8.75 13.3096 9.30964 12.75 10 12.75H20C20.6904 12.75 21.25 13.3096 21.25 14V18.1895L20.207 17.1465Z" fill="#141B34"/>
<path d="M5.5 8.25C6.01904 8.25 6.51676 8.45623 6.88379 8.82324L8.3954 10.3348C6.98513 10.9531 6 12.3615 6 14V17.75H4C2.48122 17.75 1.25 16.5188 1.25 15V5C1.25 3.48122 2.48122 2.25 4 2.25H10C11.5188 2.25 12.75 3.48122 12.75 5V10H11.25V5C11.25 4.30964 10.6904 3.75 10 3.75H4C3.30964 3.75 2.75 4.30964 2.75 5V10.1895L4.11621 8.82324C4.48324 8.45623 4.98096 8.25 5.5 8.25Z" fill="#141B34"/>
<path d="M8.5 6.48951V6.49951" stroke="#141B34" stroke-width="1.5" stroke-linecap="round" stroke-linejoin="round"/>
<path d="M18 14.9902V15.0002" stroke="#141B34" stroke-width="1.5" stroke-linecap="round" stroke-linejoin="round"/>
<path d="M20.25 8.99994V6.49994C20.25 5.80959 19.6904 5.24994 19 5.24994H16.8106L18.0303 6.46967C18.3232 6.76256 18.3232 7.23732 18.0303 7.53022C17.7374 7.82311 17.2626 7.82311 16.9697 7.53022L14.4697 5.03022C14.1768 4.73732 14.1768 4.26256 14.4697 3.96967L16.9697 1.46967C17.2626 1.17678 17.7374 1.17678 18.0303 1.46967C18.3232 1.76256 18.3232 2.23732 18.0303 2.53022L16.8106 3.74994H19C20.5188 3.74994 21.75 4.98116 21.75 6.49994V8.99994C21.75 9.41416 21.4142 9.74994 21 9.74994C20.5858 9.74994 20.25 9.41416 20.25 8.99994Z" fill="#141B34"/>
</svg>
