<svg width="24" height="24" viewBox="0 0 24 24" fill="none" xmlns="http://www.w3.org/2000/svg">
<path fill-rule="evenodd" clip-rule="evenodd" d="M6.56667 14.7833C6.56667 15.3172 6.13388 15.75 5.6 15.75H4.15C2.54837 15.75 1.25 14.4516 1.25 12.85L1.25 12.3667C1.25 11.8328 1.68279 11.4 2.21667 11.4C2.75054 11.4 3.18333 11.8328 3.18333 12.3667V12.85C3.18333 13.3839 3.61613 13.8167 4.15 13.8167H5.6C6.13388 13.8167 6.56667 14.2495 6.56667 14.7833ZM2.21667 10.4333C1.68279 10.4333 1.25 10.0005 1.25 9.46667L1.25 7.53333C1.25 6.99946 1.68279 6.56667 2.21667 6.56667C2.75054 6.56667 3.18333 6.99946 3.18333 7.53333L3.18333 9.46667C3.18333 10.0005 2.75054 10.4333 2.21667 10.4333ZM14.7833 6.08333C14.2495 6.08333 13.8167 5.65054 13.8167 5.11667V4.15C13.8167 3.61613 13.3839 3.18333 12.85 3.18333H12.3667C11.8328 3.18333 11.4 2.75054 11.4 2.21667C11.4 1.68279 11.8328 1.25 12.3667 1.25L12.85 1.25C14.4516 1.25 15.75 2.54838 15.75 4.15V5.11667C15.75 5.65054 15.3172 6.08333 14.7833 6.08333ZM2.21667 5.6C1.68279 5.6 1.25 5.16721 1.25 4.63333L1.25 4.15C1.25 2.54837 2.54838 1.25 4.15 1.25L4.63333 1.25C5.16721 1.25 5.6 1.68279 5.6 2.21667C5.6 2.75054 5.16721 3.18333 4.63333 3.18333H4.15C3.61613 3.18333 3.18333 3.61613 3.18333 4.15V4.63333C3.18333 5.16721 2.75054 5.6 2.21667 5.6ZM10.4333 2.21667C10.4333 2.75054 10.0005 3.18333 9.46667 3.18333L7.53333 3.18333C6.99946 3.18333 6.56667 2.75054 6.56667 2.21667C6.56667 1.68279 6.99946 1.25 7.53333 1.25L9.46667 1.25C10.0005 1.25 10.4333 1.68279 10.4333 2.21667Z" fill="#141B34"/>
<path d="M22.75 20C22.75 21.5188 21.5188 22.75 20 22.75H11C9.48122 22.75 8.25 21.5188 8.25 20L8.25 15C8.25 14.5858 8.58579 14.25 9 14.25L13 14.25C13.6904 14.25 14.25 13.6904 14.25 13L14.25 9C14.25 8.58579 14.5858 8.25 15 8.25L20 8.25C21.5188 8.25 22.75 9.48122 22.75 11L22.75 20Z" fill="#141B34"/>
</svg>
