<svg width="24" height="24" viewBox="0 0 24 24" fill="none" xmlns="http://www.w3.org/2000/svg">
<path fill-rule="evenodd" clip-rule="evenodd" d="M4 1.25C2.48122 1.25 1.25 2.48122 1.25 4V13C1.25 14.5188 2.48122 15.75 4 15.75H8.25V20C8.25 21.5188 9.48122 22.75 11 22.75H20C21.5188 22.75 22.75 21.5188 22.75 20V11C22.75 9.48122 21.5188 8.25 20 8.25H15.75V4C15.75 2.48122 14.5188 1.25 13 1.25H4ZM9.5 10.8889C9.5 10.1218 10.1218 9.5 10.8889 9.5H14.5V13.1111C14.5 13.8782 13.8782 14.5 13.1111 14.5H9.5V10.8889Z" fill="#141B34"/>
</svg>
