<svg width="24" height="24" viewBox="0 0 24 24" fill="none" xmlns="http://www.w3.org/2000/svg">
<path d="M21.7484 11.0742C21.7063 8.73509 20.834 6.40557 19.0486 4.63673C17.2615 2.86627 14.9644 2.02815 12.67 2.00153C12.2547 1.99671 12.047 1.9943 11.8985 2.14109C11.75 2.28788 11.75 2.51028 11.75 2.95507V11.0009C11.75 11.4723 11.75 11.708 11.8964 11.8544C12.0429 12.0009 12.2786 12.0009 12.75 12.0009H20.7944C21.2419 12.0009 21.4657 12.0009 21.6127 11.8512C21.7597 11.7016 21.7559 11.4925 21.7484 11.0742Z" fill="#141B34"/>
<path d="M10.2817 11.7497C10.3224 12.0522 10.4374 12.517 10.8358 12.9154C11.2342 13.3138 11.699 13.4289 12.0015 13.4695C12.2415 13.5018 12.5127 13.5015 12.7051 13.5012L20.7944 13.5012L20.8378 13.5013C20.984 13.5015 21.1879 13.5018 21.388 13.4836C20.674 18.1649 16.6308 21.7513 11.75 21.7513C6.36522 21.7513 2 17.3861 2 12.0013C2 7.12051 5.58636 3.07734 10.2676 2.36328C10.2494 2.56308 10.2497 2.76665 10.25 2.91221L10.25 2.95541L10.25 11.0461C10.2497 11.2384 10.2494 11.5097 10.2817 11.7497Z" fill="#141B34"/>
</svg>
