<svg width="24" height="24" viewBox="0 0 24 24" fill="none" xmlns="http://www.w3.org/2000/svg">
<path d="M6.4281 19.0294C7.69408 20.591 9.5802 21.6275 11.7159 21.7676C12.8903 21.8446 14.1151 21.8445 15.2871 21.7676C15.7529 21.737 16.6003 21.4922 17.049 21.3099C17.7082 21.7896 18.7517 22.2768 19.9199 22.2487C20.1349 22.2437 20.4203 22.237 20.6229 22.1983C20.8719 22.1508 21.2046 22.0272 21.4143 21.6744C21.6457 21.2851 21.5485 20.8951 21.4682 20.6732C21.3932 20.4663 21.2455 20.1902 21.1227 19.9607C20.7549 19.2729 20.6889 18.7755 20.8421 18.4735C21.5135 17.4717 22.1265 16.224 22.2177 14.8316C22.2627 14.1436 22.2627 13.4321 22.2177 12.744C22.1089 11.0834 21.4593 9.57319 20.4428 8.38783C20.4516 8.47876 20.459 8.5701 20.465 8.66183C20.5136 9.40429 20.5136 10.1704 20.465 10.9128C20.1802 15.2622 16.7181 18.7291 12.3689 19.0144C11.1399 19.095 9.86051 19.0949 8.63408 19.0144C8.19598 18.9857 7.60869 18.8429 7.11587 18.6898C6.90494 18.81 6.67482 18.9254 6.4281 19.0294Z" fill="#141B34"/>
<path fill-rule="evenodd" clip-rule="evenodd" d="M8.71284 1.80786C9.88483 1.73098 11.1096 1.73082 12.284 1.80786C16.0064 2.05205 18.9707 5.0195 19.2146 8.7438C19.2597 9.43186 19.2597 10.1434 19.2146 10.8314C18.9707 14.5557 16.0064 17.5232 12.284 17.7674C11.1096 17.8444 9.88483 17.8442 8.71284 17.7674C8.24701 17.7368 7.39955 17.492 6.9509 17.3097C6.29168 17.7894 5.24822 18.2766 4.07994 18.2485C3.86499 18.2435 3.57954 18.2368 3.37694 18.1981C3.12801 18.1506 2.79527 18.027 2.58556 17.6742C2.35419 17.2849 2.45142 16.8949 2.53173 16.673C2.60666 16.4661 2.75438 16.19 2.8772 15.9605C3.245 15.2727 3.31094 14.7753 3.1578 14.4733C2.48643 13.4715 1.87339 12.2238 1.78221 10.8314C1.73715 10.1434 1.73715 9.43186 1.78221 8.7438C2.02611 5.0195 4.99038 2.05205 8.71284 1.80786ZM9.74841 14.0001C9.74841 13.5859 10.0842 13.2501 10.4984 13.2501H10.5074C10.9216 13.2501 11.2574 13.5859 11.2574 14.0001C11.2574 14.4144 10.9216 14.7501 10.5074 14.7501H10.4984C10.0842 14.7501 9.74841 14.4144 9.74841 14.0001ZM9.24841 7.50014C9.24841 6.80978 9.80806 6.25014 10.4984 6.25014C11.1888 6.25014 11.7484 6.80978 11.7484 7.50014C11.7484 7.7501 11.6758 7.98082 11.5508 8.17509C11.4249 8.37079 11.2672 8.57327 11.0821 8.80342L10.9909 8.91633L10.9909 8.91637C10.8357 9.1083 10.6651 9.31938 10.5094 9.53339C10.1408 10.0399 9.74841 10.7009 9.74841 11.5001C9.74841 11.9144 10.0842 12.2501 10.4984 12.2501C10.9126 12.2501 11.2484 11.9144 11.2484 11.5001C11.2484 11.1948 11.3987 10.8606 11.7223 10.4159C11.8535 10.2356 11.9954 10.0599 12.1501 9.86849L12.1502 9.86839L12.2507 9.74377C12.4371 9.51208 12.6393 9.25551 12.8122 8.98677C13.0883 8.55771 13.2484 8.04647 13.2484 7.50014C13.2484 5.98135 12.0172 4.75014 10.4984 4.75014C8.97963 4.75014 7.74841 5.98135 7.74841 7.50014C7.74841 7.91435 8.0842 8.25014 8.49841 8.25014C8.91263 8.25014 9.24841 7.91435 9.24841 7.50014Z" fill="#141B34"/>
</svg>
