<svg width="24" height="24" viewBox="0 0 24 24" fill="none" xmlns="http://www.w3.org/2000/svg">
<path fill-rule="evenodd" clip-rule="evenodd" d="M10.8598 1.66282C11.5203 1.11239 12.4797 1.11239 13.1402 1.66282L15.3649 3.51668L18.7022 3.51668C19.6859 3.51668 20.4833 4.31411 20.4833 5.29779L20.4833 8.63513L22.3372 10.8598C22.8876 11.5203 22.8876 12.4797 22.3372 13.1402L20.4833 15.3649L20.4833 18.7022C20.4833 19.6859 19.6859 20.4833 18.7022 20.4833H15.3649L13.1402 22.3372C12.4797 22.8876 11.5203 22.8876 10.8598 22.3372L8.63514 20.4833L5.29779 20.4833C4.31411 20.4833 3.51668 19.6859 3.51668 18.7022L3.51668 15.3649L1.66282 13.1402C1.11239 12.4797 1.11239 11.5203 1.66282 10.8598L3.51668 8.63513L3.51668 5.29779C3.51668 4.31411 4.31411 3.51668 5.29779 3.51668L8.63514 3.51668L10.8598 1.66282ZM11 16.5C11 15.9477 11.4477 15.5 12 15.5H12.009C12.5613 15.5 13.009 15.9477 13.009 16.5C13.009 17.0523 12.5613 17.5 12.009 17.5H12C11.4477 17.5 11 17.0523 11 16.5ZM11 9.5C11 8.94772 11.4477 8.5 12 8.5C12.5523 8.5 13 8.94772 13 9.5C13 9.70057 12.942 9.88454 12.8422 10.0397C12.7241 10.2232 12.5739 10.4167 12.3889 10.6466L12.2993 10.7576C12.1441 10.9494 11.9687 11.1665 11.8088 11.3862C11.4328 11.903 11 12.6184 11 13.5C11 14.0523 11.4477 14.5 12 14.5C12.5523 14.5 13 14.0523 13 13.5C13 13.277 13.1099 12.9973 13.426 12.5629C13.5532 12.3881 13.6904 12.2182 13.8449 12.027L13.9471 11.9004C14.1337 11.6684 14.3433 11.4028 14.5241 11.1219C14.8253 10.6537 15 10.0957 15 9.5C15 7.84315 13.6569 6.5 12 6.5C10.3431 6.5 9 7.84315 9 9.5C9 10.0523 9.44771 10.5 10 10.5C10.5523 10.5 11 10.0523 11 9.5Z" fill="#141B34"/>
</svg>
