<svg width="24" height="24" viewBox="0 0 24 24" fill="none" xmlns="http://www.w3.org/2000/svg">
<path d="M15.25 10.25C15.25 7.48858 17.4886 5.25 20.25 5.25C20.8023 5.25 21.25 4.80228 21.25 4.25C21.25 3.69772 20.8023 3.25 20.25 3.25C16.384 3.25 13.25 6.38401 13.25 10.25V18C13.25 19.5188 14.4812 20.75 16 20.75H20C21.5188 20.75 22.75 19.5188 22.75 18V14C22.75 12.4812 21.5188 11.25 20 11.25H16C15.74 11.25 15.4884 11.2861 15.25 11.3535V10.25Z" fill="#141B34"/>
<path d="M3.25 10.25C3.25 7.48858 5.48858 5.25 8.25 5.25C8.80228 5.25 9.25 4.80228 9.25 4.25C9.25 3.69772 8.80228 3.25 8.25 3.25C4.38401 3.25 1.25 6.38401 1.25 10.25V18C1.25 19.5188 2.48122 20.75 4 20.75H8C9.51878 20.75 10.75 19.5188 10.75 18V14C10.75 12.4812 9.51878 11.25 8 11.25H4C3.73999 11.25 3.48842 11.2861 3.25 11.3535V10.25Z" fill="#141B34"/>
</svg>
