<svg width="24" height="24" viewBox="0 0 24 24" fill="none" xmlns="http://www.w3.org/2000/svg">
<path fill-rule="evenodd" clip-rule="evenodd" d="M9.5875 4.38865C8.62171 3.42286 7.28308 2.70143 5.97882 2.40224C4.7147 2.11225 3.19999 2.16735 2.18367 3.18367C1.16735 4.19999 1.11225 5.71469 1.40224 6.97882C1.70143 8.28308 2.42286 9.62171 3.38865 10.5875C4.37753 11.5764 5.50653 12.0527 6.66159 11.9949C7.46119 11.9548 8.19725 11.6627 8.8382 11.2171L10.6208 12.9997L3.53554 20.0856C3.1548 20.4664 3.15482 21.0837 3.5356 21.4645C3.91638 21.8452 4.53372 21.8452 4.91446 21.4644L11.9997 14.3786L19.0855 21.4644C19.4663 21.8452 20.0836 21.8452 20.4644 21.4644C20.8452 21.0836 20.8452 20.4663 20.4644 20.0855L13.3785 12.9996L15.1051 11.2729C15.305 11.4464 15.5054 11.5931 15.7206 11.6997C16.5277 12.1 17.4756 12.1001 18.2829 11.7C18.7115 11.4876 19.0817 11.1164 19.506 10.6909L19.6006 10.5962L22.4644 7.73271C22.8452 7.35197 22.8452 6.73464 22.4645 6.35386C22.0837 5.97307 21.4664 5.97304 21.0856 6.35378L18.2218 9.21732C17.6457 9.79331 17.5182 9.90265 17.4169 9.95281C17.1554 10.0824 16.8483 10.0824 16.5868 9.95273C16.4856 9.90254 16.3581 9.79318 15.7822 9.21706C15.2065 8.64124 15.0973 8.51376 15.0471 8.41261C14.9176 8.15126 14.9176 7.84443 15.0472 7.5831C15.0973 7.48195 15.2065 7.35446 15.7822 6.77867L18.6459 3.91435C19.0266 3.53355 19.0265 2.91621 18.6457 2.53549C18.2649 2.15477 17.6476 2.15484 17.2669 2.53565L14.4032 5.39996L14.3086 5.49445C13.8833 5.9186 13.5123 6.28868 13.3 6.71711C12.9 7.52407 12.9 8.47154 13.2999 9.27852C13.4065 9.49358 13.5531 9.69394 13.7264 9.89382L11.9997 11.6207L10.2171 9.8382C10.6627 9.19724 10.9548 8.46119 10.9949 7.66159C11.0527 6.50653 10.5764 5.37753 9.5875 4.38865ZM20.5144 5.86157C20.8952 5.48081 20.8952 4.86348 20.5144 4.48272C20.1337 4.10196 19.5163 4.10196 19.1356 4.48272L16.2106 7.40771C15.8298 7.78848 15.8298 8.40581 16.2106 8.78657C16.5913 9.16733 17.2087 9.16733 17.5894 8.78657L20.5144 5.86157Z" fill="#141B34"/>
</svg>
