<svg width="24" height="24" viewBox="0 0 24 24" fill="none" xmlns="http://www.w3.org/2000/svg">
<path fill-rule="evenodd" clip-rule="evenodd" d="M4.5 14.875C4.5 14.3227 4.94772 13.875 5.5 13.875H7.5C8.05228 13.875 8.5 14.3227 8.5 14.875C8.5 15.4273 8.05228 15.875 7.5 15.875H5.5C4.94772 15.875 4.5 15.4273 4.5 14.875ZM10 14.875C10 14.3227 10.4477 13.875 11 13.875H13C13.5523 13.875 14 14.3227 14 14.875C14 15.4273 13.5523 15.875 13 15.875H11C10.4477 15.875 10 15.4273 10 14.875ZM15.5 14.875C15.5 14.3227 15.9477 13.875 16.5 13.875H18.5C19.0523 13.875 19.5 14.3227 19.5 14.875C19.5 15.4273 19.0523 15.875 18.5 15.875H16.5C15.9477 15.875 15.5 15.4273 15.5 14.875Z" fill="#141B34"/>
<path fill-rule="evenodd" clip-rule="evenodd" d="M12 1.125C9.36789 1.125 7.25 3.28284 7.25 5.925C7.25 7.46109 8.03537 8.68667 8.88105 9.56222C9.72882 10.4399 10.7023 11.0358 11.2412 11.33C11.7164 11.5893 12.2836 11.5893 12.7588 11.33C13.2977 11.0358 14.2712 10.4399 15.119 9.56222C15.9646 8.68667 16.75 7.46109 16.75 5.925C16.75 3.28284 14.6321 1.125 12 1.125ZM12 4.375C11.1716 4.375 10.5 5.04657 10.5 5.875C10.5 6.70343 11.1716 7.375 12 7.375H12.009C12.8374 7.375 13.509 6.70343 13.509 5.875C13.509 5.04657 12.8374 4.375 12.009 4.375H12Z" fill="#141B34"/>
<path fill-rule="evenodd" clip-rule="evenodd" d="M1 9.875C1 8.21815 2.34315 6.875 4 6.875H5C5.55228 6.875 6 7.32272 6 7.875C6 8.42728 5.55228 8.875 5 8.875H4C3.44772 8.875 3 9.32272 3 9.875V19.875C3 20.4273 3.44772 20.875 4 20.875H20C20.5523 20.875 21 20.4273 21 19.875V9.875C21 9.32272 20.5523 8.875 20 8.875H19C18.4477 8.875 18 8.42728 18 7.875C18 7.32272 18.4477 6.875 19 6.875H20C21.6569 6.875 23 8.21815 23 9.875V19.875C23 21.5319 21.6569 22.875 20 22.875H4C2.34315 22.875 1 21.5319 1 19.875V9.875Z" fill="#141B34"/>
</svg>
