<svg width="24" height="24" viewBox="0 0 24 24" fill="none" xmlns="http://www.w3.org/2000/svg">
<path fill-rule="evenodd" clip-rule="evenodd" d="M9.79091 1.44236C10.2126 1.12374 10.811 1.20984 11.1273 1.63467L12.5591 3.55774C12.776 3.8491 12.8109 4.23892 12.6492 4.56467C12.4875 4.89042 12.157 5.09619 11.7954 5.09619H5.11363C4.58645 5.09619 4.15909 5.52669 4.15909 6.05773V12.7885C4.15909 13.3195 3.73173 13.75 3.20454 13.75C2.67736 13.75 2.25 13.3195 2.25 12.7885V6.05773C2.25 4.46461 3.53209 3.17312 5.11363 3.17312H9.88636L9.6 2.78851C9.28369 2.36368 9.36916 1.76099 9.79091 1.44236Z" fill="#141B34"/>
<path d="M6.25 10C6.25 8.48122 7.48122 7.25 9 7.25H19C20.5188 7.25 21.75 8.48122 21.75 10V20C21.75 21.5188 20.5188 22.75 19 22.75H9C7.48122 22.75 6.25 21.5188 6.25 20V10Z" fill="#141B34"/>
</svg>
