<svg width="24" height="24" viewBox="0 0 24 24" fill="none" xmlns="http://www.w3.org/2000/svg">
<path fill-rule="evenodd" clip-rule="evenodd" d="M16.4008 4.2001C14.4021 4.21046 11.9252 4.99546 9.48506 6.6358C7.04887 8.27351 5.19187 10.4002 4.14939 12.4812C3.0933 14.5893 2.94422 16.4856 3.59814 17.8044C4.22464 19.0679 5.60248 19.8102 7.59884 19.7999C9.59752 19.7895 12.0745 19.0045 14.5146 17.3642C15.128 16.9518 15.7059 16.5076 16.244 16.04C16.5328 15.7889 16.942 15.7294 17.2907 15.8877C17.6393 16.046 17.8631 16.393 17.8631 16.7751V20.2875C17.8631 20.826 17.4256 21.2625 16.8859 21.2625C16.3462 21.2625 15.9087 20.826 15.9087 20.2875V18.7743C15.8089 18.8441 15.7082 18.9131 15.6067 18.9814C12.9229 20.7855 10.0759 21.7371 7.60899 21.7499C5.13974 21.7627 2.91033 20.8148 1.84639 18.6691C0.809872 16.5788 1.20725 13.9926 2.40119 11.6093C3.60873 9.19889 5.70533 6.82537 8.393 5.01861C11.0768 3.21448 13.9237 2.26292 16.3907 2.25013C18.8599 2.23733 21.0893 3.18521 22.1533 5.33089C23.2709 7.58473 22.7247 10.4135 21.2943 12.9636C21.0307 13.4335 20.4353 13.6013 19.9643 13.3383C19.4934 13.0754 19.3252 12.4813 19.5888 12.0114C20.8737 9.72056 21.1081 7.62055 20.4015 6.19558C19.775 4.93212 18.3972 4.18975 16.4008 4.2001Z" fill="#141B34"/>
</svg>
