<svg width="24" height="24" viewBox="0 0 24 24" fill="none" xmlns="http://www.w3.org/2000/svg">
<path fill-rule="evenodd" clip-rule="evenodd" d="M1.54289 8.29289C1.93342 7.90237 2.56658 7.90237 2.95711 8.29289L5.95711 11.2929C6.34763 11.6834 6.34763 12.3166 5.95711 12.7071L2.95711 15.7071C2.56658 16.0976 1.93342 16.0976 1.54289 15.7071C1.15237 15.3166 1.15237 14.6834 1.54289 14.2929L3.83579 12L1.54289 9.70711C1.15237 9.31658 1.15237 8.68342 1.54289 8.29289Z" fill="#141B34"/>
<path d="M6.25 5C6.25 3.48122 7.48122 2.25 9 2.25H20C21.5188 2.25 22.75 3.48122 22.75 5V8C22.75 9.51878 21.5188 10.75 20 10.75H9C7.48122 10.75 6.25 9.51878 6.25 8V5Z" fill="#141B34"/>
<path d="M6.25 16C6.25 14.4812 7.48122 13.25 9 13.25H20C21.5188 13.25 22.75 14.4812 22.75 16V19C22.75 20.5188 21.5188 21.75 20 21.75H9C7.48122 21.75 6.25 20.5188 6.25 19V16Z" fill="#141B34"/>
</svg>
