<svg width="24" height="24" viewBox="0 0 24 24" fill="none" xmlns="http://www.w3.org/2000/svg">
<path fill-rule="evenodd" clip-rule="evenodd" d="M5 4.5C4.44772 4.5 4 4.94772 4 5.5V9.00807C4 9.56036 3.55228 10.0081 3 10.0081C2.44772 10.0081 2 9.56036 2 9.00807V5.5C2 3.84315 3.34315 2.5 5 2.5H20C21.6569 2.5 23 3.84315 23 5.5V18.5C23 20.1569 21.6569 21.5 20 21.5H13.4977C12.9454 21.5 12.4977 21.0523 12.4977 20.5C12.4977 19.9477 12.9454 19.5 13.4977 19.5H20C20.5523 19.5 21 19.0523 21 18.5V5.5C21 4.94772 20.5523 4.5 20 4.5H5Z" fill="#141B34"/>
<path fill-rule="evenodd" clip-rule="evenodd" d="M2 19.5C2 18.9477 2.44772 18.5 3 18.5H3.00898C3.56127 18.5 4.00898 18.9477 4.00898 19.5C4.00898 20.0523 3.56127 20.5 3.00898 20.5H3C2.44772 20.5 2 20.0523 2 19.5Z" fill="#141B34"/>
<path fill-rule="evenodd" clip-rule="evenodd" d="M1.04522 12.5C1.04522 11.9477 1.49293 11.5 2.04522 11.5C6.51006 11.5 11 15.4111 11 20.4996C11 21.0519 10.5523 21.4996 10 21.4996C9.44772 21.4996 9 21.0519 9 20.4996C9 16.5889 5.48016 13.5 2.04522 13.5C1.49293 13.5 1.04522 13.0523 1.04522 12.5ZM1 15.7349C1 15.1826 1.44772 14.7349 2 14.7349C5.04316 14.7349 7.77053 17.4453 7.77053 20.4996C7.77053 21.0519 7.32281 21.4996 6.77053 21.4996C6.21825 21.4996 5.77053 21.0519 5.77053 20.4996C5.77053 18.5547 3.9434 16.7349 2 16.7349C1.44772 16.7349 1 16.2872 1 15.7349Z" fill="#141B34"/>
</svg>
