<svg width="24" height="24" viewBox="0 0 24 24" fill="none" xmlns="http://www.w3.org/2000/svg">
<path d="M19.5 22.25C21.0188 22.25 22.25 21.0188 22.25 19.5L22.25 4.5C22.25 2.98122 21.0188 1.75 19.5 1.75L4.5 1.75C2.98122 1.75 1.75 2.98122 1.75 4.5L1.75 19.5C1.75 21.0188 2.98122 22.25 4.5 22.25L19.5 22.25ZM14.5762 18.4805C14.311 18.7984 13.8377 18.8412 13.5195 18.5762L7.51953 13.5762C7.27721 13.3741 7.18769 13.0418 7.29492 12.7451C7.40242 12.4482 7.68423 12.25 8 12.25H11C11.9793 12.25 12.81 11.6234 13.1191 10.75H8C7.58581 10.75 7.25004 10.4142 7.25 10C7.25 9.58579 7.58579 9.25 8 9.25H13.1191C12.81 8.37653 11.9794 7.75 11 7.75H8C7.58581 7.75 7.25004 7.41418 7.25 7C7.25 6.58579 7.58579 6.25 8 6.25L16 6.25C16.4142 6.25 16.75 6.58579 16.75 7C16.75 7.41418 16.4142 7.75 16 7.75H14C14.3276 8.18609 14.5623 8.69579 14.6748 9.25H16C16.4142 9.25 16.75 9.58579 16.75 10C16.75 10.4142 16.4142 10.75 16 10.75H14.6748C14.3273 12.4616 12.8142 13.75 11 13.75H10.0723L14.4805 17.4238C14.7985 17.689 14.8413 18.1623 14.5762 18.4805Z" fill="#141B34"/>
</svg>
