<svg width="24" height="24" viewBox="0 0 24 24" fill="none" xmlns="http://www.w3.org/2000/svg">
<path fill-rule="evenodd" clip-rule="evenodd" d="M1 9C1 4.58173 4.58173 1 9 1C11.4481 1 13.7459 2.10174 15.2559 3.84534C15.6175 4.26282 15.5721 4.89436 15.1547 5.25592C14.7372 5.61748 14.1056 5.57215 13.7441 5.15466C12.6067 3.84132 10.8568 3 9 3C5.68629 3 3 5.68629 3 9C3 12.034 5.24695 14.5947 8.14203 15.0101C8.68871 15.0886 9.0683 15.5953 8.98986 16.142C8.91142 16.6887 8.40466 17.0683 7.85797 16.9899C3.96846 16.4318 1 13.019 1 9Z" fill="#141B34"/>
<path fill-rule="evenodd" clip-rule="evenodd" d="M9.00004 6C9.55232 6 10 6.44772 10 7V9.61399C10 9.96771 9.81317 10.2951 9.50862 10.475L8.00862 11.361C7.53309 11.6419 6.9199 11.4841 6.63902 11.0086C6.35814 10.5331 6.51593 9.91987 6.99146 9.63898L8.00004 9.04324V7C8.00004 6.44772 8.44775 6 9.00004 6Z" fill="#141B34"/>
<path fill-rule="evenodd" clip-rule="evenodd" d="M16.4991 6C16.7795 6 17.047 6.11772 17.2364 6.32446C17.6262 6.74987 18.0722 7.10465 18.5553 7.44843C18.7214 7.56669 18.9112 7.69627 19.1074 7.83023C19.4261 8.04777 19.7616 8.27684 20.0402 8.4877C21.0406 9.24494 22 10.2542 22 12C22 12.674 21.8161 13.3075 21.6031 13.8598C21.4492 14.259 21.256 14.672 21.0821 15.0437C21.0215 15.1732 20.9633 15.2977 20.9099 15.4148C20.7474 15.7713 20.3917 16 20 16H13C12.6083 16 12.2526 15.7713 12.0901 15.4148C12.036 15.2962 11.9769 15.17 11.9153 15.0385C11.7423 14.669 11.5501 14.2584 11.3971 13.8622C11.1838 13.3097 11 12.6764 11 12C11 10.2545 11.9586 9.24524 12.9587 8.48785C13.2373 8.27682 13.5729 8.04765 13.8915 7.83002C14.0875 7.69619 14.277 7.56672 14.443 7.44852C14.9259 7.10474 15.3719 6.74993 15.7617 6.32446C15.9512 6.11772 16.2187 6 16.4991 6ZM14.1661 10.0822C13.3748 10.6815 13 11.1723 13 12C13 12.3236 13.0895 12.6929 13.2628 13.1418C13.3733 13.4279 13.4994 13.7035 13.6379 14H19.3619C19.5003 13.7031 19.6267 13.4264 19.737 13.1402C19.9107 12.6898 20 12.3207 20 12C20 11.1725 19.6251 10.6818 18.8332 10.0824C18.5763 9.88799 18.3309 9.72123 18.0582 9.53599C17.8572 9.39947 17.6415 9.25292 17.3955 9.07785C17.1043 8.8706 16.8006 8.64261 16.4991 8.38463C16.1977 8.64256 15.8941 8.87052 15.603 9.07775C15.3574 9.25265 15.1419 9.39912 14.9411 9.53556C14.6684 9.72094 14.4229 9.88779 14.1661 10.0822Z" fill="#141B34"/>
<path d="M11 14C10.4477 14 10 14.4477 10 15C10 15.5523 10.4477 16 11 16H12V22C12 22.5523 12.4477 23 13 23H15.5V19C15.5 18.4477 15.9477 18 16.5 18C17.0523 18 17.5 18.4477 17.5 19V23H20C20.5523 23 21 22.5523 21 22V16H22C22.5523 16 23 15.5523 23 15C23 14.4477 22.5523 14 22 14H11Z" fill="#141B34"/>
</svg>
