<svg width="24" height="24" viewBox="0 0 24 24" fill="none" xmlns="http://www.w3.org/2000/svg">
<path fill-rule="evenodd" clip-rule="evenodd" d="M20.25 20C20.25 18.6332 19.2528 17.4992 17.9463 17.286L16.8174 15.4047C16.6588 15.1402 16.4568 14.9044 16.2198 14.7069L13.7158 12.6202L13.2805 8.26743L13.4158 8.12505C14.4515 8.34398 15.3849 7.84586 16.0149 7.21578C16.7371 6.49342 17.25 5.43065 17.25 4.5C17.25 2.70507 15.7949 1.25 14 1.25C12.2051 1.25 10.75 2.70507 10.75 4.5C10.75 4.76889 10.6542 4.9762 10.4397 5.1754C10.2019 5.39618 9.81671 5.60386 9.26283 5.78849C8.45972 6.05619 7.40711 6.49478 6.5827 7.61898C5.76697 8.73134 5.25 10.4094 5.25 13C5.25 15.1222 5.73848 16.5894 6.35431 17.6315C6.53225 17.9327 6.721 18.1967 6.90596 18.4264C5.97235 18.6514 5.2678 19.0756 4.75896 19.6056C4.01137 20.3843 3.75 21.3268 3.75 22C3.75 22.4142 4.08579 22.75 4.5 22.75L17.5 22.75C19.0188 22.75 20.25 21.5188 20.25 20ZM10.2364 11.139C10.3132 10.732 10.0454 10.3398 9.63841 10.263C9.23137 10.1862 8.83917 10.454 8.7624 10.861C8.57596 11.8495 8.57038 13.2155 9.11517 14.5483C9.66994 15.9054 10.7775 17.1797 12.7199 17.9598C13.1043 18.1141 13.541 17.9277 13.6954 17.5433C13.8497 17.1589 13.6633 16.7222 13.2789 16.5678C11.7137 15.9392 10.9051 14.9627 10.5036 13.9807C10.0923 12.9743 10.0905 11.9127 10.2364 11.139Z" fill="#141B34"/>
</svg>
