<svg width="24" height="24" viewBox="0 0 24 24" fill="none" xmlns="http://www.w3.org/2000/svg">
<path d="M19.3082 15.8916C19.8513 15.9919 20.2102 16.5135 20.1099 17.0566C19.8915 18.239 19.3201 19.357 18.3939 20.2509C17.5233 21.0913 16.4547 21.6221 15.3285 21.8543C14.7876 21.9659 14.2587 21.6178 14.1471 21.0769C14.0356 20.5359 14.3837 20.007 14.9246 19.8955C15.7045 19.7347 16.4244 19.3723 17.005 18.8119C17.6208 18.2176 17.9978 17.4801 18.1432 16.6933C18.2435 16.1502 18.7651 15.7912 19.3082 15.8916Z" fill="#141B34"/>
<path fill-rule="evenodd" clip-rule="evenodd" d="M8.10449 4.66606C8.21986 5.20616 7.87555 5.73752 7.33546 5.8529C6.55336 6.01997 5.82696 6.39732 5.23793 6.98633C5.23793 6.98634 5.23792 6.98634 5.23792 6.98634M5.23792 6.98634C4.6489 7.57537 4.27155 8.30177 4.10449 9.08387C3.98911 9.62397 3.45774 9.96827 2.91765 9.8529C2.37755 9.73752 2.03324 9.20616 2.14861 8.66606C2.39236 7.525 2.94871 6.44714 3.82371 5.57213L3.82372 5.57212C4.69873 4.69712 5.7766 4.14078 6.91764 3.89703C7.45774 3.78165 7.98911 4.12596 8.10449 4.66606" fill="#141B34"/>
<path fill-rule="evenodd" clip-rule="evenodd" d="M6.88988 10.3565C8.57942 7.74542 12.2464 7.35694 14.4455 9.55609C16.6447 11.7552 16.2562 15.4222 13.6451 17.1118C13.0432 17.5012 12.7441 17.8609 12.5877 18.2134C12.4281 18.5734 12.3777 19.0139 12.4325 19.6399C12.4779 20.1571 12.3148 20.7047 11.9137 21.1057C11.2213 21.7981 10.0987 21.7981 9.4063 21.1057L2.89589 14.5953C2.20349 13.9029 2.20349 12.7803 2.89589 12.0879C3.29696 11.6868 3.84458 11.5238 4.36172 11.5691C4.98776 11.6239 5.42824 11.5736 5.78819 11.4139C6.14074 11.2576 6.50039 10.9585 6.88988 10.3565Z" fill="#141B34"/>
<path d="M20.7123 7.57443C22.1467 6.442 22.2715 4.31154 20.9793 3.01927C19.687 1.72698 17.5566 1.8519 16.4241 3.28629L16.4154 3.2976L13.3766 7.30114C14.0943 7.60137 14.77 8.04513 15.3617 8.63685C15.9534 9.22858 16.3972 9.90425 16.6974 10.622L20.701 7.58318L20.7123 7.57443Z" fill="#141B34"/>
<path d="M3.01252 16.5508C2.92403 16.8628 2.87659 17.1921 2.87659 17.5322C2.87659 19.5166 4.48529 21.1253 6.46973 21.1253C6.80981 21.1253 7.13908 21.0779 7.45113 20.9894L3.01252 16.5508Z" fill="#141B34"/>
</svg>
