<svg width="24" height="24" viewBox="0 0 24 24" fill="none" xmlns="http://www.w3.org/2000/svg">
<path fill-rule="evenodd" clip-rule="evenodd" d="M1.5 4C1.5 3.44772 1.94772 3 2.5 3H18.5C19.0523 3 19.5 3.44772 19.5 4C19.5 4.55228 19.0523 5 18.5 5H2.5C1.94772 5 1.5 4.55228 1.5 4ZM2.5 8C1.94772 8 1.5 8.44772 1.5 9C1.5 9.55228 1.94772 10 2.5 10H6.5C7.05228 10 7.5 9.55228 7.5 9C7.5 8.44772 7.05228 8 6.5 8H2.5ZM2.5 13C1.94772 13 1.5 13.4477 1.5 14C1.5 14.5523 1.94772 15 2.5 15H6.5C7.05228 15 7.5 14.5523 7.5 14C7.5 13.4477 7.05228 13 6.5 13H2.5ZM15 7.5C11.6863 7.5 9 10.1863 9 13.5C9 16.8137 11.6863 19.5 15 19.5C16.2958 19.5 17.4957 19.0892 18.4765 18.3907L20.7929 20.7071C21.1834 21.0976 21.8166 21.0976 22.2071 20.7071C22.5976 20.3166 22.5976 19.6834 22.2071 19.2929L19.8907 16.9765C20.5892 15.9957 21 14.7958 21 13.5C21 10.1863 18.3137 7.5 15 7.5ZM11 13.5C11 11.2909 12.7909 9.5 15 9.5C17.2091 9.5 19 11.2909 19 13.5C19 15.7091 17.2091 17.5 15 17.5C12.7909 17.5 11 15.7091 11 13.5Z" fill="#141B34"/>
</svg>
