<svg width="24" height="24" viewBox="0 0 24 24" fill="none" xmlns="http://www.w3.org/2000/svg">
<path d="M12 1.24982C15.7843 1.24982 19.2112 2.46549 21.4902 4.43146C21.6554 4.57393 21.75 4.7817 21.75 4.99982V10.9998L21.7432 11.4002C21.5981 15.5008 19.2376 18.3201 16.96 20.0916C15.7824 21.0075 14.609 21.6593 13.7314 22.0818C13.2946 22.2922 12.5078 22.6044 12.2422 22.7098L12.2373 22.7117C12.0834 22.763 11.9166 22.763 11.7627 22.7117L11.7578 22.7098C11.4921 22.6043 10.7053 22.2922 10.2686 22.0818C9.39093 21.6593 8.2167 21.0076 7.03906 20.0916C4.68814 18.263 2.25 15.3178 2.25 10.9998V4.99982C2.25 4.7817 2.34461 4.57393 2.50977 4.43146C4.7888 2.46549 8.21568 1.24982 12 1.24982ZM12 6.24982C10.7574 6.24982 9.75 7.25718 9.75 8.49982C9.75 9.31099 10.1805 10.0199 10.8242 10.4158C9.04909 10.926 7.75 12.5606 7.75 14.4998C7.75 14.914 8.08579 15.2498 8.5 15.2498H15.5C15.9142 15.2498 16.25 14.914 16.25 14.4998C16.25 12.5603 14.9504 10.9257 13.1748 10.4158C13.819 10.02 14.25 9.31129 14.25 8.49982C14.25 7.25718 13.2426 6.24982 12 6.24982Z" fill="#141B34"/>
</svg>
