<svg width="24" height="24" viewBox="0 0 24 24" fill="none" xmlns="http://www.w3.org/2000/svg">
<path fill-rule="evenodd" clip-rule="evenodd" d="M2.05185 2C2.05185 1.44772 2.49956 1 3.05185 1H5.55185C6.03632 1 6.45111 1.34728 6.53628 1.82421L9.03628 15.8242C9.07412 16.0362 9.04256 16.2546 8.94628 16.4472L7.94628 18.4472C7.69929 18.9412 7.09861 19.1414 6.60464 18.8944C6.11066 18.6474 5.91043 18.0468 6.15742 17.5528L7.00913 15.8494L4.7146 3H3.05185C2.49956 3 2.05185 2.55228 2.05185 2Z" fill="#141B34"/>
<path fill-rule="evenodd" clip-rule="evenodd" d="M7.05185 19C6.49956 19 6.05185 19.4477 6.05185 20C6.05185 20.5523 6.49956 21 7.05185 21C7.60413 21 8.05185 20.5523 8.05185 20C8.05185 19.4477 7.60413 19 7.05185 19ZM4.05185 20C4.05185 18.3431 5.395 17 7.05185 17C8.7087 17 10.0518 18.3431 10.0518 20C10.0518 21.6569 8.7087 23 7.05185 23C5.395 23 4.05185 21.6569 4.05185 20Z" fill="#141B34"/>
<path fill-rule="evenodd" clip-rule="evenodd" d="M17.0518 19C16.4995 19 16.0518 19.4477 16.0518 20C16.0518 20.5523 16.4995 21 17.0518 21C17.6041 21 18.0518 20.5523 18.0518 20C18.0518 19.4477 17.6041 19 17.0518 19ZM14.0518 20C14.0518 18.3431 15.395 17 17.0518 17C18.7087 17 20.0518 18.3431 20.0518 20C20.0518 21.6569 18.7087 23 17.0518 23C15.395 23 14.0518 21.6569 14.0518 20Z" fill="#141B34"/>
<path fill-rule="evenodd" clip-rule="evenodd" d="M8.05185 20C8.05185 19.4477 8.49956 19 9.05185 19H15.0518C15.6041 19 16.0518 19.4477 16.0518 20C16.0518 20.5523 15.6041 21 15.0518 21H9.05185C8.49956 21 8.05185 20.5523 8.05185 20Z" fill="#141B34"/>
<path d="M16.295 3.2896C14.6983 2.45704 13.5518 3.68433 13.5518 3.68433C13.5518 3.68433 12.4054 2.45704 10.8087 3.2896C8.87479 4.29799 8.73592 8.24689 13.5518 10C18.3678 8.24689 18.2289 4.29799 16.295 3.2896Z" fill="#141B34"/>
<path d="M8.38623 6.67407C8.83956 8.52955 10.3997 10.236 13.1072 11.2216C13.3944 11.3261 13.7093 11.3261 13.9965 11.2216C16.704 10.236 18.2641 8.52955 18.7174 6.67406C18.9407 5.76035 18.879 4.81647 18.5531 4H22.0518C22.6041 4 23.0518 4.44772 23.0518 5C23.0518 5.55228 22.6041 6 22.0518 6H21.651L20.2924 14.4688C20.2404 14.7931 19.9834 15.0458 19.6584 15.0924L8.15837 16.7424C7.75915 16.7997 7.3861 16.531 7.31395 16.1342L5.31395 5.13416C5.27417 4.91536 5.33354 4.69018 5.47604 4.51944C5.61854 4.3487 5.82946 4.25 6.05185 4.25V4H8.55054C8.22467 4.81647 8.16299 5.76036 8.38623 6.67407Z" fill="#141B34"/>
</svg>
