<svg width="24" height="24" viewBox="0 0 24 24" fill="none" xmlns="http://www.w3.org/2000/svg">
<path fill-rule="evenodd" clip-rule="evenodd" d="M4.5 1.75C2.98122 1.75 1.75 2.98122 1.75 4.5V19.5C1.75 21.0188 2.98122 22.25 4.5 22.25L19.5 22.25C21.0188 22.25 22.25 21.0188 22.25 19.5V4.5C22.25 2.98121 21.0188 1.75 19.5 1.75H4.5ZM11 6C9.34315 6 8 7.34315 8 9V15C8 16.6569 9.34315 18 11 18H13C14.6569 18 16 16.6569 16 15V14C16 12.3431 14.6569 11 13 11H11C10.6494 11 10.3128 11.0602 10 11.1707V9C10 8.44772 10.4477 8 11 8H13C13.5523 8 14 8.44772 14 9C14 9.55228 14.4477 10 15 10C15.5523 10 16 9.55228 16 9C16 7.34315 14.6569 6 13 6H11ZM11 16C10.4477 16 10 15.5523 10 15V14C10 13.4477 10.4477 13 11 13H13C13.5523 13 14 13.4477 14 14V15C14 15.5523 13.5523 16 13 16H11Z" fill="#141B34"/>
</svg>
