<svg width="24" height="24" viewBox="0 0 24 24" fill="none" xmlns="http://www.w3.org/2000/svg">
<path d="M14.793 13.293C15.1835 12.9024 15.8165 12.9024 16.207 13.293L19.707 16.793C20.0976 17.1835 20.0976 17.8165 19.707 18.207L16.207 21.707C15.8165 22.0976 15.1835 22.0976 14.793 21.707C14.4024 21.3165 14.4024 20.6835 14.793 20.293L16.5859 18.5H7C5.34315 18.5 4 17.1569 4 15.5V3C4 2.44772 4.44772 2 5 2C5.55228 2 6 2.44772 6 3V15.5C6 16.0523 6.44772 16.5 7 16.5H16.5859L14.793 14.707C14.4024 14.3165 14.4024 13.6835 14.793 13.293Z" fill="#141B34"/>
<path d="M19 5C19.5523 5 20 5.44772 20 6C20 6.55228 19.5523 7 19 7H9C8.44772 7 8 6.55228 8 6C8 5.44772 8.44772 5 9 5H19Z" fill="#141B34"/>
<path d="M16 9C16.5523 9 17 9.44772 17 10C17 10.5523 16.5523 11 16 11H9C8.44772 11 8 10.5523 8 10C8 9.44772 8.44772 9 9 9H16Z" fill="#141B34"/>
</svg>
