<svg width="24" height="24" viewBox="0 0 24 24" fill="none" xmlns="http://www.w3.org/2000/svg">
<path d="M19.5 1.75C21.0188 1.75 22.25 2.98122 22.25 4.5V19.5C22.25 21.0188 21.0188 22.25 19.5 22.25H4.5C2.98122 22.25 1.75 21.0188 1.75 19.5V4.5C1.75 2.98122 2.98122 1.75 4.5 1.75H19.5ZM8.89746 8.00488C8.39336 8.05624 8 8.48234 8 9V14C8 14.5523 8.44774 15 9 15C9.55228 15 10 14.5523 10 14V11.4141L14.293 15.707C14.6835 16.0975 15.3165 16.0975 15.707 15.707C16.0976 15.3165 16.0976 14.6835 15.707 14.293L11.4141 10H14C14.5523 10 15 9.55228 15 9C15 8.44772 14.5523 8 14 8H9L8.89746 8.00488Z" fill="#141B34"/>
</svg>
