<svg width="24" height="24" viewBox="0 0 24 24" fill="none" xmlns="http://www.w3.org/2000/svg">
<path d="M11.9801 2.70604C12.6704 2.70604 13.2301 3.26568 13.2301 3.95604V4.20604H14.7301V3.95604C14.7301 2.43726 13.4989 1.20604 11.9801 1.20604C10.4613 1.20604 9.23009 2.43726 9.23009 3.95604V4.20604H10.7301V3.95604C10.7301 3.26568 11.2897 2.70604 11.9801 2.70604Z" fill="#141B34"/>
<path d="M13.2301 7.45604C13.2301 7.87025 12.8943 8.20604 12.4801 8.20604C12.0919 8.20604 11.7726 7.91116 11.734 7.53319L11.7262 7.37889C11.6876 7.00092 11.3683 6.70604 10.9801 6.70604C10.5659 6.70604 10.2301 7.04183 10.2301 7.45604C10.2301 8.69868 11.2374 9.70604 12.4801 9.70604C13.7227 9.70604 14.7301 8.69868 14.7301 7.45604V4.20604L18.4801 4.20604C19.9989 4.20604 21.2301 5.43726 21.2301 6.95604L21.2301 19.956C21.2301 21.4748 19.9989 22.706 18.4801 22.706L5.48009 22.706C3.96131 22.706 2.73009 21.4748 2.73009 19.956L2.73009 6.95604C2.73009 5.43726 3.96131 4.20604 5.48009 4.20604L13.2301 4.20604V7.45604ZM7.48009 16.706C7.06587 16.706 6.73009 17.0418 6.73009 17.456C6.73009 17.8703 7.06587 18.206 7.48009 18.206H12.4801C12.8943 18.206 13.2301 17.8703 13.2301 17.456C13.2301 17.0418 12.8943 16.706 12.4801 16.706H7.48009ZM7.48009 12.706C7.06587 12.706 6.73009 13.0418 6.73009 13.456C6.73009 13.8703 7.06587 14.206 7.48009 14.206L16.4801 14.206C16.8943 14.206 17.2301 13.8703 17.2301 13.456C17.2301 13.0418 16.8943 12.706 16.4801 12.706L7.48009 12.706Z" fill="#141B34"/>
</svg>
