<svg width="24" height="24" viewBox="0 0 24 24" fill="none" xmlns="http://www.w3.org/2000/svg">
<path fill-rule="evenodd" clip-rule="evenodd" d="M6.875 3.12508C6.875 2.15858 7.6585 1.37508 8.625 1.37508H13.625C14.5915 1.37508 15.375 2.15858 15.375 3.12508C15.375 4.09157 14.5915 4.87508 13.625 4.87508H8.625C7.6585 4.87508 6.875 4.09157 6.875 3.12508Z" fill="#141B34"/>
<path d="M5.62891 3.27937C5.70921 4.86452 7.0199 6.12508 8.625 6.12508L13.625 6.12508C15.2819 6.12508 16.625 4.78193 16.625 3.12508H17.125C18.6438 3.12508 19.875 4.35629 19.875 5.87508L19.875 14.8614C19.7281 14.9344 19.5864 15.0229 19.4551 15.13L19.2842 15.2843L18.375 16.1934L17.4658 15.2843C16.5871 14.4057 15.1628 14.4056 14.2842 15.2843C13.4058 16.1629 13.4057 17.5873 14.2842 18.4659L15.1934 19.3751L14.2842 20.2843C13.5836 20.985 13.4434 22.0319 13.8604 22.8731L5.125 22.8731C3.60629 22.8731 2.37511 21.6418 2.375 20.1231L2.375 5.87508C2.375 4.35629 3.60622 3.12508 5.125 3.12508H5.625L5.62891 3.27937ZM18.3838 22.5655C18.3719 22.5717 18.3597 22.5771 18.3477 22.5831L18.375 22.5567L18.3838 22.5655ZM7.125 14.3751C6.71079 14.3751 6.375 14.7109 6.375 15.1251C6.375 15.5393 6.71079 15.8751 7.125 15.8751H10.5537L10.6299 15.8712C11.0083 15.8329 11.3037 15.5135 11.3037 15.1251C11.3037 14.7366 11.0083 14.4172 10.6299 14.379L10.5537 14.3751H7.125ZM7.125 10.3751C6.71079 10.3751 6.375 10.7109 6.375 11.1251C6.375 11.5393 6.71079 11.8751 7.125 11.8751L15.125 11.8751C15.5392 11.8751 15.875 11.5393 15.875 11.1251C15.875 10.7109 15.5392 10.3751 15.125 10.3751L7.125 10.3751Z" fill="#141B34"/>
<path d="M20.1681 16.168C20.5587 15.7774 21.1917 15.7774 21.5822 16.168C21.9727 16.5585 21.9727 17.1915 21.5822 17.582L19.7892 19.375L21.5822 21.168C21.9727 21.5585 21.9727 22.1915 21.5822 22.582C21.1917 22.9726 20.5587 22.9726 20.1681 22.582L18.3752 20.7891L16.5822 22.582C16.1917 22.9726 15.5587 22.9726 15.1681 22.582C14.7776 22.1915 14.7776 21.5585 15.1681 21.168L16.9611 19.375L15.1681 17.582C14.7776 17.1915 14.7776 16.5585 15.1681 16.168C15.5587 15.7774 16.1917 15.7774 16.5822 16.168L18.3752 17.9609L20.1681 16.168Z" fill="#141B34"/>
</svg>
