<svg width="24" height="24" viewBox="0 0 24 24" fill="none" xmlns="http://www.w3.org/2000/svg">
<path fill-rule="evenodd" clip-rule="evenodd" d="M6.75 3.00005C6.75 2.03355 7.5335 1.25005 8.5 1.25005H13.5C14.4665 1.25005 15.25 2.03355 15.25 3.00005C15.25 3.96654 14.4665 4.75005 13.5 4.75005H8.5C7.5335 4.75005 6.75 3.96654 6.75 3.00005Z" fill="#141B34"/>
<path d="M5.50391 3.15434C5.58421 4.73949 6.8949 6.00005 8.5 6.00005L13.5 6.00005C15.1569 6.00005 16.5 4.6569 16.5 3.00005H17C18.5188 3.00005 19.75 4.23126 19.75 5.75005L19.75 13.0088C18.9416 12.9549 18.1151 13.2347 17.4971 13.8526L13.2363 18.1133C12.8301 18.5197 12.5531 19.0374 12.4404 19.6006L12.0391 21.6075C11.9614 21.9959 12.0051 22.391 12.1494 22.7481L5 22.7481C3.48129 22.7481 2.25011 21.5168 2.25 19.9981L2.25 5.75005C2.25 4.23126 3.48122 3.00005 5 3.00005H5.5L5.50391 3.15434ZM7 14.25C6.58579 14.25 6.25 14.5858 6.25 15C6.25 15.4143 6.58579 15.75 7 15.75H10.4287L10.5049 15.7461C10.8833 15.7079 11.1787 15.3885 11.1787 15C11.1787 14.6116 10.8833 14.2922 10.5049 14.254L10.4287 14.25H7ZM7 10.25C6.58579 10.25 6.25 10.5858 6.25 11C6.25 11.4143 6.58579 11.75 7 11.75L15 11.75C15.4142 11.75 15.75 11.4143 15.75 11C15.75 10.5858 15.4142 10.25 15 10.25L7 10.25Z" fill="#141B34"/>
<path d="M20.7294 14.7364C20.0808 14.088 19.0294 14.0879 18.3808 14.7364L14.12 18.9971C13.8882 19.2289 13.7303 19.5242 13.6659 19.8457L13.2646 21.8526C13.2154 22.0985 13.2923 22.353 13.4697 22.5303C13.647 22.7076 13.9015 22.7846 14.1474 22.7354L16.1542 22.334C16.4757 22.2697 16.771 22.1117 17.0029 21.8799L21.2636 17.6192C21.912 16.9706 21.912 15.9192 21.2636 15.2705L20.7294 14.7364Z" fill="#141B34"/>
</svg>
