<svg width="24" height="24" viewBox="0 0 24 24" fill="none" xmlns="http://www.w3.org/2000/svg">
<path fill-rule="evenodd" clip-rule="evenodd" d="M9.99988 2.25C9.03338 2.25 8.24988 3.0335 8.24988 4V4.75H7.83325C6.72308 4.75 5.72178 5.41753 5.29479 6.44231L3.67849 10.3214L2.44992 9.4C2.11855 9.15147 1.64845 9.21863 1.39992 9.55C1.15139 9.88137 1.21855 10.3515 1.54992 10.6L2.98233 11.6743L1.71178 13.5801C1.41063 14.0319 1.24992 14.5626 1.24992 15.1056L1.24992 20.75C1.24992 21.3023 1.69764 21.75 2.24992 21.75H3.99988C4.55216 21.75 4.99988 21.3023 4.99988 20.75V19.75C4.99988 19.1977 5.44759 18.75 5.99988 18.75H17.9999C18.5522 18.75 18.9999 19.1977 18.9999 19.75V20.75C18.9999 21.3023 19.4476 21.75 19.9999 21.75H21.7499C22.3022 21.75 22.7499 21.3023 22.7499 20.75V15.1056C22.7499 14.5626 22.5892 14.0319 22.2881 13.5801L21.0175 11.6743L22.4499 10.6C22.7813 10.3515 22.8484 9.88137 22.5999 9.55C22.3514 9.21863 21.8813 9.15147 21.5499 9.4L20.3214 10.3214L18.7051 6.44231C18.2781 5.41753 17.2768 4.75 16.1666 4.75H15.7499V4C15.7499 3.0335 14.9664 2.25 13.9999 2.25H9.99988ZM8.99988 6.25H7.83298C7.32835 6.25 6.87322 6.55342 6.67913 7.01923L5.02722 10.9838L6.09197 11.25H17.9073L18.9721 10.9838L17.3202 7.01923C17.1261 6.55342 16.6709 6.25 16.1663 6.25H14.9999H8.99988ZM17.9999 14C18.5522 14 18.9999 14.4477 18.9999 15V15.01C18.9999 15.5623 18.5522 16.01 17.9999 16.01C17.4476 16.01 16.9999 15.5623 16.9999 15.01V15C16.9999 14.4477 17.4476 14 17.9999 14ZM6.99988 15C6.99988 14.4477 6.55216 14 5.99988 14C5.44759 14 4.99988 14.4477 4.99988 15V15.01C4.99988 15.5623 5.44759 16.01 5.99988 16.01C6.55216 16.01 6.99988 15.5623 6.99988 15.01V15Z" fill="#141B34"/>
</svg>
