<svg width="24" height="24" viewBox="0 0 24 24" fill="none" xmlns="http://www.w3.org/2000/svg">
<path fill-rule="evenodd" clip-rule="evenodd" d="M14.1252 11.875C14.4883 11.875 14.823 12.0719 14.9993 12.3894L19.9993 21.3894C20.2676 21.8721 20.0936 22.4809 19.6108 22.7492C19.128 23.0174 18.5192 22.8434 18.251 22.3606L14.1252 14.9341L9.99934 22.3606C9.73113 22.8434 9.12232 23.0174 8.63954 22.7492C8.15676 22.4809 7.98281 21.8721 8.25102 21.3894L13.251 12.3894C13.4274 12.0719 13.762 11.875 14.1252 11.875Z" fill="#141B34"/>
<path fill-rule="evenodd" clip-rule="evenodd" d="M16.5684 1.44515C17.7099 0.785796 19.1694 1.17722 19.8282 2.3189L22.5552 7.04441C23.214 8.18588 22.8232 9.64563 21.6819 10.3049C20.5404 10.9642 19.0809 10.5728 18.422 9.43112L15.695 4.7056C15.0363 3.56414 15.4271 2.10439 16.5684 1.44515Z" fill="#141B34"/>
<path fill-rule="evenodd" clip-rule="evenodd" d="M7.49504 12.8819C7.76737 13.3624 7.59865 13.9727 7.11818 14.245L4.21985 15.8878L4.49869 16.3885C4.76744 16.8709 4.59416 17.4799 4.11167 17.7487C3.62918 18.0174 3.02019 17.8441 2.75145 17.3617L1.98315 15.9823L1.24505 14.6145C0.982751 14.1285 1.16411 13.5218 1.65013 13.2595C2.13615 12.9972 2.74279 13.1786 3.00509 13.6646L3.25835 14.1339L6.13196 12.5051C6.61243 12.2327 7.2227 12.4015 7.49504 12.8819Z" fill="#141B34"/>
<path d="M14.1371 4.18066L5.57887 9.23778C4.76693 9.71756 4.48122 10.7544 4.93283 11.5824L6.97456 15.3256C7.44865 16.1947 8.54878 16.4979 9.40115 15.9942L17.9707 10.9304C17.7119 10.688 17.484 10.4039 17.2977 10.0809L14.5706 5.35536C14.3543 4.98049 14.2113 4.58339 14.1371 4.18066Z" fill="#141B34"/>
</svg>
