<svg width="24" height="24" viewBox="0 0 24 24" fill="none" xmlns="http://www.w3.org/2000/svg">
<path fill-rule="evenodd" clip-rule="evenodd" d="M12 9.5C12 8.94772 12.4477 8.5 13 8.5H21C21.5523 8.5 22 8.94772 22 9.5C22 10.0523 21.5523 10.5 21 10.5H13C12.4477 10.5 12 10.0523 12 9.5Z" fill="#141B34"/>
<path fill-rule="evenodd" clip-rule="evenodd" d="M12 14.5C12 13.9477 12.4477 13.5 13 13.5H21C21.5523 13.5 22 13.9477 22 14.5C22 15.0523 21.5523 15.5 21 15.5H13C12.4477 15.5 12 15.0523 12 14.5Z" fill="#141B34"/>
<path fill-rule="evenodd" clip-rule="evenodd" d="M2 4.5C2 3.94772 2.44772 3.5 3 3.5H21C21.5523 3.5 22 3.94772 22 4.5C22 5.05228 21.5523 5.5 21 5.5H3C2.44772 5.5 2 5.05228 2 4.5Z" fill="#141B34"/>
<path fill-rule="evenodd" clip-rule="evenodd" d="M2 19.5C2 18.9477 2.44772 18.5 3 18.5H21C21.5523 18.5 22 18.9477 22 19.5C22 20.0523 21.5523 20.5 21 20.5H3C2.44772 20.5 2 20.0523 2 19.5Z" fill="#141B34"/>
<path d="M2 10.5C2 9.39543 2.89543 8.5 4 8.5H8C9.10457 8.5 10 9.39543 10 10.5V13.5C10 14.6046 9.10457 15.5 8 15.5H4C2.89543 15.5 2 14.6046 2 13.5V10.5Z" fill="#141B34"/>
</svg>
