<svg width="24" height="24" viewBox="0 0 24 24" fill="none" xmlns="http://www.w3.org/2000/svg">
<path fill-rule="evenodd" clip-rule="evenodd" d="M18 4.5C18 3.94772 18.4477 3.5 19 3.5H21C21.5523 3.5 22 3.94772 22 4.5C22 5.05228 21.5523 5.5 21 5.5H19C18.4477 5.5 18 5.05228 18 4.5Z" fill="#141B34"/>
<path fill-rule="evenodd" clip-rule="evenodd" d="M2 4.5C2 3.94772 2.44772 3.5 3 3.5H5C5.55228 3.5 6 3.94772 6 4.5C6 5.05228 5.55228 5.5 5 5.5H3C2.44772 5.5 2 5.05228 2 4.5Z" fill="#141B34"/>
<path fill-rule="evenodd" clip-rule="evenodd" d="M18 9.5C18 8.94772 18.4477 8.5 19 8.5H21C21.5523 8.5 22 8.94772 22 9.5C22 10.0523 21.5523 10.5 21 10.5H19C18.4477 10.5 18 10.0523 18 9.5Z" fill="#141B34"/>
<path fill-rule="evenodd" clip-rule="evenodd" d="M2 9.5C2 8.94772 2.44772 8.5 3 8.5H5C5.55228 8.5 6 8.94772 6 9.5C6 10.0523 5.55228 10.5 5 10.5H3C2.44772 10.5 2 10.0523 2 9.5Z" fill="#141B34"/>
<path fill-rule="evenodd" clip-rule="evenodd" d="M2 14.5C2 13.9477 2.44772 13.5 3 13.5H21C21.5523 13.5 22 13.9477 22 14.5C22 15.0523 21.5523 15.5 21 15.5H3C2.44772 15.5 2 15.0523 2 14.5Z" fill="#141B34"/>
<path fill-rule="evenodd" clip-rule="evenodd" d="M2 19.5C2 18.9477 2.44772 18.5 3 18.5H21C21.5523 18.5 22 18.9477 22 19.5C22 20.0523 21.5523 20.5 21 20.5H3C2.44772 20.5 2 20.0523 2 19.5Z" fill="#141B34"/>
<path d="M8 5.5C8 4.39543 8.89543 3.5 10 3.5H14C15.1046 3.5 16 4.39543 16 5.5V8.5C16 9.60457 15.1046 10.5 14 10.5H10C8.89543 10.5 8 9.60457 8 8.5V5.5Z" fill="#141B34"/>
</svg>
