<svg width="24" height="24" viewBox="0 0 24 24" fill="none" xmlns="http://www.w3.org/2000/svg">
<path fill-rule="evenodd" clip-rule="evenodd" d="M22 4.5C22 3.94772 21.5523 3.5 21 3.5H13C12.4477 3.5 12 3.94772 12 4.5C12 5.05228 12.4477 5.5 13 5.5H21C21.5523 5.5 22 5.05228 22 4.5Z" fill="#141B34"/>
<path fill-rule="evenodd" clip-rule="evenodd" d="M22 9.5C22 8.94772 21.5523 8.5 21 8.5H13C12.4477 8.5 12 8.94772 12 9.5C12 10.0523 12.4477 10.5 13 10.5H21C21.5523 10.5 22 10.0523 22 9.5Z" fill="#141B34"/>
<path fill-rule="evenodd" clip-rule="evenodd" d="M22 14.5C22 13.9477 21.5523 13.5 21 13.5H3C2.44772 13.5 2 13.9477 2 14.5C2 15.0523 2.44772 15.5 3 15.5H21C21.5523 15.5 22 15.0523 22 14.5Z" fill="#141B34"/>
<path fill-rule="evenodd" clip-rule="evenodd" d="M22 19.5C22 18.9477 21.5523 18.5 21 18.5H3C2.44772 18.5 2 18.9477 2 19.5C2 20.0523 2.44772 20.5 3 20.5H21C21.5523 20.5 22 20.0523 22 19.5Z" fill="#141B34"/>
<path d="M10 5.5C10 4.39543 9.10457 3.5 8 3.5H4C2.89543 3.5 2 4.39543 2 5.5V8.5C2 9.60457 2.89543 10.5 4 10.5H8C9.10457 10.5 10 9.60457 10 8.5V5.5Z" fill="#141B34"/>
</svg>
