<svg width="24" height="24" viewBox="0 0 24 24" fill="none" xmlns="http://www.w3.org/2000/svg">
<path d="M19.4843 4.40899C20.7609 3.91641 22.1485 4.60478 22.6031 5.87877C22.8275 6.50774 22.7945 7.10634 22.5065 7.65006C22.2413 8.15061 21.7937 8.53871 21.3273 8.86347C21.1673 8.97488 21.0042 9.08433 20.838 9.19592L20.8379 9.19594C20.2283 9.60508 19.5757 10.043 18.8753 10.7122C17.985 11.5629 17.1053 12.5984 16.314 13.6317C15.3527 14.8871 14.4494 16.1905 13.6566 17.5434C13.2192 18.293 12.4223 18.7615 11.5518 18.7498C10.6816 18.738 9.89725 18.2487 9.47917 17.4879C8.76624 16.1904 8.2544 15.7492 8.10297 15.639C7.9608 15.5355 7.81247 15.4508 7.62974 15.3464L7.61664 15.3389C7.44493 15.2409 7.22503 15.1153 7.02581 14.955C6.814 14.7846 6.60836 14.5629 6.46167 14.2574C6.31607 13.9543 6.25006 13.6135 6.25006 13.2335C6.25006 11.89 7.30468 10.7502 8.66681 10.7502C8.6768 10.7502 8.68679 10.7504 8.69678 10.7508C9.55366 10.7851 10.298 11.15 10.8974 11.5863C11.0756 11.7161 11.256 11.8629 11.4381 12.0285C11.7655 11.5636 12.1268 11.0677 12.5153 10.5604C13.3969 9.40906 14.4475 8.16061 15.5838 7.07491C16.6928 6.01542 18.0259 4.97168 19.4843 4.40899Z" fill="#141B34"/>
<path fill-rule="evenodd" clip-rule="evenodd" d="M15.9343 4.64363C16.1313 5.1596 15.8727 5.73755 15.3567 5.93451C14.1864 6.38126 13.0262 7.25288 11.9643 8.25662C11.5984 8.60248 11.2387 8.96935 10.8884 9.34807C10.5134 9.75355 9.88076 9.77827 9.47528 9.40329C9.06981 9.02831 9.04509 8.39563 9.42007 7.99015C9.79622 7.58341 10.1875 7.18405 10.5904 6.80318C11.7303 5.72574 13.1155 4.64927 14.6434 4.06603C15.1594 3.86906 15.7373 4.12767 15.9343 4.64363ZM1.00006 13.1936C1.00006 11.703 2.18176 10.4457 3.69893 10.4457C3.71211 10.4457 3.72529 10.4459 3.73847 10.4465L3.87935 10.452C3.89165 10.4525 3.90394 10.4532 3.91621 10.4542C3.99458 10.4602 4.0784 10.4697 4.16726 10.4836C4.34547 10.5115 4.54101 10.5567 4.75078 10.6254C5.27566 10.7972 5.56186 11.362 5.39004 11.8869C5.21821 12.4118 4.65343 12.698 4.12855 12.5261C4.02145 12.4911 3.93057 12.4709 3.8579 12.4595L4.01258 11.4716L3.8579 12.4595C3.82837 12.4549 3.80195 12.4517 3.77878 12.4496L3.68377 12.4459C3.33009 12.4544 3.00006 12.7597 3.00006 13.1936C3.00006 13.589 3.27879 13.883 3.59417 13.9332C3.70167 13.9504 3.80566 13.9849 3.90202 14.0356C3.97422 14.0735 4.06008 14.1255 4.15854 14.1964L3.57413 15.0079L4.15854 14.1964C4.58167 14.5011 5.25934 15.1724 6.07114 16.634C6.20037 16.8667 6.42952 16.9971 6.66325 17.0002C6.74095 17.0013 6.81703 16.9885 6.88922 16.9631C7.41023 16.7799 7.98112 17.0537 8.16432 17.5747C8.34753 18.0957 8.07369 18.6666 7.55267 18.8498C7.26265 18.9518 6.95313 19.0043 6.63653 19C5.66682 18.9871 4.7906 18.4475 4.32271 17.6051C3.68541 16.4577 3.21864 16.0042 3.04127 15.8592C1.85185 15.5565 1.00006 14.4622 1.00006 13.1936Z" fill="#141B34"/>
</svg>
