<svg width="24" height="24" viewBox="0 0 24 24" fill="none" xmlns="http://www.w3.org/2000/svg">
<path d="M4 9.75C4.9665 9.75 5.75 8.9665 5.75 8C5.75 7.0335 4.9665 6.25 4 6.25C3.0335 6.25 2.25 7.0335 2.25 8C2.25 8.9665 3.0335 9.75 4 9.75Z" fill="#141B34"/>
<path d="M4 17.75C4.9665 17.75 5.75 16.9665 5.75 16C5.75 15.0335 4.9665 14.25 4 14.25C3.0335 14.25 2.25 15.0335 2.25 16C2.25 16.9665 3.0335 17.75 4 17.75Z" fill="#141B34"/>
<path d="M3 20.5V3.5C3 2.94772 3.44772 2.5 4 2.5C4.55228 2.5 5 2.94772 5 3.5V20.5C5 21.0523 4.55228 21.5 4 21.5C3.44772 21.5 3 21.0523 3 20.5Z" fill="#141B34"/>
<path d="M19.75 6C19.75 5.58579 19.4142 5.25 19 5.25H11C10.8508 5.25 10.7063 5.29445 10.584 5.37598L10.4697 5.46973L8.46973 7.46973C8.17683 7.76262 8.17683 8.23738 8.46973 8.53027L10.4697 10.5303C10.6104 10.6709 10.8011 10.75 11 10.75H19C19.4142 10.75 19.75 10.4142 19.75 10V6Z" fill="#141B34"/>
<path d="M21.75 14C21.75 13.5858 21.4142 13.25 21 13.25H11C10.8508 13.25 10.7063 13.2944 10.584 13.376L10.4697 13.4697L8.46973 15.4697C8.17683 15.7626 8.17683 16.2374 8.46973 16.5303L10.4697 18.5303C10.6104 18.6709 10.8011 18.75 11 18.75H21C21.4142 18.75 21.75 18.4142 21.75 18V14Z" fill="#141B34"/>
</svg>
