<svg width="24" height="24" viewBox="0 0 24 24" fill="none" xmlns="http://www.w3.org/2000/svg">
<path d="M12 22.75C13.5188 22.75 14.75 21.5188 14.75 20C14.75 18.4812 13.5188 17.25 12 17.25C10.4812 17.25 9.25 18.4812 9.25 20C9.25 21.5188 10.4812 22.75 12 22.75Z" fill="#141B34"/>
<path d="M12 15.75C12.2483 15.75 12.4805 15.6271 12.6201 15.4219L13.9717 13.4316C16.4566 12.6059 18.25 10.2636 18.25 7.5C18.25 4.04822 15.4518 1.25 12 1.25C8.54822 1.25 5.75 4.04822 5.75 7.5C5.75 10.2633 7.54283 12.6057 10.0273 13.4316L11.3799 15.4219C11.5195 15.6271 11.7517 15.75 12 15.75ZM14.332 9.05469C14.0257 9.51422 13.4048 9.63838 12.9453 9.33203L11.4453 8.33203C11.1671 8.14657 11 7.83435 11 7.5L11 5C11 4.44771 11.4477 4 12 4C12.5523 4 13 4.44771 13 5V6.96484L14.0547 7.66797C14.5142 7.97432 14.6384 8.59516 14.332 9.05469Z" fill="#141B34"/>
<path d="M10 19C10.5523 19 11 19.4477 11 20C11 20.5523 10.5523 21 10 21H3.5C2.94772 21 2.5 20.5523 2.5 20C2.5 19.4477 2.94772 19 3.5 19H10ZM20.5 19C21.0523 19 21.5 19.4477 21.5 20C21.5 20.5523 21.0523 21 20.5 21H14C13.4477 21 13 20.5523 13 20C13 19.4477 13.4477 19 14 19H20.5Z" fill="#141B34"/>
</svg>
