<svg width="24" height="24" viewBox="0 0 24 24" fill="none" xmlns="http://www.w3.org/2000/svg">
<path d="M12 17C12.5523 17 13 16.5523 13 16L13 5.41406L14.293 6.70703C14.6835 7.09737 15.3166 7.09742 15.707 6.70703C16.0975 6.31656 16.0974 5.68351 15.707 5.29297L12.707 2.29297C12.3409 1.92685 11.7619 1.90426 11.3691 2.22461L11.293 2.29297L8.29297 5.29297C7.90252 5.6835 7.90247 6.31653 8.29297 6.70703C8.68348 7.09737 9.31655 7.09742 9.70703 6.70703L11 5.41406L11 16C11 16.5523 11.4477 17 12 17ZM18 23C19.6569 23 21 21.6569 21 20V12C21 10.3431 19.6569 9 18 9H16C15.4477 9 15 9.44771 15 10C15 10.5523 15.4477 11 16 11H18C18.5523 11 19 11.4477 19 12V20C19 20.5523 18.5523 21 18 21L6 21C5.44772 21 5 20.5523 5 20L5 12C5 11.4477 5.44772 11 6 11H8C8.55228 11 9 10.5523 9 10C9 9.44771 8.55228 9 8 9H6C4.34315 9 3 10.3431 3 12L3 20C3 21.6569 4.34315 23 6 23L18 23Z" fill="#141B34"/>
</svg>
