<svg width="24" height="24" viewBox="0 0 24 24" fill="none" xmlns="http://www.w3.org/2000/svg">
<path fill-rule="evenodd" clip-rule="evenodd" d="M6.77072 4.19986C4.80118 4.19986 3.20455 5.79275 3.20455 7.7577V7.94159C3.20455 8.87487 3.59753 9.73941 4.25 10.3504V9.99988C4.25 9.58566 4.58579 9.24988 5 9.24988H5.99254C9.25472 9.24988 12.0501 11.5828 12.6337 14.7924L13.7379 20.8657C13.7777 21.0845 13.7183 21.3097 13.5758 21.4804C13.4333 21.6512 13.2224 21.7499 13 21.7499H9.2604C10.0264 20.9812 10.5 19.9208 10.5 18.7499C10.5 16.4027 8.59721 14.4999 6.25 14.4999C5.52695 14.4999 4.84607 14.6804 4.25 14.9989V12.6836C2.43469 11.8214 1.25 9.98512 1.25 7.94159V7.7577C1.25 4.71581 3.72171 2.24988 6.77072 2.24988C9.74482 2.24988 12.4521 3.96139 13.7221 6.64442L19.9488 19.7997H21.7727C22.3125 19.7997 22.75 20.2362 22.75 20.7747C22.75 21.3131 22.3125 21.7496 21.7727 21.7496H19.3514C19.3372 21.75 19.3231 21.75 19.309 21.7496H16.3977C15.858 21.7496 15.4205 21.3131 15.4205 20.7747C15.4205 20.2362 15.858 19.7997 16.3977 19.7997H17.7873L11.9547 7.47708C11.0076 5.47621 8.98865 4.19986 6.77072 4.19986ZM3.25 18.7499C3.25 17.093 4.59315 15.7499 6.25 15.7499C7.90685 15.7499 9.25 17.093 9.25 18.7499C9.25 20.4067 7.90685 21.7499 6.25 21.7499C4.59315 21.7499 3.25 20.4067 3.25 18.7499ZM6.25 17.7499C5.69772 17.7499 5.25 18.1976 5.25 18.7499C5.25 19.3022 5.69772 19.7499 6.25 19.7499C6.80228 19.7499 7.25 19.3022 7.25 18.7499C7.25 18.1976 6.80228 17.7499 6.25 17.7499Z" fill="#141B34"/>
</svg>
