<svg width="24" height="24" viewBox="0 0 24 24" fill="none" xmlns="http://www.w3.org/2000/svg">
<path fill-rule="evenodd" clip-rule="evenodd" d="M22.6317 12.4045L22.6256 12.4133C22.4803 12.622 22.0658 13.2176 21.8082 13.5517C21.2865 14.2283 20.5302 15.1324 19.5926 16.0391C17.7471 17.8238 15.0641 19.75 12.0001 19.75C8.93616 19.75 6.25318 17.8238 4.40768 16.0391C3.47006 15.1324 2.71375 14.2283 2.19204 13.5517C1.93473 13.218 1.52061 12.623 1.37493 12.4136L1.37489 12.4136L1.3683 12.4041C1.21073 12.1577 1.21073 11.8423 1.3683 11.5959L1.37487 11.5865C1.52049 11.3772 1.93469 10.782 2.19204 10.4483C2.71375 9.77169 3.47006 8.86758 4.40768 7.96086C6.25318 6.17619 8.93616 4.25 12.0001 4.25C15.0641 4.25 17.7471 6.17619 19.5926 7.96086C20.5302 8.86758 21.2865 9.77169 21.8082 10.4483C22.0656 10.7821 22.48 11.3775 22.6255 11.5866L22.6319 11.5959C22.7895 11.8423 22.7892 12.1582 22.6317 12.4045ZM12.0001 15.75C9.92905 15.75 8.25012 14.0711 8.25012 12C8.25012 9.92893 9.92905 8.25 12.0001 8.25C14.0712 8.25 15.7501 9.92893 15.7501 12C15.7501 14.0711 14.0712 15.75 12.0001 15.75Z" fill="#141B34"/>
</svg>
