<svg width="24" height="24" viewBox="0 0 24 24" fill="none" xmlns="http://www.w3.org/2000/svg">
<path fill-rule="evenodd" clip-rule="evenodd" d="M6.22388 3.5816C6.85425 3.33078 7.56295 3.16298 8.22914 3.29787C9.41277 3.53753 10.1891 4.48431 10.6417 5.35294C11.002 6.04443 11.2098 6.77454 11.3714 7.46554C11.4363 7.74287 11.4918 8.00304 11.5454 8.25472C11.6329 8.66454 11.7155 9.05188 11.826 9.45421L12.5429 12.0649C12.6121 12.2817 12.7474 12.5428 12.9325 12.7655C13.1225 12.9941 13.3253 13.1356 13.5096 13.1901C13.667 13.2367 13.8702 13.2396 14.1503 13.0721C14.4539 12.8906 14.8564 12.5003 15.3144 11.7279C16.2544 10.143 16.3636 9.16727 16.1934 8.66988C16.0625 8.28712 15.6501 7.92777 14.5674 7.92456C14.3104 7.9238 14.0717 7.79149 13.9348 7.57396C13.798 7.35643 13.782 7.08396 13.8926 6.85195C14.1924 6.22274 14.9175 5.32741 15.8934 4.59992C16.8799 3.86452 18.2102 3.2356 19.7346 3.28332C20.5528 3.30893 21.2251 3.52772 21.7345 3.93852C22.2449 4.35021 22.5201 4.89702 22.6484 5.44662C22.8921 6.49046 22.6344 7.64885 22.3586 8.39935C21.4168 11.8334 18.4121 16.4125 15.4001 19.1617C13.7887 20.6326 12.3563 20.9871 11.146 20.6206C10.0234 20.2807 9.32619 19.3804 8.98753 18.8667C8.4692 18.1546 8.0052 17.1362 7.59861 16.0496C7.18376 14.941 6.80826 13.7047 6.48588 12.534C6.16306 11.3617 5.89076 10.2451 5.68376 9.3743C5.62694 9.13529 5.576 8.91917 5.53081 8.72749C5.53003 8.72414 5.52924 8.72081 5.52845 8.71748L3.41605 10.1258C3.23705 10.2451 3.01544 10.2818 2.80752 10.2266C2.5996 10.1714 2.42541 10.0295 2.3292 9.83712L1.3292 7.83712C1.18483 7.54838 1.24142 7.19965 1.46969 6.97138C1.99452 6.44655 3.09514 5.45377 4.31112 4.63232C4.91887 4.22175 5.57773 3.8387 6.22388 3.5816Z" fill="#141B34"/>
</svg>
