<svg width="24" height="24" viewBox="0 0 24 24" fill="none" xmlns="http://www.w3.org/2000/svg">
<path d="M1.54302 1.54289C1.93354 1.15237 2.5667 1.15237 2.95723 1.54289L22.4572 21.0429C22.8478 21.4334 22.8478 22.0666 22.4572 22.4571C22.0667 22.8476 21.4335 22.8476 21.043 22.4571L1.54302 2.95711C1.15249 2.56658 1.15249 1.93342 1.54302 1.54289Z" fill="#141B34"/>
<path d="M21.3235 20.9619C20.837 21.7344 19.9807 22.25 19.0002 22.25H5.00024C3.48146 22.25 2.25024 21.0188 2.25024 19.5V8.5L2.25415 8.42285C2.29277 8.04488 2.61208 7.75 3.00024 7.75H8.11157L21.3235 20.9619Z" fill="#141B34"/>
<path d="M19.0002 7.75C20.519 7.75 21.7502 8.98122 21.7502 10.5V18.2148L11.2854 7.75H19.0002Z" fill="#141B34"/>
<path d="M13.7766 1.74951C14.8666 1.74951 15.7502 2.63318 15.7502 3.72314V6.49951H10.0354L7.88013 4.34424L12.928 1.94092L13.1311 1.85791C13.3382 1.78622 13.5564 1.74952 13.7766 1.74951Z" fill="#141B34"/>
<path d="M1.54302 1.54289C1.93354 1.15237 2.5667 1.15237 2.95723 1.54289L22.4572 21.0429C22.8478 21.4334 22.8478 22.0666 22.4572 22.4571C22.0667 22.8476 21.4335 22.8476 21.043 22.4571L1.54302 2.95711C1.15249 2.56658 1.15249 1.93342 1.54302 1.54289Z" fill="#141B34"/>
<path d="M21.3235 20.9619C20.837 21.7344 19.9807 22.25 19.0002 22.25H5.00024C3.48146 22.25 2.25024 21.0188 2.25024 19.5V8.5L2.25415 8.42285C2.29277 8.04488 2.61208 7.75 3.00024 7.75H8.11157L21.3235 20.9619Z" fill="#141B34"/>
<path d="M19.0002 7.75C20.519 7.75 21.7502 8.98122 21.7502 10.5V18.2148L11.2854 7.75H19.0002Z" fill="#141B34"/>
<path d="M13.7766 1.74951C14.8666 1.74951 15.7502 2.63318 15.7502 3.72314V6.49951H10.0354L7.88013 4.34424L12.928 1.94092L13.1311 1.85791C13.3382 1.78622 13.5564 1.74952 13.7766 1.74951Z" fill="#141B34"/>
</svg>
