<svg width="24" height="24" viewBox="0 0 24 24" fill="none" xmlns="http://www.w3.org/2000/svg">
<path d="M4.32618 6.24678L5.134 19.172C5.22458 20.6214 6.42645 21.7505 7.87861 21.7505H11.2748C11.4458 21.7505 11.5406 21.5474 11.4392 21.4097C11.2099 21.0983 11.0115 20.7633 10.8481 20.4095C10.5759 19.8202 10.497 19.1576 10.8151 18.6632C10.8738 18.572 10.8629 18.4547 10.7979 18.3678C10.5781 18.0742 10.513 17.9976 10.3863 17.7441L9.38627 15.7441C8.95404 14.8797 9.30444 13.8285 10.1689 13.3962C10.7532 13.1041 11.4227 13.1695 11.9288 13.5095C12.0561 13.595 12.2273 13.5994 12.3469 13.5035C13.3108 12.7312 14.5383 12.2115 15.9515 12.2115C17.2509 12.2115 18.4378 12.6578 19.3832 13.3989C19.5152 13.5023 19.7166 13.4194 19.7273 13.2521L20.1723 6.24168L20.2799 4.7644C20.2926 4.59059 20.155 4.4426 19.9807 4.4426H4.47752C4.30005 4.4426 4.16138 4.59581 4.179 4.77239L4.32618 6.24678Z" fill="#141B34"/>
<path fill-rule="evenodd" clip-rule="evenodd" d="M10.959 1.9114C11.3383 1.49086 11.878 1.25079 12.4443 1.25079H17.7256C18.637 1.25079 19.433 1.86686 19.6617 2.74903L20.0481 4.24018L21.0106 4.25085C21.5629 4.25698 22.0056 4.70964 21.9995 5.26189C21.9934 5.81154 21.5449 6.25269 20.9962 6.25079H3.00255C2.45027 6.25247 2.00119 5.80611 1.99952 5.25383C1.99784 4.70155 2.44419 4.25248 2.99648 4.2508L8.86547 4.23298L10.959 1.9114ZM11.5598 4.34192H17.9799L17.7797 3.48272C17.7481 3.3469 17.627 3.25079 17.4875 3.25079H12.5873C12.4969 3.25079 12.4112 3.29161 12.3543 3.36188L11.5598 4.34192Z" fill="#141B34"/>
<path fill-rule="evenodd" clip-rule="evenodd" d="M15.9516 15.6922C14.8716 15.6922 13.9346 16.5494 13.631 17.4604C13.5031 17.8441 13.1566 18.113 12.7532 18.1417C12.3497 18.1704 11.9688 17.9532 11.7879 17.5914L10.9705 15.9567C10.7235 15.4628 10.9238 14.8621 11.4178 14.6151C11.9117 14.3681 12.5124 14.5683 12.7594 15.0623L12.782 15.1075C13.5551 14.2901 14.652 13.6922 15.9516 13.6922C17.6356 13.6922 19.0697 14.7068 19.7321 16.1411C19.9637 16.6425 19.745 17.2367 19.2436 17.4682C18.7422 17.6998 18.148 17.4811 17.9164 16.9797C17.5586 16.2049 16.8036 15.6922 15.9516 15.6922ZM19.1501 18.2086C19.5535 18.1799 19.9345 18.3971 20.1154 18.7588L20.9327 20.3935C21.1797 20.8875 20.9795 21.4882 20.4855 21.7351C19.9915 21.9821 19.3909 21.7819 19.1439 21.2879L19.1213 21.2428C18.3482 22.0601 17.2513 22.6581 15.9516 22.6581C14.2677 22.6581 12.8336 21.6434 12.1711 20.2092C11.9396 19.7078 12.1583 19.1136 12.6597 18.882C13.1611 18.6504 13.7553 18.8692 13.9868 19.3706C14.3447 20.1454 15.0997 20.6581 15.9516 20.6581C17.0317 20.6581 17.9686 19.8008 18.2723 18.8898C18.4002 18.5061 18.7466 18.2372 19.1501 18.2086Z" fill="#141B34"/>
</svg>
