<svg width="24" height="24" viewBox="0 0 24 24" fill="none" xmlns="http://www.w3.org/2000/svg">
<path fill-rule="evenodd" clip-rule="evenodd" d="M3.42257 1C3.97486 1 4.42257 1.44772 4.42257 2V4.5H6.66437V4C6.66437 3.0335 7.44787 2.25 8.41437 2.25H14.4144C15.3809 2.25 16.1644 3.0335 16.1644 4V4.5H18.4149C20.0717 4.5 21.4149 5.84315 21.4149 7.5V12.1818C21.5627 12.2673 21.7019 12.3734 21.8284 12.4998L23.4142 14.0856C24.1953 14.8667 24.1953 16.133 23.4142 16.9141L21.8284 18.4998C21.7018 18.6265 21.5624 18.7326 21.4144 18.8182V20C21.4144 20.5523 21.8621 21 22.4144 21H22.9144C23.4667 21 23.9144 21.4477 23.9144 22C23.9144 22.5523 23.4667 23 22.9144 23H22.4144C20.7575 23 19.4144 21.6569 19.4144 20V18.8183C19.2662 18.7327 19.1267 18.6266 19 18.4998L17.4142 16.9141C17.2876 16.7874 17.1815 16.648 17.0959 16.5H16.1644V17C16.1644 17.9665 15.3809 18.75 14.4144 18.75H8.41437C7.44787 18.75 6.66437 17.9665 6.66437 17V16.5H5.41632C3.75855 16.5 2.41503 15.1554 2.41632 13.4977L2.42257 2C2.42257 1.44772 2.87029 1 3.42257 1ZM4.42179 6.5H6.66437V7C6.66437 7.9665 7.44787 8.75 8.41437 8.75H14.4144C15.3809 8.75 16.1644 7.9665 16.1644 7V6.5H18.4149C18.9672 6.5 19.4149 6.94772 19.4149 7.5V12.1811C19.2666 12.2667 19.1269 12.373 19 12.4998L17.4142 14.0856C17.2875 14.2124 17.1813 14.3519 17.0957 14.5H16.1644V14C16.1644 13.0335 15.3809 12.25 14.4144 12.25H8.41437C7.44787 12.25 6.66437 13.0335 6.66437 14V14.5H5.41632C4.86373 14.5 4.41589 14.0518 4.41632 13.4992L4.42179 6.5Z" fill="#141B34"/>
</svg>
