<svg xmlns="http://www.w3.org/2000/svg" viewBox="0 0 512 512"><!--! Font Awesome Pro 7.0.0 by @fontawesome - https://fontawesome.com License - https://fontawesome.com/license (Commercial License) Copyright 2025 Fonticons, Inc. --><path fill="currentColor" d="M128.3 0l0 48 256 0 0-48-256 0zm-64 192L9 192c1.2 8.3 14.5 101.3 39.8 278.8l5.9 41.2 403.3 0 5.9-41.2c25.4-177.6 38.6-270.5 39.8-278.8L64.3 192zm352 160c0 61.9-71.6 112-160 112s-160-50.1-160-112 71.6-112 160-112 160 50.1 160 112zm-160 28c22.1 0 40-12.5 40-28s-17.9-28-40-28-40 12.5-40 28 17.9 28 40 28zM104.3 96l-24 0 0 48 352 0 0-48-328 0z"/></svg>