<svg xmlns="http://www.w3.org/2000/svg" viewBox="0 0 512 512"><!--! Font Awesome Pro 7.0.0 by @fontawesome - https://fontawesome.com License - https://fontawesome.com/license (Commercial License) Copyright 2025 Fonticons, Inc. --><path fill="currentColor" d="M120 0l-24 0 0 96-96 0 0 384 512 0 0-384-96 0 0-96-296 0zM368 96l-224 0 0-48 224 0 0 48zM72 192a24 24 0 1 1 48 0 24 24 0 1 1 -48 0zm120-24a24 24 0 1 1 0 48 24 24 0 1 1 0-48zm104 24a24 24 0 1 1 48 0 24 24 0 1 1 -48 0zm120-24a24 24 0 1 1 0 48 24 24 0 1 1 0-48zM400 304l-288 0 0 64 288 0 0-64zM112 256l336 0 0 160-384 0 0-160 48 0z"/></svg>