<svg xmlns="http://www.w3.org/2000/svg" viewBox="0 0 640 512"><!--! Font Awesome Pro 7.0.0 by @fontawesome - https://fontawesome.com License - https://fontawesome.com/license (Commercial License) Copyright 2025 Fonticons, Inc. --><path fill="currentColor" d="M288 64a32 32 0 1 0 0 64 32 32 0 1 0 0-64zM192 96c0-53 43-96 96-96s96 43 96 96c0 41.8-26.7 77.4-64 90.5l0 261.5 48 0 0 64-288 0 0-204.1c-10.5 9.2-21.9 19.2-34.3 30L14.1 301.7c4.4-3.8 31.7-27.8 82.1-71.8L112 216.1c2.5 2.2 29.1 25.5 79.8 69.8l18.1 15.8-31.6 36.1c-12.4-10.8-23.8-20.8-34.3-30l0 140.1 112 0 0-261.5c-37.3-13.2-64-48.7-64-90.5zM528 272c-17.7 0-32 14.3-32 32l0 48 64 0 0-48c0-17.7-14.3-32-32-32zm-80 32c0-44.2 35.8-80 80-80s80 35.8 80 80l0 48 32 0 0 192-224 0 0-192 32 0 0-48z"/></svg>