<svg xmlns="http://www.w3.org/2000/svg" viewBox="0 0 576 512"><!--! Font Awesome Pro 7.0.0 by @fontawesome - https://fontawesome.com License - https://fontawesome.com/license (Commercial License) Copyright 2025 Fonticons, Inc. --><path fill="currentColor" d="M182.9 9.4L160.3-13.3c-2.9 2.9-42.4 42.4-118.6 118.6L19 128 64.3 173.3c12-12 33.3-33.3 64-64l0 402.7 64 0 0-402.7c30.7 30.7 52 52 64 64L301.5 128c-2.9-2.9-42.4-42.4-118.6-118.6zm256 493.3l118.6-118.6-45.3-45.3-64 64 0-402.7-64 0 0 402.7-64-64-45.3 45.3c2.9 2.9 42.4 42.4 118.6 118.6l22.6 22.6 22.6-22.6z"/></svg>