<svg xmlns="http://www.w3.org/2000/svg" viewBox="0 0 640 512"><!--! Font Awesome Pro 7.0.0 by @fontawesome - https://fontawesome.com License - https://fontawesome.com/license (Commercial License) Copyright 2025 Fonticons, Inc. --><path fill="currentColor" d="M176.4 32l-48 0 0 62.1-80-80-33.9 33.9c3.6 3.6 30.3 30.3 80 80l-62.1 0 0 48 144 0 0-144zm144 88c-80.7 0-139.9 67.5-170.2 136 30.3 68.5 89.6 136 170.2 136s139.9-67.5 170.2-136c-30.3-68.5-89.6-136-170.2-136zm-.9 72a64 64 0 1 1 .9 128 64 64 0 1 1 -.9-128zM176.4 456l0-120-144 0 0 48 62.1 0c-49.7 49.7-76.4 76.4-80 80l33.9 33.9c3.6-3.6 30.3-30.3 80-80l0 62.1 48 0 0-24zm288 0l0 24 48 0 0-62.1c49.7 49.7 76.4 76.4 80 80L626.4 464c-3.6-3.6-30.3-30.3-80-80l62.1 0 0-48-144 0 0 120zm0-424l0 144 144 0 0-48-62.1 0c49.7-49.7 76.4-76.4 80-80L592.4 14.1c-3.6 3.6-30.3 30.3-80 80l0-62.1-48 0z"/></svg>