<svg xmlns="http://www.w3.org/2000/svg" viewBox="0 0 576 512"><!--! Font Awesome Pro 7.0.0 by @fontawesome - https://fontawesome.com License - https://fontawesome.com/license (Commercial License) Copyright 2025 Fonticons, Inc. --><path fill="currentColor" d="M534.9 150.6c-76.2 76.2-115.8 115.8-118.6 118.6L371 224c12-12 33.3-33.3 64-64l-402.7 0 0-64 402.7 0c-30.7-30.7-52-52-64-64l45.3-45.3c2.9 2.9 42.4 42.4 118.6 118.6l22.6 22.6-22.6 22.6zM41.6 406.6L19 384c2.9-2.9 42.4-42.4 118.6-118.6l22.6-22.6 45.3 45.3-64 64 402.7 0 0 64-402.7 0 64 64-45.3 45.3c-2.9-2.9-42.4-42.4-118.6-118.6z"/></svg>