<svg xmlns="http://www.w3.org/2000/svg" viewBox="0 0 512 512"><!--! Font Awesome Pro 7.0.0 by @fontawesome - https://fontawesome.com License - https://fontawesome.com/license (Commercial License) Copyright 2025 Fonticons, Inc. --><path fill="currentColor" d="M254.4 52.8l-38.4-28.8 0 40-216 0 0 224 448 0 0 96-8.6 0c-11.1-19.1-31.7-32-55.4-32-35.3 0-64 28.7-64 64s28.7 64 64 64c23.7 0 44.4-12.9 55.4-32l72.6 0 0-224-448 0 0-96 152 0 0 40c60.8-45.6 83.2-62.4 96-72L254.4 52.8zM416 160a64 64 0 1 0 0-128 64 64 0 1 0 0 128zM151.4 448l32.6 0 0 40c60.8-45.6 83.2-62.4 96-72-35.2-26.4-76.8-57.6-96-72l0 40-32.6 0c-11.1-19.1-31.7-32-55.4-32-35.3 0-64 28.7-64 64s28.7 64 64 64c23.7 0 44.4-12.9 55.4-32z"/></svg>