<svg xmlns="http://www.w3.org/2000/svg" viewBox="0 0 512 512"><!--! Font Awesome Pro 7.0.0 by @fontawesome - https://fontawesome.com License - https://fontawesome.com/license (Commercial License) Copyright 2025 Fonticons, Inc. --><path fill="currentColor" d="M96.4 169.9c-3.5-3.5-30.5-30.5-81-81l-17-17 33.9-33.9 40 40 0-110.1 48 0 0 110.1 40-40 33.9 33.9-81 81-17 17zm320 0c-3.5-3.5-30.5-30.5-81-81l-17-17 33.9-33.9c10.3 10.3 23.6 23.6 40 40l0-110.1 48 0 0 110.1c16.4-16.4 29.7-29.7 40-40L514.4 72c-3.5 3.5-30.5 30.5-81 81l-17 17zM256.4 192a56 56 0 1 1 0 112 56 56 0 1 1 0-112zm0 160c53 0 96 43 96 96l0 64-192 0 0-64c0-53 43-96 96-96zm-224-64a48 48 0 1 1 96 0 48 48 0 1 1 -96 0zm352 0a48 48 0 1 1 96 0 48 48 0 1 1 -96 0zm-304 80c15.3 0 29.6 4.3 41.8 11.8-6.3 16.2-9.8 33.8-9.8 52.2l0 80-112 0 0-64c0-44.2 35.8-80 80-80zm320 144l0-80c0-18.4-3.5-36-9.8-52.2 12.2-7.5 26.5-11.8 41.8-11.8 44.2 0 80 35.8 80 80l0 64-112 0z"/></svg>