<svg xmlns="http://www.w3.org/2000/svg" viewBox="0 0 576 512"><!--! Font Awesome Pro 7.0.0 by @fontawesome - https://fontawesome.com License - https://fontawesome.com/license (Commercial License) Copyright 2025 Fonticons, Inc. --><path fill="currentColor" d="M374.9-22.6L352.3-45.3c-2.9 2.9-42.4 42.4-118.6 118.6L211 96 256.3 141.3c12-12 33.3-33.3 64-64l0 178.7-178.7 0c30.7-30.7 52-52 64-64l-45.3-45.3c-2.9 2.9-42.4 42.4-118.6 118.6L19 288c2.9 2.9 42.4 42.4 118.6 118.6l22.6 22.6 45.3-45.3-64-64 178.7 0 0 192 192 0 0-64-128 0 0-370.7 64 64 45.3-45.3c-2.9-2.9-42.4-42.4-118.6-118.6z"/></svg>