<svg xmlns="http://www.w3.org/2000/svg" viewBox="0 0 640 512"><!--! Font Awesome Pro 7.0.0 by @fontawesome - https://fontawesome.com License - https://fontawesome.com/license (Commercial License) Copyright 2025 Fonticons, Inc. --><path fill="currentColor" d="M288 0l192 0 0 96 48 0 0-96 48 0 0 96 64 0 0 416-352 0 0-512zm64 96l0 64 64 0 0-64-64 0zm64 96l-64 0 0 64 64 0 0-64zm-64 96l0 64 64 0 0-64-64 0zm224-96l-64 0 0 64 64 0 0-64zm-64 96l0 64 64 0 0-64-64 0zM225 239l17 17c-2.1 2.1-31.8 31.8-89 89l-17 17-33.9-33.9c9-9 25-25 48-48l-126.1 0 0-48 126.1 0c-23-23-39-39-48-48L136 150.1c2.1 2.1 31.8 31.8 89 89z"/></svg>