<svg xmlns="http://www.w3.org/2000/svg" viewBox="0 0 576 512"><!--! Font Awesome Pro 7.0.0 by @fontawesome - https://fontawesome.com License - https://fontawesome.com/license (Commercial License) Copyright 2025 Fonticons, Inc. --><path fill="currentColor" d="M160.3 525.3c2.9-2.9 42.4-42.4 118.6-118.6l22.6-22.6-45.3-45.3c-12 12-33.3 33.3-64 64l0-114.7 352 0 0-64-96 0 0-114.7c30.7 30.7 52 52 64 64L557.5 128 438.9 9.4 416.3-13.3c-2.9 2.9-42.4 42.4-118.6 118.6L275 128 320.3 173.3c12-12 33.3-33.3 64-64l0 114.7-352 0 0 64 96 0 0 114.7c-30.7-30.7-52-52-64-64L19 384c2.9 2.9 42.4 42.4 118.6 118.6l22.6 22.6zM128.3 32l0 144 64 0 0-176-64 0 0 32zm256 304l0 176 64 0 0-176-64 0z"/></svg>