<svg xmlns="http://www.w3.org/2000/svg" viewBox="0 0 576 512"><!--! Font Awesome Pro 7.0.0 by @fontawesome - https://fontawesome.com License - https://fontawesome.com/license (Commercial License) Copyright 2025 Fonticons, Inc. --><path fill="currentColor" d="M160 525.3c5.5-5.5 39.7-39.7 102.6-102.6L285.3 400 240 354.7c-14.6 14.6-30.6 30.6-48 48l0-114.7 145 0c4.2-33.9 21.7-63.6 47-83.9l0-94.8c17.4 17.4 33.4 33.4 48 48L477.3 112c-5.5-5.5-39.7-39.7-102.6-102.6L352-13.3c-5.5 5.5-39.7 39.7-102.6 102.6L226.7 112 272 157.3c14.6-14.6 30.6-30.6 48-48l0 114.7-288 0 0 64 96 0 0 114.7c-17.4-17.4-33.4-33.4-48-48L34.7 400c5.5 5.5 39.7 39.7 102.6 102.6L160 525.3zM128 32l0 144 64 0 0-176-64 0 0 32zM464 272c17.7 0 32 14.3 32 32l0 48-64 0 0-48c0-17.7 14.3-32 32-32zm-80 32l0 48-32 0 0 192 224 0 0-192-32 0 0-48c0-44.2-35.8-80-80-80s-80 35.8-80 80z"/></svg>