<svg xmlns="http://www.w3.org/2000/svg" viewBox="0 0 576 512"><!--! Font Awesome Pro 7.0.0 by @fontawesome - https://fontawesome.com License - https://fontawesome.com/license (Commercial License) Copyright 2025 Fonticons, Inc. --><path fill="currentColor" d="M182.9 41.4L160.3 18.7c-2.9 2.9-42.4 42.4-118.6 118.6L19 160 64.3 205.3c12-12 33.3-33.3 64-64l0 338.7 64 0 0-338.7c30.7 30.7 52 52 64 64L301.5 160c-2.9-2.9-42.4-42.4-118.6-118.6zM377.9 256l73.2 0 44.7-80.5c10.8-19.4 16.5-41.3 16.5-63.5 0-44.2-35.8-80-80-80s-80 35.8-80 80c0 38.1 26.6 70 62.3 78l-36.6 66zM432.3 88a24 24 0 1 1 0 48 24 24 0 1 1 0-48zm-80 200l0 64 48 0 0 64-48 0 0 64 160 0 0-64-48 0 0-128-112 0z"/></svg>