<svg xmlns="http://www.w3.org/2000/svg" viewBox="0 0 512 512"><!--! Font Awesome Pro 7.0.0 by @fontawesome - https://fontawesome.com License - https://fontawesome.com/license (Commercial License) Copyright 2025 Fonticons, Inc. --><path fill="currentColor" d="M192 0l0 176-63.8-63.8-8 8C78.7 161.8 60.1 217.6 64.7 272L.5 272C-3.9 201.3 20.9 129.1 75 75l8-8-67-67 176 0zM391.8 391.8c41.5-41.5 60.1-97.4 55.6-151.8l64.2 0c4.4 70.7-20.4 142.9-74.5 197l-8 8 67 67-176 0 0-176 63.8 63.8 8-8zM512 192l-176 0 63.8-63.8-8-8C350.2 78.7 294.4 60.1 240 64.7L240 .5C310.7-3.9 382.9 20.9 437 75l8 8 67-67 0 176zM120.2 391.8c41.5 41.5 97.4 60.1 151.8 55.6l0 64.2c-70.7 4.4-142.9-20.4-197-74.5l-8-8-67 67 0-176 176 0-63.8 63.8 8 8z"/></svg>