<svg xmlns="http://www.w3.org/2000/svg" viewBox="0 0 448 512"><!--! Font Awesome Pro 7.0.0 by @fontawesome - https://fontawesome.com License - https://fontawesome.com/license (Commercial License) Copyright 2025 Fonticons, Inc. --><path fill="currentColor" d="M195.9 32l56.1 0 8.2 19.8 77.9 188.2 101.9 0 0 48-82 0 19.9 48 62.2 0 0 48-42.3 0 39.7 96-69.3 0-39.7-96-208.8 0-39.7 96-69.3 0 39.7-96-42.3 0 0-48 62.2 0 19.9-48-82 0 0-48 101.9 0 77.9-188.2 8.2-19.8zM159.3 288l-19.9 48 169.1 0-19.9-48-129.4 0zm109.5-48L224 131.6 179.2 240 268.8 240z"/></svg>