<svg xmlns="http://www.w3.org/2000/svg" viewBox="0 0 576 512"><!--! Font Awesome Pro 7.0.0 by @fontawesome - https://fontawesome.com License - https://fontawesome.com/license (Commercial License) Copyright 2025 Fonticons, Inc. --><path fill="currentColor" d="M480.2 380c28.2 0 52.4 20.1 57.6 47.8l18.1 96.5 3.7 19.7-.2 0-40.5 0c-.8-4.3-3.8-20.3-9-48l-9.7 0 0 48-40 0 0-48-9.7 0c-5.2 27.7-8.2 43.7-9 48l-40.5 0-.2 0 3.7-19.7 18.1-96.5 1.2-5.1c7-25 30-42.7 56.4-42.7zm-75-395.8c40 1.7 78.8 16.6 108.5 46.3l5.8 6.1c27.7 30.9 40.7 70.3 40.7 110.5l-.3 10.2c-2.7 51-25.8 103-66.7 143.8-54.4 54.4-131.8 78.6-198.2 61.6-29.4-7.5-62.9-5.5-84.3 16l-37.4 37.3 16 16-109.2 109.3-77.2-77.3 109.2-109.3 16 16 37.6-37.6c21.4-21.4 23.5-54.7 16-83.9-3-11.8-4.8-24-5.3-36.2l-.2-8c0-54.2 23.4-110.5 66.9-154S343-16 397.2-16l8 .2zm-8 63.8c-36 0-76.4 15.8-108.8 48.2S240.2 168.9 240.2 205l.4 10.4c2.1 23.9 11.4 45 27.3 60.9 40.4 40.4 120.7 39 180.1-20.5 30.4-30.4 46.2-67.7 48-102l.2-6.8c0-28.2-9.6-53.2-27.7-71.3-15.9-15.9-37-25.2-60.9-27.3L397.2 48z"/></svg>