<svg xmlns="http://www.w3.org/2000/svg" viewBox="0 0 640 512"><!--! Font Awesome Pro 7.0.0 by @fontawesome - https://fontawesome.com License - https://fontawesome.com/license (Commercial License) Copyright 2025 Fonticons, Inc. --><path fill="currentColor" d="M322.5 100.5l-74.5 49.6c44.6 44.6 69.2 69.2 73.9 73.9L288 257.9c-3.5-3.5-30.4-30.4-80.7-80.7l-74.5 49.6c47.3 47.3 73 73 77.1 77.1L176 337.9c-3-3-31-31-83.9-83.9L57 277.5C-1.8 316.7-17.7 396.2 21.5 455S140.2 529.7 199 490.5l384-256c58.8-39.2 74.7-118.7 35.5-177.5S499.8-17.7 441 21.5L363.3 73.3c41.9 41.9 65.5 65.5 70.7 70.7L400 177.9c-4.1-4.1-29.9-29.9-77.5-77.5z"/></svg>