<svg xmlns="http://www.w3.org/2000/svg" viewBox="0 0 640 512"><!--! Font Awesome Pro 7.0.0 by @fontawesome - https://fontawesome.com License - https://fontawesome.com/license (Commercial License) Copyright 2025 Fonticons, Inc. --><path fill="currentColor" d="M385.6 10.4c58.2 52.7 94.8 128.9 94.8 213.6 0 12.3-.8 24.4-2.3 36.3l-115.9 24.4-50.8-30.1c16.1-33.5 25-71 25-110.6 0-31.4-5.6-61.3-15.9-89l65.1-44.6zm-29 308.2c204.4-43 125.1-26.3 155.6-32.8l9.2 9.2 80 80 17 17-33.9 33.9-87.8-87.8-43.9 9.3C406.5 444.7 307.3 512 192.4 512l-160 0 0-112 48 0c72.9 0 138.7-30.5 185.4-79.4l-22.1-13.1c-63.3 33-97.1 50.6-101.4 52.9l-22.2-42.6c2.4-1.2 40.2-21 113.3-59.1l11.8-6.2c4.4 2.6 83 49.2 111.5 66z"/></svg>