<svg xmlns="http://www.w3.org/2000/svg" viewBox="0 0 512 512"><!--! Font Awesome Pro 7.0.0 by @fontawesome - https://fontawesome.com License - https://fontawesome.com/license (Commercial License) Copyright 2025 Fonticons, Inc. --><path fill="currentColor" d="M232.4 1.1c-122.2 11.4-219.5 108.7-230.9 230.9 22.3-.1 43.9-3.4 64.3-9.3l13.5 46.1c-24.7 7.2-50.8 11.2-77.8 11.3 11.4 122.2 108.7 219.5 230.9 230.9 .1-27 4-53.1 11.3-77.8l46.1 13.5c-6 20.4-9.2 41.9-9.3 64.3 122.2-11.4 219.5-108.7 230.9-230.9-22.3 .1-43.9 3.4-64.3 9.3l-13.5-46.1c24.7-7.2 50.8-11.2 77.8-11.3-11.4-122.2-108.7-219.5-230.9-230.9-.1 27-4 53.1-11.3 77.8L223.1 65.4c6-20.4 9.2-41.9 9.3-64.3zM134.6 245.8l-23-42.1c39-21.3 71.2-53.5 92.5-92.5l42.1 23c-25.7 47-64.5 85.8-111.6 111.6zm132 132c25.7-47 64.5-85.8 111.6-111.6l23 42.1c-39 21.3-71.2 53.5-92.5 92.5l-42.1-23z"/></svg>