<svg xmlns="http://www.w3.org/2000/svg" viewBox="0 0 576 512"><!--! Font Awesome Pro 7.0.0 by @fontawesome - https://fontawesome.com License - https://fontawesome.com/license (Commercial License) Copyright 2025 Fonticons, Inc. --><path fill="currentColor" d="M464 288l-14.1 0-30.1 210.8-1.9 13.2-30.6 0-2.6-3.1-42.4-50.2-38.5 49.5-2.9 3.7-25.7 0-2.9-3.7-38.5-49.5-42.4 50.2-2.6 3.1-30.6 0-1.9-13.2-30.1-210.8-14.1 0 0-48 352 0 0 48zM260.1 427.6l27.9 35.8 27.9-35.8-27.9-33-27.9 33zm-70.6 21.5l19.1-22.6-27.3-35.1 8.3 57.7zm177.9-22.6l19.1 22.6 8.3-57.7-27.3 35.1zM201.2 351.8l33.8 43.5 26.8-31.7-36.8-43.6-23.8 31.7zm113 11.8l26.8 31.7 33.8-43.5-23.8-31.7-36.8 43.6zM288 0C496 0 576 176 576 176l0 176-76.4 33.9 12.4-65.9 0-128-96 0 0-80-256 0 0 80-96 0 0 128 12.3 65.9-76.3-33.9 0-176S80 0 288 0zm0 332.7l37.8-44.7-75.6 0 37.8 44.7zm-116.3-8.3l27.3-36.4-32.5 0 5.2 36.4zm232.6 0l5.2-36.4-32.5 0 27.3 36.4zM368 192l-160 0 0-32 160 0 0 32z"/></svg>