<svg xmlns="http://www.w3.org/2000/svg" viewBox="0 0 640 512"><!--! Font Awesome Pro 7.0.0 by @fontawesome - https://fontawesome.com License - https://fontawesome.com/license (Commercial License) Copyright 2025 Fonticons, Inc. --><path fill="currentColor" d="M0 256l229.9 63.4-8.3-31.6c-26.6-101.2 33.7-205.6 134.6-233.1 2.7-.7 5.3-1.4 8-2-16.9-37.7-49.9-67.9-92.6-79.6-75.3-20.6-152.5 23.9-172.3 99.5L76.7 158.4 0 256zm128.2 85.6c2.9 32.7 30.3 58.3 63.8 58.3 18 0 34.2-7.4 45.8-19.3l1.7-8.6-111.3-30.4zM265.2 487.3L640 384 563.3 286.4 540.7 200.5C520.9 125 443.8 80.4 368.4 101S248.1 199.6 267.9 275.1l22.6 85.9-25.3 126.3zm94.9 23.8c10.9 19.6 31.9 32.9 55.9 32.9 35.3 0 64-28.7 64-64 0-.6 0-1.1 0-1.7L360.1 511.1z"/></svg>