<svg xmlns="http://www.w3.org/2000/svg" viewBox="0 0 640 512"><!--! Font Awesome Pro 7.0.0 by @fontawesome - https://fontawesome.com License - https://fontawesome.com/license (Commercial License) Copyright 2025 Fonticons, Inc. --><path fill="currentColor" d="M615.5 36.6L596.6-7.5c-9 3.9-35.1 15-78.1 33.5l-22.1 9.5 18.9 44.1c9-3.9 35.1-15 78.1-33.5l22.1-9.5zM352 0l-64 0 0 35.2C215 50 160 114.6 160 192l0 96-80 128 480 0-80-128 0-96c0-77.4-55-142-128-156.8L352 0zM258 464c7.1 27.6 32.2 48 62 48s54.9-20.4 62-48l-124 0zM0 160l0 48 112 0 0-48-112 0zm552 0l-24 0 0 48 112 0 0-48-88 0zM46.5 46.1c43 18.4 69 29.6 78.1 33.5l18.9-44.1-78.1-33.5-22.1-9.5-18.9 44.1 22.1 9.5z"/></svg>