<svg xmlns="http://www.w3.org/2000/svg" viewBox="0 0 576 512"><!--! Font Awesome Pro 7.0.0 by @fontawesome - https://fontawesome.com License - https://fontawesome.com/license (Commercial License) Copyright 2025 Fonticons, Inc. --><path fill="currentColor" d="M96 32l0 64c-35.3 0-64 28.7-64 64l0 16 512 0 0-16c0-35.3-28.7-64-64-64l0-64-128 0 0 64c-35.3 0-64 28.7-64 64 0-35.3-28.7-64-64-64l0-64-128 0zM0 224l0 64 36 0 28 224 448 0 28-224 36 0 0-64-576 0zm259.8 32l56.3 0 7.2 9.8 40.5 55.2-40.8 25.5-31.2-42.5-7.7 0-31.2 42.5-40.8-25.5 40.5-55.2 7.2-9.8zm86.9 122.9l40.8-25.5 23.8 32.4 4.6 6.3 0 71.9-108 0 0-48 60 0 0-8.1-21.3-29zM208 416l60 0 0 48-108 0 0-71.9 4.6-6.3 23.8-32.4 40.8 25.5-21.3 29 0 8.1z"/></svg>