<svg xmlns="http://www.w3.org/2000/svg" viewBox="0 0 576 512"><!--! Font Awesome Pro 7.0.0 by @fontawesome - https://fontawesome.com License - https://fontawesome.com/license (Commercial License) Copyright 2025 Fonticons, Inc. --><path fill="currentColor" d="M0 64l576 0 0 64-34.9 0-29.1 320-448 0-29.1-320-34.9 0 0-64zm259.3 80l-7.1 10.4-45.8 67 40.7 25.5 37.5-54.9 6.7 0 37.5 54.9 40.7-25.5-45.8-67-7.1-10.4-57.3 0zm92.1 135.9l32.5 47.5 0 8.6-76 0 0 48 124 0 0-71.4-4.2-6.1-35.6-52-40.7 25.5zM192 336l0-8.6 32.5-47.5-40.7-25.5-35.6 52-4.2 6.1 0 71.4 124 0 0-48-76 0z"/></svg>