<svg xmlns="http://www.w3.org/2000/svg" viewBox="0 0 448 512"><!--! Font Awesome Pro 7.0.0 by @fontawesome - https://fontawesome.com License - https://fontawesome.com/license (Commercial License) Copyright 2025 Fonticons, Inc. --><path fill="currentColor" d="M0 0l448 0 0 384-32 0 0 64 32 0 0 64-448 0 0-512zM64 416l0 32 288 0 0-64-256 0c-17.7 0-32 14.3-32 32zM202.5 93.3l-88 176-9.4 18.7 53.7 0 16-32 98.3 0 16 32 53.7 0-9.4-18.7-88-176-6.6-13.3-29.7 0-6.6 13.3zM224 157.7l25.2 50.3-50.3 0 25.2-50.3z"/></svg>