<svg xmlns="http://www.w3.org/2000/svg" viewBox="0 0 448 512"><!--! Font Awesome Pro 7.0.0 by @fontawesome - https://fontawesome.com License - https://fontawesome.com/license (Commercial License) Copyright 2025 Fonticons, Inc. --><path fill="currentColor" d="M152 40l0 48-48 0 0-48 48 0zM4 228l440 0 0 56-440 0 0-56zM440 424l0 48-48 0 0-48 48 0zM56 424l0 48-48 0 0-48 48 0zm48 0l48 0 0 48-48 0 0-48zm192 0l48 0 0 48-48 0 0-48zm-48 0l0 48-48 0 0-48 48 0zm-48-96l48 0 0 48-48 0 0-48zM344 40l0 48-48 0 0-48 48 0zM200 40l48 0 0 48-48 0 0-48zm48 96l0 48-48 0 0-48 48 0zM440 328l0 48-48 0 0-48 48 0zM56 328l0 48-48 0 0-48 48 0zM392 136l48 0 0 48-48 0 0-48zM56 136l0 48-48 0 0-48 48 0zM392 40l48 0 0 48-48 0 0-48zM56 40l0 48-48 0 0-48 48 0z"/></svg>