<svg xmlns="http://www.w3.org/2000/svg" viewBox="0 0 448 512"><!--! Font Awesome Pro 7.0.0 by @fontawesome - https://fontawesome.com License - https://fontawesome.com/license (Commercial License) Copyright 2025 Fonticons, Inc. --><path fill="currentColor" d="M224 208c0-29 11-55.5 29.2-75.4 20.2-22.2 49.3-36.3 81.7-36.6l1.1 0c61.9 0 112 50.1 112 112l-224 0zM112 96l1.1 0c32.4 .3 61.5 14.4 81.7 36.6-12 22.5-18.8 48.1-18.8 75.4L0 208C0 146.1 50.1 96 112 96zM316.7 49.2C280.8 53.5 248.5 69.7 224 93.7 199.5 69.7 167.2 53.5 131.3 49.2 151.4 19.5 185.4 0 224 0s72.6 19.5 92.7 49.2zM0 288l0-32 448 0 0 32c0 70.7-57.3 128-128 128l-36.6 0 68.6 96-256 0 68.6-96-36.6 0C57.3 416 0 358.7 0 288z"/></svg>