<svg xmlns="http://www.w3.org/2000/svg" viewBox="0 0 448 512"><!--! Font Awesome Pro 7.0.0 by @fontawesome - https://fontawesome.com License - https://fontawesome.com/license (Commercial License) Copyright 2025 Fonticons, Inc. --><path fill="currentColor" d="M224 0l32 0c70.7 0 128 57.3 128 128 0 11.7-3.1 22.6-8.6 32l8.6 0c35.3 0 64 28.7 64 64l0 64-448 0 0-64c0-35.3 28.7-64 64-64l8.6 0c-5.4-9.4-8.6-20.3-8.6-32 0-35.3 28.7-64 64-64l81.3 0c17 0 30.7-13.7 30.7-30.7 0-6.1-1.8-12-5.2-17L224 0zM32 336l384 0 0 8c0 57.4-46.6 104-104 104l-16 0 24 64-192 0 24-64-16 0C78.6 448 32 401.4 32 344l0-8z"/></svg>