<svg xmlns="http://www.w3.org/2000/svg" viewBox="0 0 448 512"><!--! Font Awesome Pro 7.0.0 by @fontawesome - https://fontawesome.com License - https://fontawesome.com/license (Commercial License) Copyright 2025 Fonticons, Inc. --><path fill="currentColor" d="M369.4 128l-121.4 0 0-48 87.1 0 34.3 48zM200 128l-121.4 0 34.3-48 87.1 0 0 48zM368 16l-288 0-80 112 0 352 448 0 0-352-80-112zM217.6 231.5l6.4 8.5 6.4-8.5c11.1-14.8 28.5-23.5 46.9-23.5 32.4 0 58.7 26.3 58.7 58.7l0 5.3c0 64-112 128-112 128S112 336 112 272l0-5.3c0-32.4 26.3-58.7 58.7-58.7 18.5 0 35.9 8.7 46.9 23.5z"/></svg>