<svg xmlns="http://www.w3.org/2000/svg" viewBox="0 0 576 512"><!--! Font Awesome Pro 7.0.0 by @fontawesome - https://fontawesome.com License - https://fontawesome.com/license (Commercial License) Copyright 2025 Fonticons, Inc. --><path fill="currentColor" d="M401.4 128l-290.7 0 34.3-48 222.1 0 34.3 48zM400.1 16l-288 0-80 112 0 352 237 0c-28-30.6-45-71.3-45-116 0-95 77-172 172-172 30.5 0 59.2 7.9 84 21.9l0-85.9-80-112zm-4 280a68 68 0 1 1 0 136 68 68 0 1 1 0-136zm0 192c24.1 0 46.5-6.9 65.5-18.7 42.3 42.2 67.1 67 74.5 74.4l39.6-39.6c-7.4-7.4-32.2-32.2-74.4-74.4 11.9-19.1 18.8-41.6 18.8-65.7 0-68.5-55.5-124-124-124s-124 55.5-124 124 55.5 124 124 124z"/></svg>