<svg xmlns="http://www.w3.org/2000/svg" viewBox="0 0 640 512"><!--! Font Awesome Pro 7.0.0 by @fontawesome - https://fontawesome.com License - https://fontawesome.com/license (Commercial License) Copyright 2025 Fonticons, Inc. --><path fill="currentColor" d="M96 256a224 224 0 1 1 448 0 224 224 0 1 1 -448 0zm248-88l0-24-48 0 0 144 48 0 0-120zM296 328l0 48 48 0 0-48-48 0zM91.1 109C63.8 151.4 48 201.8 48 256S63.8 360.6 91.1 403l13 20.2-40.4 26-13-20.2C18.6 379.1 0 319.7 0 256S18.6 132.9 50.7 83l13-20.2 40.4 26-13 20.2zM589.3 83C621.4 132.9 640 192.3 640 256s-18.6 123.1-50.7 173l-13 20.2-40.4-26 13-20.2c27.3-42.4 43.1-92.8 43.1-147s-15.8-104.6-43.1-147l-13-20.2 40.4-26 13 20.2z"/></svg>