<svg xmlns="http://www.w3.org/2000/svg" viewBox="0 0 576 512"><!--! Font Awesome Pro 7.0.0 by @fontawesome - https://fontawesome.com License - https://fontawesome.com/license (Commercial License) Copyright 2025 Fonticons, Inc. --><path fill="currentColor" d="M416 288l-40-40 200-200-48-48-200 200-40-40-32 0 0 51.7 108.3 108.3 51.7 0 0-32zm-74.9 65.4L222.6 234.9c-42.7-3.7-85.2 11.7-115.8 42.3-27.4 27.4-42.8 64.6-42.8 103.4l0 3.5 96-48-160 144 0 32 195.5 0c38.8 0 75.9-15.4 103.4-42.8 30.6-30.6 45.9-73.1 42.3-115.8z"/></svg>