<svg xmlns="http://www.w3.org/2000/svg" viewBox="0 0 576 512"><!--! Font Awesome Pro 7.0.0 by @fontawesome - https://fontawesome.com License - https://fontawesome.com/license (Commercial License) Copyright 2025 Fonticons, Inc. --><path fill="currentColor" d="M496 544a80 80 0 1 1 0-160 80 80 0 1 1 0 160zM106.8 277.2c30.6-30.6 73.1-45.9 115.8-42.2L341 353.3c3.7 42.8-11.6 85.2-42.2 115.9-27.4 27.4-64.6 42.8-103.3 42.8l-195.5 0 0-32 160-144-96 48 0-3.5c0-38.8 15.4-75.9 42.8-103.3zM576 48l-200 200 40 40 0 32-51.7 0-108.3-108.3 0-51.7 32 0 40 40 200-200 48 48z"/></svg>