<svg xmlns="http://www.w3.org/2000/svg" viewBox="0 0 640 512"><!--! Font Awesome Pro 7.0.0 by @fontawesome - https://fontawesome.com License - https://fontawesome.com/license (Commercial License) Copyright 2025 Fonticons, Inc. --><path fill="currentColor" d="M416 0l-384 0 0 512 313.3 0c-6-14.8-9.3-31-9.3-48l0-64 9.3 0c-6-14.8-9.3-31-9.3-48l0-64 9.3 0c-6-14.8-9.3-31-9.3-48l0-64 32 0 0-120 48 0 0-56zM272 352l0 112-96 0 0-112 96 0zM128 96l64 0 0 64-64 0 0-64zm192 0l0 64-64 0 0-64 64 0zM128 224l64 0 0 64-64 0 0-64zm192 0l0 64-64 0 0-64 64 0zm320 0l-32 0c-44.2 0-80 35.8-80 80l0 16 32 0c44.2 0 80-35.8 80-80l0-16zm0 128l0-16-32 0c-44.2 0-80 35.8-80 80l0 16 32 0c44.2 0 80-35.8 80-80zm0 112l0-16-32 0c-44.2 0-80 35.8-80 80l0 16 32 0c44.2 0 80-35.8 80-80zM496 528c0-44.2-35.8-80-80-80l-32 0 0 16c0 44.2 35.8 80 80 80l32 0 0-16zm0-96l0-16c0-44.2-35.8-80-80-80l-32 0 0 16c0 44.2 35.8 80 80 80l32 0zm0-128c0-44.2-35.8-80-80-80l-32 0 0 16c0 44.2 35.8 80 80 80l32 0 0-16zM536 64l-48 0 0 152 48 0 0-152zm72 64l0-24-48 0 0 80 48 0 0-56zM464 104l-48 0 0 80 48 0 0-80z"/></svg>