<svg xmlns="http://www.w3.org/2000/svg" viewBox="0 0 512 512"><!--! Font Awesome Pro 7.0.0 by @fontawesome - https://fontawesome.com License - https://fontawesome.com/license (Commercial License) Copyright 2025 Fonticons, Inc. --><path fill="currentColor" d="M512 0l-320 0 0 128-192 0 0 384 512 0 0-512zM96 320l64 0 0 64-64 0 0-64zm224 32l-64 0 0-64 64 0 0 64zm64 0l0-64 64 0 0 64-64 0zM160 224l0 64-64 0 0-64 64 0zM256 96l64 0 0 64-64 0 0-64zm192 0l0 64-64 0 0-64 64 0zM256 256l0-64 64 0 0 64-64 0zm192 0l-64 0 0-64 64 0 0 64z"/></svg>