<svg xmlns="http://www.w3.org/2000/svg" viewBox="0 0 576 512"><!--! Font Awesome Pro 7.0.0 by @fontawesome - https://fontawesome.com License - https://fontawesome.com/license (Commercial License) Copyright 2025 Fonticons, Inc. --><path fill="currentColor" d="M384 48L464-32 496 48 576 80 496 160 429.1 148.8 297 281 263 247 395.2 114.9 384 48zM288 0c23.3 0 45.8 3.1 67.2 8.9-1.4 1.4-8.9 8.9-22.6 22.6 3 17.8 5.2 30.9 6.6 39.4-16.3-4.5-33.4-6.9-51.2-6.9-106 0-192 86-192 192s86 192 192 192 192-86 192-192c0-17.7-2.4-34.9-6.9-51.2 8.4 1.4 21.6 3.6 39.4 6.6 13.7-13.7 21.2-21.2 22.6-22.6 5.8 21.4 8.9 43.9 8.9 67.2 0 141.4-114.6 256-256 256S32 397.4 32 256 146.6 0 288 0zm0 112c12.9 0 25.4 1.7 37.3 4.9l-63.5 63.5c-31.3 10.9-53.8 40.6-53.8 75.6 0 44.2 35.8 80 80 80 35 0 64.7-22.5 75.6-53.8l63.5-63.5c3.2 11.9 4.9 24.4 4.9 37.3 0 79.5-64.5 144-144 144s-144-64.5-144-144 64.5-144 144-144z"/></svg>