<svg xmlns="http://www.w3.org/2000/svg" viewBox="0 0 640 512"><!--! Font Awesome Pro 7.0.0 by @fontawesome - https://fontawesome.com License - https://fontawesome.com/license (Commercial License) Copyright 2025 Fonticons, Inc. --><path fill="currentColor" d="M64 32l179.8 0 8.8 17.7 71.2 142.3 28.2 0 0-96 48 0 0 96 48 0 0 104 80 0 0-80c0-48.6 39.4-88 88-88l24 0 0 48-24 0c-22.1 0-40 17.9-40 40l0 208c0 22.1 17.9 40 40 40l24 0 0 48-24 0c-48.6 0-88-39.4-88-88l0-80-63 0c9.5 16.5 15 35.6 15 56 0 61.9-50.1 112-112 112l-224 0c-61.9 0-112-50.1-112-112 0-30.5 12.2-58.2 32-78.4L64 32zm80 320c-26.5 0-48 21.5-48 48s21.5 48 48 48l224 0c26.5 0 48-21.5 48-48s-21.5-48-48-48l-224 0zM204.2 96l-76.2 0 0 96 124.2 0-48-96zM328 400a24 24 0 1 1 48 0 24 24 0 1 1 -48 0zm-72-24a24 24 0 1 1 0 48 24 24 0 1 1 0-48zM136 400a24 24 0 1 1 48 0 24 24 0 1 1 -48 0z"/></svg>