<svg xmlns="http://www.w3.org/2000/svg" viewBox="0 0 640 512"><!--! Font Awesome Pro 7.0.0 by @fontawesome - https://fontawesome.com License - https://fontawesome.com/license (Commercial License) Copyright 2025 Fonticons, Inc. --><path fill="currentColor" d="M352 416l-32 0 0 64-64 0 0-64-128 0 0 64-64 0 0-64-32 0 0-352 320 0 0 352zM512 0c61.9 0 112 50.1 112 112 0 50.7-33.7 93.5-80 107.3l0 260.7-64 0 0-260.7c-46.3-13.8-80-56.6-80-107.3 0-61.9 50.1-112 112-112zM120 304a24 24 0 1 0 0 48 24 24 0 1 0 0-48zm144 0a24 24 0 1 0 0 48 24 24 0 1 0 0-48zM96 256l192 0 0-128-192 0 0 128z"/></svg>