<svg xmlns="http://www.w3.org/2000/svg" viewBox="0 0 448 512"><!--! Font Awesome Pro 7.0.0 by @fontawesome - https://fontawesome.com License - https://fontawesome.com/license (Commercial License) Copyright 2025 Fonticons, Inc. --><path fill="currentColor" d="M448 0l-448 0 0 448 48 0 0 64 80 0 0-64 192 0 0 64 80 0 0-64 48 0 0-448zM248 144l136 0 0 112-136 0 0-112zm-48 0l0 112-136 0 0-112 136 0zM96 320a32 32 0 1 1 0 64 32 32 0 1 1 0-64zm256 0a32 32 0 1 1 0 64 32 32 0 1 1 0-64zM152 48l144 0 0 48-144 0 0-48z"/></svg>