<svg xmlns="http://www.w3.org/2000/svg" viewBox="0 0 448 512"><!--! Font Awesome Pro 7.0.0 by @fontawesome - https://fontawesome.com License - https://fontawesome.com/license (Commercial License) Copyright 2025 Fonticons, Inc. --><path fill="currentColor" d="M96-16L63.9 28.9C58.8 36.1 56 44.8 56 53.6L56 56c0 22.1 17.9 40 40 40s40-17.9 40-40l0-2.4c0-8.8-2.8-17.5-7.9-24.6L96-16zm128 0L191.9 28.9c-5.1 7.2-7.9 15.8-7.9 24.6l0 2.4c0 22.1 17.9 40 40 40s40-17.9 40-40l0-2.4c0-8.8-2.8-17.5-7.9-24.6L224-16zm95.9 44.9c-5.1 7.2-7.9 15.8-7.9 24.6l0 2.4c0 22.1 17.9 40 40 40s40-17.9 40-40l0-2.4c0-8.8-2.8-17.5-7.9-24.6L352-16 319.9 28.9zM128 160l0-32-64 0 0 80-64 0 0 105.1 3.3 1.8 108.3 57.8 100.5-57.4 11.9-6.8 11.9 6.8 100.5 57.4 108.3-57.8 3.3-1.8 0-105.1-64 0 0-80-64 0 0 80-64 0 0-80-64 0 0 80-64 0 0-48zM448 367.5l-100.7 53.7-11.7 6.2-11.5-6.6-100.1-57.2-100.1 57.2-11.5 6.6-11.7-6.2-100.7-53.7 0 144.5 448 0 0-144.5z"/></svg>