<svg xmlns="http://www.w3.org/2000/svg" viewBox="0 0 640 512"><!--! Font Awesome Pro 7.0.0 by @fontawesome - https://fontawesome.com License - https://fontawesome.com/license (Commercial License) Copyright 2025 Fonticons, Inc. --><path fill="currentColor" d="M224 32l0-32-64 0 0 64-96 0 0 416 217.6 0 9.2-55.1 221.3-221.3 0-139.7-96 0 0-64-64 0 0 64-128 0 0-32zM160 224l192 0 0 48-192 0 0-48zM288 368l-128 0 0-48 128 0 0 48zM544 239.9l-52.8 52.8 80 80 52.8-52.8-80-80zm-208 208l-16 96 96-16 132.6-132.6-80-80-132.6 132.6z"/></svg>