<svg xmlns="http://www.w3.org/2000/svg" viewBox="0 0 576 512"><!--! Font Awesome Pro 7.0.0 by @fontawesome - https://fontawesome.com License - https://fontawesome.com/license (Commercial License) Copyright 2025 Fonticons, Inc. --><path fill="currentColor" d="M49.3-16.9l-17-17-33.9 33.9 17 17 512 512 17 17 33.9-33.9-17-17-113.8-113.8c39.9-40.5 64.6-96 64.6-157.4 0-123.7-100.3-224-224-224-61.3 0-116.9 24.7-157.4 64.6L49.3-16.9zM176 109.8c28.9-28.4 68.4-45.8 112.1-45.8 88.4 0 160 71.6 160 160 0 43.7-17.5 83.2-45.8 112.1l-33.9-33.9c19.7-20.2 31.8-47.8 31.8-78.2 0-61.9-50.1-112-112-112-30.4 0-58 12.1-78.2 31.8L176 109.8zM312.5 382.2c-7.9 1.2-16.1 1.8-24.3 1.8-88.4 0-160-71.6-160-160 0-8.3 .6-16.4 1.8-24.3L77.6 147.3c-8.7 23.9-13.5 49.8-13.5 76.7 0 115.6 87.6 210.8 200 222.7l0 33.3-104 0 0 48 256 0 0-42.2-5.8-5.8-98.2 0 0-33.3c18.3-2 36-6.1 52.7-12.2l-52.4-52.4z"/></svg>