<svg xmlns="http://www.w3.org/2000/svg" viewBox="0 0 448 512"><!--! Font Awesome Pro 7.0.0 by @fontawesome - https://fontawesome.com License - https://fontawesome.com/license (Commercial License) Copyright 2025 Fonticons, Inc. --><path fill="currentColor" d="M64 224a160 160 0 1 1 320 0 160 160 0 1 1 -320 0zM248 446.7C360.4 434.8 448 339.6 448 224 448 100.3 347.7 0 224 0S0 100.3 0 224C0 339.6 87.6 434.8 200 446.7l0 33.3-104 0 0 48 256 0 0-48-104 0 0-33.3zM224 336a112 112 0 1 0 0-224 112 112 0 1 0 0 224z"/></svg>