<svg xmlns="http://www.w3.org/2000/svg" viewBox="0 0 576 512"><!--! Font Awesome Pro 7.0.0 by @fontawesome - https://fontawesome.com License - https://fontawesome.com/license (Commercial License) Copyright 2025 Fonticons, Inc. --><path fill="currentColor" d="M494.5 282.7L161.9 90.7c35-26.8 78.8-42.7 126.3-42.7 39.6 0 76.5 11 108 30.2l32.1-105.4 47 7 0 41.9 28.3-12.9 31.8 31.8-12.9 28.3 41.9 0 7 47-105.4 32.1c19.2 31.5 30.2 68.5 30.2 108 0 9-.6 18-1.7 26.7zm-12.3 48.4c-7.8 20.2-18.7 38.8-32 55.4L94.2 180.9c7.8-20.2 18.7-38.8 32.1-55.4l356 205.6zm-67.7 90.2c-35 26.8-78.8 42.7-126.3 42.7-39.6 0-76.5-11-108-30.2l-32.1 105.4-47-7 0-41.9-28.3 12.9-31.8-31.8 12.9-28.3-41.9 0-7-47 105.4-32.1c-19.2-31.5-30.2-68.5-30.2-108 0-9.1 .6-18 1.7-26.8l332.6 192z"/></svg>