<svg xmlns="http://www.w3.org/2000/svg" viewBox="0 0 512 512"><!--! Font Awesome Pro 7.0.0 by @fontawesome - https://fontawesome.com License - https://fontawesome.com/license (Commercial License) Copyright 2025 Fonticons, Inc. --><path fill="currentColor" d="M97.3 32l317.4 0 7.5 21.4 48.5 138.6 41.3 0 0 224-32 0 0 64-96 0 0-64-256 0 0 64-96 0 0-64-32 0 0-224 41.3 0 48.5-138.6 7.5-21.4zm272 64l-226.6 0-33.6 96 293.8 0-33.6-96zM320 288l-128 0 0 64 128 0 0-64zM48 256l0 48 80 0 0-48-80 0zm416 0l-80 0 0 48 80 0 0-48z"/></svg>