<svg xmlns="http://www.w3.org/2000/svg" viewBox="0 0 640 512"><!--! Font Awesome Pro 7.0.0 by @fontawesome - https://fontawesome.com License - https://fontawesome.com/license (Commercial License) Copyright 2025 Fonticons, Inc. --><path fill="currentColor" d="M0-16l116 0c2.1 11.7 5 27.7 8.7 48l451.2 0-48 256-356.7 0 8.7 48 300 0 0 48-340 0-3.6-19.7-60.4-332.3-76 0 0-48zM160 464a48 48 0 1 1 96 0 48 48 0 1 1 -96 0zm224 0a48 48 0 1 1 96 0 48 48 0 1 1 -96 0zM312 241.6l48 0 0-57.6 57.6 0 0-48-57.6 0 0-57.6-48 0 0 57.6-57.6 0 0 48 57.6 0 0 57.6z"/></svg>