<svg xmlns="http://www.w3.org/2000/svg" viewBox="0 0 448 512"><!--! Font Awesome Pro 7.0.0 by @fontawesome - https://fontawesome.com License - https://fontawesome.com/license (Commercial License) Copyright 2025 Fonticons, Inc. --><path fill="currentColor" d="M160 32c17.7 0 32-14.3 32-32s-14.3-32-32-32-32 14.3-32 32 14.3 32 32 32zm128 80a48 48 0 1 0 0-96 48 48 0 1 0 0 96zM35.1 224C16.5 257 0 297.1 0 334.4 0 371.8 11.9 403.8 32 429.9l0 82.1 48 0 0-39c40.4 25.5 91.8 39 144 39s103.6-13.5 144-39l0 39 48 0 0-82.1c20.1-26.1 32-58.1 32-95.5 0-37.3-16.5-77.4-35.1-110.4l35.1 0 0-64-448 0 0 64 35.1 0z"/></svg>