<svg xmlns="http://www.w3.org/2000/svg" viewBox="0 0 640 512"><!--! Font Awesome Pro 7.0.0 by @fontawesome - https://fontawesome.com License - https://fontawesome.com/license (Commercial License) Copyright 2025 Fonticons, Inc. --><path fill="currentColor" d="M128 32l480 0 0 304-96 0 0-48-128 0 0 48-120.6 0-3.9-8.8c8-16.7 12.5-35.4 12.5-55.2 0-70.7-57.3-128-128-128-5.4 0-10.8 .3-16 1l0-113zM312.4 448l-28-64 323.6 0 0 64-295.6 0zM64 272a80 80 0 1 1 160 0 80 80 0 1 1 -160 0zM232 384l56 128-288 0 56-128 176 0z"/></svg>