<svg xmlns="http://www.w3.org/2000/svg" viewBox="0 0 256 512"><!--! Font Awesome Pro 7.0.0 by @fontawesome - https://fontawesome.com License - https://fontawesome.com/license (Commercial License) Copyright 2025 Fonticons, Inc. --><path fill="currentColor" d="M41.4-32l173.4 0 7.5 21.4c19.3 55.1 39.9 139.6 36.6 212-1.7 36.1-9.4 73.3-30.1 102.2-16.4 22.9-39.5 38.6-68.7 45l0 131.4 64 0 0 64-192 0 0-64 64 0 0-131.4C67 342.2 43.9 326.6 27.5 303.6 6.8 274.8-1 237.6-2.6 201.5-6 129 14.6 44.6 33.9-10.6L41.4-32zm24 160l125.3 0C186 94.5 177.8 60.8 169 32L87.3 32c-8.9 28.8-17 62.5-21.8 96z"/></svg>