<svg xmlns="http://www.w3.org/2000/svg" viewBox="0 0 512 512"><!--! Font Awesome Pro 7.0.0 by @fontawesome - https://fontawesome.com License - https://fontawesome.com/license (Commercial License) Copyright 2025 Fonticons, Inc. --><path fill="currentColor" d="M288 32l0 32 224 0 0 160-224 0 0 32-48 0 0-32-240 0 0-160 240 0 0-32 48 0zM160 128l0 32 80 0 0-32-80 0zm128 0l0 32 160 0 0-32-160 0zm48 224l-80 0 0 32 80 0 0-32zm0-64l0-32 48 0 0 32 128 0 0 160-128 0 0 32-48 0 0-32-336 0 0-160 336 0zm48 64l0 32 64 0 0-32-64 0z"/></svg>