<svg xmlns="http://www.w3.org/2000/svg" viewBox="0 0 512 512"><!--! Font Awesome Pro 7.0.0 by @fontawesome - https://fontawesome.com License - https://fontawesome.com/license (Commercial License) Copyright 2025 Fonticons, Inc. --><path fill="currentColor" d="M64 64l0-32-64 0 0 448 512 0 0-64-448 0 0-352zm406.6 86.6L493.3 128 448 82.7c-1.3 1.3-44 44-128 128-44-44-70.7-70.7-80-80-2.9 2.9-42.4 42.4-118.6 118.6L98.7 272 144 317.3c6.6-6.6 38.6-38.6 96-96 44 44 70.7 70.7 80 80l22.6-22.6 128-128z"/></svg>