<svg xmlns="http://www.w3.org/2000/svg" viewBox="0 0 512 512"><!--! Font Awesome Pro 7.0.0 by @fontawesome - https://fontawesome.com License - https://fontawesome.com/license (Commercial License) Copyright 2025 Fonticons, Inc. --><path fill="currentColor" d="M128 56l40 0 0 40-104 0 0 32 36 72-20 0 0 48 29.6 0-13.6 136-64 80 0 48 320 0 0-48-64-80-13.6-136 29.6 0 0-48-20 0 36-72 0-32-104 0 0-40 40 0 0-48-40 0 0-40-48 0 0 40-40 0 0 48zM512 512l0-48-32-48 0-64 32-32 0-160-64 0 0 48-32 0 0-48-58.3 0-5.7 11.3 0 124.7-24.6 0 6.9 69.1 55.2 68.9 10.5 13.2 0 64.8 112 0z"/></svg>