<svg xmlns="http://www.w3.org/2000/svg" viewBox="0 0 384 512"><!--! Font Awesome Pro 7.0.0 by @fontawesome - https://fontawesome.com License - https://fontawesome.com/license (Commercial License) Copyright 2025 Fonticons, Inc. --><path fill="currentColor" d="M208 0c88.4 0 160 71.6 160 160l0 144-64 96 64 64 0 48-352 0 0-48 64-64-16-80 128-96-48 0-12.1 12.1c-12.7 12.7-30 19.9-48 19.9l-4.6 0c-34.9 0-63.2-28.3-63.2-63.2 0-21 8.3-41.1 23.2-55.9L112 64 112 0 208 0zM176 104a24 24 0 1 0 0 48 24 24 0 1 0 0-48z"/></svg>