<svg xmlns="http://www.w3.org/2000/svg" viewBox="0 0 512 512"><!--! Font Awesome Pro 7.0.0 by @fontawesome - https://fontawesome.com License - https://fontawesome.com/license (Commercial License) Copyright 2025 Fonticons, Inc. --><path fill="currentColor" d="M256 512a256 256 0 1 0 0-512 256 256 0 1 0 0 512zM200 368l0-48 72 0c13.3 0 24-10.7 24-24l0-12.1c-7.5 2.7-15.6 4.1-24 4.1l-32 0c-39.8 0-72-32.2-72-72s32.2-72 72-72l32 0c39.8 0 72 32.2 72 72l0 80c0 39.8-32.2 72-72 72l-72 0zm72-176l-32 0c-13.3 0-24 10.7-24 24s10.7 24 24 24l32 0c13.3 0 24-10.7 24-24s-10.7-24-24-24z"/></svg>