<svg xmlns="http://www.w3.org/2000/svg" viewBox="0 0 512 512"><!--! Font Awesome Pro 7.0.0 by @fontawesome - https://fontawesome.com License - https://fontawesome.com/license (Commercial License) Copyright 2025 Fonticons, Inc. --><path fill="currentColor" d="M256 512a256 256 0 1 0 0-512 256 256 0 1 0 0 512zM240 128l0-32 32 0 0 32 4 0c42 0 76 34 76 76 0 16.2-5.1 31.3-13.8 43.7 18.1 13.9 29.8 35.8 29.8 60.3 0 42-34 76-76 76l-20 0 0 32-32 0 0-32-72 0 0-256 72 0zm-24 48l0 56 24 0 0-56-24 0zm56 0l0 56 4 0c15.5 0 28-12.5 28-28s-12.5-28-28-28l-4 0zM216 280l0 56 24 0 0-56-24 0zm56 0l0 56 20 0c15.5 0 28-12.5 28-28s-12.5-28-28-28l-20 0z"/></svg>