<svg xmlns="http://www.w3.org/2000/svg" viewBox="0 0 640 512"><!--! Font Awesome Pro 7.0.0 by @fontawesome - https://fontawesome.com License - https://fontawesome.com/license (Commercial License) Copyright 2025 Fonticons, Inc. --><path fill="currentColor" d="M320.1 512c56.5 0 108.7-18.3 151-49.3l-1.4-1.9-7.2-9.6c-80.8-107.7-60.8-81.1-91.2-121.6 57.6-43.2 96-72 115.2-86.4l28.2 37.6c39.7-63.5 40.2-64.4 54-86.3-27.6-111.7-128.4-194.5-248.6-194.5-141.4 0-256 114.6-256 256s114.6 256 256 256zm24-368l0 144-48 0 0-144 48 0zm-48 232l0-48 48 0 0 48-48 0zM633.1 272.4l-40.7-25.4c-.4 .6-25.1 40.1-74.2 118.7-20.1-26.8-33.9-45.2-41.4-55.2l-38.4 28.8c4 5.3 24.8 33.1 62.4 83.2l7.2 9.6 25.3 0 7-11.3 80-128 12.7-20.4z"/></svg>