<svg xmlns="http://www.w3.org/2000/svg" viewBox="0 0 640 512"><!--! Font Awesome Pro 7.0.0 by @fontawesome - https://fontawesome.com License - https://fontawesome.com/license (Commercial License) Copyright 2025 Fonticons, Inc. --><path fill="currentColor" d="M288 512c16.7 0 33-1.6 48.8-4.6-20.7-30.6-32.8-67.6-32.8-107.4 0-1.4 0-2.9 0-4.3-4.7 2.7-10.2 4.3-16 4.3-17.7 0-32-14.3-32-32s14.3-32 32-32c9.3 0 17.7 4 23.6 10.4 4.8-16.5 11.8-32.2 20.6-46.5-13-7.5-28.1-11.9-44.1-11.9-30.4 0-57.3 15.4-73.1 38.9l-34.4-34.4c24.9-32 63.7-52.6 107.4-52.6 27.5 0 53 8.1 74.4 22.1 12.5-12.1 26.6-22.5 42-30.9-32.3-24.6-72.6-39.2-116.3-39.2-57.1 0-108.4 24.9-143.5 64.5l-34-34c43.9-48.2 107.2-78.5 177.5-78.5 65.2 0 124.4 26 167.6 68.2 13-2.8 26.5-4.2 40.4-4.2 15.3 0 30.2 1.8 44.4 5.2-20.4-121-125.6-213.2-252.4-213.2-141.4 0-256 114.6-256 256S146.6 512 288 512zM640 400a144 144 0 1 0 -288 0 144 144 0 1 0 288 0zm-31.5-20.4l-25.6 19.2C564.3 370.6 532.3 352 496 352s-68.3 18.6-86.9 46.8l-25.6-19.2c24.5-36 65.7-59.6 112.5-59.6s88.1 23.6 112.5 59.6zM496 384c26.2 0 49.4 12.6 64 32l-25.6 19.2C525.6 423.5 511.7 416 496 416s-29.6 7.5-38.4 19.2L432 416c14.6-19.4 37.8-32 64-32zm0 60a20 20 0 1 1 0 40 20 20 0 1 1 0-40z"/></svg>