<svg xmlns="http://www.w3.org/2000/svg" viewBox="0 0 384 512"><!--! Font Awesome Pro 7.0.0 by @fontawesome - https://fontawesome.com License - https://fontawesome.com/license (Commercial License) Copyright 2025 Fonticons, Inc. --><path fill="currentColor" d="M320 0l-256 0 0 32-64 0 0 480 384 0 0-480-64 0 0-32zM112 112l0-48 160 0 0 48-160 0zm58.1 101.2c-2.5 3.1-21.7 26.7-57.4 70.9l-3.2 3.9-23.5 0-3.2-4c-18.7-23.4-31-38.8-36.9-46.1l30-24c8.3 10.4 15.7 19.6 22 27.5 23.3-28.7 37.4-46.2 42.4-52.4l29.8 24.2zM192 232l128 0 0 48-128 0 0-48zM176 360l144 0 0 48-144 0 0-48zM64 352l64 0 0 64-64 0 0-64z"/></svg>