<svg xmlns="http://www.w3.org/2000/svg" viewBox="0 0 576 512"><!--! Font Awesome Pro 7.0.0 by @fontawesome - https://fontawesome.com License - https://fontawesome.com/license (Commercial License) Copyright 2025 Fonticons, Inc. --><path fill="currentColor" d="M288 64c106 0 192 86 192 192S394 448 288 448c-65.2 0-122.9-32.5-157.6-82.3L77.9 402.3C124.1 468.6 201 512 288 512 429.4 512 544 397.4 544 256S429.4 0 288 0C202.3 0 126.5 42.1 80 106.7l0-58.7-64 0 0 176 176 0 0-64-70.3 0C154.9 102.6 217 64 288 64zm24 64l-48 0 0 137.9 7 7c50.5 50.5 77.5 77.5 81 81L385.9 320c-4.6-4.6-29.3-29.3-73.9-73.9L312 128z"/></svg>