<svg xmlns="http://www.w3.org/2000/svg" viewBox="0 0 576 512"><!--! Font Awesome Pro 7.0.0 by @fontawesome - https://fontawesome.com License - https://fontawesome.com/license (Commercial License) Copyright 2025 Fonticons, Inc. --><path fill="currentColor" d="M128 320l-96 0 0-96c0-41.8 26.7-77.4 64-90.5L96 112c0-61.9 50.1-112 112-112 43.1 0 80.5 24.3 99.2 60 14.7-17.1 36.5-28 60.8-28 44.2 0 80 35.8 80 80l0 16c53 0 96 43 96 96l0 96-416 0zm384 48l0 48-512 0 0-48 512 0zM64 464l128 0 0 48-128 0 0-48zm176 0l336 0 0 48-336 0 0-48z"/></svg>