<svg xmlns="http://www.w3.org/2000/svg" viewBox="0 0 512 512"><!--! Font Awesome Pro 7.0.0 by @fontawesome - https://fontawesome.com License - https://fontawesome.com/license (Commercial License) Copyright 2025 Fonticons, Inc. --><path fill="currentColor" d="M96 320l-96 0 0-96c0-41.8 26.7-77.4 64-90.5L64 112c0-61.9 50.1-112 112-112 43.1 0 80.5 24.3 99.2 60 14.7-17.1 36.5-28 60.8-28 44.2 0 80 35.8 80 80l0 16c53 0 96 43 96 96l0 96-416 0zM38.7 440l24-72 50.6 0-24 72-50.6 0zm376-72l50.6 0-48 144-50.6 0 48-144zm-120 0l50.6 0-24 72-50.6 0 24-72zm-112 0l50.6 0-48 144-50.6 0 48-144zM24 488a24 24 0 1 1 48 0 24 24 0 1 1 -48 0zm256-24a24 24 0 1 1 0 48 24 24 0 1 1 0-48z"/></svg>