<svg xmlns="http://www.w3.org/2000/svg" viewBox="0 0 640 512"><!--! Font Awesome Pro 7.0.0 by @fontawesome - https://fontawesome.com License - https://fontawesome.com/license (Commercial License) Copyright 2025 Fonticons, Inc. --><path fill="currentColor" d="M496.5 89.5c0-52.8 36.3-97 85.3-109.2-17.8-7.9-37.6-12.3-58.3-12.3-55.9 0-104.4 31.9-128.2 78.4 36.6 19.1 62.9 55.4 68 98.2 38.7 22 64.9 63.6 64.9 111.3 45.4-1.4 85.5-23.9 110.9-58-9.6 2.6-19.6 4.1-30.1 4.1-62.1 0-112.5-50.4-112.5-112.5zM208.6 416l-32.4 136 200-168-104.4 0 32.4-136-200 168 104.4 0zM32.3 239.9l0 96.1 92.6 0 161.9-136 78.3 0-32.4 136 147.6 0-.1-80.1c0-38.7-27.5-71-64-78.4l0-17.6c0-44.2-35.8-80-80-80-17 0-32.8 5.3-45.8 14.4-16.8-27.8-47.3-46.4-82.2-46.4-53.4 0-96 44.5-96 97.3-45.4 7.6-80 47.1-80 94.6z"/></svg>