<svg xmlns="http://www.w3.org/2000/svg" viewBox="0 0 576 512"><!--! Font Awesome Pro 7.1.0 by @fontawesome - https://fontawesome.com License - https://fontawesome.com/license (Commercial License) Copyright 2025 Fonticons, Inc. --><path fill="currentColor" d="M240 32c55.4 0 103.5 31.3 127.6 77.1 14.2-8.3 30.8-13.1 48.4-13.1 53 0 96 43 96 96l0 49.1c38.3 22.1 64 63.5 64 110.9l0 128-576 0 0-144c0-62.7 40.1-116 96-135.8L96 176C96 96.5 160.5 32 240 32zM345.4 201.9L259.8 319.6c-19.3-20-33.7-34.9-43.2-44.7l-34.5 33.3c6.2 6.4 27.2 28.1 63.1 65.3l19.8 20.6 16.8-23.1 102.4-140.8 14.1-19.4-38.8-28.2-14.1 19.4z"/></svg>