<svg xmlns="http://www.w3.org/2000/svg" viewBox="0 0 512 512"><!--! Font Awesome Pro 7.0.0 by @fontawesome - https://fontawesome.com License - https://fontawesome.com/license (Commercial License) Copyright 2025 Fonticons, Inc. --><path fill="currentColor" d="M145.6 117.7l41.9 69.8-69.8-41.9c-10.4-6.3-22.4-9.6-34.5-9.6-37.1 0-67.1 30.1-67.1 67.1l0 18.6 34.3 34.3-34.3 34.3 0 18.6c0 37.1 30.1 67.1 67.1 67.1 12.2 0 24.1-3.3 34.5-9.6l69.8-41.9-41.9 69.8c-6.3 10.4-9.6 22.4-9.6 34.5 0 37.1 30.1 67.1 67.1 67.1l18.6 0 34.3-34.3 34.3 34.3 18.6 0c37.1 0 67.1-30.1 67.1-67.1 0-12.2-3.3-24.1-9.6-34.5l-41.9-69.8 69.8 41.9c10.4 6.3 22.4 9.6 34.5 9.6 37.1 0 67.1-30.1 67.1-67.1l0-18.6-34.3-34.3 34.3-34.3 0-18.6c0-37.1-30.1-67.1-67.1-67.1-12.2 0-24.1 3.3-34.5 9.6l-69.8 41.9 41.9-69.8c6.3-10.4 9.6-22.4 9.6-34.5 0-37.1-30.1-67.1-67.1-67.1l-18.6 0-34.3 34.3-34.3-34.3-18.6 0c-37.1 0-67.1 30.1-67.1 67.1 0 12.2 3.3 24.1 9.6 34.5z"/></svg>