<svg xmlns="http://www.w3.org/2000/svg" viewBox="0 0 448 512"><!--! Font Awesome Pro 7.0.0 by @fontawesome - https://fontawesome.com License - https://fontawesome.com/license (Commercial License) Copyright 2025 Fonticons, Inc. --><path fill="currentColor" d="M56 56l0 48 48 0 0-48-48 0zM0 0l160 0 0 160-48 0 0 64 176 0c26.5 0 48-21.5 48-48l0-16-48 0 0-160 160 0 0 160-48 0 0 16c0 61.9-50.1 112-112 112l-176 0 0 64 48 0 0 160-160 0 0-160 48 0 0-192-48 0 0-160zM392 56l-48 0 0 48 48 0 0-48zM104 456l0-48-48 0 0 48 48 0z"/></svg>