<svg xmlns="http://www.w3.org/2000/svg" viewBox="0 0 576 512"><!--! Font Awesome Pro 7.0.0 by @fontawesome - https://fontawesome.com License - https://fontawesome.com/license (Commercial License) Copyright 2025 Fonticons, Inc. --><path fill="currentColor" d="M288 0c34 0 66.5 6.2 96.2 17.5-10.3 18.5-16.2 39.8-16.2 62.5 0 70.7 57.3 128 128 128 15.6 0 30.6-2.8 44.5-7.9 2.3 13 3.5 26.3 3.5 39.9 0 132.5-114.6 240-256 240-38.3 0-74.7-7.9-107.3-22.1L32 512 87.7 389.5C52.8 348.5 32 296.5 32 240 32 107.5 146.6 0 288 0zM496 0a80 80 0 1 1 0 160 80 80 0 1 1 0-160z"/></svg>