<svg xmlns="http://www.w3.org/2000/svg" viewBox="0 0 576 512"><!--! Font Awesome Pro 7.0.0 by @fontawesome - https://fontawesome.com License - https://fontawesome.com/license (Commercial License) Copyright 2025 Fonticons, Inc. --><path fill="currentColor" d="M160-16l192 0 0 80 48 0 36 144c-1.3 0-2.7 0-4 0-106 0-192 86-192 192 0 5.4 .2 10.7 .7 16l-216.7 0 88-352 48 0 0-80zM284.4 522.8c-8.8 3.4-18.4 5.2-28.4 5.2-38.7 0-71-27.5-78.4-64l73.3 0c7.7 21.6 19.1 41.5 33.5 58.8zM304 32l-96 0 0 32 96 0 0-32zM432 256a144 144 0 1 1 0 288 144 144 0 1 1 0-288zm16 80l0-16-32 0 0 64-64 0 0 32 64 0 0 64 32 0 0-64 64 0 0-32-64 0 0-48z"/></svg>