<svg xmlns="http://www.w3.org/2000/svg" viewBox="0 0 576 512"><!--! Font Awesome Pro 7.0.0 by @fontawesome - https://fontawesome.com License - https://fontawesome.com/license (Commercial License) Copyright 2025 Fonticons, Inc. --><path fill="currentColor" d="M352.3-13.3l22.6 22.6 160 160 22.6 22.6-45.3 45.3-24-24-177.4 177.4-9.4 9.4-112 0C5.1 584.4 107.4 482.1 64.3 525.3L19 480c24.4-24.4 56.2-56.2 125.3-125.3l0-112 9.4-9.4 177.4-177.4-1.4-1.4-22.6-22.6 45.3-45.3zm24 114.5l-82.7 82.7 66.7 66.7 82.7-82.7-66.7-66.7zm-128 128l-40 40 0 66.7 66.7 0 40-40-66.7-66.7z"/></svg>