<svg xmlns="http://www.w3.org/2000/svg" viewBox="0 0 576 512"><!--! Font Awesome Pro 7.0.0 by @fontawesome - https://fontawesome.com License - https://fontawesome.com/license (Commercial License) Copyright 2025 Fonticons, Inc. --><path fill="currentColor" d="M344.6 400.3L432.7 71.7 104.1-16.3 16 312.3 344.6 400.3zM196.6 208a32 32 0 1 1 55.4-32 32 32 0 1 1 -55.4 32zm-85.3 12.3a32 32 0 1 1 32 55.4 32 32 0 1 1 -32-55.4zm185 96.4a32 32 0 1 1 -32-55.4 32 32 0 1 1 32 55.4zm9-208.4a32 32 0 1 1 32 55.4 32 32 0 1 1 -32-55.4zm-121 14.4a32 32 0 1 1 -32-55.4 32 32 0 1 1 32 55.4zm40 295.1l0 94.2 320 0 0-320-94.2 0-71.6 267.1-154.2-41.3z"/></svg>