<svg xmlns="http://www.w3.org/2000/svg" viewBox="0 0 640 512"><!--! Font Awesome Pro 7.0.0 by @fontawesome - https://fontawesome.com License - https://fontawesome.com/license (Commercial License) Copyright 2025 Fonticons, Inc. --><path fill="currentColor" d="M96 96l384 0 0 112.7c5.3-.4 10.6-.7 16-.7 16.6 0 32.7 2.1 48 6l0-182-512 0 0 384 208 0-16 48-96 0 0 48 212 0c-22.7-31.5-36-70.2-36-112 0-16.6 2.1-32.7 6-48L96 352 96 96zm352 72l0-24-128 0 0 48 46.1 0-54.1 54.1c-49.7-49.7-76.4-76.4-80-80-.8 .8-33.1 33.1-97 97l-17 17 33.9 33.9c3.6-3.6 30.3-30.3 80-80 49.7 49.7 76.4 76.4 80 80 11.2-11.2 22.8-22.8 34.8-34.8 8.4-10.4 17.9-19.9 28.3-28.3l24.9-24.9 0 7.7c14.9-8.6 31-15.3 48-19.6l0-46zM640 400a144 144 0 1 0 -288 0 144 144 0 1 0 288 0zM512 328l32 0 0 32-61.8 0c-5.6 0-10.2 4.6-10.2 10.2 0 4.9 3.5 9.1 8.3 10l45 8.2c20 3.6 34.6 21.1 34.6 41.5 0 23.3-18.9 42.2-42.2 42.2l-5.8 0 0 24-32 0 0-24-32 0 0-32 69.8 0c5.6 0 10.2-4.6 10.2-10.2 0-4.9-3.5-9.1-8.3-10l-45-8.2c-20-3.6-34.6-21.1-34.6-41.5 0-22.6 17.7-41 40-42.1l0-24.1 32 0 0 24z"/></svg>