<svg xmlns="http://www.w3.org/2000/svg" viewBox="0 0 576 512"><!--! Font Awesome Pro 7.0.0 by @fontawesome - https://fontawesome.com License - https://fontawesome.com/license (Commercial License) Copyright 2025 Fonticons, Inc. --><path fill="currentColor" d="M473 209.8c-22.2 9.4-49.7 17-81 22.2L353.9 176 411.2 91.7c23.4 4.9 44.2 11.2 61.7 18.6 47.1 19.9 55 39.9 55 49.8s-8 29.9-55 49.8zM340.7 238.1c-16.9 1.3-34.5 1.9-52.7 1.9s-35.8-.7-52.7-1.9l14.6-46.1 76.2 0 14.6 46.1zm-156.6-6.1c-31.4-5.2-58.8-12.8-81-22.2-47.1-19.9-55-39.9-55-49.8s8-29.9 55-49.8c17.5-7.4 38.3-13.7 61.7-18.6l57.4 84.3-38 55.9zM225.5 82.8C245.3 81 266.2 80 288 80s42.7 1 62.5 2.8l-24.4 77.2-76.2 0-24.4-77.2zM576 160C576 80 447.1 32 288 32S0 80 0 160L0 352c0 80 128.9 128 288 128s288-48 288-128l0-192z"/></svg>