<svg xmlns="http://www.w3.org/2000/svg" viewBox="0 0 448 512"><!--! Font Awesome Pro 7.0.0 by @fontawesome - https://fontawesome.com License - https://fontawesome.com/license (Commercial License) Copyright 2025 Fonticons, Inc. --><path fill="currentColor" d="M0 0L448 0 448 512 0 512 0 0zM368 304a144 144 0 1 0 -288 0 144 144 0 1 0 288 0zM96 120a24 24 0 1 0 0-48 24 24 0 1 0 0 48zM216 96a24 24 0 1 0 -48 0 24 24 0 1 0 48 0zM320 304c0 53-43 96-96 96-44.7 0-82.3-30.6-93-72l69 0 0-48-69 0c10.7-41.4 48.2-72 93-72 53 0 96 43 96 96z"/></svg>