<svg xmlns="http://www.w3.org/2000/svg" viewBox="0 0 512 512"><!--! Font Awesome Pro 7.0.0 by @fontawesome - https://fontawesome.com License - https://fontawesome.com/license (Commercial License) Copyright 2025 Fonticons, Inc. --><path fill="currentColor" d="M454 320l-22 0-48-48 0-80 32 0 0-32-64 0 0 48-96 0 0 32-64 0 0-32 80-80 0-16-48 0 0-32 32-32c114.9 0 208 93.1 208 208 0 22.3-3.5 43.8-10 64zm-13.4 32C408.2 414.1 345.4 457.8 272 463.4l0-31.4-64 0-48-48 0-112 144 0 48 48 32 0 32 32 24.6 0zM256 512l26.2-1.3c-8.6 .9-17.3 1.3-26.2 1.3zm26.2-1.3C411.3 497.6 512 388.6 512 256 512 114.6 397.4 0 256 0l0 0C114.6 0 0 114.6 0 256 0 383.5 93.2 489.3 215.3 508.8 228.5 510.9 242.1 512 256 512zM187.3 123.3c-24.8 24.8-39.2 39.2-43.3 43.3L121.4 144c4.1-4.1 18.5-18.5 43.3-43.3l11.3-11.3 22.6 22.6-11.3 11.3z"/></svg>