<svg xmlns="http://www.w3.org/2000/svg" viewBox="0 0 512 512"><!--! Font Awesome Pro 7.0.0 by @fontawesome - https://fontawesome.com License - https://fontawesome.com/license (Commercial License) Copyright 2025 Fonticons, Inc. --><path fill="currentColor" d="M55.7 199.7l40.3 40.3 48 0 48 48 0 64 32 32 0 64 64 0 0-48 64-64 0-80-128 0-32-32 0-32 80 0 0-32-32-32 0-16 32-32 0-31.4c-5.3-.4-10.6-.6-16-.6-95.4 0-175.7 64.2-200.3 151.7zM464 256c0-36.9-9.6-71.5-26.4-101.6l-37.6 37.6 0 80 63.4 0c.4-5.3 .6-10.6 .6-16zM0 256a256 256 0 1 1 512 0 256 256 0 1 1 -512 0z"/></svg>