<svg xmlns="http://www.w3.org/2000/svg" viewBox="0 0 576 512"><!--! Font Awesome Pro 7.0.0 by @fontawesome - https://fontawesome.com License - https://fontawesome.com/license (Commercial License) Copyright 2025 Fonticons, Inc. --><path fill="currentColor" d="M496 0a80 80 0 1 1 0 160 80 80 0 1 1 0-160zM368 80c0 56.9 37.1 105 88.3 121.7l-149.1 111.9-19.2 14.4-19.2-14.4-224-168-12.8-9.6 0-72 337 0c-.7 5.2-1 10.6-1 16zM336 352L536.9 201.3c2.4-.8 4.8-1.7 7.1-2.6l0 249.3-512 0 0-252 256 192 48-36z"/></svg>