<svg xmlns="http://www.w3.org/2000/svg" viewBox="0 0 512 512"><!--! Font Awesome Pro 7.0.0 by @fontawesome - https://fontawesome.com License - https://fontawesome.com/license (Commercial License) Copyright 2025 Fonticons, Inc. --><path fill="currentColor" d="M75.9 437.9C65.3 427.5 55.7 416.1 47.1 404l67.4 0c8.9 34.5 40.2 60 77.5 60l128 0c37.3 0 68.6-25.5 77.5-60l67.4 0c-8.6 12.1-18.2 23.5-28.8 33.9-20.3 43.8-64.7 74.1-116.1 74.1l-128 0c-51.4 0-95.8-30.3-116.1-74.1zM112 364l-88.2 0C8.5 331.2 0 294.6 0 256 0 254.1 0 252.1 .1 250.2l111.9 49 0 64.8zm376.2 0l-88.2 0 0-64.8 111.9-49c0 1.9 .1 3.8 .1 5.8 0 38.6-8.5 75.2-23.8 108zM9.6 202C8.4 201.5 7.2 201.1 6 200.8 31.2 85.9 133.6 0 256 0S480.8 85.9 506 200.8c-1.2 .3-2.4 .7-3.6 1.3L379 256 133 256 9.6 202zm115.7 6l23.5-17.6c12.5-9.3 27.6-14.4 43.2-14.4l32 0 0-48-32 0c-26 0-51.2 8.4-72 24l-25.6 19.2 27.6 36.8 3.3 0zM390 208L417.6 171.2 392 152c-20.8-15.6-46-24-72-24l-32 0 0 48 32 0c15.6 0 30.7 5.1 43.2 14.4 2.5 1.9 10.3 7.7 23.5 17.6l3.3 0zM176 300l180 0 0 40-200 0 0-40 20 0zm0 80l180 0 0 40-200 0 0-40 20 0z"/></svg>