<svg xmlns="http://www.w3.org/2000/svg" viewBox="0 0 512 512"><!--! Font Awesome Pro 7.0.0 by @fontawesome - https://fontawesome.com License - https://fontawesome.com/license (Commercial License) Copyright 2025 Fonticons, Inc. --><path fill="currentColor" d="M256 512a256 256 0 1 0 0-512 256 256 0 1 0 0 512zm68-248c0 11 9 20 20 20l16 0c11 0 20-9 20-20l0-16 40 0 0 16c0 33.1-26.9 60-60 60l-16 0c-33.1 0-60-26.9-60-60l0-16 40 0 0 16zM152 284l16 0c11 0 20-9 20-20l0-16 40 0 0 16c0 33.1-26.9 60-60 60l-16 0c-33.1 0-60-26.9-60-60l0-16 40 0 0 16c0 11 9 20 20 20zm40.3 77.6C204.4 384.5 228.4 400 256 400s51.6-15.5 63.7-38.4l42.4 22.5C342 422.1 302 448 256 448s-86-25.9-106.1-63.9l42.4-22.5zm6-230.7l-6.3 2.1c-22.8 7.6-42.4 22.6-55.7 42.6l-7.6 11.5-33.3-22.2 7.6-11.5c18.3-27.4 45.1-47.9 76.3-58.3l6.3-2.1 12.6 37.9zM320 133.1l-6.3-2.1 12.6-37.9 6.3 2.1c31.2 10.4 58.1 30.9 76.3 58.3l7.6 11.5-33.3 22.2-7.6-11.5c-13.3-20-32.9-35-55.7-42.6z"/></svg>