<svg xmlns="http://www.w3.org/2000/svg" viewBox="0 0 512 512"><!--! Font Awesome Pro 7.0.0 by @fontawesome - https://fontawesome.com License - https://fontawesome.com/license (Commercial License) Copyright 2025 Fonticons, Inc. --><path fill="currentColor" d="M256 512a256 256 0 1 0 0-512 256 256 0 1 0 0 512zm-63.7-89.6l-42.4-22.5C170 361.9 210 336 256 336s86 25.9 106.1 63.9l-42.4 22.5C307.6 399.5 283.6 384 256 384s-51.6 15.5-63.7 38.4zM120 192l64 0c22.1 0 40 17.9 40 40s-17.9 40-40 40c-19.4 0-35.5-13.7-39.2-32l-48.8 0 0-48 24 0zm168 0l88 0c22.1 0 40 17.9 40 40s-17.9 40-40 40c-19.4 0-35.5-13.7-39.2-32l-48.8 0 0-48z"/></svg>