<svg xmlns="http://www.w3.org/2000/svg" viewBox="0 0 640 512"><!--! Font Awesome Pro 7.0.0 by @fontawesome - https://fontawesome.com License - https://fontawesome.com/license (Commercial License) Copyright 2025 Fonticons, Inc. --><path fill="currentColor" d="M320 0C264.6 0 213.2 17.6 171.3 47.6 57.1 42.8 0 0 0 0 0 80.1 55.6 160.1 74.1 184.5 67.5 207.2 64 231.2 64 256 64 397.4 178.6 512 320 512S576 397.4 576 256c0-24.8-3.5-48.8-10.1-71.5 18.5-24.4 74.1-104.4 74.1-184.5 0 0-57.1 42.8-171.3 47.6-41.9-30-93.2-47.6-148.7-47.6zM272 272c0 17.7-14.3 32-32 32s-32-14.3-32-32c0-7.3 2.4-14 6.6-19.4-20.9-7-36.9-12.3-47.8-15.9l12.6-37.9 19 6.3 96 32 19 6.3-12.6 37.9c-14.2-4.7-23.7-7.9-28.6-9.6l0 .3zm128 32c-17.7 0-32-14.3-32-32l0-.3c-4.9 1.6-14.5 4.8-28.6 9.6l-12.6-37.9 19-6.3 96-32 19-6.3 12.6 37.9c-11 3.7-26.9 9-47.8 15.9 4.1 5.4 6.6 12.1 6.6 19.4 0 17.7-14.3 32-32 32zM227.8 343.5C248 372.9 281.8 392 320 392s72-19.1 92.2-48.5l39.5 27.3C422.9 412.6 374.7 440 320 440s-102.9-27.4-131.8-69.2l39.5-27.3z"/></svg>