<svg xmlns="http://www.w3.org/2000/svg" viewBox="0 0 576 512"><!--! Font Awesome Pro 7.0.0 by @fontawesome - https://fontawesome.com License - https://fontawesome.com/license (Commercial License) Copyright 2025 Fonticons, Inc. --><path fill="currentColor" d="M532.5 332.1C540 308.1 544 282.5 544 256 544 114.6 429.4 0 288 0S32 114.6 32 256 146.6 512 288 512c40.2 0 78.3-9.3 112.2-25.8-.1-2-.2-4.1-.2-6.2 0-16.7-.4-32.8-4.9-46.8-2-6.3-4.5-10.7-7-13.7-2.4-2.8-5.8-5.7-11.8-8.1l-2.2-.9-22.3 11.8C339.6 399.5 315.6 384 288 384s-51.6 15.5-63.7 38.4l-42.4-22.5c20.1-37.9 60.1-63.9 106.1-63.9 21.9 0 42.4 5.9 60 16.1 3.3-17.3 6.4-33 9.1-47.1-23.9-7.9-41.1-30.4-41.1-57l0-16 40 0 0 16c0 11 9 20 20 20l16 0c11 0 20-9 20-20l0-16 40 0 0 16c0 17.1-7.2 32.6-18.7 43.5 32.5 6.3 68.6 20.9 99.2 40.6zM184 268l16 0c11 0 20-9 20-20l0-16 40 0 0 16c0 33.1-26.9 60-60 60l-16 0c-33.1 0-60-26.9-60-60l0-16 40 0 0 16c0 11 9 20 20 20zm210.1 98.9c26.5 10.6 39.8 30.2 46.7 51.7 7.1 22.1 7.2 45.3 7.2 61.5 0 35.3 28.7 64 64 64s64-28.7 64-64c0-48.1-33.5-84.3-69.3-107.4-35.9-23.2-78.9-36.6-106.7-36.6l-5.9 30.9z"/></svg>