<svg xmlns="http://www.w3.org/2000/svg" viewBox="0 0 512 512"><!--! Font Awesome Pro 7.0.0 by @fontawesome - https://fontawesome.com License - https://fontawesome.com/license (Commercial License) Copyright 2025 Fonticons, Inc. --><path fill="currentColor" d="M336-16l-48 0 0 18c-22.2-2.8-41.7-2.2-56-.9l0-17.1-136 0 0 36.4c-31 17.1-52 50.1-52 88 0 1.3 0 2.6 .1 3.9-27.8 41-44.1 90.4-44.1 143.7 0 88 44.4 165.6 112 211.7l0-115.7-32 0 0-48 352 0 0 48-32 0 0 115.7c67.6-46.1 112-123.7 112-211.7 0-62.7-22.6-120.2-60-164.7l0-83.3-28 0 0-24-88 0zM184 32l0 24 28 0 0 40-67.5 0c-6.9 0-12.5 5.6-12.5 12.5 0 6.1 4.4 11.3 10.4 12.3l41.7 7c25.3 4.2 43.9 26.1 43.9 51.8 0 26.1-19 47.7-44 51.8l0 24.7-40 0 0-24-44 0 0-40 75.5 0c6.9 0 12.5-5.6 12.5-12.5 0-6.1-4.4-11.3-10.4-12.3l-41.7-7C110.5 156 92 134.1 92 108.5 92 79.7 115.2 56.3 144 56l0-24 40 0zm152 0l40 0 0 24 28 0 0 40-67.5 0c-6.9 0-12.5 5.6-12.5 12.5 0 6.1 4.4 11.3 10.4 12.3l41.7 7c25.3 4.2 43.9 26.1 43.9 51.8 0 26.1-19 47.7-44 51.8l0 24.7-40 0 0-24-44 0 0-40 75.5 0c6.9 0 12.5-5.6 12.5-12.5 0-6.1-4.4-11.3-10.4-12.3l-41.7-7c-25.3-4.2-43.9-26.1-43.9-51.8 0-28.8 23.2-52.2 52-52.5l0-24zm16 320l-192 0 0 128c0 53 43 96 96 96s96-43 96-96l0-128zm-80 48l24 0 0 32-49.5 0c-3.6 0-6.5 2.9-6.5 6.5 0 3 2 5.6 4.9 6.3l30 7.5c17.1 4.3 29.1 19.7 29.1 37.3 0 19-13.8 34.8-32 37.9l0 16.5-32 0 0-16-24 0 0-32 49.5 0c3.6 0 6.5-2.9 6.5-6.5 0-3-2-5.6-4.9-6.3l-30-7.5c-17.1-4.3-29.1-19.7-29.1-37.3 0-19 13.8-34.8 32-37.9l0-16.5 32 0 0 16z"/></svg>