<svg xmlns="http://www.w3.org/2000/svg" viewBox="0 0 640 512"><!--! Font Awesome Pro 7.0.0 by @fontawesome - https://fontawesome.com License - https://fontawesome.com/license (Commercial License) Copyright 2025 Fonticons, Inc. --><path fill="currentColor" d="M320-32C456-32 567.2 74.1 575.5 208l-511 0C72.8 74.1 184-32 320-32zM240 176c17.7 0 32-14.3 32-32l0-.3c4.9 1.6 14.5 4.8 28.6 9.6l12.6-37.9-19-6.3-96-32-19-6.3-12.6 37.9c11 3.7 27 9 47.8 15.9-4.1 5.4-6.6 12.1-6.6 19.4 0 17.7 14.3 32 32 32zm192-32c0-7.3-2.4-14-6.6-19.4 20.9-7 36.8-12.3 47.8-15.9l-12.6-37.9-19 6.3-96 32-19 6.3 12.6 37.9c14.2-4.7 23.7-7.9 28.6-9.6l0 .3c0 17.7 14.3 32 32 32s32-14.3 32-32zM0 256l640 0 0 256-640 0 0-256zM416 368l0-32-32 0 0-32-32 0 0 32-32 0 0-32-32 0 0 32-32 0 0 32 32 0 0 32-32 0 0 32 32 0 0 32 32 0 0-32 32 0 0 32 32 0 0-32 32 0 0-32-32 0 0-32 32 0zm-64 0l0 32-32 0 0-32 32 0zm220.1-29.6l10.4-12.1-24.3-20.8-10.4 12.1-96 112-10.4 12.1 24.3 20.8 10.4-12.1 96-112zM224 304l-32 0 0 96 32 0 0-96zM96 320.5c-18.2 3.1-32 18.9-32 37.9 0 17.7 12 33 29.1 37.3l30 7.5c2.9 .7 4.9 3.3 4.9 6.3 0 3.6-2.9 6.5-6.5 6.5l-57.5 0 0 32 32 0 0 16 32 0 0-16.5c18.2-3.1 32-18.9 32-37.9 0-17.7-12-33-29.1-37.3l-30-7.5c-2.9-.7-4.9-3.3-4.9-6.3 0-3.6 2.9-6.5 6.5-6.5l49.5 0 0-32-24 0 0-16-32 0 0 16.5zM488 312l-40 0 0 40 40 0 0-40zm48 104l0 40 40 0 0-40-40 0zM192 432l0 32 32 0 0-32-32 0z"/></svg>