<svg xmlns="http://www.w3.org/2000/svg" viewBox="0 0 576 512"><!--! Font Awesome Pro 7.0.0 by @fontawesome - https://fontawesome.com License - https://fontawesome.com/license (Commercial License) Copyright 2025 Fonticons, Inc. --><path fill="currentColor" d="M352 224l0 32 184 0c22.1 0 40 17.9 40 40s-17.9 40-40 40l-120 0 0 32 102.3 0c-41.5 85.3-129 144-230.3 144-141.4 0-256-114.6-256-256S146.6 0 288 0C418.5 0 526.3 97.7 542 224l-190 0zM240 408c0-4.4 3.6-8 8-8l72 0 0-48-72 0c-30.9 0-56 25.1-56 56l0 24 48 0 0-24zm0-232a32 32 0 1 0 -64 0 32 32 0 1 0 64 0zm128 32a32 32 0 1 0 0-64 32 32 0 1 0 0 64z"/></svg>