<svg xmlns="http://www.w3.org/2000/svg" viewBox="0 0 576 512"><!--! Font Awesome Pro 7.0.0 by @fontawesome - https://fontawesome.com License - https://fontawesome.com/license (Commercial License) Copyright 2025 Fonticons, Inc. --><path fill="currentColor" d="M52.6 120L11 96C55.2 19.5 126.2-31.9 205.3-53.1L217.7-6.7C150.5 11.3 90.1 54.9 52.6 120zM523.7 392l41.6 24C521.1 492.5 450 543.9 371 565.1l-12.4-46.4c67.3-18 127.6-61.7 165.2-126.7zM93.9 144A224.1 224.1 0 1 1 482.1 368 224.1 224.1 0 1 1 93.9 144zm176.7 46.4a32 32 0 1 0 -55.4-32 32 32 0 1 0 55.4 32zm94.8 91.7a32 32 0 1 0 32-55.4 32 32 0 1 0 -32 55.4zm-69.9 89a64 64 0 1 0 -110.8-64 64 64 0 1 0 110.8 64z"/></svg>