<svg xmlns="http://www.w3.org/2000/svg" viewBox="0 0 512 512"><!--! Font Awesome Pro 7.0.0 by @fontawesome - https://fontawesome.com License - https://fontawesome.com/license (Commercial License) Copyright 2025 Fonticons, Inc. --><path fill="currentColor" d="M352 0c41 0 80.3 16.3 109.2 45.2l5.5 5.5c29 29 45.3 68.3 45.3 109.2 0 26.3-6.7 51.9-19.2 74.6l-124.8 37.4 0 16 80 0-52.6 52.6-91.4 27.4 0 16 48 0-64 64-192 0-64 64-32-32 272-272-32-32-176 176 0-128 178.7-178.8C271.7 16.3 311 0 352 0z"/></svg>