<svg xmlns="http://www.w3.org/2000/svg" viewBox="0 0 512 512"><!--! Font Awesome Pro 7.0.0 by @fontawesome - https://fontawesome.com License - https://fontawesome.com/license (Commercial License) Copyright 2025 Fonticons, Inc. --><path fill="currentColor" d="M304 0l-96 0 0 37.2c-24.2 5.3-46.9 14.5-67.4 26.8L64 64 64 140.6C51.6 161.1 42.4 183.8 37.2 208l-37.2 0 0 96 37.2 0c5.3 24.2 14.5 46.9 26.8 67.4l0 76.6 57.2 0 24.5-76.1c-25.1-23.9-42.5-56-47.9-91.9l65.2 0c-2-7.7-3-15.7-3-24s1-16.3 3-24l-65.2 0c4-26.3 14.3-50.4 29.4-70.9l46.1 46.1c8.3-14 20-25.7 33.9-33.9l-46.1-46.1c20.5-15.1 44.6-25.4 70.9-29.4l0 65.2c7.7-2 15.7-3 24-3s16.3 1 24 3l0-65.2c26.3 4 50.4 14.3 70.9 29.4l-46.1 46.1c14 8.3 25.7 20 33.9 33.9l46.1-46.1c15.1 20.5 25.4 44.6 29.4 70.9L349 232c2 7.7 3 15.7 3 24s-1.1 16.3-3 24l65.2 0c-5.4 35.9-22.8 68-47.9 91.9l24.5 76.1 57.2 0 0-76.6c12.4-20.6 21.6-43.3 26.8-67.4l37.2 0 0-96-37.2 0c-5.3-24.2-14.5-46.9-26.8-67.4l0-76.6-76.6 0C350.9 51.6 328.2 42.4 304 37.2L304 0zM166.5 464c-2.8 8.7-7.9 24.7-15.4 48l209.8 0c-21-65.3-24.7-76.7-59.2-184.3l-12.1-37.5c8.9-8.7 14.4-20.8 14.4-34.2 0-24-17.6-43.9-40.6-47.4-2.4-.4-4.9-.6-7.4-.6s-5 .2-7.4 .6c-23 3.6-40.6 23.4-40.6 47.4 0 13.4 5.5 25.5 14.4 34.2-3.5 11-20.6 64-51.1 159.1L166.5 464z"/></svg>