<svg xmlns="http://www.w3.org/2000/svg" viewBox="0 0 576 512"><!--! Font Awesome Pro 7.0.0 by @fontawesome - https://fontawesome.com License - https://fontawesome.com/license (Commercial License) Copyright 2025 Fonticons, Inc. --><path fill="currentColor" d="M464.1 544a80 80 0 1 1 0-160 80 80 0 1 1 0 160zm-2.9-345.5L297 447.1c-26.7 40.5-72 64.9-120.5 64.9-79.8 0-144.4-64.7-144.4-144.4l0-79.6 112 0 0 79.6c0 17.9 14.5 32.4 32.4 32.4 10.9 0 21.1-5.5 27.1-14.6l162.6-246.3 95 59.4zM565.7 40.1c-17.8 27-43.9 66.4-78.1 118.3L392.6 99c35.5-53.8 62-94 79.6-120.6l93.5 61.7z"/></svg>