<svg xmlns="http://www.w3.org/2000/svg" viewBox="0 0 640 512"><!--! Font Awesome Pro 7.0.0 by @fontawesome - https://fontawesome.com License - https://fontawesome.com/license (Commercial License) Copyright 2025 Fonticons, Inc. --><path fill="currentColor" d="M64 0l240 0 144 144 0 123.7-132.3 132.3-28.8 0-33.4-66.7-6.6-13.3-42.2 0-7.2 8.8-72 88 37.2 30.4 58.5-71.5c23.5 47 35.5 71 36.1 72.3l29.7 0-10.7 64-212.2 0 0-512zM272 58.5L272 176 389.5 176 272 58.5zM544 239.9l80 80-52.8 52.8-80-80 52.8-52.8zm-208 208l132.6-132.6 80 80-132.6 132.6-96 16 16-96z"/></svg>