<svg xmlns="http://www.w3.org/2000/svg" viewBox="0 0 576 512"><!--! Font Awesome Pro 7.0.0 by @fontawesome - https://fontawesome.com License - https://fontawesome.com/license (Commercial License) Copyright 2025 Fonticons, Inc. --><path fill="currentColor" d="M324 420l-32 0 0 128-40 0 0-128-32 0 0-40 104 0 0 40zm128 0l-64 0 0 24 48 0 0 40-48 0 0 24 64 0 0 40-104 0 0-168 104 0 0 40zm64-20c0 6.5 1.9 12.8 5.5 18.2l6.5 9.7 6.5-9.7c3.6-5.4 5.5-11.7 5.5-18.2l0-20 40 0 0 20c0 14.4-4.2 28.4-12.2 40.4L552 464 567.8 487.6c8 12 12.2 26 12.2 40.4l0 20-40 0 0-20c0-6.5-1.9-12.8-5.5-18.2l-6.5-9.7-6.5 9.7c-3.6 5.4-5.5 11.7-5.5 18.2l0 20-40 0 0-20c0-14.4 4.2-28.4 12.2-40.4l15.7-23.6-15.7-23.6c-8-12-12.2-26-12.2-40.4l0-20 40 0 0 20zM416 144l0 192-240 0 0 176-144 0 0-512 240 0 144 144zM240 176L357.5 176 240 58.5 240 176z"/></svg>