<svg xmlns="http://www.w3.org/2000/svg" viewBox="0 0 576 512"><!--! Font Awesome Pro 7.0.0 by @fontawesome - https://fontawesome.com License - https://fontawesome.com/license (Commercial License) Copyright 2025 Fonticons, Inc. --><path fill="currentColor" d="M272 0l-240 0 0 512 144 0 0-176 240 0 0-192-144-144zm85.5 176L240 176 240 58.5 357.5 176zM240 380l-20 0 0 168 40 0 0-48 12 0c33.1 0 60-26.9 60-60s-26.9-60-60-60l-32 0zm32 80l-12 0 0-40 12 0c11 0 20 9 20 20s-9 20-20 20zm96-80l-20 0 0 168 52 0c28.7 0 52-23.3 52-52l0-64c0-28.7-23.3-52-52-52l-32 0zm20 128l0-88 12 0c6.6 0 12 5.4 12 12l0 64c0 6.6-5.4 12-12 12l-12 0zm88-128l0 168 40 0 0-64 48 0 0-40-48 0 0-24 48 0 0-40-88 0z"/></svg>