<svg xmlns="http://www.w3.org/2000/svg" viewBox="0 0 384 512"><!--! Font Awesome Pro 7.0.0 by @fontawesome - https://fontawesome.com License - https://fontawesome.com/license (Commercial License) Copyright 2025 Fonticons, Inc. --><path fill="currentColor" d="M0 0L240 0 384 144 384 512 0 512 0 0zM208 58.5L208 176 325.5 176 208 58.5zm-22.4 221c-11.1-14.8-28.5-23.5-46.9-23.5-32.4 0-58.7 26.3-58.7 58.7l0 5.3c0 64 112 128 112 128s112-64 112-128l0-5.3c0-32.4-26.3-58.7-58.7-58.7-18.5 0-35.9 8.7-46.9 23.5l-6.4 8.5-6.4-8.5z"/></svg>