<svg xmlns="http://www.w3.org/2000/svg" viewBox="0 0 384 512"><!--! Font Awesome Pro 7.0.0 by @fontawesome - https://fontawesome.com License - https://fontawesome.com/license (Commercial License) Copyright 2025 Fonticons, Inc. --><path fill="currentColor" d="M0 0L240 0 384 144 384 512 0 512 0 0zM208 58.5L208 176 325.5 176 208 58.5zM120.5 428.7l3.9 19.3 37 0c.4-1.1 10.6-31.8 30.7-92.1 20.1 60.3 30.4 91 30.7 92.1l37 0 3.9-19.3 34.5-172.7-49 0-14.9 74.7c-15.3-45.8-23.6-70.7-24.9-74.7l-34.6 0c-1.3 4-9.6 28.9-24.9 74.7l-14.9-74.7-49 0 34.5 172.7z"/></svg>