<svg xmlns="http://www.w3.org/2000/svg" viewBox="0 0 576 512"><!--! Font Awesome Pro 7.0.0 by @fontawesome - https://fontawesome.com License - https://fontawesome.com/license (Commercial License) Copyright 2025 Fonticons, Inc. --><path fill="currentColor" d="M272 0l-240 0 0 512 244 0c-22.7-31.5-36-70.2-36-112 0-100.6 77.4-183.2 176-191.3L416 144 272 0zm85.5 176L240 176 240 58.5 357.5 176zM576 400a144 144 0 1 0 -288 0 144 144 0 1 0 288 0zm-73.6-51.5l-9.4 12.9-64 88-11 15.1c-4.4-4.4-22.1-22.1-53.2-53.2L353.4 400 376 377.4c5 5 17.7 17.7 38.1 38.1l53-72.9 9.4-12.9 25.9 18.8z"/></svg>