<svg xmlns="http://www.w3.org/2000/svg" viewBox="0 0 384 512"><!--! Font Awesome Pro 7.0.0 by @fontawesome - https://fontawesome.com License - https://fontawesome.com/license (Commercial License) Copyright 2025 Fonticons, Inc. --><path fill="currentColor" d="M203.1 9.7L192 0 180.9 9.7C104.2 76.8 45.7 162.2 10.9 258 3.7 277.8 0 299 0 320.2 0 425.4 86.8 512 192 512s192-86.6 192-191.8c0-21.1-3.7-42.3-10.9-62.2-34.8-95.8-93.3-181.2-170-248.3zM208 144l0 15.9c0 12.9 5.2 25.2 14.3 34.2l47.1 46.4c22.1 21.8 34.6 51.5 34.6 82.5 0 60.2-48.8 109-109 109l-3 0c-61.9 0-112-50.6-112-112.4 0-25.5 12-49.6 32.4-64.9l15.6-11.7 0 55c0 24.3 19.8 44 44.1 44 24.2 0 43.9-19.6 43.9-43.8 0-11.6-4.6-22.8-12.8-31l-16.8-16.8c-11.7-11.7-18.3-27.7-18.3-44.3 0-19 8.6-37 23.5-48.9L208 144z"/></svg>