<svg xmlns="http://www.w3.org/2000/svg" viewBox="0 0 576 512"><!--! Font Awesome Pro 7.0.0 by @fontawesome - https://fontawesome.com License - https://fontawesome.com/license (Commercial License) Copyright 2025 Fonticons, Inc. --><path fill="currentColor" d="M0 448l128-224 0-160-32 0 0-64 256 0 0 64-32 0 0 153.5-36.5-21.1-23.8 42.5-2.4 4.3-1.3-2.2 0-177-64 0 0 177c-.9 1.6-16 27.9-45.1 79l67.5 0-.2 .4-22.4 40 37.7 23.5-37.7 23.4c12.6 22.6 32.1 57.5 58.5 104.8L0 512 0 448zM368.2 223.9l96 0 0 41.4c11.1 4.5 21.4 10.5 30.7 17.8l35.9-20.7 45.3 81.5-33.4 20.9c.9 6.3 1.4 12.7 1.4 19.2 0 6.5-.5 12.9-1.4 19.1l33.4 20.8-45.3 81.7-35.9-20.7c-9.3 7.3-19.6 13.3-30.7 17.8l0 41.4-96 0 0-41.2c-11.2-4.5-21.5-10.5-30.9-17.8l-35.7 20.6-45.6-81.7 33.4-20.7c-.9-6.3-1.4-12.7-1.4-19.2 0-6.5 .5-13 1.4-19.3l-33.4-20.8 45.6-81.5 35.7 20.6c9.3-7.3 19.7-13.3 30.9-17.8l0-41.2zm99.9 160.2a52 52 0 1 0 -104 0 52 52 0 1 0 104 0z"/></svg>