<svg xmlns="http://www.w3.org/2000/svg" viewBox="0 0 512 512"><!--! Font Awesome Pro 7.0.0 by @fontawesome - https://fontawesome.com License - https://fontawesome.com/license (Commercial License) Copyright 2025 Fonticons, Inc. --><path fill="currentColor" d="M256 0C386.6 0 494.3 97.8 510 224.2l-159.2 18.7 28.2 93.1 133 0 0 176-129.8 0-5.2-17-33.6-111-55.4 0 0 80-64 0-188.9-78.7C12.8 347.3 0 303.2 0 256 0 114.6 114.6 0 256 0zM417.8 464l46.2 0 0-80-70.4 0 24.2 80zM160 288a32 32 0 1 0 0 64 32 32 0 1 0 0-64zm80-32l30 80 58.8 0-26.5-87.4-62.4 7.4z"/></svg>