<svg xmlns="http://www.w3.org/2000/svg" viewBox="0 0 512 512"><!--! Font Awesome Pro 7.0.0 by @fontawesome - https://fontawesome.com License - https://fontawesome.com/license (Commercial License) Copyright 2025 Fonticons, Inc. --><path fill="currentColor" d="M200.1-16l112 0 19.7 95.5c14.1 6 27.3 13.7 39.3 22.8l92.6-30.7 56 97-72.9 64.8c.9 7.4 1.3 15 1.3 22.7s-.5 15.3-1.3 22.7l72.9 64.8-56 97-92.6-30.7c-12.1 9.1-25.3 16.7-39.3 22.8l-19.7 95.5-112 0-19.7-95.5c-14.1-6-27.2-13.7-39.3-22.8l-92.6 30.7-56-97 72.9-64.8c-.9-7.4-1.3-15-1.3-22.7s.5-15.3 1.3-22.7l-72.9-64.8 56-97 92.6 30.7c12.1-9.1 25.3-16.7 39.3-22.8L200.1-16zm99.5 172.5l4.5-19.5-39-9-4.5 19.5-48 208-4.5 19.5 39 9 4.5-19.5 48-208zM182.2 238.1l14.1-14.1-28.3-28.3c-6.5 6.5-21.8 21.8-46.1 46.1L107.8 256c6.5 6.5 21.8 21.8 46.1 46.1l14.1 14.1 28.3-28.3c-8.8-8.8-19.5-19.5-32-32l17.9-17.9zm176-28.3l-14.1-14.1-28.3 28.3c8.8 8.8 19.5 19.5 32 32-12.5 12.5-23.2 23.2-32 32l28.3 28.3c6.5-6.5 21.8-21.8 46.1-46.1L404.3 256c-6.5-6.5-21.8-21.8-46.1-46.1z"/></svg>