<svg xmlns="http://www.w3.org/2000/svg" viewBox="0 0 640 512"><!--! Font Awesome Pro 7.0.0 by @fontawesome - https://fontawesome.com License - https://fontawesome.com/license (Commercial License) Copyright 2025 Fonticons, Inc. --><path fill="currentColor" d="M64 32l448 0 0 64c0 27.4-4.9 53.7-14 78l-43.1-43.1-32.4 20.2c-25.4 15.9-61.7 45-92.1 83.2-18.8 23.6-36.9 52.6-47.8 85.6-15-.4-29.7-2.2-43.9-5.4l-22.9 53.4 56.8 0c-.4 5.2-.7 10.5-.7 15.8 0 10.9 .8 21.7 2.5 32.2L224 416c0 35.3-28.7 64-64 64s-64-28.7-64-64 28.7-64 64-64c3.4 0 6.8 .3 10.1 .8L193.2 299C116.9 263.3 64 185.8 64 96l0-64zm96 408a24 24 0 1 0 0-48 24 24 0 1 0 0 48zM448 192l64 64 32-32c76.8 64 96 133.3 96 160 0 88.4-71.6 160-160 160S320 472.4 320 384c0-89.6 85.3-165.3 128-192zm96 240.2c0-48-64-96-64-96s-64 48-64 96c0 35.3 28.7 64 64 64s64-28.7 64-64z"/></svg>