<svg xmlns="http://www.w3.org/2000/svg" viewBox="0 0 512 512"><!--! Font Awesome Pro 7.0.0 by @fontawesome - https://fontawesome.com License - https://fontawesome.com/license (Commercial License) Copyright 2025 Fonticons, Inc. --><path fill="currentColor" d="M37.6 122.3c-11.5 18.7-20.6 39-27 60.5l61.3 18.3C90.4 139.2 139.2 90.4 201.1 71.9L182.9 10.6C161.4 17 141.1 26.1 122.3 37.6 112.3 15.4 89.9 0 64 0 28.7 0 0 28.7 0 64 0 89.9 15.4 112.3 37.6 122.3zm436.7 0c22.2-10 37.6-32.4 37.6-58.3 0-35.3-28.7-64-64-64-25.9 0-48.3 15.4-58.3 37.6-18.7-11.5-39-20.6-60.5-27L310.9 71.9c61.9 18.4 110.8 67.3 129.2 129.2l61.3-18.3c-6.4-21.5-15.5-41.8-27-60.5zM512 448c0-25.9-15.4-48.3-37.6-58.3 11.5-18.7 20.6-39 27-60.5l-61.3-18.3c-18.4 61.9-67.3 110.8-129.2 129.2l18.3 61.3c21.5-6.4 41.8-15.5 60.5-27 10 22.2 32.4 37.6 58.3 37.6 35.3 0 64-28.7 64-64zM37.6 389.7c-22.2 10-37.6 32.4-37.6 58.3 0 35.3 28.7 64 64 64 25.9 0 48.3-15.4 58.3-37.6 18.7 11.5 39 20.6 60.5 27l18.3-61.3C139.2 421.6 90.4 372.8 71.9 310.9L10.6 329.1c6.4 21.5 15.5 41.8 27 60.5zM360 144l-28.9 28.9c-19.8-17.9-46.2-28.9-75.1-28.9-43.6 0-81.3 24.9-99.8 61.1L199 226.9c10.6-20.8 32.2-34.9 57-34.9 15.6 0 30 5.6 41.1 14.9l-33.1 33.1 96 0 0-96zM314.6 285.1c-10.6 20.8-32.2 34.9-57 34.9-15.7 0-30-5.6-41.1-14.9l33.1-33.1-96 0 0 96 28.9-28.9c19.8 17.9 46.2 28.9 75.1 28.9 43.6 0 81.3-24.9 99.8-61.1l-42.7-21.8z"/></svg>