<svg xmlns="http://www.w3.org/2000/svg" viewBox="0 0 640 512"><!--! Font Awesome Pro 7.0.0 by @fontawesome - https://fontawesome.com License - https://fontawesome.com/license (Commercial License) Copyright 2025 Fonticons, Inc. --><path fill="currentColor" d="M224 32L271 3.8c21.6-13 46.3-19.8 71.5-19.8 36.8 0 72.2 14.6 98.2 40.7l87.3 87.3 0 64 19.7 19.7 0 0 28.3-28.3 56.6 56.6c-12.9 12.9-43.7 43.7-92.3 92.3l-28.3 28.3-56.6-56.6 28.3-28.3-19.7-19.7-64 0-96-96 0-64-80-48zM50.8 402.7l222.1-222.1 90.5 90.5C185.8 448.7 96.7 537.8 96 538.5L5.5 448 50.8 402.7z"/></svg>