<svg xmlns="http://www.w3.org/2000/svg" viewBox="0 0 512 512"><!--! Font Awesome Pro 7.0.0 by @fontawesome - https://fontawesome.com License - https://fontawesome.com/license (Commercial License) Copyright 2025 Fonticons, Inc. --><path fill="currentColor" d="M219.5 39.7l-8.3-30.9-61.8 16.6 8.3 30.9 53.5 199.7-29.6 0-46.7-153.3-9.3-30.6-61.2 18.6 9.3 30.6 71.7 235.5c-46.5-44.3-76.6-73-90.5-86.2L-.4 328.5c8.1 7.7 49.9 47.5 125.4 119.5 43.1 41.1 100.4 64 160 64l19.5 0c56.7 0 106.7-37.3 122.8-91.7l83.7-283.2 9.1-30.7-61.4-18.1c-.8 2.7-17.3 58.7-49.6 167.8l-24.7 0 39.2-185.4 6.6-31.3-62.6-13.2-6.6 31.3-42 198.6-41.5 0-57.9-216.3z"/></svg>