<svg xmlns="http://www.w3.org/2000/svg" viewBox="0 0 640 512"><!--! Font Awesome Pro 7.0.0 by @fontawesome - https://fontawesome.com License - https://fontawesome.com/license (Commercial License) Copyright 2025 Fonticons, Inc. --><path fill="currentColor" d="M352 0l0 256 32 0 0-224 64 0 0 224 32 0 0-160 64 0 0 171.5-44.6 104-57.7 24.7-9.7 4.2 0 63.3c3.4 1.5 16 6.8 37.6 16.1-28.7 20.3-63.7 32.2-101.6 32.2l-19.2 0c-59.6 0-116.9-22.9-160-64-74.8-71.2-116.3-110.7-124.5-118.6l55.2-57.9c16.9 16.1 41.1 39.1 72.6 69.1 0-1.5-.1-3.1-.1-4.6l0-304 64 0 0 224 32 0 0-256 64 0zM256 368l32 16 16 32 16-32 32-16-32-16-16-32-16 32-32 16zM56 120l24-56 24 56 56 24-56 24-24 56-24-56-56-24 56-24zM560 352l24 56 56 24-56 24-24 56-24-56-56-24 56-24 24-56z"/></svg>