<svg xmlns="http://www.w3.org/2000/svg" viewBox="0 0 512 512"><!--! Font Awesome Pro 7.0.0 by @fontawesome - https://fontawesome.com License - https://fontawesome.com/license (Commercial License) Copyright 2025 Fonticons, Inc. --><path fill="currentColor" d="M0 96l0 64 240 0 0-64-240 0zM160 288l0 64 128 0 0-64-128 0zm-32-32l112 0 0-64-112 0 0 64zm64 128l0 64 128 0 0-64-128 0zM363 64l-91 0 0 192 80 0 0-112 32 0 0 144-64 0 0 64 32 0 0 96c88.4 0 160-71.6 160-160l0-61.7c0-42.4-16.9-83.1-46.9-113.1l-11.6-11.6C429.5 77.5 396.9 64 363 64z"/></svg>