<svg xmlns="http://www.w3.org/2000/svg" viewBox="0 0 640 512"><!--! Font Awesome Pro 7.0.0 by @fontawesome - https://fontawesome.com License - https://fontawesome.com/license (Commercial License) Copyright 2025 Fonticons, Inc. --><path fill="currentColor" d="M316.1 6c1.6-2.4 3-4.5 3.9-6 .9 1.6 2.3 3.6 3.9 6 7.4 11.1 20.1 30.3 20.1 50 0 13.3-10.7 24-24 24s-24-10.7-24-24c0-19.7 12.8-38.9 20.1-50zM28.1 54c1.6-2.4 3-4.5 3.9-6 .9 1.6 2.3 3.6 3.9 6l0 0c7.4 11.1 20.1 30.3 20.1 50 0 13.3-10.7 24-24 24S8 117.3 8 104C8 84.3 20.8 65.1 28.1 54zM112 48c.9 1.6 2.3 3.6 3.9 6l0 0c7.4 11.1 20.1 30.3 20.1 50 0 13.3-10.7 24-24 24s-24-10.7-24-24c0-19.7 12.8-38.9 20.1-50 1.6-2.4 3-4.5 3.9-6zm60.1 6c1.6-2.4 3-4.5 3.9-6 .9 1.6 2.3 3.6 3.9 6l0 0c7.4 11.1 20.1 30.3 20.1 50 0 13.3-10.7 24-24 24s-24-10.7-24-24c0-19.7 12.8-38.9 20.1-50zM240 48c.9 1.6 2.3 3.6 3.9 6l0 0c7.4 11.1 20.1 30.3 20.1 50 0 13.3-10.7 24-24 24s-24-10.7-24-24c0-19.7 12.8-38.9 20.1-50 1.6-2.4 3-4.5 3.9-6zm156.1 6c1.6-2.4 3-4.5 3.9-6 .9 1.6 2.3 3.6 3.9 6 7.4 11.1 20.1 30.3 20.1 50 0 13.3-10.7 24-24 24s-24-10.7-24-24c0-19.7 12.8-38.9 20.1-50zM528 48c.9 1.6 2.3 3.6 3.9 6 7.4 11.1 20.1 30.3 20.1 50 0 13.3-10.7 24-24 24s-24-10.7-24-24c0-19.7 12.8-38.9 20.1-50 1.6-2.4 3-4.5 3.9-6zm-67.9 6c1.6-2.4 3-4.5 3.9-6 .9 1.6 2.3 3.6 3.9 6 7.4 11.1 20.1 30.3 20.1 50 0 13.3-10.7 24-24 24s-24-10.7-24-24c0-19.7 12.8-38.9 20.1-50zM608 48c.9 1.6 2.3 3.6 3.9 6 7.4 11.1 20.1 30.3 20.1 50 0 13.3-10.7 24-24 24s-24-10.7-24-24c0-19.7 12.8-38.9 20.1-50 1.6-2.4 3-4.5 3.9-6zM352 112l0 208 224 0 0-160 64 0 0 224-288 0 0 64 160 0 0 64-384 0 0-64 160 0 0-64-288 0 0-224 64 0 0 160 224 0 0-208 64 0zM128 160l0 128-32 0 0-128 32 0zm64 0l0 128-32 0 0-128 32 0zm64 0l0 128-32 0 0-128 32 0zm160 0l0 128-32 0 0-128 32 0zm64 0l0 128-32 0 0-128 32 0zm64 0l0 128-32 0 0-128 32 0z"/></svg>