<svg xmlns="http://www.w3.org/2000/svg" viewBox="0 0 512 512"><!--! Font Awesome Pro 7.0.0 by @fontawesome - https://fontawesome.com License - https://fontawesome.com/license (Commercial License) Copyright 2025 Fonticons, Inc. --><path fill="currentColor" d="M282.5 32L256 5.5 229.5 32 192 32 192 69.5 165.5 96 192 122.5 192 139.3C128.4 163.5 87.4 223.7 62.9 292.6l65.1 32.6 117.3-58.6 10.7-5.4 128 64 65.1-32.6C424.6 223.7 383.6 163.5 320 139.3l0-16.8 26.5-26.5-26.5-26.5 0-37.5-37.5 0zM479.1 448c-1.9-34.5-7-72-16-108.7l-79.1 39.5-128-64-117.3 58.6-10.7 5.4-10.7-5.4-68.4-34.2c-9 36.7-14.1 74.2-16 108.7l-32.9 0 0 64 512 0 0-64-32.9 0z"/></svg>