<svg xmlns="http://www.w3.org/2000/svg" viewBox="0 0 640 512"><!--! Font Awesome Pro 7.0.0 by @fontawesome - https://fontawesome.com License - https://fontawesome.com/license (Commercial License) Copyright 2025 Fonticons, Inc. --><path fill="currentColor" d="M640 400l0 43.6-53.4-35.6-292.7-195.1c-36.1-24.1-78.6-36.9-122-36.9l-3.9 0c-2.7 0-5.4 0-8 .1l32-144.1 64 0 64 48 64-48 64 0 43.1 194.1C575.4 239.1 640 312 640 400zM171.9 224c33.9 0 67.1 10 95.4 28.9L560 448 0 448 0 395.9C0 301 77 224 171.9 224z"/></svg>