<svg xmlns="http://www.w3.org/2000/svg" viewBox="0 0 512 512"><!--! Font Awesome Pro 7.0.0 by @fontawesome - https://fontawesome.com License - https://fontawesome.com/license (Commercial License) Copyright 2025 Fonticons, Inc. --><path fill="currentColor" d="M224 0C338.4 0 432.7 85.7 446.3 196.4l49.7 59.6 0 64-64 0 0 128-112 0 0 64-256 0 0-131.2C24.4 340.4 0 285 0 224 0 100.3 100.3 0 224 0zm16 64c-12.3 0-23.5 4.6-32 12.2-8.5-7.6-19.7-12.2-32-12.2-26.5 0-48 21.5-48 48-26.5 0-48 21.5-48 48s21.5 48 48 48c.7 0 1.3 0 2 0 7.1 27.6 32.2 48 62 48 35.3 0 64-28.7 64-64l48 0c26.5 0 48-21.5 48-48s-21.5-48-48-48l-18.7 0c-6.6-18.6-24.4-32-45.3-32z"/></svg>