<svg xmlns="http://www.w3.org/2000/svg" viewBox="0 0 576 512"><!--! Font Awesome Pro 7.0.0 by @fontawesome - https://fontawesome.com License - https://fontawesome.com/license (Commercial License) Copyright 2025 Fonticons, Inc. --><path fill="currentColor" d="M49.3-16.9l-17-17-33.9 33.9 17 17 512 512 17 17 33.9-33.9c-3.7-3.7-30.2-30.2-79.4-79.4 8.4-14.3 13.3-30.9 13.3-48.7l0-160c0-123.7-100.3-224-224-224-61.3 0-116.9 24.7-157.4 64.6L49.3-16.9zM176 109.8c28.9-28.4 68.4-45.8 112.1-45.8 88.4 0 160 71.6 160 160l0 32-96 0 0 30-176.1-176.1zM186.3 256l-58.2 0 0-32c0-8.3 .6-16.4 1.8-24.3L77.6 147.3c-8.7 23.9-13.5 49.8-13.5 76.7l0 160c0 53 43 96 96 96l64 0 0-186.2-37.8-37.8z"/></svg>