<svg xmlns="http://www.w3.org/2000/svg" viewBox="0 0 576 512"><!--! Font Awesome Pro 7.0.0 by @fontawesome - https://fontawesome.com License - https://fontawesome.com/license (Commercial License) Copyright 2025 Fonticons, Inc. --><path fill="currentColor" d="M133.1 32C175.8 32 216 52.5 241 87.1l15 20.7 15-20.7c25-34.6 65.2-55.1 107.9-55.1 73.5 0 133.1 59.6 133.1 133.1 0 19.2-3 38.1-8.5 56.6-22.1-8.9-46.2-13.8-71.5-13.8-106 0-192 86-192 192 0 33 8.3 64 23 91.2-2.4 1.6-4.7 3.3-7 4.8-102.5-70.7-256-194.1-256-330.9 0-73.5 59.6-133.1 133.1-133.1zM432 256a144 144 0 1 1 0 288 144 144 0 1 1 0-288zm16 80l0-16-32 0 0 64-64 0 0 32 64 0 0 64 32 0 0-64 64 0 0-32-64 0 0-48z"/></svg>