<svg xmlns="http://www.w3.org/2000/svg" viewBox="0 0 512 512"><!--! Font Awesome Pro 7.0.0 by @fontawesome - https://fontawesome.com License - https://fontawesome.com/license (Commercial License) Copyright 2025 Fonticons, Inc. --><path fill="currentColor" d="M256 107.8l-17.3-24c-23.6-32.6-61.8-51.9-102-51.9-74.9 0-136.7 60.8-136.7 135.7 0 151.6 255.6 328.1 256 328.3 0 0 256-176.6 256-328.3 0-74.9-61.7-135.7-136.7-135.7-27.9 0-54.8 9.3-76.5 25.8-9.6 7.3-18.2 16.1-25.5 26.1l-17.3 24zm0 109.2l69.2-95.7c11.4-15.8 30.2-25.4 50.2-25.4 40.2 0 72.7 32.7 72.7 71.7 0 20.7-9.1 48-30.1 81-20.4 32.3-48.8 64.8-78.9 94.4-26.2 25.9-54.1 50.1-83.1 72.9l0-199z"/></svg>