<svg xmlns="http://www.w3.org/2000/svg" viewBox="0 0 640 512"><!--! Font Awesome Pro 7.0.0 by @fontawesome - https://fontawesome.com License - https://fontawesome.com/license (Commercial License) Copyright 2025 Fonticons, Inc. --><path fill="currentColor" d="M208.3 32l-24 0 0 48 176 0 0 48-220.8 0c-26.1-31.4-39.5-47.4-40-48L17.5 80C24 92.9 45.8 136.5 82.9 210.7l6.6 13.3 122.6 0 120.8 166.1 7.2 9.9 116.2 0c75.1 0 136-60.9 136-136s-60.9-136-136-136l-48 0 0-48 176 0 0-48-376 0zm200 160l48 0c39.8 0 72 32.2 72 72s-32.2 72-72 72l-48 0 0-144zm200 224l-48 0 0 32-304 0 0 48 352 0 0-80z"/></svg>