<svg xmlns="http://www.w3.org/2000/svg" viewBox="0 0 640 512"><!--! Font Awesome Pro 7.0.0 by @fontawesome - https://fontawesome.com License - https://fontawesome.com/license (Commercial License) Copyright 2025 Fonticons, Inc. --><path fill="currentColor" d="M472 24a56 56 0 1 1 -112 0 56 56 0 1 1 112 0zm-8 88l13.3 0 9.4 9.4 80 80 9.4 9.4 0 109.3-64 0 0-82.7-32-32 0 69.3c0 28-12.2 54.7-33.5 72.9l-80.7 69.1c-11 71.6-17.4 112.9-19.1 123.9l-63.3-9.7c1.4-9 8.3-54.2 20.9-135.6l1.8-11.7 9-7.7 52.8-45.3 0-115.2c-17.6 22-28.4 35.6-32.6 40.8l-111.4 0 0-64 80.6 0 54.4-68 9.6-12 95.4 0zm15.9 259l12.6 44.2c44.7 44.7 71.6 71.6 80.8 80.8l-45.3 45.3-86.6-86.6-5.9-5.9c-.8-2.7-3.8-13.2-9-31.5l46-39.4c2.5-2.2 5-4.4 7.4-6.8zM308.9 109.8l-27.4 34.2-105.6 0 0 160 144 0 0 4.3c-27.6 23.6-44.6 38.2-50.9 43.7L48 352 48 192 16 192 16 161.2 192 8 308.9 109.8z"/></svg>