<svg xmlns="http://www.w3.org/2000/svg" viewBox="0 0 640 512"><!--! Font Awesome Pro 7.0.0 by @fontawesome - https://fontawesome.com License - https://fontawesome.com/license (Commercial License) Copyright 2025 Fonticons, Inc. --><path fill="currentColor" d="M512 32l-448 0 0 448 209.5 0c4.6-24.3 19.4-43.6 36.5-56.4 3.7-2.8 7.5-5.3 11.5-7.6l-209.5 0 96-144 46.1 69.1 81.9-133.1 16 26 0-6.2 160-29.1 0-166.7zM192 112a48 48 0 1 1 0 96 48 48 0 1 1 0-96zM624 255.8l0-28.8-28.3 5.1-176 32-19.7 3.6 0 181.8c-5.9-1.1-11.4-1.6-16-1.6-9.5 0-22.9 2.1-34.9 7.5-11.1 5-29.1 17.2-29.1 40.5s18 35.4 29.1 40.5c11.9 5.4 25.4 7.5 34.9 7.5s22.9-2.1 34.9-7.5c11.1-5 29.1-17.2 29.1-40.5l0-140.1 128-23.3 0 85c-5.9-1.1-11.4-1.6-16-1.6-9.5 0-22.9 2.1-34.9 7.5-11.1 5-29.1 17.2-29.1 40.5s18 35.4 29.1 40.5c11.9 5.4 25.4 7.5 34.9 7.5s22.9-2.1 34.9-7.5c11.1-5 29.1-17.2 29.1-40.5l0-208.1z"/></svg>