<svg xmlns="http://www.w3.org/2000/svg" viewBox="0 0 512 512"><!--! Font Awesome Pro 7.0.0 by @fontawesome - https://fontawesome.com License - https://fontawesome.com/license (Commercial License) Copyright 2025 Fonticons, Inc. --><path fill="currentColor" d="M188.5 78.1L208 0 304 0 323.5 78.1c-1.2 .6-2.4 1.2-3.5 1.8-19.3-10-40.8-15.9-64-15.9s-44.7 5.9-64 15.9c-1.2-.6-2.3-1.2-3.5-1.8zM192 470.3C173.2 486.6 151.3 496 128 496 57.3 496 0 410 0 304S57.3 112 128 112c23.3 0 45.2 9.3 64 25.7 18.8-16.3 40.7-25.7 64-25.7s45.2 9.3 64 25.7c18.8-16.3 40.7-25.7 64-25.7 70.7 0 128 86 128 192S454.7 496 384 496c-23.3 0-45.2-9.4-64-25.7-18.8 16.3-40.7 25.7-64 25.7s-45.2-9.4-64-25.7zM176 192l-38.4 64 76.8 0-38.4-64zm160 0l-38.4 64 76.8 0-38.4-64zM96 293.1c6.4 38.8 30.1 72.5 64 94.8l0-19.9 48 0 0 41.6c15.2 4.2 31.3 6.4 48 6.4s32.8-2.3 48-6.5l0-41.5 48 0 0 19.9c33.9-22.3 57.6-56.1 64-94.9-39.3 14.1-85.8 23.1-136 25.3l0 33.7-48 0 0-33.7c-50.2-2.2-96.7-11.2-136-25.2z"/></svg>