<svg xmlns="http://www.w3.org/2000/svg" viewBox="0 0 512 512"><!--! Font Awesome Pro 7.0.0 by @fontawesome - https://fontawesome.com License - https://fontawesome.com/license (Commercial License) Copyright 2025 Fonticons, Inc. --><path fill="currentColor" d="M97 0L86.2 56 426.3 56 415.6 0 97 0zM78.5 96l-10 52 11.8 0c30.4 0 55.6-22.6 59.5-52L78.5 96zM180 96c-4.1 51.5-47.1 92-99.7 92l-19.5 0-58.8 305.9 188.5 36.3 45.7-237.8 0-196.3-56.3 0zm96.3 0l0 196.3 45.7 237.8 188.5-36.3-58.8-305.9-19.5 0c-52.5 0-95.6-40.5-99.7-92l-56.3 0zm96.5 0c3.9 29.4 29 52 59.5 52l11.8 0-10-52-61.2 0z"/></svg>