<svg xmlns="http://www.w3.org/2000/svg" viewBox="0 0 576 512"><!--! Font Awesome Pro 7.0.0 by @fontawesome - https://fontawesome.com License - https://fontawesome.com/license (Commercial License) Copyright 2025 Fonticons, Inc. --><path fill="currentColor" d="M245.2 318.3l-25.1-50.2 50.1 25.1 9.8-293.2 16 0 9.8 293.2 50.1-25.1-25.1 50.2 53.2 17.7-53.2 17.7 25.1 50.2-47.2-23.6 2.2 65.7c59.8-10.8 105.1-63.1 105.1-126 0-38.3-16.8-72.7-43.5-96.1 45.3-28.3 75.5-78.5 75.5-135.9 0-30.5-8.5-59-23.3-83.2 64.9 37.8 112.8 101.7 129.2 177.4L512 224 559.5 224c.3 5.3 .5 10.6 .5 16 0 18.2-1.8 36-5.2 53.2L496 352 535.9 352C493.3 446.4 398.3 512 288 512S82.7 446.4 40.1 352l39.9 0-58.8-58.8c-3.4-17.2-5.2-35-5.2-53.2 0-5.4 .2-10.7 .5-16l47.5 0-41.8-41.8c16.4-75.6 64.2-139.6 129.2-177.4-14.8 24.2-23.3 52.7-23.3 83.2 0 57.3 30.2 107.6 75.5 135.9-26.7 23.5-43.5 57.8-43.5 96.1 0 62.9 45.4 115.2 105.1 126l2.2-65.7-47.2 23.6 25.1-50.2-53.2-17.7 53.2-17.7z"/></svg>