<svg xmlns="http://www.w3.org/2000/svg" viewBox="0 0 640 512"><!--! Font Awesome Pro 7.0.0 by @fontawesome - https://fontawesome.com License - https://fontawesome.com/license (Commercial License) Copyright 2025 Fonticons, Inc. --><path fill="currentColor" d="M192 64l448 0 0 384-448 0 0-384zm48 64l0 64 64 0 0-64-64 0zm64 96l-64 0 0 64 64 0 0-64zm32-96l0 64 64 0 0-64-64 0zm64 96l-64 0 0 64 64 0 0-64zm-64 96l0 64 160 0 0-64-160 0zM496 128l-64 0 0 64 64 0 0-64zm-64 96l0 64 64 0 0-64-64 0zm160-96l-64 0 0 64 64 0 0-64zm-64 96l0 64 64 0 0-64-64 0zm-416-8l0 137.9c-65.6-65.6-96.8-96.8-97.9-97.9 17.6-17.6 84.8-84.8 97.9-97.9l0 57.9z"/></svg>