<svg xmlns="http://www.w3.org/2000/svg" viewBox="0 0 512 512"><!--! Font Awesome Pro 7.0.0 by @fontawesome - https://fontawesome.com License - https://fontawesome.com/license (Commercial License) Copyright 2025 Fonticons, Inc. --><path fill="currentColor" d="M176 64C114.1 64 64 114.1 64 176l0 336-64 0 0-336C0 78.8 78.8 0 176 0 268.7 0 344.6 71.6 351.5 162.6 442.6 177.6 512 256.7 512 352l-105.5 0c-7.5 41-43.4 72-86.5 72s-79-31-86.5-72L128 352c0-94.9 68.8-173.7 159.2-189.2-6.5-55.6-53.8-98.8-111.2-98.8zM283.3 352c6.2 14.1 20.3 24 36.7 24s30.5-9.9 36.7-24l-73.3 0z"/></svg>