<svg xmlns="http://www.w3.org/2000/svg" viewBox="0 0 576 512"><!--! Font Awesome Pro 7.0.0 by @fontawesome - https://fontawesome.com License - https://fontawesome.com/license (Commercial License) Copyright 2025 Fonticons, Inc. --><path fill="currentColor" d="M288.4 96c59.4 0 110.4 16.7 144.8 40.3 34.6 23.8 47.2 50.2 47.2 71.7s-12.7 47.9-47.2 71.7c-34.4 23.6-85.4 40.3-144.8 40.3-52 0-97.5-12.7-131.1-31.8l-14.2-8.9c-34.2-23.7-46.7-49.9-46.7-71.3 0-21.5 12.7-47.9 47.2-71.7 34.4-23.6 85.3-40.3 144.8-40.3zM253.2 382.4c11.5 1.1 23.2 1.6 35.2 1.6 141.3 0 256.1-78.9 256-176 .1-97.1-114.7-176-256-176-141.3 0-256.1 78.9-256 176 0 48.5 28.6 92.6 75 124.5 5.5 3.8 11.2 7.4 17.1 10.8l49.1 30.7c11.7 7.3 18.8 20.2 18.8 34 0 22.1-17.9 40.1-40.1 40.1l-5.6 0c-7.1 0-14.1-1.7-20.4-4.8-34.9-17.4-60.3-30.2-76.2-38.1L21.5 462.3c15.9 8 41.3 20.7 76.2 38.1 15.2 7.6 32 11.6 49 11.6l5.6 0c57.5 0 104.1-46.6 104.1-104.1 0-8.7-1.1-17.3-3.2-25.6z"/></svg>