<svg xmlns="http://www.w3.org/2000/svg" viewBox="0 0 640 512"><!--! Font Awesome Pro 7.1.0 by @fontawesome - https://fontawesome.com License - https://fontawesome.com/license (Commercial License) Copyright 2025 Fonticons, Inc. --><path fill="currentColor" d="M416 528l-192 0 0-96 192 0 0 96zM320 0c106 0 192 86 192 192 0 71.1-38.6 133.1-96 166.3l0 25.7-192 0 0-25.7C166.6 325.1 128 263.1 128 192 128 86 214 0 320 0zM112.2 330.7c-9 4.5-34 17-74.9 37.5L15.8 325.3c9-4.5 34-17 74.9-37.5l21.5 42.9zm490.5-16.2l21.5 10.7-21.5 42.9c-41-20.5-65.9-33-74.9-37.5l21.5-42.9 53.4 26.7zM292 252l0 56 56 0 0-56-56 0zM80 216l-80 0 0-48 80 0 0 48zM288 72l12.8 144 38.4 0 12.8-144-64 0zM640 216l-80 0 0-48 80 0 0 48zM90.7 42.5l21.5 10.8-21.5 42.9c-41-20.5-65.9-33-74.9-37.5L37.3 15.8 90.7 42.5zM624.2 58.7c-9 4.5-34 17-74.9 37.5L527.8 53.3c9-4.5 34-17 74.9-37.5l21.5 42.9z"/></svg>