<svg xmlns="http://www.w3.org/2000/svg" viewBox="0 0 576 512"><!--! Font Awesome Pro 7.0.0 by @fontawesome - https://fontawesome.com License - https://fontawesome.com/license (Commercial License) Copyright 2025 Fonticons, Inc. --><path fill="currentColor" d="M229.4 383.8l-.3 .2-101.1 0 0-25.7C70.6 325.1 32 263.1 32 192 32 86 118 0 224 0 324.6 0 407.1 77.4 415.3 175.9l-95.2 0 0 41.7-36.7-21.2c-12.2 21.8-35.3 63.1-69.3 123.9l-22.4 40 37.7 23.5zM128 432l77.6 0 8.5 15.2 45.1 80.8-131.2 0 0-96zm88-320l8 0 0-48-8 0C149.7 64 96 117.7 96 184l0 8 48 0 0-8c0-39.8 32.2-72 72-72zM368.2 223.9l96 0 0 41.4c11.1 4.5 21.4 10.5 30.7 17.8l35.9-20.7 45.3 81.5-33.4 20.9c.9 6.3 1.4 12.7 1.4 19.2 0 6.5-.5 12.9-1.4 19.1l33.4 20.8-45.3 81.7-35.9-20.7c-9.3 7.3-19.6 13.3-30.7 17.8l0 41.4-96 0 0-41.2c-11.2-4.5-21.5-10.5-30.9-17.8l-35.7 20.6-45.6-81.7 33.4-20.7c-.9-6.3-1.4-12.7-1.4-19.2 0-6.5 .5-13 1.4-19.3l-33.4-20.8 45.6-81.5 35.7 20.6c9.3-7.3 19.7-13.3 30.9-17.8l0-41.2zm99.9 160.2a52 52 0 1 0 -104 0 52 52 0 1 0 104 0z"/></svg>