<svg xmlns="http://www.w3.org/2000/svg" viewBox="0 0 576 512"><!--! Font Awesome Pro 7.0.0 by @fontawesome - https://fontawesome.com License - https://fontawesome.com/license (Commercial License) Copyright 2025 Fonticons, Inc. --><path fill="currentColor" d="M150.9 41.4L128.3 18.7c-8.2 8.2-37.1 37.1-86.6 86.6L19 128 64.3 173.3c17.3-17.3 28-28 32-32l0 229.5c-4-4-14.7-14.7-32-32L19 384 105.6 470.6 128.3 493.3c8.2-8.2 37.1-37.1 86.6-86.6l22.6-22.6-45.3-45.3c-17.3 17.3-28 28-32 32l0-229.5c4 4 14.7 14.7 32 32L237.5 128c-8.2-8.2-37.1-37.1-86.6-86.6zM544.3 64l-256 0 0 64 256 0 0-64zm0 160l-256 0 0 64 256 0 0-64zm-256 160l0 64 256 0 0-64-256 0z"/></svg>