<svg xmlns="http://www.w3.org/2000/svg" viewBox="0 0 512 512"><!--! Font Awesome Pro 7.0.0 by @fontawesome - https://fontawesome.com License - https://fontawesome.com/license (Commercial License) Copyright 2025 Fonticons, Inc. --><path fill="currentColor" d="M240 16l208 0 0 128-214.6 0-4.7-4.7c-38.1-38.1-57.9-57.9-59.3-59.3 1.4-1.4 21.2-21.2 59.3-59.3l4.7-4.7 6.6 0zm-6.6 176l278.6 0 0 128-278.6 0-4.7-4.7c-38.1-38.1-57.9-57.9-59.3-59.3 1.4-1.4 21.2-21.2 59.3-59.3l4.7-4.7zm0 176l214.6 0 0 128-214.6 0-4.7-4.7c-38.1-38.1-57.9-57.9-59.3-59.3 1.4-1.4 21.2-21.2 59.3-59.3l4.7-4.7zM32 80a48 48 0 1 1 96 0 48 48 0 1 1 -96 0zM80 208a48 48 0 1 1 0 96 48 48 0 1 1 0-96zm0 176a48 48 0 1 1 0 96 48 48 0 1 1 0-96z"/></svg>