<svg xmlns="http://www.w3.org/2000/svg" viewBox="0 0 512 512"><!--! Font Awesome Pro 7.0.0 by @fontawesome - https://fontawesome.com License - https://fontawesome.com/license (Commercial License) Copyright 2025 Fonticons, Inc. --><path fill="currentColor" d="M48 144a48 48 0 1 0 0-96 48 48 0 1 0 0 96zM192 64l-32 0 0 64 352 0 0-64-320 0zm0 160l-32 0 0 64 352 0 0-64-320 0zm0 160l-32 0 0 64 352 0 0-64-320 0zM48 464a48 48 0 1 0 0-96 48 48 0 1 0 0 96zM96 256a48 48 0 1 0 -96 0 48 48 0 1 0 96 0z"/></svg>