<svg xmlns="http://www.w3.org/2000/svg" viewBox="0 0 576 512"><!--! Font Awesome Pro 7.0.0 by @fontawesome - https://fontawesome.com License - https://fontawesome.com/license (Commercial License) Copyright 2025 Fonticons, Inc. --><path fill="currentColor" d="M448.3 208c0 45.9-14.9 88.3-40 122.7L534.9 457.4 557.5 480 512.3 525.3 489.6 502.6 363 376c-34.4 25.2-76.8 40-122.7 40-114.9 0-208-93.1-208-208s93.1-208 208-208 208 93.1 208 208zm-128-32c0-44.2-35.8-80-80-80s-80 35.8-80 80c0 64 80 144 80 144s80-80 80-144zm-112 0a32 32 0 1 1 64 0 32 32 0 1 1 -64 0z"/></svg>