<svg xmlns="http://www.w3.org/2000/svg" viewBox="0 0 640 512"><!--! Font Awesome Pro 7.0.0 by @fontawesome - https://fontawesome.com License - https://fontawesome.com/license (Commercial License) Copyright 2025 Fonticons, Inc. --><path fill="currentColor" d="M288 64l-9.7 0-8.1 5.4-87.9 58.6-182.3 0 0 251.1 26.7 4.5 178.1 29.7c33 22 72.6 34.7 115.1 34.7s82.2-12.8 115.1-34.7l178.1-29.7 26.7-4.5 0-251.1-182.3 0-87.9-58.6-8.1-5.4-73.7 0zM135.9 336.9l-71.9-12 0-132.9 48 0 0 48c0 35 8.6 67.9 23.9 96.9zm440.1-12l-71.9 12C519.4 307.9 528 275 528 240l0-48 48 0 0 132.9zM192 208l256 0 0 48-256 0 0-48zm56 80l168 0 0 48-192 0 0-48 24 0z"/></svg>