<svg xmlns="http://www.w3.org/2000/svg" viewBox="0 0 512 512"><!--! Font Awesome Pro 7.0.0 by @fontawesome - https://fontawesome.com License - https://fontawesome.com/license (Commercial License) Copyright 2025 Fonticons, Inc. --><path fill="currentColor" d="M0 32l0 416 128 0 0 96 160-96 224 0 0-416-512 0zM192 160a32 32 0 1 1 0 64 32 32 0 1 1 0-64zm128 0a32 32 0 1 1 0 64 32 32 0 1 1 0-64zM166.6 280c22 24.6 53.9 40 89.4 40s67.4-15.4 89.4-40l35.8 32c-30.7 34.3-75.5 56-125.2 56s-94.5-21.7-125.2-56l35.8-32z"/></svg>