<svg xmlns="http://www.w3.org/2000/svg" viewBox="0 0 576 512"><!--! Font Awesome Pro 7.0.0 by @fontawesome - https://fontawesome.com License - https://fontawesome.com/license (Commercial License) Copyright 2025 Fonticons, Inc. --><path fill="currentColor" d="M32 0l352 0 0 295.3c-58 43.4-98.6 108.9-109.2 183.9l-.1 .7c-1.5 10.5-2.3 21.2-2.6 32L32 512 32 0zM168 416l-24 0 0 48 84.6 0c2.8-16.5 6.8-32.5 11.9-48L168 416zM552 288l24 0 0 48-24 0c-101.6 0-184 82.4-184 184l0 24-48 0 0-24c0-128.1 103.9-232 232-232zm-8 192a32 32 0 1 1 0 64 32 32 0 1 1 0-64zm32-96l0 48-24 0c-48.6 0-88 39.4-88 88l0 24-48 0 0-24c0-75.1 60.9-136 136-136l24 0z"/></svg>