<svg xmlns="http://www.w3.org/2000/svg" viewBox="0 0 512 512"><!--! Font Awesome Pro 7.0.0 by @fontawesome - https://fontawesome.com License - https://fontawesome.com/license (Commercial License) Copyright 2025 Fonticons, Inc. --><path fill="currentColor" d="M480 8l0 125.8-48 0 0-67.9-127 127-15.7 15.7-16.9-14.5-96.4-82.6-96.4 82.6-18.2 15.6-31.2-36.4 18.2-15.6 112-96 15.6-13.4 15.6 13.4 95.1 81.5 111.3-111.3-67.9 0 0-48 149.8 0 0 24zM0 256l512 0 0 256-512 0 0-256zM48 416l0 48 48 0c0-26.5-21.5-48-48-48zM96 304l-48 0 0 48c26.5 0 48-21.5 48-48zM464 416c-26.5 0-48 21.5-48 48l48 0 0-48zM416 304c0 26.5 21.5 48 48 48l0-48-48 0zm-96 80a64 64 0 1 0 -128 0 64 64 0 1 0 128 0z"/></svg>