<svg xmlns="http://www.w3.org/2000/svg" viewBox="0 0 512 512"><!--! Font Awesome Pro 7.0.0 by @fontawesome - https://fontawesome.com License - https://fontawesome.com/license (Commercial License) Copyright 2025 Fonticons, Inc. --><path fill="currentColor" d="M512 64l-512 0 0 384 512 0 0-384zM448 288l0 48-176 0 0-48 176 0zM272 176l176 0 0 48-176 0 0-48zM168 144l0 24 28 0 0 40-67.5 0c-6.9 0-12.5 5.6-12.5 12.5 0 6.1 4.4 11.3 10.4 12.3l41.7 7c25.3 4.2 43.9 26.1 43.9 51.8 0 26.1-19 47.7-44 51.8l0 24.7-40 0 0-24-44 0 0-40 75.5 0c6.9 0 12.5-5.6 12.5-12.5 0-6.1-4.4-11.3-10.4-12.3l-41.7-7C94.5 268 76 246.1 76 220.5 76 191.7 99.2 168.3 128 168l0-24 40 0z"/></svg>