<svg xmlns="http://www.w3.org/2000/svg" viewBox="0 0 640 512"><!--! Font Awesome Pro 7.0.0 by @fontawesome - https://fontawesome.com License - https://fontawesome.com/license (Commercial License) Copyright 2025 Fonticons, Inc. --><path fill="currentColor" d="M544 64l-512 0 0 384 254.9 0 3.8-23.1 88.9-88.9-75.7 0 0-48 123.7 0 115.9-115.9 .5 .5 0-108.6zM304 176l176 0 0 48-176 0 0-48zM200 144l0 24 28 0 0 40-67.5 0c-6.9 0-12.5 5.6-12.5 12.5 0 6.1 4.4 11.3 10.4 12.3l41.7 7c25.3 4.2 43.9 26.1 43.9 51.8 0 26.1-19 47.7-44 51.8l0 24.7-40 0 0-24-44 0 0-40 75.5 0c6.9 0 12.5-5.6 12.5-12.5 0-6.1-4.4-11.3-10.4-12.3l-41.7-7c-25.3-4.2-43.9-26.1-43.9-51.8 0-28.8 23.2-52.2 52-52.5l0-24 40 0zm344 95.9l-52.8 52.8 80 80 52.8-52.8-80-80zm-208 208l-16 96 96-16 132.6-132.6-80-80-132.6 132.6z"/></svg>