<svg xmlns="http://www.w3.org/2000/svg" viewBox="0 0 576 512"><!--! Font Awesome Pro 7.0.0 by @fontawesome - https://fontawesome.com License - https://fontawesome.com/license (Commercial License) Copyright 2025 Fonticons, Inc. --><path fill="currentColor" d="M160 416c0-80.6 49.6-149.6 120-178l0 50 167.9 0 118.2 112.9 9.9 9.5 0 101.7-64 0 0-74.3-96-91.6 0 101.9 64 0 0 64-320 0C71.6 512 0 440.4 0 352l0-352 224 0 0 192-128 0 0-64 64 0 0-64-96 0 0 288c0 53 43 96 96 96l0-32zm96-288c0-35.3 28.6-64 64-64 15.7-37.6 52.8-64 96-64s80.4 26.4 96 64c35.3 0 64 28.7 64 64 0 32.6-24.4 59.6-56 63.5l0 64.5-208 0 0-64.5c-31.6-3.9-56-30.9-56-63.5zM384 64c-26.5 0-48 21.5-48 48 0 23.8 17.3 43.5 40 47.3l0 48.7 80 0 0-48.7c22.7-3.8 40-23.6 40-47.3 0-26.5-21.5-48-48-48l-64 0zm0 32a16 16 0 1 1 0 32 16 16 0 1 1 0-32zm48 16a16 16 0 1 1 32 0 16 16 0 1 1 -32 0z"/></svg>