<svg xmlns="http://www.w3.org/2000/svg" viewBox="0 0 576 512"><!--! Font Awesome Pro 7.0.0 by @fontawesome - https://fontawesome.com License - https://fontawesome.com/license (Commercial License) Copyright 2025 Fonticons, Inc. --><path fill="currentColor" d="M32 32l448 0 0 145c-5.2-.7-10.6-1-16-1-17 0-33.2 3.3-48 9.3l0-89.3-184 0 0 118.4c-14.3 8.3-24 23.8-24 41.6 0 26.5 21.5 48 48 48s48-21.5 48-48c0-17.8-9.7-33.3-24-41.6l0-70.4 88 0 0 75.3c-19.9 22.6-32 52.2-32 84.7l-32 0 0 64-160 0 0-224 40 0 0-48-88 0 0 320 208 0 0 64-272 0 0-448zM464 272c-17.7 0-32 14.3-32 32l0 48 64 0 0-48c0-17.7-14.3-32-32-32zm-80 32c0-44.2 35.8-80 80-80s80 35.8 80 80l0 48 32 0 0 192-224 0 0-192 32 0 0-48z"/></svg>