<svg xmlns="http://www.w3.org/2000/svg" viewBox="0 0 512 512"><!--! Font Awesome Pro 7.0.0 by @fontawesome - https://fontawesome.com License - https://fontawesome.com/license (Commercial License) Copyright 2025 Fonticons, Inc. --><path fill="currentColor" d="M256 224c64 0 192 80 192 256L256 432 64 480c0-176 128-256 192-256zM21.8 165.3c24.5-14 59.7 .9 78.5 33.3s14.3 70.1-10.2 84.2-59.7-.9-78.5-33.3-14.3-70.1 10.2-84.2zm389.8 33.3c18.9-32.4 54-47.3 78.5-33.3s29.1 51.7 10.2 84.2-54 47.3-78.5 33.3-29.1-51.7-10.2-84.2zM150.1 34.3c32.3-10.6 70.1 15.6 84.4 58.5s-.3 86.2-32.6 96.8-70.1-15.6-84.4-58.5 .3-86.2 32.6-96.8zM277.5 92.8c14.3-42.9 52.1-69.1 84.4-58.5s46.9 53.9 32.6 96.8-52.1 69.1-84.4 58.5-46.9-53.9-32.6-96.8z"/></svg>