<svg xmlns="http://www.w3.org/2000/svg" viewBox="0 0 512 512"><!--! Font Awesome Pro 7.0.0 by @fontawesome - https://fontawesome.com License - https://fontawesome.com/license (Commercial License) Copyright 2025 Fonticons, Inc. --><path fill="currentColor" d="M510.7 35.2c-8.2 8.2-25.8 25.8-52.9 52.8 33.9 49.8 28.8 118.3-15.4 162.5l-58.8 58.8c.2 3.5 .3 7.1 .3 10.7 0 106-86 192-192 192S0 426 0 320 86 128 192 128c3.6 0 7.2 .1 10.7 .3l58.8-58.8C305.7 25.3 374.1 20.2 423.9 54.1 451 27 468.6 9.4 476.8 1.3l33.9 33.9zM272 312c0 48.6-39.4 88-88 88l0 48c75.1 0 136-60.9 136-136l-48 0z"/></svg>