<svg xmlns="http://www.w3.org/2000/svg" viewBox="0 0 576 512"><!--! Font Awesome Pro 7.0.0 by @fontawesome - https://fontawesome.com License - https://fontawesome.com/license (Commercial License) Copyright 2025 Fonticons, Inc. --><path fill="currentColor" d="M49.3-16.9l-17-17-33.9 33.9 17 17 512 512 17 17 33.9-33.9-17-17-184.1-184.1 62-62-3-3-17-17c-216.5-216.5-165.5-165.5-189-189-6.6 6.6-27.3 27.3-62 62L49.3-16.9zM202.1 136l28.1-28.1 31 31-28.1 28.1-31-31zm107.1 243l-144-144-93.1 93.1-56 200 200-56 93.1-93.1zM473.1 215l87-87-144-144-87 87 144 144z"/></svg>