<svg xmlns="http://www.w3.org/2000/svg" viewBox="0 0 576 512"><!--! Font Awesome Pro 7.0.0 by @fontawesome - https://fontawesome.com License - https://fontawesome.com/license (Commercial License) Copyright 2025 Fonticons, Inc. --><path fill="currentColor" d="M288 0a64 64 0 1 1 0 128 64 64 0 1 1 0-128zm64 384l0 32-128 0 0-32-32 0 0-112c0-53 43-96 96-96s96 43 96 96l0 112-32 0zm-208 0l0 32-80 0 0-32-32 0 0-96c0-53 43-96 96-96 12.7 0 24.8 2.5 35.9 6.9-12.6 21.4-19.9 46.4-19.9 73.1l0 112zm288 32l0-144c0-26.7-7.3-51.6-19.9-73.1 11.1-4.5 23.2-6.9 35.9-6.9 53 0 96 43 96 96l0 96-32 0 0 32-80 0zM128 32a56 56 0 1 1 0 112 56 56 0 1 1 0-112zm320 0a56 56 0 1 1 0 112 56 56 0 1 1 0-112zM24 464l552 0 0 48-576 0 0-48 24 0z"/></svg>