<svg xmlns="http://www.w3.org/2000/svg" viewBox="0 0 640 512"><!--! Font Awesome Pro 7.0.0 by @fontawesome - https://fontawesome.com License - https://fontawesome.com/license (Commercial License) Copyright 2025 Fonticons, Inc. --><path fill="currentColor" d="M528.3 0l0 146.7c17.4-17.4 33.4-33.4 48-48L621.5 144c-5.5 5.5-39.7 39.7-102.6 102.6l-22.6 22.6c-5.5-5.5-39.7-39.7-102.6-102.6L371 144 416.3 98.7c14.6 14.6 30.6 30.6 48 48l0-178.7 64 0 0 32zM32.3 480l112 0 0-241.7c-28.6 39.4-47.6 65.6-56.9 78.4l-51.8-37.6 18.8-25.9 92.9-128 9.6-13.2 134.8 0 9.6 13.2 92.9 128 18.8 25.9-51.8 37.6c-9.3-12.8-28.3-39-56.9-78.4l0 241.7 304 0 0 64-576 0 0-64zm176 0l32 0 0-144-32 0 0 144zm16-512a56 56 0 1 1 0 112 56 56 0 1 1 0-112z"/></svg>