<svg xmlns="http://www.w3.org/2000/svg" viewBox="0 0 512 512"><!--! Font Awesome Pro 7.0.0 by @fontawesome - https://fontawesome.com License - https://fontawesome.com/license (Commercial License) Copyright 2025 Fonticons, Inc. --><path fill="currentColor" d="M72.3-32L55-32c-1.9 5.7-9 27.2-21.5 64.4L23 64 105.6 64c2.8-8.4 8.1-24.4 16-48l202.9 0 49.5 98.9c-93 51.7-141.5 78.6-145.5 80.9 4.4 7.6 27.8 48.6 70.3 122.9l-106.4 159.5-17.8 26.6 53.3 35.5 17.8-26.6 103.4-155c-8.9 106.9-13.5 162.4-13.9 166.5l63.8 5.3 2.7-31.9 13.5-161.7c1.2-14.2-.8-28.4-5.8-41.7L369.9 190.4c47.2-26.2 76.8-42.6 88.7-49.3-3.3-6.6-24.1-48.3-62.5-125.1l4.2 0 0-48-328 0zm240 128a56 56 0 1 0 -112 0 56 56 0 1 0 112 0z"/></svg>