<svg xmlns="http://www.w3.org/2000/svg" viewBox="0 0 576 512"><!--! Font Awesome Pro 7.0.0 by @fontawesome - https://fontawesome.com License - https://fontawesome.com/license (Commercial License) Copyright 2025 Fonticons, Inc. --><path fill="currentColor" d="M232.4 24a56 56 0 1 1 112 0 56 56 0 1 1 -112 0zm-11.4 88l134.8 0 9.6 13.2C439.7 227.6 477 278.8 477.1 279.1l-51.8 37.6c-9.3-12.8-28.3-39-56.9-78.4l0 305.7-64 0 0-208-32 0 0 208-64 0 0-305.7c-28.6 39.4-47.6 65.6-56.9 78.4l-51.8-37.6 18.8-25.9 92.9-128 9.6-13.2zM56.4-9.9c.8 .8 33.1 33.1 97 97l17 17-33.9 33.9c-.8-.8-33.1-33.1-97-97L22.5 24 56.4-9.9zm447 17l17-17 33.9 33.9-17 17c-63.8 63.8-96.2 96.2-97 97l-33.9-33.9 17-17 80-80zM56.4 521.9L22.5 488c.8-.8 33.1-33.1 97-97l17-17 33.9 33.9c-.8 .8-33.1 33.1-97 97l-17 17zm447-17l-80-80-17-17 33.9-33.9 17 17 80 80 17 17-33.9 33.9-17-17z"/></svg>