<svg xmlns="http://www.w3.org/2000/svg" viewBox="0 0 512 512"><!--! Font Awesome Pro 7.0.0 by @fontawesome - https://fontawesome.com License - https://fontawesome.com/license (Commercial License) Copyright 2025 Fonticons, Inc. --><path fill="currentColor" d="M184 72a72 72 0 1 1 144 0 72 72 0 1 1 -144 0zM159.5 192l192.9 0 9.6 13.4 80 112 6 8.3 0 90.3-64 0 0-69.7-32-44.8 0 114.5-192 0 0-114.5-32 44.8 0 69.7-64 0 0-90.3 6-8.3 80-112 9.6-13.4zM232 384a24 24 0 1 0 0-48 24 24 0 1 0 0 48zm88-104a24 24 0 1 0 -48 0 24 24 0 1 0 48 0zM24 464l488 0 0 48-512 0 0-48 24 0zM64 184a24 24 0 1 1 48 0 24 24 0 1 1 -48 0zm424 72a24 24 0 1 1 0 48 24 24 0 1 1 0-48z"/></svg>