<svg xmlns="http://www.w3.org/2000/svg" viewBox="0 0 384 512"><!--! Font Awesome Pro 7.0.0 by @fontawesome - https://fontawesome.com License - https://fontawesome.com/license (Commercial License) Copyright 2025 Fonticons, Inc. --><path fill="currentColor" d="M192.4 64a64 64 0 1 1 128 0 64 64 0 1 1 -128 0zm-72.1 80l92.5 0c3.5 4.8 20.5 28.2 51.1 70.2 27.6-22.6 51.1-41.8 70.3-57.5l50.7 61.9C371.1 229.9 336.7 258 281.8 303L249 329.8c-16.9-23.3-32.9-45.2-47.8-65.8l-45 90 116.1 85.8-23.8 72.2-248 0 0-80 126.6 0-53.2-39.3C38.8 366.8 28 319.4 48.2 280.9L109 165.4 120.3 144z"/></svg>