<svg xmlns="http://www.w3.org/2000/svg" viewBox="0 0 640 512"><!--! Font Awesome Pro 7.0.0 by @fontawesome - https://fontawesome.com License - https://fontawesome.com/license (Commercial License) Copyright 2025 Fonticons, Inc. --><path fill="currentColor" d="M352 40a56 56 0 1 0 -112 0 56 56 0 1 0 112 0zm-67.3 88l-152.4 0-32.9 54.9c-17-8.5-32.3-16.2-46.1-23.1L31.8 202.7 53.3 213.5 402 387.8c-33 55-57.8 96.4-74.5 124.2l305 0c-8.2-13.7-49.9-83.2-125.1-208.5L480 257.8c-18.6 30.9-36.3 60.5-53.2 88.7l-92.9-46.4-47.1-164.9-2.1-7.2zM87.1 512l43.6-130.9 61.3 30.7 0 100.2 64 0 0-139.8-17.7-8.8c-87.8-43.9-136.2-68.1-145-72.5l-11.7 35-62 186.1 67.5 0z"/></svg>