<svg xmlns="http://www.w3.org/2000/svg" viewBox="0 0 640 512"><!--! Font Awesome Pro 7.0.0 by @fontawesome - https://fontawesome.com License - https://fontawesome.com/license (Commercial License) Copyright 2025 Fonticons, Inc. --><path fill="currentColor" d="M457.1 16a56 56 0 1 1 0 112 56 56 0 1 1 0-112zM571.2 238.3l-26.9 13.5 0 180.2-32 0 0-164.2c-24.1 12.1-43.2 21.6-57.3 28.6-7.5-9.7-24.7-32.1-51.7-67.3L363.8 298c38 19 63.6 31.8 76.8 38.4-2.3 5.8-18.6 48.4-49.1 127.6L553 464c11.6-7.8 24.3-16.2 37.9-25.3l26.6 39.9c-12.6 8.4-27.3 18.2-44 29.3l-6 4-215.8 0c-.5 0-1 0-1.5 0l-318 0 0-48 98.7 0c6.5-6.5 38.8-38.8 96.8-96.8L238 331.4c11.3 18.3 27.7 33.8 48.4 44.2l4.8 2.4c-3.1 11-5.3 18.6-6.5 22.8l-5.9 5.9-57.4 57.4 101.3 0 37.1-96.4-55.6-27.8C262.7 319 247.5 267 271.5 227.1l37.7-62.7-44.3-12.3c-6.7 33.3-11.8 59.2-15.5 77.6l-26.5-5.3-129.8 207.6-37.7 0 134-214.3-2.8-.6c2.6-12.8 10-49.9 22.3-111.4l6.8-33.8c13.9 3.9 52.4 14.6 115.5 32.1 46.7 13 88 40.8 117.6 79.3l24.9 32.3c28.9-14.5 51.9-26 69-34.5l28.6 57.2z"/></svg>