<svg xmlns="http://www.w3.org/2000/svg" viewBox="0 0 640 512"><!--! Font Awesome Pro 7.0.0 by @fontawesome - https://fontawesome.com License - https://fontawesome.com/license (Commercial License) Copyright 2025 Fonticons, Inc. --><path fill="currentColor" d="M228 32.1l0-88-48 0 0 88 48 0zM4 168.1l88 0 0-48-88 0 0 48zM96.5 285.5c20.7-20.7 35.8-35.8 45.3-45.3l-33.9-33.9c-23.6 23.6-61.3 61.3-62.2 62.2l33.9 33.9 17-17zM45.6 19.6c23.6 23.6 61.3 61.3 62.2 62.2l33.9-33.9C118.2 24.4 80.5-13.4 79.5-14.3L45.6 19.6zM352.4 80a56 56 0 1 0 0-112 56 56 0 1 0 0 112zm-51.1 32l-16.3 0-9.6 13.2-92.9 128-18.8 25.9 51.8 37.6c9.3-12.8 28.3-39 56.9-78.4l0 305.7 64 0 0-208 32 0 0 208 64 0 0-305.7c28.6 39.4 47.6 65.6 56.9 78.4l51.8-37.6c-.2-.2-37.4-51.6-111.7-153.9l-9.6-13.2-118.5 0z"/></svg>