<svg xmlns="http://www.w3.org/2000/svg" viewBox="0 0 576 512"><!--! Font Awesome Pro 7.0.0 by @fontawesome - https://fontawesome.com License - https://fontawesome.com/license (Commercial License) Copyright 2025 Fonticons, Inc. --><path fill="currentColor" d="M288 198.3l-32 8.5 0-206.8 32 0 0 198.3zM96 80a48 48 0 1 1 96 0 48 48 0 1 1 -96 0zm103.5 60.7c6 13.1 21.4 47.1 46.4 102l65.9-17.6 40.2 30.9 0 132.5 144-53.2 0-47.3 48 0 0 64c0 10-6.3 19-15.7 22.5l-344 127.1-22.5 8.3-16.6-45 22.5-8.3 120.3-44.5 0-114.5-66.7 17.8c-22.6 6-46.2-5.1-55.9-26.3-28.2-61-44.7-96.8-49.5-107.2 41.9-20.7 67-33.1 83.6-41.4zm-121.8 49L157 355.6c53.4-14.6 84-22.9 91.8-25l12.6 46.3c-4.6 1.3-41.7 11.4-111.2 30.3l-19.3 5.3-8.6-18.1-88-184-10.4-21.7 43.3-20.7 10.4 21.7z"/></svg>