<svg xmlns="http://www.w3.org/2000/svg" viewBox="0 0 512 512"><!--! Font Awesome Pro 7.0.0 by @fontawesome - https://fontawesome.com License - https://fontawesome.com/license (Commercial License) Copyright 2025 Fonticons, Inc. --><path fill="currentColor" d="M97.9 120.3L0 512 391.7 414.1c.2-4.7 .3-9.4 .3-14.1 0-154.6-125.4-280-280-280-4.7 0-9.4 .1-14.1 .3zM440 402l72-18C512 171.9 340.1 0 128 0L110 72c.7 0 1.3 0 2 0 181.1 0 328 146.9 328 328 0 .7 0 1.3 0 2zM176 208a32 32 0 1 1 0 64 32 32 0 1 1 0-64zm64 128a32 32 0 1 1 64 0 32 32 0 1 1 -64 0zM96 384a32 32 0 1 1 64 0 32 32 0 1 1 -64 0z"/></svg>