<svg xmlns="http://www.w3.org/2000/svg" viewBox="0 0 640 512"><!--! Font Awesome Pro 7.0.0 by @fontawesome - https://fontawesome.com License - https://fontawesome.com/license (Commercial License) Copyright 2025 Fonticons, Inc. --><path fill="currentColor" d="M288-32c-30.9 0-56 25.1-56 56l0 127.3-184 168.7 0 80 184-61.3 0 99.7-72 57.6 0 48 128-32 80 20 0-228 32 0c0-29.1 9.7-55.9 26.1-77.4L344 151.3 344 24c0-30.9-25.1-56-56-56zM496 304c0-17.7 14.3-32 32-32s32 14.3 32 32l0 48-64 0 0-48zm-48 48l-32 0 0 192 224 0 0-192-32 0 0-48c0-44.2-35.8-80-80-80s-80 35.8-80 80l0 48z"/></svg>