<svg xmlns="http://www.w3.org/2000/svg" viewBox="0 0 640 512"><!--! Font Awesome Pro 7.0.0 by @fontawesome - https://fontawesome.com License - https://fontawesome.com/license (Commercial License) Copyright 2025 Fonticons, Inc. --><path fill="currentColor" d="M232 24c0-30.9 25.1-56 56-56s56 25.1 56 56l0 127.3 78 71.5c-69.3 29-118 97.4-118 177.2 0 49.3 18.6 94.3 49.1 128.3l-65.1-16.3-128 32 0-48 72-57.6 0-99.7-184 61.3 0-80 184-168.7 0-127.3zM496 256a144 144 0 1 1 0 288 144 144 0 1 1 0-288zm16 224l0-32-32 0 0 32 32 0zm0-176l-32 0 0 112 32 0 0-112z"/></svg>