<svg xmlns="http://www.w3.org/2000/svg" viewBox="0 0 512 512"><!--! Font Awesome Pro 7.0.0 by @fontawesome - https://fontawesome.com License - https://fontawesome.com/license (Commercial License) Copyright 2025 Fonticons, Inc. --><path fill="currentColor" d="M80 128a48 48 0 1 0 0-96 48 48 0 1 0 0 96zm0 256a48 48 0 1 0 0-96 48 48 0 1 0 0 96zm384-48l0 64-144 0 0-64 144 0zM272 288l-48 0 0 160 288 0 0-160-240 0zM384 112l80 0 0 64-80 0 0-64zM224 64l0 160 288 0 0-160-288 0zM0 480l160 0-24-64-112 0-24 64zM24 160l-24 64 160 0-24-64-112 0z"/></svg>