<svg xmlns="http://www.w3.org/2000/svg" viewBox="0 0 512 512"><!--! Font Awesome Pro 7.0.0 by @fontawesome - https://fontawesome.com License - https://fontawesome.com/license (Commercial License) Copyright 2025 Fonticons, Inc. --><path fill="currentColor" d="M176 128c44.2 0 80-35.8 80-80 0-17.5-5.6-33.7-15.1-46.8 4.9-.8 10-1.2 15.1-1.2 53 0 96 43 96 96 0 11.2-1.9 22-5.5 32l5.5 0c35.3 0 64 28.7 64 64 0 19.1-8.4 36.3-21.7 48l13.7 0c39.8 0 72 32.2 72 72 0 25.6-13.4 48.2-33.6 60.9 38.1 12.7 65.6 48.7 65.6 91.1l0 48-512 0 0-48c0-42.4 27.5-78.4 65.6-91.1-20.2-12.8-33.6-35.3-33.6-60.9 0-39.8 32.2-72 72-72l13.7 0c-13.3-11.7-21.7-28.9-21.7-48 0-35.3 28.7-64 64-64l16 0z"/></svg>