<svg xmlns="http://www.w3.org/2000/svg" viewBox="0 0 576 512"><!--! Font Awesome Pro 7.0.0 by @fontawesome - https://fontawesome.com License - https://fontawesome.com/license (Commercial License) Copyright 2025 Fonticons, Inc. --><path fill="currentColor" d="M32 0l384 0 0 96-384 0 0-96zM64 144l320 0 0 70c-82.8 21.3-144 96.5-144 186 0 41.8 13.4 80.5 36 112l-212 0 0-64 96 0 0-48-96 0 0-48 96 0 0-48-96 0 0-48 96 0 0-48-96 0 0-64zM576 400c0 79.5-64.5 144-144 144-31.1 0-59.9-9.9-83.4-26.6L549.4 316.6C566.1 340.1 576 368.9 576 400zm-288 0c0-79.5 64.5-144 144-144 31.1 0 59.9 9.9 83.4 26.6L314.6 483.4C297.9 459.9 288 431.1 288 400z"/></svg>