<svg xmlns="http://www.w3.org/2000/svg" viewBox="0 0 512 512"><!--! Font Awesome Pro 7.0.0 by @fontawesome - https://fontawesome.com License - https://fontawesome.com/license (Commercial License) Copyright 2025 Fonticons, Inc. --><path fill="currentColor" d="M138.6 32C62.1 32 0 94.1 0 170.6 0 253.3 40.9 326.5 103.7 371 89.9 390.5 75.2 411.5 59.5 433.7l65.4 46c14.4-20.5 31.6-45 51.7-73.5 21.8 6.4 44.9 9.8 68.7 9.8l21.2 0c23.9 0 46.9-3.4 68.7-9.8 20 28.5 37.3 53 51.7 73.4l65.4-46C436.8 411.4 422.1 390.5 408.3 371 471.1 326.5 512 253.3 512 170.6 512 94.1 449.9 32 373.4 32L364 32C321.4 32 283 50 256 78.8 229 50 190.6 32 148 32l-9.4 0zM216 180l0 7.4c0 15.5-4.8 30.7-13.7 43.4l-52.5 74.7c-42.2-30-69.7-79.2-69.7-134.9 0-32.4 26.2-58.6 58.6-58.6l9.4 0c37.6 0 68 30.4 68 68zm40 113.5L285.2 335c-6.1 .7-12.3 1-18.6 1l-21.2 0c-6.3 0-12.5-.3-18.6-1L256 293.5zm53.7-62.6C300.8 218.2 296 203 296 187.4l0-7.4c0-37.6 30.4-68 68-68l9.4 0c32.4 0 58.6 26.2 58.6 58.6 0 55.7-27.5 105-69.7 134.9l-52.5-74.7z"/></svg>