<svg xmlns="http://www.w3.org/2000/svg" viewBox="0 0 640 512"><!--! Font Awesome Pro 7.0.0 by @fontawesome - https://fontawesome.com License - https://fontawesome.com/license (Commercial License) Copyright 2025 Fonticons, Inc. --><path fill="currentColor" d="M480 32l-24 0-4.7 16.5c-3.2 11.2-5 22.5-5.6 33.8 23.5 20.8 41.5 47.4 51.9 77.7l-25.6 0c-18-44.5-55.4-79-102.1-93l-9.8-3-32 16 7.1 19.7c13.5 37.5 39.5 68.4 72.9 88.2l0 26.8-104.3-59.6c-30.9-17.7-65.9-26.9-101.5-26.9-32.3 0-62.2 16.8-78.9 44.4-10.3-12.5-25.8-20.4-43.2-20.4-30.9 0-56 25.1-56 56s25.1 56 56 56c11.3 0 21.8-3.3 30.6-9.1 4.9 17.2 14.5 33.1 28.4 45.9l151.4 138.8 9.2 8.4 172.4 0 0-64-128 0 0-43.5c0-42.9-28.4-80.5-69.6-92.3l-30.8-8.8 8.8-30.8 30.8 8.8c55 15.7 92.8 65.9 92.8 123.1l0 15.7 56-32.4 6.4-3.7 161.6 0 0-88.9-71-57.9c8-48.9-7.6-99.1-42.8-135L480 32zM184.1 408.4l-26.8 17.5 35 53.6c17.6-11.5 36-23.5 55-35.9l-48.7-44.6-14.5 9.5zM504 240a16 16 0 1 1 32 0 16 16 0 1 1 -32 0z"/></svg>