<svg xmlns="http://www.w3.org/2000/svg" viewBox="0 0 448 512"><!--! Font Awesome Pro 7.0.0 by @fontawesome - https://fontawesome.com License - https://fontawesome.com/license (Commercial License) Copyright 2025 Fonticons, Inc. --><path fill="currentColor" d="M103 101.2c-4.6 8.9-7 18.7-7 28.7 0 34.3 27.8 62.1 62.1 62.1l3.8 0c34.3 0 62.1-27.8 62.1-62.1 0-10-2.4-19.9-7-28.7L160-8 103 101.2zM7 325.2C2.4 334 0 343.9 0 353.9 0 388.2 27.8 416 62.1 416l3.8 0c34.3 0 62.1-27.8 62.1-62.1 0-10-2.4-19.9-7-28.7L64 216 7 325.2zM320 152L210.6 325.9c-12.2 19.4-18.6 41.8-18.6 64.6 0 67.1 54.4 121.4 121.4 121.4l13.1 0c67.1 0 121.4-54.4 121.4-121.4 0-22.9-6.5-45.3-18.6-64.6L320 152z"/></svg>