<svg xmlns="http://www.w3.org/2000/svg" viewBox="0 0 512 512"><!--! Font Awesome Pro 7.0.0 by @fontawesome - https://fontawesome.com License - https://fontawesome.com/license (Commercial License) Copyright 2025 Fonticons, Inc. --><path fill="currentColor" d="M512 64l-512 0 0 384 512 0 0-384zM172.1 305.9L222.1 256c-38.8-38.8-61.1-61.1-66.9-66.9l33.9-33.9 66.9 66.9c38.8-38.8 61.1-61.1 66.9-66.9l33.9 33.9c-5.8 5.8-28.1 28.1-66.9 66.9 38.8 38.8 61.1 61.1 66.9 66.9l-33.9 33.9c-5.8-5.8-28.1-28.1-66.9-66.9-38.8 38.8-61.1 61.1-66.9 66.9l-33.9-33.9 17-17z"/></svg>