<svg xmlns="http://www.w3.org/2000/svg" viewBox="0 0 640 512"><!--! Font Awesome Pro 7.0.0 by @fontawesome - https://fontawesome.com License - https://fontawesome.com/license (Commercial License) Copyright 2025 Fonticons, Inc. --><path fill="currentColor" d="M64 64l0-32-64 0 0 448 64 0 0-213.7 85.2-170.3-85.2 0 0-32zm576 0l0-32-64 0 0 85.7-85.2 170.3 85.2 0 0 192 64 0 0-416zM330.8 96l-5.4 10.7-90.6 181.3 74.3 0 5.4-10.7 90.6-181.3-74.3 0zM437.2 288l5.4-10.7 90.6-181.3-74.3 0-5.4 10.7-90.6 181.3 74.3 0zM277.2 96l-74.3 0-5.4 10.7-90.6 181.3 74.3 0 5.4-10.7 90.6-181.3z"/></svg>