<svg xmlns="http://www.w3.org/2000/svg" viewBox="0 0 640 512"><!--! Font Awesome Pro 7.0.0 by @fontawesome - https://fontawesome.com License - https://fontawesome.com/license (Commercial License) Copyright 2025 Fonticons, Inc. --><path fill="currentColor" d="M288 32L169.4 32 64 480 321.4 480c-11.2-24.4-17.4-51.4-17.4-80s6.2-55.6 17.4-80l-33.4 0 0-128 64 0 0 81c35.2-39.9 86.7-65 144-65 5.4 0 10.8 .2 16.2 .7l-41.6-176.7-118.6 0 0 96-64 0 0-96zM496 544a144 144 0 1 0 0-288 144 144 0 1 0 0 288zm55.3-176.7L518.6 400c25.4 25.3 40 40 44 44L540 466.6c-4-4-18.6-18.6-44-44-25.3 25.4-40 40-44 44L429.4 444c4-4 18.6-18.6 44-44-25.4-25.3-40-40-44-44L452 333.4c4 4 18.6 18.6 44 44 25.3-25.4 40-40 44-44l22.6 22.6-11.3 11.3z"/></svg>