<svg xmlns="http://www.w3.org/2000/svg" viewBox="0 0 640 512"><!--! Font Awesome Pro 7.0.0 by @fontawesome - https://fontawesome.com License - https://fontawesome.com/license (Commercial License) Copyright 2025 Fonticons, Inc. --><path fill="currentColor" d="M288 32L169.4 32 64 480 321.4 480c-11.2-24.4-17.4-51.4-17.4-80s6.2-55.6 17.4-80l-33.4 0 0-128 64 0 0 81c35.2-39.9 86.7-65 144-65 5.4 0 10.8 .2 16.2 .7l-41.6-176.7-118.6 0 0 96-64 0 0-96zM496 544a144 144 0 1 0 0-288 144 144 0 1 0 0 288zm16-64l-32 0 0-32 32 0 0 32zm0-176l0 112-32 0 0-112 32 0z"/></svg>