<svg xmlns="http://www.w3.org/2000/svg" viewBox="0 0 512 512"><!--! Font Awesome Pro 7.0.0 by @fontawesome - https://fontawesome.com License - https://fontawesome.com/license (Commercial License) Copyright 2025 Fonticons, Inc. --><path fill="currentColor" d="M0 192L0-8 79 71C128.5 23.7 192.3 0 256 0 395.4 0 512.4 116.1 512 256.1 512 397.4 397.4 512 256 512 155.9 512 69.2 454.5 27.2 370.9l57.2-28.8C116 405 181 448 256 448 362 448 448 362 448 256l0-.1c.4-104.2-87.7-191.9-192-191.9-47.4 0-94.8 17.4-131.7 52.3L200 192 0 192z"/></svg>