<svg xmlns="http://www.w3.org/2000/svg" viewBox="0 0 512 512"><!--! Font Awesome Pro 7.0.0 by @fontawesome - https://fontawesome.com License - https://fontawesome.com/license (Commercial License) Copyright 2025 Fonticons, Inc. --><path fill="currentColor" d="M320 96l-128 0-64-96 256 0-64 96zM167.2 144l177.6 0C405.1 183.2 512 261.6 512 416l0 96-512 0 0-96C0 261.6 106.9 183.2 167.2 144zM340.9 301.1l-33.9-33.9c-8.5 8.5-25.5 25.5-50.9 50.9-25.5-25.5-42.4-42.4-50.9-50.9l-33.9 33.9c8.5 8.5 25.5 25.5 50.9 50.9-25.5 25.5-42.4 42.4-50.9 50.9l33.9 33.9c8.5-8.5 25.5-25.5 50.9-50.9 25.5 25.5 42.4 42.4 50.9 50.9l33.9-33.9c-8.5-8.5-25.5-25.5-50.9-50.9 25.5-25.5 42.4-42.4 50.9-50.9z"/></svg>