<svg xmlns="http://www.w3.org/2000/svg" viewBox="0 0 640 512"><!--! Font Awesome Pro 7.0.0 by @fontawesome - https://fontawesome.com License - https://fontawesome.com/license (Commercial License) Copyright 2025 Fonticons, Inc. --><path fill="currentColor" d="M0 153.6c0 2.1 .1 4.3 .2 6.4L87 160c14.9-25.1 41-44.7 41-44.7s26.1 19.5 41 44.7l86.9 0c.1-2.1 .2-4.3 .2-6.4 0-21.3-15.4-76.8-76.8-128L153.6 51.2 102.4 0C68.3 21.3 0 81.9 0 153.6zM168 344l50.9-88 37.1 0 0-48-256 0 0 48 16.9 0-12.6 53.4C1.5 321.8 0 334.4 0 347.1l0 3.1c0 89.3 72.4 161.8 161.8 161.8 49.4 0 96.1-22.6 126.8-61.4l255.4-322.6 96 0 0-32-48-32-80 0-63 63c-3.8-3.8-12.2-12.2-25-25L390.1 136c12.8 12.8 21.1 21.1 25 25L401 175c-3.8-3.8-12.2-12.2-25-25L342.1 184c12.8 12.8 21.1 21.1 25 25L353 223c-3.8-3.8-12.2-12.2-25-25L294.1 232c12.8 12.8 21.1 21.1 25 25l-119 119-32-32zm-24-64a24 24 0 1 1 -48 0 24 24 0 1 1 48 0zM88 344a24 24 0 1 1 0 48 24 24 0 1 1 0-48z"/></svg>