<svg xmlns="http://www.w3.org/2000/svg" viewBox="0 0 640 512"><!--! Font Awesome Pro 7.0.0 by @fontawesome - https://fontawesome.com License - https://fontawesome.com/license (Commercial License) Copyright 2025 Fonticons, Inc. --><path fill="currentColor" d="M384 32l160 0 0 64-145.6 0c-5.2 25.8-22.9 47.1-46.4 57.3l0 294.7 192 0 0 64-448 0 0-64 192 0 0-294.7c-23.5-10.3-41.2-31.6-46.4-57.3L96 96 96 32 256 32c14.6-19.4 37.8-32 64-32s49.4 12.6 64 32zM112 128l46.5 0 6.7 12.9 88 168 2.7 5.2 0 47.8-7 7-40 40-7 7-147.9 0-7-7-40-40-7-7 0-47.8 2.7-5.2 88-168 6.7-12.9 14.5 0zM51.1 320l153.8 0-75.4-144-3 0-75.4 144zM481.5 128l61 0 6.7 12.9 88 168 2.7 5.2 0 47.8-7 7-40 40-7 7-147.9 0-7-7-40-40-7-7 0-47.8 2.7-5.2 88-168 6.7-12.9zm29 48l-75.4 144 153.8 0-75.4-144-3 0z"/></svg>