<svg xmlns="http://www.w3.org/2000/svg" viewBox="0 0 512 512"><!--! Font Awesome Pro 7.0.0 by @fontawesome - https://fontawesome.com License - https://fontawesome.com/license (Commercial License) Copyright 2025 Fonticons, Inc. --><path fill="currentColor" d="M144-32l0 80-48 0 0-80 48 0zM416 288l-48 0 0-320 48 0 0 320zM320-32l0 80-32 0 0-80 32 0zm-64 0l0 80-64 0 0-80 64 0zm192 0l64 0 0 320-64 0 0-320zM0 96l320 0 0 416-320 0 0-416zM72 320l0 48 64 0 0-48-64 0zM256 160l-192 0 0 96 192 0 0-96zM72 400l0 48 64 0 0-48-64 0zm176-80l-64 0 0 48 64 0 0-48zm-64 80l0 48 64 0 0-48-64 0z"/></svg>