<svg xmlns="http://www.w3.org/2000/svg" viewBox="0 0 576 512"><!--! Font Awesome Pro 7.0.0 by @fontawesome - https://fontawesome.com License - https://fontawesome.com/license (Commercial License) Copyright 2025 Fonticons, Inc. --><path fill="currentColor" d="M0 128l128 0 160-128 160 128 128 0 0 384-576 0 0-384zM352 336l-128 0 0 128 128 0 0-128zM64 384l64 0 0-64-64 0 0 64zm64-128l0-64-64 0 0 64 64 0zM448 384l64 0 0-64-64 0 0 64zm64-128l0-64-64 0 0 64 64 0zm-224 0a64 64 0 1 0 0-128 64 64 0 1 0 0 128z"/></svg>