<svg xmlns="http://www.w3.org/2000/svg" viewBox="0 0 576 512"><!--! Font Awesome Pro 7.0.0 by @fontawesome - https://fontawesome.com License - https://fontawesome.com/license (Commercial License) Copyright 2025 Fonticons, Inc. --><path fill="currentColor" d="M0 120C0 71.4 39.4 32 88 32l264 0c53 0 96 43 96 96l0 176-248 0 0 104c0 39.8-32.2 72-72 72l-16 0 0-272-112 0 0-88zM224 480c15.1-20.1 24-45 24-72l0-56 296 0 0 48c0 44.2-35.8 80-80 80l-240 0zM88 80c-22.1 0-40 17.9-40 40l0 40 64 0 0-80-24 0z"/></svg>