<svg xmlns="http://www.w3.org/2000/svg" viewBox="0 0 640 512"><!--! Font Awesome Pro 7.0.0 by @fontawesome - https://fontawesome.com License - https://fontawesome.com/license (Commercial License) Copyright 2025 Fonticons, Inc. --><path fill="currentColor" d="M0 336l0-160 192 0 32-112 48 0 74.8 67.3c-33.6 33.6-53.9 53.9-60.7 60.7L320 225.9c6.6-6.6 27.4-27.4 62.5-62.5l31.6 28.5C391 215 375 231 366.1 240L400 273.9c7.6-7.6 26.4-26.4 56.5-56.5l101.4 39c36.5 14.1 63.9 43.7 75.7 79.6L0 336zm0 48l640 0 0 64-352 0-96-32 0 32-192 0 0-64z"/></svg>