<svg xmlns="http://www.w3.org/2000/svg" viewBox="0 0 640 512"><!--! Font Awesome Pro 7.0.0 by @fontawesome - https://fontawesome.com License - https://fontawesome.com/license (Commercial License) Copyright 2025 Fonticons, Inc. --><path fill="currentColor" d="M480.3-45.3c2.9 2.9 42.4 42.4 118.6 118.6L621.5 96c-11.5 11.5-33.8 33.8-66.7 66.7-18.7 18.7-44.1 29.3-70.6 29.3-15.9 0-30.9-3.7-44.3-10.3l-129 129 73.4 73.4-118.8 118.8c-26.4 26.4-62.2 41.2-99.5 41.2-73.8 0-133.7-59.9-133.7-133.7 0-37.3 14.8-73.1 41.2-99.5l118.8-118.8 73.4 73.4 129-129c-6.6-13.3-10.3-28.4-10.3-44.3 0-26.5 10.5-51.9 29.3-70.6 33-33 55.2-55.2 66.7-66.7zm0 90.5L458.8 66.7c-6.7 6.7-10.5 15.9-10.5 25.4 0 19.8 16.1 35.9 35.9 35.9 9.5 0 18.6-3.8 25.4-10.5L531 96 480.3 45.3z"/></svg>