<svg xmlns="http://www.w3.org/2000/svg" viewBox="0 0 576 512"><!--! Font Awesome Pro 7.0.0 by @fontawesome - https://fontawesome.com License - https://fontawesome.com/license (Commercial License) Copyright 2025 Fonticons, Inc. --><path fill="currentColor" d="M160 96c-17.7 0-32 14.3-32 32l0 64-64 0 0-64c0-53 43-96 96-96s96 43 96 96l0 7.8c0 18.2-.9 36.4-2.7 54.6 40.1-13.5 73-24.6 98.7-33.3l0 53c-10.2 18.4-16 39.5-16 62l-48 0 0-25.8-46.8 15.8-1.2 5.3c-11.8 53.3-31.6 104.5-58.7 151.9-19.8 34.6-31.3 54.8-34.8 60.8l-114.6 0 0-215 21.8-7.3 132-44.5c4.2-25.6 6.3-51.4 6.3-77.3l0-7.8c0-17.7-14.3-32-32-32zM304 368l0 48-84.5 0c8.2-15.7 15.6-31.7 22.3-48l62.1 0zM169 286.3l-73 24.6 0 105 13.4 0 16.3-28.6c18.3-32 32.8-65.9 43.3-101.1zm327-14.2c0-17.7-14.3-32-32-32s-32 14.3-32 32l0 47.9 64 0 0-47.9zM352 320l32 0 0-47.9c0-44.2 35.8-80 80-80s80 35.8 80 80l0 47.9 32 0 0 192-224 0 0-192z"/></svg>