<svg xmlns="http://www.w3.org/2000/svg" viewBox="0 0 512 512"><!--! Font Awesome Pro 7.0.0 by @fontawesome - https://fontawesome.com License - https://fontawesome.com/license (Commercial License) Copyright 2025 Fonticons, Inc. --><path fill="currentColor" d="M510 287.9c1.3-10.5 2-21.1 2-31.9 0-10.8-.7-21.5-2-32l-62 0 0-64-96 0 0-64 64 0 0-39.9C372.2 21 316.5 0 256 0 114.6 0 0 114.6 0 256 0 266.8 .7 277.4 2 287.9 74.4 313.1 161.6 328 256 328s181.6-14.9 254-40.1zM384 367c-40.9 5.9-83.9 9-128 9-87 0-169.2-12-241-33.5 35.5 98.8 130 169.5 241 169.5 76.5 0 145.1-33.5 192-86.7l0-25.3-64 0 0-33zM192 192a32 32 0 1 0 0-64 32 32 0 1 0 0 64zm0-112a80 80 0 1 1 0 160 80 80 0 1 1 0-160z"/></svg>