<svg xmlns="http://www.w3.org/2000/svg" viewBox="0 0 576 512"><!--! Font Awesome Pro 7.0.0 by @fontawesome - https://fontawesome.com License - https://fontawesome.com/license (Commercial License) Copyright 2025 Fonticons, Inc. --><path fill="currentColor" d="M416.1-30.5C449.7-1.2 488.7 33 533.2 71.9L560.7 96c-31 27.1-133.9 117.1-144.6 126.5l0-94.5-50.7 0-128 128 128 128 50.7 0 0-94.5c33.6 29.4 72.6 63.5 117.1 102.4L560.7 416c-31 27.1-133.9 117.1-144.6 126.5l0-94.5-77.3 0-9.4-9.4-150.6-150.6-146.7 0 0-64 146.7 0 150.6-150.6 9.4-9.4 77.3 0 0-94.5z"/></svg>