<svg xmlns="http://www.w3.org/2000/svg" viewBox="0 0 448 512"><!--! Font Awesome Pro 7.0.0 by @fontawesome - https://fontawesome.com License - https://fontawesome.com/license (Commercial License) Copyright 2025 Fonticons, Inc. --><path fill="currentColor" d="M448 32l-448 0 0 448 448 0 0-448zM200 96l48 0 0 34.2c31.9 6.1 59.6 24 78.4 48.9L288 208c-14.6-19.5-37.9-32-64-32-44.2 0-80 35.8-80 80s35.8 80 80 80c26.2 0 49.4-12.5 64-32l38.4 28.8c-18.7 25-46.5 42.9-78.4 48.9l0 34.2-48 0 0-34.2C140.8 370.5 96 318.5 96 256s44.8-114.5 104-125.8L200 96z"/></svg>