<svg xmlns="http://www.w3.org/2000/svg" viewBox="0 0 448 512"><!--! Font Awesome Pro 7.0.0 by @fontawesome - https://fontawesome.com License - https://fontawesome.com/license (Commercial License) Copyright 2025 Fonticons, Inc. --><path fill="currentColor" d="M448 32l-448 0 0 448 448 0 0-448zM321.8 163.5c-2.9 2.3-34.4 27.9-94.6 76.7l92.7 0 0 32-92.5 0c60 48.4 91.5 73.8 94.4 76.2l-30.1 37.4c-2.1-1.7-35.3-28.5-99.6-80.4l0 78.6-48 0 0-111.8-31.8 0 0-32 31.8 0 0-112.2 48 0 0 78.9c64.3-52.1 97.5-79 99.5-80.7l30.2 37.3z"/></svg>