<svg xmlns="http://www.w3.org/2000/svg" viewBox="0 0 448 512"><!--! Font Awesome Pro 7.0.0 by @fontawesome - https://fontawesome.com License - https://fontawesome.com/license (Commercial License) Copyright 2025 Fonticons, Inc. --><path fill="currentColor" d="M448 32l-448 0 0 448 448 0 0-448zM143.5 216c0-46.5 37.5-88 88.1-88l2.2 0c19.7 0 38.8 6.4 54.5 18.2l14.2 10.6-28.8 38.4-14.2-10.6C252 179 243 176 233.7 176l-2.2 0c-23 0-40.1 18.9-40 40l96.5 0 0 32-87.5 0c2.1 7.9 3.2 16 3.5 24l84 0 0 32-88 0c-3.2 11.3-8.3 22.1-15.1 32l135.1 0 0 48-200 0 0-42.5c1.1-1.4 9-11.6 23.7-30.5 1.7-2.2 3.3-4.6 4.7-7l-20.4 0 0-32 27.9 0c-.4-6.4-1.8-12.9-4.3-19l-1.4-3.5c-.2-.5-.4-1-.6-1.5l-21.6 0 0-32 15.5 0z"/></svg>