<svg xmlns="http://www.w3.org/2000/svg" viewBox="0 0 576 512"><!--! Font Awesome Pro 7.0.0 by @fontawesome - https://fontawesome.com License - https://fontawesome.com/license (Commercial License) Copyright 2025 Fonticons, Inc. --><path fill="currentColor" d="M49.3-16.9l-17-17-33.9 33.9 17 17 512 512 17 17 33.9-33.9c-5.9-5.9-28-28-66.1-66.1l0-414-414 0-48.9-48.9zM194.2 128l110 0c53 0 96 43 96 96 0 30.1-13.8 56.9-35.5 74.5l-46-46c10.4-5.3 17.5-16.1 17.5-28.5 0-17.7-14.3-32-32-32l-46 0-64-64zm62 197.8l0 58.2-64 0 0-122.2-128-128 0 346.2 346.2 0-154.2-154.2z"/></svg>