<svg xmlns="http://www.w3.org/2000/svg" viewBox="0 0 448 512"><!--! Font Awesome Pro 7.0.0 by @fontawesome - https://fontawesome.com License - https://fontawesome.com/license (Commercial License) Copyright 2025 Fonticons, Inc. --><path fill="currentColor" d="M448 32l-448 0 0 448 448 0 0-448zM336 128l0 24 32 0 0 48-57.8 0c-7.8 0-14.2 6.3-14.2 14.2 0 5.8 3.5 11 8.9 13.1l32 12.8c23.6 9.4 39.1 32.3 39.1 57.7 0 26.5-16.6 49.2-40 58.1l0 28.1-32 0 0-24-48 0 0-48 57.8 0c7.8 0 14.2-6.3 14.2-14.2 0-5.8-3.5-11-8.9-13.1l-32-12.8c-23.6-9.4-39.1-32.3-39.1-57.7 0-32.3 24.6-58.8 56-61.9l0-24.3 32 0zM104 144l48 0c39.8 0 72 32.2 72 72 0 26.9-14.7 50.3-36.5 62.6l26.8 80.5-45.5 15.2C166 366 156.4 337.2 140 288l-12 0 0 80-48 0 0-224 24 0zm48 96c13.3 0 24-10.7 24-24s-10.7-24-24-24l-24 0 0 48 24 0z"/></svg>