<svg xmlns="http://www.w3.org/2000/svg" viewBox="0 0 448 512"><!--! Font Awesome Pro 7.0.0 by @fontawesome - https://fontawesome.com License - https://fontawesome.com/license (Commercial License) Copyright 2025 Fonticons, Inc. --><path fill="currentColor" d="M448 32l-448 0 0 448 448 0 0-448zM319.4 152l0 77.4c6.4-2.6 14.9-5.9 25.5-10.2l11.9 29.7c-8.6 3.5-21.1 8.4-37.4 14.9l0 120.1-48 0 0-100.9c-5.4 2.2-13.5 5.4-24.3 9.7l-11.9-29.7c8.8-3.5 20.9-8.4 36.2-14.5l0-120.6 48 0 0 24zM104 192l131.1 0c-3.4 8.7-22.1 56.7-56 144l60.9 0 0 48-131.1 0c3.4-8.7 22.1-56.7 56-144l-60.9 0 0-48z"/></svg>