<svg xmlns="http://www.w3.org/2000/svg" viewBox="0 0 448 512"><!--! Font Awesome Pro 7.0.0 by @fontawesome - https://fontawesome.com License - https://fontawesome.com/license (Commercial License) Copyright 2025 Fonticons, Inc. --><path fill="currentColor" d="M448 32l-448 0 0 448 448 0 0-448zM240 112l48 0 0 32 32 0 0 32-32 0 0 176-48 0 0-6.7c-9.8 4.3-20.6 6.7-32 6.7-44.2 0-80-35.8-80-80s35.8-80 80-80c11.4 0 22.2 2.4 32 6.7l0-22.7-48 0 0-32 48 0 0-32zM208 240a32 32 0 1 0 0 64 32 32 0 1 0 0-64zM112 376l224 0 0 32-224 0 0-32z"/></svg>