<svg xmlns="http://www.w3.org/2000/svg" viewBox="0 0 640 512"><!--! Font Awesome Pro 7.0.0 by @fontawesome - https://fontawesome.com License - https://fontawesome.com/license (Commercial License) Copyright 2025 Fonticons, Inc. --><path fill="currentColor" d="M0 64l0 64 55 0 78.6 88.5-37.6 7.5 0 64 37.6 7.5-78.6 88.5-55 0 0 64 224 0 0-64-94.1 0 67.3-75.8 25.9 5.2c-4.7-18.4-7.2-37.6-7.2-57.4s2.5-39.1 7.2-57.4l-25.9 5.2-67.3-75.8 94.1 0 0-64-224 0zM448 176a80 80 0 1 1 0 160 80 80 0 1 1 0-160zm0 272a192 192 0 1 0 0-384 192 192 0 1 0 0 384zm32-192a32 32 0 1 0 -64 0 32 32 0 1 0 64 0z"/></svg>