<svg xmlns="http://www.w3.org/2000/svg" viewBox="0 0 512 512"><!--! Font Awesome Pro 7.0.0 by @fontawesome - https://fontawesome.com License - https://fontawesome.com/license (Commercial License) Copyright 2025 Fonticons, Inc. --><path fill="currentColor" d="M192 32l0-32-64 0 0 224 128 0 0 64c0 35.3-28.7 64-64 64l-192 0 0 160 64 0 0-80 48 0c24.6 0 36 9.5 58.2 28.2l0 0c1.7 1.4 3.4 2.9 5.3 4.4 12.6 10.5 28.4 22.9 49.6 32.2 21.4 9.5 46.9 15.2 78.9 15.2 114.9 0 208-93.1 208-208l0-80c0-70.7-57.3-128-128-128-47.4 0-88.7 25.7-110.9 64l-81.1 0 0-128zM352 256l-32 0 0-32c0-35.3 28.7-64 64-64s64 28.7 64 64l0 80c0 5.4-.3 10.7-.9 16l-39.1 0-43.2-57.6-4.8-6.4-8 0z"/></svg>