<svg xmlns="http://www.w3.org/2000/svg" viewBox="0 0 576 512"><!--! Font Awesome Pro 7.0.0 by @fontawesome - https://fontawesome.com License - https://fontawesome.com/license (Commercial License) Copyright 2025 Fonticons, Inc. --><path fill="currentColor" d="M0 32l288 0 0 48-288 0 0-48zM0 288l0-160 576 0 0 160-142.1 0c-1.4 1.6-3.1 3-4.9 4.2l-96.6 62.1 56 36c8.4-4 17.7-6.3 27.7-6.3 35.3 0 64 28.7 64 64s-28.7 64-64 64-64-28.7-64-64c0-7.6 1.3-14.9 3.7-21.6l-67.7-43.6-67.7 43.6c2.4 6.8 3.7 14 3.7 21.6 0 35.3-28.7 64-64 64s-64-28.7-64-64 28.7-64 64-64c9.9 0 19.3 2.2 27.6 6.3l56-36-96.6-62.1c-1.9-1.2-3.5-2.6-4.9-4.2L0 288zm288 37.8l58.7-37.8-117.5 0 58.7 37.8z"/></svg>