<svg xmlns="http://www.w3.org/2000/svg" viewBox="0 0 576 512"><!--! Font Awesome Pro 7.0.0 by @fontawesome - https://fontawesome.com License - https://fontawesome.com/license (Commercial License) Copyright 2025 Fonticons, Inc. --><path fill="currentColor" d="M49.3-16.9l-17-17-33.9 33.9 17 17 512 512 17 17 33.9-33.9c-6.3-6.3-27.7-27.7-64.1-64.1l30 0 0-384-414 0-80.9-80.9zM402.2 336l78 0 0 48-30 0-48-48zM378.3 448l-64-64-218.2 0 0-48 170.2 0-48-48-122.2 0 0-48 74.2 0-138.2-138.2 0 346.2 346.2 0zM480.1 240l0 48-112 0 0-48 112 0z"/></svg>