<svg xmlns="http://www.w3.org/2000/svg" viewBox="0 0 512 512"><!--! Font Awesome Pro 7.0.0 by @fontawesome - https://fontawesome.com License - https://fontawesome.com/license (Commercial License) Copyright 2025 Fonticons, Inc. --><path fill="currentColor" d="M125.7 347.9l-40.1 100.1-68.9 0 44.8-112 68.9 0-4.8 11.9zm352 56.2l17.6 43.9-68.9 0-8.1-20.1-36.7-91.9 68.9 0 27.3 68.1zM448 128l-80.7 0 38.4 96 106.3 0 0 64-512 0 0-64 106.3 0 38.4-96-80.8 0 0-64 384 0 0 64zM175.2 224l161.5 0-38.4-96-84.7 0-38.4 96z"/></svg>