<svg xmlns="http://www.w3.org/2000/svg" viewBox="0 0 576 512"><!--! Font Awesome Pro 7.0.0 by @fontawesome - https://fontawesome.com License - https://fontawesome.com/license (Commercial License) Copyright 2025 Fonticons, Inc. --><path fill="currentColor" d="M145.4 193c57.2-57.2 86.8-86.8 89-89L200.4 70.1c-9 9-25 25-48 48l0-126.1-48 0 0 126.1c-23-23-39-39-48-48L22.5 104c2.1 2.1 31.8 31.8 89 89l17 17 17-17zm303 17c2.1-2.1 31.8-31.8 89-89l17-17-33.9-33.9c-9 9-25 25-48 48l0-126.1-48 0 0 126.1c-23-23-39-39-48-48L342.5 104c2.1 2.1 31.8 31.8 89 89l17 17zM94.2 277.3l-29.7 234.7 222.9 0 0-160 97.1 160 128 0-29.7-234.7-195.4-117.3-193.1 117.3z"/></svg>