<svg xmlns="http://www.w3.org/2000/svg" viewBox="0 0 640 512"><!--! Font Awesome Pro 7.0.0 by @fontawesome - https://fontawesome.com License - https://fontawesome.com/license (Commercial License) Copyright 2025 Fonticons, Inc. --><path fill="currentColor" d="M608 32l-512 0 0 352 512 0 0-128c-26.5 0-48-21.5-48-48s21.5-48 48-48l0-128zM424 304a24 24 0 1 1 48 0 24 24 0 1 1 -48 0zm24-120a24 24 0 1 1 0 48 24 24 0 1 1 0-48zm-24-72a24 24 0 1 1 48 0 24 24 0 1 1 -48 0zM48 152l0-24-48 0 0 352 512 0 0-48-464 0 0-280z"/></svg>