<svg xmlns="http://www.w3.org/2000/svg" viewBox="0 0 512 512"><!--! Font Awesome Pro 7.0.0 by @fontawesome - https://fontawesome.com License - https://fontawesome.com/license (Commercial License) Copyright 2025 Fonticons, Inc. --><path fill="currentColor" d="M305.2 66.8C311 55.1 318.3 43.1 327.1 32L96 32C43 32 0 118 0 224l0 320 272 0 0-320c0-58.9 11.8-114.5 33.2-157.2zM512 224c0-106-43-192-96-192s-96 86-96 192 43 192 96 192 96-86 96-192zm-64 0c0 35.3-14.3 64-32 64s-32-28.7-32-64 14.3-64 32-64 32 28.7 32 64zM233.1 144.4l-12.7 20.4-80 128-7 11.3-25.3 0-7.2-9.6c-37.6-50.1-58.4-77.9-62.4-83.2l38.4-28.8c7.5 10 21.3 28.4 41.4 55.2 49.1-78.5 73.8-118.1 74.2-118.7l40.7 25.4z"/></svg>