<svg xmlns="http://www.w3.org/2000/svg" viewBox="0 0 512 512"><!--! Font Awesome Pro 7.0.0 by @fontawesome - https://fontawesome.com License - https://fontawesome.com/license (Commercial License) Copyright 2025 Fonticons, Inc. --><path fill="currentColor" d="M280-32l0 86.9C294.4 40.7 314.2 32 336 32l48 0 0 16c0 31.7-18.4 59-45.1 72 26.7 13 45.1 40.3 45.1 72l0 16-64 0c-26.2 0-49.4-12.6-64-32-14.6 19.4-37.8 32-64 32l-64 0 0-16c0-31.7 18.4-59 45.1-72-26.7-13-45.1-40.3-45.1-72l0-16 48 0c21.8 0 41.6 8.7 56 22.9l0-86.9 48 0zM256 112c0-2.7 .1-5.4 .4-8l-.8 0c.3 2.6 .4 5.3 .4 8zM432 256l0-64c0-18.7-4-36.4-11.2-52.4 55.8 35.5 91.2 91.7 91.2 164.4 0 130.9-114.6 208-256 208S0 434.9 0 304C0 231.2 35.4 175.1 91.2 139.6 84 155.6 80 173.3 80 192l0 64 112 0c23.3 0 45.2-6.2 64-17.1 18.8 10.9 40.7 17.1 64 17.1l112 0z"/></svg>