<svg xmlns="http://www.w3.org/2000/svg" viewBox="0 0 320 512"><!--! Font Awesome Pro 7.0.0 by @fontawesome - https://fontawesome.com License - https://fontawesome.com/license (Commercial License) Copyright 2025 Fonticons, Inc. --><path fill="currentColor" d="M320-32l-320 0 0 576 320 0 0-576zM160 360c30.9 0 56 25.1 56 56s-25.1 56-56 56-56-25.1-56-56 25.1-56 56-56zm56-104a56 56 0 1 1 -112 0 56 56 0 1 1 112 0zM160 152a56 56 0 1 1 0-112 56 56 0 1 1 0 112zm24-56a24 24 0 1 0 -48 0 24 24 0 1 0 48 0zM160 440c13.3 0 24-10.7 24-24s-10.7-24-24-24-24 10.7-24 24 10.7 24 24 24z"/></svg>