<svg xmlns="http://www.w3.org/2000/svg" viewBox="0 0 640 512"><!--! Font Awesome Pro 7.0.0 by @fontawesome - https://fontawesome.com License - https://fontawesome.com/license (Commercial License) Copyright 2025 Fonticons, Inc. --><path fill="currentColor" d="M336-16l16 48 96 0 0 64-416 0 0-64 96 0 16-48 192 0zM480 128l160 0 0 64-160 0 0-64zm0 128l128 0 0 64-128 0 0-64zm96 128l0 64-96 0 0-64 96 0zM64 144l352 0 0 368-352 0 0-368zm144 64l-48 0 0 240 48 0 0-240zm112 0l-48 0 0 240 48 0 0-240z"/></svg>