<svg xmlns="http://www.w3.org/2000/svg" viewBox="0 0 640 512"><!--! Font Awesome Pro 7.0.0 by @fontawesome - https://fontawesome.com License - https://fontawesome.com/license (Commercial License) Copyright 2025 Fonticons, Inc. --><path fill="currentColor" d="M288 64l96.8 0 9.5 13.8 125.5 181.3c7.7-2 15.8-3.1 24.2-3.1 53 0 96 43 96 96s-43 96-96 96-96-43-96-96c0-21.4 7-41.1 18.8-57.1l-18.2-26.3-83.4 83.4-142.4 0c-7.8 54.3-54.4 96-110.9 96-61.9 0-112-50.1-112-112 0-45.3 26.9-84.3 65.6-102-25-74.9-39-117-42.1-126.3L84.2 87.5c4.3 12.9 15.9 47.8 34.8 104.5l104.9 0 0 64-33.6 0c9.4 9.2 17.1 20 22.8 32l125.5 0 72.8-72.8-60.3-87.2-63.2 0 0-64zM176 336a64 64 0 1 0 -128 0 64 64 0 1 0 128 0zm368 64a48 48 0 1 0 0-96 48 48 0 1 0 0 96z"/></svg>