<svg xmlns="http://www.w3.org/2000/svg" viewBox="0 0 640 512"><!--! Font Awesome Pro 7.0.0 by @fontawesome - https://fontawesome.com License - https://fontawesome.com/license (Commercial License) Copyright 2025 Fonticons, Inc. --><path fill="currentColor" d="M120-32l-24 0 0 160c0 8.8-7.2 16-16 16s-16-7.2-16-16l0-32-48 0 0 32c0 35.3 28.7 64 64 64s64-28.7 64-64l0-64 48 192-160 0 0 192 67.3 0c10.4 36.9 44.4 64 84.7 64s74.2-27.1 84.7-64l102.6 0c10.4 36.9 44.4 64 84.7 64s74.2-27.1 84.7-64l67.3 0 0-192-64-160-192 0 0 156.8-204.7-275.1-7.2-9.7-20.1 0zM500.7 160l38.4 96-123.1 0 0-96 84.7 0zM144 424a40 40 0 1 1 80 0 40 40 0 1 1 -80 0zm312-40a40 40 0 1 1 0 80 40 40 0 1 1 0-80z"/></svg>