<svg xmlns="http://www.w3.org/2000/svg" viewBox="0 0 576 512"><!--! Font Awesome Pro 7.0.0 by @fontawesome - https://fontawesome.com License - https://fontawesome.com/license (Commercial License) Copyright 2025 Fonticons, Inc. --><path fill="currentColor" d="M416 32L0 32 0 448 67.3 448c10.4 36.9 44.4 64 84.7 64s74.2-27.1 84.7-64l102.6 0c10.4 36.9 44.4 64 84.7 64s74.2-27.1 84.7-64l67.3 0 0-237.3-9.4-9.4-64-64-9.4-9.4-77.3 0 0-96zm96 205.3l0 50.7-96 0 0-96 50.7 0 45.3 45.3zM152 384a40 40 0 1 1 0 80 40 40 0 1 1 0-80zm232 40a40 40 0 1 1 80 0 40 40 0 1 1 -80 0zM256 80l-24.9 112 88.9 0-160 144 24.9-112-88.9 0 160-144z"/></svg>