<svg xmlns="http://www.w3.org/2000/svg" viewBox="0 0 640 512"><!--! Font Awesome Pro 7.0.0 by @fontawesome - https://fontawesome.com License - https://fontawesome.com/license (Commercial License) Copyright 2025 Fonticons, Inc. --><path fill="currentColor" d="M0 32l352 0 0 256-352 0 0-256zM104 80l-48 0 0 160 48 0 0-160zm96 0l-48 0 0 160 48 0 0-160zm96 0l-48 0 0 160 48 0 0-160zm120 48l141.3 0 9.4 9.4 64 64 9.4 9.4 0 237.3-51.3 0c-10.4 36.9-44.4 64-84.7 64s-74.2-27.1-84.7-64l-118.6 0c-10.4 36.9-44.4 64-84.7 64-25.2 0-48-10.6-64-27.6-16 17-38.8 27.6-64 27.6-48.6 0-88-39.4-88-88l0-88 416 0 0-208zM576 237.3l-45.3-45.3-50.7 0 0 96 96 0 0-50.7zM128 424a40 40 0 1 0 -80 0 40 40 0 1 0 80 0zm376 40a40 40 0 1 0 0-80 40 40 0 1 0 0 80zM256 424a40 40 0 1 0 -80 0 40 40 0 1 0 80 0z"/></svg>