<svg xmlns="http://www.w3.org/2000/svg" viewBox="0 0 640 512"><!--! Font Awesome Pro 7.0.0 by @fontawesome - https://fontawesome.com License - https://fontawesome.com/license (Commercial License) Copyright 2025 Fonticons, Inc. --><path fill="currentColor" d="M352 32l0 48-32 0 0 80 32 0 0 48-352 0 0-48 32 0 0-80-32 0 0-48 352 0zM272 80l-32 0 0 80 32 0 0-80zm-80 0l-32 0 0 80 32 0 0-80zm-80 0l-32 0 0 80 32 0 0-80zM608 320l0 96-67.3 0c-10.4 36.9-44.4 64-84.7 64s-74.2-27.1-84.7-64l-102.6 0c-10.4 36.9-44.4 64-84.7 64s-74.2-27.1-84.7-64l-67.3 0 0-160 352 0 0-160 144 0 80 160 0 64zM488.4 160l-40.4 0 0 96 88.4 0-48-96zM224 392a40 40 0 1 0 -80 0 40 40 0 1 0 80 0zm232 40a40 40 0 1 0 0-80 40 40 0 1 0 0 80z"/></svg>