<svg xmlns="http://www.w3.org/2000/svg" viewBox="0 0 640 512"><!--! Font Awesome Pro 7.0.0 by @fontawesome - https://fontawesome.com License - https://fontawesome.com/license (Commercial License) Copyright 2025 Fonticons, Inc. --><path fill="currentColor" d="M448 160l0 80 0 0c-.5 30-12.8 56.4-32 75.7l0 196.3-96 0 0-165.3c-4.1-.7-8.2-1.6-12.3-2.8L224 320 224 355.9c-7.2 7.2-20.9 20.9-41.1 41.1l38.3 115-101.2 0c-29.8-89.3-45.4-136.3-47-141 13.1-13.1 28.9-28.9 47.6-47.6L78.2 259.9c-7.3-11-11.9-23.4-13.6-36.4-10.1 7.3-16.7 19.1-16.7 32.5l0 80-48 0 0-80c0-44.6 33.2-81.5 76.3-87.2 14.9-24.4 41.8-40.8 72.5-40.8L320 128C320 57.3 377.3 0 448 0l112 0 0 32-32 0 16 16 96 0 0 16-80 26.7 0 101.3-80 32-32-64zm64-80a16 16 0 1 0 -32 0 16 16 0 1 0 32 0z"/></svg>