<svg xmlns="http://www.w3.org/2000/svg" viewBox="0 0 448 512"><!--! Font Awesome Pro 7.0.0 by @fontawesome - https://fontawesome.com License - https://fontawesome.com/license (Commercial License) Copyright 2025 Fonticons, Inc. --><path fill="currentColor" d="M248 24l0-24-48 0 0 64-120 0 0 104-48 0 0 48 48 0 0 88 288 0 0-88 48 0 0-48-48 0 0-104-120 0 0-40zM0 352l0 160 104 0 0-64 48 0 0 64 48 0 0-64 48 0 0 64 48 0 0-64 48 0 0 64 104 0 0-160-448 0zM128 160a32 32 0 1 1 64 0 32 32 0 1 1 -64 0zm160-32a32 32 0 1 1 0 64 32 32 0 1 1 0-64z"/></svg>