<svg xmlns="http://www.w3.org/2000/svg" viewBox="0 0 448 512"><!--! Font Awesome Pro 7.0.0 by @fontawesome - https://fontawesome.com License - https://fontawesome.com/license (Commercial License) Copyright 2025 Fonticons, Inc. --><path fill="currentColor" d="M304 128l0 16c0 44.2-35.8 80-80 80s-80-35.8-80-80l0-16c0-5.5 .6-10.8 1.6-16l46.4 0 32-42.7 32 42.7 46.4 0c1 5.2 1.6 10.5 1.6 16zM48 192l57.3 0c19 46.9 65 80 118.7 80s99.7-33.1 118.7-80l57.3 0 0-128-65.1 0C312.7 25.7 271.4 0 224 0S135.3 25.7 113.1 64L48 64 48 192zM432 512l-64-192-288 0-64 192 416 0z"/></svg>