<svg xmlns="http://www.w3.org/2000/svg" viewBox="0 0 448 512"><!--! Font Awesome Pro 7.0.0 by @fontawesome - https://fontawesome.com License - https://fontawesome.com/license (Commercial License) Copyright 2025 Fonticons, Inc. --><path fill="currentColor" d="M48 48l0-32 176-48 176 48 0 32-32 19.2 0 44.8s-5.8 2.8-16 6.7l0 25.3c0 70.7-57.3 128-128 128S96 214.7 96 144l0-25.3c-10.2-3.9-16-6.7-16-6.7L80 67.2 48 48zm176 96c-29.1 0-56.8-4.6-80-10.3l0 10.3c0 44.2 35.8 80 80 80s80-35.8 80-80l0-10.3c-23.2 5.7-50.9 10.3-80 10.3zm48 184l-31.6 36.9 31 115.1 .6 0 40-160 56 0 64 192-416 0 64-192 56 0 40 160 31.4-115.3-31.4-36.7 0-24 96 0 0 24zM168.8 26.5L154.5 55.2c3.9 2 24.7 12.3 62.3 31.2l7.2 3.6 7.2-3.6c37.6-18.8 58.4-29.2 62.3-31.2L279.2 26.5c-5.1 2.6-23.5 11.8-55.2 27.6-31.6-15.8-50-25-55.2-27.6zM336 416l-16 0 0 32 48 0 0-32-32 0z"/></svg>