<svg xmlns="http://www.w3.org/2000/svg" viewBox="0 0 576 512"><!--! Font Awesome Pro 7.0.0 by @fontawesome - https://fontawesome.com License - https://fontawesome.com/license (Commercial License) Copyright 2025 Fonticons, Inc. --><path fill="currentColor" d="M224 248a120 120 0 1 0 0-240 120 120 0 1 0 0 240zm16 107.2l0-51.2-160 0-64 208 282.3 0C261.4 469.2 240 413.9 240 355.2zM462 530.8c69.3-30.8 114-99.6 114-175.5l0-51.2-144-48-144 48 0 51.2c0 75.9 44.7 144.6 114 175.5l30 13.3 30-13.3zm-30-39.2l0-184.9 96 32 0 16.6c0 56.9-33.5 108.5-85.5 131.6L432 491.6z"/></svg>