<svg xmlns="http://www.w3.org/2000/svg" viewBox="0 0 448 512"><!--! Font Awesome Pro 7.0.0 by @fontawesome - https://fontawesome.com License - https://fontawesome.com/license (Commercial License) Copyright 2025 Fonticons, Inc. --><path fill="currentColor" d="M96 24l0 120c0 70.7 57.3 128 128 128s128-57.3 128-128L352 24 224-32 96 24zm48 120l0-16 160 0 0 16c0 44.2-35.8 80-80 80s-80-35.8-80-80zm80 240l-64-64-80 0-64 192 416 0-64-192-80 0-64 64zM208 8l32 0 0 24 24 0 0 32-24 0 0 24-32 0 0-24-24 0 0-32 24 0 0-24z"/></svg>