<svg xmlns="http://www.w3.org/2000/svg" viewBox="0 0 448 512"><!--! Font Awesome Pro 7.0.0 by @fontawesome - https://fontawesome.com License - https://fontawesome.com/license (Commercial License) Copyright 2025 Fonticons, Inc. --><path fill="currentColor" d="M304 144c0 44.2-35.8 80-80 80s-80-35.8-80-80l0-16 80 0 64-48 0 0c10 13.4 16 30 16 48l0 16zM224 0C153.3 0 96 57.3 96 128l0 16c0 70.7 57.3 128 128 128s128-57.3 128-128l0-16C352 57.3 294.7 0 224 0zm48 328l0-24-96 0 0 24 31.4 36.7-31.4 115.3-40-160-56 0-64 192 416 0-64-192-56 0-40 160-.6 0-31-115.1 31.6-36.9z"/></svg>