<svg xmlns="http://www.w3.org/2000/svg" viewBox="0 0 512 512"><!--! Font Awesome Pro 7.0.0 by @fontawesome - https://fontawesome.com License - https://fontawesome.com/license (Commercial License) Copyright 2025 Fonticons, Inc. --><path fill="currentColor" d="M256 512a256 256 0 1 0 0-512 256 256 0 1 0 0 512zm95-351c-52.5-52.5-137.6-52.5-190.1 0L127 127c71.2-71.2 186.7-71.2 257.9 0s71.2 186.7 0 257.9L351 351c52.5-52.5 52.5-137.6 0-190.1zM208 206.1c3.5 3.5 30.5 30.5 81 81l17 17-33.9 33.9c-3.5-3.5-30.5-30.5-81-81l-17-17 33.9-33.9zm-64 64c3.5 3.5 30.5 30.5 81 81l17 17-33.9 33.9c-3.5-3.5-30.5-30.5-81-81l-17-17 33.9-33.9z"/></svg>