<svg xmlns="http://www.w3.org/2000/svg" viewBox="0 0 640 512"><!--! Font Awesome Pro 7.0.0 by @fontawesome - https://fontawesome.com License - https://fontawesome.com/license (Commercial License) Copyright 2025 Fonticons, Inc. --><path fill="currentColor" d="M480-64l-32 0 0 64 82.7 0-56.7 56.7c-26.3-15.7-57.1-24.7-90-24.7-35.4 0-68.4 10.5-96 28.5-27.6-18-60.6-28.5-96-28.5-97.2 0-176 78.8-176 176 0 86.3 62.1 158.1 144 173.1l0 34.9-64 0 0 64 64 0 0 64 64 0 0-64 64 0 0-64-64 0 0-34.9c23.3-4.3 44.9-13.1 64-25.6 27.6 18 60.6 28.5 96 28.5 97.2 0 176-78.8 176-176 0-41.1-14.1-79-37.8-109l53.8-53.8 0 82.7 64 0 0-192-160 0zM336 309.2c20.2-28.6 32-63.5 32-101.2s-11.8-72.6-32-101.2c14.6-6.9 30.8-10.8 48-10.8 61.9 0 112 50.1 112 112S445.9 320 384 320c-17.2 0-33.5-3.9-48-10.8zM288 150.3c10.2 16.9 16 36.6 16 57.7s-5.8 40.9-16 57.7c-10.2-16.9-16-36.6-16-57.7s5.8-40.9 16-57.7zm-48-43.5c-20.2 28.6-32 63.5-32 101.2s11.8 72.6 32 101.2c-14.5 6.9-30.8 10.8-48 10.8-61.9 0-112-50.1-112-112S130.1 96 192 96c17.2 0 33.5 3.9 48 10.8z"/></svg>