<svg xmlns="http://www.w3.org/2000/svg" viewBox="0 0 576 512"><!--! Font Awesome Pro 7.0.0 by @fontawesome - https://fontawesome.com License - https://fontawesome.com/license (Commercial License) Copyright 2025 Fonticons, Inc. --><path fill="currentColor" d="M32 64l384 0 0 384-384 0 0-384zM464 341.3l0-170.7 112-74.7 0 320-112-74.7zM224 181.2c17.7 0 32 14.3 32 32 0 26.9-28.8 31-49.9 34l-3.3 .5 0 53.5 42.4 0 0-18.3c30.4-10.6 53.2-36.1 53.2-69.6 0-41.1-33.3-74.4-74.4-74.4s-74.4 33.3-74.4 74.4l42.4 0c0-17.7 14.3-32 32-32zM200 328l0 48 48 0 0-48-48 0z"/></svg>