<svg xmlns="http://www.w3.org/2000/svg" viewBox="0 0 512 512"><!--! Font Awesome Pro 7.0.0 by @fontawesome - https://fontawesome.com License - https://fontawesome.com/license (Commercial License) Copyright 2025 Fonticons, Inc. --><path fill="currentColor" d="M0 432l80 80 288-320 48 0 0-53.3 96-106.7-32-32-284.4 256-67.6 0 0 60.8-128 115.2zm432 16l24-56 56-24-56-24-24-56-24 56-56 24 56 24 24 56zM56 168l24 56 24-56 56-24-56-24-24-56-24 56-56 24 56 24zM208 96l16-32 32-16-32-16-16-32-16 32-32 16 32 16 16 32z"/></svg>