<svg xmlns="http://www.w3.org/2000/svg" viewBox="0 0 576 512"><!--! Font Awesome Pro 7.0.0 by @fontawesome - https://fontawesome.com License - https://fontawesome.com/license (Commercial License) Copyright 2025 Fonticons, Inc. --><path fill="currentColor" d="M145.8 282.7l6.1 6.7c19.7 23.8 26.3 55 19.3 83.9 31.7-7.7 66.2 1 90.6 25.3l57.4 57.4-18.8 18.7c-37.5 37.5-98.3 37.5-135.7 0L134.1 444.3 49.4 529c-9.4 9.4-24.5 9.4-33.9 0-9.4-9.4-9.4-24.6 0-33.9l84.7-84.7-30.5-30.5c-37.5-37.5-37.5-98.3 0-135.8l18.8-18.7 57.4 57.4zm104-104l6.1 6.7c19.7 23.7 26.3 55 19.3 83.9 31.7-7.7 66.2 1 90.6 25.3l57.4 57.4-18.8 18.7c-37.5 37.5-98.3 37.5-135.7 0l-94.9-94.9c-37.5-37.5-37.5-98.3 0-135.8l18.8-18.7 57.4 57.4zM546.1 32l-17 17-114.5 114.4c7.7 1 15.2 3 22.5 5.9l58.3-58.3 17-17 33.9 34-17 16.9-52.7 52.7 50.3 50.3-18.8 18.7c-37.5 37.5-98.3 37.5-135.7 0l-94.9-94.9c-37.5-37.5-37.5-98.3 0-135.8l18.8-18.7 50.3 50.3 52.7-52.7 17-17 33.9 34-17 16.9-58.3 58.3c2.8 7.1 4.7 14.5 5.8 22l114.3-114.2 17-17 33.9 34z"/></svg>