<svg xmlns="http://www.w3.org/2000/svg" viewBox="0 0 576 512"><!--! Font Awesome Pro 7.0.0 by @fontawesome - https://fontawesome.com License - https://fontawesome.com/license (Commercial License) Copyright 2025 Fonticons, Inc. --><path fill="currentColor" d="M416.3 192L524.9 83.5c12.4 22.7 19.5 48.8 19.5 76.5 0 88.4-71.6 160-160 160-17.5 0-34.4-2.8-50.2-8-134 134-207.9 207.9-221.8 221.8L10.5 432c13.9-13.9 87.9-87.9 221.8-221.8-5.2-15.8-8-32.6-8-50.2 0-88.4 71.6-160 160-160 27.7 0 53.8 7.1 76.5 19.5l-108.5 108.5 0 64 64 0z"/></svg>