<svg xmlns="http://www.w3.org/2000/svg" viewBox="0 0 576 512"><!--! Font Awesome Pro 7.1.0 by @fontawesome - https://fontawesome.com License - https://fontawesome.com/license (Commercial License) Copyright 2025 Fonticons, Inc. --><path opacity=".4" fill="currentColor" d="M4.7 123.3C63.4 182 122 240.7 180.7 299.3l11.3 11.3 11.3-11.3 116.7-116.7 201.4 201.4-153.4 0 0 32 208 0 0 96-571.2 0c0-129.5 0-259.1 0-388.7z"/><path fill="currentColor" d="M368 416l208 0 0-208-32 0 0 153.4-212.7-212.7-11.3-11.3-11.3 11.3-116.7 116.7-164.7-164.7-22.6 22.6 176 176 11.3 11.3 11.3-11.3 116.7-116.7 201.4 201.4-153.4 0 0 32z"/></svg>