<svg xmlns="http://www.w3.org/2000/svg" viewBox="0 0 512 512"><!--! Font Awesome Pro 7.0.1 by @fontawesome - https://fontawesome.com License - https://fontawesome.com/license (Commercial License) Copyright 2025 Fonticons, Inc. --><path style="fill:var(--fa-secondary-color,currentColor);opacity:var(--fa-secondary-opacity,.4)" d="M320 64l0 160 160 0 0-160-160 0zm0 288l0 96 96 0 0-96-96 0z"/><path style="fill:var(--fa-primary-color,currentColor);opacity:var(--fa-primary-opacity,1)" d="M139.3 475.3l-11.3 11.3-11.3-11.3-96-96-11.3-11.3 22.6-22.6 11.3 11.3 68.7 68.7 0-393.4 32 0 0 393.4 68.7-68.7 11.3-11.3 22.6 22.6-11.3 11.3-96 96zM320 32l192 0 0 224-224 0 0-224 32 0zM480 64l-160 0 0 160 160 0 0-160zM320 320l128 0 0 160-160 0 0-160 32 0zm96 32l-96 0 0 96 96 0 0-96z"/></svg>