<svg xmlns="http://www.w3.org/2000/svg" viewBox="0 0 512 512"><!--! Font Awesome Pro 7.0.1 by @fontawesome - https://fontawesome.com License - https://fontawesome.com/license (Commercial License) Copyright 2025 Fonticons, Inc. --><path style="fill:var(--fa-secondary-color,currentColor);opacity:var(--fa-secondary-opacity,.4)" d="M320 320l128 0 0 128-128 0 0-128zm1.7-128l62.3-99.6 62.3 99.6-124.5 0z"/><path style="fill:var(--fa-primary-color,currentColor);opacity:var(--fa-primary-opacity,1)" d="M139.3 36.7L128 25.4 9.4 144 32 166.6 43.3 155.3 112 86.6 112 480 144 480 144 86.6 212.7 155.3 224 166.6 246.6 144 139.3 36.7zM264 224l240 0c-3.1-5-36.9-59-101.1-161.8L384 32c-2.2 3.5-35.5 56.9-100 160l-20 32zm182.3-32L321.7 192 384 92.4 446.3 192zM320 320l128 0 0 128-128 0 0-128zm0-32l-32 0 0 192 192 0 0-192-160 0z"/></svg>