<svg xmlns="http://www.w3.org/2000/svg" viewBox="0 0 448 512"><!--! Font Awesome Pro 7.0.1 by @fontawesome - https://fontawesome.com License - https://fontawesome.com/license (Commercial License) Copyright 2025 Fonticons, Inc. --><path style="fill:var(--fa-secondary-color,currentColor);opacity:var(--fa-secondary-opacity,.4)" d="M32 160l0 288 384 0 0-288-384 0zM136 288l72 0 0-72 32 0 0 72 72 0 0 32-72 0 0 72-32 0 0-72-72 0 0-32z"/><path style="fill:var(--fa-primary-color,currentColor);opacity:var(--fa-primary-opacity,1)" d="M160 64l0 64 128 0 0-64c0-35.3-28.7-64-64-64s-64 28.7-64 64zm160 96l-288 0 0 288 384 0 0-288-96 0zM128 128l0-64c0-53 43-96 96-96s96 43 96 96l0 64 128 0 0 352-448 0 0-352 128 0zm80 264l0-72-72 0 0-32 72 0 0-72 32 0 0 72 72 0 0 32-72 0 0 72-32 0z"/></svg>