<svg xmlns="http://www.w3.org/2000/svg" viewBox="0 0 576 512"><!--! Font Awesome Pro 7.0.1 by @fontawesome - https://fontawesome.com License - https://fontawesome.com/license (Commercial License) Copyright 2025 Fonticons, Inc. --><path style="fill:var(--fa-secondary-color,currentColor);opacity:var(--fa-secondary-opacity,.4)" d="M32 128l384 0 0 48-272 0 0 240-112 0 0-288z"/><path style="fill:var(--fa-primary-color,currentColor);opacity:var(--fa-primary-opacity,1)" d="M160 64l0 32 128 0 0-32c0-35.3-28.7-64-64-64s-64 28.7-64 64zM128 96l0-32c0-53 43-96 96-96s96 43 96 96l0 32 128 0 0 80-32 0 0-48-384 0 0 288 112 0 0 32-144 0 0-352 128 0zm96 160l0 224 320 0 0-224-320 0zm-32-32l384 0 0 288-384 0 0-288zm128 80l0 32c0 35.3 28.7 64 64 64s64-28.7 64-64l0-32 32 0 0 32c0 53-43 96-96 96s-96-43-96-96l0-32 32 0z"/></svg>