<svg xmlns="http://www.w3.org/2000/svg" viewBox="0 0 384 512"><!--! Font Awesome Pro 7.1.0 by @fontawesome - https://fontawesome.com License - https://fontawesome.com/license (Commercial License) Copyright 2025 Fonticons, Inc. --><path opacity=".4" fill="currentColor" d="M32 32l320 0 0 448-320 0 0-448zM49.6 236.8c4 5.3 15.2 20.3 33.6 44.8l4.8 6.4 16 0 4.8-6.4 48-64 9.6-12.8-25.6-19.2-44.8 59.7c-7.7-10.3-14.7-19.6-20.8-27.7L49.6 236.8zM72 104l0 48 48 0 0-48-48 0zm0 256l0 48 48 0 0-48-48 0zm88-248l0 32 144 0 0-32-144 0zm0 256l0 32 144 0 0-32-144 0zm32-128l0 32 112 0 0-32-112 0z"/><path fill="currentColor" d="M32 32l0 448 320 0 0-448-320 0zM0 0L384 0 384 512 0 512 0 0zM176 112l128 0 0 32-144 0 0-32 16 0zm32 128l96 0 0 32-112 0 0-32 16 0zM176 368l128 0 0 32-144 0 0-32 16 0zM72 104l48 0 0 48-48 0 0-48zm48 256l0 48-48 0 0-48 48 0zm46.4-155.2l-9.6 12.8-48 64-4.8 6.4-16 0-4.8-6.4c-18.4-24.5-29.6-39.5-33.6-44.8l25.6-19.2c6.1 8.2 13.1 17.4 20.8 27.7l44.8-59.7 25.6 19.2z"/></svg>