<svg xmlns="http://www.w3.org/2000/svg" viewBox="0 0 512 512"><!--! Font Awesome Pro 7.1.0 by @fontawesome - https://fontawesome.com License - https://fontawesome.com/license (Commercial License) Copyright 2025 Fonticons, Inc. --><path opacity=".4" fill="currentColor" d="M32 128L32 281.4 185.4 128 32 128zm0 198.6l0 57.4 57.4 0 198.6-198.6 0-57.4-57.4 0-198.6 198.6zM134.6 384L288 384 288 230.6 134.6 384z"/><path fill="currentColor" d="M480 128l0 256-160 0 0-256 160 0zm-249.4 0l57.4 0 0 57.4-198.6 198.6-57.4 0 0-57.4 198.6-198.6zm-45.3 0L32 281.4 32 128 185.4 128zM134.6 384L288 230.6 288 384 134.6 384zM32 96l-32 0 0 320 512 0 0-320-480 0z"/></svg>