<svg xmlns="http://www.w3.org/2000/svg" viewBox="0 0 640 512"><!--! Font Awesome Pro 7.1.0 by @fontawesome - https://fontawesome.com License - https://fontawesome.com/license (Commercial License) Copyright 2025 Fonticons, Inc. --><path opacity=".4" fill="currentColor" d="M196.2 349.5l30.3 30.3 147.6-88.5 211.3-211.3-89.4-89.4-211.3 211.3-88.6 147.6zM448.1 464a48 48 0 1 0 96 0 48 48 0 1 0 -96 0z"/><path fill="currentColor" d="M630.7 80l-236.7 236.7-1.7 1-158.3 95-107.3 107.3 8 8-22.6 22.6-86.6-86.6 22.6-22.6 8 8 107.3-107.3 95-158.3 1-1.7 236.7-236.7 134.6 134.6zM496.1 544a80 80 0 1 1 0-160 80 80 0 1 1 0 160zm0-128a48 48 0 1 0 0 96 48 48 0 1 0 0-96zM78.7 472l25.4 25.4 97.4-97.4-25.4-25.4-97.4 97.4zM284.8 201.9L196.2 349.5 226.6 379.8 374.2 291.3 585.5 80 496.1-9.4 284.8 201.9z"/></svg>