<svg xmlns="http://www.w3.org/2000/svg" viewBox="0 0 448 512"><!--! Font Awesome Pro 7.0.1 by @fontawesome - https://fontawesome.com License - https://fontawesome.com/license (Commercial License) Copyright 2025 Fonticons, Inc. --><path style="fill:var(--fa-secondary-color,currentColor);opacity:var(--fa-secondary-opacity,.4)" d="M32 88l24 0 0-24 48 0 0 24 48 0 0-24 48 0 0 24 48 0 0-24 48 0 0 24 48 0 0-24 48 0 0 24 24 0 0 48-24 0 0 48 24 0 0 56-384 0 0-56 24 0 0-48-24 0 0-48zm0 184l384 0 0 56-24 0 0 48 24 0 0 48-24 0 0 24-48 0 0-24-48 0 0 24-48 0 0-24-48 0 0 24-48 0 0-24-48 0 0 24-48 0 0-24-24 0 0-48 24 0 0-48-24 0 0-56zM200 136l0 48 48 0 0-48-48 0zm0 192l0 48 48 0 0-48-48 0z"/><path style="fill:var(--fa-primary-color,currentColor);opacity:var(--fa-primary-opacity,1)" d="M432 240l-432 0 0 32 448 0 0-32-16 0zM8 88l48 0 0-48-48 0 0 48zM8 472l48 0 0-48-48 0 0 48zM104 88l48 0 0-48-48 0 0 48zm0 384l48 0 0-48-48 0 0 48zm192-48l0 48 48 0 0-48-48 0zm0-336l48 0 0-48-48 0 0 48zM200 424l0 48 48 0 0-48-48 0zm0-336l48 0 0-48-48 0 0 48zM392 424l0 48 48 0 0-48-48 0zm0-384l0 48 48 0 0-48-48 0zM200 328l0 48 48 0 0-48-48 0zm192 48l48 0 0-48-48 0 0 48zM8 328l0 48 48 0 0-48-48 0zM392 184l48 0 0-48-48 0 0 48zM8 136l0 48 48 0 0-48-48 0zm192 48l48 0 0-48-48 0 0 48z"/></svg>