<svg xmlns="http://www.w3.org/2000/svg" viewBox="0 0 576 512"><!--! Font Awesome Pro 7.1.0 by @fontawesome - https://fontawesome.com License - https://fontawesome.com/license (Commercial License) Copyright 2025 Fonticons, Inc. --><path opacity=".4" fill="currentColor" d="M32.3 304a176 176 0 1 0 352 0 176 176 0 1 0 -352 0zm112-56a24 24 0 1 1 -48 0 24 24 0 1 1 48 0zm80-64a24 24 0 1 1 -48 0 24 24 0 1 1 48 0zm0 80a24 24 0 1 1 -48 0 24 24 0 1 1 48 0zM410.7 460.6l5.5 19.4 96 0 32-111.9-52.6-176.1-53.1 0c-5.9-12.1-12.8-23.7-20.5-34.7 29.1 41.7 46.2 92.2 46.2 146.7 0 59-20 113.3-53.5 156.6zM416.3 80l0 2c0 12.8 4.6 32.2 10.5 50.9 2.8 8.8 5.6 16.7 7.7 22.2 .7 1.9 1.4 3.5 1.9 4.8l55.9 0c.5-1.3 1.1-3 1.8-4.8 2.1-5.6 4.9-13.4 7.7-22.2 5.9-18.7 10.5-38.1 10.5-50.9l0-2c0-26.5-21.5-48-48-48-26.5 0-48 21.5-48 48z"/><path fill="currentColor" d="M208.3 512a208 208 0 1 1 0-416 208 208 0 1 1 0 416zM464.3 0c44.2 0 80 35.8 80 80l0 2c0 36-23.8 93.5-24 94l57.3 191.9-41.2 144.1-144.3 0-6.7-23.3c9.1-8.7 17.6-18.1 25.3-28.1l5.6 19.4 96 0 32-111.9-52.6-176.1-53.1 0c-12.1-24.9-28.2-47.4-47.3-67-3.9-14.7-6.9-30.2-6.9-43l0-2c0-44.2 35.8-80 80-80zm-256 128a176 176 0 1 0 0 352 176 176 0 1 0 0-352zm-8 160a24 24 0 1 1 0-48 24 24 0 1 1 0 48zm-80-16a24 24 0 1 1 0-48 24 24 0 1 1 0 48zm80-64a24 24 0 1 1 0-48 24 24 0 1 1 0 48zm264-176c-26.5 0-48 21.5-48 48l0 2c0 12.8 4.6 32.2 10.5 50.9 2.8 8.8 5.6 16.7 7.7 22.2 .7 1.9 1.4 3.5 1.9 4.8l55.9 0c.5-1.3 1.1-3 1.8-4.8 2.1-5.6 4.9-13.4 7.7-22.2 5.9-18.7 10.5-38.1 10.5-50.9l0-2c0-26.5-21.5-48-48-48z"/></svg>