<svg xmlns="http://www.w3.org/2000/svg" viewBox="0 0 512 512"><!--! Font Awesome Pro 7.0.1 by @fontawesome - https://fontawesome.com License - https://fontawesome.com/license (Commercial License) Copyright 2025 Fonticons, Inc. --><path style="fill:var(--fa-secondary-color,currentColor);opacity:var(--fa-secondary-opacity,.4)" d="M32 288l34.2 0-6.4-32 49 0 19.2 96 256 0 27.4-96 49.9 0-9.1 32 27.8 0 0 160-448 0 0-160z"/><path style="fill:var(--fa-primary-color,currentColor);opacity:var(--fa-primary-opacity,1)" d="M288 32l32 96 128 0-9.1 32-54.9 192-256 0-57.6-288-6.4-32 224 0zm32 128l-23.1 0c-2-5.9-12.6-37.9-32-96l-161.9 0 51.2 256 205.6 0 45.7-160-85.6 0zM59.8 256l6.4 32-34.2 0 0 160 448 0 0-160-27.8 0 9.1-32 50.6 0 0 224-512 0 0-224 59.8 0z"/></svg>