<svg xmlns="http://www.w3.org/2000/svg" viewBox="0 0 576 512"><!--! Font Awesome Pro 7.0.0 by @fontawesome - https://fontawesome.com License - https://fontawesome.com/license (Commercial License) Copyright 2025 Fonticons, Inc. --><path style="fill:var(--fa-secondary-color,currentColor);opacity:var(--fa-secondary-opacity,.4)" d="M64.1 160l384 0 0 45.4c-19.6-8.6-41.2-13.3-64-13.3-88.4 0-160 71.6-160 160 0 36 11.9 69.2 31.9 95.9l-191.9 0 0-288zm7.3-32l57.1-80 111.5 0 0 80-168.7 0zM272.1 48l111.5 0 57.1 80-168.7 0 0-80z"/><path style="fill:var(--fa-primary-color,currentColor);opacity:var(--fa-primary-opacity,1)" d="M440.8 128l-57.1-80-111.5 0 0 80 168.7 0zm7.3 32l-384 0 0 288 191.9 0c9.1 12.1 19.8 22.9 31.9 32l-255.9 0 0-352 80-112 288 0 80 112 0 96.1c-9.8-7.4-20.6-13.7-32-18.7l0-45.4zM71.5 128l168.7 0 0-80-111.5 0-57.1 80zM384.1 432.1a80 80 0 1 0 0-160 80 80 0 1 0 0 160zm0 32c-61.9 0-112-50.1-112-112s50.1-112 112-112 112 50.1 112 112c0 25.2-8.3 48.4-22.3 67.1l81.6 81.6 11.3 11.3-22.6 22.6-11.3-11.3-81.6-81.6c-18.7 14-41.9 22.3-67.1 22.3z"/></svg>