<svg xmlns="http://www.w3.org/2000/svg" viewBox="0 0 576 512"><!--! Font Awesome Pro 7.0.1 by @fontawesome - https://fontawesome.com License - https://fontawesome.com/license (Commercial License) Copyright 2025 Fonticons, Inc. --><path style="fill:var(--fa-secondary-color,currentColor);opacity:var(--fa-secondary-opacity,.4)" d="M128 160l0 192 416 0 0-192-416 0z"/><path style="fill:var(--fa-primary-color,currentColor);opacity:var(--fa-primary-opacity,1)" d="M544 64l0 64-288 0 0-64 288 0zM128 64l96 0 0 64-96 0 0-64zm0 288l0-192 416 0 0 192-416 0zm0-320l-32 0 0 352 480 0 0-352-448 0zM32 176l0-16-32 0 0 320 480 0 0-32-448 0 0-272z"/></svg>