<svg xmlns="http://www.w3.org/2000/svg" viewBox="0 0 640 512"><!--! Font Awesome Pro 7.1.0 by @fontawesome - https://fontawesome.com License - https://fontawesome.com/license (Commercial License) Copyright 2025 Fonticons, Inc. --><path opacity=".4" fill="currentColor" d="M107 31.3l143.1 0-8.7 8.7 56 56c-35.4 35.4-54 54-56 56L264 174.6c2-2 20.7-20.7 56-56 35.4 35.4 54 54 56 56L398.6 152c-2-2-20.7-20.7-56-56 35.4-35.4 54-54 56-56l-8.7-8.7 178.8 0-.2 .7-23.5 0-46.1 224-351.1 0-40.9-224.7zM228 460a20 20 0 1 1 -40 0 20 20 0 1 1 40 0zM277.9 31.3l84.2 0-42.1 42.1-42.1-42.1zM452 460a20 20 0 1 1 -40 0 20 20 0 1 1 40 0z"/><path fill="currentColor" d="M0 0l101.4 0 2.4 13.1 44.2 242.9 351.1 0 46.1-224 32.7 0-50.1 243.2-2.6 12.8-371.3 0 11.6 64 314.6 0 0 32-341.4 0-2.4-13.1-61.6-338.9-74.6 0 0-32zM208 480a20 20 0 1 0 0-40 20 20 0 1 0 0 40zm0-72a52 52 0 1 1 0 104 52 52 0 1 1 0-104zm244 52a20 20 0 1 0 -40 0 20 20 0 1 0 40 0zm-72 0a52 52 0 1 1 104 0 52 52 0 1 1 -104 0zM241.4 40L264 17.4c2 2 20.6 20.6 56 56 35.3-35.3 54-54 56-56L398.6 40c-2 2-20.6 20.6-56 56 35.3 35.3 54 54 56 56L376 174.6c-2-2-20.6-20.6-56-56-35.3 35.3-54 54-56 56L241.4 152c2-2 20.6-20.6 56-56l-56-56z"/></svg>