<svg xmlns="http://www.w3.org/2000/svg" viewBox="0 0 512 512"><!--! Font Awesome Pro 7.1.0 by @fontawesome - https://fontawesome.com License - https://fontawesome.com/license (Commercial License) Copyright 2025 Fonticons, Inc. --><path opacity=".4" fill="currentColor" d="M32 176l0 240 448 0 0-240-448 0zM224 304a80 80 0 1 1 -160 0 80 80 0 1 1 160 0zm64-80l160 0 0 160-160 0 0-160z"/><path fill="currentColor" d="M480 96l0 48-448 0 0-48 448 0zM32 416l0-240 448 0 0 240-448 0zM32 64l-32 0 0 384 512 0 0-384-480 0zM320 256l96 0 0 96-96 0 0-96zm-32-32l0 160 160 0 0-160-160 0zM144 256a48 48 0 1 1 0 96 48 48 0 1 1 0-96zm0 128a80 80 0 1 0 0-160 80 80 0 1 0 0 160zm0-64a16 16 0 1 0 0-32 16 16 0 1 0 0 32z"/></svg>