<svg xmlns="http://www.w3.org/2000/svg" viewBox="0 0 448 512"><!--! Font Awesome Pro 7.0.1 by @fontawesome - https://fontawesome.com License - https://fontawesome.com/license (Commercial License) Copyright 2025 Fonticons, Inc. --><path style="fill:var(--fa-secondary-color,currentColor);opacity:var(--fa-secondary-opacity,.4)" d="M64 288l320 0 0 80-320 0 0-80zM128 32l192 0 0 224-192 0 0-224z"/><path style="fill:var(--fa-primary-color,currentColor);opacity:var(--fa-primary-opacity,1)" d="M128 32l0 224 192 0 0-224-192 0zm224 0l0 224 64 0 0 144-176 0 0 80 80 0 0 32-192 0 0-32 80 0 0-80-176 0 0-144 64 0 0-256 256 0 0 32zM208 368l176 0 0-80-320 0 0 80 144 0zM48 144l0 80-32 0 0-96 32 0 0 16zm384 0l0 80-32 0 0-96 32 0 0 16z"/></svg>