<svg xmlns="http://www.w3.org/2000/svg" viewBox="0 0 512 512"><!--! Font Awesome Pro 7.0.1 by @fontawesome - https://fontawesome.com License - https://fontawesome.com/license (Commercial License) Copyright 2025 Fonticons, Inc. --><path style="fill:var(--fa-secondary-color,currentColor);opacity:var(--fa-secondary-opacity,.4)" d="M32 256l64 0 0 192-64 0 0-192zM416 128l64 0 0 320-64 0 0-320z"/><path style="fill:var(--fa-primary-color,currentColor);opacity:var(--fa-primary-opacity,1)" d="M288 64l0 384-64 0 0-384 64 0zM224 32l-32 0 0 448 128 0 0-448-96 0zM96 256l0 192-64 0 0-192 64 0zM32 224l-32 0 0 256 128 0 0-256-96 0zm384-96l64 0 0 320-64 0 0-320zM384 96l0 384 128 0 0-384-128 0z"/></svg>