<svg xmlns="http://www.w3.org/2000/svg" viewBox="0 0 512 512"><!--! Font Awesome Pro 7.1.0 by @fontawesome - https://fontawesome.com License - https://fontawesome.com/license (Commercial License) Copyright 2025 Fonticons, Inc. --><path opacity=".4" fill="currentColor" d="M32 293l0 155 448 0 0-222.3c-4.9 19.8-11.5 43.2-22.5 62.9-14.1 25.3-36.8 47.4-73.5 47.4-31.3 0-53.7-15.3-70.6-35.8-16.2-19.6-27.3-43-38.2-65.8-.6-1.2-1.1-2.3-1.6-3.5-11.7-24.5-22.3-46.5-35.6-62.7-12.8-15.5-26.9-24.2-45.9-24.2-20.9 0-34.7 11.5-45.5 30.9-11.1 20.1-17.3 45.8-22.7 68.8l-16.5-3.9c-2.4 7.4-5.3 14.6-8.8 21.5-14 28.1-39.2 37.4-66.5 31.7z"/><path fill="currentColor" d="M32 48l0-16-32 0 0 448 512 0 0-32-480 0 0-400zm91.8 195.7c5.4-23 11.5-48.7 22.7-68.8 10.8-19.4 24.6-30.9 45.5-30.9 19 0 33.1 8.7 45.9 24.2 13.4 16.2 23.9 38.2 35.6 62.7 .6 1.2 1.1 2.3 1.6 3.5 10.9 22.9 22 46.2 38.2 65.8 16.9 20.5 39.4 35.8 70.6 35.8 36.7 0 59.4-22 73.5-47.4 13.4-24.1 20.4-53.6 25.5-75.5l.3-1.5-31.1-7.4c-5.4 23-11.5 48.7-22.7 68.8-10.8 19.4-24.6 30.9-45.5 30.9-19 0-33.1-8.7-45.9-24.2-13.4-16.2-24-38.2-35.6-62.7-.5-1.2-1.1-2.3-1.6-3.5-10.9-22.9-22-46.2-38.2-65.8-16.9-20.5-39.4-35.8-70.6-35.8-36.7 0-59.4 22-73.5 47.4-13.4 24.1-20.4 53.6-25.5 75.5l-.3 1.5 31.1 7.4z"/></svg>