<svg xmlns="http://www.w3.org/2000/svg" viewBox="0 0 512 512"><!--! Font Awesome Pro 7.0.1 by @fontawesome - https://fontawesome.com License - https://fontawesome.com/license (Commercial License) Copyright 2025 Fonticons, Inc. --><path style="fill:var(--fa-secondary-color,currentColor);opacity:var(--fa-secondary-opacity,.4)" d="M32 96l0 96 96 0 0-96-96 0zm0 224l0 96 160 0 0-96-160 0z"/><path style="fill:var(--fa-primary-color,currentColor);opacity:var(--fa-primary-opacity,1)" d="M288 32l0 32 224 0 0 160-224 0 0 32-32 0 0-32-256 0 0-160 256 0 0-32 32 0zM160 96l0 96 96 0 0-96-96 0zm128 0l0 96 192 0 0-96-192 0zM128 96l-96 0 0 96 96 0 0-96zM384 256l0 32 128 0 0 160-128 0 0 32-32 0 0-32-352 0 0-160 352 0 0-32 32 0zM224 416l128 0 0-96-128 0 0 96zm160-96l0 96 96 0 0-96-96 0zm-192 0l-160 0 0 96 160 0 0-96z"/></svg>