<svg xmlns="http://www.w3.org/2000/svg" viewBox="0 0 512 512"><!--! Font Awesome Pro 7.0.1 by @fontawesome - https://fontawesome.com License - https://fontawesome.com/license (Commercial License) Copyright 2025 Fonticons, Inc. --><path style="fill:var(--fa-secondary-color,currentColor);opacity:var(--fa-secondary-opacity,.4)" d="M32 256a224 224 0 1 0 448 0 224 224 0 1 0 -448 0zm112 96l39.9 0c8.2 0 15.7-4.9 18.9-12.5l35.8-83.5-78.6 0 0-32 92.3 0 27.5-64.1c8.3-19.3 27.3-31.9 48.3-31.9l39.9 0 0 32-39.9 0c-8.2 0-15.7 4.9-18.9 12.5l-22.1 51.5 64.9 0 0 32-78.6 0-41.2 96.1c-8.3 19.3-27.3 31.9-48.3 31.9l-39.9 0 0-32z"/><path style="fill:var(--fa-primary-color,currentColor);opacity:var(--fa-primary-opacity,1)" d="M256 32a224 224 0 1 1 0 448 224 224 0 1 1 0-448zm0 480a256 256 0 1 0 0-512 256 256 0 1 0 0 512zm23.8-352.1l-27.5 64.1-92.3 0 0 32 78.6 0-35.8 83.5c-3.2 7.6-10.7 12.5-18.9 12.5l-39.9 0 0 32 39.9 0c21 0 40-12.5 48.3-31.9l41.2-96.1 78.6 0 0-32-64.9 0 22.1-51.5c3.2-7.6 10.7-12.5 18.9-12.5l39.9 0 0-32-39.9 0c-21 0-40 12.5-48.3 31.9z"/></svg>