<svg xmlns="http://www.w3.org/2000/svg" viewBox="0 0 512 512"><!--! Font Awesome Pro 7.1.0 by @fontawesome - https://fontawesome.com License - https://fontawesome.com/license (Commercial License) Copyright 2025 Fonticons, Inc. --><path opacity=".4" fill="currentColor" d="M32 256a224 224 0 1 0 448 0 224 224 0 1 0 -448 0zm129.4 8L184 241.4c2 2 20.6 20.6 56 56l0-137.4 32 0 0 137.4c35.3-35.3 54-54 56-56l22.6 22.6-83.3 83.3-11.3 11.3-11.3-11.3-72-72-11.3-11.3z"/><path fill="currentColor" d="M256 32a224 224 0 1 1 0 448 224 224 0 1 1 0-448zm0 480a256 256 0 1 0 0-512 256 256 0 1 0 0 512zM244.7 347.3l11.3 11.3 11.3-11.3 83.3-83.3-22.6-22.6c-2 2-20.7 20.7-56 56l0-137.4-32 0 0 137.4c-35.4-35.4-54-54-56-56l-22.6 22.6 11.3 11.3 72 72z"/></svg>