<svg xmlns="http://www.w3.org/2000/svg" viewBox="0 0 512 512"><!--! Font Awesome Pro 7.0.1 by @fontawesome - https://fontawesome.com License - https://fontawesome.com/license (Commercial License) Copyright 2025 Fonticons, Inc. --><path style="fill:var(--fa-secondary-color,currentColor);opacity:var(--fa-secondary-opacity,.4)" d="M32 256a224 224 0 1 0 448 0 224 224 0 1 0 -448 0zm96-112l48 0 0-32 32 0 0 32 96 0 0-32 32 0 0 32 48 0 0 240-256 0 0-240z"/><path style="fill:var(--fa-primary-color,currentColor);opacity:var(--fa-primary-opacity,1)" d="M480 256a224 224 0 1 0 -448 0 224 224 0 1 0 448 0zM0 256a256 256 0 1 1 512 0 256 256 0 1 1 -512 0zM208 112l0 32 96 0 0-32 32 0 0 32 48 0 0 240-256 0 0-240 48 0 0-32 32 0zm96 64l-144 0 0 48 192 0 0-48-48 0zM160 352l192 0 0-96-192 0 0 96z"/></svg>