<svg xmlns="http://www.w3.org/2000/svg" viewBox="0 0 512 512"><!--! Font Awesome Pro 7.0.1 by @fontawesome - https://fontawesome.com License - https://fontawesome.com/license (Commercial License) Copyright 2025 Fonticons, Inc. --><path style="fill:var(--fa-secondary-color,currentColor);opacity:var(--fa-secondary-opacity,.4)" d="M32 256a224 224 0 1 0 448 0 224 224 0 1 0 -448 0zm152-41.4c0-30.1 24.4-54.6 54.6-54.6l73.4 0 0 32-73.4 0c-12.5 0-22.6 10.1-22.6 22.6 0 11.2 8.3 20.7 19.4 22.3l45.8 6.5c26.9 3.8 46.8 26.9 46.8 54 0 30.1-24.4 54.6-54.6 54.6l-81.4 0 0-32 81.4 0c12.5 0 22.6-10.1 22.6-22.6 0-11.2-8.3-20.7-19.4-22.3l-45.8-6.5c-26.9-3.8-46.8-26.9-46.8-54z"/><path style="fill:var(--fa-primary-color,currentColor);opacity:var(--fa-primary-opacity,1)" d="M256 32a224 224 0 1 1 0 448 224 224 0 1 1 0-448zm0 480a256 256 0 1 0 0-512 256 256 0 1 0 0 512zM238.6 160c-30.1 0-54.6 24.4-54.6 54.6 0 27.2 20 50.2 46.8 54l45.8 6.5c11.1 1.6 19.4 11.1 19.4 22.3 0 12.5-10.1 22.6-22.6 22.6l-81.4 0 0 32 81.4 0c30.1 0 54.6-24.4 54.6-54.6 0-27.1-20-50.2-46.8-54l-45.8-6.5c-11.1-1.6-19.4-11.1-19.4-22.3 0-12.5 10.1-22.6 22.6-22.6l73.4 0 0-32-73.4 0z"/></svg>