<svg xmlns="http://www.w3.org/2000/svg" viewBox="0 0 576 512"><!--! Font Awesome Pro 7.1.0 by @fontawesome - https://fontawesome.com License - https://fontawesome.com/license (Commercial License) Copyright 2025 Fonticons, Inc. --><path opacity=".4" fill="currentColor" d="M32 128l0 352 192 0 0-352-192 0zm56 56l48 0 0 48-48 0 0-48zm0 96l48 0 0 48-48 0 0-48zM256 32l0 448 288 0 0-256-128 0 0-192-160 0zm56 56l48 0 0 48-48 0 0-48zm0 96l48 0 0 48-48 0 0-48zm0 96l48 0 0 48-48 0 0-48zm128 0l48 0 0 48-48 0 0-48z"/><path fill="currentColor" d="M224 0l224 0 0 192 128 0 0 320-576 0 0-416 64 0 0-96 32 0 0 96 56 0 0-96 32 0 0 96 40 0 0-96zM184 128l-152 0 0 352 192 0 0-352-40 0zm360 96l-128 0 0-192-160 0 0 448 288 0 0-256zM312 88l48 0 0 48-48 0 0-48zm48 96l0 48-48 0 0-48 48 0zm-48 96l48 0 0 48-48 0 0-48zM136 184l0 48-48 0 0-48 48 0zM88 280l48 0 0 48-48 0 0-48zm400 0l0 48-48 0 0-48 48 0z"/></svg>