<svg xmlns="http://www.w3.org/2000/svg" viewBox="0 0 384 512"><!--! Font Awesome Pro 7.1.0 by @fontawesome - https://fontawesome.com License - https://fontawesome.com/license (Commercial License) Copyright 2025 Fonticons, Inc. --><path opacity=".4" fill="currentColor" d="M32 64l0 416 320 0 0-416-48 0 0 48-224 0 0-48-48 0zm90.8 181.2c0-38.2 31-69.2 69.2-69.2s69.2 31 69.2 69.2c0 32.8-23.4 56.6-53.2 65.9l0 24.9-32 0 0-51.7 2.1-.3c11.6-1.4 22-2.7 32.6-8.7 10.1-5.7 18.5-14.4 18.5-30.1 0-20.6-16.7-37.2-37.2-37.2s-37.2 16.7-37.2 37.2l-32 0zM172 364l40 0 0 40-40 0 0-40z"/><path fill="currentColor" d="M80 112l224 0 0-48 48 0 0 416-320 0 0-416 48 0 0 48zM80 0l0 32-80 0 0 480 384 0 0-480-80 0 0-32-224 0zM272 80l-160 0 0-48 160 0 0 48zM192 208c20.6 0 37.2 16.7 37.2 37.2 0 15.7-8.4 24.5-18.5 30.1-10.6 6-21 7.3-32.6 8.7l-2.1 .3 0 51.7 32 0 0-24.9c29.8-9.2 53.2-33.1 53.2-65.9 0-38.2-31-69.2-69.2-69.2s-69.2 31-69.2 69.2l32 0c0-20.6 16.7-37.2 37.2-37.2zM172 364l0 40 40 0 0-40-40 0z"/></svg>