<svg xmlns="http://www.w3.org/2000/svg" viewBox="0 0 384 512"><!--! Font Awesome Pro 7.0.0 by @fontawesome - https://fontawesome.com License - https://fontawesome.com/license (Commercial License) Copyright 2025 Fonticons, Inc. --><path style="fill:var(--fa-secondary-color,currentColor);opacity:var(--fa-secondary-opacity,.4)" d="M32 64l0 416 320 0 0-416-48 0 0 48-224 0 0-48-48 0zm73.6 236.8l25.6-19.2c2.3 3.1 16.9 22.5 43.6 58.1l67.6-108.2 8.5-13.6 27.1 17-8.5 13.6-80 128-4.7 7.5-16.9 0-4.8-6.4-48-64-9.6-12.8z"/><path style="fill:var(--fa-primary-color,currentColor);opacity:var(--fa-primary-opacity,1)" d="M80 112l224 0 0-48 48 0 0 416-320 0 0-416 48 0 0 48zM80 0l0 32-80 0 0 480 384 0 0-480-80 0 0-32-224 0zM272 80l-160 0 0-48 160 0 0 48zm6 154.9l-27.1-17-8.5 13.6-67.6 108.2c-26.7-35.6-41.3-55-43.6-58.1l-25.6 19.2 9.6 12.8 48 64 4.8 6.4 16.9 0 4.7-7.5 80-128 8.5-13.6z"/></svg>