<svg xmlns="http://www.w3.org/2000/svg" viewBox="0 0 512 512"><!--! Font Awesome Pro 7.1.0 by @fontawesome - https://fontawesome.com License - https://fontawesome.com/license (Commercial License) Copyright 2025 Fonticons, Inc. --><path opacity=".4" fill="currentColor" d="M32 256a224 224 0 1 0 448 0 224 224 0 1 0 -448 0zm105.8-59.6l17.8-26.6 13.3 8.9 96 64 7.1 4.8 0 168.6-32 0 0-151.4-88.9-59.3-13.3-8.9z"/><path fill="currentColor" d="M32 256a224 224 0 1 1 448 0 224 224 0 1 1 -448 0zm480 0a256 256 0 1 0 -512 0 256 256 0 1 0 512 0zM272 400l0-152.6-7.1-4.8-96-64-13.3-8.9-17.8 26.6 13.3 8.9 88.9 59.3 0 151.4 32 0 0-16z"/></svg>