<svg xmlns="http://www.w3.org/2000/svg" viewBox="0 0 512 512"><!--! Font Awesome Pro 7.1.0 by @fontawesome - https://fontawesome.com License - https://fontawesome.com/license (Commercial License) Copyright 2025 Fonticons, Inc. --><path opacity=".4" fill="currentColor" d="M32 240c0 46.6 16.5 89.8 44.7 124.7l11.9 14.7c-1.7 4.3-12.5 30.7-32.4 79.5l85.9-29.5 11.5-3.9 11.2 4.6c27.8 11.5 58.6 18 91.2 18 125.7 0 224-95 224-208S381.7 32 256 32 32 127 32 240zm129.4-8l83.3-83.3 11.3-11.3 11.3 11.3 72 72 11.3 11.3-22.6 22.6c-2-2-20.6-20.6-56-56l0 137.4-32 0 0-137.4c-35.3 35.3-54 54-56 56L161.4 232z"/><path fill="currentColor" d="M81.5 396.9l7.1-17.5-11.9-14.7C48.5 329.8 32 286.6 32 240 32 127 130.3 32 256 32s224 95 224 208-98.3 208-224 208c-32.6 0-63.4-6.4-91.2-18l-11.2-4.6-11.5 3.9-85.9 29.5 25.2-62zM0 512c14.8-5.1 65.6-22.6 152.5-52.4 31.6 13.1 66.7 20.4 103.5 20.4 141.4 0 256-107.5 256-240S397.4 0 256 0 0 107.5 0 240C0 294.4 19.3 344.6 51.8 384.8 24.7 451.5 7.4 493.9 0 512zM267.3 148.7l-11.3-11.3-11.3 11.3-83.3 83.3 22.6 22.6c2-2 20.7-20.7 56-56l0 137.4 32 0 0-137.4c35.4 35.4 54 54 56 56l22.6-22.6-11.3-11.3-72-72z"/></svg>