<svg xmlns="http://www.w3.org/2000/svg" viewBox="0 0 640 512"><!--! Font Awesome Pro 7.0.1 by @fontawesome - https://fontawesome.com License - https://fontawesome.com/license (Commercial License) Copyright 2025 Fonticons, Inc. --><path style="fill:var(--fa-secondary-color,currentColor);opacity:var(--fa-secondary-opacity,.4)" d="M32 256l0 160 576 0 0-160-64 0 0 64-448 0 0-64-64 0zM96 96l0 128 32 0 0 64 384 0 0-64 32 0 0-128-448 0z"/><path style="fill:var(--fa-primary-color,currentColor);opacity:var(--fa-primary-opacity,1)" d="M80 64l-16 0 0 160-64 0 0 224 640 0 0-224-64 0 0-160-496 0zM544 224l-32 0 0 64-384 0 0-64-32 0 0-128 448 0 0 128zM64 256l32 0 0 64 448 0 0-64 64 0 0 160-576 0 0-160 32 0z"/></svg>