<svg xmlns="http://www.w3.org/2000/svg" viewBox="0 0 512 512"><!--! Font Awesome Pro 7.0.1 by @fontawesome - https://fontawesome.com License - https://fontawesome.com/license (Commercial License) Copyright 2025 Fonticons, Inc. --><path style="fill:var(--fa-secondary-color,currentColor);opacity:var(--fa-secondary-opacity,.4)" d="M32 96l448 0 0 320-448 0 0-320zM80 320l0 32 96 0 0-32-96 0zm128 0l0 32 96 0 0-32-96 0zm128 0l0 32 96 0 0-32-96 0z"/><path style="fill:var(--fa-primary-color,currentColor);opacity:var(--fa-primary-opacity,1)" d="M32 96l0 320 448 0 0-320-448 0zM0 64l512 0 0 384-512 0 0-384zM96 320l80 0 0 32-96 0 0-32 16 0zm128 0l80 0 0 32-96 0 0-32 16 0zm128 0l80 0 0 32-96 0 0-32 16 0z"/></svg>