<svg xmlns="http://www.w3.org/2000/svg" viewBox="0 0 512 512"><!--! Font Awesome Pro 7.1.0 by @fontawesome - https://fontawesome.com License - https://fontawesome.com/license (Commercial License) Copyright 2025 Fonticons, Inc. --><path opacity=".4" fill="currentColor" d="M36 384l3.8-16 16.4 0 25.8-108 77.3-19.3 91.6 30.5 5.1 1.7 5.1-1.7 91.6-30.5 77.3 19.3 25.8 108 17.1 0 3.8 16-440.7 0zM90.4 224.9l30.8-128.9 269.5 0 30.8 128.9-65.7-16.4-4.5-1.1-4.4 1.5-90.9 30.3-90.9-30.3-4.4-1.5-4.5 1.1-65.7 16.4z"/><path fill="currentColor" d="M90.4 224.9l65.7-16.4 4.5-1.1 4.4 1.5 90.9 30.3 90.9-30.3 4.4-1.5 4.5 1.1 65.7 16.4-30.8-128.9-269.5 0-30.8 128.9zM82 260l-25.8 108-32.9 0 72.7-304 320 0 72.7 304-32.9 0-25.8-108-77.3-19.3-91.6 30.5-5.1 1.7-5.1-1.7-91.6-30.5-77.3 19.3zM0 416l512 0 0 32-512 0 0-32z"/></svg>