<svg xmlns="http://www.w3.org/2000/svg" viewBox="0 0 448 512"><!--! Font Awesome Pro 7.0.1 by @fontawesome - https://fontawesome.com License - https://fontawesome.com/license (Commercial License) Copyright 2025 Fonticons, Inc. --><path style="fill:var(--fa-secondary-color,currentColor);opacity:var(--fa-secondary-opacity,.4)" d="M32 64l0 128 384 0 0-128-384 0zm0 256l0 128 384 0 0-128-384 0z"/><path style="fill:var(--fa-primary-color,currentColor);opacity:var(--fa-primary-opacity,1)" d="M416 192l-384 0 0-128 384 0 0 128zm32 32l0-192-448 0 0 192 448 0zM416 448l-384 0 0-128 384 0 0 128zm32 32l0-192-448 0 0 192 448 0z"/></svg>