<svg xmlns="http://www.w3.org/2000/svg" viewBox="0 0 448 512"><!--! Font Awesome Pro 7.0.1 by @fontawesome - https://fontawesome.com License - https://fontawesome.com/license (Commercial License) Copyright 2025 Fonticons, Inc. --><path style="fill:var(--fa-secondary-color,currentColor);opacity:var(--fa-secondary-opacity,.4)" d="M32 64l0 128 384 0 0-128-384 0zM224 320l0 128 192 0 0-128-192 0z"/><path style="fill:var(--fa-primary-color,currentColor);opacity:var(--fa-primary-opacity,1)" d="M416 64l0 128-384 0 0-128 384 0zM112 224l336 0 0-192-448 0 0 192 80 0 0 176 112 0 0 80 256 0 0-192-256 0 0 80-80 0 0-144zM224 368l0-48 192 0 0 128-192 0 0-80z"/></svg>