<svg xmlns="http://www.w3.org/2000/svg" viewBox="0 0 448 512"><!--! Font Awesome Pro 7.0.1 by @fontawesome - https://fontawesome.com License - https://fontawesome.com/license (Commercial License) Copyright 2025 Fonticons, Inc. --><path style="fill:var(--fa-secondary-color,currentColor);opacity:var(--fa-secondary-opacity,.4)" d="M32 64l0 384 384 0 0-384-384 0zm120 96a24 24 0 1 1 -48 0 24 24 0 1 1 48 0zm0 192a24 24 0 1 1 -48 0 24 24 0 1 1 48 0zM344 160a24 24 0 1 1 -48 0 24 24 0 1 1 48 0zm0 192a24 24 0 1 1 -48 0 24 24 0 1 1 48 0z"/><path style="fill:var(--fa-primary-color,currentColor);opacity:var(--fa-primary-opacity,1)" d="M416 64l0 384-384 0 0-384 384 0zM32 32l-32 0 0 448 448 0 0-448-416 0zM152 160a24 24 0 1 0 -48 0 24 24 0 1 0 48 0zm168 24a24 24 0 1 0 0-48 24 24 0 1 0 0 48zm24 168a24 24 0 1 0 -48 0 24 24 0 1 0 48 0zM128 376a24 24 0 1 0 0-48 24 24 0 1 0 0 48z"/></svg>