<svg xmlns="http://www.w3.org/2000/svg" viewBox="0 0 576 512"><!--! Font Awesome Pro 7.0.1 by @fontawesome - https://fontawesome.com License - https://fontawesome.com/license (Commercial License) Copyright 2025 Fonticons, Inc. --><path style="fill:var(--fa-secondary-color,currentColor);opacity:var(--fa-secondary-opacity,.4)" d="M57.7 257.6L272 31.4 272 300.5 57.7 257.6zm10.5 34.7L272 333.1 272 484.9 68.1 292.3zM304 31.4L518.3 257.6 304 300.5 304 31.4zm0 301.7l203.8-40.8-203.8 192.5 0-151.8z"/><path style="fill:var(--fa-primary-color,currentColor);opacity:var(--fa-primary-opacity,1)" d="M576 272L288 544 0 272 288-32 576 272zM272 484.9L272 333.1 68.1 292.3 272 484.9zm32-151.8l0 151.8 203.8-192.5-203.8 40.8zM57.7 257.6L272 300.5 272 31.4 57.7 257.6zM304 300.5L518.3 257.6 304 31.4 304 300.5z"/></svg>