<svg xmlns="http://www.w3.org/2000/svg" viewBox="0 0 512 512"><!--! Font Awesome Pro 7.0.1 by @fontawesome - https://fontawesome.com License - https://fontawesome.com/license (Commercial License) Copyright 2025 Fonticons, Inc. --><path style="fill:var(--fa-secondary-color,currentColor);opacity:var(--fa-secondary-opacity,.4)" d="M32 64l0 320 448 0 0-320-448 0zm89.4 160l11.3-11.3 64-64 11.3-11.3 22.6 22.6c-.6 .6-22 22-64 64 42 42 63.4 63.4 64 64l-22.6 22.6-11.3-11.3-64-64-11.3-11.3zm81.5 256l106.2 0-10.7-64-84.9 0-10.7 64zm78.5-320l22.6-22.6 11.3 11.3 64 64 11.3 11.3-11.3 11.3-64 64-11.3 11.3-22.6-22.6 11.3-11.3 52.7-52.7-52.7-52.7-11.3-11.3z"/><path style="fill:var(--fa-primary-color,currentColor);opacity:var(--fa-primary-opacity,1)" d="M480 64l-448 0 0 320 448 0 0-320zM32 416l-32 0 0-384 512 0 0 384-181.1 0 10.7 64 74.4 0 0 32-320 0 0-32 74.4 0 10.7-64-149.1 0zm181.6 0l-10.7 64 106.2 0-10.7-64-84.9 0zm5.8-244.7L166.6 224c42 42 63.4 63.4 64 64l-22.6 22.6-11.3-11.3-64-64-11.3-11.3 11.3-11.3 64-64 11.3-11.3 22.6 22.6-11.3 11.3zm96-22.6l64 64 11.3 11.3-11.3 11.3-64 64-11.3 11.3-22.6-22.6 11.3-11.3 52.7-52.7-52.7-52.7-11.3-11.3 22.6-22.6 11.3 11.3z"/></svg>