<svg xmlns="http://www.w3.org/2000/svg" viewBox="0 0 512 512"><!--! Font Awesome Pro 7.0.1 by @fontawesome - https://fontawesome.com License - https://fontawesome.com/license (Commercial License) Copyright 2025 Fonticons, Inc. --><path style="fill:var(--fa-secondary-color,currentColor);opacity:var(--fa-secondary-opacity,.4)" d="M32 64l0 320 448 0 0-320-448 0zM160 176l48 0 0-48 96 0 0 48 48 0 0 96-48 0 0 48-96 0 0-48-48 0 0-96zm42.9 304l106.2 0-10.7-64-84.9 0-10.7 64z"/><path style="fill:var(--fa-primary-color,currentColor);opacity:var(--fa-primary-opacity,1)" d="M480 64l-448 0 0 320 448 0 0-320zM32 416l-32 0 0-384 512 0 0 384-181.1 0 10.7 64 74.4 0 0 32-320 0 0-32 74.4 0 10.7-64-149.1 0zm181.6 0l-10.7 64 106.2 0-10.7-64-84.9 0zM224 128l80 0 0 48 48 0 0 96-48 0 0 48-96 0 0-48-48 0 0-96 48 0 0-48 16 0zm16 64l0 16-48 0 0 32 48 0 0 48 32 0 0-48 48 0 0-32-48 0 0-48-32 0 0 32z"/></svg>