<svg xmlns="http://www.w3.org/2000/svg" viewBox="0 0 512 512"><!--! Font Awesome Pro 7.0.1 by @fontawesome - https://fontawesome.com License - https://fontawesome.com/license (Commercial License) Copyright 2025 Fonticons, Inc. --><path style="fill:var(--fa-secondary-color,currentColor);opacity:var(--fa-secondary-opacity,.4)" d="M48 224l64 0 0 64-64 0 0-64zm176 0l64 0 0 64-64 0 0-64zm176 0l64 0 0 64-64 0 0-64z"/><path style="fill:var(--fa-primary-color,currentColor);opacity:var(--fa-primary-opacity,1)" d="M48 224l64 0 0 64-64 0 0-64zM16 288l0 32 128 0 0-128-128 0 0 96zm208-64l64 0 0 64-64 0 0-64zm-32 64l0 32 128 0 0-128-128 0 0 96zm208 0l0-64 64 0 0 64-64 0zm-32 32l128 0 0-128-128 0 0 128z"/></svg>