<svg xmlns="http://www.w3.org/2000/svg" viewBox="0 0 512 512"><!--! Font Awesome Pro 7.1.0 by @fontawesome - https://fontawesome.com License - https://fontawesome.com/license (Commercial License) Copyright 2025 Fonticons, Inc. --><path opacity=".4" fill="currentColor" d="M32 256l0 124c12.8 23 29 43.9 48 61.9l0-47.3c31.6 40 76.5 69 128 80.3l0 32.7c15.5 2.9 31.6 4.5 48 4.5 22.1 0 43.5-2.8 64-8.1l0-87.9-32 0 0 64-32 0 0-64-80 0c-35.3 0-64-28.7-64-64s28.7-64 64-64l160 0c35.3 0 64 28.7 64 64 0 29.8-20.4 54.9-48 62l0 79.4c17-6.9 33.1-15.5 48-25.7l0-40.1c48.9-41.1 80-102.7 80-171.6 0-123.7-100.3-224-224-224S32 132.3 32 256zm168-48a24 24 0 1 1 -48 0 24 24 0 1 1 48 0zm160 0a24 24 0 1 1 -48 0 24 24 0 1 1 48 0z"/><path fill="currentColor" d="M32 256C32 132.3 132.3 32 256 32S480 132.3 480 256c0 68.9-31.1 130.5-80 171.6l0 40.1c33-22.5 60.5-52.6 80-87.7l0 100 32 0 0-224C512 114.6 397.4 0 256 0S0 114.6 0 256l0 128 32 0 0-128zM208 474.8c-51.5-11.3-96.4-40.2-128-80.3l0 47.3c34.8 33 78.9 56.3 128 65.6l0-32.7zM176 320l0 64c-17.7 0-32-14.3-32-32s14.3-32 32-32zm64 64l-32 0 0-64 32 0 0 64zm64-64l0 64-32 0 0-64 32 0zm-16 96l32 0 0 96 32 0 0-98c27.6-7.1 48-32.2 48-62 0-35.3-28.7-64-64-64l-160 0c-35.3 0-64 28.7-64 64s28.7 64 64 64l80 0 0 64 32 0 0-64zm48-32l0-64c17.7 0 32 14.3 32 32s-14.3 32-32 32zM176 232a24 24 0 1 0 0-48 24 24 0 1 0 0 48zm184-24a24 24 0 1 0 -48 0 24 24 0 1 0 48 0z"/></svg>