<svg xmlns="http://www.w3.org/2000/svg" viewBox="0 0 512 512"><!--! Font Awesome Pro 7.1.0 by @fontawesome - https://fontawesome.com License - https://fontawesome.com/license (Commercial License) Copyright 2025 Fonticons, Inc. --><path opacity=".4" fill="currentColor" d="M32 256a224 224 0 1 0 448 0 224 224 0 1 0 -448 0zm80 96c0-17.1 6.7-32.7 17.7-44.1l0-3.8 4 0c11.3-10 26.1-16 42.4-16l160 0c16.2 0 31.1 6.1 42.4 16l4 0 0 3.8c10.9 11.5 17.7 27 17.7 44.1 0 35.3-28.7 64-64 64l-160 0c-35.3 0-64-28.7-64-64zm88-144a24 24 0 1 1 -48 0 24 24 0 1 1 48 0zm160 0a24 24 0 1 1 -48 0 24 24 0 1 1 48 0z"/><path fill="currentColor" d="M256 32a224 224 0 1 0 0 448 224 224 0 1 0 0-448zM512 256a256 256 0 1 1 -512 0 256 256 0 1 1 512 0zM152 208a24 24 0 1 1 48 0 24 24 0 1 1 -48 0zm184-24a24 24 0 1 1 0 48 24 24 0 1 1 0-48zM176 320c-17.7 0-32 14.3-32 32s14.3 32 32 32l0-64zm64 64l0-64-32 0 0 64 32 0zm64 0l0-64-32 0 0 64 32 0zm32 0c17.7 0 32-14.3 32-32s-14.3-32-32-32l0 64zM176 288l160 0c35.3 0 64 28.7 64 64s-28.7 64-64 64l-160 0c-35.3 0-64-28.7-64-64s28.7-64 64-64z"/></svg>