<svg xmlns="http://www.w3.org/2000/svg" viewBox="0 0 512 512"><!--! Font Awesome Pro 7.1.0 by @fontawesome - https://fontawesome.com License - https://fontawesome.com/license (Commercial License) Copyright 2025 Fonticons, Inc. --><path opacity=".4" fill="currentColor" d="M32 256C32 132.3 132.3 32 256 32S480 132.3 480 256c0 69.1-31.3 130.9-80.5 172-1.4 17-5.8 33.2-12.6 48-37.8 22.5-81.9 35.6-129 36 52.1-1 94.1-43.6 94.1-96l0-63.3c15-5.2 28.7-11.7 40.6-19.2l-17.1-27c-10 6.3-21.9 11.9-35.3 16.5l-36.3 9.1c-9.5 1.6-19.5 2.8-29.7 3.4-15.2 .5-29.6 .2-42.8-.5-7.9-.7-15.6-1.6-23-2.9L171.9 323c-13.4-4.6-25.3-10.2-35.3-16.5l-17.1 27c11.8 7.5 25.5 14 40.6 19.2l0 63.3c0 52.4 41.9 95 94.1 96-47.1-.3-91.2-13.4-129-36-6.8-14.8-11.2-31-12.6-48-49.2-41.1-80.5-102.9-80.5-172zm64-24l0 16 32 0 0-16c0-13.3 10.7-24 24-24l16 0c13.3 0 24 10.7 24 24l0 16 32 0 0-16c0-30.9-25.1-56-56-56l-16 0c-30.9 0-56 25.1-56 56zm160-24a80 80 0 1 0 160 0 80 80 0 1 0 -160 0z"/><path fill="currentColor" d="M399.5 428C448.7 386.9 480 325.1 480 256 480 132.3 379.7 32 256 32S32 132.3 32 256C32 325.1 63.3 386.9 112.5 428 113.9 445 118.3 461.2 125.1 476 50.2 431.4 0 349.5 0 256 0 114.6 114.6 0 256 0S512 114.6 512 256c0 93.5-50.2 175.4-125.1 220 6.8-14.8 11.2-31 12.6-48zm-95.7-95.9l36.3-9.1c13.4-4.6 25.3-10.2 35.3-16.5l17.1 27c-11.8 7.5-25.5 14-40.6 19.2l0 63.3c0 53-43 96-96 96s-96-43-96-96l0-63.3c-15.1-5.2-28.7-11.7-40.6-19.2l17.1-27c10 6.3 21.9 11.9 35.3 16.5l36.3 9.1c15 2.5 31 3.9 47.8 3.9s32.8-1.4 47.8-3.9zM320 416l0-48-48 0 0 24-32 0 0-24-48 0 0 48c0 35.3 28.7 64 64 64s64-28.7 64-64zM128 232l0 16-32 0 0-16c0-30.9 25.1-56 56-56l16 0c30.9 0 56 25.1 56 56l0 16-32 0 0-16c0-13.3-10.7-24-24-24l-16 0c-13.3 0-24 10.7-24 24zm184.4-24a24 24 0 1 1 48 0 24 24 0 1 1 -48 0zm71.6 0a48 48 0 1 0 -96 0 48 48 0 1 0 96 0zm-128 0a80 80 0 1 1 160 0 80 80 0 1 1 -160 0z"/></svg>