<svg xmlns="http://www.w3.org/2000/svg" viewBox="0 0 512 512"><!--! Font Awesome Pro 7.0.1 by @fontawesome - https://fontawesome.com License - https://fontawesome.com/license (Commercial License) Copyright 2025 Fonticons, Inc. --><path style="fill:var(--fa-secondary-color,currentColor);opacity:var(--fa-secondary-opacity,.4)" d="M32 256a224 224 0 1 0 448 0 224 224 0 1 0 -448 0zm96-64l96 0 0 32-96 0 0-32zm16 128l224 0 0 32-224 0 0-32zM288 192l96 0 0 32-96 0 0-32z"/><path style="fill:var(--fa-primary-color,currentColor);opacity:var(--fa-primary-opacity,1)" d="M480 256a224 224 0 1 0 -448 0 224 224 0 1 0 448 0zM0 256a256 256 0 1 1 512 0 256 256 0 1 1 -512 0zm160 64l208 0 0 32-224 0 0-32 16 0zM128 192l96 0 0 32-96 0 0-32zm176 0l80 0 0 32-96 0 0-32 16 0z"/></svg>