<svg xmlns="http://www.w3.org/2000/svg" viewBox="0 0 576 512"><!--! Font Awesome Pro 7.1.0 by @fontawesome - https://fontawesome.com License - https://fontawesome.com/license (Commercial License) Copyright 2025 Fonticons, Inc. --><path opacity=".4" fill="currentColor" d="M64 32l160 0 0 160 160 0 0 22c-82.8 21.3-144 96.5-144 186 0 28.6 6.2 55.6 17.4 80L64 480 64 32z"/><path fill="currentColor" d="M224 32l-160 0 0 448 193.4 0c5.2 11.3 11.4 22 18.6 32l-244 0 0-512 224 0 160 160 0 48.7c-11 .9-21.6 2.7-32 5.4l0-22-160 0 0-160zM370.7 160L256 45.3 256 160 370.7 160zM544 400a112 112 0 1 0 -224 0 112 112 0 1 0 224 0zm-256 0a144 144 0 1 1 288 0 144 144 0 1 1 -288 0zm160 80l-32 0 0-32 32 0 0 32zm0-160l0 96-32 0 0-96 32 0z"/></svg>