<svg xmlns="http://www.w3.org/2000/svg" viewBox="0 0 384 512"><!--! Font Awesome Pro 7.0.1 by @fontawesome - https://fontawesome.com License - https://fontawesome.com/license (Commercial License) Copyright 2025 Fonticons, Inc. --><path style="fill:var(--fa-secondary-color,currentColor);opacity:var(--fa-secondary-opacity,.4)" d="M32 32l160 0 0 160 160 0 0 288-320 0 0-448zM96 320l0 32 192 0 0-32-192 0z"/><path style="fill:var(--fa-primary-color,currentColor);opacity:var(--fa-primary-opacity,1)" d="M32 32l160 0 0 160 160 0 0 288-320 0 0-448zM224 45.3L338.7 160 224 160 224 45.3zM224 0L0 0 0 512 384 512 384 160 224 0zM112 320l-16 0 0 32 192 0 0-32-176 0z"/></svg>