<svg xmlns="http://www.w3.org/2000/svg" viewBox="0 0 512 512"><!--! Font Awesome Pro 7.1.0 by @fontawesome - https://fontawesome.com License - https://fontawesome.com/license (Commercial License) Copyright 2025 Fonticons, Inc. --><path opacity=".4" fill="currentColor" d="M48.9 71.4L179.4 201.9c2 10.5 5.2 20.8 9.5 30.9-15.6 15.6-31.1 31.1-46.7 46.7L58.6 195.9C24.7 162 21.5 109 48.9 71.4zM256.1 172c0-23.1 12-45.3 31.2-59.3L408.2 24.1c9.5 9.5 19.1 19.1 28.6 28.6l-136 136 22.6 22.6 8-8 128-128c9.5 9.5 19.1 19.1 28.6 28.6L399.4 224.9c-14 19.1-36.1 31.1-59.3 31.1-18.8 0-36.8-7.5-50.1-20.8l-13.1-13.1c-13.3-13.3-20.8-31.3-20.8-50.1z"/><path fill="currentColor" d="M268.4 86.9l116.9-85.8 22.9 22.9-120.9 88.7c-19.1 14-31.2 36.1-31.2 59.3 0 18.8 7.5 36.8 20.8 50.1L290 235.2c13.3 13.3 31.3 20.8 50.1 20.8 23.1 0 45.3-12 59.3-31.1l88.7-120.9 22.9 22.9-85.8 116.9c-19.5 26.6-50.9 44.2-85.1 44.2-25 0-49.1-9.1-67.8-25.5L27.4 507.3 4.8 484.7 249.7 239.8c-16.4-18.7-25.5-42.8-25.5-67.8 0-34.2 17.6-65.6 44.2-85.1zm40.5 93.8l128-128 22.6 22.6-128 128-8 8-22.6-22.6 8-8zM177.8 155c-1.9 15.5-1.4 31.3 1.6 46.8L48.9 71.4C21.5 109 24.7 162 58.6 195.9l83.6 83.6-22.6 22.6-83.6-83.6c-50-50-50-131 0-181l.8-.8 11.3-11.3 11.3 11.3 118.3 118.3zm307 352.3l-173.4-173.4-.3-1c15.2 2.8 30.8 3.3 46 1.4l150.3 150.3 11.3 11.3-22.6 22.6-11.3-11.3z"/></svg>