<svg xmlns="http://www.w3.org/2000/svg" viewBox="0 0 384 512"><!--! Font Awesome Pro 7.1.0 by @fontawesome - https://fontawesome.com License - https://fontawesome.com/license (Commercial License) Copyright 2025 Fonticons, Inc. --><path opacity=".4" fill="currentColor" d="M32 32l320 0 0 448-320 0 0-448zM64 64l0 192 256 0 0-192-256 0zm0 256l0 32 32 0 0 32 32 0 0-32 32 0 0-32-32 0 0-32-32 0 0 32-32 0zm144 40a24 24 0 1 0 48 0 24 24 0 1 0 -48 0zm64-48a24 24 0 1 0 48 0 24 24 0 1 0 -48 0z"/><path fill="currentColor" d="M32 32l0 448 320 0 0-448-320 0zM0 0L384 0 384 512 0 512 0 0zM96 96l0 128 192 0 0-128-192 0zM64 64l256 0 0 192-256 0 0-192zM208 360a24 24 0 1 1 48 0 24 24 0 1 1 -48 0zm88-72a24 24 0 1 1 0 48 24 24 0 1 1 0-48zM96 288l32 0 0 32 32 0 0 32-32 0 0 32-32 0 0-32-32 0 0-32 32 0 0-32z"/></svg>