<svg xmlns="http://www.w3.org/2000/svg" viewBox="0 0 640 512"><!--! Font Awesome Pro 7.1.0 by @fontawesome - https://fontawesome.com License - https://fontawesome.com/license (Commercial License) Copyright 2025 Fonticons, Inc. --><path opacity=".4" fill="currentColor" d="M64.6 240C71.4 143.5 139.3 63.9 229.9 39.6 195.5 84 164.1 159.3 160.4 240l-95.8 0zm0 32l95.8 0c3.7 80.7 35.1 156 69.5 200.4-90.6-24.3-158.5-103.9-165.3-200.4zm127.8-32c2.8-55.3 19.9-108 41.5-147.7 11.8-21.8 24.5-38.5 35.8-49.3 6.4-6.1 11.2-9.3 14.3-10.9 2.7 0 5.4 0 8.1 0 3.1 1.6 7.9 4.7 14.3 10.9 11.3 10.8 23.9 27.6 35.8 49.3 21.6 39.7 38.6 92.5 41.5 147.7l-191.2 0zm0 32l160.5 0c-30.4 34-48.9 78.8-48.9 128 0 21.4 3.5 41.9 9.9 61.1-2.6 2.9-5.1 5.6-7.6 7.9-6.4 6.1-11.2 9.3-14.3 10.9-1.4 0-2.7 0-4.1 0s-2.7 0-4.1 0c-3.1-1.6-7.9-4.7-14.3-10.9-11.3-10.8-23.9-27.6-35.8-49.3-21.6-39.7-38.6-92.5-41.5-147.7zM346.1 39.6c80.4 21.6 143 86.8 160.8 168.7-3.6-.2-7.2-.3-10.9-.3-29.1 0-56.6 6.5-81.3 18-6.5-75.4-36.2-144.6-68.6-186.4z"/><path fill="currentColor" d="M288 480c1.4 0 2.7 0 4.1 0 3.1-1.6 7.9-4.7 14.3-10.9 2.5-2.4 5-5 7.6-7.9 5.5 16.5 13.3 32 22.9 46.2-15.8 3-32.1 4.6-48.8 4.6-141.4 0-256-114.6-256-256S146.6 0 288 0c126.8 0 232.1 92.2 252.4 213.2-10.8-2.6-22-4.2-33.5-4.9-17.8-81.9-80.3-147.1-160.8-168.7 32.4 41.8 62.1 111 68.6 186.4-23.6 11.1-44.6 26.8-61.8 46l-160.5 0c2.8 55.3 19.9 108 41.5 147.7 11.8 21.8 24.5 38.5 35.8 49.3 6.4 6.1 11.2 9.3 14.3 10.9 1.4 0 2.7 0 4.1 0zM192.4 240l191.2 0c-2.8-55.3-19.9-108-41.5-147.7-11.8-21.8-24.5-38.5-35.8-49.3-6.4-6.1-11.2-9.3-14.3-10.9-2.7 0-5.4 0-8.1 0-3.1 1.6-7.9 4.7-14.3 10.9-11.3 10.8-23.9 27.6-35.8 49.3-21.6 39.7-38.6 92.5-41.5 147.7zm-32 0C164.1 159.3 195.5 84 229.9 39.6 139.3 63.9 71.4 143.5 64.6 240l95.8 0zM64.6 272c6.8 96.5 74.7 176.1 165.3 200.4-34.4-44.4-65.8-119.7-69.5-200.4l-95.8 0zM496 512a112 112 0 1 0 0-224 112 112 0 1 0 0 224zm0-256a144 144 0 1 1 0 288 144 144 0 1 1 0-288zm95.9 123.2l-24.4 20.7C549.9 380.3 524.4 368 496 368s-53.9 12.3-71.4 31.9l-24.4-20.7C423.6 352.7 457.8 336 496 336s72.4 16.7 95.9 43.2zM496 392c21.3 0 40.6 8.3 54.9 21.8l-24.7 20.9C518 428 507.5 424 496 424s-22 4-30.2 10.7l-24.7-20.9C455.4 400.3 474.7 392 496 392zm0 52a20 20 0 1 1 0 40 20 20 0 1 1 0-40z"/></svg>