<svg xmlns="http://www.w3.org/2000/svg" viewBox="0 0 640 512"><!--! Font Awesome Pro 7.1.0 by @fontawesome - https://fontawesome.com License - https://fontawesome.com/license (Commercial License) Copyright 2025 Fonticons, Inc. --><path opacity=".4" fill="currentColor" d="M32 96l64 0 0 198.6c.6 .6 7.8 7.8 12.7 12.7 127.5 127.5 76.5 76.6 99.3 99.3L230.6 384c-8-8-44.3-44.3-88-88l33.4-33.4 128 128 0 121.3c-61.3-.4-122.7-.8-184-1.3L142.6 488 131.3 476.7 32 377.4 32 96zM336 390.6l128-128 33.4 33.4-60.7 60.7c-18.1 18.1-17.2 17.2-27.3 27.3L432 406.6c15.4-15.4 41.5-41.5 99.3-99.3 13.9-13.9 11.1-11.1 12.7-12.7l0-198.6 64 0 0 281.4-99.3 99.3-11.3 11.3c7.5 7.5 15.1 15.1 22.6 22.7-61.3 .4-122.7 .8-184 1.3l0-121.4z"/><path fill="currentColor" d="M128 64l-128 0 0 326.6 4.7 4.7 104 104 11.3 11.3 22.6-22.6-11.3-11.3-99.3-99.3 0-281.4 64 0 0 198.6c.6 .6 7.8 7.8 12.7 12.7l72 72s0 0 0 0c11.4 11.4 20.5 20.5 27.3 27.3L230.6 384c-6.8-6.8-15.9-15.9-27.3-27.3 0 0 0 0 0 0l-60.7-60.7 33.4-33.4 128 128 0 121.4 32 0 0-121.4 128-128 33.4 33.4-60.7 60.7c-18.1 18.1-17.2 17.2-27.3 27.3L432 406.6c15.4-15.4 41.5-41.5 99.3-99.3 13.9-13.9 11.1-11.1 12.7-12.7l0-198.6 64 0 0 281.4-99.3 99.3-11.3 11.3 22.6 22.6 11.3-11.3 104-104 4.7-4.7 0-326.6-128 0 0 201.4c-28.7-28.7-44.7-44.7-48-48L452.7 228.7 320 361.4 187.3 228.7 176 217.4c-3.3 3.3-19.3 19.3-48 48L128 64z"/></svg>