<svg xmlns="http://www.w3.org/2000/svg" viewBox="0 0 512 512"><!--! Font Awesome Pro 7.1.0 by @fontawesome - https://fontawesome.com License - https://fontawesome.com/license (Commercial License) Copyright 2025 Fonticons, Inc. --><path opacity=".4" fill="currentColor" d="M32 240l0 112 180.5 0 28.4-85.1 3.6-10.9 203.5 0 0-16c0-114.9-93.1-208-208-208S32 125.1 32 240zM128 96l32 0 0 80c0 8.8 7.2 16 16 16s16-7.2 16-16l0-80 32 0 0 80c0 20.9-13.4 38.7-32 45.3l0 2.7-16 0c-26.5 0-48-21.5-48-48l0-80zm128 0l28.3 0 4.7 7.8 31.1 51.8 0-59.6 32 0 0 128-28.3 0-4.7-7.8-31.1-51.8 0 59.6-32 0 0-128z"/><path fill="currentColor" d="M240 32c114.9 0 208 93.1 208 208l0 16-203.5 0-3.6 10.9-28.4 85.1-180.5 0 0-112C32 125.1 125.1 32 240 32zm96 419.4l-93.6-88.1 25.1-75.4 68.5 0 0 163.4zM368 480l0-192 144 0 0-32-32 0 0-16C480 107.5 372.5 0 240 0S0 107.5 0 240l0 144 217.7 0 131.4 123.7 4.6 4.3 126.3 0 0-32-112 0zM160 112l0-16-32 0 0 80c0 26.5 21.5 48 48 48l16 0 0-2.7c18.6-6.6 32-24.4 32-45.3l0-80-32 0 0 80c0 8.8-7.2 16-16 16s-16-7.2-16-16l0-64zM272 96l-16 0 0 128 32 0 0-59.6 31.1 51.8 4.7 7.8 28.3 0 0-128-32 0 0 59.6-31.1-51.8-4.7-7.8-12.3 0z"/></svg>