<svg xmlns="http://www.w3.org/2000/svg" viewBox="0 0 576 512"><!--! Font Awesome Pro 7.1.0 by @fontawesome - https://fontawesome.com License - https://fontawesome.com/license (Commercial License) Copyright 2025 Fonticons, Inc. --><path opacity=".4" fill="currentColor" d="M32 160l0 320 192 0 0-128 128 0 0 128 192 0 0-320-112 0 0-128-288 0 0 128-112 0zm56 56l48 0 0 48-48 0 0-48zm0 96l48 0 0 48-48 0 0-48zM224 128l48 0 0-48 32 0 0 48 48 0 0 32-48 0 0 48-32 0 0-48-48 0 0-32zm216 88l48 0 0 48-48 0 0-48zm0 96l48 0 0 48-48 0 0-48z"/><path fill="currentColor" d="M128 0l-16 0 0 128-112 0 0 384 576 0 0-384-112 0 0-128-336 0zM544 480l-192 0 0-128-128 0 0 128-192 0 0-320 112 0 0-128 288 0 0 128 112 0 0 320zm-288 0l0-96 64 0 0 96-64 0zM88 312l0 48 48 0 0-48-48 0zm48-48l0-48-48 0 0 48 48 0zm304 48l0 48 48 0 0-48-48 0zm48-48l0-48-48 0 0 48 48 0zM272 80l0 48-48 0 0 32 48 0 0 48 32 0 0-48 48 0 0-32-48 0 0-48-32 0z"/></svg>