<svg xmlns="http://www.w3.org/2000/svg" viewBox="0 0 512 512"><!--! Font Awesome Pro 7.0.1 by @fontawesome - https://fontawesome.com License - https://fontawesome.com/license (Commercial License) Copyright 2025 Fonticons, Inc. --><path style="fill:var(--fa-secondary-color,currentColor);opacity:var(--fa-secondary-opacity,.4)" d="M34.8 176L256 37.7 477.2 176 34.8 176zM96 208l80 0 0 192-80 0 0-192zm112 0l96 0 0 192-96 0 0-192zm128 0l80 0 0 192-80 0 0-192z"/><path style="fill:var(--fa-primary-color,currentColor);opacity:var(--fa-primary-opacity,1)" d="M480 208l32 0 0-48-256-160-256 160 0 48 64 0 0 192-32 0 0 32 448 0 0-32-32 0 0-192 32 0zm-64 0l0 192-80 0 0-192 80 0zm-112 0l0 192-96 0 0-192 96 0zm-128 0l0 192-80 0 0-192 80 0zM34.8 176L256 37.7 477.2 176 34.8 176zM0 480l0 32 512 0 0-32-512 0z"/></svg>