<svg xmlns="http://www.w3.org/2000/svg" viewBox="0 0 384 512"><!--! Font Awesome Pro 7.0.1 by @fontawesome - https://fontawesome.com License - https://fontawesome.com/license (Commercial License) Copyright 2025 Fonticons, Inc. --><path style="fill:var(--fa-secondary-color,currentColor);opacity:var(--fa-secondary-opacity,.4)" d="M32 32l320 0 0 448-320 0 0-448zM96 96l0 320 192 0 0-320-192 0z"/><path style="fill:var(--fa-primary-color,currentColor);opacity:var(--fa-primary-opacity,1)" d="M32 32l320 0 0 448-320 0 0-448zM384 0L0 0 0 512 384 512 384 0zM128 384l0-112 128 0 0 112-128 0zm0-144l0-112 128 0 0 112-128 0zM96 96l0 320 192 0 0-320-192 0z"/></svg>