<svg xmlns="http://www.w3.org/2000/svg" viewBox="0 0 448 512"><!--! Font Awesome Pro 7.0.1 by @fontawesome - https://fontawesome.com License - https://fontawesome.com/license (Commercial License) Copyright 2025 Fonticons, Inc. --><path style="fill:var(--fa-secondary-color,currentColor);opacity:var(--fa-secondary-opacity,.4)" d=""/><path style="fill:var(--fa-primary-color,currentColor);opacity:var(--fa-primary-opacity,1)" d="M16 48l-16 0 0 32 192 0 0-32-176 0zm0 128l-16 0 0 32 192 0 0-32-176 0zm0 128l-16 0 0 32 192 0 0-32-176 0zm0 128l-16 0 0 32 192 0 0-32-176 0zM272 48l-16 0 0 32 192 0 0-32-176 0zm0 128l-16 0 0 32 192 0 0-32-176 0zm0 128l-16 0 0 32 192 0 0-32-176 0zm0 128l-16 0 0 32 192 0 0-32-176 0z"/></svg>