<svg xmlns="http://www.w3.org/2000/svg" viewBox="0 0 512 512"><!--! Font Awesome Pro 7.0.1 by @fontawesome - https://fontawesome.com License - https://fontawesome.com/license (Commercial License) Copyright 2025 Fonticons, Inc. --><path style="fill:var(--fa-secondary-color,currentColor);opacity:var(--fa-secondary-opacity,.4)" d="M32 80l32 0 0 32-32 0 0-32zM160 240l32 0 0 32-32 0 0-32zm0 160l32 0 0 32-32 0 0-32z"/><path style="fill:var(--fa-primary-color,currentColor);opacity:var(--fa-primary-opacity,1)" d="M32 80l0 32 32 0 0-32-32 0zM0 48l96 0 0 96-32 0 0 96 64 0 0-32 96 0 0 96-96 0 0-32-64 0 0 128 64 0 0-32 96 0 0 96-96 0 0-32-96 0 0-288-32 0 0-96zM160 80l352 0 0 32-352 0 0-32zM288 240l224 0 0 32-224 0 0-32zm0 160l224 0 0 32-224 0 0-32zM192 240l-32 0 0 32 32 0 0-32zM160 400l0 32 32 0 0-32-32 0z"/></svg>