<svg xmlns="http://www.w3.org/2000/svg" viewBox="0 0 512 512"><!--! Font Awesome Pro 7.0.1 by @fontawesome - https://fontawesome.com License - https://fontawesome.com/license (Commercial License) Copyright 2025 Fonticons, Inc. --><path style="fill:var(--fa-secondary-color,currentColor);opacity:var(--fa-secondary-opacity,.4)" d=""/><path style="fill:var(--fa-primary-color,currentColor);opacity:var(--fa-primary-opacity,1)" d="M24 72a24 24 0 1 0 0 48 24 24 0 1 0 0-48zm120 8l-16 0 0 32 384 0 0-32-368 0zm0 160l-16 0 0 32 384 0 0-32-368 0zm0 160l-16 0 0 32 384 0 0-32-368 0zM48 256a24 24 0 1 0 -48 0 24 24 0 1 0 48 0zM24 392a24 24 0 1 0 0 48 24 24 0 1 0 0-48z"/></svg>