<svg xmlns="http://www.w3.org/2000/svg" viewBox="0 0 384 512"><!--! Font Awesome Pro 7.0.1 by @fontawesome - https://fontawesome.com License - https://fontawesome.com/license (Commercial License) Copyright 2025 Fonticons, Inc. --><path style="fill:var(--fa-secondary-color,currentColor);opacity:var(--fa-secondary-opacity,.4)" d="M32 32l320 0 0 448-320 0 0-448zm64 96l0 32 192 0 0-32-192 0zm0 96l0 32 192 0 0-32-192 0zm0 96l0 32 128 0 0-32-128 0z"/><path style="fill:var(--fa-primary-color,currentColor);opacity:var(--fa-primary-opacity,1)" d="M32 32l0 448 320 0 0-448-320 0zM0 0L384 0 384 512 0 512 0 0zM112 128l176 0 0 32-192 0 0-32 16 0zm0 96l176 0 0 32-192 0 0-32 16 0zm0 96l112 0 0 32-128 0 0-32 16 0z"/></svg>