<svg xmlns="http://www.w3.org/2000/svg" viewBox="0 0 512 512"><!--! Font Awesome Pro 7.1.0 by @fontawesome - https://fontawesome.com License - https://fontawesome.com/license (Commercial License) Copyright 2025 Fonticons, Inc. --><path opacity=".4" fill="currentColor" d="M32 64l0 352 128 0 0 71.5c13.4-8 50.6-30.4 111.5-66.9l7.6-4.6 200.9 0 0-352-448 0zm96 96l112 0c0 37.3 0 74.7 0 112l0 8c0 35.3-28.7 64-64 64l-16 0 0-32 16 0c17.7 0 32-14.3 32-32l0-8-80 0c0-45.3 0-106.7 0-112zm144 0l112 0 0 120c0 35.3-28.7 64-64 64l-16 0 0-32 16 0c17.7 0 32-14.3 32-32l0-8-80 0 0-112z"/><path fill="currentColor" d="M288 416l-8.9 0-7.6 4.6c-61 36.6-98.1 58.9-111.5 66.9l0-71.5-128 0 0-352 448 0 0 352-192 0zM128 487.5l0 56.5c37.3-22.4 67.4-40.4 160-96l224 0 0-416-512 0 0 416 128 0 0 39.5zM160 192l48 0 0 48-48 0 0-48zm48 80l0 8c0 17.7-14.3 32-32 32l-16 0 0 32 16 0c35.3 0 64-28.7 64-64l0-120-112 0 0 112 80 0zm176 0l0-112-112 0 0 112 80 0 0 8c0 17.7-14.3 32-32 32l-16 0 0 32 16 0c35.3 0 64-28.7 64-64l0-8zm-32-56l0 24-48 0 0-48 48 0 0 24z"/></svg>