<svg xmlns="http://www.w3.org/2000/svg" viewBox="0 0 512 512"><!--! Font Awesome Pro 7.1.0 by @fontawesome - https://fontawesome.com License - https://fontawesome.com/license (Commercial License) Copyright 2025 Fonticons, Inc. --><path opacity=".4" fill="currentColor" d="M40.2 402l69.8 70 201.2-183.7-87.4-87.4-183.6 201.1zM244 166.1l.1 11.4 .8-.8 90.5 90.5-.8 .8 11.4 .1c20.7 .2 41.4-7.6 57.2-23.4l11.4-11.4-135.8-135.8-11.4 11.4c-15.8 15.8-23.6 36.5-23.4 57.2zm57.5-91.3L437.2 210.6c37.4-37.5 37.3-98.2-.1-135.6S339 37.5 301.5 74.8z"/><path fill="currentColor" d="M223.8 200.9l87.4 87.4-201.2 183.7-69.8-70 183.6-201.1zM334.6 268l.8-.8-90.5-90.5-.8 .8-.1-11.4c-.2-20.7 7.6-41.4 23.4-57.2l11.4-11.4 135.8 135.8-11.4 11.4c-15.8 15.8-36.5 23.6-57.2 23.4l-11.4-.1zM437.1 75c37.4 37.4 37.5 98.1 .1 135.6L301.5 74.8C339 37.5 399.7 37.5 437.1 75zM-4 402.9l113 113.3 131.1-119.7 0 147.5 32 0 0-176.7 73.6-67.2c29 .2 58-10.7 80.1-32.8l33.9-33.9c50-50 50-131 0-181s-131-50-181 0L244.8 86.3c-22.1 22.1-33 51.1-32.8 80.1L-4 402.9z"/></svg>