<svg xmlns="http://www.w3.org/2000/svg" viewBox="0 0 384 512"><!--! Font Awesome Pro 7.1.0 by @fontawesome - https://fontawesome.com License - https://fontawesome.com/license (Commercial License) Copyright 2025 Fonticons, Inc. --><path opacity=".4" fill="currentColor" d="M48 32l0 448 288 0 0-448-288 0zM97.4 216L120 193.4c2 2 20.7 20.7 56 56l0-137.4 32 0 0 137.4c35.4-35.4 54-54 56-56l22.6 22.6-11.3 11.3-72 72-11.3 11.3-11.3-11.3-72-72-11.3-11.3zM144 400l96 0 0 32-96 0 0-32z"/><path fill="currentColor" d="M336 32l0 448-288 0 0-448 288 0zM48 0l-32 0 0 512 352 0 0-512-320 0zm96 400l0 32 96 0 0-32-96 0zm59.3-100.7l72-72 11.3-11.3-22.6-22.6c-2 2-20.6 20.6-56 56l0-137.4-32 0 0 137.4c-35.3-35.3-54-54-56-56l-22.6 22.6 11.3 11.3 72 72 11.3 11.3 11.3-11.3z"/></svg>