<svg xmlns="http://www.w3.org/2000/svg" viewBox="0 0 384 512"><!--! Font Awesome Pro 7.1.0 by @fontawesome - https://fontawesome.com License - https://fontawesome.com/license (Commercial License) Copyright 2025 Fonticons, Inc. --><path opacity=".4" fill="currentColor" d="M48 32l0 448 288 0 0-448-288 0zM88 304l48 0 0 48-48 0 0-48zm0 80l48 0 0 48-48 0 0-48zm8-256l192 0 0 128-192 0 0-128zm48-64l96 0 0 32-96 0 0-32zm24 240l48 0 0 48-48 0 0-48zm0 80l48 0 0 48-48 0 0-48zm80-80l48 0 0 48-48 0 0-48zm0 80l48 0 0 48-48 0 0-48z"/><path fill="currentColor" d="M336 32l0 448-288 0 0-448 288 0zM48 0l-32 0 0 512 352 0 0-512-320 0zM256 160l0 64-128 0 0-64 128 0zM128 128l-32 0 0 128 192 0 0-128-160 0zm8 176l-48 0 0 48 48 0 0-48zM88 384l0 48 48 0 0-48-48 0zm128-80l-48 0 0 48 48 0 0-48zm-48 80l0 48 48 0 0-48-48 0zm128-80l-48 0 0 48 48 0 0-48zm-48 80l0 48 48 0 0-48-48 0zM160 64l-16 0 0 32 96 0 0-32-80 0z"/></svg>