<svg xmlns="http://www.w3.org/2000/svg" viewBox="0 0 640 512"><!--! Font Awesome Pro 7.1.0 by @fontawesome - https://fontawesome.com License - https://fontawesome.com/license (Commercial License) Copyright 2025 Fonticons, Inc. --><path opacity=".4" fill="currentColor" d="M272 304a48 48 0 1 0 96 0 48 48 0 1 0 -96 0z"/><path fill="currentColor" d="M592 359.2c15.7 23.5 31.8 47.2 41.9 73.8 3.2 8.4 6.1 18.1 6.1 27.1 0 28-18.8 52-48 52-28.2 0-48-25.1-48-52 0-9 2.9-18.7 6.1-27.1 10.1-26.6 26.3-50.3 41.9-73.8zM220.1 224c-7.7 9.6-14.1 20.4-18.8 32l-73.3 0 0 192 290.1 0 174.5-188-145.3 31.1c-1.1-10.9-3.5-21.3-7.2-31.2l167.8-35.9 32 32-208 224-336 0 0-64-96-48 0-144 220.1 0zM592 419.1c-6.5 11.7-16 27-16 40.9 0 12.9 8.9 20 16 20 11.6 0 16-9.5 16-20 0-13.9-9.5-29.2-16-40.9zM416 32l-80 0 0 64 80 0 0 32-80 0 0 97.6c36.5 7.4 64 39.7 64 78.4 0 44.2-35.8 80-80 80s-80-35.8-80-80c0-38.7 27.5-71 64-78.4L304 0 416 0 416 32zM32 348.2l64 32 0-124.2-64 0 0 92.2zM320 256a48 48 0 1 0 0 96 48 48 0 1 0 0-96z"/></svg>