<svg xmlns="http://www.w3.org/2000/svg" viewBox="0 0 384 512"><!--! Font Awesome Pro 7.1.0 by @fontawesome - https://fontawesome.com License - https://fontawesome.com/license (Commercial License) Copyright 2025 Fonticons, Inc. --><path opacity=".4" fill="currentColor" d="M32 32l0 448 320 0 0-448-320 0zM64 208c0-67.1 51.7-122.2 117.4-127.5 3.5-.3 7-.5 10.6-.5s7.1 .1 10.6 .5c65.7 5.4 117.4 60.4 117.4 127.5 0 70.7-57.3 128-128 128S64 278.7 64 208zM96 384l192 0 0 32-192 0 0-32z"/><path fill="currentColor" d="M352 32l0 448-320 0 0-448 320 0zM32 0L0 0 0 512 384 512 384 0 32 0zM96 384l0 32 192 0 0-32-192 0zM286.7 224c-5.5 32.8-27.6 59.9-57.4 72.5 9.5-18.5 15.9-43.9 17.7-72.5l39.7 0zM97.3 224l39.7 0c1.8 28.6 8.3 54 17.7 72.5-29.8-12.6-51.9-39.7-57.4-72.5zm84.5 55c-6.2-13.4-11.1-32.5-12.7-55l45.8 0c-1.6 22.5-6.5 41.6-12.7 55-4.5 9.7-8.2 13.8-10.2 15.5-2-1.7-5.7-5.8-10.2-15.5zm0-142c4.5-9.6 8.2-13.8 10.2-15.5 2 1.7 5.7 5.8 10.2 15.5 6.2 13.4 11.1 32.5 12.7 55l-45.8 0c1.6-22.5 6.5-41.6 12.7-55zm104.9 55L247 192c-1.8-28.6-8.3-54-17.7-72.5 29.8 12.6 51.9 39.7 57.4 72.5zM137 192l-39.7 0c5.5-32.8 27.6-59.9 57.4-72.5-9.5 18.5-15.9 43.9-17.7 72.5zm183 16a128 128 0 1 0 -256 0 128 128 0 1 0 256 0z"/></svg>