<svg xmlns="http://www.w3.org/2000/svg" viewBox="0 0 512 512"><!--! Font Awesome Pro 7.1.0 by @fontawesome - https://fontawesome.com License - https://fontawesome.com/license (Commercial License) Copyright 2025 Fonticons, Inc. --><path opacity=".4" fill="currentColor" d="M32.3 204.3c-.9 7.7 .8 18.2 7 29s14.7 17.6 22 20.7 11.3 1.8 13 .9c1.6-.9 4.6-3.6 5.5-11.2 .9-7.7-.8-18.2-7-29s-14.7-17.6-22-20.7-11.3-1.8-13-.9c-1.6 .9-4.6 3.6-5.5 11.3zm66.5 234l149.5-37.3 7.7-2 7.8 2 149.4 37.3c-8-58-32.3-100.8-60.4-130.2-35.6-37.4-75.7-52.1-96.8-52.1s-61.2 14.7-96.8 52.1c-28.1 29.5-52.4 72.3-60.4 130.2zM146.6 80.8c-3.5 10.3-3.9 24.7 1.2 40.2s14.3 26.8 23.3 33.1 16.3 6.6 20.8 5.1c4.4-1.5 10-5.8 13.4-16.1 3.5-10.3 3.9-24.7-1.2-40.2s-14.3-26.8-23.3-33.1-16.3-6.6-20.8-5.1c-4.4 1.5-10 5.8-13.4 16.1zm160 62.3c3.5 10.3 9 14.6 13.4 16.1 4.5 1.5 11.7 1.2 20.8-5.1s18.2-17.6 23.3-33.1 4.7-29.9 1.2-40.2c-3.5-10.3-9-14.6-13.4-16.1-4.5-1.5-11.7-1.2-20.8 5.1s-18.2 17.6-23.3 33.1-4.7 29.9-1.2 40.2zM432.3 243.7c.9 7.6 3.9 10.3 5.5 11.2 1.6 .9 5.7 2.2 13-.9s15.7-9.9 22-20.7 8-21.4 7-29c-.9-7.6-3.9-10.3-5.5-11.3-1.6-.9-5.7-2.2-13 .9s-15.7 9.9-22 20.7-8 21.4-7 29z"/><path fill="currentColor" d="M256 224c64 0 192 80 192 256L256 432 64 480c0-176 128-256 192-256zm0 32c-21.1 0-61.2 14.7-96.8 52.1-28.1 29.5-52.4 72.3-60.4 130.2l149.5-37.3 7.7-2 7.8 2 149.4 37.3c-8-58-32.3-100.8-60.4-130.2-35.6-37.4-75.7-52.1-96.8-52.1zM21.9 165.3c24.5-14 59.7 .9 78.5 33.3s14.3 70.1-10.2 84.2L85.4 285c-22.5 9.2-51.9-3.3-70.1-29.7l-3.7-5.8C-6 219-3.1 184 17.5 168.2l4.4-2.9zm389.8 33.3c18.9-32.4 54-47.3 78.5-33.3l4.4 2.9c20.6 15.8 23.5 50.9 5.8 81.2l-3.7 5.8c-18.2 26.4-47.6 38.9-70.1 29.7l-4.7-2.3c-24.5-14-29.1-51.7-10.2-84.2zM50.7 194c-7.3-3.1-11.3-1.8-13-.9-1.6 .9-4.6 3.6-5.5 11.3-.9 7.7 .8 18.2 7 29s14.7 17.6 22 20.7 11.3 1.8 13 .9c1.6-.9 4.6-3.6 5.5-11.2 .9-7.7-.8-18.2-7-29S58 197.1 50.7 194zm423.5-.9c-1.6-.9-5.7-2.2-13 .9s-15.7 9.9-22 20.7-8 21.4-7 29c.9 7.6 3.9 10.3 5.5 11.2 1.6 .9 5.7 2.2 13-.9s15.7-9.9 22-20.7 8-21.4 7-29c-.9-7.6-3.9-10.3-5.5-11.3zM150.1 34.3c32.3-10.6 70.1 15.6 84.4 58.5s-.3 86.2-32.6 96.8l-6.1 1.6c-28.8 5.3-60.4-16.6-75.3-52.2l-2.9-7.8c-13.4-40.2-1.4-80.8 26.8-94.4l5.8-2.4zM277.5 92.8c14.3-42.9 52.1-69.1 84.4-58.5l5.8 2.4c28.2 13.6 40.2 54.2 26.7 94.4l-2.9 7.8c-15 35.6-46.6 57.5-75.3 52.2l-6.1-1.6c-32.3-10.6-46.9-53.9-32.6-96.8zm-96.7-23c-9.1-6.3-16.3-6.6-20.8-5.1-4.4 1.5-10 5.8-13.4 16.1-3.5 10.3-3.9 24.7 1.2 40.2s14.3 26.8 23.3 33.1 16.3 6.6 20.8 5.1c4.4-1.5 10-5.8 13.4-16.1 3.5-10.3 3.9-24.7-1.2-40.2s-14.3-26.8-23.3-33.1zM352 64.8c-4.5-1.5-11.7-1.2-20.8 5.1s-18.2 17.6-23.3 33.1-4.7 29.9-1.2 40.2c3.5 10.3 9 14.6 13.4 16.1 4.5 1.5 11.7 1.2 20.8-5.1s18.2-17.6 23.3-33.1 4.7-29.9 1.2-40.2c-3.5-10.3-9-14.6-13.4-16.1z"/></svg>