<svg xmlns="http://www.w3.org/2000/svg" viewBox="0 0 192 512"><!--! Font Awesome Pro 7.0.1 by @fontawesome - https://fontawesome.com License - https://fontawesome.com/license (Commercial License) Copyright 2025 Fonticons, Inc. --><path style="fill:var(--fa-secondary-color,currentColor);opacity:var(--fa-secondary-opacity,.4)" d="M32 192l128 0 0 128-128 0 0-128zM128 64a32 32 0 1 1 -64 0 32 32 0 1 1 64 0z"/><path style="fill:var(--fa-primary-color,currentColor);opacity:var(--fa-primary-opacity,1)" d="M128 64a32 32 0 1 0 -64 0 32 32 0 1 0 64 0zM32 64A64 64 0 1 1 160 64 64 64 0 1 1 32 64zm0 128l0 128 128 0 0-128-128 0zM0 160l192 0 0 192-32 0 0 160-32 0 0-160-64 0 0 160-32 0 0-160-32 0 0-192z"/></svg>