<svg xmlns="http://www.w3.org/2000/svg" viewBox="0 0 640 512"><!--! Font Awesome Pro 7.1.0 by @fontawesome - https://fontawesome.com License - https://fontawesome.com/license (Commercial License) Copyright 2025 Fonticons, Inc. --><path opacity=".4" fill="currentColor" d="M51.3 160l26 143.3c.1 .2 .2 .5 .1 .7l50.6 0c138.6 .2 277.1 .4 415.7 .6 17.9 0 32.3-14.4 32.3-32.3 0-17.8-14.5-32.3-32.3-32.3l-134.7 0-4.8-5.2-171.2-186.8-50.8 0 64 192-126.5 0-4.8-6.8-51.2-73.2-12.5 0z"/><path fill="currentColor" d="M543.9 240c17.8 0 32.3 14.5 32.3 32.3 0 17.9-14.5 32.3-32.3 32.3l-415.6-.6-50.7 0-26.2-144 12.5 0 51.2 73.2 4.8 6.8 126.5 0-64-192 50.8 0 171.2 186.8 4.8 5.2 134.7 0zm64.3 32.3c0-35.5-28.8-64.3-64.3-64.3l-120.7 0-171.2-186.8-4.8-5.2-109.2 0 7 21.1 57 170.9-65.5 0-51.2-73.2-4.8-6.8-67.5 0 3.4 18.9 32 176 2.4 13.1 77.4 0 415.6 .6c35.5 .1 64.4-28.8 64.4-64.3zM48.2 480l-16 0 0 32 576 0 0-32-560 0z"/></svg>