<svg xmlns="http://www.w3.org/2000/svg" viewBox="0 0 512 512"><!--! Font Awesome Pro 7.1.0 by @fontawesome - https://fontawesome.com License - https://fontawesome.com/license (Commercial License) Copyright 2025 Fonticons, Inc. --><path opacity=".4" fill="currentColor" d="M32 364.9c0 63.6 51.5 115.1 115.1 115.1 30.5 0 59.8-12.1 81.4-33.7l20.9-20.9 4.4-4.4 5.7-2.4 101.9-43.7 74.7-134.4 2.2-3.9c1.8-1.8 4.5-4.5 8.1-8.1 21.6-21.6 33.7-50.9 33.7-81.4 0-63.6-51.5-115.1-115.1-115.1-30.5 0-59.8 12.1-81.4 33.7l-36.9 36.9-2.8 2.8-3.4 2-73.1 43.9-43.9 73.1-2 3.4-2.8 2.8-52.9 52.9C44.1 305.1 32 334.4 32 364.9zM144 368l32 0 0 32-32 0 0-32zm32-128l32 0 0 32-32 0 0-32zm160-64l32 0 0 32-32 0 0-32z"/><path fill="currentColor" d="M118.6 230.6l2.8-2.8 2-3.4 43.9-73.1 73.1-43.9 3.4-2 2.8-2.8 36.9-36.9c21.6-21.6 50.9-33.7 81.4-33.7 63.6 0 115.1 51.5 115.1 115.1 0 30.5-12.1 59.8-33.7 81.4-3.6 3.6-6.3 6.3-8.1 8.1l-2.2 3.9-74.7 134.4-101.9 43.7-5.7 2.4-4.4 4.4-20.9 20.9c-21.6 21.6-50.9 33.7-81.4 33.7-63.6 0-115.1-51.5-115.1-115.1 0-30.5 12.1-59.8 33.7-81.4l52.9-52.9zM224 80l-80 48-48 80-52.9 52.9c-27.6 27.6-43.1 65-43.1 104 0 81.2 65.8 147.1 147.1 147.1 39 0 76.4-15.5 104-43.1l20.9-20.9 112-48 80-144 4.9-4.9c27.6-27.6 43.1-65 43.1-104 0-81.2-65.8-147.1-147.1-147.1-39 0-76.4 15.5-104 43.1L224 80zm112 96l0 32 32 0 0-32-32 0zM208 240l-32 0 0 32 32 0 0-32zM176 368l-32 0 0 32 32 0 0-32z"/></svg>