<svg xmlns="http://www.w3.org/2000/svg" viewBox="0 0 384 512"><!--! Font Awesome Pro 7.0.1 by @fontawesome - https://fontawesome.com License - https://fontawesome.com/license (Commercial License) Copyright 2025 Fonticons, Inc. --><path style="fill:var(--fa-secondary-color,currentColor);opacity:var(--fa-secondary-opacity,.4)" d="M32 32l320 0 0 80-320 0 0-80zM64 144l256 0 0 336-256 0 0-64 96 0 0-32-96 0 0-64 96 0 0-32-96 0 0-64 96 0 0-32-96 0 0-48z"/><path style="fill:var(--fa-primary-color,currentColor);opacity:var(--fa-primary-opacity,1)" d="M352 32l0 80-320 0 0-80 320 0zM0 144l32 0 0 368 320 0 0-368 32 0 0-144-384 0 0 144zm64 0l256 0 0 336-256 0 0-64 96 0 0-32-96 0 0-64 96 0 0-32-96 0 0-64 96 0 0-32-96 0 0-48z"/></svg>