<svg xmlns="http://www.w3.org/2000/svg" viewBox="0 0 448 512"><!--! Font Awesome Pro 7.1.0 by @fontawesome - https://fontawesome.com License - https://fontawesome.com/license (Commercial License) Copyright 2025 Fonticons, Inc. --><path opacity=".4" fill="currentColor" d="M32 64l0 128 128 0 0-128-128 0zm0 256l0 128 128 0 0-128-128 0zM72 104l48 0 0 48-48 0 0-48zm0 256l48 0 0 48-48 0 0-48zM288 64l0 128 128 0 0-128-128 0zm40 40l48 0 0 48-48 0 0-48z"/><path fill="currentColor" d="M160 64l0 128-128 0 0-128 128 0zM32 32l-32 0 0 192 192 0 0-192-160 0zM160 320l0 128-128 0 0-128 128 0zM32 288l-32 0 0 192 192 0 0-192-160 0zM288 64l128 0 0 128-128 0 0-128zM256 32l0 192 192 0 0-192-192 0zM376 360l-48 0 0 48 48 0 0-48zM120 104l-48 0 0 48 48 0 0-48zM72 360l0 48 48 0 0-48-48 0zM376 104l-48 0 0 48 48 0 0-48zM264 296l0 48 48 0 0-48-48 0zm0 128l0 48 48 0 0-48-48 0zm176 0l-48 0 0 48 48 0 0-48zM392 296l0 48 48 0 0-48-48 0z"/></svg>