<svg xmlns="http://www.w3.org/2000/svg" viewBox="0 0 512 512"><!--! Font Awesome Pro 7.0.1 by @fontawesome - https://fontawesome.com License - https://fontawesome.com/license (Commercial License) Copyright 2025 Fonticons, Inc. --><path style="fill:var(--fa-secondary-color,currentColor);opacity:var(--fa-secondary-opacity,.4)" d="M32.4 128l448 0 0 320-448 0 0-320zm48 96l0 32 128 0 0-32-128 0zm0 96l0 32 128 0 0-32-128 0zm176-32a96 96 0 1 0 192 0 96 96 0 1 0 -192 0z"/><path style="fill:var(--fa-primary-color,currentColor);opacity:var(--fa-primary-opacity,1)" d="M515.8-4.4l-7.8-31-15.5 3.9-480 120-12.1 3 0 388.5 512 0 0-384-398 0 385.9-96.5 15.5-3.9zM32.4 128l448 0 0 320-448 0 0-320zm320 224a64 64 0 1 1 0-128 64 64 0 1 1 0 128zm-96-64a96 96 0 1 0 192 0 96 96 0 1 0 -192 0zm-160-64l-16 0 0 32 128 0 0-32-112 0zm0 96l-16 0 0 32 128 0 0-32-112 0z"/></svg>