<svg xmlns="http://www.w3.org/2000/svg" viewBox="0 0 640 512"><!--! Font Awesome Pro 7.1.0 by @fontawesome - https://fontawesome.com License - https://fontawesome.com/license (Commercial License) Copyright 2025 Fonticons, Inc. --><path opacity=".4" fill="currentColor" d="M32 352C32 192.9 160.9 64 320 64S608 192.9 608 352l0 96-88 0 0-100c0-112.7-91.3-204-204-204S112 235.3 112 348l0 100-80 0 0-96zm112-4c0-95 77-172 172-172s172 77 172 172l0 100-72 0 0-96c0-53-43-96-96-96s-96 43-96 96l0 96-80 0 0-100z"/><path fill="currentColor" d="M320 64C160.9 64 32 192.9 32 352l0 96-32 0 0-96C0 175.3 143.3 32 320 32S640 175.3 640 352l0 96-32 0 0-96C608 192.9 479.1 64 320 64zm-4 112c-95 0-172 77-172 172l0 100-32 0 0-100c0-112.7 91.3-204 204-204s204 91.3 204 204l0 100-32 0 0-100c0-95-77-172-172-172zM256 352l0 96-32 0 0-96c0-53 43-96 96-96s96 43 96 96l0 96-32 0 0-96c0-35.3-28.7-64-64-64s-64 28.7-64 64z"/></svg>