<svg xmlns="http://www.w3.org/2000/svg" viewBox="0 0 512 512"><!--! Font Awesome Pro 7.0.1 by @fontawesome - https://fontawesome.com License - https://fontawesome.com/license (Commercial License) Copyright 2025 Fonticons, Inc. --><path style="fill:var(--fa-secondary-color,currentColor);opacity:var(--fa-secondary-opacity,.4)" d="M32 480l112 0c0-185.6 150.4-336 336-336l0-112C232.6 32 32 232.6 32 480zm144 0l112 0c0-106 86-192 192-192l0-112c-167.9 0-304 136.1-304 304z"/><path style="fill:var(--fa-primary-color,currentColor);opacity:var(--fa-primary-opacity,1)" d="M480 32C232.6 32 32 232.6 32 480L0 480C0 214.9 214.9 0 480 0l0 32zm0 144c-167.9 0-304 136.1-304 304l-32 0c0-185.6 150.4-336 336-336l0 32zM320 480l-32 0c0-106 86-192 192-192l0 32c-88.4 0-160 71.6-160 160z"/></svg>