<svg xmlns="http://www.w3.org/2000/svg" viewBox="0 0 512 512"><!--! Font Awesome Pro 7.0.1 by @fontawesome - https://fontawesome.com License - https://fontawesome.com/license (Commercial License) Copyright 2025 Fonticons, Inc. --><path style="fill:var(--fa-secondary-color,currentColor);opacity:var(--fa-secondary-opacity,.4)" d="M32 96l448 0 0 320-448 0 0-320zM144 240l0 32 96 0 0 96 32 0 0-96 96 0 0-32-96 0 0-96-32 0 0 96-96 0z"/><path style="fill:var(--fa-primary-color,currentColor);opacity:var(--fa-primary-opacity,1)" d="M32 96l0 320 448 0 0-320-448 0zM0 64l512 0 0 384-512 0 0-384zM240 368l0-96-96 0 0-32 96 0 0-96 32 0 0 96 96 0 0 32-96 0 0 96-32 0z"/></svg>