<svg xmlns="http://www.w3.org/2000/svg" viewBox="0 0 576 512"><!--! Font Awesome Pro 7.1.0 by @fontawesome - https://fontawesome.com License - https://fontawesome.com/license (Commercial License) Copyright 2025 Fonticons, Inc. --><path opacity=".4" fill="currentColor" d="M32 240l0 208 214 0c-3.9-15.3-6-31.4-6-48 0-66.8 34.1-125.6 85.8-160L32 240z"/><path fill="currentColor" d="M246 448l-214 0 0-208 293.8 0c30.4-20.2 66.9-32 106.2-32l-432 0 0 272 257.4 0c-4.7-10.2-8.5-20.9-11.4-32zM464 136l0-32-416 0 0 32 416 0zM416 32l0-32-320 0 0 32 320 0zM320 400a112 112 0 1 1 224 0 112 112 0 1 1 -224 0zm256 0a144 144 0 1 0 -288 0 144 144 0 1 0 288 0zM448 336l0-16-32 0 0 64-64 0 0 32 64 0 0 64 32 0 0-64 64 0 0-32-64 0 0-48z"/></svg>