<svg xmlns="http://www.w3.org/2000/svg" viewBox="0 0 512 512"><!--! Font Awesome Pro 7.0.1 by @fontawesome - https://fontawesome.com License - https://fontawesome.com/license (Commercial License) Copyright 2025 Fonticons, Inc. --><path style="fill:var(--fa-secondary-color,currentColor);opacity:var(--fa-secondary-opacity,.4)" d="M32 96l448 0 0 320-448 0 0-320zm72 112a24 24 0 1 0 48 0 24 24 0 1 0 -48 0zm0 96a24 24 0 1 0 48 0 24 24 0 1 0 -48 0zm88-112l0 32 224 0 0-32-224 0zm0 96l0 32 224 0 0-32-224 0z"/><path style="fill:var(--fa-primary-color,currentColor);opacity:var(--fa-primary-opacity,1)" d="M32 96l0 320 448 0 0-320-448 0zM0 64l512 0 0 384-512 0 0-384zM128 232a24 24 0 1 1 0-48 24 24 0 1 1 0 48zm80-40l208 0 0 32-224 0 0-32 16 0zm0 96l208 0 0 32-224 0 0-32 16 0zM104 304a24 24 0 1 1 48 0 24 24 0 1 1 -48 0z"/></svg>