<svg xmlns="http://www.w3.org/2000/svg" viewBox="0 0 512 512"><!--! Font Awesome Pro 7.0.1 by @fontawesome - https://fontawesome.com License - https://fontawesome.com/license (Commercial License) Copyright 2025 Fonticons, Inc. --><path style="fill:var(--fa-secondary-color,currentColor);opacity:var(--fa-secondary-opacity,.4)" d="M32 149.3L138.7 256 32 362.7 32 149.3zM373.3 256L480 149.3 480 362.7 373.3 256z"/><path style="fill:var(--fa-primary-color,currentColor);opacity:var(--fa-primary-opacity,1)" d="M272 32l0 448-32 0 0-448 32 0zM161.4 233.4L184 256 161.4 278.6C58.9 381.1 5.1 434.9 0 440L0 72c5.1 5.1 58.9 58.9 161.4 161.4zM32 362.7L138.7 256 32 149.3 32 362.7zM328 256l22.6-22.6C453.1 130.9 506.9 77.1 512 72l0 368-184-184zm45.3 0L480 362.7 480 149.3 373.3 256z"/></svg>