<svg xmlns="http://www.w3.org/2000/svg" viewBox="0 0 384 512"><!--! Font Awesome Pro 7.0.1 by @fontawesome - https://fontawesome.com License - https://fontawesome.com/license (Commercial License) Copyright 2025 Fonticons, Inc. --><path style="fill:var(--fa-secondary-color,currentColor);opacity:var(--fa-secondary-opacity,.4)" d="M32 32l0 128 224 0 0-64 32 0 0 64 64 0 0-128-320 0zm0 160l0 288 320 0 0-288-64 0 0 160-32 0 0-160-224 0z"/><path style="fill:var(--fa-primary-color,currentColor);opacity:var(--fa-primary-opacity,1)" d="M352 32l0 128-64 0 0-64-32 0 0 64-224 0 0-128 320 0zM256 192l0 160 32 0 0-160 64 0 0 288-320 0 0-288 224 0zM32 0L0 0 0 512 384 512 384 0 32 0z"/></svg>