<svg xmlns="http://www.w3.org/2000/svg" viewBox="0 0 640 512"><!--! Font Awesome Pro 7.1.0 by @fontawesome - https://fontawesome.com License - https://fontawesome.com/license (Commercial License) Copyright 2025 Fonticons, Inc. --><path opacity=".4" fill="currentColor" d="M64.3 240l160-144 0 96 65.4 0c30.3 66.1 97.1 112 174.6 112 14.9 0 29.3-1.7 43.2-4.9 3.1 12 4.8 24.2 4.8 36.9 0 38.2-13.9 67.8-32.1 90.3-3-76.9-66.3-138.3-143.9-138.3l-112 0 0 96-160-144z"/><path fill="currentColor" d="M464.3 0a112 112 0 1 1 0 224 112 112 0 1 1 0-224zm0 256a144 144 0 1 0 0-288 144 144 0 1 0 0 288zm16-224l-32 0 0 96 80 0 0-32-48 0 0-64zm64 304c0-16.2-2.2-31.8-6.3-46.7-9.8 4.1-20 7.4-30.5 9.8 3.1 11.8 4.8 24.1 4.8 36.9 0 38.2-13.9 67.8-32.1 90.3-3-76.9-66.3-138.3-143.9-138.3l-112 0 0 96-160-144 160-144 0 96 65.4 0c-4.7-10.2-8.5-20.9-11.4-32l-22 0 0-135.9-32 28.8-183.9 165.5-23.9 21.5 23.9 21.5 183.9 165.5 32 28.8 0-135.9 80 0c61.9 0 112 50.1 112 112 0 9.9-1.4 19-3.5 27.4-8.3 32.4-28.5 52.6-28.5 52.6s27-10.1 56.2-33.4c34.4-27.5 71.8-73.3 71.8-142.6z"/></svg>