<svg xmlns="http://www.w3.org/2000/svg" viewBox="0 0 512 512"><!--! Font Awesome Pro 7.1.0 by @fontawesome - https://fontawesome.com License - https://fontawesome.com/license (Commercial License) Copyright 2025 Fonticons, Inc. --><path opacity=".4" fill="currentColor" d="M32 224l0 64 192 0c0 17.7 0 46.3 0 85.7L348.3 256 224 138.3c0 39.4 0 67.9 0 85.7-32 0-144 0-192 0z"/><path fill="currentColor" d="M512 64l0 384-32 0 0-384 32 0zM192 192l0-128c2.1 2 61.9 58.6 179.6 170l23.3 22-23.3 22C253.9 389.4 194.1 446 192 448l0-128-192 0 0-128 128 0 0 0 64 0zm-64 32l0 0-96 0 0 64 192 0 0 85.7 124.3-117.7-124.3-117.7 0 85.7-96 0z"/></svg>