<svg xmlns="http://www.w3.org/2000/svg" viewBox="0 0 576 512"><!--! Font Awesome Pro 7.0.1 by @fontawesome - https://fontawesome.com License - https://fontawesome.com/license (Commercial License) Copyright 2025 Fonticons, Inc. --><path style="fill:var(--fa-secondary-color,currentColor);opacity:var(--fa-secondary-opacity,.4)" d="M32 160l0 192 512 0 0-192-64 0 0 96-32 0 0-96-56 0 0 64-32 0 0-64-56 0 0 96-32 0 0-96-56 0 0 64-32 0 0-64-56 0 0 96-32 0 0-96-64 0z"/><path style="fill:var(--fa-primary-color,currentColor);opacity:var(--fa-primary-opacity,1)" d="M32 352l512 0 0-192-64 0 0 96-32 0 0-96-56 0 0 64-32 0 0-64-56 0 0 96-32 0 0-96-56 0 0 64-32 0 0-64-56 0 0 96-32 0 0-96-64 0 0 192zM96 128l480 0 0 256-576 0 0-256 96 0z"/></svg>