<svg xmlns="http://www.w3.org/2000/svg" viewBox="0 0 448 512"><!--! Font Awesome Pro 7.0.1 by @fontawesome - https://fontawesome.com License - https://fontawesome.com/license (Commercial License) Copyright 2025 Fonticons, Inc. --><path style="fill:var(--fa-secondary-color,currentColor);opacity:var(--fa-secondary-opacity,.4)" d="M32 64l384 0 0 128-384 0 0-128zm0 256l384 0 0 128-384 0 0-128zM240 128a24 24 0 1 0 48 0 24 24 0 1 0 -48 0zm0 256a24 24 0 1 0 48 0 24 24 0 1 0 -48 0zm80-256a24 24 0 1 0 48 0 24 24 0 1 0 -48 0zm0 256a24 24 0 1 0 48 0 24 24 0 1 0 -48 0z"/><path style="fill:var(--fa-primary-color,currentColor);opacity:var(--fa-primary-opacity,1)" d="M32 64l0 128 384 0 0-128-384 0zM0 32l448 0 0 192-448 0 0-192zm264 72a24 24 0 1 1 0 48 24 24 0 1 1 0-48zm56 24a24 24 0 1 1 48 0 24 24 0 1 1 -48 0zM32 320l0 128 384 0 0-128-384 0zM0 288l448 0 0 192-448 0 0-192zm240 96a24 24 0 1 1 48 0 24 24 0 1 1 -48 0zm104-24a24 24 0 1 1 0 48 24 24 0 1 1 0-48z"/></svg>