<svg xmlns="http://www.w3.org/2000/svg" viewBox="0 0 640 512"><!--! Font Awesome Pro 7.1.0 by @fontawesome - https://fontawesome.com License - https://fontawesome.com/license (Commercial License) Copyright 2025 Fonticons, Inc. --><path opacity=".4" fill="currentColor" d="M117.6 171.8l186.5-40 0 281.1c-26.7-10.7-53.5-21.4-80.2-32.1l-23.8-9.5c-17.1 6.8-30.4 12.2-40 16l0-102.1-1-2.7-41.5-110.6zm218.5-40l186.5 40-41.5 110.6-1 2.7 0 102.1c-9.6-3.8-22.9-9.2-40-16l-23.8 9.5c-26.7 10.7-53.5 21.4-80.2 32.1l0-281z"/><path fill="currentColor" d="M452.4 425l121 45.8c28.3-10.6 45.7-17.1 52-19.5l11.2 30-15 5.6-42.7 16-5.6 2.1-5.7-2.1-121-45.9-121 45.9-5.7 2.2-5.7-2.2-121-45.9-121 45.9-5.7 2.1-5.6-2.1-42.7-16-15-5.6 11.2-30c6.3 2.4 23.7 8.9 52 19.5l121.1-45.8 5.7-2.2 5.7 2.2 121 45.8 121-45.8 5.7-2.2 5.7 2.2zM336.1 16l144 0 0 113.9 67.4 14.4 18.2 3.9-6.5 17.4-47 125.2 0 109.1-32-12.8 0-102.1 1-2.7 41.5-110.6-186.5-40 0 281-16 6.4-16-6.4 0-281.1-186.5 40 41.5 110.6 1 2.7 0 102.1-32 12.8 0-109.1-47-125.2-6.5-17.4 18.2-3.9 67.3-14.4 0-113.9 144 0 0-48 32 0 0 48zm-144 107.1l124.7-26.7 3.3-.7 3.3 .7 124.6 26.7 0-75-256 0 0 75.1z"/></svg>