<svg xmlns="http://www.w3.org/2000/svg" viewBox="0 0 512 512"><!--! Font Awesome Pro 7.0.1 by @fontawesome - https://fontawesome.com License - https://fontawesome.com/license (Commercial License) Copyright 2025 Fonticons, Inc. --><path style="fill:var(--fa-secondary-color,currentColor);opacity:var(--fa-secondary-opacity,.4)" d="M48 88l0 32 32 0 0 40 352 0 0-40 32 0 0-32-32 0 0-40-352 0 0 40-32 0zm0 152l0 32 32 0 0 48 352 0 0-48 32 0 0-32-32 0 0-48-352 0 0 48-32 0zm0 152l0 32 32 0 0 40 352 0 0-40 32 0 0-32-32 0 0-40-352 0 0 40-32 0z"/><path style="fill:var(--fa-primary-color,currentColor);opacity:var(--fa-primary-opacity,1)" d="M48 16l416 0 0 40 32 0 0 96-32 0 0 56 32 0 0 96-32 0 0 56 32 0 0 96-32 0 0 40-416 0 0-40-32 0 0-96 32 0 0-56-32 0 0-96 32 0 0-56-32 0 0-96 32 0 0-40zm0 72l0 32 32 0 0 40 352 0 0-40 32 0 0-32-32 0 0-40-352 0 0 40-32 0zM432 192l-352 0 0 48-32 0 0 32 32 0 0 48 352 0 0-48 32 0 0-32-32 0 0-48zm0 160l-352 0 0 40-32 0 0 32 32 0 0 40 352 0 0-40 32 0 0-32-32 0 0-40z"/></svg>