<svg xmlns="http://www.w3.org/2000/svg" viewBox="0 0 448 512"><!--! Font Awesome Pro 7.0.1 by @fontawesome - https://fontawesome.com License - https://fontawesome.com/license (Commercial License) Copyright 2025 Fonticons, Inc. --><path style="fill:var(--fa-secondary-color,currentColor);opacity:var(--fa-secondary-opacity,.4)" d="M32 64l384 0 0 384-384 0 0-384zm112 96l0 112c0 44.2 35.8 80 80 80s80-35.8 80-80l0-112-32 0 0 112c0 26.5-21.5 48-48 48s-48-21.5-48-48l0-112-32 0z"/><path style="fill:var(--fa-primary-color,currentColor);opacity:var(--fa-primary-opacity,1)" d="M32 64l0 384 384 0 0-384-384 0zM0 32l448 0 0 448-448 0 0-448zM176 176l0 96c0 26.5 21.5 48 48 48s48-21.5 48-48l0-112 32 0 0 112c0 44.2-35.8 80-80 80s-80-35.8-80-80l0-112 32 0 0 16z"/></svg>