<svg xmlns="http://www.w3.org/2000/svg" viewBox="0 0 448 512"><!--! Font Awesome Pro 7.0.0 by @fontawesome - https://fontawesome.com License - https://fontawesome.com/license (Commercial License) Copyright 2025 Fonticons, Inc. --><path style="fill:var(--fa-secondary-color,currentColor);opacity:var(--fa-secondary-opacity,.4)" d="M32 64l384 0 0 384-384 0 0-384zM88 215c0 26.9 19.4 49.8 45.9 54.2l30.9 5.1c11.1 1.8 19.2 11.4 19.2 22.7 0 12.7-10.3 23-23 23l-65 0 0 32 65 0c30.4 0 55-24.6 55-55 0-26.9-19.4-49.8-45.9-54.2l-30.9-5.1c-11.1-1.8-19.2-11.4-19.2-22.7 0-12.7 10.3-23 23-23l65 0 0-32-65 0c-30.4 0-55 24.6-55 55zM220.2 379l30.8 8.8 4.4-15.4 64-224 4.4-15.4-30.8-8.8-4.4 15.4-64 224-4.4 15.4zM304 328a24 24 0 1 0 48 0 24 24 0 1 0 -48 0z"/><path style="fill:var(--fa-primary-color,currentColor);opacity:var(--fa-primary-opacity,1)" d="M32 64l0 384 384 0 0-384-384 0zM0 32l448 0 0 448-448 0 0-448zM143 160l65 0 0 32-65 0c-12.7 0-23 10.3-23 23 0 11.2 8.1 20.8 19.2 22.7l30.9 5.1c26.5 4.4 45.9 27.4 45.9 54.2 0 30.4-24.6 55-55 55l-65 0 0-32 65 0c12.7 0 23-10.3 23-23 0-11.2-8.1-20.8-19.2-22.7l-30.9-5.1c-26.5-4.4-45.9-27.4-45.9-54.2 0-30.4 24.6-55 55-55zm180.8-27l-4.4 15.4-64 224-4.4 15.4-30.8-8.8 4.4-15.4 64-224 4.4-15.4 30.8 8.8zM328 304a24 24 0 1 1 0 48 24 24 0 1 1 0-48z"/></svg>