<svg xmlns="http://www.w3.org/2000/svg" viewBox="0 0 448 512"><!--! Font Awesome Pro 7.1.0 by @fontawesome - https://fontawesome.com License - https://fontawesome.com/license (Commercial License) Copyright 2025 Fonticons, Inc. --><path opacity=".4" fill="currentColor" d="M32 64l0 384 384 0 0-384-384 0zm168 64l48 0-12.8 176-22.4 0-12.8-176zm4 212l40 0 0 40-40 0 0-40z"/><path fill="currentColor" d="M448 480l-448 0 0-448 448 0 0 448zM32 448l384 0 0-384-384 0 0 384zm212-68l-40 0 0-40 40 0 0 40zm-8.8-76l-22.4 0-12.8-176 48 0-12.8 176z"/></svg>