<svg xmlns="http://www.w3.org/2000/svg" viewBox="0 0 448 512"><!--! Font Awesome Pro 7.0.1 by @fontawesome - https://fontawesome.com License - https://fontawesome.com/license (Commercial License) Copyright 2025 Fonticons, Inc. --><path style="fill:var(--fa-secondary-color,currentColor);opacity:var(--fa-secondary-opacity,.4)" d="M32 64l0 384 384 0 0-384-384 0zm89.4 192l11.3-11.3 112-112 11.3-11.3 22.6 22.6-11.3 11.3-100.7 100.7 100.7 100.7 11.3 11.3-22.6 22.6-11.3-11.3-112-112-11.3-11.3z"/><path style="fill:var(--fa-primary-color,currentColor);opacity:var(--fa-primary-opacity,1)" d="M32 448l384 0 0-384-384 0 0 384zM0 480l0-448 448 0 0 448-448 0zM132.7 244.7l112-112 11.3-11.3 22.6 22.6-11.3 11.3-100.7 100.7 100.7 100.7 11.3 11.3-22.6 22.6-11.3-11.3-112-112-11.3-11.3 11.3-11.3z"/></svg>