<svg xmlns="http://www.w3.org/2000/svg" viewBox="0 0 448 512"><!--! Font Awesome Pro 7.1.0 by @fontawesome - https://fontawesome.com License - https://fontawesome.com/license (Commercial License) Copyright 2025 Fonticons, Inc. --><path opacity=".4" fill="currentColor" d="M32 64l384 0 0 384-384 0 0-384zm88 192c0 57.4 46.6 104 104 104s104-46.6 104-104l0-16-104 0 0 32 70.2 0c-7.3 32.1-36 56-70.2 56-39.8 0-72-32.2-72-72s32.2-72 72-72c18.5 0 35.2 6.9 48 18.3l21.3-23.8c-18.4-16.5-42.7-26.5-69.3-26.5-57.4 0-104 46.6-104 104z"/><path fill="currentColor" d="M32 64l0 384 384 0 0-384-384 0zM0 32l448 0 0 448-448 0 0-448zM152 256c0 39.8 32.2 72 72 72 34.3 0 63-23.9 70.2-56l-70.2 0 0-32 104 0 0 16c0 57.4-46.6 104-104 104s-104-46.6-104-104 46.6-104 104-104c26.6 0 50.9 10 69.3 26.5L272 202.3c-12.7-11.4-29.5-18.3-48-18.3-39.8 0-72 32.2-72 72z"/></svg>