<svg xmlns="http://www.w3.org/2000/svg" viewBox="0 0 448 512"><!--! Font Awesome Pro 7.0.1 by @fontawesome - https://fontawesome.com License - https://fontawesome.com/license (Commercial License) Copyright 2025 Fonticons, Inc. --><path style="fill:var(--fa-secondary-color,currentColor);opacity:var(--fa-secondary-opacity,.4)" d="M32 64l384 0 0 384-384 0 0-384zm128 96l0 32 104.7 0-94.5 160 37.2 0 94.5-159.9 2.2-3.8 0-28.4-144 0z"/><path style="fill:var(--fa-primary-color,currentColor);opacity:var(--fa-primary-opacity,1)" d="M32 64l0 384 384 0 0-384-384 0zM0 32l448 0 0 448-448 0 0-448zM160 160l144 0 0 28.4-2.2 3.8-94.5 159.9-37.2 0 94.5-160-104.7 0 0-32z"/></svg>