<svg xmlns="http://www.w3.org/2000/svg" viewBox="0 0 448 512"><!--! Font Awesome Pro 7.1.0 by @fontawesome - https://fontawesome.com License - https://fontawesome.com/license (Commercial License) Copyright 2025 Fonticons, Inc. --><path opacity=".4" fill="currentColor" d="M32 64l384 0 0 384-384 0 0-384zm80 96l0 80 0 16c0 26.7 0 53.3 0 80l0 16 32 0 0-16 0-112c0-17.7 14.3-32 32-32 17.5 0 31.8 14.1 32 31.6l0 .4 0 28.6-62.6 140.9-6.5 14.6 29.2 13 6.5-14.6 33.4-75.1c0 9.2 0 16 0 20.6l32 0 0-92.6 29.9-67.3c.7 0 1.4-.1 2.1-.1 17.7 0 32 14.3 32 32l0 128 32 0 0-128c0-31.3-22.5-57.4-52.3-62.9 14.7-33 23.2-52.1 25.4-57.2l-29.2-13c-1 2.2-12 27-33 74.2-8.8 3.8-16.6 9.5-22.9 16.5-11.7-13.3-28.9-21.7-48-21.7-11.7 0-22.6 3.1-32 8.6l0-8.6-32 0z"/><path fill="currentColor" d="M32 64l0 384 384 0 0-384-384 0zM0 32l448 0 0 448-448 0 0-448zm309.1 71.9c-2.3 5.1-10.7 24.2-25.4 57.2 29.8 5.5 52.3 31.6 52.3 62.9l0 128-32 0 0-128c0-17.7-14.3-32-32-32-.7 0-1.4 0-2.1 .1l-29.9 67.3 0 92.6-32 0 0-8 0 0 0-12.6-33.4 75.1-6.5 14.6-29.2-13 6.5-14.6 62.6-140.9 0-28.6 0-.4c-.2-17.5-14.5-31.6-32-31.6-17.7 0-32 14.3-32 32l0 112 0 16-32 0 0-16 0-80 0 0 0-80 0-16 32 0 0 8.6c9.4-5.4 20.3-8.6 32-8.6 19.1 0 36.3 8.4 48 21.7 6.3-7.1 14.1-12.8 22.9-16.5 21-47.2 32-72 33-74.2l29.2 13z"/></svg>