<svg xmlns="http://www.w3.org/2000/svg" viewBox="0 0 448 512"><!--! Font Awesome Pro 7.1.0 by @fontawesome - https://fontawesome.com License - https://fontawesome.com/license (Commercial License) Copyright 2025 Fonticons, Inc. --><path opacity=".4" fill="currentColor" d="M32 64l384 0 0 384-384 0 0-384zm68.1 192c0 38.2 16.8 72.5 43.3 96l-31.5 0 0 32 224 0 0-32-107.9 0c-53 0-96-43-96-96 0-40.2 24.8-74.7 59.9-89l0 65 32 0 0-71.9c1.4-.1 2.7-.1 4.1-.1 4 0 8 .2 11.9 .7l0 71.3 32 0 0-61.4c25.5 13.1 44.3 37.3 50.2 66.2l.7 3.2 32.7 0-1.9-9.6c-8.9-43.9-40.3-79.6-81.6-94.7l0-31.7-32 0 0 24.5c-3.9-.4-7.9-.5-11.9-.5-1.4 0-2.8 0-4.1 .1l0-24.1-32 0 0 29.2c-53.1 15.6-91.9 64.7-91.9 122.8z"/><path fill="currentColor" d="M32 64l0 384 384 0 0-384-384 0zM0 32l448 0 0 448-448 0 0-448zm224 72l0 24.1c1.4 0 2.7-.1 4.1-.1 4 0 8 .2 11.9 .5l0-24.5 32 0 0 31.7c41.3 15.1 72.6 50.8 81.6 94.7l1.9 9.6-32.7 0-.7-3.2c-5.9-28.9-24.7-53.1-50.2-66.2l0 61.4-32 0 0-71.3c-3.9-.5-7.9-.7-11.9-.7-1.4 0-2.8 0-4.1 .1l0 71.9-32 0 0-65c-35.1 14.3-59.9 48.7-59.9 89 0 53 43 96 96 96l107.9 0 0 32-224 0 0-32 31.5 0c-26.6-23.5-43.3-57.8-43.3-96 0-58.1 38.8-107.2 91.9-122.8l0-29.2 32 0z"/></svg>