<svg xmlns="http://www.w3.org/2000/svg" viewBox="0 0 448 512"><!--! Font Awesome Pro 7.0.1 by @fontawesome - https://fontawesome.com License - https://fontawesome.com/license (Commercial License) Copyright 2025 Fonticons, Inc. --><path style="fill:var(--fa-secondary-color,currentColor);opacity:var(--fa-secondary-opacity,.4)" d="M32 64l384 0 0 384-384 0 0-384zm128 96l0 192 32 0 0-48 40 0c39.8 0 72-32.2 72-72s-32.2-72-72-72l-72 0zm32 32l40 0c22.1 0 40 17.9 40 40s-17.9 40-40 40l-40 0 0-80z"/><path style="fill:var(--fa-primary-color,currentColor);opacity:var(--fa-primary-opacity,1)" d="M32 64l0 384 384 0 0-384-384 0zM0 32l448 0 0 448-448 0 0-448zM176 160l56 0c39.8 0 72 32.2 72 72s-32.2 72-72 72l-40 0 0 48-32 0 0-192 16 0zm56 112c22.1 0 40-17.9 40-40s-17.9-40-40-40l-40 0 0 80 40 0z"/></svg>