<svg xmlns="http://www.w3.org/2000/svg" viewBox="0 0 576 512"><!--! Font Awesome Pro 7.1.0 by @fontawesome - https://fontawesome.com License - https://fontawesome.com/license (Commercial License) Copyright 2025 Fonticons, Inc. --><path opacity=".4" fill="currentColor" d=""/><path fill="currentColor" d="M411.4 372.7l-11.3-11.3-22.6 22.6 11.3 11.3 91.3 91.3 91.3-91.3 11.3-11.3-22.6-22.6-11.3 11.3-52.7 52.7 0-338.7 52.7 52.7 11.3 11.3 22.6-22.6-11.3-11.3-80-80-11.3-11.3-11.3 11.3-80 80-11.3 11.3 22.6 22.6 11.3-11.3 52.7-52.7 0 338.7-52.7-52.7zM16.1 32l-16 0 0 128 32 0 0-96 112 0 0 384-80 0 0 32 192 0 0-32-80 0 0-384 112 0 0 96 32 0 0-128-304 0z"/></svg>