<svg xmlns="http://www.w3.org/2000/svg" viewBox="0 0 576 512"><!--! Font Awesome Pro 7.0.1 by @fontawesome - https://fontawesome.com License - https://fontawesome.com/license (Commercial License) Copyright 2025 Fonticons, Inc. --><path style="fill:var(--fa-secondary-color,currentColor);opacity:var(--fa-secondary-opacity,.4)" d="M80 48l96 0 0 96-96 0 0-96zM240 368l96 0 0 96-96 0 0-96zM400 48l96 0 0 96-96 0 0-96z"/><path style="fill:var(--fa-primary-color,currentColor);opacity:var(--fa-primary-opacity,1)" d="M176 48l0 96-96 0 0-96 96 0zM80 16l-32 0 0 160 64 0 0 80-112 0 0 32 272 0 0 48-64 0 0 160 160 0 0-160-64 0 0-48 272 0 0-32-112 0 0-80 64 0 0-160-160 0 0 160 64 0 0 80-288 0 0-80 64 0 0-160-128 0zM400 48l96 0 0 96-96 0 0-96zM336 368l0 96-96 0 0-96 96 0z"/></svg>