<svg xmlns="http://www.w3.org/2000/svg" viewBox="0 0 448 512"><!--! Font Awesome Pro 7.1.0 by @fontawesome - https://fontawesome.com License - https://fontawesome.com/license (Commercial License) Copyright 2025 Fonticons, Inc. --><path opacity=".4" fill="currentColor" d="M64 192l0 288 320 0 0-288c0-88.4-71.6-160-160-160S64 103.6 64 192z"/><path fill="currentColor" d="M384 192c0-88.4-71.6-160-160-160S64 103.6 64 192l0 288 320 0 0-288zM32 480l0-288C32 86 118 0 224 0S416 86 416 192l0 288 32 0 0 32-448 0 0-32 32 0z"/></svg>