<svg xmlns="http://www.w3.org/2000/svg" viewBox="0 0 512 512"><!--! Font Awesome Pro 7.0.1 by @fontawesome - https://fontawesome.com License - https://fontawesome.com/license (Commercial License) Copyright 2025 Fonticons, Inc. --><path style="fill:var(--fa-secondary-color,currentColor);opacity:var(--fa-secondary-opacity,.4)" d=""/><path style="fill:var(--fa-primary-color,currentColor);opacity:var(--fa-primary-opacity,1)" d="M128 0l256 0 0 96 48 0 80 80 0 304-512 0 0-304 80-80 48 0 0-96zM352 32l-192 0 0 64 192 0 0-64zM93.3 128l-61.3 61.3 0 98.7 112 0 0-48 32 0 0 48 160 0 0-48 32 0 0 48 112 0 0-98.7-61.3-61.3-325.5 0zM32 320l0 128 448 0 0-128-112 0 0 48-32 0 0-48-160 0 0 48-32 0 0-48-112 0z"/></svg>