<svg xmlns="http://www.w3.org/2000/svg" viewBox="0 0 384 512"><!--! Font Awesome Pro 7.1.0 by @fontawesome - https://fontawesome.com License - https://fontawesome.com/license (Commercial License) Copyright 2025 Fonticons, Inc. --><path opacity=".4" fill="currentColor" d="M32 416l0 96 64 0 0-96-64 0zM96 96l0 288 192 0 0-288-192 0zm32 320l0 96 128 0 0-96-128 0zm160 0l0 96 64 0 0-96-64 0z"/><path fill="currentColor" d="M160 64l64 0 0-96 32 0 0 96 64 0 0 320 64 0 0 160-384 0 0-160 64 0 0-320 64 0 0-96 32 0 0 96zM32 512l64 0 0-96-64 0 0 96zm96 0l128 0 0-96-128 0 0 96zm160 0l64 0 0-96-64 0 0 96zM96 384l192 0 0-288-192 0 0 288z"/></svg>