<svg xmlns="http://www.w3.org/2000/svg" viewBox="0 0 576 512"><!--! Font Awesome Pro 7.0.1 by @fontawesome - https://fontawesome.com License - https://fontawesome.com/license (Commercial License) Copyright 2025 Fonticons, Inc. --><path style="fill:var(--fa-secondary-color,currentColor);opacity:var(--fa-secondary-opacity,.4)" d="M70 448L288 50.5 506 448 70 448zM264 176l12.8 144 22.4 0 12.8-144-48 0zm4 180l0 40 40 0 0-40-40 0z"/><path style="fill:var(--fa-primary-color,currentColor);opacity:var(--fa-primary-opacity,1)" d="M560 480L16 480 288-16 560 480zM70 448L506 448 288 50.5 70 448zm238-52l-40 0 0-40 40 0 0 40zm-8.8-76l-22.4 0-12.8-144 48 0-12.8 144z"/></svg>