<svg xmlns="http://www.w3.org/2000/svg" viewBox="0 0 576 512"><!--! Font Awesome Pro 7.1.0 by @fontawesome - https://fontawesome.com License - https://fontawesome.com/license (Commercial License) Copyright 2025 Fonticons, Inc. --><path opacity=".4" fill="currentColor" d="M77.2 128l50.8 0 0 176c0 94.2 74 171.1 166.9 175.8l9.1 .2c97.2 0 176-78.8 176-176l0-208-64 0 0 208c0 61.8-50.2 112-112 112l-5.8-.2C239.1 412.8 192 363.9 192 304l0-176 50.8 0-82.8-82.8-82.8 82.8z"/><path fill="currentColor" d="M0 160l96 0 0 144c0 114.9 93.1 208 208 208s208-93.1 208-208l0-240-128 0 0 240c0 44.2-35.8 80-80 80s-80-35.8-80-80l0-144 96 0-160-160-160 160zm242.8-32l-50.8 0 0 176c0 59.9 47.1 108.8 106.2 111.8l5.8 .2c61.8 0 112-50.2 112-112l0-208 64 0 0 208c0 97.2-78.8 176-176 176l-9.1-.2C202 475.1 128 398.2 128 304l0-176-50.8 0 82.8-82.8 82.8 82.8z"/></svg>