<svg xmlns="http://www.w3.org/2000/svg" viewBox="0 0 448 512"><!--! Font Awesome Pro 7.1.0 by @fontawesome - https://fontawesome.com License - https://fontawesome.com/license (Commercial License) Copyright 2025 Fonticons, Inc. --><path opacity=".4" fill="currentColor" d="M32.4 512l26.7-160 49.4 0c33.7 20.3 73.2 32 115.4 32s81.7-11.7 115.4-32l49.4 0 26.7 160-63.6 0 0-96-256 0 0 96-63.6 0zM80 160c0-75.3 57.9-137.2 131.6-143.5 4.1-.3 8.3-.5 12.4-.5s8.3 .2 12.4 .5C310.1 22.8 368 84.7 368 160 368 239.5 303.5 304 224 304S80 239.5 80 160zm24 16c0 53 43 96 96 96l48 0c53 0 96-43 96-96s-43-96-96-96l-48 0c-53 0-96 43-96 96z"/><path fill="currentColor" d="M224 16a144 144 0 1 1 0 288 144 144 0 1 1 0-288zm0 320a176 176 0 1 0 0-352 176 176 0 1 0 0 352zM67.2 320l-35.2 0-32 192 32.4 0 26.7-160 49.4 0c-15-9-28.9-19.8-41.3-32zm272.2 32l49.4 0 26.7 160 32.4 0-32-192-35.2 0c-12.4 12.2-26.3 23-41.3 32zM136 176c0-35.3 28.7-64 64-64l48 0c35.3 0 64 28.7 64 64s-28.7 64-64 64l-48 0c-35.3 0-64-28.7-64-64zm-32 0c0 53 43 96 96 96l48 0c53 0 96-43 96-96s-43-96-96-96l-48 0c-53 0-96 43-96 96zM0 96l0 128 32 0 0-128-32 0zm448 0l-32 0 0 128 32 0 0-128zM352 416l-256 0 0 96 32 0 0-64 192 0 0 64 32 0 0-96zM192 464l-32 0 0 48 32 0 0-48zm64 0l0 48 32 0 0-48-32 0zM200 136L186.7 162.7 160 176 186.7 189.3 200 216 213.3 189.3 240 176 213.3 162.7 200 136z"/></svg>