<svg xmlns="http://www.w3.org/2000/svg" viewBox="0 0 448 512"><!--! Font Awesome Pro 7.1.0 by @fontawesome - https://fontawesome.com License - https://fontawesome.com/license (Commercial License) Copyright 2025 Fonticons, Inc. --><path opacity=".4" fill="currentColor" d="M33.5 512l381 0-14.8-48 3.4 0-12.8-48-5.3 0-12-38.9 5.2-6.3-13.6-50.8-6.5 0-13.3 16-40.8 0 0-16-48 0 0 16-64 0 0-16-48 0 0 16-40.8 0-13.3-16-6.5 0-13.6 50.8 5.2 6.3-12 38.9-5.3 0-12.8 48 3.4 0-14.8 48zM112 128c0 8.2 .9 16.3 2.6 24l16.4 0c4.4 17.2 13.5 32.5 25.7 44.5l-8.2 14.2c11.8 10.8 25.9 19.1 41.6 24l8.2-14.2c8.2 2.3 16.8 3.5 25.7 3.5s17.5-1.2 25.7-3.5l8.2 14.2c15.6-5 29.7-13.2 41.6-24l-8.2-14.2c12.3-12 21.3-27.3 25.7-44.5l16.4 0c1.7-7.7 2.6-15.8 2.6-24s-.9-16.3-2.6-24L317 104c-4.4-17.2-13.5-32.5-25.7-44.5l8.2-14.2c-11.8-10.8-25.9-19.1-41.6-24l-8.2 14.2C241.5 33.2 232.9 32 224 32s-17.5 1.2-25.7 3.5l-8.2-14.2c-15.6 5-29.7 13.2-41.6 24l8.2 14.2c-12.3 12-21.3 27.3-25.7 44.5l-16.4 0c-1.7 7.7-2.6 15.8-2.6 24z"/><path fill="currentColor" d="M224 256c14.7 0 28.9-2.5 42.1-7.1l-16.4-28.4c-8.2 2.3-16.8 3.5-25.7 3.5s-17.5-1.2-25.7-3.5l-16.4 28.4c13.2 4.6 27.4 7.1 42.1 7.1zm-83.7-31.1l16.4-28.4c-12.3-12-21.3-27.3-25.7-44.5l-32.8 0c5.5 28.9 20.7 54.4 42.1 72.9zM317 104l32.8 0c-5.5-28.9-20.7-54.4-42.1-72.9L291.3 59.5c12.3 12 21.3 27.3 25.7 44.5zM249.7 35.5L266.1 7.1C252.9 2.5 238.7 0 224 0s-28.9 2.5-42.1 7.1l16.4 28.4c8.2-2.3 16.8-3.5 25.7-3.5s17.5 1.2 25.7 3.5zM349.8 152L317 152c-4.4 17.2-13.5 32.5-25.7 44.5l16.4 28.4c21.4-18.5 36.6-44 42.1-72.9zM131 104c4.4-17.2 13.5-32.5 25.7-44.5L140.3 31.1c-21.4 18.5-36.6 44-42.1 72.9l32.8 0zM75 377.1l-24.5-29.3-21 68.3 33.5 0 12-38.9zM48.2 464l-33.5 0-14.8 48 33.5 0 14.8-48zM76.6 304l26.7 32 40.8 0 0-32-67.4 0zM192 304l0 32 64 0 0-32-64 0zm112 0l0 32 40.8 0 26.7-32-67.4 0zm93.5 43.7l-24.5 29.3 12 38.9 33.5 0-21-68.3zM433.2 464l-33.5 0 14.8 48 33.5 0-14.8-48z"/></svg>