<svg xmlns="http://www.w3.org/2000/svg" viewBox="0 0 576 512"><!--! Font Awesome Pro 7.1.0 by @fontawesome - https://fontawesome.com License - https://fontawesome.com/license (Commercial License) Copyright 2025 Fonticons, Inc. --><path opacity=".4" fill="currentColor" d="M32 133.9l0 26.1 512 0 0-26.1-256-99.6-256 99.6zM128 288l0 192 320 0 0-96-160 0 0-96-160 0z"/><path fill="currentColor" d="M544 192l-512 0 0 320-32 0 0-400 288-112 288 112 0 400-32 0 0-320zm0-32l0-26.1-256-99.6-256 99.6 0 26.1 512 0zM112 256l208 0 0 96 160 0 0 160-384 0 0-256 16 0zm16 224l320 0 0-96-160 0 0-96-160 0 0 192z"/></svg>