<svg xmlns="http://www.w3.org/2000/svg" viewBox="0 0 576 512"><!--! Font Awesome Pro 7.0.1 by @fontawesome - https://fontawesome.com License - https://fontawesome.com/license (Commercial License) Copyright 2025 Fonticons, Inc. --><path style="fill:var(--fa-secondary-color,currentColor);opacity:var(--fa-secondary-opacity,.4)" d=""/><path style="fill:var(--fa-primary-color,currentColor);opacity:var(--fa-primary-opacity,1)" d="M272.2 13.4l2.2-13.4 27.1 0 2.2 13.4 63.6 381.5 48.8-317.3 2.1-13.6 26.7 0 2.7 12.6 45.3 211.4 67.1 0 0 32-92.9 0-2.7-12.6-29.8-138.9-50.8 330-2.1 13.6-27.3 0-2.2-13.4-64.2-385.3-64.2 385.3-2.2 13.4-27.3 0-2.1-13.6-50.8-330-29.8 138.9-2.7 12.6-92.9 0 0-32 67.1 0 45.3-211.4 2.7-12.6 26.7 0 2.1 13.6 48.8 317.3 63.6-381.5z"/></svg>