<svg xmlns="http://www.w3.org/2000/svg" viewBox="0 0 360 540"><!--! Font Awesome Pro 7.1.0 by @fontawesome - https://fontawesome.com License - https://fontawesome.com/license (Commercial License) Copyright 2025 Fonticons, Inc. --><path fill="currentColor" d="M114.2 378L39.1 302.9c-20.6-20.6-26.8-51.6-15.6-78.5S60.9 180 90 180l18 0 0-54c0-39.8 32.2-72 72-72s72 32.2 72 72l0 54 18 0c29.1 0 55.4 17.5 66.5 44.4s5 57.9-15.6 78.5L245.8 378 288 378c39.8 0 72 32.2 72 72s-32.2 72-72 72L72 522c-39.8 0-72-32.2-72-72s32.2-72 72-72l42.2 0zM303.3 238.2C297.7 224.8 284.6 216 270 216l-36 0c-9.9 0-18-8.1-18-18l0-72c0-19.9-16.1-36-36-36s-36 16.1-36 36l0 72c0 9.8-8.2 18-18 18l-36 0c-14.6 0-27.7 8.8-33.3 22.2s-2.5 28.9 7.8 39.2l90 90c7 7 16.2 10.5 25.4 10.5 9.2 0 18.5-3.5 25.5-10.5l90-90c10.3-10.3 13.4-25.8 7.8-39.2zM288 486c19.9 0 36-16.1 36-36s-16.1-36-36-36L72 414c-19.9 0-36 16.1-36 36s16.1 36 36 36l216 0z"/></svg>