<svg xmlns="http://www.w3.org/2000/svg" viewBox="0 0 504 540"><!--! Font Awesome Pro 7.1.0 by @fontawesome - https://fontawesome.com License - https://fontawesome.com/license (Commercial License) Copyright 2025 Fonticons, Inc. --><path fill="currentColor" d="M288 288a36 36 0 1 1 -72 0 36 36 0 1 1 72 0zm18.7 133.2c10.8 12.6 17.3 28.9 17.3 46.8 0 39.8-32.2 72-72 72-139.2 0-252-112.8-252-252S112.8 36 252 36 504 148.8 504 288c0 69.6-56.4 126-126 126-15.7 0-30.9-1.2-45.9-6.3-7.9 5.3-16.4 9.9-25.3 13.5zM252 72C132.7 72 36 168.7 36 288s96.7 216 216 216c19.9 0 36-16.1 36-36s-16.1-36-36-36c-79.5 0-144-64.5-144-144s64.5-144 144-144 144 64.5 144 144c0 9.9-8.1 18-18 18s-18-8.1-18-18c0-59.6-48.4-108-108-108s-108 48.4-108 108 48.4 108 108 108c25.1 0 48.1-8.5 66.4-22.8 5.2-4.1 12.3-5 18.4-2.3 13.2 5.9 26.9 7.1 41.2 7.1 49.7 0 90-40.3 90-90 0-119.3-96.7-216-216-216z"/></svg>