<svg xmlns="http://www.w3.org/2000/svg" viewBox="0 0 504 540"><!--! Font Awesome Pro 7.1.0 by @fontawesome - https://fontawesome.com License - https://fontawesome.com/license (Commercial License) Copyright 2025 Fonticons, Inc. --><path fill="currentColor" d="M0 162c0-39.8 32.2-72 72-72l360 0c39.8 0 72 32.2 72 72 0 27.1-15 50.7-37.1 63 22.1 12.3 37.1 35.9 37.1 63s-15 50.7-37.1 63c22.1 12.3 37.1 35.9 37.1 63 0 39.8-32.2 72-72 72L72 486C32.2 486 0 453.8 0 414 0 386.9 15 363.3 37.1 351 15 338.7 0 315.1 0 288s15-50.7 37.1-63C15 212.7 0 189.1 0 162zm72-36c-19.9 0-36 16.1-36 36s16.1 36 36 36l360 0c19.9 0 36-16.1 36-36s-16.1-36-36-36L72 126zm0 126c-19.9 0-36 16.1-36 36s16.1 36 36 36l360 0c19.9 0 36-16.1 36-36s-16.1-36-36-36L72 252zm0 126c-19.9 0-36 16.1-36 36s16.1 36 36 36l360 0c19.9 0 36-16.1 36-36s-16.1-36-36-36L72 378z"/></svg>