<svg xmlns="http://www.w3.org/2000/svg" viewBox="0 0 396 540"><!--! Font Awesome Pro 7.1.0 by @fontawesome - https://fontawesome.com License - https://fontawesome.com/license (Commercial License) Copyright 2025 Fonticons, Inc. --><path fill="currentColor" d="M159.8 63c20.7-25.9 56.5-34.3 86.6-20.3s46.7 46.8 40.2 79.4L267.8 216 324 216c27.7 0 52.9 15.9 64.9 40.8s8.6 54.6-8.7 76.2l-144 180c-20.7 25.9-56.5 34.3-86.6 20.3s-46.7-46.8-40.2-79.4L128.2 360 72 360c-27.7 0-52.9-15.9-64.9-40.8s-8.6-54.6 8.7-76.2l144-180zm71.4 12.3c-15.1-7-32.9-2.8-43.3 10.1l-144 180c-8.6 10.8-10.3 25.6-4.3 38.1S58.2 324 72 324l78.1 0c5.4 0 10.5 2.4 13.9 6.6s4.8 9.7 3.7 14.9L144.7 460.9c-3.3 16.3 5 32.7 20.1 39.7s32.9 2.8 43.3-10.1l144-180c8.6-10.8 10.3-25.6 4.3-38.1S337.8 252 324 252l-78.1 0c-5.4 0-10.5-2.4-13.9-6.6s-4.8-9.7-3.7-14.9l23.1-115.4c3.3-16.3-5-32.7-20.1-39.7z"/></svg>