<svg xmlns="http://www.w3.org/2000/svg" viewBox="0 0 504 540"><!--! Font Awesome Pro 7.1.0 by @fontawesome - https://fontawesome.com License - https://fontawesome.com/license (Commercial License) Copyright 2025 Fonticons, Inc. --><path fill="currentColor" d="M198 270c-9.9 0-18 8.1-18 18s8.1 18 18 18l108 0c9.9 0 18-8.1 18-18s-8.1-18-18-18l-108 0zM0 144c0-39.8 32.2-72 72-72l360 0c39.8 0 72 32.2 72 72 0 26.7-14.5 49.9-36 62.4L468 432c0 39.8-32.2 72-72 72l-288 0c-39.8 0-72-32.2-72-72l0-225.6C14.5 193.9 0 170.7 0 144zm468 0c0-19.9-16.1-36-36-36L72 108c-19.9 0-36 16.1-36 36s16.1 36 36 36l360 0c19.9 0 36-16.1 36-36zM72 432c0 19.9 16.1 36 36 36l288 0c19.9 0 36-16.1 36-36l0-216-360 0 0 216z"/></svg>