<svg xmlns="http://www.w3.org/2000/svg" viewBox="0 0 504 540"><!--! Font Awesome Pro 7.1.0 by @fontawesome - https://fontawesome.com License - https://fontawesome.com/license (Commercial License) Copyright 2025 Fonticons, Inc. --><path fill="currentColor" d="M252 162a108 108 0 1 0 0 216 108 108 0 1 0 0-216zm72 108a72 72 0 1 1 -144 0 72 72 0 1 1 144 0zM0 198L0 396c0 39.8 32.2 72 72 72l360 0c39.8 0 72-32.2 72-72l0-198c0-39.8-32.2-72-72-72l-13.6 0c-9.5 0-18.7-3.8-25.5-10.5L352.5 75.1C339 61.6 320.7 54 301.6 54l-99.3 0c-19.1 0-37.4 7.6-50.9 21.1l-40.4 40.4c-6.8 6.8-15.9 10.5-25.5 10.5L72 126c-39.8 0-72 32.2-72 72zM36 396l0-198c0-19.9 16.1-36 36-36l13.6 0c19.1 0 37.4-7.6 50.9-21.1l40.4-40.4c6.8-6.8 15.9-10.5 25.5-10.5l99.3 0c9.5 0 18.7 3.8 25.5 10.5l40.4 40.4C381 154.4 399.3 162 418.4 162l13.6 0c19.9 0 36 16.1 36 36l0 198c0 19.9-16.1 36-36 36L72 432c-19.9 0-36-16.1-36-36z"/></svg>