<svg xmlns="http://www.w3.org/2000/svg" viewBox="0 0 360 540"><!--! Font Awesome Pro 7.1.0 by @fontawesome - https://fontawesome.com License - https://fontawesome.com/license (Commercial License) Copyright 2025 Fonticons, Inc. --><path fill="currentColor" d="M108 234c-9.9 0-18 8.1-18 18s8.1 18 18 18l144 0c9.9 0 18-8.1 18-18s-8.1-18-18-18l-144 0zM90 324c0-9.9 8.1-18 18-18l144 0c9.9 0 18 8.1 18 18s-8.1 18-18 18l-144 0c-9.9 0-18-8.1-18-18zm18 54c-9.9 0-18 8.1-18 18s8.1 18 18 18l144 0c9.9 0 18-8.1 18-18s-8.1-18-18-18l-144 0zM288 90l-20.3 0c-8-31.1-36.2-54-69.7-54l-36 0c-33.5 0-61.7 22.9-69.7 54L72 90C32.2 90 0 122.2 0 162L0 450c0 39.8 32.2 72 72 72l216 0c39.8 0 72-32.2 72-72l0-288c0-39.8-32.2-72-72-72zM72 126l20.3 0c8 31.1 36.2 54 69.7 54l36 0c33.5 0 61.7-22.9 69.7-54l20.3 0c19.9 0 36 16.1 36 36l0 288c0 19.9-16.1 36-36 36L72 486c-19.9 0-36-16.1-36-36l0-288c0-19.9 16.1-36 36-36zm90-54l36 0c19.9 0 36 16.1 36 36s-16.1 36-36 36l-36 0c-19.9 0-36-16.1-36-36s16.1-36 36-36z"/></svg>