<svg xmlns="http://www.w3.org/2000/svg" viewBox="0 0 504 540"><!--! Font Awesome Pro 7.1.0 by @fontawesome - https://fontawesome.com License - https://fontawesome.com/license (Commercial License) Copyright 2025 Fonticons, Inc. --><path fill="currentColor" d="M288 324c-9.9 0-18 8.1-18 18s8.1 18 18 18l90 0c9.9 0 18-8.1 18-18s-8.1-18-18-18l-90 0zM72 90C32.2 90 0 122.2 0 162L0 414c0 39.8 32.2 72 72 72l360 0c39.8 0 72-32.2 72-72l0-252c0-39.8-32.2-72-72-72L72 90zM468 198l-432 0 0-36c0-19.9 16.1-36 36-36l360 0c19.9 0 36 16.1 36 36l0 36zM36 234l432 0 0 180c0 19.9-16.1 36-36 36L72 450c-19.9 0-36-16.1-36-36l0-180z"/></svg>