<svg xmlns="http://www.w3.org/2000/svg" viewBox="0 0 504 540"><!--! Font Awesome Pro 7.1.0 by @fontawesome - https://fontawesome.com License - https://fontawesome.com/license (Commercial License) Copyright 2025 Fonticons, Inc. --><path fill="currentColor" d="M126 306c-9.9 0-18 8.1-18 18s8.1 18 18 18l252 0c9.9 0 18-8.1 18-18s-8.1-18-18-18l-252 0zm0-90c0-9.9 8.1-18 18-18l72 0c9.9 0 18 8.1 18 18s-8.1 18-18 18l-72 0c-9.9 0-18-8.1-18-18zm162-18c-9.9 0-18 8.1-18 18s8.1 18 18 18l72 0c9.9 0 18-8.1 18-18s-8.1-18-18-18l-72 0zM252 36a252 252 0 1 0 0 504 252 252 0 1 0 0-504zM468 288a216 216 0 1 1 -432 0 216 216 0 1 1 432 0z"/></svg>