<svg xmlns="http://www.w3.org/2000/svg" viewBox="0 0 396 540"><!--! Font Awesome Pro 7.1.0 by @fontawesome - https://fontawesome.com License - https://fontawesome.com/license (Commercial License) Copyright 2025 Fonticons, Inc. --><path fill="currentColor" d="M108 108c0-39.8 32.2-72 72-72l85.6 0c19.1 0 37.4 7.6 50.9 21.1l58.4 58.4C388.4 129 396 147.3 396 166.4L396 360c0 39.8-32.2 72-72 72l-36 0 0 36c0 39.8-32.2 72-72 72L72 540c-39.8 0-72-32.2-72-72L0 216c0-39.8 32.2-72 72-72l36 0 0-36zm72-36c-19.9 0-36 16.1-36 36l0 252c0 19.9 16.1 36 36 36l144 0c19.9 0 36-16.1 36-36l0-162-54 0c-39.8 0-72-32.2-72-72l0-54-54 0zm90 .3l0 53.7c0 19.9 16.1 36 36 36l53.7 0c-1-7.9-4.6-15.4-10.3-21.1L291.1 82.5c-5.7-5.7-13.2-9.3-21.1-10.3zM180 432c-39.8 0-72-32.2-72-72l0-180-36 0c-19.9 0-36 16.1-36 36l0 252c0 19.9 16.1 36 36 36l144 0c19.9 0 36-16.1 36-36l0-36-72 0z"/></svg>