<svg xmlns="http://www.w3.org/2000/svg" viewBox="0 0 360 540"><!--! Font Awesome Pro 7.1.0 by @fontawesome - https://fontawesome.com License - https://fontawesome.com/license (Commercial License) Copyright 2025 Fonticons, Inc. --><path fill="currentColor" d="M0 126C0 86.2 32.2 54 72 54l108 0c16.3 0 31.9 6.5 43.5 18L342 190.5c11.5 11.5 18 27.2 18 43.5l0 216c0 39.8-32.2 72-72 72L72 522c-39.8 0-72-32.2-72-72L0 126zM72 90c-19.9 0-36 16.1-36 36l0 324c0 19.9 16.1 36 36 36l216 0c19.9 0 36-16.1 36-36l0-198-90 0c-39.8 0-72-32.2-72-72l0-90-90 0zM316.5 216L198 97.5 198 180c0 19.9 16.1 36 36 36l82.5 0z"/></svg>