<svg xmlns="http://www.w3.org/2000/svg" viewBox="0 0 468 540"><!--! Font Awesome Pro 7.1.0 by @fontawesome - https://fontawesome.com License - https://fontawesome.com/license (Commercial License) Copyright 2025 Fonticons, Inc. --><path fill="currentColor" d="M168.9 77.2C180.9 52 206.2 36 234 36s53.2 16 65.1 41.2l162 342c17 35.9 1.7 78.9-34.2 95.9s-78.9 1.7-95.9-34.2l-31.7-66.8-130.6 0-31.7 66.8c-17 35.9-60 51.3-95.9 34.2s-51.3-60-34.2-95.9l162-342zM234 72c-13.9 0-26.6 8-32.5 20.6l-162 342c-8.5 18-.8 39.4 17.1 47.9s39.4 .8 47.9-17.1l36.5-77.1c3-6.3 9.3-10.3 16.3-10.3l153.3 0c7 0 13.3 4 16.3 10.3l36.5 77.1c8.5 18 30 25.6 47.9 17.1s25.6-30 17.1-47.9l-162-342C260.6 80 247.9 72 234 72zm16.3 154.4l25.5 53.9c5.6 11.7-3.3 25.7-16.3 25.7l-51 0c-13 0-21.8-14-16.3-25.7l25.5-53.9c6.4-13.5 26.2-13.5 32.5 0z"/></svg>