<svg xmlns="http://www.w3.org/2000/svg" viewBox="0 0 360 540"><!--! Font Awesome Pro 7.1.0 by @fontawesome - https://fontawesome.com License - https://fontawesome.com/license (Commercial License) Copyright 2025 Fonticons, Inc. --><path fill="currentColor" d="M131.7 173.1c2.8-6.7 9.4-11.1 16.6-11.1l63.3 0c7.3 0 13.8 4.4 16.6 11.1s1.2 14.5-3.9 19.6l-31.6 31.6c-3.4 3.4-8 5.3-12.7 5.3s-9.4-1.9-12.7-5.3l-31.6-31.6c-5.1-5.1-6.7-12.9-3.9-19.6zM180 346.4c4.8 0 9.4 1.9 12.7 5.3l31.6 31.6c5.1 5.1 6.7 12.9 3.9 19.6S218.9 414 211.6 414l-63.3 0c-7.3 0-13.8-4.4-16.6-11.1s-1.2-14.5 3.9-19.6l31.6-31.6c3.4-3.4 8-5.3 12.7-5.3zM0 126C0 86.2 32.2 54 72 54l216 0c39.8 0 72 32.2 72 72 0 53.7-21.3 105.1-59.3 143.1l-18.9 18.9 18.9 18.9c38 38 59.3 89.4 59.3 143.1 0 39.8-32.2 72-72 72L72 522c-39.8 0-72-32.5-72-72.1 0-53.6 21.3-105.1 59.3-143L78.2 288 59.3 269.1C21.3 231.1 0 179.7 0 126zM72 90c-19.9 0-36 16.1-36 36 0 44.1 17.5 86.4 48.7 117.6l31.6 31.6c6.9 6.9 6.9 18.5 0 25.5L84.7 332.4C53.5 363.5 36 405.8 36 450 36 470.1 52.2 486 72 486l216 0c19.9 0 36-16.1 36-36 0-44.1-17.5-86.4-48.7-117.6l-31.6-31.6c-7-7-7-18.4 0-25.5l31.6-31.6c31.2-31.2 48.7-73.5 48.7-117.6 0-19.9-16.1-36-36-36L72 90z"/></svg>