<svg xmlns="http://www.w3.org/2000/svg" viewBox="0 0 468 540"><!--! Font Awesome Pro 7.1.0 by @fontawesome - https://fontawesome.com License - https://fontawesome.com/license (Commercial License) Copyright 2025 Fonticons, Inc. --><path fill="currentColor" d="M174 82.6c60.7-13.9 142.7-28.6 222-28.6 39.8 0 72 32.2 72 72 0 79.4-14.6 161.4-28.6 222-22.2 96.5-109.3 156-201.2 156-33.8 0-66.8-6.4-97.3-21.1l-18 18C94.8 529 49.2 529 21.1 500.9 7 486.9 0 468.4 0 450 0 425.8 12.4 407.8 28.7 391.4 21.8 370.2 18 347.5 18 324l0-40.2c0-91.9 59.5-179 156-201.2zM432 126c0-3.2-.4-6.4-1.2-9.3L313.5 234 424 234c4.8-35.1 8-72 8-108zM288 208.5L405.3 91.2c-3-.8-6.1-1.2-9.3-1.2-36 0-72.9 3.2-108 8l0 110.5zm-36 36l0-141c-24.1 4.1-48.2 8.8-72 14.6l0 198.4 72-72zM205.5 342l198.4 0c5.8-23.8 10.4-47.9 14.6-72l-141 0-72 72zm-36 36l-30.7 30.7c-7 7-18.4 7-25.5 0s-7-18.4 0-25.5l30.7-30.7 0-221c-58.4 30.1-90 92.1-90 156.4 0 31.9 8.3 61.8 22.8 87.8 3.9 7 2.7 15.8-3 21.5L46.5 424.5c-14.1 14.1-14.1 36.9 0 50.9s36.9 14.1 50.9 0l27.3-27.3c5.7-5.7 14.5-6.9 21.5-3 28.3 15.8 59.7 22.8 92 22.8 63.7 0 123.3-33.9 152.2-90l-221 0z"/></svg>