<svg xmlns="http://www.w3.org/2000/svg" viewBox="0 0 360 540"><!--! Font Awesome Pro 7.1.0 by @fontawesome - https://fontawesome.com License - https://fontawesome.com/license (Commercial License) Copyright 2025 Fonticons, Inc. --><path fill="currentColor" d="M126 216c0-29.8 24.2-54 54-54 9.9 0 18-8.1 18-18s-8.1-18-18-18c-49.7 0-90 40.3-90 90 0 9.9 8.1 18 18 18s18-8.1 18-18zM0 216C0 116.6 80.6 36 180 36s180 80.6 180 180c0 59.1-23 106.7-58.6 151.9-19.1 24.2-31.4 39.8-31.4 64.1l0 18c0 49.7-40.3 90-90 90s-90-40.3-90-90l0-18C90 407.7 77.7 392.1 58.6 367.9 23 322.7 0 275.1 0 216zm36 0c0 50.1 19.4 90.2 49.9 128.2 8.4 10.5 17.2 21.5 24.5 33.8l139.3 0c7.2-12.3 16.1-23.3 24.5-33.8 30.5-38 49.9-78.2 49.9-128.2 0-79.5-64.5-144-144-144S36 136.5 36 216zm90 216l0 18c0 29.8 24.2 54 54 54s54-24.2 54-54l0-18c0-6.3 .6-12.3 1.7-18l-111.3 0c1.1 5.7 1.7 11.7 1.7 18z"/></svg>