<svg xmlns="http://www.w3.org/2000/svg" viewBox="0 0 504 540"><!--! Font Awesome Pro 7.1.0 by @fontawesome - https://fontawesome.com License - https://fontawesome.com/license (Commercial License) Copyright 2025 Fonticons, Inc. --><path fill="currentColor" d="M180 90c-21.5 0-40.8 9.4-54 24.4-13.2-14.9-32.5-24.4-54-24.4-39.8 0-72 32.2-72 72 0 27.1 15 50.7 37.1 63-22.1 12.3-37.1 35.9-37.1 63s15 50.7 37.1 63c-22.1 12.3-37.1 35.9-37.1 63 0 39.8 32.2 72 72 72 21.5 0 40.8-9.4 54-24.4 13.2 14.9 32.5 24.4 54 24.4l252 0c39.8 0 72-32.2 72-72 0-27.1-15-50.7-37.1-63 22.1-12.3 37.1-35.9 37.1-63s-15-50.7-37.1-63c22.1-12.3 37.1-35.9 37.1-63 0-39.8-32.2-72-72-72L180 90zM144 414c0-19.9 16.1-36 36-36l252 0c19.9 0 36 16.1 36 36s-16.1 36-36 36l-252 0c-19.9 0-36-16.1-36-36zM72 198a36 36 0 1 1 0-72 36 36 0 1 1 0 72zm72 90c0-19.9 16.1-36 36-36l252 0c19.9 0 36 16.1 36 36s-16.1 36-36 36l-252 0c-19.9 0-36-16.1-36-36zM36 288a36 36 0 1 1 72 0 36 36 0 1 1 -72 0zM144 162c0-19.9 16.1-36 36-36l252 0c19.9 0 36 16.1 36 36s-16.1 36-36 36l-252 0c-19.9 0-36-16.1-36-36zM108 414a36 36 0 1 1 -72 0 36 36 0 1 1 72 0z"/></svg>