<svg xmlns="http://www.w3.org/2000/svg" viewBox="0 0 504 540"><!--! Font Awesome Pro 7.1.0 by @fontawesome - https://fontawesome.com License - https://fontawesome.com/license (Commercial License) Copyright 2025 Fonticons, Inc. --><path fill="currentColor" d="M483.4 417.1l-48.8-48.8c21.5-33.6 33.9-73.4 33.9-116.3 0-39.8-32.2-72-72-72-13.1 0-25.4 3.5-36 9.6l0-45.6c0-59.6-48.4-108-108-108-40.7 0-76.1 22.5-94.5 55.7L123.4 57.1C95.3 29 49.7 29 21.6 57.1s-28.1 73.7 0 101.8l39.2 39.2c-14.9 13.2-24.3 32.5-24.3 53.9 0 94.1 60.1 174.1 144 203.7l0 12.3c0 39.8 32.2 72 72 72s72-32.2 72-72l0-6.2 57.1 57.1c28.1 28.1 73.7 28.1 101.8 0s28.1-73.7 0-101.8zm-75-75l-54-54c4-11.3 6.2-23.4 6.2-36 0-19.9 16.1-36 36-36s36 16.1 36 36c0 32.8-8.8 63.6-24.1 90.1zM72.5 252c0-11.5 5.4-21.8 13.8-28.4L150.6 288c10.8 30.7 35.2 55.1 65.9 65.9l76.6 76.6c-2.9 3.2-4.6 7.5-4.6 12.1l0 25.5c0 19.9-16.1 36-36 36s-36-16.1-36-36l0-25.5c0-8.1-5.4-15.1-13.1-17.3-75.6-21.4-130.9-90.9-130.9-173.2zM98 82.5l360 360c14.1 14.1 14.1 36.9 0 50.9s-36.9 14.1-50.9 0L47 133.5C33 119.4 33 96.6 47 82.5s36.9-14.1 50.9 0zM252.5 72c39.8 0 72 32.2 72 72l0 114.2-139.4-139.4C195.3 91.4 221.6 72 252.5 72z"/></svg>