<svg xmlns="http://www.w3.org/2000/svg" viewBox="0 0 540 540"><!--! Font Awesome Pro 7.1.0 by @fontawesome - https://fontawesome.com License - https://fontawesome.com/license (Commercial License) Copyright 2025 Fonticons, Inc. --><path fill="currentColor" d="M118.4 59.8C88.2 46.9 53.1 56 33 82s-20 62.3 .2 88.2L124.8 288 33.2 405.8C13 431.7 12.9 468 33 494s55.2 35.1 85.4 22.2l378-162C522.8 342.8 540 316.8 540 288s-17.2-54.8-43.6-66.2l-378-162zM61.5 104c10-13 27.6-17.6 42.7-11.1l378 162c13.2 5.7 21.8 18.7 21.8 33.1s-8.6 27.4-21.8 33.1l-378 162C89.1 489.6 71.5 485 61.5 472s-10-31.1 .1-44.1L156.4 306 306 306c9.9 0 18-8.1 18-18s-8.1-18-18-18l-149.6 0-94.8-121.9c-10.1-13-10.1-31.1-.1-44.1z"/></svg>