<svg xmlns="http://www.w3.org/2000/svg" viewBox="0 0 504 540"><!--! Font Awesome Pro 7.1.0 by @fontawesome - https://fontawesome.com License - https://fontawesome.com/license (Commercial License) Copyright 2025 Fonticons, Inc. --><path fill="currentColor" d="M123.4 518.9C95.3 547 49.7 547 21.6 518.9s-28.1-73.7 0-101.8l55.6-55.6c-37.1-56.2-58.6-123.6-58.6-195.9 0-25.4 10.5-49.1 32.1-63.5l54-36c28.6-19 66.6-15.3 90.8 9l45 45c15.7 15.7 22.6 36.9 20.8 57.4L381.6 57.1c28.1-28.1 73.7-28.1 101.8 0s28.1 73.7 0 101.8L363 279.3c20.5-1.8 41.7 5.1 57.4 20.8l45 45c24.3 24.3 28 62.3 9 90.8l-36 54c-14.4 21.6-38.1 32.1-63.5 32.1-72.4 0-139.7-21.6-195.9-58.6l-55.6 55.6zM205 437.3c49.2 30.9 107.5 48.7 169.9 48.7 13.4 0 25.8-4.4 33.6-16l36-54c9.5-14.3 7.6-33.3-4.5-45.4l-45-45c-14.1-14.1-36.9-14.1-50.9 0l-59.1 59.1c-5.5 5.5-13.8 6.8-20.8 3.4-2.2-1.1-4.4-2.2-6.5-3.4L205 437.3zM155.9 282.8c-1.2-2.2-2.3-4.3-3.4-6.5-3.5-6.9-2.1-15.3 3.4-20.8L215 196.5c14.1-14.1 14.1-36.9 0-50.9l-45-45c-12.1-12.1-31.1-14-45.4-4.5l-54 36c-11.6 7.7-16 20.2-16 33.6 0 62.4 17.8 120.6 48.7 169.9l52.7-52.7zM47 493.5c14.1 14.1 36.9 14.1 50.9 0l360-360c14.1-14.1 14.1-36.9 0-50.9s-36.9-14.1-50.9 0L47 442.5C33 456.6 33 479.4 47 493.5z"/></svg>