<svg xmlns="http://www.w3.org/2000/svg" viewBox="0 0 468 540"><!--! Font Awesome Pro 7.1.0 by @fontawesome - https://fontawesome.com License - https://fontawesome.com/license (Commercial License) Copyright 2025 Fonticons, Inc. --><path fill="currentColor" d="M86.1 66.1c28.6-19 66.6-15.3 90.8 9l45 45c28.1 28.1 28.1 73.7 0 101.8l-48.7 48.7c18.8 32.3 45.8 59.3 78.2 78.2l48.7-48.7c28.1-28.1 73.7-28.1 101.8 0l45 45c24.3 24.3 28 62.3 9 90.9l-35.5 53.2c-3.7 5.7-8.1 10.8-13.2 15.2-12.6 11-29.2 17.7-47.3 17.7-198.8 0-360-161.2-360-360 0-25.4 13.1-47.6 32.9-60.4L86.1 66.1zm65.4 34.5c-12.1-12.1-31.1-14-45.4-4.5L52.5 131.7c-10 6.4-16.5 17.6-16.5 30.3 0 178.9 145.1 324 324 324 12.3 0 23.8-6.5 30.4-16.7L426 416c9.5-14.3 7.6-33.3-4.5-45.4l-45-45c-14.1-14.1-36.9-14.1-50.9 0l-58.2 58.2c-5.5 5.5-13.9 6.8-20.8 3.3-48.1-24.3-87.3-63.5-111.6-111.6-3.5-6.9-2.2-15.3 3.3-20.8l58.2-58.2c14.1-14.1 14.1-36.9 0-50.9l-45-45z"/></svg>