<svg xmlns="http://www.w3.org/2000/svg" viewBox="0 0 576 540"><!--! Font Awesome Pro 7.1.0 by @fontawesome - https://fontawesome.com License - https://fontawesome.com/license (Commercial License) Copyright 2025 Fonticons, Inc. --><path fill="currentColor" d="M72 468c-39.8 0-72-32.2-72-72L0 180c0-39.8 32.2-72 72-72l432 0c39.8 0 72 32.2 72 72l0 216c0 39.8-32.2 72-72 72L72 468zM36 396c0 19.9 16.1 36 36 36l432 0c19.9 0 36-16.1 36-36l0-216c0-19.9-16.1-36-36-36L72 144c-19.9 0-36 16.1-36 36l0 216z"/></svg>