<svg xmlns="http://www.w3.org/2000/svg" viewBox="0 0 504 540"><!--! Font Awesome Pro 7.1.0 by @fontawesome - https://fontawesome.com License - https://fontawesome.com/license (Commercial License) Copyright 2025 Fonticons, Inc. --><path fill="currentColor" d="M72 486c-39.8 0-72-32.2-72-72L0 162c0-39.8 32.2-72 72-72l360 0c39.8 0 72 32.2 72 72l0 252c0 39.8-32.2 72-72 72L72 486zM36 414c0 19.9 16.1 36 36 36l360 0c19.9 0 36-16.1 36-36l0-252c0-19.9-16.1-36-36-36L72 126c-19.9 0-36 16.1-36 36l0 252z"/></svg>