<svg xmlns="http://www.w3.org/2000/svg" viewBox="0 0 504 540"><!--! Font Awesome Pro 7.1.0 by @fontawesome - https://fontawesome.com License - https://fontawesome.com/license (Commercial License) Copyright 2025 Fonticons, Inc. --><path fill="currentColor" d="M108 126l0 69.8-17.5 4.4c-20.2 5-37.2 18.6-46.6 37.1s-10.5 40.2-2.7 59.5l31.5 78.9-18.2 4.5c-38.6 9.6-62 48.7-52.4 87.3s48.7 62 87.3 52.4L153 504 199.4 515.6c34.5 8.6 70.8 8.6 105.3 0 0 0 28.2-7 46.3-11.6 24.8 6.2 63.5 15.9 63.5 15.9 38.6 9.6 77.7-13.8 87.3-52.4s-13.8-77.7-52.4-87.3l-18.2-4.5 31.5-78.9c7.7-19.3 6.7-41-2.7-59.5s-26.5-32-46.6-37.1l-17.5-4.4 0-69.8c0-39.8-32.2-72-72-72L180 54c-39.8 0-72 32.2-72 72zm36 0c0-19.9 16.1-36 36-36l144 0c19.9 0 36 16.1 36 36l0 60.8-90.5-22.6c-11.5-2.9-23.5-2.9-34.9 0L144 186.8 144 126zM429.4 283.4l-33.4 83.4-9.9-2.5c-11.5-2.9-23.3-4.3-35.2-4.3s-23.7 1.5-35.2 4.3l-45.8 11.5 0-174.4 134.7 33.7c20.8 5.2 32.7 28.3 24.7 48.3zm-241.2 81c-11.5-2.9-23.3-4.3-35.2-4.3s-23.7 1.5-35.2 4.3l-9.9 2.5-33.4-83.4c-8-20 3.8-43.1 24.7-48.3l134.7-33.7 0 174.4-45.8-11.5zM153 396c8.9 0 17.8 1.1 26.5 3.3l46.1 11.5c8.6 2.1 17.6 3.2 26.5 3.2s17.9-1.1 26.5-3.2l46.1-11.5c8.7-2.2 17.5-3.3 26.5-3.3s17.8 1.1 26.5 3.3l63.3 15.8c19.3 4.8 31 24.4 26.2 43.7s-24.4 31-43.7 26.2L360 469.1c-5.9-1.5-12.1-1.5-18 0L296 480.6c-14.3 3.6-29.2 5.4-43.9 5.4s-29.6-1.8-43.9-5.4L162 469.1c-5.9-1.5-12.1-1.5-18 0L80.8 484.9c-19.3 4.8-38.8-6.9-43.7-26.2s6.9-38.8 26.2-43.7l63.3-15.8c8.7-2.2 17.5-3.3 26.5-3.3z"/></svg>