<svg xmlns="http://www.w3.org/2000/svg" viewBox="0 0 504 540"><!--! Font Awesome Pro 7.1.0 by @fontawesome - https://fontawesome.com License - https://fontawesome.com/license (Commercial License) Copyright 2025 Fonticons, Inc. --><path fill="currentColor" d="M122.9 57.1C94.8 29 49.2 29 21.1 57.1s-28.1 73.7 0 101.8l108 108c-3.1 10.1-3.1 20.3-3.1 30.7-10.6-6.1-22.9-9.6-36-9.6-39.8 0-72 32.2-72 72l0 72c0 39.8 32.2 72 72 72 21.5 0 40.8-9.4 54-24.4 13.2 14.9 32.5 24.4 54 24.4s40.8-9.4 54-24.4c13.2 14.9 32.5 24.4 54 24.4 16.9 0 32.4-5.8 44.7-15.5l30.4 30.4c28.1 28.1 73.7 28.1 101.8 0 27-27 28.1-70.3 3.1-98.5L486 144c0-39.8-32.2-72-72-72s-72 32.2-72 72l0 9.6c-10.6-6.1-22.9-9.6-36-9.6-26.1 0-48.9 13.9-61.6 34.6L122.9 57.1zM46.5 82.5c14.1-14.1 36.9-14.1 50.9 0l360 360c14.1 14.1 14.1 36.9 0 50.9s-36.9 14.1-50.9 0l-360-360c-14.1-14.1-14.1-36.9 0-50.9zm225 123.1c4.4-14.9 18.2-25.7 34.5-25.7 19.9 0 36 16.1 36 36l0 60.2-70.5-70.5zM378 312.2L378 144c0-19.9 16.1-36 36-36s36 16.1 36 36l0 240.2-72-72zM324.9 462.7c-5.5 3.4-11.9 5.3-18.9 5.3-19.9 0-36-16.1-36-36l0-24.2 54.9 54.9zM234 371.8l0 60.2c0 19.9-16.1 36-36 36s-36-16.1-36-36l0-132.2 72 72zM126 432c0 19.9-16.1 36-36 36s-36-16.1-36-36l0-72c0-19.9 16.1-36 36-36s36 16.1 36 36l0 72z"/></svg>