<svg xmlns="http://www.w3.org/2000/svg" viewBox="0 0 504 540"><!--! Font Awesome Pro 7.1.0 by @fontawesome - https://fontawesome.com License - https://fontawesome.com/license (Commercial License) Copyright 2025 Fonticons, Inc. --><path fill="currentColor" d="M324 306l0 108c0 69.6-56.4 126-126 126S72 483.6 72 414c0-39.8 32.2-72 72-72 13.1 0 25.4 3.5 36 9.6l0-45.6-126 0C24.2 306 0 281.8 0 252 0 182 28.6 127.2 75.4 90.4 121.7 54 184.4 36 252 36S382.3 54 428.6 90.4c46.8 36.8 75.4 91.6 75.4 161.6 0 29.8-24.2 54-54 54l-126 0zM36 252c0 9.9 8.1 18 18 18l91 0c1.6-22 5.4-62.1 14-102.7 6.5-30.7 15.1-62.2 31.3-89.3-36 7.3-67.6 21.1-92.6 40.7-37.9 29.9-61.7 74.1-61.7 133.3zm286.9 18c-1.6-21.6-5.3-58.6-13.1-95.3-6.1-28.6-14.3-55.8-25.3-75.4-11.2-20.1-22.3-27.3-32.5-27.3s-21.3 7.2-32.5 27.3c-10.9 19.6-19.2 46.8-25.3 75.4-7.8 36.6-11.5 73.7-13.1 95.3l141.7 0zM313.7 77.9c16.2 27.1 24.8 58.7 31.3 89.3 8.6 40.6 12.4 80.7 14 102.7l91 0c9.9 0 18-8.1 18-18 0-59.2-23.7-103.4-61.7-133.3-25-19.7-56.6-33.5-92.6-40.7zM216 306l0 107.9c0 9.9-8.1 18-18 18s-18-8-18-18c0-19.9-16.1-36-36-36-19.9 0-36 16.1-36 36 0 49.7 40.3 90 90 90s90-40.3 90-90l0-108-72 0z"/></svg>