<svg xmlns="http://www.w3.org/2000/svg" viewBox="0 0 504 540"><!--! Font Awesome Pro 7.1.0 by @fontawesome - https://fontawesome.com License - https://fontawesome.com/license (Commercial License) Copyright 2025 Fonticons, Inc. --><path fill="currentColor" d="M72 90C32.2 90 0 122.2 0 162L0 414c0 39.8 32.2 72 72 72l216 0c39.8 0 72-32.2 72-72l0-24.2 21.1 21.1c20.6 20.6 51.6 26.8 78.5 15.6S504 389.1 504 360l0-144c0-29.1-17.5-55.4-44.4-66.5s-57.9-5-78.5 15.6L360 186.2 360 162c0-39.8-32.2-72-72-72L72 90zM360 252c0-9.5 3.8-18.7 10.5-25.5l36-36c10.3-10.3 25.8-13.4 39.2-7.8S468 201.4 468 216l0 144c0 14.6-8.8 27.7-22.2 33.3s-28.9 2.5-39.2-7.8l-36-36c-6.8-6.8-10.5-15.9-10.5-25.5l0-72zm-36-90l0 252c0 19.9-16.1 36-36 36L72 450c-19.9 0-36-16.1-36-36l0-252c0-19.9 16.1-36 36-36l216 0c19.9 0 36 16.1 36 36z"/></svg>