<svg xmlns="http://www.w3.org/2000/svg" viewBox="0 0 448 512"><!--! Font Awesome Pro 7.1.0 by @fontawesome - https://fontawesome.com License - https://fontawesome.com/license (Commercial License) Copyright 2025 Fonticons, Inc. --><path opacity=".4" fill="currentColor" d="M16 56l0 360.8C26.2 406.4 40.3 400 56 400l352 0c13.3 0 24-10.7 24-24l0-336c0-13.3-10.7-24-24-24L56 16C33.9 16 16 33.9 16 56zM96.2 201.4c.1-2.2 .3-4.3 .5-6.5 .4-4.3 1.1-8.5 1.9-12.7 1.7-8.3 4.2-16.4 7.5-24 6.5-15.3 15.8-29.1 27.4-40.7 23.2-23.2 55.2-37.5 90.5-37.5 70.7 0 128 57.3 128 128S294.7 336 224 336c-35.3 0-67.3-14.3-90.5-37.5-11.6-11.6-21-25.4-27.4-40.7-3.2-7.7-5.8-15.7-7.5-24-.9-4.2-1.5-8.4-1.9-12.7-.2-2.2-.4-4.3-.5-6.5-.1-2.1-.2-4.3-.2-6.6s.1-4.5 .2-6.6z"/><path fill="currentColor" d="M0 56C0 25.1 25.1 0 56 0L408 0c22.1 0 40 17.9 40 40l0 336c0 19.4-13.7 35.5-32 39.2l0 80.8 24 0c4.4 0 8 3.6 8 8s-3.6 8-8 8L56 512c-30.9 0-56-25.1-56-56L0 56zM56 416c-22.1 0-40 17.9-40 40s17.9 40 40 40l344 0 0-80-344 0zm-40 .8C26.2 406.4 40.3 400 56 400l352 0c13.3 0 24-10.7 24-24l0-336c0-13.3-10.7-24-24-24L56 16C33.9 16 16 33.9 16 56l0 360.8zm208-95.9c7.4 0 18.6-6.9 29-28.8 9-19.2 15.2-46 16.1-76.6l-90.1 0c.9 30.5 7.1 57.4 16.1 76.6 10.3 21.9 21.6 28.8 29 28.8zM178.9 200.5l90.1 0c-.9-30.5-7.1-57.4-16.1-76.6-10.3-21.9-21.6-28.8-29-28.8s-18.6 6.9-29 28.8c-9 19.2-15.2 46-16.1 76.6zm77.2 115.8c44.4-13.2 77.4-52.9 80.6-100.8l-52.6 0c-1.2 42.5-12.1 79.4-28 100.8zm28-115.8l52.6 0c-3.2-47.9-36.2-87.6-80.6-100.8 16 21.4 26.9 58.3 28 100.8zM191.9 99.7c-44.4 13.2-77.4 52.9-80.6 100.8l52.6 0c1.2-42.5 12.1-79.4 28-100.8zm0 216.6c-16-21.4-26.9-58.3-28-100.8l-52.6 0c3.2 47.9 36.2 87.6 80.6 100.8zM224 336a128 128 0 1 1 0-256 128 128 0 1 1 0 256z"/></svg>