<svg xmlns="http://www.w3.org/2000/svg" viewBox="0 0 576 512"><!--! Font Awesome Pro 7.1.0 by @fontawesome - https://fontawesome.com License - https://fontawesome.com/license (Commercial License) Copyright 2025 Fonticons, Inc. --><path opacity=".4" fill="currentColor" d="M312.1 48C354.9 70.9 384 116 384 168l0 47c0 9.3-3.2 18.1-8.8 25L536 240c13.3 0 24-10.7 24-24l0-48c0-66.3-53.7-120-120-120L312.1 48zm13.2 416L472 464c30.9 0 56-25.1 56-56l0-152-176 0 0 152c0 22.6-10.4 42.8-26.7 56z"/><path fill="currentColor" d="M136 48l112 0c66.3 0 120 53.7 120 120l0 47c0 11-7.5 20.6-18.2 23.3l-7.8 1.9c-3.6 .9-6.1 4.1-6.1 7.8l0 160c0 30.9-25.1 56-56 56l-176 0c-30.9 0-56-25.1-56-56l0-160c0-3.7-2.5-6.9-6.1-7.8l-7.8-1.9C23.5 235.6 16 226 16 215l0-47C16 101.7 69.7 48 136 48zM104 480l368 0c39.8 0 72-32.2 72-72l0-152.8c18.3-3.7 32-19.8 32-39.2l0-48c0-75.1-60.9-136-136-136L136 32C60.9 32 0 92.9 0 168l0 47c0 18.4 12.5 34.4 30.3 38.8l1.7 .4 0 153.8c0 39.8 32.2 72 72 72zm368-16l-146.7 0c16.3-13.2 26.7-33.4 26.7-56l0-152 176 0 0 152c0 30.9-25.1 56-56 56zM375.2 240c5.5-6.9 8.8-15.6 8.8-25l0-47c0-52-29.1-97.1-71.9-120L440 48c66.3 0 120 53.7 120 120l0 48c0 13.3-10.7 24-24 24l-160.8 0z"/></svg>