<svg xmlns="http://www.w3.org/2000/svg" viewBox="0 0 640 512"><!--! Font Awesome Pro 7.1.0 by @fontawesome - https://fontawesome.com License - https://fontawesome.com/license (Commercial License) Copyright 2025 Fonticons, Inc. --><path opacity=".4" fill="currentColor" d="M144 351c.5-26.1 21.8-47 48-47l256 0c26.5 0 48 21.5 48 48l0 49.4c-39.6-15.4-84.8-11.9-121.9 10.3l-9.2 6c-21.9 15.6-34.3 20.9-41.9 22l-3 .2c-6.3 0-16.8-3.3-36.1-16.1l-8.8-6.1c-38.7-27.6-88.2-33.1-131.1-16.3 0-16.8 0-33.6 0-50.4z"/><path fill="currentColor" d="M388.1 450.4c34.3-24.5 80.6-24.5 115 0 18.6 13.3 38 23.8 57.5 27.6 19.2 3.7 38.9 .9 58.7-13.3 3.6-2.6 8.6-1.7 11.2 1.9s1.8 8.6-1.8 11.2c-23.7 16.9-47.8 20.5-71.1 16-22.9-4.4-44.5-16.5-63.8-30.3-28.8-20.5-67.6-20.5-96.4 0-25.5 18.2-51 32.6-77.4 32.6s-51.9-14.4-77.4-32.6c-27-19.2-62.8-20.5-90.8-3.6l-5.5 3.6c-24.3 17.4-52.5 32.2-82.2 32-17.6-.1-35.3-5.4-52.7-17.8-3.6-2.6-4.4-7.6-1.8-11.2s7.6-4.4 11.2-1.9c14.7 10.5 29.3 14.7 43.4 14.8 24.6 .1 49.3-12.2 72.9-29 34.3-24.5 80.6-24.5 115 0 25.4 18.1 47.2 29.6 68.1 29.6s42.7-11.5 68.1-29.6zM424 0c4.4 0 8 3.6 8 8s-3.6 8-8 8l-30 0 60.5 272.3c32.3 3.3 57.5 30.5 57.5 63.7l0 56.9c-5.2-2.8-10.5-5.3-16-7.4l0-49.5c0-26.5-21.5-48-48-48l-256 0c-26.5 0-48 21.5-48 48l0 49.5c-5.5 2.1-10.8 4.6-16 7.5l0-57c0-33.2 25.2-60.4 57.5-63.7L246 16 216 16c-4.4 0-8-3.6-8-8s3.6-8 8-8L424 0zM210.7 288L429.3 288 320 165.6 210.7 288zm-4.5-18.9l103.1-115.5-62-69.4-41.1 184.9zM330.7 153.6l103.1 115.5-41.1-184.9-62 69.4zM251.5 64.9l68.5 76.7 68.5-76.7-10.9-48.9-115.2 0-10.9 48.9z"/></svg>