<svg xmlns="http://www.w3.org/2000/svg" viewBox="0 0 384 512"><!--! Font Awesome Pro 7.1.0 by @fontawesome - https://fontawesome.com License - https://fontawesome.com/license (Commercial License) Copyright 2025 Fonticons, Inc. --><path opacity=".4" fill="currentColor" d="M16 64l0 384c0 26.5 21.5 48 48 48l256 0c26.5 0 48-21.5 48-48l0-384c0-24.9-18.9-45.3-43.1-47.8L320 16 64 16C37.5 16 16 37.5 16 64zM72 266.9c0-31.9 21.6-58.7 51-66.6l-.1-3.2c0-38.2 30.9-69.1 69.1-69.1s69.1 30.9 69.1 69.1l-.2 3.2c29.4 7.9 51.1 34.7 51.1 66.6 0 38.2-30.9 69.1-69.1 69.1-20 0-37.9-8.5-50.5-22-.6 .3-1.1 .6-1.7 .9-11.6 12-27.4 19.8-45.1 20.9l-4.5 .2C102.9 336 72 305.1 72 266.9zM152 376c0-4.4 3.6-8 8-8l64 0c4.4 0 8 3.6 8 8s-3.6 8-8 8l-64 0c-4.4 0-8-3.6-8-8z"/><path fill="currentColor" d="M326.5 .3C358.8 3.6 384 30.9 384 64l0 384c0 33.1-25.2 60.4-57.5 63.7l-6.5 .3-256 0-6.5-.3C25.2 508.4 0 481.1 0 448L0 64C0 30.9 25.2 3.6 57.5 .3L64 0 320 0 326.5 .3zM64 16C37.5 16 16 37.5 16 64l0 384c0 26.5 21.5 48 48 48l256 0c26.5 0 48-21.5 48-48l0-384c0-24.9-18.9-45.3-43.1-47.8L320 16 64 16zM224 368c4.4 0 8 3.6 8 8s-3.6 8-8 8l-64 0c-4.4 0-8-3.6-8-8s3.6-8 8-8l64 0zM192 128c38.2 0 69.1 30.9 69.1 69.1l-.2 3.2c29.4 7.9 51.1 34.7 51.1 66.6 0 38.2-30.9 69.1-69.1 69.1-20.2 0-38.3-8.7-50.9-22.4-11.7 12.7-28 21.1-46.4 22.3l-4.5 .2c-38.2 0-69.1-30.9-69.1-69.1 0-31.9 21.6-58.7 51-66.6l-.1-3.2c0-38.2 30.9-69.1 69.1-69.1zm0 16c-29.3 0-53.1 23.8-53.1 53.1l.2 4.1c.1 1.4 .3 2.7 .5 4.2l.1 1.6c-.1 1.6-.6 3.1-1.5 4.4-1.3 1.7-3.2 2.9-5.2 3.2-25.4 3.9-44.9 25.9-44.9 52.4 0 29.3 23.8 53.1 53.1 53.1l6.8-.4c15.6-2 29.1-10.8 37.4-23.3l1.3-1.5c1.5-1.3 3.4-2.1 5.4-2.1 2.7 0 5.2 1.3 6.7 3.6 9.5 14.3 25.8 23.7 44.2 23.8 29.3 0 53.1-23.8 53.1-53.1 0-26.5-19.5-48.5-44.9-52.4-2.1-.3-4-1.5-5.3-3.2s-1.8-3.9-1.4-6l.5-4.2c.1-1.4 .2-2.7 .2-4 0-29.3-23.8-53.1-53.1-53.1z"/></svg>