<svg xmlns="http://www.w3.org/2000/svg" viewBox="0 0 512 512"><!--! Font Awesome Pro 7.1.0 by @fontawesome - https://fontawesome.com License - https://fontawesome.com/license (Commercial License) Copyright 2025 Fonticons, Inc. --><path opacity=".4" fill="currentColor" d="M16 68.7L16 400c0 35.3 28.7 64 64 64l400 0 0-120c0 4.4-3.6 8-8 8l-120 0c-4.4 0-8-3.6-8-8s3.6-8 8-8l100.7 0-164.7-164.7-90.3 90.3c-3.1 3.1-8.2 3.1-11.3 0l-96-96c-3.1-3.1-3.1-8.2 0-11.3s8.2-3.1 11.3 0l-80-80-5.7-5.7z"/><path fill="currentColor" d="M16 40c0-4.4-3.6-8-8-8s-8 3.6-8 8L0 400c0 44.2 35.8 80 80 80l424 0c4.4 0 8-3.6 8-8s-3.6-8-8-8L80 464c-35.3 0-64-28.7-64-64L16 40zM352 352l120 0c4.4 0 8-3.6 8-8l0-120c0-4.4-3.6-8-8-8s-8 3.6-8 8l0 100.7-170.3-170.3c-3.1-3.1-8.2-3.1-11.3 0l-90.3 90.3-90.3-90.3c-3.1-3.1-8.2-3.1-11.3 0s-3.1 8.2 0 11.3l96 96c3.1 3.1 8.2 3.1 11.3 0L288 171.3 452.7 336 352 336c-4.4 0-8 3.6-8 8s3.6 8 8 8z"/></svg>