<svg xmlns="http://www.w3.org/2000/svg" viewBox="0 0 448 512"><!--! Font Awesome Pro 7.0.1 by @fontawesome - https://fontawesome.com License - https://fontawesome.com/license (Commercial License) Copyright 2025 Fonticons, Inc. --><path style="fill:var(--fa-secondary-color,currentColor);opacity:var(--fa-secondary-opacity,.4)" d="M16 48l0 32c0 17.7 14.3 32 32 32l288 0c17.7 0 32-14.3 32-32l0-32c0-17.7-14.3-32-32-32L48 16C30.3 16 16 30.3 16 48zm0 384l0 32c0 17.7 14.3 32 32 32l160 0c17.7 0 32-14.3 32-32l0-32c0-17.7-14.3-32-32-32L48 400c-17.7 0-32 14.3-32 32z"/><path style="fill:var(--fa-primary-color,currentColor);opacity:var(--fa-primary-opacity,1)" d="M368 48l0 32c0 17.7-14.3 32-32 32L48 112c-17.7 0-32-14.3-32-32l0-32c0-17.7 14.3-32 32-32l288 0c17.7 0 32 14.3 32 32zM336 0L48 0C21.5 0 0 21.5 0 48L0 80c0 26.5 21.5 48 48 48l288 0c26.5 0 48-21.5 48-48l0-32c0-26.5-21.5-48-48-48zm96 272c0 17.7-14.3 32-32 32L48 304c-17.7 0-32-14.3-32-32l0-32c0-17.7 14.3-32 32-32l352 0c17.7 0 32 14.3 32 32l0 32zm16-32c0-26.5-21.5-48-48-48L48 192c-26.5 0-48 21.5-48 48l0 32c0 26.5 21.5 48 48 48l352 0c26.5 0 48-21.5 48-48l0-32zM240 464c0 17.7-14.3 32-32 32L48 496c-17.7 0-32-14.3-32-32l0-32c0-17.7 14.3-32 32-32l160 0c17.7 0 32 14.3 32 32l0 32zm16-32c0-26.5-21.5-48-48-48L48 384c-26.5 0-48 21.5-48 48l0 32c0 26.5 21.5 48 48 48l160 0c26.5 0 48-21.5 48-48l0-32z"/></svg>