<svg xmlns="http://www.w3.org/2000/svg" viewBox="0 0 512 512"><!--! Font Awesome Pro 7.1.0 by @fontawesome - https://fontawesome.com License - https://fontawesome.com/license (Commercial License) Copyright 2025 Fonticons, Inc. --><path opacity=".4" fill="currentColor" d="M16 290.9L16 400c0 35.3 28.7 64 64 64l400 0 0-239.9c0 .6-.1 1.2-.2 1.8-1.5 5.3-3.1 10.6-5 15.8-3.4 9.3-8.6 21.8-15.9 34.3-14.4 24.6-38.4 52-74.9 52-28.2 0-48.6-13.7-64.5-32.9-15.6-18.9-26.3-41.4-36.8-63.5-.7-1.4-1.3-2.8-2-4.1-11.5-24.2-22.6-47.3-36.7-64.3-13.8-16.8-30-27.1-52.1-27.1-27.5 0-47.4 20.6-61.1 44-6.7 11.5-11.5 23-14.6 31.7-1.7 4.7-3.3 9.4-4.5 14.2-1.1 4.3-5.4 6.9-9.7 5.8-.1 0-.2-.1-.4-.1-2.7 10.2-6.5 20.2-11.2 29.6-15.4 30.8-44.2 39-74.5 29.6z"/><path fill="currentColor" d="M16 40c0-4.4-3.6-8-8-8s-8 3.6-8 8L0 400c0 44.2 35.8 80 80 80l424 0c4.4 0 8-3.6 8-8s-3.6-8-8-8L80 464c-35.3 0-64-28.7-64-64L16 40zM116.3 211.7c3.1-8.7 8-20.2 14.6-31.7 13.6-23.4 33.6-44 61.1-44 22.1 0 38.3 10.3 52.1 27.1 14.1 17.1 25.1 40.1 36.7 64.3 .7 1.4 1.3 2.8 2 4.1 10.5 22.1 21.2 44.6 36.8 63.5 15.9 19.2 36.2 32.9 64.5 32.9 36.5 0 60.6-27.4 74.9-52 7.3-12.5 12.5-25 15.9-34.3 1.9-5.2 3.5-10.5 5-15.8 1.1-4.3-1.5-8.6-5.8-9.7s-8.6 1.5-9.7 5.8c-1.2 4.8-2.8 9.6-4.5 14.2-3.1 8.7-8 20.2-14.6 31.7-13.6 23.4-33.6 44-61.1 44-22.1 0-38.3-10.3-52.1-27.1-14.1-17.1-25.1-40.1-36.7-64.3-.7-1.4-1.3-2.8-2-4.1-10.5-22.1-21.2-44.6-36.8-63.5-15.9-19.2-36.2-32.9-64.5-32.9-36.5 0-60.5 27.4-74.9 52-7.3 12.5-12.5 25-15.9 34.3-1.9 5.2-3.5 10.5-5 15.8-1.1 4.3 1.5 8.6 5.8 9.7s8.6-1.5 9.7-5.8c1.2-4.8 2.8-9.6 4.5-14.2z"/></svg>