<svg xmlns="http://www.w3.org/2000/svg" viewBox="0 0 512 512"><!--! Font Awesome Pro 7.1.0 by @fontawesome - https://fontawesome.com License - https://fontawesome.com/license (Commercial License) Copyright 2025 Fonticons, Inc. --><path opacity=".4" fill="currentColor" d="M16 256a240 240 0 1 0 480 0 240 240 0 1 0 -480 0zm136-88c0-4.4 3.6-8 8-8s8 3.6 8 8l0 8.8c10.2-10.4 24.3-16.8 40-16.8 21 0 39.3 11.5 48.9 28.6 5.7-9.3 13.8-16.8 23.5-21.9l24.1-65.5c1.5-4.1 6.1-6.3 10.3-4.7s6.3 6.1 4.7 10.3l-19.8 53.8c2.7-.4 5.5-.6 8.3-.6 33.1 0 60 26.9 60 60l0 124c0 4.4-3.6 8-8 8s-8-3.6-8-8l0-124c0-24.3-19.7-44-44-44-5.3 0-10.3 .9-15 2.6l-29 78.8 0 86.6c0 4.4-3.6 8-8 8s-8-3.6-8-8c0-.7 0-15.3 0-43.1L207.5 410.8c-1.5 4.1-6.1 6.3-10.3 4.7s-6.3-6.1-4.7-10.3l55.5-150.7 0-34.6 0-.7 0-3.3c0-22.1-17.9-40-40-40s-40 17.9-40 40l0 128c0 4.4-3.6 8-8 8s-8-3.6-8-8c0-82.7 0-141.3 0-176z"/><path fill="currentColor" d="M256 16a240 240 0 1 1 0 480 240 240 0 1 1 0-480zm0 496a256 256 0 1 0 0-512 256 256 0 1 0 0 512zM314.8 96.5c-4.1-1.5-8.7 .6-10.3 4.7l-24.1 65.5c-9.7 5-17.8 12.6-23.5 21.9-9.6-17.1-27.9-28.6-48.9-28.6-15.7 0-29.8 6.4-40 16.8l0-8.8c0-4.4-3.6-8-8-8s-8 3.6-8 8l0 64 0 0 0 112c0 4.4 3.6 8 8 8s8-3.6 8-8l0-128c0-22.1 17.9-40 40-40s40 17.9 40 40l0 3.3 0 .7 0 34.6-55.5 150.7c-1.5 4.1 .6 8.7 4.7 10.3s8.7-.6 10.3-4.7l40.5-109.9 0 35.1 0 .1 0 7.9c0 4.4 3.6 8 8 8s8-3.6 8-8l0-86.6 29-78.8c4.7-1.7 9.7-2.6 15-2.6 24.3 0 44 19.7 44 44l0 124c0 4.4 3.6 8 8 8s8-3.6 8-8l0-124c0-33.1-26.9-60-60-60-2.8 0-5.6 .2-8.3 .6l19.8-53.8c1.5-4.1-.6-8.7-4.7-10.3z"/></svg>