<svg xmlns="http://www.w3.org/2000/svg" viewBox="0 0 512 512"><!--! Font Awesome Pro 7.1.0 by @fontawesome - https://fontawesome.com License - https://fontawesome.com/license (Commercial License) Copyright 2025 Fonticons, Inc. --><path opacity=".4" fill="currentColor" d="M16 256a240 240 0 1 0 480 0 240 240 0 1 0 -480 0zm160-88c0-4.4 3.6-8 8-8l144 0c3.1 0 5.9 1.8 7.2 4.6s.9 6.1-1 8.5L200.9 336 328 336c4.4 0 8 3.6 8 8s-3.6 8-8 8l-144 0c-3.1 0-5.9-1.8-7.2-4.6s-.9-6.1 1-8.5L311.1 176 184 176c-4.4 0-8-3.6-8-8z"/><path fill="currentColor" d="M256 16a240 240 0 1 1 0 480 240 240 0 1 1 0-480zm0 496a256 256 0 1 0 0-512 256 256 0 1 0 0 512zM184 160c-4.4 0-8 3.6-8 8s3.6 8 8 8l127.1 0-133.3 162.9c-2 2.4-2.4 5.7-1 8.5s4.1 4.6 7.2 4.6l144 0c4.4 0 8-3.6 8-8s-3.6-8-8-8l-127.1 0 133.3-162.9c2-2.4 2.4-5.7 1-8.5s-4.1-4.6-7.2-4.6l-144 0z"/></svg>