<svg xmlns="http://www.w3.org/2000/svg" viewBox="0 0 512 512"><!--! Font Awesome Pro 7.1.0 by @fontawesome - https://fontawesome.com License - https://fontawesome.com/license (Commercial License) Copyright 2025 Fonticons, Inc. --><path opacity=".4" fill="currentColor" d="M16 256a240 240 0 1 0 480 0 240 240 0 1 0 -480 0zm136 0c0-57.4 46.6-104 104-104s104 46.6 104 104c0 25.8-9.4 49.5-25 67.7l22.7 22.7c3.1 3.1 3.1 8.2 0 11.3s-8.2 3.1-11.3 0L323.7 335c-18.2 15.6-41.8 25-67.7 25-57.4 0-104-46.6-104-104zm16 0c0 48.6 39.4 88 88 88 21.4 0 41.1-7.7 56.3-20.4l-36.5-36.5c-3.1-3.1-3.1-8.2 0-11.3s8.2-3.1 11.3 0l36.5 36.5c12.7-15.3 20.4-34.9 20.4-56.3 0-48.6-39.4-88-88-88s-88 39.4-88 88z"/><path fill="currentColor" d="M256 16a240 240 0 1 1 0 480 240 240 0 1 1 0-480zm0 496a256 256 0 1 0 0-512 256 256 0 1 0 0 512zM168 256c0-48.6 39.4-88 88-88s88 39.4 88 88c0 21.4-7.7 41.1-20.4 56.3l-36.5-36.5c-3.1-3.1-8.2-3.1-11.3 0s-3.1 8.2 0 11.3l36.5 36.5c-15.3 12.7-34.9 20.4-56.3 20.4-48.6 0-88-39.4-88-88zm192 0c0-57.4-46.6-104-104-104s-104 46.6-104 104 46.6 104 104 104c25.8 0 49.5-9.4 67.7-25l22.7 22.7c3.1 3.1 8.2 3.1 11.3 0s3.1-8.2 0-11.3L335 323.7c15.6-18.2 25-41.8 25-67.7z"/></svg>