<svg xmlns="http://www.w3.org/2000/svg" viewBox="0 0 512 512"><!--! Font Awesome Pro 7.0.0 by @fontawesome - https://fontawesome.com License - https://fontawesome.com/license (Commercial License) Copyright 2025 Fonticons, Inc. --><path style="fill:var(--fa-secondary-color,currentColor);opacity:var(--fa-secondary-opacity,.4)" d="M16 256a240 240 0 1 0 480 0 240 240 0 1 0 -480 0zm232-96c0-4.4 3.6-8 8-8s8 3.6 8 8l0 137.3c0 4.4-3.6 8-8 8s-8-3.6-8-8L248 160z"/><path style="fill:var(--fa-primary-color,currentColor);opacity:var(--fa-primary-opacity,1)" d="M256 16a240 240 0 1 1 0 480 240 240 0 1 1 0-480zm0 496a256 256 0 1 0 0-512 256 256 0 1 0 0 512zm0-360c-4.4 0-8 3.6-8 8l0 137.3c0 4.4 3.6 8 8 8s8-3.6 8-8L264 160c0-4.4-3.6-8-8-8zm13.3 200a13.3 13.3 0 1 0 -26.7 0 13.3 13.3 0 1 0 26.7 0z"/></svg>