<svg xmlns="http://www.w3.org/2000/svg" viewBox="0 0 512 512"><!--! Font Awesome Pro 7.1.0 by @fontawesome - https://fontawesome.com License - https://fontawesome.com/license (Commercial License) Copyright 2025 Fonticons, Inc. --><path opacity=".4" fill="currentColor" d="M16 256a240 240 0 1 0 480 0 240 240 0 1 0 -480 0zm160-88c0-3.4 2.1-6.4 5.3-7.5s6.7-.1 8.9 2.5L320 321.6 320 168c0-4.4 3.6-8 8-8s8 3.6 8 8l0 176c0 3.4-2.1 6.4-5.3 7.5s-6.7 .2-8.9-2.5L192 190.4 192 344c0 4.4-3.6 8-8 8s-8-3.6-8-8l0-176z"/><path fill="currentColor" d="M256 16a240 240 0 1 1 0 480 240 240 0 1 1 0-480zm0 496a256 256 0 1 0 0-512 256 256 0 1 0 0 512zM190.2 162.9c-2.1-2.6-5.7-3.6-8.9-2.5s-5.3 4.2-5.3 7.5l0 176c0 4.4 3.6 8 8 8s8-3.6 8-8l0-153.6 129.8 158.7c2.1 2.6 5.7 3.6 8.9 2.5s5.3-4.2 5.3-7.5l0-176c0-4.4-3.6-8-8-8s-8 3.6-8 8l0 153.6-129.8-158.7z"/></svg>