<svg xmlns="http://www.w3.org/2000/svg" viewBox="0 0 512 512"><!--! Font Awesome Pro 7.0.1 by @fontawesome - https://fontawesome.com License - https://fontawesome.com/license (Commercial License) Copyright 2025 Fonticons, Inc. --><path style="fill:var(--fa-secondary-color,currentColor);opacity:var(--fa-secondary-opacity,.4)" d="M16 256a240 240 0 1 0 480 0 240 240 0 1 0 -480 0zm114.3 26.3l120-120c3.1-3.1 8.2-3.1 11.3 0l120 120c3.1 3.1 3.1 8.2 0 11.3s-8.2 3.1-11.3 0L256 179.3 141.7 293.7c-3.1 3.1-8.2 3.1-11.3 0s-3.1-8.2 0-11.3z"/><path style="fill:var(--fa-primary-color,currentColor);opacity:var(--fa-primary-opacity,1)" d="M256 16a240 240 0 1 1 0 480 240 240 0 1 1 0-480zm0 496a256 256 0 1 0 0-512 256 256 0 1 0 0 512zM381.7 282.3l-120-120c-3.1-3.1-8.2-3.1-11.3 0l-120 120c-3.1 3.1-3.1 8.2 0 11.3s8.2 3.1 11.3 0L256 179.3 370.3 293.7c3.1 3.1 8.2 3.1 11.3 0s3.1-8.2 0-11.3z"/></svg>