<svg xmlns="http://www.w3.org/2000/svg" viewBox="0 0 576 512"><!--! Font Awesome Pro 7.1.0 by @fontawesome - https://fontawesome.com License - https://fontawesome.com/license (Commercial License) Copyright 2025 Fonticons, Inc. --><path opacity=".4" fill="currentColor" d="M123.4 80L480 80c26.5 0 48 21.5 48 48l0 256c0 26.5-21.5 48-48 48l-4.6 0-80.1-80.1c29.4-1.7 52.7-26.1 52.7-55.9 0-4.4-3.6-8-8-8s-8 3.6-8 8c0 22.1-17.9 40-40 40l-12.6 0-51.4-51.4 0-68.6c0-22.1 17.9-40 40-40l24 0c22.1 0 40 17.9 40 40 0 4.4 3.6 8 8 8s8-3.6 8-8c0-30.9-25.1-56-56-56l-24 0c-30.9 0-56 25.1-56 56L312 268.6 123.4 80z"/><path fill="currentColor" d="M13.7-29.8c-3.1-3.1-8.2-3.1-11.3 0s-3.1 8.2 0 11.3l560 560c3.1 3.1 8.2 3.1 11.3 0s3.1-8.2 0-11.3l-83.1-83.1c30.3-5 53.5-31.4 53.5-63.1l0-256c0-35.3-28.7-64-64-64L107.4 64 13.7-29.8zM123.4 80L480 80c26.5 0 48 21.5 48 48l0 256c0 26.5-21.5 48-48 48l-4.6 0-80.1-80.1c29.4-1.7 52.7-26.1 52.7-55.9 0-4.4-3.6-8-8-8s-8 3.6-8 8c0 22.1-17.9 40-40 40l-12.6 0-51.4-51.4 0-68.6c0-22.1 17.9-40 40-40l24 0c22.1 0 40 17.9 40 40 0 4.4 3.6 8 8 8s8-3.6 8-8c0-30.9-25.1-56-56-56l-24 0c-30.9 0-56 25.1-56 56L312 268.6 123.4 80zM248 295.2c0 .3 0 .5 0 .8 0 22.1-17.9 40-40 40l-24 0c-22.1 0-40-17.9-40-40l0-80c0-7.1 1.9-13.8 5.2-19.7l-11.6-11.6c-6 8.9-9.5 19.7-9.5 31.3l0 80c0 30.9 25.1 56 56 56l24 0c26.3 0 48.3-18.1 54.4-42.5L248 295.2zM55.3 102.5L43.8 91C36.4 101.4 32 114.2 32 128l0 256c0 35.3 28.7 64 64 64l304.8 0-16-16-288.8 0c-26.5 0-48-21.5-48-48l0-256c0-9.4 2.7-18.1 7.3-25.5z"/></svg>