<svg xmlns="http://www.w3.org/2000/svg" viewBox="0 0 576 512"><!--! Font Awesome Pro 7.1.0 by @fontawesome - https://fontawesome.com License - https://fontawesome.com/license (Commercial License) Copyright 2025 Fonticons, Inc. --><path opacity=".4" fill="currentColor" d="M16 192c0 44.2 35.8 80 80 80l16.8 0c8-80.9 76.2-144 159.2-144 39.7 0 76 14.5 104 38.4 12.6-4.1 26.1-6.4 40-6.4 5.4 0 10.8 .3 16 1l0-1c0-44.2-35.8-80-80-80-14.5 0-28.2 3.9-39.9 10.6-2.1 1.2-4.7 1.4-7 .5s-4-2.9-4.7-5.2c-11.4-40.3-48.4-69.9-92.4-69.9-50.7 0-92.1 39.2-95.7 89-.2 2.1-1.2 4.1-2.8 5.5s-3.8 2.1-5.9 1.9c-2.5-.2-5-.3-7.5-.3-44.2 0-80 35.8-80 80zm96 200c0 39.8 32.2 72 72 72l296 0c44.2 0 80-35.8 80-80 0-41.9-32.2-76.2-73.1-79.7-2.2-.2-4.1-1.2-5.5-2.9s-2-3.8-1.8-6c.3-2.4 .4-4.9 .4-7.4 0-35.3-28.7-64-64-64-18.4 0-34.9 7.7-46.6 20.1-1.8 1.9-4.3 2.8-6.9 2.4s-4.8-1.9-6-4.1c-16.2-30.1-48-50.5-84.5-50.5-53 0-96 43-96 96 0 8 1 15.7 2.8 23.1 .5 2.2 .1 4.5-1.1 6.3s-3.2 3.1-5.4 3.5C138.1 326.5 112 356.2 112 392z"/><path fill="currentColor" d="M208 0C151.6 0 104.9 41.7 97.1 96L96 96C43 96 0 139 0 192s43 96 96 96l.4 0c5-4.3 10.4-8.2 16-11.6 .1-1.5 .2-2.9 .4-4.4L96 272c-44.2 0-80-35.8-80-80s35.8-80 80-80c2.5 0 5.1 .1 7.5 .3 2.1 .2 4.3-.5 5.9-1.9s2.7-3.4 2.8-5.5c3.6-49.7 45.1-89 95.7-89 44 0 81 29.5 92.4 69.9 .7 2.4 2.4 4.3 4.7 5.2s4.9 .8 7-.5c11.7-6.8 25.4-10.6 39.9-10.6 44.2 0 80 35.8 80 80l0 1c5.4 .7 10.7 1.7 15.9 3 .1-1.3 .1-2.7 .1-4 0-53-43-96-96-96-14 0-27.2 3-39.2 8.4-16-42.3-56.9-72.4-104.8-72.4zM176 288c0-53 43-96 96-96 36.5 0 68.3 20.4 84.5 50.5 1.2 2.3 3.5 3.8 6 4.1s5.1-.6 6.9-2.4c11.7-12.4 28.2-20.1 46.6-20.1 35.3 0 64 28.7 64 64 0 2.5-.1 5-.4 7.4-.2 2.2 .4 4.3 1.8 6s3.4 2.7 5.5 2.9c41 3.5 73.1 37.8 73.1 79.7 0 44.2-35.8 80-80 80l-296 0c-39.8 0-72-32.2-72-72 0-35.8 26.1-65.5 60.3-71.1 2.2-.4 4.2-1.6 5.4-3.5s1.6-4.2 1.1-6.3C177 303.7 176 296 176 288zm96-112c-61.9 0-112 50.1-112 112 0 6.4 .5 12.7 1.6 18.9-37.7 9.9-65.6 44.3-65.6 85.1 0 48.6 39.4 88 88 88l296 0c53 0 96-43 96-96 0-47.6-34.6-87.1-80-94.7 0-.4 0-.9 0-1.3 0-44.2-35.8-80-80-80-19.2 0-36.9 6.8-50.7 18.1-20.1-30.2-54.4-50.1-93.3-50.1z"/></svg>