<svg xmlns="http://www.w3.org/2000/svg" viewBox="0 0 640 512"><!--! Font Awesome Pro 7.1.0 by @fontawesome - https://fontawesome.com License - https://fontawesome.com/license (Commercial License) Copyright 2025 Fonticons, Inc. --><path opacity=".4" fill="currentColor" d="M46 390.2l172.3-43.1C296.9 327.5 352 257 352 176l0-8.3-306 222.6zM201 368l135 0c97.2 0 176-78.8 176-176l0-104c0-39.8-32.2-72-72-72s-72 32.2-72 72l0 88c0 88.3-60.1 165.3-145.7 186.7L201 368zM456 96a16 16 0 1 1 -32 0 16 16 0 1 1 32 0zm68.6-32c2.2 7.6 3.4 15.7 3.4 24l0 43.5 87.5-21.8c2.3-.6 3.9-2.4 4.3-4.6l0-2.3c-5-22.6-25.1-38.7-48.3-38.7l-46.9 0z"/><path fill="currentColor" d="M440 0c34.2 0 63.7 19.5 78.3 48l53.2 0 5.7 .2c28.2 2.4 51.9 22.9 58.2 51 2.6 11.5-4.5 23-16 25.9L528 148 528 192c0 85.3-55.7 157.6-132.7 182.6l52.1 126.4 .5 1.5c.7 3.7-1.3 7.4-4.8 8.9-3.6 1.5-7.6 .1-9.7-2.9l-.8-1.4-52.8-128.1c-14.1 3.3-28.7 5.1-43.8 5.1l-32.7 0 48.2 116.9 .4 1.6c.7 3.7-1.2 7.4-4.8 8.9-3.6 1.5-7.6 .1-9.7-2.9l-.8-1.4-50.7-123-149 0-127 31.8c-3.1 .8-6.4-.3-8.4-3-2.6-3.6-1.8-8.6 1.7-11.2L352 147.9 352 88c0-48.6 39.4-88 88-88zM46 390.2l172.3-43.1C296.9 327.5 352 257 352 176l0-8.3-306 222.6zM440 16c-39.8 0-72 32.2-72 72l0 88c0 88.3-60.1 165.3-145.7 186.7L201 368 336 368c97.2 0 176-78.8 176-176l0-104c0-39.8-32.2-72-72-72zm84.6 48c2.2 7.6 3.4 15.7 3.4 24l0 43.5 87.5-21.8c2.3-.6 3.9-2.4 4.3-4.6l0-2.3c-5-22.6-25.1-38.7-48.3-38.7l-46.9 0zM440 112a16 16 0 1 1 0-32 16 16 0 1 1 0 32z"/></svg>