<svg xmlns="http://www.w3.org/2000/svg" viewBox="0 0 576 512"><!--! Font Awesome Pro 7.1.0 by @fontawesome - https://fontawesome.com License - https://fontawesome.com/license (Commercial License) Copyright 2025 Fonticons, Inc. --><path opacity=".4" fill="currentColor" d="M16 96c0-26.5 21.5-48 48-48l64 0 0 256-112 0 0-208zm0 224l264 0 0 144-216 0c-26.5 0-48-21.5-48-48l0-96zM144 48l80 0 0 128-80 0 0-128zm0 144l80 0 0 112-80 0 0-112zM240 48l96 0 0 256-96 0 0-256zm56 272l264 0 0 96c0 26.5-21.5 48-48 48l-216 0 0-144zM352 48l80 0 0 128-80 0 0-128zm0 144l80 0 0 112-80 0 0-112zM448 48l64 0c26.5 0 48 21.5 48 48l0 208-112 0 0-256z"/><path fill="currentColor" d="M448 48l0 256 112 0 0-208c0-26.5-21.5-48-48-48l-64 0zm-16 0l-80 0 0 128 80 0 0-128zm-96 0l-96 0 0 256 96 0 0-256zM224 48l-80 0 0 128 80 0 0-128zm-96 0L64 48C37.5 48 16 69.5 16 96l0 208 112 0 0-256zM16 320l0 96c0 26.5 21.5 48 48 48l216 0 0-144-264 0zM296 464l216 0c26.5 0 48-21.5 48-48l0-96-264 0 0 144zM0 96C0 60.7 28.7 32 64 32l448 0c35.3 0 64 28.7 64 64l0 320c0 35.3-28.7 64-64 64L64 480c-35.3 0-64-28.7-64-64L0 96zM224 304l0-112-80 0 0 112 80 0zM432 192l-80 0 0 112 80 0 0-112z"/></svg>