<svg xmlns="http://www.w3.org/2000/svg" viewBox="0 0 448 512"><!--! Font Awesome Pro 7.1.0 by @fontawesome - https://fontawesome.com License - https://fontawesome.com/license (Commercial License) Copyright 2025 Fonticons, Inc. --><path opacity=".4" fill="currentColor" d="M48.2 134.6l0 289.4c0 4.4 3.6 8 8 8l281.4 0c7.1 0 10.7-8.6 5.7-13.7l-92.7-92.7c-3.1-3.1-3.1-8.2 0-11.3L412 153c9.4-9.4 9.4-24.6 0-33.9L361.7 68.8c-9.5-9.5-25-9.3-34.3 .4L174 229.5c-1.5 1.6-3.5 2.4-5.7 2.5s-4.2-.8-5.7-2.3L61.9 129c-5-5-13.7-1.5-13.7 5.7zm117.4 75.4l2.5 2.5 110-115-112.5 112.5zM267.6 320l87 87c2.7 2.7 4.5 5.6 5.7 8.8 0-6.2-2.5-12.3-7-16.8l-82.3-82.3-3.3 3.3z"/><path fill="currentColor" d="M56.2 432c-4.4 0-8-3.6-8-8l0-289.4c0-7.1 8.6-10.7 13.7-5.7L162.6 229.7c1.5 1.5 3.6 2.4 5.7 2.3s4.2-.9 5.7-2.5L327.4 69.2c9.3-9.7 24.8-9.9 34.3-.4L412 119c9.4 9.4 9.4 24.6 0 33.9L250.6 314.3c-3.1 3.1-3.1 8.2 0 11.3l92.7 92.7c5 5 1.5 13.7-5.7 13.7L56.2 432zm-24-8c0 13.3 10.7 24 24 24l281.4 0c21.4 0 32.1-25.9 17-41l-87-87 155.7-155.7c15.6-15.6 15.6-40.9 0-56.6L373 57.5c-15.9-15.9-41.7-15.6-57.2 .6L168.1 212.6 73.2 117.7c-15.1-15.1-41-4.4-41 17l0 289.4z"/></svg>