<svg xmlns="http://www.w3.org/2000/svg" viewBox="0 0 512 512"><!--! Font Awesome Pro 7.1.0 by @fontawesome - https://fontawesome.com License - https://fontawesome.com/license (Commercial License) Copyright 2025 Fonticons, Inc. --><path opacity=".4" fill="currentColor" d="M3.4 465.7c-5 9.9-4.4 21.7 1.4 31.1S20.9 512 32 512l12.9 0c-29.7 0-49.1-31.3-35.8-57.9-1.9 3.9-3.9 7.7-5.8 11.6zm20.1-4.4c-8 16 3.6 34.7 21.5 34.7l422.1 0c17.8 0 29.4-18.8 21.5-34.7L375.6 235.5c-4.5-9.1-6.1-19.4-4.4-29.4L399.8 34.6c.8-4.6-.5-9.4-3.6-13S388.7 16 384 16l-8 0c-6.5 0-12.3 3.9-14.8 9.8L352 48c-16.1 38.8-54 64-96 64s-79.9-25.2-96-64l-9.2-22.2c-2.5-6-8.3-9.8-14.8-9.8l-8 0c-4.7 0-9.2 2.1-12.2 5.7s-4.3 8.3-3.6 13l28.6 171.5c1.7 10 .1 20.3-4.4 29.4L23.5 461.3zM467.1 512l12.9 0c11.1 0 21.4-5.7 27.2-15.2s6.4-21.2 1.4-31.1c-1.9-3.9-3.9-7.7-5.8-11.6 13.3 26.6-6 57.9-35.8 57.9z"/><path fill="currentColor" d="M415.6 37.3c1.5-9.3-1.1-18.8-7.1-25.9S393.4 0 384 0l-8 0c-12.9 0-24.6 7.8-29.5 19.7l-9.2 22.2C323.6 74.6 291.5 96 256 96s-67.6-21.4-81.2-54.2l-9.2-22.2C160.6 7.8 148.9 0 136 0l-8 0c-9.4 0-18.3 4.1-24.4 11.3S94.9 28 96.4 37.3L125 208.7c1.1 6.7 .1 13.5-2.9 19.6L9.2 454.1c-13.3 26.6 6 57.9 35.8 57.9l422.1 0c29.7 0 49.1-31.3 35.8-57.9L389.9 228.3c-3-6-4.1-12.9-2.9-19.6L415.6 37.3zM128 16l8 0c6.5 0 12.3 3.9 14.8 9.8L160 48c16.1 38.8 54 64 96 64s79.9-25.2 96-64l9.2-22.2c2.5-6 8.3-9.8 14.8-9.8l8 0c4.7 0 9.2 2.1 12.2 5.7s4.3 8.3 3.6 13L371.2 206.1c-1.7 10-.1 20.3 4.4 29.4L488.5 461.3c8 16-3.6 34.7-21.5 34.7L44.9 496c-17.8 0-29.4-18.8-21.5-34.7L136.4 235.5c4.5-9.1 6.1-19.4 4.4-29.4L112.2 34.6c-.8-4.6 .5-9.4 3.6-13S123.3 16 128 16z"/></svg>