<svg xmlns="http://www.w3.org/2000/svg" viewBox="0 0 384 512"><!--! Font Awesome Pro 7.1.0 by @fontawesome - https://fontawesome.com License - https://fontawesome.com/license (Commercial License) Copyright 2025 Fonticons, Inc. --><path opacity=".4" fill="currentColor" d="M16 288c0 98.9 80.4 192 176 192s176-93.1 176-192c0-53.4-15.4-118.6-45.8-169.8-30.4-51.2-73.9-86.2-130.2-86.2S92.1 66.9 61.8 118.2C31.4 169.4 16 234.6 16 288zm48-8c0-27.4 5.5-60 16.5-90.8 10.9-30.7 27.5-60.3 50.1-80.9 3.3-3 8.3-2.7 11.3 .5s2.7 8.3-.5 11.3c-20 18.3-35.5 45.2-45.9 74.5-10.4 29.2-15.5 60-15.5 85.4 0 4.4-3.6 8-8 8s-8-3.6-8-8z"/><path fill="currentColor" d="M192 480C96.4 480 16 386.9 16 288 16 234.6 31.4 169.4 61.8 118.2 92.1 66.9 135.7 32 192 32s99.9 34.9 130.2 86.2c30.4 51.3 45.8 116.4 45.8 169.8 0 98.9-80.4 192-176 192zM0 288C0 394 86 496 192 496S384 394 384 288c0-112-64-272-192-272S0 176 0 288zM141.4 120.1c3.3-3 3.5-8 .5-11.3s-8-3.5-11.3-.5c-22.6 20.6-39.2 50.2-50.1 80.9-11 30.8-16.5 63.4-16.5 90.8 0 4.4 3.6 8 8 8s8-3.6 8-8c0-25.4 5.2-56.3 15.5-85.4 10.4-29.2 25.8-56.2 45.9-74.5z"/></svg>