<svg xmlns="http://www.w3.org/2000/svg" viewBox="0 0 512 512"><!--! Font Awesome Pro 7.1.0 by @fontawesome - https://fontawesome.com License - https://fontawesome.com/license (Commercial License) Copyright 2025 Fonticons, Inc. --><path opacity=".4" fill="currentColor" d="M16 256a240 240 0 1 0 480 0 240 240 0 1 0 -480 0zm86.5 61.3c-3.4-11.7 8.4-21 20-17.3 39.9 12.8 85.3 20 133.5 20s93.6-7.2 133.5-20c11.6-3.7 23.4 5.6 20 17.3-19.5 66.3-80.9 114.7-153.5 114.7S122 383.6 102.5 317.3zM120 210c0-30.9 25.1-56 56-56s56 25.1 56 56l0 16c0 4.4-3.6 8-8 8s-8-3.6-8-8l0-16c0-22.1-17.9-40-40-40s-40 17.9-40 40l0 16c0 4.4-3.6 8-8 8s-8-3.6-8-8l0-16zM158 19.4C188.2 6.9 221.3 0 256 0s67.8 6.9 98 19.4c-30.1-12.9-63.2-20-98-20s-67.9 7.1-98 20zM280 210c0-30.9 25.1-56 56-56s56 25.1 56 56l0 16c0 4.4-3.6 8-8 8s-8-3.6-8-8l0-16c0-22.1-17.9-40-40-40s-40 17.9-40 40l0 16c0 4.4-3.6 8-8 8s-8-3.6-8-8l0-16z"/><path fill="currentColor" d="M496 256a240 240 0 1 0 -480 0 240 240 0 1 0 480 0zM0 256a256 256 0 1 1 512 0 256 256 0 1 1 -512 0zm256 80c-49.3 0-96-7.3-137.3-20.4 18.5 58.2 73 100.4 137.3 100.4s118.8-42.2 137.3-100.4C352 328.7 305.3 336 256 336zm153.5-18.7C390 383.6 328.6 432 256 432S122 383.6 102.5 317.3c-3.4-11.7 8.4-21 20-17.3 39.9 12.8 85.3 20 133.5 20s93.6-7.2 133.5-20c11.6-3.7 23.4 5.6 20 17.3zM176 170c-22.1 0-40 17.9-40 40l0 16c0 4.4-3.6 8-8 8s-8-3.6-8-8l0-16c0-30.9 25.1-56 56-56s56 25.1 56 56l0 16c0 4.4-3.6 8-8 8s-8-3.6-8-8l0-16c0-22.1-17.9-40-40-40zm120 40l0 16c0 4.4-3.6 8-8 8s-8-3.6-8-8l0-16c0-30.9 25.1-56 56-56s56 25.1 56 56l0 16c0 4.4-3.6 8-8 8s-8-3.6-8-8l0-16c0-22.1-17.9-40-40-40s-40 17.9-40 40z"/></svg>