<svg xmlns="http://www.w3.org/2000/svg" viewBox="0 0 576 512"><!--! Font Awesome Pro 7.1.0 by @fontawesome - https://fontawesome.com License - https://fontawesome.com/license (Commercial License) Copyright 2025 Fonticons, Inc. --><path opacity=".4" fill="currentColor" d="M80.2 288c0-38.3 10.3-74.1 28.4-104.9 47.8 19.7 107.5 32.9 179.6 32.9s131.9-13.3 179.6-32.9c18 30.8 28.4 66.6 28.4 104.9 0 114.9-93.1 208-208 208s-208-93.1-208-208zm73.7 45.6C171 391.6 224.6 434 288.2 434s117.2-42.4 134.3-100.4c3-10.2-7.4-18.4-17.5-15.1-34.9 11.2-74.7 17.5-116.8 17.5s-81.9-6.3-116.8-17.5c-10.1-3.2-20.5 4.9-17.5 15.1zM192.2 256a16 16 0 1 0 32 0 16 16 0 1 0 -32 0zm160 0a16 16 0 1 0 32 0 16 16 0 1 0 -32 0z"/><path fill="currentColor" d="M305.7-44.6c-6 3.3-12.2 5.4-17.5 5.4l0 16c9.2 0 18.2-3.5 25.2-7.4 9.9-5.4 19.4-9.4 28.8-9.4 11.2 0 21.7 5.9 31.4 17.4 9.8 11.5 18.3 27.9 25.4 46.7 13.3 35.2 21.2 77.2 24.5 107.3-36.4 12.3-81.3 20.6-135.4 20.6-161.7 0-240.8-74.1-259.7-108.7-2.1-3.9-7-5.3-10.9-3.2s-5.3 7-3.2 10.9C36.6 91.6 121.7 168 288.2 168S539.8 91.6 561.9 51c2.1-3.9 .7-8.7-3.2-10.9s-8.7-.7-10.9 3.2c-11.6 21.3-46.2 57.7-108.8 82.4-3.7-30.7-11.7-72-25-107.3-7.4-19.6-16.7-37.9-28.2-51.4-11.6-13.5-26-23-43.6-23-13.7 0-26.1 5.7-36.5 11.4zM93.8 176.7c-18.8 32.8-29.6 70.8-29.6 111.3 0 123.7 100.3 224 224 224s224-100.3 224-224c0-40.5-10.8-78.5-29.6-111.3-4.8 2.2-9.7 4.4-14.8 6.4 18 30.8 28.4 66.6 28.4 104.9 0 114.9-93.1 208-208 208s-208-93.1-208-208c0-38.3 10.3-74.1 28.4-104.9-5.1-2.1-10-4.2-14.8-6.4zM403.1 337.2c-17.5 46.5-62.4 79.6-114.9 79.6s-97.5-33.1-114.9-79.6c34.9 10.4 73.9 16.1 114.9 16.1s80-5.8 114.9-16.1zm1.9-18.7C370.1 329.7 330.4 336 288.2 336s-81.9-6.3-116.8-17.5c-10.1-3.2-20.5 4.9-17.5 15.1 17.1 58 70.8 100.4 134.3 100.4s117.2-42.4 134.3-100.4c3-10.2-7.4-18.4-17.5-15.1zM208.2 272a16 16 0 1 0 0-32 16 16 0 1 0 0 32zm176-16a16 16 0 1 0 -32 0 16 16 0 1 0 32 0z"/></svg>