<svg xmlns="http://www.w3.org/2000/svg" viewBox="0 0 576 512"><!--! Font Awesome Pro 7.0.1 by @fontawesome - https://fontawesome.com License - https://fontawesome.com/license (Commercial License) Copyright 2025 Fonticons, Inc. --><path style="fill:var(--fa-secondary-color,currentColor);opacity:var(--fa-secondary-opacity,.4)" d=""/><path style="fill:var(--fa-primary-color,currentColor);opacity:var(--fa-primary-opacity,1)" d="M48 72c0-4.4-3.6-8-8-8s-8 3.6-8 8l0 368c0 4.4 3.6 8 8 8s8-3.6 8-8l0-176 192 0 0 176c0 4.4 3.6 8 8 8s8-3.6 8-8l0-368c0-4.4-3.6-8-8-8s-8 3.6-8 8l0 176-192 0 0-176zm280-8c-4.4 0-8 3.6-8 8l0 176c0 4.4 3.6 8 8 8l120 0c48.6 0 88 39.4 88 88s-39.4 88-88 88l-120 0c-4.4 0-8 3.6-8 8s3.6 8 8 8l120 0c57.4 0 104-46.6 104-104S505.4 240 448 240l-112 0 0-160 184 0c4.4 0 8-3.6 8-8s-3.6-8-8-8L328 64z"/></svg>