<svg xmlns="http://www.w3.org/2000/svg" viewBox="0 0 576 512"><!--! Font Awesome Pro 7.1.0 by @fontawesome - https://fontawesome.com License - https://fontawesome.com/license (Commercial License) Copyright 2025 Fonticons, Inc. --><path opacity=".4" fill="currentColor" d="M47.4 228.2c-9.8 17.2-9.9 38.3-.1 55.5 32.1 56.1 64.2 112.1 96.3 168.2 9.9 17.3 28.2 28 48 28.2 .2 0 .4 0 .6 0l191.6 0c.2 0 .4 0 .6 0 19.7-.2 37.9-10.8 47.8-27.9 .1-.1 .1-.2 .2-.3l96.2-168.1c9.9-17.4 9.8-38.5 0-55.6-32.1-56-64.1-112-96.2-168.1-10-17.4-28.5-28.2-48.6-28.2L192.2 32c-20.1 0-38.6 10.8-48.6 28.2-32.1 56-64.1 112-96.2 168.1zM192 200c0-4.4 3.6-8 8-8l176 0c4.4 0 8 3.6 8 8s-3.6 8-8 8l-176 0c-4.4 0-8-3.6-8-8zm0 112c0-4.4 3.6-8 8-8l176 0c4.4 0 8 3.6 8 8s-3.6 8-8 8l-176 0c-4.4 0-8-3.6-8-8z"/><path fill="currentColor" d="M47.4 283.9l96.2 168.1c10 17.4 28.5 28.2 48.6 28.2l191.6 0c20.1 0 38.6-10.8 48.6-28.2l96.2-168.1c9.9-17.2 9.9-38.4 0-55.6L432.4 60.2C422.5 42.8 403.9 32 383.8 32L192.2 32c-20.1 0-38.6 10.8-48.6 28.2L47.4 228.2c-9.9 17.2-9.9 38.4 0 55.6zm-13.9 7.9c-12.7-22.2-12.7-49.4 0-71.5L129.7 52.2C142.5 29.8 166.4 16 192.2 16l191.6 0c25.8 0 49.7 13.8 62.5 36.2l96.2 168.1c12.7 22.2 12.7 49.4 0 71.5L446.3 459.9c-12.8 22.4-36.7 36.2-62.5 36.2l-191.6 0c-25.8 0-49.7-13.8-62.5-36.2L33.5 291.8zM192 200c0-4.4 3.6-8 8-8l176 0c4.4 0 8 3.6 8 8s-3.6 8-8 8l-176 0c-4.4 0-8-3.6-8-8zm0 112c0-4.4 3.6-8 8-8l176 0c4.4 0 8 3.6 8 8s-3.6 8-8 8l-176 0c-4.4 0-8-3.6-8-8z"/></svg>