<svg xmlns="http://www.w3.org/2000/svg" viewBox="0 0 576 512"><!--! Font Awesome Pro 7.1.0 by @fontawesome - https://fontawesome.com License - https://fontawesome.com/license (Commercial License) Copyright 2025 Fonticons, Inc. --><path opacity=".4" fill="currentColor" d="M47.4 228.2c-9.9 17.2-9.9 38.4 0 55.6l96.2 168.1c10 17.4 28.5 28.2 48.6 28.2l191.6 0c20.1 0 38.6-10.8 48.6-28.2l96.2-168.1c9.9-17.2 9.9-38.4 0-55.6L432.5 60.2C422.5 42.8 403.9 32 383.8 32L192.2 32c-20.1 0-38.6 10.8-48.6 28.2L47.4 228.2zM304 368a16 16 0 1 1 -32 0 16 16 0 1 1 32 0zM273.9 142.7c-.3-8 6.1-14.7 14.2-14.7l2.9 .3c6.6 1.4 11.5 7.4 11.3 14.4L296 304.3c-.2 4.3-3.7 7.7-8 7.7s-7.8-3.4-8-7.7l-6.2-161.6z"/><path fill="currentColor" d="M383.8 16c25.8 0 49.7 13.8 62.5 36.2l96.2 168c12.7 22.2 12.7 49.4 0 71.5L446.3 459.9c-12.8 22.4-36.7 36.2-62.5 36.2l-191.6 0c-25.8 0-49.7-13.8-62.5-36.2L33.5 291.8c-12.7-22.2-12.7-49.4 0-71.5l96.2-168C142.5 29.8 166.4 16 192.2 16l191.6 0zM192.2 32c-20.1 0-38.6 10.8-48.6 28.2L47.4 228.2c-9.9 17.2-9.9 38.4 0 55.6l96.2 168.1c10 17.4 28.5 28.2 48.6 28.2l191.6 0c20.1 0 38.6-10.8 48.6-28.2l96.2-168.1c9.9-17.2 9.9-38.4 0-55.6L432.5 60.2C422.5 42.8 403.9 32 383.8 32L192.2 32zM288 384a16 16 0 1 1 0-32 16 16 0 1 1 0 32zm2.9-255.7c6.6 1.4 11.5 7.4 11.3 14.4L296 304.3c-.2 4.3-3.7 7.7-8 7.7s-7.8-3.4-8-7.7l-6.2-161.6c-.3-8 6.1-14.7 14.2-14.7l2.9 .3z"/></svg>