<svg xmlns="http://www.w3.org/2000/svg" viewBox="0 0 512 512"><!--! Font Awesome Pro 7.1.0 by @fontawesome - https://fontawesome.com License - https://fontawesome.com/license (Commercial License) Copyright 2025 Fonticons, Inc. --><path opacity=".4" fill="currentColor" d="M16 256l.3 12.3C22.7 395.1 127.6 496 256 496S489.3 395.1 495.7 268.3L496 256c0-97.8-58.5-181.9-142.4-219.3l-8.2-3.5c-4.2-1.7-9.4 1.4-9.4 7l0 63.8-.2 4.1c-1.9 18.8-16.9 33.8-35.7 35.7l-4.1 .2-80 0c-20.7 0-37.7-15.8-39.8-35.9l-.2-4.1 0-63.8c0-4.9-4-7.9-7.8-7.4l-1.6 .4C78.3 68.7 16 155.1 16 256zm96 0a16 16 0 1 1 -32 0 16 16 0 1 1 32 0zm42.2 124.4a16 16 0 1 1 -22.6-22.6 16 16 0 1 1 22.6 22.6zM272 416a16 16 0 1 1 -32 0 16 16 0 1 1 32 0zm108.4-35.6a16 16 0 1 1 -22.6-22.6 16 16 0 1 1 22.6 22.6zM432 256a16 16 0 1 1 -32 0 16 16 0 1 1 32 0z"/><path fill="currentColor" d="M320 40.2c0-15.8 15.6-28.1 31.3-21.8l8.8 3.7C449.6 62 512 151.7 512 256l-.3 13.2C504.8 404.4 393 512 256 512S7.2 404.4 .3 269.2L0 256C0 148.3 66.5 56.2 160.7 18.4l2.9-1c14.7-3.8 28.4 8 28.4 22.8l0 63.8 .1 2.4c1.2 12.1 11.4 21.6 23.9 21.6l80 0 2.5-.1c11.3-1.2 20.3-10.1 21.4-21.4l.1-2.4 0-63.8zm-153.4-7C78.3 68.7 16 155.1 16 256l.3 12.3C22.7 395.1 127.6 496 256 496S489.3 395.1 495.7 268.3L496 256c0-97.8-58.5-181.9-142.4-219.3l-8.2-3.5c-4.2-1.7-9.4 1.4-9.4 7l0 63.8-.2 4.1c-1.9 18.8-16.9 33.8-35.7 35.7l-4.1 .2-80 0c-20.7 0-37.7-15.8-39.8-35.9l-.2-4.1 0-63.8c0-4.9-4-7.9-7.8-7.4l-1.6 .4zM256 432a16 16 0 1 1 0-32 16 16 0 1 1 0 32zM154.2 380.4a16 16 0 1 1 -22.6-22.6 16 16 0 1 1 22.6 22.6zm226.2 0a16 16 0 1 1 -22.6-22.6 16 16 0 1 1 22.6 22.6zM96 272a16 16 0 1 1 0-32 16 16 0 1 1 0 32zm320 0a16 16 0 1 1 0-32 16 16 0 1 1 0 32z"/></svg>