<svg xmlns="http://www.w3.org/2000/svg" viewBox="0 0 448 512"><!--! Font Awesome Pro 7.1.0 by @fontawesome - https://fontawesome.com License - https://fontawesome.com/license (Commercial License) Copyright 2025 Fonticons, Inc. --><path opacity=".4" fill="currentColor" d="M16 136c0 13.1 .6 25.4 3.6 37.3l52.2 208.7 .5 1.9 260.3 0 85.5-99.1c9-10.2 13.9-23.3 13.9-36.9l0-1c0-30.4-24.6-55-55-55-18 0-34.9 8.9-45.2 23.7l-12.1 17.4c-1.8 2.5-4.8 3.8-7.8 3.3s-5.5-2.7-6.4-5.6L267.4 102c-15.1-51-61.9-86-115.1-86L136 16C69.7 16 16 69.7 16 136z"/><path fill="currentColor" d="M136 0C60.9 0 0 60.9 0 136 0 149.4 .6 163.3 4.1 177.2L56 385c-13.8 3.5-24 16.1-24 31l0 64c0 17.7 14.3 32 32 32l288 0c17.7 0 32-14.3 32-32l0-64c0-17.1-13.4-31.1-30.3-32l76.5-88.7 0 0C441.7 282.2 448 265.4 448 248l0-1c0-39.2-31.8-71-71-71-23.3 0-45.1 11.4-58.4 30.6l-2.5 3.7-33.3-112.8C265.7 39.7 212.6 0 152.3 0L136 0zM332.6 384l-260.3 0-.5-1.9-52.2-208.7c-3-12-3.6-24.2-3.6-37.3 0-66.3 53.7-120 120-120l16.3 0c53.2 0 100 35 115.1 86l38.1 128.8c.9 3 3.4 5.1 6.4 5.6s6.1-.8 7.8-3.3l12.1-17.4c10.3-14.8 27.2-23.7 45.2-23.7 30.4 0 55 24.6 55 55l0 1c0 13.6-4.9 26.7-13.8 36.9l0 0-85.5 99.1zM64 400l288 0c8.8 0 16 7.2 16 16l0 64c0 8.8-7.2 16-16 16L64 496c-8.8 0-16-7.2-16-16l0-64c0-8.8 7.2-16 16-16z"/></svg>