<svg xmlns="http://www.w3.org/2000/svg" viewBox="0 0 512 512"><!--! Font Awesome Pro 7.1.0 by @fontawesome - https://fontawesome.com License - https://fontawesome.com/license (Commercial License) Copyright 2025 Fonticons, Inc. --><path opacity=".4" fill="currentColor" d="M16 96c0-26.5 21.5-48 48-48l320 0c26.5 0 48 21.5 48 48l0 105c-19.1-11.8-40.8-19.8-64-23.2l0-41.8c0-13.3-10.7-24-24-24l-104 0c-13.3 0-24 10.7-24 24l0 72.7c-22.7 3.8-40 23.6-40 47.3 0 11.3 3.9 21.6 10.4 29.8-6.7 18.2-10.4 37.8-10.4 58.3 0 13.8 1.7 27.1 4.8 39.9L104 384c-4.4 0-8-3.6-8-8l0-240c0-4.4 3.6-8 8-8l48 0c4.4 0 8-3.6 8-8s-3.6-8-8-8l-48 0c-13.3 0-24 10.7-24 24l0 240c0 13.3 10.7 24 24 24l81.5 0c8.6 24.4 22.7 46.2 40.8 64L64 464c-26.5 0-48-21.5-48-48L16 96zm216 40c0-4.4 3.6-8 8-8l104 0c4.4 0 8 3.6 8 8l0 40.3c-2.7-.1-5.3-.2-8-.2-38.7 0-74.4 13.1-102.8 35.1-3-1.1-6-2-9.2-2.5l0-72.7z"/><path fill="currentColor" d="M384 48L64 48C37.5 48 16 69.5 16 96l0 320c0 26.5 21.5 48 48 48l162.3 0c5.9 5.8 12.2 11.1 18.9 16L64 480c-35.3 0-64-28.7-64-64L0 96C0 60.7 28.7 32 64 32l320 0c35.3 0 64 28.7 64 64l0 116.1c-5.1-4-10.4-7.8-16-11.2l0-105c0-26.5-21.5-48-48-48zm-16 88l0 41.8c-5.3-.8-10.6-1.3-16-1.5l0-40.3c0-4.4-3.6-8-8-8l-104 0c-4.4 0-8 3.6-8 8l0 72.7c3.2 .5 6.3 1.4 9.2 2.5-5.2 4-10.1 8.3-14.8 12.9-.8-.1-1.6-.1-2.4-.1-17.7 0-32 14.3-32 32 0 4.2 .8 8.2 2.3 11.8-3 5.8-5.6 11.8-7.9 18-6.5-8.2-10.4-18.6-10.4-29.8 0-23.8 17.3-43.5 40-47.3l0-72.7c0-13.3 10.7-24 24-24l104 0c13.3 0 24 10.7 24 24zM185.5 400L104 400c-13.3 0-24-10.7-24-24l0-240c0-13.3 10.7-24 24-24l48 0c4.4 0 8 3.6 8 8s-3.6 8-8 8l-48 0c-4.4 0-8 3.6-8 8l0 240c0 4.4 3.6 8 8 8l76.8 0c1.3 5.4 2.9 10.8 4.8 16zM344 448.1a104 104 0 1 0 0-208 104 104 0 1 0 0 208zm0 16c-66.3 0-120-53.7-120-120s53.7-120 120-120 120 53.7 120 120c0 30.2-11.2 57.9-29.6 79l75.3 75.4c3.1 3.1 3.1 8.2 0 11.3s-8.2 3.1-11.3 0l-75.3-75.4c-21.1 18.5-48.8 29.7-79.1 29.7z"/></svg>