<svg xmlns="http://www.w3.org/2000/svg" viewBox="0 0 512 512"><!--! Font Awesome Pro 7.1.0 by @fontawesome - https://fontawesome.com License - https://fontawesome.com/license (Commercial License) Copyright 2025 Fonticons, Inc. --><path opacity=".4" fill="currentColor" d="M16 256a240 240 0 1 0 480 0 240 240 0 1 0 -480 0zM128.5 364l15-60.1c1.4-5.6 4.3-10.8 8.4-14.9L307.4 133.5c15.6-15.6 41-15.6 56.6 0l14.4 14.4c15.6 15.6 15.6 40.9 0 56.6L222.9 359.9c-4.1 4.1-9.2 7-14.9 8.4l-60.1 15c-5.5 1.4-11.2-.2-15.2-4.2s-5.6-9.7-4.2-15.2z"/><path fill="currentColor" d="M256 16a240 240 0 1 1 0 480 240 240 0 1 1 0-480zm0 496a256 256 0 1 0 0-512 256 256 0 1 0 0 512zM132.7 379.2c4 4 9.7 5.6 15.2 4.2l60.1-15-3.9-15.5c-32.5 8.1-52.6 13.1-60.1 15 1.9-7.6 6.9-27.6 15-60.1 .7-2.8 2.2-5.4 4.2-7.4l118.9-118.9 48.3 48.3-118.9 118.9c-2.1 2-4.6 3.5-7.4 4.2l3.9 15.5c5.6-1.4 10.8-4.3 14.9-8.4L378.3 204.5c15.6-15.6 15.6-40.9 0-56.6L364 133.5c-15.6-15.6-40.9-15.6-56.6 0L151.9 289c-4.1 4.1-7 9.2-8.4 14.9l-15 60.1c-1.4 5.5 .2 11.2 4.2 15.2zM367 193.1l-25.3 25.3-48.3-48.3 25.3-25.3c9.4-9.4 24.6-9.4 33.9 0L367 159.2c9.4 9.4 9.4 24.6 0 33.9z"/></svg>