<svg xmlns="http://www.w3.org/2000/svg" viewBox="0 0 512 512"><!--! Font Awesome Pro 7.1.0 by @fontawesome - https://fontawesome.com License - https://fontawesome.com/license (Commercial License) Copyright 2025 Fonticons, Inc. --><path opacity=".4" fill="currentColor" d="M16 264c0 13.3 10.7 24 24 24l152 0c8.8 0 16 7.2 16 16l0 114.7 149.1-170.4c-13.8-5.4-28.6-8.3-43.9-8.3L40 240c-13.3 0-24 10.7-24 24zM208 45.2L208 56c0 4.4 3.6 8 8 8l152 0 0-45.9-153 19.1c-4 .5-7 3.9-7 7.9zM208 448l0 32c0 8.8 7.2 16 16 16l128 0c8.8 0 16-7.2 16-16l0-32-160 0zm9.6-16l150.4 0 0-62.3c0-7.2 4.8-13.5 11.8-15.4s14.3 1.1 18 7.3l53.6 90.6c6.7 11.4 21.5 15.2 32.9 8.5s15.2-21.5 8.5-32.9L416.6 299c-10.9-18.5-26.3-33.3-44.4-43.5L217.6 432zM224 112c0 35.3 28.7 64 64 64s64-28.7 64-64c0-5.5-.7-10.9-2-16-41.3 0-82.6 0-124 0-1.3 5.1-2 10.5-2 16z"/><path fill="currentColor" d="M368 18.1l0 45.9-152 0c-4.4 0-8-3.6-8-8l0-10.8c0-4 3-7.4 7-7.9L368 18.1zM213 21.4c-12 1.5-21 11.7-21 23.8L192 56c0 13.3 10.7 24 24 24l152 0c8.8 0 16-7.2 16-16l0-45.9c0-9.6-8.4-17.1-18-15.9L213 21.4zM357.1 248.3L208 418.7 208 304c0-8.8-7.2-16-16-16L40 288c-13.3 0-24-10.7-24-24s10.7-24 24-24l273.2 0c15.3 0 30.1 2.9 43.9 8.3zM192 440.4l0 39.6c0 17.7 14.3 32 32 32l128 0c17.7 0 32-14.3 32-32l0-110.3c7.1 12 24.9 42.2 53.6 90.6 11.2 19 35.8 25.3 54.8 14.1s25.3-35.8 14.1-54.8L430.3 290.8c-24.5-41.4-69-66.8-117.1-66.8L40 224c-22.1 0-40 17.9-40 40s17.9 40 40 40l152 0 0 135.6c0 .2 0 .5 0 .7zm16 7.6l160 0 0 32c0 8.8-7.2 16-16 16l-128 0c-8.8 0-16-7.2-16-16l0-32zm160-16l-150.4 0 154.5-176.6c18.1 10.2 33.5 25 44.4 43.5l76.1 128.8c6.7 11.4 3 26.1-8.5 32.9s-26.1 3-32.9-8.5l-53.6-90.6c-3.7-6.2-11-9.2-18-7.3S368 362.5 368 369.7l0 62.3zM208 112c0 44.2 35.8 80 80 80s80-35.8 80-80c0-5.5-.6-10.8-1.6-16L350 96c1.3 5.1 2 10.5 2 16 0 35.3-28.7 64-64 64s-64-28.7-64-64c0-5.5 .7-10.9 2-16l-16.4 0c-1 5.2-1.6 10.5-1.6 16z"/></svg>