<svg xmlns="http://www.w3.org/2000/svg" viewBox="0 0 640 512"><!--! Font Awesome Pro 7.1.0 by @fontawesome - https://fontawesome.com License - https://fontawesome.com/license (Commercial License) Copyright 2025 Fonticons, Inc. --><path opacity=".4" fill="currentColor" d="M82.4 155.8c35.2 169.3 168.5 302.6 337.8 337.8 65.7 13.7 121.1-33.7 137-91.8l1.9-6.9c3.5-12.8-3.1-26.3-15.3-31.4l-96.4-40.2c-10.8-4.5-23.2-1.4-30.6 7.7l-44.8 54.7c-2.3 2.8-6.3 3.7-9.6 2.2-76.5-36-137.7-99.2-171.1-177.1-1.4-3.3-.5-7.1 2.3-9.3L245 159.3c9-7.4 12.2-19.9 7.7-30.6L212.5 32.3c-5.1-12.3-18.5-18.8-31.4-15.3l-6.9 1.9c-58.1 15.9-105.5 71.3-91.8 137z"/><path fill="currentColor" d="M464-16c0-4.4-3.6-8-8-8s-8 3.6-8 8l0 224c0 4.4 3.6 8 8 8s8-3.6 8-8l0-224zm80 32c0-4.4-3.6-8-8-8s-8 3.6-8 8l0 160c0 4.4 3.6 8 8 8s8-3.6 8-8l0-160zM384 32c0-4.4-3.6-8-8-8s-8 3.6-8 8l0 128c0 4.4 3.6 8 8 8s8-3.6 8-8l0-128zM624 64c0-4.4-3.6-8-8-8s-8 3.6-8 8l0 64c0 4.4 3.6 8 8 8s8-3.6 8-8l0-64zM181.1 16.9c12.8-3.5 26.3 3.1 31.4 15.3l40.2 96.4c4.5 10.8 1.4 23.2-7.7 30.6l-51.5 42.1c-2.8 2.3-3.7 6.1-2.3 9.3 33.4 77.9 94.6 141.1 171.1 177.1 3.3 1.6 7.3 .7 9.6-2.2L416.7 331c7.4-9 19.9-12.2 30.6-7.7l96.4 40.2c12.3 5.1 18.8 18.5 15.3 31.4l-1.9 6.9c-15.9 58.1-71.3 105.5-137 91.8-169.3-35.2-302.6-168.5-337.8-337.8-13.7-65.7 33.7-121.1 91.8-137l6.9-1.9zm46.1 9.2C219 6.4 197.5-4.1 176.9 1.5L170 3.4C106 20.8 50.9 82.9 66.7 159.1 103.2 334.6 241.4 472.8 416.9 509.3 493.1 525.1 555.2 470 572.6 406l1.9-6.9c5.6-20.6-4.9-42.1-24.6-50.3l-96.4-40.2c-17.3-7.2-37.3-2.2-49.2 12.3l-40.8 49.9C294.9 336.9 239.8 279.9 208.3 210l46.8-38.3c14.5-11.9 19.5-31.9 12.3-49.2L227.2 26.1z"/></svg>