<svg xmlns="http://www.w3.org/2000/svg" viewBox="0 0 576 512"><!--! Font Awesome Pro 7.1.0 by @fontawesome - https://fontawesome.com License - https://fontawesome.com/license (Commercial License) Copyright 2025 Fonticons, Inc. --><path opacity=".4" fill="currentColor" d="M144 240l16 0c25 0 48.1-8.2 66.7-22L144 300.7 144 240zm0 83.3L355.3 112 384 112c10.5 0 20.2 3.4 28 9-.6 .3-1.2 .8-1.7 1.3l-256 256c-.5 .5-1 1.1-1.3 1.7-5.7-7.9-9-17.6-9-28l0-28.7zM164 391c.6-.4 1.2-.8 1.7-1.3l256-256c.5-.5 .9-1.1 1.3-1.7 5.7 7.9 9 17.6 9 28l0 28.7-211.3 211.3-28.7 0c-10.5 0-20.2-3.4-28-9zm79.4 9L326 317.3c-13.8 18.6-22 41.7-22 66.7l0 16-60.7 0zM250 194.7c13.8-18.6 22-41.7 22-66.7l0-16 60.7 0-82.7 82.7zM349.3 294l82.7-82.7 0 60.7-16 0c-25 0-48.1 8.2-66.7 22z"/><path fill="currentColor" d="M64-16C37.5-16 16 5.5 16 32l0 96c0 26.5 21.5 48 48 48l96 0c26.5 0 48-21.5 48-48l0-96c0-26.5-21.5-48-48-48L64-16zM0 32C0-3.3 28.7-32 64-32l96 0c35.3 0 64 28.7 64 64l0 96c0 35.3-28.7 64-64 64l-96 0c-35.3 0-64-28.7-64-64L0 32zM416 336c-26.5 0-48 21.5-48 48l0 96c0 26.5 21.5 48 48 48l96 0c26.5 0 48-21.5 48-48l0-96c0-26.5-21.5-48-48-48l-96 0zm-64 48c0-35.3 28.7-64 64-64l96 0c35.3 0 64 28.7 64 64l0 96c0 35.3-28.7 64-64 64l-96 0c-35.3 0-64-28.7-64-64l0-96zM128 320l0-80 16 0 0 60.7 188.7-188.7-60.7 0 0-16 112 0c35.3 0 64 28.7 64 64l0 112-16 0 0-60.7-188.7 188.7 60.7 0 0 16-112 0c-35.3 0-64-28.7-64-64l0-32zm16 3.3l0 28.7c0 10.5 3.4 20.2 9 28 .3-.6 .8-1.2 1.3-1.7l256-256c.5-.5 1.1-1 1.7-1.3-7.9-5.7-17.6-9-28-9L355.3 112 144 323.3zM220.7 400L432 188.7 432 160c0-10.5-3.4-20.2-9-28-.3 .6-.8 1.2-1.3 1.7l-256 256c-.5 .5-1.1 1-1.7 1.3 7.9 5.7 17.6 9 28 9l28.7 0z"/></svg>