<svg xmlns="http://www.w3.org/2000/svg" viewBox="0 0 512 512"><!--! Font Awesome Pro 7.1.0 by @fontawesome - https://fontawesome.com License - https://fontawesome.com/license (Commercial License) Copyright 2025 Fonticons, Inc. --><path opacity=".4" fill="currentColor" d="M32 139.9l.6 19c5.4 98.9 50 255.9 203.6 329.6l5.5 2.3c11.1 3.7 23.2 3.1 33.9-2l15-7.7c151.6-81.7 189-247.4 189.5-341l-.1-3.8-.8-6c-2.9-13.7-12.2-25.1-24.5-31.3-1-.5-2-1-3-1.4L274.8 22.6c-10.5-4.4-22.1-5-32.9-1.7l-4.6 1.7-176.7 74.9c-16.6 7-28.6 23.3-28.6 42.4zM144 344c0-39.8 32.2-72 72-72l80 0c39.8 0 72 32.2 72 72l0 16c0 4.4-3.6 8-8 8-.1 0-.2 0-.3 0l-207.4 0c-.1 0-.2 0-.3 0-4.4 0-8-3.6-8-8l0-16zM320 176a64 64 0 1 1 -128 0 64 64 0 1 1 128 0z"/><path fill="currentColor" d="M231.1 7.8c16-6.8 34-6.8 50 0l176.7 74.9 4 1.9c18.6 9.5 32.4 28 34.1 50.4l.2 4.8-.6 19.5c-5.5 102-51.5 266.3-213 343.7l-5.6 2.3c-11.3 4.1-23.5 4.7-35.1 2l-5.7-1.7-6.4-2.6C68.1 425.8 22.1 261.5 16.6 159.5L16 140c-.1-24.6 14.3-45.2 34.2-55.3l4.1-1.9 176.8-74.9zm43.7 14.8c-10.5-4.4-22.1-5-32.9-1.7l-4.6 1.7-176.7 74.9c-16.6 7-28.6 23.3-28.6 42.4l.6 19c5.4 98.9 50 255.9 203.6 329.6l5.5 2.3c11.1 3.7 23.2 3.1 33.9-2l15-7.7c151.6-81.7 189-247.4 189.5-341l-.1-3.8-.8-6c-2.9-13.7-12.2-25.1-24.5-31.3l0 0-3-1.4-176.7-74.9zM296 272c39.8 0 72 32.2 72 72l0 16c0 4.4-3.6 8-8 8s-8-3.6-8-8l0-16c0-30.9-25.1-56-56-56l-80 0c-30.9 0-56 25.1-56 56l0 16c0 4.4-3.6 8-8 8s-8-3.6-8-8l0-16c0-39.8 32.2-72 72-72l80 0zm-40-32a64 64 0 1 1 0-128 64 64 0 1 1 0 128zm0-112a48 48 0 1 0 0 96 48 48 0 1 0 0-96z"/></svg>