<svg xmlns="http://www.w3.org/2000/svg" viewBox="0 0 512 512"><!--! Font Awesome Pro 7.1.0 by @fontawesome - https://fontawesome.com License - https://fontawesome.com/license (Commercial License) Copyright 2025 Fonticons, Inc. --><path opacity=".4" fill="currentColor" d="M16 256C16 156.3 65.3 68.2 140.8 14.5l1.2-1.1c2.5-2.7 2.9-6.9 .7-10.1 20.1 28.3 40.1 56.7 60.2 85-54.7 35.7-90.9 97.4-90.9 167.7 0 79.5 64.5 144 144 144s144-64.5 144-144c0-48.6-39.4-88-88-88s-88 39.4-88 88c0 4.4 3.6 8 8 8s8-3.6 8-8c0-39.8 32.2-72 72-72s72 32.2 72 72c0 70.7-57.3 128-128 128S128 326.7 128 256c0-101.6 82.4-184 184-184s184 82.4 184 184c0 132.5-107.5 240-240 240S16 388.6 16 256z"/><path fill="currentColor" d="M133 .7c3.4-1.5 7.5-.5 9.8 2.7 2.2 3.2 1.9 7.4-.7 10.1l-1.2 1.1C65.3 68.2 16 156.3 16 256 16 388.6 123.5 496 256 496S496 388.6 496 256c0-101.6-82.4-184-184-184S128 154.4 128 256c0 70.7 57.3 128 128 128s128-57.3 128-128c0-39.8-32.2-72-72-72s-72 32.2-72 72c0 4.4-3.6 8-8 8s-8-3.6-8-8c0-48.6 39.4-88 88-88s88 39.4 88 88c0 79.5-64.5 144-144 144S112 335.5 112 256c0-110.5 89.5-200 200-200s200 89.5 200 200c0 141.4-114.6 256-256 256S0 397.4 0 256C0 150.9 52 58 131.6 1.4L133 .7z"/></svg>