<svg xmlns="http://www.w3.org/2000/svg" viewBox="0 0 448 512"><!--! Font Awesome Pro 7.0.1 by @fontawesome - https://fontawesome.com License - https://fontawesome.com/license (Commercial License) Copyright 2025 Fonticons, Inc. --><path style="fill:var(--fa-secondary-color,currentColor);opacity:var(--fa-secondary-opacity,.4)" d="M16 96l0 320c0 26.5 21.5 48 48 48l152 0 0-416-152 0C37.5 48 16 69.5 16 96z"/><path style="fill:var(--fa-primary-color,currentColor);opacity:var(--fa-primary-opacity,1)" d="M232 48l0 416 152 0c26.5 0 48-21.5 48-48l0-320c0-26.5-21.5-48-48-48L232 48zm-16 0L64 48C37.5 48 16 69.5 16 96l0 320c0 26.5 21.5 48 48 48l152 0 0-416zM0 96C0 60.7 28.7 32 64 32l320 0c35.3 0 64 28.7 64 64l0 320c0 35.3-28.7 64-64 64L64 480c-35.3 0-64-28.7-64-64L0 96z"/></svg>