<svg xmlns="http://www.w3.org/2000/svg" viewBox="0 0 448 512"><!--! Font Awesome Pro 7.1.0 by @fontawesome - https://fontawesome.com License - https://fontawesome.com/license (Commercial License) Copyright 2025 Fonticons, Inc. --><path opacity=".4" fill="currentColor" d="M16 96l0 320c0 26.5 21.5 48 48 48l320 0c26.5 0 48-21.5 48-48l0-320c0-26.5-21.5-48-48-48L64 48C37.5 48 16 69.5 16 96zm96 56c0-4.4 3.6-8 8-8s8 3.6 8 8l0 142.9 82.9-69.1c3.4-2.8 8.4-2.4 11.3 1s2.4 8.4-1 11.3l-46 38.3 48 96c2 4 .4 8.8-3.6 10.7s-8.8 .4-10.7-3.6L162.5 287 128 315.7 128 376c0 4.4-3.6 8-8 8s-8-3.6-8-8l0-224zm160 96c0-4.4 3.6-8 8-8s8 3.6 8 8l0 10.6c1.4-1.5 2.9-2.9 4.4-4.3 10.7-9.2 24.3-14.3 38.5-14.3l13.1 0c4.4 0 8 3.6 8 8s-3.6 8-8 8l-13.1 0c-10.3 0-20.2 3.7-28 10.4-9.5 8.2-14.9 20-14.9 32.5l0 77.1c0 4.4-3.6 8-8 8s-8-3.6-8-8l0-128zm80 120a16 16 0 1 1 -32 0 16 16 0 1 1 32 0z"/><path fill="currentColor" d="M384 48c26.5 0 48 21.5 48 48l0 320c0 26.5-21.5 48-48 48L64 464c-26.5 0-48-21.5-48-48L16 96c0-26.5 21.5-48 48-48l320 0zM64 32C28.7 32 0 60.7 0 96L0 416c0 35.3 28.7 64 64 64l320 0c35.3 0 64-28.7 64-64l0-320c0-35.3-28.7-64-64-64L64 32zm64 120c0-4.4-3.6-8-8-8s-8 3.6-8 8l0 224c0 4.4 3.6 8 8 8s8-3.6 8-8l0-60.3 34.5-28.8 46.3 92.6c2 4 6.8 5.6 10.7 3.6s5.6-6.8 3.6-10.7l-48-96 46-38.3c3.4-2.8 3.9-7.9 1-11.3s-7.9-3.9-11.3-1L128 294.9 128 152zM330.9 256l13.1 0c4.4 0 8-3.6 8-8s-3.6-8-8-8l-13.1 0c-14.1 0-27.8 5.1-38.5 14.3-1.6 1.3-3 2.8-4.4 4.3l0-10.6c0-4.4-3.6-8-8-8s-8 3.6-8 8l0 128c0 4.4 3.6 8 8 8s8-3.6 8-8l0-77.1c0-12.5 5.4-24.4 14.9-32.5 7.8-6.7 17.7-10.4 28-10.4zM336 384a16 16 0 1 0 0-32 16 16 0 1 0 0 32z"/></svg>