<svg xmlns="http://www.w3.org/2000/svg" viewBox="0 0 448 512"><!--! Font Awesome Pro 7.1.0 by @fontawesome - https://fontawesome.com License - https://fontawesome.com/license (Commercial License) Copyright 2025 Fonticons, Inc. --><path opacity=".4" fill="currentColor" d="M16 96l0 320c0 26.5 21.5 48 48 48l320 0c26.5 0 48-21.5 48-48l0-320c0-26.5-21.5-48-48-48L64 48C37.5 48 16 69.5 16 96zm98.3 178.3c3.1-3.1 8.2-3.1 11.3 0L191 339.7 321.4 160.4c2.6-3.6 7.6-4.3 11.2-1.8s4.4 7.6 1.8 11.2L198.5 356.7c-1.4 1.9-3.5 3.1-5.8 3.3s-4.6-.7-6.3-2.3l-72-72c-3.1-3.1-3.1-8.2 0-11.3z"/><path fill="currentColor" d="M384 32c35.3 0 64 28.7 64 64l0 320c0 35.3-28.7 64-64 64L64 480c-35.3 0-64-28.7-64-64L0 96C0 60.7 28.7 32 64 32l320 0zM64 48C37.5 48 16 69.5 16 96l0 320c0 26.5 21.5 48 48 48l320 0c26.5 0 48-21.5 48-48l0-320c0-26.5-21.5-48-48-48L64 48zM321.4 160.4c2.6-3.6 7.6-4.3 11.2-1.8s4.4 7.6 1.8 11.2L198.5 356.7c-1.4 1.9-3.5 3.1-5.8 3.3s-4.6-.7-6.3-2.3l-72-72c-3.1-3.1-3.1-8.2 0-11.3s8.2-3.1 11.3 0L191 339.7 321.4 160.4z"/></svg>