<svg xmlns="http://www.w3.org/2000/svg" viewBox="0 0 640 512"><!--! Font Awesome Pro 7.1.0 by @fontawesome - https://fontawesome.com License - https://fontawesome.com/license (Commercial License) Copyright 2025 Fonticons, Inc. --><path opacity=".4" fill="currentColor" d="M24.8 160l53 28.6c3.3 1.8 5 5.7 3.9 9.3l-17.3 57.6 57.7-17.2 1.4-.3c3.2-.4 6.4 1.2 8 4.2l28.6 53 28.6-53 .8-1.2c2-2.5 5.4-3.6 8.6-2.7l57.6 17.2-17.2-57.6c-1.1-3.6 .5-7.5 3.9-9.3l53-28.6-53-28.6c-3.3-1.8-5-5.7-3.9-9.3l17.2-57.7-57.6 17.3c-3.6 1.1-7.5-.5-9.3-3.9l-28.6-53-28.6 53c-1.8 3.3-5.7 5-9.3 3.9L64.4 64.4 81.7 122.1c1 3.2-.2 6.6-2.7 8.6l-1.2 .8-53 28.6zm183.8 1.2a48 48 0 1 1 -96 0 48 48 0 1 1 96 0zM328 338.1c0 7.4 4.3 19 12.8 32.7 7.1 11.3 16.6 23.2 27.2 33.9 10.6-10.8 20.1-22.7 27.2-34 8.5-13.7 12.8-25.3 12.8-32.6 0-14.1-4.4-24.4-11.1-31.3S380.3 296 368 296 345.8 300 339.1 306.8 328 324 328 338.1zm216-64c0 7.4 4.3 19 12.8 32.7 7.1 11.3 16.6 23.2 27.2 33.9 10.6-10.8 20.1-22.7 27.2-34 8.5-13.7 12.8-25.3 12.8-32.6 0-14.1-4.4-24.4-11.1-31.3S596.3 232 584 232 561.8 236 555.1 242.8 544 260 544 274.1z"/><path fill="currentColor" d="M536 104c30.9 0 56 25.1 56 56l0 56.5c12.6 1.5 23.8 6.5 32.3 15.1 10.2 10.3 15.7 25 15.7 42.5 0 12-6.4 26.8-15.3 41-9.1 14.6-21.5 29.8-35.2 42.7l-1.3 1c-3 1.9-7.1 1.6-9.8-1-13.7-12.9-26.1-28.1-35.2-42.6-8.9-14.2-15.3-29-15.3-41.1 0-17.5 5.5-32.2 15.7-42.5 8.5-8.6 19.7-13.6 32.3-15.1l0-56.5c0-22.1-17.9-40-40-40s-40 17.9-40 40l0 336 136 0c4.4 0 8 3.6 8 8s-3.6 8-8 8L8 512c-4.4 0-8-3.6-8-8s3.6-8 8-8l472 0 0-236c0-28.7-23.3-52-52-52s-52 23.3-52 52l0 20.5c12.6 1.5 23.8 6.5 32.3 15.1 10.2 10.3 15.7 25 15.7 42.5 0 12-6.4 26.8-15.3 41-9.1 14.6-21.5 29.8-35.2 42.7l-1.3 1c-3 1.9-7.1 1.6-9.8-1-13.7-12.9-26.1-28.1-35.2-42.6-8.9-14.2-15.3-29-15.3-41.1 0-17.5 5.5-32.2 15.7-42.5 8.5-8.6 19.7-13.6 32.3-15.1l0-20.5c0-37.6 30.4-68 68-68 20.9 0 39.5 9.4 52 24.2l0-56.2c0-30.9 25.1-56 56-56zM368 296c-12.3 0-22.2 4-28.9 10.8S328 324 328 338.1c0 7.4 4.3 19 12.8 32.7 7.1 11.3 16.6 23.2 27.2 33.9 10.6-10.8 20.1-22.7 27.2-34 8.5-13.7 12.8-25.3 12.8-32.6 0-14.1-4.4-24.4-11.1-31.3S380.3 296 368 296zm216-64c-12.3 0-22.2 4-28.9 10.8S544 260 544 274.1c0 7.4 4.3 19 12.8 32.7 7.1 11.3 16.6 23.2 27.2 33.9 10.6-10.8 20.1-22.7 27.2-34 8.5-13.7 12.8-25.3 12.8-32.6 0-14.1-4.4-24.4-11.1-31.3S596.3 232 584 232zM160 0c2.9 0 5.6 1.6 7 4.2l32.5 60.3 65.6-19.7c2.8-.8 5.9 0 7.9 2s2.9 5.1 2 7.9l-19.7 65.6 60.3 32.6c2.6 1.4 4.2 4.1 4.2 7s-1.6 5.6-4.2 7l-60.3 32.5 19.7 65.6c.8 2.8 0 5.9-2 7.9s-5.1 2.9-7.9 2l-65.6-19.7-32.5 60.3c-1.4 2.6-4.1 4.2-7 4.2s-5.6-1.6-7-4.2l-32.6-60.3-65.6 19.7c-2.8 .8-5.9 0-7.9-2s-2.9-5.1-2-7.9L64.5 199.6 4.2 167c-2.6-1.4-4.2-4.1-4.2-7s1.6-5.6 4.2-7l60.3-32.6-19.7-65.6c-.8-2.8 0-5.9 2-7.9s5.1-2.9 7.9-2l65.6 19.7 32.6-60.3 1.3-1.8C155.7 .9 157.8 0 160 0zM131.4 77.8c-1.8 3.3-5.7 5-9.3 3.9L64.4 64.4 81.7 122.1c1 3.2-.2 6.6-2.7 8.6l-1.2 .8-53 28.6 53 28.6c3.3 1.8 5 5.7 3.9 9.3l-17.3 57.6 57.7-17.2 1.4-.3c3.2-.4 6.4 1.2 8 4.2l28.6 53 28.6-53 .8-1.2c2-2.5 5.4-3.6 8.6-2.7l57.6 17.2-17.2-57.6c-1.1-3.6 .5-7.5 3.9-9.3l53-28.6-53-28.6c-3.3-1.8-5-5.7-3.9-9.3l17.2-57.7-57.6 17.3c-3.6 1.1-7.5-.5-9.3-3.9l-28.6-53-28.6 53zm29.2 131.3a48 48 0 1 1 0-96 48 48 0 1 1 0 96zm0-80a32 32 0 1 0 0 64 32 32 0 1 0 0-64z"/></svg>