<svg xmlns="http://www.w3.org/2000/svg" viewBox="0 0 576 512"><!--! Font Awesome Pro 7.1.0 by @fontawesome - https://fontawesome.com License - https://fontawesome.com/license (Commercial License) Copyright 2025 Fonticons, Inc. --><path opacity=".4" fill="currentColor" d="M16 131.2c0 7.3 5.8 12.8 12.4 12.8l135.2 0c6.5 0 12.2-5.3 12.4-12.4l0-.9c-.1-3.3-1.5-6.4-3.7-8.7L101.6 50.4c-3.1-3.2-8.1-3.2-11.2 0L19.7 122.1c-2.4 2.4-3.7 5.7-3.7 9.1zM400 380.8c0 3.5 1.4 6.7 3.7 9.1l70.7 71.7c3.1 3.1 8.1 3.1 11.2 0l70.7-71.7c2.3-2.3 3.6-5.5 3.7-8.8-.2-7.7-5.9-13.1-12.4-13.1l-135.2 0c-6.6 0-12.4 5.5-12.4 12.8z"/><path fill="currentColor" d="M28.4 160l59.6 0 0 216c0 57.4 46.6 104 104 104s104-46.6 104-104l0-240c0-48.6 39.4-88 88-88s88 39.4 88 88l0 216-59.6 0c-15.7 0-28.4 12.9-28.4 28.8 0 7.6 3 15 8.3 20.4L463 472.9c9.4 9.5 24.6 9.5 33.9 0l70.7-71.7c5.3-5.4 8.3-12.7 8.3-20.4 0-15.9-12.7-28.8-28.4-28.8l-59.6 0 0-216c0-57.4-46.6-104-104-104S280 78.6 280 136l0 240c0 48.6-39.4 88-88 88s-88-39.4-88-88l0-216 59.6 0c15.7 0 28.4-12.9 28.4-28.8 0-7.6-3-15-8.3-20.4L113 39.1c-9.4-9.5-24.6-9.5-33.9 0L8.3 110.8C3 116.2 0 123.5 0 131.2 0 147.1 12.7 160 28.4 160zM480 368l67.6 0c6.7 0 12.4 5.5 12.4 12.8 0 3.5-1.4 6.7-3.7 9.1l-70.7 71.7c-3.1 3.1-8.1 3.1-11.2 0l-70.7-71.7c-2.4-2.4-3.7-5.7-3.7-9.1 0-7.3 5.8-12.8 12.4-12.8l67.6 0zM101.6 50.4l70.7 71.7c2.4 2.4 3.7 5.7 3.7 9.1 0 7.3-5.8 12.8-12.4 12.8L28.4 144c-6.7 0-12.4-5.5-12.4-12.8 0-3.5 1.4-6.8 3.7-9.1L90.4 50.4c3.1-3.2 8.1-3.2 11.2 0z"/></svg>