<svg xmlns="http://www.w3.org/2000/svg" viewBox="0 0 640 512"><!--! Font Awesome Pro 7.1.0 by @fontawesome - https://fontawesome.com License - https://fontawesome.com/license (Commercial License) Copyright 2025 Fonticons, Inc. --><path opacity=".4" fill="currentColor" d="M224 48l0 128 225.6 0c12.8-12.6 28.7-22.1 46.4-27.4L496 96c0-26.5-21.5-48-48-48L224 48zm0 144l0 128 156.8 0c8.4-14.6 20.6-26.8 35.2-35.3l0-28.7c0-23.8 7.4-45.9 20.1-64L224 192zm0 144l0 128 144 0 0-96.1c0-11.2 1.9-21.9 5.4-31.9L224 336z"/><path fill="currentColor" d="M224 48l224 0c26.5 0 48 21.5 48 48l0 52.6c5.2-1.5 10.5-2.7 16-3.5L512 96c0-35.3-28.7-64-64-64L128 32C92.7 32 64 60.7 64 96l0 320c0 35.3 28.7 64 64 64l241.3 0c-.9-5.2-1.3-10.5-1.3-16l-144 0 0-128 149.4 0c2-5.6 4.4-10.9 7.4-16l-156.8 0 0-128 212.1 0c4-5.8 8.6-11.1 13.5-16L224 176 224 48zm-16 0l0 416-80 0c-26.5 0-48-21.5-48-48L80 96c0-26.5 21.5-48 48-48l80 0zM576 256.1l0 63.9-96 0 0-63.9c0-26.5 21.5-48 48-48s48 21.5 48 48zM432 368c0-17.7 14.3-32 32-32l0 .1 128 0 0-.1c17.7 0 32 14.3 32 32l0 96c0 17.7-14.3 32-32 32l-128 0c-17.7 0-32-14.3-32-32l0-96zM592 256.1c0-35.3-28.7-64-64-64s-64 28.7-64 64l0 63.9c-26.5 0-48 21.5-48 48l0 96c0 26.5 21.5 48 48 48l128 0c26.5 0 48-21.5 48-48l0-96c0-26.5-21.5-48-48-48l0-63.9z"/></svg>