<svg xmlns="http://www.w3.org/2000/svg" viewBox="0 0 512 512"><!--! Font Awesome Pro 7.1.0 by @fontawesome - https://fontawesome.com License - https://fontawesome.com/license (Commercial License) Copyright 2025 Fonticons, Inc. --><path opacity=".4" fill="currentColor" d="M20.8 429.4c-3.7 6.9-3.6 15.3 .5 22.1l1.7 2.4c4.2 5.3 10.7 8.5 17.6 8.5l432 0c7.9 0 15.2-4.2 19.2-10.9l1.3-2.6c2.3-5.4 2.4-11.4 .3-16.8l-1.2-2.7-216-400c-3.4-6.3-9.6-10.6-16.7-11.6l-3-.2c-7 0-13.6 3.3-17.8 8.8l-2.3 3.7-215.6 399.3z"/><path fill="currentColor" d="M261.9 .4c12.5 1.7 23.6 9.3 29.8 20.6l216 400c6.7 12.4 6.4 27.4-.8 39.5l-3 4.3c-6.4 8.2-15.8 13.5-26.2 14.8l-5.2 .3-432 0-5.2-.3C25 478.3 15.6 473 9.1 464.8l-3-4.3c-6.3-10.6-7.4-23.4-3-34.7l2.2-4.8 216-400 2.9-4.6C231.7 6.2 243.6 0 256.5 0l5.4 .4zm-5.4 17.2c-7 0-13.6 3.3-17.8 8.8l-2.3 3.7-215.6 399.3c-3.7 6.9-3.6 15.3 .5 22.1l1.7 2.4c4.2 5.3 10.7 8.5 17.6 8.5l432 0c7.9 0 15.2-4.2 19.2-10.9l1.3-2.6c2.3-5.4 2.4-11.4 .3-16.8l-1.2-2.7-216-400c-3.4-6.3-9.6-10.6-16.7-11.6l-3-.2z"/></svg>