<svg xmlns="http://www.w3.org/2000/svg" viewBox="0 0 640 512"><!--! Font Awesome Pro 7.1.0 by @fontawesome - https://fontawesome.com License - https://fontawesome.com/license (Commercial License) Copyright 2025 Fonticons, Inc. --><path opacity=".4" fill="currentColor" d="M40.1 512c4.4 0 8-3.6 8-8l0-24c0-88.4 71.6-160 160-160l96 0c88.4 0 160 71.6 160 160l0 24c0 4.4 3.6 8 8 8l-432 0zm328-384a112 112 0 1 1 -224 0 112 112 0 1 1 224 0z"/><path fill="currentColor" d="M304.1 304c97.2 0 176 78.8 176 176l0 24c0 4.4-3.6 8-8 8s-8-3.6-8-8l0-24c0-88.4-71.6-160-160-160l-96 0c-88.4 0-160 71.6-160 160l0 24c0 4.4-3.6 8-8 8s-8-3.6-8-8l0-24c0-97.2 78.8-176 176-176l96 0zM609.8 99.7c2.6-3.6 7.6-4.3 11.2-1.7s4.3 7.6 1.8 11.2L509 265.5c-1.4 1.9-3.6 3.1-5.9 3.3s-4.7-.7-6.3-2.4l-62.3-64.5c-3.1-3.2-3-8.2 .2-11.3s8.2-3 11.3 .2l55.7 57.6 108.1-148.7zM256.1 256a128 128 0 1 1 0-256 128 128 0 1 1 0 256zm0-240a112 112 0 1 0 0 224 112 112 0 1 0 0-224z"/></svg>