<svg xmlns="http://www.w3.org/2000/svg" viewBox="0 0 576 512"><!--! Font Awesome Pro 7.1.0 by @fontawesome - https://fontawesome.com License - https://fontawesome.com/license (Commercial License) Copyright 2025 Fonticons, Inc. --><path opacity=".4" fill="currentColor" d="M69.1 269.8C52.4 299.1 56.6 337 81.6 362l43.8 43.8 7.8-10c22.3-28.6 21.3-68.6-1.5-96l-4.8-5.3-42.7-42.7-3.7 3.7c-4.4 4.4-8.3 9.3-11.4 14.4zm69.1 148.8L182 462.4c25 25 62.9 29.1 92.2 12.4 5.1-3.2 9.9-7 14.3-11.4l3.7-3.7-42.7-42.7c-27.4-27.4-70.8-30.1-101.3-6.3l-10.1 7.8zm34.9-252.8c-16.7 29.2-12.6 67.2 12.4 92.2l43.8 43.8 7.8-10c22.3-28.6 21.3-68.6-1.5-96l-4.8-5.3-42.7-42.7-3.7 3.7c-4.4 4.4-8.3 9.3-11.4 14.4zm69.1 148.8L286 358.4c25 25 62.9 29.1 92.2 12.4 5.1-3.2 9.9-7 14.3-11.4l3.7-3.7-42.7-42.7c-27.4-27.4-70.8-30.1-101.3-6.3l-10.1 7.8zM277.1 61.9C260.4 91.1 264.6 129 289.6 154l43.8 43.8 7.8-10c22.3-28.6 21.3-68.6-1.5-96l-4.8-5.3-42.7-42.7-3.7 3.7c-4.5 4.5-8.3 9.3-11.5 14.4zm69.1 148.8L390 254.4c25 25 63 29.1 92.2 12.4 5.1-3.2 9.9-7 14.3-11.4l3.7-3.7-42.7-42.7c-27.4-27.3-70.8-30.1-101.3-6.3l-10.1 7.8zM432 77c0 1 0 2 0 3l0 32 32 0c1 0 2 0 3 0 42.8-1.6 77-36.8 77-80 0-10.7 0-21.3 0-32L512 0c-1 0-2 0-3 0-41.8 1.6-75.4 35.2-77 77z"/><path fill="currentColor" d="M79.4 233.3c3.1-2 7.3-1.7 10 1l48.8 48.8 5.8 6.4c22.9 27.6 27.4 65.6 12.9 97.5 34.5-15.7 76.1-9.1 104 18.7l48.8 48.8c1.5 1.5 2.3 3.5 2.3 5.7 0 1.6-.5 3.1-1.3 4.4l-1 1.2-7.9 7.8c-36.2 36.2-94.9 36.2-131.1 0l-44.6-44.6-88.5 88.5c-3.1 3.1-8.2 3.1-11.3 0s-3.1-8.2 0-11.3l88.5-88.5-44.6-44.6C34 337.1 34 278.4 70.3 242.2l7.8-7.9 1.3-1zM249.6 417.1c-27.4-27.4-70.8-30.1-101.3-6.3l-10.1 7.8 43.8 43.8c30 30 78.5 30 108.5 0l2.2-2.2-43.1-43.1zM81.6 253.5c-30 30-30 78.5 0 108.5l43.8 43.8 7.8-10c22.3-28.6 21.3-68.6-1.5-96l-4.8-5.3-43.1-43.1-2.2 2.2zM183.4 129.3c3.1-2 7.3-1.7 10 1l48.8 48.8 5.8 6.4c22.9 27.6 27.4 65.6 12.9 97.5 34.5-15.7 76.1-9.1 104 18.7l48.8 48.8c1.5 1.5 2.3 3.5 2.3 5.7 0 1.6-.5 3.1-1.3 4.4l-1 1.2-7.9 7.8c-36.2 36.2-94.9 36.2-131.1 0L174.3 269.3c-36.2-36.2-36.2-94.9 0-131.1l7.8-7.9 1.3-1zM353.6 313.1c-27.4-27.4-70.8-30.1-101.3-6.3l-10.1 7.8 43.8 43.8c30 30 78.5 30 108.5 0l2.2-2.2-43.1-43.1zm-168-163.6c-30 30-30 78.5 0 108.5l43.8 43.8 7.8-10c22.3-28.6 21.3-68.6-1.5-96l-4.8-5.3-43.1-43.1-2.2 2.2zM287.4 25.3c3.1-2 7.3-1.7 10 1l48.8 48.8 5.8 6.4c22.9 27.6 27.4 65.6 12.9 97.5 34.5-15.7 76.1-9.1 104 18.8l48.8 48.8c1.5 1.5 2.3 3.5 2.3 5.7 0 1.6-.5 3.1-1.3 4.4l-1 1.2-7.9 7.8c-36.2 36.2-94.9 36.2-131.1 0L278.3 165.3c-36.2-36.2-36.2-94.9 0-131.1l7.8-7.9 1.3-1zM457.6 209.1c-27.4-27.3-70.8-30.1-101.3-6.3l-10.1 7.8 43.8 43.8c30 30 78.5 30 108.5 0l2.2-2.2-43.1-43.1zM289.6 45.5c-30 30-30 78.5 0 108.5l43.8 43.8 7.8-10c22.3-28.6 21.3-68.6-1.5-96l-4.8-5.3-43.1-43.1-2.2 2.2zM552-16c2.1 0 4.2 .8 5.7 2.3S560-10.1 560-8l0 40c0 53-43 96-96 96l-40 0c-2.1 0-4.2-.8-5.7-2.3s-2.3-3.5-2.3-5.7l0-40c0-53 43-96 96-96l40 0zM512 0c-44.2 0-80 35.8-80 80l0 32 32 0c44.2 0 80-35.8 80-80l0-32-32 0z"/></svg>