<svg xmlns="http://www.w3.org/2000/svg" viewBox="0 0 512 512"><!--! Font Awesome Pro 7.1.0 by @fontawesome - https://fontawesome.com License - https://fontawesome.com/license (Commercial License) Copyright 2025 Fonticons, Inc. --><path fill="currentColor" d="M64 32C28.7 32 0 60.7 0 96L0 352c0 35.3 28.7 64 64 64l28.1 0 1.9-1.9c101-101 155-155 161.9-161.9 6.9 6.9 60.9 60.9 161.9 161.9l1.9 1.9 28.1 0c35.3 0 64-28.7 64-64l0-256c0-35.3-28.7-64-64-64L64 32zM256 320l-128 128 0 64 256 0 0-64-128-128z"/></svg>