<svg xmlns="http://www.w3.org/2000/svg" viewBox="0 0 640 512"><!--! Font Awesome Pro 7.1.0 by @fontawesome - https://fontawesome.com License - https://fontawesome.com/license (Commercial License) Copyright 2025 Fonticons, Inc. --><path fill="currentColor" d="M621.5 512L576.3 557.3 19 0 64.3-45.2 621.5 512zM411.7 483.2c-25.9 18.1-57.4 28.8-91.5 28.8-52.3 0-98.8-25.1-128-64l-96 0 0-64 67.2 0c-2.1-10.3-3.2-21-3.2-32l0-32-64 0 0-64 64 0 0-24.2 251.5 251.5zM474.9 17.8L433.8 79.3c13.8 13.9 25.1 30.4 33.1 48.7l77.3 0 0 64-64 0 0 64 64 0 0 64-24.2 0-271.2-271.2c21.5-10.7 45.8-16.8 71.4-16.8 21.3 0 41.7 4.2 60.3 11.8l41.1-61.5 53.2 35.5z"/></svg>