<svg xmlns="http://www.w3.org/2000/svg" viewBox="0 0 640 512"><!--! Font Awesome Pro 7.1.0 by @fontawesome - https://fontawesome.com License - https://fontawesome.com/license (Commercial License) Copyright 2025 Fonticons, Inc. --><path fill="currentColor" d="M416 0c70.7 0 128 57.3 128 128l0 384-64 0 0-64-320 0 0 64-64 0 0-384C96 57.3 153.3 0 224 0L416 0zM208 296a40 40 0 1 0 0 80 40 40 0 1 0 0-80zm224 0a40 40 0 1 0 0 80 40 40 0 1 0 0-80zM64 288l-64 0 0-128 64 0 0 128zm576 0l-64 0 0-128 64 0 0 128zM224 64c-35.3 0-64 28.7-64 64l0 64 320 0 0-64c0-35.3-28.7-64-64-64L224 64z"/></svg>