<svg xmlns="http://www.w3.org/2000/svg" viewBox="0 0 512 512"><!--! Font Awesome Pro 7.1.0 by @fontawesome - https://fontawesome.com License - https://fontawesome.com/license (Commercial License) Copyright 2025 Fonticons, Inc. --><path fill="currentColor" d="M96-32L60.7 9.2C52.5 18.8 48 30.9 48 43.4L48 48c0 14.2 6.2 27 16 35.8L64 160c-35.3 0-64 28.7-64 64l0 38.1 47 47C64.3 326.3 87.6 336 112 336s47.7-9.7 65-26.9l7.4-7.4c19-19 44.7-29.7 71.6-29.7s52.6 10.7 71.6 29.7l7.4 7.4c17.2 17.2 40.6 26.9 65 26.9s47.7-9.7 65-26.9l47-47 0-38.1c0-35.3-28.7-64-64-64l0-76.2c9.8-8.8 16-21.6 16-35.8l0-4.6c0-12.5-4.5-24.7-12.7-34.2L416-32 380.7 9.2C372.5 18.8 368 30.9 368 43.4l0 4.6c0 14.2 6.2 27 16 35.8l0 76.2-96 0 0-76.2c9.8-8.8 16-21.6 16-35.8l0-4.6c0-12.5-4.5-24.7-12.7-34.2L256-32 220.7 9.2C212.5 18.8 208 30.9 208 43.4l0 4.6c0 14.2 6.2 27 16 35.8l0 76.2-96 0 0-76.2c9.8-8.8 16-21.6 16-35.8l0-4.6c0-12.5-4.5-24.7-12.7-34.2L96-32zM512 329.9L498.9 343c-26.2 26.2-61.8 41-98.9 41s-72.7-14.7-98.9-41l-7.4-7.4c-10-10-23.5-15.6-37.7-15.6s-27.7 5.6-37.7 15.6l-7.4 7.4c-26.2 26.2-61.8 41-98.9 41s-72.7-14.7-98.9-41L0 329.9 0 448c0 35.3 28.7 64 64 64l384 0c35.3 0 64-28.7 64-64l0-118.1z"/></svg>