<svg xmlns="http://www.w3.org/2000/svg" viewBox="0 0 640 512"><!--! Font Awesome Pro 7.1.0 by @fontawesome - https://fontawesome.com License - https://fontawesome.com/license (Commercial License) Copyright 2025 Fonticons, Inc. --><path fill="currentColor" d="M98.2 367.4L32 384C37.5 334.4 41.6 297.9 44.2 274.5 16.4 242.5 0 202.9 0 160 0 54 100.3-32 224-32S448 54 448 160 347.7 352 224 352c-16.1 0-31.9-1.5-47-4.2L98.2 367.4zm413-189.3c76.1 30.7 128.7 97 128.7 173.8 0 42.9-16.4 82.5-44.2 114.5 2.6 23.4 6.7 59.9 12.2 109.5-42.1-10.5-90.4-22.6-145-36.2-15.2 2.8-30.9 4.2-47 4.2-97.8 0-180.9-53.7-211.5-128.6 6.4 .4 12.9 .6 19.5 .6 17.5 0 34.6-1.4 51.2-4 25.5 38.3 75 68 140.8 68 12.3 0 24.1-1.1 35.5-3.2l13.6-2.5c1.9 .5 25 6.2 69.1 17.3-1.2-10.4-2.9-25.7-5.1-45.9l18.4-21.2c18.7-21.5 28.5-46.6 28.5-72.5 0-42.3-29.1-86.7-78.9-110.5 7.6-20.1 12.5-41.3 14.2-63.3z"/></svg>