<svg xmlns="http://www.w3.org/2000/svg" viewBox="0 0 512 512"><!--! Font Awesome Pro 7.1.0 by @fontawesome - https://fontawesome.com License - https://fontawesome.com/license (Commercial License) Copyright 2025 Fonticons, Inc. --><path fill="currentColor" d="M256 512a256 256 0 1 1 0-512 256 256 0 1 1 0 512zM362.4 291c-4.9 14.8-12.7 28.2-22.8 39.5l44.9 68.1c29.6-26.6 50.8-62.3 59.3-102.7L362.4 291zM256 192a64 64 0 1 0 0 128 64 64 0 1 0 0-128zM127.5 113.3C97.9 140 76.7 175.7 68.2 216.1l81.4 4.9c4.9-14.8 12.7-28.2 22.8-39.5l-44.9-68.1z"/></svg>