<svg xmlns="http://www.w3.org/2000/svg" viewBox="0 0 512 512"><!--! Font Awesome Pro 7.1.0 by @fontawesome - https://fontawesome.com License - https://fontawesome.com/license (Commercial License) Copyright 2025 Fonticons, Inc. --><path fill="currentColor" d="M325.5 0c17 0 33.2 6.8 45.2 18.8L493.3 141.2c12 12 18.7 28.3 18.7 45.2L512 448c0 35.3-28.7 64-64 64L64 512c-35.3 0-64-28.7-64-64L0 64C0 28.7 28.7 0 64 0L325.5 0zM256 272a80 80 0 1 0 0 160 80 80 0 1 0 0-160zM96 64l0 96 224 0 0-96-224 0z"/></svg>