<svg xmlns="http://www.w3.org/2000/svg" viewBox="0 0 576 512"><!--! Font Awesome Pro 7.1.0 by @fontawesome - https://fontawesome.com License - https://fontawesome.com/license (Commercial License) Copyright 2025 Fonticons, Inc. --><path fill="currentColor" d="M400 480l48 0c70.7 0 128-57.3 128-128l0-128c0-106-86-192-192-192L192 32C86 32 0 118 0 224L0 352c0 70.7 57.3 128 128 128l48 0 64-96 96 0 64 96zm0-344a40 40 0 1 1 0 80 40 40 0 1 1 0-80zm24 136a40 40 0 1 1 80 0 40 40 0 1 1 -80 0zM184 144l0 56 56 0 0 48-56 0 0 56-48 0 0-56-56 0 0-48 56 0 0-56 48 0z"/></svg>