<svg xmlns="http://www.w3.org/2000/svg" viewBox="0 0 384 512"><!--! Font Awesome Pro 7.1.0 by @fontawesome - https://fontawesome.com License - https://fontawesome.com/license (Commercial License) Copyright 2025 Fonticons, Inc. --><path fill="currentColor" d="M256 512l-128 0 0-64 128 0 0 64zM192 0c106 0 192 86 192 192 0 71.3-38.8 133.4-96.3 166.5-3.2 32.3-30.5 57.5-63.7 57.5l-64 0C126.8 416 99.6 390.8 96.3 358.5 38.8 325.3 0 263.2 0 192 0 86 86 0 192 0zm0 64c-70.7 0-128 57.3-128 128 0 36 14.8 68.5 38.8 91.8-4.4-13.8-6.8-28.5-6.8-43.8 0-79.5 64.5-144 144-144 15.2 0 29.9 2.3 43.7 6.7-23.3-23.9-55.7-38.7-91.7-38.7z"/></svg>