<svg xmlns="http://www.w3.org/2000/svg" viewBox="0 0 640 512"><!--! Font Awesome Pro 7.1.0 by @fontawesome - https://fontawesome.com License - https://fontawesome.com/license (Commercial License) Copyright 2025 Fonticons, Inc. --><path fill="currentColor" d="M621.5 512L576.3 557.2 19 0 64.3-45.3 621.5 512zM384.3 455.7l0 56.2-128 0 0-64 120.3 0 7.8 7.8zM344.5 416l-56.3 0c-33.2 0-60.4-25.2-63.7-57.5-55.3-31.9-93.3-90.6-96.1-158.5l216 216zM320.3 0c106 0 192 86 192 192 0 34.6-9.2 67-25.3 95L308.8 108.8c18.1-8.2 38.2-12.8 59.4-12.8 15.2 0 29.9 2.3 43.7 6.7-23.2-23.9-55.7-38.7-91.7-38.7-16.7 0-32.6 3.2-47.2 9L225.2 25.2C253.2 9.2 285.7 0 320.3 0z"/></svg>