<svg xmlns="http://www.w3.org/2000/svg" viewBox="0 0 512 512"><!--! Font Awesome Pro 7.1.0 by @fontawesome - https://fontawesome.com License - https://fontawesome.com/license (Commercial License) Copyright 2025 Fonticons, Inc. --><path fill="currentColor" d="M456.5 52.7l-30.4 10.1-196.9 65.6 218.8 0c35.3 0 64 28.7 64 64l0 256c0 35.3-28.7 64-64 64l-384 0c-35.3 0-64-28.7-64-64L0 183.5c0-27.5 17.6-52 43.8-60.7L405.9 2.1 436.2-8 456.5 52.7zM400 304.5a32 32 0 1 0 0-64 32 32 0 1 0 0 64zm32 64a32 32 0 1 0 -64 0 32 32 0 1 0 64 0zm-304-48a64 64 0 1 1 128 0 64 64 0 1 1 -128 0zm176 0a112 112 0 1 0 -224 0 112 112 0 1 0 224 0z"/></svg>