<svg xmlns="http://www.w3.org/2000/svg" viewBox="0 0 512 512"><!--! Font Awesome Pro 7.1.0 by @fontawesome - https://fontawesome.com License - https://fontawesome.com/license (Commercial License) Copyright 2025 Fonticons, Inc. --><path fill="currentColor" d="M320 4c33.1 0 60 26.9 60 60l0 32 68 0c35.3 0 64 28.7 64 64l0 288c0 35.3-28.7 64-64 64L64 512c-35.3 0-64-28.7-64-64L0 160c0-35.3 28.7-64 64-64l68 0 0-32c0-33.1 26.9-60 60-60L320 4zM136 160l0 288 48 0 0-288-48 0zM328 448l48 0 0-288-48 0 0 288zM192 60c-2.2 0-4 1.8-4 4l0 32 136 0 0-32c0-2.2-1.8-4-4-4L192 60z"/></svg>