<?xml version="1.0" standalone="no"?>
<!DOCTYPE svg PUBLIC "-//W3C//DTD SVG 1.1//EN" "http://www.w3.org/Graphics/SVG/1.1/DTD/svg11.dtd" >
<svg xmlns="http://www.w3.org/2000/svg" xmlns:xlink="http://www.w3.org/1999/xlink" version="1.1">
<metadata>
Created by FontForge 20170731 at Mon Oct 15 11:51:44 2018
 By Aleksey,,,
(c) Copyright The Font Bureau, Inc., 2015. All rights reserved.
</metadata>
<defs>
<font id="MomentumSans-TextMedium" horiz-adv-x="500" >
  <font-face 
    font-family="MomentumSans Text Medium"
    font-weight="500"
    font-stretch="normal"
    units-per-em="1000"
    panose-1="0 0 0 0 0 0 0 2 0 0"
    ascent="800"
    descent="-200"
    x-height="539"
    cap-height="730"
    bbox="-188 -360 1203 1025"
    underline-thickness="50"
    underline-position="-150"
    unicode-range="U+0020-FB02"
  />
<missing-glyph 
d="M50 -200h400v1000h-400v-1000zM100 -150v900h300v-900h-300z" />
    <glyph glyph-name=".notdef" 
d="M50 -200h400v1000h-400v-1000zM100 -150v900h300v-900h-300z" />
    <glyph glyph-name=".null" horiz-adv-x="0" 
 />
    <glyph glyph-name="nonmarkingreturn" horiz-adv-x="333" 
 />
    <glyph glyph-name="space" unicode=" " horiz-adv-x="269" 
 />
    <glyph glyph-name="exclam" unicode="!" horiz-adv-x="303" 
d="M205 435l-30 -227h-48l-29 227v295h107v-295zM201 0h-99v101h99v-101z" />
    <glyph glyph-name="quotedbl" unicode="&#x22;" horiz-adv-x="428" 
d="M354 607l-6 -144h-76l-4 143v124h86v-123zM159 606l-5 -143h-76l-4 143v124h85v-124z" />
    <glyph glyph-name="numbersign" unicode="#" horiz-adv-x="652" 
d="M618 436h-558v70h558v-70zM154 1l64 729l57 -1l-64 -729zM33 291h559v-71h-559v71zM498 729l-64 -729l-58 1l64 729z" />
    <glyph glyph-name="dollar" unicode="$" horiz-adv-x="551" 
d="M277 1q-81 0 -146 24.5t-99 59.5l32 75q35 -36 97.5 -61t118.5 -25q64 0 102 29t38 80q0 29 -13 52.5t-49.5 47.5t-108.5 55q-113 49 -159 95.5t-46 120.5q0 80 60.5 128t153.5 48q79 0 136.5 -20.5t93.5 -54.5l-44 -65q-33 31 -79.5 48.5t-97.5 17.5q-58 0 -96 -27.5
t-38 -75.5q0 -47 35 -75t135 -73q68 -30 114 -59.5t70 -66.5t24 -92q0 -86 -69.5 -136t-164.5 -50zM298 700h-55v89h55v-89zM243 -120v146h55v-146h-55z" />
    <glyph glyph-name="percent" unicode="%" horiz-adv-x="881" 
d="M126 0h92l523 730h-92zM213 418q44 0 68.5 34t24.5 91q0 56 -22.5 90.5t-68.5 34.5q-42 0 -67 -34.5t-25 -90.5q0 -61 26.5 -93t63.5 -32zM216 347q-70 0 -122 53t-52 143q0 79 49 138t124 59q77 0 124.5 -57.5t47.5 -136.5q0 -82 -48 -140.5t-123 -58.5zM664 69
q44 0 68.5 34t24.5 90t-22.5 91t-67.5 35q-43 0 -67 -34.5t-24 -91.5q0 -60 26 -92t62 -32zM667 -3q-70 0 -121.5 53.5t-51.5 142.5q0 79 48.5 138.5t123.5 59.5q78 0 125.5 -58t47.5 -137q0 -81 -48 -140t-124 -59z" />
    <glyph glyph-name="ampersand" unicode="&#x26;" horiz-adv-x="739" 
d="M709 249q-46 -76 -101.5 -134t-130.5 -90.5t-182 -32.5q-116 0 -188 47t-72 134q0 58 31.5 98t79 71t95.5 61q75 47 118 82t43 80q0 40 -27 67.5t-76 27.5q-45 0 -75.5 -28.5t-30.5 -62.5q0 -35 20.5 -65.5t49.5 -54.5l451 -373l-49 -80l-471 391q-19 17 -41 42.5
t-37.5 60.5t-15.5 81q0 47 29.5 84.5t76 59.5t96.5 22q90 0 140.5 -49t50.5 -117q0 -72 -54.5 -115t-138.5 -95q-78 -48 -121 -84.5t-43 -95.5q0 -54 47.5 -82.5t116.5 -28.5q100 0 178.5 60.5t144.5 162.5z" />
    <glyph glyph-name="quotesingle" unicode="'" horiz-adv-x="232" 
d="M159 602l-5 -147h-76l-4 147v128h85v-128z" />
    <glyph glyph-name="parenleft" unicode="(" horiz-adv-x="346" 
d="M329 -110v-77q-85 39 -152 112t-105 168t-38 200q0 111 41.5 202.5t108.5 156.5t145 97v-68q-47 -29 -89 -81t-68.5 -128t-26.5 -179q0 -89 22.5 -166t64.5 -137.5t97 -99.5z" />
    <glyph glyph-name="parenright" unicode=")" horiz-adv-x="346" 
d="M17 682v67q73 -28 141 -92.5t111 -159.5t43 -213q0 -111 -40.5 -205t-108 -162.5t-146.5 -103.5v79q49 35 91 91t67.5 131.5t25.5 169.5q0 108 -27.5 187.5t-70 131.5t-86.5 79z" />
    <glyph glyph-name="asterisk" unicode="*" horiz-adv-x="430" 
d="M392 572l-132 -36l98 -91l-65 -58l-76 118l-76 -118l-63 57l96 93l-136 35l33 77l119 -65l-20 146h93l-20 -146l122 63z" />
    <glyph glyph-name="plus" unicode="+" 
d="M474 292h-185v-179h-77v179h-186v78h186v179h77v-179h185v-78z" />
    <glyph glyph-name="comma" unicode="," horiz-adv-x="252" 
d="M209 118q-6 -58 -24 -111t-43.5 -94.5t-53.5 -65.5l-68 31q15 16 34 54t36 87.5t24 98.5h95z" />
    <glyph glyph-name="hyphen" unicode="-" horiz-adv-x="354" 
d="M309 225h-264v81h264v-81z" />
    <glyph glyph-name="period" unicode="." horiz-adv-x="253" 
d="M172 0h-91v134h91v-134z" />
    <glyph glyph-name="slash" unicode="/" horiz-adv-x="322" 
d="M318 730l-231 -730h-84l234 730h81z" />
    <glyph glyph-name="zero" unicode="0" horiz-adv-x="604" 
d="M299 -12q-78 0 -136 46t-90 129.5t-32 197.5q0 102 29 189t87.5 139.5t147.5 52.5q90 0 147.5 -50.5t84.5 -135.5t27 -187q0 -109 -29 -195t-88 -136t-148 -50zM299 71q58 0 95.5 37t55.5 102t18 149q0 86 -17 154t-53.5 107.5t-95.5 39.5q-56 0 -92.5 -37.5
t-54.5 -104.5t-18 -156q0 -87 18 -152.5t54.5 -102t89.5 -36.5z" />
    <glyph glyph-name="one" unicode="1" horiz-adv-x="388" 
d="M294 0h-93v608q-22 -27 -67 -55t-88 -32v87q50 3 99.5 39.5t85.5 83.5h63v-731z" />
    <glyph glyph-name="two" unicode="2" horiz-adv-x="572" 
d="M546 0h-515v37l320 322q31 32 58 75.5t27 96.5q0 58 -43 94t-112 36q-72 0 -113.5 -44t-41.5 -114h-88q4 112 72 175.5t187 63.5q105 0 170 -54.5t65 -145.5q0 -81 -33.5 -134t-71.5 -91l-234 -232h353v-85z" />
    <glyph glyph-name="three" unicode="3" horiz-adv-x="571" 
d="M283 -12q-99 0 -167.5 25.5t-103.5 57.5l50 77q30 -26 82 -52.5t127 -26.5q84 0 131.5 43t47.5 108q0 59 -44.5 94t-118.5 35h-138l1 79h133q65 0 104 35t39 82q0 42 -37 79t-105 37q-73 0 -118 -31t-72 -68l-54 65q31 45 93.5 80t153.5 35q107 0 170 -49.5t63 -130.5
q0 -64 -41.5 -109.5t-102.5 -59.5q72 -11 120 -57.5t48 -120.5q0 -61 -31.5 -112.5t-90 -83t-139.5 -31.5z" />
    <glyph glyph-name="four" unicode="4" horiz-adv-x="585" 
d="M581 188h-125v-188h-87v188h-354v70l369 485h72v-478h125v-77zM371 265v340l-255 -340h255z" />
    <glyph glyph-name="five" unicode="5" horiz-adv-x="586" 
d="M280 -12q-86 0 -151.5 28.5t-99.5 62.5l50 73q27 -27 78 -54.5t119 -27.5q81 0 129 50.5t48 134.5q0 77 -45 120.5t-112 43.5q-55 0 -98 -21.5t-65 -63.5l-62 16l31 380h390v-85h-322l-15 -220q19 27 64 49.5t98 22.5q103 0 167.5 -65.5t64.5 -172.5q0 -116 -73 -193.5
t-196 -77.5z" />
    <glyph glyph-name="six" unicode="6" horiz-adv-x="588" 
d="M304 -12q-78 0 -137.5 33t-94 93.5t-34.5 142.5q0 91 35.5 169.5t95.5 147.5t133 129l69 56l54 -68l-59 -48q-86 -71 -146 -140t-73 -119q17 31 63.5 60t109.5 29q107 0 172.5 -66.5t65.5 -172.5q0 -68 -33.5 -124.5t-91.5 -89t-129 -32.5zM300 69q75 0 119 49t44 114
q0 66 -42 115t-122 49q-67 0 -118.5 -44t-51.5 -115q0 -69 45 -118.5t126 -49.5z" />
    <glyph glyph-name="seven" unicode="7" horiz-adv-x="510" 
d="M493 730l16 -44l-352 -693l-80 39l315 611h-376v87h477z" />
    <glyph glyph-name="eight" unicode="8" horiz-adv-x="615" 
d="M308 66q79 0 126.5 39t47.5 103t-48.5 97.5t-125.5 33.5q-76 0 -125 -33.5t-49 -99.5q0 -62 48 -101t126 -39zM307 416q69 0 111.5 35t42.5 87q0 57 -43.5 91.5t-110.5 34.5q-64 0 -108.5 -34.5t-44.5 -91.5q0 -55 45 -88.5t108 -33.5zM406 387q72 -13 119 -63.5
t47 -128.5q0 -89 -71 -148t-194 -59q-121 0 -192 58t-71 149q0 52 24 93t62 67t79 31q-36 9 -68.5 32t-53 56.5t-20.5 75.5q0 85 68.5 138.5t171.5 53.5q109 0 175 -51t66 -136q0 -61 -42 -108t-100 -60z" />
    <glyph glyph-name="nine" unicode="9" horiz-adv-x="588" 
d="M232 -19l-49 66l81 64q43 35 80 77.5t64.5 87.5t39.5 84q-18 -35 -71.5 -65.5t-110.5 -30.5q-105 0 -170 64t-65 174q0 67 33.5 121.5t91.5 87t132 32.5q110 0 186 -71t76 -197q0 -99 -35.5 -181.5t-92 -147.5t-120.5 -110zM287 335q75 0 123.5 47.5t48.5 112.5
q0 75 -49 122.5t-119 47.5q-76 0 -120.5 -49.5t-44.5 -114.5q0 -67 41.5 -116.5t119.5 -49.5z" />
    <glyph glyph-name="colon" unicode=":" horiz-adv-x="244" 
d="M168 410h-92v129h92v-129zM168 0h-92v130h92v-130z" />
    <glyph glyph-name="semicolon" unicode=";" horiz-adv-x="243" 
d="M174 410h-92v129h92v-129zM180 102q-6 -48 -23.5 -95t-42 -87t-51.5 -65l-68 31q25 28 56 89.5t39 126.5h90z" />
    <glyph glyph-name="less" unicode="&#x3c;" horiz-adv-x="413" 
d="M363 98l-321 192v78l321 189v-82l-228 -144l228 -148v-85z" />
    <glyph glyph-name="equal" unicode="=" 
d="M450 388h-400v79h400v-79zM450 176h-400v78h400v-78z" />
    <glyph glyph-name="greater" unicode="&#x3e;" horiz-adv-x="413" 
d="M372 290l-321 -192v85l229 148l-229 145v81l321 -189v-78z" />
    <glyph glyph-name="question" unicode="?" horiz-adv-x="479" 
d="M168 200q0 76 15.5 119.5t64.5 81.5q26 20 51.5 41t42 48t16.5 63q0 50 -38 78.5t-95 28.5q-49 0 -89.5 -22.5t-65.5 -53.5l-61 59q33 40 90 69.5t135 29.5q93 0 156.5 -46.5t63.5 -129.5q0 -80 -44 -124.5t-83 -72.5q-45 -33 -56 -78.5t-12 -90.5h-91zM165 0v122h101
v-122h-101z" />
    <glyph glyph-name="at" unicode="@" horiz-adv-x="890" 
d="M440 -25q-109 0 -196.5 51.5t-139 138.5t-51.5 194q0 110 50 196.5t138.5 136.5t204.5 50q118 0 206.5 -43.5t137 -122t48.5 -181.5q0 -90 -25 -144.5t-62.5 -79t-78.5 -24.5q-54 0 -83.5 20t-38.5 49q-12 -25 -56 -46t-105 -21q-73 0 -112.5 35.5t-39.5 88.5
q0 41 22.5 72.5t68 49t115.5 17.5h100v10q0 48 -31 67.5t-78 19.5q-35 0 -67.5 -8t-54.5 -18l-30 67q27 12 70.5 23t85.5 11q83 0 132.5 -40.5t49.5 -128.5v-143q0 -21 13 -42t47 -21q19 1 41 14.5t38 51.5t16 112q0 82 -39.5 150.5t-113 109t-176.5 40.5
q-99 0 -173.5 -42.5t-116 -116.5t-41.5 -166t43.5 -167t118 -119.5t165.5 -44.5q36 0 76 8.5t76 26.5l24 -53q-41 -19 -87 -28.5t-91 -9.5zM425 216q40 0 73 16t45 32v90h-91q-62 0 -92 -18t-30 -52t23 -51t72 -17z" />
    <glyph glyph-name="A" unicode="A" horiz-adv-x="655" 
d="M449 270l-127 320l-126 -320h253zM653 0h-103l-79 196h-298l-75 -196h-96l296 733h64z" />
    <glyph glyph-name="B" unicode="B" horiz-adv-x="617" 
d="M96 0v730h222q100 0 156 -46t56 -131q0 -70 -38 -116.5t-101 -58.5q63 -6 120.5 -48t57.5 -134q0 -58 -30.5 -102.5t-85 -69t-126.5 -24.5h-231zM186 407h112q75 0 106 42t31 90q0 51 -37.5 82t-101.5 31h-110v-245zM188 78h137q75 0 109 39.5t34 93.5q0 51 -40.5 84.5
t-102.5 33.5h-137v-251z" />
    <glyph glyph-name="C" unicode="C" horiz-adv-x="749" 
d="M409 -12q-97 0 -179 46t-132 130.5t-50 200.5q0 111 46.5 196t128.5 133t187 48q99 0 170 -30t119 -92l-73 -61q-36 41 -86.5 67t-128.5 26q-82 0 -141.5 -35t-91.5 -98.5t-32 -149.5q0 -96 39.5 -161.5t102 -98.5t131.5 -33q78 0 133.5 30.5t91.5 80.5l72 -52
q-42 -61 -120 -104t-187 -43z" />
    <glyph glyph-name="D" unicode="D" horiz-adv-x="748" 
d="M96 0v730h218q183 0 285 -96t102 -255q0 -161 -102 -270t-300 -109h-203zM193 79h104q154 0 228 86.5t74 212.5q0 124 -76.5 199t-211.5 75h-118v-573z" />
    <glyph glyph-name="E" unicode="E" horiz-adv-x="587" 
d="M530 0h-434v730h415v-85h-319v-239h304v-83h-304v-238h338v-85z" />
    <glyph glyph-name="F" unicode="F" horiz-adv-x="531" 
d="M486 645h-293v-236h278v-83h-278v-326h-97v730h390v-85z" />
    <glyph glyph-name="G" unicode="G" horiz-adv-x="795" 
d="M426 365h316v-211q-44 -77 -130.5 -121.5t-191.5 -44.5q-104 0 -188.5 47t-134 131.5t-49.5 198.5q0 115 51 200t135.5 131t185.5 46q70 0 123 -15.5t90.5 -39.5t62.5 -51l-63 -72q-33 35 -82 61.5t-134 26.5q-76 0 -138 -33t-98.5 -96.5t-36.5 -153.5q0 -91 37.5 -158
t100.5 -104.5t140 -37.5t139.5 30.5t91.5 86.5v96h-227v83z" />
    <glyph glyph-name="H" unicode="H" horiz-adv-x="764" 
d="M668 0h-97v318h-378v-318h-97v730h97v-327h378v327h97v-730z" />
    <glyph glyph-name="I" unicode="I" horiz-adv-x="297" 
d="M197 0h-97v730h97v-730z" />
    <glyph glyph-name="J" unicode="J" horiz-adv-x="432" 
d="M340 730v-536q0 -83 -55 -144.5t-158 -61.5q-26 0 -60.5 4.5t-53.5 16.5l37 77q10 -5 27.5 -8.5t36.5 -3.5q62 0 95.5 35.5t33.5 84.5v536h97z" />
    <glyph glyph-name="K" unicode="K" horiz-adv-x="674" 
d="M657 0h-119l-238 341l-108 -133v-208h-96v730h96v-409l319 409h107l-249 -318z" />
    <glyph glyph-name="L" unicode="L" horiz-adv-x="532" 
d="M520 0h-424v730h97v-645h327v-85z" />
    <glyph glyph-name="M" unicode="M" horiz-adv-x="917" 
d="M821 0h-91v538l-250 -369h-41l-254 369v-538h-89v730h67l300 -447l290 447h68v-730z" />
    <glyph glyph-name="N" unicode="N" horiz-adv-x="791" 
d="M695 0h-70l-438 561v-561h-91v730h75l435 -557v557h89v-730z" />
    <glyph glyph-name="O" unicode="O" horiz-adv-x="843" 
d="M431 72q76 0 136 35t96 100.5t36 156.5q0 85 -37.5 150.5t-103 102.5t-147.5 37q-77 0 -137 -34t-95 -98t-35 -151q0 -91 39.5 -158t104.5 -104t143 -37zM425 -12q-110 0 -195.5 50t-133.5 136.5t-48 195.5q0 107 49 191t132.5 132.5t187.5 48.5q111 0 196.5 -48.5
t134 -133t48.5 -193.5q0 -111 -51 -196.5t-135 -134t-185 -48.5z" />
    <glyph glyph-name="P" unicode="P" horiz-adv-x="611" 
d="M96 0v730h251q101 0 167 -56t66 -157q0 -99 -63 -162t-166 -63h-158v-292h-97zM192 371h145q71 0 107.5 41t36.5 106q0 66 -44 100t-108 34h-137v-281z" />
    <glyph glyph-name="Q" unicode="Q" horiz-adv-x="843" 
d="M425 -9q-114 0 -199 48.5t-131.5 133.5t-46.5 197q0 105 47.5 189t131 133.5t191.5 49.5q110 0 195.5 -47.5t134 -132t48.5 -197.5q0 -106 -49 -190.5t-132.5 -134t-189.5 -49.5zM427 72q77 0 138 34t97 99.5t36 157.5q0 91 -39.5 156.5t-105 100t-142.5 34.5
q-78 0 -138 -34t-94.5 -97t-34.5 -149q0 -95 40.5 -163t104.5 -103.5t138 -35.5zM707 -191q-96 1 -174.5 41.5t-125 123t-46.5 211.5h102q0 -114 34.5 -176t90 -87.5t119.5 -26.5v-86z" />
    <glyph glyph-name="R" unicode="R" horiz-adv-x="614" 
d="M96 0v730h222q62 0 110 -23.5t76 -67t28 -103.5q0 -93 -51.5 -144t-115.5 -60l-3 -3l225 -329h-116l-203 308h-76v-308h-96zM191 388h100q61 0 101.5 34.5t40.5 101.5q0 60 -36.5 94t-96.5 34h-109v-264z" />
    <glyph glyph-name="S" unicode="S" horiz-adv-x="600" 
d="M305 -12q-90 0 -154.5 25t-105.5 65l63 76q31 -38 85 -61.5t114 -23.5q57 0 97.5 29.5t40.5 77.5q0 47 -34 80.5t-125 70.5q-83 33 -131 63.5t-68 69t-20 97.5q0 85 61.5 135t163.5 50q78 0 131.5 -24.5t90.5 -55.5l-55 -80q-38 31 -82.5 50.5t-92.5 19.5
q-55 0 -88.5 -25t-33.5 -69q0 -51 39.5 -81.5t133.5 -69.5q117 -48 162 -95.5t45 -127.5q0 -91 -70.5 -143.5t-166.5 -52.5z" />
    <glyph glyph-name="T" unicode="T" horiz-adv-x="550" 
d="M540 645h-219v-645h-98v645h-213v85h530v-85z" />
    <glyph glyph-name="U" unicode="U" horiz-adv-x="761" 
d="M670 730v-464q0 -87 -39.5 -149.5t-105 -95.5t-145.5 -33q-78 0 -143.5 32t-105 94t-39.5 152v464h95v-463q0 -88 57 -139.5t134 -51.5q79 0 138 49.5t59 141.5v463h95z" />
    <glyph glyph-name="V" unicode="V" horiz-adv-x="669" 
d="M667 730l-305 -736h-64l-296 736h106l224 -576l234 576h101z" />
    <glyph glyph-name="W" unicode="W" horiz-adv-x="936" 
d="M924 730l-223 -736h-58l-172 560l-183 -560h-58l-218 736h101l157 -545l173 545h58l175 -548l157 548h91z" />
    <glyph glyph-name="X" unicode="X" horiz-adv-x="626" 
d="M143 730l469 -730h-110l-470 730h111zM17 0l471 730h103l-471 -730h-103z" />
    <glyph glyph-name="Y" unicode="Y" horiz-adv-x="662" 
d="M662 730l-284 -420v-310h-98v314l-279 416h109l224 -330l225 330h103z" />
    <glyph glyph-name="Z" unicode="Z" horiz-adv-x="589" 
d="M556 730v-42l-405 -603h418v-85h-549v40l401 605h-369v85h504z" />
    <glyph glyph-name="bracketleft" unicode="[" horiz-adv-x="347" 
d="M306 -179h-204v909h204v-70h-118v-766h118v-73z" />
    <glyph glyph-name="backslash" unicode="\" horiz-adv-x="322" 
d="M3 730h81l234 -730h-82z" />
    <glyph glyph-name="bracketright" unicode="]" horiz-adv-x="330" 
d="M236 -179h-195v69h110v771h-110v69h195v-909z" />
    <glyph glyph-name="asciicircum" unicode="^" horiz-adv-x="513" 
d="M439 369h-79l-106 263l-101 -263h-78l140 361h78z" />
    <glyph glyph-name="underscore" unicode="_" 
d="M500 -156h-500v73h500v-73z" />
    <glyph glyph-name="grave" unicode="`" 
d="M349 588h-91l-122 164h106z" />
    <glyph glyph-name="a" unicode="a" horiz-adv-x="594" 
d="M433 141v140l-143 -8q-66 -3 -108.5 -30.5t-42.5 -83.5q0 -45 34 -70.5t90 -25.5q50 0 96.5 22t73.5 56zM521 0h-89v75q-31 -39 -82 -61t-120 -22q-87 0 -137 42t-50 115q0 91 69.5 139t187.5 55l131 8v8q0 60 -35 87.5t-96 27.5q-52 0 -98.5 -17.5t-85.5 -42.5l-39 66
q43 30 101.5 51.5t132.5 21.5q97 0 153.5 -46t56.5 -147v-360z" />
    <glyph glyph-name="b" unicode="b" horiz-adv-x="662" 
d="M353 69q77 0 124.5 59.5t47.5 144.5q0 89 -44 144.5t-129 55.5q-50 0 -90.5 -22t-64 -68t-23.5 -116q0 -64 23 -108t63 -67t93 -23zM376 -8q-85 0 -134 40.5t-66 96.5v-129h-88v800h83v-395q17 61 69.5 102.5t137.5 41.5q108 0 174.5 -73t66.5 -195q0 -135 -72 -212
t-171 -77z" />
    <glyph glyph-name="c" unicode="c" horiz-adv-x="589" 
d="M489 168l71 -50q-30 -45 -85.5 -87t-153.5 -42q-121 0 -199.5 77t-78.5 202q0 81 36.5 145t100 101t144.5 37q99 0 155.5 -45t75.5 -97l-78 -34q-18 36 -55 65.5t-101 29.5q-83 0 -133.5 -58.5t-50.5 -141.5q0 -87 50 -143t136 -56q70 0 108 32t58 65z" />
    <glyph glyph-name="d" unicode="d" horiz-adv-x="663" 
d="M310 66q81 0 129 59t48 149q0 66 -24.5 110.5t-64 67t-84.5 22.5q-81 0 -129 -56t-48 -148q0 -58 21 -104.5t59.5 -73t92.5 -26.5zM293 -11q-110 0 -180 75.5t-70 206.5q0 80 35.5 143.5t93.5 100t129 36.5q64 0 116 -37t70 -87v373h88v-800h-83v130q-9 -28 -36 -61
t-68.5 -56.5t-94.5 -23.5z" />
    <glyph glyph-name="e" unicode="e" horiz-adv-x="630" 
d="M325 -11q-121 0 -201.5 73.5t-80.5 206.5q0 78 36.5 142t98.5 102t142 38q120 0 193.5 -82.5t73.5 -228.5h-452q3 -69 52.5 -119t134.5 -50q69 0 111 23t70 55l57 -63q-38 -42 -92 -69.5t-143 -27.5zM134 308h359q-2 72 -51 118.5t-126 46.5q-76 0 -126 -50t-56 -115z
" />
    <glyph glyph-name="f" unicode="f" horiz-adv-x="361" 
d="M344 461h-136v-461h-92v461h-102v78h102v100q0 51 21.5 87.5t56 56.5t73.5 20q36 0 63 -7.5t45 -18.5l-25 -75q-13 6 -31.5 10.5t-37.5 4.5q-31 0 -52 -28.5t-21 -68.5v-81h136v-78z" />
    <glyph glyph-name="g" unicode="g" horiz-adv-x="657" 
d="M315 80q42 0 81.5 21.5t65 66t25.5 113.5q0 58 -22.5 100t-60.5 64.5t-87 22.5q-80 0 -129.5 -54.5t-49.5 -146.5q0 -90 47.5 -138.5t129.5 -48.5zM292 4q-109 0 -178.5 75t-69.5 194q0 123 70.5 199.5t180.5 76.5q72 0 125 -36t72 -93v119h83v-462q0 -97 -45 -158.5
t-112 -91t-136 -29.5q-84 0 -129 14.5t-68 28.5l42 77q18 -13 56.5 -27.5t91.5 -14.5q57 0 105.5 22t77.5 66.5t29 110.5v73q-16 -48 -67 -96t-128 -48z" />
    <glyph glyph-name="h" unicode="h" horiz-adv-x="639" 
d="M558 0h-90v365q0 51 -38 79t-92 28q-37 0 -73.5 -15t-60.5 -44.5t-24 -75.5v-337h-92v800h83v-367q14 51 68 84.5t129 33.5t132.5 -40.5t57.5 -118.5v-392z" />
    <glyph glyph-name="i" unicode="i" horiz-adv-x="272" 
d="M88 662v102h97v-102h-97zM90 0v539h92v-539h-92z" />
    <glyph glyph-name="j" unicode="j" horiz-adv-x="315" 
d="M235 662h-95v102h95v-102zM233 539v-549q0 -64 -22 -107t-58.5 -64t-78.5 -21q-36 0 -71.5 7.5t-58.5 23.5l29 73q17 -10 40 -16.5t52 -6.5q31 0 54 32t23 83v545h91z" />
    <glyph glyph-name="k" unicode="k" horiz-adv-x="578" 
d="M598 2l-105 -3l-205 256l-108 -114v-141h-92v800h92v-561l269 300h99l-198 -219z" />
    <glyph glyph-name="l" unicode="l" horiz-adv-x="308" 
d="M82 123v677h91v-648q0 -36 18.5 -56t53.5 -20q13 0 27.5 1.5t22.5 4.5l2 -80q-10 -3 -31 -5.5t-41 -2.5q-36 0 -69.5 14t-53.5 43t-20 72z" />
    <glyph glyph-name="m" unicode="m" horiz-adv-x="1007" 
d="M88 0v539h82v-114q18 58 76 92t122 34q66 0 116.5 -33t57.5 -91h5q12 55 68 89.5t120 34.5q81 0 136 -41t55 -118v-392h-91v365q0 55 -38 81t-90 26q-35 0 -70.5 -15.5t-59.5 -45.5t-24 -75v-336h-91v371q0 45 -37 73t-92 28q-37 0 -72 -15.5t-58 -47.5t-23 -77v-332h-92
z" />
    <glyph glyph-name="n" unicode="n" horiz-adv-x="639" 
d="M558 0h-91v370q0 49 -38.5 75.5t-88.5 26.5q-35 0 -72 -14.5t-62.5 -45t-25.5 -77.5v-335h-92v539h79v-118q19 58 74 94t129 36q73 0 130.5 -41.5t57.5 -111.5v-398z" />
    <glyph glyph-name="o" unicode="o" horiz-adv-x="650" 
d="M321 -11q-73 0 -136 33t-102.5 96t-39.5 149q0 80 38.5 144.5t102 102t139.5 37.5q80 0 144 -34t102 -94.5t38 -140.5q0 -86 -38.5 -151.5t-103.5 -103.5t-144 -38zM326 70q83 0 135 59.5t52 146.5q0 82 -53 137.5t-140 55.5q-54 0 -95 -26.5t-64 -72.5t-23 -104
q0 -60 25.5 -104t67.5 -68t95 -24z" />
    <glyph glyph-name="p" unicode="p" horiz-adv-x="663" 
d="M88 -194v733h83v-139q16 64 69 106.5t136 42.5q110 0 177 -72.5t67 -199.5q0 -129 -70.5 -206.5t-175.5 -77.5q-75 0 -126.5 38t-67.5 93v-318h-92zM353 70q74 0 123.5 58t49.5 147q0 84 -43.5 141t-127.5 57q-52 0 -93 -22t-64 -68t-23 -115q0 -102 51.5 -150t126.5 -48
z" />
    <glyph glyph-name="q" unicode="q" horiz-adv-x="662" 
d="M483 -194v321q-14 -31 -39.5 -62.5t-65.5 -53t-92 -21.5q-108 0 -175.5 75t-67.5 194q0 88 34.5 153t92.5 101t130 36q74 0 126.5 -44t66.5 -93v127h81v-733h-91zM313 66q49 0 88.5 25t62.5 72t23 111q0 99 -51.5 149.5t-123.5 50.5q-81 0 -128 -56.5t-47 -149.5
q0 -89 47.5 -145.5t128.5 -56.5z" />
    <glyph glyph-name="r" unicode="r" horiz-adv-x="472" 
d="M476 522l-49 -84q-13 14 -37 23t-57 9q-58 0 -105.5 -44t-47.5 -111v-315h-92v539h83v-129q13 55 66.5 98t129.5 43q38 0 65.5 -8t43.5 -21z" />
    <glyph glyph-name="s" unicode="s" horiz-adv-x="503" 
d="M271 -11q-76 0 -133.5 19.5t-95.5 50.5l40 62q36 -25 86 -42t99 -17q43 0 74 24t31 58q0 30 -29 54.5t-112 47.5q-64 18 -100.5 42.5t-51.5 55t-15 66.5q0 64 55.5 102.5t135.5 38.5q78 0 125 -19t72 -38l-34 -69q-33 21 -71 37t-85 16q-42 0 -73.5 -19t-31.5 -50
q0 -32 22.5 -51.5t108.5 -45.5q95 -28 136 -66.5t41 -97.5q0 -49 -26 -84.5t-70 -55t-98 -19.5z" />
    <glyph glyph-name="t" unicode="t" horiz-adv-x="378" 
d="M346 97l16 -74q-18 -14 -50 -21.5t-64 -7.5q-42 0 -75.5 16.5t-53.5 51.5t-20 91v311h-84v75h84v143l90 12v-155h152v-75h-152v-307q0 -39 18 -61t53 -22q27 0 50.5 8.5t35.5 14.5z" />
    <glyph glyph-name="u" unicode="u" horiz-adv-x="639" 
d="M81 539h91v-339q0 -74 40.5 -104.5t100.5 -30.5q59 0 102.5 38t43.5 100v336h92v-539h-83v112q-14 -47 -63.5 -85.5t-126.5 -38.5q-80 0 -138.5 42.5t-58.5 134.5v374z" />
    <glyph glyph-name="v" unicode="v" horiz-adv-x="540" 
d="M546 539l-248 -542h-59l-245 542h102l176 -401l178 401h96z" />
    <glyph glyph-name="w" unicode="w" horiz-adv-x="771" 
d="M524 -3l-131 337l-146 -337h-55l-188 542h96l133 -402l135 331h58l123 -328l131 399h87l-189 -542h-54z" />
    <glyph glyph-name="x" unicode="x" horiz-adv-x="486" 
d="M113 539l372 -539h-97l-373 539h98zM1 0l379 539h90l-380 -539h-89z" />
    <glyph glyph-name="y" unicode="y" horiz-adv-x="547" 
d="M552 539l-288 -616q-34 -72 -82.5 -97.5t-93.5 -25.5q-23 0 -40 5.5t-25 8.5l30 80q4 -2 16.5 -5.5t25.5 -3.5q26 0 48.5 17.5t44.5 61.5l36 70l-228 505h98l179 -404l184 404h95z" />
    <glyph glyph-name="z" unicode="z" horiz-adv-x="482" 
d="M448 539v-42l-296 -417h320v-80h-452v41l296 418h-283v80h415z" />
    <glyph glyph-name="braceleft" unicode="{" horiz-adv-x="282" 
d="M275 -179q-96 4 -157 49.5t-63 112.5q0 36 6.5 65.5t16.5 51.5q9 24 17.5 44t8.5 39q-1 25 -26.5 47t-70.5 22v67q45 0 72 23t27 54q1 6 -8.5 28t-19.5 48q-11 27 -17 53t-5 49q1 66 60.5 118.5t158.5 56.5v-66q-58 -3 -91.5 -36.5t-35.5 -77.5q0 -13 2.5 -32.5
t11.5 -38.5q13 -30 23.5 -54t9.5 -41q-1 -41 -25 -74t-78 -44q54 -11 77.5 -44t25.5 -67q0 -28 -9 -48.5t-19 -40.5t-15 -42.5t-4 -41.5q2 -37 34.5 -74t92.5 -40v-66z" />
    <glyph glyph-name="bar" unicode="|" horiz-adv-x="259" 
d="M172 -179h-85v909h85v-909z" />
    <glyph glyph-name="braceright" unicode="}" horiz-adv-x="282" 
d="M7 -179v66q60 3 92.5 40t34.5 74q1 19 -4 41t-15 43q-10 20 -19.5 40.5t-8.5 48.5q1 35 24.5 67.5t78.5 43.5q-55 11 -79 44t-25 74q0 17 10.5 41t23.5 54q8 19 11 38.5t2 32.5q-1 44 -34.5 77.5t-91.5 36.5v66q99 -4 158 -56.5t61 -118.5q0 -23 -5.5 -49.5t-16.5 -52.5
t-20 -48t-9 -28q1 -31 28 -54t72 -23v-67q-45 0 -70.5 -22t-26.5 -47q0 -19 8.5 -39t17.5 -44q9 -22 16 -51.5t6 -65.5q-2 -67 -62.5 -112.5t-156.5 -49.5z" />
    <glyph glyph-name="asciitilde" unicode="~" 
d="M388 439h79q0 -90 -27 -132t-82 -42q-35 0 -60.5 14.5t-45.5 29.5q-21 16 -42 29t-44 13q-21 0 -37.5 -21.5t-16.5 -61.5h-78q0 91 29.5 133t71.5 42q39 0 69 -13t56 -34q19 -14 39.5 -27.5t46.5 -13.5q27 0 34.5 20.5t7.5 63.5z" />
    <glyph glyph-name="exclamdown" unicode="&#xa1;" horiz-adv-x="303" 
d="M98 177l31 227h48l28 -227v-295h-107v295zM102 612h99v-100h-99v100z" />
    <glyph glyph-name="cent" unicode="&#xa2;" horiz-adv-x="582" 
d="M346 139v-145h-70v145h70zM489 272l66 -47q-30 -44 -84 -85t-151 -41q-119 0 -195.5 75.5t-76.5 195.5q0 79 35.5 142t98 99.5t141.5 36.5q91 0 149.5 -42t82.5 -94l-75 -34q-22 38 -61.5 65.5t-98.5 27.5q-82 0 -133 -58t-51 -140q0 -85 50.5 -141t136.5 -56
q70 0 108 32t58 64zM346 744v-142h-70v142h70z" />
    <glyph glyph-name="sterling" unicode="&#xa3;" horiz-adv-x="611" 
d="M512 369h-464v63h464v-63zM512 213h-464v64h464v-64zM314 209q0 -45 -20.5 -74t-48 -44.5t-50.5 -20.5h401v-70h-561v55q9 4 26.5 7.5t46.5 9.5q27 5 56 19t48.5 38.5t19.5 59.5q0 40 -36 91t-72.5 115.5t-36.5 148.5q0 75 36 118t94 61.5t124 18.5q84 0 153 -27.5
t100 -52.5l-45 -66q-28 19 -83.5 42t-120.5 23q-63 0 -112 -29t-49 -105q0 -59 32.5 -114.5t65 -106.5t32.5 -97z" />
    <glyph glyph-name="currency" unicode="&#xa4;" horiz-adv-x="501" 
d="M249 523q73 0 124.5 -49.5t51.5 -119.5t-51.5 -119.5t-124.5 -49.5q-72 0 -124 49.5t-52 119.5t52 119.5t124 49.5zM249 251q45 0 77.5 30.5t32.5 72.5t-32.5 72.5t-77.5 30.5t-77 -30.5t-32 -72.5t32 -72.5t77 -30.5zM97 558l74 -76l-41 -41l-74 76zM404 559l41 -43
l-74 -76l-41 43zM399 150l-73 76l40 41l74 -76zM99 150l-42 42l73 77l43 -43z" />
    <glyph glyph-name="yen" unicode="&#xa5;" horiz-adv-x="654" 
d="M84 259v64h480v-64h-480zM84 133v64h481v-64h-481zM276 0v326l-245 404h109l189 -324l190 324h103l-249 -408v-322h-97z" />
    <glyph glyph-name="brokenbar" unicode="&#xa6;" horiz-adv-x="277" 
d="M100 351v379h78v-379h-78zM178 200v-379h-78v379h78z" />
    <glyph glyph-name="section" unicode="&#xa7;" horiz-adv-x="675" 
d="M356 -181q-87 0 -162.5 20.5t-127.5 54.5l40 75q48 -31 116 -53t130 -22q57 0 94.5 25.5t37.5 71.5q0 42 -31 64t-80 42l-131 52q-91 38 -140 71t-49 107q0 46 24.5 76t58.5 50q-58 34 -58 121q0 80 70.5 124t176.5 44q95 0 154.5 -25t103.5 -54l-41 -69q-47 29 -98 52.5
t-121 23.5q-63 0 -106 -25.5t-43 -70.5q0 -30 21.5 -51t64.5 -37l174 -67q92 -32 139.5 -68.5t47.5 -104.5q0 -56 -36.5 -87t-82.5 -42q23 -12 51.5 -43t28.5 -84q0 -81 -65 -126t-161 -45zM436 164q34 3 62.5 20t28.5 54q0 34 -32.5 59.5t-112.5 52.5l-167 65
q-30 -13 -49 -30.5t-19 -50.5q0 -38 33.5 -63t113.5 -52z" />
    <glyph glyph-name="dieresis" unicode="&#xa8;" 
d="M381 590h-77v157h77v-157zM196 590h-77v157h77v-157z" />
    <glyph glyph-name="copyright" unicode="&#xa9;" horiz-adv-x="856" 
d="M428 -12q-104 0 -189.5 51t-136.5 136.5t-51 189.5t51 189.5t136.5 136.5t189.5 51t189.5 -51t136.5 -136.5t51 -189.5t-51 -189.5t-136.5 -136.5t-189.5 -51zM429 46q88 0 159.5 43t114 115t42.5 160t-42.5 160.5t-114 116t-159.5 43.5t-160 -43.5t-115 -116t-43 -160.5
t43 -160t115 -115t160 -43zM429 148q63 0 105.5 25t67.5 62l-63 41q-18 -25 -45.5 -41.5t-64.5 -16.5q-46 0 -84.5 38t-38.5 106q0 66 34 109t86 43q41 0 65.5 -14.5t40.5 -36.5l65 47q-24 35 -65 57.5t-108 22.5q-84 0 -142 -61.5t-58 -163.5q0 -106 62.5 -161.5
t142.5 -55.5z" />
    <glyph glyph-name="ordfeminine" unicode="&#xaa;" horiz-adv-x="519" 
d="M474 132h-426v78h426v-78zM381 402v108l-124 -7q-58 -3 -94.5 -21t-36.5 -64q0 -37 30.5 -57.5t78.5 -20.5q42 0 82.5 16.5t63.5 45.5zM459 272h-76v64q-26 -34 -73.5 -52.5t-102.5 -18.5q-77 0 -121 38.5t-44 105.5q0 75 59.5 114.5t161.5 44.5l121 7v7q0 39 -31 61.5
t-86 22.5q-46 0 -88 -15t-76 -36l-30 67q36 25 87 43t117 18q83 0 132.5 -38t49.5 -124v-309z" />
    <glyph glyph-name="guillemotleft" unicode="&#xab;" horiz-adv-x="457" 
d="M208 99l-180 180v55l180 178v-95l-102 -110l102 -108v-100zM426 99l-181 180v55l181 178v-95l-102 -110l102 -108v-100z" />
    <glyph glyph-name="logicalnot" unicode="&#xac;" 
d="M451 385v-254h-76v175h-344v79h420z" />
    <glyph glyph-name="registered" unicode="&#xae;" horiz-adv-x="856" 
d="M428 -12q-104 0 -189.5 51t-136.5 136.5t-51 189.5t51 189.5t136.5 136.5t189.5 51t189.5 -51t136.5 -136.5t51 -189.5t-51 -189.5t-136.5 -136.5t-189.5 -51zM428 46q88 0 159.5 43t114.5 115.5t43 160.5t-43 160t-114.5 115.5t-159.5 43.5t-160 -43.5t-114.5 -115.5
t-42.5 -160t42.5 -160.5t114.5 -115.5t160 -43zM283 157v434h166q53 0 96.5 -28t43.5 -92q0 -58 -28.5 -88t-65.5 -35l-1 -4l138 -187h-84l-123 176h-69v-176h-73zM355 395h99q30 0 48 19t18 51q1 32 -21.5 48.5t-54.5 16.5h-89v-135z" />
    <glyph glyph-name="macron" unicode="&#xaf;" 
d="M381 602h-262v78h262v-78z" />
    <glyph glyph-name="degree" unicode="&#xb0;" horiz-adv-x="436" 
d="M218 366q-78 0 -133 55t-55 133t55 133t133 55t133 -55t55 -133t-55 -133t-133 -55zM218 441q47 0 81 33.5t34 79.5q0 47 -34 80.5t-81 33.5t-81 -33.5t-34 -80.5q0 -46 34 -79.5t81 -33.5z" />
    <glyph glyph-name="plusminus" unicode="&#xb1;" 
d="M474 296h-185v-183h-77v183h-186v70h186v183h77v-183h185v-70zM469 25h-436v70h436v-70z" />
    <glyph glyph-name="twosuperior" unicode="&#xb2;" horiz-adv-x="322" 
d="M301 372h-281v29l160 157q10 10 20 24.5t10 36.5t-15 38.5t-46 16.5q-35 0 -49.5 -21t-15.5 -48h-70q0 55 37.5 95.5t105.5 40.5q66 0 99.5 -31t33.5 -74q0 -41 -15 -67t-31 -42l-95 -90h152v-65z" />
    <glyph glyph-name="threesuperior" unicode="&#xb3;" horiz-adv-x="346" 
d="M226 569q41 -7 65 -32t24 -60q0 -37 -32.5 -75t-121.5 -38q-62 0 -96 14.5t-55 29.5l43 45q17 -11 42.5 -19.5t61.5 -8.5q47 0 67 18t20 45q0 29 -24 38.5t-58 9.5h-72v56h66q33 0 52 11.5t19 33.5q0 19 -17 30.5t-51 11.5q-30 0 -55.5 -11t-38.5 -27l-43 42
q20 22 53 40.5t94 18.5q62 0 96.5 -25.5t34.5 -64.5q0 -33 -22.5 -54.5t-51.5 -28.5z" />
    <glyph glyph-name="acute" unicode="&#xb4;" 
d="M152 597l106 163h107l-122 -163h-91z" />
    <glyph glyph-name="mu" unicode="&#xb5;" horiz-adv-x="623" 
d="M81 -190v729h89v-368q0 -45 39 -76t94 -31q34 0 67.5 17.5t56 50.5t22.5 80v327h89v-539h-82v100q-16 -43 -68 -73.5t-106 -33.5q-37 0 -71 15.5t-48 43.5v-242h-82z" />
    <glyph glyph-name="paragraph" unicode="&#xb6;" horiz-adv-x="697" 
d="M617 -179h-61v838h-115v-838h-62v426h-109q-62 0 -116.5 33t-88.5 87t-34 118q0 104 71.5 174.5t187.5 70.5h327v-909zM380 322v333h-59q-68 0 -112 -47.5t-44 -119.5q0 -67 43.5 -116.5t103.5 -49.5h68z" />
    <glyph glyph-name="periodcentered" unicode="&#xb7;" horiz-adv-x="253" 
d="M172 285h-91v134h91v-134z" />
    <glyph glyph-name="cedilla" unicode="&#xb8;" 
d="M256 -188q-36 0 -73.5 9t-58.5 23l14 41q14 -8 37 -16t52 -8q22 0 39.5 10t17.5 27q0 19 -15 26.5t-33 7.5q-20 0 -41 -6l-12 12l60 74h55l-50 -62q52 11 87.5 -8t35.5 -55q0 -38 -34.5 -56.5t-80.5 -18.5z" />
    <glyph glyph-name="onesuperior" unicode="&#xb9;" horiz-adv-x="326" 
d="M140 372v272q-11 -17 -40 -29.5t-50 -15.5l-1 79q37 5 64 20.5t55 41.5h56v-368h-84z" />
    <glyph glyph-name="ordmasculine" unicode="&#xba;" horiz-adv-x="542" 
d="M57 132v78h425v-78h-425zM267 262q-90 0 -159.5 62.5t-69.5 174.5q0 65 31.5 119.5t84 87.5t116.5 33q99 0 167 -63t68 -167q0 -107 -69.5 -177t-168.5 -70zM268 340q68 0 110.5 47t42.5 120q0 69 -40 114t-111 45q-67 0 -108 -47.5t-41 -121.5q0 -72 41.5 -114.5
t105.5 -42.5z" />
    <glyph glyph-name="guillemotright" unicode="&#xbb;" horiz-adv-x="462" 
d="M31 512l182 -179v-56l-182 -178v96l102 110l-102 108v99zM253 512l181 -179v-56l-181 -178v96l103 110l-103 108v99z" />
    <glyph glyph-name="onequarter" unicode="&#xbc;" horiz-adv-x="680" 
d="M93 372v272q-11 -17 -40 -29.5t-50 -15.5l-1 79q37 5 64 20.5t55 41.5h56v-368h-84zM565 730l-368 -730h-79l369 730h78zM378 83v55l187 228h51v-225h62v-58h-62v-82h-74v82h-164zM438 130h106v132z" />
    <glyph glyph-name="onehalf" unicode="&#xbd;" horiz-adv-x="733" 
d="M93 372v272q-11 -17 -40 -29.5t-50 -15.5l-1 79q37 5 64 20.5t55 41.5h56v-368h-84zM565 730l-368 -730h-79l369 730h78zM724 0h-281v29l160 157q10 10 20 24.5t10 36.5t-15 38.5t-46 16.5q-35 0 -49.5 -21t-15.5 -48h-70q0 55 37.5 95.5t105.5 40.5q66 0 99.5 -31
t33.5 -74q0 -41 -15 -67t-31 -42l-95 -90h152v-65z" />
    <glyph glyph-name="threequarters" unicode="&#xbe;" horiz-adv-x="741" 
d="M626 730l-368 -730h-79l369 730h78zM439 83v55l187 228h51v-225h62v-58h-62v-82h-74v82h-164zM499 130h106v132zM218 569q41 -7 65 -32t24 -60q0 -37 -32.5 -75t-121.5 -38q-62 0 -96 14.5t-55 29.5l43 45q17 -11 42.5 -19.5t61.5 -8.5q47 0 67 18t20 45q0 29 -24 38.5
t-58 9.5h-72v56h66q33 0 52 11.5t19 33.5q0 19 -17 30.5t-51 11.5q-30 0 -55.5 -11t-38.5 -27l-43 42q20 22 53 40.5t94 18.5q62 0 96.5 -25.5t34.5 -64.5q0 -33 -22.5 -54.5t-51.5 -28.5z" />
    <glyph glyph-name="questiondown" unicode="&#xbf;" horiz-adv-x="478" 
d="M244 -130q-92 0 -155.5 46.5t-63.5 130.5q0 78 44 123.5t82 72.5q44 33 56 78t13 91h90q0 -76 -15 -119t-64 -82q-27 -20 -52.5 -41t-42 -47.5t-16.5 -63.5q0 -50 38.5 -78.5t94.5 -28.5q50 0 90.5 22.5t65.5 53.5l60 -59q-32 -40 -88.5 -69.5t-136.5 -29.5zM212 489v123
h102v-123h-102z" />
    <glyph glyph-name="Agrave" unicode="&#xc0;" horiz-adv-x="655" 
d="M449 270l-127 320l-126 -320h253zM653 0h-103l-79 196h-298l-75 -196h-96l296 733h64zM429 779h-91l-122 164h106z" />
    <glyph glyph-name="Aacute" unicode="&#xc1;" horiz-adv-x="655" 
d="M449 270l-127 320l-126 -320h253zM653 0h-103l-79 196h-298l-75 -196h-96l296 733h64zM216 788l106 163h107l-122 -163h-91z" />
    <glyph glyph-name="Acircumflex" unicode="&#xc2;" horiz-adv-x="655" 
d="M449 270l-127 320l-126 -320h253zM653 0h-103l-79 196h-298l-75 -196h-96l296 733h64zM492 780h-85l-85 117l-86 -117h-83l123 172h93z" />
    <glyph glyph-name="Atilde" unicode="&#xc3;" horiz-adv-x="655" 
d="M449 270l-127 320l-126 -320h253zM653 0h-103l-79 196h-298l-75 -196h-96l296 733h64zM425 923h73q0 -70 -22 -103t-60 -33q-28 0 -49.5 12t-40.5 26q-18 13 -34.5 25.5t-33.5 12.5t-28.5 -17.5t-12.5 -54.5h-71q0 69 28.5 102.5t62.5 33.5q27 0 47 -12.5t39 -27.5
q17 -14 32 -24.5t31 -10.5t27 18.5t12 52.5z" />
    <glyph glyph-name="Adieresis" unicode="&#xc4;" horiz-adv-x="655" 
d="M449 270l-127 320l-126 -320h253zM653 0h-103l-79 196h-298l-75 -196h-96l296 733h64zM453 781h-77v157h77v-157zM268 781h-77v157h77v-157z" />
    <glyph glyph-name="Aring" unicode="&#xc5;" horiz-adv-x="655" 
d="M449 270l-127 320l-126 -320h253zM653 0h-103l-79 196h-298l-75 -196h-96l296 733h64zM322 780q-51 0 -86.5 36t-35.5 87t35.5 86.5t86.5 35.5q52 0 87 -35.5t35 -86.5t-35 -87t-87 -36zM322 839q27 0 45 18.5t18 45.5q0 26 -18 45t-45 19q-26 0 -44.5 -19t-18.5 -45
q0 -27 18.5 -45.5t44.5 -18.5z" />
    <glyph glyph-name="AE" unicode="&#xc6;" horiz-adv-x="972" 
d="M919 0h-430v249h-247l-157 -249h-104l462 730h457v-85h-320v-240h305v-81h-305v-239h339v-85zM489 330v330l-202 -330h202z" />
    <glyph glyph-name="Ccedilla" unicode="&#xc7;" horiz-adv-x="749" 
d="M409 -12q-97 0 -179 46t-132 130.5t-50 200.5q0 111 46.5 196t128.5 133t187 48q99 0 170 -30t119 -92l-73 -61q-36 41 -86.5 67t-128.5 26q-82 0 -141.5 -35t-91.5 -98.5t-32 -149.5q0 -96 39.5 -161.5t102 -98.5t131.5 -33q78 0 133.5 30.5t91.5 80.5l72 -52
q-42 -61 -120 -104t-187 -43zM416 -198q-36 0 -73.5 9t-58.5 23l14 41q14 -8 37 -16t52 -8q22 0 39.5 10t17.5 27q0 19 -15 26.5t-33 7.5q-20 0 -41 -6l-12 12l60 74h55l-50 -62q52 11 87.5 -8t35.5 -55q0 -38 -34.5 -56.5t-80.5 -18.5z" />
    <glyph glyph-name="Egrave" unicode="&#xc8;" horiz-adv-x="587" 
d="M530 0h-434v730h415v-85h-319v-239h304v-83h-304v-238h338v-85zM419 779h-91l-122 164h106z" />
    <glyph glyph-name="Eacute" unicode="&#xc9;" horiz-adv-x="587" 
d="M530 0h-434v730h415v-85h-319v-239h304v-83h-304v-238h338v-85zM206 788l106 163h107l-122 -163h-91z" />
    <glyph glyph-name="Ecircumflex" unicode="&#xca;" horiz-adv-x="587" 
d="M530 0h-434v730h415v-85h-319v-239h304v-83h-304v-238h338v-85zM482 780h-85l-85 117l-86 -117h-83l123 172h93z" />
    <glyph glyph-name="Edieresis" unicode="&#xcb;" horiz-adv-x="587" 
d="M530 0h-434v730h415v-85h-319v-239h304v-83h-304v-238h338v-85zM443 781h-77v157h77v-157zM258 781h-77v157h77v-157z" />
    <glyph glyph-name="Igrave" unicode="&#xcc;" horiz-adv-x="297" 
d="M197 0h-97v730h97v-730zM255 779h-91l-122 164h106z" />
    <glyph glyph-name="Iacute" unicode="&#xcd;" horiz-adv-x="297" 
d="M197 0h-97v730h97v-730zM42 788l106 163h107l-122 -163h-91z" />
    <glyph glyph-name="Icircumflex" unicode="&#xce;" horiz-adv-x="297" 
d="M197 0h-97v730h97v-730zM318 780h-85l-85 117l-86 -117h-83l123 172h93z" />
    <glyph glyph-name="Idieresis" unicode="&#xcf;" horiz-adv-x="297" 
d="M197 0h-97v730h97v-730zM279 781h-77v157h77v-157zM94 781h-77v157h77v-157z" />
    <glyph glyph-name="Eth" unicode="&#xd0;" horiz-adv-x="748" 
d="M96 0v730h218q183 0 285 -98t102 -265q0 -152 -102 -259.5t-300 -107.5h-203zM189 74h101q113 0 181 41.5t99 108t31 141.5q0 136 -76.5 213.5t-212.5 77.5h-123v-582zM35 322v70h340v-70h-340z" />
    <glyph glyph-name="Ntilde" unicode="&#xd1;" horiz-adv-x="791" 
d="M695 0h-70l-438 561v-561h-91v730h75l435 -557v557h89v-730zM498 923h73q0 -70 -22 -103t-60 -33q-28 0 -49.5 12t-40.5 26q-18 13 -34.5 25.5t-33.5 12.5t-28.5 -17.5t-12.5 -54.5h-71q0 69 28.5 102.5t62.5 33.5q27 0 47 -12.5t39 -27.5q17 -14 32 -24.5t31 -10.5
t27 18.5t12 52.5z" />
    <glyph glyph-name="Ograve" unicode="&#xd2;" horiz-adv-x="843" 
d="M431 72q76 0 136 35t96 100.5t36 156.5q0 85 -37.5 150.5t-103 102.5t-147.5 37q-77 0 -137 -34t-95 -98t-35 -151q0 -91 39.5 -158t104.5 -104t143 -37zM425 -12q-110 0 -195.5 50t-133.5 136.5t-48 195.5q0 107 49 191t132.5 132.5t187.5 48.5q111 0 196.5 -48.5
t134 -133t48.5 -193.5q0 -111 -51 -196.5t-135 -134t-185 -48.5zM523 779h-91l-122 164h106z" />
    <glyph glyph-name="Oacute" unicode="&#xd3;" horiz-adv-x="843" 
d="M431 72q76 0 136 35t96 100.5t36 156.5q0 85 -37.5 150.5t-103 102.5t-147.5 37q-77 0 -137 -34t-95 -98t-35 -151q0 -91 39.5 -158t104.5 -104t143 -37zM425 -12q-110 0 -195.5 50t-133.5 136.5t-48 195.5q0 107 49 191t132.5 132.5t187.5 48.5q111 0 196.5 -48.5
t134 -133t48.5 -193.5q0 -111 -51 -196.5t-135 -134t-185 -48.5zM310 788l106 163h107l-122 -163h-91z" />
    <glyph glyph-name="Ocircumflex" unicode="&#xd4;" horiz-adv-x="843" 
d="M431 72q76 0 136 35t96 100.5t36 156.5q0 85 -37.5 150.5t-103 102.5t-147.5 37q-77 0 -137 -34t-95 -98t-35 -151q0 -91 39.5 -158t104.5 -104t143 -37zM425 -12q-110 0 -195.5 50t-133.5 136.5t-48 195.5q0 107 49 191t132.5 132.5t187.5 48.5q111 0 196.5 -48.5
t134 -133t48.5 -193.5q0 -111 -51 -196.5t-135 -134t-185 -48.5zM586 780h-85l-85 117l-86 -117h-83l123 172h93z" />
    <glyph glyph-name="Otilde" unicode="&#xd5;" horiz-adv-x="843" 
d="M431 72q76 0 136 35t96 100.5t36 156.5q0 85 -37.5 150.5t-103 102.5t-147.5 37q-77 0 -137 -34t-95 -98t-35 -151q0 -91 39.5 -158t104.5 -104t143 -37zM425 -12q-110 0 -195.5 50t-133.5 136.5t-48 195.5q0 107 49 191t132.5 132.5t187.5 48.5q111 0 196.5 -48.5
t134 -133t48.5 -193.5q0 -111 -51 -196.5t-135 -134t-185 -48.5zM519 923h73q0 -70 -22 -103t-60 -33q-28 0 -49.5 12t-40.5 26q-18 13 -34.5 25.5t-33.5 12.5t-28.5 -17.5t-12.5 -54.5h-71q0 69 28.5 102.5t62.5 33.5q27 0 47 -12.5t39 -27.5q17 -14 32 -24.5t31 -10.5
t27 18.5t12 52.5z" />
    <glyph glyph-name="Odieresis" unicode="&#xd6;" horiz-adv-x="843" 
d="M431 72q76 0 136 35t96 100.5t36 156.5q0 85 -37.5 150.5t-103 102.5t-147.5 37q-77 0 -137 -34t-95 -98t-35 -151q0 -91 39.5 -158t104.5 -104t143 -37zM425 -12q-110 0 -195.5 50t-133.5 136.5t-48 195.5q0 107 49 191t132.5 132.5t187.5 48.5q111 0 196.5 -48.5
t134 -133t48.5 -193.5q0 -111 -51 -196.5t-135 -134t-185 -48.5zM547 781h-77v157h77v-157zM362 781h-77v157h77v-157z" />
    <glyph glyph-name="multiply" unicode="&#xd7;" 
d="M113 143l-51 51l137 137l-136 136l50 51l137 -136l137 136l50 -51l-137 -136l138 -137l-51 -52l-137 139z" />
    <glyph glyph-name="Oslash" unicode="&#xd8;" horiz-adv-x="843" 
d="M108 0l-52 49l693 694l52 -49zM431 72q76 0 136 35t96 100.5t36 156.5q0 85 -37.5 150.5t-103 102.5t-147.5 37q-77 0 -137 -34t-95 -98t-35 -151q0 -91 39.5 -158t104.5 -104t143 -37zM425 -12q-110 0 -195.5 50t-133.5 136.5t-48 195.5q0 107 49 191t132.5 132.5
t187.5 48.5q111 0 196.5 -48.5t134 -133t48.5 -193.5q0 -111 -51 -196.5t-135 -134t-185 -48.5z" />
    <glyph glyph-name="Ugrave" unicode="&#xd9;" horiz-adv-x="761" 
d="M670 730v-464q0 -87 -39.5 -149.5t-105 -95.5t-145.5 -33q-78 0 -143.5 32t-105 94t-39.5 152v464h95v-463q0 -88 57 -139.5t134 -51.5q79 0 138 49.5t59 141.5v463h95zM487 779h-91l-122 164h106z" />
    <glyph glyph-name="Uacute" unicode="&#xda;" horiz-adv-x="761" 
d="M670 730v-464q0 -87 -39.5 -149.5t-105 -95.5t-145.5 -33q-78 0 -143.5 32t-105 94t-39.5 152v464h95v-463q0 -88 57 -139.5t134 -51.5q79 0 138 49.5t59 141.5v463h95zM274 788l106 163h107l-122 -163h-91z" />
    <glyph glyph-name="Ucircumflex" unicode="&#xdb;" horiz-adv-x="761" 
d="M670 730v-464q0 -87 -39.5 -149.5t-105 -95.5t-145.5 -33q-78 0 -143.5 32t-105 94t-39.5 152v464h95v-463q0 -88 57 -139.5t134 -51.5q79 0 138 49.5t59 141.5v463h95zM550 780h-85l-85 117l-86 -117h-83l123 172h93z" />
    <glyph glyph-name="Udieresis" unicode="&#xdc;" horiz-adv-x="761" 
d="M670 730v-464q0 -87 -39.5 -149.5t-105 -95.5t-145.5 -33q-78 0 -143.5 32t-105 94t-39.5 152v464h95v-463q0 -88 57 -139.5t134 -51.5q79 0 138 49.5t59 141.5v463h95zM511 781h-77v157h77v-157zM326 781h-77v157h77v-157z" />
    <glyph glyph-name="Yacute" unicode="&#xdd;" horiz-adv-x="662" 
d="M662 730l-284 -420v-310h-98v314l-279 416h109l224 -330l225 330h103zM228 788l106 163h107l-122 -163h-91z" />
    <glyph glyph-name="Thorn" unicode="&#xde;" horiz-adv-x="606" 
d="M96 0v730h97v-129h154q111 0 172 -60.5t61 -156.5t-63.5 -158.5t-165.5 -62.5h-158v-163h-97zM191 237h146q66 0 105 39t39 111q0 68 -44 102.5t-108 34.5h-138v-287z" />
    <glyph glyph-name="germandbls" unicode="&#xdf;" horiz-adv-x="692" 
d="M467 -11q-73 0 -129 19t-95 51l40 62q37 -27 85 -43t95 -16q46 0 75 23.5t29 58.5q0 30 -26.5 54t-104.5 47q-98 27 -137.5 59t-39.5 97q0 57 38.5 88.5t85.5 38.5q6 5 16.5 21t11.5 52q0 64 -36 97.5t-85 33.5q-46 0 -78 -26t-32 -83v-623h-92v637q0 84 56.5 126.5
t138.5 42.5q84 0 149 -48t65 -131q0 -57 -16.5 -89.5t-30.5 -45.5q-40 -6 -75 -27t-41 -52q0 -34 35 -56t113 -45q96 -28 138 -65.5t42 -97.5q0 -74 -56 -117t-139 -43z" />
    <glyph glyph-name="agrave" unicode="&#xe0;" horiz-adv-x="594" 
d="M433 141v140l-143 -8q-66 -3 -108.5 -30.5t-42.5 -83.5q0 -45 34 -70.5t90 -25.5q50 0 96.5 22t73.5 56zM521 0h-89v75q-31 -39 -82 -61t-120 -22q-87 0 -137 42t-50 115q0 91 69.5 139t187.5 55l131 8v8q0 60 -35 87.5t-96 27.5q-52 0 -98.5 -17.5t-85.5 -42.5l-39 66
q43 30 101.5 51.5t132.5 21.5q97 0 153.5 -46t56.5 -147v-360zM400 588h-91l-122 164h106z" />
    <glyph glyph-name="aacute" unicode="&#xe1;" horiz-adv-x="594" 
d="M433 141v140l-143 -8q-66 -3 -108.5 -30.5t-42.5 -83.5q0 -45 34 -70.5t90 -25.5q50 0 96.5 22t73.5 56zM521 0h-89v75q-31 -39 -82 -61t-120 -22q-87 0 -137 42t-50 115q0 91 69.5 139t187.5 55l131 8v8q0 60 -35 87.5t-96 27.5q-52 0 -98.5 -17.5t-85.5 -42.5l-39 66
q43 30 101.5 51.5t132.5 21.5q97 0 153.5 -46t56.5 -147v-360zM187 597l106 163h107l-122 -163h-91z" />
    <glyph glyph-name="acircumflex" unicode="&#xe2;" horiz-adv-x="594" 
d="M433 141v140l-143 -8q-66 -3 -108.5 -30.5t-42.5 -83.5q0 -45 34 -70.5t90 -25.5q50 0 96.5 22t73.5 56zM521 0h-89v75q-31 -39 -82 -61t-120 -22q-87 0 -137 42t-50 115q0 91 69.5 139t187.5 55l131 8v8q0 60 -35 87.5t-96 27.5q-52 0 -98.5 -17.5t-85.5 -42.5l-39 66
q43 30 101.5 51.5t132.5 21.5q97 0 153.5 -46t56.5 -147v-360zM463 589h-85l-85 117l-86 -117h-83l123 172h93z" />
    <glyph glyph-name="atilde" unicode="&#xe3;" horiz-adv-x="594" 
d="M433 141v140l-143 -8q-66 -3 -108.5 -30.5t-42.5 -83.5q0 -45 34 -70.5t90 -25.5q50 0 96.5 22t73.5 56zM521 0h-89v75q-31 -39 -82 -61t-120 -22q-87 0 -137 42t-50 115q0 91 69.5 139t187.5 55l131 8v8q0 60 -35 87.5t-96 27.5q-52 0 -98.5 -17.5t-85.5 -42.5l-39 66
q43 30 101.5 51.5t132.5 21.5q97 0 153.5 -46t56.5 -147v-360zM396 732h73q0 -70 -22 -103t-60 -33q-28 0 -49.5 12t-40.5 26q-18 13 -34.5 25.5t-33.5 12.5t-28.5 -17.5t-12.5 -54.5h-71q0 69 28.5 102.5t62.5 33.5q27 0 47 -12.5t39 -27.5q17 -14 32 -24.5t31 -10.5
t27 18.5t12 52.5z" />
    <glyph glyph-name="adieresis" unicode="&#xe4;" horiz-adv-x="594" 
d="M433 141v140l-143 -8q-66 -3 -108.5 -30.5t-42.5 -83.5q0 -45 34 -70.5t90 -25.5q50 0 96.5 22t73.5 56zM521 0h-89v75q-31 -39 -82 -61t-120 -22q-87 0 -137 42t-50 115q0 91 69.5 139t187.5 55l131 8v8q0 60 -35 87.5t-96 27.5q-52 0 -98.5 -17.5t-85.5 -42.5l-39 66
q43 30 101.5 51.5t132.5 21.5q97 0 153.5 -46t56.5 -147v-360zM424 590h-77v157h77v-157zM239 590h-77v157h77v-157z" />
    <glyph glyph-name="aring" unicode="&#xe5;" horiz-adv-x="594" 
d="M433 141v140l-143 -8q-66 -3 -108.5 -30.5t-42.5 -83.5q0 -45 34 -70.5t90 -25.5q50 0 96.5 22t73.5 56zM521 0h-89v75q-31 -39 -82 -61t-120 -22q-87 0 -137 42t-50 115q0 91 69.5 139t187.5 55l131 8v8q0 60 -35 87.5t-96 27.5q-52 0 -98.5 -17.5t-85.5 -42.5l-39 66
q43 30 101.5 51.5t132.5 21.5q97 0 153.5 -46t56.5 -147v-360zM293 589q-51 0 -86.5 36t-35.5 87t35.5 86.5t86.5 35.5q52 0 87 -35.5t35 -86.5t-35 -87t-87 -36zM293 648q27 0 45 18.5t18 45.5q0 26 -18 45t-45 19q-26 0 -44.5 -19t-18.5 -45q0 -27 18.5 -45.5t44.5 -18.5z
" />
    <glyph glyph-name="ae" unicode="&#xe6;" horiz-adv-x="1019" 
d="M269 63q62 0 107 40t69 83v94l-143 -9q-65 -4 -108.5 -26.5t-43.5 -81.5q0 -49 34 -74.5t85 -25.5zM715 -11q-94 0 -159 44.5t-81 92.5q-24 -52 -84.5 -93t-153.5 -41q-83 0 -132.5 42t-49.5 115q0 92 69 138.5t188 53.5l132 9v9q0 54 -35.5 84.5t-97.5 30.5
q-51 0 -98.5 -18.5t-86.5 -42.5l-37 67q43 31 97.5 52t119.5 21q80 0 127 -32t63 -87q17 37 72 77t141 40q120 0 193.5 -82t74.5 -228h-452q0 -75 53.5 -122.5t134.5 -47.5q79 0 117 26t62 53l57 -64q-38 -42 -92 -69.5t-142 -27.5zM526 307h356q-2 68 -49 117t-127 49
q-77 0 -126 -48.5t-54 -117.5z" />
    <glyph glyph-name="ccedilla" unicode="&#xe7;" horiz-adv-x="589" 
d="M489 168l71 -50q-30 -45 -85.5 -87t-153.5 -42q-121 0 -199.5 77t-78.5 202q0 81 36.5 145t100 101t144.5 37q99 0 155.5 -45t75.5 -97l-78 -34q-18 36 -55 65.5t-101 29.5q-83 0 -133.5 -58.5t-50.5 -141.5q0 -87 50 -143t136 -56q70 0 108 32t58 65zM323 -198
q-36 0 -73.5 9t-58.5 23l14 41q14 -8 37 -16t52 -8q22 0 39.5 10t17.5 27q0 19 -15 26.5t-33 7.5q-20 0 -41 -6l-12 12l60 74h55l-50 -62q52 11 87.5 -8t35.5 -55q0 -38 -34.5 -56.5t-80.5 -18.5z" />
    <glyph glyph-name="egrave" unicode="&#xe8;" horiz-adv-x="630" 
d="M325 -11q-121 0 -201.5 73.5t-80.5 206.5q0 78 36.5 142t98.5 102t142 38q120 0 193.5 -82.5t73.5 -228.5h-452q3 -69 52.5 -119t134.5 -50q69 0 111 23t70 55l57 -63q-38 -42 -92 -69.5t-143 -27.5zM134 308h359q-2 72 -51 118.5t-126 46.5q-76 0 -126 -50t-56 -115z
M424 588h-91l-122 164h106z" />
    <glyph glyph-name="eacute" unicode="&#xe9;" horiz-adv-x="630" 
d="M325 -11q-121 0 -201.5 73.5t-80.5 206.5q0 78 36.5 142t98.5 102t142 38q120 0 193.5 -82.5t73.5 -228.5h-452q3 -69 52.5 -119t134.5 -50q69 0 111 23t70 55l57 -63q-38 -42 -92 -69.5t-143 -27.5zM134 308h359q-2 72 -51 118.5t-126 46.5q-76 0 -126 -50t-56 -115z
M211 597l106 163h107l-122 -163h-91z" />
    <glyph glyph-name="ecircumflex" unicode="&#xea;" horiz-adv-x="630" 
d="M325 -11q-121 0 -201.5 73.5t-80.5 206.5q0 78 36.5 142t98.5 102t142 38q120 0 193.5 -82.5t73.5 -228.5h-452q3 -69 52.5 -119t134.5 -50q69 0 111 23t70 55l57 -63q-38 -42 -92 -69.5t-143 -27.5zM134 308h359q-2 72 -51 118.5t-126 46.5q-76 0 -126 -50t-56 -115z
M487 589h-85l-85 117l-86 -117h-83l123 172h93z" />
    <glyph glyph-name="edieresis" unicode="&#xeb;" horiz-adv-x="630" 
d="M325 -11q-121 0 -201.5 73.5t-80.5 206.5q0 78 36.5 142t98.5 102t142 38q120 0 193.5 -82.5t73.5 -228.5h-452q3 -69 52.5 -119t134.5 -50q69 0 111 23t70 55l57 -63q-38 -42 -92 -69.5t-143 -27.5zM134 308h359q-2 72 -51 118.5t-126 46.5q-76 0 -126 -50t-56 -115z
M448 590h-77v157h77v-157zM263 590h-77v157h77v-157z" />
    <glyph glyph-name="igrave" unicode="&#xec;" horiz-adv-x="272" 
d="M182 0h-92v539h92v-539zM243 588h-91l-122 164h106z" />
    <glyph glyph-name="iacute" unicode="&#xed;" horiz-adv-x="272" 
d="M182 0h-92v539h92v-539zM30 597l106 163h107l-122 -163h-91z" />
    <glyph glyph-name="icircumflex" unicode="&#xee;" horiz-adv-x="272" 
d="M182 0h-92v539h92v-539zM306 589h-85l-85 117l-86 -117h-83l123 172h93z" />
    <glyph glyph-name="idieresis" unicode="&#xef;" horiz-adv-x="272" 
d="M182 0h-92v539h92v-539zM267 590h-77v157h77v-157zM82 590h-77v157h77v-157z" />
    <glyph glyph-name="eth" unicode="&#xf0;" horiz-adv-x="648" 
d="M267 606l-15 42l278 117l14 -42zM323 66q87 0 137.5 57t50.5 146q0 56 -22.5 99t-64.5 68t-101 25q-82 0 -133.5 -57t-51.5 -139q0 -88 53 -143.5t132 -55.5zM319 -11q-115 0 -195 73.5t-80 195.5q0 74 36 136t95 100.5t129 38.5q44 0 83.5 -15.5t69 -42t45.5 -59.5
q-8 87 -34.5 150.5t-62.5 106t-75 67t-73 34.5l86 27q32 -8 75.5 -43t85 -97t68.5 -152.5t27 -209.5q0 -88 -32.5 -158t-95.5 -111t-152 -41z" />
    <glyph glyph-name="ntilde" unicode="&#xf1;" horiz-adv-x="639" 
d="M558 0h-91v370q0 49 -38.5 75.5t-88.5 26.5q-35 0 -72 -14.5t-62.5 -45t-25.5 -77.5v-335h-92v539h79v-118q19 58 74 94t129 36q73 0 130.5 -41.5t57.5 -111.5v-398zM441 732h73q0 -70 -22 -103t-60 -33q-28 0 -49.5 12t-40.5 26q-18 13 -34.5 25.5t-33.5 12.5
t-28.5 -17.5t-12.5 -54.5h-71q0 69 28.5 102.5t62.5 33.5q27 0 47 -12.5t39 -27.5q17 -14 32 -24.5t31 -10.5t27 18.5t12 52.5z" />
    <glyph glyph-name="ograve" unicode="&#xf2;" horiz-adv-x="650" 
d="M321 -11q-73 0 -136 33t-102.5 96t-39.5 149q0 80 38.5 144.5t102 102t139.5 37.5q80 0 144 -34t102 -94.5t38 -140.5q0 -86 -38.5 -151.5t-103.5 -103.5t-144 -38zM326 70q83 0 135 59.5t52 146.5q0 82 -53 137.5t-140 55.5q-54 0 -95 -26.5t-64 -72.5t-23 -104
q0 -60 25.5 -104t67.5 -68t95 -24zM430 588h-91l-122 164h106z" />
    <glyph glyph-name="oacute" unicode="&#xf3;" horiz-adv-x="650" 
d="M321 -11q-73 0 -136 33t-102.5 96t-39.5 149q0 80 38.5 144.5t102 102t139.5 37.5q80 0 144 -34t102 -94.5t38 -140.5q0 -86 -38.5 -151.5t-103.5 -103.5t-144 -38zM326 70q83 0 135 59.5t52 146.5q0 82 -53 137.5t-140 55.5q-54 0 -95 -26.5t-64 -72.5t-23 -104
q0 -60 25.5 -104t67.5 -68t95 -24zM217 597l106 163h107l-122 -163h-91z" />
    <glyph glyph-name="ocircumflex" unicode="&#xf4;" horiz-adv-x="650" 
d="M321 -11q-73 0 -136 33t-102.5 96t-39.5 149q0 80 38.5 144.5t102 102t139.5 37.5q80 0 144 -34t102 -94.5t38 -140.5q0 -86 -38.5 -151.5t-103.5 -103.5t-144 -38zM326 70q83 0 135 59.5t52 146.5q0 82 -53 137.5t-140 55.5q-54 0 -95 -26.5t-64 -72.5t-23 -104
q0 -60 25.5 -104t67.5 -68t95 -24zM493 589h-85l-85 117l-86 -117h-83l123 172h93z" />
    <glyph glyph-name="otilde" unicode="&#xf5;" horiz-adv-x="650" 
d="M321 -11q-73 0 -136 33t-102.5 96t-39.5 149q0 80 38.5 144.5t102 102t139.5 37.5q80 0 144 -34t102 -94.5t38 -140.5q0 -86 -38.5 -151.5t-103.5 -103.5t-144 -38zM326 70q83 0 135 59.5t52 146.5q0 82 -53 137.5t-140 55.5q-54 0 -95 -26.5t-64 -72.5t-23 -104
q0 -60 25.5 -104t67.5 -68t95 -24zM426 732h73q0 -70 -22 -103t-60 -33q-28 0 -49.5 12t-40.5 26q-18 13 -34.5 25.5t-33.5 12.5t-28.5 -17.5t-12.5 -54.5h-71q0 69 28.5 102.5t62.5 33.5q27 0 47 -12.5t39 -27.5q17 -14 32 -24.5t31 -10.5t27 18.5t12 52.5z" />
    <glyph glyph-name="odieresis" unicode="&#xf6;" horiz-adv-x="650" 
d="M321 -11q-73 0 -136 33t-102.5 96t-39.5 149q0 80 38.5 144.5t102 102t139.5 37.5q80 0 144 -34t102 -94.5t38 -140.5q0 -86 -38.5 -151.5t-103.5 -103.5t-144 -38zM326 70q83 0 135 59.5t52 146.5q0 82 -53 137.5t-140 55.5q-54 0 -95 -26.5t-64 -72.5t-23 -104
q0 -60 25.5 -104t67.5 -68t95 -24zM454 590h-77v157h77v-157zM269 590h-77v157h77v-157z" />
    <glyph glyph-name="divide" unicode="&#xf7;" 
d="M26 292v77h448v-77h-448zM207 448v116h86v-116h-86zM207 98v115h86v-115h-86z" />
    <glyph glyph-name="oslash" unicode="&#xf8;" horiz-adv-x="650" 
d="M76 -15l-51 48l534 532l50 -48zM321 -11q-73 0 -136 33t-102.5 96t-39.5 149q0 80 38.5 144.5t102 102t139.5 37.5q80 0 144 -34t102 -94.5t38 -140.5q0 -86 -38.5 -151.5t-103.5 -103.5t-144 -38zM326 70q83 0 135 59.5t52 146.5q0 82 -53 137.5t-140 55.5
q-54 0 -95 -26.5t-64 -72.5t-23 -104q0 -60 25.5 -104t67.5 -68t95 -24z" />
    <glyph glyph-name="ugrave" unicode="&#xf9;" horiz-adv-x="639" 
d="M81 539h91v-339q0 -74 40.5 -104.5t100.5 -30.5q59 0 102.5 38t43.5 100v336h92v-539h-83v112q-14 -47 -63.5 -85.5t-126.5 -38.5q-80 0 -138.5 42.5t-58.5 134.5v374zM423 588h-91l-122 164h106z" />
    <glyph glyph-name="uacute" unicode="&#xfa;" horiz-adv-x="639" 
d="M81 539h91v-339q0 -74 40.5 -104.5t100.5 -30.5q59 0 102.5 38t43.5 100v336h92v-539h-83v112q-14 -47 -63.5 -85.5t-126.5 -38.5q-80 0 -138.5 42.5t-58.5 134.5v374zM210 597l106 163h107l-122 -163h-91z" />
    <glyph glyph-name="ucircumflex" unicode="&#xfb;" horiz-adv-x="639" 
d="M81 539h91v-339q0 -74 40.5 -104.5t100.5 -30.5q59 0 102.5 38t43.5 100v336h92v-539h-83v112q-14 -47 -63.5 -85.5t-126.5 -38.5q-80 0 -138.5 42.5t-58.5 134.5v374zM486 589h-85l-85 117l-86 -117h-83l123 172h93z" />
    <glyph glyph-name="udieresis" unicode="&#xfc;" horiz-adv-x="639" 
d="M81 539h91v-339q0 -74 40.5 -104.5t100.5 -30.5q59 0 102.5 38t43.5 100v336h92v-539h-83v112q-14 -47 -63.5 -85.5t-126.5 -38.5q-80 0 -138.5 42.5t-58.5 134.5v374zM447 590h-77v157h77v-157zM262 590h-77v157h77v-157z" />
    <glyph glyph-name="yacute" unicode="&#xfd;" horiz-adv-x="547" 
d="M552 539l-288 -616q-34 -72 -82.5 -97.5t-93.5 -25.5q-23 0 -40 5.5t-25 8.5l30 80q4 -2 16.5 -5.5t25.5 -3.5q26 0 48.5 17.5t44.5 61.5l36 70l-228 505h98l179 -404l184 404h95zM168 597l106 163h107l-122 -163h-91z" />
    <glyph glyph-name="thorn" unicode="&#xfe;" horiz-adv-x="663" 
d="M88 -194v994h91v-388q14 53 64.5 95.5t137.5 42.5q106 0 172.5 -73t66.5 -200q0 -129 -70.5 -206.5t-175.5 -77.5q-75 0 -126.5 38t-67.5 93v-318h-92zM353 70q74 0 123.5 58t49.5 147q0 84 -43.5 141t-127.5 57q-52 0 -93 -22t-64 -68t-23 -115q0 -102 51.5 -150
t126.5 -48z" />
    <glyph glyph-name="ydieresis" unicode="&#xff;" horiz-adv-x="547" 
d="M552 539l-288 -616q-34 -72 -82.5 -97.5t-93.5 -25.5q-23 0 -40 5.5t-25 8.5l30 80q4 -2 16.5 -5.5t25.5 -3.5q26 0 48.5 17.5t44.5 61.5l36 70l-228 505h98l179 -404l184 404h95zM405 590h-77v157h77v-157zM220 590h-77v157h77v-157z" />
    <glyph glyph-name="Amacron" unicode="&#x100;" horiz-adv-x="655" 
d="M449 270l-127 320l-126 -320h253zM653 0h-103l-79 196h-298l-75 -196h-96l296 733h64zM453 793h-262v78h262v-78z" />
    <glyph glyph-name="amacron" unicode="&#x101;" horiz-adv-x="594" 
d="M433 141v140l-143 -8q-66 -3 -108.5 -30.5t-42.5 -83.5q0 -45 34 -70.5t90 -25.5q50 0 96.5 22t73.5 56zM521 0h-89v75q-31 -39 -82 -61t-120 -22q-87 0 -137 42t-50 115q0 91 69.5 139t187.5 55l131 8v8q0 60 -35 87.5t-96 27.5q-52 0 -98.5 -17.5t-85.5 -42.5l-39 66
q43 30 101.5 51.5t132.5 21.5q97 0 153.5 -46t56.5 -147v-360zM424 602h-262v78h262v-78z" />
    <glyph glyph-name="Abreve" unicode="&#x102;" horiz-adv-x="655" 
d="M449 270l-127 320l-126 -320h253zM653 0h-103l-79 196h-298l-75 -196h-96l296 733h64zM404 943h75q-5 -83 -48.5 -120.5t-108.5 -37.5t-108 37.5t-49 120.5h75q3 -44 22 -70.5t60 -26.5t60 26t22 71z" />
    <glyph glyph-name="abreve" unicode="&#x103;" horiz-adv-x="594" 
d="M433 141v140l-143 -8q-66 -3 -108.5 -30.5t-42.5 -83.5q0 -45 34 -70.5t90 -25.5q50 0 96.5 22t73.5 56zM521 0h-89v75q-31 -39 -82 -61t-120 -22q-87 0 -137 42t-50 115q0 91 69.5 139t187.5 55l131 8v8q0 60 -35 87.5t-96 27.5q-52 0 -98.5 -17.5t-85.5 -42.5l-39 66
q43 30 101.5 51.5t132.5 21.5q97 0 153.5 -46t56.5 -147v-360zM375 752h75q-5 -83 -48.5 -120.5t-108.5 -37.5t-108 37.5t-49 120.5h75q3 -44 22 -70.5t60 -26.5t60 26t22 71z" />
    <glyph glyph-name="Aogonek" unicode="&#x104;" horiz-adv-x="655" 
d="M449 270l-127 320l-126 -320h253zM653 0h-103l-79 196h-298l-75 -196h-96l296 733h64zM685 -96l26 -38q-61 -62 -153 -62q-51 0 -80.5 21.5t-29.5 55.5t27 65t76 55l62 -1q-41 -20 -64.5 -41t-23.5 -43q0 -21 17.5 -33.5t45.5 -12.5q30 0 55.5 9t41.5 25z" />
    <glyph glyph-name="aogonek" unicode="&#x105;" horiz-adv-x="594" 
d="M433 141v140l-143 -8q-66 -3 -108.5 -30.5t-42.5 -83.5q0 -45 34 -70.5t90 -25.5q50 0 96.5 22t73.5 56zM521 0h-89v75q-31 -39 -82 -61t-120 -22q-87 0 -137 42t-50 115q0 91 69.5 139t187.5 55l131 8v8q0 60 -35 87.5t-96 27.5q-52 0 -98.5 -17.5t-85.5 -42.5l-39 66
q43 30 101.5 51.5t132.5 21.5q97 0 153.5 -46t56.5 -147v-360zM567 -96l26 -38q-61 -62 -153 -62q-51 0 -80.5 21.5t-29.5 55.5t27 65t76 55l62 -1q-41 -20 -64.5 -41t-23.5 -43q0 -21 17.5 -33.5t45.5 -12.5q30 0 55.5 9t41.5 25z" />
    <glyph glyph-name="Cacute" unicode="&#x106;" horiz-adv-x="749" 
d="M409 -12q-97 0 -179 46t-132 130.5t-50 200.5q0 111 46.5 196t128.5 133t187 48q99 0 170 -30t119 -92l-73 -61q-36 41 -86.5 67t-128.5 26q-82 0 -141.5 -35t-91.5 -98.5t-32 -149.5q0 -96 39.5 -161.5t102 -98.5t131.5 -33q78 0 133.5 30.5t91.5 80.5l72 -52
q-42 -61 -120 -104t-187 -43zM303 788l106 163h107l-122 -163h-91z" />
    <glyph glyph-name="cacute" unicode="&#x107;" horiz-adv-x="589" 
d="M489 168l71 -50q-30 -45 -85.5 -87t-153.5 -42q-121 0 -199.5 77t-78.5 202q0 81 36.5 145t100 101t144.5 37q99 0 155.5 -45t75.5 -97l-78 -34q-18 36 -55 65.5t-101 29.5q-83 0 -133.5 -58.5t-50.5 -141.5q0 -87 50 -143t136 -56q70 0 108 32t58 65zM217 597l106 163
h107l-122 -163h-91z" />
    <glyph glyph-name="Ccircumflex" unicode="&#x108;" horiz-adv-x="749" 
d="M409 -12q-97 0 -179 46t-132 130.5t-50 200.5q0 111 46.5 196t128.5 133t187 48q99 0 170 -30t119 -92l-73 -61q-36 41 -86.5 67t-128.5 26q-82 0 -141.5 -35t-91.5 -98.5t-32 -149.5q0 -96 39.5 -161.5t102 -98.5t131.5 -33q78 0 133.5 30.5t91.5 80.5l72 -52
q-42 -61 -120 -104t-187 -43zM579 780h-85l-85 117l-86 -117h-83l123 172h93z" />
    <glyph glyph-name="ccircumflex" unicode="&#x109;" horiz-adv-x="589" 
d="M489 168l71 -50q-30 -45 -85.5 -87t-153.5 -42q-121 0 -199.5 77t-78.5 202q0 81 36.5 145t100 101t144.5 37q99 0 155.5 -45t75.5 -97l-78 -34q-18 36 -55 65.5t-101 29.5q-83 0 -133.5 -58.5t-50.5 -141.5q0 -87 50 -143t136 -56q70 0 108 32t58 65zM493 589h-85
l-85 117l-86 -117h-83l123 172h93z" />
    <glyph glyph-name="Cdotaccent" unicode="&#x10a;" horiz-adv-x="749" 
d="M409 -12q-97 0 -179 46t-132 130.5t-50 200.5q0 111 46.5 196t128.5 133t187 48q99 0 170 -30t119 -92l-73 -61q-36 41 -86.5 67t-128.5 26q-82 0 -141.5 -35t-91.5 -98.5t-32 -149.5q0 -96 39.5 -161.5t102 -98.5t131.5 -33q78 0 133.5 30.5t91.5 80.5l72 -52
q-42 -61 -120 -104t-187 -43zM451 781h-83v163h83v-163z" />
    <glyph glyph-name="cdotaccent" unicode="&#x10b;" horiz-adv-x="589" 
d="M489 168l71 -50q-30 -45 -85.5 -87t-153.5 -42q-121 0 -199.5 77t-78.5 202q0 81 36.5 145t100 101t144.5 37q99 0 155.5 -45t75.5 -97l-78 -34q-18 36 -55 65.5t-101 29.5q-83 0 -133.5 -58.5t-50.5 -141.5q0 -87 50 -143t136 -56q70 0 108 32t58 65zM365 590h-83v163
h83v-163z" />
    <glyph glyph-name="Ccaron" unicode="&#x10c;" horiz-adv-x="749" 
d="M409 -12q-97 0 -179 46t-132 130.5t-50 200.5q0 111 46.5 196t128.5 133t187 48q99 0 170 -30t119 -92l-73 -61q-36 41 -86.5 67t-128.5 26q-82 0 -141.5 -35t-91.5 -98.5t-32 -149.5q0 -96 39.5 -161.5t102 -98.5t131.5 -33q78 0 133.5 30.5t91.5 80.5l72 -52
q-42 -61 -120 -104t-187 -43zM240 952h85l85 -117l86 117h83l-123 -172h-93z" />
    <glyph glyph-name="ccaron" unicode="&#x10d;" horiz-adv-x="589" 
d="M489 168l71 -50q-30 -45 -85.5 -87t-153.5 -42q-121 0 -199.5 77t-78.5 202q0 81 36.5 145t100 101t144.5 37q99 0 155.5 -45t75.5 -97l-78 -34q-18 36 -55 65.5t-101 29.5q-83 0 -133.5 -58.5t-50.5 -141.5q0 -87 50 -143t136 -56q70 0 108 32t58 65zM154 761h85
l85 -117l86 117h83l-123 -172h-93z" />
    <glyph glyph-name="Dcaron" unicode="&#x10e;" horiz-adv-x="748" 
d="M96 0v730h218q183 0 285 -96t102 -255q0 -161 -102 -270t-300 -109h-203zM193 79h104q154 0 228 86.5t74 212.5q0 124 -76.5 199t-211.5 75h-118v-573zM192 952h85l85 -117l86 117h83l-123 -172h-93z" />
    <glyph glyph-name="dcaron" unicode="&#x10f;" horiz-adv-x="663" 
d="M310 66q81 0 129 59t48 149q0 66 -24.5 110.5t-64 67t-84.5 22.5q-81 0 -129 -56t-48 -148q0 -58 21 -104.5t59.5 -73t92.5 -26.5zM293 -11q-110 0 -180 75.5t-70 206.5q0 80 35.5 143.5t93.5 100t129 36.5q64 0 116 -37t70 -87v373h88v-800h-83v130q-9 -28 -36 -61
t-68.5 -56.5t-94.5 -23.5zM706 602l-5 -147h-76l-4 147v128h85v-128z" />
    <glyph glyph-name="Dcroat" unicode="&#x110;" horiz-adv-x="748" 
d="M96 0v730h218q183 0 285 -98t102 -265q0 -152 -102 -259.5t-300 -107.5h-203zM189 74h101q113 0 181 41.5t99 108t31 141.5q0 136 -76.5 213.5t-212.5 77.5h-123v-582zM35 322v70h340v-70h-340z" />
    <glyph glyph-name="dcroat" unicode="&#x111;" horiz-adv-x="663" 
d="M655 624h-354v78h354v-78zM310 66q81 0 129 59t48 149q0 66 -24.5 110.5t-64 67t-84.5 22.5q-81 0 -129 -56t-48 -148q0 -58 21 -104.5t59.5 -73t92.5 -26.5zM293 -11q-110 0 -180 75.5t-70 206.5q0 80 35.5 143.5t93.5 100t129 36.5q64 0 116 -37t70 -87v373h88v-800
h-83v130q-9 -28 -36 -61t-68.5 -56.5t-94.5 -23.5z" />
    <glyph glyph-name="Emacron" unicode="&#x112;" horiz-adv-x="587" 
d="M530 0h-434v730h415v-85h-319v-239h304v-83h-304v-238h338v-85zM443 793h-262v78h262v-78z" />
    <glyph glyph-name="emacron" unicode="&#x113;" horiz-adv-x="630" 
d="M325 -11q-121 0 -201.5 73.5t-80.5 206.5q0 78 36.5 142t98.5 102t142 38q120 0 193.5 -82.5t73.5 -228.5h-452q3 -69 52.5 -119t134.5 -50q69 0 111 23t70 55l57 -63q-38 -42 -92 -69.5t-143 -27.5zM134 308h359q-2 72 -51 118.5t-126 46.5q-76 0 -126 -50t-56 -115z
M448 602h-262v78h262v-78z" />
    <glyph glyph-name="Ebreve" unicode="&#x114;" horiz-adv-x="587" 
d="M530 0h-434v730h415v-85h-319v-239h304v-83h-304v-238h338v-85zM394 943h75q-5 -83 -48.5 -120.5t-108.5 -37.5t-108 37.5t-49 120.5h75q3 -44 22 -70.5t60 -26.5t60 26t22 71z" />
    <glyph glyph-name="ebreve" unicode="&#x115;" horiz-adv-x="630" 
d="M325 -11q-121 0 -201.5 73.5t-80.5 206.5q0 78 36.5 142t98.5 102t142 38q120 0 193.5 -82.5t73.5 -228.5h-452q3 -69 52.5 -119t134.5 -50q69 0 111 23t70 55l57 -63q-38 -42 -92 -69.5t-143 -27.5zM134 308h359q-2 72 -51 118.5t-126 46.5q-76 0 -126 -50t-56 -115z
M399 752h75q-5 -83 -48.5 -120.5t-108.5 -37.5t-108 37.5t-49 120.5h75q3 -44 22 -70.5t60 -26.5t60 26t22 71z" />
    <glyph glyph-name="Edotaccent" unicode="&#x116;" horiz-adv-x="587" 
d="M530 0h-434v730h415v-85h-319v-239h304v-83h-304v-238h338v-85zM354 781h-83v163h83v-163z" />
    <glyph glyph-name="edotaccent" unicode="&#x117;" horiz-adv-x="630" 
d="M325 -11q-121 0 -201.5 73.5t-80.5 206.5q0 78 36.5 142t98.5 102t142 38q120 0 193.5 -82.5t73.5 -228.5h-452q3 -69 52.5 -119t134.5 -50q69 0 111 23t70 55l57 -63q-38 -42 -92 -69.5t-143 -27.5zM134 308h359q-2 72 -51 118.5t-126 46.5q-76 0 -126 -50t-56 -115z
M359 590h-83v163h83v-163z" />
    <glyph glyph-name="Eogonek" unicode="&#x118;" horiz-adv-x="587" 
d="M530 0h-434v730h415v-85h-319v-239h304v-83h-304v-238h338v-85zM602 -96l26 -38q-61 -62 -153 -62q-51 0 -80.5 21.5t-29.5 55.5t27 65t76 55l62 -1q-41 -20 -64.5 -41t-23.5 -43q0 -21 17.5 -33.5t45.5 -12.5q30 0 55.5 9t41.5 25z" />
    <glyph glyph-name="eogonek" unicode="&#x119;" horiz-adv-x="630" 
d="M325 -11q-121 0 -201.5 73.5t-80.5 206.5q0 78 36.5 142t98.5 102t142 38q120 0 193.5 -82.5t73.5 -228.5h-452q3 -69 52.5 -119t134.5 -50q69 0 111 23t70 55l57 -63q-38 -42 -92 -69.5t-143 -27.5zM134 308h359q-2 72 -51 118.5t-126 46.5q-76 0 -126 -50t-56 -115z
M492 -96l26 -38q-61 -62 -153 -62q-51 0 -80.5 21.5t-29.5 55.5t27 65t76 55l62 -1q-41 -20 -64.5 -41t-23.5 -43q0 -21 17.5 -33.5t45.5 -12.5q30 0 55.5 9t41.5 25z" />
    <glyph glyph-name="Ecaron" unicode="&#x11a;" horiz-adv-x="587" 
d="M530 0h-434v730h415v-85h-319v-239h304v-83h-304v-238h338v-85zM143 952h85l85 -117l86 117h83l-123 -172h-93z" />
    <glyph glyph-name="ecaron" unicode="&#x11b;" horiz-adv-x="630" 
d="M325 -11q-121 0 -201.5 73.5t-80.5 206.5q0 78 36.5 142t98.5 102t142 38q120 0 193.5 -82.5t73.5 -228.5h-452q3 -69 52.5 -119t134.5 -50q69 0 111 23t70 55l57 -63q-38 -42 -92 -69.5t-143 -27.5zM134 308h359q-2 72 -51 118.5t-126 46.5q-76 0 -126 -50t-56 -115z
M148 761h85l85 -117l86 117h83l-123 -172h-93z" />
    <glyph glyph-name="Gcircumflex" unicode="&#x11c;" horiz-adv-x="795" 
d="M426 365h316v-211q-44 -77 -130.5 -121.5t-191.5 -44.5q-104 0 -188.5 47t-134 131.5t-49.5 198.5q0 115 51 200t135.5 131t185.5 46q70 0 123 -15.5t90.5 -39.5t62.5 -51l-63 -72q-33 35 -82 61.5t-134 26.5q-76 0 -138 -33t-98.5 -96.5t-36.5 -153.5q0 -91 37.5 -158
t100.5 -104.5t140 -37.5t139.5 30.5t91.5 86.5v96h-227v83zM591 780h-85l-85 117l-86 -117h-83l123 172h93z" />
    <glyph glyph-name="gcircumflex" unicode="&#x11d;" horiz-adv-x="657" 
d="M315 80q42 0 81.5 21.5t65 66t25.5 113.5q0 58 -22.5 100t-60.5 64.5t-87 22.5q-80 0 -129.5 -54.5t-49.5 -146.5q0 -90 47.5 -138.5t129.5 -48.5zM292 4q-109 0 -178.5 75t-69.5 194q0 123 70.5 199.5t180.5 76.5q72 0 125 -36t72 -93v119h83v-462q0 -97 -45 -158.5
t-112 -91t-136 -29.5q-84 0 -129 14.5t-68 28.5l42 77q18 -13 56.5 -27.5t91.5 -14.5q57 0 105.5 22t77.5 66.5t29 110.5v73q-16 -48 -67 -96t-128 -48zM478 589h-85l-85 117l-86 -117h-83l123 172h93z" />
    <glyph glyph-name="Gbreve" unicode="&#x11e;" horiz-adv-x="795" 
d="M426 365h316v-211q-44 -77 -130.5 -121.5t-191.5 -44.5q-104 0 -188.5 47t-134 131.5t-49.5 198.5q0 115 51 200t135.5 131t185.5 46q70 0 123 -15.5t90.5 -39.5t62.5 -51l-63 -72q-33 35 -82 61.5t-134 26.5q-76 0 -138 -33t-98.5 -96.5t-36.5 -153.5q0 -91 37.5 -158
t100.5 -104.5t140 -37.5t139.5 30.5t91.5 86.5v96h-227v83zM503 943h75q-5 -83 -48.5 -120.5t-108.5 -37.5t-108 37.5t-49 120.5h75q3 -44 22 -70.5t60 -26.5t60 26t22 71z" />
    <glyph glyph-name="gbreve" unicode="&#x11f;" horiz-adv-x="657" 
d="M315 80q42 0 81.5 21.5t65 66t25.5 113.5q0 58 -22.5 100t-60.5 64.5t-87 22.5q-80 0 -129.5 -54.5t-49.5 -146.5q0 -90 47.5 -138.5t129.5 -48.5zM292 4q-109 0 -178.5 75t-69.5 194q0 123 70.5 199.5t180.5 76.5q72 0 125 -36t72 -93v119h83v-462q0 -97 -45 -158.5
t-112 -91t-136 -29.5q-84 0 -129 14.5t-68 28.5l42 77q18 -13 56.5 -27.5t91.5 -14.5q57 0 105.5 22t77.5 66.5t29 110.5v73q-16 -48 -67 -96t-128 -48zM390 752h75q-5 -83 -48.5 -120.5t-108.5 -37.5t-108 37.5t-49 120.5h75q3 -44 22 -70.5t60 -26.5t60 26t22 71z" />
    <glyph glyph-name="Gdotaccent" unicode="&#x120;" horiz-adv-x="795" 
d="M426 365h316v-211q-44 -77 -130.5 -121.5t-191.5 -44.5q-104 0 -188.5 47t-134 131.5t-49.5 198.5q0 115 51 200t135.5 131t185.5 46q70 0 123 -15.5t90.5 -39.5t62.5 -51l-63 -72q-33 35 -82 61.5t-134 26.5q-76 0 -138 -33t-98.5 -96.5t-36.5 -153.5q0 -91 37.5 -158
t100.5 -104.5t140 -37.5t139.5 30.5t91.5 86.5v96h-227v83zM463 781h-83v163h83v-163z" />
    <glyph glyph-name="gdotaccent" unicode="&#x121;" horiz-adv-x="657" 
d="M315 80q42 0 81.5 21.5t65 66t25.5 113.5q0 58 -22.5 100t-60.5 64.5t-87 22.5q-80 0 -129.5 -54.5t-49.5 -146.5q0 -90 47.5 -138.5t129.5 -48.5zM292 4q-109 0 -178.5 75t-69.5 194q0 123 70.5 199.5t180.5 76.5q72 0 125 -36t72 -93v119h83v-462q0 -97 -45 -158.5
t-112 -91t-136 -29.5q-84 0 -129 14.5t-68 28.5l42 77q18 -13 56.5 -27.5t91.5 -14.5q57 0 105.5 22t77.5 66.5t29 110.5v73q-16 -48 -67 -96t-128 -48zM350 590h-83v163h83v-163z" />
    <glyph glyph-name="Gcommaaccent" unicode="&#x122;" horiz-adv-x="795" 
d="M426 365h316v-211q-44 -77 -130.5 -121.5t-191.5 -44.5q-104 0 -188.5 47t-134 131.5t-49.5 198.5q0 115 51 200t135.5 131t185.5 46q70 0 123 -15.5t90.5 -39.5t62.5 -51l-63 -72q-33 35 -82 61.5t-134 26.5q-76 0 -138 -33t-98.5 -96.5t-36.5 -153.5q0 -91 37.5 -158
t100.5 -104.5t140 -37.5t139.5 30.5t91.5 86.5v96h-227v83zM490 -72q-6 -58 -24 -111t-43.5 -94.5t-53.5 -65.5l-68 31q15 16 34 54t36 87.5t24 98.5h95z" />
    <glyph glyph-name="gcommaaccent" unicode="&#x123;" horiz-adv-x="657" 
d="M315 80q42 0 81.5 21.5t65 66t25.5 113.5q0 58 -22.5 100t-60.5 64.5t-87 22.5q-80 0 -129.5 -54.5t-49.5 -146.5q0 -90 47.5 -138.5t129.5 -48.5zM292 4q-109 0 -178.5 75t-69.5 194q0 123 70.5 199.5t180.5 76.5q72 0 125 -36t72 -93v119h83v-462q0 -97 -45 -158.5
t-112 -91t-136 -29.5q-84 0 -129 14.5t-68 28.5l42 77q18 -13 56.5 -27.5t91.5 -14.5q57 0 105.5 22t77.5 66.5t29 110.5v73q-16 -48 -67 -96t-128 -48zM268 591q6 58 24 111t43.5 94.5t53.5 65.5l68 -31q-15 -16 -34 -54t-36 -87.5t-24 -98.5h-95z" />
    <glyph glyph-name="Hcircumflex" unicode="&#x124;" horiz-adv-x="764" 
d="M668 0h-97v318h-378v-318h-97v730h97v-327h378v327h97v-730zM552 780h-85l-85 117l-86 -117h-83l123 172h93z" />
    <glyph glyph-name="hcircumflex" unicode="&#x125;" horiz-adv-x="639" 
d="M558 0h-90v365q0 51 -38 79t-92 28q-37 0 -73.5 -15t-60.5 -44.5t-24 -75.5v-337h-92v800h83v-367q14 51 68 84.5t129 33.5t132.5 -40.5t57.5 -118.5v-392zM534 850h-85l-85 117l-86 -117h-83l123 172h93z" />
    <glyph glyph-name="Hbar" unicode="&#x126;" horiz-adv-x="764" 
d="M756 543h-746v78h746v-78zM668 0h-97v318h-378v-318h-97v730h97v-327h378v327h97v-730z" />
    <glyph glyph-name="hbar" unicode="&#x127;" horiz-adv-x="639" 
d="M363 624h-355v78h355v-78zM558 0h-90v365q0 51 -38 79t-92 28q-37 0 -73.5 -15t-60.5 -44.5t-24 -75.5v-337h-92v800h83v-367q14 51 68 84.5t129 33.5t132.5 -40.5t57.5 -118.5v-392z" />
    <glyph glyph-name="Itilde" unicode="&#x128;" horiz-adv-x="297" 
d="M197 0h-97v730h97v-730zM251 923h73q0 -70 -22 -103t-60 -33q-28 0 -49.5 12t-40.5 26q-18 13 -34.5 25.5t-33.5 12.5t-28.5 -17.5t-12.5 -54.5h-71q0 69 28.5 102.5t62.5 33.5q27 0 47 -12.5t39 -27.5q17 -14 32 -24.5t31 -10.5t27 18.5t12 52.5z" />
    <glyph glyph-name="itilde" unicode="&#x129;" horiz-adv-x="272" 
d="M182 0h-92v539h92v-539zM239 732h73q0 -70 -22 -103t-60 -33q-28 0 -49.5 12t-40.5 26q-18 13 -34.5 25.5t-33.5 12.5t-28.5 -17.5t-12.5 -54.5h-71q0 69 28.5 102.5t62.5 33.5q27 0 47 -12.5t39 -27.5q17 -14 32 -24.5t31 -10.5t27 18.5t12 52.5z" />
    <glyph glyph-name="Imacron" unicode="&#x12a;" horiz-adv-x="297" 
d="M197 0h-97v730h97v-730zM279 793h-262v78h262v-78z" />
    <glyph glyph-name="imacron" unicode="&#x12b;" horiz-adv-x="272" 
d="M182 0h-92v539h92v-539zM267 602h-262v78h262v-78z" />
    <glyph glyph-name="Ibreve" unicode="&#x12c;" horiz-adv-x="297" 
d="M197 0h-97v730h97v-730zM230 943h75q-5 -83 -48.5 -120.5t-108.5 -37.5t-108 37.5t-49 120.5h75q3 -44 22 -70.5t60 -26.5t60 26t22 71z" />
    <glyph glyph-name="ibreve" unicode="&#x12d;" horiz-adv-x="272" 
d="M182 0h-92v539h92v-539zM218 752h75q-5 -83 -48.5 -120.5t-108.5 -37.5t-108 37.5t-49 120.5h75q3 -44 22 -70.5t60 -26.5t60 26t22 71z" />
    <glyph glyph-name="Iogonek" unicode="&#x12e;" horiz-adv-x="297" 
d="M197 0h-97v730h97v-730zM235 -96l26 -38q-61 -62 -153 -62q-51 0 -80.5 21.5t-29.5 55.5t27 65t76 55l62 -1q-41 -20 -64.5 -41t-23.5 -43q0 -21 17.5 -33.5t45.5 -12.5q30 0 55.5 9t41.5 25z" />
    <glyph glyph-name="iogonek" unicode="&#x12f;" horiz-adv-x="272" 
d="M88 662v102h97v-102h-97zM90 0v539h92v-539h-92zM225 -96l26 -38q-61 -62 -153 -62q-51 0 -80.5 21.5t-29.5 55.5t27 65t76 55l62 -1q-41 -20 -64.5 -41t-23.5 -43q0 -21 17.5 -33.5t45.5 -12.5q30 0 55.5 9t41.5 25z" />
    <glyph glyph-name="Idotaccent" unicode="&#x130;" horiz-adv-x="297" 
d="M197 0h-97v730h97v-730zM190 781h-83v163h83v-163z" />
    <glyph glyph-name="dotlessi" unicode="&#x131;" horiz-adv-x="272" 
d="M182 0h-92v539h92v-539z" />
    <glyph glyph-name="IJ" unicode="&#x132;" horiz-adv-x="652" 
d="M197 0h-97v730h97v-730zM560 730v-536q0 -83 -55 -144.5t-158 -61.5q-26 0 -60.5 4.5t-53.5 16.5l37 77q10 -5 27.5 -8.5t36.5 -3.5q62 0 95.5 35.5t33.5 84.5v536h97z" />
    <glyph glyph-name="ij" unicode="&#x133;" horiz-adv-x="517" 
d="M88 662v102h97v-102h-97zM90 0v539h92v-539h-92zM436 662h-95v102h95v-102zM434 539v-549q0 -64 -22 -107t-58.5 -64t-78.5 -21q-36 0 -71.5 7.5t-58.5 23.5l29 73q17 -10 40 -16.5t52 -6.5q31 0 54 32t23 83v545h91z" />
    <glyph glyph-name="Jcircumflex" unicode="&#x134;" horiz-adv-x="432" 
d="M340 730v-536q0 -83 -55 -144.5t-158 -61.5q-26 0 -60.5 4.5t-53.5 16.5l37 77q10 -5 27.5 -8.5t36.5 -3.5q62 0 95.5 35.5t33.5 84.5v536h97zM459 780h-85l-85 117l-86 -117h-83l123 172h93z" />
    <glyph glyph-name="jcircumflex" unicode="&#x135;" horiz-adv-x="315" 
d="M233 539v-549q0 -64 -22 -107t-58.5 -64t-78.5 -21q-36 0 -71.5 7.5t-58.5 23.5l29 73q17 -10 40 -16.5t52 -6.5q31 0 54 32t23 83v545h91zM352 589h-85l-85 117l-86 -117h-83l123 172h93z" />
    <glyph glyph-name="Kcommaaccent" unicode="&#x136;" horiz-adv-x="674" 
d="M657 0h-119l-238 341l-108 -133v-208h-96v730h96v-409l319 409h107l-249 -318zM425 -79q-6 -58 -24 -111t-43.5 -94.5t-53.5 -65.5l-68 31q15 16 34 54t36 87.5t24 98.5h95z" />
    <glyph glyph-name="kcommaaccent" unicode="&#x137;" horiz-adv-x="578" 
d="M598 2l-105 -3l-205 256l-108 -114v-141h-92v800h92v-561l269 300h99l-198 -219zM392 -79q-6 -58 -24 -111t-43.5 -94.5t-53.5 -65.5l-68 31q15 16 34 54t36 87.5t24 98.5h95z" />
    <glyph glyph-name="kgreenlandic" unicode="&#x138;" horiz-adv-x="578" 
d="M598 2l-105 -3l-205 256l-108 -114v-141h-92v539h92v-300l269 300h99l-198 -219z" />
    <glyph glyph-name="Lacute" unicode="&#x139;" horiz-adv-x="532" 
d="M520 0h-424v730h97v-645h327v-85zM242 788l106 163h107l-122 -163h-91z" />
    <glyph glyph-name="lacute" unicode="&#x13a;" horiz-adv-x="308" 
d="M82 123v677h91v-648q0 -36 18.5 -56t53.5 -20q13 0 27.5 1.5t22.5 4.5l2 -80q-10 -3 -31 -5.5t-41 -2.5q-36 0 -69.5 14t-53.5 43t-20 72zM89 858l106 163h107l-122 -163h-91z" />
    <glyph glyph-name="Lcommaaccent" unicode="&#x13b;" horiz-adv-x="532" 
d="M520 0h-424v730h97v-645h327v-85zM380 -79q-6 -58 -24 -111t-43.5 -94.5t-53.5 -65.5l-68 31q15 16 34 54t36 87.5t24 98.5h95z" />
    <glyph glyph-name="lcommaaccent" unicode="&#x13c;" horiz-adv-x="308" 
d="M82 123v677h91v-648q0 -36 18.5 -56t53.5 -20q13 0 27.5 1.5t22.5 4.5l2 -80q-10 -3 -31 -5.5t-41 -2.5q-36 0 -69.5 14t-53.5 43t-20 72zM236 -79q-6 -58 -24 -111t-43.5 -94.5t-53.5 -65.5l-68 31q15 16 34 54t36 87.5t24 98.5h95z" />
    <glyph glyph-name="Lcaron" unicode="&#x13d;" horiz-adv-x="532" 
d="M520 0h-424v730h97v-645h327v-85zM552 602l-5 -147h-76l-4 147v128h85v-128z" />
    <glyph glyph-name="lcaron" unicode="&#x13e;" horiz-adv-x="308" 
d="M82 123v677h91v-648q0 -36 18.5 -56t53.5 -20q13 0 27.5 1.5t22.5 4.5l2 -80q-10 -3 -31 -5.5t-41 -2.5q-36 0 -69.5 14t-53.5 43t-20 72zM327 602l-5 -147h-76l-4 147v128h85v-128z" />
    <glyph glyph-name="Ldot" unicode="&#x13f;" horiz-adv-x="532" 
d="M520 0h-424v730h97v-645h327v-85zM398 283h-83v163h83v-163z" />
    <glyph glyph-name="ldot" unicode="&#x140;" horiz-adv-x="308" 
d="M82 123v677h91v-648q0 -36 18.5 -56t53.5 -20q13 0 27.5 1.5t22.5 4.5l2 -80q-10 -3 -31 -5.5t-41 -2.5q-36 0 -69.5 14t-53.5 43t-20 72zM328 232h-83v163h83v-163z" />
    <glyph glyph-name="Lslash" unicode="&#x141;" horiz-adv-x="532" 
d="M35 247l-32 67l377 155l31 -68zM96 0v730h97v-650h298v-80h-395z" />
    <glyph glyph-name="lslash" unicode="&#x142;" horiz-adv-x="308" 
d="M225 -6q-36 0 -69.5 14t-53.5 43t-20 72v677h91v-648q0 -36 18.5 -56t53.5 -20q13 0 27.5 1.5t22.5 4.5l2 -80q-10 -3 -31 -5.5t-41 -2.5zM23 251l-22 54l265 126l24 -54z" />
    <glyph glyph-name="Nacute" unicode="&#x143;" horiz-adv-x="791" 
d="M695 0h-70l-438 561v-561h-91v730h75l435 -557v557h89v-730zM289 788l106 163h107l-122 -163h-91z" />
    <glyph glyph-name="nacute" unicode="&#x144;" horiz-adv-x="639" 
d="M558 0h-91v370q0 49 -38.5 75.5t-88.5 26.5q-35 0 -72 -14.5t-62.5 -45t-25.5 -77.5v-335h-92v539h79v-118q19 58 74 94t129 36q73 0 130.5 -41.5t57.5 -111.5v-398zM232 597l106 163h107l-122 -163h-91z" />
    <glyph glyph-name="Ncommaaccent" unicode="&#x145;" horiz-adv-x="791" 
d="M695 0h-70l-438 561v-561h-91v730h75l435 -557v557h89v-730zM469 -79q-6 -58 -24 -111t-43.5 -94.5t-53.5 -65.5l-68 31q15 16 34 54t36 87.5t24 98.5h95z" />
    <glyph glyph-name="ncommaaccent" unicode="&#x146;" horiz-adv-x="639" 
d="M558 0h-91v370q0 49 -38.5 75.5t-88.5 26.5q-35 0 -72 -14.5t-62.5 -45t-25.5 -77.5v-335h-92v539h79v-118q19 58 74 94t129 36q73 0 130.5 -41.5t57.5 -111.5v-398zM393 -79q-6 -58 -24 -111t-43.5 -94.5t-53.5 -65.5l-68 31q15 16 34 54t36 87.5t24 98.5h95z" />
    <glyph glyph-name="Ncaron" unicode="&#x147;" horiz-adv-x="791" 
d="M695 0h-70l-438 561v-561h-91v730h75l435 -557v557h89v-730zM226 952h85l85 -117l86 117h83l-123 -172h-93z" />
    <glyph glyph-name="ncaron" unicode="&#x148;" horiz-adv-x="639" 
d="M558 0h-91v370q0 49 -38.5 75.5t-88.5 26.5q-35 0 -72 -14.5t-62.5 -45t-25.5 -77.5v-335h-92v539h79v-118q19 58 74 94t129 36q73 0 130.5 -41.5t57.5 -111.5v-398zM169 761h85l85 -117l86 117h83l-123 -172h-93z" />
    <glyph glyph-name="Eng" unicode="&#x14a;" horiz-adv-x="791" 
d="M695 512v-510q0 -97 -48.5 -150.5t-124.5 -53.5q-38 0 -76 8t-63 24l29 73q18 -10 43.5 -16.5t58.5 -6.5q41 0 66.5 36.5t25.5 89.5v506h89zM695 0h-70l-438 561v-561h-91v730h75l435 -557v557h89v-730z" />
    <glyph glyph-name="eng" unicode="&#x14b;" horiz-adv-x="639" 
d="M558 323v-333q0 -64 -22 -107t-58.5 -64t-78.5 -21q-36 0 -71.5 7.5t-58.5 23.5l28 73q17 -10 40.5 -16.5t52.5 -6.5q31 0 54 32t23 83v329h91zM558 0h-91v370q0 49 -38.5 75.5t-88.5 26.5q-35 0 -72 -14.5t-62.5 -45t-25.5 -77.5v-335h-92v539h79v-118q19 58 74 94
t129 36q73 0 130.5 -41.5t57.5 -111.5v-398z" />
    <glyph glyph-name="Omacron" unicode="&#x14c;" horiz-adv-x="843" 
d="M431 72q76 0 136 35t96 100.5t36 156.5q0 85 -37.5 150.5t-103 102.5t-147.5 37q-77 0 -137 -34t-95 -98t-35 -151q0 -91 39.5 -158t104.5 -104t143 -37zM425 -12q-110 0 -195.5 50t-133.5 136.5t-48 195.5q0 107 49 191t132.5 132.5t187.5 48.5q111 0 196.5 -48.5
t134 -133t48.5 -193.5q0 -111 -51 -196.5t-135 -134t-185 -48.5zM547 793h-262v78h262v-78z" />
    <glyph glyph-name="omacron" unicode="&#x14d;" horiz-adv-x="650" 
d="M321 -11q-73 0 -136 33t-102.5 96t-39.5 149q0 80 38.5 144.5t102 102t139.5 37.5q80 0 144 -34t102 -94.5t38 -140.5q0 -86 -38.5 -151.5t-103.5 -103.5t-144 -38zM326 70q83 0 135 59.5t52 146.5q0 82 -53 137.5t-140 55.5q-54 0 -95 -26.5t-64 -72.5t-23 -104
q0 -60 25.5 -104t67.5 -68t95 -24zM454 602h-262v78h262v-78z" />
    <glyph glyph-name="Obreve" unicode="&#x14e;" horiz-adv-x="843" 
d="M431 72q76 0 136 35t96 100.5t36 156.5q0 85 -37.5 150.5t-103 102.5t-147.5 37q-77 0 -137 -34t-95 -98t-35 -151q0 -91 39.5 -158t104.5 -104t143 -37zM425 -12q-110 0 -195.5 50t-133.5 136.5t-48 195.5q0 107 49 191t132.5 132.5t187.5 48.5q111 0 196.5 -48.5
t134 -133t48.5 -193.5q0 -111 -51 -196.5t-135 -134t-185 -48.5zM498 943h75q-5 -83 -48.5 -120.5t-108.5 -37.5t-108 37.5t-49 120.5h75q3 -44 22 -70.5t60 -26.5t60 26t22 71z" />
    <glyph glyph-name="obreve" unicode="&#x14f;" horiz-adv-x="650" 
d="M321 -11q-73 0 -136 33t-102.5 96t-39.5 149q0 80 38.5 144.5t102 102t139.5 37.5q80 0 144 -34t102 -94.5t38 -140.5q0 -86 -38.5 -151.5t-103.5 -103.5t-144 -38zM326 70q83 0 135 59.5t52 146.5q0 82 -53 137.5t-140 55.5q-54 0 -95 -26.5t-64 -72.5t-23 -104
q0 -60 25.5 -104t67.5 -68t95 -24zM405 752h75q-5 -83 -48.5 -120.5t-108.5 -37.5t-108 37.5t-49 120.5h75q3 -44 22 -70.5t60 -26.5t60 26t22 71z" />
    <glyph glyph-name="Ohungarumlaut" unicode="&#x150;" horiz-adv-x="843" 
d="M431 72q76 0 136 35t96 100.5t36 156.5q0 85 -37.5 150.5t-103 102.5t-147.5 37q-77 0 -137 -34t-95 -98t-35 -151q0 -91 39.5 -158t104.5 -104t143 -37zM425 -12q-110 0 -195.5 50t-133.5 136.5t-48 195.5q0 107 49 191t132.5 132.5t187.5 48.5q111 0 196.5 -48.5
t134 -133t48.5 -193.5q0 -111 -51 -196.5t-135 -134t-185 -48.5zM228 779l95 151h96l-111 -151h-80zM413 779l95 151h97l-112 -151h-80z" />
    <glyph glyph-name="ohungarumlaut" unicode="&#x151;" horiz-adv-x="650" 
d="M321 -11q-73 0 -136 33t-102.5 96t-39.5 149q0 80 38.5 144.5t102 102t139.5 37.5q80 0 144 -34t102 -94.5t38 -140.5q0 -86 -38.5 -151.5t-103.5 -103.5t-144 -38zM326 70q83 0 135 59.5t52 146.5q0 82 -53 137.5t-140 55.5q-54 0 -95 -26.5t-64 -72.5t-23 -104
q0 -60 25.5 -104t67.5 -68t95 -24zM135 588l95 151h96l-111 -151h-80zM320 588l95 151h97l-112 -151h-80z" />
    <glyph glyph-name="OE" unicode="&#x152;" horiz-adv-x="1184" 
d="M423 69q75 0 136.5 34.5t98.5 101t37 163.5q0 96 -43.5 160t-107 95.5t-124.5 31.5q-77 0 -138.5 -35t-98 -100.5t-36.5 -154.5q0 -93 37.5 -159.5t100 -101.5t138.5 -35zM412 -12q-108 0 -190 49t-128 135t-46 197q0 105 49 189.5t132.5 134t187.5 49.5q55 0 111.5 -22
t101.5 -60.5t64 -89.5v160h413v-85h-323v-240h308v-81h-308v-239h343v-85h-433v176q-19 -53 -58 -95.5t-96 -67.5t-128 -25z" />
    <glyph glyph-name="oe" unicode="&#x153;" horiz-adv-x="1096" 
d="M326 70q55 0 97 26.5t66 72.5t24 107q0 55 -24 98.5t-67.5 69t-101.5 25.5q-54 0 -95 -26.5t-64 -72t-23 -104.5q0 -60 25.5 -104t67.5 -68t95 -24zM321 -11q-73 0 -136 33t-102.5 96t-39.5 149q0 78 38.5 142.5t102 103t139.5 38.5q70 0 118 -26t75.5 -62t36.5 -67
q5 28 36.5 64.5t82.5 63.5t114 27q120 0 193.5 -82t74.5 -227h-452q0 -75 54 -123.5t134 -48.5q68 0 109.5 24t69.5 55l57 -63q-38 -42 -92 -69.5t-142 -27.5q-91 0 -160 51t-82 102q-7 -32 -37 -67.5t-79.5 -60.5t-112.5 -25zM602 308h357q-2 73 -51 119t-125 46
q-77 0 -126 -49t-55 -116z" />
    <glyph glyph-name="Racute" unicode="&#x154;" horiz-adv-x="614" 
d="M96 0v730h222q62 0 110 -23.5t76 -67t28 -103.5q0 -93 -51.5 -144t-115.5 -60l-3 -3l225 -329h-116l-203 308h-76v-308h-96zM191 388h100q61 0 101.5 34.5t40.5 101.5q0 60 -36.5 94t-96.5 34h-109v-264zM198 788l106 163h107l-122 -163h-91z" />
    <glyph glyph-name="racute" unicode="&#x155;" horiz-adv-x="472" 
d="M476 522l-49 -84q-13 14 -37 23t-57 9q-58 0 -105.5 -44t-47.5 -111v-315h-92v539h83v-129q13 55 66.5 98t129.5 43q38 0 65.5 -8t43.5 -21zM183 597l106 163h107l-122 -163h-91z" />
    <glyph glyph-name="Rcommaaccent" unicode="&#x156;" horiz-adv-x="614" 
d="M96 0v730h222q62 0 110 -23.5t76 -67t28 -103.5q0 -93 -51.5 -144t-115.5 -60l-3 -3l225 -329h-116l-203 308h-76v-308h-96zM191 388h100q61 0 101.5 34.5t40.5 101.5q0 60 -36.5 94t-96.5 34h-109v-264zM385 -79q-6 -58 -24 -111t-43.5 -94.5t-53.5 -65.5l-68 31
q15 16 34 54t36 87.5t24 98.5h95z" />
    <glyph glyph-name="rcommaaccent" unicode="&#x157;" horiz-adv-x="472" 
d="M476 522l-49 -84q-13 14 -37 23t-57 9q-58 0 -105.5 -44t-47.5 -111v-315h-92v539h83v-129q13 55 66.5 98t129.5 43q38 0 65.5 -8t43.5 -21zM356 -79q-6 -58 -24 -111t-43.5 -94.5t-53.5 -65.5l-68 31q15 16 34 54t36 87.5t24 98.5h95z" />
    <glyph glyph-name="Rcaron" unicode="&#x158;" horiz-adv-x="614" 
d="M96 0v730h222q62 0 110 -23.5t76 -67t28 -103.5q0 -93 -51.5 -144t-115.5 -60l-3 -3l225 -329h-116l-203 308h-76v-308h-96zM191 388h100q61 0 101.5 34.5t40.5 101.5q0 60 -36.5 94t-96.5 34h-109v-264zM135 952h85l85 -117l86 117h83l-123 -172h-93z" />
    <glyph glyph-name="rcaron" unicode="&#x159;" horiz-adv-x="472" 
d="M476 522l-49 -84q-13 14 -37 23t-57 9q-58 0 -105.5 -44t-47.5 -111v-315h-92v539h83v-129q13 55 66.5 98t129.5 43q38 0 65.5 -8t43.5 -21zM120 761h85l85 -117l86 117h83l-123 -172h-93z" />
    <glyph glyph-name="Sacute" unicode="&#x15a;" horiz-adv-x="600" 
d="M305 -12q-90 0 -154.5 25t-105.5 65l63 76q31 -38 85 -61.5t114 -23.5q57 0 97.5 29.5t40.5 77.5q0 47 -34 80.5t-125 70.5q-83 33 -131 63.5t-68 69t-20 97.5q0 85 61.5 135t163.5 50q78 0 131.5 -24.5t90.5 -55.5l-55 -80q-38 31 -82.5 50.5t-92.5 19.5
q-55 0 -88.5 -25t-33.5 -69q0 -51 39.5 -81.5t133.5 -69.5q117 -48 162 -95.5t45 -127.5q0 -91 -70.5 -143.5t-166.5 -52.5zM186 788l106 163h107l-122 -163h-91z" />
    <glyph glyph-name="sacute" unicode="&#x15b;" horiz-adv-x="503" 
d="M271 -11q-76 0 -133.5 19.5t-95.5 50.5l40 62q36 -25 86 -42t99 -17q43 0 74 24t31 58q0 30 -29 54.5t-112 47.5q-64 18 -100.5 42.5t-51.5 55t-15 66.5q0 64 55.5 102.5t135.5 38.5q78 0 125 -19t72 -38l-34 -69q-33 21 -71 37t-85 16q-42 0 -73.5 -19t-31.5 -50
q0 -32 22.5 -51.5t108.5 -45.5q95 -28 136 -66.5t41 -97.5q0 -49 -26 -84.5t-70 -55t-98 -19.5zM152 597l106 163h107l-122 -163h-91z" />
    <glyph glyph-name="Scircumflex" unicode="&#x15c;" horiz-adv-x="600" 
d="M305 -12q-90 0 -154.5 25t-105.5 65l63 76q31 -38 85 -61.5t114 -23.5q57 0 97.5 29.5t40.5 77.5q0 47 -34 80.5t-125 70.5q-83 33 -131 63.5t-68 69t-20 97.5q0 85 61.5 135t163.5 50q78 0 131.5 -24.5t90.5 -55.5l-55 -80q-38 31 -82.5 50.5t-92.5 19.5
q-55 0 -88.5 -25t-33.5 -69q0 -51 39.5 -81.5t133.5 -69.5q117 -48 162 -95.5t45 -127.5q0 -91 -70.5 -143.5t-166.5 -52.5zM462 780h-85l-85 117l-86 -117h-83l123 172h93z" />
    <glyph glyph-name="scircumflex" unicode="&#x15d;" horiz-adv-x="503" 
d="M271 -11q-76 0 -133.5 19.5t-95.5 50.5l40 62q36 -25 86 -42t99 -17q43 0 74 24t31 58q0 30 -29 54.5t-112 47.5q-64 18 -100.5 42.5t-51.5 55t-15 66.5q0 64 55.5 102.5t135.5 38.5q78 0 125 -19t72 -38l-34 -69q-33 21 -71 37t-85 16q-42 0 -73.5 -19t-31.5 -50
q0 -32 22.5 -51.5t108.5 -45.5q95 -28 136 -66.5t41 -97.5q0 -49 -26 -84.5t-70 -55t-98 -19.5zM428 589h-85l-85 117l-86 -117h-83l123 172h93z" />
    <glyph glyph-name="Scedilla" unicode="&#x15e;" horiz-adv-x="600" 
d="M305 -12q-90 0 -154.5 25t-105.5 65l63 76q31 -38 85 -61.5t114 -23.5q57 0 97.5 29.5t40.5 77.5q0 47 -34 80.5t-125 70.5q-83 33 -131 63.5t-68 69t-20 97.5q0 85 61.5 135t163.5 50q78 0 131.5 -24.5t90.5 -55.5l-55 -80q-38 31 -82.5 50.5t-92.5 19.5
q-55 0 -88.5 -25t-33.5 -69q0 -51 39.5 -81.5t133.5 -69.5q117 -48 162 -95.5t45 -127.5q0 -91 -70.5 -143.5t-166.5 -52.5zM303 -198q-36 0 -73.5 9t-58.5 23l14 41q14 -8 37 -16t52 -8q22 0 39.5 10t17.5 27q0 19 -15 26.5t-33 7.5q-20 0 -41 -6l-12 12l60 74h55l-50 -62
q52 11 87.5 -8t35.5 -55q0 -38 -34.5 -56.5t-80.5 -18.5z" />
    <glyph glyph-name="scedilla" unicode="&#x15f;" horiz-adv-x="503" 
d="M271 -11q-76 0 -133.5 19.5t-95.5 50.5l40 62q36 -25 86 -42t99 -17q43 0 74 24t31 58q0 30 -29 54.5t-112 47.5q-64 18 -100.5 42.5t-51.5 55t-15 66.5q0 64 55.5 102.5t135.5 38.5q78 0 125 -19t72 -38l-34 -69q-33 21 -71 37t-85 16q-42 0 -73.5 -19t-31.5 -50
q0 -32 22.5 -51.5t108.5 -45.5q95 -28 136 -66.5t41 -97.5q0 -49 -26 -84.5t-70 -55t-98 -19.5zM257 -190q-36 0 -73.5 9t-58.5 23l14 41q14 -8 37 -16t52 -8q22 0 39.5 10t17.5 27q0 19 -15 26.5t-33 7.5q-20 0 -41 -6l-12 12l60 74h55l-50 -62q52 11 87.5 -8t35.5 -55
q0 -38 -34.5 -56.5t-80.5 -18.5z" />
    <glyph glyph-name="Scaron" unicode="&#x160;" horiz-adv-x="600" 
d="M305 -12q-90 0 -154.5 25t-105.5 65l63 76q31 -38 85 -61.5t114 -23.5q57 0 97.5 29.5t40.5 77.5q0 47 -34 80.5t-125 70.5q-83 33 -131 63.5t-68 69t-20 97.5q0 85 61.5 135t163.5 50q78 0 131.5 -24.5t90.5 -55.5l-55 -80q-38 31 -82.5 50.5t-92.5 19.5
q-55 0 -88.5 -25t-33.5 -69q0 -51 39.5 -81.5t133.5 -69.5q117 -48 162 -95.5t45 -127.5q0 -91 -70.5 -143.5t-166.5 -52.5zM123 952h85l85 -117l86 117h83l-123 -172h-93z" />
    <glyph glyph-name="scaron" unicode="&#x161;" horiz-adv-x="503" 
d="M271 -11q-76 0 -133.5 19.5t-95.5 50.5l40 62q36 -25 86 -42t99 -17q43 0 74 24t31 58q0 30 -29 54.5t-112 47.5q-64 18 -100.5 42.5t-51.5 55t-15 66.5q0 64 55.5 102.5t135.5 38.5q78 0 125 -19t72 -38l-34 -69q-33 21 -71 37t-85 16q-42 0 -73.5 -19t-31.5 -50
q0 -32 22.5 -51.5t108.5 -45.5q95 -28 136 -66.5t41 -97.5q0 -49 -26 -84.5t-70 -55t-98 -19.5zM89 761h85l85 -117l86 117h83l-123 -172h-93z" />
    <glyph glyph-name="Tcaron" unicode="&#x164;" horiz-adv-x="550" 
d="M540 645h-219v-645h-98v645h-213v85h530v-85zM105 952h85l85 -117l86 117h83l-123 -172h-93z" />
    <glyph glyph-name="tcaron" unicode="&#x165;" horiz-adv-x="378" 
d="M346 97l16 -74q-18 -14 -50 -21.5t-64 -7.5q-42 0 -75.5 16.5t-53.5 51.5t-20 91v311h-84v75h84v143l90 12v-155h152v-75h-152v-307q0 -39 18 -61t53 -22q27 0 50.5 8.5t35.5 14.5zM446 602l-5 -147h-76l-4 147v128h85v-128z" />
    <glyph glyph-name="Tbar" unicode="&#x166;" horiz-adv-x="550" 
d="M463 443h-379v78h379v-78zM540 645h-219v-645h-98v645h-213v85h530v-85z" />
    <glyph glyph-name="tbar" unicode="&#x167;" horiz-adv-x="378" 
d="M314 299h-294v78h294v-78zM346 97l16 -74q-18 -14 -50 -21.5t-64 -7.5q-42 0 -75.5 16.5t-53.5 51.5t-20 91v311h-84v75h84v143l90 12v-155h152v-75h-152v-307q0 -39 18 -61t53 -22q27 0 50.5 8.5t35.5 14.5z" />
    <glyph glyph-name="Utilde" unicode="&#x168;" horiz-adv-x="761" 
d="M670 730v-464q0 -87 -39.5 -149.5t-105 -95.5t-145.5 -33q-78 0 -143.5 32t-105 94t-39.5 152v464h95v-463q0 -88 57 -139.5t134 -51.5q79 0 138 49.5t59 141.5v463h95zM483 923h73q0 -70 -22 -103t-60 -33q-28 0 -49.5 12t-40.5 26q-18 13 -34.5 25.5t-33.5 12.5
t-28.5 -17.5t-12.5 -54.5h-71q0 69 28.5 102.5t62.5 33.5q27 0 47 -12.5t39 -27.5q17 -14 32 -24.5t31 -10.5t27 18.5t12 52.5z" />
    <glyph glyph-name="utilde" unicode="&#x169;" horiz-adv-x="639" 
d="M81 539h91v-339q0 -74 40.5 -104.5t100.5 -30.5q59 0 102.5 38t43.5 100v336h92v-539h-83v112q-14 -47 -63.5 -85.5t-126.5 -38.5q-80 0 -138.5 42.5t-58.5 134.5v374zM419 732h73q0 -70 -22 -103t-60 -33q-28 0 -49.5 12t-40.5 26q-18 13 -34.5 25.5t-33.5 12.5
t-28.5 -17.5t-12.5 -54.5h-71q0 69 28.5 102.5t62.5 33.5q27 0 47 -12.5t39 -27.5q17 -14 32 -24.5t31 -10.5t27 18.5t12 52.5z" />
    <glyph glyph-name="Umacron" unicode="&#x16a;" horiz-adv-x="761" 
d="M670 730v-464q0 -87 -39.5 -149.5t-105 -95.5t-145.5 -33q-78 0 -143.5 32t-105 94t-39.5 152v464h95v-463q0 -88 57 -139.5t134 -51.5q79 0 138 49.5t59 141.5v463h95zM511 793h-262v78h262v-78z" />
    <glyph glyph-name="umacron" unicode="&#x16b;" horiz-adv-x="639" 
d="M81 539h91v-339q0 -74 40.5 -104.5t100.5 -30.5q59 0 102.5 38t43.5 100v336h92v-539h-83v112q-14 -47 -63.5 -85.5t-126.5 -38.5q-80 0 -138.5 42.5t-58.5 134.5v374zM447 602h-262v78h262v-78z" />
    <glyph glyph-name="Ubreve" unicode="&#x16c;" horiz-adv-x="761" 
d="M670 730v-464q0 -87 -39.5 -149.5t-105 -95.5t-145.5 -33q-78 0 -143.5 32t-105 94t-39.5 152v464h95v-463q0 -88 57 -139.5t134 -51.5q79 0 138 49.5t59 141.5v463h95zM462 943h75q-5 -83 -48.5 -120.5t-108.5 -37.5t-108 37.5t-49 120.5h75q3 -44 22 -70.5t60 -26.5
t60 26t22 71z" />
    <glyph glyph-name="ubreve" unicode="&#x16d;" horiz-adv-x="639" 
d="M81 539h91v-339q0 -74 40.5 -104.5t100.5 -30.5q59 0 102.5 38t43.5 100v336h92v-539h-83v112q-14 -47 -63.5 -85.5t-126.5 -38.5q-80 0 -138.5 42.5t-58.5 134.5v374zM398 752h75q-5 -83 -48.5 -120.5t-108.5 -37.5t-108 37.5t-49 120.5h75q3 -44 22 -70.5t60 -26.5
t60 26t22 71z" />
    <glyph glyph-name="Uring" unicode="&#x16e;" horiz-adv-x="761" 
d="M670 730v-464q0 -87 -39.5 -149.5t-105 -95.5t-145.5 -33q-78 0 -143.5 32t-105 94t-39.5 152v464h95v-463q0 -88 57 -139.5t134 -51.5q79 0 138 49.5t59 141.5v463h95zM380 780q-51 0 -86.5 36t-35.5 87t35.5 86.5t86.5 35.5q52 0 87 -35.5t35 -86.5t-35 -87t-87 -36z
M380 839q27 0 45 18.5t18 45.5q0 26 -18 45t-45 19q-26 0 -44.5 -19t-18.5 -45q0 -27 18.5 -45.5t44.5 -18.5z" />
    <glyph glyph-name="uring" unicode="&#x16f;" horiz-adv-x="639" 
d="M81 539h91v-339q0 -74 40.5 -104.5t100.5 -30.5q59 0 102.5 38t43.5 100v336h92v-539h-83v112q-14 -47 -63.5 -85.5t-126.5 -38.5q-80 0 -138.5 42.5t-58.5 134.5v374zM316 589q-51 0 -86.5 36t-35.5 87t35.5 86.5t86.5 35.5q52 0 87 -35.5t35 -86.5t-35 -87t-87 -36z
M316 648q27 0 45 18.5t18 45.5q0 26 -18 45t-45 19q-26 0 -44.5 -19t-18.5 -45q0 -27 18.5 -45.5t44.5 -18.5z" />
    <glyph glyph-name="Uhungarumlaut" unicode="&#x170;" horiz-adv-x="761" 
d="M670 730v-464q0 -87 -39.5 -149.5t-105 -95.5t-145.5 -33q-78 0 -143.5 32t-105 94t-39.5 152v464h95v-463q0 -88 57 -139.5t134 -51.5q79 0 138 49.5t59 141.5v463h95zM192 779l95 151h96l-111 -151h-80zM377 779l95 151h97l-112 -151h-80z" />
    <glyph glyph-name="uhungarumlaut" unicode="&#x171;" horiz-adv-x="639" 
d="M81 539h91v-339q0 -74 40.5 -104.5t100.5 -30.5q59 0 102.5 38t43.5 100v336h92v-539h-83v112q-14 -47 -63.5 -85.5t-126.5 -38.5q-80 0 -138.5 42.5t-58.5 134.5v374zM128 588l95 151h96l-111 -151h-80zM313 588l95 151h97l-112 -151h-80z" />
    <glyph glyph-name="Uogonek" unicode="&#x172;" horiz-adv-x="761" 
d="M670 730v-464q0 -87 -39.5 -149.5t-105 -95.5t-145.5 -33q-78 0 -143.5 32t-105 94t-39.5 152v464h95v-463q0 -88 57 -139.5t134 -51.5q79 0 138 49.5t59 141.5v463h95zM537 -97l26 -38q-61 -62 -153 -62q-51 0 -80.5 21.5t-29.5 55.5t27 65t76 55l62 -1
q-41 -20 -64.5 -41t-23.5 -43q0 -21 17.5 -33.5t45.5 -12.5q30 0 55.5 9t41.5 25z" />
    <glyph glyph-name="uogonek" unicode="&#x173;" horiz-adv-x="639" 
d="M81 539h91v-339q0 -74 40.5 -104.5t100.5 -30.5q59 0 102.5 38t43.5 100v336h92v-539h-83v112q-14 -47 -63.5 -85.5t-126.5 -38.5q-80 0 -138.5 42.5t-58.5 134.5v374zM602 -96l26 -38q-61 -62 -153 -62q-51 0 -80.5 21.5t-29.5 55.5t27 65t76 55l62 -1
q-41 -20 -64.5 -41t-23.5 -43q0 -21 17.5 -33.5t45.5 -12.5q30 0 55.5 9t41.5 25z" />
    <glyph glyph-name="Wcircumflex" unicode="&#x174;" horiz-adv-x="936" 
d="M924 730l-223 -736h-58l-172 560l-183 -560h-58l-218 736h101l157 -545l173 545h58l175 -548l157 548h91zM638 780h-85l-85 117l-86 -117h-83l123 172h93z" />
    <glyph glyph-name="wcircumflex" unicode="&#x175;" horiz-adv-x="771" 
d="M524 -3l-131 337l-146 -337h-55l-188 542h96l133 -402l135 331h58l123 -328l131 399h87l-189 -542h-54zM564 589h-85l-85 117l-86 -117h-83l123 172h93z" />
    <glyph glyph-name="Ycircumflex" unicode="&#x176;" horiz-adv-x="662" 
d="M662 730l-284 -420v-310h-98v314l-279 416h109l224 -330l225 330h103zM504 780h-85l-85 117l-86 -117h-83l123 172h93z" />
    <glyph glyph-name="ycircumflex" unicode="&#x177;" horiz-adv-x="547" 
d="M552 539l-288 -616q-34 -72 -82.5 -97.5t-93.5 -25.5q-23 0 -40 5.5t-25 8.5l30 80q4 -2 16.5 -5.5t25.5 -3.5q26 0 48.5 17.5t44.5 61.5l36 70l-228 505h98l179 -404l184 404h95zM444 589h-85l-85 117l-86 -117h-83l123 172h93z" />
    <glyph glyph-name="Ydieresis" unicode="&#x178;" horiz-adv-x="662" 
d="M662 730l-284 -420v-310h-98v314l-279 416h109l224 -330l225 330h103zM465 781h-77v157h77v-157zM280 781h-77v157h77v-157z" />
    <glyph glyph-name="Zacute" unicode="&#x179;" horiz-adv-x="589" 
d="M556 730v-42l-405 -603h418v-85h-549v40l401 605h-369v85h504zM188 788l106 163h107l-122 -163h-91z" />
    <glyph glyph-name="zacute" unicode="&#x17a;" horiz-adv-x="482" 
d="M448 539v-42l-296 -417h320v-80h-452v41l296 418h-283v80h415zM140 597l106 163h107l-122 -163h-91z" />
    <glyph glyph-name="Zdotaccent" unicode="&#x17b;" horiz-adv-x="589" 
d="M556 730v-42l-405 -603h418v-85h-549v40l401 605h-369v85h504zM336 781h-83v163h83v-163z" />
    <glyph glyph-name="zdotaccent" unicode="&#x17c;" horiz-adv-x="482" 
d="M448 539v-42l-296 -417h320v-80h-452v41l296 418h-283v80h415zM288 590h-83v163h83v-163z" />
    <glyph glyph-name="Zcaron" unicode="&#x17d;" horiz-adv-x="589" 
d="M556 730v-42l-405 -603h418v-85h-549v40l401 605h-369v85h504zM125 952h85l85 -117l86 117h83l-123 -172h-93z" />
    <glyph glyph-name="zcaron" unicode="&#x17e;" horiz-adv-x="482" 
d="M448 539v-42l-296 -417h320v-80h-452v41l296 418h-283v80h415zM77 761h85l85 -117l86 117h83l-123 -172h-93z" />
    <glyph glyph-name="florin" unicode="&#x192;" horiz-adv-x="377" 
d="M43 406h284v-69h-284v69zM107 -29l59 657q4 55 40.5 83.5t75.5 28.5q20 0 39 -1.5t23 -2.5l-8 -78q-9 3 -30 3q-28 0 -46 -19t-21 -59l-56 -644q-5 -48 -39 -83t-87 -35q-26 0 -50.5 4t-36.5 10l8 65q7 -1 21 -4t28 -3q30 0 53 20.5t27 57.5z" />
    <glyph glyph-name="Scommaaccent" unicode="&#x218;" horiz-adv-x="600" 
d="M305 -12q-90 0 -154.5 25t-105.5 65l63 76q31 -38 85 -61.5t114 -23.5q57 0 97.5 29.5t40.5 77.5q0 47 -34 80.5t-125 70.5q-83 33 -131 63.5t-68 69t-20 97.5q0 85 61.5 135t163.5 50q78 0 131.5 -24.5t90.5 -55.5l-55 -80q-38 31 -82.5 50.5t-92.5 19.5
q-55 0 -88.5 -25t-33.5 -69q0 -51 39.5 -81.5t133.5 -69.5q117 -48 162 -95.5t45 -127.5q0 -91 -70.5 -143.5t-166.5 -52.5zM389 -89q-6 -58 -24 -111t-43.5 -94.5t-53.5 -65.5l-68 31q15 16 34 54t36 87.5t24 98.5h95z" />
    <glyph glyph-name="scommaaccent" unicode="&#x219;" horiz-adv-x="503" 
d="M271 -11q-76 0 -133.5 19.5t-95.5 50.5l40 62q36 -25 86 -42t99 -17q43 0 74 24t31 58q0 30 -29 54.5t-112 47.5q-64 18 -100.5 42.5t-51.5 55t-15 66.5q0 64 55.5 102.5t135.5 38.5q78 0 125 -19t72 -38l-34 -69q-33 21 -71 37t-85 16q-42 0 -73.5 -19t-31.5 -50
q0 -32 22.5 -51.5t108.5 -45.5q95 -28 136 -66.5t41 -97.5q0 -49 -26 -84.5t-70 -55t-98 -19.5zM343 -81q-6 -58 -24 -111t-43.5 -94.5t-53.5 -65.5l-68 31q15 16 34 54t36 87.5t24 98.5h95z" />
    <glyph glyph-name="Tcommaaccent" unicode="&#x21a;" horiz-adv-x="550" 
d="M540 645h-219v-645h-98v645h-213v85h530v-85zM331 -79q-6 -58 -24 -111t-43.5 -94.5t-53.5 -65.5l-68 31q15 16 34 54t36 87.5t24 98.5h95z" />
    <glyph glyph-name="tcommaaccent" unicode="&#x21b;" horiz-adv-x="378" 
d="M346 97l16 -74q-18 -14 -50 -21.5t-64 -7.5q-42 0 -75.5 16.5t-53.5 51.5t-20 91v311h-84v75h84v143l90 12v-155h152v-75h-152v-307q0 -39 18 -61t53 -22q27 0 50.5 8.5t35.5 14.5zM269 -79q-6 -58 -24 -111t-43.5 -94.5t-53.5 -65.5l-68 31q15 16 34 54t36 87.5t24 98.5
h95z" />
    <glyph glyph-name="dotlessj" unicode="&#x237;" horiz-adv-x="315" 
d="M233 539v-549q0 -64 -22 -107t-58.5 -64t-78.5 -21q-36 0 -71.5 7.5t-58.5 23.5l29 73q17 -10 40 -16.5t52 -6.5q31 0 54 32t23 83v545h91z" />
    <glyph glyph-name="circumflex" unicode="&#x2c6;" 
d="M420 589h-85l-85 117l-86 -117h-83l123 172h93z" />
    <glyph glyph-name="caron" unicode="&#x2c7;" 
d="M81 761h85l85 -117l86 117h83l-123 -172h-93z" />
    <glyph glyph-name="breve" unicode="&#x2d8;" 
d="M332 752h75q-5 -83 -48.5 -120.5t-108.5 -37.5t-108 37.5t-49 120.5h75q3 -44 22 -70.5t60 -26.5t60 26t22 71z" />
    <glyph glyph-name="dotaccent" unicode="&#x2d9;" 
d="M292 590h-83v163h83v-163z" />
    <glyph glyph-name="ring" unicode="&#x2da;" horiz-adv-x="517" 
d="M259 589q-51 0 -86.5 36t-35.5 87t35.5 86.5t86.5 35.5q52 0 87 -35.5t35 -86.5t-35 -87t-87 -36zM259 648q27 0 45 18.5t18 45.5q0 26 -18 45t-45 19q-26 0 -44.5 -19t-18.5 -45q0 -27 18.5 -45.5t44.5 -18.5z" />
    <glyph glyph-name="ogonek" unicode="&#x2db;" 
d="M362 -89l26 -38q-61 -62 -153 -62q-51 0 -80.5 21.5t-29.5 55.5t27 65t76 55l62 -1q-41 -20 -64.5 -41t-23.5 -43q0 -21 17.5 -33.5t45.5 -12.5q30 0 55.5 9t41.5 25z" />
    <glyph glyph-name="tilde" unicode="&#x2dc;" 
d="M356 732h73q0 -70 -22 -103t-60 -33q-28 0 -49.5 12t-40.5 26q-18 13 -34.5 25.5t-33.5 12.5t-28.5 -17.5t-12.5 -54.5h-71q0 69 28.5 102.5t62.5 33.5q27 0 47 -12.5t39 -27.5q17 -14 32 -24.5t31 -10.5t27 18.5t12 52.5z" />
    <glyph glyph-name="hungarumlaut" unicode="&#x2dd;" 
d="M74 588l95 151h96l-111 -151h-80zM259 588l95 151h97l-112 -151h-80z" />
    <glyph glyph-name="gravecmb" unicode="&#x300;" horiz-adv-x="0" 
d="M107 588h-91l-122 164h106z" />
    <glyph glyph-name="acutecmb" unicode="&#x301;" horiz-adv-x="0" 
d="M-106 597l106 163h107l-122 -163h-91z" />
    <glyph glyph-name="circumflexcmb" unicode="&#x302;" horiz-adv-x="0" 
d="M170 589h-85l-85 117l-86 -117h-83l123 172h93z" />
    <glyph glyph-name="tildecmb" unicode="&#x303;" horiz-adv-x="0" 
d="M103 732h73q0 -70 -22 -103t-60 -33q-28 0 -49.5 12t-40.5 26q-18 13 -34.5 25.5t-33.5 12.5t-28.5 -17.5t-12.5 -54.5h-71q0 69 28.5 102.5t62.5 33.5q27 0 47 -12.5t39 -27.5q17 -14 32 -24.5t31 -10.5t27 18.5t12 52.5z" />
    <glyph glyph-name="macroncmb" unicode="&#x304;" horiz-adv-x="0" 
d="M131 602h-262v78h262v-78z" />
    <glyph glyph-name="brevecmb" unicode="&#x306;" horiz-adv-x="0" 
d="M82 752h75q-5 -83 -48.5 -120.5t-108.5 -37.5t-108 37.5t-49 120.5h75q3 -44 22 -70.5t60 -26.5t60 26t22 71z" />
    <glyph glyph-name="dotaccentcmb" unicode="&#x307;" horiz-adv-x="0" 
d="M42 590h-83v163h83v-163z" />
    <glyph glyph-name="dieresiscmb" unicode="&#x308;" horiz-adv-x="0" 
d="M131 590h-77v157h77v-157zM-54 590h-77v157h77v-157z" />
    <glyph glyph-name="ringcmb" unicode="&#x30a;" horiz-adv-x="0" 
d="M0 589q-51 0 -86.5 36t-35.5 87t35.5 86.5t86.5 35.5q52 0 87 -35.5t35 -86.5t-35 -87t-87 -36zM0 648q27 0 45 18.5t18 45.5q0 26 -18 45t-45 19q-26 0 -44.5 -19t-18.5 -45q0 -27 18.5 -45.5t44.5 -18.5z" />
    <glyph glyph-name="hungarumlautcmb" unicode="&#x30b;" horiz-adv-x="0" 
d="M-188 588l95 151h96l-111 -151h-80zM-3 588l95 151h97l-112 -151h-80z" />
    <glyph glyph-name="caroncmb" unicode="&#x30c;" horiz-adv-x="0" 
d="M-169 761h85l85 -117l86 117h83l-123 -172h-93z" />
    <glyph glyph-name="commaaccent" unicode="&#x326;" 
d="M125 513q6 58 24 111t43.5 94.5t53.5 65.5l68 -31q-15 -16 -34 -54t-36 -87.5t-24 -98.5h-95z" />
    <glyph glyph-name="cedillacmb" unicode="&#x327;" horiz-adv-x="0" 
d="M9 -188q-36 0 -73.5 9t-58.5 23l14 41q14 -8 37 -16t52 -8q22 0 39.5 10t17.5 27q0 19 -15 26.5t-33 7.5q-20 0 -41 -6l-12 12l60 74h55l-50 -62q52 11 87.5 -8t35.5 -55q0 -38 -34.5 -56.5t-80.5 -18.5z" />
    <glyph glyph-name="ogonekcmb" unicode="&#x328;" horiz-adv-x="0" 
d="M109 -89l26 -38q-61 -62 -153 -62q-51 0 -80.5 21.5t-29.5 55.5t27 65t76 55l62 -1q-41 -20 -64.5 -41t-23.5 -43q0 -21 17.5 -33.5t45.5 -12.5q30 0 55.5 9t41.5 25z" />
    <glyph glyph-name="pi" unicode="&#x3c0;" horiz-adv-x="647" 
d="M181 461v-461h-92v461h-53v78h566v-78h-54v-461h-92v461h-275z" />
    <glyph glyph-name="Wgrave" unicode="&#x1e80;" horiz-adv-x="936" 
d="M924 730l-223 -736h-58l-172 560l-183 -560h-58l-218 736h101l157 -545l173 545h58l175 -548l157 548h91zM575 779h-91l-122 164h106z" />
    <glyph glyph-name="wgrave" unicode="&#x1e81;" horiz-adv-x="771" 
d="M524 -3l-131 337l-146 -337h-55l-188 542h96l133 -402l135 331h58l123 -328l131 399h87l-189 -542h-54zM501 588h-91l-122 164h106z" />
    <glyph glyph-name="Wacute" unicode="&#x1e82;" horiz-adv-x="936" 
d="M924 730l-223 -736h-58l-172 560l-183 -560h-58l-218 736h101l157 -545l173 545h58l175 -548l157 548h91zM362 788l106 163h107l-122 -163h-91z" />
    <glyph glyph-name="wacute" unicode="&#x1e83;" horiz-adv-x="771" 
d="M524 -3l-131 337l-146 -337h-55l-188 542h96l133 -402l135 331h58l123 -328l131 399h87l-189 -542h-54zM288 597l106 163h107l-122 -163h-91z" />
    <glyph glyph-name="Wdieresis" unicode="&#x1e84;" horiz-adv-x="936" 
d="M924 730l-223 -736h-58l-172 560l-183 -560h-58l-218 736h101l157 -545l173 545h58l175 -548l157 548h91zM599 781h-77v157h77v-157zM414 781h-77v157h77v-157z" />
    <glyph glyph-name="wdieresis" unicode="&#x1e85;" horiz-adv-x="771" 
d="M524 -3l-131 337l-146 -337h-55l-188 542h96l133 -402l135 331h58l123 -328l131 399h87l-189 -542h-54zM525 590h-77v157h77v-157zM340 590h-77v157h77v-157z" />
    <glyph glyph-name="Ygrave" unicode="&#x1ef2;" horiz-adv-x="662" 
d="M662 730l-284 -420v-310h-98v314l-279 416h109l224 -330l225 330h103zM441 779h-91l-122 164h106z" />
    <glyph glyph-name="ygrave" unicode="&#x1ef3;" horiz-adv-x="547" 
d="M552 539l-288 -616q-34 -72 -82.5 -97.5t-93.5 -25.5q-23 0 -40 5.5t-25 8.5l30 80q4 -2 16.5 -5.5t25.5 -3.5q26 0 48.5 17.5t44.5 61.5l36 70l-228 505h98l179 -404l184 404h95zM381 588h-91l-122 164h106z" />
    <glyph glyph-name="endash" unicode="&#x2013;" horiz-adv-x="461" 
d="M420 227h-379v79h379v-79z" />
    <glyph glyph-name="emdash" unicode="&#x2014;" horiz-adv-x="646" 
d="M605 227h-564v79h564v-79z" />
    <glyph glyph-name="quoteleft" unicode="&#x2018;" horiz-adv-x="269" 
d="M34 507v7q0 56 35 115.5t94 107.5l90 -6q-19 -12 -48 -44.5t-51.5 -77.5t-22.5 -94v-8h-97z" />
    <glyph glyph-name="quoteright" unicode="&#x2019;" horiz-adv-x="269" 
d="M235 737v-7q0 -56 -35.5 -114t-93.5 -109l-90 6q29 25 75.5 83.5t46.5 132.5v8h97z" />
    <glyph glyph-name="quotesinglbase" unicode="&#x201a;" horiz-adv-x="269" 
d="M235 112v-7q0 -55 -35.5 -113.5t-93.5 -109.5l-90 6q29 25 75.5 83.5t46.5 132.5v8h97z" />
    <glyph glyph-name="quotedblleft" unicode="&#x201c;" horiz-adv-x="446" 
d="M223 507v7q0 56 34.5 112t94.5 111l78 -6q-20 -17 -49 -49t-52 -75t-23 -92v-8h-83zM34 507v7q0 56 36.5 112t92.5 111l78 -6q-18 -16 -47.5 -48t-53 -75.5t-23.5 -92.5v-8h-83z" />
    <glyph glyph-name="quotedblright" unicode="&#x201d;" horiz-adv-x="446" 
d="M223 737v-7q0 -56 -33 -112t-96 -111l-78 6q34 29 79 85.5t45 130.5v8h83zM412 737v-7q0 -56 -34.5 -113t-94.5 -110l-78 6q35 29 79.5 85.5t44.5 130.5v8h83z" />
    <glyph glyph-name="quotedblbase" unicode="&#x201e;" horiz-adv-x="446" 
d="M223 116v-7q0 -56 -33 -112t-96 -111l-78 6q34 29 79 85.5t45 130.5v8h83zM412 116v-7q0 -56 -34.5 -113t-94.5 -110l-78 6q35 29 79.5 85.5t44.5 130.5v8h83z" />
    <glyph glyph-name="dagger" unicode="&#x2020;" horiz-adv-x="565" 
d="M540 398h-213v-577h-95v577h-207v72h207v260h95v-260h213v-72z" />
    <glyph glyph-name="daggerdbl" unicode="&#x2021;" horiz-adv-x="565" 
d="M233 -179v300h-204v73h204v198h-204v72h204v266h94v-266h209v-72h-209v-198h209v-73h-209v-300h-94z" />
    <glyph glyph-name="bullet" unicode="&#x2022;" horiz-adv-x="383" 
d="M191 463q35 0 59.5 -24.5t24.5 -59.5t-24.5 -59t-59.5 -24t-59 24t-24 59t24 59.5t59 24.5z" />
    <glyph glyph-name="ellipsis" unicode="&#x2026;" horiz-adv-x="705" 
d="M72 0v130h91v-130h-91zM306 0v130h92v-130h-92zM541 0v130h92v-130h-92z" />
    <glyph glyph-name="perthousand" unicode="&#x2030;" horiz-adv-x="1245" 
d="M647 69q45 0 68.5 34t23.5 90t-22.5 91t-67.5 35q-43 0 -66.5 -34.5t-23.5 -91.5q0 -60 26 -92t62 -32zM649 -3q-69 0 -121 53.5t-52 142.5q0 79 49 138.5t123 59.5q78 0 126 -58t48 -137q0 -81 -48 -140t-125 -59zM124 543q0 -61 26 -93t63 -32q44 0 68 34t24 91
q0 56 -22 90.5t-68 34.5q-42 0 -66.5 -34.5t-24.5 -90.5zM132 0l503 730h92l-505 -730h-90zM216 347q-70 0 -122 53t-52 143q0 79 49 138t124 59q77 0 124.5 -57.5t47.5 -136.5q0 -82 -48 -140.5t-123 -58.5zM1029 69q44 0 68 34t24 90t-22 91t-68 35q-42 0 -66.5 -34.5
t-24.5 -91.5q0 -60 26 -92t63 -32zM1032 -3q-70 0 -122 53.5t-52 142.5q0 79 49 138.5t124 59.5q77 0 124.5 -58t47.5 -137q0 -81 -48 -140t-123 -59z" />
    <glyph glyph-name="guilsinglleft" unicode="&#x2039;" horiz-adv-x="237" 
d="M208 113l-180 167v52l180 165v-88l-102 -105l102 -100v-91z" />
    <glyph glyph-name="guilsinglright" unicode="&#x203a;" horiz-adv-x="238" 
d="M30 499l180 -168v-51l-180 -165v87l101 105l-101 101v91z" />
    <glyph glyph-name="fraction" unicode="&#x2044;" horiz-adv-x="145" 
d="M302 730l-368 -730h-79l369 730h78z" />
    <glyph glyph-name="Euro" unicode="&#x20ac;" horiz-adv-x="567" 
d="M491 250h-453v64h453v-64zM494 158l70 -42q-32 -56 -91 -92t-132 -36q-75 0 -134 46t-93.5 129.5t-34.5 198.5q0 106 30 192.5t88.5 137t142.5 50.5q88 0 138.5 -34.5t75.5 -81.5l-72 -38q-21 37 -54.5 59.5t-87.5 22.5q-82 0 -129 -79t-47 -228q0 -100 24.5 -167
t65.5 -101.5t89 -34.5q52 0 91 29.5t60 68.5zM491 407h-453v64h453v-64z" />
    <glyph glyph-name="trademark" unicode="&#x2122;" horiz-adv-x="922" 
d="M863 292h-82v306l-148 -197h-8l-147 195v-304h-80v438h57l175 -226l172 226h61v-438zM369 637h-131v-345h-93v345h-125v93h349v-93z" />
    <glyph glyph-name="Omega" unicode="&#x2126;" horiz-adv-x="757" 
d="M46 0v83h219v69q-99 35 -163.5 113.5t-64.5 179.5q0 126 92 213.5t246 87.5q160 0 253 -88t93 -213q0 -101 -60 -178t-169 -115v-69h219v-83h-285v201q91 33 143.5 98t52.5 141q0 101 -70.5 165.5t-176.5 64.5q-102 0 -170.5 -65t-68.5 -167q0 -74 51 -137.5t144 -99.5
v-201h-285z" />
    <glyph glyph-name="partialdiff" unicode="&#x2202;" horiz-adv-x="600" 
d="M297 53q75 0 121.5 52.5t46.5 142.5q0 73 -44.5 124.5t-123.5 51.5q-70 0 -117 -52t-47 -134q0 -88 46.5 -136.5t117.5 -48.5zM559 294q0 -106 -35.5 -173t-95 -99.5t-132.5 -32.5q-65 0 -123.5 30t-95.5 85t-37 131q0 68 33 126t89 93t125 35q71 0 122 -33t74 -85
q-15 137 -63.5 219t-114 119.5t-129.5 40.5l43 52q50 0 108.5 -27.5t111 -87.5t86.5 -157.5t34 -235.5z" />
    <glyph glyph-name="Delta" unicode="&#x2206;" horiz-adv-x="658" 
d="M657 0h-656l297 732h66zM524 77l-200 514l-197 -514h397z" />
    <glyph glyph-name="product" unicode="&#x220f;" horiz-adv-x="700" 
d="M224 649v-649h-93v649h-116v81h670v-81h-111v-649h-93v649h-257z" />
    <glyph glyph-name="summation" unicode="&#x2211;" horiz-adv-x="618" 
d="M176 644l245 -337l-278 -400h429v-86h-586l335 485l-305 424h535v-86h-375z" />
    <glyph glyph-name="minus" unicode="&#x2212;" horiz-adv-x="514" 
d="M474 294h-433v77h433v-77z" />
    <glyph glyph-name="radical" unicode="&#x221a;" horiz-adv-x="510" 
d="M502 730l-304 -730h-12l-173 328l65 48l125 -250l241 604h58z" />
    <glyph glyph-name="integral" unicode="&#x222b;" horiz-adv-x="337" 
d="M107 -29l59 657q4 55 40.5 83.5t75.5 28.5q20 0 39 -1.5t23 -2.5l-8 -78q-9 3 -30 3q-28 0 -46 -18.5t-21 -59.5l-56 -644q-5 -48 -39 -83.5t-87 -34.5q-27 0 -51 5t-36 12l9 64q6 -1 20 -5t28 -4q30 0 53 20.5t27 57.5z" />
    <glyph glyph-name="approxequal" unicode="&#x2248;" 
d="M394 498h65q-2 -73 -26.5 -117t-77.5 -44q-34 0 -59.5 15t-45.5 34q-20 20 -40 34t-42 14t-42.5 -26t-20.5 -68h-64q0 75 30.5 117.5t81.5 42.5q35 0 61 -18t47 -37q20 -17 39 -30.5t40 -13.5q29 0 41.5 24t12.5 73zM394 322h65q-2 -73 -26.5 -117t-77.5 -44
q-34 0 -59.5 15t-45.5 34q-20 20 -40 34t-42 14t-42.5 -25.5t-20.5 -68.5h-64q0 75 30.5 117.5t81.5 42.5q35 0 61 -18t47 -37q20 -17 39 -31t40 -14q29 0 41.5 24.5t12.5 73.5z" />
    <glyph glyph-name="notequal" unicode="&#x2260;" 
d="M457 388h-392v77h392v-77zM457 176h-392v77h392v-77zM120 91l230 483l47 -22l-230 -483z" />
    <glyph glyph-name="lessequal" unicode="&#x2264;" 
d="M62 296v58l371 204v-77l-283 -154l283 -157v-77zM61 83h372v-60h-372v60z" />
    <glyph glyph-name="greaterequal" unicode="&#x2265;" 
d="M432 296l-371 -203v77l283 157l-283 154v77l371 -204v-58zM433 83v-60h-372v60h372z" />
    <glyph glyph-name="lozenge" unicode="&#x25ca;" horiz-adv-x="532" 
d="M503 326l-231 -341h-11l-231 341v11l231 340h11l231 -340v-11zM418 327v9l-147 222h-8l-148 -222v-9l148 -223h8z" />
    <glyph glyph-name="apple" unicode="&#xf8ff;" horiz-adv-x="730" 
d="M448 679h-166v51h166v-51zM659 282h-53v166h53v-166zM427 303h-124v124h124v-124zM124 282h-53v166h53v-166zM448 0h-166v52h166v-52z" />
    <glyph glyph-name="fi" unicode="&#xfb01;" horiz-adv-x="668" 
d="M395 461h-177v-461h-90v461h-114v78h114v57q0 107 60 156.5t131 49.5q21 0 47.5 -5t39.5 -12l-27 -83q-9 4 -25 8.5t-32 4.5q-33 0 -69 -25.5t-36 -87.5v-63h178v-78zM579 0h-88v539h88v-539z" />
    <glyph glyph-name="fl" unicode="&#xfb02;" horiz-adv-x="688" 
d="M395 461h-177v-461h-90v461h-114v78h114v57q0 107 60 156.5t131 49.5q21 0 47.5 -5t39.5 -12l-27 -83q-9 4 -25 8.5t-32 4.5q-33 0 -69 -25.5t-36 -87.5v-63h178v-78zM462 123v677h92v-648q0 -36 18.5 -56t52.5 -20q13 0 27.5 1.5t22.5 4.5l2 -80q-10 -3 -31 -5.5
t-40 -2.5q-37 0 -70 14t-53.5 43t-20.5 72z" />
    <glyph glyph-name="commaaccentcmb" horiz-adv-x="0" 
d="M95 -79q-6 -58 -24 -111t-43.5 -94.5t-53.5 -65.5l-68 31q15 16 34 54t36 87.5t24 98.5h95z" />
    <glyph glyph-name="lacute.altsize" horiz-adv-x="268" 
d="M88 858l106 163h107l-122 -163h-91zM180 800v-800h-92v800h92z" />
    <glyph glyph-name="lcaron.altsize" horiz-adv-x="268" 
d="M180 800v-800h-92v800h92zM312 602l-5 -147h-76l-4 147v128h85v-128z" />
    <glyph glyph-name="ldot.altsize" horiz-adv-x="268" 
d="M180 800v-800h-92v800h92zM312 232h-83v163h83v-163z" />
    <glyph glyph-name="l.altsize" horiz-adv-x="268" 
d="M180 800v-800h-92v800h92z" />
    <glyph glyph-name="foursuperior" horiz-adv-x="327" 
d="M15 455v55l187 228h51v-225h62v-58h-62v-82h-74v82h-164zM75 502h106v132z" />
    <glyph glyph-name="lcommaaccent.altsize" horiz-adv-x="268" 
d="M180 800v-800h-92v800h92zM186 -79q-6 -58 -24 -111t-43.5 -94.5t-53.5 -65.5l-68 31q15 16 34 54t36 87.5t24 98.5h95z" />
    <glyph glyph-name="dollar.swap" horiz-adv-x="551" 
d="M243 -120v909h55v-909h-55zM277 1q-81 0 -146 24.5t-99 59.5l32 75q35 -36 97.5 -61t118.5 -25q64 0 102 29t38 80q0 29 -13 52.5t-49.5 47.5t-108.5 55q-113 49 -159 95.5t-46 120.5q0 80 60.5 128t153.5 48q79 0 136.5 -20.5t93.5 -54.5l-44 -65q-33 31 -79.5 48.5
t-97.5 17.5q-58 0 -96 -27.5t-38 -75.5q0 -47 35 -75t135 -73q68 -30 114 -59.5t70 -66.5t24 -92q0 -86 -69.5 -136t-164.5 -50z" />
    <glyph glyph-name="cent.swap" horiz-adv-x="574" 
d="M320 99q-119 0 -195.5 75.5t-76.5 195.5q0 79 35.5 142t98 99.5t141.5 36.5q91 0 149.5 -42t82.5 -94l-75 -34q-22 38 -61.5 65.5t-98.5 27.5q-82 0 -133 -58t-51 -140q0 -85 50.5 -141t136.5 -56q70 0 108 32t58 64l66 -47q-30 -44 -84 -85t-151 -41zM276 -6v750h70
v-750h-70z" />
    <glyph glyph-name="Q.swap" horiz-adv-x="843" 
d="M425 -9q-114 0 -199 48.5t-131.5 133.5t-46.5 197q0 105 47.5 189t131 133.5t191.5 49.5q110 0 195.5 -47.5t134 -132t48.5 -197.5q0 -106 -49 -190.5t-132.5 -134t-189.5 -49.5zM427 72q77 0 138 34t97 99.5t36 157.5q0 91 -39.5 156.5t-105 100t-142.5 34.5
q-78 0 -138 -34t-94.5 -97t-34.5 -149q0 -95 40.5 -163t104.5 -103.5t138 -35.5zM707 -191q-90 1 -164 34.5t-120.5 90.5t-54.5 131h102q11 -80 80.5 -123.5t156.5 -46.5v-86z" />
    <glyph glyph-name="fi.swap" horiz-adv-x="670" 
d="M397 461h-177v-461h-90v461h-114v78h114v57q0 107 60.5 156.5t130.5 49.5q22 0 48.5 -5t38.5 -12l-27 -83q-9 4 -25 8.5t-31 4.5q-33 0 -69.5 -25.5t-36.5 -87.5v-63h178v-78zM582 0h-92v539h92v-539zM584 653h-97v86h97v-86z" />
    <glyph glyph-name="fl.altsize" horiz-adv-x="644" 
d="M397 461h-177v-461h-90v461h-114v78h114v57q0 107 60.5 156.5t130.5 49.5q22 0 48.5 -5t38.5 -12l-27 -83q-9 4 -25 8.5t-31 4.5q-33 0 -69.5 -25.5t-36.5 -87.5v-63h178v-78zM556 800v-800h-91v800h91z" />
    <glyph glyph-name="lslash.altsize" horiz-adv-x="268" 
d="M180 800v-800h-92v800h92zM23 251l-22 54l245 113l24 -53z" />
  </font>
</defs>
</svg>
