<?xml version="1.0" encoding="utf-8" ?><svg version="1.1" xmlns = 'http://www.w3.org/2000/svg'><defs><font id='web' horiz-adv-x="1000">
<font-face font-family="web" descent="-200" cap-height="730" units-per-em="1000" bbox="-201,-364,1246,1031" x-height="546" ascent="800" />
<missing-glyph horiz-adv-x="500" d="M 50 -200 L 450 -200 L 450 800 L 50 800 L 50 -200 Z M 100 -150 L 100 750 L 400 750 L 400 -150 L 100 -150 Z" /><glyph horiz-adv-x="285" d="" unicode=" " />
<glyph horiz-adv-x="313" d="M 220 435 L 184 219 L 128 219 L 93 435 L 93 730 L 220 730 L 220 435 Z M 215 0 L 98 0 L 98 117 L 215 117 L 215 0 Z" unicode="!" />
<glyph horiz-adv-x="445" d="M 375 604 L 368 453 L 279 453 L 274 603 L 274 730 L 375 730 L 375 604 Z M 170 603 L 165 453 L 75 453 L 70 603 L 70 730 L 170 730 L 170 603 Z" unicode="&#x22;" />
<glyph horiz-adv-x="659" d="M 626 433 L 61 433 L 61 516 L 626 516 L 626 433 Z M 148 1 L 212 730 L 279 729 L 215 0 L 148 1 Z M 33 294 L 598 294 L 598 211 L 33 211 L 33 294 Z M 511 729 L 447 0 L 380 1 L 444 730 L 511 729 Z" unicode="#" />
<glyph horiz-adv-x="565" d="M 284 1 C 228 1 177 9 132 25 C 87 41 53 61 30 84 L 68 173 C 91 149 124 128 167 112 C 210 95 250 87 287 87 C 329 87 361 95 385 113 C 408 130 420 154 420 185 C 420 203 415 219 407 233 C 399 247 382 262 358 278 C 334 293 297 311 249 332 C 173 364 119 396 88 428 C 56 460 41 500 41 550 C 41 604 62 648 104 681 C 146 713 200 730 265 730 C 320 730 368 722 408 708 C 448 694 479 675 503 653 L 452 577 C 430 597 404 613 373 625 C 341 637 309 643 275 643 C 238 643 207 634 183 618 C 158 601 146 578 146 549 C 146 520 157 497 180 480 C 202 463 247 440 314 411 C 358 391 396 372 428 353 C 460 333 484 311 501 286 C 518 260 527 228 527 190 C 527 131 502 85 454 51 C 406 17 349 1 284 1 Z M 310 695 L 245 695 L 245 789 L 310 789 L 310 695 Z M 245 -120 L 245 31 L 310 31 L 310 -120 L 245 -120 Z" unicode="$" />
<glyph horiz-adv-x="907" d="M 130 0 L 238 0 L 760 730 L 652 730 L 130 0 Z M 218 427 C 244 427 265 437 280 457 C 294 477 302 505 302 541 C 302 575 295 603 281 624 C 267 644 247 655 220 655 C 194 655 173 644 158 624 C 143 603 136 575 136 541 C 136 503 144 475 160 456 C 176 436 195 427 218 427 Z M 221 343 C 172 343 130 361 94 397 C 58 433 40 481 40 541 C 40 593 57 640 91 680 C 125 720 167 740 219 740 C 271 740 314 720 348 681 C 381 642 398 596 398 544 C 398 489 381 442 348 402 C 314 362 272 343 221 343 Z M 686 82 C 712 82 733 92 748 112 C 762 132 770 160 770 195 C 770 229 763 257 749 278 C 735 299 715 310 688 310 C 662 310 641 299 627 279 C 613 258 606 230 606 195 C 606 158 613 130 629 111 C 645 91 664 82 686 82 Z M 689 -3 C 640 -3 598 15 562 51 C 526 87 509 135 509 195 C 509 247 525 294 559 334 C 593 374 635 394 687 394 C 740 394 783 374 817 335 C 850 296 867 250 867 198 C 867 143 850 96 817 56 C 783 16 741 -3 689 -3 Z" unicode="%" />
<glyph horiz-adv-x="758" d="M 728 257 C 698 205 664 160 627 120 C 590 80 546 48 494 26 C 442 3 377 -8 301 -8 C 220 -8 155 8 106 40 C 57 72 33 117 33 176 C 33 214 44 247 66 274 C 88 301 115 325 147 345 C 179 365 211 385 243 405 C 293 436 332 463 360 485 C 388 507 402 531 402 559 C 402 583 393 604 377 621 C 360 638 336 647 306 647 C 278 647 254 638 236 620 C 217 602 208 583 208 562 C 208 540 215 520 229 501 C 243 481 259 464 279 449 L 735 90 L 677 -4 L 199 376 C 186 386 172 400 156 418 C 140 435 126 456 115 480 C 103 504 98 533 98 565 C 98 597 108 627 129 653 C 150 679 177 699 209 714 C 241 729 275 737 310 737 C 372 737 421 720 456 686 C 491 652 509 613 509 567 C 509 518 490 479 453 451 C 416 423 369 391 312 356 C 260 324 220 296 193 274 C 165 251 152 222 152 186 C 152 152 167 127 197 110 C 227 92 263 84 307 84 C 373 84 432 104 484 145 C 536 185 583 240 627 309 L 728 257 Z" unicode="&#x26;" />
<glyph horiz-adv-x="240" d="M 170 598 L 165 443 L 75 443 L 70 598 L 70 730 L 170 730 L 170 598 Z" unicode="'" />
<glyph horiz-adv-x="358" d="M 340 -98 L 340 -189 C 282 -164 230 -128 184 -80 C 138 -32 101 23 75 87 C 48 151 35 219 35 293 C 35 369 49 438 78 500 C 106 561 144 613 190 656 C 236 698 286 729 340 749 L 340 670 C 310 652 282 626 256 594 C 229 562 207 521 191 472 C 174 422 166 363 166 293 C 166 232 173 177 187 127 C 201 77 222 34 248 -4 C 274 -42 305 -73 340 -98 Z" unicode="(" />
<glyph horiz-adv-x="358" d="M 18 671 L 18 749 C 68 731 117 702 164 660 C 210 618 248 565 278 501 C 308 437 323 365 323 285 C 323 208 309 138 281 75 C 253 11 215 -42 169 -88 C 123 -133 72 -167 18 -189 L 18 -97 C 49 -74 78 -45 104 -9 C 130 26 152 68 168 117 C 184 166 192 222 192 285 C 192 358 183 420 166 472 C 148 523 126 565 100 597 C 73 629 46 654 18 671 Z" unicode=")" />
<glyph horiz-adv-x="438" d="M 402 563 L 271 530 L 371 444 L 294 377 L 221 494 L 148 377 L 75 443 L 171 532 L 36 563 L 74 653 L 190 586 L 166 730 L 276 730 L 251 586 L 370 652 L 402 563 Z" unicode="*" />
<glyph horiz-adv-x="500" d="M 476 285 L 296 285 L 296 110 L 205 110 L 205 285 L 24 285 L 24 377 L 205 377 L 205 552 L 296 552 L 296 377 L 476 377 L 476 285 Z" unicode="+" />
<glyph horiz-adv-x="264" d="M 221 128 C 217 86 209 47 197 9 C 185 -29 170 -62 153 -91 C 135 -119 118 -141 100 -155 L 20 -119 C 30 -108 41 -89 53 -63 C 65 -37 77 -7 88 27 C 98 61 106 94 110 128 L 221 128 Z" unicode="," />
<glyph horiz-adv-x="365" d="M 320 221 L 45 221 L 45 317 L 320 317 L 320 221 Z" unicode="-" />
<glyph horiz-adv-x="265" d="M 186 0 L 79 0 L 79 143 L 186 143 L 186 0 Z" unicode="." />
<glyph horiz-adv-x="331" d="M 330 730 L 99 0 L 1 0 L 234 730 L 330 730 Z" unicode="/" />
<glyph horiz-adv-x="611" d="M 302 -12 C 250 -12 204 2 165 32 C 125 62 95 104 73 160 C 51 216 40 283 40 361 C 40 429 49 493 69 551 C 89 609 118 655 158 690 C 198 724 248 742 308 742 C 369 742 419 725 458 692 C 496 659 525 614 543 558 C 561 502 571 439 571 369 C 571 295 561 229 541 172 C 521 114 492 69 452 37 C 412 4 362 -12 302 -12 Z M 303 86 C 338 86 367 97 390 119 C 413 141 430 173 441 214 C 452 255 458 303 458 359 C 458 415 452 465 442 508 C 431 551 414 585 392 609 C 370 633 341 645 305 645 C 271 645 242 633 220 611 C 198 588 181 555 170 513 C 158 471 153 420 153 362 C 153 304 158 255 170 214 C 181 172 198 141 220 119 C 242 97 270 86 303 86 Z" unicode="0" />
<glyph horiz-adv-x="397" d="M 307 0 L 197 0 L 197 587 C 182 569 159 552 129 535 C 98 518 69 509 41 507 L 41 609 C 75 611 110 623 144 647 C 178 671 208 699 234 731 L 307 731 L 307 0 Z" unicode="1" />
<glyph horiz-adv-x="575" d="M 552 0 L 28 0 L 28 44 L 343 365 C 363 385 381 410 399 438 C 416 466 425 496 425 529 C 425 563 411 591 385 613 C 358 635 323 646 281 646 C 236 646 201 632 176 605 C 150 577 138 543 138 503 L 35 503 C 38 577 63 635 109 678 C 155 720 218 742 300 742 C 371 742 428 723 472 687 C 516 650 538 602 538 543 C 538 487 526 442 504 407 C 482 371 458 341 432 315 L 218 100 L 552 100 L 552 0 Z" unicode="2" />
<glyph horiz-adv-x="571" d="M 285 -12 C 217 -12 160 -3 114 13 C 68 30 33 50 10 72 L 69 162 C 88 145 114 128 148 110 C 182 92 222 84 270 84 C 322 84 362 97 392 123 C 421 149 436 182 436 223 C 436 259 422 288 394 309 C 366 330 330 341 284 341 L 144 341 L 144 434 L 279 434 C 319 434 351 444 375 465 C 399 486 412 511 412 540 C 412 566 400 590 377 612 C 354 634 322 646 282 646 C 236 646 199 636 171 618 C 143 599 120 578 102 556 L 39 633 C 59 661 91 686 133 708 C 175 730 226 742 286 742 C 356 742 413 725 457 693 C 501 661 523 617 523 561 C 523 518 509 481 482 451 C 454 421 421 401 381 392 C 428 384 467 365 499 334 C 531 303 547 263 547 215 C 547 174 536 136 515 102 C 493 68 463 40 424 19 C 385 -1 339 -12 285 -12 Z" unicode="3" />
<glyph horiz-adv-x="588" d="M 584 185 L 463 185 L 463 0 L 360 0 L 360 185 L 13 185 L 13 267 L 378 741 L 463 741 L 463 275 L 584 275 L 584 185 Z M 362 275 L 362 580 L 132 275 L 362 275 Z" unicode="4" />
<glyph horiz-adv-x="587" d="M 280 -12 C 220 -12 169 -2 125 17 C 81 36 47 57 25 79 L 84 165 C 100 148 125 130 159 112 C 192 93 230 84 274 84 C 324 84 363 99 393 130 C 422 160 437 201 437 253 C 437 300 423 337 395 364 C 367 391 333 405 292 405 C 257 405 226 398 200 385 C 173 372 153 353 140 328 L 68 346 L 99 730 L 491 730 L 491 630 L 180 630 L 167 435 C 178 449 198 462 226 476 C 254 489 284 496 317 496 C 387 496 443 474 486 430 C 529 386 551 328 551 258 C 551 180 526 116 477 65 C 428 13 362 -12 280 -12 Z" unicode="5" />
<glyph horiz-adv-x="597" d="M 308 -12 C 256 -12 209 0 169 21 C 128 43 96 75 72 117 C 48 158 37 207 37 264 C 37 326 49 384 73 437 C 97 489 129 538 169 583 C 209 628 254 670 304 708 L 374 762 L 438 682 L 379 637 C 323 593 275 551 236 509 C 196 467 172 430 164 400 C 174 418 195 436 225 453 C 255 470 289 479 327 479 C 397 479 455 457 500 413 C 544 369 567 311 567 239 C 567 191 555 149 532 111 C 509 73 478 43 439 21 C 399 -1 356 -12 308 -12 Z M 303 84 C 349 84 386 99 414 129 C 441 159 455 194 455 236 C 455 278 441 314 415 344 C 389 374 351 389 302 389 C 260 389 223 375 191 348 C 159 320 144 284 144 240 C 144 197 158 160 186 130 C 214 99 253 84 303 84 Z" unicode="6" />
<glyph horiz-adv-x="515" d="M 497 730 L 516 678 L 169 -9 L 74 38 L 378 628 L 15 628 L 15 730 L 497 730 Z" unicode="7" />
<glyph horiz-adv-x="615" d="M 307 80 C 355 80 393 92 423 116 C 452 140 467 171 467 211 C 467 250 452 280 422 300 C 392 320 354 331 307 331 C 260 331 222 320 192 300 C 162 280 148 249 148 209 C 148 171 162 140 192 116 C 221 92 259 80 307 80 Z M 306 422 C 348 422 382 432 408 453 C 434 474 447 501 447 534 C 447 569 433 597 407 618 C 380 639 346 650 306 650 C 266 650 233 639 207 618 C 180 597 167 569 167 534 C 167 500 180 472 207 452 C 234 432 267 422 306 422 Z M 414 387 C 461 377 499 356 529 322 C 558 288 573 245 573 195 C 573 135 549 86 501 47 C 453 7 388 -12 306 -12 C 224 -12 160 7 113 46 C 65 85 42 135 42 195 C 42 229 49 259 64 287 C 79 314 99 336 123 354 C 147 371 172 382 200 386 C 175 392 152 403 132 419 C 112 435 95 454 83 476 C 71 498 65 522 65 549 C 65 605 87 652 133 688 C 178 724 236 742 306 742 C 379 742 438 724 482 690 C 526 656 549 611 549 555 C 549 516 536 481 510 449 C 484 417 452 396 414 387 Z" unicode="8" />
<glyph horiz-adv-x="597" d="M 240 -21 L 183 57 L 263 120 C 289 141 314 165 338 191 C 362 217 383 243 401 270 C 419 296 432 321 441 345 C 429 324 406 304 372 286 C 337 268 302 259 268 259 C 198 259 141 280 97 322 C 52 364 30 423 30 499 C 30 544 41 585 64 622 C 87 659 118 688 158 710 C 198 732 242 743 292 743 C 367 743 430 718 482 670 C 534 622 560 554 560 468 C 560 401 547 340 523 285 C 499 230 467 181 429 139 C 391 96 350 60 307 30 L 240 -21 Z M 293 342 C 339 342 378 356 408 386 C 438 415 453 450 453 492 C 453 538 437 576 407 606 C 377 636 340 651 296 651 C 248 651 211 635 183 605 C 155 574 142 538 142 497 C 142 455 155 418 181 388 C 207 357 244 342 293 342 Z" unicode="9" />
<glyph horiz-adv-x="254" d="M 181 409 L 73 409 L 73 546 L 181 546 L 181 409 Z M 181 0 L 73 0 L 73 138 L 181 138 L 181 0 Z" unicode=":" />
<glyph horiz-adv-x="253" d="M 187 409 L 80 409 L 80 546 L 187 546 L 187 409 Z M 193 108 C 189 75 181 42 169 9 C 157 -24 142 -54 126 -82 C 110 -109 93 -130 76 -145 L -4 -109 C 12 -90 31 -60 51 -18 C 71 23 83 65 87 108 L 193 108 Z" unicode=";" />
<glyph horiz-adv-x="426" d="M 373 97 L 42 284 L 42 376 L 373 560 L 373 463 L 151 333 L 373 197 L 373 97 Z" unicode="&#x3C;" />
<glyph horiz-adv-x="500" d="M 451 385 L 49 385 L 49 477 L 451 477 L 451 385 Z M 451 169 L 49 169 L 49 261 L 451 261 L 451 169 Z" unicode="=" />
<glyph horiz-adv-x="426" d="M 384 284 L 53 97 L 53 197 L 276 333 L 53 464 L 53 560 L 384 376 L 384 284 Z" unicode="&#x3E;" />
<glyph horiz-adv-x="484" d="M 163 208 C 163 257 168 296 178 324 C 188 352 210 379 244 404 C 262 417 279 430 295 444 C 311 457 324 472 334 488 C 344 504 349 524 349 547 C 349 577 337 601 313 619 C 289 636 260 645 225 645 C 193 645 165 637 139 623 C 113 609 93 592 78 573 L 7 643 C 27 668 57 691 96 711 C 134 731 181 742 236 742 C 299 742 352 726 396 694 C 440 662 462 618 462 562 C 462 508 447 467 419 438 C 390 408 363 385 338 367 C 308 346 290 322 282 294 C 274 266 270 237 270 208 L 163 208 Z M 159 0 L 159 131 L 279 131 L 279 0 L 159 0 Z" unicode="?" />
<glyph horiz-adv-x="895" d="M 441 -28 C 367 -28 301 -10 243 23 C 184 57 137 104 103 162 C 69 220 52 286 52 358 C 52 432 68 497 102 555 C 135 613 181 658 241 692 C 300 725 369 742 448 742 C 528 742 597 727 657 699 C 716 670 762 630 794 578 C 826 526 843 465 843 395 C 843 335 834 286 818 250 C 802 213 781 186 756 170 C 730 154 704 146 676 146 C 638 146 609 152 589 164 C 568 176 554 192 547 212 C 538 195 520 180 492 167 C 464 154 430 148 389 148 C 340 148 302 160 276 184 C 250 208 237 238 237 274 C 237 300 244 324 260 346 C 275 367 298 384 329 396 C 360 408 400 414 448 414 L 539 414 L 539 421 C 539 446 529 464 510 476 C 491 488 466 494 436 494 C 412 494 390 491 370 486 C 349 481 331 475 317 469 L 283 548 C 299 556 323 563 353 571 C 383 579 412 583 441 583 C 496 583 541 569 576 543 C 611 517 629 474 629 414 L 629 278 C 629 264 633 251 641 238 C 649 225 664 219 686 219 C 698 219 710 224 723 232 C 736 240 747 257 756 281 C 765 305 770 340 770 386 C 770 439 757 488 732 532 C 706 576 670 612 622 638 C 574 664 516 678 448 678 C 382 678 325 664 277 637 C 228 609 190 572 164 524 C 138 476 125 421 125 361 C 125 301 139 246 167 197 C 195 148 233 109 281 81 C 329 52 383 38 443 38 C 467 38 493 41 521 47 C 548 53 573 61 596 73 L 624 11 C 597 -1 568 -11 536 -18 C 504 -24 473 -28 441 -28 Z M 432 227 C 456 227 478 231 497 240 C 516 248 530 257 539 266 L 539 346 L 458 346 C 420 346 391 341 373 331 C 355 321 346 306 346 287 C 346 266 353 251 367 241 C 381 231 402 227 432 227 Z" unicode="@" />
<glyph horiz-adv-x="662" d="M 443 263 L 325 564 L 207 263 L 443 263 Z M 662 0 L 540 0 L 469 175 L 180 175 L 114 0 L 0 0 L 296 733 L 372 733 L 662 0 Z" unicode="A" />
<glyph horiz-adv-x="629" d="M 93 0 L 93 730 L 332 730 C 398 730 450 714 488 684 C 526 653 545 609 545 553 C 545 506 532 467 507 437 C 482 407 449 388 409 380 C 450 376 489 360 527 332 C 565 304 584 259 584 198 C 584 157 573 122 552 92 C 530 62 501 40 464 24 C 426 8 384 0 336 0 L 93 0 Z M 200 414 L 308 414 C 353 414 385 427 404 453 C 423 479 433 506 433 535 C 433 565 421 590 398 609 C 375 628 344 638 306 638 L 200 638 L 200 414 Z M 202 92 L 333 92 C 379 92 413 104 434 128 C 454 152 465 181 465 214 C 465 244 452 270 428 291 C 404 311 372 322 333 322 L 202 322 L 202 92 Z" unicode="B" />
<glyph horiz-adv-x="746" d="M 407 -12 C 341 -12 281 3 227 34 C 172 64 128 108 95 164 C 62 220 46 287 46 365 C 46 439 61 505 93 562 C 124 618 167 662 222 694 C 276 726 338 742 408 742 C 474 742 531 732 579 712 C 627 692 668 660 701 618 L 614 546 C 591 572 564 594 532 611 C 500 627 459 636 410 636 C 358 636 313 625 276 603 C 239 581 211 551 191 511 C 171 471 162 424 162 370 C 162 308 174 257 199 216 C 223 174 255 143 295 123 C 334 102 376 92 420 92 C 469 92 511 101 546 121 C 580 140 609 166 632 199 L 717 138 C 689 96 649 61 597 32 C 545 2 481 -12 407 -12 Z" unicode="C" />
<glyph horiz-adv-x="753" d="M 93 0 L 93 730 L 323 730 C 445 730 539 697 606 633 C 673 569 707 483 707 377 C 707 270 673 180 605 108 C 537 36 438 0 307 0 L 93 0 Z M 208 93 L 305 93 C 401 93 472 120 518 176 C 564 231 587 298 587 376 C 587 454 563 518 516 566 C 469 614 403 638 319 638 L 208 638 L 208 93 Z" unicode="D" />
<glyph horiz-adv-x="595" d="M 540 0 L 93 0 L 93 730 L 521 730 L 521 630 L 206 630 L 206 414 L 504 414 L 504 316 L 206 316 L 206 100 L 540 100 L 540 0 Z" unicode="E" />
<glyph horiz-adv-x="540" d="M 496 630 L 208 630 L 208 416 L 481 416 L 481 318 L 208 318 L 208 0 L 93 0 L 93 730 L 496 730 L 496 630 Z" unicode="F" />
<glyph horiz-adv-x="795" d="M 424 372 L 744 372 L 744 154 C 714 104 671 63 613 33 C 555 3 490 -12 419 -12 C 349 -12 285 3 229 34 C 173 65 128 109 95 165 C 62 221 46 288 46 365 C 46 442 63 509 97 565 C 131 621 176 665 232 696 C 288 726 351 742 419 742 C 466 742 507 736 543 726 C 579 715 609 701 634 685 C 659 669 680 652 696 635 L 622 550 C 600 572 574 591 544 609 C 513 627 470 636 415 636 C 367 636 324 625 286 605 C 247 585 216 555 194 515 C 171 475 160 427 160 370 C 160 311 171 260 195 218 C 218 175 249 142 289 119 C 329 95 373 84 422 84 C 471 84 515 93 554 112 C 593 130 621 157 639 192 L 639 274 L 424 274 L 424 372 Z" unicode="G" />
<glyph horiz-adv-x="769" d="M 676 0 L 561 0 L 561 310 L 208 310 L 208 0 L 93 0 L 93 730 L 208 730 L 208 410 L 561 410 L 561 730 L 676 730 L 676 0 Z" unicode="H" />
<glyph horiz-adv-x="309" d="M 212 0 L 97 0 L 97 730 L 212 730 L 212 0 Z" unicode="I" />
<glyph horiz-adv-x="439" d="M 349 730 L 349 197 C 349 140 330 91 292 50 C 254 8 201 -12 132 -12 C 113 -12 91 -10 67 -7 C 42 -3 23 2 10 12 L 53 101 C 59 97 68 94 80 92 C 91 90 103 89 116 89 C 154 89 183 99 203 121 C 223 143 234 169 234 199 L 234 730 L 349 730 Z" unicode="J" />
<glyph horiz-adv-x="684" d="M 672 0 L 532 0 L 303 327 L 207 210 L 207 0 L 93 0 L 93 730 L 207 730 L 207 343 L 508 730 L 635 730 L 384 410 L 672 0 Z" unicode="K" />
<glyph horiz-adv-x="543" d="M 531 0 L 93 0 L 93 730 L 208 730 L 208 100 L 531 100 L 531 0 Z" unicode="L" />
<glyph horiz-adv-x="927" d="M 834 0 L 727 0 L 727 502 L 488 150 L 441 150 L 198 502 L 198 0 L 93 0 L 93 730 L 171 730 L 469 285 L 755 730 L 834 730 L 834 0 Z" unicode="M" />
<glyph horiz-adv-x="791" d="M 698 0 L 616 0 L 200 531 L 200 0 L 93 0 L 93 730 L 181 730 L 593 205 L 593 730 L 698 730 L 698 0 Z" unicode="N" />
<glyph horiz-adv-x="840" d="M 431 87 C 478 87 520 97 558 119 C 595 141 625 172 647 213 C 669 254 680 304 680 363 C 680 417 668 464 644 506 C 620 547 588 579 547 603 C 506 626 460 638 408 638 C 360 638 318 627 281 606 C 243 585 214 555 192 515 C 170 475 160 428 160 373 C 160 314 172 263 197 221 C 221 178 254 145 295 122 C 336 98 381 87 431 87 Z M 423 -12 C 349 -12 283 4 227 38 C 170 72 126 117 94 175 C 62 233 46 298 46 370 C 46 442 62 506 95 562 C 128 618 172 662 228 694 C 284 726 346 742 415 742 C 489 742 554 726 611 694 C 668 662 713 617 745 561 C 777 505 794 440 794 368 C 794 292 777 226 743 169 C 709 112 664 68 608 36 C 552 4 490 -12 423 -12 Z" unicode="O" />
<glyph horiz-adv-x="622" d="M 93 0 L 93 730 L 357 730 C 425 730 481 710 525 672 C 569 634 592 580 592 512 C 592 444 570 389 527 347 C 484 304 428 283 358 283 L 208 283 L 208 0 L 93 0 Z M 206 376 L 343 376 C 386 376 419 388 442 414 C 464 439 476 472 476 513 C 476 554 462 585 435 606 C 408 627 375 638 335 638 L 206 638 L 206 376 Z" unicode="P" />
<glyph horiz-adv-x="840" d="M 423 -8 C 346 -8 279 8 223 40 C 166 72 122 116 92 173 C 61 229 46 295 46 370 C 46 440 61 503 93 559 C 125 615 168 659 224 692 C 280 725 344 742 416 742 C 489 742 554 726 611 695 C 668 663 713 619 745 563 C 777 507 794 441 794 365 C 794 294 777 230 745 174 C 713 118 669 73 613 41 C 557 8 494 -8 423 -8 Z M 426 87 C 474 87 517 97 555 118 C 593 139 623 170 645 211 C 667 251 679 301 679 361 C 679 420 666 470 641 512 C 616 553 583 584 542 606 C 500 627 456 638 408 638 C 360 638 317 627 280 607 C 242 586 213 556 192 517 C 170 477 160 430 160 376 C 160 314 172 262 198 219 C 223 175 256 142 296 120 C 336 98 380 87 426 87 Z M 706 -202 C 640 -200 580 -186 526 -158 C 472 -130 430 -87 398 -29 C 366 28 350 104 350 198 L 471 198 C 471 116 482 54 504 12 C 526 -30 555 -58 591 -74 C 627 -90 665 -98 706 -100 L 706 -202 Z" unicode="Q" />
<glyph horiz-adv-x="629" d="M 93 0 L 93 730 L 330 730 C 371 730 408 722 441 706 C 474 690 500 668 520 639 C 539 609 549 574 549 533 C 549 471 532 423 499 389 C 466 355 429 334 389 328 L 387 324 L 609 0 L 473 0 L 277 299 L 207 299 L 207 0 L 93 0 Z M 205 393 L 302 393 C 338 393 369 403 395 424 C 420 445 433 477 433 519 C 433 557 421 586 398 607 C 374 627 345 638 309 638 L 205 638 L 205 393 Z" unicode="R" />
<glyph horiz-adv-x="612" d="M 311 -12 C 247 -12 193 -3 149 13 C 105 29 69 51 41 78 L 116 167 C 135 143 162 124 198 108 C 234 92 272 84 314 84 C 348 84 378 92 404 110 C 429 127 442 150 442 178 C 442 207 430 232 408 253 C 386 273 346 295 288 319 C 231 341 186 362 154 382 C 121 402 98 426 84 452 C 70 478 64 512 64 553 C 64 611 85 657 128 691 C 171 725 228 742 299 742 C 353 742 399 733 436 717 C 473 700 504 681 529 661 L 464 567 C 438 587 411 603 382 616 C 352 629 322 636 290 636 C 256 636 228 628 207 614 C 186 600 176 579 176 553 C 176 522 189 497 215 478 C 241 459 284 437 346 413 C 424 381 478 350 509 318 C 540 286 556 243 556 188 C 556 125 531 76 483 41 C 434 5 377 -12 311 -12 Z" unicode="S" />
<glyph horiz-adv-x="563" d="M 553 630 L 336 630 L 336 0 L 221 0 L 221 630 L 10 630 L 10 730 L 553 730 L 553 630 Z" unicode="T" />
<glyph horiz-adv-x="767" d="M 678 730 L 678 266 C 678 208 664 158 638 116 C 611 74 575 43 531 21 C 486 -1 437 -12 383 -12 C 330 -12 281 -1 237 20 C 192 41 156 72 129 114 C 102 155 89 206 89 266 L 89 730 L 201 730 L 201 270 C 201 214 218 171 254 139 C 290 107 332 92 381 92 C 431 92 474 107 511 138 C 547 168 566 212 566 270 L 566 730 L 678 730 Z" unicode="U" />
<glyph horiz-adv-x="678" d="M 678 730 L 373 -5 L 297 -5 L 0 730 L 126 730 L 337 184 L 558 730 L 678 730 Z" unicode="V" />
<glyph horiz-adv-x="940" d="M 930 730 L 706 -5 L 638 -5 L 473 522 L 297 -5 L 229 -5 L 10 730 L 129 730 L 276 222 L 441 730 L 509 730 L 676 218 L 823 730 L 930 730 Z" unicode="W" />
<glyph horiz-adv-x="639" d="M 159 730 L 627 0 L 497 0 L 28 730 L 159 730 Z M 16 0 L 485 730 L 607 730 L 138 0 L 16 0 Z" unicode="X" />
<glyph horiz-adv-x="674" d="M 675 730 L 392 304 L 392 0 L 277 0 L 277 309 L -1 730 L 128 730 L 340 410 L 554 730 L 675 730 Z" unicode="Y" />
<glyph horiz-adv-x="595" d="M 563 730 L 563 681 L 175 100 L 575 100 L 575 0 L 20 0 L 20 47 L 403 629 L 48 629 L 48 730 L 563 730 Z" unicode="Z" />
<glyph horiz-adv-x="357" d="M 320 -179 L 100 -179 L 100 730 L 320 730 L 320 648 L 202 648 L 202 -93 L 320 -93 L 320 -179 Z" unicode="[" />
<glyph horiz-adv-x="331" d="M 1 730 L 96 730 L 330 0 L 233 0 L 1 730 Z" unicode="\" />
<glyph horiz-adv-x="346" d="M 246 -179 L 37 -179 L 37 -98 L 145 -98 L 145 649 L 37 649 L 37 730 L 246 730 L 246 -179 Z" unicode="]" />
<glyph horiz-adv-x="516" d="M 447 369 L 354 369 L 255 616 L 160 369 L 69 369 L 210 730 L 301 730 L 447 369 Z" unicode="^" />
<glyph horiz-adv-x="500" d="M 500 -162 L 0 -162 L 0 -76 L 500 -76 L 500 -162 Z" unicode="_" />
<glyph horiz-adv-x="500" d="M 359 594 L 251 594 L 127 756 L 253 756 L 359 594 Z" unicode="`" />
<glyph horiz-adv-x="604" d="M 429 150 L 429 274 L 297 268 C 254 266 219 256 193 239 C 166 222 153 197 153 163 C 153 135 163 114 184 99 C 205 83 233 76 267 76 C 299 76 330 83 360 97 C 389 111 412 128 429 150 Z M 533 0 L 428 0 L 428 72 C 408 46 381 27 348 13 C 314 -1 274 -8 228 -8 C 169 -8 123 6 90 34 C 56 62 40 101 40 150 C 40 212 63 259 111 292 C 159 325 225 344 309 350 L 427 357 L 427 363 C 427 399 416 425 395 442 C 373 458 343 467 304 467 C 270 467 237 461 206 449 C 174 437 145 423 117 406 L 72 484 C 101 505 136 523 178 538 C 219 552 266 560 318 560 C 385 560 438 544 476 513 C 514 482 533 432 533 363 L 533 0 Z" unicode="a" />
<glyph horiz-adv-x="669" d="M 354 84 C 402 84 441 102 471 139 C 501 176 516 222 516 277 C 516 333 502 379 475 414 C 447 448 407 466 353 466 C 321 466 293 459 268 445 C 242 431 222 409 208 381 C 193 352 186 315 186 271 C 186 231 193 197 207 169 C 221 141 240 119 265 105 C 290 91 320 84 354 84 Z M 382 -7 C 327 -7 284 5 253 30 C 221 55 200 85 189 119 L 189 0 L 85 0 L 85 800 L 183 800 L 183 421 C 194 459 217 491 251 517 C 285 543 329 556 385 556 C 456 556 514 531 559 483 C 604 434 627 368 627 285 C 627 192 602 120 554 69 C 505 18 448 -7 382 -7 Z" unicode="b" />
<glyph horiz-adv-x="595" d="M 483 178 L 567 120 C 546 88 517 59 479 31 C 441 3 389 -11 323 -11 C 242 -11 175 14 122 65 C 68 116 42 185 42 272 C 42 327 54 376 79 419 C 103 462 137 496 180 521 C 223 545 272 558 327 558 C 394 558 447 542 486 512 C 524 481 550 447 563 411 L 470 370 C 458 394 441 415 418 434 C 395 452 363 462 323 462 C 271 462 230 443 199 407 C 168 371 153 326 153 274 C 153 217 168 171 199 137 C 230 103 272 86 326 86 C 370 86 404 96 428 116 C 452 136 470 156 483 178 Z" unicode="c" />
<glyph horiz-adv-x="670" d="M 315 80 C 367 80 407 98 437 135 C 466 172 481 219 481 277 C 481 319 473 355 458 383 C 443 411 423 432 399 446 C 374 460 347 467 319 467 C 267 467 227 449 197 414 C 167 379 153 332 153 274 C 153 236 159 203 172 174 C 185 144 204 121 228 105 C 252 88 281 80 315 80 Z M 294 -11 C 221 -11 161 14 113 64 C 65 114 42 184 42 275 C 42 329 54 377 78 420 C 102 462 133 496 173 521 C 212 545 255 558 303 558 C 342 558 378 546 412 524 C 446 502 469 476 481 447 L 481 800 L 585 800 L 585 0 L 487 0 L 487 119 C 481 101 469 82 451 62 C 433 42 411 24 384 10 C 357 -3 327 -11 294 -11 Z" unicode="d" />
<glyph horiz-adv-x="635" d="M 328 -11 C 245 -11 177 13 123 63 C 69 112 42 182 42 272 C 42 325 54 373 78 417 C 102 460 136 494 178 520 C 220 545 269 558 323 558 C 405 558 470 529 519 473 C 568 417 593 338 594 236 L 150 236 C 152 197 169 162 199 132 C 229 101 270 86 324 86 C 368 86 403 93 430 108 C 457 122 479 140 497 161 L 564 86 C 538 58 507 34 471 16 C 435 -1 387 -11 328 -11 Z M 149 317 L 482 317 C 480 360 465 396 435 424 C 405 452 366 466 319 466 C 271 466 232 451 201 421 C 170 391 153 356 149 317 Z" unicode="e" />
<glyph horiz-adv-x="377" d="M 356 454 L 220 454 L 220 0 L 112 0 L 112 454 L 12 454 L 12 546 L 112 546 L 112 631 C 112 666 119 696 134 722 C 149 748 169 768 193 782 C 217 796 244 803 272 803 C 298 803 322 800 342 794 C 362 788 379 781 393 773 L 364 685 C 354 689 343 693 329 697 C 315 700 302 702 289 702 C 268 702 251 692 239 673 C 226 654 220 632 220 607 L 220 546 L 356 546 L 356 454 Z" unicode="f" />
<glyph horiz-adv-x="665" d="M 320 96 C 346 96 372 102 397 116 C 421 130 441 150 457 178 C 473 206 481 241 481 284 C 481 320 474 351 461 377 C 447 403 429 424 405 438 C 381 452 354 460 322 460 C 271 460 230 443 200 409 C 169 375 154 329 154 271 C 154 213 168 170 198 140 C 227 110 268 96 320 96 Z M 292 7 C 219 7 159 32 113 82 C 66 132 43 198 43 278 C 43 361 66 428 113 479 C 160 530 221 556 296 556 C 342 556 383 545 417 523 C 451 501 475 472 487 438 L 487 546 L 585 546 L 585 76 C 585 12 569 -40 539 -81 C 509 -122 471 -152 426 -172 C 380 -192 335 -202 289 -202 C 229 -202 182 -196 150 -185 C 117 -174 93 -164 77 -154 L 126 -64 C 138 -73 158 -83 186 -94 C 213 -104 244 -110 280 -110 C 318 -110 352 -103 382 -89 C 412 -75 436 -54 454 -27 C 472 0 481 33 481 73 L 481 140 C 471 111 449 82 417 52 C 384 22 342 7 292 7 Z" unicode="g" />
<glyph horiz-adv-x="645" d="M 567 0 L 460 0 L 460 367 C 460 397 448 420 426 438 C 403 456 375 465 341 465 C 317 465 294 460 272 451 C 249 441 230 427 215 409 C 200 391 193 368 193 340 L 193 0 L 85 0 L 85 800 L 183 800 L 183 445 C 191 477 213 504 249 526 C 284 547 327 558 377 558 C 427 558 471 544 509 517 C 547 489 567 450 567 399 L 567 0 Z" unicode="h" />
<glyph horiz-adv-x="283" d="M 85 660 L 85 778 L 198 778 L 198 660 L 85 660 Z M 87 0 L 87 546 L 196 546 L 196 0 L 87 0 Z" unicode="i" />
<glyph horiz-adv-x="336" d="M 259 660 L 147 660 L 147 778 L 259 778 L 259 660 Z M 257 546 L 257 5 C 257 -41 249 -79 233 -110 C 217 -140 197 -163 171 -179 C 145 -194 116 -202 85 -202 C 57 -202 29 -199 1 -193 C -26 -187 -49 -178 -68 -166 L -34 -80 C -20 -87 -5 -93 13 -98 C 31 -103 51 -106 74 -106 C 95 -106 113 -94 127 -72 C 141 -50 149 -22 149 11 L 149 546 L 257 546 Z" unicode="j" />
<glyph horiz-adv-x="591" d="M 615 3 L 491 -1 L 292 245 L 193 142 L 193 0 L 85 0 L 85 800 L 193 800 L 193 257 L 452 546 L 568 546 L 365 321 L 615 3 Z" unicode="k" />
<glyph horiz-adv-x="322" d="M 78 133 L 78 800 L 186 800 L 186 167 C 186 143 192 125 204 111 C 216 97 235 90 259 90 C 267 90 277 90 287 91 C 297 92 304 94 310 96 L 312 2 C 305 0 294 -1 279 -3 C 263 -5 249 -6 236 -6 C 209 -6 183 -1 159 9 C 135 19 115 34 100 55 C 85 75 78 101 78 133 Z" unicode="l" />
<glyph horiz-adv-x="1010" d="M 85 0 L 85 546 L 181 546 L 181 436 C 193 473 218 503 256 525 C 294 547 335 558 378 558 C 420 558 457 547 491 527 C 524 506 544 476 550 438 L 555 438 C 563 474 586 503 622 525 C 658 547 698 558 740 558 C 794 558 840 544 877 516 C 913 488 932 449 932 399 L 932 0 L 824 0 L 824 367 C 824 400 812 425 789 441 C 766 457 738 465 706 465 C 684 465 662 460 640 450 C 618 440 599 426 585 408 C 570 389 563 366 563 339 L 563 0 L 455 0 L 455 372 C 455 399 443 421 421 439 C 398 456 370 465 336 465 C 312 465 289 460 267 450 C 245 440 228 425 214 405 C 200 385 193 362 193 335 L 193 0 L 85 0 Z" unicode="m" />
<glyph horiz-adv-x="645" d="M 567 0 L 459 0 L 459 370 C 459 400 447 424 424 440 C 400 456 373 465 343 465 C 320 465 297 460 274 451 C 251 441 232 427 216 409 C 200 390 193 366 193 338 L 193 0 L 85 0 L 85 546 L 178 546 L 178 431 C 190 468 214 498 250 522 C 286 546 328 558 378 558 C 428 558 472 544 510 516 C 548 488 567 450 567 404 L 567 0 Z" unicode="n" />
<glyph horiz-adv-x="657" d="M 324 -11 C 274 -11 228 0 186 22 C 143 44 108 76 82 118 C 55 160 42 211 42 271 C 42 325 55 374 81 418 C 107 461 142 495 185 520 C 228 545 275 558 326 558 C 380 558 428 546 472 524 C 516 502 550 470 576 430 C 602 389 615 341 615 286 C 615 227 601 175 575 131 C 549 87 514 52 470 27 C 426 1 377 -11 324 -11 Z M 330 85 C 382 85 424 103 456 140 C 488 177 504 224 504 281 C 504 333 487 376 454 410 C 421 444 377 461 323 461 C 289 461 259 452 234 436 C 208 420 189 397 175 368 C 161 339 154 306 154 269 C 154 230 161 197 177 170 C 193 142 214 121 240 107 C 266 92 296 85 330 85 Z" unicode="o" />
<glyph horiz-adv-x="670" d="M 85 -195 L 85 546 L 183 546 L 183 415 C 193 455 216 489 250 516 C 284 542 328 556 382 556 C 455 556 514 532 560 484 C 605 436 628 368 628 281 C 628 192 604 122 557 71 C 509 19 450 -6 380 -6 C 332 -6 292 5 259 28 C 226 51 204 80 193 114 L 193 -195 L 85 -195 Z M 355 85 C 401 85 439 103 470 139 C 501 175 517 221 517 279 C 517 331 503 376 476 412 C 449 448 409 466 357 466 C 323 466 294 459 268 445 C 242 431 222 409 208 381 C 194 352 187 316 187 273 C 187 207 203 159 235 129 C 267 99 307 85 355 85 Z" unicode="p" />
<glyph horiz-adv-x="669" d="M 476 -195 L 476 115 C 466 95 453 76 436 57 C 419 38 398 22 373 9 C 347 -3 318 -10 286 -10 C 214 -10 156 15 110 65 C 64 115 42 180 42 262 C 42 322 53 373 77 417 C 100 461 131 495 171 519 C 210 543 254 555 302 555 C 349 555 390 541 424 513 C 458 485 479 457 488 428 L 488 546 L 584 546 L 584 -195 L 476 -195 Z M 318 80 C 349 80 377 87 402 103 C 426 119 446 141 460 171 C 474 201 481 236 481 277 C 481 340 465 387 434 419 C 402 450 363 466 316 466 C 264 466 224 448 196 413 C 167 377 153 330 153 272 C 153 214 167 168 197 133 C 227 97 267 80 318 80 Z" unicode="q" />
<glyph horiz-adv-x="481" d="M 487 528 L 430 429 C 420 439 408 447 392 453 C 376 459 357 462 336 462 C 300 462 267 448 237 421 C 207 394 193 360 193 319 L 193 0 L 85 0 L 85 546 L 182 546 L 182 424 C 190 458 212 488 247 516 C 282 544 325 558 376 558 C 401 558 423 555 442 550 C 460 544 475 537 487 528 Z" unicode="r" />
<glyph horiz-adv-x="518" d="M 281 -11 C 228 -11 182 -4 142 8 C 102 21 68 38 41 59 L 88 132 C 113 116 143 102 177 91 C 211 80 244 75 276 75 C 302 75 325 82 344 96 C 362 110 372 128 372 149 C 372 167 362 183 343 198 C 324 212 288 227 234 242 C 191 254 157 268 133 284 C 108 300 90 319 80 341 C 69 362 64 385 64 411 C 64 455 83 491 121 518 C 159 544 207 558 263 558 C 318 558 362 551 395 538 C 427 524 452 511 470 499 L 431 418 C 407 432 382 445 356 456 C 330 466 302 472 272 472 C 245 472 222 466 203 455 C 183 443 174 428 174 409 C 174 389 181 374 196 362 C 210 350 246 336 302 320 C 364 301 410 279 439 253 C 467 227 482 194 482 153 C 482 119 473 89 455 65 C 437 41 412 22 382 9 C 352 -4 318 -11 281 -11 Z" unicode="s" />
<glyph horiz-adv-x="396" d="M 365 113 L 383 26 C 369 15 351 7 328 2 C 304 -3 281 -6 258 -6 C 227 -6 199 0 175 12 C 150 24 130 42 116 67 C 102 92 95 124 95 164 L 95 457 L 13 457 L 13 546 L 95 546 L 95 688 L 202 701 L 202 546 L 357 546 L 357 457 L 202 457 L 202 170 C 202 144 207 124 219 110 C 231 95 248 88 272 88 C 291 88 309 91 326 97 C 343 103 356 109 365 113 Z" unicode="t" />
<glyph horiz-adv-x="645" d="M 78 546 L 186 546 L 186 203 C 186 158 198 126 223 107 C 247 88 279 79 317 79 C 354 79 386 90 412 114 C 438 137 452 168 452 207 L 452 546 L 560 546 L 560 0 L 462 0 L 462 107 C 452 76 431 48 399 24 C 367 0 325 -12 274 -12 C 220 -12 174 2 136 31 C 97 59 78 103 78 162 L 78 546 Z" unicode="u" />
<glyph horiz-adv-x="555" d="M 562 546 L 310 -3 L 241 -3 L -7 546 L 113 546 L 280 164 L 449 546 L 562 546 Z" unicode="v" />
<glyph horiz-adv-x="784" d="M 527 -3 L 400 326 L 257 -3 L 193 -3 L 2 546 L 115 546 L 241 163 L 371 485 L 439 485 L 556 167 L 679 546 L 782 546 L 591 -3 L 527 -3 Z" unicode="w" />
<glyph horiz-adv-x="502" d="M 127 546 L 503 0 L 389 0 L 12 546 L 127 546 Z M -1 0 L 383 546 L 489 546 L 105 0 L -1 0 Z" unicode="x" />
<glyph horiz-adv-x="562" d="M 567 546 L 278 -73 C 255 -121 226 -155 191 -173 C 156 -191 122 -200 90 -200 C 72 -200 57 -198 45 -194 C 33 -190 24 -187 19 -185 L 54 -90 C 57 -92 63 -94 71 -96 C 79 -98 88 -100 98 -100 C 115 -100 131 -94 146 -83 C 160 -71 175 -52 189 -25 L 223 41 L -5 546 L 111 546 L 281 161 L 455 546 L 567 546 Z" unicode="y" />
<glyph horiz-adv-x="493" d="M 460 546 L 460 497 L 176 95 L 483 95 L 483 0 L 19 0 L 19 48 L 304 451 L 31 451 L 31 546 L 460 546 Z" unicode="z" />
<glyph horiz-adv-x="274" d="M 274 -179 C 204 -179 147 -164 104 -134 C 60 -104 39 -68 39 -25 C 39 1 41 25 47 47 C 53 69 59 87 67 103 C 74 119 81 135 88 149 C 95 163 99 176 99 189 C 99 202 90 215 72 227 C 54 239 30 246 0 246 L 0 325 C 30 325 55 331 74 345 C 92 358 102 373 102 390 C 102 392 98 402 91 418 C 83 434 75 451 67 470 C 58 488 51 507 47 526 C 42 544 40 562 40 579 C 40 621 61 660 104 696 C 146 731 203 749 274 749 L 274 672 C 236 672 205 662 183 642 C 160 622 149 598 149 572 C 149 563 150 552 152 539 C 154 525 159 512 166 498 C 176 476 186 457 194 440 C 202 423 207 409 207 398 C 207 372 198 349 182 329 C 165 308 138 293 100 285 C 138 276 166 261 182 240 C 198 219 207 198 207 177 C 207 157 203 141 195 127 C 187 113 180 100 172 86 C 164 72 158 57 154 41 C 150 25 148 11 148 -2 C 148 -23 158 -45 180 -68 C 201 -90 232 -102 274 -102 L 274 -179 Z" unicode="{" />
<glyph horiz-adv-x="262" d="M 181 -179 L 81 -179 L 81 730 L 181 730 L 181 -179 Z" unicode="|" />
<glyph horiz-adv-x="274" d="M 0 -179 L 0 -102 C 41 -102 72 -90 94 -68 C 115 -45 126 -23 126 -2 C 126 11 124 25 120 41 C 116 57 110 72 102 86 C 94 100 86 113 78 127 C 70 141 67 157 67 177 C 67 198 75 219 91 240 C 107 261 135 276 174 285 C 136 293 108 308 92 329 C 75 349 67 372 67 398 C 67 409 71 423 79 440 C 87 457 97 476 108 498 C 114 512 119 525 121 539 C 123 552 125 563 125 572 C 125 598 113 622 91 642 C 68 662 38 672 0 672 L 0 749 C 70 749 127 731 170 696 C 212 660 234 621 234 579 C 234 562 231 544 227 526 C 222 507 215 488 207 470 C 198 451 190 434 183 418 C 175 402 172 392 172 390 C 172 373 181 358 200 345 C 218 331 243 325 274 325 L 274 246 C 243 246 219 239 201 227 C 183 215 175 202 175 189 C 175 176 178 163 185 149 C 192 135 199 119 207 103 C 214 87 220 69 226 47 C 232 25 235 1 235 -25 C 235 -68 213 -104 170 -134 C 126 -164 70 -179 0 -179 Z" unicode="}" />
<glyph horiz-adv-x="500" d="M 379 443 L 471 443 C 471 381 461 335 443 306 C 424 276 396 262 358 262 C 334 262 313 266 296 275 C 278 283 263 292 251 302 C 237 311 224 319 211 327 C 197 335 183 339 169 339 C 155 339 144 332 135 319 C 125 306 121 288 121 265 L 30 265 C 30 328 39 374 59 404 C 78 433 102 448 130 448 C 157 448 181 444 201 436 C 221 428 241 417 259 405 C 271 396 284 388 297 380 C 310 372 325 368 342 368 C 359 368 369 374 373 387 C 377 399 379 418 379 443 Z" unicode="~" />
<glyph horiz-adv-x="313" d="M 93 173 L 130 390 L 186 390 L 220 173 L 220 -122 L 93 -122 L 93 173 Z M 98 608 L 215 608 L 215 492 L 98 492 L 98 608 Z" unicode="¡" />
<glyph horiz-adv-x="588" d="M 353 144 L 353 -13 L 271 -13 L 271 144 L 353 144 Z M 483 279 L 562 224 C 541 193 512 164 475 137 C 438 110 387 97 322 97 C 243 97 177 121 125 171 C 73 221 47 287 47 370 C 47 424 59 473 83 515 C 107 557 141 590 183 614 C 225 638 272 650 326 650 C 388 650 439 635 479 607 C 518 578 545 545 561 509 L 473 470 C 459 494 439 515 415 533 C 390 551 359 560 322 560 C 271 560 230 542 199 506 C 167 470 152 426 152 374 C 152 318 167 273 199 239 C 230 205 272 188 326 188 C 369 188 403 198 427 218 C 451 238 470 258 483 279 Z M 353 751 L 353 596 L 271 596 L 271 751 L 353 751 Z" unicode="¢" />
<glyph horiz-adv-x="612" d="M 516 368 L 49 368 L 49 443 L 516 443 L 516 368 Z M 516 206 L 49 206 L 49 281 L 516 281 L 516 206 Z M 325 222 C 325 192 318 167 306 148 C 294 128 279 113 262 103 C 244 93 228 86 213 82 L 597 82 L 597 0 L 33 0 L 33 64 C 39 67 48 70 60 73 C 72 75 87 79 107 83 C 126 86 145 92 164 102 C 182 111 198 124 210 140 C 222 156 229 175 229 198 C 229 223 217 252 193 285 C 169 318 145 356 121 398 C 97 440 85 489 85 545 C 85 594 97 633 121 662 C 145 690 176 711 215 723 C 253 735 295 742 340 742 C 396 742 447 733 494 715 C 540 697 574 679 595 663 L 542 585 C 523 597 496 610 460 624 C 424 638 386 646 344 646 C 306 646 273 637 243 619 C 213 601 199 570 199 525 C 199 488 209 452 230 417 C 251 382 272 348 293 316 C 314 283 325 252 325 222 Z" unicode="£" />
<glyph horiz-adv-x="501" d="M 249 526 C 298 526 340 509 375 475 C 409 441 427 401 427 354 C 427 306 409 266 375 232 C 340 198 298 182 249 182 C 200 182 158 198 123 232 C 88 266 71 306 71 354 C 71 401 88 441 123 475 C 158 509 200 526 249 526 Z M 249 260 C 276 260 299 269 319 288 C 339 306 349 328 349 354 C 349 379 339 401 319 420 C 299 438 276 448 249 448 C 221 448 198 438 179 420 C 159 401 150 379 150 354 C 150 328 159 306 179 288 C 198 269 221 260 249 260 Z M 103 560 L 176 484 L 128 436 L 55 512 L 103 560 Z M 398 561 L 446 511 L 373 435 L 325 485 L 398 561 Z M 394 148 L 321 224 L 369 272 L 442 196 L 394 148 Z M 105 148 L 55 198 L 128 274 L 178 224 L 105 148 Z" unicode="¤" />
<glyph horiz-adv-x="670" d="M 86 248 L 86 323 L 577 323 L 577 248 L 86 248 Z M 87 115 L 87 190 L 578 190 L 578 115 L 87 115 Z M 275 0 L 275 319 L 27 730 L 155 730 L 338 414 L 522 730 L 643 730 L 390 314 L 390 0 L 275 0 Z" unicode="¥" />
<glyph horiz-adv-x="284" d="M 96 351 L 96 730 L 188 730 L 188 351 L 96 351 Z M 188 200 L 188 -179 L 96 -179 L 96 200 L 188 200 Z" unicode="¦" />
<glyph horiz-adv-x="675" d="M 356 -181 C 297 -181 242 -174 192 -161 C 141 -147 98 -129 64 -107 L 110 -19 C 142 -39 181 -57 226 -71 C 270 -85 312 -93 351 -93 C 385 -93 414 -85 436 -70 C 458 -54 469 -33 469 -5 C 469 20 459 39 439 53 C 419 67 393 80 361 93 L 245 140 C 181 166 133 190 100 212 C 66 234 50 271 50 322 C 50 352 57 378 73 398 C 89 418 108 436 131 450 C 93 474 75 514 75 572 C 75 626 98 667 146 697 C 194 727 254 742 327 742 C 391 742 443 733 483 717 C 523 700 557 682 585 664 L 538 583 C 507 602 475 619 441 635 C 407 650 368 658 324 658 C 285 658 253 650 227 635 C 201 619 188 598 188 572 C 188 553 195 537 210 524 C 224 511 247 499 277 489 L 432 430 C 495 408 543 384 576 360 C 608 335 625 299 625 251 C 625 214 613 185 589 163 C 565 141 538 127 507 119 C 523 110 539 95 557 75 C 575 54 584 27 584 -6 C 584 -61 562 -104 518 -135 C 474 -165 420 -181 356 -181 Z M 430 174 C 451 176 470 182 488 192 C 505 202 514 219 514 242 C 514 263 503 281 483 297 C 462 313 424 330 370 349 L 225 405 C 205 397 190 388 178 377 C 166 366 160 351 160 331 C 160 307 170 287 192 271 C 213 255 251 239 306 222 L 430 174 Z" unicode="§" />
<glyph horiz-adv-x="500" d="M 390 595 L 300 595 L 300 754 L 390 754 L 390 595 Z M 200 595 L 110 595 L 110 754 L 200 754 L 200 595 Z" unicode="¨" />
<glyph horiz-adv-x="854" d="M 427 -12 C 357 -12 294 5 237 39 C 180 73 135 118 101 175 C 67 232 50 295 50 365 C 50 434 67 497 101 554 C 135 611 180 657 237 691 C 294 725 357 742 427 742 C 496 742 559 725 616 691 C 673 657 719 611 753 554 C 787 497 804 434 804 365 C 804 295 787 232 753 175 C 719 118 673 73 616 39 C 559 5 496 -12 427 -12 Z M 428 56 C 484 56 536 69 582 97 C 628 125 665 162 693 209 C 720 255 734 307 734 364 C 734 420 720 472 693 519 C 665 566 628 604 582 632 C 536 660 484 674 428 674 C 371 674 319 660 273 632 C 226 604 189 566 161 519 C 133 472 120 420 120 364 C 120 307 133 255 161 209 C 189 162 226 125 273 97 C 319 69 371 56 428 56 Z M 427 149 C 469 149 505 157 533 174 C 561 191 584 212 600 237 L 526 286 C 515 270 501 257 485 247 C 469 237 450 232 428 232 C 400 232 376 243 354 266 C 332 288 321 320 321 362 C 321 402 330 435 350 461 C 370 487 395 500 426 500 C 450 500 469 495 484 486 C 498 476 510 465 520 452 L 596 507 C 580 531 559 550 531 566 C 503 581 467 589 423 589 C 367 589 320 569 282 529 C 244 489 225 434 225 365 C 225 294 245 240 286 204 C 327 167 374 149 427 149 Z" unicode="©" />
<glyph horiz-adv-x="526" d="M 481 118 L 47 118 L 47 210 L 481 210 L 481 118 Z M 375 407 L 375 499 L 261 493 C 225 491 195 485 173 475 C 150 465 139 446 139 419 C 139 397 148 380 166 368 C 184 356 208 350 238 350 C 264 350 290 355 315 365 C 340 375 360 389 375 407 Z M 466 269 L 377 269 L 377 330 C 360 308 336 291 305 279 C 274 267 240 262 204 262 C 152 262 112 275 83 301 C 54 327 40 362 40 408 C 40 458 60 496 100 523 C 140 550 197 566 269 570 L 378 576 L 378 581 C 378 601 368 618 350 632 C 331 645 304 652 269 652 C 239 652 210 647 182 637 C 154 627 128 614 104 600 L 69 679 C 93 697 123 712 159 724 C 195 736 235 743 281 743 C 338 743 383 730 416 704 C 449 678 466 636 466 578 L 466 269 Z" unicode="ª" />
<glyph horiz-adv-x="471" d="M 215 92 L 27 277 L 27 342 L 215 524 L 215 412 L 119 310 L 215 209 L 215 92 Z M 440 92 L 251 277 L 251 342 L 440 524 L 440 412 L 344 310 L 440 209 L 440 92 Z" unicode="«" />
<glyph horiz-adv-x="500" d="M 452 395 L 452 130 L 362 130 L 362 302 L 30 302 L 30 395 L 452 395 Z" unicode="¬" />
<glyph horiz-adv-x="854" d="M 427 -12 C 357 -12 294 5 237 39 C 180 73 135 118 101 175 C 67 232 50 295 50 365 C 50 434 67 497 101 554 C 135 611 180 657 237 691 C 294 725 357 742 427 742 C 496 742 559 725 616 691 C 673 657 719 611 753 554 C 787 497 804 434 804 365 C 804 295 787 232 753 175 C 719 118 673 73 616 39 C 559 5 496 -12 427 -12 Z M 427 56 C 483 56 535 69 581 97 C 627 125 664 162 692 209 C 720 256 734 308 734 365 C 734 421 720 473 692 520 C 664 566 627 604 581 632 C 535 660 483 674 427 674 C 370 674 318 660 272 632 C 226 604 189 566 161 520 C 133 473 120 421 120 365 C 120 308 133 256 161 209 C 189 162 226 125 272 97 C 318 69 370 56 427 56 Z M 279 157 L 279 591 L 449 591 C 485 591 517 581 546 562 C 575 543 590 512 590 470 C 590 431 581 401 563 381 C 545 361 524 349 501 346 L 500 342 L 635 157 L 536 157 L 420 329 L 365 329 L 365 157 L 279 157 Z M 364 402 L 453 402 C 471 402 485 407 495 419 C 505 430 510 445 510 463 C 510 481 503 494 491 504 C 478 514 462 519 444 519 L 364 519 L 364 402 Z" unicode="®" />
<glyph horiz-adv-x="500" d="M 385 602 L 115 602 L 115 694 L 385 694 L 385 602 Z" unicode="¯" />
<glyph horiz-adv-x="436" d="M 218 366 C 166 366 121 384 85 421 C 48 457 30 502 30 554 C 30 606 48 650 85 687 C 121 723 166 742 218 742 C 270 742 314 723 351 687 C 387 650 406 606 406 554 C 406 502 387 457 351 421 C 314 384 270 366 218 366 Z M 218 454 C 245 454 269 464 289 484 C 309 504 320 527 320 554 C 320 581 309 605 289 625 C 269 645 245 655 218 655 C 190 655 166 645 146 625 C 126 605 116 581 116 554 C 116 527 126 504 146 484 C 166 464 190 454 218 454 Z" unicode="°" />
<glyph horiz-adv-x="500" d="M 476 290 L 296 290 L 296 110 L 205 110 L 205 290 L 24 290 L 24 372 L 205 372 L 205 552 L 296 552 L 296 372 L 476 372 L 476 290 Z M 472 22 L 30 22 L 30 104 L 472 104 L 472 22 Z" unicode="±" />
<glyph horiz-adv-x="320" d="M 301 372 L 18 372 L 18 406 L 171 565 C 176 571 181 578 187 586 C 192 594 195 604 195 617 C 195 629 191 639 183 649 C 175 658 163 663 147 663 C 127 663 114 657 107 645 C 99 633 95 619 95 604 L 13 604 C 13 642 25 674 51 701 C 76 727 111 741 157 741 C 201 741 234 730 256 710 C 278 690 289 665 289 637 C 289 609 284 587 275 570 C 266 553 256 539 246 528 L 168 448 L 301 448 L 301 372 Z" unicode="²" />
<glyph horiz-adv-x="346" d="M 228 569 C 254 564 275 553 291 537 C 307 520 315 500 315 477 C 315 453 304 428 283 402 C 261 376 221 364 161 364 C 118 364 85 369 62 379 C 39 389 21 399 8 409 L 59 461 C 69 454 82 448 98 443 C 114 437 133 435 155 435 C 183 435 203 440 215 451 C 226 461 232 475 232 491 C 232 507 224 518 210 523 C 196 527 178 530 158 530 L 85 530 L 85 596 L 151 596 C 170 596 185 599 197 605 C 208 611 214 620 214 633 C 214 644 209 653 199 659 C 189 665 174 668 155 668 C 138 668 122 664 106 658 C 90 652 77 644 69 636 L 19 686 C 32 699 50 712 72 724 C 94 736 126 742 168 742 C 208 742 240 733 264 717 C 288 700 300 678 300 651 C 300 629 292 611 278 597 C 263 583 246 573 228 569 Z" unicode="³" />
<glyph horiz-adv-x="500" d="M 143 604 L 247 766 L 374 766 L 250 604 L 143 604 Z" unicode="´" />
<glyph horiz-adv-x="627" d="M 78 -202 L 78 546 L 183 546 L 183 177 C 183 149 194 126 218 106 C 242 86 271 77 306 77 C 327 77 348 82 368 94 C 388 106 405 122 419 143 C 433 163 440 188 440 217 L 440 546 L 545 546 L 545 0 L 448 0 L 448 93 C 436 66 414 43 381 25 C 348 6 315 -4 281 -6 C 259 -6 238 -1 218 7 C 198 15 183 28 175 44 L 175 -202 L 78 -202 Z" unicode="µ" />
<glyph horiz-adv-x="701" d="M 626 -179 L 554 -179 L 554 646 L 449 646 L 449 -179 L 377 -179 L 377 247 L 268 247 C 226 247 187 258 151 280 C 115 302 85 331 63 367 C 40 403 29 442 29 485 C 29 554 52 612 100 659 C 148 706 210 730 288 730 L 626 730 L 626 -179 Z M 378 335 L 378 642 L 325 642 C 285 642 252 627 226 598 C 200 569 188 532 188 488 C 188 446 200 410 226 380 C 251 350 281 335 317 335 L 378 335 Z" unicode="¶" />
<glyph horiz-adv-x="265" d="M 186 278 L 79 278 L 79 421 L 186 421 L 186 278 Z" unicode="·" />
<glyph horiz-adv-x="500" d="M 257 -190 C 232 -190 207 -187 181 -181 C 155 -175 135 -167 121 -158 L 137 -111 C 146 -115 158 -120 173 -125 C 187 -130 204 -133 222 -133 C 235 -133 247 -130 257 -124 C 267 -118 273 -110 273 -100 C 273 -88 268 -80 259 -76 C 250 -71 240 -69 230 -69 C 218 -69 205 -71 193 -75 L 180 -61 L 241 14 L 305 14 L 255 -48 C 289 -41 318 -44 341 -57 C 363 -70 375 -89 375 -114 C 375 -139 363 -158 339 -171 C 315 -183 288 -190 257 -190 Z" unicode="¸" />
<glyph horiz-adv-x="328" d="M 134 372 L 134 626 C 126 615 113 606 94 598 C 74 590 58 586 46 584 L 46 678 C 71 680 93 687 111 697 C 129 707 148 721 168 740 L 232 740 L 232 372 L 134 372 Z" unicode="¹" />
<glyph horiz-adv-x="546" d="M 55 118 L 55 210 L 489 210 L 489 118 L 55 118 Z M 269 258 C 208 258 154 278 107 320 C 59 362 36 421 36 497 C 36 541 46 582 68 619 C 90 655 118 684 154 706 C 190 728 229 739 271 739 C 338 739 395 718 441 676 C 487 634 510 578 510 508 C 510 434 486 374 439 328 C 391 281 335 258 269 258 Z M 269 350 C 311 350 346 364 372 393 C 398 422 412 460 412 507 C 412 550 399 585 375 612 C 350 639 316 653 272 653 C 230 653 197 638 172 609 C 146 580 134 542 134 495 C 134 450 146 415 172 389 C 197 363 229 350 269 350 Z" unicode="º" />
<glyph horiz-adv-x="476" d="M 31 524 L 221 340 L 221 274 L 31 92 L 31 205 L 127 307 L 31 407 L 31 524 Z M 260 524 L 449 340 L 449 274 L 260 92 L 260 205 L 357 307 L 260 408 L 260 524 Z" unicode="»" />
<glyph horiz-adv-x="680" d="M 88 372 L 88 626 C 80 615 67 606 48 598 C 28 590 12 586 0 584 L 0 678 C 25 680 47 687 65 697 C 83 707 102 721 122 740 L 186 740 L 186 372 L 88 372 Z M 569 730 L 211 0 L 119 0 L 477 730 L 569 730 Z M 378 80 L 378 144 L 561 365 L 621 365 L 621 148 L 680 148 L 680 80 L 621 80 L 621 1 L 534 1 L 534 80 L 378 80 Z M 448 135 L 536 135 L 536 243 L 448 135 Z" unicode="¼" />
<glyph horiz-adv-x="734" d="M 88 372 L 88 626 C 80 615 67 606 48 598 C 28 590 12 586 0 584 L 0 678 C 25 680 47 687 65 697 C 83 707 102 721 122 740 L 186 740 L 186 372 L 88 372 Z M 569 730 L 211 0 L 119 0 L 477 730 L 569 730 Z M 725 0 L 442 0 L 442 34 L 595 193 C 600 199 605 206 611 214 C 616 222 619 232 619 245 C 619 257 615 267 607 277 C 599 286 587 291 571 291 C 551 291 538 285 531 273 C 523 261 519 247 519 232 L 437 232 C 437 270 449 302 475 329 C 500 355 535 369 581 369 C 625 369 658 358 680 338 C 702 318 713 293 713 265 C 713 237 708 215 699 198 C 690 181 680 167 670 156 L 592 76 L 725 76 L 725 0 Z" unicode="½" />
<glyph horiz-adv-x="738" d="M 627 730 L 269 0 L 177 0 L 535 730 L 627 730 Z M 436 80 L 436 144 L 619 365 L 679 365 L 679 148 L 738 148 L 738 80 L 679 80 L 679 1 L 592 1 L 592 80 L 436 80 Z M 506 135 L 594 135 L 594 243 L 506 135 Z M 220 569 C 246 564 267 553 283 537 C 299 520 307 500 307 477 C 307 453 296 428 275 402 C 253 376 213 364 153 364 C 110 364 77 369 54 379 C 31 389 13 399 0 409 L 51 461 C 61 454 74 448 90 443 C 106 437 125 435 147 435 C 175 435 195 440 207 451 C 218 461 224 475 224 491 C 224 507 216 518 202 523 C 188 527 170 530 150 530 L 77 530 L 77 596 L 143 596 C 162 596 177 599 189 605 C 200 611 206 620 206 633 C 206 644 201 653 191 659 C 181 665 166 668 147 668 C 130 668 114 664 98 658 C 82 652 69 644 61 636 L 11 686 C 24 699 42 712 64 724 C 86 736 118 742 160 742 C 200 742 232 733 256 717 C 280 700 292 678 292 651 C 292 629 284 611 270 597 C 255 583 238 573 220 569 Z" unicode="¾" />
<glyph horiz-adv-x="483" d="M 247 -134 C 183 -134 130 -118 86 -86 C 42 -54 21 -9 21 47 C 21 99 35 140 64 170 C 92 200 119 223 145 241 C 173 261 192 286 200 314 C 208 342 212 370 213 400 L 320 400 C 320 350 314 312 304 284 C 294 256 272 229 239 204 C 221 190 204 177 188 164 C 172 151 159 136 149 120 C 139 104 134 84 134 62 C 134 31 146 7 170 -10 C 194 -28 223 -37 258 -37 C 289 -37 317 -29 343 -15 C 369 -1 389 15 405 35 L 476 -35 C 455 -60 425 -83 387 -103 C 349 -123 302 -134 247 -134 Z M 204 477 L 204 608 L 324 608 L 324 477 L 204 477 Z" unicode="¿" />
<glyph horiz-adv-x="662" d="M 443 263 L 325 564 L 207 263 L 443 263 Z M 662 0 L 540 0 L 469 175 L 180 175 L 114 0 L 0 0 L 296 733 L 372 733 L 662 0 Z M 441 778 L 333 778 L 209 940 L 335 940 L 441 778 Z" unicode="À" />
<glyph horiz-adv-x="662" d="M 443 263 L 325 564 L 207 263 L 443 263 Z M 662 0 L 540 0 L 469 175 L 180 175 L 114 0 L 0 0 L 296 733 L 372 733 L 662 0 Z M 210 788 L 314 950 L 441 950 L 317 788 L 210 788 Z" unicode="Á" />
<glyph horiz-adv-x="662" d="M 443 263 L 325 564 L 207 263 L 443 263 Z M 662 0 L 540 0 L 469 175 L 180 175 L 114 0 L 0 0 L 296 733 L 372 733 L 662 0 Z M 503 779 L 404 779 L 325 887 L 245 779 L 148 779 L 271 951 L 380 951 L 503 779 Z" unicode="Â" />
<glyph horiz-adv-x="662" d="M 443 263 L 325 564 L 207 263 L 443 263 Z M 662 0 L 540 0 L 469 175 L 180 175 L 114 0 L 0 0 L 296 733 L 372 733 L 662 0 Z M 420 926 L 506 926 C 506 877 498 841 483 818 C 467 795 446 784 419 784 C 401 784 384 787 370 795 C 356 802 342 810 330 819 C 318 827 307 835 297 843 C 286 851 275 855 265 855 C 254 855 245 849 239 838 C 232 827 228 810 228 788 L 144 788 C 144 836 154 871 174 895 C 194 918 216 930 240 930 C 258 930 273 926 287 918 C 300 910 313 902 325 893 C 335 884 345 876 355 870 C 364 864 373 861 383 861 C 393 861 401 866 408 877 C 415 888 419 904 420 926 Z" unicode="Ã" />
<glyph horiz-adv-x="662" d="M 443 263 L 325 564 L 207 263 L 443 263 Z M 662 0 L 540 0 L 469 175 L 180 175 L 114 0 L 0 0 L 296 733 L 372 733 L 662 0 Z M 465 779 L 375 779 L 375 938 L 465 938 L 465 779 Z M 275 779 L 185 779 L 185 938 L 275 938 L 275 779 Z" unicode="Ä" />
<glyph horiz-adv-x="662" d="M 443 263 L 325 564 L 207 263 L 443 263 Z M 662 0 L 540 0 L 469 175 L 180 175 L 114 0 L 0 0 L 296 733 L 372 733 L 662 0 Z M 325 779 C 289 779 259 791 235 816 C 211 840 199 870 199 906 C 199 940 211 970 235 994 C 259 1018 289 1031 325 1031 C 360 1031 390 1018 414 994 C 438 970 451 940 451 906 C 451 870 438 840 414 816 C 390 791 360 779 325 779 Z M 325 848 C 341 848 354 853 365 864 C 375 875 381 889 381 906 C 381 921 375 934 365 946 C 354 957 341 963 325 963 C 309 963 296 957 285 946 C 273 934 268 921 268 906 C 268 889 273 875 285 864 C 296 853 309 848 325 848 Z" unicode="Å" />
<glyph horiz-adv-x="983" d="M 933 0 L 491 0 L 491 239 L 248 239 L 98 0 L -25 0 L 436 730 L 914 730 L 914 630 L 599 630 L 599 413 L 898 413 L 898 317 L 599 317 L 599 100 L 933 100 L 933 0 Z M 491 335 L 491 650 L 301 335 L 491 335 Z" unicode="Æ" />
<glyph horiz-adv-x="746" d="M 407 -12 C 341 -12 281 3 227 34 C 172 64 128 108 95 164 C 62 220 46 287 46 365 C 46 439 61 505 93 562 C 124 618 167 662 222 694 C 276 726 338 742 408 742 C 474 742 531 732 579 712 C 627 692 668 660 701 618 L 614 546 C 591 572 564 594 532 611 C 500 627 459 636 410 636 C 358 636 313 625 276 603 C 239 581 211 551 191 511 C 171 471 162 424 162 370 C 162 308 174 257 199 216 C 223 174 255 143 295 123 C 334 102 376 92 420 92 C 469 92 511 101 546 121 C 580 140 609 166 632 199 L 717 138 C 689 96 649 61 597 32 C 545 2 481 -12 407 -12 Z M 416 -200 C 391 -200 366 -197 340 -191 C 314 -185 294 -177 280 -168 L 296 -121 C 305 -125 317 -130 332 -135 C 346 -140 363 -143 381 -143 C 394 -143 406 -140 416 -134 C 426 -128 432 -120 432 -110 C 432 -98 427 -90 418 -86 C 409 -81 399 -79 389 -79 C 377 -79 364 -81 352 -85 L 339 -71 L 400 4 L 464 4 L 414 -58 C 448 -51 477 -54 500 -67 C 522 -80 534 -99 534 -124 C 534 -149 522 -168 498 -181 C 474 -193 447 -200 416 -200 Z" unicode="Ç" />
<glyph horiz-adv-x="595" d="M 540 0 L 93 0 L 93 730 L 521 730 L 521 630 L 206 630 L 206 414 L 504 414 L 504 316 L 206 316 L 206 100 L 540 100 L 540 0 Z M 432 778 L 324 778 L 200 940 L 326 940 L 432 778 Z" unicode="È" />
<glyph horiz-adv-x="595" d="M 540 0 L 93 0 L 93 730 L 521 730 L 521 630 L 206 630 L 206 414 L 504 414 L 504 316 L 206 316 L 206 100 L 540 100 L 540 0 Z M 201 788 L 305 950 L 432 950 L 308 788 L 201 788 Z" unicode="É" />
<glyph horiz-adv-x="595" d="M 540 0 L 93 0 L 93 730 L 521 730 L 521 630 L 206 630 L 206 414 L 504 414 L 504 316 L 206 316 L 206 100 L 540 100 L 540 0 Z M 494 779 L 395 779 L 316 887 L 236 779 L 139 779 L 262 951 L 371 951 L 494 779 Z" unicode="Ê" />
<glyph horiz-adv-x="595" d="M 540 0 L 93 0 L 93 730 L 521 730 L 521 630 L 206 630 L 206 414 L 504 414 L 504 316 L 206 316 L 206 100 L 540 100 L 540 0 Z M 456 779 L 366 779 L 366 938 L 456 938 L 456 779 Z M 266 779 L 176 779 L 176 938 L 266 938 L 266 779 Z" unicode="Ë" />
<glyph horiz-adv-x="309" d="M 212 0 L 97 0 L 97 730 L 212 730 L 212 0 Z M 270 778 L 162 778 L 38 940 L 164 940 L 270 778 Z" unicode="Ì" />
<glyph horiz-adv-x="309" d="M 212 0 L 97 0 L 97 730 L 212 730 L 212 0 Z M 39 788 L 143 950 L 270 950 L 146 788 L 39 788 Z" unicode="Í" />
<glyph horiz-adv-x="309" d="M 212 0 L 97 0 L 97 730 L 212 730 L 212 0 Z M 332 779 L 233 779 L 154 887 L 74 779 L -23 779 L 100 951 L 209 951 L 332 779 Z" unicode="Î" />
<glyph horiz-adv-x="309" d="M 212 0 L 97 0 L 97 730 L 212 730 L 212 0 Z M 294 779 L 204 779 L 204 938 L 294 938 L 294 779 Z M 104 779 L 14 779 L 14 938 L 104 938 L 104 779 Z" unicode="Ï" />
<glyph horiz-adv-x="753" d="M 93 0 L 93 730 L 323 730 C 445 730 539 697 606 631 C 673 565 707 477 707 367 C 707 265 673 179 605 107 C 537 35 438 0 307 0 L 93 0 Z M 203 87 L 300 87 C 370 87 426 100 468 127 C 510 153 541 188 560 230 C 579 272 589 317 589 365 C 589 451 565 518 518 568 C 471 618 405 643 321 643 L 203 643 L 203 87 Z M 35 316 L 35 398 L 374 398 L 374 316 L 35 316 Z" unicode="Ð" />
<glyph horiz-adv-x="791" d="M 698 0 L 616 0 L 200 531 L 200 0 L 93 0 L 93 730 L 181 730 L 593 205 L 593 730 L 698 730 L 698 0 Z M 490 926 L 576 926 C 576 877 568 841 553 818 C 537 795 516 784 489 784 C 471 784 454 787 440 795 C 426 802 412 810 400 819 C 388 827 377 835 367 843 C 356 851 345 855 335 855 C 324 855 315 849 309 838 C 302 827 298 810 298 788 L 214 788 C 214 836 224 871 244 895 C 264 918 286 930 310 930 C 328 930 343 926 357 918 C 370 910 383 902 395 893 C 405 884 415 876 425 870 C 434 864 443 861 453 861 C 463 861 471 866 478 877 C 485 888 489 904 490 926 Z" unicode="Ñ" />
<glyph horiz-adv-x="840" d="M 431 87 C 478 87 520 97 558 119 C 595 141 625 172 647 213 C 669 254 680 304 680 363 C 680 417 668 464 644 506 C 620 547 588 579 547 603 C 506 626 460 638 408 638 C 360 638 318 627 281 606 C 243 585 214 555 192 515 C 170 475 160 428 160 373 C 160 314 172 263 197 221 C 221 178 254 145 295 122 C 336 98 381 87 431 87 Z M 423 -12 C 349 -12 283 4 227 38 C 170 72 126 117 94 175 C 62 233 46 298 46 370 C 46 442 62 506 95 562 C 128 618 172 662 228 694 C 284 726 346 742 415 742 C 489 742 554 726 611 694 C 668 662 713 617 745 561 C 777 505 794 440 794 368 C 794 292 777 226 743 169 C 709 112 664 68 608 36 C 552 4 490 -12 423 -12 Z M 530 778 L 422 778 L 298 940 L 424 940 L 530 778 Z" unicode="Ò" />
<glyph horiz-adv-x="840" d="M 431 87 C 478 87 520 97 558 119 C 595 141 625 172 647 213 C 669 254 680 304 680 363 C 680 417 668 464 644 506 C 620 547 588 579 547 603 C 506 626 460 638 408 638 C 360 638 318 627 281 606 C 243 585 214 555 192 515 C 170 475 160 428 160 373 C 160 314 172 263 197 221 C 221 178 254 145 295 122 C 336 98 381 87 431 87 Z M 423 -12 C 349 -12 283 4 227 38 C 170 72 126 117 94 175 C 62 233 46 298 46 370 C 46 442 62 506 95 562 C 128 618 172 662 228 694 C 284 726 346 742 415 742 C 489 742 554 726 611 694 C 668 662 713 617 745 561 C 777 505 794 440 794 368 C 794 292 777 226 743 169 C 709 112 664 68 608 36 C 552 4 490 -12 423 -12 Z M 299 788 L 403 950 L 530 950 L 406 788 L 299 788 Z" unicode="Ó" />
<glyph horiz-adv-x="840" d="M 431 87 C 478 87 520 97 558 119 C 595 141 625 172 647 213 C 669 254 680 304 680 363 C 680 417 668 464 644 506 C 620 547 588 579 547 603 C 506 626 460 638 408 638 C 360 638 318 627 281 606 C 243 585 214 555 192 515 C 170 475 160 428 160 373 C 160 314 172 263 197 221 C 221 178 254 145 295 122 C 336 98 381 87 431 87 Z M 423 -12 C 349 -12 283 4 227 38 C 170 72 126 117 94 175 C 62 233 46 298 46 370 C 46 442 62 506 95 562 C 128 618 172 662 228 694 C 284 726 346 742 415 742 C 489 742 554 726 611 694 C 668 662 713 617 745 561 C 777 505 794 440 794 368 C 794 292 777 226 743 169 C 709 112 664 68 608 36 C 552 4 490 -12 423 -12 Z M 592 779 L 493 779 L 414 887 L 334 779 L 237 779 L 360 951 L 469 951 L 592 779 Z" unicode="Ô" />
<glyph horiz-adv-x="840" d="M 431 87 C 478 87 520 97 558 119 C 595 141 625 172 647 213 C 669 254 680 304 680 363 C 680 417 668 464 644 506 C 620 547 588 579 547 603 C 506 626 460 638 408 638 C 360 638 318 627 281 606 C 243 585 214 555 192 515 C 170 475 160 428 160 373 C 160 314 172 263 197 221 C 221 178 254 145 295 122 C 336 98 381 87 431 87 Z M 423 -12 C 349 -12 283 4 227 38 C 170 72 126 117 94 175 C 62 233 46 298 46 370 C 46 442 62 506 95 562 C 128 618 172 662 228 694 C 284 726 346 742 415 742 C 489 742 554 726 611 694 C 668 662 713 617 745 561 C 777 505 794 440 794 368 C 794 292 777 226 743 169 C 709 112 664 68 608 36 C 552 4 490 -12 423 -12 Z M 509 926 L 595 926 C 595 877 587 841 572 818 C 556 795 535 784 508 784 C 490 784 473 787 459 795 C 445 802 431 810 419 819 C 407 827 396 835 386 843 C 375 851 364 855 354 855 C 343 855 334 849 328 838 C 321 827 317 810 317 788 L 233 788 C 233 836 243 871 263 895 C 283 918 305 930 329 930 C 347 930 362 926 376 918 C 389 910 402 902 414 893 C 424 884 434 876 444 870 C 453 864 462 861 472 861 C 482 861 490 866 497 877 C 504 888 508 904 509 926 Z" unicode="Õ" />
<glyph horiz-adv-x="840" d="M 431 87 C 478 87 520 97 558 119 C 595 141 625 172 647 213 C 669 254 680 304 680 363 C 680 417 668 464 644 506 C 620 547 588 579 547 603 C 506 626 460 638 408 638 C 360 638 318 627 281 606 C 243 585 214 555 192 515 C 170 475 160 428 160 373 C 160 314 172 263 197 221 C 221 178 254 145 295 122 C 336 98 381 87 431 87 Z M 423 -12 C 349 -12 283 4 227 38 C 170 72 126 117 94 175 C 62 233 46 298 46 370 C 46 442 62 506 95 562 C 128 618 172 662 228 694 C 284 726 346 742 415 742 C 489 742 554 726 611 694 C 668 662 713 617 745 561 C 777 505 794 440 794 368 C 794 292 777 226 743 169 C 709 112 664 68 608 36 C 552 4 490 -12 423 -12 Z M 554 779 L 464 779 L 464 938 L 554 938 L 554 779 Z M 364 779 L 274 779 L 274 938 L 364 938 L 364 779 Z" unicode="Ö" />
<glyph horiz-adv-x="500" d="M 115 137 L 56 197 L 190 331 L 57 464 L 116 524 L 250 391 L 384 524 L 443 464 L 309 331 L 444 197 L 384 135 L 250 272 L 115 137 Z" unicode="×" />
<glyph horiz-adv-x="840" d="M 112 -5 L 51 53 L 744 747 L 805 689 L 112 -5 Z M 431 87 C 478 87 520 97 558 119 C 595 141 625 172 647 213 C 669 254 680 304 680 363 C 680 417 668 464 644 506 C 620 547 588 579 547 603 C 506 626 460 638 408 638 C 360 638 318 627 281 606 C 243 585 214 555 192 515 C 170 475 160 428 160 373 C 160 314 172 263 197 221 C 221 178 254 145 295 122 C 336 98 381 87 431 87 Z M 423 -12 C 349 -12 283 4 227 38 C 170 72 126 117 94 175 C 62 233 46 298 46 370 C 46 442 62 506 95 562 C 128 618 172 662 228 694 C 284 726 346 742 415 742 C 489 742 554 726 611 694 C 668 662 713 617 745 561 C 777 505 794 440 794 368 C 794 292 777 226 743 169 C 709 112 664 68 608 36 C 552 4 490 -12 423 -12 Z" unicode="Ø" />
<glyph horiz-adv-x="767" d="M 678 730 L 678 266 C 678 208 664 158 638 116 C 611 74 575 43 531 21 C 486 -1 437 -12 383 -12 C 330 -12 281 -1 237 20 C 192 41 156 72 129 114 C 102 155 89 206 89 266 L 89 730 L 201 730 L 201 270 C 201 214 218 171 254 139 C 290 107 332 92 381 92 C 431 92 474 107 511 138 C 547 168 566 212 566 270 L 566 730 L 678 730 Z M 499 778 L 391 778 L 267 940 L 393 940 L 499 778 Z" unicode="Ù" />
<glyph horiz-adv-x="767" d="M 678 730 L 678 266 C 678 208 664 158 638 116 C 611 74 575 43 531 21 C 486 -1 437 -12 383 -12 C 330 -12 281 -1 237 20 C 192 41 156 72 129 114 C 102 155 89 206 89 266 L 89 730 L 201 730 L 201 270 C 201 214 218 171 254 139 C 290 107 332 92 381 92 C 431 92 474 107 511 138 C 547 168 566 212 566 270 L 566 730 L 678 730 Z M 268 788 L 372 950 L 499 950 L 375 788 L 268 788 Z" unicode="Ú" />
<glyph horiz-adv-x="767" d="M 678 730 L 678 266 C 678 208 664 158 638 116 C 611 74 575 43 531 21 C 486 -1 437 -12 383 -12 C 330 -12 281 -1 237 20 C 192 41 156 72 129 114 C 102 155 89 206 89 266 L 89 730 L 201 730 L 201 270 C 201 214 218 171 254 139 C 290 107 332 92 381 92 C 431 92 474 107 511 138 C 547 168 566 212 566 270 L 566 730 L 678 730 Z M 561 779 L 462 779 L 383 887 L 303 779 L 206 779 L 329 951 L 438 951 L 561 779 Z" unicode="Û" />
<glyph horiz-adv-x="767" d="M 678 730 L 678 266 C 678 208 664 158 638 116 C 611 74 575 43 531 21 C 486 -1 437 -12 383 -12 C 330 -12 281 -1 237 20 C 192 41 156 72 129 114 C 102 155 89 206 89 266 L 89 730 L 201 730 L 201 270 C 201 214 218 171 254 139 C 290 107 332 92 381 92 C 431 92 474 107 511 138 C 547 168 566 212 566 270 L 566 730 L 678 730 Z M 523 779 L 433 779 L 433 938 L 523 938 L 523 779 Z M 333 779 L 243 779 L 243 938 L 333 938 L 333 779 Z" unicode="Ü" />
<glyph horiz-adv-x="674" d="M 675 730 L 392 304 L 392 0 L 277 0 L 277 309 L -1 730 L 128 730 L 340 410 L 554 730 L 675 730 Z M 225 788 L 329 950 L 456 950 L 332 788 L 225 788 Z" unicode="Ý" />
<glyph horiz-adv-x="616" d="M 93 0 L 93 730 L 208 730 L 208 605 L 357 605 C 431 605 488 584 530 543 C 571 502 592 449 592 384 C 592 318 570 263 527 221 C 483 179 427 158 358 158 L 208 158 L 208 0 L 93 0 Z M 205 245 L 343 245 C 383 245 416 257 440 282 C 464 306 476 341 476 386 C 476 428 462 460 435 482 C 408 504 375 515 335 515 L 205 515 L 205 245 Z" unicode="Þ" />
<glyph horiz-adv-x="715" d="M 486 -11 C 435 -11 390 -4 351 8 C 311 20 278 37 251 59 L 297 132 C 323 114 352 100 386 90 C 419 80 451 75 481 75 C 509 75 532 82 549 96 C 566 110 575 127 575 149 C 575 167 566 183 549 197 C 532 211 499 226 450 240 C 382 258 335 278 308 300 C 280 322 267 355 267 401 C 267 439 279 469 303 490 C 327 511 354 524 384 530 C 388 533 393 539 399 548 C 405 557 408 572 410 593 C 410 635 398 666 376 688 C 354 709 327 720 297 720 C 267 720 243 711 223 695 C 203 678 193 651 193 614 L 193 0 L 85 0 L 85 631 C 85 689 104 733 144 763 C 183 792 231 807 288 807 C 347 807 399 790 444 758 C 488 725 511 681 511 625 C 511 587 505 557 495 535 C 484 513 474 498 464 489 C 440 484 417 475 395 462 C 373 449 360 433 356 415 C 356 394 368 377 392 363 C 416 349 453 334 505 320 C 568 301 614 279 644 254 C 673 228 688 195 688 154 C 688 102 668 62 630 33 C 591 3 543 -11 486 -11 Z" unicode="ß" />
<glyph horiz-adv-x="604" d="M 429 150 L 429 274 L 297 268 C 254 266 219 256 193 239 C 166 222 153 197 153 163 C 153 135 163 114 184 99 C 205 83 233 76 267 76 C 299 76 330 83 360 97 C 389 111 412 128 429 150 Z M 533 0 L 428 0 L 428 72 C 408 46 381 27 348 13 C 314 -1 274 -8 228 -8 C 169 -8 123 6 90 34 C 56 62 40 101 40 150 C 40 212 63 259 111 292 C 159 325 225 344 309 350 L 427 357 L 427 363 C 427 399 416 425 395 442 C 373 458 343 467 304 467 C 270 467 237 461 206 449 C 174 437 145 423 117 406 L 72 484 C 101 505 136 523 178 538 C 219 552 266 560 318 560 C 385 560 438 544 476 513 C 514 482 533 432 533 363 L 533 0 Z M 413 594 L 305 594 L 181 756 L 307 756 L 413 594 Z" unicode="à" />
<glyph horiz-adv-x="604" d="M 429 150 L 429 274 L 297 268 C 254 266 219 256 193 239 C 166 222 153 197 153 163 C 153 135 163 114 184 99 C 205 83 233 76 267 76 C 299 76 330 83 360 97 C 389 111 412 128 429 150 Z M 533 0 L 428 0 L 428 72 C 408 46 381 27 348 13 C 314 -1 274 -8 228 -8 C 169 -8 123 6 90 34 C 56 62 40 101 40 150 C 40 212 63 259 111 292 C 159 325 225 344 309 350 L 427 357 L 427 363 C 427 399 416 425 395 442 C 373 458 343 467 304 467 C 270 467 237 461 206 449 C 174 437 145 423 117 406 L 72 484 C 101 505 136 523 178 538 C 219 552 266 560 318 560 C 385 560 438 544 476 513 C 514 482 533 432 533 363 L 533 0 Z M 182 604 L 286 766 L 413 766 L 289 604 L 182 604 Z" unicode="á" />
<glyph horiz-adv-x="604" d="M 429 150 L 429 274 L 297 268 C 254 266 219 256 193 239 C 166 222 153 197 153 163 C 153 135 163 114 184 99 C 205 83 233 76 267 76 C 299 76 330 83 360 97 C 389 111 412 128 429 150 Z M 533 0 L 428 0 L 428 72 C 408 46 381 27 348 13 C 314 -1 274 -8 228 -8 C 169 -8 123 6 90 34 C 56 62 40 101 40 150 C 40 212 63 259 111 292 C 159 325 225 344 309 350 L 427 357 L 427 363 C 427 399 416 425 395 442 C 373 458 343 467 304 467 C 270 467 237 461 206 449 C 174 437 145 423 117 406 L 72 484 C 101 505 136 523 178 538 C 219 552 266 560 318 560 C 385 560 438 544 476 513 C 514 482 533 432 533 363 L 533 0 Z M 475 595 L 376 595 L 297 703 L 217 595 L 120 595 L 243 767 L 352 767 L 475 595 Z" unicode="â" />
<glyph horiz-adv-x="604" d="M 429 150 L 429 274 L 297 268 C 254 266 219 256 193 239 C 166 222 153 197 153 163 C 153 135 163 114 184 99 C 205 83 233 76 267 76 C 299 76 330 83 360 97 C 389 111 412 128 429 150 Z M 533 0 L 428 0 L 428 72 C 408 46 381 27 348 13 C 314 -1 274 -8 228 -8 C 169 -8 123 6 90 34 C 56 62 40 101 40 150 C 40 212 63 259 111 292 C 159 325 225 344 309 350 L 427 357 L 427 363 C 427 399 416 425 395 442 C 373 458 343 467 304 467 C 270 467 237 461 206 449 C 174 437 145 423 117 406 L 72 484 C 101 505 136 523 178 538 C 219 552 266 560 318 560 C 385 560 438 544 476 513 C 514 482 533 432 533 363 L 533 0 Z M 392 742 L 478 742 C 478 693 470 657 455 634 C 439 611 418 600 391 600 C 373 600 356 603 342 611 C 328 618 314 626 302 635 C 290 643 279 651 269 659 C 258 667 247 671 237 671 C 226 671 217 665 211 654 C 204 643 200 626 200 604 L 116 604 C 116 652 126 687 146 711 C 166 734 188 746 212 746 C 230 746 245 742 259 734 C 272 726 285 718 297 709 C 307 700 317 692 327 686 C 336 680 345 677 355 677 C 365 677 373 682 380 693 C 387 704 391 720 392 742 Z" unicode="ã" />
<glyph horiz-adv-x="604" d="M 429 150 L 429 274 L 297 268 C 254 266 219 256 193 239 C 166 222 153 197 153 163 C 153 135 163 114 184 99 C 205 83 233 76 267 76 C 299 76 330 83 360 97 C 389 111 412 128 429 150 Z M 533 0 L 428 0 L 428 72 C 408 46 381 27 348 13 C 314 -1 274 -8 228 -8 C 169 -8 123 6 90 34 C 56 62 40 101 40 150 C 40 212 63 259 111 292 C 159 325 225 344 309 350 L 427 357 L 427 363 C 427 399 416 425 395 442 C 373 458 343 467 304 467 C 270 467 237 461 206 449 C 174 437 145 423 117 406 L 72 484 C 101 505 136 523 178 538 C 219 552 266 560 318 560 C 385 560 438 544 476 513 C 514 482 533 432 533 363 L 533 0 Z M 437 595 L 347 595 L 347 754 L 437 754 L 437 595 Z M 247 595 L 157 595 L 157 754 L 247 754 L 247 595 Z" unicode="ä" />
<glyph horiz-adv-x="604" d="M 429 150 L 429 274 L 297 268 C 254 266 219 256 193 239 C 166 222 153 197 153 163 C 153 135 163 114 184 99 C 205 83 233 76 267 76 C 299 76 330 83 360 97 C 389 111 412 128 429 150 Z M 533 0 L 428 0 L 428 72 C 408 46 381 27 348 13 C 314 -1 274 -8 228 -8 C 169 -8 123 6 90 34 C 56 62 40 101 40 150 C 40 212 63 259 111 292 C 159 325 225 344 309 350 L 427 357 L 427 363 C 427 399 416 425 395 442 C 373 458 343 467 304 467 C 270 467 237 461 206 449 C 174 437 145 423 117 406 L 72 484 C 101 505 136 523 178 538 C 219 552 266 560 318 560 C 385 560 438 544 476 513 C 514 482 533 432 533 363 L 533 0 Z M 297 595 C 261 595 231 607 207 632 C 183 656 171 686 171 722 C 171 756 183 786 207 810 C 231 834 261 847 297 847 C 332 847 362 834 386 810 C 410 786 423 756 423 722 C 423 686 410 656 386 632 C 362 607 332 595 297 595 Z M 297 664 C 313 664 326 669 337 680 C 347 691 353 705 353 722 C 353 737 347 750 337 762 C 326 773 313 779 297 779 C 281 779 268 773 257 762 C 245 750 240 737 240 722 C 240 705 245 691 257 680 C 268 669 281 664 297 664 Z" unicode="å" />
<glyph horiz-adv-x="1022" d="M 276 76 C 315 76 348 88 376 112 C 404 136 426 160 444 182 L 444 273 L 311 265 C 269 262 235 254 208 241 C 180 228 167 203 167 167 C 167 137 177 115 198 99 C 218 83 244 76 276 76 Z M 715 -11 C 654 -11 602 2 560 29 C 517 56 490 84 479 113 C 461 82 433 54 393 29 C 353 4 302 -8 238 -8 C 181 -8 136 6 103 34 C 70 62 54 101 54 150 C 54 212 77 260 125 292 C 173 324 239 342 323 348 L 442 356 L 442 363 C 442 395 431 421 409 439 C 387 457 357 467 318 467 C 284 467 251 460 219 448 C 187 436 157 421 129 405 L 86 484 C 115 505 149 523 187 538 C 225 552 267 560 311 560 C 364 560 406 550 437 531 C 468 512 490 487 503 457 C 515 477 538 498 574 522 C 610 546 655 558 710 558 C 792 558 857 530 906 474 C 955 418 980 339 981 238 L 538 238 C 538 195 554 159 587 130 C 619 100 661 86 713 86 C 762 86 799 94 824 111 C 848 127 868 144 884 162 L 951 86 C 925 58 894 34 858 16 C 822 -1 774 -11 715 -11 Z M 539 316 L 869 316 C 867 357 852 392 823 422 C 794 451 755 466 706 466 C 658 466 619 451 589 422 C 559 392 542 357 539 316 Z" unicode="æ" />
<glyph horiz-adv-x="595" d="M 483 178 L 567 120 C 546 88 517 59 479 31 C 441 3 389 -11 323 -11 C 242 -11 175 14 122 65 C 68 116 42 185 42 272 C 42 327 54 376 79 419 C 103 462 137 496 180 521 C 223 545 272 558 327 558 C 394 558 447 542 486 512 C 524 481 550 447 563 411 L 470 370 C 458 394 441 415 418 434 C 395 452 363 462 323 462 C 271 462 230 443 199 407 C 168 371 153 326 153 274 C 153 217 168 171 199 137 C 230 103 272 86 326 86 C 370 86 404 96 428 116 C 452 136 470 156 483 178 Z M 329 -200 C 304 -200 279 -197 253 -191 C 227 -185 207 -177 193 -168 L 209 -121 C 218 -125 230 -130 245 -135 C 259 -140 276 -143 294 -143 C 307 -143 319 -140 329 -134 C 339 -128 345 -120 345 -110 C 345 -98 340 -90 331 -86 C 322 -81 312 -79 302 -79 C 290 -79 277 -81 265 -85 L 252 -71 L 313 4 L 377 4 L 327 -58 C 361 -51 390 -54 413 -67 C 435 -80 447 -99 447 -124 C 447 -149 435 -168 411 -181 C 387 -193 360 -200 329 -200 Z" unicode="ç" />
<glyph horiz-adv-x="635" d="M 328 -11 C 245 -11 177 13 123 63 C 69 112 42 182 42 272 C 42 325 54 373 78 417 C 102 460 136 494 178 520 C 220 545 269 558 323 558 C 405 558 470 529 519 473 C 568 417 593 338 594 236 L 150 236 C 152 197 169 162 199 132 C 229 101 270 86 324 86 C 368 86 403 93 430 108 C 457 122 479 140 497 161 L 564 86 C 538 58 507 34 471 16 C 435 -1 387 -11 328 -11 Z M 149 317 L 482 317 C 480 360 465 396 435 424 C 405 452 366 466 319 466 C 271 466 232 451 201 421 C 170 391 153 356 149 317 Z M 436 594 L 328 594 L 204 756 L 330 756 L 436 594 Z" unicode="è" />
<glyph horiz-adv-x="635" d="M 328 -11 C 245 -11 177 13 123 63 C 69 112 42 182 42 272 C 42 325 54 373 78 417 C 102 460 136 494 178 520 C 220 545 269 558 323 558 C 405 558 470 529 519 473 C 568 417 593 338 594 236 L 150 236 C 152 197 169 162 199 132 C 229 101 270 86 324 86 C 368 86 403 93 430 108 C 457 122 479 140 497 161 L 564 86 C 538 58 507 34 471 16 C 435 -1 387 -11 328 -11 Z M 149 317 L 482 317 C 480 360 465 396 435 424 C 405 452 366 466 319 466 C 271 466 232 451 201 421 C 170 391 153 356 149 317 Z M 205 604 L 309 766 L 436 766 L 312 604 L 205 604 Z" unicode="é" />
<glyph horiz-adv-x="635" d="M 328 -11 C 245 -11 177 13 123 63 C 69 112 42 182 42 272 C 42 325 54 373 78 417 C 102 460 136 494 178 520 C 220 545 269 558 323 558 C 405 558 470 529 519 473 C 568 417 593 338 594 236 L 150 236 C 152 197 169 162 199 132 C 229 101 270 86 324 86 C 368 86 403 93 430 108 C 457 122 479 140 497 161 L 564 86 C 538 58 507 34 471 16 C 435 -1 387 -11 328 -11 Z M 149 317 L 482 317 C 480 360 465 396 435 424 C 405 452 366 466 319 466 C 271 466 232 451 201 421 C 170 391 153 356 149 317 Z M 498 595 L 399 595 L 320 703 L 240 595 L 143 595 L 266 767 L 375 767 L 498 595 Z" unicode="ê" />
<glyph horiz-adv-x="635" d="M 328 -11 C 245 -11 177 13 123 63 C 69 112 42 182 42 272 C 42 325 54 373 78 417 C 102 460 136 494 178 520 C 220 545 269 558 323 558 C 405 558 470 529 519 473 C 568 417 593 338 594 236 L 150 236 C 152 197 169 162 199 132 C 229 101 270 86 324 86 C 368 86 403 93 430 108 C 457 122 479 140 497 161 L 564 86 C 538 58 507 34 471 16 C 435 -1 387 -11 328 -11 Z M 149 317 L 482 317 C 480 360 465 396 435 424 C 405 452 366 466 319 466 C 271 466 232 451 201 421 C 170 391 153 356 149 317 Z M 460 595 L 370 595 L 370 754 L 460 754 L 460 595 Z M 270 595 L 180 595 L 180 754 L 270 754 L 270 595 Z" unicode="ë" />
<glyph horiz-adv-x="283" d="M 196 0 L 87 0 L 87 546 L 196 546 L 196 0 Z M 257 594 L 149 594 L 25 756 L 151 756 L 257 594 Z" unicode="ì" />
<glyph horiz-adv-x="283" d="M 196 0 L 87 0 L 87 546 L 196 546 L 196 0 Z M 26 604 L 130 766 L 257 766 L 133 604 L 26 604 Z" unicode="í" />
<glyph horiz-adv-x="283" d="M 196 0 L 87 0 L 87 546 L 196 546 L 196 0 Z M 319 595 L 220 595 L 141 703 L 61 595 L -36 595 L 87 767 L 196 767 L 319 595 Z" unicode="î" />
<glyph horiz-adv-x="283" d="M 196 0 L 87 0 L 87 546 L 196 546 L 196 0 Z M 281 595 L 191 595 L 191 754 L 281 754 L 281 595 Z M 91 595 L 1 595 L 1 754 L 91 754 L 91 595 Z" unicode="ï" />
<glyph horiz-adv-x="654" d="M 265 604 L 247 653 L 538 766 L 555 717 L 265 604 Z M 326 80 C 381 80 424 97 455 133 C 486 168 502 214 502 271 C 502 307 495 338 481 365 C 467 392 447 413 421 428 C 395 443 363 451 327 451 C 275 451 233 433 201 398 C 169 363 154 319 154 267 C 154 211 170 166 203 132 C 235 97 276 80 326 80 Z M 322 -11 C 243 -11 177 13 123 62 C 69 111 43 177 43 260 C 43 310 55 355 79 397 C 103 439 135 472 175 498 C 214 523 257 536 303 536 C 330 536 356 531 381 522 C 406 512 428 500 447 484 C 466 468 481 451 492 431 C 486 483 475 528 459 567 C 443 606 424 639 402 667 C 380 694 357 716 333 733 C 309 749 286 762 265 770 L 367 801 C 386 794 409 778 436 754 C 463 730 490 697 516 656 C 542 614 563 564 580 505 C 597 446 606 379 606 303 C 606 244 595 191 573 144 C 551 96 519 59 477 31 C 435 3 383 -11 322 -11 Z" unicode="ð" />
<glyph horiz-adv-x="645" d="M 567 0 L 459 0 L 459 370 C 459 400 447 424 424 440 C 400 456 373 465 343 465 C 320 465 297 460 274 451 C 251 441 232 427 216 409 C 200 390 193 366 193 338 L 193 0 L 85 0 L 85 546 L 178 546 L 178 431 C 190 468 214 498 250 522 C 286 546 328 558 378 558 C 428 558 472 544 510 516 C 548 488 567 450 567 404 L 567 0 Z M 439 742 L 525 742 C 525 693 517 657 502 634 C 486 611 465 600 438 600 C 420 600 403 603 389 611 C 375 618 361 626 349 635 C 337 643 326 651 316 659 C 305 667 294 671 284 671 C 273 671 264 665 258 654 C 251 643 247 626 247 604 L 163 604 C 163 652 173 687 193 711 C 213 734 235 746 259 746 C 277 746 292 742 306 734 C 319 726 332 718 344 709 C 354 700 364 692 374 686 C 383 680 392 677 402 677 C 412 677 420 682 427 693 C 434 704 438 720 439 742 Z" unicode="ñ" />
<glyph horiz-adv-x="657" d="M 324 -11 C 274 -11 228 0 186 22 C 143 44 108 76 82 118 C 55 160 42 211 42 271 C 42 325 55 374 81 418 C 107 461 142 495 185 520 C 228 545 275 558 326 558 C 380 558 428 546 472 524 C 516 502 550 470 576 430 C 602 389 615 341 615 286 C 615 227 601 175 575 131 C 549 87 514 52 470 27 C 426 1 377 -11 324 -11 Z M 330 85 C 382 85 424 103 456 140 C 488 177 504 224 504 281 C 504 333 487 376 454 410 C 421 444 377 461 323 461 C 289 461 259 452 234 436 C 208 420 189 397 175 368 C 161 339 154 306 154 269 C 154 230 161 197 177 170 C 193 142 214 121 240 107 C 266 92 296 85 330 85 Z M 442 594 L 334 594 L 210 756 L 336 756 L 442 594 Z" unicode="ò" />
<glyph horiz-adv-x="657" d="M 324 -11 C 274 -11 228 0 186 22 C 143 44 108 76 82 118 C 55 160 42 211 42 271 C 42 325 55 374 81 418 C 107 461 142 495 185 520 C 228 545 275 558 326 558 C 380 558 428 546 472 524 C 516 502 550 470 576 430 C 602 389 615 341 615 286 C 615 227 601 175 575 131 C 549 87 514 52 470 27 C 426 1 377 -11 324 -11 Z M 330 85 C 382 85 424 103 456 140 C 488 177 504 224 504 281 C 504 333 487 376 454 410 C 421 444 377 461 323 461 C 289 461 259 452 234 436 C 208 420 189 397 175 368 C 161 339 154 306 154 269 C 154 230 161 197 177 170 C 193 142 214 121 240 107 C 266 92 296 85 330 85 Z M 211 604 L 315 766 L 442 766 L 318 604 L 211 604 Z" unicode="ó" />
<glyph horiz-adv-x="657" d="M 324 -11 C 274 -11 228 0 186 22 C 143 44 108 76 82 118 C 55 160 42 211 42 271 C 42 325 55 374 81 418 C 107 461 142 495 185 520 C 228 545 275 558 326 558 C 380 558 428 546 472 524 C 516 502 550 470 576 430 C 602 389 615 341 615 286 C 615 227 601 175 575 131 C 549 87 514 52 470 27 C 426 1 377 -11 324 -11 Z M 330 85 C 382 85 424 103 456 140 C 488 177 504 224 504 281 C 504 333 487 376 454 410 C 421 444 377 461 323 461 C 289 461 259 452 234 436 C 208 420 189 397 175 368 C 161 339 154 306 154 269 C 154 230 161 197 177 170 C 193 142 214 121 240 107 C 266 92 296 85 330 85 Z M 504 595 L 405 595 L 326 703 L 246 595 L 149 595 L 272 767 L 381 767 L 504 595 Z" unicode="ô" />
<glyph horiz-adv-x="657" d="M 324 -11 C 274 -11 228 0 186 22 C 143 44 108 76 82 118 C 55 160 42 211 42 271 C 42 325 55 374 81 418 C 107 461 142 495 185 520 C 228 545 275 558 326 558 C 380 558 428 546 472 524 C 516 502 550 470 576 430 C 602 389 615 341 615 286 C 615 227 601 175 575 131 C 549 87 514 52 470 27 C 426 1 377 -11 324 -11 Z M 330 85 C 382 85 424 103 456 140 C 488 177 504 224 504 281 C 504 333 487 376 454 410 C 421 444 377 461 323 461 C 289 461 259 452 234 436 C 208 420 189 397 175 368 C 161 339 154 306 154 269 C 154 230 161 197 177 170 C 193 142 214 121 240 107 C 266 92 296 85 330 85 Z M 421 742 L 507 742 C 507 693 499 657 484 634 C 468 611 447 600 420 600 C 402 600 385 603 371 611 C 357 618 343 626 331 635 C 319 643 308 651 298 659 C 287 667 276 671 266 671 C 255 671 246 665 240 654 C 233 643 229 626 229 604 L 145 604 C 145 652 155 687 175 711 C 195 734 217 746 241 746 C 259 746 274 742 288 734 C 301 726 314 718 326 709 C 336 700 346 692 356 686 C 365 680 374 677 384 677 C 394 677 402 682 409 693 C 416 704 420 720 421 742 Z" unicode="õ" />
<glyph horiz-adv-x="657" d="M 324 -11 C 274 -11 228 0 186 22 C 143 44 108 76 82 118 C 55 160 42 211 42 271 C 42 325 55 374 81 418 C 107 461 142 495 185 520 C 228 545 275 558 326 558 C 380 558 428 546 472 524 C 516 502 550 470 576 430 C 602 389 615 341 615 286 C 615 227 601 175 575 131 C 549 87 514 52 470 27 C 426 1 377 -11 324 -11 Z M 330 85 C 382 85 424 103 456 140 C 488 177 504 224 504 281 C 504 333 487 376 454 410 C 421 444 377 461 323 461 C 289 461 259 452 234 436 C 208 420 189 397 175 368 C 161 339 154 306 154 269 C 154 230 161 197 177 170 C 193 142 214 121 240 107 C 266 92 296 85 330 85 Z M 466 595 L 376 595 L 376 754 L 466 754 L 466 595 Z M 276 595 L 186 595 L 186 754 L 276 754 L 276 595 Z" unicode="ö" />
<glyph horiz-adv-x="500" d="M 24 285 L 24 376 L 476 376 L 476 285 L 24 285 Z M 200 448 L 200 569 L 300 569 L 300 448 L 200 448 Z M 200 92 L 200 212 L 300 212 L 300 92 L 200 92 Z" unicode="÷" />
<glyph horiz-adv-x="657" d="M 81 -20 L 21 37 L 563 577 L 622 521 L 81 -20 Z M 324 -11 C 274 -11 228 0 186 22 C 143 44 108 76 82 118 C 55 160 42 211 42 271 C 42 325 55 374 81 418 C 107 461 142 495 185 520 C 228 545 275 558 326 558 C 380 558 428 546 472 524 C 516 502 550 470 576 430 C 602 389 615 341 615 286 C 615 227 601 175 575 131 C 549 87 514 52 470 27 C 426 1 377 -11 324 -11 Z M 330 85 C 382 85 424 103 456 140 C 488 177 504 224 504 281 C 504 333 487 376 454 410 C 421 444 377 461 323 461 C 289 461 259 452 234 436 C 208 420 189 397 175 368 C 161 339 154 306 154 269 C 154 230 161 197 177 170 C 193 142 214 121 240 107 C 266 92 296 85 330 85 Z" unicode="ø" />
<glyph horiz-adv-x="645" d="M 78 546 L 186 546 L 186 203 C 186 158 198 126 223 107 C 247 88 279 79 317 79 C 354 79 386 90 412 114 C 438 137 452 168 452 207 L 452 546 L 560 546 L 560 0 L 462 0 L 462 107 C 452 76 431 48 399 24 C 367 0 325 -12 274 -12 C 220 -12 174 2 136 31 C 97 59 78 103 78 162 L 78 546 Z M 435 594 L 327 594 L 203 756 L 329 756 L 435 594 Z" unicode="ù" />
<glyph horiz-adv-x="645" d="M 78 546 L 186 546 L 186 203 C 186 158 198 126 223 107 C 247 88 279 79 317 79 C 354 79 386 90 412 114 C 438 137 452 168 452 207 L 452 546 L 560 546 L 560 0 L 462 0 L 462 107 C 452 76 431 48 399 24 C 367 0 325 -12 274 -12 C 220 -12 174 2 136 31 C 97 59 78 103 78 162 L 78 546 Z M 204 604 L 308 766 L 435 766 L 311 604 L 204 604 Z" unicode="ú" />
<glyph horiz-adv-x="645" d="M 78 546 L 186 546 L 186 203 C 186 158 198 126 223 107 C 247 88 279 79 317 79 C 354 79 386 90 412 114 C 438 137 452 168 452 207 L 452 546 L 560 546 L 560 0 L 462 0 L 462 107 C 452 76 431 48 399 24 C 367 0 325 -12 274 -12 C 220 -12 174 2 136 31 C 97 59 78 103 78 162 L 78 546 Z M 497 595 L 398 595 L 319 703 L 239 595 L 142 595 L 265 767 L 374 767 L 497 595 Z" unicode="û" />
<glyph horiz-adv-x="645" d="M 78 546 L 186 546 L 186 203 C 186 158 198 126 223 107 C 247 88 279 79 317 79 C 354 79 386 90 412 114 C 438 137 452 168 452 207 L 452 546 L 560 546 L 560 0 L 462 0 L 462 107 C 452 76 431 48 399 24 C 367 0 325 -12 274 -12 C 220 -12 174 2 136 31 C 97 59 78 103 78 162 L 78 546 Z M 459 595 L 369 595 L 369 754 L 459 754 L 459 595 Z M 269 595 L 179 595 L 179 754 L 269 754 L 269 595 Z" unicode="ü" />
<glyph horiz-adv-x="562" d="M 567 546 L 278 -73 C 255 -121 226 -155 191 -173 C 156 -191 122 -200 90 -200 C 72 -200 57 -198 45 -194 C 33 -190 24 -187 19 -185 L 54 -90 C 57 -92 63 -94 71 -96 C 79 -98 88 -100 98 -100 C 115 -100 131 -94 146 -83 C 160 -71 175 -52 189 -25 L 223 41 L -5 546 L 111 546 L 281 161 L 455 546 L 567 546 Z M 166 604 L 270 766 L 397 766 L 273 604 L 166 604 Z" unicode="ý" />
<glyph horiz-adv-x="670" d="M 85 -195 L 85 800 L 192 800 L 192 430 C 201 462 222 491 255 517 C 287 543 332 557 388 557 C 458 557 515 532 560 484 C 605 436 628 368 628 281 C 628 192 604 122 557 71 C 509 19 450 -6 380 -6 C 332 -6 292 5 259 28 C 226 51 204 80 193 114 L 193 -195 L 85 -195 Z M 355 85 C 401 85 439 103 470 139 C 501 175 517 221 517 279 C 517 331 503 376 476 412 C 449 448 409 466 357 466 C 323 466 294 459 268 445 C 242 431 222 409 208 381 C 194 352 187 316 187 273 C 187 207 203 159 235 129 C 267 99 307 85 355 85 Z" unicode="þ" />
<glyph horiz-adv-x="562" d="M 567 546 L 278 -73 C 255 -121 226 -155 191 -173 C 156 -191 122 -200 90 -200 C 72 -200 57 -198 45 -194 C 33 -190 24 -187 19 -185 L 54 -90 C 57 -92 63 -94 71 -96 C 79 -98 88 -100 98 -100 C 115 -100 131 -94 146 -83 C 160 -71 175 -52 189 -25 L 223 41 L -5 546 L 111 546 L 281 161 L 455 546 L 567 546 Z M 421 595 L 331 595 L 331 754 L 421 754 L 421 595 Z M 231 595 L 141 595 L 141 754 L 231 754 L 231 595 Z" unicode="ÿ" />
<glyph horiz-adv-x="662" d="M 443 263 L 325 564 L 207 263 L 443 263 Z M 662 0 L 540 0 L 469 175 L 180 175 L 114 0 L 0 0 L 296 733 L 372 733 L 662 0 Z M 460 786 L 190 786 L 190 878 L 460 878 L 460 786 Z" unicode="Ā" />
<glyph horiz-adv-x="604" d="M 429 150 L 429 274 L 297 268 C 254 266 219 256 193 239 C 166 222 153 197 153 163 C 153 135 163 114 184 99 C 205 83 233 76 267 76 C 299 76 330 83 360 97 C 389 111 412 128 429 150 Z M 533 0 L 428 0 L 428 72 C 408 46 381 27 348 13 C 314 -1 274 -8 228 -8 C 169 -8 123 6 90 34 C 56 62 40 101 40 150 C 40 212 63 259 111 292 C 159 325 225 344 309 350 L 427 357 L 427 363 C 427 399 416 425 395 442 C 373 458 343 467 304 467 C 270 467 237 461 206 449 C 174 437 145 423 117 406 L 72 484 C 101 505 136 523 178 538 C 219 552 266 560 318 560 C 385 560 438 544 476 513 C 514 482 533 432 533 363 L 533 0 Z M 432 602 L 162 602 L 162 694 L 432 694 L 432 602 Z" unicode="ā" />
<glyph horiz-adv-x="662" d="M 443 263 L 325 564 L 207 263 L 443 263 Z M 662 0 L 540 0 L 469 175 L 180 175 L 114 0 L 0 0 L 296 733 L 372 733 L 662 0 Z M 399 941 L 488 941 C 484 885 467 845 437 820 C 407 794 369 782 325 782 C 280 782 243 794 213 820 C 183 845 166 885 162 941 L 251 941 C 253 914 259 893 271 877 C 282 861 300 854 325 854 C 349 854 367 861 379 877 C 391 892 397 913 399 941 Z" unicode="Ă" />
<glyph horiz-adv-x="604" d="M 429 150 L 429 274 L 297 268 C 254 266 219 256 193 239 C 166 222 153 197 153 163 C 153 135 163 114 184 99 C 205 83 233 76 267 76 C 299 76 330 83 360 97 C 389 111 412 128 429 150 Z M 533 0 L 428 0 L 428 72 C 408 46 381 27 348 13 C 314 -1 274 -8 228 -8 C 169 -8 123 6 90 34 C 56 62 40 101 40 150 C 40 212 63 259 111 292 C 159 325 225 344 309 350 L 427 357 L 427 363 C 427 399 416 425 395 442 C 373 458 343 467 304 467 C 270 467 237 461 206 449 C 174 437 145 423 117 406 L 72 484 C 101 505 136 523 178 538 C 219 552 266 560 318 560 C 385 560 438 544 476 513 C 514 482 533 432 533 363 L 533 0 Z M 371 757 L 460 757 C 456 701 439 661 409 636 C 379 610 341 598 297 598 C 252 598 215 610 185 636 C 155 661 138 701 134 757 L 223 757 C 225 730 231 709 243 693 C 254 677 272 670 297 670 C 321 670 339 677 351 693 C 363 708 369 729 371 757 Z" unicode="ă" />
<glyph horiz-adv-x="662" d="M 443 263 L 325 564 L 207 263 L 443 263 Z M 662 0 L 540 0 L 469 175 L 180 175 L 114 0 L 0 0 L 296 733 L 372 733 L 662 0 Z M 683 -88 L 713 -132 C 671 -175 620 -197 559 -197 C 523 -197 496 -189 476 -175 C 456 -161 447 -142 447 -119 C 447 -96 455 -74 472 -54 C 488 -33 511 -15 540 0 L 614 0 C 590 -12 572 -25 558 -38 C 544 -51 538 -64 538 -77 C 538 -89 543 -99 553 -107 C 563 -115 577 -119 594 -119 C 612 -119 629 -116 645 -110 C 660 -104 673 -97 683 -88 Z" unicode="Ą" />
<glyph horiz-adv-x="604" d="M 429 150 L 429 274 L 297 268 C 254 266 219 256 193 239 C 166 222 153 197 153 163 C 153 135 163 114 184 99 C 205 83 233 76 267 76 C 299 76 330 83 360 97 C 389 111 412 128 429 150 Z M 533 0 L 428 0 L 428 72 C 408 46 381 27 348 13 C 314 -1 274 -8 228 -8 C 169 -8 123 6 90 34 C 56 62 40 101 40 150 C 40 212 63 259 111 292 C 159 325 225 344 309 350 L 427 357 L 427 363 C 427 399 416 425 395 442 C 373 458 343 467 304 467 C 270 467 237 461 206 449 C 174 437 145 423 117 406 L 72 484 C 101 505 136 523 178 538 C 219 552 266 560 318 560 C 385 560 438 544 476 513 C 514 482 533 432 533 363 L 533 0 Z M 571 -88 L 601 -132 C 559 -175 508 -197 447 -197 C 411 -197 384 -189 364 -175 C 344 -161 335 -142 335 -119 C 335 -96 343 -74 360 -54 C 376 -33 399 -15 428 0 L 502 0 C 478 -12 460 -25 446 -38 C 432 -51 426 -64 426 -77 C 426 -89 431 -99 441 -107 C 451 -115 465 -119 482 -119 C 500 -119 517 -116 533 -110 C 548 -104 561 -97 571 -88 Z" unicode="ą" />
<glyph horiz-adv-x="746" d="M 407 -12 C 341 -12 281 3 227 34 C 172 64 128 108 95 164 C 62 220 46 287 46 365 C 46 439 61 505 93 562 C 124 618 167 662 222 694 C 276 726 338 742 408 742 C 474 742 531 732 579 712 C 627 692 668 660 701 618 L 614 546 C 591 572 564 594 532 611 C 500 627 459 636 410 636 C 358 636 313 625 276 603 C 239 581 211 551 191 511 C 171 471 162 424 162 370 C 162 308 174 257 199 216 C 223 174 255 143 295 123 C 334 102 376 92 420 92 C 469 92 511 101 546 121 C 580 140 609 166 632 199 L 717 138 C 689 96 649 61 597 32 C 545 2 481 -12 407 -12 Z M 293 788 L 397 950 L 524 950 L 400 788 L 293 788 Z" unicode="Ć" />
<glyph horiz-adv-x="595" d="M 483 178 L 567 120 C 546 88 517 59 479 31 C 441 3 389 -11 323 -11 C 242 -11 175 14 122 65 C 68 116 42 185 42 272 C 42 327 54 376 79 419 C 103 462 137 496 180 521 C 223 545 272 558 327 558 C 394 558 447 542 486 512 C 524 481 550 447 563 411 L 470 370 C 458 394 441 415 418 434 C 395 452 363 462 323 462 C 271 462 230 443 199 407 C 168 371 153 326 153 274 C 153 217 168 171 199 137 C 230 103 272 86 326 86 C 370 86 404 96 428 116 C 452 136 470 156 483 178 Z M 211 604 L 315 766 L 442 766 L 318 604 L 211 604 Z" unicode="ć" />
<glyph horiz-adv-x="746" d="M 407 -12 C 341 -12 281 3 227 34 C 172 64 128 108 95 164 C 62 220 46 287 46 365 C 46 439 61 505 93 562 C 124 618 167 662 222 694 C 276 726 338 742 408 742 C 474 742 531 732 579 712 C 627 692 668 660 701 618 L 614 546 C 591 572 564 594 532 611 C 500 627 459 636 410 636 C 358 636 313 625 276 603 C 239 581 211 551 191 511 C 171 471 162 424 162 370 C 162 308 174 257 199 216 C 223 174 255 143 295 123 C 334 102 376 92 420 92 C 469 92 511 101 546 121 C 580 140 609 166 632 199 L 717 138 C 689 96 649 61 597 32 C 545 2 481 -12 407 -12 Z M 586 779 L 487 779 L 408 887 L 328 779 L 231 779 L 354 951 L 463 951 L 586 779 Z" unicode="Ĉ" />
<glyph horiz-adv-x="595" d="M 483 178 L 567 120 C 546 88 517 59 479 31 C 441 3 389 -11 323 -11 C 242 -11 175 14 122 65 C 68 116 42 185 42 272 C 42 327 54 376 79 419 C 103 462 137 496 180 521 C 223 545 272 558 327 558 C 394 558 447 542 486 512 C 524 481 550 447 563 411 L 470 370 C 458 394 441 415 418 434 C 395 452 363 462 323 462 C 271 462 230 443 199 407 C 168 371 153 326 153 274 C 153 217 168 171 199 137 C 230 103 272 86 326 86 C 370 86 404 96 428 116 C 452 136 470 156 483 178 Z M 504 595 L 405 595 L 326 703 L 246 595 L 149 595 L 272 767 L 381 767 L 504 595 Z" unicode="ĉ" />
<glyph horiz-adv-x="746" d="M 407 -12 C 341 -12 281 3 227 34 C 172 64 128 108 95 164 C 62 220 46 287 46 365 C 46 439 61 505 93 562 C 124 618 167 662 222 694 C 276 726 338 742 408 742 C 474 742 531 732 579 712 C 627 692 668 660 701 618 L 614 546 C 591 572 564 594 532 611 C 500 627 459 636 410 636 C 358 636 313 625 276 603 C 239 581 211 551 191 511 C 171 471 162 424 162 370 C 162 308 174 257 199 216 C 223 174 255 143 295 123 C 334 102 376 92 420 92 C 469 92 511 101 546 121 C 580 140 609 166 632 199 L 717 138 C 689 96 649 61 597 32 C 545 2 481 -12 407 -12 Z M 457 779 L 360 779 L 360 943 L 457 943 L 457 779 Z" unicode="Ċ" />
<glyph horiz-adv-x="595" d="M 483 178 L 567 120 C 546 88 517 59 479 31 C 441 3 389 -11 323 -11 C 242 -11 175 14 122 65 C 68 116 42 185 42 272 C 42 327 54 376 79 419 C 103 462 137 496 180 521 C 223 545 272 558 327 558 C 394 558 447 542 486 512 C 524 481 550 447 563 411 L 470 370 C 458 394 441 415 418 434 C 395 452 363 462 323 462 C 271 462 230 443 199 407 C 168 371 153 326 153 274 C 153 217 168 171 199 137 C 230 103 272 86 326 86 C 370 86 404 96 428 116 C 452 136 470 156 483 178 Z M 375 595 L 278 595 L 278 759 L 375 759 L 375 595 Z" unicode="ċ" />
<glyph horiz-adv-x="746" d="M 407 -12 C 341 -12 281 3 227 34 C 172 64 128 108 95 164 C 62 220 46 287 46 365 C 46 439 61 505 93 562 C 124 618 167 662 222 694 C 276 726 338 742 408 742 C 474 742 531 732 579 712 C 627 692 668 660 701 618 L 614 546 C 591 572 564 594 532 611 C 500 627 459 636 410 636 C 358 636 313 625 276 603 C 239 581 211 551 191 511 C 171 471 162 424 162 370 C 162 308 174 257 199 216 C 223 174 255 143 295 123 C 334 102 376 92 420 92 C 469 92 511 101 546 121 C 580 140 609 166 632 199 L 717 138 C 689 96 649 61 597 32 C 545 2 481 -12 407 -12 Z M 231 951 L 330 951 L 409 843 L 489 951 L 586 951 L 463 779 L 354 779 L 231 951 Z" unicode="Č" />
<glyph horiz-adv-x="595" d="M 483 178 L 567 120 C 546 88 517 59 479 31 C 441 3 389 -11 323 -11 C 242 -11 175 14 122 65 C 68 116 42 185 42 272 C 42 327 54 376 79 419 C 103 462 137 496 180 521 C 223 545 272 558 327 558 C 394 558 447 542 486 512 C 524 481 550 447 563 411 L 470 370 C 458 394 441 415 418 434 C 395 452 363 462 323 462 C 271 462 230 443 199 407 C 168 371 153 326 153 274 C 153 217 168 171 199 137 C 230 103 272 86 326 86 C 370 86 404 96 428 116 C 452 136 470 156 483 178 Z M 149 767 L 248 767 L 327 659 L 407 767 L 504 767 L 381 595 L 272 595 L 149 767 Z" unicode="č" />
<glyph horiz-adv-x="753" d="M 93 0 L 93 730 L 323 730 C 445 730 539 697 606 633 C 673 569 707 483 707 377 C 707 270 673 180 605 108 C 537 36 438 0 307 0 L 93 0 Z M 208 93 L 305 93 C 401 93 472 120 518 176 C 564 231 587 298 587 376 C 587 454 563 518 516 566 C 469 614 403 638 319 638 L 208 638 L 208 93 Z M 192 951 L 291 951 L 370 843 L 450 951 L 547 951 L 424 779 L 315 779 L 192 951 Z" unicode="Ď" />
<glyph horiz-adv-x="670" d="M 315 80 C 367 80 407 98 437 135 C 466 172 481 219 481 277 C 481 319 473 355 458 383 C 443 411 423 432 399 446 C 374 460 347 467 319 467 C 267 467 227 449 197 414 C 167 379 153 332 153 274 C 153 236 159 203 172 174 C 185 144 204 121 228 105 C 252 88 281 80 315 80 Z M 294 -11 C 221 -11 161 14 113 64 C 65 114 42 184 42 275 C 42 329 54 377 78 420 C 102 462 133 496 173 521 C 212 545 255 558 303 558 C 342 558 378 546 412 524 C 446 502 469 476 481 447 L 481 800 L 585 800 L 585 0 L 487 0 L 487 119 C 481 101 469 82 451 62 C 433 42 411 24 384 10 C 357 -3 327 -11 294 -11 Z M 721 598 L 716 443 L 626 443 L 621 598 L 621 730 L 721 730 L 721 598 Z" unicode="ď" />
<glyph horiz-adv-x="753" d="M 93 0 L 93 730 L 323 730 C 445 730 539 697 606 631 C 673 565 707 477 707 367 C 707 265 673 179 605 107 C 537 35 438 0 307 0 L 93 0 Z M 203 87 L 300 87 C 370 87 426 100 468 127 C 510 153 541 188 560 230 C 579 272 589 317 589 365 C 589 451 565 518 518 568 C 471 618 405 643 321 643 L 203 643 L 203 87 Z M 35 316 L 35 398 L 374 398 L 374 316 L 35 316 Z" unicode="Đ" />
<glyph horiz-adv-x="670" d="M 660 616 L 309 616 L 309 708 L 660 708 L 660 616 Z M 315 80 C 367 80 407 98 437 135 C 466 172 481 219 481 277 C 481 319 473 355 458 383 C 443 411 423 432 399 446 C 374 460 347 467 319 467 C 267 467 227 449 197 414 C 167 379 153 332 153 274 C 153 236 159 203 172 174 C 185 144 204 121 228 105 C 252 88 281 80 315 80 Z M 294 -11 C 221 -11 161 14 113 64 C 65 114 42 184 42 275 C 42 329 54 377 78 420 C 102 462 133 496 173 521 C 212 545 255 558 303 558 C 342 558 378 546 412 524 C 446 502 469 476 481 447 L 481 800 L 585 800 L 585 0 L 487 0 L 487 119 C 481 101 469 82 451 62 C 433 42 411 24 384 10 C 357 -3 327 -11 294 -11 Z" unicode="đ" />
<glyph horiz-adv-x="595" d="M 540 0 L 93 0 L 93 730 L 521 730 L 521 630 L 206 630 L 206 414 L 504 414 L 504 316 L 206 316 L 206 100 L 540 100 L 540 0 Z M 451 786 L 181 786 L 181 878 L 451 878 L 451 786 Z" unicode="Ē" />
<glyph horiz-adv-x="635" d="M 328 -11 C 245 -11 177 13 123 63 C 69 112 42 182 42 272 C 42 325 54 373 78 417 C 102 460 136 494 178 520 C 220 545 269 558 323 558 C 405 558 470 529 519 473 C 568 417 593 338 594 236 L 150 236 C 152 197 169 162 199 132 C 229 101 270 86 324 86 C 368 86 403 93 430 108 C 457 122 479 140 497 161 L 564 86 C 538 58 507 34 471 16 C 435 -1 387 -11 328 -11 Z M 149 317 L 482 317 C 480 360 465 396 435 424 C 405 452 366 466 319 466 C 271 466 232 451 201 421 C 170 391 153 356 149 317 Z M 455 602 L 185 602 L 185 694 L 455 694 L 455 602 Z" unicode="ē" />
<glyph horiz-adv-x="595" d="M 540 0 L 93 0 L 93 730 L 521 730 L 521 630 L 206 630 L 206 414 L 504 414 L 504 316 L 206 316 L 206 100 L 540 100 L 540 0 Z M 390 941 L 479 941 C 475 885 458 845 428 820 C 398 794 360 782 316 782 C 271 782 234 794 204 820 C 174 845 157 885 153 941 L 242 941 C 244 914 250 893 262 877 C 273 861 291 854 316 854 C 340 854 358 861 370 877 C 382 892 388 913 390 941 Z" unicode="Ĕ" />
<glyph horiz-adv-x="635" d="M 328 -11 C 245 -11 177 13 123 63 C 69 112 42 182 42 272 C 42 325 54 373 78 417 C 102 460 136 494 178 520 C 220 545 269 558 323 558 C 405 558 470 529 519 473 C 568 417 593 338 594 236 L 150 236 C 152 197 169 162 199 132 C 229 101 270 86 324 86 C 368 86 403 93 430 108 C 457 122 479 140 497 161 L 564 86 C 538 58 507 34 471 16 C 435 -1 387 -11 328 -11 Z M 149 317 L 482 317 C 480 360 465 396 435 424 C 405 452 366 466 319 466 C 271 466 232 451 201 421 C 170 391 153 356 149 317 Z M 394 757 L 483 757 C 479 701 462 661 432 636 C 402 610 364 598 320 598 C 275 598 238 610 208 636 C 178 661 161 701 157 757 L 246 757 C 248 730 254 709 266 693 C 277 677 295 670 320 670 C 344 670 362 677 374 693 C 386 708 392 729 394 757 Z" unicode="ĕ" />
<glyph horiz-adv-x="595" d="M 540 0 L 93 0 L 93 730 L 521 730 L 521 630 L 206 630 L 206 414 L 504 414 L 504 316 L 206 316 L 206 100 L 540 100 L 540 0 Z M 365 779 L 268 779 L 268 943 L 365 943 L 365 779 Z" unicode="Ė" />
<glyph horiz-adv-x="635" d="M 328 -11 C 245 -11 177 13 123 63 C 69 112 42 182 42 272 C 42 325 54 373 78 417 C 102 460 136 494 178 520 C 220 545 269 558 323 558 C 405 558 470 529 519 473 C 568 417 593 338 594 236 L 150 236 C 152 197 169 162 199 132 C 229 101 270 86 324 86 C 368 86 403 93 430 108 C 457 122 479 140 497 161 L 564 86 C 538 58 507 34 471 16 C 435 -1 387 -11 328 -11 Z M 149 317 L 482 317 C 480 360 465 396 435 424 C 405 452 366 466 319 466 C 271 466 232 451 201 421 C 170 391 153 356 149 317 Z M 369 595 L 272 595 L 272 759 L 369 759 L 369 595 Z" unicode="ė" />
<glyph horiz-adv-x="595" d="M 540 0 L 93 0 L 93 730 L 521 730 L 521 630 L 206 630 L 206 414 L 504 414 L 504 316 L 206 316 L 206 100 L 540 100 L 540 0 Z M 609 -88 L 639 -132 C 597 -175 546 -197 485 -197 C 449 -197 422 -189 402 -175 C 382 -161 373 -142 373 -119 C 373 -96 381 -74 398 -54 C 414 -33 437 -15 466 0 L 540 0 C 516 -12 498 -25 484 -38 C 470 -51 464 -64 464 -77 C 464 -89 469 -99 479 -107 C 489 -115 503 -119 520 -119 C 538 -119 555 -116 571 -110 C 586 -104 599 -97 609 -88 Z" unicode="Ę" />
<glyph horiz-adv-x="635" d="M 328 -11 C 245 -11 177 13 123 63 C 69 112 42 182 42 272 C 42 325 54 373 78 417 C 102 460 136 494 178 520 C 220 545 269 558 323 558 C 405 558 470 529 519 473 C 568 417 593 338 594 236 L 150 236 C 152 197 169 162 199 132 C 229 101 270 86 324 86 C 368 86 403 93 430 108 C 457 122 479 140 497 161 L 564 86 C 538 58 507 34 471 16 C 435 -1 387 -11 328 -11 Z M 149 317 L 482 317 C 480 360 465 396 435 424 C 405 452 366 466 319 466 C 271 466 232 451 201 421 C 170 391 153 356 149 317 Z M 493 -88 L 523 -132 C 481 -175 430 -197 369 -197 C 333 -197 306 -189 286 -175 C 266 -161 257 -142 257 -119 C 257 -96 265 -74 282 -54 C 298 -33 321 -15 350 0 L 424 0 C 400 -12 382 -25 368 -38 C 354 -51 348 -64 348 -77 C 348 -89 353 -99 363 -107 C 373 -115 387 -119 404 -119 C 422 -119 439 -116 455 -110 C 470 -104 483 -97 493 -88 Z" unicode="ę" />
<glyph horiz-adv-x="595" d="M 540 0 L 93 0 L 93 730 L 521 730 L 521 630 L 206 630 L 206 414 L 504 414 L 504 316 L 206 316 L 206 100 L 540 100 L 540 0 Z M 139 951 L 238 951 L 317 843 L 397 951 L 494 951 L 371 779 L 262 779 L 139 951 Z" unicode="Ě" />
<glyph horiz-adv-x="635" d="M 328 -11 C 245 -11 177 13 123 63 C 69 112 42 182 42 272 C 42 325 54 373 78 417 C 102 460 136 494 178 520 C 220 545 269 558 323 558 C 405 558 470 529 519 473 C 568 417 593 338 594 236 L 150 236 C 152 197 169 162 199 132 C 229 101 270 86 324 86 C 368 86 403 93 430 108 C 457 122 479 140 497 161 L 564 86 C 538 58 507 34 471 16 C 435 -1 387 -11 328 -11 Z M 149 317 L 482 317 C 480 360 465 396 435 424 C 405 452 366 466 319 466 C 271 466 232 451 201 421 C 170 391 153 356 149 317 Z M 143 767 L 242 767 L 321 659 L 401 767 L 498 767 L 375 595 L 266 595 L 143 767 Z" unicode="ě" />
<glyph horiz-adv-x="795" d="M 424 372 L 744 372 L 744 154 C 714 104 671 63 613 33 C 555 3 490 -12 419 -12 C 349 -12 285 3 229 34 C 173 65 128 109 95 165 C 62 221 46 288 46 365 C 46 442 63 509 97 565 C 131 621 176 665 232 696 C 288 726 351 742 419 742 C 466 742 507 736 543 726 C 579 715 609 701 634 685 C 659 669 680 652 696 635 L 622 550 C 600 572 574 591 544 609 C 513 627 470 636 415 636 C 367 636 324 625 286 605 C 247 585 216 555 194 515 C 171 475 160 427 160 370 C 160 311 171 260 195 218 C 218 175 249 142 289 119 C 329 95 373 84 422 84 C 471 84 515 93 554 112 C 593 130 621 157 639 192 L 639 274 L 424 274 L 424 372 Z M 598 779 L 499 779 L 420 887 L 340 779 L 243 779 L 366 951 L 475 951 L 598 779 Z" unicode="Ĝ" />
<glyph horiz-adv-x="665" d="M 320 96 C 346 96 372 102 397 116 C 421 130 441 150 457 178 C 473 206 481 241 481 284 C 481 320 474 351 461 377 C 447 403 429 424 405 438 C 381 452 354 460 322 460 C 271 460 230 443 200 409 C 169 375 154 329 154 271 C 154 213 168 170 198 140 C 227 110 268 96 320 96 Z M 292 7 C 219 7 159 32 113 82 C 66 132 43 198 43 278 C 43 361 66 428 113 479 C 160 530 221 556 296 556 C 342 556 383 545 417 523 C 451 501 475 472 487 438 L 487 546 L 585 546 L 585 76 C 585 12 569 -40 539 -81 C 509 -122 471 -152 426 -172 C 380 -192 335 -202 289 -202 C 229 -202 182 -196 150 -185 C 117 -174 93 -164 77 -154 L 126 -64 C 138 -73 158 -83 186 -94 C 213 -104 244 -110 280 -110 C 318 -110 352 -103 382 -89 C 412 -75 436 -54 454 -27 C 472 0 481 33 481 73 L 481 140 C 471 111 449 82 417 52 C 384 22 342 7 292 7 Z M 490 595 L 391 595 L 312 703 L 232 595 L 135 595 L 258 767 L 367 767 L 490 595 Z" unicode="ĝ" />
<glyph horiz-adv-x="795" d="M 424 372 L 744 372 L 744 154 C 714 104 671 63 613 33 C 555 3 490 -12 419 -12 C 349 -12 285 3 229 34 C 173 65 128 109 95 165 C 62 221 46 288 46 365 C 46 442 63 509 97 565 C 131 621 176 665 232 696 C 288 726 351 742 419 742 C 466 742 507 736 543 726 C 579 715 609 701 634 685 C 659 669 680 652 696 635 L 622 550 C 600 572 574 591 544 609 C 513 627 470 636 415 636 C 367 636 324 625 286 605 C 247 585 216 555 194 515 C 171 475 160 427 160 370 C 160 311 171 260 195 218 C 218 175 249 142 289 119 C 329 95 373 84 422 84 C 471 84 515 93 554 112 C 593 130 621 157 639 192 L 639 274 L 424 274 L 424 372 Z M 494 941 L 583 941 C 579 885 562 845 532 820 C 502 794 464 782 420 782 C 375 782 338 794 308 820 C 278 845 261 885 257 941 L 346 941 C 348 914 354 893 366 877 C 377 861 395 854 420 854 C 444 854 462 861 474 877 C 486 892 492 913 494 941 Z" unicode="Ğ" />
<glyph horiz-adv-x="665" d="M 320 96 C 346 96 372 102 397 116 C 421 130 441 150 457 178 C 473 206 481 241 481 284 C 481 320 474 351 461 377 C 447 403 429 424 405 438 C 381 452 354 460 322 460 C 271 460 230 443 200 409 C 169 375 154 329 154 271 C 154 213 168 170 198 140 C 227 110 268 96 320 96 Z M 292 7 C 219 7 159 32 113 82 C 66 132 43 198 43 278 C 43 361 66 428 113 479 C 160 530 221 556 296 556 C 342 556 383 545 417 523 C 451 501 475 472 487 438 L 487 546 L 585 546 L 585 76 C 585 12 569 -40 539 -81 C 509 -122 471 -152 426 -172 C 380 -192 335 -202 289 -202 C 229 -202 182 -196 150 -185 C 117 -174 93 -164 77 -154 L 126 -64 C 138 -73 158 -83 186 -94 C 213 -104 244 -110 280 -110 C 318 -110 352 -103 382 -89 C 412 -75 436 -54 454 -27 C 472 0 481 33 481 73 L 481 140 C 471 111 449 82 417 52 C 384 22 342 7 292 7 Z M 386 757 L 475 757 C 471 701 454 661 424 636 C 394 610 356 598 312 598 C 267 598 230 610 200 636 C 170 661 153 701 149 757 L 238 757 C 240 730 246 709 258 693 C 269 677 287 670 312 670 C 336 670 354 677 366 693 C 378 708 384 729 386 757 Z" unicode="ğ" />
<glyph horiz-adv-x="795" d="M 424 372 L 744 372 L 744 154 C 714 104 671 63 613 33 C 555 3 490 -12 419 -12 C 349 -12 285 3 229 34 C 173 65 128 109 95 165 C 62 221 46 288 46 365 C 46 442 63 509 97 565 C 131 621 176 665 232 696 C 288 726 351 742 419 742 C 466 742 507 736 543 726 C 579 715 609 701 634 685 C 659 669 680 652 696 635 L 622 550 C 600 572 574 591 544 609 C 513 627 470 636 415 636 C 367 636 324 625 286 605 C 247 585 216 555 194 515 C 171 475 160 427 160 370 C 160 311 171 260 195 218 C 218 175 249 142 289 119 C 329 95 373 84 422 84 C 471 84 515 93 554 112 C 593 130 621 157 639 192 L 639 274 L 424 274 L 424 372 Z M 469 779 L 372 779 L 372 943 L 469 943 L 469 779 Z" unicode="Ġ" />
<glyph horiz-adv-x="665" d="M 320 96 C 346 96 372 102 397 116 C 421 130 441 150 457 178 C 473 206 481 241 481 284 C 481 320 474 351 461 377 C 447 403 429 424 405 438 C 381 452 354 460 322 460 C 271 460 230 443 200 409 C 169 375 154 329 154 271 C 154 213 168 170 198 140 C 227 110 268 96 320 96 Z M 292 7 C 219 7 159 32 113 82 C 66 132 43 198 43 278 C 43 361 66 428 113 479 C 160 530 221 556 296 556 C 342 556 383 545 417 523 C 451 501 475 472 487 438 L 487 546 L 585 546 L 585 76 C 585 12 569 -40 539 -81 C 509 -122 471 -152 426 -172 C 380 -192 335 -202 289 -202 C 229 -202 182 -196 150 -185 C 117 -174 93 -164 77 -154 L 126 -64 C 138 -73 158 -83 186 -94 C 213 -104 244 -110 280 -110 C 318 -110 352 -103 382 -89 C 412 -75 436 -54 454 -27 C 472 0 481 33 481 73 L 481 140 C 471 111 449 82 417 52 C 384 22 342 7 292 7 Z M 361 595 L 264 595 L 264 759 L 361 759 L 361 595 Z" unicode="ġ" />
<glyph horiz-adv-x="795" d="M 424 372 L 744 372 L 744 154 C 714 104 671 63 613 33 C 555 3 490 -12 419 -12 C 349 -12 285 3 229 34 C 173 65 128 109 95 165 C 62 221 46 288 46 365 C 46 442 63 509 97 565 C 131 621 176 665 232 696 C 288 726 351 742 419 742 C 466 742 507 736 543 726 C 579 715 609 701 634 685 C 659 669 680 652 696 635 L 622 550 C 600 572 574 591 544 609 C 513 627 470 636 415 636 C 367 636 324 625 286 605 C 247 585 216 555 194 515 C 171 475 160 427 160 370 C 160 311 171 260 195 218 C 218 175 249 142 289 119 C 329 95 373 84 422 84 C 471 84 515 93 554 112 C 593 130 621 157 639 192 L 639 274 L 424 274 L 424 372 Z M 496 -72 C 492 -113 484 -153 472 -191 C 460 -229 445 -262 428 -291 C 410 -319 393 -341 375 -355 L 295 -319 C 305 -308 316 -289 328 -263 C 340 -237 352 -207 363 -173 C 373 -139 381 -105 385 -72 L 496 -72 Z" unicode="Ģ" />
<glyph horiz-adv-x="665" d="M 320 96 C 346 96 372 102 397 116 C 421 130 441 150 457 178 C 473 206 481 241 481 284 C 481 320 474 351 461 377 C 447 403 429 424 405 438 C 381 452 354 460 322 460 C 271 460 230 443 200 409 C 169 375 154 329 154 271 C 154 213 168 170 198 140 C 227 110 268 96 320 96 Z M 292 7 C 219 7 159 32 113 82 C 66 132 43 198 43 278 C 43 361 66 428 113 479 C 160 530 221 556 296 556 C 342 556 383 545 417 523 C 451 501 475 472 487 438 L 487 546 L 585 546 L 585 76 C 585 12 569 -40 539 -81 C 509 -122 471 -152 426 -172 C 380 -192 335 -202 289 -202 C 229 -202 182 -196 150 -185 C 117 -174 93 -164 77 -154 L 126 -64 C 138 -73 158 -83 186 -94 C 213 -104 244 -110 280 -110 C 318 -110 352 -103 382 -89 C 412 -75 436 -54 454 -27 C 472 0 481 33 481 73 L 481 140 C 471 111 449 82 417 52 C 384 22 342 7 292 7 Z M 266 600 C 269 641 277 681 289 719 C 301 757 316 790 334 819 C 351 847 369 869 387 883 L 467 847 C 457 836 445 817 433 791 C 421 765 409 735 399 701 C 388 667 381 633 377 600 L 266 600 Z" unicode="ģ" />
<glyph horiz-adv-x="769" d="M 676 0 L 561 0 L 561 310 L 208 310 L 208 0 L 93 0 L 93 730 L 208 730 L 208 410 L 561 410 L 561 730 L 676 730 L 676 0 Z M 562 779 L 463 779 L 384 887 L 304 779 L 207 779 L 330 951 L 439 951 L 562 779 Z" unicode="Ĥ" />
<glyph horiz-adv-x="645" d="M 567 0 L 460 0 L 460 367 C 460 397 448 420 426 438 C 403 456 375 465 341 465 C 317 465 294 460 272 451 C 249 441 230 427 215 409 C 200 391 193 368 193 340 L 193 0 L 85 0 L 85 800 L 183 800 L 183 445 C 191 477 213 504 249 526 C 284 547 327 558 377 558 C 427 558 471 544 509 517 C 547 489 567 450 567 399 L 567 0 Z M 550 849 L 451 849 L 372 957 L 292 849 L 195 849 L 318 1021 L 427 1021 L 550 849 Z" unicode="ĥ" />
<glyph horiz-adv-x="769" d="M 761 536 L 10 536 L 10 628 L 761 628 L 761 536 Z M 676 0 L 561 0 L 561 310 L 208 310 L 208 0 L 93 0 L 93 730 L 208 730 L 208 410 L 561 410 L 561 730 L 676 730 L 676 0 Z" unicode="Ħ" />
<glyph horiz-adv-x="645" d="M 361 616 L 10 616 L 10 708 L 361 708 L 361 616 Z M 567 0 L 460 0 L 460 367 C 460 397 448 420 426 438 C 403 456 375 465 341 465 C 317 465 294 460 272 451 C 249 441 230 427 215 409 C 200 391 193 368 193 340 L 193 0 L 85 0 L 85 800 L 183 800 L 183 445 C 191 477 213 504 249 526 C 284 547 327 558 377 558 C 427 558 471 544 509 517 C 547 489 567 450 567 399 L 567 0 Z" unicode="ħ" />
<glyph horiz-adv-x="309" d="M 212 0 L 97 0 L 97 730 L 212 730 L 212 0 Z M 249 926 L 335 926 C 335 877 327 841 312 818 C 296 795 275 784 248 784 C 230 784 213 787 199 795 C 185 802 171 810 159 819 C 147 827 136 835 126 843 C 115 851 104 855 94 855 C 83 855 74 849 68 838 C 61 827 57 810 57 788 L -27 788 C -27 836 -16 871 3 895 C 23 918 45 930 69 930 C 87 930 102 926 116 918 C 129 910 142 902 154 893 C 164 884 174 876 184 870 C 193 864 202 861 212 861 C 222 861 230 866 237 877 C 244 888 248 904 249 926 Z" unicode="Ĩ" />
<glyph horiz-adv-x="283" d="M 196 0 L 87 0 L 87 546 L 196 546 L 196 0 Z M 236 742 L 322 742 C 322 693 314 657 299 634 C 283 611 262 600 235 600 C 217 600 200 603 186 611 C 172 618 158 626 146 635 C 134 643 123 651 113 659 C 102 667 91 671 81 671 C 70 671 61 665 55 654 C 48 643 44 626 44 604 L -40 604 C -40 652 -29 687 -9 711 C 10 734 32 746 56 746 C 74 746 89 742 103 734 C 116 726 129 718 141 709 C 151 700 161 692 171 686 C 180 680 189 677 199 677 C 209 677 217 682 224 693 C 231 704 235 720 236 742 Z" unicode="ĩ" />
<glyph horiz-adv-x="309" d="M 212 0 L 97 0 L 97 730 L 212 730 L 212 0 Z M 289 786 L 19 786 L 19 878 L 289 878 L 289 786 Z" unicode="Ī" />
<glyph horiz-adv-x="283" d="M 196 0 L 87 0 L 87 546 L 196 546 L 196 0 Z M 276 602 L 6 602 L 6 694 L 276 694 L 276 602 Z" unicode="ī" />
<glyph horiz-adv-x="309" d="M 212 0 L 97 0 L 97 730 L 212 730 L 212 0 Z M 228 941 L 317 941 C 313 885 296 845 266 820 C 236 794 198 782 154 782 C 109 782 72 794 42 820 C 12 845 -4 885 -9 941 L 80 941 C 82 914 88 893 100 877 C 111 861 129 854 154 854 C 178 854 196 861 208 877 C 220 892 226 913 228 941 Z" unicode="Ĭ" />
<glyph horiz-adv-x="283" d="M 196 0 L 87 0 L 87 546 L 196 546 L 196 0 Z M 215 757 L 304 757 C 300 701 283 661 253 636 C 223 610 185 598 141 598 C 96 598 59 610 29 636 C 0 661 -17 701 -22 757 L 67 757 C 69 730 75 709 87 693 C 98 677 116 670 141 670 C 165 670 183 677 195 693 C 207 708 213 729 215 757 Z" unicode="ĭ" />
<glyph horiz-adv-x="309" d="M 212 0 L 97 0 L 97 730 L 212 730 L 212 0 Z M 240 -88 L 270 -132 C 228 -175 177 -197 116 -197 C 80 -197 53 -189 33 -175 C 13 -161 4 -142 4 -119 C 4 -96 12 -74 29 -54 C 45 -33 68 -15 97 0 L 171 0 C 147 -12 129 -25 115 -38 C 101 -51 95 -64 95 -77 C 95 -89 100 -99 110 -107 C 120 -115 134 -119 151 -119 C 169 -119 186 -116 202 -110 C 217 -104 230 -97 240 -88 Z" unicode="Į" />
<glyph horiz-adv-x="283" d="M 85 660 L 85 778 L 198 778 L 198 660 L 85 660 Z M 87 0 L 87 546 L 196 546 L 196 0 L 87 0 Z M 230 -88 L 260 -132 C 218 -175 167 -197 106 -197 C 70 -197 43 -189 23 -175 C 3 -161 -6 -142 -6 -119 C -6 -96 2 -74 19 -54 C 35 -33 58 -15 87 0 L 161 0 C 137 -12 119 -25 105 -38 C 91 -51 85 -64 85 -77 C 85 -89 90 -99 100 -107 C 110 -115 124 -119 141 -119 C 159 -119 176 -116 192 -110 C 207 -104 220 -97 230 -88 Z" unicode="į" />
<glyph horiz-adv-x="309" d="M 212 0 L 97 0 L 97 730 L 212 730 L 212 0 Z M 203 779 L 106 779 L 106 943 L 203 943 L 203 779 Z" unicode="İ" />
<glyph horiz-adv-x="283" d="M 196 0 L 87 0 L 87 546 L 196 546 L 196 0 Z" unicode="ı" />
<glyph horiz-adv-x="659" d="M 212 0 L 97 0 L 97 730 L 212 730 L 212 0 Z M 569 730 L 569 197 C 569 140 550 91 512 50 C 474 8 421 -12 352 -12 C 333 -12 311 -10 287 -7 C 262 -3 243 2 230 12 L 273 101 C 279 97 288 94 300 92 C 311 90 323 89 336 89 C 374 89 403 99 423 121 C 443 143 454 169 454 199 L 454 730 L 569 730 Z" unicode="Ĳ" />
<glyph horiz-adv-x="534" d="M 85 660 L 85 778 L 198 778 L 198 660 L 85 660 Z M 87 0 L 87 546 L 196 546 L 196 0 L 87 0 Z M 457 660 L 345 660 L 345 778 L 457 778 L 457 660 Z M 455 546 L 455 5 C 455 -41 447 -79 431 -110 C 415 -140 395 -163 369 -179 C 343 -194 314 -202 283 -202 C 255 -202 227 -199 199 -193 C 171 -187 148 -178 130 -166 L 164 -80 C 177 -87 193 -93 211 -98 C 229 -103 249 -106 272 -106 C 293 -106 311 -94 325 -72 C 339 -50 347 -22 347 11 L 347 546 L 455 546 Z" unicode="ĳ" />
<glyph horiz-adv-x="439" d="M 349 730 L 349 197 C 349 140 330 91 292 50 C 254 8 201 -12 132 -12 C 113 -12 91 -10 67 -7 C 42 -3 23 2 10 12 L 53 101 C 59 97 68 94 80 92 C 91 90 103 89 116 89 C 154 89 183 99 203 121 C 223 143 234 169 234 199 L 234 730 L 349 730 Z M 467 779 L 368 779 L 289 887 L 209 779 L 112 779 L 235 951 L 344 951 L 467 779 Z" unicode="Ĵ" />
<glyph horiz-adv-x="336" d="M 257 546 L 257 5 C 257 -41 249 -79 233 -110 C 217 -140 197 -163 171 -179 C 145 -194 116 -202 85 -202 C 57 -202 29 -199 1 -193 C -26 -187 -49 -178 -68 -166 L -34 -80 C -20 -87 -5 -93 13 -98 C 31 -103 51 -106 74 -106 C 95 -106 113 -94 127 -72 C 141 -50 149 -22 149 11 L 149 546 L 257 546 Z M 374 595 L 275 595 L 196 703 L 116 595 L 19 595 L 142 767 L 251 767 L 374 595 Z" unicode="ĵ" />
<glyph horiz-adv-x="684" d="M 672 0 L 532 0 L 303 327 L 207 210 L 207 0 L 93 0 L 93 730 L 207 730 L 207 343 L 508 730 L 635 730 L 384 410 L 672 0 Z M 436 -72 C 432 -113 424 -153 412 -191 C 400 -229 385 -262 368 -291 C 350 -319 333 -341 315 -355 L 235 -319 C 245 -308 256 -289 268 -263 C 280 -237 292 -207 303 -173 C 313 -139 321 -105 325 -72 L 436 -72 Z" unicode="Ķ" />
<glyph horiz-adv-x="591" d="M 615 3 L 491 -1 L 292 245 L 193 142 L 193 0 L 85 0 L 85 800 L 193 800 L 193 257 L 452 546 L 568 546 L 365 321 L 615 3 Z M 401 -72 C 397 -113 389 -153 377 -191 C 365 -229 350 -262 333 -291 C 315 -319 298 -341 280 -355 L 200 -319 C 210 -308 221 -289 233 -263 C 245 -237 257 -207 268 -173 C 278 -139 286 -105 290 -72 L 401 -72 Z" unicode="ķ" />
<glyph horiz-adv-x="591" d="M 615 3 L 491 -1 L 292 245 L 193 142 L 193 0 L 85 0 L 85 546 L 193 546 L 193 257 L 452 546 L 568 546 L 365 321 L 615 3 Z" unicode="ĸ" />
<glyph horiz-adv-x="543" d="M 531 0 L 93 0 L 93 730 L 208 730 L 208 100 L 531 100 L 531 0 Z M 246 788 L 350 950 L 477 950 L 353 788 L 246 788 Z" unicode="Ĺ" />
<glyph horiz-adv-x="322" d="M 78 133 L 78 800 L 186 800 L 186 167 C 186 143 192 125 204 111 C 216 97 235 90 259 90 C 267 90 277 90 287 91 C 297 92 304 94 310 96 L 312 2 C 305 0 294 -1 279 -3 C 263 -5 249 -6 236 -6 C 209 -6 183 -1 159 9 C 135 19 115 34 100 55 C 85 75 78 101 78 133 Z M 88 858 L 192 1020 L 319 1020 L 195 858 L 88 858 Z" unicode="ĺ" />
<glyph horiz-adv-x="543" d="M 531 0 L 93 0 L 93 730 L 208 730 L 208 100 L 531 100 L 531 0 Z M 391 -72 C 387 -113 379 -153 367 -191 C 355 -229 340 -262 323 -291 C 305 -319 288 -341 270 -355 L 190 -319 C 200 -308 211 -289 223 -263 C 235 -237 247 -207 258 -173 C 268 -139 276 -105 280 -72 L 391 -72 Z" unicode="Ļ" />
<glyph horiz-adv-x="322" d="M 78 133 L 78 800 L 186 800 L 186 167 C 186 143 192 125 204 111 C 216 97 235 90 259 90 C 267 90 277 90 287 91 C 297 92 304 94 310 96 L 312 2 C 305 0 294 -1 279 -3 C 263 -5 249 -6 236 -6 C 209 -6 183 -1 159 9 C 135 19 115 34 100 55 C 85 75 78 101 78 133 Z M 247 -72 C 243 -113 235 -153 223 -191 C 211 -229 196 -262 179 -291 C 161 -319 144 -341 126 -355 L 46 -319 C 56 -308 67 -289 79 -263 C 91 -237 103 -207 114 -173 C 124 -139 132 -105 136 -72 L 247 -72 Z" unicode="ļ" />
<glyph horiz-adv-x="543" d="M 531 0 L 93 0 L 93 730 L 208 730 L 208 100 L 531 100 L 531 0 Z M 567 598 L 562 443 L 472 443 L 467 598 L 467 730 L 567 730 L 567 598 Z" unicode="Ľ" />
<glyph horiz-adv-x="322" d="M 78 133 L 78 800 L 186 800 L 186 167 C 186 143 192 125 204 111 C 216 97 235 90 259 90 C 267 90 277 90 287 91 C 297 92 304 94 310 96 L 312 2 C 305 0 294 -1 279 -3 C 263 -5 249 -6 236 -6 C 209 -6 183 -1 159 9 C 135 19 115 34 100 55 C 85 75 78 101 78 133 Z M 345 598 L 340 443 L 250 443 L 245 598 L 245 730 L 345 730 L 345 598 Z" unicode="ľ" />
<glyph horiz-adv-x="543" d="M 531 0 L 93 0 L 93 730 L 208 730 L 208 100 L 531 100 L 531 0 Z M 410 282 L 313 282 L 313 446 L 410 446 L 410 282 Z" unicode="Ŀ" />
<glyph horiz-adv-x="322" d="M 78 133 L 78 800 L 186 800 L 186 167 C 186 143 192 125 204 111 C 216 97 235 90 259 90 C 267 90 277 90 287 91 C 297 92 304 94 310 96 L 312 2 C 305 0 294 -1 279 -3 C 263 -5 249 -6 236 -6 C 209 -6 183 -1 159 9 C 135 19 115 34 100 55 C 85 75 78 101 78 133 Z M 346 231 L 249 231 L 249 395 L 346 395 L 346 231 Z" unicode="ŀ" />
<glyph horiz-adv-x="543" d="M 37 243 L -1 322 L 385 480 L 421 401 L 37 243 Z M 93 0 L 93 730 L 208 730 L 208 94 L 496 94 L 496 0 L 93 0 Z" unicode="Ł" />
<glyph horiz-adv-x="322" d="M 236 -6 C 209 -6 183 -1 159 9 C 135 19 115 34 100 55 C 85 75 78 101 78 133 L 78 800 L 186 800 L 186 167 C 186 143 192 125 204 111 C 216 97 235 90 259 90 C 267 90 277 90 287 91 C 297 92 304 94 310 96 L 312 2 C 305 0 294 -1 279 -3 C 263 -5 249 -6 236 -6 Z M 24 244 L -3 307 L 277 442 L 305 379 L 24 244 Z" unicode="ł" />
<glyph horiz-adv-x="791" d="M 698 0 L 616 0 L 200 531 L 200 0 L 93 0 L 93 730 L 181 730 L 593 205 L 593 730 L 698 730 L 698 0 Z M 280 788 L 384 950 L 511 950 L 387 788 L 280 788 Z" unicode="Ń" />
<glyph horiz-adv-x="645" d="M 567 0 L 459 0 L 459 370 C 459 400 447 424 424 440 C 400 456 373 465 343 465 C 320 465 297 460 274 451 C 251 441 232 427 216 409 C 200 390 193 366 193 338 L 193 0 L 85 0 L 85 546 L 178 546 L 178 431 C 190 468 214 498 250 522 C 286 546 328 558 378 558 C 428 558 472 544 510 516 C 548 488 567 450 567 404 L 567 0 Z M 229 604 L 333 766 L 460 766 L 336 604 L 229 604 Z" unicode="ń" />
<glyph horiz-adv-x="791" d="M 698 0 L 616 0 L 200 531 L 200 0 L 93 0 L 93 730 L 181 730 L 593 205 L 593 730 L 698 730 L 698 0 Z M 471 -72 C 467 -113 459 -153 447 -191 C 435 -229 420 -262 403 -291 C 385 -319 368 -341 350 -355 L 270 -319 C 280 -308 291 -289 303 -263 C 315 -237 327 -207 338 -173 C 348 -139 356 -105 360 -72 L 471 -72 Z" unicode="Ņ" />
<glyph horiz-adv-x="645" d="M 567 0 L 459 0 L 459 370 C 459 400 447 424 424 440 C 400 456 373 465 343 465 C 320 465 297 460 274 451 C 251 441 232 427 216 409 C 200 390 193 366 193 338 L 193 0 L 85 0 L 85 546 L 178 546 L 178 431 C 190 468 214 498 250 522 C 286 546 328 558 378 558 C 428 558 472 544 510 516 C 548 488 567 450 567 404 L 567 0 Z M 402 -72 C 398 -113 390 -153 378 -191 C 366 -229 351 -262 334 -291 C 316 -319 299 -341 281 -355 L 201 -319 C 211 -308 222 -289 234 -263 C 246 -237 258 -207 269 -173 C 279 -139 287 -105 291 -72 L 402 -72 Z" unicode="ņ" />
<glyph horiz-adv-x="791" d="M 698 0 L 616 0 L 200 531 L 200 0 L 93 0 L 93 730 L 181 730 L 593 205 L 593 730 L 698 730 L 698 0 Z M 218 951 L 317 951 L 396 843 L 476 951 L 573 951 L 450 779 L 341 779 L 218 951 Z" unicode="Ň" />
<glyph horiz-adv-x="645" d="M 567 0 L 459 0 L 459 370 C 459 400 447 424 424 440 C 400 456 373 465 343 465 C 320 465 297 460 274 451 C 251 441 232 427 216 409 C 200 390 193 366 193 338 L 193 0 L 85 0 L 85 546 L 178 546 L 178 431 C 190 468 214 498 250 522 C 286 546 328 558 378 558 C 428 558 472 544 510 516 C 548 488 567 450 567 404 L 567 0 Z M 167 767 L 266 767 L 345 659 L 425 767 L 522 767 L 399 595 L 290 595 L 167 767 Z" unicode="ň" />
<glyph horiz-adv-x="791" d="M 698 546 L 698 5 C 698 -63 681 -115 649 -150 C 616 -184 576 -202 529 -202 C 501 -202 473 -199 445 -193 C 417 -187 394 -178 376 -166 L 410 -80 C 423 -87 439 -93 457 -98 C 475 -103 495 -106 518 -106 C 539 -106 557 -94 571 -72 C 585 -50 593 -22 593 11 L 593 546 L 698 546 Z M 698 0 L 616 0 L 200 531 L 200 0 L 93 0 L 93 730 L 181 730 L 593 205 L 593 730 L 698 730 L 698 0 Z" unicode="Ŋ" />
<glyph horiz-adv-x="645" d="M 567 346 L 567 5 C 567 -41 559 -79 543 -110 C 527 -140 507 -163 481 -179 C 455 -194 426 -202 395 -202 C 367 -202 339 -199 311 -193 C 283 -187 260 -178 242 -166 L 276 -80 C 289 -87 305 -93 323 -98 C 341 -103 361 -106 384 -106 C 405 -106 423 -94 437 -72 C 451 -50 459 -22 459 11 L 459 346 L 567 346 Z M 567 0 L 459 0 L 459 370 C 459 400 447 424 424 440 C 400 456 373 465 343 465 C 320 465 297 460 274 451 C 251 441 232 427 216 409 C 200 390 193 366 193 338 L 193 0 L 85 0 L 85 546 L 178 546 L 178 431 C 190 468 214 498 250 522 C 286 546 328 558 378 558 C 428 558 472 544 510 516 C 548 488 567 450 567 404 L 567 0 Z" unicode="ŋ" />
<glyph horiz-adv-x="840" d="M 431 87 C 478 87 520 97 558 119 C 595 141 625 172 647 213 C 669 254 680 304 680 363 C 680 417 668 464 644 506 C 620 547 588 579 547 603 C 506 626 460 638 408 638 C 360 638 318 627 281 606 C 243 585 214 555 192 515 C 170 475 160 428 160 373 C 160 314 172 263 197 221 C 221 178 254 145 295 122 C 336 98 381 87 431 87 Z M 423 -12 C 349 -12 283 4 227 38 C 170 72 126 117 94 175 C 62 233 46 298 46 370 C 46 442 62 506 95 562 C 128 618 172 662 228 694 C 284 726 346 742 415 742 C 489 742 554 726 611 694 C 668 662 713 617 745 561 C 777 505 794 440 794 368 C 794 292 777 226 743 169 C 709 112 664 68 608 36 C 552 4 490 -12 423 -12 Z M 549 786 L 279 786 L 279 878 L 549 878 L 549 786 Z" unicode="Ō" />
<glyph horiz-adv-x="657" d="M 324 -11 C 274 -11 228 0 186 22 C 143 44 108 76 82 118 C 55 160 42 211 42 271 C 42 325 55 374 81 418 C 107 461 142 495 185 520 C 228 545 275 558 326 558 C 380 558 428 546 472 524 C 516 502 550 470 576 430 C 602 389 615 341 615 286 C 615 227 601 175 575 131 C 549 87 514 52 470 27 C 426 1 377 -11 324 -11 Z M 330 85 C 382 85 424 103 456 140 C 488 177 504 224 504 281 C 504 333 487 376 454 410 C 421 444 377 461 323 461 C 289 461 259 452 234 436 C 208 420 189 397 175 368 C 161 339 154 306 154 269 C 154 230 161 197 177 170 C 193 142 214 121 240 107 C 266 92 296 85 330 85 Z M 461 602 L 191 602 L 191 694 L 461 694 L 461 602 Z" unicode="ō" />
<glyph horiz-adv-x="840" d="M 431 87 C 478 87 520 97 558 119 C 595 141 625 172 647 213 C 669 254 680 304 680 363 C 680 417 668 464 644 506 C 620 547 588 579 547 603 C 506 626 460 638 408 638 C 360 638 318 627 281 606 C 243 585 214 555 192 515 C 170 475 160 428 160 373 C 160 314 172 263 197 221 C 221 178 254 145 295 122 C 336 98 381 87 431 87 Z M 423 -12 C 349 -12 283 4 227 38 C 170 72 126 117 94 175 C 62 233 46 298 46 370 C 46 442 62 506 95 562 C 128 618 172 662 228 694 C 284 726 346 742 415 742 C 489 742 554 726 611 694 C 668 662 713 617 745 561 C 777 505 794 440 794 368 C 794 292 777 226 743 169 C 709 112 664 68 608 36 C 552 4 490 -12 423 -12 Z M 488 941 L 577 941 C 573 885 556 845 526 820 C 496 794 458 782 414 782 C 369 782 332 794 302 820 C 272 845 255 885 251 941 L 340 941 C 342 914 348 893 360 877 C 371 861 389 854 414 854 C 438 854 456 861 468 877 C 480 892 486 913 488 941 Z" unicode="Ŏ" />
<glyph horiz-adv-x="657" d="M 324 -11 C 274 -11 228 0 186 22 C 143 44 108 76 82 118 C 55 160 42 211 42 271 C 42 325 55 374 81 418 C 107 461 142 495 185 520 C 228 545 275 558 326 558 C 380 558 428 546 472 524 C 516 502 550 470 576 430 C 602 389 615 341 615 286 C 615 227 601 175 575 131 C 549 87 514 52 470 27 C 426 1 377 -11 324 -11 Z M 330 85 C 382 85 424 103 456 140 C 488 177 504 224 504 281 C 504 333 487 376 454 410 C 421 444 377 461 323 461 C 289 461 259 452 234 436 C 208 420 189 397 175 368 C 161 339 154 306 154 269 C 154 230 161 197 177 170 C 193 142 214 121 240 107 C 266 92 296 85 330 85 Z M 400 757 L 489 757 C 485 701 468 661 438 636 C 408 610 370 598 326 598 C 281 598 244 610 214 636 C 184 661 167 701 163 757 L 252 757 C 254 730 260 709 272 693 C 283 677 301 670 326 670 C 350 670 368 677 380 693 C 392 708 398 729 400 757 Z" unicode="ŏ" />
<glyph horiz-adv-x="840" d="M 431 87 C 478 87 520 97 558 119 C 595 141 625 172 647 213 C 669 254 680 304 680 363 C 680 417 668 464 644 506 C 620 547 588 579 547 603 C 506 626 460 638 408 638 C 360 638 318 627 281 606 C 243 585 214 555 192 515 C 170 475 160 428 160 373 C 160 314 172 263 197 221 C 221 178 254 145 295 122 C 336 98 381 87 431 87 Z M 423 -12 C 349 -12 283 4 227 38 C 170 72 126 117 94 175 C 62 233 46 298 46 370 C 46 442 62 506 95 562 C 128 618 172 662 228 694 C 284 726 346 742 415 742 C 489 742 554 726 611 694 C 668 662 713 617 745 561 C 777 505 794 440 794 368 C 794 292 777 226 743 169 C 709 112 664 68 608 36 C 552 4 490 -12 423 -12 Z M 213 778 L 308 929 L 421 929 L 307 778 L 213 778 Z M 407 778 L 503 929 L 616 929 L 501 778 L 407 778 Z" unicode="Ő" />
<glyph horiz-adv-x="657" d="M 324 -11 C 274 -11 228 0 186 22 C 143 44 108 76 82 118 C 55 160 42 211 42 271 C 42 325 55 374 81 418 C 107 461 142 495 185 520 C 228 545 275 558 326 558 C 380 558 428 546 472 524 C 516 502 550 470 576 430 C 602 389 615 341 615 286 C 615 227 601 175 575 131 C 549 87 514 52 470 27 C 426 1 377 -11 324 -11 Z M 330 85 C 382 85 424 103 456 140 C 488 177 504 224 504 281 C 504 333 487 376 454 410 C 421 444 377 461 323 461 C 289 461 259 452 234 436 C 208 420 189 397 175 368 C 161 339 154 306 154 269 C 154 230 161 197 177 170 C 193 142 214 121 240 107 C 266 92 296 85 330 85 Z M 125 594 L 220 745 L 333 745 L 219 594 L 125 594 Z M 319 594 L 415 745 L 528 745 L 413 594 L 319 594 Z" unicode="ő" />
<glyph horiz-adv-x="1174" d="M 421 84 C 468 84 511 94 549 116 C 587 137 618 169 641 211 C 663 253 675 305 675 367 C 675 427 661 478 635 518 C 608 558 575 589 536 609 C 496 629 457 639 419 639 C 371 639 327 628 289 606 C 251 584 220 553 198 512 C 175 471 164 422 164 364 C 164 304 175 253 198 211 C 221 169 252 138 291 116 C 330 94 373 84 421 84 Z M 408 -12 C 336 -12 272 4 218 37 C 164 69 121 114 91 172 C 61 229 46 295 46 369 C 46 439 62 502 95 558 C 128 614 172 659 228 692 C 284 725 346 742 415 742 C 449 742 483 735 519 722 C 554 709 586 691 614 668 C 642 645 663 619 675 589 L 675 730 L 1099 730 L 1099 629 L 781 629 L 781 413 L 1083 413 L 1083 317 L 781 317 L 781 100 L 1119 100 L 1119 0 L 675 0 L 675 158 C 663 126 644 97 619 71 C 594 45 564 25 528 10 C 492 -4 452 -12 408 -12 Z" unicode="Œ" />
<glyph horiz-adv-x="1093" d="M 330 85 C 364 85 395 93 421 109 C 447 125 467 148 482 178 C 496 207 504 241 504 281 C 504 315 496 346 481 373 C 466 400 445 421 418 437 C 391 453 359 461 323 461 C 289 461 259 452 234 436 C 208 420 189 397 175 369 C 161 340 154 307 154 269 C 154 230 161 197 177 170 C 193 142 214 121 240 107 C 266 92 296 85 330 85 Z M 324 -11 C 274 -11 228 0 186 22 C 143 44 108 76 82 118 C 55 160 42 211 42 271 C 42 324 55 372 81 416 C 107 459 142 493 185 519 C 228 545 275 558 326 558 C 372 558 410 550 441 534 C 472 518 497 499 515 477 C 533 455 545 435 551 418 C 555 434 567 453 588 475 C 609 497 636 516 670 533 C 703 549 740 558 781 558 C 863 558 928 530 977 474 C 1026 418 1051 339 1052 239 L 609 239 C 609 195 625 158 659 129 C 693 99 734 85 784 85 C 827 85 862 92 889 108 C 915 123 937 141 955 161 L 1022 86 C 996 58 965 34 929 16 C 893 -1 845 -11 786 -11 C 728 -11 677 4 631 35 C 585 66 558 96 548 125 C 542 107 530 87 510 66 C 490 45 465 27 433 12 C 401 -3 364 -11 324 -11 Z M 610 317 L 940 317 C 938 361 923 397 893 425 C 863 452 824 466 777 466 C 729 466 691 451 661 422 C 631 392 614 357 610 317 Z" unicode="œ" />
<glyph horiz-adv-x="629" d="M 93 0 L 93 730 L 330 730 C 371 730 408 722 441 706 C 474 690 500 668 520 639 C 539 609 549 574 549 533 C 549 471 532 423 499 389 C 466 355 429 334 389 328 L 387 324 L 609 0 L 473 0 L 277 299 L 207 299 L 207 0 L 93 0 Z M 205 393 L 302 393 C 338 393 369 403 395 424 C 420 445 433 477 433 519 C 433 557 421 586 398 607 C 374 627 345 638 309 638 L 205 638 L 205 393 Z M 199 788 L 303 950 L 430 950 L 306 788 L 199 788 Z" unicode="Ŕ" />
<glyph horiz-adv-x="481" d="M 487 528 L 430 429 C 420 439 408 447 392 453 C 376 459 357 462 336 462 C 300 462 267 448 237 421 C 207 394 193 360 193 319 L 193 0 L 85 0 L 85 546 L 182 546 L 182 424 C 190 458 212 488 247 516 C 282 544 325 558 376 558 C 401 558 423 555 442 550 C 460 544 475 537 487 528 Z M 179 604 L 283 766 L 410 766 L 286 604 L 179 604 Z" unicode="ŕ" />
<glyph horiz-adv-x="629" d="M 93 0 L 93 730 L 330 730 C 371 730 408 722 441 706 C 474 690 500 668 520 639 C 539 609 549 574 549 533 C 549 471 532 423 499 389 C 466 355 429 334 389 328 L 387 324 L 609 0 L 473 0 L 277 299 L 207 299 L 207 0 L 93 0 Z M 205 393 L 302 393 C 338 393 369 403 395 424 C 420 445 433 477 433 519 C 433 557 421 586 398 607 C 374 627 345 638 309 638 L 205 638 L 205 393 Z M 398 -72 C 394 -113 386 -153 374 -191 C 362 -229 347 -262 330 -291 C 312 -319 295 -341 277 -355 L 197 -319 C 207 -308 218 -289 230 -263 C 242 -237 254 -207 265 -173 C 275 -139 283 -105 287 -72 L 398 -72 Z" unicode="Ŗ" />
<glyph horiz-adv-x="481" d="M 487 528 L 430 429 C 420 439 408 447 392 453 C 376 459 357 462 336 462 C 300 462 267 448 237 421 C 207 394 193 360 193 319 L 193 0 L 85 0 L 85 546 L 182 546 L 182 424 C 190 458 212 488 247 516 C 282 544 325 558 376 558 C 401 558 423 555 442 550 C 460 544 475 537 487 528 Z M 369 -72 C 365 -113 357 -153 345 -191 C 333 -229 318 -262 301 -291 C 283 -319 266 -341 248 -355 L 168 -319 C 178 -308 189 -289 201 -263 C 213 -237 225 -207 236 -173 C 246 -139 254 -105 258 -72 L 369 -72 Z" unicode="ŗ" />
<glyph horiz-adv-x="629" d="M 93 0 L 93 730 L 330 730 C 371 730 408 722 441 706 C 474 690 500 668 520 639 C 539 609 549 574 549 533 C 549 471 532 423 499 389 C 466 355 429 334 389 328 L 387 324 L 609 0 L 473 0 L 277 299 L 207 299 L 207 0 L 93 0 Z M 205 393 L 302 393 C 338 393 369 403 395 424 C 420 445 433 477 433 519 C 433 557 421 586 398 607 C 374 627 345 638 309 638 L 205 638 L 205 393 Z M 137 951 L 236 951 L 315 843 L 395 951 L 492 951 L 369 779 L 260 779 L 137 951 Z" unicode="Ř" />
<glyph horiz-adv-x="481" d="M 487 528 L 430 429 C 420 439 408 447 392 453 C 376 459 357 462 336 462 C 300 462 267 448 237 421 C 207 394 193 360 193 319 L 193 0 L 85 0 L 85 546 L 182 546 L 182 424 C 190 458 212 488 247 516 C 282 544 325 558 376 558 C 401 558 423 555 442 550 C 460 544 475 537 487 528 Z M 117 767 L 216 767 L 295 659 L 375 767 L 472 767 L 349 595 L 240 595 L 117 767 Z" unicode="ř" />
<glyph horiz-adv-x="612" d="M 311 -12 C 247 -12 193 -3 149 13 C 105 29 69 51 41 78 L 116 167 C 135 143 162 124 198 108 C 234 92 272 84 314 84 C 348 84 378 92 404 110 C 429 127 442 150 442 178 C 442 207 430 232 408 253 C 386 273 346 295 288 319 C 231 341 186 362 154 382 C 121 402 98 426 84 452 C 70 478 64 512 64 553 C 64 611 85 657 128 691 C 171 725 228 742 299 742 C 353 742 399 733 436 717 C 473 700 504 681 529 661 L 464 567 C 438 587 411 603 382 616 C 352 629 322 636 290 636 C 256 636 228 628 207 614 C 186 600 176 579 176 553 C 176 522 189 497 215 478 C 241 459 284 437 346 413 C 424 381 478 350 509 318 C 540 286 556 243 556 188 C 556 125 531 76 483 41 C 434 5 377 -12 311 -12 Z M 183 788 L 287 950 L 414 950 L 290 788 L 183 788 Z" unicode="Ś" />
<glyph horiz-adv-x="518" d="M 281 -11 C 228 -11 182 -4 142 8 C 102 21 68 38 41 59 L 88 132 C 113 116 143 102 177 91 C 211 80 244 75 276 75 C 302 75 325 82 344 96 C 362 110 372 128 372 149 C 372 167 362 183 343 198 C 324 212 288 227 234 242 C 191 254 157 268 133 284 C 108 300 90 319 80 341 C 69 362 64 385 64 411 C 64 455 83 491 121 518 C 159 544 207 558 263 558 C 318 558 362 551 395 538 C 427 524 452 511 470 499 L 431 418 C 407 432 382 445 356 456 C 330 466 302 472 272 472 C 245 472 222 466 203 455 C 183 443 174 428 174 409 C 174 389 181 374 196 362 C 210 350 246 336 302 320 C 364 301 410 279 439 253 C 467 227 482 194 482 153 C 482 119 473 89 455 65 C 437 41 412 22 382 9 C 352 -4 318 -11 281 -11 Z M 152 604 L 256 766 L 383 766 L 259 604 L 152 604 Z" unicode="ś" />
<glyph horiz-adv-x="612" d="M 311 -12 C 247 -12 193 -3 149 13 C 105 29 69 51 41 78 L 116 167 C 135 143 162 124 198 108 C 234 92 272 84 314 84 C 348 84 378 92 404 110 C 429 127 442 150 442 178 C 442 207 430 232 408 253 C 386 273 346 295 288 319 C 231 341 186 362 154 382 C 121 402 98 426 84 452 C 70 478 64 512 64 553 C 64 611 85 657 128 691 C 171 725 228 742 299 742 C 353 742 399 733 436 717 C 473 700 504 681 529 661 L 464 567 C 438 587 411 603 382 616 C 352 629 322 636 290 636 C 256 636 228 628 207 614 C 186 600 176 579 176 553 C 176 522 189 497 215 478 C 241 459 284 437 346 413 C 424 381 478 350 509 318 C 540 286 556 243 556 188 C 556 125 531 76 483 41 C 434 5 377 -12 311 -12 Z M 476 779 L 377 779 L 298 887 L 218 779 L 121 779 L 244 951 L 353 951 L 476 779 Z" unicode="Ŝ" />
<glyph horiz-adv-x="518" d="M 281 -11 C 228 -11 182 -4 142 8 C 102 21 68 38 41 59 L 88 132 C 113 116 143 102 177 91 C 211 80 244 75 276 75 C 302 75 325 82 344 96 C 362 110 372 128 372 149 C 372 167 362 183 343 198 C 324 212 288 227 234 242 C 191 254 157 268 133 284 C 108 300 90 319 80 341 C 69 362 64 385 64 411 C 64 455 83 491 121 518 C 159 544 207 558 263 558 C 318 558 362 551 395 538 C 427 524 452 511 470 499 L 431 418 C 407 432 382 445 356 456 C 330 466 302 472 272 472 C 245 472 222 466 203 455 C 183 443 174 428 174 409 C 174 389 181 374 196 362 C 210 350 246 336 302 320 C 364 301 410 279 439 253 C 467 227 482 194 482 153 C 482 119 473 89 455 65 C 437 41 412 22 382 9 C 352 -4 318 -11 281 -11 Z M 445 595 L 346 595 L 267 703 L 187 595 L 90 595 L 213 767 L 322 767 L 445 595 Z" unicode="ŝ" />
<glyph horiz-adv-x="612" d="M 311 -12 C 247 -12 193 -3 149 13 C 105 29 69 51 41 78 L 116 167 C 135 143 162 124 198 108 C 234 92 272 84 314 84 C 348 84 378 92 404 110 C 429 127 442 150 442 178 C 442 207 430 232 408 253 C 386 273 346 295 288 319 C 231 341 186 362 154 382 C 121 402 98 426 84 452 C 70 478 64 512 64 553 C 64 611 85 657 128 691 C 171 725 228 742 299 742 C 353 742 399 733 436 717 C 473 700 504 681 529 661 L 464 567 C 438 587 411 603 382 616 C 352 629 322 636 290 636 C 256 636 228 628 207 614 C 186 600 176 579 176 553 C 176 522 189 497 215 478 C 241 459 284 437 346 413 C 424 381 478 350 509 318 C 540 286 556 243 556 188 C 556 125 531 76 483 41 C 434 5 377 -12 311 -12 Z M 310 -199 C 285 -199 260 -196 234 -190 C 208 -184 188 -176 174 -167 L 190 -120 C 199 -124 211 -129 226 -134 C 240 -139 257 -142 275 -142 C 288 -142 300 -139 310 -133 C 320 -127 326 -119 326 -109 C 326 -97 321 -89 312 -85 C 303 -80 293 -78 283 -78 C 271 -78 258 -80 246 -84 L 233 -70 L 294 5 L 358 5 L 308 -57 C 342 -50 371 -53 394 -66 C 416 -79 428 -98 428 -123 C 428 -148 416 -167 392 -180 C 368 -192 341 -199 310 -199 Z" unicode="Ş" />
<glyph horiz-adv-x="518" d="M 281 -11 C 228 -11 182 -4 142 8 C 102 21 68 38 41 59 L 88 132 C 113 116 143 102 177 91 C 211 80 244 75 276 75 C 302 75 325 82 344 96 C 362 110 372 128 372 149 C 372 167 362 183 343 198 C 324 212 288 227 234 242 C 191 254 157 268 133 284 C 108 300 90 319 80 341 C 69 362 64 385 64 411 C 64 455 83 491 121 518 C 159 544 207 558 263 558 C 318 558 362 551 395 538 C 427 524 452 511 470 499 L 431 418 C 407 432 382 445 356 456 C 330 466 302 472 272 472 C 245 472 222 466 203 455 C 183 443 174 428 174 409 C 174 389 181 374 196 362 C 210 350 246 336 302 320 C 364 301 410 279 439 253 C 467 227 482 194 482 153 C 482 119 473 89 455 65 C 437 41 412 22 382 9 C 352 -4 318 -11 281 -11 Z M 265 -190 C 240 -190 215 -187 189 -181 C 163 -175 143 -167 129 -158 L 145 -111 C 154 -115 166 -120 181 -125 C 195 -130 212 -133 230 -133 C 243 -133 255 -130 265 -124 C 275 -118 281 -110 281 -100 C 281 -88 276 -80 267 -76 C 258 -71 248 -69 238 -69 C 226 -69 213 -71 201 -75 L 188 -61 L 249 14 L 313 14 L 263 -48 C 297 -41 326 -44 349 -57 C 371 -70 383 -89 383 -114 C 383 -139 371 -158 347 -171 C 323 -183 296 -190 265 -190 Z" unicode="ş" />
<glyph horiz-adv-x="612" d="M 311 -12 C 247 -12 193 -3 149 13 C 105 29 69 51 41 78 L 116 167 C 135 143 162 124 198 108 C 234 92 272 84 314 84 C 348 84 378 92 404 110 C 429 127 442 150 442 178 C 442 207 430 232 408 253 C 386 273 346 295 288 319 C 231 341 186 362 154 382 C 121 402 98 426 84 452 C 70 478 64 512 64 553 C 64 611 85 657 128 691 C 171 725 228 742 299 742 C 353 742 399 733 436 717 C 473 700 504 681 529 661 L 464 567 C 438 587 411 603 382 616 C 352 629 322 636 290 636 C 256 636 228 628 207 614 C 186 600 176 579 176 553 C 176 522 189 497 215 478 C 241 459 284 437 346 413 C 424 381 478 350 509 318 C 540 286 556 243 556 188 C 556 125 531 76 483 41 C 434 5 377 -12 311 -12 Z M 121 951 L 220 951 L 299 843 L 379 951 L 476 951 L 353 779 L 244 779 L 121 951 Z" unicode="Š" />
<glyph horiz-adv-x="518" d="M 281 -11 C 228 -11 182 -4 142 8 C 102 21 68 38 41 59 L 88 132 C 113 116 143 102 177 91 C 211 80 244 75 276 75 C 302 75 325 82 344 96 C 362 110 372 128 372 149 C 372 167 362 183 343 198 C 324 212 288 227 234 242 C 191 254 157 268 133 284 C 108 300 90 319 80 341 C 69 362 64 385 64 411 C 64 455 83 491 121 518 C 159 544 207 558 263 558 C 318 558 362 551 395 538 C 427 524 452 511 470 499 L 431 418 C 407 432 382 445 356 456 C 330 466 302 472 272 472 C 245 472 222 466 203 455 C 183 443 174 428 174 409 C 174 389 181 374 196 362 C 210 350 246 336 302 320 C 364 301 410 279 439 253 C 467 227 482 194 482 153 C 482 119 473 89 455 65 C 437 41 412 22 382 9 C 352 -4 318 -11 281 -11 Z M 90 767 L 189 767 L 268 659 L 348 767 L 445 767 L 322 595 L 213 595 L 90 767 Z" unicode="š" />
<glyph horiz-adv-x="563" d="M 553 630 L 336 630 L 336 0 L 221 0 L 221 630 L 10 630 L 10 730 L 553 730 L 553 630 Z M 104 951 L 203 951 L 282 843 L 362 951 L 459 951 L 336 779 L 227 779 L 104 951 Z" unicode="Ť" />
<glyph horiz-adv-x="396" d="M 365 113 L 383 26 C 369 15 351 7 328 2 C 304 -3 281 -6 258 -6 C 227 -6 199 0 175 12 C 150 24 130 42 116 67 C 102 92 95 124 95 164 L 95 457 L 13 457 L 13 546 L 95 546 L 95 688 L 202 701 L 202 546 L 357 546 L 357 457 L 202 457 L 202 170 C 202 144 207 124 219 110 C 231 95 248 88 272 88 C 291 88 309 91 326 97 C 343 103 356 109 365 113 Z M 475 598 L 470 443 L 380 443 L 375 598 L 375 730 L 475 730 L 475 598 Z" unicode="ť" />
<glyph horiz-adv-x="563" d="M 472 418 L 91 418 L 91 510 L 472 510 L 472 418 Z M 553 630 L 336 630 L 336 0 L 221 0 L 221 630 L 10 630 L 10 730 L 553 730 L 553 630 Z" unicode="Ŧ" />
<glyph horiz-adv-x="396" d="M 329 286 L 18 286 L 18 378 L 329 378 L 329 286 Z M 365 113 L 383 26 C 369 15 351 7 328 2 C 304 -3 281 -6 258 -6 C 227 -6 199 0 175 12 C 150 24 130 42 116 67 C 102 92 95 124 95 164 L 95 457 L 13 457 L 13 546 L 95 546 L 95 688 L 202 701 L 202 546 L 357 546 L 357 457 L 202 457 L 202 170 C 202 144 207 124 219 110 C 231 95 248 88 272 88 C 291 88 309 91 326 97 C 343 103 356 109 365 113 Z" unicode="ŧ" />
<glyph horiz-adv-x="767" d="M 678 730 L 678 266 C 678 208 664 158 638 116 C 611 74 575 43 531 21 C 486 -1 437 -12 383 -12 C 330 -12 281 -1 237 20 C 192 41 156 72 129 114 C 102 155 89 206 89 266 L 89 730 L 201 730 L 201 270 C 201 214 218 171 254 139 C 290 107 332 92 381 92 C 431 92 474 107 511 138 C 547 168 566 212 566 270 L 566 730 L 678 730 Z M 478 926 L 564 926 C 564 877 556 841 541 818 C 525 795 504 784 477 784 C 459 784 442 787 428 795 C 414 802 400 810 388 819 C 376 827 365 835 355 843 C 344 851 333 855 323 855 C 312 855 303 849 297 838 C 290 827 286 810 286 788 L 202 788 C 202 836 212 871 232 895 C 252 918 274 930 298 930 C 316 930 331 926 345 918 C 358 910 371 902 383 893 C 393 884 403 876 413 870 C 422 864 431 861 441 861 C 451 861 459 866 466 877 C 473 888 477 904 478 926 Z" unicode="Ũ" />
<glyph horiz-adv-x="645" d="M 78 546 L 186 546 L 186 203 C 186 158 198 126 223 107 C 247 88 279 79 317 79 C 354 79 386 90 412 114 C 438 137 452 168 452 207 L 452 546 L 560 546 L 560 0 L 462 0 L 462 107 C 452 76 431 48 399 24 C 367 0 325 -12 274 -12 C 220 -12 174 2 136 31 C 97 59 78 103 78 162 L 78 546 Z M 414 742 L 500 742 C 500 693 492 657 477 634 C 461 611 440 600 413 600 C 395 600 378 603 364 611 C 350 618 336 626 324 635 C 312 643 301 651 291 659 C 280 667 269 671 259 671 C 248 671 239 665 233 654 C 226 643 222 626 222 604 L 138 604 C 138 652 148 687 168 711 C 188 734 210 746 234 746 C 252 746 267 742 281 734 C 294 726 307 718 319 709 C 329 700 339 692 349 686 C 358 680 367 677 377 677 C 387 677 395 682 402 693 C 409 704 413 720 414 742 Z" unicode="ũ" />
<glyph horiz-adv-x="767" d="M 678 730 L 678 266 C 678 208 664 158 638 116 C 611 74 575 43 531 21 C 486 -1 437 -12 383 -12 C 330 -12 281 -1 237 20 C 192 41 156 72 129 114 C 102 155 89 206 89 266 L 89 730 L 201 730 L 201 270 C 201 214 218 171 254 139 C 290 107 332 92 381 92 C 431 92 474 107 511 138 C 547 168 566 212 566 270 L 566 730 L 678 730 Z M 518 786 L 248 786 L 248 878 L 518 878 L 518 786 Z" unicode="Ū" />
<glyph horiz-adv-x="645" d="M 78 546 L 186 546 L 186 203 C 186 158 198 126 223 107 C 247 88 279 79 317 79 C 354 79 386 90 412 114 C 438 137 452 168 452 207 L 452 546 L 560 546 L 560 0 L 462 0 L 462 107 C 452 76 431 48 399 24 C 367 0 325 -12 274 -12 C 220 -12 174 2 136 31 C 97 59 78 103 78 162 L 78 546 Z M 454 602 L 184 602 L 184 694 L 454 694 L 454 602 Z" unicode="ū" />
<glyph horiz-adv-x="767" d="M 678 730 L 678 266 C 678 208 664 158 638 116 C 611 74 575 43 531 21 C 486 -1 437 -12 383 -12 C 330 -12 281 -1 237 20 C 192 41 156 72 129 114 C 102 155 89 206 89 266 L 89 730 L 201 730 L 201 270 C 201 214 218 171 254 139 C 290 107 332 92 381 92 C 431 92 474 107 511 138 C 547 168 566 212 566 270 L 566 730 L 678 730 Z M 457 941 L 546 941 C 542 885 525 845 495 820 C 465 794 427 782 383 782 C 338 782 301 794 271 820 C 241 845 224 885 220 941 L 309 941 C 311 914 317 893 329 877 C 340 861 358 854 383 854 C 407 854 425 861 437 877 C 449 892 455 913 457 941 Z" unicode="Ŭ" />
<glyph horiz-adv-x="645" d="M 78 546 L 186 546 L 186 203 C 186 158 198 126 223 107 C 247 88 279 79 317 79 C 354 79 386 90 412 114 C 438 137 452 168 452 207 L 452 546 L 560 546 L 560 0 L 462 0 L 462 107 C 452 76 431 48 399 24 C 367 0 325 -12 274 -12 C 220 -12 174 2 136 31 C 97 59 78 103 78 162 L 78 546 Z M 393 757 L 482 757 C 478 701 461 661 431 636 C 401 610 363 598 319 598 C 274 598 237 610 207 636 C 177 661 160 701 156 757 L 245 757 C 247 730 253 709 265 693 C 276 677 294 670 319 670 C 343 670 361 677 373 693 C 385 708 391 729 393 757 Z" unicode="ŭ" />
<glyph horiz-adv-x="767" d="M 678 730 L 678 266 C 678 208 664 158 638 116 C 611 74 575 43 531 21 C 486 -1 437 -12 383 -12 C 330 -12 281 -1 237 20 C 192 41 156 72 129 114 C 102 155 89 206 89 266 L 89 730 L 201 730 L 201 270 C 201 214 218 171 254 139 C 290 107 332 92 381 92 C 431 92 474 107 511 138 C 547 168 566 212 566 270 L 566 730 L 678 730 Z M 383 779 C 347 779 317 791 293 816 C 269 840 257 870 257 906 C 257 940 269 970 293 994 C 317 1018 347 1031 383 1031 C 418 1031 448 1018 472 994 C 496 970 509 940 509 906 C 509 870 496 840 472 816 C 448 791 418 779 383 779 Z M 383 848 C 399 848 412 853 423 864 C 433 875 439 889 439 906 C 439 921 433 934 423 946 C 412 957 399 963 383 963 C 367 963 354 957 343 946 C 331 934 326 921 326 906 C 326 889 331 875 343 864 C 354 853 367 848 383 848 Z" unicode="Ů" />
<glyph horiz-adv-x="645" d="M 78 546 L 186 546 L 186 203 C 186 158 198 126 223 107 C 247 88 279 79 317 79 C 354 79 386 90 412 114 C 438 137 452 168 452 207 L 452 546 L 560 546 L 560 0 L 462 0 L 462 107 C 452 76 431 48 399 24 C 367 0 325 -12 274 -12 C 220 -12 174 2 136 31 C 97 59 78 103 78 162 L 78 546 Z M 319 595 C 283 595 253 607 229 632 C 205 656 193 686 193 722 C 193 756 205 786 229 810 C 253 834 283 847 319 847 C 354 847 384 834 408 810 C 432 786 445 756 445 722 C 445 686 432 656 408 632 C 384 607 354 595 319 595 Z M 319 664 C 335 664 348 669 359 680 C 369 691 375 705 375 722 C 375 737 369 750 359 762 C 348 773 335 779 319 779 C 303 779 290 773 279 762 C 267 750 262 737 262 722 C 262 705 267 691 279 680 C 290 669 303 664 319 664 Z" unicode="ů" />
<glyph horiz-adv-x="767" d="M 678 730 L 678 266 C 678 208 664 158 638 116 C 611 74 575 43 531 21 C 486 -1 437 -12 383 -12 C 330 -12 281 -1 237 20 C 192 41 156 72 129 114 C 102 155 89 206 89 266 L 89 730 L 201 730 L 201 270 C 201 214 218 171 254 139 C 290 107 332 92 381 92 C 431 92 474 107 511 138 C 547 168 566 212 566 270 L 566 730 L 678 730 Z M 182 778 L 277 929 L 390 929 L 276 778 L 182 778 Z M 376 778 L 472 929 L 585 929 L 470 778 L 376 778 Z" unicode="Ű" />
<glyph horiz-adv-x="645" d="M 78 546 L 186 546 L 186 203 C 186 158 198 126 223 107 C 247 88 279 79 317 79 C 354 79 386 90 412 114 C 438 137 452 168 452 207 L 452 546 L 560 546 L 560 0 L 462 0 L 462 107 C 452 76 431 48 399 24 C 367 0 325 -12 274 -12 C 220 -12 174 2 136 31 C 97 59 78 103 78 162 L 78 546 Z M 118 594 L 213 745 L 326 745 L 212 594 L 118 594 Z M 312 594 L 408 745 L 521 745 L 406 594 L 312 594 Z" unicode="ű" />
<glyph horiz-adv-x="767" d="M 678 730 L 678 266 C 678 208 664 158 638 116 C 611 74 575 43 531 21 C 486 -1 437 -12 383 -12 C 330 -12 281 -1 237 20 C 192 41 156 72 129 114 C 102 155 89 206 89 266 L 89 730 L 201 730 L 201 270 C 201 214 218 171 254 139 C 290 107 332 92 381 92 C 431 92 474 107 511 138 C 547 168 566 212 566 270 L 566 730 L 678 730 Z M 538 -89 L 568 -133 C 526 -176 475 -198 414 -198 C 378 -198 351 -190 331 -176 C 311 -162 302 -143 302 -120 C 302 -97 310 -75 327 -55 C 343 -34 366 -16 395 -1 L 469 -1 C 445 -13 427 -26 413 -39 C 399 -52 393 -65 393 -78 C 393 -90 398 -100 408 -108 C 418 -116 432 -120 449 -120 C 467 -120 484 -117 500 -111 C 515 -105 528 -98 538 -89 Z" unicode="Ų" />
<glyph horiz-adv-x="645" d="M 78 546 L 186 546 L 186 203 C 186 158 198 126 223 107 C 247 88 279 79 317 79 C 354 79 386 90 412 114 C 438 137 452 168 452 207 L 452 546 L 560 546 L 560 0 L 462 0 L 462 107 C 452 76 431 48 399 24 C 367 0 325 -12 274 -12 C 220 -12 174 2 136 31 C 97 59 78 103 78 162 L 78 546 Z M 605 -88 L 635 -132 C 593 -175 542 -197 481 -197 C 445 -197 418 -189 398 -175 C 378 -161 369 -142 369 -119 C 369 -96 377 -74 394 -54 C 410 -33 433 -15 462 0 L 536 0 C 512 -12 494 -25 480 -38 C 466 -51 460 -64 460 -77 C 460 -89 465 -99 475 -107 C 485 -115 499 -119 516 -119 C 534 -119 551 -116 567 -110 C 582 -104 595 -97 605 -88 Z" unicode="ų" />
<glyph horiz-adv-x="940" d="M 930 730 L 706 -5 L 638 -5 L 473 522 L 297 -5 L 229 -5 L 10 730 L 129 730 L 276 222 L 441 730 L 509 730 L 676 218 L 823 730 L 930 730 Z M 648 779 L 549 779 L 470 887 L 390 779 L 293 779 L 416 951 L 525 951 L 648 779 Z" unicode="Ŵ" />
<glyph horiz-adv-x="784" d="M 527 -3 L 400 326 L 257 -3 L 193 -3 L 2 546 L 115 546 L 241 163 L 371 485 L 439 485 L 556 167 L 679 546 L 782 546 L 591 -3 L 527 -3 Z M 579 595 L 480 595 L 401 703 L 321 595 L 224 595 L 347 767 L 456 767 L 579 595 Z" unicode="ŵ" />
<glyph horiz-adv-x="674" d="M 675 730 L 392 304 L 392 0 L 277 0 L 277 309 L -1 730 L 128 730 L 340 410 L 554 730 L 675 730 Z M 518 779 L 419 779 L 340 887 L 260 779 L 163 779 L 286 951 L 395 951 L 518 779 Z" unicode="Ŷ" />
<glyph horiz-adv-x="562" d="M 567 546 L 278 -73 C 255 -121 226 -155 191 -173 C 156 -191 122 -200 90 -200 C 72 -200 57 -198 45 -194 C 33 -190 24 -187 19 -185 L 54 -90 C 57 -92 63 -94 71 -96 C 79 -98 88 -100 98 -100 C 115 -100 131 -94 146 -83 C 160 -71 175 -52 189 -25 L 223 41 L -5 546 L 111 546 L 281 161 L 455 546 L 567 546 Z M 459 595 L 360 595 L 281 703 L 201 595 L 104 595 L 227 767 L 336 767 L 459 595 Z" unicode="ŷ" />
<glyph horiz-adv-x="674" d="M 675 730 L 392 304 L 392 0 L 277 0 L 277 309 L -1 730 L 128 730 L 340 410 L 554 730 L 675 730 Z M 480 779 L 390 779 L 390 938 L 480 938 L 480 779 Z M 290 779 L 200 779 L 200 938 L 290 938 L 290 779 Z" unicode="Ÿ" />
<glyph horiz-adv-x="595" d="M 563 730 L 563 681 L 175 100 L 575 100 L 575 0 L 20 0 L 20 47 L 403 629 L 48 629 L 48 730 L 563 730 Z M 182 788 L 286 950 L 413 950 L 289 788 L 182 788 Z" unicode="Ź" />
<glyph horiz-adv-x="493" d="M 460 546 L 460 497 L 176 95 L 483 95 L 483 0 L 19 0 L 19 48 L 304 451 L 31 451 L 31 546 L 460 546 Z M 136 604 L 240 766 L 367 766 L 243 604 L 136 604 Z" unicode="ź" />
<glyph horiz-adv-x="595" d="M 563 730 L 563 681 L 175 100 L 575 100 L 575 0 L 20 0 L 20 47 L 403 629 L 48 629 L 48 730 L 563 730 Z M 346 779 L 249 779 L 249 943 L 346 943 L 346 779 Z" unicode="Ż" />
<glyph horiz-adv-x="493" d="M 460 546 L 460 497 L 176 95 L 483 95 L 483 0 L 19 0 L 19 48 L 304 451 L 31 451 L 31 546 L 460 546 Z M 300 595 L 203 595 L 203 759 L 300 759 L 300 595 Z" unicode="ż" />
<glyph horiz-adv-x="595" d="M 563 730 L 563 681 L 175 100 L 575 100 L 575 0 L 20 0 L 20 47 L 403 629 L 48 629 L 48 730 L 563 730 Z M 120 951 L 219 951 L 298 843 L 378 951 L 475 951 L 352 779 L 243 779 L 120 951 Z" unicode="Ž" />
<glyph horiz-adv-x="493" d="M 460 546 L 460 497 L 176 95 L 483 95 L 483 0 L 19 0 L 19 48 L 304 451 L 31 451 L 31 546 L 460 546 Z M 74 767 L 173 767 L 252 659 L 332 767 L 429 767 L 306 595 L 197 595 L 74 767 Z" unicode="ž" />
<glyph horiz-adv-x="383" d="M 39 413 L 336 413 L 336 332 L 39 332 L 39 413 Z M 104 -18 L 161 624 C 164 662 179 692 205 712 C 231 732 257 742 285 742 C 299 742 313 741 327 740 C 341 739 349 738 352 738 L 344 646 C 338 648 328 649 314 649 C 295 649 280 642 268 630 C 256 617 249 597 247 571 L 193 -56 C 189 -88 176 -116 153 -141 C 130 -166 100 -179 64 -179 C 44 -179 26 -177 8 -174 C -9 -171 -22 -167 -31 -163 L -21 -87 C -16 -87 -9 -89 0 -91 C 9 -93 18 -94 28 -94 C 47 -94 64 -87 78 -74 C 92 -61 101 -42 104 -18 Z" unicode="ƒ" />
<glyph horiz-adv-x="612" d="M 311 -12 C 247 -12 193 -3 149 13 C 105 29 69 51 41 78 L 116 167 C 135 143 162 124 198 108 C 234 92 272 84 314 84 C 348 84 378 92 404 110 C 429 127 442 150 442 178 C 442 207 430 232 408 253 C 386 273 346 295 288 319 C 231 341 186 362 154 382 C 121 402 98 426 84 452 C 70 478 64 512 64 553 C 64 611 85 657 128 691 C 171 725 228 742 299 742 C 353 742 399 733 436 717 C 473 700 504 681 529 661 L 464 567 C 438 587 411 603 382 616 C 352 629 322 636 290 636 C 256 636 228 628 207 614 C 186 600 176 579 176 553 C 176 522 189 497 215 478 C 241 459 284 437 346 413 C 424 381 478 350 509 318 C 540 286 556 243 556 188 C 556 125 531 76 483 41 C 434 5 377 -12 311 -12 Z M 402 -81 C 398 -122 390 -162 378 -200 C 366 -238 351 -271 334 -300 C 316 -328 299 -350 281 -364 L 201 -328 C 211 -317 222 -298 234 -272 C 246 -246 258 -216 269 -182 C 279 -148 287 -114 291 -81 L 402 -81 Z" unicode="Ș" />
<glyph horiz-adv-x="518" d="M 281 -11 C 228 -11 182 -4 142 8 C 102 21 68 38 41 59 L 88 132 C 113 116 143 102 177 91 C 211 80 244 75 276 75 C 302 75 325 82 344 96 C 362 110 372 128 372 149 C 372 167 362 183 343 198 C 324 212 288 227 234 242 C 191 254 157 268 133 284 C 108 300 90 319 80 341 C 69 362 64 385 64 411 C 64 455 83 491 121 518 C 159 544 207 558 263 558 C 318 558 362 551 395 538 C 427 524 452 511 470 499 L 431 418 C 407 432 382 445 356 456 C 330 466 302 472 272 472 C 245 472 222 466 203 455 C 183 443 174 428 174 409 C 174 389 181 374 196 362 C 210 350 246 336 302 320 C 364 301 410 279 439 253 C 467 227 482 194 482 153 C 482 119 473 89 455 65 C 437 41 412 22 382 9 C 352 -4 318 -11 281 -11 Z M 357 -72 C 353 -113 345 -153 333 -191 C 321 -229 306 -262 289 -291 C 271 -319 254 -341 236 -355 L 156 -319 C 166 -308 177 -289 189 -263 C 201 -237 213 -207 224 -173 C 234 -139 242 -105 246 -72 L 357 -72 Z" unicode="ș" />
<glyph horiz-adv-x="563" d="M 553 630 L 336 630 L 336 0 L 221 0 L 221 630 L 10 630 L 10 730 L 553 730 L 553 630 Z M 344 -72 C 340 -113 332 -153 320 -191 C 308 -229 293 -262 276 -291 C 258 -319 241 -341 223 -355 L 143 -319 C 153 -308 164 -289 176 -263 C 188 -237 200 -207 211 -173 C 221 -139 229 -105 233 -72 L 344 -72 Z" unicode="Ț" />
<glyph horiz-adv-x="396" d="M 365 113 L 383 26 C 369 15 351 7 328 2 C 304 -3 281 -6 258 -6 C 227 -6 199 0 175 12 C 150 24 130 42 116 67 C 102 92 95 124 95 164 L 95 457 L 13 457 L 13 546 L 95 546 L 95 688 L 202 701 L 202 546 L 357 546 L 357 457 L 202 457 L 202 170 C 202 144 207 124 219 110 C 231 95 248 88 272 88 C 291 88 309 91 326 97 C 343 103 356 109 365 113 Z M 282 -72 C 278 -113 270 -153 258 -191 C 246 -229 231 -262 214 -291 C 196 -319 179 -341 161 -355 L 81 -319 C 91 -308 102 -289 114 -263 C 126 -237 138 -207 149 -173 C 159 -139 167 -105 171 -72 L 282 -72 Z" unicode="ț" />
<glyph horiz-adv-x="336" d="M 257 546 L 257 5 C 257 -41 249 -79 233 -110 C 217 -140 197 -163 171 -179 C 145 -194 116 -202 85 -202 C 57 -202 29 -199 1 -193 C -26 -187 -49 -178 -68 -166 L -34 -80 C -20 -87 -5 -93 13 -98 C 31 -103 51 -106 74 -106 C 95 -106 113 -94 127 -72 C 141 -50 149 -22 149 11 L 149 546 L 257 546 Z" unicode="ȷ" />
<glyph horiz-adv-x="500" d="M 428 595 L 329 595 L 250 703 L 170 595 L 73 595 L 196 767 L 305 767 L 428 595 Z" unicode="ˆ" />
<glyph horiz-adv-x="500" d="M 73 767 L 172 767 L 251 659 L 331 767 L 428 767 L 305 595 L 196 595 L 73 767 Z" unicode="ˇ" />
<glyph horiz-adv-x="500" d="M 324 757 L 413 757 C 409 701 392 661 362 636 C 332 610 294 598 250 598 C 205 598 168 610 138 636 C 108 661 91 701 87 757 L 176 757 C 178 730 184 709 196 693 C 207 677 225 670 250 670 C 274 670 292 677 304 693 C 316 708 322 729 324 757 Z" unicode="˘" />
<glyph horiz-adv-x="500" d="M 299 595 L 202 595 L 202 759 L 299 759 L 299 595 Z" unicode="˙" />
<glyph horiz-adv-x="521" d="M 261 595 C 225 595 195 607 171 632 C 147 656 135 686 135 722 C 135 756 147 786 171 810 C 195 834 225 847 261 847 C 296 847 326 834 350 810 C 374 786 387 756 387 722 C 387 686 374 656 350 632 C 326 607 296 595 261 595 Z M 261 664 C 277 664 290 669 301 680 C 311 691 317 705 317 722 C 317 737 311 750 301 762 C 290 773 277 779 261 779 C 245 779 232 773 221 762 C 209 750 204 737 204 722 C 204 705 209 691 221 680 C 232 669 245 664 261 664 Z" unicode="˚" />
<glyph horiz-adv-x="500" d="M 361 -82 L 391 -126 C 349 -169 298 -191 237 -191 C 201 -191 174 -183 154 -169 C 134 -155 125 -136 125 -113 C 125 -90 133 -68 150 -48 C 166 -27 189 -9 218 6 L 292 6 C 268 -6 250 -19 236 -32 C 222 -45 216 -58 216 -71 C 216 -83 221 -93 231 -101 C 241 -109 255 -113 272 -113 C 290 -113 307 -110 323 -104 C 338 -98 351 -91 361 -82 Z" unicode="˛" />
<glyph horiz-adv-x="500" d="M 349 742 L 435 742 C 435 693 427 657 412 634 C 396 611 375 600 348 600 C 330 600 313 603 299 611 C 285 618 271 626 259 635 C 247 643 236 651 226 659 C 215 667 204 671 194 671 C 183 671 174 665 168 654 C 161 643 157 626 157 604 L 73 604 C 73 652 83 687 103 711 C 123 734 145 746 169 746 C 187 746 202 742 216 734 C 229 726 242 718 254 709 C 264 700 274 692 284 686 C 293 680 302 677 312 677 C 322 677 330 682 337 693 C 344 704 348 720 349 742 Z" unicode="˜" />
<glyph horiz-adv-x="500" d="M 63 594 L 158 745 L 271 745 L 157 594 L 63 594 Z M 257 594 L 353 745 L 466 745 L 351 594 L 257 594 Z" unicode="˝" />
<glyph horiz-adv-x="0" d="M 116 594 L 8 594 L -116 756 L 10 756 L 116 594 Z" unicode="̀" />
<glyph horiz-adv-x="0" d="M -115 604 L -11 766 L 116 766 L -8 604 L -115 604 Z" unicode="́" />
<glyph horiz-adv-x="0" d="M 178 595 L 79 595 L 0 703 L -80 595 L -177 595 L -54 767 L 55 767 L 178 595 Z" unicode="̂" />
<glyph horiz-adv-x="0" d="M 95 742 L 181 742 C 181 693 173 657 158 634 C 142 611 121 600 94 600 C 76 600 59 603 45 611 C 31 618 17 626 5 635 C -6 643 -17 651 -28 659 C -38 667 -49 671 -60 671 C -70 671 -79 665 -86 654 C -92 643 -96 626 -97 604 L -181 604 C -181 652 -170 687 -150 711 C -130 734 -108 746 -85 746 C -67 746 -51 742 -38 734 C -24 726 -12 718 0 709 C 10 700 20 692 30 686 C 39 680 48 677 58 677 C 68 677 76 682 83 693 C 90 704 94 720 95 742 Z" unicode="̃" />
<glyph horiz-adv-x="0" d="M 135 602 L -135 602 L -135 694 L 135 694 L 135 602 Z" unicode="̄" />
<glyph horiz-adv-x="0" d="M 74 757 L 163 757 C 159 701 142 661 112 636 C 82 610 44 598 0 598 C -44 598 -81 610 -111 636 C -141 661 -158 701 -163 757 L -74 757 C -72 730 -65 709 -54 693 C -42 677 -24 670 0 670 C 24 670 42 677 54 693 C 66 708 72 729 74 757 Z" unicode="̆" />
<glyph horiz-adv-x="0" d="M 49 595 L -48 595 L -48 759 L 49 759 L 49 595 Z" unicode="̇" />
<glyph horiz-adv-x="0" d="M 140 595 L 50 595 L 50 754 L 140 754 L 140 595 Z M -50 595 L -140 595 L -140 754 L -50 754 L -50 595 Z" unicode="̈" />
<glyph horiz-adv-x="0" d="M 0 595 C -35 595 -65 607 -89 632 C -113 656 -126 686 -126 722 C -126 756 -113 786 -89 810 C -65 834 -35 847 0 847 C 35 847 65 834 89 810 C 113 786 126 756 126 722 C 126 686 113 656 89 632 C 65 607 35 595 0 595 Z M 0 664 C 16 664 29 669 40 680 C 50 691 56 705 56 722 C 56 737 50 750 40 762 C 29 773 16 779 0 779 C -15 779 -28 773 -40 762 C -51 750 -57 737 -57 722 C -57 705 -51 691 -40 680 C -28 669 -15 664 0 664 Z" unicode="̊" />
<glyph horiz-adv-x="0" d="M -201 594 L -106 745 L 7 745 L -107 594 L -201 594 Z M -7 594 L 89 745 L 202 745 L 87 594 L -7 594 Z" unicode="̋" />
<glyph horiz-adv-x="0" d="M -177 767 L -78 767 L 1 659 L 81 767 L 178 767 L 55 595 L -54 595 L -177 767 Z" unicode="̌" />
<glyph horiz-adv-x="500" d="M 113 503 C 116 544 124 584 136 622 C 148 660 163 693 181 722 C 198 750 216 772 234 786 L 314 750 C 304 739 292 720 280 694 C 268 668 256 638 246 604 C 235 570 228 536 224 503 L 113 503 Z" unicode="̦" />
<glyph horiz-adv-x="0" d="M 9 -190 C -15 -190 -41 -187 -67 -181 C -93 -175 -113 -167 -127 -158 L -111 -111 C -101 -115 -89 -120 -75 -125 C -60 -130 -44 -133 -26 -133 C -12 -133 0 -130 9 -124 C 19 -118 25 -110 25 -100 C 25 -88 20 -80 11 -76 C 2 -71 -7 -69 -18 -69 C -30 -69 -42 -71 -55 -75 L -68 -61 L -7 14 L 57 14 L 7 -48 C 41 -41 70 -44 93 -57 C 115 -70 127 -89 127 -114 C 127 -139 115 -158 91 -171 C 67 -183 40 -190 9 -190 Z" unicode="̧" />
<glyph horiz-adv-x="0" d="M 103 -82 L 133 -126 C 91 -169 40 -191 -21 -191 C -56 -191 -83 -183 -103 -169 C -123 -155 -133 -136 -133 -113 C -133 -90 -124 -68 -108 -48 C -91 -27 -68 -9 -40 6 L 34 6 C 10 -6 -7 -19 -21 -32 C -35 -45 -42 -58 -42 -71 C -42 -83 -36 -93 -26 -101 C -16 -109 -2 -113 14 -113 C 32 -113 49 -110 65 -104 C 80 -98 93 -91 103 -82 Z" unicode="̨" />
<glyph horiz-adv-x="662" d="M 193 454 L 193 0 L 85 0 L 85 454 L 40 454 L 40 546 L 611 546 L 611 454 L 567 454 L 567 0 L 459 0 L 459 454 L 193 454 Z" unicode="π" />
<glyph horiz-adv-x="940" d="M 930 730 L 706 -5 L 638 -5 L 473 522 L 297 -5 L 229 -5 L 10 730 L 129 730 L 276 222 L 441 730 L 509 730 L 676 218 L 823 730 L 930 730 Z M 586 778 L 478 778 L 354 940 L 480 940 L 586 778 Z" unicode="Ẁ" />
<glyph horiz-adv-x="784" d="M 527 -3 L 400 326 L 257 -3 L 193 -3 L 2 546 L 115 546 L 241 163 L 371 485 L 439 485 L 556 167 L 679 546 L 782 546 L 591 -3 L 527 -3 Z M 517 594 L 409 594 L 285 756 L 411 756 L 517 594 Z" unicode="ẁ" />
<glyph horiz-adv-x="940" d="M 930 730 L 706 -5 L 638 -5 L 473 522 L 297 -5 L 229 -5 L 10 730 L 129 730 L 276 222 L 441 730 L 509 730 L 676 218 L 823 730 L 930 730 Z M 355 788 L 459 950 L 586 950 L 462 788 L 355 788 Z" unicode="Ẃ" />
<glyph horiz-adv-x="784" d="M 527 -3 L 400 326 L 257 -3 L 193 -3 L 2 546 L 115 546 L 241 163 L 371 485 L 439 485 L 556 167 L 679 546 L 782 546 L 591 -3 L 527 -3 Z M 286 604 L 390 766 L 517 766 L 393 604 L 286 604 Z" unicode="ẃ" />
<glyph horiz-adv-x="940" d="M 930 730 L 706 -5 L 638 -5 L 473 522 L 297 -5 L 229 -5 L 10 730 L 129 730 L 276 222 L 441 730 L 509 730 L 676 218 L 823 730 L 930 730 Z M 610 779 L 520 779 L 520 938 L 610 938 L 610 779 Z M 420 779 L 330 779 L 330 938 L 420 938 L 420 779 Z" unicode="Ẅ" />
<glyph horiz-adv-x="784" d="M 527 -3 L 400 326 L 257 -3 L 193 -3 L 2 546 L 115 546 L 241 163 L 371 485 L 439 485 L 556 167 L 679 546 L 782 546 L 591 -3 L 527 -3 Z M 541 595 L 451 595 L 451 754 L 541 754 L 541 595 Z M 351 595 L 261 595 L 261 754 L 351 754 L 351 595 Z" unicode="ẅ" />
<glyph horiz-adv-x="674" d="M 675 730 L 392 304 L 392 0 L 277 0 L 277 309 L -1 730 L 128 730 L 340 410 L 554 730 L 675 730 Z M 456 778 L 348 778 L 224 940 L 350 940 L 456 778 Z" unicode="Ỳ" />
<glyph horiz-adv-x="562" d="M 567 546 L 278 -73 C 255 -121 226 -155 191 -173 C 156 -191 122 -200 90 -200 C 72 -200 57 -198 45 -194 C 33 -190 24 -187 19 -185 L 54 -90 C 57 -92 63 -94 71 -96 C 79 -98 88 -100 98 -100 C 115 -100 131 -94 146 -83 C 160 -71 175 -52 189 -25 L 223 41 L -5 546 L 111 546 L 281 161 L 455 546 L 567 546 Z M 397 594 L 289 594 L 165 756 L 291 756 L 397 594 Z" unicode="ỳ" />
<glyph horiz-adv-x="461" d="M 421 224 L 40 224 L 40 316 L 421 316 L 421 224 Z" unicode="–" />
<glyph horiz-adv-x="646" d="M 606 224 L 40 224 L 40 316 L 606 316 L 606 224 Z" unicode="—" />
<glyph horiz-adv-x="284" d="M 33 507 L 33 514 C 33 551 44 589 68 629 C 91 669 122 705 162 737 L 269 731 C 256 723 240 708 221 686 C 201 664 184 639 169 609 C 154 579 147 547 147 515 L 147 507 L 33 507 Z" unicode="‘" />
<glyph horiz-adv-x="284" d="M 251 737 L 251 730 C 251 692 239 654 215 616 C 191 577 160 541 122 507 L 15 513 C 34 529 59 557 90 596 C 121 635 137 679 137 729 L 137 737 L 251 737 Z" unicode="’" />
<glyph horiz-adv-x="284" d="M 251 114 L 251 107 C 251 70 239 32 215 -6 C 191 -45 160 -82 122 -116 L 15 -110 C 34 -93 59 -65 90 -26 C 121 12 137 56 137 106 L 137 114 L 251 114 Z" unicode="‚" />
<glyph horiz-adv-x="467" d="M 231 507 L 231 514 C 231 551 242 588 265 626 C 288 663 320 700 360 737 L 452 731 C 438 719 422 703 403 682 C 383 660 366 635 351 607 C 335 578 328 547 328 515 L 328 507 L 231 507 Z M 33 507 L 33 514 C 33 551 45 588 69 626 C 93 663 124 700 162 737 L 254 731 C 242 720 226 704 206 683 C 186 661 169 636 153 607 C 137 578 130 547 130 515 L 130 507 L 33 507 Z" unicode="“" />
<glyph horiz-adv-x="467" d="M 236 737 L 236 730 C 236 692 225 655 203 618 C 181 580 149 543 107 507 L 15 513 C 37 532 64 560 94 598 C 124 636 139 679 139 729 L 139 737 L 236 737 Z M 434 737 L 434 730 C 434 692 422 655 399 617 C 376 579 345 542 305 507 L 213 513 C 236 532 262 560 292 598 C 322 636 337 679 337 729 L 337 737 L 434 737 Z" unicode="”" />
<glyph horiz-adv-x="467" d="M 236 119 L 236 112 C 236 74 225 37 203 0 C 181 -37 149 -74 107 -111 L 15 -105 C 37 -85 64 -57 94 -19 C 124 18 139 61 139 111 L 139 119 L 236 119 Z M 434 119 L 434 112 C 434 74 422 37 399 -1 C 376 -39 345 -75 305 -111 L 213 -105 C 236 -85 262 -57 292 -19 C 322 18 337 61 337 111 L 337 119 L 434 119 Z" unicode="„" />
<glyph horiz-adv-x="565" d="M 540 385 L 335 385 L 335 -179 L 224 -179 L 224 385 L 25 385 L 25 470 L 224 470 L 224 730 L 335 730 L 335 470 L 540 470 L 540 385 Z" unicode="†" />
<glyph horiz-adv-x="565" d="M 225 -179 L 225 111 L 30 111 L 30 196 L 225 196 L 225 386 L 30 386 L 30 471 L 225 471 L 225 730 L 335 730 L 335 471 L 535 471 L 535 386 L 335 386 L 335 196 L 535 196 L 535 111 L 335 111 L 335 -179 L 225 -179 Z" unicode="‡" />
<glyph horiz-adv-x="383" d="M 191 477 C 218 477 241 467 260 448 C 279 429 289 406 289 379 C 289 351 279 328 260 310 C 241 291 218 282 191 282 C 163 282 140 291 122 310 C 103 328 94 351 94 379 C 94 406 103 429 122 448 C 140 467 163 477 191 477 Z" unicode="•" />
<glyph horiz-adv-x="728" d="M 68 0 L 68 138 L 175 138 L 175 0 L 68 0 Z M 310 0 L 310 138 L 418 138 L 418 0 L 310 0 Z M 553 0 L 553 138 L 660 138 L 660 0 L 553 0 Z" unicode="…" />
<glyph horiz-adv-x="1286" d="M 671 82 C 698 82 719 92 733 112 C 747 132 755 160 755 195 C 755 229 748 257 734 278 C 720 299 700 310 673 310 C 647 310 626 299 612 279 C 598 258 591 230 591 195 C 591 158 598 130 614 111 C 630 91 649 82 671 82 Z M 674 -3 C 625 -3 583 15 547 51 C 511 87 494 135 494 195 C 494 247 511 294 545 334 C 579 374 621 394 672 394 C 725 394 768 374 802 335 C 835 296 852 250 852 198 C 852 143 835 96 802 56 C 768 16 726 -3 674 -3 Z M 137 541 C 137 503 144 475 160 456 C 176 436 195 427 218 427 C 244 427 265 437 279 457 C 293 477 301 505 301 541 C 301 575 294 603 281 624 C 267 644 247 655 220 655 C 194 655 173 644 159 624 C 144 603 137 575 137 541 Z M 131 0 L 651 730 L 760 730 L 238 0 L 131 0 Z M 221 343 C 172 343 130 361 94 397 C 58 433 40 481 40 541 C 40 593 57 640 91 680 C 125 720 167 740 219 740 C 271 740 314 720 348 681 C 381 642 398 596 398 544 C 398 489 381 442 348 402 C 314 362 272 343 221 343 Z M 1066 82 C 1092 82 1113 92 1127 112 C 1141 132 1149 160 1149 195 C 1149 229 1142 257 1129 278 C 1115 299 1095 310 1068 310 C 1042 310 1021 299 1007 279 C 992 258 985 230 985 195 C 985 158 992 130 1008 111 C 1024 91 1043 82 1066 82 Z M 1069 -3 C 1020 -3 978 15 942 51 C 906 87 888 135 888 195 C 888 247 905 294 939 334 C 973 374 1015 394 1067 394 C 1119 394 1162 374 1196 335 C 1229 296 1246 250 1246 198 C 1246 143 1229 96 1196 56 C 1162 16 1120 -3 1069 -3 Z" unicode="‰" />
<glyph horiz-adv-x="244" d="M 215 109 L 27 278 L 27 339 L 215 506 L 215 402 L 119 306 L 215 215 L 215 109 Z" unicode="‹" />
<glyph horiz-adv-x="245" d="M 29 508 L 218 338 L 218 278 L 29 111 L 29 214 L 125 310 L 29 401 L 29 508 Z" unicode="›" />
<glyph horiz-adv-x="145" d="M 305 730 L -53 0 L -145 0 L 213 730 L 305 730 Z" unicode="⁄" />
<glyph horiz-adv-x="566" d="M 493 239 L 35 239 L 35 314 L 493 314 L 493 239 Z M 481 165 L 563 115 C 542 77 512 47 472 23 C 432 0 387 -12 339 -12 C 287 -12 242 3 203 34 C 164 64 133 107 111 163 C 89 219 78 285 78 361 C 78 432 87 496 107 554 C 126 612 155 657 194 691 C 232 725 280 742 338 742 C 398 742 446 730 480 707 C 514 683 539 656 555 625 L 470 581 C 456 603 439 622 419 636 C 398 650 371 657 338 657 C 287 657 248 632 220 583 C 192 534 178 461 178 363 C 178 298 185 244 200 202 C 214 159 234 127 259 105 C 283 83 311 73 341 73 C 373 73 402 82 426 100 C 450 118 468 140 481 165 Z M 493 406 L 35 406 L 35 481 L 493 481 L 493 406 Z" unicode="€" />
<glyph horiz-adv-x="943" d="M 888 292 L 791 292 L 791 575 L 648 386 L 640 386 L 499 573 L 499 292 L 405 292 L 405 730 L 472 730 L 645 508 L 816 730 L 888 730 L 888 292 Z M 376 620 L 251 620 L 251 292 L 141 292 L 141 620 L 17 620 L 17 730 L 376 730 L 376 620 Z" unicode="™" />
<glyph horiz-adv-x="764" d="M 42 0 L 42 98 L 257 98 L 257 159 C 193 180 139 216 97 268 C 54 319 33 379 33 447 C 33 530 64 601 126 659 C 188 717 272 747 378 747 C 488 747 574 717 637 659 C 699 600 731 529 731 447 C 731 378 711 319 673 269 C 634 219 578 182 506 159 L 506 98 L 721 98 L 721 0 L 429 0 L 429 216 C 487 236 532 266 565 307 C 597 347 614 392 614 441 C 614 504 591 556 546 596 C 501 636 445 657 379 657 C 314 657 260 636 216 596 C 172 555 150 503 150 439 C 150 391 166 348 198 308 C 230 268 275 238 335 216 L 335 0 L 42 0 Z" unicode="Ω" />
<glyph horiz-adv-x="597" d="M 295 64 C 340 64 377 80 405 112 C 433 144 447 188 447 245 C 447 291 433 329 407 360 C 380 391 343 407 296 407 C 253 407 218 391 190 360 C 162 328 148 287 148 235 C 148 179 161 137 189 108 C 216 78 251 64 295 64 Z M 557 297 C 557 224 545 165 521 120 C 497 74 466 41 426 20 C 386 0 342 -11 294 -11 C 251 -11 210 -1 171 18 C 132 37 100 65 75 101 C 50 137 38 181 38 232 C 38 277 49 319 71 357 C 93 395 122 426 159 449 C 196 472 237 484 283 484 C 327 484 366 474 398 454 C 430 434 453 408 469 378 C 459 463 438 532 407 585 C 376 637 339 676 297 701 C 254 725 211 739 168 741 L 217 802 C 251 802 287 792 326 774 C 365 756 402 727 437 687 C 472 647 501 594 523 530 C 545 466 557 388 557 297 Z" unicode="∂" />
<glyph horiz-adv-x="662" d="M 662 0 L 0 0 L 296 733 L 372 733 L 662 0 Z M 506 90 L 325 564 L 148 90 L 506 90 Z" unicode="∆" />
<glyph horiz-adv-x="700" d="M 235 635 L 235 0 L 125 0 L 125 635 L 15 635 L 15 730 L 685 730 L 685 635 L 581 635 L 581 0 L 471 0 L 471 635 L 235 635 Z" unicode="∏" />
<glyph horiz-adv-x="618" d="M 199 629 L 431 307 L 165 -78 L 571 -78 L 571 -179 L -20 -179 L 314 306 L 10 730 L 550 730 L 550 629 L 199 629 Z" unicode="∑" />
<glyph horiz-adv-x="517" d="M 477 287 L 40 287 L 40 378 L 477 378 L 477 287 Z" unicode="−" />
<glyph horiz-adv-x="510" d="M 505 730 L 198 0 L 186 0 L 12 331 L 87 388 L 205 150 L 438 730 L 505 730 Z" unicode="√" />
<glyph horiz-adv-x="344" d="M 104 -18 L 161 624 C 164 662 179 692 205 712 C 231 732 257 742 285 742 C 299 742 313 741 327 740 C 341 739 349 738 352 738 L 344 646 C 338 648 328 649 314 649 C 295 649 280 642 268 630 C 256 618 249 598 247 571 L 193 -56 C 189 -88 176 -116 153 -142 C 130 -167 100 -179 64 -179 C 44 -179 25 -177 8 -173 C -9 -169 -22 -165 -31 -160 L -20 -85 C -16 -85 -9 -87 0 -90 C 9 -92 18 -94 28 -94 C 47 -94 64 -87 78 -74 C 92 -61 101 -42 104 -18 Z" unicode="∫" />
<glyph horiz-adv-x="500" d="M 386 504 L 462 504 C 460 455 451 415 434 384 C 417 353 390 338 354 338 C 331 338 311 342 294 352 C 276 361 261 372 249 384 C 236 396 223 406 211 415 C 198 423 185 428 171 428 C 157 428 144 419 132 403 C 119 386 113 365 113 341 L 38 341 C 38 391 48 431 68 461 C 88 491 116 506 152 506 C 175 506 195 500 213 488 C 231 476 246 465 260 453 C 273 442 286 432 298 424 C 310 416 322 412 335 412 C 353 412 366 419 374 435 C 382 451 386 474 386 504 Z M 386 323 L 462 323 C 460 274 451 234 434 203 C 417 172 390 157 354 157 C 331 157 311 161 294 171 C 276 180 261 191 249 203 C 236 215 223 225 211 234 C 198 242 185 247 171 247 C 157 247 144 238 132 222 C 119 206 113 185 113 160 L 38 160 C 38 210 48 250 68 280 C 88 310 116 325 152 325 C 175 325 195 319 213 307 C 231 295 246 284 260 272 C 273 261 286 251 298 243 C 310 235 322 231 335 231 C 353 231 366 238 374 254 C 382 270 386 293 386 323 Z" unicode="≈" />
<glyph horiz-adv-x="500" d="M 457 385 L 65 385 L 65 475 L 457 475 L 457 385 Z M 457 169 L 65 169 L 65 260 L 457 260 L 457 169 Z M 116 88 L 349 587 L 404 562 L 171 63 L 116 88 Z" unicode="≠" />
<glyph horiz-adv-x="500" d="M 62 291 L 62 358 L 433 562 L 433 472 L 166 327 L 433 179 L 433 89 L 62 291 Z M 61 90 L 433 90 L 433 20 L 61 20 L 61 90 Z" unicode="≤" />
<glyph horiz-adv-x="500" d="M 432 291 L 61 89 L 61 179 L 328 327 L 61 472 L 61 562 L 432 358 L 432 291 Z M 433 90 L 433 20 L 61 20 L 61 90 L 433 90 Z" unicode="≥" />
<glyph horiz-adv-x="539" d="M 510 326 L 275 -21 L 264 -21 L 29 326 L 29 337 L 264 683 L 275 683 L 510 337 L 510 326 Z M 411 327 L 411 336 L 274 543 L 266 543 L 128 336 L 128 327 L 266 119 L 274 119 L 411 327 Z" unicode="◊" />
<glyph horiz-adv-x="730" d="M 448 671 L 282 671 L 282 730 L 448 730 L 448 671 Z M 659 282 L 598 282 L 598 448 L 659 448 L 659 282 Z M 435 295 L 295 295 L 295 435 L 435 435 L 435 295 Z M 132 282 L 71 282 L 71 448 L 132 448 L 132 282 Z M 448 0 L 282 0 L 282 60 L 448 60 L 448 0 Z" unicode="" />
<glyph horiz-adv-x="672" d="M 397 454 L 228 454 L 228 0 L 122 0 L 122 454 L 12 454 L 12 546 L 122 546 L 122 596 C 122 668 142 720 183 753 C 223 785 268 802 317 802 C 331 802 348 800 367 796 C 386 792 400 788 409 784 L 377 686 C 371 688 362 691 352 694 C 342 697 332 699 322 699 C 302 699 281 692 259 678 C 237 664 227 638 227 600 L 227 546 L 397 546 L 397 454 Z M 587 0 L 482 0 L 482 546 L 587 546 L 587 0 Z" unicode="ﬁ" />
<glyph horiz-adv-x="694" d="M 397 454 L 228 454 L 228 0 L 122 0 L 122 454 L 12 454 L 12 546 L 122 546 L 122 596 C 122 668 142 720 183 753 C 223 785 268 802 317 802 C 331 802 348 800 367 796 C 386 792 400 788 409 784 L 377 686 C 371 688 362 691 352 694 C 342 697 332 699 322 699 C 302 699 281 692 259 678 C 237 664 227 638 227 600 L 227 546 L 397 546 L 397 454 Z M 450 133 L 450 800 L 558 800 L 558 167 C 558 143 564 125 576 111 C 588 97 607 90 631 90 C 639 90 649 90 659 91 C 669 92 676 94 682 96 L 684 2 C 677 0 666 -1 651 -3 C 635 -5 621 -6 608 -6 C 581 -6 555 -1 531 9 C 507 19 487 34 472 55 C 457 75 450 101 450 133 Z" unicode="ﬂ" />
</font>
</defs>
</svg>
