<?xml version="1.0" encoding="utf-8" ?><svg version="1.1" xmlns = 'http://www.w3.org/2000/svg'><defs><font id='web' horiz-adv-x="1000">
<font-face font-family="web" descent="-200" cap-height="730" units-per-em="1000" bbox="-233,-352,1229,1025" x-height="495" ascent="800" />
<missing-glyph horiz-adv-x="500" d="M 50 -200 L 450 -200 L 450 800 L 50 800 L 50 -200 Z M 100 -150 L 100 750 L 400 750 L 400 -150 L 100 -150 Z" /><glyph horiz-adv-x="257" d="" unicode=" " />
<glyph horiz-adv-x="305" d="M 243 435 L 193 244 L 117 244 L 69 435 L 69 730 L 243 730 L 243 435 Z M 235 0 L 78 0 L 78 158 L 235 158 L 235 0 Z" unicode="!" />
<glyph horiz-adv-x="471" d="M 417 611 L 408 449 L 287 449 L 281 610 L 281 730 L 417 730 L 417 611 Z M 189 610 L 184 449 L 60 449 L 54 610 L 54 730 L 189 730 L 189 610 Z" unicode="&#x22;" />
<glyph horiz-adv-x="650" d="M 616 418 L 57 418 L 57 539 L 616 539 L 616 418 Z M 128 0 L 192 730 L 282 729 L 218 0 L 128 0 Z M 34 309 L 592 309 L 592 188 L 34 188 L 34 309 Z M 529 729 L 465 0 L 376 0 L 440 730 L 529 729 Z" unicode="#" />
<glyph horiz-adv-x="571" d="M 284 1 C 226 1 174 9 128 25 C 82 41 48 60 24 82 L 79 196 C 103 174 137 156 180 140 C 222 124 261 117 295 117 C 328 117 354 123 374 137 C 393 151 403 169 403 193 C 403 208 399 221 391 233 C 383 244 368 256 345 270 C 321 283 285 299 237 319 C 165 348 113 380 82 414 C 50 448 35 490 35 541 C 35 595 58 640 104 676 C 150 712 208 730 278 730 C 327 730 372 722 414 708 C 455 694 489 674 516 648 L 444 548 C 422 568 396 583 366 595 C 336 606 307 612 281 612 C 250 612 225 606 205 594 C 185 582 175 565 175 543 C 174 520 184 502 205 489 C 226 475 268 455 330 429 C 374 409 411 389 443 370 C 475 351 499 328 516 302 C 533 275 542 241 542 199 C 542 139 517 91 467 55 C 417 19 356 1 284 1 Z M 325 684 L 246 684 L 246 789 L 325 789 L 325 684 Z M 246 -120 L 246 54 L 325 54 L 325 -120 L 246 -120 Z" unicode="$" />
<glyph horiz-adv-x="872" d="M 151 0 L 246 0 L 710 730 L 615 730 L 151 0 Z M 216 451 C 236 451 251 459 261 475 C 271 491 276 514 276 544 C 276 572 271 594 262 611 C 252 628 237 637 217 637 C 197 637 183 628 173 611 C 163 594 158 572 158 544 C 158 514 163 491 174 475 C 184 459 198 451 216 451 Z M 218 349 C 173 349 132 366 94 401 C 56 435 37 483 37 543 C 37 596 54 642 90 681 C 125 719 166 739 214 739 C 266 739 309 719 343 681 C 377 643 394 598 394 546 C 394 492 376 445 342 407 C 308 368 266 349 218 349 Z M 659 99 C 678 99 693 107 704 123 C 714 139 720 161 720 191 C 720 221 715 244 705 260 C 695 276 680 285 660 285 C 642 285 628 276 618 260 C 608 244 603 221 603 191 C 603 160 608 137 618 122 C 628 106 642 99 659 99 Z M 660 -3 C 614 -3 573 14 536 48 C 499 82 481 130 481 191 C 481 244 498 290 532 329 C 566 367 609 387 660 387 C 712 387 754 367 788 329 C 822 291 839 246 839 194 C 839 139 821 92 787 54 C 753 16 710 -3 660 -3 Z" unicode="%" />
<glyph horiz-adv-x="768" d="M 743 279 C 709 221 672 171 632 128 C 591 84 544 51 491 27 C 437 3 375 -8 303 -8 C 218 -8 150 9 99 44 C 48 78 23 127 23 189 C 23 231 34 265 57 293 C 80 320 109 344 143 364 C 177 384 211 403 243 422 C 294 452 332 476 358 496 C 384 516 397 537 397 559 C 397 576 390 591 378 605 C 366 619 348 626 324 626 C 301 626 283 619 270 605 C 256 591 250 576 250 560 C 250 542 256 524 270 507 C 283 490 299 474 319 458 L 753 112 L 665 -4 L 209 377 C 197 387 182 401 165 419 C 148 436 133 457 121 481 C 109 505 103 532 103 562 C 103 594 113 624 134 650 C 154 676 182 697 216 713 C 250 729 288 737 328 737 C 390 737 441 720 479 686 C 517 652 537 613 537 569 C 537 519 518 478 481 447 C 443 416 394 383 333 347 C 280 315 242 289 220 269 C 198 249 187 225 187 196 C 187 168 198 148 222 134 C 245 120 274 113 308 113 C 372 113 431 135 484 180 C 537 224 584 281 625 350 L 743 279 Z" unicode="&#x26;" />
<glyph horiz-adv-x="243" d="M 189 605 L 184 441 L 60 441 L 54 605 L 54 730 L 189 730 L 189 605 Z" unicode="'" />
<glyph horiz-adv-x="356" d="M 340 -68 L 340 -186 C 286 -164 235 -131 188 -87 C 140 -43 102 11 73 75 C 44 139 30 211 30 293 C 30 375 44 448 74 510 C 103 572 141 623 189 663 C 236 703 286 732 340 749 L 340 641 C 316 627 292 606 270 579 C 248 552 230 515 216 469 C 202 423 195 364 195 293 C 195 231 201 178 213 132 C 225 86 241 46 263 13 C 285 -19 310 -46 340 -68 Z" unicode="(" />
<glyph horiz-adv-x="356" d="M 19 640 L 19 749 C 71 733 120 706 168 666 C 215 626 254 574 284 511 C 314 447 329 373 329 288 C 329 205 314 132 284 68 C 254 4 215 -48 168 -91 C 120 -134 71 -166 19 -186 L 19 -66 C 46 -46 71 -20 94 11 C 116 42 134 80 148 126 C 162 172 169 226 169 288 C 169 361 161 421 146 469 C 131 516 112 553 89 581 C 66 608 43 628 19 640 Z" unicode=")" />
<glyph horiz-adv-x="426" d="M 397 564 L 277 530 L 370 449 L 287 377 L 216 486 L 145 378 L 64 448 L 155 532 L 28 560 L 74 662 L 179 601 L 159 730 L 273 730 L 251 601 L 359 661 L 397 564 Z" unicode="*" />
<glyph horiz-adv-x="512" d="M 482 272 L 316 272 L 316 108 L 196 108 L 196 272 L 30 272 L 30 390 L 196 390 L 196 554 L 316 554 L 316 390 L 482 390 L 482 272 Z" unicode="+" />
<glyph horiz-adv-x="274" d="M 240 136 C 238 96 230 56 216 16 C 202 -24 187 -60 169 -91 C 151 -121 134 -142 119 -152 L 10 -103 C 20 -91 30 -73 42 -47 C 54 -21 64 7 73 40 C 82 72 88 104 91 136 L 240 136 Z" unicode="," />
<glyph horiz-adv-x="380" d="M 335 204 L 46 204 L 46 334 L 335 334 L 335 204 Z" unicode="-" />
<glyph horiz-adv-x="276" d="M 212 0 L 64 0 L 64 158 L 212 158 L 212 0 Z" unicode="." />
<glyph horiz-adv-x="353" d="M 358 730 L 128 0 L -5 0 L 228 730 L 358 730 Z" unicode="/" />
<glyph horiz-adv-x="601" d="M 297 -12 C 246 -12 201 1 162 28 C 122 54 91 95 69 150 C 47 205 36 275 36 361 C 36 431 45 495 65 553 C 84 611 113 657 153 691 C 193 725 243 742 303 742 C 364 742 414 726 453 694 C 491 662 520 619 538 563 C 556 507 565 443 565 370 C 565 292 555 224 536 167 C 516 110 487 66 448 35 C 408 3 358 -12 297 -12 Z M 299 115 C 325 115 347 124 364 143 C 380 161 393 189 401 225 C 409 261 413 305 413 359 C 413 413 409 460 401 498 C 393 536 381 564 365 584 C 348 604 326 614 300 614 C 275 614 254 605 238 587 C 221 569 208 541 200 504 C 192 466 188 419 188 362 C 188 306 192 260 200 224 C 208 187 221 160 237 142 C 253 124 274 115 299 115 Z" unicode="0" />
<glyph horiz-adv-x="402" d="M 327 0 L 177 0 L 177 527 C 161 511 138 498 107 487 C 76 475 50 469 29 469 L 29 611 C 66 612 101 623 133 644 C 165 664 197 693 229 731 L 327 731 L 327 0 Z" unicode="1" />
<glyph horiz-adv-x="565" d="M 541 0 L 21 0 L 21 50 L 318 386 C 338 409 354 432 365 455 C 375 477 381 499 381 520 C 381 546 371 567 351 584 C 331 601 305 610 273 610 C 236 610 208 599 189 577 C 169 555 160 527 160 494 L 24 500 C 26 575 50 634 97 677 C 144 720 208 742 288 742 C 361 742 420 724 465 689 C 510 654 533 606 533 544 C 533 489 522 444 500 408 C 478 372 455 341 430 314 L 253 125 L 541 125 L 541 0 Z" unicode="2" />
<glyph horiz-adv-x="547" d="M 262 -12 C 198 -12 144 -3 100 14 C 56 31 22 51 0 74 L 74 182 C 91 168 114 154 143 140 C 172 125 207 118 248 118 C 292 118 326 128 349 149 C 372 169 384 196 384 229 C 384 261 371 284 347 300 C 322 316 290 324 252 324 L 125 324 L 125 451 L 250 451 C 281 451 307 458 327 474 C 347 490 358 510 358 534 C 358 556 349 574 332 590 C 315 606 292 614 263 614 C 223 614 192 607 168 593 C 144 579 123 563 105 547 L 30 650 C 47 670 76 690 116 711 C 156 731 209 742 276 742 C 342 742 397 726 441 695 C 485 663 508 617 508 557 C 508 515 495 480 471 451 C 446 422 417 403 385 393 C 425 383 459 363 488 332 C 517 301 532 262 532 215 C 532 182 523 148 506 113 C 488 78 460 48 420 24 C 380 0 328 -12 262 -12 Z" unicode="3" />
<glyph horiz-adv-x="587" d="M 579 177 L 466 177 L 466 0 L 326 0 L 326 177 L 12 177 L 12 277 L 361 737 L 466 737 L 466 301 L 579 301 L 579 177 Z M 329 297 L 329 522 L 160 297 L 329 297 Z" unicode="4" />
<glyph horiz-adv-x="567" d="M 273 -12 C 208 -12 154 -1 112 18 C 70 38 37 59 15 79 L 88 188 C 106 169 130 152 161 138 C 192 123 226 116 262 116 C 300 116 331 128 355 153 C 378 177 390 209 390 249 C 390 287 378 316 356 338 C 334 359 305 370 271 370 C 243 370 218 365 197 355 C 175 345 159 331 149 314 L 53 336 L 86 730 L 478 730 L 478 599 L 194 599 L 184 449 C 195 461 212 472 235 481 C 258 489 283 494 309 494 C 381 494 438 471 480 427 C 522 382 543 325 543 256 C 543 178 518 114 470 64 C 421 13 355 -12 273 -12 Z" unicode="5" />
<glyph horiz-adv-x="583" d="M 303 -12 C 252 -12 206 0 165 22 C 124 44 92 76 68 118 C 44 160 33 209 33 267 C 33 325 43 378 64 428 C 85 478 114 525 150 570 C 186 614 226 658 271 701 L 332 758 L 428 674 L 376 626 C 335 583 299 544 267 509 C 235 474 213 446 203 424 C 212 436 228 448 251 460 C 274 472 300 478 330 478 C 398 478 454 456 497 413 C 540 369 562 311 562 237 C 562 189 550 147 528 110 C 506 72 475 43 436 21 C 396 -1 352 -12 303 -12 Z M 303 111 C 337 111 364 122 384 146 C 404 169 415 199 415 235 C 415 273 405 303 385 326 C 365 348 337 360 301 360 C 270 360 243 350 220 330 C 196 310 185 279 185 239 C 185 199 195 168 216 145 C 236 122 265 111 303 111 Z" unicode="6" />
<glyph horiz-adv-x="511" d="M 505 730 L 522 681 L 185 -12 L 53 49 L 329 599 L 13 599 L 13 730 L 505 730 Z" unicode="7" />
<glyph horiz-adv-x="588" d="M 292 107 C 329 107 358 116 380 135 C 402 154 413 180 413 214 C 413 245 402 269 380 287 C 358 304 329 313 292 313 C 256 313 228 304 206 287 C 184 270 173 245 173 212 C 173 180 183 154 205 135 C 226 116 255 107 292 107 Z M 292 430 C 323 430 347 438 365 455 C 383 472 392 494 392 521 C 392 554 383 578 365 594 C 347 610 323 618 292 618 C 262 618 238 609 220 591 C 202 573 193 550 193 522 C 193 494 202 471 221 455 C 239 438 263 430 292 430 Z M 421 385 C 456 373 487 351 514 320 C 541 289 555 249 555 199 C 555 140 531 90 485 49 C 439 8 375 -12 293 -12 C 211 -12 148 7 103 47 C 57 86 35 137 35 199 C 35 233 42 264 56 290 C 70 316 88 336 109 352 C 129 368 149 378 169 383 C 151 391 134 402 117 417 C 99 432 85 450 74 472 C 62 494 57 518 57 546 C 57 605 79 652 123 688 C 167 724 224 742 293 742 C 369 742 427 723 469 687 C 510 651 531 607 532 555 C 532 513 521 478 499 448 C 476 418 450 397 421 385 Z" unicode="8" />
<glyph horiz-adv-x="583" d="M 259 -18 L 168 69 L 221 118 C 244 142 267 166 289 190 C 311 214 330 238 348 260 C 365 282 378 302 386 319 C 375 305 357 292 331 279 C 305 266 279 260 252 260 C 184 260 128 281 85 323 C 42 365 21 424 21 500 C 21 546 32 587 55 625 C 77 662 108 691 147 713 C 186 735 231 746 281 746 C 357 746 420 721 472 672 C 524 623 550 555 550 468 C 550 407 539 351 518 300 C 496 249 468 202 433 159 C 397 115 359 75 318 37 L 259 -18 Z M 285 375 C 318 375 346 385 368 407 C 390 428 402 458 402 498 C 402 538 390 569 368 591 C 346 613 318 624 285 624 C 251 624 223 612 203 589 C 182 566 172 537 172 502 C 172 462 181 431 201 409 C 221 386 249 375 285 375 Z" unicode="9" />
<glyph horiz-adv-x="276" d="M 212 340 L 65 340 L 65 495 L 212 495 L 212 340 Z M 212 0 L 65 0 L 65 155 L 212 155 L 212 0 Z" unicode=":" />
<glyph horiz-adv-x="276" d="M 220 340 L 74 340 L 74 495 L 220 495 L 220 340 Z M 223 123 C 220 87 212 51 200 13 C 187 -24 172 -57 155 -87 C 138 -116 122 -135 108 -145 L -1 -97 C 15 -78 32 -47 51 -4 C 69 39 79 81 81 123 L 223 123 Z" unicode=";" />
<glyph horiz-adv-x="456" d="M 397 85 L 50 275 L 50 380 L 397 570 L 397 438 L 198 330 L 397 219 L 397 85 Z" unicode="&#x3C;" />
<glyph horiz-adv-x="508" d="M 454 377 L 55 377 L 55 501 L 454 501 L 454 377 Z M 454 153 L 55 153 L 55 277 L 454 277 L 454 153 Z" unicode="=" />
<glyph horiz-adv-x="456" d="M 404 275 L 56 85 L 56 219 L 256 330 L 56 439 L 56 570 L 404 380 L 404 275 Z" unicode="&#x3E;" />
<glyph horiz-adv-x="480" d="M 151 230 C 151 268 157 300 170 327 C 182 353 203 379 231 405 C 245 418 259 431 271 444 C 283 456 292 470 299 484 C 306 498 310 513 310 531 C 310 555 300 575 281 589 C 261 603 239 610 213 610 C 187 610 164 603 144 591 C 124 579 108 564 97 548 L 3 641 C 26 671 58 695 100 714 C 141 732 187 742 237 742 C 305 742 360 723 402 687 C 443 650 464 604 464 549 C 464 497 451 456 427 427 C 402 398 377 371 351 345 C 330 329 316 310 309 290 C 301 270 297 250 297 230 L 151 230 Z M 145 0 L 145 150 L 309 150 L 309 0 L 145 0 Z" unicode="?" />
<glyph horiz-adv-x="872" d="M 426 -33 C 351 -33 285 -15 227 18 C 169 52 124 99 92 157 C 60 215 44 279 44 351 C 44 423 60 488 92 546 C 124 604 170 649 229 683 C 287 716 356 733 434 733 C 513 733 582 719 642 691 C 701 663 747 623 779 571 C 811 519 828 457 828 386 C 828 326 819 277 801 241 C 783 205 762 178 736 162 C 710 146 684 138 660 138 C 626 138 599 144 579 156 C 559 168 544 184 536 205 C 525 188 506 173 479 160 C 452 146 419 140 380 140 C 330 140 291 152 265 178 C 239 203 226 235 226 273 C 226 302 234 327 252 348 C 270 368 295 384 328 395 C 360 405 400 411 447 411 L 523 411 L 523 423 C 523 443 516 458 503 469 C 489 479 466 485 434 485 C 408 485 385 482 364 476 C 343 470 325 463 311 456 L 272 542 C 289 550 313 557 343 565 C 373 572 403 576 431 576 C 488 576 535 563 571 539 C 607 515 626 471 626 409 L 626 266 C 626 255 629 245 635 236 C 641 226 652 222 670 222 C 680 222 691 226 702 234 C 713 242 723 258 731 281 C 739 303 743 336 743 380 C 743 432 730 479 706 521 C 681 563 646 595 600 619 C 554 643 498 655 434 655 C 371 655 317 641 271 615 C 225 589 190 553 166 507 C 142 461 130 410 130 353 C 130 295 142 243 168 197 C 193 150 228 113 273 85 C 318 57 370 44 429 44 C 452 44 476 46 501 51 C 525 56 549 64 571 75 L 602 4 C 575 -8 547 -18 517 -24 C 487 -30 456 -33 426 -33 Z M 419 225 C 440 225 460 229 480 237 C 499 245 513 254 523 262 L 523 340 L 447 340 C 412 340 387 335 372 325 C 356 315 349 302 349 284 C 349 264 354 249 366 239 C 377 229 395 225 419 225 Z" unicode="@" />
<glyph horiz-adv-x="680" d="M 428 249 L 333 495 L 241 249 L 428 249 Z M 684 0 L 517 0 L 464 134 L 204 134 L 153 0 L -3 0 L 296 732 L 393 732 L 684 0 Z" unicode="A" />
<glyph horiz-adv-x="644" d="M 86 0 L 86 730 L 360 730 C 425 730 477 714 516 684 C 555 653 575 610 575 555 C 575 506 561 467 535 439 C 509 410 476 392 437 385 C 479 379 519 363 557 336 C 594 308 613 265 613 206 C 613 160 601 121 577 91 C 553 61 521 38 481 23 C 441 7 397 0 349 0 L 86 0 Z M 233 430 L 326 430 C 359 430 383 439 397 459 C 411 478 419 499 419 522 C 419 546 410 566 393 582 C 376 598 353 606 325 606 L 233 606 L 233 430 Z M 236 123 L 348 123 C 386 123 412 132 428 152 C 443 172 451 195 451 221 C 451 246 441 267 423 284 C 404 301 377 310 343 310 L 236 310 L 236 123 Z" unicode="B" />
<glyph horiz-adv-x="717" d="M 403 -12 C 335 -12 273 3 219 33 C 165 63 122 107 90 163 C 58 219 42 287 42 365 C 42 438 57 503 89 560 C 121 616 164 661 219 693 C 273 725 335 742 404 742 C 470 742 527 732 574 713 C 621 694 661 665 694 627 L 593 524 C 574 546 549 564 519 580 C 489 595 452 603 409 603 C 363 603 324 592 294 572 C 263 551 240 523 224 488 C 208 452 201 412 201 367 C 201 310 211 264 231 228 C 251 192 278 165 311 148 C 343 131 379 123 417 123 C 461 123 499 131 530 149 C 560 167 586 190 608 219 L 707 132 C 677 90 636 56 585 29 C 534 1 473 -12 403 -12 Z" unicode="C" />
<glyph horiz-adv-x="763" d="M 86 0 L 86 730 L 344 730 C 466 730 560 697 624 631 C 688 565 721 479 721 373 C 721 268 687 180 620 108 C 553 36 455 0 325 0 L 86 0 Z M 243 125 L 324 125 C 406 125 465 149 502 199 C 539 248 558 305 558 371 C 558 440 539 496 502 539 C 464 582 410 604 338 604 L 243 604 L 243 125 Z" unicode="D" />
<glyph horiz-adv-x="609" d="M 563 0 L 86 0 L 86 730 L 544 730 L 544 599 L 240 599 L 240 424 L 523 424 L 523 297 L 240 297 L 240 131 L 563 131 L 563 0 Z" unicode="E" />
<glyph horiz-adv-x="542" d="M 505 599 L 242 599 L 242 424 L 490 424 L 490 294 L 242 294 L 242 0 L 86 0 L 86 730 L 505 730 L 505 599 Z" unicode="F" />
<glyph horiz-adv-x="776" d="M 420 389 L 734 389 L 734 149 C 705 102 663 63 609 33 C 555 3 490 -12 414 -12 C 341 -12 277 3 221 34 C 165 65 121 109 89 166 C 57 222 42 289 42 365 C 42 443 59 510 93 566 C 127 622 172 666 228 696 C 284 726 346 742 414 742 C 464 742 507 736 542 724 C 577 712 606 698 628 682 C 650 665 668 649 682 635 L 585 533 C 569 549 548 564 522 580 C 495 595 458 603 411 603 C 369 603 332 593 300 574 C 268 555 244 528 226 493 C 208 457 200 415 200 367 C 200 317 209 274 227 236 C 245 198 270 168 304 147 C 337 125 377 115 423 115 C 464 115 500 122 531 138 C 562 153 584 173 598 198 L 598 261 L 420 261 L 420 389 Z" unicode="G" />
<glyph horiz-adv-x="780" d="M 694 0 L 537 0 L 537 291 L 243 291 L 243 0 L 86 0 L 86 730 L 243 730 L 243 427 L 537 427 L 537 730 L 694 730 L 694 0 Z" unicode="H" />
<glyph horiz-adv-x="338" d="M 248 0 L 91 0 L 91 730 L 248 730 L 248 0 Z" unicode="I" />
<glyph horiz-adv-x="422" d="M 346 730 L 346 204 C 346 143 327 92 289 50 C 251 8 196 -12 125 -12 C 103 -12 81 -10 59 -8 C 37 -5 20 0 9 7 L 36 134 C 42 130 53 128 69 126 C 85 124 98 124 108 124 C 136 124 158 131 173 147 C 188 163 196 181 196 203 L 196 730 L 346 730 Z" unicode="J" />
<glyph horiz-adv-x="715" d="M 723 0 L 523 0 L 299 287 L 242 219 L 242 0 L 86 0 L 86 730 L 242 730 L 242 402 L 509 730 L 688 730 L 407 396 L 723 0 Z" unicode="K" />
<glyph horiz-adv-x="540" d="M 530 0 L 86 0 L 86 730 L 243 730 L 243 132 L 530 132 L 530 0 Z" unicode="L" />
<glyph horiz-adv-x="951" d="M 865 0 L 719 0 L 719 415 L 501 105 L 445 105 L 231 413 L 231 0 L 86 0 L 86 730 L 184 730 L 479 295 L 771 730 L 865 730 L 865 0 Z" unicode="M" />
<glyph horiz-adv-x="782" d="M 696 0 L 589 0 L 232 457 L 232 0 L 86 0 L 86 730 L 204 730 L 551 282 L 551 730 L 696 730 L 696 0 Z" unicode="N" />
<glyph horiz-adv-x="832" d="M 421 123 C 461 123 496 132 528 151 C 560 169 585 197 603 233 C 621 269 631 313 631 367 C 631 415 621 457 602 493 C 583 528 557 555 524 574 C 491 593 454 603 412 603 C 372 603 336 594 304 577 C 272 559 246 533 228 498 C 210 463 201 420 201 369 C 201 316 210 271 230 235 C 249 198 275 170 308 151 C 341 132 379 123 421 123 Z M 419 -12 C 341 -12 274 4 218 37 C 162 69 118 114 88 172 C 57 230 42 296 42 370 C 42 441 58 505 92 561 C 125 617 169 661 225 693 C 281 725 343 742 411 742 C 484 742 549 726 606 696 C 663 665 708 621 741 565 C 773 509 790 443 790 369 C 790 291 772 224 738 167 C 704 110 659 66 603 35 C 547 3 485 -12 419 -12 Z" unicode="O" />
<glyph horiz-adv-x="630" d="M 86 0 L 86 730 L 369 730 C 439 730 496 709 540 668 C 584 627 606 571 606 500 C 606 430 583 372 539 328 C 495 283 436 261 362 261 L 243 261 L 243 0 L 86 0 Z M 241 387 L 343 387 C 376 387 402 397 420 417 C 438 437 447 465 447 499 C 447 533 436 559 415 577 C 394 594 368 603 337 603 L 241 603 L 241 387 Z" unicode="P" />
<glyph horiz-adv-x="828" d="M 419 -6 C 339 -6 270 9 214 41 C 158 73 115 117 86 173 C 56 229 42 295 42 370 C 42 440 58 503 90 559 C 122 615 166 659 222 692 C 278 725 341 742 412 742 C 484 742 549 726 606 696 C 663 666 708 622 741 566 C 773 510 790 443 790 365 C 790 294 774 231 742 175 C 710 119 667 74 611 42 C 555 10 491 -6 419 -6 Z M 419 122 C 459 122 495 131 527 149 C 559 167 584 194 603 230 C 621 266 631 312 631 366 C 631 418 621 462 601 497 C 581 532 554 558 521 576 C 488 594 451 603 411 603 C 370 603 334 594 302 576 C 270 558 246 532 228 498 C 210 463 201 420 201 370 C 201 316 210 270 230 233 C 250 196 276 168 309 150 C 341 131 378 122 419 122 Z M 704 -191 C 638 -189 580 -174 528 -148 C 476 -122 435 -85 404 -37 C 373 10 357 67 355 134 L 510 134 C 510 87 519 50 537 22 C 555 -5 579 -25 609 -37 C 638 -49 670 -57 704 -59 L 704 -191 Z" unicode="Q" />
<glyph horiz-adv-x="665" d="M 86 0 L 86 730 L 353 730 C 393 730 431 722 466 706 C 500 690 528 667 549 637 C 570 606 581 568 581 524 C 581 460 565 412 533 380 C 501 348 466 329 430 323 L 429 318 L 661 0 L 480 0 L 290 274 L 241 274 L 241 0 L 86 0 Z M 239 399 L 323 399 C 349 399 372 407 392 425 C 412 443 422 469 422 505 C 422 537 412 562 392 580 C 372 597 349 606 324 606 L 239 606 L 239 399 Z" unicode="R" />
<glyph horiz-adv-x="572" d="M 293 -12 C 233 -12 180 -4 135 12 C 89 28 52 50 22 78 L 109 195 C 127 175 152 157 185 141 C 217 125 253 117 291 117 C 318 117 341 123 359 136 C 377 149 386 167 386 190 C 386 213 376 233 356 249 C 336 265 307 281 267 297 C 223 315 184 334 152 354 C 119 374 93 399 75 429 C 57 459 48 497 48 544 C 48 602 69 650 113 687 C 157 723 214 742 286 742 C 336 742 379 734 416 720 C 452 706 484 688 511 668 L 438 550 C 416 566 392 580 367 592 C 342 603 316 609 289 609 C 261 609 239 602 223 590 C 207 578 200 562 200 544 C 200 520 210 501 231 486 C 252 471 289 452 343 430 C 409 402 458 372 490 339 C 522 305 539 259 539 200 C 539 131 514 78 464 42 C 414 6 357 -12 293 -12 Z" unicode="S" />
<glyph horiz-adv-x="579" d="M 569 597 L 365 597 L 365 0 L 208 0 L 208 597 L 10 597 L 10 730 L 569 730 L 569 597 Z" unicode="T" />
<glyph horiz-adv-x="765" d="M 685 730 L 685 266 C 685 208 671 158 643 116 C 615 74 579 43 533 21 C 487 -1 437 -12 382 -12 C 327 -12 277 -1 231 20 C 185 41 149 72 121 114 C 93 155 80 206 80 266 L 80 730 L 233 730 L 233 264 C 233 221 247 187 275 162 C 303 136 338 124 381 124 C 423 124 459 136 488 161 C 516 185 531 220 531 264 L 531 730 L 685 730 Z" unicode="U" />
<glyph horiz-adv-x="690" d="M 696 730 L 392 -3 L 296 -3 L -3 730 L 164 730 L 348 255 L 536 730 L 696 730 Z" unicode="V" />
<glyph horiz-adv-x="942" d="M 940 730 L 708 -5 L 628 -5 L 472 470 L 310 -5 L 230 -5 L 2 730 L 160 730 L 293 288 L 439 730 L 519 730 L 666 286 L 795 730 L 940 730 Z" unicode="W" />
<glyph horiz-adv-x="660" d="M 191 730 L 651 0 L 481 0 L 19 730 L 191 730 Z M 11 0 L 474 730 L 636 730 L 174 0 L 11 0 Z" unicode="X" />
<glyph horiz-adv-x="688" d="M 693 730 L 419 305 L 419 0 L 262 0 L 262 312 L -5 730 L 171 730 L 348 449 L 527 730 L 693 730 Z" unicode="Y" />
<glyph horiz-adv-x="612" d="M 575 730 L 575 670 L 225 131 L 585 131 L 585 0 L 16 0 L 16 57 L 360 598 L 34 598 L 34 730 L 575 730 Z" unicode="Z" />
<glyph horiz-adv-x="351" d="M 323 -179 L 86 -179 L 86 730 L 323 730 L 323 613 L 224 613 L 224 -61 L 323 -61 L 323 -179 Z" unicode="[" />
<glyph horiz-adv-x="353" d="M -5 730 L 124 730 L 358 0 L 226 0 L -5 730 Z" unicode="\" />
<glyph horiz-adv-x="344" d="M 258 -179 L 28 -179 L 28 -62 L 120 -62 L 120 613 L 28 613 L 28 730 L 258 730 L 258 -179 Z" unicode="]" />
<glyph horiz-adv-x="518" d="M 465 369 L 340 369 L 258 576 L 176 369 L 53 369 L 197 730 L 320 730 L 465 369 Z" unicode="^" />
<glyph horiz-adv-x="500" d="M 500 -178 L 0 -178 L 0 -58 L 500 -58 L 500 -178 Z" unicode="_" />
<glyph horiz-adv-x="500" d="M 382 548 L 235 548 L 105 707 L 278 707 L 382 548 Z" unicode="`" />
<glyph horiz-adv-x="558" d="M 363 151 L 363 228 L 281 225 C 247 224 220 218 201 207 C 181 195 172 179 172 157 C 172 139 178 125 191 115 C 204 105 221 101 243 101 C 269 101 293 106 314 116 C 335 126 351 137 363 151 Z M 500 0 L 364 0 L 364 56 C 347 36 325 20 299 8 C 273 -4 239 -10 199 -10 C 140 -10 96 4 67 33 C 37 62 23 99 23 143 C 23 198 45 240 90 270 C 135 299 199 316 283 320 L 360 324 L 360 331 C 360 351 353 367 340 379 C 327 391 305 397 275 397 C 244 397 214 392 185 382 C 156 372 130 360 108 347 L 56 438 C 80 456 111 472 151 486 C 191 500 238 508 292 508 C 356 508 406 493 444 465 C 481 437 500 391 500 329 L 500 0 Z" unicode="a" />
<glyph horiz-adv-x="614" d="M 319 106 C 353 106 381 119 401 145 C 421 171 432 206 432 250 C 432 294 422 328 403 353 C 384 377 356 390 318 390 C 295 390 275 384 258 374 C 241 364 228 348 218 327 C 208 306 204 279 204 247 C 204 216 208 190 217 169 C 226 148 239 132 257 122 C 274 111 295 106 319 106 Z M 361 -5 C 316 -5 281 3 255 20 C 229 36 212 55 202 77 L 202 0 L 64 0 L 64 763 L 199 763 L 199 418 C 208 440 227 460 255 478 C 283 496 319 505 363 505 C 424 505 476 483 518 439 C 560 395 582 335 582 259 C 582 174 559 109 514 63 C 469 17 418 -5 361 -5 Z" unicode="b" />
<glyph horiz-adv-x="542" d="M 413 182 L 528 114 C 508 80 480 50 443 26 C 405 1 355 -11 293 -11 C 217 -11 154 12 105 58 C 56 104 32 167 32 247 C 32 299 43 345 67 384 C 90 423 122 453 162 475 C 202 496 248 507 299 507 C 362 507 412 493 450 465 C 488 437 513 406 527 370 L 402 315 C 392 335 380 352 364 365 C 348 378 326 385 299 385 C 263 385 235 372 215 347 C 195 322 185 289 185 247 C 185 202 195 168 216 145 C 236 122 265 111 302 111 C 332 111 356 118 373 133 C 390 147 403 164 413 182 Z" unicode="c" />
<glyph horiz-adv-x="613" d="M 297 105 C 333 105 360 117 380 143 C 400 169 410 204 410 250 C 410 284 405 311 395 331 C 385 351 372 365 355 375 C 337 384 318 389 297 389 C 260 389 232 376 212 352 C 192 327 183 293 183 249 C 183 220 187 195 196 174 C 204 152 217 135 234 123 C 251 111 272 105 297 105 Z M 263 -8 C 197 -8 143 14 99 60 C 55 105 33 166 33 244 C 33 294 44 339 66 379 C 88 419 117 450 153 473 C 189 495 229 507 272 507 C 301 507 328 500 354 487 C 380 474 398 460 410 444 L 410 763 L 549 763 L 549 0 L 416 0 L 416 73 C 411 61 401 49 387 37 C 372 24 354 13 333 5 C 311 -3 288 -8 263 -8 Z" unicode="d" />
<glyph horiz-adv-x="572" d="M 300 -11 C 222 -11 158 11 108 55 C 58 99 33 162 33 243 C 33 293 44 338 66 378 C 88 418 119 449 159 472 C 199 495 245 507 297 507 C 375 507 437 480 482 426 C 527 372 550 299 550 206 L 174 206 C 176 180 187 156 208 135 C 229 114 261 104 303 104 C 339 104 367 109 388 120 C 409 131 426 143 438 157 L 519 74 C 496 49 468 29 436 13 C 404 -3 358 -11 300 -11 Z M 177 301 L 404 301 C 402 326 392 348 372 366 C 352 384 326 394 293 394 C 259 394 232 384 212 366 C 191 347 179 325 177 301 Z" unicode="e" />
<glyph horiz-adv-x="352" d="M 348 374 L 238 374 L 238 0 L 93 0 L 93 374 L 9 374 L 9 495 L 93 495 L 93 572 C 93 617 101 654 118 683 C 135 712 158 733 186 747 C 214 761 244 768 277 768 C 294 768 311 766 329 763 C 346 759 360 755 370 751 L 353 630 C 347 632 339 635 331 637 C 322 639 312 640 301 640 C 284 640 269 633 257 621 C 244 608 238 591 238 569 L 238 495 L 348 495 L 348 374 Z" unicode="f" />
<glyph horiz-adv-x="611" d="M 299 118 C 319 118 338 123 355 134 C 372 144 385 160 395 180 C 405 200 410 225 410 255 C 410 280 405 303 397 323 C 388 343 375 358 359 370 C 343 381 322 387 297 387 C 262 387 234 375 214 351 C 193 327 183 293 183 248 C 183 204 193 171 213 150 C 233 128 262 118 299 118 Z M 259 8 C 193 8 139 30 97 75 C 54 120 33 179 33 252 C 33 329 53 391 95 437 C 137 483 192 506 262 506 C 296 506 327 499 355 485 C 383 471 403 455 414 436 L 414 495 L 549 495 L 549 55 C 549 -1 536 -47 510 -84 C 484 -120 451 -148 410 -166 C 368 -184 324 -193 276 -193 C 213 -193 163 -186 127 -172 C 91 -158 64 -145 47 -133 L 106 -30 C 120 -42 140 -53 168 -64 C 195 -75 226 -81 262 -81 C 290 -81 314 -76 336 -68 C 358 -59 375 -46 388 -29 C 400 -12 407 9 407 35 L 407 90 C 398 72 380 53 354 35 C 328 17 296 8 259 8 Z" unicode="g" />
<glyph horiz-adv-x="599" d="M 542 0 L 396 0 L 396 315 C 396 336 388 353 373 366 C 357 379 337 386 312 386 C 294 386 278 382 262 375 C 246 368 234 358 224 346 C 214 333 209 317 209 299 L 209 0 L 64 0 L 64 763 L 198 763 L 198 419 C 208 443 227 463 256 481 C 284 498 321 507 367 507 C 416 507 457 492 491 464 C 525 436 542 398 542 350 L 542 0 Z" unicode="h" />
<glyph horiz-adv-x="283" d="M 67 572 L 67 711 L 217 711 L 217 572 L 67 572 Z M 69 0 L 69 495 L 215 495 L 215 0 L 69 0 Z" unicode="i" />
<glyph horiz-adv-x="288" d="M 230 572 L 81 572 L 81 711 L 230 711 L 230 572 Z M 228 495 L 228 -26 C 228 -60 221 -90 207 -117 C 193 -143 173 -164 147 -179 C 121 -194 89 -202 52 -202 C 34 -202 14 -200 -9 -197 C -33 -193 -53 -189 -69 -183 L -54 -72 C -46 -76 -36 -79 -23 -81 C -10 -83 3 -85 17 -85 C 38 -85 54 -77 65 -62 C 76 -46 82 -27 82 -4 L 82 495 L 228 495 Z" unicode="j" />
<glyph horiz-adv-x="573" d="M 602 1 L 431 0 L 271 198 L 206 131 L 206 0 L 64 0 L 64 763 L 205 763 L 205 273 L 404 495 L 562 495 L 367 286 L 602 1 Z" unicode="k" />
<glyph horiz-adv-x="320" d="M 58 145 L 58 763 L 198 763 L 198 183 C 198 161 204 144 216 132 C 228 120 244 115 266 115 C 274 115 282 115 291 116 C 300 117 307 118 311 120 L 312 0 C 307 -1 297 -2 283 -4 C 268 -5 254 -6 240 -6 C 211 -6 183 -1 155 8 C 127 18 103 34 85 56 C 67 78 58 107 58 145 Z" unicode="l" />
<glyph horiz-adv-x="925" d="M 64 0 L 64 495 L 197 495 L 197 417 C 207 443 228 464 260 481 C 292 498 328 507 369 507 C 401 507 432 499 460 485 C 488 471 508 447 518 415 L 524 415 C 534 443 554 465 585 482 C 615 498 650 507 688 507 C 741 507 784 492 817 464 C 850 435 867 397 867 350 L 867 0 L 722 0 L 722 314 C 722 336 714 354 700 367 C 685 379 665 386 639 386 C 623 386 607 382 591 375 C 575 368 563 358 553 345 C 543 332 538 316 538 296 L 538 0 L 393 0 L 393 315 C 393 336 385 353 371 366 C 356 379 336 386 310 386 C 290 386 273 382 258 374 C 242 366 230 356 222 342 C 213 328 209 313 209 295 L 209 0 L 64 0 Z" unicode="m" />
<glyph horiz-adv-x="599" d="M 542 0 L 396 0 L 396 315 C 396 337 388 354 373 367 C 357 379 337 386 313 386 C 294 386 277 382 261 375 C 245 368 233 358 224 345 C 214 331 210 314 210 294 L 210 0 L 64 0 L 64 495 L 196 495 L 196 416 C 208 443 229 465 259 482 C 289 498 324 507 364 507 C 416 507 458 492 492 464 C 525 435 542 397 542 351 L 542 0 Z" unicode="n" />
<glyph horiz-adv-x="606" d="M 299 -11 C 255 -11 212 -1 171 18 C 130 37 97 66 71 104 C 45 142 32 190 32 246 C 32 296 44 341 70 381 C 95 420 128 451 169 473 C 209 495 252 507 298 507 C 347 507 392 497 434 478 C 476 458 509 430 535 393 C 561 356 574 312 574 260 C 574 205 561 157 535 117 C 509 76 476 44 434 22 C 392 0 347 -11 299 -11 Z M 302 110 C 339 110 368 122 390 148 C 412 173 423 209 423 255 C 423 295 411 327 389 350 C 367 373 336 385 298 385 C 274 385 254 379 237 369 C 220 358 207 342 198 321 C 188 300 184 275 184 246 C 184 215 189 189 199 169 C 209 149 222 134 240 124 C 258 114 278 110 302 110 Z" unicode="o" />
<glyph horiz-adv-x="615" d="M 64 -199 L 64 495 L 198 495 L 198 413 C 207 438 226 460 256 478 C 286 496 322 506 364 506 C 426 506 478 484 520 441 C 562 397 583 337 583 259 C 583 175 560 110 514 64 C 468 18 416 -4 358 -4 C 322 -4 291 2 264 16 C 237 30 218 47 208 67 L 208 -199 L 64 -199 Z M 322 108 C 353 108 379 120 401 145 C 422 169 433 205 433 251 C 433 292 423 326 404 352 C 385 378 357 392 321 392 C 297 392 277 387 260 377 C 242 367 229 351 219 330 C 209 308 205 281 205 248 C 205 195 215 158 237 138 C 259 118 287 108 322 108 Z" unicode="p" />
<glyph horiz-adv-x="612" d="M 406 -199 L 406 67 C 397 55 386 43 372 32 C 358 20 342 11 323 3 C 303 -4 282 -8 258 -8 C 193 -8 139 14 97 59 C 54 104 33 164 33 239 C 33 293 44 339 66 379 C 88 419 118 450 154 472 C 190 494 229 505 271 505 C 306 505 337 496 363 480 C 389 463 407 447 416 431 L 416 495 L 548 495 L 548 -199 L 406 -199 Z M 297 105 C 319 105 339 110 356 121 C 372 132 385 148 395 170 C 405 192 410 218 410 250 C 410 299 399 334 379 356 C 358 378 330 389 296 389 C 258 389 229 376 210 351 C 191 326 182 292 182 249 C 182 205 192 170 212 144 C 232 118 261 105 297 105 Z" unicode="q" />
<glyph horiz-adv-x="456" d="M 460 476 L 394 348 C 380 361 365 370 350 375 C 334 379 320 382 306 382 C 282 382 260 373 240 356 C 220 338 210 315 210 287 L 210 0 L 64 0 L 64 495 L 197 495 L 197 414 C 205 434 222 455 250 476 C 277 496 312 507 355 507 C 377 507 397 504 415 499 C 433 493 448 486 460 476 Z" unicode="r" />
<glyph horiz-adv-x="473" d="M 254 -12 C 206 -12 162 -6 124 5 C 85 16 52 31 26 51 L 90 147 C 112 132 138 120 168 112 C 198 103 226 99 251 99 C 269 99 283 102 293 110 C 303 118 309 128 309 140 C 309 152 300 163 284 171 C 268 179 242 189 207 199 C 173 207 144 218 120 232 C 95 246 76 263 63 284 C 49 304 43 329 43 359 C 43 402 61 437 98 465 C 135 493 183 507 241 507 C 287 507 328 500 363 488 C 397 476 422 464 438 452 L 385 351 C 364 363 342 374 319 384 C 296 393 272 398 247 398 C 229 398 214 395 201 389 C 188 383 182 375 182 363 C 182 351 187 342 199 336 C 211 329 238 319 281 307 C 331 293 372 274 402 252 C 432 229 447 195 447 150 C 447 116 438 88 422 64 C 405 40 382 21 353 8 C 324 -5 291 -12 254 -12 Z" unicode="s" />
<glyph horiz-adv-x="350" d="M 331 128 L 342 8 C 334 3 321 0 305 -2 C 289 -4 272 -6 255 -6 C 223 -6 192 0 164 11 C 136 22 113 40 95 66 C 77 91 69 124 69 165 L 69 375 L 7 375 L 7 495 L 69 495 L 69 617 L 214 634 L 214 495 L 325 495 L 325 375 L 214 375 L 214 188 C 214 163 219 145 230 135 C 241 124 258 119 282 119 C 291 119 301 120 311 122 C 321 124 327 126 331 128 Z" unicode="t" />
<glyph horiz-adv-x="600" d="M 58 495 L 203 495 L 203 188 C 203 162 211 142 228 129 C 244 116 266 110 293 110 C 322 110 345 117 363 133 C 381 149 390 170 390 197 L 390 495 L 535 495 L 535 0 L 401 0 L 401 79 C 387 53 365 31 337 15 C 308 -1 274 -10 234 -10 C 185 -10 143 4 109 32 C 75 60 58 101 58 153 L 58 495 Z" unicode="u" />
<glyph horiz-adv-x="543" d="M 552 495 L 311 -3 L 227 -3 L -10 495 L 150 495 L 276 210 L 404 495 L 552 495 Z" unicode="v" />
<glyph horiz-adv-x="745" d="M 487 -3 L 377 276 L 261 -3 L 180 -3 L 1 495 L 149 495 L 242 208 L 344 469 L 427 469 L 523 209 L 617 495 L 745 495 L 565 -3 L 487 -3 Z" unicode="w" />
<glyph horiz-adv-x="499" d="M 164 495 L 500 0 L 345 0 L 9 495 L 164 495 Z M -3 0 L 347 495 L 491 495 L 140 0 L -3 0 Z" unicode="x" />
<glyph horiz-adv-x="551" d="M 557 495 L 279 -76 C 255 -125 224 -158 188 -175 C 152 -191 117 -200 85 -200 C 65 -200 48 -198 34 -194 C 20 -190 11 -186 5 -184 L 44 -65 C 47 -66 53 -68 62 -71 C 71 -73 80 -75 89 -75 C 106 -75 120 -70 132 -61 C 143 -52 154 -37 166 -15 L 203 54 L -5 495 L 151 495 L 278 206 L 409 495 L 557 495 Z" unicode="y" />
<glyph horiz-adv-x="459" d="M 439 495 L 439 429 L 218 121 L 449 121 L 449 0 L 12 0 L 12 55 L 240 373 L 21 373 L 21 495 L 439 495 Z" unicode="z" />
<glyph horiz-adv-x="315" d="M 299 -179 C 222 -179 162 -162 119 -130 C 75 -97 54 -61 54 -23 C 54 -1 56 19 60 39 C 64 58 70 75 76 91 C 81 106 86 120 91 134 C 96 147 99 159 99 171 C 99 188 92 203 78 215 C 64 227 43 234 15 234 L 15 337 C 43 337 64 343 78 356 C 92 368 100 384 100 402 C 100 410 97 422 92 436 C 87 450 81 466 75 484 C 69 500 64 517 60 534 C 56 551 55 567 55 583 C 55 621 76 659 119 695 C 161 731 221 749 299 749 L 299 638 C 269 638 244 630 223 616 C 202 601 192 582 192 558 C 192 549 192 539 194 527 C 196 515 199 504 204 492 C 210 474 216 458 222 443 C 228 428 231 415 231 404 C 231 378 223 354 209 332 C 195 310 171 294 138 285 C 172 275 196 259 210 237 C 224 214 231 191 231 169 C 231 153 228 138 223 126 C 217 113 212 100 207 88 C 202 75 198 62 195 49 C 192 35 191 23 191 12 C 191 -8 201 -27 221 -43 C 241 -59 267 -68 299 -68 L 299 -179 Z" unicode="{" />
<glyph horiz-adv-x="270" d="M 203 -179 L 67 -179 L 67 730 L 203 730 L 203 -179 Z" unicode="|" />
<glyph horiz-adv-x="315" d="M 17 -179 L 17 -68 C 47 -68 73 -59 93 -43 C 113 -27 124 -8 124 12 C 124 23 122 35 120 49 C 117 62 113 75 108 88 C 102 100 97 113 92 126 C 87 138 85 153 85 169 C 85 191 92 214 106 237 C 120 259 144 275 178 285 C 144 294 120 310 106 332 C 92 354 85 378 85 404 C 85 415 87 428 93 443 C 98 458 104 474 112 492 C 116 504 119 515 121 527 C 123 539 124 549 124 558 C 124 582 113 601 92 616 C 70 630 45 638 17 638 L 17 749 C 93 749 153 731 196 695 C 239 659 261 621 261 583 C 261 567 259 551 255 534 C 251 517 246 500 240 484 C 233 466 227 450 222 436 C 217 422 215 410 215 402 C 215 384 222 368 236 356 C 250 343 272 337 300 337 L 300 234 C 272 234 251 227 237 215 C 223 203 217 188 217 171 C 217 159 219 147 224 134 C 229 120 234 106 240 91 C 245 75 250 58 254 39 C 258 19 261 -1 261 -23 C 261 -61 239 -97 196 -130 C 153 -162 93 -179 17 -179 Z" unicode="}" />
<glyph horiz-adv-x="506" d="M 367 454 L 481 454 C 480 390 469 343 448 311 C 427 279 398 263 360 263 C 336 263 316 266 298 274 C 280 281 264 289 252 298 C 240 306 228 314 217 321 C 205 327 193 331 180 331 C 168 331 158 324 151 312 C 143 299 140 284 140 266 L 27 266 C 27 333 37 382 57 413 C 77 444 104 460 138 460 C 164 460 187 455 207 447 C 227 438 245 429 261 419 C 273 411 284 403 296 397 C 307 390 319 387 332 387 C 346 387 356 393 360 405 C 364 417 367 434 367 454 Z" unicode="~" />
<glyph horiz-adv-x="337" d="M 81 137 L 132 328 L 208 328 L 255 137 L 255 -143 L 81 -143 L 81 137 Z M 90 572 L 247 572 L 247 414 L 90 414 L 90 572 Z" unicode="¡" />
<glyph horiz-adv-x="599" d="M 364 133 L 364 -60 L 282 -60 L 282 133 L 364 133 Z M 469 266 L 577 192 C 555 158 525 128 486 102 C 447 75 394 62 327 62 C 248 62 181 86 127 134 C 73 182 46 251 46 341 C 46 399 58 449 83 491 C 108 533 142 566 186 590 C 229 614 278 626 333 626 C 399 626 453 610 493 579 C 533 548 561 513 576 473 L 456 421 C 444 444 427 463 407 479 C 386 495 359 503 327 503 C 284 503 250 488 226 458 C 201 428 189 391 189 345 C 189 293 202 253 228 226 C 254 199 289 186 333 186 C 369 186 398 194 420 211 C 441 228 457 246 469 266 Z M 364 737 L 364 566 L 282 566 L 282 737 L 364 737 Z" unicode="¢" />
<glyph horiz-adv-x="603" d="M 517 349 L 42 349 L 42 438 L 517 438 L 517 349 Z M 517 205 L 42 205 L 42 294 L 517 294 L 517 205 Z M 344 255 C 344 227 339 204 330 185 C 321 165 309 150 295 139 C 281 127 265 119 248 115 L 590 115 L 590 0 L 20 0 L 20 86 C 26 90 35 94 49 98 C 62 102 81 106 105 110 C 125 113 144 119 160 129 C 176 139 189 151 199 165 C 208 179 213 196 213 215 C 213 238 201 265 178 296 C 154 327 131 363 107 404 C 83 444 72 492 72 548 C 72 595 84 633 108 661 C 132 689 163 710 202 723 C 241 735 283 742 329 742 C 385 742 437 733 485 716 C 533 698 568 681 589 665 L 514 554 C 496 564 470 576 438 589 C 405 602 370 609 334 609 C 306 609 282 602 260 588 C 238 574 228 552 228 520 C 228 490 237 461 257 431 C 276 401 295 371 315 341 C 334 311 344 283 344 255 Z" unicode="£" />
<glyph horiz-adv-x="502" d="M 250 532 C 300 532 342 514 378 480 C 414 445 432 403 432 354 C 432 304 414 262 378 228 C 342 193 300 176 250 176 C 199 176 156 193 121 228 C 85 262 68 304 68 354 C 68 403 85 445 121 480 C 156 514 199 532 250 532 Z M 250 270 C 273 270 294 278 312 295 C 330 311 339 331 339 354 C 339 376 330 396 312 413 C 294 429 273 438 250 438 C 226 438 205 429 188 413 C 170 396 162 376 162 354 C 162 331 170 311 188 295 C 205 278 226 270 250 270 Z M 103 564 L 178 487 L 127 437 L 53 514 L 103 564 Z M 399 565 L 450 513 L 375 436 L 325 488 L 399 565 Z M 397 144 L 322 221 L 373 272 L 447 194 L 397 144 Z M 104 144 L 53 196 L 127 273 L 179 221 L 104 144 Z" unicode="¤" />
<glyph horiz-adv-x="709" d="M 93 238 L 93 329 L 609 329 L 609 238 L 93 238 Z M 93 101 L 93 192 L 609 192 L 609 101 L 93 101 Z M 269 0 L 269 318 L 20 730 L 195 730 L 355 454 L 517 730 L 681 730 L 426 311 L 426 0 L 269 0 Z" unicode="¥" />
<glyph horiz-adv-x="299" d="M 88 351 L 88 730 L 212 730 L 212 351 L 88 351 Z M 212 200 L 212 -179 L 88 -179 L 88 200 L 212 200 Z" unicode="¦" />
<glyph horiz-adv-x="676" d="M 355 -181 C 294 -181 238 -174 188 -161 C 137 -148 94 -131 59 -109 L 120 10 C 154 -10 192 -27 235 -41 C 277 -55 315 -63 347 -63 C 374 -63 395 -57 410 -45 C 425 -33 433 -16 433 4 C 433 23 424 38 407 49 C 389 59 365 71 333 84 L 251 118 C 182 145 130 170 95 194 C 59 217 42 256 42 311 C 42 341 49 366 64 388 C 78 409 97 427 120 442 C 84 469 67 510 67 564 C 67 620 91 664 141 695 C 190 726 253 742 331 742 C 396 742 449 733 490 717 C 530 700 564 683 591 667 L 528 557 C 498 575 466 592 434 607 C 402 621 366 629 327 629 C 295 629 269 623 250 612 C 231 601 222 586 222 566 C 222 551 229 538 245 528 C 261 517 285 506 317 496 L 426 455 C 495 432 547 408 582 382 C 616 356 634 316 634 263 C 634 227 623 198 601 174 C 579 150 551 133 519 123 C 537 112 553 97 567 77 C 581 57 589 32 589 2 C 589 -56 566 -101 522 -133 C 477 -165 421 -181 355 -181 Z M 416 197 C 434 199 450 204 463 212 C 476 220 483 234 483 252 C 483 270 473 285 455 297 C 436 309 398 326 342 346 L 248 381 C 230 376 217 369 207 360 C 197 351 192 339 192 323 C 192 303 201 287 220 274 C 239 261 277 246 334 228 L 416 197 Z" unicode="§" />
<glyph horiz-adv-x="500" d="M 412 548 L 290 548 L 290 710 L 412 710 L 412 548 Z M 210 548 L 88 548 L 88 710 L 210 710 L 210 548 Z" unicode="¨" />
<glyph horiz-adv-x="841" d="M 421 -6 C 351 -6 288 10 232 44 C 175 78 130 123 96 180 C 62 236 46 299 46 368 C 46 436 62 499 96 556 C 130 612 175 657 232 691 C 288 725 351 742 421 742 C 489 742 552 725 609 691 C 665 657 710 612 744 556 C 778 499 795 436 795 368 C 795 299 778 236 744 180 C 710 123 665 78 609 44 C 552 10 489 -6 421 -6 Z M 421 70 C 475 70 525 83 570 110 C 614 136 650 172 677 217 C 703 262 717 312 717 367 C 717 421 703 471 677 516 C 650 561 614 597 570 624 C 525 651 475 665 421 665 C 366 665 316 651 271 624 C 226 597 190 561 164 516 C 137 470 124 421 124 367 C 124 312 137 262 164 217 C 190 172 226 136 271 110 C 316 83 366 70 421 70 Z M 418 157 C 463 157 500 165 529 183 C 558 200 581 222 597 248 L 510 306 C 500 290 488 278 473 269 C 458 260 440 256 420 256 C 396 256 375 265 357 285 C 339 304 330 331 330 367 C 330 401 338 430 355 452 C 371 474 393 486 420 486 C 442 486 459 481 472 473 C 485 464 496 453 504 441 L 595 505 C 579 530 557 551 529 567 C 500 583 462 592 415 592 C 359 592 312 573 273 535 C 233 497 214 442 214 371 C 214 299 234 246 275 210 C 316 174 364 157 418 157 Z" unicode="©" />
<glyph horiz-adv-x="484" d="M 448 170 L 42 170 L 42 266 L 448 266 L 448 170 Z M 322 444 L 322 506 L 246 502 C 220 501 199 496 183 488 C 167 480 160 466 160 446 C 160 430 165 418 177 410 C 189 402 204 398 224 398 C 244 398 262 402 280 410 C 297 418 311 429 322 444 Z M 438 308 L 325 308 L 325 358 C 310 338 290 324 265 315 C 239 306 211 302 179 302 C 132 302 96 314 71 338 C 46 362 34 396 34 439 C 34 484 52 519 90 543 C 128 567 182 580 253 583 L 322 587 L 322 594 C 322 606 315 617 303 625 C 290 633 270 638 244 638 C 219 638 194 634 170 626 C 145 618 121 608 98 595 L 55 679 C 79 697 108 712 144 724 C 179 736 219 743 264 743 C 319 743 362 731 392 707 C 422 683 438 643 438 588 L 438 308 Z" unicode="ª" />
<glyph horiz-adv-x="503" d="M 232 59 L 25 243 L 25 335 L 232 515 L 232 366 L 149 287 L 232 212 L 232 59 Z M 474 59 L 266 243 L 266 335 L 474 515 L 474 366 L 392 287 L 474 213 L 474 59 Z" unicode="«" />
<glyph horiz-adv-x="500" d="M 454 414 L 454 128 L 332 128 L 332 292 L 28 292 L 28 414 L 454 414 Z" unicode="¬" />
<glyph horiz-adv-x="841" d="M 421 -6 C 351 -6 288 10 232 44 C 175 78 130 123 96 180 C 62 236 46 299 46 368 C 46 436 62 499 96 556 C 130 612 175 657 232 691 C 288 725 351 742 421 742 C 489 742 552 725 609 691 C 665 657 710 612 744 556 C 778 499 795 436 795 368 C 795 299 778 236 744 180 C 710 123 665 78 609 44 C 552 10 489 -6 421 -6 Z M 421 70 C 475 70 524 83 569 109 C 614 135 650 171 677 217 C 703 262 717 312 717 367 C 717 422 703 472 677 517 C 650 562 614 598 569 625 C 524 651 475 665 421 665 C 366 665 316 651 271 625 C 226 598 190 562 164 517 C 137 472 124 422 124 367 C 124 312 137 262 164 217 C 190 171 226 135 271 109 C 316 83 366 70 421 70 Z M 268 161 L 268 593 L 444 593 C 480 593 514 583 545 563 C 575 543 591 512 591 470 C 591 432 581 403 562 385 C 542 366 522 355 502 352 L 502 348 L 634 161 L 515 161 L 412 319 L 372 319 L 372 161 L 268 161 Z M 372 402 L 438 402 C 451 402 463 406 473 416 C 483 425 488 439 488 459 C 488 478 482 491 470 499 C 458 506 446 510 432 510 L 372 510 L 372 402 Z" unicode="®" />
<glyph horiz-adv-x="500" d="M 395 557 L 105 557 L 105 666 L 395 666 L 395 557 Z" unicode="¯" />
<glyph horiz-adv-x="436" d="M 218 366 C 166 366 121 384 85 421 C 48 457 30 502 30 554 C 30 606 48 650 85 687 C 121 723 166 742 218 742 C 270 742 314 723 351 687 C 387 650 406 606 406 554 C 406 502 387 457 351 421 C 314 384 270 366 218 366 Z M 218 465 C 242 465 264 473 282 491 C 300 509 309 530 309 554 C 309 578 300 599 282 617 C 264 635 242 644 218 644 C 193 644 172 635 154 617 C 136 599 127 578 127 554 C 127 530 136 509 154 491 C 172 473 193 465 218 465 Z" unicode="°" />
<glyph horiz-adv-x="500" d="M 480 276 L 312 276 L 312 104 L 189 104 L 189 276 L 20 276 L 20 386 L 189 386 L 189 558 L 312 558 L 312 386 L 480 386 L 480 276 Z M 478 15 L 24 15 L 24 120 L 478 120 L 478 15 Z" unicode="±" />
<glyph horiz-adv-x="345" d="M 325 372 L 17 372 L 17 406 L 177 569 C 183 576 188 583 192 590 C 196 596 198 605 198 616 C 198 624 195 632 189 640 C 183 647 173 651 160 651 C 144 651 133 646 127 637 C 121 627 118 616 118 604 L 13 604 C 13 644 27 677 56 703 C 85 728 124 741 174 741 C 222 741 258 731 282 711 C 306 691 318 668 318 640 C 318 612 313 590 303 574 C 293 557 283 543 271 531 L 203 461 L 325 461 L 325 372 Z" unicode="²" />
<glyph horiz-adv-x="346" d="M 234 569 C 258 563 277 552 292 536 C 307 520 315 500 315 477 C 315 454 304 429 284 403 C 263 376 222 363 161 363 C 115 363 81 368 57 379 C 33 390 15 401 3 411 L 54 468 C 64 461 76 455 90 450 C 104 444 122 442 143 442 C 168 442 186 446 196 454 C 206 462 212 474 212 489 C 212 504 205 514 191 519 C 177 523 160 526 141 526 L 73 526 L 73 601 L 138 601 C 154 601 167 603 178 608 C 188 613 194 621 194 633 C 194 643 190 650 182 655 C 174 659 162 662 147 662 C 129 662 112 659 98 653 C 84 647 72 641 63 633 L 15 689 C 25 700 42 712 66 724 C 89 736 122 742 164 742 C 203 742 235 734 261 718 C 287 702 300 679 300 649 C 300 628 293 611 279 597 C 265 583 250 573 234 569 Z" unicode="³" />
<glyph horiz-adv-x="500" d="M 120 550 L 222 710 L 395 710 L 266 550 L 120 550 Z" unicode="´" />
<glyph horiz-adv-x="594" d="M 61 -118 L 61 495 L 205 495 L 205 180 C 205 160 212 143 228 129 C 244 115 265 108 291 108 C 308 108 324 112 338 120 C 352 128 364 140 372 154 C 380 168 385 185 385 204 L 385 495 L 529 495 L 529 0 L 397 0 L 397 74 C 384 52 365 34 340 20 C 314 6 288 -2 260 -5 C 245 -5 232 -2 220 2 C 208 6 199 13 193 23 L 193 -118 L 61 -118 Z" unicode="µ" />
<glyph horiz-adv-x="704" d="M 643 -179 L 547 -179 L 547 616 L 466 616 L 466 -179 L 370 -179 L 370 247 L 261 247 C 218 247 178 257 142 279 C 106 301 77 330 55 366 C 33 402 22 441 22 485 C 22 554 46 612 94 659 C 142 706 205 730 281 730 L 643 730 L 643 -179 Z M 371 366 L 371 610 L 321 610 C 287 610 259 598 239 576 C 218 554 208 524 208 488 C 208 452 218 423 238 400 C 258 377 283 366 315 366 L 371 366 Z" unicode="¶" />
<glyph horiz-adv-x="292" d="M 219 250 L 73 250 L 73 412 L 219 412 L 219 250 Z" unicode="·" />
<glyph horiz-adv-x="500" d="M 259 -194 C 233 -194 206 -191 178 -185 C 150 -179 129 -171 115 -162 L 131 -99 C 139 -103 151 -107 165 -111 C 179 -115 194 -117 210 -117 C 219 -117 227 -115 235 -111 C 243 -107 247 -101 247 -94 C 247 -86 243 -80 237 -77 C 230 -73 223 -72 216 -72 C 206 -72 197 -73 187 -76 L 169 -56 L 230 14 L 318 14 L 271 -42 C 305 -38 332 -42 353 -56 C 374 -70 385 -89 385 -115 C 385 -141 372 -161 346 -174 C 320 -187 291 -194 259 -194 Z" unicode="¸" />
<glyph horiz-adv-x="321" d="M 125 372 L 125 610 C 117 600 103 593 83 587 C 63 581 48 578 39 577 L 39 678 C 65 680 87 685 105 694 C 123 703 144 718 168 739 L 244 739 L 244 372 L 125 372 Z" unicode="¹" />
<glyph horiz-adv-x="494" d="M 42 170 L 42 266 L 452 266 L 452 170 L 42 170 Z M 244 299 C 188 299 138 317 94 354 C 50 391 28 446 28 518 C 28 561 38 599 58 633 C 78 666 105 692 138 711 C 171 730 206 740 244 740 C 306 740 358 721 402 685 C 445 648 467 596 467 529 C 467 459 444 404 400 362 C 355 320 303 299 244 299 Z M 243 407 C 274 407 299 417 318 439 C 337 460 347 490 347 528 C 347 562 338 588 321 607 C 303 625 279 635 249 635 C 217 635 193 624 175 603 C 157 581 148 551 148 512 C 148 478 156 452 174 434 C 191 416 214 407 243 407 Z" unicode="º" />
<glyph horiz-adv-x="505" d="M 29 515 L 238 331 L 238 240 L 29 59 L 29 208 L 111 287 L 29 361 L 29 515 Z M 273 515 L 480 331 L 480 240 L 273 59 L 273 208 L 355 287 L 273 362 L 273 515 Z" unicode="»" />
<glyph horiz-adv-x="706" d="M 94 372 L 94 610 C 86 600 72 593 52 587 C 32 581 17 578 8 577 L 8 678 C 34 680 56 685 74 694 C 92 703 113 718 137 739 L 213 739 L 213 372 L 94 372 Z M 590 730 L 246 0 L 134 0 L 478 730 L 590 730 Z M 391 81 L 391 151 L 570 363 L 644 363 L 644 156 L 697 156 L 697 81 L 644 81 L 644 1 L 543 1 L 543 81 L 391 81 Z M 473 145 L 545 145 L 545 233 L 473 145 Z" unicode="¼" />
<glyph horiz-adv-x="781" d="M 94 372 L 94 610 C 86 600 72 593 52 587 C 32 581 17 578 8 577 L 8 678 C 34 680 56 685 74 694 C 92 703 113 718 137 739 L 213 739 L 213 372 L 94 372 Z M 590 730 L 246 0 L 134 0 L 478 730 L 590 730 Z M 764 0 L 456 0 L 456 34 L 616 197 C 622 204 627 211 631 218 C 635 224 637 233 637 244 C 637 252 634 260 628 268 C 622 275 612 279 599 279 C 583 279 572 274 566 265 C 560 255 557 244 557 232 L 452 232 C 452 272 466 305 495 331 C 524 356 563 369 613 369 C 661 369 697 359 721 339 C 745 319 757 296 757 268 C 757 240 752 218 742 202 C 732 185 722 171 710 159 L 642 89 L 764 89 L 764 0 Z" unicode="½" />
<glyph horiz-adv-x="758" d="M 642 730 L 298 0 L 186 0 L 530 730 L 642 730 Z M 443 81 L 443 151 L 622 363 L 696 363 L 696 156 L 749 156 L 749 81 L 696 81 L 696 1 L 595 1 L 595 81 L 443 81 Z M 525 145 L 597 145 L 597 233 L 525 145 Z M 239 569 C 263 563 282 552 297 536 C 312 520 320 500 320 477 C 320 454 309 429 289 403 C 268 376 227 363 166 363 C 120 363 86 368 62 379 C 38 390 20 401 8 411 L 59 468 C 69 461 81 455 95 450 C 109 444 127 442 148 442 C 173 442 191 446 201 454 C 211 462 217 474 217 489 C 217 504 210 514 196 519 C 182 523 165 526 146 526 L 78 526 L 78 601 L 143 601 C 159 601 172 603 183 608 C 193 613 199 621 199 633 C 199 643 195 650 187 655 C 179 659 167 662 152 662 C 134 662 117 659 103 653 C 89 647 77 641 68 633 L 20 689 C 30 700 47 712 71 724 C 94 736 127 742 169 742 C 208 742 240 734 266 718 C 292 702 305 679 305 649 C 305 628 298 611 284 597 C 270 583 255 573 239 569 Z" unicode="¾" />
<glyph horiz-adv-x="492" d="M 252 -159 C 184 -159 126 -142 80 -109 C 33 -75 10 -30 10 26 C 10 80 23 121 50 148 C 77 174 103 196 128 212 C 156 230 174 250 182 272 C 190 294 194 318 195 344 L 341 344 C 341 298 335 262 325 237 C 314 211 291 187 257 163 C 238 150 222 138 208 128 C 194 118 183 106 176 94 C 168 81 165 66 165 48 C 165 23 175 4 195 -10 C 215 -24 239 -31 268 -31 C 295 -31 320 -24 342 -12 C 364 0 382 15 394 31 L 491 -60 C 472 -83 442 -105 402 -127 C 362 -148 312 -159 252 -159 Z M 183 427 L 183 572 L 347 572 L 347 427 L 183 427 Z" unicode="¿" />
<glyph horiz-adv-x="680" d="M 428 249 L 333 495 L 241 249 L 428 249 Z M 684 0 L 517 0 L 464 134 L 204 134 L 153 0 L -3 0 L 296 732 L 393 732 L 684 0 Z M 479 783 L 332 783 L 202 942 L 375 942 L 479 783 Z" unicode="À" />
<glyph horiz-adv-x="680" d="M 428 249 L 333 495 L 241 249 L 428 249 Z M 684 0 L 517 0 L 464 134 L 204 134 L 153 0 L -3 0 L 296 732 L 393 732 L 684 0 Z M 203 785 L 305 945 L 478 945 L 349 785 L 203 785 Z" unicode="Á" />
<glyph horiz-adv-x="680" d="M 428 249 L 333 495 L 241 249 L 428 249 Z M 684 0 L 517 0 L 464 134 L 204 134 L 153 0 L -3 0 L 296 732 L 393 732 L 684 0 Z M 538 783 L 404 783 L 340 868 L 275 783 L 143 783 L 266 957 L 415 957 L 538 783 Z" unicode="Â" />
<glyph horiz-adv-x="680" d="M 428 249 L 333 495 L 241 249 L 428 249 Z M 684 0 L 517 0 L 464 134 L 204 134 L 153 0 L -3 0 L 296 732 L 393 732 L 684 0 Z M 413 941 L 527 941 C 527 887 518 848 501 823 C 483 797 461 785 433 785 C 414 785 397 787 383 793 C 369 799 357 805 347 812 C 337 817 328 822 320 828 C 312 833 303 836 295 836 C 287 836 280 831 276 823 C 271 815 268 803 268 789 L 156 789 C 156 841 167 879 190 905 C 212 931 236 944 260 944 C 278 944 294 941 306 935 C 318 929 330 923 340 917 C 348 911 356 905 363 901 C 370 896 377 894 384 894 C 390 894 397 898 403 906 C 409 914 412 925 413 941 Z" unicode="Ã" />
<glyph horiz-adv-x="680" d="M 428 249 L 333 495 L 241 249 L 428 249 Z M 684 0 L 517 0 L 464 134 L 204 134 L 153 0 L -3 0 L 296 732 L 393 732 L 684 0 Z M 502 783 L 380 783 L 380 945 L 502 945 L 502 783 Z M 300 783 L 178 783 L 178 945 L 300 945 L 300 783 Z" unicode="Ä" />
<glyph horiz-adv-x="680" d="M 428 249 L 333 495 L 241 249 L 428 249 Z M 684 0 L 517 0 L 464 134 L 204 134 L 153 0 L -3 0 L 296 732 L 393 732 L 684 0 Z M 340 779 C 305 779 276 791 252 815 C 228 839 217 868 217 902 C 217 936 228 964 252 988 C 276 1012 305 1024 340 1024 C 374 1024 403 1012 427 988 C 451 964 463 936 463 902 C 463 868 451 839 427 815 C 403 791 374 779 340 779 Z M 340 855 C 353 855 364 859 373 868 C 381 877 386 888 386 902 C 386 915 381 926 373 935 C 364 944 353 949 340 949 C 327 949 316 944 307 935 C 297 926 293 915 293 902 C 293 888 297 877 307 868 C 316 859 327 855 340 855 Z" unicode="Å" />
<glyph horiz-adv-x="1011" d="M 967 0 L 503 0 L 503 221 L 265 221 L 128 0 L -39 0 L 419 730 L 948 730 L 948 599 L 644 599 L 644 423 L 928 423 L 928 298 L 644 298 L 644 131 L 967 131 L 967 0 Z M 503 346 L 503 617 L 335 346 L 503 346 Z" unicode="Æ" />
<glyph horiz-adv-x="717" d="M 403 -12 C 335 -12 273 3 219 33 C 165 63 122 107 90 163 C 58 219 42 287 42 365 C 42 438 57 503 89 560 C 121 616 164 661 219 693 C 273 725 335 742 404 742 C 470 742 527 732 574 713 C 621 694 661 665 694 627 L 593 524 C 574 546 549 564 519 580 C 489 595 452 603 409 603 C 363 603 324 592 294 572 C 263 551 240 523 224 488 C 208 452 201 412 201 367 C 201 310 211 264 231 228 C 251 192 278 165 311 148 C 343 131 379 123 417 123 C 461 123 499 131 530 149 C 560 167 586 190 608 219 L 707 132 C 677 90 636 56 585 29 C 534 1 473 -12 403 -12 Z M 400 -197 C 374 -197 347 -194 319 -188 C 291 -182 270 -174 256 -165 L 272 -102 C 280 -106 292 -110 306 -114 C 320 -118 335 -120 351 -120 C 360 -120 368 -118 376 -114 C 384 -110 388 -104 388 -97 C 388 -89 384 -83 378 -80 C 371 -76 364 -75 357 -75 C 347 -75 338 -76 328 -79 L 310 -59 L 371 11 L 459 11 L 412 -45 C 446 -41 473 -45 494 -59 C 515 -73 526 -92 526 -118 C 526 -144 513 -164 487 -177 C 461 -190 432 -197 400 -197 Z" unicode="Ç" />
<glyph horiz-adv-x="609" d="M 563 0 L 86 0 L 86 730 L 544 730 L 544 599 L 240 599 L 240 424 L 523 424 L 523 297 L 240 297 L 240 131 L 563 131 L 563 0 Z M 460 783 L 313 783 L 183 942 L 356 942 L 460 783 Z" unicode="È" />
<glyph horiz-adv-x="609" d="M 563 0 L 86 0 L 86 730 L 544 730 L 544 599 L 240 599 L 240 424 L 523 424 L 523 297 L 240 297 L 240 131 L 563 131 L 563 0 Z M 184 785 L 286 945 L 459 945 L 330 785 L 184 785 Z" unicode="É" />
<glyph horiz-adv-x="609" d="M 563 0 L 86 0 L 86 730 L 544 730 L 544 599 L 240 599 L 240 424 L 523 424 L 523 297 L 240 297 L 240 131 L 563 131 L 563 0 Z M 519 783 L 385 783 L 321 868 L 256 783 L 124 783 L 247 957 L 396 957 L 519 783 Z" unicode="Ê" />
<glyph horiz-adv-x="609" d="M 563 0 L 86 0 L 86 730 L 544 730 L 544 599 L 240 599 L 240 424 L 523 424 L 523 297 L 240 297 L 240 131 L 563 131 L 563 0 Z M 483 783 L 361 783 L 361 945 L 483 945 L 483 783 Z M 281 783 L 159 783 L 159 945 L 281 945 L 281 783 Z" unicode="Ë" />
<glyph horiz-adv-x="338" d="M 248 0 L 91 0 L 91 730 L 248 730 L 248 0 Z M 308 783 L 161 783 L 31 942 L 204 942 L 308 783 Z" unicode="Ì" />
<glyph horiz-adv-x="338" d="M 248 0 L 91 0 L 91 730 L 248 730 L 248 0 Z M 32 785 L 134 945 L 307 945 L 178 785 L 32 785 Z" unicode="Í" />
<glyph horiz-adv-x="338" d="M 248 0 L 91 0 L 91 730 L 248 730 L 248 0 Z M 367 783 L 233 783 L 169 868 L 104 783 L -28 783 L 95 957 L 244 957 L 367 783 Z" unicode="Î" />
<glyph horiz-adv-x="338" d="M 248 0 L 91 0 L 91 730 L 248 730 L 248 0 Z M 331 783 L 209 783 L 209 945 L 331 945 L 331 783 Z M 129 783 L 7 783 L 7 945 L 129 945 L 129 783 Z" unicode="Ï" />
<glyph horiz-adv-x="763" d="M 86 0 L 86 730 L 344 730 C 468 730 561 696 625 630 C 689 564 721 476 721 367 C 721 265 687 179 620 107 C 553 35 455 0 325 0 L 86 0 Z M 237 123 L 324 123 C 380 123 426 134 461 158 C 495 182 520 212 536 249 C 552 285 560 324 560 365 C 560 438 541 496 504 540 C 467 583 413 605 342 605 L 237 605 L 237 123 Z M 35 299 L 35 414 L 372 414 L 372 299 L 35 299 Z" unicode="Ð" />
<glyph horiz-adv-x="782" d="M 696 0 L 589 0 L 232 457 L 232 0 L 86 0 L 86 730 L 204 730 L 551 282 L 551 730 L 696 730 L 696 0 Z M 464 941 L 578 941 C 578 887 569 848 552 823 C 534 797 512 785 484 785 C 465 785 448 787 434 793 C 420 799 408 805 398 812 C 388 817 379 822 371 828 C 363 833 354 836 346 836 C 338 836 331 831 327 823 C 322 815 319 803 319 789 L 207 789 C 207 841 218 879 241 905 C 263 931 287 944 311 944 C 329 944 345 941 357 935 C 369 929 381 923 391 917 C 399 911 407 905 414 901 C 421 896 428 894 435 894 C 441 894 448 898 454 906 C 460 914 463 925 464 941 Z" unicode="Ñ" />
<glyph horiz-adv-x="832" d="M 421 123 C 461 123 496 132 528 151 C 560 169 585 197 603 233 C 621 269 631 313 631 367 C 631 415 621 457 602 493 C 583 528 557 555 524 574 C 491 593 454 603 412 603 C 372 603 336 594 304 577 C 272 559 246 533 228 498 C 210 463 201 420 201 369 C 201 316 210 271 230 235 C 249 198 275 170 308 151 C 341 132 379 123 421 123 Z M 419 -12 C 341 -12 274 4 218 37 C 162 69 118 114 88 172 C 57 230 42 296 42 370 C 42 441 58 505 92 561 C 125 617 169 661 225 693 C 281 725 343 742 411 742 C 484 742 549 726 606 696 C 663 665 708 621 741 565 C 773 509 790 443 790 369 C 790 291 772 224 738 167 C 704 110 659 66 603 35 C 547 3 485 -12 419 -12 Z M 553 783 L 406 783 L 276 942 L 449 942 L 553 783 Z" unicode="Ò" />
<glyph horiz-adv-x="832" d="M 421 123 C 461 123 496 132 528 151 C 560 169 585 197 603 233 C 621 269 631 313 631 367 C 631 415 621 457 602 493 C 583 528 557 555 524 574 C 491 593 454 603 412 603 C 372 603 336 594 304 577 C 272 559 246 533 228 498 C 210 463 201 420 201 369 C 201 316 210 271 230 235 C 249 198 275 170 308 151 C 341 132 379 123 421 123 Z M 419 -12 C 341 -12 274 4 218 37 C 162 69 118 114 88 172 C 57 230 42 296 42 370 C 42 441 58 505 92 561 C 125 617 169 661 225 693 C 281 725 343 742 411 742 C 484 742 549 726 606 696 C 663 665 708 621 741 565 C 773 509 790 443 790 369 C 790 291 772 224 738 167 C 704 110 659 66 603 35 C 547 3 485 -12 419 -12 Z M 277 785 L 379 945 L 552 945 L 423 785 L 277 785 Z" unicode="Ó" />
<glyph horiz-adv-x="832" d="M 421 123 C 461 123 496 132 528 151 C 560 169 585 197 603 233 C 621 269 631 313 631 367 C 631 415 621 457 602 493 C 583 528 557 555 524 574 C 491 593 454 603 412 603 C 372 603 336 594 304 577 C 272 559 246 533 228 498 C 210 463 201 420 201 369 C 201 316 210 271 230 235 C 249 198 275 170 308 151 C 341 132 379 123 421 123 Z M 419 -12 C 341 -12 274 4 218 37 C 162 69 118 114 88 172 C 57 230 42 296 42 370 C 42 441 58 505 92 561 C 125 617 169 661 225 693 C 281 725 343 742 411 742 C 484 742 549 726 606 696 C 663 665 708 621 741 565 C 773 509 790 443 790 369 C 790 291 772 224 738 167 C 704 110 659 66 603 35 C 547 3 485 -12 419 -12 Z M 612 783 L 478 783 L 414 868 L 349 783 L 217 783 L 340 957 L 489 957 L 612 783 Z" unicode="Ô" />
<glyph horiz-adv-x="832" d="M 421 123 C 461 123 496 132 528 151 C 560 169 585 197 603 233 C 621 269 631 313 631 367 C 631 415 621 457 602 493 C 583 528 557 555 524 574 C 491 593 454 603 412 603 C 372 603 336 594 304 577 C 272 559 246 533 228 498 C 210 463 201 420 201 369 C 201 316 210 271 230 235 C 249 198 275 170 308 151 C 341 132 379 123 421 123 Z M 419 -12 C 341 -12 274 4 218 37 C 162 69 118 114 88 172 C 57 230 42 296 42 370 C 42 441 58 505 92 561 C 125 617 169 661 225 693 C 281 725 343 742 411 742 C 484 742 549 726 606 696 C 663 665 708 621 741 565 C 773 509 790 443 790 369 C 790 291 772 224 738 167 C 704 110 659 66 603 35 C 547 3 485 -12 419 -12 Z M 487 941 L 601 941 C 601 887 592 848 575 823 C 557 797 535 785 507 785 C 488 785 471 787 457 793 C 443 799 431 805 421 812 C 411 817 402 822 394 828 C 386 833 377 836 369 836 C 361 836 354 831 350 823 C 345 815 342 803 342 789 L 230 789 C 230 841 241 879 264 905 C 286 931 310 944 334 944 C 352 944 368 941 380 935 C 392 929 404 923 414 917 C 422 911 430 905 437 901 C 444 896 451 894 458 894 C 464 894 471 898 477 906 C 483 914 486 925 487 941 Z" unicode="Õ" />
<glyph horiz-adv-x="832" d="M 421 123 C 461 123 496 132 528 151 C 560 169 585 197 603 233 C 621 269 631 313 631 367 C 631 415 621 457 602 493 C 583 528 557 555 524 574 C 491 593 454 603 412 603 C 372 603 336 594 304 577 C 272 559 246 533 228 498 C 210 463 201 420 201 369 C 201 316 210 271 230 235 C 249 198 275 170 308 151 C 341 132 379 123 421 123 Z M 419 -12 C 341 -12 274 4 218 37 C 162 69 118 114 88 172 C 57 230 42 296 42 370 C 42 441 58 505 92 561 C 125 617 169 661 225 693 C 281 725 343 742 411 742 C 484 742 549 726 606 696 C 663 665 708 621 741 565 C 773 509 790 443 790 369 C 790 291 772 224 738 167 C 704 110 659 66 603 35 C 547 3 485 -12 419 -12 Z M 576 783 L 454 783 L 454 945 L 576 945 L 576 783 Z M 374 783 L 252 783 L 252 945 L 374 945 L 374 783 Z" unicode="Ö" />
<glyph horiz-adv-x="501" d="M 122 122 L 42 203 L 170 331 L 43 457 L 123 539 L 251 412 L 379 539 L 459 457 L 331 331 L 460 203 L 379 119 L 251 251 L 122 122 Z" unicode="×" />
<glyph horiz-adv-x="832" d="M 103 -1 L 46 55 L 739 749 L 796 693 L 103 -1 Z M 421 123 C 461 123 496 132 528 151 C 560 169 585 197 603 233 C 621 269 631 313 631 367 C 631 415 621 457 602 493 C 583 528 557 555 524 574 C 491 593 454 603 412 603 C 372 603 336 594 304 577 C 272 559 246 533 228 498 C 210 463 201 420 201 369 C 201 316 210 271 230 235 C 249 198 275 170 308 151 C 341 132 379 123 421 123 Z M 419 -12 C 341 -12 274 4 218 37 C 162 69 118 114 88 172 C 57 230 42 296 42 370 C 42 441 58 505 92 561 C 125 617 169 661 225 693 C 281 725 343 742 411 742 C 484 742 549 726 606 696 C 663 665 708 621 741 565 C 773 509 790 443 790 369 C 790 291 772 224 738 167 C 704 110 659 66 603 35 C 547 3 485 -12 419 -12 Z" unicode="Ø" />
<glyph horiz-adv-x="765" d="M 685 730 L 685 266 C 685 208 671 158 643 116 C 615 74 579 43 533 21 C 487 -1 437 -12 382 -12 C 327 -12 277 -1 231 20 C 185 41 149 72 121 114 C 93 155 80 206 80 266 L 80 730 L 233 730 L 233 264 C 233 221 247 187 275 162 C 303 136 338 124 381 124 C 423 124 459 136 488 161 C 516 185 531 220 531 264 L 531 730 L 685 730 Z M 522 783 L 375 783 L 245 942 L 418 942 L 522 783 Z" unicode="Ù" />
<glyph horiz-adv-x="765" d="M 685 730 L 685 266 C 685 208 671 158 643 116 C 615 74 579 43 533 21 C 487 -1 437 -12 382 -12 C 327 -12 277 -1 231 20 C 185 41 149 72 121 114 C 93 155 80 206 80 266 L 80 730 L 233 730 L 233 264 C 233 221 247 187 275 162 C 303 136 338 124 381 124 C 423 124 459 136 488 161 C 516 185 531 220 531 264 L 531 730 L 685 730 Z M 246 785 L 348 945 L 521 945 L 392 785 L 246 785 Z" unicode="Ú" />
<glyph horiz-adv-x="765" d="M 685 730 L 685 266 C 685 208 671 158 643 116 C 615 74 579 43 533 21 C 487 -1 437 -12 382 -12 C 327 -12 277 -1 231 20 C 185 41 149 72 121 114 C 93 155 80 206 80 266 L 80 730 L 233 730 L 233 264 C 233 221 247 187 275 162 C 303 136 338 124 381 124 C 423 124 459 136 488 161 C 516 185 531 220 531 264 L 531 730 L 685 730 Z M 581 783 L 447 783 L 383 868 L 318 783 L 186 783 L 309 957 L 458 957 L 581 783 Z" unicode="Û" />
<glyph horiz-adv-x="765" d="M 685 730 L 685 266 C 685 208 671 158 643 116 C 615 74 579 43 533 21 C 487 -1 437 -12 382 -12 C 327 -12 277 -1 231 20 C 185 41 149 72 121 114 C 93 155 80 206 80 266 L 80 730 L 233 730 L 233 264 C 233 221 247 187 275 162 C 303 136 338 124 381 124 C 423 124 459 136 488 161 C 516 185 531 220 531 264 L 531 730 L 685 730 Z M 545 783 L 423 783 L 423 945 L 545 945 L 545 783 Z M 343 783 L 221 783 L 221 945 L 343 945 L 343 783 Z" unicode="Ü" />
<glyph horiz-adv-x="688" d="M 693 730 L 419 305 L 419 0 L 262 0 L 262 312 L -5 730 L 171 730 L 348 449 L 527 730 L 693 730 Z M 210 785 L 312 945 L 485 945 L 356 785 L 210 785 Z" unicode="Ý" />
<glyph horiz-adv-x="629" d="M 86 0 L 86 730 L 243 730 L 243 612 L 367 612 C 441 612 499 590 543 547 C 587 504 609 448 609 380 C 609 309 586 251 540 207 C 494 163 434 141 361 141 L 243 141 L 243 0 L 86 0 Z M 241 266 L 344 266 C 376 266 402 276 421 296 C 440 316 450 344 450 380 C 450 414 439 440 418 458 C 396 476 370 485 338 485 L 241 485 L 241 266 Z" unicode="Þ" />
<glyph horiz-adv-x="731" d="M 510 -12 C 460 -12 415 -6 376 6 C 337 18 304 34 276 55 L 337 154 C 361 140 389 129 421 120 C 453 111 480 107 504 107 C 524 107 539 111 549 119 C 559 127 565 137 565 150 C 565 162 557 173 543 181 C 529 189 503 199 467 209 C 401 226 355 247 329 271 C 303 295 291 329 291 373 C 291 408 300 436 319 456 C 338 476 359 489 382 496 C 386 498 390 502 396 508 C 402 514 405 527 406 547 C 408 583 401 611 383 630 C 365 648 342 658 315 658 C 287 658 265 650 249 635 C 232 619 224 594 224 559 L 224 0 L 77 0 L 77 581 C 77 645 99 693 143 726 C 187 759 241 776 304 776 C 370 776 426 759 474 725 C 521 691 545 643 545 583 C 545 542 537 509 523 485 C 509 461 494 444 478 435 C 462 429 448 423 435 415 C 421 407 413 399 409 389 C 409 375 419 363 441 353 C 463 343 495 332 538 321 C 592 306 633 286 663 262 C 693 238 708 203 708 158 C 708 102 689 60 651 31 C 613 2 566 -12 510 -12 Z" unicode="ß" />
<glyph horiz-adv-x="558" d="M 363 151 L 363 228 L 281 225 C 247 224 220 218 201 207 C 181 195 172 179 172 157 C 172 139 178 125 191 115 C 204 105 221 101 243 101 C 269 101 293 106 314 116 C 335 126 351 137 363 151 Z M 500 0 L 364 0 L 364 56 C 347 36 325 20 299 8 C 273 -4 239 -10 199 -10 C 140 -10 96 4 67 33 C 37 62 23 99 23 143 C 23 198 45 240 90 270 C 135 299 199 316 283 320 L 360 324 L 360 331 C 360 351 353 367 340 379 C 327 391 305 397 275 397 C 244 397 214 392 185 382 C 156 372 130 360 108 347 L 56 438 C 80 456 111 472 151 486 C 191 500 238 508 292 508 C 356 508 406 493 444 465 C 481 437 500 391 500 329 L 500 0 Z M 413 548 L 266 548 L 136 707 L 309 707 L 413 548 Z" unicode="à" />
<glyph horiz-adv-x="558" d="M 363 151 L 363 228 L 281 225 C 247 224 220 218 201 207 C 181 195 172 179 172 157 C 172 139 178 125 191 115 C 204 105 221 101 243 101 C 269 101 293 106 314 116 C 335 126 351 137 363 151 Z M 500 0 L 364 0 L 364 56 C 347 36 325 20 299 8 C 273 -4 239 -10 199 -10 C 140 -10 96 4 67 33 C 37 62 23 99 23 143 C 23 198 45 240 90 270 C 135 299 199 316 283 320 L 360 324 L 360 331 C 360 351 353 367 340 379 C 327 391 305 397 275 397 C 244 397 214 392 185 382 C 156 372 130 360 108 347 L 56 438 C 80 456 111 472 151 486 C 191 500 238 508 292 508 C 356 508 406 493 444 465 C 481 437 500 391 500 329 L 500 0 Z M 137 550 L 239 710 L 412 710 L 283 550 L 137 550 Z" unicode="á" />
<glyph horiz-adv-x="558" d="M 363 151 L 363 228 L 281 225 C 247 224 220 218 201 207 C 181 195 172 179 172 157 C 172 139 178 125 191 115 C 204 105 221 101 243 101 C 269 101 293 106 314 116 C 335 126 351 137 363 151 Z M 500 0 L 364 0 L 364 56 C 347 36 325 20 299 8 C 273 -4 239 -10 199 -10 C 140 -10 96 4 67 33 C 37 62 23 99 23 143 C 23 198 45 240 90 270 C 135 299 199 316 283 320 L 360 324 L 360 331 C 360 351 353 367 340 379 C 327 391 305 397 275 397 C 244 397 214 392 185 382 C 156 372 130 360 108 347 L 56 438 C 80 456 111 472 151 486 C 191 500 238 508 292 508 C 356 508 406 493 444 465 C 481 437 500 391 500 329 L 500 0 Z M 472 548 L 338 548 L 274 633 L 209 548 L 77 548 L 200 722 L 349 722 L 472 548 Z" unicode="â" />
<glyph horiz-adv-x="558" d="M 363 151 L 363 228 L 281 225 C 247 224 220 218 201 207 C 181 195 172 179 172 157 C 172 139 178 125 191 115 C 204 105 221 101 243 101 C 269 101 293 106 314 116 C 335 126 351 137 363 151 Z M 500 0 L 364 0 L 364 56 C 347 36 325 20 299 8 C 273 -4 239 -10 199 -10 C 140 -10 96 4 67 33 C 37 62 23 99 23 143 C 23 198 45 240 90 270 C 135 299 199 316 283 320 L 360 324 L 360 331 C 360 351 353 367 340 379 C 327 391 305 397 275 397 C 244 397 214 392 185 382 C 156 372 130 360 108 347 L 56 438 C 80 456 111 472 151 486 C 191 500 238 508 292 508 C 356 508 406 493 444 465 C 481 437 500 391 500 329 L 500 0 Z M 347 706 L 461 706 C 461 652 452 613 435 588 C 417 562 395 550 367 550 C 348 550 331 552 317 558 C 303 564 291 570 281 577 C 271 582 262 587 254 593 C 246 598 237 601 229 601 C 221 601 214 596 210 588 C 205 580 202 568 202 554 L 90 554 C 90 606 101 644 124 670 C 146 696 170 709 194 709 C 212 709 228 706 240 700 C 252 694 264 688 274 682 C 282 676 290 670 297 666 C 304 661 311 659 318 659 C 324 659 331 663 337 671 C 343 679 346 690 347 706 Z" unicode="ã" />
<glyph horiz-adv-x="558" d="M 363 151 L 363 228 L 281 225 C 247 224 220 218 201 207 C 181 195 172 179 172 157 C 172 139 178 125 191 115 C 204 105 221 101 243 101 C 269 101 293 106 314 116 C 335 126 351 137 363 151 Z M 500 0 L 364 0 L 364 56 C 347 36 325 20 299 8 C 273 -4 239 -10 199 -10 C 140 -10 96 4 67 33 C 37 62 23 99 23 143 C 23 198 45 240 90 270 C 135 299 199 316 283 320 L 360 324 L 360 331 C 360 351 353 367 340 379 C 327 391 305 397 275 397 C 244 397 214 392 185 382 C 156 372 130 360 108 347 L 56 438 C 80 456 111 472 151 486 C 191 500 238 508 292 508 C 356 508 406 493 444 465 C 481 437 500 391 500 329 L 500 0 Z M 436 548 L 314 548 L 314 710 L 436 710 L 436 548 Z M 234 548 L 112 548 L 112 710 L 234 710 L 234 548 Z" unicode="ä" />
<glyph horiz-adv-x="558" d="M 363 151 L 363 228 L 281 225 C 247 224 220 218 201 207 C 181 195 172 179 172 157 C 172 139 178 125 191 115 C 204 105 221 101 243 101 C 269 101 293 106 314 116 C 335 126 351 137 363 151 Z M 500 0 L 364 0 L 364 56 C 347 36 325 20 299 8 C 273 -4 239 -10 199 -10 C 140 -10 96 4 67 33 C 37 62 23 99 23 143 C 23 198 45 240 90 270 C 135 299 199 316 283 320 L 360 324 L 360 331 C 360 351 353 367 340 379 C 327 391 305 397 275 397 C 244 397 214 392 185 382 C 156 372 130 360 108 347 L 56 438 C 80 456 111 472 151 486 C 191 500 238 508 292 508 C 356 508 406 493 444 465 C 481 437 500 391 500 329 L 500 0 Z M 274 544 C 239 544 210 556 186 580 C 162 604 151 633 151 667 C 151 701 162 729 186 753 C 210 777 239 789 274 789 C 308 789 337 777 361 753 C 385 729 397 701 397 667 C 397 633 385 604 361 580 C 337 556 308 544 274 544 Z M 274 620 C 287 620 298 624 307 633 C 315 642 320 653 320 667 C 320 680 315 691 307 700 C 298 709 287 714 274 714 C 261 714 250 709 241 700 C 231 691 227 680 227 667 C 227 653 231 642 241 633 C 250 624 261 620 274 620 Z" unicode="å" />
<glyph horiz-adv-x="894" d="M 248 101 C 278 101 303 108 324 122 C 344 136 360 152 371 169 L 371 228 L 285 225 C 251 223 225 218 205 208 C 185 198 176 181 176 159 C 176 139 182 125 196 115 C 210 105 227 101 248 101 Z M 626 -11 C 572 -11 527 -1 492 16 C 457 34 432 57 417 83 C 399 59 371 37 333 18 C 295 0 252 -10 202 -10 C 145 -10 102 4 72 32 C 42 60 27 97 27 143 C 27 198 49 240 94 270 C 139 299 204 315 288 319 L 367 323 L 367 331 C 367 351 359 367 343 379 C 327 391 305 397 277 397 C 247 397 217 392 188 382 C 159 372 134 360 112 346 L 60 438 C 84 457 116 473 154 487 C 192 501 234 508 280 508 C 324 508 360 501 388 488 C 416 475 436 459 448 440 C 462 456 484 472 514 486 C 544 500 580 507 622 507 C 700 507 761 479 805 425 C 849 371 872 298 872 207 L 499 207 C 501 179 512 155 533 135 C 553 114 585 104 629 104 C 665 104 693 109 712 120 C 731 131 747 143 760 157 L 841 74 C 817 48 789 27 757 12 C 725 -3 681 -11 626 -11 Z M 503 301 L 726 301 C 725 325 715 346 695 365 C 675 384 648 394 615 394 C 581 394 555 384 536 365 C 516 346 505 325 503 301 Z" unicode="æ" />
<glyph horiz-adv-x="542" d="M 413 182 L 528 114 C 508 80 480 50 443 26 C 405 1 355 -11 293 -11 C 217 -11 154 12 105 58 C 56 104 32 167 32 247 C 32 299 43 345 67 384 C 90 423 122 453 162 475 C 202 496 248 507 299 507 C 362 507 412 493 450 465 C 488 437 513 406 527 370 L 402 315 C 392 335 380 352 364 365 C 348 378 326 385 299 385 C 263 385 235 372 215 347 C 195 322 185 289 185 247 C 185 202 195 168 216 145 C 236 122 265 111 302 111 C 332 111 356 118 373 133 C 390 147 403 164 413 182 Z M 299 -197 C 273 -197 246 -194 218 -188 C 190 -182 169 -174 155 -165 L 171 -102 C 179 -106 191 -110 205 -114 C 219 -118 234 -120 250 -120 C 259 -120 267 -118 275 -114 C 283 -110 287 -104 287 -97 C 287 -89 283 -83 277 -80 C 270 -76 263 -75 256 -75 C 246 -75 237 -76 227 -79 L 209 -59 L 270 11 L 358 11 L 311 -45 C 345 -41 372 -45 393 -59 C 414 -73 425 -92 425 -118 C 425 -144 412 -164 386 -177 C 360 -190 331 -197 299 -197 Z" unicode="ç" />
<glyph horiz-adv-x="572" d="M 300 -11 C 222 -11 158 11 108 55 C 58 99 33 162 33 243 C 33 293 44 338 66 378 C 88 418 119 449 159 472 C 199 495 245 507 297 507 C 375 507 437 480 482 426 C 527 372 550 299 550 206 L 174 206 C 176 180 187 156 208 135 C 229 114 261 104 303 104 C 339 104 367 109 388 120 C 409 131 426 143 438 157 L 519 74 C 496 49 468 29 436 13 C 404 -3 358 -11 300 -11 Z M 177 301 L 404 301 C 402 326 392 348 372 366 C 352 384 326 394 293 394 C 259 394 232 384 212 366 C 191 347 179 325 177 301 Z M 434 548 L 287 548 L 157 707 L 330 707 L 434 548 Z" unicode="è" />
<glyph horiz-adv-x="572" d="M 300 -11 C 222 -11 158 11 108 55 C 58 99 33 162 33 243 C 33 293 44 338 66 378 C 88 418 119 449 159 472 C 199 495 245 507 297 507 C 375 507 437 480 482 426 C 527 372 550 299 550 206 L 174 206 C 176 180 187 156 208 135 C 229 114 261 104 303 104 C 339 104 367 109 388 120 C 409 131 426 143 438 157 L 519 74 C 496 49 468 29 436 13 C 404 -3 358 -11 300 -11 Z M 177 301 L 404 301 C 402 326 392 348 372 366 C 352 384 326 394 293 394 C 259 394 232 384 212 366 C 191 347 179 325 177 301 Z M 158 550 L 260 710 L 433 710 L 304 550 L 158 550 Z" unicode="é" />
<glyph horiz-adv-x="572" d="M 300 -11 C 222 -11 158 11 108 55 C 58 99 33 162 33 243 C 33 293 44 338 66 378 C 88 418 119 449 159 472 C 199 495 245 507 297 507 C 375 507 437 480 482 426 C 527 372 550 299 550 206 L 174 206 C 176 180 187 156 208 135 C 229 114 261 104 303 104 C 339 104 367 109 388 120 C 409 131 426 143 438 157 L 519 74 C 496 49 468 29 436 13 C 404 -3 358 -11 300 -11 Z M 177 301 L 404 301 C 402 326 392 348 372 366 C 352 384 326 394 293 394 C 259 394 232 384 212 366 C 191 347 179 325 177 301 Z M 493 548 L 359 548 L 295 633 L 230 548 L 98 548 L 221 722 L 370 722 L 493 548 Z" unicode="ê" />
<glyph horiz-adv-x="572" d="M 300 -11 C 222 -11 158 11 108 55 C 58 99 33 162 33 243 C 33 293 44 338 66 378 C 88 418 119 449 159 472 C 199 495 245 507 297 507 C 375 507 437 480 482 426 C 527 372 550 299 550 206 L 174 206 C 176 180 187 156 208 135 C 229 114 261 104 303 104 C 339 104 367 109 388 120 C 409 131 426 143 438 157 L 519 74 C 496 49 468 29 436 13 C 404 -3 358 -11 300 -11 Z M 177 301 L 404 301 C 402 326 392 348 372 366 C 352 384 326 394 293 394 C 259 394 232 384 212 366 C 191 347 179 325 177 301 Z M 457 548 L 335 548 L 335 710 L 457 710 L 457 548 Z M 255 548 L 133 548 L 133 710 L 255 710 L 255 548 Z" unicode="ë" />
<glyph horiz-adv-x="283" d="M 215 0 L 69 0 L 69 495 L 215 495 L 215 0 Z M 280 548 L 133 548 L 3 707 L 176 707 L 280 548 Z" unicode="ì" />
<glyph horiz-adv-x="283" d="M 215 0 L 69 0 L 69 495 L 215 495 L 215 0 Z M 4 550 L 106 710 L 279 710 L 150 550 L 4 550 Z" unicode="í" />
<glyph horiz-adv-x="283" d="M 215 0 L 69 0 L 69 495 L 215 495 L 215 0 Z M 339 548 L 205 548 L 141 633 L 76 548 L -56 548 L 67 722 L 216 722 L 339 548 Z" unicode="î" />
<glyph horiz-adv-x="283" d="M 215 0 L 69 0 L 69 495 L 215 495 L 215 0 Z M 303 548 L 181 548 L 181 710 L 303 710 L 303 548 Z M 101 548 L -21 548 L -21 710 L 101 710 L 101 548 Z" unicode="ï" />
<glyph horiz-adv-x="611" d="M 209 567 L 184 639 L 502 729 L 526 658 L 209 567 Z M 302 107 C 344 107 375 119 397 144 C 419 169 430 203 430 245 C 430 274 425 298 415 318 C 405 338 391 353 373 363 C 355 373 332 378 306 378 C 268 378 237 365 215 341 C 193 316 182 284 182 245 C 182 203 193 170 215 145 C 237 119 266 107 302 107 Z M 300 -11 C 222 -11 158 11 108 56 C 58 100 33 162 33 242 C 33 290 45 332 69 370 C 93 407 125 436 163 458 C 201 480 240 491 281 491 C 301 491 321 488 339 483 C 357 477 373 470 387 462 C 401 453 413 444 422 435 C 416 469 406 502 391 534 C 375 566 357 595 336 621 C 315 647 294 670 273 689 C 251 708 232 723 216 734 L 347 779 C 367 763 390 741 416 712 C 442 683 466 648 490 606 C 514 564 533 516 549 461 C 565 406 573 345 573 278 C 573 224 562 176 542 132 C 521 88 490 54 450 28 C 410 2 360 -11 300 -11 Z" unicode="ð" />
<glyph horiz-adv-x="599" d="M 542 0 L 396 0 L 396 315 C 396 337 388 354 373 367 C 357 379 337 386 313 386 C 294 386 277 382 261 375 C 245 368 233 358 224 345 C 214 331 210 314 210 294 L 210 0 L 64 0 L 64 495 L 196 495 L 196 416 C 208 443 229 465 259 482 C 289 498 324 507 364 507 C 416 507 458 492 492 464 C 525 435 542 397 542 351 L 542 0 Z M 387 706 L 501 706 C 501 652 492 613 475 588 C 457 562 435 550 407 550 C 388 550 371 552 357 558 C 343 564 331 570 321 577 C 311 582 302 587 294 593 C 286 598 277 601 269 601 C 261 601 254 596 250 588 C 245 580 242 568 242 554 L 130 554 C 130 606 141 644 164 670 C 186 696 210 709 234 709 C 252 709 268 706 280 700 C 292 694 304 688 314 682 C 322 676 330 670 337 666 C 344 661 351 659 358 659 C 364 659 371 663 377 671 C 383 679 386 690 387 706 Z" unicode="ñ" />
<glyph horiz-adv-x="606" d="M 299 -11 C 255 -11 212 -1 171 18 C 130 37 97 66 71 104 C 45 142 32 190 32 246 C 32 296 44 341 70 381 C 95 420 128 451 169 473 C 209 495 252 507 298 507 C 347 507 392 497 434 478 C 476 458 509 430 535 393 C 561 356 574 312 574 260 C 574 205 561 157 535 117 C 509 76 476 44 434 22 C 392 0 347 -11 299 -11 Z M 302 110 C 339 110 368 122 390 148 C 412 173 423 209 423 255 C 423 295 411 327 389 350 C 367 373 336 385 298 385 C 274 385 254 379 237 369 C 220 358 207 342 198 321 C 188 300 184 275 184 246 C 184 215 189 189 199 169 C 209 149 222 134 240 124 C 258 114 278 110 302 110 Z M 440 548 L 293 548 L 163 707 L 336 707 L 440 548 Z" unicode="ò" />
<glyph horiz-adv-x="606" d="M 299 -11 C 255 -11 212 -1 171 18 C 130 37 97 66 71 104 C 45 142 32 190 32 246 C 32 296 44 341 70 381 C 95 420 128 451 169 473 C 209 495 252 507 298 507 C 347 507 392 497 434 478 C 476 458 509 430 535 393 C 561 356 574 312 574 260 C 574 205 561 157 535 117 C 509 76 476 44 434 22 C 392 0 347 -11 299 -11 Z M 302 110 C 339 110 368 122 390 148 C 412 173 423 209 423 255 C 423 295 411 327 389 350 C 367 373 336 385 298 385 C 274 385 254 379 237 369 C 220 358 207 342 198 321 C 188 300 184 275 184 246 C 184 215 189 189 199 169 C 209 149 222 134 240 124 C 258 114 278 110 302 110 Z M 164 550 L 266 710 L 439 710 L 310 550 L 164 550 Z" unicode="ó" />
<glyph horiz-adv-x="606" d="M 299 -11 C 255 -11 212 -1 171 18 C 130 37 97 66 71 104 C 45 142 32 190 32 246 C 32 296 44 341 70 381 C 95 420 128 451 169 473 C 209 495 252 507 298 507 C 347 507 392 497 434 478 C 476 458 509 430 535 393 C 561 356 574 312 574 260 C 574 205 561 157 535 117 C 509 76 476 44 434 22 C 392 0 347 -11 299 -11 Z M 302 110 C 339 110 368 122 390 148 C 412 173 423 209 423 255 C 423 295 411 327 389 350 C 367 373 336 385 298 385 C 274 385 254 379 237 369 C 220 358 207 342 198 321 C 188 300 184 275 184 246 C 184 215 189 189 199 169 C 209 149 222 134 240 124 C 258 114 278 110 302 110 Z M 499 548 L 365 548 L 301 633 L 236 548 L 104 548 L 227 722 L 376 722 L 499 548 Z" unicode="ô" />
<glyph horiz-adv-x="606" d="M 299 -11 C 255 -11 212 -1 171 18 C 130 37 97 66 71 104 C 45 142 32 190 32 246 C 32 296 44 341 70 381 C 95 420 128 451 169 473 C 209 495 252 507 298 507 C 347 507 392 497 434 478 C 476 458 509 430 535 393 C 561 356 574 312 574 260 C 574 205 561 157 535 117 C 509 76 476 44 434 22 C 392 0 347 -11 299 -11 Z M 302 110 C 339 110 368 122 390 148 C 412 173 423 209 423 255 C 423 295 411 327 389 350 C 367 373 336 385 298 385 C 274 385 254 379 237 369 C 220 358 207 342 198 321 C 188 300 184 275 184 246 C 184 215 189 189 199 169 C 209 149 222 134 240 124 C 258 114 278 110 302 110 Z M 374 706 L 488 706 C 488 652 479 613 462 588 C 444 562 422 550 394 550 C 375 550 358 552 344 558 C 330 564 318 570 308 577 C 298 582 289 587 281 593 C 273 598 264 601 256 601 C 248 601 241 596 237 588 C 232 580 229 568 229 554 L 117 554 C 117 606 128 644 151 670 C 173 696 197 709 221 709 C 239 709 255 706 267 700 C 279 694 291 688 301 682 C 309 676 317 670 324 666 C 331 661 338 659 345 659 C 351 659 358 663 364 671 C 370 679 373 690 374 706 Z" unicode="õ" />
<glyph horiz-adv-x="606" d="M 299 -11 C 255 -11 212 -1 171 18 C 130 37 97 66 71 104 C 45 142 32 190 32 246 C 32 296 44 341 70 381 C 95 420 128 451 169 473 C 209 495 252 507 298 507 C 347 507 392 497 434 478 C 476 458 509 430 535 393 C 561 356 574 312 574 260 C 574 205 561 157 535 117 C 509 76 476 44 434 22 C 392 0 347 -11 299 -11 Z M 302 110 C 339 110 368 122 390 148 C 412 173 423 209 423 255 C 423 295 411 327 389 350 C 367 373 336 385 298 385 C 274 385 254 379 237 369 C 220 358 207 342 198 321 C 188 300 184 275 184 246 C 184 215 189 189 199 169 C 209 149 222 134 240 124 C 258 114 278 110 302 110 Z M 463 548 L 341 548 L 341 710 L 463 710 L 463 548 Z M 261 548 L 139 548 L 139 710 L 261 710 L 261 548 Z" unicode="ö" />
<glyph horiz-adv-x="500" d="M 20 269 L 20 392 L 480 392 L 480 269 L 20 269 Z M 182 449 L 182 581 L 318 581 L 318 449 L 182 449 Z M 182 78 L 182 210 L 318 210 L 318 78 L 182 78 Z" unicode="÷" />
<glyph horiz-adv-x="606" d="M 79 -17 L 31 31 L 523 521 L 570 473 L 79 -17 Z M 299 -11 C 255 -11 212 -1 171 18 C 130 37 97 66 71 104 C 45 142 32 190 32 246 C 32 296 44 341 70 381 C 95 420 128 451 169 473 C 209 495 252 507 298 507 C 347 507 392 497 434 478 C 476 458 509 430 535 393 C 561 356 574 312 574 260 C 574 205 561 157 535 117 C 509 76 476 44 434 22 C 392 0 347 -11 299 -11 Z M 302 110 C 339 110 368 122 390 148 C 412 173 423 209 423 255 C 423 295 411 327 389 350 C 367 373 336 385 298 385 C 274 385 254 379 237 369 C 220 358 207 342 198 321 C 188 300 184 275 184 246 C 184 215 189 189 199 169 C 209 149 222 134 240 124 C 258 114 278 110 302 110 Z" unicode="ø" />
<glyph horiz-adv-x="600" d="M 58 495 L 203 495 L 203 188 C 203 162 211 142 228 129 C 244 116 266 110 293 110 C 322 110 345 117 363 133 C 381 149 390 170 390 197 L 390 495 L 535 495 L 535 0 L 401 0 L 401 79 C 387 53 365 31 337 15 C 308 -1 274 -10 234 -10 C 185 -10 143 4 109 32 C 75 60 58 101 58 153 L 58 495 Z M 437 548 L 290 548 L 160 707 L 333 707 L 437 548 Z" unicode="ù" />
<glyph horiz-adv-x="600" d="M 58 495 L 203 495 L 203 188 C 203 162 211 142 228 129 C 244 116 266 110 293 110 C 322 110 345 117 363 133 C 381 149 390 170 390 197 L 390 495 L 535 495 L 535 0 L 401 0 L 401 79 C 387 53 365 31 337 15 C 308 -1 274 -10 234 -10 C 185 -10 143 4 109 32 C 75 60 58 101 58 153 L 58 495 Z M 161 550 L 263 710 L 436 710 L 307 550 L 161 550 Z" unicode="ú" />
<glyph horiz-adv-x="600" d="M 58 495 L 203 495 L 203 188 C 203 162 211 142 228 129 C 244 116 266 110 293 110 C 322 110 345 117 363 133 C 381 149 390 170 390 197 L 390 495 L 535 495 L 535 0 L 401 0 L 401 79 C 387 53 365 31 337 15 C 308 -1 274 -10 234 -10 C 185 -10 143 4 109 32 C 75 60 58 101 58 153 L 58 495 Z M 496 548 L 362 548 L 298 633 L 233 548 L 101 548 L 224 722 L 373 722 L 496 548 Z" unicode="û" />
<glyph horiz-adv-x="600" d="M 58 495 L 203 495 L 203 188 C 203 162 211 142 228 129 C 244 116 266 110 293 110 C 322 110 345 117 363 133 C 381 149 390 170 390 197 L 390 495 L 535 495 L 535 0 L 401 0 L 401 79 C 387 53 365 31 337 15 C 308 -1 274 -10 234 -10 C 185 -10 143 4 109 32 C 75 60 58 101 58 153 L 58 495 Z M 460 548 L 338 548 L 338 710 L 460 710 L 460 548 Z M 258 548 L 136 548 L 136 710 L 258 710 L 258 548 Z" unicode="ü" />
<glyph horiz-adv-x="551" d="M 557 495 L 279 -76 C 255 -125 224 -158 188 -175 C 152 -191 117 -200 85 -200 C 65 -200 48 -198 34 -194 C 20 -190 11 -186 5 -184 L 44 -65 C 47 -66 53 -68 62 -71 C 71 -73 80 -75 89 -75 C 106 -75 120 -70 132 -61 C 143 -52 154 -37 166 -15 L 203 54 L -5 495 L 151 495 L 278 206 L 409 495 L 557 495 Z M 141 550 L 243 710 L 416 710 L 287 550 L 141 550 Z" unicode="ý" />
<glyph horiz-adv-x="615" d="M 64 -199 L 64 763 L 205 763 L 205 424 C 213 443 231 461 259 479 C 287 497 323 506 368 506 C 428 506 478 484 520 441 C 562 397 583 337 583 261 C 583 176 560 111 514 65 C 468 19 416 -4 358 -4 C 322 -4 291 2 264 16 C 237 30 218 47 208 67 L 208 -199 L 64 -199 Z M 321 108 C 353 108 379 120 401 145 C 422 169 433 205 433 251 C 433 292 423 326 404 352 C 385 378 357 392 321 392 C 297 392 277 387 259 377 C 241 367 228 351 218 330 C 208 308 204 281 204 247 C 204 195 215 158 237 138 C 259 118 287 108 321 108 Z" unicode="þ" />
<glyph horiz-adv-x="551" d="M 557 495 L 279 -76 C 255 -125 224 -158 188 -175 C 152 -191 117 -200 85 -200 C 65 -200 48 -198 34 -194 C 20 -190 11 -186 5 -184 L 44 -65 C 47 -66 53 -68 62 -71 C 71 -73 80 -75 89 -75 C 106 -75 120 -70 132 -61 C 143 -52 154 -37 166 -15 L 203 54 L -5 495 L 151 495 L 278 206 L 409 495 L 557 495 Z M 440 548 L 318 548 L 318 710 L 440 710 L 440 548 Z M 238 548 L 116 548 L 116 710 L 238 710 L 238 548 Z" unicode="ÿ" />
<glyph horiz-adv-x="680" d="M 428 249 L 333 495 L 241 249 L 428 249 Z M 684 0 L 517 0 L 464 134 L 204 134 L 153 0 L -3 0 L 296 732 L 393 732 L 684 0 Z M 485 792 L 195 792 L 195 901 L 485 901 L 485 792 Z" unicode="Ā" />
<glyph horiz-adv-x="558" d="M 363 151 L 363 228 L 281 225 C 247 224 220 218 201 207 C 181 195 172 179 172 157 C 172 139 178 125 191 115 C 204 105 221 101 243 101 C 269 101 293 106 314 116 C 335 126 351 137 363 151 Z M 500 0 L 364 0 L 364 56 C 347 36 325 20 299 8 C 273 -4 239 -10 199 -10 C 140 -10 96 4 67 33 C 37 62 23 99 23 143 C 23 198 45 240 90 270 C 135 299 199 316 283 320 L 360 324 L 360 331 C 360 351 353 367 340 379 C 327 391 305 397 275 397 C 244 397 214 392 185 382 C 156 372 130 360 108 347 L 56 438 C 80 456 111 472 151 486 C 191 500 238 508 292 508 C 356 508 406 493 444 465 C 481 437 500 391 500 329 L 500 0 Z M 419 557 L 129 557 L 129 666 L 419 666 L 419 557 Z" unicode="ā" />
<glyph horiz-adv-x="680" d="M 428 249 L 333 495 L 241 249 L 428 249 Z M 684 0 L 517 0 L 464 134 L 204 134 L 153 0 L -3 0 L 296 732 L 393 732 L 684 0 Z M 396 945 L 516 945 C 511 889 492 848 460 822 C 428 796 388 783 340 783 C 292 783 251 796 219 822 C 187 848 168 889 164 945 L 284 945 C 286 919 291 899 299 886 C 307 873 321 867 340 867 C 358 867 372 873 381 885 C 389 897 394 917 396 945 Z" unicode="Ă" />
<glyph horiz-adv-x="558" d="M 363 151 L 363 228 L 281 225 C 247 224 220 218 201 207 C 181 195 172 179 172 157 C 172 139 178 125 191 115 C 204 105 221 101 243 101 C 269 101 293 106 314 116 C 335 126 351 137 363 151 Z M 500 0 L 364 0 L 364 56 C 347 36 325 20 299 8 C 273 -4 239 -10 199 -10 C 140 -10 96 4 67 33 C 37 62 23 99 23 143 C 23 198 45 240 90 270 C 135 299 199 316 283 320 L 360 324 L 360 331 C 360 351 353 367 340 379 C 327 391 305 397 275 397 C 244 397 214 392 185 382 C 156 372 130 360 108 347 L 56 438 C 80 456 111 472 151 486 C 191 500 238 508 292 508 C 356 508 406 493 444 465 C 481 437 500 391 500 329 L 500 0 Z M 330 710 L 450 710 C 445 654 426 613 394 587 C 362 561 322 548 274 548 C 226 548 185 561 153 587 C 121 613 102 654 98 710 L 218 710 C 220 684 225 664 233 651 C 241 638 255 632 274 632 C 292 632 306 638 315 650 C 323 662 328 682 330 710 Z" unicode="ă" />
<glyph horiz-adv-x="680" d="M 428 249 L 333 495 L 241 249 L 428 249 Z M 684 0 L 517 0 L 464 134 L 204 134 L 153 0 L -3 0 L 296 732 L 393 732 L 684 0 Z M 631 -69 L 669 -129 C 625 -175 572 -199 510 -199 C 473 -199 445 -191 425 -176 C 405 -161 395 -142 395 -119 C 395 -94 406 -70 429 -48 C 452 -25 483 -6 523 10 L 583 7 C 562 -3 546 -14 534 -26 C 522 -38 517 -49 517 -61 C 517 -71 521 -79 529 -85 C 537 -91 547 -94 560 -94 C 574 -94 588 -91 600 -86 C 612 -81 622 -75 631 -69 Z" unicode="Ą" />
<glyph horiz-adv-x="558" d="M 363 151 L 363 228 L 281 225 C 247 224 220 218 201 207 C 181 195 172 179 172 157 C 172 139 178 125 191 115 C 204 105 221 101 243 101 C 269 101 293 106 314 116 C 335 126 351 137 363 151 Z M 500 0 L 364 0 L 364 56 C 347 36 325 20 299 8 C 273 -4 239 -10 199 -10 C 140 -10 96 4 67 33 C 37 62 23 99 23 143 C 23 198 45 240 90 270 C 135 299 199 316 283 320 L 360 324 L 360 331 C 360 351 353 367 340 379 C 327 391 305 397 275 397 C 244 397 214 392 185 382 C 156 372 130 360 108 347 L 56 438 C 80 456 111 472 151 486 C 191 500 238 508 292 508 C 356 508 406 493 444 465 C 481 437 500 391 500 329 L 500 0 Z M 482 -69 L 520 -129 C 476 -175 423 -199 361 -199 C 324 -199 296 -191 276 -176 C 256 -161 246 -142 246 -119 C 246 -94 257 -70 280 -48 C 303 -25 334 -6 374 10 L 434 7 C 413 -3 397 -14 385 -26 C 373 -38 368 -49 368 -61 C 368 -71 372 -79 380 -85 C 388 -91 398 -94 411 -94 C 425 -94 439 -91 451 -86 C 463 -81 473 -75 482 -69 Z" unicode="ą" />
<glyph horiz-adv-x="717" d="M 403 -12 C 335 -12 273 3 219 33 C 165 63 122 107 90 163 C 58 219 42 287 42 365 C 42 438 57 503 89 560 C 121 616 164 661 219 693 C 273 725 335 742 404 742 C 470 742 527 732 574 713 C 621 694 661 665 694 627 L 593 524 C 574 546 549 564 519 580 C 489 595 452 603 409 603 C 363 603 324 592 294 572 C 263 551 240 523 224 488 C 208 452 201 412 201 367 C 201 310 211 264 231 228 C 251 192 278 165 311 148 C 343 131 379 123 417 123 C 461 123 499 131 530 149 C 560 167 586 190 608 219 L 707 132 C 677 90 636 56 585 29 C 534 1 473 -12 403 -12 Z M 269 785 L 371 945 L 544 945 L 415 785 L 269 785 Z" unicode="Ć" />
<glyph horiz-adv-x="542" d="M 413 182 L 528 114 C 508 80 480 50 443 26 C 405 1 355 -11 293 -11 C 217 -11 154 12 105 58 C 56 104 32 167 32 247 C 32 299 43 345 67 384 C 90 423 122 453 162 475 C 202 496 248 507 299 507 C 362 507 412 493 450 465 C 488 437 513 406 527 370 L 402 315 C 392 335 380 352 364 365 C 348 378 326 385 299 385 C 263 385 235 372 215 347 C 195 322 185 289 185 247 C 185 202 195 168 216 145 C 236 122 265 111 302 111 C 332 111 356 118 373 133 C 390 147 403 164 413 182 Z M 157 550 L 259 710 L 432 710 L 303 550 L 157 550 Z" unicode="ć" />
<glyph horiz-adv-x="717" d="M 403 -12 C 335 -12 273 3 219 33 C 165 63 122 107 90 163 C 58 219 42 287 42 365 C 42 438 57 503 89 560 C 121 616 164 661 219 693 C 273 725 335 742 404 742 C 470 742 527 732 574 713 C 621 694 661 665 694 627 L 593 524 C 574 546 549 564 519 580 C 489 595 452 603 409 603 C 363 603 324 592 294 572 C 263 551 240 523 224 488 C 208 452 201 412 201 367 C 201 310 211 264 231 228 C 251 192 278 165 311 148 C 343 131 379 123 417 123 C 461 123 499 131 530 149 C 560 167 586 190 608 219 L 707 132 C 677 90 636 56 585 29 C 534 1 473 -12 403 -12 Z M 604 783 L 470 783 L 406 868 L 341 783 L 209 783 L 332 957 L 481 957 L 604 783 Z" unicode="Ĉ" />
<glyph horiz-adv-x="542" d="M 413 182 L 528 114 C 508 80 480 50 443 26 C 405 1 355 -11 293 -11 C 217 -11 154 12 105 58 C 56 104 32 167 32 247 C 32 299 43 345 67 384 C 90 423 122 453 162 475 C 202 496 248 507 299 507 C 362 507 412 493 450 465 C 488 437 513 406 527 370 L 402 315 C 392 335 380 352 364 365 C 348 378 326 385 299 385 C 263 385 235 372 215 347 C 195 322 185 289 185 247 C 185 202 195 168 216 145 C 236 122 265 111 302 111 C 332 111 356 118 373 133 C 390 147 403 164 413 182 Z M 492 548 L 358 548 L 294 633 L 229 548 L 97 548 L 220 722 L 369 722 L 492 548 Z" unicode="ĉ" />
<glyph horiz-adv-x="717" d="M 403 -12 C 335 -12 273 3 219 33 C 165 63 122 107 90 163 C 58 219 42 287 42 365 C 42 438 57 503 89 560 C 121 616 164 661 219 693 C 273 725 335 742 404 742 C 470 742 527 732 574 713 C 621 694 661 665 694 627 L 593 524 C 574 546 549 564 519 580 C 489 595 452 603 409 603 C 363 603 324 592 294 572 C 263 551 240 523 224 488 C 208 452 201 412 201 367 C 201 310 211 264 231 228 C 251 192 278 165 311 148 C 343 131 379 123 417 123 C 461 123 499 131 530 149 C 560 167 586 190 608 219 L 707 132 C 677 90 636 56 585 29 C 534 1 473 -12 403 -12 Z M 472 783 L 341 783 L 341 948 L 472 948 L 472 783 Z" unicode="Ċ" />
<glyph horiz-adv-x="542" d="M 413 182 L 528 114 C 508 80 480 50 443 26 C 405 1 355 -11 293 -11 C 217 -11 154 12 105 58 C 56 104 32 167 32 247 C 32 299 43 345 67 384 C 90 423 122 453 162 475 C 202 496 248 507 299 507 C 362 507 412 493 450 465 C 488 437 513 406 527 370 L 402 315 C 392 335 380 352 364 365 C 348 378 326 385 299 385 C 263 385 235 372 215 347 C 195 322 185 289 185 247 C 185 202 195 168 216 145 C 236 122 265 111 302 111 C 332 111 356 118 373 133 C 390 147 403 164 413 182 Z M 360 548 L 229 548 L 229 713 L 360 713 L 360 548 Z" unicode="ċ" />
<glyph horiz-adv-x="717" d="M 403 -12 C 335 -12 273 3 219 33 C 165 63 122 107 90 163 C 58 219 42 287 42 365 C 42 438 57 503 89 560 C 121 616 164 661 219 693 C 273 725 335 742 404 742 C 470 742 527 732 574 713 C 621 694 661 665 694 627 L 593 524 C 574 546 549 564 519 580 C 489 595 452 603 409 603 C 363 603 324 592 294 572 C 263 551 240 523 224 488 C 208 452 201 412 201 367 C 201 310 211 264 231 228 C 251 192 278 165 311 148 C 343 131 379 123 417 123 C 461 123 499 131 530 149 C 560 167 586 190 608 219 L 707 132 C 677 90 636 56 585 29 C 534 1 473 -12 403 -12 Z M 209 957 L 343 957 L 407 872 L 472 957 L 604 957 L 481 783 L 332 783 L 209 957 Z" unicode="Č" />
<glyph horiz-adv-x="542" d="M 413 182 L 528 114 C 508 80 480 50 443 26 C 405 1 355 -11 293 -11 C 217 -11 154 12 105 58 C 56 104 32 167 32 247 C 32 299 43 345 67 384 C 90 423 122 453 162 475 C 202 496 248 507 299 507 C 362 507 412 493 450 465 C 488 437 513 406 527 370 L 402 315 C 392 335 380 352 364 365 C 348 378 326 385 299 385 C 263 385 235 372 215 347 C 195 322 185 289 185 247 C 185 202 195 168 216 145 C 236 122 265 111 302 111 C 332 111 356 118 373 133 C 390 147 403 164 413 182 Z M 97 722 L 231 722 L 295 637 L 360 722 L 492 722 L 369 548 L 220 548 L 97 722 Z" unicode="č" />
<glyph horiz-adv-x="763" d="M 86 0 L 86 730 L 344 730 C 466 730 560 697 624 631 C 688 565 721 479 721 373 C 721 268 687 180 620 108 C 553 36 455 0 325 0 L 86 0 Z M 243 125 L 324 125 C 406 125 465 149 502 199 C 539 248 558 305 558 371 C 558 440 539 496 502 539 C 464 582 410 604 338 604 L 243 604 L 243 125 Z M 168 957 L 302 957 L 366 872 L 431 957 L 563 957 L 440 783 L 291 783 L 168 957 Z" unicode="Ď" />
<glyph horiz-adv-x="628" d="M 297 105 C 333 105 360 117 380 143 C 400 169 410 204 410 250 C 410 284 405 311 395 331 C 385 351 372 365 355 375 C 337 384 318 389 297 389 C 260 389 232 376 212 352 C 192 327 183 293 183 249 C 183 220 187 195 196 174 C 204 152 217 135 234 123 C 251 111 272 105 297 105 Z M 263 -8 C 197 -8 143 14 99 60 C 55 105 33 166 33 244 C 33 294 44 339 66 379 C 88 419 117 450 153 473 C 189 495 229 507 272 507 C 301 507 328 500 354 487 C 380 474 398 460 410 444 L 410 763 L 549 763 L 549 0 L 416 0 L 416 73 C 411 61 401 49 387 37 C 372 24 354 13 333 5 C 311 -3 288 -8 263 -8 Z M 725 605 L 720 441 L 596 441 L 590 605 L 590 730 L 725 730 L 725 605 Z" unicode="ď" />
<glyph horiz-adv-x="754" d="M 86 0 L 86 730 L 344 730 C 468 730 561 696 625 630 C 689 564 721 476 721 367 C 721 265 687 179 620 107 C 553 35 455 0 325 0 L 86 0 Z M 237 123 L 324 123 C 380 123 426 134 461 158 C 495 182 520 212 536 249 C 552 285 560 324 560 365 C 560 438 541 496 504 540 C 467 583 413 605 342 605 L 237 605 L 237 123 Z M 35 299 L 35 414 L 372 414 L 372 299 L 35 299 Z" unicode="Đ" />
<glyph horiz-adv-x="613" d="M 605 574 L 274 574 L 274 674 L 605 674 L 605 574 Z M 297 105 C 333 105 360 117 380 143 C 400 169 410 204 410 250 C 410 284 405 311 395 331 C 385 351 372 365 355 375 C 337 384 318 389 297 389 C 260 389 232 376 212 352 C 192 327 183 293 183 249 C 183 220 187 195 196 174 C 204 152 217 135 234 123 C 251 111 272 105 297 105 Z M 263 -8 C 197 -8 143 14 99 60 C 55 105 33 166 33 244 C 33 294 44 339 66 379 C 88 419 117 450 153 473 C 189 495 229 507 272 507 C 301 507 328 500 354 487 C 380 474 398 460 410 444 L 410 763 L 549 763 L 549 0 L 416 0 L 416 73 C 411 61 401 49 387 37 C 372 24 354 13 333 5 C 311 -3 288 -8 263 -8 Z" unicode="đ" />
<glyph horiz-adv-x="609" d="M 563 0 L 86 0 L 86 730 L 544 730 L 544 599 L 240 599 L 240 424 L 523 424 L 523 297 L 240 297 L 240 131 L 563 131 L 563 0 Z M 466 792 L 176 792 L 176 901 L 466 901 L 466 792 Z" unicode="Ē" />
<glyph horiz-adv-x="572" d="M 300 -11 C 222 -11 158 11 108 55 C 58 99 33 162 33 243 C 33 293 44 338 66 378 C 88 418 119 449 159 472 C 199 495 245 507 297 507 C 375 507 437 480 482 426 C 527 372 550 299 550 206 L 174 206 C 176 180 187 156 208 135 C 229 114 261 104 303 104 C 339 104 367 109 388 120 C 409 131 426 143 438 157 L 519 74 C 496 49 468 29 436 13 C 404 -3 358 -11 300 -11 Z M 177 301 L 404 301 C 402 326 392 348 372 366 C 352 384 326 394 293 394 C 259 394 232 384 212 366 C 191 347 179 325 177 301 Z M 440 557 L 150 557 L 150 666 L 440 666 L 440 557 Z" unicode="ē" />
<glyph horiz-adv-x="609" d="M 563 0 L 86 0 L 86 730 L 544 730 L 544 599 L 240 599 L 240 424 L 523 424 L 523 297 L 240 297 L 240 131 L 563 131 L 563 0 Z M 377 945 L 497 945 C 492 889 473 848 441 822 C 409 796 369 783 321 783 C 273 783 232 796 200 822 C 168 848 149 889 145 945 L 265 945 C 267 919 272 899 280 886 C 288 873 302 867 321 867 C 339 867 353 873 362 885 C 370 897 375 917 377 945 Z" unicode="Ĕ" />
<glyph horiz-adv-x="572" d="M 300 -11 C 222 -11 158 11 108 55 C 58 99 33 162 33 243 C 33 293 44 338 66 378 C 88 418 119 449 159 472 C 199 495 245 507 297 507 C 375 507 437 480 482 426 C 527 372 550 299 550 206 L 174 206 C 176 180 187 156 208 135 C 229 114 261 104 303 104 C 339 104 367 109 388 120 C 409 131 426 143 438 157 L 519 74 C 496 49 468 29 436 13 C 404 -3 358 -11 300 -11 Z M 177 301 L 404 301 C 402 326 392 348 372 366 C 352 384 326 394 293 394 C 259 394 232 384 212 366 C 191 347 179 325 177 301 Z M 351 710 L 471 710 C 466 654 447 613 415 587 C 383 561 343 548 295 548 C 247 548 206 561 174 587 C 142 613 123 654 119 710 L 239 710 C 241 684 246 664 254 651 C 262 638 276 632 295 632 C 313 632 327 638 336 650 C 344 662 349 682 351 710 Z" unicode="ĕ" />
<glyph horiz-adv-x="609" d="M 563 0 L 86 0 L 86 730 L 544 730 L 544 599 L 240 599 L 240 424 L 523 424 L 523 297 L 240 297 L 240 131 L 563 131 L 563 0 Z M 387 783 L 256 783 L 256 948 L 387 948 L 387 783 Z" unicode="Ė" />
<glyph horiz-adv-x="572" d="M 300 -11 C 222 -11 158 11 108 55 C 58 99 33 162 33 243 C 33 293 44 338 66 378 C 88 418 119 449 159 472 C 199 495 245 507 297 507 C 375 507 437 480 482 426 C 527 372 550 299 550 206 L 174 206 C 176 180 187 156 208 135 C 229 114 261 104 303 104 C 339 104 367 109 388 120 C 409 131 426 143 438 157 L 519 74 C 496 49 468 29 436 13 C 404 -3 358 -11 300 -11 Z M 177 301 L 404 301 C 402 326 392 348 372 366 C 352 384 326 394 293 394 C 259 394 232 384 212 366 C 191 347 179 325 177 301 Z M 361 548 L 230 548 L 230 713 L 361 713 L 361 548 Z" unicode="ė" />
<glyph horiz-adv-x="609" d="M 563 0 L 86 0 L 86 730 L 544 730 L 544 599 L 240 599 L 240 424 L 523 424 L 523 297 L 240 297 L 240 131 L 563 131 L 563 0 Z M 611 -69 L 649 -129 C 605 -175 552 -199 490 -199 C 453 -199 425 -191 405 -176 C 385 -161 375 -142 375 -119 C 375 -94 386 -70 409 -48 C 432 -25 463 -6 503 10 L 563 7 C 542 -3 526 -14 514 -26 C 502 -38 497 -49 497 -61 C 497 -71 501 -79 509 -85 C 517 -91 527 -94 540 -94 C 554 -94 568 -91 580 -86 C 592 -81 602 -75 611 -69 Z" unicode="Ę" />
<glyph horiz-adv-x="572" d="M 300 -11 C 222 -11 158 11 108 55 C 58 99 33 162 33 243 C 33 293 44 338 66 378 C 88 418 119 449 159 472 C 199 495 245 507 297 507 C 375 507 437 480 482 426 C 527 372 550 299 550 206 L 174 206 C 176 180 187 156 208 135 C 229 114 261 104 303 104 C 339 104 367 109 388 120 C 409 131 426 143 438 157 L 519 74 C 496 49 468 29 436 13 C 404 -3 358 -11 300 -11 Z M 177 301 L 404 301 C 402 326 392 348 372 366 C 352 384 326 394 293 394 C 259 394 232 384 212 366 C 191 347 179 325 177 301 Z M 467 -69 L 505 -129 C 461 -175 408 -199 346 -199 C 309 -199 281 -191 261 -176 C 241 -161 231 -142 231 -119 C 231 -94 242 -70 265 -48 C 288 -25 319 -6 359 10 L 419 7 C 398 -3 382 -14 370 -26 C 358 -38 353 -49 353 -61 C 353 -71 357 -79 365 -85 C 373 -91 383 -94 396 -94 C 410 -94 424 -91 436 -86 C 448 -81 458 -75 467 -69 Z" unicode="ę" />
<glyph horiz-adv-x="609" d="M 563 0 L 86 0 L 86 730 L 544 730 L 544 599 L 240 599 L 240 424 L 523 424 L 523 297 L 240 297 L 240 131 L 563 131 L 563 0 Z M 124 957 L 258 957 L 322 872 L 387 957 L 519 957 L 396 783 L 247 783 L 124 957 Z" unicode="Ě" />
<glyph horiz-adv-x="572" d="M 300 -11 C 222 -11 158 11 108 55 C 58 99 33 162 33 243 C 33 293 44 338 66 378 C 88 418 119 449 159 472 C 199 495 245 507 297 507 C 375 507 437 480 482 426 C 527 372 550 299 550 206 L 174 206 C 176 180 187 156 208 135 C 229 114 261 104 303 104 C 339 104 367 109 388 120 C 409 131 426 143 438 157 L 519 74 C 496 49 468 29 436 13 C 404 -3 358 -11 300 -11 Z M 177 301 L 404 301 C 402 326 392 348 372 366 C 352 384 326 394 293 394 C 259 394 232 384 212 366 C 191 347 179 325 177 301 Z M 98 722 L 232 722 L 296 637 L 361 722 L 493 722 L 370 548 L 221 548 L 98 722 Z" unicode="ě" />
<glyph horiz-adv-x="776" d="M 420 389 L 734 389 L 734 149 C 705 102 663 63 609 33 C 555 3 490 -12 414 -12 C 341 -12 277 3 221 34 C 165 65 121 109 89 166 C 57 222 42 289 42 365 C 42 443 59 510 93 566 C 127 622 172 666 228 696 C 284 726 346 742 414 742 C 464 742 507 736 542 724 C 577 712 606 698 628 682 C 650 665 668 649 682 635 L 585 533 C 569 549 548 564 522 580 C 495 595 458 603 411 603 C 369 603 332 593 300 574 C 268 555 244 528 226 493 C 208 457 200 415 200 367 C 200 317 209 274 227 236 C 245 198 270 168 304 147 C 337 125 377 115 423 115 C 464 115 500 122 531 138 C 562 153 584 173 598 198 L 598 261 L 420 261 L 420 389 Z M 609 783 L 475 783 L 411 868 L 346 783 L 214 783 L 337 957 L 486 957 L 609 783 Z" unicode="Ĝ" />
<glyph horiz-adv-x="611" d="M 299 118 C 319 118 338 123 355 134 C 372 144 385 160 395 180 C 405 200 410 225 410 255 C 410 280 405 303 397 323 C 388 343 375 358 359 370 C 343 381 322 387 297 387 C 262 387 234 375 214 351 C 193 327 183 293 183 248 C 183 204 193 171 213 150 C 233 128 262 118 299 118 Z M 259 8 C 193 8 139 30 97 75 C 54 120 33 179 33 252 C 33 329 53 391 95 437 C 137 483 192 506 262 506 C 296 506 327 499 355 485 C 383 471 403 455 414 436 L 414 495 L 549 495 L 549 55 C 549 -1 536 -47 510 -84 C 484 -120 451 -148 410 -166 C 368 -184 324 -193 276 -193 C 213 -193 163 -186 127 -172 C 91 -158 64 -145 47 -133 L 106 -30 C 120 -42 140 -53 168 -64 C 195 -75 226 -81 262 -81 C 290 -81 314 -76 336 -68 C 358 -59 375 -46 388 -29 C 400 -12 407 9 407 35 L 407 90 C 398 72 380 53 354 35 C 328 17 296 8 259 8 Z M 487 548 L 353 548 L 289 633 L 224 548 L 92 548 L 215 722 L 364 722 L 487 548 Z" unicode="ĝ" />
<glyph horiz-adv-x="776" d="M 420 389 L 734 389 L 734 149 C 705 102 663 63 609 33 C 555 3 490 -12 414 -12 C 341 -12 277 3 221 34 C 165 65 121 109 89 166 C 57 222 42 289 42 365 C 42 443 59 510 93 566 C 127 622 172 666 228 696 C 284 726 346 742 414 742 C 464 742 507 736 542 724 C 577 712 606 698 628 682 C 650 665 668 649 682 635 L 585 533 C 569 549 548 564 522 580 C 495 595 458 603 411 603 C 369 603 332 593 300 574 C 268 555 244 528 226 493 C 208 457 200 415 200 367 C 200 317 209 274 227 236 C 245 198 270 168 304 147 C 337 125 377 115 423 115 C 464 115 500 122 531 138 C 562 153 584 173 598 198 L 598 261 L 420 261 L 420 389 Z M 467 945 L 587 945 C 582 889 563 848 531 822 C 499 796 459 783 411 783 C 363 783 322 796 290 822 C 258 848 239 889 235 945 L 355 945 C 357 919 362 899 370 886 C 378 873 392 867 411 867 C 429 867 443 873 452 885 C 460 897 465 917 467 945 Z" unicode="Ğ" />
<glyph horiz-adv-x="611" d="M 299 118 C 319 118 338 123 355 134 C 372 144 385 160 395 180 C 405 200 410 225 410 255 C 410 280 405 303 397 323 C 388 343 375 358 359 370 C 343 381 322 387 297 387 C 262 387 234 375 214 351 C 193 327 183 293 183 248 C 183 204 193 171 213 150 C 233 128 262 118 299 118 Z M 259 8 C 193 8 139 30 97 75 C 54 120 33 179 33 252 C 33 329 53 391 95 437 C 137 483 192 506 262 506 C 296 506 327 499 355 485 C 383 471 403 455 414 436 L 414 495 L 549 495 L 549 55 C 549 -1 536 -47 510 -84 C 484 -120 451 -148 410 -166 C 368 -184 324 -193 276 -193 C 213 -193 163 -186 127 -172 C 91 -158 64 -145 47 -133 L 106 -30 C 120 -42 140 -53 168 -64 C 195 -75 226 -81 262 -81 C 290 -81 314 -76 336 -68 C 358 -59 375 -46 388 -29 C 400 -12 407 9 407 35 L 407 90 C 398 72 380 53 354 35 C 328 17 296 8 259 8 Z M 345 710 L 465 710 C 460 654 441 613 409 587 C 377 561 337 548 289 548 C 241 548 200 561 168 587 C 136 613 117 654 113 710 L 233 710 C 235 684 240 664 248 651 C 256 638 270 632 289 632 C 307 632 321 638 330 650 C 338 662 343 682 345 710 Z" unicode="ğ" />
<glyph horiz-adv-x="776" d="M 420 389 L 734 389 L 734 149 C 705 102 663 63 609 33 C 555 3 490 -12 414 -12 C 341 -12 277 3 221 34 C 165 65 121 109 89 166 C 57 222 42 289 42 365 C 42 443 59 510 93 566 C 127 622 172 666 228 696 C 284 726 346 742 414 742 C 464 742 507 736 542 724 C 577 712 606 698 628 682 C 650 665 668 649 682 635 L 585 533 C 569 549 548 564 522 580 C 495 595 458 603 411 603 C 369 603 332 593 300 574 C 268 555 244 528 226 493 C 208 457 200 415 200 367 C 200 317 209 274 227 236 C 245 198 270 168 304 147 C 337 125 377 115 423 115 C 464 115 500 122 531 138 C 562 153 584 173 598 198 L 598 261 L 420 261 L 420 389 Z M 477 783 L 346 783 L 346 948 L 477 948 L 477 783 Z" unicode="Ġ" />
<glyph horiz-adv-x="611" d="M 299 118 C 319 118 338 123 355 134 C 372 144 385 160 395 180 C 405 200 410 225 410 255 C 410 280 405 303 397 323 C 388 343 375 358 359 370 C 343 381 322 387 297 387 C 262 387 234 375 214 351 C 193 327 183 293 183 248 C 183 204 193 171 213 150 C 233 128 262 118 299 118 Z M 259 8 C 193 8 139 30 97 75 C 54 120 33 179 33 252 C 33 329 53 391 95 437 C 137 483 192 506 262 506 C 296 506 327 499 355 485 C 383 471 403 455 414 436 L 414 495 L 549 495 L 549 55 C 549 -1 536 -47 510 -84 C 484 -120 451 -148 410 -166 C 368 -184 324 -193 276 -193 C 213 -193 163 -186 127 -172 C 91 -158 64 -145 47 -133 L 106 -30 C 120 -42 140 -53 168 -64 C 195 -75 226 -81 262 -81 C 290 -81 314 -76 336 -68 C 358 -59 375 -46 388 -29 C 400 -12 407 9 407 35 L 407 90 C 398 72 380 53 354 35 C 328 17 296 8 259 8 Z M 355 548 L 224 548 L 224 713 L 355 713 L 355 548 Z" unicode="ġ" />
<glyph horiz-adv-x="776" d="M 420 389 L 734 389 L 734 149 C 705 102 663 63 609 33 C 555 3 490 -12 414 -12 C 341 -12 277 3 221 34 C 165 65 121 109 89 166 C 57 222 42 289 42 365 C 42 443 59 510 93 566 C 127 622 172 666 228 696 C 284 726 346 742 414 742 C 464 742 507 736 542 724 C 577 712 606 698 628 682 C 650 665 668 649 682 635 L 585 533 C 569 549 548 564 522 580 C 495 595 458 603 411 603 C 369 603 332 593 300 574 C 268 555 244 528 226 493 C 208 457 200 415 200 367 C 200 317 209 274 227 236 C 245 198 270 168 304 147 C 337 125 377 115 423 115 C 464 115 500 122 531 138 C 562 153 584 173 598 198 L 598 261 L 420 261 L 420 389 Z M 508 -62 C 506 -101 498 -141 484 -182 C 470 -222 455 -258 437 -289 C 419 -319 402 -340 387 -350 L 278 -301 C 288 -289 298 -271 310 -245 C 322 -219 332 -190 341 -158 C 350 -125 356 -93 359 -62 L 508 -62 Z" unicode="Ģ" />
<glyph horiz-adv-x="611" d="M 299 118 C 319 118 338 123 355 134 C 372 144 385 160 395 180 C 405 200 410 225 410 255 C 410 280 405 303 397 323 C 388 343 375 358 359 370 C 343 381 322 387 297 387 C 262 387 234 375 214 351 C 193 327 183 293 183 248 C 183 204 193 171 213 150 C 233 128 262 118 299 118 Z M 259 8 C 193 8 139 30 97 75 C 54 120 33 179 33 252 C 33 329 53 391 95 437 C 137 483 192 506 262 506 C 296 506 327 499 355 485 C 383 471 403 455 414 436 L 414 495 L 549 495 L 549 55 C 549 -1 536 -47 510 -84 C 484 -120 451 -148 410 -166 C 368 -184 324 -193 276 -193 C 213 -193 163 -186 127 -172 C 91 -158 64 -145 47 -133 L 106 -30 C 120 -42 140 -53 168 -64 C 195 -75 226 -81 262 -81 C 290 -81 314 -76 336 -68 C 358 -59 375 -46 388 -29 C 400 -12 407 9 407 35 L 407 90 C 398 72 380 53 354 35 C 328 17 296 8 259 8 Z M 214 543 C 216 582 223 622 237 663 C 251 703 267 739 285 770 C 303 800 319 821 335 831 L 444 782 C 434 770 423 752 411 726 C 399 700 389 671 380 639 C 371 606 365 574 363 543 L 214 543 Z" unicode="ģ" />
<glyph horiz-adv-x="780" d="M 694 0 L 537 0 L 537 291 L 243 291 L 243 0 L 86 0 L 86 730 L 243 730 L 243 427 L 537 427 L 537 730 L 694 730 L 694 0 Z M 587 783 L 453 783 L 389 868 L 324 783 L 192 783 L 315 957 L 464 957 L 587 783 Z" unicode="Ĥ" />
<glyph horiz-adv-x="599" d="M 542 0 L 396 0 L 396 315 C 396 336 388 353 373 366 C 357 379 337 386 312 386 C 294 386 278 382 262 375 C 246 368 234 358 224 346 C 214 333 209 317 209 299 L 209 0 L 64 0 L 64 763 L 198 763 L 198 419 C 208 443 227 463 256 481 C 284 498 321 507 367 507 C 416 507 457 492 491 464 C 525 436 542 398 542 350 L 542 0 Z M 523 816 L 389 816 L 325 901 L 260 816 L 128 816 L 251 990 L 400 990 L 523 816 Z" unicode="ĥ" />
<glyph horiz-adv-x="780" d="M 771 535 L 10 535 L 10 635 L 771 635 L 771 535 Z M 694 0 L 537 0 L 537 291 L 243 291 L 243 0 L 86 0 L 86 730 L 243 730 L 243 427 L 537 427 L 537 730 L 694 730 L 694 0 Z" unicode="Ħ" />
<glyph horiz-adv-x="599" d="M 342 574 L 8 574 L 8 674 L 342 674 L 342 574 Z M 542 0 L 396 0 L 396 315 C 396 336 388 353 373 366 C 357 379 337 386 312 386 C 294 386 278 382 262 375 C 246 368 234 358 224 346 C 214 333 209 317 209 299 L 209 0 L 64 0 L 64 763 L 198 763 L 198 419 C 208 443 227 463 256 481 C 284 498 321 507 367 507 C 416 507 457 492 491 464 C 525 436 542 398 542 350 L 542 0 Z" unicode="ħ" />
<glyph horiz-adv-x="338" d="M 248 0 L 91 0 L 91 730 L 248 730 L 248 0 Z M 242 941 L 356 941 C 356 887 347 848 330 823 C 312 797 290 785 262 785 C 243 785 226 787 212 793 C 198 799 186 805 176 812 C 166 817 157 822 149 828 C 141 833 132 836 124 836 C 116 836 109 831 105 823 C 100 815 97 803 97 789 L -15 789 C -15 841 -3 879 19 905 C 41 931 65 944 89 944 C 107 944 123 941 135 935 C 147 929 159 923 169 917 C 177 911 185 905 192 901 C 199 896 206 894 213 894 C 219 894 226 898 232 906 C 238 914 241 925 242 941 Z" unicode="Ĩ" />
<glyph horiz-adv-x="283" d="M 215 0 L 69 0 L 69 495 L 215 495 L 215 0 Z M 214 706 L 328 706 C 328 652 319 613 302 588 C 284 562 262 550 234 550 C 215 550 198 552 184 558 C 170 564 158 570 148 577 C 138 582 129 587 121 593 C 113 598 104 601 96 601 C 88 601 81 596 77 588 C 72 580 69 568 69 554 L -43 554 C -43 606 -31 644 -9 670 C 13 696 37 709 61 709 C 79 709 95 706 107 700 C 119 694 131 688 141 682 C 149 676 157 670 164 666 C 171 661 178 659 185 659 C 191 659 198 663 204 671 C 210 679 213 690 214 706 Z" unicode="ĩ" />
<glyph horiz-adv-x="338" d="M 248 0 L 91 0 L 91 730 L 248 730 L 248 0 Z M 314 792 L 24 792 L 24 901 L 314 901 L 314 792 Z" unicode="Ī" />
<glyph horiz-adv-x="283" d="M 215 0 L 69 0 L 69 495 L 215 495 L 215 0 Z M 286 557 L -4 557 L -4 666 L 286 666 L 286 557 Z" unicode="ī" />
<glyph horiz-adv-x="338" d="M 248 0 L 91 0 L 91 730 L 248 730 L 248 0 Z M 225 945 L 345 945 C 340 889 321 848 289 822 C 257 796 217 783 169 783 C 121 783 80 796 48 822 C 16 848 -2 889 -7 945 L 113 945 C 115 919 120 899 128 886 C 136 873 150 867 169 867 C 187 867 201 873 210 885 C 218 897 223 917 225 945 Z" unicode="Ĭ" />
<glyph horiz-adv-x="283" d="M 215 0 L 69 0 L 69 495 L 215 495 L 215 0 Z M 197 710 L 317 710 C 312 654 293 613 261 587 C 229 561 189 548 141 548 C 93 548 52 561 20 587 C -11 613 -30 654 -35 710 L 85 710 C 87 684 92 664 100 651 C 108 638 122 632 141 632 C 159 632 173 638 182 650 C 190 662 195 682 197 710 Z" unicode="ĭ" />
<glyph horiz-adv-x="338" d="M 248 0 L 91 0 L 91 730 L 248 730 L 248 0 Z M 211 -71 L 249 -131 C 205 -177 152 -201 90 -201 C 53 -201 25 -193 5 -178 C -15 -163 -25 -144 -25 -121 C -25 -96 -13 -72 9 -50 C 32 -27 63 -8 103 8 L 163 5 C 142 -5 126 -16 114 -28 C 102 -40 97 -51 97 -63 C 97 -73 101 -81 109 -87 C 117 -93 127 -96 140 -96 C 154 -96 168 -93 180 -88 C 192 -83 202 -77 211 -71 Z" unicode="Į" />
<glyph horiz-adv-x="283" d="M 67 572 L 67 711 L 217 711 L 217 572 L 67 572 Z M 69 0 L 69 495 L 215 495 L 215 0 L 69 0 Z M 193 -69 L 231 -129 C 187 -175 134 -199 72 -199 C 35 -199 7 -191 -13 -176 C -33 -161 -43 -142 -43 -119 C -43 -94 -31 -70 -8 -48 C 14 -25 45 -6 85 10 L 145 7 C 124 -3 108 -14 96 -26 C 84 -38 79 -49 79 -61 C 79 -71 83 -79 91 -85 C 99 -91 109 -94 122 -94 C 136 -94 150 -91 162 -86 C 174 -81 184 -75 193 -69 Z" unicode="į" />
<glyph horiz-adv-x="338" d="M 248 0 L 91 0 L 91 730 L 248 730 L 248 0 Z M 235 783 L 104 783 L 104 948 L 235 948 L 235 783 Z" unicode="İ" />
<glyph horiz-adv-x="283" d="M 215 0 L 69 0 L 69 495 L 215 495 L 215 0 Z" unicode="ı" />
<glyph horiz-adv-x="692" d="M 248 0 L 91 0 L 91 730 L 248 730 L 248 0 Z M 612 730 L 612 204 C 612 143 593 92 555 50 C 517 8 462 -12 391 -12 C 369 -12 347 -10 325 -8 C 303 -5 286 0 275 7 L 302 134 C 308 130 319 128 335 126 C 351 124 364 124 374 124 C 402 124 424 131 439 147 C 454 163 462 181 462 203 L 462 730 L 612 730 Z" unicode="Ĳ" />
<glyph horiz-adv-x="535" d="M 67 572 L 67 711 L 217 711 L 217 572 L 67 572 Z M 69 0 L 69 495 L 215 495 L 215 0 L 69 0 Z M 481 572 L 332 572 L 332 711 L 481 711 L 481 572 Z M 479 495 L 479 -26 C 479 -60 472 -90 458 -117 C 444 -143 424 -164 398 -179 C 372 -194 340 -202 303 -202 C 285 -202 265 -200 241 -197 C 217 -193 198 -189 182 -183 L 197 -72 C 204 -76 214 -79 227 -81 C 240 -83 254 -85 268 -85 C 289 -85 305 -77 316 -62 C 327 -46 333 -27 333 -4 L 333 495 L 479 495 Z" unicode="ĳ" />
<glyph horiz-adv-x="422" d="M 346 730 L 346 204 C 346 143 327 92 289 50 C 251 8 196 -12 125 -12 C 103 -12 81 -10 59 -8 C 37 -5 20 0 9 7 L 36 134 C 42 130 53 128 69 126 C 85 124 98 124 108 124 C 136 124 158 131 173 147 C 188 163 196 181 196 203 L 196 730 L 346 730 Z M 462 783 L 328 783 L 264 868 L 199 783 L 67 783 L 190 957 L 339 957 L 462 783 Z" unicode="Ĵ" />
<glyph horiz-adv-x="288" d="M 228 495 L 228 -26 C 228 -60 221 -90 207 -117 C 193 -143 173 -164 147 -179 C 121 -194 89 -202 52 -202 C 34 -202 14 -200 -9 -197 C -33 -193 -53 -189 -69 -183 L -54 -72 C -46 -76 -36 -79 -23 -81 C -10 -83 3 -85 17 -85 C 38 -85 54 -77 65 -62 C 76 -46 82 -27 82 -4 L 82 495 L 228 495 Z M 351 548 L 217 548 L 153 633 L 88 548 L -44 548 L 79 722 L 228 722 L 351 548 Z" unicode="ĵ" />
<glyph horiz-adv-x="715" d="M 723 0 L 523 0 L 299 287 L 242 219 L 242 0 L 86 0 L 86 730 L 242 730 L 242 402 L 509 730 L 688 730 L 407 396 L 723 0 Z M 480 -62 C 478 -101 470 -141 456 -182 C 442 -222 427 -258 409 -289 C 391 -319 374 -340 359 -350 L 250 -301 C 260 -289 270 -271 282 -245 C 294 -219 304 -190 313 -158 C 322 -125 328 -93 331 -62 L 480 -62 Z" unicode="Ķ" />
<glyph horiz-adv-x="573" d="M 602 1 L 431 0 L 271 198 L 206 131 L 206 0 L 64 0 L 64 763 L 205 763 L 205 273 L 404 495 L 562 495 L 367 286 L 602 1 Z M 407 -62 C 405 -101 397 -141 383 -182 C 369 -222 354 -258 336 -289 C 318 -319 301 -340 286 -350 L 177 -301 C 187 -289 197 -271 209 -245 C 221 -219 231 -190 240 -158 C 249 -125 255 -93 258 -62 L 407 -62 Z" unicode="ķ" />
<glyph horiz-adv-x="573" d="M 602 1 L 431 0 L 271 198 L 206 131 L 206 0 L 64 0 L 64 495 L 205 495 L 205 273 L 404 495 L 562 495 L 367 286 L 602 1 Z" unicode="ĸ" />
<glyph horiz-adv-x="540" d="M 530 0 L 86 0 L 86 730 L 243 730 L 243 132 L 530 132 L 530 0 Z M 195 785 L 297 945 L 470 945 L 341 785 L 195 785 Z" unicode="Ĺ" />
<glyph horiz-adv-x="320" d="M 58 145 L 58 763 L 198 763 L 198 183 C 198 161 204 144 216 132 C 228 120 244 115 266 115 C 274 115 282 115 291 116 C 300 117 307 118 311 120 L 312 0 C 307 -1 297 -2 283 -4 C 268 -5 254 -6 240 -6 C 211 -6 183 -1 155 8 C 127 18 103 34 85 56 C 67 78 58 107 58 145 Z M 62 818 L 164 978 L 337 978 L 208 818 L 62 818 Z" unicode="ĺ" />
<glyph horiz-adv-x="540" d="M 530 0 L 86 0 L 86 730 L 243 730 L 243 132 L 530 132 L 530 0 Z M 409 -62 C 407 -101 399 -141 385 -182 C 371 -222 356 -258 338 -289 C 320 -319 303 -340 288 -350 L 179 -301 C 189 -289 199 -271 211 -245 C 223 -219 233 -190 242 -158 C 251 -125 257 -93 260 -62 L 409 -62 Z" unicode="Ļ" />
<glyph horiz-adv-x="320" d="M 58 145 L 58 763 L 198 763 L 198 183 C 198 161 204 144 216 132 C 228 120 244 115 266 115 C 274 115 282 115 291 116 C 300 117 307 118 311 120 L 312 0 C 307 -1 297 -2 283 -4 C 268 -5 254 -6 240 -6 C 211 -6 183 -1 155 8 C 127 18 103 34 85 56 C 67 78 58 107 58 145 Z M 272 -62 C 270 -101 262 -141 248 -182 C 234 -222 219 -258 201 -289 C 183 -319 166 -340 151 -350 L 42 -301 C 52 -289 62 -271 74 -245 C 86 -219 96 -190 105 -158 C 114 -125 120 -93 123 -62 L 272 -62 Z" unicode="ļ" />
<glyph horiz-adv-x="540" d="M 530 0 L 86 0 L 86 730 L 243 730 L 243 132 L 530 132 L 530 0 Z M 542 605 L 537 441 L 413 441 L 407 605 L 407 730 L 542 730 L 542 605 Z" unicode="Ľ" />
<glyph horiz-adv-x="320" d="M 58 145 L 58 763 L 198 763 L 198 183 C 198 161 204 144 216 132 C 228 120 244 115 266 115 C 274 115 282 115 291 116 C 300 117 307 118 311 120 L 312 0 C 307 -1 297 -2 283 -4 C 268 -5 254 -6 240 -6 C 211 -6 183 -1 155 8 C 127 18 103 34 85 56 C 67 78 58 107 58 145 Z M 383 605 L 378 441 L 254 441 L 248 605 L 248 730 L 383 730 L 383 605 Z" unicode="ľ" />
<glyph horiz-adv-x="540" d="M 530 0 L 86 0 L 86 730 L 243 730 L 243 132 L 530 132 L 530 0 Z M 468 280 L 337 280 L 337 445 L 468 445 L 468 280 Z" unicode="Ŀ" />
<glyph horiz-adv-x="320" d="M 58 145 L 58 763 L 198 763 L 198 183 C 198 161 204 144 216 132 C 228 120 244 115 266 115 C 274 115 282 115 291 116 C 300 117 307 118 311 120 L 312 0 C 307 -1 297 -2 283 -4 C 268 -5 254 -6 240 -6 C 211 -6 183 -1 155 8 C 127 18 103 34 85 56 C 67 78 58 107 58 145 Z M 385 199 L 254 199 L 254 364 L 385 364 L 385 199 Z" unicode="ŀ" />
<glyph horiz-adv-x="540" d="M 41 233 L -9 340 L 390 505 L 439 398 L 41 233 Z M 86 0 L 86 730 L 243 730 L 243 130 L 521 130 L 521 0 L 86 0 Z" unicode="Ł" />
<glyph horiz-adv-x="320" d="M 240 -6 C 211 -6 183 -1 155 8 C 127 18 103 34 85 56 C 67 78 58 107 58 145 L 58 763 L 198 763 L 198 183 C 198 161 204 144 216 132 C 228 120 244 115 266 115 C 274 115 282 115 291 116 C 300 117 307 118 311 120 L 312 0 C 307 -1 297 -2 283 -4 C 269 -5 254 -6 240 -6 Z M 19 226 L -20 316 L 275 461 L 315 371 L 19 226 Z" unicode="ł" />
<glyph horiz-adv-x="782" d="M 696 0 L 589 0 L 232 457 L 232 0 L 86 0 L 86 730 L 204 730 L 551 282 L 551 730 L 696 730 L 696 0 Z M 254 785 L 356 945 L 529 945 L 400 785 L 254 785 Z" unicode="Ń" />
<glyph horiz-adv-x="599" d="M 542 0 L 396 0 L 396 315 C 396 337 388 354 373 367 C 357 379 337 386 313 386 C 294 386 277 382 261 375 C 245 368 233 358 224 345 C 214 331 210 314 210 294 L 210 0 L 64 0 L 64 495 L 196 495 L 196 416 C 208 443 229 465 259 482 C 289 498 324 507 364 507 C 416 507 458 492 492 464 C 525 435 542 397 542 351 L 542 0 Z M 177 550 L 279 710 L 452 710 L 323 550 L 177 550 Z" unicode="ń" />
<glyph horiz-adv-x="782" d="M 696 0 L 589 0 L 232 457 L 232 0 L 86 0 L 86 730 L 204 730 L 551 282 L 551 730 L 696 730 L 696 0 Z M 493 -62 C 491 -101 483 -141 469 -182 C 455 -222 440 -258 422 -289 C 404 -319 387 -340 372 -350 L 263 -301 C 273 -289 283 -271 295 -245 C 307 -219 317 -190 326 -158 C 335 -125 341 -93 344 -62 L 493 -62 Z" unicode="Ņ" />
<glyph horiz-adv-x="599" d="M 542 0 L 396 0 L 396 315 C 396 337 388 354 373 367 C 357 379 337 386 313 386 C 294 386 277 382 261 375 C 245 368 233 358 224 345 C 214 331 210 314 210 294 L 210 0 L 64 0 L 64 495 L 196 495 L 196 416 C 208 443 229 465 259 482 C 289 498 324 507 364 507 C 416 507 458 492 492 464 C 525 435 542 397 542 351 L 542 0 Z M 397 -62 C 395 -101 387 -141 373 -182 C 359 -222 344 -258 326 -289 C 308 -319 291 -340 276 -350 L 167 -301 C 177 -289 187 -271 199 -245 C 211 -219 221 -190 230 -158 C 239 -125 245 -93 248 -62 L 397 -62 Z" unicode="ņ" />
<glyph horiz-adv-x="782" d="M 696 0 L 589 0 L 232 457 L 232 0 L 86 0 L 86 730 L 204 730 L 551 282 L 551 730 L 696 730 L 696 0 Z M 194 957 L 328 957 L 392 872 L 457 957 L 589 957 L 466 783 L 317 783 L 194 957 Z" unicode="Ň" />
<glyph horiz-adv-x="599" d="M 542 0 L 396 0 L 396 315 C 396 337 388 354 373 367 C 357 379 337 386 313 386 C 294 386 277 382 261 375 C 245 368 233 358 224 345 C 214 331 210 314 210 294 L 210 0 L 64 0 L 64 495 L 196 495 L 196 416 C 208 443 229 465 259 482 C 289 498 324 507 364 507 C 416 507 458 492 492 464 C 525 435 542 397 542 351 L 542 0 Z M 117 722 L 251 722 L 315 637 L 380 722 L 512 722 L 389 548 L 240 548 L 117 722 Z" unicode="ň" />
<glyph horiz-adv-x="785" d="M 696 451 L 696 15 C 696 -49 677 -101 641 -141 C 604 -181 553 -201 488 -201 C 464 -201 441 -199 418 -195 C 394 -191 376 -186 363 -178 L 388 -53 C 396 -56 409 -59 427 -62 C 445 -64 460 -66 473 -66 C 497 -66 515 -58 529 -42 C 542 -26 549 -7 549 15 L 549 451 L 696 451 Z M 696 0 L 589 0 L 232 457 L 232 0 L 86 0 L 86 730 L 204 730 L 551 282 L 551 730 L 696 730 L 696 0 Z" unicode="Ŋ" />
<glyph horiz-adv-x="599" d="M 542 223 L 542 -26 C 542 -60 535 -90 521 -117 C 507 -143 487 -164 461 -179 C 435 -194 403 -202 365 -202 C 347 -202 327 -200 303 -197 C 279 -193 260 -189 245 -183 L 259 -72 C 267 -76 277 -79 290 -81 C 302 -83 316 -85 331 -85 C 352 -85 368 -77 379 -62 C 390 -46 396 -27 396 -4 L 396 223 L 542 223 Z M 542 0 L 396 0 L 396 315 C 396 337 388 354 373 367 C 357 379 337 386 313 386 C 294 386 277 382 261 375 C 245 368 233 358 224 345 C 214 331 210 314 210 294 L 210 0 L 64 0 L 64 495 L 196 495 L 196 416 C 208 443 229 465 259 482 C 289 498 324 507 364 507 C 416 507 458 492 492 464 C 525 435 542 397 542 351 L 542 0 Z" unicode="ŋ" />
<glyph horiz-adv-x="832" d="M 421 123 C 461 123 496 132 528 151 C 560 169 585 197 603 233 C 621 269 631 313 631 367 C 631 415 621 457 602 493 C 583 528 557 555 524 574 C 491 593 454 603 412 603 C 372 603 336 594 304 577 C 272 559 246 533 228 498 C 210 463 201 420 201 369 C 201 316 210 271 230 235 C 249 198 275 170 308 151 C 341 132 379 123 421 123 Z M 419 -12 C 341 -12 274 4 218 37 C 162 69 118 114 88 172 C 57 230 42 296 42 370 C 42 441 58 505 92 561 C 125 617 169 661 225 693 C 281 725 343 742 411 742 C 484 742 549 726 606 696 C 663 665 708 621 741 565 C 773 509 790 443 790 369 C 790 291 772 224 738 167 C 704 110 659 66 603 35 C 547 3 485 -12 419 -12 Z M 559 792 L 269 792 L 269 901 L 559 901 L 559 792 Z" unicode="Ō" />
<glyph horiz-adv-x="606" d="M 299 -11 C 255 -11 212 -1 171 18 C 130 37 97 66 71 104 C 45 142 32 190 32 246 C 32 296 44 341 70 381 C 95 420 128 451 169 473 C 209 495 252 507 298 507 C 347 507 392 497 434 478 C 476 458 509 430 535 393 C 561 356 574 312 574 260 C 574 205 561 157 535 117 C 509 76 476 44 434 22 C 392 0 347 -11 299 -11 Z M 302 110 C 339 110 368 122 390 148 C 412 173 423 209 423 255 C 423 295 411 327 389 350 C 367 373 336 385 298 385 C 274 385 254 379 237 369 C 220 358 207 342 198 321 C 188 300 184 275 184 246 C 184 215 189 189 199 169 C 209 149 222 134 240 124 C 258 114 278 110 302 110 Z M 446 557 L 156 557 L 156 666 L 446 666 L 446 557 Z" unicode="ō" />
<glyph horiz-adv-x="832" d="M 421 123 C 461 123 496 132 528 151 C 560 169 585 197 603 233 C 621 269 631 313 631 367 C 631 415 621 457 602 493 C 583 528 557 555 524 574 C 491 593 454 603 412 603 C 372 603 336 594 304 577 C 272 559 246 533 228 498 C 210 463 201 420 201 369 C 201 316 210 271 230 235 C 249 198 275 170 308 151 C 341 132 379 123 421 123 Z M 419 -12 C 341 -12 274 4 218 37 C 162 69 118 114 88 172 C 57 230 42 296 42 370 C 42 441 58 505 92 561 C 125 617 169 661 225 693 C 281 725 343 742 411 742 C 484 742 549 726 606 696 C 663 665 708 621 741 565 C 773 509 790 443 790 369 C 790 291 772 224 738 167 C 704 110 659 66 603 35 C 547 3 485 -12 419 -12 Z M 470 945 L 590 945 C 585 889 566 848 534 822 C 502 796 462 783 414 783 C 366 783 325 796 293 822 C 261 848 242 889 238 945 L 358 945 C 360 919 365 899 373 886 C 381 873 395 867 414 867 C 432 867 446 873 455 885 C 463 897 468 917 470 945 Z" unicode="Ŏ" />
<glyph horiz-adv-x="606" d="M 299 -11 C 255 -11 212 -1 171 18 C 130 37 97 66 71 104 C 45 142 32 190 32 246 C 32 296 44 341 70 381 C 95 420 128 451 169 473 C 209 495 252 507 298 507 C 347 507 392 497 434 478 C 476 458 509 430 535 393 C 561 356 574 312 574 260 C 574 205 561 157 535 117 C 509 76 476 44 434 22 C 392 0 347 -11 299 -11 Z M 302 110 C 339 110 368 122 390 148 C 412 173 423 209 423 255 C 423 295 411 327 389 350 C 367 373 336 385 298 385 C 274 385 254 379 237 369 C 220 358 207 342 198 321 C 188 300 184 275 184 246 C 184 215 189 189 199 169 C 209 149 222 134 240 124 C 258 114 278 110 302 110 Z M 357 710 L 477 710 C 472 654 453 613 421 587 C 389 561 349 548 301 548 C 253 548 212 561 180 587 C 148 613 129 654 125 710 L 245 710 C 247 684 252 664 260 651 C 268 638 282 632 301 632 C 319 632 333 638 342 650 C 350 662 355 682 357 710 Z" unicode="ŏ" />
<glyph horiz-adv-x="832" d="M 421 123 C 461 123 496 132 528 151 C 560 169 585 197 603 233 C 621 269 631 313 631 367 C 631 415 621 457 602 493 C 583 528 557 555 524 574 C 491 593 454 603 412 603 C 372 603 336 594 304 577 C 272 559 246 533 228 498 C 210 463 201 420 201 369 C 201 316 210 271 230 235 C 249 198 275 170 308 151 C 341 132 379 123 421 123 Z M 419 -12 C 341 -12 274 4 218 37 C 162 69 118 114 88 172 C 57 230 42 296 42 370 C 42 441 58 505 92 561 C 125 617 169 661 225 693 C 281 725 343 742 411 742 C 484 742 549 726 606 696 C 663 665 708 621 741 565 C 773 509 790 443 790 369 C 790 291 772 224 738 167 C 704 110 659 66 603 35 C 547 3 485 -12 419 -12 Z M 181 783 L 277 935 L 430 935 L 308 783 L 181 783 Z M 398 783 L 494 935 L 647 935 L 524 783 L 398 783 Z" unicode="Ő" />
<glyph horiz-adv-x="606" d="M 299 -11 C 255 -11 212 -1 171 18 C 130 37 97 66 71 104 C 45 142 32 190 32 246 C 32 296 44 341 70 381 C 95 420 128 451 169 473 C 209 495 252 507 298 507 C 347 507 392 497 434 478 C 476 458 509 430 535 393 C 561 356 574 312 574 260 C 574 205 561 157 535 117 C 509 76 476 44 434 22 C 392 0 347 -11 299 -11 Z M 302 110 C 339 110 368 122 390 148 C 412 173 423 209 423 255 C 423 295 411 327 389 350 C 367 373 336 385 298 385 C 274 385 254 379 237 369 C 220 358 207 342 198 321 C 188 300 184 275 184 246 C 184 215 189 189 199 169 C 209 149 222 134 240 124 C 258 114 278 110 302 110 Z M 68 548 L 164 700 L 317 700 L 195 548 L 68 548 Z M 285 548 L 381 700 L 534 700 L 411 548 L 285 548 Z" unicode="ő" />
<glyph horiz-adv-x="1146" d="M 417 119 C 457 119 493 127 525 145 C 557 163 582 190 600 227 C 618 264 628 311 628 368 C 628 422 617 466 596 502 C 575 538 548 564 516 582 C 484 600 450 609 416 609 C 376 609 340 600 308 582 C 276 564 250 538 232 502 C 213 466 204 421 204 366 C 204 310 213 263 232 227 C 250 190 276 163 308 145 C 340 127 376 119 417 119 Z M 399 -12 C 325 -12 262 4 209 37 C 155 69 114 114 85 172 C 56 229 42 295 42 369 C 42 439 58 502 92 558 C 125 614 169 659 225 692 C 281 725 343 742 411 742 C 438 742 466 737 496 729 C 525 721 552 709 576 694 C 600 679 618 662 630 644 L 630 730 L 1081 730 L 1081 599 L 776 599 L 776 423 L 1061 423 L 1061 298 L 776 298 L 776 131 L 1101 131 L 1101 0 L 630 0 L 630 104 C 618 82 601 63 579 45 C 557 27 530 13 499 3 C 468 -6 435 -12 399 -12 Z" unicode="Œ" />
<glyph horiz-adv-x="960" d="M 304 110 C 328 110 349 115 367 126 C 385 136 398 153 408 175 C 418 197 423 224 423 256 C 423 282 418 305 408 325 C 398 344 383 359 365 369 C 346 379 324 385 299 385 C 275 385 254 379 237 369 C 219 358 206 342 197 321 C 188 299 184 274 184 245 C 184 214 189 189 199 169 C 209 149 223 135 241 125 C 259 115 280 110 304 110 Z M 295 -11 C 250 -11 208 -1 168 19 C 128 39 95 68 70 106 C 44 144 32 190 32 246 C 32 296 44 341 69 381 C 94 420 127 451 167 473 C 207 495 250 507 296 507 C 333 507 365 502 392 492 C 418 482 440 470 457 456 C 474 441 487 427 496 413 C 502 426 514 440 532 455 C 550 469 572 482 598 492 C 624 502 653 507 685 507 C 765 507 827 479 871 425 C 915 370 937 297 938 207 L 562 207 C 563 180 575 156 598 135 C 620 114 652 104 694 104 C 728 104 755 109 775 120 C 795 130 812 143 825 157 L 907 74 C 884 49 857 29 825 13 C 793 -3 749 -11 691 -11 C 641 -11 599 0 563 19 C 527 39 503 61 491 83 C 482 69 469 54 451 40 C 433 26 411 14 385 4 C 359 -6 329 -11 295 -11 Z M 566 301 L 792 301 C 790 327 779 349 760 367 C 740 385 714 394 681 394 C 648 394 621 384 601 366 C 581 348 569 326 566 301 Z" unicode="œ" />
<glyph horiz-adv-x="665" d="M 86 0 L 86 730 L 353 730 C 393 730 431 722 466 706 C 500 690 528 667 549 637 C 570 606 581 568 581 524 C 581 460 565 412 533 380 C 501 348 466 329 430 323 L 429 318 L 661 0 L 480 0 L 290 274 L 241 274 L 241 0 L 86 0 Z M 239 399 L 323 399 C 349 399 372 407 392 425 C 412 443 422 469 422 505 C 422 537 412 562 392 580 C 372 597 349 606 324 606 L 239 606 L 239 399 Z M 192 785 L 294 945 L 467 945 L 338 785 L 192 785 Z" unicode="Ŕ" />
<glyph horiz-adv-x="456" d="M 460 476 L 394 348 C 380 361 365 370 350 375 C 334 379 320 382 306 382 C 282 382 260 373 240 356 C 220 338 210 315 210 287 L 210 0 L 64 0 L 64 495 L 197 495 L 197 414 C 205 434 222 455 250 476 C 277 496 312 507 355 507 C 377 507 397 504 415 499 C 433 493 448 486 460 476 Z M 129 550 L 231 710 L 404 710 L 275 550 L 129 550 Z" unicode="ŕ" />
<glyph horiz-adv-x="665" d="M 86 0 L 86 730 L 353 730 C 393 730 431 722 466 706 C 500 690 528 667 549 637 C 570 606 581 568 581 524 C 581 460 565 412 533 380 C 501 348 466 329 430 323 L 429 318 L 661 0 L 480 0 L 290 274 L 241 274 L 241 0 L 86 0 Z M 239 399 L 323 399 C 349 399 372 407 392 425 C 412 443 422 469 422 505 C 422 537 412 562 392 580 C 372 597 349 606 324 606 L 239 606 L 239 399 Z M 448 -62 C 446 -101 438 -141 424 -182 C 410 -222 395 -258 377 -289 C 359 -319 342 -340 327 -350 L 218 -301 C 228 -289 238 -271 250 -245 C 262 -219 272 -190 281 -158 C 290 -125 296 -93 299 -62 L 448 -62 Z" unicode="Ŗ" />
<glyph horiz-adv-x="456" d="M 460 476 L 394 348 C 380 361 365 370 350 375 C 334 379 320 382 306 382 C 282 382 260 373 240 356 C 220 338 210 315 210 287 L 210 0 L 64 0 L 64 495 L 197 495 L 197 414 C 205 434 222 455 250 476 C 277 496 312 507 355 507 C 377 507 397 504 415 499 C 433 493 448 486 460 476 Z M 358 -62 C 356 -101 348 -141 334 -182 C 320 -222 305 -258 287 -289 C 269 -319 252 -340 237 -350 L 128 -301 C 138 -289 148 -271 160 -245 C 172 -219 182 -190 191 -158 C 200 -125 206 -93 209 -62 L 358 -62 Z" unicode="ŗ" />
<glyph horiz-adv-x="665" d="M 86 0 L 86 730 L 353 730 C 393 730 431 722 466 706 C 500 690 528 667 549 637 C 570 606 581 568 581 524 C 581 460 565 412 533 380 C 501 348 466 329 430 323 L 429 318 L 661 0 L 480 0 L 290 274 L 241 274 L 241 0 L 86 0 Z M 239 399 L 323 399 C 349 399 372 407 392 425 C 412 443 422 469 422 505 C 422 537 412 562 392 580 C 372 597 349 606 324 606 L 239 606 L 239 399 Z M 132 957 L 266 957 L 330 872 L 395 957 L 527 957 L 404 783 L 255 783 L 132 957 Z" unicode="Ř" />
<glyph horiz-adv-x="456" d="M 460 476 L 394 348 C 380 361 365 370 350 375 C 334 379 320 382 306 382 C 282 382 260 373 240 356 C 220 338 210 315 210 287 L 210 0 L 64 0 L 64 495 L 197 495 L 197 414 C 205 434 222 455 250 476 C 277 496 312 507 355 507 C 377 507 397 504 415 499 C 433 493 448 486 460 476 Z M 69 722 L 203 722 L 267 637 L 332 722 L 464 722 L 341 548 L 192 548 L 69 722 Z" unicode="ř" />
<glyph horiz-adv-x="572" d="M 293 -12 C 233 -12 180 -4 135 12 C 89 28 52 50 22 78 L 109 195 C 127 175 152 157 185 141 C 217 125 253 117 291 117 C 318 117 341 123 359 136 C 377 149 386 167 386 190 C 386 213 376 233 356 249 C 336 265 307 281 267 297 C 223 315 184 334 152 354 C 119 374 93 399 75 429 C 57 459 48 497 48 544 C 48 602 69 650 113 687 C 157 723 214 742 286 742 C 336 742 379 734 416 720 C 452 706 484 688 511 668 L 438 550 C 416 566 392 580 367 592 C 342 603 316 609 289 609 C 261 609 239 602 223 590 C 207 578 200 562 200 544 C 200 520 210 501 231 486 C 252 471 289 452 343 430 C 409 402 458 372 490 339 C 522 305 539 259 539 200 C 539 131 514 78 464 42 C 414 6 357 -12 293 -12 Z M 149 785 L 251 945 L 424 945 L 295 785 L 149 785 Z" unicode="Ś" />
<glyph horiz-adv-x="473" d="M 254 -12 C 206 -12 162 -6 124 5 C 85 16 52 31 26 51 L 90 147 C 112 132 138 120 168 112 C 198 103 226 99 251 99 C 269 99 283 102 293 110 C 303 118 309 128 309 140 C 309 152 300 163 284 171 C 268 179 242 189 207 199 C 173 207 144 218 120 232 C 95 246 76 263 63 284 C 49 304 43 329 43 359 C 43 402 61 437 98 465 C 135 493 183 507 241 507 C 287 507 328 500 363 488 C 397 476 422 464 438 452 L 385 351 C 364 363 342 374 319 384 C 296 393 272 398 247 398 C 229 398 214 395 201 389 C 188 383 182 375 182 363 C 182 351 187 342 199 336 C 211 329 238 319 281 307 C 331 293 372 274 402 252 C 432 229 447 195 447 150 C 447 116 438 88 422 64 C 405 40 382 21 353 8 C 324 -5 291 -12 254 -12 Z M 108 550 L 210 710 L 383 710 L 254 550 L 108 550 Z" unicode="ś" />
<glyph horiz-adv-x="572" d="M 293 -12 C 233 -12 180 -4 135 12 C 89 28 52 50 22 78 L 109 195 C 127 175 152 157 185 141 C 217 125 253 117 291 117 C 318 117 341 123 359 136 C 377 149 386 167 386 190 C 386 213 376 233 356 249 C 336 265 307 281 267 297 C 223 315 184 334 152 354 C 119 374 93 399 75 429 C 57 459 48 497 48 544 C 48 602 69 650 113 687 C 157 723 214 742 286 742 C 336 742 379 734 416 720 C 452 706 484 688 511 668 L 438 550 C 416 566 392 580 367 592 C 342 603 316 609 289 609 C 261 609 239 602 223 590 C 207 578 200 562 200 544 C 200 520 210 501 231 486 C 252 471 289 452 343 430 C 409 402 458 372 490 339 C 522 305 539 259 539 200 C 539 131 514 78 464 42 C 414 6 357 -12 293 -12 Z M 484 783 L 350 783 L 286 868 L 221 783 L 89 783 L 212 957 L 361 957 L 484 783 Z" unicode="Ŝ" />
<glyph horiz-adv-x="473" d="M 254 -12 C 206 -12 162 -6 124 5 C 85 16 52 31 26 51 L 90 147 C 112 132 138 120 168 112 C 198 103 226 99 251 99 C 269 99 283 102 293 110 C 303 118 309 128 309 140 C 309 152 300 163 284 171 C 268 179 242 189 207 199 C 173 207 144 218 120 232 C 95 246 76 263 63 284 C 49 304 43 329 43 359 C 43 402 61 437 98 465 C 135 493 183 507 241 507 C 287 507 328 500 363 488 C 397 476 422 464 438 452 L 385 351 C 364 363 342 374 319 384 C 296 393 272 398 247 398 C 229 398 214 395 201 389 C 188 383 182 375 182 363 C 182 351 187 342 199 336 C 211 329 238 319 281 307 C 331 293 372 274 402 252 C 432 229 447 195 447 150 C 447 116 438 88 422 64 C 405 40 382 21 353 8 C 324 -5 291 -12 254 -12 Z M 443 548 L 309 548 L 245 633 L 180 548 L 48 548 L 171 722 L 320 722 L 443 548 Z" unicode="ŝ" />
<glyph horiz-adv-x="572" d="M 293 -12 C 233 -12 180 -4 135 12 C 89 28 52 50 22 78 L 109 195 C 127 175 152 157 185 141 C 217 125 253 117 291 117 C 318 117 341 123 359 136 C 377 149 386 167 386 190 C 386 213 376 233 356 249 C 336 265 307 281 267 297 C 223 315 184 334 152 354 C 119 374 93 399 75 429 C 57 459 48 497 48 544 C 48 602 69 650 113 687 C 157 723 214 742 286 742 C 336 742 379 734 416 720 C 452 706 484 688 511 668 L 438 550 C 416 566 392 580 367 592 C 342 603 316 609 289 609 C 261 609 239 602 223 590 C 207 578 200 562 200 544 C 200 520 210 501 231 486 C 252 471 289 452 343 430 C 409 402 458 372 490 339 C 522 305 539 259 539 200 C 539 131 514 78 464 42 C 414 6 357 -12 293 -12 Z M 284 -197 C 258 -197 231 -194 203 -188 C 175 -182 154 -174 140 -165 L 156 -102 C 164 -106 176 -110 190 -114 C 204 -118 219 -120 235 -120 C 244 -120 252 -118 260 -114 C 268 -110 272 -104 272 -97 C 272 -89 268 -83 262 -80 C 255 -76 248 -75 241 -75 C 231 -75 222 -76 212 -79 L 194 -59 L 255 11 L 343 11 L 296 -45 C 330 -41 357 -45 378 -59 C 399 -73 410 -92 410 -118 C 410 -144 397 -164 371 -177 C 345 -190 316 -197 284 -197 Z" unicode="Ş" />
<glyph horiz-adv-x="473" d="M 254 -12 C 206 -12 162 -6 124 5 C 85 16 52 31 26 51 L 90 147 C 112 132 138 120 168 112 C 198 103 226 99 251 99 C 269 99 283 102 293 110 C 303 118 309 128 309 140 C 309 152 300 163 284 171 C 268 179 242 189 207 199 C 173 207 144 218 120 232 C 95 246 76 263 63 284 C 49 304 43 329 43 359 C 43 402 61 437 98 465 C 135 493 183 507 241 507 C 287 507 328 500 363 488 C 397 476 422 464 438 452 L 385 351 C 364 363 342 374 319 384 C 296 393 272 398 247 398 C 229 398 214 395 201 389 C 188 383 182 375 182 363 C 182 351 187 342 199 336 C 211 329 238 319 281 307 C 331 293 372 274 402 252 C 432 229 447 195 447 150 C 447 116 438 88 422 64 C 405 40 382 21 353 8 C 324 -5 291 -12 254 -12 Z M 241 -194 C 215 -194 188 -191 160 -185 C 132 -179 111 -171 97 -162 L 113 -99 C 121 -103 133 -107 147 -111 C 161 -115 176 -117 192 -117 C 201 -117 209 -115 217 -111 C 225 -107 229 -101 229 -94 C 229 -86 225 -80 219 -77 C 212 -73 205 -72 198 -72 C 188 -72 179 -73 169 -76 L 151 -56 L 212 14 L 300 14 L 253 -42 C 287 -38 314 -42 335 -56 C 356 -70 367 -89 367 -115 C 367 -141 354 -161 328 -174 C 302 -187 273 -194 241 -194 Z" unicode="ş" />
<glyph horiz-adv-x="572" d="M 293 -12 C 233 -12 180 -4 135 12 C 89 28 52 50 22 78 L 109 195 C 127 175 152 157 185 141 C 217 125 253 117 291 117 C 318 117 341 123 359 136 C 377 149 386 167 386 190 C 386 213 376 233 356 249 C 336 265 307 281 267 297 C 223 315 184 334 152 354 C 119 374 93 399 75 429 C 57 459 48 497 48 544 C 48 602 69 650 113 687 C 157 723 214 742 286 742 C 336 742 379 734 416 720 C 452 706 484 688 511 668 L 438 550 C 416 566 392 580 367 592 C 342 603 316 609 289 609 C 261 609 239 602 223 590 C 207 578 200 562 200 544 C 200 520 210 501 231 486 C 252 471 289 452 343 430 C 409 402 458 372 490 339 C 522 305 539 259 539 200 C 539 131 514 78 464 42 C 414 6 357 -12 293 -12 Z M 89 957 L 223 957 L 287 872 L 352 957 L 484 957 L 361 783 L 212 783 L 89 957 Z" unicode="Š" />
<glyph horiz-adv-x="473" d="M 254 -12 C 206 -12 162 -6 124 5 C 85 16 52 31 26 51 L 90 147 C 112 132 138 120 168 112 C 198 103 226 99 251 99 C 269 99 283 102 293 110 C 303 118 309 128 309 140 C 309 152 300 163 284 171 C 268 179 242 189 207 199 C 173 207 144 218 120 232 C 95 246 76 263 63 284 C 49 304 43 329 43 359 C 43 402 61 437 98 465 C 135 493 183 507 241 507 C 287 507 328 500 363 488 C 397 476 422 464 438 452 L 385 351 C 364 363 342 374 319 384 C 296 393 272 398 247 398 C 229 398 214 395 201 389 C 188 383 182 375 182 363 C 182 351 187 342 199 336 C 211 329 238 319 281 307 C 331 293 372 274 402 252 C 432 229 447 195 447 150 C 447 116 438 88 422 64 C 405 40 382 21 353 8 C 324 -5 291 -12 254 -12 Z M 48 722 L 182 722 L 246 637 L 311 722 L 443 722 L 320 548 L 171 548 L 48 722 Z" unicode="š" />
<glyph horiz-adv-x="579" d="M 569 597 L 365 597 L 365 0 L 208 0 L 208 597 L 10 597 L 10 730 L 569 730 L 569 597 Z M 92 957 L 226 957 L 290 872 L 355 957 L 487 957 L 364 783 L 215 783 L 92 957 Z" unicode="Ť" />
<glyph horiz-adv-x="350" d="M 331 128 L 342 8 C 334 3 321 0 305 -2 C 289 -4 272 -6 255 -6 C 223 -6 192 0 164 11 C 136 22 113 40 95 66 C 77 91 69 124 69 165 L 69 375 L 7 375 L 7 495 L 69 495 L 69 617 L 214 634 L 214 495 L 325 495 L 325 375 L 214 375 L 214 188 C 214 163 219 145 230 135 C 241 124 258 119 282 119 C 291 119 301 120 311 122 C 321 124 327 126 331 128 Z M 460 605 L 455 441 L 331 441 L 325 605 L 325 730 L 460 730 L 460 605 Z" unicode="ť" />
<glyph horiz-adv-x="579" d="M 500 395 L 76 395 L 76 495 L 500 495 L 500 395 Z M 569 597 L 365 597 L 365 0 L 208 0 L 208 597 L 10 597 L 10 730 L 569 730 L 569 597 Z" unicode="Ŧ" />
<glyph horiz-adv-x="350" d="M 306 237 L 17 237 L 17 326 L 306 326 L 306 237 Z M 331 128 L 342 8 C 334 3 321 0 305 -2 C 289 -4 272 -6 255 -6 C 223 -6 192 0 164 11 C 136 22 113 40 95 66 C 77 91 69 124 69 165 L 69 375 L 7 375 L 7 495 L 69 495 L 69 617 L 214 634 L 214 495 L 325 495 L 325 375 L 214 375 L 214 188 C 214 163 219 145 230 135 C 241 124 258 119 282 119 C 291 119 301 120 311 122 C 321 124 327 126 331 128 Z" unicode="ŧ" />
<glyph horiz-adv-x="765" d="M 685 730 L 685 266 C 685 208 671 158 643 116 C 615 74 579 43 533 21 C 487 -1 437 -12 382 -12 C 327 -12 277 -1 231 20 C 185 41 149 72 121 114 C 93 155 80 206 80 266 L 80 730 L 233 730 L 233 264 C 233 221 247 187 275 162 C 303 136 338 124 381 124 C 423 124 459 136 488 161 C 516 185 531 220 531 264 L 531 730 L 685 730 Z M 456 941 L 570 941 C 570 887 561 848 544 823 C 526 797 504 785 476 785 C 457 785 440 787 426 793 C 412 799 400 805 390 812 C 380 817 371 822 363 828 C 355 833 346 836 338 836 C 330 836 323 831 319 823 C 314 815 311 803 311 789 L 199 789 C 199 841 210 879 233 905 C 255 931 279 944 303 944 C 321 944 337 941 349 935 C 361 929 373 923 383 917 C 391 911 399 905 406 901 C 413 896 420 894 427 894 C 433 894 440 898 446 906 C 452 914 455 925 456 941 Z" unicode="Ũ" />
<glyph horiz-adv-x="600" d="M 58 495 L 203 495 L 203 188 C 203 162 211 142 228 129 C 244 116 266 110 293 110 C 322 110 345 117 363 133 C 381 149 390 170 390 197 L 390 495 L 535 495 L 535 0 L 401 0 L 401 79 C 387 53 365 31 337 15 C 308 -1 274 -10 234 -10 C 185 -10 143 4 109 32 C 75 60 58 101 58 153 L 58 495 Z M 371 706 L 485 706 C 485 652 476 613 459 588 C 441 562 419 550 391 550 C 372 550 355 552 341 558 C 327 564 315 570 305 577 C 295 582 286 587 278 593 C 270 598 261 601 253 601 C 245 601 238 596 234 588 C 229 580 226 568 226 554 L 114 554 C 114 606 125 644 148 670 C 170 696 194 709 218 709 C 236 709 252 706 264 700 C 276 694 288 688 298 682 C 306 676 314 670 321 666 C 328 661 335 659 342 659 C 348 659 355 663 361 671 C 367 679 370 690 371 706 Z" unicode="ũ" />
<glyph horiz-adv-x="765" d="M 685 730 L 685 266 C 685 208 671 158 643 116 C 615 74 579 43 533 21 C 487 -1 437 -12 382 -12 C 327 -12 277 -1 231 20 C 185 41 149 72 121 114 C 93 155 80 206 80 266 L 80 730 L 233 730 L 233 264 C 233 221 247 187 275 162 C 303 136 338 124 381 124 C 423 124 459 136 488 161 C 516 185 531 220 531 264 L 531 730 L 685 730 Z M 528 792 L 238 792 L 238 901 L 528 901 L 528 792 Z" unicode="Ū" />
<glyph horiz-adv-x="600" d="M 58 495 L 203 495 L 203 188 C 203 162 211 142 228 129 C 244 116 266 110 293 110 C 322 110 345 117 363 133 C 381 149 390 170 390 197 L 390 495 L 535 495 L 535 0 L 401 0 L 401 79 C 387 53 365 31 337 15 C 308 -1 274 -10 234 -10 C 185 -10 143 4 109 32 C 75 60 58 101 58 153 L 58 495 Z M 443 557 L 153 557 L 153 666 L 443 666 L 443 557 Z" unicode="ū" />
<glyph horiz-adv-x="765" d="M 685 730 L 685 266 C 685 208 671 158 643 116 C 615 74 579 43 533 21 C 487 -1 437 -12 382 -12 C 327 -12 277 -1 231 20 C 185 41 149 72 121 114 C 93 155 80 206 80 266 L 80 730 L 233 730 L 233 264 C 233 221 247 187 275 162 C 303 136 338 124 381 124 C 423 124 459 136 488 161 C 516 185 531 220 531 264 L 531 730 L 685 730 Z M 439 945 L 559 945 C 554 889 535 848 503 822 C 471 796 431 783 383 783 C 335 783 294 796 262 822 C 230 848 211 889 207 945 L 327 945 C 329 919 334 899 342 886 C 350 873 364 867 383 867 C 401 867 415 873 424 885 C 432 897 437 917 439 945 Z" unicode="Ŭ" />
<glyph horiz-adv-x="600" d="M 58 495 L 203 495 L 203 188 C 203 162 211 142 228 129 C 244 116 266 110 293 110 C 322 110 345 117 363 133 C 381 149 390 170 390 197 L 390 495 L 535 495 L 535 0 L 401 0 L 401 79 C 387 53 365 31 337 15 C 308 -1 274 -10 234 -10 C 185 -10 143 4 109 32 C 75 60 58 101 58 153 L 58 495 Z M 354 710 L 474 710 C 469 654 450 613 418 587 C 386 561 346 548 298 548 C 250 548 209 561 177 587 C 145 613 126 654 122 710 L 242 710 C 244 684 249 664 257 651 C 265 638 279 632 298 632 C 316 632 330 638 339 650 C 347 662 352 682 354 710 Z" unicode="ŭ" />
<glyph horiz-adv-x="765" d="M 685 730 L 685 266 C 685 208 671 158 643 116 C 615 74 579 43 533 21 C 487 -1 437 -12 382 -12 C 327 -12 277 -1 231 20 C 185 41 149 72 121 114 C 93 155 80 206 80 266 L 80 730 L 233 730 L 233 264 C 233 221 247 187 275 162 C 303 136 338 124 381 124 C 423 124 459 136 488 161 C 516 185 531 220 531 264 L 531 730 L 685 730 Z M 383 779 C 348 779 319 791 295 815 C 271 839 260 868 260 902 C 260 936 271 964 295 988 C 319 1012 348 1024 383 1024 C 417 1024 446 1012 470 988 C 494 964 506 936 506 902 C 506 868 494 839 470 815 C 446 791 417 779 383 779 Z M 383 855 C 396 855 407 859 416 868 C 424 877 429 888 429 902 C 429 915 424 926 416 935 C 407 944 396 949 383 949 C 370 949 359 944 350 935 C 340 926 336 915 336 902 C 336 888 340 877 350 868 C 359 859 370 855 383 855 Z" unicode="Ů" />
<glyph horiz-adv-x="600" d="M 58 495 L 203 495 L 203 188 C 203 162 211 142 228 129 C 244 116 266 110 293 110 C 322 110 345 117 363 133 C 381 149 390 170 390 197 L 390 495 L 535 495 L 535 0 L 401 0 L 401 79 C 387 53 365 31 337 15 C 308 -1 274 -10 234 -10 C 185 -10 143 4 109 32 C 75 60 58 101 58 153 L 58 495 Z M 298 544 C 263 544 234 556 210 580 C 186 604 175 633 175 667 C 175 701 186 729 210 753 C 234 777 263 789 298 789 C 332 789 361 777 385 753 C 409 729 421 701 421 667 C 421 633 409 604 385 580 C 361 556 332 544 298 544 Z M 298 620 C 311 620 322 624 331 633 C 339 642 344 653 344 667 C 344 680 339 691 331 700 C 322 709 311 714 298 714 C 285 714 274 709 265 700 C 255 691 251 680 251 667 C 251 653 255 642 265 633 C 274 624 285 620 298 620 Z" unicode="ů" />
<glyph horiz-adv-x="765" d="M 685 730 L 685 266 C 685 208 671 158 643 116 C 615 74 579 43 533 21 C 487 -1 437 -12 382 -12 C 327 -12 277 -1 231 20 C 185 41 149 72 121 114 C 93 155 80 206 80 266 L 80 730 L 233 730 L 233 264 C 233 221 247 187 275 162 C 303 136 338 124 381 124 C 423 124 459 136 488 161 C 516 185 531 220 531 264 L 531 730 L 685 730 Z M 150 783 L 246 935 L 399 935 L 277 783 L 150 783 Z M 367 783 L 463 935 L 616 935 L 493 783 L 367 783 Z" unicode="Ű" />
<glyph horiz-adv-x="600" d="M 58 495 L 203 495 L 203 188 C 203 162 211 142 228 129 C 244 116 266 110 293 110 C 322 110 345 117 363 133 C 381 149 390 170 390 197 L 390 495 L 535 495 L 535 0 L 401 0 L 401 79 C 387 53 365 31 337 15 C 308 -1 274 -10 234 -10 C 185 -10 143 4 109 32 C 75 60 58 101 58 153 L 58 495 Z M 65 548 L 161 700 L 314 700 L 192 548 L 65 548 Z M 282 548 L 378 700 L 531 700 L 408 548 L 282 548 Z" unicode="ű" />
<glyph horiz-adv-x="765" d="M 685 730 L 685 266 C 685 208 671 158 643 116 C 615 74 579 43 533 21 C 487 -1 437 -12 382 -12 C 327 -12 277 -1 231 20 C 185 41 149 72 121 114 C 93 155 80 206 80 266 L 80 730 L 233 730 L 233 264 C 233 221 247 187 275 162 C 303 136 338 124 381 124 C 423 124 459 136 488 161 C 516 185 531 220 531 264 L 531 730 L 685 730 Z M 543 -70 L 581 -130 C 537 -176 484 -200 422 -200 C 385 -200 357 -192 337 -177 C 317 -162 307 -143 307 -120 C 307 -95 318 -71 341 -49 C 364 -26 395 -7 435 9 L 495 6 C 474 -4 458 -15 446 -27 C 434 -39 429 -50 429 -62 C 429 -72 433 -80 441 -86 C 449 -92 459 -95 472 -95 C 486 -95 500 -92 512 -87 C 524 -82 534 -76 543 -70 Z" unicode="Ų" />
<glyph horiz-adv-x="600" d="M 58 495 L 203 495 L 203 188 C 203 162 211 142 228 129 C 244 116 266 110 293 110 C 322 110 345 117 363 133 C 381 149 390 170 390 197 L 390 495 L 535 495 L 535 0 L 401 0 L 401 79 C 387 53 365 31 337 15 C 308 -1 274 -10 234 -10 C 185 -10 143 4 109 32 C 75 60 58 101 58 153 L 58 495 Z M 526 -69 L 564 -129 C 520 -175 467 -199 405 -199 C 368 -199 340 -191 320 -176 C 300 -161 290 -142 290 -119 C 290 -94 301 -70 324 -48 C 347 -25 378 -6 418 10 L 478 7 C 457 -3 441 -14 429 -26 C 417 -38 412 -49 412 -61 C 412 -71 416 -79 424 -85 C 432 -91 442 -94 455 -94 C 469 -94 483 -91 495 -86 C 507 -81 517 -75 526 -69 Z" unicode="ų" />
<glyph horiz-adv-x="942" d="M 940 730 L 708 -5 L 628 -5 L 472 470 L 310 -5 L 230 -5 L 2 730 L 160 730 L 293 288 L 439 730 L 519 730 L 666 286 L 795 730 L 940 730 Z M 674 783 L 540 783 L 476 868 L 411 783 L 279 783 L 402 957 L 551 957 L 674 783 Z" unicode="Ŵ" />
<glyph horiz-adv-x="745" d="M 487 -3 L 377 276 L 261 -3 L 180 -3 L 1 495 L 149 495 L 242 208 L 344 469 L 427 469 L 523 209 L 617 495 L 745 495 L 565 -3 L 487 -3 Z M 580 548 L 446 548 L 382 633 L 317 548 L 185 548 L 308 722 L 457 722 L 580 548 Z" unicode="ŵ" />
<glyph horiz-adv-x="672" d="M 693 730 L 419 305 L 419 0 L 262 0 L 262 312 L -5 730 L 171 730 L 348 449 L 527 730 L 693 730 Z M 545 783 L 411 783 L 347 868 L 282 783 L 150 783 L 273 957 L 422 957 L 545 783 Z" unicode="Ŷ" />
<glyph horiz-adv-x="551" d="M 557 495 L 279 -76 C 255 -125 224 -158 188 -175 C 152 -191 117 -200 85 -200 C 65 -200 48 -198 34 -194 C 20 -190 11 -186 5 -184 L 44 -65 C 47 -66 53 -68 62 -71 C 71 -73 80 -75 89 -75 C 106 -75 120 -70 132 -61 C 143 -52 154 -37 166 -15 L 203 54 L -5 495 L 151 495 L 278 206 L 409 495 L 557 495 Z M 476 548 L 342 548 L 278 633 L 213 548 L 81 548 L 204 722 L 353 722 L 476 548 Z" unicode="ŷ" />
<glyph horiz-adv-x="688" d="M 693 730 L 419 305 L 419 0 L 262 0 L 262 312 L -5 730 L 171 730 L 348 449 L 527 730 L 693 730 Z M 509 783 L 387 783 L 387 945 L 509 945 L 509 783 Z M 307 783 L 185 783 L 185 945 L 307 945 L 307 783 Z" unicode="Ÿ" />
<glyph horiz-adv-x="599" d="M 575 730 L 575 670 L 225 131 L 585 131 L 585 0 L 16 0 L 16 57 L 360 598 L 34 598 L 34 730 L 575 730 Z M 166 785 L 268 945 L 441 945 L 312 785 L 166 785 Z" unicode="Ź" />
<glyph horiz-adv-x="459" d="M 439 495 L 439 429 L 218 121 L 449 121 L 449 0 L 12 0 L 12 55 L 240 373 L 21 373 L 21 495 L 439 495 Z M 97 550 L 199 710 L 372 710 L 243 550 L 97 550 Z" unicode="ź" />
<glyph horiz-adv-x="599" d="M 575 730 L 575 670 L 225 131 L 585 131 L 585 0 L 16 0 L 16 57 L 360 598 L 34 598 L 34 730 L 575 730 Z M 369 783 L 238 783 L 238 948 L 369 948 L 369 783 Z" unicode="Ż" />
<glyph horiz-adv-x="459" d="M 439 495 L 439 429 L 218 121 L 449 121 L 449 0 L 12 0 L 12 55 L 240 373 L 21 373 L 21 495 L 439 495 Z M 300 548 L 169 548 L 169 713 L 300 713 L 300 548 Z" unicode="ż" />
<glyph horiz-adv-x="612" d="M 575 730 L 575 670 L 225 131 L 585 131 L 585 0 L 16 0 L 16 57 L 360 598 L 34 598 L 34 730 L 575 730 Z M 106 957 L 240 957 L 304 872 L 369 957 L 501 957 L 378 783 L 229 783 L 106 957 Z" unicode="Ž" />
<glyph horiz-adv-x="459" d="M 439 495 L 439 429 L 218 121 L 449 121 L 449 0 L 12 0 L 12 55 L 240 373 L 21 373 L 21 495 L 439 495 Z M 39 722 L 173 722 L 237 637 L 302 722 L 434 722 L 311 548 L 162 548 L 39 722 Z" unicode="ž" />
<glyph horiz-adv-x="390" d="M 29 429 L 356 429 L 356 316 L 29 316 L 29 429 Z M 93 8 L 147 614 C 151 658 168 690 199 712 C 230 734 261 745 292 745 C 308 745 324 744 341 743 C 358 742 368 741 372 741 L 362 618 C 356 620 346 621 332 621 C 313 621 298 614 287 602 C 275 589 269 569 267 543 L 217 -45 C 213 -77 200 -107 176 -136 C 152 -164 120 -179 80 -179 C 56 -179 34 -177 14 -173 C -6 -169 -22 -164 -33 -158 L -19 -55 C -14 -56 -7 -58 2 -60 C 11 -62 20 -63 29 -63 C 47 -63 62 -57 73 -45 C 84 -33 91 -15 93 8 Z" unicode="ƒ" />
<glyph horiz-adv-x="572" d="M 293 -12 C 233 -12 180 -4 135 12 C 89 28 52 50 22 78 L 109 195 C 127 175 152 157 185 141 C 217 125 253 117 291 117 C 318 117 341 123 359 136 C 377 149 386 167 386 190 C 386 213 376 233 356 249 C 336 265 307 281 267 297 C 223 315 184 334 152 354 C 119 374 93 399 75 429 C 57 459 48 497 48 544 C 48 602 69 650 113 687 C 157 723 214 742 286 742 C 336 742 379 734 416 720 C 452 706 484 688 511 668 L 438 550 C 416 566 392 580 367 592 C 342 603 316 609 289 609 C 261 609 239 602 223 590 C 207 578 200 562 200 544 C 200 520 210 501 231 486 C 252 471 289 452 343 430 C 409 402 458 372 490 339 C 522 305 539 259 539 200 C 539 131 514 78 464 42 C 414 6 357 -12 293 -12 Z M 391 -65 C 389 -104 381 -144 367 -185 C 353 -225 338 -261 320 -292 C 302 -322 285 -343 270 -353 L 161 -304 C 171 -292 181 -274 193 -248 C 205 -222 215 -193 224 -161 C 233 -128 239 -96 242 -65 L 391 -65 Z" unicode="Ș" />
<glyph horiz-adv-x="473" d="M 254 -12 C 206 -12 162 -6 124 5 C 85 16 52 31 26 51 L 90 147 C 112 132 138 120 168 112 C 198 103 226 99 251 99 C 269 99 283 102 293 110 C 303 118 309 128 309 140 C 309 152 300 163 284 171 C 268 179 242 189 207 199 C 173 207 144 218 120 232 C 95 246 76 263 63 284 C 49 304 43 329 43 359 C 43 402 61 437 98 465 C 135 493 183 507 241 507 C 287 507 328 500 363 488 C 397 476 422 464 438 452 L 385 351 C 364 363 342 374 319 384 C 296 393 272 398 247 398 C 229 398 214 395 201 389 C 188 383 182 375 182 363 C 182 351 187 342 199 336 C 211 329 238 319 281 307 C 331 293 372 274 402 252 C 432 229 447 195 447 150 C 447 116 438 88 422 64 C 405 40 382 21 353 8 C 324 -5 291 -12 254 -12 Z M 348 -62 C 346 -101 338 -141 324 -182 C 310 -222 295 -258 277 -289 C 259 -319 242 -340 227 -350 L 118 -301 C 128 -289 138 -271 150 -245 C 162 -219 172 -190 181 -158 C 190 -125 196 -93 199 -62 L 348 -62 Z" unicode="ș" />
<glyph horiz-adv-x="579" d="M 569 597 L 365 597 L 365 0 L 208 0 L 208 597 L 10 597 L 10 730 L 569 730 L 569 597 Z M 378 -62 C 376 -101 368 -141 354 -182 C 340 -222 325 -258 307 -289 C 289 -319 272 -340 257 -350 L 148 -301 C 158 -289 168 -271 180 -245 C 192 -219 202 -190 211 -158 C 220 -125 226 -93 229 -62 L 378 -62 Z" unicode="Ț" />
<glyph horiz-adv-x="350" d="M 331 128 L 342 8 C 334 3 321 0 305 -2 C 289 -4 272 -6 255 -6 C 223 -6 192 0 164 11 C 136 22 113 40 95 66 C 77 91 69 124 69 165 L 69 375 L 7 375 L 7 495 L 69 495 L 69 617 L 214 634 L 214 495 L 325 495 L 325 375 L 214 375 L 214 188 C 214 163 219 145 230 135 C 241 124 258 119 282 119 C 291 119 301 120 311 122 C 321 124 327 126 331 128 Z M 288 -62 C 286 -101 278 -141 264 -182 C 250 -222 235 -258 217 -289 C 199 -319 182 -340 167 -350 L 58 -301 C 68 -289 78 -271 90 -245 C 102 -219 112 -190 121 -158 C 130 -125 136 -93 139 -62 L 288 -62 Z" unicode="ț" />
<glyph horiz-adv-x="288" d="M 228 495 L 228 -26 C 228 -60 221 -90 207 -117 C 193 -143 173 -164 147 -179 C 121 -194 89 -202 52 -202 C 34 -202 14 -200 -9 -197 C -33 -193 -53 -189 -69 -183 L -54 -72 C -46 -76 -36 -79 -23 -81 C -10 -83 3 -85 17 -85 C 38 -85 54 -77 65 -62 C 76 -46 82 -27 82 -4 L 82 495 L 228 495 Z" unicode="ȷ" />
<glyph horiz-adv-x="500" d="M 448 548 L 314 548 L 250 633 L 185 548 L 53 548 L 176 722 L 325 722 L 448 548 Z" unicode="ˆ" />
<glyph horiz-adv-x="500" d="M 53 722 L 187 722 L 251 637 L 316 722 L 448 722 L 325 548 L 176 548 L 53 722 Z" unicode="ˇ" />
<glyph horiz-adv-x="500" d="M 306 710 L 426 710 C 421 654 402 613 370 587 C 338 561 298 548 250 548 C 202 548 161 561 129 587 C 97 613 78 654 74 710 L 194 710 C 196 684 201 664 209 651 C 217 638 231 632 250 632 C 268 632 282 638 291 650 C 299 662 304 682 306 710 Z" unicode="˘" />
<glyph horiz-adv-x="500" d="M 316 548 L 185 548 L 185 713 L 316 713 L 316 548 Z" unicode="˙" />
<glyph horiz-adv-x="506" d="M 253 544 C 218 544 189 556 165 580 C 141 604 130 633 130 667 C 130 701 141 729 165 753 C 189 777 218 789 253 789 C 287 789 316 777 340 753 C 364 729 376 701 376 667 C 376 633 364 604 340 580 C 316 556 287 544 253 544 Z M 253 620 C 266 620 277 624 286 633 C 294 642 299 653 299 667 C 299 680 294 691 286 700 C 277 709 266 714 253 714 C 240 714 229 709 220 700 C 210 691 206 680 206 667 C 206 653 210 642 220 633 C 229 624 240 620 253 620 Z" unicode="˚" />
<glyph horiz-adv-x="500" d="M 361 -65 L 399 -125 C 355 -171 302 -195 240 -195 C 203 -195 175 -187 155 -172 C 135 -157 125 -138 125 -115 C 125 -90 136 -66 159 -44 C 182 -21 213 -2 253 14 L 313 11 C 292 1 276 -10 264 -22 C 252 -34 247 -45 247 -57 C 247 -67 251 -75 259 -81 C 267 -87 277 -90 290 -90 C 304 -90 318 -87 330 -82 C 342 -77 352 -71 361 -65 Z" unicode="˛" />
<glyph horiz-adv-x="500" d="M 328 706 L 442 706 C 442 652 433 613 416 588 C 398 562 376 550 348 550 C 329 550 312 552 298 558 C 284 564 272 570 262 577 C 252 582 243 587 235 593 C 227 598 218 601 210 601 C 202 601 195 596 191 588 C 186 580 183 568 183 554 L 71 554 C 71 606 82 644 105 670 C 127 696 151 709 175 709 C 193 709 209 706 221 700 C 233 694 245 688 255 682 C 263 676 271 670 278 666 C 285 661 292 659 299 659 C 305 659 312 663 318 671 C 324 679 327 690 328 706 Z" unicode="˜" />
<glyph horiz-adv-x="500" d="M 36 548 L 132 700 L 285 700 L 163 548 L 36 548 Z M 253 548 L 349 700 L 502 700 L 379 548 L 253 548 Z" unicode="˝" />
<glyph horiz-adv-x="0" d="M 139 548 L -8 548 L -138 707 L 35 707 L 139 548 Z" unicode="̀" />
<glyph horiz-adv-x="0" d="M -137 550 L -35 710 L 138 710 L 9 550 L -137 550 Z" unicode="́" />
<glyph horiz-adv-x="0" d="M 198 548 L 64 548 L 0 633 L -65 548 L -197 548 L -74 722 L 75 722 L 198 548 Z" unicode="̂" />
<glyph horiz-adv-x="0" d="M 73 706 L 187 706 C 187 652 178 613 161 588 C 143 562 121 550 93 550 C 74 550 57 552 43 558 C 29 564 17 570 7 577 C -2 582 -11 587 -19 593 C -27 598 -36 601 -45 601 C -53 601 -59 596 -64 588 C -68 580 -71 568 -72 554 L -184 554 C -184 606 -172 644 -150 670 C -127 696 -104 709 -80 709 C -61 709 -45 706 -33 700 C -21 694 -10 688 0 682 C 8 676 16 670 23 666 C 30 661 37 659 44 659 C 50 659 57 663 63 671 C 69 679 72 690 73 706 Z" unicode="̃" />
<glyph horiz-adv-x="0" d="M 145 557 L -145 557 L -145 666 L 145 666 L 145 557 Z" unicode="̄" />
<glyph horiz-adv-x="0" d="M 56 710 L 176 710 C 171 654 152 613 120 587 C 88 561 48 548 0 548 C -48 548 -88 561 -120 587 C -152 613 -171 654 -176 710 L -56 710 C -54 684 -48 664 -40 651 C -32 638 -18 632 0 632 C 18 632 32 638 41 650 C 49 662 54 682 56 710 Z" unicode="̆" />
<glyph horiz-adv-x="0" d="M 66 548 L -65 548 L -65 713 L 66 713 L 66 548 Z" unicode="̇" />
<glyph horiz-adv-x="0" d="M 162 548 L 40 548 L 40 710 L 162 710 L 162 548 Z M -40 548 L -162 548 L -162 710 L -40 710 L -40 548 Z" unicode="̈" />
<glyph horiz-adv-x="0" d="M 0 544 C -34 544 -63 556 -87 580 C -111 604 -123 633 -123 667 C -123 701 -111 729 -87 753 C -63 777 -34 789 0 789 C 34 789 63 777 87 753 C 111 729 123 701 123 667 C 123 633 111 604 87 580 C 63 556 34 544 0 544 Z M 0 620 C 13 620 24 624 33 633 C 41 642 46 653 46 667 C 46 680 41 691 33 700 C 24 709 13 714 0 714 C -12 714 -23 709 -33 700 C -42 691 -47 680 -47 667 C -47 653 -42 642 -33 633 C -23 624 -12 620 0 620 Z" unicode="̊" />
<glyph horiz-adv-x="0" d="M -233 548 L -137 700 L 16 700 L -106 548 L -233 548 Z M -16 548 L 80 700 L 233 700 L 110 548 L -16 548 Z" unicode="̋" />
<glyph horiz-adv-x="0" d="M -197 722 L -63 722 L 1 637 L 66 722 L 198 722 L 75 548 L -74 548 L -197 722 Z" unicode="̌" />
<glyph horiz-adv-x="500" d="M 94 495 C 96 534 103 574 117 615 C 131 655 147 691 165 722 C 183 752 199 773 215 783 L 324 734 C 314 722 303 704 291 678 C 279 652 269 623 260 591 C 251 558 245 526 243 495 L 94 495 Z" unicode="̦" />
<glyph horiz-adv-x="0" d="M 9 -194 C -17 -194 -44 -191 -72 -185 C -100 -179 -121 -171 -135 -162 L -119 -99 C -110 -103 -98 -107 -84 -111 C -70 -115 -55 -117 -40 -117 C -30 -117 -22 -115 -14 -111 C -6 -107 -3 -101 -3 -94 C -3 -86 -6 -80 -13 -77 C -19 -73 -26 -72 -34 -72 C -43 -72 -53 -73 -63 -76 L -81 -56 L -20 14 L 68 14 L 21 -42 C 55 -38 82 -42 103 -56 C 124 -70 135 -89 135 -115 C 135 -141 122 -161 96 -174 C 70 -187 41 -194 9 -194 Z" unicode="̧" />
<glyph horiz-adv-x="0" d="M 99 -65 L 137 -125 C 93 -171 40 -195 -22 -195 C -58 -195 -87 -187 -107 -172 C -127 -157 -137 -138 -137 -115 C -137 -90 -125 -66 -102 -44 C -79 -21 -48 -2 -9 14 L 51 11 C 30 1 14 -10 2 -22 C -9 -34 -15 -45 -15 -57 C -15 -67 -11 -75 -3 -81 C 5 -87 15 -90 28 -90 C 42 -90 56 -87 68 -82 C 80 -77 90 -71 99 -65 Z" unicode="̨" />
<glyph horiz-adv-x="610" d="M 212 376 L 212 0 L 67 0 L 67 376 L 22 376 L 22 495 L 585 495 L 585 376 L 541 376 L 541 0 L 397 0 L 397 376 L 212 376 Z" unicode="π" />
<glyph horiz-adv-x="942" d="M 940 730 L 708 -5 L 628 -5 L 472 470 L 310 -5 L 230 -5 L 2 730 L 160 730 L 293 288 L 439 730 L 519 730 L 666 286 L 795 730 L 940 730 Z M 615 783 L 468 783 L 338 942 L 511 942 L 615 783 Z" unicode="Ẁ" />
<glyph horiz-adv-x="745" d="M 487 -3 L 377 276 L 261 -3 L 180 -3 L 1 495 L 149 495 L 242 208 L 344 469 L 427 469 L 523 209 L 617 495 L 745 495 L 565 -3 L 487 -3 Z M 521 548 L 374 548 L 244 707 L 417 707 L 521 548 Z" unicode="ẁ" />
<glyph horiz-adv-x="942" d="M 940 730 L 708 -5 L 628 -5 L 472 470 L 310 -5 L 230 -5 L 2 730 L 160 730 L 293 288 L 439 730 L 519 730 L 666 286 L 795 730 L 940 730 Z M 339 785 L 441 945 L 614 945 L 485 785 L 339 785 Z" unicode="Ẃ" />
<glyph horiz-adv-x="745" d="M 487 -3 L 377 276 L 261 -3 L 180 -3 L 1 495 L 149 495 L 242 208 L 344 469 L 427 469 L 523 209 L 617 495 L 745 495 L 565 -3 L 487 -3 Z M 245 550 L 347 710 L 520 710 L 391 550 L 245 550 Z" unicode="ẃ" />
<glyph horiz-adv-x="942" d="M 940 730 L 708 -5 L 628 -5 L 472 470 L 310 -5 L 230 -5 L 2 730 L 160 730 L 293 288 L 439 730 L 519 730 L 666 286 L 795 730 L 940 730 Z M 638 783 L 516 783 L 516 945 L 638 945 L 638 783 Z M 436 783 L 314 783 L 314 945 L 436 945 L 436 783 Z" unicode="Ẅ" />
<glyph horiz-adv-x="745" d="M 487 -3 L 377 276 L 261 -3 L 180 -3 L 1 495 L 149 495 L 242 208 L 344 469 L 427 469 L 523 209 L 617 495 L 745 495 L 565 -3 L 487 -3 Z M 544 548 L 422 548 L 422 710 L 544 710 L 544 548 Z M 342 548 L 220 548 L 220 710 L 342 710 L 342 548 Z" unicode="ẅ" />
<glyph horiz-adv-x="672" d="M 693 730 L 419 305 L 419 0 L 262 0 L 262 312 L -5 730 L 171 730 L 348 449 L 527 730 L 693 730 Z M 486 783 L 339 783 L 209 942 L 382 942 L 486 783 Z" unicode="Ỳ" />
<glyph horiz-adv-x="551" d="M 557 495 L 279 -76 C 255 -125 224 -158 188 -175 C 152 -191 117 -200 85 -200 C 65 -200 48 -198 34 -194 C 20 -190 11 -186 5 -184 L 44 -65 C 47 -66 53 -68 62 -71 C 71 -73 80 -75 89 -75 C 106 -75 120 -70 132 -61 C 143 -52 154 -37 166 -15 L 203 54 L -5 495 L 151 495 L 278 206 L 409 495 L 557 495 Z M 417 548 L 270 548 L 140 707 L 313 707 L 417 548 Z" unicode="ỳ" />
<glyph horiz-adv-x="460" d="M 423 207 L 38 207 L 38 332 L 423 332 L 423 207 Z" unicode="–" />
<glyph horiz-adv-x="645" d="M 608 207 L 38 207 L 38 332 L 608 332 L 608 207 Z" unicode="—" />
<glyph horiz-adv-x="320" d="M 31 507 L 31 514 C 31 551 42 589 66 629 C 89 669 120 705 160 737 L 307 731 C 294 723 278 708 259 686 C 239 664 222 639 207 609 C 192 579 185 547 185 515 L 185 507 L 31 507 Z" unicode="‘" />
<glyph horiz-adv-x="320" d="M 289 737 L 289 730 C 289 692 277 654 253 616 C 229 577 198 541 160 507 L 13 513 C 32 529 57 557 88 596 C 119 635 135 679 135 729 L 135 737 L 289 737 Z" unicode="’" />
<glyph horiz-adv-x="320" d="M 289 119 L 289 112 C 289 75 277 37 253 -1 C 229 -40 198 -77 160 -111 L 13 -105 C 32 -88 57 -60 88 -21 C 119 17 135 61 135 111 L 135 119 L 289 119 Z" unicode="‚" />
<glyph horiz-adv-x="517" d="M 249 507 L 249 514 C 249 551 260 588 282 626 C 304 663 335 700 375 737 L 504 731 C 490 719 474 703 456 682 C 437 660 420 635 405 607 C 390 578 383 547 383 515 L 383 507 L 249 507 Z M 31 507 L 31 514 C 31 551 42 588 66 626 C 89 663 119 700 157 737 L 286 731 C 274 720 258 704 239 683 C 220 661 203 636 188 607 C 172 578 165 547 165 515 L 165 507 L 31 507 Z" unicode="“" />
<glyph horiz-adv-x="517" d="M 268 737 L 268 730 C 268 692 257 655 236 618 C 215 580 184 543 142 507 L 13 513 C 35 532 61 560 90 598 C 119 636 134 679 134 729 L 134 737 L 268 737 Z M 486 737 L 486 730 C 486 692 475 655 453 617 C 431 579 400 542 360 507 L 231 513 C 254 532 280 560 309 598 C 337 636 352 679 352 729 L 352 737 L 486 737 Z" unicode="”" />
<glyph horiz-adv-x="517" d="M 268 126 L 268 119 C 268 81 257 44 236 7 C 215 -30 184 -67 142 -104 L 13 -98 C 35 -78 61 -50 90 -12 C 119 25 134 68 134 118 L 134 126 L 268 126 Z M 486 126 L 486 119 C 486 81 475 44 453 6 C 431 -32 400 -68 360 -104 L 231 -98 C 254 -78 280 -50 309 -12 C 337 25 352 68 352 118 L 352 126 L 486 126 Z" unicode="„" />
<glyph horiz-adv-x="565" d="M 540 349 L 355 349 L 355 -179 L 204 -179 L 204 349 L 25 349 L 25 470 L 204 470 L 204 730 L 355 730 L 355 470 L 540 470 L 540 349 Z" unicode="†" />
<glyph horiz-adv-x="565" d="M 205 -179 L 205 80 L 32 80 L 32 202 L 205 202 L 205 365 L 32 365 L 32 487 L 205 487 L 205 730 L 355 730 L 355 487 L 533 487 L 533 365 L 355 365 L 355 202 L 533 202 L 533 80 L 355 80 L 355 -179 L 205 -179 Z" unicode="‡" />
<glyph horiz-adv-x="382" d="M 191 509 C 227 509 258 496 283 471 C 308 446 321 415 321 379 C 321 342 308 311 283 287 C 258 262 227 250 191 250 C 154 250 123 262 98 287 C 73 311 61 342 61 379 C 61 415 73 446 98 471 C 123 496 154 509 191 509 Z" unicode="•" />
<glyph horiz-adv-x="784" d="M 58 0 L 58 155 L 204 155 L 204 0 L 58 0 Z M 319 0 L 319 155 L 465 155 L 465 0 L 319 0 Z M 580 0 L 580 155 L 726 155 L 726 0 L 580 0 Z" unicode="…" />
<glyph horiz-adv-x="1265" d="M 655 99 C 674 99 689 107 700 123 C 710 139 716 161 716 191 C 716 221 710 244 700 260 C 690 276 675 285 656 285 C 638 285 624 276 614 260 C 604 244 599 221 599 191 C 599 160 604 137 614 122 C 624 106 638 99 655 99 Z M 656 -3 C 610 -3 569 14 532 48 C 495 82 477 130 477 191 C 477 244 494 290 528 329 C 562 367 605 387 655 387 C 707 387 749 367 783 329 C 817 291 834 246 834 194 C 834 139 817 92 783 54 C 749 16 706 -3 656 -3 Z M 159 544 C 159 514 164 491 174 475 C 184 459 198 451 216 451 C 236 451 250 459 260 475 C 270 491 275 514 275 544 C 275 572 270 594 261 611 C 252 628 237 637 217 637 C 197 637 183 628 173 611 C 163 594 159 572 159 544 Z M 151 0 L 615 730 L 710 730 L 246 0 L 151 0 Z M 218 349 C 173 349 132 366 94 401 C 56 435 37 483 37 543 C 37 596 54 642 90 681 C 125 719 166 739 214 739 C 266 739 309 719 343 681 C 377 643 394 598 394 546 C 394 492 376 445 342 407 C 308 368 266 349 218 349 Z M 1050 99 C 1069 99 1084 107 1094 123 C 1104 139 1110 161 1110 191 C 1110 221 1105 244 1095 260 C 1085 276 1071 285 1051 285 C 1033 285 1018 276 1008 260 C 998 244 993 221 993 191 C 993 160 998 137 1009 122 C 1019 106 1033 99 1050 99 Z M 1050 -3 C 1005 -3 964 14 927 48 C 889 82 871 130 871 191 C 871 244 888 290 923 329 C 957 367 1000 387 1050 387 C 1102 387 1144 367 1178 329 C 1212 291 1229 246 1229 194 C 1229 139 1212 92 1178 54 C 1144 16 1101 -3 1050 -3 Z" unicode="‰" />
<glyph horiz-adv-x="259" d="M 232 70 L 25 243 L 25 332 L 232 503 L 232 360 L 149 285 L 232 216 L 232 70 Z" unicode="‹" />
<glyph horiz-adv-x="261" d="M 27 504 L 236 330 L 236 242 L 27 71 L 27 214 L 109 289 L 27 357 L 27 504 Z" unicode="›" />
<glyph horiz-adv-x="145" d="M 311 730 L -33 0 L -145 0 L 199 730 L 311 730 Z" unicode="⁄" />
<glyph horiz-adv-x="563" d="M 498 243 L 28 243 L 28 331 L 498 331 L 498 243 Z M 450 180 L 561 112 C 541 74 511 44 470 22 C 428 0 383 -12 334 -12 C 280 -12 233 3 195 34 C 156 64 126 107 106 163 C 85 218 75 283 75 359 C 75 431 84 496 102 554 C 120 612 148 657 186 691 C 224 725 273 742 333 742 C 398 742 448 729 483 705 C 518 680 543 653 557 623 L 441 563 C 430 581 416 596 400 608 C 383 620 361 626 333 626 C 292 626 261 606 241 566 C 221 526 211 458 211 363 C 211 302 216 253 227 215 C 237 177 252 149 271 131 C 290 113 312 104 337 104 C 364 104 387 111 407 127 C 426 142 440 160 450 180 Z M 498 384 L 28 384 L 28 472 L 498 472 L 498 384 Z" unicode="€" />
<glyph horiz-adv-x="977" d="M 933 298 L 802 298 L 802 520 L 678 351 L 663 351 L 541 518 L 541 298 L 415 298 L 415 730 L 516 730 L 671 523 L 825 730 L 933 730 L 933 298 Z M 386 586 L 273 586 L 273 298 L 126 298 L 126 586 L 11 586 L 11 730 L 386 730 L 386 586 Z" unicode="™" />
<glyph horiz-adv-x="788" d="M 37 0 L 37 133 L 236 133 L 236 177 C 177 195 128 228 88 277 C 48 325 28 384 28 452 C 28 533 59 603 123 661 C 187 719 276 749 390 749 C 506 749 597 719 662 661 C 727 603 760 533 760 453 C 760 383 742 324 708 277 C 674 230 621 197 551 177 L 551 133 L 750 133 L 750 0 L 440 0 L 440 252 C 491 266 530 291 558 325 C 586 359 600 398 600 443 C 600 497 579 540 539 574 C 498 608 449 625 391 625 C 335 625 287 608 247 574 C 207 540 188 495 188 441 C 188 398 201 360 228 327 C 254 294 294 269 348 252 L 348 0 L 37 0 Z" unicode="Ω" />
<glyph horiz-adv-x="600" d="M 293 98 C 329 98 358 110 379 135 C 400 159 411 197 411 247 C 411 286 401 317 381 341 C 361 364 333 376 296 376 C 262 376 234 364 213 341 C 192 318 182 283 182 236 C 182 188 192 153 213 131 C 233 109 260 98 293 98 Z M 560 299 C 560 221 547 160 522 115 C 497 69 464 37 424 18 C 383 -1 339 -11 291 -11 C 249 -11 208 -1 168 16 C 128 34 95 61 69 97 C 43 133 30 177 30 230 C 30 276 41 318 63 356 C 85 394 115 424 152 446 C 188 468 229 479 274 479 C 308 479 338 472 364 458 C 390 444 410 427 424 406 C 414 474 395 530 367 574 C 338 618 303 651 263 673 C 223 695 180 708 136 710 L 206 802 C 242 802 281 792 322 774 C 363 755 402 725 438 685 C 474 645 503 593 526 529 C 548 465 560 389 560 299 Z" unicode="∂" />
<glyph horiz-adv-x="645" d="M 651 0 L -2 0 L 300 731 L 351 731 L 651 0 Z M 456 114 L 320 464 L 185 114 L 456 114 Z" unicode="∆" />
<glyph horiz-adv-x="700" d="M 261 601 L 261 0 L 111 0 L 111 601 L 15 601 L 15 730 L 685 730 L 685 601 L 597 601 L 597 0 L 447 0 L 447 601 L 261 601 Z" unicode="∏" />
<glyph horiz-adv-x="618" d="M 244 599 L 458 307 L 210 -48 L 569 -48 L 569 -179 L -33 -179 L 308 306 L -4 730 L 548 730 L 548 599 L 244 599 Z" unicode="∑" />
<glyph horiz-adv-x="523" d="M 485 273 L 38 273 L 38 390 L 485 390 L 485 273 Z" unicode="−" />
<glyph horiz-adv-x="510" d="M 513 730 L 198 0 L 186 0 L 9 337 L 109 417 L 210 206 L 424 730 L 513 730 Z" unicode="√" />
<glyph horiz-adv-x="360" d="M 96 8 L 150 614 C 154 658 171 690 201 712 C 231 734 261 745 292 745 C 308 745 324 744 341 743 C 358 742 368 741 372 741 L 362 618 C 356 620 346 621 332 621 C 313 621 298 614 287 602 C 275 589 269 569 267 543 L 217 -45 C 213 -77 200 -107 176 -136 C 152 -165 120 -179 80 -179 C 56 -179 33 -176 13 -172 C -6 -168 -22 -162 -33 -156 L -19 -54 C -14 -55 -7 -57 2 -59 C 11 -61 20 -63 29 -63 C 47 -63 62 -57 74 -45 C 86 -33 93 -15 96 8 Z" unicode="∫" />
<glyph horiz-adv-x="500" d="M 357 517 L 465 517 C 462 469 452 427 434 393 C 416 358 387 341 349 341 C 325 341 304 344 287 351 C 269 358 255 366 244 375 C 233 383 222 390 211 397 C 199 403 188 407 177 407 C 165 407 154 400 146 387 C 138 373 134 359 134 343 L 30 343 C 30 395 39 437 59 469 C 78 501 107 518 147 518 C 171 518 191 513 209 503 C 227 493 242 484 254 476 C 265 468 276 462 287 456 C 298 450 308 448 318 448 C 333 448 343 454 349 467 C 354 480 357 497 357 517 Z M 357 324 L 465 324 C 462 276 452 234 434 200 C 416 165 387 148 349 148 C 325 148 304 151 287 159 C 269 166 255 174 244 183 C 233 191 222 198 211 204 C 199 210 188 214 177 214 C 165 214 154 207 146 194 C 138 181 134 166 134 150 L 30 150 C 30 202 39 245 59 277 C 78 309 107 325 147 325 C 171 325 191 320 209 310 C 227 300 242 292 254 284 C 265 276 276 269 287 263 C 298 257 308 255 318 255 C 333 255 343 261 349 274 C 354 287 357 304 357 324 Z" unicode="≈" />
<glyph horiz-adv-x="500" d="M 457 377 L 65 377 L 65 499 L 457 499 L 457 377 Z M 457 153 L 65 153 L 65 276 L 457 276 L 457 153 Z M 104 81 L 344 620 L 422 585 L 182 47 L 104 81 Z" unicode="≠" />
<glyph horiz-adv-x="500" d="M 62 279 L 62 368 L 433 572 L 433 447 L 204 327 L 433 203 L 433 79 L 62 279 Z M 61 106 L 433 106 L 433 9 L 61 9 L 61 106 Z" unicode="≤" />
<glyph horiz-adv-x="500" d="M 432 279 L 61 79 L 61 203 L 290 327 L 61 447 L 61 572 L 432 368 L 432 279 Z M 433 106 L 433 9 L 61 9 L 61 106 L 433 106 Z" unicode="≥" />
<glyph horiz-adv-x="555" d="M 528 326 L 283 -35 L 272 -35 L 27 326 L 27 337 L 272 697 L 283 697 L 528 337 L 528 326 Z M 395 327 L 395 336 L 282 507 L 274 507 L 160 336 L 160 327 L 274 155 L 282 155 L 395 327 Z" unicode="◊" />
<glyph horiz-adv-x="730" d="M 448 651 L 282 651 L 282 730 L 448 730 L 448 651 Z M 659 282 L 578 282 L 578 448 L 659 448 L 659 282 Z M 455 275 L 275 275 L 275 455 L 455 455 L 455 275 Z M 152 282 L 71 282 L 71 448 L 152 448 L 152 282 Z M 448 0 L 282 0 L 282 80 L 448 80 L 448 0 Z" unicode="" />
<glyph horiz-adv-x="627" d="M 367 382 L 243 382 L 243 0 L 99 0 L 99 382 L 9 382 L 9 495 L 99 495 L 99 547 C 99 626 120 683 163 717 C 205 751 253 769 306 769 C 320 769 337 767 357 764 C 376 761 390 758 399 755 L 381 637 C 375 639 368 641 358 643 C 348 645 338 646 327 646 C 306 646 287 638 269 624 C 251 610 242 588 242 559 L 242 495 L 367 495 L 367 382 Z M 564 0 L 420 0 L 420 495 L 564 495 L 564 0 Z" unicode="ﬁ" />
<glyph horiz-adv-x="660" d="M 367 382 L 243 382 L 243 0 L 99 0 L 99 382 L 9 382 L 9 495 L 99 495 L 99 544 C 99 623 119 680 161 715 C 203 750 251 768 306 768 C 320 768 337 766 356 763 C 375 760 389 757 399 753 L 381 635 C 375 637 368 639 358 641 C 348 643 338 645 328 645 C 306 645 287 637 269 622 C 251 607 242 585 242 556 L 242 495 L 367 495 L 367 382 Z M 410 139 L 410 763 L 546 763 L 546 172 C 546 150 551 134 563 124 C 575 114 590 110 609 110 C 617 110 625 110 633 111 C 641 111 647 112 651 114 L 652 -1 C 648 -2 639 -3 627 -4 C 614 -5 601 -6 587 -6 C 559 -6 532 -1 505 7 C 477 15 455 30 437 52 C 419 73 410 102 410 139 Z" unicode="ﬂ" />
</font>
</defs>
</svg>
