<?xml version="1.0" standalone="no"?>
<!DOCTYPE svg PUBLIC "-//W3C//DTD SVG 1.1//EN" "http://www.w3.org/Graphics/SVG/1.1/DTD/svg11.dtd" >
<svg xmlns="http://www.w3.org/2000/svg" xmlns:xlink="http://www.w3.org/1999/xlink" version="1.1">
<metadata>
Created by FontForge 20170731 at Mon Oct 15 11:53:46 2018
 By Aleksey,,,
(c) Copyright The Font Bureau, Inc., 2015. All rights reserved.
</metadata>
<defs>
<font id="MomentumSans-TextMedium" horiz-adv-x="500" >
  <font-face 
    font-family="MomentumSans Text Medium"
    font-weight="500"
    font-stretch="normal"
    units-per-em="1000"
    panose-1="0 0 0 0 0 0 0 2 0 0"
    ascent="800"
    descent="-200"
    x-height="484"
    cap-height="730"
    bbox="-188 -338 1132 1020"
    underline-thickness="50"
    underline-position="-150"
    unicode-range="U+0020-FB02"
  />
<missing-glyph 
d="M50 -200h400v1000h-400v-1000zM100 -150v900h300v-900h-300z" />
    <glyph glyph-name=".notdef" 
d="M50 -200h400v1000h-400v-1000zM100 -150v900h300v-900h-300z" />
    <glyph glyph-name=".null" horiz-adv-x="0" 
 />
    <glyph glyph-name="nonmarkingreturn" horiz-adv-x="333" 
 />
    <glyph glyph-name="space" unicode=" " horiz-adv-x="240" 
 />
    <glyph glyph-name="exclam" unicode="!" horiz-adv-x="284" 
d="M198 435l-30 -227h-48l-29 227v295h107v-295zM194 0h-99v107h99v-107z" />
    <glyph glyph-name="quotedbl" unicode="&#x22;" horiz-adv-x="418" 
d="M349 616l-6 -140h-75l-4 139v115h85v-114zM154 615l-4 -139h-76l-5 139v115h85v-115z" />
    <glyph glyph-name="numbersign" unicode="#" horiz-adv-x="636" 
d="M602 431h-546v75h546v-75zM151 1l64 729l57 -1l-64 -729zM34 295h546v-75h-546v75zM490 729l-64 -729l-57 1l64 729z" />
    <glyph glyph-name="dollar" unicode="$" horiz-adv-x="535" 
d="M268 1q-78 0 -140.5 24.5t-97.5 59.5l41 74q34 -34 92.5 -57.5t111.5 -23.5q59 0 96.5 30t37.5 79q0 29 -12 52t-48 46.5t-107 52.5q-108 46 -153 94t-45 122q0 77 60 126.5t153 49.5q67 0 122 -19t95 -57l-49 -66q-33 32 -78 48.5t-90 16.5q-55 0 -90 -26.5t-35 -72.5
q-1 -46 33.5 -74.5t132.5 -72.5q69 -31 113 -61t64.5 -67t20.5 -91q0 -84 -66 -135.5t-162 -51.5zM295 696h-61v93h61v-93zM234 -120v160h61v-160h-61z" />
    <glyph glyph-name="percent" unicode="%" horiz-adv-x="817" 
d="M131 0h79l466 730h-79zM205 426q41 0 63 33.5t22 87.5t-20 88t-63 34q-39 0 -61 -34t-22 -88q0 -58 24 -89.5t57 -31.5zM207 356q-62 0 -113.5 49.5t-51.5 141.5q0 79 47.5 136t116.5 57q73 0 118.5 -56t45.5 -134q0 -81 -46.5 -137.5t-116.5 -56.5zM611 68q40 0 62.5 33
t22.5 88q0 54 -21 88t-62 34q-38 0 -60 -33.5t-22 -88.5q0 -59 23.5 -90t56.5 -31zM612 -3q-62 0 -112.5 50t-50.5 142q0 79 46.5 136t117.5 57q74 0 119 -56.5t45 -133.5q0 -81 -46.5 -138t-118.5 -57z" />
    <glyph glyph-name="ampersand" unicode="&#x26;" horiz-adv-x="717" 
d="M692 250q-51 -78 -110 -136.5t-130.5 -90t-163.5 -31.5q-113 0 -184.5 48.5t-71.5 135.5q0 61 30.5 101.5t78 71t99.5 61.5q75 46 117 82.5t42 80.5q0 38 -25.5 66t-74.5 28q-44 0 -73 -28.5t-29 -62.5t18.5 -65t47.5 -57l433 -385l-56 -73l-446 408q-19 18 -39.5 43
t-34.5 57.5t-14 72.5q0 43 27 79.5t71.5 58.5t96.5 22q85 0 135 -47t50 -112q0 -71 -53 -118t-141 -100q-75 -47 -116.5 -83.5t-41.5 -96.5q0 -53 45.5 -82.5t111.5 -29.5q99 0 179.5 63t146.5 165z" />
    <glyph glyph-name="quotesingle" unicode="'" horiz-adv-x="224" 
d="M154 612l-4 -142h-76l-5 142v118h85v-118z" />
    <glyph glyph-name="parenleft" unicode="(" horiz-adv-x="328" 
d="M314 -100v-83q-80 39 -144 111t-102 166t-38 199q0 111 40 202t104.5 156.5t139.5 97.5v-78q-46 -28 -86.5 -79.5t-66 -126t-25.5 -172.5q0 -86 22 -161.5t61.5 -134.5t94.5 -97z" />
    <glyph glyph-name="parenright" unicode=")" horiz-adv-x="328" 
d="M14 671v78q71 -29 136 -93t106.5 -159t41.5 -213q0 -111 -40.5 -203.5t-105.5 -160.5t-138 -103v86q50 34 91.5 89t67 128.5t25.5 163.5q0 104 -27.5 181.5t-69.5 128.5t-87 77z" />
    <glyph glyph-name="asterisk" unicode="*" horiz-adv-x="413" 
d="M375 580l-129 -34l96 -90l-62 -53l-72 115l-72 -115l-62 52l95 92l-132 31l34 77l113 -65l-20 140h87l-20 -140l116 64z" />
    <glyph glyph-name="plus" unicode="+" horiz-adv-x="507" 
d="M476 294h-185v-179h-75v179h-185v74h185v179h75v-179h185v-74z" />
    <glyph glyph-name="comma" unicode="," horiz-adv-x="242" 
d="M203 109q-6 -50 -24.5 -100.5t-44 -91.5t-52.5 -66l-68 31q16 18 35 54t35.5 81.5t23.5 91.5h95z" />
    <glyph glyph-name="hyphen" unicode="-" horiz-adv-x="348" 
d="M303 225h-258v81h258v-81z" />
    <glyph glyph-name="period" unicode="." horiz-adv-x="244" 
d="M170 0h-96v129h96v-129z" />
    <glyph glyph-name="slash" unicode="/" horiz-adv-x="322" 
d="M318 730l-231 -730h-84l234 730h81z" />
    <glyph glyph-name="zero" unicode="0" horiz-adv-x="590" 
d="M292 -12q-77 0 -133.5 45.5t-87.5 129t-31 198.5q0 102 28 189t85 139.5t144 52.5q89 0 145 -50.5t82 -135.5t26 -187q0 -109 -28 -195t-85 -136t-145 -50zM292 70q57 0 93.5 37.5t53 103t16.5 148.5q0 85 -16 153.5t-51.5 108t-92.5 39.5q-55 0 -90.5 -38t-53 -105
t-17.5 -156q0 -86 17.5 -151.5t53 -102.5t87.5 -37z" />
    <glyph glyph-name="one" unicode="1" horiz-adv-x="378" 
d="M287 0h-93v598q-22 -26 -66 -51t-82 -28v89q50 3 95 38t84 85h62v-731z" />
    <glyph glyph-name="two" unicode="2" horiz-adv-x="561" 
d="M531 0h-500v30l317 337q33 34 56 75.5t23 88.5q0 58 -42 92.5t-108 34.5q-72 0 -113 -42.5t-41 -113.5h-87q2 115 69.5 177.5t180.5 62.5q103 0 169 -52.5t66 -147.5q0 -79 -32.5 -132t-69.5 -90l-231 -237h343v-83z" />
    <glyph glyph-name="three" unicode="3" horiz-adv-x="556" 
d="M267 -12q-94 0 -158.5 25.5t-100.5 57.5l48 72q31 -24 80.5 -48.5t122.5 -24.5q86 0 133.5 43.5t47.5 107.5q0 60 -46.5 94.5t-120.5 34.5h-127v81h125q66 0 105 35t39 81q0 43 -36.5 78.5t-102.5 35.5q-72 0 -115 -29t-69 -66l-55 63q28 40 88 76.5t158 36.5
q103 0 164 -49.5t61 -130.5q0 -64 -40.5 -109t-95.5 -59q67 -13 113 -59t46 -120q0 -57 -29 -109t-87.5 -85t-147.5 -33z" />
    <glyph glyph-name="four" unicode="4" horiz-adv-x="581" 
d="M573 188h-124v-188h-87v188h-346v63l367 492h66v-477h124v-78zM364 266v330l-246 -330h246z" />
    <glyph glyph-name="five" unicode="5" horiz-adv-x="574" 
d="M275 -12q-85 0 -148.5 28.5t-97.5 62.5l48 70q29 -31 78.5 -55.5t116.5 -24.5q80 0 127.5 52t47.5 134q0 77 -44.5 120.5t-113.5 43.5q-53 0 -96 -21.5t-64 -63.5l-62 16l30 380h388v-85h-319l-17 -224q20 32 65.5 54t98.5 22q103 0 166 -65.5t63 -172.5
q0 -116 -71.5 -193.5t-195.5 -77.5z" />
    <glyph glyph-name="six" unicode="6" horiz-adv-x="567" 
d="M295 -12q-77 0 -134.5 33t-90.5 91.5t-33 137.5q0 82 32 157.5t87 146t124 139.5l61 59l62 -59l-48 -46q-79 -80 -137.5 -151t-71.5 -121q17 31 59.5 60t105.5 29q107 0 168.5 -67t61.5 -169q0 -66 -31.5 -120.5t-87 -87t-127.5 -32.5zM295 69q70 0 112.5 46.5
t42.5 110.5q0 66 -40 112.5t-116 46.5q-63 0 -112.5 -41t-49.5 -113q0 -70 43 -116t120 -46z" />
    <glyph glyph-name="seven" unicode="7" horiz-adv-x="501" 
d="M493 730l11 -34l-353 -703l-81 38l312 613h-366v86h477z" />
    <glyph glyph-name="eight" unicode="8" horiz-adv-x="601" 
d="M301 65q79 0 125 39t46 103t-47 98t-124 34q-75 0 -123 -34t-48 -100q0 -62 46.5 -101t124.5 -39zM301 416q68 0 108 35t40 86q0 60 -41 93t-107 33q-64 0 -106.5 -34.5t-42.5 -90.5t43 -89t106 -33zM406 386q60 -13 107 -60.5t47 -129.5q0 -89 -69 -148.5t-191 -59.5
q-120 0 -188.5 57.5t-68.5 149.5q0 56 24.5 96.5t60.5 64.5t71 28q-30 8 -61 29.5t-52 56t-21 80.5q0 87 68 139.5t167 52.5q110 0 173.5 -52.5t64.5 -134.5q0 -66 -41 -111t-91 -58z" />
    <glyph glyph-name="nine" unicode="9" horiz-adv-x="567" 
d="M231 -15l-56 62l63 55q42 39 81.5 85.5t67.5 92.5t38 85q-18 -35 -66.5 -64t-105.5 -29q-105 0 -166 66t-61 170q0 65 31.5 119t88 86t129.5 32q107 0 181 -70t74 -191q0 -90 -32 -169.5t-84 -146.5t-112 -120zM272 348q71 0 118 44.5t47 111.5q0 73 -47 117t-113 44
q-73 0 -115.5 -46t-42.5 -110q0 -68 39.5 -114.5t113.5 -46.5z" />
    <glyph glyph-name="colon" unicode=":" horiz-adv-x="244" 
d="M169 358h-94v126h94v-126zM169 0h-94v127h94v-127z" />
    <glyph glyph-name="semicolon" unicode=";" horiz-adv-x="243" 
d="M175 358h-94v126h94v-126zM180 102q-6 -48 -23.5 -95t-42 -87t-51.5 -65l-68 31q25 28 56 89.5t39 126.5h90z" />
    <glyph glyph-name="less" unicode="&#x3c;" horiz-adv-x="413" 
d="M362 92l-316 202v64l316 202v-89l-220 -143l220 -146v-90z" />
    <glyph glyph-name="equal" unicode="=" horiz-adv-x="505" 
d="M451 388h-396v79h396v-79zM451 176h-396v78h396v-78z" />
    <glyph glyph-name="greater" unicode="&#x3e;" horiz-adv-x="413" 
d="M366 294l-316 -202v90l222 146l-222 144v88l316 -202v-64z" />
    <glyph glyph-name="question" unicode="?" horiz-adv-x="467" 
d="M168 201q0 69 17 112.5t61 83.5q22 20 46 42.5t40 50t16 63.5q0 50 -37.5 78.5t-91.5 28.5q-48 0 -86.5 -22t-62.5 -54l-59 58q36 45 94 72.5t128 27.5q93 0 152 -48.5t59 -130.5q0 -77 -42.5 -123t-81.5 -82q-38 -31 -49 -74t-12 -83h-91zM164 0v113h102v-113h-102z" />
    <glyph glyph-name="at" unicode="@" horiz-adv-x="866" 
d="M425 -32q-109 0 -195 51t-135.5 137.5t-49.5 192.5q0 108 49 194t135.5 136.5t199.5 50.5q116 0 203 -44t134.5 -122t47.5 -181q0 -90 -25.5 -144t-63.5 -78t-75 -24q-50 0 -79 20.5t-37 51.5q-13 -25 -55.5 -48.5t-101.5 -23.5q-75 0 -113 36.5t-38 91.5q0 42 24.5 74
t69 49t107.5 17h99v11q0 50 -28.5 69t-74.5 19q-37 0 -69.5 -8.5t-55.5 -18.5l-27 64q28 14 69.5 24t82.5 10q85 0 132 -40.5t47 -129.5v-146q0 -22 11.5 -41.5t43.5 -19.5q18 1 40 14.5t37.5 52t15.5 112.5q0 83 -38.5 149.5t-110.5 105.5t-171 39q-95 0 -167 -42.5
t-112.5 -115t-40.5 -162.5q0 -89 41.5 -162.5t113 -117t162.5 -43.5q33 0 69 7t71 24l24 -55q-40 -19 -82.5 -27.5t-83.5 -8.5zM403 204q42 0 77.5 18t45.5 35v88h-95q-60 0 -88 -18.5t-28 -52.5q0 -33 22.5 -51.5t65.5 -18.5z" />
    <glyph glyph-name="A" unicode="A" horiz-adv-x="656" 
d="M446 275l-122 304l-121 -304h243zM654 0h-103l-78 196h-297l-76 -196h-98l298 733h60z" />
    <glyph glyph-name="B" unicode="B" horiz-adv-x="608" 
d="M96 0v730h222q96 0 152.5 -46t56.5 -128q0 -74 -38.5 -120.5t-98.5 -57.5q62 -6 118 -47.5t56 -128.5q0 -62 -30 -107.5t-84.5 -70t-126.5 -24.5h-227zM189 409h109q73 0 103 40t30 86q0 50 -36 81t-96 31h-110v-238zM190 82h135q74 0 107 38t33 91t-40.5 85.5
t-102.5 32.5h-132v-247z" />
    <glyph glyph-name="C" unicode="C" horiz-adv-x="727" 
d="M409 -12q-98 0 -180.5 45.5t-131.5 129.5t-49 202q0 109 46.5 194.5t128.5 134t187 48.5q99 0 168 -29t116 -83l-67 -71q-34 39 -85.5 65.5t-128.5 26.5q-84 0 -143 -36.5t-91 -101t-32 -148.5q0 -95 38.5 -159.5t100 -97t130.5 -32.5q79 0 136 31t93 79l63 -58
q-44 -60 -120.5 -100t-178.5 -40z" />
    <glyph glyph-name="D" unicode="D" horiz-adv-x="748" 
d="M96 0v730h218q183 0 285 -96t102 -255q0 -161 -102 -270t-300 -109h-203zM193 83h104q154 0 228 85t74 208q0 122 -76.5 196t-211.5 74h-118v-563z" />
    <glyph glyph-name="E" unicode="E" horiz-adv-x="585" 
d="M530 0h-434v730h415v-86h-319v-239h304v-86h-304v-233h338v-86z" />
    <glyph glyph-name="F" unicode="F" horiz-adv-x="519" 
d="M477 644h-284v-236h269v-86h-269v-322h-97v730h381v-86z" />
    <glyph glyph-name="G" unicode="G" horiz-adv-x="783" 
d="M426 367h307v-215q-42 -75 -124.5 -119.5t-191.5 -44.5q-104 0 -188 48t-132.5 133t-48.5 196q0 115 51 200t135 131t185 46q72 0 124 -16t87 -39.5t57 -48.5l-63 -69q-31 31 -79 56.5t-129 25.5q-77 0 -138 -35t-96.5 -99t-35.5 -151q0 -84 36 -150.5t98 -105t141 -38.5
q77 0 137 29.5t88 81.5v97h-220v87z" />
    <glyph glyph-name="H" unicode="H" horiz-adv-x="764" 
d="M668 0h-97v316h-378v-316h-97v730h97v-326h378v326h97v-730z" />
    <glyph glyph-name="I" unicode="I" horiz-adv-x="298" 
d="M198 0h-98v730h98v-730z" />
    <glyph glyph-name="J" unicode="J" horiz-adv-x="406" 
d="M325 730v-536q0 -83 -52.5 -144.5t-155.5 -61.5q-27 0 -55 3t-45 12l18 82q10 -5 32 -8t40 -3q60 0 92.5 34t32.5 82v540h93z" />
    <glyph glyph-name="K" unicode="K" horiz-adv-x="683" 
d="M672 0h-123l-258 330l-98 -118v-212h-97v730h97v-398l324 398h114l-274 -328z" />
    <glyph glyph-name="L" unicode="L" horiz-adv-x="515" 
d="M505 0h-409v730h97v-644h312v-86z" />
    <glyph glyph-name="M" unicode="M" horiz-adv-x="917" 
d="M821 0h-92v536l-253 -367h-37l-252 364v-533h-91v730h63l303 -439l295 439h64v-730z" />
    <glyph glyph-name="N" unicode="N" horiz-adv-x="786" 
d="M690 0h-69l-433 556v-556h-92v730h74l428 -552v552h92v-730z" />
    <glyph glyph-name="O" unicode="O" horiz-adv-x="843" 
d="M427 76q76 0 137 35.5t96.5 101t35.5 155.5q0 83 -36 147t-100 100.5t-144 36.5q-78 0 -139 -34t-95.5 -97.5t-34.5 -151.5q0 -91 38 -156.5t101.5 -101t140.5 -35.5zM425 -12q-112 0 -197 49.5t-132.5 136t-47.5 196.5q0 106 49 190t132.5 133t187.5 49
q111 0 196.5 -47.5t134 -132.5t48.5 -195q0 -111 -51 -196.5t-135 -134t-185 -48.5z" />
    <glyph glyph-name="P" unicode="P" horiz-adv-x="601" 
d="M96 0v730h245q100 0 165 -56t65 -157q0 -97 -62 -161t-164 -64h-152v-292h-97zM193 376h136q70 0 106.5 39.5t36.5 101.5q0 64 -43.5 96.5t-107.5 32.5h-128v-270z" />
    <glyph glyph-name="Q" unicode="Q" horiz-adv-x="836" 
d="M425 -9q-114 0 -199 48.5t-131.5 133.5t-46.5 197q0 105 48.5 189t132 133.5t189.5 49.5q110 0 195.5 -47.5t134 -132t48.5 -197.5q0 -106 -49 -190.5t-132.5 -134t-189.5 -49.5zM425 77q77 0 138 35t97 100t36 156q0 87 -37.5 151t-101.5 98.5t-141 34.5q-78 0 -139 -34
t-95.5 -97.5t-34.5 -150.5q0 -92 38.5 -158t101.5 -100.5t138 -34.5zM707 -177q-93 2 -168 39t-120 106.5t-46 168.5l106 1q0 -80 32.5 -128.5t84 -71.5t111.5 -24v-91z" />
    <glyph glyph-name="R" unicode="R" horiz-adv-x="617" 
d="M96 0v730h218q61 0 109 -24t75.5 -68t27.5 -105q0 -96 -51 -147.5t-113 -58.5l-3 -3l228 -324h-114l-209 303h-72v-303h-96zM192 385h97q61 0 100 35t39 101q0 56 -36 90.5t-97 34.5h-103v-261z" />
    <glyph glyph-name="S" unicode="S" horiz-adv-x="546" 
d="M282 -12q-83 0 -145.5 24.5t-103.5 66.5l60 75q30 -36 81 -58.5t107 -22.5q55 0 92.5 30t37.5 78q0 44 -33 77.5t-116 67.5q-70 29 -115.5 59.5t-67.5 71t-22 101.5q0 82 58.5 133t154.5 51q68 0 119 -21t90 -53l-51 -79q-34 29 -74 46.5t-84 17.5q-55 0 -87 -27.5
t-32 -68.5q0 -48 35 -78t128 -69q106 -44 149 -94.5t43 -129.5q0 -93 -66.5 -145.5t-157.5 -52.5z" />
    <glyph glyph-name="T" unicode="T" horiz-adv-x="541" 
d="M531 644h-215v-644h-97v644h-209v86h521v-86z" />
    <glyph glyph-name="U" unicode="U" horiz-adv-x="750" 
d="M661 730v-464q0 -87 -38.5 -149.5t-103.5 -95.5t-145 -33q-78 0 -142.5 32t-103.5 94t-39 152v464h95v-468q0 -83 55.5 -134t133.5 -51t135.5 49t57.5 136v468h95z" />
    <glyph glyph-name="V" unicode="V" horiz-adv-x="664" 
d="M663 730l-305 -736h-60l-296 736h104l225 -573l231 573h101z" />
    <glyph glyph-name="W" unicode="W" horiz-adv-x="929" 
d="M921 730l-225 -737h-55l-175 560l-182 -560h-54l-221 737h98l158 -542l177 542h55l174 -543l159 543h91z" />
    <glyph glyph-name="X" unicode="X" horiz-adv-x="617" 
d="M141 730l464 -730h-110l-464 730h110zM14 0l468 730h104l-468 -730h-104z" />
    <glyph glyph-name="Y" unicode="Y" horiz-adv-x="654" 
d="M653 730l-279 -411v-319h-98v323l-275 407h110l219 -321l219 321h104z" />
    <glyph glyph-name="Z" unicode="Z" horiz-adv-x="591" 
d="M554 730v-41l-402 -603h415v-86h-549v40l399 603h-367v87h504z" />
    <glyph glyph-name="bracketleft" unicode="[" horiz-adv-x="319" 
d="M278 -179h-193v909h193v-74h-107v-759h107v-76z" />
    <glyph glyph-name="backslash" unicode="\" horiz-adv-x="322" 
d="M3 730h81l234 -730h-82z" />
    <glyph glyph-name="bracketright" unicode="]" horiz-adv-x="311" 
d="M230 -179h-189v74h103v761h-103v74h189v-909z" />
    <glyph glyph-name="asciicircum" unicode="^" horiz-adv-x="512" 
d="M439 369h-79l-106 263l-101 -263h-78l140 361h78z" />
    <glyph glyph-name="underscore" unicode="_" 
d="M500 -161h-500v78h500v-78z" />
    <glyph glyph-name="grave" unicode="`" 
d="M349 540h-91l-122 163h106z" />
    <glyph glyph-name="a" unicode="a" horiz-adv-x="531" 
d="M379 128v121l-120 -6q-62 -3 -99 -27t-37 -69q0 -40 29 -62t76 -22q49 0 90 20t61 45zM467 0h-87v66q-24 -32 -68.5 -54t-106.5 -22q-84 0 -129 41t-45 109q0 79 60.5 122t169.5 49l117 7v9q0 48 -30 71.5t-84 23.5q-48 0 -89 -16.5t-70 -35.5l-38 64q32 24 84 43.5
t123 19.5q86 0 139.5 -40.5t53.5 -130.5v-326z" />
    <glyph glyph-name="b" unicode="b" horiz-adv-x="598" 
d="M318 66q68 0 109.5 50t41.5 129q0 77 -38.5 127t-114.5 50q-42 0 -77 -20.5t-56 -61t-21 -100.5q0 -56 21 -95t56.5 -59t78.5 -20zM342 -7q-75 0 -120.5 33.5t-60.5 78.5v-105h-86v763h86v-384q14 45 61 80.5t120 35.5q100 0 160.5 -67.5t60.5 -175.5q0 -119 -65.5 -189
t-155.5 -70z" />
    <glyph glyph-name="c" unicode="c" horiz-adv-x="522" 
d="M431 152l73 -45q-26 -43 -77 -80.5t-141 -37.5q-112 0 -181 71t-69 181q0 73 33 130.5t90.5 91.5t129.5 34q89 0 142 -39t73 -84l-82 -39q-17 33 -49 56.5t-86 23.5q-70 0 -114 -50.5t-44 -122.5q0 -75 43 -123.5t117 -48.5q61 0 93 27.5t49 54.5z" />
    <glyph glyph-name="d" unicode="d" horiz-adv-x="597" 
d="M283 65q66 0 109.5 50.5t43.5 131.5q0 59 -21.5 97.5t-57 58t-75.5 19.5q-69 0 -111 -49t-42 -130q0 -50 18 -90.5t52.5 -64t83.5 -23.5zM262 -9q-100 0 -163 69t-63 178q0 75 31 133.5t84 92t117 33.5q60 0 105 -30.5t61 -69.5v366h88v-763h-84v108q-9 -26 -32.5 -53.5
t-60 -45.5t-83.5 -18z" />
    <glyph glyph-name="e" unicode="e" horiz-adv-x="560" 
d="M295 -11q-112 0 -185.5 66t-73.5 185q0 72 32.5 130t89.5 92.5t131 34.5q110 0 176.5 -74t67.5 -209h-410q4 -63 48.5 -105t122.5 -42q64 0 100 20.5t58 45.5l56 -57q-33 -37 -80 -62t-133 -25zM125 284h317q-2 57 -44 97t-112 40q-69 0 -112.5 -41.5t-48.5 -95.5z" />
    <glyph glyph-name="f" unicode="f" horiz-adv-x="331" 
d="M320 405h-120v-405h-90v405h-94v79h94v115q0 55 21.5 92.5t56 56.5t74.5 19q25 0 46 -4.5t34 -11.5l-12 -82q-9 4 -23 7t-30 3q-31 0 -54 -25.5t-23 -66.5v-103h120v-79z" />
    <glyph glyph-name="g" unicode="g" horiz-adv-x="594" 
d="M285 71q39 0 73.5 21t56 61t21.5 97q0 51 -20.5 89.5t-55.5 59t-79 20.5q-65 0 -108 -48t-43 -129q0 -78 41 -124.5t114 -46.5zM261 0q-101 0 -163 69t-62 175q0 112 64 182t164 70q64 0 110.5 -30.5t63.5 -73.5v92h84v-431q0 -86 -37.5 -141.5t-96 -81.5t-124.5 -26
q-77 0 -120 14t-65 28l37 74q17 -13 52.5 -27.5t87.5 -14.5q48 0 88.5 18t65 54t24.5 90v74q-15 -41 -60.5 -77.5t-112.5 -36.5z" />
    <glyph glyph-name="h" unicode="h" horiz-adv-x="579" 
d="M510 0h-90v320q0 47 -32.5 74.5t-82.5 27.5q-35 0 -66.5 -14.5t-52 -42.5t-20.5 -72v-293h-91v763h84v-374q13 46 60.5 77t117.5 31q73 0 123 -41t50 -116v-340z" />
    <glyph glyph-name="i" unicode="i" horiz-adv-x="249" 
d="M77 594v98h95v-98h-95zM79 0v484h91v-484h-91z" />
    <glyph glyph-name="j" unicode="j" horiz-adv-x="263" 
d="M193 594h-95v98h95v-98zM191 484v-525q0 -49 -18.5 -85.5t-51 -56t-74.5 -19.5q-23 0 -49 4.5t-42 13.5l14 74q11 -5 27.5 -8.5t34.5 -3.5q28 0 48.5 24t20.5 66v516h90z" />
    <glyph glyph-name="k" unicode="k" horiz-adv-x="529" 
d="M547 1l-107 -1l-180 224l-95 -100v-124h-90v763h88v-542l237 263h102l-183 -198z" />
    <glyph glyph-name="l" unicode="l" horiz-adv-x="286" 
d="M75 117v646h87v-621q0 -36 18.5 -52.5t47.5 -16.5q13 0 26 1.5t20 3.5l2 -77q-9 -2 -26.5 -4.5t-36.5 -2.5q-34 0 -66 12t-52 39.5t-20 71.5z" />
    <glyph glyph-name="m" unicode="m" horiz-adv-x="916" 
d="M75 0v484h84v-95q15 46 65 77t113 31q60 0 103.5 -28.5t51.5 -79.5h5q13 49 62.5 78.5t112.5 29.5q78 0 127 -41.5t49 -114.5v-341h-90v319q0 50 -32 76.5t-83 26.5q-32 0 -63.5 -14.5t-52 -43t-20.5 -72.5v-292h-90v322q0 45 -31.5 72.5t-83.5 27.5q-36 0 -67 -15
t-50.5 -45t-19.5 -72v-290h-90z" />
    <glyph glyph-name="n" unicode="n" horiz-adv-x="579" 
d="M510 0h-90v322q0 47 -32.5 73.5t-82.5 26.5q-34 0 -66 -14.5t-52.5 -43t-20.5 -74.5v-290h-91v484h83v-96q17 48 65.5 78.5t112.5 30.5q74 0 124 -41.5t50 -111.5v-344z" />
    <glyph glyph-name="o" unicode="o" horiz-adv-x="585" 
d="M289 -11q-66 0 -123.5 30t-93.5 87t-36 135q0 71 34.5 129t92 92.5t126.5 34.5q71 0 130.5 -30.5t95 -85t35.5 -127.5q0 -77 -35 -136.5t-94.5 -94t-131.5 -34.5zM293 69q72 0 117.5 50.5t45.5 128.5q0 72 -46 120.5t-124 48.5q-46 0 -81 -22.5t-55 -62t-20 -91.5
q0 -54 21.5 -92.5t58.5 -59t83 -20.5z" />
    <glyph glyph-name="p" unicode="p" horiz-adv-x="598" 
d="M75 -197v681h84v-110q15 49 62.5 85t121.5 36q99 0 159.5 -67.5t60.5 -177.5q0 -120 -66.5 -188.5t-153.5 -68.5q-68 0 -115.5 32t-62.5 75v-297h-90zM321 66q64 0 106 49t42 130q0 75 -38.5 126t-112.5 51q-44 0 -79 -20.5t-56 -61t-21 -100.5q0 -89 47 -131.5
t112 -42.5z" />
    <glyph glyph-name="q" unicode="q" horiz-adv-x="597" 
d="M432 -197v300q-12 -26 -35 -52t-58 -43t-80 -17q-100 0 -161.5 69t-61.5 175q0 78 31.5 136.5t84 91.5t115.5 33q65 0 110.5 -34.5t59.5 -73.5v96h85v-681h-90zM284 65q40 0 75 22t56 63t21 97q0 86 -45.5 130.5t-108.5 44.5q-71 0 -111.5 -49t-40.5 -128
q0 -78 40.5 -129t113.5 -51z" />
    <glyph glyph-name="r" unicode="r" horiz-adv-x="426" 
d="M426 466l-42 -79q-18 16 -41 23t-49 7q-48 0 -88 -37.5t-40 -98.5v-281h-91v484h85v-102q10 40 54 77t111 37q33 0 58.5 -8t42.5 -22z" />
    <glyph glyph-name="s" unicode="s" horiz-adv-x="440" 
d="M235 -11q-68 0 -118 17t-83 46l43 62q29 -23 70 -37t85 -14q38 0 62.5 19t24.5 49q0 26 -26 45t-93 39q-53 15 -86 35.5t-48.5 48.5t-15.5 63q0 60 49 97t123 37q62 0 105 -17t66 -35l-39 -64q-24 16 -57 29.5t-73 13.5q-33 0 -60 -14t-27 -41q0 -24 18.5 -39.5
t89.5 -37.5q82 -25 121.5 -59.5t39.5 -94.5q0 -46 -22.5 -79t-61 -51t-87.5 -18z" />
    <glyph glyph-name="t" unicode="t" horiz-adv-x="314" 
d="M293 84l7 -75q-10 -7 -31.5 -11t-45.5 -4q-36 0 -68 13t-52 42.5t-20 79.5v277h-72v78h72v120l90 11v-131h115v-78h-115v-266q0 -36 17 -52t49 -16q15 0 31.5 4.5t22.5 7.5z" />
    <glyph glyph-name="u" unicode="u" horiz-adv-x="579" 
d="M69 484h90v-307q0 -58 34 -85.5t88 -27.5q53 0 92.5 33.5t39.5 94.5v292h91v-484h-86v96q-17 -44 -62.5 -75.5t-111.5 -31.5q-73 0 -124 42t-51 123v330z" />
    <glyph glyph-name="v" unicode="v" horiz-adv-x="502" 
d="M507 484l-232 -487h-53l-226 487h99l158 -352l159 352h95z" />
    <glyph glyph-name="w" unicode="w" horiz-adv-x="716" 
d="M486 -3l-123 310l-133 -310h-52l-172 487h95l115 -349l123 300h54l116 -299l115 348h87l-173 -487h-52z" />
    <glyph glyph-name="x" unicode="x" horiz-adv-x="453" 
d="M120 484l329 -484h-100l-329 484h100zM3 0l342 484h92l-341 -484h-93z" />
    <glyph glyph-name="y" unicode="y" horiz-adv-x="508" 
d="M510 484l-271 -568q-34 -71 -78 -93.5t-83 -22.5q-23 0 -39.5 5t-23.5 7l26 82q5 -2 16.5 -5.5t24.5 -3.5q24 0 44.5 15.5t41.5 57.5l38 77l-209 449h98l159 -355l162 355h94z" />
    <glyph glyph-name="z" unicode="z" horiz-adv-x="431" 
d="M406 484v-42l-256 -362h270v-80h-405v33l261 371h-248v80h378z" />
    <glyph glyph-name="braceleft" unicode="{" horiz-adv-x="304" 
d="M283 -179q-97 2 -158 46.5t-62 109.5q0 38 7.5 68.5t18.5 53.5q10 24 19 45t9 40q0 27 -27 47.5t-72 20.5v67q46 0 74 21t28 51q0 13 -10 34.5t-21 48.5q-12 27 -19 54t-7 51q1 65 61 116.5t159 53.5v-66q-57 -2 -91.5 -34t-35.5 -75q0 -15 3.5 -34.5t13.5 -40.5
q14 -30 25 -55t11 -43q0 -41 -25 -73t-80 -43q55 -11 79.5 -43.5t25.5 -67.5q0 -28 -10 -49t-21 -42t-17 -43.5t-6 -43.5q1 -36 34.5 -71.5t93.5 -37.5v-66z" />
    <glyph glyph-name="bar" unicode="|" horiz-adv-x="259" 
d="M172 -179h-85v909h85v-909z" />
    <glyph glyph-name="braceright" unicode="}" horiz-adv-x="304" 
d="M21 -179v66q60 2 93.5 37.5t34.5 71.5q0 21 -5.5 43.5t-16.5 43.5t-21.5 42t-9.5 49q0 35 24 67.5t81 43.5q-56 11 -80.5 43t-25.5 73q0 18 11 43t26 55q9 21 12.5 40.5t3.5 34.5q0 43 -35 75t-92 34v66q99 -2 159 -54t61 -116q0 -24 -6.5 -51t-18.5 -54t-22 -48.5
t-10 -34.5q1 -30 29 -51t73 -21v-67q-45 0 -71.5 -20.5t-27.5 -47.5q0 -19 9.5 -40t19.5 -45q10 -23 18 -53.5t8 -68.5q-1 -65 -62.5 -109.5t-158.5 -46.5z" />
    <glyph glyph-name="asciitilde" unicode="~" 
d="M388 439h79q0 -94 -29.5 -134t-79.5 -40q-31 0 -58 13.5t-48 30.5t-42 29.5t-44 12.5t-38.5 -21.5t-15.5 -61.5h-78q0 96 31.5 136t73.5 40q36 0 66 -14.5t55 -33.5q19 -14 39.5 -27.5t46.5 -13.5q25 0 33.5 20t8.5 64z" />
    <glyph glyph-name="exclamdown" unicode="&#xa1;" horiz-adv-x="303" 
d="M98 160l31 228h48l28 -228v-286h-107v286zM102 595h99v-106h-99v106z" />
    <glyph glyph-name="cent" unicode="&#xa2;" horiz-adv-x="578" 
d="M350 126v-149h-74v149h74zM489 254l66 -47q-30 -44 -84 -85t-151 -41q-119 0 -195.5 75.5t-76.5 195.5q0 80 35.5 142.5t98 99t141.5 36.5q91 0 149.5 -41.5t82.5 -94.5l-75 -34q-22 38 -61.5 66t-98.5 28q-82 0 -133 -58.5t-51 -139.5q0 -85 50.5 -141t136.5 -56
q70 0 108 31.5t58 63.5zM350 726v-136h-74v136h74z" />
    <glyph glyph-name="sterling" unicode="&#xa3;" horiz-adv-x="598" 
d="M502 358h-464v66h464v-66zM502 216h-464v65h464v-65zM304 213q0 -42 -18 -70.5t-43 -44.5t-48 -22h391v-76h-561v55q9 4 29 8.5t54 10.5q27 5 53.5 18t43.5 36t17 56q0 43 -36.5 95t-72.5 116.5t-36 148.5q0 75 36 118t93.5 61.5t124.5 18.5q84 0 153 -27.5t100 -52.5
l-50 -72q-28 20 -82 43.5t-119 23.5q-61 0 -110.5 -27.5t-49.5 -102.5q0 -59 33 -113.5t65.5 -104.5t32.5 -96z" />
    <glyph glyph-name="currency" unicode="&#xa4;" horiz-adv-x="502" 
d="M250 523q73 0 124.5 -49.5t51.5 -119.5t-51.5 -119.5t-124.5 -49.5t-125 49.5t-52 119.5t52 119.5t125 49.5zM250 251q44 0 76.5 30.5t32.5 72.5t-32.5 72.5t-76.5 30.5q-46 0 -77.5 -30.5t-31.5 -72.5t31.5 -72.5t77.5 -30.5zM98 558l74 -76l-42 -41l-73 76zM404 559
l41 -43l-73 -76l-41 43zM400 150l-74 76l41 41l74 -76zM100 150l-43 42l74 77l42 -43z" />
    <glyph glyph-name="yen" unicode="&#xa5;" horiz-adv-x="654" 
d="M84 265v67h481v-67h-481zM84 136v68h481v-68h-481zM274 0v335l-240 395h108l185 -312l186 312h103l-245 -400v-330h-97z" />
    <glyph glyph-name="brokenbar" unicode="&#xa6;" horiz-adv-x="277" 
d="M99 351v379h79v-379h-79zM178 200v-379h-79v379h79z" />
    <glyph glyph-name="section" unicode="&#xa7;" horiz-adv-x="676" 
d="M356 -181q-87 0 -162.5 20.5t-127.5 54.5l40 75q48 -31 116 -53t130 -22q57 0 94.5 25.5t37.5 71.5q0 42 -31 64t-80 42l-131 52q-91 38 -140 71t-49 107q0 46 24.5 76t58.5 50q-58 34 -58 117t70.5 127.5t176.5 44.5q95 0 154.5 -25t103.5 -54l-41 -69q-47 29 -98 52.5
t-121 23.5q-63 0 -106 -25.5t-43 -70.5q0 -30 21.5 -51t64.5 -37l174 -67q92 -32 139.5 -68.5t47.5 -104.5q0 -56 -36.5 -87t-82.5 -42q23 -12 51.5 -43t28.5 -84q0 -81 -65 -126t-161 -45zM436 164q34 3 62.5 20t28.5 54q0 34 -33 58.5t-112 53.5l-167 65
q-30 -13 -49 -30.5t-19 -50.5q0 -38 34 -62t113 -53z" />
    <glyph glyph-name="dieresis" unicode="&#xa8;" 
d="M381 541h-77v158h77v-158zM196 541h-77v158h77v-158z" />
    <glyph glyph-name="copyright" unicode="&#xa9;" horiz-adv-x="842" 
d="M421 -4q-103 0 -187.5 50.5t-135 135t-50.5 187.5t50.5 187.5t135 135t187.5 50.5t187.5 -50.5t135 -135t50.5 -187.5t-50.5 -187.5t-135 -135t-187.5 -50.5zM421 55q86 0 156.5 42.5t112.5 113.5t42 157t-42 157.5t-112.5 114t-156.5 42.5t-157 -42.5t-113 -114
t-42 -157.5t42 -157t113 -113.5t157 -42.5zM421 153q63 0 106 24.5t67 62.5l-63 41q-18 -25 -45.5 -41.5t-63.5 -16.5q-47 0 -85.5 38t-38.5 106q0 66 34 109t87 43q40 0 65 -14.5t40 -36.5l65 47q-24 35 -65 57.5t-108 22.5q-83 0 -141 -61.5t-58 -163.5
q0 -106 62.5 -161.5t141.5 -55.5z" />
    <glyph glyph-name="ordfeminine" unicode="&#xaa;" horiz-adv-x="472" 
d="M437 180h-392v76h392v-76zM348 428v99l-111 -7q-51 -2 -84 -18.5t-33 -58.5q0 -34 27 -52.5t71 -18.5q37 0 73 15t57 41zM423 309h-73v59q-24 -32 -67 -48.5t-93 -16.5q-71 0 -111 35t-40 97q0 68 54.5 104.5t149.5 42.5l104 6v7q0 34 -27.5 54t-77.5 20q-41 0 -78 -14
t-67 -32l-29 64q33 23 80 39.5t107 16.5q77 0 122.5 -35t45.5 -115v-284z" />
    <glyph glyph-name="guillemotleft" unicode="&#xab;" horiz-adv-x="456" 
d="M208 86l-180 174v62l180 171v-95l-102 -108l102 -104v-100zM426 86l-181 174v62l181 171v-95l-102 -108l102 -104v-100z" />
    <glyph glyph-name="logicalnot" unicode="&#xac;" 
d="M451 385v-254h-76v175h-344v79h420z" />
    <glyph glyph-name="registered" unicode="&#xae;" horiz-adv-x="842" 
d="M421 -4q-103 0 -188 50.5t-135 135t-50 187.5t50 187.5t135 135t188 50.5q102 0 187 -50.5t135.5 -135t50.5 -187.5t-50.5 -187.5t-135.5 -135t-187 -50.5zM421 55q86 0 156.5 41.5t112.5 113t42 159.5q0 87 -42 158t-112.5 113.5t-156.5 42.5t-157 -42.5t-113 -114
t-42 -157.5q0 -87 42 -158.5t113 -113.5t157 -42zM279 161v435h162q54 0 98.5 -28.5t44.5 -92.5q0 -58 -30 -86.5t-65 -33.5l-1 -4l134 -190h-85l-116 172h-67v-172h-75zM353 396h92q28 0 48 18.5t20 53.5q0 34 -22.5 48.5t-55.5 14.5h-82v-135z" />
    <glyph glyph-name="macron" unicode="&#xaf;" 
d="M381 560h-262v72h262v-72z" />
    <glyph glyph-name="degree" unicode="&#xb0;" horiz-adv-x="436" 
d="M218 366q-78 0 -133 55t-55 133t55 133t133 55t133 -55t55 -133t-55 -133t-133 -55zM218 439q48 0 82 34t34 81q0 48 -34 82t-82 34t-82 -34t-34 -82q0 -47 34 -81t82 -34z" />
    <glyph glyph-name="plusminus" unicode="&#xb1;" 
d="M474 296h-185v-183h-77v183h-186v70h186v183h77v-183h185v-70zM469 25h-436v67h436v-67z" />
    <glyph glyph-name="twosuperior" unicode="&#xb2;" horiz-adv-x="333" 
d="M305 372h-281v29l160 157q10 10 20 24.5t10 36.5t-15 38.5t-46 16.5q-35 0 -49.5 -21t-15.5 -48h-70q0 55 37.5 95.5t105.5 40.5q66 0 99 -31t33 -74q0 -41 -14 -67t-31 -42l-95 -90h152v-65z" />
    <glyph glyph-name="threesuperior" unicode="&#xb3;" horiz-adv-x="346" 
d="M226 569q41 -7 65 -32t24 -60q0 -37 -32.5 -75t-121.5 -38q-62 0 -96 14.5t-55 29.5l43 45q17 -11 42.5 -19.5t61.5 -8.5q47 0 67 18t20 45q0 29 -24 38.5t-58 9.5h-72v56h66q33 0 52 11.5t19 33.5q0 19 -17 30.5t-51 11.5q-30 0 -55.5 -11t-38.5 -27l-43 42
q20 22 53 40.5t94 18.5q62 0 96.5 -25.5t34.5 -64.5q0 -33 -22.5 -54.5t-51.5 -28.5z" />
    <glyph glyph-name="acute" unicode="&#xb4;" 
d="M152 544l106 163h107l-122 -163h-91z" />
    <glyph glyph-name="mu" unicode="&#xb5;" horiz-adv-x="588" 
d="M75 -146v630h89v-320q0 -46 33 -73.5t85 -27.5q33 0 63.5 15.5t50 45t19.5 72.5v288h89v-484h-82v97q-16 -43 -60.5 -72.5t-98.5 -31.5q-36 -1 -64.5 13.5t-41.5 41.5v-194h-82z" />
    <glyph glyph-name="paragraph" unicode="&#xb6;" horiz-adv-x="690" 
d="M613 -179h-61v838h-116v-838h-61v426h-109q-66 0 -120 32t-86.5 86t-32.5 120q0 104 72.5 174.5t186.5 70.5h327v-909zM376 322v333h-61q-69 0 -111 -46.5t-42 -120.5q0 -71 41 -118.5t102 -47.5h71z" />
    <glyph glyph-name="periodcentered" unicode="&#xb7;" horiz-adv-x="253" 
d="M172 278h-91v131h91v-131z" />
    <glyph glyph-name="cedilla" unicode="&#xb8;" 
d="M256 -188q-36 0 -73.5 9t-58.5 23l12 41q14 -8 38 -16t53 -8q22 0 39.5 10t17.5 27q0 19 -15 26.5t-33 7.5q-20 0 -41 -6l-13 14l60 72h56l-50 -62q52 11 87.5 -8t35.5 -55q0 -38 -34.5 -56.5t-80.5 -18.5z" />
    <glyph glyph-name="onesuperior" unicode="&#xb9;" horiz-adv-x="322" 
d="M140 372v272q-11 -17 -40 -29.5t-50 -15.5l-1 79q37 5 64 20.5t55 41.5h56v-368h-84z" />
    <glyph glyph-name="ordmasculine" unicode="&#xba;" horiz-adv-x="488" 
d="M47 180v76h391v-76h-391zM241 300q-83 0 -147.5 58t-64.5 160q0 61 29 111.5t78 80.5t107 30q91 0 154 -58t63 -153q0 -99 -64 -164t-155 -65zM242 376q60 0 98 42.5t38 107.5q0 62 -36 102.5t-99 40.5q-59 0 -96 -42.5t-37 -108.5q0 -65 37.5 -103.5t94.5 -38.5z" />
    <glyph glyph-name="guillemotright" unicode="&#xbb;" horiz-adv-x="459" 
d="M30 493l182 -173v-62l-182 -172v96l102 108l-102 103v100zM250 493l181 -173v-62l-181 -172v96l102 108l-102 104v99z" />
    <glyph glyph-name="onequarter" unicode="&#xbc;" horiz-adv-x="691" 
d="M98 372v272q-11 -17 -40 -29.5t-50 -15.5l-1 79q37 5 64 20.5t55 41.5h56v-368h-84zM570 730l-368 -730h-79l369 730h78zM383 83v55l187 228h51v-225h62v-58h-62v-82h-74v82h-164zM443 130h106v132z" />
    <glyph glyph-name="onehalf" unicode="&#xbd;" horiz-adv-x="752" 
d="M98 372v272q-11 -17 -40 -29.5t-50 -15.5l-1 79q37 5 64 20.5t55 41.5h56v-368h-84zM570 730l-368 -730h-79l369 730h78zM733 0h-281v29l160 157q10 10 20 24.5t10 36.5t-15 38.5t-46 16.5q-35 0 -49.5 -21t-15.5 -48h-70q0 55 37.5 95.5t105.5 40.5q66 0 99 -31t33 -74
q0 -41 -14 -67t-31 -42l-95 -90h152v-65z" />
    <glyph glyph-name="threequarters" unicode="&#xbe;" horiz-adv-x="751" 
d="M631 730l-368 -730h-79l369 730h78zM444 83v55l187 228h51v-225h62v-58h-62v-82h-74v82h-164zM504 130h106v132zM223 569q41 -7 65 -32t24 -60q0 -37 -32.5 -75t-121.5 -38q-62 0 -96 14.5t-55 29.5l43 45q17 -11 42.5 -19.5t61.5 -8.5q47 0 67 18t20 45q0 29 -24 38.5
t-58 9.5h-72v56h66q33 0 52 11.5t19 33.5q0 19 -17 30.5t-51 11.5q-30 0 -55.5 -11t-38.5 -27l-43 42q20 22 53 40.5t94 18.5q62 0 96.5 -25.5t34.5 -64.5q0 -33 -22.5 -54.5t-51.5 -28.5z" />
    <glyph glyph-name="questiondown" unicode="&#xbf;" horiz-adv-x="474" 
d="M240 -140q-93 0 -156.5 45.5t-63.5 129.5q0 79 44 123t83 71q44 32 55.5 76.5t12.5 89.5h91q0 -75 -15.5 -117.5t-64.5 -80.5q-26 -21 -51.5 -41t-42 -46t-16.5 -63q0 -50 38 -78.5t95 -28.5q49 0 89.5 22.5t65.5 53.5l61 -57q-32 -40 -89 -69.5t-136 -29.5zM208 485v110
h102v-110h-102z" />
    <glyph glyph-name="Agrave" unicode="&#xc0;" horiz-adv-x="656" 
d="M446 275l-122 304l-121 -304h243zM654 0h-103l-78 196h-297l-76 -196h-98l298 733h60zM433 786h-91l-122 163h106z" />
    <glyph glyph-name="Aacute" unicode="&#xc1;" horiz-adv-x="656" 
d="M446 275l-122 304l-121 -304h243zM654 0h-103l-78 196h-297l-76 -196h-98l298 733h60zM220 790l106 163h107l-122 -163h-91z" />
    <glyph glyph-name="Acircumflex" unicode="&#xc2;" horiz-adv-x="656" 
d="M446 275l-122 304l-121 -304h243zM654 0h-103l-78 196h-297l-76 -196h-98l298 733h60zM496 787h-85l-85 112l-86 -112h-83l123 171h93z" />
    <glyph glyph-name="Atilde" unicode="&#xc3;" horiz-adv-x="656" 
d="M446 275l-122 304l-121 -304h243zM654 0h-103l-78 196h-297l-76 -196h-98l298 733h60zM424 930h70q0 -70 -21 -103.5t-56 -33.5q-28 0 -49 11.5t-38 23.5q-16 11 -31 22t-30 11t-25.5 -17t-11.5 -46h-69q0 69 27.5 102.5t60.5 33.5q25 0 44 -11.5t37 -25.5q15 -11 29 -21
t28 -10t24.5 17t10.5 47z" />
    <glyph glyph-name="Adieresis" unicode="&#xc4;" horiz-adv-x="656" 
d="M446 275l-122 304l-121 -304h243zM654 0h-103l-78 196h-297l-76 -196h-98l298 733h60zM456 787h-77v158h77v-158zM271 787h-77v158h77v-158z" />
    <glyph glyph-name="Aring" unicode="&#xc5;" horiz-adv-x="656" 
d="M446 275l-122 304l-121 -304h243zM654 0h-103l-78 196h-297l-76 -196h-98l298 733h60zM326 785q-49 0 -83 34.5t-34 83.5t34 83t83 34q50 0 84 -34t34 -83t-34 -83.5t-84 -34.5zM326 841q26 0 43.5 17.5t17.5 44.5q0 26 -17.5 44t-43.5 18q-25 0 -43 -18t-18 -44
q0 -27 18 -44.5t43 -17.5z" />
    <glyph glyph-name="AE" unicode="&#xc6;" horiz-adv-x="972" 
d="M919 0h-432v248h-246l-156 -248h-104l462 730h457v-86h-319v-239h304v-85h-304v-234h338v-86zM487 330v318l-197 -318h197z" />
    <glyph glyph-name="Ccedilla" unicode="&#xc7;" horiz-adv-x="727" 
d="M409 -12q-98 0 -180.5 45.5t-131.5 129.5t-49 202q0 109 46.5 194.5t128.5 134t187 48.5q99 0 168 -29t116 -83l-67 -71q-34 39 -85.5 65.5t-128.5 26.5q-84 0 -143 -36.5t-91 -101t-32 -148.5q0 -95 38.5 -159.5t100 -97t130.5 -32.5q79 0 136 31t93 79l63 -58
q-44 -60 -120.5 -100t-178.5 -40zM406 -194q-36 0 -73.5 9t-58.5 23l12 41q14 -8 38 -16t53 -8q22 0 39.5 10t17.5 27q0 19 -15 26.5t-33 7.5q-20 0 -41 -6l-13 14l60 72h56l-50 -62q52 11 87.5 -8t35.5 -55q0 -38 -34.5 -56.5t-80.5 -18.5z" />
    <glyph glyph-name="Egrave" unicode="&#xc8;" horiz-adv-x="585" 
d="M530 0h-434v730h415v-86h-319v-239h304v-86h-304v-233h338v-86zM416 786h-91l-122 163h106z" />
    <glyph glyph-name="Eacute" unicode="&#xc9;" horiz-adv-x="585" 
d="M530 0h-434v730h415v-86h-319v-239h304v-86h-304v-233h338v-86zM203 790l106 163h107l-122 -163h-91z" />
    <glyph glyph-name="Ecircumflex" unicode="&#xca;" horiz-adv-x="585" 
d="M530 0h-434v730h415v-86h-319v-239h304v-86h-304v-233h338v-86zM479 787h-85l-85 112l-86 -112h-83l123 171h93z" />
    <glyph glyph-name="Edieresis" unicode="&#xcb;" horiz-adv-x="585" 
d="M530 0h-434v730h415v-86h-319v-239h304v-86h-304v-233h338v-86zM439 787h-77v158h77v-158zM254 787h-77v158h77v-158z" />
    <glyph glyph-name="Igrave" unicode="&#xcc;" horiz-adv-x="298" 
d="M198 0h-98v730h98v-730zM256 786h-91l-122 163h106z" />
    <glyph glyph-name="Iacute" unicode="&#xcd;" horiz-adv-x="298" 
d="M198 0h-98v730h98v-730zM43 790l106 163h107l-122 -163h-91z" />
    <glyph glyph-name="Icircumflex" unicode="&#xce;" horiz-adv-x="298" 
d="M198 0h-98v730h98v-730zM319 787h-85l-85 112l-86 -112h-83l123 171h93z" />
    <glyph glyph-name="Idieresis" unicode="&#xcf;" horiz-adv-x="298" 
d="M198 0h-98v730h98v-730zM279 787h-77v158h77v-158zM94 787h-77v158h77v-158z" />
    <glyph glyph-name="Eth" unicode="&#xd0;" horiz-adv-x="748" 
d="M96 0v730h218q184 0 285.5 -98t101.5 -265q0 -152 -102 -259.5t-300 -107.5h-203zM191 80h101q110 0 178 41t99 106t31 138q0 132 -76 207.5t-210 75.5h-123v-568zM35 319v76h340v-76h-340z" />
    <glyph glyph-name="Ntilde" unicode="&#xd1;" horiz-adv-x="786" 
d="M690 0h-69l-433 556v-556h-92v730h74l428 -552v552h92v-730zM492 930h70q0 -70 -21 -103.5t-56 -33.5q-28 0 -49 11.5t-38 23.5q-16 11 -31 22t-30 11t-25.5 -17t-11.5 -46h-69q0 69 27.5 102.5t60.5 33.5q25 0 44 -11.5t37 -25.5q15 -11 29 -21t28 -10t24.5 17t10.5 47z
" />
    <glyph glyph-name="Ograve" unicode="&#xd2;" horiz-adv-x="843" 
d="M427 76q76 0 137 35.5t96.5 101t35.5 155.5q0 83 -36 147t-100 100.5t-144 36.5q-78 0 -139 -34t-95.5 -97.5t-34.5 -151.5q0 -91 38 -156.5t101.5 -101t140.5 -35.5zM425 -12q-112 0 -197 49.5t-132.5 136t-47.5 196.5q0 106 49 190t132.5 133t187.5 49
q111 0 196.5 -47.5t134 -132.5t48.5 -195q0 -111 -51 -196.5t-135 -134t-185 -48.5zM524 786h-91l-122 163h106z" />
    <glyph glyph-name="Oacute" unicode="&#xd3;" horiz-adv-x="843" 
d="M427 76q76 0 137 35.5t96.5 101t35.5 155.5q0 83 -36 147t-100 100.5t-144 36.5q-78 0 -139 -34t-95.5 -97.5t-34.5 -151.5q0 -91 38 -156.5t101.5 -101t140.5 -35.5zM425 -12q-112 0 -197 49.5t-132.5 136t-47.5 196.5q0 106 49 190t132.5 133t187.5 49
q111 0 196.5 -47.5t134 -132.5t48.5 -195q0 -111 -51 -196.5t-135 -134t-185 -48.5zM311 790l106 163h107l-122 -163h-91z" />
    <glyph glyph-name="Ocircumflex" unicode="&#xd4;" horiz-adv-x="843" 
d="M427 76q76 0 137 35.5t96.5 101t35.5 155.5q0 83 -36 147t-100 100.5t-144 36.5q-78 0 -139 -34t-95.5 -97.5t-34.5 -151.5q0 -91 38 -156.5t101.5 -101t140.5 -35.5zM425 -12q-112 0 -197 49.5t-132.5 136t-47.5 196.5q0 106 49 190t132.5 133t187.5 49
q111 0 196.5 -47.5t134 -132.5t48.5 -195q0 -111 -51 -196.5t-135 -134t-185 -48.5zM587 787h-85l-85 112l-86 -112h-83l123 171h93z" />
    <glyph glyph-name="Otilde" unicode="&#xd5;" horiz-adv-x="843" 
d="M427 76q76 0 137 35.5t96.5 101t35.5 155.5q0 83 -36 147t-100 100.5t-144 36.5q-78 0 -139 -34t-95.5 -97.5t-34.5 -151.5q0 -91 38 -156.5t101.5 -101t140.5 -35.5zM425 -12q-112 0 -197 49.5t-132.5 136t-47.5 196.5q0 106 49 190t132.5 133t187.5 49
q111 0 196.5 -47.5t134 -132.5t48.5 -195q0 -111 -51 -196.5t-135 -134t-185 -48.5zM515 930h70q0 -70 -21 -103.5t-56 -33.5q-28 0 -49 11.5t-38 23.5q-16 11 -31 22t-30 11t-25.5 -17t-11.5 -46h-69q0 69 27.5 102.5t60.5 33.5q25 0 44 -11.5t37 -25.5q15 -11 29 -21
t28 -10t24.5 17t10.5 47z" />
    <glyph glyph-name="Odieresis" unicode="&#xd6;" horiz-adv-x="843" 
d="M427 76q76 0 137 35.5t96.5 101t35.5 155.5q0 83 -36 147t-100 100.5t-144 36.5q-78 0 -139 -34t-95.5 -97.5t-34.5 -151.5q0 -91 38 -156.5t101.5 -101t140.5 -35.5zM425 -12q-112 0 -197 49.5t-132.5 136t-47.5 196.5q0 106 49 190t132.5 133t187.5 49
q111 0 196.5 -47.5t134 -132.5t48.5 -195q0 -111 -51 -196.5t-135 -134t-185 -48.5zM547 787h-77v158h77v-158zM362 787h-77v158h77v-158z" />
    <glyph glyph-name="multiply" unicode="&#xd7;" 
d="M113 143l-50 51l136 137l-135 136l50 51l136 -136l137 136l50 -51l-136 -136l137 -137l-51 -52l-137 139z" />
    <glyph glyph-name="Oslash" unicode="&#xd8;" horiz-adv-x="843" 
d="M106 2l-51 49l693 694l51 -49zM427 76q76 0 137 35.5t96.5 101t35.5 155.5q0 83 -36 147t-100 100.5t-144 36.5q-78 0 -139 -34t-95.5 -97.5t-34.5 -151.5q0 -91 38 -156.5t101.5 -101t140.5 -35.5zM425 -12q-112 0 -197 49.5t-132.5 136t-47.5 196.5q0 106 49 190
t132.5 133t187.5 49q111 0 196.5 -47.5t134 -132.5t48.5 -195q0 -111 -51 -196.5t-135 -134t-185 -48.5z" />
    <glyph glyph-name="Ugrave" unicode="&#xd9;" horiz-adv-x="750" 
d="M661 730v-464q0 -87 -38.5 -149.5t-103.5 -95.5t-145 -33q-78 0 -142.5 32t-103.5 94t-39 152v464h95v-468q0 -83 55.5 -134t133.5 -51t135.5 49t57.5 136v468h95zM481 786h-91l-122 163h106z" />
    <glyph glyph-name="Uacute" unicode="&#xda;" horiz-adv-x="750" 
d="M661 730v-464q0 -87 -38.5 -149.5t-103.5 -95.5t-145 -33q-78 0 -142.5 32t-103.5 94t-39 152v464h95v-468q0 -83 55.5 -134t133.5 -51t135.5 49t57.5 136v468h95zM268 790l106 163h107l-122 -163h-91z" />
    <glyph glyph-name="Ucircumflex" unicode="&#xdb;" horiz-adv-x="750" 
d="M661 730v-464q0 -87 -38.5 -149.5t-103.5 -95.5t-145 -33q-78 0 -142.5 32t-103.5 94t-39 152v464h95v-468q0 -83 55.5 -134t133.5 -51t135.5 49t57.5 136v468h95zM544 787h-85l-85 112l-86 -112h-83l123 171h93z" />
    <glyph glyph-name="Udieresis" unicode="&#xdc;" horiz-adv-x="750" 
d="M661 730v-464q0 -87 -38.5 -149.5t-103.5 -95.5t-145 -33q-78 0 -142.5 32t-103.5 94t-39 152v464h95v-468q0 -83 55.5 -134t133.5 -51t135.5 49t57.5 136v468h95zM504 787h-77v158h77v-158zM319 787h-77v158h77v-158z" />
    <glyph glyph-name="Yacute" unicode="&#xdd;" horiz-adv-x="654" 
d="M653 730l-279 -411v-319h-98v323l-275 407h110l219 -321l219 321h104zM222 790l106 163h107l-122 -163h-91z" />
    <glyph glyph-name="Thorn" unicode="&#xde;" horiz-adv-x="601" 
d="M96 0v730h97v-133h147q111 0 171.5 -60.5t60.5 -156.5t-63.5 -159t-164.5 -63h-151v-158h-97zM192 239h138q66 0 105 38t39 106q0 65 -44 98t-109 33h-129v-275z" />
    <glyph glyph-name="germandbls" unicode="&#xdf;" horiz-adv-x="658" 
d="M454 -11q-66 0 -114.5 16.5t-82.5 46.5l43 62q28 -23 69.5 -37t81.5 -14q39 0 63.5 18t24.5 48q0 28 -24.5 47t-91.5 39q-88 24 -121 59.5t-33 91.5q0 51 33 81.5t74 35.5q9 5 22 22t13 68q0 61 -34.5 93.5t-83.5 32.5q-48 0 -80.5 -27.5t-32.5 -83.5v-588h-92v597
q0 84 59.5 130t140.5 46q86 0 148 -49.5t62 -138.5q0 -66 -22.5 -102t-41.5 -47q-32 -3 -58 -19t-29 -43q0 -27 28 -46.5t93 -37.5q83 -24 121.5 -59t38.5 -95q0 -71 -50.5 -109t-123.5 -38z" />
    <glyph glyph-name="agrave" unicode="&#xe0;" horiz-adv-x="531" 
d="M379 128v121l-120 -6q-62 -3 -99 -27t-37 -69q0 -40 29 -62t76 -22q49 0 90 20t61 45zM467 0h-87v66q-24 -32 -68.5 -54t-106.5 -22q-84 0 -129 41t-45 109q0 79 60.5 122t169.5 49l117 7v9q0 48 -30 71.5t-84 23.5q-48 0 -89 -16.5t-70 -35.5l-38 64q32 24 84 43.5
t123 19.5q86 0 139.5 -40.5t53.5 -130.5v-326zM368 540h-91l-122 163h106z" />
    <glyph glyph-name="aacute" unicode="&#xe1;" horiz-adv-x="531" 
d="M379 128v121l-120 -6q-62 -3 -99 -27t-37 -69q0 -40 29 -62t76 -22q49 0 90 20t61 45zM467 0h-87v66q-24 -32 -68.5 -54t-106.5 -22q-84 0 -129 41t-45 109q0 79 60.5 122t169.5 49l117 7v9q0 48 -30 71.5t-84 23.5q-48 0 -89 -16.5t-70 -35.5l-38 64q32 24 84 43.5
t123 19.5q86 0 139.5 -40.5t53.5 -130.5v-326zM155 544l106 163h107l-122 -163h-91z" />
    <glyph glyph-name="acircumflex" unicode="&#xe2;" horiz-adv-x="531" 
d="M379 128v121l-120 -6q-62 -3 -99 -27t-37 -69q0 -40 29 -62t76 -22q49 0 90 20t61 45zM467 0h-87v66q-24 -32 -68.5 -54t-106.5 -22q-84 0 -129 41t-45 109q0 79 60.5 122t169.5 49l117 7v9q0 48 -30 71.5t-84 23.5q-48 0 -89 -16.5t-70 -35.5l-38 64q32 24 84 43.5
t123 19.5q86 0 139.5 -40.5t53.5 -130.5v-326zM431 541h-85l-85 112l-86 -112h-83l123 171h93z" />
    <glyph glyph-name="atilde" unicode="&#xe3;" horiz-adv-x="531" 
d="M379 128v121l-120 -6q-62 -3 -99 -27t-37 -69q0 -40 29 -62t76 -22q49 0 90 20t61 45zM467 0h-87v66q-24 -32 -68.5 -54t-106.5 -22q-84 0 -129 41t-45 109q0 79 60.5 122t169.5 49l117 7v9q0 48 -30 71.5t-84 23.5q-48 0 -89 -16.5t-70 -35.5l-38 64q32 24 84 43.5
t123 19.5q86 0 139.5 -40.5t53.5 -130.5v-326zM359 684h70q0 -70 -21 -103.5t-56 -33.5q-28 0 -49 11.5t-38 23.5q-16 11 -31 22t-30 11t-25.5 -17t-11.5 -46h-69q0 69 27.5 102.5t60.5 33.5q25 0 44 -11.5t37 -25.5q15 -11 29 -21t28 -10t24.5 17t10.5 47z" />
    <glyph glyph-name="adieresis" unicode="&#xe4;" horiz-adv-x="531" 
d="M379 128v121l-120 -6q-62 -3 -99 -27t-37 -69q0 -40 29 -62t76 -22q49 0 90 20t61 45zM467 0h-87v66q-24 -32 -68.5 -54t-106.5 -22q-84 0 -129 41t-45 109q0 79 60.5 122t169.5 49l117 7v9q0 48 -30 71.5t-84 23.5q-48 0 -89 -16.5t-70 -35.5l-38 64q32 24 84 43.5
t123 19.5q86 0 139.5 -40.5t53.5 -130.5v-326zM391 541h-77v158h77v-158zM206 541h-77v158h77v-158z" />
    <glyph glyph-name="aring" unicode="&#xe5;" horiz-adv-x="531" 
d="M379 128v121l-120 -6q-62 -3 -99 -27t-37 -69q0 -40 29 -62t76 -22q49 0 90 20t61 45zM467 0h-87v66q-24 -32 -68.5 -54t-106.5 -22q-84 0 -129 41t-45 109q0 79 60.5 122t169.5 49l117 7v9q0 48 -30 71.5t-84 23.5q-48 0 -89 -16.5t-70 -35.5l-38 64q32 24 84 43.5
t123 19.5q86 0 139.5 -40.5t53.5 -130.5v-326zM261 539q-49 0 -83 34.5t-34 83.5t34 83t83 34q50 0 84 -34t34 -83t-34 -83.5t-84 -34.5zM261 595q26 0 43.5 17.5t17.5 44.5q0 26 -17.5 44t-43.5 18q-25 0 -43 -18t-18 -44q0 -27 18 -44.5t43 -17.5z" />
    <glyph glyph-name="ae" unicode="&#xe6;" horiz-adv-x="904" 
d="M233 63q59 0 100.5 33t57.5 71v81l-127 -6q-59 -4 -97.5 -24.5t-38.5 -68.5q0 -43 30.5 -64.5t74.5 -21.5zM641 -11q-87 0 -142 35.5t-74 78.5q-21 -43 -77 -78t-140 -35q-79 0 -125.5 40t-46.5 110q0 79 61 121.5t170 48.5l121 8v9q0 46 -34 70.5t-86 24.5
q-47 0 -88.5 -17t-69.5 -35l-37 64q33 26 84 44.5t112 18.5q70 0 115 -27.5t60 -69.5q17 33 65 65t127 32q110 0 175 -76.5t66 -205.5h-404q2 -67 46 -107.5t119 -40.5q69 0 102 21.5t56 45.5l56 -58q-34 -39 -82.5 -63t-128.5 -24zM475 283h311q0 55 -43 96.5t-114 41.5
q-69 0 -109.5 -41.5t-44.5 -96.5z" />
    <glyph glyph-name="ccedilla" unicode="&#xe7;" horiz-adv-x="522" 
d="M431 152l73 -45q-26 -43 -77 -80.5t-141 -37.5q-112 0 -181 71t-69 181q0 73 33 130.5t90.5 91.5t129.5 34q89 0 142 -39t73 -84l-82 -39q-17 33 -49 56.5t-86 23.5q-70 0 -114 -50.5t-44 -122.5q0 -75 43 -123.5t117 -48.5q61 0 93 27.5t49 54.5zM288 -194
q-36 0 -73.5 9t-58.5 23l12 41q14 -8 38 -16t53 -8q22 0 39.5 10t17.5 27q0 19 -15 26.5t-33 7.5q-20 0 -41 -6l-13 14l60 72h56l-50 -62q52 11 87.5 -8t35.5 -55q0 -38 -34.5 -56.5t-80.5 -18.5z" />
    <glyph glyph-name="egrave" unicode="&#xe8;" horiz-adv-x="560" 
d="M295 -11q-112 0 -185.5 66t-73.5 185q0 72 32.5 130t89.5 92.5t131 34.5q110 0 176.5 -74t67.5 -209h-410q4 -63 48.5 -105t122.5 -42q64 0 100 20.5t58 45.5l56 -57q-33 -37 -80 -62t-133 -25zM125 284h317q-2 57 -44 97t-112 40q-69 0 -112.5 -41.5t-48.5 -95.5z
M395 540h-91l-122 163h106z" />
    <glyph glyph-name="eacute" unicode="&#xe9;" horiz-adv-x="560" 
d="M295 -11q-112 0 -185.5 66t-73.5 185q0 72 32.5 130t89.5 92.5t131 34.5q110 0 176.5 -74t67.5 -209h-410q4 -63 48.5 -105t122.5 -42q64 0 100 20.5t58 45.5l56 -57q-33 -37 -80 -62t-133 -25zM125 284h317q-2 57 -44 97t-112 40q-69 0 -112.5 -41.5t-48.5 -95.5z
M182 544l106 163h107l-122 -163h-91z" />
    <glyph glyph-name="ecircumflex" unicode="&#xea;" horiz-adv-x="560" 
d="M295 -11q-112 0 -185.5 66t-73.5 185q0 72 32.5 130t89.5 92.5t131 34.5q110 0 176.5 -74t67.5 -209h-410q4 -63 48.5 -105t122.5 -42q64 0 100 20.5t58 45.5l56 -57q-33 -37 -80 -62t-133 -25zM125 284h317q-2 57 -44 97t-112 40q-69 0 -112.5 -41.5t-48.5 -95.5z
M458 541h-85l-85 112l-86 -112h-83l123 171h93z" />
    <glyph glyph-name="edieresis" unicode="&#xeb;" horiz-adv-x="560" 
d="M295 -11q-112 0 -185.5 66t-73.5 185q0 72 32.5 130t89.5 92.5t131 34.5q110 0 176.5 -74t67.5 -209h-410q4 -63 48.5 -105t122.5 -42q64 0 100 20.5t58 45.5l56 -57q-33 -37 -80 -62t-133 -25zM125 284h317q-2 57 -44 97t-112 40q-69 0 -112.5 -41.5t-48.5 -95.5z
M418 541h-77v158h77v-158zM233 541h-77v158h77v-158z" />
    <glyph glyph-name="igrave" unicode="&#xec;" horiz-adv-x="249" 
d="M170 0h-91v484h91v-484zM231 540h-91l-122 163h106z" />
    <glyph glyph-name="iacute" unicode="&#xed;" horiz-adv-x="249" 
d="M170 0h-91v484h91v-484zM18 544l106 163h107l-122 -163h-91z" />
    <glyph glyph-name="icircumflex" unicode="&#xee;" horiz-adv-x="249" 
d="M170 0h-91v484h91v-484zM294 541h-85l-85 112l-86 -112h-83l123 171h93z" />
    <glyph glyph-name="idieresis" unicode="&#xef;" horiz-adv-x="249" 
d="M170 0h-91v484h91v-484zM254 541h-77v158h77v-158zM69 541h-77v158h77v-158z" />
    <glyph glyph-name="eth" unicode="&#xf0;" horiz-adv-x="593" 
d="M222 568l-17 52l283 92l16 -52zM292 66q78 0 123.5 50.5t45.5 126.5q0 49 -20 87.5t-56.5 60.5t-88.5 22q-73 0 -120 -50.5t-47 -121.5q0 -77 47 -126t116 -49zM291 -11q-107 0 -181 68t-74 181q0 68 34.5 124.5t90 90.5t121.5 34q41 0 76 -13.5t60.5 -34.5t38.5 -44
q-10 81 -39 141.5t-68 102t-77 65.5t-65 33l81 33q33 -14 77.5 -48.5t87 -94t70.5 -148.5t28 -212q0 -77 -30.5 -140t-89.5 -100.5t-141 -37.5z" />
    <glyph glyph-name="ntilde" unicode="&#xf1;" horiz-adv-x="579" 
d="M510 0h-90v322q0 47 -32.5 73.5t-82.5 26.5q-34 0 -66 -14.5t-52.5 -43t-20.5 -74.5v-290h-91v484h83v-96q17 48 65.5 78.5t112.5 30.5q74 0 124 -41.5t50 -111.5v-344zM396 684h70q0 -70 -21 -103.5t-56 -33.5q-28 0 -49 11.5t-38 23.5q-16 11 -31 22t-30 11t-25.5 -17
t-11.5 -46h-69q0 69 27.5 102.5t60.5 33.5q25 0 44 -11.5t37 -25.5q15 -11 29 -21t28 -10t24.5 17t10.5 47z" />
    <glyph glyph-name="ograve" unicode="&#xf2;" horiz-adv-x="585" 
d="M289 -11q-66 0 -123.5 30t-93.5 87t-36 135q0 71 34.5 129t92 92.5t126.5 34.5q71 0 130.5 -30.5t95 -85t35.5 -127.5q0 -77 -35 -136.5t-94.5 -94t-131.5 -34.5zM293 69q72 0 117.5 50.5t45.5 128.5q0 72 -46 120.5t-124 48.5q-46 0 -81 -22.5t-55 -62t-20 -91.5
q0 -54 21.5 -92.5t58.5 -59t83 -20.5zM397 540h-91l-122 163h106z" />
    <glyph glyph-name="oacute" unicode="&#xf3;" horiz-adv-x="585" 
d="M289 -11q-66 0 -123.5 30t-93.5 87t-36 135q0 71 34.5 129t92 92.5t126.5 34.5q71 0 130.5 -30.5t95 -85t35.5 -127.5q0 -77 -35 -136.5t-94.5 -94t-131.5 -34.5zM293 69q72 0 117.5 50.5t45.5 128.5q0 72 -46 120.5t-124 48.5q-46 0 -81 -22.5t-55 -62t-20 -91.5
q0 -54 21.5 -92.5t58.5 -59t83 -20.5zM184 544l106 163h107l-122 -163h-91z" />
    <glyph glyph-name="ocircumflex" unicode="&#xf4;" horiz-adv-x="585" 
d="M289 -11q-66 0 -123.5 30t-93.5 87t-36 135q0 71 34.5 129t92 92.5t126.5 34.5q71 0 130.5 -30.5t95 -85t35.5 -127.5q0 -77 -35 -136.5t-94.5 -94t-131.5 -34.5zM293 69q72 0 117.5 50.5t45.5 128.5q0 72 -46 120.5t-124 48.5q-46 0 -81 -22.5t-55 -62t-20 -91.5
q0 -54 21.5 -92.5t58.5 -59t83 -20.5zM460 541h-85l-85 112l-86 -112h-83l123 171h93z" />
    <glyph glyph-name="otilde" unicode="&#xf5;" horiz-adv-x="585" 
d="M289 -11q-66 0 -123.5 30t-93.5 87t-36 135q0 71 34.5 129t92 92.5t126.5 34.5q71 0 130.5 -30.5t95 -85t35.5 -127.5q0 -77 -35 -136.5t-94.5 -94t-131.5 -34.5zM293 69q72 0 117.5 50.5t45.5 128.5q0 72 -46 120.5t-124 48.5q-46 0 -81 -22.5t-55 -62t-20 -91.5
q0 -54 21.5 -92.5t58.5 -59t83 -20.5zM388 684h70q0 -70 -21 -103.5t-56 -33.5q-28 0 -49 11.5t-38 23.5q-16 11 -31 22t-30 11t-25.5 -17t-11.5 -46h-69q0 69 27.5 102.5t60.5 33.5q25 0 44 -11.5t37 -25.5q15 -11 29 -21t28 -10t24.5 17t10.5 47z" />
    <glyph glyph-name="odieresis" unicode="&#xf6;" horiz-adv-x="585" 
d="M289 -11q-66 0 -123.5 30t-93.5 87t-36 135q0 71 34.5 129t92 92.5t126.5 34.5q71 0 130.5 -30.5t95 -85t35.5 -127.5q0 -77 -35 -136.5t-94.5 -94t-131.5 -34.5zM293 69q72 0 117.5 50.5t45.5 128.5q0 72 -46 120.5t-124 48.5q-46 0 -81 -22.5t-55 -62t-20 -91.5
q0 -54 21.5 -92.5t58.5 -59t83 -20.5zM420 541h-77v158h77v-158zM235 541h-77v158h77v-158z" />
    <glyph glyph-name="divide" unicode="&#xf7;" 
d="M26 292v77h448v-77h-448zM207 448v116h86v-116h-86zM207 98v115h86v-115h-86z" />
    <glyph glyph-name="oslash" unicode="&#xf8;" horiz-adv-x="585" 
d="M73 -11l-43 43l473 471l43 -43zM289 -11q-66 0 -123.5 30t-93.5 87t-36 135q0 71 34.5 129t92 92.5t126.5 34.5q71 0 130.5 -30.5t95 -85t35.5 -127.5q0 -77 -35 -136.5t-94.5 -94t-131.5 -34.5zM293 69q72 0 117.5 50.5t45.5 128.5q0 72 -46 120.5t-124 48.5
q-46 0 -81 -22.5t-55 -62t-20 -91.5q0 -54 21.5 -92.5t58.5 -59t83 -20.5z" />
    <glyph glyph-name="ugrave" unicode="&#xf9;" horiz-adv-x="579" 
d="M69 484h90v-307q0 -58 34 -85.5t88 -27.5q53 0 92.5 33.5t39.5 94.5v292h91v-484h-86v96q-17 -44 -62.5 -75.5t-111.5 -31.5q-73 0 -124 42t-51 123v330zM393 540h-91l-122 163h106z" />
    <glyph glyph-name="uacute" unicode="&#xfa;" horiz-adv-x="579" 
d="M69 484h90v-307q0 -58 34 -85.5t88 -27.5q53 0 92.5 33.5t39.5 94.5v292h91v-484h-86v96q-17 -44 -62.5 -75.5t-111.5 -31.5q-73 0 -124 42t-51 123v330zM180 544l106 163h107l-122 -163h-91z" />
    <glyph glyph-name="ucircumflex" unicode="&#xfb;" horiz-adv-x="579" 
d="M69 484h90v-307q0 -58 34 -85.5t88 -27.5q53 0 92.5 33.5t39.5 94.5v292h91v-484h-86v96q-17 -44 -62.5 -75.5t-111.5 -31.5q-73 0 -124 42t-51 123v330zM456 541h-85l-85 112l-86 -112h-83l123 171h93z" />
    <glyph glyph-name="udieresis" unicode="&#xfc;" horiz-adv-x="579" 
d="M69 484h90v-307q0 -58 34 -85.5t88 -27.5q53 0 92.5 33.5t39.5 94.5v292h91v-484h-86v96q-17 -44 -62.5 -75.5t-111.5 -31.5q-73 0 -124 42t-51 123v330zM416 541h-77v158h77v-158zM231 541h-77v158h77v-158z" />
    <glyph glyph-name="yacute" unicode="&#xfd;" horiz-adv-x="508" 
d="M510 484l-271 -568q-34 -71 -78 -93.5t-83 -22.5q-23 0 -39.5 5t-23.5 7l26 82q5 -2 16.5 -5.5t24.5 -3.5q24 0 44.5 15.5t41.5 57.5l38 77l-209 449h98l159 -355l162 355h94zM149 544l106 163h107l-122 -163h-91z" />
    <glyph glyph-name="thorn" unicode="&#xfe;" horiz-adv-x="598" 
d="M75 -197v960h88v-384q13 44 59.5 80.5t122.5 36.5q97 0 157.5 -68t60.5 -176q0 -120 -66 -189.5t-154 -69.5q-69 0 -116.5 32t-61.5 75v-297h-90zM320 66q64 0 106.5 49t42.5 130q0 75 -38.5 126t-112.5 51q-44 0 -79 -20.5t-56 -61t-21 -101.5q0 -88 47 -130.5
t111 -42.5z" />
    <glyph glyph-name="ydieresis" unicode="&#xff;" horiz-adv-x="508" 
d="M510 484l-271 -568q-34 -71 -78 -93.5t-83 -22.5q-23 0 -39.5 5t-23.5 7l26 82q5 -2 16.5 -5.5t24.5 -3.5q24 0 44.5 15.5t41.5 57.5l38 77l-209 449h98l159 -355l162 355h94zM385 541h-77v158h77v-158zM200 541h-77v158h77v-158z" />
    <glyph glyph-name="Amacron" unicode="&#x100;" horiz-adv-x="656" 
d="M446 275l-122 304l-121 -304h243zM654 0h-103l-78 196h-297l-76 -196h-98l298 733h60zM457 806h-262v72h262v-72z" />
    <glyph glyph-name="amacron" unicode="&#x101;" horiz-adv-x="531" 
d="M379 128v121l-120 -6q-62 -3 -99 -27t-37 -69q0 -40 29 -62t76 -22q49 0 90 20t61 45zM467 0h-87v66q-24 -32 -68.5 -54t-106.5 -22q-84 0 -129 41t-45 109q0 79 60.5 122t169.5 49l117 7v9q0 48 -30 71.5t-84 23.5q-48 0 -89 -16.5t-70 -35.5l-38 64q32 24 84 43.5
t123 19.5q86 0 139.5 -40.5t53.5 -130.5v-326zM392 560h-262v72h262v-72z" />
    <glyph glyph-name="Abreve" unicode="&#x102;" horiz-adv-x="656" 
d="M446 275l-122 304l-121 -304h243zM654 0h-103l-78 196h-297l-76 -196h-98l298 733h60zM408 949h75q-5 -82 -48.5 -119.5t-108.5 -37.5t-108 37.5t-49 119.5h75q3 -46 22 -72t60 -26t60 25.5t22 72.5z" />
    <glyph glyph-name="abreve" unicode="&#x103;" horiz-adv-x="531" 
d="M379 128v121l-120 -6q-62 -3 -99 -27t-37 -69q0 -40 29 -62t76 -22q49 0 90 20t61 45zM467 0h-87v66q-24 -32 -68.5 -54t-106.5 -22q-84 0 -129 41t-45 109q0 79 60.5 122t169.5 49l117 7v9q0 48 -30 71.5t-84 23.5q-48 0 -89 -16.5t-70 -35.5l-38 64q32 24 84 43.5
t123 19.5q86 0 139.5 -40.5t53.5 -130.5v-326zM343 703h75q-5 -82 -48.5 -119.5t-108.5 -37.5t-108 37.5t-49 119.5h75q3 -46 22 -72t60 -26t60 25.5t22 72.5z" />
    <glyph glyph-name="Aogonek" unicode="&#x104;" horiz-adv-x="656" 
d="M446 275l-122 304l-121 -304h243zM654 0h-103l-78 196h-297l-76 -196h-98l298 733h60zM663 -97l26 -38q-61 -62 -153 -62q-51 0 -80.5 21.5t-29.5 55.5q0 36 33 69.5t91 56.5l47 -4q-43 -21 -68.5 -42.5t-25.5 -43.5t17.5 -34.5t45.5 -12.5q30 0 55.5 9.5t41.5 24.5z" />
    <glyph glyph-name="aogonek" unicode="&#x105;" horiz-adv-x="531" 
d="M379 128v121l-120 -6q-62 -3 -99 -27t-37 -69q0 -40 29 -62t76 -22q49 0 90 20t61 45zM467 0h-87v66q-24 -32 -68.5 -54t-106.5 -22q-84 0 -129 41t-45 109q0 79 60.5 122t169.5 49l117 7v9q0 48 -30 71.5t-84 23.5q-48 0 -89 -16.5t-70 -35.5l-38 64q32 24 84 43.5
t123 19.5q86 0 139.5 -40.5t53.5 -130.5v-326zM499 -97l26 -38q-61 -62 -153 -62q-51 0 -80.5 21.5t-29.5 55.5q0 36 33 69.5t91 56.5l47 -4q-43 -21 -68.5 -42.5t-25.5 -43.5t17.5 -34.5t45.5 -12.5q30 0 55.5 9.5t41.5 24.5z" />
    <glyph glyph-name="Cacute" unicode="&#x106;" horiz-adv-x="727" 
d="M409 -12q-98 0 -180.5 45.5t-131.5 129.5t-49 202q0 109 46.5 194.5t128.5 134t187 48.5q99 0 168 -29t116 -83l-67 -71q-34 39 -85.5 65.5t-128.5 26.5q-84 0 -143 -36.5t-91 -101t-32 -148.5q0 -95 38.5 -159.5t100 -97t130.5 -32.5q79 0 136 31t93 79l63 -58
q-44 -60 -120.5 -100t-178.5 -40zM304 790l106 163h107l-122 -163h-91z" />
    <glyph glyph-name="cacute" unicode="&#x107;" horiz-adv-x="522" 
d="M431 152l73 -45q-26 -43 -77 -80.5t-141 -37.5q-112 0 -181 71t-69 181q0 73 33 130.5t90.5 91.5t129.5 34q89 0 142 -39t73 -84l-82 -39q-17 33 -49 56.5t-86 23.5q-70 0 -114 -50.5t-44 -122.5q0 -75 43 -123.5t117 -48.5q61 0 93 27.5t49 54.5zM182 544l106 163h107
l-122 -163h-91z" />
    <glyph glyph-name="Ccircumflex" unicode="&#x108;" horiz-adv-x="727" 
d="M409 -12q-98 0 -180.5 45.5t-131.5 129.5t-49 202q0 109 46.5 194.5t128.5 134t187 48.5q99 0 168 -29t116 -83l-67 -71q-34 39 -85.5 65.5t-128.5 26.5q-84 0 -143 -36.5t-91 -101t-32 -148.5q0 -95 38.5 -159.5t100 -97t130.5 -32.5q79 0 136 31t93 79l63 -58
q-44 -60 -120.5 -100t-178.5 -40zM580 787h-85l-85 112l-86 -112h-83l123 171h93z" />
    <glyph glyph-name="ccircumflex" unicode="&#x109;" horiz-adv-x="522" 
d="M431 152l73 -45q-26 -43 -77 -80.5t-141 -37.5q-112 0 -181 71t-69 181q0 73 33 130.5t90.5 91.5t129.5 34q89 0 142 -39t73 -84l-82 -39q-17 33 -49 56.5t-86 23.5q-70 0 -114 -50.5t-44 -122.5q0 -75 43 -123.5t117 -48.5q61 0 93 27.5t49 54.5zM458 541h-85l-85 112
l-86 -112h-83l123 171h93z" />
    <glyph glyph-name="Cdotaccent" unicode="&#x10a;" horiz-adv-x="727" 
d="M409 -12q-98 0 -180.5 45.5t-131.5 129.5t-49 202q0 109 46.5 194.5t128.5 134t187 48.5q99 0 168 -29t116 -83l-67 -71q-34 39 -85.5 65.5t-128.5 26.5q-84 0 -143 -36.5t-91 -101t-32 -148.5q0 -95 38.5 -159.5t100 -97t130.5 -32.5q79 0 136 31t93 79l63 -58
q-44 -60 -120.5 -100t-178.5 -40zM452 787h-83v164h83v-164z" />
    <glyph glyph-name="cdotaccent" unicode="&#x10b;" horiz-adv-x="522" 
d="M431 152l73 -45q-26 -43 -77 -80.5t-141 -37.5q-112 0 -181 71t-69 181q0 73 33 130.5t90.5 91.5t129.5 34q89 0 142 -39t73 -84l-82 -39q-17 33 -49 56.5t-86 23.5q-70 0 -114 -50.5t-44 -122.5q0 -75 43 -123.5t117 -48.5q61 0 93 27.5t49 54.5zM330 541h-83v164h83
v-164z" />
    <glyph glyph-name="Ccaron" unicode="&#x10c;" horiz-adv-x="727" 
d="M409 -12q-98 0 -180.5 45.5t-131.5 129.5t-49 202q0 109 46.5 194.5t128.5 134t187 48.5q99 0 168 -29t116 -83l-67 -71q-34 39 -85.5 65.5t-128.5 26.5q-84 0 -143 -36.5t-91 -101t-32 -148.5q0 -95 38.5 -159.5t100 -97t130.5 -32.5q79 0 136 31t93 79l63 -58
q-44 -60 -120.5 -100t-178.5 -40zM241 958h85l85 -112l86 112h83l-123 -171h-93z" />
    <glyph glyph-name="ccaron" unicode="&#x10d;" horiz-adv-x="522" 
d="M431 152l73 -45q-26 -43 -77 -80.5t-141 -37.5q-112 0 -181 71t-69 181q0 73 33 130.5t90.5 91.5t129.5 34q89 0 142 -39t73 -84l-82 -39q-17 33 -49 56.5t-86 23.5q-70 0 -114 -50.5t-44 -122.5q0 -75 43 -123.5t117 -48.5q61 0 93 27.5t49 54.5zM119 712h85l85 -112
l86 112h83l-123 -171h-93z" />
    <glyph glyph-name="Dcaron" unicode="&#x10e;" horiz-adv-x="748" 
d="M96 0v730h218q183 0 285 -96t102 -255q0 -161 -102 -270t-300 -109h-203zM193 83h104q154 0 228 85t74 208q0 122 -76.5 196t-211.5 74h-118v-563zM186 958h85l85 -112l86 112h83l-123 -171h-93z" />
    <glyph glyph-name="dcaron" unicode="&#x10f;" horiz-adv-x="597" 
d="M283 65q66 0 109.5 50.5t43.5 131.5q0 59 -21.5 97.5t-57 58t-75.5 19.5q-69 0 -111 -49t-42 -130q0 -50 18 -90.5t52.5 -64t83.5 -23.5zM262 -9q-100 0 -163 69t-63 178q0 75 31 133.5t84 92t117 33.5q60 0 105 -30.5t61 -69.5v366h88v-763h-84v108q-9 -26 -32.5 -53.5
t-60 -45.5t-83.5 -18zM662 612l-4 -142h-76l-5 142v118h85v-118z" />
    <glyph glyph-name="Dcroat" unicode="&#x110;" horiz-adv-x="748" 
d="M96 0v730h218q184 0 285.5 -98t101.5 -265q0 -152 -102 -259.5t-300 -107.5h-203zM191 80h101q110 0 178 41t99 106t31 138q0 132 -76 207.5t-210 75.5h-123v-568zM35 319v76h340v-76h-340z" />
    <glyph glyph-name="dcroat" unicode="&#x111;" horiz-adv-x="597" 
d="M589 585h-302v78h302v-78zM283 65q66 0 109.5 50.5t43.5 131.5q0 59 -21.5 97.5t-57 58t-75.5 19.5q-69 0 -111 -49t-42 -130q0 -50 18 -90.5t52.5 -64t83.5 -23.5zM262 -9q-100 0 -163 69t-63 178q0 75 31 133.5t84 92t117 33.5q60 0 105 -30.5t61 -69.5v366h88v-763
h-84v108q-9 -26 -32.5 -53.5t-60 -45.5t-83.5 -18z" />
    <glyph glyph-name="Emacron" unicode="&#x112;" horiz-adv-x="585" 
d="M530 0h-434v730h415v-86h-319v-239h304v-86h-304v-233h338v-86zM440 806h-262v72h262v-72z" />
    <glyph glyph-name="emacron" unicode="&#x113;" horiz-adv-x="560" 
d="M295 -11q-112 0 -185.5 66t-73.5 185q0 72 32.5 130t89.5 92.5t131 34.5q110 0 176.5 -74t67.5 -209h-410q4 -63 48.5 -105t122.5 -42q64 0 100 20.5t58 45.5l56 -57q-33 -37 -80 -62t-133 -25zM125 284h317q-2 57 -44 97t-112 40q-69 0 -112.5 -41.5t-48.5 -95.5z
M419 560h-262v72h262v-72z" />
    <glyph glyph-name="Ebreve" unicode="&#x114;" horiz-adv-x="585" 
d="M530 0h-434v730h415v-86h-319v-239h304v-86h-304v-233h338v-86zM391 949h75q-5 -82 -48.5 -119.5t-108.5 -37.5t-108 37.5t-49 119.5h75q3 -46 22 -72t60 -26t60 25.5t22 72.5z" />
    <glyph glyph-name="ebreve" unicode="&#x115;" horiz-adv-x="560" 
d="M295 -11q-112 0 -185.5 66t-73.5 185q0 72 32.5 130t89.5 92.5t131 34.5q110 0 176.5 -74t67.5 -209h-410q4 -63 48.5 -105t122.5 -42q64 0 100 20.5t58 45.5l56 -57q-33 -37 -80 -62t-133 -25zM125 284h317q-2 57 -44 97t-112 40q-69 0 -112.5 -41.5t-48.5 -95.5z
M370 703h75q-5 -82 -48.5 -119.5t-108.5 -37.5t-108 37.5t-49 119.5h75q3 -46 22 -72t60 -26t60 25.5t22 72.5z" />
    <glyph glyph-name="Edotaccent" unicode="&#x116;" horiz-adv-x="585" 
d="M530 0h-434v730h415v-86h-319v-239h304v-86h-304v-233h338v-86zM351 787h-83v164h83v-164z" />
    <glyph glyph-name="edotaccent" unicode="&#x117;" horiz-adv-x="560" 
d="M295 -11q-112 0 -185.5 66t-73.5 185q0 72 32.5 130t89.5 92.5t131 34.5q110 0 176.5 -74t67.5 -209h-410q4 -63 48.5 -105t122.5 -42q64 0 100 20.5t58 45.5l56 -57q-33 -37 -80 -62t-133 -25zM125 284h317q-2 57 -44 97t-112 40q-69 0 -112.5 -41.5t-48.5 -95.5z
M330 541h-83v164h83v-164z" />
    <glyph glyph-name="Eogonek" unicode="&#x118;" horiz-adv-x="585" 
d="M530 0h-434v730h415v-86h-319v-239h304v-86h-304v-233h338v-86zM596 -97l26 -38q-61 -62 -153 -62q-51 0 -80.5 21.5t-29.5 55.5q0 36 33 69.5t91 56.5l47 -4q-43 -21 -68.5 -42.5t-25.5 -43.5t17.5 -34.5t45.5 -12.5q30 0 55.5 9.5t41.5 24.5z" />
    <glyph glyph-name="eogonek" unicode="&#x119;" horiz-adv-x="560" 
d="M295 -11q-112 0 -185.5 66t-73.5 185q0 72 32.5 130t89.5 92.5t131 34.5q110 0 176.5 -74t67.5 -209h-410q4 -63 48.5 -105t122.5 -42q64 0 100 20.5t58 45.5l56 -57q-33 -37 -80 -62t-133 -25zM125 284h317q-2 57 -44 97t-112 40q-69 0 -112.5 -41.5t-48.5 -95.5z
M460 -97l26 -38q-61 -62 -153 -62q-51 0 -80.5 21.5t-29.5 55.5q0 36 33 69.5t91 56.5l47 -4q-43 -21 -68.5 -42.5t-25.5 -43.5t17.5 -34.5t45.5 -12.5q30 0 55.5 9.5t41.5 24.5z" />
    <glyph glyph-name="Ecaron" unicode="&#x11a;" horiz-adv-x="585" 
d="M530 0h-434v730h415v-86h-319v-239h304v-86h-304v-233h338v-86zM140 958h85l85 -112l86 112h83l-123 -171h-93z" />
    <glyph glyph-name="ecaron" unicode="&#x11b;" horiz-adv-x="560" 
d="M295 -11q-112 0 -185.5 66t-73.5 185q0 72 32.5 130t89.5 92.5t131 34.5q110 0 176.5 -74t67.5 -209h-410q4 -63 48.5 -105t122.5 -42q64 0 100 20.5t58 45.5l56 -57q-33 -37 -80 -62t-133 -25zM125 284h317q-2 57 -44 97t-112 40q-69 0 -112.5 -41.5t-48.5 -95.5z
M119 712h85l85 -112l86 112h83l-123 -171h-93z" />
    <glyph glyph-name="Gcircumflex" unicode="&#x11c;" horiz-adv-x="783" 
d="M426 367h307v-215q-42 -75 -124.5 -119.5t-191.5 -44.5q-104 0 -188 48t-132.5 133t-48.5 196q0 115 51 200t135 131t185 46q72 0 124 -16t87 -39.5t57 -48.5l-63 -69q-31 31 -79 56.5t-129 25.5q-77 0 -138 -35t-96.5 -99t-35.5 -151q0 -84 36 -150.5t98 -105t141 -38.5
q77 0 137 29.5t88 81.5v97h-220v87zM589 787h-85l-85 112l-86 -112h-83l123 171h93z" />
    <glyph glyph-name="gcircumflex" unicode="&#x11d;" horiz-adv-x="594" 
d="M285 71q39 0 73.5 21t56 61t21.5 97q0 51 -20.5 89.5t-55.5 59t-79 20.5q-65 0 -108 -48t-43 -129q0 -78 41 -124.5t114 -46.5zM261 0q-101 0 -163 69t-62 175q0 112 64 182t164 70q64 0 110.5 -30.5t63.5 -73.5v92h84v-431q0 -86 -37.5 -141.5t-96 -81.5t-124.5 -26
q-77 0 -120 14t-65 28l37 74q17 -13 52.5 -27.5t87.5 -14.5q48 0 88.5 18t65 54t24.5 90v74q-15 -41 -60.5 -77.5t-112.5 -36.5zM448 541h-85l-85 112l-86 -112h-83l123 171h93z" />
    <glyph glyph-name="Gbreve" unicode="&#x11e;" horiz-adv-x="783" 
d="M426 367h307v-215q-42 -75 -124.5 -119.5t-191.5 -44.5q-104 0 -188 48t-132.5 133t-48.5 196q0 115 51 200t135 131t185 46q72 0 124 -16t87 -39.5t57 -48.5l-63 -69q-31 31 -79 56.5t-129 25.5q-77 0 -138 -35t-96.5 -99t-35.5 -151q0 -84 36 -150.5t98 -105t141 -38.5
q77 0 137 29.5t88 81.5v97h-220v87zM501 949h75q-5 -82 -48.5 -119.5t-108.5 -37.5t-108 37.5t-49 119.5h75q3 -46 22 -72t60 -26t60 25.5t22 72.5z" />
    <glyph glyph-name="gbreve" unicode="&#x11f;" horiz-adv-x="594" 
d="M285 71q39 0 73.5 21t56 61t21.5 97q0 51 -20.5 89.5t-55.5 59t-79 20.5q-65 0 -108 -48t-43 -129q0 -78 41 -124.5t114 -46.5zM261 0q-101 0 -163 69t-62 175q0 112 64 182t164 70q64 0 110.5 -30.5t63.5 -73.5v92h84v-431q0 -86 -37.5 -141.5t-96 -81.5t-124.5 -26
q-77 0 -120 14t-65 28l37 74q17 -13 52.5 -27.5t87.5 -14.5q48 0 88.5 18t65 54t24.5 90v74q-15 -41 -60.5 -77.5t-112.5 -36.5zM360 703h75q-5 -82 -48.5 -119.5t-108.5 -37.5t-108 37.5t-49 119.5h75q3 -46 22 -72t60 -26t60 25.5t22 72.5z" />
    <glyph glyph-name="Gdotaccent" unicode="&#x120;" horiz-adv-x="783" 
d="M426 367h307v-215q-42 -75 -124.5 -119.5t-191.5 -44.5q-104 0 -188 48t-132.5 133t-48.5 196q0 115 51 200t135 131t185 46q72 0 124 -16t87 -39.5t57 -48.5l-63 -69q-31 31 -79 56.5t-129 25.5q-77 0 -138 -35t-96.5 -99t-35.5 -151q0 -84 36 -150.5t98 -105t141 -38.5
q77 0 137 29.5t88 81.5v97h-220v87zM461 787h-83v164h83v-164z" />
    <glyph glyph-name="gdotaccent" unicode="&#x121;" horiz-adv-x="594" 
d="M285 71q39 0 73.5 21t56 61t21.5 97q0 51 -20.5 89.5t-55.5 59t-79 20.5q-65 0 -108 -48t-43 -129q0 -78 41 -124.5t114 -46.5zM261 0q-101 0 -163 69t-62 175q0 112 64 182t164 70q64 0 110.5 -30.5t63.5 -73.5v92h84v-431q0 -86 -37.5 -141.5t-96 -81.5t-124.5 -26
q-77 0 -120 14t-65 28l37 74q17 -13 52.5 -27.5t87.5 -14.5q48 0 88.5 18t65 54t24.5 90v74q-15 -41 -60.5 -77.5t-112.5 -36.5zM320 541h-83v164h83v-164z" />
    <glyph glyph-name="Gcommaaccent" unicode="&#x122;" horiz-adv-x="783" 
d="M426 367h307v-215q-42 -75 -124.5 -119.5t-191.5 -44.5q-104 0 -188 48t-132.5 133t-48.5 196q0 115 51 200t135 131t185 46q72 0 124 -16t87 -39.5t57 -48.5l-63 -69q-31 31 -79 56.5t-129 25.5q-77 0 -138 -35t-96.5 -99t-35.5 -151q0 -84 36 -150.5t98 -105t141 -38.5
q77 0 137 29.5t88 81.5v97h-220v87zM486 -72q-6 -50 -24.5 -100.5t-44 -91.5t-52.5 -66l-68 31q16 18 35 54t35.5 81.5t23.5 91.5h95z" />
    <glyph glyph-name="gcommaaccent" unicode="&#x123;" horiz-adv-x="594" 
d="M285 71q39 0 73.5 21t56 61t21.5 97q0 51 -20.5 89.5t-55.5 59t-79 20.5q-65 0 -108 -48t-43 -129q0 -78 41 -124.5t114 -46.5zM261 0q-101 0 -163 69t-62 175q0 112 64 182t164 70q64 0 110.5 -30.5t63.5 -73.5v92h84v-431q0 -86 -37.5 -141.5t-96 -81.5t-124.5 -26
q-77 0 -120 14t-65 28l37 74q17 -13 52.5 -27.5t87.5 -14.5q48 0 88.5 18t65 54t24.5 90v74q-15 -41 -60.5 -77.5t-112.5 -36.5zM231 533q6 50 24.5 100.5t44 91.5t52.5 66l68 -31q-16 -18 -35 -54t-35.5 -81.5t-23.5 -91.5h-95z" />
    <glyph glyph-name="Hcircumflex" unicode="&#x124;" horiz-adv-x="764" 
d="M668 0h-97v316h-378v-316h-97v730h97v-326h378v326h97v-730zM551 787h-85l-85 112l-86 -112h-83l123 171h93z" />
    <glyph glyph-name="hcircumflex" unicode="&#x125;" horiz-adv-x="579" 
d="M510 0h-90v320q0 47 -32.5 74.5t-82.5 27.5q-35 0 -66.5 -14.5t-52 -42.5t-20.5 -72v-293h-91v763h84v-374q13 46 60.5 77t117.5 31q73 0 123 -41t50 -116v-340zM482 819h-85l-85 112l-86 -112h-83l123 171h93z" />
    <glyph glyph-name="Hbar" unicode="&#x126;" horiz-adv-x="764" 
d="M754 548h-743v77h743v-77zM668 0h-97v316h-378v-316h-97v730h97v-326h378v326h97v-730z" />
    <glyph glyph-name="hbar" unicode="&#x127;" horiz-adv-x="579" 
d="M315 586h-307v77h307v-77zM510 0h-90v320q0 47 -32.5 74.5t-82.5 27.5q-35 0 -66.5 -14.5t-52 -42.5t-20.5 -72v-293h-91v763h84v-374q13 46 60.5 77t117.5 31q73 0 123 -41t50 -116v-340z" />
    <glyph glyph-name="Itilde" unicode="&#x128;" horiz-adv-x="298" 
d="M198 0h-98v730h98v-730zM247 930h70q0 -70 -21 -103.5t-56 -33.5q-28 0 -49 11.5t-38 23.5q-16 11 -31 22t-30 11t-25.5 -17t-11.5 -46h-69q0 69 27.5 102.5t60.5 33.5q25 0 44 -11.5t37 -25.5q15 -11 29 -21t28 -10t24.5 17t10.5 47z" />
    <glyph glyph-name="itilde" unicode="&#x129;" horiz-adv-x="249" 
d="M170 0h-91v484h91v-484zM222 684h70q0 -70 -21 -103.5t-56 -33.5q-28 0 -49 11.5t-38 23.5q-16 11 -31 22t-30 11t-25.5 -17t-11.5 -46h-69q0 69 27.5 102.5t60.5 33.5q25 0 44 -11.5t37 -25.5q15 -11 29 -21t28 -10t24.5 17t10.5 47z" />
    <glyph glyph-name="Imacron" unicode="&#x12a;" horiz-adv-x="298" 
d="M198 0h-98v730h98v-730zM280 806h-262v72h262v-72z" />
    <glyph glyph-name="imacron" unicode="&#x12b;" horiz-adv-x="249" 
d="M170 0h-91v484h91v-484zM255 560h-262v72h262v-72z" />
    <glyph glyph-name="Ibreve" unicode="&#x12c;" horiz-adv-x="298" 
d="M198 0h-98v730h98v-730zM231 949h75q-5 -82 -48.5 -119.5t-108.5 -37.5t-108 37.5t-49 119.5h75q3 -46 22 -72t60 -26t60 25.5t22 72.5z" />
    <glyph glyph-name="ibreve" unicode="&#x12d;" horiz-adv-x="249" 
d="M170 0h-91v484h91v-484zM206 703h75q-5 -82 -48.5 -119.5t-108.5 -37.5t-108 37.5t-49 119.5h75q3 -46 22 -72t60 -26t60 25.5t22 72.5z" />
    <glyph glyph-name="Iogonek" unicode="&#x12e;" horiz-adv-x="298" 
d="M198 0h-98v730h98v-730zM214 -99l26 -38q-61 -62 -153 -62q-51 0 -80.5 21.5t-29.5 55.5q0 36 33 69.5t91 56.5l47 -4q-43 -21 -68.5 -42.5t-25.5 -43.5t17.5 -34.5t45.5 -12.5q30 0 55.5 9.5t41.5 24.5z" />
    <glyph glyph-name="iogonek" unicode="&#x12f;" horiz-adv-x="249" 
d="M77 594v98h95v-98h-95zM79 0v484h91v-484h-91zM198 -97l26 -38q-61 -62 -153 -62q-51 0 -80.5 21.5t-29.5 55.5q0 36 33 69.5t91 56.5l47 -4q-43 -21 -68.5 -42.5t-25.5 -43.5t17.5 -34.5t45.5 -12.5q30 0 55.5 9.5t41.5 24.5z" />
    <glyph glyph-name="Idotaccent" unicode="&#x130;" horiz-adv-x="298" 
d="M198 0h-98v730h98v-730zM191 787h-83v164h83v-164z" />
    <glyph glyph-name="dotlessi" unicode="&#x131;" horiz-adv-x="249" 
d="M170 0h-91v484h91v-484z" />
    <glyph glyph-name="IJ" unicode="&#x132;" horiz-adv-x="630" 
d="M198 0h-98v730h98v-730zM543 730v-536q0 -83 -52.5 -144.5t-155.5 -61.5q-27 0 -55 3t-45 12l18 82q10 -5 32 -8t40 -3q60 0 92.5 34t32.5 82v540h93z" />
    <glyph glyph-name="ij" unicode="&#x133;" horiz-adv-x="464" 
d="M77 594v98h95v-98h-95zM79 0v484h91v-484h-91zM399 594h-95v98h95v-98zM397 484v-525q0 -49 -18.5 -85.5t-51 -56t-74.5 -19.5q-23 0 -49 4.5t-42 13.5l14 74q11 -5 27.5 -8.5t34.5 -3.5q28 0 48.5 24t20.5 66v516h90z" />
    <glyph glyph-name="Jcircumflex" unicode="&#x134;" horiz-adv-x="406" 
d="M325 730v-536q0 -83 -52.5 -144.5t-155.5 -61.5q-27 0 -55 3t-45 12l18 82q10 -5 32 -8t40 -3q60 0 92.5 34t32.5 82v540h93zM448 787h-85l-85 112l-86 -112h-83l123 171h93z" />
    <glyph glyph-name="jcircumflex" unicode="&#x135;" horiz-adv-x="263" 
d="M191 484v-525q0 -49 -18.5 -85.5t-51 -56t-74.5 -19.5q-23 0 -49 4.5t-42 13.5l14 74q11 -5 27.5 -8.5t34.5 -3.5q28 0 48.5 24t20.5 66v516h90zM313 541h-85l-85 112l-86 -112h-83l123 171h93z" />
    <glyph glyph-name="Kcommaaccent" unicode="&#x136;" horiz-adv-x="683" 
d="M672 0h-123l-258 330l-98 -118v-212h-97v730h97v-398l324 398h114l-274 -328zM436 -75q-6 -50 -24.5 -100.5t-44 -91.5t-52.5 -66l-68 31q16 18 35 54t35.5 81.5t23.5 91.5h95z" />
    <glyph glyph-name="kcommaaccent" unicode="&#x137;" horiz-adv-x="529" 
d="M547 1l-107 -1l-180 224l-95 -100v-124h-90v763h88v-542l237 263h102l-183 -198zM363 -75q-6 -50 -24.5 -100.5t-44 -91.5t-52.5 -66l-68 31q16 18 35 54t35.5 81.5t23.5 91.5h95z" />
    <glyph glyph-name="kgreenlandic" unicode="&#x138;" horiz-adv-x="529" 
d="M547 1l-107 -1l-180 224l-95 -100v-124h-90v484h88v-263l237 263h102l-183 -198z" />
    <glyph glyph-name="Lacute" unicode="&#x139;" horiz-adv-x="515" 
d="M505 0h-409v730h97v-644h312v-86zM216 790l106 163h107l-122 -163h-91z" />
    <glyph glyph-name="lacute" unicode="&#x13a;" horiz-adv-x="286" 
d="M75 117v646h87v-621q0 -36 18.5 -52.5t47.5 -16.5q13 0 26 1.5t20 3.5l2 -77q-9 -2 -26.5 -4.5t-36.5 -2.5q-34 0 -66 12t-52 39.5t-20 71.5zM78 822l106 163h107l-122 -163h-91z" />
    <glyph glyph-name="Lcommaaccent" unicode="&#x13b;" horiz-adv-x="515" 
d="M505 0h-409v730h97v-644h312v-86zM373 -75q-6 -50 -24.5 -100.5t-44 -91.5t-52.5 -66l-68 31q16 18 35 54t35.5 81.5t23.5 91.5h95z" />
    <glyph glyph-name="lcommaaccent" unicode="&#x13c;" horiz-adv-x="286" 
d="M75 117v646h87v-621q0 -36 18.5 -52.5t47.5 -16.5q13 0 26 1.5t20 3.5l2 -77q-9 -2 -26.5 -4.5t-36.5 -2.5q-34 0 -66 12t-52 39.5t-20 71.5zM232 -75q-6 -50 -24.5 -100.5t-44 -91.5t-52.5 -66l-68 31q16 18 35 54t35.5 81.5t23.5 91.5h95z" />
    <glyph glyph-name="Lcaron" unicode="&#x13d;" horiz-adv-x="515" 
d="M505 0h-409v730h97v-644h312v-86zM507 612l-4 -142h-76l-5 142v118h85v-118z" />
    <glyph glyph-name="lcaron" unicode="&#x13e;" horiz-adv-x="286" 
d="M75 117v646h87v-621q0 -36 18.5 -52.5t47.5 -16.5q13 0 26 1.5t20 3.5l2 -77q-9 -2 -26.5 -4.5t-36.5 -2.5q-34 0 -66 12t-52 39.5t-20 71.5zM318 612l-4 -142h-76l-5 142v118h85v-118z" />
    <glyph glyph-name="Ldot" unicode="&#x13f;" horiz-adv-x="515" 
d="M505 0h-409v730h97v-644h312v-86zM403 281h-83v164h83v-164z" />
    <glyph glyph-name="ldot" unicode="&#x140;" horiz-adv-x="286" 
d="M75 117v646h87v-621q0 -36 18.5 -52.5t47.5 -16.5q13 0 26 1.5t20 3.5l2 -77q-9 -2 -26.5 -4.5t-36.5 -2.5q-34 0 -66 12t-52 39.5t-20 71.5zM323 200h-83v164h83v-164z" />
    <glyph glyph-name="Lslash" unicode="&#x141;" horiz-adv-x="515" 
d="M35 247l-32 67l365 149l31 -67zM96 0v730h97v-646h298v-84h-395z" />
    <glyph glyph-name="lslash" unicode="&#x142;" horiz-adv-x="286" 
d="M213 -6q-34 0 -66 12t-52 39.5t-20 71.5v646h87v-621q0 -36 18.5 -52.5t47.5 -16.5q13 0 26 1.5t20 3.5l2 -77q-9 -2 -26.5 -4.5t-36.5 -2.5zM21 247l-26 62l254 119l27 -61z" />
    <glyph glyph-name="Nacute" unicode="&#x143;" horiz-adv-x="786" 
d="M690 0h-69l-433 556v-556h-92v730h74l428 -552v552h92v-730zM288 790l106 163h107l-122 -163h-91z" />
    <glyph glyph-name="nacute" unicode="&#x144;" horiz-adv-x="579" 
d="M510 0h-90v322q0 47 -32.5 73.5t-82.5 26.5q-34 0 -66 -14.5t-52.5 -43t-20.5 -74.5v-290h-91v484h83v-96q17 48 65.5 78.5t112.5 30.5q74 0 124 -41.5t50 -111.5v-344zM192 544l106 163h107l-122 -163h-91z" />
    <glyph glyph-name="Ncommaaccent" unicode="&#x145;" horiz-adv-x="786" 
d="M690 0h-69l-433 556v-556h-92v730h74l428 -552v552h92v-730zM465 -75q-6 -50 -24.5 -100.5t-44 -91.5t-52.5 -66l-68 31q16 18 35 54t35.5 81.5t23.5 91.5h95z" />
    <glyph glyph-name="ncommaaccent" unicode="&#x146;" horiz-adv-x="579" 
d="M510 0h-90v322q0 47 -32.5 73.5t-82.5 26.5q-34 0 -66 -14.5t-52.5 -43t-20.5 -74.5v-290h-91v484h83v-96q17 48 65.5 78.5t112.5 30.5q74 0 124 -41.5t50 -111.5v-344zM356 -75q-6 -50 -24.5 -100.5t-44 -91.5t-52.5 -66l-68 31q16 18 35 54t35.5 81.5t23.5 91.5h95z
" />
    <glyph glyph-name="Ncaron" unicode="&#x147;" horiz-adv-x="786" 
d="M690 0h-69l-433 556v-556h-92v730h74l428 -552v552h92v-730zM225 958h85l85 -112l86 112h83l-123 -171h-93z" />
    <glyph glyph-name="ncaron" unicode="&#x148;" horiz-adv-x="579" 
d="M510 0h-90v322q0 47 -32.5 73.5t-82.5 26.5q-34 0 -66 -14.5t-52.5 -43t-20.5 -74.5v-290h-91v484h83v-96q17 48 65.5 78.5t112.5 30.5q74 0 124 -41.5t50 -111.5v-344zM129 712h85l85 -112l86 112h83l-123 -171h-93z" />
    <glyph glyph-name="Eng" unicode="&#x14a;" horiz-adv-x="790" 
d="M690 463v-459q0 -89 -50 -147t-140 -58q-32 0 -62 5t-50 15l14 80q15 -6 40.5 -11t49.5 -5q51 0 80 34.5t29 84.5v461h89zM690 0h-69l-433 556v-556h-92v730h74l428 -552v552h92v-730z" />
    <glyph glyph-name="eng" unicode="&#x14b;" horiz-adv-x="579" 
d="M510 232v-273q0 -49 -18.5 -85.5t-51 -56t-74.5 -19.5q-23 0 -49 4.5t-42 13.5l14 74q11 -5 27.5 -8.5t34.5 -3.5q28 0 48.5 24t20.5 66v264h90zM510 0h-90v322q0 47 -32.5 73.5t-82.5 26.5q-34 0 -66 -14.5t-52.5 -43t-20.5 -74.5v-290h-91v484h83v-96q17 48 65.5 78.5
t112.5 30.5q74 0 124 -41.5t50 -111.5v-344z" />
    <glyph glyph-name="Omacron" unicode="&#x14c;" horiz-adv-x="843" 
d="M427 76q76 0 137 35.5t96.5 101t35.5 155.5q0 83 -36 147t-100 100.5t-144 36.5q-78 0 -139 -34t-95.5 -97.5t-34.5 -151.5q0 -91 38 -156.5t101.5 -101t140.5 -35.5zM425 -12q-112 0 -197 49.5t-132.5 136t-47.5 196.5q0 106 49 190t132.5 133t187.5 49
q111 0 196.5 -47.5t134 -132.5t48.5 -195q0 -111 -51 -196.5t-135 -134t-185 -48.5zM548 806h-262v72h262v-72z" />
    <glyph glyph-name="omacron" unicode="&#x14d;" horiz-adv-x="585" 
d="M289 -11q-66 0 -123.5 30t-93.5 87t-36 135q0 71 34.5 129t92 92.5t126.5 34.5q71 0 130.5 -30.5t95 -85t35.5 -127.5q0 -77 -35 -136.5t-94.5 -94t-131.5 -34.5zM293 69q72 0 117.5 50.5t45.5 128.5q0 72 -46 120.5t-124 48.5q-46 0 -81 -22.5t-55 -62t-20 -91.5
q0 -54 21.5 -92.5t58.5 -59t83 -20.5zM421 560h-262v72h262v-72z" />
    <glyph glyph-name="Obreve" unicode="&#x14e;" horiz-adv-x="843" 
d="M427 76q76 0 137 35.5t96.5 101t35.5 155.5q0 83 -36 147t-100 100.5t-144 36.5q-78 0 -139 -34t-95.5 -97.5t-34.5 -151.5q0 -91 38 -156.5t101.5 -101t140.5 -35.5zM425 -12q-112 0 -197 49.5t-132.5 136t-47.5 196.5q0 106 49 190t132.5 133t187.5 49
q111 0 196.5 -47.5t134 -132.5t48.5 -195q0 -111 -51 -196.5t-135 -134t-185 -48.5zM499 949h75q-5 -82 -48.5 -119.5t-108.5 -37.5t-108 37.5t-49 119.5h75q3 -46 22 -72t60 -26t60 25.5t22 72.5z" />
    <glyph glyph-name="obreve" unicode="&#x14f;" horiz-adv-x="585" 
d="M289 -11q-66 0 -123.5 30t-93.5 87t-36 135q0 71 34.5 129t92 92.5t126.5 34.5q71 0 130.5 -30.5t95 -85t35.5 -127.5q0 -77 -35 -136.5t-94.5 -94t-131.5 -34.5zM293 69q72 0 117.5 50.5t45.5 128.5q0 72 -46 120.5t-124 48.5q-46 0 -81 -22.5t-55 -62t-20 -91.5
q0 -54 21.5 -92.5t58.5 -59t83 -20.5zM372 703h75q-5 -82 -48.5 -119.5t-108.5 -37.5t-108 37.5t-49 119.5h75q3 -46 22 -72t60 -26t60 25.5t22 72.5z" />
    <glyph glyph-name="Ohungarumlaut" unicode="&#x150;" horiz-adv-x="843" 
d="M427 76q76 0 137 35.5t96.5 101t35.5 155.5q0 83 -36 147t-100 100.5t-144 36.5q-78 0 -139 -34t-95.5 -97.5t-34.5 -151.5q0 -91 38 -156.5t101.5 -101t140.5 -35.5zM425 -12q-112 0 -197 49.5t-132.5 136t-47.5 196.5q0 106 49 190t132.5 133t187.5 49
q111 0 196.5 -47.5t134 -132.5t48.5 -195q0 -111 -51 -196.5t-135 -134t-185 -48.5zM229 786l95 150h96l-111 -150h-80zM414 786l95 150h97l-112 -150h-80z" />
    <glyph glyph-name="ohungarumlaut" unicode="&#x151;" horiz-adv-x="585" 
d="M289 -11q-66 0 -123.5 30t-93.5 87t-36 135q0 71 34.5 129t92 92.5t126.5 34.5q71 0 130.5 -30.5t95 -85t35.5 -127.5q0 -77 -35 -136.5t-94.5 -94t-131.5 -34.5zM293 69q72 0 117.5 50.5t45.5 128.5q0 72 -46 120.5t-124 48.5q-46 0 -81 -22.5t-55 -62t-20 -91.5
q0 -54 21.5 -92.5t58.5 -59t83 -20.5zM102 540l95 150h96l-111 -150h-80zM287 540l95 150h97l-112 -150h-80z" />
    <glyph glyph-name="OE" unicode="&#x152;" horiz-adv-x="1181" 
d="M423 74q75 0 136.5 34t98.5 99.5t37 161.5q0 95 -43.5 158t-107 94.5t-124.5 31.5q-77 0 -138.5 -35t-98 -99.5t-36.5 -152.5q0 -93 37.5 -158t100 -99.5t138.5 -34.5zM412 -12q-108 0 -190 49t-128 135t-46 197q0 105 49 189.5t132.5 134t187.5 49.5q55 0 111.5 -20.5
t101.5 -56t64 -82.5v147h413v-87h-321v-238h306v-85h-306v-234h341v-86h-433v161q-19 -49 -58 -88t-96 -62t-128 -23z" />
    <glyph glyph-name="oe" unicode="&#x153;" horiz-adv-x="982" 
d="M293 69q48 0 85 21.5t57.5 62t20.5 95.5q0 49 -21 87t-59 60t-88 22q-47 0 -82.5 -22.5t-55.5 -62.5t-20 -91q0 -54 21 -92.5t58 -59t84 -20.5zM290 -11q-69 0 -127 31.5t-92.5 87.5t-34.5 133q0 70 34.5 128.5t92 93t128.5 34.5q61 0 104 -20t69.5 -50t36.5 -59
q9 26 37.5 56t72.5 51.5t100 21.5q114 0 179 -76.5t65 -205.5h-409q3 -64 50.5 -106t120.5 -42q64 0 98.5 20.5t58.5 45.5l56 -57q-33 -37 -79.5 -62t-132.5 -25q-89 0 -147 42t-71 86q-8 -27 -35.5 -56.5t-72 -50.5t-102.5 -21zM548 284h317q-3 58 -45 97.5t-112 39.5
q-69 0 -111 -41t-49 -96z" />
    <glyph glyph-name="Racute" unicode="&#x154;" horiz-adv-x="617" 
d="M96 0v730h218q61 0 109 -24t75.5 -68t27.5 -105q0 -96 -51 -147.5t-113 -58.5l-3 -3l228 -324h-114l-209 303h-72v-303h-96zM192 385h97q61 0 100 35t39 101q0 56 -36 90.5t-97 34.5h-103v-261zM195 790l106 163h107l-122 -163h-91z" />
    <glyph glyph-name="racute" unicode="&#x155;" horiz-adv-x="426" 
d="M426 466l-42 -79q-18 16 -41 23t-49 7q-48 0 -88 -37.5t-40 -98.5v-281h-91v484h85v-102q10 40 54 77t111 37q33 0 58.5 -8t42.5 -22zM147 544l106 163h107l-122 -163h-91z" />
    <glyph glyph-name="Rcommaaccent" unicode="&#x156;" horiz-adv-x="617" 
d="M96 0v730h218q61 0 109 -24t75.5 -68t27.5 -105q0 -96 -51 -147.5t-113 -58.5l-3 -3l228 -324h-114l-209 303h-72v-303h-96zM192 385h97q61 0 100 35t39 101q0 56 -36 90.5t-97 34.5h-103v-261zM391 -75q-6 -50 -24.5 -100.5t-44 -91.5t-52.5 -66l-68 31q16 18 35 54
t35.5 81.5t23.5 91.5h95z" />
    <glyph glyph-name="rcommaaccent" unicode="&#x157;" horiz-adv-x="426" 
d="M426 466l-42 -79q-18 16 -41 23t-49 7q-48 0 -88 -37.5t-40 -98.5v-281h-91v484h85v-102q10 40 54 77t111 37q33 0 58.5 -8t42.5 -22zM317 -75q-6 -50 -24.5 -100.5t-44 -91.5t-52.5 -66l-68 31q16 18 35 54t35.5 81.5t23.5 91.5h95z" />
    <glyph glyph-name="Rcaron" unicode="&#x158;" horiz-adv-x="617" 
d="M96 0v730h218q61 0 109 -24t75.5 -68t27.5 -105q0 -96 -51 -147.5t-113 -58.5l-3 -3l228 -324h-114l-209 303h-72v-303h-96zM192 385h97q61 0 100 35t39 101q0 56 -36 90.5t-97 34.5h-103v-261zM132 958h85l85 -112l86 112h83l-123 -171h-93z" />
    <glyph glyph-name="rcaron" unicode="&#x159;" horiz-adv-x="426" 
d="M426 466l-42 -79q-18 16 -41 23t-49 7q-48 0 -88 -37.5t-40 -98.5v-281h-91v484h85v-102q10 40 54 77t111 37q33 0 58.5 -8t42.5 -22zM84 712h85l85 -112l86 112h83l-123 -171h-93z" />
    <glyph glyph-name="Sacute" unicode="&#x15a;" horiz-adv-x="546" 
d="M282 -12q-83 0 -145.5 24.5t-103.5 66.5l60 75q30 -36 81 -58.5t107 -22.5q55 0 92.5 30t37.5 78q0 44 -33 77.5t-116 67.5q-70 29 -115.5 59.5t-67.5 71t-22 101.5q0 82 58.5 133t154.5 51q68 0 119 -21t90 -53l-51 -79q-34 29 -74 46.5t-84 17.5q-55 0 -87 -27.5
t-32 -68.5q0 -48 35 -78t128 -69q106 -44 149 -94.5t43 -129.5q0 -93 -66.5 -145.5t-157.5 -52.5zM164 790l106 163h107l-122 -163h-91z" />
    <glyph glyph-name="sacute" unicode="&#x15b;" horiz-adv-x="440" 
d="M235 -11q-68 0 -118 17t-83 46l43 62q29 -23 70 -37t85 -14q38 0 62.5 19t24.5 49q0 26 -26 45t-93 39q-53 15 -86 35.5t-48.5 48.5t-15.5 63q0 60 49 97t123 37q62 0 105 -17t66 -35l-39 -64q-24 16 -57 29.5t-73 13.5q-33 0 -60 -14t-27 -41q0 -24 18.5 -39.5
t89.5 -37.5q82 -25 121.5 -59.5t39.5 -94.5q0 -46 -22.5 -79t-61 -51t-87.5 -18zM119 544l106 163h107l-122 -163h-91z" />
    <glyph glyph-name="Scircumflex" unicode="&#x15c;" horiz-adv-x="546" 
d="M282 -12q-83 0 -145.5 24.5t-103.5 66.5l60 75q30 -36 81 -58.5t107 -22.5q55 0 92.5 30t37.5 78q0 44 -33 77.5t-116 67.5q-70 29 -115.5 59.5t-67.5 71t-22 101.5q0 82 58.5 133t154.5 51q68 0 119 -21t90 -53l-51 -79q-34 29 -74 46.5t-84 17.5q-55 0 -87 -27.5
t-32 -68.5q0 -48 35 -78t128 -69q106 -44 149 -94.5t43 -129.5q0 -93 -66.5 -145.5t-157.5 -52.5zM440 787h-85l-85 112l-86 -112h-83l123 171h93z" />
    <glyph glyph-name="scircumflex" unicode="&#x15d;" horiz-adv-x="440" 
d="M235 -11q-68 0 -118 17t-83 46l43 62q29 -23 70 -37t85 -14q38 0 62.5 19t24.5 49q0 26 -26 45t-93 39q-53 15 -86 35.5t-48.5 48.5t-15.5 63q0 60 49 97t123 37q62 0 105 -17t66 -35l-39 -64q-24 16 -57 29.5t-73 13.5q-33 0 -60 -14t-27 -41q0 -24 18.5 -39.5
t89.5 -37.5q82 -25 121.5 -59.5t39.5 -94.5q0 -46 -22.5 -79t-61 -51t-87.5 -18zM395 541h-85l-85 112l-86 -112h-83l123 171h93z" />
    <glyph glyph-name="Scedilla" unicode="&#x15e;" horiz-adv-x="546" 
d="M282 -12q-83 0 -145.5 24.5t-103.5 66.5l60 75q30 -36 81 -58.5t107 -22.5q55 0 92.5 30t37.5 78q0 44 -33 77.5t-116 67.5q-70 29 -115.5 59.5t-67.5 71t-22 101.5q0 82 58.5 133t154.5 51q68 0 119 -21t90 -53l-51 -79q-34 29 -74 46.5t-84 17.5q-55 0 -87 -27.5
t-32 -68.5q0 -48 35 -78t128 -69q106 -44 149 -94.5t43 -129.5q0 -93 -66.5 -145.5t-157.5 -52.5zM271 -193q-36 0 -73.5 9t-58.5 23l12 41q14 -8 38 -16t53 -8q22 0 39.5 10t17.5 27q0 19 -15 26.5t-33 7.5q-20 0 -41 -6l-13 14l60 72h56l-50 -62q52 11 87.5 -8t35.5 -55
q0 -38 -34.5 -56.5t-80.5 -18.5z" />
    <glyph glyph-name="scedilla" unicode="&#x15f;" horiz-adv-x="440" 
d="M235 -11q-68 0 -118 17t-83 46l43 62q29 -23 70 -37t85 -14q38 0 62.5 19t24.5 49q0 26 -26 45t-93 39q-53 15 -86 35.5t-48.5 48.5t-15.5 63q0 60 49 97t123 37q62 0 105 -17t66 -35l-39 -64q-24 16 -57 29.5t-73 13.5q-33 0 -60 -14t-27 -41q0 -24 18.5 -39.5
t89.5 -37.5q82 -25 121.5 -59.5t39.5 -94.5q0 -46 -22.5 -79t-61 -51t-87.5 -18zM222 -190q-36 0 -73.5 9t-58.5 23l12 41q14 -8 38 -16t53 -8q22 0 39.5 10t17.5 27q0 19 -15 26.5t-33 7.5q-20 0 -41 -6l-13 14l60 72h56l-50 -62q52 11 87.5 -8t35.5 -55q0 -38 -34.5 -56.5
t-80.5 -18.5z" />
    <glyph glyph-name="Scaron" unicode="&#x160;" horiz-adv-x="546" 
d="M282 -12q-83 0 -145.5 24.5t-103.5 66.5l60 75q30 -36 81 -58.5t107 -22.5q55 0 92.5 30t37.5 78q0 44 -33 77.5t-116 67.5q-70 29 -115.5 59.5t-67.5 71t-22 101.5q0 82 58.5 133t154.5 51q68 0 119 -21t90 -53l-51 -79q-34 29 -74 46.5t-84 17.5q-55 0 -87 -27.5
t-32 -68.5q0 -48 35 -78t128 -69q106 -44 149 -94.5t43 -129.5q0 -93 -66.5 -145.5t-157.5 -52.5zM101 958h85l85 -112l86 112h83l-123 -171h-93z" />
    <glyph glyph-name="scaron" unicode="&#x161;" horiz-adv-x="440" 
d="M235 -11q-68 0 -118 17t-83 46l43 62q29 -23 70 -37t85 -14q38 0 62.5 19t24.5 49q0 26 -26 45t-93 39q-53 15 -86 35.5t-48.5 48.5t-15.5 63q0 60 49 97t123 37q62 0 105 -17t66 -35l-39 -64q-24 16 -57 29.5t-73 13.5q-33 0 -60 -14t-27 -41q0 -24 18.5 -39.5
t89.5 -37.5q82 -25 121.5 -59.5t39.5 -94.5q0 -46 -22.5 -79t-61 -51t-87.5 -18zM56 712h85l85 -112l86 112h83l-123 -171h-93z" />
    <glyph glyph-name="Tcaron" unicode="&#x164;" horiz-adv-x="541" 
d="M531 644h-215v-644h-97v644h-209v86h521v-86zM100 958h85l85 -112l86 112h83l-123 -171h-93z" />
    <glyph glyph-name="tcaron" unicode="&#x165;" horiz-adv-x="314" 
d="M293 84l7 -75q-10 -7 -31.5 -11t-45.5 -4q-36 0 -68 13t-52 42.5t-20 79.5v277h-72v78h72v120l90 11v-131h115v-78h-115v-266q0 -36 17 -52t49 -16q15 0 31.5 4.5t22.5 7.5zM384 612l-4 -142h-76l-5 142v118h85v-118z" />
    <glyph glyph-name="Tbar" unicode="&#x166;" horiz-adv-x="541" 
d="M452 451h-371v77h371v-77zM531 644h-215v-644h-97v644h-209v86h521v-86z" />
    <glyph glyph-name="tbar" unicode="&#x167;" horiz-adv-x="314" 
d="M270 257h-251v77h251v-77zM293 84l7 -75q-10 -7 -31.5 -11t-45.5 -4q-36 0 -68 13t-52 42.5t-20 79.5v277h-72v78h72v120l90 11v-131h115v-78h-115v-266q0 -36 17 -52t49 -16q15 0 31.5 4.5t22.5 7.5z" />
    <glyph glyph-name="Utilde" unicode="&#x168;" horiz-adv-x="750" 
d="M661 730v-464q0 -87 -38.5 -149.5t-103.5 -95.5t-145 -33q-78 0 -142.5 32t-103.5 94t-39 152v464h95v-468q0 -83 55.5 -134t133.5 -51t135.5 49t57.5 136v468h95zM472 930h70q0 -70 -21 -103.5t-56 -33.5q-28 0 -49 11.5t-38 23.5q-16 11 -31 22t-30 11t-25.5 -17
t-11.5 -46h-69q0 69 27.5 102.5t60.5 33.5q25 0 44 -11.5t37 -25.5q15 -11 29 -21t28 -10t24.5 17t10.5 47z" />
    <glyph glyph-name="utilde" unicode="&#x169;" horiz-adv-x="579" 
d="M69 484h90v-307q0 -58 34 -85.5t88 -27.5q53 0 92.5 33.5t39.5 94.5v292h91v-484h-86v96q-17 -44 -62.5 -75.5t-111.5 -31.5q-73 0 -124 42t-51 123v330zM384 684h70q0 -70 -21 -103.5t-56 -33.5q-28 0 -49 11.5t-38 23.5q-16 11 -31 22t-30 11t-25.5 -17t-11.5 -46h-69
q0 69 27.5 102.5t60.5 33.5q25 0 44 -11.5t37 -25.5q15 -11 29 -21t28 -10t24.5 17t10.5 47z" />
    <glyph glyph-name="Umacron" unicode="&#x16a;" horiz-adv-x="750" 
d="M661 730v-464q0 -87 -38.5 -149.5t-103.5 -95.5t-145 -33q-78 0 -142.5 32t-103.5 94t-39 152v464h95v-468q0 -83 55.5 -134t133.5 -51t135.5 49t57.5 136v468h95zM505 806h-262v72h262v-72z" />
    <glyph glyph-name="umacron" unicode="&#x16b;" horiz-adv-x="579" 
d="M69 484h90v-307q0 -58 34 -85.5t88 -27.5q53 0 92.5 33.5t39.5 94.5v292h91v-484h-86v96q-17 -44 -62.5 -75.5t-111.5 -31.5q-73 0 -124 42t-51 123v330zM417 560h-262v72h262v-72z" />
    <glyph glyph-name="Ubreve" unicode="&#x16c;" horiz-adv-x="750" 
d="M661 730v-464q0 -87 -38.5 -149.5t-103.5 -95.5t-145 -33q-78 0 -142.5 32t-103.5 94t-39 152v464h95v-468q0 -83 55.5 -134t133.5 -51t135.5 49t57.5 136v468h95zM456 949h75q-5 -82 -48.5 -119.5t-108.5 -37.5t-108 37.5t-49 119.5h75q3 -46 22 -72t60 -26t60 25.5
t22 72.5z" />
    <glyph glyph-name="ubreve" unicode="&#x16d;" horiz-adv-x="579" 
d="M69 484h90v-307q0 -58 34 -85.5t88 -27.5q53 0 92.5 33.5t39.5 94.5v292h91v-484h-86v96q-17 -44 -62.5 -75.5t-111.5 -31.5q-73 0 -124 42t-51 123v330zM368 703h75q-5 -82 -48.5 -119.5t-108.5 -37.5t-108 37.5t-49 119.5h75q3 -46 22 -72t60 -26t60 25.5t22 72.5z" />
    <glyph glyph-name="Uring" unicode="&#x16e;" horiz-adv-x="750" 
d="M661 730v-464q0 -87 -38.5 -149.5t-103.5 -95.5t-145 -33q-78 0 -142.5 32t-103.5 94t-39 152v464h95v-468q0 -83 55.5 -134t133.5 -51t135.5 49t57.5 136v468h95zM374 785q-49 0 -83 34.5t-34 83.5t34 83t83 34q50 0 84 -34t34 -83t-34 -83.5t-84 -34.5zM374 841
q26 0 43.5 17.5t17.5 44.5q0 26 -17.5 44t-43.5 18q-25 0 -43 -18t-18 -44q0 -27 18 -44.5t43 -17.5z" />
    <glyph glyph-name="uring" unicode="&#x16f;" horiz-adv-x="579" 
d="M69 484h90v-307q0 -58 34 -85.5t88 -27.5q53 0 92.5 33.5t39.5 94.5v292h91v-484h-86v96q-17 -44 -62.5 -75.5t-111.5 -31.5q-73 0 -124 42t-51 123v330zM286 539q-49 0 -83 34.5t-34 83.5t34 83t83 34q50 0 84 -34t34 -83t-34 -83.5t-84 -34.5zM286 595q26 0 43.5 17.5
t17.5 44.5q0 26 -17.5 44t-43.5 18q-25 0 -43 -18t-18 -44q0 -27 18 -44.5t43 -17.5z" />
    <glyph glyph-name="Uhungarumlaut" unicode="&#x170;" horiz-adv-x="750" 
d="M661 730v-464q0 -87 -38.5 -149.5t-103.5 -95.5t-145 -33q-78 0 -142.5 32t-103.5 94t-39 152v464h95v-468q0 -83 55.5 -134t133.5 -51t135.5 49t57.5 136v468h95zM186 786l95 150h96l-111 -150h-80zM371 786l95 150h97l-112 -150h-80z" />
    <glyph glyph-name="uhungarumlaut" unicode="&#x171;" horiz-adv-x="579" 
d="M69 484h90v-307q0 -58 34 -85.5t88 -27.5q53 0 92.5 33.5t39.5 94.5v292h91v-484h-86v96q-17 -44 -62.5 -75.5t-111.5 -31.5q-73 0 -124 42t-51 123v330zM98 540l95 150h96l-111 -150h-80zM283 540l95 150h97l-112 -150h-80z" />
    <glyph glyph-name="Uogonek" unicode="&#x172;" horiz-adv-x="750" 
d="M661 730v-464q0 -87 -38.5 -149.5t-103.5 -95.5t-145 -33q-78 0 -142.5 32t-103.5 94t-39 152v464h95v-468q0 -83 55.5 -134t133.5 -51t135.5 49t57.5 136v468h95zM534 -97l26 -38q-61 -62 -153 -62q-51 0 -80.5 21.5t-29.5 55.5q0 36 33 69.5t91 56.5l47 -4
q-43 -21 -68.5 -42.5t-25.5 -43.5t17.5 -34.5t45.5 -12.5q30 0 55.5 9.5t41.5 24.5z" />
    <glyph glyph-name="uogonek" unicode="&#x173;" horiz-adv-x="579" 
d="M69 484h90v-307q0 -58 34 -85.5t88 -27.5q53 0 92.5 33.5t39.5 94.5v292h91v-484h-86v96q-17 -44 -62.5 -75.5t-111.5 -31.5q-73 0 -124 42t-51 123v330zM537 -97l26 -38q-61 -62 -153 -62q-51 0 -80.5 21.5t-29.5 55.5q0 36 33 69.5t91 56.5l47 -4q-43 -21 -68.5 -42.5
t-25.5 -43.5t17.5 -34.5t45.5 -12.5q30 0 55.5 9.5t41.5 24.5z" />
    <glyph glyph-name="Wcircumflex" unicode="&#x174;" horiz-adv-x="929" 
d="M921 730l-225 -737h-55l-175 560l-182 -560h-54l-221 737h98l158 -542l177 542h55l174 -543l159 543h91zM638 787h-85l-85 112l-86 -112h-83l123 171h93z" />
    <glyph glyph-name="wcircumflex" unicode="&#x175;" horiz-adv-x="716" 
d="M486 -3l-123 310l-133 -310h-52l-172 487h95l115 -349l123 300h54l116 -299l115 348h87l-173 -487h-52zM532 541h-85l-85 112l-86 -112h-83l123 171h93z" />
    <glyph glyph-name="Ycircumflex" unicode="&#x176;" horiz-adv-x="632" 
d="M653 730l-279 -411v-319h-98v323l-275 407h110l219 -321l219 321h104zM498 787h-85l-85 112l-86 -112h-83l123 171h93z" />
    <glyph glyph-name="ycircumflex" unicode="&#x177;" horiz-adv-x="508" 
d="M510 484l-271 -568q-34 -71 -78 -93.5t-83 -22.5q-23 0 -39.5 5t-23.5 7l26 82q5 -2 16.5 -5.5t24.5 -3.5q24 0 44.5 15.5t41.5 57.5l38 77l-209 449h98l159 -355l162 355h94zM425 541h-85l-85 112l-86 -112h-83l123 171h93z" />
    <glyph glyph-name="Ydieresis" unicode="&#x178;" horiz-adv-x="654" 
d="M653 730l-279 -411v-319h-98v323l-275 407h110l219 -321l219 321h104zM458 787h-77v158h77v-158zM273 787h-77v158h77v-158z" />
    <glyph glyph-name="Zacute" unicode="&#x179;" horiz-adv-x="574" 
d="M554 730v-41l-402 -603h415v-86h-549v40l399 603h-367v87h504zM188 790l106 163h107l-122 -163h-91z" />
    <glyph glyph-name="zacute" unicode="&#x17a;" horiz-adv-x="431" 
d="M406 484v-42l-256 -362h270v-80h-405v33l261 371h-248v80h378zM117 544l106 163h107l-122 -163h-91z" />
    <glyph glyph-name="Zdotaccent" unicode="&#x17b;" horiz-adv-x="574" 
d="M554 730v-41l-402 -603h415v-86h-549v40l399 603h-367v87h504zM336 787h-83v164h83v-164z" />
    <glyph glyph-name="zdotaccent" unicode="&#x17c;" horiz-adv-x="431" 
d="M406 484v-42l-256 -362h270v-80h-405v33l261 371h-248v80h378zM265 541h-83v164h83v-164z" />
    <glyph glyph-name="Zcaron" unicode="&#x17d;" horiz-adv-x="591" 
d="M554 730v-41l-402 -603h415v-86h-549v40l399 603h-367v87h504zM125 958h85l85 -112l86 112h83l-123 -171h-93z" />
    <glyph glyph-name="zcaron" unicode="&#x17e;" horiz-adv-x="431" 
d="M406 484v-42l-256 -362h270v-80h-405v33l261 371h-248v80h378zM54 712h85l85 -112l86 112h83l-123 -171h-93z" />
    <glyph glyph-name="florin" unicode="&#x192;" horiz-adv-x="366" 
d="M43 406h284v-73h-284v73zM104 -29l58 657q5 55 43 83.5t77 28.5q20 0 39 -1.5t23 -2.5l-8 -78q-9 3 -30 3q-28 0 -46 -19t-21 -59l-56 -644q-5 -48 -39 -83t-87 -35q-26 0 -50.5 4t-36.5 10l8 65q7 -1 21 -4t28 -3q30 0 51.5 20.5t25.5 57.5z" />
    <glyph glyph-name="Scommaaccent" unicode="&#x218;" horiz-adv-x="546" 
d="M282 -12q-83 0 -145.5 24.5t-103.5 66.5l60 75q30 -36 81 -58.5t107 -22.5q55 0 92.5 30t37.5 78q0 44 -33 77.5t-116 67.5q-70 29 -115.5 59.5t-67.5 71t-22 101.5q0 82 58.5 133t154.5 51q68 0 119 -21t90 -53l-51 -79q-34 29 -74 46.5t-84 17.5q-55 0 -87 -27.5
t-32 -68.5q0 -48 35 -78t128 -69q106 -44 149 -94.5t43 -129.5q0 -93 -66.5 -145.5t-157.5 -52.5zM357 -80q-6 -50 -24.5 -100.5t-44 -91.5t-52.5 -66l-68 31q16 18 35 54t35.5 81.5t23.5 91.5h95z" />
    <glyph glyph-name="scommaaccent" unicode="&#x219;" horiz-adv-x="440" 
d="M235 -11q-68 0 -118 17t-83 46l43 62q29 -23 70 -37t85 -14q38 0 62.5 19t24.5 49q0 26 -26 45t-93 39q-53 15 -86 35.5t-48.5 48.5t-15.5 63q0 60 49 97t123 37q62 0 105 -17t66 -35l-39 -64q-24 16 -57 29.5t-73 13.5q-33 0 -60 -14t-27 -41q0 -24 18.5 -39.5
t89.5 -37.5q82 -25 121.5 -59.5t39.5 -94.5q0 -46 -22.5 -79t-61 -51t-87.5 -18zM308 -77q-6 -50 -24.5 -100.5t-44 -91.5t-52.5 -66l-68 31q16 18 35 54t35.5 81.5t23.5 91.5h95z" />
    <glyph glyph-name="Tcommaaccent" unicode="&#x21a;" horiz-adv-x="541" 
d="M531 644h-215v-644h-97v644h-209v86h521v-86zM333 -75q-6 -50 -24.5 -100.5t-44 -91.5t-52.5 -66l-68 31q16 18 35 54t35.5 81.5t23.5 91.5h95z" />
    <glyph glyph-name="tcommaaccent" unicode="&#x21b;" horiz-adv-x="314" 
d="M293 84l7 -75q-10 -7 -31.5 -11t-45.5 -4q-36 0 -68 13t-52 42.5t-20 79.5v277h-72v78h72v120l90 11v-131h115v-78h-115v-266q0 -36 17 -52t49 -16q15 0 31.5 4.5t22.5 7.5zM244 -75q-6 -50 -24.5 -100.5t-44 -91.5t-52.5 -66l-68 31q16 18 35 54t35.5 81.5t23.5 91.5h95
z" />
    <glyph glyph-name="dotlessj" unicode="&#x237;" horiz-adv-x="263" 
d="M191 484v-525q0 -49 -18.5 -85.5t-51 -56t-74.5 -19.5q-23 0 -49 4.5t-42 13.5l14 74q11 -5 27.5 -8.5t34.5 -3.5q28 0 48.5 24t20.5 66v516h90z" />
    <glyph glyph-name="circumflex" unicode="&#x2c6;" 
d="M420 541h-85l-85 112l-86 -112h-83l123 171h93z" />
    <glyph glyph-name="caron" unicode="&#x2c7;" 
d="M81 712h85l85 -112l86 112h83l-123 -171h-93z" />
    <glyph glyph-name="breve" unicode="&#x2d8;" 
d="M332 703h75q-5 -82 -48.5 -119.5t-108.5 -37.5t-108 37.5t-49 119.5h75q3 -46 22 -72t60 -26t60 25.5t22 72.5z" />
    <glyph glyph-name="dotaccent" unicode="&#x2d9;" 
d="M292 541h-83v164h83v-164z" />
    <glyph glyph-name="ring" unicode="&#x2da;" horiz-adv-x="508" 
d="M254 539q-49 0 -83 34.5t-34 83.5t34 83t83 34q50 0 84 -34t34 -83t-34 -83.5t-84 -34.5zM254 595q26 0 43.5 17.5t17.5 44.5q0 26 -17.5 44t-43.5 18q-25 0 -43 -18t-18 -44q0 -27 18 -44.5t43 -17.5z" />
    <glyph glyph-name="ogonek" unicode="&#x2db;" 
d="M362 -89l26 -38q-61 -62 -153 -62q-51 0 -80.5 21.5t-29.5 55.5q0 36 33 69.5t91 56.5l47 -4q-43 -21 -68.5 -42.5t-25.5 -43.5t17.5 -34.5t45.5 -12.5q30 0 55.5 9.5t41.5 24.5z" />
    <glyph glyph-name="tilde" unicode="&#x2dc;" 
d="M349 684h70q0 -70 -21 -103.5t-56 -33.5q-28 0 -49 11.5t-38 23.5q-16 11 -31 22t-30 11t-25.5 -17t-11.5 -46h-69q0 69 27.5 102.5t60.5 33.5q25 0 44 -11.5t37 -25.5q15 -11 29 -21t28 -10t24.5 17t10.5 47z" />
    <glyph glyph-name="hungarumlaut" unicode="&#x2dd;" 
d="M74 540l95 150h96l-111 -150h-80zM259 540l95 150h97l-112 -150h-80z" />
    <glyph glyph-name="gravecmb" unicode="&#x300;" horiz-adv-x="0" 
d="M107 540h-91l-122 163h106z" />
    <glyph glyph-name="acutecmb" unicode="&#x301;" horiz-adv-x="0" 
d="M-106 544l106 163h107l-122 -163h-91z" />
    <glyph glyph-name="circumflexcmb" unicode="&#x302;" horiz-adv-x="0" 
d="M170 541h-85l-85 112l-86 -112h-83l123 171h93z" />
    <glyph glyph-name="tildecmb" unicode="&#x303;" horiz-adv-x="0" 
d="M98 684h70q0 -70 -21 -103.5t-56 -33.5q-28 0 -49 11.5t-38 23.5q-16 11 -31 22t-30 11t-25.5 -17t-11.5 -46h-69q0 69 27.5 102.5t60.5 33.5q25 0 44 -11.5t37 -25.5q15 -11 29 -21t28 -10t24.5 17t10.5 47z" />
    <glyph glyph-name="macroncmb" unicode="&#x304;" horiz-adv-x="0" 
d="M131 560h-262v72h262v-72z" />
    <glyph glyph-name="brevecmb" unicode="&#x306;" horiz-adv-x="0" 
d="M82 703h75q-5 -82 -48.5 -119.5t-108.5 -37.5t-108 37.5t-49 119.5h75q3 -46 22 -72t60 -26t60 25.5t22 72.5z" />
    <glyph glyph-name="dotaccentcmb" unicode="&#x307;" horiz-adv-x="0" 
d="M42 541h-83v164h83v-164z" />
    <glyph glyph-name="dieresiscmb" unicode="&#x308;" horiz-adv-x="0" 
d="M130 541h-77v158h77v-158zM-55 541h-77v158h77v-158z" />
    <glyph glyph-name="ringcmb" unicode="&#x30a;" horiz-adv-x="0" 
d="M0 539q-49 0 -83 34.5t-34 83.5t34 83t83 34q50 0 84 -34t34 -83t-34 -83.5t-84 -34.5zM0 595q26 0 43.5 17.5t17.5 44.5q0 26 -17.5 44t-43.5 18q-25 0 -43 -18t-18 -44q0 -27 18 -44.5t43 -17.5z" />
    <glyph glyph-name="hungarumlautcmb" unicode="&#x30b;" horiz-adv-x="0" 
d="M-188 540l95 150h96l-111 -150h-80zM-3 540l95 150h97l-112 -150h-80z" />
    <glyph glyph-name="caroncmb" unicode="&#x30c;" horiz-adv-x="0" 
d="M-169 712h85l85 -112l86 112h83l-123 -171h-93z" />
    <glyph glyph-name="commaaccent" unicode="&#x326;" 
d="M131 522q6 50 24.5 100.5t44 91.5t52.5 66l68 -31q-16 -18 -35 -54t-35.5 -81.5t-23.5 -91.5h-95z" />
    <glyph glyph-name="cedillacmb" unicode="&#x327;" horiz-adv-x="0" 
d="M9 -188q-36 0 -73.5 9t-58.5 23l12 41q14 -8 38 -16t53 -8q22 0 39.5 10t17.5 27q0 19 -15 26.5t-33 7.5q-20 0 -41 -6l-13 14l60 72h56l-50 -62q52 11 87.5 -8t35.5 -55q0 -38 -34.5 -56.5t-80.5 -18.5z" />
    <glyph glyph-name="ogonekcmb" unicode="&#x328;" horiz-adv-x="0" 
d="M107 -89l26 -38q-61 -62 -153 -62q-51 0 -80.5 21.5t-29.5 55.5q0 36 33 69.5t91 56.5l47 -4q-43 -21 -68.5 -42.5t-25.5 -43.5t17.5 -34.5t45.5 -12.5q30 0 55.5 9.5t41.5 24.5z" />
    <glyph glyph-name="pi" unicode="&#x3c0;" horiz-adv-x="591" 
d="M169 405v-405h-91v405h-53v79h537v-79h-54v-405h-91v405h-248z" />
    <glyph glyph-name="Wgrave" unicode="&#x1e80;" horiz-adv-x="929" 
d="M921 730l-225 -737h-55l-175 560l-182 -560h-54l-221 737h98l158 -542l177 542h55l174 -543l159 543h91zM575 786h-91l-122 163h106z" />
    <glyph glyph-name="wgrave" unicode="&#x1e81;" horiz-adv-x="716" 
d="M486 -3l-123 310l-133 -310h-52l-172 487h95l115 -349l123 300h54l116 -299l115 348h87l-173 -487h-52zM469 540h-91l-122 163h106z" />
    <glyph glyph-name="Wacute" unicode="&#x1e82;" horiz-adv-x="929" 
d="M921 730l-225 -737h-55l-175 560l-182 -560h-54l-221 737h98l158 -542l177 542h55l174 -543l159 543h91zM362 790l106 163h107l-122 -163h-91z" />
    <glyph glyph-name="wacute" unicode="&#x1e83;" horiz-adv-x="716" 
d="M486 -3l-123 310l-133 -310h-52l-172 487h95l115 -349l123 300h54l116 -299l115 348h87l-173 -487h-52zM256 544l106 163h107l-122 -163h-91z" />
    <glyph glyph-name="Wdieresis" unicode="&#x1e84;" horiz-adv-x="929" 
d="M921 730l-225 -737h-55l-175 560l-182 -560h-54l-221 737h98l158 -542l177 542h55l174 -543l159 543h91zM598 787h-77v158h77v-158zM413 787h-77v158h77v-158z" />
    <glyph glyph-name="wdieresis" unicode="&#x1e85;" horiz-adv-x="716" 
d="M486 -3l-123 310l-133 -310h-52l-172 487h95l115 -349l123 300h54l116 -299l115 348h87l-173 -487h-52zM492 541h-77v158h77v-158zM307 541h-77v158h77v-158z" />
    <glyph glyph-name="Ygrave" unicode="&#x1ef2;" horiz-adv-x="632" 
d="M653 730l-279 -411v-319h-98v323l-275 407h110l219 -321l219 321h104zM435 786h-91l-122 163h106z" />
    <glyph glyph-name="ygrave" unicode="&#x1ef3;" horiz-adv-x="508" 
d="M510 484l-271 -568q-34 -71 -78 -93.5t-83 -22.5q-23 0 -39.5 5t-23.5 7l26 82q5 -2 16.5 -5.5t24.5 -3.5q24 0 44.5 15.5t41.5 57.5l38 77l-209 449h98l159 -355l162 355h94zM362 540h-91l-122 163h106z" />
    <glyph glyph-name="endash" unicode="&#x2013;" horiz-adv-x="460" 
d="M420 227h-379v78h379v-78z" />
    <glyph glyph-name="emdash" unicode="&#x2014;" horiz-adv-x="645" 
d="M605 227h-564v78h564v-78z" />
    <glyph glyph-name="quoteleft" unicode="&#x2018;" horiz-adv-x="269" 
d="M34 507v7q0 56 35 115.5t94 107.5l90 -6q-19 -12 -48 -44.5t-51.5 -77.5t-22.5 -94v-8h-97z" />
    <glyph glyph-name="quoteright" unicode="&#x2019;" horiz-adv-x="269" 
d="M235 737v-7q0 -56 -35.5 -114t-93.5 -109l-90 6q29 25 75.5 83.5t46.5 132.5v8h97z" />
    <glyph glyph-name="quotesinglbase" unicode="&#x201a;" horiz-adv-x="269" 
d="M235 112v-7q0 -55 -35.5 -113.5t-93.5 -109.5l-90 6q29 25 75.5 83.5t46.5 132.5v8h97z" />
    <glyph glyph-name="quotedblleft" unicode="&#x201c;" horiz-adv-x="446" 
d="M223 507v7q0 56 32.5 112t92.5 111l82 -6q-20 -17 -47.5 -49t-49.5 -75t-22 -92v-8h-88zM34 507v7q0 56 34 112t90 111l83 -6q-18 -16 -46.5 -48t-51 -75.5t-22.5 -92.5v-8h-87z" />
    <glyph glyph-name="quotedblright" unicode="&#x201d;" horiz-adv-x="446" 
d="M223 737v-7q0 -56 -31 -112t-94 -111l-82 6q34 29 76.5 85.5t42.5 130.5v8h88zM412 737v-7q0 -56 -32 -113t-92 -110l-83 6q35 29 77.5 85.5t42.5 130.5v8h87z" />
    <glyph glyph-name="quotedblbase" unicode="&#x201e;" horiz-adv-x="446" 
d="M223 116v-7q0 -56 -31 -112t-94 -111l-82 6q34 29 76.5 85.5t42.5 130.5v8h88zM412 116v-7q0 -56 -32 -113t-92 -110l-83 6q35 29 77.5 85.5t42.5 130.5v8h87z" />
    <glyph glyph-name="dagger" unicode="&#x2020;" horiz-adv-x="565" 
d="M540 389h-213v-568h-95v568h-207v81h207v260h95v-260h213v-81z" />
    <glyph glyph-name="daggerdbl" unicode="&#x2021;" horiz-adv-x="565" 
d="M233 -179v291h-204v82h204v189h-204v81h204v266h94v-266h209v-81h-209v-189h209v-82h-209v-291h-94z" />
    <glyph glyph-name="bullet" unicode="&#x2022;" horiz-adv-x="382" 
d="M191 463q35 0 59.5 -24.5t24.5 -59.5t-24.5 -59t-59.5 -24t-59 24t-24 59t24 59.5t59 24.5z" />
    <glyph glyph-name="ellipsis" unicode="&#x2026;" horiz-adv-x="705" 
d="M72 0v127h92v-127h-92zM306 0v127h92v-127h-92zM541 0v127h92v-127h-92z" />
    <glyph glyph-name="perthousand" unicode="&#x2030;" horiz-adv-x="1174" 
d="M603 68q41 0 63 33t22 88q0 54 -21 88t-62 34q-38 0 -60 -33.5t-22 -88.5q0 -59 23.5 -90t56.5 -31zM604 -3q-62 0 -112.5 50t-50.5 142q0 79 46.5 136t117.5 57q74 0 118.5 -56.5t44.5 -133.5q0 -81 -46 -138t-118 -57zM125 547q0 -58 23.5 -89.5t56.5 -31.5
q41 0 62.5 33.5t21.5 87.5t-19.5 88t-62.5 34q-39 0 -60.5 -34t-21.5 -88zM133 0l458 730h78l-458 -730h-78zM207 356q-62 0 -113.5 49.5t-51.5 141.5q0 79 47.5 136t116.5 57q73 0 118.5 -56t45.5 -134q0 -81 -46.5 -137.5t-116.5 -56.5zM967 68q40 0 62.5 33t22.5 88
q0 54 -20.5 88t-62.5 34q-38 0 -60 -33.5t-22 -88.5q0 -59 24 -90t56 -31zM968 -3q-62 0 -113 50t-51 142q0 79 47 136t118 57q73 0 118 -56.5t45 -133.5q0 -81 -46 -138t-118 -57z" />
    <glyph glyph-name="guilsinglleft" unicode="&#x2039;" horiz-adv-x="237" 
d="M208 93l-180 167v61l180 165v-93l-102 -105l102 -100v-95z" />
    <glyph glyph-name="guilsinglright" unicode="&#x203a;" horiz-adv-x="238" 
d="M30 487l180 -168v-60l-180 -165v92l101 105l-101 100v96z" />
    <glyph glyph-name="fraction" unicode="&#x2044;" horiz-adv-x="145" 
d="M302 730l-368 -730h-79l369 730h78z" />
    <glyph glyph-name="Euro" unicode="&#x20ac;" horiz-adv-x="567" 
d="M491 252h-453v69h453v-69zM494 158l70 -42q-32 -56 -91 -92t-132 -36q-75 0 -134 46t-93.5 129.5t-34.5 198.5q0 106 30 192.5t88.5 137t142.5 50.5q88 0 138.5 -34.5t75.5 -81.5l-72 -38q-21 37 -54.5 59.5t-87.5 22.5q-82 0 -129 -79t-47 -228q0 -100 24.5 -167
t65.5 -101.5t89 -34.5q52 0 91 29.5t60 68.5zM491 396h-453v68h453v-68z" />
    <glyph glyph-name="trademark" unicode="&#x2122;" horiz-adv-x="901" 
d="M844 301h-82v297l-139 -197h-17l-138 195v-295h-79v429h70l156 -217l154 217h75v-429zM360 640h-127v-339h-89v339h-124v90h340v-90z" />
    <glyph glyph-name="Omega" unicode="&#x2126;" horiz-adv-x="769" 
d="M51 0v83h211v72q-99 39 -159.5 116.5t-60.5 173.5q0 126 92 213.5t247 87.5q160 0 252.5 -88t92.5 -213q0 -96 -56 -173t-164 -117v-72h211v-83h-285v201q91 33 143 98t52 141q0 101 -70 165.5t-176 64.5q-103 0 -171 -65t-68 -167q0 -74 51 -137.5t144 -99.5v-201h-286z
" />
    <glyph glyph-name="partialdiff" unicode="&#x2202;" horiz-adv-x="576" 
d="M282 53q70 0 114 49.5t44 134.5q0 70 -42 118t-116 48q-67 0 -110.5 -48.5t-43.5 -126.5q0 -83 43.5 -129t110.5 -46zM533 282q0 -101 -34 -166t-91.5 -96t-127.5 -31q-62 0 -118 28.5t-92 81.5t-36 126q0 65 32 120.5t85.5 89.5t120.5 34t115 -32t70 -80
q-12 139 -61 225t-115 125.5t-131 42.5l42 52q51 0 109.5 -28t111 -89t86.5 -160.5t34 -242.5z" />
    <glyph glyph-name="Delta" unicode="&#x2206;" horiz-adv-x="648" 
d="M647 0h-646l301 731h47zM518 77l-197 492l-196 -492h393z" />
    <glyph glyph-name="product" unicode="&#x220f;" horiz-adv-x="700" 
d="M224 649v-649h-93v649h-116v81h670v-81h-111v-649h-93v649h-257z" />
    <glyph glyph-name="summation" unicode="&#x2211;" horiz-adv-x="618" 
d="M175 647l249 -340l-281 -403h429v-83h-586l340 485l-310 424h535v-83h-376z" />
    <glyph glyph-name="minus" unicode="&#x2212;" horiz-adv-x="514" 
d="M473 294h-432v75h432v-75z" />
    <glyph glyph-name="radical" unicode="&#x221a;" horiz-adv-x="510" 
d="M502 730l-304 -730h-12l-173 328l65 48l125 -250l241 604h58z" />
    <glyph glyph-name="integral" unicode="&#x222b;" horiz-adv-x="337" 
d="M107 -29l59 657q4 55 40.5 83.5t75.5 28.5q20 0 39 -1.5t23 -2.5l-8 -78q-9 3 -30 3q-28 0 -46 -18.5t-21 -59.5l-56 -644q-5 -48 -39 -83.5t-87 -34.5q-27 0 -51 5t-36 12l9 64q6 -1 20 -5t28 -4q30 0 53 20.5t27 57.5z" />
    <glyph glyph-name="approxequal" unicode="&#x2248;" 
d="M382 498h71q-1 -73 -26 -116t-77 -43q-33 0 -58.5 14t-43.5 29q-19 16 -40 29t-42 13q-23 0 -41 -22.5t-18 -61.5h-68q0 75 30 117t81 42q35 0 60 -15.5t45 -32.5q18 -14 37.5 -26t39.5 -12q27 0 38.5 21t11.5 64zM382 322h71q-1 -73 -26 -116t-77 -43q-33 0 -58.5 14
t-43.5 29q-19 16 -40 29t-42 13q-23 0 -41 -22t-18 -62h-68q0 75 30 117t81 42q35 0 60 -16t45 -32q18 -14 37.5 -26t39.5 -12q27 0 38.5 21t11.5 64z" />
    <glyph glyph-name="notequal" unicode="&#x2260;" 
d="M457 388h-392v77h392v-77zM457 176h-392v77h392v-77zM117 93l230 482l53 -24l-230 -483z" />
    <glyph glyph-name="lessequal" unicode="&#x2264;" 
d="M62 296v58l371 204v-82l-283 -149l283 -152v-82zM61 83h372v-64h-372v64z" />
    <glyph glyph-name="greaterequal" unicode="&#x2265;" 
d="M432 296l-371 -203v82l283 152l-283 149v82l371 -204v-58zM433 83v-64h-372v64h372z" />
    <glyph glyph-name="lozenge" unicode="&#x25ca;" horiz-adv-x="532" 
d="M503 326l-231 -341h-11l-231 341v11l231 340h11l231 -340v-11zM418 327v9l-147 222h-8l-148 -222v-9l148 -223h8z" />
    <glyph glyph-name="apple" unicode="&#xf8ff;" horiz-adv-x="730" 
d="M448 679h-166v51h166v-51zM659 282h-53v166h53v-166zM427 303h-124v124h124v-124zM124 282h-53v166h53v-166zM448 0h-166v52h166v-52z" />
    <glyph glyph-name="fi" unicode="&#xfb01;" horiz-adv-x="603" 
d="M354 411h-144v-411h-90v411h-104v73h104v67q0 114 62 166t132 52q22 0 44.5 -4t34.5 -9l-14 -79q-8 4 -25.5 7t-34.5 3q-38 0 -74 -32t-36 -94v-77h145v-73zM526 0h-89v484h89v-484z" />
    <glyph glyph-name="fl" unicode="&#xfb02;" horiz-adv-x="631" 
d="M354 411h-144v-411h-90v411h-104v73h104v66q0 113 62 165.5t132 52.5q22 0 44 -4.5t34 -9.5l-13 -79q-8 4 -23 7t-32 3q-38 0 -76.5 -32t-38.5 -94v-75h145v-73zM421 117v646h87v-621q0 -36 18 -52.5t48 -16.5q13 0 25.5 1.5t20.5 3.5l1 -77q-8 -2 -26 -4.5t-36 -2.5
q-35 0 -66.5 12t-51.5 39.5t-20 71.5z" />
    <glyph glyph-name="commaaccentcmb" horiz-adv-x="0" 
d="M95 -75q-6 -50 -24.5 -100.5t-44 -91.5t-52.5 -66l-68 31q16 18 35 54t35.5 81.5t23.5 91.5h95z" />
    <glyph glyph-name="lacute.altsize" horiz-adv-x="242" 
d="M77 822l106 163h107l-122 -163h-91zM166 763v-763h-90v763h90z" />
    <glyph glyph-name="lcaron.altsize" horiz-adv-x="242" 
d="M166 763v-763h-90v763h90zM308 612l-4 -142h-76l-5 142v118h85v-118z" />
    <glyph glyph-name="ldot.altsize" horiz-adv-x="242" 
d="M166 763v-763h-90v763h90zM313 205h-83v164h83v-164z" />
    <glyph glyph-name="l.altsize" horiz-adv-x="242" 
d="M166 763v-763h-90v763h90z" />
    <glyph glyph-name="foursuperior" horiz-adv-x="327" 
d="M15 455v55l187 228h51v-225h62v-58h-62v-82h-74v82h-164zM75 502h106v132z" />
    <glyph glyph-name="lcommaaccent.altsize" horiz-adv-x="242" 
d="M166 763v-763h-90v763h90zM173 -75q-6 -50 -24.5 -100.5t-44 -91.5t-52.5 -66l-68 31q16 18 35 54t35.5 81.5t23.5 91.5h95z" />
    <glyph glyph-name="dollar.swap" horiz-adv-x="535" 
d="M234 -120v909h61v-909h-61zM268 1q-78 0 -140.5 24.5t-97.5 59.5l41 74q34 -34 92.5 -57.5t111.5 -23.5q59 0 96.5 30t37.5 79q0 29 -12 52t-48 46.5t-107 52.5q-108 46 -153 94t-45 122q0 77 60 126.5t153 49.5q67 0 122 -19t95 -57l-49 -66q-33 32 -78 48.5t-90 16.5
q-55 0 -90 -26.5t-35 -72.5q-1 -46 33.5 -74.5t132.5 -72.5q69 -31 113 -61t64.5 -67t20.5 -91q0 -84 -66 -135.5t-162 -51.5z" />
    <glyph glyph-name="cent.swap" horiz-adv-x="574" 
d="M320 81q-119 0 -195.5 75.5t-76.5 195.5q0 80 35.5 142.5t98 99t141.5 36.5q91 0 149.5 -41.5t82.5 -94.5l-75 -34q-22 38 -61.5 66t-98.5 28q-82 0 -133 -58.5t-51 -139.5q0 -85 50.5 -141t136.5 -56q70 0 108 31.5t58 63.5l66 -47q-30 -44 -84 -85t-151 -41zM276 -23
v749h74v-749h-74z" />
    <glyph glyph-name="Q.swap" horiz-adv-x="836" 
d="M425 -9q-114 0 -199 48.5t-131.5 133.5t-46.5 197q0 105 48.5 189t132 133.5t189.5 49.5q110 0 195.5 -47.5t134 -132t48.5 -197.5q0 -106 -49 -190.5t-132.5 -134t-189.5 -49.5zM425 77q77 0 138 35t97 100t36 156q0 87 -37.5 151t-101.5 98.5t-141 34.5q-78 0 -139 -34
t-95.5 -97.5t-34.5 -150.5q0 -92 38.5 -158t101.5 -100.5t138 -34.5zM707 -177q-88 2 -159.5 34t-116 87t-52.5 126h107q8 -72 74 -113t147 -43v-91z" />
    <glyph glyph-name="fi.swap" horiz-adv-x="604" 
d="M355 411h-144v-411h-90v411h-104v73h104v71q0 114 62 166t132 52q22 0 44.5 -3.5t33.5 -9.5l-13 -79q-8 4 -23 7t-32 3q-38 0 -76.5 -32t-38.5 -94v-81h145v-73zM528 0h-91v484h91v-484zM530 590h-95v91h95v-91z" />
    <glyph glyph-name="fl.altsize" horiz-adv-x="588" 
d="M355 411h-144v-411h-90v411h-104v73h104v63q0 113 62 167t132 54q22 0 44.5 -4t33.5 -9l-13 -79q-8 3 -23 6.5t-32 3.5q-38 0 -76.5 -33.5t-38.5 -95.5v-73h145v-73zM512 763v-763h-90v763h90z" />
    <glyph glyph-name="lslash.altsize" horiz-adv-x="242" 
d="M166 763v-763h-90v763h90zM21 247l-26 62l227 106l27 -61z" />
  </font>
</defs>
</svg>
