<svg xmlns="http://www.w3.org/2000/svg" viewBox="0 0 512 512"><!--! Font Awesome Pro 7.0.0 by @fontawesome - https://fontawesome.com License - https://fontawesome.com/license (Commercial License) Copyright 2025 Fonticons, Inc. --><path fill="currentColor" d="M112 32C50.1 32 0 82.1 0 144L0 368c0 61.9 50.1 112 112 112s112-50.1 112-112l0-224c0-61.9-50.1-112-112-112zM16 144c0-53 43-96 96-96s96 43 96 96l0 224c0 53-43 96-96 96s-96-43-96-96l0-224zM400 32c-61.9 0-112 50.1-112 112l0 224c0 61.9 50.1 112 112 112s112-50.1 112-112l0-224c0-61.9-50.1-112-112-112zM304 144c0-53 43-96 96-96s96 43 96 96l0 224c0 53-43 96-96 96s-96-43-96-96l0-224z"/></svg>