<svg xmlns="http://www.w3.org/2000/svg" viewBox="0 0 320 512"><!--! Font Awesome Pro 7.0.0 by @fontawesome - https://fontawesome.com License - https://fontawesome.com/license (Commercial License) Copyright 2025 Fonticons, Inc. --><path fill="currentColor" d="M204 264l-156 0 0-16 156 0c55.2 0 100-44.8 100-100S259.2 48 204 48L8 48 8 32 204 32c64.1 0 116 51.9 116 116 0 49.1-30.5 91.1-73.6 108 43.1 16.9 73.6 58.9 73.6 108 0 64.1-51.9 116-116 116l-204 0 0-16 204 0c55.2 0 100-44.8 100-100S259.2 264 204 264z"/></svg>