<svg xmlns="http://www.w3.org/2000/svg" viewBox="0 0 512 512"><!--! Font Awesome Pro 7.0.0 by @fontawesome - https://fontawesome.com License - https://fontawesome.com/license (Commercial License) Copyright 2025 Fonticons, Inc. --><path fill="currentColor" d="M48 16l0 480 384 0 0-480-384 0zM32 0l416 0 0 512-416 0 0-512zM504 80l0 72-16 0 0-80 16 0 0 8zm0 120l0 80-16 0 0-80 16 0zm0 136l0 72-16 0 0-80 16 0 0 8zM150.2 368l-16.9 0 26.7-80 160 0 26.7 80-16.9 0-21.3-64-136.9 0-21.3 64zM288 192a48 48 0 1 0 -96 0 48 48 0 1 0 96 0zm-112 0a64 64 0 1 1 128 0 64 64 0 1 1 -128 0z"/></svg>