<svg xmlns="http://www.w3.org/2000/svg" viewBox="0 0 576 512"><!--! Font Awesome Pro 7.0.0 by @fontawesome - https://fontawesome.com License - https://fontawesome.com/license (Commercial License) Copyright 2025 Fonticons, Inc. --><path fill="currentColor" d="M16 48l0 416 544 0 0-416-544 0zM0 32l576 0 0 448-576 0 0-448zM344 160l152 0 0 16-160 0 0-16 8 0zm0 80l152 0 0 16-160 0 0-16 8 0zM102.2 368l-16.9 0 26.7-80 160 0 26.7 80-16.9 0-21.3-64-136.9 0-21.3 64zM240 192a48 48 0 1 0 -96 0 48 48 0 1 0 96 0zm-112 0a64 64 0 1 1 128 0 64 64 0 1 1 -128 0z"/></svg>