<svg xmlns="http://www.w3.org/2000/svg" viewBox="0 0 512 512"><!--! Font Awesome Pro 7.0.0 by @fontawesome - https://fontawesome.com License - https://fontawesome.com/license (Commercial License) Copyright 2025 Fonticons, Inc. --><path fill="currentColor" d="M256 64c123.7 0 224 100.3 224 224 0 59-22.8 112.6-60.1 152.6l63.4 63.4-11.3 11.3-63.4-63.4C368.6 489.2 315 512 256 512s-112.6-22.8-152.6-60.1L40 515.3 28.7 504 92.1 440.6C54.8 400.6 32 347 32 288 32 164.3 132.3 64 256 64zm0 16a208 208 0 1 0 0 416 208 208 0 1 0 0-416zm96 216l-192 0 0-16 192 0 0 16zM100.2 .1c26 1.3 49.3 13.1 65.7 31.2-5.5 1.9-10.9 4-16.2 6.3-14.2-13.4-33.3-21.6-54.3-21.6-43.8 0-79.2 35.5-79.2 79.2 0 15.9 4.7 30.7 12.8 43.2-3.2 4.8-6.2 9.8-9.1 14.8-11.4-14.8-18.6-33.1-19.6-53.1L0 95.2C0 42.6 42.6 0 95.2 0l4.9 .1zM416.7 0C469.4 0 512 42.6 512 95.2l-.1 4.9c-1 19.9-8.2 38.2-19.6 53.1-2.9-5-5.9-10-9.1-14.8 8.1-12.4 12.8-27.2 12.8-43.2 0-43.8-35.5-79.2-79.3-79.2-21 0-40.2 8.2-54.3 21.6-5.3-2.3-10.7-4.4-16.2-6.3 16.4-18.1 39.6-29.9 65.7-31.2l4.9-.1z"/></svg>