<svg xmlns="http://www.w3.org/2000/svg" viewBox="0 0 512 512"><!--! Font Awesome Pro 7.1.0 by @fontawesome - https://fontawesome.com License - https://fontawesome.com/license (Commercial License) Copyright 2025 Fonticons, Inc. --><path fill="currentColor" d="M256 64c123.7 0 224 100.3 224 224 0 59-22.8 112.6-60.1 152.6l63.4 63.4-11.3 11.3-63.4-63.4C368.6 489.2 315 512 256 512s-112.6-22.8-152.6-60.1L40 515.3 28.7 504 92.1 440.6C54.8 400.6 32 347 32 288 32 164.3 132.3 64 256 64zm0 16a208 208 0 1 0 0 416 208 208 0 1 0 0-416zm12 331.8l-24 0 0-24 24 0 0 24zM264 352l-16 0-8-192 32 0-8 192zM95.2 0c28 0 53.2 12.1 70.6 31.3-5.5 1.9-10.9 4-16.2 6.3-14.2-13.4-33.3-21.6-54.4-21.6-43.8 0-79.2 35.5-79.2 79.2 0 15.9 4.7 30.7 12.8 43.2-3.2 4.8-6.2 9.8-9.1 14.8-12.3-16.1-19.7-36.2-19.7-58 0-52.6 42.6-95.2 95.2-95.2zM416.7 0c52.6 0 95.3 42.6 95.3 95.2 0 21.8-7.3 41.9-19.7 58-2.9-5-5.9-10-9.1-14.8 8.1-12.4 12.8-27.2 12.8-43.2 0-43.8-35.5-79.2-79.3-79.2-21 0-40.2 8.2-54.4 21.6-5.3-2.3-10.7-4.4-16.2-6.3 17.4-19.2 42.6-31.3 70.6-31.3z"/></svg>