<svg xmlns="http://www.w3.org/2000/svg" viewBox="0 0 512 512"><!--! Font Awesome Pro 7.0.0 by @fontawesome - https://fontawesome.com License - https://fontawesome.com/license (Commercial License) Copyright 2025 Fonticons, Inc. --><path fill="currentColor" d="M128.4 0l256 0 0 16-256 0 0-16zm-48 80l352 0 0 16-352 0 0-16zM10 160l492.7 0c-.9 7-3.1 25-6.7 54l-32 256-5.3 42-404.7 0-5.3-42-32-256c-3.6-29-5.9-46.9-6.7-54zm22.6 52l32 256 3.5 28 376.5 0 3.5-28 32-256 4.5-36-456.5 0 4.5 36zM256.4 432c70.1 0 121.1-45.9 121.1-96s-51.1-96-121.1-96-121.1 45.9-121.1 96 51.1 96 121.1 96zm0 16c-75.7 0-137.1-50.1-137.1-112s61.4-112 137.1-112 137.1 50.1 137.1 112-61.4 112-137.1 112zM235 336c0 7.4 8 16 21.4 16s21.4-8.6 21.4-16-8-16-21.4-16-21.4 8.6-21.4 16zm21.4-32c19.1 0 37.4 12.9 37.4 32s-18.3 32-37.4 32-37.4-12.9-37.4-32 18.3-32 37.4-32z"/></svg>