<svg xmlns="http://www.w3.org/2000/svg" viewBox="0 0 640 512"><!--! Font Awesome Pro 7.0.0 by @fontawesome - https://fontawesome.com License - https://fontawesome.com/license (Commercial License) Copyright 2025 Fonticons, Inc. --><path fill="currentColor" d="M344 72a56 56 0 1 1 -112 0 56 56 0 1 1 112 0zM288 0c-39.8 0-72 32.2-72 72 0 37.1 28 67.6 64 71.6l0 336.4-160 0 0-222.4 50.7 44.4 6 5.3 10.5-12-6-5.3-64-56-5.3-4.6-5.3 4.6-64 56-6 5.3 10.5 12 6-5.3 50.7-44.4 0 230.4 0 8 264 0 0-16-72 0 0-336.4c36-4 64-34.5 64-71.6 0-39.8-32.2-72-72-72zM528 240c26.5 0 48 21.5 48 48l0 64-96 0 0-64c0-26.5 21.5-48 48-48zm-64 48l0 64-48 0 0 192 224 0 0-192-48 0 0-64c0-35.3-28.7-64-64-64s-64 28.7-64 64zm-32 80l192 0 0 160-192 0 0-160z"/></svg>