<svg xmlns="http://www.w3.org/2000/svg" viewBox="0 0 512 512"><!--! Font Awesome Pro 7.0.0 by @fontawesome - https://fontawesome.com License - https://fontawesome.com/license (Commercial License) Copyright 2025 Fonticons, Inc. --><path fill="currentColor" d="M134 34.3l-5.7-5.7-5.7 5.7-120 120-5.7 5.7 11.3 11.3 5.7-5.7 106.3-106.3 0 420.7 16 0 0-420.7 112 112 11.3-11.3-5.7-5.7-120-120zM344.3 104a56 56 0 1 1 112 0 56 56 0 1 1 -112 0zm82.8 66.9l-44.7 69.1 19 0 56.5-87.5c9.3-14.5 14.3-31.3 14.3-48.5 0-39.8-32.2-72-72-72s-72 32.2-72 72 32.2 72 72 72c9.5 0 18.5-1.8 26.8-5.1zM344.3 304l0 16 48 0 0 144-48 0 0 16 112 0 0-16-48 0 0-160-64 0z"/></svg>