<svg xmlns="http://www.w3.org/2000/svg" viewBox="0 0 512 512"><!--! Font Awesome Pro 7.0.0 by @fontawesome - https://fontawesome.com License - https://fontawesome.com/license (Commercial License) Copyright 2025 Fonticons, Inc. --><path fill="currentColor" d="M498.7 509.7l5.7 5.7 11.3-11.3-168-168 100.7 0 0-16-128 0 0 128 16 0 0-100.7 162.3 162.3zM192.3 72l0-8-16 0 0 100.7-162.3-162.3-5.7-5.7-11.3 11.3 5.7 5.7 162.3 162.3-100.7 0 0 16 128 0 0-120zM515.6 8l-11.3-11.3-5.7 5.7-162.3 162.3 0-100.7-16 0 0 128 128 0 0-16-100.7 0 162.3-162.3 5.7-5.7zM64.3 320l0 16 100.7 0-162.3 162.3-5.7 5.7 11.3 11.3 5.7-5.7 162.3-162.3 0 100.7 16 0 0-128-128 0zM255.7 216a40 40 0 1 1 .6 80 40 40 0 1 1 -.6-80zm.6 96a56 56 0 1 0 -.6-112 56 56 0 1 0 .6 112z"/></svg>