<svg xmlns="http://www.w3.org/2000/svg" viewBox="0 0 448 512"><!--! Font Awesome Pro 7.0.0 by @fontawesome - https://fontawesome.com License - https://fontawesome.com/license (Commercial License) Copyright 2025 Fonticons, Inc. --><path fill="currentColor" d="M296 32l-8 0 0 16 132.7 0-196.7 196.7-196.7-196.7 132.7 0 0-16-160 0 0 160 16 0 0-132.7 196.7 196.7-196.7 196.7 0-132.7-16 0 0 160 160 0 0-16-132.7 0 196.7-196.7 196.7 196.7-132.7 0 0 16 160 0 0-160-16 0 0 132.7-196.7-196.7 196.7-196.7 0 132.7 16 0 0-160-152 0z"/></svg>