<svg xmlns="http://www.w3.org/2000/svg" viewBox="0 0 448 512"><!--! Font Awesome Pro 7.0.0 by @fontawesome - https://fontawesome.com License - https://fontawesome.com/license (Commercial License) Copyright 2025 Fonticons, Inc. --><path fill="currentColor" d="M8.3 0l-8 0 0 16 448 0 0-16-440 0zM102 98.3l-5.7-5.7-5.7 5.7-88 88-5.7 5.7 11.3 11.3 5.7-5.7 74.3-74.3 0 388.7 16 0 0-388.7 74.3 74.3 5.7 5.7 11.3-11.3-5.7-5.7-88-88zm256 0l-5.7-5.7-5.7 5.7-88 88-5.7 5.7 11.3 11.3 5.7-5.7 74.3-74.3 0 388.7 16 0 0-388.7 74.3 74.3 5.7 5.7 11.3-11.3-5.7-5.7-88-88z"/></svg>