<svg xmlns="http://www.w3.org/2000/svg" viewBox="0 0 512 512"><!--! Font Awesome Pro 7.1.0 by @fontawesome - https://fontawesome.com License - https://fontawesome.com/license (Commercial License) Copyright 2025 Fonticons, Inc. --><path fill="currentColor" d="M512 171.3L427.9 87.2c-45.6-45.6-107.4-71.2-171.9-71.2-132.5 0-240 107.5-240 240 0 61.4 23.4 122.9 70.3 169.7 93.7 93.7 245.7 93.7 339.4 0 22.6-22.6 39.7-48.5 51.3-76.1l14.7 6.2C479.3 385.4 461.1 413 437 437 337.1 537 174.9 537 75 437 25 387 0 321.5 0 256 0 114.6 114.6 0 256 0 324.7 0 390.6 27.3 439.2 75.9l56.8 56.8 0-132.7 16 0 0 171.3zM192 352l-16 0 0-171.1-43.6 21.8-7.2-14.3 7.2-3.6 59.6-29.8 0 196.9zM312 160c30.9 0 56 25.1 56 56l0 80c0 30.9-25.1 56-56 56l-16 0c-30.9 0-56-25.1-56-56l0-80c0-30.9 25.1-56 56-56l16 0zm-16 16c-22.1 0-40 17.9-40 40l0 80c0 22.1 17.9 40 40 40l16 0c22.1 0 40-17.9 40-40l0-80c0-22.1-17.9-40-40-40l-16 0z"/></svg>