<svg xmlns="http://www.w3.org/2000/svg" viewBox="0 0 384 512"><!--! Font Awesome Pro 7.0.0 by @fontawesome - https://fontawesome.com License - https://fontawesome.com/license (Commercial License) Copyright 2025 Fonticons, Inc. --><path fill="currentColor" d="M192 195.3l-5.7-5.7-88-88-5.7-5.7 11.3-11.3 5.7 5.7 74.3 74.3 0-196.7 16 0 0 196.7 74.3-74.3 5.7-5.7 11.3 11.3-5.7 5.7-88 88-5.7 5.7zm0 121.4l99.3 99.3-11.3 11.3-80-80 0 196.7-16 0 0-196.7-74.3 74.3-5.7 5.7-11.3-11.3 5.7-5.7 88-88 5.7-5.7zM32 240l0 32-32 0 0-32 32 0zm88 0l0 32-32 0 0-32 32 0zm88 0l0 32-32 0 0-32 32 0zm88 0l0 32-32 0 0-32 32 0zm88 0l0 32-32 0 0-32 32 0z"/></svg>