<svg xmlns="http://www.w3.org/2000/svg" viewBox="0 0 512 512"><!--! Font Awesome Pro 7.0.0 by @fontawesome - https://fontawesome.com License - https://fontawesome.com/license (Commercial License) Copyright 2025 Fonticons, Inc. --><path fill="currentColor" d="M2.7 261.7l-5.7-5.7 5.7-5.7 152-152 5.7-5.7 11.3 11.3-5.7 5.7-138.3 138.3 356.7 0 0 16-356.7 0 138.3 138.3 5.7 5.7-11.3 11.3-5.7-5.7-152-152zM480.3 96l0-32 32 0 0 32-32 0zm0 56l32 0 0 32-32 0 0-32zm32 120l-32 0 0-32 32 0 0 32zm-32 56l32 0 0 32-32 0 0-32zm0 120l0-32 32 0 0 32-32 0z"/></svg>