<svg xmlns="http://www.w3.org/2000/svg" viewBox="0 0 512 512"><!--! Font Awesome Pro 7.0.0 by @fontawesome - https://fontawesome.com License - https://fontawesome.com/license (Commercial License) Copyright 2025 Fonticons, Inc. --><path fill="currentColor" d="M510 122.3l5.7 5.7-5.7 5.7-120 120-5.7 5.7-11.3-11.3 5.7-5.7 106.3-106.3-484.7 0 0-16 484.7 0-106.3-106.3-5.7-5.7 11.3-11.3 5.7 5.7 120 120zM2.7 378.3l120-120 5.7-5.7 11.3 11.3-5.7 5.7-106.3 106.3 484.7 0 0 16-484.7 0 106.3 106.3 5.7 5.7-11.3 11.3-5.7-5.7-120-120-5.7-5.7 5.7-5.7z"/></svg>