<svg xmlns="http://www.w3.org/2000/svg" viewBox="0 0 512 512"><!--! Font Awesome Pro 7.0.0 by @fontawesome - https://fontawesome.com License - https://fontawesome.com/license (Commercial License) Copyright 2025 Fonticons, Inc. --><path fill="currentColor" d="M496 0l0 132.7-56.8-56.8C390.6 27.3 324.7 0 256 0 114.6 0 0 114.6 0 256S114.6 512 256 512 512 397.4 512 256l-16 0c0 132.5-107.4 240-240 240S16 388.5 16 256 123.5 16 256 16c64.5 0 126.3 25.6 171.9 71.2l56.8 56.8-132.7 0 0 16 160 0 0-160-16 0z"/></svg>