<svg xmlns="http://www.w3.org/2000/svg" viewBox="0 0 512 512"><!--! Font Awesome Pro 7.0.0 by @fontawesome - https://fontawesome.com License - https://fontawesome.com/license (Commercial License) Copyright 2025 Fonticons, Inc. --><path fill="currentColor" d="M174 410.3l-5.7-5.7-11.3 11.3 5.7 5.7 88 88 5.7 5.7 99.3-99.3-11.3-11.3-80 80 0-220.7 220.7 0-80 80 11.3 11.3 99.3-99.3-5.7-5.7-88-88-5.7-5.7-11.3 11.3 5.7 5.7 74.3 74.3-220.7 0 0-220.7 74.3 74.3 5.7 5.7 11.3-11.3-5.7-5.7-88-88-5.7-5.7-5.7 5.7-88 88-5.7 5.7 11.3 11.3 5.7-5.7 74.3-74.3 0 220.7-220.7 0 74.3-74.3 5.7-5.7-11.3-11.3-5.7 5.7-88 88-5.7 5.7 5.7 5.7 88 88 5.7 5.7 11.3-11.3-5.7-5.7-74.3-74.3 220.7 0 0 220.7-74.3-74.3z"/></svg>