<svg xmlns="http://www.w3.org/2000/svg" viewBox="0 0 640 512"><!--! Font Awesome Pro 7.0.0 by @fontawesome - https://fontawesome.com License - https://fontawesome.com/license (Commercial License) Copyright 2025 Fonticons, Inc. --><path fill="currentColor" d="M627.6 88l-238.6 238.6-160 80-96.5 96.5 17 17-45.2 45.2-93.2-93.2 45.2-45.3 17 17 96.5-96.5 80-160 238.6-238.6 139.3 139.3zM496.3 544a80 80 0 1 1 0-160 80 80 0 1 1 0 160zM33.6 472l70.6 70.6 22.6-22.6-70.6-70.6-22.6 22.6zm462.7-72a64 64 0 1 0 0 128 64 64 0 1 0 0-128zM84.5 455l36.7 36.7 91.7-91.8-36.7-36.7-91.7 91.8zM262.8 196.7L186 350.4 225.8 390.2 379.5 313.4 604.9 88 488.2-28.7 262.8 196.7z"/></svg>