<svg xmlns="http://www.w3.org/2000/svg" viewBox="0 0 576 512"><!--! Font Awesome Pro 7.0.0 by @fontawesome - https://fontawesome.com License - https://fontawesome.com/license (Commercial License) Copyright 2025 Fonticons, Inc. --><path fill="currentColor" d="M359.9 54.9l14.3 107.3 85.3-56.9 5.7-3.8 4.7 5 18.5 19.9C544.7 187.1 576 266.9 576 349.6l0 46.8-11.3-5.2-82.2-37.3-44.1 58.9-5.5 7.4-63.9-63.9-74.5 104.3-6.5 9.1-6.5-9.1-74.5-104.3-57.3 57.3-6.5 6.5-49.7-66.2-82.1 37.3-11.3 5.2 0-46.8c0-82.8 31.3-162.5 87.7-223.2l18.5-19.9 4.7-5 5.7 3.8 85.3 56.9 14.3-107.3 1.5-11.1 70.4 35.2 70.4-35.2 1.5 11.1zM291.6 95.1l-3.6 1.8-57.6-28.8-14.5 108.9-1.7 12.7-10.7-7.1-90.3-60.2-13.8 14.9C45.8 195.1 16 270.9 16 349.6l0 21.9 76.7-34.8 5.8-2.7 3.9 5.1 42.5 56.6 64.2-64.2 5.5 7.7 73.5 102.9 73.5-102.9 5.5-7.7 64.2 64.2 42.5-56.6 3.9-5.1 5.8 2.7 76.7 34.8 0-21.9c0-78.7-29.8-154.6-83.4-212.3l-13.9-14.9-90.3 60.2-10.7 7.1-1.7-12.7-14.5-108.9-54 27z"/></svg>