<svg xmlns="http://www.w3.org/2000/svg" viewBox="0 0 576 512"><!--! Font Awesome Pro 7.0.0 by @fontawesome - https://fontawesome.com License - https://fontawesome.com/license (Commercial License) Copyright 2025 Fonticons, Inc. --><path fill="currentColor" d="M256-32C227.9-32 202.8-18.8 186.7 1.7 172.1-14.1 151.2-24 128-24 83.8-24 48 11.8 48 56s35.8 80 80 80c23.2 0 44.1-9.9 58.7-25.7 16.1 20.5 41.1 33.7 69.3 33.7s53.1-13.2 69.3-33.7c14.6 15.8 35.5 25.7 58.7 25.7 44.2 0 80-35.8 80-80s-35.8-80-80-80C360.8-24 339.9-14.1 325.3 1.7 309.1-18.8 284.1-32 256-32zM194.1 19.2C206.7-1.9 229.7-16 256-16s49.3 14.1 61.9 35.2l6.4 10.7 7.1-10.2C342.9 2.9 362.2-8 384-8 419.3-8 448 20.7 448 56s-28.7 64-64 64c-21.8 0-41.1-10.9-52.7-27.6l-7.1-10.2-6.4 10.7C305.3 113.9 282.3 128 256 128s-49.3-14.1-61.9-35.2l-6.4-10.7-7.1 10.2c-11.6 16.7-30.8 27.6-52.7 27.6-35.3 0-64-28.7-64-64S92.7-8 128-8c21.8 0 41.1 10.9 52.7 27.6l7.1 10.2 6.4-10.7zM64 166.9l0 345.1 384 0 0-123.1 128-64 0-196.9-86.2 0c-3.9 5.7-8.2 11-12.9 16l83 0 0 171.1-112 56 0-204.2c-5.1 3-10.5 5.6-16 7.8l0 321.3-352 0 0-321.3c-5.5-2.2-10.9-4.9-16-7.8zM160 208l0 208 16 0 0-208-16 0zm192 0l-16 0 0 208 16 0 0-208zM248 416l16 0 0-208-16 0 0 208z"/></svg>