<svg xmlns="http://www.w3.org/2000/svg" viewBox="0 0 576 512"><!--! Font Awesome Pro 7.0.0 by @fontawesome - https://fontawesome.com License - https://fontawesome.com/license (Commercial License) Copyright 2025 Fonticons, Inc. --><path fill="currentColor" d="M21.7-21.6l-5.7-5.7-11.3 11.3 5.7 5.7 544.2 544 5.7 5.7 11.3-11.3-5.7-5.7-106.5-106.4 68.6 0-8.9-16-71.1-128 0-80c0-85.7-67.4-155.6-152-159.8l0-32.2-16 0 0 32.2c-54.3 2.7-101.6 32.5-128.4 76.1L21.7-21.6zM163.3 120c24.9-43 71.4-72 124.7-72 79.5 0 144 64.5 144 144l0 80c0 2.7 .7 5.4 2 7.8l66.8 120.2-57.4 0-280.1-280zM144 192l0-.8-15.2-15.2c-.5 5.3-.8 10.6-.8 16l0 80-71.1 128-8.9 16 320.8 0-16-16-277.6 0 66.8-120.2c1.3-2.4 2-5.1 2-7.8l0-80zm82 272c7.1 27.6 32.2 48 62 48s54.9-20.4 62-48l-16.7 0c-6.6 18.6-24.4 32-45.3 32s-38.7-13.4-45.3-32L226 464z"/></svg>