<svg xmlns="http://www.w3.org/2000/svg" viewBox="0 0 512 512"><!--! Font Awesome Pro 7.0.0 by @fontawesome - https://fontawesome.com License - https://fontawesome.com/license (Commercial License) Copyright 2025 Fonticons, Inc. --><path fill="currentColor" d="M264 0l-16 0 0 32.2C163.4 36.4 96 106.3 96 192l0 80-71.1 128-8.9 16 480 0-8.9-16-71.1-128 0-80c0-85.7-67.4-155.6-152-159.8L264 0zM468.8 400L43.2 400 110 279.8c1.3-2.4 2-5 2-7.8l0-80c0-79.5 64.5-144 144-144s144 64.5 144 144l0 80c0 2.7 .7 5.4 2 7.8L468.8 400zM194 464c7.1 27.6 32.2 48 62 48s54.9-20.4 62-48l-16.7 0c-6.6 18.6-24.4 32-45.3 32s-38.7-13.4-45.3-32L194 464z"/></svg>