<svg xmlns="http://www.w3.org/2000/svg" viewBox="0 0 640 512"><!--! Font Awesome Pro 7.0.0 by @fontawesome - https://fontawesome.com License - https://fontawesome.com/license (Commercial License) Copyright 2025 Fonticons, Inc. --><path fill="currentColor" d="M76.7 158.4l-66 83.9-10.7 13.6 16.8 4.6 213.2 58.8-4.7-17.9-197.7-54.5 61.8-78.5c1.3-1.7 2.3-3.7 2.9-5.8l22.6-85.9c17.6-67 86-106.5 152.8-88.2 37.1 10.1 65.9 35.9 81.1 68.3 4.9-1.6 10.2-3 15.6-4.2-16.9-37.7-49.9-67.9-92.6-79.6-75.3-20.6-152.5 23.9-172.3 99.5L76.7 158.4zM239.5 372.1l-12.4-3.4c-8.8 9.4-21.3 15.3-35.1 15.3-23 0-42.2-16.2-46.9-37.7l-16.9-4.6c2.9 32.7 30.3 58.3 63.8 58.3 18 0 34.2-7.4 45.8-19.3l1.7-8.6zm323.8-85.6l-22.6-85.9C520.9 125 443.8 80.4 368.4 101S248.1 199.6 267.9 275.1l22.6 85.9-21.8 108.7-3.5 17.6 17.2-4.7 340.8-93.9 16.8-4.6-10.7-13.6-66-83.9zM612.5 375l-326.6 90 20.2-100.9c.5-2.4 .4-4.9-.2-7.3l-22.6-85.9c-17.6-67 22.3-136.1 89.1-154.4s135.2 21.2 152.8 88.2l22.6 85.9c.6 2.1 1.5 4.1 2.9 5.8L612.5 375zM360.1 511.1c10.9 19.6 31.9 32.9 55.9 32.9 35.3 0 64-28.7 64-64 0-.6 0-1.1 0-1.7l-16.1 4.4c-1.4 25.2-22.3 45.3-47.9 45.3-16.6 0-31.3-8.4-39.9-21.3l-16.1 4.4z"/></svg>