<svg xmlns="http://www.w3.org/2000/svg" viewBox="0 0 640 512"><!--! Font Awesome Pro 7.0.0 by @fontawesome - https://fontawesome.com License - https://fontawesome.com/license (Commercial License) Copyright 2025 Fonticons, Inc. --><path fill="currentColor" d="M591 108.6c.6-4.1 1-8.3 1-12.6 0-44.2-35.8-80-80-80s-80 35.8-80 80c0 4.3 .3 8.5 1 12.6l1.5 9.7-8 5.8C410.4 135.7 400 154.7 400 176l0 64 224 0 0-64c0-21.3-10.4-40.3-26.6-51.9l-8-5.8 1.5-9.7zM384 176c0-26.7 13.1-50.3 33.2-64.9-.8-4.9-1.2-10-1.2-15.1 0-53 43-96 96-96s96 43 96 96c0 5.1-.4 10.2-1.2 15.1 20.1 14.5 33.2 38.2 33.2 64.9l0 80-120 0 0 256-16 0 0-256-120 0 0-80zM48 208l0 96 288 0 0-96-288 0zM72 320l-40 0 0-128 320 0 0 128-40 0 0 64 72 0 0 16-40 0 0 112-16 0 0-112-272 0 0 112-16 0 0-112-40 0 0-16 72 0 0-64zm16 0l0 64 208 0 0-64-208 0z"/></svg>