<svg xmlns="http://www.w3.org/2000/svg" viewBox="0 0 384 512"><!--! Font Awesome Pro 7.0.0 by @fontawesome - https://fontawesome.com License - https://fontawesome.com/license (Commercial License) Copyright 2025 Fonticons, Inc. --><path fill="currentColor" d="M232 0l-8 0 0 16 80 0 0 192-80 0 0 16 160 0 0-16-64 0 0-208-88 0zM8 288l-8 0 0 16 80 0 0 192-80 0 0 16 160 0 0-16-64 0 0-208-88 0zM16 0l0 224 160 0 0-224-160 0zM32 16l128 0 0 192-128 0 0-192zM216 288l-8 0 0 224 160 0 0-224-152 0zm8 208l0-192 128 0 0 192-128 0z"/></svg>