<svg xmlns="http://www.w3.org/2000/svg" viewBox="0 0 576 512"><!--! Font Awesome Pro 7.0.0 by @fontawesome - https://fontawesome.com License - https://fontawesome.com/license (Commercial License) Copyright 2025 Fonticons, Inc. --><path fill="currentColor" d="M427.3 197.8c6.5-16.8 10-35.1 10-54.2 0-67.1-44-124-104.6-142.9-5.2-1.6-10.6-3-16-4l0 25.9c93.7 26.1 84.2 181.6-28.4 181.6S166.3 48.7 260 22.6l0-25.9c-5.4 1.1-10.8 2.4-16 4-60.6 19-104.6 75.8-104.6 142.9 0 19.1 3.6 37.4 10 54.2 2 5.3 4.4 10.4 7 15.4-5.6 .5-11.1 1.3-16.7 2.4-15.3 3.1-30.5 8.8-44.8 17.1-57.9 33.6-84.8 100.3-70.9 162.5 1.2 5.3 2.7 10.6 4.5 15.9 10.4-6 17.9-10.4 22.7-13.2-1.1-6.1-1.7-12.7-1.7-19.6 0-123.5 184.4-123.5 184.4 0 0 92.6-103.5 115.8-155.4 69.6-3.9 2.2-11.1 6.4-21.6 12.5 3.6 4.2 7.4 8.2 11.4 11.9 46.6 43.3 117.6 53.2 175.5 19.6 12.9-7.5 24.2-16.6 33.9-26.9 3.8-4 7.3-8.2 10.5-12.5 3.3 4.3 6.8 8.5 10.5 12.5 9.7 10.3 21 19.4 33.9 26.9 57.9 33.6 128.9 23.7 175.5-19.6 4-3.7 7.8-7.7 11.4-11.9-10.5-6.1-17.7-10.3-21.6-12.5-51.9 46.2-155.5 23-155.5-69.6 0-123.5 184.4-123.5 184.4 0 0 6.9-.6 13.5-1.7 19.6 4.8 2.8 12.3 7.1 22.7 13.2 1.8-5.2 3.3-10.6 4.5-15.9 14-62.2-13-129-70.9-162.5-14.3-8.3-29.4-14-44.8-17.1-5.5-1.1-11.1-1.9-16.7-2.4 2.6-5 4.9-10.1 7-15.4zm112.2 150c-5.3-20.9-16.1-38-30.5-50.9-20.6-18.4-47.6-27.2-74.1-27.2s-53.5 8.9-74 27.2c-20.9 18.6-34.2 46.2-34.2 81.4 0 53.4 30.5 88.2 68.9 101.9 21.4 7.7 45.4 8.9 67.7 3.3-37.9 17.7-83.5 17.1-122.5-5.5-16-9.3-29.3-21.3-39.7-35.2l-12.8-17.1-12.8 17.1c-10.4 13.9-23.7 25.9-39.7 35.2-38.9 22.6-84.5 23.1-122.5 5.5 22.4 5.5 46.3 4.3 67.7-3.3 38.4-13.7 68.9-48.5 68.9-101.9 0-35.2-13.3-62.8-34.2-81.4-20.6-18.4-47.6-27.2-74-27.2s-53.5 8.9-74 27.2c-14.4 12.9-25.2 30-30.5 50.9 4.5-40.9 27.6-79.2 65.7-101.3 17.4-10.1 36.1-15.8 54.8-17.4l23.9-2.1-11.1-21.3c-9.7-18.5-15.2-39.6-15.2-62.1 0-42.5 19.7-80.3 50.3-104.7-20.2 23.9-28.2 56.2-24.9 86.1 2.7 24.2 12.9 48 31.1 65.9 18.4 18.1 44.2 29.3 76.3 29.3s57.9-11.2 76.3-29.3c18.2-17.9 28.4-41.7 31.1-65.9 3.4-29.9-4.7-62.2-24.9-86.1 30.7 24.5 50.4 62.3 50.4 104.8 0 22.5-5.5 43.6-15.2 62.1L395 227 418.9 229.1c18.7 1.6 37.4 7.3 54.8 17.4 38.1 22.1 61.3 60.4 65.7 101.3zM288.4 131.1c16.1 0 31.6 2.5 46.2 7.1 2.3-4.6 4-9.8 5-15.2-16.2-5.1-33.4-7.9-51.2-7.9-17.8 0-35 2.8-51.2 7.9 1 5.5 2.7 10.6 5 15.2 14.6-4.6 30.1-7.1 46.2-7.1zm-165 197.3c8.9 35.3 28.8 66.3 55.8 89 3.6-3.3 6.9-7.5 9.5-12.9-23.7-20.2-41.3-47.6-49.5-78.8-5.5 .2-10.9 1.2-15.8 2.7zm274.2 89c27-22.7 46.8-53.6 55.8-89-4.9-1.6-10.3-2.5-15.8-2.7-8.2 31.2-25.7 58.5-49.5 78.8 2.6 5.4 5.9 9.6 9.5 12.9zM264.4 288a24 24 0 1 1 48 0 24 24 0 1 1 -48 0zm64 0a40 40 0 1 0 -80 0 40 40 0 1 0 80 0z"/></svg>