<svg xmlns="http://www.w3.org/2000/svg" viewBox="0 0 320 512"><!--! Font Awesome Pro 7.0.0 by @fontawesome - https://fontawesome.com License - https://fontawesome.com/license (Commercial License) Copyright 2025 Fonticons, Inc. --><path fill="currentColor" d="M80 0l16 0 0 64 64 0 0-64 16 0 0 64.1c53.4 2.1 96 46 96 99.9 0 36.5-19.5 68.4-48.7 85.9 46 9 80.7 49.5 80.7 98.1 0 55.2-44.8 100-100 100l-28 0 0 64-16 0 0-64-64 0 0 64-16 0 0-64-64 0 0-384 64 0 0-64zM32 80l0 168 140 0c46.4 0 84-37.6 84-84s-37.6-84-84-84L32 80zM172 264l-140 0 0 168 172 0c46.4 0 84-37.6 84-84s-37.6-84-84-84l-32 0z"/></svg>