<svg xmlns="http://www.w3.org/2000/svg" viewBox="0 0 448 512"><!--! Font Awesome Pro 7.0.0 by @fontawesome - https://fontawesome.com License - https://fontawesome.com/license (Commercial License) Copyright 2025 Fonticons, Inc. --><path fill="currentColor" d="M0 0l448 0 0 416-32 0 0 80 32 0 0 16-448 0 0-512zM64 416c-26.5 0-48 21.5-48 48l0 32 384 0 0-80-336 0zm-48 5.7C27.7 408.4 44.9 400 64 400l368 0 0-384-416 0 0 405.7zM192 112l72 0 0 56 56 0 0 80-56 0 0 56-80 0 0-56-56 0 0-80 56 0 0-56 8 0zm8 64l0 8-56 0 0 48 56 0 0 56 48 0 0-56 56 0 0-48-56 0 0-56-48 0 0 48z"/></svg>