<svg xmlns="http://www.w3.org/2000/svg" viewBox="0 0 448 512"><!--! Font Awesome Pro 7.0.0 by @fontawesome - https://fontawesome.com License - https://fontawesome.com/license (Commercial License) Copyright 2025 Fonticons, Inc. --><path fill="currentColor" d="M0 0l448 0 0 416-32 0 0 80 32 0 0 16-448 0 0-512zM336 16l-128 0 0 179.7 55.8-33.5 8.2-4.9 8.2 4.9 55.8 33.5 0-179.7zM192 16L16 16 16 421.7C27.7 408.4 44.9 400 64 400l368 0 0-384-80 0 0 208c-2.7-1.6-29.3-17.6-80-48-50.7 30.4-77.3 46.4-80 48l0-208zM64 416c-26.5 0-48 21.5-48 48l0 32 384 0 0-80-336 0z"/></svg>