<svg xmlns="http://www.w3.org/2000/svg" viewBox="0 0 576 512"><!--! Font Awesome Pro 7.0.0 by @fontawesome - https://fontawesome.com License - https://fontawesome.com/license (Commercial License) Copyright 2025 Fonticons, Inc. --><path fill="currentColor" d="M224 0l352 0 0 288-32 0 0 80 32 0 0 16-352 0 0-384zm88 288c-39.8 0-72 32.2-72 72l0 8 288 0 0-80-216 0zm-72 21.4c15.9-22.6 42.2-37.4 72-37.4l248 0 0-256-320 0 0 293.4zM8 128l168 0 0 16-160 0 0 293.4C31.9 414.8 58.2 400 88 400l88 0 0 16-88 0c-39.8 0-72 32.2-72 72l0 8 288 0 0-64 16 0 0 64 32 0 0 16-352 0 0-384 8 0z"/></svg>