<svg xmlns="http://www.w3.org/2000/svg" viewBox="0 0 576 512"><!--! Font Awesome Pro 7.0.0 by @fontawesome - https://fontawesome.com License - https://fontawesome.com/license (Commercial License) Copyright 2025 Fonticons, Inc. --><path fill="currentColor" d="M296 86.1l0 364 15.8-7.9C367.3 414.5 428.6 400 490.6 400l69.4 0 0-352-93.5 0c-42.2 0-84 7.3-123.8 21.4L296 86.1zm-16 364l0-364-46.7-16.7C193.5 55.3 151.7 48 109.5 48l-93.5 0 0 352 69.3 0c62.1 0 123.3 14.5 178.9 42.2l15.8 7.9zM560 32l16 0 0 384-85.4 0c-59.6 0-118.4 13.9-171.7 40.5L288 472 257.1 456.5C203.8 429.9 145 416 85.3 416L0 416 0 32 109.5 32c44 0 87.7 7.6 129.2 22.4L288 72 337.4 54.4C378.8 39.6 422.5 32 466.5 32L560 32zM0 464l72 0c48.6 0 96.8 9 142.1 26.7l73.6 28.6 27.7-13.9C369.8 478.2 429.8 464 490.6 464l85.4 0 0 16-85.4 0c-58.4 0-115.9 13.6-168.2 39.7l-30.9 15.5-3.2 1.6-3.3-1.3-76.9-29.9C164.8 488.7 118.6 480 72 480l-72 0 0-16z"/></svg>