<svg xmlns="http://www.w3.org/2000/svg" viewBox="0 0 448 512"><!--! Font Awesome Pro 7.0.0 by @fontawesome - https://fontawesome.com License - https://fontawesome.com/license (Commercial License) Copyright 2025 Fonticons, Inc. --><path fill="currentColor" d="M448 480l-448 0 0-16 448 0 0 16zM48 368l-32 0 0-32 32 0 0 32zm352 0l0-32 32 0 0 32-32 0zM48 176l-32 0 0-32 32 0 0 32zm352 0l0-32 32 0 0 32-32 0zM48 272l-32 0 0-32 32 0 0 32zm352 0l0-32 32 0 0 32-32 0zM48 80l-32 0 0-32 32 0 0 32zm352 0l0-32 32 0 0 32-32 0zM240 80l-32 0 0-32 32 0 0 32zM112 80l0-32 32 0 0 32-32 0zm224 0l-32 0 0-32 32 0 0 32z"/></svg>