<svg xmlns="http://www.w3.org/2000/svg" viewBox="0 0 512 512"><!--! Font Awesome Pro 7.0.0 by @fontawesome - https://fontawesome.com License - https://fontawesome.com/license (Commercial License) Copyright 2025 Fonticons, Inc. --><path fill="currentColor" d="M256.5 521.1l-3.9-2.1-232-128-4.1-2.3 0-265.3 3.9-2.3 232-136 4-2.4 4 2.4 232 136 3.9 2.3 0 265.3-4.1 2.3-232 128-3.9 2.1zm224-141.8l0-234.3-56 30 0 121.1-4.1 2.3-80 45-11.9 6.7 0-123.7-64 34.3 0 237.7 216.1-119.2zM327.3 209l-217-122.1-72.8 42.7 219 117.3 70.8-37.9zm16.7-9l64.5-34.5 0-.8-219.8-123.7-62.4 36.6 214.1 120.5 3.6 2zm.5 17.8l0 104.9 64-36 0-103.2-64 34.3zm80-60.9l51-27.3-219-128.4-51.8 30.4 215.8 121.4 4.1 2.3 0 1.6zm-176 103.8l-216-115.7 0 234.3 216 119.2 0-237.7z"/></svg>