<svg xmlns="http://www.w3.org/2000/svg" viewBox="0 0 576 512"><!--! Font Awesome Pro 7.0.0 by @fontawesome - https://fontawesome.com License - https://fontawesome.com/license (Commercial License) Copyright 2025 Fonticons, Inc. --><path fill="currentColor" d="M460.3 128l-68.6-96-127.8 0 0 96 196.3 0zm3.7 16l-416 0 0 320 202.9 0c1.9 5.4 4.1 10.8 6.5 16l-225.4 0 0-352 80-112 288 0 80 112 0 86c-5.3-1.4-10.6-2.5-16-3.4l0-66.7zM51.7 128l196.3 0 0-96-127.8 0-68.6 96zM432 528a128 128 0 1 0 0-256 128 128 0 1 0 0 256zm0-272a144 144 0 1 1 0 288 144 144 0 1 1 0-288zm67.2 80.2l-4.7 6.5-80 110-6 8.3-6.6-7.9-40-48-5.1-6.1 12.3-10.2 5.1 6.1 33.4 40.1 74-101.7 4.7-6.5 12.9 9.4z"/></svg>