<svg xmlns="http://www.w3.org/2000/svg" viewBox="0 0 640 512"><!--! Font Awesome Pro 7.0.0 by @fontawesome - https://fontawesome.com License - https://fontawesome.com/license (Commercial License) Copyright 2025 Fonticons, Inc. --><path fill="currentColor" d="M320 48a208 208 0 1 1 0 416 208 208 0 1 1 0-416zm0 432a224 224 0 1 0 0-448 224 224 0 1 0 0 448zm8-320l0-8-16 0 0 152 16 0 0-144zM304 336l0 32 32 0 0-32-32 0zM62.7 96.3l4.3-6.7-13.5-8.6-4.3 6.7C18.1 136.2 0 194 0 256S18.1 375.8 49.3 424.3l4.3 6.7 13.5-8.6-4.3-6.7C33.2 369.6 16 314.8 16 256S33.2 142.4 62.7 96.3zm528-8.6l-4.3-6.7-13.5 8.6 4.3 6.7C606.8 142.4 624 197.2 624 256s-17.2 113.6-46.7 159.7l-4.3 6.7 13.5 8.6 4.3-6.7C621.9 375.8 640 318 640 256S621.9 136.2 590.7 87.7z"/></svg>