<svg xmlns="http://www.w3.org/2000/svg" viewBox="0 0 576 512"><!--! Font Awesome Pro 7.0.0 by @fontawesome - https://fontawesome.com License - https://fontawesome.com/license (Commercial License) Copyright 2025 Fonticons, Inc. --><path fill="currentColor" d="M8 32l-8 0 0 16 56 0 0 96-56 0 0 117.5c2.3 .9 8.1 3 17.3 6.5 28.1 10.5 46.7 37.4 46.7 67.4l0 144.6 112 0 0-112c0-44.2 35.8-80 80-80 6.4 0 12.6 .7 18.5 2.2 3.3-4.7 6.8-9.3 10.5-13.7-9.2-2.9-18.9-4.5-29-4.5-53 0-96 43-96 96l0 96-80 0 0-128.6c0-36.7-22.8-69.5-57.1-82.4l-6.9-2.6 0-90.5 480 0 0 58.9c5.4 1.9 10.8 4.1 16 6.5l0-81.4-56 0 0-96 56 0 0-16-504 0zM440 48l0 96-112 0 0-96 112 0zM312 48l0 96-112 0 0-96 112 0zM184 48l0 96-112 0 0-96 112 0zM304 400a128 128 0 1 1 256 0 128 128 0 1 1 -256 0zm272 0a144 144 0 1 0 -288 0 144 144 0 1 0 288 0zM440 312l-16 0 0 112 16 0 0-112zm4 164l0-24-24 0 0 24 24 0z"/></svg>