<svg xmlns="http://www.w3.org/2000/svg" viewBox="0 0 512 512"><!--! Font Awesome Pro 7.0.0 by @fontawesome - https://fontawesome.com License - https://fontawesome.com/license (Commercial License) Copyright 2025 Fonticons, Inc. --><path fill="currentColor" d="M176 496l320 0 0-320-96 0 0-16 112 0 0 352-352 0 0-112 16 0 0 96zM336 352l-336 0 0-352 352 0 0 352-16 0zM16 187.3L16 336 164.7 336 16 187.3zM187.3 336L324.7 336 16 27.3 16 164.7 187.3 336zM27.3 16L336 324.7 336 187.3 164.7 16 27.3 16zm160 0L336 164.7 336 16 187.3 16z"/></svg>