<svg xmlns="http://www.w3.org/2000/svg" viewBox="0 0 640 512"><!--! Font Awesome Pro 7.0.0 by @fontawesome - https://fontawesome.com License - https://fontawesome.com/license (Commercial License) Copyright 2025 Fonticons, Inc. --><path fill="currentColor" d="M432 0l-224 0 0 16 38 0-60.4 272-57.6 0 0 129.3 16-6.4 0-106.9 352 0 0 106.9 16 6.4 0-129.3-57.6 0-60.4-272 38 0 0-16zM377.6 16l10.9 48.9-68.5 76.7-68.5-76.7 10.9-48.9 115.2 0zM247.3 84.2l62 69.4-103.1 115.5 41.1-184.9zM320 165.6L429.3 288 210.8 288 320 165.6zM433.9 269.1l-103.1-115.5 62-69.4 41.1 184.9zM196.2 432.5l-2.8-1.1-2.8 1.1-124.1 47-48-15.2-7.6-2.4-4.8 15.3 7.6 2.4 50.7 16 2.6 .8 2.6-1 123.8-46.9 123.8 46.9 2.8 1.1 2.8-1.1 123.8-46.9 123.8 46.9 2.6 1 2.6-.8 50.7-16 7.6-2.4-4.8-15.3-7.6 2.4-48 15.2-124.1-47-2.8-1.1-2.8 1.1-123.8 46.9-123.8-46.9z"/></svg>