<svg xmlns="http://www.w3.org/2000/svg" viewBox="0 0 576 512"><!--! Font Awesome Pro 7.0.0 by @fontawesome - https://fontawesome.com License - https://fontawesome.com/license (Commercial License) Copyright 2025 Fonticons, Inc. --><path fill="currentColor" d="M86.8 496l-25-320 340.5 0 12.5-160 1.3-16-384 0 1.2 16 38.8 496 136 0 0-16-121.2 0zM387.5 160l-326.9 0-11.2-144 349.4 0-11.2 144zM576 319.7s-32-96.1-160-96.2c-128 .2-160 96.2-160 96.2l0 31.8 16 0 0-28.9 .3-.8c.9-2.2 2.4-5.4 4.7-9.4 4.4-8 11.6-18.7 22.3-29.5 21.2-21.2 57.2-43.4 116.7-43.5 59.5 0 95.5 22.2 116.7 43.4 10.8 10.8 17.9 21.5 22.3 29.5 2.2 4 3.7 7.2 4.7 9.4l.3 .8 0 28.9 16 0 0-31.8zM256 527.5l0 16 320 0 0-64-16 0 0 48-288 0 0-48-16 0 0 48zm16-95.4l0-32 288 0 0 32-288 0zm-16-48l0 64 320 0 0-64-320 0zm88-76.4a12 12 0 1 0 -24 0 12 12 0 1 0 24 0zM416 288a12 12 0 1 0 0-24 12 12 0 1 0 0 24zm96 19.7a12 12 0 1 0 -24 0 12 12 0 1 0 24 0z"/></svg>