<svg xmlns="http://www.w3.org/2000/svg" viewBox="0 0 448 512"><!--! Font Awesome Pro 7.0.0 by @fontawesome - https://fontawesome.com License - https://fontawesome.com/license (Commercial License) Copyright 2025 Fonticons, Inc. --><path fill="currentColor" d="M400 16l0 96-352 0 0-96 352 0zM48 0l-16 0 0 224-32 0 0 224 32 0 0 64 96 0 0-64 192 0 0 64 96 0 0-64 32 0 0-224-32 0 0-224-368 0zm64 432l-96 0 0-192 416 0 0 192-320 0zM48 448l64 0 0 48-64 0 0-48zm288 48l0-48 64 0 0 48-64 0zm64-272l-168 0 0-96 168 0 0 96zM48 224l0-96 168 0 0 96-168 0zM96 336a16 16 0 1 1 32 0 16 16 0 1 1 -32 0zm48 0a32 32 0 1 0 -64 0 32 32 0 1 0 64 0zm192-16a16 16 0 1 1 0 32 16 16 0 1 1 0-32zm0 48a32 32 0 1 0 0-64 32 32 0 1 0 0 64z"/></svg>