<svg xmlns="http://www.w3.org/2000/svg" viewBox="0 0 384 512"><!--! Font Awesome Pro 7.0.0 by @fontawesome - https://fontawesome.com License - https://fontawesome.com/license (Commercial License) Copyright 2025 Fonticons, Inc. --><path fill="currentColor" d="M192 0c53 0 96 43 96 96l0 112 96 0 0 224-96 0 0 80-192 0 0-192-96 0 0-224 96 0c0-53 43-96 96-96zm0 16c-44.2 0-80 35.8-80 80l0 136-16 0 0-120-80 0 0 192 96 0 0 192 160 0 0-80 96 0 0-192-80 0 0 120-16 0 0-248c0-44.2-35.8-80-80-80zm32 352a16 16 0 1 1 0-32 16 16 0 1 1 0 32zM160 176a16 16 0 1 1 0-32 16 16 0 1 1 0 32z"/></svg>