<svg xmlns="http://www.w3.org/2000/svg" viewBox="0 0 384 512"><!--! Font Awesome Pro 7.0.0 by @fontawesome - https://fontawesome.com License - https://fontawesome.com/license (Commercial License) Copyright 2025 Fonticons, Inc. --><path fill="currentColor" d="M16 16l0 480 352 0 0-480-352 0zM0 0L384 0 384 512 0 512 0 0zM80 80l0 64 224 0 0-64-224 0zM64 64l256 0 0 96-256 0 0-96zm48 144l-32 0 0 32 32 0 0-32zM80 192l48 0 0 64-64 0 0-64 16 0zm0 112l0 32 32 0 0-32-32 0zM64 288l64 0 0 64-64 0 0-64zM208 400l-128 0 0 32 128 0 0-32zM80 384l144 0 0 64-160 0 0-64 16 0zm96-176l0 32 32 0 0-32-32 0zm-16-16l64 0 0 64-64 0 0-64zm48 112l-32 0 0 32 32 0 0-32zm-32-16l48 0 0 64-64 0 0-64 16 0zm96-80l0 32 32 0 0-32-32 0zm-16-16l64 0 0 64-64 0 0-64zm48 112l-32 0 0 32 32 0 0-32zm-32-16l48 0 0 64-64 0 0-64 16 0zm0 112l0 32 32 0 0-32-32 0zm-16-16l64 0 0 64-64 0 0-64z"/></svg>