<svg xmlns="http://www.w3.org/2000/svg" viewBox="0 0 640 512"><!--! Font Awesome Pro 7.0.0 by @fontawesome - https://fontawesome.com License - https://fontawesome.com/license (Commercial License) Copyright 2025 Fonticons, Inc. --><path fill="currentColor" d="M224 8l0-8-16 0 0 64-112 0 0 144 16 0 0-16 416 0 0 16 16 0 0-144-112 0 0-64-16 0 0 64-192 0 0-56zm34.6 456l5.3 16 112.1 0 5.3-16-122.8 0zM208 80l0 32 16 0 0-32 192 0 0 32 16 0 0-32 96 0 0 96-416 0 0-96 96 0zM64 320a48 48 0 1 1 96 0 48 48 0 1 1 -96 0zm112 0a64 64 0 1 0 -128 0 64 64 0 1 0 128 0zM43.5 432l136.9 0 26.7 80 16.9 0-32-96-160 0-32 96 16.9 0 26.7-80zM528 272a48 48 0 1 1 0 96 48 48 0 1 1 0-96zm0 112a64 64 0 1 0 0-128 64 64 0 1 0 0 128zM432.9 512l26.7-80 136.9 0 26.7 80 16.9 0-32-96-160 0-32 96 16.9 0z"/></svg>