<svg xmlns="http://www.w3.org/2000/svg" viewBox="0 0 448 512"><!--! Font Awesome Pro 7.0.0 by @fontawesome - https://fontawesome.com License - https://fontawesome.com/license (Commercial License) Copyright 2025 Fonticons, Inc. --><path fill="currentColor" d="M128 0l0 64 192 0 0-64 16 0 0 64 112 0 0 416-448 0 0-416 112 0 0-64 16 0zM112 104l0-24-96 0 0 384 416 0 0-384-96 0 0 32-16 0 0-32-192 0 0 32-16 0 0-8zM302.8 204.2l-88 144-6 9.9-7.1-9.1-56-72-4.9-6.3 12.6-9.8 4.9 6.3 48.9 62.9 82-134.1 4.2-6.8 13.7 8.3-4.2 6.8z"/></svg>