<svg xmlns="http://www.w3.org/2000/svg" viewBox="0 0 576 512"><!--! Font Awesome Pro 7.0.0 by @fontawesome - https://fontawesome.com License - https://fontawesome.com/license (Commercial License) Copyright 2025 Fonticons, Inc. --><path fill="currentColor" d="M160 8l0-8-16 0 0 64-112 0 0 416 225.4 0c-2.4-5.2-4.6-10.6-6.5-16l-202.9 0 0-272 432 0 0-128-112 0 0-64-16 0 0 64-192 0 0-56zM144 80l0 32 16 0 0-32 192 0 0 32 16 0 0-32 96 0 0 96-416 0 0-96 96 0zM304 400a128 128 0 1 1 256 0 128 128 0 1 1 -256 0zm272 0a144 144 0 1 0 -288 0 144 144 0 1 0 288 0zM440 336l0-8-16 0 0 64-64 0 0 16 64 0 0 64 16 0 0-64 64 0 0-16-64 0 0-56z"/></svg>