<svg xmlns="http://www.w3.org/2000/svg" viewBox="0 0 640 512"><!--! Font Awesome Pro 7.0.0 by @fontawesome - https://fontawesome.com License - https://fontawesome.com/license (Commercial License) Copyright 2025 Fonticons, Inc. --><path fill="currentColor" d="M111.7 96l-7.5 0-.5 7.4c-3.6 51.5-44.8 92.7-96.3 96.3l-7.4 .5 0 215.7 640 0 0-320-528.3 0zM16 214.9c53.5-7.1 95.8-49.5 102.9-102.9l49.1 0 0 136-152 0 0-33.1zM16 264l152 0 0 136-152 0 0-136zM184 400l0-136 144 0 0 136-144 0zm160 0l0-288 280 0 0 288-280 0zM328 112l0 136-144 0 0-136 144 0z"/></svg>