<svg xmlns="http://www.w3.org/2000/svg" viewBox="0 0 576 512"><!--! Font Awesome Pro 7.0.0 by @fontawesome - https://fontawesome.com License - https://fontawesome.com/license (Commercial License) Copyright 2025 Fonticons, Inc. --><path fill="currentColor" d="M527.3 196.5c7.3-19.8 13.5-39.3 18.5-57.8-30.8-7.6-73.3-13.8-126.9-13.8s-96 6.3-126.9 13.8c11.2 41.2 24.3 73.7 32.5 92.5 26.8-4 58.3-6.7 94.4-6.7s67.6 2.6 94.4 6.7c5.1-11.6 9.7-23.2 14-34.8zM418.9 240.6c-33.3 0-62.5 2.3-87.5 5.8 21.8 46.4 50.5 92 87.5 129.9 37-37.9 65.7-83.5 87.5-129.9-25-3.5-54.2-5.8-87.5-5.8zM549.8 123.3c8.1-32.5 12.9-61.3 15.1-83.4-20.9-9.3-69.9-23.9-146-23.9s-125.1 14.6-146 23.9c2.2 22 7 50.9 15.1 83.4 32.1-7.9 76-14.3 130.9-14.3s98.8 6.4 130.9 14.3zM418.9 398.8C301.7 288.3 261.5 107.4 256.1 30.7 272.4 20.4 327.7 0 418.9 0S565.5 20.4 581.7 30.7c-5.4 76.7-45.6 257.7-162.8 368.1zm-367-83.7c-7.3 19.8-13.5 39.3-18.5 57.8 30.8 7.6 73.3 13.8 126.9 13.8s96-6.3 126.9-13.8c-5.1-18.5-11.2-38-18.5-57.8-4.3-11.5-8.9-23.1-14-34.8-26.8 4-58.3 6.7-94.4 6.7s-67.6-2.6-94.4-6.7c-5.1 11.6-9.7 23.2-14 34.7zM160.3 271c33.3 0 62.5-2.3 87.5-5.8-21.8-46.4-50.5-92-87.5-129.9-37 37.9-65.7 83.5-87.5 129.9 25 3.5 54.2 5.8 87.5 5.8zM29.4 388.3c-8.1 32.5-12.9 61.3-15.1 83.4 20.9 9.3 69.9 23.9 146 23.9s125.1-14.6 146-23.9c-2.2-22-7-50.9-15.1-83.4-32.1 7.9-76 14.4-130.9 14.4s-98.8-6.4-130.9-14.3zM160.3 112.8c117.2 110.4 157.4 291.4 162.8 368.1-16.3 10.2-71.6 30.7-162.8 30.7S13.7 491.1-2.5 480.9C2.9 404.2 43 223.2 160.3 112.8z"/></svg>