<svg xmlns="http://www.w3.org/2000/svg" viewBox="0 0 576 512"><!--! Font Awesome Pro 7.0.0 by @fontawesome - https://fontawesome.com License - https://fontawesome.com/license (Commercial License) Copyright 2025 Fonticons, Inc. --><path fill="currentColor" d="M400.3-27.3c.8 .8 10.5 10.5 29.1 29.1 25.1 25.1 31.9 61.6 20.3 92.8 31.2-11.6 67.7-4.8 92.8 20.3 18.6 18.6 28.3 28.3 29.1 29.1-.8 .8-10.5 10.5-29.1 29.1-28.5 28.5-71.7 33.4-105.2 14.6 7.1 17.3 11 36.2 11 56 0 59.1-35.2 112.5-89.5 135.8L92.9 493.4c-40 17.1-64.5 27.6-73.5 31.5 3.9-9.1 14.4-33.6 31.5-73.5L164.8 185.5c23.3-54.3 76.7-89.5 135.8-89.5 19.8 0 38.8 3.9 56 11-18.8-33.5-13.9-76.7 14.6-105.2 18.6-18.6 28.3-28.3 29.1-29.1zm17.8 142.2c28.1-28.1 28.1-73.7 0-101.8L400.3-4.7 382.5 13.1c-28.1 28.1-28.1 73.7 0 101.8l17.8 17.8 17.8-17.8zM411.6 144l17.8 17.8c28.1 28.1 73.7 28.1 101.8 0L549 144 531.2 126.2c-28.1-28.1-73.7-28.1-101.8 0 0 0 0 0 0 0L411.6 144zm-111-32c-38.8 0-74.9 17.1-99.5 45.4l52.9 52.9 5.7 5.7-11.3 11.3-5.7-5.7-51.4-51.4c-4.5 6.7-8.4 13.9-11.7 21.6L65.6 457.7 49.8 494.5c4.8-2.1 68.7-29.4 191.5-82.1l-30.7-30.7-5.7-5.7 11.3-11.3 5.7 5.7 32 32 3.2 3.2 95.3-40.8c48.4-20.8 79.8-68.4 79.8-121.1 0-72.7-59-131.7-131.7-131.7z"/></svg>