<svg xmlns="http://www.w3.org/2000/svg" viewBox="0 0 640 512"><!--! Font Awesome Pro 7.0.0 by @fontawesome - https://fontawesome.com License - https://fontawesome.com/license (Commercial License) Copyright 2025 Fonticons, Inc. --><path fill="currentColor" d="M0 0l86.6 0 1.3 6.5 52 265.5 373.6 0 48-240 16.3 0-49.9 249.6-1.3 6.4-383.6 0 15.7 80 321.4 0 0 16-334.6 0-1.3-6.5-70.7-361.5-73.4 0 0-16zM208 496a32 32 0 1 0 0-64 32 32 0 1 0 0 64zm0-80a48 48 0 1 1 0 96 48 48 0 1 1 0-96zm256 48a32 32 0 1 0 -64 0 32 32 0 1 0 64 0zm-80 0a48 48 0 1 1 96 0 48 48 0 1 1 -96 0zM330.3 189.7l-72-72-5.7-5.7 11.3-11.3 5.7 5.7 58.3 58.3 0-164.7 16 0 0 164.7 58.3-58.3 5.7-5.7 11.3 11.3-5.7 5.7-72 72-5.7 5.7-5.7-5.7z"/></svg>