<svg xmlns="http://www.w3.org/2000/svg" viewBox="0 0 640 512"><!--! Font Awesome Pro 7.0.0 by @fontawesome - https://fontawesome.com License - https://fontawesome.com/license (Commercial License) Copyright 2025 Fonticons, Inc. --><path fill="currentColor" d="M8 0l-8 0 0 16 73.4 0 70.7 361.5 1.3 6.5 159.2 0c.4-5.4 1.1-10.7 2-16l-148.1 0-15.7-80 197.1 0c4-5.6 8.3-10.9 12.9-16L139.8 272 96 48 556.7 48 526.3 210.4c5.3 .8 10.5 1.9 15.7 3.2L573 48 576 32 92.8 32c-4-20.2-6-30.9-6.3-32L8 0zM176 464a32 32 0 1 1 64 0 32 32 0 1 1 -64 0zm80 0a48 48 0 1 0 -96 0 48 48 0 1 0 96 0zm112-64a128 128 0 1 1 256 0 128 128 0 1 1 -256 0zm272 0a144 144 0 1 0 -288 0 144 144 0 1 0 288 0zM504 312l-16 0 0 112 16 0 0-112zm4 164l0-24-24 0 0 24 24 0z"/></svg>