<svg xmlns="http://www.w3.org/2000/svg" viewBox="0 0 640 512"><!--! Font Awesome Pro 7.0.0 by @fontawesome - https://fontawesome.com License - https://fontawesome.com/license (Commercial License) Copyright 2025 Fonticons, Inc. --><path fill="currentColor" d="M8 0l-8 0 0 16 73.4 0 70.7 361.5 1.3 6.5 334.6 0 0-16-321.4 0-15.7-80 385.1 0 45-240 3-16-483.2 0c-4-20.2-6-30.9-6.3-32L8 0zM96 48l460.7 0-42 224-374.9 0-43.8-224zm80 416a32 32 0 1 1 64 0 32 32 0 1 1 -64 0zm80 0a48 48 0 1 0 -96 0 48 48 0 1 0 96 0zm176-32a32 32 0 1 1 0 64 32 32 0 1 1 0-64zm0 80a48 48 0 1 0 0-96 48 48 0 1 0 0 96z"/></svg>