<svg xmlns="http://www.w3.org/2000/svg" viewBox="0 0 512 512"><!--! Font Awesome Pro 7.0.0 by @fontawesome - https://fontawesome.com License - https://fontawesome.com/license (Commercial License) Copyright 2025 Fonticons, Inc. --><path fill="currentColor" d="M496 80l0 64-480 0 0-64 480 0zM16 432l0-272 480 0 0 272-480 0zM16 64l-16 0 0 384 512 0 0-384-496 0zM80 304a64 64 0 1 1 128 0 64 64 0 1 1 -128 0zm144 0a80 80 0 1 0 -160 0 80 80 0 1 0 160 0zm208-64l0 128-128 0 0-128 128 0zM304 224l-16 0 0 160 160 0 0-160-144 0zM160 304a16 16 0 1 1 -32 0 16 16 0 1 1 32 0zm-16-32a32 32 0 1 0 0 64 32 32 0 1 0 0-64z"/></svg>