<svg xmlns="http://www.w3.org/2000/svg" viewBox="0 0 576 512"><!--! Font Awesome Pro 7.0.0 by @fontawesome - https://fontawesome.com License - https://fontawesome.com/license (Commercial License) Copyright 2025 Fonticons, Inc. --><path fill="currentColor" d="M400-32c97.2 0 176 78.8 176 176 0 68.4-39 127.6-96 156.7l0 211.3-80 0 0-182.8-122.1 102.8 74.1 0 0 80-288 0 0-328c0-30.9-25.1-56-56-56l-8 0 0-16 8 0c39.8 0 72 32.2 72 72l0 136.3c25.4-67.2 79.2-120.4 146.8-145.2-1.8-10.1-2.8-20.5-2.8-31.1 0-97.2 78.8-176 176-176zM230.3 190.8C142.5 223.9 80 308.6 80 408l0 88 256 0 0-48-88 0 0-48c0-26.5-21.5-48-48-48l-16 0 0-16 16 0c35.3 0 64 28.7 64 64l0 22.8 122.7-103.3c-75-5.6-136.9-58.3-156.3-128.6zM464 307.9c-15.1 5.9-31.2 9.8-48 11.3l0 176.7 48 0 0-188zm48-162.8c0 61.8-50.2 112-112 112S288 207 288 145.2l0-115.4c-29.6 29-48 69.5-48 114.2 0 88.4 71.6 160 160 160s160-71.6 160-160c0-44.8-18.4-85.2-48-114.3l0 115.4zM437.2 94.1l-2.2 1.9-69.9 0-2.2-1.9-58.8-50.4 0 101.4c0 53 43 96 96 96s96-43 96-96l0-101.4-58.8 50.4zM360 160a16 16 0 1 1 0-32 16 16 0 1 1 0 32zm80 0a16 16 0 1 1 0-32 16 16 0 1 1 0 32zM136 56l48 0 0 16-48 0 0 48-16 0 0-48-48 0 0-16 48 0 0-48 16 0 0 48zM400-16c-37.9 0-72.7 13.2-100.1 35.2l1.3 1.1 69.8 59.7 58.1 0 69.8-59.7 1.3-1.1C472.7-2.8 437.9-16 400-16z"/></svg>