<svg xmlns="http://www.w3.org/2000/svg" viewBox="0 0 512 512"><!--! Font Awesome Pro 7.0.0 by @fontawesome - https://fontawesome.com License - https://fontawesome.com/license (Commercial License) Copyright 2025 Fonticons, Inc. --><path fill="currentColor" d="M288 .5c-5.3-.3-10.6-.5-16-.5l0 240 240 0c0-5.4-.2-10.7-.5-16-7.9-119.8-103.7-215.6-223.5-223.5zM495.4 224L288 224 288 16.6C399 24.4 487.6 113 495.4 224zM224 41.2l0-8.9-8.8 .9C94.3 45.7 0 147.8 0 272 0 404.6 107.5 512 240 512 364.2 512 466.3 417.7 478.7 296.8l.9-8.8-255.6 0 0-246.8zM16 272C16 159.2 99.5 65.8 208 50.3l0 253.7 253.7 0C446.2 412.6 352.8 496 240 496 116.3 496 16 395.7 16 272z"/></svg>