<svg xmlns="http://www.w3.org/2000/svg" viewBox="0 0 512 512"><!--! Font Awesome Pro 7.0.0 by @fontawesome - https://fontawesome.com License - https://fontawesome.com/license (Commercial License) Copyright 2025 Fonticons, Inc. --><path fill="currentColor" d="M16 40l0-8-16 0 0 448 512 0 0-16-496 0 0-424zm93.4 194c6.3-21.4 15.2-46.3 28.7-65.7 13.4-19.3 30.7-32.2 53.9-32.2 22.1 0 38.3 10.3 52.1 27.1 14.1 17.1 25.1 40.1 36.7 64.3 .7 1.4 1.3 2.8 2 4.1 10.5 22.1 21.2 44.6 36.8 63.5 15.9 19.2 36.2 32.9 64.5 32.9 30.5 0 52.1-17.4 67.2-39.3 15-21.7 24.4-48.8 30.9-70.6l-15.3-4.5c-6.4 21.5-15.2 46.5-28.7 66.1-13.4 19.4-30.7 32.4-54.1 32.4-22.1 0-38.3-10.3-52.1-27.1-14.1-17.1-25.1-40.1-36.7-64.3-.7-1.4-1.3-2.8-2-4.1-10.5-22.1-21.2-44.6-36.8-63.5-15.9-19.2-36.2-32.9-64.5-32.9-30.4 0-51.9 17.3-67.1 39.1-15 21.6-24.5 48.6-30.9 70.4l15.4 4.5z"/></svg>