<svg xmlns="http://www.w3.org/2000/svg" viewBox="0 0 512 512"><!--! Font Awesome Pro 7.0.0 by @fontawesome - https://fontawesome.com License - https://fontawesome.com/license (Commercial License) Copyright 2025 Fonticons, Inc. --><path fill="currentColor" d="M16 40l0-8-16 0 0 448 512 0 0-16-496 0 0-424zM400 64l-64 0 0 128 64 0 0-128zM352 96l0-16 32 0 0 96-32 0 0-80zm-80 48l0 96-32 0 0-96 32 0zM160 240l0 96-32 0 0-96 32 0zM496 80l0 256-32 0 0-256 32 0zM288 160l0-32-64 0 0 128 64 0 0-96zM176 256l0-32-64 0 0 128 64 0 0-96zM512 96l0-32-64 0 0 288 64 0 0-256z"/></svg>