<svg xmlns="http://www.w3.org/2000/svg" viewBox="0 0 576 512"><!--! Font Awesome Pro 7.0.0 by @fontawesome - https://fontawesome.com License - https://fontawesome.com/license (Commercial License) Copyright 2025 Fonticons, Inc. --><path fill="currentColor" d="M150.9 496.1L13.5 256.1 150.9 16 426 16 563.4 256.1 426 496.1 150.9 496.1zM31.9 256.1L160.2 480.1 416.8 480.1 545 256.1 416.8 32 160.2 32 31.9 256.1zM263.5 180a32 32 0 1 0 50-40 32 32 0 1 0 -50 40zm-23-20c0-26.5 21.5-48 48-48s48 21.5 48 48c0 17.3-9.2 32.5-23 41l28.8 72.1c3.3-.7 6.7-1.1 10.2-1.1 26.5 0 48 21.5 48 48s-21.5 48-48 48-48-21.5-48-48c0-.5 0-1 0-1.4l-67.2-13.4c-6.9 18.1-24.4 30.9-44.9 30.9-26.5 0-48-21.5-48-48s21.5-48 48-48c7.9 0 15.4 1.9 22 5.3l39.2-52.3c-8.2-8.6-13.2-20.2-13.2-33.1zm0 128c0 .5 0 1 0 1.4l67.2 13.4c3.8-10 10.9-18.3 19.8-23.8l-28.8-72.1c-3.3 .7-6.7 1.1-10.2 1.1-7.9 0-15.4-1.9-22-5.3l-39.2 52.3c8.2 8.6 13.2 20.2 13.2 33.1zm144 32a32 32 0 1 0 -64 0 32 32 0 1 0 64 0zm-192 0a32 32 0 1 0 0-64 32 32 0 1 0 0 64z"/></svg>