<svg xmlns="http://www.w3.org/2000/svg" viewBox="0 0 576 512"><!--! Font Awesome Pro 7.0.0 by @fontawesome - https://fontawesome.com License - https://fontawesome.com/license (Commercial License) Copyright 2025 Fonticons, Inc. --><path fill="currentColor" d="M464 48l0 320-352 0 0-320 352 0zM112 32l-16 0 0 352 384 0 0-352-368 0zM16 288l-16 0 0 192 576 0 0-192-16 0 0 176-544 0 0-176zM366.8 140.2l4.2-6.8-13.7-8.3-4.2 6.8-82 134.1-48.9-62.9-4.9-6.3-12.6 9.8 4.9 6.3 56 72 7.1 9.1 6-9.9 88-144z"/></svg>