<svg xmlns="http://www.w3.org/2000/svg" viewBox="0 0 320 512"><!--! Font Awesome Pro 7.0.0 by @fontawesome - https://fontawesome.com License - https://fontawesome.com/license (Commercial License) Copyright 2025 Fonticons, Inc. --><path fill="currentColor" d="M304 194.7l-1.6 2.2-38.4 51.2 0 16-8 0 0 104 64 96 0 48-320 0 0-48 64-96 0-104-8 0 0-16-38.4-51.2-1.6-2.2 0-162.7 288 0 0 162.7zM16 468.8l0 27.2 288 0 0-27.2-56.6-84.8-174.9 0-56.6 84.8zM80 264l0 104 160 0 0-104-160 0zM32 189.3l44 58.7 167.9 0 44-58.7 0-141.3-80 0 0 72-16 0 0-72-64 0 0 72-16 0 0-72-80 0 0 141.3z"/></svg>