<svg xmlns="http://www.w3.org/2000/svg" viewBox="0 0 512 512"><!--! Font Awesome Pro 7.0.0 by @fontawesome - https://fontawesome.com License - https://fontawesome.com/license (Commercial License) Copyright 2025 Fonticons, Inc. --><path fill="currentColor" d="M200 24l56 0 0 16-56 0 0 56 120 0 0 32-44 88 12 0 0 16-15.2 0 15.2 152 64 80 0 48-320 0 0-48 64-80 15.2-152-15.2 0 0-16 12 0-44-88 0-32 120 0 0-56-56 0 0-16 56 0 0-56 16 0 0 56zM512 274.7l-1.6 2.2-46.4 61.9 0 50.9 46.7 70 1.3 2 0 50.4-112 0 0-16 96 0 0-29.6-44.3-66.4-89.4 0-12.8-16 98.5 0 0-50.7 1.6-2.2 46.4-61.9 0-93.3-72 0 0 48-16 0 0-48-58.3 0 8-16 154.3 0 0 114.7zM280 400l-176 0 0-.4-56 70 0 26.4 288 0 0-26.4-56-70 0 .4zM112.1 384l159.9 0-15.2-152-129.4 0-15.2 152zM80 124.2l45.9 91.8 132.2 0 45.9-91.8 0-12.2-224 0 0 12.2z"/></svg>