<svg xmlns="http://www.w3.org/2000/svg" viewBox="0 0 448 512"><!--! Font Awesome Pro 7.0.0 by @fontawesome - https://fontawesome.com License - https://fontawesome.com/license (Commercial License) Copyright 2025 Fonticons, Inc. --><path fill="currentColor" d="M232 48l88 0 0 16-88 0 0 96 216 0 0 32-96 200 64 72 0 48-384 0 0-48 64-72-96-200 0-32 216 0 0-96-88 0 0-16 88 0 0-80 16 0 0 80zM110.3 400l-2.3 2.6-60 67.4 0 25.9 352 0 0-25.9-60-67.4-2.3-2.6-227.4 0zM16 188.3l93.9 195.7 228.1 0 93.9-195.7 0-12.3-416 0 0 12.3z"/></svg>