<svg xmlns="http://www.w3.org/2000/svg" viewBox="0 0 448 512"><!--! Font Awesome Pro 7.0.0 by @fontawesome - https://fontawesome.com License - https://fontawesome.com/license (Commercial License) Copyright 2025 Fonticons, Inc. --><path fill="currentColor" d="M16 368l416 0 0-16c0-89.5-48.3-153.6-100.9-202.3-21-19.4-42.2-36-61.1-50.8l0 0c-4.9-3.8-9.7-7.5-14.2-11.2-10.9-8.6-21-16.9-28.9-24.8-1-1-2-2-3-3-1 1-2 2-3 3-7.9 7.8-17.9 16.1-28.9 24.8-4.6 3.6-9.3 7.3-14.2 11.2-19 14.8-40.1 31.4-61.1 50.8-52.6 48.7-100.9 112.8-100.9 202.3l0 16zm0 16l0 25.4 54.6 54.6 306.7 0 54.6-54.6 0-25.4-416 0zM168.4 86.2c19.1-15 35.4-27.7 45.5-38.8 5-5.5 8.5-10.6 10.1-15.4 1.6 4.8 5.1 9.9 10.1 15.4 10.1 11.1 26.4 23.8 45.5 38.8 66.6 52.1 168.4 131.6 168.4 265.8l0 64-64 64-320 0-64-64 0-64C0 217.7 101.7 138.2 168.4 86.2z"/></svg>