<svg xmlns="http://www.w3.org/2000/svg" viewBox="0 0 320 512"><!--! Font Awesome Pro 7.0.0 by @fontawesome - https://fontawesome.com License - https://fontawesome.com/license (Commercial License) Copyright 2025 Fonticons, Inc. --><path fill="currentColor" d="M160.5 112a48 48 0 1 0 0-96 48 48 0 1 0 0 96zm0-112a64 64 0 1 1 0 128 64 64 0 1 1 0-128zm59.8 245.4l3.4 7.2 64 136 5.4 11.4-52.6 0 0 112-64 0 0-112-32 0 0 112-64 0 0-112-52.6 0 5.4-11.4 64-136 3.4-7.2 14.5 6.8-3.4 7.2-58.6 124.6 214.8 0-58.6-124.6-3.4-7.2 14.5-6.8zM128.5 400l-32 0 0 96 32 0 0-96zm64 0l0 96 32 0 0-96-32 0zM109.4 160l106.7 0 2.3 3.9 84.9 144 4.1 6.9-13.8 8.1-4.1-6.9-82.6-140.1-93 0-82.6 140.1-4.1 6.9-13.8-8.1 4.1-6.9 84.9-144 2.3-3.9 4.6 0z"/></svg>