<svg xmlns="http://www.w3.org/2000/svg" viewBox="0 0 512 512"><!--! Font Awesome Pro 7.0.0 by @fontawesome - https://fontawesome.com License - https://fontawesome.com/license (Commercial License) Copyright 2025 Fonticons, Inc. --><path fill="currentColor" d="M16 256a240 240 0 1 1 480 0 240 240 0 1 1 -480 0zm496 0a256 256 0 1 0 -512 0 256 256 0 1 0 512 0zM256 304l128 0 0-96-128 0 0-64-24 0-112 112 11.3 11.3 100.7 100.7 24 0 0-64zm-16 0l0 48-1.4 0-96-96 96-96 1.4 0 0 64 128 0 0 64-128 0 0 16z"/></svg>