<svg xmlns="http://www.w3.org/2000/svg" viewBox="0 0 512 512"><!--! Font Awesome Pro 7.0.0 by @fontawesome - https://fontawesome.com License - https://fontawesome.com/license (Commercial License) Copyright 2025 Fonticons, Inc. --><path fill="currentColor" d="M256 16a240 240 0 1 1 0 480 240 240 0 1 1 0-480zm0 496a256 256 0 1 0 0-512 256 256 0 1 0 0 512zM245.2 144l-1.5 6-29.3 114-55.3 0-31.4-106.3-2.3-7.7-15.3 4.5 2.3 7.7 30.1 101.7-30.4 0 0 16 35.1 0 33.8 114.3 1.7 5.7 13.3 0 1.5-6 29.3-114 58.5 0 29.3 114 1.5 6 13.3 0 1.7-5.7 33.8-114.3 35.1 0 0-16-30.4 0 30.1-101.7 2.3-7.7-15.3-4.5-2.3 7.7-31.4 106.3-55.3 0-29.3-114-1.5-6-21.6 0zm78.1 220l-21.6-84 46.4 0-24.8 84zM256 166.3l25.1 97.7-50.2 0 25.1-97.7zM163.8 280l46.4 0-21.6 84-24.8-84z"/></svg>