<svg xmlns="http://www.w3.org/2000/svg" viewBox="0 0 512 512"><!--! Font Awesome Pro 7.0.0 by @fontawesome - https://fontawesome.com License - https://fontawesome.com/license (Commercial License) Copyright 2025 Fonticons, Inc. --><path fill="currentColor" d="M256 16a240 240 0 1 1 0 480 240 240 0 1 1 0-480zm0 496a256 256 0 1 0 0-512 256 256 0 1 0 0 512zM160 168l0 184 16 0 0-159.6 73.5 100.3 6.5 8.8 6.5-8.8 73.5-100.3 0 159.6 16 0 0-192-12.1 0-2.4 3.3-81.5 111.2-81.5-111.2-2.4-3.3-12.1 0 0 8z"/></svg>