<svg xmlns="http://www.w3.org/2000/svg" viewBox="0 0 512 512"><!--! Font Awesome Pro 7.0.0 by @fontawesome - https://fontawesome.com License - https://fontawesome.com/license (Commercial License) Copyright 2025 Fonticons, Inc. --><path fill="currentColor" d="M496 256a240 240 0 1 0 -480 0 240 240 0 1 0 480 0zM0 256a256 256 0 1 1 512 0 256 256 0 1 1 -512 0zM335.4 128l0 116.4c23.4-9.4 35.8-14.3 37-14.8l5.9 14.9-7.4 3-35.5 14.2 0 122.4-16 0 0-116c-22.5 9-34.4 13.8-35.9 14.4l-5.9-14.9 7.4-3 34.4-13.8 0-122.8 16 0zM152 192l109.2 0-6.1 11.7-85.9 164.3 86.8 0 0 16-113.2 0 6.1-11.7 85.9-164.3-90.8 0 0-16 8 0z"/></svg>