<svg xmlns="http://www.w3.org/2000/svg" viewBox="0 0 512 512"><!--! Font Awesome Pro 7.0.0 by @fontawesome - https://fontawesome.com License - https://fontawesome.com/license (Commercial License) Copyright 2025 Fonticons, Inc. --><path fill="currentColor" d="M256 16a240 240 0 1 1 0 480 240 240 0 1 1 0-480zm0 496a256 256 0 1 0 0-512 256 256 0 1 0 0 512zm-8-400l0 24.3c-62.5 4.1-112 56.2-112 119.7s49.5 115.6 112 119.7l0 24.3 16 0 0-24.3c62.5-4.1 112-56.2 112-119.7l0-8-112 0 0-95.7c25.2 1.9 47.8 12.8 64.8 29.4l5.7 5.6 11.2-11.4-5.7-5.6c-19.9-19.5-46.5-32.1-76-34l0-24.3-16 0zM152 256c0-54.7 42.3-99.6 96-103.7l0 207.4c-53.7-4.1-96-49-96-103.7zm207.7 8c-3.9 51.1-44.6 91.8-95.7 95.7l0-95.7 95.7 0z"/></svg>