<svg xmlns="http://www.w3.org/2000/svg" viewBox="0 0 512 512"><!--! Font Awesome Pro 7.0.0 by @fontawesome - https://fontawesome.com License - https://fontawesome.com/license (Commercial License) Copyright 2025 Fonticons, Inc. --><path fill="currentColor" d="M256 16a240 240 0 1 1 0 480 240 240 0 1 1 0-480zm0 496a256 256 0 1 0 0-512 256 256 0 1 0 0 512zm16-376l0-8-16 0 0 256 16 0 0-248zM144 168l0-8-16 0 0 192 16 0 0-184zm192 24l0-8-16 0 0 144 16 0 0-136zM208 208l0-8-16 0 0 112 16 0 0-104zm192 24l0-8-16 0 0 64 16 0 0-56z"/></svg>