<svg xmlns="http://www.w3.org/2000/svg" viewBox="0 0 512 512"><!--! Font Awesome Pro 7.0.0 by @fontawesome - https://fontawesome.com License - https://fontawesome.com/license (Commercial License) Copyright 2025 Fonticons, Inc. --><path fill="currentColor" d="M240 272l0-255.5C114.9 24.8 16 128.8 16 256 16 388.5 123.5 496 256 496 383.2 496 487.2 397.1 495.5 272L240 272zm271.5 0C503.2 405.9 392 512 256 512 114.6 512 0 397.4 0 256 0 120 106.1 8.8 240 .5 245.3 .2 250.6 0 256 0l0 256 256 0c0 5.4-.2 10.7-.5 16z"/></svg>