<svg xmlns="http://www.w3.org/2000/svg" viewBox="0 0 512 512"><!--! Font Awesome Pro 7.0.0 by @fontawesome - https://fontawesome.com License - https://fontawesome.com/license (Commercial License) Copyright 2025 Fonticons, Inc. --><path fill="currentColor" d="M256 496a240 240 0 1 1 0-480 240 240 0 1 1 0 480zM256 0a256 256 0 1 0 0 512 256 256 0 1 0 0-512zM199 311c-18.1 18.1-31.8 31.8-41 41l193.9 0 0-193.9c-70.6 70.6-55.4 55.4-68 68l-11.3-11.3-55.7-55.7-17-17c-15.8 15.8-21 21-41 41l-17 17c10.5 10.5 26.3 26.3 72.7 72.7L226.1 284c-6.8 6.8-15.8 15.8-27 27zM170.3 205.7l-5.7-5.7c.7-.7 10.6-10.6 29.7-29.7l5.7-5.7 5.7 5.7 67 67 11.3 11.3c4.9-4.9 17.7-17.7 38.3-38.3l13.7-13.7 0 139.3-139.3 0c6.9-6.9 20.4-20.4 40.7-40.7l11.3-11.3-11.3-11.3-67-67z"/></svg>