<svg xmlns="http://www.w3.org/2000/svg" viewBox="0 0 512 512"><!--! Font Awesome Pro 7.0.0 by @fontawesome - https://fontawesome.com License - https://fontawesome.com/license (Commercial License) Copyright 2025 Fonticons, Inc. --><path fill="currentColor" d="M256 16a240 240 0 1 1 0 480 240 240 0 1 1 0-480zm0 496a256 256 0 1 0 0-512 256 256 0 1 0 0 512zm32-352l-48 0c-30.9 0-56 25.1-56 56l0 64c0 1.1 .2 2.2 .6 3.2-.4 2.9-.6 5.8-.6 8.8 0 33.1 26.9 60 60 60l24 0c33.1 0 60-26.9 60-60s-26.9-60-60-60l-24 0c-17.4 0-33 7.4-44 19.2l0-35.2c0-22.1 17.9-40 40-40l48 0 0-16zm-44 88l24 0c24.3 0 44 19.7 44 44s-19.7 44-44 44l-24 0c-24.3 0-44-19.7-44-44s19.7-44 44-44z"/></svg>