<svg xmlns="http://www.w3.org/2000/svg" viewBox="0 0 512 512"><!--! Font Awesome Pro 7.0.0 by @fontawesome - https://fontawesome.com License - https://fontawesome.com/license (Commercial License) Copyright 2025 Fonticons, Inc. --><path fill="currentColor" d="M256 16a240 240 0 1 1 0 480 240 240 0 1 1 0-480zm0 496a256 256 0 1 0 0-512 256 256 0 1 0 0 512zm8-384.4l0-31.6-16 0 0 31.8c-66.5 4.9-119 60.4-119 128.2s52.4 123.3 119 128.2l0 31.8 16 0 0-31.6c39.4-1.9 74.2-21.6 96.5-51.3l-13.7-10.3c-20.3 27.1-52.7 44.6-89.1 44.6-61.5 0-111.4-49.9-111.4-111.4s49.9-111.4 111.4-111.4c36.4 0 68.8 17.5 89.1 44.6l13.7-10.3c-22.2-29.6-57-49.3-96.5-51.3z"/></svg>