<svg xmlns="http://www.w3.org/2000/svg" viewBox="0 0 512 512"><!--! Font Awesome Pro 7.0.0 by @fontawesome - https://fontawesome.com License - https://fontawesome.com/license (Commercial License) Copyright 2025 Fonticons, Inc. --><path fill="currentColor" d="M256 16a240 240 0 1 1 0 480 240 240 0 1 1 0-480zm0 496a256 256 0 1 0 0-512 256 256 0 1 0 0 512zM360 136l-16 0 0 32-10.8 0c-25 0-45.2 20.2-45.2 45.2 0 19.5 12.4 36.7 30.9 42.9l42 14c13.8 4.6 23.1 17.5 23.1 32.1 0 18.7-15.2 33.8-33.8 33.8l-54.2 0 0 16 48 0 0 32 16 0 0-33c22.8-4.6 40-24.7 40-48.9 0-21.5-13.7-40.5-34.1-47.3l-42-14c-11.9-4-20-15.1-20-27.7 0-16.1 13.1-29.2 29.2-29.2l58.8 0 0-16-32 0 0-32zM136 160l-8 0 0 208 16 0 0-80 56 0c.9 0 1.7 0 2.6-.1l30 75 3 7.4 14.9-5.9-3-7.4-28.7-71.8c26.2-8 45.3-32.4 45.3-61.2 0-35.3-28.7-64-64-64l-64 0zm64 112l-56 0 0-96 56 0c26.5 0 48 21.5 48 48s-21.5 48-48 48z"/></svg>