<svg xmlns="http://www.w3.org/2000/svg" viewBox="0 0 512 512"><!--! Font Awesome Pro 7.0.0 by @fontawesome - https://fontawesome.com License - https://fontawesome.com/license (Commercial License) Copyright 2025 Fonticons, Inc. --><path fill="currentColor" d="M256 16a240 240 0 1 1 0 480 240 240 0 1 1 0-480zm0 496a256 256 0 1 0 0-512 256 256 0 1 0 0 512zM322.3 99.2l-15-5.5-2.8 7.5-24.1 65.5c-9.7 5-17.8 12.6-23.5 21.9-9.6-17.1-27.9-28.6-48.9-28.6-15.7 0-29.8 6.4-40 16.8 0-6 0-11.6 0-16.8l-16 0 0 8 0 64 0 8 0 0 0 104 0 8 16 0 0-8 0-128c0-22.1 17.9-40 40-40s40 17.9 40 40l0 3.3 0 .7 0 34.6-55.5 150.7-2.8 7.5 15 5.5 2.8-7.5 40.5-109.9c0 28 0 42.3 0 43.1l0 0 0 8 16 0 0-8 0-86.6 29-78.8c4.7-1.7 9.7-2.6 15-2.6 24.3 0 44 19.7 44 44l0 132 16 0 0-132c0-33.1-26.9-60-60-60-2.8 0-5.6 .2-8.3 .6l19.8-53.8 2.8-7.5z"/></svg>