<svg xmlns="http://www.w3.org/2000/svg" viewBox="0 0 512 512"><!--! Font Awesome Pro 7.0.0 by @fontawesome - https://fontawesome.com License - https://fontawesome.com/license (Commercial License) Copyright 2025 Fonticons, Inc. --><path fill="currentColor" d="M496 256a240 240 0 1 0 -480 0 240 240 0 1 0 480 0zM0 256a256 256 0 1 1 512 0 256 256 0 1 1 -512 0zM192 144c35.3 0 64 28.7 64 64l0 16-16 0 0-16c0-26.5-21.5-48-48-48s-48 21.5-48 48l0 96c0 26.5 21.5 48 48 48s48-21.5 48-48l0-16-48 0 0-16 64 0 0 32c0 35.3-28.7 64-64 64s-64-28.7-64-64l0-96c0-35.3 28.7-64 64-64zm96 0l96 0 0 16-80 0 0 96 64 0 0 16-64 0 0 96-16 0 0-224z"/></svg>