<svg xmlns="http://www.w3.org/2000/svg" viewBox="0 0 512 512"><!--! Font Awesome Pro 7.0.0 by @fontawesome - https://fontawesome.com License - https://fontawesome.com/license (Commercial License) Copyright 2025 Fonticons, Inc. --><path fill="currentColor" d="M256 16a240 240 0 1 1 0 480 240 240 0 1 1 0-480zm0 496a256 256 0 1 0 0-512 256 256 0 1 0 0 512zm-8-312l-48-80-72 40 0 8c0 119.3 96.7 216 216 216l8 0 40-72-80-48-28 28.4c-29.6-11.4-53-34.8-64.4-64.4L248 200zm47.4 103.6l19.2-19.4 55.9 33.6-27.9 50.2c-109.3-.8-197.8-89.2-198.6-198.6l50.2-27.9 33.6 55.9c-14.9 14.7-23.9 23.6-26.9 26.5l3.8 9.8c13 33.8 39.7 60.5 73.6 73.6l9.8 3.8 7.4-7.5z"/></svg>