<svg xmlns="http://www.w3.org/2000/svg" viewBox="0 0 512 512"><!--! Font Awesome Pro 7.0.0 by @fontawesome - https://fontawesome.com License - https://fontawesome.com/license (Commercial License) Copyright 2025 Fonticons, Inc. --><path fill="currentColor" d="M256 16a240 240 0 1 1 0 480 240 240 0 1 1 0-480zm0 496a256 256 0 1 0 0-512 256 256 0 1 0 0 512zM224 128l-16 0 0 8 0 95.6-50.5 16.8-7.6 2.5 5.1 15.2 7.6-2.5 45.5-15.2 0 127.6 0 8 144 0 0-16-128 0 0-124.9 82.5-27.5 7.6-2.5-5.1-15.2-7.6 2.5-77.5 25.8 0-90.2 0-8z"/></svg>