<svg xmlns="http://www.w3.org/2000/svg" viewBox="0 0 512 512"><!--! Font Awesome Pro 7.0.0 by @fontawesome - https://fontawesome.com License - https://fontawesome.com/license (Commercial License) Copyright 2025 Fonticons, Inc. --><path fill="currentColor" d="M256 16a240 240 0 1 1 0 480 240 240 0 1 1 0-480zm0 496a256 256 0 1 0 0-512 256 256 0 1 0 0 512zm20-264l-68 0 0 16 68 0c19.9 0 36 16.1 36 36s-16.1 36-36 36l-84 0 0 16 84 0c28.7 0 52-23.3 52-52 0-18.5-9.7-34.8-24.3-44 14.6-9.2 24.3-25.5 24.3-44 0-28.7-23.3-52-52-52l-84 0 0 16 84 0c19.9 0 36 16.1 36 36s-16.1 36-36 36z"/></svg>