<svg xmlns="http://www.w3.org/2000/svg" viewBox="0 0 512 512"><!--! Font Awesome Pro 7.0.0 by @fontawesome - https://fontawesome.com License - https://fontawesome.com/license (Commercial License) Copyright 2025 Fonticons, Inc. --><path fill="currentColor" d="M136.2 147.3l-133.7-133.7 11.3-11.3 136 136 2.3 2.3 0 59.3 59.3 0 2.3 2.3 128 128 2.3 2.3 0 59.3 59.3 0 106.3 106.3-11.3 11.3-101.7-101.7-68.7 0 0-68.7-123.3-123.3-68.7 0 0-68.7zm-32 192l-101.7-101.7 11.3-11.3 104 104 2.3 2.3 0 59.3 59.3 0 2.3 2.3 104 104-11.3 11.3-101.7-101.7-68.7 0 0-68.7zM226.5 13.7l11.3-11.3 40 40 2.3 2.3 0 59.3 59.3 0 2.3 2.3 64 64 2.3 2.3 0 59.3 59.3 0 2.3 2.3 40 40-11.3 11.3-37.7-37.7-68.7 0 0-68.7-59.3-59.3-68.7 0 0-68.7-37.7-37.7z"/></svg>