<svg xmlns="http://www.w3.org/2000/svg" viewBox="0 0 640 512"><!--! Font Awesome Pro 7.0.0 by @fontawesome - https://fontawesome.com License - https://fontawesome.com/license (Commercial License) Copyright 2025 Fonticons, Inc. --><path fill="currentColor" d="M208.3 29.2l-8.8-5.9-56.7-37.6-13.5 66.7-2.1 10.4-10.4 2.1-66.7 13.5 37.6 56.7 5.9 8.8-5.9 8.8-37.6 56.7 63.6 12.9c-.7 5.3-1.1 10.6-1.2 16.1l-69.3-14-2.7-.6-16.9-3.4 9.5-14.4 1.5-2.3 39.7-59.8-39.7-59.8-1.5-2.3-9.5-14.4 16.9-3.4 2.7-.6 70.4-14.2 14.2-70.4 .6-2.7 3.4-16.9 14.4 9.5 2.3 1.5 59.8 39.7 59.8-39.7 2.3-1.5 14.4-9.5 3.4 16.9 .6 2.7 7.6 37.4c-5.4 .3-10.7 1-15.9 2l-6.6-32.6-56.7 37.6-8.8 5.9zM512.2 128c0-44.2-35.8-80-80-80-32 0-59.6 18.8-72.4 46l-4.6 9.8-8-7.2c-11.4-10.3-26.4-16.5-42.9-16.5-35.3 0-64 28.7-64 64l0 31.6-7.1 .8c-32 3.5-56.9 30.7-56.9 63.6l0 64 103.4 0-16.7 16-102.8 0 0-80c0-38.7 27.5-71 64-78.4l0-17.6c0-44.2 35.8-80 80-80 17 0 32.8 5.3 45.8 14.4 16.8-27.8 47.3-46.4 82.2-46.4 53.3 0 96 44.5 96 97.3 45.4 7.6 80 47.1 80 94.7l0 8 .1 0 0 88-96 0 0-16-53.3 0 0 0 133.2 0 0-80c0-41.7-31.9-76-72.7-79.7l-7.3-.7 0-15.6zM357 420.5l-20.6 70.5 128.1-123-90.9 0c1.6-5.3 10.4-35.6 26.5-91l-128.1 123 90.9 0-6 20.5zM232.3 416L249 400 409.2 246.2 432.3 224c-3.5 12.1-14.4 49.5-32.7 112l-4.7 16 109.3 0-16.7 16-160.2 153.8-23.1 22.2c3.5-12.1 14.4-49.5 32.7-112l4.7-16-109.3 0z"/></svg>