<svg xmlns="http://www.w3.org/2000/svg" viewBox="0 0 640 512"><!--! Font Awesome Pro 7.0.0 by @fontawesome - https://fontawesome.com License - https://fontawesome.com/license (Commercial License) Copyright 2025 Fonticons, Inc. --><path fill="currentColor" d="M498.8 93.6l10.4 2.1 83.1 16.8-46.9 70.7-5.9 8.8 5.9 8.8 46.9 70.7-79 16c7 3.6 13.7 7.7 20 12.3 54.3-11 82.7-16.7 85.4-17.3l-9.5-14.4-50.5-76.1 50.5-76.1 9.5-14.4-16.9-3.4-89.5-18.1-18.1-89.5-3.4-16.9-14.4 9.5-76.1 50.5-76.1-50.5-14.4-9.5-3.4 16.9-18.1 89.5-89.5 18.1-16.9 3.4c4.8 7.3 14.2 21.5 28.2 42.5 6.8 .1 13.6 .6 20.2 1.5l-21.9-33 83.1-16.8 10.4-2.1 2.1-10.4 16.8-83.1 70.7 46.9 8.8 5.9 8.8-5.9 70.7-46.9 16.8 83.1 2.1 10.4zM320.7 185.2c5.5-2.2 11.1-4 16.9-5.5 5.7-29.5 31.7-51.7 62.8-51.7 35.3 0 64 28.7 64 64 0 8-1.5 15.7-4.2 22.8 4.1 4.2 8 8.8 11.5 13.6 5.6-10.9 8.7-23.3 8.7-36.4 0-44.2-35.8-80-80-80-41.9 0-76.3 32.2-79.7 73.2zM208.4 192c-61.9 0-112 50.1-112 112l0 21.5c-37.3 13.2-64 48.7-64 90.5l0 96 512 0 0-96c0-53-43-96-96-96l0-16c0-44.2-35.8-80-80-80-24.3 0-46.1 10.9-60.8 28-18.7-35.7-56.1-60-99.2-60zm-96 112c0-53 43-96 96-96 41.3 0 76.6 26.1 90.1 62.8l5.9 16 8.5-14.8c11.1-19.2 31.8-32 55.5-32 35.3 0 64 28.7 64 64l0 33.1 8.7-.8c2.4-.2 4.8-.3 7.3-.3 44.2 0 80 35.8 80 80l0 80-480 0 0-80c0-36.6 24.6-67.5 58.2-77l5.8-1.6 0-33.4z"/></svg>