<svg xmlns="http://www.w3.org/2000/svg" viewBox="0 0 448 512"><!--! Font Awesome Pro 7.0.0 by @fontawesome - https://fontawesome.com License - https://fontawesome.com/license (Commercial License) Copyright 2025 Fonticons, Inc. --><path fill="currentColor" d="M112 16l0 96-96 0 0-96 96 0zM16 0l-16 0 0 128 56 0 0 56c0 48.6 39.4 88 88 88l72 0 0 112-56 0 0 128 128 0 0-128-56 0 0-112 72 0c48.6 0 88-39.4 88-88l0-56 56 0 0-128-128 0 0 128 56 0 0 56c0 39.8-32.2 72-72 72l-160 0c-39.8 0-72-32.2-72-72l0-56 56 0 0-128-112 0zM272 400l0 96-96 0 0-96 96 0zM336 16l96 0 0 96-96 0 0-96z"/></svg>