<svg xmlns="http://www.w3.org/2000/svg" viewBox="0 0 512 512"><!--! Font Awesome Pro 7.0.0 by @fontawesome - https://fontawesome.com License - https://fontawesome.com/license (Commercial License) Copyright 2025 Fonticons, Inc. --><path fill="currentColor" d="M309.7 5.7l5.7-5.7-11.3-11.3-5.7 5.7-72 72-5.7 5.7 5.7 5.7 72 72 5.7 5.7 11.3-11.3-5.7-5.7-58.3-58.3 108.7 0c30.9 0 56 25.1 56 56l0 232-64 0 0 144 144 0 0-144-64 0 0-232c0-39.8-32.2-72-72-72L251.3 64 309.7 5.7zM144 16l0 112-112 0 0-112 112 0zM32 0l-16 0 0 144 64 0 0 224-64 0 0 144 144 0 0-144-64 0 0-224 64 0 0-144-128 0zm0 384l112 0 0 112-112 0 0-112zm336 0l112 0 0 112-112 0 0-112z"/></svg>