<svg xmlns="http://www.w3.org/2000/svg" viewBox="0 0 512 512"><!--! Font Awesome Pro 7.0.0 by @fontawesome - https://fontawesome.com License - https://fontawesome.com/license (Commercial License) Copyright 2025 Fonticons, Inc. --><path fill="currentColor" d="M144 80c0 5.6 2.3 11.5 7.5 17.6-6.1 .5-12.2 1.1-18.2 1.8-3.3-6-5.2-12.4-5.2-19.3 0-12.9 6.7-24.4 17-33.9 10.3-9.5 24.8-17.7 42-24.5 34.4-13.5 81.5-21.6 133-21.6s98.6 8.2 133 21.6c17.2 6.7 31.7 14.9 41.9 24.5 10.3 9.5 17 21 17 33.9l0 209.9c0 12.7-6.8 24-17.1 33.2s-24.8 17.3-41.9 23.8c-6.6 2.5-13.6 4.8-21 6.9l0-16.7c5.4-1.6 10.5-3.4 15.3-5.2 16.1-6.1 28.6-13.3 36.9-20.7S496 296.5 496 289.9l0-73.7c-.4 .3-.7 .7-1.1 1-10.3 9.3-24.8 17.3-41.9 23.8-6.6 2.5-13.6 4.8-21 6.9l0-16.7c5.4-1.6 10.5-3.4 15.3-5.2 16.1-6.1 28.6-13.3 36.9-20.7S496 190.6 496 184l0-71.1c-.3 .3-.7 .6-1 1-10.3 9.5-24.8 17.7-41.9 24.5-15.9 6.2-34.6 11.3-55.1 15-5.5-4.9-11.4-9.4-17.6-13.4 25.6-3.5 48.4-9.3 66.9-16.5 16.1-6.3 28.6-13.6 36.9-21.3 8.3-7.7 11.9-15.2 11.9-22.2s-3.6-14.5-11.9-22.2C475.8 50.1 463.3 42.8 447.2 36.5 415 24 370.1 16 320 16s-95 8-127.2 20.5C176.7 42.8 164.2 50.1 155.9 57.8 147.6 65.5 144 73 144 80zM16 224c0 7 3.6 14.5 11.9 22.2 8.3 7.7 20.8 15 36.9 21.3 32.2 12.6 77.1 20.5 127.2 20.5s95-8 127.2-20.5c16.1-6.3 28.6-13.6 36.9-21.3 8.3-7.7 11.9-15.2 11.9-22.2s-3.6-14.5-11.9-22.2c-8.3-7.7-20.8-15-36.9-21.3-32.2-12.6-77.1-20.5-127.2-20.5s-95 8-127.2 20.5C48.7 186.8 36.2 194.1 27.9 201.8 19.6 209.5 16 217 16 224zM0 224c0-12.9 6.7-24.4 17-33.9 10.3-9.5 24.8-17.7 42-24.5 34.4-13.5 81.5-21.6 133-21.6s98.6 8.2 133 21.6c17.2 6.7 31.7 14.9 41.9 24.5 10.3 9.5 17 21 17 33.9l0 209.9c0 12.7-6.8 24-17.1 33.2s-24.8 17.3-41.9 23.8C290.5 504.1 243.5 512 192 512s-98.5-7.9-133-21.1c-17.2-6.5-31.6-14.5-41.9-23.8S0 446.6 0 433.9L0 224zm368 32.9c-.3 .3-.7 .6-1 1-10.3 9.5-24.8 17.7-41.9 24.5-34.4 13.5-81.5 21.6-133 21.6s-98.6-8.2-133-21.6c-17.2-6.7-31.7-14.9-42-24.5-.3-.3-.7-.6-1-1L16 328c0 6.6 3.5 13.8 11.8 21.3s20.8 14.6 36.9 20.7c32.2 12.3 77.2 20 127.3 20s95.1-7.7 127.3-20c16.1-6.1 28.6-13.3 36.9-20.7S368 334.6 368 328l0-71.1zM17.1 361.2c-.4-.3-.7-.7-1.1-1l0 73.7c0 6.6 3.5 13.8 11.8 21.3S48.6 469.9 64.7 476c32.2 12.3 77.2 20 127.3 20s95.1-7.8 127.3-20c16.1-6.1 28.6-13.3 36.9-20.7S368 440.5 368 433.9l0-73.7c-.4 .3-.7 .7-1.1 1-10.3 9.3-24.8 17.3-41.9 23.8-34.4 13.1-81.4 21.1-133 21.1S93.5 398.2 59 385c-17.2-6.5-31.6-14.5-41.9-23.8z"/></svg>