<svg xmlns="http://www.w3.org/2000/svg" viewBox="0 0 384 512"><!--! Font Awesome Pro 7.0.0 by @fontawesome - https://fontawesome.com License - https://fontawesome.com/license (Commercial License) Copyright 2025 Fonticons, Inc. --><path fill="currentColor" d="M319.8 2.2l-15.5-3.9-1.9 7.8-15.5 62c-22-8.3-45.8-12.8-70.7-12.8-1.9 0-3.7 0-5.6 .1l9.4-37.4 1.9-7.8-15.5-3.9-1.9 7.8-10.6 42.4C93.4 67.6 15.3 152.7 15.3 256 15.3 324.7 49.8 385.3 102.5 421.5l-18.1 72.6-1.9 7.8 15.5 3.9 1.9-7.8 16.9-67.5c22.2 12.6 46.9 21.2 73.4 24.6l-11.8 47-1.9 7.8 15.5 3.9 1.9-7.8 12.4-49.5c3.3 .2 6.6 .2 9.9 .2 65.7 0 124-31.5 160.6-80.3l-14-10.5c-33.5 44.5-86.7 73.3-146.6 73.3-1.9 0-3.7 0-5.6-.1L297.4 91.7c25.8 12.8 48.1 31.5 65.3 54.3l14-10.5c-19.5-26-45.2-47.1-74.9-61.1l16.1-64.5 1.9-7.8zm-37.2 83L194.3 438c-26.6-3.1-51.4-12-73.2-25.2L206.1 73c3.3-.2 6.6-.3 10-.3 23.4 0 45.9 4.4 66.5 12.4zM32.8 256c0-92.1 67.9-168.3 156.4-181.3L107 403.3C62 369.9 32.8 316.4 32.8 256z"/></svg>