<svg xmlns="http://www.w3.org/2000/svg" viewBox="0 0 512 512"><!--! Font Awesome Pro 7.0.0 by @fontawesome - https://fontawesome.com License - https://fontawesome.com/license (Commercial License) Copyright 2025 Fonticons, Inc. --><path fill="currentColor" d="M28.1 485.4L70.2 382.1C37.1 341.1 16 293.5 16 240 16 117.2 122.5 16 256 16S496 117.2 496 240 389.5 464 256 464c-35.7 0-70.1-7.9-103-21.5L28.1 485.4zM51.8 384.8L0 512 152.5 459.6c31.6 13.1 66.7 20.4 103.5 20.4 141.4 0 256-107.5 256-240S397.4 0 256 0 0 107.5 0 240c0 54.4 19.3 104.6 51.8 144.8zM256 328c-40.3 0-76.5-17.5-101.4-45.3l-11.9 10.7C170.5 324.4 211 344 256 344s85.5-19.6 113.3-50.7l-11.9-10.7C332.5 310.5 296.3 328 256 328zM208 192a16 16 0 1 0 -32 0 16 16 0 1 0 32 0zm112 16a16 16 0 1 0 0-32 16 16 0 1 0 0 32z"/></svg>