<svg xmlns="http://www.w3.org/2000/svg" viewBox="0 0 448 512"><!--! Font Awesome Pro 7.0.0 by @fontawesome - https://fontawesome.com License - https://fontawesome.com/license (Commercial License) Copyright 2025 Fonticons, Inc. --><path fill="currentColor" d="M248.2 48c-114.9 0-208 93.1-208 208 0 98.4 68.3 180.8 160 202.4l0-210.4 16 0 0 42.9c15.7-21.7 41.1-34.9 68.2-34.9l19.8 0 0 16-19.8 0c-24.5 0-47.1 13.1-59.3 34.4-5.9 10.3-9 22-9 33.9l0 121.3c10.4 1.6 21.1 2.4 32 2.4 68 0 128.4-32.7 166.4-83.2l12.8 9.6c-40.9 54.4-105.9 89.6-179.2 89.6-123.7 0-224-100.3-224-224S124.5 32 248.2 32c73.3 0 138.3 35.2 179.2 89.6l-12.8 9.6C376.6 80.7 316.2 48 248.2 48z"/></svg>