<svg xmlns="http://www.w3.org/2000/svg" viewBox="0 0 448 512"><!--! Font Awesome Pro 7.0.0 by @fontawesome - https://fontawesome.com License - https://fontawesome.com/license (Commercial License) Copyright 2025 Fonticons, Inc. --><path fill="currentColor" d="M48 32l0 287.4 187-149.6 6.2-5 10 12.5-6.2 5-127.7 102.2 137.1 182.8 4.8 6.4-12.8 9.6-4.8-6.4-136.8-182.4-56.8 45.4 0 140.2-16 0 0-448 16 0zM320 176l0 48.3c4.1-6.4 8.9-12.5 14.3-17.9 19.4-19.4 45.8-30.3 73.3-30.3l40.4 0 0 16-40.4 0c-23.2 0-45.5 9.2-61.9 25.7S320 256.4 320 279.6l0 200.4-16 0 0-312 16 0 0 8zm80 304c-8.8 0-16-7.2-16-16s7.2-16 16-16 16 7.2 16 16-7.2 16-16 16z"/></svg>