<svg xmlns="http://www.w3.org/2000/svg" viewBox="0 0 448 512"><!--! Font Awesome Pro 7.0.0 by @fontawesome - https://fontawesome.com License - https://fontawesome.com/license (Commercial License) Copyright 2025 Fonticons, Inc. --><path fill="currentColor" d="M16 190.1l107.9 64.7 1.9 1.1 196.4 0 1.9-1.1 107.9-64.7 0 109.3-114.2 68.5-187.6 0-114.2-68.5 0-109.3zm0-18.7L16 88.9 132.6 16 315.4 16 432 88.9 432 171.5 317.8 240 130.2 240 16 171.5zm0 251.7l0-105 107.9 64.7 1.9 1.1 196.4 0 1.9-1.1 107.9-64.7 0 105-116.6 72.9-182.8 0-116.6-72.9zM128 0l-128 80 0 352 128 80 192 0 128-80 0-352-128-80-192 0z"/></svg>