<svg xmlns="http://www.w3.org/2000/svg" viewBox="0 0 576 512"><!--! Font Awesome Pro 7.0.0 by @fontawesome - https://fontawesome.com License - https://fontawesome.com/license (Commercial License) Copyright 2025 Fonticons, Inc. --><path fill="currentColor" d="M240 8l0-8-16 0 0 32c0 26.5 21.5 48 48 48l38.1 0-49.7 24.8-4.4 2.2 0 36.9 62.5 0-11.3 32-219.2 0c-48.6 0-88 39.4-88 88l0 56 16 0 0-56c0-39.8 32.2-72 72-72l230.6 0 1.9-5.3 15-42.7 8.6 0 0-16-72 0 0-11.1 73.9-36.9 58.8 0 75.5 75.5c1 11.7 7 21.9 15.9 28.5l0 24-102.1 0-1.6 5.9-22.3 81.8c-1.3 4.8-2 9.8-2 14.7l0 185.6-72 0 0-152-77.2 0c-28.8-23-46.8-37.5-54.1-43.3 1.7 10 5.2 31.2 10.6 63.5l-43.7 29.1-5 3.3 1.8 5.7 28.8 93.6-71.3 0-29.5-95.9 15.2-45.6 .4-1.2 0-37.6-3.6-2.4-24.6-16.4C39 293.7 35 289.5 32 284.7l0 23.4c1 .7 1.9 1.4 3 2.1l21 14 0 26.4-15.6 46.8-.8 2.4 .8 2.5 32 104 1.7 5.6 104.7 0-3.2-10.4-30.2-98.3 43-28.7 4.3-2.9-.9-5.1-4.6-27.4 23.7 18.9 2.2 1.8 66.8 0 0 152 104 0 0-201.6c0-3.6 .5-7.1 1.4-10.5l20.7-75.9 105.9 0 0-32.8c2.6 .5 5.3 .8 8 .8 22.1 0 40-17.9 40-40s-17.9-40-40-40c-16.4 0-30.5 9.9-36.7 24L427.2 79.9C452.2 78.2 472 57.4 472 32l0-32-16 0 0 32c0 17.7-14.3 32-32 32l-84.2 0c7.6-8.5 12.2-19.7 12.2-32l0-32-16 0 0 32c0 17.7-14.3 32-32 32l-32 0c-17.7 0-32-14.3-32-32l0-24zM544 152a24 24 0 1 1 -48 0 24 24 0 1 1 48 0zm-128-8a16 16 0 1 0 -32 0 16 16 0 1 0 32 0z"/></svg>