<svg xmlns="http://www.w3.org/2000/svg" viewBox="0 0 640 512"><!--! Font Awesome Pro 7.0.0 by @fontawesome - https://fontawesome.com License - https://fontawesome.com/license (Commercial License) Copyright 2025 Fonticons, Inc. --><path fill="currentColor" d="M576 448l-400 0-176-192 176-192 400 0 0 384zM21.7 256l161.3 176 377 0 0-352-377 0-161.3 176zM408 188.7l11.3 11.3-5.7 5.7-50.3 50.3 50.3 50.3 5.7 5.7-11.3 11.3-5.7-5.7-50.3-50.3-50.3 50.3-5.7 5.7-11.3-11.3 5.7-5.7 50.3-50.3-50.3-50.3-5.7-5.7 11.3-11.3 5.7 5.7 50.3 50.3 50.3-50.3 5.7-5.7z"/></svg>