<svg xmlns="http://www.w3.org/2000/svg" viewBox="0 0 640 512"><!--! Font Awesome Pro 7.0.0 by @fontawesome - https://fontawesome.com License - https://fontawesome.com/license (Commercial License) Copyright 2025 Fonticons, Inc. --><path fill="currentColor" d="M64 448l400 0 176-192-176-192-400 0 0 384zM618.3 256L457 432 80 432 80 80 457 80 618.3 256zM232 188.7l-11.3 11.3 5.7 5.7 50.3 50.3-50.3 50.3-5.7 5.7 11.3 11.3 5.7-5.7 50.3-50.3 50.3 50.3 5.7 5.7 11.3-11.3-5.7-5.7-50.3-50.3 50.3-50.3 5.7-5.7-11.3-11.3-5.7 5.7-50.3 50.3-50.3-50.3-5.7-5.7z"/></svg>