<svg xmlns="http://www.w3.org/2000/svg" viewBox="0 0 576 512"><!--! Font Awesome Pro 7.0.0 by @fontawesome - https://fontawesome.com License - https://fontawesome.com/license (Commercial License) Copyright 2025 Fonticons, Inc. --><path fill="currentColor" d="M272 16l32 0 0 32-32 0 0-32zM256 0l0 64 64 0 0-64-64 0zM80 80l32 0 0 32-32 0 0-32zM64 64l0 64 64 0 0-64-64 0zM464 80l32 0 0 32-32 0 0-32zM448 64l0 64 64 0 0-64-64 0zM560 272l0 32-32 0 0-32 32 0zm-32-16l-16 0 0 64 64 0 0-64-48 0zM464 464l32 0 0 32-32 0 0-32zm-16-16l0 64 64 0 0-64-64 0zM112 464l0 32-32 0 0-32 32 0zM80 448l-16 0 0 64 64 0 0-64-48 0zM48 272l0 32-32 0 0-32 32 0zM16 256l-16 0 0 64 64 0 0-64-48 0zm266.3 26.3L180.7 384c-50.7-56.5-48.8-143.5 5.5-197.8 56.2-56.2 147.4-56.2 203.6 0s56.2 147.4 0 203.6C335.5 444.2 248.5 446 192 395.3l101.7-101.7 5.7-5.7-11.3-11.3-5.7 5.7zM174.9 401.1A160 160 0 1 0 401.1 174.9 160 160 0 1 0 174.9 401.1z"/></svg>