<svg xmlns="http://www.w3.org/2000/svg" viewBox="0 0 320 512"><!--! Font Awesome Pro 7.0.0 by @fontawesome - https://fontawesome.com License - https://fontawesome.com/license (Commercial License) Copyright 2025 Fonticons, Inc. --><path fill="currentColor" d="M96 128l16 0 0 256-111 0c6.1 6.6 64.9 69.9 141.5 152.3 3.7 4 9.6 10.3 17.6 18.9 8-8.6 13.8-14.9 17.6-18.9 184.4-198.6 109.5-117.9 141.4-152.3l-111 0 0-256 111 0c-6.1-6.6-64.9-69.9-141.4-152.3-3.7-4-9.6-10.3-17.6-18.9-1.6 1.7-35.7 38.5-121.6 130.9-16.4 17.6-28.8 31.1-37.5 40.3l95 0zM37.7 112l12.5-13.4 104-112 5.9-6.3 5.9 6.3 104 112 12.5 13.4-90.3 0 0 288 90.3 0-12.5 13.4-104 112-5.9 6.3-5.9-6.3-104-112-12.5-13.4 90.3 0 0-288-90.3 0z"/></svg>