<svg xmlns="http://www.w3.org/2000/svg" viewBox="0 0 576 512"><!--! Font Awesome Pro 7.0.0 by @fontawesome - https://fontawesome.com License - https://fontawesome.com/license (Commercial License) Copyright 2025 Fonticons, Inc. --><path fill="currentColor" d="M369.7-29.8C369-27 366.5-17.1 362.2 0l105.1 0 32 32 76.7 0 0 48c0 48.6-39.4 88-88 88l-41.8 0-14.2 56.9 0 287.1-112 0 0-156.2-21.5 8.6c-30.4 12.2-64.1 12.9-94.9 2.3l-6.1-2.3-21.5-8.6 0 156.2-112 0 0-336.5c-36-4-64-34.4-64-71.5l0-8 16 0 0 8c0 30.9 25.1 56 56 56l188.8 0-162.1-146.1-6-5.3 10.7-11.9 5.9 5.4 175.3 157.9 21.1 0 46.5-185.9 1.9-7.7 15.5 3.9zM80 496l80 0 0-163.8 11 4.4 32.5 13c21.9 8.8 45.7 10.8 68.6 6.1l0-179.7-192 0 0 320zM288 351.3c1.5-.5 3.1-1.1 4.6-1.7l32.5-13 11-4.4 0 163.8 80 0 0-267.1-105.9-52.9-22.1 0 0 175.3zm33.3-187.6l97.4 48.7 13.6-54.3 1.5-6.1 54.2 0c39.8 0 72-32.2 72-72l0-32-67.3 0-32-32-102.4 0-37 147.7zM432 80a16 16 0 1 1 0-32 16 16 0 1 1 0 32z"/></svg>