<svg xmlns="http://www.w3.org/2000/svg" viewBox="0 0 512 512"><!--! Font Awesome Pro 7.0.0 by @fontawesome - https://fontawesome.com License - https://fontawesome.com/license (Commercial License) Copyright 2025 Fonticons, Inc. --><path fill="currentColor" d="M48 140C48 71.5 103.5 16 172 16l40.3 0c44.1 0 85.9 10.1 123.2 28.1l2.5 1.2 2.7-.6 113.4-24.8 8.1 6.5-36.5 79.1-2.2 4.7 3.4 3.9C469.9 163.8 496 228.7 496 299.7 496 381.6 429.6 448 347.7 448l-91.6 0-2.1 4.8-19.2 43.2-54.5 0 27-60.8 1.4-3.2-1.4-3.2-27-60.8 54.5 0 19.2 43.2 2.1 4.8 75.9 0c42 0 76-34 76-76s-34-76-76-76l-12 0 0 88-26.7 0-79.3-77.7-2.3-2.3-195.6 0 0-41.2c.9-.5 15-8.7 42.1-24.6l6.5-3.8-3.4-6.7C52.8 179 48 160.1 48 140zM172 0C94.7 0 32 62.7 32 140 32 159.9 36.2 178.9 43.7 196.1-4.7 224.3 4.6 218.9 0 221.6l0 66.4 205.1 0 79.3 77.7 2.3 2.3 49.3 0 0-87.9c31.3 2.1 56 28.1 56 59.9 0 33.1-26.9 60-60 60l-65.5 0-19.2-43.2-2.1-4.8-89.5 0 5 11.2 30.6 68.8-30.6 68.8-5 11.2 89.5 0 2.1-4.8 19.2-43.2 81.2 0c90.7 0 164.3-73.5 164.3-164.3 0-73.1-26.2-140.2-69.7-192.2l37-80.2 2.6-5.7C480.5 20.5 473.5 15 461 5l-3-2.4-3.7 .8-114.4 25.1C301.2 10.2 257.9 0 212.3 0L172 0zM144 160a16 16 0 1 0 0-32 16 16 0 1 0 0 32z"/></svg>