<svg xmlns="http://www.w3.org/2000/svg" viewBox="0 0 384 512"><!--! Font Awesome Pro 7.0.0 by @fontawesome - https://fontawesome.com License - https://fontawesome.com/license (Commercial License) Copyright 2025 Fonticons, Inc. --><path fill="currentColor" d="M0 512l32 0 0-32-32 0 0 32zm88 0l32 0 0-32-32 0 0 32zm120 0l0-32-32 0 0 32 32 0zm56 0l32 0 0-32-32 0 0 32zm120 0l0-32-32 0 0 32 32 0zM128 192l-128 0 15.1 16 165.8 175.2 11 11.6 11-11.6 165.8-175.2 15.1-16-128 0 0-192-128 0 0 128 0 0 0 64zm16-64l0 0 0-112 96 0 0 192 106.8 0-154.8 163.6-154.8-163.6 106.8 0 0-80z"/></svg>