<svg xmlns="http://www.w3.org/2000/svg" viewBox="0 0 640 512"><!--! Font Awesome Pro 7.0.0 by @fontawesome - https://fontawesome.com License - https://fontawesome.com/license (Commercial License) Copyright 2025 Fonticons, Inc. --><path fill="currentColor" d="M0 96l288 0 0 16-136 0 0 96 336 0 0-96-136 0 0-16 288 0 0 16-136 0 0 115.3-2.3 2.3-50 50 2.7 3.4 56 72 1.7 2.2 0 90.7-16 0 0-85.3-54.3-69.8-1.4-1.8-58.6 58.6-2.3 2.3-118.6 0-2.3-2.3-58.6-58.6-1.4 1.8-54.3 69.8 0 85.3-16 0 0-90.7 1.7-2.2 56-72 2.7-3.4-50-50-2.3-2.3 0-115.3-136 0 0-16zM155.3 224l112 112 105.4 0 112-112-329.4 0z"/></svg>