<svg xmlns="http://www.w3.org/2000/svg" viewBox="0 0 640 512"><!--! Font Awesome Pro 7.0.0 by @fontawesome - https://fontawesome.com License - https://fontawesome.com/license (Commercial License) Copyright 2025 Fonticons, Inc. --><path fill="currentColor" d="M416 48l-88 0 0 80 184 0 0 80.7c-5.3-.4-10.6-.7-16-.7l0-64-352 0 0 224 84 0 2.4 3.2 45.6 60.8 30.7 0c.9 5.4 2 10.7 3.4 16l-42 0-2.4-3.2-45.6-60.8-92 0 0-120-48 0 0 96-16 0 0-208 16 0 0 96 48 0 0-120 184 0 0-80-88 0 0-16 192 0 0 16zM560 218.9l0-58.9 16 0 0 65.4c-5.2-2.4-10.6-4.6-16-6.5zM408 224l-184 0 0-16 192 0 0 16-8 0zM624 400a128 128 0 1 0 -256 0 128 128 0 1 0 256 0zm-272 0a144 144 0 1 1 288 0 144 144 0 1 1 -288 0zm156 76l-24 0 0-24 24 0 0 24zm-4-164l0 112-16 0 0-112 16 0z"/></svg>