<svg xmlns="http://www.w3.org/2000/svg" viewBox="0 0 576 512"><!--! Font Awesome Pro 7.0.0 by @fontawesome - https://fontawesome.com License - https://fontawesome.com/license (Commercial License) Copyright 2025 Fonticons, Inc. --><path fill="currentColor" d="M432 80a64 64 0 1 1 128 0 64 64 0 1 1 -128 0zm144 0a80 80 0 1 0 -160 0 80 80 0 1 0 160 0zM544 440l0-241.3c-5.2 2.1-10.5 3.9-16 5.3l0 228-480 0 0-279.7 235.1 182 4.9 3.8 4.9-3.8 169.1-130.9c-6.2-1.7-12.1-3.8-17.9-6.4L288 317.9 48 132.1 48 80 368 80c0-5.4 .3-10.8 1-16l-337 0 0 384 512 0 0-8z"/></svg>