<svg xmlns="http://www.w3.org/2000/svg" viewBox="0 0 576 512"><!--! Font Awesome Pro 7.0.0 by @fontawesome - https://fontawesome.com License - https://fontawesome.com/license (Commercial License) Copyright 2025 Fonticons, Inc. --><path fill="currentColor" d="M48 184.3l0 279.7 368 0 0 16-384 0 0-320 256-192 256 192 0 104-16 0 0-79.7-235.1 182-4.9 3.8-4.9-3.8-235.1-182zm477.4-18.2L288-12 50.6 166.1 288 349.9 525.4 166.1zM520 312l0 24 32 0 0 16-53.4 0c-14.7 0-26.6 11.9-26.6 26.6 0 13 9.4 24.1 22.3 26.3l38.1 6.3c20.6 3.4 35.6 21.2 35.6 42.1 0 23.6-19.1 42.6-42.6 42.6l-5.4 0 0 24-16 0 0-24-40 0 0-16 61.4 0c14.7 0 26.6-11.9 26.6-26.6 0-13-9.4-24.1-22.3-26.3l-38.1-6.3c-20.6-3.4-35.6-21.2-35.6-42.1 0-23.6 19.1-42.6 42.6-42.6l5.4 0 0-24 16 0z"/></svg>