<svg xmlns="http://www.w3.org/2000/svg" viewBox="0 0 384 512"><!--! Font Awesome Pro 7.0.0 by @fontawesome - https://fontawesome.com License - https://fontawesome.com/license (Commercial License) Copyright 2025 Fonticons, Inc. --><path fill="currentColor" d="M53.2 208C75.1 107.4 164.8 32 272 32l64 0 0 16-64 0C173.6 48 91.2 116.3 69.6 208l186.4 0 0 16-189.6 0c-1.6 10.4-2.4 21.1-2.4 32s.8 21.6 2.4 32l189.6 0 0 16-186.4 0C91.2 395.7 173.6 464 272 464l64 0 0 16-64 0C164.8 480 75.1 404.6 53.2 304l-53.2 0 0-16 50.3 0c-1.5-10.5-2.3-21.1-2.3-32s.8-21.5 2.3-32l-50.3 0 0-16 53.2 0z"/></svg>