<svg xmlns="http://www.w3.org/2000/svg" viewBox="0 0 576 512"><!--! Font Awesome Pro 7.0.0 by @fontawesome - https://fontawesome.com License - https://fontawesome.com/license (Commercial License) Copyright 2025 Fonticons, Inc. --><path fill="currentColor" d="M21.7-21.6l-5.7-5.7-11.3 11.3 5.7 5.7 544.2 544 5.7 5.7 11.3-11.3-5.7-5.7-107.3-107.2C519.1 365.6 558.9 298.6 576 256 546 181.3 446.4 32 288 32 226.2 32 173.4 54.7 130.1 86.9L21.7-21.6zM141.6 98.3c40.7-29.8 89.7-50.3 146.4-50.3 73.8 0 134.5 34.7 181 79.5 104.1 100.1 104.1 156.9 0 257-7 6.7-14.2 13.2-21.8 19.4L384 340.7c19.9-22.6 32-52.2 32-84.7 0-70.7-57.3-128-128-128-32.5 0-62.1 12.1-84.7 32L141.6 98.3zm231.1 231l-158-158c19.7-17 45.3-27.4 73.4-27.4 61.9 0 112 50.1 112 112 0 28-10.3 53.7-27.3 73.3zm31.4 122c-34.2 17.6-73 28.7-116.1 28.7-158.4 0-258-149.3-288-224 13.6-33.8 41.4-82.8 82.4-126.4l11.3 11.3c-37 39.4-62.7 83.3-76.4 115.1 15.2 35.4 45.5 86 89.6 128.5 46.5 44.8 107.2 79.5 181.1 79.5 38.3 0 73.1-9.4 104.2-24.6l11.9 11.9z"/></svg>