<svg xmlns="http://www.w3.org/2000/svg" viewBox="0 0 512 512"><!--! Font Awesome Pro 7.0.0 by @fontawesome - https://fontawesome.com License - https://fontawesome.com/license (Commercial License) Copyright 2025 Fonticons, Inc. --><path fill="currentColor" d="M223.1 170.4L192 139.3c-3.8-3.8-7.5-7.5-11.3-11.3L192 116.7c17.4 17.4 23.5 23.5 31.1 31.1l11.3-11.3 107.2-107.2c39-39 102.2-39 141.1 0s39 102.2 0 141.1l-107.2 107.2-11.3 11.3c34.4 34.4 23.6 23.6 31.1 31.1L384 331.3c-6.1-6.1-16.5-16.5-31.1-31.1l-11.3-11.3-118.5-118.5zM352.9 277.6L471.5 159.1c32.7-32.7 32.7-85.8 0-118.5s-85.8-32.7-118.5 0L234.4 159.1 352.9 277.6zM48 436.8l-2.7 4-24.7 37.1 13.4 13.4 37.1-24.7 4-2.7 86.2 0 17.7-17.7-113.4-113.4-17.7 17.7 0 86.2zM77 321.7L190.3 435 235 390.3 121.7 277 77 321.7zm56-56L246.3 379 293.8 331.6 180.4 218.2 133 265.7zM32 344l137.1-137.1 11.3-11.3 11.3 11.3 113.4 113.4 11.3 11.3-148.4 148.4-88 0-48 32-32-32 32-48 0-88z"/></svg>