<svg xmlns="http://www.w3.org/2000/svg" viewBox="0 0 576 512"><!--! Font Awesome Pro 7.0.0 by @fontawesome - https://fontawesome.com License - https://fontawesome.com/license (Commercial License) Copyright 2025 Fonticons, Inc. --><path fill="currentColor" d="M17.3 256c15.2 35.4 45.5 86 89.6 128.5 46.5 44.8 107.2 79.5 181.1 79.5s134.5-34.7 181-79.5c104.1-100.1 104.1-156.9 0-257-46.5-44.8-107.2-79.5-181-79.5S153.5 82.7 106.9 127.5C62.9 170 32.6 220.6 17.3 256zM576 256c-30 74.7-129.6 224-288 224S30 330.7 0 256C30 181.3 129.6 32 288 32S546 181.3 576 256zM288 368c61.9 0 112-50.1 112-112S349.9 144 288 144l0 112-112 0c0 61.9 50.1 112 112 112zM177.1 240l94.9 0 0-94.9c-49.1 7-87.8 45.8-94.9 94.9zM288 128a128 128 0 1 1 0 256 128 128 0 1 1 0-256z"/></svg>