<svg xmlns="http://www.w3.org/2000/svg" viewBox="0 0 512 512"><!--! Font Awesome Pro 7.0.0 by @fontawesome - https://fontawesome.com License - https://fontawesome.com/license (Commercial License) Copyright 2025 Fonticons, Inc. --><path fill="currentColor" d="M496 256a240 240 0 1 0 -480 0 240 240 0 1 0 480 0zM0 256a256 256 0 1 1 512 0 256 256 0 1 1 -512 0zM256 416c68.5 0 125.9-47.9 140.4-112l-280.9 0c14.5 64.1 71.9 112 140.4 112zM96.8 288l318.4 0c-.5 5.4-1.3 10.8-2.4 16-14.8 73-79.4 128-156.8 128S114 377 99.2 304c-1.1-5.2-1.9-10.6-2.4-16zM160 192a16 16 0 1 1 32 0 16 16 0 1 1 -32 0zm128 24l-16 0c0-30.9 25.1-56 56-56l16 0c30.9 0 56 25.1 56 56l-16 0c0-22.1-17.9-40-40-40l-16 0c-22.1 0-40 17.9-40 40z"/></svg>