<svg xmlns="http://www.w3.org/2000/svg" viewBox="0 0 512 512"><!--! Font Awesome Pro 7.0.0 by @fontawesome - https://fontawesome.com License - https://fontawesome.com/license (Commercial License) Copyright 2025 Fonticons, Inc. --><path fill="currentColor" d="M496 256a240 240 0 1 0 -480 0 240 240 0 1 0 480 0zM0 256a256 256 0 1 1 512 0 256 256 0 1 1 -512 0zM299.6 406.7l-43.6-29-43.6 29-4.4 3-4.4-3-44.1-29.4c-22 11-33.7 16.8-35 17.5l-7.2-14.3c.6-.3 13.7-6.8 39.2-19.6l4.2-2.1 3.9 2.6 43.6 29 43.6-29 4.4-3 4.4 3 43.6 29 43.6-29 3.9-2.6 4.2 2.1c25.5 12.7 38.5 19.3 39.2 19.6l-7.2 14.3c-1.3-.7-13-6.5-35-17.5l-44.1 29.4-4.4 3-4.4-3zM181.7 136c-22.8 0-44.6 8.8-60.7 24.5s-25 36.9-25 58.9c0 16 6.5 31.4 18.2 42.8s27.5 17.8 44.1 17.8 32.5-6.4 44.1-17.8 18.2-26.8 18.2-42.8c0-9.9-4-19.5-11.3-26.6s-17.2-11.1-27.6-11.1-20.3 4-27.6 11.1-11.3 16.7-11.3 26.6c0 3.9 1.6 7.6 4.4 10.4s6.8 4.4 11 4.4 8.1-1.6 11-4.4 4.4-6.6 4.4-10.4l16 0c0 8.2-3.4 16.1-9.3 21.9s-13.9 9-22.2 9-16.2-3.2-22.2-9-9.3-13.6-9.3-21.9c0-14.3 5.8-28 16.1-38.1s24.2-15.7 38.7-15.7 28.4 5.6 38.7 15.7 16.1 23.7 16.1 38.1c0 20.4-8.3 39.9-23 54.2s-34.6 22.4-55.3 22.4-40.6-8-55.3-22.4-23-33.8-23-54.2c0-26.4 10.8-51.7 29.9-70.4S154.8 120 181.7 120l0 16zM391 255.5c16.1-15.7 25-36.9 25-58.9 0-16-6.5-31.4-18.2-42.8s-27.5-17.8-44.1-17.8-32.5 6.4-44.1 17.8-18.2 26.8-18.2 42.8c0 9.9 4 19.5 11.3 26.6s17.2 11.1 27.6 11.1 20.3-4 27.5-11.1 11.3-16.7 11.3-26.6c0-3.9-1.6-7.6-4.4-10.4s-6.8-4.4-11-4.4-8.1 1.6-11 4.4-4.4 6.6-4.4 10.4l-16 0c0-8.2 3.4-16.1 9.3-21.9 5.9-5.8 13.9-9 22.2-9s16.2 3.2 22.2 9c5.9 5.8 9.3 13.6 9.3 21.9 0 14.3-5.8 28-16.1 38.1s-24.2 15.7-38.7 15.7-28.4-5.6-38.7-15.7c-10.3-10.1-16.1-23.7-16.1-38.1 0-20.4 8.3-39.9 23-54.2s34.6-22.4 55.3-22.4 40.6 8 55.3 22.4 23 33.8 23 54.2c0 26.4-10.8 51.7-29.9 70.4S357.2 296 330.3 296l0-16c22.8 0 44.6-8.8 60.7-24.5z"/></svg>