<svg xmlns="http://www.w3.org/2000/svg" viewBox="0 0 512 512"><!--! Font Awesome Pro 7.0.0 by @fontawesome - https://fontawesome.com License - https://fontawesome.com/license (Commercial License) Copyright 2025 Fonticons, Inc. --><path fill="currentColor" d="M13.9 116C52.5 49 114.6 4.1 183.9-14.5l-4.1-15.5C106.6-10.3 40.9 37.2 0 108l13.9 8zm485 280c-38.7 67-100.8 111.9-170 130.5l4.1 15.5c73.2-19.6 138.9-67.1 179.7-137.9l-13.9-8zM359.7 75.9A207.8 207.8 0 1 1 152.3 436.1 207.8 207.8 0 1 1 359.7 75.9zM144.3 450A223.8 223.8 0 1 0 367.7 62 223.8 223.8 0 1 0 144.3 450zm80.6-267.6a16 16 0 1 0 -27.7-16 16 16 0 1 0 27.7 16zm116.7 85.9a16 16 0 1 0 16-27.7 16 16 0 1 0 -16 27.7zM180.3 387.6a56 56 0 1 1 56-97 56 56 0 1 1 -56 97zM146 303.1a72 72 0 1 0 124.7 72 72 72 0 1 0 -124.7-72z"/></svg>