<svg xmlns="http://www.w3.org/2000/svg" viewBox="0 0 640 512"><!--! Font Awesome Pro 7.0.0 by @fontawesome - https://fontawesome.com License - https://fontawesome.com/license (Commercial License) Copyright 2025 Fonticons, Inc. --><path fill="currentColor" d="M560.3 256c0-1.6 0-3.1 0-4.6l-116.3 116.3 4.1 5.6-12.9 9.4-4.7-6.5c-24.7-34-64.8-56.1-110.1-56.1s-85.4 22.1-110.1 56.1l-4.7 6.5-12.9-9.4 4.7-6.5c27.6-38 72.4-62.7 123-62.7 11.4 0 22.4 1.2 33.1 3.6L527 134c-41.8-70.6-118.7-118-206.7-118-132.5 0-240 107.5-240 240s107.5 240 240 240 240-107.5 240-240zm15.2-19.9c.5 6.6 .8 13.2 .8 19.9 0 141.4-114.6 256-256 256S64.3 397.4 64.3 256 178.9 0 320.3 0c92.4 0 173.4 48.9 218.4 122.3 20.8-20.8 54.5-20.8 75.3 0 20.8 20.8 20.8 54.5 0 75.3l-38.4 38.4zM433.9 355l51-51-24-24 11.3-11.3 24 24 36.7-36.7-2.3-2.3C518.2 241.3 511 234 508.9 232l11.3-11.3c2 2 9.3 9.3 21.7 21.7l2.3 2.3 36.7-36.7-2.3-2.3C566.2 193.3 559 186 556.9 184l11.3-11.3c2 2 9.3 9.3 21.7 21.7l2.3 2.3 10.3-10.3c14.6-14.5 14.6-38.1 0-52.7s-38.1-14.5-52.7 0l-179 179c24.5 8.7 46.1 23.4 63 42.4zM240.3 192a16 16 0 1 1 0 32 16 16 0 1 1 0-32zm144 16a16 16 0 1 1 32 0 16 16 0 1 1 -32 0z"/></svg>