<svg xmlns="http://www.w3.org/2000/svg" viewBox="0 0 640 512"><!--! Font Awesome Pro 7.0.0 by @fontawesome - https://fontawesome.com License - https://fontawesome.com/license (Commercial License) Copyright 2025 Fonticons, Inc. --><path fill="currentColor" d="M320-16C192.8-16 88.8 82.9 80.5 208l-16 0C72.8 74.1 184-32 320-32S567.2 74.1 575.5 208l-16 0C551.2 82.9 447.2-16 320-16zM480 320l0 32-32 0 0-32 32 0zM224 432l0 32-32 0 0-32 32 0zm320-16l32 0 0 32-32 0 0-32zM224 176a16 16 0 1 1 32 0 16 16 0 1 1 -32 0zm176-16a16 16 0 1 1 0 32 16 16 0 1 1 0-32zM186.9 101.9l7.6 2.5 96 32 7.6 2.5-5.1 15.2-7.6-2.5-96-32-7.6-2.5 5.1-15.2zm271.2 15.2l-7.6 2.5-96 32-7.6 2.5-5.1-15.2 7.6-2.5 96-32 7.6-2.5 5.1 15.2zM64 272c-26.5 0-48 21.5-48 48l0 128c0 26.5 21.5 48 48 48l512 0c26.5 0 48-21.5 48-48l0-128c0-26.5-21.5-48-48-48L64 272zM0 320c0-35.3 28.7-64 64-64l512 0c35.3 0 64 28.7 64 64l0 128c0 35.3-28.7 64-64 64L64 512c-35.3 0-64-28.7-64-64L0 320zM408 432l-24 0 0 32-16 0 0-32-64 0 0 32-16 0 0-32-32 0 0-16 32 0 0-64-32 0 0-16 32 0 0-32 16 0 0 32 64 0 0-32 16 0 0 32 32 0 0 16-32 0 0 64 32 0 0 16-8 0zm-40-80l-64 0 0 64 64 0 0-64zm203.1-42.2l-4.4 6.7-96 144-4.4 6.7-13.3-8.9 4.4-6.7 96-144 4.4-6.7 13.3 8.9zM216 312l0 88-16 0 0-96 16 0 0 8zm-96 0l0 8 32 0 0 16-53.6 0c-10.1 0-18.4 8.2-18.4 18.4 0 8.8 6.2 16.3 14.8 18l37.6 7.5c16.1 3.2 27.6 17.3 27.6 33.7 0 19-15.4 34.4-34.4 34.4l-6.5 0 0 16-16 0 0-16-39.1 0 0-16 61.6 0c10.1 0 18.4-8.2 18.4-18.4 0-8.8-6.2-16.3-14.8-18l-37.6-7.5c-16.1-3.2-27.6-17.3-27.6-33.7 0-19 15.4-34.4 34.4-34.4l5.6 0 0-16 16 0 0 8z"/></svg>