<svg xmlns="http://www.w3.org/2000/svg" viewBox="0 0 512 512"><!--! Font Awesome Pro 7.0.0 by @fontawesome - https://fontawesome.com License - https://fontawesome.com/license (Commercial License) Copyright 2025 Fonticons, Inc. --><path fill="currentColor" d="M256 16a240 240 0 1 0 0 480 240 240 0 1 0 0-480zM512 256a256 256 0 1 1 -512 0 256 256 0 1 1 512 0zM160 208a16 16 0 1 1 32 0 16 16 0 1 1 -32 0zm176-16a16 16 0 1 1 0 32 16 16 0 1 1 0-32zM184 304c-26.5 0-48 21.5-48 48s21.5 48 48 48l0-96zm64 96l0-96-48 0 0 96 48 0zm16 0l48 0 0-96-48 0 0 96zm64-96l0 96c26.5 0 48-21.5 48-48s-21.5-48-48-48zM184 288l144 0c35.3 0 64 28.7 64 64s-28.7 64-64 64l-144 0c-35.3 0-64-28.7-64-64s28.7-64 64-64z"/></svg>