<svg xmlns="http://www.w3.org/2000/svg" viewBox="0 0 512 512"><!--! Font Awesome Pro 7.0.0 by @fontawesome - https://fontawesome.com License - https://fontawesome.com/license (Commercial License) Copyright 2025 Fonticons, Inc. --><path fill="currentColor" d="M256 16a240 240 0 1 1 0 480 240 240 0 1 1 0-480zm0 496a256 256 0 1 0 0-512 256 256 0 1 0 0 512zM192 256a16 16 0 1 0 -32 0 16 16 0 1 0 32 0zm144 16a16 16 0 1 0 0-32 16 16 0 1 0 0 32zM176 368l0 16 160 0 0-16-160 0zM356.8 137.6l-4.4-3.3-4.7 2.9-64 40-6.8 4.2 8.5 13.6 6.8-4.2 59.3-37.1c21.9 16.5 33.3 25 34 25.5l9.6-12.8-6.4-4.8-32-24zM128 176l-8 0 0 16 80 0 0-16-72 0z"/></svg>