<svg xmlns="http://www.w3.org/2000/svg" viewBox="0 0 640 512"><!--! Font Awesome Pro 7.0.0 by @fontawesome - https://fontawesome.com License - https://fontawesome.com/license (Commercial License) Copyright 2025 Fonticons, Inc. --><path fill="currentColor" d="M544-64l0 16 76.7 0-74.3 74.3-2.3 2.3c0 3.4 0 16.9 0 19.3l96 0 0-16-76.7 0 74.3-74.3 2.3-2.3c0-3.4 0-16.9 0-19.3l-96 0zM384 32l0 16 76.7 0-74.3 74.3-2.3 2.3c0 3.4 0 16.9 0 19.3l96 0 0-16-76.7 0 74.3-74.3 2.3-2.3c0-3.4 0-16.9 0-19.3l-96 0zM336 .5C330.7 .2 325.4 0 320 0 178.6 0 64 114.6 64 256S178.6 512 320 512 576 397.4 576 256c0-22.1-2.8-43.5-8.1-64l-16.6 0c5.6 20.4 8.6 41.8 8.6 64 0 132.5-107.5 240-240 240S80 388.5 80 256 187.5 16 320 16c5.4 0 10.7 .2 16 .5l0-16zM320 416a32 32 0 1 1 0-64 32 32 0 1 1 0 64zm-48-32a48 48 0 1 0 96 0 48 48 0 1 0 -96 0zM408 272c-22.1 0-40-17.9-40-40l-16 0c0 30.9 25.1 56 56 56l16 0c30.9 0 56-25.1 56-56l-16 0c0 22.1-17.9 40-40 40l-16 0zM176 232l-16 0c0 30.9 25.1 56 56 56l16 0c30.9 0 56-25.1 56-56l-16 0c0 22.1-17.9 40-40 40l-16 0c-22.1 0-40-17.9-40-40z"/></svg>