<svg xmlns="http://www.w3.org/2000/svg" viewBox="0 0 640 512"><!--! Font Awesome Pro 7.0.0 by @fontawesome - https://fontawesome.com License - https://fontawesome.com/license (Commercial License) Copyright 2025 Fonticons, Inc. --><path fill="currentColor" d="M552-40l0-8-16 0 0 72-72 0 0 16 72 0 0 72 16 0 0-72 72 0 0-16-72 0 0-64zM240 48a224 224 0 1 1 0 448 224 224 0 1 1 0-448zm0 464a240 240 0 1 0 0-480 240 240 0 1 0 0 480zm0-128c-45.3 0-85.4-22.1-110.1-56.1L117 337.3c27.6 38 72.4 62.7 123 62.7s95.4-24.7 123-62.7l-12.9-9.4C325.4 361.9 285.3 384 240 384zM176 224a16 16 0 1 0 -32 0 16 16 0 1 0 32 0zm144 16a16 16 0 1 0 0-32 16 16 0 1 0 0 32z"/></svg>