<svg xmlns="http://www.w3.org/2000/svg" viewBox="0 0 512 512"><!--! Font Awesome Pro 7.0.0 by @fontawesome - https://fontawesome.com License - https://fontawesome.com/license (Commercial License) Copyright 2025 Fonticons, Inc. --><path fill="currentColor" d="M496 256a240 240 0 1 0 -480 0 240 240 0 1 0 480 0zM0 256a256 256 0 1 1 512 0 256 256 0 1 1 -512 0zm207.6 88c-3.5 35.1-29.6 63.5-63.6 70.4l0-16.4c27.6-7.1 48-32.2 48-62s-20.4-54.9-48-62l0-16.4c34 6.9 60.1 35.3 63.6 70.4l96.8 0c3.5-35.1 29.6-63.5 63.6-70.4l0 16.4c-27.6 7.1-48 32.2-48 62s20.4 54.9 48 62l0 16.4c-34-6.9-60.1-35.3-63.6-70.4l-96.8 0zM336 192a16 16 0 1 1 0 32 16 16 0 1 1 0-32zM192 208a16 16 0 1 1 -32 0 16 16 0 1 1 32 0zm-12.4-72.8l-71.2 35.6-7.2-14.3 7.2-3.6 71.2-35.6 7.2 14.3-7.2 3.6zm145.7-3.6l7.2-14.3 71.2 35.6 7.2 3.6-7.2 14.3-71.2-35.6-7.2-3.6z"/></svg>