<svg xmlns="http://www.w3.org/2000/svg" viewBox="0 0 512 512"><!--! Font Awesome Pro 7.0.0 by @fontawesome - https://fontawesome.com License - https://fontawesome.com/license (Commercial License) Copyright 2025 Fonticons, Inc. --><path fill="currentColor" d="M16 256C16 123.5 123.5 16 256 16S496 123.5 496 256c0 63-24.3 120.3-64 163.2l0 22.7C481.3 395.2 512 329.2 512 256 512 114.6 397.4 0 256 0S0 114.6 0 256c0 64.9 24.2 124.2 64 169.3L64 400c-30.1-40.1-48-90-48-144zm251.5 6.7l-5.7 5.7-84.7 84.7 0-54.1-65.1 0 0 133c0 61.9 50.2 112.1 112.1 112.1 29.7 0 58.3-11.8 79.3-32.8l84.2-84.2 5.7-5.7-5.7-5.7-37.6-37.6 27.1-27.1 5.7-5.7-5.7-5.7-50-50-16.4 16.4-37.7-37.6-5.7-5.7zm71.2 126.6l32 32-78.6 78.6c-18 18-42.5 28.2-68 28.2-53.1 0-96.1-43-96.1-96.1l0-117 33.1 0 0 76.8 13.7-13.7 92.7-92.7 32 32-68 68 11.3 11.3 73.6-73.6 10.7-10.7 33 33c-28.8 28.8-33.2 33.2-84.3 84.3l11.3 11.3 51.6-51.6zM196.8 150.4l6.4-4.8-9.6-12.8-6.4 4.8-64 48-6.4 4.8 9.6 12.8 6.4-4.8 64-48zm112-4.8l6.4 4.8 64 48 6.4 4.8 9.6-12.8-6.4-4.8-64-48-6.4-4.8-9.6 12.8zM256 224c27.3 0 51.7 12.5 67.9 32l19.8 0c-18.5-28.9-50.8-48-87.6-48s-69.2 19.1-87.7 48l19.8 0c16.1-19.5 40.6-32 67.9-32z"/></svg>