<svg xmlns="http://www.w3.org/2000/svg" viewBox="0 0 512 512"><!--! Font Awesome Pro 7.0.0 by @fontawesome - https://fontawesome.com License - https://fontawesome.com/license (Commercial License) Copyright 2025 Fonticons, Inc. --><path fill="currentColor" d="M288 493.9C405.4 478.2 496 377.7 496 256 496 123.5 388.5 16 256 16S16 123.5 16 256c0 16.4 1.7 32.5 4.8 48L4.5 304C1.5 288.5 0 272.4 0 256 0 114.6 114.6 0 256 0S512 114.6 512 256c0 130.5-97.7 238.3-224 254l0-16.1zM176 192a16 16 0 1 1 0 32 16 16 0 1 1 0-32zm160 16a16 16 0 1 1 0 32 16 16 0 1 1 0-32zM129 127.5c-9.7 5.6-16.4 9.4-20 11.4L101.1 125c3.6-2.1 10.3-5.9 20-11.4 28.9-16.5 64.7-15.3 92.5 3.2 24.6 16.4 37.1 24.7 37.5 25l-8.9 13.3c-.4-.3-12.9-8.6-37.5-25-22.7-15.1-52-16.1-75.7-2.6zM152 320l128 0 0 16-128 0 0-16zM8 352l72 0 0 64 160 0 0 80-96 0 0 80-80 0c-35.3 0-64-28.7-64-64l0-160 8 0zm8 160c0 26.5 21.5 48 48 48l64 0 0-80 96 0 0-48-160 0 0-64-48 0 0 144z"/></svg>