<svg xmlns="http://www.w3.org/2000/svg" viewBox="0 0 640 512"><!--! Font Awesome Pro 7.0.0 by @fontawesome - https://fontawesome.com License - https://fontawesome.com/license (Commercial License) Copyright 2025 Fonticons, Inc. --><path fill="currentColor" d="M288 496c92.1 0 172.1-51.9 212.3-128l17.9 0c-41.5 85.3-129 144-230.3 144-141.4 0-256-114.6-256-256S146.6 0 288 0C395.4 0 487.4 66.2 525.4 160L508 160C471 75.2 386.4 16 288 16 155.5 16 48 123.5 48 256S155.5 496 288 496zM256 384c45.3 0 85.4-22.1 110.1-56.1l12.9 9.4c-27.6 38-72.4 62.7-123 62.7s-95.4-24.7-123-62.7l12.9-9.4c24.7 34 64.8 56.1 110.1 56.1zM168 192c-22.1 0-40 17.9-40 40l-16 0c0-30.9 25.1-56 56-56l16 0c30.9 0 56 25.1 56 56l-16 0c0-22.1-17.9-40-40-40l-16 0zm120 40l-16 0c0-30.9 25.1-56 56-56l16 0c30.9 0 56 25.1 56 56l-16 0c0-22.1-17.9-40-40-40l-16 0c-22.1 0-40 17.9-40 40zM544 64l16 0c44.2 0 80 35.8 80 80s-35.8 80-80 80l-112 0 0-16 112 0c35.3 0 64-28.7 64-64s-28.7-64-64-64l-16 0 0-16zm16 240c24.3 0 45.4-13.5 56.2-33.4 7.5-3.1 14.7-6.8 21.4-11.2-8.7 34.8-40.1 60.6-77.6 60.6l-112 0 0-16 112 0z"/></svg>