<svg xmlns="http://www.w3.org/2000/svg" viewBox="0 0 512 512"><!--! Font Awesome Pro 7.0.0 by @fontawesome - https://fontawesome.com License - https://fontawesome.com/license (Commercial License) Copyright 2025 Fonticons, Inc. --><path fill="currentColor" d="M496 256a240 240 0 1 0 -480 0 240 240 0 1 0 480 0zM0 256a256 256 0 1 1 512 0 256 256 0 1 1 -512 0zM256 368c39 0 75.9 7.4 108.6 20.7-12.2-48.7-56.2-84.7-108.6-84.7s-96.5 36-108.6 84.7C180.1 375.4 217 368 256 368zm0 16c-40.7 0-78.8 8.5-111.7 23.4-5.6 2.5-11 5.3-16.3 8.1 0-6.4 .5-12.7 1.4-18.8 9.3-61.6 62.4-108.8 126.6-108.8s117.3 47.2 126.6 108.8c.9 6.1 1.4 12.4 1.4 18.8-5.3-2.9-10.7-5.6-16.3-8.1-32.9-14.9-71-23.4-111.7-23.4zM124.4 167.2l-7.2-3.6 7.2-14.3 103.2 51.6 4.4 2.2 0 9.9-4.4 2.2-96 48-7.2 3.6-7.2-14.3 7.2-3.6 81.7-40.8-81.7-40.8zm270.3-3.6l-7.2 3.6-81.7 40.8 81.7 40.8 7.2 3.6-7.2 14.3-7.2-3.6-96-48-4.4-2.2 0-9.9 4.4-2.2 103.2-51.6 7.2 14.3z"/></svg>