<svg xmlns="http://www.w3.org/2000/svg" viewBox="0 0 512 512"><!--! Font Awesome Pro 7.0.0 by @fontawesome - https://fontawesome.com License - https://fontawesome.com/license (Commercial License) Copyright 2025 Fonticons, Inc. --><path fill="currentColor" d="M200-48c-28.6 0-52.1 21.4-55.6 49l-.9 7-15.6 0C101.5 8 80 29.5 80 56l0 40 128 0 0 78.7-16-5.3 0-57.4-128 0 0-56C64 20.7 92.7-8 128-8l1.8 0c7.3-32.1 35.9-56 70.2-56 22.6 0 42.8 10.4 56 26.7 13.2-16.3 33.4-26.7 56-26.7 34.3 0 62.9 23.9 70.2 56L384-8c35.3 0 64 28.7 64 64l0 56-128 0 0 57.4-16 5.3 0-78.7 128 0 0-40c0-26.5-21.5-48-48-48l-15.6 0-.9-7c-3.4-27.6-27-49-55.6-49-21.1 0-39.4 11.6-49 28.9l-7 12.6-7-12.6C239.4-36.4 221.1-48 200-48zM64 256.9l-5.1-1.7-42.5-14.2c-.3 5-.5 9.9-.5 15 0 132.5 107.5 240 240 240S496 388.5 496 256c0-5-.2-10-.5-15l-42.5 14.2-5.1 1.7-5.1-1.7-90.9-30.3-90.9 30.3-5.1 1.7-5.1-1.7-90.9-30.3-90.9 30.3-5.1 1.7zM160 208l96 32 96-32 96 32c35.7-11.9 56.2-18.7 61.4-20.5 1.4 10.2 2.6 22.3 2.6 36.5 0 141.4-114.6 256-256 256S0 397.4 0 256c0-14.2 1.1-26.3 2.6-36.5 5.2 1.7 25.7 8.6 61.4 20.5l96-32zm0 128a16 16 0 1 1 32 0 16 16 0 1 1 -32 0zm176-16a16 16 0 1 1 0 32 16 16 0 1 1 0-32zM192 424c0-35.3 28.7-64 64-64s64 28.7 64 64l0 24-128 0 0-24zm64-48c-26.5 0-48 21.5-48 48l0 8 96 0 0-8c0-26.5-21.5-48-48-48z"/></svg>