<svg xmlns="http://www.w3.org/2000/svg" viewBox="0 0 512 512"><!--! Font Awesome Pro 7.0.0 by @fontawesome - https://fontawesome.com License - https://fontawesome.com/license (Commercial License) Copyright 2025 Fonticons, Inc. --><path fill="currentColor" d="M339.2 161.4l5.7-5.7 11.3 11.3-5.7 5.7-51.2 51.2 181 0c10.2-19.6 15.7-41.5 15.7-64 0-36.7-14.6-72-40.6-97.9l-5.5-5.5C424 30.6 388.7 16 352 16s-72 14.6-97.9 40.6L80 230.6 80 420.7 339.2 161.4zM283.3 240l-80 80 190.1 0 62.1-62.1c5.6-5.6 10.6-11.6 15.1-17.9l-187.2 0zM400 336l-112 112-212.7 0-58.1 58.1-5.7 5.7-11.3-11.3 5.7-5.7 58.1-58.1 0-212.7 178.7-178.7C271.7 16.3 311 0 352 0s80.3 16.3 109.3 45.3l5.5 5.5C495.7 79.7 512 119 512 160s-16.3 80.3-45.3 109.3L400 336zm-22.6 0l-190.1 0-96 96 190.1 0 96-96z"/></svg>