<svg xmlns="http://www.w3.org/2000/svg" viewBox="0 0 512 512"><!--! Font Awesome Pro 7.0.0 by @fontawesome - https://fontawesome.com License - https://fontawesome.com/license (Commercial License) Copyright 2025 Fonticons, Inc. --><path fill="currentColor" d="M208 117.6l48-60 48 60 0 346.4-96 0 0-346.4zm37.8-72.8l-53.8 67.2 0 64-64 0 0-64-53.8-67.2-10.2-12.8-10.2 12.8-53.8 67.2 0 368 128 0 0-96 64 0 0 96 128 0 0-96 64 0 0 96 128 0 0-368-53.8-67.2-10.2-12.8-10.2 12.8-53.8 67.2 0 64-64 0 0-64-53.8-67.2-10.2-12.8-10.2 12.8zM384 192l0 176-64 0 0-176 64 0zM192 368l-64 0 0-176 64 0 0 176zM16 464l0-346.4 48-60 48 60 0 346.4-96 0zm384 0l0-346.4 48-60 48 60 0 346.4-96 0z"/></svg>