<svg xmlns="http://www.w3.org/2000/svg" viewBox="0 0 576 512"><!--! Font Awesome Pro 7.0.0 by @fontawesome - https://fontawesome.com License - https://fontawesome.com/license (Commercial License) Copyright 2025 Fonticons, Inc. --><path fill="currentColor" d="M112 16l192 0 0 160 160 0 0 64 16 0 0-80-160-160-224 0 0 240 16 0 0-224zm0 480l0-144-16 0 0 160 384 0 0-160-16 0 0 144-352 0zM457.4 160L320 160 320 22.6 457.4 160zM8 288l-8 0 0 16 160 0 0-16-152 0zm208 0l-8 0 0 16 160 0 0-16-152 0zm208 0l-8 0 0 16 160 0 0-16-152 0z"/></svg>