<svg xmlns="http://www.w3.org/2000/svg" viewBox="0 0 576 512"><!--! Font Awesome Pro 7.0.0 by @fontawesome - https://fontawesome.com License - https://fontawesome.com/license (Commercial License) Copyright 2025 Fonticons, Inc. --><path fill="currentColor" d="M48 16l192 0 0 160 160 0 0 160 16 0 0-176-160-160-224 0 0 512 144 0 0-16-128 0 0-480zM393.4 160L256 160 256 22.6 393.4 160zM272 544c22.1 0 40-17.9 40-40l0-104-16 0 0 104c0 13.3-10.7 24-24 24s-24-10.7-24-24l0-24-16 0 0 24c0 22.1 17.9 40 40 40zm96-144l-8 0 0 144 16 0 0-48 24 0c26.5 0 48-21.5 48-48s-21.5-48-48-48l-32 0zm32 80l-24 0 0-64 24 0c17.7 0 32 14.3 32 32s-14.3 32-32 32zm88-48l0 80c0 17.7 14.3 32 32 32l16 0c17.7 0 32-14.3 32-32l0-32-32 0 0 16 16 0 0 16c0 8.8-7.2 16-16 16l-16 0c-8.8 0-16-7.2-16-16l0-80c0-8.8 7.2-16 16-16l16 0c8.8 0 16 7.2 16 16l0 8 16 0 0-8c0-17.7-14.3-32-32-32l-16 0c-17.7 0-32 14.3-32 32z"/></svg>