<svg xmlns="http://www.w3.org/2000/svg" viewBox="0 0 576 512"><!--! Font Awesome Pro 7.0.0 by @fontawesome - https://fontawesome.com License - https://fontawesome.com/license (Commercial License) Copyright 2025 Fonticons, Inc. --><path fill="currentColor" d="M48 16l192 0 0 160 160 0 0 160 16 0 0-176-160-160-224 0 0 512 112 0 0-16-96 0 0-480zM393.4 160L256 160 256 22.6 393.4 160zM312 408l0-8c-12.9 0-15.5 0-18.4 0l-2.3 4.3-35.5 66.9-36.9-67-2.3-4.1c-6.7 0-11.2 0-16.7 0l0 144 16 0 0-112.1 33 60 7.1 13c.3-.6 13.6-25.6 39.9-75.2l0 114.4 16 0 0-136zm56-8l-8 0 0 144 16 0 0-48 24 0c26.5 0 48-21.5 48-48s-21.5-48-48-48l-32 0zm32 80l-24 0 0-64 24 0c17.7 0 32 14.3 32 32s-14.3 32-32 32zm88 0l64 0 0 64 16 0 0-144-16 0 0 64-48 0 0-64-16 0 0 80z"/></svg>