<svg xmlns="http://www.w3.org/2000/svg" viewBox="0 0 384 512"><!--! Font Awesome Pro 7.0.0 by @fontawesome - https://fontawesome.com License - https://fontawesome.com/license (Commercial License) Copyright 2025 Fonticons, Inc. --><path fill="currentColor" d="M208 16l0 160 160 0 0 320-352 0 0-480 192 0zm16 6.6L361.4 160 224 160 224 22.6zM224 0L0 0 0 512 384 512 384 160 224 0zM136.2 425.9l1.5 6.1 12.3 0 1.7-5.7 40.3-134.5 40.3 134.5 1.7 5.7 12.3 0 1.5-6.1 40.8-169.9-16.5 0-33 137.3-39.5-131.6-1.7-5.7-11.9 0-1.7 5.7-39.5 131.6-33-137.3-16.5 0 40.8 169.9z"/></svg>