<svg xmlns="http://www.w3.org/2000/svg" viewBox="0 0 576 512"><!--! Font Awesome Pro 7.0.0 by @fontawesome - https://fontawesome.com License - https://fontawesome.com/license (Commercial License) Copyright 2025 Fonticons, Inc. --><path fill="currentColor" d="M300.9-9.9l11.3-11.3 11.3 11.3 230.6 230.6 11.3 11.3-11.3 11.3-278.6 278.6-11.3 11.3-11.3-11.3-230.6-230.6-11.3-11.3 11.3-11.3 149.7-149.7-73.4-73.4-5.7-5.7 11.3-11.3 5.7 5.7 73.4 73.4 117.7-117.7zM183.3 130.3l-149.7 149.7 8 8 445.3 0 56-56-230.6-230.6-117.7 117.7 91.3 91.3 5.7 5.7-11.3 11.3-5.7-5.7-91.3-91.3zm81 380.3L470.9 304 57.6 304 264.3 510.6z"/></svg>