<svg xmlns="http://www.w3.org/2000/svg" viewBox="0 0 576 512"><!--! Font Awesome Pro 7.0.0 by @fontawesome - https://fontawesome.com License - https://fontawesome.com/license (Commercial License) Copyright 2025 Fonticons, Inc. --><path fill="currentColor" d="M22.2-21.6l-5.7-5.7-11.3 11.3 5.7 5.7 544.2 544 5.7 5.7 11.3-11.3-5.7-5.7-53.8-53.8 0-436.6-436.8 0-53.6-53.6zM91.7 48l68.8 0 0 68.7-68.8-68.7zm84.8 84.7l0-84.7 224 0 0 308.6-224-223.9zM419.9 376l76.6 0 0 76.6-76.6-76.6zm13.4 104l-16-16-240.8 0 0-240.8-16-16 0 40.8-80 0 0-120.8-16-16 0 368.8 368.8 0zM80.5 264l80 0 0 96-80 0 0-96zm80 112l0 88-80 0 0-88 80 0zm256-328l80 0 0 96-80 0 0-96zm80 112l0 88-80 0 0-88 80 0zm0 104l0 96-80 0 0-96 80 0z"/></svg>