<svg xmlns="http://www.w3.org/2000/svg" viewBox="0 0 576 512"><!--! Font Awesome Pro 7.0.0 by @fontawesome - https://fontawesome.com License - https://fontawesome.com/license (Commercial License) Copyright 2025 Fonticons, Inc. --><path fill="currentColor" d="M48 64l272 0 0 416-272 0 0-416zM320 48l-48 0 0-48-160 0 0 48-104 0 0 16 24 0 0 416-24 0 0 16 352 0 0-16-24 0 0-416 24 0 0-16-40 0zM256 16l0 32-128 0 0-32 128 0zM112 128l-16 0 0 288 16 0 0-288zM488 432l8 0 0-104 80 0 0-216-192 0 0 16 176 0 0 184-80 0 0 104-96 0 0 16 104 0z"/></svg>