<svg xmlns="http://www.w3.org/2000/svg" viewBox="0 0 576 512"><!--! Font Awesome Pro 7.0.0 by @fontawesome - https://fontawesome.com License - https://fontawesome.com/license (Commercial License) Copyright 2025 Fonticons, Inc. --><path fill="currentColor" d="M21.7-21.6l-5.7-5.7-11.3 11.3 5.7 5.7 544.2 544 5.7 5.7 11.3-11.3-5.7-5.7-213.8-213.8 0-36.7 192-192 16-16-452.8 0-85.6-85.6zM123.3 80l398.1 0-180.7 180.7-4.7 4.7 0 27.3-212.7-212.7zM224 400l112 112 16 16 0-128.8-16-16 0 106.2-96-96 0-106.2-16-16 0 128.8z"/></svg>