<svg xmlns="http://www.w3.org/2000/svg" viewBox="0 0 576 512"><!--! Font Awesome Pro 7.0.0 by @fontawesome - https://fontawesome.com License - https://fontawesome.com/license (Commercial License) Copyright 2025 Fonticons, Inc. --><path fill="currentColor" d="M436.1 40.2l-16.8 16.8-49.7 2.4-5.1 .2-4.3-2.8-76.5-49.3-66.8 61.8-3.8 3.5-5.1 .6-90.3 11.4-11.4 90.3-.6 5.1-3.5 3.8-61.8 66.8 49.3 76.5 2.8 4.3-.2 5.1-2.4 49.7-16.8 16.8 3.3-67.3-56-87 70.3-75.9 13-102.6 102.6-13 75.9-70.3 87 56 67.3-3.3zm-306 396.5c42.2 37 97.5 59.4 158 59.4 132.5 0 240-107.5 240-240 0-60.5-22.4-115.8-59.4-158L130.1 436.6zM118.8 448c-4-3.5-7.9-7.2-11.6-10.9l0 0 11.3-11.3 339.4-339.4 11.3-11.3c3.8 3.8 7.4 7.7 11 11.7 39.8 45.1 64 104.4 64 169.4 0 141.4-114.6 256-256 256-64.9 0-124.2-24.2-169.4-64zm121.4-32a16 16 0 1 1 32 0 16 16 0 1 1 -32 0zm112-16a16 16 0 1 1 0 32 16 16 0 1 1 0-32zm-104-248c21.4 0 41.2 7 57.2 18.9l-11.5 11.5c-13-9.1-28.7-14.4-45.8-14.4-44.2 0-80 35.8-80 80 0 17 5.3 32.8 14.4 45.8l-11.5 11.5c-11.9-16-18.9-35.8-18.9-57.2 0-53 43-96 96-96z"/></svg>