<svg xmlns="http://www.w3.org/2000/svg" viewBox="0 0 640 512"><!--! Font Awesome Pro 7.0.0 by @fontawesome - https://fontawesome.com License - https://fontawesome.com/license (Commercial License) Copyright 2025 Fonticons, Inc. --><path fill="currentColor" d="M397.7 32l9.4 9.4 105.4 105.4 0 56.5-16 16 0-65.8-4.7-4.7-96-96-4.7-4.7-6.6 0 0 160-224 0 0-160-80 0 0 416 203.9 0-2.7 16-217.2 0 0-448 333.3 0zM176.5 192l192 0 0-144-192 0 0 144zm160 128a48 48 0 1 0 -96 0 48 48 0 1 0 96 0zm-112 0a64 64 0 1 1 128 0 64 64 0 1 1 -128 0zM351.4 455.7l-11.5 68.8 68.8-11.5 142.7-142.7-57.4-57.4-142.7 142.7zM601.8 320l-57.4-57.4-39.1 39.1 57.4 57.4 39.1-39.1zm-68.7-68.7l11.3-11.3 11.3 11.3 57.4 57.4 11.3 11.3-11.3 11.3-196.7 196.7c-63.3 10.6-95.3 15.9-96 16 .1-.7 5.4-32.7 16-96L533.1 251.3z"/></svg>