<svg xmlns="http://www.w3.org/2000/svg" viewBox="0 0 512 512"><!--! Font Awesome Pro 7.0.0 by @fontawesome - https://fontawesome.com License - https://fontawesome.com/license (Commercial License) Copyright 2025 Fonticons, Inc. --><path fill="currentColor" d="M224 32l64 48 224 0 0 368-512 0 0-416 224 0zm64 64l-5.3 0-4.3-3.2-59.7-44.8-202.7 0 0 384 480 0 0-336-208 0zm-26.3 74.3l72 72 5.7 5.7-11.3 11.3-5.7-5.7-58.3-58.3 0 164.7-16 0 0-164.7-58.3 58.3-5.7 5.7-11.3-11.3 5.7-5.7 72-72 5.7-5.7 5.7 5.7z"/></svg>