<svg xmlns="http://www.w3.org/2000/svg" viewBox="0 0 512 512"><!--! Font Awesome Pro 7.0.0 by @fontawesome - https://fontawesome.com License - https://fontawesome.com/license (Commercial License) Copyright 2025 Fonticons, Inc. --><path fill="currentColor" d="M224 32l64 48 224 0 0 368-512 0 0-416 224 0zm64 64l-5.3 0-4.3-3.2-59.7-44.8-202.7 0 0 384 480 0 0-336-208 0zm0 64l48 0 0 16-32 0 0 140.2c-.1 33.1-28.7 59.8-64 59.8-35.3 0-64-26.9-64-60s28.7-60 64-60c19.1 0 36.3 7.9 48 20.3L288 160zM240 272c-27.5 0-48 20.7-48 44s20.5 44 48 44 48-20.7 48-44-20.5-44-48-44z"/></svg>