<svg xmlns="http://www.w3.org/2000/svg" viewBox="0 0 512 512"><!--! Font Awesome Pro 7.0.0 by @fontawesome - https://fontawesome.com License - https://fontawesome.com/license (Commercial License) Copyright 2025 Fonticons, Inc. --><path fill="currentColor" d="M64 17.2a38.8 38.8 0 1 1 0 77.5 38.8 38.8 0 1 1 0-77.5zM32 102l0 410 16 0 0-64 448 0 0-32-64-144 64-144 0-32-392.8 0C113.6 85.8 120 71.7 120 56 120 25.1 94.9 0 64 0S8 25.1 8 56c0 19 9.5 35.8 24 46zM48 432l0-320 432 0 0 12.6-62.6 140.9-2.9 6.5 2.9 6.5 62.6 140.9 0 12.6-432 0z"/></svg>