<svg xmlns="http://www.w3.org/2000/svg" viewBox="0 0 576 512"><!--! Font Awesome Pro 7.0.0 by @fontawesome - https://fontawesome.com License - https://fontawesome.com/license (Commercial License) Copyright 2025 Fonticons, Inc. --><path fill="currentColor" d="M48.1 168l0 104 192 0 0-104c0-48.6-39.4-88-88-88l-16 0c-48.6 0-88 39.4-88 88zm0 120l0 160-16 0 0-280c0-57.4 46.6-104 104-104l16 0c57.4 0 104 46.6 104 104l0 280-16 0 0-160-192 0zm379.4-76.2c-49.9-1.9-91.4 38-91.4 87.9l0 44.2c0 48.6 39.4 88 88 88l16 0c48.6 0 88-39.4 88-88l0-43.6c0-47.3-37.4-86.1-84.6-87.9l-16-.6zm100.6 33.1l0-36.9 16 0 0 182.7 19.1 57.3-16.9 0-16.9-50.7c-18.2 30.4-51.4 50.7-89.3 50.7l-16 0c-57.4 0-104-46.6-104-104l0-44.2c0-59 49-106.2 108-103.9l16 .6c35.5 1.4 66.3 20.4 84 48.5z"/></svg>