<svg xmlns="http://www.w3.org/2000/svg" viewBox="0 0 448 512"><!--! Font Awesome Pro 7.0.0 by @fontawesome - https://fontawesome.com License - https://fontawesome.com/license (Commercial License) Copyright 2025 Fonticons, Inc. --><path fill="currentColor" d="M448 480l-448 0 0-448 448 0 0 448zM16 464l96 0 0-96-96 0 0 96zm112 0l88 0 0-96-88 0 0 96zm208 0l96 0 0-96-96 0 0 96zm-104 0l88 0 0-96-88 0 0 96zM16 352l96 0 0-88-96 0 0 88zm112 0l88 0 0-88-88 0 0 88zm208 0l96 0 0-88-96 0 0 88zm-104 0l88 0 0-88-88 0 0 88zM16 248l96 0 0-88-96 0 0 88zm112 0l88 0 0-88-88 0 0 88zm208 0l96 0 0-88-96 0 0 88zm-104 0l88 0 0-88-88 0 0 88zM16 144l96 0 0-96-96 0 0 96zm112 0l88 0 0-96-88 0 0 96zm208 0l96 0 0-96-96 0 0 96zm-104 0l88 0 0-96-88 0 0 96z"/></svg>