<svg xmlns="http://www.w3.org/2000/svg" viewBox="0 0 576 512"><!--! Font Awesome Pro 7.0.0 by @fontawesome - https://fontawesome.com License - https://fontawesome.com/license (Commercial License) Copyright 2025 Fonticons, Inc. --><path fill="currentColor" d="M576 156.7l0 323.3-165.8 0-1.8-5.5-30.2-90.5-180.4 0-30.2 90.5-1.8 5.5-165.8 0 0-323.3 124.7-124.7 326.6 0 124.7 124.7zM16 163.3l0 300.7 138.2 0 30.2-90.5 1.8-5.5 203.6 0 1.8 5.5 30.2 90.5 138.2 0 0-300.7-115.3-115.3-313.4 0-115.3 115.3zM168 216l48 0 0 16-48 0 0 48-16 0 0-48-48 0 0-16 48 0 0-48 16 0 0 48zm216 56a16 16 0 1 1 0-32 16 16 0 1 1 0 32zm48-80a16 16 0 1 1 0-32 16 16 0 1 1 0 32z"/></svg>