<svg xmlns="http://www.w3.org/2000/svg" viewBox="0 0 576 512"><!--! Font Awesome Pro 7.0.0 by @fontawesome - https://fontawesome.com License - https://fontawesome.com/license (Commercial License) Copyright 2025 Fonticons, Inc. --><path fill="currentColor" d="M21.7-21.6l-5.7-5.7-11.3 11.3 5.7 5.7 544.2 544 5.7 5.7 11.3-11.3-5.7-5.7-74.5-74.4 52.6 0 0-323.5-2.6-2.4-96-88-5.9-5.4-10.8 11.8 5.9 5.4 29.4 27 0 151.1 64 0 0 208-52.6 0-123.4-123.3 0-308.7-288 0 0 20.8-42.3-42.3zM80 36.8l0-20.8 256 0 0 276.7-100.7-100.7 52.7 0 0-128-160 0 0 20.7-48-48zM219.3 176l-75.3-75.3 0-20.7 128 0 0 96-52.7 0zM80 127.2l-16-16 0 384.8-16 0 0 16 320 0 0-16-16 0 0-96.8-16-16 0 112.8-256 0 0-368.8zM480 87.5l48 44 0 76.5-48 0 0-120.5z"/></svg>