<svg xmlns="http://www.w3.org/2000/svg" viewBox="0 0 576 512"><!--! Font Awesome Pro 7.0.0 by @fontawesome - https://fontawesome.com License - https://fontawesome.com/license (Commercial License) Copyright 2025 Fonticons, Inc. --><path fill="currentColor" d="M164.2-36.5l6.3 1.7 61.8 16.6 6.3 1.7-.4 6.5-2.4 45c6.4 5.2 12.1 11 17.3 17.3l45.1-2.4 6.5-.4 1.7 6.3 16.6 61.8 1.7 6.3-5.8 2.9-40.2 20.4c-.6 4-1.5 8-2.6 11.9s-2.3 7.9-3.8 11.6l24.6 37.8 3.5 5.4-4.6 4.6-45.3 45.3-4.6 4.6-5.4-3.5-37.8-24.7c-7.6 2.9-15.5 5-23.6 6.3l-20.4 40.2-2.9 5.8-6.3-1.7-61.8-16.6-6.3-1.7 .4-6.5 2.4-45c-6.4-5.2-12.1-11-17.3-17.3l-45.1 2.4-6.5 .4-1.7-6.3-16.6-61.8-1.7-6.3 5.8-2.9 40.2-20.4c.6-4 1.5-8 2.6-11.9s2.3-7.9 3.8-11.6l-24.6-37.8-3.5-5.4 4.6-4.6 45.3-45.3 4.6-4.6 5.4 3.5 37.8 24.6c7.6-2.9 15.5-5 23.6-6.3l20.4-40.2 2.9-5.8zm8.4 18.8l-19.3 38.1-1.9 3.8-4.2 .5c-9.6 1.2-18.8 3.7-27.6 7.4l-3.9 1.7-3.6-2.3-35.8-23.4-36.1 36.1 23.4 35.8 2.3 3.6-1.6 3.9c-1.8 4.3-3.4 8.9-4.6 13.6s-2.2 9.4-2.8 14.1l-.5 4.2-3.8 1.9-38.2 19.3 13.2 49.3 42.7-2.3 4.3-.2 2.6 3.4c5.7 7.6 12.5 14.4 20.2 20.2l3.4 2.6-.2 4.2-2.3 42.7 49.3 13.2 19.3-38.1 1.9-3.8 4.2-.5c9.6-1.2 18.8-3.7 27.6-7.4l3.9-1.7 3.6 2.3 35.8 23.4 36.1-36.1-23.4-35.8-2.3-3.6 1.6-3.9c1.8-4.3 3.4-8.9 4.6-13.6s2.2-9.4 2.8-14.1l.5-4.2 3.8-1.9 38.2-19.4-13.2-49.3-42.7 2.3-4.3 .2-2.6-3.4c-5.7-7.6-12.5-14.4-20.2-20.2l-3.4-2.6 .2-4.2 2.3-42.7-49.3-13.2zM147.6 174.4a48 48 0 1 1 24.8-92.7 48 48 0 1 1 -24.8 92.7zm43.3-38.1a32 32 0 1 0 -61.8-16.6 32 32 0 1 0 61.8 16.6zM337.4 239.4l6.3-1.7 61.8-16.6 6.3-1.7 2.9 5.8 20.4 40.2c8.1 1.3 16 3.4 23.6 6.3l37.8-24.6 5.4-3.5 4.6 4.6 45.3 45.3 4.6 4.6-3.5 5.4-24.6 37.8c1.4 3.8 2.7 7.7 3.8 11.6s1.9 8 2.6 11.9l40.2 20.4 5.8 2.9-1.7 6.3-16.6 61.8-1.7 6.3-6.5-.4-45.1-2.5c-5.1 6.3-10.9 12.1-17.3 17.3l2.4 45 .4 6.5-6.3 1.7-61.8 16.6-6.3 1.7-2.9-5.8-20.4-40.2c-8.1-1.3-16-3.4-23.6-6.3l-37.8 24.6-5.4 3.5-4.6-4.6-45.3-45.3-4.6-4.6 3.5-5.4 24.6-37.8c-1.4-3.8-2.7-7.7-3.8-11.6s-1.9-8-2.6-11.9l-40.2-20.4-5.8-2.9 1.7-6.3 16.6-61.8 1.7-6.3 6.5 .4 45.1 2.4c5.1-6.3 10.9-12.1 17.3-17.3l-2.4-45-.4-6.5zm16.7 12.1l2.3 42.7 .2 4.2-3.4 2.6c-7.7 5.8-14.5 12.6-20.2 20.2l-2.6 3.4-4.2-.2-42.7-2.3-13.2 49.3 38.2 19.4 3.8 1.9 .5 4.2c.6 4.7 1.5 9.4 2.8 14.1s2.8 9.2 4.6 13.6l1.6 3.9-2.3 3.6-23.4 35.8 36.1 36.1 35.8-23.4 3.6-2.3 3.9 1.7c8.8 3.7 18 6.2 27.6 7.4l4.2 .5 1.9 3.8 19.3 38.1 49.3-13.2-2.3-42.7-.2-4.2 3.4-2.6c7.7-5.8 14.5-12.6 20.2-20.2l2.6-3.4 4.3 .2 42.7 2.3 13.2-49.3-38.2-19.4-3.8-1.9-.5-4.2c-.6-4.7-1.5-9.4-2.8-14.1s-2.8-9.2-4.6-13.6l-1.6-3.9 2.3-3.6 23.4-35.8-36.1-36.1-35.8 23.4-3.6 2.3-3.9-1.7c-8.8-3.7-18-6.2-27.6-7.4l-4.2-.5-1.9-3.8-19.3-38.1-49.3 13.2zm74.3 178.9a48 48 0 1 1 -24.9-92.7 48 48 0 1 1 24.9 92.7zm18.5-54.6a32 32 0 1 0 -61.8 16.6 32 32 0 1 0 61.8-16.6z"/></svg>