<svg xmlns="http://www.w3.org/2000/svg" viewBox="0 0 512 512"><!--! Font Awesome Pro 7.0.0 by @fontawesome - https://fontawesome.com License - https://fontawesome.com/license (Commercial License) Copyright 2025 Fonticons, Inc. --><path fill="currentColor" d="M16 80l0 352 480 0 0-352-480 0zM0 64l512 0 0 384-512 0 0-384zM96 216l0 80c0 22.1 17.9 40 40 40l16 0c22.1 0 40-17.9 40-40l0-24-48 0 0-16 64 0 0 40c0 30.9-25.1 56-56 56l-16 0c-30.9 0-56-25.1-56-56l0-80c0-30.9 25.1-56 56-56l16 0c30.9 0 56 25.1 56 56l0 8-16 0 0-8c0-22.1-17.9-40-40-40l-16 0c-22.1 0-40 17.9-40 40zm184-56l0 192-16 0 0-192 16 0zm64 0l88 0 0 16-80 0 0 80 64 0 0 16-64 0 0 80-16 0 0-192 8 0z"/></svg>