<svg xmlns="http://www.w3.org/2000/svg" viewBox="0 0 448 512"><!--! Font Awesome Pro 7.0.0 by @fontawesome - https://fontawesome.com License - https://fontawesome.com/license (Commercial License) Copyright 2025 Fonticons, Inc. --><path fill="currentColor" d="M64 48l0 48-48 0 0-48 48 0zM16 32l-16 0 0 80 80 0 0-80-64 0zM64 170.7l0 48-48 0 0-48 48 0zm-48-16l-16 0 0 80 80 0 0-80-64 0zM64 293.3l0 48-48 0 0-48 48 0zm-48-16l-16 0 0 80 80 0 0-80-64 0zM16 416l48 0 0 48-48 0 0-48zM0 400l0 80 80 0 0-80-80 0zm138.7 16l48 0 0 48-48 0 0-48zm-16-16l0 80 80 0 0-80-80 0zm186.7 16l0 48-48 0 0-48 48 0zm-48-16l-16 0 0 80 80 0 0-80-64 0zM384 416l48 0 0 48-48 0 0-48zm-16-16l0 80 80 0 0-80-80 0zM138.7 293.3l48 0 0 48-48 0 0-48zm-16-16l0 80 80 0 0-80-80 0zm186.7 16l0 48-48 0 0-48 48 0zm-48-16l-16 0 0 80 80 0 0-80-64 0zm122.7 16l48 0 0 48-48 0 0-48zm-16-16l0 80 80 0 0-80-80 0zM138.7 170.7l48 0 0 48-48 0 0-48zm-16-16l0 80 80 0 0-80-80 0zm186.7 16l0 48-48 0 0-48 48 0zm-48-16l-16 0 0 80 80 0 0-80-64 0zm122.7 16l48 0 0 48-48 0 0-48zm-16-16l0 80 80 0 0-80-80 0zM138.7 48l48 0 0 48-48 0 0-48zm-16-16l0 80 80 0 0-80-80 0zM309.3 48l0 48-48 0 0-48 48 0zm-48-16l-16 0 0 80 80 0 0-80-64 0zM384 48l48 0 0 48-48 0 0-48zM368 32l0 80 80 0 0-80-80 0z"/></svg>