<svg xmlns="http://www.w3.org/2000/svg" viewBox="0 0 448 512"><!--! Font Awesome Pro 7.0.0 by @fontawesome - https://fontawesome.com License - https://fontawesome.com/license (Commercial License) Copyright 2025 Fonticons, Inc. --><path fill="currentColor" d="M96 88a40 40 0 1 1 -80 0 40 40 0 1 1 80 0zM56 32a56 56 0 1 0 0 112 56 56 0 1 0 0-112zM96 256a40 40 0 1 1 -80 0 40 40 0 1 1 80 0zM56 200a56 56 0 1 0 0 112 56 56 0 1 0 0-112zm0 184a40 40 0 1 1 0 80 40 40 0 1 1 0-80zM0 424a56 56 0 1 0 112 0 56 56 0 1 0 -112 0zM264 88a40 40 0 1 1 -80 0 40 40 0 1 1 80 0zM224 32a56 56 0 1 0 0 112 56 56 0 1 0 0-112zm0 184a40 40 0 1 1 0 80 40 40 0 1 1 0-80zm-56 40a56 56 0 1 0 112 0 56 56 0 1 0 -112 0zm96 168a40 40 0 1 1 -80 0 40 40 0 1 1 80 0zm-40-56a56 56 0 1 0 0 112 56 56 0 1 0 0-112zM392 48a40 40 0 1 1 0 80 40 40 0 1 1 0-80zM336 88a56 56 0 1 0 112 0 56 56 0 1 0 -112 0zm96 168a40 40 0 1 1 -80 0 40 40 0 1 1 80 0zm-40-56a56 56 0 1 0 0 112 56 56 0 1 0 0-112zm0 184a40 40 0 1 1 0 80 40 40 0 1 1 0-80zm-56 40a56 56 0 1 0 112 0 56 56 0 1 0 -112 0z"/></svg>