<svg xmlns="http://www.w3.org/2000/svg" viewBox="0 0 576 512"><!--! Font Awesome Pro 7.0.0 by @fontawesome - https://fontawesome.com License - https://fontawesome.com/license (Commercial License) Copyright 2025 Fonticons, Inc. --><path fill="currentColor" d="M512 32l0 32 64 0 0 144-92.7 0-29.7 29.7-2.3 2.3-69.5 0-30.2 90.5-1.8 5.5-105.8 0-36 144-176 0 60-240-92 0 0-176 496 0 0-32 16 0zM338.2 320l26.7-80-96.9 0-20 80 90.2 0zM108.5 240l-56 224 143 0 56-224-143 0zM16 80l0 144 428.7 0 29.7-29.7 2.3-2.3 83.3 0 0-112-544 0zm56 48l440 0 0 16-448 0 0-16 8 0z"/></svg>