<svg xmlns="http://www.w3.org/2000/svg" viewBox="0 0 640 512"><!--! Font Awesome Pro 7.0.0 by @fontawesome - https://fontawesome.com License - https://fontawesome.com/license (Commercial License) Copyright 2025 Fonticons, Inc. --><path fill="currentColor" d="M320 256L331.3 244.7 436.7 139.3 448 128 436.7 116.7 331.3 11.3 320 0 192 128 320 256zm0-233.4L425.4 128 320 233.4 214.6 128 320 22.6zM96 72c0-4.4-3.6-8-8-8L8 64c-4.4 0-8 3.6-8 8L0 384c0 2.1 .8 4.2 2.3 5.7l120 120 11.3-11.3-117.7-117.7 0-300.7 64 0 0 208c0 2.1 .8 4.2 2.3 5.7l96 96c5.7 5.7 10.3 10.3 13.7 13.7L203.3 392c-3.4-3.4-7.9-7.9-13.7-13.7l-74.8-74.8 37.6-43.8 135.5 135.5 0 116.7 16 0 0-123.3-2.3-2.3-144-144-6.1-6.1-5.6 6.6-42.4 49.4-7.5-7.5 0-212.7zm456-8c-4.4 0-8 3.6-8 8l0 212.7-7.5 7.5-42.4-49.4-5.6-6.6-6.1 6.1-144 144-2.3 2.3 0 123.3 16 0 0-116.7 135.5-135.5 37.6 43.8-88.4 88.4 11.3 11.3 109.7-109.7c1.5-1.5 2.3-3.5 2.3-5.7l0-208 64 0 0 300.7-117.7 117.7 11.3 11.3 120-120c1.5-1.5 2.3-3.5 2.3-5.7l0-312c0-4.4-3.6-8-8-8l-80 0z"/></svg>