<svg xmlns="http://www.w3.org/2000/svg" viewBox="0 0 512 512"><!--! Font Awesome Pro 7.0.0 by @fontawesome - https://fontawesome.com License - https://fontawesome.com/license (Commercial License) Copyright 2025 Fonticons, Inc. --><path fill="currentColor" d="M144.5 0l96 0 0 160 80 0 0 32 64 0 0-128 96 0 0 280c0 92.8-75.2 168-168 168l-8.5 0C240.4 512 179.3 486.7 134.3 441.7-23.9 283.5 26.6 334 11 318.4l5.7-5.7 56.6-56.6 5.7-5.7 5.7 5.7c18.3 18.3 38.3 38.3 59.9 59.9L144.5 0zm256 192l0 160-176 0 0-336-64 0 0 319.4-13.7 5.7c-34-34-56.6-56.6-67.9-67.9l-45.3 45.3 112 112c42 42 99 65.6 158.4 65.6l8.5 0c83.9 0 152-68.1 152-152l0-264-64 0 0 112zm-16 16l-64 0 0 128 64 0 0-128zm-80-16l0-16-64 0 0 160 64 0 0-144z"/></svg>