<svg xmlns="http://www.w3.org/2000/svg" viewBox="0 0 448 512"><!--! Font Awesome Pro 7.0.0 by @fontawesome - https://fontawesome.com License - https://fontawesome.com/license (Commercial License) Copyright 2025 Fonticons, Inc. --><path fill="currentColor" d="M96 512l-8 0 0-247.4-69.2-58.5-2.8-2.4 0-57.4C16 97.5 42.2 52.4 84.5 28.2l18-10.3C123.1 6.2 146.3 0 170 0L312 0c57.4 0 104 46.6 104 104l0 160-64 0 0 32-72 0 0 32-88 0 0 184-96 0zM88 243.7l0-83.7 16 0 0 336 72 0 0-184 88 0 0-32 72 0 0-32 64 0 0-144c0-48.6-39.4-88-88-88L170 16c-20.9 0-41.4 5.4-59.5 15.8l-18 10.3C55.1 63.5 32 103.2 32 146.3l0 50 56 47.4z"/></svg>