<svg xmlns="http://www.w3.org/2000/svg" viewBox="0 0 640 512"><!--! Font Awesome Pro 7.0.0 by @fontawesome - https://fontawesome.com License - https://fontawesome.com/license (Commercial License) Copyright 2025 Fonticons, Inc. --><path fill="currentColor" d="M272 32l48 40 48-40 80 0 73.9 332.3c-4.6 3.1-9.5 5.8-14.6 8.2l-25.9-116.5-322.8 0-25.9 116.5c-5.1-2.4-9.9-5.1-14.6-8.2L192 32 272 32zM162.2 240l315.7 0-42.7-192-61.4 0c-34.6 28.8-52.5 43.8-53.8 44.8-1.3-1.1-19.2-16-53.8-44.8l-61.4 0-42.7 192zM16 248l0 8c0 97.2 78.8 176 176 176l256 0c97.2 0 176-78.8 176-176l0-8 16 0 0 8c0 106-86 192-192 192l-256 0C86 448 0 362 0 256l0-8 16 0z"/></svg>