<svg xmlns="http://www.w3.org/2000/svg" viewBox="0 0 576 512"><!--! Font Awesome Pro 7.0.0 by @fontawesome - https://fontawesome.com License - https://fontawesome.com/license (Commercial License) Copyright 2025 Fonticons, Inc. --><path fill="currentColor" d="M58.1-16c102.1 .9 185.9 78.3 197 177.7l.3 2.6 1.8 1.9 63.2 68.9 0 44.9-72 0 0 57.5-105.7 22.6-6.3 1.4 0 53.9 7.4 .5 104.6 7.5 0 72.6-216 0 0 16 232 0 0-103.4-7.4-.5-104.6-7.5 0-26.1 105.7-22.6 6.3-1.4 0-54.5 72 0 0-67.1-2.1-2.3-63.5-69.3C257.8 53.2 170.9-28 64.3-31.9l0-.1-6.1 0-1.9 0 0 0-24 0 0 16 25.8 0zM160.3 176a16 16 0 1 0 -32 0 16 16 0 1 0 32 0zm333 32l-11.3 11.3 5.7 5.7c90.6 90.6 90.6 237.5 0 328.1l-5.7 5.7 11.3 11.3 5.7-5.7c96.9-96.8 96.9-253.9 0-350.7l-5.7-5.7zm-67.9 67.9l-11.3 11.3 5.7 5.7c53.1 53.1 53.1 139.2 0 192.3l-5.7 5.7 11.3 11.3 5.7-5.7c59.4-59.4 59.4-155.6 0-215l-5.7-5.7z"/></svg>