<svg xmlns="http://www.w3.org/2000/svg" viewBox="0 0 512 512"><!--! Font Awesome Pro 7.0.0 by @fontawesome - https://fontawesome.com License - https://fontawesome.com/license (Commercial License) Copyright 2025 Fonticons, Inc. --><path fill="currentColor" d="M16 216c0-110.5 89.5-200 200-200 102.9 0 187.7 77.7 198.8 177.7l.3 2.6 1.8 1.9 63.2 68.9 0 44.9-72 0 0 120-104 0 0 80 16 0 0-64 104 0 0-120 72 0 0-67.1-2.1-2.3-63.5-69.3C417.2 82.6 326.2 0 216 0 96.7 0 0 96.7 0 216 0 283.7 31.2 344.2 80 383.8l0 128.2 16 0 0-135.9-3.1-2.4C46.1 337 16 280 16 216zm246.5-99.4l0-36.6-76.8 0 0 36.5c-7.8 3.3-15.1 7.5-21.7 12.5-12.4-7.2-23-13.3-31.6-18.2-1.7 3.1-13.9 24.8-36.5 65.2l29.7 18.5c-.6 4.4-.9 9-.9 13.6 0 4.6 .3 9.1 .9 13.5L96 239.9c22.6 40.5 34.7 62.2 36.5 65.3 8.6-5 19.1-11 31.6-18.2 6.6 5 13.9 9.3 21.7 12.5 0 14.4 0 26.5 0 36.5l76.8 0 0-36.6c7.7-3.3 15-7.5 21.5-12.5 12.6 7.3 23.1 13.4 31.7 18.3 1.7-3.1 13.8-24.9 36.2-65.3l-29.7-18.5c.6-4.4 .9-8.9 .9-13.4 0-4.6-.3-9.1-.9-13.5L352 175.9c-22.4-40.3-34.5-62.1-36.2-65.2-8.6 5-19.1 11.1-31.7 18.3-6.6-5-13.8-9.2-21.5-12.5zm47.2 16.2l20.9 37.7c-12.6 7.9-21.1 13.2-25.6 16l1.4 10.2c.5 3.7 .8 7.5 .8 11.3 0 3.8-.3 7.6-.8 11.3l-1.4 10.3c4.5 2.8 13 8.1 25.6 15.9l-21 37.8c-13.1-7.6-22.1-12.7-26.8-15.5l-8.5 6.5c-5.5 4.2-11.6 7.7-18.1 10.5l-9.8 4.1 0 31.2-44.8 0c0-15.3 0-25.6 0-31.1l-9.8-4.1c-6.5-2.7-12.6-6.3-18.2-10.5l-8.5-6.4c-4.8 2.7-13.7 7.9-26.7 15.4l-21.1-37.8c12.5-7.7 21-13 25.5-15.8l-1.4-10.3c-.5-3.7-.8-7.5-.8-11.3 0-3.9 .3-7.7 .8-11.4l1.4-10.3c-4.5-2.8-13.1-8.1-25.6-15.9l21.1-37.7c13.1 7.5 22 12.7 26.7 15.4l8.5-6.4c5.6-4.2 11.7-7.8 18.2-10.5l9.8-4.1 0-31.1 44.8 0 0 31.2 9.8 4.1c6.5 2.7 12.5 6.3 18.1 10.5l8.5 6.5c4.8-2.7 13.7-7.9 26.8-15.5zM224 231.9a24 24 0 1 1 0-48 24 24 0 1 1 0 48zm-40-24a40 40 0 1 0 80 0 40 40 0 1 0 -80 0z"/></svg>