<svg xmlns="http://www.w3.org/2000/svg" viewBox="0 0 512 512"><!--! Font Awesome Pro 7.0.0 by @fontawesome - https://fontawesome.com License - https://fontawesome.com/license (Commercial License) Copyright 2025 Fonticons, Inc. --><path fill="currentColor" d="M16 216c0-110.5 89.5-200 200-200 102.9 0 187.7 77.7 198.8 177.7l.3 2.6 1.8 1.9 63.2 68.9 0 44.9-72 0 0 120-104 0 0 80 16 0 0-64 104 0 0-120 72 0 0-67.1-2.1-2.3-63.5-69.3C417.2 82.6 326.2 0 216 0 96.7 0 0 96.7 0 216 0 283.7 31.2 344.2 80 383.8l0 128.2 16 0 0-135.9-3.1-2.4C46.1 337 16 280 16 216zm150.8 66.1c17.7 15 36.9 27.8 57.2 39 20.2-11.2 39.5-24 57.2-39 13.3-11.3 26.9-24.8 37.2-39.8 10.3-15 17.6-32.1 17.6-50.3l0-2.7c0-33.9-27.5-61.3-61.3-61.3-20.6 0-38.5 10.4-50.7 26.7-12.2-16.2-30-26.7-50.7-26.7-33.9 0-61.3 27.5-61.3 61.3l0 2.7c0 18.2 7.4 35.2 17.6 50.3 10.3 15.1 23.9 28.6 37.2 39.8zM173.3 144c14.3 0 27.7 6.7 36.3 18.1l14.4 19.2 14.4-19.2c8.6-11.4 22-18.1 36.3-18.1 25 0 45.3 20.3 45.3 45.3l0 2.7c0 13.8-5.6 27.8-14.9 41.2-9.2 13.4-21.6 25.9-34.3 36.7-12.7 10.7-25.3 19.5-34.9 25.6-5 3.2-9.2 5.7-11.9 7.3-2.8-1.6-6.9-4.1-11.9-7.3-9.6-6.1-22.2-14.9-34.9-25.6-12.7-10.7-25.1-23.2-34.3-36.7-9.2-13.5-14.9-27.4-14.9-41.2l0-2.7c0-25 20.3-45.3 45.3-45.3z"/></svg>