<svg xmlns="http://www.w3.org/2000/svg" viewBox="0 0 576 512"><!--! Font Awesome Pro 7.0.0 by @fontawesome - https://fontawesome.com License - https://fontawesome.com/license (Commercial License) Copyright 2025 Fonticons, Inc. --><path fill="currentColor" d="M256 496S0 319.4 0 167.7C0 94.2 58.5 32 133.1 32 175.8 32 216 52.5 241 87.1l15 20.7 15-20.7c25-34.6 65.2-55.1 107.9-55.1 74.6 0 133.1 62.2 133.1 135.7 0 17.6-3.5 35.6-9.6 53.6-5-2-10-3.7-15.2-5.3 5.5-16.4 8.8-33.4 8.8-50.9 0-64.7-52.4-117.1-117.1-117.1-37.6 0-72.9 18-94.9 48.5l-28 38.7-28-38.7c-22-30.5-57.3-48.5-94.9-48.5-64.7 0-117.1 52.4-117.1 117.1 0 39.5 16.7 76.5 37.5 109.3 23.1 36.5 54.2 71.8 85.7 102.9 31.5 31 63 57.4 86.7 76.1 11.8 9.3 21.7 16.7 28.5 21.7l1.2 .9c2.2 5.1 4.6 10.1 7.3 15-4.5 3.2-6.9 4.9-6.9 4.9zm176 32a128 128 0 1 0 0-256 128 128 0 1 0 0 256zm0-272a144 144 0 1 1 0 288 144 144 0 1 1 0-288zm72 152l-144 0 0-16 144 0 0 16z"/></svg>