<svg xmlns="http://www.w3.org/2000/svg" viewBox="0 0 512 512"><!--! Font Awesome Pro 7.0.0 by @fontawesome - https://fontawesome.com License - https://fontawesome.com/license (Commercial License) Copyright 2025 Fonticons, Inc. --><path fill="currentColor" d="M240.5 113l0 352.1c-45.5-32.8-96.6-73.9-138.6-120.5-50.2-55.7-85.4-117-85.4-179.5 0-64.7 52.4-117.1 117.1-117.1 37.6 0 72.9 18 94.9 48.5l12 16.5zm16-5.2l-15-20.7c-25-34.6-65.2-55.1-107.9-55.1-73.5 0-133.1 59.6-133.1 133.1 0 129.9 138.3 247.6 240 319.7 5.4 3.9 10.8 7.6 16 11.2l0-388.2z"/></svg>