<svg xmlns="http://www.w3.org/2000/svg" viewBox="0 0 576 512"><!--! Font Awesome Pro 7.0.0 by @fontawesome - https://fontawesome.com License - https://fontawesome.com/license (Commercial License) Copyright 2025 Fonticons, Inc. --><path fill="currentColor" d="M21.7-21.7l-5.7-5.7-11.3 11.3 5.7 5.7 544.2 544 5.7 5.7 11.3-11.3-5.7-5.7-141.7-141.7C485.3 318.7 544 240.4 544 167.7 544 94.2 485.5 32 410.9 32 368.2 32 328 52.5 303 87.1l-15 20.7-15-20.7c-25-34.6-65.2-55.1-107.9-55.1-25.7 0-49.5 7.4-69.7 20.1L21.7-21.7zm85.2 85.2C124 53.6 143.9 48 165.1 48 202.7 48 238 66 260 96.5l28 38.7 28-38.7c22-30.5 57.3-48.5 94.9-48.5 64.7 0 117.1 52.4 117.1 117.1 0 39.5-16.7 76.5-37.5 109.3-21.1 33.4-49 65.8-77.7 94.9L106.9 63.5zM48 165.1c0 39.5 16.7 76.5 37.5 109.3 23.1 36.5 54.2 71.8 85.7 102.9 31.5 31 63 57.4 86.7 76.1 11.8 9.3 21.7 16.7 28.5 21.7l1.5 1.1 1.5-1.1c6.9-5 16.7-12.4 28.5-21.7 13.9-10.9 30.4-24.5 48.1-40.1l11.3 11.3C328.6 468 288 496 288 496S32 319.4 32 167.7c0-25.2 6.9-49.1 18.9-69.6l11.2 11.2c-9 16.6-14.1 35.6-14.1 55.8z"/></svg>