<svg xmlns="http://www.w3.org/2000/svg" viewBox="0 0 448 512"><!--! Font Awesome Pro 7.0.0 by @fontawesome - https://fontawesome.com License - https://fontawesome.com/license (Commercial License) Copyright 2025 Fonticons, Inc. --><path fill="currentColor" d="M184 32l0 112c0 39.8 12.9 78.6 36.8 110.4L240 280c26 34.6 40 76.7 40 120l0 80-16 0 0-80c0-39.8-12.9-78.6-36.8-110.4L208 264c-26-34.6-40-76.7-40-120l0-112 16 0zM16 96l0 61.9c0 36.3 10.8 71.8 30.9 102.1l31.5 47.3C100.3 340 112 378.6 112 418.1l0 61.9-16 0 0-61.9c0-36.3-10.8-71.8-30.9-102.1L33.6 268.8C11.7 236 0 197.4 0 157.9L0 96 16 96zm336 8l0 53.9c0 36.3 10.8 71.8 30.9 102.1l31.5 47.3C436.3 340 448 378.6 448 418.1l0 61.9-16 0 0-61.9c0-36.3-10.8-71.8-30.9-102.1l-31.5-47.3C347.7 236 336 197.4 336 157.9l0-61.9 16 0 0 8z"/></svg>