<svg xmlns="http://www.w3.org/2000/svg" viewBox="0 0 576 512"><!--! Font Awesome Pro 7.0.0 by @fontawesome - https://fontawesome.com License - https://fontawesome.com/license (Commercial License) Copyright 2025 Fonticons, Inc. --><path fill="currentColor" d="M13.5 256.1L150.9 496.1 426 496.1 563.4 256.1 426 16 150.9 16 13.5 256.1zM160.2 32L416.8 32 545 256.1 416.8 480.1 160.2 480.1 31.9 256.1 160.2 32zM325 209.2l-7.3 9-68.8 85.2c-21.6-18.1-33-27.7-34-28.6l-5.9 6.6-66.3 74.5-4.3 4.9 3.2 5.7 35.5 61.9 2.6 4.6 217.6 0 2.6-4.6 36.2-63.2 3-5.2-3.6-4.8-103.4-136.8-7-9.3zm-.5 29.5l92.7 122.8-30.6 53.4-196.6 0-29.6-51.7 56.1-63c21.8 18.3 33.4 28 34.7 29.1l5.8-7.2 67.3-83.4zM248.5 160a24 24 0 1 1 -48 0 24 24 0 1 1 48 0zm-24-40a40 40 0 1 0 0 80 40 40 0 1 0 0-80z"/></svg>