<svg xmlns="http://www.w3.org/2000/svg" viewBox="0 0 512 512"><!--! Font Awesome Pro 7.0.0 by @fontawesome - https://fontawesome.com License - https://fontawesome.com/license (Commercial License) Copyright 2025 Fonticons, Inc. --><path fill="currentColor" d="M497.1 394.2L257 531.5 17 394.2 17 119 257-18.4 497.1 119 497.1 394.2zM257 513.1L481.1 384.9 481.1 128.3 257 .1 33 128.3 33 384.9 257 513.1zM112 184l9.3 0 2.1 4.9 44.6 105 0-109.9 16 0 0 144-18.9 0-2.1-4.9-43-101.3 0 106.1-16 0 0-144 8 0zm120 0l64 0 0 16-48 0 0 48 48 0 0 16-48 0 0 64-16 0 0-144zm104 0l72 0 0 16-32 0 0 128-16 0 0-128-32 0 0-16 8 0z"/></svg>