<svg xmlns="http://www.w3.org/2000/svg" viewBox="0 0 576 512"><!--! Font Awesome Pro 7.0.0 by @fontawesome - https://fontawesome.com License - https://fontawesome.com/license (Commercial License) Copyright 2025 Fonticons, Inc. --><path fill="currentColor" d="M320 416l-88.6 0c-42 42-63.4 63.4-64 64l-11.3-11.3-80.8-80.8-11.3-11.3 11.3-11.3 52.7-52.7 0-88.6 336-224 80 80-224 336zm-99.9-11.3l4.7-4.7 86.7 0 30.9-46.4-152-152-46.4 30.9 0 86.7-4.7 4.7-52.7 52.7 80.8 80.8 52.7-52.7zm131.3-64.6l172-258-61.4-61.4-258 172 147.5 147.5zM57.1 419.6l11.3 11.3-52.4 52.4 0 12.7 76.7 0 20.4-20.4 11.3 11.3-22.7 22.7-2.3 2.3-99.3 0 0-35.3 2.3-2.3 54.7-54.7zM264 496l312 0 0 16-320 0 0-16 8 0z"/></svg>