<svg xmlns="http://www.w3.org/2000/svg" viewBox="0 0 576 512"><!--! Font Awesome Pro 7.0.0 by @fontawesome - https://fontawesome.com License - https://fontawesome.com/license (Commercial License) Copyright 2025 Fonticons, Inc. --><path fill="currentColor" d="M449.7 406.3c21.2 21.2 55.5 21.2 76.7 0s21.2-55.5 0-76.7l-4-4c-19-19-49.7-19-68.7 0l-5.7 5.7-11.3-11.3 5.7-5.7c25.2-25.2 66.1-25.2 91.3 0l4 4c27.4 27.4 27.4 71.9 0 99.3s-71.9 27.4-99.3 0l-316-316-2.3-2.3 0-3.3c0-39.7 31.9-72 71.7-72 17.1 0 32.9 6 45.2 16 14.3-10.1 31.8-16 50.6-16 48.5 0 87.9 39.4 87.9 88 0 5.7-.6 11.4-1.6 16.8 29.3 14.3 49.5 44.4 49.5 79.2 0 19.8-6.5 38.1-17.6 52.8l-4.8 6.4-12.8-9.6 4.8-6.4c9-12 14.4-27 14.4-43.2 0-30.5-19-56.6-45.7-67.1l-6.7-2.6 1.9-7c1.7-6.1 2.6-12.6 2.6-19.3 0-39.8-32.2-72-71.9-72-17.4 0-33.4 6.2-45.9 16.6l-5.6 4.6-5.2-5.1c-10.1-10-23.9-16.1-39.2-16.1-29.7 0-53.9 23.3-55.6 52.8L449.7 406.3zM463.1 64a15.9 15.9 0 1 0 -31.9 0 15.9 15.9 0 1 0 31.9 0zm-47.9 0a31.9 31.9 0 1 1 63.9 0 31.9 31.9 0 1 1 -63.9 0zM495 160a15.9 15.9 0 1 0 -31.9 0 15.9 15.9 0 1 0 31.9 0zm-47.9 0a31.9 31.9 0 1 1 63.9 0 31.9 31.9 0 1 1 -63.9 0zM0 44.7l13.7 13.7 440 440 13.7 13.7-467.3 0 0-467.3zM16 83.3L16 496 428.7 496 16 83.3z"/></svg>