<svg xmlns="http://www.w3.org/2000/svg" viewBox="0 0 512 512"><!--! Font Awesome Pro 7.0.0 by @fontawesome - https://fontawesome.com License - https://fontawesome.com/license (Commercial License) Copyright 2025 Fonticons, Inc. --><path fill="currentColor" d="M256 64c69.3 0 132.4 12.2 178.5 32.1 23 10 42.2 22.1 55.7 35.9 13.5 13.9 21.8 29.9 21.8 47.4 0 2.5-.2 4.9-.5 7.4l0 145.8c0 17.5-8.2 33.5-21.7 47.4-13.5 13.8-32.6 25.9-55.7 35.9-46.1 20-109.1 32.1-178.3 32.1S123.4 435.9 77.4 415.9C54.4 405.9 35.2 393.8 21.8 380 8.2 366.2 0 350.1 0 332.7L0 184 .2 184c-.1-1.5-.2-3-.2-4.5 0-17.5 8.2-33.5 21.8-47.4 13.5-13.8 32.7-26 55.7-35.9 46.1-20 109.2-32.1 178.5-32.1zM16 332.7c0 12.1 5.6 24.4 17.2 36.2 11.6 11.9 28.7 22.9 50.6 32.4 43.6 18.9 104.4 30.8 172 30.8s128.4-11.9 172-30.8c21.8-9.5 39-20.5 50.5-32.4 11.5-11.8 17.2-24 17.2-36.2l0-111.6c-1.6 2-3.4 3.9-5.2 5.8-13.5 13.8-32.7 26-55.7 35.9-46.1 20-109.2 32.1-178.5 32.1S123.6 282.8 77.5 262.8c-23-10-42.2-22.1-55.7-35.9-2.1-2.1-3.9-4.3-5.8-6.5l0 112.3zM256 80c-67.7 0-128.5 11.9-172.2 30.8-21.8 9.5-39 20.5-50.6 32.4-11.6 11.8-17.2 24.1-17.2 36.2s5.7 24.4 17.2 36.2c11.6 11.9 28.8 22.9 50.6 32.4 43.7 18.9 104.5 30.8 172.2 30.8S384.5 267 428.2 248.1c21.8-9.5 39-20.5 50.6-32.4 9.7-9.9 15.1-20.1 16.7-30.2l0-1.5 .2 0c.2-1.5 .3-3 .3-4.5 0-12.2-5.7-24.4-17.2-36.2-11.6-11.9-28.8-22.9-50.6-32.4-43.7-18.9-104.5-30.8-172.2-30.8z"/></svg>