<svg xmlns="http://www.w3.org/2000/svg" viewBox="0 0 576 512"><!--! Font Awesome Pro 7.0.0 by @fontawesome - https://fontawesome.com License - https://fontawesome.com/license (Commercial License) Copyright 2025 Fonticons, Inc. --><path fill="currentColor" d="M232 0l-8 0 0 96-224 0 0 416 576 0 0-512-344 0zM448 496l0-128-96 0 0 128-112 0 0-480 320 0 0 480-112 0zm-80 0l0-112 64 0 0 112-64 0zM16 112l208 0 0 384-208 0 0-384zM368 72l0 40-40 0 0 64 40 0 0 40 64 0 0-40 40 0 0-64-40 0 0-40-64 0zm16 16l32 0 0 40 40 0 0 32-40 0 0 40-32 0 0-40-40 0 0-32 40 0 0-40zM104 184l-8 0 0 40-40 0 0 64 40 0 0 40 64 0 0-40 40 0 0-64-40 0 0-40-56 0zm8 48l0-32 32 0 0 40 40 0 0 32-40 0 0 40-32 0 0-40-40 0 0-32 40 0 0-8z"/></svg>