<svg xmlns="http://www.w3.org/2000/svg" viewBox="0 0 640 512"><!--! Font Awesome Pro 7.0.0 by @fontawesome - https://fontawesome.com License - https://fontawesome.com/license (Commercial License) Copyright 2025 Fonticons, Inc. --><path fill="currentColor" d="M304 16l320 0 0 480-192 0 0 16 208 0 0-512-352 0 0 98.1 16 13.4 0-95.5zM488 96l-8 0 0 64 64 0 0-64-56 0zm8 48l0-32 32 0 0 32-32 0zm-16 48l0 64 64 0 0-64-64 0zm16 16l32 0 0 32-32 0 0-32zm-8 80l-8 0 0 64 64 0 0-64-56 0zm8 48l0-32 32 0 0 32-32 0zM384 96l0 64 64 0 0-64-64 0zm16 16l32 0 0 32-32 0 0-32zM32 262.3l0 249.7 352 0 0-249.7 18.9 15.8 10.3-12.2-200-168-5.1-4.3-5.1 4.3-200 168 10.3 12.2 18.9-15.8zm16-13.4l160-134.4 160 134.4 0 247.2-320 0 0-247.2zM176 288l64 0 0 64-64 0 0-64zm-16-16l0 96 96 0 0-96-96 0z"/></svg>