<svg xmlns="http://www.w3.org/2000/svg" viewBox="0 0 512 512"><!--! Font Awesome Pro 7.0.0 by @fontawesome - https://fontawesome.com License - https://fontawesome.com/license (Commercial License) Copyright 2025 Fonticons, Inc. --><path fill="currentColor" d="M261.8 2.1l-5.5-5.1-5.5 5.1-240 224-5.8 5.5 10.9 11.7c.4-.4 11.2-10.5 32.4-30.2l0 298.9 416 0 0-298.9 26.5 24.8 5.8 5.5 10.9-11.7-5.8-5.5-37.5-35 0-159.2-96 0 0 69.6-106.5-99.4zm186.5 196l0 297.9-384 0 0-297.9 192-179.2 192 179.2zm0-150.1l0 128.3-64-59.7 0-68.5 64 0zm-224 144l-8 0 0 56-56 0 0 80 56 0 0 56 80 0 0-56 56 0 0-80-56 0 0-56-72 0zm8 64l0-48 48 0 0 56 56 0 0 48-56 0 0 56-48 0 0-56-56 0 0-48 56 0 0-8z"/></svg>