<svg xmlns="http://www.w3.org/2000/svg" viewBox="0 0 640 512"><!--! Font Awesome Pro 7.0.0 by @fontawesome - https://fontawesome.com License - https://fontawesome.com/license (Commercial License) Copyright 2025 Fonticons, Inc. --><path fill="currentColor" d="M293.5 2.1l-5.5-5.1-5.5 5.1-240 224-5.8 5.5 10.9 11.7c.4-.4 11.2-10.5 32.4-30.2l0 298.9 260 0c-3.7-5.1-7.2-10.5-10.3-16L96 496 96 198.1 288 18.9 490.6 208.1c1.8 0 3.6-.1 5.4-.1 6.4 0 12.8 .3 19 .9L293.5 2.1zM304.7 384c.4-5.4 1.1-10.7 2-16l-42.7 0 0-56-56 0 0-48 56 0 0-56 48 0 0 56 48.5 0c5.7-5.7 11.8-11.1 18.2-16l-50.7 0 0-56-80 0 0 56-56 0 0 80 56 0 0 56 56.7 0zM496 272a128 128 0 1 1 0 256 128 128 0 1 1 0-256zm0 272a144 144 0 1 0 0-288 144 144 0 1 0 0 288zm67.2-207.8l-12.9-9.4-4.7 6.5-74 101.7-33.4-40.1-5.1-6.1-12.3 10.2 5.1 6.1 40 48 6.6 7.9 6-8.3 80-110 4.7-6.5z"/></svg>