<svg xmlns="http://www.w3.org/2000/svg" viewBox="0 0 576 512"><!--! Font Awesome Pro 7.0.0 by @fontawesome - https://fontawesome.com License - https://fontawesome.com/license (Commercial License) Copyright 2025 Fonticons, Inc. --><path fill="currentColor" d="M560 80l0 352-544 0 0-352 544 0zM16 64l-16 0 0 384 576 0 0-384-560 0zm88 104l0 16 32 0 0 144-32 0 0 16 80 0 0-16-32 0 0-160-48 0zm156 26.5c15.1-12.9 37.7-11.3 50.8 3.6 12.5 14.3 11.8 35.9-1.6 49.4l-74.8 74.8-2.3 2.3 0 19.3 112 0 0-16-92.7 0 69.1-69.1c19.4-19.4 20.5-50.6 2.4-71.2-18.8-21.5-51.5-23.9-73.2-5.3l-22.8 19.5 10.4 12.1 22.8-19.5z"/></svg>