<svg xmlns="http://www.w3.org/2000/svg" viewBox="0 0 448 512"><!--! Font Awesome Pro 7.0.0 by @fontawesome - https://fontawesome.com License - https://fontawesome.com/license (Commercial License) Copyright 2025 Fonticons, Inc. --><path fill="currentColor" d="M14 0l-16 0 32 512 384 0 31-496 1-16-432 0zm5 80l109 0 0 8c0 39.8-32.2 72-72 72l-32 0-5-80zM45 496l-20-320 31 0c48.6 0 88-39.4 88-88l0-8 72 0 0 416-171 0zM18 64L15 16 429 16 426 64 18 64zm286 16l0 8c0 48.6 39.4 88 88 88l26.9 0-20 320-166.9 0 0-416 72 0zm16 0l104.9 0-5 80-27.9 0c-39.8 0-72-32.2-72-72l0-8z"/></svg>