<svg xmlns="http://www.w3.org/2000/svg" viewBox="0 0 640 512"><!--! Font Awesome Pro 7.0.0 by @fontawesome - https://fontawesome.com License - https://fontawesome.com/license (Commercial License) Copyright 2025 Fonticons, Inc. --><path fill="currentColor" d="M101.7 178.3l-5.7-5.7-11.3 11.3 5.7 5.7 104 104 5.7 5.7 11.3-11.3-5.7-5.7-104-104zM312 240l0 8 16 0 0-160-16 0 0 152zm122.3 42.3l-5.7 5.7 11.3 11.3 5.7-5.7 104-104 5.7-5.7-11.3-11.3-5.7 5.7-104 104zM0 400l0 16 128 0 0-16-128 0zm200 0l-8 0 0 16 256 0 0-16-248 0zm320 0l-8 0 0 16 128 0 0-16-120 0z"/></svg>