<svg xmlns="http://www.w3.org/2000/svg" viewBox="0 0 448 512"><!--! Font Awesome Pro 7.0.0 by @fontawesome - https://fontawesome.com License - https://fontawesome.com/license (Commercial License) Copyright 2025 Fonticons, Inc. --><path fill="currentColor" d="M192 16l0 48 104 0c13.3 0 24-10.7 24-24s-10.7-24-24-24L192 16zM176 0L296 0c22.1 0 40 17.9 40 40s-17.9 40-40 40l-120 0 0-32-96 0 0 80 304 0 64 176 0 48-216 0 0 144 88 0 0 16-192 0 0-16 88 0 0-144-216 0 0-48 64-176 0-96 112 0 0-32zM16 336l416 0 0-29.2-59.2-162.8-297.6 0-59.2 162.8 0 29.2z"/></svg>