<svg xmlns="http://www.w3.org/2000/svg" viewBox="0 0 640 512"><!--! Font Awesome Pro 7.0.0 by @fontawesome - https://fontawesome.com License - https://fontawesome.com/license (Commercial License) Copyright 2025 Fonticons, Inc. --><path fill="currentColor" d="M328 8l0-8-16 0 0 260.7-66.3-66.3-5.7-5.7-11.3 11.3 5.7 5.7 80 80 5.7 5.7 5.7-5.7 80-80 5.7-5.7-11.3-11.3-5.7 5.7-66.3 66.3 0-252.7zM80 32l-16 0 0 304 16 0 0-288 176 0 0-16-176 0zM560 48l0 288 16 0 0-304-192 0 0 16 176 0zM62.6 464l-46.6-46.6 0-17.4 608 0 0 17.4-46.6 46.6-514.7 0zM640 384l-640 0 0 40 56 56 528 0 56-56 0-40z"/></svg>