<svg xmlns="http://www.w3.org/2000/svg" viewBox="0 0 640 512"><!--! Font Awesome Pro 7.0.0 by @fontawesome - https://fontawesome.com License - https://fontawesome.com/license (Commercial License) Copyright 2025 Fonticons, Inc. --><path fill="currentColor" d="M80 48l480 0 0 288 16 0 0-304-512 0 0 304 16 0 0-288zM16 417.4l0-17.4 608 0 0 17.4-46.6 46.6-514.7 0-46.6-46.6zM624 384l-624 0 0 40 56 56 528 0 56-56 0-40-16 0zM288 128l-8 0 0 56-56 0 0 80 56 0 0 56 80 0 0-56 56 0 0-80-56 0 0-56-72 0zm8 64l0-48 48 0 0 56 56 0 0 48-56 0 0 56-48 0 0-56-56 0 0-48 56 0 0-8z"/></svg>