<svg xmlns="http://www.w3.org/2000/svg" viewBox="0 0 384 512"><!--! Font Awesome Pro 7.0.0 by @fontawesome - https://fontawesome.com License - https://fontawesome.com/license (Commercial License) Copyright 2025 Fonticons, Inc. --><path fill="currentColor" d="M144 0l0 70c15.3-3.9 31.4-6 48-6 10.9 0 21.6 .9 32 2.7l0-66.7 16 0 0 70c82.8 21.3 144 96.5 144 186l-16 0c0-80.6-54.1-148.5-128-169.4l0 169.4-16 0 0-173.1c-10.4-1.9-21.1-2.9-32-2.9-16.6 0-32.7 2.3-48 6.6l0 169.4-16 0 0-164c-65.6 25.6-112 89.4-112 164 0 97.2 78.8 176 176 176l192 0 0 16-384 0 0-16 115.1 0C47.4 402.4 0 334.7 0 256 0 172.4 53.4 101.3 128 74.9L128 0 144 0z"/></svg>