<svg xmlns="http://www.w3.org/2000/svg" viewBox="0 0 320 512"><!--! Font Awesome Pro 7.0.0 by @fontawesome - https://fontawesome.com License - https://fontawesome.com/license (Commercial License) Copyright 2025 Fonticons, Inc. --><path fill="currentColor" d="M176.3 14l0-10.2-9.9 2.5-159.9 40-6.1 1.5 0 256.5 9.9-2.5 143.8-36 0 0 150-37.5 0 63.5-105.9 26.5-6.1 1.5 0 64.2-63.9 0 0-78.8-16 4 0 74.8-48 0 0 128 192 0 0-128-48.1 0 0-51.7 105.9-26.5 6.1-1.5 0-256.5-9.9 2.5-134 33.5 0-69.8zM304.3 148.3l0 63.5c-105.9 26.5-201.8 50.5-287.8 71.9l0-63.5 287.8-71.9zm0-16.5l-287.8 71.9 0-63.5 153.8-38.4 6.1-1.5 127.9-32 0 63.5zm-143.9-44l-143.9 36 0-63.5 143.9-36 0 63.5zM80.4 400l160 0 0 96-160 0 0-96z"/></svg>