<svg xmlns="http://www.w3.org/2000/svg" viewBox="0 0 512 512"><!--! Font Awesome Pro 7.0.0 by @fontawesome - https://fontawesome.com License - https://fontawesome.com/license (Commercial License) Copyright 2025 Fonticons, Inc. --><path fill="currentColor" d="M16.5 400l479 0C487.2 274.9 383.2 176 256 176S24.8 274.9 16.5 400zM248 160.1l0-160.1 16 0 0 160.1c132.3 4.1 239.4 108.6 247.5 239.9 .3 5.3 .5 10.6 .5 16l-165.5 0c-13.2 37.3-48.7 64-90.5 64s-77.4-26.7-90.5-64L0 416c0-5.4 .2-10.7 .5-16 8.1-131.3 115.2-235.8 247.5-239.9zM182.7 416c12.3 28.3 40.5 48 73.3 48s61-19.7 73.3-48l-146.7 0z"/></svg>