<svg xmlns="http://www.w3.org/2000/svg" viewBox="0 0 448 512"><!--! Font Awesome Pro 7.0.0 by @fontawesome - https://fontawesome.com License - https://fontawesome.com/license (Commercial License) Copyright 2025 Fonticons, Inc. --><path fill="currentColor" d="M432 320l-48 0 0-128c0-88.4-71.6-160-160-160S64 103.6 64 192l0 128-64 0 0 160 448 0 0-160-16 0zM368 192l0 128-288 0 0-128c0-79.5 64.5-144 144-144s144 64.5 144 144zM16 336l416 0 0 128-416 0 0-128zM144 208c0-53 43-96 96-96l0-16c-61.9 0-112 50.1-112 112l16 0z"/></svg>