<svg xmlns="http://www.w3.org/2000/svg" viewBox="0 0 640 512"><!--! Font Awesome Pro 7.0.0 by @fontawesome - https://fontawesome.com License - https://fontawesome.com/license (Commercial License) Copyright 2025 Fonticons, Inc. --><path fill="currentColor" d="M336 3.8l0 80 134-33.5 9.9-2.5 0 256.5-6.1 1.5-105.9 26.5 0 51.7 48.1 0 0 128-192 0 0-128 48 0 0-74.8 16-4 0 78.8 63.9 0 0-64.2 6.1-1.5 105.9-26.5 0-63.5-150 37.5 0 0-143.8 36-9.9 2.5 0-256.5 6.1-1.5 159.9-40 9.9-2.5zm127.9 208l0-63.5-287.8 71.9 0 63.5c86-21.5 181.9-45.5 287.8-71.9zm0-143.5l-127.9 32-6.1 1.5-153.8 38.4 0 63.5 287.8-71.9 0-63.5zM176.1 123.7l143.9-36 0-63.5-143.9 36 0 63.5zM400 400l-160 0 0 96 160 0 0-96zM36.4 25.3l48 32 6.7 4.4-8.9 13.3-6.7-4.4-48-32-6.7-4.4 8.9-13.3 6.7 4.4zm576 13.3l-48 32-6.7 4.4-8.9-13.3 6.7-4.4 48-32 6.7-4.4 8.9 13.3-6.7 4.4zM16 184l56 0 0 16-64 0 0-16 8 0zm560 0l56 0 0 16-64 0 0-16 8 0zM84.4 326.7l-48 32-6.7 4.4-8.9-13.3 6.7-4.4 48-32 6.7-4.4 8.9 13.3-6.7 4.4zm480-13.3l48 32 6.7 4.4-8.9 13.3-6.7-4.4-48-32-6.7-4.4 8.9-13.3 6.7 4.4z"/></svg>