<svg xmlns="http://www.w3.org/2000/svg" viewBox="0 0 576 512"><!--! Font Awesome Pro 7.0.0 by @fontawesome - https://fontawesome.com License - https://fontawesome.com/license (Commercial License) Copyright 2025 Fonticons, Inc. --><path fill="currentColor" d="M0 256C0 150 86 64 192 64l64 0 0 16-64 0C94.8 80 16 158.8 16 256S94.8 432 192 432l64 0 0 16-64 0C86 448 0 362 0 256zm576 0c0 106-86 192-192 192l-64 0 0-16 64 0c97.2 0 176-78.8 176-176S481.2 80 384 80l-64 0 0-16 64 0c106 0 192 86 192 192zm-408-8l248 0 0 16-256 0 0-16 8 0z"/></svg>