<svg xmlns="http://www.w3.org/2000/svg" viewBox="0 0 512 512"><!--! Font Awesome Pro 7.0.0 by @fontawesome - https://fontawesome.com License - https://fontawesome.com/license (Commercial License) Copyright 2025 Fonticons, Inc. --><path fill="currentColor" d="M32 64l0 64 64 0 0-64-64 0zM16 48l96 0 0 96-96 0 0-96zM176 88l328 0 0 16-336 0 0-16 8 0zm0 160l328 0 0 16-336 0 0-16 8 0zm0 160l328 0 0 16-336 0 0-16 8 0zM96 224l-64 0 0 64 64 0 0-64zM32 208l80 0 0 96-96 0 0-96 16 0zm0 176l0 64 64 0 0-64-64 0zM16 368l96 0 0 96-96 0 0-96z"/></svg>