<svg xmlns="http://www.w3.org/2000/svg" viewBox="0 0 576 512"><!--! Font Awesome Pro 7.0.0 by @fontawesome - https://fontawesome.com License - https://fontawesome.com/license (Commercial License) Copyright 2025 Fonticons, Inc. --><path fill="currentColor" d="M21.7-21.6l-5.7-5.7-11.3 11.3 5.7 5.7 544.2 544 5.7 5.7 11.3-11.3-5.7-5.7-151.8-151.8C450.2 313.4 480 248 480 188.6 480 84.4 394 0 288 0 221.1 0 162.2 33.6 127.8 84.6L21.7-21.6zM139.4 96.1c31.2-48.1 86-80.1 148.6-80.1 97.5 0 176 77.5 176 172.6 0 34.5-11 72.2-28.5 110-9.5 20.6-20.9 41-33.1 60.5l-263-263zM112 188.6c0-9.3 .7-18.3 2.2-27.2l-13.7-13.7c-3 13.2-4.5 26.8-4.5 40.9 0 128.7 139.8 284.9 180.8 328 1.1 1.1 2 2.1 3 3.1 5.2 5.4 8.2 8.4 8.2 8.4s3-2.9 8.2-8.4c.9-1 1.9-2 3-3.1 15.8-16.6 46.4-50.1 77.9-92.3l-11.4-11.4c-21.8 29.3-43.2 54.4-59.5 72.7-7.1 7.9-13.3 14.5-18.1 19.6-4.8-5.1-11-11.7-18.1-19.6-17.7-19.7-41.4-47.6-65-80-23.6-32.5-47-69.3-64.4-106.9-17.5-37.8-28.5-75.4-28.5-110z"/></svg>