<svg xmlns="http://www.w3.org/2000/svg" viewBox="0 0 512 512"><!--! Font Awesome Pro 7.1.0 by @fontawesome - https://fontawesome.com License - https://fontawesome.com/license (Commercial License) Copyright 2025 Fonticons, Inc. --><path fill="currentColor" d="M231.6-1.7c8.7 2.7 16.8 6 24.6 9.8 4.9 2.3 9.4 4.8 13.8 7.5 12.6-4.9 26.8-8.1 42.3-8 19.7 20.7 36 47 52.1 72.8l54.3-32.5 5.4-3.2 39.1 39.1 4.4 4.4-3.2 5.4-32.6 54.3c25.8 16.1 52.1 32.3 72.8 52.1 .1 15.5-3.1 29.8-8 42.3 7.1 11.6 12.9 24.4 17.3 38.5-7.6 12.5-16.4 23.5-26 33.1 1.9 13.4 2.4 27.5 1.2 41.9-11.7 8.6-23.8 15.5-36 21.2-2.8 13.2-6.9 26.6-12.1 39.8-13.5 4.5-26.9 7.7-40.2 10-6.1 12-13.1 23.9-21 35.5-14 1.2-27.7 1.5-41.2 1.1-8.4 10.5-17.5 20.8-27.4 30.7-13.9-1.5-27.5-3.7-40.7-6.7-10.3 8.8-21.2 17.2-33 24.9-13.5-4.2-26.3-9.3-38.6-15.2-12.1 6.3-25.3 11.3-39.4 14.8-11.9-8.3-22.5-17.8-31.4-28-13.5 1.1-27.6 .5-42-1.8-7.7-12.4-13.7-25.2-18-38-12.8-4.3-25.7-10.3-38-18-2.3-14.4-2.9-28.6-1.8-42-10.1-8.9-19.6-19.5-28-31.4 3.5-14.1 8.5-27.3 14.8-39.4-5.9-12.2-10.9-25.1-15.2-38.6 7.7-11.7 16.1-22.7 24.9-33-3-13.1-5.2-26.8-6.7-40.7 9.9-10 20.2-19.1 30.7-27.4-.4-13.5-.1-27.2 1.1-41.2 11.6-7.9 23.5-14.9 35.5-21 2.3-13.3 5.5-26.8 10-40.2 13.2-5.2 26.6-9.3 39.8-12.1 5.7-12.2 12.6-24.4 21.2-36 14.4-1.1 28.6-.7 41.9 1.2 9.6-9.5 20.6-18.3 33.1-26zM233.7 16c-8.9 6-16.8 12.5-23.9 19.6l-5.7 5.7-7.9-1.2c-9.8-1.4-20.3-1.9-31-1.5-6 8.9-11.1 17.9-15.4 27.2l-3.4 7.3-7.8 1.7c-9.9 2.1-20 5-30.1 8.6-3 10.2-5.4 20.5-7.2 30.7l-1.3 7.9-7.2 3.6c-9.2 4.7-18.4 9.9-27.4 15.8-.7 10.7-.8 21.3-.5 31.7l.2 8-6.3 5c-8.2 6.5-16.1 13.4-23.9 20.8 1.4 10.6 3.2 21.1 5.5 31.2l1.8 7.8-5.2 6.1c-6.8 7.9-13.3 16.3-19.4 25 3.5 10.1 7.4 19.8 11.9 29.1l3.5 7.2-3.7 7.1c-4.6 8.9-8.5 18.6-11.5 28.7 6.5 8.5 13.6 16.1 21 22.7l6 5.3-.7 8c-.8 9.9-.6 20.3 .7 30.9 6.5 3.7 13 6.9 19.6 9.5l8.7 3.2 7.6 2.5 2.5 7.6c3.1 9.5 7.4 18.9 12.7 28.2 10.6 1.2 21 1.5 30.9 .7l8-.7 5.3 6c6.6 7.5 14.2 14.5 22.7 21 10.2-3 19.8-6.8 28.8-11.5l7.1-3.7 7.2 3.5c9.3 4.5 19 8.4 29.1 11.9 8.8-6.1 17.1-12.6 25.1-19.4l6.1-5.2 7.8 1.8c10.1 2.3 20.5 4.1 31.2 5.4 7.4-7.8 14.4-15.7 20.9-23.8l5-6.3 8 .2c10.4 .3 21 .2 31.7-.5 5.8-9 11.1-18.1 15.8-27.3l3.6-7.2 7.9-1.3 9.4-1.8c7.1-1.5 14.2-3.3 21.3-5.4 3.6-10.1 6.6-20.2 8.7-30.1l1.7-7.8 7.3-3.4c9.2-4.3 18.3-9.4 27.2-15.4 .4-10.7-.1-21.1-1.5-30.9l-1.2-7.9 5.7-5.7c7.1-7.1 13.6-15.1 19.6-24-3.7-10.1-8-19.4-13.2-27.9l-4.2-6.8 2.9-7.4c3.5-9.1 5.9-19.1 6.6-29.8-13.8-12.2-30-23.2-47.5-34.3-19.3-12.2-40.5-24.9-59.1-38.3l-2.1-1.5-1.5-2.1c-13.5-18.6-26.1-39.8-38.3-59.1-11.1-17.5-22.2-33.8-34.4-47.5-10.7 .7-20.6 3.1-29.7 6.7l-7.4 2.9-6.7-4.2c-2-1.2-4-2.4-6-3.5l-6.3-3.2c-5.1-2.4-10.3-4.6-15.7-6.5zM209.6 318.3l-7.8 1.6-34.8 6.9-7 34.8-1.6 7.8-15.7-3.1 1.6-7.8 8-40 1-5.3 5.2-1 40-8 7.8-1.6 3.1 15.7zm160-32l-7.8 1.6-34.7 6.9-7 34.8-1.6 7.8-15.7-3.1 1.6-7.8 8-40 1-5.3 5.3-1 40-8 7.8-1.6 3.1 15.7zm-128-128l-7.8 1.6-34.8 6.9-7 34.8-1.6 7.8-15.7-3.1 1.6-7.8 8-40 1-5.2 5.2-1 40-8 7.8-1.6 3.1 15.7zM373 93.9c6 9.4 12 18.5 18.2 27.1 8.6 6.2 17.7 12.2 27.1 18.2l29.2-48.6-25.8-25.8-48.6 29.2z"/></svg>