<svg xmlns="http://www.w3.org/2000/svg" viewBox="0 0 512 512"><!--! Font Awesome Pro 7.0.0 by @fontawesome - https://fontawesome.com License - https://fontawesome.com/license (Commercial License) Copyright 2025 Fonticons, Inc. --><path fill="currentColor" d="M208.3 16a192 192 0 1 1 0 384 192 192 0 1 1 0-384zm0 400c54.6 0 104.2-21 141.3-55.4L504.3 515.3 515.6 504 360.9 349.3c34.4-37.1 55.4-86.8 55.4-141.3 0-114.9-93.1-208-208-208S.3 93.1 .3 208 93.4 416 208.3 416zm8-288l0-24-16 0 0 24-5.4 0c-23.6 0-42.6 19.1-42.6 42.6 0 20.8 15.1 38.6 35.6 42.1l38.1 6.3c12.8 2.1 22.3 13.3 22.3 26.3 0 14.7-11.9 26.6-26.6 26.6l-61.4 0 0 16 40 0 0 24 16 0 0-24 5.4 0c23.6 0 42.6-19.1 42.6-42.6 0-20.8-15.1-38.6-35.6-42.1l-38.1-6.3c-12.8-2.1-22.3-13.3-22.3-26.3 0-14.7 11.9-26.6 26.6-26.6l53.4 0 0-16-32 0z"/></svg>