<svg xmlns="http://www.w3.org/2000/svg" viewBox="0 0 576 512"><!--! Font Awesome Pro 7.0.0 by @fontawesome - https://fontawesome.com License - https://fontawesome.com/license (Commercial License) Copyright 2025 Fonticons, Inc. --><path fill="currentColor" d="M144 64l160 0 0 16-94 0c46.3 23.9 78 72.3 78 128l0 256 272 0 0-240c0-42.6-18.5-81-48-107.3L512 96c38.9 29.2 64 75.7 64 128l0 256-576 0 0-272C0 128.5 64.5 64 144 64zm0 16C73.3 80 16 137.3 16 208l0 256 256 0 0-256c0-70.7-57.3-128-128-128zM72 224l144 0 0 16-144 0 0-16zm280 8l0-168 112 0 0 96-96 0 0 80-16 0 0-8zm96-88l0-64-80 0 0 64 80 0z"/></svg>