<svg xmlns="http://www.w3.org/2000/svg" viewBox="0 0 512 512"><!--! Font Awesome Pro 7.0.0 by @fontawesome - https://fontawesome.com License - https://fontawesome.com/license (Commercial License) Copyright 2025 Fonticons, Inc. --><path fill="currentColor" d="M451.9 2.2l4.9 4.9 48 48 4.9 4.9-4.2 5.6-51.2 67.2-1.8 2.4-3 .6-77.6 15.5-51.1 51.1C324.5 257.7 332.9 512 176 512 78.8 512 0 433.2 0 336 0 179.1 254.3 187.5 309.5 191.2l51.1-51.1 15.5-77.6 .6-3 2.4-1.8 67.2-51.2 5.6-4.2zM294.3 206.4c-7-.3-15.2-.5-24.4-.6-29.4-.2-68.4 1.2-107.1 8-39 6.8-76.2 18.8-103.4 38.4-26.4 19.2-43.4 45.6-43.4 83.8 0 88.4 71.6 160 160 160 38.2 0 64.6-17 83.8-43.4 19.7-27.2 31.6-64.4 38.4-103.4 6.8-38.7 8.3-77.7 8-107.1-.1-9.2-.3-17.5-.6-24.4l-63.1 63.1c8.4 10.8 13.4 24.5 13.4 39.2 0 35.3-28.7 64-64 64s-64-28.7-64-64 28.7-64 64-64c14.8 0 28.4 5 39.2 13.4l63.1-63.1zm83.9-72.6l65.3-13.1 45.1-59.2-38.1-38.1-59.2 45.1-13.1 65.3zM192 368a48 48 0 1 0 0-96 48 48 0 1 0 0 96z"/></svg>