<svg xmlns="http://www.w3.org/2000/svg" viewBox="0 0 576 512"><!--! Font Awesome Pro 7.0.0 by @fontawesome - https://fontawesome.com License - https://fontawesome.com/license (Commercial License) Copyright 2025 Fonticons, Inc. --><path fill="currentColor" d="M576 376c0 75.1-60.9 136-136 136S304 451.1 304 376l0-48 80 0 0 48c0 30.9 25.1 56 56 56s56-25.1 56-56l0-344 80 0 0 344zm-64 0c0 39.8-32.2 72-72 72-37.3 0-67.9-28.3-71.6-64.6l-.4-7.4 0-32-48 0 0 32c0 66.3 53.7 120 120 120 64.2 0 116.6-50.4 119.8-113.8l.2-6.2 0-216-48 0 0 216zm-64-88l-176 0-32-64-32 0-32 64-176 0 0-224 448 0 0 224zM16 272l150.1 0 27.6-55.2 4.4-8.8 51.7 0 4.4 8.8 27.6 55.2 150.1 0 0-192-416 0 0 192zM512 144l48 0 0-96-48 0 0 96z"/></svg>