<svg xmlns="http://www.w3.org/2000/svg" viewBox="0 0 576 512"><!--! Font Awesome Pro 7.0.0 by @fontawesome - https://fontawesome.com License - https://fontawesome.com/license (Commercial License) Copyright 2025 Fonticons, Inc. --><path fill="currentColor" d="M560 80a64 64 0 1 0 -128 0 64 64 0 1 0 128 0zM416 80a80 80 0 1 1 160 0 80 80 0 1 1 -160 0zM32 32l345.3 0c-2.1 5.2-3.9 10.5-5.3 16l-324 0 0 384 128 0 0 83.7 139.6-83.7 212.4 0 0-228c5.5-1.4 10.8-3.2 16-5.3l0 249.3-224 0-160 96 0-96-128 0 0-416z"/></svg>