<svg xmlns="http://www.w3.org/2000/svg" viewBox="0 0 512 512"><!--! Font Awesome Pro 7.0.0 by @fontawesome - https://fontawesome.com License - https://fontawesome.com/license (Commercial License) Copyright 2025 Fonticons, Inc. --><path fill="currentColor" d="M144 16l0 288 128 0 0-288-128 0zM288 144l0 176-160 0 0-320 160 0 0 128 32 0c106 0 192 86 192 192 0 78.7-47.4 146.4-115.1 176l107.1 0 0 16-504 0 0-16 320 0c97.2 0 176-78.8 176-176S417.2 144 320 144l-32 0zM104 400l216 0 0 16-224 0 0-16 8 0z"/></svg>