<svg xmlns="http://www.w3.org/2000/svg" viewBox="0 0 640 512"><!--! Font Awesome Pro 7.0.0 by @fontawesome - https://fontawesome.com License - https://fontawesome.com/license (Commercial License) Copyright 2025 Fonticons, Inc. --><path fill="currentColor" d="M48.5 80l480 0 0 107.2 15.2-15.2 .8 .8 0-108.8-512 0 0 384 254.5 0 2.7-16-241.2 0 0-352zm272 208l-192 0 0 16 192 0 0-16zm-192-80l0 16 320 0 0-16-320 0zM351.4 455.6l142.7-142.6 57.4 57.4-142.7 142.6-68.8 11.5 11.5-68.8zM601.8 319.9l-39.1 39.1-57.4-57.4 39.1-39.1 57.4 57.4zm-68.7-68.7L336.5 447.9c-10.6 63.3-15.9 95.3-16 96 .7-.1 32.7-5.4 96-16l196.7-196.7 11.3-11.3-11.3-11.3-57.4-57.4-11.3-11.3-11.3 11.3z"/></svg>