<svg xmlns="http://www.w3.org/2000/svg" viewBox="0 0 512 512"><!--! Font Awesome Pro 7.0.0 by @fontawesome - https://fontawesome.com License - https://fontawesome.com/license (Commercial License) Copyright 2025 Fonticons, Inc. --><path fill="currentColor" d="M352 0l0 16 100.7 0-165.1 165.1-106.4-91.2-5.3-4.5-5.2 4.6-128 112 10.5 12 122.8-107.4 106.7 91.5 5.6 4.8 5.2-5.2 170.3-170.3 0 100.7 16 0 0-128-128 0zM496 272l0 56c-30.9 0-56-25.1-56-56l56 0zM88 272l336 0c0 39.8 32.2 72 72 72l0 80c-39.8 0-72 32.2-72 72L88 496c0-39.8-32.2-72-72-72l0-80c39.8 0 72-32.2 72-72zM440 496c0-30.9 25.1-56 56-56l0 56-56 0zM16 440c30.9 0 56 25.1 56 56l-56 0 0-56zM72 272c0 30.9-25.1 56-56 56l0-56 56 0zM16 256l-16 0 0 256 512 0 0-256-496 0zM208 384a48 48 0 1 1 96 0 48 48 0 1 1 -96 0zm112 0a64 64 0 1 0 -128 0 64 64 0 1 0 128 0z"/></svg>