<svg xmlns="http://www.w3.org/2000/svg" viewBox="0 0 640 512"><!--! Font Awesome Pro 7.0.0 by @fontawesome - https://fontawesome.com License - https://fontawesome.com/license (Commercial License) Copyright 2025 Fonticons, Inc. --><path fill="currentColor" d="M488 408l80 0 0-40 16 0 0 40 40 0 0 16-40 0 0 80 40 0 0 16-40 0 0 40-16 0 0-40-80 0 0 40-16 0 0-40-40 0 0-16 40 0 0-80-40 0 0-16 40 0 0-40 16 0 0 40zm0 96l80 0 0-80-80 0 0 80zM459 29.9l-4.5 6.7-30 44.9 15.1 60.6 1.2 5.2-4.1 3.3-74.9 59.8 168.4 9.3 8.1 .8c39.6 6.1 69.6 40.4 69.6 81.3l-.4 8.4c-.3 3.3-1 6.6-1.7 9.8l-16.5 0c1.7-5.8 2.6-11.9 2.6-18.2 0-35.1-27.5-64.2-62.6-66.1l-169.4-9.4 0 32.4 79.4 61.3-26.1 0-50.8-39.3 57.6 79.3-19.7 0-40.3-55.4 0 151.4-80 0 0-151.4-48.1 66.1 0 47.3-32.9 65.8-3.6 7.2-14.1-7.4 3.6-7.2 31.1-62.2 0-48.7 1.6-2.2 59.9-82.4-111.1 85.8-5.7 4c-11.6 7.5-24.8 12-38.5 13.2l-6.9 .3-1.3 0-8.4-.4c-38.7-3.9-69.4-34.7-73.4-73.4l-.4-8.4c0-40.9 30-75.1 69.6-81.3l8.1-.8 168.4-9.3-74.9-59.8-4.1-3.3 1.3-5.2 15.1-60.6-30-44.9-4.5-6.7 13-9.2 4.5 6.7 32 48 2 3-.9 3.6-14.7 59 63.1 50.4 0-71.4 32 0 0-64.1 16 0 0 64.1 32 0 0 71.3 63.1-50.3-14.7-59-.9-3.6 2-3 32-48 4.5-6.7 13 9.2zM296 440l48 0 0-304-48 0 0 304zM110.5 235.6c-35.1 2-62.5 31-62.6 66.1 0 36.6 29.7 66.2 66.2 66.2l1.3 0c14.9 0 29.5-5 41.3-14.1l123.2-95.3 0-32.4-169.5 9.4z"/></svg>