<svg xmlns="http://www.w3.org/2000/svg" viewBox="0 0 640 512"><!--! Font Awesome Pro 7.0.0 by @fontawesome - https://fontawesome.com License - https://fontawesome.com/license (Commercial License) Copyright 2025 Fonticons, Inc. --><path fill="currentColor" d="M256 0c67.1 0 122.1 51.7 127.5 117.4 .3 .8 .5 1.7 .5 2.6 0 .5-.1 1.1-.2 1.6 .1 2.1 .2 4.3 .2 6.4l0 67.2c-5.5 2.8-10.8 5.9-16 9.3l0-76.5-16.4 0c-4.1 49.3-45.3 88-95.6 88s-91.5-38.7-95.6-88l-16.4 0 0 112 184.2 0c-4.2 5.1-8.1 10.4-11.7 16l-200.4 0C93.7 288 80 333.6 80 376s13.7 88 36.1 120l142.6 0-6.4 16-144.3 0-5-6.8c-24.5-35-39-83.9-39-129.2 0-48.3 16.4-100.7 44-136l20 0 0-112c0-2.2 0-4.3 .1-6.4-.1-.5-.1-1-.1-1.6 0-.9 .2-1.8 .4-2.6 5.4-65.7 60.4-117.4 127.6-117.4zM464 224c70.7 0 128 57.3 128 128l0 80 32 80-320 0 32-80 0-80c0-70.7 57.3-128 128-128zM352 435.1l-1.2 2.8-23.2 58.1 272.7 0-23.2-58.1-1.2-2.8 0-67.1-16.4 0c-4.1 49.3-45.3 88-95.6 88s-91.5-38.7-95.6-88l-16.4 0 0 67.1zM438.9 364l-2.3 4-52.2 0c4 40.4 38.1 72 79.6 72 41.4 0 75.5-31.5 79.6-71.8l0-.2-52.2 0-2.3-4-25.1-43.9-25.1 43.9zM464 240c-61.9 0-112 50.1-112 112l75.4 0 29.7-52 6.9-12.2 6.9 12.2 29.7 52 75.4 0c0-61.9-50.1-112-112-112zM230.9 124l-2.3 4-52.2 0c4 40.4 38.1 72 79.6 72 41.4 0 75.5-31.5 79.6-71.8l0-.2-52.2 0-2.3-4-25.1-43.9-25.1 43.9zM256 16c-56.4 0-103.1 41.7-110.8 96l74.2 0 29.7-52 6.9-12.2 6.9 12.2 29.7 52 74.2 0C359.1 57.7 312.4 16 256 16z"/></svg>