<svg xmlns="http://www.w3.org/2000/svg" viewBox="0 0 576 512"><!--! Font Awesome Pro 7.0.0 by @fontawesome - https://fontawesome.com License - https://fontawesome.com/license (Commercial License) Copyright 2025 Fonticons, Inc. --><path fill="currentColor" d="M368 48l0 128-160 0 0-128 160 0zM208 32l-16 0 0 160 88 0 0 56-280 0 0 16 152 0 0 56-88 0 0 160 192 0 0-160-88 0 0-56 240 0 0 56-88 0 0 160 192 0 0-160-88 0 0-56 152 0 0-16-280 0 0-56 88 0 0-160-176 0zM80 336l160 0 0 128-160 0 0-128zm416 0l0 128-160 0 0-128 160 0z"/></svg>