<svg xmlns="http://www.w3.org/2000/svg" viewBox="0 0 512 512"><!--! Font Awesome Pro 7.0.0 by @fontawesome - https://fontawesome.com License - https://fontawesome.com/license (Commercial License) Copyright 2025 Fonticons, Inc. --><path fill="currentColor" d="M432.3 48l-416 0 0 416 210.3 0c5.9 5.8 12.2 11.1 18.9 16l-245.2 0 0-448 448 0 0 180.1c-5.1-4-10.4-7.8-16-11.2l0-153zm-64 72l0 57.8c-5.3-.8-10.6-1.3-16-1.5l0-48.3-120 0 0 80.7c3.2 .5 6.3 1.4 9.2 2.5-5.2 4-10.1 8.3-14.8 12.9-.8-.1-1.6-.1-2.4-.1-17.7 0-32 14.3-32 32 0 4.2 .8 8.2 2.3 11.8-3 5.8-5.6 11.8-7.9 18-6.5-8.2-10.4-18.6-10.4-29.8 0-23.8 17.3-43.5 40-47.3l0-96.7 152 0 0 8zM185.8 400l-105.5 0 0-288 80 0 0 16-64 0 0 256 84.8 0c1.3 5.4 2.9 10.8 4.8 16zm158.5 48.1a104 104 0 1 0 0-208 104 104 0 1 0 0 208zm0 16c-66.3 0-120-53.7-120-120s53.7-120 120-120 120 53.7 120 120c0 30.2-11.2 57.9-29.6 79l75.3 75.4 5.7 5.7-11.3 11.3-5.7-5.7-75.3-75.4c-21.1 18.5-48.8 29.7-79.1 29.7z"/></svg>