<svg xmlns="http://www.w3.org/2000/svg" viewBox="0 0 448 512"><!--! Font Awesome Pro 7.0.0 by @fontawesome - https://fontawesome.com License - https://fontawesome.com/license (Commercial License) Copyright 2025 Fonticons, Inc. --><path fill="currentColor" d="M169.2-3.3l5 6.2 272 336 1.8 2.2 0 170.8-448 0 0-96c0-70.7 57.3-128 128-128l0 16C66.1 304 16 354.1 16 416l0 80 96 0 0-24c0-35.3 28.7-64 64-64s64 28.7 64 64l0 24 192 0 0-149.2-270.2-333.8-5-6.2 12.4-10.1zM224 496l0-24c0-26.5-21.5-48-48-48s-48 21.5-48 48l0 24 96 0z"/></svg>