<svg xmlns="http://www.w3.org/2000/svg" viewBox="0 0 512 512"><!--! Font Awesome Pro 7.0.0 by @fontawesome - https://fontawesome.com License - https://fontawesome.com/license (Commercial License) Copyright 2025 Fonticons, Inc. --><path fill="currentColor" d="M345.4 400l150.6-150.6 0-233.4-384 0 0 384 233.4 0zm6.6 16l-256 0 0-416 416 0 0 256-160 160zM16 96l0 400 336 0 0 16-352 0 0-416 16 0zm256 16l72 0 0 56 56 0 0 80-56 0 0 56-80 0 0-56-56 0 0-80 56 0 0-56 8 0zm8 64l0 8-56 0 0 48 56 0 0 56 48 0 0-56 56 0 0-48-56 0 0-56-48 0 0 48z"/></svg>