<svg xmlns="http://www.w3.org/2000/svg" viewBox="0 0 640 512"><!--! Font Awesome Pro 7.0.0 by @fontawesome - https://fontawesome.com License - https://fontawesome.com/license (Commercial License) Copyright 2025 Fonticons, Inc. --><path fill="currentColor" d="M16 16l0 64 64 0 0-64-64 0zM0 0l96 0 0 40 256 0 0-40 96 0 0 96-40 0 0 160 40 0 0 96-96 0 0-40-256 0 0 40-96 0 0-96 40 0 0-160-40 0 0-96zM392 96l-40 0 0-40-256 0 0 40-40 0 0 160 40 0 0 40 256 0 0-40 40 0 0-160zM80 272l-64 0 0 64 64 0 0-64zM368 16l0 64 64 0 0-64-64 0zm64 256l-64 0 0 64 64 0 0-64zm128-96l0 64 64 0 0-64-64 0zm-16-16l96 0 0 96-40 0 0 160 40 0 0 96-96 0 0-40-256 0 0 40-96 0 0-96 40 0 0-56 16 0 0 56 40 0 0 40 256 0 0-40 40 0 0-160-40 0 0-40-88 0 0-16 88 0 0-40zM272 432l-64 0 0 64 64 0 0-64zm352 0l-64 0 0 64 64 0 0-64z"/></svg>