<svg xmlns="http://www.w3.org/2000/svg" viewBox="0 0 512 512"><!--! Font Awesome Pro 7.0.0 by @fontawesome - https://fontawesome.com License - https://fontawesome.com/license (Commercial License) Copyright 2025 Fonticons, Inc. --><path fill="currentColor" d="M16 16l320 0 0 96 16 0 0-112-352 0 0 352 112 0 0-16-96 0 0-320zM176 160l-16 0 0 64 16 0 0-48 80 0 0-16-80 0zM160 272l0 80 48 0 0-16-32 0 0-64-16 0zm96 80l96 0 0-64-16 0 0 48-80 0 0 16zm96-176l0-16-48 0 0 16 32 0 0 64 16 0 0-64zM160 400l0 112 352 0 0-352-112 0 0 16 96 0 0 320-320 0 0-96-16 0z"/></svg>