<svg xmlns="http://www.w3.org/2000/svg" viewBox="0 0 576 512"><!--! Font Awesome Pro 7.0.0 by @fontawesome - https://fontawesome.com License - https://fontawesome.com/license (Commercial License) Copyright 2025 Fonticons, Inc. --><path fill="currentColor" d="M16 16l0 64 64 0 0-64-64 0zm80 0l0 24 384 0 0-40 96 0 0 96-40 0 0 320 40 0 0 96-96 0 0-40-384 0 0 40-96 0 0-96 40 0 0-320-40 0 0-96 96 0 0 16zm0 64l0 16-40 0 0 320 40 0 0 40 384 0 0-40 40 0 0-320-40 0 0-40-384 0 0 24zm400 0l64 0 0-64-64 0 0 64zm0 352l0 64 64 0 0-64-64 0zM80 432l-64 0 0 64 64 0 0-64zM304 128l-176 0 0 128 176 0 0-128zM128 112l192 0 0 160-208 0 0-160 16 0zM256 320l16 0 0 64 176 0 0-128-80 0 0-16 96 0 0 160-208 0 0-80z"/></svg>