<svg xmlns="http://www.w3.org/2000/svg" viewBox="0 0 640 512"><!--! Font Awesome Pro 7.0.0 by @fontawesome - https://fontawesome.com License - https://fontawesome.com/license (Commercial License) Copyright 2025 Fonticons, Inc. --><path fill="currentColor" d="M264 80l88 0 0-16-192 0 0 16 88 0 0 80-248 0 0 144 96 41.1 0 70.9 336 0 208-224-32-32-160 32-64-32-120 0 0-80zM16 176l80 0 0 151.7-80-34.3 0-117.4zm424.8 30.3l4.9 2.5 5.4-1.1 151.6-30.3 15 15-192.8 207.6-313 0 0-224 268.2 0 60.6 30.3z"/></svg>