<svg xmlns="http://www.w3.org/2000/svg" viewBox="0 0 512 512"><!--! Font Awesome Pro 7.0.0 by @fontawesome - https://fontawesome.com License - https://fontawesome.com/license (Commercial License) Copyright 2025 Fonticons, Inc. --><path fill="currentColor" d="M496 80l0 352-480 0 0-352 480 0zM16 64l-16 0 0 384 512 0 0-384-496 0zM336 176l24 0c22.1 0 40 17.9 40 40l0 8 16 0 0-8c0-30.9-25.1-56-56-56l-24 0c-30.9 0-56 25.1-56 56l0 80c0 30.9 25.1 56 56 56l24 0c30.9 0 56-25.1 56-56l0-8-16 0 0 8c0 22.1-17.9 40-40 40l-24 0c-22.1 0-40-17.9-40-40l0-80c0-22.1 17.9-40 40-40zM112 216c0-22.1 17.9-40 40-40l24 0c22.1 0 40 17.9 40 40l0 80c0 22.1-17.9 40-40 40l-24 0c-22.1 0-40-17.9-40-40l0-80zm40-56c-30.9 0-56 25.1-56 56l0 80c0 30.9 25.1 56 56 56l24 0c30.9 0 56-25.1 56-56l0-80c0-30.9-25.1-56-56-56l-24 0z"/></svg>