<svg xmlns="http://www.w3.org/2000/svg" viewBox="0 0 576 512"><!--! Font Awesome Pro 7.0.0 by @fontawesome - https://fontawesome.com License - https://fontawesome.com/license (Commercial License) Copyright 2025 Fonticons, Inc. --><path fill="currentColor" d="M171.6-4.7L300.7 124.4 289.4 135.7 160.3 6.6 38.9 128 152.7 241.7c-6.4 .9-12.6 2.3-18.7 3.9L27.6 139.3 16.3 128 27.6 116.7 149-4.7 160.3-16 171.6-4.7zm197 462.4l168.6 47.2-47.2-168.6-49.4-49.4 11.3-11.3 52.4 52.4 51 182 5 18-18-5-182-51-29.7-29.7c1.7-6.1 3-12.3 3.9-18.7l34.1 34.1zM496.3-3.3l5.7 5.7 72 72 5.7 5.7-5.7 5.7-288.6 288.6c1.9 8.3 3 16.9 3 25.7 0 61.9-50.1 112-112 112l-176 0 0-64 64 0 0-48c0-61.9 50.1-112 112-112 8.9 0 17.5 1 25.7 3L490.7 2.3 496.3-3.3zM557 80L496.3 19.3 219.1 296.5c27.4 11.4 49.3 33.3 60.7 60.7L557 80zM80.3 464l-64 0 0 32 160 0c53 0 96-43 96-96s-43-96-96-96-96 43-96 96l0 64z"/></svg>