<svg xmlns="http://www.w3.org/2000/svg" viewBox="0 0 512 512"><!--! Font Awesome Pro 7.0.0 by @fontawesome - https://fontawesome.com License - https://fontawesome.com/license (Commercial License) Copyright 2025 Fonticons, Inc. --><path fill="currentColor" d="M264.4 18.4c46.9-46.9 122.8-46.9 169.7 0s46.9 122.8 0 169.7L247.4 374.8c-25 25-65.5 25-90.5 0s-25-65.5 0-90.5l175.4-175.4 5.7-5.7 11.3 11.3-5.7 5.7-175.4 175.4c-18.7 18.7-18.7 49.1 0 67.9s49.1 18.7 67.9 0L422.7 176.8c40.6-40.6 40.6-106.5 0-147.1s-106.5-40.6-147.1 0L72 233.4c-59.4 59.4-59.4 155.6 0 215s155.6 59.4 215 0l169.7-169.7 5.7-5.7 11.3 11.3-5.7 5.7-169.7 169.7c-65.6 65.6-172 65.6-237.6 0s-65.6-172 0-237.6L264.4 18.4z"/></svg>