<svg xmlns="http://www.w3.org/2000/svg" viewBox="0 0 512 512"><!--! Font Awesome Pro 7.0.0 by @fontawesome - https://fontawesome.com License - https://fontawesome.com/license (Commercial License) Copyright 2025 Fonticons, Inc. --><path fill="currentColor" d="M248 495.9l0-222.8-171.2 142.6C119.2 463.1 180 493.6 248 495.9zM66.6 403.4L248 252.3 248 16.1C119.2 20.4 16 126.1 16 256 16 311.6 34.9 362.7 66.6 403.4zM256 512a256 256 0 1 1 0-512 256 256 0 1 1 0 512zm179.2-96.3L264 273.1 264 495.9c68-2.2 128.8-32.7 171.2-80.2zm10.2-12.3C477.1 362.7 496 311.6 496 256 496 126.1 392.8 20.4 264 16.1l0 236.1 181.4 151.2z"/></svg>