<svg xmlns="http://www.w3.org/2000/svg" viewBox="0 0 576 512"><!--! Font Awesome Pro 7.0.0 by @fontawesome - https://fontawesome.com License - https://fontawesome.com/license (Commercial License) Copyright 2025 Fonticons, Inc. --><path fill="currentColor" d="M21.7-21.6l-5.7-5.7-11.3 11.3 5.7 5.7 544.2 544 5.7 5.7 11.3-11.3-5.7-5.7-230.7-230.6 213-193 11.9-10.8-11.3-11.3-81.3-81.3-11.3-11.3-10.8 11.9-193.1 213-230.5-230.5zM263.5 220.2l193-213 80.2 80.2-213 193-60.3-60.3zM96 280L32 480c15.4 15.4 27.5 27.5 32 32l200-64 32.6-104.2-12.8-12.8-32.6 104.3-182.8 58.5-3.4-3.4 73-73c6.3 4.2 13.9 6.6 22.1 6.6 22.1 0 40-17.9 40-40s-17.9-40-40-40-40 17.9-40 40c0 8.2 2.4 15.7 6.6 22.1l-73 73-3.4-3.4 58.5-182.8 104.3-32.6-12.8-12.8-104.2 32.6zm40 104a24 24 0 1 1 48 0 24 24 0 1 1 -48 0z"/></svg>