<svg xmlns="http://www.w3.org/2000/svg" viewBox="0 0 512 512"><!--! Font Awesome Pro 7.0.0 by @fontawesome - https://fontawesome.com License - https://fontawesome.com/license (Commercial License) Copyright 2025 Fonticons, Inc. --><path fill="currentColor" d="M128.3 112a48 48 0 1 0 0-96 48 48 0 1 0 0 96zm0-112a64 64 0 1 1 0 128 64 64 0 1 1 0-128zM66.4 160l123.8 0 1.7 5.6 64 208 .4 1.1 .4-1.1 64-208 1.7-5.6 123.8 0 1.7 5.6 64 208 3.2 10.4-66.8 0 0 128-128 0 0-128-128 0 0 128-128 0 0-128-66.8 0 3.2-10.4 64-208 1.7-5.6zm11.8 16l-59.1 192 61.2 0 0 128 96 0 0-128 61.2 0-59.1-192-100.2 0zm306.1-64a48 48 0 1 0 0-96 48 48 0 1 0 0 96zm0-112a64 64 0 1 1 0 128 64 64 0 1 1 0-128zM334.2 176l-59.1 192 61.2 0 0 128 96 0 0-128 61.2 0-59.1-192-100.2 0z"/></svg>