<svg xmlns="http://www.w3.org/2000/svg" viewBox="0 0 512 512"><!--! Font Awesome Pro 7.0.0 by @fontawesome - https://fontawesome.com License - https://fontawesome.com/license (Commercial License) Copyright 2025 Fonticons, Inc. --><path fill="currentColor" d="M64.5-16a40 40 0 1 1 0 80 40 40 0 1 1 0-80zm0 96a56 56 0 1 0 0-112 56 56 0 1 0 0 112zm-56 32l-8 0 0 162.6c0 28 12.2 54.7 33.5 72.9l78.5 67.3 0 129.3 64 0 0-158.7c-.9-.8-4.7-4-11.2-9.6l-52.8-45.3 0-86.6c38.7 54.1 27 37.8 31.5 44.1l96.5 0 0 179.3c-14.1 6.2-24 20.3-24 36.7 0 22.1 17.9 40 40 40 19.4 0 35.5-13.7 39.2-32l192.8 0 0-16-192.8 0c-3.7-18.3-19.8-32-39.2-32l0-312-16 0 0 72-63.5 0-70.4-98.6c-5.6-7.8-8.8-12.3-9.6-13.4L8.5 112zm232 160l-88.2 0-4.8-6.7c-28-39.2-45-63-51-71.4l0 143.9 2.8 2.4 55.6 47.7 5.6 4.8 0 135.4-32 0 0-120.6-2.8-2.4-81.3-69.7c-17.7-15.2-27.9-37.4-27.9-60.7l0-146.6 72.2 0 4.8 6.7 72.8 101.9 2.4 3.4 71.8 0 0 32zM.5 536l0 8 64 0 0-117.7-16-13.7 0 115.5-32 0 0-142.9-8.5-7.3c-2.6-2.2-5.1-4.5-7.5-6.9L.5 536zm256-56a24 24 0 1 1 0 48 24 24 0 1 1 0-48zm64-208l144 0 0 144-144 0 0-144zm-16-16l0 176 176 0 0-176-176 0z"/></svg>