<svg xmlns="http://www.w3.org/2000/svg" viewBox="0 0 448 512"><!--! Font Awesome Pro 7.0.0 by @fontawesome - https://fontawesome.com License - https://fontawesome.com/license (Commercial License) Copyright 2025 Fonticons, Inc. --><path fill="currentColor" d="M304 352l0 112 48 0 0 32-80 0 0-128-112 0c-26.5 0-48-21.5-48-48l0-144 80 0 0 160 112 0 0 16zM160 16a56 56 0 1 0 0 112 56 56 0 1 0 0-112zm40 56a40 40 0 1 1 -80 0 40 40 0 1 1 80 0zM96 320c0 35.3 28.7 64 64 64l96 0 0 128 112 0 0-64-48 0 0-128-112 0 0-160-112 0 0 160zM48 168l0-8-16 0 0 288 192 0 0-16-176 0 0-264zM304 48l128 0 0 192-128 0 0-192zM288 32l0 224 160 0 0-224-160 0z"/></svg>