<svg xmlns="http://www.w3.org/2000/svg" viewBox="0 0 640 512"><!--! Font Awesome Pro 7.0.0 by @fontawesome - https://fontawesome.com License - https://fontawesome.com/license (Commercial License) Copyright 2025 Fonticons, Inc. --><path fill="currentColor" d="M230.1 252.3l-22.6 75.2c7.8 3.1 12.8 5.1 14.9 6l27.6-91.9 5-16.7c-3.4-.7-30.8-6.4-82.3-17.1l-9-1.9-2.9-8.7-32-96-5.1-15.2 30.4-10.1 5.1 15.2 26.2 78.5 2.9 8.7 9 1.9 55.7 11.6 1.6 .3 126.8 0 2.5-.8 139.1-46.4 15.2-5.1 10.1 30.4-15.2 5.1-140.7 46.9-7.9 2.6-2.4 8-39.2 130.6 19-7.6 35.5-118.4 140.7-46.9c10.1-3.4 20.2-6.7 30.4-10.1-2.5-7.6-7.6-22.8-15.2-45.5l-5.1-15.2c-2.1 .7-58.6 19.5-169.4 56.5l-122.6 0-55.7-11.6-26.2-78.5-10.1-30.4c-7.6 2.5-22.8 7.6-45.5 15.2l-15.2 5.1c3.1 9.3 17.1 51.4 42.1 126.4l5.8 17.5c6.8 1.4 29.3 6.1 67.5 14l15.7 3.3-4.6 15.4zM320 48a40 40 0 1 1 0 80 40 40 0 1 1 0-80zm56 40a56 56 0 1 0 -112 0 56 56 0 1 0 112 0zM196.2 368.5l-2.8-1.1-2.8 1.1-124.1 47-48-15.2-7.6-2.4-4.8 15.3 7.6 2.4 50.7 16 2.6 .8 2.6-1 123.8-46.9 123.8 46.9 2.8 1.1 2.8-1.1 123.8-46.9 123.8 46.9 2.6 1 2.6-.8 50.7-16 7.6-2.4-4.8-15.3-7.6 2.4-48 15.2-124.1-47-2.8-1.1-2.8 1.1-123.8 46.9-123.8-46.9z"/></svg>