<svg xmlns="http://www.w3.org/2000/svg" viewBox="0 0 448 512"><!--! Font Awesome Pro 7.0.0 by @fontawesome - https://fontawesome.com License - https://fontawesome.com/license (Commercial License) Copyright 2025 Fonticons, Inc. --><path fill="currentColor" d="M301.3 192l-70.6-70.6-9.4-9.4-93.3 0 0 162.6c0 28 12.2 54.7 33.5 72.9l80.5 69 14.3 100.1 4.5 31.7c7.9-1.1 23.8-3.4 47.5-6.8l15.8-2.3c-1.1-7.7-7.9-55.6-20.5-143.7l-1.7-11.9-9.1-7.8-52.8-45.3 0-109.2c26.2 26.2 27.9 27.9 34.7 34.7l93.3 0 0 288 16 0 0-448-16 0 0 96-66.7 0zM368 208l0 32-86.6 0-4.7-4.7c-16.6-16.6-34.2-34.2-52.7-52.7l0 155.2 5.6 4.8 52.8 45.3 4.6 3.9 .9 6 16 112 2.3 15.8-31.7 4.5-2.3-15.8-14.3-100.1-.9-6-4.6-3.9-80.5-69c-17.7-15.2-27.9-37.4-27.9-60.7l0-146.6 70.6 0 4.7 4.7 70.6 70.6 4.7 4.7 73.4 0zM192-16a40 40 0 1 1 0 80 40 40 0 1 1 0-80zM64 112l16 0 0 160-64 0 0-112c0-26.5 21.5-48 48-48zM192 80a56 56 0 1 0 0-112 56 56 0 1 0 0 112zM0 160l0 128 96 0 0-192-32 0C28.7 96 0 124.7 0 160zM162.4 411.4c-2.5 7.5-3.9 11.7-4.2 12.6l-2 2.4-77.7 91.8-24.4-20.7 73.7-87.1 2-2.4 1-2.9 5.4-16.2-5.9-5c-2.5-2.1-4.8-4.3-7.1-6.5l-7.6 22.7-73.7 87.1-10.3 12.2c6.1 5.2 18.3 15.5 36.6 31l12.2 10.3 10.3-12.2 77.7-91.8 4-4.7c1.4-4.3 2.5-7.4 3.1-9.3l-13.1-11.2z"/></svg>