<svg xmlns="http://www.w3.org/2000/svg" viewBox="0 0 512 512"><!--! Font Awesome Pro 7.0.0 by @fontawesome - https://fontawesome.com License - https://fontawesome.com/license (Commercial License) Copyright 2025 Fonticons, Inc. --><path fill="currentColor" d="M208 144l-67.8 67c33.5 70.5 90.3 127.3 160.8 160.8l67-67.8 144 80-64 128-16 0C193.4 512 0 318.6 0 80L0 64 128 0 208 144zM312.3 383l-8 8.1-10.3-4.9c-73.8-35.1-133.3-94.5-168.3-168.3l-4.9-10.3 8.1-8 59.2-58.5-66.7-120-105.4 52.7 0 6.1c0 229.7 186.3 416 416 416l6.1 0 52.7-105.5-120-66.7-58.5 59.2zm10-204.7l162.3-162.3-132.7 0 0-16 160 0 0 160-16 0 0-132.7-162.3 162.3-5.7 5.7-11.3-11.3 5.7-5.7z"/></svg>