<svg xmlns="http://www.w3.org/2000/svg" viewBox="0 0 512 512"><!--! Font Awesome Pro 7.0.0 by @fontawesome - https://fontawesome.com License - https://fontawesome.com/license (Commercial License) Copyright 2025 Fonticons, Inc. --><path fill="currentColor" d="M208.3 144l-67.8 67c33.5 70.5 90.3 127.3 160.8 160.8l67-67.8 144 80-64 128-16 0C193.7 512 .3 318.6 .3 80l0-16 128-64 80 144zM312.6 383l-8 8.1-10.3-4.9C220.6 351.2 161.1 291.7 126 217.9l-4.9-10.3 8.1-8 59.2-58.5-66.7-120-105.4 52.7 0 6.1c0 229.7 186.3 416 416 416l6.1 0 52.7-105.5-120-66.7-58.5 59.2zM510 101.7l-72 72-5.7 5.7-11.3-11.3 5.7-5.7 58.3-58.3-164.7 0 0-16 164.7 0-58.3-58.3-5.7-5.7 11.3-11.3 5.7 5.7 72 72 5.7 5.7-5.7 5.7z"/></svg>