<svg xmlns="http://www.w3.org/2000/svg" viewBox="0 0 640 512"><!--! Font Awesome Pro 7.0.0 by @fontawesome - https://fontawesome.com License - https://fontawesome.com/license (Commercial License) Copyright 2025 Fonticons, Inc. --><path fill="currentColor" d="M208 16l0 320 416 0 0-320-416 0zM192 0l448 0 0 352-448 0 0-352zm72 96a24 24 0 1 0 48 0 24 24 0 1 0 -48 0zm24 40a40 40 0 1 1 0-80 40 40 0 1 1 0 80zM454.4 91.2l136 184 9.4 12.8-358.8 0 8.3-12.4 80-120 4.5-6.7 6.7 4.6 39.2 26.7 61.7-88.7 6.4-9.2 6.6 9zM388.3 195.8l-4.5 6.5-6.5-4.5-39.1-26.7-67.2 100.8 297.2 0-119.9-162.3-59.9 86zM112 128l32 0 0 16-32 0 0 320 224 0 0-64 16 0 0 64 80 0 0-64 16 0 0 80-448 0 0-352 112 0zM96 368l-80 0 0 96 80 0 0-96zm0-16l0-96-80 0 0 96 80 0zm0-112l0-96-80 0 0 96 80 0z"/></svg>