<svg xmlns="http://www.w3.org/2000/svg" viewBox="0 0 576 512"><!--! Font Awesome Pro 7.0.0 by @fontawesome - https://fontawesome.com License - https://fontawesome.com/license (Commercial License) Copyright 2025 Fonticons, Inc. --><path fill="currentColor" d="M288-16a80 80 0 1 1 0 160 80 80 0 1 1 0-160zm0 176a96 96 0 1 0 0-192 96 96 0 1 0 0 192zm134.5-44.4c-2.5 6.6-5.5 12.9-9 19l1.6 .9 4.9 2.6 4.2-3.6c16.1-13.8 37-22.2 60-22.2l32.8 0-22 92.7-.8 3.2 1.7 2.8c4.6 7.7 8.7 15.8 12 24l2 5 50.1 0 0 160-77 0-2.3 2.3c-12.8 12.6-27.7 23-44.1 30.7l-4.6 2.2 0 60.8-74.2 0-11.9-37.3-2-6.3-6.6 .8C321.5 455.1 305 456 288 456s-33.5-.9-49.4-2.8l-6.6-.8-2 6.3-11.9 37.3-74.2 0 0-68.8-4.4-2.2c-51.6-26.4-83.6-69.2-83.6-128.3 0-67.4 42.1-127.6 106.5-162.1-2.6-4.6-5-9.4-7-14.3-69.1 36.8-115.4 101.6-115.4 176.4 0 64.4 34.6 111.4 88 140.2l0 75.1 101.8 0 1.8-5.6 11.7-36.6c14.5 1.5 29.5 2.2 44.7 2.2s30.2-.7 44.7-2.2l11.7 36.6 1.8 5.6 101.8 0 0-66.7c15.3-7.7 29.2-17.6 41.5-29.3l86.5 0 0-192-55.5 0c-2.8-6.3-5.9-12.4-9.4-18.4l23.6-99.4 2.3-9.8-53 0c-22.9 0-44.1 7.1-61.6 19.3zM448 304a16 16 0 1 0 -32 0 16 16 0 1 0 32 0zM200 192l-8 0 0 16 192 0 0-16-184 0z"/></svg>