<svg xmlns="http://www.w3.org/2000/svg" viewBox="0 0 512 512"><!--! Font Awesome Pro 7.0.0 by @fontawesome - https://fontawesome.com License - https://fontawesome.com/license (Commercial License) Copyright 2025 Fonticons, Inc. --><path fill="currentColor" d="M272 144l240 0 0 360-128 0 0-104-144 0 0 104-128 0 0-306.8-107.2-45.9-4.8-2.1 0-117.3 184 0 0-64 88 0 0 176zM412.1 350.9l-4.6 2.8-4.3-3.2-38.4-28.8-48.7 29.2-4.6 2.8-4.3-3.2-38.4-28.8-48.7 29.2-4.6 2.8-4.3-3.2-38.4-28.8-44.8 26.9 0 139.5 96 0 0-104 176 0 0 104 96 0 0-140-35.2-26.4-48.7 29.2zm0-80l-4.6 2.8-4.3-3.2-38.4-28.8-48.7 29.2-4.6 2.8-4.3-3.2-38.4-28.8-48.7 29.2-4.6 2.8-4.3-3.2-38.4-28.8-44.8 26.9 0 61.3 41.2-24.7 4.6-2.8 4.3 3.2 38.3 28.7 48.8-29.2 4.6-2.8 4.3 3.2 38.3 28.7 48.8-29.2 4.6-2.8 4.3 3.2 38.3 28.7 48.8-29.2 4.6-2.8 4.3 3.2 29.9 22.4 0-60-35.2-26.4-48.7 29.2zM200 48l-184 0 0 90.7 107.2 45.9 4.8 2.1 0 63.1 41.2-24.7 4.6-2.8 4.3 3.2 38.3 28.8 48.8-29.2 4.6-2.8 4.3 3.2 38.3 28.8 48.8-29.2 4.6-2.8 4.3 3.2 38.3 28.8 48.8-29.2 4.6-2.8 4.3 3.2 29.9 22.4 0-88-240 0 0-176-56 0 0 64zm-24 80a16 16 0 1 1 0-32 16 16 0 1 1 0 32z"/></svg>