<svg xmlns="http://www.w3.org/2000/svg" viewBox="0 0 640 512"><!--! Font Awesome Pro 7.0.0 by @fontawesome - https://fontawesome.com License - https://fontawesome.com/license (Commercial License) Copyright 2025 Fonticons, Inc. --><path fill="currentColor" d="M192-32l0 128 192 0 0-128 16 0 0 128 112 0 0 16-32 0 0 96.7c-5.4 .4-10.7 1.1-16 2l0-98.7-352 0 0 112c0 97.2 78.8 176 176 176 5.4 0 10.7-.2 16-.7l0 .7c0 5.1 .2 10.2 .6 15.3-2.8 .2-5.7 .4-8.6 .5l0 96.2-16 0 0-96.2C177.7 411.6 96 327.4 96 224l0-112-32 0 0-16 112 0 0-128 16 0zM624 400a128 128 0 1 0 -256 0 128 128 0 1 0 256 0zm-272 0a144 144 0 1 1 288 0 144 144 0 1 1 -288 0zm152-64l0 56 64 0 0 16-64 0 0 64-16 0 0-64-64 0 0-16 64 0 0-64 16 0 0 8z"/></svg>