<svg xmlns="http://www.w3.org/2000/svg" viewBox="0 0 448 512"><!--! Font Awesome Pro 7.0.0 by @fontawesome - https://fontawesome.com License - https://fontawesome.com/license (Commercial License) Copyright 2025 Fonticons, Inc. --><path fill="currentColor" d="M432 224c0 77-41.9 144.3-104.1 180.2L325.1 424C398 387 448 311.4 448 224 448 100.3 347.7 0 224 0S0 100.3 0 224c0 87.4 50 163 122.9 200l-2.8-19.7C57.9 368.3 16 301 16 224 16 109.1 109.1 16 224 16s208 93.1 208 208zm-96 0c0 27.1-9.6 51.9-25.6 71.2l10.2 12.7c19.5-22.5 31.4-51.8 31.4-83.9 0-70.7-57.3-128-128-128S96 153.3 96 224c0 32.1 11.8 61.5 31.4 83.9l10.2-12.7c-16-19.4-25.6-44.2-25.6-71.2 0-61.9 50.1-112 112-112s112 50.1 112 112zM224 192a32 32 0 1 1 0 64 32 32 0 1 1 0-64zm0 80a48 48 0 1 0 0-96 48 48 0 1 0 0 96zm26.1 224l-52.2 0-21.1-147.4 22.9-28.6 48.6 0 22.9 28.6-21.1 147.4zM160 344l24 168 80 0 24-168-32-40-64 0-32 40z"/></svg>