<svg xmlns="http://www.w3.org/2000/svg" viewBox="0 0 576 512"><!--! Font Awesome Pro 7.0.0 by @fontawesome - https://fontawesome.com License - https://fontawesome.com/license (Commercial License) Copyright 2025 Fonticons, Inc. --><path fill="currentColor" d="M400 16l0 96-352 0 0-96 352 0zM48 128l16 0 0 384 212 0c-3.7-5.1-7.2-10.5-10.3-16l-185.7 0 0-80 88 0 0-16-88 0 0-80 88 0 0-16-88 0 0-80 88 0 0-16-88 0 0-80 288 0 0 90.9c5.2-1.8 10.6-3.5 16-4.9l0-86 32 0 0-128-384 0 0 128 16 0zM432 528c-32.5 0-62.1-12.1-84.7-32l2.3-2.3 176-176 2.3-2.3c19.9 22.6 32 52.2 32 84.7 0 70.7-57.3 128-128 128zm-93.7-45.7l-2.3 2.3c-19.9-22.6-32-52.2-32-84.7 0-70.7 57.3-128 128-128 32.5 0 62.1 12.1 84.7 32l-2.3 2.3-176 176zM432 544a144 144 0 1 0 0-288 144 144 0 1 0 0 288z"/></svg>