<svg xmlns="http://www.w3.org/2000/svg" viewBox="0 0 320 512"><!--! Font Awesome Pro 7.0.0 by @fontawesome - https://fontawesome.com License - https://fontawesome.com/license (Commercial License) Copyright 2025 Fonticons, Inc. --><path fill="currentColor" d="M96 16l0 112 128 0 0-112-128 0zM80 128l0-128 160 0 0 56 80 0 0 16-80 0 0 56 80 0 0 384-320 0 0-384 80 0zm144 16l-208 0 0 352 288 0 0-352-80 0zm-58.3 82.3c14.2 14.2 30.6 32.4 43.6 52.5 12.9 19.9 22.8 42.5 22.8 65.2 0 20-8.2 36.3-21.6 47.4-13.3 11-31.2 16.6-50.4 16.6s-37.1-5.6-50.4-16.6c-13.4-11.1-21.6-27.4-21.6-47.4 0-22.6 9.9-45.2 22.8-65.2 12.9-20.1 29.4-38.3 43.6-52.5l5.7-5.7 5.7 5.7zM104 344c0 15.3 6.1 27 15.8 35.1 9.9 8.2 24 12.9 40.2 12.9s30.3-4.7 40.2-12.9c9.7-8.1 15.8-19.8 15.8-35.1 0-18.2-8.1-37.6-20.2-56.5-10.4-16.2-23.5-31.4-35.8-44.1-12.3 12.7-25.3 27.9-35.8 44.1-12.1 18.8-20.2 38.3-20.2 56.5z"/></svg>