<svg xmlns="http://www.w3.org/2000/svg" viewBox="0 0 576 512"><!--! Font Awesome Pro 7.0.0 by @fontawesome - https://fontawesome.com License - https://fontawesome.com/license (Commercial License) Copyright 2025 Fonticons, Inc. --><path fill="currentColor" d="M0 80C0 35.8 35.8 0 80 0l16 0 0 16-16 0C44.7 16 16 44.7 16 80l0 16 112 0 0 128-128 0 0-144zm16 32l0 96 96 0 0-96-96 0zM160 80c0-44.2 35.8-80 80-80l16 0 0 16-16 0c-35.3 0-64 28.7-64 64l0 16 112 0 0 128-128 0 0-144zm16 80l0 48 96 0 0-96-96 0 0 48zM576 432c0 44.2-35.8 80-80 80l-16 0 0-16 16 0c35.3 0 64-28.7 64-64l0-16-112 0 0-128 128 0 0 144zm-16-32l0-96-96 0 0 96 96 0zM416 432c0 44.2-35.8 80-80 80l-16 0 0-16 16 0c35.3 0 64-28.7 64-64l0-16-112 0 0-128 128 0 0 144zm-16-80l0-48-96 0 0 96 96 0 0-48z"/></svg>