<svg xmlns="http://www.w3.org/2000/svg" viewBox="0 0 512 512"><!--! Font Awesome Pro 7.0.0 by @fontawesome - https://fontawesome.com License - https://fontawesome.com/license (Commercial License) Copyright 2025 Fonticons, Inc. --><path fill="currentColor" d="M256 16a240 240 0 1 1 0 480 240 240 0 1 1 0-480zm0 496a256 256 0 1 0 0-512 256 256 0 1 0 0 512zM384 256a128 128 0 1 0 -256 0 128 128 0 1 0 256 0zM256 144a112 112 0 1 1 0 224 112 112 0 1 1 0-224zm0 128a16 16 0 1 0 0-32 16 16 0 1 0 0 32z"/></svg>