<svg xmlns="http://www.w3.org/2000/svg" viewBox="0 0 576 512"><!--! Font Awesome Pro 7.0.0 by @fontawesome - https://fontawesome.com License - https://fontawesome.com/license (Commercial License) Copyright 2025 Fonticons, Inc. --><path fill="currentColor" d="M16 80l0 352 544 0 0-352-544 0zM0 64l576 0 0 384-576 0 0-384zM80 168l0 73.6c0 27.6 11 54 30.5 73.5l17.5 17.5 17.5-17.5c19.5-19.5 30.5-46 30.5-73.5l0-81.6 16 0 0 81.6c0 31.8-12.6 62.3-35.1 84.9-18.4 18.4-28 28-28.9 28.9-.8-.8-10.5-10.5-28.9-28.9-22.5-22.5-35.1-53-35.1-84.9l0-81.6 16 0 0 8zm200 8c-22.1 0-40 17.9-40 40l0 80c0 22.1 17.9 40 40 40l16 0c22.1 0 40-17.9 40-40l0-80c0-22.1-17.9-40-40-40l-16 0zm-56 40c0-30.9 25.1-56 56-56l16 0c30.9 0 56 25.1 56 56l0 80c0 30.9-25.1 56-56 56l-16 0c-30.9 0-56-25.1-56-56l0-80zm168-56l56 0c35.3 0 64 28.7 64 64l0 64c0 35.3-28.7 64-64 64l-64 0 0-192 8 0zm8 176l48 0c26.5 0 48-21.5 48-48l0-64c0-26.5-21.5-48-48-48l-48 0 0 160z"/></svg>