<svg xmlns="http://www.w3.org/2000/svg" viewBox="0 0 512 512"><!--! Font Awesome Pro 7.0.0 by @fontawesome - https://fontawesome.com License - https://fontawesome.com/license (Commercial License) Copyright 2025 Fonticons, Inc. --><path fill="currentColor" d="M16 80l0 352 480 0 0-352-480 0zM0 64l512 0 0 384-512 0 0-384zM120 216l0 56 96 0 0-56c0-22.1-17.9-40-40-40l-16 0c-22.1 0-40 17.9-40 40zm96 128l0-56-96 0 0 64-16 0 0-136c0-30.9 25.1-56 56-56l16 0c30.9 0 56 25.1 56 56l0 136-16 0 0-8zM416 168l0 184-16 0 0-26.7c-13.2 16.3-33.4 26.7-56 26.7-39.8 0-72-32.2-72-72s32.2-72 72-72c22.6 0 42.8 10.4 56 26.7l0-74.7 16 0 0 8zm-72 56a56 56 0 1 0 0 112 56 56 0 1 0 0-112z"/></svg>