<svg xmlns="http://www.w3.org/2000/svg" viewBox="0 0 640 512"><!--! Font Awesome Pro 7.0.0 by @fontawesome - https://fontawesome.com License - https://fontawesome.com/license (Commercial License) Copyright 2025 Fonticons, Inc. --><path fill="currentColor" d="M384.3-23.5l13.4 12 219.5 197.5 6.6 5.9-6.6 5.9-219.5 197.5-13.4 12 0-143.6-136.3 .2-8 0 0-123.6-199.5 179.6 199.5 179.6 0-123.7 80 0 0 16-64 0 0 143.7-13.4-12-219.5-197.5-6.6-5.9 6.6-5.9 219.5-197.5 13.4-12 0 143.5 136.3-.1 8 0 0 123.7 199.5-179.6-199.5-179.6 0 123.7-80 0 0-16 64 0 0-143.7z"/></svg>