<svg xmlns="http://www.w3.org/2000/svg" viewBox="0 0 576 512"><!--! Font Awesome Pro 7.0.0 by @fontawesome - https://fontawesome.com License - https://fontawesome.com/license (Commercial License) Copyright 2025 Fonticons, Inc. --><path fill="currentColor" d="M192 32l48 0 0 16-40 0 0 96 40 0 0 16-224 0 0 90.5 6.9 2.6C57.2 265.9 80 298.8 80 335.4l0 128.6 80 0 0-96c0-47.6 34.6-87.1 80-94.7l0 16.3c-36.5 7.4-64 39.7-64 78.4l0 112-112 0 0-144.6c0-30-18.6-56.9-46.7-67.4-9.2-3.5-15-5.6-17.3-6.5l0-117.5 56 0 0-96-56 0 0-16 192 0zm-8 16l-112 0 0 96 112 0 0-96zm104 0l0-16 288 0 0 448-288 0 0-432zm16 0l0 416 120 0 0-80 16 0 0 80 120 0 0-416-120 0 0 80-16 0 0-80-120 0zM440 208l0 96-16 0 0-96 16 0z"/></svg>