<svg xmlns="http://www.w3.org/2000/svg" viewBox="0 0 320 512"><!--! Font Awesome Pro 7.0.0 by @fontawesome - https://fontawesome.com License - https://fontawesome.com/license (Commercial License) Copyright 2025 Fonticons, Inc. --><path fill="currentColor" d="M0 143.5C0 81.9 49.9 32 111.5 32l192.5 0 0 16-192.5 0c-52.8 0-95.5 42.8-95.5 95.5 0 47 34.2 87 80.6 94.4l129.2 20.4c54.2 8.6 94.1 55.3 94.1 110.2 0 61.6-49.9 111.5-111.5 111.5l-192.5 0 0-16 192.5 0c52.8 0 95.5-42.8 95.5-95.5 0-47-34.2-87-80.6-94.4L94.1 253.7C39.9 245.1 0 198.4 0 143.5z"/></svg>