<svg xmlns="http://www.w3.org/2000/svg" viewBox="0 0 512 512"><!--! Font Awesome Pro 7.0.0 by @fontawesome - https://fontawesome.com License - https://fontawesome.com/license (Commercial License) Copyright 2025 Fonticons, Inc. --><path fill="currentColor" d="M363.1 0L484.9 0c-2.2 4.3-9.4 18.8-21.8 43.6l-3.6 7.2-14.3-7.2c1.3-2.6 5.9-11.8 13.8-27.6l-70.1 0c7.9 15.8 12.5 25 13.8 27.6l-14.3 7.2c-.3-.6-6.8-13.7-19.6-39.2L363.1 0zM16 392l0 67.1c15.8-7.9 25-12.5 27.6-13.8l7.2 14.3c-.6 .3-13.7 6.8-39.2 19.6L0 484.9 0 363.1c4.3 2.2 18.8 9.4 43.6 21.8l7.2 3.6-7.2 14.3c-2.6-1.3-11.8-5.9-27.6-13.8l0 3.1zM424 80c-39.8 0-72 32.2-72 72 0 48.6-22.8 99-61.9 138.1S200.6 352 152 352c-39.8 0-72 32.2-72 72s32.2 72 72 72c92.8 0 178.4-42.5 239.9-104.1S496 244.8 496 152c0-39.8-32.2-72-72-72zm0-16c48.6 0 88 39.4 88 88 0 97.7-44.7 187.2-108.8 251.2S249.7 512 152 512c-48.6 0-88-39.4-88-88s39.4-88 88-88c43.7 0 90.2-20.6 126.8-57.2S336 195.7 336 152c0-48.6 39.4-88 88-88zM400 168c0 128.1-103.9 232-232 232l-8 0 0-16 8 0c119.3 0 216-96.7 216-216l0-8 16 0 0 8z"/></svg>