<svg xmlns="http://www.w3.org/2000/svg" viewBox="0 0 576 512"><!--! Font Awesome Pro 7.0.0 by @fontawesome - https://fontawesome.com License - https://fontawesome.com/license (Commercial License) Copyright 2025 Fonticons, Inc. --><path fill="currentColor" d="M112 272l0-16C50.1 256 0 205.9 0 144S50.1 32 112 32l256 0-2.3 16-29.7 208-48 0-32 224-144 0 0-208zm159.8-16l-143.8 0 0 208 114.1 0 29.7-208zM112 240l210.1 0 27.4-192-237.6 0c-53 0-96 43-96 96s43 96 96 96zM416 32l160 0 0 16-160 0 0-16zM576 80l0 16-160 0 0-16 160 0zm0 48l0 16-160 0 0-16 160 0zm0 64l0 16-160 0 0-16 160 0zM416 272l160 0 0 16-160 0 0-16zm160 48l0 16-160 0 0-16 160 0zM416 376l160 0 0 16-160 0 0-16zm160 88l0 16-160 0 0-16 160 0z"/></svg>