<svg xmlns="http://www.w3.org/2000/svg" viewBox="0 0 576 512"><!--! Font Awesome Pro 7.0.0 by @fontawesome - https://fontawesome.com License - https://fontawesome.com/license (Commercial License) Copyright 2025 Fonticons, Inc. --><path fill="currentColor" d="M288-2.5l5.2 4.3 149.8 126.1 133.1 0 0 384-576 0 0-384 133.1 0 149.8-126.1 5.2-4.3zM320 496l0-128-64 0 0 128 64 0zm16 0l224 0 0-352-122.9 0-2.2-1.9-146.8-123.7-146.8 123.7-2.2 1.9-122.9 0 0 352 224 0 0-144 96 0 0 144zM288 240a48 48 0 1 0 0-96 48 48 0 1 0 0 96zm0-112a64 64 0 1 1 0 128 64 64 0 1 1 0-128zM80 208l72 0 0 72-72 0 0-72zm16 16l0 40 40 0 0-40-40 0zM88 336l64 0 0 72-72 0 0-72 8 0zm8 56l40 0 0-40-40 0 0 40zM424 208l72 0 0 72-72 0 0-72zm16 16l0 40 40 0 0-40-40 0zm-8 112l64 0 0 72-72 0 0-72 8 0zm8 56l40 0 0-40-40 0 0 40z"/></svg>