<svg xmlns="http://www.w3.org/2000/svg" viewBox="0 0 512 512"><!--! Font Awesome Pro 7.0.0 by @fontawesome - https://fontawesome.com License - https://fontawesome.com/license (Commercial License) Copyright 2025 Fonticons, Inc. --><path fill="currentColor" d="M267.3 11.3L320 64 448 64 448 192 500.7 244.7 512 256c-.6 .6-22 22-64 64l0 128-128 0-52.7 52.7-11.3 11.3c-.6-.6-22-22-64-64L64 448 64 320 11.3 267.3 0 256 64 192 64 64 192 64C234 22 255.4 .6 256 0l11.3 11.3zM320 80l-6.6 0-4.7-4.7-52.7-52.7-52.7 52.7-4.7 4.7-118.6 0 0 118.6-4.7 4.7-52.7 52.7 52.7 52.7 4.7 4.7 0 118.6 118.6 0 4.7 4.7 52.7 52.7 52.7-52.7 4.7-4.7 118.6 0 0-118.6 4.7-4.7 52.7-52.7-52.7-52.7-4.7-4.7 0-118.6-112 0zm-56 72l0 152-16 0 0-152 16 0zM240 336l32 0 0 32-32 0 0-32z"/></svg>