<svg xmlns="http://www.w3.org/2000/svg" viewBox="0 0 640 512"><!--! Font Awesome Pro 7.0.0 by @fontawesome - https://fontawesome.com License - https://fontawesome.com/license (Commercial License) Copyright 2025 Fonticons, Inc. --><path fill="currentColor" d="M256.2-16l0 144-48 0c-97.2 0-176 78.8-176 176 0 128 128 176 128 176s-32-32-32-80c0-61.9 50.1-112 112-112l16 0 0 144 224-224-224-224zM48.2 304c0-88.4 71.6-160 160-160l64 0 0-121.4 185.4 185.4-185.4 185.4 0-121.4-32 0c-70.7 0-128 57.3-128 128 0 13.6 2.2 26 5.6 37-33-25.2-69.6-67.8-69.6-133zM410.5 20.3l187.7 187.7-187.7 187.7 11.3 11.3 193.4-193.4 5.7-5.7-5.7-5.7-193.4-193.4-11.3 11.3z"/></svg>