<svg xmlns="http://www.w3.org/2000/svg" viewBox="0 0 576 512"><!--! Font Awesome Pro 7.0.0 by @fontawesome - https://fontawesome.com License - https://fontawesome.com/license (Commercial License) Copyright 2025 Fonticons, Inc. --><path fill="currentColor" d="M448-11.3l5.7 5.7 96 96 5.7 5.7-5.7 5.7-44.1 44.1c-14.2 14.2-33.5 22.2-53.7 22.2-18.1 0-34.7-6.3-47.7-16.9l-142.5 142.5 79 79 11.3 11.3-11.3 11.3-107.5 107.5C206.8 529.2 171 544 133.7 544 59.9 544 0 484.1 0 410.3 0 373 14.8 337.2 41.2 310.8l107.5-107.5 11.3-11.3 11.3 11.3 79 79 142.5-142.5c-10.6-13-16.9-29.6-16.9-47.7 0-20.1 8-39.4 22.2-53.7l44.1-44.1 5.7-5.7zm0 22.6L409.5 49.8c-11.2 11.2-17.5 26.5-17.5 42.3 0 33.1 26.8 59.9 59.9 59.9 15.9 0 31.1-6.3 42.3-17.5L532.7 96 448 11.3zM52.5 322.1c-23.4 23.4-36.5 55.1-36.5 88.2 0 65 52.7 117.7 117.7 117.7 33.1 0 64.8-13.1 88.2-36.5L329.4 384 160 214.6 52.5 322.1z"/></svg>