<svg xmlns="http://www.w3.org/2000/svg" viewBox="0 0 640 512"><!--! Font Awesome Pro 7.0.0 by @fontawesome - https://fontawesome.com License - https://fontawesome.com/license (Commercial License) Copyright 2025 Fonticons, Inc. --><path fill="currentColor" d="M328 8l0-8-16 0 0 64-108.9 0-2.2 4.4C136.9 196.2 96 328.6 96 472l0 8 73.6 0 1.5-.6 140.9-59.3 0 92 16 0 0-92 140.9 59.3 1.5 .6 73.6 0 0-8c0-143.4-40.9-275.8-104.8-403.6L436.9 64 328 64 328 8zM312 80l0 89.9-154.7 42.2C172.6 167.4 191.4 123.5 213 80l99 0zM151.2 230.3l160.8-43.8 0 95.6-188.2 57.9c6.6-37.1 15.9-73.7 27.4-109.7zM120.9 357.6l191.1-58.8 0 103.9-145.6 61.3-54.3 0c.4-36.1 3.4-71.5 8.8-106.4zm207.1 45l0-103.9 191.1 58.8c5.4 34.9 8.4 70.3 8.8 106.4l-54.3 0-145.6-61.3zM516.2 340l-188.2-57.9 0-95.6 160.8 43.8c11.6 36 20.8 72.5 27.4 109.7zM482.7 212.1L328 169.9 328 80 427 80c21.5 43.5 40.3 87.4 55.7 132.1zM8 64l-8 0 0 448 16 0 0-298.9 43.6-20.1C96.4 176 120 139.1 120 98.6L120 64 8 64zm8 16l88 0 0 18.6c0 34.3-20 65.5-51.1 79.9L16 195.5 16 80zM632 64l-112 0 0 34.6c0 40.6 23.6 77.4 60.4 94.4l43.6 20.1 0 298.9 16 0 0-448-8 0zm-8 16l0 115.5-36.9-17C556 164.1 536 132.9 536 98.6l0-18.6 88 0z"/></svg>