<svg xmlns="http://www.w3.org/2000/svg" viewBox="0 0 512 512"><!--! Font Awesome Pro 7.0.0 by @fontawesome - https://fontawesome.com License - https://fontawesome.com/license (Commercial License) Copyright 2025 Fonticons, Inc. --><path fill="currentColor" d="M385.4 1.8l-1.6 7.8-54.8 266.3 147 85.1 4 2.3 0 132.6 32 0 0 16-512 0 0-51.6c0-8.8 .8-17.6 2.5-26.2l77.6-395.8 1.2-6.5 281.5 0 5.3-25.6 1.6-7.8 15.7 3.2zM233.4 48c-37.6 176.8-132.8 236-189 255.6L18.2 437.3c-1.5 7.6-2.2 15.3-2.2 23.1l0 35.6 448 0 0-123.4-146.2-84.6-93.8 0 0-16 89.5 0 16.5-80-73.9 0 0-16 77.2 0 26.4-128-126.2 0zM48.3 283.9C99.9 263 181.4 205.8 216 48L94.6 48 48.3 283.9z"/></svg>