<svg xmlns="http://www.w3.org/2000/svg" viewBox="0 0 576 512"><!--! Font Awesome Pro 7.0.0 by @fontawesome - https://fontawesome.com License - https://fontawesome.com/license (Commercial License) Copyright 2025 Fonticons, Inc. --><path fill="currentColor" d="M16 128c0 43.9 25.2 81.9 62 100.2-5.5 2.9-10.8 6.1-15.9 9.5-37.2-22.4-62.1-63.2-62.1-109.7 0-70.7 57.3-128 128-128 40.1 0 75.9 18.4 99.3 47.3 18.1-9.7 38.7-15.3 60.7-15.3 38.5 0 73 17 96.4 43.8-5.3 2-10.4 4.3-15.4 6.8-20.4-21.4-49.2-34.7-81-34.7-21.5 0-41.5 6-58.6 16.5-3.6 2.2-8.2 1.3-10.7-2.1-20.4-28.1-53.4-46.4-90.8-46.4-61.9 0-112 50.1-112 112zm432 0c-44 0-82.1 25.4-100.4 62.3-1.1 2.3-3.3 3.9-5.9 4.3s-5.1-.4-6.9-2.2c-20.2-20.1-48.1-32.4-78.8-32.4-38.1 0-71.7 19-92 48-1.3 0-2.7 0-4 0-5.1 0-10.2 .2-15.2 .7 22-38.6 63.6-64.7 111.2-64.7 31.3 0 60.1 11.3 82.3 30 22.4-37.1 63.1-62 109.7-62 70.7 0 128 57.3 128 128 0 37.3-16 70.9-41.4 94.3-3-4.4-6.3-8.7-9.8-12.7 21.7-20.4 35.3-49.4 35.3-81.6 0-61.9-50.1-112-112-112zM32 384c0-70.7 57.3-128 128-128 27.9 0 53.7 8.9 74.7 24 19.1-15 43.2-24 69.3-24 44.9 0 83.6 26.4 101.5 64.6 3.5-.4 7-.6 10.5-.6 53 0 96 43 96 96l0 96-480 0 0-128zM160 272C98.1 272 48 322.1 48 384l0 112 448 0 0-80c0-44.2-35.8-80-80-80-4.8 0-9.5 .4-14 1.2l-6.4 1.1-2.4-6c-14.2-35.4-48.8-60.3-89.2-60.3-24.5 0-46.8 9.2-63.8 24.2l-5 4.5-5.3-4.2C210.8 281.2 186.5 272 160 272z"/></svg>