<svg xmlns="http://www.w3.org/2000/svg" viewBox="0 0 576 512"><!--! Font Awesome Pro 7.0.0 by @fontawesome - https://fontawesome.com License - https://fontawesome.com/license (Commercial License) Copyright 2025 Fonticons, Inc. --><path fill="currentColor" d="M400 0l16 0 0 43c0 40.3 16 79 44.5 107.5l21 21C501 191 512 217.4 512 245l0 43-16 0 0-43c0-23.3-9.3-45.7-25.8-62.2l-21-21C417.7 130.3 400 87.5 400 43l0-43zM576 288l-16 0 0-43c0-40.3-16-79-44.5-107.5l-21-21C475 97 464 70.6 464 43l0-43 16 0 0 43c0 23.3 9.3 45.7 25.8 62.2l21 21C558.3 157.7 576 200.5 576 245l0 43zM16 368l0 128 288 0 0-128-288 0zM320 496l176 0 0-128-176 0 0 128zM0 352l512 0 0 160-512 0 0-160zm576 8l0 152-16 0 0-160 16 0 0 8z"/></svg>