<svg xmlns="http://www.w3.org/2000/svg" viewBox="0 0 640 512"><!--! Font Awesome Pro 7.0.0 by @fontawesome - https://fontawesome.com License - https://fontawesome.com/license (Commercial License) Copyright 2025 Fonticons, Inc. --><path fill="currentColor" d="M256 74.7c0 27.6 21 50.3 47.9 53l5.5 .3c14.7 0 28.6-6.1 38.6-16.6l4-4.8 32-42.7 48 0 80 208c70.7 0 128 57.3 128 128l0 80-224 0-352-208 144-240 48 0 0 42.7zM224 480l-192 0 0-16 192 0 0 16zM86 266.4l334.3 197.6 203.6 0 0-64c0-.4 0-.7 0-1.1l-175.8 0-328.1-189.4-34.2 56.9zM128 384l-96 0 0-16 96 0 0 16zm.4-188.2l324.1 187.1 170.2 0C614.4 329.2 568 288 512 288l-96 0 0-16 78.9 0-24.6-64-86.2 0 0-16 80.1 0-43.1-112-29 0-27.2 36.3c-11.5 15.3-28.6 25-47.3 27.2l-8.1 .5c-35.9 0-65.5-27.3-69-62.2l-.3-7.1 0-26.7-22.9 0-88.7 147.8z"/></svg>