<svg xmlns="http://www.w3.org/2000/svg" viewBox="0 0 512 512"><!--! Font Awesome Pro 7.0.0 by @fontawesome - https://fontawesome.com License - https://fontawesome.com/license (Commercial License) Copyright 2025 Fonticons, Inc. --><path fill="currentColor" d="M264.4-32l0 140.7 58.3-58.3 5.7-5.7 11.3 11.3-5.7 5.7-69.7 69.7 0 110.8 96-55.4 25.5-95.2 2.1-7.7 15.5 4.1-2.1 7.7-21.4 79.7 114.9-66.3 6.9-4 8 13.9-6.9 4-114.9 66.3 79.7 21.4 7.7 2.1-4.1 15.5-7.7-2.1-95.2-25.5-96 55.4 96 55.4 95.2-25.5 7.7-2.1 4.1 15.5-7.7 2.1-79.7 21.4 114.9 66.3 6.9 4-8 13.9-6.9-4-114.9-66.3 21.4 79.7 2.1 7.7-15.5 4.1-2.1-7.7-25.5-95.2-96-55.4 0 110.8 69.7 69.7 5.7 5.7-11.3 11.3-5.7-5.7-58.3-58.3 0 140.7-16 0 0-140.7-58.3 58.3-5.7 5.7-11.3-11.3 5.7-5.7 69.7-69.7 0-110.8-96 55.4-25.5 95.2-2.1 7.7-15.5-4.1 2.1-7.7 21.4-79.7-114.9 66.3-6.9 4-8-13.9 6.9-4 114.9-66.3-79.7-21.4-7.7-2.1 4.1-15.5 7.7 2.1 95.2 25.5 96-55.4-96-55.4-95.2 25.5-7.7 2.1-4.1-15.5 7.7-2.1 79.7-21.4-114.9-66.3-6.9-4 8-13.9 6.9 4 114.9 66.3-21.4-79.7-2.1-7.7 15.5-4.1 2.1 7.7 25.5 95.2 96 55.4 0-110.8-69.7-69.7-5.7-5.7 11.3-11.3 5.7 5.7 58.3 58.3 0-140.7 16 0z"/></svg>