<svg xmlns="http://www.w3.org/2000/svg" viewBox="0 0 448 512"><!--! Font Awesome Pro 7.0.0 by @fontawesome - https://fontawesome.com License - https://fontawesome.com/license (Commercial License) Copyright 2025 Fonticons, Inc. --><path fill="currentColor" d="M80 16l288 0 0 160 16 0 0-176-320 0 0 176 16 0 0-160zM368 224l5.9 0c26.4 32.9 42.1 74.6 42.1 120 0 61.8-29.2 116.9-74.7 152l-234.6 0C61.2 460.9 32 405.8 32 344 32 298.6 47.8 256.9 74.1 224L368 224zM8 208l-8 0 0 16 54.1 0c-24 33.9-38.1 75.3-38.1 120 0 69 33.6 130.2 85.3 168l245.3 0c51.7-37.8 85.3-99 85.3-168 0-44.7-14.1-86.1-38.1-120l54.1 0 0-16-440 0zM144 320a16 16 0 1 0 0-32 16 16 0 1 0 0 32zm176-16a16 16 0 1 0 -32 0 16 16 0 1 0 32 0zm-97.2 16c-25.9 0-46.8 21-46.8 46.8 0 7.3 1.7 14.4 4.9 20.9l35.9 71.8 7.2 14.3 43.1-86.1c3.3-6.5 4.9-13.7 4.9-20.9 0-25.9-21-46.8-46.8-46.8l-2.3 0zM192 366.8c0-17 13.8-30.8 30.8-30.8l2.3 0c17 0 30.8 13.8 30.8 30.8 0 4.8-1.1 9.5-3.3 13.8l-28.7 57.5-28.7-57.5c-2.1-4.3-3.3-9-3.3-13.8z"/></svg>