<svg xmlns="http://www.w3.org/2000/svg" viewBox="0 0 512 512"><!--! Font Awesome Pro 7.0.0 by @fontawesome - https://fontawesome.com License - https://fontawesome.com/license (Commercial License) Copyright 2025 Fonticons, Inc. --><path fill="currentColor" d="M51 237.8c7.8 11.9 12.1 25.7 12.4 39.8 .4 17-4.9 33.7-15.2 47.4l-32.2 43 0 96 16-1.2 144.8-11.1c30.3-2.3 60.4 6.9 84.2 25.9l43 34.4 96 0c-.4-3.4-3.2-28.7-8.4-75.9-4.7-42.2 13.3-83.8 47.3-109.3l73.2-54.9 0-80-74.4-27.9c-33.9-12.7-60.3-40.1-71.7-74.4L336 0 256 0 220.8 42.2c-27.7 33.2-71.1 49-113.7 41.2L16 66.9 0 64 0 160 51 237.8zM16 155.2l0-72.1 88.3 16.1c48.2 8.8 97.4-9.1 128.8-46.7l30.4-36.5 61 0 26.2 78.7c13 38.9 42.8 69.9 81.3 84.3l64 24 0 60.9-66.8 50.1c-38.5 28.9-58.9 76-53.6 123.8l6.5 58.1-72.5 0-38.7-30.9c-26.9-21.5-61-32-95.4-29.4l-143.6 11 0-73.4 29-38.7c12.4-16.5 18.9-36.7 18.4-57.3-.4-17.2-5.6-33.9-15-48.2L16 155.2z"/></svg>