<svg xmlns="http://www.w3.org/2000/svg" viewBox="0 0 512 512"><!--! Font Awesome Pro 7.0.0 by @fontawesome - https://fontawesome.com License - https://fontawesome.com/license (Commercial License) Copyright 2025 Fonticons, Inc. --><path fill="currentColor" d="M214 39.9C276.5 16.7 356.7 8.8 458.4 23.3l20.6 3.2 5.4 .9 1.1 5.3c18.6 90.3 18.9 221.9-42.5 322.1-30.8 50.3-77.1 92.5-144 117.3-66.7 24.8-153.5 32-265 13.4l-5.4-.9-1.1-5.4C8.8 389 8.6 257.3 70 157.1 100.8 106.9 147.1 64.7 214 39.9zM51.7 472c76.9 11.4 140.6 10 193.2-1-8.2-49.3-30.9-93.6-63.6-128.5L51.7 472zM192.7 331.1c34.8 37 59 84 67.9 136.2 11.5-2.9 22.5-6.3 32.9-10.2 38.3-14.2 69.3-34.4 94.3-58.6l-131.3-131.3-63.8 63.8zM43.3 267.8c-14.9 66.6-12.8 136.3-3 192.9L170.1 331.1c-34.5-32.3-78.2-54.9-126.7-63.3zM267.8 256L398.9 387.1c11.6-12.7 21.7-26.3 30.5-40.6 16.5-26.9 28.3-56.3 36.4-86.7-51.4-9.2-97.7-33.2-134.2-67.6L267.8 256zM114.1 124.9c-11.6 12.7-21.7 26.3-30.5 40.7-16.5 26.9-28.3 56.3-36.4 86.7 51.4 9.2 97.7 33.2 134.2 67.6L245.2 256 114.1 124.9zM252.3 44.7c-11.5 2.9-22.4 6.3-32.8 10.2-38.3 14.2-69.3 34.3-94.3 58.5l131.3 131.3 63.8-63.8c-34.8-37-59-83.9-67.9-136.2zm90.6 136.2c34.5 32.3 78.2 54.8 126.7 63.3 14.9-66.6 12.8-136.3 2.9-193L342.9 180.9zM461.2 40c-76.9-11.4-140.6-9.9-193.2 1.1 8.2 49.3 30.9 93.6 63.7 128.5L461.2 40z"/></svg>