<svg xmlns="http://www.w3.org/2000/svg" viewBox="0 0 448 512"><!--! Font Awesome Pro 7.0.0 by @fontawesome - https://fontawesome.com License - https://fontawesome.com/license (Commercial License) Copyright 2025 Fonticons, Inc. --><path fill="currentColor" d="M16 48l0 416 416 0 0-416-416 0zM0 32l448 0 0 448-448 0 0-448zm216 72l0 24.6c4-.4 8.1-.6 12.2-.6 6.7 0 13.3 .5 19.8 1.5l0-25.5 16 0 0 29.1c43.2 12.5 76.9 47.2 88.2 90.9l-16.6 0c-10.4-34.8-37.3-62.6-71.6-74.2l0 82.2-16 0 0-86.3c-6.4-1.1-13-1.7-19.8-1.7-4.1 0-8.2 .2-12.2 .7l0 87.3-16 0 0-84.4c-48.2 12.5-83.8 56.3-83.8 108.4 0 61.9 50.1 112 112 112l107.8 0 0 16-224 0 0-16 54.2 0c-39.4-21.8-66-63.8-66-112 0-61 42.7-112 99.8-124.9l0-27.1 16 0z"/></svg>