<svg xmlns="http://www.w3.org/2000/svg" viewBox="0 0 448 512"><!--! Font Awesome Pro 7.0.0 by @fontawesome - https://fontawesome.com License - https://fontawesome.com/license (Commercial License) Copyright 2025 Fonticons, Inc. --><path fill="currentColor" d="M16 48l0 416 416 0 0-416-416 0zM0 32l448 0 0 448-448 0 0-448zM104 144l64 0c35.3 0 64 28.7 64 64 0 28.8-19.1 53.2-45.3 61.2l28.7 71.8 3 7.4-14.9 5.9-3-7.4-30-75c-.9 0-1.7 .1-2.6 .1l-56 0 0 80-16 0 0-208 8 0zm64 112c26.5 0 48-21.5 48-48s-21.5-48-48-48l-56 0 0 96 56 0zm88-16l48 0c26.5 0 48 21.5 48 48s-21.5 48-48 48l-32 0 0 56-16 0 0-152zm16 80l32 0c17.7 0 32-14.3 32-32s-14.3-32-32-32l-32 0 0 64z"/></svg>