<svg xmlns="http://www.w3.org/2000/svg" viewBox="0 0 448 512"><!--! Font Awesome Pro 7.0.0 by @fontawesome - https://fontawesome.com License - https://fontawesome.com/license (Commercial License) Copyright 2025 Fonticons, Inc. --><path fill="currentColor" d="M16 48l0 416 416 0 0-416-416 0zM0 32l448 0 0 448-448 0 0-448zm138.5 93l4.3 6.8 81.2 128.5 81.2-128.5 4.3-6.8 13.5 8.5-4.3 6.8-83.3 131.7 68.5 0 0 16-72 0 0 48 72 0 0 16-72 0 0 48-16 0 0-48-72 0 0-16 72 0 0-48-72 0 0-16 68.5 0-83.3-131.7-4.3-6.8 13.5-8.5z"/></svg>