<svg xmlns="http://www.w3.org/2000/svg" viewBox="0 0 448 512"><!--! Font Awesome Pro 7.0.0 by @fontawesome - https://fontawesome.com License - https://fontawesome.com/license (Commercial License) Copyright 2025 Fonticons, Inc. --><path fill="currentColor" d="M16 48l0 416 416 0 0-416-416 0zM0 32l448 0 0 448-448 0 0-448zm227.8 96l4.8 0c17 0 33.5 5.8 46.8 16.4l21.7 17.3-10 12.5-21.7-17.3c-10.4-8.3-23.4-12.9-36.8-12.9l-4.8 0c-39 0-66 38.8-52.5 75.4l7.6 20.6 105.2 0 0 16-100.2 0c2.3 10.6 2.7 21.4 1.2 32l98.9 0 0 16-102.7 0c-2.8 8.5-7 16.7-12.4 24.2l-28.7 39.8 175.8 0 0 16-192 0 0-20.9 1.5-2.1 30.4-42.2c3.4-4.7 6.1-9.6 8.3-14.8l-40.2 0 0-16 44.9 0c1.8-10.5 1.4-21.5-1.5-32l-43.4 0 0-16 37.8 0-5.6-15.1c-17.3-47 17.5-96.9 67.6-96.9z"/></svg>