<svg xmlns="http://www.w3.org/2000/svg" viewBox="0 0 448 512"><!--! Font Awesome Pro 7.0.0 by @fontawesome - https://fontawesome.com License - https://fontawesome.com/license (Commercial License) Copyright 2025 Fonticons, Inc. --><path fill="currentColor" d="M432 48l0 416-416 0 0-416 416 0zM16 32l-16 0 0 448 448 0 0-448-432 0zm144 80l0 144c0 35.3 28.7 64 64 64s64-28.7 64-64l0-144-128 0zm16 16l96 0 0 128c0 26.5-21.5 48-48 48s-48-21.5-48-48l0-128zM112 232l0-8-16 0 0 32c0 68 53 123.6 120 127.8l0 32.2 16 0 0-32.2C299 379.6 352 324 352 256l0-32-16 0 0 32c0 61.9-50.1 112-112 112S112 317.9 112 256l0-24z"/></svg>