<svg xmlns="http://www.w3.org/2000/svg" viewBox="0 0 448 512"><!--! Font Awesome Pro 7.0.0 by @fontawesome - https://fontawesome.com License - https://fontawesome.com/license (Commercial License) Copyright 2025 Fonticons, Inc. --><path fill="currentColor" d="M432 48l0 416-416 0 0-416 416 0zM16 32l-16 0 0 448 448 0 0-448-432 0zm272.6 96l18.3 0 0 27.4 45.7 0 0 18.3-56 0c-19.6 0-35.4 15.9-35.4 35.4 0 17.3 12.5 32.1 29.6 34.9l35.3 5.9c25.9 4.3 44.9 26.7 44.9 53 0 29.7-24 53.7-53.7 53.7l-10.3 0 0 27.4-18.3 0 0-27.4-36.6 0 0-18.3 65.2 0c19.6 0 35.4-15.9 35.4-35.4 0-17.3-12.5-32.1-29.6-34.9l-35.3-5.9c-25.9-4.3-44.9-26.7-44.9-53 0-26.9 19.8-49.3 45.7-53.1l0-28zM131.1 155.4l22.4 0 2 6.4 59.6 192 2.7 8.7-17.5 5.4c-.2-.7-5.2-16.7-14.9-48l-83.6 0c-.9 0-1.7-.1-2.5-.3-9.8 31.6-14.8 47.7-15 48.4l-17.5-5.4 2.7-8.7 59.6-192 2-6.4zM104.9 301.7l74.8 0-37.4-120.6-37.4 120.6z"/></svg>