<svg xmlns="http://www.w3.org/2000/svg" viewBox="0 0 448 512"><!--! Font Awesome Pro 7.0.0 by @fontawesome - https://fontawesome.com License - https://fontawesome.com/license (Commercial License) Copyright 2025 Fonticons, Inc. --><path fill="currentColor" d="M16 48l0 416 416 0 0-416-416 0zM0 32l448 0 0 448-448 0 0-448zm239.6 82.5L235 128.3c15.4 1.1 30 5 43.5 11 7.9-23.7 12.1-36.2 12.5-37.5l15.2 5.1-2.5 7.6-10.8 32.5c13.7 8.4 25.6 19.4 35.2 32.2l-12.8 9.6c-7.7-10.2-17-19-27.7-26.1L219.2 367.8c2.1 .1 4.3 .2 6.4 .2 36.6 0 69.2-17.6 89.6-44.8l12.8 9.6c-23.3 31.1-60.5 51.2-102.4 51.2-3.9 0-7.8-.2-11.7-.5-4.9 14.6-7.8 23.5-8.9 26.6l-15.2-5.1c1.2-3.6 3.9-11.6 8-24.1-14.9-3.3-28.9-9.2-41.4-17.2l-12.9 38.8-2.5 7.6-15.2-5.1 2.5-7.6 14.6-43.7c-27.8-23.5-45.4-58.6-45.4-97.8 0-68.2 53.3-123.9 120.6-127.8 4.8-14.4 7.7-23.1 8.8-26.3l15.2 5.1-2.5 7.6zm33.8 40.1c-13.3-6.3-28.1-10-43.6-10.6l-68 204c12.2 8.5 26.2 14.6 41.2 17.7l70.4-211.1zm-60.7-9.9c-55.8 6.4-99.1 53.8-99.1 111.3 0 32 13.4 60.8 34.9 81.2l64.2-192.5z"/></svg>