<svg xmlns="http://www.w3.org/2000/svg" viewBox="0 0 448 512"><!--! Font Awesome Pro 7.0.0 by @fontawesome - https://fontawesome.com License - https://fontawesome.com/license (Commercial License) Copyright 2025 Fonticons, Inc. --><path fill="currentColor" d="M16 48l0 416 416 0 0-416-416 0zM0 32l448 0 0 448-448 0 0-448zm144 96l120 0 0 51.3c0 15.6-7.6 30.2-20.3 39.2l-37.5 26.4 69.6 72.5 45.9-58.4 4.9-6.3 12.6 9.9-4.9 6.3-47.3 60.2 52.7 54.9-22.2 0-40.5-42.2-30.7 39.1-2.4 3.1-131.9 0 0-54.8c0-23.4 11.4-45.3 30.5-58.8l39.3-27.7-22.2-23.1c-10-10.4-15.6-24.3-15.6-38.8l0-52.7zm51 105.3l39.4-27.8c8.5-6 13.5-15.7 13.5-26.1l0-35.3-88 0 0 36.7c0 10.3 4 20.2 11.1 27.7L195 233.3zm-2 21l-41.3 29.1C136.8 293.9 128 311 128 329.2l0 38.8 108.1 0 29.7-37.8-72.8-75.9z"/></svg>