<svg xmlns="http://www.w3.org/2000/svg" viewBox="0 0 448 512"><!--! Font Awesome Pro 7.0.0 by @fontawesome - https://fontawesome.com License - https://fontawesome.com/license (Commercial License) Copyright 2025 Fonticons, Inc. --><path fill="currentColor" d="M16 48l0 416 416 0 0-416-416 0zM0 32l448 0 0 448-448 0 0-448zm144 96l80 0c41.8 0 77.4 26.7 90.5 64l37.5 0 0 16-33.3 0c.9 5.2 1.3 10.5 1.3 16s-.5 10.8-1.3 16l33.3 0 0 16-37.5 0c-13.2 37.3-48.7 64-90.5 64l-64 0 0 56-16 0 0-120-32 0 0-16 32 0 0-32-32 0 0-16 32 0 0-64zm80 16l-64 0 0 48 137.3 0c-12.3-28.3-40.5-48-73.3-48zm-64 96l142.4 0c1-5.2 1.6-10.5 1.6-16s-.6-10.8-1.6-16l-142.4 0 0 32zm0 16l0 48 64 0c32.8 0 61-19.7 73.3-48L160 256z"/></svg>