<svg xmlns="http://www.w3.org/2000/svg" viewBox="0 0 448 512"><!--! Font Awesome Pro 7.0.0 by @fontawesome - https://fontawesome.com License - https://fontawesome.com/license (Commercial License) Copyright 2025 Fonticons, Inc. --><path fill="currentColor" d="M16 48l0 416 416 0 0-416-416 0zM0 32l448 0 0 448-448 0 0-448zM176 161.3l64.8 0c26.1 0 47.2 21.1 47.2 47.2 0 17.4-9.6 33.4-24.9 41.6L205.6 281c-18.2 9.7-29.6 28.7-29.6 49.4l0 5.7 112 0 0 16-128 0 0-21.7c0-26.5 14.6-50.9 38-63.5L255.5 236c10.1-5.4 16.5-16 16.5-27.5 0-17.2-14-31.2-31.2-31.2l-72.8 0 0-16 8 0z"/></svg>