<svg xmlns="http://www.w3.org/2000/svg" viewBox="0 0 576 512"><!--! Font Awesome Pro 7.0.0 by @fontawesome - https://fontawesome.com License - https://fontawesome.com/license (Commercial License) Copyright 2025 Fonticons, Inc. --><path fill="currentColor" d="M438 304.7l143.9-144.1-201.1-32-92.6-181.4-92.6 181.4-201.1 32 143.9 144.1-31.7 201.2 181.5-92.3 181.5 92.3-31.7-201.2zM288.2-17.6l82 160.7 178.2 28.3-127.5 127.7 28.1 178.2-160.8-81.8-160.8 81.8 28.1-178.2-127.5-127.7 178.2-28.3 82-160.7zm8 161.6l-16 0 0 152 16 0 0-152zm-24 184l0 32 32 0 0-32-32 0z"/></svg>