<svg xmlns="http://www.w3.org/2000/svg" viewBox="0 0 384 512"><!--! Font Awesome Pro 7.0.0 by @fontawesome - https://fontawesome.com License - https://fontawesome.com/license (Commercial License) Copyright 2025 Fonticons, Inc. --><path fill="currentColor" d="M80 16l0 80 288 0 0-80-288 0zM64 0l320 0 0 112-32 0 0 272-161.1 107.4C170.8 504.8 147.1 512 122.8 512 55 512 0 457 0 389.2l0-2.2c0-41.8 20.9-80.9 55.7-104.1L96 256 96 112 64 112 64 0zm48 112l0 152.6-7.1 4.7-40.3 26.9C34.2 316.4 16 350.5 16 386.9l0 2.2c0 59 47.8 106.8 106.8 106.8 21.1 0 41.7-6.2 59.3-17.9L336 375.4 336 112 112 112z"/></svg>