<svg xmlns="http://www.w3.org/2000/svg" viewBox="0 0 576 512"><!--! Font Awesome Pro 7.0.0 by @fontawesome - https://fontawesome.com License - https://fontawesome.com/license (Commercial License) Copyright 2025 Fonticons, Inc. --><path fill="currentColor" d="M-3 128l5.7-5.7 88-88 5.7-5.7 5.7 5.7 88 88 5.7 5.7-11.3 11.3-5.7-5.7-74.3-74.3 0 404.7 176 0 0-432 208 0 0 420.7 80-80 11.3 11.3-93.7 93.7-5.7 5.7-99.3-99.3 11.3-11.3 5.7 5.7 74.3 74.3 0-404.7-176 0 0 432-208 0 0-8 0-412.7-74.3 74.3-5.7 5.7-11.3-11.3z"/></svg>