<svg xmlns="http://www.w3.org/2000/svg" viewBox="0 0 640 512"><!--! Font Awesome Pro 7.0.0 by @fontawesome - https://fontawesome.com License - https://fontawesome.com/license (Commercial License) Copyright 2025 Fonticons, Inc. --><path fill="currentColor" d="M80.3 249.4l208 208 201.4-201.4-208-208-201.4 0 0 201.4zM288.3 32L501 244.7 512.3 256 501 267.3 299.6 468.7 288.3 480 277 468.7 64.3 256 64.3 32 288.3 32zM432.4 60.7l5.6 5.7 181.6 184 5.5 5.6-5.6 5.6-189.7 192-5.6 5.7-11.4-11.2 5.6-5.7 184.2-186.4-176-178.4-5.6-5.7 11.4-11.2zM176.3 112a32 32 0 1 1 0 64 32 32 0 1 1 0-64zm16 32a16 16 0 1 0 -32 0 16 16 0 1 0 32 0z"/></svg>