<svg xmlns="http://www.w3.org/2000/svg" viewBox="0 0 576 512"><!--! Font Awesome Pro 7.0.0 by @fontawesome - https://fontawesome.com License - https://fontawesome.com/license (Commercial License) Copyright 2025 Fonticons, Inc. --><path fill="currentColor" d="M21.7-21.6l-5.7-5.7-11.3 11.3 5.7 5.7 544.2 544 5.7 5.7 11.3-11.3-5.7-5.7-278.3-278.2 54.5-196.3 183.7 0-16 64 16.5 0 17.5-70.1 2.5-9.9-416.5 0-1.5 6.1-9.4 37.5-97.2-97.2zM132.1 88.8L142.3 48 325.5 48 274.6 231.3 132.1 88.8zM254.9 302.1l-45 161.9-81.9 0 0 16 192 0 0-16-93.5 0 41.4-148.9-13-13z"/></svg>