<svg xmlns="http://www.w3.org/2000/svg" viewBox="0 0 576 512"><!--! Font Awesome Pro 7.0.0 by @fontawesome - https://fontawesome.com License - https://fontawesome.com/license (Commercial License) Copyright 2025 Fonticons, Inc. --><path fill="currentColor" d="M0 64L0 208c26.5 0 48 21.5 48 48S26.5 304 0 304l0 144 576 0 0-144c-26.5 0-48-21.5-48-48s21.5-48 48-48L576 64 0 64zM64 256c0-29.8-20.4-54.9-48-62l0-114 544 0 0 114c-27.6 7.1-48 32.2-48 62s20.4 54.9 48 62l0 114-544 0 0-114c27.6-7.1 48-32.2 48-62zm80-80l288 0 0 160-288 0 0-160zm-16-16l0 192 320 0 0-192-320 0z"/></svg>