<svg xmlns="http://www.w3.org/2000/svg" viewBox="0 0 320 512"><!--! Font Awesome Pro 7.0.0 by @fontawesome - https://fontawesome.com License - https://fontawesome.com/license (Commercial License) Copyright 2025 Fonticons, Inc. --><path fill="currentColor" d="M304-16l0 544-288 0 0-544 288 0zM16-32l-16 0 0 576 320 0 0-576-304 0zM160 360c22.1 0 40 17.9 40 40s-17.9 40-40 40-40-17.9-40-40 17.9-40 40-40zm0-16c-30.9 0-56 25.1-56 56s25.1 56 56 56 56-25.1 56-56-25.1-56-56-56zm40-88a40 40 0 1 1 -80 0 40 40 0 1 1 80 0zm-96 0a56 56 0 1 0 112 0 56 56 0 1 0 -112 0zm56-104a40 40 0 1 1 0-80 40 40 0 1 1 0 80zm0-96a56 56 0 1 0 0 112 56 56 0 1 0 0-112zm0 40a16 16 0 1 0 0 32 16 16 0 1 0 0-32z"/></svg>