<svg xmlns="http://www.w3.org/2000/svg" viewBox="0 0 576 512"><!--! Font Awesome Pro 7.0.0 by @fontawesome - https://fontawesome.com License - https://fontawesome.com/license (Commercial License) Copyright 2025 Fonticons, Inc. --><path fill="currentColor" d="M21.7-21.6l-5.7-5.7-11.3 11.3 5.7 5.7 544.2 544 5.7 5.7 11.3-11.3-5.7-5.7-103-103 21.6-291.5-16 0-20.5 276.5-324.7-324.5 388.7 0 0-16-114.6 0-30-75-2-5-154.8 0-32 80-71.3 0-85.6-85.6zM134.9 496l-25.1-339.1-17.3-17.3 27.6 372.4 336 0 .6-8.2-14.9-14.9-.5 7.1-306.3 0zM354.6 0l25.6 64-184.4 0 25.6-64 133.2 0z"/></svg>