<svg xmlns="http://www.w3.org/2000/svg" viewBox="0 0 448 512"><!--! Font Awesome Pro 7.0.0 by @fontawesome - https://fontawesome.com License - https://fontawesome.com/license (Commercial License) Copyright 2025 Fonticons, Inc. --><path fill="currentColor" d="M152-16l-5.4 0-32 80-114.6 0 0 16 448 0 0-16-114.6 0-30-75-2-5-149.4 0zM316.2 64l-184.4 0 25.6-64 133.2 0 25.6 64zM32 128l0 384 384 0 0-384-16 0 0 368-352 0 0-368-16 0zm197.7 66.3l-5.7-5.7-5.7 5.7-72 72-5.7 5.7 11.3 11.3 5.7-5.7 58.3-58.3 0 164.7 16 0 0-164.7 58.3 58.3 5.7 5.7 11.3-11.3-5.7-5.7-72-72z"/></svg>