<svg xmlns="http://www.w3.org/2000/svg" viewBox="0 0 576 512"><!--! Font Awesome Pro 7.0.0 by @fontawesome - https://fontawesome.com License - https://fontawesome.com/license (Commercial License) Copyright 2025 Fonticons, Inc. --><path fill="currentColor" d="M296-24l0-8-16 0 0 30.6-1.1 2-254.1 463.4-8.8 16 544 0-8.8-16-121.8-222.2-11.8 11.8 115.4 210.4-490 0 245-446.7 97.5 177.9-63.2 63.2-.8 .8c-9.3-7-21-11.1-33.5-11.1-30.9 0-56 25.1-56 56s25.1 56 56 56 56-25.1 56-56c0-12.6-4.1-24.2-11.1-33.5l.8-.8 59.9-59.9 11.8-11.8 128.3-128.3 5.7-5.7-11.3-11.3-5.7 5.7-125 125-100.2-182.7-1.1-2 0-22.6zm-8 288a40 40 0 1 1 0 80 40 40 0 1 1 0-80z"/></svg>