<svg xmlns="http://www.w3.org/2000/svg" viewBox="0 0 576 512"><!--! Font Awesome Pro 7.0.0 by @fontawesome - https://fontawesome.com License - https://fontawesome.com/license (Commercial License) Copyright 2025 Fonticons, Inc. --><path fill="currentColor" d="M383.8 11.5c17.6-17.6 41.5-27.5 66.3-27.5 51.8 0 93.8 42 93.8 93.8 0 24.9-9.9 48.7-27.5 66.3L504 156.7 371.3 24 383.8 11.5zM360 35.3l132.7 132.7-68.7 68.7-132.7-132.7 2.3-2.3 40-40 0 0 26.3-26.3zM412.7 248L153.5 507.1c-13.4 13.4-31.5 20.9-50.3 20.9-39.3 0-71.2-31.9-71.2-71.2 0-18.9 7.5-37 20.9-50.3l65.2-65.2-11.3-11.3-65.2 65.2c-16.4 16.4-25.5 38.5-25.5 61.7 0 48.2 39 87.2 87.2 87.2 23.1 0 45.3-9.2 61.7-25.5l363-363C548.4 134.9 560 107 560 77.8 560 17.2 510.8-32 450.2-32 421-32 393.1-20.4 372.5 .2l-50.2 50.2 0 0-40 40 0 0-2.4 2.4c-38.7 38.7-89.1 63.5-143.3 70.6l-97.7 12.7-16.1 2.1 11.5 11.5 80 80 0 0 80 80 11.5 11.5 2.1-16.1 12.7-97.7c6.4-49 27.2-94.8 59.7-131.7L412.7 248zM240 144c-18.4 30.8-30.5 65.2-35.2 101.3l-10.6 81.5-68.5-68.5 0 0-68.5-68.5 81.5-10.6c36-4.7 70.5-16.8 101.3-35.2z"/></svg>