<svg xmlns="http://www.w3.org/2000/svg" viewBox="0 0 576 512"><!--! Font Awesome Pro 7.0.0 by @fontawesome - https://fontawesome.com License - https://fontawesome.com/license (Commercial License) Copyright 2025 Fonticons, Inc. --><path fill="currentColor" d="M368 112l0 128 189.7 0-71.1-128-118.6 0zM352 240l0-144 144 0 80 144 0 176-67.3 0c-10.4 36.9-44.4 64-84.7 64s-74.2-27.1-84.7-64l-102.6 0c-10.4 36.9-44.4 64-84.7 64s-74.2-27.1-84.7-64L0 416 0 240 352 240zm208 16l-544 0 0 144 48.4 0c-.2-2.6-.4-5.3-.4-8 0-48.6 39.4-88 88-88s88 39.4 88 88c0 2.7-.1 5.4-.4 8l96.7 0c-.2-2.6-.4-5.3-.4-8 0-48.6 39.4-88 88-88s88 39.4 88 88c0 2.7-.1 5.4-.4 8l48.4 0 0-144zM224 392a72 72 0 1 0 -144 0 72 72 0 1 0 144 0zm200 72a72 72 0 1 0 0-144 72 72 0 1 0 0 144z"/></svg>