<svg xmlns="http://www.w3.org/2000/svg" viewBox="0 0 576 512"><!--! Font Awesome Pro 7.0.0 by @fontawesome - https://fontawesome.com License - https://fontawesome.com/license (Commercial License) Copyright 2025 Fonticons, Inc. --><path fill="currentColor" d="M16 48l0 416 544 0 0-416-544 0zM0 32l576 0 0 448-576 0 0-448zM80 256a144 144 0 1 0 288 0 144 144 0 1 0 -288 0zM224 416a160 160 0 1 1 0-320 160 160 0 1 1 0 320zm0-144a16 16 0 1 0 0-32 16 16 0 1 0 0 32zm0-48a32 32 0 1 1 0 64 32 32 0 1 1 0-64zM480 120l0 178.2-1.1 1.9-56 96-4 6.9-13.8-8.1 4-6.9 54.9-94.1 0-181.8 16 0 0 8z"/></svg>