<svg xmlns="http://www.w3.org/2000/svg" viewBox="0 0 576 512"><!--! Font Awesome Pro 7.0.0 by @fontawesome - https://fontawesome.com License - https://fontawesome.com/license (Commercial License) Copyright 2025 Fonticons, Inc. --><path fill="currentColor" d="M560 48l0 368-544 0 0-368 544 0zM16 32l-16 0 0 400 576 0 0-400-560 0zM128 496l0 16 320 0 0-16-320 0zM320 112l0 116.3c-11.7-12.5-28.9-20.3-48-20.3-35.3 0-64 26.9-64 60s28.7 60 64 60c35.3 0 63.9-26.8 64-59.8l0-140.2 32 0 0-16-48 0zM272 224c27.5 0 48 20.7 48 44s-20.5 44-48 44-48-20.7-48-44 20.5-44 48-44z"/></svg>