<svg xmlns="http://www.w3.org/2000/svg" viewBox="0 0 512 512"><!--! Font Awesome Pro 7.0.0 by @fontawesome - https://fontawesome.com License - https://fontawesome.com/license (Commercial License) Copyright 2025 Fonticons, Inc. --><path fill="currentColor" d="M352 544l0-96-144 0C93.1 448 0 354.9 0 240 0 125.1 93.1 32 208 32l240 0 0 128-240 0c-44.2 0-80 35.8-80 80 0 44.2 35.8 80 80 80l144 0 0-96 160 160-160 160zm16-281.4l0 73.4-160 0c-51.4 0-93.3-40.3-95.9-91.1L112 240c0-53 43-96 96-96l224 0 0-96-224 0C102 48 16 134 16 240l.2 9.9C21.4 351.3 105.3 432 208 432l160 0 0 73.4 121.4-121.4-121.4-121.4z"/></svg>