<svg xmlns="http://www.w3.org/2000/svg" viewBox="0 0 576 512"><!--! Font Awesome Pro 7.0.0 by @fontawesome - https://fontawesome.com License - https://fontawesome.com/license (Commercial License) Copyright 2025 Fonticons, Inc. --><path fill="currentColor" d="M0 160l96 0 0 144c0 114.9 93.1 208 208 208s208-93.1 208-208l0-240-128 0 0 240c0 44.2-35.8 80-80 80s-80-35.8-80-80l0-144 96 0-160-160-160 160zm281.4-16l-73.4 0 0 160c0 51.4 40.3 93.3 91.1 95.9l4.9 .1c53 0 96-43 96-96l0-224 96 0 0 224c0 106-86 192-192 192l-9.9-.2C192.7 490.6 112 406.7 112 304L112 144 38.6 144 160 22.6 281.4 144z"/></svg>