<svg xmlns="http://www.w3.org/2000/svg" viewBox="0 0 384 512"><!--! Font Awesome Pro 7.0.0 by @fontawesome - https://fontawesome.com License - https://fontawesome.com/license (Commercial License) Copyright 2025 Fonticons, Inc. --><path fill="currentColor" d="M192-16C130.1-16 80 34.2 80 96l0 64 304 0 0 352-384 0 0-352 64 0 0-64C64 25.3 121.3-32 192-32S320 25.3 320 96l0 16-16 0 0-16c0-61.9-50.1-112-112-112zM64 176l0 0-48 0 0 320 352 0 0-320-288 0 0 0-16 0zM240 320l-96 0 0 32 96 0 0-32zm16-16l0 64-128 0 0-64 128 0z"/></svg>