<svg xmlns="http://www.w3.org/2000/svg" viewBox="0 0 640 512"><!--! Font Awesome Pro 7.0.0 by @fontawesome - https://fontawesome.com License - https://fontawesome.com/license (Commercial License) Copyright 2025 Fonticons, Inc. --><path fill="currentColor" d="M256.5 240a112 112 0 1 0 0-224 112 112 0 1 0 0 224zM108.3 320l-59.1 192-16.7 0 64-208 315.2 0-16 16-287.4 0zm20.2-192a128 128 0 1 1 256 0 128 128 0 1 1 -256 0zM351.4 455.6l-11.5 68.8 68.8-11.5 142.7-142.6-57.4-57.4-142.7 142.6zM601.8 319.9l-57.4-57.4-39.1 39.1 57.4 57.4 39.1-39.1zm-68.7-68.7l11.3-11.3 11.3 11.3 57.4 57.4 11.3 11.3-11.3 11.3-196.7 196.7c-63.3 10.6-95.3 15.9-96 16 .1-.7 5.4-32.7 16-96L533.1 251.2z"/></svg>