<svg xmlns="http://www.w3.org/2000/svg" viewBox="0 0 448 512"><!--! Font Awesome Pro 7.0.0 by @fontawesome - https://fontawesome.com License - https://fontawesome.com/license (Commercial License) Copyright 2025 Fonticons, Inc. --><path fill="currentColor" d="M336 144l0-16c0-24.1-7.6-46.4-20.5-64.6l-86.8 63.1-2.1 1.5-114.6 0 0 16c0 61.9 50.1 112 112 112s112-50.1 112-112zM224 16c-56.4 0-103.1 41.7-110.9 96l108.3 0 83.9-61C284.9 29.4 256 16 224 16zm0-16c70.7 0 128 57.3 128 128l0 16c0 70.7-57.3 128-128 128S96 214.7 96 144l0-16C96 57.3 153.3 0 224 0zm72 400.6l0-64.6-144 0 0 64.6c27.1 3.9 48 27.2 48 55.4 0 30.9-25.1 56-56 56s-56-25.1-56-56c0-28.2 20.9-51.6 48-55.4l0-64.6-60.5 0-58.7 176-16.9 0 64-192 320 0 64 192-16.9 0-58.7-176-60.5 0 0 64.6c27.1 3.9 48 27.2 48 55.4l0 48-16 0 0-48c0-22.1-17.9-40-40-40s-40 17.9-40 40l0 48-16 0 0-48c0-28.2 20.9-51.6 48-55.4zM184 456c0-22.1-17.9-40-40-40s-40 17.9-40 40 17.9 40 40 40 40-17.9 40-40z"/></svg>