<svg xmlns="http://www.w3.org/2000/svg" viewBox="0 0 576 512"><!--! Font Awesome Pro 7.0.0 by @fontawesome - https://fontawesome.com License - https://fontawesome.com/license (Commercial License) Copyright 2025 Fonticons, Inc. --><path fill="currentColor" d="M288 192a64 64 0 1 0 0-128 64 64 0 1 0 0 128zm0-144a80 80 0 1 1 0 160 80 80 0 1 1 0-160zM152 208c10.9 0 21.1-3.1 29.8-8.6 3 4.4 6.3 8.7 9.8 12.7-.5 .3-1 .7-1.6 1-5.3 1.9-10.4 4.3-15.2 7.1-7.2 2.4-14.9 3.7-22.8 3.7-39.8 0-72-32.2-72-72s32.2-72 72-72c5.7 0 11.2 .7 16.5 1.9-1.9 5-3.5 10.1-4.8 15.3-3.8-.8-7.7-1.2-11.7-1.2-30.9 0-56 25.1-56 56s25.1 56 56 56zm234 5.2c-.5-.3-1-.7-1.6-1 3.5-4 6.8-8.3 9.8-12.7 8.6 5.4 18.8 8.6 29.8 8.6 30.9 0 56-25.1 56-56s-25.1-56-56-56c-4 0-7.9 .4-11.7 1.2-1.3-5.2-2.9-10.4-4.8-15.3 5.3-1.2 10.9-1.9 16.5-1.9 39.8 0 72 32.2 72 72s-32.2 72-72 72c-8 0-15.7-1.3-22.8-3.7-4.8-2.8-9.9-5.2-15.2-7.1zM134.7 272l-6 16-54.2 0-41.1 96-17.4 0 48-112 70.7 0zm312.5 16l-6-16 70.7 0 48 112-17.4 0-41.1-96-54.2 0zM203.1 272l-42 112-17.1 0 48-128 192 0 48 128-17.1 0-42-112-169.8 0zM8 464l568 0 0 16-576 0 0-16 8 0z"/></svg>