<svg xmlns="http://www.w3.org/2000/svg" viewBox="0 0 640 512"><!--! Font Awesome Pro 7.0.0 by @fontawesome - https://fontawesome.com License - https://fontawesome.com/license (Commercial License) Copyright 2025 Fonticons, Inc. --><path fill="currentColor" d="M256 240a112 112 0 1 0 0-224 112 112 0 1 0 0 224zM107.8 320l-59.1 192-16.7 0 64-208 320 0 64 208-16.7 0-59.1-192-296.4 0zM128 128a128 128 0 1 1 256 0 128 128 0 1 1 -256 0zM552 280l-16 0 0-80-80 0 0-16 80 0 0-80 16 0 0 80 80 0 0 16-80 0 0 80z"/></svg>