<svg xmlns="http://www.w3.org/2000/svg" viewBox="0 0 448 512"><!--! Font Awesome Pro 7.0.0 by @fontawesome - https://fontawesome.com License - https://fontawesome.com/license (Commercial License) Copyright 2025 Fonticons, Inc. --><path fill="currentColor" d="M328 152l0-32c0-57.4-46.6-104-104-104S120 62.6 120 120l0 32c0 54.7 42.3 99.6 96 103.7l0-39.7 16 0 0 39.7c53.7-4.1 96-49 96-103.7zM224 0c66.3 0 120 53.7 120 120l0 5.6 46.7 70 1.3 2 0 58.4-108.1 0c-17.6 10.2-38.1 16-59.9 16s-42.3-5.8-59.9-16l-108.1 0 0-50.2 1.1-1.9 46.9-78.1 0-5.8C104 53.7 157.7 0 224 0zM104.1 156.7l-32.1 53.5 0 29.8 70.4 0c-22.6-20.9-37-50.4-38.3-83.3zM376 240l0-37.6-32-48c-.7 33.8-15.3 64.2-38.4 85.6l70.4 0zM224 151.1l43.6 21.8 7.2 3.6-7.2 14.3-43.6-21.8-43.6 21.8-7.2-14.3 7.2-3.6 43.6-21.8zM96 320l0-16 256 0 0 16 32 0 64 192-16.9 0-58.7-176-20.5 0 0 80-120 0 0 96-16 0 0-96-120 0 0-80-20.5 0-58.7 176-16.9 0 64-192 32 0zm16 80l224 0 0-80-224 0 0 80z"/></svg>