<svg xmlns="http://www.w3.org/2000/svg" viewBox="0 0 448 512"><!--! Font Awesome Pro 7.0.0 by @fontawesome - https://fontawesome.com License - https://fontawesome.com/license (Commercial License) Copyright 2025 Fonticons, Inc. --><path fill="currentColor" d="M90.1 128C101.5 63.9 157.5 16 224 16S346.5 63.9 357.9 128L90.1 128zm269.6 16l1.3 19.8c-61.6 15-107.7 69.6-109.9 135.3l-19.1 3.3 0-158.4 127.8 0zM216 302.4l-15.8-2.8-3.3-.6C194.7 233.3 148.6 178.8 87 163.8l1.3-19.8 127.8 0 0 158.4zm152.4-23.8L267.3 296.2c3.3-55.9 42.4-102.2 94.8-116.2l6.4 98.6zM180.7 296.1l-100.7-18 0-6.4 5.9-91.7c52.3 14 91.5 60.2 94.8 116.1zM224 0C157.4 0 100.4 42.9 80 103.3l0-87.3 24 0 0-16-40 0 0 271.2-1.3 20.7 134.7 23.5 25.2 4.5 0-.1 1.4 .2 161.3-28.1-9.7-149.7C370.5 62.2 304.1 0 224 0zm5.7 410.3l-5.7-5.7-5.7 5.7-88 88-5.7 5.7 11.3 11.3 5.7-5.7 82.3-82.3 88 88 11.3-11.3-93.7-93.7zM17.2 512l57.6-144 298.3 0 57.6 144 17.2 0-64-160-320 0-64 160 17.2 0z"/></svg>