<svg xmlns="http://www.w3.org/2000/svg" viewBox="0 0 448 512"><!--! Font Awesome Pro 7.0.0 by @fontawesome - https://fontawesome.com License - https://fontawesome.com/license (Commercial License) Copyright 2025 Fonticons, Inc. --><path fill="currentColor" d="M224-16l-80.7-26.9-15.3-5.1-3.2 15.8-25.6 128.2 0 0-51.2 0 0 16 48 0 0 32c0 70.7 57.3 128 128 128s128-57.3 128-128l0-32 48 0 0-16-51.2 0 0 0-25.6-128.2-3.2-15.8-15.3 5.1-80.7 26.9zm83.9-11.1l24.6 123.1-217 0 24.6-123.1 78.8 26.3 5.1 1.7 5.1-1.7 78.8-26.3zM112 112l224 0 0 32c0 61.9-50.1 112-112 112S112 205.9 112 144l0-32zm72 192l-8 0 0 33 2.8 2.4 34.8 30.2-28.5 45.6-57.1-95.2-64 0-64 192 16.9 0 58.7-176 43.4 0 91.3 152.2 13.7 22.9 13.7-22.9 91.3-152.2 43.4 0 58.7 176 16.9 0-64-192-64 0-57.1 95.2-28.5-45.6 34.8-30.2 2.8-2.4 0-33-88 0zm30.7 160.5l-20.3-33.9 29.7-47.5 29.7 47.5c-15.4 25.7-25.3 42.1-29.7 49.4l-9.3-15.5zM192 329.7l0-9.7 64 0 0 9.7-32 27.7-32-27.7z"/></svg>