<svg xmlns="http://www.w3.org/2000/svg" viewBox="0 0 448 512"><!--! Font Awesome Pro 7.0.0 by @fontawesome - https://fontawesome.com License - https://fontawesome.com/license (Commercial License) Copyright 2025 Fonticons, Inc. --><path fill="currentColor" d="M232 0l0 64 152 0 0 120 48 0 0 16-48 0 0 120-320 0 0-120-48 0 0-16 48 0 0-120 152 0 0-64 16 0zM80 80l0 224 288 0 0-224-288 0zM8 352l440 0 0 160-16 0 0-144-416 0 0 144-16 0 0-160 8 0zM196 176a28 28 0 1 0 -56 0 28 28 0 1 0 56 0zm-72 0a44 44 0 1 1 88 0 44 44 0 1 1 -88 0zm156 28a28 28 0 1 0 0-56 28 28 0 1 0 0 56zm0-72a44 44 0 1 1 0 88 44 44 0 1 1 0-88zM136 448l0 64-16 0 0-72 16 0 0 8zm96 0l0 64-16 0 0-72 16 0 0 8zm96 0l0 64-16 0 0-72 16 0 0 8z"/></svg>