<svg xmlns="http://www.w3.org/2000/svg" viewBox="0 0 576 512"><!--! Font Awesome Pro 7.0.0 by @fontawesome - https://fontawesome.com License - https://fontawesome.com/license (Commercial License) Copyright 2025 Fonticons, Inc. --><path fill="currentColor" d="M400 80l0 352-352 0 0-352 352 0zM48 64l-16 0 0 384 384 0 0-384-368 0zM464 341.3l96 64 16 10.7 0-320-16 10.7-96 64 0 19.2 96-64 0 260.2-96-64 0 19.2zM136 352l136 0 0-16-116.7 0 154.3-154.3 5.7-5.7-11.3-11.3-5.7 5.7-154.3 154.3 0-116.7-16 0 0 144 8 0z"/></svg>