<svg xmlns="http://www.w3.org/2000/svg" viewBox="0 0 512 512"><!--! Font Awesome Pro 7.0.0 by @fontawesome - https://fontawesome.com License - https://fontawesome.com/license (Commercial License) Copyright 2025 Fonticons, Inc. --><path fill="currentColor" d="M496 256a240 240 0 1 0 -480 0 240 240 0 1 0 480 0zM0 256a256 256 0 1 1 512 0 256 256 0 1 1 -512 0zM264 72l0 80 80 0 0-56 16 0 0 56 56 0 0 16-56 0 0 80 88 0 0 16-88 0 0 80 56 0 0 16-56 0 0 56-16 0 0-56-80 0 0 88-16 0 0-88-80 0 0 56-16 0 0-56-56 0 0-16 56 0 0-80-88 0 0-16 88 0 0-80-56 0 0-16 56 0 0-56 16 0 0 56 80 0 0-88 16 0 0 8zm-96 96l0 80 80 0 0-80-80 0zm0 96l0 80 80 0 0-80-80 0zm96 0l0 80 80 0 0-80-80 0zm0-16l80 0 0-80-80 0 0 80z"/></svg>