<svg xmlns="http://www.w3.org/2000/svg" viewBox="0 0 384 512"><!--! Font Awesome Pro 7.0.0 by @fontawesome - https://fontawesome.com License - https://fontawesome.com/license (Commercial License) Copyright 2025 Fonticons, Inc. --><path fill="currentColor" d="M80-24l0-8-16 0 0 96-64 0 0 226.1 1.1 1.8 30.9 54.2 0 165.9 320 0 0-165.9 30.9-54.2 1.1-1.8 0-226.1-304 0 0-88zM64 80l304 0 0 205.9-30.9 54.2-1.1 1.8 0 154.1-288 0 0-154.1-1.1-1.8-30.9-54.2 0-205.9 48 0zm40 96l0 16 176 0 0-16-176 0zm0 96l0 16 176 0 0-16-176 0zM176 32l16 0c8.8 0 16 7.2 16 16l16 0c0-17.7-14.3-32-32-32l-16 0c-17.7 0-32 14.3-32 32l16 0c0-8.8 7.2-16 16-16zM304 16l-16 0c-17.7 0-32 14.3-32 32l16 0c0-8.8 7.2-16 16-16l16 0c8.8 0 16 7.2 16 16l16 0c0-17.7-14.3-32-32-32z"/></svg>