<svg xmlns="http://www.w3.org/2000/svg" viewBox="0 0 512 512"><!--! Font Awesome Pro 7.0.0 by @fontawesome - https://fontawesome.com License - https://fontawesome.com/license (Commercial License) Copyright 2025 Fonticons, Inc. --><path fill="currentColor" d="M208 496c159.1 0 288-128.9 288-288 0-69.7-24.7-133.6-66-183.4L391 63.7c35.5 40.8 57 94 57 152.3 0 128.1-103.9 232-232 232-58.3 0-111.6-21.5-152.3-57L24.6 430c49.8 41.2 113.7 66 183.4 66zM75 379.6c37.8 32.6 87.1 52.4 141 52.4 119.3 0 216-96.7 216-216 0-53.9-19.7-103.2-52.4-141L75 379.6zM13.2 441.4c-4.1-3.4-8.1-7-12-10.6l11.3-11.3 407-407 11.3-11.3c3.6 3.9 7.2 7.9 10.6 12 44.1 52.8 70.6 120.7 70.6 194.8 0 167.9-136.1 304-304 304-74.1 0-142-26.5-194.8-70.6zM336 164.7c.7 .7 10.6 10.6 29.7 29.7l5.7 5.7-11.3 11.3c-.7-.7-10.6-10.6-29.7-29.7l-5.7-5.7 11.3-11.3zm-80 80c.7 .7 10.6 10.6 29.7 29.7l5.7 5.7-11.3 11.3c-.7-.7-10.6-10.6-29.7-29.7l-5.7-5.7 11.3-11.3zm88 8c.7 .7 10.6 10.6 29.7 29.7l5.7 5.7-11.3 11.3-35.3-35.3 11.3-11.3zm-168 72c.7 .7 10.6 10.6 29.7 29.7l5.7 5.7-11.3 11.3c-.7-.7-10.6-10.6-29.7-29.7l-5.7-5.7 11.3-11.3zm88 8l35.3 35.3-11.3 11.3-29.7-29.7-5.7-5.7 11.3-11.3z"/></svg>