<svg xmlns="http://www.w3.org/2000/svg" viewBox="0 0 576 512"><!--! Font Awesome Pro 7.0.0 by @fontawesome - https://fontawesome.com License - https://fontawesome.com/license (Commercial License) Copyright 2025 Fonticons, Inc. --><path fill="currentColor" d="M138.5 283.1l5.8 6.4c22.9 27.6 27.4 65.6 12.9 97.5 34.5-15.7 76.1-9.1 104 18.7l54.4 54.4c-3.4 3.4-7.9 7.9-13.5 13.5-36.2 36.2-94.9 36.2-131.1 0l-44.6-44.6-94.1 94.1-11.3-11.3 5.7-5.7 88.4-88.5-44.6-44.6c-36.2-36.2-36.2-94.9 0-131.1 5.6-5.6 10.1-10.1 13.5-13.5l54.4 54.4zm111.4 134c-27.4-27.3-70.8-30.1-101.3-6.3l-10.1 7.8 43.8 43.8c30 29.9 78.5 29.9 108.5 0l2.2-2.2-43.1-43.1zM81.8 253.5c-29.9 30-29.9 78.5 0 108.5l43.8 43.8 7.8-10c22.3-28.6 21.3-68.6-1.5-96l-4.8-5.3-43.1-43.1-2.2 2.2zm160.6-74.4l5.8 6.4c22.9 27.6 27.4 65.6 12.9 97.5 34.5-15.7 76.1-9.1 104 18.7l54.4 54.4c-3.4 3.4-7.9 7.9-13.5 13.5-36.2 36.2-94.9 36.2-131.1 0L174.5 269.3c-36.2-36.2-36.2-94.9 0-131.1 5.6-5.6 10.1-10.1 13.5-13.5l54.4 54.4zm111.4 134c-27.4-27.3-70.8-30.1-101.3-6.3l-10.1 7.8 43.8 43.8c30 29.9 78.5 29.9 108.5 0l2.2-2.2-43.1-43.1zm-168-163.6c-29.9 30-29.9 78.5 0 108.5l43.8 43.8 7.8-10c22.3-28.6 21.3-68.6-1.5-96l-4.8-5.3-43.1-43.1-2.2 2.2zM539.3 16L381.9 173.3c21.9-5.3 45.3-2.5 65.4 8.3l75.3-75.3 5.7-5.7 11.3 11.3-5.7 5.7-73 73c2.8 2.2 5.6 4.6 8.2 7.2l54.4 54.4c-3.4 3.4-7.9 7.9-13.5 13.5-36.2 36.2-94.9 36.2-131.1 0L278.5 165.3c-36.2-36.2-36.2-94.9 0-131.1 5.6-5.6 10.1-10.1 13.5-13.5l54.4 54.4 5.8 6.4c.5 .6 .9 1.2 1.3 1.8l73-72.9 5.7-5.7 11.3 11.3-5.7 5.7-75.3 75.3c10.6 19.9 13.5 42.9 8.5 64.6L528 4.7 539.3 16zM457.8 209.1c-27.4-27.3-70.8-30.1-101.3-6.3l-10.1 7.8 43.8 43.8c30 29.9 78.5 29.9 108.5 0l2.2-2.2-43.1-43.1zM289.8 45.5c-29.9 30-29.9 78.5 0 108.5l43.8 43.8 7.8-10c22.3-28.6 21.3-68.6-1.5-96l-4.8-5.3-43.1-43.1-2.2 2.2z"/></svg>