<svg xmlns="http://www.w3.org/2000/svg" viewBox="0 0 512 512"><!--! Font Awesome Pro 7.0.0 by @fontawesome - https://fontawesome.com License - https://fontawesome.com/license (Commercial License) Copyright 2025 Fonticons, Inc. --><path fill="currentColor" d="M300.9 167.9l.5 4.6 16.9 158-88.6-131.9-2.6-3.8-4.2-1.9-145.3-64.4 158.5-10.8 4.6-.3 3.7-2.7 128.4-93.6-69.9 142.7-2 4.1zM400.5 .8l15.1-30.8-27.7 20.2-152.9 111.5-188.8 12.9-34.2 2.3 31.4 13.9 173 76.7 105.5 157.1 19.1 28.5-3.6-34.1-20.1-188.2 83.3-169.9zM272.2 348l0 148-32 0 0-195.6-16-23.8 0 219.4-96 0 0 16 256 0 0-16-96 0 0-124.2-16-23.8zm-16-164a16 16 0 1 0 0-32 16 16 0 1 0 0 32z"/></svg>