<svg xmlns="http://www.w3.org/2000/svg" viewBox="0 0 320 512"><!--! Font Awesome Pro 7.0.0 by @fontawesome - https://fontawesome.com License - https://fontawesome.com/license (Commercial License) Copyright 2025 Fonticons, Inc. --><path fill="currentColor" d="M58.1 0l203.9 0 1.7 5.7 49.7 163.2c4.4 14.6 6.7 29.7 6.7 44.9 0 84.4-67.8 153-152 154.2l0 160 96 0 0 16-208 0 0-16 96 0 0-160c-84.2-1.2-152-69.8-152-154.2 0-15.2 2.3-30.4 6.7-44.9L56.3 5.7 58.1 0zM69.9 16L22 173.5c-4 13-6 26.6-6 40.2 0 76.3 61.9 138.2 138.2 138.2l11.5 0c76.3 0 138.2-61.9 138.2-138.2 0-13.6-2-27.2-6-40.2l-47.9-157.5-81.5 0 30.8 77 2.7 6.8-6.6 3.3-54.1 27 56.2 56.2 5.7 5.7-11.3 11.3-5.7-5.7-64-64-7.8-7.8 9.9-5 57.4-28.7-29.3-73.2-1.2-3-81.5 0z"/></svg>