<svg xmlns="http://www.w3.org/2000/svg" viewBox="0 0 576 512"><!--! Font Awesome Pro 7.0.0 by @fontawesome - https://fontawesome.com License - https://fontawesome.com/license (Commercial License) Copyright 2025 Fonticons, Inc. --><path fill="currentColor" d="M380.1 0C293.5 2.1 224 73 224 160 224 180.6 227.9 200.3 235 218.5-95.3 548.8 45.2 408.3 5.5 448l5.7 5.7 79.2 79.2 5.7 5.7 5.7-5.7c2.3-2.3 76.9-76.9 223.9-223.9 18.1 7.1 37.8 11 58.5 11 87 0 157.9-69.5 160-156-.7-29.3-8.9-56.7-22.7-80.5l-5.6 5.6-87 87-60.7 0 0-60.7 87-87 5.6-5.6C436.8 8.9 409.4 .7 380.1 0zM240 160c0-79.5 64.5-144 144-144 18.1 0 35.4 3.3 51.3 9.4l-80.9 80.9-2.3 2.3 0 83.3 83.3 0 2.3-2.3 80.9-80.9c6.1 15.9 9.4 33.2 9.4 51.3 0 79.5-64.5 144-144 144-20.3 0-39.7-4.2-57.2-11.8l-5-2.2-3.8 3.8-188.1 188.1-33.9 33.9-67.9-67.9 33.9-33.9 188.1-188 3.8-3.8-2.2-5C244.2 199.7 240 180.3 240 160z"/></svg>