<svg xmlns="http://www.w3.org/2000/svg" viewBox="0 0 512 512"><!--! Font Awesome Pro 7.0.0 by @fontawesome - https://fontawesome.com License - https://fontawesome.com/license (Commercial License) Copyright 2025 Fonticons, Inc. --><path fill="currentColor" d="M8 32l-8 0 0 16 32 0 0 416-32 0 0 16 512 0 0-16-32 0 0-416 32 0 0-16-504 0zM48 464l0-416 416 0 0 416-416 0zM264 120l0-8-16 0 0 48-96 0 0 16 96 0 0 72-112 0 0 16 112 0 0 72-96 0 0 16 96 0 0 48 16 0 0-48 96 0 0-16-96 0 0-72 112 0 0-16-112 0 0-72 96 0 0-16-96 0 0-40z"/></svg>