<svg xmlns="http://www.w3.org/2000/svg" viewBox="0 0 336 560"><!--! Font Awesome Pro 7.1.0 by @fontawesome - https://fontawesome.com License - https://fontawesome.com/license (Commercial License) Copyright 2025 Fonticons, Inc. --><path fill="currentColor" d="M89 0c12.5 0 24.8 4.5 34.4 13.1 15.2 13.6 53.1 48.3 93.9 92 40.4 43.3 85 97.1 112.3 148.7 4.4 8.4 6.4 17.5 6.4 26.3s-2 17.9-6.4 26.3c-27.2 51.6-71.9 105.4-112.3 148.7-40.7 43.7-78.7 78.4-93.9 92-9.6 8.6-21.9 13.1-34.4 13.1-35.4 0-59.6-33.7-51.7-66.4 10-41.7 25.7-121.5 25.7-213.6S47.3 108 37.3 66.4C29.4 33.7 53.6 0 89 0z"/></svg>