<svg xmlns="http://www.w3.org/2000/svg" viewBox="0 0 672 560"><!--! Font Awesome Pro 7.1.0 by @fontawesome - https://fontawesome.com License - https://fontawesome.com/license (Commercial License) Copyright 2025 Fonticons, Inc. --><path fill="currentColor" d="M63.2 399.2C57.7 373.9 56 343.6 56 308l0-56c0-35.6 1.7-65.9 7.2-91.2 5.5-25.6 15.2-47.8 32.5-65.1s39.5-27 65.1-32.5C186.1 57.7 216.4 56 252 56l126 0c35.6 0 65.9 1.7 91.2 7.2 25.6 5.5 47.8 15.2 65.1 32.5s27 39.5 32.5 65.1c5.5 25.3 7.2 55.7 7.2 91.2l0 56c0 35.6-1.7 65.9-7.2 91.2-5.5 25.6-15.2 47.8-32.5 65.1s-39.5 27-65.1 32.5c-25.3 5.5-55.7 7.2-91.2 7.2l-126 0c-35.6 0-65.9-1.7-91.2-7.2-25.6-5.5-47.8-15.2-65.1-32.5s-27-39.5-32.5-65.1zM672 224c0-15.5-12.5-28-28-28s-28 12.5-28 28l0 112c0 15.5 12.5 28 28 28s28-12.5 28-28l0-112z"/></svg>