<svg xmlns="http://www.w3.org/2000/svg" viewBox="0 0 672 560"><!--! Font Awesome Pro 7.1.0 by @fontawesome - https://fontawesome.com License - https://fontawesome.com/license (Commercial License) Copyright 2025 Fonticons, Inc. --><path fill="currentColor" d="M56 308c0 35.6 1.7 65.9 7.2 91.2 5.5 25.6 15.2 47.8 32.5 65.1s39.5 27 65.1 32.5c25.3 5.5 55.7 7.2 91.2 7.2l126 0c35.6 0 65.9-1.7 91.2-7.2 25.6-5.5 47.8-15.2 65.1-32.5s27-39.5 32.5-65.1c5.5-25.3 7.2-55.7 7.2-91.2l0-56c0-35.6-1.7-65.9-7.2-91.2-5.5-25.6-15.2-47.8-32.5-65.1s-39.5-27-65.1-32.5C443.9 57.7 413.6 56 378 56L252 56c-35.6 0-65.9 1.7-91.2 7.2-25.6 5.5-47.8 15.2-65.1 32.5s-27 39.5-32.5 65.1C57.7 186.1 56 216.4 56 252l0 56zm142.1-5.1c-12.6 8.9-30.1 5.9-39-6.7s-5.9-30.1 6.7-39L266.6 186c25.3-17.9 60.6-3.1 65.6 27.4l17 102 82.6-58.3c12.6-8.9 30.1-5.9 39 6.7s5.9 30.1-6.7 39L363.4 374c-25.3 17.9-60.6 3.1-65.6-27.4l-17-102-82.6 58.3zM644 196c15.5 0 28 12.5 28 28l0 112c0 15.5-12.5 28-28 28s-28-12.5-28-28l0-112c0-15.5 12.5-28 28-28z"/></svg>