<svg xmlns="http://www.w3.org/2000/svg" viewBox="0 0 504 560"><!--! Font Awesome Pro 7.1.0 by @fontawesome - https://fontawesome.com License - https://fontawesome.com/license (Commercial License) Copyright 2025 Fonticons, Inc. --><path fill="currentColor" d="M28 28C12.5 28 0 40.5 0 56S12.5 84 28 84l28 0 0 392-28 0c-15.5 0-28 12.5-28 28s12.5 28 28 28l364 0c31.7 0 60.3-10.2 81-31s31-49.4 31-81-10.2-60.3-31-81-49.4-31-81-31l-84 0c-15.5 0-28-12.5-28-28s12.5-28 28-28l28 0c31.7 0 60.3-10.2 81-31s31-49.3 31-81-10.2-60.3-31-81-49.4-31-81-31L28 28z"/></svg>