<svg xmlns="http://www.w3.org/2000/svg" viewBox="0 0 504 560"><!--! Font Awesome Pro 7.1.0 by @fontawesome - https://fontawesome.com License - https://fontawesome.com/license (Commercial License) Copyright 2025 Fonticons, Inc. --><path fill="currentColor" d="M84 84c0-15.5-12.5-28-28-28S28 68.5 28 84l0 94c0 39 23 74.4 58.6 90.2 14.1 6.3 30.7-.1 37-14.2s-.1-30.7-14.2-37C93.9 210.2 84 194.9 84 178l0-94zM.5 470.5c-3 15.2 6.8 29.9 22 32.9s29.9-6.8 32.9-22l19.5-97.4c3.8-19.1 17-33.4 34.4-41.2 14.1-6.3 20.5-22.8 14.2-37s-22.8-20.5-37-14.2C52.7 306.8 27.4 336.4 20 373.1L.5 470.5zM420 84c0-15.5 12.5-28 28-28s28 12.5 28 28l0 94c0 39-23 74.4-58.6 90.2-14.1 6.3-30.7-.1-37-14.2s.1-30.7 14.2-37c15.4-6.9 25.4-22.2 25.4-39l0-94zm83.5 386.5c3 15.2-6.8 29.9-22 32.9s-29.9-6.8-32.9-22l-19.5-97.4c-3.8-19.1-17-33.4-34.4-41.2-14.1-6.3-20.5-22.8-14.2-37s22.8-20.5 37-14.2c33.9 15.1 59.3 44.6 66.6 81.4l19.5 97.4zM191.3 12.5c-8.6-12.9-26-16.3-38.8-7.8s-16.3 26-7.8 38.8l17.2 25.8c-14.7 19.5-21.9 44-21.9 70.7 0 29.9 9.6 59.8 31.1 81.2-11.4 16.5-17.1 36.8-17.1 58.8 0 20.5 5 39.6 14.9 55.4-29.3 24-42.9 61.4-42.9 98.6 0 36 11.6 68.1 34.7 91.3S216 560 252 560 320.1 548.4 343.3 525.3 378 470 378 434c0-37.2-13.6-74.6-42.9-98.6 9.9-15.8 14.9-34.9 14.9-55.4 0-22-5.7-42.3-17.1-58.8 21.5-21.4 31.1-51.3 31.1-81.2 0-26.7-7.2-51.2-21.9-70.7l17.2-25.8c8.6-12.9 5.1-30.3-7.8-38.8s-30.3-5.1-38.8 7.8L297.1 35.9C283.3 30.6 268 28 252 28s-31.3 2.6-45.1 7.9L191.3 12.5z"/></svg>