<svg xmlns="http://www.w3.org/2000/svg" viewBox="0 0 672 560"><!--! Font Awesome Pro 7.1.0 by @fontawesome - https://fontawesome.com License - https://fontawesome.com/license (Commercial License) Copyright 2025 Fonticons, Inc. --><path fill="currentColor" d="M216.8 7.2C242.1 1.7 272.4 0 308 0l56 0c35.6 0 65.9 1.7 91.2 7.2 25.6 5.5 47.8 15.2 65.1 32.5s27 39.5 32.5 65.1c3.5 16.3 5.5 34.6 6.4 55.2 .7 14.4-10.2 26.6-24.5 27.9-41.8 3.8-109.4 8.2-198.7 8.2s-156.9-4.4-198.7-8.2c-14.3-1.3-25.2-13.5-24.5-27.9 1-20.5 2.9-38.9 6.4-55.2 5.5-25.6 15.2-47.8 32.5-65.1s39.5-27 65.1-32.5zM143 244.5c-16.6-1.4-31 11.6-31 28.2L112 392c0 27.6 5.4 75.5 9.4 107.4 4.4 35 34.3 60.6 69 60.6l17.3 0c29.7 0 58.5-19.3 65.3-51.4 2-9.5 4-20.8 5.4-33 9.4 .3 19.3 .5 29.6 .5l56 0c10.3 0 20.2-.1 29.6-.5 1.3 12.2 3.3 23.5 5.4 33 6.8 32.1 35.6 51.4 65.3 51.4l17.3 0c34.7 0 64.6-25.6 69-60.6 4-31.9 9.4-79.8 9.4-107.4l0-119.3c0-16.6-14.4-29.6-31-28.2-64.2 5.3-128.6 7.5-193 7.5-81.1 0-144.8-3.5-188.5-7.1l-4.6-.4zM210 350a42 42 0 1 1 84 0 42 42 0 1 1 -84 0zm210-42a42 42 0 1 1 0 84 42 42 0 1 1 0-84zM40.5 335.5c-15.2 3-29.9-6.8-32.9-22-4.8-24.8-7.5-50.3-7.5-75.5s2.7-50.7 7.5-75.5c3-15.2 17.8-25 32.9-22s25 17.8 22 33c-4.1 21.2-6.5 43-6.5 64.5s2.3 43.3 6.5 64.5c3 15.2-6.8 29.9-22 33zm624-22c-3 15.2-17.8 25-32.9 22s-25-17.8-22-33c4.1-21.2 6.5-42.9 6.5-64.5s-2.3-43.3-6.5-64.5c-3-15.2 6.8-29.9 22-33s29.9 6.8 32.9 22c4.8 24.8 7.5 50.3 7.5 75.5s-2.7 50.7-7.5 75.5z"/></svg>