<svg xmlns="http://www.w3.org/2000/svg" viewBox="0 0 504 560"><!--! Font Awesome Pro 7.1.0 by @fontawesome - https://fontawesome.com License - https://fontawesome.com/license (Commercial License) Copyright 2025 Fonticons, Inc. --><path fill="currentColor" d="M196 28c0-15.5-12.5-28-28-28s-28 12.5-28 28l0 30.1c-12.7 1.1-24.4 2.8-35.2 5.1-25.6 5.5-47.8 15.2-65.1 32.5s-27 39.5-32.5 65.1c-1.7 7.8-3 16.1-4.1 25-1.8 15 9.7 28 24.7 29.2 51 4 133.7 9.1 224.2 9.1s173.1-5.1 224.2-9.1c15-1.2 26.4-14.2 24.7-29.2-1-8.8-2.4-17.1-4.1-25-5.5-25.6-15.2-47.8-32.5-65.1s-39.5-27-65.1-32.5c-10.8-2.3-22.5-4-35.2-5.1L364 28c0-15.5-12.5-28-28-28s-28 12.5-28 28l0 28-112 0 0-28zM0 336c0 35.6 1.7 65.9 7.2 91.2 5.5 25.6 15.2 47.8 32.5 65.1s39.5 27 65.1 32.5c25.3 5.5 55.7 7.2 91.2 7.2l112 0c35.6 0 65.9-1.7 91.2-7.2 25.6-5.5 47.8-15.2 65.1-32.5s27-39.5 32.5-65.1c5.5-25.3 7.2-55.7 7.2-91.2l0-36.7c0-16.4-14.1-29.3-30.5-28.1-52.4 4-133.1 8.7-221.5 8.7s-169.2-4.7-221.5-8.7C14.1 270 0 282.9 0 299.3L0 336z"/></svg>