<svg xmlns="http://www.w3.org/2000/svg" viewBox="0 0 560 560"><!--! Font Awesome Pro 7.1.0 by @fontawesome - https://fontawesome.com License - https://fontawesome.com/license (Commercial License) Copyright 2025 Fonticons, Inc. --><path fill="currentColor" d="M280 0C197 0 126.4 26.5 76.5 76.5S0 197 0 280 26.5 433.6 76.5 483.5 197 560 280 560 433.6 533.5 483.5 483.5 560 363 560 280 533.5 126.4 483.5 76.5 363 0 280 0zM430.8 455.9C393.9 486.3 343.1 504 280 504s-113.9-17.7-150.8-48.1c-9.3-7.9-11.1-21.8-2.6-30.6 32.1-32.9 86.8-33.3 129.4-33.3l48 0c42.6 0 97.2 .4 129.4 33.3 8.6 8.8 6.7 22.7-2.6 30.6zm-221.9-303C226.5 135.2 251.3 126 280 126s53.5 9.2 71.2 26.9 26.8 42.5 26.8 71.1-9.2 53.5-26.8 71.2-42.5 26.8-71.2 26.8-53.5-9.2-71.1-26.8-26.9-42.5-26.9-71.2 9.2-53.5 26.9-71.1z"/></svg>