<svg xmlns="http://www.w3.org/2000/svg" viewBox="0 0 560 560"><!--! Font Awesome Pro 7.1.0 by @fontawesome - https://fontawesome.com License - https://fontawesome.com/license (Commercial License) Copyright 2025 Fonticons, Inc. --><path fill="currentColor" d="M280 0C197 0 126.4 26.5 76.5 76.5S0 197 0 280 26.5 433.6 76.5 483.5 197 560 280 560 433.6 533.5 483.5 483.5 560 363 560 280 533.5 126.4 483.5 76.5 363 0 280 0zM238 154a42 42 0 1 1 84 0 42 42 0 1 1 -84 0zm-14 70l28 0c30.9 0 56 25.1 56 56l0 112 28 0c15.5 0 28 12.5 28 28s-12.5 28-28 28l-112 0c-15.5 0-28-12.5-28-28s12.5-28 28-28l28 0 0-112-28 0c-15.5 0-28-12.5-28-28s12.5-28 28-28z"/></svg>