<svg xmlns="http://www.w3.org/2000/svg" viewBox="0 0 560 560"><!--! Font Awesome Pro 7.1.0 by @fontawesome - https://fontawesome.com License - https://fontawesome.com/license (Commercial License) Copyright 2025 Fonticons, Inc. --><path fill="currentColor" d="M146 330.7c-4.5-21.1-6-46.2-6-75.2l0-91c0-29 1.4-54.1 6-75.2 4.6-21.4 12.9-40.5 27.8-55.5S207.9 10.6 229.3 6c21.1-4.5 46.2-6 75.2-6l91 0c29 0 54.1 1.4 75.2 6 21.4 4.6 40.5 12.9 55.5 27.8S549.4 67.9 554 89.3c4.5 21.1 6 46.2 6 75.2l0 91c0 29-1.4 54.1-6 75.2-4.6 21.4-12.9 40.5-27.8 55.5s-34.1 23.2-55.5 27.8c-21.1 4.6-46.2 6-75.2 6l-91 0c-29 0-54.1-1.4-75.2-6-21.4-4.6-40.5-12.9-55.5-27.8s-23.2-34.1-27.8-55.5zM84 191.3c0-11-6.5-21.1-16.6-25.6s-21.9-2.7-30.1 4.7c-16.5 14.8-25.7 34.2-30.8 56.3-5 21.6-6.5 47.6-6.5 77.7l0 91c0 29 1.4 54.1 6 75.2 4.6 21.4 12.9 40.5 27.8 55.5S67.9 549.4 89.3 554c21.1 4.5 46.2 6 75.2 6l91 0c30.1 0 56.1-1.5 77.7-6.5 22.1-5.1 41.5-14.3 56.3-30.8 7.4-8.2 9.2-20 4.7-30.1S379.7 476 368.7 476l-64.2 0c-30.1 0-60-1.4-87-7.2-28-6-58.2-17.9-83.3-43s-36.9-55.3-43-83.3c-5.8-27-7.2-56.9-7.2-87l0-64.2z"/></svg>