<svg xmlns="http://www.w3.org/2000/svg" viewBox="0 0 504 560"><!--! Font Awesome Pro 7.1.0 by @fontawesome - https://fontawesome.com License - https://fontawesome.com/license (Commercial License) Copyright 2025 Fonticons, Inc. --><path fill="currentColor" d="M220.7 294l62.7 0-31.3-83.6-31.3 83.6zM0 336c0 35.6 1.7 65.9 7.2 91.2 5.5 25.6 15.2 47.8 32.5 65.1s39.5 27 65.1 32.5c25.3 5.5 55.7 7.2 91.2 7.2l112 0c35.6 0 65.9-1.7 91.2-7.2 25.6-5.5 47.8-15.2 65.1-32.5s27-39.5 32.5-65.1c5.5-25.3 7.2-55.7 7.2-91.2l0-112c0-35.6-1.7-65.9-7.2-91.2-5.5-25.6-15.2-47.8-32.5-65.1s-39.5-27-65.1-32.5C373.9 29.7 343.6 28 308 28L196 28c-35.6 0-65.9 1.7-91.2 7.2-25.6 5.5-47.8 15.2-65.1 32.5s-27 39.5-32.5 65.1C1.7 158.1 0 188.4 0 224L0 336zm199.7 14l-6.2 16.5c9.7 4.4 16.5 14.2 16.5 25.5 0 15.5-12.5 28-28 28l-56 0c-15.5 0-28-12.5-28-28s12.5-28 28-28l8.6 0 72.3-192.7c7.1-18.8 25-31.3 45.1-31.3s38.1 12.5 45.1 31.3l72.3 192.7 8.6 0c15.5 0 28 12.5 28 28s-12.5 28-28 28l-56 0c-15.5 0-28-12.5-28-28 0-11.4 6.8-21.2 16.5-25.5l-6.2-16.5-104.7 0z"/></svg>