<svg xmlns="http://www.w3.org/2000/svg" viewBox="0 0 560 560"><!--! Font Awesome Pro 7.1.0 by @fontawesome - https://fontawesome.com License - https://fontawesome.com/license (Commercial License) Copyright 2025 Fonticons, Inc. --><path fill="currentColor" d="M76.5 76.5C126.4 26.5 197 0 280 0S433.6 26.5 483.5 76.5 560 197 560 280 533.5 433.6 483.5 483.5c-4.4 4.4-11.8 1.8-13.2-4.3-7.9-35.1-24.1-65.6-48-89.6-29.4-29.4-68.8-47.1-114.3-52.2L308 224c0-15.5-12.5-28-28-28s-28 12.5-28 28l0 113.5c-45.5 5.1-84.9 22.7-114.3 52.2-24 24-40.1 54.5-48 89.6-1.4 6.1-8.8 8.7-13.2 4.3-49.9-49.9-76.5-120.5-76.5-203.5S26.5 126.4 76.5 76.5zM280 140a28 28 0 1 0 0-56 28 28 0 1 0 0 56zm154 14a28 28 0 1 0 -56 0 28 28 0 1 0 56 0zM112 294a28 28 0 1 0 0-56 28 28 0 1 0 0 56zm70-140a28 28 0 1 0 -56 0 28 28 0 1 0 56 0zM448 294a28 28 0 1 0 0-56 28 28 0 1 0 0 56zM280 392c-45.3 0-79.7 14.3-102.7 37.3-19.4 19.4-32.7 47-36.3 82.4-1.1 10.7 5 20.7 14.9 24.8 36.7 15.5 78.5 23.4 124.1 23.4s87.4-8 124.1-23.4c9.9-4.2 16-14.2 14.9-24.8-3.6-35.4-16.9-63-36.3-82.4-23-23-57.4-37.3-102.7-37.3z"/></svg>