<svg xmlns="http://www.w3.org/2000/svg" viewBox="0 0 504 560"><!--! Font Awesome Pro 7.1.0 by @fontawesome - https://fontawesome.com License - https://fontawesome.com/license (Commercial License) Copyright 2025 Fonticons, Inc. --><path fill="currentColor" d="M96.8 149.2c-8.3-15.1-12.4-32.6-12.4-51.2 0-6.2 .5-12.3 1.4-18.3 3.6-23.3 14.5-43.9 32.2-58.4 17.7-14.4 40.2-21.3 64.4-21.3 27 0 51.8 8.6 70 26.3 18.2-17.8 43-26.3 70-26.3 27.4 0 52.5 8.8 70.8 27.2S420.4 70.6 420.4 98c0 18.6-4.1 36.1-12.4 51.2 22.1 5.8 41.3 15.2 56.7 30.5 17.3 17.3 27 39.5 32.5 65.1 2.3 10.5 3.9 22 5 34.3 1.4 15.8-11.4 28.9-27.2 28.9l-166.6 0c-15.5 0-28-12.5-28-28l0-56c0-15.5-12.5-28-28-28s-28 12.5-28 28l0 56c0 15.5-12.5 28-28 28L29.8 308c-15.8 0-28.7-13.1-27.2-28.9 1.1-12.3 2.8-23.8 5-34.3 5.5-25.6 15.2-47.8 32.5-65.1 15.4-15.4 34.6-24.7 56.7-30.5zM291.2 66.8c-6 6-10.8 15.9-10.8 31.2l0 42 42 0c15.4 0 25.3-4.8 31.2-10.8s10.8-15.9 10.8-31.2-4.8-25.3-10.8-31.2-15.9-10.8-31.2-10.8-25.3 4.8-31.2 10.8zM224.4 140l0-42c0-15.4-4.8-25.3-10.8-31.2S197.8 56 182.4 56c-13.7 0-23 3.8-29 8.7-5.9 4.8-10.6 12.3-12.3 23.6-.5 3-.7 6.2-.7 9.7 0 15.4 4.8 25.3 10.8 31.2S167.1 140 182.4 140l42 0zM29.8 364c-15.8 0-28.7 13.1-27.2 28.9 1.1 12.3 2.8 23.8 5 34.3 5.5 25.6 15.2 47.8 32.5 65.1s39.5 27 65.1 32.5c25.3 5.5 55.7 7.2 91.2 7.2 15.5 0 28-12.5 28-28l0-112c0-15.5-12.5-28-28-28L29.8 364zM280.4 504c0 15.5 12.5 28 28 28 35.6 0 65.9-1.7 91.2-7.2 25.6-5.5 47.8-15.2 65.1-32.5s27-39.5 32.5-65.1c2.3-10.5 3.9-22 5-34.3 1.4-15.8-11.4-28.9-27.2-28.9l-166.6 0c-15.5 0-28 12.5-28 28l0 112z"/></svg>