<svg xmlns="http://www.w3.org/2000/svg" viewBox="0 0 560 560"><!--! Font Awesome Pro 7.1.0 by @fontawesome - https://fontawesome.com License - https://fontawesome.com/license (Commercial License) Copyright 2025 Fonticons, Inc. --><path fill="currentColor" d="M280 87.2C308.8 47 357.4 28 406 28 450.5 28 489.6 42.3 517.7 70.3S560 137.5 560 182c0 82.1-40.3 154.4-85.3 209.9-45.3 55.8-97.7 97.5-127.2 119-20.2 14.7-44 21.1-67.4 21.1s-47.2-6.5-67.4-21.1C183 489.4 130.6 447.7 85.3 391.9 40.3 336.4 0 264.1 0 182 0 137.5 14.3 98.4 42.3 70.3S109.5 28 154 28c48.6 0 97.2 19 126 59.2z"/></svg>