<svg xmlns="http://www.w3.org/2000/svg" viewBox="0 0 504 560"><!--! Font Awesome Pro 7.1.0 by @fontawesome - https://fontawesome.com License - https://fontawesome.com/license (Commercial License) Copyright 2025 Fonticons, Inc. --><path fill="currentColor" d="M40.5 110.2C53 61.1 97.5 28 147.4 28l209.3 0c49.9 0 94.3 33.1 106.9 82.2 11.7 46 22 92.3 30.1 139.1 1.9 11.1-5.9 21.5-17.1 22.7-26.9 3-62.9 6.3-99.4 7.5-25.6 .8-50.3 12.8-66.3 34.1-8.1 10.8-15.6 22.4-30.8 22.4l-56 0c-15.2 0-22.7-11.6-30.8-22.4-15.9-21.3-40.7-33.2-66.3-34.1-37.2-1.2-75-4.5-103.6-7.5-8.9-.9-15.2-9.2-13.7-18.1 8.2-48.3 18.8-96.3 30.9-143.7zM17.4 327.7C8.3 326.7 0 333.6 0 342.8l0 .2c0 33.8 1.7 63 7.2 87.4 5.6 24.8 15.4 46.4 32.8 63.1 17.3 16.7 39.4 26 64.8 31.4 25.2 5.3 55.5 7.1 91.1 7.1l112 0c35.6 0 65.9-1.7 91.1-7.1 25.5-5.4 47.6-14.8 64.8-31.4 17.4-16.7 27.2-38.3 32.8-63.1 5.5-24.4 7.2-53.6 7.2-87.4 0-9.6-8.7-16.8-18.3-15.7-1 .1-2 .2-3 .3-27.8 3.1-65.3 6.6-103.8 7.8-9.6 .3-18.1 4.8-23.3 11.7-19 25.3-42 44.8-75.6 44.8l-56 0c-33.6 0-56.6-19.5-75.6-44.8-5.2-6.9-13.7-11.4-23.3-11.7-39.1-1.2-78.4-4.7-107.7-7.8z"/></svg>