<svg xmlns="http://www.w3.org/2000/svg" viewBox="0 0 616 560"><!--! Font Awesome Pro 7.1.0 by @fontawesome - https://fontawesome.com License - https://fontawesome.com/license (Commercial License) Copyright 2025 Fonticons, Inc. --><path fill="currentColor" d="M56 280l0-56c0-35.6 1.7-65.9 7.2-91.2 5.5-25.6 15.2-47.8 32.5-65.1s39.5-27 65.1-32.5C186.1 29.7 216.4 28 252 28l112 0c35.6 0 65.9 1.7 91.2 7.2 25.6 5.5 47.8 15.2 65.1 32.5s27 39.5 32.5 65.1c5.5 25.3 7.2 55.7 7.2 91.2l0 56c0 15.3-12.7 28-28 28L84 308c-15.3 0-28-12.7-28-28zM0 440c0 23.7 13.7 48.8 41.5 56.2 34.6 9.2 110.2 21.8 266.5 21.8s231.9-12.6 266.5-21.8c27.8-7.4 41.5-32.5 41.5-56.2s-5-48.2-27.5-62.9c-19.1-12.6-43.7-13.1-65.8-13.1L93.3 364C71.2 364 46.7 364.5 27.5 377.1 5 391.8 0 416.3 0 440z"/></svg>