<svg xmlns="http://www.w3.org/2000/svg" viewBox="0 0 560 560"><!--! Font Awesome Pro 7.1.0 by @fontawesome - https://fontawesome.com License - https://fontawesome.com/license (Commercial License) Copyright 2025 Fonticons, Inc. --><path fill="currentColor" d="M7.2 399.2C1.7 373.9 0 343.6 0 308l0-56c0-35.6 1.7-65.9 7.2-91.2 5.5-25.6 15.2-47.8 32.5-65.1s39.5-27 65.1-32.5C130.1 57.7 160.4 56 196 56l168 0c35.6 0 65.9 1.7 91.2 7.2 25.6 5.5 47.8 15.2 65.1 32.5s27 39.5 32.5 65.1c5.5 25.3 7.2 55.7 7.2 91.2l0 56c0 35.6-1.7 65.9-7.2 91.2-5.5 25.6-15.2 47.8-32.5 65.1s-39.5 27-65.1 32.5c-25.3 5.5-55.7 7.2-91.2 7.2l-168 0c-35.6 0-65.9-1.7-91.2-7.2-25.6-5.5-47.8-15.2-65.1-32.5s-27-39.5-32.5-65.1zM280 168c-23.4 0-44.7 10.4-58.8 32.2-7.1 11.1-12 24.3-14.8 39.5-1.3 7-7.2 12.3-14.3 12.3L112 252c-15.5 0-28 12.5-28 28s12.5 28 28 28l80.1 0c7.1 0 13 5.3 14.3 12.3 2.9 15.2 7.7 28.5 14.8 39.5 14.1 21.8 35.4 32.2 58.8 32.2s44.7-10.4 58.8-32.2c7.1-11 12-24.3 14.8-39.5 1.3-7 7.2-12.3 14.3-12.3l80.1 0c15.5 0 28-12.5 28-28s-12.5-28-28-28l-80.1 0c-7.1 0-13-5.3-14.3-12.3-2.9-15.2-7.7-28.5-14.8-39.5-14.1-21.8-35.4-32.2-58.8-32.2z"/></svg>