<svg xmlns="http://www.w3.org/2000/svg" viewBox="0 0 504 560"><!--! Font Awesome Pro 7.1.0 by @fontawesome - https://fontawesome.com License - https://fontawesome.com/license (Commercial License) Copyright 2025 Fonticons, Inc. --><path fill="currentColor" d="M228.9 553.8C201.7 543.5 144.2 515.7 93.5 451.8 42.5 387.6 0 288.9 0 140 0 113.8 12.5 87.4 36.9 72.7 86.7 42.4 139.7 24.4 179.7 13.9 202.5 8 227.9 0 252 0s49.5 8 72.3 13.9c40 10.5 92.9 28.5 142.8 58.7 24.3 14.8 36.9 41.1 36.9 67.3 0 148.9-42.5 247.6-93.5 311.8-50.7 63.9-108.2 91.7-135.4 102-15 5.7-31.2 5.7-46.2 0z"/></svg>