<svg xmlns="http://www.w3.org/2000/svg" viewBox="0 0 560 560"><!--! Font Awesome Pro 7.1.0 by @fontawesome - https://fontawesome.com License - https://fontawesome.com/license (Commercial License) Copyright 2025 Fonticons, Inc. --><path fill="currentColor" d="M56 28C25.1 28 0 53.1 0 84l0 63.8c0 24.1 15.4 45.5 38.3 53.1L84 216.2 84 360c0 30.6 1.5 56.9 6.3 79 4.8 22.4 13.4 42.2 28.9 57.8s35.4 24.1 57.8 28.9c22.1 4.8 48.5 6.3 79 6.3l48 0c30.6 0 56.9-1.5 79-6.3 22.4-4.8 42.2-13.4 57.8-28.9s24.1-35.4 28.9-57.8c4.8-22.1 6.3-48.5 6.3-79l0-143.8 45.7-15.2c22.9-7.6 38.3-29 38.3-53.1L560 84c0-30.9-25.1-56-56-56L377.3 28c-14.3 0-26.3 10.8-27.8 25-2.1 19.8-9.9 34-20.6 43.2-10.8 9.4-26.8 15.7-48.9 15.7s-38.1-6.4-48.9-15.7C220.4 87 212.7 72.8 210.6 53 209 38.8 197 28 182.7 28L56 28z"/></svg>