<svg xmlns="http://www.w3.org/2000/svg" viewBox="0 0 560 560"><!--! Font Awesome Pro 7.1.0 by @fontawesome - https://fontawesome.com License - https://fontawesome.com/license (Commercial License) Copyright 2025 Fonticons, Inc. --><path fill="currentColor" d="M270.4 66c-5.3-6.3-13.2-10-21.4-10l-53 0c-35.6 0-65.9 1.7-91.2 7.2-25.6 5.5-47.8 15.2-65.1 32.5s-27 39.5-32.5 65.1C1.7 186.1 0 216.4 0 252l0 56c0 35.6 1.7 65.9 7.2 91.2 5.5 25.6 15.2 47.8 32.5 65.1s39.5 27 65.1 32.5c25.3 5.5 55.7 7.2 91.2 7.2l53 0c8.3 0 16.1-3.6 21.4-10s7.6-14.7 6.2-22.8C271.3 440.7 266 384.8 266 280s5.3-160.7 10.6-191.2c1.4-8.1-.9-16.5-6.2-22.8zM560 308c0 34.1-1.6 63.3-6.5 87.9-4.9 24.7-13.6 46.5-29 63.9-30.9 34.9-80.5 42.8-142.6 44-22 .4-44.9-13.4-49.7-39.5-4.6-24.9-10.2-77.1-10.2-184.3s5.6-159.4 10.2-184.3c4.8-26.1 27.7-39.9 49.7-39.5 62.1 1.2 111.7 9.1 142.6 44 15.4 17.4 24 39.2 29 63.9 4.9 24.6 6.5 53.8 6.5 87.9l0 56z"/></svg>