<svg xmlns="http://www.w3.org/2000/svg" viewBox="0 0 616 560"><!--! Font Awesome Pro 7.1.0 by @fontawesome - https://fontawesome.com License - https://fontawesome.com/license (Commercial License) Copyright 2025 Fonticons, Inc. --><path fill="currentColor" d="M560 56c-30.9 0-56 25.1-56 56l0 364c0 15.5 12.5 28 28 28l28 0c30.9 0 56-25.1 56-56l0-336c0-30.9-25.1-56-56-56zM336 196c0-30.9 25.1-56 56-56l28 0c15.5 0 28 12.5 28 28l0 308c0 15.5-12.5 28-28 28l-56 0c-15.5 0-28-12.5-28-28l0-280zM224 224c-30.9 0-56 25.1-56 56l0 196c0 15.5 12.5 28 28 28l56 0c15.5 0 28-12.5 28-28l0-224c0-15.5-12.5-28-28-28l-28 0zM56 308c-30.9 0-56 25.1-56 56l0 84c0 30.9 25.1 56 56 56l28 0c15.5 0 28-12.5 28-28l0-140c0-15.5-12.5-28-28-28l-28 0z"/></svg>