<svg xmlns="http://www.w3.org/2000/svg" viewBox="0 0 560 560"><!--! Font Awesome Pro 7.1.0 by @fontawesome - https://fontawesome.com License - https://fontawesome.com/license (Commercial License) Copyright 2025 Fonticons, Inc. --><path fill="currentColor" d="M148.2 81.3c-1.5 15.4 9.8 29.1 25.2 30.5s29.1-9.8 30.5-25.2c1.9-20.1 6.3-23.2 8.2-24.4 5-3.2 16.6-6.3 46.9-6.3l42 0c30.3 0 41.9 3.1 46.9 6.3 1.9 1.2 6.2 4.3 8.2 24.4 1.5 15.4 15.1 26.7 30.5 25.2s26.7-15.1 25.2-30.5C409.3 55.5 401.9 30.6 378.3 15.3 357.8 2 330.2 0 301 0L259 0c-29.2 0-56.8 2-77.3 15.3-23.6 15.3-31 40.3-33.5 66zM332.2 140c14.9 0 27.1 11.6 27.9 26.4 1.9 39.3 4 96.3 4 155.6s-2.1 116.2-4 155.6c-.7 14.8-13 26.4-27.9 26.4l-104.5 0c-14.8 0-27.1-11.6-27.8-26.4-1.9-38.1-3.9-93.7-3.9-155.6s2-117.5 3.9-155.6c.7-14.8 13-26.4 27.8-26.4l104.5 0zm84.3 330.1c-.8 17 13.5 31 30.2 28 30-5.5 54.6-15.7 73.1-33.3 34-32.4 40.2-82.7 40.2-142.8s-6.2-110.4-40.2-142.8c-18.6-17.7-43.1-27.8-73.1-33.3-16.7-3.1-31 11-30.2 28 2.2 49.3 3.6 98.7 3.6 148.1s-1.3 98.8-3.6 148.1zM115.3 146.3c-31.3 6.1-56.5 17.2-75.5 35.9-33.5 33.1-39.8 82.7-39.8 139.8 0 60.1 6.2 110.4 40.2 142.8 18.9 18 44 28.2 74.8 33.6 15.8 2.8 29.3-10.5 28.6-26.5-1.8-38.3-3.5-91.2-3.5-149.9s1.8-111.6 3.5-149.9c.7-15.8-12.7-28.8-28.2-25.8z"/></svg>