<svg xmlns="http://www.w3.org/2000/svg" viewBox="0 0 616 560"><!--! Font Awesome Pro 7.1.0 by @fontawesome - https://fontawesome.com License - https://fontawesome.com/license (Commercial License) Copyright 2025 Fonticons, Inc. --><path fill="currentColor" d="M36.2 8.2C47.1-2.7 64.9-2.7 75.8 8.2L161 93.4 184.8 61.6C200.7 40.4 225.6 28 252 28l16.3 0c35.4 0 69 22.9 77.2 60.4 8.4 38.8 18.6 103.7 18.6 191.6 0 5.5 0 10.9-.1 16.3l69.2 69.2c9.6-24.5 14.9-53.1 14.9-85.5 0-50.1-12.8-91.2-34.5-122.2-8.9-12.7-5.8-30.1 6.8-39s30.1-5.8 39 6.8c29.4 41.9 44.7 94.7 44.7 154.4 0 47.7-9.7 90.9-28.7 127.7L518.6 451c26.5-46.2 41.4-103.7 41.4-171 0-85.6-24.1-155.3-65.7-206.3-9.8-12-8-29.6 4-39.4s29.6-8 39.4 4c51.2 62.6 78.3 145.5 78.3 241.7 0 81.6-19.5 153.5-56.7 211.7l20.5 20.5c10.9 10.9 10.9 28.7 0 39.6s-28.7 10.9-39.6 0l-504-504c-10.9-10.9-10.9-28.7 0-39.6zM72.6 163.4c-9.8-9.8-25.3-11-36.5-2.7-16.2 12-25.3 28.7-30.2 47.7-4.7 18.2-6 39.9-6 64.6l0 14c0 22.4 1.1 42.3 4.7 59.2 3.7 17.2 10.5 33.2 23.2 45.9s28.7 19.4 45.9 23.2c15.1 3.3 32.6 4.5 52.2 4.7l58.8 78.4C200.7 519.6 225.6 532 252 532l16.3 0c35.4 0 69-22.9 77.2-60.4 1-4.6 2-9.6 3-14.9 1.8-9.1-1.1-18.5-7.7-25.1L72.6 163.4z"/></svg>