<svg xmlns="http://www.w3.org/2000/svg" viewBox="0 0 504 560"><!--! Font Awesome Pro 7.1.0 by @fontawesome - https://fontawesome.com License - https://fontawesome.com/license (Commercial License) Copyright 2025 Fonticons, Inc. --><path fill="currentColor" d="M364 0c-23.1 0-44.7 7.5-60.6 23.4S280 60.9 280 84 287.5 128.7 303.4 144.6 340.9 168 364 168 408.7 160.5 424.6 144.6 448 107.1 448 84 440.5 39.3 424.6 23.4 387.1 0 364 0zM42.3 294.3c28-28 67.1-42.3 111.7-42.3 22.2 0 43 3.5 61.8 10.6l35.1-35.1c1.5-1.5 1.4-4.2-.2-5.5l-60.9-50.7c-4.7-3.9-11.8-4.3-16.9-.9L99.5 219.3c-12.9 8.6-30.3 5.1-38.8-7.8s-5.1-30.3 7.8-38.8l73.4-48.9c11.5-7.7 25.1-11.8 38.9-11.8 16.4 0 32.3 5.8 44.9 16.3L286.5 179c13.6 11.3 21.5 28.2 21.5 45.9 0 15.8-6.3 31-17.5 42.2l-26 26c12.5 12.2 22.5 26.7 29.6 42.9l76 0c43 0 77.9 34.9 77.9 77.9 0 6.4-.8 12.7-2.3 18.9l-26.5 106c-3.7 15-19 24.1-34 20.4s-24.1-19-20.4-34l26.5-106c3.4-13.4-7.2-27.2-21.2-27.2l-62.6 0c.3 4.6 .5 9.3 .5 14 0 44.5-14.3 83.6-42.3 111.7S198.5 560 154 560 70.4 545.7 42.3 517.7 0 450.5 0 406 14.3 322.4 42.3 294.3z"/></svg>