<svg xmlns="http://www.w3.org/2000/svg" viewBox="0 0 504 560"><!--! Font Awesome Pro 7.1.0 by @fontawesome - https://fontawesome.com License - https://fontawesome.com/license (Commercial License) Copyright 2025 Fonticons, Inc. --><path fill="currentColor" d="M252.4 122.3c21.1-20.5 39.4-37.5 55.5-51.1 20.7-17.5 39.5-30.9 57.7-38.4 19.3-8 38.5-9.7 57.9-3 17.8 6.2 32.9 18.7 46.7 32.4s26.2 28.8 32.4 46.7c6.7 19.3 5 38.6-3 57.8-7.6 18.2-20.9 37-38.4 57.7-13.6 16.1-30.7 34.4-51.1 55.5 20.5 21.1 37.5 39.4 51.1 55.6 17.5 20.7 30.9 39.5 38.4 57.7 8 19.3 9.7 38.5 3 57.8-6.2 17.8-18.7 32.9-32.4 46.7s-28.8 26.2-46.7 32.4c-19.3 6.7-38.6 5-57.9-3-18.2-7.6-37-20.9-57.7-38.4-16.1-13.6-34.4-30.7-55.5-51.1-21.1 20.5-39.4 37.5-55.6 51.1-20.7 17.5-39.5 30.9-57.7 38.4-19.3 8-38.5 9.7-57.8 3-17.8-6.2-32.9-18.7-46.7-32.4S8.4 468.9 2.2 451.1c-6.7-19.3-5-38.6 3-57.8 7.6-18.2 20.9-37 38.4-57.7 13.6-16.1 30.7-34.4 51.1-55.6-20.5-21.1-37.5-39.4-51.1-55.5-17.5-20.7-30.9-39.5-38.4-57.7-8-19.3-9.7-38.5-3-57.8 6.2-17.8 18.7-32.9 32.4-46.7S63.5 36 81.3 29.8c19.3-6.7 38.6-5 57.8 3 18.2 7.6 37 20.9 57.7 38.4 16.1 13.6 34.4 30.7 55.6 51.1z"/></svg>