<svg xmlns="http://www.w3.org/2000/svg" viewBox="0 0 384 512"><!--! Font Awesome Pro 7.0.1 by @fontawesome - https://fontawesome.com License - https://fontawesome.com/license (Commercial License) Copyright 2025 Fonticons, Inc. --><path style="fill:var(--fa-secondary-color,currentColor);opacity:var(--fa-secondary-opacity,.4)" d=""/><path style="fill:var(--fa-primary-color,currentColor);opacity:var(--fa-primary-opacity,1)" d="M203.3 459.3c-6.2 6.2-16.4 6.2-22.6 0l-160-160c-6.2-6.2-6.2-16.4 0-22.6s16.4-6.2 22.6 0L192 425.4 340.7 276.7c6.2-6.2 16.4-6.2 22.6 0s6.2 16.4 0 22.6l-160 160zm160-352l-160 160c-6.2 6.2-16.4 6.2-22.6 0l-160-160c-6.2-6.2-6.2-16.4 0-22.6s16.4-6.2 22.6 0L192 233.4 340.7 84.7c6.2-6.2 16.4-6.2 22.6 0s6.2 16.4 0 22.6z"/></svg>