<svg xmlns="http://www.w3.org/2000/svg" viewBox="0 0 512 512"><!--! Font Awesome Pro 7.1.0 by @fontawesome - https://fontawesome.com License - https://fontawesome.com/license (Commercial License) Copyright 2025 Fonticons, Inc. --><path opacity=".4" fill="currentColor" d="M32 253.3c0 .9 0 1.8 0 2.7 0 56.1 20.6 107.4 54.7 146.7L233.4 256 188 210.6c-33.5 28.3-76.7 45.4-124 45.4-10.9 0-21.6-.9-32-2.7zm2.7-32c9.5 1.8 19.3 2.7 29.3 2.7 38.4 0 73.7-13.5 101.3-36.1L86.7 109.3c-26.9 31-45.4 69.5-52 112zM109.3 86.7l78.6 78.6c22.6-27.6 36.1-62.8 36.1-101.3 0-10-.9-19.8-2.7-29.3-42.5 6.6-81 25.1-112 52zm0 338.6c39.3 34.1 90.6 54.7 146.7 54.7 .9 0 1.8 0 2.7 0-1.7-10.4-2.7-21.1-2.7-32 0-47.3 17.1-90.5 45.4-124L256 278.6 109.3 425.3zM210.6 188L256 233.4 402.7 86.7c-39.3-34.1-90.6-54.7-146.7-54.7-.9 0-1.8 0-2.7 0 1.7 10.4 2.7 21.1 2.7 32 0 47.3-17.1 90.5-45.4 124zm68 68L324 301.4c33.5-28.3 76.7-45.4 124-45.4 10.9 0 21.6 .9 32 2.7 0-.9 0-1.8 0-2.7 0-56.1-20.6-107.4-54.7-146.7L278.6 256zM288 448c0 10 .9 19.8 2.7 29.3 42.5-6.6 81-25.1 112-52l-78.6-78.6C301.5 374.3 288 409.6 288 448zm58.7-123.9l78.6 78.6c26.9-31 45.4-69.5 52-112-9.5-1.8-19.3-2.7-29.3-2.7-38.4 0-73.7 13.5-101.3 36.1z"/><path fill="currentColor" d="M290.7 477.3c-1.8-9.5-2.7-19.3-2.7-29.3 0-38.4 13.5-73.7 36.1-101.3l78.6 78.6c-31 26.9-69.5 45.4-112 52zm-32 2.7c-.9 0-1.8 0-2.7 0-56.1 0-107.4-20.6-146.7-54.7L256 278.6 301.4 324c-28.3 33.5-45.4 76.7-45.4 124 0 10.9 .9 21.6 2.7 32zM324 301.4L278.6 256 425.3 109.3c34.1 39.3 54.7 90.6 54.7 146.7 0 .9 0 1.8 0 2.7-10.4-1.7-21.1-2.7-32-2.7-47.3 0-90.5 17.1-124 45.4zm22.7 22.7c27.6-22.6 62.8-36.1 101.3-36.1 10 0 19.8 .9 29.3 2.7-6.6 42.5-25.1 81-52 112l-78.6-78.6zM256 233.4L210.6 188c28.3-33.5 45.4-76.7 45.4-124 0-10.9-.9-21.6-2.7-32 .9 0 1.8 0 2.7 0 56.1 0 107.4 20.6 146.7 54.7L256 233.4zm-68.1-68.1L109.3 86.7c31-26.9 69.5-45.4 112-52 1.8 9.5 2.7 19.3 2.7 29.3 0 38.4-13.5 73.7-36.1 101.3zm-22.6 22.6c-27.6 22.6-62.8 36.1-101.3 36.1-10 0-19.8-.9-29.3-2.7 6.6-42.5 25.1-81 52-112l78.6 78.6zM32 253.3c10.4 1.7 21.1 2.7 32 2.7 47.3 0 90.5-17.1 124-45.4L233.4 256 86.7 402.7c-34.1-39.3-54.7-90.6-54.7-146.7 0-.9 0-1.8 0-2.7zM256 512a256 256 0 1 0 0-512 256 256 0 1 0 0 512z"/></svg>