<svg xmlns="http://www.w3.org/2000/svg" viewBox="0 0 640 512"><!--! Font Awesome Pro 7.1.0 by @fontawesome - https://fontawesome.com License - https://fontawesome.com/license (Commercial License) Copyright 2025 Fonticons, Inc. --><path opacity=".4" fill="currentColor" d="M196.6 376c30.8 .4 61.6 10 87.8 28.8l8.6 5.9c18.4 12.2 25.5 13.3 27 13.3l2.8-.5c4.4-1.2 14.2-5.4 32.8-18.7l5.1-3.5c25.1-16.5 53.9-24.9 82.7-25.3l-16-88-214.8 0-16 88zm21.8-120l203.1 0-23-126.4c-6.9-38-40-65.6-78.6-65.6s-71.7 27.6-78.6 65.6L218.4 256z"/><path fill="currentColor" d="M383.5 443.9c37.1-26.5 87.1-26.5 124.2 0 18.2 13 36.5 22.8 54.4 26.2 17.2 3.3 34.6 .8 52.6-12 7.2-5.1 17.2-3.5 22.3 3.7s3.4 17.2-3.8 22.3c-25.6 18.2-52 22.2-77.2 17.4-24.5-4.7-47.2-17.6-66.9-31.6-26-18.6-61.1-18.6-87.1 0-25.6 18.3-52.9 34.1-82 34.1s-56.4-15.8-82-34.1c-26-18.6-61.1-18.6-87.1 0-24.7 17.6-54.6 33.7-86.9 33.5-19.3-.1-38.6-6-57.2-19.3-7.2-5.1-8.9-15.1-3.7-22.3s15.1-8.8 22.3-3.7c13.4 9.6 26.4 13.2 38.8 13.3 22 .1 45-11 68.2-27.5 37.1-26.5 87.1-26.5 124.2 0 25.3 18.1 45.3 28.1 63.5 28.1s38.2-10.1 63.5-28.1zM320 0c8.8 0 16 7.2 16 16l0 17.2c47 6.8 85.3 42.8 94 90.7l46.4 255.4c-10.9-2.2-22-3.2-33.1-3.1l-16-88.1-214.8 0-16 88c-11.1-.2-22.2 .9-33.1 3.1l46.4-255.3C218.6 76 257 39.9 304 33.2L304 16c0-8.8 7.2-16 16-16zm0 64c-38.6 0-71.7 27.6-78.6 65.6l-23 126.4 203.1 0-23-126.4c-6.9-38-40-65.6-78.6-65.6z"/></svg>