<svg xmlns="http://www.w3.org/2000/svg" viewBox="0 0 512 512"><!--! Font Awesome Pro 7.1.0 by @fontawesome - https://fontawesome.com License - https://fontawesome.com/license (Commercial License) Copyright 2025 Fonticons, Inc. --><path opacity=".4" fill="currentColor" d="M32 213.2c0 5.9 4.8 10.8 10.8 10.8l426.5 0c5.9 0 10.8-4.8 10.8-10.8 0-3.3-1.5-6.4-4.1-8.5L260.9 35.9c-2.9-2.3-7-2.3-9.9 0L36.1 204.8c-2.6 2-4.1 5.2-4.1 8.5zM400 72l0 32.4 48 37.7 0-70.2c0-4.4-3.6-8-8-8l-32 0c-4.4 0-8 3.6-8 8z"/><path fill="currentColor" d="M260.9 35.9c-2.9-2.3-7-2.3-9.9 0L36.1 204.8c-2.6 2-4.1 5.2-4.1 8.5 0 5.9 4.8 10.8 10.8 10.8l426.5 0c5.9 0 10.8-4.8 10.8-10.8 0-3.3-1.5-6.4-4.1-8.5L260.9 35.9zM231.3 10.7c14.5-11.4 34.9-11.4 49.4 0L368 79.3 368 72c0-22.1 17.9-40 40-40l32 0c22.1 0 40 17.9 40 40l0 95.3 15.7 12.3c10.3 8.1 16.3 20.5 16.3 33.6 0 23.6-19.1 42.8-42.8 42.8L42.8 256C19.1 256 0 236.9 0 213.2 0 200.1 6 187.7 16.3 179.6L231.3 10.7zM448 142.2L448 72c0-4.4-3.6-8-8-8l-32 0c-4.4 0-8 3.6-8 8l0 32.4 48 37.7zM48 368c0-8.8 7.2-16 16-16l112 0c8.8 0 16 7.2 16 16s-7.2 16-16 16L64 384c-8.8 0-16-7.2-16-16zm16 48l384 0c8.8 0 16 7.2 16 16s-7.2 16-16 16L64 448c-8.8 0-16-7.2-16-16s7.2-16 16-16zM48 304c0-8.8 7.2-16 16-16l112 0c8.8 0 16 7.2 16 16s-7.2 16-16 16L64 320c-8.8 0-16-7.2-16-16zm288 48l112 0c8.8 0 16 7.2 16 16s-7.2 16-16 16l-112 0c-8.8 0-16-7.2-16-16s7.2-16 16-16zm0-64l112 0c8.8 0 16 7.2 16 16s-7.2 16-16 16l-112 0c-8.8 0-16-7.2-16-16s7.2-16 16-16zM48 496c0-8.8 7.2-16 16-16l384 0c8.8 0 16 7.2 16 16s-7.2 16-16 16L64 512c-8.8 0-16-7.2-16-16z"/></svg>