<svg xmlns="http://www.w3.org/2000/svg" viewBox="0 0 448 512"><!--! Font Awesome Pro 7.1.0 by @fontawesome - https://fontawesome.com License - https://fontawesome.com/license (Commercial License) Copyright 2025 Fonticons, Inc. --><path opacity=".4" fill="currentColor" d="M32 128l0 288c0 17.7 14.3 32 32 32l320 0c17.7 0 32-14.3 32-32l0-288c0-17.7-14.3-32-32-32L64 96c-17.7 0-32 14.3-32 32zM248 376a24 24 0 1 1 -48 0 24 24 0 1 1 48 0zM200.5 168.9c-.8-13.5 10-24.9 23.5-24.9s24.3 11.4 23.5 24.9l-7.6 136c-.5 8.5-7.5 15.1-16 15.1s-15.5-6.6-16-15.1l-7.6-136z"/><path fill="currentColor" d="M336 0c8.8 0 16 7.2 16 16l0 48 32 0c35.3 0 64 28.7 64 64l0 288c0 35.3-28.7 64-64 64L64 480c-35.3 0-64-28.7-64-64L0 128C0 92.7 28.7 64 64 64l32 0 0-48c0-8.8 7.2-16 16-16s16 7.2 16 16l0 48 192 0 0-48c0-8.8 7.2-16 16-16zM64 96c-17.7 0-32 14.3-32 32l0 288c0 17.7 14.3 32 32 32l320 0c17.7 0 32-14.3 32-32l0-288c0-17.7-14.3-32-32-32L64 96zM224 400a24 24 0 1 1 0-48 24 24 0 1 1 0 48zm0-256c13.5 0 24.3 11.4 23.5 24.9l-7.6 136c-.5 8.5-7.5 15.1-16 15.1s-15.5-6.6-16-15.1l-7.6-136c-.8-13.5 10-24.9 23.5-24.9z"/></svg>