<svg xmlns="http://www.w3.org/2000/svg" viewBox="0 0 576 512"><!--! Font Awesome Pro 7.1.0 by @fontawesome - https://fontawesome.com License - https://fontawesome.com/license (Commercial License) Copyright 2025 Fonticons, Inc. --><path opacity=".4" fill="currentColor" d="M64 256c0-6.1 1.7-11.8 4.7-16.7 3.2-3.8 6.8-7.4 10.6-10.6 4.9-3 10.6-4.7 16.7-4.7l384 0c6.1 0 11.8 1.7 16.7 4.7 3.8 3.2 7.4 6.8 10.6 10.6 3 4.9 4.7 10.6 4.7 16.7l0 128-448 0 0-128zm48 48a24 24 0 1 0 48 0 24 24 0 1 0 -48 0zm304 0a24 24 0 1 0 48 0 24 24 0 1 0 -48 0z"/><path fill="currentColor" d="M201.7 64c-27.5 0-52 17.6-60.7 43.8l-28.1 84.2 350.3 0-28.1-84.2C426.3 81.6 401.9 64 374.3 64L201.7 64zM40.6 224L16 224c-8.8 0-16-7.2-16-16s7.2-16 16-16l63.1 0 31.5-94.4C123.7 58.4 160.3 32 201.7 32l172.7 0c41.3 0 78 26.4 91.1 65.6l31.4 94.4 63.1 0c8.8 0 16 7.2 16 16s-7.2 16-16 16l-24.6 0c5.4 9.4 8.6 20.3 8.6 32l0 208c0 8.8-7.2 16-16 16s-16-7.2-16-16l0-48-448 0 0 48c0 8.8-7.2 16-16 16s-16-7.2-16-16l0-208c0-11.7 3.1-22.6 8.6-32zM96 224c-17.7 0-32 14.3-32 32l0 128 448 0 0-128c0-17.7-14.3-32-32-32L96 224zm16 80a24 24 0 1 1 48 0 24 24 0 1 1 -48 0zm328-24a24 24 0 1 1 0 48 24 24 0 1 1 0-48z"/></svg>