<svg xmlns="http://www.w3.org/2000/svg" viewBox="0 0 576 512"><!--! Font Awesome Pro 7.1.0 by @fontawesome - https://fontawesome.com License - https://fontawesome.com/license (Commercial License) Copyright 2025 Fonticons, Inc. --><path opacity=".4" fill="currentColor" d="M56.8 194L97 233.1c5.8 5.6 8.9 12.8 9.6 20.2l2.8 2.7-2.8 2.7c-.6 7.4-3.8 14.6-9.6 20.2L56.8 318 111.1 331.8c7.8 2 14.2 6.6 18.4 12.7l3.8 1-1.1 3.7c3.2 6.7 4 14.6 1.8 22.3l-15.2 53.9 53.9-15.2c7.7-2.2 15.6-1.3 22.3 1.8l3.7-1.1 1 3.8c6.1 4.2 10.8 10.6 12.7 18.4l13.8 54.3 50.6-51.9c3-3.1 7.1-4.8 11.5-4.8s8.5 1.7 11.5 4.8l50.6 51.9 13.8-54.3c2-7.8 6.6-14.2 12.7-18.4l1-3.8 3.7 1.1c6.7-3.2 14.6-4 22.3-1.8l53.9 15.2-15.2-53.9c-2.2-7.7-1.3-15.6 1.8-22.3l-1.1-3.7 3.8-1c4.2-6.1 10.6-10.8 18.4-12.7l54.3-13.8-40.2-39.1c-5.8-5.6-8.9-12.8-9.6-20.2l-2.8-2.7 2.8-2.7c.6-7.4 3.8-14.6 9.6-20.2l40.2-39.1-54.3-13.8c-7.8-2-14.2-6.6-18.4-12.7l-3.8-1 1.1-3.7c-3.2-6.7-4-14.6-1.8-22.3l15.2-53.9-53.9 15.2c-7.7 2.2-15.6 1.3-22.3-1.8l-3.7 1.1-1-3.8C370.7 93 366 86.7 364.1 78.9l-13.8-54.3-39.1 40.2c-5.6 5.8-12.8 8.9-20.2 9.6l-2.7 2.8-2.7-2.8c-7.4-.6-14.6-3.8-20.2-9.6l-39.1-40.2-13.8 54.3c-2 7.8-6.6 14.2-12.7 18.4l-1 3.8-3.7-1.1c-6.7 3.2-14.6 4-22.3 1.8l-53.9-15.2 15.2 53.9c2.2 7.7 1.3 15.6-1.8 22.3l1.1 3.7-3.8 1c-4.2 6.1-10.6 10.8-18.4 12.7L56.8 194z"/><path fill="currentColor" d="M226.3 24.5L212.5 78.9c-4.4 17.5-22.4 27.8-39.7 22.9l-53.9-15.2 15.2 53.9c4.9 17.3-5.5 35.3-22.9 39.7L56.8 194 97 233.1c12.9 12.6 12.9 33.3 0 45.9L56.8 318 111.1 331.8c17.5 4.4 27.8 22.4 22.9 39.7l-15.2 53.9 53.9-15.2c17.3-4.9 35.3 5.5 39.7 22.9l13.8 54.3 50.6-51.9c3-3.1 7.1-4.8 11.5-4.8s8.5 1.7 11.5 4.8l50.6 51.9 13.8-54.3c4.4-17.5 22.4-27.8 39.7-22.9l53.9 15.2-15.2-53.9c-4.9-17.3 5.5-35.3 22.9-39.7l54.3-13.8-40.2-39.1c-12.9-12.6-12.9-33.3 0-45.9l40.2-39.1-54.3-13.8c-17.5-4.4-27.8-22.4-22.9-39.7l15.2-53.9-53.9 15.2c-17.3 4.9-35.3-5.5-39.7-22.9l-13.8-54.3-39.1 40.2c-12.6 12.9-33.3 12.9-45.9 0L226.3 24.5zM105.1 82.7l0 0 0 0s0 0 0 0zM239.2-8l0 0 49.1 50.4 49.1-50.4c13-13.4 35.9-7.2 40.5 10.8L395.1 71 462.8 51.9c8.4-2.4 17.4 0 23.5 6.1s8.5 15.1 6.1 23.5c-15.4-4.4-15.4-4.3 0 0l-19.1 67.7 68.2 17.3c8.4 2.1 15 8.7 17.3 17.1s-.2 17.3-6.4 23.4l-50.4 49.1 50.4 49.1c6.2 6.1 8.7 15 6.4 23.4s-8.9 14.9-17.3 17.1l-68.2 17.3 19.1 67.7c2.4 8.4 0 17.4-6.1 23.5s-15.1 8.5-23.5 6.1l0 0-67.7-19.1-17.3 68.2c-2.1 8.4-8.7 15-17 17.3s-17.4-.2-23.4-6.4l-49.1-50.4-49.1 50.4c-11.5-11.2-11.5-11.2 0 0-6.1 6.2-15 8.7-23.4 6.4s-14.9-8.9-17.1-17.3l-17.3-68.2-67.7 19.1c-8.4 2.4-17.4 0-23.5-6.1s-8.5-15.1-6.1-23.5l19.1-67.7-68.2-17.3 3.9-15.5 0-.1zM39 330l-3.9 15.5c-8.4-2.1-15-8.7-17.3-17.1s.2-17.3 6.4-23.4L74.7 256 24.3 206.9c-6.2-6.1-8.7-15-6.4-23.4s8.9-14.9 17.3-17.1l68.2-17.3-19.1-67.7c-2.4-8.4 0-17.4 6.1-23.5s15.1-8.5 23.5-6.1L181.5 71 198.8 2.8c4.6-18.1 27.5-24.2 40.5-10.8z"/></svg>