<svg xmlns="http://www.w3.org/2000/svg" viewBox="0 0 576 512"><!--! Font Awesome Pro 7.1.0 by @fontawesome - https://fontawesome.com License - https://fontawesome.com/license (Commercial License) Copyright 2025 Fonticons, Inc. --><path opacity=".4" fill="currentColor" d="M128 96l0 224c0 17.7 14.3 32 32 32l256 0c17.7 0 32-14.3 32-32l0-224c0-17.7-14.3-32-32-32L160 64c-17.7 0-32 14.3-32 32zm68.5 135.6c-6.1-6.4-6-16.5 .4-22.6s16.5-5.9 22.6 .4l41.2 42.6 94.4-129.8c5.2-7.1 15.2-8.7 22.3-3.5s8.7 15.2 3.5 22.3L275.3 286.2c-2.8 3.8-7.1 6.2-11.8 6.5s-9.3-1.4-12.6-4.8l-54.4-56.3z"/><path fill="currentColor" d="M560 288c8.8 0 16 7.2 16 16l0 112c0 35.3-28.7 64-64 64L64 480c-35.3 0-64-28.7-64-64L0 304c0-8.8 7.2-16 16-16s16 7.2 16 16l0 112c0 17.7 14.3 32 32 32l448 0c17.7 0 32-14.3 32-32l0-112c0-8.8 7.2-16 16-16zM416 32c35.3 0 64 28.7 64 64l0 224c0 35.3-28.7 64-64 64l-256 0c-35.3 0-64-28.7-64-64L96 96c0-35.3 28.7-64 64-64l256 0zM160 64c-17.7 0-32 14.3-32 32l0 224c0 17.7 14.3 32 32 32l256 0c17.7 0 32-14.3 32-32l0-224c0-17.7-14.3-32-32-32L160 64zm195.1 58.2c5.2-7.1 15.2-8.7 22.3-3.5s8.7 15.2 3.5 22.3L275.3 286.2c-2.8 3.8-7.1 6.2-11.8 6.5s-9.3-1.4-12.6-4.8l-54.4-56.3c-6.1-6.4-6-16.5 .4-22.6s16.5-5.9 22.6 .4l41.2 42.6 94.4-129.8z"/></svg>