<svg xmlns="http://www.w3.org/2000/svg" viewBox="0 0 512 512"><!--! Font Awesome Pro 7.1.0 by @fontawesome - https://fontawesome.com License - https://fontawesome.com/license (Commercial License) Copyright 2025 Fonticons, Inc. --><path opacity=".4" fill="currentColor" d="M32 256a224 224 0 1 0 448 0 224 224 0 1 0 -448 0zm131.7-69.8c-5.7-6.8-4.7-16.9 2-22.5s16.9-4.7 22.5 2L256 247 323.7 165.8c5.7-6.8 15.7-7.7 22.5-2s7.7 15.7 2 22.5L272 277.8 272 336c0 8.8-7.2 16-16 16s-16-7.2-16-16l0-58.2-76.3-91.5z"/><path fill="currentColor" d="M256 32a224 224 0 1 1 0 448 224 224 0 1 1 0-448zm0 480a256 256 0 1 0 0-512 256 256 0 1 0 0 512zM188.3 165.8c-5.7-6.8-15.7-7.7-22.5-2s-7.7 15.7-2 22.5l76.3 91.5 0 58.2c0 8.8 7.2 16 16 16s16-7.2 16-16l0-58.2 76.3-91.5c5.7-6.8 4.7-16.9-2-22.5s-16.9-4.7-22.5 2L256 247 188.3 165.8z"/></svg>