<svg xmlns="http://www.w3.org/2000/svg" viewBox="0 0 512 512"><!--! Font Awesome Pro 7.1.0 by @fontawesome - https://fontawesome.com License - https://fontawesome.com/license (Commercial License) Copyright 2025 Fonticons, Inc. --><path opacity=".4" fill="currentColor" d="M32 256a224 224 0 1 0 448 0 224 224 0 1 0 -448 0zM144 144c0-8.8 7.2-16 16-16l192 0c8.8 0 16 7.2 16 16s-7.2 16-16 16l-80 0 0 57.8 50.9-17c8.4-2.8 17.4 1.7 20.2 10.1s-1.7 17.4-10.1 20.2l-61.1 20.4 0 30.3 50.9-17c8.4-2.8 17.4 1.7 20.2 10.1s-1.7 17.4-10.1 20.2L272 315.5 272 368c0 8.8-7.2 16-16 16s-16-7.2-16-16l0-41.8-50.9 17c-8.4 2.8-17.4-1.7-20.2-10.1s1.7-17.4 10.1-20.2l61.1-20.4 0-30.3-50.9 17c-8.4 2.8-17.4-1.7-20.2-10.1s1.7-17.4 10.1-20.2l61.1-20.4 0-68.5-80 0c-8.8 0-16-7.2-16-16z"/><path fill="currentColor" d="M256 32a224 224 0 1 1 0 448 224 224 0 1 1 0-448zm0 480a256 256 0 1 0 0-512 256 256 0 1 0 0 512zM144 144c0 8.8 7.2 16 16 16l80 0 0 68.5-61.1 20.4c-8.4 2.8-12.9 11.9-10.1 20.2s11.9 12.9 20.2 10.1l50.9-17 0 30.3-61.1 20.4c-8.4 2.8-12.9 11.9-10.1 20.2s11.9 12.9 20.2 10.1l50.9-17 0 41.8c0 8.8 7.2 16 16 16s16-7.2 16-16l0-52.5 61.1-20.4c8.4-2.8 12.9-11.9 10.1-20.2s-11.9-12.9-20.2-10.1l-50.9 17 0-30.3 61.1-20.4c8.4-2.8 12.9-11.9 10.1-20.2s-11.9-12.9-20.2-10.1l-50.9 17 0-57.8 80 0c8.8 0 16-7.2 16-16s-7.2-16-16-16l-192 0c-8.8 0-16 7.2-16 16z"/></svg>