<svg xmlns="http://www.w3.org/2000/svg" viewBox="0 0 512 512"><!--! Font Awesome Pro 7.1.0 by @fontawesome - https://fontawesome.com License - https://fontawesome.com/license (Commercial License) Copyright 2025 Fonticons, Inc. --><path opacity=".4" fill="currentColor" d="M32 256a224 224 0 1 0 448 0 224 224 0 1 0 -448 0zm96-112c0-8.8 7.2-16 16-16l56 0c39.8 0 72 32.2 72 72 0 29.4-17.6 54.7-42.8 65.8l25.7 64.2c3.3 8.2-.7 17.5-8.9 20.8s-17.5-.7-20.8-8.9l-28-69.9-37.2 0 0 64c0 8.8-7.2 16-16 16s-16-7.2-16-16l0-192zm32 16l0 80 40 0c22.1 0 40-17.9 40-40s-17.9-40-40-40l-40 0zm128 80c0-8.8 7.2-16 16-16l40 0c30.9 0 56 25.1 56 56s-25.1 56-56 56l-24 0 0 48c0 8.8-7.2 16-16 16s-16-7.2-16-16l0-144zm32 16l0 48 24 0c13.3 0 24-10.7 24-24s-10.7-24-24-24l-24 0z"/><path fill="currentColor" d="M256 32a224 224 0 1 1 0 448 224 224 0 1 1 0-448zm0 480a256 256 0 1 0 0-512 256 256 0 1 0 0 512zM144 128c-8.8 0-16 7.2-16 16l0 192c0 8.8 7.2 16 16 16s16-7.2 16-16l0-64 37.2 0 28 69.9c3.3 8.2 12.6 12.2 20.8 8.9s12.2-12.6 8.9-20.8l-25.7-64.2c25.2-11.2 42.8-36.5 42.8-65.8 0-39.8-32.2-72-72-72l-56 0zm56 112l-40 0 0-80 40 0c22.1 0 40 17.9 40 40s-17.9 40-40 40zm88 0l0 144c0 8.8 7.2 16 16 16s16-7.2 16-16l0-48 24 0c30.9 0 56-25.1 56-56s-25.1-56-56-56l-40 0c-8.8 0-16 7.2-16 16zm32 64l0-48 24 0c13.3 0 24 10.7 24 24s-10.7 24-24 24l-24 0z"/></svg>