<svg xmlns="http://www.w3.org/2000/svg" viewBox="0 0 512 512"><!--! Font Awesome Pro 7.1.0 by @fontawesome - https://fontawesome.com License - https://fontawesome.com/license (Commercial License) Copyright 2025 Fonticons, Inc. --><path opacity=".4" fill="currentColor" d="M32 256a224 224 0 1 0 448 0 224 224 0 1 0 -448 0zm112-80c0-8.8 7.2-16 16-16 6.5 0 12.1 3.9 14.6 9.4 9.7-6 21.2-9.4 33.4-9.4 19.1 0 36.3 8.4 48 21.7 6.3-7.1 14.1-12.8 22.9-16.5l26.5-59.6c3.6-8.1 13-11.7 21.1-8.1s11.7 13 8.1 21.1l-18.9 42.6c29.8 5.5 52.3 31.6 52.3 62.9l0 112c0 8.8-7.2 16-16 16s-16-7.2-16-16l0-112c0-17.7-14.3-32-32-32-.7 0-1.4 0-2.1 .1L272 259.4 272 336c0 8.8-7.2 16-16 16s-16-7.2-16-16l0-4.6-33.4 75.1c-3.6 8.1-13 11.7-21.1 8.1s-11.7-13-8.1-21.1l62.6-140.9 0-28.6 0-.4c-.2-17.5-14.5-31.6-32-31.6-17.7 0-32 14.3-32 32l0 112c0 8.8-7.2 16-16 16s-16-7.2-16-16c0-69.3 0-122.7 0-160z"/><path fill="currentColor" d="M256 32a224 224 0 1 1 0 448 224 224 0 1 1 0-448zm0 480a256 256 0 1 0 0-512 256 256 0 1 0 0 512zM326.5 97.4c-8.1-3.6-17.5 0-21.1 8.1l-26.5 59.6c-8.8 3.8-16.6 9.5-22.9 16.5-11.7-13.3-28.9-21.7-48-21.7-12.2 0-23.7 3.4-33.4 9.4-2.5-5.5-8.1-9.4-14.6-9.4-8.8 0-16 7.2-16 16l0 64 0 0 0 96c0 8.8 7.2 16 16 16s16-7.2 16-16l0-112c0-17.7 14.3-32 32-32 17.5 0 31.8 14.1 32 31.6l0 .4 0 28.6-62.6 140.9c-3.6 8.1 0 17.5 8.1 21.1s17.5 0 21.1-8.1l33.4-75.1 0 4.6c0 8.8 7.2 16 16 16s16-7.2 16-16l0-76.6 29.9-67.3c.7 0 1.4-.1 2.1-.1 17.7 0 32 14.3 32 32l0 112c0 8.8 7.2 16 16 16s16-7.2 16-16l0-112c0-31.3-22.5-57.4-52.3-62.9l18.9-42.6c3.6-8.1 0-17.5-8.1-21.1z"/></svg>