<svg xmlns="http://www.w3.org/2000/svg" viewBox="0 0 512 512"><!--! Font Awesome Pro 7.0.1 by @fontawesome - https://fontawesome.com License - https://fontawesome.com/license (Commercial License) Copyright 2025 Fonticons, Inc. --><path style="fill:var(--fa-secondary-color,currentColor);opacity:var(--fa-secondary-opacity,.4)" d="M32 256a224 224 0 1 0 448 0 224 224 0 1 0 -448 0zm144-80c0-8.8 7.2-16 16-16s16 7.2 16 16l0 72c0 4.4 3.6 8 8 8l72 0 0-80c0-8.8 7.2-16 16-16s16 7.2 16 16l0 80c8.8 0 16 7.2 16 16s-7.2 16-16 16l0 48c0 8.8-7.2 16-16 16s-16-7.2-16-16l0-48-72 0c-22.1 0-40-17.9-40-40l0-72z"/><path style="fill:var(--fa-primary-color,currentColor);opacity:var(--fa-primary-opacity,1)" d="M256 32a224 224 0 1 1 0 448 224 224 0 1 1 0-448zm0 480a256 256 0 1 0 0-512 256 256 0 1 0 0 512zM192 160c-8.8 0-16 7.2-16 16l0 72c0 22.1 17.9 40 40 40l72 0 0 48c0 8.8 7.2 16 16 16s16-7.2 16-16l0-48c8.8 0 16-7.2 16-16s-7.2-16-16-16l0-80c0-8.8-7.2-16-16-16s-16 7.2-16 16l0 80-72 0c-4.4 0-8-3.6-8-8l0-72c0-8.8-7.2-16-16-16z"/></svg>