<svg xmlns="http://www.w3.org/2000/svg" viewBox="0 0 512 512"><!--! Font Awesome Pro 7.0.1 by @fontawesome - https://fontawesome.com License - https://fontawesome.com/license (Commercial License) Copyright 2025 Fonticons, Inc. --><path style="fill:var(--fa-secondary-color,currentColor);opacity:var(--fa-secondary-opacity,.4)" d="M32 256a224 224 0 1 0 448 0 224 224 0 1 0 -448 0zm132.7 68.7L297.4 192 208 192c-8.8 0-16-7.2-16-16s7.2-16 16-16l128 0c8.8 0 16 7.2 16 16l0 128c0 8.8-7.2 16-16 16s-16-7.2-16-16l0-89.4-132.7 132.7c-6.2 6.2-16.4 6.2-22.6 0s-6.2-16.4 0-22.6z"/><path style="fill:var(--fa-primary-color,currentColor);opacity:var(--fa-primary-opacity,1)" d="M256 480a224 224 0 1 0 0-448 224 224 0 1 0 0 448zM256 0a256 256 0 1 1 0 512 256 256 0 1 1 0-512zm64 304l0-89.4-132.7 132.7c-6.2 6.2-16.4 6.2-22.6 0s-6.2-16.4 0-22.6L297.4 192 208 192c-8.8 0-16-7.2-16-16s7.2-16 16-16l128 0c8.8 0 16 7.2 16 16l0 128c0 8.8-7.2 16-16 16s-16-7.2-16-16z"/></svg>