<svg xmlns="http://www.w3.org/2000/svg" viewBox="0 0 512 512"><!--! Font Awesome Pro 7.0.0 by @fontawesome - https://fontawesome.com License - https://fontawesome.com/license (Commercial License) Copyright 2025 Fonticons, Inc. --><path style="fill:var(--fa-secondary-color,currentColor);opacity:var(--fa-secondary-opacity,.4)" d="M32 256a224 224 0 1 0 448 0 224 224 0 1 0 -448 0zm147.2 9.6c-5.3-7.1-3.9-17.1 3.2-22.4s17.1-3.9 22.4 3.2l34 45.3 67.6-108.2c4.7-7.5 14.6-9.8 22-5.1s9.8 14.6 5.1 22l-80 128c-2.8 4.5-7.6 7.3-12.9 7.5s-10.3-2.2-13.5-6.4l-48-64z"/><path style="fill:var(--fa-primary-color,currentColor);opacity:var(--fa-primary-opacity,1)" d="M256 32a224 224 0 1 1 0 448 224 224 0 1 1 0-448zm0 480a256 256 0 1 0 0-512 256 256 0 1 0 0 512zm77.6-311.5c4.7-7.5 2.4-17.4-5.1-22s-17.4-2.4-22 5.1l-67.6 108.2-34-45.3c-5.3-7.1-15.3-8.5-22.4-3.2s-8.5 15.3-3.2 22.4l48 64c3.2 4.2 8.2 6.6 13.5 6.4s10.1-3 12.9-7.5l80-128z"/></svg>