<svg xmlns="http://www.w3.org/2000/svg" viewBox="0 0 512 512"><!--! Font Awesome Pro 7.1.0 by @fontawesome - https://fontawesome.com License - https://fontawesome.com/license (Commercial License) Copyright 2025 Fonticons, Inc. --><path opacity=".4" fill="currentColor" d="M32 256a224 224 0 1 0 448 0 224 224 0 1 0 -448 0zM280 360a24 24 0 1 1 -48 0 24 24 0 1 1 48 0zM232.5 152.9c-.8-13.5 10-24.9 23.5-24.9s24.3 11.4 23.5 24.9l-7.6 136c-.5 8.5-7.5 15.1-16 15.1s-15.5-6.6-16-15.1l-7.6-136z"/><path fill="currentColor" d="M256 512a256 256 0 1 1 0-512 256 256 0 1 1 0 512zm0-480a224 224 0 1 0 0 448 224 224 0 1 0 0-448zm0 352a24 24 0 1 1 0-48 24 24 0 1 1 0 48zm0-256c13.5 0 24.3 11.4 23.5 24.9l-7.6 136c-.5 8.5-7.5 15.1-16 15.1s-15.5-6.6-16-15.1l-7.6-136c-.8-13.5 10-24.9 23.5-24.9z"/></svg>