<svg xmlns="http://www.w3.org/2000/svg" viewBox="0 0 512 512"><!--! Font Awesome Pro 7.1.0 by @fontawesome - https://fontawesome.com License - https://fontawesome.com/license (Commercial License) Copyright 2025 Fonticons, Inc. --><path opacity=".4" fill="currentColor" d="M48 272c0-114.9 93.1-208 208-208 12.4 0 24.6 1.1 36.4 3.2-2.9 9.1-4.4 18.8-4.4 28.8l0 16c0 8.8 7.2 16 16 16l80 0c19 0 36.8-5.5 51.7-15.1 10.5 11.9 19.9 24.8 27.9 38.6l-7.3 5.1c-6.7 3.9-13.6 7.2-20.9 10 18.2 30.9 28.7 66.9 28.7 105.4 0 114.9-93.1 208-208 208S48 386.9 48 272z"/><path fill="currentColor" d="M384 96c35.3 0 64-28.7 64-64l-64 0c-35.3 0-64 28.7-64 64l64 0zm0 32l-80 0c-8.8 0-16-7.2-16-16l0-16c0-10 1.5-19.7 4.4-28.8-11.8-2.1-24-3.2-36.4-3.2-114.9 0-208 93.1-208 208s93.1 208 208 208 208-93.1 208-208c0-38.5-10.4-74.5-28.7-105.4 10.1-3.8 19.6-8.8 28.5-14.7 20.5 35.3 32.2 76.4 32.2 120.1 0 132.5-107.5 240-240 240S16 404.5 16 272 123.5 32 256 32C273.8 32 291.1 33.9 307.8 37.6 325.3 14.7 353 0 384 0l80 0c8.8 0 16 7.2 16 16l0 16c0 53-43 96-96 96z"/></svg>