<svg xmlns="http://www.w3.org/2000/svg" viewBox="0 0 512 512"><!--! Font Awesome Pro 7.0.1 by @fontawesome - https://fontawesome.com License - https://fontawesome.com/license (Commercial License) Copyright 2025 Fonticons, Inc. --><path style="fill:var(--fa-secondary-color,currentColor);opacity:var(--fa-secondary-opacity,.4)" d="M32 256a224 224 0 1 0 448 0 224 224 0 1 0 -448 0zM240 112c0-8.8 7.2-16 16-16s16 7.2 16 16l0 144c0 8.8-7.2 16-16 16s-16-7.2-16-16l0-144z"/><path style="fill:var(--fa-primary-color,currentColor);opacity:var(--fa-primary-opacity,1)" d="M480 256a224 224 0 1 0 -448 0 224 224 0 1 0 448 0zM0 256a256 256 0 1 1 512 0 256 256 0 1 1 -512 0zM272 112l0 144c0 8.8-7.2 16-16 16s-16-7.2-16-16l0-144c0-8.8 7.2-16 16-16s16 7.2 16 16z"/></svg>