<svg xmlns="http://www.w3.org/2000/svg" viewBox="0 0 512 512"><!--! Font Awesome Pro 7.1.0 by @fontawesome - https://fontawesome.com License - https://fontawesome.com/license (Commercial License) Copyright 2025 Fonticons, Inc. --><path opacity=".4" fill="currentColor" d="M32 240c0 46.7 16.5 89.8 44.8 124.8 8.1 10.1 9.4 24.1 3.2 35.4l-40.2 73.6 101-43.3c7.9-3.4 16.8-3.5 24.8-.2 27.6 11.3 58.2 17.6 90.4 17.6 125.7 0 224-95 224-208S381.7 32 256 32 32 127 32 240zm160-33.7c0-25.6 20.7-46.3 46.3-46.3l1.7 0 0-8c0-8.8 7.2-16 16-16s16 7.2 16 16l0 8 16 0c8.8 0 16 7.2 16 16s-7.2 16-16 16l-49.7 0c-7.9 0-14.3 6.4-14.3 14.3 0 7 5.1 13 12 14.1l45.3 7.6c22.3 3.7 38.7 23 38.7 45.7 0 25.6-20.7 46.3-46.3 46.3l-1.7 0 0 8c0 8.8-7.2 16-16 16s-16-7.2-16-16l0-8-24 0c-8.8 0-16-7.2-16-16s7.2-16 16-16l57.7 0c7.9 0 14.3-6.4 14.3-14.3 0-7-5.1-13-12-14.1L230.7 252c-22.3-3.7-38.7-23-38.7-45.7z"/><path fill="currentColor" d="M80 400.2c6.2-11.4 4.9-25.4-3.2-35.4-28.2-34.9-44.8-78.1-44.8-124.8 0-113 98.3-208 224-208s224 95 224 208-98.3 208-224 208c-32.3 0-62.8-6.3-90.4-17.6-7.9-3.3-16.9-3.2-24.8 .2L39.8 473.8 80 400.2zM0 240c0 54.4 19.3 104.6 51.9 144.9L3.1 474.3c-2 3.7-3.1 7.9-3.1 12.2 0 14.1 11.4 25.5 25.5 25.5 4 0 7.8-.6 11.5-2.1L153.4 460c31.4 12.9 66.1 20 102.6 20 141.4 0 256-107.5 256-240S397.4 0 256 0 0 107.5 0 240zM256 136c-8.8 0-16 7.2-16 16l0 8-1.7 0c-25.6 0-46.3 20.7-46.3 46.3 0 22.6 16.4 42 38.7 45.7l45.3 7.6c6.9 1.1 12 7.1 12 14.1 0 7.9-6.4 14.3-14.3 14.3L216 288c-8.8 0-16 7.2-16 16s7.2 16 16 16l24 0 0 8c0 8.8 7.2 16 16 16s16-7.2 16-16l0-8 1.7 0c25.6 0 46.3-20.7 46.3-46.3 0-22.6-16.4-42-38.7-45.7L236 220.4c-6.9-1.2-12-7.1-12-14.1 0-7.9 6.4-14.3 14.3-14.3l49.7 0c8.8 0 16-7.2 16-16s-7.2-16-16-16l-16 0 0-8c0-8.8-7.2-16-16-16z"/></svg>