<svg xmlns="http://www.w3.org/2000/svg" viewBox="0 0 448 512"><!--! Font Awesome Pro 7.0.1 by @fontawesome - https://fontawesome.com License - https://fontawesome.com/license (Commercial License) Copyright 2025 Fonticons, Inc. --><path style="fill:var(--fa-secondary-color,currentColor);opacity:var(--fa-secondary-opacity,.4)" d="M32 80l0 96c0 8.8 7.2 16 16 16l96 0c8.8 0 16-7.2 16-16l0-96c0-8.8-7.2-16-16-16L48 64c-8.8 0-16 7.2-16 16zM288 336l0 96c0 8.8 7.2 16 16 16l96 0c8.8 0 16-7.2 16-16l0-96c0-8.8-7.2-16-16-16l-96 0c-8.8 0-16 7.2-16 16z"/><path style="fill:var(--fa-primary-color,currentColor);opacity:var(--fa-primary-opacity,1)" d="M144 64c8.8 0 16 7.2 16 16l0 96c0 8.8-7.2 16-16 16l-96 0c-8.8 0-16-7.2-16-16l0-96c0-8.8 7.2-16 16-16l96 0zM112 224l32 0c26.5 0 48-21.5 48-48l0-96c0-26.5-21.5-48-48-48L48 32C21.5 32 0 53.5 0 80l0 96c0 26.5 21.5 48 48 48l32 0 0 96c0 44.2 35.8 80 80 80l96 0 0 32c0 26.5 21.5 48 48 48l96 0c26.5 0 48-21.5 48-48l0-96c0-26.5-21.5-48-48-48l-96 0c-26.5 0-48 21.5-48 48l0 32-96 0c-26.5 0-48-21.5-48-48l0-96zM288 368l0-32c0-8.8 7.2-16 16-16l96 0c8.8 0 16 7.2 16 16l0 96c0 8.8-7.2 16-16 16l-96 0c-8.8 0-16-7.2-16-16l0-64z"/></svg>