<svg xmlns="http://www.w3.org/2000/svg" viewBox="0 0 576 512"><!--! Font Awesome Pro 7.1.0 by @fontawesome - https://fontawesome.com License - https://fontawesome.com/license (Commercial License) Copyright 2025 Fonticons, Inc. --><path opacity=".4" fill="currentColor" d="M206.5 320L528 320c8.8 0 16-7.2 16-16l0 128c0-8.8-7.2-16-16-16l-240.2 0c-5 0-9.7-2.3-12.7-6.3L206.5 320zM224 224c15.1 0 29.3-7.1 38.4-19.2l76.8-102.4c3-4 7.8-6.4 12.8-6.4l176 0c8.8 0 16-7.2 16-16l0 112c0 17.7-14.3 32-32 32l-288 0z"/><path fill="currentColor" d="M352 96c-5 0-9.8 2.4-12.8 6.4L262.4 204.8C253.3 216.9 239.1 224 224 224L16 224c-8.8 0-16-7.2-16-16s7.2-16 16-16l208 0c5 0 9.8-2.4 12.8-6.4L313.6 83.2C322.7 71.1 336.9 64 352 64l176 0c8.8 0 16 7.2 16 16s-7.2 16-16 16L352 96zM206.5 320l68.6 89.7c3 4 7.7 6.3 12.7 6.3L528 416c8.8 0 16 7.2 16 16s-7.2 16-16 16l-240.2 0c-15 0-29-7-38.1-18.8L166.2 320 16 320c-8.8 0-16-7.2-16-16s7.2-16 16-16l162.5 0 2.2-1.7 1.3 1.7 346 0c8.8 0 16 7.2 16 16s-7.2 16-16 16l-321.5 0z"/></svg>