<svg xmlns="http://www.w3.org/2000/svg" viewBox="0 0 640 512"><!--! Font Awesome Pro 7.1.0 by @fontawesome - https://fontawesome.com License - https://fontawesome.com/license (Commercial License) Copyright 2025 Fonticons, Inc. --><path opacity=".4" fill="currentColor" d="M64 256c0-123.7 100.3-224 224-224 82.9 0 155.3 45 194 112l36.2 0c7.4 15.2 13.4 31.3 17.7 48L464 192c-8.8 0-16 7.2-16 16s7.2 16 16 16l78 0c1.3 10.5 2 21.2 2 32s-.7 21.5-2 32l-78 0c-8.8 0-16 7.2-16 16s7.2 16 16 16l71.9 0c-4.3 16.7-10.3 32.8-17.7 48L482 368c-38.7 67-111.1 112-194 112-123.7 0-224-100.3-224-224zm48-40c0 8.8 7.2 16 16 16s16-7.2 16-16c0-13.3 10.7-24 24-24l16 0c13.3 0 24 10.7 24 24 0 8.8 7.2 16 16 16s16-7.2 16-16c0-30.9-25.1-56-56-56l-16 0c-30.9 0-56 25.1-56 56zm22.3 127.9c29.3 34.3 73 56.1 121.7 56.1s92.4-21.8 121.7-56.1c5.7-6.7 5-16.8-1.8-22.6s-16.8-5-22.6 1.8C329.8 350.6 295 368 256 368s-73.8-17.4-97.3-44.9c-5.7-6.7-15.8-7.5-22.6-1.8s-7.5 15.8-1.8 22.6zM272 216c0 8.8 7.2 16 16 16s16-7.2 16-16c0-13.3 10.7-24 24-24l16 0c13.3 0 24 10.7 24 24 0 8.8 7.2 16 16 16s16-7.2 16-16c0-30.9-25.1-56-56-56l-16 0c-30.9 0-56 25.1-56 56z"/><path fill="currentColor" d="M288 480c82.9 0 155.3-45 194-112l36.2 0c-41.5 85.3-129 144-230.3 144-141.4 0-256-114.6-256-256S146.6 0 288 0C389.2 0 476.7 58.7 518.3 144L482 144C443.3 77 370.9 32 288 32 164.3 32 64 132.3 64 256S164.3 480 288 480zM158.7 323.1C182.2 350.6 217 368 256 368s73.8-17.4 97.3-44.9c5.7-6.7 15.8-7.5 22.6-1.8s7.5 15.8 1.8 22.6C348.4 378.2 304.7 400 256 400s-92.4-21.8-121.7-56.1c-5.7-6.7-5-16.8 1.8-22.6s16.8-5 22.6 1.8zM168 192c-13.3 0-24 10.7-24 24 0 8.8-7.2 16-16 16s-16-7.2-16-16c0-30.9 25.1-56 56-56l16 0c30.9 0 56 25.1 56 56 0 8.8-7.2 16-16 16s-16-7.2-16-16c0-13.3-10.7-24-24-24l-16 0zm136 24c0 8.8-7.2 16-16 16s-16-7.2-16-16c0-30.9 25.1-56 56-56l16 0c30.9 0 56 25.1 56 56 0 8.8-7.2 16-16 16s-16-7.2-16-16c0-13.3-10.7-24-24-24l-16 0c-13.3 0-24 10.7-24 24zM544 80c0-8.8 7.2-16 16-16 44.2 0 80 35.8 80 80s-35.8 80-80 80l-96 0c-8.8 0-16-7.2-16-16s7.2-16 16-16l96 0c26.5 0 48-21.5 48-48s-21.5-48-48-48c-8.8 0-16-7.2-16-16zm16 208c18.8 0 35.1-10.8 42.9-26.5 13.8-6 26.3-14.3 37-24.5 0 1 .1 2 .1 3 0 44.2-35.8 80-80 80l-96 0c-8.8 0-16-7.2-16-16s7.2-16 16-16l96 0z"/></svg>