<svg xmlns="http://www.w3.org/2000/svg" viewBox="0 0 512 512"><!--! Font Awesome Pro 7.1.0 by @fontawesome - https://fontawesome.com License - https://fontawesome.com/license (Commercial License) Copyright 2025 Fonticons, Inc. --><path opacity=".4" fill="currentColor" d="M32.1 250.8c0 1.7-.1 3.4-.1 5.2 0 61 24.4 116.4 64 156.8L96 320c0-11.1 2.8-21.5 7.8-30.6L32.1 250.8zm3.4-34.5l91.1 49.1c9.7-6 21.2-9.4 33.4-9.4l192 0c12.2 0 23.7 3.4 33.4 9.4l91.1-49.1C457.8 111.5 366.2 32 256 32S54.2 111.5 35.5 216.3zm79.7-6.7c-5.3-7.1-3.9-17.1 3.2-22.4l6.4-4.8c19.4-14.5 43-22.4 67.2-22.4l16 0c8.8 0 16 7.2 16 16s-7.2 16-16 16l-16 0c-17.3 0-34.2 5.6-48 16l-6.4 4.8c-7.1 5.3-17.1 3.9-22.4-3.2zM288 176c0-8.8 7.2-16 16-16l16 0c24.2 0 47.8 7.9 67.2 22.4l6.4 4.8c7.1 5.3 8.5 15.3 3.2 22.4s-15.3 8.5-22.4 3.2L368 208c-13.8-10.4-30.7-16-48-16l-16 0c-8.8 0-16-7.2-16-16zM408.2 289.4c4.9 9.1 7.8 19.5 7.8 30.6l0 92.8c39.6-40.4 64-95.7 64-156.8 0-1.7 0-3.5-.1-5.2l-71.7 38.6z"/><path fill="currentColor" d="M401.6 466.6C468.3 420.4 512 343.3 512 256 512 114.6 397.4 0 256 0S0 114.6 0 256c0 87.3 43.7 164.4 110.4 210.6 16.9 27.3 47.2 45.4 81.6 45.4l128 0c34.5 0 64.7-18.2 81.6-45.4zM416 412.8l0-92.8c0-11.1-2.8-21.5-7.8-30.6l71.7-38.6c0 1.7 .1 3.4 .1 5.2 0 61-24.4 116.4-64 156.8zM256 32c110.2 0 201.8 79.5 220.5 184.3l-91.1 49.1c-9.7-6-21.2-9.4-33.4-9.4l-192 0c-12.2 0-23.7 3.4-33.4 9.4L35.5 216.3C54.2 111.5 145.8 32 256 32zM96 320l0 92.8c-39.6-40.4-64-95.7-64-156.8 0-1.7 0-3.5 .1-5.2l71.7 38.6C98.8 298.5 96 308.9 96 320zm32 0c0-17.7 14.3-32 32-32l192 0c17.7 0 32 14.3 32 32l0 96c0 35.3-28.7 64-64 64l-128 0c-35.3 0-64-28.7-64-64l0-96zM288 176c0 8.8 7.2 16 16 16l16 0c17.3 0 34.2 5.6 48 16l6.4 4.8c7.1 5.3 17.1 3.9 22.4-3.2s3.9-17.1-3.2-22.4l-6.4-4.8c-19.4-14.5-43-22.4-67.2-22.4l-16 0c-8.8 0-16 7.2-16 16zm-80-16l-16 0c-24.2 0-47.8 7.9-67.2 22.4l-6.4 4.8c-7.1 5.3-8.5 15.3-3.2 22.4s15.3 8.5 22.4 3.2L144 208c13.8-10.4 30.7-16 48-16l16 0c8.8 0 16-7.2 16-16s-7.2-16-16-16zM184 336c-8.8 0-16 7.2-16 16s7.2 16 16 16l144 0c8.8 0 16-7.2 16-16s-7.2-16-16-16l-144 0zm0 64c-8.8 0-16 7.2-16 16s7.2 16 16 16l144 0c8.8 0 16-7.2 16-16s-7.2-16-16-16l-144 0z"/></svg>