<svg xmlns="http://www.w3.org/2000/svg" viewBox="0 0 512 512"><!--! Font Awesome Pro 7.1.0 by @fontawesome - https://fontawesome.com License - https://fontawesome.com/license (Commercial License) Copyright 2025 Fonticons, Inc. --><path opacity=".4" fill="currentColor" d="M0 256c0-71.9 29.7-136.9 77.4-183.4 3.7-.4 7.5-.6 11.3-.6l39.6 0C164.5 46.8 208.5 32 256 32s91.5 14.8 127.8 40l39.6 0c3.8 0 7.6 .2 11.3 .6 47.7 46.5 77.4 111.5 77.4 183.4 0 2.2 0 4.4-.1 6.6-7.9 19.7-21.4 36.2-38.5 47.7-24.3 97.5-112.4 169.7-217.4 169.7S62.9 407.8 38.6 310.3c-17.1-11.5-30.7-28-38.5-47.7-.1-2.2-.1-4.4-.1-6.6zm25.5-69.5l8 48C38.7 265.4 65.4 288 96.7 288l78.7 0c31.3 0 58-22.6 63.1-53.5l8-48c.6-3.5 .9-7.1 .9-10.5l17.3 0c0 3.5 .3 7 .9 10.5l8 48c5.1 30.9 31.8 53.5 63.1 53.5l78.7 0c31.3 0 58-22.6 63.1-53.5l8-48c6.5-39-23.6-74.5-63.1-74.5l-94.7 0c-24 0-44.5 13-55.4 32l-34.5 0c-11-19-31.5-32-55.4-32l-94.7 0c-39.5 0-69.6 35.5-63.1 74.5zM134.3 359.9c29.3 34.3 73 56.1 121.7 56.1s92.4-21.8 121.7-56.1c5.7-6.7 5-16.8-1.8-22.6s-16.8-5-22.6 1.8C329.8 366.6 295 384 256 384s-73.8-17.4-97.3-44.9c-5.7-6.7-15.8-7.5-22.6-1.8s-7.5 15.8-1.8 22.6z"/><path fill="currentColor" d="M256 480c105 0 193.1-72.2 217.4-169.7 17.1-11.5 30.7-28 38.5-47.7-3.5 138.3-116.7 249.4-255.9 249.4S3.6 400.9 .1 262.6C7.9 282.3 21.5 298.8 38.6 310.3 62.9 407.8 151 480 256 480zM128.2 72L88.7 72C84.8 72 81.1 72.2 77.4 72.6 123.5 27.7 186.5 0 256 0S388.5 27.7 434.6 72.6c-3.7-.4-7.5-.6-11.3-.6l-39.6 0C347.5 46.8 303.5 32 256 32S164.5 46.8 128.2 72zm7.9 265.3c6.7-5.7 16.8-5 22.6 1.8 23.5 27.5 58.4 44.9 97.3 44.9s73.8-17.4 97.3-44.9c5.7-6.7 15.8-7.5 22.6-1.8s7.5 15.8 1.8 22.6C348.4 394.2 304.7 416 256 416s-92.4-21.8-121.7-56.1c-5.7-6.7-5-16.8 1.8-22.6zM264.6 176l-17.3 0c0 3.5-.3 7-.9 10.5l-8 48c-5.1 30.9-31.8 53.5-63.1 53.5l-78.7 0c-31.3 0-58-22.6-63.1-53.5l-8-48C19 147.5 49.1 112 88.7 112l94.7 0c24 0 44.5 13 55.4 32l34.5 0c11-19 31.5-32 55.4-32l94.7 0c39.5 0 69.6 35.5 63.1 74.5l-8 48c-5.1 30.9-31.8 53.5-63.1 53.5l-78.7 0c-31.3 0-58-22.6-63.1-53.5l-8-48c-.6-3.5-.9-7.1-.9-10.5zm32.5 5.3l8 48c1 5.9 3.5 11.1 7.1 15.4l33.6-100.7-17.1 0c-19.8 0-34.8 17.8-31.6 37.3zM409.8 144l-30.3 0-37.3 112 30.3 0 37.3-112zm31.8 5.7l-35.4 106.3 9.1 0c15.6 0 29-11.3 31.6-26.7l8-48c2.1-12.7-3.6-24.7-13.3-31.5zM88.7 144c-19.8 0-34.8 17.8-31.6 37.3l8 48c1 5.9 3.5 11.1 7.1 15.4l33.6-100.7-17.1 0zm43.8 112l37.3-112-30.3 0-37.3 112 30.3 0zm69.2-106.3l-35.4 106.3 9.1 0c15.6 0 29-11.3 31.6-26.7l8-48c2.1-12.7-3.6-24.7-13.3-31.5z"/></svg>