<svg xmlns="http://www.w3.org/2000/svg" viewBox="0 0 512 512"><!--! Font Awesome Pro 7.1.0 by @fontawesome - https://fontawesome.com License - https://fontawesome.com/license (Commercial License) Copyright 2025 Fonticons, Inc. --><path opacity=".4" fill="currentColor" d="M32 96l0 288c0 17.7 14.3 32 32 32l384 0c17.7 0 32-14.3 32-32l0-240c0-17.7-14.3-32-32-32l-149.3 0c-13.8 0-27.3-4.5-38.4-12.8L221.9 70.4c-5.5-4.2-12.3-6.4-19.2-6.4L64 64C46.3 64 32 78.3 32 96zM164.5 295.6c-6.1-6.4-6-16.5 .4-22.6s16.5-5.9 22.6 .4l41.2 42.6 94.4-129.8c5.2-7.1 15.2-8.7 22.3-3.5s8.7 15.2 3.5 22.3L243.3 350.2c-2.8 3.8-7.1 6.2-11.8 6.5s-9.3-1.4-12.6-4.8l-54.4-56.3z"/><path fill="currentColor" d="M202.7 32c13.8 0 27.3 4.5 38.4 12.8l38.4 28.8c5.5 4.2 12.3 6.4 19.2 6.4L448 80c35.3 0 64 28.7 64 64l0 240c0 35.3-28.7 64-64 64L64 448c-35.3 0-64-28.7-64-64L0 96C0 60.7 28.7 32 64 32l138.7 0zM64 64C46.3 64 32 78.3 32 96l0 288c0 17.7 14.3 32 32 32l384 0c17.7 0 32-14.3 32-32l0-240c0-17.7-14.3-32-32-32l-149.3 0c-13.8 0-27.3-4.5-38.4-12.8L221.9 70.4c-5.5-4.2-12.3-6.4-19.2-6.4L64 64zM323.1 186.2c5.2-7.1 15.2-8.7 22.3-3.5s8.7 15.2 3.5 22.3L243.3 350.2c-2.8 3.8-7.1 6.2-11.8 6.5s-9.3-1.4-12.6-4.8l-54.4-56.3c-6.1-6.4-6-16.5 .4-22.6s16.5-5.9 22.6 .4l41.2 42.6 94.4-129.8z"/></svg>