<svg xmlns="http://www.w3.org/2000/svg" viewBox="0 0 512 512"><!--! Font Awesome Pro 7.1.0 by @fontawesome - https://fontawesome.com License - https://fontawesome.com/license (Commercial License) Copyright 2025 Fonticons, Inc. --><path opacity=".4" fill="currentColor" d="M32 96l0 288c0 17.7 14.3 32 32 32l384 0c17.7 0 32-14.3 32-32l0-240c0-17.7-14.3-32-32-32l-149.3 0c-13.8 0-27.3-4.5-38.4-12.8L221.9 70.4c-5.5-4.2-12.3-6.4-19.2-6.4L64 64C46.3 64 32 78.3 32 96zM80 232c0-13.3 10.7-24 24-24l48 0c13.3 0 24 10.7 24 24l0 48c0 13.3-10.7 24-24 24l-48 0c-13.3 0-24-10.7-24-24l0-48zm128 0c0-13.3 10.7-24 24-24l48 0c13.3 0 24 10.7 24 24l0 48c0 13.3-10.7 24-24 24l-48 0c-13.3 0-24-10.7-24-24l0-48zm128 0c0-13.3 10.7-24 24-24l48 0c13.3 0 24 10.7 24 24l0 48c0 13.3-10.7 24-24 24l-48 0c-13.3 0-24-10.7-24-24l0-48z"/><path fill="currentColor" d="M448 416L64 416c-17.7 0-32-14.3-32-32L32 96c0-17.7 14.3-32 32-32l138.7 0c6.9 0 13.7 2.2 19.2 6.4l38.4 28.8c11.1 8.3 24.6 12.8 38.4 12.8L448 112c17.7 0 32 14.3 32 32l0 240c0 17.7-14.3 32-32 32zM64 448l384 0c35.3 0 64-28.7 64-64l0-240c0-35.3-28.7-64-64-64L298.7 80c-6.9 0-13.7-2.2-19.2-6.4L241.1 44.8C230 36.5 216.5 32 202.7 32L64 32C28.7 32 0 60.7 0 96L0 384c0 35.3 28.7 64 64 64zm48-176l0-32 32 0 0 32-32 0zM80 232l0 48c0 13.3 10.7 24 24 24l48 0c13.3 0 24-10.7 24-24l0-48c0-13.3-10.7-24-24-24l-48 0c-13.3 0-24 10.7-24 24zm160 8l32 0 0 32-32 0 0-32zm-8-32c-13.3 0-24 10.7-24 24l0 48c0 13.3 10.7 24 24 24l48 0c13.3 0 24-10.7 24-24l0-48c0-13.3-10.7-24-24-24l-48 0zm136 64l0-32 32 0 0 32-32 0zm-32-40l0 48c0 13.3 10.7 24 24 24l48 0c13.3 0 24-10.7 24-24l0-48c0-13.3-10.7-24-24-24l-48 0c-13.3 0-24 10.7-24 24z"/></svg>