<svg xmlns="http://www.w3.org/2000/svg" viewBox="0 0 512 512"><!--! Font Awesome Pro 7.1.0 by @fontawesome - https://fontawesome.com License - https://fontawesome.com/license (Commercial License) Copyright 2025 Fonticons, Inc. --><path opacity=".4" fill="currentColor" d="M32 96l0 288c0 17.7 14.3 32 32 32l384 0c17.7 0 32-14.3 32-32l0-240c0-17.7-14.3-32-32-32l-149.3 0c-13.8 0-27.3-4.5-38.4-12.8L221.9 70.4c-5.5-4.2-12.3-6.4-19.2-6.4L64 64C46.3 64 32 78.3 32 96zM172.7 260.7c6.2-6.2 16.4-6.2 22.6 0L240 305.4 240 184c0-8.8 7.2-16 16-16s16 7.2 16 16l0 121.4 44.7-44.7c6.2-6.2 16.4-6.2 22.6 0s6.2 16.4 0 22.6l-72 72c-6.2 6.2-16.4 6.2-22.6 0l-72-72c-6.2-6.2-6.2-16.4 0-22.6z"/><path fill="currentColor" d="M448 416L64 416c-17.7 0-32-14.3-32-32L32 96c0-17.7 14.3-32 32-32l138.7 0c6.9 0 13.7 2.2 19.2 6.4l38.4 28.8c11.1 8.3 24.6 12.8 38.4 12.8L448 112c17.7 0 32 14.3 32 32l0 240c0 17.7-14.3 32-32 32zM64 448l384 0c35.3 0 64-28.7 64-64l0-240c0-35.3-28.7-64-64-64L298.7 80c-6.9 0-13.7-2.2-19.2-6.4L241.1 44.8C230 36.5 216.5 32 202.7 32L64 32C28.7 32 0 60.7 0 96L0 384c0 35.3 28.7 64 64 64zm180.7-92.7c6.2 6.2 16.4 6.2 22.6 0l72-72c6.2-6.2 6.2-16.4 0-22.6s-16.4-6.2-22.6 0L272 305.4 272 184c0-8.8-7.2-16-16-16s-16 7.2-16 16l0 121.4-44.7-44.7c-6.2-6.2-16.4-6.2-22.6 0s-6.2 16.4 0 22.6l72 72z"/></svg>