<svg xmlns="http://www.w3.org/2000/svg" viewBox="0 0 512 512"><!--! Font Awesome Pro 7.0.0 by @fontawesome - https://fontawesome.com License - https://fontawesome.com/license (Commercial License) Copyright 2025 Fonticons, Inc. --><path style="fill:var(--fa-secondary-color,currentColor);opacity:var(--fa-secondary-opacity,.4)" d="M32 96l0 288c0 17.7 14.3 32 32 32l384 0c17.7 0 32-14.3 32-32l0-240c0-17.7-14.3-32-32-32l-149.3 0c-13.8 0-27.3-4.5-38.4-12.8L221.9 70.4c-5.5-4.2-12.3-6.4-19.2-6.4L64 64C46.3 64 32 78.3 32 96zM179.2 281.6c-5.3-7.1-3.9-17.1 3.2-22.4s17.1-3.9 22.4 3.2l34 45.3 67.6-108.2c4.7-7.5 14.6-9.8 22-5.1s9.8 14.6 5.1 22l-80 128c-2.8 4.5-7.6 7.3-12.9 7.5s-10.3-2.2-13.5-6.4l-48-64z"/><path style="fill:var(--fa-primary-color,currentColor);opacity:var(--fa-primary-opacity,1)" d="M448 416L64 416c-17.7 0-32-14.3-32-32L32 96c0-17.7 14.3-32 32-32l138.7 0c6.9 0 13.7 2.2 19.2 6.4l38.4 28.8c11.1 8.3 24.6 12.8 38.4 12.8L448 112c17.7 0 32 14.3 32 32l0 240c0 17.7-14.3 32-32 32zM64 448l384 0c35.3 0 64-28.7 64-64l0-240c0-35.3-28.7-64-64-64L298.7 80c-6.9 0-13.7-2.2-19.2-6.4L241.1 44.8C230 36.5 216.5 32 202.7 32L64 32C28.7 32 0 60.7 0 96L0 384c0 35.3 28.7 64 64 64zM333.6 216.5c4.7-7.5 2.4-17.4-5.1-22s-17.4-2.4-22 5.1l-67.6 108.2-34-45.3c-5.3-7.1-15.3-8.5-22.4-3.2s-8.5 15.3-3.2 22.4l48 64c3.2 4.2 8.2 6.6 13.5 6.4s10.1-3 12.9-7.5l80-128z"/></svg>