<svg xmlns="http://www.w3.org/2000/svg" viewBox="0 0 640 512"><!--! Font Awesome Pro 7.1.0 by @fontawesome - https://fontawesome.com License - https://fontawesome.com/license (Commercial License) Copyright 2025 Fonticons, Inc. --><path opacity=".4" fill="currentColor" d="M112.1 119.3c17.7 0 32 14.3 32 32l0 46.2 70.5-158.2c7.2-16.1 26.1-23.4 42.2-16.2S280.2 49.2 273 65.3l13-29.2c7.2-16.1 26.1-23.4 42.2-16.2S351.7 46 344.5 62.1l-13 29.2c7.2-16.1 26.1-23.4 42.2-16.2 16 7.1 23.2 25.7 16.5 41.7l-75.7 32.8c-74.4 33.1-122.4 106.9-122.4 188.3 0 5.2 .2 10.4 .6 15.5-5.4-.9-11-1.4-16.6-1.4-10 0-19.7 1.5-28.8 4.4-41.6-29.2-67.2-77.3-67.2-129.5l0-75.7c0-17.7 14.3-32 32-32zm158.5 312c-3.2-18.5-11.8-35.2-24-48.4-4.2-14.2-6.5-29.3-6.5-44.9 0-62.5 36.8-119.1 93.9-144.4l69.1-30.7c16.2-7.2 35.1 .1 42.2 16.2s-.1 35.1-16.2 42.2l-42.2 18.8 173.2 0c17.7 0 32 14.3 32 32s-14.3 32-32 32l32 0c17.7 0 32 14.3 32 32s-14.3 32-32 32l-32 0c17.7 0 32 14.3 32 32s-14.3 32-32 32l-31.9 0c17.6 0 31.9 14.4 31.9 32 0 17.7-14.3 32-32 32l-129.9 0c-52.4 0-98.8-25.5-127.6-64.7z"/><path fill="currentColor" d="M416.1 24a24 24 0 1 1 48 0 24 24 0 1 1 -48 0zM366.1 512c-37.1 0-71.5-11.6-99.7-31.4 3.7-10.2 5.7-21.2 5.7-32.6 0-1.2 0-2.4-.1-3.7 25.1 22.2 58 35.7 94.1 35.7l129.9 0c8.8 0 16-7.2 16-16 0-8.8-7.1-16-15.9-16l-64.1 0c-8.8 0-16-7.2-16-16s7.2-16 16-16l96 0c8.8 0 16-7.2 16-16s-7.2-16-16-16l-96 0c-8.8 0-16-7.2-16-16s7.2-16 16-16l128 0c8.8 0 16-7.2 16-16s-7.2-16-16-16l-128 0c-8.8 0-16-7.2-16-16s7.2-16 16-16l96 0c8.8 0 16-7.2 16-16s-7.2-16-16-16l-173.2 0c-7.6 0-14.1-5.3-15.7-12.7s2.2-14.9 9.2-17.9l42.2-18.8c8.1-3.6 11.7-13 8.1-21.1s-13-11.7-21.1-8.1l-69.1 30.7c-51.3 22.8-84.4 73.7-84.4 129.8 0 9.8 1 19.4 2.9 28.7-10.3-6.4-21.8-11-34.2-13.1-.5-5.1-.7-10.3-.7-15.5 0-68.8 40.5-131.1 103.4-159.1l69.1-30.7c24.2-10.8 52.6 .1 63.4 24.4 7.9 17.8 4.1 37.8-8.1 51.5l108.2 0c26.5 0 48 21.5 48 48 0 6.2-1.2 12.2-3.4 17.7 20.4 5.5 35.4 24.2 35.4 46.3s-15 40.8-35.4 46.3c2.2 5.5 3.4 11.4 3.4 17.7 0 22.1-15 40.8-35.4 46.3 2.2 5.5 3.4 11.4 3.4 17.7 0 26.5-21.5 48-48 48l-129.9 0zM31.9 224.2l.5-75.6c.2-26.5 21.8-47.8 48.3-47.7 19.5 .1 36.2 11.9 43.6 28.6L169 31c10.9-24.1 39.4-34.9 63.5-23.9 5.7 2.6 10.6 6.1 14.7 10.4 13.5-16.3 36.6-22.2 56.8-13.1s31 30.5 27.6 51.3c5.9 .3 11.8 1.7 17.5 4.2 19.3 8.8 30 28.7 27.9 48.7l-40.4 17.5 7.2-15.9c3.6-8 .1-17.5-8-21.2s-17.5-.1-21.2 8l-21.8 48.1-10.2 4.4-.4 .2 0 0c-12.8 5.7-24.8 12.6-35.9 20.5 30.4-67.1 47.8-105.6 52.3-115.5 3.6-8 .1-17.5-8-21.2s-17.5-.1-21.2 8c-4.4 9.7-22 48.6-52.8 116.6-3.6 8-13.1 11.6-21.2 8s-11.6-13.1-8-21.2l39.6-87.4c3.6-8 .1-17.5-8-21.2s-17.5-.1-21.2 8L126.7 201.9c-3.1 6.9-10.6 10.6-18 9s-12.6-8.2-12.6-15.7l.3-46.2c.1-8.8-7.1-16-15.9-16.1S64.5 140 64.5 148.8l-.5 75.7c-.4 56.1 32.3 107.3 83.5 130.4 .7 .3 1.3 .6 2 .9-12.7 3.7-24.4 9.9-34.3 18.1-51.6-31.6-83.5-88.1-83.1-149.6zM208.1 448a32 32 0 1 0 -64 0 32 32 0 1 0 64 0zm-96 0a64 64 0 1 1 128 0 64 64 0 1 1 -128 0zm432-304a16 16 0 1 0 -32 0 16 16 0 1 0 32 0zm-64 0a48 48 0 1 1 96 0 48 48 0 1 1 -96 0z"/></svg>