<svg xmlns="http://www.w3.org/2000/svg" viewBox="0 0 640 512"><!--! Font Awesome Pro 7.1.0 by @fontawesome - https://fontawesome.com License - https://fontawesome.com/license (Commercial License) Copyright 2025 Fonticons, Inc. --><path opacity=".4" fill="currentColor" d="M256 272l0 160c0 8.8 7.2 16 16 16l188.3 0c14.1 0 26.6-9.3 30.7-22.8l49.5-165.1-126.1-112.1-31.2 96.9C381.1 251.5 375 256 368 256l-96 0c-8.8 0-16 7.2-16 16z"/><path fill="currentColor" d="M415.4 40.2C423.3 15.8 449 1.9 473.7 8.6L588.5 39.9c26 7.1 41.1 34.3 33.3 60.1L521.6 434.4c-8.1 27.1-33 45.6-61.3 45.6L272 480c-26.5 0-48-21.5-48-48l0-160c0-26.5 21.5-48 48-48l84.3 0 59.1-183.8zm49.9-.7c-8.3-2.3-16.8 2.4-19.4 10.5l-20.8 64.6 1.5 1.4 124 110.2 40.6-135.4c2.6-8.6-2.4-17.7-11.1-20L465.3 39.5zm75.2 220.6L414.4 148 383.2 244.9C381.1 251.5 375 256 368 256l-96 0c-8.8 0-16 7.2-16 16l0 160c0 8.8 7.2 16 16 16l188.3 0c14.1 0 26.6-9.3 30.7-22.8l49.5-165.1zM32 328a24 24 0 1 1 0 48 24 24 0 1 1 0-48zM56 448a24 24 0 1 1 -48 0 24 24 0 1 1 48 0zm72-168a24 24 0 1 1 0 48 24 24 0 1 1 0-48zM56 256a24 24 0 1 1 -48 0 24 24 0 1 1 48 0zm72 120a24 24 0 1 1 0 48 24 24 0 1 1 0-48z"/></svg>