<svg xmlns="http://www.w3.org/2000/svg" viewBox="0 0 512 512"><!--! Font Awesome Pro 7.1.0 by @fontawesome - https://fontawesome.com License - https://fontawesome.com/license (Commercial License) Copyright 2025 Fonticons, Inc. --><path opacity=".4" fill="currentColor" d="M32.7 280.8c2 5.7 4.2 11.2 6.7 16.7 4.5 10.2 3.9 19.4 2.5 26-2.3 8.3-5.8 16.2-8.9 24.3 5.5 6.6 12 12.2 17.1 19.2 3.7 5.7 5.5 11.6 6.3 16.3 1.1 8.4 .9 16.7 1.2 25.1 10.5 4.9 21.2 8.3 29.6 16.7 8.5 8.4 11.8 19.1 16.8 29.6 8.4 .3 16.8 .1 25.1 1.2 4.8 .8 10.6 2.6 16.3 6.3 6.9 5.1 12.6 11.5 19.2 17.1 8.1-3.1 15.9-6.6 24.3-8.9 6.5-1.4 15.8-2 26 2.5 5.5 2.4 11.1 4.6 16.7 6.7 7.2-5.5 14.2-11.2 22.2-15.7 4.4-2.2 10.3-4.3 17.3-4.7 6.6 0 13.1 1.2 19.6 2.3 2.8 .5 5.6 1 8.4 1.4 4.9-5.5 9.7-11.1 14.9-16.4 5-4.8 15.1-12.3 29.5-12.3l18.7-.5c3-5.2 6.4-11.9 11.3-18.8 6.9-8.7 15-15.6 26.2-17.9 5.9-1.4 11.9-2.7 17.8-4.3 1.6-5.5 3.3-12.7 6.3-20.6 2.3-6.2 7.8-17.1 20.2-23.6 5.1-2.8 10.2-5.6 15.2-8.7-.3-8.8-1-17.4-.4-26.1 .8-6.7 3.3-15.5 10.5-23.3 3.4-3.9 11.9-9.8 12-9.8-3.2-7-6.2-14.1-9.7-21-2.6-6.1-6.1-17.7-1.8-30.9 2.5-7.9 3.6-10.1 3.6-13-.3-4.4-1-7.9-3.7-11.4-7.6-8.6-20.6-13.5-30.8-18.6-24.4-12.1-48.6-24.1-69.1-42.8-18.7-20.4-30.6-44.4-42.7-68.8-2.4-4.8-4.8-9.7-7.3-14.5-3.1-5.9-6.3-12-11.3-16.4-3.5-2.6-7.1-3.4-11.4-3.7-2.9 0-5.1 1.1-13 3.6-13.2 4.3-24.8 .8-30.9-1.8-4.6-2.3-9.2-4.4-13.9-6.5-2.4-1.1-4.8-2.1-7.1-3.2-.1 .2-5.9 8.6-9.8 12-7.8 7.1-16.7 9.6-23.3 10.5-8.7 .6-17.4-.1-26.1-.4-3.1 5-5.9 10.1-8.7 15.2-6.5 12.4-17.3 17.9-23.6 20.3-7.8 3-15.1 4.7-20.6 6.3-1.5 5.6-2.9 11.3-4.2 16.9-2.6 11.3-9.1 19.9-18.1 27-6.9 4.8-13.6 8.2-18.8 11.2L78.1 169c0 14.4-7.5 24.5-12.3 29.5-5.3 5.2-10.9 10-16.4 14.9 .4 2.8 .9 5.6 1.3 8.3 1.1 6.5 2.3 13 2.3 19.6-.3 7-2.5 12.9-4.7 17.3-4.5 7.9-10.2 14.9-15.7 22.2zm103.8 76l8-40c1.1-5.5 5-10 10.3-11.9l2.3-.7 40-8 3.2-.3c7.4 0 14.1 5.3 15.6 12.9s-2.6 15-9.4 17.9l-3.1 .9-29.5 5.9-5.9 29.5-.9 3.1c-2.9 6.8-10.3 10.9-17.9 9.4s-12.8-8.2-12.9-15.6l.3-3.2zm32-160l8-40c1.1-5.5 5-10 10.3-11.9l2.3-.7 40-8 3.2-.3c7.4 0 14.1 5.3 15.6 12.9s-2.6 15-9.4 17.9l-3.1 .9-29.5 5.9-5.9 29.5-.9 3.1c-2.9 6.8-10.3 10.9-17.9 9.4-7.6-1.5-12.8-8.2-12.9-15.6l.3-3.2zm128 128l8-40c1.1-5.5 5-10 10.2-11.9l2.3-.7 40-8 3.2-.3c7.4 0 14.1 5.3 15.6 12.9 1.5 7.6-2.6 15-9.4 17.9l-3.1 .9-29.5 5.9-5.9 29.5-.9 3.1c-2.9 6.8-10.3 10.9-17.9 9.4s-12.8-8.2-12.9-15.6l.3-3.2z"/><path fill="currentColor" d="M234.1-.9c8.6 1.2 16.5 5.1 24.3 9 2.4 1.2 4.9 2.4 7.3 3.6 2.6 1.1 5.6 1.6 8.3 .7 7.4-2.4 15-4.8 22.8-5.2 12.2 0 21.7 3.4 29.4 9.1 7.9 6.4 14 14.3 19 23.1 3.8 7.2 7.4 14.6 11 22 1.8 3.8 3.7 7.6 5.6 11.3l29.8-17.8 .6-.3 .6-.3c21-10.2 43-5.5 56.8 8.4s18.7 35.8 8.4 56.8l-.3 .6-.4 .6-17.9 29.7c3.8 1.9 7.6 3.8 11.4 5.7 7.4 3.6 14.8 7.2 21.9 11 8.9 5.1 16.7 11.1 23.1 19 5.7 7.7 9.1 17.1 9.1 29.4-.3 7.9-2.8 15.4-5.2 22.8-.9 2.7-.4 5.7 .7 8.3 1.1 2.4 2.3 4.8 3.5 7.2 3.9 7.8 7.9 15.7 9 24.3 1.9 13.9-4.6 22.4-15.5 29.7-4.5 3-7.6 5.9-7.6 11.7 0 7.6 2.9 14.3 1 23.1-2.1 9.7-5 16.8-12.1 22.2-4.5 3.6-9.9 6.4-15.2 9.1-4.5 2.3-8.5 4.1-10.3 9.2-2.7 7.2-3.9 14.8-6.6 22-2.6 7.6-8.3 12.9-15.3 16.2-8.2 3.3-16.9 4.9-25.5 6.8-2.1 .4-3.8 1.6-5.2 3.2-5.1 6.4-9.3 14.1-12.9 21.3-4.9 7.7-12.9 11.7-21.6 12.7-7.6 .9-15.4 .7-23.1 .7-2.8 0-5.4 1.5-7.5 3.4-5.5 5.2-10.1 11.4-15.2 17-6.2 6.6-14.7 9-23.4 8.4-8.2-.5-16.3-2.7-24.3-3.8-2.2 0-4.7 1-6.7 2.2-5.2 3.2-11.5 9-18 13.7-6.5 4.6-14.2 5.7-21.7 4.3-8.1-1.9-15.9-5.3-23.5-8.7-3.2-1.4-6.1-1.7-9.5-.5-6.6 2.5-13.9 6.3-21.5 8.5-8.6 2.8-19.1 .8-26.1-5.1-2.2-1.8-4.4-4.2-6.7-6.6-4.3-4.6-8.8-9.5-14-11.1-4.8-.9-9.7-.9-14.6-.8-4.1 0-8.1 0-12.2-.5-9.2-.8-16.7-6.3-21.5-14-4.9-7.9-6-17.8-12.8-24.6s-16.7-7.8-24.6-12.8c-7.6-4.8-13.1-12.3-14-21.5-1.1-8.9 .3-18-1.3-26.8-2.6-7.9-12.6-14.3-17.7-20.7-5.9-6.9-7.9-17.5-5.1-26.1 2.2-7.6 6-14.9 8.5-21.5 1.2-3.4 .9-6.3-.5-9.5-3.4-7.6-6.8-15.4-8.7-23.5-1.4-7.5-.2-15.2 4.3-21.7 4.7-6.6 10.4-12.8 13.7-18 1.3-2 2.3-4.4 2.2-6.7-1.1-8.1-3.3-16.2-3.8-24.3-.5-8.7 1.9-17.1 8.4-23.4 5.6-5.1 11.7-9.7 17-15.2 2-2.1 3.4-4.6 3.4-7.5 0-7.7-.2-15.4 .7-23.1 1.1-8.6 5.1-16.7 12.7-21.6 7.3-3.6 15-7.9 21.3-12.9 2.6-2.4 3.3-5.9 4.1-9.3 1.6-7.3 3.2-14.6 6-21.5 3.2-7 8.6-12.6 16.2-15.2 7.2-2.6 14.8-3.9 22-6.6 2.7-1 5.2-2.6 6.5-5.1 .9-1.7 1.8-3.5 2.7-5.2 2.7-5.3 5.5-10.6 9.1-15.2 5.4-7.1 12.6-10 22.2-12.1 5.6-1.2 10.3-.5 14.9 .2 2.7 .4 5.4 .8 8.2 .8 5.8 0 8.7-3.1 11.7-7.6 7.3-10.8 15.8-17.4 29.7-15.5zm-2.2 32.2c-.1 .2-5.9 8.6-9.8 12-7.8 7.1-16.7 9.6-23.3 10.5-8.7 .6-17.4-.1-26.1-.4-3.1 5-5.9 10.1-8.7 15.2-6.5 12.4-17.3 17.9-23.6 20.3-7.8 3-15.1 4.7-20.6 6.3-1.5 5.6-2.9 11.3-4.2 16.9-2.6 11.3-9.1 19.9-18.1 27-6.9 4.8-13.6 8.2-18.8 11.2L78.1 169c0 14.4-7.5 24.5-12.3 29.5-5.3 5.2-10.9 10-16.4 14.9 .4 2.8 .9 5.6 1.3 8.3 1.1 6.5 2.3 13 2.3 19.6-.3 7-2.5 12.9-4.7 17.3-4.5 7.9-10.2 14.9-15.7 22.2 2 5.7 4.2 11.2 6.7 16.7 4.5 10.2 3.9 19.4 2.5 26-2.3 8.3-5.8 16.2-8.9 24.3 5.5 6.6 12 12.2 17.1 19.2 3.7 5.7 5.5 11.6 6.3 16.3 1.1 8.4 .9 16.7 1.2 25.1 10.5 4.9 21.2 8.3 29.6 16.7 8.5 8.4 11.8 19.1 16.8 29.6 8.4 .3 16.8 .1 25.1 1.2 4.8 .8 10.6 2.6 16.3 6.3 6.9 5.1 12.6 11.5 19.2 17.1 8.1-3.1 15.9-6.6 24.3-8.9 6.5-1.4 15.8-2 26 2.5 5.5 2.4 11.1 4.6 16.7 6.7 7.2-5.5 14.2-11.2 22.2-15.7 4.4-2.2 10.3-4.3 17.3-4.7 6.6 0 13.1 1.2 19.6 2.3 2.8 .5 5.6 1 8.4 1.4 4.9-5.5 9.7-11.1 14.9-16.4 5-4.8 15.1-12.3 29.5-12.3l18.7-.5c3-5.2 6.4-11.9 11.3-18.8 6.9-8.7 15-15.6 26.2-17.9 5.9-1.4 11.9-2.7 17.8-4.3 1.6-5.5 3.3-12.7 6.3-20.6 2.3-6.2 7.8-17.1 20.2-23.6 5.1-2.8 10.2-5.6 15.2-8.7-.3-8.8-1-17.4-.4-26.1 .8-6.7 3.3-15.5 10.5-23.3 3.4-3.9 11.9-9.8 12-9.8-3.2-7-6.2-14.1-9.7-21-2.6-6.1-6.1-17.7-1.8-30.9 2.5-7.9 3.6-10.1 3.6-13-.3-4.4-1-7.9-3.7-11.4-7.6-8.6-20.6-13.5-30.8-18.6-24.4-12.1-48.6-24.1-69.1-42.8-18.7-20.4-30.6-44.4-42.7-68.8-2.4-4.8-4.8-9.7-7.3-14.5-3.1-5.9-6.3-12-11.3-16.4-3.5-2.6-7.1-3.4-11.4-3.7-2.9 0-5.1 1.1-13 3.6-13.2 4.3-24.8 .8-30.9-1.8-4.6-2.3-9.2-4.4-13.9-6.5-2.4-1.1-4.8-2.1-7.1-3.2zM200.3 296c7.4 0 14.1 5.3 15.6 12.9s-2.6 15-9.4 17.9l-3.1 .9-29.5 5.9-5.9 29.5-.9 3.1c-2.9 6.8-10.3 10.9-17.9 9.4s-12.8-8.2-12.9-15.6l.3-3.2 8-40c1.1-5.5 5-10 10.3-11.9l2.3-.7 40-8 3.2-.3zm160-32c7.4 0 14.1 5.3 15.6 12.9 1.5 7.6-2.6 15-9.4 17.9l-3.1 .9-29.5 5.9-5.9 29.5-.9 3.1c-2.9 6.8-10.3 10.9-17.9 9.4s-12.8-8.2-12.9-15.6l.3-3.2 8-40c1.1-5.5 5-10 10.2-11.9l2.3-.7 40-8 3.2-.3zm-128-128c7.4 0 14.1 5.3 15.6 12.9s-2.6 15-9.4 17.9l-3.1 .9-29.5 5.9-5.9 29.5-.9 3.1c-2.9 6.8-10.3 10.9-17.9 9.4-7.6-1.5-12.8-8.2-12.9-15.6l.3-3.2 8-40c1.1-5.5 5-10 10.3-11.9l2.3-.7 40-8 3.2-.3zM427 85.3c-4.2-4.2-11.3-6.5-19.9-2.5l-29.8 17.9c4.4 6.8 9.3 13.3 14.9 19.3 6 5.6 12.5 10.5 19.3 14.9l17.9-29.8c4-8.6 1.8-15.7-2.4-19.8z"/></svg>