<svg xmlns="http://www.w3.org/2000/svg" viewBox="0 0 640 512"><!--! Font Awesome Pro 7.1.0 by @fontawesome - https://fontawesome.com License - https://fontawesome.com/license (Commercial License) Copyright 2025 Fonticons, Inc. --><path opacity=".4" fill="currentColor" d="M48.9 439.9L150.4 252.8 200.9 303c5.9 5.9 15.4 6.2 21.7 .8l55.5-47.8 85.6 0 99.8 183.9c.7 1.3 .8 2.7 .4 4.1l-.6 1.3c-1 1.7-2.8 2.7-4.7 2.7l-405 0c-1.4 0-2.8-.6-3.8-1.6l-.9-1.1c-1-1.7-1-3.8-.1-5.4z"/><path fill="currentColor" d="M261.3 32.3c11.7 1.6 22.1 8.7 27.9 19.2l202.5 373c6.3 11.6 6 25.7-.8 37.1l-2.8 4c-6 7.7-14.9 12.7-24.5 14l-4.9 .3-405 0-4.9-.3c-9.7-1.3-18.5-6.3-24.5-14l-2.8-4c-6.8-11.4-7.1-25.5-.7-37.1l202.5-373 2.8-4.3c7-9.5 18.2-15.3 30.2-15.3l5.1 .3zM422.3 96.3c10 1.4 18.8 7.4 23.8 16.3l175.5 320 1.8 3.8c3.5 9.1 2.7 19.4-2.3 27.9l-2.4 3.5c-5.2 6.6-12.7 10.8-21 11.9l-4.2 .3-57.9 0c4.9-10.1 7.8-21 8.5-32l49.4 0-.3-.7-175.1-319.3-.6 1-15.8 28.8-18.2-33.4 6.5-11.8 2.3-3.7c6-8.1 15.5-13 25.7-13l4.3 .3zM48.9 439.9c-.9 1.7-.9 3.8 .1 5.4l.9 1.1c1 1 2.4 1.6 3.8 1.6l405 0c1.9 0 3.7-1 4.7-2.7l.6-1.3c.4-1.4 .2-2.9-.4-4.1l-99.8-183.9-85.6 0-55.5 47.8c-6.3 5.4-15.8 5.1-21.7-.8L150.4 252.8 48.9 439.9zM256.2 64c-1.6 0-3.2 .7-4.2 1.9l-1.1 1.7-84.6 155.8 46.7 46.4 48.8-42 2.3-1.7c2.4-1.4 5.3-2.2 8.1-2.2l74.1 0-85.3-157.1c-.7-1.3-1.9-2.3-3.3-2.7l-1.5-.2z"/></svg>