<svg xmlns="http://www.w3.org/2000/svg" viewBox="0 0 576 512"><!--! Font Awesome Pro 7.1.0 by @fontawesome - https://fontawesome.com License - https://fontawesome.com/license (Commercial License) Copyright 2025 Fonticons, Inc. --><path opacity=".4" fill="currentColor" d="M66.2 157.4C99.6 318 226 444.4 386.7 477.9 444.9 490 495.1 448.2 509.6 394.9l1.8-6.7c2.3-8.4-2-17.2-10.1-20.6l-93.3-38.9c-7.1-2.9-15.2-.9-20.1 5l-36.6 44.7c-4.7 5.7-12.6 7.5-19.2 4.3-75-35.6-135-97.6-168.1-174-2.8-6.6-1-14.2 4.6-18.7l41.6-34.1c5.9-4.8 8-13 5-20.1L176.3 42.7c-3.4-8-12.2-12.3-20.6-10.1l-6.7 1.8C95.9 49 54.1 99.1 66.2 157.4z"/><path fill="currentColor" d="M336-32c-8.8 0-16 7.2-16 16s7.2 16 16 16c114.9 0 208 93.1 208 208 0 8.8 7.2 16 16 16s16-7.2 16-16C576 75.5 468.5-32 336-32zm16 256a32 32 0 1 0 0-64 32 32 0 1 0 0 64zM320 80c0 8.8 7.2 16 16 16 61.9 0 112 50.1 112 112 0 8.8 7.2 16 16 16s16-7.2 16-16c0-79.5-64.5-144-144-144-8.8 0-16 7.2-16 16zM155.8 32.6c8.4-2.3 17.2 2 20.6 10.1L215.2 136c2.9 7.1 .9 15.2-5 20.1l-41.6 34.1c-5.5 4.5-7.4 12.2-4.6 18.7 33.1 76.4 93.1 138.4 168.1 174 6.6 3.2 14.6 1.4 19.2-4.3L388 333.8c4.8-5.9 13-8 20.1-5l93.3 38.9c8 3.4 12.3 12.2 10.1 20.6l-1.8 6.7C495.1 448.2 444.9 490 386.7 477.9 226 444.4 99.6 318 66.2 157.4 54.1 99.1 95.9 49 149.1 34.4l6.7-1.8zm50.1-2.3C196.3 7.5 171.3-4.8 147.4 1.7l-6.7 1.8C75.7 21.3 18.4 84.8 34.8 163.9 70.8 337 207 473.2 380.1 509.2 459.2 525.6 522.7 468.3 540.5 403.3l1.8-6.7c6.5-23.9-5.7-49-28.6-58.5l-93.3-38.9c-20.1-8.4-43.4-2.6-57.2 14.3l-28.5 34.9c-59.3-31.1-107.3-80.8-136.3-141.3l32.1-26.3c16.9-13.8 22.7-37 14.3-57.2L205.9 30.4z"/></svg>