<svg xmlns="http://www.w3.org/2000/svg" viewBox="0 0 512 512"><!--! Font Awesome Pro 7.1.0 by @fontawesome - https://fontawesome.com License - https://fontawesome.com/license (Commercial License) Copyright 2025 Fonticons, Inc. --><path opacity=".4" fill="currentColor" d="M232.1 256a23.9 23.9 0 1 0 47.8 0 23.9 23.9 0 1 0 -47.8 0z"/><path fill="currentColor" d="M320 318.7c8.3-3 17.4 1.3 20.4 9.6 19.9 55.3 3.3 122.9-44.7 170.8-2.8 2.8-5.6 5.4-8.4 8-6.6 5.8-16.7 5.2-22.6-1.4-5.9-6.6-5.3-16.7 1.3-22.6 2.4-2.1 4.7-4.3 7-6.6 40.3-40.3 52.4-95.1 37.2-137.3-3-8.3 1.3-17.5 9.7-20.5zm-84.3 34.5c3.8-8 13.3-11.4 21.3-7.7 8 3.8 11.4 13.3 7.7 21.3-25 53.2-84.6 89.2-152.3 89.2-3.9 0-7.8-.1-11.6-.3-8.8-.5-15.5-8.1-15-16.9s8.1-15.5 16.9-15c3.2 .2 6.4 .3 9.7 .3 57 0 104.3-30.2 123.4-70.8zm110-98c3.8-8 13.3-11.4 21.3-7.7 53.2 25 89.2 84.6 89.2 152.3 0 3.9-.1 7.8-.3 11.6-.5 8.8-8.1 15.5-16.9 15-8.8-.5-15.5-8.1-15-16.9 .2-3.2 .3-6.4 .3-9.7 0-57-30.2-104.3-70.8-123.4-8-3.8-11.4-13.3-7.7-21.3zM6.4 264.7c6.6-5.9 16.7-5.3 22.6 1.3 2.1 2.4 4.3 4.7 6.6 7 40.3 40.3 95.1 52.4 137.3 37.2 8.3-3 17.5 1.3 20.5 9.7 3 8.3-1.3 17.4-9.6 20.4-55.3 19.9-122.9 3.3-170.8-44.7-2.8-2.8-5.4-5.6-7.9-8.4-5.9-6.6-5.2-16.7 1.4-22.6zM255.9 312a56 56 0 1 1 .2-112 56 56 0 1 1 -.2 112zm.2-80a24 24 0 1 0 -.2 48 24 24 0 1 0 .2-48zM73.4 85.6c8.8 .5 15.5 8.1 15 16.9-.2 3.2-.3 6.4-.3 9.7 0 57 30.2 104.3 70.8 123.4 8 3.8 11.4 13.3 7.7 21.3-3.8 8-13.3 11.4-21.3 7.7-53.2-25-89.2-84.6-89.2-152.3 0-3.9 .1-7.8 .3-11.6 .5-8.8 8.1-15.5 16.9-15zm255.1 86.1c55.3-19.9 122.9-3.3 170.8 44.7 2.8 2.8 5.4 5.6 8 8.4 5.9 6.6 5.2 16.7-1.4 22.6s-16.7 5.2-22.6-1.4c-2.1-2.4-4.4-4.7-6.7-7-40.3-40.3-95.1-52.4-137.3-37.2-8.3 3-17.5-1.3-20.5-9.6s1.3-17.5 9.6-20.5zM224.8 4.9c6.6-5.9 16.7-5.2 22.6 1.4S252.7 23 246 28.8c-2.4 2.1-4.7 4.3-7 6.6-40.3 40.3-52.4 95.1-37.2 137.3 3 8.3-1.3 17.5-9.6 20.5s-17.5-1.3-20.5-9.7c-19.9-55.3-3.3-122.9 44.7-170.8 2.8-2.8 5.6-5.4 8.4-7.9zM411.5 56.3c8.8 .5 15.5 8.1 15 16.9s-8.1 15.5-16.9 15c-3.2-.2-6.4-.3-9.7-.3-57 0-104.3 30.2-123.4 70.8-3.8 8-13.3 11.4-21.3 7.7s-11.4-13.3-7.7-21.3c25-53.2 84.6-89.2 152.3-89.2 3.9 0 7.8 .1 11.6 .3z"/></svg>