<svg xmlns="http://www.w3.org/2000/svg" viewBox="0 0 512 512"><!--! Font Awesome Pro 7.1.0 by @fontawesome - https://fontawesome.com License - https://fontawesome.com/license (Commercial License) Copyright 2025 Fonticons, Inc. --><path opacity=".4" fill="currentColor" d="M32 256c0-123.7 100.3-224 224-224 56.1 0 107.4 20.6 146.7 54.7l-56.8 56.8c-24.6-19.7-55.9-31.5-89.9-31.5-79.5 0-144 64.5-144 144s64.5 144 144 144 144-64.5 144-144l80 0c0 123.7-100.3 224-224 224S32 379.7 32 256zm112 0c0-61.9 50.1-112 112-112 25.2 0 48.4 8.3 67.1 22.3l-78.4 78.4c-6.2 6.2-6.2 16.4 0 22.6s16.4 6.2 22.6 0l11.3-11.3 89.4 0c0 61.9-50.1 112-112 112S144 317.9 144 256z"/><path fill="currentColor" d="M323.1 166.3c-18.7-14-41.9-22.3-67.1-22.3-61.9 0-112 50.1-112 112s50.1 112 112 112 112-50.1 112-112l32 0c0 79.5-64.5 144-144 144s-144-64.5-144-144 64.5-144 144-144c34 0 65.2 11.8 89.9 31.5l56.8-56.8C363.4 52.6 312.1 32 256 32 132.3 32 32 132.3 32 256S132.3 480 256 480 480 379.7 480 256l32 0c0 141.4-114.6 256-256 256S0 397.4 0 256 114.6 0 256 0c64.9 0 124.2 24.2 169.4 64l43.3-43.3c6.2-6.2 16.4-6.2 22.6 0s6.2 16.4 0 22.6l-224 224c-6.2 6.2-16.4 6.2-22.6 0s-6.2-16.4 0-22.6l78.4-78.4z"/></svg>