<svg xmlns="http://www.w3.org/2000/svg" viewBox="0 0 512 512"><!--! Font Awesome Pro 7.1.0 by @fontawesome - https://fontawesome.com License - https://fontawesome.com/license (Commercial License) Copyright 2025 Fonticons, Inc. --><path opacity=".4" fill="currentColor" d="M32 256c0 1.8 .7 3.4 1.9 4.7l52.7 52.7c6 6 9.4 14.1 9.4 22.6l0 64c0 8.8 7.2 16 16 16l64 0c8.5 0 16.6 3.4 22.6 9.4l52.7 52.7c1.2 1.2 2.9 1.9 4.7 1.9s3.4-.7 4.7-1.9l52.7-52.7c6-6 14.1-9.4 22.6-9.4l64 0c8.8 0 16-7.2 16-16l0-64c0-8.5 3.4-16.6 9.4-22.6l52.7-52.7c1.2-1.2 1.9-2.9 1.9-4.7s-.7-3.4-1.9-4.7l-52.7-52.7c-6-6-9.4-14.1-9.4-22.6l0-64c0-8.8-7.2-16-16-16l-64 0c-8.5 0-16.6-3.4-22.6-9.4L260.7 33.9c-1.2-1.2-2.9-1.9-4.7-1.9s-3.4 .7-4.7 1.9L198.6 86.6c-6 6-14.1 9.4-22.6 9.4l-64 0c-8.8 0-16 7.2-16 16l0 64c0 8.5-3.4 16.6-9.4 22.6L33.9 251.3c-1.2 1.2-1.9 2.9-1.9 4.7zm154.8-42.8c0-38.2 31-69.2 69.2-69.2s69.2 31 69.2 69.2c0 35.8-24.3 53.7-42.1 61.7-7.8 3.5-11.1 9.2-11.1 13.1 0 8.8-7.2 16-16 16s-16-7.2-16-16c0-20.8 15.3-35.7 30.1-42.3 12.2-5.4 23.2-14.7 23.2-32.5 0-20.6-16.7-37.2-37.2-37.2s-37.2 16.7-37.2 37.2c0 8.8-7.2 16-16 16s-16-7.2-16-16zM276 352a20 20 0 1 1 -40 0 20 20 0 1 1 40 0z"/><path fill="currentColor" d="M86.6 198.6c6-6 9.4-14.1 9.4-22.6l0-64c0-8.8 7.2-16 16-16l64 0c8.5 0 16.6-3.4 22.6-9.4l52.7-52.7c1.2-1.2 2.9-1.9 4.7-1.9s3.4 .7 4.7 1.9l52.7 52.7c6 6 14.1 9.4 22.6 9.4l64 0c8.8 0 16 7.2 16 16l0 64c0 8.5 3.4 16.6 9.4 22.6l52.7 52.7c1.2 1.2 1.9 2.9 1.9 4.7s-.7 3.4-1.9 4.7l-52.7 52.7c-6 6-9.4 14.1-9.4 22.6l0 64c0 8.8-7.2 16-16 16l-64 0c-8.5 0-16.6 3.4-22.6 9.4l-52.7 52.7c-1.2 1.2-2.9 1.9-4.7 1.9s-3.4-.7-4.7-1.9l-52.7-52.7c-6-6-14.1-9.4-22.6-9.4l-64 0c-8.8 0-16-7.2-16-16l0-64c0-8.5-3.4-16.6-9.4-22.6L33.9 260.7c-1.2-1.2-1.9-2.9-1.9-4.7s.7-3.4 1.9-4.7l52.7-52.7zM64 112l0 64-52.7 52.7C4.1 235.9 0 245.8 0 256s4.1 20.1 11.3 27.3L64 336 64 400c0 26.5 21.5 48 48 48l64 0 52.7 52.7c7.2 7.2 17.1 11.3 27.3 11.3s20.1-4.1 27.3-11.3l52.7-52.7 64 0c26.5 0 48-21.5 48-48l0-64 52.7-52.7c7.2-7.2 11.3-17.1 11.3-27.3s-4.1-20.1-11.3-27.3L448 176 448 112c0-26.5-21.5-48-48-48l-64 0-52.7-52.7C276.1 4.1 266.2 0 256 0s-20.1 4.1-27.3 11.3L176 64 112 64c-26.5 0-48 21.5-48 48zm192 64c20.6 0 37.2 16.7 37.2 37.2 0 17.8-11 27-23.2 32.5-14.7 6.6-30.1 21.5-30.1 42.3 0 8.8 7.2 16 16 16s16-7.2 16-16c0-3.8 3.4-9.6 11.1-13.1 17.8-8 42.1-25.9 42.1-61.7 0-38.2-31-69.2-69.2-69.2s-69.2 31-69.2 69.2c0 8.8 7.2 16 16 16s16-7.2 16-16c0-20.6 16.7-37.2 37.2-37.2zm20 176a20 20 0 1 0 -40 0 20 20 0 1 0 40 0z"/></svg>