<svg xmlns="http://www.w3.org/2000/svg" viewBox="0 0 512 512"><!--! Font Awesome Pro 7.1.0 by @fontawesome - https://fontawesome.com License - https://fontawesome.com/license (Commercial License) Copyright 2025 Fonticons, Inc. --><path opacity=".4" fill="currentColor" d="M48 139.8l.6 18.4C53.8 254 97 403.8 242.9 474l4 1.6c7.1 2.3 14.9 1.9 21.7-1.3l14.3-7.3c144.2-77.7 180.7-236.1 181.2-327.2l-.1-2.5c-.8-10.2-7.2-19.3-16.7-24.1-.9-.4-1.8-.8-2.6-1.2L268.6 37.3c-7-3-14.8-3.3-21.9-1.1l-3 1.1-176.7 74.9C55.6 117 48 127.7 48 139.8zM144 352c0-44.2 35.8-80 80-80l64 0c44.2 0 80 35.8 80 80 0 8.8-7.2 16-16 16-.2 0-.3 0-.5 0l-191.1 0c-.2 0-.3 0-.5 0-8.8 0-16-7.2-16-16zM320 176a64 64 0 1 1 -128 0 64 64 0 1 1 128 0z"/><path fill="currentColor" d="M231.1 7.8c16-6.8 34-6.8 50 0l176.7 74.9 4 1.9c18.6 9.5 32.4 28 34.1 50.4l.2 4.8-.6 19.5C490 261.5 444 425.8 282.4 503.1l-5.6 2.3c-11.3 4.1-23.5 4.7-35.1 2l-5.7-1.7-6.4-2.6C68.1 425.8 22.1 261.4 16.6 159.5L16 139.9c-.1-24.6 14.3-45.1 34.2-55.3l4.1-1.9 176.8-74.9zm37.5 29.5c-7-3-14.8-3.3-21.9-1.1l-3 1.1-176.7 74.9C55.6 117 48 127.7 48 139.8l.6 18.4C53.8 254 97 403.8 242.9 474l4 1.6c7.1 2.3 14.9 1.9 21.7-1.3l14.3-7.3c144.2-77.7 180.7-236.1 181.2-327.2l-.1-2.5c-.8-10.2-7.2-19.3-16.7-24.1l0 0-2.6-1.2-176.1-74.7zM288 272c44.2 0 80 35.8 80 80 0 8.8-7.2 16-16 16s-16-7.2-16-16c0-26.5-21.5-48-48-48l-64 0c-26.5 0-48 21.5-48 48 0 8.8-7.2 16-16 16s-16-7.2-16-16c0-44.2 35.8-80 80-80l64 0zm-32-32a64 64 0 1 1 0-128 64 64 0 1 1 0 128zm0-96a32 32 0 1 0 0 64 32 32 0 1 0 0-64z"/></svg>