<svg xmlns="http://www.w3.org/2000/svg" viewBox="0 0 448 512"><!--! Font Awesome Pro 7.1.0 by @fontawesome - https://fontawesome.com License - https://fontawesome.com/license (Commercial License) Copyright 2025 Fonticons, Inc. --><path opacity=".4" fill="currentColor" d="M32 96l0 320c0 17.7 14.3 32 32 32l320 0c17.7 0 32-14.3 32-32l0-320c0-17.7-14.3-32-32-32L64 64C46.3 64 32 78.3 32 96zm72 119c0-30.4 24.6-55 55-55l49 0c8.8 0 16 7.2 16 16s-7.2 16-16 16l-49 0c-12.7 0-23 10.3-23 23 0 11.2 8.1 20.8 19.2 22.7l30.9 5.1c26.5 4.4 45.9 27.4 45.9 54.2 0 30.4-24.6 55-55 55l-49 0c-8.8 0-16-7.2-16-16s7.2-16 16-16l49 0c12.7 0 23-10.3 23-23 0-11.2-8.1-20.8-19.2-22.7l-30.9-5.1C123.4 264.8 104 241.8 104 215zM256.6 363.6l64-224c2.4-8.5 11.3-13.4 19.8-11s13.4 11.3 11 19.8l-64 224c-2.4 8.5-11.3 13.4-19.8 11-8.5-2.4-13.4-11.3-11-19.8z"/><path fill="currentColor" d="M384 32c35.3 0 64 28.7 64 64l0 320c0 33.1-25.2 60.4-57.5 63.7l-6.5 .3-320 0-6.5-.3c-30.1-3.1-54.1-27-57.1-57.1L0 416 0 96C0 60.7 28.7 32 64 32l320 0zM64 64C46.3 64 32 78.3 32 96l0 320c0 17.7 14.3 32 32 32l320 0c17.7 0 32-14.3 32-32l0-320c0-17.7-14.3-32-32-32L64 64zm276.4 64.6c8.5 2.4 13.4 11.3 11 19.8l-64 224c-2.4 8.5-11.3 13.4-19.8 11-8.5-2.4-13.4-11.3-11-19.8l64-224c2.4-8.5 11.3-13.4 19.8-11zM208 160c8.8 0 16 7.2 16 16s-7.2 16-16 16l-49 0c-12.7 0-23 10.3-23 23 0 11.2 8.1 20.8 19.2 22.7l30.9 5.1c26.5 4.4 45.9 27.4 45.9 54.2 0 30.4-24.6 55-55 55l-49 0c-8.8 0-16-7.2-16-16s7.2-16 16-16l49 0c12.7 0 23-10.3 23-23 0-11.2-8.1-20.8-19.2-22.7l-30.9-5.1c-26.5-4.4-45.9-27.4-45.9-54.3 0-30.4 24.6-55 55-55l49 0z"/></svg>