<svg xmlns="http://www.w3.org/2000/svg" viewBox="0 0 576 512"><!--! Font Awesome Pro 7.1.0 by @fontawesome - https://fontawesome.com License - https://fontawesome.com/license (Commercial License) Copyright 2025 Fonticons, Inc. --><path opacity=".4" fill="currentColor" d=""/><path fill="currentColor" d="M4.7 139.3c-6.2-6.2-6.2-16.4 0-22.6l80-80c3-3 7.1-4.7 11.3-4.7s8.3 1.7 11.3 4.7l80 80c6.2 6.2 6.2 16.4 0 22.6s-16.4 6.2-22.6 0L112 86.6 112 368c0 44.2 35.8 80 80 80s80-35.8 80-80l0-224c0-61.9 50.1-112 112-112S496 82.1 496 144l0 281.4 52.7-52.7c6.2-6.2 16.4-6.2 22.6 0s6.2 16.4 0 22.6l-80 80c-6.2 6.2-16.4 6.2-22.6 0l-80-80c-6.2-6.2-6.2-16.4 0-22.6s16.4-6.2 22.6 0L464 425.4 464 144c0-44.2-35.8-80-80-80s-80 35.8-80 80l0 224c0 61.9-50.1 112-112 112S80 429.9 80 368l0-281.4-52.7 52.7c-6.2 6.2-16.4 6.2-22.6 0z"/></svg>