<svg xmlns="http://www.w3.org/2000/svg" viewBox="0 0 512 512"><!--! Font Awesome Pro 7.1.0 by @fontawesome - https://fontawesome.com License - https://fontawesome.com/license (Commercial License) Copyright 2025 Fonticons, Inc. --><path opacity=".4" fill="currentColor" d="M33.5 436.2c-1.3 2.5-1.3 5.5 .2 7.9l1.3 1.6c1.5 1.4 3.5 2.3 5.6 2.3l432 0c2.8 0 5.4-1.5 6.8-3.9l.8-1.9c.4-1.3 .4-2.7 .1-4l-.7-1.9-216-400c-1.1-2-2.8-3.4-4.9-3.9l-2.1-.3c-2.4 0-4.7 1.1-6.2 2.9L249 37.1 33.5 436.2z"/><path fill="currentColor" d="M261.9 .4c12.5 1.7 23.6 9.3 29.8 20.6l216 400c6.7 12.4 6.4 27.4-.8 39.5l-3 4.3c-6.4 8.2-15.8 13.5-26.2 14.8l-5.2 .3-432 0-5.2-.3C25 478.3 15.6 473 9.1 464.8l-3-4.3c-6.3-10.6-7.4-23.4-3-34.7l2.2-4.8 216-400 2.9-4.6C231.7 6.2 243.6 0 256.5 0l5.4 .4zM256.5 32c-2.4 0-4.7 1.1-6.2 2.9L249 37.1 33.5 436.2c-1.3 2.5-1.3 5.5 .2 7.9l1.3 1.6c1.5 1.4 3.5 2.3 5.6 2.3l432 0c2.8 0 5.4-1.5 6.8-3.9l.8-1.9c.4-1.3 .4-2.7 .1-4l-.7-1.9-216-400c-1.1-2-2.8-3.4-4.9-3.9l-2.1-.3z"/></svg>