<svg xmlns="http://www.w3.org/2000/svg" viewBox="0 0 512 512"><!--! Font Awesome Pro 7.1.0 by @fontawesome - https://fontawesome.com License - https://fontawesome.com/license (Commercial License) Copyright 2025 Fonticons, Inc. --><path opacity=".4" fill="currentColor" d="M0 357.9c0 1 .1 2 .3 2.9 1.6 8.7 9.9 14.5 18.6 12.9 24.9-4.5 48-17.5 68-31.8 26-18.6 61.1-18.6 87.1 0 25.6 18.3 52.9 34.1 82 34.1s56.4-15.8 82-34.1c26-18.6 61.1-18.6 87.1 0 20 14.3 43.1 27.3 68 31.8 8.7 1.6 17-4.2 18.6-12.9 .1-.8 .2-1.6 .3-2.4l0 127.1c-.2-7.4-5.6-13.9-13.1-15.3-18.1-3.3-36.7-13.2-55.1-26.4-37.1-26.5-87.1-26.5-124.3 0-25.3 18.1-45.3 28.1-63.5 28.1s-38.1-10.1-63.5-28.1c-37.1-26.5-87.1-26.5-124.3 0-18.5 13.2-37 23.1-55.1 26.4-8 1.4-13.5 8.6-13.1 15.7 0-42.7 0-85.3 0-128.1zm68.3-42c37.1-26.5 87.1-26.5 124.3 0l1 .7c-38.1-27.2-88.1-27.2-125.2-.7zM174 469.9c25.6 18.3 52.9 34.1 82 34.1-28.8 0-55.7-15.4-81.1-33.4-.3-.2-.6-.5-1-.7zm145.5-154c37.1-26.5 87.1-26.5 124.3 0l.8 .6c-37.9-27.1-88-27.1-125.1-.6zm105.7 154c20 14.3 43.1 27.3 68 31.8-24.6-4.5-47.4-17.2-67.2-31.2-.3-.2-.6-.4-.9-.6z"/><path fill="currentColor" d="M272 224c0 8.8-7.2 16-16 16s-16-7.2-16-16l0-169.4-52.7 52.7c-6.2 6.2-16.4 6.2-22.6 0s-6.2-16.4 0-22.6l80-80c6.2-6.2 16.4-6.2 22.6 0l80 80c6.2 6.2 6.2 16.4 0 22.6s-16.4 6.2-22.6 0L272 54.6 272 224zM425.1 341.9c-26-18.6-61.1-18.6-87.1 0-25.6 18.3-52.9 34.1-82 34.1s-56.4-15.8-82-34.1c-26-18.6-61.1-18.6-87.1 0-20 14.3-43.1 27.3-68 31.8-8.7 1.6-17-4.2-18.6-12.9s4.2-17 12.9-18.6c18.1-3.3 36.7-13.2 55.1-26.4 37.1-26.5 87.1-26.5 124.3 0 25.3 18.1 45.3 28.1 63.5 28.1s38.1-10.1 63.5-28.1c37.1-26.5 87.1-26.5 124.3 0 18.5 13.2 37 23.1 55.1 26.4 8.7 1.6 14.5 9.9 12.9 18.6s-9.9 14.5-18.6 12.9c-24.9-4.5-48-17.5-68-31.8zm0 128c-26-18.6-61.1-18.6-87.1 0-25.6 18.3-52.9 34.1-82 34.1s-56.4-15.8-82-34.1c-26-18.6-61.1-18.6-87.1 0-20 14.3-43.1 27.3-68 31.8-8.7 1.6-17-4.2-18.6-12.9s4.2-17 12.9-18.6c18.1-3.3 36.7-13.2 55.1-26.4 37.1-26.5 87.1-26.5 124.3 0 25.3 18.1 45.3 28.1 63.5 28.1s38.1-10.1 63.5-28.1c37.1-26.5 87.1-26.5 124.3 0 18.5 13.2 37 23.1 55.1 26.4 8.7 1.6 14.5 9.9 12.9 18.6s-9.9 14.5-18.6 12.9c-24.9-4.5-48-17.5-68-31.8z"/></svg>