<svg xmlns="http://www.w3.org/2000/svg" viewBox="0 0 640 512"><!--! Font Awesome Pro 7.1.0 by @fontawesome - https://fontawesome.com License - https://fontawesome.com/license (Commercial License) Copyright 2025 Fonticons, Inc. --><path opacity=".4" fill="currentColor" d="M14.1 301.7l31.6 36.1c12.4-10.8 23.8-20.8 34.3-30l0 204.1 260 0c-22.7-31.5-36-70.2-36-112 0-27.3 5.7-53.3 16-76.9l0-136.6c37.3-13.2 64-48.7 64-90.5 0-53-43-96-96-96s-96 43-96 96c0 41.8 26.7 77.4 64 90.5l0 261.5-112 0 0-140.1c10.5 9.2 21.9 19.2 34.3 30l31.6-36.1c-4.4-3.8-31.7-27.8-82.1-71.8L112 216.1c-2.5 2.2-29.1 25.5-79.8 69.8L14.1 301.7zM320 96a32 32 0 1 1 -64 0 32 32 0 1 1 64 0z"/><path fill="currentColor" d="M352 400a144 144 0 1 1 288 0 144 144 0 1 1 -288 0zm210.6-44L540 333.4c-4 4-18.6 18.6-44 44-25.3-25.4-40-40-44-44L429.4 356c4 4 18.6 18.6 44 44-25.4 25.3-40 40-44 44L452 466.6c4-4 18.6-18.6 44-44 25.3 25.4 40 40 44 44L562.6 444c-4-4-18.6-18.6-44-44 25.4-25.3 40-40 44-44z"/></svg>