<svg xmlns="http://www.w3.org/2000/svg" viewBox="0 0 512 512"><!--! Font Awesome Pro 7.0.1 by @fontawesome - https://fontawesome.com License - https://fontawesome.com/license (Commercial License) Copyright 2025 Fonticons, Inc. --><path style="fill:var(--fa-secondary-color,currentColor);opacity:var(--fa-secondary-opacity,.4)" d="M224 256a32 32 0 1 0 64 0 32 32 0 1 0 -64 0z"/><path style="fill:var(--fa-primary-color,currentColor);opacity:var(--fa-primary-opacity,1)" d="M376 64l-88 0 0-64-64 0 0 64-88 0 120 128 120-128zM64 288l0 88 128-120-128-120 0 88-64 0 0 64 64 0zm384-64l0-88-128 120 128 120 0-88 64 0 0-64-64 0zM376 448l-120-128-120 128 88 0 0 64 64 0 0-64 88 0z"/></svg>