<svg xmlns="http://www.w3.org/2000/svg" viewBox="0 0 576 512"><!--! Font Awesome Pro 7.1.0 by @fontawesome - https://fontawesome.com License - https://fontawesome.com/license (Commercial License) Copyright 2025 Fonticons, Inc. --><path opacity=".4" fill="currentColor" d="M253.5 0l0 64 32 0c106 0 192 86 192 192s-86 192-192 192l-32 0 0 64 32 0c141.4 0 256-114.6 256-256S426.9 0 285.5 0l-32 0z"/><path fill="currentColor" d="M176.3 98.7c-.2 .2-45.1 45.1-134.6 134.6L19 256c.2 .2 45.1 45.1 134.6 134.6l22.6 22.6 45.3-45.3-80-80 240 0 0-64-240 0c44-44 70.7-70.7 80-80L176.3 98.7z"/></svg>