<svg xmlns="http://www.w3.org/2000/svg" viewBox="0 0 512 512"><!--! Font Awesome Pro 7.1.0 by @fontawesome - https://fontawesome.com License - https://fontawesome.com/license (Commercial License) Copyright 2025 Fonticons, Inc. --><path opacity=".4" fill="currentColor" d="M224 0l0 64 32 0c106 0 192 86 192 192S362 448 256 448l-32 0 0 64 32 0c141.4 0 256-114.6 256-256S397.4 0 256 0L224 0z"/><path fill="currentColor" d="M232 389.3c4.2-4.2 41.1-41.1 110.6-110.6L365.3 256c-4.2-4.2-41.1-41.1-110.6-110.6L232 122.7 186.7 168c13.3 13.3 32 32 56 56L0 224 0 288 242.7 288c-24 24-42.7 42.7-56 56L232 389.3z"/></svg>