<svg xmlns="http://www.w3.org/2000/svg" viewBox="0 0 512 512"><!--! Font Awesome Pro 7.1.0 by @fontawesome - https://fontawesome.com License - https://fontawesome.com/license (Commercial License) Copyright 2025 Fonticons, Inc. --><path opacity=".4" fill="currentColor" d="M27.2 370.9c42.1 83.6 128.7 141.1 228.8 141.1 70.7 0 134.7-28.7 181-75 22.3-22.3 39.7-47.8 52-74.9 13.9-30.4 21.9-64 22.9-99.3 .1-2 .1-3.9 .1-5.9 .2-65.8-24.8-131.7-75-181.9-50-50-115.6-75-181-75-76.5 0-145.1 33.6-192 86.7l0 41.3 48.9 0c35.2-39.3 86.3-64 143.1-64 49.2 0 98.3 18.7 135.8 56.2S448 206.8 448 256c0 2.3 0 4.5-.1 6.8-.7 18.7-4 37.4-10.1 55.3-25.8 75.6-97.4 130-181.8 130-75 0-140-43-171.6-105.8L27.2 370.9z"/><path fill="currentColor" d="M64 0l0 128 128 0 0 64-192 0 0-192 64 0z"/></svg>