<svg xmlns="http://www.w3.org/2000/svg" viewBox="0 0 576 512"><!--! Font Awesome Pro 7.1.0 by @fontawesome - https://fontawesome.com License - https://fontawesome.com/license (Commercial License) Copyright 2025 Fonticons, Inc. --><path opacity=".4" fill="currentColor" d="M288.3 32l96 0 0 64-96 0 0-64zm0 128l160 0 0 64-160 0 0-64zm0 128l224 0 0 64-224 0 0-64zm0 128l288 0 0 64-288 0 0-64z"/><path fill="currentColor" d="M128.3 18.7l110.6 110.6 22.6 22.6-45.3 45.3-56-56 0 338.7-64 0 0-338.7-56 56-45.3-45.3c4.2-4.2 41.1-41.1 110.6-110.6l22.6-22.6z"/></svg>