<svg xmlns="http://www.w3.org/2000/svg" viewBox="0 0 512 512"><!--! Font Awesome Pro 7.1.0 by @fontawesome - https://fontawesome.com License - https://fontawesome.com/license (Commercial License) Copyright 2025 Fonticons, Inc. --><path opacity=".4" fill="currentColor" d="M0 258.7l0 32 64 0 0-32c0-106 86-192 192-192s192 86 192 192l0 32 64 0 0-32c0-141.4-114.6-256-256-256S0 117.4 0 258.7z"/><path fill="currentColor" d="M98.7 368l134.6 134.6 22.6 22.6 157.3-157.3-45.3-45.3-80 80 0-240-64 0 0 240c-44-44-70.7-70.7-80-80L98.7 368z"/></svg>