<svg xmlns="http://www.w3.org/2000/svg" viewBox="0 0 512 512"><!--! Font Awesome Pro 7.1.0 by @fontawesome - https://fontawesome.com License - https://fontawesome.com/license (Commercial License) Copyright 2025 Fonticons, Inc. --><path opacity=".4" fill="currentColor" d="M19 448l45.3 45.3c6.6-6.6 38.6-38.6 96-96l0 66.7 64 0 0-176-176 0 0 64 66.7 0c-57.4 57.4-89.4 89.4-96 96zM288.3 48l0 176 176 0 0-64-66.7 0c57.4-57.4 89.4-89.4 96-96L448.3 18.7c-6.6 6.6-38.6 38.6-96 96l0-66.7-64 0z"/><path fill="currentColor" d="M64.3 18.7c6.6 6.6 38.6 38.6 96 96l0-66.7 64 0 0 176-176 0 0-64 66.7 0C57.6 102.6 25.6 70.6 19 64L64.3 18.7zM288.3 288l176 0 0 64-66.7 0 96 96-45.3 45.3-96-96 0 66.7-64 0 0-176z"/></svg>