<svg xmlns="http://www.w3.org/2000/svg" viewBox="0 0 512 512"><!--! Font Awesome Pro 7.1.0 by @fontawesome - https://fontawesome.com License - https://fontawesome.com/license (Commercial License) Copyright 2025 Fonticons, Inc. --><path opacity=".4" fill="currentColor" d="M0 256l0 32 64 0 0-32C64 150 150 64 256 64s192 86 192 192l0 32 64 0 0-32C512 114.6 397.4 0 256 0S0 114.6 0 256z"/><path fill="currentColor" d="M389.3 280c-4.2-4.2-41.1-41.1-110.6-110.6L256 146.7c-4.2 4.2-41.1 41.1-110.6 110.6L122.7 280 168 325.3c13.3-13.3 32-32 56-56l0 242.7 64 0 0-242.7 56 56 45.3-45.3z"/></svg>