<svg xmlns="http://www.w3.org/2000/svg" viewBox="0 0 512 512"><!--! Font Awesome Pro 7.1.0 by @fontawesome - https://fontawesome.com License - https://fontawesome.com/license (Commercial License) Copyright 2025 Fonticons, Inc. --><path opacity=".4" fill="currentColor" d="M0 256c0 141.4 114.6 256 256 256 70 0 137.1-27.8 186.6-77.3l5.5-5.5 0 82.7 64 0 0-192-192 0 0 64 82.7 0-5.5 5.5C359.8 426.9 309 448 256 448 150 448 64 362 64 256L0 256z"/><path fill="currentColor" d="M448 256c0-106-86-192-192-192-53 0-103.8 21-141.3 58.5l-5.5 5.5 82.7 0 0 64-192 0 0-192 64 0 0 82.7 5.5-5.5C119 27.8 186 0 256 0 397.4 0 512 114.6 512 256l-64 0z"/></svg>