<svg xmlns="http://www.w3.org/2000/svg" viewBox="0 0 512 512"><!--! Font Awesome Pro 7.1.0 by @fontawesome - https://fontawesome.com License - https://fontawesome.com/license (Commercial License) Copyright 2025 Fonticons, Inc. --><path opacity=".4" fill="currentColor" d="M0 256c0 141.4 114.6 256 256 256 100.1 0 186.8-57.5 228.8-141.1-19.1-9.6-38.1-19.2-57.2-28.7-31.6 62.8-96.7 105.8-171.7 105.8-106 0-192-86-192-192S150 64 256 64c69.8 0 130.9 37.2 164.6 93.1l.1 .2 .1 .2 32 51.4 59.2-16.9 0-192-64 0 0 86.7C401.1 33.6 332.5 0 256 0 114.6 0 0 114.6 0 256z"/><path fill="currentColor" d="M208 352l-48 0 0-129.2-18.7 9.4-21.5-42.9c11.7-5.9 31.2-15.6 58.5-29.3l29.7 0 0 192zM312 160c30.9 0 56 25.1 56 56l0 80c0 30.9-25.1 56-56 56l-16 0c-30.9 0-56-25.1-56-56l0-80c0-30.9 25.1-56 56-56l16 0zm-16 48c-4.4 0-8 3.6-8 8l0 80c0 4.4 3.6 8 8 8l16 0c4.4 0 8-3.6 8-8l0-80c0-4.4-3.6-8-8-8l-16 0z"/></svg>