<svg xmlns="http://www.w3.org/2000/svg" viewBox="0 0 512 512"><!--! Font Awesome Pro 7.1.0 by @fontawesome - https://fontawesome.com License - https://fontawesome.com/license (Commercial License) Copyright 2025 Fonticons, Inc. --><path opacity=".4" fill="currentColor" d="M32.3 320l0 160 64 0 0-96 178.7 0c-17.4 17.4-33.4 33.4-48 48l45.3 45.3 93.3-93.3 2.7 0 0-2.7 29.3-29.3-29.3-29.3 0-2.7-2.7 0c-55.1-55.1-86.2-86.2-93.3-93.3L227 272c14.6 14.6 30.6 30.6 48 48L32.3 320z"/><path fill="currentColor" d="M390.9-6.6l-22.6-22.6-45.3 45.3 48 48-338.7 0 0 192 64 0 0-128 274.7 0c-17.4 17.4-33.4 33.4-48 48l45.3 45.3c7.1-7.1 38.2-38.2 93.3-93.3l2.7 0 0-2.7c1.8-1.8 11.5-11.5 29.3-29.3-17.8-17.8-27.5-27.5-29.3-29.3l0-2.7-2.7 0-70.6-70.6z"/></svg>