<svg xmlns="http://www.w3.org/2000/svg" viewBox="0 0 576 512"><!--! Font Awesome Pro 7.1.0 by @fontawesome - https://fontawesome.com License - https://fontawesome.com/license (Commercial License) Copyright 2025 Fonticons, Inc. --><path opacity=".4" fill="currentColor" d="M320.2 175.1c0 53 37.4 98.6 89.3 109l32.8 6.6c22 4.4 37.9 23.8 37.9 46.2 0 26-21.1 47.1-47.1 47.1l-96.9 0 0 64 64 0 0 48 64 0 0-52.4c46.2-13.5 80-56.1 80-106.7 0-53-37.4-98.6-89.3-109l-32.8-6.6c-22-4.4-37.9-23.7-37.9-46.2 0-26 21.1-47.1 47.1-47.1l80.9 0 0-64-48 0 0-48-64 0 0 52.4c-46.2 13.5-80 56.1-80 106.7z"/><path fill="currentColor" d="M127 48l66.4 0 5.9 24.5 98.1 407.5-65.8 0-23.1-96-96.5 0-23.1 96-65.8 0 98.1-407.5 5.9-24.5zm33.2 135.5l-32.9 136.5 65.7 0-32.9-136.5z"/></svg>