<svg xmlns="http://www.w3.org/2000/svg" viewBox="0 0 448 512"><!--! Font Awesome Pro 7.1.0 by @fontawesome - https://fontawesome.com License - https://fontawesome.com/license (Commercial License) Copyright 2025 Fonticons, Inc. --><path opacity=".4" fill="currentColor" d="M0 247.2l0 17.7C0 301.5 4.5 338 13.4 373.5l18.6 74.5 384 0 18.6-74.5c8.9-35.5 13.4-72 13.4-108.7l0-17.7c0-36.6-4.5-73.1-13.4-108.7L416 64 32 64 13.4 138.5C4.5 174 0 210.5 0 247.2zM96 160l32 0c40.7 0 76.4 21.8 96 54.3 19.6-32.5 55.3-54.3 96-54.3l32 0 0 16c0 59.2-45.9 107.6-104 111.7l0 64.3-48 0 0-64.3C141.9 283.6 96 235.2 96 176l0-16z"/><path fill="currentColor" d="M448 0L0 0 32 64 416 64 448 0zm0 512l-32-64-384 0-32 64 448 0zM128 160l-32 0 0 16c0 59.2 45.9 107.6 104 111.7l0 64.3 48 0 0-64.3c58.1-4.1 104-52.6 104-111.7l0-16-32 0c-40.7 0-76.4 21.8-96 54.3-19.6-32.5-55.3-54.3-96-54.3z"/></svg>