<svg xmlns="http://www.w3.org/2000/svg" viewBox="0 0 512 512"><!--! Font Awesome Pro 7.1.0 by @fontawesome - https://fontawesome.com License - https://fontawesome.com/license (Commercial License) Copyright 2025 Fonticons, Inc. --><path opacity=".4" fill="currentColor" d="M24 320c0-8.1 .6-16.2 1.7-24 4.1-28.5 15.3-54.6 31.7-76.6 9.6-12.9 21.1-24.3 33.9-33.9 22-16.5 48.2-27.7 76.6-31.7 7.8-1.1 15.9-1.7 24-1.7s16.2 .6 24 1.7c25.7 3.7 49.5 13.1 70 27 17.8 12.1 33.2 27.4 45.3 45.3 13.9 20.5 23.4 44.3 27 70 1.1 7.8 1.7 15.9 1.7 24s-.6 16.2-1.7 24c-4.1 28.5-15.3 54.6-31.7 76.6-9.6 12.9-21.1 24.3-33.9 33.9-22 16.5-48.1 27.7-76.6 31.7-7.8 1.1-15.9 1.7-24 1.7s-16.2-.6-24-1.7c-28.5-4.1-54.6-15.3-76.6-31.7-12.9-9.6-24.3-21.1-33.9-33.9-16.5-22-27.7-48.1-31.7-76.6-1.1-7.8-1.7-15.9-1.7-24zm56 0a112 112 0 1 0 224 0 112 112 0 1 0 -224 0z"/><path fill="currentColor" d="M376 64l-8.9 35.7-81.1 81.1c17.8 12.1 33.2 27.4 45.3 45.3l81.1-81.1 35.7-8.9 64-72-64-64-72 64zM358.3 296c1.1 7.8 1.7 15.9 1.7 24s-.6 16.2-1.7 24l25.7 0 0-48-25.7 0zM326.6 420.6c-9.6 12.9-21.1 24.3-33.9 33.9l1.2 1.2 17 17 33.9-33.9-17-17-1.2-1.2zM216 486.3c-7.8 1.1-15.9 1.7-24 1.7s-16.2-.6-24-1.7l0 25.7 48 0 0-25.7zM91.4 454.6c-12.9-9.6-24.3-21.1-33.9-33.9l-1.2 1.2-17 17 33.9 33.9 17-17 1.2-1.2zM25.7 344c-1.1-7.8-1.7-15.9-1.7-24s.6-16.2 1.7-24l-25.7 0 0 48 25.7 0zM57.4 219.4c9.6-12.9 21.1-24.3 33.9-33.9l-1.2-1.2-17-17-33.9 33.9 17 17 1.2 1.2zM168 153.7c7.8-1.1 15.9-1.7 24-1.7s16.2 .6 24 1.7l0-25.7-48 0 0 25.7zM161 303l-17-17-33.9 33.9c6.1 6.1 27.8 27.8 65 65l17 17 33.9-33.9c-6.1-6.1-27.8-27.8-65-65z"/></svg>