<svg xmlns="http://www.w3.org/2000/svg" viewBox="0 0 512 512"><!--! Font Awesome Pro 7.1.0 by @fontawesome - https://fontawesome.com License - https://fontawesome.com/license (Commercial License) Copyright 2025 Fonticons, Inc. --><path opacity=".4" fill="currentColor" d="M32.1 256l33.1 0 33.7-128.1 157.2-61.5 157.2 61.5 33.7 128.1 33.1 0 0 256-128 0c0-1.9 0-66 0-192l-192 0c0 64 0 128 0 192l-128 0 0-256zm176-112l0 96 96 0 0-96-96 0z"/><path fill="currentColor" d="M256.1-2.4l11.7 4.6 184 72 15.1 5.9 4.1 15.7 40 152 2.1 8.1-66.2 0-33.7-128.1-157.2-61.5-157.2 61.5-33.7 128.1-66.2 0 2.1-8.1 40-152 4.1-15.7 15.1-5.9 184-72 11.7-4.6zM160.1 512l0-158.1 158.1 158.1-158.1 0zM194 320l158.1 0 0 158.1-158.1-158.1z"/></svg>