<svg xmlns="http://www.w3.org/2000/svg" viewBox="0 0 512 512"><!--! Font Awesome Pro 7.1.0 by @fontawesome - https://fontawesome.com License - https://fontawesome.com/license (Commercial License) Copyright 2025 Fonticons, Inc. --><path opacity=".4" fill="currentColor" d="M1.1 232c22.3-.1 43.9-3.4 64.3-9.3l13.5 46.1c-24.7 7.2-50.8 11.2-77.8 11.3 11.4 122.2 108.7 219.5 230.9 230.9 .1-27 4-53.1 11.3-77.8l46.1 13.5c-6 20.4-9.2 41.9-9.3 64.3 122.2-11.4 219.5-108.7 230.9-230.9-22.3 .1-43.9 3.4-64.3 9.3l-13.5-46.1c24.7-7.2 50.8-11.2 77.8-11.3-11.4-122.2-108.7-219.5-230.9-230.9-.1 27-4 53.1-11.3 77.8L222.7 65.4C228.6 45 231.9 23.5 232 1.1 109.8 12.5 12.5 109.8 1.1 232zm110.1-28.3c39-21.3 71.2-53.5 92.5-92.5l42.1 23c-25.7 47-64.5 85.8-111.6 111.6l-23-42.1zm155 174.1c25.7-47 64.5-85.8 111.6-111.6l23 42.1c-39 21.3-71.2 53.5-92.5 92.5l-42.1-23z"/><path fill="currentColor" d="M280 1.1c-.1 27-4 53.1-11.3 77.8L222.7 65.4c6-20.4 9.2-41.9 9.3-64.3 7.9-.7 15.9-1.1 24-1.1s16.1 .4 24 1.1zM1.1 280C.4 272.1 0 264.1 0 256s.4-16.1 1.1-24c22.3-.1 43.9-3.4 64.3-9.3l13.5 46.1C54.2 276 28.1 279.9 1.1 280zM280 510.9c-15.7 1.5-32.3 1.5-48 0 .1-27 4-53.1 11.3-77.8l46.1 13.5c-6 20.4-9.2 41.9-9.3 64.3zM510.9 232c1.5 15.7 1.5 32.3 0 48-22.3 .1-43.9 3.4-64.3 9.3l-13.5-46.1c24.7-7.2 50.8-11.2 77.8-11.3zM245.8 134.2c-25.7 47-64.5 85.8-111.6 111.6l-23-42.1c39-21.3 71.2-53.5 92.5-92.5l42.1 23zm20.4 243.5c25.7-47 64.5-85.8 111.6-111.6l23 42.1c-39 21.3-71.2 53.5-92.5 92.5l-42.1-23z"/></svg>