<svg xmlns="http://www.w3.org/2000/svg" viewBox="0 0 576 512"><!--! Font Awesome Pro 7.1.0 by @fontawesome - https://fontawesome.com License - https://fontawesome.com/license (Commercial License) Copyright 2025 Fonticons, Inc. --><path opacity=".4" fill="currentColor" d="M16 160l110.1 0-16 16.9 34.8 33c8.6-9.1 24.4-25.7 47.3-49.9l191.6 0c22.9 24.2 38.7 40.8 47.3 49.9l34.8-33-16-16.9 110.1 0 0 64-23.1 0-56.9 256-384 0-56.9-256-23.1 0 0-64zM192 296l0 48 72 0 0 72 48 0 0-72 72 0 0-48-72 0 0-72-48 0 0 72-72 0z"/><path fill="currentColor" d="M305.4 7.5l-17.4-18.4-17.4 18.4-144 152-16.5 17.4 34.8 33 16.5-17.4 126.6-133.6 126.6 133.6 16.5 17.4 34.8-33-16.5-17.4-144-152zM264 416l48 0 0-72 72 0 0-48-72 0 0-72-48 0 0 72-72 0 0 48 72 0 0 72z"/></svg>