<svg xmlns="http://www.w3.org/2000/svg" viewBox="0 0 640 512"><!--! Font Awesome Pro 7.0.1 by @fontawesome - https://fontawesome.com License - https://fontawesome.com/license (Commercial License) Copyright 2025 Fonticons, Inc. --><path style="fill:var(--fa-secondary-color,currentColor);opacity:var(--fa-secondary-opacity,.4)" d="M32 69.8l0 378.2 378.2 0-64-64-250.2 0 0-250.2-64-64z"/><path style="fill:var(--fa-primary-color,currentColor);opacity:var(--fa-primary-opacity,1)" d="M64.2-33.8C64.9-33.2 97.5-.6 162 64l446 0 0 128 32 0 0 128-32 0 0 128-62 0c36.4 36.4 57.8 57.8 64.1 64.1l-33.9 33.9-17-17-512-512-17-17 33.9-33.9zM482 384l62 0 0-256-318 0 256 256z"/></svg>