<svg xmlns="http://www.w3.org/2000/svg" viewBox="0 0 512 512"><!--! Font Awesome Pro 7.1.0 by @fontawesome - https://fontawesome.com License - https://fontawesome.com/license (Commercial License) Copyright 2025 Fonticons, Inc. --><path opacity=".4" fill="currentColor" d="M16 416l480 0-80-128 0-96c0-77.4-55-142-128-156.8l0-35.2-64 0 0 35.2C151 50 96 114.6 96 192l0 96-80 128zM160 200l72 0 0-72 48 0 0 72 72 0 0 48-72 0 0 72-48 0 0-72-72 0 0-48z"/><path fill="currentColor" d="M232 320l0-72-72 0 0-48 72 0 0-72 48 0 0 72 72 0 0 48-72 0 0 72-48 0zm24 192c-29.8 0-54.9-20.4-62-48l124 0c-7.1 27.6-32.2 48-62 48z"/></svg>