<svg xmlns="http://www.w3.org/2000/svg" viewBox="0 0 576 512"><!--! Font Awesome Pro 7.1.0 by @fontawesome - https://fontawesome.com License - https://fontawesome.com/license (Commercial License) Copyright 2025 Fonticons, Inc. --><path opacity=".4" fill="currentColor" d="M64 0l192 0 0 224-192 0 0-224zm0 288l112 0 0 160 48 0 0 64-160 0 0-64 48 0 0-96-48 0 0-64zM128 64l0 96 64 0 0-96-64 0zM288 0l112 0 0 160 48 0 0 48.7c-5.3-.4-10.6-.7-16-.7-27.3 0-53.3 5.7-76.9 16l-67.1 0 0-64 48 0 0-96-48 0 0-64z"/><path fill="currentColor" d="M432 544a144 144 0 1 0 0-288 144 144 0 1 0 0 288zm60.9-182.6l-64 88-11 15.1c-4.4-4.4-22.1-22.1-53.2-53.2L353.4 400 376 377.4c5 5 17.7 17.7 38.1 38.1l53-72.9 9.4-12.9 25.9 18.8-9.4 12.9z"/></svg>