<svg xmlns="http://www.w3.org/2000/svg" viewBox="0 0 640 512"><!--! Font Awesome Pro 7.1.0 by @fontawesome - https://fontawesome.com License - https://fontawesome.com/license (Commercial License) Copyright 2025 Fonticons, Inc. --><path opacity=".4" fill="currentColor" d="M96 32l448 0 0 120-34 34-55.1-55.1-32.4 20.2c-25.4 15.9-61.7 45-92.1 83.2-12.5 15.7-24.6 33.7-34.6 53.7l-151.9 0 0 144 133.6 0c4 16.9 10.1 33 17.9 48L96 480 96 32zm96 304l86 0c-3.8 15.2-6 31.2-6 47.8-18.7 .2-37.3 .2-56 .2l-24 0 0-48z"/><path fill="currentColor" d="M320 384c0-89.6 85.3-165.3 128-192l64 64 32-32c76.8 64 96 133.3 96 160 0 88.4-71.6 160-160 160S320 472.4 320 384zM480 496.2c35.3 0 64-28.7 64-64 0-48-64-96-64-96s-64 48-64 96c0 35.3 28.7 64 64 64z"/></svg>