<svg xmlns="http://www.w3.org/2000/svg" viewBox="0 0 576 512"><!--! Font Awesome Pro 7.1.0 by @fontawesome - https://fontawesome.com License - https://fontawesome.com/license (Commercial License) Copyright 2025 Fonticons, Inc. --><path opacity=".4" fill="currentColor" d="M192 0L576 0c-6.4 26.7-12.8 53.3-19.2 80l-140.8 0 0 48 129.3 0c-5.1 21.3-10.2 42.7-15.4 64l-113.9 0 0 48 102.4 0-34.6 144-261.1 0-30.7-384z"/><path fill="currentColor" d="M76.6-1.4l75.4 25.1-12.3 88.3-50.6-.3c-14.7 40.6-14.7 85.1 0 125.7l50.6-.3 12.3 88.3-75.4 25.1-6.3-6.3c-93.7-93.7-93.7-245.7 0-339.4l6.3-6.3zM556.8 80l-11.5 48-129.3 0 0-48 140.8 0zM529.9 192l-11.5 48-102.4 0 0-48 113.9 0zM512 384l0 128-320 0 0-128 320 0zM352 472a24 24 0 1 0 0-48 24 24 0 1 0 0 48z"/></svg>