<svg xmlns="http://www.w3.org/2000/svg" viewBox="0 0 448 512"><!--! Font Awesome Pro 7.0.1 by @fontawesome - https://fontawesome.com License - https://fontawesome.com/license (Commercial License) Copyright 2025 Fonticons, Inc. --><path style="fill:var(--fa-secondary-color,currentColor);opacity:var(--fa-secondary-opacity,.4)" d="M0 192l32-96 80 0 0 96-112 0zM0 336l32-96 80 0 0 96-112 0zM0 480l32-96 384 0 32 96-448 0zM160 96l256 0 32 96-288 0 0-96zm0 144l256 0 32 96-288 0 0-96z"/><path style="fill:var(--fa-primary-color,currentColor);opacity:var(--fa-primary-opacity,1)" d="M448 32l-448 0 0 64 112 0 0 240 48 0 0-240 288 0 0-64z"/></svg>