<svg xmlns="http://www.w3.org/2000/svg" viewBox="0 0 448 512"><!--! Font Awesome Pro 7.0.1 by @fontawesome - https://fontawesome.com License - https://fontawesome.com/license (Commercial License) Copyright 2025 Fonticons, Inc. --><path style="fill:var(--fa-secondary-color,currentColor);opacity:var(--fa-secondary-opacity,.4)" d="M0 32l448 0 0 448-448 0 0-448zm48 72a24 24 0 1 0 48 0 24 24 0 1 0 -48 0zm0 304a24 24 0 1 0 48 0 24 24 0 1 0 -48 0zM352 104a24 24 0 1 0 48 0 24 24 0 1 0 -48 0zm0 304a24 24 0 1 0 48 0 24 24 0 1 0 -48 0z"/><path style="fill:var(--fa-primary-color,currentColor);opacity:var(--fa-primary-opacity,1)" d="M72 128a24 24 0 1 0 0-48 24 24 0 1 0 0 48zm304 0a24 24 0 1 0 0-48 24 24 0 1 0 0 48zM96 408a24 24 0 1 0 -48 0 24 24 0 1 0 48 0zm280 24a24 24 0 1 0 0-48 24 24 0 1 0 0 48z"/></svg>