<svg xmlns="http://www.w3.org/2000/svg" viewBox="0 0 448 512"><!--! Font Awesome Pro 7.1.0 by @fontawesome - https://fontawesome.com License - https://fontawesome.com/license (Commercial License) Copyright 2025 Fonticons, Inc. --><path opacity=".4" fill="currentColor" d="M0 32l0 80 64 0 0-80-64 0zM0 144l0 96 208 0 0-96-208 0zM0 272l0 96 64 0 0-96-64 0zM0 400l0 80 208 0 0-80-208 0zM96 32l0 80 256 0 0-80-256 0zm0 240l0 96 256 0 0-96-256 0zM240 144l0 96 208 0 0-96-208 0zm0 256l0 80 208 0 0-80-208 0zM384 32l0 80 64 0 0-80-64 0zm0 240l0 96 64 0 0-96-64 0z"/><path fill="currentColor" d="M64 112l-64 0 0 32 208 0 0 96-208 0 0 32 64 0 0 96-64 0 0 32 208 0 0 80 32 0 0-80 208 0 0-32-64 0 0-96 64 0 0-32-208 0 0-96 208 0 0-32-64 0 0-80-32 0 0 80-256 0 0-80-32 0 0 80zM352 368l-256 0 0-96 256 0 0 96z"/></svg>