<svg xmlns="http://www.w3.org/2000/svg" viewBox="0 0 512 512"><!--! Font Awesome Pro 7.0.1 by @fontawesome - https://fontawesome.com License - https://fontawesome.com/license (Commercial License) Copyright 2025 Fonticons, Inc. --><path style="fill:var(--fa-secondary-color,currentColor);opacity:var(--fa-secondary-opacity,.4)" d="M224 0l0 48 24 0c119.3 0 216 96.7 216 216l0 24 48 0 0-24C512 118.2 393.8 0 248 0L224 0zm0 96l0 48 24 0c66.3 0 120 53.7 120 120l0 24 48 0 0-24c0-92.8-75.2-168-168-168l-24 0z"/><path style="fill:var(--fa-primary-color,currentColor);opacity:var(--fa-primary-opacity,1)" d="M128 96l0 272c0 26.5 21.5 48 48 48s48-21.5 48-48-21.5-48-48-48l-16 0 0-96 16 0c79.5 0 144 64.5 144 144S255.5 512 176 512 32 447.5 32 368l0-272 96 0z"/></svg>