<svg xmlns="http://www.w3.org/2000/svg" viewBox="0 0 640 512"><!--! Font Awesome Pro 7.1.0 by @fontawesome - https://fontawesome.com License - https://fontawesome.com/license (Commercial License) Copyright 2025 Fonticons, Inc. --><path opacity=".4" fill="currentColor" d="M0 224c0 33.4 17 62.8 42.9 80-25.9 17.2-42.9 46.6-42.9 80 0 53 43 96 96 96 47.6 0 87.1-34.6 94.7-80l258.7 0c7.6 45.4 47.1 80 94.7 80 53 0 96-43 96-96 0-33.4-17-62.8-42.9-80 25.9-17.2 42.9-46.6 42.9-80 0-53-43-96-96-96-47.6 0-87.1 34.6-94.7 80l-63.9 0-65.5 144-65.5-144-63.9 0c-7.6-45.4-47.1-80-94.7-80-53 0-96 43-96 96z"/><path fill="currentColor" d="M344-32l0 128-48 0 0-128 48 0zM184 22.1l65 65 17 17-33.9 33.9c-6.1-6.1-27.8-27.8-65-65l-17-17 33.9-33.9zM489.9 56c-6.1 6.1-27.8 27.8-65 65l-17 17-33.9-33.9c6.1-6.1 27.8-27.8 65-65l17-17 33.9 33.9z"/></svg>