<svg xmlns="http://www.w3.org/2000/svg" viewBox="0 0 448 512"><!--! Font Awesome Pro 7.1.0 by @fontawesome - https://fontawesome.com License - https://fontawesome.com/license (Commercial License) Copyright 2025 Fonticons, Inc. --><path opacity=".4" fill="currentColor" d="M0 0l0 512 448 0 0-64-32 0 0-64 32 0 0-384-448 0zM64 416c0-17.7 14.3-32 32-32l256 0 0 64-288 0 0-32zm46.7-221.7c0-40.6 21.4-76.2 53.4-96.2L175.2 109c-5.2 8.6-8.2 18.7-8.2 29.5 0 15.1 5.9 28.8 15.5 39.1l4.2 4.5-3.3 5.2c-4.7 7.4-7.4 16.1-7.4 25.5 0 21.6 14.3 39.9 34 45.9l1-24.8c-7.1-4.4-11.8-12.2-11.8-21.1 0-9.6 5.5-18 13.5-22.1l3.3-81.8 16 0 3.3 81.8c8 4.1 13.5 12.4 13.5 22.1 0 8.9-4.7 16.7-11.8 21.1l1 24.8c19.6-6 33.9-24.1 34-45.6l0-.6c-.1-9.3-2.7-17.9-7.4-25.2l-3.3-5.2 4.2-4.5c9.6-10.2 15.5-23.9 15.5-39.1 0-10.8-3-20.9-8.2-29.5l11.1-10.9c32.1 20 53.4 55.6 53.4 96.2 0 62.6-50.7 113.3-113.3 113.3S110.7 256.9 110.7 194.3z"/><path fill="currentColor" d="M283.9 98.1L272.8 109c5.2 8.6 8.2 18.7 8.2 29.5 0 15.1-5.9 28.8-15.5 39.1l-4.2 4.5 3.3 5.2c4.6 7.3 7.3 15.9 7.4 25.2l0 .6c-.1 21.5-14.4 39.7-34 45.6L237 234c7.1-4.4 11.8-12.2 11.8-21.1 0-9.6-5.5-18-13.5-22.1l-3.3-81.8-16 0-3.3 81.8c-8 4.1-13.5 12.4-13.5 22.1 0 8.9 4.7 16.7 11.8 21.1l-1 24.8c-19.7-6-34-24.3-34-45.9 0-9.4 2.7-18.2 7.4-25.5l3.3-5.2-4.2-4.5c-9.6-10.2-15.5-23.9-15.5-39.1 0-10.8 3-20.9 8.2-29.5L164.1 98.1c-32.1 20-53.4 55.6-53.4 96.2 0 62.6 50.7 113.3 113.3 113.3s113.3-50.7 113.3-113.3c0-40.6-21.4-76.2-53.4-96.2z"/></svg>