<svg xmlns="http://www.w3.org/2000/svg" viewBox="0 0 448 512"><!--! Font Awesome Pro 7.1.0 by @fontawesome - https://fontawesome.com License - https://fontawesome.com/license (Commercial License) Copyright 2025 Fonticons, Inc. --><path opacity=".4" fill="currentColor" d="M0 0l0 512 448 0 0-64-32 0 0-64 32 0 0-384-448 0zM64 416c0-17.7 14.3-32 32-32l256 0 0 64-288 0 0-32zm64-288l224 0 0 48-224 0 0-48zm0 96l224 0 0 48-224 0 0-48z"/><path fill="currentColor" d="M352 128l-224 0 0 48 224 0 0-48zm0 96l-224 0 0 48 224 0 0-48z"/></svg>