<svg xmlns="http://www.w3.org/2000/svg" viewBox="0 0 448 512"><!--! Font Awesome Pro 7.1.0 by @fontawesome - https://fontawesome.com License - https://fontawesome.com/license (Commercial License) Copyright 2025 Fonticons, Inc. --><path opacity=".4" fill="currentColor" d="M0 0l0 512 448 0 0-64-32 0 0-64 32 0 0-384-448 0zM64 416c0-17.7 14.3-32 32-32l256 0 0 64-288 0 0-32zm45.5-174.1l16.6-36.4c1.9 .9 34.5 15.7 97.9 44.5 63.4-28.8 96-43.7 97.9-44.5l16.6 36.4c-7.2 3.3-29.2 13.3-66.2 30.1 36.9 16.8 59 26.8 66.2 30.1l-16.6 36.4c-1.9-.9-34.5-15.7-97.9-44.5-63.4 28.8-96 43.7-97.9 44.5l-16.6-36.4c7.2-3.3 29.2-13.3 66.2-30.1-36.9-16.8-59-26.8-66.2-30.1zM144 112c0-35.3 35.8-64 80-64s80 28.7 80 64c0 20.9-12.6 39.5-32 51.2l0 28.8-96 0 0-28.8c-19.4-11.7-32-30.3-32-51.2zm32 0a16 16 0 1 0 32 0 16 16 0 1 0 -32 0zm64 0a16 16 0 1 0 32 0 16 16 0 1 0 -32 0z"/><path fill="currentColor" d="M304 112c0 20.9-12.6 39.5-32 51.2l0 28.8-96 0 0-28.8c-19.4-11.7-32-30.3-32-51.2 0-35.3 35.8-64 80-64s80 28.7 80 64zM192 128a16 16 0 1 0 0-32 16 16 0 1 0 0 32zm80-16a16 16 0 1 0 -32 0 16 16 0 1 0 32 0zm31.7 101.8l18.2-8.3 16.6 36.4c-7.2 3.3-29.2 13.3-66.2 30.1 36.9 16.8 59 26.8 66.2 30.1l-16.6 36.4c-1.9-.9-34.5-15.7-97.9-44.5-63.4 28.8-96 43.7-97.9 44.5l-16.6-36.4c7.2-3.3 29.2-13.3 66.2-30.1-36.9-16.8-59-26.8-66.2-30.1l16.6-36.4c1.9 .9 34.5 15.7 97.9 44.5l79.7-36.2z"/></svg>