<svg xmlns="http://www.w3.org/2000/svg" viewBox="0 0 448 512"><!--! Font Awesome Pro 7.0.1 by @fontawesome - https://fontawesome.com License - https://fontawesome.com/license (Commercial License) Copyright 2025 Fonticons, Inc. --><path style="fill:var(--fa-secondary-color,currentColor);opacity:var(--fa-secondary-opacity,.4)" d="M0 0l0 512 448 0 0-64-32 0 0-64 32 0 0-384-448 0zM64 416c0-17.7 14.3-32 32-32l256 0 0 64-288 0 0-32zm56-248l126.1 0c-23-23-39-39-48-48L232 86.1c2.1 2.1 31.8 31.8 89 89l17 17c-2.1 2.1-31.8 31.8-89 89l-17 17-33.9-33.9c9-9 25-25 48-48l-126.1 0 0-48z"/><path style="fill:var(--fa-primary-color,currentColor);opacity:var(--fa-primary-opacity,1)" d="M337.9 192c-2.1 2.1-31.8 31.8-89 89l-17 17-33.9-33.9c9-9 25-25 48-48l-126.1 0 0-48 126.1 0c-23-23-39-39-48-48L232 86.1c2.1 2.1 31.8 31.8 89 89l17 17z"/></svg>