<svg xmlns="http://www.w3.org/2000/svg" viewBox="0 0 640 512"><!--! Font Awesome Pro 7.1.0 by @fontawesome - https://fontawesome.com License - https://fontawesome.com/license (Commercial License) Copyright 2025 Fonticons, Inc. --><path opacity=".4" fill="currentColor" d="M64 0l0 80 128 0 0-80-128 0zm0 128l0 256 128 0 0-256-128 0zm0 304l0 80 128 0 0-80-128 0zM240 96l0 416 100 0c-22.7-31.5-36-70.2-36-112 0-48.7 18.1-93.2 48-127l0-177-112 0zM359.9 25.3l20.7 77.3 123.6-33.1-20.7-77.3-123.6 33.1zm33.1 123.6l20.8 77.5c24.9-11.8 52.8-18.4 82.2-18.4 16.2 0 31.9 2 46.9 5.8l-26.3-98-123.6 33.1z"/><path fill="currentColor" d="M352 400a144 144 0 1 1 288 0 144 144 0 1 1 -288 0zm117.3-80l0 53.3-53.3 0 0 53.3 53.3 0 0 53.3 53.3 0 0-53.3 53.3 0 0-53.3-53.3 0 0-53.3-53.3 0z"/></svg>