<svg xmlns="http://www.w3.org/2000/svg" viewBox="0 0 576 512"><!--! Font Awesome Pro 7.0.1 by @fontawesome - https://fontawesome.com License - https://fontawesome.com/license (Commercial License) Copyright 2025 Fonticons, Inc. --><path style="fill:var(--fa-secondary-color,currentColor);opacity:var(--fa-secondary-opacity,.4)" d="M0 160l576 0 0 320-576 0 0-320zM64 320a96 96 0 1 0 192 0 96 96 0 1 0 -192 0zm256 0a96 96 0 1 0 192 0 96 96 0 1 0 -192 0z"/><path style="fill:var(--fa-primary-color,currentColor);opacity:var(--fa-primary-opacity,1)" d="M32 0l512 0 0 160-48 0 0-112-416 0 0 112-48 0 0-160zM208 320a48 48 0 1 0 -96 0 48 48 0 1 0 96 0zM64 320a96 96 0 1 1 192 0 96 96 0 1 1 -192 0zm352 48a48 48 0 1 0 0-96 48 48 0 1 0 0 96zm0-144a96 96 0 1 1 0 192 96 96 0 1 1 0-192zM224 128l0 32-64 0 0-32 64 0zm32 32l0-32 64 0 0 32-64 0zm96 0l0-32 64 0 0 32-64 0z"/></svg>