<svg xmlns="http://www.w3.org/2000/svg" viewBox="0 0 448 512"><!--! Font Awesome Pro 7.1.0 by @fontawesome - https://fontawesome.com License - https://fontawesome.com/license (Commercial License) Copyright 2025 Fonticons, Inc. --><path opacity=".4" fill="currentColor" d="M0 0l96 0 0 64-32 0 0 448-64 0 0-512zM384 0l64 0 0 512-64 0 0-512z"/><path fill="currentColor" d="M96 0l288 0 0 400c0 26.5-21.5 48-48 48s-48-21.5-48-48c0 26.5-21.5 48-48 48s-48-21.5-48-48c0 26.5-21.5 48-48 48s-48-21.5-48-48L96 0z"/></svg>