<svg xmlns="http://www.w3.org/2000/svg" viewBox="0 0 448 512"><!--! Font Awesome Pro 7.1.0 by @fontawesome - https://fontawesome.com License - https://fontawesome.com/license (Commercial License) Copyright 2025 Fonticons, Inc. --><path opacity=".4" fill="currentColor" d="M0 32l0 64 64 0 0-64-64 0zM0 160l0 64 64 0 0-64-64 0zM0 288l0 64 64 0 0-64-64 0zM128 32l0 64 64 0 0-64-64 0zm128 0l0 64 64 0 0-64-64 0zm128 0l0 64 64 0 0-64-64 0zm0 128l0 64 64 0 0-64-64 0zm0 128l0 64 64 0 0-64-64 0z"/><path fill="currentColor" d="M448 480l-448 0 0-64 448 0 0 64z"/></svg>