<svg xmlns="http://www.w3.org/2000/svg" viewBox="0 0 320 512"><!--! Font Awesome Pro 7.1.0 by @fontawesome - https://fontawesome.com License - https://fontawesome.com/license (Commercial License) Copyright 2025 Fonticons, Inc. --><path opacity=".4" fill="currentColor" d="M16 224l0 64 112 0 0 48-112 0 0 64 112 0 0 48-112 0 0 96 288 0 0-320-48-64-192 0-48 64zM96 32l0 32 128 0 0-32-32-16 0-16c0-17.7-14.3-32-32-32S128-17.7 128 0l0 16-32 16z"/><path fill="currentColor" d="M256 64l-192 0 0 96 192 0 0-96zM16 288l0 48 112 0 0-48-112 0zm0 112l0 48 112 0 0-48-112 0z"/></svg>