<svg xmlns="http://www.w3.org/2000/svg" viewBox="0 0 512 512"><!--! Font Awesome Pro 7.1.0 by @fontawesome - https://fontawesome.com License - https://fontawesome.com/license (Commercial License) Copyright 2025 Fonticons, Inc. --><path opacity=".4" fill="currentColor" d="M128-16l0 24c0 45.1 21.2 69 37.7 87.5l.4 .4C181.5 113.3 192 125.5 192 152l0 24 48 0 0-24c0-45.1-21.2-69-37.7-87.5l-.4-.4C186.5 46.7 176 34.5 176 8l0-24-48 0zm128 0l0 24c0 45.1 21.2 69 37.7 87.5l.4 .4C309.5 113.3 320 125.5 320 152l0 24 48 0 0-24c0-45.1-21.2-69-37.7-87.5l-.4-.4C314.5 46.7 304 34.5 304 8l0-24-48 0z"/><path fill="currentColor" d="M512 224L0 224 3.6 285.2C8.5 368.1 58 438.2 128 472.9l0 39.1 256 0 0-39.1c70-34.6 119.5-104.8 124.4-187.7L512 224z"/></svg>