<svg xmlns="http://www.w3.org/2000/svg" viewBox="0 0 512 512"><!--! Font Awesome Pro 7.1.0 by @fontawesome - https://fontawesome.com License - https://fontawesome.com/license (Commercial License) Copyright 2025 Fonticons, Inc. --><path opacity=".4" fill="currentColor" d="M24 384c16.8-58.7 33.5-117.3 50.3-176l107.4 0c16.8 58.7 33.5 117.3 50.3 176l-48 128-112 0-48-128zM64 64C64 28.7 92.7 0 128 0s64 28.7 64 64l0 5.8c0 6.8-1 13.6-2.9 20.1L168 160 88 160 66.9 89.8C65 83.3 64 76.5 64 69.8L64 64zM280 384c16.8-58.7 33.5-117.3 50.3-176l107.4 0c16.8 58.7 33.5 117.3 50.3 176l-48 128-112 0-48-128zM320 64c0-35.3 28.7-64 64-64s64 28.7 64 64l0 5.8c0 6.8-1 13.6-2.9 20.1l-21.1 70.2-80 0-21.1-70.2c-2-6.5-2.9-13.3-2.9-20.1l0-5.8z"/><path fill="currentColor" d="M168 160l13.7 48-107.4 0 13.7-48 80 0zm256 0l13.7 48-107.4 0 13.7-48 80 0z"/></svg>