<svg xmlns="http://www.w3.org/2000/svg" viewBox="0 0 640 512"><!--! Font Awesome Pro 7.1.0 by @fontawesome - https://fontawesome.com License - https://fontawesome.com/license (Commercial License) Copyright 2025 Fonticons, Inc. --><path opacity=".4" fill="currentColor" d="M64.4 128l0 352 448 0 0-218.1-15.5-15.5c-17.7 6.3-36.7 9.7-56.5 9.7-51.3 0-97.2-23-128-59.2l0 121.2 40-40 33.9 33.9-97.9 97.9-97.9-97.9 33.9-33.9 40 40 0-190.1-121.3 0 34.3-48 95.3 0c1.1-22.8 6.7-44.5 16-64l-144.2 0-80 112z"/><path fill="currentColor" d="M440.4-31.9c66.3 0 120 53.7 120 120 0 24.4-7.4 47.2-19.9 66.1 47.9 47.9 73.8 73.9 77.8 77.9L584.4 266c-4-4-29.9-30-77.8-77.9-19 12.6-41.7 19.9-66.2 19.9-66.3 0-120-53.7-120-120s53.7-120 120-120zm0 48a72 72 0 1 0 0 144 72 72 0 1 0 0-144z"/></svg>