<svg xmlns="http://www.w3.org/2000/svg" viewBox="0 0 448 512"><!--! Font Awesome Pro 7.1.0 by @fontawesome - https://fontawesome.com License - https://fontawesome.com/license (Commercial License) Copyright 2025 Fonticons, Inc. --><path opacity=".4" fill="currentColor" d="M0 128l0 352 448 0 0-352-80-112-288 0-80 112zm78.6 0l34.3-48 222.1 0 34.3 48-290.7 0zm39.4 184L152 278.1c9 9 25 25 48 48l0-126.1 48 0 0 126.1c23-23 39-39 48-48L329.9 312c-2.1 2.1-31.8 31.8-89 89l-17 17c-2.1-2.1-31.8-31.8-89-89l-17-17z"/><path fill="currentColor" d="M224 417.9c-2.1-2.1-31.8-31.8-89-89l-17-17 33.9-33.9c9 9 25 25 48 48l0-126.1 48 0 0 126.1c23-23 39-39 48-48L329.9 312c-2.1 2.1-31.8 31.8-89 89l-17 17z"/></svg>