<svg xmlns="http://www.w3.org/2000/svg" viewBox="0 0 576 512"><!--! Font Awesome Pro 7.0.1 by @fontawesome - https://fontawesome.com License - https://fontawesome.com/license (Commercial License) Copyright 2025 Fonticons, Inc. --><path style="fill:var(--fa-secondary-color,currentColor);opacity:var(--fa-secondary-opacity,.4)" d="M0 192l0 64 32 0 0 224 288 0 0-224 32 0 0-64c0-70.7-57.3-128-128-128l-96 0C57.3 64 0 121.3 0 192z"/><path style="fill:var(--fa-primary-color,currentColor);opacity:var(--fa-primary-opacity,1)" d="M320 480l224 0 0-224 32 0 0-64c0-70.7-57.3-128-128-128L224 64c70.7 0 128 57.3 128 128l0 64-32 0 0 224z"/></svg>