<svg xmlns="http://www.w3.org/2000/svg" viewBox="0 0 512 512"><!--! Font Awesome Pro 7.1.0 by @fontawesome - https://fontawesome.com License - https://fontawesome.com/license (Commercial License) Copyright 2025 Fonticons, Inc. --><path opacity=".4" fill="currentColor" d="M0 120C42.8 97.1 72 52 72 0l48 0c0 75.1 60.9 136 136 136S392 75.1 392 0l48 0c0 52 29.2 97.1 72 120l0 52.5c-27.8-10.3-52.4-27.1-72-48.6l0 132.1-48 0 0-132.1c-15.7 17.3-34.7 31.5-56 41.8l0 90.3-48 0 0-74.8c-10.4 1.8-21.1 2.8-32 2.8s-21.6-1-32-2.8l0 74.8-48 0 0-90.3c-21.3-10.3-40.3-24.5-56-41.8l0 132.1-48 0 0-132.1c-19.6 21.5-44.2 38.3-72 48.6L0 120z"/><path fill="currentColor" d="M0 256l512 0 0 80c-37.6 9.4-64 43.2-64 82l0 94-96 0 0-64c0-53-43-96-96-96s-96 43-96 96l0 64-96 0 0-94c0-38.8-26.4-72.6-64-82l0-80z"/></svg>