<svg xmlns="http://www.w3.org/2000/svg" viewBox="0 0 512 512"><!--! Font Awesome Pro 7.1.0 by @fontawesome - https://fontawesome.com License - https://fontawesome.com/license (Commercial License) Copyright 2025 Fonticons, Inc. --><path opacity=".4" fill="currentColor" d="M0 64l512 0 0 48-512 0 0 48 128 0 0 37.9c0 33.2-9.8 65.6-28.2 93.2L85.4 312.7C60.7 297 31.4 288 0 288L0 64zM121.9 344.4l17.8-26.7c23.7-35.5 36.3-77.2 36.3-119.8l0-37.9 160 0 0 37.9c0 42.6 12.6 84.3 36.3 119.8l17.8 26.7C366.3 372.3 352 408.5 352 448l-192 0c0-39.5-14.3-75.7-38.1-103.6zM384 160l128 0 0 128c-31.4 0-60.7 9-85.4 24.7l-14.4-21.6c-18.4-27.6-28.2-60-28.2-93.2l0-37.9z"/><path fill="currentColor" d="M336 160l-160 0 0 37.9c0 42.6-12.6 84.3-36.3 119.8l-17.8 26.7c-10.5-12.3-22.8-23-36.5-31.7l14.4-21.6c18.4-27.6 28.2-60 28.2-93.2l0-37.9-128 0 0-48 512 0 0 48-128 0 0 37.9c0 33.2 9.8 65.6 28.2 93.2l14.4 21.6c-13.7 8.7-26.1 19.4-36.5 31.7l-17.8-26.7C348.6 282.2 336 240.5 336 197.9l0-37.9z"/></svg>