<svg xmlns="http://www.w3.org/2000/svg" viewBox="0 0 512 512"><!--! Font Awesome Pro 7.1.0 by @fontawesome - https://fontawesome.com License - https://fontawesome.com/license (Commercial License) Copyright 2025 Fonticons, Inc. --><path opacity=".4" fill="currentColor" d="M0 224l0 64 112 0 0-64-112 0zM50.7 96c32.4 32.4 72.2 72.2 77.3 77.3L173.3 128C140.9 95.6 101.1 55.8 96 50.7L50.7 96zm0 320L96 461.3c32.4-32.4 72.2-72.2 77.3-77.3L128 338.7C95.6 371.1 55.8 410.9 50.7 416zM224 0l0 112 64 0 0-112-64 0zm0 400l0 112 64 0 0-112-64 0zM338.7 128L384 173.3c32.4-32.4 72.2-72.2 77.3-77.3L416 50.7c-32.4 32.4-72.2 72.2-77.3 77.3zm0 256L416 461.3 461.3 416 384 338.7 338.7 384zM400 224l0 64 112 0 0-64-112 0z"/><path fill="currentColor" d="M160 256a96 96 0 1 1 192 0 96 96 0 1 1 -192 0z"/></svg>