<svg xmlns="http://www.w3.org/2000/svg" viewBox="0 0 512 512"><!--! Font Awesome Pro 7.1.0 by @fontawesome - https://fontawesome.com License - https://fontawesome.com/license (Commercial License) Copyright 2025 Fonticons, Inc. --><path opacity=".4" fill="currentColor" d="M112 352l104 0 40 80 40-80 104 0s-56 64-88 160l-112 0c-32-96-88-160-88-160z"/><path fill="currentColor" d="M416 352L0 352 0 256c0-45.5 31.6-83.6 74.1-93.5-6.4-10-10.1-21.8-10.1-34.5 0-35.3 28.7-64 64-64 12.7 0 24.6 3.7 34.5 10.1 9.9-42.5 48-74.1 93.5-74.1s83.6 31.6 93.5 74.1c10-6.4 21.8-10.1 34.5-10.1 35.3 0 64 28.7 64 64 0 12.7-3.7 24.6-10.1 34.5 42.5 9.9 74.1 48 74.1 93.5l0 96-96 0z"/></svg>