<svg xmlns="http://www.w3.org/2000/svg" viewBox="0 0 576 512"><!--! Font Awesome Pro 7.0.1 by @fontawesome - https://fontawesome.com License - https://fontawesome.com/license (Commercial License) Copyright 2025 Fonticons, Inc. --><path style="fill:var(--fa-secondary-color,currentColor);opacity:var(--fa-secondary-opacity,.4)" d="M32 0l384 0 0 185.3c-46.9 19-80 65-80 118.7l-32 0 0 208-272 0 0-512zm96 96l0 64 64 0 0-64-64 0zm0 128l0 64 64 0 0-64-64 0zm48 128l0 112 80 0 0-112-80 0zM256 96l0 64 64 0 0-64-64 0zm0 128l0 32 38.6 0c3.2-11.2 7.4-21.9 12.6-32L256 224z"/><path style="fill:var(--fa-primary-color,currentColor);opacity:var(--fa-primary-opacity,1)" d="M432 304l0 48 64 0 0-48c0-17.7-14.3-32-32-32s-32 14.3-32 32zm-48 48l0-48c0-44.2 35.8-80 80-80s80 35.8 80 80l0 48 32 0 0 192-224 0 0-192 32 0z"/></svg>