<svg xmlns="http://www.w3.org/2000/svg" viewBox="0 0 640 512"><!--! Font Awesome Pro 7.0.1 by @fontawesome - https://fontawesome.com License - https://fontawesome.com/license (Commercial License) Copyright 2025 Fonticons, Inc. --><path style="fill:var(--fa-secondary-color,currentColor);opacity:var(--fa-secondary-opacity,.4)" d="M32 0l384 0 0 80-112 0 0 16-48 0 0 64 48 0 0 64-48 0 0 64 48 0 0 224-272 0 0-512zm96 96l0 64 64 0 0-64-64 0zm0 128l0 64 64 0 0-64-64 0zm48 128l0 112 96 0 0-112-96 0z"/><path style="fill:var(--fa-primary-color,currentColor);opacity:var(--fa-primary-opacity,1)" d="M640 128l-288 0 0 416 288 0 0-416zM448 216l120 0 0 48-144 0 0-48 24 0zm-24 96l144 0 0 48-144 0 0-48zm24 96l88 0 0 48-112 0 0-48 24 0z"/></svg>