<svg xmlns="http://www.w3.org/2000/svg" viewBox="0 0 512 512"><!--! Font Awesome Pro 7.1.0 by @fontawesome - https://fontawesome.com License - https://fontawesome.com/license (Commercial License) Copyright 2025 Fonticons, Inc. --><path opacity=".4" fill="currentColor" d="M32 0l384 0 0 336-176 0 0 16-64 0 0 112 64 0 0 48-208 0 0-512zm96 96l0 64 64 0 0-64-64 0zm0 128l0 64 64 0 0-64-64 0zM256 96l0 64 64 0 0-64-64 0zm0 128l0 64 64 0 0-64-64 0z"/><path fill="currentColor" d="M324 400l0-20-40 0 0 116c0 28.7 23.3 52 52 52s52-23.3 52-52l0-116-40 0 0 116c0 6.6-5.4 12-12 12s-12-5.4-12-12l0-96zm108-20l-20 0 0 168 40 0 0-59.2c15.8 37.2 24.2 56.9 25.2 59.2l38.8 0 0-168-40 0 0 63c-17.1-40.3-26.1-61.3-26.8-63L432 380z"/></svg>