<svg xmlns="http://www.w3.org/2000/svg" viewBox="0 0 576 512"><!--! Font Awesome Pro 7.1.0 by @fontawesome - https://fontawesome.com License - https://fontawesome.com/license (Commercial License) Copyright 2025 Fonticons, Inc. --><path opacity=".4" fill="currentColor" d="M24 0l384 0 0 209.5c-36.1 4.5-69 19-96 40.6l0-26.1-64 0 0 64 28 0c-13.7 19-24 40.7-30 64l-78 0 0 112 82.9 0c6.1 17.3 14.6 33.4 25.1 48L24 512 24 0zm96 96l0 64 64 0 0-64-64 0zm0 128l0 64 64 0 0-64-64 0zM248 96l0 64 64 0 0-64-64 0z"/><path fill="currentColor" d="M288 400a144 144 0 1 1 288 0 144 144 0 1 1 -288 0zm210.6-44L476 333.4c-4 4-18.6 18.6-44 44-25.3-25.4-40-40-44-44L365.4 356c4 4 18.6 18.6 44 44-25.4 25.3-40 40-44 44L388 466.6c4-4 18.6-18.6 44-44 25.3 25.4 40 40 44 44L498.6 444c-4-4-18.6-18.6-44-44 25.4-25.3 40-40 44-44z"/></svg>