<svg xmlns="http://www.w3.org/2000/svg" viewBox="0 0 640 512"><!--! Font Awesome Pro 7.1.0 by @fontawesome - https://fontawesome.com License - https://fontawesome.com/license (Commercial License) Copyright 2025 Fonticons, Inc. --><path opacity=".4" fill="currentColor" d="M166.1 320l51.2-256 65.3 0-9.8 49 47.6 55.5 47.6-55.5-9.8-49 65.3 0 51.2 256-87.6 0-66.7-77.8-66.7 77.8-87.6 0zm77.7-62.3l44.9-52.4-27.9-32.6-17 84.9zM352 205.3l44.9 52.4-17-84.9-27.9 32.6z"/><path fill="currentColor" d="M192.4 0l0 64 256 0 0-64-256 0zm-64 391.4c33.3-13.3 57.3-22.9 72-28.8l26.8 10.7 93.2 37.3 93.3-37.3 26.7-10.7c14.8 5.9 38.8 15.5 72 28.8l0-71.4-384 0 0 71.4zm80.9 26.3l-8.9-3.6-8.9 3.6-111.8 44.7c-29.3-9.8-50.1-16.7-62.4-20.8L2 487.2c11 3.7 34.6 11.5 70.8 23.6l8.3 2.8 8.2-3.3 111.1-44.4 111.1 44.4 8.9 3.6 8.9-3.6 111.1-44.4 111.1 44.4 8.2 3.3 8.3-2.8 70.8-23.6-15.2-45.5c-12.4 4.1-33.2 11.1-62.4 20.8l-111.8-44.7-8.9-3.6-8.9 3.6-111.1 44.4-111.1-44.4z"/></svg>