<svg xmlns="http://www.w3.org/2000/svg" viewBox="0 0 512 512"><!--! Font Awesome Pro 7.0.1 by @fontawesome - https://fontawesome.com License - https://fontawesome.com/license (Commercial License) Copyright 2025 Fonticons, Inc. --><path style="fill:var(--fa-secondary-color,currentColor);opacity:var(--fa-secondary-opacity,.4)" d="M32 176l0 48 448 0 0-48S432 32 256 32 32 176 32 176zm0 224l0 80 448 0 0-80-448 0zM168 128a24 24 0 1 1 -48 0 24 24 0 1 1 48 0zM280 96a24 24 0 1 1 -48 0 24 24 0 1 1 48 0zM240 272l80 48 80-48-160 0zM392 128a24 24 0 1 1 -48 0 24 24 0 1 1 48 0z"/><path style="fill:var(--fa-primary-color,currentColor);opacity:var(--fa-primary-opacity,1)" d="M320 320l-80-48-240 0 0 80 512 0 0-80-112 0-80 48z"/></svg>