<svg xmlns="http://www.w3.org/2000/svg" viewBox="0 0 576 512"><!--! Font Awesome Pro 7.1.0 by @fontawesome - https://fontawesome.com License - https://fontawesome.com/license (Commercial License) Copyright 2025 Fonticons, Inc. --><path opacity=".4" fill="currentColor" d="M40 96l0 48 24 0 32 368 112 0 0-199.8c9.6-28.1 25-53.1 46-74.2 27.3-27.3 68.4-52.7 127-60.1l3-34 24 0 0-48-166.6 0 17.1-64 61.6 0 0-48-98.4 0-4.8 17.8-25.1 94.2-151.7 0z"/><path fill="currentColor" d="M256 479.8l0 64 320 0 0-64-320 0zm320-112l0-47.8s-32-96.1-160-96.2C288 224 256 320 256 320l0 47.8 320 0zm0 32l-320 0 0 48 320 0 0-48zM416 256a16 16 0 1 1 0 32 16 16 0 1 1 0-32zm-96 48a16 16 0 1 1 32 0 16 16 0 1 1 -32 0zm176-16a16 16 0 1 1 0 32 16 16 0 1 1 0-32z"/></svg>