<svg xmlns="http://www.w3.org/2000/svg" viewBox="0 0 512 512"><!--! Font Awesome Pro 7.1.0 by @fontawesome - https://fontawesome.com License - https://fontawesome.com/license (Commercial License) Copyright 2025 Fonticons, Inc. --><path opacity=".4" fill="currentColor" d="M119.4 251c12.1 5.8 35.1 16.8 69 33-13.1 37.3-20.4 57.7-21.6 61.2 3.6-1.3 24-8.5 61.2-21.6 17 35.6 26.4 55.2 28 58.6 1.6-3.4 11-22.9 28-58.6 37.3 13.2 57.7 20.4 61.2 21.6-1.3-3.6-8.5-24-21.6-61.2 35.6-17 55.2-26.4 58.6-28-3.4-1.6-22.9-11-58.6-28 13.2-37.3 20.4-57.7 21.6-61.2-3.6 1.3-24 8.5-61.2 21.6-16.8-35-26.7-55.8-29.8-62.2l-5.2 10.2-26.4 51.6c-38.6-21.5-62.7-34.9-72.2-40.2 2.7 4.7 15 25.9 36.9 63.6-36.8 21.6-59.5 34.8-67.8 39.7z"/><path fill="currentColor" d="M312.8 118.8C295.8 83.3 276.9 43.7 256 0l-31.3 61-.9 1.7-24.7 48.2c-64.7-36-139.7-77.7-199.2-110.8 36.4 62.7 73.3 126.5 110.8 191.2-34 19.9-70.9 41.5-110.8 64.8 41.2 19.7 80.8 38.7 118.8 56.8-12.6 35.7-27.2 77.1-43.8 124.2 47.1-16.6 88.5-31.3 124.2-43.8 16.3 34.1 35.3 73.7 56.8 118.8 21.6-45.1 40.5-84.7 56.8-118.8 35.7 12.6 77.1 27.2 124.2 43.8-16.6-47.1-31.3-88.5-43.8-124.2 34.1-16.3 73.7-35.3 118.8-56.8-45.1-21.6-84.7-40.5-118.8-56.8 12.6-35.7 27.2-77.1 43.8-124.2-47.1 16.6-88.5 31.3-124.2 43.8zm32.4 47.9c-1.3 3.6-8.5 24-21.6 61.2 35.6 17 55.2 26.4 58.6 28-3.4 1.6-22.9 11-58.6 28 13.1 37.2 20.4 57.7 21.6 61.2-3.6-1.3-24-8.5-61.2-21.6-17 35.6-26.4 55.2-28 58.6-1.6-3.4-11-22.9-28-58.6-37.2 13.1-57.7 20.4-61.2 21.6 1.3-3.6 8.5-24 21.6-61.2-33.9-16.2-56.9-27.2-69-33 8.4-4.9 31-18.1 67.8-39.7-21.8-37.7-34.1-58.9-36.9-63.6 9.5 5.3 33.6 18.7 72.2 40.2l26.4-51.6 5.2-10.2c3.1 6.5 13 27.2 29.8 62.2 37.2-13.1 57.7-20.4 61.2-21.6z"/></svg>