<svg xmlns="http://www.w3.org/2000/svg" viewBox="0 0 640 512"><!--! Font Awesome Pro 7.0.1 by @fontawesome - https://fontawesome.com License - https://fontawesome.com/license (Commercial License) Copyright 2025 Fonticons, Inc. --><path style="fill:var(--fa-secondary-color,currentColor);opacity:var(--fa-secondary-opacity,.4)" d="M96 128l0 128 192 0 0-128-192 0zm384 91.3l0 260.7 64 0 0-260.6c-10.1 3-20.9 4.6-32 4.6s-21.9-1.6-32-4.7z"/><path style="fill:var(--fa-primary-color,currentColor);opacity:var(--fa-primary-opacity,1)" d="M352 416l-32 0 0 64-64 0 0-64-128 0 0 64-64 0 0-64-32 0 0-352 320 0 0 352zM120 304a24 24 0 1 0 0 48 24 24 0 1 0 0-48zm144 0a24 24 0 1 0 0 48 24 24 0 1 0 0-48zM96 256l192 0 0-128-192 0 0 128zm416-32a112 112 0 1 1 0-224 112 112 0 1 1 0 224z"/></svg>