<svg xmlns="http://www.w3.org/2000/svg" viewBox="0 0 448 512"><!--! Font Awesome Pro 7.0.1 by @fontawesome - https://fontawesome.com License - https://fontawesome.com/license (Commercial License) Copyright 2025 Fonticons, Inc. --><path style="fill:var(--fa-secondary-color,currentColor);opacity:var(--fa-secondary-opacity,.4)" d="M0 208l448 0 0 132.3-112 59.7-112-64-112 64-112-59.7 0-132.3zM56 53.6c0-8.8 2.8-17.5 7.9-24.6L96-16 128.1 28.9c5.1 7.2 7.9 15.8 7.9 24.6l0 2.4c0 22.1-17.9 40-40 40S56 78.1 56 56l0-2.4zm128 0c0-8.8 2.8-17.5 7.9-24.6L224-16 256.1 28.9c5.1 7.2 7.9 15.8 7.9 24.6l0 2.4c0 22.1-17.9 40-40 40s-40-17.9-40-40l0-2.4zm128 0c0-8.8 2.8-17.5 7.9-24.6L352-16 384.1 28.9c5.1 7.2 7.9 15.8 7.9 24.6l0 2.4c0 22.1-17.9 40-40 40s-40-17.9-40-40l0-2.4z"/><path style="fill:var(--fa-primary-color,currentColor);opacity:var(--fa-primary-opacity,1)" d="M128 160l0 48-64 0 0-80 64 0 0 32zm128 0l0 48-64 0 0-80 64 0 0 32zm128 0l0 48-64 0 0-80 64 0 0 32zM112 400l112-64 112 64 112-59.7 0 171.7-448 0 0-171.7 112 59.7z"/></svg>