<svg xmlns="http://www.w3.org/2000/svg" viewBox="0 0 448 512"><!--! Font Awesome Pro 7.1.0 by @fontawesome - https://fontawesome.com License - https://fontawesome.com/license (Commercial License) Copyright 2025 Fonticons, Inc. --><path opacity=".4" fill="currentColor" d="M0 160l0 352 448 0 0-352-448 0zM112 298.7c0-32.4 26.3-58.7 58.7-58.7 18.5 0 35.9 8.7 46.9 23.5l6.4 8.5 6.4-8.5c11.1-14.8 28.5-23.5 46.9-23.5 32.4 0 58.7 26.3 58.7 58.7l0 5.3c0 64-112 128-112 128S112 368 112 304l0-5.3z"/><path fill="currentColor" d="M160 0l-64 0 0 64-96 0 0 96 448 0 0-96-96 0 0-64-64 0 0 64-128 0 0-64zm57.6 263.5c-11.1-14.8-28.5-23.5-46.9-23.5-32.4 0-58.7 26.3-58.7 58.7l0 5.3c0 64 112 128 112 128s112-64 112-128l0-5.3c0-32.4-26.3-58.7-58.7-58.7-18.5 0-35.9 8.7-46.9 23.5l-6.4 8.5-6.4-8.5z"/></svg>