<svg xmlns="http://www.w3.org/2000/svg" viewBox="0 0 448 512"><!--! Font Awesome Pro 7.1.0 by @fontawesome - https://fontawesome.com License - https://fontawesome.com/license (Commercial License) Copyright 2025 Fonticons, Inc. --><path opacity=".4" fill="currentColor" d="M0 160l448 0 0 320-448 0 0-320zm96 80l0 48 256 0 0-48-256 0zm0 96l0 48 160 0 0-48-160 0z"/><path fill="currentColor" d="M96 0l64 0 0 64 128 0 0-64 64 0 0 64 96 0 0 96-448 0 0-96 96 0 0-64zm0 240l256 0 0 48-256 0 0-48zm160 96l0 48-160 0 0-48 160 0z"/></svg>