<svg xmlns="http://www.w3.org/2000/svg" viewBox="0 0 640 512"><!--! Font Awesome Pro 7.1.0 by @fontawesome - https://fontawesome.com License - https://fontawesome.com/license (Commercial License) Copyright 2025 Fonticons, Inc. --><path opacity=".4" fill="currentColor" d="M64 64l0 416 217.6 0 9.2-55.1 221.3-221.3 0-139.7-96 0 0-64-64 0 0 64-128 0 0-64-64 0 0 64-96 0zm96 160l192 0 0 48-192 0 0-48zm0 96l128 0 0 48-128 0 0-48z"/><path fill="currentColor" d="M491.2 292.6l80 80 52.8-52.8-80-80-52.8 52.8zm-22.6 22.6l-132.6 132.6-16 96 96-16 132.6-132.6-80-80z"/></svg>