<svg xmlns="http://www.w3.org/2000/svg" viewBox="0 0 576 512"><!--! Font Awesome Pro 7.1.0 by @fontawesome - https://fontawesome.com License - https://fontawesome.com/license (Commercial License) Copyright 2025 Fonticons, Inc. --><path opacity=".4" fill="currentColor" d="M32 64l96 0 0-64 64 0 0 64 128 0 0-64 64 0 0 64 96 0 0 112-448 0 0-112zm0 160l323.1 0c-67.8 29.6-115.1 97.3-115.1 176 0 28.6 6.2 55.6 17.4 80L32 480 32 224z"/><path fill="currentColor" d="M432 544a144 144 0 1 0 0-288 144 144 0 1 0 0 288zm64-128l-144 0 0-32 160 0 0 32-16 0z"/></svg>