<svg xmlns="http://www.w3.org/2000/svg" viewBox="0 0 448 512"><!--! Font Awesome Pro 7.1.0 by @fontawesome - https://fontawesome.com License - https://fontawesome.com/license (Commercial License) Copyright 2025 Fonticons, Inc. --><path opacity=".4" fill="currentColor" d="M0 160l448 0 0 320-448 0 0-320zm193.3 32l11.5 144 38.4 0 11.5-144-61.4 0zM196 372l0 56 56 0 0-56-56 0z"/><path fill="currentColor" d="M252 428l-56 0 0-56 56 0 0 56zm-8.8-92l-38.4 0-11.5-144 61.4 0-11.5 144zM160 64l128 0 0-64 64 0 0 64 96 0 0 96-448 0 0-96 96 0 0-64 64 0 0 64z"/></svg>