<svg xmlns="http://www.w3.org/2000/svg" viewBox="0 0 512 512"><!--! Font Awesome Pro 7.1.0 by @fontawesome - https://fontawesome.com License - https://fontawesome.com/license (Commercial License) Copyright 2025 Fonticons, Inc. --><path opacity=".4" fill="currentColor" d="M0 96l0 384 512 0 0-384-138.7 0-21.3-64-192 0-21.3 64-138.7 0zM96 288l40 0c0-66.3 53.7-120 120-120 17 0 33.2 3.5 47.8 9.9l-34.9 39.3c-4.2-.8-8.5-1.2-12.9-1.2-39.8 0-72 32.2-72 72l40 0-64 80-64-80zM208.2 398.1l34.9-39.3c4.2 .8 8.5 1.2 12.9 1.2 39.8 0 72-32.2 72-72l-40 0 64-80 64 80-40 0c0 66.3-53.7 120-120 120-17 0-33.2-3.5-47.8-9.9z"/><path fill="currentColor" d="M184 288l40 0-64 80-64-80 40 0c0-66.3 53.7-120 120-120 17 0 33.2 3.5 47.8 9.9l-34.9 39.3c-4.2-.8-8.5-1.2-12.9-1.2-39.8 0-72 32.2-72 72l0 0zm168-80l64 80-40 0c0 66.3-53.7 120-120 120-17 0-33.2-3.5-47.8-9.9l34.9-39.3c4.2 .8 8.5 1.2 12.9 1.2 39.8 0 72-32.2 72-72l-40 0 64-80z"/></svg>