<svg xmlns="http://www.w3.org/2000/svg" viewBox="0 0 576 512"><!--! Font Awesome Pro 7.1.0 by @fontawesome - https://fontawesome.com License - https://fontawesome.com/license (Commercial License) Copyright 2025 Fonticons, Inc. --><path opacity=".4" fill="currentColor" d="M64 240l352 0 0 272-352 0 0-272z"/><path fill="currentColor" d="M128 240C57.3 240 0 182.7 0 112S57.3-16 128-16c48.2 0 90.2 26.6 112 66 21.8-39.4 63.8-66 112-66 70.7 0 128 57.3 128 128S422.7 240 352 240l-224 0zm224-80a48 48 0 1 0 0-96 48 48 0 1 0 0 96zM176 112a48 48 0 1 0 -96 0 48 48 0 1 0 96 0zM544 224l0 288-128-85.3 0-117.3 128-85.3z"/></svg>