<svg xmlns="http://www.w3.org/2000/svg" viewBox="0 0 512 512"><!--! Font Awesome Pro 7.0.1 by @fontawesome - https://fontawesome.com License - https://fontawesome.com/license (Commercial License) Copyright 2025 Fonticons, Inc. --><path style="fill:var(--fa-secondary-color,currentColor);opacity:var(--fa-secondary-opacity,.4)" d="M64 464l0 48 376 0c39.8 0 72-32.2 72-72s-32.2-72-72-72-72 32.2-72 72c0 8.4 1.4 16.5 4.1 24l-52.1 0 0-224-192 0 0 224-64 0zm80-352c0 44.2 35.8 80 80 80s80-35.8 80-80C304 64 224 0 224 0s-80 64-80 112zM464 440a24 24 0 1 1 -48 0 24 24 0 1 1 48 0z"/><path style="fill:var(--fa-primary-color,currentColor);opacity:var(--fa-primary-opacity,1)" d="M128 240l192 0 0 224-192 0 0-224z"/></svg>