<svg xmlns="http://www.w3.org/2000/svg" viewBox="0 0 512 512"><!--! Font Awesome Pro 7.1.0 by @fontawesome - https://fontawesome.com License - https://fontawesome.com/license (Commercial License) Copyright 2025 Fonticons, Inc. --><path opacity=".4" fill="currentColor" d="M0 416l0 64 96 0 0-64-96 0zM113 192l286 0-16-64-254 0-16 64zM200 64l112 0-16-64-80 0-16 64zM416 416l0 64 96 0 0-64-96 0z"/><path fill="currentColor" d="M512 416l-512 0 0-224 47 0C67.6 109.6 78.3 66.9 79 64l354 0c.7 2.9 11.4 45.6 32 128l47 0 0 224zM383 128l-254 0-16 64 286 0-16-64zM96 336a32 32 0 1 0 0-64 32 32 0 1 0 0 64zm352-32a32 32 0 1 0 -64 0 32 32 0 1 0 64 0z"/></svg>