<svg xmlns="http://www.w3.org/2000/svg" viewBox="0 0 640 512"><!--! Font Awesome Pro 7.1.0 by @fontawesome - https://fontawesome.com License - https://fontawesome.com/license (Commercial License) Copyright 2025 Fonticons, Inc. --><path opacity=".4" fill="currentColor" d="M96.1 288l0 224 80 0 0-64 288 0 0 64 80 0 0-224-35.8 0-46.2-123.2-7.8-20.8-268.4 0-7.8 20.8-46.2 123.2-35.8 0zm128 80a32 32 0 1 1 -64 0 32 32 0 1 1 64 0zm-23.8-80l30-80 179.6 0 30 80-239.6 0zm279.8 80a32 32 0 1 1 -64 0 32 32 0 1 1 64 0z"/><path fill="currentColor" d="M320.1-18.9l12.8 5.6 256 112 29.3 12.8-25.7 58.6-29.3-12.8-243.2-106.4-243.2 106.4-29.3 12.8-25.7-58.6 29.3-12.8 256-112 12.8-5.6z"/></svg>