<svg xmlns="http://www.w3.org/2000/svg" viewBox="0 0 640 512"><!--! Font Awesome Pro 7.1.0 by @fontawesome - https://fontawesome.com License - https://fontawesome.com/license (Commercial License) Copyright 2025 Fonticons, Inc. --><path opacity=".4" fill="currentColor" d="M64 392c0 2.7 .1 5.4 .4 8 4 44.9 41.7 80 87.6 80s83.6-35.1 87.6-80c.2-2.6 .4-5.3 .4-8 0-48.6-39.4-88-88-88s-88 39.4-88 88zm128 0a40 40 0 1 1 -80 0 40 40 0 1 1 80 0zm192 0c0 2.7 .1 5.4 .4 8 4 44.9 41.7 80 87.6 80s83.6-35.1 87.6-80c.2-2.6 .4-5.3 .4-8 0-48.6-39.4-88-88-88s-88 39.4-88 88zm128 0a40 40 0 1 1 -80 0 40 40 0 1 1 80 0z"/><path fill="currentColor" d="M128 32l-22.7 0-7.5 21.4-48.5 138.6-49.3 0 0 208 64.4 0c-.2-2.6-.4-5.3-.4-8 0-48.6 39.4-88 88-88s88 39.4 88 88c0 2.7-.1 5.4-.4 8l144.7 0c-.2-2.6-.4-5.3-.4-8 0-48.6 39.4-88 88-88s88 39.4 88 88c0 2.7-.1 5.4-.4 8l80.4 0 0-208-120 0-110.4-147.2-9.6-12.8-272 0zM440 192l-152 0 0-96 80 0 72 96zM240 96l0 96-122.9 0 33.6-96 89.3 0z"/></svg>