<svg xmlns="http://www.w3.org/2000/svg" viewBox="0 0 576 512"><!--! Font Awesome Pro 7.1.0 by @fontawesome - https://fontawesome.com License - https://fontawesome.com/license (Commercial License) Copyright 2025 Fonticons, Inc. --><path opacity=".4" fill="currentColor" d="M31.4 251.1C72.2 403.7 77.4 423 84.1 448l77.7 0 4.8-1.3-16.6-61.8 278.2-74.5 16.6 61.8 77.3-20.7c-23.5-87.6-42.8-159.7-58-216.4l-34.6 9.3-76.5-107.1-12.9-18-21.4 5.7-216.4 58-21.4 5.7-2.1 22.1-12.7 131-34.6 9.3zm144.3 44.1a32 32 0 1 1 -61.8 16.6 32 32 0 1 1 61.8-16.6zM132 224.1l8.3-85 173.5-46.5 49.7 69.5-231.5 62zm291 4.8a32 32 0 1 1 -61.8 16.6 32 32 0 1 1 61.8-16.6z"/><path fill="currentColor" d="M0 448l576 0 0 64-576 0 0-64z"/></svg>