<svg xmlns="http://www.w3.org/2000/svg" viewBox="0 0 640 512"><!--! Font Awesome Pro 7.1.0 by @fontawesome - https://fontawesome.com License - https://fontawesome.com/license (Commercial License) Copyright 2025 Fonticons, Inc. --><path opacity=".4" fill="currentColor" d="M128 128l128 0 0 128-128 0 0-128zM312 424a88 88 0 1 1 -176 0 88 88 0 1 1 176 0zm-128 0a40 40 0 1 0 80 0 40 40 0 1 0 -80 0zM320 128l128 0 0 96-48 0 0 48 48 0 0 80-128 0 0-224z"/><path fill="currentColor" d="M32 32l512 0 0 320 96 0 0 64-328.4 0c-4-44.9-41.7-80-87.6-80s-83.6 35.1-87.6 80L32 416 32 32zM448 272l-48 0 0-48 48 0 0-96-128 0 0 224 128 0 0-80zM256 128l-128 0 0 128 128 0 0-128z"/></svg>