<svg xmlns="http://www.w3.org/2000/svg" viewBox="0 0 576 512"><!--! Font Awesome Pro 7.1.0 by @fontawesome - https://fontawesome.com License - https://fontawesome.com/license (Commercial License) Copyright 2025 Fonticons, Inc. --><path opacity=".4" fill="currentColor" d="M88 32L140.6 51.4 160 104 179.4 51.4 232 32 179.4 12.6 160-40 140.6 12.6 88 32zM224 144c0 19.6 3.2 38.4 9.2 56 8 23.8 21 45.4 37.7 63.5 1.3 1.4 2.6 2.8 4 4.1 3.5 3.5 7.1 6.9 10.8 10.1 3.4 2.9 7 5.7 10.6 8.4 29.1 21.3 64.9 33.8 103.7 33.8 8.3 0 16.5-.6 24.5-1.7 8-1.2 15.8-2.8 23.5-4.9 73.9-20.9 128-88.8 128-169.4 0-97.2-78.8-176-176-176S224 46.8 224 144zM304 18.3l68.6 57.2 54.9 0 68.6-57.2 0 125.7c0 53-43 96-96 96s-96-43-96-96l0-125.7z"/><path fill="currentColor" d="M32 96c53 0 96 43 96 96l0 85.8c24.6-37 61.6-64.9 105.2-77.8 23.4 69.7 89.2 120 166.8 120 16.6 0 32.7-2.4 48-6.7l0 198.7-64 0 0-172.8-136 108.8 88 0 0 64-272 0 0-320c0-17.7-14.3-32-32-32l-32 0 0-64 32 0zm464 48c0 53-43 96-96 96s-96-43-96-96l0-125.7 68.6 57.2 54.9 0 68.6-57.2 0 125.7zM368 124a20 20 0 1 0 0 40 20 20 0 1 0 0-40zm64 0a20 20 0 1 0 0 40 20 20 0 1 0 0-40z"/></svg>