<svg xmlns="http://www.w3.org/2000/svg" viewBox="0 0 576 512"><!--! Font Awesome Pro 7.0.1 by @fontawesome - https://fontawesome.com License - https://fontawesome.com/license (Commercial License) Copyright 2025 Fonticons, Inc. --><path style="fill:var(--fa-secondary-color,currentColor);opacity:var(--fa-secondary-opacity,.4)" d="M64 16l0 48 56 0 0 32 48 0 0-32 56 0 0-48-160 0zm72 176l0 96 48 0 0-96-48 0zM336 64l0 32 160 0 0-32-160 0zm51.7 202.3l33.9 33.9 67.9-67.9-33.9-33.9-67.9 67.9z"/><path style="fill:var(--fa-primary-color,currentColor);opacity:var(--fa-primary-opacity,1)" d="M0 96l576 0 0 352-576 0 0-352zM495.2 351.2A112 112 0 1 0 336.8 192.8 112 112 0 1 0 495.2 351.2zM160 384a112 112 0 1 0 0-224 112 112 0 1 0 0 224z"/></svg>