<svg xmlns="http://www.w3.org/2000/svg" viewBox="0 0 320 512"><!--! Font Awesome Pro 7.0.1 by @fontawesome - https://fontawesome.com License - https://fontawesome.com/license (Commercial License) Copyright 2025 Fonticons, Inc. --><path style="fill:var(--fa-secondary-color,currentColor);opacity:var(--fa-secondary-opacity,.4)" d="M96 64A64 64 0 1 0 224 64 64 64 0 1 0 96 64z"/><path style="fill:var(--fa-primary-color,currentColor);opacity:var(--fa-primary-opacity,1)" d="M116.9 160l-16 0-9.6 12.8C34.4 248.5 4 289 0 294.4l51.2 38.4c13.5-17.9 25-33.3 34.6-46l-37.7 113.2 40 0 0 112 64 0 0-112 16 0 0 112 64 0 0-112 40 0-37.7-113.2c9.6 12.8 21.1 28.1 34.6 46L320 294.4c-4-5.3-34.4-45.9-91.3-121.6l-9.6-12.8-102.1 0z"/></svg>