<svg xmlns="http://www.w3.org/2000/svg" viewBox="0 0 640 512"><!--! Font Awesome Pro 7.1.0 by @fontawesome - https://fontawesome.com License - https://fontawesome.com/license (Commercial License) Copyright 2025 Fonticons, Inc. --><path opacity=".4" fill="currentColor" d="M32 256c0 141.4 114.6 256 256 256 16.7 0 33-1.6 48.8-4.6-12.3-18.2-21.6-38.6-27.1-60.6-7.1 .8-14.4 1.2-21.7 1.2-53.1 0-101.1-21.5-135.9-56.4L176 320 321.4 320C351.7 253.9 418.5 208 496 208 511.3 208 526.2 209.8 540.4 213.2 520.1 92.2 414.8 0 288 0 146.6 0 32 114.6 32 256zm328-56a72 72 0 1 1 -144 0 72 72 0 1 1 144 0z"/><path fill="currentColor" d="M352 400a144 144 0 1 1 288 0 144 144 0 1 1 -288 0zm160 48l-32 0 0 32 32 0 0-32zm0-128l0-16-32 0 0 112 32 0 0-96z"/></svg>