<svg xmlns="http://www.w3.org/2000/svg" viewBox="0 0 512 512"><!--! Font Awesome Pro 7.1.0 by @fontawesome - https://fontawesome.com License - https://fontawesome.com/license (Commercial License) Copyright 2025 Fonticons, Inc. --><path opacity=".4" fill="currentColor" d="M0 256a256 256 0 1 0 512 0 256 256 0 1 0 -512 0zM112 144l29 0c32.9 0 65.4 7.5 95 22l0 208c-29.6-14.5-62.1-22-95-22l-29 0 0-208zm164 22c29.6-14.5 62.1-22 95-22l29 0 0 208-29 0c-32.9 0-65.4 7.5-95 22l0-208z"/><path fill="currentColor" d="M236 166c-29.6-14.5-62.1-22-95-22l-29 0 0 208 29 0c32.9 0 65.4 7.5 95 22l0-208zm40 208c29.6-14.5 62.1-22 95-22l29 0 0-208-29 0c-32.9 0-65.4 7.5-95 22l0 208z"/></svg>