<svg xmlns="http://www.w3.org/2000/svg" viewBox="0 0 512 512"><!--! Font Awesome Pro 7.0.1 by @fontawesome - https://fontawesome.com License - https://fontawesome.com/license (Commercial License) Copyright 2025 Fonticons, Inc. --><path style="fill:var(--fa-secondary-color,currentColor);opacity:var(--fa-secondary-opacity,.4)" d="M0 256a256 256 0 1 0 512 0 256 256 0 1 0 -512 0zM128 144l56 0 0-32 40 0 0 32 64 0 0-32 40 0 0 32 56 0 0 240-256 0 0-240z"/><path style="fill:var(--fa-primary-color,currentColor);opacity:var(--fa-primary-opacity,1)" d="M184 112l40 0 0 32 64 0 0-32 40 0 0 32 56 0 0 80-256 0 0-80 56 0 0-32z"/></svg>