<svg xmlns="http://www.w3.org/2000/svg" viewBox="0 0 512 512"><!--! Font Awesome Pro 7.1.0 by @fontawesome - https://fontawesome.com License - https://fontawesome.com/license (Commercial License) Copyright 2025 Fonticons, Inc. --><path opacity=".4" fill="currentColor" d="M0 256a256 256 0 1 0 512 0 256 256 0 1 0 -512 0zM160 120l192 0 0 32-60.1 0c9.3 11.3 15.9 25 18.7 40l41.4 0 0 32-41.4 0c-6.1 33-30.5 59.5-62.3 68.6 55.9 44.7 85.7 68.6 89.5 71.6l-30 37.5-18.7-15-112-89.6-9-7.2 0-41.9 56 0c16.4 0 30.5-9.9 36.7-24l-100.7 0 0-32 100.7 0c-6.2-14.1-20.3-24-36.7-24l-64 0 0-48z"/><path fill="currentColor" d="M160 120l192 0 0 32-60.1 0c9.3 11.3 15.9 25 18.7 40l41.4 0 0 32-41.4 0c-6.1 33-30.5 59.5-62.3 68.6 55.9 44.7 85.7 68.6 89.5 71.6l-30 37.5-18.7-15-112-89.6-9-7.2 0-41.9 56 0c16.4 0 30.5-9.9 36.7-24l-100.7 0 0-32 100.7 0c-6.2-14.1-20.3-24-36.7-24l-64 0 0-48z"/></svg>