<svg xmlns="http://www.w3.org/2000/svg" viewBox="0 0 512 512"><!--! Font Awesome Pro 7.1.0 by @fontawesome - https://fontawesome.com License - https://fontawesome.com/license (Commercial License) Copyright 2025 Fonticons, Inc. --><path opacity=".4" fill="currentColor" d="M0 256a256 256 0 1 0 512 0 256 256 0 1 0 -512 0zm118.1 0c.8-.8 33.1-33.1 97-97l17-17 33.9 33.9c-7.6 7.6-26.3 26.3-56 56l174.1 0 0 48-174.1 0c29.7 29.7 48.4 48.4 56 56l-33.9 33.9-17-17c-63.8-63.8-96.2-96.2-97-97z"/><path fill="currentColor" d="M118.1 256c.8 .8 33.1 33.1 97 97l17 17 33.9-33.9c-7.6-7.6-26.3-26.3-56-56l174.1 0 0-48-174.1 0c29.7-29.7 48.4-48.4 56-56L232 142.1c-.8 .8-33.1 33.1-97 97l-17 17z"/></svg>