<svg xmlns="http://www.w3.org/2000/svg" viewBox="0 0 512 512"><!--! Font Awesome Pro 7.0.1 by @fontawesome - https://fontawesome.com License - https://fontawesome.com/license (Commercial License) Copyright 2025 Fonticons, Inc. --><path style="fill:var(--fa-secondary-color,currentColor);opacity:var(--fa-secondary-opacity,.4)" d="M0 256a256 256 0 1 0 512 0 256 256 0 1 0 -512 0zm118.1-32c11.3-11.3 22.6-22.6 33.9-33.9l17 17 87 87c29-29 58-58 87-87 5.7-5.7 11.3-11.3 17-17 11.3 11.3 22.6 22.6 33.9 33.9-5.7 5.7-11.3 11.3-17 17-34.7 34.7-69.3 69.3-104 104l-17 17-17-17c-34.7-34.7-69.3-69.3-104-104-5.7-5.7-11.3-11.3-17-17z"/><path style="fill:var(--fa-primary-color,currentColor);opacity:var(--fa-primary-opacity,1)" d="M256 361.9l17-17 104-104 17-17-33.9-33.9-17 17-87 87-87-87-17-17-33.9 33.9 17 17 104 104 17 17z"/></svg>