<svg xmlns="http://www.w3.org/2000/svg" viewBox="0 0 512 512"><!--! Font Awesome Pro 7.0.1 by @fontawesome - https://fontawesome.com License - https://fontawesome.com/license (Commercial License) Copyright 2025 Fonticons, Inc. --><path style="fill:var(--fa-secondary-color,currentColor);opacity:var(--fa-secondary-opacity,.4)" d="M0 256a256 256 0 1 0 512 0 256 256 0 1 0 -512 0zm128-96l64-32 48.4 64-40.4 40c16.5 35.2 44.8 63.5 80 80l40-40.4 64 48.4-32 64-8 0c-119.3 0-216-96.7-216-216l0-8z"/><path style="fill:var(--fa-primary-color,currentColor);opacity:var(--fa-primary-opacity,1)" d="M128 160l64-32 48.4 64-40.4 40c16.5 35.2 44.8 63.5 80 80l40-40.4 64 48.4-32 64-8 0c-119.3 0-216-96.7-216-216l0-8z"/></svg>