<svg xmlns="http://www.w3.org/2000/svg" viewBox="0 0 512 512"><!--! Font Awesome Pro 7.1.0 by @fontawesome - https://fontawesome.com License - https://fontawesome.com/license (Commercial License) Copyright 2025 Fonticons, Inc. --><path opacity=".4" fill="currentColor" d="M0 256a256 256 0 1 0 512 0 256 256 0 1 0 -512 0zM155.8 151.4l41.4-24.2c2.3 4 21.9 37.5 58.7 100.5 36.8-63 56.4-96.5 58.7-100.5l41.4 24.2c-1.9 3.3-22.3 38.1-61.1 104.6l41 0 0 32-56 0 0 32 56 0 0 32-56 0 0 48-48 0 0-48-56 0 0-32 56 0 0-32-56 0 0-32 41 0c-38.8-66.4-59.2-101.3-61.1-104.6z"/><path fill="currentColor" d="M209.4 147.9l-12.1-20.7-41.4 24.2c1.9 3.3 22.3 38.2 61.1 104.6l-41 0 0 32 56 0 0 32-56 0 0 32 56 0 0 48 48 0 0-48 56 0 0-32-56 0 0-32 56 0 0-32-41 0c38.8-66.5 59.2-101.3 61.1-104.6l-41.4-24.2c-2.3 4-21.9 37.5-58.7 100.5l-46.6-79.7z"/></svg>