<svg xmlns="http://www.w3.org/2000/svg" viewBox="0 0 512 512"><!--! Font Awesome Pro 7.1.0 by @fontawesome - https://fontawesome.com License - https://fontawesome.com/license (Commercial License) Copyright 2025 Fonticons, Inc. --><path opacity=".4" fill="currentColor" d="M0 256a256 256 0 1 0 512 0 256 256 0 1 0 -512 0zm144-48l149 0c6.8-4 11-11.4 11-19.3 0-13.5-11.8-24-25.3-22.3-59.2 7.4-92.4 11.5-99.6 12.4l-6-47.6c7.2-.9 40.4-5.1 99.6-12.4 42.1-5.3 79.2 27.5 79.2 69.9 0 6.6-.9 13.1-2.7 19.3l18.7 0 0 32-224 0 0-32zm0 64l224 0 0 32-148.9 0c-6.8 4.1-11.1 11.6-11.1 19.6 0 13.6 11.9 24.3 25.4 22.8 72.6-8.1 111.2-12.4 115.8-12.9l5.3 47.7c-4.6 .5-43.1 4.8-115.8 12.9-42 4.7-78.7-28.2-78.7-70.5 0-6.7 1-13.3 2.8-19.6l-18.8 0 0-32z"/><path fill="currentColor" d="M352 188.6c0-42.4-37.2-75.2-79.2-69.9-59.2 7.4-92.4 11.5-99.6 12.4l6 47.6c7.2-.9 40.4-5.1 99.6-12.4 13.4-1.7 25.3 8.8 25.3 22.3 0 8-4.2 15.3-11 19.3l-149 0 0 32 224 0 0-32-18.7 0c1.8-6.2 2.7-12.7 2.7-19.3zM368 272l-224 0 0 32 18.8 0c-1.8 6.3-2.8 12.9-2.8 19.6 0 42.3 36.7 75.1 78.7 70.5 72.6-8.1 111.2-12.4 115.8-12.9l-5.3-47.7c-4.6 .5-43.2 4.8-115.8 12.9-13.6 1.5-25.4-9.1-25.4-22.8 0-8 4.2-15.5 11.1-19.6l148.9 0 0-32z"/></svg>