<svg xmlns="http://www.w3.org/2000/svg" viewBox="0 0 512 512"><!--! Font Awesome Pro 7.1.0 by @fontawesome - https://fontawesome.com License - https://fontawesome.com/license (Commercial License) Copyright 2025 Fonticons, Inc. --><path opacity=".4" fill="currentColor" d="M0 256a256 256 0 1 0 512 0 256 256 0 1 0 -512 0zm150.1 72l17-17 103-103-78.1 0 0-48 160 0 0 160-48 0 0-78.1-103 103-17 17-33.9-33.9z"/><path fill="currentColor" d="M304 320l0-78.1-103 103-17 17-33.9-33.9 17-17 103-103-78.1 0 0-48 160 0 0 160-48 0z"/></svg>