<svg xmlns="http://www.w3.org/2000/svg" viewBox="0 0 512 512"><!--! Font Awesome Pro 7.1.0 by @fontawesome - https://fontawesome.com License - https://fontawesome.com/license (Commercial License) Copyright 2025 Fonticons, Inc. --><path opacity=".4" fill="currentColor" d="M512 256a256 256 0 1 1 -512 0 256 256 0 1 1 512 0zM142.1 312c24.3 24.3 54.1 54.1 57.9 57.9 3-3 31-31 84-84 15.7 15.7 38.4 38.4 68 68l0-193.9-193.9 0c29.6 29.6 52.3 52.3 68 68-53 53-81 81-84 84z"/><path fill="currentColor" d="M352 160l-193.9 0c29.6 29.6 52.3 52.3 68 68-53 53-81 81-84 84 24.3 24.3 54.1 54.1 57.9 57.9 3-3 31-31 84-84 15.7 15.7 38.4 38.4 68 68L352 160z"/></svg>