<svg xmlns="http://www.w3.org/2000/svg" viewBox="0 0 512 512"><!--! Font Awesome Pro 7.1.0 by @fontawesome - https://fontawesome.com License - https://fontawesome.com/license (Commercial License) Copyright 2025 Fonticons, Inc. --><path opacity=".4" fill="currentColor" d="M0 256a256 256 0 1 0 512 0 256 256 0 1 0 -512 0zm64 0c0-72.9 40.6-136.2 100.4-168.8l48.8 84.5c-31.1 15.5-52.5 47.3-53.2 84.3l-96 0zm91.7 163.7l47.3-82c15.2 10.1 33.4 15.9 53 15.9s37.8-5.9 53-15.9l47.3 82C327.1 437.7 292.8 448 256 448s-71.1-10.3-100.3-28.3zM304 257.7a48 48 0 1 1 -96 0 48 48 0 1 1 96 0zm-5.2-85.9l48.8-84.5C407.4 119.8 448 183.1 448 256l-96 0c-.6-36.9-22.1-68.8-53.2-84.3z"/><path fill="currentColor" d="M164.4 87.2l48.8 84.5c-31.1 15.5-52.5 47.3-53.2 84.3l-96 0c0-72.9 40.6-136.2 100.4-168.8zm-8.7 332.5l47.3-82c15.2 10.1 33.4 15.9 53 15.9s37.8-5.9 53-15.9l47.3 82C327.1 437.7 292.8 448 256 448s-71.1-10.3-100.3-28.3zM448 256l-96 0c-.6-36.9-22.1-68.8-53.2-84.3l48.8-84.5C407.4 119.8 448 183.1 448 256zM256 209.7a48 48 0 1 1 0 96 48 48 0 1 1 0-96z"/></svg>