<svg xmlns="http://www.w3.org/2000/svg" viewBox="0 0 512 512"><!--! Font Awesome Pro 7.0.1 by @fontawesome - https://fontawesome.com License - https://fontawesome.com/license (Commercial License) Copyright 2025 Fonticons, Inc. --><path style="fill:var(--fa-secondary-color,currentColor);opacity:var(--fa-secondary-opacity,.4)" d="M0 256a256 256 0 1 0 512 0 256 256 0 1 0 -512 0zM224 128l64 0 0 64-64 0 0-64zm0 96l64 0 0 64-64 0 0-64zm0 96l64 0 0 64-64 0 0-64z"/><path style="fill:var(--fa-primary-color,currentColor);opacity:var(--fa-primary-opacity,1)" d="M288 128l0 64-64 0 0-64 64 0zm0 96l0 64-64 0 0-64 64 0zm0 160l-64 0 0-64 64 0 0 64z"/></svg>