<svg xmlns="http://www.w3.org/2000/svg" viewBox="0 0 512 512"><!--! Font Awesome Pro 7.1.0 by @fontawesome - https://fontawesome.com License - https://fontawesome.com/license (Commercial License) Copyright 2025 Fonticons, Inc. --><path opacity=".4" fill="currentColor" d="M34.9 384.6c2.1 2.1 4.3 4.3 6.4 6.4 38.2 38.2 85.6 61.3 135 69.8l0-206.8c-2.8-.7-5.5-1.6-8.1-2.7-44.4 44.4-88.9 88.9-133.3 133.3zM208.3 254l0 209.7c33.4 1.1 66.9-4.4 98.5-16.7 6.5-2.5 12.8-5.4 19.1-8.4l.4-.2c2.7-1.3 5.6-2.8 8.6-4.5 3.2-1.7 6.3-3.5 9.3-5.4 .4-.2 .8-.5 1.2-.7 3-1.8 5.9-3.7 8.8-5.6 6-4 11.7-8.2 17.3-12.7 2.7-2.2 5.4-4.4 8-6.7 .1-.1 .3-.2 .4-.4l-7-7-148.2-148.2c-5.1 3-10.6 5.3-16.5 6.8zm39.1-29.5l148.2 148.2 7 7 .3-.4c4.6-5.3 9-10.7 13.2-16.4l.3-.4c4.1-5.6 8-11.4 11.7-17.4 .2-.4 .5-.7 .7-1.1 3.6-6 6.9-12.1 10-18.3 18.1-36.9 26.5-77.4 25.3-117.6l-209.9 0c-1.5 5.9-3.8 11.4-6.8 16.5zm4.2-56.6c1.1 2.6 2 5.3 2.7 8.1l206.5 0c-8.1-49.4-31.3-96.9-69.5-135-2.1-2.1-4.3-4.3-6.2-6.6-44.7 44.7-89.1 89.1-133.5 133.5z"/><path fill="currentColor" d="M34.9 384.6l6.4 6.4 0 0c96.9 96.9 253.6 97.1 350.4 .3s96.6-253.5-.3-350.4L385 34.6 418.9 .6 425.3 7c115.6 115.6 116 302.6 .3 418.3S122.9 540.5 7.4 425l0 0-6.4-6.4 33.9-33.9z"/></svg>