<svg xmlns="http://www.w3.org/2000/svg" viewBox="0 0 576 512"><!--! Font Awesome Pro 7.0.1 by @fontawesome - https://fontawesome.com License - https://fontawesome.com/license (Commercial License) Copyright 2025 Fonticons, Inc. --><path style="fill:var(--fa-secondary-color,currentColor);opacity:var(--fa-secondary-opacity,.4)" d="M0 96l256 0 0-96 192 0 0 192 128 0 0 320-576 0 0-416zm64 96l0 64 64 0 0-64-64 0zm0 96l0 64 64 0 0-64-64 0zm128-96l0 64 64 0 0-64-64 0zm0 96l0 64 64 0 0-64-64 0zM320 96l0 64 64 0 0-64-64 0zm0 96l0 64 64 0 0-64-64 0zm0 96l0 64 64 0 0-64-64 0zm128 0l0 64 64 0 0-64-64 0z"/><path style="fill:var(--fa-primary-color,currentColor);opacity:var(--fa-primary-opacity,1)" d="M96 0l0 96-48 0 0-96 48 0zm64 96l0-96 48 0 0 96-48 0zm224 0l0 64-64 0 0-64 64 0zm0 96l0 64-64 0 0-64 64 0zm-64 96l64 0 0 64-64 0 0-64zm192 0l0 64-64 0 0-64 64 0zm-320 0l64 0 0 64-64 0 0-64zm64-96l0 64-64 0 0-64 64 0zM64 352l0-64 64 0 0 64-64 0zm64-96l-64 0 0-64 64 0 0 64z"/></svg>