<svg xmlns="http://www.w3.org/2000/svg" viewBox="0 0 576 512"><!--! Font Awesome Pro 7.1.0 by @fontawesome - https://fontawesome.com License - https://fontawesome.com/license (Commercial License) Copyright 2025 Fonticons, Inc. --><path opacity=".4" fill="currentColor" d="M16 48l0 176 176 0 0-64-70.3 0c33.2-57.4 95.3-96 166.3-96 106 0 192 86 192 192S394 448 288 448c-65.2 0-122.9-32.5-157.6-82.3L77.9 402.3C124.1 468.6 201 512 288 512 429.4 512 544 397.4 544 256S429.4 0 288 0C202.3 0 126.5 42.1 80 106.7L80 48 16 48z"/><path fill="currentColor" d="M312 128l0 118.1c44.6 44.7 69.3 69.3 73.9 73.9L352 353.9c-3.5-3.5-30.5-30.5-81-81l-7-7 0-137.9 48 0z"/></svg>