<svg xmlns="http://www.w3.org/2000/svg" viewBox="0 0 512 512"><!--! Font Awesome Pro 7.1.0 by @fontawesome - https://fontawesome.com License - https://fontawesome.com/license (Commercial License) Copyright 2025 Fonticons, Inc. --><path opacity=".4" fill="currentColor" d="M0 256a256 256 0 1 0 512 0 256 256 0 1 0 -512 0zM158.7 153.3l39.9-26.6c7.8 11.6 18.9 28.3 33.3 50l0-80.7 48 0 0 160-44 13.3c-51.1-76.7-76.9-115.3-77.3-116z"/><path fill="currentColor" d="M232 96l0 80.7c-14.5-21.7-25.6-38.4-33.3-50l-39.9 26.6c.4 .6 26.2 39.3 77.3 116l44-13.3 0-160-48 0z"/></svg>