<svg xmlns="http://www.w3.org/2000/svg" viewBox="0 0 576 512"><!--! Font Awesome Pro 7.1.0 by @fontawesome - https://fontawesome.com License - https://fontawesome.com/license (Commercial License) Copyright 2025 Fonticons, Inc. --><path opacity=".4" fill="currentColor" d="M32.1 101.8l0 346.2 346.2 0-117.8-117.8c-10.2 13.3-26.3 21.8-44.4 21.8l-32 0c-30.9 0-56-25.1-56-56l0-80c0-5.5 .8-10.9 2.3-15.9L32.1 101.8zm144 144l0 50.2c0 4.4 3.6 8 8 8l32 0c4.4 0 8-3.6 8-8l0-2.2-48-48z"/><path fill="currentColor" d="M49.3-16.9l-17-17-33.9 33.9 17 17 512 512 17 17 33.9-33.9c-6.3-6.3-27.7-27.7-64.1-64.1l30 0 0-384-414 0-80.9-80.9zM304.1 238l0-22c0-30.9 25.1-56 56-56l32 0c30.9 0 56 25.1 56 56l0 24-48 0 0-24c0-4.4-3.6-8-8-8l-32 0c-4.4 0-8 3.6-8 8l0 70-48-48zm66 66l22 0c4.4 0 8-3.6 8-8l0-24 48 0 0 24c0 23.2-14.2 43.2-34.3 51.6L370.2 304z"/></svg>