<svg xmlns="http://www.w3.org/2000/svg" viewBox="0 0 512 512"><!--! Font Awesome Pro 7.1.0 by @fontawesome - https://fontawesome.com License - https://fontawesome.com/license (Commercial License) Copyright 2025 Fonticons, Inc. --><path opacity=".4" fill="currentColor" d="M-1 512l50.6 0 48-144-50.6 0-48 144zM112.3 408l0 48 40 0 0 40 48 0 0-40 40 0 0-48-40 0 0-40-48 0 0 40-40 0zM247 512l50.6 0 48-144-50.6 0-48 144zM360.3 408l0 48 40 0 0 40 48 0 0-40 40 0 0-48-40 0 0-40-48 0 0 40-40 0z"/><path fill="currentColor" d="M.3 320l512 0 0-96c0-53-43-96-96-96l0-16c0-44.2-35.8-80-80-80-24.3 0-46.1 10.9-60.8 28-18.7-35.7-56.1-60-99.2-60-61.9 0-112 50.1-112 112l0 21.5C27 146.6 .3 182.2 .3 224l0 96z"/></svg>