<svg xmlns="http://www.w3.org/2000/svg" viewBox="0 0 512 512"><!--! Font Awesome Pro 7.1.0 by @fontawesome - https://fontawesome.com License - https://fontawesome.com/license (Commercial License) Copyright 2025 Fonticons, Inc. --><path opacity=".4" fill="currentColor" d="M0 240c0 56.5 20.8 108.5 55.7 149.5L0 512 148.7 457.9c32.6 14.2 69 22.1 107.3 22.1 141.4 0 256-107.5 256-240S397.4 0 256 0 0 107.5 0 240zm99.2-25.6c0-23 18.6-41.6 41.6-41.6l35.2 0 0 32-35.2 0c-5.3 0-9.6 4.3-9.6 9.6s4.3 9.6 9.6 9.6c23 0 41.6 18.6 41.6 41.6s-18.6 41.6-41.6 41.6l-41.6 0 0-32 41.6 0c5.3 0 9.6-4.3 9.6-9.6s-4.3-9.6-9.6-9.6c-23 0-41.6-18.6-41.6-41.6zm102.4-41.6l16 0 12.7 0c.3 .6 8.8 16 25.5 46.3l20-37.8 4.5-8.5c14.2 0 16.5 0 30.1 0l0 134.4-32 0 0-62.5c-4.6 8.6-12 22.6-22.1 41.8-10.5-19.1-18.1-32.8-22.7-41.2l0 61.9-32 0 0-134.4zm128 41.6c0-23 18.6-41.6 41.6-41.6l35.2 0 0 32-35.2 0c-5.3 0-9.6 4.3-9.6 9.6s4.3 9.6 9.6 9.6c23 0 41.6 18.6 41.6 41.6s-18.6 41.6-41.6 41.6l-41.6 0 0-32 41.6 0c5.3 0 9.6-4.3 9.6-9.6s-4.3-9.6-9.6-9.6c-23 0-41.6-18.6-41.6-41.6z"/><path fill="currentColor" d="M310.4 188.8l0-16c-27 0-19.7 0-30.1 0l-4.5 8.5-20 37.8c-16.7-30.3-25.2-45.8-25.5-46.3-14.1 0-14.3 0-28.7 0l0 134.4 32 0 0-61.9c4.6 8.4 12.2 22.1 22.7 41.2 10.2-19.2 17.6-33.1 22.1-41.8l0 62.5 32 0 0-118.4zM99.2 214.4c0 23 18.6 41.6 41.6 41.6 5.3 0 9.6 4.3 9.6 9.6s-4.3 9.6-9.6 9.6l-41.6 0 0 32 41.6 0c23 0 41.6-18.6 41.6-41.6S163.8 224 140.8 224c-5.3 0-9.6-4.3-9.6-9.6s4.3-9.6 9.6-9.6l35.2 0 0-32-35.2 0c-23 0-41.6 18.6-41.6 41.6zm230.4 0c0 23 18.6 41.6 41.6 41.6 5.3 0 9.6 4.3 9.6 9.6s-4.3 9.6-9.6 9.6l-41.6 0 0 32 41.6 0c23 0 41.6-18.6 41.6-41.6S394.2 224 371.2 224c-5.3 0-9.6-4.3-9.6-9.6s4.3-9.6 9.6-9.6l35.2 0 0-32-35.2 0c-23 0-41.6 18.6-41.6 41.6z"/></svg>