<svg xmlns="http://www.w3.org/2000/svg" viewBox="0 0 512 512"><!--! Font Awesome Pro 7.1.0 by @fontawesome - https://fontawesome.com License - https://fontawesome.com/license (Commercial License) Copyright 2025 Fonticons, Inc. --><path opacity=".4" fill="currentColor" d="M0 240c0 56.5 20.8 108.5 55.7 149.5L0 512 148.7 457.9c32.6 14.2 69 22.1 107.3 22.1 141.4 0 256-107.5 256-240S397.4 0 256 0 0 107.5 0 240zm112-96l112 0 0 120c0 39.8-32.2 72-72 72l-24 0 0-48 24 0c13.3 0 24-10.7 24-24l0-8-64 0 0-112zm160 0l112 0 0 120c0 39.8-32.2 72-72 72l-24 0 0-48 24 0c13.3 0 24-10.7 24-24l0-8-64 0 0-112z"/><path fill="currentColor" d="M112 144l112 0 0 120c0 39.8-32.2 72-72 72l-24 0 0-48 24 0c13.3 0 24-10.7 24-24l0-8-64 0 0-112zM384 264c0 39.8-32.2 72-72 72l-24 0 0-48 24 0c13.3 0 24-10.7 24-24l0-8-64 0 0-112 112 0 0 120z"/></svg>