<svg xmlns="http://www.w3.org/2000/svg" viewBox="0 0 576 512"><!--! Font Awesome Pro 7.1.0 by @fontawesome - https://fontawesome.com License - https://fontawesome.com/license (Commercial License) Copyright 2025 Fonticons, Inc. --><path opacity=".4" fill="currentColor" d="M0 144c0 37.9 13.1 73.1 35.4 101.8L0 352 127 309.7c20.3 6.7 42.2 10.3 65 10.3 106 0 192-78.8 192-176S298-32 192-32 0 46.8 0 144zm117.6-42.8c0-41.1 33.3-74.4 74.4-74.4s74.4 33.3 74.4 74.4c0 33.3-19.8 52.7-37.4 62.5-5.5 3.1-11 5.4-15.8 7.1l0 18.3-42.4 0 0-53.5c2.3-.3 4.6-.6 6.9-.9 10.5-1.3 21.1-2.7 30.5-8 9-5.1 15.8-12.4 15.8-25.6 0-17.7-14.3-32-32-32s-32 14.3-32 32l-42.4 0zM168 216l48 0 0 48-48 0 0-48z"/><path fill="currentColor" d="M192 69.2c-17.7 0-32 14.3-32 32l-42.4 0c0-41.1 33.3-74.4 74.4-74.4s74.4 33.3 74.4 74.4c0 33.3-19.8 52.7-37.4 62.5-5.5 3.1-11 5.4-15.8 7.1l0 18.3-42.4 0 0-53.5c2.3-.3 4.6-.6 6.9-.9 10.5-1.3 21.1-2.7 30.5-8 9-5.1 15.8-12.4 15.8-25.6 0-17.7-14.3-32-32-32zM168 216l48 0 0 48-48 0 0-48zM384 512c-94.1 0-172.4-62.1-188.8-144 119.9-1.5 224.3-86.9 235.8-202.7 83.3 19.2 145 88.3 145 170.7 0 37.9-13.1 73.1-35.4 101.8L576 544 460.1 497.6C436.8 506.9 411 512 384 512z"/></svg>