<svg xmlns="http://www.w3.org/2000/svg" viewBox="0 0 576 512"><!--! Font Awesome Pro 7.1.0 by @fontawesome - https://fontawesome.com License - https://fontawesome.com/license (Commercial License) Copyright 2025 Fonticons, Inc. --><path opacity=".4" fill="currentColor" d="M0 32l0 352 336 0 0-64-272 0 0-224 272 0 0-64-336 0zM96 432l0 48 240 0 0-48-240 0zM384 32l0 448 192 0 0-448-192 0zm48 64l96 0 0 48-96 0 0-48zm0 96l96 0 0 48-96 0 0-48zm80 144a32 32 0 1 1 -64 0 32 32 0 1 1 64 0z"/><path fill="currentColor" d="M336 96l-272 0 0 224 272 0 0-224zM480 368a32 32 0 1 0 0-64 32 32 0 1 0 0 64z"/></svg>