<svg xmlns="http://www.w3.org/2000/svg" viewBox="0 0 640 512"><!--! Font Awesome Pro 7.1.0 by @fontawesome - https://fontawesome.com License - https://fontawesome.com/license (Commercial License) Copyright 2025 Fonticons, Inc. --><path opacity=".4" fill="currentColor" d="M0 416c0 53 43 96 96 96l448 0c53 0 96-43 96-96s-43-96-96-96L96 320c-53 0-96 43-96 96zm160 0a32 32 0 1 1 -64 0 32 32 0 1 1 64 0zm192 0a32 32 0 1 1 -64 0 32 32 0 1 1 64 0zm192 0a32 32 0 1 1 -64 0 32 32 0 1 1 64 0z"/><path fill="currentColor" d="M192 160l0-96-96 0 0-64 96 0 0 0 64 0 0 0 96 0 0 64-96 0 0 64 96 0 0 0 128 0 0 96-48 0 0-32-208 0-32 0 0-32zm224 96l96 0 0 64-96 0 0-64zM96 416a32 32 0 1 1 64 0 32 32 0 1 1 -64 0zm192 0a32 32 0 1 1 64 0 32 32 0 1 1 -64 0zm224-32a32 32 0 1 1 0 64 32 32 0 1 1 0-64zM352 256l0 64-96 0 0-64 96 0zM96 256l96 0 0 64-96 0 0-64z"/></svg>