<svg xmlns="http://www.w3.org/2000/svg" viewBox="0 0 640 512"><!--! Font Awesome Pro 7.1.0 by @fontawesome - https://fontawesome.com License - https://fontawesome.com/license (Commercial License) Copyright 2025 Fonticons, Inc. --><path opacity=".4" fill="currentColor" d="M0 32l296 0 0 114.6c-50.3 11-88 55.8-88 109.4s37.7 98.4 88 109.4l0 114.6-296 0 0-96 128 0 0-256-128 0 0-96zM0 176l80 0 0 160-80 0 0-160zm256 80c0-26.9 16.5-49.9 40-59.3l0 118.7c-23.5-9.5-40-32.5-40-59.3zM344 32l296 0 0 96-128 0 0 256 128 0 0 96-296 0 0-114.6c50.3-11 88-55.8 88-109.4s-37.7-98.4-88-109.4L344 32zm0 164.7c23.5 9.5 40 32.5 40 59.3s-16.5 49.9-40 59.3l0-118.7zM560 176l80 0 0 160-80 0 0-160z"/><path fill="currentColor" d="M296 146.6l0-114.6 48 0 0 114.6c50.3 11 88 55.8 88 109.4s-37.7 98.4-88 109.4l0 114.6-48 0 0-114.6c-50.3-11-88-55.8-88-109.4s37.7-98.4 88-109.4zm0 50.1c-23.5 9.5-40 32.5-40 59.3s16.5 49.9 40 59.3l0-118.7zm48 118.7c23.5-9.5 40-32.5 40-59.3s-16.5-49.9-40-59.3l0 118.7zM0 384l0-48 80 0 0-160-80 0 0-48 128 0 0 256-128 0zM640 128l0 48-80 0 0 160 80 0 0 48-128 0 0-256 128 0z"/></svg>