<svg xmlns="http://www.w3.org/2000/svg" viewBox="0 0 512 512"><!--! Font Awesome Pro 7.1.0 by @fontawesome - https://fontawesome.com License - https://fontawesome.com/license (Commercial License) Copyright 2025 Fonticons, Inc. --><path opacity=".4" fill="currentColor" d="M0 224l0 128 512 0 0-128-512 0zM0 384l0 128 512 0 0-128-512 0zm80-96a16 16 0 1 1 -32 0 16 16 0 1 1 32 0zm0 160a16 16 0 1 1 -32 0 16 16 0 1 1 32 0zM464 288a16 16 0 1 1 -32 0 16 16 0 1 1 32 0zm0 160a16 16 0 1 1 -32 0 16 16 0 1 1 32 0z"/><path fill="currentColor" d="M64 304a16 16 0 1 0 0-32 16 16 0 1 0 0 32zm0 160a16 16 0 1 0 0-32 16 16 0 1 0 0 32zM464 288a16 16 0 1 0 -32 0 16 16 0 1 0 32 0zM448 464a16 16 0 1 0 0-32 16 16 0 1 0 0 32z"/></svg>