<svg xmlns="http://www.w3.org/2000/svg" viewBox="0 0 512 512"><!--! Font Awesome Pro 7.1.0 by @fontawesome - https://fontawesome.com License - https://fontawesome.com/license (Commercial License) Copyright 2025 Fonticons, Inc. --><path opacity=".4" fill="currentColor" d="M0 384l0 128 128 0 0-128-128 0zM69.5 256L160 346.5 250.5 256 160 165.5 69.5 256zM384 384l0 128 128 0 0-128-128 0z"/><path fill="currentColor" d="M192 0l128 0 0 128-128 0 0-128zm0 384l128 0 0 128-128 0 0-128zM416 192l0 128-128 0 0-128 128 0z"/></svg>