<svg xmlns="http://www.w3.org/2000/svg" viewBox="0 0 576 512"><!--! Font Awesome Pro 7.1.0 by @fontawesome - https://fontawesome.com License - https://fontawesome.com/license (Commercial License) Copyright 2025 Fonticons, Inc. --><path opacity=".4" fill="currentColor" d="M0 256l0 64 64 0 0-64-64 0zM64 64l0 64 64 0 0-64-64 0zm0 384l0 64 64 0 0-64-64 0zM256 0l0 64 64 0 0-64-64 0zM448 64l0 64 64 0 0-64-64 0zm0 384l0 64 64 0 0-64-64 0zm64-192l0 64 64 0 0-64-64 0z"/><path fill="currentColor" d="M312 446.2c77-11.6 136-78 136-158.2 0-88.4-71.6-160-160-160S128 199.6 128 288c0 80.2 59 146.6 136 158.2l0-182.2 48 0 0 182.2z"/></svg>