<svg xmlns="http://www.w3.org/2000/svg" viewBox="0 0 384 512"><!--! Font Awesome Pro 7.1.0 by @fontawesome - https://fontawesome.com License - https://fontawesome.com/license (Commercial License) Copyright 2025 Fonticons, Inc. --><path opacity=".4" fill="currentColor" d="M0 464l0 48 384 0 0-48-384 0zM128 48l0 48 128 0 0-48-128 0zm192 0l0 48 64 0 0-48-64 0z"/><path fill="currentColor" d="M320-16l-64 0 0 184.2c-22.9-15.3-50.4-24.2-80-24.2-79.5 0-144 64.5-144 144S96.5 432 176 432c29.6 0 57.1-8.9 80-24.2l0 24.2 64 0 0-448zM96 288a80 80 0 1 1 160 0 80 80 0 1 1 -160 0z"/></svg>