<svg xmlns="http://www.w3.org/2000/svg" viewBox="0 0 576 512"><!--! Font Awesome Pro 7.1.0 by @fontawesome - https://fontawesome.com License - https://fontawesome.com/license (Commercial License) Copyright 2025 Fonticons, Inc. --><path opacity=".4" fill="currentColor" d="M40.1 192l66.9 0C126.2 137.4 169.4 94.2 224 74.9l0-66.9C134 31.2 63.2 102 40.1 192zm0 128C63.2 410 134 480.8 224 503.9l0-66.9c-54.6-19.3-97.8-62.5-117.1-117.1l-66.9 0zM352 8.1l0 66.9c54.6 19.3 97.8 62.5 117.1 117.1l66.9 0C512.8 102 442 31.2 352 8.1zm0 429l0 66.9c90-23.2 160.8-94 183.9-183.9l-66.9 0c-19.3 54.6-62.5 97.8-117.1 117.1z"/><path fill="currentColor" d="M224-32l128 0 0 128-128 0 0-128zM128 192l0 128-128 0 0-128 128 0zM352 416l0 128-128 0 0-128 128 0zM576 192l0 128-128 0 0-128 128 0z"/></svg>