<svg xmlns="http://www.w3.org/2000/svg" viewBox="0 0 512 512"><!--! Font Awesome Pro 7.1.0 by @fontawesome - https://fontawesome.com License - https://fontawesome.com/license (Commercial License) Copyright 2025 Fonticons, Inc. --><path opacity=".4" fill="currentColor" d="M0 380c0 33.1 26.9 60 60 60l12 0 0 12c0 33.1 26.9 60 60 60s60-26.9 60-60c0-16.2-6.4-30.9-16.8-41.7l58.4-58.3-25.5 0-48-48 0-25.5-58.4 58.3C90.9 326.4 76.2 320 60 320 26.9 320 0 346.9 0 380z"/><path fill="currentColor" d="M160 304l0-128c0-97.2 78.8-176 176-176 95.4 0 173.1 76 175.9 170.7-14.5-6.9-30.8-10.7-47.9-10.7-61.9 0-112 50.1-112 112 0 28.6 10.7 54.6 28.3 74.4-14.1 3.7-29 5.6-44.3 5.6l-128 0-48-48z"/></svg>