<svg xmlns="http://www.w3.org/2000/svg" viewBox="0 0 512 512"><!--! Font Awesome Pro 7.1.0 by @fontawesome - https://fontawesome.com License - https://fontawesome.com/license (Commercial License) Copyright 2025 Fonticons, Inc. --><path opacity=".4" fill="currentColor" d="M0 256c0 141.4 114.6 256 256 256 5.4 0 10.7-.2 16-.5l0-79.5-64 0-48-48 0-112 144 0 48 48 32 0 32 32 32 0 0 32-64 64 0 29.8c58.7-33.9 102.6-90.5 119.9-157.8l-71.9 0-48-48 0-80c10.7 0 21.3 0 32 0l0-32c-21.3 0-42.7 0-64 0l0 48c-26.7 0-53.3 0-80 0-5.3 0-10.7 0-16 0l0 32c-21.3 0-42.7 0-64 0l0-32c26.7-26.7 53.3-53.3 80-80l0-16c-16 0-32 0-48 0l0-32C249.4 54.6 274.8 29.2 300.2 3.8 285.8 1.3 271.1 0 256 0 114.6 0 0 114.6 0 256zM121.4 144c4.1-4.1 18.5-18.5 43.3-43.3 3.8-3.8 7.5-7.5 11.3-11.3 7.5 7.5 15.1 15.1 22.6 22.6-4.1 4.1-18.5 18.5-43.3 43.3-3.8 3.8-7.5 7.5-11.3 11.3-7.5-7.5-15.1-15.1-22.6-22.6z"/><path fill="currentColor" d="M352 160l64 0 0 32-32 0 0 80 48 48 71.9 0c5.3-20.5 8.1-41.9 8.1-64 0-126.3-91.5-231.3-211.8-252.2l-76.2 76.2 0 32 48 0 0 16-80 80 0 32 64 0 0-32 96 0 0-48zm32 317.8l0-29.8 64-64 0-32-32 0-32-32-32 0-48-48-144 0 0 112 48 48 64 0 0 79.5c40.6-2.5 78.7-14.5 112-33.8zM198.6 112L176 89.4c-4.1 4.1-18.5 18.5-43.3 43.3L121.4 144 144 166.6 198.6 112z"/></svg>