<svg xmlns="http://www.w3.org/2000/svg" viewBox="0 0 576 512"><!--! Font Awesome Pro 7.1.0 by @fontawesome - https://fontawesome.com License - https://fontawesome.com/license (Commercial License) Copyright 2025 Fonticons, Inc. --><path opacity=".4" fill="currentColor" d="M0 352l0 160 320 0 0-160-160 80-160-80zM64 0l0 208 80 0 0-128 304 0 0-80-384 0zM192 128l0 80 176 0 0 208 208 0 0-288-384 0zm224 64l96 0 0 96-96 0 0-96z"/><path fill="currentColor" d="M512 192l0 96-96 0 0-96 96 0zM160 432l-160-80 0-96 320 0 0 96-160 80z"/></svg>