<svg xmlns="http://www.w3.org/2000/svg" viewBox="0 0 576 512"><!--! Font Awesome Pro 7.1.0 by @fontawesome - https://fontawesome.com License - https://fontawesome.com/license (Commercial License) Copyright 2025 Fonticons, Inc. --><path opacity=".4" fill="currentColor" d="M-5 268.3l17 17 170.2 170.2 17 17 33.9-33.9-17-17-170.2-170.2-17-17-33.9 33.9zm42.4-93.4l17 17 274.1 274.1 17 17 33.9-33.9-17-17-274.1-274.1-17-17-33.9 33.9z"/><path fill="currentColor" d="M32.4-33.8L143.7 77.5c40.6-27.1 89-45.5 144.5-45.5 158.4 0 258 149.3 288 224-15.9 39.7-51.6 100.5-105.2 148.7L578.4 512.1 544.4 546-1.5 .1 32.4-33.8zM239.5 173.3c14.3-8.4 30.9-13.3 48.7-13.3 53 0 96 43 96 96 0 17.8-4.8 34.4-13.3 48.7l34.7 34.7c16.7-23.5 26.6-52.3 26.6-83.4 0-79.5-64.5-144-144-144-31.1 0-59.9 9.8-83.4 26.6l34.7 34.7z"/></svg>