<svg xmlns="http://www.w3.org/2000/svg" viewBox="0 0 512 512"><!--! Font Awesome Pro 7.1.0 by @fontawesome - https://fontawesome.com License - https://fontawesome.com/license (Commercial License) Copyright 2025 Fonticons, Inc. --><path opacity=".4" fill="currentColor" d="M0 256c0 141.4 114.6 256 256 256 42.2 0 82.1-10.2 117.2-28.3-5.5-2.9-10.7-6.7-15.3-11.3l-48.3-48.3c-17 5.2-34.9 7.9-53.6 7.9-87.9 0-161.4-61.6-179.6-144l49.6 0c17.1 55.6 68.8 96 130 96s112.9-40.4 130-96l49.6 0C431 308.7 423 328.1 412 345.5l36.3 36.3c7 7 12.1 15.3 15.2 24.1 30.5-42.1 48.5-94 48.5-150 0-141.4-114.6-256-256-256S0 114.6 0 256zm108-48c0-37.6 30.4-68 68-68s68 30.4 68 68l0 28-40 0 0-28c0-15.5-12.5-28-28-28s-28 12.5-28 28l0 28-40 0 0-28zm160 0c0-37.6 30.4-68 68-68s68 30.4 68 68l0 28-40 0 0-28c0-15.5-12.5-28-28-28s-28 12.5-28 28l0 28-40 0 0-28z"/><path fill="currentColor" d="M176 180c-15.5 0-28 12.5-28 28l0 28-40 0 0-28c0-37.6 30.4-68 68-68s68 30.4 68 68l0 28-40 0 0-28c0-15.5-12.5-28-28-28zm160 0c-15.5 0-28 12.5-28 28l0 28-40 0 0-28c0-37.6 30.4-68 68-68s68 30.4 68 68l0 28-40 0 0-28c0-15.5-12.5-28-28-28zm21.8 292.3l-48.3-48.3c42.9-13 79.2-41.3 102.5-78.5l36.3 36.3c25 25 25 65.5 0 90.5s-65.5 25-90.5 0z"/></svg>