<svg xmlns="http://www.w3.org/2000/svg" viewBox="0 0 640 512"><!--! Font Awesome Pro 7.1.0 by @fontawesome - https://fontawesome.com License - https://fontawesome.com/license (Commercial License) Copyright 2025 Fonticons, Inc. --><path opacity=".4" fill="currentColor" d="M32 256c0 141.4 114.6 256 256 256 113.4 0 209.7-73.8 243.3-176l-83.3 0 0-48 94 0c1.3-10.5 2-21.2 2-32 0-5.4-.2-10.7-.5-16l-95.5 0 0-48 87.9 0C507.5 81.6 407.3 0 288 0 146.6 0 32 114.6 32 256zm76-40c0-33.1 26.9-60 60-60l16 0c33.1 0 60 26.9 60 60l0 16-40 0 0-16c0-11-9-20-20-20l-16 0c-11 0-20 9-20 20l0 16-40 0 0-16zm16.2 130.8l39.5-27.3C184 348.9 217.8 368 256 368s72-19.1 92.2-48.5l39.5 27.3C358.9 388.6 310.7 416 256 416s-102.9-27.4-131.8-69.2zM268 216c0-33.1 26.9-60 60-60l16 0c33.1 0 60 26.9 60 60l0 16-40 0 0-16c0-11-9-20-20-20l-16 0c-11 0-20 9-20 20l0 16-40 0 0-16z"/><path fill="currentColor" d="M552 64l-24 0 0 48 24 0c22.1 0 40 17.9 40 40s-17.9 40-40 40l-104 0 0 48 104 0c48.6 0 88-39.4 88-88s-39.4-88-88-88zM448 288l0 48 104 0c45.9 0 83.6-35.1 87.6-80-23.7 20-54.2 32-87.6 32l-104 0zM168 196l16 0c11 0 20 9 20 20l0 16 40 0 0-16c0-33.1-26.9-60-60-60l-16 0c-33.1 0-60 26.9-60 60l0 16 40 0 0-16c0-11 9-20 20-20zm140 20c0-11 9-20 20-20l16 0c11 0 20 9 20 20l0 16 40 0 0-16c0-33.1-26.9-60-60-60l-16 0c-33.1 0-60 26.9-60 60l0 16 40 0 0-16z"/></svg>