<svg xmlns="http://www.w3.org/2000/svg" viewBox="0 0 512 512"><!--! Font Awesome Pro 7.1.0 by @fontawesome - https://fontawesome.com License - https://fontawesome.com/license (Commercial License) Copyright 2025 Fonticons, Inc. --><path opacity=".4" fill="currentColor" d="M0 256c0-39.1 8.8-76.2 24.5-109.4l58.6 57.2-14.4 83.8 75.2-39.6 75.2 39.6-14.4-83.8 51.1-49.8 51.1 49.8-14.4 83.8 75.2-39.6 75.2 39.6-14.4-83.8 58.6-57.2c15.7 33.2 24.5 70.3 24.5 109.4 0 141.4-114.6 256-256 256S0 397.4 0 256zM25.8 143.9C67.3 58.7 154.8 0 256 0S444.7 58.7 486.2 143.9L405.6 132.2 368 56 330.4 132.2 256 143 181.6 132.2 144 56 106.4 132.2 25.8 143.9zM98.3 315.3C111.3 390.7 176.9 448 256 448s144.7-57.3 157.7-132.7C368.4 333.4 314.2 344 256 344S143.6 333.4 98.3 315.3z"/><path fill="currentColor" d="M181.6 132.2l-37.6-76.2-37.6 76.2-84.1 12.2 60.9 59.3-14.4 83.8 75.2-39.6 75.2 39.6-14.4-83.8 51.1-49.8 51.1 49.8-14.4 83.8 75.2-39.6 75.2 39.6-14.4-83.8 60.9-59.3-84.1-12.2-37.6-76.2-37.6 76.2-74.4 10.8-74.4-10.8z"/></svg>