<svg xmlns="http://www.w3.org/2000/svg" viewBox="0 0 512 512"><!--! Font Awesome Pro 7.1.0 by @fontawesome - https://fontawesome.com License - https://fontawesome.com/license (Commercial License) Copyright 2025 Fonticons, Inc. --><path opacity=".4" fill="currentColor" d="M0 256a256 256 0 1 0 512 0 256 256 0 1 0 -512 0zm91.7-88L120 139.7c7.5 7.5 20.8 20.8 40 40l40-40 28.3 28.3c-7.5 7.5-20.8 20.8-40 40l40 40-28.3 28.3c-7.5-7.5-20.8-20.8-40-40-19.2 19.2-32.5 32.5-40 40l-28.3-28.3 40-40c-19.2-19.2-32.5-32.5-40-40zM320 368a64 64 0 1 1 -128 0 64 64 0 1 1 128 0zM283.7 168L312 139.7c7.5 7.5 20.8 20.8 40 40 19.2-19.2 32.5-32.5 40-40L420.3 168c-7.5 7.5-20.8 20.8-40 40 19.2 19.2 32.5 32.5 40 40L392 276.3c-7.5-7.5-20.8-20.8-40-40-19.2 19.2-32.5 32.5-40 40L283.7 248c7.5-7.5 20.8-20.8 40-40-19.2-19.2-32.5-32.5-40-40z"/><path fill="currentColor" d="M134.1 153.9l25.9 25.9 40-40 28.3 28.3c-7.5 7.5-20.8 20.8-40 40l40 40-28.3 28.3c-7.5-7.5-20.8-20.8-40-40-19.2 19.2-32.5 32.5-40 40l-28.3-28.3 40-40c-19.2-19.2-32.5-32.5-40-40l28.3-28.3 14.1 14.1zM312 139.7c7.5 7.5 20.8 20.8 40 40 19.2-19.2 32.5-32.5 40-40L420.3 168c-7.5 7.5-20.8 20.8-40 40 19.2 19.2 32.5 32.5 40 40L392 276.3c-7.5-7.5-20.8-20.8-40-40-19.2 19.2-32.5 32.5-40 40L283.7 248c7.5-7.5 20.8-20.8 40-40-19.2-19.2-32.5-32.5-40-40L312 139.7z"/></svg>