<svg xmlns="http://www.w3.org/2000/svg" viewBox="0 0 512 512"><!--! Font Awesome Pro 7.1.0 by @fontawesome - https://fontawesome.com License - https://fontawesome.com/license (Commercial License) Copyright 2025 Fonticons, Inc. --><path opacity=".4" fill="currentColor" d="M0 256c0 88 44.4 165.6 112 211.7l0-115.7-32 0 0-48 352 0 0 48-32 0 0 115.7C467.6 421.6 512 344 512 256 512 114.6 397.4 0 256 0S0 114.6 0 256zM92 124.5c0-28.8 23.2-52.2 52-52.5l0-24 40 0 0 24 28 0 0 40-67.5 0c-6.9 0-12.5 5.6-12.5 12.5 0 6.1 4.4 11.3 10.4 12.3l41.7 7c25.3 4.2 43.9 26.1 43.9 51.8 0 26.1-19 47.7-44 51.8l0 24.7-40 0 0-24-44 0 0-40 75.5 0c6.9 0 12.5-5.6 12.5-12.5 0-6.1-4.4-11.3-10.4-12.3l-41.7-7C110.5 172 92 150.1 92 124.5zm192 0c0-28.8 23.2-52.2 52-52.5l0-24 40 0 0 24 28 0 0 40-67.5 0c-6.9 0-12.5 5.6-12.5 12.5 0 6.1 4.4 11.3 10.4 12.3l41.7 7c25.3 4.2 43.9 26.1 43.9 51.8 0 26.1-19 47.7-44 51.8l0 24.7-40 0 0-24-44 0 0-40 75.5 0c6.9 0 12.5-5.6 12.5-12.5 0-6.1-4.4-11.3-10.4-12.3l-41.7-7C302.5 172 284 150.1 284 124.5z"/><path fill="currentColor" d="M144 48l0 24c-28.8 .3-52 23.7-52 52.5 0 25.7 18.5 47.6 43.9 51.8l41.7 7c6 1 10.4 6.2 10.4 12.3 0 6.9-5.6 12.5-12.5 12.5l-75.5 0 0 40 44 0 0 24 40 0 0-24.7c25-4.1 44-25.7 44-51.8 0-25.7-18.5-47.6-43.9-51.8l-41.7-7c-6-1-10.4-6.2-10.4-12.3 0-6.9 5.6-12.5 12.5-12.5l67.5 0 0-40-28 0 0-24-40 0zM352 480l0-128-192 0 0 128c0 53 43 96 96 96s96-43 96-96zm-80-96l0 16 24 0 0 32-49.5 0c-3.6 0-6.5 2.9-6.5 6.5 0 3 2 5.6 4.9 6.3l30 7.5c17.1 4.3 29.1 19.7 29.1 37.3 0 19-13.8 34.8-32 37.9l0 16.5-32 0 0-16-24 0 0-32 49.5 0c3.6 0 6.5-2.9 6.5-6.5 0-3-2-5.6-4.9-6.3l-30-7.5c-17.1-4.3-29.1-19.7-29.1-37.3 0-19 13.8-34.8 32-37.9l0-16.5 32 0zM376 48l-40 0 0 24c-28.8 .3-52 23.7-52 52.5 0 25.7 18.5 47.6 43.9 51.8l41.7 7c6 1 10.4 6.2 10.4 12.3 0 6.9-5.6 12.5-12.5 12.5l-75.5 0 0 40 44 0 0 24 40 0 0-24.7c25-4.1 44-25.7 44-51.8 0-25.7-18.5-47.6-43.9-51.8l-41.7-7c-6-1-10.4-6.2-10.4-12.3 0-6.9 5.6-12.5 12.5-12.5l67.5 0 0-40-28 0 0-24z"/></svg>