<svg xmlns="http://www.w3.org/2000/svg" viewBox="0 0 512 512"><!--! Font Awesome Pro 7.0.1 by @fontawesome - https://fontawesome.com License - https://fontawesome.com/license (Commercial License) Copyright 2025 Fonticons, Inc. --><path style="fill:var(--fa-secondary-color,currentColor);opacity:var(--fa-secondary-opacity,.4)" d="M0 256a256 256 0 1 0 512 0 256 256 0 1 0 -512 0zm96-64l88 0c22.1 0 40 17.9 40 40s-17.9 40-40 40c-19.4 0-35.5-13.7-39.2-32l-48.8 0 0-48zm64 176l152 0c13.3 0 24-10.7 24-24l0-24 48 0 0 24c0 39.8-32.2 72-72 72l-152 0 0-48zM288 192l88 0c22.1 0 40 17.9 40 40s-17.9 40-40 40c-19.4 0-35.5-13.7-39.2-32l-48.8 0 0-48z"/><path style="fill:var(--fa-primary-color,currentColor);opacity:var(--fa-primary-opacity,1)" d="M96 192l88 0c22.1 0 40 17.9 40 40s-17.9 40-40 40c-19.4 0-35.5-13.7-39.2-32l-48.8 0 0-48zm192 0l88 0c22.1 0 40 17.9 40 40s-17.9 40-40 40c-19.4 0-35.5-13.7-39.2-32l-48.8 0 0-48z"/></svg>