<svg xmlns="http://www.w3.org/2000/svg" viewBox="0 0 640 512"><!--! Font Awesome Pro 7.1.0 by @fontawesome - https://fontawesome.com License - https://fontawesome.com/license (Commercial License) Copyright 2025 Fonticons, Inc. --><path opacity=".4" fill="currentColor" d="M0 272a240 240 0 1 0 480 0 240 240 0 1 0 -480 0zm108.2 90.8l39.5-27.3C168 364.9 201.8 384 240 384s72-19.1 92.2-48.5l39.5 27.3C342.9 404.6 294.7 432 240 432s-102.9-27.4-131.8-69.2zM192 224a32 32 0 1 1 -64 0 32 32 0 1 1 64 0zm160 0a32 32 0 1 1 -64 0 32 32 0 1 1 64 0z"/><path fill="currentColor" d="M568-40l0-24-48 0 0 72-72 0 0 48 72 0 0 72 48 0 0-72 72 0 0-48-72 0 0-48zM192 224a32 32 0 1 0 -64 0 32 32 0 1 0 64 0zm128 32a32 32 0 1 0 0-64 32 32 0 1 0 0 64z"/></svg>