<svg xmlns="http://www.w3.org/2000/svg" viewBox="0 0 512 512"><!--! Font Awesome Pro 7.1.0 by @fontawesome - https://fontawesome.com License - https://fontawesome.com/license (Commercial License) Copyright 2025 Fonticons, Inc. --><path opacity=".4" fill="currentColor" d="M0 256a256 256 0 1 0 512 0 256 256 0 1 0 -512 0zM83.7 143c4.9-4.6 9.7-9.1 14.6-13.7 20.6-19.3 46.8-32.4 75.9-36.2 5.8-.8 11.7-1.2 17.7-1.2l20 0c0 13.3 0 26.7 0 40l-20 0c-4.2 0-8.4 .3-12.5 .8-20.3 2.7-38.9 11.9-53.8 25.8-4.9 4.6-9.7 9.1-14.6 13.7L83.7 143zm60.4 77.7c.1-1.1 .3-2.1 .5-3.2 .4-2.1 1.1-4.1 1.9-6 1.6-3.8 4-7.3 6.9-10.2 5.8-5.8 13.8-9.4 22.6-9.4 17.7 0 32 14.3 32 32s-14.3 32-32 32c-8.8 0-16.8-3.6-22.6-9.4-2.9-2.9-5.2-6.3-6.9-10.2-.8-1.9-1.4-3.9-1.9-6-.2-1-.4-2.1-.5-3.2-.1-.6-.1-1.1-.1-1.6s0-1 0-1.2c0-.6 0-.3 0-.9 0-.3 0-.7 0-1.3 0-.5 .1-1 .1-1.6zM208 352c0-26.5 21.5-48 48-48s48 21.5 48 48l0 32c0 26.5-21.5 48-48 48s-48-21.5-48-48l0-32zM300 92l20 0c6 0 11.9 .4 17.7 1.2 29.1 3.8 55.3 17 75.9 36.2 4.9 4.6 9.7 9.1 14.6 13.7-9.1 9.7-18.2 19.5-27.3 29.2-4.9-4.6-9.7-9.1-14.6-13.7-14.9-13.9-33.5-23.1-53.8-25.8-4.1-.5-8.3-.8-12.5-.8l-20 0c0-13.3 0-26.7 0-40zm4.2 128.7c.1-1 .3-2.1 .5-3.2 .4-2.1 1.1-4.1 1.9-6 1.6-3.8 4-7.3 6.9-10.2 5.8-5.8 13.8-9.4 22.6-9.4 17.7 0 32 14.3 32 32s-14.3 32-32 32c-8.8 0-16.8-3.6-22.6-9.4-2.9-2.9-5.2-6.3-6.9-10.2-.8-1.9-1.4-3.9-1.9-6-.2-1.1-.4-2.2-.5-3.3 0-.5-.1-1.1-.1-1.5 0-.5 0-.9 0-1.1 0-.3 0-.4 0-.5s0-.2 0-.5c0-.3 0-.8 .1-1.4 0-.4 .1-.9 .1-1.4z"/><path fill="currentColor" d="M192 132c-4.2 0-8.4 .3-12.5 .8-20.3 2.7-38.9 11.9-53.8 25.8L111 172.3 83.7 143 98.3 129.4C119 110.1 145.2 97 174.3 93.2 180.1 92.4 186 92 192 92l20 0 0 40-20 0zm-16 60a32 32 0 1 1 0 64 32 32 0 1 1 0-64zm160 0a32 32 0 1 1 0 64 32 32 0 1 1 0-64zm-3.5-59.2c-4.1-.5-8.3-.8-12.5-.8l-20 0 0-40 20 0c6 0 11.9 .4 17.7 1.2 29.1 3.8 55.3 17 75.9 36.2l14.6 13.7-27.3 29.2-14.6-13.7c-14.9-13.9-33.5-23.1-53.8-25.8z"/></svg>