<svg xmlns="http://www.w3.org/2000/svg" viewBox="0 0 512 512"><!--! Font Awesome Pro 7.1.0 by @fontawesome - https://fontawesome.com License - https://fontawesome.com/license (Commercial License) Copyright 2025 Fonticons, Inc. --><path opacity=".4" fill="currentColor" d="M0 256a256 256 0 1 0 512 0 256 256 0 1 0 -512 0zm108-48c0-37.6 30.4-68 68-68s68 30.4 68 68l0 28-40 0 0-28c0-15.5-12.5-28-28-28s-28 12.5-28 28l0 28-40 0 0-28zm16.2 138.8l39.5-27.3C184 348.9 217.8 368 256 368s72-19.1 92.2-48.5l39.5 27.3C358.9 388.6 310.7 416 256 416s-102.9-27.4-131.8-69.2zM268 208c0-37.6 30.4-68 68-68s68 30.4 68 68l0 28-40 0 0-28c0-15.5-12.5-28-28-28s-28 12.5-28 28l0 28-40 0 0-28z"/><path fill="currentColor" d="M148 208c0-15.5 12.5-28 28-28s28 12.5 28 28l0 28 40 0 0-28c0-37.6-30.4-68-68-68s-68 30.4-68 68l0 28 40 0 0-28zm160 0c0-15.5 12.5-28 28-28s28 12.5 28 28l0 28 40 0 0-28c0-37.6-30.4-68-68-68s-68 30.4-68 68l0 28 40 0 0-28z"/></svg>