<svg xmlns="http://www.w3.org/2000/svg" viewBox="0 0 576 512"><!--! Font Awesome Pro 7.1.0 by @fontawesome - https://fontawesome.com License - https://fontawesome.com/license (Commercial License) Copyright 2025 Fonticons, Inc. --><path opacity=".4" fill="currentColor" d="M64.4 288c0-51.6 17.4-99.1 46.8-137 49.4 25.8 110.2 41 176 41 66.6 0 128.1-15.6 177.8-41.9 29.7 38 47.5 85.9 47.5 137.9 0 123.7-100.3 224-224 224s-224-100.3-224-224zm86 53.9c11.3 65.9 68.8 116.1 138 116.1s126.6-50.2 138-116.1c-39.6 15.9-87 25.1-138 25.1s-98.3-9.2-138-25.1zm26-69.9a32 32 0 1 0 64 0 32 32 0 1 0 -64 0zm160 0a32 32 0 1 0 64 0 32 32 0 1 0 -64 0z"/><path fill="currentColor" d="M130.6 85.9C80.3 72 34.8 51.7-4 26.3 26.3 121.2 145.2 192 287.2 192S548.1 121.2 578.4 26.3C539.6 51.7 494 72 443.8 85.9L393.9-64 287.2-21.3 180.5-64 130.6 85.9zM240.4 272a32 32 0 1 0 -64 0 32 32 0 1 0 64 0zm128 32a32 32 0 1 0 0-64 32 32 0 1 0 0 64z"/></svg>