<svg xmlns="http://www.w3.org/2000/svg" viewBox="0 0 512 512"><!--! Font Awesome Pro 7.1.0 by @fontawesome - https://fontawesome.com License - https://fontawesome.com/license (Commercial License) Copyright 2025 Fonticons, Inc. --><path opacity=".4" fill="currentColor" d="M0 256a256 256 0 1 0 512 0 256 256 0 1 0 -512 0zm124.2-90.8C153.1 123.4 201.3 96 256 96s102.9 27.4 131.8 69.2l-39.5 27.3C328 163.1 294.2 144 256 144s-72 19.1-92.2 48.5l-39.5-27.3zM208 304a32 32 0 1 1 -64 0 32 32 0 1 1 64 0zm160 0a32 32 0 1 1 -64 0 32 32 0 1 1 64 0z"/><path fill="currentColor" d="M176 272a32 32 0 1 0 0 64 32 32 0 1 0 0-64zm160 0a32 32 0 1 0 0 64 32 32 0 1 0 0-64z"/></svg>