<svg xmlns="http://www.w3.org/2000/svg" viewBox="0 0 512 512"><!--! Font Awesome Pro 7.1.0 by @fontawesome - https://fontawesome.com License - https://fontawesome.com/license (Commercial License) Copyright 2025 Fonticons, Inc. --><path opacity=".4" fill="currentColor" d="M0 256C0 397.4 114.6 512 256 512S512 397.4 512 256 397.4 0 256 0c-37.4 0-72.9 8-104.9 22.4 12.5 18.8 25 44.2 25 73.6 0 62.9-49.1 112-112 112-20.7 0-39.9-5.3-56.3-14.6-5 20-7.7 41-7.7 62.6zm96-16l128 0 0 48-128 0 0-48zm53.9 159.9C170 361.9 210 336 256 336s86 25.9 106.1 63.9l-42.4 22.5C307.6 399.5 283.6 384 256 384s-51.6 15.5-63.7 38.4l-42.4-22.5zM288 240l128 0 0 48-128 0 0-48z"/><path fill="currentColor" d="M49.7 10.4c4.6-4.5 9.4-8.7 14.3-12.9 4.9 4.2 9.7 8.4 14.3 12.9 10.8 10.5 28.8 29.7 40 51.3 5.6 10.7 9.6 22.5 9.6 34.3 0 36.4-27.6 64-64 64S0 132.4 0 96c0-11.8 4.1-23.6 9.6-34.3 11.2-21.6 29.2-40.8 40-51.3zM96 240l128 0 0 48-128 0 0-48zm192 0l128 0 0 48-128 0 0-48z"/></svg>