<svg xmlns="http://www.w3.org/2000/svg" viewBox="0 0 512 512"><!--! Font Awesome Pro 7.0.1 by @fontawesome - https://fontawesome.com License - https://fontawesome.com/license (Commercial License) Copyright 2025 Fonticons, Inc. --><path style="fill:var(--fa-secondary-color,currentColor);opacity:var(--fa-secondary-opacity,.4)" d="M0 256a256 256 0 1 0 512 0 256 256 0 1 0 -512 0zm232-32a72 72 0 1 1 -144 0 72 72 0 1 1 144 0zM168 368l176 0 0 48-176 0 0-48zM424 224a72 72 0 1 1 -144 0 72 72 0 1 1 144 0z"/><path style="fill:var(--fa-primary-color,currentColor);opacity:var(--fa-primary-opacity,1)" d="M160 248a24 24 0 1 0 0-48 24 24 0 1 0 0 48zm192 0a24 24 0 1 0 0-48 24 24 0 1 0 0 48z"/></svg>