<svg xmlns="http://www.w3.org/2000/svg" viewBox="0 0 512 512"><!--! Font Awesome Pro 7.1.0 by @fontawesome - https://fontawesome.com License - https://fontawesome.com/license (Commercial License) Copyright 2025 Fonticons, Inc. --><path opacity=".4" fill="currentColor" d="M0 256a256 256 0 1 0 512 0 256 256 0 1 0 -512 0zm78.7-86.7c.6-.4 39.3-26.2 116-77.3l20-13.3 26.6 39.9c-.6 .4-39.3 26.2-116 77.3l-20 13.3-26.6-39.9zM110.1 352L144 318.1c13.3 13.3 20.6 20.6 21.7 21.7 9 9 22.7 11.2 34 5.5 26.2-13.1 57.6-10.3 81.1 7.3l27.9 21c2.1 1.6 4.7 2.4 7.3 2.4 4 0 7.8-2 10-5.3 16.2-23.6 28.1-41 35.7-52.1l39.6 27.1c-7.6 11.1-19.5 28.5-35.7 52.1-11.2 16.4-29.8 26.2-49.6 26.2-13 0-25.7-4.2-36.1-12L252 391c-8.9-6.7-20.9-7.8-30.8-2.8-29.8 14.9-65.8 9.1-89.4-14.5-1.1-1.1-8.4-8.4-21.7-21.7zm4.8-113.5c8.7-2.2 37.8-9.5 87.3-21.8l23.3-5.8 11.6 46.6-87.3 21.8-23.3 5.8-11.6-46.6zM288 208c0-35.3 21.5-64 48-64s48 28.7 48 64-21.5 64-48 64-48-28.7-48-64z"/><path fill="currentColor" d="M221.3 132l20-13.3-26.6-39.9c-.6 .4-39.3 26.2-116 77.3l-20 13.3 26.6 39.9c.6-.4 39.3-26.2 116-77.3zM384 208c0-35.3-21.5-64-48-64s-48 28.7-48 64 21.5 64 48 64 48-28.7 48-64zM237.1 257.5l-11.6-46.6c-8.7 2.2-37.8 9.5-87.3 21.8l-23.3 5.8 11.6 46.6c8.7-2.2 37.8-9.5 87.3-21.8l23.3-5.8z"/></svg>