<svg xmlns="http://www.w3.org/2000/svg" viewBox="0 0 512 512"><!--! Font Awesome Pro 7.1.0 by @fontawesome - https://fontawesome.com License - https://fontawesome.com/license (Commercial License) Copyright 2025 Fonticons, Inc. --><path opacity=".4" fill="currentColor" d="M0 256a256 256 0 1 0 512 0 256 256 0 1 0 -512 0zm98.3 43.3C143.6 317.4 197.8 328 256 328s112.4-10.6 157.7-28.7C400.7 374.7 335.1 432 256 432S111.3 374.7 98.3 299.3zM108 208c0-37.6 30.4-68 68-68s68 30.4 68 68l0 28-40 0 0-28c0-15.5-12.5-28-28-28s-28 12.5-28 28l0 28-40 0 0-28zm160 0c0-37.6 30.4-68 68-68s68 30.4 68 68l0 28-40 0 0-28c0-15.5-12.5-28-28-28s-28 12.5-28 28l0 28-40 0 0-28z"/><path fill="currentColor" d="M148 208c0-15.5 12.5-28 28-28s28 12.5 28 28l0 28 40 0 0-28c0-37.6-30.4-68-68-68s-68 30.4-68 68l0 28 40 0 0-28zm160 0c0-15.5 12.5-28 28-28s28 12.5 28 28l0 28 40 0 0-28c0-37.6-30.4-68-68-68s-68 30.4-68 68l0 28 40 0 0-28z"/></svg>