<svg xmlns="http://www.w3.org/2000/svg" viewBox="0 0 512 512"><!--! Font Awesome Pro 7.1.0 by @fontawesome - https://fontawesome.com License - https://fontawesome.com/license (Commercial License) Copyright 2025 Fonticons, Inc. --><path opacity=".4" fill="currentColor" d="M0 192l0 16c0 79.5 64.5 144 144 144 16.8 0 33-2.9 48-8.2l0 168.2 16 0c79.5 0 144-64.5 144-144 0-16.8-2.9-33-8.2-48l168.2 0 0-16c0-79.5-64.5-144-144-144-16.8 0-33 2.9-48 8.2L320 0 304 0c-79.5 0-144 64.5-144 144 0 16.8 2.9 33 8.2 48L0 192zm288 64a32 32 0 1 1 -64 0 32 32 0 1 1 64 0z"/><path fill="currentColor" d="M224 256a32 32 0 1 1 64 0 32 32 0 1 1 -64 0z"/></svg>