<svg xmlns="http://www.w3.org/2000/svg" viewBox="0 0 512 512"><!--! Font Awesome Pro 7.1.0 by @fontawesome - https://fontawesome.com License - https://fontawesome.com/license (Commercial License) Copyright 2025 Fonticons, Inc. --><path opacity=".4" fill="currentColor" d="M0 224l0 128 132.1 0c20.2 29 53.9 48 91.9 48s71.7-19 91.9-48l36.1 0c17.7 0 32 14.3 32 32l0 32 128 0 0-32c0-88.4-71.6-160-160-160l-32 0-32-32-32 0 0-64-64 0 0 64-32 0-32 32-128 0zM192 32l0 32 64 0 0-32-64 0z"/><path fill="currentColor" d="M64 128l0-64 320 0 0 64-320 0zM448 448l27.8 48.7c2.7 4.8 4.2 10.2 4.2 15.7 0 17.5-14.2 31.6-31.6 31.6l-.8 0c-17.5 0-31.6-14.2-31.6-31.6 0-5.5 1.4-10.9 4.2-15.7L448 448z"/></svg>