<svg xmlns="http://www.w3.org/2000/svg" viewBox="0 0 512 512"><!--! Font Awesome Pro 7.0.1 by @fontawesome - https://fontawesome.com License - https://fontawesome.com/license (Commercial License) Copyright 2025 Fonticons, Inc. --><path style="fill:var(--fa-secondary-color,currentColor);opacity:var(--fa-secondary-opacity,.4)" d="M160 0l0 192 64 0 0-128 146.7 0 45.3 45.3 0 82.7 64 0 0-109.3-73.4-73.4-9.4-9.4-237.3 0zm64 288a24 24 0 1 0 48 0 24 24 0 1 0 -48 0zm0 96a24 24 0 1 0 48 0 24 24 0 1 0 -48 0zm88-96a24 24 0 1 0 48 0 24 24 0 1 0 -48 0zm0 96a24 24 0 1 0 48 0 24 24 0 1 0 -48 0zm88-96a24 24 0 1 0 48 0 24 24 0 1 0 -48 0zm0 96a24 24 0 1 0 48 0 24 24 0 1 0 -48 0z"/><path style="fill:var(--fa-primary-color,currentColor);opacity:var(--fa-primary-opacity,1)" d="M0 128l112 0 0 352-112 0 0-352zm160 64l352 0 0 288-352 0 0-288zm112 96a24 24 0 1 0 -48 0 24 24 0 1 0 48 0zm0 96a24 24 0 1 0 -48 0 24 24 0 1 0 48 0zm64-72a24 24 0 1 0 0-48 24 24 0 1 0 0 48zm24 72a24 24 0 1 0 -48 0 24 24 0 1 0 48 0zm64-72a24 24 0 1 0 0-48 24 24 0 1 0 0 48zm24 72a24 24 0 1 0 -48 0 24 24 0 1 0 48 0z"/></svg>