<svg xmlns="http://www.w3.org/2000/svg" viewBox="0 0 384 512"><!--! Font Awesome Pro 7.1.0 by @fontawesome - https://fontawesome.com License - https://fontawesome.com/license (Commercial License) Copyright 2025 Fonticons, Inc. --><path opacity=".4" fill="currentColor" d="M0 0L0 512 384 512 384 144 240 0 0 0zM64 192l80 0c35.3 0 64 28.7 64 64 0 18.8-8.1 35.7-21 47.4l41 38.4c20-19 35-33.1 45-42.5l33 34.9c-10.3 9.7-24.6 23.2-42.9 40.6 18.2 17.1 32.5 30.5 42.9 40.2l-32.8 35c-10-9.4-25-23.4-45-42.2-20.1 19-35.1 33.2-45.1 42.6l-33-34.9c10.3-9.7 24.6-23.3 43-40.6l-58.5-54.9-22.5 0 0 64-48 0 0-192zm48 48l0 32 32 0c8.8 0 16-7.2 16-16s-7.2-16-16-16l-32 0zM208 58.5L325.5 176 208 176 208 58.5z"/><path fill="currentColor" d="M64 192l80 0c35.3 0 64 28.7 64 64 0 18.8-8.1 35.7-21 47.4l41 38.4c20-19 35-33.1 45-42.5l33 34.9c-10.3 9.7-24.6 23.2-42.9 40.6 18.2 17.1 32.5 30.5 42.9 40.2l-32.8 35c-10-9.4-25-23.4-45-42.2-20.1 19-35.1 33.2-45.1 42.6l-33-34.9c10.3-9.7 24.6-23.3 43-40.6l-58.5-54.9-22.5 0 0 64-48 0 0-192zm48 80l32 0c8.8 0 16-7.2 16-16s-7.2-16-16-16l-32 0 0 32z"/></svg>