<svg xmlns="http://www.w3.org/2000/svg" viewBox="0 0 384 512"><!--! Font Awesome Pro 7.1.0 by @fontawesome - https://fontawesome.com License - https://fontawesome.com/license (Commercial License) Copyright 2025 Fonticons, Inc. --><path opacity=".4" fill="currentColor" d="M0 0L0 512 384 512 384 144 240 0 0 0zM64 256l128 0 0 160-128 0 0-160zm48 48l0 64 32 0 0-64-32 0zM208 58.5L325.5 176 208 176 208 58.5zM224 256l72 0 0 112 24 0 0 48-96 0 0-48 24 0 0-64-24 0 0-48z"/><path fill="currentColor" d="M64 256l128 0 0 160-128 0 0-160zm48 48l0 64 32 0 0-64-32 0zm112-48l72 0 0 112 24 0 0 48-96 0 0-48 24 0 0-64-24 0 0-48z"/></svg>