<svg xmlns="http://www.w3.org/2000/svg" viewBox="0 0 640 512"><!--! Font Awesome Pro 7.1.0 by @fontawesome - https://fontawesome.com License - https://fontawesome.com/license (Commercial License) Copyright 2025 Fonticons, Inc. --><path opacity=".4" fill="currentColor" d="M64 0l240 0 144 144 0 192-176 0 0 176-208 0 0-512zM272 58.5L272 176 389.5 176 272 58.5z"/><path fill="currentColor" d="M316 380l0 40 54.1 0-51.5 90.1-2.6 4.6 0 33.3 104 0 0-40-54.1 0 51.5-90.1 2.6-4.6 0-33.3-104 0zm168 0l-40 0 0 168 40 0 0-168zm44 0l-20 0 0 168 40 0 0-48 12 0c33.1 0 60-26.9 60-60s-26.9-60-60-60l-32 0zm32 80l-12 0 0-40 12 0c11 0 20 9 20 20s-9 20-20 20z"/></svg>