<svg xmlns="http://www.w3.org/2000/svg" viewBox="0 0 384 512"><!--! Font Awesome Pro 7.1.0 by @fontawesome - https://fontawesome.com License - https://fontawesome.com/license (Commercial License) Copyright 2025 Fonticons, Inc. --><path opacity=".4" fill="currentColor" d="M0 0L0 512 384 512 384 144 240 0 0 0zM94.1 344c3.5-3.5 30.5-30.5 81-81l17-17c3.5 3.5 30.5 30.5 81 81l17 17-33.9 33.9-40-40 0 110.1-48 0 0-110.1c-16.4 16.4-29.7 29.7-40 40L94.1 344zM208 58.5L325.5 176 208 176 208 58.5z"/><path fill="currentColor" d="M192 246.1c3.5 3.5 30.5 30.5 81 81l17 17-33.9 33.9-40-40 0 110.1-48 0 0-110.1c-16.4 16.4-29.7 29.7-40 40L94.1 344c3.5-3.5 30.5-30.5 81-81l17-17z"/></svg>