<svg xmlns="http://www.w3.org/2000/svg" viewBox="0 0 384 512"><!--! Font Awesome Pro 7.1.0 by @fontawesome - https://fontawesome.com License - https://fontawesome.com/license (Commercial License) Copyright 2025 Fonticons, Inc. --><path opacity=".4" fill="currentColor" d="M0 0L0 512 384 512 384 144 240 0 0 0zM85.9 256l49 0 14.9 74.7c15.3-45.8 23.6-70.7 24.9-74.7l34.6 0c1.3 4 9.6 28.9 24.9 74.7l14.9-74.7 49 0-34.5 172.7-3.9 19.3-37 0c-.4-1.1-10.6-31.8-30.7-92.1-20.1 60.3-30.3 91-30.7 92.1l-37 0-3.9-19.3-34.5-172.7zM208 58.5L325.5 176 208 176 208 58.5z"/><path fill="currentColor" d="M85.9 256l34.5 172.7 3.9 19.3 37 0c.4-1.1 10.6-31.8 30.7-92.1 20.1 60.4 30.3 91 30.7 92.1l37 0 3.9-19.3 34.5-172.7-49 0-14.9 74.7c-15.3-45.8-23.6-70.7-24.9-74.7l-34.6 0c-1.3 4-9.6 28.9-24.9 74.7l-14.9-74.7-49 0z"/></svg>