<svg xmlns="http://www.w3.org/2000/svg" viewBox="0 0 384 512"><!--! Font Awesome Pro 7.0.0 by @fontawesome - https://fontawesome.com License - https://fontawesome.com/license (Commercial License) Copyright 2025 Fonticons, Inc. --><path style="fill:var(--fa-secondary-color,currentColor);opacity:var(--fa-secondary-opacity,.4)" d="M0 0L0 512 384 512 384 144 240 0 0 0zM168 224l48 0 0 128-48 0 0-128zm0 168l48 0 0 48-48 0 0-48zM208 58.5L325.5 176 208 176 208 58.5z"/><path style="fill:var(--fa-primary-color,currentColor);opacity:var(--fa-primary-opacity,1)" d="M168 224l0 128 48 0 0-128-48 0zm0 168l0 48 48 0 0-48-48 0z"/></svg>