<svg xmlns="http://www.w3.org/2000/svg" viewBox="0 0 512 512"><!--! Font Awesome Pro 7.1.0 by @fontawesome - https://fontawesome.com License - https://fontawesome.com/license (Commercial License) Copyright 2025 Fonticons, Inc. --><path opacity=".4" fill="currentColor" d="M144 160l224 0 0 320-224 0 0-320z"/><path fill="currentColor" d="M120-32l-24 0 0 48 320 0 0-48-296 0zM72 64l-24 0 0 48 416 0 0-48-392 0zm72 416l0-320-144 0 0 320 144 0zM368 160l0 320 144 0 0-320-144 0zM48 248l0-48 48 0 0 48-48 0zm48 48l0 48-48 0 0-48 48 0zm0 144l-48 0 0-48 48 0 0 48zm368 0l-48 0 0-48 48 0 0 48zm-48-96l0-48 48 0 0 48-48 0zm48-96l-48 0 0-48 48 0 0 48z"/></svg>