<svg xmlns="http://www.w3.org/2000/svg" viewBox="0 0 640 512"><!--! Font Awesome Pro 7.1.0 by @fontawesome - https://fontawesome.com License - https://fontawesome.com/license (Commercial License) Copyright 2025 Fonticons, Inc. --><path opacity=".4" fill="currentColor" d="M64 32l0 448 209.5 0c4.6-24.3 19.4-43.6 36.5-56.4 12.3-9.3 26.7-15.9 42.1-19.7l0-176 160-29.1 0-166.7-448 0zm48 64l64 0 0 64-64 0 0-64zm0 128l64 0 0 64-64 0 0-64zm0 128l64 0 0 64-64 0 0-64zM400 96l64 0 0 64-64 0 0-64z"/><path fill="currentColor" d="M624 227l0 236.9c0 23.3-18 35.4-29.1 40.5-11.9 5.4-25.4 7.5-34.9 7.5s-22.9-2.1-34.9-7.5c-11.1-5-29.1-17.2-29.1-40.5s18-35.4 29.1-40.5c11.9-5.4 25.4-7.5 34.9-7.5 4.6 0 10.1 .5 16 1.6l0-85-128 23.3 0 140.1c0 23.3-18 35.4-29.1 40.5-11.9 5.4-25.4 7.5-34.9 7.5s-22.9-2.1-34.9-7.5c-11.1-5-29.1-17.2-29.1-40.5s18-35.4 29.1-40.5c11.9-5.4 25.4-7.5 34.9-7.5 4.6 0 10.1 .5 16 1.6l0-181.8 19.7-3.6 176-32 28.3-5.1z"/></svg>