<svg xmlns="http://www.w3.org/2000/svg" viewBox="0 0 448 512"><!--! Font Awesome Pro 7.1.0 by @fontawesome - https://fontawesome.com License - https://fontawesome.com/license (Commercial License) Copyright 2025 Fonticons, Inc. --><path opacity=".4" fill="currentColor" d="M0 288l0 224 128 0 0-224-40 0 0-181.9 203.4-58.1 36.6 0 0 112 48 0 0-160-91.4 0-3.2 .9-224 64-17.4 5 0 218.1-40 0z"/><path fill="currentColor" d="M352 192c-32 16-96 75.2-96 152 0 32 16 80 64 112l-32 40 0 16 128 0 0-16-32-40c48-32 64-80 64-112 0-76.8-64-136-96-152zm8 96a24 24 0 1 1 0 48 24 24 0 1 1 0-48z"/></svg>