<svg xmlns="http://www.w3.org/2000/svg" viewBox="0 0 448 512"><!--! Font Awesome Pro 7.1.0 by @fontawesome - https://fontawesome.com License - https://fontawesome.com/license (Commercial License) Copyright 2025 Fonticons, Inc. --><path opacity=".4" fill="currentColor" d="M64 235.8l0 63.3 63.5-13.6c43-9.2 87.9-4.6 128.1 13.3l16.1 7.2c41.6 18.5 88.8 20.1 131.6 4.6l44.7-16.2 0-61.9-33.7 12.3C363.7 263 307.9 261 258.7 239.2L242.6 232c-34-15.1-72-19.1-108.4-11.3L64 235.8zm0 96l0 68.2 64.3-16.1c41.1-10.3 84.6-5.5 122.5 13.4 44.2 22.1 95.5 24.8 141.7 7.4l55.5-20.8 0-55.7-33.7 12.3C363.7 359 307.9 357 258.7 335.2L242.6 328c-34-15.1-72-19.1-108.4-11.3L64 331.8zM192 27l0 62.9c21.8 2.2 43.3 7.9 63.6 16.9l16.1 7.2c41.6 18.5 88.8 20.1 131.6 4.6l44.7-16.2 0-86.2-54.4 27.2c-46.3 23.2-100.8 23.2-147.1 0-17.2-8.6-35.6-14-54.4-16.3zm0 95.1l0 63.8c21.8 2.2 43.3 7.9 63.6 16.9l16.1 7.2c41.6 18.5 88.8 20.1 131.6 4.6l44.7-16.2 0-62-33.7 12.3C363.7 167 307.9 165 258.7 143.2L242.6 136c-16.2-7.2-33.2-11.9-50.6-13.9z"/><path fill="currentColor" d="M192 122.1L192 27c-19.6-2.3-39.6-1.1-59 3.8l-69 17.2 0-48-64 0 0 512 64 0 0-308.9 63.5-13.6c21.3-4.6 43-5.7 64.5-3.6l0-63.8zM80 96a16 16 0 1 1 32 0 16 16 0 1 1 -32 0zm64-32a16 16 0 1 1 0 32 16 16 0 1 1 0-32zM80 144a16 16 0 1 1 32 0 16 16 0 1 1 -32 0zm64-32a16 16 0 1 1 0 32 16 16 0 1 1 0-32z"/></svg>