<svg xmlns="http://www.w3.org/2000/svg" viewBox="0 0 384 512"><!--! Font Awesome Pro 7.1.0 by @fontawesome - https://fontawesome.com License - https://fontawesome.com/license (Commercial License) Copyright 2025 Fonticons, Inc. --><path opacity=".4" fill="currentColor" d="M64 320c0-4.4 .2-8.8 .7-13.1l23-9.2c16.1-6.4 33.3-9.7 50.6-9.7 24.7 0 48.9 6.7 70.1 19.4l9.6 5.8c24.9 14.9 53.3 22.8 82.3 22.8l18.7 0c-7.9 63.1-61.7 112-127 112-70.7 0-128-57.3-128-128z"/><path fill="currentColor" d="M96 64l-32 0 0-64 256 0 0 64-32 0 0 89.7c57.3 33.2 96 95.2 96 166.3 0 106-86 192-192 192S0 426 0 320c0-71.1 38.7-133.1 96-166.3L96 64zm64 0l0 130.3-19.2 8.4C95.5 222.4 64 267.6 64 320 64 390.7 121.3 448 192 448s128-57.3 128-128c0-52.4-31.5-97.6-76.8-117.4l-19.2-8.4 0-130.3-64 0z"/></svg>