<svg xmlns="http://www.w3.org/2000/svg" viewBox="0 0 640 512"><!--! Font Awesome Pro 7.1.0 by @fontawesome - https://fontawesome.com License - https://fontawesome.com/license (Commercial License) Copyright 2025 Fonticons, Inc. --><path opacity=".4" fill="currentColor" d="M64 32l333.3 0 9.4 9.4 105.4 105.4 0 56.9-161.3 161.3c.9-4.2 1.3-8.5 1.3-13 0-35.3-28.7-64-64-64s-64 28.7-64 64 28.7 64 64 64c4.4 0 8.8-.5 13-1.3l-10.3 10.3-9.2 55.1-217.6 0 0-448zm96 64l0 128 224 0 0-128-224 0z"/><path fill="currentColor" d="M491.2 292.8l80 80 52.8-52.8-80-80-52.8 52.8zm-22.6 22.6l-132.6 132.6-16 96 96-16 132.6-132.6-80-80z"/></svg>