<svg xmlns="http://www.w3.org/2000/svg" viewBox="0 0 448 512"><!--! Font Awesome Pro 7.0.1 by @fontawesome - https://fontawesome.com License - https://fontawesome.com/license (Commercial License) Copyright 2025 Fonticons, Inc. --><path style="fill:var(--fa-secondary-color,currentColor);opacity:var(--fa-secondary-opacity,.4)" d="M0 160c0 38.2 16.8 72.5 43.3 96-26.6 23.5-43.3 57.8-43.3 96 0 70.7 57.3 128 128 128 38.2 0 72.5-16.8 96-43.3 23.5 26.6 57.8 43.3 96 43.3 70.7 0 128-57.3 128-128 0-38.2-16.8-72.5-43.3-96 26.6-23.5 43.3-57.8 43.3-96 0-70.7-57.3-128-128-128-38.2 0-72.5 16.8-96 43.3-23.5-26.6-57.8-43.3-96-43.3-70.7 0-128 57.3-128 128zm128 96l96-96 96 96-96 96-96-96z"/><path style="fill:var(--fa-primary-color,currentColor);opacity:var(--fa-primary-opacity,1)" d="M128 256l96 96 96-96-96-96-96 96z"/></svg>