<svg xmlns="http://www.w3.org/2000/svg" viewBox="0 0 576 512"><!--! Font Awesome Pro 7.1.0 by @fontawesome - https://fontawesome.com License - https://fontawesome.com/license (Commercial License) Copyright 2025 Fonticons, Inc. --><path opacity=".4" fill="currentColor" d="M4.5 432L112.4 539.9c41.7-41.7 83.3-83.3 125-125L129.5 307c-41.7 41.7-83.3 83.3-125 125zm139.9-8a24 24 0 1 1 -48 0 24 24 0 1 1 48 0zm19-150.9L271.3 381c100.3-100.3 200.6-200.6 301-301l-107.9-107.9-301 301zm173-41.1a24 24 0 1 1 -48 0 24 24 0 1 1 48 0zm64-64a24 24 0 1 1 -48 0 24 24 0 1 1 48 0zm64-64a24 24 0 1 1 -48 0 24 24 0 1 1 48 0z"/><path fill="currentColor" d="M440.4 80a24 24 0 1 1 0 48 24 24 0 1 1 0-48zm-88 88a24 24 0 1 1 48 0 24 24 0 1 1 -48 0zm-64 64a24 24 0 1 1 48 0 24 24 0 1 1 -48 0zM129.5 307L163.4 273.1 271.3 381 237.4 414.9 129.5 307zm-9.1 93a24 24 0 1 1 0 48 24 24 0 1 1 0-48z"/></svg>