<svg xmlns="http://www.w3.org/2000/svg" viewBox="0 0 512 512"><!--! Font Awesome Pro 7.0.1 by @fontawesome - https://fontawesome.com License - https://fontawesome.com/license (Commercial License) Copyright 2025 Fonticons, Inc. --><path style="fill:var(--fa-secondary-color,currentColor);opacity:var(--fa-secondary-opacity,.4)" d="M0 32l0 416 512 0 0-368-224 0-64-48-224 0zM64 224l96 0 0 96-96 0 0-96zm144 0l96 0 0 96-96 0 0-96zm144 0l96 0 0 96-96 0 0-96z"/><path style="fill:var(--fa-primary-color,currentColor);opacity:var(--fa-primary-opacity,1)" d="M64 224l96 0 0 96-96 0 0-96zm144 0l96 0 0 96-96 0 0-96zm240 0l0 96-96 0 0-96 96 0z"/></svg>