<svg xmlns="http://www.w3.org/2000/svg" viewBox="0 0 512 512"><!--! Font Awesome Pro 7.1.0 by @fontawesome - https://fontawesome.com License - https://fontawesome.com/license (Commercial License) Copyright 2025 Fonticons, Inc. --><path opacity=".4" fill="currentColor" d="M0 32l0 416 512 0 0-368-224 0-64-48-224 0zM154.7 384l21.3-64 160 0 21.3 64-202.7 0zM312 224a56 56 0 1 1 -112 0 56 56 0 1 1 112 0z"/><path fill="currentColor" d="M200 224a56 56 0 1 1 112 0 56 56 0 1 1 -112 0zm136 96l21.3 64-202.7 0 21.3-64 160 0z"/></svg>