<svg xmlns="http://www.w3.org/2000/svg" viewBox="0 0 512 512"><!--! Font Awesome Pro 7.1.0 by @fontawesome - https://fontawesome.com License - https://fontawesome.com/license (Commercial License) Copyright 2025 Fonticons, Inc. --><path opacity=".4" fill="currentColor" d="M64 224l0 96 32 0 0-64 32 0 0 32 32 0 0-64-96 0zm160 0l32.5 0 15.3-61.1 15.5 3.9 37.8-151.3-62.1-15.5-37.8 151.3 15.5 3.9-16.2 65c-.3 1.3-.5 2.6-.5 3.9zm80 0l35.2 0 40.3-60.5 13.3 8.9 91.2-136.9-53.3-35.5-91.2 136.9 13.3 8.9-46.2 69.4c-1.8 2.7-2.7 5.8-2.7 8.9z"/><path fill="currentColor" d="M64 224l-64 0 0 96c0 52.3 25.1 98.8 64 128l0 64 64 0 0-35.2c10.3 2.1 21 3.2 32 3.2l128 0c11 0 21.7-1.1 32-3.2l0 35.2 64 0 0-64c38.9-29.2 64-75.7 64-128l0-32 64 0 0-64-352 0 0 64-32 0 0-32-32 0 0 64-32 0 0-96z"/></svg>