<svg xmlns="http://www.w3.org/2000/svg" viewBox="0 0 512 512"><!--! Font Awesome Pro 7.0.1 by @fontawesome - https://fontawesome.com License - https://fontawesome.com/license (Commercial License) Copyright 2025 Fonticons, Inc. --><path style="fill:var(--fa-secondary-color,currentColor);opacity:var(--fa-secondary-opacity,.4)" d="M15.9 321.4c58.5 58.5 117.1 117.1 175.7 175.7 21.3-1.3 41.3-3.9 60.2-7.7-75.8-75.8-151.6-151.6-227.4-227.4-4.2 19.9-6.9 39.8-8.4 59.5zM261.1 22.6c75.8 75.8 151.6 151.6 227.5 227.5 4.1-19.9 7-39.8 8.4-59.5-58.6-58.6-117.1-117.1-175.6-175.6-21.3 1.3-41.4 3.9-60.2 7.7z"/><path style="fill:var(--fa-primary-color,currentColor);opacity:var(--fa-primary-opacity,1)" d="M191.6 497.1c-42 2.5-88.7-.3-140.7-9l-21.6-3.6-4.4-21.5c-8.3-40.3-12.8-90-8.9-141.6L191.6 497.1zM488.5 250.1c-8 37.6-21.5 74.6-42.2 108.3-30.6 50-76.9 91.9-142.9 116.4-16.2 6-33.4 10.9-51.7 14.6L24.3 261.9c8-37.6 21.5-74.6 42.2-108.3 30.6-50 76.9-91.9 142.9-116.4 16.2-6 33.4-10.9 51.7-14.6L488.5 250.1zM126.5 288l97.9 97.9 33.9-33.9-97.9-97.9-33.9 33.9zm64-64l97.9 97.9 33.9-33.9-97.9-97.9-33.9 33.9zm64-64l97.9 97.9 33.9-33.9-97.9-97.9-33.9 33.9zM321.3 14.9c36.7-2.2 77.1-.4 121.4 5.9l19.2 3 21.6 3.6 4.4 21.5c8.3 40.3 12.8 90 8.9 141.6L321.3 14.9z"/></svg>