<svg xmlns="http://www.w3.org/2000/svg" viewBox="0 0 576 512"><!--! Font Awesome Pro 7.1.0 by @fontawesome - https://fontawesome.com License - https://fontawesome.com/license (Commercial License) Copyright 2025 Fonticons, Inc. --><path opacity=".4" fill="currentColor" d="M74.5 37.5c-50 50-50 131 0 181l68.9 68.9 87-87c-4.2-13.9-6.5-28.5-6.5-43.3 0-4.2 .2-8.4 .5-12.6L96 16 74.5 37.5zM320.6 336.6L512 528 560 480 399.5 319.5c-4.2 .4-8.4 .5-12.6 .5-14.8 0-29.4-2.2-43.3-6.5l-23 23z"/><path fill="currentColor" d="M440 8l16 16-104 104 16 16 112-96 16 16-96 112 16 16 104-104 16 16-70.5 123.4c-15.8 27.6-45.1 44.6-76.8 44.6-19.4 0-38.1-6.4-53.4-18L102.6 486.6 80 509.3 34.7 464 57.4 441.4 290 208.8c-11.6-15.3-18-34-18-53.4 0-31.8 17-61.1 44.6-76.8L440 8z"/></svg>