<svg xmlns="http://www.w3.org/2000/svg" viewBox="0 0 576 512"><!--! Font Awesome Pro 7.1.0 by @fontawesome - https://fontawesome.com License - https://fontawesome.com/license (Commercial License) Copyright 2025 Fonticons, Inc. --><path opacity=".4" fill="currentColor" d="M0 128l0 352 160 0 32-96 192 0 32 96 160 0 0-352-96-96-384 0-96 96zm80 72l56 0 0-56 48 0 0 56 56 0 0 48-56 0 0 56-48 0 0-56-56 0 0-48zm352 72a32 32 0 1 1 -64 0 32 32 0 1 1 64 0zm64-96a32 32 0 1 1 -64 0 32 32 0 1 1 64 0z"/><path fill="currentColor" d="M184 200l56 0 0 48-56 0 0 56-48 0 0-56-56 0 0-48 56 0 0-56 48 0 0 56zM400 304a32 32 0 1 1 0-64 32 32 0 1 1 0 64zm64-96a32 32 0 1 1 0-64 32 32 0 1 1 0 64z"/></svg>