<svg xmlns="http://www.w3.org/2000/svg" viewBox="0 0 512 512"><!--! Font Awesome Pro 7.1.0 by @fontawesome - https://fontawesome.com License - https://fontawesome.com/license (Commercial License) Copyright 2025 Fonticons, Inc. --><path opacity=".4" fill="currentColor" d="M0 299.7c0 57.7 39.3 106.2 92.7 120.2-27.2-25.8-44.7-62.4-44.7-107.9 0-28.7 4.4-50.6 11.6-69.4 6.2-16.3 14.3-29.9 21.3-41.7 .8-1.4 1.7-2.8 2.5-4.1 7.2-12.2 13.7-23.8 18.7-38.4L46.6 202.7C17.2 226.3 0 262 0 299.7zM96 312c0 64 50.3 104 112 104s112-40 112-104c0-39.5-13.6-58-32-83.1-1.1-1.5-2.2-3-3.4-4.6-10.3-14.1-21.8-30.6-30.5-52.7-8.7-22.2-14.2-49-14.2-83.6l0-88-80 0 0 112-.8 .6c-1.5 22.4-5.2 40.9-10.3 57-6.9 21.5-16 37.7-24.2 51.6l-2.5 4.1c-7.3 12.2-13.2 22.1-17.7 34.2-4.9 13-8.4 29.1-8.4 52.4zM264 448l0 64 48 0 0-64-48 0zM288 0l0 88c0 29.4 4.6 50 10.8 66 6.3 16.1 14.8 28.6 24.5 42 1.2 1.7 2.4 3.3 3.7 5 19.2 26 40.9 55.6 40.9 111 0 48-19.4 86-49.1 112l68.9 0c68.6 0 124.3-55.6 124.3-124.3 0-37.8-17.2-73.5-46.6-97L352 112 352 0 288 0z"/><path fill="currentColor" d="M136 488l0 24 48 0 0-24-48 0zm64 0l0 24 48 0 0-24-48 0zm64 0l0 24 48 0 0-24-48 0zm64 0l0 24 48 0 0-24-48 0zM136 448l0 40 48 0 0-40-48 0zm64 0l0 40 48 0 0-40-48 0zm64 0l0 40 48 0 0-40-48 0zm64 0l0 40 48 0 0-40-48 0z"/></svg>