<svg xmlns="http://www.w3.org/2000/svg" viewBox="0 0 512 512"><!--! Font Awesome Pro 7.1.0 by @fontawesome - https://fontawesome.com License - https://fontawesome.com/license (Commercial License) Copyright 2025 Fonticons, Inc. --><path opacity=".4" fill="currentColor" d="M0 256a256 256 0 1 0 512 0 256 256 0 1 0 -512 0zm128 0a32 32 0 1 1 -64 0 32 32 0 1 1 64 0zM288 96a32 32 0 1 1 -64 0 32 32 0 1 1 64 0zm112 48a32 32 0 1 1 -64 0 32 32 0 1 1 64 0zm48 112a32 32 0 1 1 -64 0 32 32 0 1 1 64 0z"/><path fill="currentColor" d="M250.9 288.2c1.7-.1 3.4-.2 5.1-.2 35.3 0 64 28.7 64 64s-28.7 64-64 64-64-28.7-64-64c0-16.2 6-31.1 16-42.3l-69.5-138.9 42.9-21.5 69.5 138.9z"/></svg>