<svg xmlns="http://www.w3.org/2000/svg" viewBox="0 0 512 512"><!--! Font Awesome Pro 7.1.0 by @fontawesome - https://fontawesome.com License - https://fontawesome.com/license (Commercial License) Copyright 2025 Fonticons, Inc. --><path opacity=".4" fill="currentColor" d="M512 256a256 256 0 1 1 -512 0 256 256 0 1 1 512 0zM192.3 345.5c-.2 2.1-.3 4.3-.3 6.5 0 35.3 28.7 64 64 64s64-28.7 64-64c0-3.7-.3-7.3-.9-10.8l117.5-72.8 20.4-12.6-25.3-40.8c-6.8 4.2-13.6 8.4-20.4 12.6-39.2 24.3-78.4 48.5-117.5 72.8-10.6-7.8-23.7-12.4-37.8-12.4-17.7 0-33.7 7.2-45.3 18.7-5.8 5.8-10.5 12.7-13.7 20.3-1.6 3.8-2.9 7.8-3.7 12-.4 2.1-.8 4.2-1 6.4z"/><path fill="currentColor" d="M411.4 227.6l20.4-12.6 25.3 40.8-20.4 12.6-117.5 72.8c.6 3.5 .9 7.1 .9 10.8 0 35.3-28.7 64-64 64s-64-28.7-64-64 28.7-64 64-64c14.1 0 27.2 4.6 37.8 12.4l117.5-72.8z"/></svg>