<svg xmlns="http://www.w3.org/2000/svg" viewBox="0 0 576 512"><!--! Font Awesome Pro 7.1.0 by @fontawesome - https://fontawesome.com License - https://fontawesome.com/license (Commercial License) Copyright 2025 Fonticons, Inc. --><path opacity=".4" fill="currentColor" d="M96 176l0 48 48 0 0 48-48 0 0 48 48 0 0 48-48 0 0 48 48 0 0 64 48 0 0-64 72 0 0 64 48 0 0-64 72 0 0 64 48 0 0-64 48 0 0-48-48 0 0-48 48 0 0-48-48 0 0-48 48 0 0-48-48 0 0-48-48 0 0 48-72 0 0-48-48 0 0 48-72 0 0-48-48 0 0 48-48 0zm96 48l72 0 0 48-72 0 0-48zm0 96l72 0 0 48-72 0 0-48zm120-96l72 0 0 48-72 0 0-48zm0 96l72 0 0 48-72 0 0-48z"/><path fill="currentColor" d="M576 480l-64 0 0-384-448 0 0 384-64 0 0-448 576 0 0 448z"/></svg>