<svg xmlns="http://www.w3.org/2000/svg" viewBox="0 0 512 512"><!--! Font Awesome Pro 7.1.0 by @fontawesome - https://fontawesome.com License - https://fontawesome.com/license (Commercial License) Copyright 2025 Fonticons, Inc. --><path opacity=".4" fill="currentColor" d="M0 288l0 224 96 0 0-224 32 0 0-128 48 0 0 128-32 0 0 224 224 0 0-224-32 0 0-128 48 0 0 128 32 0 0 224 96 0 0-224-48 0 0-128-48 0 0-160-48 0 0 32-40 0 0-32-48 0 0 32-48 0 0-32-48 0 0 32-40 0 0-32-48 0 0 160-48 0 0 128-48 0zm208 64l96 0 0 112-96 0 0-112zM224 96l64 0 0 64-64 0 0-64zm0 112l64 0 0 80-64 0 0-80z"/><path fill="currentColor" d="M288 96l-64 0 0 64 64 0 0-64zm96 64l-48 0 0 128 32 0 0 224 48 0 0-224-32 0 0-128zM96 288l0 224 48 0 0-224 32 0 0-128-48 0 0 128-32 0zm192-80l-64 0 0 80 64 0 0-80zM208 352l0 112 96 0 0-112-96 0z"/></svg>