<svg xmlns="http://www.w3.org/2000/svg" viewBox="0 0 448 512"><!--! Font Awesome Pro 7.0.1 by @fontawesome - https://fontawesome.com License - https://fontawesome.com/license (Commercial License) Copyright 2025 Fonticons, Inc. --><path style="fill:var(--fa-secondary-color,currentColor);opacity:var(--fa-secondary-opacity,.4)" d="M192 128a96 96 0 1 1 -192 0 96 96 0 1 1 192 0zm0 256a96 96 0 1 1 -192 0 96 96 0 1 1 192 0zM448 128a96 96 0 1 1 -192 0 96 96 0 1 1 192 0z"/><path style="fill:var(--fa-primary-color,currentColor);opacity:var(--fa-primary-opacity,1)" d="M376 288l0 72 72 0 0 48-72 0 0 72-48 0 0-72-72 0 0-48 72 0 0-72 48 0z"/></svg>