<svg xmlns="http://www.w3.org/2000/svg" viewBox="0 0 512 512"><!--! Font Awesome Pro 7.1.0 by @fontawesome - https://fontawesome.com License - https://fontawesome.com/license (Commercial License) Copyright 2025 Fonticons, Inc. --><path opacity=".4" fill="currentColor" d="M0 288l0 128 128 0 0-128-128 0zm192 0l0 128 128 0 0-128-128 0zm192 0l0 128 128 0 0-128-128 0z"/><path fill="currentColor" d="M128 224l0-128-128 0 0 128 128 0zM320 96l-128 0 0 128 128 0 0-128zm192 0l-128 0 0 128 128 0 0-128z"/></svg>