<svg xmlns="http://www.w3.org/2000/svg" viewBox="0 0 576 512"><!--! Font Awesome Pro 7.1.0 by @fontawesome - https://fontawesome.com License - https://fontawesome.com/license (Commercial License) Copyright 2025 Fonticons, Inc. --><path opacity=".4" fill="currentColor" d="M64 160l0 32 416 0 0-32-416 0zM218 376l54 0 0 40 48 0 0-128-48 0 0 40-42 0-12 48z"/><path fill="currentColor" d="M128 56l0-24-48 0 0 33.3c-45.4 7.6-80 47.1-80 94.7 0 50.4 38.8 91.7 88.1 95.7l-56.1 224.3 160 0 56-224 296 0 0-64 32 0 0-64-32 0 0-64-416 0 0-8zm352 72l0 64-416 0 0-64 416 0z"/></svg>