<svg xmlns="http://www.w3.org/2000/svg" viewBox="0 0 576 512"><!--! Font Awesome Pro 7.1.0 by @fontawesome - https://fontawesome.com License - https://fontawesome.com/license (Commercial License) Copyright 2025 Fonticons, Inc. --><path opacity=".4" fill="currentColor" d="M32 64l0 384 64 0 0-160 96 0 0 160 64 0 0-384-64 0 0 160-96 0 0-160-64 0z"/><path fill="currentColor" d="M320 64l216 0 0 64-152 0 0 80 48 0c66.3 0 120 53.7 120 120S498.3 448 432 448l-112 0 0-64 112 0c30.9 0 56-25.1 56-56s-25.1-56-56-56l-112 0 0-208z"/></svg>