<svg xmlns="http://www.w3.org/2000/svg" viewBox="0 0 640 512"><!--! Font Awesome Pro 7.1.0 by @fontawesome - https://fontawesome.com License - https://fontawesome.com/license (Commercial License) Copyright 2025 Fonticons, Inc. --><path opacity=".4" fill="currentColor" d="M32.1 128l0 128 336 0 0-224-240 0-96 96z"/><path fill="currentColor" d="M456.2-56l-48 0 0 88 48 0 0-88zm0 336l0-24-48 0 0 88 48 0 0-64zm152-112l24 0 0-48-88 0 0 48 64 0zM573.6 36.5l17-17-33.9-33.9c-23.6 23.6-61.3 61.3-62.2 62.2l33.9 33.9c9.4-9.4 24.5-24.5 45.3-45.3zM528.4 206.2l-33.9 33.9c23.6 23.6 61.3 61.3 62.2 62.2l33.9-33.9c-23.6-23.6-61.3-61.3-62.2-62.2zM184.1 256l0 288 80 0 0-288-80 0z"/></svg>