<svg xmlns="http://www.w3.org/2000/svg" viewBox="0 0 384 512"><!--! Font Awesome Pro 7.1.0 by @fontawesome - https://fontawesome.com License - https://fontawesome.com/license (Commercial License) Copyright 2025 Fonticons, Inc. --><path opacity=".4" fill="currentColor" d="M0 272l0 91c0 33.9 13.5 66.5 37.5 90.5l11.6 11.6c30 30 70.7 46.9 113.1 46.9l61.7 0c88.4 0 160-71.6 160-160l-96 0 0-32-64 0 0 64-144 0 0-32 112 0 0-80-192 0zM29.5 33.6C35.4 46.4 50.6 78.9 75 131.3l35.3-75.7C104.8 43.8 97.2 27.4 87.5 6.6l-58 27.1zM59.6 240l70.6 0 82.6-177 13.5-29-58-27.1-13.5 29-95.2 204.1zm105.9 0l26.4 0 0-9.4-11-23.7-15.4 33z"/><path fill="currentColor" d="M288 160l-64 0 0 128 64 0 0-128zm96 32l-64 0 0 128 64 0 0-128z"/></svg>