<svg xmlns="http://www.w3.org/2000/svg" viewBox="0 0 384 512"><!--! Font Awesome Pro 7.1.0 by @fontawesome - https://fontawesome.com License - https://fontawesome.com/license (Commercial License) Copyright 2025 Fonticons, Inc. --><path opacity=".4" fill="currentColor" d="M0 176l0 77.7c0 42.4 16.9 83.1 46.9 113.1l2.3 2.3c13.7 13.7 29.6 24.6 46.9 32.5l0 110.4 224 0 0-128c38.9-29.2 64-75.7 64-128l-96 0 0-32-64 0 0 64-144 0 0-32 112 0 0-80-192 0z"/><path fill="currentColor" d="M128 0l0 144 64 0 0-144-64 0zM96 32l-64 0 0 112 64 0 0-112zm192 0l-64 0 0 160 64 0 0-160zm96 64l-64 0 0 128 64 0 0-128z"/></svg>