<svg xmlns="http://www.w3.org/2000/svg" viewBox="0 0 576 512"><!--! Font Awesome Pro 7.1.0 by @fontawesome - https://fontawesome.com License - https://fontawesome.com/license (Commercial License) Copyright 2025 Fonticons, Inc. --><path opacity=".4" fill="currentColor" d="M.1 69.8l0 250.2 192 160 62.1 0c-3-3-11-11-24-24l33.9-33.9c7.3 7.3 26.6 26.6 57.9 57.9l62.1 0 14.3-11.9-398.3-398.3zm142 6.2l37.2 37.2 44.2-49.1-63.4 0-18 12zm71.2 71.2c22.6 22.6 45.2 45.2 67.8 67.8l31-31c34.8 34.5 99.3 98.5 193.6 192l70.4-56 0-288-112 64-48-32-128 0c-24.9 27.7-49.9 55.4-74.8 83.1z"/><path fill="currentColor" d="M32.3-33.8l17 17 512 512 17 17-33.9 33.9-17-17-512-512-17-17 33.9-33.9z"/></svg>