<svg xmlns="http://www.w3.org/2000/svg" viewBox="0 0 640 512"><!--! Font Awesome Pro 7.1.0 by @fontawesome - https://fontawesome.com License - https://fontawesome.com/license (Commercial License) Copyright 2025 Fonticons, Inc. --><path opacity=".4" fill="currentColor" d="M31.9 384l99.9 0-27.4 128 65.5 0 27.4-128 126.5 0-27.4 128 65.5 0 6.1-28.6 0-179.4 32 0c0-26.4 8-51 21.7-71.4l8.7-40.6 35.6 0c18.4-10.2 39.5-16 62-16 1.9 0 3.8 0 5.8 .1l10.3-48.1-99.9 0 27.4-128-65.5 0-27.4 128-126.5 0 27.4-128-65.5 0-27.4 128-99.9 0-13.7 64 99.9 0-27.4 128-99.9 0-13.7 64zM211 320l27.4-128 126.5 0-27.4 128-126.5 0z"/><path fill="currentColor" d="M496 304l0 48 64 0 0-48c0-17.7-14.3-32-32-32s-32 14.3-32 32zm-48 48l0-48c0-44.2 35.8-80 80-80s80 35.8 80 80l0 48 32 0 0 192-224 0 0-192 32 0z"/></svg>