<svg xmlns="http://www.w3.org/2000/svg" viewBox="0 0 512 512"><!--! Font Awesome Pro 7.1.0 by @fontawesome - https://fontawesome.com License - https://fontawesome.com/license (Commercial License) Copyright 2025 Fonticons, Inc. --><path opacity=".4" fill="currentColor" d="M0 224c0-10.9 .8-21.5 2.3-32l266.6 0c16.6 28.7 47.6 48 83.2 48l130.7 0 13.3 16 0 64-64 0 0 128-112 0 0 64-256 0 0-131.2C24.4 340.4 0 285 0 224zM40.1 96C80.6 38 147.9 0 224 0 276.3 0 324.5 17.9 362.6 48L352 48c-35.5 0-66.6 19.3-83.2 48L40.1 96z"/><path fill="currentColor" d="M268.8 192L0 192 0 96 268.8 96c16.6-28.7 47.6-48 83.2-48l160 0 0 192-160 0c-35.5 0-66.6-19.3-83.2-48z"/></svg>