<svg xmlns="http://www.w3.org/2000/svg" viewBox="0 0 576 512"><!--! Font Awesome Pro 7.1.0 by @fontawesome - https://fontawesome.com License - https://fontawesome.com/license (Commercial License) Copyright 2025 Fonticons, Inc. --><path opacity=".4" fill="currentColor" d="M134 512l154.2-154.2 0 154.2-154.2 0zM408.1 384a24 24 0 1 1 -48 0 24 24 0 1 1 48 0zm64-48a24 24 0 1 1 -48 0 24 24 0 1 1 48 0zm0 96a24 24 0 1 1 -48 0 24 24 0 1 1 48 0zm64-144a24 24 0 1 1 -48 0 24 24 0 1 1 48 0zm0 96a24 24 0 1 1 -48 0 24 24 0 1 1 48 0zm0 96a24 24 0 1 1 -48 0 24 24 0 1 1 48 0z"/><path fill="currentColor" d="M527-16.9l17-17 33.9 33.9-17 17-512 512-17 17-33.9-33.9C9.3 500.8 20.7 489.4 32.1 478l0-472.8C47.6 1.8 63.7 0 80.1 0 194.5 0 288.8 85.7 302.4 196.4l5.1 6.2 219.4-219.4zM208.1 192a32 32 0 1 0 -64 0 32 32 0 1 0 64 0z"/></svg>