<svg xmlns="http://www.w3.org/2000/svg" viewBox="0 0 512 512"><!--! Font Awesome Pro 7.1.0 by @fontawesome - https://fontawesome.com License - https://fontawesome.com/license (Commercial License) Copyright 2025 Fonticons, Inc. --><path opacity=".4" fill="currentColor" d="M0 224c0 61 24.4 116.4 64 156.8l0 131.2 256 0 0-64 112 0 0-128 64 0 0-64-49.7-59.6C432.7 85.7 338.4 0 224 0 100.3 0 0 100.3 0 224zm136-32l56 0 0-56 64 0 0 56 56 0 0 64-56 0 0 56-64 0 0-56-56 0 0-64z"/><path fill="currentColor" d="M256 136l-64 0 0 56-56 0 0 64 56 0 0 56 64 0 0-56 56 0 0-64-56 0 0-56z"/></svg>