<svg xmlns="http://www.w3.org/2000/svg" viewBox="0 0 576 512"><!--! Font Awesome Pro 7.1.0 by @fontawesome - https://fontawesome.com License - https://fontawesome.com/license (Commercial License) Copyright 2025 Fonticons, Inc. --><path opacity=".4" fill="currentColor" d="M0 165.1c0 136.8 153.5 260.1 256 330.9 2.3-1.6 4.6-3.2 7-4.8-14.7-27.1-23-58.2-23-91.2 0-106 86-192 192-192 25.3 0 49.4 4.9 71.5 13.8 5.5-18.5 8.5-37.5 8.5-56.6 0-73.5-59.6-133.1-133.1-133.1-42.7 0-82.8 20.5-107.9 55.1l-15 20.7-15-20.7C216 52.5 175.8 32 133.1 32 59.6 32 0 91.6 0 165.1z"/><path fill="currentColor" d="M432 544a144 144 0 1 0 0-288 144 144 0 1 0 0 288zm60.9-182.6l-64 88-11 15.1c-4.4-4.4-22.1-22.1-53.2-53.2L353.4 400 376 377.4c5 5 17.7 17.7 38.1 38.1l53-72.9 9.4-12.9 25.9 18.8-9.4 12.9z"/></svg>