<svg xmlns="http://www.w3.org/2000/svg" viewBox="0 0 576 512"><!--! Font Awesome Pro 7.1.0 by @fontawesome - https://fontawesome.com License - https://fontawesome.com/license (Commercial License) Copyright 2025 Fonticons, Inc. --><path opacity=".4" fill="currentColor" d="M13.5 256.1l6.8 11.9 123.7 216.1 6.9 12.1 275.1 0 6.9-12.1 123.7-216.1 6.8-11.9-6.8-11.9-123.7-216.1-6.9-12.1-275.1 0-6.9 12.1-123.7 216.1-6.8 11.9zm163-24.1l88 0 0-88 48 0 0 88 88 0 0 48-88 0 0 88-48 0 0-88-88 0 0-48z"/><path fill="currentColor" d="M264.5 344l0 24 48 0 0-88 88 0 0-48-88 0 0-88-48 0 0 88-88 0 0 48 88 0 0 64z"/></svg>