<svg xmlns="http://www.w3.org/2000/svg" viewBox="0 0 576 512"><!--! Font Awesome Pro 7.1.0 by @fontawesome - https://fontawesome.com License - https://fontawesome.com/license (Commercial License) Copyright 2025 Fonticons, Inc. --><path opacity=".4" fill="currentColor" d="M13.5 256.1l6.8-11.9 123.7-216.1 6.9-12.1 275.1 0 6.9 12.1 123.7 216.1 6.8 11.9-6.8 11.9-123.7 216.1-6.9 12.1-275.1 0-6.9-12.1-123.7-216.1-6.8-11.9zm124.2 88.3L188 432.1c101.4 .1 168.3-.1 201-.1l38.7-67.5-85.8-140.5-76.7 125.6-65.5-93.6-61.8 88.3zM176.5 160a48 48 0 1 0 96 0 48 48 0 1 0 -96 0z"/><path fill="currentColor" d="M427.6 364.5l-85.8-140.5-76.7 125.6-65.5-93.6-61.8 88.3 50.2 87.8 134.8 0-.1-.1 66.2 0 38.7-67.5z"/></svg>