<svg xmlns="http://www.w3.org/2000/svg" viewBox="0 0 448 512"><!--! Font Awesome Pro 7.1.0 by @fontawesome - https://fontawesome.com License - https://fontawesome.com/license (Commercial License) Copyright 2025 Fonticons, Inc. --><path opacity=".4" fill="currentColor" d="M0 160c0 70.7 57.3 128 128 128l320 0 0-64-320 0c-35.3 0-64-28.7-64-64s28.7-64 64-64l160 0 0-64-160 0C57.3 32 0 89.3 0 160zM0 336l0 64 448 0 0-64-448 0zM0 448l0 64 448 0 0-64-448 0z"/><path fill="currentColor" d="M288 128l0-128 48 0 0 26.3 64 9.1 0-11.4 48 0 0 80-48 0 0-11.4-64 9.1 0 26.3-48 0z"/></svg>