<svg xmlns="http://www.w3.org/2000/svg" viewBox="0 0 384 512"><!--! Font Awesome Pro 7.1.0 by @fontawesome - https://fontawesome.com License - https://fontawesome.com/license (Commercial License) Copyright 2025 Fonticons, Inc. --><path opacity=".4" fill="currentColor" d="M32 64c21.3 0 106.6 0 256 0l64 0 0 77.3-9.4 9.4-105.4 105.4 114.7 114.7 0 77.3-64 0 0-50.7-96-96-96 96 0 50.7-64 0 0-77.3 9.4-9.4 105.4-105.4-105.4-105.4-9.4-9.4 0-77.3z"/><path fill="currentColor" d="M32 512l-32 0 0-64 384 0 0 64-352 0zM32 64L0 64 0 0 384 0 384 64 32 64z"/></svg>