<svg xmlns="http://www.w3.org/2000/svg" viewBox="0 0 640 512"><!--! Font Awesome Pro 7.1.0 by @fontawesome - https://fontawesome.com License - https://fontawesome.com/license (Commercial License) Copyright 2025 Fonticons, Inc. --><path opacity=".4" fill="currentColor" d="M32 224l0 48 48 0 0 240 260 0c-21.2-29.5-34.3-65.3-35.9-104l-48.2 0 0-56-56 0 0-64 56 0 0-56 64 0 0 56 20 0c34.9-48.5 91.7-80 156-80 11.7 0 23.1 1 34.2 3L288-16 32 224z"/><path fill="currentColor" d="M352 400a144 144 0 1 1 288 0 144 144 0 1 1 -288 0zm210.6-44L540 333.4c-4 4-18.6 18.6-44 44-25.3-25.4-40-40-44-44L429.4 356c4 4 18.6 18.6 44 44-25.4 25.3-40 40-44 44L452 466.6c4-4 18.6-18.6 44-44 25.3 25.4 40 40 44 44L562.6 444c-4-4-18.6-18.6-44-44 25.4-25.3 40-40 44-44z"/></svg>