<svg xmlns="http://www.w3.org/2000/svg" viewBox="0 0 576 512"><!--! Font Awesome Pro 7.1.0 by @fontawesome - https://fontawesome.com License - https://fontawesome.com/license (Commercial License) Copyright 2025 Fonticons, Inc. --><path opacity=".4" fill="currentColor" d="M0 320l96 0 0-112-73.4 0C8 242.4 0 280.3 0 320zm0 48l0 112 224 0 0-176 128 0 0 176 224 0 0-112-176 0 0-48 32 0 0-112-288 0 0 112 32 0 0 48-176 0zM48.5 160l271.5 0 0-126.2c-10.5-1.2-21.2-1.8-32-1.8-99.9 0-187.8 50.8-239.5 128zM368 43.3l0 116.7 159.5 0C490.2 104.3 434 62.3 368 43.3zM480 208l0 112 96 0c0-39.7-8-77.6-22.6-112L480 208z"/><path fill="currentColor" d="M320 33.8c16.5 1.8 32.5 5 48 9.5l0 116.7 159.5 0c10.1 15.1 18.8 31.1 25.9 48l-73.4 0 0 112 96 0 0 48-176 0 0-48 32 0 0-112-288 0 0 112 32 0 0 48-176 0 0-48 96 0 0-112-73.4 0c7.1-16.9 15.8-32.9 25.9-48l271.5 0 0-126.2zM352 304l0 176-128 0 0-176 128 0z"/></svg>