<svg xmlns="http://www.w3.org/2000/svg" viewBox="0 0 640 512"><!--! Font Awesome Pro 7.1.0 by @fontawesome - https://fontawesome.com License - https://fontawesome.com/license (Commercial License) Copyright 2025 Fonticons, Inc. --><path opacity=".4" fill="currentColor" d="M64 32l448 0 0 144.7c-5.3-.4-10.6-.7-16-.7-56 0-106.3 23.9-141.4 62.2L336 208 254.1 341.1 208 272 112 416 310 416c6 23.3 16.3 45 30 64L64 480 64 32zm80 128a48 48 0 1 0 96 0 48 48 0 1 0 -96 0z"/><path fill="currentColor" d="M352 368a144 144 0 1 1 288 0 144 144 0 1 1 -288 0zm210.6-44L540 301.4c-4 4-18.6 18.6-44 44-25.3-25.4-40-40-44-44L429.4 324c4 4 18.6 18.6 44 44-25.4 25.3-40 40-44 44L452 434.6c4-4 18.6-18.6 44-44 25.3 25.4 40 40 44 44L562.6 412c-4-4-18.6-18.6-44-44 25.4-25.3 40-40 44-44z"/></svg>