<svg xmlns="http://www.w3.org/2000/svg" viewBox="0 0 512 512"><!--! Font Awesome Pro 7.1.0 by @fontawesome - https://fontawesome.com License - https://fontawesome.com/license (Commercial License) Copyright 2025 Fonticons, Inc. --><path opacity=".4" fill="currentColor" d="M0 288l32-256 448 0 32 256 0 192-512 0 0-192zm64.5 0l79.5 0 32 64 160 0 32-64 79.5 0-24-192-335 0-24 192z"/><path fill="currentColor" d="M256 329.9c3.5-3.5 30.5-30.5 81-81l17-17-33.9-33.9c-10.3 10.3-23.6 23.6-40 40l0-110.1-48 0 0 110.1c-16.4-16.4-29.7-29.7-40-40L158.1 232c3.5 3.5 30.5 30.5 81 81l17 17z"/></svg>