<svg xmlns="http://www.w3.org/2000/svg" viewBox="0 0 448 512"><!--! Font Awesome Pro 7.0.1 by @fontawesome - https://fontawesome.com License - https://fontawesome.com/license (Commercial License) Copyright 2025 Fonticons, Inc. --><path style="fill:var(--fa-secondary-color,currentColor);opacity:var(--fa-secondary-opacity,.4)" d="M192 219.4c5 1.5 10.2 2.7 15.5 3.4S218.2 224 224 224c11.1 0 21.9-1.6 32-4.6l0 132.6-64 0 0-132.6z"/><path style="fill:var(--fa-primary-color,currentColor);opacity:var(--fa-primary-opacity,1)" d="M336 112a112 112 0 1 0 -224 0 112 112 0 1 0 224 0zM176 72a24 24 0 1 1 48 0 24 24 0 1 1 -48 0zM448 512l0-160-448 0 0 160 448 0z"/></svg>