<svg xmlns="http://www.w3.org/2000/svg" viewBox="0 0 448 512"><!--! Font Awesome Pro 7.0.1 by @fontawesome - https://fontawesome.com License - https://fontawesome.com/license (Commercial License) Copyright 2025 Fonticons, Inc. --><path style="fill:var(--fa-secondary-color,currentColor);opacity:var(--fa-secondary-opacity,.4)" d="M2.7 400c8.2 8.2 37.1 37.1 86.6 86.6l22.6 22.6 45.3-45.3-64-64 18.7-18.7c30.7 30.7 52 52 64 64L221.3 400c-12-12-33.3-33.3-64-64l70.1-70.1c-18.3-11.5-33.8-27-45.3-45.3L25.4 377.4 2.7 400z"/><path style="fill:var(--fa-primary-color,currentColor);opacity:var(--fa-primary-opacity,1)" d="M304 64a80 80 0 1 1 0 160 80 80 0 1 1 0-160zm0 224a144 144 0 1 0 0-288 144 144 0 1 0 0 288z"/></svg>