<svg xmlns="http://www.w3.org/2000/svg" viewBox="0 0 640 512"><!--! Font Awesome Pro 7.1.0 by @fontawesome - https://fontawesome.com License - https://fontawesome.com/license (Commercial License) Copyright 2025 Fonticons, Inc. --><path opacity=".4" fill="currentColor" d="M0 128l0 48 72 0 0 78 24 10 24-10 0-126-120 0zM72 290l0 222 57.9 0 134.8-134.8-40.7 6.8 6.8-40.8-110.8 110.8 0-164.1-24-10-24 10zm219.7-2l28.3 28.3 14.2-14.1 113.8-113.8 65.8 65.8 14.2 14.1 28.3-28.3-14.1-14.2-65.8-65.8 49.8-49.8 14.1-14.2-28.3-28.3-14.2 14.1-49.8 49.8-65.8-65.8-14.2-14.1-28.3 28.3 14.1 14.2 65.8 65.8-113.8 113.8-14.1 14.2z"/><path fill="currentColor" d="M608 320l-384 64 64-384 320 0 0 320zm-416 0l-96-40-96 40 0-96 96 40 96-40 0 96zM339.7 80l14.1 14.2 65.8 65.8-113.8 113.8-14.1 14.2 28.3 28.3 14.2-14.1 113.8-113.8 65.8 65.8 14.2 14.1 28.3-28.3-14.1-14.2-65.8-65.8 49.8-49.8 14.1-14.2-28.3-28.3-14.2 14.1-49.8 49.8-65.8-65.8-14.2-14.1-28.3 28.3z"/></svg>