<svg xmlns="http://www.w3.org/2000/svg" viewBox="0 0 448 512"><!--! Font Awesome Pro 7.1.0 by @fontawesome - https://fontawesome.com License - https://fontawesome.com/license (Commercial License) Copyright 2025 Fonticons, Inc. --><path opacity=".4" fill="currentColor" d="M0 176c0 79.5 100.3 144 224 144S448 255.5 448 176 347.7 32 224 32 0 96.5 0 176zm64-16l64 0 0 32-64 0 0-32zm41.4-56L128 81.4c16.2 16.2 36.1 36.1 38.6 38.6L144 142.6c-16.2-16.2-36.1-36.1-38.6-38.6zm0 144c16.2-16.2 36.1-36.1 38.6-38.6L166.6 232c-16.2 16.2-36.1 36.1-38.6 38.6L105.4 248zM168 176c0-13.3 25.1-24 56-24s56 10.7 56 24-25.1 24-56 24-56-10.7-56-24zM208 64l32 0 0 56-32 0 0-56zm0 168l32 0 0 56-32 0 0-56zm73.4-112c16.2-16.2 36.1-36.1 38.6-38.6L342.6 104c-16.2 16.2-36.1 36.1-38.6 38.6L281.4 120zm0 112L304 209.4c16.2 16.2 36.1 36.1 38.6 38.6L320 270.6c-16.2-16.2-36.1-36.1-38.6-38.6zM320 160l64 0 0 32-64 0 0-32z"/><path fill="currentColor" d="M240 64l-32 0 0 56 32 0 0-56zM128 81.4L105.4 104c16.2 16.2 36.1 36.1 38.6 38.6L166.6 120c-16.2-16.2-36.1-36.1-38.6-38.6zM342.6 104L320 81.4c-16.2 16.2-36.1 36.1-38.6 38.6L304 142.6c16.2-16.2 36.1-36.1 38.6-38.6zM64 160l0 32 64 0 0-32-64 0zm256 0l0 32 64 0 0-32-64 0zM166.6 232L144 209.4c-16.2 16.2-36.1 36.1-38.6 38.6L128 270.6c16.2-16.2 36.1-36.1 38.6-38.6zM304 209.4L281.4 232c16.2 16.2 36.1 36.1 38.6 38.6L342.6 248c-16.2-16.2-36.1-36.1-38.6-38.6zM240 232l-32 0 0 56 32 0 0-56zM224 480c123.7 0 224-100.3 224-224l0-80c0 79.5-100.3 144-224 144S0 255.5 0 176l0 80C0 379.7 100.3 480 224 480z"/></svg>