<svg xmlns="http://www.w3.org/2000/svg" viewBox="0 0 576 512"><!--! Font Awesome Pro 7.0.1 by @fontawesome - https://fontawesome.com License - https://fontawesome.com/license (Commercial License) Copyright 2025 Fonticons, Inc. --><path style="fill:var(--fa-secondary-color,currentColor);opacity:var(--fa-secondary-opacity,.4)" d="M0 334.9l159.5 51.5-15.5 77.6 112-37.3 0-234.7 64 0 0 234.8 109.8 37.2-13.4-77.6 159.6-51.5-29.1-50.4 19-71-70.9-19-29.2-50.5-80.4 72.6 30.6-152.6-64 0-64-80-64 80-64 0 30.6 152.7-80.4-72.7-29.1 50.5-70.9 19 19 71-29.1 50.4z"/><path style="fill:var(--fa-primary-color,currentColor);opacity:var(--fa-primary-opacity,1)" d="M320 544l-64 0 0-352 64 0 0 352z"/></svg>