<svg xmlns="http://www.w3.org/2000/svg" viewBox="0 0 576 512"><!--! Font Awesome Pro 7.0.1 by @fontawesome - https://fontawesome.com License - https://fontawesome.com/license (Commercial License) Copyright 2025 Fonticons, Inc. --><path style="fill:var(--fa-secondary-color,currentColor);opacity:var(--fa-secondary-opacity,.4)" d="M0 192c0 71.1 38.6 133.1 96 166.3l0 25.7 144 0 0-144 138 0c3.9-15.3 6-31.4 6-48 0-106-86-192-192-192S0 86 0 192zm64-8c0-66.3 53.7-120 120-120l8 0 0 48-8 0c-39.8 0-72 32.2-72 72l0 8-48 0 0-8zM96 432l0 96 144 0 0-96-144 0z"/><path style="fill:var(--fa-primary-color,currentColor);opacity:var(--fa-primary-opacity,1)" d="M288 288l288 0 0 224-96 0-48 64-48-64-96 0 0-224z"/></svg>