<svg xmlns="http://www.w3.org/2000/svg" viewBox="0 0 384 512"><!--! Font Awesome Pro 7.1.0 by @fontawesome - https://fontawesome.com License - https://fontawesome.com/license (Commercial License) Copyright 2025 Fonticons, Inc. --><path opacity=".4" fill="currentColor" d="M0 192c0 71.1 38.6 133.1 96 166.3l0 57.7 192 0 0-57.7c57.4-33.2 96-95.2 96-166.3 0-106-86-192-192-192S0 86 0 192zM160 80l64 0-12.8 144-38.4 0-12.8-144zm4 180l56 0 0 56-56 0 0-56z"/><path fill="currentColor" d="M288 528l-192 0 0-112 192 0 0 112zM220 316l-56 0 0-56 56 0 0 56zm-8.8-92l-38.4 0-12.8-144 64 0-12.8 144z"/></svg>