<svg xmlns="http://www.w3.org/2000/svg" viewBox="0 0 576 512"><!--! Font Awesome Pro 7.1.0 by @fontawesome - https://fontawesome.com License - https://fontawesome.com/license (Commercial License) Copyright 2025 Fonticons, Inc. --><path opacity=".4" fill="currentColor" d="M160 224l256 0 0 64-256 0 0-64z"/><path fill="currentColor" d="M192 64C86 64 0 150 0 256S86 448 192 448l64 0 0-64-64 0c-70.7 0-128-57.3-128-128s57.3-128 128-128l64 0 0-64-64 0zm192 0l-64 0 0 64 64 0c70.7 0 128 57.3 128 128S454.7 384 384 384l-64 0 0 64 64 0c106 0 192-86 192-192S490 64 384 64z"/></svg>