<svg xmlns="http://www.w3.org/2000/svg" viewBox="0 0 576 512"><!--! Font Awesome Pro 7.1.0 by @fontawesome - https://fontawesome.com License - https://fontawesome.com/license (Commercial License) Copyright 2025 Fonticons, Inc. --><path opacity=".4" fill="currentColor" d="M.1 323.5c0 86.4 70 156.5 156.5 156.5 37.2 0 73.1-13.3 101.3-37.2-20.3-10.1-38.8-23.5-54.6-39.5-14 8.2-30.1 12.6-46.7 12.6-51.1 0-92.5-41.4-92.5-92.5 0-24.5 9.7-48 27.1-65.4l48.6-48.6-45.3-45.3-48.6 48.6C16.6 242.3 .1 282.1 .1 323.5zm192-61.7L346.3 416c-84.6-1.2-152.9-69.6-154.1-154.1z"/><path fill="currentColor" d="M32.3-33.8l17 17 123 123c17.5-6.6 36.3-10.1 55.4-10.1 86.6 0 156.5 70.6 156.5 156.9 0 .7 0 10.3 0 11.9l-.6 23.2-29.3 0 47.3 47.3c4.4-3.1 8.6-6.6 12.4-10.4L485 253.8c17.3-17.3 27.1-40.9 27.1-65.4 0-51.1-41.4-92.5-92.5-92.5-16.6 0-32.7 4.5-46.8 12.7-15.8-16-34.2-29.4-54.5-39.5 28.2-23.9 64.1-37.2 101.3-37.2 86.4 0 156.5 70 156.5 156.5 0 41.5-16.5 81.3-45.8 110.6l-71.1 71.1c-3.8 3.8-7.9 7.5-12 10.8l114.1 114.1 17 17-33.9 33.9-17-17-512-512-17-17 33.9-33.9zM320.1 254l0-1.1c0-51.2-41.5-92.9-92.5-92.9-.5 0-1 0-1.5 0l93.9 94z"/></svg>