<svg xmlns="http://www.w3.org/2000/svg" viewBox="0 0 576 512"><!--! Font Awesome Pro 7.1.0 by @fontawesome - https://fontawesome.com License - https://fontawesome.com/license (Commercial License) Copyright 2025 Fonticons, Inc. --><path opacity=".4" fill="currentColor" d="M.1 256c0 106 86 192 192 192l64 0 0-64-64 0c-70.7 0-128-57.3-128-128 0-33.9 13.2-64.7 34.6-87.6L53.5 123.2C20.4 157.7 .1 204.5 .1 256z"/><path fill="currentColor" d="M32.3-33.8l17 17 88.6 88.6c17.2-5 35.4-7.8 54.2-7.8l64 0 0 64-62 0 96 96 126 0 0 64-62 0 84 84c43.7-20.4 73.9-64.7 73.9-116 0-70.7-57.3-128-128-128l-64 0 0-64 64 0c106 0 192 86 192 192 0 68.9-36.3 129.3-90.8 163.2 60.5 60.5 91.4 91.4 92.9 92.9l-33.9 33.9-17-17-512-512-17-17 33.9-33.9z"/></svg>