<svg xmlns="http://www.w3.org/2000/svg" viewBox="0 0 576 512"><!--! Font Awesome Pro 7.1.0 by @fontawesome - https://fontawesome.com License - https://fontawesome.com/license (Commercial License) Copyright 2025 Fonticons, Inc. --><path opacity=".4" fill="currentColor" d="M0 256l96 0 87.5 43.7c26.7 13.3 56.1 20.3 85.9 20.3l31.7 0c33.4 0 66.2-8.7 95.3-25.3l67.7-38.7 112 0-92.8 111.4C440.6 418.5 377.6 448 311.1 448l-46.2 0c-66.5 0-129.5-29.5-172.1-80.6L0 256z"/><path fill="currentColor" d="M0 256L114.5 118.6C143.3 84 186.1 64 231.1 64L288 102.4 344.9 64c45.1 0 87.8 20 116.6 54.6l114.5 137.4-112 0-80-64-96 32-96-32-96 64-96 0z"/></svg>