<svg xmlns="http://www.w3.org/2000/svg" viewBox="0 0 512 512"><!--! Font Awesome Pro 7.1.0 by @fontawesome - https://fontawesome.com License - https://fontawesome.com/license (Commercial License) Copyright 2025 Fonticons, Inc. --><path opacity=".4" fill="currentColor" d="M169.4 80l59.3 59.3 4.7 4.7 214.6 0 0-128-214.6 0-4.7 4.7-59.3 59.3zm0 176c1.4 1.4 21.2 21.2 59.3 59.3l4.7 4.7 278.6 0 0-128-278.6 0-4.7 4.7-59.3 59.3zm0 176c1.4 1.4 21.2 21.2 59.3 59.3l4.7 4.7 214.6 0 0-128-214.6 0-4.7 4.7c-38.1 38.1-57.9 57.9-59.3 59.3z"/><path fill="currentColor" d="M80 128a48 48 0 1 0 0-96 48 48 0 1 0 0 96zm48 128a48 48 0 1 0 -96 0 48 48 0 1 0 96 0zm0 176a48 48 0 1 0 -96 0 48 48 0 1 0 96 0z"/></svg>