<svg xmlns="http://www.w3.org/2000/svg" viewBox="0 0 384 512"><!--! Font Awesome Pro 7.0.0 by @fontawesome - https://fontawesome.com License - https://fontawesome.com/license (Commercial License) Copyright 2025 Fonticons, Inc. --><path style="fill:var(--fa-secondary-color,currentColor);opacity:var(--fa-secondary-opacity,.4)" d="M0 188.6C0 84.4 86 0 192 0S384 84.4 384 188.6C384 339.4 192 528 192 528S0 339.4 0 188.6zm94.4 22.6c4 5.3 24.8 33.1 62.4 83.2 2.4 3.2 4.8 6.4 7.2 9.6l25.3 0c2.4-3.8 4.7-7.5 7-11.3 26.7-42.7 53.3-85.3 80-128 4.2-6.8 8.5-13.6 12.7-20.4l-40.7-25.4c-.4 .6-25.1 40.1-74.2 118.7-20.1-26.8-33.9-45.2-41.4-55.2-12.8 9.6-25.6 19.2-38.4 28.8z"/><path style="fill:var(--fa-primary-color,currentColor);opacity:var(--fa-primary-opacity,1)" d="M276.4 164.7l12.7-20.4-40.7-25.4c-.4 .6-25.1 40.1-74.2 118.7-20.1-26.8-33.9-45.2-41.4-55.2L94.4 211.2c4 5.3 24.8 33.1 62.4 83.2l7.2 9.6 25.3 0 7-11.3 80-128z"/></svg>