<svg xmlns="http://www.w3.org/2000/svg" viewBox="0 0 384 512"><!--! Font Awesome Pro 7.1.0 by @fontawesome - https://fontawesome.com License - https://fontawesome.com/license (Commercial License) Copyright 2025 Fonticons, Inc. --><path opacity=".4" fill="currentColor" d="M0 188.6C0 339.4 192 528 192 528S384 339.4 384 188.6C384 84.4 298 0 192 0S0 84.4 0 188.6zm86.1 55.6l34.5-33.3c9.5 9.8 23.9 24.7 43.2 44.7l85.6-117.7 14.1-19.4 38.8 28.2-14.1 19.4-102.4 140.8-16.8 23.1c-8.8-9.1-30.9-32-66.2-68.6L86.1 244.2z"/><path fill="currentColor" d="M302.3 146.7L288.2 166.1 185.8 306.9 169 330c-8.8-9.1-30.9-32-66.2-68.6l-16.7-17.2 34.5-33.3c9.5 9.8 23.9 24.7 43.2 44.7l85.6-117.7 14.1-19.4 38.8 28.2z"/></svg>