<svg xmlns="http://www.w3.org/2000/svg" viewBox="0 0 384 512"><!--! Font Awesome Pro 7.1.0 by @fontawesome - https://fontawesome.com License - https://fontawesome.com/license (Commercial License) Copyright 2025 Fonticons, Inc. --><path opacity=".4" fill="currentColor" d="M0 160l0 352 384 0 0-352-64 0 0-64c0-70.7-57.3-128-128-128S64 25.3 64 96l0 64-64 0zM73.5 448l96.6-217.7c1-2.3 2.4-4.4 4-6.3l35.8 0c1.6 1.8 3 3.9 4.1 6.3l96.6 217.7-52.5 0-21.3-48-89.4 0-21.3 48-52.5 0zM128 96c0-35.3 28.7-64 64-64s64 28.7 64 64l0 64-128 0 0-64zm40.6 256l46.8 0-23.4-52.8-23.4 52.8z"/><path fill="currentColor" d="M174.1 224c-1.6 1.8-3 3.9-4 6.3l-96.6 217.7 52.5 0 21.3-48 89.4 0 21.3 48 52.5 0-96.6-217.7c-1-2.3-2.4-4.4-4.1-6.3l-35.8 0zm41.3 128l-46.8 0 23.4-52.8 23.4 52.8z"/></svg>