<svg xmlns="http://www.w3.org/2000/svg" viewBox="0 0 576 512"><!--! Font Awesome Pro 7.1.0 by @fontawesome - https://fontawesome.com License - https://fontawesome.com/license (Commercial License) Copyright 2025 Fonticons, Inc. --><path opacity=".4" fill="currentColor" d="M32.3 208c0 114.9 93.1 208 208 208 45.9 0 88.3-14.9 122.7-40l126.7 126.7 22.6 22.6 45.3-45.3-22.6-22.6-126.7-126.7c25.2-34.4 40-76.8 40-122.7 0-114.9-93.1-208-208-208s-208 93.1-208 208zm112 56c0-30.9 28.7-56 64-56 5.5 0 10.9 .6 16 1.8l0-113.8 96 0 0 64-48 0 0 104c0 30.9-28.7 56-64 56s-64-25.1-64-56z"/><path fill="currentColor" d="M224.3 96l96 0 0 64-48 0 0 104c0 30.9-28.7 56-64 56s-64-25.1-64-56 28.7-56 64-56c5.5 0 10.9 .6 16 1.8l0-113.8z"/></svg>