<svg xmlns="http://www.w3.org/2000/svg" viewBox="0 0 512 512"><!--! Font Awesome Pro 7.1.0 by @fontawesome - https://fontawesome.com License - https://fontawesome.com/license (Commercial License) Copyright 2025 Fonticons, Inc. --><path opacity=".4" fill="currentColor" d="M64.1 212.1c0 1.3-.1 2.6-.1 3.9 0 25.9 6.8 50.1 18.8 71.1-11.4-22.6-18.1-48-18.7-75zM128 208c0 61.9 50.1 112 112 112 60.6 0 109.9-48.1 111.9-108.3-.6-21.3-5.9-41.4-14.8-59.4-19.3-33.7-55.6-56.3-97.2-56.3-61.9 0-112 50.1-112 112z"/><path fill="currentColor" d="M336-64l176 0 0 176-64 0 0-66.7-63 63c19.5 28.4 31 62.7 31 99.8 0 86.3-62.1 158.1-144 173.1l0 34.9 64 0 0 64-64 0 0 64-64 0 0-64-64 0 0-64 64 0 0-34.9c-81.9-15-144-86.8-144-173.1 0-97.2 78.8-176 176-176 37 0 71.4 11.4 99.8 31l63-63-66.7 0 0-64zm16 272a112 112 0 1 0 -224 0 112 112 0 1 0 224 0z"/></svg>