<svg xmlns="http://www.w3.org/2000/svg" viewBox="0 0 640 512"><!--! Font Awesome Pro 7.0.1 by @fontawesome - https://fontawesome.com License - https://fontawesome.com/license (Commercial License) Copyright 2025 Fonticons, Inc. --><path style="fill:var(--fa-secondary-color,currentColor);opacity:var(--fa-secondary-opacity,.4)" d="M0 128l0 250.2 25.7 5.1 143.5 28.7c-17.7-20.9-30.5-45.6-36.8-72.6L64 325.8 64 192 154.2 192c8.8-21.5 19.5-43.2 31.3-64L0 128zM288 288l0 224 64 0 0-224-64 0zM454.6 128c11.8 20.8 22.4 42.5 31.3 64l90.2 0 0 133.8-68.5 13.7c-6.4 27.1-19.3 51.8-37.1 72.7l143.8-28.8 25.7-5.1 0-250.2-185.4 0z"/><path style="fill:var(--fa-primary-color,currentColor);opacity:var(--fa-primary-opacity,1)" d="M128 300.8C128 222.8 192 96 256 32l128 0c64 64 128 190.8 128 268.8 0 72.8-46.2 134.7-112 162.9l0-87.7c10.1-14.1 16-31.2 16-49.6 0-39-32-102.4-64-134.4l-64 0c-32 32-64 95.4-64 134.4 0 18.4 5.9 35.5 16 49.7l0 87.8c-66.4-28.2-112-90.7-112-163.1z"/></svg>