<svg xmlns="http://www.w3.org/2000/svg" viewBox="0 0 448 512"><!--! Font Awesome Pro 7.0.1 by @fontawesome - https://fontawesome.com License - https://fontawesome.com/license (Commercial License) Copyright 2025 Fonticons, Inc. --><path style="fill:var(--fa-secondary-color,currentColor);opacity:var(--fa-secondary-opacity,.4)" d="M0 32L80.3 192.6C115.5 153 166.8 128 224 128L128-32 0 32zm224 96c57.2 0 108.5 25 143.7 64.6L448 32 320-32 224 128z"/><path style="fill:var(--fa-primary-color,currentColor);opacity:var(--fa-primary-opacity,1)" d="M224 512a192 192 0 1 1 0-384 192 192 0 1 1 0 384zm32.1-233.3l-32.1-61.9-32.1 61.9-71.9 9.9 52 48.2-12.3 68.1 64.3-32.1 64.3 32.1-12.3-68.1 52-48.2-71.9-9.9z"/></svg>