<svg xmlns="http://www.w3.org/2000/svg" viewBox="0 0 512 512"><!--! Font Awesome Pro 7.1.0 by @fontawesome - https://fontawesome.com License - https://fontawesome.com/license (Commercial License) Copyright 2025 Fonticons, Inc. --><path opacity=".4" fill="currentColor" d="M0 32l0 416 128 0 0 96 160-96 224 0 0-416-512 0zM181.6 197.2c0-41.1 33.3-74.4 74.4-74.4s74.4 33.3 74.4 74.4c0 33.3-19.8 52.7-37.4 62.5-5.5 3.1-11 5.4-15.8 7.1l0 18.3-42.4 0 0-53.5c12.8-1.9 26-2.5 37.4-8.9 9-5.1 15.8-12.4 15.8-25.6 0-17.7-14.3-32-32-32s-32 14.3-32 32l-42.4 0zM232 312l48 0 0 48-48 0 0-48z"/><path fill="currentColor" d="M280 312l-48 0 0 48 48 0 0-48zM224 197.2c0-17.7 14.3-32 32-32s32 14.3 32 32c0 13.2-6.8 20.5-15.8 25.6-11.5 6.4-24.7 7-37.4 8.9l0 53.5 42.4 0 0-18.3c4.8-1.7 10.3-4 15.8-7.1 17.6-9.9 37.4-29.2 37.4-62.5 0-41.1-33.3-74.4-74.4-74.4s-74.4 33.3-74.4 74.4l42.4 0z"/></svg>