<svg xmlns="http://www.w3.org/2000/svg" viewBox="0 0 512 512"><!--! Font Awesome Pro 7.1.0 by @fontawesome - https://fontawesome.com License - https://fontawesome.com/license (Commercial License) Copyright 2025 Fonticons, Inc. --><path opacity=".4" fill="currentColor" d="M0 32l0 416 128 0 0 96 160-96 224 0 0-416-512 0zM118.1 264l33.9-33.9 69.1 69.1 119.4-164.2 14.1-19.4 38.8 28.3-14.1 19.4-135.9 186.9-16.5 22.7-19.8-19.9-88.9-88.9z"/><path fill="currentColor" d="M393.4 143.8l-14.1 19.4-135.9 186.9-16.5 22.7-19.8-19.9-88.9-88.9 33.9-33.9 69.1 69.1 119.4-164.2 14.1-19.4 38.8 28.3z"/></svg>