<svg xmlns="http://www.w3.org/2000/svg" viewBox="0 0 640 512"><!--! Font Awesome Pro 7.1.0 by @fontawesome - https://fontawesome.com License - https://fontawesome.com/license (Commercial License) Copyright 2025 Fonticons, Inc. --><path opacity=".4" fill="currentColor" d="M64 256c0 140.1 112.5 253.9 252.1 256-27.6-35.3-44.1-79.8-44.1-128.1 0-60 28.3-111.7 58.5-149.5 30.4-38.2 66.7-67.3 92.1-83.2l32.4-20.2 57.1 57.1 29.1-29.1 22.8 19C530.9 74.7 434.2 0 320 0 178.6 0 64 114.6 64 256zM200 128l48 0 0 96-48 0 0-96zm96 0l48 0 0 19.8c-16.1 14.3-32.6 31.1-48 49.9l0-69.7z"/><path fill="currentColor" d="M320 384c0-89.6 85.3-165.3 128-192l64 64 32-32c76.8 64 96 133.3 96 160 0 88.4-71.6 160-160 160S320 472.4 320 384zM480 496.2c35.3 0 64-28.7 64-64 0-48-64-96-64-96s-64 48-64 96c0 35.3 28.7 64 64 64z"/></svg>