<svg xmlns="http://www.w3.org/2000/svg" viewBox="0 0 384 512"><!--! Font Awesome Pro 7.1.0 by @fontawesome - https://fontawesome.com License - https://fontawesome.com/license (Commercial License) Copyright 2025 Fonticons, Inc. --><path opacity=".4" fill="currentColor" d="M16 0l352 0 0 512-352 0 0-512zM80 304l0 48 48 0 0-48-48 0zm0 96l0 48 48 0 0-48-48 0zM96 128l0 128 192 0 0-128-192 0zm48-88l0 48 96 0 0-48-96 0zm24 264l0 48 48 0 0-48-48 0zm0 96l0 48 48 0 0-48-48 0zm88-96l0 48 48 0 0-48-48 0zm0 96l0 48 48 0 0-48-48 0z"/><path fill="currentColor" d="M96 128l192 0 0 128-192 0 0-128z"/></svg>