<svg xmlns="http://www.w3.org/2000/svg" viewBox="0 0 384 512"><!--! Font Awesome Pro 7.1.0 by @fontawesome - https://fontawesome.com License - https://fontawesome.com/license (Commercial License) Copyright 2025 Fonticons, Inc. --><path opacity=".4" fill="currentColor" d="M58.4 448l267.2 0-29.7-385.8-.7-8.9-6.3-6.3c-63.8-63.8-96.2-96.2-97-97-.8 .8-33.1 33.1-97 97l-6.3 6.3-.7 8.9-29.7 385.8zM128 272l128 0 0 48-128 0 0-48z"/><path fill="currentColor" d="M256 272l-128 0 0 48 128 0 0-48zM32 448l-32 0 0 64 384 0 0-64-352 0z"/></svg>