<svg xmlns="http://www.w3.org/2000/svg" viewBox="0 0 512 512"><!--! Font Awesome Pro 7.0.1 by @fontawesome - https://fontawesome.com License - https://fontawesome.com/license (Commercial License) Copyright 2025 Fonticons, Inc. --><path style="fill:var(--fa-secondary-color,currentColor);opacity:var(--fa-secondary-opacity,.4)" d="M288 208L371.2 236.8 400 320 428.8 236.8 512 208 428.8 179.2 400 96 371.2 179.2 288 208z"/><path style="fill:var(--fa-primary-color,currentColor);opacity:var(--fa-primary-opacity,1)" d="M359.7 21.9C272.6 43.5 208 122.2 208 216 208 326.4 297.5 416 408 416 426.5 416 444.4 413.5 461.4 408.8 414.8 471.4 340.1 512 256 512 114.6 512 0 397.4 0 256S114.6 0 256 0c36.9 0 72 7.8 103.7 21.9z"/></svg>