<svg xmlns="http://www.w3.org/2000/svg" viewBox="0 0 640 512"><!--! Font Awesome Pro 7.1.0 by @fontawesome - https://fontawesome.com License - https://fontawesome.com/license (Commercial License) Copyright 2025 Fonticons, Inc. --><path opacity=".4" fill="currentColor" d="M160.7 244c10.1-2.6 20.8-4 31.7-4 49.5 0 92.4 28.1 113.7 69.2 45.4 14.3 78.3 56.7 78.3 106.8l0 94c10.5 1.3 21.2 2 32 2 84.1 0 158.8-40.6 205.4-103.2-17 4.7-34.9 7.2-53.4 7.2-110.5 0-200-89.5-200-200 0-93.8 64.6-172.5 151.7-194.1-31.7-14.1-66.8-21.9-103.7-21.9-137.4 0-249.4 108.2-255.7 244z"/><path fill="currentColor" d="M336.4 480l-304 0 0-72c0-39.8 32.2-72 72-72 4.8 0 9.5 .5 14.1 1.4 12-29 40.6-49.4 73.9-49.4 38.7 0 71 27.5 78.4 64 .5 0 1.1 0 1.6 0 35.3 0 64 28.7 64 64l0 64z"/></svg>