<svg xmlns="http://www.w3.org/2000/svg" viewBox="0 0 576 512"><!--! Font Awesome Pro 7.1.0 by @fontawesome - https://fontawesome.com License - https://fontawesome.com/license (Commercial License) Copyright 2025 Fonticons, Inc. --><path opacity=".4" fill="currentColor" d="M0 256l576 0 0 256-240 0 0-160-96 0 0 160-240 0 0-256z"/><path fill="currentColor" d="M96 164.6c0 50.5 40.9 91.4 91.4 91.4l201.3 0c50.5 0 91.4-40.9 91.4-91.4 0-27.9-12.7-54.2-34.5-71.5L288-32 130.5 93.1C108.7 110.4 96 136.8 96 164.6zM336 512l0-160-96 0 0 160 96 0zM64 256l0-64-64 0 0 64 64 0zm448 0l64 0 0-64-64 0 0 64z"/></svg>