<svg xmlns="http://www.w3.org/2000/svg" viewBox="0 0 576 512"><!--! Font Awesome Pro 7.0.1 by @fontawesome - https://fontawesome.com License - https://fontawesome.com/license (Commercial License) Copyright 2025 Fonticons, Inc. --><path style="fill:var(--fa-secondary-color,currentColor);opacity:var(--fa-secondary-opacity,.4)" d="M128.1 400c0 53 50.1 96 112 96 54.1 0 99.2-32.8 109.7-76.5L234.4 304.1c-59.2 2.5-106.3 44.5-106.3 95.9z"/><path style="fill:var(--fa-primary-color,currentColor);opacity:var(--fa-primary-opacity,1)" d="M32.3-33.8l17 17 238.8 238.8 0-182.9 24.2-6.1c100-25 156-39 167.8-41.9l0 162c-2.9 .7-45.6 11.4-128 32l0 101 209.2 209.2 17 17-33.9 33.9-17-17-512-512-17-17 33.9-33.9z"/></svg>