<svg xmlns="http://www.w3.org/2000/svg" viewBox="0 0 512 512"><!--! Font Awesome Pro 7.1.0 by @fontawesome - https://fontawesome.com License - https://fontawesome.com/license (Commercial License) Copyright 2025 Fonticons, Inc. --><path opacity=".4" fill="currentColor" d="M96 0l0 416 272 0 144-144 0-272-416 0zM208 176l64 0 0-64 64 0 0 64 64 0 0 64-64 0 0 64-64 0 0-64-64 0 0-64z"/><path fill="currentColor" d="M48 120l0-24-48 0 0 416 352 0 0-48-304 0 0-344zm224-8l0 64-64 0 0 64 64 0 0 64 64 0 0-64 64 0 0-64-64 0 0-64-64 0z"/></svg>