<svg xmlns="http://www.w3.org/2000/svg" viewBox="0 0 576 512"><!--! Font Awesome Pro 7.0.1 by @fontawesome - https://fontawesome.com License - https://fontawesome.com/license (Commercial License) Copyright 2025 Fonticons, Inc. --><path style="fill:var(--fa-secondary-color,currentColor);opacity:var(--fa-secondary-opacity,.4)" d="M0 0l0 128 32 0 0 256-32 0 0 128 128 0 0-32 320 0 0 32 128 0 0-128-32 0 0-256 32 0 0-128-128 0 0 32-320 0 0-32-128 0zM96 96l384 0 0 320-384 0 0-320z"/><path style="fill:var(--fa-primary-color,currentColor);opacity:var(--fa-primary-opacity,1)" d="M304 144l0 128-160 0 0-128 160 0zM256 368l0-48 96 0 0-96 80 0 0 144-176 0z"/></svg>