<svg xmlns="http://www.w3.org/2000/svg" viewBox="0 0 640 512"><!--! Font Awesome Pro 7.0.0 by @fontawesome - https://fontawesome.com License - https://fontawesome.com/license (Commercial License) Copyright 2025 Fonticons, Inc. --><path style="fill:var(--fa-secondary-color,currentColor);opacity:var(--fa-secondary-opacity,.4)" d="M240.4 304c0 44.2 35.8 80 80 80s80-35.8 80-80c0-32.8-19.7-61-48-73.3l0-70.7 64 0 0-64-64 0 0-32 64 0 0-64-128 0 0 230.7c-28.3 12.3-48 40.5-48 73.3z"/><path style="fill:var(--fa-primary-color,currentColor);opacity:var(--fa-primary-opacity,1)" d="M443.5 339.1c3.2-11.2 4.9-22.9 4.9-35.1 0-5.1-.3-10.1-.9-15l1.8 .7 111.8 44.7c29.3-9.8 50.1-16.7 62.4-20.8l15.2 45.5c-11 3.7-34.6 11.5-70.8 23.6l-8.3 2.8-8.2-3.3-108-43.2zm-246.3 0l-108 43.2-8.2 3.3-8.3-2.8C36.6 370.7 13 362.8 2 359.2l15.2-45.5c12.4 4.1 33.2 11.1 62.4 20.8l111.8-44.7 1.8-.7c-.6 4.9-.9 9.9-.9 15 0 12.2 1.7 23.9 4.9 35.1zm3.1 75l8.9 3.6 111.1 44.4 111.1-44.4 8.9-3.6 8.9 3.6 111.8 44.7c29.3-9.8 50.1-16.7 62.4-20.8l15.2 45.5c-11 3.7-34.6 11.5-70.8 23.6l-8.3 2.8-8.2-3.3-111.1-44.4-111.1 44.4-8.9 3.6-8.9-3.6-111.1-44.4-111.1 44.4-8.2 3.3-8.3-2.8C36.6 498.7 13 490.8 2 487.2l15.2-45.5c12.4 4.1 33.2 11.1 62.4 20.8l111.8-44.7 8.9-3.6z"/></svg>