<svg xmlns="http://www.w3.org/2000/svg" viewBox="0 0 448 512"><!--! Font Awesome Pro 7.1.0 by @fontawesome - https://fontawesome.com License - https://fontawesome.com/license (Commercial License) Copyright 2025 Fonticons, Inc. --><path opacity=".4" fill="currentColor" d="M0 32l0 320 64 0c22.1 0 40-17.9 40-40l0-56-40 0 0-160 128 0 0 160-40 0 0 56c0 48.6-39.4 88-88 88l-64 0 0 80 448 0 0-448-448 0zM256 96l128 0 0 48-128 0 0-48zm0 96l128 0 0 48-128 0 0-48zm0 96l128 0 0 128-128 0 0-128z"/><path fill="currentColor" d="M64 96l128 0 0 160-40 0 0 56c0 48.6-39.4 88-88 88l-64 0 0-48 64 0c22.1 0 40-17.9 40-40l0-56-40 0 0-160zM256 288l128 0 0 128-128 0 0-128z"/></svg>