<svg xmlns="http://www.w3.org/2000/svg" viewBox="0 0 512 512"><!--! Font Awesome Pro 7.1.0 by @fontawesome - https://fontawesome.com License - https://fontawesome.com/license (Commercial License) Copyright 2025 Fonticons, Inc. --><path opacity=".4" fill="currentColor" d="M2 493.9C25.5 371.9 48.9 249.9 72.4 128l87.9 0 0-48-78.7 0c.1-.7 .3-1.4 .4-2.1l15-77.9 318.6 0 15 77.9 .4 2.1-78.7 0 0 48 87.9 0c23.5 122 46.9 243.9 70.4 365.9l-188.5 36.3-65-338.1-1.4 0-65 338.1-188.5-36.3z"/><path fill="currentColor" d="M72.4 128l9.2-48 78.7 0 0 48-87.9 0zM431 80l9.2 48-87.9 0 0-48 78.7 0z"/></svg>