<svg xmlns="http://www.w3.org/2000/svg" viewBox="0 0 448 512"><!--! Font Awesome Pro 7.1.0 by @fontawesome - https://fontawesome.com License - https://fontawesome.com/license (Commercial License) Copyright 2025 Fonticons, Inc. --><path opacity=".4" fill="currentColor" d="M32 0l384 0 0 448-384 0 0-448zm72 96a24 24 0 1 0 48 0 24 24 0 1 0 -48 0zm192 0a24 24 0 1 0 48 0 24 24 0 1 0 -48 0z"/><path fill="currentColor" d="M152 96a24 24 0 1 0 -48 0 24 24 0 1 0 48 0zm192 0a24 24 0 1 0 -48 0 24 24 0 1 0 48 0zM32 448l-32 0 0 64 448 0 0-64-416 0z"/></svg>