<svg xmlns="http://www.w3.org/2000/svg" viewBox="0 0 576 512"><!--! Font Awesome Pro 7.1.0 by @fontawesome - https://fontawesome.com License - https://fontawesome.com/license (Commercial License) Copyright 2025 Fonticons, Inc. --><path opacity=".4" fill="currentColor" d="M0 256l0 80 48 0 0-80c0-13.4 6.6-25.2 16.7-32.5-.4-3.5-.7-7.1-.7-10.7 0-16.1 4.5-31.2 12.3-44.1-43.1 5.7-76.3 42.6-76.3 87.2z"/><path fill="currentColor" d="M448 238.1l0-78.1 16 0 32 64 80-32 0-128-32-32 32 0 0-32-128 0C377.3 0 320 57.3 320 128L160 32s-20.2 141.7 68.1 199.7c-8.7-2.7-16.7-6.1-24.2-10.1-22.5-12.1-38.6-29.4-49.9-49.8-7.3-13.2-12.7-27.8-16.5-43-41.5 5.6-73.5 41.1-73.5 84.1 0 16.8 5 33.1 14.2 47.1l42.4 63.6c-18.7 18.6-34.5 34.5-47.6 47.6 1.5 4.6 17.2 51.6 47 141l101.2 0-38.3-115c20.2-20.2 33.9-33.9 41.1-41.1l0-35.9 83.7 23.9c4.1 1.2 8.2 2.1 12.3 2.8l0 165.3 96 0 0-196.3c19.2-19.2 31.5-45.7 32-75.7l0 0 0-1.9zM496 64a16 16 0 1 1 0 32 16 16 0 1 1 0-32z"/></svg>