<svg xmlns="http://www.w3.org/2000/svg" viewBox="0 0 512 512"><!--! Font Awesome Pro 7.1.0 by @fontawesome - https://fontawesome.com License - https://fontawesome.com/license (Commercial License) Copyright 2025 Fonticons, Inc. --><path opacity=".4" fill="currentColor" d="M0 256a256 256 0 1 0 512 0 256 256 0 1 0 -512 0zM128 384l16-96 108.7-108.7 80 80-108.7 108.7-96 16zM275.3 156.7l44.7-44.7 80 80-44.7 44.7-80-80z"/><path fill="currentColor" d="M128 384l16-96 108.7-108.7 80 80-108.7 108.7-96 16zM355.3 236.7l-80-80 44.7-44.7 80 80-44.7 44.7z"/></svg>