<svg xmlns="http://www.w3.org/2000/svg" viewBox="0 0 512 512"><!--! Font Awesome Pro 7.0.1 by @fontawesome - https://fontawesome.com License - https://fontawesome.com/license (Commercial License) Copyright 2025 Fonticons, Inc. --><path style="fill:var(--fa-secondary-color,currentColor);opacity:var(--fa-secondary-opacity,.4)" d="M64 64A64 64 0 1 0 192 64 64 64 0 1 0 64 64zm256 0a64 64 0 1 0 128 0 64 64 0 1 0 -128 0z"/><path style="fill:var(--fa-primary-color,currentColor);opacity:var(--fa-primary-opacity,1)" d="M64 160l128 0 64 224-64 0 0 128-128 0 0-128-64 0 64-224zM256 384l64-224 128 0 64 224-64 0 0 128-128 0 0-128-64 0z"/></svg>