<svg xmlns="http://www.w3.org/2000/svg" viewBox="0 0 640 512"><!--! Font Awesome Pro 7.1.0 by @fontawesome - https://fontawesome.com License - https://fontawesome.com/license (Commercial License) Copyright 2025 Fonticons, Inc. --><path opacity=".4" fill="currentColor" d="M96 128a48 48 0 1 0 96 0 48 48 0 1 0 -96 0zm32 109.9L128 384c21.3 0 42.7 0 64 0l0-109.9c54.2 80.9 92.9 138.9 116.2 173.9 17.8 26.6 32 47.9 42.6 63.9l53.3-35.5-17.8-26.6-1.2-1.8c-30.2-45.3-55.1-82.7-74.7-112l74.6 0 40 48 83.3 0-3.7-4.5-80-96-9.6-11.5-93.6 0-35.3-54.4c39.4-23.6 61.3-36.8 65.9-39.5l0-114.1-64 0 0 77.9-144.5 86.7-15.5 9.3z"/><path fill="currentColor" d="M64 64l512 0 0 320-233.5 0 42.7 64 254.9 0 0-448-640 0 0 448 308.2 0-42.7-64-201.5 0 0-320z"/></svg>