<svg xmlns="http://www.w3.org/2000/svg" viewBox="0 0 640 512"><!--! Font Awesome Pro 7.1.0 by @fontawesome - https://fontawesome.com License - https://fontawesome.com/license (Commercial License) Copyright 2025 Fonticons, Inc. --><path opacity=".4" fill="currentColor" d="M2 430.5c11 3.7 34.6 11.5 70.8 23.6l8.3 2.8 8.2-3.3 111.1-44.4 111.1 44.4 8.9 3.6 8.9-3.6 111.1-44.4 111.1 44.4 8.2 3.3 8.3-2.8c36.2-12.1 59.8-19.9 70.8-23.6L623.5 385c-12.4 4.1-33.2 11.1-62.4 20.8l-111.8-44.7-8.9-3.6-8.9 3.6-111.1 44.4-111.1-44.4-8.9-3.6-8.9 3.6-111.8 44.7C50.4 396 29.6 389.1 17.2 385L2 430.5z"/><path fill="currentColor" d="M320.4 144a56 56 0 1 0 0-112 56 56 0 1 0 0 112zM174.7 85.9l-10.1-30.4-60.7 20.2C107 85.1 121 127.2 146 202.1l5.8 17.5c4.1 .9 31.9 6.6 83.3 17.3l-20.2 67.5 12.3 4.9 93.3 37.3 50.7-20.3 26.7-89.1c112.2-37.4 169.2-56.4 171-57l-20.2-60.7c-2.1 .7-58.6 19.5-169.4 56.5l-122.6 0-55.7-11.6-26.2-78.5z"/></svg>