<svg xmlns="http://www.w3.org/2000/svg" viewBox="0 0 448 512"><!--! Font Awesome Pro 7.1.0 by @fontawesome - https://fontawesome.com License - https://fontawesome.com/license (Commercial License) Copyright 2025 Fonticons, Inc. --><path opacity=".4" fill="currentColor" d="M336 392l0 24 48 0 0-24c0-4.4 3.6-8 8-8s8 3.6 8 8l0 152 48 0 0-152c0-30.9-25.1-56-56-56s-56 25.1-56 56z"/><path fill="currentColor" d="M232-32a56 56 0 1 1 0 112 56 56 0 1 1 0-112zM156.6 112l134.8 0 9.6 13.2c74.3 102.4 111.5 153.6 111.7 153.9l-51.8 37.6c-9.3-12.8-28.3-39-56.9-78.4l0 305.7-64 0 0-208-32 0 0 208-64 0 0-305.7c-28.6 39.4-47.6 65.6-56.9 78.4l-51.8-37.6 18.8-25.9 92.9-128 9.6-13.2z"/></svg>