<svg xmlns="http://www.w3.org/2000/svg" viewBox="0 0 640 512"><!--! Font Awesome Pro 7.1.0 by @fontawesome - https://fontawesome.com License - https://fontawesome.com/license (Commercial License) Copyright 2025 Fonticons, Inc. --><path opacity=".4" fill="currentColor" d="M2 423.2c11 3.7 34.6 11.5 70.8 23.6l8.3 2.8 8.2-3.3 111.1-44.4 111.1 44.4 8.9 3.6 8.9-3.6 111.1-44.4 111.1 44.4 8.2 3.3 8.3-2.8c36.2-12.1 59.8-19.9 70.8-23.6l-15.2-45.5c-12.4 4.1-33.2 11.1-62.4 20.8l-111.8-44.7-8.9-3.6-8.9 3.6-111.1 44.4-111.1-44.4-8.9-3.6-8.9 3.6-111.8 44.7c-29.3-9.8-50.1-16.7-62.4-20.8L2 423.2z"/><path fill="currentColor" d="M208.4 64l0-32-64 0 0 224 96 0 0 58.6 80 32 80-32 0-58.6 96 0 0-224-64 0 0 160-224 0 0-128zm112 80a56 56 0 1 0 0-112 56 56 0 1 0 0 112z"/></svg>