<svg xmlns="http://www.w3.org/2000/svg" viewBox="0 0 640 512"><!--! Font Awesome Pro 7.1.0 by @fontawesome - https://fontawesome.com License - https://fontawesome.com/license (Commercial License) Copyright 2025 Fonticons, Inc. --><path opacity=".4" fill="currentColor" d="M339.7 148.9L422 178.8c-11.8 32.4-25.3 69.6-40.6 111.5-2 5.5-6.1 16.8-12.3 33.7l45.1 16.4 8.2-22.6 44.6-122.6 83.1 30.2 54.7-150.4-83.1-30.2c2.5-6.8 6.7-18.5 12.8-35.2L489.6-6.8c-6.1 16.7-10.3 28.4-12.8 35.2L394.5-1.5 339.7 148.9z"/><path fill="currentColor" d="M208.3 80a56 56 0 1 0 0-112 56 56 0 1 0 0 112zm-16 464l0-208 32 0 0 208 64 0 0-308.8c5.1 6.4 8.9 11.1 11.4 14.3l6.3 3.1 64 32 11.4 5.7 22-60.5-4.8-2.4-57.7-28.9-59.6-74.5-9.6-12-127.2 0-9.6 12.6-104 136-19.4 25.4 50.8 38.9c8.4-11 30.4-39.8 66-86.3l0 305.5 64 0z"/></svg>