<svg xmlns="http://www.w3.org/2000/svg" viewBox="0 0 384 512"><!--! Font Awesome Pro 7.1.0 by @fontawesome - https://fontawesome.com License - https://fontawesome.com/license (Commercial License) Copyright 2025 Fonticons, Inc. --><path opacity=".4" fill="currentColor" d="M192.4 64a64 64 0 1 0 128 0 64 64 0 1 0 -128 0z"/><path fill="currentColor" d="M144.4 144l-24.1 0-11.2 21.4-60.8 115.5C28 319.4 38.8 366.8 73.8 392.7l53.2 39.3-126.6 0 0 80 248 0 23.8-72.2-116.1-85.8 45-90c15 20.6 30.9 42.5 47.8 65.8 15.3-12.5 50.3-41.1 104.9-85.8l31-25.3-50.7-61.9c-19.2 15.7-42.7 34.9-70.3 57.5-30.6-42.1-47.6-65.5-51.1-70.2l-68.4 0z"/></svg>