<svg xmlns="http://www.w3.org/2000/svg" viewBox="0 0 640 512"><!--! Font Awesome Pro 7.1.0 by @fontawesome - https://fontawesome.com License - https://fontawesome.com/license (Commercial License) Copyright 2025 Fonticons, Inc. --><path opacity=".4" fill="currentColor" d="M320 0l0 112 64 0 0-48 192 0 0 192-192 0 0-32-64 0 0 96 320 0 0-320-320 0z"/><path fill="currentColor" d="M136 24a56 56 0 1 1 112 0 56 56 0 1 1 -112 0zm40 520l-64 0 0-308.7-54.5 72-51-38.6 108.9-144 9.6-12.7 307 0 0 64-160 0 0 368-64 0 0-208-32 0 0 208z"/></svg>