<svg xmlns="http://www.w3.org/2000/svg" viewBox="0 0 640 512"><!--! Font Awesome Pro 7.1.0 by @fontawesome - https://fontawesome.com License - https://fontawesome.com/license (Commercial License) Copyright 2025 Fonticons, Inc. --><path opacity=".4" fill="currentColor" d="M3.6 370.7l45.3 135.8 158.9-22.1-.5-113.7c73.1-26.5 153.2-26.5 226.3 0l-.5 113.7 158.9 22.1 45.2-135.8-11.3-11.3c-168.7-168.7-442.2-168.7-610.9 0L3.6 370.7z"/><path fill="currentColor" d="M160.3 0l149.8 0 0 48-67.9 0 78.1 78.1c63-63 95-95 96-96l33.9 33.9-17 17-96 96-17 17-17-17-95-95 0 67.9-48 0 0-149.8z"/></svg>