<svg xmlns="http://www.w3.org/2000/svg" viewBox="0 0 576 512"><!--! Font Awesome Pro 7.1.0 by @fontawesome - https://fontawesome.com License - https://fontawesome.com/license (Commercial License) Copyright 2025 Fonticons, Inc. --><path opacity=".4" fill="currentColor" d="M32.4 64l128-64 96.8 128-80.8 80c33 70.4 89.6 127 160 160l80-80.8 128 96.8-64 128-16 0c-238.6 0-432-193.4-432-432l0-16z"/><path fill="currentColor" d="M562.4 96c-2.1 2.1-31.8 31.8-89 89l-17 17-33.9-33.9c9-9 25-25 48-48l-126.1 0 0-48 126.1 0c-23-23-39-39-48-48L456.4-9.9c2.1 2.1 31.8 31.8 89 89l17 17z"/></svg>