<svg xmlns="http://www.w3.org/2000/svg" viewBox="0 0 512 512"><!--! Font Awesome Pro 7.0.1 by @fontawesome - https://fontawesome.com License - https://fontawesome.com/license (Commercial License) Copyright 2025 Fonticons, Inc. --><path style="fill:var(--fa-secondary-color,currentColor);opacity:var(--fa-secondary-opacity,.4)" d="M160 32l0 448 352 0 0-448-352 0zm64 64l224 0 0 160-224 0 0-160zm48 272a24 24 0 1 1 -48 0 24 24 0 1 1 48 0zm88 0a24 24 0 1 1 -48 0 24 24 0 1 1 48 0zm88 0a24 24 0 1 1 -48 0 24 24 0 1 1 48 0z"/><path style="fill:var(--fa-primary-color,currentColor);opacity:var(--fa-primary-opacity,1)" d="M112 32l-112 0 0 448 112 0 0-448zM248 392a24 24 0 1 0 0-48 24 24 0 1 0 0 48zm88 0a24 24 0 1 0 0-48 24 24 0 1 0 0 48zm112-24a24 24 0 1 0 -48 0 24 24 0 1 0 48 0z"/></svg>