<svg xmlns="http://www.w3.org/2000/svg" viewBox="0 0 512 512"><!--! Font Awesome Pro 7.0.1 by @fontawesome - https://fontawesome.com License - https://fontawesome.com/license (Commercial License) Copyright 2025 Fonticons, Inc. --><path style="fill:var(--fa-secondary-color,currentColor);opacity:var(--fa-secondary-opacity,.4)" d="M0 128s96-96 256-96 256 96 256 96l0 96-64.3 0c-43.4-70.5-66.4-107.8-68.9-112l-245.6 0c-2.6 4.2-25.5 41.5-68.9 112L0 224 0 128z"/><path style="fill:var(--fa-primary-color,currentColor);opacity:var(--fa-primary-opacity,1)" d="M32 368l0 112 448 0 0-112-128-208-192 0-128 208zM256 240a72 72 0 1 1 0 144 72 72 0 1 1 0-144z"/></svg>