<svg xmlns="http://www.w3.org/2000/svg" viewBox="0 0 640 512"><!--! Font Awesome Pro 7.1.0 by @fontawesome - https://fontawesome.com License - https://fontawesome.com/license (Commercial License) Copyright 2025 Fonticons, Inc. --><path opacity=".4" fill="currentColor" d="M68.1 284.7c4.5 13.6 9.1 27.2 13.6 40.8 25.9-3.6 51.9-7.2 77.8-10.8-.1-15-.1-30.1-.2-45.1-30.4 5.1-60.8 10.1-91.2 15.2zm413.2-15.2l-.2 45.1 77.8 10.8c4.5-13.6 9.1-27.2 13.6-40.7l-91.2-15.2z"/><path fill="currentColor" d="M637.1 242.7l-45.2 135.8-158.9-22.1 .5-113.7c-73.1-26.5-153.2-26.5-226.3 0l.5 113.7-158.9 22.1-45.3-135.8 11.3-11.3c168.7-168.7 442.2-168.7 610.9 0l11.3 11.3zm-569 42l13.6 40.8 77.8-10.8-.2-45.1-91.2 15.2zm413 29.9l77.8 10.8 13.6-40.8-91.2-15.2-.2 45.1z"/></svg>