<svg xmlns="http://www.w3.org/2000/svg" viewBox="0 0 640 512"><!--! Font Awesome Pro 7.1.0 by @fontawesome - https://fontawesome.com License - https://fontawesome.com/license (Commercial License) Copyright 2025 Fonticons, Inc. --><path opacity=".4" fill="currentColor" d="M0 128l0 352 273.5 0c4.6-24.3 19.4-43.6 36.5-56.4 12.3-9.3 26.7-15.9 42.1-19.7l0-3.8-208 0 0-272-144 0zm56 56l48 0 0 48-48 0 0-48zm0 96l48 0 0 48-48 0 0-48zm0 96l48 0 0 48-48 0 0-48zM192 0l0 352 160 0 0-64-112 0 96-128 43.3 57.7 84.7-137.7 70.5 114.6 73.5-13.4 0-181.3-416 0zM320 96a32 32 0 1 1 -64 0 32 32 0 1 1 64 0z"/><path fill="currentColor" d="M624 227.1L624 464c0 23.3-18 35.4-29.1 40.5-11.9 5.4-25.4 7.5-34.9 7.5s-22.9-2.1-34.9-7.5C514 499.4 496 487.3 496 464s18-35.4 29.1-40.5c11.9-5.4 25.4-7.5 34.9-7.5 4.6 0 10.1 .5 16 1.6l0-85-128 23.3 0 140.1c0 23.3-18 35.4-29.1 40.5-11.9 5.4-25.4 7.5-34.9 7.5s-22.9-2.1-34.9-7.5C338 531.4 320 519.3 320 496s18-35.4 29.1-40.5c11.9-5.4 25.4-7.5 34.9-7.5 4.6 0 10.1 .5 16 1.6l0-181.8 19.7-3.6 176-32 28.3-5.1z"/></svg>