<svg xmlns="http://www.w3.org/2000/svg" viewBox="0 0 576 512"><!--! Font Awesome Pro 7.0.1 by @fontawesome - https://fontawesome.com License - https://fontawesome.com/license (Commercial License) Copyright 2025 Fonticons, Inc. --><path style="fill:var(--fa-secondary-color,currentColor);opacity:var(--fa-secondary-opacity,.4)" d="M0 224l64 0 0 160 76 0 0-64 40 0 0 64 88 0 0-64 40 0 0 64 88 0 0-64 40 0 0 64 76 0 0-160 64 0 0 224-576 0 0-224z"/><path style="fill:var(--fa-primary-color,currentColor);opacity:var(--fa-primary-opacity,1)" d="M576 64l-576 0 0 160 128 0 0 96 64 0 0-96 64 0 0 96 64 0 0-96 64 0 0 96 64 0 0-96 128 0 0-160z"/></svg>