<svg xmlns="http://www.w3.org/2000/svg" viewBox="0 0 576 512"><!--! Font Awesome Pro 7.1.0 by @fontawesome - https://fontawesome.com License - https://fontawesome.com/license (Commercial License) Copyright 2025 Fonticons, Inc. --><path opacity=".4" fill="currentColor" d="M320 416a128 128 0 1 0 256 0 128 128 0 1 0 -256 0zm76 0a20 20 0 1 1 -40 0 20 20 0 1 1 40 0zm72-72a20 20 0 1 1 -40 0 20 20 0 1 1 40 0zm0 72a20 20 0 1 1 -40 0 20 20 0 1 1 40 0zm0 72a20 20 0 1 1 -40 0 20 20 0 1 1 40 0zm72-72a20 20 0 1 1 -40 0 20 20 0 1 1 40 0z"/><path fill="currentColor" d="M576 208l-50.2 50.1c-23.5-11.6-49.9-18.1-77.8-18.1-64.4 0-120.8 34.6-151.4 86.3l-103.6-103.3-17-16.9-33.9 34 17 16.9 117.9 117.5c-3.2 13.3-4.9 27.2-4.9 41.5 0 10.8 1 21.3 2.8 31.6l-89-32.4c-66.5 66.2-104.4 104-113.8 113.3L15.5 472c9.4-9.3 47.3-47.1 113.8-113.3L80 224 336-32 576 208z"/></svg>