<svg xmlns="http://www.w3.org/2000/svg" viewBox="0 0 512 512"><!--! Font Awesome Pro 7.1.0 by @fontawesome - https://fontawesome.com License - https://fontawesome.com/license (Commercial License) Copyright 2025 Fonticons, Inc. --><path opacity=".4" fill="currentColor" d="M0 32l0 112 96 48 0 320 128 0 0-96 160 0 0 96 128 0 0-336-256 0 0-208-64 0 0 64-192 0zM121.7 268.4l13-9.4 44.4-32 10.5-7.5c3.7 3.3 15.5 14 35.6 32 26.6-19.1 41.4-29.8 44.4-32 3.7 3.3 15.5 14 35.6 32 26.6-19.1 41.4-29.8 44.4-32 3.7 3.3 15.5 14 35.6 32 26.6-19.1 41.4-29.8 44.4-32l9.6 8.6 35.6 32 11.9 10.7-21.4 23.8-11.9-10.7-26-23.4-34 24.5-10.5 7.5-9.6-8.6-26-23.4-34 24.5-10.5 7.5-9.6-8.6-26-23.4-34 24.5-10.5 7.5-9.6-8.6-26-23.4c-26.1 18.9-41.8 30.1-46.9 33.8l-18.7-26zm0 96l13-9.4 44.4-32 10.5-7.5c3.7 3.3 15.5 14 35.6 32 26.6-19.1 41.4-29.8 44.4-32 3.7 3.3 15.5 14 35.6 32 26.6-19.1 41.4-29.8 44.4-32 3.7 3.3 15.5 14 35.6 32 26.6-19.1 41.4-29.8 44.4-32l9.6 8.6 35.6 32 11.9 10.7-21.4 23.8-11.9-10.7-26-23.4-34 24.5-10.5 7.5-9.6-8.6-26-23.4-34 24.5-10.5 7.5-9.6-8.6-26-23.4-34 24.5-10.5 7.5-9.6-8.6-26-23.4c-26.1 18.9-41.8 30.1-46.9 33.8l-18.7-26zM192 104a24 24 0 1 1 -48 0 24 24 0 1 1 48 0z"/><path fill="currentColor" d="M439.2 324.1l35.6 32 11.9 10.7-21.4 23.8-11.9-10.7-26-23.4-34 24.5-10.5 7.5-9.6-8.6-26-23.4-34 24.5-10.5 7.5-9.6-8.6-26-23.4-34 24.5-10.5 7.5-9.6-8.6-26-23.4c-26.1 18.9-41.8 30.1-46.9 33.8l-18.7-26 13-9.4 44.4-32 10.5-7.5c3.7 3.3 15.5 14 35.6 32 26.6-19.1 41.4-29.8 44.4-32 3.7 3.3 15.5 14 35.6 32 26.6-19.1 41.4-29.8 44.4-32 3.7 3.3 15.5 14 35.6 32 26.6-19.1 41.4-29.8 44.4-32l9.6 8.6zm0-96l35.6 32 11.9 10.7-21.4 23.8-11.9-10.7-26-23.4-34 24.5-10.5 7.5-9.6-8.6-26-23.4-34 24.5-10.5 7.5-9.6-8.6-26-23.4-34 24.5-10.5 7.5-9.6-8.6-26-23.4c-26.1 18.9-41.8 30.1-46.9 33.8l-18.7-26 13-9.4 44.4-32 10.5-7.5c3.7 3.3 15.5 14 35.6 32 26.6-19.1 41.4-29.8 44.4-32 3.7 3.3 15.5 14 35.6 32 26.6-19.1 41.4-29.8 44.4-32 3.7 3.3 15.5 14 35.6 32 26.6-19.1 41.4-29.8 44.4-32l9.6 8.6z"/></svg>