<svg xmlns="http://www.w3.org/2000/svg" viewBox="0 0 576 512"><!--! Font Awesome Pro 7.0.1 by @fontawesome - https://fontawesome.com License - https://fontawesome.com/license (Commercial License) Copyright 2025 Fonticons, Inc. --><path style="fill:var(--fa-secondary-color,currentColor);opacity:var(--fa-secondary-opacity,.4)" d="M48.1 320l0 80 184-61.3 0 99.7-72 57.6 0 48 128-32 128 32 0-48-72-57.6 0-24.6-190.5-190.5-105.5 96.7z"/><path style="fill:var(--fa-primary-color,currentColor);opacity:var(--fa-primary-opacity,1)" d="M49.3-16.9l-17-17-33.9 33.9 17 17 512 512 17 17 33.9-33.9-17-17-126.1-126.1 92.9 31 0-80-184-168.7 0-127.3c0-30.9-25.1-56-56-56s-56 25.1-56 56l0 127.3-7.6 7-175.2-175.2z"/></svg>