<svg xmlns="http://www.w3.org/2000/svg" viewBox="0 0 448 512"><!--! Font Awesome Pro 7.1.0 by @fontawesome - https://fontawesome.com License - https://fontawesome.com/license (Commercial License) Copyright 2025 Fonticons, Inc. --><path opacity=".4" fill="currentColor" d="M0 224c0 87.4 50 163 122.9 200L114 361.4C73.8 329.1 48 279.6 48 224 48 126.8 126.8 48 224 48s176 78.8 176 176c0 55.6-25.8 105.1-66 137.4L325.1 424C398 387 448 311.4 448 224 448 100.3 347.7 0 224 0S0 100.3 0 224zm96 0c0 32.1 11.8 61.5 31.4 83.9l27.1-33.9 3.6-4.6c-8.9-12.9-14.2-28.6-14.2-45.5 0-44.2 35.8-80 80-80s80 35.8 80 80c0 16.9-5.2 32.6-14.2 45.5l3.6 4.6 27.1 33.9c19.5-22.5 31.4-51.8 31.4-83.9 0-70.7-57.3-128-128-128S96 153.3 96 224z"/><path fill="currentColor" d="M224 184a40 40 0 1 1 0 80 40 40 0 1 1 0-80zM184 512l-24-168 32-40 64 0 32 40-24 168-80 0z"/></svg>