<svg xmlns="http://www.w3.org/2000/svg" viewBox="0 0 384 512"><!--! Font Awesome Pro 7.0.1 by @fontawesome - https://fontawesome.com License - https://fontawesome.com/license (Commercial License) Copyright 2025 Fonticons, Inc. --><path style="fill:var(--fa-secondary-color,currentColor);opacity:var(--fa-secondary-opacity,.4)" d="M0 464l384 0 0 48-384 0 0-48zM96 128l80 0 0 80-80 0 0-80zm0 112l80 0 0 80-80 0 0-80zM168 0l48 0 0 32-48 0 0-32zm40 128l80 0 0 80-80 0 0-80z"/><path style="fill:var(--fa-primary-color,currentColor);opacity:var(--fa-primary-opacity,1)" d="M320 32l-256 0 0 32-32 0 0 400 320 0 0-400-32 0 0-32zM96 240l80 0 0 80-80 0 0-80zm80-112l0 80-80 0 0-80 80 0zm32 0l80 0 0 80-80 0 0-80z"/></svg>