<svg xmlns="http://www.w3.org/2000/svg" viewBox="0 0 384 512"><!--! Font Awesome Pro 7.1.0 by @fontawesome - https://fontawesome.com License - https://fontawesome.com/license (Commercial License) Copyright 2025 Fonticons, Inc. --><path opacity=".4" fill="currentColor" d="M32 96l320 0 0 416-320 0 0-416zm72 160l0 64 56 0 0 56 64 0 0-56 56 0 0-64-56 0 0-56-64 0 0 56-56 0z"/><path fill="currentColor" d="M384 0L0 0 0 96 384 96 384 0zM160 200l0 56-56 0 0 64 56 0 0 56 64 0 0-56 56 0 0-64-56 0 0-56-64 0z"/></svg>