<svg xmlns="http://www.w3.org/2000/svg" viewBox="0 0 320 512"><!--! Font Awesome Pro 7.0.1 by @fontawesome - https://fontawesome.com License - https://fontawesome.com/license (Commercial License) Copyright 2025 Fonticons, Inc. --><path style="fill:var(--fa-secondary-color,currentColor);opacity:var(--fa-secondary-opacity,.4)" d="M128 448l64 0 0 64-64 0 0-64z"/><path style="fill:var(--fa-primary-color,currentColor);opacity:var(--fa-primary-opacity,1)" d="M160.1 0c88.3 0 160.1 71.6 160 160-.1 55.1-28.7 108.9-80 138.5l-48 27.7 0 57.7-64 0 0-94.7c2.7-1.5 29.3-16.9 80-46.2 30.7-17.7 48-49.9 48-83.2 0-53-43-96-96-96-53 0-96 43-96 96l0 32-64 0 0-32C0 71.6 71.7 0 160.1 0z"/></svg>