<svg xmlns="http://www.w3.org/2000/svg" viewBox="0 0 640 512"><!--! Font Awesome Pro 7.0.1 by @fontawesome - https://fontawesome.com License - https://fontawesome.com/license (Commercial License) Copyright 2025 Fonticons, Inc. --><path style="fill:var(--fa-secondary-color,currentColor);opacity:var(--fa-secondary-opacity,.4)" d="M112 352l0 96 64 0 0-96c0-79.5 64.5-144 144-144s144 64.5 144 144l0 96 64 0 0-96c0-114.9-93.1-208-208-208S112 237.1 112 352z"/><path style="fill:var(--fa-primary-color,currentColor);opacity:var(--fa-primary-opacity,1)" d="M64 352C64 210.6 178.6 96 320 96S576 210.6 576 352l0 96 64 0 0-96C640 175.3 496.7 32 320 32S0 175.3 0 352l0 96 64 0 0-96zm224 0c0-17.7 14.3-32 32-32s32 14.3 32 32l0 96 64 0 0-96c0-53-43-96-96-96s-96 43-96 96l0 96 64 0 0-96z"/></svg>