<svg xmlns="http://www.w3.org/2000/svg" viewBox="0 0 512 512"><!--! Font Awesome Pro 7.1.0 by @fontawesome - https://fontawesome.com License - https://fontawesome.com/license (Commercial License) Copyright 2025 Fonticons, Inc. --><path opacity=".4" fill="currentColor" d="M0 64l0 384 512 0 0-384-512 0zm96 96l48 0 0 192-48 0 0-192zm80 0l32 0 0 192-32 0 0-192zm80 0l48 0 0 192-48 0 0-192zm64 0l32 0 0 192-32 0 0-192zm64 0l32 0 0 192-32 0 0-192z"/><path fill="currentColor" d="M96 160l48 0 0 192-48 0 0-192zm80 0l32 0 0 192-32 0 0-192zm128 0l0 192-48 0 0-192 48 0zm16 0l32 0 0 192-32 0 0-192zm96 0l0 192-32 0 0-192 32 0z"/></svg>