<svg xmlns="http://www.w3.org/2000/svg" viewBox="0 0 576 512"><!--! Font Awesome Pro 7.1.0 by @fontawesome - https://fontawesome.com License - https://fontawesome.com/license (Commercial License) Copyright 2025 Fonticons, Inc. --><path opacity=".4" fill="currentColor" d="M0 208l0 272 257.4 0c-11.2-24.4-17.4-51.4-17.4-80 0-106 86-192 192-192L0 208zm48-96l0 48 416 0 0-48-416 0zM96 16l0 48 320 0 0-48-320 0z"/><path fill="currentColor" d="M432 544a144 144 0 1 0 0-288 144 144 0 1 0 0 288zm0-32c-31.1 0-59.2-12.6-79.5-33.1l15.5-30.9 128 0 15.5 30.9C491.2 499.4 463.1 512 432 512zm0-192a48 48 0 1 1 0 96 48 48 0 1 1 0-96z"/></svg>