<svg xmlns="http://www.w3.org/2000/svg" viewBox="0 0 384 512"><!--! Font Awesome Pro 7.1.0 by @fontawesome - https://fontawesome.com License - https://fontawesome.com/license (Commercial License) Copyright 2025 Fonticons, Inc. --><path opacity=".4" fill="currentColor" d="M71.8 38c2.3 2.9 26.2 32.9 71.6 90l97.3 0c45.4-57.1 69.2-87 71.6-90-6.2-10.1-12.4-20.2-18.6-30.4L289 0 95 0c-.8 1.3-8.6 14-23.2 38z"/><path fill="currentColor" d="M71.8 38l14.2 17.9 106 133.2 106-133.2 14.2-17.9 11.9 19.5 57.5 94.1 5.8 9.6-7 8.8-102.2 127.7 86.2 108.3 9.9 12.5-12.5 10-80 64-12.5 10-10-12.5-256-320-7-8.8 5.9-9.6C48.3 76.5 71.4 38.6 71.8 38zM75 336.2L161.3 444c-29 36.2-44.6 55.7-46.8 58.5l-12.5-10-80-64-12.5-10 9.9-12.5 55.5-69.8z"/></svg>