<svg xmlns="http://www.w3.org/2000/svg" viewBox="0 0 512 512"><!--! Font Awesome Pro 7.1.0 by @fontawesome - https://fontawesome.com License - https://fontawesome.com/license (Commercial License) Copyright 2025 Fonticons, Inc. --><path opacity=".4" fill="currentColor" d="M224 32l0 96 64 0 0-96-64 0zm0 160l0 128 64 0 0-128-64 0zm0 192l0 96 64 0 0-96-64 0z"/><path fill="currentColor" d="M224 32l-118.6 0-105.4 448 224 0 0-96 64 0 0 96 224 0-105.4-448-118.6 0 0 96-64 0 0-96zm64 192l0 96-64 0 0-128 64 0 0 32z"/></svg>