<svg xmlns="http://www.w3.org/2000/svg" viewBox="0 0 640 512"><!--! Font Awesome Pro 7.1.0 by @fontawesome - https://fontawesome.com License - https://fontawesome.com/license (Commercial License) Copyright 2025 Fonticons, Inc. --><path opacity=".4" fill="currentColor" d="M0 192l0 160 64 0 0-160-64 0zM288-32l0 96 64 0 0-96-64 0zM576 192l0 160 64 0 0-160-64 0z"/><path fill="currentColor" d="M544 64l-448 0 0 416 448 0 0-416zM184 344l56 0 0 48-80 0 0-48 24 0zm120 0l56 0 0 48-80 0 0-48 24 0zm120 0l56 0 0 48-80 0 0-48 24 0zM176 224a48 48 0 1 1 96 0 48 48 0 1 1 -96 0zm240-48a48 48 0 1 1 0 96 48 48 0 1 1 0-96z"/></svg>