<svg xmlns="http://www.w3.org/2000/svg" viewBox="0 0 576 512"><!--! Font Awesome Pro 7.0.1 by @fontawesome - https://fontawesome.com License - https://fontawesome.com/license (Commercial License) Copyright 2025 Fonticons, Inc. --><path style="fill:var(--fa-secondary-color,currentColor);opacity:var(--fa-secondary-opacity,.4)" d="M0 320l160 0c14.2-67.4 34.3-119.7 58.1-160L96 160 0 320zm224 64l0 160 160-96 0-122.1c-40.3 23.8-92.6 43.9-160 58.1z"/><path style="fill:var(--fa-primary-color,currentColor);opacity:var(--fa-primary-opacity,1)" d="M504.6 39.4C408.9 20.2 224 16 160 320l64 64C528 320 523.8 135.1 504.6 39.4zM384 112a48 48 0 1 1 0 96 48 48 0 1 1 0-96z"/></svg>