<svg xmlns="http://www.w3.org/2000/svg" viewBox="0 0 512 512"><!--! Font Awesome Pro 7.0.1 by @fontawesome - https://fontawesome.com License - https://fontawesome.com/license (Commercial License) Copyright 2025 Fonticons, Inc. --><path style="fill:var(--fa-secondary-color,currentColor);opacity:var(--fa-secondary-opacity,.4)" d="M.3 256l64 0c0-49.2 18.7-98.3 56.2-135.8S207.1 64 256.3 64c53 0 103.8 21 141.3 58.5l5.5 5.5-66.7 0 0 64 176 0 0-192-64 0 0 82.7-5.5-5.5C393.3 27.8 326.2 0 256.3 0 190.8 0 125.2 25 75.2 75S.3 190.5 .3 256zM0 320c0 5.7 .5 58.8 1.3 159.2l.3 32 64-.5c-.2-18.5-.4-45.5-.7-80.8l4.9 4.9c49.5 49.5 116.6 77.3 186.5 77.3 65.5 0 131-25 181-75s75-115.6 75-181l-64 0c0 49.2-18.7 98.3-56.2 135.8S305.4 448 256.3 448c-53 0-103.8-21-141.3-58.5l-5.5-5.5 66.7 0 0-64-176.3 0z"/><path style="fill:var(--fa-primary-color,currentColor);opacity:var(--fa-primary-opacity,1)" d="M284.3 380l-56 0 0-56 56 0 0 56zm-8.8-92l-38.4 0-12.8-160 64 0-12.8 160z"/></svg>