<svg xmlns="http://www.w3.org/2000/svg" viewBox="0 0 576 512"><!--! Font Awesome Pro 7.1.0 by @fontawesome - https://fontawesome.com License - https://fontawesome.com/license (Commercial License) Copyright 2025 Fonticons, Inc. --><path opacity=".4" fill="currentColor" d="M64.3-29.3C90.1-3.4 116 22.5 141.9 48.4L110.3 80 144.3 113.9c11.7-11.7 22.2-22.2 31.6-31.6 15.4 15.4 30.7 30.7 46.1 46.1-29.4 29.4-47.9 47.9-55.6 55.6l33.9 33.9c7.7-7.7 26.2-26.2 55.6-55.6 15.4 15.4 30.7 30.7 46.1 46.1-9.4 9.4-19.9 19.9-31.6 31.6l33.9 33.9c11.7-11.7 22.2-22.2 31.6-31.6 15.4 15.4 30.7 30.7 46.1 46.1-29.4 29.4-47.9 47.9-55.6 55.6l33.9 33.9c7.7-7.7 26.2-26.2 55.6-55.6 15.4 15.4 30.7 30.7 46.1 46.1-9.4 9.4-19.9 19.9-31.6 31.6l33.9 33.9c11.7-11.7 22.2-22.2 31.6-31.6 25.9 25.9 51.8 51.8 77.7 77.7l-509.3 0 0-509.3zm128 293l0 88.2 88.2 0-88.2-88.2z"/><path fill="currentColor" d="M141.9 48.4L110.3 80 144.3 113.9c11.7-11.7 22.2-22.2 31.6-31.6L141.9 48.4zm80 80c-29.4 29.4-47.9 47.9-55.6 55.6l33.9 33.9c7.7-7.7 26.2-26.2 55.6-55.6l-33.9-33.9zm80 80c-9.4 9.4-19.9 19.9-31.6 31.6l33.9 33.9c11.7-11.7 22.2-22.2 31.6-31.6l-33.9-33.9zm80 80c-29.4 29.4-47.9 47.9-55.6 55.6l33.9 33.9c7.7-7.7 26.2-26.2 55.6-55.6l-33.9-33.9zm80 80c-9.4 9.4-19.9 19.9-31.6 31.6l33.9 33.9c11.7-11.7 22.2-22.2 31.6-31.6l-33.9-33.9z"/></svg>