<svg xmlns="http://www.w3.org/2000/svg" viewBox="0 0 384 512"><!--! Font Awesome Pro 7.0.1 by @fontawesome - https://fontawesome.com License - https://fontawesome.com/license (Commercial License) Copyright 2025 Fonticons, Inc. --><path style="fill:var(--fa-secondary-color,currentColor);opacity:var(--fa-secondary-opacity,.4)" d="M0 512l384 0-40-320-64.5 0 32 256-239 0 32-256-64.5 0-40 320z"/><path style="fill:var(--fa-primary-color,currentColor);opacity:var(--fa-primary-opacity,1)" d="M335.9 127l8.1 65-304 0 8.1-65C57.2 54.5 118.9 0 192 0S326.8 54.5 335.9 127zM192 80a16 16 0 1 0 0-32 16 16 0 1 0 0 32zM160 96a16 16 0 1 0 -32 0 16 16 0 1 0 32 0zm80 16a16 16 0 1 0 0-32 16 16 0 1 0 0 32z"/></svg>