<svg xmlns="http://www.w3.org/2000/svg" viewBox="0 0 640 512"><!--! Font Awesome Pro 7.1.0 by @fontawesome - https://fontawesome.com License - https://fontawesome.com/license (Commercial License) Copyright 2025 Fonticons, Inc. --><path opacity=".4" fill="currentColor" d="M0 128l128 0 160-128 160 128 128 0 0 97.4c-24.4-11.2-51.4-17.4-80-17.4-83.6 0-154.7 53.4-181.1 128l-90.9 0 0 128 90.9 0c6.1 17.3 14.6 33.4 25.1 48L0 512 0 128zm64 64l0 64 64 0 0-64-64 0zm0 128l0 64 64 0 0-64-64 0zM224 192a64 64 0 1 0 128 0 64 64 0 1 0 -128 0z"/><path fill="currentColor" d="M496 544a144 144 0 1 0 0-288 144 144 0 1 0 0 288zm60.9-182.6l-64 88-11 15.1c-4.4-4.4-22.1-22.1-53.2-53.2L417.4 400 440 377.4c5 5 17.7 17.7 38.1 38.1l53-72.9 9.4-12.9 25.9 18.8-9.4 12.9z"/></svg>