<svg xmlns="http://www.w3.org/2000/svg" viewBox="0 0 576 512"><!--! Font Awesome Pro 7.1.0 by @fontawesome - https://fontawesome.com License - https://fontawesome.com/license (Commercial License) Copyright 2025 Fonticons, Inc. --><path opacity=".4" fill="currentColor" d="M112 32l240 0c53 0 96 43 96 96l-48 32 48 32 0 160-64 0-32 48-32-48-96 0 0 72c0 30.9-25.1 56-56 56-2.7 0-5.4-.2-8-.6l0 .6-48 0 0-160 48-32-48-32 0-224z"/><path fill="currentColor" d="M0 96C0 60.7 28.7 32 64 32l48 0 0 160-112 0 0-96zM168 480c30.9 0 56-25.1 56-56l0-72 96 0 32 48 32-48 160 0 0 48c0 44.2-35.8 80-80 80l-296 0zm0 0l-8 0 0-.6c2.6 .4 5.3 .6 8 .6z"/></svg>