<svg xmlns="http://www.w3.org/2000/svg" viewBox="0 0 384 512"><!--! Font Awesome Pro 7.1.0 by @fontawesome - https://fontawesome.com License - https://fontawesome.com/license (Commercial License) Copyright 2025 Fonticons, Inc. --><path opacity=".4" fill="currentColor" d="M0 98.7l0 413.3 384 0 0-512-285.3 0-9.4 9.4-80 80-9.4 9.4zM112 64l48 0 0 96-48 0 0-96zm88 0l48 0 0 96-48 0 0-96zm88 0l48 0 0 96-48 0 0-96z"/><path fill="currentColor" d="M160 64l0 96-48 0 0-96 48 0zm88 0l0 96-48 0 0-96 48 0zm88 0l0 96-48 0 0-96 48 0z"/></svg>