<svg xmlns="http://www.w3.org/2000/svg" viewBox="0 0 448 512"><!--! Font Awesome Pro 7.1.0 by @fontawesome - https://fontawesome.com License - https://fontawesome.com/license (Commercial License) Copyright 2025 Fonticons, Inc. --><path opacity=".4" fill="currentColor" d="M0 160l0 384 352 0 0-48-304 0 0-336-48 0zM240 32l0 96 48 0 0-96-48 0zm96 0l0 96 48 0 0-96-48 0z"/><path fill="currentColor" d="M96 448l352 0 0-480-240 0-112 112 0 368zM288 56l0 72-48 0 0-96 48 0 0 24zm96 0l0 72-48 0 0-96 48 0 0 24z"/></svg>