<svg xmlns="http://www.w3.org/2000/svg" viewBox="0 0 576 512"><!--! Font Awesome Pro 7.1.0 by @fontawesome - https://fontawesome.com License - https://fontawesome.com/license (Commercial License) Copyright 2025 Fonticons, Inc. --><path opacity=".4" fill="currentColor" d="M64 32l0 448 112 0 0-16c0-40.5 18.8-76.5 48.1-100 2.1-68.9 58.6-124 127.9-124 33.3 0 63.6 12.7 86.3 33.5 5.8-1 11.7-1.5 17.7-1.5 20.6 0 39.8 6 56 16.3L512 32 64 32zm64 64l48 0 0 160-48 0 0-160zm96 0l48 0 0 115.2c-18 9.2-34.2 21.4-48 36L224 96z"/><path fill="currentColor" d="M224 544l0-80c0-33.9 21.1-62.9 50.9-74.5-1.9-6.8-2.9-14-2.9-21.5 0-44.2 35.8-80 80-80 30.8 0 57.5 17.4 70.9 42.8 9.3-6.8 20.7-10.8 33.1-10.8 34.2 0 60.9 32 55.2 65.4 36.9 7.1 64.8 39.6 64.8 78.6l0 80-352 0z"/></svg>