<svg xmlns="http://www.w3.org/2000/svg" viewBox="0 0 640 512"><!--! Font Awesome Pro 7.1.0 by @fontawesome - https://fontawesome.com License - https://fontawesome.com/license (Commercial License) Copyright 2025 Fonticons, Inc. --><path opacity=".4" fill="currentColor" d="M96 32l448 0 0 275.3-112-196-210.7 368.7-125.3 0 0-448zm64 64l0 160 48 0 0-160-48 0zm96 0l0 160 48 0 0-160-48 0z"/><path fill="currentColor" d="M432 208.1l-192 336 384 0-192-336zm16 112l0 112-32 0 0-112 32 0zM416 463.8l32 0 0 32-32 0 0-32z"/></svg>