<svg xmlns="http://www.w3.org/2000/svg" viewBox="0 0 512 512"><!--! Font Awesome Pro 7.1.0 by @fontawesome - https://fontawesome.com License - https://fontawesome.com/license (Commercial License) Copyright 2025 Fonticons, Inc. --><path opacity=".4" fill="currentColor" d="M159.6 184.1L289.3 112c3.7 22.1 15 41.7 31.1 55.9L190.7 240c-3.7-22.1-15-41.7-31.1-55.9zm0 143.9c16.1-14.2 27.4-33.8 31.1-55.9l129.7 72.1c-16.1 14.2-27.4 33.8-31.1 55.9L159.6 327.9z"/><path fill="currentColor" d="M288 96a96 96 0 1 1 192 0 96 96 0 1 1 -192 0zM0 256a96 96 0 1 1 192 0 96 96 0 1 1 -192 0zm384 64a96 96 0 1 1 0 192 96 96 0 1 1 0-192z"/></svg>