<svg xmlns="http://www.w3.org/2000/svg" viewBox="0 0 512 512"><!--! Font Awesome Pro 7.1.0 by @fontawesome - https://fontawesome.com License - https://fontawesome.com/license (Commercial License) Copyright 2025 Fonticons, Inc. --><path opacity=".4" fill="currentColor" d="M16.6 113L17.8 92.5 37 85c62.3-24.2 124.7-48.4 187.1-72.6 0 49.2 0 98.4 0 147.6-69 0-138.1 0-207.1 0-1.1-17.3-1.1-33.2-.3-47zm9 111c66.1 0 132.3 0 198.4 0 0 91.2 0 182.3 0 273.5l-1-.5C136.8 453.4 84.3 383.9 53.9 313.9 40.7 283.6 31.6 253 25.6 224zM288 12.4C350.4 36.6 412.8 60.8 475.1 85l19.2 7.4 1.2 20.5c.8 13.8 .8 29.7-.3 47-69.1 0-138.1 0-207.1 0 0-49.2 0-98.4 0-147.6zM288 224c66.2 0 132.3 0 198.4 0-6 29-15.1 59.6-28.3 89.9-30.5 70.2-83.3 139.9-170.2 183.5 0-91.1 0-182.3 0-273.5z"/><path fill="currentColor" d="M288 12.4c-15.1-5.9-25.8-10-32-12.4-6.2 2.4-16.9 6.6-32 12.4l0 147.6-207.1 0c1.3 19.8 4 41.4 8.7 64l198.4 0 0 273.5c6.3 3.1 12.7 6.1 19.3 9l12.7 5.5 12.7-5.5c6.6-2.9 13-5.9 19.3-9l0-273.5 198.4 0c4.7-22.6 7.4-44.2 8.7-64L288 160 288 12.4z"/></svg>