<svg xmlns="http://www.w3.org/2000/svg" viewBox="0 0 576 512"><!--! Font Awesome Pro 7.1.0 by @fontawesome - https://fontawesome.com License - https://fontawesome.com/license (Commercial License) Copyright 2025 Fonticons, Inc. --><path opacity=".4" fill="currentColor" d="M16 229.7l0 218.3 64 0 0-192 48 0 0 256 320 0 0-256 48 0 0 192 64 0 0-218.3-4.2-9.4-72-160-12.7-28.3-103 0c0 44.2-35.8 80-80 80s-80-35.8-80-80l-103 0-12.7 28.3-72 160-4.2 9.4z"/><path fill="currentColor" d="M208 32l160 0c0 44.2-35.8 80-80 80s-80-35.8-80-80z"/></svg>