<svg xmlns="http://www.w3.org/2000/svg" viewBox="0 0 640 512"><!--! Font Awesome Pro 7.1.0 by @fontawesome - https://fontawesome.com License - https://fontawesome.com/license (Commercial License) Copyright 2025 Fonticons, Inc. --><path opacity=".4" fill="currentColor" d="M0 176l0 208 640 0 0-8.1c0-53-32.6-100.5-82.1-119.5l-101.4-39c-30.1 30.1-49 49-56.5 56.5L366.1 240c9-9 25-25 48.1-48.1l-31.6-28.5c-35.1 35.1-55.9 55.9-62.5 62.5L286.1 192c6.9-6.9 27.1-27.1 60.7-60.7L272 64 224 64 192 176 0 176z"/><path fill="currentColor" d="M432 208l-17.9-16.1C391 215 375 231 366.1 240L400 273.9c7.6-7.6 26.4-26.4 56.5-56.5L432 208zm-49.5-44.6l-35.7-32.2c-33.6 33.6-53.9 53.9-60.7 60.7L320 225.9c6.6-6.6 27.4-27.4 62.5-62.5zM288 448l352 0 0-64-640 0 0 64 192 0 0-32 96 32z"/></svg>