<svg xmlns="http://www.w3.org/2000/svg" viewBox="0 0 576 512"><!--! Font Awesome Pro 7.0.1 by @fontawesome - https://fontawesome.com License - https://fontawesome.com/license (Commercial License) Copyright 2025 Fonticons, Inc. --><path style="fill:var(--fa-secondary-color,currentColor);opacity:var(--fa-secondary-opacity,.4)" d="M16.1 192l0 64 48 0 0 224 288 0 0-58.2-64-64 0 26.2-160 0 0-128 58.2 0-134.8-134.8-35.4 70.8z"/><path style="fill:var(--fa-primary-color,currentColor);opacity:var(--fa-primary-opacity,1)" d="M49.3-16.9l-17-17-33.9 33.9 17 17 512 512 17 17 33.9-33.9c-5.9-5.9-28-28-66.1-66.1l0-190 48 0 0-64-80-160-382 0-48.9-48.9zM322.2 256l126 0 0 126-126-126z"/></svg>