<svg xmlns="http://www.w3.org/2000/svg" viewBox="0 0 512 512"><!--! Font Awesome Pro 7.1.0 by @fontawesome - https://fontawesome.com License - https://fontawesome.com/license (Commercial License) Copyright 2025 Fonticons, Inc. --><path opacity=".4" fill="currentColor" d="M64 64l0 128 384 0 0-85.5c0-17-6.7-33.3-18.7-45.3L386.7 18.7C374.7 6.7 358.5 0 341.5 0L128 0C92.7 0 64 28.7 64 64zm0 320l0 104c0 13.3 10.7 24 24 24s24-10.7 24-24l0-104-48 0zm112 0l0 104c0 13.3 10.7 24 24 24s24-10.7 24-24l0-104-48 0zm112 0l0 104c0 13.3 10.7 24 24 24s24-10.7 24-24l0-104-48 0zm112 0l0 104c0 13.3 10.7 24 24 24s24-10.7 24-24l0-104-48 0z"/><path fill="currentColor" d="M64 192c-35.3 0-64 28.7-64 64l0 96c0 17.7 14.3 32 32 32l448 0c17.7 0 32-14.3 32-32l0-96c0-35.3-28.7-64-64-64L64 192zm368 56a24 24 0 1 1 0 48 24 24 0 1 1 0-48z"/></svg>