<svg xmlns="http://www.w3.org/2000/svg" viewBox="0 0 512 512"><!--! Font Awesome Pro 7.1.0 by @fontawesome - https://fontawesome.com License - https://fontawesome.com/license (Commercial License) Copyright 2025 Fonticons, Inc. --><path opacity=".4" fill="currentColor" d="M0 352l0 64 144 0 9.6-12.8 70.4-93.9c-13.3-17.8-26.7-35.6-40-53.3l-72 96-112 0zM224 202.7l40 53.3 72-96 48 0 0 72 128-104-128-104 0 72-80 0-9.6 12.8-70.4 93.9z"/><path fill="currentColor" d="M320 416l-16 0-9.6-12.8-182.4-243.2-112 0 0-64 144 0 9.6 12.8 182.4 243.2 48 0 0-72 128 104-128 104 0-72-64 0z"/></svg>