<svg xmlns="http://www.w3.org/2000/svg" viewBox="0 0 512 512"><!--! Font Awesome Pro 7.1.0 by @fontawesome - https://fontawesome.com License - https://fontawesome.com/license (Commercial License) Copyright 2025 Fonticons, Inc. --><path opacity=".4" fill="currentColor" d="M0 288l0 64 32 0 0 64c0 53 43 96 96 96l256 0c53 0 96-43 96-96l0-64 32 0 0-64-512 0z"/><path fill="currentColor" d="M288 96c0-17.7 14.3-32 32-32s32 14.3 32 32l0 32 64 0 0-32c0-53-43-96-96-96s-96 43-96 96l0 192 64 0 0-192zM56 208l-24 0 0 48 80 0 0 32 48 0 0-80-104 0zm320 0l-24 0 0 80 48 0 0-32 88 0 0-48-112 0z"/></svg>