<svg xmlns="http://www.w3.org/2000/svg" viewBox="0 0 512 512"><!--! Font Awesome Pro 7.1.0 by @fontawesome - https://fontawesome.com License - https://fontawesome.com/license (Commercial License) Copyright 2025 Fonticons, Inc. --><path opacity=".4" fill="currentColor" d="M0 448l480 0 0-96-144-64-80 0 0-48 90.7 0 10.7-48-85.3 0 0-48 96 0 32-144-64 0-8 32-74.2 0c-22.2 133.4-77.3 206.2-130.6 245.3-27.1 19.9-53 30.5-72.4 36.2-9.7 2.8-17.7 4.4-23.6 5.3-.9 .1-1.7 .2-2.5 .3L0 448zM34.6 268.2c.9-.2 1.9-.4 2.8-.7 14.9-4.3 35.5-12.7 57.4-28.8 40.9-30.1 89-89.2 110.3-206.7L80 32 34.6 268.2z"/><path fill="currentColor" d="M512 512l-512 0 0-64 512 0 0 64zM253.8 32c-22.2 133.4-77.3 206.2-130.6 245.3-27.1 19.9-53 30.5-72.4 36.2-9.7 2.8-17.7 4.4-23.6 5.3-.9 .1-1.7 .2-2.5 .3l9.8-51c.9-.2 1.9-.4 2.8-.7 14.9-4.3 35.5-12.7 57.4-28.8 40.9-30.1 89-89.2 110.3-206.7l48.7 0zM336 288l-80 0 0-48 90.7 0-10.7 48zm21.3-96l-85.3 0 0-48 96 0-10.7 48z"/></svg>