<svg xmlns="http://www.w3.org/2000/svg" viewBox="0 0 448 512"><!--! Font Awesome Pro 7.1.0 by @fontawesome - https://fontawesome.com License - https://fontawesome.com/license (Commercial License) Copyright 2025 Fonticons, Inc. --><path opacity=".4" fill="currentColor" d="M32 352c0 66.8 34.1 125.6 85.8 160l212.3 0c51.7-34.4 85.8-93.2 85.8-160 0-35-9.4-67.8-25.7-96L57.7 256C41.3 284.2 32 317 32 352zm144-40a24 24 0 1 1 -48 0 24 24 0 1 1 48 0zm16 71.6c0-17.5 14.2-31.6 31.6-31.6l.8 0c17.5 0 31.6 14.2 31.6 31.6 0 5.5-1.4 10.9-4.2 15.7L224 448 196.2 399.3c-2.7-4.8-4.2-10.2-4.2-15.7zM320 312a24 24 0 1 1 -48 0 24 24 0 1 1 48 0z"/><path fill="currentColor" d="M64 0l320 0 0 160-320 0 0-160zm88 288a24 24 0 1 1 0 48 24 24 0 1 1 0-48zm144 0a24 24 0 1 1 0 48 24 24 0 1 1 0-48zM32 192l416 0 0 64-448 0 0-64 32 0z"/></svg>