<svg xmlns="http://www.w3.org/2000/svg" viewBox="0 0 512 512"><!--! Font Awesome Pro 7.1.0 by @fontawesome - https://fontawesome.com License - https://fontawesome.com/license (Commercial License) Copyright 2025 Fonticons, Inc. --><path opacity=".4" fill="currentColor" d="M0 256c0 10.8 .7 21.4 2 31.9 72.4 25.2 159.6 40.1 254 40.1s181.6-14.9 254-40.1c1.3-10.5 2-21.1 2-31.9 0-10.8-.7-21.5-2-32l-62 0 0-64-96 0 0-64 64 0 0-39.9C372.2 21 316.5 0 256 0 114.6 0 0 114.6 0 256zm15 86.5c35.5 98.8 130 169.5 241 169.5 76.5 0 145.1-33.5 192-86.7l0-25.3-64 0 0-33c-40.9 5.9-83.9 9-128 9-87 0-169.2-12-241-33.5zM272 160a80 80 0 1 1 -160 0 80 80 0 1 1 160 0z"/><path fill="currentColor" d="M160 160a32 32 0 1 1 64 0 32 32 0 1 1 -64 0zm112 0a80 80 0 1 0 -160 0 80 80 0 1 0 160 0zM256 328c-94.4 0-181.6-14.9-254-40.1 2.4 18.9 6.8 37.2 13 54.6 71.8 21.4 154 33.5 241 33.5s169.2-12 241-33.5c6.3-17.4 10.7-35.7 13-54.6-72.4 25.2-159.6 40.1-254 40.1z"/></svg>