<svg xmlns="http://www.w3.org/2000/svg" viewBox="0 0 448 512"><!--! Font Awesome Pro 7.1.0 by @fontawesome - https://fontawesome.com License - https://fontawesome.com/license (Commercial License) Copyright 2025 Fonticons, Inc. --><path opacity=".4" fill="currentColor" d="M0 32l0 112 64 0 0-48 48 0 0-64-112 0zM0 368l0 112 112 0 0-64-48 0 0-48-64 0zM336 32l0 64 48 0 0 48 64 0 0-112-112 0zm0 384l0 64 112 0 0-112-64 0 0 48-48 0z"/><path fill="currentColor" d="M0 192l0 128 64 0 0-128-64 0zm384 0l0 128 64 0 0-128-64 0zM288 480l-128 0 0-64 128 0 0 64zM160 96l128 0 0-64-128 0 0 64z"/></svg>