<svg xmlns="http://www.w3.org/2000/svg" viewBox="0 0 448 512"><!--! Font Awesome Pro 7.1.0 by @fontawesome - https://fontawesome.com License - https://fontawesome.com/license (Commercial License) Copyright 2025 Fonticons, Inc. --><path opacity=".4" fill="currentColor" d="M0 32l0 448 448 0 0-448-448 0zm192 96l64 0 0 64-64 0 0-64zm0 96l64 0 0 64-64 0 0-64zm0 96l64 0 0 64-64 0 0-64z"/><path fill="currentColor" d="M256 128l0 64-64 0 0-64 64 0zm0 96l0 64-64 0 0-64 64 0zm0 160l-64 0 0-64 64 0 0 64z"/></svg>