<svg xmlns="http://www.w3.org/2000/svg" viewBox="0 0 448 512"><!--! Font Awesome Pro 7.1.0 by @fontawesome - https://fontawesome.com License - https://fontawesome.com/license (Commercial License) Copyright 2025 Fonticons, Inc. --><path opacity=".4" fill="currentColor" d="M0 32l0 448 448 0 0-448-448 0zM110.1 200c24.3-24.3 54.1-54.1 57.9-57.9l84 84c15.7-15.7 38.4-38.4 68-68l0 193.9-193.9 0c29.6-29.6 52.3-52.3 68-68l-84-84z"/><path fill="currentColor" d="M320 352l-193.9 0c29.6-29.6 52.3-52.3 68-68l-84-84c24.3-24.3 54.1-54.1 57.9-57.9l84 84c15.7-15.7 38.4-38.4 68-68L320 352z"/></svg>