<svg xmlns="http://www.w3.org/2000/svg" viewBox="0 0 448 512"><!--! Font Awesome Pro 7.0.1 by @fontawesome - https://fontawesome.com License - https://fontawesome.com/license (Commercial License) Copyright 2025 Fonticons, Inc. --><path style="fill:var(--fa-secondary-color,currentColor);opacity:var(--fa-secondary-opacity,.4)" d="M0 32l0 448 448 0 0-448-448 0zM128 288l32 0 0-160 160 0 0 48-112 0 0 40 80 0 0 48-80 0 0 24 48 0 0 32-48 0 0 64-48 0 0-64-32 0 0-32z"/><path style="fill:var(--fa-primary-color,currentColor);opacity:var(--fa-primary-opacity,1)" d="M184 128l-24 0 0 160-32 0 0 32 32 0 0 64 48 0 0-64 48 0 0-32-48 0 0-24 80 0 0-48-80 0 0-40 112 0 0-48-136 0z"/></svg>