<svg xmlns="http://www.w3.org/2000/svg" viewBox="0 0 448 512"><!--! Font Awesome Pro 7.1.0 by @fontawesome - https://fontawesome.com License - https://fontawesome.com/license (Commercial License) Copyright 2025 Fonticons, Inc. --><path opacity=".4" fill="currentColor" d="M0 32l448 0 0 448-448 0 0-448zM96 160l0 112 64 0 0 8c0 13.3-10.7 24-24 24l-24 0 0 48 24 0c39.8 0 72-32.2 72-72l0-120-112 0zm144 0l0 112 64 0 0 8c0 13.3-10.7 24-24 24l-24 0 0 48 24 0c39.8 0 72-32.2 72-72l0-120-112 0z"/><path fill="currentColor" d="M96 160l112 0 0 120c0 39.8-32.2 72-72 72l-24 0 0-48 24 0c13.3 0 24-10.7 24-24l0-8-64 0 0-112zm144 0l112 0 0 120c0 39.8-32.2 72-72 72l-24 0 0-48 24 0c13.3 0 24-10.7 24-24l0-8-64 0 0-112z"/></svg>