<svg xmlns="http://www.w3.org/2000/svg" viewBox="0 0 448 512"><!--! Font Awesome Pro 7.1.0 by @fontawesome - https://fontawesome.com License - https://fontawesome.com/license (Commercial License) Copyright 2025 Fonticons, Inc. --><path opacity=".4" fill="currentColor" d="M0 32l0 448 448 0 0-448-448 0zM64 184c0-22.1 17.9-40 40-40s40 17.9 40 40l0 32-32 0 0 80 32 0 0 32c0 22.1-17.9 40-40 40s-40-17.9-40-40l0-144zm96-40l48 0 0 88 16 0 0-88 48 0 0 224-48 0 0-88-16 0 0 88-48 0 0-224zm128 0l96 0 0 48-48 0 0 40 40 0 0 48-40 0 0 88-48 0 0-224z"/><path fill="currentColor" d="M64 184c0-22.1 17.9-40 40-40s40 17.9 40 40l0 32-32 0 0 80 32 0 0 32c0 22.1-17.9 40-40 40s-40-17.9-40-40l0-144zm144-40l0 88 16 0 0-88 48 0 0 224-48 0 0-88-16 0 0 88-48 0 0-224 48 0zm80 0l96 0 0 48-48 0 0 40 40 0 0 48-40 0 0 88-48 0 0-224z"/></svg>