<svg xmlns="http://www.w3.org/2000/svg" viewBox="0 0 448 512"><!--! Font Awesome Pro 7.1.0 by @fontawesome - https://fontawesome.com License - https://fontawesome.com/license (Commercial License) Copyright 2025 Fonticons, Inc. --><path opacity=".4" fill="currentColor" d="M0 32l0 448 448 0 0-448-448 0zm96 80c150.2 0 272 121.8 272 272l-48 0c0-123.7-100.3-224-224-224l0-48zm0 96c97.2 0 176 78.8 176 176l-48 0c0-70.7-57.3-128-128-128l0-48zm64 144a32 32 0 1 1 -64 0 32 32 0 1 1 64 0z"/><path fill="currentColor" d="M368 384c0-150.2-121.8-272-272-272l0 48c123.7 0 224 100.3 224 224l48 0zm-96 0c0-97.2-78.8-176-176-176l0 48c70.7 0 128 57.3 128 128l48 0zm-144 0a32 32 0 1 0 0-64 32 32 0 1 0 0 64z"/></svg>