<svg xmlns="http://www.w3.org/2000/svg" viewBox="0 0 448 512"><!--! Font Awesome Pro 7.0.1 by @fontawesome - https://fontawesome.com License - https://fontawesome.com/license (Commercial License) Copyright 2025 Fonticons, Inc. --><path style="fill:var(--fa-secondary-color,currentColor);opacity:var(--fa-secondary-opacity,.4)" d="M0 32l448 0 0 448-448 0 0-448zM48 160l0 192 48 0 0-72.9 32.4 72.9 47.6 0 0-192-48 0 0 72.9c-20.7-46.5-31.5-70.8-32.4-72.9L48 160zm160 0l0 192 48 0 0-64 64 0 0-48-64 0 0-32 80 0 0-48-128 0zm144 0l0 192 48 0 0-192-48 0z"/><path style="fill:var(--fa-primary-color,currentColor);opacity:var(--fa-primary-opacity,1)" d="M48 160l47.6 0c.9 2.1 11.7 26.4 32.4 72.9l0-72.9 48 0 0 192-47.6 0-32.4-72.9 0 72.9-48 0 0-192zm160 0l128 0 0 48-80 0 0 32 64 0 0 48-64 0 0 64-48 0 0-192zm192 24l0 168-48 0 0-192 48 0 0 24z"/></svg>