<svg xmlns="http://www.w3.org/2000/svg" viewBox="0 0 448 512"><!--! Font Awesome Pro 7.1.0 by @fontawesome - https://fontawesome.com License - https://fontawesome.com/license (Commercial License) Copyright 2025 Fonticons, Inc. --><path opacity=".4" fill="currentColor" d="M0 32l0 448 448 0 0-448-448 0zM128 240c0-53 43-96 96-96s96 43 96 96l0 32c0 53-43 96-96 96s-96-43-96-96l0-32zm48 0l0 32c0 26.5 21.5 48 48 48s48-21.5 48-48l0-32c0-26.5-21.5-48-48-48s-48 21.5-48 48z"/><path fill="currentColor" d="M128 240c0-53 43-96 96-96s96 43 96 96l0 32c0 53-43 96-96 96s-96-43-96-96l0-32zm96-48c-26.5 0-48 21.5-48 48l0 32c0 26.5 21.5 48 48 48s48-21.5 48-48l0-32c0-26.5-21.5-48-48-48z"/></svg>