<svg xmlns="http://www.w3.org/2000/svg" viewBox="0 0 448 512"><!--! Font Awesome Pro 7.1.0 by @fontawesome - https://fontawesome.com License - https://fontawesome.com/license (Commercial License) Copyright 2025 Fonticons, Inc. --><path opacity=".4" fill="currentColor" d="M0 32l0 448 448 0 0-448-448 0zM128 256l48 0 0 24c0 22.1 17.9 40 40 40s40-17.9 40-40l0-136 48 0 0 136c0 48.6-39.4 88-88 88s-88-39.4-88-88l0-24z"/><path fill="currentColor" d="M304 144l0 136c0 48.6-39.4 88-88 88s-88-39.4-88-88l0-24 48 0 0 24c0 22.1 17.9 40 40 40s40-17.9 40-40l0-136 48 0z"/></svg>