<svg xmlns="http://www.w3.org/2000/svg" viewBox="0 0 576 512"><!--! Font Awesome Pro 7.1.0 by @fontawesome - https://fontawesome.com License - https://fontawesome.com/license (Commercial License) Copyright 2025 Fonticons, Inc. --><path opacity=".4" fill="currentColor" d="M32 32l448 0 0 113c-5.2-.7-10.6-1-16-1-70.7 0-128 57.3-128 128l-3.5 0-54.9-114.4-6.5-13.6-30.2 0-6.5 13.6-96 200-5 10.4 53.2 0 15.4-32 102 0 0 144-272 0 0-448zM225 288l31-64.5 31 64.5-62 0z"/><path fill="currentColor" d="M432 272l0 48 64 0 0-48c0-17.7-14.3-32-32-32s-32 14.3-32 32zm-48 48l0-48c0-44.2 35.8-80 80-80s80 35.8 80 80l0 48 32 0 0 192-224 0 0-192 32 0z"/></svg>