<svg xmlns="http://www.w3.org/2000/svg" viewBox="0 0 448 512"><!--! Font Awesome Pro 7.1.0 by @fontawesome - https://fontawesome.com License - https://fontawesome.com/license (Commercial License) Copyright 2025 Fonticons, Inc. --><path opacity=".4" fill="currentColor" d="M0 32l0 448 448 0 0-448-448 0zM144 144l48 0 0 112 48 0 0-112 48 0 0 112 32 0 0 48-32 0 0 64-48 0 0-64-96 0 0-160z"/><path fill="currentColor" d="M192 168l0-24-48 0 0 160 96 0 0 64 48 0 0-64 32 0 0-48-32 0 0-112-48 0 0 112-48 0 0-88z"/></svg>