<svg xmlns="http://www.w3.org/2000/svg" viewBox="0 0 512 512"><!--! Font Awesome Pro 7.1.0 by @fontawesome - https://fontawesome.com License - https://fontawesome.com/license (Commercial License) Copyright 2025 Fonticons, Inc. --><path opacity=".4" fill="currentColor" d="M54.1 88c6.1 6.1 27.8 27.8 65 65l17 17 33.9-33.9c-6.1-6.1-27.8-27.8-65-65L88 54.1 54.1 88zm0 336L88 457.9c6.1-6.1 27.8-27.8 65-65l17-17-33.9-33.9c-6.1 6.1-27.8 27.8-65 65l-17 17zm288-288L376 169.9c6.1-6.1 27.8-27.8 65-65l17-17-33.9-33.9c-6.1 6.1-27.8 27.8-65 65l-17 17zm0 240c6.1 6.1 27.8 27.8 65 65l17 17 33.9-33.9c-6.1-6.1-27.8-27.8-65-65l-17-17-33.9 33.9z"/><path fill="currentColor" d="M192 320l-192-64 192-64 64-192 64 192 192 64-192 64-64 192-64-192z"/></svg>