<svg xmlns="http://www.w3.org/2000/svg" viewBox="0 0 512 512"><!--! Font Awesome Pro 7.1.0 by @fontawesome - https://fontawesome.com License - https://fontawesome.com/license (Commercial License) Copyright 2025 Fonticons, Inc. --><path opacity=".4" fill="currentColor" d="M214.1 72L248 105.9c8.8-8.8 25.1-25.1 49-49l17-17-33.9-33.9c-8.8 8.8-25.1 25.1-49 49l-17 17zm96 96l33.9 33.9 17-17 128-128 17-17-33.9-33.9-17 17-128 128-17 17zm96 96L440 297.9c8.8-8.8 25.1-25.1 49-49l17-17-33.9-33.9c-8.8 8.8-25.1 25.1-49 49l-17 17z"/><path fill="currentColor" d="M193.5 144L253.3 265.1 386.9 284.6 290.2 378.9 313 512 193.5 449.1 73.9 512 96.7 378.9 0 284.6 133.7 265.1 193.5 144z"/></svg>