<svg xmlns="http://www.w3.org/2000/svg" viewBox="0 0 512 512"><!--! Font Awesome Pro 7.1.0 by @fontawesome - https://fontawesome.com License - https://fontawesome.com/license (Commercial License) Copyright 2025 Fonticons, Inc. --><path opacity=".4" fill="currentColor" d="M214.8 414C274.6 403.2 320 350.9 320 288l0-32 40 0 4.8 6.4 43.2 57.6 39.1 0c-8 72-69 128-143.1 128-24 0-40.5-4.2-53.1-9.8-12.8-5.7-23.1-13.3-34.4-22.8-.6-.5-1.1-1-1.7-1.4z"/><path fill="currentColor" d="M192 0l0 160 81.1 0c22.1-38.3 63.5-64 110.9-64 70.7 0 128 57.3 128 128l0 80c0 114.9-93.1 208-208 208-32 0-57.5-5.8-78.9-15.2-21.2-9.3-36.9-21.7-49.6-32.2-1.8-1.5-3.6-3-5.3-4.4l0 0C148 441.5 136.6 432 112 432l-48 0 0 80-64 0 0-160 192 0c35.3 0 64-28.7 64-64l0-64-128 0 0-224 64 0zm22.8 414c.6 .5 1.1 1 1.7 1.4 11.4 9.5 21.6 17.1 34.4 22.8 12.6 5.5 29.1 9.8 53.1 9.8 79.5 0 144-64.5 144-144l0-80c0-35.3-28.7-64-64-64s-64 28.7-64 64l0 64c0 62.9-45.4 115.2-105.2 126z"/></svg>