<svg xmlns="http://www.w3.org/2000/svg" viewBox="0 0 512 512"><!--! Font Awesome Pro 7.1.0 by @fontawesome - https://fontawesome.com License - https://fontawesome.com/license (Commercial License) Copyright 2025 Fonticons, Inc. --><path opacity=".4" fill="currentColor" d="M0 424c0 22.1 15.1 37.4 29.8 47 15.2 9.9 35.5 17.5 57.8 23.3 45.1 11.7 105.3 17.8 168.4 17.8s123.3-6.1 168.4-17.8c22.4-5.8 42.6-13.3 57.8-23.3 14.7-9.6 29.8-24.9 29.8-47s-15.1-37.4-29.8-47c-15.2-9.9-35.5-17.5-57.8-23.3-30.9-8-68.8-13.4-109.9-16l-5.3 47.8c39.6 2.4 75.3 7.4 103.2 14.7 56.6 14.6 56.6 32.9 0 47.5-39.9 10.3-95.8 16.2-156.4 16.2s-116.5-5.9-156.4-16.2c-56.6-14.6-56.6-32.9 0-47.5 27.9-7.2 63.6-12.3 103.2-14.7-1.8-15.9-3.5-31.8-5.3-47.8-41.1 2.6-79 8-109.9 16-22.4 5.8-42.6 13.3-57.8 23.3-14.7 9.6-29.8 24.9-29.8 47z"/><path fill="currentColor" d="M256 0a64 64 0 1 1 0 128 64 64 0 1 1 0-128zM160 224c0-35.3 28.7-64 64-64l64 0c35.3 0 64 28.7 64 64l0 80-33.8 0-14.2 128-96 0-14.2-128-33.8 0 0-80z"/></svg>