<svg xmlns="http://www.w3.org/2000/svg" viewBox="0 0 576 512"><!--! Font Awesome Pro 7.0.0 by @fontawesome - https://fontawesome.com License - https://fontawesome.com/license (Commercial License) Copyright 2025 Fonticons, Inc. --><path style="fill:var(--fa-secondary-color,currentColor);opacity:var(--fa-secondary-opacity,.4)" d="M0 32l0 48 288 0 0-48-288 0zM96 448c0 35.3 28.7 64 64 64s64-28.7 64-64c0-7.6-1.3-14.9-3.7-21.6l67.7-43.6 67.7 43.6c-2.4 6.8-3.7 14-3.7 21.6 0 35.3 28.7 64 64 64s64-28.7 64-64-28.7-64-64-64c-9.9 0-19.3 2.2-27.6 6.3l-56-36 96.6-62.1c1.9-1.2 3.5-2.6 4.9-4.2l-87.2 0-58.7 37.8-58.7-37.8-87.2 0c1.4 1.6 3.1 3 4.9 4.2l96.6 62.1-56 36c-8.4-4-17.7-6.3-27.6-6.3-35.3 0-64 28.7-64 64z"/><path style="fill:var(--fa-primary-color,currentColor);opacity:var(--fa-primary-opacity,1)" d="M0 128l576 0 0 160-576 0z"/></svg>