<svg xmlns="http://www.w3.org/2000/svg" viewBox="0 0 512 512"><!--! Font Awesome Pro 7.0.1 by @fontawesome - https://fontawesome.com License - https://fontawesome.com/license (Commercial License) Copyright 2025 Fonticons, Inc. --><path style="fill:var(--fa-secondary-color,currentColor);opacity:var(--fa-secondary-opacity,.4)" d="M0 96l0 384 96 0 0-384-96 0zM144 0l0 480 224 0 0-480-224 0zm32 260l52 0 0-52 56 0 0 52 52 0 0 56-52 0 0 52-56 0 0-52-52 0 0-56zM192 48l128 0 0 48-128 0 0-48zM416 96l0 384 96 0 0-384-96 0z"/><path style="fill:var(--fa-primary-color,currentColor);opacity:var(--fa-primary-opacity,1)" d="M284 208l-56 0 0 52-52 0 0 56 52 0 0 52 56 0 0-52 52 0 0-56-52 0 0-52z"/></svg>