<svg xmlns="http://www.w3.org/2000/svg" viewBox="0 0 576 512"><!--! Font Awesome Pro 7.1.0 by @fontawesome - https://fontawesome.com License - https://fontawesome.com/license (Commercial License) Copyright 2025 Fonticons, Inc. --><path opacity=".4" fill="currentColor" d="M12 141.6c7.1 10.6 32.4 48.8 75.9 114.4-43.5 65.6-68.8 103.8-75.9 114.4 14.7 3 55.2 11.2 121.3 24.5l56.8-56.8c-18.6-22.2-29.8-50.9-29.8-82.2 0-70.7 57.3-128 128-128 31.3 0 59.9 11.2 82.2 29.8L427.2 101C413.8 34.9 405.6-5.5 402.6-20.2 392-13.2 353.8 12.1 288.2 55.7 222.6 12.1 184.5-13.2 173.8-20.2 171.3-7.7 162.2 37.2 146.6 114.3 69.4 130 24.5 139 12 141.6zM208.2 256c0 18 6 34.6 16 48l112-112c-13.4-10-30-16-48-16-44.2 0-80 35.8-80 80z"/><path fill="currentColor" d="M512.2 192a32 32 0 1 0 0-64 32 32 0 1 0 0 64zm-80 80a32 32 0 1 0 0-64 32 32 0 1 0 0 64zm112 48a32 32 0 1 0 -64 0 32 32 0 1 0 64 0zm-240 80a32 32 0 1 0 -64 0 32 32 0 1 0 64 0zm-80 80a32 32 0 1 0 -64 0 32 32 0 1 0 64 0zm128 32a32 32 0 1 0 0-64 32 32 0 1 0 0 64zm192-32a32 32 0 1 0 -64 0 32 32 0 1 0 64 0zm-112-48a32 32 0 1 0 0-64 32 32 0 1 0 0 64zm-48-112a32 32 0 1 0 -64 0 32 32 0 1 0 64 0z"/></svg>