<svg xmlns="http://www.w3.org/2000/svg" viewBox="0 0 576 512"><!--! Font Awesome Pro 7.1.0 by @fontawesome - https://fontawesome.com License - https://fontawesome.com/license (Commercial License) Copyright 2025 Fonticons, Inc. --><path opacity=".4" fill="currentColor" d="M12 349.6c7.1 10.6 32.4 48.8 75.9 114.4 24.1 0 48.2 0 72.3 0 0-70.7 57.3-128 128-128s128 57.3 128 128c24.1 0 48.2 0 72.3 0 43.5-65.7 68.8-103.8 75.9-114.4-12.5-2.5-57.4-11.6-134.6-27.2-15.6-77.2-24.7-122.1-27.2-134.6-10.6 7.1-48.8 32.4-114.4 75.9-65.6-43.5-103.8-68.8-114.4-75.9-2.5 12.5-11.6 57.4-27.2 134.6-77.2 15.6-122.1 24.7-134.6 27.2zM208.2 464c53.3 0 106.7 0 160 0 0-44.2-35.8-80-80-80s-80 35.8-80 80z"/><path fill="currentColor" d="M305.2-9l-17-17c-3.5 3.5-30.5 30.5-81 81l-17 17 33.9 33.9 40-40 0 126.1 48 0 0-126.1c16.4 16.4 29.7 29.7 40 40L386.2 72c-3.5-3.5-30.5-30.5-81-81zM56.2 464l-24 0 0 48 512 0 0-48-488 0z"/></svg>