<svg xmlns="http://www.w3.org/2000/svg" viewBox="0 0 512 512"><!--! Font Awesome Pro 7.1.0 by @fontawesome - https://fontawesome.com License - https://fontawesome.com/license (Commercial License) Copyright 2025 Fonticons, Inc. --><path opacity=".4" fill="currentColor" d="M95.8 512c6.8 0 13.3-.7 19.5-2 3.3-.6 6.2-1.4 9.1-2.3 9.1-2.8 17.5-6.9 25.2-12.1 5.1-3.4 9.8-7.3 14.1-11.6 17.4-17.4 28.2-41.4 28.2-67.9 0-76.6 0-153.3 0-230L322 56 457.8 191.8 165.7 483.9c-19.2 19.2-44.5 28.6-69.9 28.1zm109.6 0l192-192 114.6 0 0 192-306.5 0z"/><path fill="currentColor" d="M192 0L0 0 0 416c0 53 43 96 96 96s96-43 96-96L192 0zM128 64l0 64-64 0 0-64 64 0zM64 192l64 0 0 64-64 0 0-64zM96 392a24 24 0 1 1 0 48 24 24 0 1 1 0-48z"/></svg>