<svg xmlns="http://www.w3.org/2000/svg" viewBox="0 0 640 512"><!--! Font Awesome Pro 7.1.0 by @fontawesome - https://fontawesome.com License - https://fontawesome.com/license (Commercial License) Copyright 2025 Fonticons, Inc. --><path opacity=".4" fill="currentColor" d="M0-24L263.1 272 418 272 40-64 0-24zM355.3 153.5L426.9 215.8 640-24 600-64 355.3 153.5z"/><path fill="currentColor" d="M182.1 297.9l96 96-26.7 26.7-96-96 26.7-26.7zm46.6 145.4l-25.4 25.4-96-96 25.4-25.4 96 96zM0 480l84.7-84.7 96 96-84.7 84.7-96-96zm396.7-35.3l112-112-60.7-60.7-224 0 172.7 172.7zM640 464L595.3 508.7 486.6 400 531.3 355.3 640 464zM528 576L572.7 531.3 464 422.6 419.3 467.3 528 576z"/></svg>