<svg xmlns="http://www.w3.org/2000/svg" viewBox="0 0 512 512"><!--! Font Awesome Pro 7.1.0 by @fontawesome - https://fontawesome.com License - https://fontawesome.com/license (Commercial License) Copyright 2025 Fonticons, Inc. --><path opacity=".4" fill="currentColor" d="M224 144c0 31.1 9.9 59.9 26.6 83.4L451.4 26.6C427.9 9.9 399.1 0 368 0 288.5 0 224 64.5 224 144zm60.6 117.4c23.5 16.8 52.3 26.6 83.4 26.6 79.5 0 144-64.5 144-144 0-31.1-9.9-59.9-26.6-83.4L284.6 261.4z"/><path fill="currentColor" d="M278.7 316.9c-37.4-18.1-68-48-87-84.8-14.9-5.2-30.9-8.1-47.6-8.1-71.4 0-130.6 51.9-142 120l284 0c-1.6-9.4-4.1-18.5-7.3-27.1zM144 512c71.4 0 130.6-51.9 142-120L2 392c11.4 68.1 70.7 120 142 120z"/></svg>