<svg xmlns="http://www.w3.org/2000/svg" viewBox="0 0 576 512"><!--! Font Awesome Pro 7.0.1 by @fontawesome - https://fontawesome.com License - https://fontawesome.com/license (Commercial License) Copyright 2025 Fonticons, Inc. --><path style="fill:var(--fa-secondary-color,currentColor);opacity:var(--fa-secondary-opacity,.4)" d="M0 64l576 0 0 384-576 0 0-384zm64 64l0 96 224 0 0-96-224 0zm0 160a24 24 0 1 0 48 0 24 24 0 1 0 -48 0zm0 64l0 48 184 0 0-48-184 0zm80-64a24 24 0 1 0 48 0 24 24 0 1 0 -48 0zm80 0a24 24 0 1 0 48 0 24 24 0 1 0 -48 0zm96 64l0 48 192 0 0-48-192 0zm48-160a64 64 0 1 0 128 0 64 64 0 1 0 -128 0z"/><path style="fill:var(--fa-primary-color,currentColor);opacity:var(--fa-primary-opacity,1)" d="M64 128l224 0 0 96-224 0 0-96zm304 64a64 64 0 1 1 128 0 64 64 0 1 1 -128 0zM88 264a24 24 0 1 1 0 48 24 24 0 1 1 0-48zm56 24a24 24 0 1 1 48 0 24 24 0 1 1 -48 0zm104-24a24 24 0 1 1 0 48 24 24 0 1 1 0-48z"/></svg>