<svg xmlns="http://www.w3.org/2000/svg" viewBox="0 0 320 512"><!--! Font Awesome Pro 7.1.0 by @fontawesome - https://fontawesome.com License - https://fontawesome.com/license (Commercial License) Copyright 2025 Fonticons, Inc. --><path opacity=".4" fill="currentColor" d="M0 16l28.8 216 68 0c-.2-1.8-.4-3.5-.6-5.3l-20-160.2-2.5-19.8 39.7-5 2.5 19.8 20 160.2c.4 3.4 .8 6.8 1.1 10.2l46.1 0c.3-3.4 .7-6.8 1.1-10.2l20-160.2 2.5-19.8 39.7 5-2.5 19.8-20 160.2c-.2 1.8-.4 3.5-.6 5.3l68 0 28.8-216S272-32 160-32 0 16 0 16zM0 496s48 48 160 48 160-48 160-48l-28.8-216-68 0c.2 1.8 .4 3.5 .6 5.3l20 160.2 2.5 19.8-39.7 5-2.5-19.8-12.9-103.3-10 5c-7.2-14.4-14.3-28.6-21.3-42.5-7 14-14.1 28.2-21.3 42.5l-10-5-12.9 103.3-2.5 19.8-39.7-5 2.5-19.8 20-160.2c.2-1.8 .4-3.5 .6-5.3L28.8 280 0 496z"/><path fill="currentColor" d="M32 232l-24 0 0 48 113.2 0c-10.4 20.8-18.9 37.7-25.4 50.7l42.9 21.5c7.2-14.4 14.3-28.6 21.3-42.5 7 14 14.1 28.2 21.3 42.5l42.9-21.5-25.4-50.7 113.2 0 0-48-280 0z"/></svg>