<svg xmlns="http://www.w3.org/2000/svg" viewBox="0 0 576 512"><!--! Font Awesome Pro 7.1.0 by @fontawesome - https://fontawesome.com License - https://fontawesome.com/license (Commercial License) Copyright 2025 Fonticons, Inc. --><path opacity=".4" fill="currentColor" d="M96 256a160 160 0 1 0 320 0 160 160 0 1 0 -320 0zm240 0a80 80 0 1 1 -160 0 80 80 0 1 1 160 0z"/><path fill="currentColor" d="M96 256a160 160 0 1 1 320 0 160 160 0 1 1 -320 0zM412.8 416c41.5-40.7 67.2-97.3 67.2-160 0-123.7-100.3-224-224-224S32 132.3 32 256 132.3 480 256 480l320 0 0-64-163.2 0z"/></svg>