<svg xmlns="http://www.w3.org/2000/svg" viewBox="0 0 576 512"><!--! Font Awesome Pro 7.1.0 by @fontawesome - https://fontawesome.com License - https://fontawesome.com/license (Commercial License) Copyright 2025 Fonticons, Inc. --><path opacity=".4" fill="currentColor" d="M256.3 368c0 79.5 64.5 144 144 144s144-64.5 144-144c0-42.6-18.5-81-48-107.3l0-260.7-192 0 0 260.7c-29.5 26.4-48 64.7-48 107.3zm80 0c0-26.9 16.5-49.9 40-59.3l0-236.7 48 0 0 236.7c23.5 9.5 40 32.5 40 59.3 0 35.3-28.7 64-64 64s-64-28.7-64-64z"/><path fill="currentColor" d="M256.3 73.4l-16-16c-7.3 7.3-15.3 15.3-24 24l0-49.4-48 0 0 49.4c-8.7-8.7-16.7-16.7-24-24l-22.6 22.6 46.6 46.6 0 55.8-48.3-27.9c-10.1-37.6-15.8-58.9-17.1-63.7L72 99.1c2.7 10 5.6 20.9 8.8 32.8-14.8-8.6-29.1-16.8-42.8-24.7L14 148.8c13.7 7.9 27.9 16.1 42.8 24.7-11.9 3.2-22.8 6.1-32.8 8.8l8.3 30.9c4.8-1.3 26.1-7 63.7-17.1l48.3 27.9-48.3 27.9c-37.6-10.1-58.9-15.8-63.7-17.1L24 265.7c10 2.7 20.9 5.6 32.8 8.8-14.8 8.6-29.1 16.8-42.8 24.7l24 41.6c13.7-7.9 27.9-16.1 42.8-24.7-3.2 11.9-6.1 22.8-8.8 32.8l30.9 8.3c1.3-4.8 7-26.1 17.1-63.7l48.3-27.9 0 55.8c-27.5 27.5-43.1 43.1-46.6 46.6l22.6 22.6c7.3-7.3 15.3-15.3 24-24l0 49.4 46 0c-3.9-15.3-6-31.4-6-48 0-19.1 2.8-37.6 8-55l0-47.5 16.1 9.3c6.8-12.2 14.8-23.5 23.9-33.8l0-7.8-16-9.2 16-9.2 0-55.4-40 23.1 0-55.8 35.3-35.3 4.7-4.7 0-13.3zM424.3 256l-48 0 0 52.7c-23.5 9.5-40 32.5-40 59.3 0 35.3 28.7 64 64 64s64-28.7 64-64c0-26.9-16.5-49.9-40-59.3l0-52.7z"/></svg>