<svg xmlns="http://www.w3.org/2000/svg" viewBox="0 0 640 512"><!--! Font Awesome Pro 7.1.0 by @fontawesome - https://fontawesome.com License - https://fontawesome.com/license (Commercial License) Copyright 2025 Fonticons, Inc. --><path opacity=".4" fill="currentColor" d="M164.5 448l218.8 0 0-160 94.3 160 130.9 0-29.7-202.7-195.4-117.3-193.1 117.3-25.7 202.7z"/><path fill="currentColor" d="M145.4 193l-17 17c-2.1-2.1-31.8-31.8-89-89l-17-17 33.9-33.9c9 9 25 25 48 48l0-126.1 48 0 0 126.1 48-48 33.9 33.9-89 89zm-81 255l544 0 0 64-576 0 0-64 32 0z"/></svg>