<svg xmlns="http://www.w3.org/2000/svg" viewBox="0 0 576 512"><!--! Font Awesome Pro 7.1.0 by @fontawesome - https://fontawesome.com License - https://fontawesome.com/license (Commercial License) Copyright 2025 Fonticons, Inc. --><path opacity=".4" fill="currentColor" d="M128.1 416l0 64 224 0 0-58.2-5.8-5.8-68.4 0 15.1-53.3-51.9-51.9-29.7 105.2-83.3 0z"/><path fill="currentColor" d="M32.3-33.9c1.1 1.1 32.9 32.9 95.4 95.4 .1-.4 2.6-10.3 7.4-29.6l418 0c-5.6 22.5-14.3 57.1-25.9 103.8l-6.1 24.2-66 0c7.3-29.1 12.6-50.4 16-64l-102.8 0-45.4 160.7 255.3 255.3-33.9 33.9-17-17-512-512-17-17 33.9-33.9zM271.1 204.9l30.8-108.9-116.7 0-4.6 18.4 90.5 90.5z"/></svg>