<svg xmlns="http://www.w3.org/2000/svg" viewBox="0 0 512 512"><!--! Font Awesome Pro 7.1.0 by @fontawesome - https://fontawesome.com License - https://fontawesome.com/license (Commercial License) Copyright 2025 Fonticons, Inc. --><path opacity=".4" fill="currentColor" d="M0 448l0 64 64 0 0-64-64 0zm104-56l0 80 80 0 0-80-80 0z"/><path fill="currentColor" d="M256 0c-53.7 0-99.7 33.1-118.7 80L128 80C57.3 80 0 137.3 0 208S57.3 336 128 336l44.8 0c16.6 28.7 47.6 48 83.2 48s66.6-19.3 83.2-48l44.8 0c70.7 0 128-57.3 128-128S454.7 80 384 80l-9.3 0c-19-46.9-65-80-118.7-80z"/></svg>