<svg xmlns="http://www.w3.org/2000/svg" viewBox="0 0 640 512"><!--! Font Awesome Pro 7.1.0 by @fontawesome - https://fontawesome.com License - https://fontawesome.com/license (Commercial License) Copyright 2025 Fonticons, Inc. --><path opacity=".4" fill="currentColor" d="M96 32l512 0 0 128c-26.5 0-48 21.5-48 48s21.5 48 48 48l0 128-512 0 0-128c26.5 0 48-21.5 48-48s-21.5-48-48-48L96 32zm96 64l0 224 320 0 0-224-320 0zm48 48l224 0 0 128-224 0 0-128z"/><path fill="currentColor" d="M240 144l224 0 0 128-224 0 0-128zM192 96l0 224 320 0 0-224-320 0zM48 152l0-24-48 0 0 352 512 0 0-48-464 0 0-280z"/></svg>