<svg xmlns="http://www.w3.org/2000/svg" viewBox="0 0 512 512"><!--! Font Awesome Pro 7.1.0 by @fontawesome - https://fontawesome.com License - https://fontawesome.com/license (Commercial License) Copyright 2025 Fonticons, Inc. --><path opacity=".4" fill="currentColor" d="M3.3 305.3C8.6 353.9 31.4 404.3 80 454l0 58 64 0 0-32 32 0 0 32 64 0 0-32 32 0 0 32 64 0 0-32 32 0 0 32 64 0 0-58c48.7-49.7 71.4-100.1 76.8-148.7 5.9-53.6-9.9-100.6-27.5-136.2-19.2-38.8-33.3-78.6-33.3-122.7l0-46.5-64 0 0 46.5c0 54 16.4 103.3 39.9 151 14.7 29.7 25.3 64 21.3 100.9-3.7 34-20.4 74.1-65.7 117.7l-246.8 0c-45.3-43.6-62-83.7-65.7-117.7-4.1-36.9 6.6-71.1 21.3-100.9 23.5-47.7 39.9-97 39.9-151L128 0 64 0 64 46.5c0 44-14.1 83.8-33.3 122.7-17.5 35.6-33.4 82.6-27.5 136.2z"/><path fill="currentColor" d="M280 136l0-24-48 0 0 144 48 0 0-120zm0 160l-48 0 0 48 48 0 0-48z"/></svg>