<svg xmlns="http://www.w3.org/2000/svg" viewBox="0 0 576 512"><!--! Font Awesome Pro 7.1.0 by @fontawesome - https://fontawesome.com License - https://fontawesome.com/license (Commercial License) Copyright 2025 Fonticons, Inc. --><path opacity=".4" fill="currentColor" d="M32.1 224c0 106 43 192 96 192l218.2 0-298.2-298.2c-10.1 30.4-16 66.9-16 106.2zm128 240l0 80 314.2 0-80-80-234.2 0z"/><path fill="currentColor" d="M32.3-33.8l-33.9 33.9 545.9 545.9 33.9-33.9-34.1-34.1 0-254c0-106-43-192-96-192s-96 86-96 192c0 24 2.2 47 6.2 68.2l-54-54c-.2-4.7-.2-9.4-.2-14.2 0-58.9 11.8-114.5 33.2-157.2 5.8-11.7 13.1-23.7 21.9-34.8L128.1 32c-8.3 0-16.3 2.1-23.9 6L32.3-33.8zM448.1 288c-17.7 0-32-28.7-32-64s14.3-64 32-64 32 28.7 32 64-14.3 64-32 64z"/></svg>