<svg xmlns="http://www.w3.org/2000/svg" viewBox="0 0 512 512"><!--! Font Awesome Pro 7.1.0 by @fontawesome - https://fontawesome.com License - https://fontawesome.com/license (Commercial License) Copyright 2025 Fonticons, Inc. --><path opacity=".4" fill="currentColor" d="M0 224C0 118 43 32 96 32l320 0c-53 0-96 86-96 192 0 1.3 0 2.6 0 3.9 1 104.2 43.6 188.1 96 188.1L96 416C43 416 0 330 0 224zm75.1-50.9c8.5 8.5 25.5 25.5 50.9 50.9-25.5 25.5-42.4 42.4-50.9 50.9l33.9 33.9c8.5-8.5 25.5-25.5 50.9-50.9 25.5 25.5 42.4 42.4 50.9 50.9l33.9-33.9c-8.5-8.5-25.5-25.5-50.9-50.9 25.5-25.5 42.4-42.4 50.9-50.9l-33.9-33.9c-8.5 8.5-25.5 25.5-50.9 50.9-25.5-25.5-42.4-42.4-50.9-50.9L75.1 173.1z"/><path fill="currentColor" d="M320 227.9c1 104.2 43.6 188.1 96 188.1l-256 0 0 128 352 0 0-320c0-106-43-192-96-192s-96 86-96 192c0 1.3 0 2.6 0 3.9zM448 224c0 35.3-14.3 64-32 64s-32-28.7-32-64 14.3-64 32-64 32 28.7 32 64zM244.9 173.1l-33.9-33.9c-8.5 8.5-25.5 25.5-50.9 50.9-25.5-25.5-42.4-42.4-50.9-50.9L75.1 173.1c8.5 8.5 25.5 25.5 50.9 50.9-25.5 25.5-42.4 42.4-50.9 50.9l33.9 33.9c8.5-8.5 25.5-25.5 50.9-50.9 25.5 25.5 42.4 42.4 50.9 50.9l33.9-33.9c-8.5-8.5-25.5-25.5-50.9-50.9 25.5-25.5 42.4-42.4 50.9-50.9z"/></svg>