<svg xmlns="http://www.w3.org/2000/svg" viewBox="0 0 448 512"><!--! Font Awesome Pro 7.0.1 by @fontawesome - https://fontawesome.com License - https://fontawesome.com/license (Commercial License) Copyright 2025 Fonticons, Inc. --><path style="fill:var(--fa-secondary-color,currentColor);opacity:var(--fa-secondary-opacity,.4)" d="M32 192C32 86 118 0 224 0S416 86 416 192l0 256-384 0 0-256zm96-32l0 48 72 0 0 144 48 0 0-144 72 0 0-48-72 0 0-64-48 0 0 64-72 0z"/><path style="fill:var(--fa-primary-color,currentColor);opacity:var(--fa-primary-opacity,1)" d="M248 120l0-24-48 0 0 64-72 0 0 48 72 0 0 144 48 0 0-144 72 0 0-48-72 0 0-40zM32 448l-32 0 0 64 448 0 0-64-416 0z"/></svg>