<svg xmlns="http://www.w3.org/2000/svg" viewBox="0 0 576 512"><!--! Font Awesome Pro 7.1.0 by @fontawesome - https://fontawesome.com License - https://fontawesome.com/license (Commercial License) Copyright 2025 Fonticons, Inc. --><path opacity=".4" fill="currentColor" d="M32 256l0 160 48 0 0-160-48 0zm80 0l0 160 48 0 0-160-48 0zm80 0l0 160 48 0 0-160-48 0zm80 0l0 160 48 0 0-160-48 0zm80 0l0 160 48 0 0-160-48 0z"/><path fill="currentColor" d="M0 160c0-35.3 28.7-64 64-64l224 0c37.7 0 40-33.2 40-64 57.4 0 120 31.6 120 96 0 53-43 96-96 96L0 224 0 160zM32 416l544 0 0 64-576 0 0-64 32 0z"/></svg>