<svg xmlns="http://www.w3.org/2000/svg" viewBox="0 0 448 512"><!--! Font Awesome Pro 7.1.0 by @fontawesome - https://fontawesome.com License - https://fontawesome.com/license (Commercial License) Copyright 2025 Fonticons, Inc. --><path opacity=".4" fill="currentColor" d="M77 448l32-192 48.7 0-3.5 21.2 69.9 49.9 69.9-49.9-3.5-21.2 48.7 0 32 192-60.3 0-86.7-61.9-86.7 61.9-60.3 0zm58.3-57.5l47.5-33.9-37.4-26.7-10.1 60.6zm130-33.9l47.5 33.9-10.1-60.6-37.4 26.7z"/><path fill="currentColor" d="M32 96l192-96 192 96 0 48-32 0 0 112-320 0 0-112-32 0 0-48zm0 352l416 0 0 64-448 0 0-64 32 0zM320 176l0-48-192 0 0 48 192 0z"/></svg>