<svg xmlns="http://www.w3.org/2000/svg" viewBox="0 0 320 512"><!--! Font Awesome Pro 7.0.1 by @fontawesome - https://fontawesome.com License - https://fontawesome.com/license (Commercial License) Copyright 2025 Fonticons, Inc. --><path style="fill:var(--fa-secondary-color,currentColor);opacity:var(--fa-secondary-opacity,.4)" d="M0-32l0 576 320 0 0-576-320 0zM216 96a56 56 0 1 1 -112 0 56 56 0 1 1 112 0zm0 160a56 56 0 1 1 -112 0 56 56 0 1 1 112 0zM104 416c0-30.9 25.1-56 56-56s56 25.1 56 56-25.1 56-56 56-56-25.1-56-56z"/><path style="fill:var(--fa-primary-color,currentColor);opacity:var(--fa-primary-opacity,1)" d="M216 96a56 56 0 1 1 -112 0 56 56 0 1 1 112 0z"/></svg>