<svg xmlns="http://www.w3.org/2000/svg" viewBox="0 0 448 512"><!--! Font Awesome Pro 7.1.0 by @fontawesome - https://fontawesome.com License - https://fontawesome.com/license (Commercial License) Copyright 2025 Fonticons, Inc. --><path opacity=".4" fill="currentColor" d="M32 96l384 0-24 416-336 0-24-416zm81.6 168l0 48 86.4 0 0 86.4 48 0 0-86.4 86.4 0 0-48-86.4 0 0-86.4-48 0 0 86.4-86.4 0z"/><path fill="currentColor" d="M144-16l160 0 16 48 128 0 0 64-448 0 0-64 128 0 16-48zm56 414.4l0-86.4-86.4 0 0-48 86.4 0 0-86.4 48 0 0 86.4 86.4 0 0 48-86.4 0 0 86.4-48 0z"/></svg>