<svg xmlns="http://www.w3.org/2000/svg" viewBox="0 0 640 512"><!--! Font Awesome Pro 7.1.0 by @fontawesome - https://fontawesome.com License - https://fontawesome.com/license (Commercial License) Copyright 2025 Fonticons, Inc. --><path opacity=".4" fill="currentColor" d="M64 96l0 416 352 0 0-416-352 0zm96 64l48 0 0 288-48 0 0-288zm112 0l48 0 0 288-48 0 0-288z"/><path fill="currentColor" d="M144-16l192 0 16 48 96 0 0 64-416 0 0-64 96 0 16-48zM640 128l0 64-160 0 0-64 160 0zM608 256l0 64-128 0 0-64 128 0zM480 384l64 0 0 64-64 0 0-64z"/></svg>