<svg xmlns="http://www.w3.org/2000/svg" viewBox="0 0 576 512"><!--! Font Awesome Pro 7.1.0 by @fontawesome - https://fontawesome.com License - https://fontawesome.com/license (Commercial License) Copyright 2025 Fonticons, Inc. --><path opacity=".4" fill="currentColor" d="M64 424a88 88 0 1 0 176 .1 88 88 0 1 0 -176-.1zm128 0a40 40 0 1 1 -80 0 40 40 0 1 1 80 0zm144 0a88 88 0 1 0 176 .1 88 88 0 1 0 -176-.1zm128 0a40 40 0 1 1 -80 0 40 40 0 1 1 80 0z"/><path fill="currentColor" d="M0 32l416 0 0 96 77.3 0 9.4 9.4 64 64 9.4 9.4 0 237.3-67.3 0c2.2-7.6 3.3-15.7 3.3-24 0-48.6-39.4-88-88-88s-88 39.4-88 88c0 8.3 1.2 16.4 3.3 24l-102.6 0c2.2-7.6 3.3-15.7 3.3-24 0-48.6-39.4-88-88-88s-88 39.4-88 88c0 8.3 1.2 16.4 3.3 24L0 448 0 32zM512 288l0-50.7-45.3-45.3-50.7 0 0 96 96 0z"/></svg>