<svg xmlns="http://www.w3.org/2000/svg" viewBox="0 0 448 512"><!--! Font Awesome Pro 7.1.0 by @fontawesome - https://fontawesome.com License - https://fontawesome.com/license (Commercial License) Copyright 2025 Fonticons, Inc. --><path opacity=".4" fill="currentColor" d="M32 448l0 64 96 0 0-64-96 0zM96 160l0 96 256 0 0-96-256 0zM320 448l0 64 96 0 0-64-96 0z"/><path fill="currentColor" d="M448 32l-448 0 0 416 448 0 0-416zM96 256l0-96 256 0 0 96-256 0zM64 352a32 32 0 1 1 64 0 32 32 0 1 1 -64 0zm288-32a32 32 0 1 1 0 64 32 32 0 1 1 0-64z"/></svg>