<svg xmlns="http://www.w3.org/2000/svg" viewBox="0 0 576 512"><!--! Font Awesome Pro 7.0.1 by @fontawesome - https://fontawesome.com License - https://fontawesome.com/license (Commercial License) Copyright 2025 Fonticons, Inc. --><path style="fill:var(--fa-secondary-color,currentColor);opacity:var(--fa-secondary-opacity,.4)" d="M0 32l416 0 0 96 77.3 0 9.4 9.4 64 64 9.4 9.4 0 237.3-67.3 0c-10.4 36.9-44.4 64-84.7 64s-74.2-27.1-84.7-64l-102.6 0c-10.4 36.9-44.4 64-84.7 64s-74.2-27.1-84.7-64L0 448 0 32zM112 424a40 40 0 1 0 80 0 40 40 0 1 0 -80 0zm8-248l0 64 56 0 0 56 64 0 0-56 56 0 0-64-56 0 0-56-64 0 0 56-56 0zM384 424a40 40 0 1 0 80 0 40 40 0 1 0 -80 0zm32-232l0 96 96 0 0-50.7-45.3-45.3-50.7 0z"/><path style="fill:var(--fa-primary-color,currentColor);opacity:var(--fa-primary-opacity,1)" d="M240 120l-64 0 0 56-56 0 0 64 56 0 0 56 64 0 0-56 56 0 0-64-56 0 0-56z"/></svg>