<svg xmlns="http://www.w3.org/2000/svg" viewBox="0 0 640 512"><!--! Font Awesome Pro 7.1.0 by @fontawesome - https://fontawesome.com License - https://fontawesome.com/license (Commercial License) Copyright 2025 Fonticons, Inc. --><path opacity=".4" fill="currentColor" d="M32 392c0 48.6 39.4 88 88 88s88-39.4 88-88c0-2.7-.1-5.4-.4-8-4-44.9-41.7-80-87.6-80s-83.6 35.1-87.6 80c-.2 2.6-.4 5.3-.4 8zm128 0a40 40 0 1 1 -80 0 40 40 0 1 1 80 0zm144 0c0 48.6 39.4 88 88 88s88-39.4 88-88-39.4-88-88-88c-45.9 0-83.6 35.1-87.6 80-.2 2.6-.4 5.3-.4 8zm128 0a40 40 0 1 1 -80 0 40 40 0 1 1 80 0zm48-128l0 48 48 0 0 80c0 48.6 39.4 88 88 88l24 0 0-48-24 0c-22.1 0-40-17.9-40-40l0-208c0-22.1 17.9-40 40-40l24 0 0-48-24 0c-48.6 0-88 39.4-88 88l0 80-48 0z"/><path fill="currentColor" d="M267.8 96l57.6 96-133.4 0 0-96 75.8 0zM128 96l0 96-128 0 0 192 32.4 0c4-44.9 41.7-80 87.6-80s83.6 35.1 87.6 80l96.7 0c4-44.9 41.7-80 87.6-80 48.6 0 88 39.4 88 88l0-200-80 0-96-160-176 0 0 64z"/></svg>