<svg xmlns="http://www.w3.org/2000/svg" viewBox="0 0 576 512"><!--! Font Awesome Pro 7.1.0 by @fontawesome - https://fontawesome.com License - https://fontawesome.com/license (Commercial License) Copyright 2025 Fonticons, Inc. --><path opacity=".4" fill="currentColor" d="M48 392c0-2.7 .1-5.4 .4-8 4-44.9 41.7-80 87.6-80s83.6 35.1 87.6 80c.2 2.6 .4 5.3 .4 8 0 48.6-39.4 88-88 88s-88-39.4-88-88zm48 0a40 40 0 1 0 80 0 40 40 0 1 0 -80 0zm256 0c0-2.7 .1-5.4 .4-8 4-44.9 41.7-80 87.6-80s83.6 35.1 87.6 80c.2 2.6 .4 5.3 .4 8 0 48.6-39.4 88-88 88s-88-39.4-88-88zm48 0a40 40 0 1 0 80 0 40 40 0 1 0 -80 0z"/><path fill="currentColor" d="M96 32l-20.3 0-8.6 18.4-64 136-2.6 5.6-.4 0 0 192 48.4 0c4-44.9 41.7-80 87.6-80s83.6 35.1 87.6 80l128.7 0c4-44.9 41.7-80 87.6-80s83.6 35.1 87.6 80l48.4 0 0-192-85.1 0-78.9-143.4-9.1-16.6-306.9 0zM417.9 192l-161.9 0 0-96 109.1 0 52.8 96zM192 192l-120.9 0 45.2-96 75.7 0 0 96z"/></svg>