<svg xmlns="http://www.w3.org/2000/svg" viewBox="0 0 384 512"><!--! Font Awesome Pro 7.0.1 by @fontawesome - https://fontawesome.com License - https://fontawesome.com/license (Commercial License) Copyright 2025 Fonticons, Inc. --><path style="fill:var(--fa-secondary-color,currentColor);opacity:var(--fa-secondary-opacity,.4)" d="M0 0l0 64 32 0 0 160c0 88.4 71.6 160 160 160s160-71.6 160-160l0-160 32 0 0-64-128 0 0 64 32 0 0 160c0 53-43 96-96 96s-96-43-96-96l0-160 32 0 0-64-128 0z"/><path style="fill:var(--fa-primary-color,currentColor);opacity:var(--fa-primary-opacity,1)" d="M0 448l384 0 0 64-384 0 0-64z"/></svg>