<svg xmlns="http://www.w3.org/2000/svg" viewBox="0 0 512 512"><!--! Font Awesome Pro 7.1.0 by @fontawesome - https://fontawesome.com License - https://fontawesome.com/license (Commercial License) Copyright 2025 Fonticons, Inc. --><path opacity=".4" fill="currentColor" d="M0 256a256 256 0 1 0 512 0 256 256 0 1 0 -512 0zm120.5-51.4l18.9-44.1c16.4 7 27.7 11.9 33.9 14.5 26.1 11.2 54.2 17 82.7 17s56.5-5.8 82.7-17c6.2-2.7 17.5-7.5 33.9-14.5l18.9 44.1c-16.4 7-27.7 11.9-33.9 14.5-17.3 7.4-35.2 12.9-53.6 16.3l0 56.6c24.4 73.1 37.2 111.5 38.4 115.1l-45.5 15.2c-1.9-5.7-13.3-39.8-34.1-102.4l-13.4 0c-20.8 62.5-32.2 96.6-34.1 102.4l-45.5-15.2c1.2-3.6 14-42 38.4-115.1l0-56.6c-18.4-3.5-36.3-8.9-53.6-16.3-6.2-2.7-17.5-7.5-33.9-14.5zM296 120a40 40 0 1 1 -80 0 40 40 0 1 1 80 0z"/><path fill="currentColor" d="M256 80a40 40 0 1 1 0 80 40 40 0 1 1 0-80zM139.4 160.5c16.4 7 27.7 11.9 33.9 14.5 26.1 11.2 54.2 17 82.7 17s56.5-5.8 82.7-17c6.2-2.7 17.5-7.5 33.9-14.5l18.9 44.1c-16.4 7-27.7 11.9-33.9 14.5-17.3 7.4-35.2 12.9-53.6 16.3l0 56.6c24.4 73.1 37.2 111.5 38.4 115.1l-45.5 15.2c-1.9-5.7-13.3-39.8-34.1-102.4l-13.4 0c-20.8 62.5-32.2 96.6-34.1 102.4l-45.5-15.2c1.2-3.6 14-42 38.4-115.1l0-56.6c-18.4-3.5-36.3-8.9-53.6-16.3-6.2-2.7-17.5-7.5-33.9-14.5l18.9-44.1z"/></svg>