<svg xmlns="http://www.w3.org/2000/svg" viewBox="0 0 448 512"><!--! Font Awesome Pro 7.1.0 by @fontawesome - https://fontawesome.com License - https://fontawesome.com/license (Commercial License) Copyright 2025 Fonticons, Inc. --><path opacity=".4" fill="currentColor" d="M44.3 464l12.3-48 39.3 0 0 1.6 3.4-11.2-5.9-7.1-24.9-29.9 12.7-49.5 8.5 0 40 48 14.1 0 0-48 48 0 0 48 64 0 0-48 48 0 0 48 14.1 0 40-48 8.5 0 12.7 49.5c-19.8 23.7-30.1 36.1-30.8 37l3.4 11.2 0-1.6 39.3 0 12.3 48-37.4 0 14.8 48-314.1 0 14.8-48-37.4 0zM120 128c0-8.3 1-16.3 2.8-24l41.9 0c2.2-5.6 5.3-10.7 8.9-15.4L152.6 52.4c11.6-11 25.8-19.3 41.6-24l20.9 36.3c2.9-.4 5.9-.6 8.9-.6s6 .2 8.9 .6l20.9-36.3c15.7 4.7 29.9 13 41.6 24L274.5 88.6c3.6 4.7 6.6 9.8 8.9 15.4l41.9 0c1.8 7.7 2.8 15.7 2.8 24s-1 16.3-2.8 24l-41.9 0c-2.2 5.6-5.3 10.7-8.9 15.4l20.9 36.3c-11.6 11-25.8 19.3-41.6 24l-20.9-36.3c-2.9 .4-5.9 .6-8.9 .6s-6-.2-8.9-.6l-20.9 36.3c-15.7-4.7-29.9-13-41.6-24l20.9-36.3c-3.6-4.7-6.6-9.8-8.9-15.4l-41.9 0c-1.8-7.7-2.8-15.7-2.8-24z"/><path fill="currentColor" d="M224 256c-14.7 0-28.9-2.5-42.1-7.1l33.2-57.5c2.9 .4 5.9 .6 8.9 .6s6-.2 8.9-.6l33.2 57.5c-13.2 4.6-27.4 7.1-42.1 7.1zm-83.7-31.1c-21.4-18.5-36.6-44-42.1-72.9l66.4 0c2.2 5.6 5.3 10.7 8.9 15.4l-33.2 57.5zM283.3 104c-2.2-5.6-5.3-10.7-8.9-15.4l33.2-57.5c21.4 18.5 36.6 44 42.1 72.9l-66.4 0zM232.9 64.6c-2.9-.4-5.9-.6-8.9-.6s-6 .2-8.9 .6L181.9 7.1C195.1 2.5 209.3 0 224 0s28.9 2.5 42.1 7.1L232.9 64.6zM98.2 104c5.5-28.9 20.7-54.4 42.1-72.9l33.2 57.5c-3.6 4.7-6.6 9.8-8.9 15.4l-66.4 0zM307.7 224.9l-33.2-57.5c3.6-4.7 6.6-9.8 8.9-15.4l66.4 0c-5.5 28.9-20.7 54.4-42.1 72.9zM144 304l0 64-14.1 0-53.3-64 67.4 0zm48 64l0-64 64 0 0 64-64 0zm112-64l67.4 0-53.3 64-14.1 0 0-64zm93.5 43.7l21 68.3-66.5 0 0 1.6-3.4-11.2 5.9-7.1 43-51.6zM433.2 464l14.8 48-67 0-14.8-48 67 0zM99.4 406.4l-3.4 11.2 0-1.6-66.5 0 21-68.3 43 51.6 5.9 7.1zM81.7 464l-14.8 48-67 0 14.8-48 67 0z"/></svg>