<svg xmlns="http://www.w3.org/2000/svg" viewBox="0 0 576 512"><!--! Font Awesome Pro 7.1.0 by @fontawesome - https://fontawesome.com License - https://fontawesome.com/license (Commercial License) Copyright 2025 Fonticons, Inc. --><path opacity=".4" fill="currentColor" d="M16.4 512l416 0-64-208-288 0-64 208zm88-384a120 120 0 1 0 240 0 120 120 0 1 0 -240 0z"/><path fill="currentColor" d="M520.4 264l-48 0 0 48 48 0 0-48zm-56-114.8c0-17.7 14.3-32 32-32s32 14.3 32 32c0 28.3-32 31.4-53.2 34.5l0 53.5 42.4 0 0-18.3c30.4-10.6 53.2-36.1 53.2-69.6 0-41.1-33.3-74.4-74.4-74.4S422 108.1 422 149.2l42.4 0z"/></svg>