<svg xmlns="http://www.w3.org/2000/svg" viewBox="0 0 576 512"><!--! Font Awesome Pro 7.1.0 by @fontawesome - https://fontawesome.com License - https://fontawesome.com/license (Commercial License) Copyright 2025 Fonticons, Inc. --><path opacity=".4" fill="currentColor" d="M80 400l44.7 0 6.3-16.9 35.7-95.1-38.7 0-48 112zm32-224c0 35.3 28.7 64 64 64 9.9 0 19.3-2.3 27.7-6.3-17.2-19.7-27.7-45.5-27.7-73.7 0-16.8 3.7-32.8 10.4-47.2-3.4-.6-6.8-.8-10.4-.8-35.3 0-64 28.7-64 64zm64 224l224 0-48-128-128 0-48 128zm48-240a64 64 0 1 0 128 0 64 64 0 1 0 -128 0zm148.3 73.7c8.4 4 17.8 6.3 27.7 6.3 35.3 0 64-28.7 64-64s-28.7-64-64-64c-3.5 0-7 .3-10.4 .8 6.7 14.3 10.4 30.3 10.4 47.2 0 28.2-10.4 54-27.7 73.7zM409.3 288l35.7 95.1 6.3 16.9 44.7 0-48-112-38.7 0z"/><path fill="currentColor" d="M24 0l-24 0 0 160 48 0 0-112 112 0 0-48-136 0zM552 0l-136 0 0 48 112 0 0 112 48 0 0-160-24 0zM0 512l160 0 0-48-112 0 0-112-48 0 0 160zm552 0l24 0 0-160-48 0 0 112-112 0 0 48 136 0z"/></svg>