<svg xmlns="http://www.w3.org/2000/svg" viewBox="0 0 576 512"><!--! Font Awesome Pro 7.1.0 by @fontawesome - https://fontawesome.com License - https://fontawesome.com/license (Commercial License) Copyright 2025 Fonticons, Inc. --><path opacity=".4" fill="currentColor" d="M16 512l261.2 0c-42-30.5-69.2-80-69.2-135.9 0-25.8 5.8-50.2 16.2-72.1l-48.2 0 0 24 31.4 36.7-31.4 115.3-40-160-56 0-64 192zM48 80l0 48 48 0 0 14.8c0 70.7 57.3 128 128 128 7.7 0 15.3-.7 22.7-2 21.4-25.8 50.3-45 83.4-54.4 13.8-20.4 21.9-45.1 21.9-71.6l0-14.8c16 0 32 0 48 0l0-48-48 0-48-112-32 0-48 32-48-32-32 0-48 112-48 0zm96 48l160 0 0 14.8c0 44.2-35.8 80-80 80s-80-35.8-80-80l0-14.8z"/><path fill="currentColor" d="M448 376.1a72 72 0 1 0 -144 0 72 72 0 1 0 144 0zm-5.8 100.1c-19 12.6-41.7 19.9-66.2 19.9-66.3 0-120-53.7-120-120s53.7-120 120-120 120 53.7 120 120c0 24.5-7.3 47.2-19.9 66.2 47.9 47.9 73.8 73.8 77.8 77.8L520 554c-4-4-29.9-30-77.8-77.8z"/></svg>