<svg xmlns="http://www.w3.org/2000/svg" viewBox="0 0 640 512"><!--! Font Awesome Pro 7.1.0 by @fontawesome - https://fontawesome.com License - https://fontawesome.com/license (Commercial License) Copyright 2025 Fonticons, Inc. --><path opacity=".4" fill="currentColor" d="M64 416l93.4 0 5.1-15.2 37.6-112.8-88.1 0-48 128zm40-224a56 56 0 1 0 112 0 56 56 0 1 0 -112 0zM208 416l224 0-48-144-128 0-48 144zm48-240a64 64 0 1 0 128 0 64 64 0 1 0 -128 0zm168 16a56 56 0 1 0 112 0 56 56 0 1 0 -112 0zm15.9 96l37.6 112.8 5.1 15.2 93.4 0-48-128-88.1 0z"/><path fill="currentColor" d="M24 16l-24 0 0 48 640 0 0-48-616 0zm0 448l-24 0 0 48 640 0 0-48-616 0z"/></svg>