<svg xmlns="http://www.w3.org/2000/svg" viewBox="0 0 576 512"><!--! Font Awesome Pro 7.0.1 by @fontawesome - https://fontawesome.com License - https://fontawesome.com/license (Commercial License) Copyright 2025 Fonticons, Inc. --><path style="fill:var(--fa-secondary-color,currentColor);opacity:var(--fa-secondary-opacity,.4)" d="M16 512l260 0c-22.7-31.5-36-70.2-36-112 0-35 9.3-67.8 25.7-96L80 304 16 512zm88-384a120 120 0 1 0 240 0 120 120 0 1 0 -240 0z"/><path style="fill:var(--fa-primary-color,currentColor);opacity:var(--fa-primary-opacity,1)" d="M288 400a144 144 0 1 1 288 0 144 144 0 1 1 -288 0zm160-80l-32 0 0 64-64 0 0 32 64 0 0 64 32 0 0-64 64 0 0-32-64 0 0-64z"/></svg>