<svg xmlns="http://www.w3.org/2000/svg" viewBox="0 0 640 512"><!--! Font Awesome Pro 7.1.0 by @fontawesome - https://fontawesome.com License - https://fontawesome.com/license (Commercial License) Copyright 2025 Fonticons, Inc. --><path opacity=".4" fill="currentColor" d="M352 128l0 197.5c10-3.5 20.8-5.5 32-5.5 53 0 96 43 96 96s-43 96-96 96l224 0 0-192c0-31.7-7.7-61.7-21.3-88-9.9-19.2-23-36.5-38.5-51.2-34.4-32.7-81-52.8-132.2-52.8l-64 0z"/><path fill="currentColor" d="M249.9 64L512 64c35.3 0 64 28.7 64 64 0 21.9-11 41.2-27.8 52.8 15.5 14.7 28.6 32 38.5 51.2 32.3-23.2 53.3-61.1 53.3-104 0-70.7-57.3-128-128-128l-313.9 0-5.4 25.3-83.7 390.7-61 0-48 48 0 48 127.4 0c.4 0 .9 0 1.3 0l95.3 0 0-96-49.6 0 75.4-352zM384 512a96 96 0 1 0 0-192 96 96 0 1 0 0 192zm0-128a32 32 0 1 1 0 64 32 32 0 1 1 0-64z"/></svg>