<svg xmlns="http://www.w3.org/2000/svg" viewBox="0 0 576 512"><!--! Font Awesome Pro 7.1.0 by @fontawesome - https://fontawesome.com License - https://fontawesome.com/license (Commercial License) Copyright 2025 Fonticons, Inc. --><path opacity=".4" fill="currentColor" d="M32 64l0 384 384 0 0-384-384 0zm96 168l72 0 0-72 48 0 0 72 72 0 0 48-72 0 0 72-48 0 0-72-72 0 0-48zm336-61.3l0 170.7 112 74.7 0-320-112 74.7z"/><path fill="currentColor" d="M200 328l0 24 48 0 0-72 72 0 0-48-72 0 0-72-48 0 0 72-72 0 0 48 72 0 0 48z"/></svg>