<svg xmlns="http://www.w3.org/2000/svg" viewBox="0 0 576 512"><!--! Font Awesome Pro 7.1.0 by @fontawesome - https://fontawesome.com License - https://fontawesome.com/license (Commercial License) Copyright 2025 Fonticons, Inc. --><path opacity=".4" fill="currentColor" d="M32 64l0 384 384 0 0-384-384 0zM149.6 213.2c0-41.1 33.3-74.4 74.4-74.4s74.4 33.3 74.4 74.4c0 33.5-22.8 59-53.2 69.6l0 18.3-42.4 0 0-53.5c21.2-3.1 53.2-6.2 53.2-34.5 0-17.7-14.3-32-32-32s-32 14.3-32 32l-42.4 0zM200 328l48 0 0 48-48 0 0-48zM464 170.7l0 170.7 112 74.7 0-320-112 74.7z"/><path fill="currentColor" d="M248 328l-48 0 0 48 48 0 0-48zM192 213.2c0-17.7 14.3-32 32-32s32 14.3 32 32c0 28.3-32 31.4-53.2 34.5l0 53.5 42.4 0 0-18.3c30.4-10.6 53.2-36.1 53.2-69.6 0-41.1-33.3-74.4-74.4-74.4s-74.4 33.3-74.4 74.4l42.4 0z"/></svg>