<svg xmlns="http://www.w3.org/2000/svg" viewBox="0 0 512 512"><!--! Font Awesome Pro 7.0.1 by @fontawesome - https://fontawesome.com License - https://fontawesome.com/license (Commercial License) Copyright 2025 Fonticons, Inc. --><path style="fill:var(--fa-secondary-color,currentColor);opacity:var(--fa-secondary-opacity,.4)" d="M0 256a256 256 0 1 0 512 0 256 256 0 1 0 -512 0zm48-16l96 0 0-64-64 0 0-32 64 0 0-64 32 0 0 64 64 0 0-96 32 0 0 96 64 0 0-64 32 0 0 64 64 0 0 32-64 0 0 64 96 0 0 32-96 0 0 64 64 0 0 32-64 0 0 64-32 0 0-64-64 0 0 96-32 0 0-96-64 0 0 64-32 0 0-64-64 0 0-32 64 0 0-64-96 0 0-32zm128-64l0 64 64 0 0-64-64 0zm0 96l0 64 64 0 0-64-64 0zm96-96l0 64 64 0 0-64-64 0zm0 96l0 64 64 0 0-64-64 0z"/><path style="fill:var(--fa-primary-color,currentColor);opacity:var(--fa-primary-opacity,1)" d="M272 64l0-16-32 0 0 96-64 0 0-64-32 0 0 64-64 0 0 32 64 0 0 64-96 0 0 32 96 0 0 64-64 0 0 32 64 0 0 64 32 0 0-64 64 0 0 96 32 0 0-96 64 0 0 64 32 0 0-64 64 0 0-32-64 0 0-64 96 0 0-32-96 0 0-64 64 0 0-32-64 0 0-64-32 0 0 64-64 0 0-80zm64 272l-64 0 0-64 64 0 0 64zm-96 0l-64 0 0-64 64 0 0 64zm0-96l-64 0 0-64 64 0 0 64zm96 0l-64 0 0-64 64 0 0 64z"/></svg>