<svg xmlns="http://www.w3.org/2000/svg" viewBox="0 0 384 512"><!--! Font Awesome Pro 7.1.0 by @fontawesome - https://fontawesome.com License - https://fontawesome.com/license (Commercial License) Copyright 2025 Fonticons, Inc. --><path opacity=".4" fill="currentColor" d="M0 64l384 0 0 384-384 0 0-384zm64 64l0 80 256 0 0-80-256 0zm0 128l0 48 64 0 0-48-64 0zm0 80l0 48 64 0 0-48-64 0zm96-80l0 48 64 0 0-48-64 0zm0 80l0 48 64 0 0-48-64 0zm96-80l0 48 64 0 0-48-64 0zm0 80l0 48 64 0 0-48-64 0z"/><path fill="currentColor" d="M304-32L80-32 69.3 64 314.7 64 304-32zM80 544l224 0 10.7-96-245.3 0 10.7 96zM320 128l-256 0 0 80 256 0 0-80z"/></svg>