<svg xmlns="http://www.w3.org/2000/svg" viewBox="0 0 640 512"><!--! Font Awesome Pro 7.1.0 by @fontawesome - https://fontawesome.com License - https://fontawesome.com/license (Commercial License) Copyright 2025 Fonticons, Inc. --><path opacity=".4" fill="currentColor" d="M2 359.2c9.6 3.2 35.9 12 79.1 26.4l8.2-3.3 108-43.2c-3.2-11.1-4.9-22.9-4.9-35.1 0-5.1 .3-10.1 .9-15l-1.8 .8-111.8 44.7c-29.2-9.8-50.1-16.7-62.4-20.8L2 359.2zm0 128c9.6 3.2 35.9 12 79.1 26.4l8.2-3.3 111.1-44.4 120 48 120-48 111.1 44.4 8.2 3.3c43.2-14.4 69.5-23.2 79.1-26.4l-15.2-45.5c-12.4 4.1-33.2 11-62.5 20.8l-111.8-44.7-8.9-3.6-120 48-120-48-8.9 3.6-111.8 44.7c-29.2-9.8-50.1-16.7-62.4-20.8L2 487.2zM443.4 339.1l108 43.2 8.2 3.3c43.2-14.4 69.5-23.2 79.1-26.4l-15.2-45.5c-12.4 4.1-33.2 11-62.5 20.8l-111.8-44.7-1.8-.8c.6 4.9 .9 9.9 .9 15 0 12.2-1.7 23.9-4.9 35.1z"/><path fill="currentColor" d="M416.4 64l-64 0 0 32 64 0 0 64-64 0 0 70.7c28.2 12.3 48 40.5 48 73.3 0 44.2-35.8 80-80 80s-80-35.8-80-80c0-32.8 19.8-61 48-73.3l0-230.7 128 0 0 64z"/></svg>