<svg xmlns="http://www.w3.org/2000/svg" viewBox="0 0 640 512"><!--! Font Awesome Pro 7.1.0 by @fontawesome - https://fontawesome.com License - https://fontawesome.com/license (Commercial License) Copyright 2025 Fonticons, Inc. --><path opacity=".4" fill="currentColor" d="M2 455.2l70.8 23.6 8.3 2.8 8.2-3.3 111.1-44.4 120 48 8.9-3.6 111.1-44.4 111.1 44.4 8.2 3.3 79.1-26.4-15.2-45.5c-12.3 4.1-33.2 11.1-62.4 20.8l-111.8-44.8-8.9-3.6-120 48-111.1-44.4-8.9-3.6-8.9 3.6-111.8 44.8c-29.3-9.7-50.1-16.7-62.4-20.8L2 455.2z"/><path fill="currentColor" d="M512.4 32c53 0 96 43 96 96l0 32-64 0 0-32c0-17.7-14.3-32-32-32s-32 14.3-32 32l0 218.6-13.3-5.3-26.7-10.7-24 9.6 0-52.2-192 0 0 52.2-24-9.6-26.8 10.7-13.2 5.3 0-218.6c0-53 43-96 96-96s96 43 96 96l0 32-64 0 0-32c0-17.7-14.3-32-32-32s-32 14.3-32 32l0 96 192 0 0-96c0-53 43-96 96-96z"/></svg>