<svg xmlns="http://www.w3.org/2000/svg" viewBox="0 0 576 512"><!--! Font Awesome Pro 7.1.0 by @fontawesome - https://fontawesome.com License - https://fontawesome.com/license (Commercial License) Copyright 2025 Fonticons, Inc. --><path opacity=".4" fill="currentColor" d="M21 419.3C4.8 362.8 29.2 304.3 76.9 275l20.4-12.6 25.2 40.9-20.4 12.6c-29.8 18.3-45 54.9-34.9 90.2 12.2 42.5 56.5 67 99 54.9 35.1-10.1 58-42.1 58-76.9l0-24 166.4 0c-4.1 7.1-6.4 15.3-6.4 24s2.3 16.9 6.4 24l-120.7 0c-8.8 45.9-42.5 85.3-90.5 99-68 19.5-138.8-19.8-158.3-87.8zM143.4 336l61.8-110.5C169.3 195 151.7 145.8 163.8 97.1 180.9 28.5 250.4-13.3 319 3.8 376 18 414.4 68.4 416 124.3l.7 24-48 1.4-.7-24c-1-35-25.1-66.4-60.6-75.3-42.9-10.7-86.3 15.4-97 58.3-8.9 35.6 7.6 71.6 38 88.9l20.7 11.8-11.6 20.8-72.3 129.3c-8.4-14-23.7-23.4-41.2-23.4-.2 0-.4 0-.7 0zM287.5 176c.2 0 .4 0 .5 0 17.6 0 32.9-9.4 41.3-23.5l62 110.2c44.6-14.9 95.7-4.7 131.2 30.9 50 50 50 131 0 181-41.6 41.6-104.5 48.5-153.3 21.1l-20.9-11.8 23.6-41.8 20.9 11.8c30.5 17.2 69.9 12.7 95.8-13.2 31.2-31.2 31.2-81.9 0-113.1-25.9-25.9-65.3-30.4-95.8-13.2L371.9 326 360.1 305.1 287.5 176z"/><path fill="currentColor" d="M288 176a48 48 0 1 0 0-96 48 48 0 1 0 0 96zM192 384a48 48 0 1 0 -96 0 48 48 0 1 0 96 0zm288 0a48 48 0 1 0 -96 0 48 48 0 1 0 96 0z"/></svg>