<svg xmlns="http://www.w3.org/2000/svg" viewBox="0 0 576 512"><!--! Font Awesome Pro 7.1.0 by @fontawesome - https://fontawesome.com License - https://fontawesome.com/license (Commercial License) Copyright 2025 Fonticons, Inc. --><path opacity=".4" fill="currentColor" d="M15.2 495c-9.4 9.4-9.4 24.6 0 33.9 9.4 9.4 24.5 9.4 33.9 0l84.7-84.7 30.5 30.5c37.5 37.5 98.3 37.5 135.7 0l18.8-18.7-57.4-57.4c-24.4-24.3-58.9-33-90.6-25.3 7-28.9 .4-60.1-19.2-83.9l-6.1-6.7-57.4-57.4-18.8 18.8c-37.5 37.5-37.5 98.3 0 135.8L99.8 410.3 15.2 495z"/><path fill="currentColor" d="M578.2 512.1L544.3 546-1.6 .1 32.3-33.8 578.2 512.1zM545.8 32l-17 17-114.5 114.4c7.7 1 15.2 3 22.5 5.9 45.8-45.7 70.9-70.8 75.3-75.3l34 34-17 16.9-52.7 52.7 50.3 50.3-18.7 18.7c-37.5 37.5-98.3 37.5-135.8 0l-94.9-94.9c-37.5-37.5-37.5-98.3 0-135.7l18.8-18.8 50.3 50.3 69.7-69.7 34 34-17 16.9-58.3 58.3c2.8 7.1 4.7 14.5 5.8 22l114.3-114.2 17-17 33.9 34z"/></svg>