<svg xmlns="http://www.w3.org/2000/svg" viewBox="0 0 576 512"><!--! Font Awesome Pro 7.0.1 by @fontawesome - https://fontawesome.com License - https://fontawesome.com/license (Commercial License) Copyright 2025 Fonticons, Inc. --><path style="fill:var(--fa-secondary-color,currentColor);opacity:var(--fa-secondary-opacity,.4)" d="M-6 161.1l45.8 44.7C101.3 138.3 189.8 96 288.3 96s187 42.3 248.4 109.8l45.8-44.7C509.5 81.7 404.7 32 288.3 32S67.1 81.7-6 161.1zM120.1 284L166 328.8c29.3-34.7 73.2-56.8 122.3-56.8s92.9 22.1 122.3 56.8L456.5 284c-41-46.6-101.2-76-168.2-76s-127.1 29.4-168.2 76z"/><path style="fill:var(--fa-primary-color,currentColor);opacity:var(--fa-primary-opacity,1)" d="M240.3 432a48 48 0 1 1 96 0 48 48 0 1 1 -96 0z"/></svg>