<svg xmlns="http://www.w3.org/2000/svg" viewBox="0 0 640 512"><!--! Font Awesome Pro 7.1.0 by @fontawesome - https://fontawesome.com License - https://fontawesome.com/license (Commercial License) Copyright 2025 Fonticons, Inc. --><path opacity=".4" fill="currentColor" d="M32 256c0 123.7 100.3 224 224 224 95.5 0 177.1-59.8 209.3-144l-81.3 0 0-48 93.7 0c1.5-10.5 2.3-21.1 2.3-32s-.8-21.5-2.3-32c-2.4-16.7-6.6-32.7-12.4-48-32.2-84.2-113.8-144-209.3-144-123.7 0-224 100.3-224 224zM224 128l64 0-12.8 160-38.4 0-12.8-160zm4 196l56 0 0 56-56 0 0-56z"/><path fill="currentColor" d="M552 224l-74.3 0c-2.4-16.7-6.6-32.7-12.4-48l86.7 0c22.1 0 40-17.9 40-40s-17.9-40-40-40l-40 0 0-48 40 0c48.6 0 88 39.4 88 88s-39.4 88-88 88zM504 464l-24 0 0-48 40 0c22.1 0 40-17.9 40-40s-17.9-40-40-40l-136 0 0-48 136 0c48.6 0 88 39.4 88 88s-39.4 88-88 88l-16 0z"/></svg>