<svg xmlns="http://www.w3.org/2000/svg" viewBox="0 0 320 512"><!--! Font Awesome Pro 7.0.1 by @fontawesome - https://fontawesome.com License - https://fontawesome.com/license (Commercial License) Copyright 2025 Fonticons, Inc. --><path style="fill:var(--fa-secondary-color,currentColor);opacity:var(--fa-secondary-opacity,.4)" d="M64 288l0 192 192 0 0-192-192 0zM80-64l0 64 16 0 0 96 128 0 0-96 16 0 0-64-160 0z"/><path style="fill:var(--fa-primary-color,currentColor);opacity:var(--fa-primary-opacity,1)" d="M96 96l128 0 0 45.3c56.5 24.7 96 81.1 96 146.7l0 288-320 0 0-288c0-65.6 39.5-122 96-146.7L96 96zM256 288l-192 0 0 192 192 0 0-192z"/></svg>