<?xml version="1.0" standalone="no"?>
<!DOCTYPE svg PUBLIC "-//W3C//DTD SVG 1.1//EN" "http://www.w3.org/Graphics/SVG/1.1/DTD/svg11.dtd" >
<svg xmlns="http://www.w3.org/2000/svg" xmlns:xlink="http://www.w3.org/1999/xlink" version="1.1">
<metadata>
Created by FontForge 20170731 at Thu Oct 27 13:07:24 2016
 By Aleksey,,,
(c) 2009 Adobe Systems Incorporated. All Rights Reserved.
</metadata>
<defs>
<font id="AdobeCleanSerif-Medium" horiz-adv-x="610" >
  <font-face 
    font-family="Adobe Clean Serif Medium"
    font-weight="500"
    font-stretch="normal"
    units-per-em="1000"
    panose-1="2 10 6 3 5 5 6 2 8 4"
    ascent="750"
    descent="-250"
    x-height="457"
    cap-height="658"
    bbox="-176 -275 1156 977"
    underline-thickness="50"
    underline-position="-150"
    unicode-range="U+0020-FB04"
  />
<missing-glyph horiz-adv-x="500" 
d="M0 0v700h500v-700h-500zM80 50h340l-170 255zM279 350l171 -255v510zM50 605v-510l170 255zM80 650l170 -255l170 255h-340z" />
    <glyph glyph-name="f_f" unicode="ff" horiz-adv-x="589" 
d="M479 457h100v-41q-50 -5 -100 -5v-362q37 -2 84 -8v-41h-241v41q33 6 64 8v362h-200v-362q29 -1 74 -8v-41h-231v41q35 6 65 8v362q-57 2 -72 5v41h72v6q0 93 32 153q26 50 75 82t112 32q41 0 57 -6v-88h-63q-7 6 -25 44q-52 4 -74 -38.5t-22 -105.5v-79h200
q2 114 48 179q67 94 179 94q43 0 67 -8v-88h-70q-14 22 -23 45q-45 4 -77 -30t-32 -114v-55z" />
    <glyph glyph-name="f_f_i" unicode="ffi" horiz-adv-x="844" 
d="M186 457h190q0 101 42 166q-38 54 -106 54q-57 0 -91.5 -50t-34.5 -131v-39zM752 460v-412q17 -1 63 -8v-40h-220v41q43 7 64 8v362h-190v-362q31 -1 69 -8v-41h-227v41q35 6 65 8v362h-190v-362q29 -1 76 -8v-41h-233v41q35 6 65 8v362q-58 3 -73 5v41h73q1 105 57 176
q67 87 187 87q92 0 136 -35q60 45 146 45q56 0 116 -19v-93h-72q-11 19 -24 57q-17 10 -56 10q-46 0 -80.5 -41t-34.5 -133v-54h187q76 0 96 3z" />
    <glyph glyph-name="f_f_l" unicode="ffl" horiz-adv-x="841" 
d="M186 457h190q2 99 40 163q-37 57 -106 57q-57 0 -90.5 -49.5t-33.5 -131.5v-39zM752 669v-621q22 -2 59 -7v-41h-211v41q25 5 59 7v593q-25 44 -84 44q-106 0 -106 -163v-65h104v-41q-55 -5 -104 -5v-362q38 -2 80 -8v-41h-238v41q35 6 65 8v362h-190v-362q38 -2 76 -8
v-41h-233v41q35 6 65 8v362q-58 3 -73 5v41h73q1 106 54 176q68 87 186 87q94 0 137 -35q54 45 132 45q47 0 80 -12l73 11z" />
    <glyph glyph-name="f_b" unicode="fb" horiz-adv-x="831" 
d="M462 393v-340q31 -20 79 -20q25 0 50 10t50 31t40 62.5t15 97.5q0 83 -38 131.5t-104 48.5q-45 0 -92 -21zM369 15v630q-30 38 -79 38t-76.5 -40.5t-27.5 -114.5v-21.5v-31.5v-18h102v-41q-56 -8 -102 -8v-359q63 -5 83 -8v-41h-240v41q11 2 26 3.5t25.5 3t13.5 2.5v358
q-36 2 -73 8v41h73q1 114 49 182q64 91 174 91q52 0 83 -13l66 12l-5 -58v-242q81 40 139 40q81 0 139 -60.5t58 -156.5q0 -118 -82.5 -191t-182.5 -73q-89 0 -163 27z" />
    <glyph glyph-name="f_h" unicode="fh" horiz-adv-x="842" 
d="M269 0h-240v41q11 2 26 3.5t25.5 3t13.5 2.5v358q-36 2 -73 8v41h73q-1 113 49 183q67 90 172 90q49 0 86 -13l65 12l-4 -58v-262q76 60 148 60q70 0 106.5 -46.5t36.5 -119.5v-254q33 -3 59 -8v-41h-216v41q61 9 64 9v258q0 43 -24 71.5t-73 28.5q-53 0 -101 -34v-326
q10 -1 63 -7v-41h-215v41q45 7 59 8v595q-30 39 -81 39q-49 0 -75.5 -41t-26.5 -120v-65h102v-41q-56 -8 -102 -8v-359q63 -5 83 -8v-41z" />
    <glyph glyph-name="f_i" unicode="fi" horiz-adv-x="557" 
d="M186 457h187q77 0 96 3v-412q30 -1 58 -7v-41h-215v41q25 3 64 8v362h-190v-361q53 -5 74 -9v-41h-231v41q12 3 36 6t29 4v360q-53 2 -72 4v42h72q0 110 52 180q69 93 199 93q59 0 110 -17v-95h-74q-19 42 -24 58q-23 9 -47 9q-54 0 -89 -47.5t-35 -144.5v-36z" />
    <glyph glyph-name="f_j" unicode="fj" horiz-adv-x="551" 
d="M186 457h187q77 0 96 3v-399q0 -82 -40.5 -162.5t-103.5 -146.5l-33 23q51 72 67.5 124.5t16.5 122.5v389h-190v-361q53 -5 74 -9v-41h-231v41q12 3 36 6t29 4v360q-53 2 -72 4v42h72q0 109 49 177q66 96 195 96q59 0 116 -19v-93h-73q-15 33 -23 58q-18 9 -54 9
q-47 0 -82.5 -41t-35.5 -133v-54z" />
    <glyph glyph-name="f_k" unicode="fk" horiz-adv-x="785" 
d="M770 457v-41q-17 -5 -57 -9q-93 -88 -147 -130q40 -59 93 -126t77 -90q13 -10 24 -13q19 -4 46 -7v-41h-92q-28 0 -43.5 8.5t-34.5 31.5q-55 63 -137 188q-17 -12 -37 -25v-155q43 -3 69 -7v-41h-221v41q26 5 59 7v596q-30 39 -81 39q-49 0 -75.5 -41t-26.5 -113v-72h102
v-41q-56 -8 -102 -8v-359q63 -5 83 -8v-41h-240v41q11 2 26 3.5t25.5 3t13.5 2.5v358q-36 2 -73 8v41h73q0 115 49 183q67 90 174 90q47 0 84 -13l65 12l-4 -58v-429q108 79 188 165q-43 3 -77 9v41h197z" />
    <glyph glyph-name="f_l" unicode="fl" horiz-adv-x="551" 
d="M269 0h-240v41q11 2 26 3.5t25.5 3t13.5 2.5v358q-34 2 -72 8v41h72q0 115 49 183q67 90 171 90q48 0 87 -13l65 12l-4 -58v-623q34 -3 59 -8v-40h-211v41q49 7 59 8v595q-30 39 -81 39q-50 0 -76 -42.5t-26 -119.5v-64h100v-41q-59 -8 -100 -8v-359q63 -5 83 -8v-41z
" />
    <glyph glyph-name="f_t" unicode="ft" horiz-adv-x="609" 
d="M186 457h192q15 66 44 129h67q-14 -62 -17 -129h117v-42q-74 -7 -120 -7v-314q0 -21 13 -37t44 -16q29 0 61 13v-38q-46 -28 -101 -28q-110 0 -110 126v297h-190v-362q40 -2 84 -8v-41h-241v41q35 6 65 8v359q-52 3 -73 8v41h73v18q0 90 33 152q24 44 67 73.5t99 29.5
q43 0 64 -8v-86h-60q-7 5 -26 47h-4q-33 0 -57.5 -28t-24.5 -87q0 -15 0.5 -60.5t0.5 -50.5z" />
    <glyph glyph-name="f_f_b" unicode="ffb" horiz-adv-x="1121" 
d="M752 393v-340q31 -20 79 -20q25 0 50 10t50 31t40 62.5t15 97.5q0 83 -38 131.5t-104 48.5q-45 0 -92 -21zM186 457h190q2 99 40 163q-37 57 -106 57q-57 0 -90.5 -49.5t-33.5 -131.5v-39zM751 669v-240q81 40 139 40q81 0 139 -60.5t58 -156.5q0 -79 -41.5 -141.5
t-101 -92.5t-122.5 -30q-89 0 -163 27v626q-25 44 -84 44q-106 0 -106 -163v-65h104v-41q-55 -5 -104 -5v-362q38 -2 80 -8v-41h-238v41q35 6 65 8v362h-190v-362q38 -2 76 -8v-41h-233v41q35 6 65 8v362q-58 3 -73 5v41h73q1 106 54 176q68 87 186 87q94 0 137 -35
q54 45 132 45q47 0 80 -12l72 11z" />
    <glyph glyph-name="f_f_h" unicode="ffh" horiz-adv-x="1132" 
d="M186 457h190q2 99 40 163q-37 57 -106 57q-57 0 -90.5 -49.5t-33.5 -131.5v-39zM1043 303v-254q33 -3 59 -8v-41h-216v41q61 9 64 9v258q0 43 -24 71.5t-73 28.5q-55 0 -101 -34v-326q10 -1 63 -7v-41h-215v41q45 7 59 8v592q-25 44 -84 44q-106 0 -106 -163v-65h104v-41
q-55 -5 -104 -5v-362q38 -2 80 -8v-41h-238v41q35 6 65 8v362h-190v-362q38 -2 76 -8v-41h-233v41q35 6 65 8v362q-58 3 -73 5v41h73q1 106 54 176q68 87 186 87q94 0 137 -35q54 45 132 45q47 0 80 -12l73 11l-4 -60v-260q74 60 148 60q70 0 106.5 -46.5t36.5 -119.5z" />
    <glyph glyph-name="f_f_j" unicode="ffj" horiz-adv-x="834" 
d="M186 457h190q0 101 40 163q-38 57 -110 57q-56 0 -88 -48t-32 -129v-43zM469 457h186q76 0 97 3v-409q0 -175 -158 -299l-32 28q62 65 79.5 115.5t17.5 126.5v389h-191v-362q34 -1 69 -8v-41h-227v41q34 6 66 8v362h-190v-362q25 -1 76 -8v-41h-234v41q35 6 65 8v362
q-55 2 -71 5v41h71q3 105 58 176q67 87 186 87q91 0 135 -36q59 46 148 46q56 0 116 -19v-93h-72q-11 19 -24 57q-17 10 -56 10q-46 0 -80.5 -41t-34.5 -133v-54z" />
    <glyph glyph-name="f_f_k" unicode="ffk" horiz-adv-x="1075" 
d="M186 457h190q2 99 40 163q-37 57 -106 57q-57 0 -90.5 -49.5t-33.5 -131.5v-39zM1060 457v-41q-17 -5 -57 -9q-87 -83 -146 -132q40 -59 92.5 -125t76.5 -89q10 -10 24 -13q19 -4 46 -7v-41h-92q-28 0 -43.5 8.5t-34.5 31.5q-55 63 -135 185l-39 -27v-150q43 -3 69 -7
v-41h-221v41q25 5 59 7v593q-25 44 -84 44q-106 0 -106 -163v-65h104v-41q-55 -5 -104 -5v-362q38 -2 80 -8v-41h-238v41q35 6 65 8v362h-190v-362q38 -2 76 -8v-41h-233v41q35 6 65 8v362q-58 3 -73 5v41h73q1 106 54 176q68 87 186 87q94 0 137 -35q54 45 132 45
q47 0 80 -12l73 11l-4 -60v-427q108 79 188 165q-43 3 -77 9v41h197z" />
    <glyph glyph-name="f_f_t" unicode="fft" horiz-adv-x="910" 
d="M479 457h195q6 40 44 129h66q-13 -66 -16 -129h117v-42q-80 -4 -120 -4v-317q0 -21 13 -37t44 -16q28 0 61 13v-38q-46 -28 -102 -28q-109 0 -109 127v296h-193v-362q37 -2 84 -8v-41h-241v41q43 7 64 8v362h-200v-362q32 -1 74 -8v-41h-231v41q35 6 65 8v362
q-57 2 -72 5v41h72q0 99 32 159q26 50 75 82t112 32q41 0 57 -6v-88h-63q-7 6 -25 44q-52 4 -74 -38.5t-22 -105.5v-79h200v6q0 91 33 153q26 50 75 82t112 32q41 0 57 -6v-88h-64q-7 7 -24 44q-52 4 -74.5 -38.5t-22.5 -105.5q0 -15 0.5 -44.5t0.5 -34.5z" />
    <glyph glyph-name="gamma_gamma" unicode="&#x3b3;&#x3b3;" horiz-adv-x="954" 
d="M-14 391v37q54 41 113 41q34 0 54.5 -26.5t42.5 -79.5q57 -140 87 -302q44 114 97 238q36 83 74.5 126.5t84.5 43.5q39 0 62.5 -24t47.5 -87q33 -81 61 -171t35 -128q97 191 97 267q0 14 -3.5 34t-9.5 47.5t-7 33.5q16 11 44.5 19.5t42.5 8.5q15 -1 15 -58
q0 -56 -28.5 -130.5t-74.5 -161.5t-53 -104q-8 -17 -8 -38q2 -93 10 -220h-114q5 22 17 107t17 110q4 25 3 31q-9 40 -52 147t-84 181q-17 30 -29 41.5t-26 11.5q-13 0 -26 -16t-34 -55q-76 -152 -137 -300q-8 -17 -8 -38q1 -39 12 -220h-114q4 19 11.5 59.5t16 89.5
t11.5 68q4 21 2 30q-7 48 -52.5 157.5t-92.5 186.5q-17 29 -31.5 40.5t-33.5 11.5q-9 0 -40 -9z" />
    <glyph glyph-name="lambda_lambda" unicode="&#x3bb;&#x3bb;" horiz-adv-x="940" 
d="M119 0h-103q14 24 96 214t88 202q8 18 15 32t11 20t7.5 12t4.5 7q-49 160 -131 160q-43 0 -98 -25v38q17 26 48 48t68 22q47 0 79.5 -43t73.5 -161q160 -432 184 -482q20 42 60 130t71 156.5t38 82.5q8 18 15 32t11 20.5t7.5 12.5t4.5 7q-51 162 -131 162q-52 0 -102 -21
v39q16 24 49.5 44.5t69.5 20.5q43 0 77.5 -43.5t75.5 -162.5q2 -7 27 -80t48 -138t49 -135t38 -95q10 -24 38 -24q20 -1 47 6v-36q-11 -15 -32.5 -25t-43.5 -9q-32 0 -52 22.5t-37 79.5q-27 83 -88 293q-21 -58 -79 -203.5t-73 -179.5h-149q-8 24 -62 184t-67 203
q-20 -58 -79.5 -206.5t-73.5 -180.5z" />
    <glyph glyph-name=".notdef" horiz-adv-x="500" 
d="M0 0v700h500v-700h-500zM80 50h340l-170 255zM279 350l171 -255v510zM50 605v-510l170 255zM80 650l170 -255l170 255h-340z" />
    <glyph glyph-name=".null" horiz-adv-x="0" 
 />
    <glyph glyph-name="nonmarkingreturn" horiz-adv-x="333" 
 />
    <glyph glyph-name="space" unicode=" " horiz-adv-x="250" 
 />
    <glyph glyph-name="space" unicode="&#xa0;" horiz-adv-x="250" 
 />
    <glyph glyph-name="exclam" unicode="!" horiz-adv-x="327" 
d="M215 230h-50q-7 52 -20 181t-15 177l-2 70q20 5 61 5q39 0 62 -5l-2 -72q-1 -91 -34 -356zM189 -12q-24 0 -44 16.5t-20 47.5q0 29 18 48.5t47 19.5t46.5 -19.5t17.5 -47.5q0 -31 -20.5 -48t-44.5 -17z" />
    <glyph glyph-name="quotedbl" unicode="&#x22;" horiz-adv-x="415" 
d="M142 436h-51l-25 276h106zM320 436h-51l-26 276h106z" />
    <glyph glyph-name="numbersign" unicode="#" horiz-adv-x="495" 
d="M429 270l-20 -73h-91l-38 -162h-47l38 162h-114l-40 -162h-48l39 162h-87l19 73h88l31 131h-98l20 74h95l37 150h46l-36 -150h115l35 150h47l-36 -150h88l-20 -74h-84l-31 -131h92zM320 401h-114l-30 -131h113z" />
    <glyph glyph-name="dollar" unicode="$" horiz-adv-x="497" 
d="M270 264l-16 -224q52 4 83 31.5t31 78.5q0 32 -19.5 59.5t-78.5 54.5zM236 384l16 214q-58 -4 -84 -33.5t-26 -69.5q0 -22 4.5 -36.5t26.5 -35t63 -39.5zM296 597l-18 -230q101 -37 141.5 -80.5t40.5 -111.5q0 -78 -60 -124.5t-149 -51.5l-8 -100h-44l8 101
q-54 4 -149 36q-2 14 -6.5 56t-6.5 54h61q11 -21 41 -88q18 -12 63 -17l18 240q-96 36 -133 80.5t-37 108.5q0 67 49.5 114t147.5 52l7 86h43l-6 -85q28 -1 57.5 -5t54 -8.5t25.5 -4.5v-108h-56q-2 3 -7 15.5t-11.5 30.5t-10.5 27q-20 11 -55 13z" />
    <glyph glyph-name="percent" unicode="%" horiz-adv-x="818" 
d="M647 633l-444 -665l-35 26l446 664zM205 644q61 0 103.5 -47t42.5 -132q0 -78 -42.5 -129t-108.5 -51q-73 0 -113 51.5t-40 123.5q0 83 42 133.5t116 50.5zM199 612q-72 0 -72 -151q0 -67 18.5 -105t55.5 -38q70 0 70 143q0 151 -72 151zM624 347q62 0 104.5 -47
t42.5 -132q0 -79 -42 -129.5t-109 -50.5q-73 0 -113.5 51t-40.5 124q0 81 41.5 132.5t116.5 51.5zM618 313q-71 0 -71 -148q0 -144 74 -144q70 0 70 144q0 148 -73 148z" />
    <glyph glyph-name="ampersand" unicode="&#x26;" horiz-adv-x="787" 
d="M288 395q97 62 97 140q0 45 -22 69.5t-57 24.5q-36 0 -57.5 -25.5t-21.5 -70.5q0 -59 61 -138zM224 325q-41 -32 -55.5 -60.5t-14.5 -71.5q0 -65 41 -103t101 -38q73 -2 127 44q-54 54 -111.5 119.5t-87.5 109.5zM494 395h221v-41q-31 -7 -78 -13q-67 -143 -117 -203
q87 -89 141 -89q31 0 58 10v-38q-50 -34 -118 -34q-40 0 -74 18.5t-78 58.5q-80 -76 -181 -76q-93 0 -151 52t-58 134q0 56 30 92.5t113 90.5q-54 79 -54 150q0 66 43.5 113.5t119.5 47.5q71 0 111 -39t40 -94q0 -53 -32.5 -84.5t-121.5 -84.5q27 -37 85.5 -100.5
t96.5 -97.5q54 75 87 173q-81 12 -83 12v42z" />
    <glyph glyph-name="quotesingle" unicode="'" horiz-adv-x="237" 
d="M142 436h-51l-25 276h106z" />
    <glyph glyph-name="parenleft" unicode="(" horiz-adv-x="415" 
d="M323 763l26 -28q-158 -183 -158 -443q0 -280 158 -451l-26 -31q-225 176 -225 482q0 269 225 471z" />
    <glyph glyph-name="parenright" unicode=")" horiz-adv-x="415" 
d="M65 731l27 32q225 -177 225 -482q0 -269 -225 -471l-27 27q158 183 158 444q0 280 -158 450z" />
    <glyph glyph-name="asterisk" unicode="*" horiz-adv-x="414" 
d="M111 637l91 -116q16 79 21 148l70 -19q-41 -87 -59 -136l123 61l18 -69l-133 -19l115 -84l-51 -55l-87 117l-19 -145l-71 22l60 132l-127 -60l-22 72l142 14l-118 79z" />
    <glyph glyph-name="plus" unicode="+" horiz-adv-x="642" 
d="M292 290v221h63v-221h214v-63h-214v-227h-63v227h-218v63h218z" />
    <glyph glyph-name="comma" unicode="," horiz-adv-x="223" 
d="M71 -156l-59 -11l-5 7q66 102 66 191q0 38 -10 81l99 32q6 -24 6 -56q0 -69 -28.5 -133.5t-68.5 -110.5z" />
    <glyph glyph-name="hyphen" unicode="-" horiz-adv-x="322" 
d="M44 201v69h234v-69h-234z" />
    <glyph glyph-name="period" unicode="." horiz-adv-x="233" 
d="M115 -12q-27 0 -46 18t-19 51q0 29 18 49.5t48 20.5t48.5 -20.5t18.5 -49.5q0 -32 -19.5 -50.5t-48.5 -18.5z" />
    <glyph glyph-name="slash" unicode="/" horiz-adv-x="463" 
d="M402 666l-269 -725h-72l271 725h70z" />
    <glyph glyph-name="zero" unicode="0" horiz-adv-x="513" 
d="M264 644q105 0 161.5 -90.5t56.5 -232.5q0 -160 -64 -245.5t-162 -85.5q-105 0 -164.5 87.5t-59.5 242.5q0 144 60 234t172 90zM255 606q-120 0 -120 -284q0 -82 12 -146t40.5 -104.5t70.5 -40.5q120 0 120 286q0 129 -30.5 209t-92.5 80z" />
    <glyph glyph-name="one" unicode="1" horiz-adv-x="513" 
d="M441 0h-349v39q83 8 130 9v511q-27 -6 -119 -18v42q110 25 174 57h40v-591q90 -5 124 -10v-39z" />
    <glyph glyph-name="two" unicode="2" horiz-adv-x="513" 
d="M457 0h-418v44q114 95 190 177q107 116 107 227q0 72 -35 111.5t-99 39.5q-32 0 -48 -8q-28 -87 -33 -92h-67v101q99 44 187 44q93 0 148.5 -51t55.5 -134q0 -68 -34 -123t-115 -128q-36 -33 -94 -80t-64 -52q154 2 264 2q6 1 22.5 23.5t26.5 41.5h42z" />
    <glyph glyph-name="three" unicode="3" horiz-adv-x="513" 
d="M59 509v99q110 36 182 36q94 0 142.5 -42.5t48.5 -106.5t-42 -99.5t-95 -47.5v-3q30 -5 57 -15t54.5 -28t43.5 -49t16 -71q0 -86 -72 -140t-177 -54q-75 0 -161 31l-9 101h71q1 -1 43 -82q25 -9 53 -9q64 0 105 41t41 104q0 139 -161 139h-32v50h36q60 0 95 33.5t35 85.5
q0 55 -31 87t-93 32q-36 0 -54 -10q-29 -77 -34 -82h-62z" />
    <glyph glyph-name="four" unicode="4" horiz-adv-x="513" 
d="M80 225h228q2 286 5 320q-21 -27 -121.5 -166t-111.5 -154zM397 0h-89v168h-288v46q11 16 85 115.5t152 203t80 106.5h60v-414h99v-57h-99v-168z" />
    <glyph glyph-name="five" unicode="5" horiz-adv-x="513" 
d="M216 29q61 0 102.5 40t41.5 98q0 64 -40.5 101.5t-121.5 57.5q-67 18 -130 27v31l72 250h303l-26 -84h-256l-39 -139q129 -23 162 -32q87 -24 132 -67t45 -117q0 -93 -73 -150t-170 -57q-85 0 -157 28l-10 101h73q4 -4 42 -80q16 -8 50 -8z" />
    <glyph glyph-name="six" unicode="6" horiz-adv-x="513" 
d="M439 644l1 -41q-107 -17 -187.5 -79.5t-104.5 -172.5q71 47 148 47q76 0 129 -51.5t53 -141.5q0 -89 -59.5 -153t-158.5 -64q-98 0 -161 69t-63 189q0 165 115.5 276t287.5 122zM255 344q-65 0 -112 -36q-4 -21 -4 -60q0 -105 34 -161.5t91 -56.5q55 0 84 44t29 116
q0 75 -34.5 114.5t-87.5 39.5z" />
    <glyph glyph-name="seven" unicode="7" horiz-adv-x="513" 
d="M109 549q-9 -17 -37 -66h-47l29 151h409v-43q-13 -38 -37 -93q-108 -230 -247 -498h-76q59 98 153.5 272t143.5 277h-291z" />
    <glyph glyph-name="eight" unicode="8" horiz-adv-x="513" 
d="M210 295q-78 -53 -78 -135q0 -54 36 -92t91 -38q54 0 84 28t30 76q0 43 -32.5 81.5t-130.5 79.5zM46 154q0 47 30.5 85t99.5 75q-106 61 -106 163q0 70 53 118.5t140 48.5q84 0 131.5 -44t47.5 -111q0 -90 -112 -148q76 -39 105.5 -81t29.5 -96q0 -71 -56 -123.5
t-154 -52.5q-104 0 -156.5 50t-52.5 116zM154 501q0 -44 30 -75t115 -68q64 53 64 128q0 54 -31 86t-80 32q-45 0 -71.5 -30t-26.5 -73z" />
    <glyph glyph-name="nine" unicode="9" horiz-adv-x="513" 
d="M91 -12l-8 38q105 24 180 92t99 160q-62 -41 -131 -41q-82 0 -138 54.5t-56 142.5q0 86 60.5 148t158.5 62q100 0 159.5 -68.5t59.5 -189.5q0 -161 -113.5 -273t-270.5 -125zM271 293q57 0 96 26q5 42 5 72q0 101 -31 158t-93 57q-50 0 -79 -42.5t-29 -113.5
q0 -72 35.5 -114.5t95.5 -42.5z" />
    <glyph glyph-name="colon" unicode=":" horiz-adv-x="288" 
d="M143 -12q-27 0 -46 17t-19 47q0 27 19 46.5t47 19.5q30 0 48 -19.5t18 -46.5q0 -31 -20 -47.5t-47 -16.5zM144 309q-27 0 -46.5 17t-19.5 47q0 28 19 47.5t47 19.5q30 0 48 -19.5t18 -46.5q0 -31 -20 -48t-46 -17z" />
    <glyph glyph-name="semicolon" unicode=";" horiz-adv-x="288" 
d="M143 309q-26 0 -45.5 17t-19.5 47q0 28 19 47.5t47 19.5q30 0 48 -19.5t18 -46.5q0 -31 -20 -48t-47 -17zM105 -162l-59 -10l-4 6q65 101 65 191q0 38 -10 81l99 32q6 -24 6 -55q0 -69 -28.5 -133.5t-68.5 -111.5z" />
    <glyph glyph-name="less" unicode="&#x3c;" horiz-adv-x="561" 
d="M488 78v-74l-415 220v61l415 220v-71l-345 -177z" />
    <glyph glyph-name="equal" unicode="=" horiz-adv-x="632" 
d="M560 125h-487v60h487v-60zM560 324h-487v61h487v-61z" />
    <glyph glyph-name="greater" unicode="&#x3e;" horiz-adv-x="561" 
d="M73 430v75l415 -221v-61l-415 -219v71l345 177z" />
    <glyph glyph-name="question" unicode="?" horiz-adv-x="476" 
d="M247 -11q-26 0 -44.5 16.5t-18.5 48.5q0 28 18 47.5t45 19.5q29 0 46.5 -19t17.5 -47q0 -32 -19 -49t-45 -17zM81 527v97q97 37 166 37q80 0 128 -41t48 -110q0 -72 -64 -136q-21 -22 -61.5 -59t-46.5 -44q0 -7 5 -28t8 -28h-49q-37 45 -37 87q0 10 18.5 32.5t81.5 88.5
q43 46 43 99q0 46 -27.5 71.5t-71.5 25.5q-26 0 -43 -7q-29 -83 -31 -85h-67z" />
    <glyph glyph-name="at" unicode="@" horiz-adv-x="919" 
d="M643 441l-64 -379q83 19 136 91.5t53 178.5q0 123 -70 194t-199 71q-145 0 -240 -109.5t-95 -280.5q0 -131 43 -211t126 -142l-22 -34q-35 16 -71.5 45t-74 75t-61.5 114t-24 147q0 188 125 313t299 125q83 0 149 -26t105.5 -69.5t60 -98t20.5 -115.5q0 -139 -98.5 -228
t-255.5 -89q-96 0 -149 49t-53 129q0 111 80 184t192 73q58 0 88 -7zM496 56l61 356q-83 3 -135.5 -60t-52.5 -162q0 -41 13.5 -70.5t33.5 -42t35 -17.5t26 -5q10 0 19 1z" />
    <glyph glyph-name="A" unicode="A" horiz-adv-x="625" 
d="M192 297h191l-95 276zM205 0h-231v41q38 6 76 9q12 29 52 138t89 242t65 176q8 23 6 52h95q15 -46 105.5 -298.5t113.5 -310.5q30 -2 75 -8v-41h-268v41q50 7 84 8l-71 203h-218l-70 -202q46 -3 97 -10v-40z" />
    <glyph glyph-name="B" unicode="B" horiz-adv-x="616" 
d="M218 45h79q76 0 120.5 40t44.5 107q0 66 -42.5 103t-126.5 37h-75v-287zM218 613v-235h100q34 0 59 -3q51 36 51 120q0 118 -140 118h-70zM31 658h265q85 0 132 -16q103 -36 103 -135q0 -49 -31.5 -87.5t-69.5 -54.5q4 -1 11.5 -4t11.5 -4q56 -22 89 -62t33 -92
q0 -94 -75 -148.5t-212 -54.5h-257v41q53 7 86 9v557q-5 1 -23 2.5t-35 3.5t-28 4v41z" />
    <glyph glyph-name="B" unicode="&#xe000;" horiz-adv-x="616" 
d="M218 45h79q76 0 120.5 40t44.5 107q0 66 -42.5 103t-126.5 37h-75v-287zM218 613v-235h100q34 0 59 -3q51 36 51 120q0 118 -140 118h-70zM31 658h265q85 0 132 -16q103 -36 103 -135q0 -49 -31.5 -87.5t-69.5 -54.5q4 -1 11.5 -4t11.5 -4q56 -22 89 -62t33 -92
q0 -94 -75 -148.5t-212 -54.5h-257v41q53 7 86 9v557q-5 1 -23 2.5t-35 3.5t-28 4v41z" />
    <glyph glyph-name="C" unicode="C" horiz-adv-x="650" 
d="M565 0q-82 -12 -150 -12q-157 0 -260.5 90.5t-103.5 254.5q0 149 99.5 242t272.5 93q46 0 112 -5t69 -5v-129h-56q-7 9 -38 83q-22 12 -100 12q-47 0 -89 -14.5t-78.5 -45.5t-57.5 -87t-21 -132q0 -82 24 -144t64.5 -96.5t85.5 -51t94 -16.5q38 0 62 7q45 61 55 69h65
q-30 -80 -49 -113z" />
    <glyph glyph-name="D" unicode="D" horiz-adv-x="721" 
d="M319 613h-101v-568h98q95 0 168.5 74.5t73.5 217.5q0 136 -68.5 206t-170.5 70zM31 658h310q151 0 240 -86t89 -224q0 -110 -53.5 -191t-134.5 -119t-176 -38h-275v41q33 5 86 9v557q-57 6 -86 10v41z" />
    <glyph glyph-name="E" unicode="E" 
d="M533 658v-129h-56q-8 10 -39 84h-220v-251h171q8 42 23 88h41v-225h-41q-15 46 -23 91h-171v-271h251q42 78 59 95h57l-32 -140h-522v41q9 1 28 3.5t34 4t24 2.5v556q-46 3 -86 10v41h502z" />
    <glyph glyph-name="E" unicode="&#xe001;" 
d="M533 658v-129h-56q-8 10 -39 84h-220v-251h171q8 42 23 88h41v-225h-41q-15 46 -23 91h-171v-271h251q42 78 59 95h57l-32 -140h-522v41q9 1 28 3.5t34 4t24 2.5v556q-46 3 -86 10v41h502z" />
    <glyph glyph-name="F" unicode="F" horiz-adv-x="570" 
d="M537 658v-129h-55q-6 6 -40 84h-224v-262h183q7 42 22 88h41v-225h-41q-7 28 -22 91h-183v-256q58 -3 102 -8v-41h-289v41q26 3 86 9v558q-55 3 -86 9v41h506z" />
    <glyph glyph-name="G" unicode="G" horiz-adv-x="705" 
d="M526 612q-7 4 -40 9t-71 5q-44 0 -86 -14.5t-80.5 -46t-61.5 -89.5t-23 -136q0 -148 77 -227.5t185 -79.5q49 0 85 10v226q-66 3 -103 9v41h259v-40q-42 -6 -54 -7v-215q0 -2 1.5 -8.5t3.5 -16.5t3 -16q-137 -27 -214 -27q-153 0 -254.5 90.5t-101.5 255.5
q0 147 103.5 240t276.5 93q39 0 189 -10v-129h-56q-8 6 -38 83z" />
    <glyph glyph-name="H" unicode="H" horiz-adv-x="755" 
d="M294 0h-260v41q44 7 86 9v557q-71 7 -86 10v41h260v-41q-43 -7 -73 -9v-236h312v236q-5 1 -29 3.5t-43 5.5v41h260v-41q-47 -8 -86 -9v-558q23 -2 86 -9v-41h-265v41q6 1 77 9v275h-312v-275q51 -6 73 -10v-40z" />
    <glyph glyph-name="I" unicode="I" horiz-adv-x="334" 
d="M303 0h-273v41q49 7 85 9v557q-35 2 -85 10v41h273v-41q-25 -4 -86 -10v-557q69 -7 86 -9v-41z" />
    <glyph glyph-name="J" unicode="J" horiz-adv-x="334" 
d="M33 658h272v-40q-23 -5 -77 -10v-482q0 -79 -27 -139q-26 -57 -73 -108.5t-96 -82.5l-25 34q75 63 97.5 123.5t22.5 152.5v502q-55 4 -94 10v40z" />
    <glyph glyph-name="K" unicode="K" horiz-adv-x="656" 
d="M305 0h-273v41q27 4 85 10v556q-37 2 -85 10v41h273v-41q-46 -7 -86 -10v-272q60 50 152 138.5t129 133.5q-46 5 -85 10v41h236v-41q-12 -1 -40.5 -5t-42.5 -6q-51 -52 -229 -222q31 -46 121.5 -162.5t118.5 -145.5q24 -23 45 -27q22 -5 55 -8v-41h-114q-31 0 -47 6.5
t-32 24.5q-26 27 -105 135t-113 161l-49 -39v-238q37 -2 86 -9v-41z" />
    <glyph glyph-name="L" unicode="L" horiz-adv-x="581" 
d="M532 0h-501v41q72 8 86 9v557q-9 1 -42 5t-44 5v41h284v-41q-54 -6 -97 -9v-563h230q51 92 68 105h58z" />
    <glyph glyph-name="M" unicode="M" horiz-adv-x="896" 
d="M282 0h-245v41q66 9 79 10l9 556q-8 1 -38.5 4t-47.5 6v41h187q186 -425 226 -507q9 21 112.5 249.5t116.5 257.5h181v-41q-14 -3 -86 -10v-557q64 -6 84 -9v-41h-277v41q37 6 92 9q1 76 3.5 253t4.5 256q-17 -39 -121.5 -278t-122.5 -281h-38q-13 31 -68 164t-104.5 253
t-60.5 149l4 -515q28 -2 110 -10v-41z" />
    <glyph glyph-name="N" unicode="N" horiz-adv-x="733" 
d="M277 0h-245v41q54 7 82 10q0 28 2 249.5t3 306.5q-9 1 -38 4.5t-43 5.5v41h180q50 -74 137.5 -200t151.5 -218t70 -102h2q0 39 -0.5 226.5t-1.5 243.5q-38 3 -101 9v41h238v-42q-43 -6 -79 -8q-1 -32 -1.5 -192.5t-0.5 -222.5q0 -115 2 -193h-82q-82 121 -152.5 226
t-107.5 159t-65 96t-39.5 59t-16.5 25h-1q0 -35 0.5 -158t1 -229t1.5 -128q6 -1 24.5 -2.5t39 -3.5t39.5 -4v-40z" />
    <glyph glyph-name="O" unicode="O" horiz-adv-x="747" 
d="M378 -12q-150 0 -238.5 97t-88.5 244q0 145 88.5 242t238.5 97q142 0 230.5 -94.5t88.5 -242.5q0 -145 -88.5 -244t-230.5 -99zM384 31q91 0 145.5 75.5t54.5 214.5q0 148 -62 226.5t-156 78.5q-90 0 -146 -73t-56 -212q0 -136 59.5 -223t160.5 -87z" />
    <glyph glyph-name="P" unicode="P" horiz-adv-x="594" 
d="M319 0h-288v41q63 8 86 9v557q-67 7 -86 10v41h257q112 0 164 -25q101 -47 101 -161q0 -71 -41 -120.5t-101.5 -70.5t-133.5 -22h-59v-209q30 -1 101 -9v-41zM218 305h58q73 0 121.5 38.5t48.5 120.5q0 149 -158 149h-70v-308z" />
    <glyph glyph-name="Q" unicode="Q" horiz-adv-x="747" 
d="M787 -140l-8 -40q-128 -9 -198 18q-47 18 -184 142q-8 8 -20 8q-154 3 -240 100t-86 241q0 148 92.5 243.5t235.5 95.5q138 0 228.5 -93t89.5 -245q-1 -119 -57 -200t-135 -113q114 -114 171 -140q34 -14 111 -17zM386 31q89 0 143.5 73.5t54.5 215.5q0 150 -63.5 228
t-152.5 78q-87 0 -145.5 -72.5t-58.5 -214.5q0 -150 65.5 -229t156.5 -79z" />
    <glyph glyph-name="R" unicode="R" horiz-adv-x="627" 
d="M218 337h104q30 0 47 11q66 40 66 125q0 140 -154 140h-63v-276zM304 0h-273v41q15 3 31.5 4.5t33 2.5t21.5 2v556q-65 8 -86 11v41h265q85 0 129 -16q51 -17 83 -56.5t32 -99.5q0 -115 -131 -171q117 -203 164 -249q16 -16 31 -20q6 -1 43 -5v-41h-86q-37 0 -56.5 8
t-35.5 30q-34 43 -147 243q-6 10 -14 10h-90v-241q43 -3 86 -9v-41z" />
    <glyph glyph-name="S" unicode="S" horiz-adv-x="523" 
d="M59 18l-10 124h57q5 -5 50 -97q27 -15 77 -15q63 0 103 33t40 84q0 49 -30 80.5t-120 69.5q-91 38 -128 86t-37 112q0 74 57 123.5t171 49.5q39 0 90 -5t64 -5v-129h-54q-7 9 -42 88q-27 11 -62 11q-71 0 -101.5 -31t-30.5 -75q0 -42 27 -74t101 -62q108 -43 152 -90.5
t44 -115.5q0 -89 -71 -140.5t-176 -51.5q-23 0 -44 1.5t-41.5 6t-30.5 7t-31 8.5t-24 7z" />
    <glyph glyph-name="S" unicode="&#xe002;" horiz-adv-x="523" 
d="M59 18l-10 124h57q5 -5 50 -97q27 -15 77 -15q63 0 103 33t40 84q0 49 -30 80.5t-120 69.5q-91 38 -128 86t-37 112q0 74 57 123.5t171 49.5q39 0 90 -5t64 -5v-129h-54q-7 9 -42 88q-27 11 -62 11q-71 0 -101.5 -31t-30.5 -75q0 -42 27 -74t101 -62q108 -43 152 -90.5
t44 -115.5q0 -89 -71 -140.5t-176 -51.5q-23 0 -44 1.5t-41.5 6t-30.5 7t-31 8.5t-24 7z" />
    <glyph glyph-name="T" unicode="T" horiz-adv-x="633" 
d="M27 520v138h576v-138h-51q-6 6 -44 93h-153v-563q35 -2 99 -10v-40h-298v41q86 8 98 9v563h-134q-35 -87 -42 -93h-51z" />
    <glyph glyph-name="U" unicode="U" horiz-adv-x="712" 
d="M610 608v-383q0 -92 -39 -147q-64 -90 -213 -90q-168 0 -230 110q-25 46 -25 121v389q-18 2 -76 8v42h264v-41q-19 -3 -87 -10v-398q1 -73 44 -119t129 -46q81 0 126.5 45t45.5 122v397q-79 7 -96 9v41h232v-42q-40 -6 -75 -8z" />
    <glyph glyph-name="V" unicode="V" horiz-adv-x="615" 
d="M336 -6h-64q-83 242 -223 613q-7 1 -34.5 4t-38.5 6v41h265v-41q-20 -2 -51 -5.5t-33 -3.5q16 -50 93 -264.5t83 -234.5q170 467 179 499q-17 2 -96 9v41h223v-41q-13 -2 -40.5 -5.5t-29.5 -3.5q-9 -25 -67.5 -177t-107 -280.5t-58.5 -156.5z" />
    <glyph glyph-name="W" unicode="W" horiz-adv-x="908" 
d="M292 -6h-65q-16 60 -90.5 322t-82.5 293q-24 1 -76 8v41h271v-41q-48 -7 -91 -8q9 -35 39 -148t56 -211.5t31 -125.5q13 44 77 255.5t83 278.5h60q9 -32 79 -258t84 -277q109 380 132 485q-6 1 -46 4t-54 5v41h233v-42q-38 -5 -76 -8q-96 -316 -183 -614h-65
q-11 44 -78.5 264.5t-79.5 263.5z" />
    <glyph glyph-name="X" unicode="X" horiz-adv-x="586" 
d="M197 0h-225v41q44 6 77 8q110 147 194 276q-25 44 -168 283q-25 1 -81 9v41h258v-41q-15 -2 -37.5 -4.5t-26.5 -2.5q2 -5 125 -215q20 28 69.5 104t68.5 109q-56 4 -86 9v41h225v-41q-77 -9 -79 -9q-23 -31 -89.5 -129.5t-83.5 -122.5q67 -121 183 -306q13 -1 41.5 -5
t41.5 -5v-40h-275v41q8 1 34.5 3.5t40.5 3.5q-16 31 -74 128.5t-64 107.5q-21 -30 -155 -235q68 -5 86 -9v-40z" />
    <glyph glyph-name="Y" unicode="Y" horiz-adv-x="550" 
d="M429 0h-296v41q62 8 95 10v207q0 19 -10 39q-30 58 -91 165.5t-85 146.5q-31 2 -69 8v41h260v-41q-7 -1 -38.5 -4t-38.5 -4q30 -62 152 -277q116 207 148 277q-51 2 -86 8v41h211v-41q-25 -4 -67 -8q-9 -16 -82.5 -146t-92.5 -167q-10 -20 -10 -41v-204q47 -2 100 -11
v-40z" />
    <glyph glyph-name="Z" unicode="Z" horiz-adv-x="581" 
d="M531 0h-510v34l403 579h-284q-33 -80 -43 -93h-53v138h497v-37l-398 -576h303q45 81 58 96h58z" />
    <glyph glyph-name="bracketleft" unicode="[" horiz-adv-x="403" 
d="M101 -92v759q0 33 -2 69h237v-48q-5 0 -156 -5v-789q145 -7 156 -8v-49h-237q2 16 2 71z" />
    <glyph glyph-name="backslash" unicode="\" horiz-adv-x="463" 
d="M330 -59l-269 731h69l272 -731h-72z" />
    <glyph glyph-name="bracketright" unicode="]" horiz-adv-x="403" 
d="M302 666v-760q0 -33 2 -69h-237v48q5 0 156 5v789q-133 6 -156 9v48h237q-2 -16 -2 -70z" />
    <glyph glyph-name="asciicircum" unicode="^" horiz-adv-x="542" 
d="M124 273h-72l174 371h81l183 -371h-75q-20 43 -55.5 116.5t-61.5 127.5t-34 72q-6 -18 -29 -70t-59 -131.5t-52 -114.5z" />
    <glyph glyph-name="underscore" unicode="_" horiz-adv-x="503" 
d="M0 -126h503v-50h-503v50z" />
    <glyph glyph-name="grave" unicode="`" horiz-adv-x="400" 
d="M245 529h-50l-146 166l4 12h106z" />
    <glyph glyph-name="a" unicode="a" horiz-adv-x="481" 
d="M301 221h-17q-78 0 -114.5 -22t-36.5 -69q0 -38 23 -59.5t61 -21.5q47 0 85 24q-1 3 -1 11v137zM393 333v-264q0 -8 9 -16t27 -8q13 0 24 2v-40q-31 -14 -68 -14q-56 0 -75 47q-88 -52 -142 -52q-48 0 -88 36.5t-40 93.5q0 142 246 142h15v70q0 95 -100 95q-22 0 -34 -4
q-17 -64 -23 -74h-72v85q113 37 173 37q72 0 110 -38t38 -98z" />
    <glyph glyph-name="b" unicode="b" horiz-adv-x="538" 
d="M171 401v-351q31 -17 79 -17q67 0 110 54t43 147q0 84 -40.5 132t-109.5 48q-46 0 -82 -13zM12 684v36h13q121 0 151 5q-6 -33 -6 -56v-232q78 32 131 32q83 0 143 -60t60 -159q0 -117 -81 -189.5t-186 -72.5q-73 0 -159 24v645q-30 19 -66 27z" />
    <glyph glyph-name="b" unicode="&#xe003;" horiz-adv-x="538" 
d="M171 401v-351q31 -17 79 -17q67 0 110 54t43 147q0 84 -40.5 132t-109.5 48q-46 0 -82 -13zM12 684v36h13q121 0 151 5q-6 -33 -6 -56v-232q78 32 131 32q83 0 143 -60t60 -159q0 -117 -81 -189.5t-186 -72.5q-73 0 -159 24v645q-30 19 -66 27z" />
    <glyph glyph-name="c" unicode="c" horiz-adv-x="448" 
d="M301 469q36 0 110 -13v-100h-65q-12 17 -30 69q-8 4 -28 4q-63 0 -107.5 -48t-44.5 -139q0 -93 48 -144.5t117 -51.5q60 0 111 26v-40q-58 -44 -147 -44q-93 0 -162 63.5t-69 177.5q0 103 74.5 171.5t192.5 68.5z" />
    <glyph glyph-name="d" unicode="d" horiz-adv-x="549" 
d="M368 76v327q-30 26 -83 26q-65 0 -107 -50.5t-42 -132.5q0 -93 42.5 -143t105.5 -50q46 0 84 23zM461 666v-599q9 -3 60 -6v-41q-74 -11 -143 -29q-6 24 -8 50q-84 -49 -139 -49q-73 0 -135 64.5t-62 167.5q0 108 78 178.5t193 70.5q41 0 63 -5v189q-24 15 -74 27v36h23
q120 0 150 5q-6 -36 -6 -59z" />
    <glyph glyph-name="e" unicode="e" horiz-adv-x="467" 
d="M412 83v-42q-67 -53 -161 -53q-99 0 -158.5 67t-58.5 170q1 99 60.5 171.5t159.5 72.5q93 0 136.5 -55.5t43.5 -127.5q0 -22 -2 -33q-24 -6 -160 -6h-139q-1 -98 42.5 -149t112.5 -51q68 0 124 36zM136 289h124q67 0 77 1v16q0 48 -20 85.5t-71 37.5q-46 0 -74.5 -36.5
t-35.5 -103.5z" />
    <glyph glyph-name="f" unicode="f" horiz-adv-x="297" 
d="M270 0h-241v41q35 6 65 8v359q-52 3 -73 8v41h73q0 113 47 179q67 94 179 94q43 0 67 -8v-88h-70q-1 2 -6 11t-9.5 18t-7.5 16h-2q-44 5 -75 -29t-31 -115v-78h103v-41q-40 -6 -103 -8v-359q40 -2 84 -8v-41z" />
    <glyph glyph-name="g" unicode="g" horiz-adv-x="489" 
d="M232 188q38 0 59 31.5t21 83.5q0 55 -21 91.5t-69 36.5q-40 0 -60 -33t-20 -82q0 -53 22.5 -90.5t67.5 -37.5zM317 -22q-14 2 -61 5.5t-74 6.5q-10 1 -28 5q-47 -54 -47 -93q0 -43 41.5 -74.5t110.5 -31.5q72 0 105 31t33 77q0 66 -80 74zM483 457l-4 -65q-56 7 -98 7
q27 -36 27 -88q0 -74 -50 -117t-128 -43q-35 0 -70 11q-16 -30 -16 -44q0 -20 16.5 -31t37.5 -13q19 -2 74.5 -5t80.5 -6q45 -4 84.5 -34t39.5 -88q0 -80 -72 -137t-172 -57q-104 0 -158 45.5t-54 94.5q0 15 24.5 47.5t75.5 74.5q-49 30 -49 73q0 25 56 93q-82 44 -82 134
q0 65 49.5 112.5t133.5 47.5q53 0 107 -21q8 -4 14 -4q83 10 133 13z" />
    <glyph glyph-name="h" unicode="h" horiz-adv-x="560" 
d="M244 0h-216v41q50 7 60 8v608q-37 18 -66 27v36h20q106 0 144 3q-6 -48 -5 -56v-254q77 56 147 56t107 -46.5t37 -119.5v-254q33 -3 58 -8v-41h-216v41q59 8 65 9v257q0 44 -25 72.5t-74 28.5t-99 -30v-330q10 -1 63 -7v-41z" />
    <glyph glyph-name="i" unicode="i" horiz-adv-x="275" 
d="M69 618q0 20 16 38.5t43 18.5q26 0 41.5 -17t15.5 -40q0 -25 -16 -41.5t-43 -16.5t-42 17t-15 41zM244 0h-215v41q26 4 65 8v344q-31 19 -62 27v37h57q79 0 97 3v-412q16 0 58 -7v-41z" />
    <glyph glyph-name="j" unicode="j" horiz-adv-x="267" 
d="M27 420v37h55q79 0 103 4l-1 -412q0 -68 -15 -116q-38 -112 -144 -182l-27 32q62 54 78 100t16 139v371q-39 23 -65 27zM68 618q0 20 15.5 38.5t42.5 18.5q26 0 41.5 -17t15.5 -40q0 -25 -15.5 -41.5t-41.5 -16.5q-28 0 -43 17t-15 41z" />
    <glyph glyph-name="k" unicode="k" horiz-adv-x="504" 
d="M490 457v-41q-16 -5 -58 -9q-76 -73 -147 -130q40 -59 92 -125.5t77 -90.5q10 -10 24 -13q9 -2 47 -7v-41h-94q-28 0 -42 7.5t-32 27.5q-46 52 -138 192q-34 -24 -38 -26v-153q43 -3 69 -7v-41h-221v41q26 5 60 7v609q-22 16 -66 27v36h17q100 0 148 4q-7 -44 -7 -57
v-425q45 33 101 82t88 83q-45 3 -77 9v41h197z" />
    <glyph glyph-name="l" unicode="l" horiz-adv-x="270" 
d="M240 0h-211v41q48 7 60 8v608q-30 19 -66 27v36h23q104 0 142 4q-7 -42 -7 -57v-619q33 -2 59 -8v-40z" />
    <glyph glyph-name="m" unicode="m" horiz-adv-x="839" 
d="M248 0h-219v41q24 3 65 8v344q-26 19 -62 27v37h59q73 0 89 2q1 -4 1.5 -11.5t1 -19t1.5 -20.5q81 61 148 61q79 0 115 -66q93 66 158 66q74 0 110 -48t36 -121v-251q12 -1 34.5 -4.5t23.5 -3.5v-41h-216v42q17 2 65 7v253q0 50 -23.5 78t-70.5 28q-50 0 -104 -34
q8 -29 8 -71v-254q29 -3 62 -8v-41h-219v42q10 2 32.5 4.5t32.5 3.5v258q0 100 -89 100q-50 0 -101 -32v-327q6 -1 28.5 -3.5t33.5 -4.5v-41z" />
    <glyph glyph-name="n" unicode="n" horiz-adv-x="566" 
d="M250 0h-221v41q13 2 39 5l26 3v344q-31 20 -62 27v37h58q74 0 90 2q0 -4 4 -54q83 64 152 64q66 0 103.5 -46t37.5 -117v-257q12 -1 33 -4t26 -4v-41h-217v42q39 6 66 8v257q0 45 -23 72.5t-72 27.5q-47 0 -104 -35v-323q30 -2 64 -8v-41z" />
    <glyph glyph-name="o" unicode="o" horiz-adv-x="533" 
d="M270 469q100 0 164.5 -66t64.5 -166q0 -108 -64.5 -178.5t-168.5 -70.5q-103 0 -167.5 69t-64.5 173q0 100 64.5 169.5t171.5 69.5zM276 29q58 0 88 53.5t30 140.5q0 90 -34.5 147.5t-98.5 57.5q-61 0 -91.5 -52.5t-30.5 -134.5q0 -87 35.5 -149.5t101.5 -62.5z" />
    <glyph glyph-name="p" unicode="p" horiz-adv-x="553" 
d="M185 383v-320q35 -28 85 -28q61 0 104 51.5t43 150.5q0 80 -36 125t-95 45q-43 0 -101 -24zM273 -244h-250v41q29 6 69 8v589q-33 21 -59 25v38h52q77 0 93 1q1 -4 1.5 -11.5t1.5 -17t1 -12.5q92 52 152 52q74 0 129 -61.5t55 -156.5q0 -62 -25 -114t-64 -83.5
t-82.5 -48.5t-83.5 -17q-38 0 -78 8v-191q55 -4 88 -9v-40z" />
    <glyph glyph-name="q" unicode="q" horiz-adv-x="538" 
d="M368 57v350q-36 19 -82 19q-60 0 -104.5 -47.5t-44.5 -142.5q0 -93 47 -144.5t109 -51.5q35 0 75 17zM368 -194v214q-65 -32 -128 -32q-33 0 -68 14.5t-66.5 41.5t-51.5 74t-20 105q0 104 79.5 175t195.5 71q22 0 47.5 -2.5t43 -5.5t40.5 -7t29 -5q-8 -30 -8 -53v-590
q8 -1 32 -5t35 -5v-40h-245v40q10 2 27 4t35 3.5t23 2.5z" />
    <glyph glyph-name="r" unicode="r" horiz-adv-x="390" 
d="M278 0h-249v41q3 1 65 8v345q-35 22 -62 26v37h55q48 0 93 3q1 -9 4 -72q70 81 151 81q28 0 44 -6l-12 -110h-40q-19 27 -29 32q-9 5 -24 5q-48 0 -88 -40v-302q56 -3 92 -7v-41z" />
    <glyph glyph-name="s" unicode="s" horiz-adv-x="400" 
d="M339 457v-98h-57q-10 10 -32 66q-12 7 -36 7q-40 0 -61.5 -20t-21.5 -52q0 -27 19 -46.5t79 -41.5q71 -27 102.5 -58.5t31.5 -82.5q0 -64 -52.5 -103.5t-132.5 -39.5q-58 0 -131 23q-1 10 -4 49t-4 50h59q10 -17 38 -76q19 -8 42 -8q47 0 71 21.5t24 53.5q0 29 -17 49.5
t-68 40.5q-74 29 -107 61.5t-33 84.5q0 54 41 93t132 39q46 0 118 -12z" />
    <glyph glyph-name="s" unicode="&#xe004;" horiz-adv-x="400" 
d="M339 457v-98h-57q-10 10 -32 66q-12 7 -36 7q-40 0 -61.5 -20t-21.5 -52q0 -27 19 -46.5t79 -41.5q71 -27 102.5 -58.5t31.5 -82.5q0 -64 -52.5 -103.5t-132.5 -39.5q-58 0 -131 23q-1 10 -4 49t-4 50h59q10 -17 38 -76q19 -8 42 -8q47 0 71 21.5t24 53.5q0 29 -17 49.5
t-68 40.5q-74 29 -107 61.5t-33 84.5q0 54 41 93t132 39q46 0 118 -12z" />
    <glyph glyph-name="t" unicode="t" horiz-adv-x="319" 
d="M298 54v-38q-46 -28 -99 -28q-112 0 -112 126v294q-14 1 -72 8v41h74q11 58 44 129h66q-13 -66 -16 -129h117v-42q-74 -7 -120 -7v-314q0 -21 13 -37t44 -16q28 0 61 13z" />
    <glyph glyph-name="u" unicode="u" horiz-adv-x="551" 
d="M522 57v-41q-49 -6 -140 -28q-5 22 -9 66q-73 -66 -152 -66q-58 0 -98.5 36.5t-40.5 112.5v257q-26 18 -60 26v37h69q61 0 87 2q-3 -45 -3 -55v-271q0 -32 24.5 -57t64.5 -25q61 0 105 41v302q-32 17 -72 26v37h65q78 0 100 2v-397q8 -2 60 -5z" />
    <glyph glyph-name="v" unicode="v" horiz-adv-x="482" 
d="M262 -5h-47q-32 96 -161 413q-24 1 -57 8v41h214v-41q-29 -4 -57 -6q14 -43 61 -167.5t51 -134.5q103 272 112 299q-40 3 -76 9v41h184v-41q-16 -5 -55 -9q-17 -42 -58 -142t-74 -180.5t-37 -89.5z" />
    <glyph glyph-name="w" unicode="w" horiz-adv-x="736" 
d="M542 -6h-51q-8 26 -60.5 171.5t-63.5 178.5q-12 -40 -59 -175.5t-59 -174.5h-51q-14 49 -140 412q-15 1 -61 10v41h225v-42q-24 -5 -66 -7q6 -21 45 -140.5t47 -148.5q10 35 58 178.5t53 159.5h60q10 -32 61 -175t59 -169q74 227 92 292q-55 4 -84 11v41h194v-41
q-20 -5 -59 -11q-13 -41 -69 -202.5t-71 -208.5z" />
    <glyph glyph-name="x" unicode="x" horiz-adv-x="444" 
d="M184 0h-197v41q45 7 66 9q36 45 129 173q-73 119 -114 183q-49 7 -64 10v41h212v-41q-32 -5 -48 -6l77 -128q53 73 83 125q-49 6 -63 9v41h184v-41q-21 -4 -65 -10q-32 -41 -116 -158l126 -197q32 -3 65 -10v-41h-220v41q13 2 54 7l-89 141q-10 -15 -93 -141q50 -4 73 -7
v-41z" />
    <glyph glyph-name="y" unicode="y" horiz-adv-x="490" 
d="M55 405q-21 2 -61 11v41h230v-41q-9 -2 -36 -5t-31 -4q96 -235 120 -291q89 211 113 290q-47 3 -87 10v41h200v-41q-28 -7 -58 -9q-30 -75 -167 -395q-13 -31 -53.5 -134t-52.5 -132q-14 -1 -47.5 6t-46.5 14v9q31 40 76.5 111.5t69.5 118.5q3 4 1 10q-14 33 -49.5 114.5
t-74 169t-46.5 106.5z" />
    <glyph glyph-name="y" unicode="&#xe006;" horiz-adv-x="490" 
d="M55 405q-21 2 -61 11v41h230v-41q-9 -2 -36 -5t-31 -4q96 -235 120 -291q89 211 113 290q-47 3 -87 10v41h200v-41q-28 -7 -58 -9q-30 -75 -167 -395q-13 -31 -53.5 -134t-52.5 -132q-14 -1 -47.5 6t-46.5 14v9q31 40 76.5 111.5t69.5 118.5q3 4 1 10q-14 33 -49.5 114.5
t-74 169t-46.5 106.5z" />
    <glyph glyph-name="z" unicode="z" horiz-adv-x="432" 
d="M93 336h-57v121h365v-34q-19 -28 -81.5 -116.5t-114.5 -163.5t-69 -100l184 1q27 61 37 78h62q-20 -100 -25 -122h-369v35q200 280 267 378h-172q-16 -56 -27 -77z" />
    <glyph glyph-name="braceleft" unicode="{" horiz-adv-x="447" 
d="M51 266v57q75 0 100 22.5t25 76.5q0 15 -2 64.5t-1 71.5q1 89 60 134t153 46v-45q-75 -5 -103 -35.5t-28 -88.5q0 -14 2.5 -66.5t1.5 -79.5q-1 -49 -29.5 -85.5t-97.5 -42.5q127 -14 127 -127q0 -35 -1 -85.5t-1 -78.5q0 -57 29 -87.5t100 -35.5v-45q-213 0 -213 181
q0 30 1.5 80t1.5 76q0 47 -27.5 70t-97.5 23z" />
    <glyph glyph-name="bar" unicode="|" horiz-adv-x="296" 
d="M107 756h81v-1008h-81v1008z" />
    <glyph glyph-name="braceright" unicode="}" horiz-adv-x="447" 
d="M396 307v-56q-74 0 -99.5 -23t-25.5 -77q0 -13 1.5 -62.5t0.5 -72.5q-1 -89 -59.5 -134.5t-152.5 -45.5v45q74 5 102.5 36.5t28.5 86.5q0 15 -3 67.5t-2 79.5q1 49 30 85.5t98 42.5q-128 15 -128 128q0 35 1.5 84.5t1.5 78.5q0 56 -28.5 86.5t-100.5 36.5v45
q212 0 212 -181q0 -30 -1 -79.5t-1 -75.5q0 -49 26.5 -72t98.5 -23z" />
    <glyph glyph-name="asciitilde" unicode="~" horiz-adv-x="584" 
d="M466 324h61q0 -161 -117 -161q-33 0 -58 10.5t-65 35.5q-8 5 -27 16.5t-29.5 18t-25.5 12t-26 5.5q-29 0 -44 -21t-16 -77h-62q0 78 32.5 119.5t88.5 41.5q16 0 29 -2t28.5 -9t22 -10.5t26.5 -16.5t25 -16q65 -42 99 -42q29 0 43.5 19t14.5 77z" />
    <glyph glyph-name="exclamdown" unicode="&#xa1;" horiz-adv-x="327" 
d="M127 227h50q7 -54 20 -182.5t15 -176.5l2 -69q-20 -5 -61 -5q-39 0 -61 5l1 72q3 106 34 356zM153 469q24 0 44.5 -16.5t20.5 -48.5q0 -28 -18.5 -47.5t-47.5 -19.5t-46.5 19.5t-17.5 47.5q0 31 20.5 48t44.5 17z" />
    <glyph glyph-name="cent" unicode="&#xa2;" horiz-adv-x="495" 
d="M257 145l27 356q-55 -7 -93 -53.5t-38 -129.5q0 -142 104 -173zM452 422h-54q-4 5 -29 68q-13 8 -41 11l-29 -364h11q71 0 138 39v-40q-60 -52 -153 -58l-7 -85h-43l7 87q-80 11 -137.5 69.5t-57.5 160.5q0 94 63 158.5t167 71.5l6 83h44l-6 -82q23 -1 46 -4.5t46 -8
t29 -5.5v-101z" />
    <glyph glyph-name="sterling" unicode="&#xa3;" horiz-adv-x="513" 
d="M429 145h47l-11 -38.5t-17.5 -61t-12.5 -45.5h-405v46q42 19 61 49q30 42 30 179v31h-86v45h86v21q0 134 60.5 203.5t160.5 69.5q67 0 110 -15v-107h-57q-9 13 -35 79q-12 5 -31 5q-103 0 -103 -192v-64h143v-45h-143q-4 -169 -104 -230h257q7 8 17 22t20 29t13 19z" />
    <glyph glyph-name="currency" unicode="&#xa4;" horiz-adv-x="513" 
d="M256 183q54 0 84.5 35.5t30.5 101.5q0 61 -33 99t-84 38q-56 0 -87 -36.5t-31 -100.5q0 -59 34 -98t86 -39zM459 495l-59 -60q36 -50 36 -115q0 -66 -36 -116l59 -60l-47 -46l-54 64q-45 -32 -103 -32q-60 0 -106 33l-52 -65l-49 47l60 59q-35 51 -35 116t35 114l-60 60
l49 47l51 -65q46 35 107 35q60 0 104 -33l53 63z" />
    <glyph glyph-name="yen" unicode="&#xa5;" horiz-adv-x="513" 
d="M323 633h181v-41q-47 -8 -56 -9q-15 -28 -76 -138.5t-71 -131.5v-3h118v-41h-118v-59h118v-41h-118v-118q73 -8 89 -11v-40h-268v41q22 3 82 10v118h-117v41h117v59h-117v41h117q-18 39 -68 136t-74 138q-7 0 -54 8v41h229v-41q-10 -1 -33.5 -3.5t-30.5 -3.5
q1 -3 106 -225q101 190 117 224q-4 0 -32.5 3t-40.5 5v41z" />
    <glyph glyph-name="brokenbar" unicode="&#xa6;" horiz-adv-x="296" 
d="M107 -179v358h81v-358h-81zM107 691h81v-358h-81v358z" />
    <glyph glyph-name="section" unicode="&#xa7;" horiz-adv-x="518" 
d="M269 633q-45 0 -68 -21.5t-23 -49.5q0 -31 20.5 -51.5t84.5 -54.5q95 -50 125.5 -90t30.5 -94q0 -83 -72 -140q42 -37 42 -95q0 -69 -53.5 -108.5t-121.5 -39.5q-57 0 -140 26v92h57q9 -17 29 -73q16 -8 46 -8q48 0 77.5 20.5t29.5 59.5q0 30 -24.5 57.5t-103.5 67.5
q-71 37 -104.5 75.5t-33.5 97.5q0 81 83 135q-47 40 -47 99q0 56 43 93t128 37q59 0 122 -14v-94h-51q-5 7 -28 64q-19 9 -48 9zM342 154q29 36 29 81q0 37 -20.5 65t-83.5 66q-87 52 -93 54q-41 -34 -41 -86q0 -34 18 -57.5t70 -54.5q103 -56 121 -68z" />
    <glyph glyph-name="dieresis" unicode="&#xa8;" horiz-adv-x="400" 
d="M48 618q0 20 14.5 37t40.5 17q24 0 38 -16t14 -38q0 -24 -14.5 -40t-38.5 -16q-26 0 -40 16.5t-14 39.5zM244 618q0 20 14 37t40 17q24 0 38 -16t14 -38q0 -24 -14 -40t-38 -16q-27 0 -40.5 16.5t-13.5 39.5z" />
    <glyph glyph-name="copyright" unicode="&#xa9;" horiz-adv-x="761" 
d="M381 661q142 0 235 -95t93 -237t-95 -237t-233 -95q-144 0 -236.5 94t-92.5 238q0 142 95.5 237t233.5 95zM381 625q-123 0 -203.5 -82t-80.5 -212q0 -129 84.5 -212.5t199.5 -83.5q122 0 202 82t80 214q0 128 -82 211t-200 83zM518 507v-84h-35q-14 40 -26 49
q-15 9 -50 9q-50 0 -82 -35.5t-32 -102.5q0 -83 34 -121t87 -38q28 0 38 6q11 7 33 43h39q-19 -61 -23 -70q-44 -14 -96 -14q-79 0 -138.5 48t-59.5 137q0 78 54 129.5t147 51.5q28 0 61 -4t39 -4h10z" />
    <glyph glyph-name="ordfeminine" unicode="&#xaa;" horiz-adv-x="340" 
d="M206 338v88h-13q-45 -1 -69 -12.5t-24 -40.5q0 -23 12.5 -38.5t35.5 -15.5q34 0 58 19zM318 314v-33q-17 -8 -52 -8q-50 0 -57 37q-56 -37 -94 -37q-35 0 -61 25.5t-26 64.5q0 89 169 91h9v37q0 12 -3.5 23.5t-17.5 23t-37 11.5q-15 0 -28 -5q-10 -37 -18 -50h-52v62
q72 29 122 29q56 0 81.5 -29t25.5 -72v-164q14 -11 39 -6z" />
    <glyph glyph-name="guillemotleft" unicode="&#xab;" horiz-adv-x="589" 
d="M70 229v23q104 91 201 206l31 -30q-52 -87 -135 -184q81 -105 135 -193l-34 -32q-135 155 -198 210zM287 229v21q88 75 201 208l31 -30q-51 -78 -135 -184q96 -128 134 -193l-33 -32q-123 143 -198 210z" />
    <glyph glyph-name="logicalnot" unicode="&#xac;" horiz-adv-x="623" 
d="M482 64v240h-416v61h477v-301h-61z" />
    <glyph glyph-name="uni00AD" unicode="&#xad;" horiz-adv-x="322" 
d="M44 201v69h234v-69h-234z" />
    <glyph glyph-name="registered" unicode="&#xae;" horiz-adv-x="294" 
d="M164 486h-68v13q2 1 20 3v82q-2 1 -10 2t-10 1v16h67q46 0 46 -31q0 -24 -25 -31q14 -28 27 -39l15 -3v-13h-17q-16 0 -21.5 2t-10.5 10q-2 3 -6 11.5t-7.5 15t-4.5 9.5h-14v-32q7 -1 19 -3v-13zM145 587v-38h8q26 0 26 20q0 18 -23 18h-11zM157 668q54 0 91 -36.5
t37 -89.5q0 -51 -35 -90.5t-95 -39.5q-53 0 -89 37.5t-36 92.5q0 50 37 88t90 38zM157 647q-44 1 -72 -29t-28 -76q0 -45 28 -75.5t72 -30.5q45 0 73 29t28 77q0 45 -30 75t-71 30z" />
    <glyph glyph-name="macron" unicode="&#xaf;" horiz-adv-x="400" 
d="M72 633h255v-59h-255v59z" />
    <glyph glyph-name="degree" unicode="&#xb0;" horiz-adv-x="338" 
d="M172 668q47 0 80.5 -32t33.5 -87q0 -54 -35.5 -86.5t-82.5 -32.5q-48 0 -82 32t-34 87q0 52 36 85.5t84 33.5zM168 630q-28 0 -48 -22.5t-20 -57.5q0 -36 20.5 -58.5t51.5 -22.5q26 0 45.5 22.5t19.5 57.5q0 36 -19 58.5t-50 22.5z" />
    <glyph glyph-name="plusminus" unicode="&#xb1;" horiz-adv-x="632" 
d="M287 391v209h62v-209h211v-60h-211v-215h-62v215h-214v60h214zM560 -9h-487v60h487v-60z" />
    <glyph glyph-name="twosuperior" unicode="&#xb2;" horiz-adv-x="341" 
d="M310 490l-14 -66h-262v38q69 53 108 92q41 40 55 70t14 63q0 82 -73 82q-16 0 -26 -4q-14 -48 -22 -58h-47v70q70 25 122 25q58 0 91.5 -30.5t33.5 -80.5q0 -43 -21.5 -73.5t-73.5 -70.5q-33 -25 -87 -62h138q14 0 64 5z" />
    <glyph glyph-name="threesuperior" unicode="&#xb3;" horiz-adv-x="342" 
d="M311 535q0 -55 -48.5 -86t-118.5 -31q-54 0 -103 17l-8 71l50 -1q1 -1 27 -53q14 -4 31 -4q40 0 64 21.5t24 57.5q0 40 -23 57.5t-72 17.5h-20v36h22q76 0 76 64q0 69 -77 69q-16 0 -28 -4q-21 -53 -22 -54h-44v68q73 21 120 21q63 0 95.5 -26t32.5 -62q0 -38 -27 -60
t-66 -28q49 -4 82 -26t33 -65z" />
    <glyph glyph-name="acute" unicode="&#xb4;" horiz-adv-x="400" 
d="M216 529h-50l93 178h103l1 -12z" />
    <glyph glyph-name="uni00B5" unicode="&#xb5;" horiz-adv-x="546" 
d="M78 457h93v-315q0 -94 76 -94q50 0 83 44t33 132v233h93v-370q0 -46 38 -46q26 0 41 9v-37q-30 -25 -82 -25q-85 0 -89 106q-35 -105 -126 -105q-58 0 -82 40q2 -131 15 -272h-93v700z" />
    <glyph glyph-name="paragraph" unicode="&#xb6;" horiz-adv-x="556" 
d="M491 659v-45q-16 -2 -54 -8t-52 -7v-537q0 -70 -17.5 -120t-45.5 -73.5t-54.5 -33.5t-52.5 -10q-40 0 -78 19q1 15 11.5 44t18.5 42q54 -39 99 -39q29 0 41.5 24t12.5 77v130q-264 59 -264 270q0 164 158 234q74 33 222 33h55z" />
    <glyph glyph-name="periodcentered" unicode="&#xb7;" horiz-adv-x="246" 
d="M121 182q-27 0 -46 18.5t-19 51.5q0 29 18 49.5t48 19.5q30 0 48.5 -20.5t18.5 -48.5q0 -33 -19.5 -51.5t-48.5 -18.5z" />
    <glyph glyph-name="cedilla" unicode="&#xb8;" horiz-adv-x="400" 
d="M203 5h43l-46 -46q91 -28 91 -90q0 -54 -49.5 -80t-122.5 -23v35q44 1 71.5 15.5t27.5 41.5q0 37 -88 54v23z" />
    <glyph glyph-name="onesuperior" unicode="&#xb9;" horiz-adv-x="286" 
d="M255 424h-207v34q22 2 68 6v280q-35 -6 -66 -7v33q65 12 110 32h30v-338q6 -1 29.5 -2.5t35.5 -3.5v-34z" />
    <glyph glyph-name="ordmasculine" unicode="&#xba;" horiz-adv-x="385" 
d="M195 585q69 0 113 -42.5t44 -111.5q0 -70 -44 -114t-114 -44q-71 0 -116 43.5t-45 113.5q0 64 44.5 109.5t117.5 45.5zM198 305q72 0 72 123q0 55 -20.5 90.5t-59.5 35.5q-76 0 -76 -120q0 -52 21 -90.5t63 -38.5z" />
    <glyph glyph-name="guillemotright" unicode="&#xbb;" horiz-adv-x="589" 
d="M519 248v-23q-104 -91 -201 -206l-31 30q52 87 135 184q-74 95 -135 193l34 32q127 -148 198 -210zM302 248v-21q-81 -69 -201 -208l-31 30q41 62 135 184q-96 128 -134 193l33 32q127 -148 198 -210z" />
    <glyph glyph-name="onequarter" unicode="&#xbc;" horiz-adv-x="833" 
d="M647 644l-381 -656h-54l380 656h55zM284 263h-207v34l69 6v280q-35 -6 -66 -7v33q65 12 110 32h30v-338q5 -1 28.5 -2.5t35.5 -3.5v-34zM524 127h119q2 142 3 162q-39 -54 -122 -162zM717 -16h-72v103h-167v30q2 3 192 245h47v-235h59v-40h-59v-103z" />
    <glyph glyph-name="onehalf" unicode="&#xbd;" horiz-adv-x="844" 
d="M624 644l-381 -656h-54l381 656h54zM274 263h-207v34l69 6v280q-35 -6 -66 -7v33q65 12 110 32h30v-338q5 -1 28.5 -2.5t35.5 -3.5v-34zM794 51l-14 -67h-262v38q69 53 108 92q41 40 55 70t14 63q0 82 -73 82q-18 0 -26 -3q-13 -48 -22 -59h-47v70q70 25 122 25
q59 0 92 -30t33 -81q0 -43 -21.5 -73.5t-73.5 -70.5q-48 -36 -87 -61h138q14 0 64 5z" />
    <glyph glyph-name="threequarters" unicode="&#xbe;" horiz-adv-x="829" 
d="M658 644l-381 -656h-54l380 656h55zM526 127h120q0 131 3 162q-15 -20 -67 -88t-56 -74zM719 -16h-71v104h-168v29q10 17 93 121.5t99 123.5h47v-235h59v-40h-59v-103zM338 374q0 -55 -48.5 -86t-117.5 -31q-56 0 -103 17l-8 71l50 -1q2 -3 27 -53q12 -4 31 -4
q40 0 64 21.5t24 57.5q0 40 -23.5 57.5t-71.5 17.5h-21v36h22q77 0 77 64q0 69 -77 69q-15 0 -29 -4q-17 -50 -22 -54h-44v68q76 21 120 21q64 0 96 -25.5t32 -62.5q0 -38 -27 -60t-65 -28q48 -4 81 -26t33 -65z" />
    <glyph glyph-name="questiondown" unicode="&#xbf;" horiz-adv-x="490" 
d="M238 467q26 0 44.5 -16.5t18.5 -48.5q0 -27 -18 -46.5t-45 -19.5q-29 0 -46.5 19t-17.5 47q0 32 19 48.5t45 16.5zM404 -71v-96q-97 -37 -166 -37q-80 0 -128 41t-48 110q0 72 64 136q21 22 61.5 59t46.5 44q0 7 -5 28t-8 28h49q37 -48 37 -87q0 -10 -19.5 -33.5
t-80.5 -87.5q-43 -46 -43 -100q0 -46 27.5 -71t71.5 -25q24 0 43 7q25 78 31 84h67z" />
    <glyph glyph-name="Agrave" unicode="&#xc0;" horiz-adv-x="625" 
d="M192 297h191l-95 276zM205 0h-231v41q38 6 76 9q12 29 52 138t89 242t65 176q8 23 6 52h95q15 -46 105.5 -298.5t113.5 -310.5q30 -2 75 -8v-41h-268v41q50 7 84 8l-71 203h-218l-70 -202q46 -3 97 -10v-40zM247 838l107 -128h-65l-161 101v27h119z" />
    <glyph glyph-name="Aacute" unicode="&#xc1;" horiz-adv-x="625" 
d="M192 297h191l-95 276zM205 0h-231v41q38 6 76 9q12 29 52 138t89 242t65 176q8 23 6 52h95q15 -46 105.5 -298.5t113.5 -310.5q30 -2 75 -8v-41h-268v41q50 7 84 8l-71 203h-218l-70 -202q46 -3 97 -10v-40zM258 712l111 127h116v-26l-160 -101h-67z" />
    <glyph glyph-name="Acircumflex" unicode="&#xc2;" horiz-adv-x="625" 
d="M192 297h191l-95 276zM205 0h-231v41q38 6 76 9q12 29 52 138t89 242t65 176q8 23 6 52h95q15 -46 105.5 -298.5t113.5 -310.5q30 -2 75 -8v-41h-268v41q50 7 84 8l-71 203h-218l-70 -202q46 -3 97 -10v-40zM468 743v-44l-157 62l-155 -62v44l140 92h35z" />
    <glyph glyph-name="Atilde" unicode="&#xc3;" horiz-adv-x="625" 
d="M192 297h191l-95 276zM205 0h-231v41q38 6 76 9q12 29 52 138t89 242t65 176q8 23 6 52h95q15 -46 105.5 -298.5t113.5 -310.5q30 -2 75 -8v-41h-268v41q50 7 84 8l-71 203h-218l-70 -202q46 -3 97 -10v-40zM429 824h44q2 -55 -19.5 -84.5t-63.5 -29.5q-28 0 -83 24
q-45 21 -70 21q-17 0 -26 -9.5t-10 -35.5h-45q-2 53 21 81.5t66 28.5q35 0 86 -22t62 -22q18 0 27.5 9.5t10.5 38.5z" />
    <glyph glyph-name="Adieresis" unicode="&#xc4;" horiz-adv-x="625" 
d="M192 297h191l-95 276zM205 0h-231v41q38 6 76 9q12 29 52 138t89 242t65 176q8 23 6 52h95q15 -46 105.5 -298.5t113.5 -310.5q30 -2 75 -8v-41h-268v41q50 7 84 8l-71 203h-218l-70 -202q46 -3 97 -10v-40zM204 811q21 0 33.5 -16t12.5 -36q0 -24 -14.5 -37t-33.5 -13
q-18 0 -32.5 13.5t-14.5 35.5q0 21 13.5 37t35.5 16zM418 810q22 0 35.5 -15.5t13.5 -35.5q0 -19 -14.5 -34.5t-35.5 -15.5q-19 0 -33.5 14t-14.5 35q0 24 15.5 38t33.5 14z" />
    <glyph glyph-name="Aring" unicode="&#xc5;" horiz-adv-x="625" 
d="M192 297h191l-95 276zM205 0h-231v41q38 6 76 9q12 29 52 138t89 242t65 176q8 23 6 52h95q15 -46 105.5 -298.5t113.5 -310.5q30 -2 75 -8v-41h-268v41q50 7 84 8l-71 203h-218l-70 -202q46 -3 97 -10v-40zM311 852q41 0 65.5 -22.5t24.5 -60.5q0 -37 -25 -60.5
t-65 -23.5q-41 0 -65.5 23.5t-24.5 60.5q0 38 24.5 60.5t65.5 22.5zM310 820q-21 0 -33.5 -14t-12.5 -37q0 -25 13 -38t34 -13q48 0 48 53q0 22 -14 35.5t-35 13.5z" />
    <glyph glyph-name="AE" unicode="&#xc6;" horiz-adv-x="906" 
d="M271 342h161l-13 273h-6zM759 46q38 74 58 94h57l-31 -140h-481v41q72 8 86 9l-13 246h-188q-77 -140 -130 -246q18 -1 94 -8v-42h-235v43q67 8 76 10q51 82 306 558q-50 2 -109 10v37h580v-129h-55q-8 8 -40 84h-215l13 -271h159q10 53 22 84h41v-212h-41q-9 26 -22 82
h-157l15 -250h210z" />
    <glyph glyph-name="Ccedilla" unicode="&#xc7;" horiz-adv-x="650" 
d="M549 113h65q-30 -80 -49 -113q-82 -12 -150 -12h-1l-31 -32q92 -27 92 -90q0 -53 -50 -79.5t-123 -23.5v35q99 2 99 58q0 38 -88 53v23l59 58q-142 13 -231.5 102t-89.5 241q0 149 99.5 242t272.5 93q46 0 112 -5t69 -5v-129h-56q-7 9 -38 83q-22 12 -100 12
q-47 0 -89 -14.5t-78.5 -45.5t-57.5 -87t-21 -132q0 -82 24 -144t64.5 -96.5t85.5 -51t94 -16.5q38 0 62 7q45 61 55 69z" />
    <glyph glyph-name="Egrave" unicode="&#xc8;" 
d="M533 658v-129h-56q-8 10 -39 84h-220v-251h171q8 42 23 88h41v-225h-41q-15 46 -23 91h-171v-271h251q42 78 59 95h57l-32 -140h-522v41q9 1 28 3.5t34 4t24 2.5v556q-46 3 -86 10v41h502zM264 839l107 -127h-65l-161 101v26h119z" />
    <glyph glyph-name="Eacute" unicode="&#xc9;" 
d="M533 658v-129h-56q-8 10 -39 84h-220v-251h171q8 42 23 88h41v-225h-41q-15 46 -23 91h-171v-271h251q42 78 59 95h57l-32 -140h-522v41q9 1 28 3.5t34 4t24 2.5v556q-46 3 -86 10v41h502zM246 721l110 127h117v-26l-160 -101h-67z" />
    <glyph glyph-name="Ecircumflex" unicode="&#xca;" 
d="M533 658v-129h-56q-8 10 -39 84h-220v-251h171q8 42 23 88h41v-225h-41q-15 46 -23 91h-171v-271h251q42 78 59 95h57l-32 -140h-522v41q9 1 28 3.5t34 4t24 2.5v556q-46 3 -86 10v41h502zM458 756v-44l-156 61l-155 -61v44l139 92h35z" />
    <glyph glyph-name="Edieresis" unicode="&#xcb;" 
d="M533 658v-129h-56q-8 10 -39 84h-220v-251h171q8 42 23 88h41v-225h-41q-15 46 -23 91h-171v-271h251q42 78 59 95h57l-32 -140h-522v41q9 1 28 3.5t34 4t24 2.5v556q-46 3 -86 10v41h502zM197 828q21 0 33.5 -15.5t12.5 -35.5q0 -25 -14.5 -38t-33.5 -13q-17 0 -32 13.5
t-15 35.5q0 21 13.5 37t35.5 16zM411 827q21 0 35 -15.5t14 -34.5q0 -20 -14.5 -35.5t-35.5 -15.5q-19 0 -33.5 14.5t-14.5 35.5q0 24 15.5 37.5t33.5 13.5z" />
    <glyph glyph-name="Igrave" unicode="&#xcc;" horiz-adv-x="334" 
d="M303 0h-273v41q49 7 85 9v557q-35 2 -85 10v41h273v-41q-25 -4 -86 -10v-557q69 -7 86 -9v-41zM108 841l107 -128h-66l-160 101v27h119z" />
    <glyph glyph-name="Iacute" unicode="&#xcd;" horiz-adv-x="334" 
d="M303 0h-273v41q49 7 85 9v557q-35 2 -85 10v41h273v-41q-25 -4 -86 -10v-557q69 -7 86 -9v-41zM119 717l111 128h117v-27l-160 -101h-68z" />
    <glyph glyph-name="Icircumflex" unicode="&#xce;" horiz-adv-x="334" 
d="M303 0h-273v41q49 7 85 9v557q-35 2 -85 10v41h273v-41q-25 -4 -86 -10v-557q69 -7 86 -9v-41zM323 759v-45l-156 62l-155 -62v45l140 91h35z" />
    <glyph glyph-name="Idieresis" unicode="&#xcf;" horiz-adv-x="334" 
d="M303 0h-273v41q49 7 85 9v557q-35 2 -85 10v41h273v-41q-25 -4 -86 -10v-557q69 -7 86 -9v-41zM60 819q21 0 33.5 -15.5t12.5 -36.5q0 -25 -14 -37.5t-34 -12.5q-17 0 -32 13.5t-15 35.5q0 21 13.5 37t35.5 16zM275 818q21 0 34.5 -15.5t13.5 -35.5q0 -19 -14.5 -34.5
t-34.5 -15.5t-34.5 14t-14.5 35q0 24 15.5 38t34.5 14z" />
    <glyph glyph-name="Eth" unicode="&#xd0;" horiz-adv-x="724" 
d="M218 45h98q95 0 168.5 74.5t73.5 217.5q0 136 -68.5 206t-170.5 70h-101v-242h158v-47h-158v-279zM31 658h310q151 0 240 -86t89 -224q0 -110 -53.5 -191t-134.5 -119t-176 -38h-275v41q33 5 86 9v274h-87v47h87v236q-57 6 -86 10v41z" />
    <glyph glyph-name="Ntilde" unicode="&#xd1;" horiz-adv-x="733" 
d="M277 0h-245v41q54 7 82 10q0 28 2 249.5t3 306.5q-9 1 -38 4.5t-43 5.5v41h180q50 -74 137.5 -200t151.5 -218t70 -102h2q0 39 -0.5 226.5t-1.5 243.5q-38 3 -101 9v41h238v-42q-43 -6 -79 -8q-1 -32 -1.5 -192.5t-0.5 -222.5q0 -115 2 -193h-82q-82 121 -152.5 226
t-107.5 159t-65 96t-39.5 59t-16.5 25h-1q0 -35 0.5 -158t1 -229t1.5 -128q6 -1 24.5 -2.5t39 -3.5t39.5 -4v-40zM492 834h44q2 -55 -19.5 -84.5t-63.5 -29.5q-28 0 -83 24q-42 20 -70 20q-17 0 -26 -9t-10 -36h-45q-2 53 21 81.5t65 28.5q39 0 87 -22q51 -22 62 -22
q18 0 27.5 10t10.5 39z" />
    <glyph glyph-name="Ograve" unicode="&#xd2;" horiz-adv-x="747" 
d="M378 -12q-150 0 -238.5 97t-88.5 244q0 145 88.5 242t238.5 97q142 0 230.5 -94.5t88.5 -242.5q0 -145 -88.5 -244t-230.5 -99zM384 31q91 0 145.5 75.5t54.5 214.5q0 148 -62 226.5t-156 78.5q-90 0 -146 -73t-56 -212q0 -136 59.5 -223t160.5 -87zM330 854l107 -128
h-65l-161 101v27h119z" />
    <glyph glyph-name="Oacute" unicode="&#xd3;" horiz-adv-x="747" 
d="M378 -12q-150 0 -238.5 97t-88.5 244q0 145 88.5 242t238.5 97q142 0 230.5 -94.5t88.5 -242.5q0 -145 -88.5 -244t-230.5 -99zM384 31q91 0 145.5 75.5t54.5 214.5q0 148 -62 226.5t-156 78.5q-90 0 -146 -73t-56 -212q0 -136 59.5 -223t160.5 -87zM301 721l110 127h117
v-26l-160 -101h-67z" />
    <glyph glyph-name="Ocircumflex" unicode="&#xd4;" horiz-adv-x="747" 
d="M378 -12q-150 0 -238.5 97t-88.5 244q0 145 88.5 242t238.5 97q142 0 230.5 -94.5t88.5 -242.5q0 -145 -88.5 -244t-230.5 -99zM384 31q91 0 145.5 75.5t54.5 214.5q0 148 -62 226.5t-156 78.5q-90 0 -146 -73t-56 -212q0 -136 59.5 -223t160.5 -87zM529 760v-44l-157 61
l-155 -61v44l140 92h35z" />
    <glyph glyph-name="Otilde" unicode="&#xd5;" horiz-adv-x="747" 
d="M378 -12q-150 0 -238.5 97t-88.5 244q0 145 88.5 242t238.5 97q142 0 230.5 -94.5t88.5 -242.5q0 -145 -88.5 -244t-230.5 -99zM384 31q91 0 145.5 75.5t54.5 214.5q0 148 -62 226.5t-156 78.5q-90 0 -146 -73t-56 -212q0 -136 59.5 -223t160.5 -87zM491 845h43
q3 -55 -19 -84.5t-64 -29.5q-28 0 -83 24q-41 20 -69 20q-17 0 -26 -9t-11 -36h-44q-3 53 20.5 82t65.5 29q37 0 86 -23q49 -21 63 -21q17 0 26.5 9.5t11.5 38.5z" />
    <glyph glyph-name="Odieresis" unicode="&#xd6;" horiz-adv-x="747" 
d="M378 -12q-150 0 -238.5 97t-88.5 244q0 145 88.5 242t238.5 97q142 0 230.5 -94.5t88.5 -242.5q0 -145 -88.5 -244t-230.5 -99zM384 31q91 0 145.5 75.5t54.5 214.5q0 148 -62 226.5t-156 78.5q-90 0 -146 -73t-56 -212q0 -136 59.5 -223t160.5 -87zM265 828
q21 0 34 -15.5t13 -35.5q0 -25 -14.5 -38t-33.5 -13q-17 0 -32 13.5t-15 35.5t13 37.5t35 15.5zM480 827q21 0 34.5 -15.5t13.5 -34.5q0 -20 -14 -35.5t-35 -15.5q-20 0 -34 14.5t-14 35.5q0 24 15.5 37.5t33.5 13.5z" />
    <glyph glyph-name="multiply" unicode="&#xd7;" horiz-adv-x="632" 
d="M270 233l-189 192l44 44l191 -193l191 193l45 -44l-194 -191l194 -191l-45 -45l-194 194l-189 -194l-43 44z" />
    <glyph glyph-name="Oslash" unicode="&#xd8;" horiz-adv-x="753" 
d="M529 538l-294 -435q58 -72 149 -72t145.5 75.5t54.5 214.5q0 136 -55 217zM210 140l291 432q-57 54 -135 54q-90 0 -146 -73t-56 -212q0 -120 46 -201zM624 680l-50 -75q58 -45 90.5 -115.5t32.5 -158.5q0 -145 -88.5 -244t-230.5 -99q-106 0 -185 52l-42 -62h-51l59 88
q-108 96 -108 263q0 145 88.5 242t238.5 97q90 0 161 -40l35 52h50z" />
    <glyph glyph-name="Ugrave" unicode="&#xd9;" horiz-adv-x="712" 
d="M610 608v-383q0 -92 -39 -147q-64 -90 -213 -90q-168 0 -230 110q-25 46 -25 121v389q-18 2 -76 8v42h264v-41q-19 -3 -87 -10v-398q1 -73 44 -119t129 -46q81 0 126.5 45t45.5 122v397q-79 7 -96 9v41h232v-42q-40 -6 -75 -8zM319 844l107 -128h-65l-161 101v27h119z
" />
    <glyph glyph-name="Uacute" unicode="&#xda;" horiz-adv-x="712" 
d="M610 608v-383q0 -92 -39 -147q-64 -90 -213 -90q-168 0 -230 110q-25 46 -25 121v389q-18 2 -76 8v42h264v-41q-19 -3 -87 -10v-398q1 -73 44 -119t129 -46q81 0 126.5 45t45.5 122v397q-79 7 -96 9v41h232v-42q-40 -6 -75 -8zM308 719l110 128h117v-27l-160 -101h-67z
" />
    <glyph glyph-name="Ucircumflex" unicode="&#xdb;" horiz-adv-x="712" 
d="M610 608v-383q0 -92 -39 -147q-64 -90 -213 -90q-168 0 -230 110q-25 46 -25 121v389q-18 2 -76 8v42h264v-41q-19 -3 -87 -10v-398q1 -73 44 -119t129 -46q81 0 126.5 45t45.5 122v397q-79 7 -96 9v41h232v-42q-40 -6 -75 -8zM525 758v-44l-156 62l-155 -62v44l140 92
h35z" />
    <glyph glyph-name="Udieresis" unicode="&#xdc;" horiz-adv-x="712" 
d="M610 608v-383q0 -92 -39 -147q-64 -90 -213 -90q-168 0 -230 110q-25 46 -25 121v389q-18 2 -76 8v42h264v-41q-19 -3 -87 -10v-398q1 -73 44 -119t129 -46q81 0 126.5 45t45.5 122v397q-79 7 -96 9v41h232v-42q-40 -6 -75 -8zM266 826q21 0 33.5 -15.5t12.5 -35.5
q0 -25 -14 -37.5t-34 -12.5q-18 0 -32.5 13.5t-14.5 35.5q0 21 13.5 36.5t35.5 15.5zM481 825q21 0 34.5 -15t13.5 -35q0 -19 -14.5 -34.5t-34.5 -15.5t-34.5 14t-14.5 35q0 24 15.5 37.5t34.5 13.5z" />
    <glyph glyph-name="Yacute" unicode="&#xdd;" horiz-adv-x="550" 
d="M429 0h-296v41q62 8 95 10v207q0 19 -10 39q-30 58 -91 165.5t-85 146.5q-31 2 -69 8v41h260v-41q-7 -1 -38.5 -4t-38.5 -4q30 -62 152 -277q116 207 148 277q-51 2 -86 8v41h211v-41q-25 -4 -67 -8q-9 -16 -82.5 -146t-92.5 -167q-10 -20 -10 -41v-204q47 -2 100 -11
v-40zM236 712l110 127h117v-26l-160 -101h-67z" />
    <glyph glyph-name="Thorn" unicode="&#xde;" horiz-adv-x="600" 
d="M221 154v-104q4 -1 23 -2.5t35.5 -3.5t26.5 -4v-40h-272v41q44 7 86 9v557q-71 7 -86 10v41h276v-41q-38 -6 -89 -9v-93h114q112 0 164.5 -45.5t52.5 -124.5q0 -69 -41 -113.5t-99 -61t-131 -16.5h-60zM221 473v-278h59q74 0 118.5 36t44.5 109q0 133 -143 133h-79z" />
    <glyph glyph-name="germandbls" unicode="&#xdf;" horiz-adv-x="580" 
d="M193 0h-164l1 42q47 7 65 8v358q-14 1 -40.5 4t-27.5 3v42h68v19q0 85 37 152q26 46 76.5 74t108.5 28q87 0 136 -45.5t49 -118.5q0 -16 -2 -26q-64 -35 -94 -69t-30 -60q0 -7 4 -15t14.5 -18.5t17 -16.5t23 -20t21.5 -18q49 -43 68.5 -79.5t19.5 -79.5q0 -77 -56 -126.5
t-135 -49.5q-63 0 -105 17l-8 89h54q12 -16 36 -61q12 -5 27 -5q44 0 71 30t27 68q0 35 -13.5 60.5t-50.5 57.5q-5 4 -21 17.5t-20.5 17.5t-16 15.5t-15.5 16.5t-11.5 14.5t-10 16.5t-5 16.5t-2.5 19.5q-1 64 129 159q1 8 1 21q0 56 -28.5 92.5t-82.5 36.5q-119 0 -119 -190
v-372q0 -66 4 -125z" />
    <glyph glyph-name="agrave" unicode="&#xe0;" horiz-adv-x="481" 
d="M291 529h-50l-146 166l4 12h106zM301 221h-17q-78 0 -114.5 -22t-36.5 -69q0 -38 23 -59.5t61 -21.5q47 0 85 24q-1 3 -1 11v137zM393 333v-264q0 -8 9 -16t27 -8q13 0 24 2v-40q-31 -14 -68 -14q-56 0 -75 47q-88 -52 -142 -52q-48 0 -88 36.5t-40 93.5q0 142 246 142
h15v70q0 95 -100 95q-22 0 -34 -4q-17 -64 -23 -74h-72v85q113 37 173 37q72 0 110 -38t38 -98z" />
    <glyph glyph-name="aacute" unicode="&#xe1;" horiz-adv-x="481" 
d="M381 695l-147 -166h-50l93 178h103zM301 221h-17q-78 0 -114.5 -22t-36.5 -69q0 -38 23 -59.5t61 -21.5q47 0 85 24q-1 3 -1 11v137zM393 333v-264q0 -8 9 -16t27 -8q13 0 24 2v-40q-31 -14 -68 -14q-56 0 -75 47q-88 -52 -142 -52q-48 0 -88 36.5t-40 93.5
q0 142 246 142h15v70q0 95 -100 95q-22 0 -34 -4q-17 -64 -23 -74h-72v85q113 37 173 37q72 0 110 -38t38 -98z" />
    <glyph glyph-name="acircumflex" unicode="&#xe2;" horiz-adv-x="481" 
d="M230 619l-80 -86h-53l104 158h60l105 -158h-53zM301 221h-17q-78 0 -114.5 -22t-36.5 -69q0 -38 23 -59.5t61 -21.5q47 0 85 24q-1 3 -1 11v137zM393 333v-264q0 -8 9 -16t27 -8q13 0 24 2v-40q-31 -14 -68 -14q-56 0 -75 47q-88 -52 -142 -52q-48 0 -88 36.5t-40 93.5
q0 142 246 142h15v70q0 95 -100 95q-22 0 -34 -4q-17 -64 -23 -74h-72v85q113 37 173 37q72 0 110 -38t38 -98z" />
    <glyph glyph-name="atilde" unicode="&#xe3;" horiz-adv-x="481" 
d="M127 553h-44q-2 55 20.5 83.5t62.5 28.5q35 0 82 -23q45 -21 59 -21q18 0 26 10.5t9 39.5h44q1 -57 -20.5 -86t-60.5 -29q-10 0 -21 2.5t-18 5.5t-20.5 8.5t-18.5 7.5q-42 21 -63 21q-33 0 -37 -48zM301 221h-17q-78 0 -114.5 -22t-36.5 -69q0 -38 23 -59.5t61 -21.5
q47 0 85 24q-1 3 -1 11v137zM393 333v-264q0 -8 9 -16t27 -8q13 0 24 2v-40q-31 -14 -68 -14q-56 0 -75 47q-88 -52 -142 -52q-48 0 -88 36.5t-40 93.5q0 142 246 142h15v70q0 95 -100 95q-22 0 -34 -4q-17 -64 -23 -74h-72v85q113 37 173 37q72 0 110 -38t38 -98z" />
    <glyph glyph-name="adieresis" unicode="&#xe4;" horiz-adv-x="481" 
d="M331 562q-26 0 -40 16.5t-14 39.5q0 20 14.5 37t40.5 17q24 0 38 -16t14 -38q0 -24 -14.5 -40t-38.5 -16zM136 562q-26 0 -40 16.5t-14 39.5q0 20 14 37t40 17q24 0 38.5 -16t14.5 -38q0 -24 -14.5 -40t-38.5 -16zM301 221h-17q-78 0 -114.5 -22t-36.5 -69
q0 -38 23 -59.5t61 -21.5q47 0 85 24q-1 3 -1 11v137zM393 333v-264q0 -8 9 -16t27 -8q13 0 24 2v-40q-31 -14 -68 -14q-56 0 -75 47q-88 -52 -142 -52q-48 0 -88 36.5t-40 93.5q0 142 246 142h15v70q0 95 -100 95q-22 0 -34 -4q-17 -64 -23 -74h-72v85q113 37 173 37
q72 0 110 -38t38 -98z" />
    <glyph glyph-name="aring" unicode="&#xe5;" horiz-adv-x="481" 
d="M238 664q-21 0 -33.5 -14t-12.5 -37q0 -25 13 -38t34 -13q48 0 48 53q0 21 -14 35t-35 14zM239 529q-41 0 -65.5 23.5t-24.5 60.5t24.5 60t65.5 23t65.5 -22.5t24.5 -60.5q0 -37 -25 -60.5t-65 -23.5zM301 221h-17q-78 0 -114.5 -22t-36.5 -69q0 -38 23 -59.5t61 -21.5
q47 0 85 24q-1 3 -1 11v137zM393 333v-264q0 -8 9 -16t27 -8q13 0 24 2v-40q-31 -14 -68 -14q-56 0 -75 47q-88 -52 -142 -52q-48 0 -88 36.5t-40 93.5q0 142 246 142h15v70q0 95 -100 95q-22 0 -34 -4q-17 -64 -23 -74h-72v85q113 37 173 37q72 0 110 -38t38 -98z" />
    <glyph glyph-name="ae" unicode="&#xe6;" horiz-adv-x="722" 
d="M295 230h-8q-89 0 -121.5 -24t-32.5 -72q0 -32 22.5 -58t64.5 -26q51 0 107 36q-32 55 -32 144zM388 282h124q70 0 80 2v10q0 25 -4 47t-14 43t-29.5 33t-47.5 12q-47 0 -76 -38.5t-33 -108.5zM75 432q94 37 165 37q90 0 124 -61q55 61 146 61q88 0 133.5 -57t45.5 -132
q0 -21 -2 -32q-28 -7 -162 -7h-140q-1 -91 43.5 -141.5t110.5 -50.5q65 0 129 40v-43q-74 -58 -165 -58q-99 0 -156 67q-104 -67 -167 -67q-61 0 -100.5 40t-39.5 99q0 142 244 142h12v58q0 41 -21.5 70t-69.5 29q-22 0 -37 -5q-16 -60 -25 -74h-68v85z" />
    <glyph glyph-name="ccedilla" unicode="&#xe7;" horiz-adv-x="448" 
d="M412 72v-40q-50 -37 -119 -43l-33 -32q92 -28 92 -91q0 -53 -50 -79t-123 -23v35q99 2 99 57q0 23 -23.5 34.5t-63.5 19.5v23l57 56q-88 6 -151 69t-63 171q0 103 74.5 171.5t192.5 68.5q36 0 110 -13v-100h-65q-12 17 -30 69q-8 4 -28 4q-63 0 -107.5 -48t-44.5 -139
q0 -93 48 -144.5t117 -51.5q60 0 111 26z" />
    <glyph glyph-name="egrave" unicode="&#xe8;" horiz-adv-x="467" 
d="M412 83v-42q-67 -53 -161 -53q-99 0 -158.5 67t-58.5 170q1 99 60.5 171.5t159.5 72.5q93 0 136.5 -55.5t43.5 -127.5q0 -22 -2 -33q-24 -6 -160 -6h-139q-1 -98 42.5 -149t112.5 -51q68 0 124 36zM136 289h124q67 0 77 1v16q0 48 -20 85.5t-71 37.5q-46 0 -74.5 -36.5
t-35.5 -103.5zM296 529h-50l-145 166l4 12h105z" />
    <glyph glyph-name="eacute" unicode="&#xe9;" horiz-adv-x="467" 
d="M242 529h-51l93 178h104l1 -12zM412 83v-42q-67 -53 -161 -53q-99 0 -158.5 67t-58.5 170q1 99 60.5 171.5t159.5 72.5q93 0 136.5 -55.5t43.5 -127.5q0 -22 -2 -33q-24 -6 -160 -6h-139q-1 -98 42.5 -149t112.5 -51q68 0 124 36zM136 289h124q67 0 77 1v16
q0 48 -20 85.5t-71 37.5q-46 0 -74.5 -36.5t-35.5 -103.5z" />
    <glyph glyph-name="ecircumflex" unicode="&#xea;" horiz-adv-x="467" 
d="M412 83v-42q-67 -53 -161 -53q-99 0 -158.5 67t-58.5 170q1 99 60.5 171.5t159.5 72.5q93 0 136.5 -55.5t43.5 -127.5q0 -22 -2 -33q-24 -6 -160 -6h-139q-1 -98 42.5 -149t112.5 -51q68 0 124 36zM136 289h124q67 0 77 1v16q0 48 -20 85.5t-71 37.5q-46 0 -74.5 -36.5
t-35.5 -103.5zM379 533h-53l-83 86l-80 -86h-53l104 158h60z" />
    <glyph glyph-name="edieresis" unicode="&#xeb;" horiz-adv-x="467" 
d="M94 618q0 20 14 37t40 17q24 0 38.5 -16t14.5 -38q0 -24 -14.5 -40t-38.5 -16q-26 0 -40 16.5t-14 39.5zM290 618q0 20 14 37t40 17q24 0 38 -16t14 -38q0 -24 -14.5 -40t-38.5 -16q-26 0 -39.5 16.5t-13.5 39.5zM412 83v-42q-67 -53 -161 -53q-99 0 -158.5 67t-58.5 170
q1 99 60.5 171.5t159.5 72.5q93 0 136.5 -55.5t43.5 -127.5q0 -22 -2 -33q-24 -6 -160 -6h-139q-1 -98 42.5 -149t112.5 -51q68 0 124 36zM136 289h124q67 0 77 1v16q0 48 -20 85.5t-71 37.5q-46 0 -74.5 -36.5t-35.5 -103.5z" />
    <glyph glyph-name="igrave" unicode="&#xec;" horiz-adv-x="275" 
d="M244 0h-215v41q26 4 65 8v344q-31 19 -62 27v37h57q79 0 97 3v-412q16 0 58 -7v-41zM167 529h-50l-146 166l4 12h105z" />
    <glyph glyph-name="iacute" unicode="&#xed;" horiz-adv-x="275" 
d="M132 529h-50l93 178h103l1 -12zM244 0h-215v41q26 4 65 8v344q-31 19 -62 27v37h57q79 0 97 3v-412q16 0 58 -7v-41z" />
    <glyph glyph-name="icircumflex" unicode="&#xee;" horiz-adv-x="275" 
d="M244 0h-215v41q26 4 65 8v344q-31 19 -62 27v37h57q79 0 97 3v-412q16 0 58 -7v-41zM262 533h-53l-83 86l-80 -86h-53l104 158h60z" />
    <glyph glyph-name="idieresis" unicode="&#xef;" horiz-adv-x="275" 
d="M-20 618q0 20 14 37t40 17q24 0 38 -16t14 -38q0 -24 -14.5 -40t-37.5 -16q-27 0 -40.5 16.5t-13.5 39.5zM175 618q0 20 14 37t40 17q24 0 38.5 -16t14.5 -38q0 -24 -14.5 -40t-38.5 -16q-27 0 -40.5 16.5t-13.5 39.5zM244 0h-215v41q26 4 65 8v344q-31 19 -62 27v37h57
q79 0 97 3v-412q16 0 58 -7v-41z" />
    <glyph glyph-name="eth" unicode="&#xf0;" horiz-adv-x="532" 
d="M267 29q51 0 83 60t32 182q0 79 -11 114q-32 30 -91 30q-53 0 -94.5 -43t-41.5 -146q0 -197 123 -197zM442 688l-104 -59q148 -126 148 -346q0 -130 -59.5 -212t-171.5 -82q-100 0 -157.5 63.5t-57.5 171.5q0 105 69 169t169 64q51 0 86 -20q-24 92 -87 157l-128 -73
l-17 37l113 64q-70 55 -164 68l9 40q121 -11 213 -75l121 69z" />
    <glyph glyph-name="ntilde" unicode="&#xf1;" horiz-adv-x="566" 
d="M388 676h44q1 -57 -20.5 -86t-60.5 -29q-20 0 -78 24q-43 21 -64 21q-33 0 -36 -48h-44q-3 54 19.5 83t62.5 29q34 0 83 -23q46 -21 59 -21q18 0 26 10.5t9 39.5zM250 0h-221v41q13 2 39 5l26 3v344q-31 20 -62 27v37h58q74 0 90 2q0 -4 4 -54q83 64 152 64
q66 0 103.5 -46t37.5 -117v-257q12 -1 33 -4t26 -4v-41h-217v42q39 6 66 8v257q0 45 -23 72.5t-72 27.5q-47 0 -104 -35v-323q30 -2 64 -8v-41z" />
    <glyph glyph-name="ograve" unicode="&#xf2;" horiz-adv-x="533" 
d="M270 469q100 0 164.5 -66t64.5 -166q0 -108 -64.5 -178.5t-168.5 -70.5q-103 0 -167.5 69t-64.5 173q0 100 64.5 169.5t171.5 69.5zM276 29q58 0 88 53.5t30 140.5q0 90 -34.5 147.5t-98.5 57.5q-61 0 -91.5 -52.5t-30.5 -134.5q0 -87 35.5 -149.5t101.5 -62.5zM316 529
h-50l-146 166l4 12h105z" />
    <glyph glyph-name="oacute" unicode="&#xf3;" horiz-adv-x="533" 
d="M262 529h-51l93 178h104l1 -12zM270 469q100 0 164.5 -66t64.5 -166q0 -108 -64.5 -178.5t-168.5 -70.5q-103 0 -167.5 69t-64.5 173q0 100 64.5 169.5t171.5 69.5zM276 29q58 0 88 53.5t30 140.5q0 90 -34.5 147.5t-98.5 57.5q-61 0 -91.5 -52.5t-30.5 -134.5
q0 -87 35.5 -149.5t101.5 -62.5z" />
    <glyph glyph-name="ocircumflex" unicode="&#xf4;" horiz-adv-x="533" 
d="M270 469q100 0 164.5 -66t64.5 -166q0 -108 -64.5 -178.5t-168.5 -70.5q-103 0 -167.5 69t-64.5 173q0 100 64.5 169.5t171.5 69.5zM276 29q58 0 88 53.5t30 140.5q0 90 -34.5 147.5t-98.5 57.5q-61 0 -91.5 -52.5t-30.5 -134.5q0 -87 35.5 -149.5t101.5 -62.5zM400 533
h-53l-83 86l-80 -86h-53l104 158h60z" />
    <glyph glyph-name="otilde" unicode="&#xf5;" horiz-adv-x="533" 
d="M373 671h44q1 -57 -20.5 -86t-60.5 -29q-20 0 -78 24q-43 21 -64 21q-32 0 -36 -48h-44q-3 54 20 83t63 29q35 0 82 -23q45 -21 59 -21q18 0 26 10.5t9 39.5zM270 469q100 0 164.5 -66t64.5 -166q0 -108 -64.5 -178.5t-168.5 -70.5q-103 0 -167.5 69t-64.5 173
q0 100 64.5 169.5t171.5 69.5zM276 29q58 0 88 53.5t30 140.5q0 90 -34.5 147.5t-98.5 57.5q-61 0 -91.5 -52.5t-30.5 -134.5q0 -87 35.5 -149.5t101.5 -62.5z" />
    <glyph glyph-name="odieresis" unicode="&#xf6;" horiz-adv-x="533" 
d="M115 618q0 20 14 37t40 17q24 0 38 -16t14 -38q0 -24 -14.5 -40t-37.5 -16q-27 0 -40.5 16.5t-13.5 39.5zM310 618q0 20 14 37t40 17q24 0 38.5 -16t14.5 -38q0 -24 -14.5 -40t-38.5 -16q-27 0 -40.5 16.5t-13.5 39.5zM270 469q100 0 164.5 -66t64.5 -166
q0 -108 -64.5 -178.5t-168.5 -70.5q-103 0 -167.5 69t-64.5 173q0 100 64.5 169.5t171.5 69.5zM276 29q58 0 88 53.5t30 140.5q0 90 -34.5 147.5t-98.5 57.5q-61 0 -91.5 -52.5t-30.5 -134.5q0 -87 35.5 -149.5t101.5 -62.5z" />
    <glyph glyph-name="divide" unicode="&#xf7;" horiz-adv-x="632" 
d="M312 379q-18 0 -33.5 13.5t-15.5 36.5q0 22 14 36.5t35 14.5t35.5 -14t14.5 -36q0 -24 -15 -37.5t-35 -13.5zM312 25q-17 0 -33 13t-16 36q0 22 14.5 37t34.5 15q21 0 35.5 -14.5t14.5 -36.5q0 -23 -16 -36.5t-34 -13.5zM560 224h-487v61h487v-61z" />
    <glyph glyph-name="oslash" unicode="&#xf8;" horiz-adv-x="533" 
d="M373 351l-192 -276q36 -46 93 -46q59 0 91 54t32 140q0 75 -24 128zM159 113l189 276q-33 39 -87 39q-62 0 -93.5 -53t-31.5 -134q0 -75 23 -128zM462 480l-43 -62q80 -67 80 -181q0 -108 -64.5 -178.5t-168.5 -70.5q-68 0 -122 32l-33 -47h-48l49 71q-78 69 -78 186
q0 100 64.5 169.5t171.5 69.5q63 0 114 -28l27 39h51z" />
    <glyph glyph-name="ugrave" unicode="&#xf9;" horiz-adv-x="551" 
d="M522 57v-41q-49 -6 -140 -28q-5 22 -9 66q-73 -66 -152 -66q-58 0 -98.5 36.5t-40.5 112.5v257q-26 18 -60 26v37h69q61 0 87 2q-3 -45 -3 -55v-271q0 -32 24.5 -57t64.5 -25q61 0 105 41v302q-32 17 -72 26v37h65q78 0 100 2v-397q8 -2 60 -5zM303 529h-50l-146 166
l4 12h105z" />
    <glyph glyph-name="uacute" unicode="&#xfa;" horiz-adv-x="551" 
d="M260 529h-50l93 178h103l2 -12zM522 57v-41q-49 -6 -140 -28q-5 22 -9 66q-73 -66 -152 -66q-58 0 -98.5 36.5t-40.5 112.5v257q-26 18 -60 26v37h69q61 0 87 2q-3 -45 -3 -55v-271q0 -32 24.5 -57t64.5 -25q61 0 105 41v302q-32 17 -72 26v37h65q78 0 100 2v-397
q8 -2 60 -5z" />
    <glyph glyph-name="ucircumflex" unicode="&#xfb;" horiz-adv-x="551" 
d="M522 57v-41q-49 -6 -140 -28q-5 22 -9 66q-73 -66 -152 -66q-58 0 -98.5 36.5t-40.5 112.5v257q-26 18 -60 26v37h69q61 0 87 2q-3 -45 -3 -55v-271q0 -32 24.5 -57t64.5 -25q61 0 105 41v302q-32 17 -72 26v37h65q78 0 100 2v-397q8 -2 60 -5zM401 533h-53l-83 86
l-80 -86h-53l104 158h61z" />
    <glyph glyph-name="udieresis" unicode="&#xfc;" horiz-adv-x="551" 
d="M111 618q0 20 14 37t40 17q24 0 38 -16t14 -38q0 -24 -14.5 -40t-37.5 -16q-27 0 -40.5 16.5t-13.5 39.5zM306 618q0 20 14 37t40 17q24 0 38.5 -16t14.5 -38q0 -24 -14.5 -40t-38.5 -16q-27 0 -40.5 16.5t-13.5 39.5zM522 57v-41q-49 -6 -140 -28q-5 22 -9 66
q-73 -66 -152 -66q-58 0 -98.5 36.5t-40.5 112.5v257q-26 18 -60 26v37h69q61 0 87 2q-3 -45 -3 -55v-271q0 -32 24.5 -57t64.5 -25q61 0 105 41v302q-32 17 -72 26v37h65q78 0 100 2v-397q8 -2 60 -5z" />
    <glyph glyph-name="yacute" unicode="&#xfd;" horiz-adv-x="490" 
d="M266 529h-50l92 178h104l1 -12zM55 405q-21 2 -61 11v41h230v-41q-9 -2 -36 -5t-31 -4q96 -235 120 -291q89 211 113 290q-47 3 -87 10v41h200v-41q-28 -7 -58 -9q-30 -75 -167 -395q-13 -31 -53.5 -134t-52.5 -132q-14 -1 -47.5 6t-46.5 14v9q31 40 76.5 111.5
t69.5 118.5q3 4 1 10q-14 33 -49.5 114.5t-74 169t-46.5 106.5z" />
    <glyph glyph-name="thorn" unicode="&#xfe;" horiz-adv-x="535" 
d="M170 383v-320q35 -28 85 -28q61 0 104 51.5t43 150.5q0 80 -36 125t-95 45q-43 0 -101 -24zM171 420q87 49 148 49q74 0 129 -61.5t55 -156.5q0 -62 -25 -114t-64 -83.5t-82.5 -48.5t-84.5 -17q-37 0 -77 8v-191q55 -4 88 -9v-40h-250v41q30 6 69 8v864q-13 2 -57 8v43
h34q82 0 120 4q-1 -18 -2 -40t-1 -29v-235z" />
    <glyph glyph-name="ydieresis" unicode="&#xff;" horiz-adv-x="490" 
d="M55 405q-21 2 -61 11v41h230v-41q-9 -2 -36 -5t-31 -4q96 -235 120 -291q89 211 113 290q-47 3 -87 10v41h200v-41q-28 -7 -58 -9q-30 -75 -167 -395q-13 -31 -53.5 -134t-52.5 -132q-14 -1 -47.5 6t-46.5 14v9q31 40 76.5 111.5t69.5 118.5q3 4 1 10q-14 33 -49.5 114.5
t-74 169t-46.5 106.5zM109 618q0 20 14 37t40 17q24 0 38.5 -16t14.5 -38q0 -24 -15 -40t-38 -16q-27 0 -40.5 16.5t-13.5 39.5zM304 618q0 20 14 37t40 17q24 0 38.5 -16t14.5 -38q0 -24 -14.5 -40t-38.5 -16q-27 0 -40.5 16.5t-13.5 39.5z" />
    <glyph glyph-name="Amacron" unicode="&#x100;" horiz-adv-x="625" 
d="M192 297h191l-95 276zM205 0h-231v41q38 6 76 9q12 29 52 138t89 242t65 176q8 23 6 52h95q15 -46 105.5 -298.5t113.5 -310.5q30 -2 75 -8v-41h-268v41q50 7 84 8l-71 203h-218l-70 -202q46 -3 97 -10v-40zM170 791h280v-57h-280v57z" />
    <glyph glyph-name="amacron" unicode="&#x101;" horiz-adv-x="481" 
d="M358 633v-59h-255v59h255zM301 221h-17q-78 0 -114.5 -22t-36.5 -69q0 -38 23 -59.5t61 -21.5q47 0 85 24q-1 3 -1 11v137zM393 333v-264q0 -8 9 -16t27 -8q13 0 24 2v-40q-31 -14 -68 -14q-56 0 -75 47q-88 -52 -142 -52q-48 0 -88 36.5t-40 93.5q0 142 246 142h15v70
q0 95 -100 95q-22 0 -34 -4q-17 -64 -23 -74h-72v85q113 37 173 37q72 0 110 -38t38 -98z" />
    <glyph glyph-name="Abreve" unicode="&#x102;" horiz-adv-x="625" 
d="M192 297h191l-95 276zM205 0h-231v41q38 6 76 9q12 29 52 138t89 242t65 176q8 23 6 52h95q15 -46 105.5 -298.5t113.5 -310.5q30 -2 75 -8v-41h-268v41q50 7 84 8l-71 203h-218l-70 -202q46 -3 97 -10v-40zM439 845h45q-44 -132 -179 -132q-74 0 -116 39.5t-54 92.5h47
q41 -62 124 -62q40 0 68 10.5t36.5 19.5t28.5 32z" />
    <glyph glyph-name="abreve" unicode="&#x103;" horiz-adv-x="481" 
d="M334 681h40q-12 -62 -48.5 -98.5t-97.5 -36.5q-58 0 -96 35.5t-46 99.5h43q15 -37 39 -52t61 -15q40 0 64.5 15t40.5 52zM301 221h-17q-78 0 -114.5 -22t-36.5 -69q0 -38 23 -59.5t61 -21.5q47 0 85 24q-1 3 -1 11v137zM393 333v-264q0 -8 9 -16t27 -8q13 0 24 2v-40
q-31 -14 -68 -14q-56 0 -75 47q-88 -52 -142 -52q-48 0 -88 36.5t-40 93.5q0 142 246 142h15v70q0 95 -100 95q-22 0 -34 -4q-17 -64 -23 -74h-72v85q113 37 173 37q72 0 110 -38t38 -98z" />
    <glyph glyph-name="Aogonek" unicode="&#x104;" horiz-adv-x="625" 
d="M192 297h191l-95 276zM651 0h-70q-68 -63 -68 -115q0 -27 17 -39.5t42 -12.5q32 0 58 10v-37q-44 -32 -99 -32q-48 0 -75 26t-27 63q0 35 28.5 71.5t76.5 65.5h-151v41q50 7 84 8l-71 203h-218l-70 -202q46 -3 97 -10v-40h-231v41q38 6 76 9q12 29 52 138t89 242t65 176
q8 23 6 52h95q15 -46 105.5 -298.5t113.5 -310.5q30 -2 75 -8v-41z" />
    <glyph glyph-name="aogonek" unicode="&#x105;" horiz-adv-x="481" 
d="M301 221h-17q-78 0 -114.5 -22t-36.5 -69q0 -38 23 -59.5t61 -21.5q47 0 85 24q-1 3 -1 11v137zM453 47v-40q-2 -1 -5.5 -2.5t-5.5 -2.5q-83 -62 -83 -122q0 -25 15 -37.5t38 -12.5q32 0 56 10v-34q-42 -33 -93 -33q-48 0 -73.5 26.5t-25.5 62.5q0 35 28.5 70.5
t76.5 60.5q-53 2 -71 47q-88 -52 -142 -52q-48 0 -88 36.5t-40 93.5q0 142 246 142h15v70q0 95 -100 95q-22 0 -34 -4q-17 -64 -23 -74h-72v85q113 37 173 37q72 0 110 -38t38 -98v-264q0 -8 9 -16t27 -8q13 0 24 2z" />
    <glyph glyph-name="Cacute" unicode="&#x106;" horiz-adv-x="650" 
d="M565 0q-82 -12 -150 -12q-157 0 -260.5 90.5t-103.5 254.5q0 149 99.5 242t272.5 93q46 0 112 -5t69 -5v-129h-56q-7 9 -38 83q-22 12 -100 12q-47 0 -89 -14.5t-78.5 -45.5t-57.5 -87t-21 -132q0 -82 24 -144t64.5 -96.5t85.5 -51t94 -16.5q38 0 62 7q45 61 55 69h65
q-30 -80 -49 -113zM329 724l111 128h117v-27l-160 -101h-68z" />
    <glyph glyph-name="cacute" unicode="&#x107;" horiz-adv-x="448" 
d="M270 529h-50l93 178h103l1 -12zM301 469q36 0 110 -13v-100h-65q-12 17 -30 69q-8 4 -28 4q-63 0 -107.5 -48t-44.5 -139q0 -93 48 -144.5t117 -51.5q60 0 111 26v-40q-58 -44 -147 -44q-93 0 -162 63.5t-69 177.5q0 103 74.5 171.5t192.5 68.5z" />
    <glyph glyph-name="Ccircumflex" unicode="&#x108;" horiz-adv-x="650" 
d="M565 0q-82 -12 -150 -12q-157 0 -260.5 90.5t-103.5 254.5q0 149 99.5 242t272.5 93q46 0 112 -5t69 -5v-129h-56q-7 9 -38 83q-22 12 -100 12q-47 0 -89 -14.5t-78.5 -45.5t-57.5 -87t-21 -132q0 -82 24 -144t64.5 -96.5t85.5 -51t94 -16.5q38 0 62 7q45 61 55 69h65
q-30 -80 -49 -113zM537 767v-45l-156 62l-155 -62v45l140 91h35z" />
    <glyph glyph-name="ccircumflex" unicode="&#x109;" horiz-adv-x="448" 
d="M395 533h-53l-83 86l-80 -86h-53l104 158h60zM301 469q36 0 110 -13v-100h-65q-12 17 -30 69q-8 4 -28 4q-63 0 -107.5 -48t-44.5 -139q0 -93 48 -144.5t117 -51.5q60 0 111 26v-40q-58 -44 -147 -44q-93 0 -162 63.5t-69 177.5q0 103 74.5 171.5t192.5 68.5z" />
    <glyph glyph-name="Cdotaccent" unicode="&#x10a;" horiz-adv-x="650" 
d="M565 0q-82 -12 -150 -12q-157 0 -260.5 90.5t-103.5 254.5q0 149 99.5 242t272.5 93q46 0 112 -5t69 -5v-129h-56q-7 9 -38 83q-22 12 -100 12q-47 0 -89 -14.5t-78.5 -45.5t-57.5 -87t-21 -132q0 -82 24 -144t64.5 -96.5t85.5 -51t94 -16.5q38 0 62 7q45 61 55 69h65
q-30 -80 -49 -113zM330 789q0 23 15 40t42 17q24 0 40 -16.5t16 -40.5t-16 -40t-41 -16q-26 0 -41 16.5t-15 39.5z" />
    <glyph glyph-name="cdotaccent" unicode="&#x10b;" horiz-adv-x="448" 
d="M301 469q36 0 110 -13v-100h-65q-12 17 -30 69q-8 4 -28 4q-63 0 -107.5 -48t-44.5 -139q0 -93 48 -144.5t117 -51.5q60 0 111 26v-40q-58 -44 -147 -44q-93 0 -162 63.5t-69 177.5q0 103 74.5 171.5t192.5 68.5zM207 618q0 20 15.5 38.5t42.5 18.5t42.5 -17t15.5 -40
q0 -25 -16 -41.5t-42 -16.5q-28 0 -43 17t-15 41z" />
    <glyph glyph-name="Ccaron" unicode="&#x10c;" horiz-adv-x="650" 
d="M565 0q-82 -12 -150 -12q-157 0 -260.5 90.5t-103.5 254.5q0 149 99.5 242t272.5 93q46 0 112 -5t69 -5v-129h-56q-7 9 -38 83q-22 12 -100 12q-47 0 -89 -14.5t-78.5 -45.5t-57.5 -87t-21 -132q0 -82 24 -144t64.5 -96.5t85.5 -51t94 -16.5q38 0 62 7q45 61 55 69h65
q-30 -80 -49 -113zM235 813v45l156 -60l155 60v-45l-140 -91h-35z" />
    <glyph glyph-name="ccaron" unicode="&#x10d;" horiz-adv-x="448" 
d="M301 469q36 0 110 -13v-100h-65q-12 17 -30 69q-8 4 -28 4q-63 0 -107.5 -48t-44.5 -139q0 -93 48 -144.5t117 -51.5q60 0 111 26v-40q-58 -44 -147 -44q-93 0 -162 63.5t-69 177.5q0 103 74.5 171.5t192.5 68.5zM132 697h53l83 -85l80 85h52l-104 -158h-60z" />
    <glyph glyph-name="Dcaron" unicode="&#x10e;" horiz-adv-x="721" 
d="M319 613h-101v-568h98q95 0 168.5 74.5t73.5 217.5q0 136 -68.5 206t-170.5 70zM31 658h310q151 0 240 -86t89 -224q0 -110 -53.5 -191t-134.5 -119t-176 -38h-275v41q33 5 86 9v557q-57 6 -86 10v41zM177 805v45l157 -61l155 61v-45l-140 -91h-35z" />
    <glyph glyph-name="dcaron" unicode="&#x10f;" horiz-adv-x="588" 
d="M584 488h-45q-4 100 -16 232h78q-1 -12 -7.5 -100t-9.5 -132zM369 76v327q-30 26 -83 26q-65 0 -107 -50.5t-42 -132.5q0 -93 42.5 -143t105.5 -50q45 0 84 23zM461 666v-599q10 -3 61 -6v-41q-74 -11 -143 -29q-6 24 -8 50q-84 -49 -139 -49q-73 0 -135 64.5t-62 167.5
q0 109 77.5 179t193.5 70q41 0 63 -5v189q-24 15 -74 27v36h23q120 0 150 5q-7 -42 -7 -59z" />
    <glyph glyph-name="Dcroat" unicode="&#x110;" horiz-adv-x="724" 
d="M218 45h98q95 0 168.5 74.5t73.5 217.5q0 136 -68.5 206t-170.5 70h-101v-242h158v-47h-158v-279zM31 658h310q151 0 240 -86t89 -224q0 -110 -53.5 -191t-134.5 -119t-176 -38h-275v41q33 5 86 9v274h-87v47h87v236q-57 6 -86 10v41z" />
    <glyph glyph-name="dcroat" unicode="&#x111;" horiz-adv-x="552" 
d="M368 76v327q-30 26 -83 26q-65 0 -107 -50.5t-42 -132.5q0 -93 42.5 -143t105.5 -50q46 0 84 23zM533 552h-72v-485q9 -3 60 -6v-41q-74 -11 -143 -29q-6 24 -8 50q-84 -49 -139 -49q-73 0 -135 64.5t-62 167.5q0 108 78 178.5t193 70.5q41 0 63 -5v84h-133v43h133v62
q-24 15 -74 27v36h23q120 0 150 5q-6 -36 -6 -59v-71h72v-43z" />
    <glyph glyph-name="Emacron" unicode="&#x112;" 
d="M533 658v-129h-56q-8 10 -39 84h-220v-251h171q8 42 23 88h41v-225h-41q-15 46 -23 91h-171v-271h251q42 78 59 95h57l-32 -140h-522v41q9 1 28 3.5t34 4t24 2.5v556q-46 3 -86 10v41h502zM165 799h280v-57h-280v57z" />
    <glyph glyph-name="emacron" unicode="&#x113;" horiz-adv-x="467" 
d="M412 83v-42q-67 -53 -161 -53q-99 0 -158.5 67t-58.5 170q1 99 60.5 171.5t159.5 72.5q93 0 136.5 -55.5t43.5 -127.5q0 -22 -2 -33q-24 -6 -160 -6h-139q-1 -98 42.5 -149t112.5 -51q68 0 124 36zM136 289h124q67 0 77 1v16q0 48 -20 85.5t-71 37.5q-46 0 -74.5 -36.5
t-35.5 -103.5zM124 633h256v-59h-256v59z" />
    <glyph glyph-name="Ebreve" unicode="&#x114;" 
d="M533 658v-129h-56q-8 10 -39 84h-220v-251h171q8 42 23 88h41v-225h-41q-15 46 -23 91h-171v-271h251q42 78 59 95h57l-32 -140h-522v41q9 1 28 3.5t34 4t24 2.5v556q-46 3 -86 10v41h502zM437 850h45q-44 -131 -179 -131q-74 0 -115.5 39t-54.5 92h47q42 -62 124 -62
q40 0 68 10.5t36.5 19.5t28.5 32z" />
    <glyph glyph-name="ebreve" unicode="&#x115;" horiz-adv-x="467" 
d="M349 681h40q-12 -62 -49 -98.5t-98 -36.5q-57 0 -95 35.5t-47 99.5h44q15 -37 38.5 -52t60.5 -15q41 0 65 15t41 52zM412 83v-42q-67 -53 -161 -53q-99 0 -158.5 67t-58.5 170q1 99 60.5 171.5t159.5 72.5q93 0 136.5 -55.5t43.5 -127.5q0 -22 -2 -33q-24 -6 -160 -6
h-139q-1 -98 42.5 -149t112.5 -51q68 0 124 36zM136 289h124q67 0 77 1v16q0 48 -20 85.5t-71 37.5q-46 0 -74.5 -36.5t-35.5 -103.5z" />
    <glyph glyph-name="Edotaccent" unicode="&#x116;" 
d="M533 658v-129h-56q-8 10 -39 84h-220v-251h171q8 42 23 88h41v-225h-41q-15 46 -23 91h-171v-271h251q42 78 59 95h57l-32 -140h-522v41q9 1 28 3.5t34 4t24 2.5v556q-46 3 -86 10v41h502zM251 780q0 24 15 41t43 17q24 0 39.5 -17t15.5 -41q0 -23 -16 -39t-40 -16
q-26 0 -41.5 16.5t-15.5 38.5z" />
    <glyph glyph-name="edotaccent" unicode="&#x117;" horiz-adv-x="467" 
d="M190 618q0 20 15.5 38.5t42.5 18.5q26 0 41.5 -17t15.5 -40q0 -25 -15.5 -41.5t-41.5 -16.5q-28 0 -43 17t-15 41zM412 83v-42q-67 -53 -161 -53q-99 0 -158.5 67t-58.5 170q1 99 60.5 171.5t159.5 72.5q93 0 136.5 -55.5t43.5 -127.5q0 -22 -2 -33q-24 -6 -160 -6h-139
q-1 -98 42.5 -149t112.5 -51q68 0 124 36zM136 289h124q67 0 77 1v16q0 48 -20 85.5t-71 37.5q-46 0 -74.5 -36.5t-35.5 -103.5z" />
    <glyph glyph-name="Eogonek" unicode="&#x118;" 
d="M553 0h-38q-67 -64 -67 -115q0 -27 17 -39.5t42 -12.5q32 0 57 10v-37q-44 -32 -98 -32q-48 0 -75.5 26t-27.5 63q0 35 28.5 71.5t76.5 65.5h-437v41q9 1 28 3.5t34 4t24 2.5v556q-46 3 -86 10v41h502v-129h-56q-8 10 -39 84h-220v-251h171q8 42 23 88h41v-225h-41
q-15 46 -23 91h-171v-271h251q42 78 59 95h57z" />
    <glyph glyph-name="eogonek" unicode="&#x119;" horiz-adv-x="469" 
d="M136 289h124q67 0 77 1v16q0 48 -20 85.5t-71 37.5q-46 0 -74.5 -36.5t-35.5 -103.5zM272 247h-139q-1 -98 42.5 -149t112.5 -51q68 0 124 36v-42q-1 -1 -2.5 -2t-2.5 -2h1q-109 -84 -109 -148q0 -25 15.5 -36.5t38.5 -11.5q32 0 56 10v-35q-43 -34 -96 -34q-47 0 -73 24
t-26 61q0 65 95 127q-26 -6 -58 -6q-99 0 -158.5 67t-58.5 170q1 99 60.5 171.5t159.5 72.5q93 0 136.5 -55.5t43.5 -127.5q0 -22 -2 -33q-24 -6 -160 -6z" />
    <glyph glyph-name="Ecaron" unicode="&#x11a;" 
d="M533 658v-129h-56q-8 10 -39 84h-220v-251h171q8 42 23 88h41v-225h-41q-15 46 -23 91h-171v-271h251q42 78 59 95h57l-32 -140h-522v41q9 1 28 3.5t34 4t24 2.5v556q-46 3 -86 10v41h502zM152 810v45l156 -61l155 61v-45l-140 -92h-35z" />
    <glyph glyph-name="ecaron" unicode="&#x11b;" horiz-adv-x="467" 
d="M412 83v-42q-67 -53 -161 -53q-99 0 -158.5 67t-58.5 170q1 99 60.5 171.5t159.5 72.5q93 0 136.5 -55.5t43.5 -127.5q0 -22 -2 -33q-24 -6 -160 -6h-139q-1 -98 42.5 -149t112.5 -51q68 0 124 36zM136 289h124q67 0 77 1v16q0 48 -20 85.5t-71 37.5q-46 0 -74.5 -36.5
t-35.5 -103.5zM116 697h53l83 -85l80 85h52l-104 -158h-60z" />
    <glyph glyph-name="Gcircumflex" unicode="&#x11c;" horiz-adv-x="705" 
d="M526 612q-7 4 -40 9t-71 5q-44 0 -86 -14.5t-80.5 -46t-61.5 -89.5t-23 -136q0 -148 77 -227.5t185 -79.5q49 0 85 10v226q-66 3 -103 9v41h259v-40q-42 -6 -54 -7v-215q0 -2 1.5 -8.5t3.5 -16.5t3 -16q-137 -27 -214 -27q-153 0 -254.5 90.5t-101.5 255.5
q0 147 103.5 240t276.5 93q39 0 189 -10v-129h-56q-8 6 -38 83zM538 765v-44l-157 62l-155 -62v44l140 92h35z" />
    <glyph glyph-name="gcircumflex" unicode="&#x11d;" horiz-adv-x="489" 
d="M230 619l-80 -86h-52l104 158h60l104 -158h-53zM232 188q38 0 59 31.5t21 83.5q0 55 -21 91.5t-69 36.5q-40 0 -60 -33t-20 -82q0 -53 22.5 -90.5t67.5 -37.5zM317 -22q-14 2 -61 5.5t-74 6.5q-10 1 -28 5q-47 -54 -47 -93q0 -43 41.5 -74.5t110.5 -31.5q72 0 105 31
t33 77q0 66 -80 74zM483 457l-4 -65q-56 7 -98 7q27 -36 27 -88q0 -74 -50 -117t-128 -43q-35 0 -70 11q-16 -30 -16 -44q0 -20 16.5 -31t37.5 -13q19 -2 74.5 -5t80.5 -6q45 -4 84.5 -34t39.5 -88q0 -80 -72 -137t-172 -57q-104 0 -158 45.5t-54 94.5q0 15 24.5 47.5
t75.5 74.5q-49 30 -49 73q0 25 56 93q-82 44 -82 134q0 65 49.5 112.5t133.5 47.5q53 0 107 -21q8 -4 14 -4q83 10 133 13z" />
    <glyph glyph-name="Gbreve" unicode="&#x11e;" horiz-adv-x="705" 
d="M526 612q-7 4 -40 9t-71 5q-44 0 -86 -14.5t-80.5 -46t-61.5 -89.5t-23 -136q0 -148 77 -227.5t185 -79.5q49 0 85 10v226q-66 3 -103 9v41h259v-40q-42 -6 -54 -7v-215q0 -2 1.5 -8.5t3.5 -16.5t3 -16q-137 -27 -214 -27q-153 0 -254.5 90.5t-101.5 255.5
q0 147 103.5 240t276.5 93q39 0 189 -10v-129h-56q-8 6 -38 83zM520 856h46q-44 -131 -180 -131q-74 0 -115.5 39t-54.5 92h47q44 -61 124 -61q41 0 68.5 10t37 19.5t27.5 31.5z" />
    <glyph glyph-name="gbreve" unicode="&#x11f;" horiz-adv-x="489" 
d="M341 681h40q-12 -62 -49 -98.5t-98 -36.5q-57 0 -95 35.5t-47 99.5h44q15 -37 39 -52t61 -15q40 0 64.5 15t40.5 52zM232 188q38 0 59 31.5t21 83.5q0 55 -21 91.5t-69 36.5q-40 0 -60 -33t-20 -82q0 -53 22.5 -90.5t67.5 -37.5zM317 -22q-14 2 -61 5.5t-74 6.5
q-10 1 -28 5q-47 -54 -47 -93q0 -43 41.5 -74.5t110.5 -31.5q72 0 105 31t33 77q0 66 -80 74zM483 457l-4 -65q-56 7 -98 7q27 -36 27 -88q0 -74 -50 -117t-128 -43q-35 0 -70 11q-16 -30 -16 -44q0 -20 16.5 -31t37.5 -13q19 -2 74.5 -5t80.5 -6q45 -4 84.5 -34t39.5 -88
q0 -80 -72 -137t-172 -57q-104 0 -158 45.5t-54 94.5q0 15 24.5 47.5t75.5 74.5q-49 30 -49 73q0 25 56 93q-82 44 -82 134q0 65 49.5 112.5t133.5 47.5q53 0 107 -21q8 -4 14 -4q83 10 133 13z" />
    <glyph glyph-name="Gdotaccent" unicode="&#x120;" horiz-adv-x="705" 
d="M526 612q-7 4 -40 9t-71 5q-44 0 -86 -14.5t-80.5 -46t-61.5 -89.5t-23 -136q0 -148 77 -227.5t185 -79.5q49 0 85 10v226q-66 3 -103 9v41h259v-40q-42 -6 -54 -7v-215q0 -2 1.5 -8.5t3.5 -16.5t3 -16q-137 -27 -214 -27q-153 0 -254.5 90.5t-101.5 255.5
q0 147 103.5 240t276.5 93q39 0 189 -10v-129h-56q-8 6 -38 83zM346 785q0 23 15 40t42 17q24 0 39.5 -16.5t15.5 -40.5t-15.5 -40t-40.5 -16q-26 0 -41 16.5t-15 39.5z" />
    <glyph glyph-name="gdotaccent" unicode="&#x121;" horiz-adv-x="489" 
d="M231 560q-28 0 -43 17t-15 41q0 20 15.5 38.5t42.5 18.5t42.5 -17t15.5 -40q0 -25 -16 -41.5t-42 -16.5zM232 188q38 0 59 31.5t21 83.5q0 55 -21 91.5t-69 36.5q-40 0 -60 -33t-20 -82q0 -53 22.5 -90.5t67.5 -37.5zM317 -22q-14 2 -61 5.5t-74 6.5q-10 1 -28 5
q-47 -54 -47 -93q0 -43 41.5 -74.5t110.5 -31.5q72 0 105 31t33 77q0 66 -80 74zM483 457l-4 -65q-56 7 -98 7q27 -36 27 -88q0 -74 -50 -117t-128 -43q-35 0 -70 11q-16 -30 -16 -44q0 -20 16.5 -31t37.5 -13q19 -2 74.5 -5t80.5 -6q45 -4 84.5 -34t39.5 -88
q0 -80 -72 -137t-172 -57q-104 0 -158 45.5t-54 94.5q0 15 24.5 47.5t75.5 74.5q-49 30 -49 73q0 25 56 93q-82 44 -82 134q0 65 49.5 112.5t133.5 47.5q53 0 107 -21q8 -4 14 -4q83 10 133 13z" />
    <glyph glyph-name="uni0122" unicode="&#x122;" horiz-adv-x="705" 
d="M526 612q-7 4 -40 9t-71 5q-44 0 -86 -14.5t-80.5 -46t-61.5 -89.5t-23 -136q0 -148 77 -227.5t185 -79.5q49 0 85 10v226q-66 3 -103 9v41h259v-40q-42 -6 -54 -7v-215q0 -2 1.5 -8.5t3.5 -16.5t3 -16q-137 -27 -214 -27q-153 0 -254.5 90.5t-101.5 255.5
q0 147 103.5 240t276.5 93q39 0 189 -10v-129h-56q-8 6 -38 83zM383 -260l-59 -12l-9 9q52 65 52 124q0 29 -24 67l94 18q18 -24 18 -62q0 -83 -72 -144z" />
    <glyph glyph-name="uni0123" unicode="&#x123;" horiz-adv-x="489" 
d="M287 541l-88 -16q-18 19 -18 58q0 78 68 135l56 12l7 -9q-49 -63 -49 -116q0 -27 24 -64zM232 188q38 0 59 31.5t21 83.5q0 55 -21 91.5t-69 36.5q-40 0 -60 -33t-20 -82q0 -53 22.5 -90.5t67.5 -37.5zM317 -22q-14 2 -61 5.5t-74 6.5q-10 1 -28 5q-47 -54 -47 -93
q0 -43 41.5 -74.5t110.5 -31.5q72 0 105 31t33 77q0 66 -80 74zM483 457l-4 -65q-56 7 -98 7q27 -36 27 -88q0 -74 -50 -117t-128 -43q-35 0 -70 11q-16 -30 -16 -44q0 -20 16.5 -31t37.5 -13q19 -2 74.5 -5t80.5 -6q45 -4 84.5 -34t39.5 -88q0 -80 -72 -137t-172 -57
q-104 0 -158 45.5t-54 94.5q0 15 24.5 47.5t75.5 74.5q-49 30 -49 73q0 25 56 93q-82 44 -82 134q0 65 49.5 112.5t133.5 47.5q53 0 107 -21q8 -4 14 -4q83 10 133 13z" />
    <glyph glyph-name="Hcircumflex" unicode="&#x124;" horiz-adv-x="755" 
d="M294 0h-260v41q44 7 86 9v557q-71 7 -86 10v41h260v-41q-43 -7 -73 -9v-236h312v236q-5 1 -29 3.5t-43 5.5v41h260v-41q-47 -8 -86 -9v-558q23 -2 86 -9v-41h-265v41q6 1 77 9v275h-312v-275q51 -6 73 -10v-40zM533 759v-44l-156 62l-155 -62v44l139 92h35z" />
    <glyph glyph-name="hcircumflex" unicode="&#x125;" horiz-adv-x="560" 
d="M256 796v-41l-139 46l-137 -46v41l122 75h35zM244 0h-216v41q50 7 60 8v608q-37 18 -66 27v36h20q106 0 144 3q-6 -48 -5 -56v-254q77 56 147 56t107 -46.5t37 -119.5v-254q33 -3 58 -8v-41h-216v41q59 8 65 9v257q0 44 -25 72.5t-74 28.5t-99 -30v-330q10 -1 63 -7v-41z
" />
    <glyph glyph-name="Hbar" unicode="&#x126;" horiz-adv-x="755" 
d="M533 352v90h-312v-90h312zM721 658v-41q-47 -8 -86 -9v-123h67v-43h-67v-392q23 -2 86 -9v-41h-265v41q6 1 77 9v255h-312v-255q51 -6 73 -10v-40h-260v41q44 7 86 9v392h-69v43h69v122q-71 7 -86 10v41h260v-41q-43 -7 -73 -9v-123h312v123q-5 1 -29 3.5t-43 5.5v41h260
z" />
    <glyph glyph-name="hbar" unicode="&#x127;" horiz-adv-x="560" 
d="M472 284v-235q33 -3 58 -8v-41h-216v41q59 8 65 9v238q0 44 -24.5 72.5t-72.5 28.5q-56 0 -101 -33v-308q10 -1 63 -7v-41h-216v41q50 7 60 8v494h-69v44h69v70q-37 18 -66 27v36h20q106 0 144 3q-6 -48 -5 -56v-80h149v-44h-149v-152q75 59 147 59q70 0 107 -46.5
t37 -119.5z" />
    <glyph glyph-name="Itilde" unicode="&#x128;" horiz-adv-x="334" 
d="M303 0h-273v41q49 7 85 9v557q-35 2 -85 10v41h273v-41q-25 -4 -86 -10v-557q69 -7 86 -9v-41zM285 839h44q2 -55 -19.5 -84.5t-63.5 -29.5q-28 0 -83 24q-45 21 -70 21q-17 0 -26 -9.5t-10 -35.5h-45q-2 52 21 81t65 29q36 0 87 -22t62 -22q18 0 27.5 9.5t10.5 38.5z
" />
    <glyph glyph-name="itilde" unicode="&#x129;" horiz-adv-x="275" 
d="M244 0h-215v41q26 4 65 8v344q-31 19 -62 27v37h57q79 0 97 3v-412q16 0 58 -7v-41zM236 671h44q1 -57 -20.5 -86t-60.5 -29q-20 0 -78 24q-43 21 -64 21q-32 0 -36 -48h-44q-3 54 20 83t63 29q35 0 82 -23q46 -21 59 -21q18 0 26 10.5t9 39.5z" />
    <glyph glyph-name="Imacron" unicode="&#x12a;" horiz-adv-x="334" 
d="M303 0h-273v41q49 7 85 9v557q-35 2 -85 10v41h273v-41q-25 -4 -86 -10v-557q69 -7 86 -9v-41zM28 796h280v-57h-280v57z" />
    <glyph glyph-name="imacron" unicode="&#x12b;" horiz-adv-x="275" 
d="M0 633h256v-59h-256v59zM244 0h-215v41q26 4 65 8v344q-31 19 -62 27v37h57q79 0 97 3v-412q16 0 58 -7v-41z" />
    <glyph glyph-name="Iogonek" unicode="&#x12e;" horiz-adv-x="334" 
d="M303 658v-41q-25 -4 -86 -10v-557q69 -7 86 -9v-41h-95q-58 -60 -58 -114q0 -25 16 -38.5t40 -13.5q32 0 58 10v-35q-46 -32 -98 -32q-47 0 -74.5 26t-27.5 61t27.5 71t72.5 65h-134v41q49 7 85 9v557q-35 2 -85 10v41h273z" />
    <glyph glyph-name="iogonek" unicode="&#x12f;" horiz-adv-x="275" 
d="M126 560q-27 0 -42 17t-15 41q0 20 16 38.5t43 18.5q26 0 41.5 -17t15.5 -40q0 -25 -16 -41.5t-43 -16.5zM244 0h-60q-60 -60 -60 -113q0 -26 16 -39.5t40 -13.5q31 0 56 10v-34q-42 -34 -97 -34q-47 0 -73.5 26t-26.5 65q0 71 98 133h-108v41q26 4 65 8v344
q-31 19 -62 27v37h57q79 0 97 3v-412q16 0 58 -7v-41z" />
    <glyph glyph-name="Idotaccent" unicode="&#x130;" horiz-adv-x="334" 
d="M303 0h-273v41q49 7 85 9v557q-35 2 -85 10v41h273v-41q-25 -4 -86 -10v-557q69 -7 86 -9v-41zM112 780q0 24 15 41t42 17q24 0 39.5 -17t15.5 -41q0 -23 -16 -39t-40 -16q-26 0 -41 16t-15 39z" />
    <glyph glyph-name="dotlessi" unicode="&#x131;" horiz-adv-x="275" 
d="M244 0h-215v41q26 4 65 8v344q-31 19 -62 27v37h57q79 0 97 3v-412q16 0 58 -7v-41z" />
    <glyph glyph-name="Jcircumflex" unicode="&#x134;" horiz-adv-x="334" 
d="M33 658h272v-40q-23 -5 -77 -10v-482q0 -79 -27 -139q-26 -57 -73 -108.5t-96 -82.5l-25 34q75 63 97.5 123.5t22.5 152.5v502q-55 4 -94 10v40zM329 758v-45l-156 62l-155 -62v45l139 92h35z" />
    <glyph glyph-name="jcircumflex" unicode="&#x135;" horiz-adv-x="267" 
d="M27 420v37h55q79 0 103 4l-1 -412q0 -63 -15 -116q-35 -112 -144 -182l-27 32q62 54 78 100t16 139v371q-39 23 -65 27zM256 533h-53l-83 86l-80 -86h-53l104 158h60z" />
    <glyph glyph-name="uni0136" unicode="&#x136;" horiz-adv-x="656" 
d="M305 0h-273v41q27 4 85 10v556q-37 2 -85 10v41h273v-41q-46 -7 -86 -10v-272q60 50 152 138.5t129 133.5q-46 5 -85 10v41h236v-41q-12 -1 -40.5 -5t-42.5 -6q-51 -52 -229 -222q31 -46 121.5 -162.5t118.5 -145.5q24 -23 45 -27q22 -5 55 -8v-41h-114q-31 0 -47 6.5
t-32 24.5q-26 27 -105 135t-113 161l-49 -39v-238q37 -2 86 -9v-41zM353 -252l-59 -12l-9 9q52 64 52 123q0 30 -24 68l93 17q19 -22 19 -61q0 -83 -72 -144z" />
    <glyph glyph-name="uni0137" unicode="&#x137;" horiz-adv-x="504" 
d="M226 -66l94 17q18 -21 18 -61q0 -84 -71 -144l-60 -12l-8 9q52 65 52 123q0 30 -25 68zM490 457v-41q-16 -5 -58 -9q-76 -73 -147 -130q40 -59 92 -125.5t77 -90.5q10 -10 24 -13q9 -2 47 -7v-41h-94q-28 0 -42 7.5t-32 27.5q-46 52 -138 192q-34 -24 -38 -26v-153
q43 -3 69 -7v-41h-221v41q26 5 60 7v609q-22 16 -66 27v36h17q100 0 148 4q-7 -44 -7 -57v-425q45 33 101 82t88 83q-45 3 -77 9v41h197z" />
    <glyph glyph-name="kgreenlandic" unicode="&#x138;" horiz-adv-x="498" 
d="M218 219l-32 -21v-150q17 0 59 -7v-41h-216v41q26 4 65 8v344q-31 19 -62 27v37h57q85 0 103 3q-6 -53 -6 -70v-152q75 50 190 169q-40 3 -74 9v41h195v-41q-15 -5 -60 -9q-71 -69 -152 -141q46 -66 94 -126.5t70 -78.5q10 -10 24 -13q11 -2 46 -7v-41h-101
q-29 0 -42.5 7.5t-30.5 31.5q-62 80 -127 180z" />
    <glyph glyph-name="Lacute" unicode="&#x139;" horiz-adv-x="581" 
d="M532 0h-501v41q72 8 86 9v557q-9 1 -42 5t-44 5v41h284v-41q-54 -6 -97 -9v-563h230q51 92 68 105h58zM113 719l110 127h117v-26l-160 -101h-67z" />
    <glyph glyph-name="lacute" unicode="&#x13a;" horiz-adv-x="270" 
d="M81 764l86 121h109v-27l-142 -94h-53zM240 0h-211v41q48 7 60 8v608q-30 19 -66 27v36h23q104 0 142 4q-7 -42 -7 -57v-619q33 -2 59 -8v-40z" />
    <glyph glyph-name="uni013B" unicode="&#x13b;" horiz-adv-x="581" 
d="M532 0h-501v41q72 8 86 9v557q-9 1 -42 5t-44 5v41h284v-41q-54 -6 -97 -9v-563h230q51 92 68 105h58zM298 -251l-60 -12l-8 9q52 67 52 123q0 31 -25 68l94 17q18 -23 18 -61q0 -82 -71 -144z" />
    <glyph glyph-name="uni013C" unicode="&#x13c;" horiz-adv-x="270" 
d="M240 0h-211v41q48 7 60 8v608q-30 19 -66 27v36h23q104 0 142 4q-7 -42 -7 -57v-619q33 -2 59 -8v-40zM118 -251l-59 -12l-9 9q52 65 52 123q0 30 -24 68l94 17q18 -23 18 -61q0 -83 -72 -144z" />
    <glyph glyph-name="Lcaron" unicode="&#x13d;" horiz-adv-x="581" 
d="M494 414h-46l-24 244h97zM532 0h-501v41q72 8 86 9v557q-9 1 -42 5t-44 5v41h284v-41q-54 -6 -97 -9v-563h230q51 92 68 105h58z" />
    <glyph glyph-name="lcaron" unicode="&#x13e;" horiz-adv-x="312" 
d="M301 488h-46q-3 79 -15 232h78q-7 -76 -17 -232zM240 0h-211v41q48 7 60 8v608q-30 19 -66 27v36h23q104 0 142 4q-7 -42 -7 -57v-619q33 -2 59 -8v-40z" />
    <glyph glyph-name="Ldot" unicode="&#x13f;" horiz-adv-x="599" 
d="M407 366q0 21 15 39.5t42 18.5q26 0 41.5 -17t15.5 -41q0 -25 -15.5 -42t-41.5 -17q-28 0 -42.5 17.5t-14.5 41.5zM532 0h-501v41q72 8 86 9v557q-9 1 -42 5t-44 5v41h284v-41q-54 -6 -97 -9v-563h230q51 92 68 105h58z" />
    <glyph glyph-name="ldot" unicode="&#x140;" horiz-adv-x="279" 
d="M223 379q0 22 13 39.5t38 17.5q23 0 35.5 -16t12.5 -41t-13.5 -41t-36.5 -16q-24 0 -36.5 16.5t-12.5 40.5zM240 0h-211v41q48 7 60 8v608q-30 19 -66 27v36h23q104 0 142 4q-7 -42 -7 -57v-619q33 -2 59 -8v-40z" />
    <glyph glyph-name="Lslash" unicode="&#x141;" horiz-adv-x="581" 
d="M516 150h58l-42 -150h-501v41q72 8 86 9v215l-87 -46v48l87 46v294q-9 1 -42 5t-44 5v41h284v-41q-54 -6 -97 -9v-241l166 88v-48l-166 -88v-274h230q51 92 68 105z" />
    <glyph glyph-name="lslash" unicode="&#x142;" horiz-adv-x="281" 
d="M271 417l-80 -41v-328q33 -2 59 -8v-40h-211v41q48 7 60 8v279l-69 -36v46l69 36v283q-30 19 -66 27v36h23q104 0 142 4q-7 -42 -7 -57v-245l80 42v-47z" />
    <glyph glyph-name="Nacute" unicode="&#x143;" horiz-adv-x="733" 
d="M277 0h-245v41q54 7 82 10q0 28 2 249.5t3 306.5q-9 1 -38 4.5t-43 5.5v41h180q50 -74 137.5 -200t151.5 -218t70 -102h2q0 39 -0.5 226.5t-1.5 243.5q-38 3 -101 9v41h238v-42q-43 -6 -79 -8q-1 -32 -1.5 -192.5t-0.5 -222.5q0 -115 2 -193h-82q-82 121 -152.5 226
t-107.5 159t-65 96t-39.5 59t-16.5 25h-1q0 -35 0.5 -158t1 -229t1.5 -128q6 -1 24.5 -2.5t39 -3.5t39.5 -4v-40zM312 715l110 127h117v-26l-160 -101h-67z" />
    <glyph glyph-name="nacute" unicode="&#x144;" horiz-adv-x="566" 
d="M282 529h-50l93 178h103l1 -12zM250 0h-221v41q13 2 39 5l26 3v344q-31 20 -62 27v37h58q74 0 90 2q0 -4 4 -54q83 64 152 64q66 0 103.5 -46t37.5 -117v-257q12 -1 33 -4t26 -4v-41h-217v42q39 6 66 8v257q0 45 -23 72.5t-72 27.5q-47 0 -104 -35v-323q30 -2 64 -8v-41z
" />
    <glyph glyph-name="uni0145" unicode="&#x145;" horiz-adv-x="733" 
d="M277 0h-245v41q54 7 82 10q0 28 2 249.5t3 306.5q-9 1 -38 4.5t-43 5.5v41h180q50 -74 137.5 -200t151.5 -218t70 -102h2q0 39 -0.5 226.5t-1.5 243.5q-38 3 -101 9v41h238v-42q-43 -6 -79 -8q-1 -32 -1.5 -192.5t-0.5 -222.5q0 -115 2 -193h-82q-82 121 -152.5 226
t-107.5 159t-65 96t-39.5 59t-16.5 25h-1q0 -35 0.5 -158t1 -229t1.5 -128q6 -1 24.5 -2.5t39 -3.5t39.5 -4v-40zM374 -251l-60 -12l-8 10q52 64 52 123q0 30 -25 67l94 18q18 -24 18 -61q0 -83 -71 -145z" />
    <glyph glyph-name="uni0146" unicode="&#x146;" horiz-adv-x="566" 
d="M250 0h-221v41q13 2 39 5l26 3v344q-31 20 -62 27v37h58q74 0 90 2q0 -4 4 -54q83 64 152 64q66 0 103.5 -46t37.5 -117v-257q12 -1 33 -4t26 -4v-41h-217v42q39 6 66 8v257q0 45 -23 72.5t-72 27.5q-47 0 -104 -35v-323q30 -2 64 -8v-41zM274 -253l-60 -13l-8 10
q52 64 52 123q0 29 -25 68l94 17q18 -24 18 -61q0 -84 -71 -144z" />
    <glyph glyph-name="Ncaron" unicode="&#x147;" horiz-adv-x="733" 
d="M277 0h-245v41q54 7 82 10q0 28 2 249.5t3 306.5q-9 1 -38 4.5t-43 5.5v41h180q50 -74 137.5 -200t151.5 -218t70 -102h2q0 39 -0.5 226.5t-1.5 243.5q-38 3 -101 9v41h238v-42q-43 -6 -79 -8q-1 -32 -1.5 -192.5t-0.5 -222.5q0 -115 2 -193h-82q-82 121 -152.5 226
t-107.5 159t-65 96t-39.5 59t-16.5 25h-1q0 -35 0.5 -158t1 -229t1.5 -128q6 -1 24.5 -2.5t39 -3.5t39.5 -4v-40zM223 799v44l156 -60l155 60v-44l-140 -92h-35z" />
    <glyph glyph-name="ncaron" unicode="&#x148;" horiz-adv-x="566" 
d="M250 0h-221v41q13 2 39 5l26 3v344q-31 20 -62 27v37h58q74 0 90 2q0 -4 4 -54q83 64 152 64q66 0 103.5 -46t37.5 -117v-257q12 -1 33 -4t26 -4v-41h-217v42q39 6 66 8v257q0 45 -23 72.5t-72 27.5q-47 0 -104 -35v-323q30 -2 64 -8v-41zM143 697h53l83 -85l80 85h53
l-104 -158h-61z" />
    <glyph glyph-name="napostrophe" unicode="&#x149;" horiz-adv-x="566" 
d="M73 539l-51 -7l-2 4q39 65 39 124q0 28 -14 61l85 22q13 -21 13 -60q0 -76 -70 -144zM250 0h-221v41q13 2 39 5l26 3v344q-31 20 -62 27v37h58q74 0 90 2q0 -4 4 -54q83 64 152 64q66 0 103.5 -46t37.5 -117v-257q12 -1 33 -4t26 -4v-41h-217v42q39 6 66 8v257
q0 45 -23 72.5t-72 27.5q-47 0 -104 -35v-323q30 -2 64 -8v-41z" />
    <glyph glyph-name="Omacron" unicode="&#x14c;" horiz-adv-x="747" 
d="M378 -12q-150 0 -238.5 97t-88.5 244q0 145 88.5 242t238.5 97q142 0 230.5 -94.5t88.5 -242.5q0 -145 -88.5 -244t-230.5 -99zM384 31q91 0 145.5 75.5t54.5 214.5q0 148 -62 226.5t-156 78.5q-90 0 -146 -73t-56 -212q0 -136 59.5 -223t160.5 -87zM233 806h280v-57
h-280v57z" />
    <glyph glyph-name="omacron" unicode="&#x14d;" horiz-adv-x="533" 
d="M270 469q100 0 164.5 -66t64.5 -166q0 -108 -64.5 -178.5t-168.5 -70.5q-103 0 -167.5 69t-64.5 173q0 100 64.5 169.5t171.5 69.5zM276 29q58 0 88 53.5t30 140.5q0 90 -34.5 147.5t-98.5 57.5q-61 0 -91.5 -52.5t-30.5 -134.5q0 -87 35.5 -149.5t101.5 -62.5zM138 633
h256v-59h-256v59z" />
    <glyph glyph-name="Ohungarumlaut" unicode="&#x150;" horiz-adv-x="747" 
d="M378 -12q-150 0 -238.5 97t-88.5 244q0 145 88.5 242t238.5 97q142 0 230.5 -94.5t88.5 -242.5q0 -145 -88.5 -244t-230.5 -99zM384 31q91 0 145.5 75.5t54.5 214.5q0 148 -62 226.5t-156 78.5q-90 0 -146 -73t-56 -212q0 -136 59.5 -223t160.5 -87zM234 720l80 128h94
v-25l-121 -103h-53zM422 720l79 128h95v-25l-121 -103h-53z" />
    <glyph glyph-name="ohungarumlaut" unicode="&#x151;" horiz-adv-x="533" 
d="M192 530h-46l87 177h87v-13zM357 530h-46l86 177h88v-14zM270 469q100 0 164.5 -66t64.5 -166q0 -108 -64.5 -178.5t-168.5 -70.5q-103 0 -167.5 69t-64.5 173q0 100 64.5 169.5t171.5 69.5zM276 29q58 0 88 53.5t30 140.5q0 90 -34.5 147.5t-98.5 57.5
q-61 0 -91.5 -52.5t-30.5 -134.5q0 -87 35.5 -149.5t101.5 -62.5z" />
    <glyph glyph-name="OE" unicode="&#x152;" horiz-adv-x="988" 
d="M497 45v568q-37 8 -101 8q-40 0 -78 -15t-73 -46t-56 -88.5t-21 -133.5q0 -150 72 -224.5t176 -74.5q42 0 81 6zM901 658v-129h-55q-8 8 -40 84h-208v-251h160q10 53 23 88h41v-225h-41q-15 46 -23 91h-160v-271l240 1q38 74 58 94h57l-31 -140h-411q-43 -6 -115 -6
q-153 0 -248 89.5t-95 247.5q0 152 97 241.5t250 89.5q46 0 118 -4h383z" />
    <glyph glyph-name="oe" unicode="&#x153;" horiz-adv-x="827" 
d="M273 29q62 0 91.5 53t29.5 145q-1 91 -35 145.5t-97 54.5t-93 -53t-30 -135q0 -89 34.5 -149.5t99.5 -60.5zM608 -12q-55 0 -100.5 24t-67.5 62q-62 -86 -177 -86q-103 0 -165.5 68t-62.5 176q0 99 64 168t172 69q115 0 174 -86q22 34 65.5 60t101.5 26q91 0 137 -56
t46 -126q0 -21 -2 -32q-28 -7 -163 -7h-140q-1 -97 41.5 -148t113.5 -51q65 0 128 40v-43q-74 -58 -165 -58zM493 290h126q60 0 78 2q2 8 2 22q0 44 -22.5 79.5t-74.5 35.5q-45 0 -74.5 -39.5t-34.5 -99.5z" />
    <glyph glyph-name="Racute" unicode="&#x154;" horiz-adv-x="627" 
d="M218 337h104q30 0 47 11q66 40 66 125q0 140 -154 140h-63v-276zM304 0h-273v41q15 3 31.5 4.5t33 2.5t21.5 2v556q-65 8 -86 11v41h265q85 0 129 -16q51 -17 83 -56.5t32 -99.5q0 -115 -131 -171q117 -203 164 -249q16 -16 31 -20q6 -1 43 -5v-41h-86q-37 0 -56.5 8
t-35.5 30q-34 43 -147 243q-6 10 -14 10h-90v-241q43 -3 86 -9v-41zM231 718l111 127h117v-26l-161 -101h-67z" />
    <glyph glyph-name="racute" unicode="&#x155;" horiz-adv-x="390" 
d="M217 529h-50l93 178h103l1 -12zM278 0h-249v41q3 1 65 8v345q-35 22 -62 26v37h55q48 0 93 3q1 -9 4 -72q70 81 151 81q28 0 44 -6l-12 -110h-40q-19 27 -29 32q-9 5 -24 5q-48 0 -88 -40v-302q56 -3 92 -7v-41z" />
    <glyph glyph-name="uni0156" unicode="&#x156;" horiz-adv-x="627" 
d="M218 337h104q30 0 47 11q66 40 66 125q0 140 -154 140h-63v-276zM304 0h-273v41q15 3 31.5 4.5t33 2.5t21.5 2v556q-65 8 -86 11v41h265q85 0 129 -16q51 -17 83 -56.5t32 -99.5q0 -115 -131 -171q117 -203 164 -249q16 -16 31 -20q6 -1 43 -5v-41h-86q-37 0 -56.5 8
t-35.5 30q-34 43 -147 243q-6 10 -14 10h-90v-241q43 -3 86 -9v-41zM329 -252l-59 -12l-8 9q51 64 51 123q0 30 -24 68l94 17q18 -23 18 -61q0 -83 -72 -144z" />
    <glyph glyph-name="uni0157" unicode="&#x157;" horiz-adv-x="390" 
d="M278 0h-249v41q3 1 65 8v345q-35 22 -62 26v37h55q48 0 93 3q1 -9 4 -72q70 81 151 81q28 0 44 -6l-12 -110h-40q-19 27 -29 32q-9 5 -24 5q-48 0 -88 -40v-302q56 -3 92 -7v-41zM131 -256l-60 -12l-8 10q52 66 52 123q0 29 -25 67l94 18q18 -24 18 -61q0 -85 -71 -145z
" />
    <glyph glyph-name="Rcaron" unicode="&#x158;" horiz-adv-x="627" 
d="M218 337h104q30 0 47 11q66 40 66 125q0 140 -154 140h-63v-276zM304 0h-273v41q15 3 31.5 4.5t33 2.5t21.5 2v556q-65 8 -86 11v41h265q85 0 129 -16q51 -17 83 -56.5t32 -99.5q0 -115 -131 -171q117 -203 164 -249q16 -16 31 -20q6 -1 43 -5v-41h-86q-37 0 -56.5 8
t-35.5 30q-34 43 -147 243q-6 10 -14 10h-90v-241q43 -3 86 -9v-41zM132 811v45l156 -61l155 61v-45l-140 -92h-35z" />
    <glyph glyph-name="rcaron" unicode="&#x159;" horiz-adv-x="390" 
d="M278 0h-249v41q3 1 65 8v345q-35 22 -62 26v37h55q48 0 93 3q1 -9 4 -72q70 81 151 81q28 0 44 -6l-12 -110h-40q-19 27 -29 32q-9 5 -24 5q-48 0 -88 -40v-302q56 -3 92 -7v-41zM77 697h53l83 -85l80 85h53l-104 -158h-60z" />
    <glyph glyph-name="Sacute" unicode="&#x15a;" horiz-adv-x="523" 
d="M59 18l-10 124h57q5 -5 50 -97q27 -15 77 -15q63 0 103 33t40 84q0 49 -30 80.5t-120 69.5q-91 38 -128 86t-37 112q0 74 57 123.5t171 49.5q39 0 90 -5t64 -5v-129h-54q-7 9 -42 88q-27 11 -62 11q-71 0 -101.5 -31t-30.5 -75q0 -42 27 -74t101 -62q108 -43 152 -90.5
t44 -115.5q0 -89 -71 -140.5t-176 -51.5q-23 0 -44 1.5t-41.5 6t-30.5 7t-31 8.5t-24 7zM206 725l110 128h117v-27l-160 -101h-67z" />
    <glyph glyph-name="sacute" unicode="&#x15b;" horiz-adv-x="400" 
d="M208 529h-50l93 178h103l1 -12zM339 457v-98h-57q-10 10 -32 66q-12 7 -36 7q-40 0 -61.5 -20t-21.5 -52q0 -27 19 -46.5t79 -41.5q71 -27 102.5 -58.5t31.5 -82.5q0 -64 -52.5 -103.5t-132.5 -39.5q-58 0 -131 23q-1 10 -4 49t-4 50h59q10 -17 38 -76q19 -8 42 -8
q47 0 71 21.5t24 53.5q0 29 -17 49.5t-68 40.5q-74 29 -107 61.5t-33 84.5q0 54 41 93t132 39q46 0 118 -12z" />
    <glyph glyph-name="Scircumflex" unicode="&#x15c;" horiz-adv-x="523" 
d="M59 18l-10 124h57q5 -5 50 -97q27 -15 77 -15q63 0 103 33t40 84q0 49 -30 80.5t-120 69.5q-91 38 -128 86t-37 112q0 74 57 123.5t171 49.5q39 0 90 -5t64 -5v-129h-54q-7 9 -42 88q-27 11 -62 11q-71 0 -101.5 -31t-30.5 -75q0 -42 27 -74t101 -62q108 -43 152 -90.5
t44 -115.5q0 -89 -71 -140.5t-176 -51.5q-23 0 -44 1.5t-41.5 6t-30.5 7t-31 8.5t-24 7zM417 758v-44l-157 61l-154 -61v44l139 92h35z" />
    <glyph glyph-name="scircumflex" unicode="&#x15d;" horiz-adv-x="400" 
d="M341 533h-53l-83 86l-80 -86h-52l104 158h60zM339 457v-98h-57q-10 10 -32 66q-12 7 -36 7q-40 0 -61.5 -20t-21.5 -52q0 -27 19 -46.5t79 -41.5q71 -27 102.5 -58.5t31.5 -82.5q0 -64 -52.5 -103.5t-132.5 -39.5q-58 0 -131 23q-1 10 -4 49t-4 50h59q10 -17 38 -76
q19 -8 42 -8q47 0 71 21.5t24 53.5q0 29 -17 49.5t-68 40.5q-74 29 -107 61.5t-33 84.5q0 54 41 93t132 39q46 0 118 -12z" />
    <glyph glyph-name="uni015E" unicode="&#x15e;" horiz-adv-x="523" 
d="M443 529h-54q-7 9 -42 88q-27 11 -62 11q-71 0 -101.5 -31t-30.5 -75q0 -42 27 -74t101 -62q108 -43 152 -90.5t44 -115.5q0 -77 -54 -126t-140 -62l-35 -36q91 -26 91 -90q0 -53 -49.5 -79.5t-122.5 -23.5v36q44 1 71.5 15.5t27.5 41.5q0 37 -88 54v22l57 56h-5
q-23 0 -44 1.5t-41.5 6t-30.5 7t-31 8.5t-24 7l-10 124h57q5 -5 50 -97q27 -15 77 -15q63 0 103 33t40 84q0 49 -30 80.5t-120 69.5q-91 38 -128 86t-37 112q0 74 57 123.5t171 49.5q39 0 90 -5t64 -5v-129z" />
    <glyph glyph-name="uni015F" unicode="&#x15f;" horiz-adv-x="400" 
d="M339 359h-57q-10 10 -32 66q-12 7 -36 7q-40 0 -61.5 -20t-21.5 -52q0 -27 19 -46.5t79 -41.5q71 -27 102.5 -58.5t31.5 -82.5q0 -52 -36 -89t-96 -49l-41 -42q91 -26 91 -90q0 -54 -49.5 -80t-122.5 -23v35q98 2 98 58q0 36 -87 53v23l62 61h-4q-58 0 -131 23
q-1 10 -4 49t-4 50h59q10 -17 38 -76q19 -8 42 -8q47 0 71 21.5t24 53.5q0 29 -17 49.5t-68 40.5q-74 29 -107 61.5t-33 84.5q0 54 41 93t132 39q46 0 118 -12v-98z" />
    <glyph glyph-name="Scaron" unicode="&#x160;" horiz-adv-x="523" 
d="M59 18l-10 124h57q5 -5 50 -97q27 -15 77 -15q63 0 103 33t40 84q0 49 -30 80.5t-120 69.5q-91 38 -128 86t-37 112q0 74 57 123.5t171 49.5q39 0 90 -5t64 -5v-129h-54q-7 9 -42 88q-27 11 -62 11q-71 0 -101.5 -31t-30.5 -75q0 -42 27 -74t101 -62q108 -43 152 -90.5
t44 -115.5q0 -89 -71 -140.5t-176 -51.5q-23 0 -44 1.5t-41.5 6t-30.5 7t-31 8.5t-24 7zM112 814v44l156 -60l155 60v-44l-140 -92h-35z" />
    <glyph glyph-name="scaron" unicode="&#x161;" horiz-adv-x="400" 
d="M72 697h53l83 -85l80 85h53l-104 -158h-60zM339 457v-98h-57q-10 10 -32 66q-12 7 -36 7q-40 0 -61.5 -20t-21.5 -52q0 -27 19 -46.5t79 -41.5q71 -27 102.5 -58.5t31.5 -82.5q0 -64 -52.5 -103.5t-132.5 -39.5q-58 0 -131 23q-1 10 -4 49t-4 50h59q10 -17 38 -76
q19 -8 42 -8q47 0 71 21.5t24 53.5q0 29 -17 49.5t-68 40.5q-74 29 -107 61.5t-33 84.5q0 54 41 93t132 39q46 0 118 -12z" />
    <glyph glyph-name="uni0162" unicode="&#x162;" horiz-adv-x="633" 
d="M27 658h576v-138h-51q-6 6 -44 93h-153v-563q35 -2 99 -10v-40h-116l-43 -44q91 -26 91 -90q0 -53 -49.5 -79.5t-122.5 -23.5v36q44 1 71.5 15.5t27.5 41.5q0 37 -88 54v22l69 68h-138v41q86 8 98 9v563h-134q-35 -87 -42 -93h-51v138z" />
    <glyph glyph-name="uni0163" unicode="&#x163;" horiz-adv-x="319" 
d="M300 457v-42q-74 -7 -120 -7v-314q0 -21 13 -37t44 -16q28 0 61 13v-38q-37 -22 -76 -27l-34 -34q92 -26 92 -90q0 -54 -50 -80t-123 -23v35q99 2 99 58q0 37 -88 53v23l60 58q-91 13 -91 125v294q-14 1 -72 8v41h74q11 58 44 129h66q-13 -66 -16 -129h117z" />
    <glyph glyph-name="Tcaron" unicode="&#x164;" horiz-adv-x="633" 
d="M27 520v138h576v-138h-51q-6 6 -44 93h-153v-563q35 -2 99 -10v-40h-298v41q86 8 98 9v563h-134q-35 -87 -42 -93h-51zM151 805v45l156 -61l155 61v-45l-139 -91h-35z" />
    <glyph glyph-name="tcaron" unicode="&#x165;" horiz-adv-x="319" 
d="M326 558h-45l-16 174h78zM298 54v-38q-46 -28 -99 -28q-112 0 -112 126v294q-14 1 -72 8v41h74q11 58 44 129h66q-13 -66 -16 -129h117v-42q-74 -7 -120 -7v-314q0 -21 13 -37t44 -16q28 0 61 13z" />
    <glyph glyph-name="Utilde" unicode="&#x168;" horiz-adv-x="712" 
d="M610 608v-383q0 -92 -39 -147q-64 -90 -213 -90q-168 0 -230 110q-25 46 -25 121v389q-18 2 -76 8v42h264v-41q-19 -3 -87 -10v-398q1 -73 44 -119t129 -46q81 0 126.5 45t45.5 122v397q-79 7 -96 9v41h232v-42q-40 -6 -75 -8zM485 841h44q2 -55 -19.5 -84.5t-63.5 -29.5
q-28 0 -83 24q-43 21 -69 21q-18 0 -26.5 -9.5t-10.5 -36.5h-45q-2 53 21.5 82t65.5 29q36 0 86 -23q49 -21 62 -21q18 0 27.5 9.5t10.5 38.5z" />
    <glyph glyph-name="utilde" unicode="&#x169;" horiz-adv-x="551" 
d="M372 673h44q1 -57 -20.5 -86t-60.5 -29q-21 0 -78 25q-40 20 -63 20q-33 0 -37 -48h-44q-2 55 20.5 83.5t62.5 28.5q37 0 82 -23q46 -21 59 -21q18 0 26 10.5t9 39.5zM522 57v-41q-49 -6 -140 -28q-5 22 -9 66q-73 -66 -152 -66q-58 0 -98.5 36.5t-40.5 112.5v257
q-26 18 -60 26v37h69q61 0 87 2q-3 -45 -3 -55v-271q0 -32 24.5 -57t64.5 -25q61 0 105 41v302q-32 17 -72 26v37h65q78 0 100 2v-397q8 -2 60 -5z" />
    <glyph glyph-name="Umacron" unicode="&#x16a;" horiz-adv-x="712" 
d="M610 608v-383q0 -92 -39 -147q-64 -90 -213 -90q-168 0 -230 110q-25 46 -25 121v389q-18 2 -76 8v42h264v-41q-19 -3 -87 -10v-398q1 -73 44 -119t129 -46q81 0 126.5 45t45.5 122v397q-79 7 -96 9v41h232v-42q-40 -6 -75 -8zM233 796h280v-57h-280v57z" />
    <glyph glyph-name="umacron" unicode="&#x16b;" horiz-adv-x="551" 
d="M135 636h256v-60h-256v60zM522 57v-41q-49 -6 -140 -28q-5 22 -9 66q-73 -66 -152 -66q-58 0 -98.5 36.5t-40.5 112.5v257q-26 18 -60 26v37h69q61 0 87 2q-3 -45 -3 -55v-271q0 -32 24.5 -57t64.5 -25q61 0 105 41v302q-32 17 -72 26v37h65q78 0 100 2v-397q8 -2 60 -5z
" />
    <glyph glyph-name="Ubreve" unicode="&#x16c;" horiz-adv-x="712" 
d="M610 608v-383q0 -92 -39 -147q-64 -90 -213 -90q-168 0 -230 110q-25 46 -25 121v389q-18 2 -76 8v42h264v-41q-19 -3 -87 -10v-398q1 -73 44 -119t129 -46q81 0 126.5 45t45.5 122v397q-79 7 -96 9v41h232v-42q-40 -6 -75 -8zM496 843h45q-42 -132 -179 -132
q-74 0 -115.5 39.5t-54.5 92.5h47q43 -62 124 -62q40 0 68 10.5t37.5 20t27.5 31.5z" />
    <glyph glyph-name="ubreve" unicode="&#x16d;" horiz-adv-x="551" 
d="M368 681h40q-12 -62 -48.5 -98.5t-97.5 -36.5q-58 0 -96 35.5t-46 99.5h43q15 -37 39 -52t61 -15q40 0 64.5 15t40.5 52zM522 57v-41q-49 -6 -140 -28q-5 22 -9 66q-73 -66 -152 -66q-58 0 -98.5 36.5t-40.5 112.5v257q-26 18 -60 26v37h69q61 0 87 2q-3 -45 -3 -55v-271
q0 -32 24.5 -57t64.5 -25q61 0 105 41v302q-32 17 -72 26v37h65q78 0 100 2v-397q8 -2 60 -5z" />
    <glyph glyph-name="Uring" unicode="&#x16e;" horiz-adv-x="712" 
d="M610 608v-383q0 -92 -39 -147q-64 -90 -213 -90q-168 0 -230 110q-25 46 -25 121v389q-18 2 -76 8v42h264v-41q-19 -3 -87 -10v-398q1 -73 44 -119t129 -46q81 0 126.5 45t45.5 122v397q-79 7 -96 9v41h232v-42q-40 -6 -75 -8zM371 866q42 0 66.5 -22.5t24.5 -60.5
q0 -37 -25.5 -60t-65.5 -23t-64.5 23.5t-24.5 59.5q0 38 24.5 60.5t64.5 22.5zM370 834q-20 0 -33 -14t-13 -37q0 -24 13 -37t34 -13q48 0 48 52q0 22 -14 35.5t-35 13.5z" />
    <glyph glyph-name="uring" unicode="&#x16f;" horiz-adv-x="551" 
d="M522 57v-41q-49 -6 -140 -28q-5 22 -9 66q-73 -66 -152 -66q-58 0 -98.5 36.5t-40.5 112.5v257q-26 18 -60 26v37h69q61 0 87 2q-3 -45 -3 -55v-271q0 -32 24.5 -57t64.5 -25q61 0 105 41v302q-32 17 -72 26v37h65q78 0 100 2v-397q8 -2 60 -5zM264 696q42 0 66.5 -22.5
t24.5 -60.5q0 -37 -25.5 -60.5t-65.5 -23.5t-64.5 23.5t-24.5 60.5t24.5 60t64.5 23zM263 664q-20 0 -33 -14t-13 -37q0 -25 13 -38t34 -13q48 0 48 53q0 21 -14 35t-35 14z" />
    <glyph glyph-name="Uhungarumlaut" unicode="&#x170;" horiz-adv-x="712" 
d="M610 608v-383q0 -92 -39 -147q-64 -90 -213 -90q-168 0 -230 110q-25 46 -25 121v389q-18 2 -76 8v42h264v-41q-19 -3 -87 -10v-398q1 -73 44 -119t129 -46q81 0 126.5 45t45.5 122v397q-79 7 -96 9v41h232v-42q-40 -6 -75 -8zM227 720l80 127h94v-25l-121 -102h-53z
M415 720l79 127h95v-25l-121 -102h-53z" />
    <glyph glyph-name="uhungarumlaut" unicode="&#x171;" horiz-adv-x="551" 
d="M522 57v-41q-49 -6 -140 -28q-5 22 -9 66q-73 -66 -152 -66q-58 0 -98.5 36.5t-40.5 112.5v257q-26 18 -60 26v37h69q61 0 87 2q-3 -45 -3 -55v-271q0 -32 24.5 -57t64.5 -25q61 0 105 41v302q-32 17 -72 26v37h65q78 0 100 2v-397q8 -2 60 -5zM187 530h-47l87 177h87
v-13zM351 530h-46l87 177h87v-14z" />
    <glyph glyph-name="Uogonek" unicode="&#x172;" horiz-adv-x="712" 
d="M453 658h232v-42q-40 -6 -75 -8v-383q0 -92 -39 -147q-32 -45 -88 -68q-89 -66 -89 -121q0 -50 58 -50q28 0 59 12v-37q-41 -34 -103 -34q-48 0 -74 25t-26 61q0 64 103 125q-25 -3 -53 -3q-168 0 -230 110q-25 46 -25 121v389q-18 2 -76 8v42h264v-41q-19 -3 -87 -10
v-398q1 -73 44 -119t129 -46q81 0 126.5 45t45.5 122v397q-79 7 -96 9v41z" />
    <glyph glyph-name="uogonek" unicode="&#x173;" horiz-adv-x="551" 
d="M522 57v-41q-3 0 -5 -1q-84 -66 -84 -126q0 -25 16 -38t39 -13q31 0 54 8v-34q-41 -31 -96 -31q-45 0 -70.5 26t-25.5 61q0 74 112 137q-5 -1 -80 -17q-5 22 -9 66q-73 -66 -152 -66q-58 0 -98.5 36.5t-40.5 112.5v257q-26 18 -60 26v37h69q61 0 87 2q-3 -45 -3 -55v-271
q0 -32 24.5 -57t64.5 -25q61 0 105 41v302q-32 17 -72 26v37h65q78 0 100 2v-397q8 -2 60 -5z" />
    <glyph glyph-name="Wcircumflex" unicode="&#x174;" horiz-adv-x="908" 
d="M292 -6h-65q-16 60 -90.5 322t-82.5 293q-24 1 -76 8v41h271v-41q-48 -7 -91 -8q9 -35 39 -148t56 -211.5t31 -125.5q13 44 77 255.5t83 278.5h60q9 -32 79 -258t84 -277q109 380 132 485q-6 1 -46 4t-54 5v41h233v-42q-38 -5 -76 -8q-96 -316 -183 -614h-65
q-11 44 -78.5 264.5t-79.5 263.5zM630 755v-45l-156 62l-155 -62v45l140 91h35z" />
    <glyph glyph-name="wcircumflex" unicode="&#x175;" horiz-adv-x="736" 
d="M542 -6h-51q-8 26 -60.5 171.5t-63.5 178.5q-12 -40 -59 -175.5t-59 -174.5h-51q-14 49 -140 412q-15 1 -61 10v41h225v-42q-24 -5 -66 -7q6 -21 45 -140.5t47 -148.5q10 35 58 178.5t53 159.5h60q10 -32 61 -175t59 -169q74 227 92 292q-55 4 -84 11v41h194v-41
q-20 -5 -59 -11q-13 -41 -69 -202.5t-71 -208.5zM518 533h-53l-83 86l-80 -86h-52l104 158h60z" />
    <glyph glyph-name="Ycircumflex" unicode="&#x176;" horiz-adv-x="550" 
d="M429 0h-296v41q62 8 95 10v207q0 19 -10 39q-30 58 -91 165.5t-85 146.5q-31 2 -69 8v41h260v-41q-7 -1 -38.5 -4t-38.5 -4q30 -62 152 -277q116 207 148 277q-51 2 -86 8v41h211v-41q-25 -4 -67 -8q-9 -16 -82.5 -146t-92.5 -167q-10 -20 -10 -41v-204q47 -2 100 -11
v-40zM448 757v-44l-156 62l-155 -62v44l139 92h36z" />
    <glyph glyph-name="ycircumflex" unicode="&#x177;" horiz-adv-x="490" 
d="M396 533h-53l-83 86l-80 -86h-53l104 158h61zM55 405q-21 2 -61 11v41h230v-41q-9 -2 -36 -5t-31 -4q96 -235 120 -291q89 211 113 290q-47 3 -87 10v41h200v-41q-28 -7 -58 -9q-30 -75 -167 -395q-13 -31 -53.5 -134t-52.5 -132q-14 -1 -47.5 6t-46.5 14v9
q31 40 76.5 111.5t69.5 118.5q3 4 1 10q-14 33 -49.5 114.5t-74 169t-46.5 106.5z" />
    <glyph glyph-name="Ydieresis" unicode="&#x178;" horiz-adv-x="550" 
d="M429 0h-296v41q62 8 95 10v207q0 19 -10 39q-30 58 -91 165.5t-85 146.5q-31 2 -69 8v41h260v-41q-7 -1 -38.5 -4t-38.5 -4q30 -62 152 -277q116 207 148 277q-51 2 -86 8v41h211v-41q-25 -4 -67 -8q-9 -16 -82.5 -146t-92.5 -167q-10 -20 -10 -41v-204q47 -2 100 -11
v-40zM185 825q21 0 34 -15.5t13 -36.5q0 -24 -14.5 -37t-33.5 -13q-18 0 -32.5 13t-14.5 36q0 21 13 37t35 16zM400 824q21 0 34.5 -15.5t13.5 -35.5t-14 -35t-35 -15q-20 0 -34.5 14t-14.5 35q0 24 16 38t34 14z" />
    <glyph glyph-name="Zacute" unicode="&#x179;" horiz-adv-x="581" 
d="M531 0h-510v34l403 579h-284q-33 -80 -43 -93h-53v138h497v-37l-398 -576h303q45 81 58 96h58zM236 721l110 127h117v-26l-160 -101h-67z" />
    <glyph glyph-name="zacute" unicode="&#x17a;" horiz-adv-x="432" 
d="M223 529h-50l93 178h103l1 -12zM93 336h-57v121h365v-34q-19 -28 -81.5 -116.5t-114.5 -163.5t-69 -100l184 1q27 61 37 78h62q-20 -100 -25 -122h-369v35q200 280 267 378h-172q-16 -56 -27 -77z" />
    <glyph glyph-name="Zdotaccent" unicode="&#x17b;" horiz-adv-x="581" 
d="M531 0h-510v34l403 579h-284q-33 -80 -43 -93h-53v138h497v-37l-398 -576h303q45 81 58 96h58zM233 782q0 23 15 40t42 17q24 0 40 -16.5t16 -40.5t-16 -40t-41 -16q-26 0 -41 17t-15 39z" />
    <glyph glyph-name="zdotaccent" unicode="&#x17c;" horiz-adv-x="432" 
d="M93 336h-57v121h365v-34q-19 -28 -81.5 -116.5t-114.5 -163.5t-69 -100l184 1q27 61 37 78h62q-20 -100 -25 -122h-369v35q200 280 267 378h-172q-16 -56 -27 -77zM154 618q0 20 15.5 38.5t42.5 18.5t42.5 -17t15.5 -40q0 -25 -16 -41.5t-42 -16.5q-28 0 -43 17t-15 41z
" />
    <glyph glyph-name="Zcaron" unicode="&#x17d;" horiz-adv-x="581" 
d="M531 0h-510v34l403 579h-284q-33 -80 -43 -93h-53v138h497v-37l-398 -576h303q45 81 58 96h58zM133 810v45l157 -61l155 61v-45l-140 -92h-35z" />
    <glyph glyph-name="zcaron" unicode="&#x17e;" horiz-adv-x="432" 
d="M83 693h53l83 -85l80 85h53l-104 -159h-60zM93 336h-57v121h365v-34q-19 -28 -81.5 -116.5t-114.5 -163.5t-69 -100l184 1q27 61 37 78h62q-20 -100 -25 -122h-369v35q200 280 267 378h-172q-16 -56 -27 -77z" />
    <glyph glyph-name="uni018F" unicode="&#x18f;" horiz-adv-x="693" 
d="M56 318h473v23q0 125 -61.5 196t-170.5 71q-47 0 -90.5 -12t-65 -23t-53.5 -30v47q117 78 246 78q147 0 226.5 -95.5t79.5 -231.5q0 -146 -78.5 -249t-224.5 -104q-75 0 -132.5 26t-89 69t-47 90t-15.5 96q0 31 3 49zM526 273h-361q-1 -10 -1 -34q0 -91 47.5 -150.5
t132.5 -59.5q165 0 182 244z" />
    <glyph glyph-name="florin" unicode="&#x192;" horiz-adv-x="513" 
d="M11 -133q-54 0 -81 27q3 19 16 43.5t27 33.5q20 -19 29.5 -27.5t25 -17.5t28.5 -9q28 0 46 32t36 123l56 275h-83v42h92q24 114 68 177q31 48 75 74.5t93 26.5q46 0 60 -10q0 -19 -10.5 -46t-25.5 -41q-43 47 -78 47q-19 0 -33 -27.5t-30 -102.5l-20 -98h102v-42h-112
q-20 -107 -54 -254q-26 -108 -90 -167t-137 -59z" />
    <glyph glyph-name="Ohorn" unicode="&#x1a0;" horiz-adv-x="753" 
d="M384 31q91 0 145.5 75.5t54.5 214.5q0 148 -62 226.5t-156 78.5q-90 0 -146 -73t-56 -212q0 -136 59.5 -223t160.5 -87zM715 680q0 -39 -28.5 -70.5t-66.5 -48.5q77 -91 77 -230q0 -145 -88.5 -244t-230.5 -99q-150 0 -238.5 97t-88.5 244q0 145 88.5 242t238.5 97
q128 0 215 -79q18 6 30.5 18t12.5 20q0 20 -34 66q7 13 40.5 31t54.5 22q18 -18 18 -66z" />
    <glyph glyph-name="ohorn" unicode="&#x1a1;" horiz-adv-x="533" 
d="M276 29q58 0 88 53.5t30 140.5q0 90 -34.5 147.5t-98.5 57.5q-61 0 -91.5 -52.5t-30.5 -134.5q0 -87 35.5 -149.5t101.5 -62.5zM526 504q0 -36 -23.5 -65.5t-57.5 -47.5q54 -64 54 -154q0 -108 -64.5 -178.5t-168.5 -70.5q-103 0 -167.5 69t-64.5 173q0 100 64.5 169.5
t171.5 69.5q86 0 148 -51q31 17 31 37q0 23 -30 64q8 13 38.5 30.5t51.5 20.5q17 -17 17 -66z" />
    <glyph glyph-name="Uhorn" unicode="&#x1af;" horiz-adv-x="718" 
d="M31 658h264v-41q-20 -3 -87 -10v-407q0 -70 45.5 -113t128.5 -43q81 0 124.5 42t43.5 118v404q-76 7 -96 9v41h167q37 0 37 18q0 24 -39 69q11 15 42.5 31.5t50.5 20.5q14 -19 14 -65q0 -49 -32 -81.5t-83 -40.5v-392q0 -87 -38 -139q-64 -91 -210 -91q-171 0 -231 107
q-25 42 -25 119v394q-18 2 -76 8v42z" />
    <glyph glyph-name="uhorn" unicode="&#x1b0;" horiz-adv-x="549" 
d="M369 92v302q-32 17 -72 26v37h163q36 0 36 25q0 35 -38 76q12 15 41.5 31.5t48.5 20.5q14 -19 14 -65q0 -52 -28.5 -89t-71.5 -49v-345q8 -2 60 -5v-41q-49 -6 -140 -28q-5 22 -9 66q-73 -66 -152 -66q-57 0 -98 37t-41 113v256q-26 18 -60 26v37h69q61 0 87 2
q-3 -45 -3 -55v-271q0 -32 24.5 -57t64.5 -25q61 0 105 41z" />
    <glyph glyph-name="uni01CD" unicode="&#x1cd;" horiz-adv-x="625" 
d="M192 297h191l-95 276zM205 0h-231v41q38 6 76 9q12 29 52 138t89 242t65 176q8 23 6 52h95q15 -46 105.5 -298.5t113.5 -310.5q30 -2 75 -8v-41h-268v41q50 7 84 8l-71 203h-218l-70 -202q46 -3 97 -10v-40zM153 798v45l156 -60l155 60v-45l-139 -91h-35z" />
    <glyph glyph-name="uni01CE" unicode="&#x1ce;" horiz-adv-x="481" 
d="M258 539h-60l-104 158h53l83 -85l80 85h52zM301 221h-17q-78 0 -114.5 -22t-36.5 -69q0 -38 23 -59.5t61 -21.5q47 0 85 24q-1 3 -1 11v137zM393 333v-264q0 -8 9 -16t27 -8q13 0 24 2v-40q-31 -14 -68 -14q-56 0 -75 47q-88 -52 -142 -52q-48 0 -88 36.5t-40 93.5
q0 142 246 142h15v70q0 95 -100 95q-22 0 -34 -4q-17 -64 -23 -74h-72v85q113 37 173 37q72 0 110 -38t38 -98z" />
    <glyph glyph-name="uni01CF" unicode="&#x1cf;" horiz-adv-x="334" 
d="M303 0h-273v41q49 7 85 9v557q-35 2 -85 10v41h273v-41q-25 -4 -86 -10v-557q69 -7 86 -9v-41zM12 806v45l156 -60l155 60v-45l-140 -91h-35z" />
    <glyph glyph-name="uni01D0" unicode="&#x1d0;" horiz-adv-x="275" 
d="M-6 697h53l82 -85l80 85h53l-104 -158h-60zM244 0h-215v41q26 4 65 8v344q-31 19 -62 27v37h57q79 0 97 3v-412q16 0 58 -7v-41z" />
    <glyph glyph-name="uni01D1" unicode="&#x1d1;" horiz-adv-x="747" 
d="M378 -12q-150 0 -238.5 97t-88.5 244q0 145 88.5 242t238.5 97q142 0 230.5 -94.5t88.5 -242.5q0 -145 -88.5 -244t-230.5 -99zM384 31q91 0 145.5 75.5t54.5 214.5q0 148 -62 226.5t-156 78.5q-90 0 -146 -73t-56 -212q0 -136 59.5 -223t160.5 -87zM219 815v45l156 -60
l155 60v-45l-140 -91h-35z" />
    <glyph glyph-name="uni01D2" unicode="&#x1d2;" horiz-adv-x="533" 
d="M130 697h53l82 -85l80 85h53l-104 -158h-60zM270 469q100 0 164.5 -66t64.5 -166q0 -108 -64.5 -178.5t-168.5 -70.5q-103 0 -167.5 69t-64.5 173q0 100 64.5 169.5t171.5 69.5zM276 29q58 0 88 53.5t30 140.5q0 90 -34.5 147.5t-98.5 57.5q-61 0 -91.5 -52.5
t-30.5 -134.5q0 -87 35.5 -149.5t101.5 -62.5z" />
    <glyph glyph-name="uni01D3" unicode="&#x1d3;" horiz-adv-x="712" 
d="M610 608v-383q0 -92 -39 -147q-64 -90 -213 -90q-168 0 -230 110q-25 46 -25 121v389q-18 2 -76 8v42h264v-41q-19 -3 -87 -10v-398q1 -73 44 -119t129 -46q81 0 126.5 45t45.5 122v397q-79 7 -96 9v41h232v-42q-40 -6 -75 -8zM213 807v44l156 -60l155 60v-44l-140 -92
h-35z" />
    <glyph glyph-name="uni01D4" unicode="&#x1d4;" horiz-adv-x="551" 
d="M123 697h53l83 -85l80 85h53l-104 -158h-60zM522 57v-41q-49 -6 -140 -28q-5 22 -9 66q-73 -66 -152 -66q-58 0 -98.5 36.5t-40.5 112.5v257q-26 18 -60 26v37h69q61 0 87 2q-3 -45 -3 -55v-271q0 -32 24.5 -57t64.5 -25q61 0 105 41v302q-32 17 -72 26v37h65q78 0 100 2
v-397q8 -2 60 -5z" />
    <glyph glyph-name="uni01D5" unicode="&#x1d5;" horiz-adv-x="712" 
d="M610 608v-383q0 -92 -39 -147q-64 -90 -213 -90q-168 0 -230 110q-25 46 -25 121v389q-18 2 -76 8v42h264v-41q-19 -3 -87 -10v-398q1 -73 44 -119t129 -46q81 0 126.5 45t45.5 122v397q-79 7 -96 9v41h232v-42q-40 -6 -75 -8zM229 885h286v-54h-286v54zM272 800
q22 0 35.5 -13t13.5 -33q0 -45 -50 -45q-19 0 -33.5 11.5t-14.5 33.5q0 20 13.5 33t35.5 13zM470 799q23 0 35.5 -13t12.5 -32q0 -21 -13.5 -33t-35.5 -12q-21 0 -34.5 12t-13.5 32q0 23 14 34.5t35 11.5z" />
    <glyph glyph-name="uni01D6" unicode="&#x1d6;" horiz-adv-x="551" 
d="M522 57v-41q-49 -6 -140 -28q-5 22 -9 66q-73 -66 -152 -66q-58 0 -98.5 36.5t-40.5 112.5v257q-26 18 -60 26v37h69q61 0 87 2q-3 -45 -3 -55v-271q0 -32 24.5 -57t64.5 -25q61 0 105 41v302q-32 17 -72 26v37h65q78 0 100 2v-397q8 -2 60 -5zM132 725h251v-56h-251v56z
M164 618q21 0 34.5 -14t13.5 -35q0 -24 -15 -36t-35 -12q-19 0 -33.5 12.5t-14.5 34.5q0 21 13.5 35.5t36.5 14.5zM352 617q23 0 35.5 -14.5t12.5 -33.5q0 -21 -14 -34.5t-35 -13.5q-22 0 -35.5 13.5t-13.5 33.5q0 23 14.5 36t35.5 13z" />
    <glyph glyph-name="uni01D7" unicode="&#x1d7;" horiz-adv-x="712" 
d="M610 608v-383q0 -92 -39 -147q-64 -90 -213 -90q-168 0 -230 110q-25 46 -25 121v389q-18 2 -76 8v42h264v-41q-19 -3 -87 -10v-398q1 -73 44 -119t129 -46q81 0 126.5 45t45.5 122v397q-79 7 -96 9v41h232v-42q-40 -6 -75 -8zM261 801q21 0 33.5 -14t12.5 -34
q0 -22 -13.5 -34t-34.5 -12q-18 0 -31.5 12.5t-13.5 32.5t12 34.5t35 14.5zM475 800q22 0 35 -14t13 -33t-13 -32.5t-36 -13.5q-21 0 -34 13t-13 32q0 23 14 35.5t34 12.5zM334 799l58 114h94v-21l-100 -93h-52z" />
    <glyph glyph-name="uni01D8" unicode="&#x1d8;" horiz-adv-x="551" 
d="M522 57v-41q-49 -6 -140 -28q-5 22 -9 66q-73 -66 -152 -66q-58 0 -98.5 36.5t-40.5 112.5v257q-26 18 -60 26v37h69q61 0 87 2q-3 -45 -3 -55v-271q0 -32 24.5 -57t64.5 -25q61 0 105 41v302q-32 17 -72 26v37h65q78 0 100 2v-397q8 -2 60 -5zM272 634h-48l56 123h94
v-16zM164 619q21 0 35 -14.5t14 -35.5q0 -25 -14.5 -37t-35.5 -12q-19 0 -33.5 13t-14.5 35t13.5 36.5t35.5 14.5zM355 618q23 0 35.5 -14.5t12.5 -34.5q0 -22 -14 -35.5t-35 -13.5t-35 13.5t-14 34.5q0 24 15 37t35 13z" />
    <glyph glyph-name="uni01D9" unicode="&#x1d9;" horiz-adv-x="712" 
d="M610 608v-383q0 -92 -39 -147q-64 -90 -213 -90q-168 0 -230 110q-25 46 -25 121v389q-18 2 -76 8v42h264v-41q-19 -3 -87 -10v-398q1 -73 44 -119t129 -46q81 0 126.5 45t45.5 122v397q-79 7 -96 9v41h232v-42q-40 -6 -75 -8zM262 799q21 0 34.5 -12.5t13.5 -32.5
q0 -45 -50 -45q-19 0 -33 11t-14 33q0 20 13.5 33t35.5 13zM467 798q23 0 35.5 -12.5t12.5 -31.5q0 -21 -13.5 -33t-35.5 -12q-21 0 -34.5 12t-13.5 32q0 45 49 45zM219 869v38l146 -41l141 41v-38q-101 -49 -123 -63h-37q-15 8 -127 63z" />
    <glyph glyph-name="uni01DA" unicode="&#x1da;" horiz-adv-x="551" 
d="M522 57v-41q-49 -6 -140 -28q-5 22 -9 66q-73 -66 -152 -66q-58 0 -98.5 36.5t-40.5 112.5v257q-26 18 -60 26v37h69q61 0 87 2q-3 -45 -3 -55v-271q0 -32 24.5 -57t64.5 -25q61 0 105 41v302q-32 17 -72 26v37h65q78 0 100 2v-397q8 -2 60 -5zM120 714v36l139 -47
l134 47v-35l-118 -75h-34zM164 613q21 0 35 -14.5t14 -35.5q0 -25 -14.5 -37t-35.5 -12q-19 0 -33.5 13t-14.5 36q0 21 13.5 35.5t35.5 14.5zM355 612q23 0 35.5 -14.5t12.5 -34.5q0 -22 -14 -35.5t-35 -13.5t-35 13.5t-14 34.5q0 24 15 37t35 13z" />
    <glyph glyph-name="uni01DB" unicode="&#x1db;" horiz-adv-x="712" 
d="M610 608v-383q0 -92 -39 -147q-64 -90 -213 -90q-168 0 -230 110q-25 46 -25 121v389q-18 2 -76 8v42h264v-41q-19 -3 -87 -10v-398q1 -73 44 -119t129 -46q81 0 126.5 45t45.5 122v397q-79 7 -96 9v41h232v-42q-40 -6 -75 -8zM263 801q21 0 33.5 -14t12.5 -34
q0 -46 -49 -46q-18 0 -31 12t-13 33q0 20 12 34.5t35 14.5zM477 800q22 0 35 -14t13 -33t-13 -32.5t-36 -13.5q-21 0 -34.5 13t-13.5 32q0 23 14.5 35.5t34.5 12.5zM353 912l58 -114h-52l-100 94v20h94z" />
    <glyph glyph-name="uni01DC" unicode="&#x1dc;" horiz-adv-x="551" 
d="M522 57v-41q-49 -6 -140 -28q-5 22 -9 66q-73 -66 -152 -66q-58 0 -98.5 36.5t-40.5 112.5v257q-26 18 -60 26v37h69q61 0 87 2q-3 -45 -3 -55v-271q0 -32 24.5 -57t64.5 -25q61 0 105 41v302q-32 17 -72 26v37h65q78 0 100 2v-397q8 -2 60 -5zM161 626q21 0 35 -15
t14 -36q0 -24 -15 -36.5t-35 -12.5q-19 0 -33.5 13t-14.5 36q0 21 13.5 36t35.5 15zM352 625q23 0 35.5 -15t12.5 -35q0 -21 -14 -35t-35 -14t-35 13.5t-14 34.5q0 25 14.5 38t35.5 13zM285 640h-48l-104 108v16h100z" />
    <glyph glyph-name="Gcaron" unicode="&#x1e6;" horiz-adv-x="705" 
d="M526 612q-7 4 -40 9t-71 5q-44 0 -86 -14.5t-80.5 -46t-61.5 -89.5t-23 -136q0 -148 77 -227.5t185 -79.5q49 0 85 10v226q-66 3 -103 9v41h259v-40q-42 -6 -54 -7v-215q0 -2 1.5 -8.5t3.5 -16.5t3 -16q-137 -27 -214 -27q-153 0 -254.5 90.5t-101.5 255.5
q0 147 103.5 240t276.5 93q39 0 189 -10v-129h-56q-8 6 -38 83zM253 817v45l156 -61l155 61v-45l-140 -91h-35z" />
    <glyph glyph-name="gcaron" unicode="&#x1e7;" horiz-adv-x="489" 
d="M262 539h-61l-104 158h53l83 -85l80 85h53zM232 188q38 0 59 31.5t21 83.5q0 55 -21 91.5t-69 36.5q-40 0 -60 -33t-20 -82q0 -53 22.5 -90.5t67.5 -37.5zM317 -22q-14 2 -61 5.5t-74 6.5q-10 1 -28 5q-47 -54 -47 -93q0 -43 41.5 -74.5t110.5 -31.5q72 0 105 31t33 77
q0 66 -80 74zM483 457l-4 -65q-56 7 -98 7q27 -36 27 -88q0 -74 -50 -117t-128 -43q-35 0 -70 11q-16 -30 -16 -44q0 -20 16.5 -31t37.5 -13q19 -2 74.5 -5t80.5 -6q45 -4 84.5 -34t39.5 -88q0 -80 -72 -137t-172 -57q-104 0 -158 45.5t-54 94.5q0 15 24.5 47.5t75.5 74.5
q-49 30 -49 73q0 25 56 93q-82 44 -82 134q0 65 49.5 112.5t133.5 47.5q53 0 107 -21q8 -4 14 -4q83 10 133 13z" />
    <glyph glyph-name="uni0218" unicode="&#x218;" horiz-adv-x="523" 
d="M59 18l-10 124h57q5 -5 50 -97q27 -15 77 -15q63 0 103 33t40 84q0 49 -30 80.5t-120 69.5q-91 38 -128 86t-37 112q0 74 57 123.5t171 49.5q39 0 90 -5t64 -5v-129h-54q-7 9 -42 88q-27 11 -62 11q-71 0 -101.5 -31t-30.5 -75q0 -42 27 -74t101 -62q108 -43 152 -90.5
t44 -115.5q0 -89 -71 -140.5t-176 -51.5q-23 0 -44 1.5t-41.5 6t-30.5 7t-31 8.5t-24 7zM247 -255l-59 -12l-9 10q52 64 52 123q0 29 -24 67l93 18q19 -23 19 -61q0 -82 -72 -145z" />
    <glyph glyph-name="uni0219" unicode="&#x219;" horiz-adv-x="400" 
d="M339 457v-98h-57q-10 10 -32 66q-12 7 -36 7q-40 0 -61.5 -20t-21.5 -52q0 -27 19 -46.5t79 -41.5q71 -27 102.5 -58.5t31.5 -82.5q0 -64 -52.5 -103.5t-132.5 -39.5q-58 0 -131 23q-1 10 -4 49t-4 50h59q10 -17 38 -76q19 -8 42 -8q47 0 71 21.5t24 53.5q0 29 -17 49.5
t-68 40.5q-74 29 -107 61.5t-33 84.5q0 54 41 93t132 39q46 0 118 -12zM191 -261l-60 -12l-8 10q52 66 52 123q0 30 -25 67l94 18q18 -24 18 -61q0 -83 -71 -145z" />
    <glyph glyph-name="uni021A" unicode="&#x21a;" horiz-adv-x="633" 
d="M27 520v138h576v-138h-51q-6 6 -44 93h-153v-563q35 -2 99 -10v-40h-298v41q86 8 98 9v563h-134q-35 -87 -42 -93h-51zM286 -249l-59 -12l-9 9q52 65 52 124q0 29 -24 67l93 18q19 -23 19 -62q0 -83 -72 -144z" />
    <glyph glyph-name="uni021B" unicode="&#x21b;" horiz-adv-x="319" 
d="M298 54v-38q-46 -28 -99 -28q-112 0 -112 126v294q-14 1 -72 8v41h74q11 58 44 129h66q-13 -66 -16 -129h117v-42q-74 -7 -120 -7v-314q0 -21 13 -37t44 -16q28 0 61 13zM165 -263l-60 -12l-8 10q52 64 52 123q0 30 -25 67l94 18q18 -22 18 -61q0 -85 -71 -145z" />
    <glyph glyph-name="uni0237" unicode="&#x237;" horiz-adv-x="267" 
d="M27 420v37h55q79 0 103 4l-1 -412q0 -63 -15 -116q-35 -112 -144 -182l-27 32q62 54 78 100t16 139v371q-39 23 -65 27z" />
    <glyph glyph-name="uni0251" unicode="&#x251;" horiz-adv-x="547" 
d="M244 469q52 0 84 -23t44 -57q8 45 18 68h82q-16 -76 -16 -137v-231q0 -42 35 -42q24 0 46 12v-38q-29 -32 -83 -32q-85 0 -88 94v3q-14 -42 -51 -70t-94 -28q-81 0 -131 64t-50 170q0 104 56 175.5t148 71.5zM253 417q-57 0 -86 -51t-29 -139q0 -86 31 -135t78 -49
q57 0 87 56t30 161q0 157 -111 157z" />
    <glyph glyph-name="uni0259" unicode="&#x259;" horiz-adv-x="476" 
d="M60 373v40q82 56 172 56q96 0 153 -68.5t57 -167.5q0 -107 -58.5 -176t-159.5 -69q-90 0 -141 58t-51 146q0 26 5 40q23 7 166 7h138q-1 83 -40 128t-105 45t-136 -39zM339 197h-125q-63 0 -83 -2q-2 -7 -2 -24q0 -31 8.5 -61.5t33 -56t61.5 -25.5q48 0 76.5 43t30.5 126
z" />
    <glyph glyph-name="uni0261" unicode="&#x261;" horiz-adv-x="543" 
d="M396 457h82q-17 -72 -17 -128v-285q0 -80 -23 -140.5t-61 -93t-80.5 -48t-87.5 -15.5q-99 0 -151 44q4 20 21 48t30 37q4 -3 14 -13t22 -20.5t25 -19.5q33 -24 70 -24q131 0 131 230v56q-38 -97 -150 -97q-80 0 -130 63.5t-50 167.5t57 176.5t149 72.5q51 0 84.5 -22.5
t46.5 -55.5q9 46 18 67zM257 416q-58 0 -88 -51.5t-30 -144.5q0 -94 31.5 -133.5t79.5 -39.5q56 0 87.5 50.5t31.5 154.5q1 164 -112 164z" />
    <glyph glyph-name="uni02BB" unicode="&#x2bb;" horiz-adv-x="317" 
d="M202 707l53 11l5 -7q-60 -91 -60 -177q0 -39 10 -79l-93 -27q-6 22 -6 52q0 66 25.5 126t65.5 101z" />
    <glyph glyph-name="uni02BC" unicode="&#x2bc;" horiz-adv-x="317" 
d="M146 439l-53 -11l-5 7q60 91 60 181q0 35 -10 75l93 27q6 -22 6 -51q0 -67 -25.5 -127t-65.5 -101z" />
    <glyph glyph-name="uni02BE" unicode="&#x2be;" horiz-adv-x="400" 
d="M144 635v40q42 0 69.5 -23.5t27.5 -62.5q0 -40 -27.5 -64t-69.5 -24v40q21 1 35.5 13t14.5 35q0 39 -50 46z" />
    <glyph glyph-name="uni02BF" unicode="&#x2bf;" horiz-adv-x="400" 
d="M241 541v-40q-41 0 -69 23.5t-28 62.5q0 40 28 64t69 24v-41q-20 -1 -34.5 -13t-14.5 -34q0 -39 49 -46z" />
    <glyph glyph-name="circumflex" unicode="&#x2c6;" horiz-adv-x="400" 
d="M333 533h-53l-82 86l-80 -86h-53l104 158h60z" />
    <glyph glyph-name="caron" unicode="&#x2c7;" horiz-adv-x="400" 
d="M65 697h53l83 -85l80 85h52l-104 -158h-60z" />
    <glyph glyph-name="uni02C8" unicode="&#x2c8;" horiz-adv-x="400" 
d="M160 672h79v-134h-79v134z" />
    <glyph glyph-name="uni02C9" unicode="&#x2c9;" horiz-adv-x="400" 
d="M72 633h255v-59h-255v59z" />
    <glyph glyph-name="uni02CA" unicode="&#x2ca;" horiz-adv-x="400" 
d="M216 529h-50l93 178h103l1 -12z" />
    <glyph glyph-name="uni02CB" unicode="&#x2cb;" horiz-adv-x="400" 
d="M245 529h-50l-146 166l4 12h106z" />
    <glyph glyph-name="uni02CC" unicode="&#x2cc;" horiz-adv-x="400" 
d="M160 -81h79v-133h-79v133z" />
    <glyph glyph-name="breve" unicode="&#x2d8;" horiz-adv-x="400" 
d="M302 681h40q-12 -62 -48.5 -98.5t-97.5 -36.5q-58 0 -96 35.5t-46 99.5h43q15 -37 39 -52t61 -15q40 0 64.5 15t40.5 52z" />
    <glyph glyph-name="dotaccent" unicode="&#x2d9;" horiz-adv-x="400" 
d="M136 618q0 20 15.5 38.5t43.5 18.5q26 0 41.5 -17t15.5 -40q0 -25 -16 -41.5t-42 -16.5q-28 0 -43 17t-15 41z" />
    <glyph glyph-name="ring" unicode="&#x2da;" horiz-adv-x="400" 
d="M199 696q42 0 66.5 -22.5t24.5 -60.5q0 -37 -25.5 -60.5t-65.5 -23.5q-41 0 -65 23.5t-24 60.5t24 60t65 23zM198 664q-20 0 -33 -14t-13 -37q0 -25 13 -38t34 -13q48 0 48 53q0 21 -14 35t-35 14z" />
    <glyph glyph-name="ogonek" unicode="&#x2db;" horiz-adv-x="400" 
d="M229 5h44q-54 -34 -78 -62t-24 -60q0 -25 16.5 -37t41.5 -12q32 0 58 10v-37q-43 -32 -99 -32q-47 0 -74.5 26t-27.5 61q0 39 36.5 77t106.5 66z" />
    <glyph glyph-name="tilde" unicode="&#x2dc;" horiz-adv-x="400" 
d="M307 671h44q1 -57 -20.5 -86t-60.5 -29q-10 0 -22 3t-18 5t-20.5 8.5t-17.5 7.5q-43 21 -64 21q-33 0 -36 -48h-45q-2 55 20.5 83.5t62.5 28.5q35 0 82 -23q49 -21 60 -21q17 0 25.5 10.5t9.5 39.5z" />
    <glyph glyph-name="hungarumlaut" unicode="&#x2dd;" horiz-adv-x="400" 
d="M124 530h-47l87 177h87v-13zM288 530h-46l87 177h87v-14z" />
    <glyph glyph-name="gravecomb" unicode="&#x300;" horiz-adv-x="0" 
d="M45 529h-50l-146 166l4 12h106z" />
    <glyph glyph-name="acutecomb" unicode="&#x301;" horiz-adv-x="0" 
d="M16 529h-50l93 178h103l1 -12z" />
    <glyph glyph-name="uni0302" unicode="&#x302;" horiz-adv-x="0" 
d="M133 533h-53l-82 86l-80 -86h-53l104 158h60z" />
    <glyph glyph-name="tildecomb" unicode="&#x303;" horiz-adv-x="0" 
d="M107 671h44q1 -57 -20.5 -86t-60.5 -29q-10 0 -22 3t-18 5t-20.5 8.5t-17.5 7.5q-43 21 -64 21q-33 0 -36 -48h-45q-2 55 20.5 83.5t62.5 28.5q35 0 82 -23q49 -21 60 -21q17 0 25.5 10.5t9.5 39.5z" />
    <glyph glyph-name="uni0304" unicode="&#x304;" horiz-adv-x="0" 
d="M-128 633h255v-59h-255v59z" />
    <glyph glyph-name="uni0306" unicode="&#x306;" horiz-adv-x="0" 
d="M102 681h40q-12 -62 -48.5 -98.5t-97.5 -36.5q-58 0 -96 35.5t-46 99.5h43q15 -37 39 -52t61 -15q40 0 64.5 15t40.5 52z" />
    <glyph glyph-name="uni0307" unicode="&#x307;" horiz-adv-x="0" 
d="M-64 618q0 20 15.5 38.5t43.5 18.5q26 0 41.5 -17t15.5 -40q0 -25 -16 -41.5t-42 -16.5q-28 0 -43 17t-15 41z" />
    <glyph glyph-name="uni0308" unicode="&#x308;" horiz-adv-x="0" 
d="M-152 618q0 20 14.5 37t40.5 17q24 0 38 -16t14 -38q0 -24 -14.5 -40t-38.5 -16q-26 0 -40 16.5t-14 39.5zM44 618q0 20 14 37t40 17q24 0 38 -16t14 -38q0 -24 -14 -40t-38 -16q-27 0 -40.5 16.5t-13.5 39.5z" />
    <glyph glyph-name="hookabovecomb" unicode="&#x309;" horiz-adv-x="0" 
d="M14 706q42 0 67.5 -22t25.5 -54q0 -69 -117 -113l-18 32q60 35 60 70q0 14 -10 23.5t-31 9.5q-29 0 -71 -23l-15 30q51 47 109 47z" />
    <glyph glyph-name="uni030A" unicode="&#x30a;" horiz-adv-x="0" 
d="M-1 696q42 0 66.5 -22.5t24.5 -60.5q0 -37 -25.5 -60.5t-65.5 -23.5q-41 0 -65 23.5t-24 60.5t24 60t65 23zM-2 664q-20 0 -33 -14t-13 -37q0 -25 13 -38t34 -13q48 0 48 53q0 21 -14 35t-35 14z" />
    <glyph glyph-name="uni030B" unicode="&#x30b;" horiz-adv-x="0" 
d="M-76 530h-47l87 177h87v-13zM88 530h-46l87 177h87v-14z" />
    <glyph glyph-name="uni030C" unicode="&#x30c;" horiz-adv-x="0" 
d="M-135 697h53l83 -85l80 85h52l-104 -158h-60z" />
    <glyph glyph-name="uni031B" unicode="&#x31b;" horiz-adv-x="0" 
d="M-47 406v51q48 0 48 18q0 27 -38 68q12 15 41 31t48 20q14 -20 14 -63q0 -53 -30.5 -84.5t-82.5 -40.5z" />
    <glyph glyph-name="dotbelowcomb" unicode="&#x323;" horiz-adv-x="0" 
d="M-1 -200q-22 0 -42 17t-20 47q0 28 18 46.5t46 18.5q27 0 45 -18.5t18 -45.5q0 -32 -20.5 -48.5t-44.5 -16.5z" />
    <glyph glyph-name="uni0324" unicode="&#x324;" horiz-adv-x="0" 
d="M-152 -96q0 20 14.5 37.5t40.5 17.5q24 0 38 -16.5t14 -38.5q0 -24 -14.5 -39.5t-38.5 -15.5q-26 0 -40 16.5t-14 38.5zM44 -96q0 20 14 37.5t40 17.5q24 0 38 -16.5t14 -38.5q0 -24 -14 -39.5t-38 -15.5q-27 0 -40.5 16t-13.5 39z" />
    <glyph glyph-name="uni0326" unicode="&#x326;" horiz-adv-x="0" 
d="M0 -244l-60 -12l-8 9q52 65 52 124q0 29 -25 67l94 18q18 -22 18 -61q0 -85 -71 -145z" />
    <glyph glyph-name="uni0327" unicode="&#x327;" horiz-adv-x="0" 
d="M3 5h43l-46 -46q91 -28 91 -90q0 -54 -49.5 -80t-122.5 -23v35q44 1 71.5 15.5t27.5 41.5q0 37 -88 54v23z" />
    <glyph glyph-name="uni0328" unicode="&#x328;" horiz-adv-x="0" 
d="M29 5h44q-54 -34 -78 -62t-24 -60q0 -25 16.5 -37t41.5 -12q32 0 58 10v-37q-43 -32 -99 -32q-47 0 -74.5 26t-27.5 61q0 39 36.5 77t106.5 66z" />
    <glyph glyph-name="uni032E" unicode="&#x32e;" horiz-adv-x="0" 
d="M102 -48h40q-12 -62 -48.5 -98.5t-97.5 -36.5q-58 0 -96 35.5t-46 99.5h43q15 -37 39 -52t61 -15q40 0 64.5 15t40.5 52z" />
    <glyph glyph-name="uni0331" unicode="&#x331;" horiz-adv-x="0" 
d="M-128 -87h255v-59h-255v59z" />
    <glyph glyph-name="uni037E" unicode="&#x37e;" horiz-adv-x="288" 
d="M143 309q-26 0 -45.5 17t-19.5 47q0 28 19 47.5t47 19.5q30 0 48 -19.5t18 -46.5q0 -31 -20 -48t-47 -17zM105 -162l-59 -10l-4 6q65 101 65 191q0 38 -10 81l99 32q6 -24 6 -55q0 -69 -28.5 -133.5t-68.5 -111.5z" />
    <glyph glyph-name="tonos" unicode="&#x384;" horiz-adv-x="400" 
d="M216 529h-50l93 178h103l1 -12z" />
    <glyph glyph-name="dieresistonos" unicode="&#x385;" horiz-adv-x="400" 
d="M71 654q20 0 32 -13t12 -33q0 -22 -13.5 -34t-31.5 -12q-17 0 -30.5 12t-13.5 32t12 34t33 14zM330 654q19 0 32 -12.5t13 -33.5q0 -22 -13.5 -34t-32.5 -12q-17 0 -30 12t-13 32q0 21 12.5 34.5t31.5 13.5zM186 530h-46l48 186h81v-13z" />
    <glyph glyph-name="Alphatonos" unicode="&#x386;" horiz-adv-x="632" 
d="M195 297h190l-95 276zM207 0h-231v41q38 6 76 9q17 40 206 556q8 23 6 52h95q15 -46 105.5 -298.5t113.5 -310.5q30 -2 75 -8v-41h-268v41q50 7 84 8l-70 203h-219l-69 -202q44 -3 96 -10v-40zM31 433h-42l39 233h92v-23z" />
    <glyph glyph-name="anoteleia" unicode="&#x387;" horiz-adv-x="246" 
d="M122 300q-27 0 -46 18t-19 51q0 29 18 49.5t48 20.5q29 -1 47.5 -21.5t18.5 -48.5q0 -32 -19 -50.5t-48 -18.5z" />
    <glyph glyph-name="Epsilontonos" unicode="&#x388;" horiz-adv-x="718" 
d="M657 658v-129h-55q-4 4 -40 84h-219v-251h171q10 53 23 88h41v-225h-41q-15 46 -23 91h-171v-271h251q39 76 58 95h57l-32 -140h-521v41q75 9 85 10v556q-47 3 -85 10v41h501zM-5 433h-43l40 233h91v-23z" />
    <glyph glyph-name="Etatonos" unicode="&#x389;" horiz-adv-x="854" 
d="M417 0h-261v41q46 7 86 9v557q-69 7 -86 10v41h261v-41q-45 -7 -73 -9v-236h312v236q-5 1 -29.5 3.5t-43.5 5.5v41h261v-41q-50 -8 -87 -9v-558q21 -1 87 -9v-41h-266v41q5 1 78 9v275h-312v-275q51 -6 73 -10v-40zM1 433h-43l40 233h91v-23z" />
    <glyph glyph-name="Iotatonos" unicode="&#x38a;" horiz-adv-x="453" 
d="M421 0h-273v41q48 7 86 9v557q-34 2 -86 10v41h273v-41q-26 -5 -86 -10v-557q69 -7 86 -9v-41zM-4 433h-42l39 233h92v-23z" />
    <glyph glyph-name="Omicrontonos" unicode="&#x38c;" horiz-adv-x="799" 
d="M461 -12q-150 0 -238 97t-88 244q0 145 88.5 242t238.5 97q142 0 230 -94t88 -243q0 -145 -88 -244t-231 -99zM467 31q92 0 146 75.5t54 214.5q0 148 -62 226.5t-156 78.5q-89 0 -145 -73t-56 -212q0 -136 59.5 -223t159.5 -87zM12 433h-43l40 233h91v-23z" />
    <glyph glyph-name="Upsilontonos" unicode="&#x38e;" horiz-adv-x="802" 
d="M579 0h-312v41q48 6 106 9v146q0 68 -5.5 124t-22.5 115.5t-45.5 98t-79 61.5t-117.5 17v40q39 16 104 16q106 0 165 -82t65 -210h7q15 134 77 213.5t160 78.5q57 0 79 -16v-40q-81 9 -140 -25.5t-89.5 -100t-44 -137.5t-13.5 -153v-146q47 -2 106 -10v-40zM-42 433h-43
l40 233h91v-23z" />
    <glyph glyph-name="Omegatonos" unicode="&#x38f;" horiz-adv-x="797" 
d="M363 0h-278l-12 154h41q11 -12 47 -72h138l1 7q-86 44 -134 121t-48 164q0 124 84 209t223 85q140 0 221.5 -81t81.5 -204q0 -96 -51 -171t-141 -123v-7h137q24 35 52 68h46l-37 -150h-262l3 90q80 53 110.5 125t30.5 164q0 107 -53.5 177.5t-145.5 70.5
q-91 0 -138.5 -68t-47.5 -178q0 -188 131 -292zM-18 426h-42l39 232h92v-22z" />
    <glyph glyph-name="iotadieresistonos" unicode="&#x390;" horiz-adv-x="261" 
d="M250 50v-37q-30 -25 -83 -25q-45 0 -67 29t-22 75v365h93v-373q0 -43 37 -43q23 0 42 9zM14 654q20 0 32 -13t12 -33q0 -22 -13.5 -34t-31.5 -12t-31 12t-13 32t12 34t33 14zM273 654q19 0 32 -13t13 -33q0 -22 -13.5 -34t-32.5 -12q-17 0 -30.5 12t-13.5 32
q0 21 12.5 34.5t32.5 13.5zM129 530h-46l48 186h80v-13z" />
    <glyph glyph-name="Alpha" unicode="&#x391;" horiz-adv-x="625" 
d="M192 297h191l-95 276zM205 0h-231v41q38 6 76 9q12 29 52 138t89 242t65 176q8 23 6 52h95q15 -46 105.5 -298.5t113.5 -310.5q30 -2 75 -8v-41h-268v41q50 7 84 8l-71 203h-218l-70 -202q46 -3 97 -10v-40z" />
    <glyph glyph-name="Beta" unicode="&#x392;" horiz-adv-x="616" 
d="M218 45h79q76 0 120.5 40t44.5 107q0 66 -42.5 103t-126.5 37h-75v-287zM218 613v-235h100q34 0 59 -3q51 36 51 120q0 118 -140 118h-70zM31 658h265q85 0 132 -16q103 -36 103 -135q0 -49 -31.5 -87.5t-69.5 -54.5q4 -1 11.5 -4t11.5 -4q56 -22 89 -62t33 -92
q0 -94 -75 -148.5t-212 -54.5h-257v41q53 7 86 9v557q-5 1 -23 2.5t-35 3.5t-28 4v41z" />
    <glyph glyph-name="Gamma" unicode="&#x393;" horiz-adv-x="564" 
d="M534 658v-139h-55q-9 9 -42 94h-216v-564q60 -3 102 -8v-41h-289v41q26 3 86 9v558q-55 3 -86 9v41h500z" />
    <glyph glyph-name="uni0394" unicode="&#x394;" horiz-adv-x="624" 
d="M602 48v-48h-580v48q13 21 54 121q80 191 183 449q7 26 8 40h73l216 -511q31 -71 46 -99zM280 550l-190 -483h388q-19 48 -198 483z" />
    <glyph glyph-name="Epsilon" unicode="&#x395;" 
d="M533 658v-129h-56q-8 10 -39 84h-220v-251h171q8 42 23 88h41v-225h-41q-15 46 -23 91h-171v-271h251q42 78 59 95h57l-32 -140h-522v41q9 1 28 3.5t34 4t24 2.5v556q-46 3 -86 10v41h502z" />
    <glyph glyph-name="Zeta" unicode="&#x396;" horiz-adv-x="581" 
d="M531 0h-510v34l403 579h-284q-33 -80 -43 -93h-53v138h497v-37l-398 -576h303q45 81 58 96h58z" />
    <glyph glyph-name="Eta" unicode="&#x397;" horiz-adv-x="755" 
d="M294 0h-260v41q44 7 86 9v557q-71 7 -86 10v41h260v-41q-43 -7 -73 -9v-236h312v236q-5 1 -29 3.5t-43 5.5v41h260v-41q-47 -8 -86 -9v-558q23 -2 86 -9v-41h-265v41q6 1 77 9v275h-312v-275q51 -6 73 -10v-40z" />
    <glyph glyph-name="Theta" unicode="&#x398;" horiz-adv-x="749" 
d="M511 432v-198h-38q-10 23 -19 58h-164q-8 -38 -16 -58h-38v198h37q12 -31 16 -56h167q7 32 17 56h38zM379 -12q-149 0 -238.5 98.5t-89.5 242.5q0 146 89 242.5t239 96.5q142 0 230.5 -94.5t88.5 -242.5q0 -145 -88 -244t-231 -99zM385 31q92 0 146.5 76t54.5 214
q0 148 -62 226.5t-158 78.5q-90 0 -146.5 -71.5t-56.5 -213.5q0 -138 60 -224t162 -86z" />
    <glyph glyph-name="Iota" unicode="&#x399;" horiz-adv-x="334" 
d="M303 0h-273v41q49 7 85 9v557q-35 2 -85 10v41h273v-41q-25 -4 -86 -10v-557q69 -7 86 -9v-41z" />
    <glyph glyph-name="Kappa" unicode="&#x39a;" horiz-adv-x="656" 
d="M305 0h-273v41q27 4 85 10v556q-37 2 -85 10v41h273v-41q-46 -7 -86 -10v-272q60 50 152 138.5t129 133.5q-46 5 -85 10v41h236v-41q-12 -1 -40.5 -5t-42.5 -6q-51 -52 -229 -222q31 -46 121.5 -162.5t118.5 -145.5q24 -23 45 -27q22 -5 55 -8v-41h-114q-31 0 -47 6.5
t-32 24.5q-26 27 -105 135t-113 161l-49 -39v-238q37 -2 86 -9v-41z" />
    <glyph glyph-name="Lambda" unicode="&#x39b;" horiz-adv-x="625" 
d="M467 49l-180 518l-179 -517q46 -3 97 -10v-40h-231v41q38 6 76 9q12 30 52.5 139.5t88.5 240t65 176.5q8 23 6 52h95q15 -46 105.5 -298.5t113.5 -310.5q30 -2 75 -8v-41h-268v41q50 7 84 8z" />
    <glyph glyph-name="Mu" unicode="&#x39c;" horiz-adv-x="896" 
d="M282 0h-245v41q66 9 79 10l9 556q-8 1 -38.5 4t-47.5 6v41h187q186 -425 226 -507q9 21 112.5 249.5t116.5 257.5h181v-41q-14 -3 -86 -10v-557q64 -6 84 -9v-41h-277v41q37 6 92 9q1 76 3.5 253t4.5 256q-17 -39 -121.5 -278t-122.5 -281h-38q-13 31 -68 164t-104.5 253
t-60.5 149l4 -515q28 -2 110 -10v-41z" />
    <glyph glyph-name="Nu" unicode="&#x39d;" horiz-adv-x="733" 
d="M277 0h-245v41q54 7 82 10q0 28 2 249.5t3 306.5q-9 1 -38 4.5t-43 5.5v41h180q50 -74 137.5 -200t151.5 -218t70 -102h2q0 39 -0.5 226.5t-1.5 243.5q-38 3 -101 9v41h238v-42q-43 -6 -79 -8q-1 -32 -1.5 -192.5t-0.5 -222.5q0 -115 2 -193h-82q-82 121 -152.5 226
t-107.5 159t-65 96t-39.5 59t-16.5 25h-1q0 -35 0.5 -158t1 -229t1.5 -128q6 -1 24.5 -2.5t39 -3.5t39.5 -4v-40z" />
    <glyph glyph-name="Xi" unicode="&#x39e;" horiz-adv-x="606" 
d="M69 658h467v-146h-43q-6 8 -32 70h-319q-2 -5 -9 -20.5t-13 -29t-10 -20.5h-41v146zM531 0h-472q0 68 -7 154h44q4 -5 11.5 -21t16 -34.5t10.5 -21.5h334q38 72 43 77h44q-2 -14 -12 -75t-12 -79zM420 428h39v-181h-40l-16 52h-204q-2 -11 -15 -53h-39v181h39
q10 -29 15 -52h204q4 14 17 53z" />
    <glyph glyph-name="Omicron" unicode="&#x39f;" horiz-adv-x="747" 
d="M378 -12q-150 0 -238.5 97t-88.5 244q0 145 88.5 242t238.5 97q142 0 230.5 -94.5t88.5 -242.5q0 -145 -88.5 -244t-230.5 -99zM384 31q91 0 145.5 75.5t54.5 214.5q0 148 -62 226.5t-156 78.5q-90 0 -146 -73t-56 -212q0 -136 59.5 -223t160.5 -87z" />
    <glyph glyph-name="Pi" unicode="&#x3a0;" horiz-adv-x="755" 
d="M34 658h687v-41q-47 -8 -86 -9v-558q23 -2 86 -9v-41h-257v41q21 4 69 9v563h-312v-563q28 -3 65 -10v-40h-252v41q44 7 86 9v557q-71 7 -86 10v41z" />
    <glyph glyph-name="Rho" unicode="&#x3a1;" horiz-adv-x="594" 
d="M319 0h-288v41q63 8 86 9v557q-67 7 -86 10v41h257q112 0 164 -25q101 -47 101 -161q0 -71 -41 -120.5t-101.5 -70.5t-133.5 -22h-59v-209q30 -1 101 -9v-41zM218 305h58q73 0 121.5 38.5t48.5 120.5q0 149 -158 149h-70v-308z" />
    <glyph glyph-name="Sigma" unicode="&#x3a3;" horiz-adv-x="593" 
d="M428 613h-266q28 -37 208 -245v-28q-29 -29 -127.5 -140t-107.5 -120h321q5 6 16.5 23.5t21.5 31.5t14 19h58l-42 -154h-495v42q22 21 59.5 61.5t66 72t74.5 83t55 61.5q-23 28 -119.5 143t-132.5 154v41h492v-139h-55q-10 10 -41 94z" />
    <glyph glyph-name="Tau" unicode="&#x3a4;" horiz-adv-x="633" 
d="M27 520v138h576v-138h-51q-6 6 -44 93h-153v-563q35 -2 99 -10v-40h-298v41q86 8 98 9v563h-134q-35 -87 -42 -93h-51z" />
    <glyph glyph-name="Upsilon" unicode="&#x3a5;" horiz-adv-x="627" 
d="M461 0h-312v41q48 6 106 9v146q0 68 -5.5 124t-22.5 115t-46 98t-79 62t-117 17v40q39 16 104 16q105 0 164.5 -82t65.5 -210h7q15 134 77 213.5t160 78.5q57 0 79 -16v-40q-55 6 -100.5 -8t-76 -45t-53 -71t-35 -90.5t-18 -100t-5.5 -101.5v-146q47 -2 107 -10v-40z" />
    <glyph glyph-name="Phi" unicode="&#x3a6;" horiz-adv-x="740" 
d="M417 534v-399q86 6 128 58t42 141q0 96 -43 144t-127 56zM323 135v401q-170 -9 -170 -190q0 -188 170 -211zM493 -12h-244v41q52 7 75 10v53q-135 8 -204 75t-69 169q0 104 69.5 168.5t202.5 71.5v41q-1 0 -68 10v41h238v-41q-48 -8 -76 -8v-44q127 -7 199.5 -67.5
t72.5 -162.5q0 -111 -70 -177t-202 -76v-53q18 -2 76 -10v-41z" />
    <glyph glyph-name="Chi" unicode="&#x3a7;" horiz-adv-x="586" 
d="M197 0h-225v41q44 6 77 8q110 147 194 276q-25 44 -168 283q-25 1 -81 9v41h258v-41q-15 -2 -37.5 -4.5t-26.5 -2.5q2 -5 125 -215q20 28 69.5 104t68.5 109q-56 4 -86 9v41h225v-41q-77 -9 -79 -9q-23 -31 -89.5 -129.5t-83.5 -122.5q67 -121 183 -306q13 -1 41.5 -5
t41.5 -5v-40h-275v41q8 1 34.5 3.5t40.5 3.5q-16 31 -74 128.5t-64 107.5q-21 -30 -155 -235q68 -5 86 -9v-40z" />
    <glyph glyph-name="Psi" unicode="&#x3a8;" horiz-adv-x="731" 
d="M499 0h-269v41q50 7 84 9v206q-50 5 -93.5 21t-82 53t-48.5 89q-4 21 -12 67.5t-12 64.5q-12 66 -69 65v42h20q133 0 153 -117q5 -23 9.5 -65.5t6.5 -52.5q18 -112 128 -124v308q-19 1 -78 10v41h263v-41q-25 -4 -84 -10v-309q59 6 88.5 38.5t40.5 90.5q16 101 16 102
q13 65 59 97t102 32h12v-41q-53 -4 -70 -78q-3 -12 -7.5 -36t-8.5 -42.5t-8 -32.5q-20 -80 -84.5 -122.5t-139.5 -49.5v-206q71 -7 84 -9v-41z" />
    <glyph glyph-name="uni03A9" unicode="&#x3a9;" horiz-adv-x="754" 
d="M320 0h-278l-12 154h41q11 -12 47 -72h139v7q-86 44 -134 121t-48 164q0 124 84 209t223 85q140 0 221.5 -81t81.5 -204q0 -96 -51 -171t-141 -123v-7h137q24 35 52 68h46l-37 -150h-262l4 90q80 53 110 125t30 164q0 107 -53.5 177.5t-145.5 70.5q-91 0 -138.5 -68
t-47.5 -178q0 -188 131 -292z" />
    <glyph glyph-name="Iotadieresis" unicode="&#x3aa;" horiz-adv-x="334" 
d="M303 0h-273v41q49 7 85 9v557q-35 2 -85 10v41h273v-41q-25 -4 -86 -10v-557q69 -7 86 -9v-41zM60 819q21 0 33.5 -15.5t12.5 -36.5q0 -25 -14 -37.5t-34 -12.5q-17 0 -32 13.5t-15 35.5q0 21 13.5 37t35.5 16zM275 818q21 0 34.5 -15.5t13.5 -35.5q0 -19 -14.5 -34.5
t-34.5 -15.5t-34.5 14t-14.5 35q0 24 15.5 38t34.5 14z" />
    <glyph glyph-name="Upsilondieresis" unicode="&#x3ab;" horiz-adv-x="627" 
d="M461 0h-312v41q48 6 106 9v146q0 68 -5.5 124t-22.5 115t-46 98t-79 62t-117 17v40q39 16 104 16q105 0 164.5 -82t65.5 -210h7q15 134 77 213.5t160 78.5q57 0 79 -16v-40q-55 6 -100.5 -8t-76 -45t-53 -71t-35 -90.5t-18 -100t-5.5 -101.5v-146q47 -2 107 -10v-40z
M205 812q21 0 34 -15.5t13 -35.5q0 -25 -14.5 -38t-33.5 -13q-18 0 -32.5 13.5t-14.5 35.5t13 37.5t35 15.5zM420 811q21 0 34.5 -15.5t13.5 -34.5q0 -20 -14 -35.5t-35 -15.5q-20 0 -34 14.5t-14 35.5q0 24 15.5 37.5t33.5 13.5z" />
    <glyph glyph-name="alphatonos" unicode="&#x3ac;" horiz-adv-x="540" 
d="M535 61v-36q-33 -37 -85 -37q-93 0 -94 115q-15 -46 -51.5 -80.5t-93.5 -34.5q-80 0 -126.5 63.5t-46.5 166.5q0 105 54 178t145 73q112 0 139 -127q10 71 20 115h87q-45 -201 -45 -344q0 -66 46 -66q26 0 51 14zM248 419q-55 0 -83.5 -55.5t-28.5 -143.5
q0 -91 28.5 -135.5t69.5 -44.5q59 0 89 64t30 154q0 74 -28.5 117.5t-76.5 43.5zM266 529h-51l93 178h104l1 -12z" />
    <glyph glyph-name="epsilontonos" unicode="&#x3ad;" horiz-adv-x="431" 
d="M303 425q-16 6 -40 6q-46 0 -72 -22.5t-26 -60.5q0 -39 21 -58.5t55 -19.5q36 0 85 7v-64q-40 8 -85 8q-42 0 -65.5 -21t-23.5 -60q0 -47 34.5 -72t83.5 -25q83 0 141 43v-42q-62 -56 -168 -56q-92 0 -143 39t-51 101q0 44 34.5 75.5t98.5 39.5v3q-54 6 -84.5 32.5
t-30.5 70.5q0 52 48.5 86t146.5 34q58 0 135 -17v-94h-66q-8 11 -28 67zM232 529h-51l93 178h104l1 -12z" />
    <glyph glyph-name="etatonos" unicode="&#x3ae;" horiz-adv-x="543" 
d="M185 0h-93v377q0 34 -30 34q-19 0 -35 -7v35q36 30 82 30q74 0 74 -89v-13q23 45 63.5 73.5t90.5 28.5q128 0 128 -159v-553h-96q2 58 4 325v225q0 54 -17.5 77.5t-55.5 23.5q-49 0 -82 -47.5t-33 -145.5v-215zM288 529h-51l93 178h104l1 -12z" />
    <glyph glyph-name="iotatonos" unicode="&#x3af;" horiz-adv-x="261" 
d="M250 50v-37q-30 -25 -83 -25q-45 0 -67 29t-22 75v365h93v-373q0 -43 37 -43q23 0 42 9zM134 529h-50l93 178h103l1 -12z" />
    <glyph glyph-name="upsilondieresistonos" unicode="&#x3b0;" horiz-adv-x="498" 
d="M22 404v36q43 29 85 29q39 0 57.5 -23t18.5 -80v-246q0 -31 11 -44q24 -37 77 -37q59 0 85 52.5t26 159.5q0 31 -9 65q-9 42 -40 117q6 9 40 22.5t54 13.5q19 -42 19 -149q0 -63 -9.5 -118t-31 -105.5t-62.5 -79.5t-98 -29q-116 0 -150 90q-8 24 -8 58v240q0 35 -28 35
q-20 0 -37 -7zM128 654q21 0 33 -13t12 -33q0 -22 -14 -34t-32 -12q-17 0 -30.5 12t-13.5 32t12 34t33 14zM388 654q18 0 31 -13t13 -33q0 -22 -13.5 -34t-31.5 -12q-17 0 -30.5 12t-13.5 32q0 21 12.5 34.5t32.5 13.5zM243 530h-45l48 186h80v-13z" />
    <glyph glyph-name="alpha" unicode="&#x3b1;" horiz-adv-x="540" 
d="M535 61v-36q-33 -37 -85 -37q-93 0 -94 115q-15 -46 -51.5 -80.5t-93.5 -34.5q-80 0 -126.5 63.5t-46.5 166.5q0 105 54 178t145 73q112 0 139 -127q10 71 20 115h87q-45 -201 -45 -344q0 -66 46 -66q26 0 51 14zM248 419q-55 0 -83.5 -55.5t-28.5 -143.5
q0 -91 28.5 -135.5t69.5 -44.5q59 0 89 64t30 154q0 74 -28.5 117.5t-76.5 43.5z" />
    <glyph glyph-name="beta" unicode="&#x3b2;" horiz-adv-x="551" 
d="M177 -243h-99v762q0 211 204 211q98 0 142 -48.5t44 -115.5q0 -72 -41 -116t-110 -55q34 -3 67 -15t64 -34t50 -60t19 -86q0 -101 -62 -156.5t-146 -55.5q-91 0 -138 50v-75q0 -126 6 -206zM228 360v59q14 -1 33 -1q112 0 112 144q0 60 -25.5 95.5t-74.5 35.5
q-58 0 -80 -38t-22 -138v-424q43 -48 118 -48q56 0 91 41.5t35 112.5q0 81 -42.5 122t-112.5 41q-19 0 -32 -2z" />
    <glyph glyph-name="gamma" unicode="&#x3b3;" horiz-adv-x="490" 
d="M-14 392v37q49 40 107 40q20 0 35 -8t27 -26.5t18.5 -31.5t17.5 -41q31 -77 55.5 -167t31.5 -133q53 105 77 163t24 100q0 36 -25 116q16 10 49 19t48 9q9 -15 9 -59q0 -56 -30.5 -132t-76 -159.5t-54.5 -106.5q-8 -16 -8 -37q0 -9 13 -218h-113q10 46 38 215q4 23 3 31
q-9 55 -52.5 161.5t-92.5 182.5q-34 53 -61 53q-14 0 -40 -8z" />
    <glyph glyph-name="delta" unicode="&#x3b4;" horiz-adv-x="513" 
d="M464 656v-88l-8 -4q-47 46 -116.5 76.5t-144.5 30.5q-49 0 -49 -19q0 -14 32 -47q20 -19 44.5 -40t65 -53t55.5 -45q77 -62 106.5 -115.5t29.5 -119.5q0 -111 -64 -177.5t-157 -66.5q-101 0 -162.5 61.5t-61.5 164.5q0 98 63.5 158t146.5 64q-87 78 -116.5 123t-29.5 80
q0 32 34 61.5t111 29.5q71 0 136 -23.5t85 -50.5zM381 217q0 109 -79 170q-21 14 -50 13q-46 -2 -80.5 -47t-34.5 -136q0 -84 32.5 -136.5t90.5 -52.5q60 0 90.5 53.5t30.5 135.5z" />
    <glyph glyph-name="epsilon" unicode="&#x3b5;" horiz-adv-x="431" 
d="M303 425q-16 6 -40 6q-46 0 -72 -22.5t-26 -60.5q0 -39 21 -58.5t55 -19.5q36 0 85 7v-64q-40 8 -85 8q-42 0 -65.5 -21t-23.5 -60q0 -47 34.5 -72t83.5 -25q83 0 141 43v-42q-62 -56 -168 -56q-92 0 -143 39t-51 101q0 44 34.5 75.5t98.5 39.5v3q-54 6 -84.5 32.5
t-30.5 70.5q0 52 48.5 86t146.5 34q58 0 135 -17v-94h-66q-8 11 -28 67z" />
    <glyph glyph-name="zeta" unicode="&#x3b6;" horiz-adv-x="387" 
d="M92 657l24 69q19 -4 119 -6h137q31 0 44 2v-43q-42 -17 -76 -51q-196 -198 -196 -425q0 -85 29.5 -117t85.5 -32h56q95 0 95 -83q0 -60 -43.5 -112t-102.5 -77l-24 35q37 26 62.5 64t25.5 71q0 25 -12.5 36.5t-41.5 11.5h-48q-75 0 -111 20q-44 25 -58 67t-14 103
q0 115 77 243t197 228h-83q-66 0 -142 -4z" />
    <glyph glyph-name="eta" unicode="&#x3b7;" horiz-adv-x="543" 
d="M185 0h-93v377q0 34 -30 34q-19 0 -35 -7v35q36 30 82 30q74 0 74 -89v-13q23 45 63.5 73.5t90.5 28.5q128 0 128 -159v-553h-96q2 58 4 325v225q0 54 -17.5 77.5t-55.5 23.5q-49 0 -82 -47.5t-33 -145.5v-215z" />
    <glyph glyph-name="theta" unicode="&#x3b8;" horiz-adv-x="538" 
d="M487 374q0 -188 -57 -287t-163 -99q-107 0 -161.5 98t-54.5 274q0 181 61.5 276t159.5 95q106 0 160.5 -93t54.5 -264zM152 397h233q-3 167 -33.5 229.5t-84.5 62.5q-110 0 -115 -292zM386 347h-234q1 -82 9.5 -142t20 -93t28 -53t31 -25.5t31.5 -5.5q53 0 82 73t32 246z
" />
    <glyph glyph-name="iota" unicode="&#x3b9;" horiz-adv-x="261" 
d="M250 50v-37q-30 -25 -83 -25q-45 0 -67 29t-22 75v365h93v-373q0 -43 37 -43q23 0 42 9z" />
    <glyph glyph-name="kappa" unicode="&#x3ba;" horiz-adv-x="504" 
d="M511 65v-38q-46 -39 -107 -39q-36 0 -92 75q-88 119 -122 175v5q17 15 50 53q13 15 34.5 41.5t32 38.5t27 30.5t27 27t23.5 18.5t25 13.5t24 3.5q46 0 50 -25q2 -38 -9 -74q-39 14 -73 14q-22 0 -45 -18t-91 -95q117 -160 170 -204q14 -13 25 -13q20 0 51 11zM185 0h-93
v379q0 32 -30 32q-18 0 -35 -7v36q39 29 84 29q37 0 55.5 -22t18.5 -80v-367z" />
    <glyph glyph-name="lambda" unicode="&#x3bb;" horiz-adv-x="510" 
d="M120 0h-104q14 24 96.5 212.5t87.5 198.5q8 18 15 32t11 20l8 12t5 7q-9 27 -13.5 40t-17 41t-24.5 43t-31 28t-41 13q-54 0 -103 -26v42q17 25 48.5 46t70.5 21q45 0 76.5 -41.5t74.5 -167.5q3 -9 27 -79t46.5 -135t47 -132t35.5 -89q15 -34 40 -34q26 0 50 11v-34
q-28 -41 -76 -41q-33 0 -53 21.5t-39 86.5q-35 110 -85 284q-21 -58 -80 -204.5t-72 -175.5z" />
    <glyph glyph-name="uni03BC" unicode="&#x3bc;" horiz-adv-x="546" 
d="M78 457h93v-315q0 -94 76 -94q50 0 83 44t33 132v233h93v-370q0 -46 38 -46q26 0 41 9v-37q-30 -25 -82 -25q-85 0 -89 106q-35 -105 -126 -105q-58 0 -82 40q2 -131 15 -272h-93v700z" />
    <glyph glyph-name="nu" unicode="&#x3bd;" horiz-adv-x="467" 
d="M93 469q31 0 51.5 -23t42.5 -90q37 -107 72 -279q37 60 69.5 135t32.5 103q0 49 -29 122q8 8 41.5 20t54.5 12q9 -22 9 -66q0 -130 -189 -415h-43q-42 167 -82 271q-30 82 -47.5 112t-37.5 30q-19 0 -40 -6v37q43 37 95 37z" />
    <glyph glyph-name="xi" unicode="&#x3be;" horiz-adv-x="430" 
d="M292 692q-55 0 -84 -40.5t-29 -95.5q0 -65 30 -100.5t87 -35.5q11 0 80 6v-67q-41 9 -81 9q-75 0 -109.5 -46.5t-34.5 -113.5q0 -152 134 -154h50q54 0 80.5 -19.5t26.5 -62.5q0 -59 -41 -111.5t-107 -79.5l-22 36q39 27 63.5 65t24.5 74q0 44 -64 44h-25q-103 0 -156 41
q-68 51 -68 151q0 80 49 131.5t134 70.5q-71 6 -110.5 50.5t-39.5 106.5q0 87 63 133.5t149 45.5q77 0 139 -16l-9 -92q-7 -2 -33 -1t-31 4q-4 3 -27 61q-16 6 -39 6z" />
    <glyph glyph-name="omicron" unicode="&#x3bf;" horiz-adv-x="515" 
d="M264 469q97 0 157 -69t60 -168q0 -107 -61 -175.5t-164 -68.5q-102 0 -162 68t-60 175q0 98 61 168t169 70zM266 29q57 0 84 55t27 145q0 89 -30 144.5t-94 55.5q-60 0 -88 -55t-28 -139q0 -86 31.5 -146t97.5 -60z" />
    <glyph glyph-name="pi" unicode="&#x3c0;" horiz-adv-x="541" 
d="M508 50v-37q-29 -25 -84 -25q-89 0 -89 103v307h-152q0 -64 0.5 -135.5t0.5 -94.5q0 -180 -112 -180q-13 0 -21 2q-7 11 -13 38t-6 43l3 5q39 -4 65 8q23 10 23 73q0 41 -0.5 134.5t-0.5 106.5h-13q-82 0 -104 -7v46q29 20 139 20h310q52 0 79 5q-7 -32 -7 -65
q-6 0 -20.5 0.5t-29.5 0.5h-48v-310q0 -47 38 -47q24 0 42 9z" />
    <glyph glyph-name="rho" unicode="&#x3c1;" horiz-adv-x="529" 
d="M179 -243h-97v508q-2 88 47.5 146t152.5 58q58 0 101 -21.5t66 -57t33.5 -74t10.5 -79.5q0 -111 -60 -180t-153 -69q-68 0 -107 36q4 -233 6 -267zM174 278v-204q32 -37 93 -37q124 0 124 200q0 191 -112 191q-105 0 -105 -150z" />
    <glyph glyph-name="uni03C2" unicode="&#x3c2;" horiz-adv-x="423" 
d="M312 424q-13 5 -31 5q-54 0 -98 -48.5t-44 -145.5q0 -99 36 -139.5t86 -40.5h54q52 0 77 -19.5t25 -63.5q0 -55 -41 -106.5t-101 -76.5l-23 39q42 27 62.5 61t20.5 67q0 23 -14 33.5t-46 10.5h-25q-95 0 -151 54q-63 61 -63 170q0 103 71 174t187 71q45 0 113 -14v-99
h-65q-14 20 -30 68z" />
    <glyph glyph-name="sigma" unicode="&#x3c3;" horiz-adv-x="538" 
d="M548 462q-6 -37 -5 -69q-125 4 -167 9q37 -18 63 -65.5t26 -112.5q0 -102 -58 -169t-154 -67q-99 0 -158 63t-59 173q0 104 63 168.5t164 64.5h188q78 0 97 5zM255 27q53 0 82 51.5t29 148.5q0 94 -28 139q-22 43 -77 43q-121 0 -121 -190q0 -88 30 -140t85 -52z" />
    <glyph glyph-name="tau" unicode="&#x3c4;" horiz-adv-x="407" 
d="M335 52v-36q-35 -28 -94 -28q-99 0 -99 118v292h-42q-74 0 -108 -9v42q30 26 146 26h204q51 0 64 5q-6 -33 -8 -68q-100 4 -161 4v-312q0 -45 47 -45q20 0 51 11z" />
    <glyph glyph-name="upsilon" unicode="&#x3c5;" horiz-adv-x="498" 
d="M22 404v36q43 29 85 29q39 0 57.5 -23t18.5 -80v-246q0 -31 11 -44q24 -37 77 -37q59 0 85 52.5t26 159.5q0 31 -9 65q-9 42 -40 117q6 9 40 22.5t54 13.5q19 -42 19 -149q0 -63 -9.5 -118t-31 -105.5t-62.5 -79.5t-98 -29q-116 0 -150 90q-8 24 -8 58v240q0 35 -28 35
q-20 0 -37 -7z" />
    <glyph glyph-name="phi" unicode="&#x3c6;" horiz-adv-x="689" 
d="M387 339v-308q168 7 168 211q0 97 -35 142t-74 45q-30 0 -44.5 -18.5t-14.5 -71.5zM297 31v300q0 138 139 138q89 0 154 -60t65 -169t-70 -176.5t-198 -75.5q0 -185 2 -231h-97q4 88 4 231q-119 5 -190.5 69t-71.5 175q0 97 61 163t185 74v-37q-83 -12 -112.5 -62
t-29.5 -134q0 -93 43 -145t116 -60z" />
    <glyph glyph-name="chi" unicode="&#x3c7;" horiz-adv-x="456" 
d="M96 -243h-100q160 302 215 402q-26 91 -58 162q-15 32 -33 47.5t-46 15.5t-71 -24v39q14 31 39.5 50.5t54.5 19.5q44 0 69 -47t75 -216q66 129 127 251h100q-23 -40 -92 -168.5t-98 -180.5q39 -124 75 -208q19 -42 35 -56.5t38 -14.5q28 0 67 23v-36q-12 -32 -36.5 -50.5
t-48.5 -18.5q-29 0 -48.5 21.5t-44.5 86t-68 205.5q-10 -20 -67.5 -136.5t-83.5 -166.5z" />
    <glyph glyph-name="psi" unicode="&#x3c8;" horiz-adv-x="688" 
d="M22 404v36q43 29 87 29q39 0 56.5 -25t17.5 -85v-169q0 -65 35 -107t108 -51l14 437h60l6 -436q68 3 113 61.5t45 150.5q0 31 -3 55q-4 32 -10.5 60t-12.5 48l-6 21q1 8 38 24t54 16q4 -2 8.5 -37t4.5 -71q0 -166 -59 -261.5t-172 -108.5l4 -234h-92l8 232
q-111 6 -175 58.5t-64 155.5v170q0 38 -29 38q-18 0 -36 -7z" />
    <glyph glyph-name="omega" unicode="&#x3c9;" horiz-adv-x="725" 
d="M303 335q79 -3 119 0q-14 -121 -14 -209q0 -46 22 -68t56 -22q99 0 99 200q0 94 -30.5 139.5t-107.5 53.5v40q120 -1 180 -66.5t60 -172.5q0 -67 -18.5 -116.5t-49 -75.5t-62.5 -38t-65 -12q-113 0 -133 104q-31 -104 -142 -104q-73 0 -125.5 57t-52.5 166q0 118 67 187
t183 71v-40q-83 -10 -115 -58.5t-32 -147.5q0 -102 29 -143t69 -41q75 0 75 103q0 20 -5 96.5t-7 96.5z" />
    <glyph glyph-name="iotadieresis" unicode="&#x3ca;" horiz-adv-x="261" 
d="M250 50v-37q-30 -25 -83 -25q-45 0 -67 29t-22 75v365h93v-373q0 -43 37 -43q23 0 42 9zM-21 618q0 20 14 37t40 17q24 0 38.5 -16t14.5 -38q0 -24 -14.5 -40t-38.5 -16q-26 0 -40 16.5t-14 39.5zM175 618q0 20 14 37t40 17q24 0 38 -16t14 -38q0 -24 -14.5 -40
t-38.5 -16q-26 0 -39.5 16.5t-13.5 39.5z" />
    <glyph glyph-name="upsilondieresis" unicode="&#x3cb;" horiz-adv-x="498" 
d="M22 404v36q43 29 85 29q39 0 57.5 -23t18.5 -80v-246q0 -31 11 -44q24 -37 77 -37q59 0 85 52.5t26 159.5q0 31 -9 65q-9 42 -40 117q6 9 40 22.5t54 13.5q19 -42 19 -149q0 -63 -9.5 -118t-31 -105.5t-62.5 -79.5t-98 -29q-116 0 -150 90q-8 24 -8 58v240q0 35 -28 35
q-20 0 -37 -7zM97 618q0 20 14.5 37t40.5 17q24 0 38 -16t14 -38q0 -24 -14.5 -40t-38.5 -16q-26 0 -40 16.5t-14 39.5zM293 618q0 20 14 37t40 17q24 0 38 -16t14 -38q0 -24 -14.5 -40t-37.5 -16q-27 0 -40.5 16.5t-13.5 39.5z" />
    <glyph glyph-name="omicrontonos" unicode="&#x3cc;" horiz-adv-x="515" 
d="M264 469q97 0 157 -69t60 -168q0 -107 -61 -175.5t-164 -68.5q-102 0 -162 68t-60 175q0 98 61 168t169 70zM266 29q57 0 84 55t27 145q0 89 -30 144.5t-94 55.5q-60 0 -88 -55t-28 -139q0 -86 31.5 -146t97.5 -60zM259 529h-50l93 178h103l1 -12z" />
    <glyph glyph-name="upsilontonos" unicode="&#x3cd;" horiz-adv-x="498" 
d="M22 404v36q43 29 85 29q39 0 57.5 -23t18.5 -80v-246q0 -31 11 -44q24 -37 77 -37q59 0 85 52.5t26 159.5q0 31 -9 65q-9 42 -40 117q6 9 40 22.5t54 13.5q19 -42 19 -149q0 -63 -9.5 -118t-31 -105.5t-62.5 -79.5t-98 -29q-116 0 -150 90q-8 24 -8 58v240q0 35 -28 35
q-20 0 -37 -7zM254 522h-50l93 178h103l1 -13z" />
    <glyph glyph-name="omegatonos" unicode="&#x3ce;" horiz-adv-x="725" 
d="M303 335q79 -3 119 0q-14 -121 -14 -209q0 -46 22 -68t56 -22q99 0 99 200q0 94 -30.5 139.5t-107.5 53.5v40q120 -1 180 -66.5t60 -172.5q0 -67 -18.5 -116.5t-49 -75.5t-62.5 -38t-65 -12q-113 0 -133 104q-31 -104 -142 -104q-73 0 -125.5 57t-52.5 166q0 118 67 187
t183 71v-40q-83 -10 -115 -58.5t-32 -147.5q0 -102 29 -143t69 -41q75 0 75 103q0 20 -5 96.5t-7 96.5zM368 521h-50l93 178h103l1 -12z" />
    <glyph glyph-name="uni03D1" unicode="&#x3d1;" horiz-adv-x="541" 
d="M28 202v35q29 17 71 17q40 0 64.5 -24.5t42.5 -89.5q17 -64 33 -88t46 -24q100 0 108 307q-55 -20 -107 -20q-91 0 -156.5 54.5t-65.5 158.5q0 85 56.5 143.5t154.5 58.5q111 0 163 -90t52 -248q0 -75 -11 -143t-35 -128.5t-67.5 -96.5t-102.5 -36q-64 0 -101.5 31.5
t-60.5 102.5q-16 49 -28 65.5t-36 16.5q-11 0 -20 -2zM266 693q-103 0 -103 -153q0 -86 45 -131t103 -45q51 0 82 10v24q0 85 -13 149.5t-42 105t-72 40.5z" />
    <glyph glyph-name="uni03D6" unicode="&#x3d6;" horiz-adv-x="726" 
d="M304 334h118q-14 -182 -14 -204q0 -49 20.5 -71.5t54.5 -22.5q49 0 75 57t26 161q0 76 -17.5 132.5t-43.5 88t-65.5 50.5t-75 25t-79.5 6q-111 0 -188 -32l-1 49q87 41 229 41q153 0 249 -88t96 -255q0 -144 -61.5 -213.5t-142.5 -69.5q-105 0 -124 105
q-28 -105 -140 -105q-73 0 -127 55.5t-54 167.5q0 125 65 190.5t185 67.5v-41q-85 -7 -116 -59t-31 -146q0 -104 29 -144t69 -40q75 0 75 100q0 52 -11 195z" />
    <glyph glyph-name="uni03D7" unicode="&#x3d7;" horiz-adv-x="759" 
d="M301 0h-93l1 362q0 44 -38 44q-21 0 -49 -10v36q42 37 104 37q37 0 57 -27t20 -92l-1 -150q61 127 129.5 198t129.5 71q37 0 54 -14l-1 -89q-34 15 -84 15q-16 0 -25 -1t-25 -6t-29 -16t-32 -32.5t-39 -52.5q25 -39 100 -107t136 -92q45 23 74 23q33 0 33 -33
q0 -32 -26 -55t-73 -23q-8 0 -32 3q-116 -90 -163 -118q-106 -64 -197 -64q-83 0 -133.5 47.5t-50.5 136.5q0 37 8 66l35 1q2 -83 43 -127t122 -44q67 0 128.5 26t159.5 96q-42 25 -100 84.5t-97 119.5q-44 -70 -45 -145z" />
    <glyph glyph-name="uni03F0" unicode="&#x3f0;" horiz-adv-x="507" 
d="M106 469q76 0 74 -130q0 -46 -11 -132q9 8 78 68.5t96 91.5q7 8 17.5 25.5t23.5 41.5t19 35q23 0 48 -15.5t25 -39.5q0 -8 -3 -17t-9.5 -19t-12 -17.5t-17 -19t-16.5 -17t-18.5 -17.5t-16.5 -15q-16 -45 -16 -126q0 -45 16.5 -71.5t48.5 -26.5q37 0 72 24v-37
q-13 -28 -39.5 -47.5t-57.5 -19.5q-89 0 -89 131q0 24 2.5 47t7.5 48.5t6 37.5q-22 -24 -84 -77t-87 -84q-21 -27 -58 -103q-27 -1 -51.5 15.5t-24.5 38.5t19 48.5t73 76.5q13 29 13 131q0 89 -61 89q-32 0 -61 -17v39q39 60 94 60z" />
    <glyph glyph-name="uni0400" unicode="&#x400;" 
d="M533 658v-129h-56q-8 10 -39 84h-220v-251h171q8 42 23 88h41v-225h-41q-15 46 -23 91h-171v-271h251q42 78 59 95h57l-32 -140h-522v41q9 1 28 3.5t34 4t24 2.5v556q-46 3 -86 10v41h502zM264 839l107 -127h-65l-161 101v26h119z" />
    <glyph glyph-name="uni0401" unicode="&#x401;" 
d="M533 658v-129h-56q-8 10 -39 84h-220v-251h171q8 42 23 88h41v-225h-41q-15 46 -23 91h-171v-271h251q42 78 59 95h57l-32 -140h-522v41q9 1 28 3.5t34 4t24 2.5v556q-46 3 -86 10v41h502zM197 828q21 0 33.5 -15.5t12.5 -35.5q0 -25 -14.5 -38t-33.5 -13q-17 0 -32 13.5
t-15 35.5q0 21 13.5 37t35.5 16zM411 827q21 0 35 -15.5t14 -34.5q0 -20 -14.5 -35.5t-35.5 -15.5q-19 0 -33.5 14.5t-14.5 35.5q0 24 15.5 37.5t33.5 13.5z" />
    <glyph glyph-name="uni0402" unicode="&#x402;" horiz-adv-x="729" 
d="M522 613h-183v-241q77 8 117 8q108 0 170 -52t62 -140q0 -50 -19 -90.5t-49 -63.5t-62.5 -34.5t-63.5 -11.5q-44 0 -84 7l-4 95h47q10 -10 34 -58q4 -2 16 -2q29 0 54 33.5t25 110.5q0 79 -43 122t-128 43q-29 0 -72 -5v-242q0 -55 4 -92h-210v41q71 7 105 9v563h-117
q-34 -86 -43 -93h-51v138h589v-138h-50q-7 7 -44 93z" />
    <glyph glyph-name="uni0403" unicode="&#x403;" horiz-adv-x="564" 
d="M534 658v-139h-55q-9 9 -42 94h-216v-564q60 -3 102 -8v-41h-289v41q26 3 86 9v558q-55 3 -86 9v41h500zM234 716l110 128h117v-27l-160 -101h-67z" />
    <glyph glyph-name="uni0404" unicode="&#x404;" horiz-adv-x="634" 
d="M532 113h65l-46 -111q-89 -12 -155 -12q-145 0 -245 88.5t-100 255.5q0 151 96 242.5t261 91.5q46 0 109 -5t70 -5v-129h-56q-8 11 -37 82q-20 13 -95 13q-43 0 -81.5 -13.5t-73 -42t-56.5 -79.5t-25 -120h11q50 0 164 4t144 8q-5 -27 -3 -72q-31 4 -144 8t-163 4h-9
q1 -78 24.5 -136t62 -89t79.5 -45t85 -14q47 0 67 9q43 60 51 67z" />
    <glyph glyph-name="uni0405" unicode="&#x405;" horiz-adv-x="523" 
d="M59 18l-10 124h57q5 -5 50 -97q27 -15 77 -15q63 0 103 33t40 84q0 49 -30 80.5t-120 69.5q-91 38 -128 86t-37 112q0 74 57 123.5t171 49.5q39 0 90 -5t64 -5v-129h-54q-7 9 -42 88q-27 11 -62 11q-71 0 -101.5 -31t-30.5 -75q0 -42 27 -74t101 -62q108 -43 152 -90.5
t44 -115.5q0 -89 -71 -140.5t-176 -51.5q-23 0 -44 1.5t-41.5 6t-30.5 7t-31 8.5t-24 7z" />
    <glyph glyph-name="uni0406" unicode="&#x406;" horiz-adv-x="334" 
d="M303 0h-273v41q49 7 85 9v557q-35 2 -85 10v41h273v-41q-25 -4 -86 -10v-557q69 -7 86 -9v-41z" />
    <glyph glyph-name="uni0407" unicode="&#x407;" horiz-adv-x="334" 
d="M303 0h-273v41q49 7 85 9v557q-35 2 -85 10v41h273v-41q-25 -4 -86 -10v-557q69 -7 86 -9v-41zM60 819q21 0 33.5 -15.5t12.5 -36.5q0 -25 -14 -37.5t-34 -12.5q-17 0 -32 13.5t-15 35.5q0 21 13.5 37t35.5 16zM275 818q21 0 34.5 -15.5t13.5 -35.5q0 -19 -14.5 -34.5
t-34.5 -15.5t-34.5 14t-14.5 35q0 24 15.5 38t34.5 14z" />
    <glyph glyph-name="uni0408" unicode="&#x408;" horiz-adv-x="334" 
d="M33 658h272v-40q-23 -5 -77 -10v-482q0 -79 -27 -139q-26 -57 -73 -108.5t-96 -82.5l-25 34q75 63 97.5 123.5t22.5 152.5v502q-55 4 -94 10v40z" />
    <glyph glyph-name="uni0409" unicode="&#x409;" horiz-adv-x="911" 
d="M325 0v41q43 5 94 9v563h-140q-27 -424 -136 -567q-42 -56 -100 -56q-38 0 -58 20q1 21 16 53t27 43q33 -25 62 -25q16 0 33 21q43 61 73 216t30 288q-23 0 -100 11v41h479v-41q-27 -5 -85 -10v-224h86q106 0 154 -19q109 -42 109 -158q0 -100 -72.5 -153t-211.5 -53
h-260zM520 339v-295h77q76 0 117.5 41t41.5 112q0 73 -37.5 107.5t-122.5 34.5h-76z" />
    <glyph glyph-name="uni040A" unicode="&#x40a;" horiz-adv-x="1005" 
d="M606 330v-286h88q74 0 115.5 40t41.5 109q0 68 -36 102.5t-121 34.5h-88zM286 0h-252v41q44 7 86 9v557q-71 7 -86 10v41h252v-41q-44 -8 -65 -9v-231h284v231q-5 1 -13.5 2t-23 3t-28.5 4v41h254v-41q-47 -7 -88 -9v-231h99q115 0 170 -26q89 -44 89 -146
q0 -96 -71 -150.5t-206 -54.5h-252v41q19 3 70 9v280h-284v-280q28 -3 65 -10v-40z" />
    <glyph glyph-name="uni040B" unicode="&#x40b;" horiz-adv-x="751" 
d="M522 613h-182v-252q70 19 142 19q105 0 149 -51q38 -41 38 -122v-156q47 -5 72 -10v-41h-242v41q31 6 69 10v155q0 127 -128 127q-61 0 -100 -8v-274q43 -4 86 -11v-40h-277v41q5 1 39 5t51 5v562h-118q-35 -87 -43 -93h-51v138h589v-138h-50q-7 7 -44 93z" />
    <glyph glyph-name="uni040C" unicode="&#x40c;" horiz-adv-x="646" 
d="M306 0h-272v41q14 2 86 9v557q-48 3 -86 10v41h272v-41q-38 -6 -86 -10v-240h65q34 0 55.5 15.5t41.5 56.5q10 18 27 58t23 54q30 63 60.5 88t80.5 25q25 0 45 -10q5 -48 -26 -95q-57 20 -74 20q-24 0 -40 -38q-37 -91 -59 -130t-47 -56q71 -24 118 -116
q6 -11 20.5 -43.5t28.5 -61.5t26 -47q14 -22 32.5 -32t62.5 -14v-41h-79q-58 0 -84 16.5t-48 63.5q-16 33 -39 92t-34 85q-29 66 -99 66h-57v-274q39 -2 86 -8v-41zM278 712l111 127h117v-26l-160 -101h-68z" />
    <glyph glyph-name="uni040D" unicode="&#x40d;" horiz-adv-x="762" 
d="M286 0h-252v41q44 7 86 9v557q-71 7 -86 10v41h252v-41q-35 -6 -65 -9v-447l320 408v39q-5 1 -13.5 2t-23 3t-28.5 4v41h253v-41q-49 -8 -87 -9v-558q21 -1 87 -9v-41h-258v41q19 3 70 9v451l-320 -410v-41q28 -3 65 -10v-40zM332 840l107 -128h-66l-160 101v27h119z" />
    <glyph glyph-name="uni040E" unicode="&#x40e;" horiz-adv-x="587" 
d="M-16 618v40h258v-40q-33 -8 -78 -11q14 -29 89.5 -179t85.5 -166q86 178 151 345q-54 4 -92 11v40h212v-40q-45 -9 -65 -11q-2 -4 -75.5 -165.5t-103.5 -219.5q-69 -136 -115 -184.5t-97 -48.5q-44 0 -76 28q4 21 20.5 52t30.5 41q57 -41 79 -41q11 0 30 23.5t36 57.5
q8 12 0 26q-125 256 -227 431q-11 1 -31.5 5t-31.5 6zM311 708q-75 0 -122.5 29t-47.5 71q0 23 14.5 38.5t39.5 15.5q24 0 35.5 -13.5t11.5 -32.5q0 -10 -6 -23.5t-6 -18.5t8.5 -10.5t28.5 -10.5t45 -5q37 -1 60.5 6.5t23.5 17.5q0 5 -6.5 20t-6.5 24q0 19 13.5 32.5
t36.5 13.5q26 0 38 -15t12 -36q0 -39 -48 -71t-124 -32z" />
    <glyph glyph-name="uni040F" unicode="&#x40f;" horiz-adv-x="755" 
d="M34 0v41q48 8 86 9v559q-23 1 -86 8v41h257v-41q-35 -6 -70 -8v-564h312v563q-26 3 -64 10v40h252v-41q-44 -7 -86 -9v-558q5 -1 21 -2t32.5 -2.5t32.5 -4.5v-41h-292q-7 -18 -34 -167h-40q-2 13 -10 58t-14 71t-11 38h-286z" />
    <glyph glyph-name="uni0410" unicode="&#x410;" horiz-adv-x="625" 
d="M192 297h191l-95 276zM205 0h-231v41q38 6 76 9q12 29 52 138t89 242t65 176q8 23 6 52h95q15 -46 105.5 -298.5t113.5 -310.5q30 -2 75 -8v-41h-268v41q50 7 84 8l-71 203h-218l-70 -202q46 -3 97 -10v-40z" />
    <glyph glyph-name="uni0411" unicode="&#x411;" horiz-adv-x="626" 
d="M305 332h-84v-288h92q76 0 117 39t41 110q0 70 -39.5 104.5t-126.5 34.5zM427 613h-206v-237h105q108 0 158 -22q100 -46 100 -151q0 -96 -74 -149.5t-209 -53.5h-267v41q39 5 86 9v558q-55 3 -86 9v41h487v-130h-55q-7 8 -39 85z" />
    <glyph glyph-name="uni0412" unicode="&#x412;" horiz-adv-x="616" 
d="M218 45h79q76 0 120.5 40t44.5 107q0 66 -42.5 103t-126.5 37h-75v-287zM218 613v-235h100q34 0 59 -3q51 36 51 120q0 118 -140 118h-70zM31 658h265q85 0 132 -16q103 -36 103 -135q0 -49 -31.5 -87.5t-69.5 -54.5q4 -1 11.5 -4t11.5 -4q56 -22 89 -62t33 -92
q0 -94 -75 -148.5t-212 -54.5h-257v41q53 7 86 9v557q-5 1 -23 2.5t-35 3.5t-28 4v41z" />
    <glyph glyph-name="uni0413" unicode="&#x413;" horiz-adv-x="564" 
d="M534 658v-139h-55q-9 9 -42 94h-216v-564q60 -3 102 -8v-41h-289v41q26 3 86 9v558q-55 3 -86 9v41h500z" />
    <glyph glyph-name="uni0414" unicode="&#x414;" horiz-adv-x="652" 
d="M148 658h467v-41q-9 -2 -25 -3.5t-34.5 -2.5t-24.5 -2v-564h90v-198h-44q-8 30 -25.5 84.5t-27.5 68.5h-420q-23 -40 -51 -151h-44v196h47q63 87 122.5 264.5t63.5 299.5q-45 2 -94 9v40zM429 45v570h-134q-14 -153 -65.5 -310t-114.5 -260h314z" />
    <glyph glyph-name="uni0415" unicode="&#x415;" 
d="M533 658v-129h-56q-8 10 -39 84h-220v-251h171q8 42 23 88h41v-225h-41q-15 46 -23 91h-171v-271h251q42 78 59 95h57l-32 -140h-522v41q9 1 28 3.5t34 4t24 2.5v556q-46 3 -86 10v41h502z" />
    <glyph glyph-name="uni0416" unicode="&#x416;" horiz-adv-x="927" 
d="M598 0h-269v41q14 2 86 9v273h-49q-36 0 -59.5 -12.5t-39.5 -46.5q-13 -27 -39.5 -92.5t-43.5 -102.5q-19 -44 -42 -56.5t-78 -12.5h-78v41q52 8 69 17.5t33 36.5q14 23 38.5 78t26.5 59q16 32 32.5 54.5t34 35.5t27.5 18t26 12q-25 16 -46 56.5t-56 133.5q-15 37 -37 37
q-25 0 -76 -18q-12 18 -20 45t-6 49q18 9 61 9q50 0 75 -23.5t52 -91.5q24 -64 49 -123t89 -59h57v240q-48 3 -86 10v41h269v-41q-36 -6 -86 -10v-240h57q65 0 94 69q16 37 44 110q25 66 57.5 92t84.5 26q27 0 45 -10q5 -48 -26 -95q-53 20 -75 20q-24 0 -38 -37
q-29 -89 -52 -129.5t-51 -58.5q20 -7 30 -11t28.5 -16t33 -31.5t27.5 -48.5q6 -14 22 -52t27 -61t21 -39q16 -28 33.5 -37.5t66.5 -16.5v-41h-81q-56 0 -82 15t-44 56q-19 43 -42 106t-34 88q-15 35 -37.5 46.5t-60.5 11.5h-48v-274q39 -2 86 -8v-41z" />
    <glyph glyph-name="uni0417" unicode="&#x417;" horiz-adv-x="546" 
d="M157 613q-40 -91 -42 -94h-55v116q135 33 195 33q107 0 162.5 -44t55.5 -117q0 -59 -39.5 -98t-104.5 -55q82 -14 129 -56t47 -104q0 -70 -41.5 -118t-99.5 -67t-127 -19q-85 0 -177 30l-13 117h59q5 -4 24 -36t32 -57q24 -13 70 -13q72 0 116 42t44 109q0 69 -42 106
t-109 37q-38 0 -63 -5v53q56 -4 63 -4q56 0 90.5 34t34.5 92q0 57 -35.5 93.5t-107.5 36.5q-39 0 -66 -12z" />
    <glyph glyph-name="uni0418" unicode="&#x418;" horiz-adv-x="762" 
d="M286 0h-252v41q44 7 86 9v557q-71 7 -86 10v41h252v-41q-35 -6 -65 -9v-447l320 408v39q-5 1 -13.5 2t-23 3t-28.5 4v41h253v-41q-49 -8 -87 -9v-558q21 -1 87 -9v-41h-258v41q19 3 70 9v451l-320 -410v-41q28 -3 65 -10v-40z" />
    <glyph glyph-name="uni0419" unicode="&#x419;" horiz-adv-x="762" 
d="M286 0h-252v41q44 7 86 9v557q-71 7 -86 10v41h252v-41q-35 -6 -65 -9v-447l320 408v39q-5 1 -13.5 2t-23 3t-28.5 4v41h253v-41q-49 -8 -87 -9v-558q21 -1 87 -9v-41h-258v41q19 3 70 9v451l-320 -410v-41q28 -3 65 -10v-40zM378 705q-75 0 -122.5 29t-47.5 71
q0 23 14.5 38.5t39.5 15.5q24 0 35.5 -13.5t11.5 -32.5q0 -10 -6 -23.5t-6 -18.5t8.5 -10.5t28.5 -10.5t45 -5q36 -1 60 6.5t24 17.5q0 5 -6.5 20t-6.5 24q0 19 13.5 32.5t36.5 13.5q25 0 37.5 -15t12.5 -36q0 -39 -48 -71t-124 -32z" />
    <glyph glyph-name="uni041A" unicode="&#x41a;" horiz-adv-x="646" 
d="M306 0h-272v41q14 2 86 9v557q-48 3 -86 10v41h272v-41q-38 -6 -86 -10v-240h65q34 0 55.5 15.5t41.5 56.5q10 18 27 58t23 54q30 63 60.5 88t80.5 25q25 0 45 -10q5 -48 -26 -95q-57 20 -74 20q-24 0 -40 -38q-37 -91 -59 -130t-47 -56q71 -24 118 -116
q6 -11 20.5 -43.5t28.5 -61.5t26 -47q14 -22 32.5 -32t62.5 -14v-41h-79q-58 0 -84 16.5t-48 63.5q-16 33 -39 92t-34 85q-29 66 -99 66h-57v-274q39 -2 86 -8v-41z" />
    <glyph glyph-name="uni041B" unicode="&#x41b;" horiz-adv-x="658" 
d="M624 0h-272v41q50 7 84 9v563h-138q-25 -404 -158 -568q-46 -55 -98 -55q-39 0 -57 20q1 21 16 53t27 43q33 -25 62 -25q16 0 33 22q47 65 83 212t38 291q-24 0 -101 11v41h481v-41q-23 -4 -86 -10v-557q77 -8 86 -9v-41z" />
    <glyph glyph-name="uni041C" unicode="&#x41c;" horiz-adv-x="896" 
d="M282 0h-245v41q66 9 79 10l9 556q-8 1 -38.5 4t-47.5 6v41h187q186 -425 226 -507q9 21 112.5 249.5t116.5 257.5h181v-41q-14 -3 -86 -10v-557q64 -6 84 -9v-41h-277v41q37 6 92 9q1 76 3.5 253t4.5 256q-17 -39 -121.5 -278t-122.5 -281h-38q-13 31 -68 164t-104.5 253
t-60.5 149l4 -515q28 -2 110 -10v-41z" />
    <glyph glyph-name="uni041D" unicode="&#x41d;" horiz-adv-x="755" 
d="M294 0h-260v41q44 7 86 9v557q-71 7 -86 10v41h260v-41q-43 -7 -73 -9v-236h312v236q-5 1 -29 3.5t-43 5.5v41h260v-41q-47 -8 -86 -9v-558q23 -2 86 -9v-41h-265v41q6 1 77 9v275h-312v-275q51 -6 73 -10v-40z" />
    <glyph glyph-name="uni041E" unicode="&#x41e;" horiz-adv-x="747" 
d="M378 -12q-150 0 -238.5 97t-88.5 244q0 145 88.5 242t238.5 97q142 0 230.5 -94.5t88.5 -242.5q0 -145 -88.5 -244t-230.5 -99zM384 31q91 0 145.5 75.5t54.5 214.5q0 148 -62 226.5t-156 78.5q-90 0 -146 -73t-56 -212q0 -136 59.5 -223t160.5 -87z" />
    <glyph glyph-name="uni041F" unicode="&#x41f;" horiz-adv-x="755" 
d="M34 658h687v-41q-47 -8 -86 -9v-558q23 -2 86 -9v-41h-257v41q21 4 69 9v563h-312v-563q28 -3 65 -10v-40h-252v41q44 7 86 9v557q-71 7 -86 10v41z" />
    <glyph glyph-name="uni0420" unicode="&#x420;" horiz-adv-x="594" 
d="M319 0h-288v41q63 8 86 9v557q-67 7 -86 10v41h257q112 0 164 -25q101 -47 101 -161q0 -71 -41 -120.5t-101.5 -70.5t-133.5 -22h-59v-209q30 -1 101 -9v-41zM218 305h58q73 0 121.5 38.5t48.5 120.5q0 149 -158 149h-70v-308z" />
    <glyph glyph-name="uni0421" unicode="&#x421;" horiz-adv-x="650" 
d="M565 0q-82 -12 -150 -12q-157 0 -260.5 90.5t-103.5 254.5q0 149 99.5 242t272.5 93q46 0 112 -5t69 -5v-129h-56q-7 9 -38 83q-22 12 -100 12q-47 0 -89 -14.5t-78.5 -45.5t-57.5 -87t-21 -132q0 -82 24 -144t64.5 -96.5t85.5 -51t94 -16.5q38 0 62 7q45 61 55 69h65
q-30 -80 -49 -113z" />
    <glyph glyph-name="uni0422" unicode="&#x422;" horiz-adv-x="633" 
d="M27 520v138h576v-138h-51q-6 6 -44 93h-153v-563q35 -2 99 -10v-40h-298v41q86 8 98 9v563h-134q-35 -87 -42 -93h-51z" />
    <glyph glyph-name="uni0423" unicode="&#x423;" horiz-adv-x="587" 
d="M-16 618v40h258v-40q-33 -8 -78 -11q14 -29 89.5 -179t85.5 -166q86 178 151 345q-54 4 -92 11v40h212v-40q-45 -9 -65 -11q-2 -4 -75.5 -165.5t-103.5 -219.5q-69 -136 -115 -184.5t-97 -48.5q-44 0 -76 28q4 21 20.5 52t30.5 41q57 -41 79 -41q11 0 30 23.5t36 57.5
q8 12 0 26q-125 256 -227 431q-11 1 -31.5 5t-31.5 6z" />
    <glyph glyph-name="uni0424" unicode="&#x424;" horiz-adv-x="734" 
d="M414 528v-390q170 13 170 195q0 95 -42.5 140.5t-127.5 54.5zM320 138v392q-170 -9 -170 -186q0 -188 170 -206zM490 -12h-244v41q52 7 75 10v58q-137 6 -205.5 70.5t-68.5 167.5q0 102 69.5 164t203.5 69v49q-1 0 -68 10v41h238v-41q-54 -9 -76 -8v-52
q129 -7 200.5 -63.5t71.5 -160.5q0 -110 -69.5 -173t-202.5 -73v-58q43 -4 76 -10v-41z" />
    <glyph glyph-name="uni0425" unicode="&#x425;" horiz-adv-x="586" 
d="M197 0h-225v41q44 6 77 8q110 147 194 276q-25 44 -168 283q-25 1 -81 9v41h258v-41q-15 -2 -37.5 -4.5t-26.5 -2.5q2 -5 125 -215q20 28 69.5 104t68.5 109q-56 4 -86 9v41h225v-41q-77 -9 -79 -9q-23 -31 -89.5 -129.5t-83.5 -122.5q67 -121 183 -306q13 -1 41.5 -5
t41.5 -5v-40h-275v41q8 1 34.5 3.5t40.5 3.5q-16 31 -74 128.5t-64 107.5q-21 -30 -155 -235q68 -5 86 -9v-40z" />
    <glyph glyph-name="uni0426" unicode="&#x426;" horiz-adv-x="762" 
d="M730 -153h-43q-8 31 -27 85t-31 68h-595v41q48 8 86 9v559q-23 1 -86 8v41h252v-41q-37 -6 -65 -8v-564h312v563q-26 3 -64 10v40h252v-41q-44 -7 -86 -9v-563h95v-198z" />
    <glyph glyph-name="uni0427" unicode="&#x427;" horiz-adv-x="646" 
d="M613 0h-277v41q14 2 51 5.5t38 3.5v277q-66 -24 -145 -24q-124 0 -172 64q-32 41 -32 108v132q-24 3 -70 10v41h243v-41q-45 -8 -71 -9v-122q0 -132 143 -132q64 0 104 12v242q-5 1 -13 2t-23 3t-29 4v41h253v-41q-49 -8 -87 -9v-558q21 -1 87 -9v-41z" />
    <glyph glyph-name="uni0428" unicode="&#x428;" horiz-adv-x="1023" 
d="M989 0h-956v41q48 8 85 9v559q-24 1 -85 8v41h255v-41q-35 -6 -70 -8v-564h239v562q-15 1 -76 10v41h261v-41q-31 -5 -84 -10v-562h238v563q-25 3 -64 10v40h249v-41q-44 -7 -84 -9v-558q35 -3 92 -9v-41z" />
    <glyph glyph-name="uni0429" unicode="&#x429;" horiz-adv-x="1025" 
d="M994 -153h-44q-5 24 -24 81.5t-29 71.5h-863v41q48 8 85 9v559q-21 1 -85 8v41h255v-41q-35 -6 -69 -8v-564h239v562q-17 1 -77 10v41h261v-41q-27 -5 -83 -10v-562h238v563q-26 3 -65 10v40h250v-41q-47 -7 -84 -9v-563h95v-198z" />
    <glyph glyph-name="uni042A" unicode="&#x42a;" horiz-adv-x="738" 
d="M411 339h-63v-295h79q76 0 116.5 39.5t40.5 110.5q0 74 -42.5 109.5t-130.5 35.5zM27 658h406v-41q-24 -4 -85 -10v-224h84q106 0 162 -23q102 -43 102 -154q0 -96 -73.5 -151t-207.5 -55h-255v41q42 6 87 9v563h-125q-39 -93 -40 -94h-55v139z" />
    <glyph glyph-name="uni042B" unicode="&#x42b;" horiz-adv-x="893" 
d="M859 0h-258v41q19 3 70 9v558q-5 1 -13.5 2t-23 3t-28.5 4v41h253v-41q-50 -8 -87 -9v-558q21 -1 87 -9v-41zM286 339h-65v-295h81q76 0 116.5 40t40.5 111q0 74 -42.5 109t-130.5 35zM34 0v41q39 5 86 9v556q-65 8 -86 11v41h272v-41q-27 -5 -85 -10v-224h89
q105 0 159 -23q103 -46 103 -153q0 -97 -73.5 -152t-208.5 -55h-256z" />
    <glyph glyph-name="uni042C" unicode="&#x42c;" horiz-adv-x="629" 
d="M301 339h-80v-295h93q76 0 118 40t42 110q0 74 -42 109.5t-131 35.5zM34 0v41q39 5 86 9v556q-65 8 -86 11v41h272v-41q-27 -5 -85 -10v-224h95q109 0 164 -21q107 -44 107 -157q0 -97 -73.5 -151t-208.5 -54h-271z" />
    <glyph glyph-name="uni042D" unicode="&#x42d;" horiz-adv-x="636" 
d="M68 9h-3l-15 128h59q14 -10 56 -94q20 -10 77 -10q44 0 83.5 15.5t73 47.5t54 88t22.5 129q-272 -4 -330 -13q4 45 0 72q33 -4 154 -9t176 -4q-4 136 -69.5 200t-173.5 64q-53 0 -82 -12q-34 -84 -40 -92h-54v127v1q2 0 53 7t87 10.5t70 3.5q141 0 230 -86t89 -240
q0 -157 -94.5 -254.5t-261.5 -97.5q-44 0 -161 19z" />
    <glyph glyph-name="uni042E" unicode="&#x42e;" horiz-adv-x="1003" 
d="M34 617v41h252v-41q-48 -8 -66 -9v-237h135q10 131 91 214t209 83q130 0 213.5 -93t83.5 -246q0 -150 -83.5 -245.5t-218.5 -95.5q-134 0 -214.5 97.5t-82.5 238.5h-133v-274q31 -4 66 -10v-40h-252v41q44 7 86 9v557q-71 7 -86 10zM661 31q84 0 130 74.5t46 215.5
q0 148 -53 226t-139 78q-82 0 -132 -74t-50 -212q0 -140 52 -224t146 -84z" />
    <glyph glyph-name="uni042F" unicode="&#x42f;" horiz-adv-x="641" 
d="M419 347v268h-85q-71 0 -108.5 -34t-37.5 -98q0 -65 43 -100.5t108 -35.5h80zM607 0h-272v39q57 8 84 10v253h-61q-32 0 -53.5 -15.5t-42.5 -48.5q-12 -19 -41 -80.5t-47 -93.5q-21 -40 -45 -52t-83 -12h-74v43q44 4 60 7q20 5 33 24q11 14 41.5 69t38.5 68
q26 44 50.5 67.5t56.5 36.5q-76 10 -122 54t-46 116q0 53 28 92t74 59q48 22 138 22h283v-41q-18 -2 -48.5 -5t-38.5 -5v-557q75 -8 87 -10v-40z" />
    <glyph glyph-name="uni0430" unicode="&#x430;" horiz-adv-x="481" 
d="M301 221h-17q-78 0 -114.5 -22t-36.5 -69q0 -38 23 -59.5t61 -21.5q47 0 85 24q-1 3 -1 11v137zM393 333v-264q0 -8 9 -16t27 -8q13 0 24 2v-40q-31 -14 -68 -14q-56 0 -75 47q-88 -52 -142 -52q-48 0 -88 36.5t-40 93.5q0 142 246 142h15v70q0 95 -100 95q-22 0 -34 -4
q-17 -64 -23 -74h-72v85q113 37 173 37q72 0 110 -38t38 -98z" />
    <glyph glyph-name="uni0431" unicode="&#x431;" horiz-adv-x="527" 
d="M475 742l26 -11q-14 -50 -38.5 -80.5t-54.5 -36.5q-26 -5 -91.5 -10t-77.5 -6q-57 -6 -97.5 -74t-45.5 -172q26 46 73 75.5t114 29.5q97 0 153 -60t56 -164q0 -113 -66 -179t-159 -66q-220 0 -220 301q0 222 99 333q50 58 149 69l123 15q22 4 32.5 11t24.5 25zM387 226
q0 189 -115 189q-61 0 -91 -47.5t-30 -127.5q0 -211 121 -211q56 0 85.5 51.5t29.5 145.5z" />
    <glyph glyph-name="uni0432" unicode="&#x432;" horiz-adv-x="507" 
d="M29 416v41h229q89 0 129 -17q60 -27 60 -88q0 -42 -27 -68t-73 -33q55 -8 89.5 -35.5t34.5 -76.5q0 -62 -54.5 -100.5t-156.5 -38.5h-231v41q24 3 65 8v359q-16 1 -65 8zM186 224v-184h71q48 0 80.5 22t32.5 72t-30 70t-90 20h-64zM186 416v-151h65q98 0 98 78
q0 73 -102 73h-61z" />
    <glyph glyph-name="uni0433" unicode="&#x433;" horiz-adv-x="438" 
d="M323 413h-137v-364q26 -1 80 -10v-39h-237v41q26 4 65 8v358q-3 0 -29.5 3.5t-35.5 5.5v41h379v-121h-57q-17 30 -28 77z" />
    <glyph glyph-name="uni0434" unicode="&#x434;" horiz-adv-x="517" 
d="M87 457h396v-41q-13 -3 -67 -9v-364h80v-176h-44q-26 110 -45 133h-312q-6 -11 -22.5 -58.5t-22.5 -72.5h-44v174h45q52 65 81.5 166t30.5 198q-13 1 -40 4.5t-36 4.5v41zM323 43v370h-109q-15 -235 -106 -370h215z" />
    <glyph glyph-name="uni0435" unicode="&#x435;" horiz-adv-x="467" 
d="M412 83v-42q-67 -53 -161 -53q-99 0 -158.5 67t-58.5 170q1 99 60.5 171.5t159.5 72.5q93 0 136.5 -55.5t43.5 -127.5q0 -22 -2 -33q-24 -6 -160 -6h-139q-1 -98 42.5 -149t112.5 -51q68 0 124 36zM136 289h124q67 0 77 1v16q0 48 -20 85.5t-71 37.5q-46 0 -74.5 -36.5
t-35.5 -103.5z" />
    <glyph glyph-name="uni0436" unicode="&#x436;" horiz-adv-x="730" 
d="M477 0h-223v41q12 2 36 4.5t29 3.5v169h-43q-42 0 -61 -43q-38 -92 -47 -110q-18 -38 -40.5 -51.5t-63.5 -13.5h-66v41q37 4 51.5 11.5t25.5 26.5q8 13 21 39.5t16 31.5q37 74 89 95q-28 21 -64 108q-10 26 -29 26q-8 0 -59 -17q-9 16 -15.5 46t-5.5 48q17 7 39 7
q36 0 60 -16t42 -58q26 -63 38 -86q12 -25 26 -34t41 -9h45v148q-17 1 -65 8v41h223v-41q-34 -6 -66 -8v-148h45q28 0 42.5 8t26.5 31q13 28 37 84q21 44 44 62t57 18q22 0 40 -7q1 -18 -6 -48t-16 -46q-3 1 -15.5 6t-23.5 8t-19 3q-12 0 -17.5 -5t-12.5 -21
q-36 -86 -62 -110q64 -26 96 -96q19 -40 33 -68q10 -20 22.5 -27t49.5 -11v-41h-65q-44 0 -69 13t-41 52q-35 88 -47 114q-11 24 -24 31.5t-37 7.5h-38v-169q31 -2 66 -8v-41z" />
    <glyph glyph-name="uni0437" unicode="&#x437;" horiz-adv-x="435" 
d="M48 350v94q114 25 158 25q84 0 127.5 -31.5t43.5 -86.5q0 -44 -30 -70t-77 -34v-3q127 -14 127 -110q0 -73 -62 -109.5t-141 -36.5q-51 0 -146 22l-11 100h61q5 -4 36 -73q16 -10 52 -10q42 0 73 25t31 78q0 87 -96 87q-19 0 -57 -4v56q38 -4 58 -4q82 0 82 75
q0 42 -23.5 66t-70.5 24q-32 0 -44 -7q-16 -51 -29 -73h-62z" />
    <glyph glyph-name="uni0438" unicode="&#x438;" horiz-adv-x="571" 
d="M250 0h-221v41q13 2 39 5l26 3v359q-16 1 -65 8v41h221v-41q-37 -6 -64 -8v-262l199 231v31q-28 2 -64 8v41h221v-41q-49 -7 -65 -8v-359l26 -3q26 -3 39 -5v-41h-221v41q37 6 64 8v266l-199 -231v-35q27 -2 64 -8v-41z" />
    <glyph glyph-name="uni0439" unicode="&#x439;" horiz-adv-x="571" 
d="M250 0h-221v41q13 2 39 5l26 3v359q-16 1 -65 8v41h221v-41q-37 -6 -64 -8v-262l199 231v31q-28 2 -64 8v41h221v-41q-49 -7 -65 -8v-359l26 -3q26 -3 39 -5v-41h-221v41q37 6 64 8v266l-199 -231v-35q27 -2 64 -8v-41zM286 533q-71 0 -116 29t-45 71q0 23 14 38.5
t38 15.5q23 0 34.5 -13.5t11.5 -32.5q0 -10 -5.5 -23.5t-5.5 -18.5t7.5 -10.5t25.5 -10.5t42 -5q33 -1 54.5 6.5t21.5 17.5q0 5 -6 20t-6 24q0 18 13.5 32t35.5 14q24 0 36 -15t12 -37q0 -39 -45 -70.5t-117 -31.5z" />
    <glyph glyph-name="uni043A" unicode="&#x43a;" horiz-adv-x="508" 
d="M252 0h-223v41q13 2 39 5l26 3v359q-16 1 -65 8v41h223v-41q-36 -6 -66 -8v-148h47q29 0 43.5 8.5t26.5 32.5q15 34 34 77q38 85 104 85q23 0 40 -7q1 -18 -6 -48t-16 -46q-2 1 -15 6t-23.5 8t-18.5 3q-12 0 -18 -5.5t-14 -22.5q-35 -88 -61 -107q66 -24 97 -99
q9 -22 31 -69q10 -17 22.5 -23.5t49.5 -11.5v-41h-68q-45 0 -69.5 13t-39.5 52q-7 18 -17.5 48.5t-20.5 57.5q-10 26 -24.5 36.5t-37.5 10.5h-46v-169q30 -2 66 -8v-41z" />
    <glyph glyph-name="uni043B" unicode="&#x43b;" horiz-adv-x="523" 
d="M492 0h-224v40q14 3 37.5 6.5t28.5 4.5v362h-110q-17 -263 -90 -374q-34 -51 -82 -51q-33 0 -53 13q2 21 13 55t24 47q41 -24 59 -24q12 0 22 20q23 43 41 127.5t19 180.5q-37 2 -86 9v41h403v-41q-37 -8 -67 -8v-358q3 0 25 -3t40 -6v-41z" />
    <glyph glyph-name="uni043C" unicode="&#x43c;" horiz-adv-x="672" 
d="M216 0h-198v41q7 1 63 8q1 20 4.5 104t6.5 166.5t3 88.5q-23 2 -67 8v41h176q9 -25 133 -326q111 270 130 326h176v-41q-34 -5 -67 -8l3 -358q2 0 24 -3t40 -6v-41h-225v40q17 4 40 6.5t28 4.5q0 301 4 350q-151 -395 -153 -401h-46q-124 322 -154 396q-3 -174 -3 -347
q60 -4 82 -8v-41z" />
    <glyph glyph-name="uni043D" unicode="&#x43d;" horiz-adv-x="571" 
d="M250 0h-221v41q13 2 39 5l26 3v359q-16 1 -65 8v41h221v-41q-37 -6 -64 -8v-147h199v147q-27 2 -64 8v41h221v-41q-49 -7 -65 -8v-359l26 -3q26 -3 39 -5v-41h-221v41q37 6 64 8v167h-199v-167q27 -2 64 -8v-41z" />
    <glyph glyph-name="uni043E" unicode="&#x43e;" horiz-adv-x="533" 
d="M270 469q100 0 164.5 -66t64.5 -166q0 -108 -64.5 -178.5t-168.5 -70.5q-103 0 -167.5 69t-64.5 173q0 100 64.5 169.5t171.5 69.5zM276 29q58 0 88 53.5t30 140.5q0 90 -34.5 147.5t-98.5 57.5q-61 0 -91.5 -52.5t-30.5 -134.5q0 -87 35.5 -149.5t101.5 -62.5z" />
    <glyph glyph-name="uni043F" unicode="&#x43f;" horiz-adv-x="571" 
d="M250 0h-221v41q13 2 39 5l26 3v359q-16 1 -65 8v41h513v-41q-49 -7 -65 -8v-359l26 -3q26 -3 39 -5v-41h-221v41q37 6 64 8v364h-199v-364q27 -2 64 -8v-41z" />
    <glyph glyph-name="uni0440" unicode="&#x440;" horiz-adv-x="553" 
d="M185 383v-320q35 -28 85 -28q61 0 104 51.5t43 150.5q0 80 -36 125t-95 45q-43 0 -101 -24zM273 -244h-250v41q29 6 69 8v589q-33 21 -59 25v38h52q77 0 93 1q1 -4 1.5 -11.5t1.5 -17t1 -12.5q92 52 152 52q74 0 129 -61.5t55 -156.5q0 -62 -25 -114t-64 -83.5
t-82.5 -48.5t-83.5 -17q-38 0 -78 8v-191q55 -4 88 -9v-40z" />
    <glyph glyph-name="uni0441" unicode="&#x441;" horiz-adv-x="448" 
d="M301 469q36 0 110 -13v-100h-65q-12 17 -30 69q-8 4 -28 4q-63 0 -107.5 -48t-44.5 -139q0 -93 48 -144.5t117 -51.5q60 0 111 26v-40q-58 -44 -147 -44q-93 0 -162 63.5t-69 177.5q0 103 74.5 171.5t192.5 68.5z" />
    <glyph glyph-name="uni0442" unicode="&#x442;" horiz-adv-x="470" 
d="M24 457h423v-121h-53q-13 20 -29 77h-88v-364q49 -3 76 -8v-41h-245v41q11 2 41 4.5t35 3.5v364h-78q-14 -49 -29 -77h-53v121z" />
    <glyph glyph-name="uni0443" unicode="&#x443;" horiz-adv-x="490" 
d="M55 405q-21 2 -61 11v41h230v-41q-9 -2 -36 -5t-31 -4q96 -235 120 -291q89 211 113 290q-47 3 -87 10v41h200v-41q-28 -7 -58 -9q-30 -75 -167 -395q-13 -31 -53.5 -134t-52.5 -132q-14 -1 -47.5 6t-46.5 14v9q31 40 76.5 111.5t69.5 118.5q3 4 1 10q-14 33 -49.5 114.5
t-74 169t-46.5 106.5z" />
    <glyph glyph-name="uni0444" unicode="&#x444;" horiz-adv-x="677" 
d="M384 423v-392q75 7 116 57.5t41 137.5q0 83 -37 137t-120 60zM293 32v392q-73 -3 -114.5 -50t-41.5 -129q0 -91 37.5 -148t118.5 -65zM452 -243h-226v42q12 2 38 5t29 3v182q-117 6 -188 70t-71 177q0 98 69.5 160.5t189.5 69.5v189q-6 1 -30 6t-35 7v42h58q81 0 102 4
q-4 -28 -4 -65v-183q116 -7 187.5 -64.5t71.5 -165.5q0 -114 -74 -177t-185 -69v-183q5 -1 31.5 -3.5t36.5 -4.5v-42z" />
    <glyph glyph-name="uni0445" unicode="&#x445;" horiz-adv-x="444" 
d="M184 0h-197v41q45 7 66 9q36 45 129 173q-73 119 -114 183q-49 7 -64 10v41h212v-41q-32 -5 -48 -6l77 -128q53 73 83 125q-49 6 -63 9v41h184v-41q-21 -4 -65 -10q-32 -41 -116 -158l126 -197q32 -3 65 -10v-41h-220v41q13 2 54 7l-89 141q-10 -15 -93 -141q50 -4 73 -7
v-41z" />
    <glyph glyph-name="uni0446" unicode="&#x446;" horiz-adv-x="580" 
d="M557 -133h-43q-26 111 -46 133h-439v41q13 2 39 5l26 3v359q-16 1 -65 8v41h221v-41q-37 -6 -64 -8v-365h199v365q-27 2 -64 8v41h221v-41q-49 -7 -65 -8v-365h81z" />
    <glyph glyph-name="uni0447" unicode="&#x447;" horiz-adv-x="508" 
d="M479 0h-226v41q32 5 69 8v158q-50 -21 -111 -21q-75 0 -111 31q-39 31 -39 103v87q-14 1 -57 9v41h206v-41q-39 -7 -56 -8v-93q0 -81 98 -81q48 0 70 8v166q-28 2 -64 8v41h221v-41q-45 -7 -64 -8v-359q4 -1 28 -3.5t36 -4.5v-41z" />
    <glyph glyph-name="uni0448" unicode="&#x448;" horiz-adv-x="811" 
d="M782 0h-753v41q13 2 39 5l26 3v359q-16 1 -65 8v41h218v-41q-39 -7 -61 -8v-365h173v365q-15 1 -62 8v41h218v-41q-33 -6 -63 -8v-365h173v365q-27 2 -64 8v41h221v-41q-49 -7 -64 -8v-359q5 -1 18 -2.5t25 -3t21 -2.5v-41z" />
    <glyph glyph-name="uni0449" unicode="&#x449;" horiz-adv-x="820" 
d="M718 43h80v-176h-44q-27 115 -54 133h-671v41q13 2 39 5l26 3v359q-16 1 -65 8v41h218v-41q-39 -7 -61 -8v-365h173v365q-15 1 -62 8v41h218v-41q-33 -6 -63 -8v-365h173v365q-27 2 -64 8v41h221v-41q-49 -7 -64 -8v-365z" />
    <glyph glyph-name="uni044A" unicode="&#x44a;" horiz-adv-x="592" 
d="M290 238v-194h59q47 0 77.5 25t30.5 75q0 51 -29 72.5t-88 21.5h-50zM197 413h-91q-14 -49 -29 -77h-53v121h334v-41q-10 -2 -37 -5t-31 -4v-126h57q102 0 145 -23q64 -35 64 -107q0 -74 -55 -112.5t-158 -38.5h-211v40q13 3 36 6t29 4v363z" />
    <glyph glyph-name="uni044B" unicode="&#x44b;" horiz-adv-x="731" 
d="M702 0h-214v41q42 7 56 8v359q-14 1 -56 8v41h214v-41q-49 -7 -65 -8v-359l26 -3q26 -3 39 -5v-41zM239 0h-210v40q13 3 36 6t29 4v358q-16 1 -65 8v41h226v-41q-8 -1 -21.5 -3t-28 -3.5t-19.5 -2.5v-126h59q101 0 144 -23q63 -35 63 -106q0 -72 -55.5 -112t-157.5 -40z
M186 238v-194h60q47 0 77 24t30 75q0 50 -29 72.5t-87 22.5h-51z" />
    <glyph glyph-name="uni044C" unicode="&#x44c;" horiz-adv-x="498" 
d="M248 0h-219v40q13 3 36 6t29 4v358q-16 1 -65 8v41h226v-41q-8 -1 -21.5 -3t-28 -3.5t-19.5 -2.5v-126h69q102 0 143 -22q64 -33 64 -106q0 -74 -56 -113.5t-158 -39.5zM186 238v-194h72q47 0 76 25t29 76t-29 72t-88 21h-60z" />
    <glyph glyph-name="uni044D" unicode="&#x44d;" horiz-adv-x="464" 
d="M41 9l-10 101h60q1 -1 37 -73q13 -10 44 -10q73 0 112 52.5t42 135.5q-149 0 -212 -7q5 37 4 58q117 -8 208 -8q-2 76 -38.5 123.5t-109.5 47.5q-38 0 -46 -7q-15 -49 -29 -72h-62v101q11 1 39 6t57.5 8.5t56.5 3.5q68 0 117 -22t73.5 -59t35 -74t10.5 -77
q0 -105 -66.5 -177t-186.5 -72q-20 0 -42 2.5t-34.5 5t-33.5 7.5t-26 6z" />
    <glyph glyph-name="uni044E" unicode="&#x44e;" horiz-adv-x="765" 
d="M244 0h-215v41q13 2 39 5l26 3v359q-16 1 -65 8v41h215v-41q-41 -7 -58 -8v-147h111q8 87 63.5 147.5t156.5 60.5q99 0 156.5 -69t57.5 -168q0 -108 -59 -176t-162 -68q-97 0 -153 65.5t-62 162.5h-109v-167q17 -1 58 -8v-41zM520 29q55 0 80.5 54t25.5 144
q0 89 -28.5 145.5t-90.5 56.5q-58 0 -84.5 -52.5t-26.5 -137.5q0 -96 30 -153t94 -57z" />
    <glyph glyph-name="uni044F" unicode="&#x44f;" horiz-adv-x="504" 
d="M158 330q0 -91 110 -91h44v177h-55q-99 0 -99 -86zM469 0h-224v41q35 6 67 8v151h-38q-43 0 -63 -38q-8 -14 -23.5 -48.5t-27.5 -58.5q-18 -36 -41 -45.5t-69 -9.5h-60v41q33 5 45 9t20 16q14 20 28.5 45t15.5 27q31 54 81 71q-55 5 -90 37t-35 82q0 85 87 116
q41 13 104 13h223v-41q-49 -7 -65 -8v-359l26 -3q26 -3 39 -5v-41z" />
    <glyph glyph-name="uni0450" unicode="&#x450;" horiz-adv-x="467" 
d="M296 529h-50l-145 166l4 12h105zM412 83v-42q-67 -53 -161 -53q-99 0 -158.5 67t-58.5 170q1 99 60.5 171.5t159.5 72.5q93 0 136.5 -55.5t43.5 -127.5q0 -22 -2 -33q-24 -6 -160 -6h-139q-1 -98 42.5 -149t112.5 -51q68 0 124 36zM136 289h124q67 0 77 1v16
q0 48 -20 85.5t-71 37.5q-46 0 -74.5 -36.5t-35.5 -103.5z" />
    <glyph glyph-name="uni0451" unicode="&#x451;" horiz-adv-x="467" 
d="M412 83v-42q-67 -53 -161 -53q-99 0 -158.5 67t-58.5 170q1 99 60.5 171.5t159.5 72.5q93 0 136.5 -55.5t43.5 -127.5q0 -22 -2 -33q-24 -6 -160 -6h-139q-1 -98 42.5 -149t112.5 -51q68 0 124 36zM136 289h124q67 0 77 1v16q0 48 -20 85.5t-71 37.5q-46 0 -74.5 -36.5
t-35.5 -103.5zM94 618q0 20 14 37t40 17q24 0 38.5 -16t14.5 -38q0 -24 -14.5 -40t-38.5 -16q-26 0 -40 16.5t-14 39.5zM290 618q0 20 14 37t40 17q24 0 38 -16t14 -38q0 -24 -14.5 -40t-38.5 -16q-26 0 -39.5 16.5t-13.5 39.5z" />
    <glyph glyph-name="uni0452" unicode="&#x452;" horiz-adv-x="529" 
d="M181 548v-137q63 35 127 35q79 0 126 -69t47 -182q0 -68 -17 -131.5t-41 -106.5t-54.5 -80t-52 -55t-38.5 -29l-29 27q131 130 131 364q0 207 -118 207q-44 0 -81 -18v-325q12 -1 64 -7v-41h-217v41q50 7 60 8v499h-74v44h74v69q-55 20 -66 22v37h38q86 0 124 3l-3 -51
v-80h173v-44h-173z" />
    <glyph glyph-name="uni0453" unicode="&#x453;" horiz-adv-x="438" 
d="M323 413h-137v-364q26 -1 80 -10v-39h-237v41q26 4 65 8v358q-3 0 -29.5 3.5t-35.5 5.5v41h379v-121h-57q-17 30 -28 77zM234 529h-50l93 178h103l1 -12z" />
    <glyph glyph-name="uni0454" unicode="&#x454;" horiz-adv-x="449" 
d="M414 454v-101l-55 -1q-11 17 -33 71q-12 6 -40 6q-61 0 -102.5 -41t-45.5 -129q34 0 116 3t98 6q-6 -44 -4 -58q-80 8 -211 8q4 -83 48.5 -127.5t110.5 -44.5q63 0 120 32v-40q-65 -50 -154 -50q-42 0 -81 14.5t-72.5 42.5t-54 76.5t-20.5 110.5q0 101 70.5 169t187.5 68
q62 0 122 -15z" />
    <glyph glyph-name="uni0455" unicode="&#x455;" horiz-adv-x="400" 
d="M339 457v-98h-57q-10 10 -32 66q-12 7 -36 7q-40 0 -61.5 -20t-21.5 -52q0 -27 19 -46.5t79 -41.5q71 -27 102.5 -58.5t31.5 -82.5q0 -64 -52.5 -103.5t-132.5 -39.5q-58 0 -131 23q-1 10 -4 49t-4 50h59q10 -17 38 -76q19 -8 42 -8q47 0 71 21.5t24 53.5q0 29 -17 49.5
t-68 40.5q-74 29 -107 61.5t-33 84.5q0 54 41 93t132 39q46 0 118 -12z" />
    <glyph glyph-name="uni0456" unicode="&#x456;" horiz-adv-x="275" 
d="M69 618q0 20 16 38.5t43 18.5q26 0 41.5 -17t15.5 -40q0 -25 -16 -41.5t-43 -16.5t-42 17t-15 41zM244 0h-215v41q26 4 65 8v344q-31 19 -62 27v37h57q79 0 97 3v-412q16 0 58 -7v-41z" />
    <glyph glyph-name="uni0457" unicode="&#x457;" horiz-adv-x="275" 
d="M-20 618q0 20 14 37t40 17q24 0 38 -16t14 -38q0 -24 -14.5 -40t-37.5 -16q-27 0 -40.5 16.5t-13.5 39.5zM175 618q0 20 14 37t40 17q24 0 38.5 -16t14.5 -38q0 -24 -14.5 -40t-38.5 -16q-27 0 -40.5 16.5t-13.5 39.5zM244 0h-215v41q26 4 65 8v344q-31 19 -62 27v37h57
q79 0 97 3v-412q16 0 58 -7v-41z" />
    <glyph glyph-name="uni0458" unicode="&#x458;" horiz-adv-x="267" 
d="M27 420v37h55q79 0 103 4l-1 -412q0 -68 -15 -116q-38 -112 -144 -182l-27 32q62 54 78 100t16 139v371q-39 23 -65 27zM68 618q0 20 15.5 38.5t42.5 18.5q26 0 41.5 -17t15.5 -40q0 -25 -15.5 -41.5t-41.5 -16.5q-28 0 -43 17t-15 41z" />
    <glyph glyph-name="uni0459" unicode="&#x459;" horiz-adv-x="729" 
d="M270 0v40q13 3 35.5 6t28.5 4v363h-110q-13 -257 -90 -374q-34 -51 -82 -51q-33 0 -53 13q2 21 13 55t24 47q41 -24 59 -24q10 0 22 20q23 43 41 128t19 180q-41 2 -87 9v41h405v-41q-38 -8 -68 -8v-127h59q100 0 143 -23q64 -33 64 -106t-55 -112.5t-157 -39.5h-211z
M427 238v-194h65q102 0 102 99q0 52 -29 73.5t-87 21.5h-51z" />
    <glyph glyph-name="uni045A" unicode="&#x45a;" horiz-adv-x="781" 
d="M249 0h-221v41q13 2 39 5l26 3v359q-16 1 -65 8v41h221v-41q-37 -6 -64 -8v-130h191v130q-26 2 -63 8v41h221v-41q-49 -7 -65 -8v-130h96q180 0 180 -127q0 -74 -57.5 -112.5t-161.5 -38.5h-215v40q18 4 65 10v184h-191v-185q27 -2 64 -8v-41zM469 234v-190h67
q109 0 109 101q0 45 -25 67t-82 22h-69z" />
    <glyph glyph-name="uni045B" unicode="&#x45b;" horiz-adv-x="560" 
d="M472 284v-235q33 -3 58 -8v-41h-216v41q59 8 65 9v238q0 44 -24.5 72.5t-72.5 28.5q-56 0 -101 -33v-308q10 -1 63 -7v-41h-216v41q50 7 60 8v494h-69v44h69v70q-37 18 -66 27v36h20q106 0 144 3q-6 -48 -5 -56v-80h149v-44h-149v-152q75 59 147 59q70 0 107 -46.5
t37 -119.5z" />
    <glyph glyph-name="uni045C" unicode="&#x45c;" horiz-adv-x="508" 
d="M252 0h-223v41q13 2 39 5l26 3v359q-16 1 -65 8v41h223v-41q-36 -6 -66 -8v-148h47q29 0 43.5 8.5t26.5 32.5q15 34 34 77q38 85 104 85q23 0 40 -7q1 -18 -6 -48t-16 -46q-2 1 -15 6t-23.5 8t-18.5 3q-12 0 -18 -5.5t-14 -22.5q-35 -88 -61 -107q66 -24 97 -99
q9 -22 31 -69q10 -17 22.5 -23.5t49.5 -11.5v-41h-68q-45 0 -69.5 13t-39.5 52q-7 18 -17.5 48.5t-20.5 57.5q-10 26 -24.5 36.5t-37.5 10.5h-46v-169q30 -2 66 -8v-41zM271 529h-50l93 178h103l1 -12z" />
    <glyph glyph-name="uni045D" unicode="&#x45d;" horiz-adv-x="571" 
d="M250 0h-221v41q13 2 39 5l26 3v359q-16 1 -65 8v41h221v-41q-37 -6 -64 -8v-262l199 231v31q-28 2 -64 8v41h221v-41q-49 -7 -65 -8v-359l26 -3q26 -3 39 -5v-41h-221v41q37 6 64 8v266l-199 -231v-35q27 -2 64 -8v-41zM331 530h-50l-146 165l4 12h105z" />
    <glyph glyph-name="uni045E" unicode="&#x45e;" horiz-adv-x="490" 
d="M55 405q-21 2 -61 11v41h230v-41q-9 -2 -36 -5t-31 -4q96 -235 120 -291q89 211 113 290q-47 3 -87 10v41h200v-41q-28 -7 -58 -9q-30 -75 -167 -395q-13 -31 -53.5 -134t-52.5 -132q-14 -1 -47.5 6t-46.5 14v9q31 40 76.5 111.5t69.5 118.5q3 4 1 10q-14 33 -49.5 114.5
t-74 169t-46.5 106.5zM253 534q-71 0 -116 29t-45 71q0 23 14.5 39t37.5 16q24 0 35.5 -14t11.5 -33q0 -9 -6 -23t-6 -19t7.5 -10.5t25.5 -10.5t42 -5q34 -1 55 6.5t21 17.5q0 5 -6 20.5t-6 24.5q0 18 13.5 31.5t35.5 13.5q24 0 36 -15t12 -36q0 -40 -45 -71.5t-117 -31.5z
" />
    <glyph glyph-name="uni045F" unicode="&#x45f;" horiz-adv-x="571" 
d="M237 0h-204v41q13 2 39 5l26 3v359q-16 1 -65 8v41h221v-41q-37 -6 -63 -8v-365h198v365q-28 2 -64 8v41h221v-41q-46 -7 -64 -8v-359l64 -8v-41h-199q-18 -31 -34 -146h-45q-15 117 -31 146z" />
    <glyph glyph-name="uni0462" unicode="&#x462;" horiz-adv-x="737" 
d="M343 44h83q77 0 117 36t40 106q0 73 -41.5 105t-131.5 32h-67v-279zM343 367h88q101 0 160 -23q104 -41 104 -145q1 -96 -72 -147.5t-209 -51.5h-259v41q39 5 86 9v510h-120q-36 -87 -43 -93h-51v139h214v61q-47 5 -83 11v41h270v-41q-32 -6 -85 -10v-62h280v-138h-50
q-6 4 -44 92h-186v-193z" />
    <glyph glyph-name="uni0463" unicode="&#x463;" horiz-adv-x="572" 
d="M268 241v-197h63q44 0 75 23t31 79q0 44 -22.5 69.5t-81.5 25.5h-65zM383 413h-115v-128h82q90 0 134 -29q52 -36 52 -101q0 -74 -57 -114.5t-157 -40.5h-221v40q28 5 77 9v364h-72q-12 -45 -29 -75h-53v119h154v207q-48 16 -66 19v37h36q84 0 124 4l-4 -49v-218h196
v-119h-53q-18 32 -28 75z" />
    <glyph glyph-name="uni0472" unicode="&#x472;" horiz-adv-x="753" 
d="M584 316h-419q5 -127 64 -206t155 -79q91 0 145 74t55 211zM164 364h418q-9 128 -69 195t-147 67q-86 0 -141.5 -67t-60.5 -195zM378 668q142 0 230.5 -94.5t88.5 -242.5q0 -145 -88.5 -244t-230.5 -99q-150 0 -238.5 97t-88.5 244q0 145 88.5 242t238.5 97z" />
    <glyph glyph-name="uni0473" unicode="&#x473;" horiz-adv-x="544" 
d="M401 212h-258q6 -78 42 -130.5t96 -52.5q57 0 87.5 50t32.5 133zM142 257h258q-7 77 -41.5 124t-92.5 47t-89.5 -48t-34.5 -123zM275 469q100 0 164.5 -66t64.5 -166q0 -108 -64.5 -178.5t-168.5 -70.5q-103 0 -167.5 69t-64.5 173q0 101 64.5 170t171.5 69z" />
    <glyph glyph-name="uni0474" unicode="&#x474;" horiz-adv-x="651" 
d="M-24 617v41h266v-41q-20 -2 -51 -5.5t-33 -3.5q16 -51 89 -266t80 -240q12 35 61 168.5t70 192.5q43 120 78.5 162.5t86.5 42.5q36 0 50 -13q0 -16 -12.5 -54.5t-16.5 -38.5q-5 2 -15.5 6.5t-16 6.5t-15.5 4t-20 2q-16 0 -31 -24t-45 -105q-24 -66 -64 -173t-69 -185
t-36 -98h-68q-32 98 -111 323t-103 288q-8 1 -35.5 4t-38.5 6z" />
    <glyph glyph-name="uni0475" unicode="&#x475;" horiz-adv-x="499" 
d="M-3 416v41h213v-41q-29 -4 -57 -6q14 -43 60.5 -168.5t51.5 -138.5q13 33 43.5 115t36.5 98q27 77 52.5 114.5t67.5 37.5q26 0 41 -10q0 -17 -9 -52t-15 -39q-37 16 -51 16q-13 0 -30 -44q-77 -193 -136 -345h-54q-66 188 -158 414q-23 1 -56 8z" />
    <glyph glyph-name="uni0490" unicode="&#x490;" horiz-adv-x="506" 
d="M323 0h-289v41q26 3 86 9v558q-55 3 -86 9v41h378q19 19 66 144h44q-12 -89 -22 -192q-45 3 -105 3h-174v-564q60 -3 102 -8v-41z" />
    <glyph glyph-name="uni0491" unicode="&#x491;" horiz-adv-x="402" 
d="M267 0h-238v41q17 3 65 8v358q-4 1 -30 4t-35 5v41h277q7 8 25.5 53t27.5 72h46q-10 -69 -17 -169h-201v-364q26 -1 80 -10v-39z" />
    <glyph glyph-name="uni0492" unicode="&#x492;" horiz-adv-x="564" 
d="M34 658h500v-139h-55q-9 9 -42 94h-216v-269h127v-47h-127v-248q60 -3 102 -8v-41h-289v41q26 3 86 9v247h-88v47h88v264q-55 3 -86 9v41z" />
    <glyph glyph-name="uni0493" unicode="&#x493;" horiz-adv-x="438" 
d="M29 457h379v-121h-57q-17 30 -28 77h-137v-166h102v-40h-102v-158q26 -1 80 -10v-39h-237v41q26 4 65 8v158h-69v40h69v160q-3 0 -29.5 3.5t-35.5 5.5v41z" />
    <glyph glyph-name="uni0496" unicode="&#x496;" horiz-adv-x="936" 
d="M598 0h-269v41q14 2 86 9v278h-49q-68 0 -99 -64q-13 -27 -39.5 -92.5t-43.5 -102.5q-19 -44 -42 -56.5t-78 -12.5h-78v41q52 8 69 17.5t33 36.5q14 23 38.5 78t26.5 59q47 96 120 125q-24 15 -44.5 56.5t-57.5 138.5q-15 37 -37 37q-19 0 -76 -20q-31 47 -26 95
q24 10 61 10q50 0 75 -23.5t52 -91.5q43 -113 49 -128q25 -59 89 -59h57v245q-48 3 -86 10v41h269v-41q-36 -6 -86 -10v-245h57q65 0 94 69q4 8 44 115q25 66 57.5 92t84.5 26q27 0 45 -10q5 -48 -26 -95q-53 20 -75 20q-24 0 -38 -37q-30 -90 -53 -132.5t-50 -60.5
q24 -8 40 -16.5t39 -33t40 -62.5q61 -137 69 -152q12 -23 35 -34.5t77 -19.5v-194h-44q-5 31 -25 85.5t-31 67.5q-46 0 -74.5 17t-45.5 59q-19 43 -41 103.5t-33 85.5q-26 63 -98 63h-48v-279q39 -2 86 -8v-41z" />
    <glyph glyph-name="uni0497" unicode="&#x497;" horiz-adv-x="737" 
d="M478 0h-224v41q12 2 36 4.5t29 3.5v169h-51q-21 0 -33.5 -7.5t-22.5 -31.5l-22.5 -60t-21.5 -54q-16 -39 -39.5 -52t-67.5 -13h-63v41q39 5 52.5 12t24.5 26q4 8 37 87q18 42 35 58.5t42 25.5q-8 8 -16 21.5t-12.5 25t-12 31.5t-11.5 30q-10 27 -31 27q-11 0 -33.5 -8.5
t-23.5 -8.5q-9 16 -15.5 45.5t-5.5 48.5q17 7 39 7q36 0 60 -16.5t42 -59.5q6 -15 16.5 -45t16.5 -45q10 -24 24.5 -33.5t42.5 -9.5h50v148q-17 1 -65 8v41h224v-41q-35 -6 -66 -8v-148h50q28 0 43 9.5t26 33.5q1 2 32 85q33 81 101 81q22 0 40 -7q1 -19 -6 -48.5t-16 -45.5
l-23 8q-23 9 -34 9q-12 0 -18 -5.5t-13 -21.5q-4 -11 -11.5 -30.5t-12 -31t-12 -25t-15.5 -21.5q17 -6 28 -12.5t26 -24.5t27 -47q5 -11 17.5 -41.5t19.5 -45.5q10 -18 25 -25.5t56 -13.5v-173h-44q-6 25 -22 72.5t-23 60.5q-35 0 -57 13t-37 52q-8 18 -21.5 54l-22.5 60
q-10 24 -22.5 31.5t-32.5 7.5h-48v-169q31 -2 66 -8v-41z" />
    <glyph glyph-name="uni0498" unicode="&#x498;" horiz-adv-x="546" 
d="M60 519v116q135 33 195 33q107 0 162.5 -44t55.5 -117q0 -59 -39.5 -98t-104.5 -55q82 -14 129 -56t47 -104q0 -90 -62.5 -140t-155.5 -61l-38 -39q91 -26 91 -90q0 -53 -49.5 -79.5t-122.5 -23.5v36q44 1 71 15.5t27 41.5q0 37 -87 54v22l61 60h-3q-85 0 -177 30
l-13 117h59q5 -4 24 -36t32 -57q24 -13 70 -13q72 0 116 42t44 109q0 69 -42 106t-109 37q-38 0 -63 -5v53q56 -4 63 -4q56 0 90.5 34t34.5 92q0 57 -35.5 93.5t-107.5 36.5q-39 0 -66 -12q-40 -91 -42 -94h-55z" />
    <glyph glyph-name="uni0499" unicode="&#x499;" horiz-adv-x="435" 
d="M270 247v-3q127 -14 127 -110q0 -61 -45 -97t-111 -45l-33 -33q92 -28 92 -90q0 -54 -50 -80t-123 -23v35q99 2 99 57q0 38 -88 54v23l55 53q-50 0 -145 22l-11 100h61q5 -4 36 -73q16 -10 52 -10q42 0 73 25t31 78q0 87 -96 87q-19 0 -57 -4v56q38 -4 58 -4q82 0 82 75
q0 42 -23.5 66t-70.5 24q-32 0 -44 -7q-16 -51 -29 -73h-62v94q114 25 158 25q84 0 127.5 -31.5t43.5 -86.5q0 -44 -30 -70t-77 -34z" />
    <glyph glyph-name="uni049A" unicode="&#x49a;" horiz-adv-x="653" 
d="M306 0h-272v41q14 2 86 9v557q-48 3 -86 10v41h272v-41q-38 -6 -86 -10v-240h66q34 0 55 15.5t42 56.5q15 29 50 112q27 63 58 88t82 25q27 0 45 -10q5 -47 -25 -95q-57 20 -74 20q-24 0 -40 -38q-42 -97 -62 -133.5t-45 -52.5q34 -11 62 -34.5t55 -77.5q5 -10 31 -67
t41 -81q16 -29 32 -37.5t70 -16.5v-194h-44q-6 33 -23 86.5t-27 66.5q-43 0 -72.5 19.5t-52.5 72.5q-15 32 -35 86.5t-32 83.5q-27 61 -99 61h-58v-274q39 -2 86 -8v-41z" />
    </font>
</defs>
</svg>
