<?xml version="1.0" standalone="no"?>
<!DOCTYPE svg PUBLIC "-//W3C//DTD SVG 1.1//EN" "http://www.w3.org/Graphics/SVG/1.1/DTD/svg11.dtd" >
<svg xmlns="http://www.w3.org/2000/svg" xmlns:xlink="http://www.w3.org/1999/xlink" version="1.1">
<metadata>
Created by FontForge 20170731 at Thu Apr  3 22:13:21 2014
 By Aleksey,,,
(c) 2008 Adobe Systems Incorporated. All Rights Reserved.
</metadata>
<defs>
<font id="AdobeClean-LightIt" horiz-adv-x="606" >
  <font-face 
    font-family="Adobe Clean Light"
    font-weight="300"
    font-style="italic"
    font-stretch="normal"
    units-per-em="1000"
    panose-1="2 11 3 3 2 4 4 9 2 4"
    ascent="750"
    descent="-250"
    x-height="479"
    cap-height="665"
    bbox="-208.667 -248 1026 968"
    underline-thickness="50"
    underline-position="-150"
    slope="-12"
    unicode-range="U+0020-FB04"
  />
<missing-glyph horiz-adv-x="500" 
d="M0 0v700h500v-700h-500zM80 50h340l-170 255zM279 350l171 -255v510zM50 605v-510l170 255zM80 650l170 -255l170 255h-340z" />
    <glyph glyph-name="f_f" unicode="ff" horiz-adv-x="455" 
d="M343 438h-192q-106 -583 -108 -592q-1 -4 -5 -5l-36 -3q-4 0 -3 4l107 596h-69q-6 0 -5 5l6 32q1 4 5 4h70l10 49q23 114 65 159t104 45q31 0 47 -8q5 -2 3 -7l-7 -31q-2 -5 -6 -4q-20 8 -41 8q-41 0 -71.5 -32.5t-50.5 -134.5l-8 -44h191l10 49q23 114 65.5 159
t104.5 45q30 0 46 -8q5 -2 3 -7l-7 -31q-2 -5 -5 -4q-22 8 -42 8q-41 0 -71 -32.5t-50 -134.5l-9 -44h94q5 0 4 -4l-5 -32q-1 -5 -5 -5h-95q-107 -587 -108 -592q-1 -4 -5 -5l-36 -3q-3 0 -3 4z" />
    <glyph glyph-name="f_f_i" unicode="ffi" horiz-adv-x="675" 
d="M501 5l83 470q1 4 6 4h36q4 0 3 -6l-82 -469q-1 -4 -5 -4h-37q-4 0 -4 5zM631 605q-14 0 -22 9.5t-6 23.5t11 22.5t24 8.5q14 0 21.5 -9.5t5.5 -23.5q-4 -31 -34 -31zM343 438h-192q-106 -583 -108 -592q-1 -4 -5 -5l-36 -3q-4 0 -3 4l107 596h-69q-6 0 -5 5l6 32
q1 4 5 4h70l10 49q23 114 65 159t104 45q31 0 47 -8q5 -2 3 -7l-7 -31q-2 -5 -6 -4q-20 8 -41 8q-41 0 -71.5 -32.5t-50.5 -134.5l-8 -44h192l9 49q23 114 65.5 159t104.5 45q30 0 46 -8q5 -2 3 -7l-7 -31q-2 -5 -5 -4q-22 8 -42 8q-41 0 -71 -32.5t-50 -134.5l-9 -44h94
q5 0 4 -4l-5 -32q-1 -5 -5 -5h-95q-107 -587 -108 -592q-1 -4 -5 -5l-36 -3q-3 0 -3 4z" />
    <glyph glyph-name="f_f_l" unicode="ffl" horiz-adv-x="691" 
d="M632 34l-6 -31q-1 -4 -5 -5q-14 -8 -41 -8q-79 0 -62 99l110 629q1 4 4 5q3 0 12 1t16 2t10 1q4 0 4 -4l-110 -637q-5 -33 4 -44t28 -11t32 6q2 1 3.5 0t0.5 -3zM343 438h-192q-106 -583 -108 -592q-1 -4 -5 -5l-36 -3q-4 0 -3 4l107 596h-69q-6 0 -5 5l6 32q1 4 5 4h70
l10 49q23 114 65 159t104 45q31 0 47 -8q5 -2 3 -7l-7 -31q-2 -5 -6 -4q-20 8 -41 8q-41 0 -71.5 -32.5t-50.5 -134.5l-8 -44h192l9 49q23 114 65.5 159t104.5 45q30 0 46 -8q5 -2 3 -7l-7 -31q-2 -5 -5 -4q-22 8 -42 8q-41 0 -71 -32.5t-50 -134.5l-9 -44h94q5 0 4 -4
l-5 -32q-1 -5 -5 -5h-95q-107 -587 -108 -592q-1 -4 -5 -5l-36 -3q-3 0 -3 4z" />
    <glyph glyph-name="T_h" unicode="Th" horiz-adv-x="964" 
d="M209 0h-36q-5 0 -5 5l109 620h-208q-5 0 -3 6l10 30q1 4 4 4h464q4 0 4 -4l-5 -32q0 -4 -4 -4h-216l-109 -621q0 -4 -5 -4zM489 4l125 713q1 5 5 6q3 0 11.5 1t15.5 2t10 1q5 0 4 -4l-59 -334q80 99 180 99q56 0 90.5 -39.5t17.5 -140.5l-54 -303q-1 -5 -6 -5h-36
q-5 0 -5 5l56 307q23 136 -75 136q-90 0 -168 -105q-9 -14 -13 -34l-53 -305q-1 -4 -6 -4h-36q-4 0 -4 4z" />
    <glyph glyph-name="Tcaron_h" unicode="&#x164;h" horiz-adv-x="964" 
d="M209 0h-36q-5 0 -5 5l109 620h-208q-5 0 -3 6l10 30q1 4 4 4h464q4 0 4 -4l-5 -32q0 -4 -4 -4h-216l-109 -621q0 -4 -5 -4zM489 4l125 713q1 5 5 6q3 0 11.5 1t15.5 2t10 1q5 0 4 -4l-59 -334q80 99 180 99q56 0 90.5 -39.5t17.5 -140.5l-54 -303q-1 -5 -6 -5h-36
q-5 0 -5 5l56 307q23 136 -75 136q-90 0 -168 -105q-9 -14 -13 -34l-53 -305q-1 -4 -6 -4h-36q-4 0 -4 4zM241 839l67 -85l102 85q4 4 8 4h40q2 0 2.5 -2.5t-0.5 -4.5l-126 -106q-3 -3 -5 -3h-44q-7 0 -8 3l-83 109q-2 4 3 4h38q5 0 6 -4z" />
    <glyph glyph-name="uni021A_h" unicode="&#x21a;h" horiz-adv-x="964" 
d="M209 0h-36q-5 0 -5 5l109 620h-208q-5 0 -3 6l10 30q1 4 4 4h464q4 0 4 -4l-5 -32q0 -4 -4 -4h-216l-109 -621q0 -4 -5 -4zM489 4l125 713q1 5 5 6q3 0 11.5 1t15.5 2t10 1q5 0 4 -4l-59 -334q80 99 180 99q56 0 90.5 -39.5t17.5 -140.5l-54 -303q-1 -5 -6 -5h-36
q-5 0 -5 5l56 307q23 136 -75 136q-90 0 -168 -105q-9 -14 -13 -34l-53 -305q-1 -4 -6 -4h-36q-4 0 -4 4zM138 -225h-39q-5 0 -2 5q51 55 61 112q6 35 -2 65q-1 4 3 4h38q4 0 5 -3q7 -27 3 -60q-9 -71 -61 -121q-2 -2 -6 -2z" />
    <glyph glyph-name="f_b" unicode="fb" horiz-adv-x="720" 
d="M271 29l120 690q1 4 5 5q24 4 38 4q3 0 2 -4l-49 -284q68 48 144 48q70 0 108 -50t38 -131q0 -132 -82 -224.5t-202 -92.5q-72 0 -119 30q-5 3 -3 9zM380 396l-60 -348q32 -17 81 -17q93 0 162 79.5t69 194.5q0 57 -26.5 99.5t-87.5 42.5q-72 0 -138 -51zM106 438h-69
q-6 0 -5 5l6 32q1 4 5 4h70l10 49q23 114 65 159t104 45q31 0 47 -8q5 -2 3 -7l-7 -31q-2 -5 -6 -4q-20 8 -41 8q-41 0 -71.5 -32.5t-50.5 -134.5l-8 -44h94q4 0 4 -4l-6 -32q-1 -5 -5 -5h-94q-106 -583 -108 -592q-1 -4 -5 -5l-36 -3q-4 0 -3 4z" />
    <glyph glyph-name="f_h" unicode="fh" horiz-adv-x="741" 
d="M106 438h-69q-6 0 -5 5l6 32q1 4 5 4h70l10 49q23 114 65 159t104 45q31 0 47 -8q5 -2 3 -7l-7 -31q-2 -5 -6 -4q-20 8 -41 8q-41 0 -71.5 -32.5t-50.5 -134.5l-8 -44h94q4 0 4 -4l-6 -32q-1 -5 -5 -5h-94q-106 -583 -108 -592q-1 -4 -5 -5l-36 -3q-4 0 -3 4zM267 4
l124 713q1 5 5 6q2 0 18 1.5t20 2.5q4 0 3 -4l-58 -334q80 99 180 99q25 0 45 -7t40 -26.5t24.5 -54.5t-2.5 -92l-54 -303q-1 -5 -5 -5h-37q-6 0 -4 5l56 307q23 136 -75 136q-89 0 -169 -105q-9 -14 -13 -34l-53 -305q-1 -4 -5 -4h-37q-3 0 -3 4z" />
    <glyph glyph-name="f_i" unicode="fi" horiz-adv-x="438" 
d="M106 438h-69q-6 0 -5 5l6 32q1 4 5 4h70l10 49q23 114 65 159t104 45q31 0 47 -8q5 -2 3 -7l-7 -31q-2 -5 -6 -4q-20 8 -41 8q-41 0 -71.5 -32.5t-50.5 -134.5l-8 -44h94q4 0 4 -4l-6 -32q-1 -5 -5 -5h-94q-106 -583 -108 -592q-1 -4 -5 -5l-36 -3q-4 0 -3 4zM264 5
l83 470q1 4 6 4h36q5 0 4 -6l-83 -469q-1 -4 -5 -4h-36q-5 0 -5 5zM395 605q-15 0 -23 9.5t-6 23.5q5 31 35 31q14 0 21.5 -9.5t5.5 -23.5q-1 -13 -10 -22t-23 -9z" />
    <glyph glyph-name="f_j" unicode="fj" horiz-adv-x="447" 
d="M106 438h-66q-5 0 -4 5l6 31q0 5 6 5h65l7 32q14 70 38 116.5t54 68t57 29t60 7.5q53 0 89 -22q2 -1 2 -7l-8 -33q-2 -7 -6 -4q-38 24 -81 24q-19 0 -33 -2t-34.5 -12.5t-35.5 -28.5t-31 -53.5t-26 -84.5l-7 -30h239q5 0 5 -5l-91 -516q-15 -83 -30.5 -117.5t-38.5 -55.5
q-32 -29 -80 -29q-9 0 -16 2q-5 0 -3 5l6 29q1 4 4 4q48 2 71 30.5t40 122.5l86 489h-199q-106 -583 -108 -592q-1 -4 -5 -5l-36 -3q-4 0 -3 4z" />
    <glyph glyph-name="f_k" unicode="fk" horiz-adv-x="644" 
d="M106 438h-69q-6 0 -5 5l6 32q1 4 5 4h70l10 49q23 114 65 159t104 45q31 0 47 -8q5 -2 3 -7l-7 -31q-2 -5 -6 -4q-20 8 -41 8q-41 0 -71.5 -32.5t-50.5 -134.5l-8 -44h94q4 0 4 -4l-6 -32q-1 -5 -5 -5h-94q-106 -583 -108 -592q-1 -4 -5 -5l-36 -3q-4 0 -3 4zM630 479h46
q2 0 3 -2t-1 -4q-159 -137 -257 -224q181 -226 196 -244q3 -5 -2 -5h-45q-5 0 -7 3l-193 240q-3 5 1 9l250 223q4 4 9 4zM436 724l-124 -720q-1 -4 -6 -4h-35q-5 0 -4 5l124 713q1 4 4 5q36 4 38 4q3 0 3 -3z" />
    <glyph glyph-name="f_l" unicode="fl" horiz-adv-x="454" 
d="M106 438h-69q-6 0 -5 5l6 32q1 4 5 4h70l10 49q23 114 65 159t104 45q31 0 47 -8q5 -2 3 -7l-7 -31q-2 -5 -6 -4q-20 8 -41 8q-41 0 -71.5 -32.5t-50.5 -134.5l-8 -44h94q4 0 4 -4l-6 -32q-1 -5 -5 -5h-94q-106 -583 -108 -592q-1 -4 -5 -5l-36 -3q-4 0 -3 4zM395 34
l-6 -31q-1 -4 -5 -5q-14 -8 -41 -8q-79 0 -62 99l110 629q1 4 4 5q3 0 12 1t16 2t10 1q4 0 3 -4l-109 -637q-5 -33 4 -44t28 -11t32 6q2 1 3.5 0t0.5 -3z" />
    <glyph glyph-name="f_t" unicode="ft" horiz-adv-x="477" 
d="M342 438h-191q-106 -583 -108 -592q-1 -4 -5 -5l-36 -3q-4 0 -3 4l107 596h-69q-6 0 -5 5l6 32q1 4 5 4h69l10 50q23 112 65.5 157.5t104.5 45.5q29 0 47 -8q5 -2 3 -7l-7 -32q-2 -5 -6 -4q-16 8 -41 8q-19 0 -33.5 -5t-32 -20.5t-32 -50.5t-24.5 -89l-8 -45h192
q3 19 7.5 42t9 48t6.5 36q1 4 4 4q24 3 40 10q3 1 3 -3q-5 -25 -26 -137h97q6 0 4 -5l-6 -31q-1 -5 -6 -5h-96l-59 -332q-13 -75 43 -75q29 0 56 13q4 1 4 -3l-5 -30q-1 -4 -5 -8q-23 -13 -64 -13q-42 0 -63 29t-9 93z" />
    <glyph glyph-name="f_f_b" unicode="ffb" horiz-adv-x="957" 
d="M507 29l121 690q0 4 4 5q24 4 38 4q3 0 3 -4l-49 -284q67 48 143 48q71 0 109 -48t38 -129q0 -132 -82 -226.5t-201 -94.5q-74 0 -120 30q-6 4 -4 9zM617 396l-61 -348q32 -17 82 -17q92 0 161 81t69 197q0 57 -26 97.5t-87 40.5q-74 0 -138 -51zM343 438h-192
q-106 -583 -108 -592q-1 -4 -5 -5l-36 -3q-4 0 -3 4l107 596h-69q-6 0 -5 5l6 32q1 4 5 4h70l10 49q23 114 65 159t104 45q31 0 47 -8q5 -2 3 -7l-7 -31q-2 -5 -6 -4q-20 8 -41 8q-41 0 -71.5 -32.5t-50.5 -134.5l-8 -44h191l10 49q23 114 65.5 159t104.5 45q30 0 46 -8
q5 -2 3 -7l-7 -31q-2 -5 -5 -4q-22 8 -42 8q-41 0 -71 -32.5t-50 -134.5l-9 -44h94q5 0 4 -4l-5 -32q-1 -5 -5 -5h-95q-107 -587 -108 -592q-1 -4 -5 -5l-36 -3q-3 0 -3 4z" />
    <glyph glyph-name="f_f_h" unicode="ffh" horiz-adv-x="978" 
d="M503 4l125 713q1 5 5 6q3 0 18 1.5t19 2.5q5 0 4 -4l-59 -334q80 99 180 99q56 0 90.5 -39.5t17.5 -140.5l-55 -303q-1 -5 -5 -5h-37q-4 0 -4 5l56 307q23 136 -75 136q-89 0 -169 -105q-9 -14 -12 -34l-54 -305q-1 -4 -5 -4h-36q-4 0 -4 4zM343 438h-192
q-106 -583 -108 -592q-1 -4 -5 -5l-36 -3q-4 0 -3 4l107 596h-69q-6 0 -5 5l6 32q1 4 5 4h70l10 49q23 114 65 159t104 45q31 0 47 -8q5 -2 3 -7l-7 -31q-2 -5 -6 -4q-20 8 -41 8q-41 0 -71.5 -32.5t-50.5 -134.5l-8 -44h192l9 49q23 114 65.5 159t104.5 45q30 0 46 -8
q5 -2 3 -7l-7 -31q-2 -5 -5 -4q-22 8 -42 8q-41 0 -71 -32.5t-50 -134.5l-9 -44h94q5 0 4 -4l-5 -32q-1 -5 -5 -5h-95q-107 -587 -108 -592q-1 -4 -5 -5l-36 -3q-3 0 -3 4z" />
    <glyph glyph-name="f_f_j" unicode="ffj" horiz-adv-x="677" 
d="M587 475q1 4 4 4h37q4 0 3 -5l-90 -512q-23 -129 -75 -175q-32 -27 -86 -27q-11 0 -15 1q-3 1 -3 6l6 33q1 3 4 3q48 0 76.5 29.5t44.5 119.5zM633 605q-14 0 -22 9.5t-6 23.5q5 31 35 31q14 0 21.5 -9.5t5.5 -23.5q-1 -13 -10 -22t-24 -9zM343 438h-192
q-106 -583 -108 -592q-1 -4 -5 -5l-36 -3q-4 0 -3 4l107 596h-69q-6 0 -5 5l6 32q1 4 5 4h70l10 49q23 114 65 159t104 45q31 0 47 -8q5 -2 3 -7l-7 -31q-2 -5 -6 -4q-20 8 -41 8q-41 0 -71.5 -32.5t-50.5 -134.5l-8 -44h192l9 49q23 114 65.5 159t104.5 45q30 0 46 -8
q5 -2 3 -7l-7 -31q-2 -5 -5 -4q-22 8 -42 8q-41 0 -71 -32.5t-50 -134.5l-9 -44h94q5 0 4 -4l-5 -32q-1 -5 -5 -5h-95q-107 -587 -108 -592q-1 -4 -5 -5l-36 -3q-3 0 -3 4z" />
    <glyph glyph-name="f_f_k" unicode="ffk" horiz-adv-x="881" 
d="M866 479h46q9 0 3 -6q-201 -173 -257 -224q181 -226 196 -244q3 -5 -3 -5h-44q-5 0 -8 3l-192 240q-4 4 1 9l250 223q4 4 8 4zM673 724l-124 -720q-1 -4 -6 -4h-35q-6 0 -5 5l124 713q1 4 5 5q36 4 38 4q3 0 3 -3zM343 438h-192q-106 -583 -108 -592q-1 -4 -5 -5l-36 -3
q-4 0 -3 4l107 596h-69q-6 0 -5 5l6 32q1 4 5 4h70l10 49q23 114 65 159t104 45q31 0 47 -8q5 -2 3 -7l-7 -31q-2 -5 -6 -4q-20 8 -41 8q-41 0 -71.5 -32.5t-50.5 -134.5l-8 -44h192l9 49q23 114 65.5 159t104.5 45q30 0 46 -8q5 -2 3 -7l-7 -31q-2 -5 -5 -4q-22 8 -42 8
q-41 0 -71 -32.5t-50 -134.5l-9 -44h94q5 0 4 -4l-5 -32q-1 -5 -5 -5h-95q-107 -587 -108 -592q-1 -4 -5 -5l-36 -3q-3 0 -3 4z" />
    <glyph glyph-name="f_f_t" unicode="fft" horiz-adv-x="713" 
d="M387 438q-107 -587 -108 -592q-1 -4 -5 -5l-36 -3q-3 0 -3 4l108 596h-192q-106 -583 -108 -592q-1 -4 -5 -5l-36 -3q-4 0 -3 4l108 596h-70q-5 0 -4 5l5 32q1 4 5 4h70l10 50q23 113 64.5 158t102.5 45q33 0 49 -9q3 -1 3 -6l-7 -31q-3 -5 -5 -5q-16 8 -42 8
q-19 0 -34 -5t-32.5 -20.5t-31.5 -50.5t-24 -89l-8 -45h192l10 49q22 113 63.5 158.5t103.5 45.5q34 0 48 -9q5 -1 3 -6l-6 -31q-2 -6 -6 -5q-16 8 -41 8q-19 0 -34 -5t-32.5 -20.5t-31.5 -50.5t-24 -89l-8 -45h191q3 19 7.5 42t9 48t6.5 36q1 4 5 4q24 3 39 10q4 2 4 -3
q-12 -51 -26 -137h96q6 0 4 -5l-6 -31q-1 -5 -6 -5h-96l-59 -332q-11 -75 43 -75q29 0 56 13q5 2 5 -3l-6 -30q-1 -6 -5 -8q-22 -13 -64 -13t-63 29t-9 93l57 326h-191z" />
    <glyph glyph-name="t_t" unicode="tt" horiz-adv-x="483" 
d="M401 479h97q5 0 3 -5l-6 -31q-1 -5 -5 -5h-96l-59 -332q-13 -75 42 -75q30 0 57 13q4 2 4 -3l-5 -30q-1 -4 -5 -8q-23 -13 -65 -13q-93 0 -72 122l58 326h-103h-23h-73l-59 -332q-13 -75 43 -75q29 0 56 13q4 1 4 -3l-5 -30q-1 -4 -5 -8q-23 -13 -65 -13q-41 0 -62 29
t-9 93l57 326h-68q-5 0 -4 5l7 32q1 4 5 4h68q3 19 7.5 42t9 48t6.5 36q1 4 4 4q24 3 40 10q3 1 3 -3q-5 -25 -26 -137h75h22h102q3 14 8 41.5t9 48.5t7 36q1 4 4 4q24 3 39 10q4 1 4 -3q-12 -51 -26 -137z" />
    <glyph glyph-name=".notdef" horiz-adv-x="500" 
d="M0 0v700h500v-700h-500zM80 50h340l-170 255zM279 350l171 -255v510zM50 605v-510l170 255zM80 650l170 -255l170 255h-340z" />
    <glyph glyph-name=".null" horiz-adv-x="0" 
 />
    <glyph glyph-name="nonmarkingreturn" horiz-adv-x="333" 
 />
    <glyph glyph-name="space" unicode=" " horiz-adv-x="234" 
 />
    <glyph glyph-name="space" unicode="&#xa0;" horiz-adv-x="234" 
 />
    <glyph glyph-name="exclam" unicode="!" horiz-adv-x="249" 
d="M216 691q13 0 21 -4q4 -1 2 -6l-14 -77q-10 -59 -41.5 -225t-37.5 -190q0 -4 -5 -4h-29q-4 0 -4 4q23 150 68 411l14 80q2 5 5 7q8 4 21 4zM98 -10q-14 0 -22 9t-7 24q4 31 35 31q14 0 22 -9.5t7 -22.5q-3 -32 -35 -32z" />
    <glyph glyph-name="quotedbl" unicode="&#x22;" horiz-adv-x="255" 
d="M76 484l53 235q1 4 4 4h36q4 0 4 -4l-56 -235q-1 -4 -4 -4h-34q-3 0 -3 4zM195 484l52 235q1 4 5 4h36q3 0 3 -4l-56 -235q-1 -4 -4 -4h-34q-2 0 -2 4z" />
    <glyph glyph-name="numbersign" unicode="#" horiz-adv-x="480" 
d="M72 39h-29q-5 0 -3 5l68 184h-84q-4 0 -4 6l3 28q0 5 4 5h95l53 148h-85q-4 0 -3 4l3 30q0 4 4 4h96l60 165q2 5 5 5h30q3 0 2 -6l-59 -164h130l59 166q1 4 5 4h28q5 0 3 -5l-60 -165h81q4 0 4 -5l-3 -29q0 -4 -5 -4h-91l-53 -148h79q4 0 4 -5l-3 -30q0 -4 -5 -4h-88
l-67 -185q-2 -4 -5 -4h-29q-6 0 -3 5l67 184h-130l-69 -186q-1 -3 -5 -3zM212 415l-53 -148h130l54 148h-131z" />
    <glyph glyph-name="dollar" unicode="$" horiz-adv-x="443" 
d="M167 -94h-29q-6 0 -4 4l17 95q-94 7 -152 54q-3 3 -3 9l7 36q2 6 6 2q32 -29 77.5 -45t88.5 -16q74 0 116 32t42 90q1 47 -28 78t-94 67q-71 39 -104 73.5t-33 93.5q0 67 50.5 112.5t135.5 46.5l16 85q0 5 5 5h28q6 0 5 -5l-15 -86q76 -7 117 -42q1 -1 1 -7l-8 -36
q0 -2 -1.5 -3t-3.5 1q-57 48 -145 48q-69 0 -105 -33.5t-37 -81.5q0 -43 26.5 -69.5t88.5 -61.5q74 -40 110 -78.5t36 -104.5q-1 -73 -53 -116.5t-135 -46.5l-16 -97q-2 -3 -7 -3z" />
    <glyph glyph-name="percent" unicode="%" horiz-adv-x="760" 
d="M671 635l-526 -632q-3 -3 -7 -3h-35q-6 0 -2 6l527 631q3 3 8 3h34q2 0 2.5 -2t-1.5 -3zM248 650q55 0 84 -39t29 -99q0 -82 -46 -153t-128 -71q-55 0 -84.5 37.5t-29.5 97.5q1 91 50.5 159t124.5 68zM244 614q-54 0 -93 -57t-39 -134q0 -42 19.5 -70t63.5 -28
q56 0 92 56.5t35 130.5q0 42 -18.5 71.5t-59.5 30.5zM583 351q55 0 84.5 -38.5t29.5 -98.5q0 -51 -17.5 -100.5t-59 -86.5t-98.5 -37q-54 0 -83.5 37.5t-29.5 97.5q1 91 50.5 158.5t123.5 67.5zM579 316q-54 0 -92.5 -57.5t-38.5 -133.5q0 -42 19.5 -70t62.5 -28
q57 0 93 56.5t35 131.5q0 41 -19 70.5t-60 30.5z" />
    <glyph glyph-name="ampersand" unicode="&#x26;" horiz-adv-x="632" 
d="M326 674q68 0 103 -23q3 -3 2 -7l-7 -32q-1 -6 -6 -3q-39 24 -95 24q-53 0 -85.5 -29.5t-32.5 -83.5q0 -58 59 -127h321q4 0 2 -5l-13 -31q-2 -5 -6 -5h-272q47 -57 129 -203q39 -70 60.5 -93.5t50.5 -23.5q20 0 32 5q2 1 3 0t0 -3l-5 -32q-1 -4 -6 -6q-12 -6 -34 -6
q-36 0 -64 24.5t-71 104.5q-93 172 -151 230q-20 0 -45.5 -9.5t-52.5 -27.5t-45 -52t-18 -77q0 -66 41 -108t108 -42q60 0 105 21q3 2 3 -3l-6 -36q-1 -3 -4 -6q-40 -19 -109 -19q-78 0 -131 51t-53 138q0 81 51.5 135t128.5 73q-53 70 -53 132q0 71 47 113t119 42z" />
    <glyph glyph-name="quotesingle" unicode="'" horiz-adv-x="142" 
d="M76 484l53 235q1 4 4 4h37q4 0 4 -4l-56 -235q-1 -4 -4 -4h-35q-3 0 -3 4z" />
    <glyph glyph-name="parenleft" unicode="(" horiz-adv-x="294" 
d="M313 765h42q8 0 1 -5q-276 -262 -264 -600q3 -82 29.5 -173t66.5 -156q2 -4 -3 -4h-36q-7 0 -8 3q-33 52 -61 143t-31 186q-6 185 66.5 339t190.5 264q4 3 7 3z" />
    <glyph glyph-name="parenright" unicode=")" horiz-adv-x="294" 
d="M-21 -173h-41q-9 0 -2 5q276 262 264 600q-3 82 -29.5 173t-65.5 155q-3 5 2 5h37q6 0 7 -4q33 -51 61 -142.5t31 -185.5q6 -185 -66.5 -339.5t-189.5 -263.5q-4 -3 -8 -3z" />
    <glyph glyph-name="asterisk" unicode="*" horiz-adv-x="349" 
d="M231 479l94 -146q3 -3 -1 -6l-28 -16q-6 -3 -8 2l-85 151l-118 -112q-3 -3 -7 0l-21 23q-2 5 0 7l123 106l-133 69q-5 2 -2 6l17 30q1 4 5 2l127 -79l20 156q0 4 5 3l37 -6q3 0 3 -5l-31 -154l145 24q3 2 6 -2l5 -33q0 -5 -4 -5z" />
    <glyph glyph-name="plus" unicode="+" horiz-adv-x="552" 
d="M253 511h32q5 0 5 -5v-227h219q4 0 4 -5v-29q0 -4 -4 -4h-219v-230q0 -4 -5 -4h-32q-5 0 -5 4v230h-220q-5 0 -5 4v30q0 4 5 4h220v228q0 4 5 4z" />
    <glyph glyph-name="comma" unicode="," horiz-adv-x="134" 
d="M-44 -158h-36q-6 0 -3 5q81 118 90 242q0 5 5 5h36q5 0 5 -5q-8 -137 -91 -244q-3 -3 -6 -3z" />
    <glyph glyph-name="hyphen" unicode="-" horiz-adv-x="293" 
d="M239 228h-212q-5 0 -4 5l5 33q1 4 5 4h213q5 0 4 -5l-6 -33q-1 -4 -5 -4z" />
    <glyph glyph-name="period" unicode="." horiz-adv-x="134" 
d="M20 -10q-14 0 -22.5 9.5t-6.5 23.5q4 32 34 32q15 0 23 -9.5t7 -23.5q-3 -32 -35 -32z" />
    <glyph glyph-name="slash" unicode="/" horiz-adv-x="393" 
d="M424 717l-385 -754q-3 -3 -6 -3h-38q-2 0 -1 5l386 753q1 4 5 4h36q8 0 3 -5z" />
    <glyph glyph-name="zero" unicode="0" horiz-adv-x="484" 
d="M293 608q-57 0 -105 -58t-74 -149.5t-26 -192.5q0 -84 29 -129.5t84 -45.5q50 0 91.5 42t64.5 105.5t35.5 129.5t11.5 123q-2 175 -111 175zM196 -10q-78 0 -115.5 58t-37.5 161q0 73 16 148.5t46.5 142t81.5 108.5t113 42q75 0 111.5 -60t37.5 -157q0 -51 -8 -108.5
t-27.5 -117.5t-48 -108t-72.5 -78.5t-97 -30.5z" />
    <glyph glyph-name="one" unicode="1" horiz-adv-x="263" 
d="M57 552l6 32q3 4 5 5q70 16 127 54q4 2 8 2h26q3 0 2 -3l-112 -638q0 -4 -4 -4h-36q-5 0 -5 4l105 587q-49 -29 -117 -43q-5 -1 -5 4z" />
    <glyph glyph-name="two" unicode="2" horiz-adv-x="423" 
d="M349 0h-384q-3 0 -3 4l6 27q1 3 4 6q110 78 224 183q81 73 113 133.5t32 119.5q0 60 -35 97.5t-97 37.5q-85 0 -148 -44q-2 -2 -3 0v3l7 39q1 5 4 7q66 37 148 37q73 0 121 -45.5t48 -126.5q0 -70 -35.5 -136.5t-118.5 -141.5q-96 -89 -190 -160q32 1 125 1h197q4 0 2 -3
l-13 -35q-1 -3 -4 -3z" />
    <glyph glyph-name="three" unicode="3" horiz-adv-x="438" 
d="M158 319h-30q-5 0 -3 5l8 33q1 4 4 4h27q79 0 130 37.5t51 102.5q0 51 -34 79t-94 28q-76 0 -135 -35q-2 -2 -3.5 -1t-0.5 4l8 37q2 5 4 6q56 31 138 31q69 0 114.5 -38t45.5 -106q0 -71 -44.5 -113t-95.5 -53q59 -16 95.5 -56t36.5 -101q0 -86 -63.5 -139.5
t-167.5 -53.5q-96 0 -163 43q-4 3 -3 8l9 37q2 4 5 1q61 -46 156 -46q91 0 136.5 45t45.5 104q0 66 -52 101.5t-125 35.5z" />
    <glyph glyph-name="four" unicode="4" horiz-adv-x="476" 
d="M13 194l5 26q1 4 4 7l354 411q3 3 6 3h46q4 0 4 -4l-72 -408h85q6 0 2 -4l-10 -31q-1 -3 -5 -3h-78l-33 -188q-1 -3 -5 -3h-35q-3 0 -3 4l32 187h-294q-3 0 -3 3zM72 229h245q54 302 71 373q-20 -30 -120.5 -148.5t-195.5 -224.5z" />
    <glyph glyph-name="five" unicode="5" horiz-adv-x="429" 
d="M143 641h252q4 0 4 -4l-14 -36q-1 -3 -4 -3h-216q-4 -10 -65 -176q61 -15 105 -32t85 -43.5t62 -65.5t21 -90q0 -89 -61 -145t-159 -56q-95 0 -159 43q-3 2 -2 6l9 37q1 4 5 2q64 -45 151 -45q78 0 124.5 43.5t46.5 110.5q0 44 -19.5 77.5t-60 57t-85 39t-110.5 30.5
q-6 0 -4 5l89 242q2 3 5 3z" />
    <glyph glyph-name="six" unicode="6" horiz-adv-x="481" 
d="M228 31q70 0 114.5 52t44.5 125q0 64 -34.5 105.5t-103.5 41.5q-83 0 -150 -51q-12 -46 -12 -98q0 -74 35 -124.5t106 -50.5zM427 645l-9 -35q-1 -4 -5 -5q-102 -29 -181.5 -95t-116.5 -158q62 43 145 43q76 0 123.5 -48.5t47.5 -133.5q0 -91 -58.5 -157.5t-149.5 -66.5
q-82 0 -131 57.5t-49 156.5q0 157 107 281.5t274 164.5q2 1 2.5 0t0.5 -4z" />
    <glyph glyph-name="seven" unicode="7" horiz-adv-x="394" 
d="M60 641h376q4 0 4 -4l-6 -25q-1 -4 -3 -8q-54 -91 -194 -314t-179 -287q-2 -3 -5 -3h-43q-3 0 -2 4q121 194 211.5 337.5t123 194.5t38.5 62h-332q-4 0 -3 4l10 36q2 3 4 3z" />
    <glyph glyph-name="eight" unicode="8" horiz-adv-x="459" 
d="M268 608q-62 0 -100 -41t-38 -102q0 -63 43 -103q8 -7 17 -7h105q9 0 16 5q71 50 72 134q0 50 -30.5 82t-84.5 32zM201 33q68 0 114.5 41.5t46.5 111.5q0 74 -59 121q-10 7 -22 7h-102q-11 0 -18 -4q-42 -21 -70.5 -62t-27.5 -91q0 -56 37 -90t101 -34zM271 650
q69 0 112 -42t42 -110q0 -105 -93 -166q30 -21 52 -60.5t22 -83.5q1 -88 -58 -143t-151 -55q-79 0 -129 43.5t-50 121.5q0 115 122 185q-54 52 -54 126q0 75 50.5 129.5t134.5 54.5z" />
    <glyph glyph-name="nine" unicode="9" horiz-adv-x="468" 
d="M375 325q15 51 15 109q1 72 -31 123t-103 51q-72 0 -116 -55t-44 -126q0 -65 37.5 -105t102.5 -40q79 0 139 43zM67 -6l8 37q2 3 3 4q93 32 168 94.5t113 149.5q-59 -37 -135 -37t-124.5 48.5t-48.5 134.5q0 89 58.5 157t151.5 68q82 0 128 -59t46 -157q0 -87 -33 -164.5
t-87 -132t-116.5 -91.5t-127.5 -55q-4 -1 -4 3z" />
    <glyph glyph-name="colon" unicode=":" horiz-adv-x="194" 
d="M50 -10q-13 0 -21.5 9.5t-7.5 23.5q4 32 35 32q14 0 22 -9.5t7 -23.5q-2 -32 -35 -32zM120 366q-14 0 -22.5 9t-7.5 24q5 32 35 32q14 0 22 -9.5t7 -23.5q-2 -32 -34 -32z" />
    <glyph glyph-name="semicolon" unicode=";" horiz-adv-x="194" 
d="M120 365q-14 0 -22 9.5t-7 24.5q4 32 35 32q14 0 22 -9.5t7 -23.5q-2 -33 -35 -33zM1 -158h-36q-6 0 -3 4q81 119 90 243q0 5 5 5h36q5 0 5 -5q-8 -137 -91 -244q-3 -3 -6 -3z" />
    <glyph glyph-name="less" unicode="&#x3c;" horiz-adv-x="543" 
d="M40 244v32q0 4 3 5l426 229q5 2 5 -2v-35q0 -4 -4 -6l-385 -206v-1l386 -207q3 -1 3 -5v-35q0 -4 -4 -3l-426 229q-4 1 -4 5z" />
    <glyph glyph-name="equal" unicode="=" horiz-adv-x="546" 
d="M22 366q0 4 6 4h475q4 0 4 -4v-29q0 -5 -7 -5h-473q-5 0 -5 4v30zM22 183q0 5 6 5h474q5 0 5 -5v-29q0 -5 -7 -5h-473q-5 0 -5 5v29z" />
    <glyph glyph-name="greater" unicode="&#x3e;" horiz-adv-x="543" 
d="M498 276v-30q0 -5 -4 -6l-426 -230q-4 -2 -4 3v33q0 4 3 6l385 207v2l-385 206q-3 1 -3 6v34q0 5 4 3l426 -229q4 -1 4 -5z" />
    <glyph glyph-name="question" unicode="?" horiz-adv-x="413" 
d="M259 674q69 0 114 -36t45 -99q0 -52 -27.5 -87t-100.5 -84q-66 -45 -85.5 -65.5t-19.5 -38.5q1 -32 31 -75q1 -4 -2 -4h-36q-4 0 -6 3q-31 41 -31 80q0 15 4.5 26.5t30.5 36.5t74 57q74 50 99 79.5t25 68.5q0 44 -32.5 70t-88.5 26q-79 0 -145 -41q-5 -3 -5 2l8 39
q2 6 4 7q55 35 144 35zM170 -10q-14 0 -22.5 9.5t-6.5 23.5q4 31 34 31q14 0 22.5 -9.5t7.5 -22.5q-3 -32 -35 -32z" />
    <glyph glyph-name="at" unicode="@" horiz-adv-x="800" 
d="M462 31l65 364q-24 6 -51 6q-93 0 -148 -65t-54 -148q0 -74 43 -115t122 -42h23zM440 614q140 0 226.5 -85.5t86.5 -225.5q1 -146 -90 -230t-221 -84q-96 0 -154 50.5t-58 147.5q0 104 71.5 178.5t180.5 74.5q52 0 88 -14q3 -2 3 -5l-69 -386q30 4 62 19t66.5 44t56.5 82
t22 121q0 122 -72.5 198t-204.5 76q-141 0 -240 -105t-99 -267q0 -116 55.5 -204.5t161.5 -139.5q3 -2 3 -7l-6 -31q0 -6 -5 -4q-113 44 -182 147t-69 239q0 175 111 293t276 118z" />
    <glyph glyph-name="A" unicode="A" horiz-adv-x="550" 
d="M407 248h-252l-129 -245q-2 -3 -4 -3h-40q-6 0 -3 4l333 632q4 6 8 25q0 4 4 4h54q4 0 4 -4l113 -657q1 -4 -3 -4h-37q-4 0 -6 4zM175 290h227q-51 297 -55 335h-1q-11 -29 -171 -335z" />
    <glyph glyph-name="B" unicode="B" horiz-adv-x="512" 
d="M35 7l113 652q1 4 5 5q74 2 119 2q84 1 138 -40t54 -120q0 -59 -31.5 -101t-67.5 -58q35 -16 64 -53t29 -96q0 -98 -74.5 -149.5t-199.5 -50.5q-58 0 -145 3q-5 0 -4 6zM137 335l-50 -294q66 -2 104 -2q101 0 161 39.5t60 117.5q0 96 -93 126q-38 13 -108 13h-74z
M189 624l-44 -248h79q60 0 104 -11q91 43 91 137q0 63 -43 94t-109 30h-19.5t-25 -1t-33.5 -1z" />
    <glyph glyph-name="B" unicode="&#xe000;" horiz-adv-x="512" 
d="M35 7l113 652q1 4 5 5q74 2 119 2q84 1 138 -40t54 -120q0 -59 -31.5 -101t-67.5 -58q35 -16 64 -53t29 -96q0 -98 -74.5 -149.5t-199.5 -50.5q-58 0 -145 3q-5 0 -4 6zM137 335l-50 -294q66 -2 104 -2q101 0 161 39.5t60 117.5q0 96 -93 126q-38 13 -108 13h-74z
M189 624l-44 -248h79q60 0 104 -11q91 43 91 137q0 63 -43 94t-109 30h-19.5t-25 -1t-33.5 -1z" />
    <glyph glyph-name="C" unicode="C" horiz-adv-x="521" 
d="M460 58l-8 -37q-2 -5 -4 -6q-47 -25 -136 -25q-119 0 -191.5 72.5t-72.5 211.5q0 108 44 198t131.5 146t201.5 56q86 0 118 -21q3 -2 2 -6l-8 -34q-1 -5 -5 -3q-44 21 -112 21q-148 0 -236.5 -101.5t-88.5 -255.5q0 -107 57.5 -173.5t165.5 -66.5q88 0 138 28q2 1 3.5 0
t0.5 -4z" />
    <glyph glyph-name="D" unicode="D" horiz-adv-x="613" 
d="M34 6l116 654q0 4 3 5q42 2 120 2q138 0 222.5 -74t84.5 -223q0 -186 -136 -294q-99 -78 -278 -78q-58 0 -126 2q-6 0 -6 6zM190 623l-103 -581q45 -3 88 -3q151 0 234 64q59 45 91.5 115.5t32.5 151.5q0 122 -69.5 188.5t-196.5 66.5q-43 0 -77 -2z" />
    <glyph glyph-name="E" unicode="E" horiz-adv-x="468" 
d="M410 38l-13 -34q-1 -4 -4 -4h-354q-5 0 -5 5l115 656q1 4 5 4h318q3 0 5 -4l3 -34q0 -5 -3 -5h-289l-46 -261h262q4 0 3 -5l-7 -34q-2 -4 -5 -4h-261l-47 -276h321q6 0 2 -4z" />
    <glyph glyph-name="E" unicode="&#xe001;" horiz-adv-x="468" 
d="M410 38l-13 -34q-1 -4 -4 -4h-354q-5 0 -5 5l115 656q1 4 5 4h318q3 0 5 -4l3 -34q0 -5 -3 -5h-289l-46 -261h262q4 0 3 -5l-7 -34q-2 -4 -5 -4h-261l-47 -276h321q6 0 2 -4z" />
    <glyph glyph-name="F" unicode="F" horiz-adv-x="455" 
d="M133 309l-52 -304q-1 -5 -5 -5h-37q-7 0 -5 5l114 656q1 4 6 4h329q5 0 6 -5l2 -34q0 -4 -3 -4h-300l-46 -271h265q3 0 3 -4l-6 -35q-1 -3 -5 -3h-266z" />
    <glyph glyph-name="G" unicode="G" 
d="M501 284l-175 1q-4 0 -3 3l5 34q1 3 5 3h217q3 0 3 -4l-49 -287q-2 -6 -7 -9q-71 -35 -174 -35q-124 0 -199.5 77t-75.5 213q0 166 103.5 280t274.5 114q110 0 159 -32q2 -2 1 -8l-8 -33q-2 -6 -6 -2q-56 32 -149 32q-150 0 -239.5 -101t-89.5 -249q0 -109 62 -179
t174 -70q82 0 131 25z" />
    <glyph glyph-name="H" unicode="H" horiz-adv-x="623" 
d="M485 0h-38q-5 0 -5 5l55 314h-362l-55 -315q-1 -4 -4 -4h-38q-6 0 -4 5l115 656q1 4 4 4h38q4 0 4 -4l-53 -300h363l52 300q1 4 5 4h38q4 0 4 -5l-116 -655q0 -5 -3 -5z" />
    <glyph glyph-name="I" unicode="I" horiz-adv-x="213" 
d="M195 661l-116 -657q0 -4 -4 -4h-36q-5 0 -5 5l115 656q1 4 5 4h38q3 0 3 -4z" />
    <glyph glyph-name="J" unicode="J" horiz-adv-x="260" 
d="M207 665h37q5 0 5 -5l-87 -495q-16 -79 -32 -112q-43 -92 -147 -92q-29 0 -50 8q-4 1 -3 6l8 35q2 3 5 2q20 -6 42 -6q61 0 88.5 39.5t42.5 121.5l87 493q0 5 4 5z" />
    <glyph glyph-name="K" unicode="K" horiz-adv-x="510" 
d="M195 660l-116 -656q-1 -4 -4 -4h-37q-5 0 -4 5l115 655q1 5 5 5h38q4 0 3 -5zM429 3l-269 331q-3 6 1 11l353 317q3 3 7 3h45q6 0 2 -6l-358 -319l275 -335q3 -5 -2 -5h-45q-6 0 -9 3z" />
    <glyph glyph-name="L" unicode="L" horiz-adv-x="431" 
d="M195 661l-108 -619h311q6 0 2 -4l-12 -34q-1 -4 -5 -4h-344q-5 0 -5 5l115 656q2 4 4 4h38q4 0 4 -4z" />
    <glyph glyph-name="M" unicode="M" horiz-adv-x="786" 
d="M315 4q-82 614 -84 628h-1q-15 -64 -173 -628q-1 -4 -4 -4h-38q-5 0 -4 6l188 655q1 4 5 4h59q5 0 5 -4q76 -493 83 -608h1q23 55 309 608q1 4 6 4h56q4 0 5 -5l-50 -655q0 -5 -3 -5h-39q-4 0 -4 5q38 498 54 626h-1q-33 -80 -317 -627q-1 -4 -5 -4h-42q-5 0 -6 4z" />
    <glyph glyph-name="N" unicode="N" horiz-adv-x="625" 
d="M149 661q1 4 5 4h53q5 0 6 -3q237 -586 244 -614h1q3 44 103 613q1 4 4 4h38q5 0 3 -5l-115 -655q-1 -5 -5 -5h-50q-6 0 -8 4q-234 575 -244 620h-1q-3 -40 -104 -620q-1 -4 -4 -4h-37q-4 0 -4 5z" />
    <glyph glyph-name="O" unicode="O" horiz-adv-x="628" 
d="M375 675q106 0 167 -74t61 -199q0 -108 -37.5 -200.5t-113 -152t-173.5 -59.5q-107 0 -169.5 71t-62.5 192q-1 108 38 203.5t115.5 157t174.5 61.5zM368 632q-119 0 -197 -112t-78 -266q0 -93 47.5 -157t143.5 -64q84 0 148.5 55.5t95 137.5t29.5 173q0 100 -45.5 166.5
t-143.5 66.5z" />
    <glyph glyph-name="P" unicode="P" horiz-adv-x="493" 
d="M34 5l115 653q1 6 6 6q87 3 108 3q96 0 158.5 -44.5t62.5 -136.5q0 -102 -75.5 -161t-202.5 -59q-34 0 -80 2l-46 -264q-1 -4 -4 -4h-39q-3 0 -3 5zM190 624l-56 -313q38 -3 79 -3q100 -1 163 45.5t63 130.5q0 69 -48 105.5t-132 36.5q-13 0 -35 -1t-34 -1z" />
    <glyph glyph-name="Q" unicode="Q" horiz-adv-x="635" 
d="M93 254q0 -93 47.5 -157t143.5 -64q84 0 148.5 55.5t95 137.5t29.5 173q0 100 -45.5 166.5t-143.5 66.5q-119 0 -197 -112t-78 -266zM573 -143h-56q-4 0 -8 3q-9 9 -63 55.5t-95 83.5q-35 -9 -72 -9q-107 0 -169.5 71t-62.5 192q-1 108 38 203.5t115.5 157t174.5 61.5
q106 0 167 -74t61 -199q0 -128 -54.5 -234.5t-149.5 -151.5q126 -112 176 -153q4 -4 -2 -6z" />
    <glyph glyph-name="R" unicode="R" horiz-adv-x="506" 
d="M131 299l-52 -295q0 -4 -4 -4h-37q-4 0 -4 5l115 655q0 5 4 5q68 2 126 2q87 0 145.5 -40.5t58.5 -128.5q0 -77 -52 -127t-129 -65q3 -5 23 -46t56.5 -112t76.5 -143q2 -5 -2 -5h-42q-4 0 -8 4q-105 205 -145 285q-4 10 -14 10h-116zM189 623l-50 -283h100q92 0 145 43.5
t53 110.5q0 131 -168 131q-34 0 -80 -2z" />
    <glyph glyph-name="S" unicode="S" horiz-adv-x="428" 
d="M-2 44l9 39q2 3 5 1q64 -50 155 -50q74 0 115.5 39t41.5 97q0 46 -25.5 79.5t-83.5 72.5q-71 46 -103 83.5t-32 99.5q0 70 50.5 119.5t140.5 49.5q89 0 134 -33q3 -2 2 -6l-8 -37q-2 -6 -4 -2q-53 36 -129 36q-71 0 -106 -38.5t-35 -87.5q0 -43 24.5 -72.5t81.5 -66.5
q73 -47 106.5 -88.5t33.5 -105.5q-1 -77 -56.5 -130t-152.5 -53q-96 0 -161 47q-3 3 -3 7z" />
    <glyph glyph-name="S" unicode="&#xe002;" horiz-adv-x="428" 
d="M-2 44l9 39q2 3 5 1q64 -50 155 -50q74 0 115.5 39t41.5 97q0 46 -25.5 79.5t-83.5 72.5q-71 46 -103 83.5t-32 99.5q0 70 50.5 119.5t140.5 49.5q89 0 134 -33q3 -2 2 -6l-8 -37q-2 -6 -4 -2q-53 36 -129 36q-71 0 -106 -38.5t-35 -87.5q0 -43 24.5 -72.5t81.5 -66.5
q73 -47 106.5 -88.5t33.5 -105.5q-1 -77 -56.5 -130t-152.5 -53q-96 0 -161 47q-3 3 -3 7z" />
    <glyph glyph-name="T" unicode="T" horiz-adv-x="459" 
d="M148 5l108 617h-207q-5 0 -3 6l11 33q1 4 5 4h459q4 0 4 -4l3 -35q0 -4 -4 -4h-222l-109 -618q0 -4 -4 -4h-36q-5 0 -5 5z" />
    <glyph glyph-name="U" unicode="U" 
d="M185 661l-74 -421q-18 -104 27.5 -155.5t126.5 -51.5q37 0 66 7.5t59 28.5t51.5 65.5t33.5 111.5l74 414q0 5 4 5h37q6 0 4 -6l-75 -419q-24 -134 -87 -192t-170 -58q-103 0 -161 63.5t-36 184.5l74 423q1 4 5 4h38q3 0 3 -4z" />
    <glyph glyph-name="V" unicode="V" horiz-adv-x="548" 
d="M222 44q21 47 327 617q1 4 5 4h40q6 0 3 -5l-354 -656q-3 -4 -6 -4h-44q-5 0 -7 4l-124 657q0 4 3 4h38q4 0 5 -4q100 -526 114 -617z" />
    <glyph glyph-name="W" unicode="W" horiz-adv-x="820" 
d="M497 661q41 -464 47 -620h1q36 91 266 620q1 4 5 4h40q4 0 4 -5l-291 -656q-1 -4 -4 -4h-51q-7 0 -8 5q-45 545 -48 617h-1q-20 -66 -266 -618q-1 -4 -5 -4h-51q-5 0 -5 4l-56 657q0 4 5 4h38q4 0 4 -4q47 -592 48 -619h1q30 84 267 619q1 4 5 4h51q4 0 4 -4z" />
    <glyph glyph-name="X" unicode="X" horiz-adv-x="473" 
d="M536 660l-263 -322l159 -333q2 -5 -2 -5h-41q-6 0 -7 4q-77 165 -142 300h-3q-206 -261 -237 -300q-3 -4 -7 -4h-45q-5 0 -2 5l270 336l-149 320q-2 4 3 4h41q4 0 5 -3q30 -66 133 -291h1q34 43 113.5 141t121.5 150q2 3 5 3h44q4 0 2 -5z" />
    <glyph glyph-name="Y" unicode="Y" horiz-adv-x="472" 
d="M195 0h-37q-4 0 -3 5l43 250q2 15 -2 25l-145 381q-1 4 3 4h40q4 0 5 -3q122 -323 131 -355q39 60 258 354q3 4 6 4h41q5 0 3 -5l-283 -382q-9 -11 -12 -28l-43 -245q-1 -5 -5 -5z" />
    <glyph glyph-name="Z" unicode="Z" horiz-adv-x="481" 
d="M424 0h-456q-4 0 -4 4l5 24q1 3 4 7q228 287 472 587h-372q-5 0 -3 5l12 34q1 4 5 4h422q4 0 3 -4l-3 -23q0 -2 -1 -3t-2.5 -3t-2.5 -4q-71 -87 -231.5 -287.5t-240.5 -298.5h408q4 0 2 -4l-12 -34q-1 -4 -5 -4z" />
    <glyph glyph-name="bracketleft" unicode="[" horiz-adv-x="312" 
d="M205 725l-152 -857l139 -1q4 0 3 -5l-5 -31q-1 -4 -6 -4h-174q-6 0 -5 6l163 925q0 6 7 6h174q4 0 3 -4l-5 -31q-1 -4 -5 -4h-137z" />
    <glyph glyph-name="backslash" unicode="\" horiz-adv-x="340" 
d="M199 -35l-90 752q0 5 5 5h31q6 0 6 -4l91 -751q0 -6 -5 -6h-34q-4 0 -4 4z" />
    <glyph glyph-name="bracketright" unicode="]" horiz-adv-x="312" 
d="M105 -134l151 857l-138 1q-4 0 -4 4l5 32q1 4 6 4h174q6 0 5 -7l-162 -924q-2 -6 -8 -6h-173q-5 0 -4 4l5 30q1 5 5 5h138z" />
    <glyph glyph-name="asciicircum" unicode="^" horiz-adv-x="473" 
d="M435 267h-35q-4 0 -7 5l-157 332h-1l-149 -332q-3 -5 -7 -5h-33q-6 0 -4 5l167 365q2 4 4 4h44q4 0 5 -4l176 -364q3 -6 -3 -6z" />
    <glyph glyph-name="underscore" unicode="_" horiz-adv-x="519" 
d="M-7 -74h511v-49h-511v49z" />
    <glyph glyph-name="grave" unicode="`" horiz-adv-x="388" 
d="M181 704l75 -143q0 -4 -3 -4h-35q-4 0 -6 3l-80 143q-2 5 3 5h41q4 0 5 -4z" />
    <glyph glyph-name="a" unicode="a" horiz-adv-x="476" 
d="M430 471l-78 -446q-2 -5 -6 -7q-60 -28 -130 -28q-86 0 -138 49.5t-52 146.5q0 119 88 210.5t224 91.5q56 0 91 -12q1 -1 1 -5zM310 47l70 396q-22 5 -49 5q-110 0 -185 -77t-75 -182q0 -75 38.5 -116.5t115.5 -41.5q52 0 85 16z" />
    <glyph glyph-name="b" unicode="b" horiz-adv-x="482" 
d="M33 29l120 690q1 4 5 5q24 4 38 4q2 0 2 -4l-49 -284q67 48 143 48q71 0 109 -48t38 -129q0 -132 -82 -226.5t-201 -94.5q-73 0 -120 30q-5 3 -3 9zM142 396l-60 -348q32 -17 81 -17q92 0 161 81t70 197q0 56 -26.5 97t-87.5 41q-72 0 -138 -51z" />
    <glyph glyph-name="b" unicode="&#xe003;" horiz-adv-x="482" 
d="M33 29l120 690q1 4 5 5q24 4 38 4q2 0 2 -4l-49 -284q67 48 143 48q71 0 109 -48t38 -129q0 -132 -82 -226.5t-201 -94.5q-73 0 -120 30q-5 3 -3 9zM142 396l-60 -348q32 -17 81 -17q92 0 161 81t70 197q0 56 -26.5 97t-87.5 41q-72 0 -138 -51z" />
    <glyph glyph-name="c" unicode="c" horiz-adv-x="368" 
d="M315 45l-7 -34q-2 -5 -6 -7q-36 -14 -87 -14q-86 0 -138 53t-52 149q0 125 77 210.5t190 85.5q53 0 78 -11q3 -2 2 -6l-8 -34q-1 -3 -6 -2q-30 11 -67 11q-94 0 -157 -71t-63 -178q0 -71 37 -117.5t113 -46.5q52 0 90 15q4 1 4 -3z" />
    <glyph glyph-name="d" unicode="d" horiz-adv-x="479" 
d="M477 725l-121 -696q-1 -6 -6 -8q-61 -31 -133 -31q-86 0 -139 51.5t-53 149.5q0 122 84.5 209.5t204.5 87.5q52 0 75 -8l43 239q1 4 4 5q36 4 38 4q3 0 3 -3zM313 50l69 387q-25 11 -76 11q-94 0 -165 -73t-71 -182q0 -74 38.5 -117.5t117.5 -43.5q53 0 87 18z" />
    <glyph glyph-name="e" unicode="e" horiz-adv-x="409" 
d="M331 64l-7 -37q-1 -5 -5 -7q-45 -30 -120 -30q-83 0 -128.5 51t-45.5 145q0 119 70 210.5t173 91.5q64 0 94.5 -31.5t30.5 -77.5q1 -83 -80.5 -123.5t-241.5 -32.5q-3 -23 -3 -46q2 -65 35.5 -104.5t102.5 -39.5q70 0 121 35q2 1 3 -0.5t1 -3.5zM76 261q83 -4 140 4
t85 26.5t38.5 38.5t10.5 45q0 73 -88 73q-65 0 -116 -51t-70 -136z" />
    <glyph glyph-name="f" unicode="f" horiz-adv-x="219" 
d="M106 438h-69q-6 0 -5 5l6 32q1 4 5 4h70l10 49q23 114 65 159t104 45q31 0 47 -8q5 -2 3 -7l-7 -31q-2 -5 -6 -4q-20 8 -41 8q-41 0 -71.5 -32.5t-50.5 -134.5l-8 -44h94q4 0 4 -4l-6 -32q-1 -5 -5 -5h-94q-106 -583 -108 -592q-1 -4 -5 -5l-36 -3q-4 0 -3 4z" />
    <glyph glyph-name="g" unicode="g" horiz-adv-x="479" 
d="M-32 -208l9 34q1 4 5 2q50 -29 118 -29q83 0 132 45q28 27 45.5 69.5t33.5 122.5q-50 -33 -116 -33q-76 0 -122.5 46.5t-46.5 136.5q0 123 84 212.5t210 89.5q69 0 111 -17q4 -2 4 -6q-7 -20 -8 -29l-69 -390q-18 -102 -39 -149q-59 -141 -223 -141q-74 0 -126 29
q-4 2 -2 7zM318 79l64 360q-20 9 -69 9q-98 0 -170 -74t-72 -183q2 -146 137 -146q60 0 110 34z" />
    <glyph glyph-name="h" unicode="h" horiz-adv-x="503" 
d="M28 4l125 713q1 5 5 6q3 0 11.5 1t15.5 2t10 1q5 0 4 -4l-59 -334q80 99 180 99q56 0 90.5 -39.5t17.5 -140.5l-54 -303q-1 -5 -6 -5h-36q-5 0 -5 5l57 307q21 136 -75 136q-91 0 -169 -105q-9 -14 -13 -34l-53 -305q-1 -4 -6 -4h-36q-4 0 -4 4z" />
    <glyph glyph-name="i" unicode="i" horiz-adv-x="202" 
d="M28 5l83 470q1 4 5 4h36q6 0 4 -6l-83 -469q-1 -4 -5 -4h-36q-4 0 -4 5zM158 605q-15 0 -23 9.5t-6 23.5q5 31 36 31q14 0 21 -9.5t5 -23.5q-1 -13 -10 -22t-23 -9z" />
    <glyph glyph-name="j" unicode="j" horiz-adv-x="203" 
d="M112 475q1 4 5 4h37q4 0 3 -5l-90 -512q-23 -129 -75 -175q-32 -27 -86 -27q-11 0 -16 1q-2 1 -2 6l6 33q0 3 4 3q48 0 76.5 29.5t44.5 119.5zM159 605q-14 0 -22 9.5t-6 23.5t11 22.5t24 8.5q14 0 21.5 -9.5t5.5 -23.5q-4 -31 -34 -31z" />
    <glyph glyph-name="k" unicode="k" horiz-adv-x="406" 
d="M392 479h46q2 0 3 -2t-1 -4q-159 -137 -257 -224q181 -226 196 -244q3 -5 -2 -5h-45q-5 0 -8 3l-192 240q-3 5 1 9l250 223q4 4 9 4zM198 724l-124 -720q-1 -4 -6 -4h-35q-5 0 -5 5l125 713q1 4 4 5q36 4 38 4q3 0 3 -3z" />
    <glyph glyph-name="l" unicode="l" horiz-adv-x="216" 
d="M157 34l-6 -31q-1 -4 -5 -5q-14 -8 -41 -8q-79 0 -62 99l109 629q1 4 4 5q3 0 12 1.5t16.5 2t10.5 0.5t3 -4l-109 -637q-6 -33 3.5 -44t28.5 -11q18 0 32 6q4 2 4 -3z" />
    <glyph glyph-name="m" unicode="m" horiz-adv-x="777" 
d="M113 479h34q4 0 4 -5q0 -26 -11 -83q76 97 176 97q43 0 70.5 -25t31.5 -76q80 101 181 101q53 0 86.5 -39t16.5 -138l-53 -306q-1 -5 -5 -5h-37q-5 0 -4 6l55 315q21 126 -73 126q-90 0 -159 -106q-7 -11 -11 -34l-53 -302q-1 -5 -6 -5h-35q-6 0 -5 5l54 306
q24 136 -68 136q-89 0 -161 -105q-12 -21 -14 -34l-53 -303q-1 -5 -6 -5h-35q-5 0 -4 5l65 371q12 68 14 97q0 6 5 6z" />
    <glyph glyph-name="n" unicode="n" horiz-adv-x="502" 
d="M28 4l64 363q11 64 15 107q2 5 5 5h33q4 0 4 -4q0 -17 -11 -85q81 98 183 98q18 0 34 -4t34 -15.5t27.5 -31.5t15 -52.5t-4.5 -78.5l-53 -302q-1 -4 -6 -4h-36q-6 0 -4 5l54 308q22 135 -75 135q-88 0 -161 -99q-16 -22 -20 -42l-53 -303q-1 -4 -4 -4h-38q-3 0 -3 4z" />
    <glyph glyph-name="o" unicode="o" horiz-adv-x="471" 
d="M264 488q77 0 121.5 -52.5t44.5 -145.5q0 -118 -65.5 -209t-168.5 -91q-80 0 -125.5 52t-45.5 146q0 121 67.5 210.5t171.5 89.5zM258 447q-78 0 -133 -75.5t-55 -182.5q0 -70 32.5 -113.5t98.5 -43.5q73 0 127.5 75t55.5 183q1 67 -29.5 112t-96.5 45z" />
    <glyph glyph-name="p" unicode="p" horiz-adv-x="478" 
d="M270 488q76 0 121.5 -51t45.5 -137q1 -134 -84 -222t-197 -88q-48 0 -84 12l-40 -227q-1 -4 -5 -5q-30 -4 -36 -4t-4 5l118 674q1 4 6 7q1 0 17 6.5t22.5 8.5t23.5 7t29 7.5t30.5 4.5t36.5 2zM258 447q-55 0 -113 -26l-64 -376q31 -14 81 -14q92 0 161 75.5t69 184.5
q0 156 -134 156z" />
    <glyph glyph-name="q" unicode="q" horiz-adv-x="480" 
d="M189 -10q-74 0 -119 48.5t-45 135.5q0 127 82 220.5t211 93.5q66 0 114 -22q5 -2 3 -7q-6 -16 -8 -27l-114 -657q-2 -5 -5 -5q-32 -4 -37 -4q-4 0 -4 5l44 251q-53 -32 -122 -32zM318 64l65 371q-23 13 -75 13q-101 0 -169 -79t-68 -189q0 -67 32 -107.5t100 -40.5
q63 0 115 32z" />
    <glyph glyph-name="r" unicode="r" horiz-adv-x="286" 
d="M110 479h33q4 0 4 -4q1 -10 -3 -45.5t-8 -53.5q30 45 81 78.5t93 33.5q6 0 4 -5l-7 -39q-2 -5 -6 -5q-44 -4 -87 -32t-70 -69q-14 -18 -19 -39l-52 -295q-1 -4 -4 -4h-37q-4 0 -4 4l62 348q16 91 16 123q0 4 4 4z" />
    <glyph glyph-name="s" unicode="s" horiz-adv-x="332" 
d="M289 426q-37 23 -91 23q-52 0 -81 -26t-29 -64q0 -29 18.5 -49.5t60.5 -43.5q55 -29 82 -59.5t27 -76.5q0 -67 -46 -103.5t-115 -36.5q-83 0 -126 37q-4 4 -3 8l8 35q2 4 5 1q50 -41 119 -41q56 0 84.5 27.5t28.5 66.5q0 33 -20 55t-65 49q-51 28 -76.5 55.5t-25.5 70.5
q0 59 43.5 96.5t115.5 37.5q67 0 97 -21q4 -2 2 -7l-7 -32q-1 -4 -6 -2z" />
    <glyph glyph-name="s" unicode="&#xe004;" horiz-adv-x="332" 
d="M289 426q-37 23 -91 23q-52 0 -81 -26t-29 -64q0 -29 18.5 -49.5t60.5 -43.5q55 -29 82 -59.5t27 -76.5q0 -67 -46 -103.5t-115 -36.5q-83 0 -126 37q-4 4 -3 8l8 35q2 4 5 1q50 -41 119 -41q56 0 84.5 27.5t28.5 66.5q0 33 -20 55t-65 49q-51 28 -76.5 55.5t-25.5 70.5
q0 59 43.5 96.5t115.5 37.5q67 0 97 -21q4 -2 2 -7l-7 -32q-1 -4 -6 -2z" />
    <glyph glyph-name="t" unicode="t" horiz-adv-x="242" 
d="M197 41l-6 -30q-1 -4 -5 -8q-23 -13 -64 -13q-42 0 -63 29t-9 93l57 326h-68q-4 0 -3 5l6 32q1 4 5 4h68q3 19 7.5 42t9 48t6.5 36q1 4 4 4q24 3 40 10q2 1 3 0t0 -3q-13 -65 -25 -137h96q6 0 4 -5l-6 -31q-1 -5 -6 -5h-96l-59 -332q-13 -75 43 -75q29 0 56 13q5 2 5 -3z
" />
    <glyph glyph-name="u" unicode="u" horiz-adv-x="487" 
d="M443 474l-67 -369q-7 -44 -13 -100q0 -5 -4 -5h-32q-6 0 -6 5q-2 23 8 74q-71 -89 -168 -89q-57 0 -92 38.5t-19 132.5l58 313q1 5 5 5h37q3 0 3 -5l-57 -315q-11 -60 9 -93.5t68 -33.5q84 0 148 85q16 19 18 33l60 325q1 4 5 4h36q3 0 3 -5z" />
    <glyph glyph-name="v" unicode="v" horiz-adv-x="401" 
d="M158 0h-41q-5 0 -6 4q-4 20 -38 236.5t-37 233.5q-1 5 4 5h37q4 0 4 -4q53 -336 63 -430h1q51 110 223 430q3 4 6 4h39q6 0 2 -6q-5 -9 -70.5 -132.5t-120.5 -226t-61 -110.5q-1 -4 -5 -4z" />
    <glyph glyph-name="w" unicode="w" horiz-adv-x="653" 
d="M435 0h-46q-5 0 -5 5q-39 409 -38 426q-4 -13 -199 -427q-3 -4 -6 -4h-48q-5 0 -5 5l-44 469q0 5 5 5h36q4 0 4 -4q28 -292 37 -431h2q30 75 201 431q1 4 5 4h42q5 0 5 -4q32 -326 39 -430h1q30 76 200 430q2 4 6 4h38q2 0 2.5 -1.5t-0.5 -3.5l-226 -470q-3 -4 -6 -4z
" />
    <glyph glyph-name="x" unicode="x" horiz-adv-x="373" 
d="M153 245l-112 228q-1 6 3 6h41q4 0 5 -4q13 -27 45 -95.5t50 -105.5h1q24 30 52 63.5t62.5 74.5t53.5 63q3 4 7 4h41q3 0 3.5 -1.5t-1.5 -3.5l-196 -232l119 -237q1 -5 -3 -5h-39q-5 0 -7 4l-102 210h-1q-32 -41 -175 -210q-3 -4 -6 -4h-43q-5 0 -2 5z" />
    <glyph glyph-name="y" unicode="y" horiz-adv-x="413" 
d="M34 479h40q3 0 4 -4q67 -314 82 -420h2q117 213 214 420q3 4 6 4h38q6 0 3 -5q-117 -248 -238 -455q-61 -103 -158 -246q-3 -3 -7 -3l-43 -4q-4 1 -2 5q97 142 151 233q2 6 1 8q-30 126 -96 463q-2 4 3 4z" />
    <glyph glyph-name="y" unicode="&#xe006;" horiz-adv-x="413" 
d="M34 479h40q3 0 4 -4q67 -314 82 -420h2q117 213 214 420q3 4 6 4h38q6 0 3 -5q-117 -248 -238 -455q-61 -103 -158 -246q-3 -3 -7 -3l-43 -4q-4 1 -2 5q97 142 151 233q2 6 1 8q-30 126 -96 463q-2 4 3 4z" />
    <glyph glyph-name="z" unicode="z" horiz-adv-x="349" 
d="M296 0h-322q-4 0 -3 3l4 23q1 4 4 7q318 403 320 406q-19 -1 -105 -1h-145q-4 0 -3 4l10 34q1 3 4 3h302q2 0 2 -4l-5 -24q-1 -4 -4 -8q-75 -101 -180.5 -232.5t-139.5 -170.5q34 1 125 1h150q5 0 3 -5l-12 -33q-1 -3 -5 -3z" />
    <glyph glyph-name="braceleft" unicode="{" horiz-adv-x="347" 
d="M20 282q-4 0 -3 4l7 34q1 3 5 3q73 0 105 28t40 84q4 23 9.5 80.5t8.5 76.5q27 167 202 173q4 0 4 -4l-6 -31q-1 -2 -5 -4q-78 -6 -109.5 -41.5t-41.5 -93.5q-4 -22 -9 -78.5t-8 -76.5q-11 -58 -38.5 -90.5t-81.5 -43.5v-2q98 -23 71 -146q-6 -28 -17 -74.5t-15 -65.5
q-16 -69 9.5 -103.5t88.5 -48.5q3 -2 3 -4l-6 -31q0 -3 -5 -3q-47 7 -78.5 26t-44.5 44t-16.5 55.5t4.5 60.5q3 13 16.5 67.5t17.5 79.5q12 58 -9.5 91t-97.5 34z" />
    <glyph glyph-name="bar" unicode="|" horiz-adv-x="178" 
d="M101 -196h-44v980h44v-980z" />
    <glyph glyph-name="braceright" unicode="}" horiz-adv-x="347" 
d="M330 321q5 0 3 -5l-7 -33q-1 -4 -5 -4q-73 0 -105 -28t-40 -84q-4 -23 -11 -87.5t-10 -83.5q-4 -28 -14 -53t-31 -53.5t-61.5 -46.5t-95.5 -19q-4 0 -4 4l7 30q1 4 4 4q77 6 109 41.5t42 93.5q4 22 10 84.5t10 84.5q11 58 38.5 90.5t81.5 43.5v2q-99 24 -72 146
q5 25 15 65.5t15 63.5q15 70 -9 104.5t-90 46.5q-2 1 -2 5l6 31q1 4 4 4q47 -7 79 -26t44.5 -44.5t16.5 -56t-4 -60.5q-3 -15 -15.5 -62t-16.5 -73q-10 -59 11 -92t97 -33z" />
    <glyph glyph-name="asciitilde" unicode="~" horiz-adv-x="553" 
d="M76 194h-33q-4 0 -4 4q-4 79 27.5 121t82.5 42q32 0 59 -13t72 -51q44 -38 69.5 -52t54.5 -14q74 0 68 121q0 3 3 3h32q5 0 5 -3q5 -85 -27 -123.5t-81 -38.5q-32 0 -60 12.5t-74 49.5q-6 5 -19 15t-17.5 14t-14.5 11.5t-14.5 10t-13 7t-14 6t-13 3t-14.5 1.5
q-76 0 -71 -122q0 -4 -3 -4z" />
    <glyph glyph-name="exclamdown" unicode="&#xa1;" horiz-adv-x="209" 
d="M5 -214q-13 0 -21 4q-4 1 -2 6l13 78q66 363 80 414q0 4 5 4h29q4 0 3 -3q-2 -14 -15.5 -97.5t-30 -183.5t-21.5 -131l-14 -80q-2 -5 -5 -6q-7 -5 -21 -5zM123 487q14 0 22 -9t7 -23q-4 -32 -35 -32q-14 0 -22 9.5t-7 23.5q2 31 35 31z" />
    <glyph glyph-name="cent" unicode="&#xa2;" horiz-adv-x="403" 
d="M243 119l-16 -92q-1 -4 -5 -4h-31q-4 0 -3 5l16 92q-71 12 -109 61.5t-38 120.5q0 105 62.5 177t163.5 80l15 90q1 4 4 4h32q4 0 4 -4l-16 -90q58 -3 85 -21q3 -3 2 -6l-8 -33q-2 -4 -4 -2q-36 22 -99 22q-85 0 -139.5 -58.5t-55.5 -154.5q-1 -69 38.5 -107t95.5 -38
q62 0 112 25q5 3 3 -3l-7 -36q0 -3 -4 -5q-34 -23 -98 -23z" />
    <glyph glyph-name="sterling" unicode="&#xa3;" horiz-adv-x="435" 
d="M128 348l6 43q20 148 70 203.5t128 55.5q58 0 86 -20q3 -5 2 -7l-8 -31q0 -6 -5 -4q-31 22 -76 22q-69 0 -103.5 -54.5t-52.5 -182.5l-4 -25h144q4 0 3 -5l-5 -27q0 -4 -4 -4h-143q-16 -109 -42.5 -172.5t-71.5 -97.5h329q4 0 3 -4l-13 -34q-1 -4 -5 -4h-390q-3 0 -3 3
l5 30l4 2q61 25 92.5 94t48.5 183h-83q-3 0 -3 5l5 27q1 4 6 4h80z" />
    <glyph glyph-name="currency" unicode="&#xa4;" horiz-adv-x="481" 
d="M95 324q0 -72 43 -109t96 -37q57 0 97.5 34t40.5 110q0 60 -36.5 106t-103.5 46q-63 0 -100 -42.5t-37 -107.5zM55 324q0 64 40 119l-66 66q-5 3 0 6l20 21q3 4 7 0l66 -64q48 39 111 39q65 0 113 -40l68 65q4 4 7 0l19 -21q4 -2 0 -6l-67 -66q39 -47 39 -120
q0 -69 -35 -115l65 -66q3 -3 0 -6l-21 -20q-3 -3 -6 0l-65 65q-46 -40 -116 -40t-115 39l-64 -64q-3 -4 -6 -1l-21 21q-3 3 0 7l64 65q-37 48 -37 116z" />
    <glyph glyph-name="yen" unicode="&#xa5;" horiz-adv-x="426" 
d="M165 0h-37q-5 0 -5 4l34 186h-124q-4 0 -4 5l4 24q1 4 6 4h124l13 77h-123q-3 0 -4.5 0.5t-0.5 3.5l5 24q0 4 4 4h115l-122 305q-2 4 2 4h39q4 0 5 -3q111 -292 112 -294h2q20 38 212 293q4 4 6 4h42q4 0 2 -5l-232 -304h113q4 0 4 -4l-5 -25q-1 -3 -5 -3h-127l-12 -77
h127q4 0 4 -3l-6 -26q-1 -4 -6 -4h-127l-31 -185q-1 -5 -4 -5z" />
    <glyph glyph-name="brokenbar" unicode="&#xa6;" horiz-adv-x="178" 
d="M101 -196h-44v392h44v-392zM101 784v-392h-44v392h44z" />
    <glyph glyph-name="section" unicode="&#xa7;" horiz-adv-x="481" 
d="M259 369q-41 52 -61 94.5t-20.5 72.5t6.5 60q-42 -37 -66 -89t-23 -104q1 -58 20.5 -103.5t72.5 -119.5q103 -143 61 -232q104 69 104 202q0 57 -23 108t-71 111zM299 674q83 4 124 -32q3 -5 2 -7l-8 -31q-1 -6 -6 -3q-47 35 -113 35q-45 0 -66 -22.5t-19 -61.5
q3 -60 74 -149q53 -66 80.5 -123t26.5 -126q-1 -114 -77.5 -195t-180.5 -81q-42 0 -76 12.5t-51 27.5q-3 2 -2 8l6 34q2 7 6 2q54 -43 124 -43q71 0 80 55q5 40 -8 76t-60 102q-52 74 -75.5 124.5t-23.5 116.5q0 108 72.5 193.5t170.5 87.5z" />
    <glyph glyph-name="dieresis" unicode="&#xa8;" horiz-adv-x="388" 
d="M138 606q-13 0 -21 9t-6 22q4 30 34 30q13 0 20 -9t5 -22q-1 -13 -9.5 -21.5t-22.5 -8.5zM316 606q-13 0 -21 9t-6 22q4 30 33 30q14 0 21 -9t5 -22q-1 -12 -10 -21t-22 -9z" />
    <glyph glyph-name="copyright" unicode="&#xa9;" horiz-adv-x="776" 
d="M56 333q0 142 95 239t236 97q142 0 236 -96.5t94 -239.5q0 -148 -93 -242.5t-237 -94.5t-237.5 95.5t-93.5 241.5zM93 333q0 -131 84 -215.5t210 -84.5q130 0 212.5 84.5t80.5 215.5q-1 130 -86 215.5t-208 85.5q-129 0 -211 -86.5t-82 -214.5zM522 199v-31q0 -2 -5 -6
q-38 -23 -106 -23q-97 0 -149.5 56.5t-52.5 136.5q0 85 57.5 141t149.5 56q63 0 99 -19q3 -1 3 -7v-33q0 -4 -5 -2q-35 22 -97 22q-74 0 -119 -43.5t-45 -112.5q0 -72 46 -113.5t117 -41.5q61 0 102 22q1 1 3 0t2 -2z" />
    <glyph glyph-name="ordfeminine" unicode="&#xaa;" horiz-adv-x="345" 
d="M188 259q-65 0 -100 35.5t-37 90.5q-2 83 56.5 140.5t145.5 56.5q54 0 92 -18q2 -1 2 -4l-42 -245q-3 -12 -3 -25q0 -4 -4 -5q-56 -26 -110 -26zM266 309l41 230q-22 10 -63 10q-73 0 -114.5 -48.5t-39.5 -113.5q1 -43 28 -69t75 -26q45 0 73 17z" />
    <glyph glyph-name="guillemotleft" unicode="&#xab;" horiz-adv-x="484" 
d="M44 228l5 28q1 4 4 5l201 169q2 2 3.5 0.5t0.5 -4.5l-8 -44q-2 -5 -5 -7l-161 -137l113 -140q3 -3 3 -7l-8 -39q-2 -6 -5 -2l-141 172q-2 2 -2 6zM225 228l5 28q1 3 5 5l200 169q5 3 5 -2v-2l-9 -44q0 -4 -5 -7l-160 -137l113 -140q2 -2 2 -7l-8 -39q-1 -4 -5 -2
l-141 172q-2 2 -2 6z" />
    <glyph glyph-name="logicalnot" unicode="&#xac;" horiz-adv-x="550" 
d="M27 371h479q5 0 5 -5v-237q0 -4 -3 -4h-32q-4 0 -4 4v203h-444q-4 0 -4 5v31q0 3 3 3z" />
    <glyph glyph-name="uni00AD" unicode="&#xad;" horiz-adv-x="293" 
d="M239 228h-212q-5 0 -4 5l5 33q1 4 5 4h213q5 0 4 -5l-6 -33q-1 -4 -5 -4z" />
    <glyph glyph-name="registered" unicode="&#xae;" horiz-adv-x="212" 
d="M162 427q-52 0 -87.5 35.5t-35.5 88.5q0 52 35.5 88t87.5 36t87 -36t35 -88q0 -53 -35 -88.5t-87 -35.5zM165 449q44 0 70.5 29t26.5 72q0 44 -28.5 74t-72.5 30q-43 0 -71 -29t-28 -74q0 -43 29 -72.5t74 -29.5zM136 542v-51q0 -2 -3 -2h-14q-2 0 -2 2v126q0 3 2 3h38
q51 0 51 -38q0 -26 -29 -35q2 -3 20 -26t21 -29q2 -1 1.5 -2t-2.5 -1h-16q-4 0 -5 1q-13 14 -37 49q-4 3 -6 3h-19zM136 602v-43h17q34 0 34 21q0 22 -31 22h-20z" />
    <glyph glyph-name="macron" unicode="&#xaf;" horiz-adv-x="388" 
d="M124 650h247q3 0 3 -4l-7 -30q0 -4 -3 -4h-247q-5 0 -3 5l7 30q1 3 3 3z" />
    <glyph glyph-name="degree" unicode="&#xb0;" horiz-adv-x="258" 
d="M169 650q48 0 80.5 -33t32.5 -85q0 -51 -32 -85.5t-81 -34.5t-81.5 35t-32.5 85q0 49 33 83.5t81 34.5zM169 618q-33 0 -55.5 -25t-22.5 -61q0 -37 22 -61.5t56 -24.5t56.5 24.5t22.5 61.5q0 36 -23.5 61t-55.5 25z" />
    <glyph glyph-name="plusminus" unicode="&#xb1;" horiz-adv-x="552" 
d="M257 598h33q5 0 5 -5v-221h219q4 0 4 -5v-29q0 -5 -5 -5h-218v-228q0 -4 -5 -4h-33q-4 0 -4 4v228h-220q-5 0 -5 5v30q0 4 5 4h220v221q0 5 4 5zM33 39h481q4 0 4 -5v-29q0 -5 -5 -5h-480q-5 0 -5 5v29q0 5 5 5z" />
    <glyph glyph-name="twosuperior" unicode="&#xb2;" horiz-adv-x="300" 
d="M295 425h-247q-3 0 -4 2l5 20q1 3 3 5q8 6 40.5 28.5t52 37t49 40t47 45.5t30 45.5t12.5 48.5q-1 33 -22 53t-58 20q-55 0 -98 -29q-1 -3 -3 0v2l5 29q2 6 5 7q42 26 100 26q50 0 79 -29t29 -73q0 -28 -12.5 -56.5t-27.5 -49t-48.5 -49.5t-53.5 -44t-63 -46h193q2 0 2 -3
l-11 -28q0 -2 -4 -2z" />
    <glyph glyph-name="threesuperior" unicode="&#xb3;" horiz-adv-x="299" 
d="M144 610l5 26q0 3 3 3h31q53 1 78 22t24 52q-1 28 -19.5 44.5t-52.5 16.5q-50 0 -94 -25q-1 -1 -2 0t0 2l5 29q2 5 4 6q39 21 94 21q46 0 72 -24.5t28 -61.5q1 -38 -20 -62.5t-53 -34.5v-1q24 -9 43.5 -30.5t20.5 -52.5q2 -57 -39 -88.5t-101 -31.5q-64 0 -107 29
q-5 2 -3 6l5 28q0 5 4 3q44 -33 104 -33q51 0 76.5 24.5t25.5 58.5q-2 33 -27 51.5t-70 18.5h-33q-2 0 -2 4z" />
    <glyph glyph-name="acute" unicode="&#xb4;" horiz-adv-x="388" 
d="M197 562l128 144q4 4 7 4h48q5 0 3 -5l-135 -144q-3 -4 -7 -4h-42q-5 0 -2 5z" />
    <glyph glyph-name="uni00B5" unicode="&#xb5;" horiz-adv-x="495" 
d="M445 473l-66 -357q-15 -83 33 -83q20 0 34 6q2 1 3 -0.5t0 -4.5l-6 -31q-1 -2 -5 -6q-15 -7 -39 -7q-79 0 -61 105q0 2 1.5 11t2.5 11q-66 -127 -178 -127q-66 0 -88 54q-14 -104 -47 -279q-1 -4 -5 -5q-22 -5 -36 -5q-5 0 -4 5l128 713q0 6 6 6h34q6 0 5 -6l-60 -326
q-10 -55 11 -85t65 -30q69 0 119 64t72 184l36 193q0 6 6 6h35q5 0 4 -6z" />
    <glyph glyph-name="paragraph" unicode="&#xb6;" horiz-adv-x="516" 
d="M337 665h139q4 0 3 -6q-7 -26 -7 -31l-92 -507q-27 -151 -28 -186q1 -3 -0.5 -3.5t-4.5 -0.5h-22q-4 0 -5 4q0 36 31 212l85 478h-69l-84 -479q-31 -178 -45 -212q-3 -4 -5 -4h-25q-3 0 -3 4q9 26 39 186l34 199q-96 -5 -164 37.5t-68 118.5q0 184 291 190z" />
    <glyph glyph-name="periodcentered" unicode="&#xb7;" horiz-adv-x="180" 
d="M82 213q-14 0 -22.5 9.5t-6.5 23.5q4 32 34 32q14 0 22.5 -10t7.5 -23q-3 -32 -35 -32z" />
    <glyph glyph-name="cedilla" unicode="&#xb8;" horiz-adv-x="371" 
d="M122 4h42l-44 -56q66 -17 68 -75q1 -43 -27.5 -66.5t-73.5 -23.5q-40 0 -63 14q-2 1 -2 5l6 29q1 3 4 2q26 -14 59 -14q26 0 42 13t15 37q-1 45 -81 54l-1 5l2 8z" />
    <glyph glyph-name="onesuperior" unicode="&#xb9;" horiz-adv-x="189" 
d="M111 430l59 330q-38 -19 -82 -29q-4 -1 -4 3l6 28q0 2 3 4q55 14 88 33q3 3 7 3h24q3 0 2 -4l-65 -368q-1 -4 -3 -4h-32q-4 0 -3 4z" />
    <glyph glyph-name="ordmasculine" unicode="&#xba;" horiz-adv-x="352" 
d="M222 582q57 0 91 -36t36 -93q3 -81 -44.5 -137.5t-119.5 -56.5q-64 0 -97.5 38t-35.5 92q-2 78 45.5 135.5t124.5 57.5zM216 550q-57 0 -92 -47.5t-33 -111.5q2 -44 27.5 -71.5t72.5 -27.5t84.5 43t34.5 115q-1 44 -24.5 72t-69.5 28z" />
    <glyph glyph-name="guillemotright" unicode="&#xbb;" horiz-adv-x="484" 
d="M418 251l-6 -28q0 -1 -4 -5l-201 -169q-2 -2 -3.5 -1t-0.5 4l9 45q0 3 4 7l161 137l-113 140q-2 2 -2 7l7 39q2 6 5 2l142 -172q2 -4 2 -6zM236 251l-5 -28q-1 -3 -4 -5l-201 -169q-2 -2 -3.5 -1t-0.5 4l8 45q2 4 5 7l161 137l-114 140q-2 2 -2 7l8 39q1 4 5 2l141 -172
q2 -4 2 -6z" />
    <glyph glyph-name="onequarter" unicode="&#xbc;" horiz-adv-x="669" 
d="M95 -11h-36q-6 0 -2 5l487 654q2 2 5 2h37q5 0 1 -4l-486 -653q-3 -4 -6 -4zM95 269l59 330q-38 -19 -82 -29q-3 -1 -3 3l5 28q2 3 3 4q55 14 88 33q3 3 7 3h24q3 0 2 -4l-65 -368q0 -4 -3 -4h-32q-4 0 -3 4zM512 103h-171q-2 0 -2 3l3 18q0 3 3 6q15 17 102.5 117.5
t109.5 125.5q3 3 5 3h31q3 0 2 -4l-42 -240h64q3 0 2 -3l-8 -23q-1 -3 -4 -3h-58l-19 -100q0 -3 -3 -3h-29q-4 0 -4 4zM385 132h132q26 143 38 200h-1q-19 -29 -169 -200z" />
    <glyph glyph-name="onehalf" unicode="&#xbd;" horiz-adv-x="719" 
d="M84 -11h-36q-4 0 -2 5l487 654q3 2 5 2h37q5 0 1 -4l-486 -653q-4 -4 -6 -4zM95 269l59 330q-38 -19 -82 -29q-4 -1 -4 3l6 28q0 3 3 4q55 14 88 33q3 3 7 3h24q3 0 2 -4l-65 -368q0 -4 -3 -4h-32q-4 0 -3 4zM632 -2h-247q-3 0 -4 2l5 20q1 3 3 5q8 6 40.5 28.5t52 37
t49 40t47 45.5t30 45.5t12.5 48.5q-1 33 -22 53t-58 20q-55 0 -98 -29q-1 -3 -3 0v2l5 29q2 6 5 7q42 26 100 26q50 0 79 -29t29 -73q0 -28 -12.5 -56.5t-27.5 -49t-48.5 -49.5t-53.5 -44t-63 -46h193q2 0 2 -4l-11 -27q0 -2 -4 -2z" />
    <glyph glyph-name="threequarters" unicode="&#xbe;" horiz-adv-x="738" 
d="M182 -11h-36q-6 0 -2 5l487 654q2 2 5 2h37q5 0 1 -4l-486 -653q-4 -4 -6 -4zM583 101h-172q-2 0 -2 4l3 18q0 3 3 6q14 16 102 116.5t110 125.5q3 3 6 3h30q4 0 3 -4l-43 -239h64q3 0 2 -4l-7 -23q-2 -3 -5 -3h-58l-18 -99q0 -4 -4 -4h-29q-5 0 -3 5zM455 131h132
q11 59 39 200h-1q-13 -18 -80.5 -97t-89.5 -103zM128 449l5 26q0 3 3 3h31q54 1 78.5 22t23.5 52q-1 28 -19.5 44.5t-52.5 16.5q-51 0 -93 -25q-2 -1 -3 -0.5t0 2.5l5 29q2 5 4 6q39 21 94 21q46 0 72 -24.5t28 -61.5q1 -38 -20 -62.5t-53 -34.5v-1q24 -9 43.5 -30.5
t20.5 -52.5q2 -58 -39 -89t-101 -31q-64 0 -107 29q-5 2 -3 6l5 28q0 5 4 3q44 -33 104 -33q52 0 77.5 24.5t24.5 58.5q-2 33 -27 51.5t-70 18.5h-33q-2 0 -2 4z" />
    <glyph glyph-name="questiondown" unicode="&#xbf;" horiz-adv-x="336" 
d="M122 -197q-69 0 -114 36t-45 99q0 52 27.5 87t100.5 84q67 46 86.5 66.5t18.5 37.5q-1 32 -31 75q-1 4 2 4h37q4 0 5 -3q31 -41 31 -80q0 -15 -4.5 -26.5t-30.5 -36.5t-74 -57q-74 -50 -99 -79t-25 -69q0 -44 33 -70t88 -26q79 0 145 41q5 3 5 -2l-8 -39q-2 -6 -3 -7
q-58 -35 -145 -35zM211 487q14 0 22.5 -9t6.5 -23q-4 -32 -34 -32q-14 0 -22.5 10t-6.5 23q2 31 34 31z" />
    <glyph glyph-name="Agrave" unicode="&#xc0;" horiz-adv-x="550" 
d="M407 248h-252l-129 -245q-2 -3 -4 -3h-40q-6 0 -3 4l333 632q4 6 8 25q0 4 4 4h54q4 0 4 -4l113 -657q1 -4 -3 -4h-37q-4 0 -6 4zM175 290h227q-51 297 -55 335h-1q-11 -29 -171 -335zM294 829l86 -106q5 -5 -3 -5h-35q-5 0 -10 4l-94 105q-3 5 3 5h46q4 0 7 -3z" />
    <glyph glyph-name="Aacute" unicode="&#xc1;" horiz-adv-x="550" 
d="M407 248h-252l-129 -245q-2 -3 -4 -3h-40q-6 0 -3 4l333 632q4 6 8 25q0 4 4 4h54q4 0 4 -4l113 -657q1 -4 -3 -4h-37q-4 0 -6 4zM175 290h227q-51 297 -55 335h-1q-11 -29 -171 -335zM323 721l142 108q2 3 7 3h54q4 -1 2 -6l-149 -108q-3 -2 -8 -2h-46q-5 0 -2 5z" />
    <glyph glyph-name="Acircumflex" unicode="&#xc2;" horiz-adv-x="550" 
d="M407 248h-252l-129 -245q-2 -3 -4 -3h-40q-6 0 -3 4l333 632q4 6 8 25q0 4 4 4h54q4 0 4 -4l113 -657q1 -4 -3 -4h-37q-4 0 -6 4zM175 290h227q-51 297 -55 335h-1q-11 -29 -171 -335zM443 713l-66 85l-102 -85q-2 -4 -8 -4h-41q-2 0 -2.5 2.5t0.5 4.5l129 107q2 2 5 2
h44q7 0 7 -3l81 -109q2 -4 -3 -4h-38q-4 0 -6 4z" />
    <glyph glyph-name="Atilde" unicode="&#xc3;" horiz-adv-x="550" 
d="M407 248h-252l-129 -245q-2 -3 -4 -3h-40q-6 0 -3 4l333 632q4 6 8 25q0 4 4 4h54q4 0 4 -4l113 -657q1 -4 -3 -4h-37q-4 0 -6 4zM175 290h227q-51 297 -55 335h-1q-11 -29 -171 -335zM251 725h-28q-3 0 -5 4q5 40 28 65t58 25q31 0 68.5 -28.5t55.5 -28.5q32 0 44 51
q0 3 4 3h30q3 0 3 -3q-14 -89 -82 -89q-30 0 -66.5 29t-56.5 29q-39 0 -48 -53q0 -4 -5 -4z" />
    <glyph glyph-name="Adieresis" unicode="&#xc4;" horiz-adv-x="550" 
d="M407 248h-252l-129 -245q-2 -3 -4 -3h-40q-6 0 -3 4l333 632q4 6 8 25q0 4 4 4h54q4 0 4 -4l113 -657q1 -4 -3 -4h-37q-4 0 -6 4zM175 290h227q-51 297 -55 335h-1q-11 -29 -171 -335zM277 737q-14 0 -22.5 9t-7.5 23q2 14 11 22.5t23 8.5t22.5 -9.5t6.5 -21.5
q-2 -32 -33 -32zM453 737q-14 0 -22 9t-7 23q2 14 11.5 22.5t23.5 8.5q13 0 21 -9.5t7 -22.5q-2 -31 -34 -31z" />
    <glyph glyph-name="Aring" unicode="&#xc5;" horiz-adv-x="550" 
d="M407 248h-252l-129 -245q-2 -3 -4 -3h-40q-6 0 -3 4l333 632q4 6 8 25q0 4 4 4h54q4 0 4 -4l113 -657q1 -4 -3 -4h-37q-4 0 -6 4zM175 290h227q-51 297 -55 335h-1q-11 -29 -171 -335zM268 779q3 37 32 59.5t71 22.5q44 0 69 -24t22 -60q-2 -36 -31 -58.5t-71 -22.5
q-44 0 -69 23.5t-23 59.5zM303 779q-1 -24 15 -38.5t43 -14.5q28 0 46.5 13t19.5 38t-15.5 40t-43.5 15q-28 0 -46 -14t-19 -39z" />
    <glyph glyph-name="AE" unicode="&#xc6;" horiz-adv-x="785" 
d="M3 0h-42q-5 0 -2 5l445 629q1 1 3 4t5.5 9t7.5 15q2 3 4 3h354q5 0 6 -5l2 -33q1 -5 -5 -5h-288l-30 -262h262q5 0 4 -4l-7 -35q0 -3 -5 -3h-259l-33 -276h313q5 0 2 -4l-12 -34q-1 -4 -5 -4h-344q-4 0 -4 4l30 247h-219l-177 -247q-3 -4 -6 -4zM212 293h198
q37 320 41 340h-2q-40 -63 -237 -340z" />
    <glyph glyph-name="Ccedilla" unicode="&#xc7;" horiz-adv-x="521" 
d="M231 -60l42 52q-103 12 -164 83.5t-61 198.5q0 108 44 198t131.5 146t201.5 56q86 0 118 -21q3 -2 2 -6l-8 -34q-1 -5 -5 -3q-44 21 -112 21q-148 0 -236.5 -101.5t-88.5 -255.5q0 -107 57.5 -173.5t165.5 -66.5q88 0 138 28q2 1 3.5 0t0.5 -4l-8 -37q-2 -5 -4 -6
q-47 -25 -135 -25l-34 -42q67 -18 69 -75q1 -43 -27.5 -66.5t-72.5 -23.5q-40 0 -63 14q-2 1 -2 5l6 29q1 3 4 2q25 -14 58 -14q26 0 42.5 13t15.5 37q-1 42 -79 53q-3 0 -3 3z" />
    <glyph glyph-name="Egrave" unicode="&#xc8;" horiz-adv-x="468" 
d="M410 38l-13 -34q-1 -4 -4 -4h-354q-5 0 -5 5l115 656q1 4 5 4h318q3 0 5 -4l3 -34q0 -5 -3 -5h-289l-46 -261h262q4 0 3 -5l-7 -34q-2 -4 -5 -4h-261l-47 -276h321q6 0 2 -4zM265 841l86 -105q6 -6 -3 -6h-35q-5 0 -10 4l-94 105q-6 6 3 6h46q3 0 7 -4z" />
    <glyph glyph-name="Eacute" unicode="&#xc9;" horiz-adv-x="468" 
d="M410 38l-13 -34q-1 -4 -4 -4h-354q-5 0 -5 5l115 656q1 4 5 4h318q3 0 5 -4l3 -34q0 -5 -3 -5h-289l-46 -261h262q4 0 3 -5l-7 -34q-2 -4 -5 -4h-261l-47 -276h321q6 0 2 -4zM271 737l142 108q2 3 7 3h54q6 0 2 -6l-149 -107q-3 -3 -8 -3h-46q-2 0 -3 2t1 3z" />
    <glyph glyph-name="Ecircumflex" unicode="&#xca;" horiz-adv-x="468" 
d="M410 38l-13 -34q-1 -4 -4 -4h-354q-5 0 -5 5l115 656q1 4 5 4h318q3 0 5 -4l3 -34q0 -5 -3 -5h-289l-46 -261h262q4 0 3 -5l-7 -34q-2 -4 -5 -4h-261l-47 -276h321q6 0 2 -4zM397 727l-65 85l-102 -85q-3 -3 -9 -3h-40q-4 1 -2 6l128 107q2 2 5 2h44q7 0 7 -3l81 -109
q3 -3 -2 -3h-39q-3 0 -6 3z" />
    <glyph glyph-name="Edieresis" unicode="&#xcb;" horiz-adv-x="468" 
d="M410 38l-13 -34q-1 -4 -4 -4h-354q-5 0 -5 5l115 656q1 4 5 4h318q3 0 5 -4l3 -34q0 -5 -3 -5h-289l-46 -261h262q4 0 3 -5l-7 -34q-2 -4 -5 -4h-261l-47 -276h321q6 0 2 -4zM223 751q-13 0 -21.5 8.5t-8.5 22.5q2 14 11.5 22.5t23.5 8.5t22 -9t7 -22q-2 -31 -34 -31z
M400 751q-14 0 -22 9t-7 22q2 14 11.5 22.5t22.5 8.5t21.5 -9t7.5 -22q-2 -31 -34 -31z" />
    <glyph glyph-name="Igrave" unicode="&#xcc;" horiz-adv-x="213" 
d="M195 661l-116 -657q0 -4 -4 -4h-36q-5 0 -5 5l115 656q1 4 5 4h38q3 0 3 -4zM121 839l86 -105q5 -6 -3 -6h-35q-5 0 -10 4l-94 105q-3 5 3 5h46q4 0 7 -3z" />
    <glyph glyph-name="Iacute" unicode="&#xcd;" horiz-adv-x="213" 
d="M195 661l-116 -657q0 -4 -4 -4h-36q-5 0 -5 5l115 656q1 4 5 4h38q3 0 3 -4zM152 729l142 108q3 3 7 3h54q4 -1 2 -6l-149 -108q-3 -2 -8 -2h-46q-5 0 -2 5z" />
    <glyph glyph-name="Icircumflex" unicode="&#xce;" horiz-adv-x="213" 
d="M195 661l-116 -657q0 -4 -4 -4h-36q-5 0 -5 5l115 656q1 4 5 4h38q3 0 3 -4zM269 722l-66 85l-102 -86q-6 -3 -8 -3h-41q-2 0 -3 2.5t1 3.5l128 107q3 3 6 3h43q7 0 8 -4l81 -108q2 -4 -3 -4h-38q-5 0 -6 4z" />
    <glyph glyph-name="Idieresis" unicode="&#xcf;" horiz-adv-x="213" 
d="M195 661l-116 -657q0 -4 -4 -4h-36q-5 0 -5 5l115 656q1 4 5 4h38q3 0 3 -4zM94 739q-14 0 -22.5 9t-7.5 23q2 14 11 22.5t23 8.5t22.5 -9.5t6.5 -21.5q-2 -32 -33 -32zM270 739q-14 0 -22 9t-7 23q2 14 11.5 22.5t23.5 8.5q13 0 21.5 -9.5t7.5 -22.5q-3 -31 -35 -31z
" />
    <glyph glyph-name="Eth" unicode="&#xd0;" horiz-adv-x="622" 
d="M150 328l-51 -286q45 -3 88 -3q151 0 234 64q59 45 91.5 115.5t32.5 151.5q0 122 -69.5 188.5t-196.5 66.5q-43 0 -77 -2l-46 -258h181q4 0 3 -5l-5 -28q-1 -4 -5 -4h-180zM110 365l52 295q0 4 3 5q42 2 120 2q138 0 222.5 -74t84.5 -223q0 -186 -136 -294
q-99 -78 -278 -78q-56 0 -126 2q-6 0 -5 6l57 322h-85q-4 0 -3 5l5 28q1 4 6 4h83z" />
    <glyph glyph-name="Ntilde" unicode="&#xd1;" horiz-adv-x="625" 
d="M149 661q1 4 5 4h53q5 0 6 -3q237 -586 244 -614h1q3 44 103 613q1 4 4 4h38q5 0 3 -5l-115 -655q-1 -5 -5 -5h-50q-6 0 -8 4q-234 575 -244 620h-1q-3 -40 -104 -620q-1 -4 -4 -4h-37q-4 0 -4 5zM274 740h-28q-4 0 -5 4q5 40 28 65t58 25q31 0 68.5 -28.5t55.5 -28.5
q33 0 43 50q1 4 4 4h31q3 0 3 -4q-14 -88 -82 -88q-30 0 -67 29t-56 29q-39 0 -49 -53q0 -4 -4 -4z" />
    <glyph glyph-name="Ograve" unicode="&#xd2;" horiz-adv-x="628" 
d="M375 675q106 0 167 -74t61 -199q0 -108 -37.5 -200.5t-113 -152t-173.5 -59.5q-107 0 -169.5 71t-62.5 192q-1 108 38 203.5t115.5 157t174.5 61.5zM368 632q-119 0 -197 -112t-78 -266q0 -93 47.5 -157t143.5 -64q84 0 148.5 55.5t95 137.5t29.5 173q0 100 -45.5 166.5
t-143.5 66.5zM340 853l85 -105q4 -6 -2 -6h-36q-5 0 -10 4l-93 105q-5 5 2 5h46q5 0 8 -3z" />
    <glyph glyph-name="Oacute" unicode="&#xd3;" horiz-adv-x="628" 
d="M375 675q106 0 167 -74t61 -199q0 -108 -37.5 -200.5t-113 -152t-173.5 -59.5q-107 0 -169.5 71t-62.5 192q-1 108 38 203.5t115.5 157t174.5 61.5zM368 632q-119 0 -197 -112t-78 -266q0 -93 47.5 -157t143.5 -64q84 0 148.5 55.5t95 137.5t29.5 173q0 100 -45.5 166.5
t-143.5 66.5zM334 742l143 109q2 2 7 2h54q2 0 3 -1.5t-1 -3.5l-150 -108q-4 -3 -7 -3h-46q-8 0 -3 5z" />
    <glyph glyph-name="Ocircumflex" unicode="&#xd4;" horiz-adv-x="628" 
d="M375 675q106 0 167 -74t61 -199q0 -108 -37.5 -200.5t-113 -152t-173.5 -59.5q-107 0 -169.5 71t-62.5 192q-1 108 38 203.5t115.5 157t174.5 61.5zM368 632q-119 0 -197 -112t-78 -266q0 -93 47.5 -157t143.5 -64q84 0 148.5 55.5t95 137.5t29.5 173q0 100 -45.5 166.5
t-143.5 66.5zM465 733l-66 86l-102 -86q-6 -3 -8 -3h-41q-2 0 -3 2.5t1 3.5l129 107q3 3 5 3h44q5 0 7 -4l81 -108q1 -4 -3 -4h-38q-5 0 -6 3z" />
    <glyph glyph-name="Otilde" unicode="&#xd5;" horiz-adv-x="628" 
d="M375 675q106 0 167 -74t61 -199q0 -108 -37.5 -200.5t-113 -152t-173.5 -59.5q-107 0 -169.5 71t-62.5 192q-1 108 38 203.5t115.5 157t174.5 61.5zM368 632q-119 0 -197 -112t-78 -266q0 -93 47.5 -157t143.5 -64q84 0 148.5 55.5t95 137.5t29.5 173q0 100 -45.5 166.5
t-143.5 66.5zM271 750h-28q-3 0 -5 4q5 40 28 65t58 25q30 0 68 -28.5t56 -28.5q33 0 43 51q0 3 4 3h31q3 0 3 -3q-14 -89 -82 -89q-30 0 -67 29t-56 29q-39 0 -49 -53q0 -4 -4 -4z" />
    <glyph glyph-name="Odieresis" unicode="&#xd6;" horiz-adv-x="628" 
d="M375 675q106 0 167 -74t61 -199q0 -108 -37.5 -200.5t-113 -152t-173.5 -59.5q-107 0 -169.5 71t-62.5 192q-1 108 38 203.5t115.5 157t174.5 61.5zM368 632q-119 0 -197 -112t-78 -266q0 -93 47.5 -157t143.5 -64q84 0 148.5 55.5t95 137.5t29.5 173q0 100 -45.5 166.5
t-143.5 66.5zM295 754q-13 0 -21.5 8.5t-8.5 22.5q2 14 11 22.5t24 8.5q14 0 22 -9t7 -22q-2 -31 -34 -31zM472 754q-14 0 -22 8.5t-7 22.5q2 14 11.5 22.5t22.5 8.5t21.5 -9t7.5 -23q-2 -30 -34 -30z" />
    <glyph glyph-name="multiply" unicode="&#xd7;" horiz-adv-x="556" 
d="M37 473l21 21q2 2 7 -1l203 -210l203 209q5 4 9 0l19 -20q3 -5 -1 -9l-203 -206l203 -208q4 -5 0 -9l-19 -19q-5 -4 -8 1l-204 208l-202 -208q-4 -4 -7 -1l-20 20q-4 4 0 8l203 207l-204 209q-3 4 0 8z" />
    <glyph glyph-name="Oslash" unicode="&#xd8;" horiz-adv-x="635" 
d="M520 554l-374 -464q49 -57 138 -57q85 0 149 55t94.5 137t29.5 174q0 94 -37 155zM125 118l374 463q-48 51 -130 51q-121 0 -198.5 -110t-77.5 -268q0 -81 32 -136zM570 665h32q6 0 3 -5l-55 -69q53 -72 53 -189q0 -109 -37.5 -201.5t-113 -151.5t-173.5 -59
q-104 0 -163 62l-40 -49q-3 -3 -5 -3h-35q-5 0 -3 4l61 75q-47 65 -47 175q-1 171 90.5 296t237.5 125q93 0 153 -58l37 45q3 3 5 3z" />
    <glyph glyph-name="Ugrave" unicode="&#xd9;" 
d="M185 661l-74 -421q-18 -104 27.5 -155.5t126.5 -51.5q37 0 66 7.5t59 28.5t51.5 65.5t33.5 111.5l74 414q0 5 4 5h37q6 0 4 -6l-75 -419q-24 -134 -87 -192t-170 -58q-103 0 -161 63.5t-36 184.5l74 423q1 4 5 4h38q3 0 3 -4zM325 834l85 -105q3 -2 2 -4t-4 -2h-36
q-4 0 -9 5l-94 104q-6 6 2 6h47q4 0 7 -4z" />
    <glyph glyph-name="Uacute" unicode="&#xda;" 
d="M185 661l-74 -421q-18 -104 27.5 -155.5t126.5 -51.5q37 0 66 7.5t59 28.5t51.5 65.5t33.5 111.5l74 414q0 5 4 5h37q6 0 4 -6l-75 -419q-24 -134 -87 -192t-170 -58q-103 0 -161 63.5t-36 184.5l74 423q1 4 5 4h38q3 0 3 -4zM326 738l142 108q3 3 7 3h54q4 -1 2 -6
l-150 -108q-2 -2 -7 -2h-46q-5 0 -2 5z" />
    <glyph glyph-name="Ucircumflex" unicode="&#xdb;" 
d="M185 661l-74 -421q-18 -104 27.5 -155.5t126.5 -51.5q37 0 66 7.5t59 28.5t51.5 65.5t33.5 111.5l74 414q0 5 4 5h37q6 0 4 -6l-75 -419q-24 -134 -87 -192t-170 -58q-103 0 -161 63.5t-36 184.5l74 423q1 4 5 4h38q3 0 3 -4zM463 729l-66 85l-102 -85q-3 -3 -8 -3h-41
q-2 0 -3 2t1 4l128 107q3 2 6 2h43q7 0 8 -3l81 -109q2 -3 -3 -3h-38q-5 0 -6 3z" />
    <glyph glyph-name="Udieresis" unicode="&#xdc;" 
d="M185 661l-74 -421q-18 -104 27.5 -155.5t126.5 -51.5q37 0 66 7.5t59 28.5t51.5 65.5t33.5 111.5l74 414q0 5 4 5h37q6 0 4 -6l-75 -419q-24 -134 -87 -192t-170 -58q-103 0 -161 63.5t-36 184.5l74 423q1 4 5 4h38q3 0 3 -4zM287 744q-14 0 -22.5 8.5t-7.5 22.5
q2 14 11 22.5t23 8.5t22.5 -9t6.5 -22q-2 -31 -33 -31zM463 744q-14 0 -22 8.5t-7 22.5q2 14 11.5 22.5t23.5 8.5q13 0 21 -9.5t7 -22.5q-2 -30 -34 -30z" />
    <glyph glyph-name="Yacute" unicode="&#xdd;" horiz-adv-x="472" 
d="M195 0h-37q-4 0 -3 5l43 250q2 15 -2 25l-145 381q-1 4 3 4h40q4 0 5 -3q122 -323 131 -355q39 60 258 354q3 4 6 4h41q5 0 3 -5l-283 -382q-9 -11 -12 -28l-43 -245q-1 -5 -5 -5zM254 726l142 109q3 2 7 2h54q3 0 3.5 -1.5t-1.5 -3.5l-149 -108q-3 -2 -8 -2h-46
q-6 0 -2 4z" />
    <glyph glyph-name="Thorn" unicode="&#xde;" horiz-adv-x="494" 
d="M34 4l115 657q1 4 4 4h39q4 0 2 -4l-24 -137h83q90 0 149.5 -42.5t59.5 -129.5q0 -99 -72.5 -152.5t-201.5 -53.5h-84l-24 -141q0 -5 -4 -5h-38q-4 0 -4 4zM164 485l-52 -299h83q103 0 162 41.5t59 122.5q0 67 -45 101t-126 34h-81z" />
    <glyph glyph-name="germandbls" unicode="&#xdf;" horiz-adv-x="519" 
d="M160 489l-116 -662q0 -4 -4 -5l-38 -3q-4 0 -2 5l106 614h-69q-6 0 -5 5l6 31q1 5 5 5h69l5 23q41 230 209 230q75 0 114 -46.5t39 -109.5q0 -28 -6 -50q-55 -12 -107 -46.5t-52 -76.5q0 -34 59 -83q94 -80 92 -161q-2 -74 -57 -121.5t-140 -47.5q-81 0 -127 34
q-3 3 -2 9l8 35q0 5 5 2q54 -38 120 -38q60 0 103.5 33t44.5 89q2 65 -78 130q-40 34 -56.5 59.5t-16.5 54.5q0 51 50 91.5t113 61.5q2 16 2 23q0 50 -28.5 83.5t-84.5 33.5q-129 0 -161 -202z" />
    <glyph glyph-name="agrave" unicode="&#xe0;" horiz-adv-x="476" 
d="M430 471l-78 -446q-2 -5 -6 -7q-60 -28 -130 -28q-86 0 -138 49.5t-52 146.5q0 119 88 210.5t224 91.5q56 0 91 -12q1 -1 1 -5zM310 47l70 396q-22 5 -49 5q-110 0 -185 -77t-75 -182q0 -75 38.5 -116.5t115.5 -41.5q52 0 85 16zM273 704l74 -143q1 -4 -2 -4h-36
q-3 0 -5 3l-80 143q-2 5 3 5h41q4 0 5 -4z" />
    <glyph glyph-name="aacute" unicode="&#xe1;" horiz-adv-x="476" 
d="M430 471l-78 -446q-2 -5 -6 -7q-60 -28 -130 -28q-86 0 -138 49.5t-52 146.5q0 119 88 210.5t224 91.5q56 0 91 -12q1 -1 1 -5zM310 47l70 396q-22 5 -49 5q-110 0 -185 -77t-75 -182q0 -75 38.5 -116.5t115.5 -41.5q52 0 85 16zM273 562l128 144q4 4 7 4h48q5 0 3 -5
l-135 -144q-3 -4 -7 -4h-42q-5 0 -2 5z" />
    <glyph glyph-name="acircumflex" unicode="&#xe2;" horiz-adv-x="476" 
d="M430 471l-78 -446q-2 -5 -6 -7q-60 -28 -130 -28q-86 0 -138 49.5t-52 146.5q0 119 88 210.5t224 91.5q56 0 91 -12q1 -1 1 -5zM310 47l70 396q-22 5 -49 5q-110 0 -185 -77t-75 -182q0 -75 38.5 -116.5t115.5 -41.5q52 0 85 16zM329 678q-8 -11 -27 -32.5t-42.5 -47
t-29.5 -32.5q-2 -3 -6 -3h-38q-2 0 -2 2t1 3l122 136q4 4 6 4h41q4 0 5 -4l65 -137q4 -4 -3 -4h-33q-5 0 -6 4q-7 15 -27.5 57t-25.5 54z" />
    <glyph glyph-name="atilde" unicode="&#xe3;" horiz-adv-x="476" 
d="M430 471l-78 -446q-2 -5 -6 -7q-60 -28 -130 -28q-86 0 -138 49.5t-52 146.5q0 119 88 210.5t224 91.5q56 0 91 -12q1 -1 1 -5zM310 47l70 396q-22 5 -49 5q-110 0 -185 -77t-75 -182q0 -75 38.5 -116.5t115.5 -41.5q52 0 85 16zM183 580h-29q-4 0 -4 4q5 42 28.5 66
t60.5 24q32 0 76.5 -28.5t62.5 -28.5q37 0 45 51q0 4 5 4h29q4 0 4 -4q-11 -90 -82 -90q-30 0 -73.5 29.5t-66.5 29.5q-41 0 -52 -53q0 -4 -4 -4z" />
    <glyph glyph-name="adieresis" unicode="&#xe4;" horiz-adv-x="476" 
d="M430 471l-78 -446q-2 -5 -6 -7q-60 -28 -130 -28q-86 0 -138 49.5t-52 146.5q0 119 88 210.5t224 91.5q56 0 91 -12q1 -1 1 -5zM310 47l70 396q-22 5 -49 5q-110 0 -185 -77t-75 -182q0 -75 38.5 -116.5t115.5 -41.5q52 0 85 16zM212 606q-13 0 -21 9t-6 22q4 30 34 30
q13 0 20 -9t5 -22q-1 -13 -9.5 -21.5t-22.5 -8.5zM390 606q-13 0 -21 9t-6 22q4 30 33 30q14 0 21 -9t5 -22q-1 -12 -10 -21t-22 -9z" />
    <glyph glyph-name="aring" unicode="&#xe5;" horiz-adv-x="476" 
d="M430 471l-78 -446q-2 -5 -6 -7q-60 -28 -130 -28q-86 0 -138 49.5t-52 146.5q0 119 88 210.5t224 91.5q56 0 91 -12q1 -1 1 -5zM310 47l70 396q-22 5 -49 5q-110 0 -185 -77t-75 -182q0 -75 38.5 -116.5t115.5 -41.5q52 0 85 16zM232 633q2 39 29.5 62.5t66.5 23.5
q38 0 62.5 -24t22.5 -62q-4 -39 -31.5 -62t-66.5 -23t-62.5 23t-20.5 62zM264 633q-2 -26 13.5 -41.5t40.5 -15.5q24 0 42 15t20 42q1 27 -14.5 43t-40.5 16q-26 0 -43 -15.5t-18 -43.5z" />
    <glyph glyph-name="ae" unicode="&#xe6;" horiz-adv-x="661" 
d="M277 186q0 66 23.5 127t65.5 105q-134 -25 -219.5 -105t-85.5 -183q0 -42 22 -69.5t67 -28.5q72 0 141 65q-14 40 -14 89zM603 375q0 73 -88 73q-65 0 -116.5 -51t-70.5 -136q275 -14 275 114zM583 64l-7 -37q-1 -5 -4 -7q-46 -30 -121 -30q-99 0 -144 73
q-86 -73 -166 -73q-60 0 -92.5 36.5t-32.5 97.5q0 89 56.5 164.5t150 121.5t204.5 55q43 23 93 23q64 0 94.5 -31.5t31.5 -77.5q1 -83 -80.5 -123.5t-242.5 -32.5q-3 -45 -3 -46q2 -66 35.5 -105t102.5 -39q71 0 122 35q1 1 2 -0.5t1 -3.5z" />
    <glyph glyph-name="ccedilla" unicode="&#xe7;" horiz-adv-x="368" 
d="M136 -64l45 56q-72 11 -114 63t-42 137q0 125 77 210.5t190 85.5q53 0 78 -11q3 -2 2 -6l-8 -34q-1 -3 -6 -2q-30 11 -67 11q-94 0 -157 -71t-63 -178q0 -71 37 -117.5t113 -46.5q52 0 90 15q4 1 4 -3l-7 -34q-2 -5 -6 -7q-33 -12 -81 -14l-33 -42q66 -17 68 -75
q1 -43 -27.5 -66.5t-73.5 -23.5q-40 0 -63 14q-2 1 -2 5l6 29q1 3 4 2q26 -14 59 -14q26 0 42 13t15 37q-1 45 -81 54l-1 5z" />
    <glyph glyph-name="egrave" unicode="&#xe8;" horiz-adv-x="409" 
d="M331 64l-7 -37q-1 -5 -5 -7q-45 -30 -120 -30q-83 0 -128.5 51t-45.5 145q0 119 70 210.5t173 91.5q64 0 94.5 -31.5t30.5 -77.5q1 -83 -80.5 -123.5t-241.5 -32.5q-3 -23 -3 -46q2 -65 35.5 -104.5t102.5 -39.5q70 0 121 35q2 1 3 -0.5t1 -3.5zM76 261q83 -4 140 4
t85 26.5t38.5 38.5t10.5 45q0 73 -88 73q-65 0 -116 -51t-70 -136zM221 705l74 -144q2 -4 -3 -4h-35q-3 0 -5 3l-80 143q-2 5 3 5h41q4 0 5 -3z" />
    <glyph glyph-name="eacute" unicode="&#xe9;" horiz-adv-x="409" 
d="M331 64l-7 -37q-1 -5 -5 -7q-45 -30 -120 -30q-83 0 -128.5 51t-45.5 145q0 119 70 210.5t173 91.5q64 0 94.5 -31.5t30.5 -77.5q1 -83 -80.5 -123.5t-241.5 -32.5q-3 -23 -3 -46q2 -65 35.5 -104.5t102.5 -39.5q70 0 121 35q2 1 3 -0.5t1 -3.5zM76 261q83 -4 140 4
t85 26.5t38.5 38.5t10.5 45q0 73 -88 73q-65 0 -116 -51t-70 -136zM209 562l128 144q4 4 7 4h48q5 0 3 -5l-135 -144q-3 -4 -7 -4h-42q-5 0 -2 5z" />
    <glyph glyph-name="ecircumflex" unicode="&#xea;" horiz-adv-x="409" 
d="M331 64l-7 -37q-1 -5 -5 -7q-45 -30 -120 -30q-83 0 -128.5 51t-45.5 145q0 119 70 210.5t173 91.5q64 0 94.5 -31.5t30.5 -77.5q1 -83 -80.5 -123.5t-241.5 -32.5q-3 -23 -3 -46q2 -65 35.5 -104.5t102.5 -39.5q70 0 121 35q2 1 3 -0.5t1 -3.5zM76 261q83 -4 140 4
t85 26.5t38.5 38.5t10.5 45q0 73 -88 73q-65 0 -116 -51t-70 -136zM277 670q-8 -11 -27 -32.5t-42 -46.5t-29 -32q-4 -4 -7 -4h-38q-4 0 -1 6l122 136q3 3 6 3h41q4 0 5 -3l65 -137q3 -5 -3 -5h-33q-5 0 -6 4q-7 17 -28 59t-25 52z" />
    <glyph glyph-name="edieresis" unicode="&#xeb;" horiz-adv-x="409" 
d="M331 64l-7 -37q-1 -5 -5 -7q-45 -30 -120 -30q-83 0 -128.5 51t-45.5 145q0 119 70 210.5t173 91.5q64 0 94.5 -31.5t30.5 -77.5q1 -83 -80.5 -123.5t-241.5 -32.5q-3 -23 -3 -46q2 -65 35.5 -104.5t102.5 -39.5q70 0 121 35q2 1 3 -0.5t1 -3.5zM76 261q83 -4 140 4
t85 26.5t38.5 38.5t10.5 45q0 73 -88 73q-65 0 -116 -51t-70 -136zM159 606q-13 0 -21 9t-6 22q4 30 34 30q13 0 20 -9t5 -22q-1 -13 -9.5 -21.5t-22.5 -8.5zM337 606q-13 0 -21 9t-6 22q4 30 33 30q14 0 21 -9t5 -22q-1 -12 -10 -21t-22 -9z" />
    <glyph glyph-name="igrave" unicode="&#xec;" horiz-adv-x="202" 
d="M28 5l83 470q1 4 5 4h36q6 0 4 -6l-83 -469q-1 -4 -5 -4h-36q-4 0 -4 5zM92 704l74 -143q0 -4 -3 -4h-35q-4 0 -6 3l-79 143q-1 1 0 3t2 2h42q2 0 5 -4z" />
    <glyph glyph-name="iacute" unicode="&#xed;" horiz-adv-x="202" 
d="M28 5l83 470q1 4 5 4h36q6 0 4 -6l-83 -469q-1 -4 -5 -4h-36q-4 0 -4 5zM115 562l128 144q4 4 7 4h48q5 0 3 -5l-135 -144q-3 -4 -7 -4h-42q-5 0 -2 5z" />
    <glyph glyph-name="icircumflex" unicode="&#xee;" horiz-adv-x="202" 
d="M28 5l83 470q1 4 5 4h36q6 0 4 -6l-83 -469q-1 -4 -5 -4h-36q-4 0 -4 5zM165 670q-11 -15 -54.5 -62.5t-44.5 -48.5q-4 -4 -7 -4h-37q-5 0 -2 6l123 136q3 3 5 3h41q3 0 5 -3l66 -137q2 -5 -3 -5h-33q-4 0 -7 4q-7 15 -27.5 57t-24.5 54z" />
    <glyph glyph-name="idieresis" unicode="&#xef;" horiz-adv-x="202" 
d="M28 5l83 470q1 4 5 4h36q6 0 4 -6l-83 -469q-1 -4 -5 -4h-36q-4 0 -4 5zM54 606q-13 0 -21 9t-6 22q4 30 34 30q13 0 20 -9t5 -22q-1 -13 -9.5 -21.5t-22.5 -8.5zM232 606q-13 0 -21 9t-6 22q4 30 33 30q14 0 21 -9t5 -22q-1 -12 -10 -21t-22 -9z" />
    <glyph glyph-name="eth" unicode="&#xf0;" horiz-adv-x="474" 
d="M199 32q84 0 138 88.5t50 219.5q-2 21 -9 28q-38 51 -115 51q-85 0 -139 -68t-55 -169q-1 -62 31.5 -106t98.5 -44zM318 641l125 65q4 1 4 -3l-6 -32q0 -4 -4 -5l-95 -49q91 -107 90 -288q0 -143 -65 -241t-173 -98q-82 0 -126.5 53t-44.5 139q0 113 69.5 195.5
t173.5 82.5q70 0 115 -44q-14 106 -79 180l-154 -80q-2 -1 -3.5 0.5t-0.5 2.5l4 31q3 5 6 6l123 64q-56 50 -143 74q-4 2 -3 6l7 28q2 5 6 4q107 -26 174 -91z" />
    <glyph glyph-name="ntilde" unicode="&#xf1;" horiz-adv-x="502" 
d="M28 4l64 363q11 64 15 107q2 5 5 5h33q4 0 4 -4q0 -17 -11 -85q81 98 183 98q18 0 34 -4t34 -15.5t27.5 -31.5t15 -52.5t-4.5 -78.5l-53 -302q-1 -4 -6 -4h-36q-6 0 -4 5l54 308q22 135 -75 135q-88 0 -161 -99q-16 -22 -20 -42l-53 -303q-1 -4 -4 -4h-38q-3 0 -3 4z
M166 580h-30q-4 0 -4 4q5 42 28.5 66t61.5 24q32 0 76 -28.5t62 -28.5q38 0 46 51q0 4 4 4h30q3 0 3 -4q-11 -90 -82 -90q-29 0 -72.5 29.5t-67.5 29.5q-41 0 -51 -53q0 -4 -4 -4z" />
    <glyph glyph-name="ograve" unicode="&#xf2;" horiz-adv-x="471" 
d="M264 488q77 0 121.5 -52.5t44.5 -145.5q0 -118 -65.5 -209t-168.5 -91q-80 0 -125.5 52t-45.5 146q0 121 67.5 210.5t171.5 89.5zM258 447q-78 0 -133 -75.5t-55 -182.5q0 -70 32.5 -113.5t98.5 -43.5q73 0 127.5 75t55.5 183q1 67 -29.5 112t-96.5 45zM233 704l75 -143
q0 -4 -3 -4h-35q-4 0 -6 3l-80 143q-2 5 3 5h41q4 0 5 -4z" />
    <glyph glyph-name="oacute" unicode="&#xf3;" horiz-adv-x="471" 
d="M264 488q77 0 121.5 -52.5t44.5 -145.5q0 -118 -65.5 -209t-168.5 -91q-80 0 -125.5 52t-45.5 146q0 121 67.5 210.5t171.5 89.5zM258 447q-78 0 -133 -75.5t-55 -182.5q0 -70 32.5 -113.5t98.5 -43.5q73 0 127.5 75t55.5 183q1 67 -29.5 112t-96.5 45zM222 562l128 144
q4 4 7 4h48q5 0 3 -5l-135 -144q-3 -4 -7 -4h-42q-5 0 -2 5z" />
    <glyph glyph-name="ocircumflex" unicode="&#xf4;" horiz-adv-x="471" 
d="M264 488q77 0 121.5 -52.5t44.5 -145.5q0 -118 -65.5 -209t-168.5 -91q-80 0 -125.5 52t-45.5 146q0 121 67.5 210.5t171.5 89.5zM258 447q-78 0 -133 -75.5t-55 -182.5q0 -70 32.5 -113.5t98.5 -43.5q73 0 127.5 75t55.5 183q1 67 -29.5 112t-96.5 45zM297 670
q-8 -11 -27 -32.5t-42 -46.5t-29 -32q-4 -4 -7 -4h-38q-4 0 -1 6l122 136q3 3 6 3h41q4 0 5 -3l65 -137q3 -5 -3 -5h-33q-5 0 -6 4q-7 17 -28 59t-25 52z" />
    <glyph glyph-name="otilde" unicode="&#xf5;" horiz-adv-x="471" 
d="M264 488q77 0 121.5 -52.5t44.5 -145.5q0 -118 -65.5 -209t-168.5 -91q-80 0 -125.5 52t-45.5 146q0 121 67.5 210.5t171.5 89.5zM258 447q-78 0 -133 -75.5t-55 -182.5q0 -70 32.5 -113.5t98.5 -43.5q73 0 127.5 75t55.5 183q1 67 -29.5 112t-96.5 45zM154 580h-30
q-4 0 -4 4q5 42 28.5 66t61.5 24q32 0 76 -28.5t62 -28.5q38 0 46 51q0 4 4 4h30q3 0 3 -4q-11 -90 -82 -90q-29 0 -72.5 29.5t-67.5 29.5q-41 0 -51 -53q0 -4 -4 -4z" />
    <glyph glyph-name="odieresis" unicode="&#xf6;" horiz-adv-x="471" 
d="M264 488q77 0 121.5 -52.5t44.5 -145.5q0 -118 -65.5 -209t-168.5 -91q-80 0 -125.5 52t-45.5 146q0 121 67.5 210.5t171.5 89.5zM258 447q-78 0 -133 -75.5t-55 -182.5q0 -70 32.5 -113.5t98.5 -43.5q73 0 127.5 75t55.5 183q1 67 -29.5 112t-96.5 45zM179 606
q-13 0 -21 9t-6 22q4 30 34 30q13 0 20 -9t5 -22q-1 -13 -9.5 -21.5t-22.5 -8.5zM357 606q-13 0 -21 9t-6 22q4 30 33 30q14 0 21 -9t5 -22q-1 -12 -10 -21t-22 -9z" />
    <glyph glyph-name="divide" unicode="&#xf7;" horiz-adv-x="551" 
d="M274 396q-13 0 -21.5 9.5t-7.5 23.5q0 14 8 23t23 9q13 0 21.5 -9t8.5 -23q0 -33 -32 -33zM274 55q-13 0 -21.5 9.5t-7.5 22.5q0 33 31 33q13 0 21.5 -9.5t8.5 -23.5q0 -13 -8.5 -22.5t-23.5 -9.5zM30 275q0 4 4 4h482q4 0 4 -3v-31q0 -4 -4 -4h-482q-4 0 -4 4v30z" />
    <glyph glyph-name="oslash" unicode="&#xf8;" horiz-adv-x="469" 
d="M366 382l-261 -311q35 -40 96 -40q74 0 128 74.5t55 184.5q0 55 -18 92zM87 98l261 311q-33 39 -91 39q-79 0 -133.5 -75.5t-54.5 -183.5q0 -52 18 -91zM411 480h30q5 0 1 -7l-46 -55q32 -50 32 -130q0 -118 -64 -208t-167 -90q-75 0 -120 47l-30 -36q-2 -3 -8 -3h-29
q-5 0 -2 6l49 59q-32 49 -32 126q0 121 66.5 210t170.5 89q71 0 114 -45l29 34q1 3 6 3z" />
    <glyph glyph-name="ugrave" unicode="&#xf9;" horiz-adv-x="487" 
d="M443 474l-67 -369q-7 -44 -13 -100q0 -5 -4 -5h-32q-6 0 -6 5q-2 23 8 74q-71 -89 -168 -89q-57 0 -92 38.5t-19 132.5l58 313q1 5 5 5h37q3 0 3 -5l-57 -315q-11 -60 9 -93.5t68 -33.5q84 0 148 85q16 19 18 33l60 325q1 4 5 4h36q3 0 3 -5zM237 704l74 -143q0 -4 -3 -4
h-35q-5 0 -6 3l-79 143q-2 1 -1 3t3 2h41q3 0 6 -4z" />
    <glyph glyph-name="uacute" unicode="&#xfa;" horiz-adv-x="487" 
d="M443 474l-67 -369q-7 -44 -13 -100q0 -5 -4 -5h-32q-6 0 -6 5q-2 23 8 74q-71 -89 -168 -89q-57 0 -92 38.5t-19 132.5l58 313q1 5 5 5h37q3 0 3 -5l-57 -315q-11 -60 9 -93.5t68 -33.5q84 0 148 85q16 19 18 33l60 325q1 4 5 4h36q3 0 3 -5zM243 562l128 144q4 4 7 4h48
q5 0 3 -5l-135 -144q-3 -4 -7 -4h-42q-5 0 -2 5z" />
    <glyph glyph-name="ucircumflex" unicode="&#xfb;" horiz-adv-x="487" 
d="M443 474l-67 -369q-7 -44 -13 -100q0 -5 -4 -5h-32q-6 0 -6 5q-2 23 8 74q-71 -89 -168 -89q-57 0 -92 38.5t-19 132.5l58 313q1 5 5 5h37q3 0 3 -5l-57 -315q-11 -60 9 -93.5t68 -33.5q84 0 148 85q16 19 18 33l60 325q1 4 5 4h36q3 0 3 -5zM314 671q-8 -11 -27 -32.5
t-42.5 -47t-29.5 -32.5q-3 -3 -6 -3h-38q-4 0 -1 6l122 136q3 3 6 3h41q3 0 5 -3l65 -138q4 -4 -3 -4h-33q-5 0 -6 4q-7 16 -27.5 58t-25.5 53z" />
    <glyph glyph-name="udieresis" unicode="&#xfc;" horiz-adv-x="487" 
d="M443 474l-67 -369q-7 -44 -13 -100q0 -5 -4 -5h-32q-6 0 -6 5q-2 23 8 74q-71 -89 -168 -89q-57 0 -92 38.5t-19 132.5l58 313q1 5 5 5h37q3 0 3 -5l-57 -315q-11 -60 9 -93.5t68 -33.5q84 0 148 85q16 19 18 33l60 325q1 4 5 4h36q3 0 3 -5zM194 606q-13 0 -21 9t-6 22
q4 30 34 30q13 0 20 -9t5 -22q-1 -13 -9.5 -21.5t-22.5 -8.5zM372 606q-13 0 -21 9t-6 22q4 30 33 30q14 0 21 -9t5 -22q-1 -12 -10 -21t-22 -9z" />
    <glyph glyph-name="yacute" unicode="&#xfd;" horiz-adv-x="413" 
d="M34 479h40q3 0 4 -4q67 -314 82 -420h2q117 213 214 420q3 4 6 4h38q6 0 3 -5q-117 -248 -238 -455q-61 -103 -158 -246q-3 -3 -7 -3l-43 -4q-4 1 -2 5q97 142 151 233q2 6 1 8q-30 126 -96 463q-2 4 3 4zM191 562l128 144q4 4 7 4h48q5 0 3 -5l-135 -144q-3 -4 -7 -4
h-42q-5 0 -2 5z" />
    <glyph glyph-name="thorn" unicode="&#xfe;" horiz-adv-x="478" 
d="M270 488q76 0 121.5 -53t45.5 -140q1 -133 -82.5 -219t-196.5 -86q-43 0 -85 16l-41 -231q-1 -4 -5 -5q-28 -4 -36 -4q-6 0 -4 5l165 947q1 4 4 5q3 0 12.5 1.5t16.5 2t10 0.5q4 0 4 -4l-45 -258q67 23 116 23zM257 447q-54 0 -112 -27l-64 -371q37 -18 83 -18
q90 0 159 74t69 182q0 72 -32 116t-103 44z" />
    <glyph glyph-name="ydieresis" unicode="&#xff;" horiz-adv-x="413" 
d="M34 479h40q3 0 4 -4q67 -314 82 -420h2q117 213 214 420q3 4 6 4h38q6 0 3 -5q-117 -248 -238 -455q-61 -103 -158 -246q-3 -3 -7 -3l-43 -4q-4 1 -2 5q97 142 151 233q2 6 1 8q-30 126 -96 463q-2 4 3 4zM141 607q-13 0 -21 9t-6 22q4 30 34 30q13 0 20 -9t5 -22
q-1 -13 -9.5 -21.5t-22.5 -8.5zM319 607q-13 0 -21 9t-6 22q4 30 33 30q14 0 21 -9t5 -22q-1 -12 -10 -21t-22 -9z" />
    <glyph glyph-name="Amacron" unicode="&#x100;" horiz-adv-x="550" 
d="M407 248h-252l-129 -245q-2 -3 -4 -3h-40q-6 0 -3 4l333 632q4 6 8 25q0 4 4 4h54q4 0 4 -4l113 -657q1 -4 -3 -4h-37q-4 0 -6 4zM175 290h227q-51 297 -55 335h-1q-11 -29 -171 -335zM253 783h231q4 0 3 -4l-5 -31q-1 -4 -5 -4h-230q-4 0 -5 3l6 32q1 4 5 4z" />
    <glyph glyph-name="amacron" unicode="&#x101;" horiz-adv-x="476" 
d="M430 471l-78 -446q-2 -5 -6 -7q-60 -28 -130 -28q-86 0 -138 49.5t-52 146.5q0 119 88 210.5t224 91.5q56 0 91 -12q1 -1 1 -5zM310 47l70 396q-22 5 -49 5q-110 0 -185 -77t-75 -182q0 -75 38.5 -116.5t115.5 -41.5q52 0 85 16zM193 650h247q3 0 3 -4l-7 -30q0 -4 -4 -4
h-246q-5 0 -3 5l7 30q2 3 3 3z" />
    <glyph glyph-name="Abreve" unicode="&#x102;" horiz-adv-x="550" 
d="M407 248h-252l-129 -245q-2 -3 -4 -3h-40q-6 0 -3 4l333 632q4 6 8 25q0 4 4 4h54q4 0 4 -4l113 -657q1 -4 -3 -4h-37q-4 0 -6 4zM175 290h227q-51 297 -55 335h-1q-11 -29 -171 -335zM242 826h31q3 0 4 -4q15 -68 83 -68t97 69q1 3 5 3h29q4 0 4 -5q-13 -48 -50.5 -77
t-86.5 -29q-108 0 -120 107q0 4 4 4z" />
    <glyph glyph-name="abreve" unicode="&#x103;" horiz-adv-x="476" 
d="M430 471l-78 -446q-2 -5 -6 -7q-60 -28 -130 -28q-86 0 -138 49.5t-52 146.5q0 119 88 210.5t224 91.5q56 0 91 -12q1 -1 1 -5zM310 47l70 396q-22 5 -49 5q-110 0 -185 -77t-75 -182q0 -75 38.5 -116.5t115.5 -41.5q52 0 85 16zM186 676h33q3 0 3 -4q15 -69 85 -69
q69 0 101 69q1 4 5 4h33q4 0 2 -5q-36 -106 -145 -106q-52 0 -84 28t-36 79q0 4 3 4z" />
    <glyph glyph-name="Aogonek" unicode="&#x104;" horiz-adv-x="550" 
d="M495 6q1 -2 -2 -5q-102 -68 -102 -134q0 -21 14 -37t44 -16q33 0 61 14q2 1 3.5 0t0.5 -3l-5 -31q-1 -5 -6 -8q-27 -14 -67 -14q-38 0 -64.5 21.5t-26.5 63.5q1 75 103 153l-41 238h-252l-129 -245q-2 -3 -4 -3h-40q-4 0 -3 4l334 632q4 7 7 25q0 4 4 4h55q3 0 3 -4z
M175 290h227q-51 297 -55 335h-1q-15 -41 -171 -335z" />
    <glyph glyph-name="aogonek" unicode="&#x105;" horiz-adv-x="476" 
d="M310 47l70 396q-22 5 -49 5q-110 0 -185 -77t-75 -182q0 -75 38.5 -116.5t115.5 -41.5q52 0 85 16zM318 -175l-6 -32q-1 -4 -5 -7q-26 -13 -69 -13q-40 0 -65 21t-26 60q-1 72 86 136h-17q-86 0 -138 49.5t-52 146.5q0 119 88 210.5t224 91.5q56 0 91 -12q1 -1 1 -5
l-78 -446q-2 -5 -6 -7q-18 -9 -44 -16q-109 -66 -108 -138q0 -23 16 -36.5t44 -13.5t59 13q5 2 5 -2z" />
    <glyph glyph-name="Cacute" unicode="&#x106;" horiz-adv-x="521" 
d="M460 58l-8 -37q-2 -5 -4 -6q-47 -25 -136 -25q-119 0 -191.5 72.5t-72.5 211.5q0 108 44 198t131.5 146t201.5 56q86 0 118 -21q3 -2 2 -6l-8 -34q-1 -5 -5 -3q-44 21 -112 21q-148 0 -236.5 -101.5t-88.5 -255.5q0 -107 57.5 -173.5t165.5 -66.5q88 0 138 28q2 1 3.5 0
t0.5 -4zM356 739l142 109q3 2 8 2h53q3 0 3.5 -2t-1.5 -3l-149 -108q-3 -2 -7 -2h-47q-6 0 -2 4z" />
    <glyph glyph-name="cacute" unicode="&#x107;" horiz-adv-x="368" 
d="M315 45l-7 -34q-2 -5 -6 -7q-36 -14 -87 -14q-86 0 -138 53t-52 149q0 125 77 210.5t190 85.5q53 0 78 -11q3 -2 2 -6l-8 -34q-1 -3 -6 -2q-30 11 -67 11q-94 0 -157 -71t-63 -178q0 -71 37 -117.5t113 -46.5q52 0 90 15q4 1 4 -3zM220 562l128 144q4 4 7 4h48q5 0 3 -5
l-135 -144q-3 -4 -7 -4h-42q-5 0 -2 5z" />
    <glyph glyph-name="Ccircumflex" unicode="&#x108;" horiz-adv-x="521" 
d="M460 58l-8 -37q-2 -5 -4 -6q-47 -25 -136 -25q-119 0 -191.5 72.5t-72.5 211.5q0 108 44 198t131.5 146t201.5 56q86 0 118 -21q3 -2 2 -6l-8 -34q-1 -5 -5 -3q-44 21 -112 21q-148 0 -236.5 -101.5t-88.5 -255.5q0 -107 57.5 -173.5t165.5 -66.5q88 0 138 28q2 1 3.5 0
t0.5 -4zM472 737l-66 86l-102 -86q-6 -3 -8 -3h-41q-2 0 -3 2.5t1 3.5l129 107q3 3 5 3h44q5 0 7 -4l81 -108q1 -4 -3 -4h-38q-4 0 -6 3z" />
    <glyph glyph-name="ccircumflex" unicode="&#x109;" horiz-adv-x="368" 
d="M315 45l-7 -34q-2 -5 -6 -7q-36 -14 -87 -14q-86 0 -138 53t-52 149q0 125 77 210.5t190 85.5q53 0 78 -11q3 -2 2 -6l-8 -34q-1 -3 -6 -2q-30 11 -67 11q-94 0 -157 -71t-63 -178q0 -71 37 -117.5t113 -46.5q52 0 90 15q4 1 4 -3zM285 670q-11 -15 -54.5 -62.5
t-44.5 -48.5q-4 -4 -7 -4h-37q-5 0 -2 6l123 136q2 3 5 3h41q3 0 5 -3l66 -137q2 -5 -4 -5h-32q-6 0 -7 4q-7 15 -27.5 57t-24.5 54z" />
    <glyph glyph-name="Cdotaccent" unicode="&#x10a;" horiz-adv-x="521" 
d="M460 58l-8 -37q-2 -5 -4 -6q-47 -25 -136 -25q-119 0 -191.5 72.5t-72.5 211.5q0 108 44 198t131.5 146t201.5 56q86 0 118 -21q3 -2 2 -6l-8 -34q-1 -5 -5 -3q-44 21 -112 21q-148 0 -236.5 -101.5t-88.5 -255.5q0 -107 57.5 -173.5t165.5 -66.5q88 0 138 28q2 1 3.5 0
t0.5 -4zM392 760q-15 0 -23 9t-7 23t10.5 22.5t24.5 8.5t23.5 -9t6.5 -23q-2 -31 -35 -31z" />
    <glyph glyph-name="cdotaccent" unicode="&#x10b;" horiz-adv-x="368" 
d="M315 45l-7 -34q-2 -5 -6 -7q-36 -14 -87 -14q-86 0 -138 53t-52 149q0 125 77 210.5t190 85.5q53 0 78 -11q3 -2 2 -6l-8 -34q-1 -3 -6 -2q-30 11 -67 11q-94 0 -157 -71t-63 -178q0 -71 37 -117.5t113 -46.5q52 0 90 15q4 1 4 -3zM266 606q-14 0 -22 9.5t-6 23.5
q5 31 35 31q14 0 21.5 -9.5t5.5 -23.5q-4 -31 -34 -31z" />
    <glyph glyph-name="Ccaron" unicode="&#x10c;" horiz-adv-x="521" 
d="M460 58l-8 -37q-2 -5 -4 -6q-47 -25 -136 -25q-119 0 -191.5 72.5t-72.5 211.5q0 108 44 198t131.5 146t201.5 56q86 0 118 -21q3 -2 2 -6l-8 -34q-1 -5 -5 -3q-44 21 -112 21q-148 0 -236.5 -101.5t-88.5 -255.5q0 -107 57.5 -173.5t165.5 -66.5q88 0 138 28q2 1 3.5 0
t0.5 -4zM333 846l67 -86l102 86q3 3 8 3h40q2 0 2.5 -2.5t-0.5 -3.5l-126 -107q-3 -2 -5 -2h-44q-7 0 -7 3l-84 108q-1 4 3 4h38q5 0 6 -3z" />
    <glyph glyph-name="ccaron" unicode="&#x10d;" horiz-adv-x="368" 
d="M315 45l-7 -34q-2 -5 -6 -7q-36 -14 -87 -14q-86 0 -138 53t-52 149q0 125 77 210.5t190 85.5q53 0 78 -11q3 -2 2 -6l-8 -34q-1 -3 -6 -2q-30 11 -67 11q-94 0 -157 -71t-63 -178q0 -71 37 -117.5t113 -46.5q52 0 90 15q4 1 4 -3zM261 586q18 27 95 114q3 3 6 3h38
q2 0 2.5 -2.5t-1.5 -3.5l-119 -137q-3 -4 -6 -4h-40q-4 0 -5 3l-69 139q-2 5 3 5h34q5 0 6 -4q5 -11 28 -56.5t28 -56.5z" />
    <glyph glyph-name="Dcaron" unicode="&#x10e;" horiz-adv-x="613" 
d="M34 6l116 654q0 4 3 5q42 2 120 2q138 0 222.5 -74t84.5 -223q0 -186 -136 -294q-99 -78 -278 -78q-58 0 -126 2q-6 0 -6 6zM190 623l-103 -581q45 -3 88 -3q151 0 234 64q59 45 91.5 115.5t32.5 151.5q0 122 -69.5 188.5t-196.5 66.5q-43 0 -77 -2zM255 841l67 -86
l101 86q6 3 9 3h40q2 0 2.5 -2.5t-1.5 -3.5l-126 -107q-2 -2 -5 -2h-44q-6 0 -7 3l-83 108q-1 4 3 4h38q3 0 6 -3z" />
    <glyph glyph-name="dcaron" unicode="&#x10f;" horiz-adv-x="501" 
d="M514 495l42 223q1 4 6 4h32q5 0 4 -4l-46 -223q0 -5 -5 -5h-29q-4 0 -4 5zM477 725l-121 -696q-1 -6 -6 -8q-61 -31 -133 -31q-86 0 -139 51.5t-53 149.5q0 122 84.5 209.5t204.5 87.5q52 0 75 -8l43 239q1 4 4 5q36 4 38 4q3 0 3 -3zM313 50l69 387q-25 11 -76 11
q-94 0 -165 -73t-71 -182q0 -74 38.5 -117.5t117.5 -43.5q53 0 87 18z" />
    <glyph glyph-name="Dcroat" unicode="&#x110;" horiz-adv-x="622" 
d="M150 328l-51 -286q45 -3 88 -3q151 0 234 64q59 45 91.5 115.5t32.5 151.5q0 122 -69.5 188.5t-196.5 66.5q-43 0 -77 -2l-46 -258h181q4 0 3 -5l-5 -28q-1 -4 -5 -4h-180zM110 365l52 295q0 4 3 5q42 2 120 2q138 0 222.5 -74t84.5 -223q0 -186 -136 -294
q-99 -78 -278 -78q-56 0 -126 2q-6 0 -5 6l57 322h-85q-4 0 -3 5l5 28q1 4 6 4h83z" />
    <glyph glyph-name="dcroat" unicode="&#x111;" horiz-adv-x="479" 
d="M313 49l68 384q-27 12 -76 12q-95 0 -165 -73t-70 -178q0 -74 39 -118t117 -44q55 0 87 17zM461 630h77q4 0 4 -4l-6 -30q-1 -4 -6 -4h-76l-98 -564q-1 -6 -6 -8q-61 -30 -133 -30q-86 0 -139 52t-53 150q0 121 84.5 207t203.5 86q52 0 76 -9l21 116h-155q-5 0 -3 5l6 28
q0 5 4 5h154l16 89q1 4 4 5q36 4 38 4q3 0 3 -3z" />
    <glyph glyph-name="Emacron" unicode="&#x112;" horiz-adv-x="468" 
d="M410 38l-13 -34q-1 -4 -4 -4h-354q-5 0 -5 5l115 656q1 4 5 4h318q3 0 5 -4l3 -34q0 -5 -3 -5h-289l-46 -261h262q4 0 3 -5l-7 -34q-2 -4 -5 -4h-261l-47 -276h321q6 0 2 -4zM206 797h232q3 0 3 -3l-6 -32q-1 -4 -5 -4h-230q-4 0 -4 4l5 32q2 3 5 3z" />
    <glyph glyph-name="emacron" unicode="&#x113;" horiz-adv-x="409" 
d="M331 64l-7 -37q-1 -5 -5 -7q-45 -30 -120 -30q-83 0 -128.5 51t-45.5 145q0 119 70 210.5t173 91.5q64 0 94.5 -31.5t30.5 -77.5q1 -83 -80.5 -123.5t-241.5 -32.5q-3 -23 -3 -46q2 -65 35.5 -104.5t102.5 -39.5q70 0 121 35q2 1 3 -0.5t1 -3.5zM76 261q83 -4 140 4
t85 26.5t38.5 38.5t10.5 45q0 73 -88 73q-65 0 -116 -51t-70 -136zM152 650h247q3 0 2 -4l-6 -30q0 -4 -4 -4h-246q-5 0 -3 5l6 30q2 3 4 3z" />
    <glyph glyph-name="Ebreve" unicode="&#x114;" horiz-adv-x="468" 
d="M410 38l-13 -34q-1 -4 -4 -4h-354q-5 0 -5 5l115 656q1 4 5 4h318q3 0 5 -4l3 -34q0 -5 -3 -5h-289l-46 -261h262q4 0 3 -5l-7 -34q-2 -4 -5 -4h-261l-47 -276h321q6 0 2 -4zM201 840h31q4 0 4 -4q15 -68 84 -68t96 69q2 3 5 3h30q3 0 3 -5q-13 -48 -50.5 -77t-86.5 -29
q-108 0 -120 107q0 4 4 4z" />
    <glyph glyph-name="ebreve" unicode="&#x115;" horiz-adv-x="409" 
d="M331 64l-7 -37q-1 -5 -5 -7q-45 -30 -120 -30q-83 0 -128.5 51t-45.5 145q0 119 70 210.5t173 91.5q64 0 94.5 -31.5t30.5 -77.5q1 -83 -80.5 -123.5t-241.5 -32.5q-3 -23 -3 -46q2 -65 35.5 -104.5t102.5 -39.5q70 0 121 35q2 1 3 -0.5t1 -3.5zM76 261q83 -4 140 4
t85 26.5t38.5 38.5t10.5 45q0 73 -88 73q-65 0 -116 -51t-70 -136zM149 677h33q3 0 3 -4q15 -69 85 -69q69 0 101 69q1 4 5 4h33q4 0 2 -5q-36 -106 -145 -106q-52 0 -84 28t-36 79q0 4 3 4z" />
    <glyph glyph-name="Edotaccent" unicode="&#x116;" horiz-adv-x="468" 
d="M410 38l-13 -34q-1 -4 -4 -4h-354q-5 0 -5 5l115 656q1 4 5 4h318q3 0 5 -4l3 -34q0 -5 -3 -5h-289l-46 -261h262q4 0 3 -5l-7 -34q-2 -4 -5 -4h-261l-47 -276h321q6 0 2 -4zM313 749q-15 0 -23 9t-8 23q2 14 11.5 22.5t24.5 8.5q14 0 23 -9t7 -23q-4 -31 -35 -31z" />
    <glyph glyph-name="edotaccent" unicode="&#x117;" horiz-adv-x="409" 
d="M331 64l-7 -37q-1 -5 -5 -7q-45 -30 -120 -30q-83 0 -128.5 51t-45.5 145q0 119 70 210.5t173 91.5q64 0 94.5 -31.5t30.5 -77.5q1 -83 -80.5 -123.5t-241.5 -32.5q-3 -23 -3 -46q2 -65 35.5 -104.5t102.5 -39.5q70 0 121 35q2 1 3 -0.5t1 -3.5zM76 261q83 -4 140 4
t85 26.5t38.5 38.5t10.5 45q0 73 -88 73q-65 0 -116 -51t-70 -136zM267 605q-14 0 -22 9.5t-6 23.5q5 31 35 31q14 0 21.5 -9.5t5.5 -23.5q-1 -13 -10 -22t-24 -9z" />
    <glyph glyph-name="Eogonek" unicode="&#x118;" horiz-adv-x="462" 
d="M477 661l3 -34q0 -5 -3 -5h-289l-46 -261h262q4 0 3 -5l-7 -34q-2 -4 -5 -4h-261l-47 -276h321q6 0 2 -4l-13 -34q-1 -4 -4 -4h-41q-109 -70 -109 -136q1 -23 16.5 -36t43.5 -13q29 0 60 13q4 2 4 -3l-5 -32q-1 -3 -5 -7q-25 -13 -69 -13q-40 0 -65.5 21t-25.5 60
q0 79 101 146h-259q-5 0 -5 5l115 656q1 4 5 4h318q3 0 5 -4z" />
    <glyph glyph-name="eogonek" unicode="&#x119;" horiz-adv-x="409" 
d="M262 448q-65 0 -116 -51t-70 -136q83 -4 140 4t85 26.5t38.5 38.5t10.5 45q0 73 -88 73zM292 -175l-6 -32q-1 -4 -5 -7q-26 -13 -69 -13q-40 0 -65 21t-26 60q-1 74 93 136h-15q-83 0 -128.5 51t-45.5 145q0 119 70 210.5t173 91.5q64 0 94.5 -31.5t30.5 -77.5
q1 -83 -80.5 -123.5t-241.5 -32.5q-3 -23 -3 -46q2 -65 35.5 -104.5t102.5 -39.5q70 0 121 35q2 1 3 -0.5t1 -3.5l-7 -37q-1 -5 -5 -7q-1 0 -1 -0.5t-1 -0.5h1l-2 -1q-8 -5 -24 -13q-124 -67 -124 -141q0 -23 16 -36.5t44 -13.5q30 0 59 13q5 2 5 -2z" />
    <glyph glyph-name="Ecaron" unicode="&#x11a;" horiz-adv-x="468" 
d="M410 38l-13 -34q-1 -4 -4 -4h-354q-5 0 -5 5l115 656q1 4 5 4h318q3 0 5 -4l3 -34q0 -5 -3 -5h-289l-46 -261h262q4 0 3 -5l-7 -34q-2 -4 -5 -4h-261l-47 -276h321q6 0 2 -4zM244 840l67 -85l102 85q4 4 8 4h40q2 0 3 -3t-1 -4l-126 -107q-3 -2 -5 -2h-44q-7 0 -7 3
l-84 109q-2 4 3 4h38q5 0 6 -4z" />
    <glyph glyph-name="ecaron" unicode="&#x11b;" horiz-adv-x="409" 
d="M331 64l-7 -37q-1 -5 -5 -7q-45 -30 -120 -30q-83 0 -128.5 51t-45.5 145q0 119 70 210.5t173 91.5q64 0 94.5 -31.5t30.5 -77.5q1 -83 -80.5 -123.5t-241.5 -32.5q-3 -23 -3 -46q2 -65 35.5 -104.5t102.5 -39.5q70 0 121 35q2 1 3 -0.5t1 -3.5zM76 261q83 -4 140 4
t85 26.5t38.5 38.5t10.5 45q0 73 -88 73q-65 0 -116 -51t-70 -136zM268 586l95 114q6 3 7 3h38q4 0 1 -6l-119 -137q-3 -4 -6 -4h-40q-4 0 -5 3l-69 139q-3 5 3 5h33q6 0 7 -4q4 -9 17 -35t23.5 -47.5t14.5 -30.5z" />
    <glyph glyph-name="Gcircumflex" unicode="&#x11c;" 
d="M501 284l-175 1q-4 0 -3 3l5 34q1 3 5 3h217q3 0 3 -4l-49 -287q-2 -6 -7 -9q-71 -35 -174 -35q-124 0 -199.5 77t-75.5 213q0 166 103.5 280t274.5 114q110 0 159 -32q2 -2 1 -8l-8 -33q-2 -6 -6 -2q-56 32 -149 32q-150 0 -239.5 -101t-89.5 -249q0 -109 62 -179
t174 -70q82 0 131 25zM486 738l-65 85l-102 -85q-4 -4 -9 -4h-40q-5 1 -2 7l128 106q2 3 5 3h44q7 0 7 -4l81 -108q4 -4 -2 -4h-39q-3 0 -6 4z" />
    <glyph glyph-name="gcircumflex" unicode="&#x11d;" horiz-adv-x="479" 
d="M-32 -208l9 34q1 4 5 2q50 -29 118 -29q83 0 132 45q28 27 45.5 69.5t33.5 122.5q-50 -33 -116 -33q-76 0 -122.5 46.5t-46.5 136.5q0 123 84 212.5t210 89.5q69 0 111 -17q4 -2 4 -6q-7 -20 -8 -29l-69 -390q-18 -102 -39 -149q-59 -141 -223 -141q-74 0 -126 29
q-4 2 -2 7zM318 79l64 360q-20 9 -69 9q-98 0 -170 -74t-72 -183q2 -146 137 -146q60 0 110 34zM319 671q-10 -14 -51.5 -59.5t-47.5 -52.5q-3 -3 -7 -3h-37q-4 1 -2 5l123 136q3 4 6 4h41q2 0 4 -3l66 -138q2 -4 -3 -4h-33q-5 0 -6 4q-5 11 -17.5 36t-22 45t-13.5 30z" />
    <glyph glyph-name="Gbreve" unicode="&#x11e;" 
d="M501 284l-175 1q-4 0 -3 3l5 34q1 3 5 3h217q3 0 3 -4l-49 -287q-2 -6 -7 -9q-71 -35 -174 -35q-124 0 -199.5 77t-75.5 213q0 166 103.5 280t274.5 114q110 0 159 -32q2 -2 1 -8l-8 -33q-2 -6 -6 -2q-56 32 -149 32q-150 0 -239.5 -101t-89.5 -249q0 -109 62 -179
t174 -70q82 0 131 25zM292 850h31q3 0 4 -4q15 -68 84 -68t96 69q1 3 5 3h30q3 0 3 -5q-13 -48 -50.5 -77t-86.5 -29q-108 0 -120 107q0 4 4 4z" />
    <glyph glyph-name="gbreve" unicode="&#x11f;" horiz-adv-x="479" 
d="M-32 -208l9 34q1 4 5 2q50 -29 118 -29q83 0 132 45q28 27 45.5 69.5t33.5 122.5q-50 -33 -116 -33q-76 0 -122.5 46.5t-46.5 136.5q0 123 84 212.5t210 89.5q69 0 111 -17q4 -2 4 -6q-7 -20 -8 -29l-69 -390q-18 -102 -39 -149q-59 -141 -223 -141q-74 0 -126 29
q-4 2 -2 7zM318 79l64 360q-20 9 -69 9q-98 0 -170 -74t-72 -183q2 -146 137 -146q60 0 110 34zM170 677h33q3 0 3 -4q15 -69 85 -69q69 0 101 69q1 4 5 4h33q4 0 2 -5q-36 -106 -145 -106q-52 0 -84 28t-36 79q0 4 3 4z" />
    <glyph glyph-name="Gdotaccent" unicode="&#x120;" 
d="M501 284l-175 1q-4 0 -3 3l5 34q1 3 5 3h217q3 0 3 -4l-49 -287q-2 -6 -7 -9q-71 -35 -174 -35q-124 0 -199.5 77t-75.5 213q0 166 103.5 280t274.5 114q110 0 159 -32q2 -2 1 -8l-8 -33q-2 -6 -6 -2q-56 32 -149 32q-150 0 -239.5 -101t-89.5 -249q0 -109 62 -179
t174 -70q82 0 131 25zM417 767q-15 0 -23.5 9t-7.5 22q3 31 36 31q14 0 22.5 -9t7.5 -22q-4 -31 -35 -31z" />
    <glyph glyph-name="gdotaccent" unicode="&#x121;" horiz-adv-x="479" 
d="M-32 -208l9 34q1 4 5 2q50 -29 118 -29q83 0 132 45q28 27 45.5 69.5t33.5 122.5q-50 -33 -116 -33q-76 0 -122.5 46.5t-46.5 136.5q0 123 84 212.5t210 89.5q69 0 111 -17q4 -2 4 -6q-7 -20 -8 -29l-69 -390q-18 -102 -39 -149q-59 -141 -223 -141q-74 0 -126 29
q-4 2 -2 7zM318 79l64 360q-20 9 -69 9q-98 0 -170 -74t-72 -183q2 -146 137 -146q60 0 110 34zM306 606q-14 0 -22 9.5t-6 23.5q5 31 35 31q14 0 21.5 -9.5t5.5 -23.5q-1 -13 -10 -22t-24 -9z" />
    <glyph glyph-name="uni0122" unicode="&#x122;" 
d="M501 284l-175 1q-4 0 -3 3l5 34q1 3 5 3h217q3 0 3 -4l-49 -287q-2 -6 -7 -9q-71 -35 -174 -35q-124 0 -199.5 77t-75.5 213q0 166 103.5 280t274.5 114q110 0 159 -32q2 -2 1 -8l-8 -33q-2 -6 -6 -2q-56 32 -149 32q-150 0 -239.5 -101t-89.5 -249q0 -109 62 -179
t174 -70q82 0 131 25zM264 -242h-40q-5 0 -2 4q30 32 43 56.5t18 56.5q6 35 -2 65q-1 4 3 4h38q5 0 6 -3q7 -24 2 -60q-9 -70 -60 -121q-4 -2 -6 -2z" />
    <glyph glyph-name="uni0123" unicode="&#x123;" horiz-adv-x="479" 
d="M335 748h39q6 0 1 -5q-29 -32 -42 -56.5t-18 -56.5t1 -64q3 -4 -2 -4h-37q-5 0 -6 3q-7 27 -3 60q9 71 61 121q2 2 6 2zM-32 -208l9 34q1 4 5 2q50 -29 118 -29q83 0 132 45q28 27 45.5 69.5t33.5 122.5q-50 -33 -116 -33q-76 0 -122.5 46.5t-46.5 136.5q0 123 84 212.5
t210 89.5q69 0 111 -17q4 -2 4 -6q-7 -20 -8 -29l-69 -390q-18 -102 -39 -149q-59 -141 -223 -141q-74 0 -126 29q-4 2 -2 7zM318 79l64 360q-20 9 -69 9q-98 0 -170 -74t-72 -183q2 -146 137 -146q60 0 110 34z" />
    <glyph glyph-name="Hcircumflex" unicode="&#x124;" horiz-adv-x="623" 
d="M485 0h-38q-5 0 -5 5l55 314h-362l-55 -315q-1 -4 -4 -4h-38q-6 0 -4 5l115 656q1 4 4 4h38q4 0 4 -4l-53 -300h363l52 300q1 4 5 4h38q4 0 4 -5l-116 -655q0 -5 -3 -5zM471 729l-66 86l-102 -86q-3 -3 -8 -3h-41q-2 0 -3 2.5t1 3.5l128 107q3 2 6 2h43q7 0 8 -3l81 -108
q1 -4 -3 -4h-38q-5 0 -6 3z" />
    <glyph glyph-name="hcircumflex" unicode="&#x125;" horiz-adv-x="503" 
d="M264 755l-72 59l-90 -59q-3 -3 -8 -3h-45q-2 0 -2.5 1.5t1.5 2.5l118 82q3 3 6 3h42q6 0 8 -4l95 -81q2 -4 -4 -4h-40q-5 0 -9 3zM28 4l125 713q1 5 5 6q3 0 11.5 1t15.5 2t10 1q5 0 4 -4l-59 -334q80 99 180 99q56 0 90.5 -39.5t17.5 -140.5l-54 -303q-1 -5 -6 -5h-36
q-5 0 -5 5l57 307q21 136 -75 136q-91 0 -169 -105q-9 -14 -13 -34l-53 -305q-1 -4 -6 -4h-36q-4 0 -4 4z" />
    <glyph glyph-name="Hbar" unicode="&#x126;" horiz-adv-x="623" 
d="M505 358l19 113h-362l-20 -113h363zM577 508h56q4 0 3 -4l-6 -29q0 -4 -4 -4h-55l-82 -466q-1 -5 -4 -5h-38q-6 0 -4 5l54 311h-362l-55 -312q0 -4 -4 -4h-38q-4 0 -4 5l82 466h-55q-5 0 -3 4l4 29q1 4 6 4h54l27 153q1 4 4 4h38q4 0 4 -4l-27 -153h363l26 153q1 4 5 4
h39q4 0 3 -5z" />
    <glyph glyph-name="hbar" unicode="&#x127;" horiz-adv-x="503" 
d="M176 592l-36 -206q80 99 180 99q56 0 90.5 -39.5t17.5 -140.5l-54 -300q-1 -5 -6 -5h-36q-5 0 -5 5l56 304q23 136 -75 136q-89 0 -169 -105q-9 -14 -12 -34l-53 -302q-1 -4 -6 -4h-36q-4 0 -4 4l103 588h-65q-5 0 -3 5l6 28q0 5 4 5h65l15 87q1 5 5 6q3 0 11.5 1t15.5 2
t10 1q5 0 4 -4l-16 -93h166q4 0 4 -4l-6 -30q-1 -4 -5 -4h-166z" />
    <glyph glyph-name="Itilde" unicode="&#x128;" horiz-adv-x="213" 
d="M195 661l-116 -657q0 -4 -4 -4h-36q-5 0 -5 5l115 656q1 4 5 4h38q3 0 3 -4zM73 743h-28q-3 0 -5 4q5 40 28 65t58 25q30 0 68 -28.5t56 -28.5q33 0 43 51q0 3 4 3h30q4 0 4 -3q-14 -89 -82 -89q-30 0 -67 29t-56 29q-39 0 -49 -53q0 -4 -4 -4z" />
    <glyph glyph-name="itilde" unicode="&#x129;" horiz-adv-x="202" 
d="M28 5l83 470q1 4 5 4h36q6 0 4 -6l-83 -469q-1 -4 -5 -4h-36q-4 0 -4 5zM27 580h-29q-4 0 -4 4q5 42 28.5 66t60.5 24q32 0 76.5 -28.5t62.5 -28.5q37 0 45 51q0 4 5 4h30q3 0 3 -4q-11 -90 -82 -90q-30 0 -73.5 29.5t-66.5 29.5q-41 0 -51 -53q0 -4 -5 -4z" />
    <glyph glyph-name="Imacron" unicode="&#x12a;" horiz-adv-x="213" 
d="M195 661l-116 -657q0 -4 -4 -4h-36q-5 0 -5 5l115 656q1 4 5 4h38q3 0 3 -4zM76 791h231q5 0 3 -3l-5 -32q-1 -4 -5 -4h-230q-4 0 -5 4l6 32q1 3 5 3z" />
    <glyph glyph-name="imacron" unicode="&#x12b;" horiz-adv-x="202" 
d="M28 5l83 470q1 4 5 4h36q6 0 4 -6l-83 -469q-1 -4 -5 -4h-36q-4 0 -4 5zM33 650h247q3 0 3 -4l-7 -30q0 -4 -3 -4h-247q-5 0 -3 5l7 30q2 3 3 3z" />
    <glyph glyph-name="Iogonek" unicode="&#x12e;" horiz-adv-x="213" 
d="M37 17l113 643q2 5 5 5h37q3 0 3 -4l-116 -655q-1 -6 -5 -8q-90 -66 -89 -131q2 -24 18 -39t41 -15q36 0 64 15q4 2 3 -3l-6 -32q-2 -5 -5 -7q-29 -13 -69 -13q-36 0 -62 22.5t-27 62.5q-1 31 17 63t33 47.5t43 39.5q0 1 0.5 4t1.5 5z" />
    <glyph glyph-name="iogonek" unicode="&#x12f;" horiz-adv-x="202" 
d="M158 605q-14 0 -22 9.5t-6 22.5q2 14 11 22.5t24 8.5q13 0 20.5 -9.5t5.5 -22.5t-10.5 -22t-22.5 -9zM156 473l-83 -467q-2 -7 -4 -8q-89 -66 -88 -132q1 -24 16.5 -38.5t41.5 -14.5q35 0 64 15q5 2 3 -3l-6 -32q-2 -6 -5 -7q-25 -13 -69 -13q-37 0 -62 22t-26 62
q-3 74 90 147l83 471q1 4 5 4h36q6 0 4 -6z" />
    <glyph glyph-name="Idotaccent" unicode="&#x130;" horiz-adv-x="213" 
d="M195 661l-116 -657q0 -4 -4 -4h-36q-5 0 -5 5l115 656q1 4 5 4h38q3 0 3 -4zM184 739q-15 0 -23.5 9t-7.5 23q2 14 11.5 22.5t24.5 8.5q14 0 23 -9t7 -23q-4 -31 -35 -31z" />
    <glyph glyph-name="dotlessi" unicode="&#x131;" horiz-adv-x="202" 
d="M28 5l83 470q1 4 5 4h36q6 0 4 -6l-83 -469q-1 -4 -5 -4h-36q-4 0 -4 5z" />
    <glyph glyph-name="Jcircumflex" unicode="&#x134;" horiz-adv-x="260" 
d="M207 665h37q5 0 5 -5l-87 -495q-16 -79 -32 -112q-43 -92 -147 -92q-29 0 -50 8q-4 1 -3 6l8 35q2 3 5 2q20 -6 42 -6q61 0 88.5 39.5t42.5 121.5l87 493q0 5 4 5zM337 722l-66 85l-101 -85q-3 -3 -9 -3h-41q-2 0 -2.5 2.5t0.5 3.5l129 107q2 2 5 2h44q7 0 7 -3l81 -108
q1 -4 -2 -4h-39q-3 0 -6 3z" />
    <glyph glyph-name="jcircumflex" unicode="&#x135;" horiz-adv-x="203" 
d="M112 475q1 4 5 4h37q4 0 3 -5l-90 -512q-23 -129 -75 -175q-32 -27 -86 -27q-11 0 -16 1q-2 1 -2 6l6 33q0 3 4 3q48 0 76.5 29.5t44.5 119.5zM168 670q-8 -11 -27 -32.5t-42 -46t-30 -32.5q-2 -4 -6 -4h-38q-2 0 -2.5 2.5t1.5 3.5l122 136q3 3 6 3h41q2 0 5 -3l65 -137
q2 -5 -3 -5h-33q-5 0 -6 4q-7 17 -28 59t-25 52z" />
    <glyph glyph-name="uni0136" unicode="&#x136;" horiz-adv-x="510" 
d="M195 660l-116 -656q-1 -4 -4 -4h-37q-5 0 -4 5l115 655q1 5 5 5h38q4 0 3 -5zM429 3l-269 331q-3 6 1 11l353 317q3 3 7 3h45q6 0 2 -6l-358 -319l275 -335q3 -5 -2 -5h-45q-6 0 -9 3zM185 -228h-40q-5 0 -2 5q30 31 43 55.5t18 57.5q6 34 -2 64q-1 4 3 4h38q5 0 6 -3
q6 -31 2 -60q-9 -71 -60 -120q-3 -3 -6 -3z" />
    <glyph glyph-name="uni0137" unicode="&#x137;" horiz-adv-x="406" 
d="M392 479h46q2 0 3 -2t-1 -4q-159 -137 -257 -224q181 -226 196 -244q3 -5 -2 -5h-45q-5 0 -8 3l-192 240q-3 5 1 9l250 223q4 4 9 4zM198 724l-124 -720q-1 -4 -6 -4h-35q-5 0 -5 5l125 713q1 4 4 5q36 4 38 4q3 0 3 -3zM132 -224h-40q-5 0 -2 5q30 32 43 56.5t18 56.5
q6 34 -2 64q-1 4 3 4h38q5 0 6 -3q6 -31 2 -60q-9 -69 -60 -120q-3 -3 -6 -3z" />
    <glyph glyph-name="kgreenlandic" unicode="&#x138;" horiz-adv-x="416" 
d="M397 479h45q8 0 2 -6q-241 -207 -260 -224q16 -20 56.5 -72t76 -96t62.5 -76q3 -5 -2 -5h-45q-5 0 -8 3l-192 240q-3 5 1 9l255 223q4 4 9 4zM155 475l-81 -471q-1 -4 -6 -4h-35q-5 0 -5 5l82 468q1 5 5 6h37q3 0 3 -4z" />
    <glyph glyph-name="Lacute" unicode="&#x139;" horiz-adv-x="431" 
d="M195 661l-108 -619h311q6 0 2 -4l-12 -34q-1 -4 -5 -4h-344q-5 0 -5 5l115 656q2 4 4 4h38q4 0 4 -4zM133 732l142 109q3 2 8 2h53q8 0 3 -5l-150 -108q-3 -2 -7 -2h-46q-7 0 -3 4z" />
    <glyph glyph-name="lacute" unicode="&#x13a;" horiz-adv-x="216" 
d="M152 767l98 78q5 4 11 4h44q8 0 2 -6l-103 -79q-4 -3 -10 -3h-39q-9 0 -3 6zM157 34l-6 -31q-1 -4 -5 -5q-14 -8 -41 -8q-79 0 -62 99l109 629q1 4 4 5q3 0 12 1.5t16.5 2t10.5 0.5t3 -4l-109 -637q-6 -33 3.5 -44t28.5 -11q18 0 32 6q4 2 4 -3z" />
    <glyph glyph-name="uni013B" unicode="&#x13b;" horiz-adv-x="431" 
d="M195 661l-108 -619h311q6 0 2 -4l-12 -34q-1 -4 -5 -4h-344q-5 0 -5 5l115 656q2 4 4 4h38q4 0 4 -4zM160 -248h-40q-5 0 -2 4q30 32 43 56.5t18 56.5q6 35 -2 65q-1 4 3 4h38q4 0 5 -3q7 -27 3 -60q-9 -71 -61 -121q-2 -2 -5 -2z" />
    <glyph glyph-name="uni013C" unicode="&#x13c;" horiz-adv-x="216" 
d="M157 34l-6 -31q-1 -4 -5 -5q-14 -8 -41 -8q-79 0 -62 99l109 629q1 4 4 5q3 0 12 1.5t16.5 2t10.5 0.5t3 -4l-109 -637q-6 -33 3.5 -44t28.5 -11q18 0 32 6q4 2 4 -3zM30 -228h-40q-5 0 -2 5q51 54 62 113q5 32 -3 65q-1 4 3 4h38q5 0 6 -4q7 -22 2 -60q-9 -69 -60 -120
q-3 -3 -6 -3z" />
    <glyph glyph-name="Lcaron" unicode="&#x13d;" horiz-adv-x="431" 
d="M195 661l-108 -619h311q6 0 2 -4l-12 -34q-1 -4 -5 -4h-344q-5 0 -5 5l115 656q2 4 4 4h38q4 0 4 -4zM325 437l42 226q1 4 5 4h34q3 0 3 -5l-44 -225q-1 -4 -6 -4h-30q-5 0 -4 4z" />
    <glyph glyph-name="lcaron" unicode="&#x13e;" horiz-adv-x="227" 
d="M230 495l42 223q1 5 6 5h33q5 0 4 -5l-48 -223q0 -6 -5 -6h-28q-5 0 -4 6zM157 34l-6 -31q-1 -4 -5 -5q-14 -8 -41 -8q-79 0 -62 99l109 629q1 4 4 5q3 0 12 1.5t16.5 2t10.5 0.5t3 -4l-109 -637q-6 -33 3.5 -44t28.5 -11q18 0 32 6q4 2 4 -3z" />
    <glyph glyph-name="Ldot" unicode="&#x13f;" horiz-adv-x="431" 
d="M195 661l-108 -619h311q6 0 2 -4l-12 -34q-1 -4 -5 -4h-344q-5 0 -5 5l115 656q2 4 4 4h38q4 0 4 -4zM324 338q-14 0 -22.5 9.5t-7.5 22.5q2 14 11.5 22.5t24.5 8.5q14 0 22.5 -9t6.5 -23q-2 -31 -35 -31z" />
    <glyph glyph-name="ldot" unicode="&#x140;" horiz-adv-x="220" 
d="M230 398q-27 0 -25 33q1 14 10 23.5t23 9.5q13 0 20.5 -9.5t5.5 -23.5q-1 -15 -10.5 -24t-23.5 -9zM157 34l-6 -31q-1 -4 -5 -5q-14 -8 -41 -8q-79 0 -62 99l109 629q1 4 4 5q3 0 12 1.5t16.5 2t10.5 0.5t3 -4l-109 -637q-6 -33 3.5 -44t28.5 -11q18 0 32 6q4 2 4 -3z
" />
    <glyph glyph-name="Lslash" unicode="&#x141;" horiz-adv-x="442" 
d="M97 42h311q6 0 2 -4l-12 -34q-1 -4 -5 -4h-344q-5 0 -5 5l50 287l-93 -41q-2 -2 -3 0v3l6 32q0 4 4 5l93 41l58 329q2 4 4 4h38q4 0 4 -4l-54 -307l166 73q2 1 3.5 0t0.5 -3l-6 -32q-2 -5 -6 -6l-165 -72z" />
    <glyph glyph-name="lslash" unicode="&#x142;" horiz-adv-x="216" 
d="M153 458l86 43q2 2 3.5 1t0.5 -3l-4 -28q-1 -5 -4 -7l-89 -44l-57 -334q-6 -33 3.5 -44t28.5 -11q18 0 32 6q4 2 4 -3l-6 -31q-1 -4 -5 -5q-14 -8 -41 -8q-79 0 -62 99l53 306l-75 -37q-4 -2 -4 1v2l5 30q0 4 5 5l76 37l49 285q1 4 4 5q3 0 12 1.5t16.5 2t10.5 0.5t3 -4z
" />
    <glyph glyph-name="Nacute" unicode="&#x143;" horiz-adv-x="625" 
d="M149 661q1 4 5 4h53q5 0 6 -3q237 -586 244 -614h1q3 44 103 613q1 4 4 4h38q5 0 3 -5l-115 -655q-1 -5 -5 -5h-50q-6 0 -8 4q-234 575 -244 620h-1q-3 -40 -104 -620q-1 -4 -4 -4h-37q-4 0 -4 5zM336 730l142 108q3 3 7 3h54q4 -1 2 -6l-149 -108q-3 -2 -8 -2h-46
q-5 0 -2 5z" />
    <glyph glyph-name="nacute" unicode="&#x144;" horiz-adv-x="502" 
d="M28 4l64 363q11 64 15 107q2 5 5 5h33q4 0 4 -4q0 -17 -11 -85q81 98 183 98q18 0 34 -4t34 -15.5t27.5 -31.5t15 -52.5t-4.5 -78.5l-53 -302q-1 -4 -6 -4h-36q-6 0 -4 5l54 308q22 135 -75 135q-88 0 -161 -99q-16 -22 -20 -42l-53 -303q-1 -4 -4 -4h-38q-3 0 -3 4z
M244 569l128 144q4 4 7 4h48q5 0 3 -5l-135 -144q-3 -4 -7 -4h-42q-5 0 -2 5z" />
    <glyph glyph-name="uni0145" unicode="&#x145;" horiz-adv-x="625" 
d="M149 661q1 4 5 4h53q5 0 6 -3q237 -586 244 -614h1q3 44 103 613q1 4 4 4h38q5 0 3 -5l-115 -655q-1 -5 -5 -5h-50q-6 0 -8 4q-234 575 -244 620h-1q-3 -40 -104 -620q-1 -4 -4 -4h-37q-4 0 -4 5zM225 -231h-40q-5 0 -2 4q30 32 43 56.5t18 56.5q6 35 -2 65q-1 4 3 4h38
q5 0 6 -3q7 -24 2 -60q-9 -70 -60 -121q-4 -2 -6 -2z" />
    <glyph glyph-name="uni0146" unicode="&#x146;" horiz-adv-x="502" 
d="M28 4l64 363q11 64 15 107q2 5 5 5h33q4 0 4 -4q0 -17 -11 -85q81 98 183 98q18 0 34 -4t34 -15.5t27.5 -31.5t15 -52.5t-4.5 -78.5l-53 -302q-1 -4 -6 -4h-36q-6 0 -4 5l54 308q22 135 -75 135q-88 0 -161 -99q-16 -22 -20 -42l-53 -303q-1 -4 -4 -4h-38q-3 0 -3 4z
M161 -222h-39q-5 0 -2 5q29 32 42.5 56.5t18.5 56.5q6 34 -2 64q-1 4 3 4h38q4 0 5 -3q7 -27 3 -60q-11 -73 -61 -120q-1 -3 -6 -3z" />
    <glyph glyph-name="Ncaron" unicode="&#x147;" horiz-adv-x="625" 
d="M149 661q1 4 5 4h53q5 0 6 -3q237 -586 244 -614h1q3 44 103 613q1 4 4 4h38q5 0 3 -5l-115 -655q-1 -5 -5 -5h-50q-6 0 -8 4q-234 575 -244 620h-1q-3 -40 -104 -620q-1 -4 -4 -4h-37q-4 0 -4 5zM316 833l67 -85l102 85q3 3 8 3h40q2 0 2.5 -2t-0.5 -4l-126 -107
q-3 -2 -5 -2h-44q-7 0 -7 3l-84 109q-1 3 3 3h38q4 0 6 -3z" />
    <glyph glyph-name="ncaron" unicode="&#x148;" horiz-adv-x="502" 
d="M28 4l64 363q11 64 15 107q2 5 5 5h33q4 0 4 -4q0 -17 -11 -85q81 98 183 98q18 0 34 -4t34 -15.5t27.5 -31.5t15 -52.5t-4.5 -78.5l-53 -302q-1 -4 -6 -4h-36q-6 0 -4 5l54 308q22 135 -75 135q-88 0 -161 -99q-16 -22 -20 -42l-53 -303q-1 -4 -4 -4h-38q-3 0 -3 4z
M289 586l95 114q3 3 7 3h37q5 0 2 -6l-120 -138q-3 -3 -6 -3h-40q-2 0 -5 3l-69 139q-2 5 3 5h34q4 0 7 -4q7 -16 29.5 -61t25.5 -52z" />
    <glyph glyph-name="napostrophe" unicode="&#x149;" horiz-adv-x="502" 
d="M69 552l39 204q1 5 6 5h33q4 0 4 -5l-43 -204q-1 -4 -5 -4h-30q-5 0 -4 4zM28 4l64 363q11 64 15 107q2 5 5 5h33q4 0 4 -4q0 -17 -11 -85q81 98 183 98q18 0 34 -4t34 -15.5t27.5 -31.5t15 -52.5t-4.5 -78.5l-53 -302q-1 -4 -6 -4h-36q-6 0 -4 5l54 308q22 135 -75 135
q-88 0 -161 -99q-16 -22 -20 -42l-53 -303q-1 -4 -4 -4h-38q-3 0 -3 4z" />
    <glyph glyph-name="Omacron" unicode="&#x14c;" horiz-adv-x="628" 
d="M375 675q106 0 167 -74t61 -199q0 -108 -37.5 -200.5t-113 -152t-173.5 -59.5q-107 0 -169.5 71t-62.5 192q-1 108 38 203.5t115.5 157t174.5 61.5zM368 632q-119 0 -197 -112t-78 -266q0 -93 47.5 -157t143.5 -64q84 0 148.5 55.5t95 137.5t29.5 173q0 100 -45.5 166.5
t-143.5 66.5zM282 803h232q3 0 3 -3l-6 -32q-1 -4 -5 -4h-230q-4 0 -4 4l5 31q2 4 5 4z" />
    <glyph glyph-name="omacron" unicode="&#x14d;" horiz-adv-x="471" 
d="M264 488q77 0 121.5 -52.5t44.5 -145.5q0 -118 -65.5 -209t-168.5 -91q-80 0 -125.5 52t-45.5 146q0 121 67.5 210.5t171.5 89.5zM258 447q-78 0 -133 -75.5t-55 -182.5q0 -70 32.5 -113.5t98.5 -43.5q73 0 127.5 75t55.5 183q1 67 -29.5 112t-96.5 45zM165 650h247
q3 0 3 -4l-7 -30q0 -4 -3 -4h-247q-5 0 -3 5l7 30q2 3 3 3z" />
    <glyph glyph-name="Ohungarumlaut" unicode="&#x150;" horiz-adv-x="628" 
d="M375 675q106 0 167 -74t61 -199q0 -108 -37.5 -200.5t-113 -152t-173.5 -59.5q-107 0 -169.5 71t-62.5 192q-1 108 38 203.5t115.5 157t174.5 61.5zM368 632q-119 0 -197 -112t-78 -266q0 -93 47.5 -157t143.5 -64q84 0 148.5 55.5t95 137.5t29.5 173q0 100 -45.5 166.5
t-143.5 66.5zM272 742l119 108q1 4 6 4h44q1 0 2 -2t0 -3l-124 -108q-2 -3 -6 -3h-39q-5 0 -2 4zM421 743l117 106q3 5 7 5h44q7 0 2 -7l-122 -105q-2 -4 -8 -4h-37q-6 0 -3 5z" />
    <glyph glyph-name="ohungarumlaut" unicode="&#x151;" horiz-adv-x="471" 
d="M264 488q77 0 121.5 -52.5t44.5 -145.5q0 -118 -65.5 -209t-168.5 -91q-80 0 -125.5 52t-45.5 146q0 121 67.5 210.5t171.5 89.5zM258 447q-78 0 -133 -75.5t-55 -182.5q0 -70 32.5 -113.5t98.5 -43.5q73 0 127.5 75t55.5 183q1 67 -29.5 112t-96.5 45zM173 563l121 144
q1 4 6 4h41q2 0 2 -1.5t-1 -3.5l-125 -145q-4 -3 -9 -3h-33q-7 0 -2 5zM312 563l121 144q3 4 6 4h42q2 0 2 -1.5t-1 -3.5l-126 -145q-3 -3 -7 -3h-34q-6 0 -3 5z" />
    <glyph glyph-name="OE" unicode="&#x152;" horiz-adv-x="831" 
d="M415 42l102 579q-31 8 -94 8q-148 0 -238.5 -96t-90.5 -250q0 -110 60.5 -177.5t175.5 -67.5q60 0 85 4zM760 0h-323q-73 -5 -115 -5q-124 0 -199.5 75t-75.5 212q0 175 107.5 281.5t276.5 106.5q25 0 50.5 -1t41 -2.5t17.5 -1.5h301q4 0 4 -4l3 -34q1 -5 -5 -5h-281
l-45 -261h255q4 0 3 -5l-6 -34q-1 -4 -5 -4h-255l-48 -276h315q4 0 2 -5l-12 -33q-1 -4 -6 -4z" />
    <glyph glyph-name="oe" unicode="&#x153;" horiz-adv-x="758" 
d="M202 32q73 0 126.5 74t54.5 183q0 69 -30.5 113.5t-96.5 44.5q-78 0 -132 -75t-54 -183q0 -70 32.5 -113.5t99.5 -43.5zM612 448q-66 0 -118 -51t-69 -136q275 -14 275 114q0 73 -88 73zM680 64l-7 -37q-1 -5 -5 -7q-45 -30 -120 -30q-65 0 -106.5 32.5t-56.5 93.5
q-31 -58 -79 -92t-109 -34q-79 0 -125.5 53t-46.5 146q0 121 66.5 210t170.5 89q61 0 101.5 -35t54.5 -98q33 61 84.5 97t114.5 36q64 0 94.5 -31.5t31.5 -77.5q1 -83 -81 -123.5t-242 -32.5q-3 -22 -3 -46q2 -66 35.5 -105.5t102.5 -39.5t122 35q2 -1 3 -3z" />
    <glyph glyph-name="Racute" unicode="&#x154;" horiz-adv-x="506" 
d="M131 299l-52 -295q0 -4 -4 -4h-37q-4 0 -4 5l115 655q0 5 4 5q68 2 126 2q87 0 145.5 -40.5t58.5 -128.5q0 -77 -52 -127t-129 -65q3 -5 23 -46t56.5 -112t76.5 -143q2 -5 -2 -5h-42q-4 0 -8 4q-105 205 -145 285q-4 10 -14 10h-116zM189 623l-50 -283h100q92 0 145 43.5
t53 110.5q0 131 -168 131q-34 0 -80 -2zM241 739l142 109q2 2 7 2h54q6 0 2 -6l-150 -107q-2 -3 -7 -3h-46q-2 0 -3 2t1 3z" />
    <glyph glyph-name="racute" unicode="&#x155;" horiz-adv-x="286" 
d="M110 479h33q4 0 4 -4q1 -10 -3 -45.5t-8 -53.5q30 45 81 78.5t93 33.5q6 0 4 -5l-7 -39q-2 -5 -6 -5q-44 -4 -87 -32t-70 -69q-14 -18 -19 -39l-52 -295q-1 -4 -4 -4h-37q-4 0 -4 4l62 348q16 91 16 123q0 4 4 4zM165 562l128 144q4 4 7 4h48q5 0 3 -5l-135 -144
q-3 -4 -7 -4h-42q-5 0 -2 5z" />
    <glyph glyph-name="uni0156" unicode="&#x156;" horiz-adv-x="506" 
d="M131 299l-52 -295q0 -4 -4 -4h-37q-4 0 -4 5l115 655q0 5 4 5q68 2 126 2q87 0 145.5 -40.5t58.5 -128.5q0 -77 -52 -127t-129 -65q3 -5 23 -46t56.5 -112t76.5 -143q2 -5 -2 -5h-42q-4 0 -8 4q-105 205 -145 285q-4 10 -14 10h-116zM189 623l-50 -283h100q92 0 145 43.5
t53 110.5q0 131 -168 131q-34 0 -80 -2zM186 -223h-40q-5 0 -2 5q30 32 43 56.5t18 56.5q6 34 -2 64q-1 4 3 4h38q5 0 6 -3q7 -24 2 -60q-9 -69 -60 -120q-3 -3 -6 -3z" />
    <glyph glyph-name="uni0157" unicode="&#x157;" horiz-adv-x="286" 
d="M110 479h33q4 0 4 -4q1 -10 -3 -45.5t-8 -53.5q30 45 81 78.5t93 33.5q6 0 4 -5l-7 -39q-2 -5 -6 -5q-44 -4 -87 -32t-70 -69q-14 -18 -19 -39l-52 -295q-1 -4 -4 -4h-37q-4 0 -4 4l62 348q16 91 16 123q0 4 4 4zM1 -218h-39q-6 0 -3 4q51 54 62 113q5 32 -3 65q-1 4 4 4
h37q5 0 6 -3q7 -24 2 -61q-9 -71 -60 -120q-2 -2 -6 -2z" />
    <glyph glyph-name="Rcaron" unicode="&#x158;" horiz-adv-x="506" 
d="M131 299l-52 -295q0 -4 -4 -4h-37q-4 0 -4 5l115 655q0 5 4 5q68 2 126 2q87 0 145.5 -40.5t58.5 -128.5q0 -77 -52 -127t-129 -65q3 -5 23 -46t56.5 -112t76.5 -143q2 -5 -2 -5h-42q-4 0 -8 4q-105 205 -145 285q-4 10 -14 10h-116zM189 623l-50 -283h100q92 0 145 43.5
t53 110.5q0 131 -168 131q-34 0 -80 -2zM221 841l67 -85l101 85q4 4 9 4h39q5 -1 2 -7l-126 -106q-2 -3 -5 -3h-44q-7 0 -7 4l-83 108q-4 4 2 4h38q4 0 7 -4z" />
    <glyph glyph-name="rcaron" unicode="&#x159;" horiz-adv-x="286" 
d="M110 479h33q4 0 4 -4q1 -10 -3 -45.5t-8 -53.5q30 45 81 78.5t93 33.5q6 0 4 -5l-7 -39q-2 -5 -6 -5q-44 -4 -87 -32t-70 -69q-14 -18 -19 -39l-52 -295q-1 -4 -4 -4h-37q-4 0 -4 4l62 348q16 91 16 123q0 4 4 4zM199 586l95 114q6 3 7 3h37q5 0 2 -6l-120 -137
q-3 -4 -5 -4h-41q-2 0 -4 3l-69 139q-3 5 3 5h33q4 0 7 -4q7 -15 29 -59.5t26 -53.5z" />
    <glyph glyph-name="Sacute" unicode="&#x15a;" horiz-adv-x="428" 
d="M-2 44l9 39q2 3 5 1q64 -50 155 -50q74 0 115.5 39t41.5 97q0 46 -25.5 79.5t-83.5 72.5q-71 46 -103 83.5t-32 99.5q0 70 50.5 119.5t140.5 49.5q89 0 134 -33q3 -2 2 -6l-8 -37q-2 -6 -4 -2q-53 36 -129 36q-71 0 -106 -38.5t-35 -87.5q0 -43 24.5 -72.5t81.5 -66.5
q73 -47 106.5 -88.5t33.5 -105.5q-1 -77 -56.5 -130t-152.5 -53q-96 0 -161 47q-3 3 -3 7zM227 751l142 108q5 3 8 3h53q3 0 3.5 -2t-1.5 -4l-149 -108q-3 -2 -7 -2h-46q-6 0 -3 5z" />
    <glyph glyph-name="sacute" unicode="&#x15b;" horiz-adv-x="332" 
d="M289 426q-37 23 -91 23q-52 0 -81 -26t-29 -64q0 -29 18.5 -49.5t60.5 -43.5q55 -29 82 -59.5t27 -76.5q0 -67 -46 -103.5t-115 -36.5q-83 0 -126 37q-4 4 -3 8l8 35q2 4 5 1q50 -41 119 -41q56 0 84.5 27.5t28.5 66.5q0 33 -20 55t-65 49q-51 28 -76.5 55.5t-25.5 70.5
q0 59 43.5 96.5t115.5 37.5q67 0 97 -21q4 -2 2 -7l-7 -32q-1 -4 -6 -2zM158 562l128 144q4 4 7 4h48q5 0 3 -5l-135 -144q-3 -4 -7 -4h-42q-5 0 -2 5z" />
    <glyph glyph-name="Scircumflex" unicode="&#x15c;" horiz-adv-x="428" 
d="M-2 44l9 39q2 3 5 1q64 -50 155 -50q74 0 115.5 39t41.5 97q0 46 -25.5 79.5t-83.5 72.5q-71 46 -103 83.5t-32 99.5q0 70 50.5 119.5t140.5 49.5q89 0 134 -33q3 -2 2 -6l-8 -37q-2 -6 -4 -2q-53 36 -129 36q-71 0 -106 -38.5t-35 -87.5q0 -43 24.5 -72.5t81.5 -66.5
q73 -47 106.5 -88.5t33.5 -105.5q-1 -77 -56.5 -130t-152.5 -53q-96 0 -161 47q-3 3 -3 7zM359 736l-66 86l-102 -86q-3 -3 -9 -3h-40q-3 2 -2 6l128 107q3 2 5 2h44q7 0 7 -3l82 -108q1 -4 -3 -4h-38q-5 0 -6 3z" />
    <glyph glyph-name="scircumflex" unicode="&#x15d;" horiz-adv-x="332" 
d="M289 426q-37 23 -91 23q-52 0 -81 -26t-29 -64q0 -29 18.5 -49.5t60.5 -43.5q55 -29 82 -59.5t27 -76.5q0 -67 -46 -103.5t-115 -36.5q-83 0 -126 37q-4 4 -3 8l8 35q2 4 5 1q50 -41 119 -41q56 0 84.5 27.5t28.5 66.5q0 33 -20 55t-65 49q-51 28 -76.5 55.5t-25.5 70.5
q0 59 43.5 96.5t115.5 37.5q67 0 97 -21q4 -2 2 -7l-7 -32q-1 -4 -6 -2zM219 670q-11 -15 -54.5 -62.5t-44.5 -48.5q-4 -4 -7 -4h-37q-5 0 -2 6l123 136q2 3 5 3h41q3 0 5 -3l66 -137q2 -5 -4 -5h-32q-6 0 -7 4q-7 15 -27.5 57t-24.5 54z" />
    <glyph glyph-name="uni015E" unicode="&#x15e;" horiz-adv-x="428" 
d="M-2 44l9 39q2 3 5 1q64 -50 155 -50q74 0 115.5 39t41.5 97q0 46 -25.5 79.5t-83.5 72.5q-71 46 -103 83.5t-32 99.5q0 70 50.5 119.5t140.5 49.5q89 0 134 -33q3 -2 2 -6l-8 -37q-2 -6 -4 -2q-53 36 -129 36q-71 0 -106 -38.5t-35 -87.5q0 -43 24.5 -72.5t81.5 -66.5
q73 -47 106.5 -88.5t33.5 -105.5q-1 -69 -46.5 -120t-125.5 -61l-36 -44q67 -18 69 -75q1 -43 -27.5 -66.5t-73.5 -23.5q-41 0 -62 14q-4 1 -2 5l6 29q0 4 4 2q25 -14 58 -14q26 0 42 13t15 37q0 42 -79 53q-2 0 -2 3l4 15l40 50q-90 1 -154 47q-3 3 -3 7z" />
    <glyph glyph-name="uni015F" unicode="&#x15f;" horiz-adv-x="332" 
d="M-14 35l8 35q2 4 5 1q50 -41 119 -41q56 0 84.5 27.5t28.5 66.5q0 33 -20 55t-65 49q-51 28 -76.5 55.5t-25.5 70.5q0 59 43.5 96.5t115.5 37.5q67 0 97 -21q4 -2 2 -7l-7 -32q-1 -4 -6 -2q-37 23 -91 23q-52 0 -81 -26t-29 -64q0 -29 18.5 -49.5t60.5 -43.5
q55 -29 82 -59.5t27 -76.5q0 -59 -35.5 -94t-92.5 -44l-35 -44q66 -17 68 -75q1 -43 -27.5 -66.5t-72.5 -23.5q-41 0 -64 14q-2 1 -2 5l6 29q1 3 4 2q26 -14 59 -14q26 0 42 13t15 37q-1 45 -81 54l-1 5l2 8l43 54q-75 3 -115 37q-4 4 -3 8z" />
    <glyph glyph-name="Scaron" unicode="&#x160;" horiz-adv-x="428" 
d="M-2 44l9 39q2 3 5 1q64 -50 155 -50q74 0 115.5 39t41.5 97q0 46 -25.5 79.5t-83.5 72.5q-71 46 -103 83.5t-32 99.5q0 70 50.5 119.5t140.5 49.5q89 0 134 -33q3 -2 2 -6l-8 -37q-2 -6 -4 -2q-53 36 -129 36q-71 0 -106 -38.5t-35 -87.5q0 -43 24.5 -72.5t81.5 -66.5
q73 -47 106.5 -88.5t33.5 -105.5q-1 -77 -56.5 -130t-152.5 -53q-96 0 -161 47q-3 3 -3 7zM199 844l67 -85l102 85q4 4 8 4h40q2 0 2.5 -3t-0.5 -4l-126 -106q-3 -3 -5 -3h-44q-7 0 -7 3l-84 109q-2 4 3 4h38q5 0 6 -4z" />
    <glyph glyph-name="scaron" unicode="&#x161;" horiz-adv-x="332" 
d="M289 426q-37 23 -91 23q-52 0 -81 -26t-29 -64q0 -29 18.5 -49.5t60.5 -43.5q55 -29 82 -59.5t27 -76.5q0 -67 -46 -103.5t-115 -36.5q-83 0 -126 37q-4 4 -3 8l8 35q2 4 5 1q50 -41 119 -41q56 0 84.5 27.5t28.5 66.5q0 33 -20 55t-65 49q-51 28 -76.5 55.5t-25.5 70.5
q0 59 43.5 96.5t115.5 37.5q67 0 97 -21q4 -2 2 -7l-7 -32q-1 -4 -6 -2zM199 586l95 114q3 3 6 3h38q5 0 2 -6l-120 -137q-3 -4 -6 -4h-40q-2 0 -5 3l-69 139q-2 5 3 5h34q5 0 6 -4q5 -11 28 -56.5t28 -56.5z" />
    <glyph glyph-name="uni0162" unicode="&#x162;" horiz-adv-x="459" 
d="M525 661l3 -35q0 -4 -4 -4h-222l-109 -618q0 -4 -4 -4h-1l-37 -52q66 -17 68 -75q1 -43 -27.5 -66.5t-72.5 -23.5q-40 0 -63 14q-2 1 -2 5l6 29q1 3 4 2q26 -14 59 -14q26 0 42 13t15 37q-1 45 -82 54q-1 0 -0.5 5t2.5 8l49 66q-1 0 -1 3l108 617h-207q-5 0 -3 6l11 33
q1 4 5 4h459q4 0 4 -4z" />
    <glyph glyph-name="uni0163" unicode="&#x163;" horiz-adv-x="242" 
d="M160 479h96q6 0 4 -5l-6 -31q-1 -5 -6 -5h-96l-59 -332q-13 -75 43 -75q29 0 56 13q5 2 5 -3l-6 -30q-1 -4 -5 -8q-25 -13 -59 -13l-33 -42q66 -17 68 -75q1 -43 -27.5 -66.5t-73.5 -23.5q-40 0 -63 14q-2 1 -2 5l6 29q1 3 4 2q26 -14 59 -14q26 0 42 13t15 37
q-1 45 -81 54l-1 5l2 8l47 59q-56 23 -39 117l57 326h-68q-4 0 -3 5l6 32q1 4 5 4h68q3 19 7.5 42t9 48t6.5 36q1 4 4 4q24 3 40 10q2 1 3 0t0 -3q-13 -65 -25 -137z" />
    <glyph glyph-name="Tcaron" unicode="&#x164;" horiz-adv-x="459" 
d="M148 5l108 617h-207q-5 0 -3 6l11 33q1 4 5 4h459q4 0 4 -4l3 -35q0 -4 -4 -4h-222l-109 -618q0 -4 -4 -4h-36q-5 0 -5 5zM225 835l67 -86l101 86q3 3 9 3h39q3 -2 2 -6l-126 -107q-2 -2 -5 -2h-44q-7 0 -7 3l-83 108q-3 4 2 4h38q4 0 7 -3z" />
    <glyph glyph-name="tcaron" unicode="&#x165;" horiz-adv-x="242" 
d="M248 562l38 165q1 7 8 7h29q6 0 5 -6l-42 -166q0 -5 -6 -5h-28q-4 0 -4 5zM197 41l-6 -30q-1 -4 -5 -8q-23 -13 -64 -13q-42 0 -63 29t-9 93l57 326h-68q-4 0 -3 5l6 32q1 4 5 4h68q3 19 7.5 42t9 48t6.5 36q1 4 4 4q24 3 40 10q2 1 3 0t0 -3q-13 -65 -25 -137h96
q6 0 4 -5l-6 -31q-1 -5 -6 -5h-96l-59 -332q-13 -75 43 -75q29 0 56 13q5 2 5 -3z" />
    <glyph glyph-name="Utilde" unicode="&#x168;" 
d="M185 661l-74 -421q-18 -104 27.5 -155.5t126.5 -51.5q37 0 66 7.5t59 28.5t51.5 65.5t33.5 111.5l74 414q0 5 4 5h37q6 0 4 -6l-75 -419q-24 -134 -87 -192t-170 -58q-103 0 -161 63.5t-36 184.5l74 423q1 4 5 4h38q3 0 3 -4zM268 733h-28q-4 0 -5 4q5 39 28 64.5
t58 25.5q31 0 68.5 -28.5t55.5 -28.5q33 0 44 50q0 4 3 4h31q3 0 3 -4q-14 -88 -82 -88q-30 0 -67 28.5t-56 28.5q-40 0 -48 -53q0 -3 -5 -3z" />
    <glyph glyph-name="utilde" unicode="&#x169;" horiz-adv-x="487" 
d="M443 474l-67 -369q-7 -44 -13 -100q0 -5 -4 -5h-32q-6 0 -6 5q-2 23 8 74q-71 -89 -168 -89q-57 0 -92 38.5t-19 132.5l58 313q1 5 5 5h37q3 0 3 -5l-57 -315q-11 -60 9 -93.5t68 -33.5q84 0 148 85q16 19 18 33l60 325q1 4 5 4h36q3 0 3 -5zM170 580h-30q-4 0 -4 4
q5 42 28.5 66t61.5 24q32 0 76 -28.5t62 -28.5q38 0 46 51q0 4 4 4h30q3 0 3 -4q-11 -90 -82 -90q-29 0 -72.5 29.5t-67.5 29.5q-41 0 -51 -53q0 -4 -4 -4z" />
    <glyph glyph-name="Umacron" unicode="&#x16a;" 
d="M185 661l-74 -421q-18 -104 27.5 -155.5t126.5 -51.5q37 0 66 7.5t59 28.5t51.5 65.5t33.5 111.5l74 414q0 5 4 5h37q6 0 4 -6l-75 -419q-24 -134 -87 -192t-170 -58q-103 0 -161 63.5t-36 184.5l74 423q1 4 5 4h38q3 0 3 -4zM268 797h232q3 0 3 -4l-6 -31q-1 -4 -5 -4
h-230q-4 0 -5 4l6 31q2 4 5 4z" />
    <glyph glyph-name="umacron" unicode="&#x16b;" horiz-adv-x="487" 
d="M443 474l-67 -369q-7 -44 -13 -100q0 -5 -4 -5h-32q-6 0 -6 5q-2 23 8 74q-71 -89 -168 -89q-57 0 -92 38.5t-19 132.5l58 313q1 5 5 5h37q3 0 3 -5l-57 -315q-11 -60 9 -93.5t68 -33.5q84 0 148 85q16 19 18 33l60 325q1 4 5 4h36q3 0 3 -5zM175 650h247q3 0 3 -4
l-7 -30q0 -4 -3 -4h-247q-5 0 -3 5l7 30q2 3 3 3z" />
    <glyph glyph-name="Ubreve" unicode="&#x16c;" 
d="M185 661l-74 -421q-18 -104 27.5 -155.5t126.5 -51.5q37 0 66 7.5t59 28.5t51.5 65.5t33.5 111.5l74 414q0 5 4 5h37q6 0 4 -6l-75 -419q-24 -134 -87 -192t-170 -58q-103 0 -161 63.5t-36 184.5l74 423q1 4 5 4h38q3 0 3 -4zM261 825h30q4 0 5 -4q15 -68 83 -68
q69 0 97 68q2 4 4 4h30q3 0 3 -5q-13 -48 -50 -77t-87 -29q-107 0 -119 106q0 5 4 5z" />
    <glyph glyph-name="ubreve" unicode="&#x16d;" horiz-adv-x="487" 
d="M443 474l-67 -369q-7 -44 -13 -100q0 -5 -4 -5h-32q-6 0 -6 5q-2 23 8 74q-71 -89 -168 -89q-57 0 -92 38.5t-19 132.5l58 313q1 5 5 5h37q3 0 3 -5l-57 -315q-11 -60 9 -93.5t68 -33.5q84 0 148 85q16 19 18 33l60 325q1 4 5 4h36q3 0 3 -5zM166 677h33q3 0 3 -4
q15 -69 85 -69q69 0 101 69q1 4 5 4h33q4 0 2 -5q-36 -106 -145 -106q-52 0 -84 28t-36 79q0 4 3 4z" />
    <glyph glyph-name="Uring" unicode="&#x16e;" 
d="M185 661l-74 -421q-18 -104 27.5 -155.5t126.5 -51.5q37 0 66 7.5t59 28.5t51.5 65.5t33.5 111.5l74 414q0 5 4 5h37q6 0 4 -6l-75 -419q-24 -134 -87 -192t-170 -58q-103 0 -161 63.5t-36 184.5l74 423q1 4 5 4h38q3 0 3 -4zM276 780q3 37 31.5 59.5t71.5 22.5
q44 0 69 -24t22 -60q-2 -36 -31 -58.5t-72 -22.5q-44 0 -69 23.5t-22 59.5zM310 780q-1 -24 15.5 -38.5t43.5 -14.5q28 0 46 13t19 38q2 26 -14 40.5t-44 14.5t-46 -14t-20 -39z" />
    <glyph glyph-name="uring" unicode="&#x16f;" horiz-adv-x="487" 
d="M443 474l-67 -369q-7 -44 -13 -100q0 -5 -4 -5h-32q-6 0 -6 5q-2 23 8 74q-71 -89 -168 -89q-57 0 -92 38.5t-19 132.5l58 313q1 5 5 5h37q3 0 3 -5l-57 -315q-11 -60 9 -93.5t68 -33.5q84 0 148 85q16 19 18 33l60 325q1 4 5 4h36q3 0 3 -5zM205 631q2 38 29.5 61.5
t66.5 23.5q38 0 62.5 -24t22.5 -62q-4 -39 -31.5 -62t-66.5 -23t-62.5 23t-20.5 63zM237 631q-2 -26 13.5 -41.5t40.5 -15.5t42.5 14.5t19.5 41.5q1 27 -15 43t-40 16q-25 0 -42.5 -15.5t-18.5 -42.5z" />
    <glyph glyph-name="Uhungarumlaut" unicode="&#x170;" 
d="M185 661l-74 -421q-18 -104 27.5 -155.5t126.5 -51.5q37 0 66 7.5t59 28.5t51.5 65.5t33.5 111.5l74 414q0 5 4 5h37q6 0 4 -6l-75 -419q-24 -134 -87 -192t-170 -58q-103 0 -161 63.5t-36 184.5l74 423q1 4 5 4h38q3 0 3 -4zM266 729l119 108q1 4 6 4h44q1 0 2 -1.5
t0 -3.5l-124 -108q-2 -3 -6 -3h-39q-5 0 -2 4zM415 730l117 106q3 5 7 5h44q7 0 2 -7l-122 -105q-2 -4 -8 -4h-37q-6 0 -3 5z" />
    <glyph glyph-name="uhungarumlaut" unicode="&#x171;" horiz-adv-x="487" 
d="M443 474l-67 -369q-7 -44 -13 -100q0 -5 -4 -5h-32q-6 0 -6 5q-2 23 8 74q-71 -89 -168 -89q-57 0 -92 38.5t-19 132.5l58 313q1 5 5 5h37q3 0 3 -5l-57 -315q-11 -60 9 -93.5t68 -33.5q84 0 148 85q16 19 18 33l60 325q1 4 5 4h36q3 0 3 -5zM180 563l121 144q3 4 6 4h42
q3 0 1 -5l-126 -145q-3 -3 -8 -3h-33q-6 0 -3 5zM320 563l120 144q3 4 7 4h42q3 0 1 -5l-126 -145q-3 -3 -8 -3h-33q-6 0 -3 5z" />
    <glyph glyph-name="Uogonek" unicode="&#x172;" 
d="M553 665h37q6 0 4 -6l-75 -419q-36 -193 -161 -236q-124 -64 -122 -135q1 -23 17 -37.5t45 -14.5q36 0 66 15q2 1 3.5 0t0.5 -3l-5 -31q-1 -5 -5 -7q-28 -15 -76 -15q-38 0 -64.5 20.5t-27.5 62.5q-1 36 23.5 70.5t64.5 60.5h-16q-103 0 -161 63.5t-36 184.5l74 423
q1 4 5 4h38q3 0 3 -4l-74 -421q-18 -104 27.5 -155.5t126.5 -51.5q37 0 66 7.5t59 28.5t51.5 65.5t33.5 111.5l74 414q0 5 4 5z" />
    <glyph glyph-name="uogonek" unicode="&#x173;" horiz-adv-x="487" 
d="M328 77q-69 -87 -168 -87q-56 0 -91 39.5t-18 136.5l57 308q1 5 5 5h37q3 0 3 -5l-57 -315q-11 -59 8.5 -93t67.5 -34q85 0 149 85q15 17 18 32l60 326q1 4 5 4h36q3 0 3 -5l-67 -369q-10 -66 -12 -100q0 -6 -2 -8q-95 -75 -94 -133q2 -51 60 -51q23 0 59 15q5 2 5 -3
l-6 -31q-1 -3 -6 -8q-25 -13 -67 -13q-40 0 -65 21.5t-26 58.5q-3 69 98 155q0 36 8 69z" />
    <glyph glyph-name="Wcircumflex" unicode="&#x174;" horiz-adv-x="820" 
d="M497 661q41 -464 47 -620h1q36 91 266 620q1 4 5 4h40q4 0 4 -5l-291 -656q-1 -4 -4 -4h-51q-7 0 -8 5q-45 545 -48 617h-1q-20 -66 -266 -618q-1 -4 -5 -4h-51q-5 0 -5 4l-56 657q0 4 5 4h38q4 0 4 -4q47 -592 48 -619h1q30 84 267 619q1 4 5 4h51q4 0 4 -4zM564 717
l-65 85l-102 -85q-3 -3 -9 -3h-41q-2 0 -2.5 2t0.5 4l129 107q2 2 5 2h44q7 0 7 -3l81 -109q3 -3 -2 -3h-39q-3 0 -6 3z" />
    <glyph glyph-name="wcircumflex" unicode="&#x175;" horiz-adv-x="653" 
d="M435 0h-46q-5 0 -5 5q-39 409 -38 426q-4 -13 -199 -427q-3 -4 -6 -4h-48q-5 0 -5 5l-44 469q0 5 5 5h36q4 0 4 -4q28 -292 37 -431h2q30 75 201 431q1 4 5 4h42q5 0 5 -4q32 -326 39 -430h1q30 76 200 430q2 4 6 4h38q2 0 2.5 -1.5t-0.5 -3.5l-226 -470q-3 -4 -6 -4z
M383 670q-8 -11 -27 -32.5t-42 -46t-30 -32.5q-2 -4 -6 -4h-38q-2 0 -2.5 2.5t1.5 3.5l122 136q3 3 6 3h41q2 0 5 -3l65 -137q2 -5 -3 -5h-33q-5 0 -6 4q-7 17 -28 59t-25 52z" />
    <glyph glyph-name="Ycircumflex" unicode="&#x176;" horiz-adv-x="472" 
d="M195 0h-37q-4 0 -3 5l43 250q2 15 -2 25l-145 381q-1 4 3 4h40q4 0 5 -3q122 -323 131 -355q39 60 258 354q3 4 6 4h41q5 0 3 -5l-283 -382q-9 -11 -12 -28l-43 -245q-1 -5 -5 -5zM391 724l-65 85l-102 -86q-6 -3 -9 -3h-40q-3 2 -2 6l128 107q2 3 5 3h44q7 0 7 -4
l81 -108q4 -4 -2 -4h-39q-3 0 -6 4z" />
    <glyph glyph-name="ycircumflex" unicode="&#x177;" horiz-adv-x="413" 
d="M34 479h40q3 0 4 -4q67 -314 82 -420h2q117 213 214 420q3 4 6 4h38q6 0 3 -5q-117 -248 -238 -455q-61 -103 -158 -246q-3 -3 -7 -3l-43 -4q-4 1 -2 5q97 142 151 233q2 6 1 8q-30 126 -96 463q-2 4 3 4zM258 671q-11 -15 -54.5 -62.5t-44.5 -48.5q-4 -4 -7 -4h-37
q-5 0 -2 6l123 136q2 3 5 3h41q4 0 5 -3l66 -137q2 -5 -4 -5h-32q-6 0 -7 4q-7 15 -27.5 57t-24.5 54z" />
    <glyph glyph-name="Ydieresis" unicode="&#x178;" horiz-adv-x="472" 
d="M195 0h-37q-4 0 -3 5l43 250q2 15 -2 25l-145 381q-1 4 3 4h40q4 0 5 -3q122 -323 131 -355q39 60 258 354q3 4 6 4h41q5 0 3 -5l-283 -382q-9 -11 -12 -28l-43 -245q-1 -5 -5 -5zM215 731q-14 0 -22.5 8.5t-7.5 22.5q2 14 11 22.5t23 8.5t22.5 -9t7.5 -22
q-3 -31 -34 -31zM392 731q-14 0 -22.5 8.5t-7.5 22.5q2 14 11.5 22.5t23.5 8.5q13 0 21.5 -9t7.5 -23q-2 -30 -34 -30z" />
    <glyph glyph-name="Zacute" unicode="&#x179;" horiz-adv-x="481" 
d="M424 0h-456q-4 0 -4 4l5 24q1 3 4 7q228 287 472 587h-372q-5 0 -3 5l12 34q1 4 5 4h422q4 0 3 -4l-3 -23q0 -2 -1 -3t-2.5 -3t-2.5 -4q-71 -87 -231.5 -287.5t-240.5 -298.5h408q4 0 2 -4l-12 -34q-1 -4 -5 -4zM257 750l142 108q5 3 7 3h54q4 -1 2 -6l-149 -108
q-3 -2 -8 -2h-46q-5 0 -2 5z" />
    <glyph glyph-name="zacute" unicode="&#x17a;" horiz-adv-x="349" 
d="M296 0h-322q-4 0 -3 3l4 23q1 4 4 7q318 403 320 406q-19 -1 -105 -1h-145q-4 0 -3 4l10 34q1 3 4 3h302q2 0 2 -4l-5 -24q-1 -4 -4 -8q-75 -101 -180.5 -232.5t-139.5 -170.5q34 1 125 1h150q5 0 3 -5l-12 -33q-1 -3 -5 -3zM163 564l128 144q4 4 7 4h48q5 0 3 -5
l-135 -144q-3 -4 -7 -4h-42q-5 0 -2 5z" />
    <glyph glyph-name="Zdotaccent" unicode="&#x17b;" horiz-adv-x="481" 
d="M424 0h-456q-4 0 -4 4l5 24q1 3 4 7q228 287 472 587h-372q-5 0 -3 5l12 34q1 4 5 4h422q4 0 3 -4l-3 -23q0 -2 -1 -3t-2.5 -3t-2.5 -4q-71 -87 -231.5 -287.5t-240.5 -298.5h408q4 0 2 -4l-12 -34q-1 -4 -5 -4zM300 749q-15 0 -23 9t-7 22q3 31 36 31q14 0 22.5 -8.5
t6.5 -22.5q-2 -31 -35 -31z" />
    <glyph glyph-name="zdotaccent" unicode="&#x17c;" horiz-adv-x="349" 
d="M296 0h-322q-4 0 -3 3l4 23q1 4 4 7q318 403 320 406q-19 -1 -105 -1h-145q-4 0 -3 4l10 34q1 3 4 3h302q2 0 2 -4l-5 -24q-1 -4 -4 -8q-75 -101 -180.5 -232.5t-139.5 -170.5q34 1 125 1h150q5 0 3 -5l-12 -33q-1 -3 -5 -3zM199 605q-15 0 -23 9.5t-6 23.5q5 31 36 31
q14 0 21 -9.5t5 -23.5q-1 -13 -10 -22t-23 -9z" />
    <glyph glyph-name="Zcaron" unicode="&#x17d;" horiz-adv-x="481" 
d="M424 0h-456q-4 0 -4 4l5 24q1 3 4 7q228 287 472 587h-372q-5 0 -3 5l12 34q1 4 5 4h422q4 0 3 -4l-3 -23q0 -2 -1 -3t-2.5 -3t-2.5 -4q-71 -87 -231.5 -287.5t-240.5 -298.5h408q4 0 2 -4l-12 -34q-1 -4 -5 -4zM234 837l67 -85l101 85q4 4 9 4h39q5 -1 2 -7l-126 -106
q-2 -3 -5 -3h-44q-7 0 -7 3l-83 109q-4 4 2 4h38q4 0 7 -4z" />
    <glyph glyph-name="zcaron" unicode="&#x17e;" horiz-adv-x="349" 
d="M296 0h-322q-4 0 -3 3l4 23q1 4 4 7q318 403 320 406q-19 -1 -105 -1h-145q-4 0 -3 4l10 34q1 3 4 3h302q2 0 2 -4l-5 -24q-1 -4 -4 -8q-75 -101 -180.5 -232.5t-139.5 -170.5q34 1 125 1h150q5 0 3 -5l-12 -33q-1 -3 -5 -3zM214 586l95 114q3 3 6 3h38q5 0 2 -6
l-120 -137q-3 -4 -6 -4h-40q-2 0 -5 3l-69 139q-2 5 3 5h34q5 0 6 -4q5 -11 28 -56.5t28 -56.5z" />
    <glyph glyph-name="uni018F" unicode="&#x18f;" horiz-adv-x="610" 
d="M117 572l7 41q0 5 5 7q92 54 207 54q110 0 176 -72t66 -200q0 -79 -20.5 -151.5t-59 -131.5t-101 -94t-139.5 -35q-103 0 -166.5 61.5t-63.5 170.5q0 35 5 66t11 33q11 5 155 5h326q6 54 6 79q0 99 -51 162.5t-156 63.5t-203 -62q-4 -3 -4 3zM519 286h-314
q-112 0 -124 -3q-4 -19 -6 -54q0 -88 47 -142t140 -54q100 0 167 68.5t90 184.5z" />
    <glyph glyph-name="florin" unicode="&#x192;" horiz-adv-x="378" 
d="M66 356l7 28q0 4 4 4h89l16 86q20 101 58.5 155t107.5 54q35 0 58 -13q3 -1 3 -7l-5 -32q-2 -5 -6 -3q-24 13 -55 13q-85 0 -113 -153l-19 -100h116q4 0 4 -3l-7 -28q-1 -5 -4 -5h-116l-48 -269q-21 -107 -56.5 -153t-100.5 -46q-45 0 -74 20q-3 3 -3 7l7 35q0 5 5 2
q31 -23 66 -23q47 0 71 38t40 127l48 262h-90q-4 0 -3 4z" />
    <glyph glyph-name="Ohorn" unicode="&#x1a0;" horiz-adv-x="635" 
d="M284 33q84 0 148.5 55.5t95 137.5t29.5 173q0 100 -45.5 166.5t-143.5 66.5q-119 0 -197 -112t-78 -266q0 -93 47.5 -157t143.5 -64zM582 728h34q6 0 7 -6q6 -15 6 -40q0 -39 -21 -64.5t-54 -32.5q49 -72 49 -183q0 -108 -37.5 -200.5t-113 -152t-173.5 -59.5
q-107 0 -169.5 71t-62.5 192q-1 108 38 203.5t115.5 157t174.5 61.5q92 0 152 -58q58 5 58 64q0 20 -6 41q-1 6 3 6z" />
    <glyph glyph-name="ohorn" unicode="&#x1a1;" horiz-adv-x="471" 
d="M384 290q1 67 -29.5 112t-96.5 45q-78 0 -133 -75.5t-55 -182.5q0 -70 32.5 -113.5t98.5 -43.5q73 0 127.5 75t55.5 183zM431 563h34q6 0 8 -5q5 -13 5 -38q0 -40 -19.5 -69.5t-55.5 -41.5q27 -47 27 -119q0 -118 -65.5 -209t-168.5 -91q-80 0 -125.5 52t-45.5 146
q0 121 67.5 210.5t171.5 89.5q72 0 116 -46q56 14 54 77q0 14 -6 38q-2 6 3 6z" />
    <glyph glyph-name="Uhorn" unicode="&#x1af;" 
d="M592 643l-73 -403q-24 -134 -87 -192t-170 -58q-103 0 -161 63.5t-36 184.5l74 423q1 4 5 4h37q4 0 4 -4l-74 -421q-18 -104 27.5 -155.5t126.5 -51.5q37 0 66 7.5t59 28.5t51.5 65.5t33.5 111.5l77 430q0 5 3 5h14q97 0 82 106q0 4 4 4h35q5 0 5 -4q9 -60 -18 -98.5
t-85 -45.5z" />
    <glyph glyph-name="uhorn" unicode="&#x1b0;" horiz-adv-x="487" 
d="M404 479h10q88 0 78 116q0 4 4 4h34q5 0 5 -4q6 -60 -17 -100.5t-80 -48.5l-62 -341q-7 -44 -13 -100q0 -5 -4 -5h-32q-6 0 -6 5q-2 23 8 74q-71 -89 -169 -89q-56 0 -91 39.5t-18 136.5l57 308q1 5 5 5h37q3 0 3 -5l-57 -315q-11 -59 8.5 -93t67.5 -34q85 0 149 85
q15 17 18 32l60 326q1 4 5 4z" />
    <glyph glyph-name="uni01CD" unicode="&#x1cd;" horiz-adv-x="550" 
d="M407 248h-252l-129 -245q-2 -3 -4 -3h-40q-6 0 -3 4l333 632q4 6 8 25q0 4 4 4h54q4 0 4 -4l113 -657q1 -4 -3 -4h-37q-4 0 -6 4zM175 290h227q-51 297 -55 335h-1q-11 -29 -171 -335zM290 827l67 -85l101 85q3 3 9 3h39q4 -1 2 -6l-126 -107q-2 -2 -5 -2h-44q-7 0 -7 3
l-83 109q-3 3 2 3h38q4 0 7 -3z" />
    <glyph glyph-name="uni01CE" unicode="&#x1ce;" horiz-adv-x="476" 
d="M430 471l-78 -446q-2 -5 -6 -7q-60 -28 -130 -28q-86 0 -138 49.5t-52 146.5q0 119 88 210.5t224 91.5q56 0 91 -12q1 -1 1 -5zM310 47l70 396q-22 5 -49 5q-110 0 -185 -77t-75 -182q0 -75 38.5 -116.5t115.5 -41.5q52 0 85 16zM299 586l95 114q3 3 6 3h38q5 0 2 -6
l-120 -137q-3 -4 -6 -4h-40q-2 0 -5 3l-69 139q-2 5 3 5h34q5 0 6 -4q5 -11 28 -56.5t28 -56.5z" />
    <glyph glyph-name="uni01CF" unicode="&#x1cf;" horiz-adv-x="213" 
d="M195 661l-116 -657q0 -4 -4 -4h-36q-5 0 -5 5l115 656q1 4 5 4h38q3 0 3 -4zM114 834l67 -85l101 85q4 4 9 4h39q5 -1 2 -7l-126 -106q-2 -3 -5 -3h-44q-7 0 -7 4l-83 108q-4 4 2 4h38q4 0 7 -4z" />
    <glyph glyph-name="uni01D0" unicode="&#x1d0;" horiz-adv-x="202" 
d="M28 5l83 470q1 4 5 4h36q6 0 4 -6l-83 -469q-1 -4 -5 -4h-36q-4 0 -4 5zM148 586l95 114q3 3 6 3h38q5 0 2 -6l-120 -137q-3 -4 -6 -4h-40q-2 0 -5 3l-69 139q-2 5 3 5h34q5 0 6 -4q5 -11 28 -56.5t28 -56.5z" />
    <glyph glyph-name="uni01D1" unicode="&#x1d1;" horiz-adv-x="628" 
d="M375 675q106 0 167 -74t61 -199q0 -108 -37.5 -200.5t-113 -152t-173.5 -59.5q-107 0 -169.5 71t-62.5 192q-1 108 38 203.5t115.5 157t174.5 61.5zM368 632q-119 0 -197 -112t-78 -266q0 -93 47.5 -157t143.5 -64q84 0 148.5 55.5t95 137.5t29.5 173q0 100 -45.5 166.5
t-143.5 66.5zM318 839l67 -86l101 86q6 3 9 3h40q2 0 2.5 -2.5t-0.5 -3.5l-126 -107q-5 -3 -6 -3h-43q-6 0 -8 4l-83 108q-1 4 3 4h38q4 0 6 -3z" />
    <glyph glyph-name="uni01D2" unicode="&#x1d2;" horiz-adv-x="471" 
d="M264 488q77 0 121.5 -52.5t44.5 -145.5q0 -118 -65.5 -209t-168.5 -91q-80 0 -125.5 52t-45.5 146q0 121 67.5 210.5t171.5 89.5zM258 447q-78 0 -133 -75.5t-55 -182.5q0 -70 32.5 -113.5t98.5 -43.5q73 0 127.5 75t55.5 183q1 67 -29.5 112t-96.5 45zM276 586l95 114
q3 3 6 3h38q5 0 2 -6l-120 -137q-3 -4 -6 -4h-40q-2 0 -5 3l-69 139q-2 5 3 5h34q5 0 6 -4q5 -11 28 -56.5t28 -56.5z" />
    <glyph glyph-name="uni01D3" unicode="&#x1d3;" 
d="M185 661l-74 -421q-18 -104 27.5 -155.5t126.5 -51.5q37 0 66 7.5t59 28.5t51.5 65.5t33.5 111.5l74 414q0 5 4 5h37q6 0 4 -6l-75 -419q-24 -134 -87 -192t-170 -58q-103 0 -161 63.5t-36 184.5l74 423q1 4 5 4h38q3 0 3 -4zM305 831l67 -85l101 85q4 4 9 4h39
q5 -1 2 -7l-126 -106q-3 -3 -5 -3h-44q-7 0 -7 4l-83 108q-4 4 2 4h38q4 0 7 -4z" />
    <glyph glyph-name="uni01D4" unicode="&#x1d4;" horiz-adv-x="487" 
d="M443 474l-67 -369q-7 -44 -13 -100q0 -5 -4 -5h-32q-6 0 -6 5q-2 23 8 74q-71 -89 -168 -89q-57 0 -92 38.5t-19 132.5l58 313q1 5 5 5h37q3 0 3 -5l-57 -315q-11 -60 9 -93.5t68 -33.5q84 0 148 85q16 19 18 33l60 325q1 4 5 4h36q3 0 3 -5zM285 586l95 114q3 3 6 3h38
q5 0 2 -6l-120 -137q-3 -4 -6 -4h-40q-2 0 -5 3l-69 139q-2 5 3 5h34q5 0 6 -4q5 -11 28 -56.5t28 -56.5z" />
    <glyph glyph-name="uni01D5" unicode="&#x1d5;" 
d="M185 661l-74 -421q-18 -104 27.5 -155.5t126.5 -51.5q37 0 66 7.5t59 28.5t51.5 65.5t33.5 111.5l74 414q0 5 4 5h37q6 0 4 -6l-75 -419q-24 -134 -87 -192t-170 -58q-103 0 -161 63.5t-36 184.5l74 423q1 4 5 4h38q3 0 3 -4zM281 865h237q3 0 4 -4l-7 -28q0 -4 -3 -4
h-237q-4 0 -2 5l5 27q-1 4 3 4zM276 724q-13 0 -20.5 7.5t-6.5 20.5q2 28 32 28q11 0 18 -8t6 -20t-9 -20t-20 -8zM479 724q-12 0 -20 7.5t-7 20.5t10 20.5t21 7.5t19 -7.5t6 -20.5q-1 -12 -9 -20t-20 -8z" />
    <glyph glyph-name="uni01D6" unicode="&#x1d6;" horiz-adv-x="487" 
d="M443 474l-67 -369q-7 -44 -13 -100q0 -5 -4 -5h-32q-6 0 -6 5q-2 23 8 74q-71 -89 -168 -89q-57 0 -92 38.5t-19 132.5l58 313q1 5 5 5h37q3 0 3 -5l-57 -315q-11 -60 9 -93.5t68 -33.5q84 0 148 85q16 19 18 33l60 325q1 4 5 4h36q3 0 3 -5zM196 554q-28 0 -26 28
q1 13 10 21t21 8t19 -8t6 -21t-10 -20.5t-20 -7.5zM364 554q-13 0 -20 7.5t-6 20.5t9.5 21t20.5 8t19.5 -8t6.5 -21q-1 -12 -9.5 -20t-20.5 -8zM193 707h222q2 0 2 -4l-5 -27q0 -4 -4 -4h-222q-4 0 -4 5l5 27q1 3 6 3z" />
    <glyph glyph-name="uni01D7" unicode="&#x1d7;" 
d="M185 661l-74 -421q-18 -104 27.5 -155.5t126.5 -51.5q37 0 66 7.5t59 28.5t51.5 65.5t33.5 111.5l74 414q0 5 4 5h37q6 0 4 -6l-75 -419q-24 -134 -87 -192t-170 -58q-103 0 -161 63.5t-36 184.5l74 423q1 4 5 4h38q3 0 3 -4zM350 803l80 91q3 3 6 3h44q4 0 2 -4l-82 -91
q-1 -4 -7 -4h-40q-5 0 -3 5zM276 723q-12 0 -19.5 8t-7.5 20q3 28 32 28q11 0 18.5 -8t6.5 -20t-9.5 -20t-20.5 -8zM479 723q-12 0 -19.5 7.5t-7.5 20.5q1 13 10 20.5t21 7.5t19.5 -7.5t6.5 -20.5q-1 -12 -9.5 -20t-20.5 -8z" />
    <glyph glyph-name="uni01D8" unicode="&#x1d8;" horiz-adv-x="487" 
d="M443 474l-67 -369q-7 -44 -13 -100q0 -5 -4 -5h-32q-6 0 -6 5q-2 23 8 74q-71 -89 -168 -89q-57 0 -92 38.5t-19 132.5l58 313q1 5 5 5h37q3 0 3 -5l-57 -315q-11 -60 9 -93.5t68 -33.5q84 0 148 85q16 19 18 33l60 325q1 4 5 4h36q3 0 3 -5zM258 642l73 95q3 4 6 4h41
q5 0 2 -5l-76 -95q-3 -3 -6 -3h-37q-4 0 -3 4zM197 549q-27 0 -27 28q1 13 10 21t21 8t19 -8t6 -21q-2 -28 -29 -28zM365 549q-29 0 -27 28q1 13 9.5 21t20.5 8q13 0 20 -8t6 -21q0 -12 -8.5 -20t-20.5 -8z" />
    <glyph glyph-name="uni01D9" unicode="&#x1d9;" 
d="M185 661l-74 -421q-18 -104 27.5 -155.5t126.5 -51.5q37 0 66 7.5t59 28.5t51.5 65.5t33.5 111.5l74 414q0 5 4 5h37q6 0 4 -6l-75 -419q-24 -134 -87 -192t-170 -58q-103 0 -161 63.5t-36 184.5l74 423q1 4 5 4h38q3 0 3 -4zM387 834q68 47 79 55q6 3 9 3h44q2 0 2.5 -2
t-1.5 -3l-105 -73q-3 -3 -7 -3h-45q-2 0 -8 4l-81 72q-3 5 2 5h40q5 0 8 -2q6 -5 31 -27.5t32 -28.5zM276 726q-13 0 -20.5 7.5t-6.5 20.5q2 28 31 28q11 0 18.5 -7.5t6.5 -20.5q-1 -12 -9.5 -20t-19.5 -8zM478 726q-12 0 -19.5 8t-6.5 20q2 28 30 28t26 -28q-1 -12 -9 -20
t-21 -8z" />
    <glyph glyph-name="uni01DA" unicode="&#x1da;" horiz-adv-x="487" 
d="M443 474l-67 -369q-7 -44 -13 -100q0 -5 -4 -5h-32q-6 0 -6 5q-2 23 8 74q-71 -89 -168 -89q-57 0 -92 38.5t-19 132.5l58 313q1 5 5 5h37q3 0 3 -5l-57 -315q-11 -60 9 -93.5t68 -33.5q84 0 148 85q16 19 18 33l60 325q1 4 5 4h36q3 0 3 -5zM287 663q81 68 82 69
q4 2 8 2h42q2 0 2.5 -2t-1.5 -3l-108 -87q-3 -3 -7 -3h-39q-4 0 -7 3l-81 88q-1 1 0 2.5t3 1.5h38q3 0 7 -4q7 -8 30.5 -33.5t30.5 -33.5zM194 550q-27 0 -27 28q1 13 10.5 21t21.5 8t18.5 -8t5.5 -21q0 -13 -8.5 -20.5t-20.5 -7.5zM362 550q-27 0 -27 28q1 13 10 21t21 8
t19.5 -8t6.5 -21q-1 -12 -9.5 -20t-20.5 -8z" />
    <glyph glyph-name="uni01DB" unicode="&#x1db;" 
d="M185 661l-74 -421q-18 -104 27.5 -155.5t126.5 -51.5q37 0 66 7.5t59 28.5t51.5 65.5t33.5 111.5l74 414q0 5 4 5h37q6 0 4 -6l-75 -419q-24 -134 -87 -192t-170 -58q-103 0 -161 63.5t-36 184.5l74 423q1 4 5 4h38q3 0 3 -4zM349 886l52 -93q3 -5 -2 -5h-35q-3 0 -6 4
l-58 93q-1 4 3 4h40q4 0 6 -3zM272 721q-13 0 -20.5 7.5t-6.5 19.5q1 13 10 21t21 8t19 -8t6 -21q-1 -12 -9.5 -19.5t-19.5 -7.5zM474 721q-12 0 -19.5 7t-6.5 20t9.5 21t20.5 8q13 0 20 -8t6 -21q-1 -11 -9 -19t-21 -8z" />
    <glyph glyph-name="uni01DC" unicode="&#x1dc;" horiz-adv-x="487" 
d="M443 474l-67 -369q-7 -44 -13 -100q0 -5 -4 -5h-32q-6 0 -6 5q-2 23 8 74q-71 -89 -168 -89q-57 0 -92 38.5t-19 132.5l58 313q1 5 5 5h37q3 0 3 -5l-57 -315q-11 -60 9 -93.5t68 -33.5q84 0 148 85q16 19 18 33l60 325q1 4 5 4h36q3 0 3 -5zM253 739l54 -96q1 -4 -3 -4
h-36q-3 0 -6 3l-55 95q-5 5 3 5h37q3 0 6 -3zM195 550q-12 0 -19 7.5t-6 19.5t10 20t21 8q10 0 17 -8t6 -20q0 -12 -8.5 -19.5t-20.5 -7.5zM363 550q-12 0 -19 7.5t-6 19.5q1 13 9.5 20.5t20.5 7.5q11 0 18.5 -8t6.5 -20q-1 -11 -9.5 -19t-20.5 -8z" />
    <glyph glyph-name="Gcaron" unicode="&#x1e6;" 
d="M501 284l-175 1q-4 0 -3 3l5 34q1 3 5 3h217q3 0 3 -4l-49 -287q-2 -6 -7 -9q-71 -35 -174 -35q-124 0 -199.5 77t-75.5 213q0 166 103.5 280t274.5 114q110 0 159 -32q2 -2 1 -8l-8 -33q-2 -6 -6 -2q-56 32 -149 32q-150 0 -239.5 -101t-89.5 -249q0 -109 62 -179
t174 -70q82 0 131 25zM345 849l67 -86l101 86q6 3 9 3h39q3 -2 2 -6l-126 -107q-3 -3 -5 -3h-44q-7 0 -7 4l-83 108q-3 4 2 4h38q4 0 7 -3z" />
    <glyph glyph-name="gcaron" unicode="&#x1e7;" horiz-adv-x="479" 
d="M-32 -208l9 34q1 4 5 2q50 -29 118 -29q83 0 132 45q28 27 45.5 69.5t33.5 122.5q-50 -33 -116 -33q-76 0 -122.5 46.5t-46.5 136.5q0 123 84 212.5t210 89.5q69 0 111 -17q4 -2 4 -6q-7 -20 -8 -29l-69 -390q-18 -102 -39 -149q-59 -141 -223 -141q-74 0 -126 29
q-4 2 -2 7zM318 79l64 360q-20 9 -69 9q-98 0 -170 -74t-72 -183q2 -146 137 -146q60 0 110 34zM302 586l95 114q3 3 6 3h38q5 0 2 -6l-120 -137q-3 -4 -6 -4h-40q-2 0 -5 3l-69 139q-2 5 3 5h34q5 0 6 -4q5 -11 28 -56.5t28 -56.5z" />
    <glyph glyph-name="uni0218" unicode="&#x218;" horiz-adv-x="428" 
d="M-2 44l9 39q2 3 5 1q64 -50 155 -50q74 0 115.5 39t41.5 97q0 46 -25.5 79.5t-83.5 72.5q-71 46 -103 83.5t-32 99.5q0 70 50.5 119.5t140.5 49.5q89 0 134 -33q3 -2 2 -6l-8 -37q-2 -6 -4 -2q-53 36 -129 36q-71 0 -106 -38.5t-35 -87.5q0 -43 24.5 -72.5t81.5 -66.5
q73 -47 106.5 -88.5t33.5 -105.5q-1 -77 -56.5 -130t-152.5 -53q-96 0 -161 47q-3 3 -3 7zM118 -245h-40q-5 0 -2 4q30 32 43 56.5t18 56.5q6 35 -2 65q-1 4 3 4h38q5 0 5 -4q7 -25 3 -60q-9 -70 -61 -120q-2 -2 -5 -2z" />
    <glyph glyph-name="uni0219" unicode="&#x219;" horiz-adv-x="332" 
d="M289 426q-37 23 -91 23q-52 0 -81 -26t-29 -64q0 -29 18.5 -49.5t60.5 -43.5q55 -29 82 -59.5t27 -76.5q0 -67 -46 -103.5t-115 -36.5q-83 0 -126 37q-4 4 -3 8l8 35q2 4 5 1q50 -41 119 -41q56 0 84.5 27.5t28.5 66.5q0 33 -20 55t-65 49q-51 28 -76.5 55.5t-25.5 70.5
q0 59 43.5 96.5t115.5 37.5q67 0 97 -21q4 -2 2 -7l-7 -32q-1 -4 -6 -2zM70 -238h-39q-5 0 -2 5q52 57 61 113q6 36 -3 64q0 4 4 4h38q4 0 5 -3q7 -26 3 -60q-11 -71 -61 -120q-2 -3 -6 -3z" />
    <glyph glyph-name="uni021A" unicode="&#x21a;" horiz-adv-x="459" 
d="M148 5l108 617h-207q-5 0 -3 6l11 33q1 4 5 4h459q4 0 4 -4l3 -35q0 -4 -4 -4h-222l-109 -618q0 -4 -4 -4h-36q-5 0 -5 5zM118 -230h-39q-6 0 -3 5q30 31 43 55.5t19 56.5q5 32 -3 65q-1 4 4 4h37q5 0 6 -3q7 -24 2 -60q-9 -72 -60 -121q-2 -2 -6 -2z" />
    <glyph glyph-name="uni021B" unicode="&#x21b;" horiz-adv-x="242" 
d="M197 41l-6 -30q-1 -4 -5 -8q-23 -13 -64 -13q-42 0 -63 29t-9 93l57 326h-68q-4 0 -3 5l6 32q1 4 5 4h68q3 19 7.5 42t9 48t6.5 36q1 4 4 4q24 3 40 10q2 1 3 0t0 -3q-13 -65 -25 -137h96q6 0 4 -5l-6 -31q-1 -5 -6 -5h-96l-59 -332q-13 -75 43 -75q29 0 56 13q5 2 5 -3z
M49 -228h-39q-6 0 -2 4q50 55 61 113q6 36 -3 65q0 4 4 4h38q4 0 5 -4q8 -26 2 -60q-9 -71 -60 -120q-2 -2 -6 -2z" />
    <glyph glyph-name="uni0237" unicode="&#x237;" horiz-adv-x="203" 
d="M112 475q1 4 5 4h37q4 0 3 -5l-90 -512q-23 -129 -75 -175q-32 -27 -86 -27q-11 0 -16 1q-2 1 -2 6l6 33q0 3 4 3q48 0 76.5 29.5t44.5 119.5z" />
    <glyph glyph-name="uni0251" unicode="&#x251;" horiz-adv-x="476" 
d="M430 471l-78 -446q-2 -5 -6 -7q-60 -28 -130 -28q-86 0 -138 49.5t-52 146.5q0 119 88 210.5t224 91.5q56 0 91 -12q1 -1 1 -5zM310 47l70 396q-22 5 -49 5q-110 0 -185 -77t-75 -182q0 -75 38.5 -116.5t115.5 -41.5q52 0 85 16z" />
    <glyph glyph-name="uni0259" unicode="&#x259;" horiz-adv-x="414" 
d="M126 -10q-58 0 -95 30.5t-37 89.5q2 83 88 128.5t245 38.5v11q0 69 -32 113t-104 44q-73 0 -130 -41q-2 -1 -3 0t0 3l7 38q1 5 5 8q49 35 129 35q84 0 128.5 -53.5t44.5 -151.5q-1 -122 -71 -207.5t-175 -85.5zM131 32q72 0 126 56.5t65 148.5q-82 4 -141 -6t-88.5 -30.5
t-42.5 -42.5t-13 -47q0 -38 24.5 -58.5t69.5 -20.5z" />
    <glyph glyph-name="uni0261" unicode="&#x261;" horiz-adv-x="479" 
d="M-32 -208l9 34q1 4 5 2q50 -29 118 -29q83 0 132 45q28 27 45.5 69.5t33.5 122.5q-50 -33 -116 -33q-76 0 -122.5 46.5t-46.5 136.5q0 123 84 212.5t210 89.5q69 0 111 -17q4 -2 4 -6q-7 -20 -8 -29l-69 -390q-18 -102 -39 -149q-59 -141 -223 -141q-74 0 -126 29
q-4 2 -2 7zM318 79l64 360q-20 9 -69 9q-98 0 -170 -74t-72 -183q2 -146 137 -146q60 0 110 34z" />
    <glyph glyph-name="uni02BB" unicode="&#x2bb;" horiz-adv-x="250" 
d="M192 723h37q2 0 2.5 -1.5t-0.5 -3.5q-75 -105 -89 -234q0 -3 -4 -3h-35q-3 0 -4 3q2 54 27 121.5t61 113.5q1 4 5 4z" />
    <glyph glyph-name="uni02BC" unicode="&#x2bc;" horiz-adv-x="250" 
d="M123 481h-37q-4 0 -2 4q71 105 80 234q0 4 4 4h35q4 0 4 -4q0 -54 -22 -121.5t-57 -113.5q-1 -3 -5 -3z" />
    <glyph glyph-name="uni02BE" unicode="&#x2be;" horiz-adv-x="399" 
d="M215 681l6 30q44 -7 65.5 -35t16.5 -65q-6 -35 -37 -53.5t-71 -14.5l4 30q64 2 72 44q7 50 -56 64z" />
    <glyph glyph-name="uni02BF" unicode="&#x2bf;" horiz-adv-x="399" 
d="M290 568l-6 -30q-44 7 -65.5 35t-16.5 65q6 35 37 53.5t71 14.5l-4 -30q-65 -2 -71 -44q-9 -50 55 -64z" />
    <glyph glyph-name="circumflex" unicode="&#x2c6;" horiz-adv-x="388" 
d="M266 670q-11 -15 -54.5 -62.5t-44.5 -48.5q-4 -4 -7 -4h-37q-5 0 -2 6l123 136q2 3 5 3h41q4 0 5 -3l66 -137q2 -5 -4 -5h-32q-6 0 -7 4q-7 15 -27.5 57t-24.5 54z" />
    <glyph glyph-name="caron" unicode="&#x2c7;" horiz-adv-x="388" 
d="M234 586l95 114q3 3 6 3h38q5 0 2 -6l-120 -137q-3 -4 -6 -4h-40q-2 0 -5 3l-69 139q-2 5 3 5h34q5 0 6 -4q5 -11 28 -56.5t28 -56.5z" />
    <glyph glyph-name="uni02C8" unicode="&#x2c8;" horiz-adv-x="399" 
d="M221 544l27 153q0 5 5 5h37q3 0 3 -5l-32 -153q-1 -3 -4 -3h-33q-3 0 -3 3z" />
    <glyph glyph-name="uni02C9" unicode="&#x2c9;" horiz-adv-x="388" 
d="M124 650h247q3 0 3 -4l-7 -30q0 -4 -3 -4h-247q-5 0 -3 5l7 30q1 3 3 3z" />
    <glyph glyph-name="uni02CA" unicode="&#x2ca;" horiz-adv-x="388" 
d="M197 562l128 144q4 4 7 4h48q5 0 3 -5l-135 -144q-3 -4 -7 -4h-42q-5 0 -2 5z" />
    <glyph glyph-name="uni02CB" unicode="&#x2cb;" horiz-adv-x="388" 
d="M181 704l75 -143q0 -4 -3 -4h-35q-4 0 -6 3l-80 143q-2 5 3 5h41q4 0 5 -4z" />
    <glyph glyph-name="uni02CC" unicode="&#x2cc;" horiz-adv-x="399" 
d="M118 -212l27 153q0 5 5 5h37q3 0 3 -5l-33 -153q0 -3 -4 -3h-32q-3 0 -3 3z" />
    <glyph glyph-name="breve" unicode="&#x2d8;" horiz-adv-x="388" 
d="M125 677h33q3 0 3 -4q15 -69 85 -69q69 0 101 69q1 4 5 4h33q4 0 2 -5q-36 -106 -145 -106q-52 0 -84 28t-36 79q0 4 3 4z" />
    <glyph glyph-name="dotaccent" unicode="&#x2d9;" horiz-adv-x="388" 
d="M225 605q-14 0 -22 9.5t-6 23.5q5 31 35 31q14 0 21.5 -9.5t5.5 -23.5q-1 -13 -10 -22t-24 -9z" />
    <glyph glyph-name="ring" unicode="&#x2da;" horiz-adv-x="388" 
d="M149 633q2 39 29.5 62.5t66.5 23.5q38 0 62.5 -24t22.5 -62q-4 -39 -31.5 -62t-66.5 -23t-62.5 23t-20.5 62zM181 633q-2 -26 13.5 -41.5t40.5 -15.5q24 0 42 15t20 42q1 27 -14.5 43t-40.5 16q-26 0 -43 -15.5t-18 -43.5z" />
    <glyph glyph-name="ogonek" unicode="&#x2db;" horiz-adv-x="372" 
d="M154 21h56q-145 -74 -144 -157q0 -23 16 -36.5t44 -13.5t59 13q5 2 5 -2l-6 -32q-1 -4 -5 -7q-26 -13 -69 -13q-40 0 -65 21t-26 60q-1 48 38.5 93t96.5 74z" />
    <glyph glyph-name="tilde" unicode="&#x2dc;" horiz-adv-x="388" 
d="M113 580h-30q-4 0 -4 4q5 42 28.5 66t61.5 24q32 0 76 -28.5t62 -28.5q38 0 46 51q0 4 4 4h30q3 0 3 -4q-11 -90 -82 -90q-29 0 -72.5 29.5t-67.5 29.5q-41 0 -51 -53q0 -4 -4 -4z" />
    <glyph glyph-name="hungarumlaut" unicode="&#x2dd;" horiz-adv-x="388" 
d="M143 563l121 144q1 4 6 4h41q2 0 2 -1.5t-1 -3.5l-125 -145q-4 -3 -9 -3h-33q-7 0 -2 5zM282 563l121 144q3 4 6 4h42q2 0 2 -1.5t-1 -3.5l-126 -145q-3 -3 -7 -3h-34q-6 0 -3 5z" />
    <glyph glyph-name="gravecomb" unicode="&#x300;" horiz-adv-x="0" 
d="M26 704l74 -143q1 -4 -3 -4h-35q-4 0 -5 3l-80 143q-3 5 3 5h41q4 0 5 -4z" />
    <glyph glyph-name="acutecomb" unicode="&#x301;" horiz-adv-x="0" 
d="M-12 562l127 144q6 4 7 4h48q5 0 3 -5l-135 -144q-3 -4 -7 -4h-41q-7 0 -2 5z" />
    <glyph glyph-name="uni0302" unicode="&#x302;" horiz-adv-x="0" 
d="M71 670q-8 -11 -27 -32.5t-42 -46t-30 -32.5q-2 -4 -6 -4h-38q-2 0 -2.5 2.5t1.5 3.5l122 136q3 3 6 3h41q2 0 5 -3l65 -137q2 -5 -3 -5h-33q-5 0 -6 4q-7 17 -28 59t-25 52z" />
    <glyph glyph-name="tildecomb" unicode="&#x303;" horiz-adv-x="0" 
d="M-62 580h-29q-4 0 -4 4q5 42 28.5 66t60.5 24q32 0 76.5 -28.5t62.5 -28.5q37 0 45 51q0 4 5 4h29q4 0 4 -4q-11 -90 -82 -90q-30 0 -73.5 29.5t-66.5 29.5q-41 0 -52 -53q0 -4 -4 -4z" />
    <glyph glyph-name="uni0304" unicode="&#x304;" horiz-adv-x="0" 
d="M-59 650h247q3 0 3 -4l-6 -30q-1 -4 -4 -4h-247q-5 0 -3 5l7 30q2 3 3 3z" />
    <glyph glyph-name="uni0306" unicode="&#x306;" horiz-adv-x="0" 
d="M-68 677h33q3 0 3 -4q13 -69 85 -69q67 0 101 69q1 4 4 4h33q4 0 2 -5q-34 -106 -144 -106q-53 0 -85 28t-36 79q0 4 4 4z" />
    <glyph glyph-name="uni0307" unicode="&#x307;" horiz-adv-x="0" 
d="M56 605q-14 0 -22 9.5t-6 23.5q5 31 35 31q14 0 21.5 -9.5t5.5 -23.5q-1 -13 -10 -22t-24 -9z" />
    <glyph glyph-name="uni0308" unicode="&#x308;" horiz-adv-x="0" 
d="M-39 606q-13 0 -21 9t-6 22q4 30 34 30q13 0 20 -9t5 -22q-1 -13 -9.5 -21.5t-22.5 -8.5zM139 606q-13 0 -21 9t-6 22q4 30 33 30q14 0 21 -9t5 -22q-1 -12 -10 -21t-22 -9z" />
    <glyph glyph-name="hookabovecomb" unicode="&#x309;" horiz-adv-x="0" 
d="M-23 676l5 27q0 5 4 6q31 20 75 20q35 0 54.5 -20t20.5 -47q3 -81 -121 -126q-4 -2 -4 3l6 30q1 5 4 6q38 19 56 38t17 45q0 14 -10.5 24.5t-31.5 10.5q-36 0 -71 -20q-4 -2 -4 1v2z" />
    <glyph glyph-name="uni030A" unicode="&#x30a;" horiz-adv-x="0" 
d="M-27 633q3 39 30 62.5t66 23.5q38 0 62.5 -24t22.5 -62q-3 -39 -30.5 -62t-66.5 -23t-63 23t-21 62zM6 633q-3 -26 12.5 -41.5t40.5 -15.5q24 0 42 15t20 42q1 27 -14.5 43t-40.5 16t-42 -15.5t-18 -43.5z" />
    <glyph glyph-name="uni030B" unicode="&#x30b;" horiz-adv-x="0" 
d="M-56 563l121 144q3 4 6 4h42q3 0 1 -5l-126 -145q-3 -3 -8 -3h-33q-6 0 -3 5zM84 563l120 144q3 4 7 4h42q3 0 1 -5l-126 -145q-3 -3 -8 -3h-33q-6 0 -3 5z" />
    <glyph glyph-name="uni030C" unicode="&#x30c;" horiz-adv-x="0" 
d="M51 586l95 114q3 3 6 3h38q5 0 2 -6l-120 -137q-3 -4 -6 -4h-40q-2 0 -5 3l-69 139q-2 5 3 5h34q5 0 6 -4q5 -11 28 -56.5t28 -56.5z" />
    <glyph glyph-name="uni031B" unicode="&#x31b;" horiz-adv-x="0" 
d="M82 444h-36q-5 0 -5 5l1 23q1 5 6 5h12q87 0 77 107q0 4 4 4h34q3 0 5 -3q6 -57 -17 -95t-81 -46z" />
    <glyph glyph-name="dotbelowcomb" unicode="&#x323;" horiz-adv-x="0" 
d="M-76 -142q-13 0 -20.5 8.5t-6.5 21.5q2 13 11 22t23 9q13 0 20.5 -9.5t5.5 -21.5q-1 -13 -10.5 -21.5t-22.5 -8.5z" />
    <glyph glyph-name="uni0324" unicode="&#x324;" horiz-adv-x="0" 
d="M-164 -128q-14 0 -21.5 9.5t-5.5 21.5q2 30 33 30q13 0 20 -9t6 -22q-2 -12 -10.5 -21t-21.5 -9zM13 -128q-13 0 -21 9.5t-6 21.5q3 30 34 30q13 0 20 -9t5 -22q-1 -12 -9.5 -21t-22.5 -9z" />
    <glyph glyph-name="uni0326" unicode="&#x326;" horiz-adv-x="0" 
d="M-101 -230h-39q-7 0 -2 5q50 53 61 113q6 35 -3 64q0 4 4 4h38q4 0 5 -3q7 -27 3 -60q-11 -73 -61 -120q-1 -3 -6 -3z" />
    <glyph glyph-name="uni0327" unicode="&#x327;" horiz-adv-x="0" 
d="M-62 4h42l-44 -56q65 -17 67 -75q1 -43 -27.5 -66.5t-72.5 -23.5q-40 0 -63 14q-2 1 -2 5l6 29q1 3 4 2q26 -14 59 -14q26 0 42 13t15 37q-1 45 -81 54q-2 1 -1.5 5t2.5 8z" />
    <glyph glyph-name="uni0328" unicode="&#x328;" horiz-adv-x="0" 
d="M-46 21h56q-145 -74 -144 -157q0 -23 16 -36.5t44 -13.5t59 13q5 2 5 -2l-6 -32q-1 -4 -5 -7q-26 -13 -69 -13q-40 0 -65 21t-26 60q-1 48 38.5 93t96.5 74z" />
    <glyph glyph-name="uni032E" unicode="&#x32e;" horiz-adv-x="0" 
d="M-173 -73h32q3 0 4 -4q15 -69 84 -69q67 0 96 70q1 3 5 3h30q4 0 4 -5q-13 -48 -51 -77.5t-87 -29.5q-51 0 -83.5 28t-37.5 80q-1 4 4 4z" />
    <glyph glyph-name="uni0331" unicode="&#x331;" horiz-adv-x="0" 
d="M-166 -89h246q3 0 3 -4l-6 -30q0 -4 -4 -4h-245q-5 0 -3 5l6 30q0 3 3 3z" />
    <glyph glyph-name="uni037E" unicode="&#x37e;" horiz-adv-x="194" 
d="M120 365q-14 0 -22 9.5t-7 24.5q4 32 35 32q14 0 22 -9.5t7 -23.5q-2 -33 -35 -33zM1 -158h-36q-6 0 -3 4q81 119 90 243q0 5 5 5h36q5 0 5 -5q-8 -137 -91 -244q-3 -3 -6 -3z" />
    <glyph glyph-name="tonos" unicode="&#x384;" horiz-adv-x="388" 
d="M197 562l128 144q4 4 7 4h48q5 0 3 -5l-135 -144q-3 -4 -7 -4h-42q-5 0 -2 5z" />
    <glyph glyph-name="dieresistonos" unicode="&#x385;" horiz-adv-x="388" 
d="M197 539l75 172q0 4 4 4h35q5 0 3 -5l-79 -172q-1 -3 -5 -3h-30q-4 0 -3 4zM129 582q-12 0 -19.5 8.5t-6.5 21.5q3 30 31 30q14 0 21 -9t6 -22q-1 -12 -9.5 -20.5t-22.5 -8.5zM363 582q-13 0 -20 8t-6 22q5 30 30 30q13 0 20.5 -8.5t6.5 -22.5q-2 -29 -31 -29z" />
    <glyph glyph-name="Alphatonos" unicode="&#x386;" horiz-adv-x="575" 
d="M423 248h-252l-129 -245q-2 -3 -4 -3h-40q-6 0 -3 4l333 632q3 4 8 25q0 4 3 4h55q4 0 4 -4l113 -657q1 -4 -4 -4h-36q-4 0 -6 4zM191 290h227q-53 295 -55 335h-1q-11 -29 -171 -335zM32 474l92 192q2 3 6 3h40q4 0 4 -4l-100 -192q-1 -4 -6 -4h-34q-4 0 -2 5z" />
    <glyph glyph-name="anoteleia" unicode="&#x387;" horiz-adv-x="190" 
d="M98 364q-15 0 -23 9t-7 24q1 14 10.5 24t24.5 10t24 -9.5t8 -24.5q-3 -33 -37 -33z" />
    <glyph glyph-name="Epsilontonos" unicode="&#x388;" horiz-adv-x="579" 
d="M518 38l-14 -34q-1 -4 -4 -4h-354q-5 0 -5 5l115 656q1 4 5 4h318q3 0 5 -4l4 -34q0 -5 -4 -5h-289l-46 -261h262q4 0 3 -5l-7 -34q-2 -4 -5 -4h-260l-48 -276h321q5 0 3 -4zM13 470l92 192q1 3 6 3h40q4 0 4 -4l-100 -192q-1 -4 -6 -4h-34q-5 0 -2 5z" />
    <glyph glyph-name="Etatonos" unicode="&#x389;" horiz-adv-x="719" 
d="M591 0h-38q-5 0 -5 5l55 314h-362l-55 -315q0 -4 -4 -4h-38q-4 0 -4 5l115 656q1 4 4 4h38q4 0 4 -4l-52 -300h362l52 300q1 4 5 4h39q3 0 3 -5l-115 -655q-1 -5 -4 -5zM9 469l93 192q1 4 6 4h40q4 0 3 -5l-99 -192q-1 -3 -6 -3h-34q-4 0 -3 4z" />
    <glyph glyph-name="Iotatonos" unicode="&#x38a;" horiz-adv-x="311" 
d="M303 661l-116 -657q-1 -4 -4 -4h-37q-5 0 -5 5l116 656q1 4 4 4h38q4 0 4 -4zM10 469l92 192q1 4 7 4h40q4 0 3 -5l-100 -192q-1 -3 -5 -3h-34q-6 0 -3 4z" />
    <glyph glyph-name="Omicrontonos" unicode="&#x38c;" horiz-adv-x="745" 
d="M463 675q106 0 167.5 -74t61.5 -199q0 -108 -38 -200.5t-113.5 -152t-173.5 -59.5q-107 0 -169.5 71t-62.5 192q-1 108 38 203.5t115.5 157t174.5 61.5zM456 632q-119 0 -197 -112t-78 -266q0 -93 47.5 -157t144.5 -64q84 0 148 55.5t94.5 137.5t29.5 173
q0 100 -45.5 166.5t-143.5 66.5zM-5 469l92 192q1 4 6 4h40q4 0 4 -5l-100 -192q-1 -3 -6 -3h-34q-5 0 -2 4z" />
    <glyph glyph-name="Upsilontonos" unicode="&#x38e;" horiz-adv-x="714" 
d="M346 0h-37q-4 0 -3 5l43 250q2 15 -2 25l-145 381q-1 4 3 4h40q3 0 5 -3q122 -323 131 -355q39 60 258 354q3 4 6 4h42q2 0 2.5 -1.5t-0.5 -3.5l-283 -382q-9 -11 -12 -28l-43 -245q-1 -5 -5 -5zM11 469l92 192q1 4 7 4h40q3 0 3 -5l-100 -192q-1 -3 -5 -3h-34q-6 0 -3 4
z" />
    <glyph glyph-name="Omegatonos" unicode="&#x38f;" horiz-adv-x="761" 
d="M301 0h-218q-4 0 -4 3v35q0 3 3 3h175q-101 106 -101 254q0 101 37.5 186t113 139t174.5 54q106 0 170.5 -67.5t64.5 -185.5q0 -240 -205 -380h175q3 0 2 -5l-11 -32q-1 -4 -5 -4h-228q-5 0 -4 4l6 29q2 3 4 5q219 143 219 381q0 93 -50 153t-146 60
q-121 0 -196.5 -100.5t-74.5 -241.5q0 -145 108 -252q3 -3 2 -6l-6 -27q-1 -5 -5 -5zM13 469l92 192q1 4 7 4h40q4 0 3 -5l-99 -192q-2 -3 -6 -3h-34q-6 0 -3 4z" />
    <glyph glyph-name="iotadieresistonos" unicode="&#x390;" horiz-adv-x="211" 
d="M112 474q0 5 5 5h37q4 0 4 -4l-74 -387q-11 -58 32 -58q20 0 33 5q1 1 2.5 0t0.5 -3l-5 -28q-1 -5 -4 -6q-18 -8 -41 -8q-81 0 -62 103zM121 539l75 172q0 4 3 4h36q5 0 3 -5l-79 -172q-1 -3 -5 -3h-30q-4 0 -3 4zM53 582q-12 0 -19.5 8.5t-6.5 21.5q3 30 31 30
q14 0 21 -9t6 -22q-1 -12 -9.5 -20.5t-22.5 -8.5zM287 582q-13 0 -20 8t-6 22q3 30 30 30q13 0 20.5 -8.5t6.5 -22.5q-2 -29 -31 -29z" />
    <glyph glyph-name="Alpha" unicode="&#x391;" horiz-adv-x="550" 
d="M407 248h-252l-129 -245q-2 -3 -4 -3h-40q-6 0 -3 4l333 632q4 6 8 25q0 4 4 4h54q4 0 4 -4l113 -657q1 -4 -3 -4h-37q-4 0 -6 4zM175 290h227q-51 297 -55 335h-1q-11 -29 -171 -335z" />
    <glyph glyph-name="Beta" unicode="&#x392;" horiz-adv-x="512" 
d="M35 7l113 652q1 4 5 5q74 2 119 2q84 1 138 -40t54 -120q0 -59 -31.5 -101t-67.5 -58q35 -16 64 -53t29 -96q0 -98 -74.5 -149.5t-199.5 -50.5q-58 0 -145 3q-5 0 -4 6zM137 335l-50 -294q66 -2 104 -2q101 0 161 39.5t60 117.5q0 96 -93 126q-38 13 -108 13h-74z
M189 624l-44 -248h79q60 0 104 -11q91 43 91 137q0 63 -43 94t-109 30h-19.5t-25 -1t-33.5 -1z" />
    <glyph glyph-name="Gamma" unicode="&#x393;" horiz-adv-x="414" 
d="M188 622l-107 -617q-1 -5 -5 -5h-38q-6 0 -4 5l114 656q1 4 6 4h322q3 0 3 -4l4 -35q0 -4 -4 -4h-291z" />
    <glyph glyph-name="uni0394" unicode="&#x394;" horiz-adv-x="547" 
d="M480 0h-504q-4 0 -4 4l6 26q2 6 2 7l318 592q8 16 12 32q1 4 5 4h55q3 0 3 -4l115 -624v-2v-4.5v-4.5l-4 -22q-1 -4 -4 -4zM30 42h411q-16 99 -58.5 334t-44.5 250h-1q-5 -14 -26 -56t-59 -113.5t-68.5 -128t-82 -152.5t-71.5 -134z" />
    <glyph glyph-name="Epsilon" unicode="&#x395;" horiz-adv-x="468" 
d="M410 38l-13 -34q-1 -4 -4 -4h-354q-5 0 -5 5l115 656q1 4 5 4h318q3 0 5 -4l3 -34q0 -5 -3 -5h-289l-46 -261h262q4 0 3 -5l-7 -34q-2 -4 -5 -4h-261l-47 -276h321q6 0 2 -4z" />
    <glyph glyph-name="Zeta" unicode="&#x396;" horiz-adv-x="481" 
d="M424 0h-456q-4 0 -4 4l5 24q1 3 4 7q228 287 472 587h-372q-5 0 -3 5l12 34q1 4 5 4h422q4 0 3 -4l-3 -23q0 -2 -1 -3t-2.5 -3t-2.5 -4q-71 -87 -231.5 -287.5t-240.5 -298.5h408q4 0 2 -4l-12 -34q-1 -4 -5 -4z" />
    <glyph glyph-name="Eta" unicode="&#x397;" horiz-adv-x="623" 
d="M485 0h-38q-5 0 -5 5l55 314h-362l-55 -315q-1 -4 -4 -4h-38q-6 0 -4 5l115 656q1 4 4 4h38q4 0 4 -4l-53 -300h363l52 300q1 4 5 4h38q4 0 4 -5l-116 -655q0 -5 -3 -5z" />
    <glyph glyph-name="Theta" unicode="&#x398;" horiz-adv-x="635" 
d="M171 360h319q4 0 3 -5l-7 -31q-1 -5 -5 -5h-318q-4 0 -4 5l7 31q1 5 5 5zM375 675q106 0 167 -74t61 -199q0 -108 -37.5 -200.5t-113 -152t-173.5 -59.5q-107 0 -169.5 71t-62.5 192q-1 108 38 203.5t115.5 157t174.5 61.5zM368 632q-119 0 -197 -112t-78 -266
q0 -93 47.5 -157t143.5 -64q84 0 148.5 55.5t95 137.5t29.5 173q0 100 -45.5 166.5t-143.5 66.5z" />
    <glyph glyph-name="Iota" unicode="&#x399;" horiz-adv-x="213" 
d="M195 661l-116 -657q0 -4 -4 -4h-36q-5 0 -5 5l115 656q1 4 5 4h38q3 0 3 -4z" />
    <glyph glyph-name="Kappa" unicode="&#x39a;" horiz-adv-x="510" 
d="M195 660l-116 -656q-1 -4 -4 -4h-37q-5 0 -4 5l115 655q1 5 5 5h38q4 0 3 -5zM429 3l-269 331q-3 6 1 11l353 317q3 3 7 3h45q6 0 2 -6l-358 -319l275 -335q3 -5 -2 -5h-45q-6 0 -9 3z" />
    <glyph glyph-name="Lambda" unicode="&#x39b;" horiz-adv-x="550" 
d="M449 4q-96 550 -102 617h-1q-21 -55 -320 -618q-2 -3 -4 -3h-40q-6 0 -3 4l333 632q4 6 8 25q0 4 4 4h54q4 0 4 -4l113 -657q1 -4 -3 -4h-37q-4 0 -6 4z" />
    <glyph glyph-name="Mu" unicode="&#x39c;" horiz-adv-x="786" 
d="M315 4q-82 614 -84 628h-1q-15 -64 -173 -628q-1 -4 -4 -4h-38q-5 0 -4 6l188 655q1 4 5 4h59q5 0 5 -4q76 -493 83 -608h1q23 55 309 608q1 4 6 4h56q4 0 5 -5l-50 -655q0 -5 -3 -5h-39q-4 0 -4 5q38 498 54 626h-1q-33 -80 -317 -627q-1 -4 -5 -4h-42q-5 0 -6 4z" />
    <glyph glyph-name="Nu" unicode="&#x39d;" horiz-adv-x="625" 
d="M149 661q1 4 5 4h53q5 0 6 -3q237 -586 244 -614h1q3 44 103 613q1 4 4 4h38q5 0 3 -5l-115 -655q-1 -5 -5 -5h-50q-6 0 -8 4q-234 575 -244 620h-1q-3 -40 -104 -620q-1 -4 -4 -4h-37q-4 0 -4 5z" />
    <glyph glyph-name="Xi" unicode="&#x39e;" horiz-adv-x="457" 
d="M-16 43h404q4 0 2 -5l-12 -35q-2 -3 -5 -3h-390q-4 0 -4 3l2 36q0 4 3 4zM87 361h310q4 0 3 -4l-6 -35q-1 -4 -5 -4h-310q-4 0 -4 5l7 34q1 4 5 4zM111 665h366q4 0 5 -5v-34q0 -4 -4 -4h-379q-5 0 -3 4l11 35q1 4 4 4z" />
    <glyph glyph-name="Omicron" unicode="&#x39f;" horiz-adv-x="628" 
d="M375 675q106 0 167 -74t61 -199q0 -108 -37.5 -200.5t-113 -152t-173.5 -59.5q-107 0 -169.5 71t-62.5 192q-1 108 38 203.5t115.5 157t174.5 61.5zM368 632q-119 0 -197 -112t-78 -266q0 -93 47.5 -157t143.5 -64q84 0 148.5 55.5t95 137.5t29.5 173q0 100 -45.5 166.5
t-143.5 66.5z" />
    <glyph glyph-name="Pi" unicode="&#x3a0;" horiz-adv-x="623" 
d="M485 0h-37q-6 0 -6 5l109 617h-363l-108 -618q0 -4 -5 -4h-38q-3 0 -3 5l115 654q0 6 5 6h446q4 0 4 -5l-115 -655q-1 -5 -4 -5z" />
    <glyph glyph-name="Rho" unicode="&#x3a1;" horiz-adv-x="493" 
d="M34 5l115 653q1 6 6 6q87 3 108 3q96 0 158.5 -44.5t62.5 -136.5q0 -102 -75.5 -161t-202.5 -59q-34 0 -80 2l-46 -264q-1 -4 -4 -4h-39q-3 0 -3 5zM190 624l-56 -313q38 -3 79 -3q100 -1 163 45.5t63 130.5q0 69 -48 105.5t-132 36.5q-13 0 -35 -1t-34 -1z" />
    <glyph glyph-name="Sigma" unicode="&#x3a3;" horiz-adv-x="492" 
d="M501 665q4 0 4 -4l4 -35q0 -4 -3 -4h-372l190 -290q3 -4 0 -7l-287 -283h404q3 0 2 -3l-12 -35q-1 -4 -5 -4h-457q-4 0 -2 5l6 26q1 5 4 8l297 292l-195 296q-1 2 -1 8l4 26q1 4 4 4h415z" />
    <glyph glyph-name="Tau" unicode="&#x3a4;" horiz-adv-x="459" 
d="M148 5l108 617h-207q-5 0 -3 6l11 33q1 4 5 4h459q4 0 4 -4l3 -35q0 -4 -4 -4h-222l-109 -618q0 -4 -4 -4h-36q-5 0 -5 5z" />
    <glyph glyph-name="Upsilon" unicode="&#x3a5;" horiz-adv-x="472" 
d="M195 0h-37q-4 0 -3 5l43 250q2 15 -2 25l-145 381q-1 4 3 4h40q4 0 5 -3q122 -323 131 -355q39 60 258 354q3 4 6 4h41q5 0 3 -5l-283 -382q-9 -11 -12 -28l-43 -245q-1 -5 -5 -5z" />
    <glyph glyph-name="Phi" unicode="&#x3a6;" horiz-adv-x="663" 
d="M376 689h38q3 0 3 -5l-8 -51q97 -11 156 -79.5t59 -183.5q0 -149 -89.5 -241t-231.5 -93l-10 -58q0 -4 -5 -4h-38q-4 0 -4 4l11 60q-94 12 -151.5 77.5t-57.5 175.5q0 146 89.5 242.5t225.5 101.5l9 50q0 4 4 4zM264 78l92 517q-112 -4 -187 -88.5t-75 -215.5
q0 -88 42.5 -143.5t127.5 -69.5zM402 593l-92 -516q111 -1 189 78t78 216q0 93 -43.5 151.5t-131.5 70.5z" />
    <glyph glyph-name="Chi" unicode="&#x3a7;" horiz-adv-x="473" 
d="M536 660l-263 -322l159 -333q2 -5 -2 -5h-41q-6 0 -7 4q-77 165 -142 300h-3q-206 -261 -237 -300q-3 -4 -7 -4h-45q-5 0 -2 5l270 336l-149 320q-2 4 3 4h41q4 0 5 -3q30 -66 133 -291h1q34 43 113.5 141t121.5 150q2 3 5 3h44q4 0 2 -5z" />
    <glyph glyph-name="Psi" unicode="&#x3a8;" 
d="M275 273l67 387q1 5 5 5h38q4 0 3 -5l-68 -387q39 1 70.5 11t62.5 32.5t54.5 67t37.5 108.5q28 136 45 169q1 4 6 4h36q5 0 2 -5q-17 -40 -44 -172q-51 -250 -277 -257l-40 -226q-1 -5 -6 -5h-36q-5 0 -4 6l41 225q-101 10 -151.5 68.5t-33.5 189.5q18 131 16 172
q0 4 4 4h34q5 0 5 -4q5 -27 -14 -172q-8 -62 1 -105t33 -65.5t50.5 -32.5t62.5 -13z" />
    <glyph glyph-name="uni03A9" unicode="&#x3a9;" horiz-adv-x="647" 
d="M203 0h-219q-4 0 -4 3v35q0 3 3 3h175q-101 106 -101 254q0 156 89 267.5t237 111.5q106 0 170 -67.5t64 -185.5q0 -240 -204 -380h174q5 0 2 -5l-11 -32q-1 -4 -4 -4h-228q-5 0 -5 4l6 29q2 3 4 5q220 144 219 381q0 93 -50 153t-146 60q-121 0 -196 -100.5t-75 -241.5
q2 -148 109 -252q2 -2 2 -6l-6 -27q-1 -5 -5 -5z" />
    <glyph glyph-name="Iotadieresis" unicode="&#x3aa;" horiz-adv-x="213" 
d="M195 661l-116 -657q0 -4 -4 -4h-36q-5 0 -5 5l115 656q1 4 5 4h38q3 0 3 -4zM94 739q-14 0 -22.5 9t-7.5 23q2 14 11 22.5t23 8.5t22.5 -9.5t6.5 -21.5q-2 -32 -33 -32zM270 739q-14 0 -22 9t-7 23q2 14 11.5 22.5t23.5 8.5q13 0 21.5 -9.5t7.5 -22.5q-3 -31 -35 -31z
" />
    <glyph glyph-name="Upsilondieresis" unicode="&#x3ab;" horiz-adv-x="472" 
d="M195 0h-37q-4 0 -3 5l43 250q2 15 -2 25l-145 381q-1 4 3 4h40q4 0 5 -3q122 -323 131 -355q39 60 258 354q3 4 6 4h41q5 0 3 -5l-283 -382q-9 -11 -12 -28l-43 -245q-1 -5 -5 -5zM208 735q-13 0 -21.5 9t-8.5 23q2 14 11.5 22.5t23.5 8.5t22 -9t7 -22q-2 -32 -34 -32z
M385 735q-14 0 -22 9t-7 23q2 14 11.5 22.5t22.5 8.5t21.5 -9t7.5 -23q-2 -31 -34 -31z" />
    <glyph glyph-name="alphatonos" unicode="&#x3ac;" horiz-adv-x="501" 
d="M430 479h34q5 0 3 -6q-55 -137 -86 -362q-6 -45 2.5 -62.5t30.5 -17.5q16 0 31 7q2 1 3.5 -0.5t0.5 -3.5l-6 -30q-1 -2 -2 -3t-1 -2q-18 -9 -40 -9q-32 0 -49 27t-9 82l5 31q-68 -140 -188 -140q-65 0 -100 46.5t-35 129.5q0 125 67.5 223.5t169.5 98.5q109 0 130 -113
q19 73 33 100q1 4 6 4zM261 447q-86 0 -138 -86t-53 -192q-1 -58 23.5 -97t77.5 -39q52 0 94.5 38t65.5 88t32 105q13 76 -11 129.5t-91 53.5zM246 562l128 144q4 4 7 4h48q5 0 2 -5l-134 -144q-3 -3 -7 -3h-42q-5 0 -2 4z" />
    <glyph glyph-name="epsilontonos" unicode="&#x3ad;" horiz-adv-x="372" 
d="M139 256q-33 12 -50 38.5t-17 57.5q0 57 46.5 96.5t131.5 39.5q69 0 106 -19q2 -3 2 -6l-8 -35q-2 -4 -4 -2q-42 21 -100 21t-93.5 -26t-35.5 -69q0 -37 30 -58t74 -21h56q3 0 3 -4l-7 -33q-1 -3 -5 -3h-44q-75 0 -118.5 -30t-43.5 -78q1 -42 37 -67.5t93 -25.5
q74 0 131 30q4 3 4 -3l-7 -34q-1 -5 -6 -8q-50 -27 -131 -27q-71 0 -119 34.5t-48 94.5q0 52 35 87.5t88 49.5zM188 562l128 144q4 4 7 4h48q5 0 2 -5l-134 -144q-3 -3 -7 -3h-42q-5 0 -2 4z" />
    <glyph glyph-name="etatonos" unicode="&#x3ae;" horiz-adv-x="502" 
d="M28 5l63 358q12 61 10 111q0 5 4 5h32q5 0 7 -4q5 -35 -11 -120q84 133 193 133q25 0 45 -8t38 -29.5t21 -59.5t-5 -97l-93 -517q0 -1 -5 -6q-33 -6 -37 -6q-5 0 -4 5l94 529q27 148 -67 148q-68 0 -127.5 -70.5t-72.5 -145.5l-40 -226q-1 -5 -5 -5h-36q-6 0 -4 5z
M250 571l127 144q6 4 7 4h48q5 0 3 -5l-135 -144q-3 -4 -7 -4h-41q-7 0 -2 5z" />
    <glyph glyph-name="iotatonos" unicode="&#x3af;" horiz-adv-x="211" 
d="M112 474q0 5 5 5h37q4 0 4 -4l-74 -387q-11 -58 32 -58q20 0 33 5q1 1 2.5 0t0.5 -3l-5 -28q-1 -5 -4 -6q-18 -8 -41 -8q-81 0 -62 103zM108 562l128 144q4 4 7 4h48q5 0 2 -5l-134 -144q-4 -4 -7 -4h-42q-5 0 -2 5z" />
    <glyph glyph-name="upsilondieresistonos" unicode="&#x3b0;" horiz-adv-x="472" 
d="M373 479h35q5 0 6 -4q12 -53 12 -117q0 -67 -13 -129t-39.5 -117.5t-74 -88.5t-109.5 -33q-73 0 -113 45t-26 124l29 168q20 107 18 147q0 5 3 5h36q4 0 5 -4q3 -38 -6 -85l-40 -229q-12 -68 19.5 -98.5t82.5 -30.5q47 0 83 29t57 77.5t31.5 105t10.5 116.5q0 55 -10 115
q0 4 3 4zM225 533l75 173q0 3 4 3h35q5 0 3 -4l-78 -172q-3 -4 -5 -4h-31q-5 0 -3 4zM158 576q-13 0 -20 8.5t-6 21.5q1 14 9.5 22.5t20.5 8.5q14 0 21 -9t6 -22q-1 -12 -9.5 -21t-21.5 -9zM391 576q-12 0 -19.5 8.5t-6.5 22.5q5 30 30 30q13 0 20.5 -9t6.5 -22
q-2 -30 -31 -30z" />
    <glyph glyph-name="alpha" unicode="&#x3b1;" horiz-adv-x="501" 
d="M430 479h34q5 0 3 -6q-55 -137 -86 -362q-6 -45 2.5 -62.5t30.5 -17.5q16 0 31 7q2 1 3.5 -0.5t0.5 -3.5l-6 -30q-1 -2 -2 -3t-1 -2q-18 -9 -40 -9q-32 0 -49 27t-9 82l5 31q-68 -140 -188 -140q-65 0 -100 46.5t-35 129.5q0 125 67.5 223.5t169.5 98.5q109 0 130 -113
q19 73 33 100q1 4 6 4zM261 447q-86 0 -138 -86t-53 -192q-1 -58 23.5 -97t77.5 -39q52 0 94.5 38t65.5 88t32 105q13 76 -11 129.5t-91 53.5z" />
    <glyph glyph-name="beta" unicode="&#x3b2;" horiz-adv-x="488" 
d="M231 360h-15q-4 0 -3 4l6 34q1 5 5 5h17q73 0 121 49.5t48 119.5q0 51 -26.5 85t-76.5 34q-64 0 -97.5 -47t-50.5 -148l-73 -422q46 -41 124 -41q80 0 130.5 50.5t50.5 129.5q0 65 -45.5 105.5t-114.5 41.5zM-13 -230l127 728q23 127 70 180.5t129 53.5q64 0 103 -42
t39 -115q0 -72 -40.5 -124t-95.5 -70q53 -21 85.5 -64t32.5 -104q0 -103 -66.5 -163t-163.5 -60q-79 0 -130 38l-44 -252q0 -4 -4 -5q-25 -5 -38 -5q-4 0 -4 4z" />
    <glyph glyph-name="gamma" unicode="&#x3b3;" horiz-adv-x="421" 
d="M115 -230q-37 -5 -39 -5q-3 0 -2 5q4 17 54 246q12 68 -19.5 212t-83.5 246q-3 5 3 5h41q5 0 6 -4q31 -64 59.5 -175t31.5 -208h1q36 90 103.5 205t119.5 178q3 4 6 4h42q5 0 2 -5q-160 -208 -256 -429q-10 -21 -16 -48q-15 -68 -47 -221q-1 -4 -6 -6z" />
    <glyph glyph-name="delta" unicode="&#x3b4;" horiz-adv-x="463" 
d="M474 675l-7 -38q-1 -4 -5 -2q-72 54 -171 54q-111 0 -111 -62q0 -13 3.5 -24t15 -31t39 -50.5t70.5 -70.5q54 -50 81 -97t27 -112q0 -101 -62 -176.5t-159 -75.5q-78 0 -123.5 52t-45.5 141q0 93 58 168.5t165 95.5q-113 114 -113 179q0 42 35.5 74t124.5 32
q112 0 176 -52q2 -2 2 -5zM201 32q71 0 119.5 61t49.5 144q0 52 -20 92.5t-71 85.5q-95 -12 -151 -76.5t-56 -154.5q0 -66 32.5 -109t96.5 -43z" />
    <glyph glyph-name="epsilon" unicode="&#x3b5;" horiz-adv-x="372" 
d="M139 256q-33 12 -50 38.5t-17 57.5q0 57 46.5 96.5t131.5 39.5q69 0 106 -19q2 -3 2 -6l-8 -35q-2 -4 -4 -2q-42 21 -100 21t-93.5 -26t-35.5 -69q0 -37 30 -58t74 -21h56q3 0 3 -4l-7 -33q-1 -3 -5 -3h-44q-75 0 -118.5 -30t-43.5 -78q1 -42 37 -67.5t93 -25.5
q74 0 131 30q4 3 4 -3l-7 -34q-1 -5 -6 -8q-50 -27 -131 -27q-71 0 -119 34.5t-48 94.5q0 52 35 87.5t88 49.5z" />
    <glyph glyph-name="zeta" unicode="&#x3b6;" horiz-adv-x="308" 
d="M137 686q-3 1 -2 5l10 30q3 4 6 4q33 -3 94 -3h160q3 0 3 -3l-4 -23q-1 -4 -4 -6q-11 -6 -29 -23q-135 -118 -215 -252t-80 -257q0 -51 22.5 -76t74.5 -41q62 -20 90 -44.5t28 -66.5q0 -58 -38.5 -100.5t-108.5 -57.5q-2 -1 -3 0t0 3l6 37q0 4 4 5q94 29 94 106
q0 27 -20.5 44t-71.5 32q-62 18 -92.5 50.5t-31.5 98.5q0 124 78 263t225 272h-70q-108 0 -125 3z" />
    <glyph glyph-name="eta" unicode="&#x3b7;" horiz-adv-x="502" 
d="M28 5l63 358q12 61 10 111q0 5 4 5h32q5 0 7 -4q5 -35 -11 -120q84 133 193 133q25 0 45 -8t38 -29.5t21 -59.5t-5 -97l-93 -517q0 -1 -5 -6q-33 -6 -37 -6q-5 0 -4 5l94 529q27 148 -67 148q-68 0 -127.5 -70.5t-72.5 -145.5l-40 -226q-1 -5 -5 -5h-36q-6 0 -4 5z" />
    <glyph glyph-name="theta" unicode="&#x3b8;" horiz-adv-x="493" 
d="M409 352h-312q-9 -58 -9 -120q0 -34 4 -64.5t15.5 -63.5t35.5 -52.5t59 -19.5q52 0 96.5 49.5t70 118.5t40.5 152zM104 393h311q7 50 7 100q0 198 -108 198q-71 0 -127.5 -85t-82.5 -213zM321 732q41 0 71 -21t45 -57.5t22 -75t7 -82.5q0 -63 -10 -131t-32.5 -135.5
t-53 -120.5t-76 -86t-97.5 -33q-77 0 -115 66.5t-38 177.5q0 82 18.5 167.5t52 160.5t88 122.5t118.5 47.5z" />
    <glyph glyph-name="iota" unicode="&#x3b9;" horiz-adv-x="211" 
d="M112 474q0 5 5 5h37q4 0 4 -4l-74 -387q-11 -58 32 -58q20 0 33 5q1 1 2.5 0t0.5 -3l-5 -28q-1 -5 -4 -6q-18 -8 -41 -8q-81 0 -62 103z" />
    <glyph glyph-name="kappa" unicode="&#x3ba;" horiz-adv-x="420" 
d="M396 479h46q9 0 3 -6q-27 -23 -87.5 -74.5t-109.5 -93.5t-65 -56q181 -226 196 -244q3 -5 -2 -5h-45q-5 0 -8 3l-192 240q-3 5 1 9l255 223q4 4 8 4zM155 475l-81 -471q-1 -4 -6 -4h-35q-5 0 -5 5l82 468q1 5 5 6h37q3 0 3 -4z" />
    <glyph glyph-name="lambda" unicode="&#x3bb;" horiz-adv-x="420" 
d="M321 5q-13 75 -39.5 223t-35.5 198h-2q-15 -40 -215 -422q-1 -4 -5 -4h-42q-4 0 -2 5l246 468q6 13 5 19q-21 103 -50 150t-82 47q-29 0 -55 -8q-2 -1 -3 0t0 3l6 35q2 4 4 5q21 8 54 8q65 0 104.5 -51.5t68.5 -194.5q54 -280 90 -481q0 -5 -4 -5h-37q-4 0 -6 5z" />
    <glyph glyph-name="uni03BC" unicode="&#x3bc;" horiz-adv-x="495" 
d="M445 473l-66 -357q-15 -83 33 -83q20 0 34 6q2 1 3 -0.5t0 -4.5l-6 -31q-1 -2 -5 -6q-15 -7 -39 -7q-79 0 -61 105q0 2 1.5 11t2.5 11q-66 -127 -178 -127q-66 0 -88 54q-14 -104 -47 -279q-1 -4 -5 -5q-22 -5 -36 -5q-5 0 -4 5l128 713q0 6 6 6h34q6 0 5 -6l-60 -326
q-10 -55 11 -85t65 -30q69 0 119 64t72 184l36 193q0 6 6 6h35q5 0 4 -6z" />
    <glyph glyph-name="nu" unicode="&#x3bd;" horiz-adv-x="411" 
d="M42 479h41q2 0 5 -5q39 -133 50 -426h2q212 249 210 426q0 5 4 5h37q4 0 4 -4q3 -102 -68.5 -230.5t-174.5 -239.5q-5 -5 -9 -5h-35q-8 0 -8 5q-14 342 -61 469q-3 5 3 5z" />
    <glyph glyph-name="xi" unicode="&#x3be;" horiz-adv-x="367" 
d="M322 732q65 0 92 -17q4 -2 3 -6l-7 -33q0 -5 -6 -3q-36 17 -87 17q-76 0 -121 -47t-45 -113q0 -57 43 -91.5t108 -34.5h36q5 0 4 -5l-6 -32q-1 -4 -7 -4h-38q-91 0 -154 -52t-63 -132q0 -65 36 -96.5t112 -49.5q61 -16 87.5 -43t27.5 -69q0 -53 -35 -94t-102 -57
q-2 -1 -3.5 0t-0.5 4l6 35q1 5 6 6q85 30 83 99q-1 28 -20 47t-69 31q-86 20 -130.5 60t-44.5 120q0 76 49 135.5t128 79.5q-43 19 -70 57t-27 88q0 84 60 142t155 58z" />
    <glyph glyph-name="omicron" unicode="&#x3bf;" horiz-adv-x="471" 
d="M264 488q77 0 121.5 -52.5t44.5 -145.5q0 -118 -65.5 -209t-168.5 -91q-80 0 -125.5 52t-45.5 146q0 121 67.5 210.5t171.5 89.5zM258 447q-78 0 -133 -75.5t-55 -182.5q0 -70 32.5 -113.5t98.5 -43.5q73 0 127.5 75t55.5 183q1 67 -29.5 112t-96.5 45z" />
    <glyph glyph-name="pi" unicode="&#x3c0;" horiz-adv-x="454" 
d="M122 438h-93q-5 0 -3 5l10 30q1 4 6 4q11 2 72 2h366q6 0 4 -5l-10 -32q-2 -4 -6 -4h-81l-52 -282q-16 -94 -5 -151q2 -5 -3 -5h-34q-6 0 -7 5q-13 45 5 153l50 280h-174l-51 -286q-15 -84 -47 -148q-1 -4 -5 -4h-35q-5 0 -4 5q29 54 46 146z" />
    <glyph glyph-name="rho" unicode="&#x3c1;" horiz-adv-x="482" 
d="M277 488q75 0 117.5 -49.5t42.5 -139.5q0 -131 -73.5 -220t-170.5 -89q-71 0 -115 39l-46 -253q-2 -5 -5 -5l-35 -5q-4 0 -5 0.5t0 4.5l88 503q41 214 202 214zM271 447q-123 0 -152 -178l-33 -194q38 -44 110 -44q78 0 137 77.5t59 188.5q0 64 -28.5 107t-92.5 43z" />
    <glyph glyph-name="uni03C2" unicode="&#x3c2;" horiz-adv-x="349" 
d="M288 488q54 0 77 -11q3 -2 2 -7l-8 -33q-1 -5 -5 -3q-24 12 -71 12q-94 0 -152.5 -71.5t-59.5 -174.5q-1 -69 28 -108t98 -56q68 -17 88.5 -42.5t21.5 -64.5q0 -50 -37 -89t-99 -53q-2 -1 -3.5 0t-0.5 4l7 37q1 3 4 4q83 29 83 93q0 27 -17 43t-66 27q-75 18 -113.5 64.5
t-38.5 136.5q0 116 70.5 204t191.5 88z" />
    <glyph glyph-name="sigma" unicode="&#x3c3;" horiz-adv-x="477" 
d="M519 475l-4 -33q0 -4 -6 -4q-139 0 -157 1q29 -20 47 -62.5t18 -92.5q1 -125 -62.5 -209.5t-164.5 -84.5q-78 0 -122 53.5t-43 141.5q0 125 66.5 209.5t175.5 84.5h118h129q4 0 5 -4zM255 438q-83 0 -134 -73t-51 -179q0 -73 34 -113.5t91 -40.5q77 0 127 70t50 183
q0 61 -28 107t-89 46z" />
    <glyph glyph-name="tau" unicode="&#x3c4;" horiz-adv-x="339" 
d="M99 86l62 352h-146q-5 0 -2 4l9 32q1 1 4 3q11 2 64 2h285q5 0 3 -5l-12 -33q-2 -3 -5 -3h-154l-63 -353q-10 -54 36 -54q22 0 41 8q2 1 3 -0.5t0 -4.5l-6 -29q-1 -4 -4 -6q-21 -9 -52 -9t-52 20.5t-11 75.5z" />
    <glyph glyph-name="upsilon" unicode="&#x3c5;" horiz-adv-x="472" 
d="M373 479h35q5 0 6 -4q12 -53 12 -117q0 -67 -13 -129t-39.5 -117.5t-74 -88.5t-109.5 -33q-73 0 -113 45t-26 124l29 168q20 107 18 147q0 5 3 5h36q4 0 5 -4q3 -38 -6 -85l-40 -229q-12 -68 19.5 -98.5t82.5 -30.5q47 0 83 29t57 77.5t31.5 105t10.5 116.5q0 55 -10 115
q0 4 3 4z" />
    <glyph glyph-name="phi" unicode="&#x3c6;" horiz-adv-x="566" 
d="M330 659h36q4 0 5 -3l-31 -172q83 -11 133.5 -67t50.5 -151q0 -122 -78 -199t-193 -76l-38 -216q0 -5 -4 -6q-12 -4 -38 -4q-4 0 -4 5l39 222q-81 13 -131.5 67t-50.5 145q-1 114 74 196t196 86l30 170q0 3 4 3zM216 34l73 411q-95 -1 -155.5 -69.5t-62.5 -170.5
q0 -69 38 -115t107 -56zM332 444l-71 -411q89 0 153 63t64 172q0 73 -38 119.5t-108 56.5z" />
    <glyph glyph-name="chi" unicode="&#x3c7;" horiz-adv-x="377" 
d="M40 479h39q3 0 5 -3q32 -116 80 -299h1q27 44 185 299q3 3 5 3h42q5 0 2 -5l-216 -337l100 -358q1 -5 -3 -6q-34 -8 -36 -8q-4 0 -4 4q-18 65 -51 187t-38 141h-1q-56 -100 -202 -330q-4 -2 -5 -2l-37 10q-3 1 -1 6l228 358l-96 336q-1 4 3 4z" />
    <glyph glyph-name="psi" unicode="&#x3c8;" horiz-adv-x="596" 
d="M76 479h36q4 0 5 -3q7 -31 -12 -250q-16 -177 121 -193l95 543q2 5 6 5h35q4 0 3 -6l-94 -544q78 3 124.5 46.5t68.5 134.5q52 224 73 264q1 3 5 3h37q5 0 3 -4q-25 -61 -76 -272q-50 -207 -242 -214l-38 -214q0 -4 -4 -5q-16 -4 -38 -4q-5 0 -4 5l39 220
q-178 22 -158 239q17 194 11 245q0 4 4 4z" />
    <glyph glyph-name="omega" unicode="&#x3c9;" horiz-adv-x="642" 
d="M357 339l-35 -185q-9 -53 10 -87t64 -34q66 0 111 79t45 190q0 38 -10.5 89t-26.5 83q-3 5 4 5h38q5 0 6 -4q34 -71 34 -174q0 -131 -59 -221t-147 -90t-106 87q-49 -87 -137 -87q-58 0 -88.5 46t-30.5 119q0 91 40.5 180.5t90.5 139.5q3 4 7 4h41q3 0 2.5 -2t-2.5 -4
q-56 -63 -94.5 -146.5t-38.5 -169.5q0 -52 20 -88t65 -36q43 0 75.5 35t40.5 84l34 188q1 4 6 4h38q4 0 3 -5z" />
    <glyph glyph-name="iotadieresis" unicode="&#x3ca;" horiz-adv-x="211" 
d="M112 474q0 5 5 5h37q4 0 4 -4l-74 -387q-11 -58 32 -58q20 0 33 5q1 1 2.5 0t0.5 -3l-5 -28q-1 -5 -4 -6q-18 -8 -41 -8q-81 0 -62 103zM68 606q-13 0 -20.5 9t-5.5 22q1 13 10 21.5t23 8.5q13 0 20 -9t6 -22q-4 -30 -33 -30zM246 606q-13 0 -21 9t-6 22q4 30 34 30
q13 0 20 -9t5 -22q-1 -12 -10 -21t-22 -9z" />
    <glyph glyph-name="upsilondieresis" unicode="&#x3cb;" horiz-adv-x="472" 
d="M373 479h35q5 0 6 -4q12 -53 12 -117q0 -67 -13 -129t-39.5 -117.5t-74 -88.5t-109.5 -33q-73 0 -113 45t-26 124l29 168q20 107 18 147q0 5 3 5h36q4 0 5 -4q3 -38 -6 -85l-40 -229q-12 -68 19.5 -98.5t82.5 -30.5q47 0 83 29t57 77.5t31.5 105t10.5 116.5q0 55 -10 115
q0 4 3 4zM184 606q-13 0 -21 9t-6 22q4 30 33 30q14 0 21 -9t5 -22q-1 -12 -10 -21t-22 -9zM362 606q-14 0 -21.5 9t-5.5 22q1 13 10 21.5t23 8.5q13 0 20 -9t6 -22q-2 -13 -10.5 -21.5t-21.5 -8.5z" />
    <glyph glyph-name="omicrontonos" unicode="&#x3cc;" horiz-adv-x="471" 
d="M264 488q77 0 121.5 -52.5t44.5 -145.5q0 -118 -65.5 -209t-168.5 -91q-80 0 -125.5 52t-45.5 146q0 121 67.5 210.5t171.5 89.5zM258 447q-78 0 -133 -75.5t-55 -182.5q0 -70 32.5 -113.5t98.5 -43.5q73 0 127.5 75t55.5 183q1 67 -29.5 112t-96.5 45zM225 564l128 144
q4 4 7 4h48q5 0 3 -5l-135 -144q-3 -4 -7 -4h-42q-5 0 -2 5z" />
    <glyph glyph-name="upsilontonos" unicode="&#x3cd;" horiz-adv-x="472" 
d="M373 479h35q5 0 6 -4q12 -53 12 -117q0 -67 -13 -129t-39.5 -117.5t-74 -88.5t-109.5 -33q-73 0 -113 45t-26 124l29 168q20 107 18 147q0 5 3 5h36q4 0 5 -4q3 -38 -6 -85l-40 -229q-12 -68 19.5 -98.5t82.5 -30.5q47 0 83 29t57 77.5t31.5 105t10.5 116.5q0 55 -10 115
q0 4 3 4zM220 558l128 144q4 4 7 4h48q5 0 2 -5l-134 -144q-3 -3 -7 -3h-42q-5 0 -2 4z" />
    <glyph glyph-name="omegatonos" unicode="&#x3ce;" horiz-adv-x="642" 
d="M354 339l-35 -185q-9 -53 9.5 -87t64.5 -34q65 0 110 79t45 190q0 39 -10 89.5t-26 82.5q-2 5 3 5h38q6 0 7 -4q33 -73 33 -174q0 -131 -59 -221t-146 -90q-88 0 -107 87q-23 -41 -58.5 -64t-77.5 -23q-58 0 -89 46t-31 119q0 91 40.5 180.5t90.5 139.5q3 4 7 4h41
q5 -1 1 -6q-56 -62 -94.5 -146t-38.5 -170q0 -53 19.5 -88.5t65.5 -35.5q42 0 74.5 35t40.5 84l35 188q1 4 5 4h38q5 0 4 -5zM317 552l128 144q3 4 7 4h48q5 0 3 -4l-135 -145q-3 -3 -7 -3h-41q-6 0 -3 4z" />
    <glyph glyph-name="uni03D1" unicode="&#x3d1;" horiz-adv-x="478" 
d="M396 357q7 48 7 107q0 43 -6.5 79.5t-21.5 71t-44.5 54.5t-70.5 20q-68 0 -104 -48t-35 -109q0 -91 73 -140t202 -35zM23 225h37q4 0 7 -4q13 -25 30 -88q18 -62 39.5 -82t56.5 -20q57 0 113.5 80.5t81.5 201.5q-147 -15 -229 46t-83 169q0 83 52 143t137 60
q49 0 85.5 -22t57 -60.5t30 -84t9.5 -98.5q1 -117 -32.5 -226t-94.5 -179.5t-134 -70.5q-51 0 -82.5 31t-50.5 103q-14 57 -33 96q-3 5 3 5z" />
    <glyph glyph-name="uni03D7" unicode="&#x3d7;" horiz-adv-x="464" 
d="M226 248q76 -21 123.5 -70t48.5 -127q1 -109 -73.5 -173t-191.5 -64q-114 0 -175 45q-3 2 -2 7l8 37q1 4 5 2q69 -46 169 -46q99 0 155.5 52t56.5 138t-67.5 128.5t-166.5 43.5l-39 -217q-1 -4 -4 -4h-37q-5 0 -4 6l65 366q12 73 9 102q0 5 5 5h34q5 0 6 -6
q4 -30 -9 -105l-19 -106q11 0 37 -2l25 -3l210 219q2 3 6 3h47q6 0 0 -6z" />
    <glyph glyph-name="uni0400" unicode="&#x400;" horiz-adv-x="468" 
d="M410 38l-13 -34q-1 -4 -4 -4h-354q-5 0 -5 5l115 656q1 4 5 4h318q3 0 5 -4l3 -34q0 -5 -3 -5h-289l-46 -261h262q4 0 3 -5l-7 -34q-2 -4 -5 -4h-261l-47 -276h321q6 0 2 -4zM265 841l86 -105q6 -6 -3 -6h-35q-5 0 -10 4l-94 105q-6 6 3 6h46q3 0 7 -4z" />
    <glyph glyph-name="uni0401" unicode="&#x401;" horiz-adv-x="468" 
d="M410 38l-13 -34q-1 -4 -4 -4h-354q-5 0 -5 5l115 656q1 4 5 4h318q3 0 5 -4l3 -34q0 -5 -3 -5h-289l-46 -261h262q4 0 3 -5l-7 -34q-2 -4 -5 -4h-261l-47 -276h321q6 0 2 -4zM223 751q-13 0 -21.5 8.5t-8.5 22.5q2 14 11.5 22.5t23.5 8.5t22 -9t7 -22q-2 -31 -34 -31z
M400 751q-14 0 -22 9t-7 22q2 14 11.5 22.5t22.5 8.5t21.5 -9t7.5 -22q-2 -31 -34 -31z" />
    <glyph glyph-name="uni0402" unicode="&#x402;" horiz-adv-x="611" 
d="M280 622l-45 -254q47 12 105 12q88 0 145.5 -44t57.5 -132q0 -93 -58.5 -149.5t-133.5 -64.5q-5 0 -4 4l6 37q1 4 5 4q52 10 95 50.5t44 112.5q0 68 -44 105t-121 37q-62 0 -104 -14l-56 -320q-1 -6 -6 -6h-36q-7 0 -4 6l108 616h-185q-5 0 -3 6l11 33q1 4 5 4h477
q4 0 4 -4l1 -34q0 -5 -5 -5h-259z" />
    <glyph glyph-name="uni0403" unicode="&#x403;" horiz-adv-x="414" 
d="M188 622l-107 -617q-1 -5 -5 -5h-38q-6 0 -4 5l114 656q1 4 6 4h322q3 0 3 -4l4 -35q0 -4 -4 -4h-291zM264 740l143 108q3 3 7 3h54q4 -1 2 -6l-150 -108q-3 -2 -7 -2h-46q-6 0 -3 5z" />
    <glyph glyph-name="uni0404" unicode="&#x404;" horiz-adv-x="521" 
d="M460 58l-8 -36q-2 -5 -4 -6q-46 -26 -137 -26q-118 0 -190.5 72.5t-72.5 211.5q0 169 102.5 284.5t274.5 115.5q86 0 118 -21q3 -2 2 -6l-8 -35q-1 -4 -5 -2q-42 21 -113 21q-125 0 -209 -74t-108 -196h298q4 0 3 -5l-6 -34q-2 -4 -6 -4h-295q-2 -28 -2 -44
q0 -108 57.5 -174t165.5 -66q88 0 139 28q2 1 3.5 0t0.5 -4z" />
    <glyph glyph-name="uni0405" unicode="&#x405;" horiz-adv-x="428" 
d="M-2 44l9 39q2 3 5 1q64 -50 155 -50q74 0 115.5 39t41.5 97q0 46 -25.5 79.5t-83.5 72.5q-71 46 -103 83.5t-32 99.5q0 70 50.5 119.5t140.5 49.5q89 0 134 -33q3 -2 2 -6l-8 -37q-2 -6 -4 -2q-53 36 -129 36q-71 0 -106 -38.5t-35 -87.5q0 -43 24.5 -72.5t81.5 -66.5
q73 -47 106.5 -88.5t33.5 -105.5q-1 -77 -56.5 -130t-152.5 -53q-96 0 -161 47q-3 3 -3 7z" />
    <glyph glyph-name="uni0406" unicode="&#x406;" horiz-adv-x="213" 
d="M195 661l-116 -657q0 -4 -4 -4h-36q-5 0 -5 5l115 656q1 4 5 4h38q3 0 3 -4z" />
    <glyph glyph-name="uni0407" unicode="&#x407;" horiz-adv-x="213" 
d="M195 661l-116 -657q0 -4 -4 -4h-36q-5 0 -5 5l115 656q1 4 5 4h38q3 0 3 -4zM94 739q-14 0 -22.5 9t-7.5 23q2 14 11 22.5t23 8.5t22.5 -9.5t6.5 -21.5q-2 -32 -33 -32zM270 739q-14 0 -22 9t-7 23q2 14 11.5 22.5t23.5 8.5q13 0 21.5 -9.5t7.5 -22.5q-3 -31 -35 -31z
" />
    <glyph glyph-name="uni0408" unicode="&#x408;" horiz-adv-x="260" 
d="M207 665h37q5 0 5 -5l-87 -495q-16 -79 -32 -112q-43 -92 -147 -92q-29 0 -50 8q-4 1 -3 6l8 35q2 3 5 2q20 -6 42 -6q61 0 88.5 39.5t42.5 121.5l87 493q0 5 4 5z" />
    <glyph glyph-name="uni0409" unicode="&#x409;" horiz-adv-x="880" 
d="M572 660l-50 -283q21 1 75 1q96 0 158 -45.5t63 -129.5q0 -104 -76.5 -155t-203.5 -51q-75 0 -123 4q-5 2 -5 7l109 614h-168q-55 -189 -118.5 -336t-127.5 -220q-67 -75 -148 -75q-4 0 -3 4l7 41q2 5 4 5q59 2 109 59q66 76 133 239t110 321q0 5 5 5h246q4 0 4 -5z
M514 337l-51 -296q30 -3 78 -3q42 0 79.5 7.5t73.5 24t57 50t21 80.5q0 67 -50.5 102.5t-136.5 35.5q-21 0 -42 -0.5t-29 -0.5z" />
    <glyph glyph-name="uni040A" unicode="&#x40a;" horiz-adv-x="879" 
d="M570 660l-50 -284h84q95 0 153 -44.5t59 -128.5q0 -105 -75.5 -155.5t-204.5 -50.5q-74 0 -123 4q-5 2 -4 7l57 324h-329l-57 -328q-1 -4 -5 -4h-37q-6 0 -4 5l115 656q1 4 4 4h38q4 0 4 -4l-50 -287h329l49 287q1 4 5 4h39q3 0 3 -5zM512 335l-51 -294q30 -3 82 -3
q42 0 79 7t72 24t55.5 50t20.5 80q0 68 -47 102.5t-132 34.5q-58 0 -79 -1z" />
    <glyph glyph-name="uni040B" unicode="&#x40b;" horiz-adv-x="597" 
d="M226 318l-54 -313q-2 -5 -6 -5h-38q-5 0 -2 6l108 616h-185q-5 0 -3 6l11 33q1 4 5 4h477q4 0 4 -4l1 -34q0 -5 -5 -5h-259l-46 -262q57 19 128 19q34 0 65 -9.5t59 -31t39.5 -64t1.5 -100.5l-31 -169q-1 -5 -4 -5h-36q-6 0 -6 5l31 171q15 81 -22 121.5t-107 40.5
q-79 0 -126 -20z" />
    <glyph glyph-name="uni040C" unicode="&#x40c;" horiz-adv-x="498" 
d="M75 0h-36q-6 0 -5 5l115 655q1 5 4 5h37q6 0 5 -5l-52 -301h53q14 0 21 8q48 47 148.5 148t147.5 147q2 3 7 3h44q2 0 3 -2.5t-1 -3.5q-155 -158 -327 -323q8 -11 62 -86t113 -157t64 -88q3 -5 -2 -5h-44q-4 0 -7 3q-31 43 -108 152t-109 152q-7 10 -19 10h-54l-56 -313
q0 -4 -4 -4zM281 722l142 108q2 3 7 3h54q6 0 2 -6l-149 -107q-3 -3 -8 -3h-46q-2 0 -3 1.5t1 3.5z" />
    <glyph glyph-name="uni040D" unicode="&#x40d;" horiz-adv-x="634" 
d="M153 665h38q3 0 3 -4l-59 -336q-34 -203 -50 -264h1q9 15 30 42t63 79.5t88 109t131.5 162t167.5 207.5q3 4 6 4h40q4 0 4 -4l-116 -657q0 -4 -5 -4h-36q-4 0 -4 5l57 317q41 234 55 284h-1q-20 -34 -112 -149t-367 -453q-3 -4 -5 -4h-43q-5 0 -4 6l114 655q1 4 4 4z
M328 836l86 -105q4 -6 -3 -6h-35q-5 0 -10 4l-94 105q-3 5 3 5h46q4 0 7 -3z" />
    <glyph glyph-name="uni040E" unicode="&#x40e;" horiz-adv-x="493" 
d="M61 665h39q5 0 6 -4q108 -351 126 -423q23 35 80 121.5t106.5 163t87.5 137.5q3 5 6 5h41q5 0 3 -5q-63 -100 -429 -656q-2 -4 -7 -4h-42q-6 0 -2 6q43 64 122 184q3 5 2 10l-142 460q-2 5 3 5zM176 818h33q2 0 3 -4q18 -69 100 -69q80 0 117 68q3 5 6 5h33q6 0 4 -5
q-47 -107 -165 -107q-57 0 -92 28t-45 80q-1 4 6 4z" />
    <glyph glyph-name="uni040F" unicode="&#x40f;" horiz-adv-x="624" 
d="M243 0h-203q-6 0 -6 5l115 655q0 5 5 5h37q5 0 4 -6l-107 -617h362l108 618q0 5 5 5h37q5 0 5 -6l-116 -653q-2 -6 -5 -6h-194l-31 -158q-1 -5 -5 -5h-35q-4 0 -4 5z" />
    <glyph glyph-name="uni0410" unicode="&#x410;" horiz-adv-x="550" 
d="M407 248h-252l-129 -245q-2 -3 -4 -3h-40q-6 0 -3 4l333 632q4 6 8 25q0 4 4 4h54q4 0 4 -4l113 -657q1 -4 -3 -4h-37q-4 0 -6 4zM175 290h227q-51 297 -55 335h-1q-11 -29 -171 -335z" />
    <glyph glyph-name="uni0411" unicode="&#x411;" horiz-adv-x="512" 
d="M188 622l-43 -245q21 1 93 1q96 0 158 -45.5t62 -128.5q0 -105 -76.5 -156t-203.5 -51q-87 0 -141 4q-4 2 -3 7l115 653q1 4 4 4h306q3 0 4 -4l4 -35q0 -4 -5 -4h-274zM137 337l-51 -296q30 -3 95 -3q43 0 80.5 7.5t73.5 24t56.5 50t20.5 80.5q0 67 -50.5 102.5
t-135.5 35.5q-26 0 -54 -0.5t-35 -0.5z" />
    <glyph glyph-name="uni0412" unicode="&#x412;" horiz-adv-x="512" 
d="M35 7l113 652q1 4 5 5q74 2 119 2q84 1 138 -40t54 -120q0 -59 -31.5 -101t-67.5 -58q35 -16 64 -53t29 -96q0 -98 -74.5 -149.5t-199.5 -50.5q-58 0 -145 3q-5 0 -4 6zM137 335l-50 -294q66 -2 104 -2q101 0 161 39.5t60 117.5q0 96 -93 126q-38 13 -108 13h-74z
M189 624l-44 -248h79q60 0 104 -11q91 43 91 137q0 63 -43 94t-109 30h-19.5t-25 -1t-33.5 -1z" />
    <glyph glyph-name="uni0413" unicode="&#x413;" horiz-adv-x="414" 
d="M188 622l-107 -617q-1 -5 -5 -5h-38q-6 0 -4 5l114 656q1 4 6 4h322q3 0 3 -4l4 -35q0 -4 -4 -4h-291z" />
    <glyph glyph-name="uni0414" unicode="&#x414;" horiz-adv-x="572" 
d="M42 42h353l101 579h-176q-44 -195 -118.5 -342.5t-159.5 -236.5zM478 0h-495l-32 -163q-1 -4 -5 -4h-34q-3 0 -2 5l35 198q1 5 5 5l38 1q101 102 178 264t119 355q1 4 5 4h255q4 0 4 -4l-107 -619l87 -1q3 0 2 -5l-41 -197q-2 -5 -6 -5h-31q-5 0 -4 5z" />
    <glyph glyph-name="uni0415" unicode="&#x415;" horiz-adv-x="468" 
d="M410 38l-13 -34q-1 -4 -4 -4h-354q-5 0 -5 5l115 656q1 4 5 4h318q3 0 5 -4l3 -34q0 -5 -3 -5h-289l-46 -261h262q4 0 3 -5l-7 -34q-2 -4 -5 -4h-261l-47 -276h321q6 0 2 -4z" />
    <glyph glyph-name="uni0416" unicode="&#x416;" horiz-adv-x="714" 
d="M95 665h40q5 0 6 -4q20 -37 77 -141.5t83 -150.5q5 -7 15 -7h44l51 299q1 4 5 4h38q3 0 3 -4l-53 -299h51q9 0 16 7q41 46 131 152t119 140q3 4 8 4h42q8 0 2 -6q-177 -207 -276 -318q188 -329 191 -336q2 -5 -1 -5h-39q-5 0 -7 3q-5 10 -35.5 63.5t-76.5 133.5t-63 110
q-4 10 -14 10h-55l-56 -316q0 -4 -4 -4h-36q-5 0 -5 5l56 315h-43q-10 0 -17 -7q-50 -54 -167.5 -177t-125.5 -132q-3 -4 -7 -4h-44q-2 0 -3 2t1 3q218 234 323 340q-17 31 -85 151t-92 163q-2 6 3 6z" />
    <glyph glyph-name="uni0417" unicode="&#x417;" horiz-adv-x="460" 
d="M83 593l7 41q2 4 4 5q59 36 154 36q75 0 124.5 -40.5t49.5 -114.5q0 -69 -45.5 -112t-98.5 -54q56 -15 90.5 -57t34.5 -101q0 -95 -67.5 -150.5t-172.5 -55.5q-107 0 -175 52q-3 3 -2 7l8 38q1 6 4 3q69 -56 168 -56q86 0 138 43.5t52 115.5q0 70 -52.5 106t-133.5 36
h-40q-5 0 -4 4l6 35q1 3 4 3h44q85 0 141 35t56 101q0 55 -39 87t-99 32q-87 0 -153 -42q-1 -1 -2 0.5t-1 2.5z" />
    <glyph glyph-name="uni0418" unicode="&#x418;" horiz-adv-x="634" 
d="M153 665h38q3 0 3 -4l-59 -336q-34 -203 -50 -264h1q9 15 30 42t63 79.5t88 109t131.5 162t167.5 207.5q3 4 6 4h40q4 0 4 -4l-116 -657q0 -4 -5 -4h-36q-4 0 -4 5l57 317q41 234 55 284h-1q-20 -34 -112 -149t-367 -453q-3 -4 -5 -4h-43q-5 0 -4 6l114 655q1 4 4 4z" />
    <glyph glyph-name="uni0419" unicode="&#x419;" horiz-adv-x="634" 
d="M153 665h38q3 0 3 -4l-59 -336q-34 -203 -50 -264h1q9 15 30 42t63 79.5t88 109t131.5 162t167.5 207.5q3 4 6 4h40q4 0 4 -4l-116 -657q0 -4 -5 -4h-36q-4 0 -4 5l57 317q41 234 55 284h-1q-20 -34 -112 -149t-367 -453q-3 -4 -5 -4h-43q-5 0 -4 6l114 655q1 4 4 4z
M253 821h33q3 0 4 -4q16 -70 99 -70q79 0 117 69q2 5 6 5h33q6 0 4 -6q-47 -106 -165 -106q-57 0 -92 28t-45 80q0 4 6 4z" />
    <glyph glyph-name="uni041A" unicode="&#x41a;" horiz-adv-x="498" 
d="M75 0h-36q-6 0 -5 5l115 655q1 5 4 5h37q6 0 5 -5l-52 -301h53q14 0 21 8q48 47 148.5 148t147.5 147q2 3 7 3h44q2 0 3 -2.5t-1 -3.5q-155 -158 -327 -323q8 -11 62 -86t113 -157t64 -88q3 -5 -2 -5h-44q-4 0 -7 3q-31 43 -108 152t-109 152q-7 10 -19 10h-54l-56 -313
q0 -4 -4 -4z" />
    <glyph glyph-name="uni041B" unicode="&#x41b;" horiz-adv-x="591" 
d="M74 99q67 77 133.5 237t109.5 324q1 5 5 5h246q4 0 4 -5l-116 -655q0 -5 -5 -5h-36q-5 0 -5 5l109 617h-168q-55 -189 -118.5 -336t-127.5 -220q-67 -75 -148 -75q-4 0 -3 4l7 41q2 5 4 5q60 2 109 58z" />
    <glyph glyph-name="uni041C" unicode="&#x41c;" horiz-adv-x="786" 
d="M315 4q-82 614 -84 628h-1q-15 -64 -173 -628q-1 -4 -4 -4h-38q-5 0 -4 6l188 655q1 4 5 4h59q5 0 5 -4q76 -493 83 -608h1q23 55 309 608q1 4 6 4h56q4 0 5 -5l-50 -655q0 -5 -3 -5h-39q-4 0 -4 5q38 498 54 626h-1q-33 -80 -317 -627q-1 -4 -5 -4h-42q-5 0 -6 4z" />
    <glyph glyph-name="uni041D" unicode="&#x41d;" horiz-adv-x="623" 
d="M485 0h-38q-5 0 -5 5l55 314h-362l-55 -315q-1 -4 -4 -4h-38q-6 0 -4 5l115 656q1 4 4 4h38q4 0 4 -4l-53 -300h363l52 300q1 4 5 4h38q4 0 4 -5l-116 -655q0 -5 -3 -5z" />
    <glyph glyph-name="uni041E" unicode="&#x41e;" horiz-adv-x="628" 
d="M375 675q106 0 167 -74t61 -199q0 -108 -37.5 -200.5t-113 -152t-173.5 -59.5q-107 0 -169.5 71t-62.5 192q-1 108 38 203.5t115.5 157t174.5 61.5zM368 632q-119 0 -197 -112t-78 -266q0 -93 47.5 -157t143.5 -64q84 0 148.5 55.5t95 137.5t29.5 173q0 100 -45.5 166.5
t-143.5 66.5z" />
    <glyph glyph-name="uni041F" unicode="&#x41f;" horiz-adv-x="623" 
d="M485 0h-37q-6 0 -6 5l109 617h-363l-108 -618q0 -4 -5 -4h-38q-3 0 -3 5l115 654q0 6 5 6h446q4 0 4 -5l-115 -655q-1 -5 -4 -5z" />
    <glyph glyph-name="uni0420" unicode="&#x420;" horiz-adv-x="493" 
d="M34 5l115 653q1 6 6 6q87 3 108 3q96 0 158.5 -44.5t62.5 -136.5q0 -102 -75.5 -161t-202.5 -59q-34 0 -80 2l-46 -264q-1 -4 -4 -4h-39q-3 0 -3 5zM190 624l-56 -313q38 -3 79 -3q100 -1 163 45.5t63 130.5q0 69 -48 105.5t-132 36.5q-13 0 -35 -1t-34 -1z" />
    <glyph glyph-name="uni0421" unicode="&#x421;" horiz-adv-x="521" 
d="M460 58l-8 -37q-2 -5 -4 -6q-47 -25 -136 -25q-119 0 -191.5 72.5t-72.5 211.5q0 108 44 198t131.5 146t201.5 56q86 0 118 -21q3 -2 2 -6l-8 -34q-1 -5 -5 -3q-44 21 -112 21q-148 0 -236.5 -101.5t-88.5 -255.5q0 -107 57.5 -173.5t165.5 -66.5q88 0 138 28q2 1 3.5 0
t0.5 -4z" />
    <glyph glyph-name="uni0422" unicode="&#x422;" horiz-adv-x="459" 
d="M148 5l108 617h-207q-5 0 -3 6l11 33q1 4 5 4h459q4 0 4 -4l3 -35q0 -4 -4 -4h-222l-109 -618q0 -4 -4 -4h-36q-5 0 -5 5z" />
    <glyph glyph-name="uni0423" unicode="&#x423;" horiz-adv-x="493" 
d="M61 665h39q5 0 6 -4q108 -351 126 -423q23 35 80 121.5t106.5 163t87.5 137.5q3 5 6 5h41q5 0 3 -5q-63 -100 -429 -656q-2 -4 -7 -4h-42q-6 0 -2 6q43 64 122 184q3 5 2 10l-142 460q-2 5 3 5z" />
    <glyph glyph-name="uni0424" unicode="&#x424;" horiz-adv-x="662" 
d="M380 687h37q6 0 5 -5l-11 -68q98 -10 158.5 -72.5t60.5 -168.5q0 -140 -88 -227t-230 -86l-13 -75q0 -5 -6 -5h-36q-4 0 -4 4l14 78q-94 12 -154 72t-60 164q0 135 89.5 225t222.5 92l12 69q0 3 3 3zM275 103l83 471q-108 0 -184 -77.5t-76 -194.5q0 -84 46.5 -135.5
t130.5 -63.5zM403 573l-83 -471q109 -2 186.5 70.5t77.5 197.5q0 90 -47 141.5t-134 61.5z" />
    <glyph glyph-name="uni0425" unicode="&#x425;" horiz-adv-x="473" 
d="M536 660l-263 -322l159 -333q2 -5 -2 -5h-41q-6 0 -7 4q-77 165 -142 300h-3q-206 -261 -237 -300q-3 -4 -7 -4h-45q-5 0 -2 5l270 336l-149 320q-2 4 3 4h41q4 0 5 -3q30 -66 133 -291h1q34 43 113.5 141t121.5 150q2 3 5 3h44q4 0 2 -5z" />
    <glyph glyph-name="uni0426" unicode="&#x426;" horiz-adv-x="624" 
d="M531 0h-492q-7 0 -5 5l114 655q0 5 4 5h39q3 0 3 -5l-107 -618h362l107 618q1 5 5 5h38q3 0 3 -4l-107 -619l86 -1q4 0 3 -4l-41 -199q-1 -4 -6 -4h-31q-5 0 -4 5z" />
    <glyph glyph-name="uni0427" unicode="&#x427;" horiz-adv-x="538" 
d="M117 665h38q4 0 4 -4l-26 -142q-28 -160 149 -160q93 0 142 24l49 278q1 4 5 4h38q3 0 3 -5l-116 -655q0 -5 -4 -5h-37q-6 0 -6 5l60 334q-68 -24 -147 -24q-39 0 -72.5 9t-64 30t-43.5 63t-2 101l26 143q1 4 4 4z" />
    <glyph glyph-name="uni0428" unicode="&#x428;" horiz-adv-x="807" 
d="M149 661q1 4 5 4h38q4 0 3 -4l-108 -619h251l108 618q1 5 5 5h37q4 0 3 -4l-108 -619h251l109 618q0 5 5 5h36q4 0 4 -4l-115 -654q-1 -7 -8 -7h-624q-7 0 -7 6z" />
    <glyph glyph-name="uni0429" unicode="&#x429;" horiz-adv-x="811" 
d="M715 0h-674q-7 0 -7 6l115 655q1 4 5 4h38q4 0 3 -4l-108 -619h251l108 618q1 5 5 5h37q4 0 3 -4l-108 -619h251l109 618q0 5 5 5h37q4 0 3 -4l-109 -619l87 -1q3 0 2 -4l-41 -198q-2 -5 -6 -5h-31q-5 0 -4 5z" />
    <glyph glyph-name="uni042A" unicode="&#x42a;" horiz-adv-x="601" 
d="M290 659l-49 -282q21 1 77 1q96 0 158 -45.5t62 -129.5q0 -105 -76 -155.5t-203 -50.5q-75 0 -123 4q-6 2 -4 8l105 613h-189q-4 0 -2 5l11 34q1 4 6 4h223q4 0 4 -6zM233 337l-49 -296q30 -3 78 -3q42 0 79.5 7t73 24t56.5 50t21 80q0 67 -50.5 103t-135.5 36
q-20 0 -42 -0.5t-31 -0.5z" />
    <glyph glyph-name="uni042B" unicode="&#x42b;" horiz-adv-x="680" 
d="M661 661l-116 -657q0 -4 -4 -4h-37q-4 0 -4 5l115 656q1 4 5 4h37q4 0 4 -4zM153 665h38q4 0 4 -5l-50 -283q21 1 75 1q97 0 159 -45.5t62 -129.5q0 -104 -76.5 -155t-203.5 -51q-74 0 -123 4q-4 1 -4 8l115 652q1 4 4 4zM137 337l-51 -296q30 -3 78 -3q42 0 79.5 7.5
t73.5 24t57 50t21 80.5q0 67 -50.5 102.5t-135.5 35.5q-21 0 -42 -0.5t-30 -0.5z" />
    <glyph glyph-name="uni042C" unicode="&#x42c;" horiz-adv-x="521" 
d="M153 665h38q4 0 4 -5l-50 -283q21 1 93 1q96 0 158 -45.5t62 -129.5q0 -104 -76.5 -155t-203.5 -51q-91 0 -140 4q-4 1 -4 8l115 652q1 4 4 4zM137 337l-51 -296q30 -3 95 -3q43 0 80.5 7t73 24t56.5 50.5t21 80.5q0 67 -50.5 102.5t-135.5 35.5q-20 0 -50 -0.5t-39 -0.5
z" />
    <glyph glyph-name="uni042D" unicode="&#x42d;" horiz-adv-x="544" 
d="M467 317h-338q-5 0 -4 5l5 33q1 4 5 4h337q1 13 1 39q0 109 -54.5 171t-155.5 62q-88 0 -161 -39q-2 -1 -3 0t-1 4l8 40q2 5 3 5q66 33 159 33q120 0 185 -77t66 -205q1 -178 -96.5 -290t-244.5 -112q-113 0 -182 49q-2 2 -1 8l7 36q3 5 6 2q70 -51 176 -51
q104 0 185.5 75t97.5 208z" />
    <glyph glyph-name="uni042E" unicode="&#x42e;" horiz-adv-x="834" 
d="M153 665h37q3 0 3 -4l-50 -300h134q28 142 111 228t199 86q110 0 166 -77t56 -190q0 -168 -89.5 -293t-226.5 -125q-111 0 -175 86.5t-47 243.5h-136l-56 -316q-1 -4 -4 -4h-36q-6 0 -5 5l114 655q1 5 5 5zM581 632q-79 0 -141.5 -54.5t-94.5 -141.5t-32 -188
q0 -98 51 -156.5t132 -58.5q80 0 142 56.5t92.5 140.5t30.5 177q0 43 -9 80.5t-28.5 71.5t-56 53.5t-86.5 19.5z" />
    <glyph glyph-name="uni042F" unicode="&#x42f;" horiz-adv-x="536" 
d="M356 5l52 295h-102q-17 0 -33 -18q-45 -47 -147 -157.5t-113 -122.5q-2 -2 -7 -2h-48q-5 0 -2 5q8 8 77 82.5t133.5 143t78.5 79.5q-132 38 -132 163q1 90 66.5 142.5t184.5 52.5q106 0 149 -5q3 0 4 -6l-116 -653q0 -4 -4 -4h-37q-5 0 -4 5zM415 341l50 283
q-54 3 -104 3q-98 0 -149.5 -41t-51.5 -114q0 -61 44.5 -96t114.5 -35h96z" />
    <glyph glyph-name="uni0430" unicode="&#x430;" horiz-adv-x="476" 
d="M430 471l-78 -446q-2 -5 -6 -7q-60 -28 -130 -28q-86 0 -138 49.5t-52 146.5q0 119 88 210.5t224 91.5q56 0 91 -12q1 -1 1 -5zM310 47l70 396q-22 5 -49 5q-110 0 -185 -77t-75 -182q0 -75 38.5 -116.5t115.5 -41.5q52 0 85 16z" />
    <glyph glyph-name="uni0431" unicode="&#x431;" horiz-adv-x="484" 
d="M521 729l-7 -38q-1 -5 -7 -7q-42 -14 -125 -31q-122 -24 -187.5 -92t-97.5 -194q70 101 185 101q78 0 119 -54.5t41 -140.5q-1 -117 -69 -200t-165 -83q-88 0 -131 62t-43 165q1 95 31.5 190.5t81.5 157.5q46 55 99.5 84.5t135.5 48.5q97 22 135 35q2 1 3.5 0t0.5 -4z
M395 269q0 67 -29 112t-96 45t-117 -43.5t-65 -105.5q-7 -24 -8 -63q-1 -47 9 -85.5t41 -68t81 -29.5q80 0 132 73.5t52 164.5z" />
    <glyph glyph-name="uni0432" unicode="&#x432;" horiz-adv-x="442" 
d="M29 11l81 455q2 5 5 6q56 16 132 16q62 0 105.5 -28.5t44.5 -86.5q1 -47 -33 -78t-81 -40q44 -11 73.5 -39t29.5 -71q0 -41 -19.5 -71.5t-53 -47.5t-72 -25.5t-80.5 -8.5q-72 0 -129 12q-5 2 -3 7zM120 273h64q77 0 123.5 24.5t45.5 73.5q-1 38 -31 58t-82 20
q-49 0 -90 -9zM182 235h-69l-34 -196q37 -8 87 -8q68 0 121 27.5t53 84.5q-1 45 -42.5 68.5t-115.5 23.5z" />
    <glyph glyph-name="uni0433" unicode="&#x433;" horiz-adv-x="372" 
d="M83 411q-6 -3 -6 3l6 36q2 5 5 7q52 31 127 31q58 0 92 -30.5t35 -73.5q1 -52 -33 -85t-122 -73q-78 -37 -105.5 -61t-27.5 -61q0 -25 27.5 -48.5t79.5 -23.5q77 0 143 45q4 4 4 -2l-7 -40q-1 -4 -5 -8q-51 -37 -140 -37q-70 0 -109.5 31.5t-39.5 81.5q0 54 35 85.5
t133 76.5q71 34 96 57.5t25 56.5q0 24 -20 46t-69 22q-66 0 -124 -36z" />
    <glyph glyph-name="uni0434" unicode="&#x434;" horiz-adv-x="473" 
d="M275 418q-88 0 -147 -68t-59 -170q0 -61 31.5 -104.5t96.5 -43.5q83 0 139 95.5t54 230.5q0 10 -2 24q-41 36 -113 36zM117 695l7 33q2 5 6 4q146 -22 225.5 -118.5t80.5 -249.5q1 -99 -27.5 -183t-85 -137.5t-130.5 -53.5q-80 0 -125 53t-45 138q-1 114 71.5 196
t180.5 82q63 0 109 -26q-12 97 -78 167t-186 90q-5 0 -3 5z" />
    <glyph glyph-name="uni0435" unicode="&#x435;" horiz-adv-x="409" 
d="M331 64l-7 -37q-1 -5 -5 -7q-45 -30 -120 -30q-83 0 -128.5 51t-45.5 145q0 119 70 210.5t173 91.5q64 0 94.5 -31.5t30.5 -77.5q1 -83 -80.5 -123.5t-241.5 -32.5q-3 -23 -3 -46q2 -65 35.5 -104.5t102.5 -39.5q70 0 121 35q2 1 3 -0.5t1 -3.5zM76 261q83 -4 140 4
t85 26.5t38.5 38.5t10.5 45q0 73 -88 73q-65 0 -116 -51t-70 -136z" />
    <glyph glyph-name="uni0436" unicode="&#x436;" horiz-adv-x="591" 
d="M46 479h44q5 0 6 -4q36 -58 131 -204q4 -6 12 -6h37l37 209q1 5 5 5h35q5 0 3 -6l-36 -208h40q5 0 13 8q172 176 197 202q1 4 7 4h42q9 0 3 -6q-128 -134 -224 -226q3 -4 73 -109t88 -133q2 -5 -3 -5h-39q-4 0 -8 4q-85 126 -137 210q-7 10 -17 10h-43l-39 -220
q0 -4 -3 -4h-36q-5 0 -5 5l39 219h-36q-8 0 -18 -9q-139 -139 -214 -211q-4 -4 -7 -4h-44q-6 0 -2 6q214 214 248 244q-13 19 -73.5 108.5t-77.5 114.5q-3 6 2 6z" />
    <glyph glyph-name="uni0437" unicode="&#x437;" horiz-adv-x="380" 
d="M100 241l6 30q0 5 4 5h28q157 0 157 90q0 38 -30.5 60t-77.5 22q-64 0 -125 -32q-5 -3 -5 3l7 34q1 4 5 7q54 28 128 28q60 0 102 -30t42 -87q0 -46 -30.5 -75.5t-75.5 -40.5v-1q39 -12 66 -40.5t27 -73.5q0 -72 -58 -111t-140 -39q-87 0 -142 36q-4 4 -3 8l9 34q2 5 6 2
q59 -39 133 -39q66 0 107.5 29.5t41.5 79.5q0 49 -42 72t-102 23h-34q-4 0 -4 6z" />
    <glyph glyph-name="uni0438" unicode="&#x438;" horiz-adv-x="487" 
d="M443 474l-67 -369q-7 -44 -13 -100q0 -5 -4 -5h-32q-6 0 -6 5q-2 23 8 74q-71 -89 -168 -89q-57 0 -92 38.5t-19 132.5l58 313q1 5 5 5h37q3 0 3 -5l-57 -315q-11 -60 9 -93.5t68 -33.5q84 0 148 85q16 19 18 33l60 325q1 4 5 4h36q3 0 3 -5z" />
    <glyph glyph-name="uni0439" unicode="&#x439;" horiz-adv-x="487" 
d="M443 474l-67 -369q-7 -44 -13 -100q0 -5 -4 -5h-32q-6 0 -6 5q-2 23 8 74q-71 -89 -168 -89q-57 0 -92 38.5t-19 132.5l58 313q1 5 5 5h37q3 0 3 -5l-57 -315q-11 -60 9 -93.5t68 -33.5q84 0 148 85q16 19 18 33l60 325q1 4 5 4h36q3 0 3 -5zM155 688h33q3 0 4 -4
q13 -77 92 -77t113 76q3 5 7 5h31q5 0 3 -5q-40 -116 -159 -116q-56 0 -90 30t-39 86q0 5 5 5z" />
    <glyph glyph-name="uni043A" unicode="&#x43a;" horiz-adv-x="411" 
d="M112 223l-39 -218q0 -5 -4 -5h-36q-6 0 -5 6l84 469q0 4 4 4h37q4 0 4 -5l-37 -209h39q9 0 17 7l217 203q4 4 8 4h43q8 0 2 -6l-245 -230l180 -238q3 -5 -2 -5h-44q-5 0 -8 3l-158 211q-6 9 -17 9h-40z" />
    <glyph glyph-name="uni043B" unicode="&#x43b;" horiz-adv-x="448" 
d="M-40 -7q-6 0 -4 6l6 39q1 5 6 6q20 7 28.5 10.5t31.5 26.5t45 63q15 31 64 160q39 100 77.5 140.5t113.5 40.5q36 0 71 -7q4 -1 4 -4l-83 -470q0 -4 -4 -4h-36q-5 0 -5 4l77 437q-12 4 -28 4q-50 0 -80.5 -27t-65.5 -124q-45 -124 -71 -173q-63 -119 -147 -128z" />
    <glyph glyph-name="uni043C" unicode="&#x43c;" horiz-adv-x="602" 
d="M51 0h-35q-3 0 -3 5l105 469q0 5 4 5h55q3 0 4 -3q69 -357 77 -427h1q23 52 234 426q1 4 5 4h54q3 0 3 -4l-71 -471q0 -4 -5 -4h-37q-4 0 -4 5q58 360 73 434h-1q-57 -128 -235 -435q-1 -4 -6 -4h-37q-7 0 -7 4q-10 60 -42 237t-35 197h-1q-14 -86 -91 -433q-2 -5 -5 -5z
" />
    <glyph glyph-name="uni043D" unicode="&#x43d;" horiz-adv-x="495" 
d="M120 273h248l36 201q2 5 5 5h37q4 0 4 -5l-84 -469q0 -5 -6 -5h-35q-5 0 -5 5l41 227h-248l-40 -228q0 -4 -4 -4h-38q-4 0 -3 5l84 469q0 5 5 5h36q4 0 4 -5z" />
    <glyph glyph-name="uni043E" unicode="&#x43e;" horiz-adv-x="471" 
d="M264 488q77 0 121.5 -52.5t44.5 -145.5q0 -118 -65.5 -209t-168.5 -91q-80 0 -125.5 52t-45.5 146q0 121 67.5 210.5t171.5 89.5zM258 447q-78 0 -133 -75.5t-55 -182.5q0 -70 32.5 -113.5t98.5 -43.5q73 0 127.5 75t55.5 183q1 67 -29.5 112t-96.5 45z" />
    <glyph glyph-name="uni043F" unicode="&#x43f;" horiz-adv-x="502" 
d="M28 4l64 363q11 64 15 107q2 5 5 5h33q4 0 4 -4q0 -17 -11 -85q81 98 183 98q18 0 34 -4t34 -15.5t27.5 -31.5t15 -52.5t-4.5 -78.5l-53 -302q-1 -4 -6 -4h-36q-6 0 -4 5l54 308q22 135 -75 135q-88 0 -161 -99q-16 -22 -20 -42l-53 -303q-1 -4 -4 -4h-38q-3 0 -3 4z" />
    <glyph glyph-name="uni0440" unicode="&#x440;" horiz-adv-x="478" 
d="M270 488q76 0 121.5 -51t45.5 -137q1 -134 -84 -222t-197 -88q-48 0 -84 12l-40 -227q-1 -4 -5 -5q-30 -4 -36 -4t-4 5l118 674q1 4 6 7q1 0 17 6.5t22.5 8.5t23.5 7t29 7.5t30.5 4.5t36.5 2zM258 447q-55 0 -113 -26l-64 -376q31 -14 81 -14q92 0 161 75.5t69 184.5
q0 156 -134 156z" />
    <glyph glyph-name="uni0441" unicode="&#x441;" horiz-adv-x="368" 
d="M315 45l-7 -34q-2 -5 -6 -7q-36 -14 -87 -14q-86 0 -138 53t-52 149q0 125 77 210.5t190 85.5q53 0 78 -11q3 -2 2 -6l-8 -34q-1 -3 -6 -2q-30 11 -67 11q-94 0 -157 -71t-63 -178q0 -71 37 -117.5t113 -46.5q52 0 90 15q4 1 4 -3z" />
    <glyph glyph-name="uni0442" unicode="&#x442;" horiz-adv-x="777" 
d="M113 479h34q4 0 4 -5q0 -26 -11 -83q76 97 176 97q43 0 70.5 -25t31.5 -76q80 101 181 101q53 0 86.5 -39t16.5 -138l-53 -306q-1 -5 -5 -5h-37q-5 0 -4 6l55 315q21 126 -73 126q-90 0 -159 -106q-7 -11 -11 -34l-53 -302q-1 -5 -6 -5h-35q-6 0 -5 5l54 306
q24 136 -68 136q-89 0 -161 -105q-12 -21 -14 -34l-53 -303q-1 -5 -6 -5h-35q-5 0 -4 5l65 371q12 68 14 97q0 6 5 6z" />
    <glyph glyph-name="uni0443" unicode="&#x443;" horiz-adv-x="413" 
d="M34 479h40q3 0 4 -4q67 -314 82 -420h2q117 213 214 420q3 4 6 4h38q6 0 3 -5q-117 -248 -238 -455q-61 -103 -158 -246q-3 -3 -7 -3l-43 -4q-4 1 -2 5q97 142 151 233q2 6 1 8q-30 126 -96 463q-2 4 3 4z" />
    <glyph glyph-name="uni0444" unicode="&#x444;" horiz-adv-x="640" 
d="M259 64l63 361q-26 23 -70 23q-79 0 -129.5 -83t-51.5 -187q0 -148 106 -148q47 0 82 34zM296 17l-45 -242q0 -5 -4 -6q-2 0 -19 -1.5t-18 -1.5q-5 0 -4 5l46 248q-36 -29 -87 -29q-72 0 -106 52t-34 135q1 74 26.5 143.5t80 118.5t125.5 49q45 0 73 -21l40 229q1 3 5 3
h35q4 0 4 -3l-40 -228q41 20 84 20q72 0 106.5 -56t34.5 -144q-2 -121 -66 -209.5t-161 -88.5q-46 0 -76 27zM365 423l-62 -361q28 -33 74 -31q75 2 125 78.5t51 181.5q0 63 -24 109.5t-82 46.5q-42 0 -82 -24z" />
    <glyph glyph-name="uni0445" unicode="&#x445;" horiz-adv-x="373" 
d="M153 245l-112 228q-1 6 3 6h41q4 0 5 -4q13 -27 45 -95.5t50 -105.5h1q24 30 52 63.5t62.5 74.5t53.5 63q3 4 7 4h41q3 0 3.5 -1.5t-1.5 -3.5l-196 -232l119 -237q1 -5 -3 -5h-39q-5 0 -7 4l-102 210h-1q-32 -41 -175 -210q-3 -4 -6 -4h-43q-5 0 -2 5z" />
    <glyph glyph-name="uni0446" unicode="&#x446;" horiz-adv-x="491" 
d="M443 474l-66 -368q-7 -41 3.5 -56.5t38.5 -15.5q22 0 26 1q5 0 3 -5l-40 -185q-1 -5 -5 -5h-32q-4 0 -3 5l29 149q-35 1 -53.5 22.5t-13.5 63.5q-71 -90 -170 -90q-56 0 -91 39.5t-18 136.5l57 308q1 5 5 5h37q3 0 3 -5l-57 -315q-11 -59 8.5 -93t67.5 -34q85 0 149 85
q15 17 18 32l60 326q1 4 5 4h36q5 0 3 -5z" />
    <glyph glyph-name="uni0447" unicode="&#x447;" horiz-adv-x="433" 
d="M80 479h37q4 0 4 -5l-22 -116q-9 -53 9.5 -81t83.5 -28q64 0 115 31l36 194q1 5 5 5h36q4 0 4 -5l-85 -469q-1 -5 -5 -5h-36q-4 0 -4 5l43 235q-54 -30 -124 -30q-68 0 -103 34.5t-21 107.5l23 123q1 4 4 4z" />
    <glyph glyph-name="uni0448" unicode="&#x448;" horiz-adv-x="755" 
d="M113 479h37q4 0 3 -7l-58 -312q-21 -128 71 -128q81 0 161 111q6 36 7 39l54 292q2 5 6 5h35q5 0 4 -6l-56 -303q-13 -68 5.5 -103t64.5 -35q82 0 161 117l61 325q2 5 6 5h34q6 0 6 -5l-69 -371q-12 -63 -14 -98q0 -5 -5 -5h-33q-5 0 -5 5q6 64 10 85q-70 -100 -163 -100
q-98 0 -107 101q-47 -55 -88.5 -78t-90.5 -23q-16 0 -31 4t-32 15.5t-26 31t-13.5 51t4.5 76.5l56 306q0 5 5 5z" />
    <glyph glyph-name="uni0449" unicode="&#x449;" horiz-adv-x="760" 
d="M600 87q-70 -97 -164 -97q-98 0 -107 101q-47 -55 -88.5 -78t-90.5 -23q-16 0 -31 4t-32 15.5t-26 31t-13.5 51t4.5 76.5l56 306q0 5 5 5h37q4 0 3 -7l-58 -312q-21 -128 71 -128q81 0 161 111q6 36 7 39l54 292q2 5 6 5h35q5 0 4 -6l-56 -303q-13 -68 5.5 -103t64.5 -35
q82 0 161 117l61 325q2 5 6 5h34q6 0 6 -5l-69 -368q-7 -41 4 -56.5t39 -15.5q22 0 27 1q4 0 3 -5l-40 -185q-1 -5 -5 -5h-32q-5 0 -4 5l30 149q-37 1 -56 24.5t-12 68.5z" />
    <glyph glyph-name="uni044A" unicode="&#x44a;" horiz-adv-x="461" 
d="M220 473l-35 -195q37 5 67 5q69 0 116.5 -30.5t48.5 -100.5q0 -75 -59 -117.5t-154 -42.5q-57 0 -107 12q-4 1 -4 5l77 429h-151q-3 0 -3 3l10 34q2 4 4 4h186q5 0 4 -6zM179 240l-36 -202q34 -8 64 -8q68 0 115.5 29.5t48.5 89.5q-1 96 -128 96q-29 0 -64 -5z" />
    <glyph glyph-name="uni044B" unicode="&#x44b;" horiz-adv-x="582" 
d="M407 5l83 470q1 4 6 4h36q6 0 4 -6l-83 -469q-1 -4 -5 -4h-36q-5 0 -5 5zM116 479h36q3 0 3 -5l-35 -196q37 5 65 5q70 0 118.5 -31t48.5 -100q0 -74 -59.5 -117t-153.5 -43q-57 0 -107 12q-4 1 -4 5l83 466q2 4 5 4zM114 240l-36 -202q34 -8 64 -8q68 0 115.5 29.5
t48.5 89.5q-1 96 -130 96q-24 0 -62 -5z" />
    <glyph glyph-name="uni044C" unicode="&#x44c;" horiz-adv-x="415" 
d="M116 479h36q4 0 4 -5l-35 -196q37 5 76 5q71 0 121.5 -29.5t51.5 -98.5q0 -76 -61 -119.5t-164 -43.5q-58 0 -113 12q-4 1 -4 6l83 465q2 4 5 4zM115 240l-36 -202q34 -8 72 -8q74 0 123.5 30t49.5 91q-1 94 -136 94q-38 0 -73 -5z" />
    <glyph glyph-name="uni044D" unicode="&#x44d;" horiz-adv-x="396" 
d="M67 229l7 33q1 4 5 4h231q1 28 -5 56.5t-21 58t-47.5 48t-76.5 18.5q-59 0 -100 -20q-4 -2 -4 3l7 36q0 4 4 5q43 17 102 17q87 0 136.5 -59.5t49.5 -150.5q0 -119 -69 -203.5t-186 -84.5q-70 0 -115 28q-5 3 -4 8l9 34q2 5 5 2q45 -31 109 -31q79 0 133.5 53t68.5 142
h-234q-5 0 -5 3z" />
    <glyph glyph-name="uni044E" unicode="&#x44e;" horiz-adv-x="658" 
d="M391 31q80 0 130.5 81t50.5 183q0 63 -27.5 107.5t-91.5 44.5q-77 0 -130.5 -80t-52.5 -181q1 -77 35 -116t86 -39zM120 272h115q23 93 83 154.5t139 61.5q81 0 120.5 -53.5t39.5 -140.5q0 -122 -63.5 -213t-167.5 -91q-70 0 -115.5 48.5t-45.5 146.5q0 23 3 46h-115
l-40 -226q-1 -5 -5 -5h-36q-5 0 -4 5l84 469q1 5 5 5h36q4 0 4 -5z" />
    <glyph glyph-name="uni044F" unicode="&#x44f;" horiz-adv-x="438" 
d="M393 474l-84 -468q-1 -6 -4 -6h-34q-6 0 -6 6l37 205h-84q-7 0 -15 -7q-17 -16 -47.5 -48.5t-77.5 -83t-64 -68.5q-3 -4 -7 -4h-47q-5 0 -2 5q176 187 208 217q-104 27 -104 118q0 70 59 109t150 39q67 0 119 -10q4 -1 3 -4zM308 249l36 194q-27 7 -79 7
q-68 0 -112.5 -27.5t-44.5 -80.5q0 -93 143 -93h57z" />
    <glyph glyph-name="uni0450" unicode="&#x450;" horiz-adv-x="409" 
d="M331 64l-7 -37q-1 -5 -5 -7q-45 -30 -120 -30q-83 0 -128.5 51t-45.5 145q0 119 70 210.5t173 91.5q64 0 94.5 -31.5t30.5 -77.5q1 -83 -80.5 -123.5t-241.5 -32.5q-3 -23 -3 -46q2 -65 35.5 -104.5t102.5 -39.5q70 0 121 35q2 1 3 -0.5t1 -3.5zM76 261q83 -4 140 4
t85 26.5t38.5 38.5t10.5 45q0 73 -88 73q-65 0 -116 -51t-70 -136zM221 704l75 -143q0 -4 -3 -4h-35q-4 0 -6 3l-80 143q-2 5 3 5h41q4 0 5 -4z" />
    <glyph glyph-name="uni0451" unicode="&#x451;" horiz-adv-x="409" 
d="M331 64l-7 -37q-1 -5 -5 -7q-45 -30 -120 -30q-83 0 -128.5 51t-45.5 145q0 119 70 210.5t173 91.5q64 0 94.5 -31.5t30.5 -77.5q1 -83 -80.5 -123.5t-241.5 -32.5q-3 -23 -3 -46q2 -65 35.5 -104.5t102.5 -39.5q70 0 121 35q2 1 3 -0.5t1 -3.5zM76 261q83 -4 140 4
t85 26.5t38.5 38.5t10.5 45q0 73 -88 73q-65 0 -116 -51t-70 -136zM159 606q-13 0 -20.5 9t-5.5 22q1 13 10 21.5t23 8.5q13 0 20 -9t6 -22q-4 -30 -33 -30zM337 606q-13 0 -21 9t-6 22q4 30 34 30q13 0 20 -9t5 -22q-1 -13 -9.5 -21.5t-22.5 -8.5z" />
    <glyph glyph-name="uni0452" unicode="&#x452;" horiz-adv-x="485" 
d="M176 593l-29 -164q67 54 146 54q69 0 104 -55t36 -137q1 -170 -82.5 -305t-207.5 -175q-3 -1 -4.5 0.5t-0.5 3.5l8 40q1 3 5 5q102 39 169.5 162t66.5 268q-1 58 -26.5 104.5t-81.5 46.5q-71 0 -139 -60l-66 -377q0 -4 -5 -4h-36q-3 0 -4.5 1t-0.5 3l103 589h-65
q-4 0 -3 4l6 29q0 4 4 4h65l15 87q1 5 5 6l38 4q4 0 3 -4l-16 -93h165q4 0 4 -4l-6 -30q-1 -3 -5 -3h-165z" />
    <glyph glyph-name="uni0453" unicode="&#x453;" horiz-adv-x="372" 
d="M83 411q-6 -3 -6 3l6 36q2 5 5 7q52 31 127 31q58 0 92 -30.5t35 -73.5q1 -52 -33 -85t-122 -73q-78 -37 -105.5 -61t-27.5 -61q0 -25 27.5 -48.5t79.5 -23.5q77 0 143 45q4 4 4 -2l-7 -40q-1 -4 -5 -8q-51 -37 -140 -37q-70 0 -109.5 31.5t-39.5 81.5q0 54 35 85.5
t133 76.5q71 34 96 57.5t25 56.5q0 24 -20 46t-69 22q-66 0 -124 -36zM183 562l128 144q4 4 7 4h48q5 0 2 -5l-134 -144q-4 -4 -7 -4h-42q-5 0 -2 5z" />
    <glyph glyph-name="uni0454" unicode="&#x454;" horiz-adv-x="373" 
d="M288 488q62 0 88 -14q3 -3 2 -7l-7 -33q-2 -5 -6 -2q-32 17 -83 17q-69 0 -128 -45.5t-78 -139.5h222q5 0 4 -5l-6 -31q1 -4 -4 -4h-221q-6 -95 37.5 -144.5t112.5 -49.5q48 0 89 18q2 1 3.5 0t0.5 -4l-7 -33q-2 -5 -5 -6q-30 -15 -92 -15q-86 0 -135.5 57t-49.5 147
q0 125 73.5 210t189.5 84z" />
    <glyph glyph-name="uni0455" unicode="&#x455;" horiz-adv-x="332" 
d="M289 426q-37 23 -91 23q-52 0 -81 -26t-29 -64q0 -29 18.5 -49.5t60.5 -43.5q55 -29 82 -59.5t27 -76.5q0 -67 -46 -103.5t-115 -36.5q-83 0 -126 37q-4 4 -3 8l8 35q2 4 5 1q50 -41 119 -41q56 0 84.5 27.5t28.5 66.5q0 33 -20 55t-65 49q-51 28 -76.5 55.5t-25.5 70.5
q0 59 43.5 96.5t115.5 37.5q67 0 97 -21q4 -2 2 -7l-7 -32q-1 -4 -6 -2z" />
    <glyph glyph-name="uni0456" unicode="&#x456;" horiz-adv-x="202" 
d="M28 5l83 470q1 4 5 4h36q6 0 4 -6l-83 -469q-1 -4 -5 -4h-36q-4 0 -4 5zM158 605q-15 0 -23 9.5t-6 23.5q5 31 36 31q14 0 21 -9.5t5 -23.5q-1 -13 -10 -22t-23 -9z" />
    </font>
</defs>
</svg>
