<svg width="24" height="24" viewBox="0 0 24 24" fill="none" xmlns="http://www.w3.org/2000/svg">
<path d="M12.0044 11.9998H12.0134M15.9999 11.9998H16.0089M8.00888 11.9998H8.01785" stroke="#141B34" stroke-width="2" stroke-linecap="round" stroke-linejoin="round"/>
<path d="M21.4999 4.99976C21.4999 6.38047 20.3806 7.49976 18.9999 7.49976C17.6192 7.49976 16.4999 6.38047 16.4999 4.99976C16.4999 3.61904 17.6192 2.49976 18.9999 2.49976C20.3806 2.49976 21.4999 3.61904 21.4999 4.99976Z" stroke="#141B34" stroke-width="1.5" stroke-linecap="round" stroke-linejoin="round"/>
<path d="M13.9976 2.71017C13.3535 2.57232 12.6852 2.49976 11.9999 2.49976C6.75317 2.49976 2.49988 6.75305 2.49988 11.9998C2.49988 13.0481 2.66968 14.0568 2.98328 14.9998C3.6091 16.8816 2.98882 19.1664 2.49988 19.9998C3.49988 19.9122 5.49988 19.4998 7.49988 20.3685C8.83928 21.0902 10.3717 21.4998 11.9999 21.4998C17.2466 21.4998 21.4999 17.2465 21.4999 11.9998C21.4999 11.3145 21.4273 10.6461 21.2895 10.002" stroke="#141B34" stroke-width="1.5" stroke-linecap="round" stroke-linejoin="round"/>
</svg>
