<svg width="24" height="24" viewBox="0 0 24 24" fill="none" xmlns="http://www.w3.org/2000/svg">
<path d="M14 2.7109C13.3552 2.57273 12.6861 2.5 12 2.5C6.75329 2.5 2.5 6.75329 2.5 12C2.5 13.0483 2.6698 14.057 2.98341 15C3.60922 16.8818 2.98894 19.1667 2.5 20C3.5 19.9125 5.5 19.5 7.5 20.3687C8.8394 21.0904 10.3719 21.5 12 21.5C17.2467 21.5 21.5 17.2467 21.5 12C21.5 11.3139 21.4273 10.6448 21.2891 10" stroke="#141B34" stroke-width="1.5" stroke-linecap="round" stroke-linejoin="round"/>
<path d="M12.0045 12H12.0135M8.00903 12H8.018" stroke="#141B34" stroke-width="2" stroke-linecap="round" stroke-linejoin="round"/>
<path d="M17.9693 2.52506C17.9761 2.49165 18.0239 2.49165 18.0307 2.52506C18.3852 4.25942 19.7406 5.61481 21.4749 5.9693C21.5084 5.97613 21.5084 6.02387 21.4749 6.0307C19.7406 6.38519 18.3852 7.74058 18.0307 9.47494C18.0239 9.50835 17.9761 9.50835 17.9693 9.47494C17.6148 7.74058 16.2594 6.38519 14.5251 6.0307C14.4916 6.02387 14.4916 5.97613 14.5251 5.9693C16.2594 5.61481 17.6148 4.25942 17.9693 2.52506Z" stroke="#141B34" stroke-width="1.5" stroke-linecap="round" stroke-linejoin="round"/>
</svg>
