<svg width="24" height="24" viewBox="0 0 24 24" fill="none" xmlns="http://www.w3.org/2000/svg">
<path d="M16.5 2V6M7.5 2V6" stroke="#141B34" stroke-width="1.5" stroke-linecap="round" stroke-linejoin="round"/>
<path d="M21 13V6C21 4.89543 20.1046 4 19 4H5C3.89543 4 3 4.89543 3 6V20C3 21.1046 3.89543 22 5 22H11" stroke="#141B34" stroke-width="1.5" stroke-linecap="round" stroke-linejoin="round"/>
<path d="M3 10H21" stroke="#141B34" stroke-width="1.5" stroke-linecap="round" stroke-linejoin="round"/>
<path d="M17.5 18.5C16.3954 18.5 15.5 17.6046 15.5 16.5C15.5 15.3954 16.3954 14.5 17.5 14.5C18.6046 14.5 19.5 15.3954 19.5 16.5C19.5 17.6046 18.6046 18.5 17.5 18.5ZM17.5 18.5C19.433 18.5 21 20.067 21 22M17.5 18.5C15.567 18.5 14 20.067 14 22" stroke="#141B34" stroke-width="1.5" stroke-linecap="round" stroke-linejoin="round"/>
</svg>
