<svg width="24" height="24" viewBox="0 0 24 24" fill="none" xmlns="http://www.w3.org/2000/svg">
<path d="M21 3L3 21" stroke="#141B34" stroke-width="1.5" stroke-linecap="round" stroke-linejoin="round"/>
<path d="M13.4892 19.023L16.4839 16.0284C16.7887 15.7236 17.2544 15.647 17.6556 15.8046C18.2138 16.0238 19.0694 16.3105 20.002 16.4444C20.5495 16.523 21 16.9678 21 17.5209V20.0245C21 20.5775 20.5509 21.0288 19.9986 20.9986C15.4195 20.7478 11.2956 18.7881 8.25376 15.7462M4.97697 10.5108L7.97162 7.51614C8.27642 7.21135 8.35302 6.74557 8.19544 6.34436C7.97621 5.78617 7.6895 4.93061 7.55558 3.99797C7.47697 3.45051 7.03221 3 6.47913 3H3.97553C3.42245 3 2.9712 3.44914 3.00144 4.00139C3.19703 7.57355 4.43267 10.8687 6.41073 13.5893" stroke="#141B34" stroke-width="1.5" stroke-linecap="round" stroke-linejoin="round"/>
</svg>
