<svg width="24" height="24" viewBox="0 0 24 24" fill="none" xmlns="http://www.w3.org/2000/svg">
<path d="M2 8.5C2 7.39543 2.89543 6.5 4 6.5H7.5L9.0547 4.16795C9.3329 3.75065 9.80125 3.5 10.3028 3.5H13.6972C14.1988 3.5 14.6671 3.75065 14.9453 4.16795L16.5 6.5H20C21.1046 6.5 22 7.39543 22 8.5V18.5C22 19.6046 21.1046 20.5 20 20.5H4C2.89543 20.5 2 19.6046 2 18.5V8.5Z" stroke="#141B34" stroke-width="1.5" stroke-linecap="round" stroke-linejoin="round"/>
<path d="M13.5 12.5L16 13L17.5 10.5M14.6458 16C13.9407 16.6224 13.0144 17 12 17C9.79086 17 8 15.2091 8 13C8 10.7909 9.79086 9 12 9C14.0398 9 15.723 10.5268 15.9691 12.5" stroke="#141B34" stroke-width="1.5" stroke-linecap="round" stroke-linejoin="round"/>
</svg>
