<svg width="24" height="24" viewBox="0 0 24 24" fill="none" xmlns="http://www.w3.org/2000/svg">
<path d="M12.0045 10.5H12.0135M16 10.5H16.009M8.009 10.5H8.01797" stroke="#141B34" stroke-width="2" stroke-linecap="round" stroke-linejoin="round"/>
<path d="M22 10.5C22 8.28649 21.889 6.2244 21.6976 4.49324C21.5996 3.60654 20.8902 2.92132 20.002 2.83797C17.7312 2.62488 14.9735 2.5 12 2.5C9.02653 2.5 6.26878 2.62488 3.99796 2.83797C3.10975 2.92132 2.40035 3.60654 2.30236 4.49324C2.11103 6.2244 2 8.28649 2 10.5C2 12.7135 2.11103 14.7756 2.30236 16.5068C2.40035 17.3935 3.10939 18.0786 3.99759 18.162C6.14067 18.3631 8.71747 18.4857 11.5 18.4988L14.795 21.3242C14.9273 21.4376 15.0958 21.5 15.2701 21.5C15.6732 21.5 16 21.1732 16 20.7701V18.4219C17.4449 18.364 18.7926 18.2755 20.0022 18.162C20.8904 18.0787 21.5996 17.3935 21.6976 16.5068C21.889 14.7756 22 12.7135 22 10.5Z" stroke="#141B34" stroke-width="1.5" stroke-linecap="round" stroke-linejoin="round"/>
</svg>
