<svg width="24" height="24" viewBox="0 0 24 24" fill="none" xmlns="http://www.w3.org/2000/svg">
<path d="M12 3C9.02653 3 6.26878 3.12488 3.99796 3.33797C3.10975 3.42132 2.40035 4.10654 2.30236 4.99324C2.11103 6.7244 2 8.78649 2 11C2 13.2135 2.11103 15.2756 2.30236 17.0068C2.40035 17.8935 3.10963 18.5787 3.99783 18.662C5.2074 18.7755 6.55512 18.864 8 18.9219V21.2701C8 21.6732 8.32679 22 8.72991 22C8.90419 22 9.07273 21.9376 9.20503 21.8242L12.5 18.9988C15.2825 18.9857 17.8593 18.8631 20.0024 18.662C20.8906 18.5786 21.5996 17.8935 21.6976 17.0068C21.889 15.2756 22 13.2135 22 11C22 10.6629 21.9974 10.3294 21.9924 10" stroke="#141B34" stroke-width="1.5" stroke-linecap="round" stroke-linejoin="round"/>
<path d="M12.0045 11H12.0135M8.00903 11H8.018" stroke="#141B34" stroke-width="2" stroke-linecap="round" stroke-linejoin="round"/>
<path d="M18.4693 2.02506C18.4761 1.99165 18.5239 1.99165 18.5307 2.02506C18.8852 3.75942 20.2406 5.11481 21.9749 5.4693C22.0084 5.47613 22.0084 5.52387 21.9749 5.5307C20.2406 5.88519 18.8852 7.24058 18.5307 8.97494C18.5239 9.00835 18.4761 9.00835 18.4693 8.97494C18.1148 7.24058 16.7594 5.88519 15.0251 5.5307C14.9916 5.52387 14.9916 5.47613 15.0251 5.4693C16.7594 5.11481 18.1148 3.75942 18.4693 2.02506Z" stroke="#141B34" stroke-width="1.5" stroke-linecap="round" stroke-linejoin="round"/>
</svg>
