<svg width="24" height="24" viewBox="0 0 24 24" fill="none" xmlns="http://www.w3.org/2000/svg">
<path d="M2 10.5C2 8.28649 2.11103 6.2244 2.30236 4.49324C2.40035 3.60654 3.10975 2.92132 3.99796 2.83797C6.26878 2.62488 9.02653 2.5 12 2.5C14.9735 2.5 17.7312 2.62488 20.002 2.83797C20.8902 2.92132 21.5996 3.60654 21.6976 4.49324C21.889 6.2244 22 8.28649 22 10.5C22 12.7135 21.889 14.7756 21.6976 16.5068C21.5996 17.3935 20.8906 18.0786 20.0024 18.162C17.8593 18.3631 15.2825 18.4857 12.5 18.4988L9.20503 21.3242C9.07273 21.4376 8.90419 21.5 8.72991 21.5C8.32679 21.5 8 21.1732 8 20.7701V18.4219C6.55512 18.364 5.2074 18.2755 3.99783 18.162C3.10963 18.0787 2.40035 17.3935 2.30236 16.5068C2.11103 14.7756 2 12.7135 2 10.5Z" stroke="#141B34" stroke-width="1.5" stroke-linecap="round" stroke-linejoin="round"/>
<path d="M11.9649 6.52864C11.9727 6.49045 12.0273 6.49045 12.0351 6.52864C12.4402 8.51077 13.9892 10.0598 15.9714 10.4649C16.0095 10.4727 16.0095 10.5273 15.9714 10.5351C13.9892 10.9402 12.4402 12.4892 12.0351 14.4714C12.0273 14.5095 11.9727 14.5095 11.9649 14.4714C11.5598 12.4892 10.0108 10.9402 8.02864 10.5351C7.99045 10.5273 7.99045 10.4727 8.02864 10.4649C10.0108 10.0598 11.5598 8.51077 11.9649 6.52864Z" stroke="#141B34" stroke-width="1.5" stroke-linejoin="round"/>
</svg>
