<svg width="24" height="24" viewBox="0 0 24 24" fill="none" xmlns="http://www.w3.org/2000/svg">
<path d="M11.3598 2.53349L9 4.5L5.5 4.5C4.94772 4.5 4.5 4.94772 4.5 5.5L4.5 9L2.53349 11.3598C2.22445 11.7307 2.22445 12.2693 2.53349 12.6402L4.5 15L4.5 18.5C4.5 19.0523 4.94772 19.5 5.5 19.5L9 19.5L11.3598 21.4665C11.7307 21.7756 12.2693 21.7756 12.6402 21.4665L15 19.5H18.5C19.0523 19.5 19.5 19.0523 19.5 18.5L19.5 15L21.4665 12.6402C21.7756 12.2693 21.7756 11.7307 21.4665 11.3598L19.5 9L19.5 5.5C19.5 4.94772 19.0523 4.5 18.5 4.5L15 4.5L12.6402 2.53349C12.2693 2.22445 11.7307 2.22445 11.3598 2.53349Z" stroke="#141B34" stroke-width="1.5" stroke-linejoin="round"/>
<path d="M14.0842 10.5156C13.6532 9.9689 13.5452 9.35684 13.6835 8.7967C13.8549 8.1029 14.4535 7.83956 15.1169 8.09665C15.9467 8.4182 16.0867 9.52713 15.2844 9.91288C14.9102 10.0928 14.5042 10.2953 14.0842 10.5156ZM14.0842 10.5156C13.5515 10.7949 12.5 11.5 12.5 11.5L17 12C14.8788 12.3047 11 13 12 16C10.5 15 10.3034 14.3322 10.1872 13M10.1872 13C10.1145 12.1662 10.1819 11.2904 10.1819 9.60151M10.1872 13C10 14 8.09092 14.9625 7 13.5" stroke="#141B34" stroke-width="1.5" stroke-linecap="round" stroke-linejoin="round"/>
</svg>
