<svg width="24" height="24" viewBox="0 0 24 24" fill="none" xmlns="http://www.w3.org/2000/svg">
<path d="M21.1746 17.9848L12.8742 3.0439C12.4931 2.35809 11.5068 2.35809 11.1258 3.0439L2.82536 17.9848C2.45506 18.6513 2.93703 19.4704 3.69951 19.4704H20.3005C21.063 19.4704 21.5449 18.6513 21.1746 17.9848Z" stroke="#141B34" stroke-width="1.5" stroke-linejoin="round"/>
<path d="M12 19.4705V21.4705" stroke="#141B34" stroke-width="1.5" stroke-linecap="round" stroke-linejoin="round"/>
<path d="M19 8.97046L17 10.4705" stroke="#141B34" stroke-width="1.5" stroke-linecap="round" stroke-linejoin="round"/>
<path d="M5 8.97046L7 10.4705" stroke="#141B34" stroke-width="1.5" stroke-linecap="round" stroke-linejoin="round"/>
<path d="M9 19.4705C9 16.709 7.20914 14.4705 5 14.4705" stroke="#141B34" stroke-width="1.5" stroke-linejoin="round"/>
<path d="M19 14.4705C16.7909 14.4705 15 16.709 15 19.4705" stroke="#141B34" stroke-width="1.5" stroke-linejoin="round"/>
<path d="M15 6.47046C13.3431 7.80379 10.6569 7.80379 9 6.47046" stroke="#141B34" stroke-width="1.5" stroke-linejoin="round"/>
</svg>
