<?xml version="1.0" standalone="no"?>
<!DOCTYPE svg PUBLIC "-//W3C//DTD SVG 1.1//EN" "http://www.w3.org/Graphics/SVG/1.1/DTD/svg11.dtd" >
<svg xmlns="http://www.w3.org/2000/svg" xmlns:xlink="http://www.w3.org/1999/xlink" version="1.1">
<metadata>
Created by FontForge 20170731 at Wed Jan  1 12:50:50 2020
 By Aleksey,,,
Digitized data copyright (c) 2015-2016 by Hussain KH, Kavya Manohar, Rajeesh K Nambiar, Santhosh Thottingal, Swathanthra Malayalam Computing (http://smc.org.in)
</metadata>
<defs>
<font id="Keraleeyam-Regular" horiz-adv-x="1502" >
  <font-face 
    font-family="Keraleeyam"
    font-weight="400"
    font-stretch="normal"
    units-per-em="2048"
    panose-1="2 11 8 3 0 0 0 0 0 0"
    ascent="1304"
    descent="-744"
    x-height="899"
    cap-height="1284"
    bbox="-819 -800 3084 1533"
    underline-thickness="20"
    underline-position="-743"
    unicode-range="U+000C-F000"
  />
<missing-glyph horiz-adv-x="602" 
d="M92 884v-838h374v838h-374zM512 0h-466v932h466v-932z" />
    <glyph glyph-name=".notdef" horiz-adv-x="602" 
d="M92 884v-838h374v838h-374zM512 0h-466v932h466v-932z" />
    <glyph glyph-name=".null" horiz-adv-x="0" 
 />
    <glyph glyph-name="nonmarkingreturn" unicode="&#xd;" horiz-adv-x="466" 
 />
    <glyph glyph-name="NULL" horiz-adv-x="0" 
 />
    <glyph glyph-name="NULL" horiz-adv-x="0" 
 />
    <glyph glyph-name="CR.001" horiz-adv-x="682" 
 />
    <glyph glyph-name="space" unicode=" " horiz-adv-x="566" 
 />
    <glyph glyph-name="exclam" unicode="!" horiz-adv-x="279" 
d="M276 1284l-18 -891h-186l-17 891h221zM269 2h-206v231h206v-231z" />
    <glyph glyph-name="quotedbl" unicode="&#x22;" horiz-adv-x="486" 
d="M486 823h-156v481h156v-481zM208 823h-154v481h154v-481z" />
    <glyph glyph-name="numbersign" unicode="#" horiz-adv-x="1074" 
d="M54 368l3 184h210l20 234h-199v188h213l23 278h161l-23 -278h265l21 278h163l-21 -278h184v-188h-200l-16 -234h182v-184h-198l-23 -324h-163l23 324h-263l-23 -324h-165l25 324h-199zM713 786h-263l-20 -234h265z" />
    <glyph glyph-name="dollar" unicode="$" horiz-adv-x="826" 
d="M298 547q-242 77 -242 307q0 126 87.5 209.5t242.5 103.5v120h124v-116q150 -3 271 -54v-177q-121 57 -271 59v-316q179 -66 245.5 -136t66.5 -207q0 -194 -174 -294q-58 -34 -138 -50v-199h-124v185h-32q-155 0 -283 32v195q119 -34 256 -34h28l31 2v342l-86 28h-2z
M386 989q-127 -31 -127 -133q0 -71 77 -111q23 -12 50 -22v266zM510 200q100 41 100 138q0 46 -22 77t-78 59v-274z" />
    <glyph glyph-name="percent" unicode="%" horiz-adv-x="868" 
d="M435 896q0 -55 -11 -104t-34.5 -86t-59.5 -58.5t-86 -21.5t-85.5 21.5t-58.5 58.5t-33.5 86t-10.5 104t11 104t34 85t59.5 57t86.5 21t86 -21t58.5 -57.5t33 -85t10.5 -103.5zM868 246q0 -55 -11 -104t-34.5 -85.5t-59.5 -58t-86 -21.5t-85.5 21.5t-58.5 58t-33.5 85.5
t-10.5 104t11 104t34 85t59.5 57t86.5 21t86 -21t58.5 -57t33 -85t10.5 -104zM689 881l-520 -908l-80 62l520 909zM244 729q79 0 79 164.5t-79 164.5t-79 -164.5t79 -164.5zM679 80q78 0 78 165t-79 165t-79 -163q-1 -127 49 -158q14 -9 31 -9z" />
    <glyph glyph-name="ampersand" unicode="&#x26;" horiz-adv-x="964" 
d="M457 629q-216 0 -216 -231q0 -120 58.5 -167t164 -47t150.5 21t67.5 69.5t22.5 154.5v309h260v-170h-98v-137q0 -244 -88 -346.5t-288 -102.5t-304 66q-138 86 -137 293q0 279 184 366q-68 43 -92 84q-45 76 -45 174q0 176 90.5 258t222 82t231.5 -52v-171
q-86 48 -180 48q-136 0 -182 -85q-16 -31 -16 -74q0 -85 41.5 -119t147.5 -34h138v-189h-132z" />
    <glyph glyph-name="quotesingle" unicode="'" horiz-adv-x="230" 
d="M228 823h-174v481h174v-481z" />
    <glyph glyph-name="parenleft" unicode="(" horiz-adv-x="472" 
d="M64 435q0 515 207 869h199q-156 -278 -200 -658q-13 -112 -13 -214q0 -216 57.5 -457t155.5 -418h-199q-141 234 -189 593q-18 132 -18 285z" />
    <glyph glyph-name="parenright" unicode=")" horiz-adv-x="472" 
d="M263 1304q207 -354 207 -879.5t-207 -867.5h-199q152 273 200 658q14 115 14 217q0 215 -55 450.5t-159 421.5h199z" />
    <glyph glyph-name="asterisk" unicode="*" horiz-adv-x="739" 
d="M742 1007l-201 -84l-48 149l213 50zM476 1084h-156l19 220h121zM654 710l-98 -71l-144 165l127 94zM305 1072l-50 -149l-201 84l40 113zM389 804l-142 -165l-99 71l113 184z" />
    <glyph glyph-name="plus" unicode="+" horiz-adv-x="826" 
d="M826 367h-283v-337h-174v337h-311v174h311v338h174v-338h283v-174z" />
    <glyph glyph-name="comma" unicode="," horiz-adv-x="379" 
d="M378 71l-131 -469h-193l122 469h202z" />
    <glyph glyph-name="hyphen" unicode="-" horiz-adv-x="593" 
d="M593 272h-538v168h538v-168z" />
    <glyph glyph-name="period" unicode="." horiz-adv-x="266" 
d="M270 -7h-216v266h216v-266z" />
    <glyph glyph-name="slash" unicode="/" horiz-adv-x="646" 
d="M667 1280l-448 -1561h-166l446 1561h168z" />
    <glyph glyph-name="zero" unicode="0" horiz-adv-x="928" 
d="M814.5 143q-105.5 -163 -309.5 -163t-307 163.5t-103 430.5q0 414 230 544q78 44 234.5 44t258.5 -160t102 -428t-105.5 -431zM725 574q0 212 -57 312.5t-161 100.5t-164.5 -100.5t-60.5 -311.5t61.5 -317.5t165 -106.5t160 105.5t56.5 317.5z" />
    <glyph glyph-name="one" unicode="1" horiz-adv-x="482" 
d="M483 -2h-168v959l-221 -87v181l221 94h168v-1147z" />
    <glyph glyph-name="two" unicode="2" horiz-adv-x="793" 
d="M97 1101q116 58 279.5 58t275 -87.5t111.5 -252.5q-1 -199 -189 -411q-32 -36 -64 -69l-163 -163h448v-175h-698v169q23 23 55.5 54.5t225.5 229.5t193 356q0 100 -81 144q-62 34 -160 34.5t-233 -63.5v176z" />
    <glyph glyph-name="three" unicode="3" horiz-adv-x="824" 
d="M537 680q285 -44 285 -327q0 -72 -31 -144t-89 -123q-121 -107 -320 -107q-152 0 -286 47v191q162 -50 275 -50q263 0 263 211q0 160 -246 160q-41 0 -90 -9v134l230 307h-414v177h650v-174z" />
    <glyph glyph-name="four" unicode="4" horiz-adv-x="883" 
d="M883 229h-112v-228h-181v228h-493v163l458 751h216v-730h112v-184zM590 413v514l-295 -514h295z" />
    <glyph glyph-name="five" unicode="5" horiz-adv-x="795" 
d="M296 703q80 16 150.5 16t140 -27.5t115.5 -74.5q92 -94 92 -243q0 -186 -121 -290t-345 -104q-96 0 -232 38v192q132 -38 234 -38q279 0 279 196q0 177 -241 177q-104 0 -192 -37l-67 101l72 537h546v-181h-393z" />
    <glyph glyph-name="six" unicode="6" horiz-adv-x="847" 
d="M752 983q-58 6 -112 6t-118 -26q-193 -78 -253 -353q70 70 126 95.5t123 25.5q143 0 236.5 -95t93.5 -274t-110.5 -281t-261.5 -102q-190 0 -284 128q-95 127 -95 403t141 454q158 200 453 200h27l34 -2v-179zM470 157q197 0 197 203t-197 199q-91 0 -138 -45.5
t-47 -151.5q-1 -164 107 -195q34 -10 78 -10z" />
    <glyph glyph-name="seven" unicode="7" horiz-adv-x="769" 
d="M765 988l-394 -987h-191l376 968h-459v177h668v-158z" />
    <glyph glyph-name="eight" unicode="8" horiz-adv-x="852" 
d="M846 397q10 -43 9 -194.5t-197.5 -198.5t-333 -4t-198.5 165q-31 61 -31 151q0 193 186 295q-78 56 -106.5 120t-28.5 137t26 127.5t94 111t209 56.5q142 0 236 -78t94 -214q0 -76 -28.5 -140t-106.5 -120q147 -82 176 -214zM628.5 790.5q13.5 29.5 13.5 70t-14 68.5
t-48 54.5t-104 26.5t-119 -37.5t-49 -110.5q0 -108 105 -158q30 -14 63 -25q77 26 108 54t44.5 57.5zM659 242q16 34 16 82q0 84 -63 136q-35 28 -136 66q-103 -40 -134 -65q-66 -52 -66 -139.5t57 -134t143 -46.5q136 -1 183 101z" />
    <glyph glyph-name="nine" unicode="9" horiz-adv-x="844" 
d="M467 1163q375 0 375 -483t-324 -633q-112 -52 -268 -52h-26l-33 2v178q48 -5 86 -5q319 0 396 357q-71 -71 -126 -96.5t-122 -25.5q-145 0 -237.5 97.5t-92.5 276t109.5 281.5t262.5 103zM463 576q188 0 188 203q0 164 -110 195q-35 10 -78 10q-195 0 -195 -204t195 -204
z" />
    <glyph glyph-name="colon" unicode=":" horiz-adv-x="271" 
d="M274 541h-216v258h216v-258zM274 62h-216v257h216v-257z" />
    <glyph glyph-name="semicolon" unicode=";" horiz-adv-x="381" 
d="M380 191h-216v248h216v-248zM378 71l-131 -469h-193l122 469h202z" />
    <glyph glyph-name="less" unicode="&#x3c;" horiz-adv-x="605" 
d="M605 25l-551 316v230l551 314v-200l-375 -231l375 -226v-203z" />
    <glyph glyph-name="equal" unicode="=" horiz-adv-x="711" 
d="M711 479h-657v180h657v-180zM711 146h-657v187h657v-187z" />
    <glyph glyph-name="greater" unicode="&#x3e;" horiz-adv-x="605" 
d="M605 341l-551 -326v203l375 236l-375 241v200l551 -324v-230z" />
    <glyph glyph-name="question" unicode="?" horiz-adv-x="754" 
d="M54 1256q142 50 262 50q220 0 328 -106.5t108 -287.5q0 -129 -70.5 -225t-155.5 -126l-18 -10l-16 -15l-13 -24l-5 -36v-161h-196v236q0 123 61 153q15 8 57 23t86.5 63.5t44.5 104.5q0 96 -70 145t-180.5 49t-222.5 -40v207zM476 -17h-207v218h207v-218z" />
    <glyph glyph-name="at" unicode="@" horiz-adv-x="1512" 
d="M915 201q-73 -124 -261 -124q-52 -1 -98 25q-130 70 -130 268q0 239 124 400t341 161q119 0 220 -30l-72 -517q-3 -21 -3 -50q0 -75 69 -75q167 -1 236 257q25 93 25 191q0 203 -117.5 318.5t-329.5 115.5q-313 0 -508.5 -203t-195.5 -516q0 -234 147.5 -387t383.5 -153
q133 0 257 58l49 -142q-160 -76 -318 -76q-303 0 -488.5 197.5t-185.5 493.5q0 388 245 641t637 253q265 0 417.5 -167t152.5 -440q0 -222 -103 -390t-279 -212q-34 -8 -68 -8q-117 0 -147 111zM596 425q0 -174 138 -174q60 0 101.5 30t49.5 92l51 374q-33 10 -86.5 10
t-104.5 -28.5t-84 -74.5q-65 -92 -65 -229z" />
    <glyph glyph-name="A" unicode="A" horiz-adv-x="1114" 
d="M1114 0h-218l-72 278h-440l-74 -278h-210l380 1284h258zM771 473l-171 636l-167 -636h338z" />
    <glyph glyph-name="B" unicode="B" horiz-adv-x="902" 
d="M876 494q24 -60 24 -173.5t-68 -194.5q-103 -125 -373 -126h-362v1284h325q286 0 366 -170q29 -62 29 -164t-49.5 -180.5t-126.5 -90.5q170 -19 235 -185zM609 841.5q17 33.5 17 85.5q0 95 -52.5 127t-157.5 32h-125v-333h123q97 0 137.5 27.5t57.5 61zM635 515.5
q-57 42.5 -161 42.5h-183v-356h168q118 0 157 20q76 40 76 145.5t-57 148z" />
    <glyph glyph-name="C" unicode="C" horiz-adv-x="857" 
d="M493 202q66 -23 168 -23t193 29v-193q-115 -37 -240 -37q-251 0 -384 176t-133 494q1 490 297 617q96 41 223 41t223 -37v-191q-90 27 -188.5 27t-162 -21t-107 -73t-66 -140.5t-22.5 -222.5t22 -224t66.5 -144.5t110.5 -77.5z" />
    <glyph glyph-name="D" unicode="D" horiz-adv-x="961" 
d="M828.5 146q-129.5 -146 -422.5 -146h-309v1282h313q284 0 416 -162.5t132 -495t-129.5 -478.5zM658 992.5q-88 93.5 -282 93.5h-80v-884h77q199 0 286 92.5t87 348.5t-88 349.5z" />
    <glyph glyph-name="E" unicode="E" horiz-adv-x="800" 
d="M798 0h-702v1284h702v-196h-503v-325h443v-205h-443v-356h503v-202z" />
    <glyph glyph-name="F" unicode="F" horiz-adv-x="800" 
d="M798 1088h-503v-355h443v-205h-443v-526l-199 -2v1284h702v-196z" />
    <glyph glyph-name="G" unicode="G" horiz-adv-x="932" 
d="M496 193.5q57 -14.5 147.5 -13t90.5 58.5v258h-128v186h328q-2 -266 -2 -528q0 -47 -24 -82q-45 -65 -92 -75q-86 -17 -252 -17q-166 -1 -277 89q-112 90 -153.5 233.5t-41.5 333t49 338.5q49 148 164 238t287 90t272 -47v-189q-117 35 -230 35q-204 0 -283 -133
q-61 -102 -61 -294t14 -259t36.5 -109t60.5 -70.5t95 -43z" />
    <glyph glyph-name="H" unicode="H" horiz-adv-x="851" 
d="M849 0h-201v564h-350v-564h-201v1284h201v-512h350v512h201v-1284z" />
    <glyph glyph-name="I" unicode="I" horiz-adv-x="296" 
d="M297 0h-201v1284h201v-1284z" />
    <glyph glyph-name="J" unicode="J" horiz-adv-x="602" 
d="M94 208q74 -28 119 -28q87 0 139.5 50.5t52.5 152.5v901h198v-911q0 -184 -94.5 -286.5t-248.5 -102.5q-78 0 -166 28v196z" />
    <glyph glyph-name="K" unicode="K" horiz-adv-x="960" 
d="M961 0h-230l-361 555l-75 -106v-449h-199v1284h199v-543l407 543h228l-409 -571z" />
    <glyph glyph-name="L" unicode="L" horiz-adv-x="696" 
d="M692 0h-597v1284h195v-1076h402v-208z" />
    <glyph glyph-name="M" unicode="M" horiz-adv-x="1160" 
d="M1158 0h-183v1018l-258 -958h-183l-256 958v-1018h-185v1284h296l235 -911l238 911h296v-1284z" />
    <glyph glyph-name="N" unicode="N" horiz-adv-x="947" 
d="M763 309q-6 102 -6 129v846h189v-1284h-243l-423 977l4 -117v-860h-189v1284h232z" />
    <glyph glyph-name="O" unicode="O" horiz-adv-x="1035" 
d="M96 644q0 657 469 657t469 -657q0 -474 -251 -611q-91 -49 -219 -49q-246 0 -362 186q-106 167 -106 474zM828 651q0 241 -57.5 348.5t-203 107.5t-205.5 -107t-60 -349.5t59.5 -354t202 -111.5t203.5 112.5t61 353.5z" />
    <glyph glyph-name="P" unicode="P" horiz-adv-x="881" 
d="M429 1284q453 0 453 -411q0 -341 -240 -426q-87 -31 -213 -31h-134v-416h-199v1284h333zM676 854q0 152 -82 206q-55 36 -183 37h-116v-482h116q129 0 174.5 29t68 77t22.5 133z" />
    <glyph glyph-name="Q" unicode="Q" horiz-adv-x="1141" 
d="M564 -16q-468 0 -468 655.5t469 655.5t469 -657q0 -245 -67 -400l183 -52l-95 -184l-180 97q-113 -115 -311 -115zM774 307q54 106 54 342.5t-57.5 344t-203 107.5t-205.5 -107t-60 -349.5t59.5 -351t202.5 -108.5q70 0 120 26l-112 58l40 83z" />
    <glyph glyph-name="R" unicode="R" horiz-adv-x="904" 
d="M894 887q0 -307 -247 -375l276 -512h-232l-249 475h-149v-475h-199v1284h350q322 0 416 -206q34 -76 34 -191zM604 1070q-51 26 -179 27h-132v-420h132q131 1 175 23q90 47 88.5 187t-84.5 183z" />
    <glyph glyph-name="S" unicode="S" horiz-adv-x="874" 
d="M111 262q92 -72 279 -72q254 0 254 182q0 82 -73 132q-47 32 -167 77t-166 75q-144 93 -143 311q0 159 116 251t307 92q129 0 189.5 -20.5t98.5 -41.5v-212q-90 78 -259 78q-239 0 -239 -149q0 -94 106 -139q30 -13 99 -40q187 -74 271 -157.5t84 -258t-115.5 -282.5
t-334.5 -108q-153 0 -210 19t-97 40v223z" />
    <glyph glyph-name="T" unicode="T" horiz-adv-x="936" 
d="M935 1076h-315v-1076h-210v1076h-317v208h842v-208z" />
    <glyph glyph-name="U" unicode="U" horiz-adv-x="955" 
d="M956 529q0 -273 -85 -401q-100 -152 -346 -152q-353 0 -413 327q-18 102 -19 226v754h203v-752q0 -189 46 -266t182 -77t182 77q45 77 45 266v752h205v-754z" />
    <glyph glyph-name="V" unicode="V" horiz-adv-x="1064" 
d="M1067 1284l-371 -1284h-237l-370 1284h215l280 -1022l271 1022h212z" />
    <glyph glyph-name="W" unicode="W" horiz-adv-x="1259" 
d="M1258 1284l-50 -1284h-276l-258 840l-255 -840h-276l-50 1284h185l50 -1019l256 909h183l258 -909l50 1019h183z" />
    <glyph glyph-name="X" unicode="X" horiz-adv-x="1098" 
d="M1113 0h-233l-283 490l-283 -490h-233l399 692l-342 592h233l234 -410l235 410h223l-350 -592z" />
    <glyph glyph-name="Y" unicode="Y" horiz-adv-x="1039" 
d="M1043 1284l-375 -809v-475h-201v475l-378 809h207l280 -630l275 630h192z" />
    <glyph glyph-name="Z" unicode="Z" horiz-adv-x="807" 
d="M809 0h-714l-2 209l488 877h-467v198h692v-218l-500 -877h503v-189z" />
    <glyph glyph-name="bracketleft" unicode="[" horiz-adv-x="484" 
d="M484 -441h-387v1742h387v-189h-192v-1365h192v-188z" />
    <glyph glyph-name="backslash" unicode="\" horiz-adv-x="646" 
d="M657 -281h-166l-448 1561h168z" />
    <glyph glyph-name="bracketright" unicode="]" horiz-adv-x="484" 
d="M483 -441h-387v188h192v1365h-192v189h387v-1742z" />
    <glyph glyph-name="asciicircum" unicode="^" horiz-adv-x="819" 
d="M827 632h-192l-200 442l-188 -444q-55 0 -98 1t-95 1l289 650h200z" />
    <glyph glyph-name="underscore" unicode="_" horiz-adv-x="793" 
d="M795 -257h-741v168h741v-168z" />
    <glyph glyph-name="grave" unicode="`" horiz-adv-x="302" 
d="M298 823h-114l-140 481h224z" />
    <glyph glyph-name="a" unicode="a" horiz-adv-x="767" 
d="M117 882q121 44 233 44q212 0 312.5 -84.5t100.5 -281.5v-567h-191l-4 80q-61 -93 -215 -93q-209 0 -277 152q-26 56 -26 146q0 296 399 295q70 0 119 -7v34q0 150 -219 150q-89 0 -232 -56v188zM480 428q-244 0 -244 -150q0 -100 90 -116q31 -6 73 -5q129 0 169 81v184
q-38 6 -88 6z" />
    <glyph glyph-name="b" unicode="b" horiz-adv-x="844" 
d="M240 802q63 128 236 128q262 0 340 -256q26 -86 26 -196q0 -222 -99.5 -360t-284.5 -138q-151 0 -224 93l-6 -80h-176v1289h188v-480zM414 182q228 0 228 282q0 135 -48.5 204.5t-173.5 69.5t-166 -114q-14 -40 -14 -95v-282q65 -65 174 -65z" />
    <glyph glyph-name="c" unicode="c" horiz-adv-x="702" 
d="M498 165q113 0 203 42v-192q-102 -35 -218 -35q-215 0 -321 129.5t-106 342.5t109 344.5t313 131.5q106 0 213 -38v-182q-89 38 -164 38q-143 0 -211 -71.5t-68 -223.5q0 -286 250 -286z" />
    <glyph glyph-name="d" unicode="d" horiz-adv-x="852" 
d="M426 930q176 0 236 -128v493h190v-1302h-177l-9 105q-77 -126 -245.5 -126t-264 128t-95.5 364q-1 349 215 438q68 28 150 28zM662 272v257q0 158 -114 197q-34 12 -76 12q-114 0 -162 -70q-48 -68 -48 -174t16 -160q47 -151 205 -152q53 0 103 22t76 68z" />
    <glyph glyph-name="e" unicode="e" horiz-adv-x="850" 
d="M789 27q-127 -47 -266 -47q-249 0 -359 125.5t-110 342.5t109 348.5t293.5 131.5t285.5 -121t101 -310q0 -72 -6 -110h-585q0 -188 180 -219q52 -9 106 -9q129 0 251 52v-184zM659 541q0 96 -57 151.5t-144.5 55.5t-146.5 -54t-59 -153h407z" />
    <glyph glyph-name="f" unicode="f" horiz-adv-x="645" 
d="M568 1119q-177 0 -177 -171v-45h214v-173h-214v-726h-185v726h-151v173h151v52q0 163 88 255t230 92q66 0 122 -12v-183q-38 12 -78 12z" />
    <glyph glyph-name="g" unicode="g" horiz-adv-x="946" 
d="M734 840q99 7 217 84v-197q-53 -32 -137 -39q10 -32 10 -90q0 -130 -97.5 -218.5t-263.5 -88.5q-63 0 -143 18q-60 -40 -60 -83.5t18 -56.5q34 -25 97.5 -25.5t225 -3t238.5 -71t77 -189.5q0 -147 -139 -236.5t-350 -89.5q-372 0 -372 232q0 133 140 223q-88 59 -88 156
q0 66 28.5 109.5t80.5 82.5q-121 91 -121 241.5t100 241t268.5 90.5t270.5 -90zM630 610q0 165 -168.5 165t-168.5 -166t172 -166q89 0 127 44.5t38 122.5zM425 -275q211 -1 271 81q19 26 19 63t-29 65t-109 30l-186 4q-123 3 -147 -77q-6 -23 -7 -51q0 -60 53.5 -87.5
t134.5 -27.5z" />
    <glyph glyph-name="h" unicode="h" horiz-adv-x="814" 
d="M248 782q89 140 251 140q213 0 283 -206q26 -74 26 -183v-533h-192v535q0 212 -177 212q-90 0 -140.5 -51.5t-50.5 -160.5v-535h-187v1284h187v-502z" />
    <glyph glyph-name="i" unicode="i" horiz-adv-x="253" 
d="M252 1026h-191v195h191v-195zM252 0h-191v906h191v-906z" />
    <glyph glyph-name="j" unicode="j" horiz-adv-x="497" 
d="M498 1014h-199v204h199v-204zM325 -332q-57 -18 -119.5 -18t-148.5 13v169q139 -18 177.5 2.5t53.5 61t15 115.5v894h195v-937q0 -245 -173 -300z" />
    <glyph glyph-name="k" unicode="k" horiz-adv-x="752" 
d="M767 0h-202l-231 375l-93 -120v-255h-187v1284h187v-770l321 385h182l-278 -388z" />
    <glyph glyph-name="l" unicode="l" horiz-adv-x="262" 
d="M260 0h-199v1284h199v-1284z" />
    <glyph glyph-name="m" unicode="m" horiz-adv-x="1264" 
d="M993 931q268 0 268 -371v-560h-186v544q0 105 -35 160.5t-115 55.5t-118 -35q-55 -50 -55 -181v-544h-187v544q0 112 -35 164t-116 52q-82 0 -126 -45.5t-44 -170.5v-544h-187v910h175l8 -150q23 79 90.5 125t154.5 46q188 0 245 -186q64 186 263 186z" />
    <glyph glyph-name="n" unicode="n" horiz-adv-x="800" 
d="M611 543q0 212 -177 212q-90 0 -140.5 -51.5t-50.5 -160.5v-543h-187v901h185l-2 -144q22 83 92 129t150 46q316 0 316 -375v-557h-186v543z" />
    <glyph glyph-name="o" unicode="o" horiz-adv-x="830" 
d="M726.5 112.5q-96.5 -129.5 -285.5 -129.5t-287 129t-98 345q0 335 215 439q71 34 169 34q188 0 285.5 -128.5t97.5 -344t-96.5 -345zM587.5 235.5q44.5 75.5 44.5 187.5t-11 166.5t-34 89.5q-44 67 -145 67t-146 -67.5t-45 -217.5t45.5 -225.5t146 -75.5t145 75.5z" />
    <glyph glyph-name="p" unicode="p" horiz-adv-x="842" 
d="M241 804q63 128 236 128q263 0 340 -260q26 -88 26 -206q0 -236 -95 -362t-261.5 -126t-245.5 126v-529h-188v1336h184zM241 278q58 -92 182 -92q158 0 205 148q17 54 17 160t-48.5 174.5t-173.5 68.5t-167 -113q-14 -39 -15 -93v-253z" />
    <glyph glyph-name="q" unicode="q" horiz-adv-x="845" 
d="M658 108q-74 -126 -243 -126t-264 124.5t-95 357.5t97 350.5t269.5 117.5t235.5 -128l4 107h184v-1334h-188v531zM658 531q0 206 -200 206q-103 0 -152 -66.5t-49 -204.5q0 -276 221 -276q122 0 180 92v249z" />
    <glyph glyph-name="r" unicode="r" horiz-adv-x="559" 
d="M444 924q36 8 62 8t53 -5v-196q-30 8 -74 8q-95 0 -161 -55.5t-66 -155.5v-526h-199v906h193l8 -123q51 112 184 139z" />
    <glyph glyph-name="s" unicode="s" horiz-adv-x="656" 
d="M61 636q1 204 207 270q64 20 172.5 20t192.5 -42v-173q-80 49 -125 53.5t-95 4.5t-106 -27q-57 -26 -57 -70t32 -65q51 -31 139.5 -55t124.5 -50q110 -76 110 -210t-97 -223t-269 -89q-120 0 -217 31v183q96 -37 213 -37t167 55q19 20 19 59t-39.5 64t-160.5 61t-166 99
t-45 141z" />
    <glyph glyph-name="t" unicode="t" horiz-adv-x="645" 
d="M569 162q40 0 78 12v-182q-57 -12 -123 -12q-141 0 -229 91.5t-88 255.5v406h-151v173h151v378h185v-378h214v-173h-214v-400q0 -171 177 -171z" />
    <glyph glyph-name="u" unicode="u" horiz-adv-x="788" 
d="M421 155q178 0 178 215v540h190v-910h-188v144q-49 -164 -267 -164t-264 206q-16 68 -15 161v563h190v-540q0 -110 42 -162.5t134 -52.5z" />
    <glyph glyph-name="v" unicode="v" horiz-adv-x="844" 
d="M847 899l-304 -899h-199l-298 899h194l211 -652l210 652h186z" />
    <glyph glyph-name="w" unicode="w" horiz-adv-x="1127" 
d="M1137 899l-204 -899h-199l-149 530l-152 -530h-199l-198 899h184l121 -602l153 507h188l159 -507l110 602h186z" />
    <glyph glyph-name="x" unicode="x" horiz-adv-x="827" 
d="M820 909l-273 -450l264 -459h-195l-181 312l-181 -312h-195l279 480l-250 429h196l172 -293l170 293h194z" />
    <glyph glyph-name="y" unicode="y" horiz-adv-x="920" 
d="M358 -432.5q-47 -23.5 -115 -23.5t-134 16v163q114 -33 176 4t91 140l36 126l-359 912h217l228 -708l221 708h209l-393 -1058q-24 -64 -45.5 -119.5t-53 -96t-78.5 -64z" />
    <glyph glyph-name="z" unicode="z" horiz-adv-x="751" 
d="M751 0h-691v173l475 557h-455v169h671v-173l-475 -557h475v-169z" />
    <glyph glyph-name="braceleft" unicode="{" horiz-adv-x="626" 
d="M625 -288q-218 0 -297 90t-79 299v95q0 143 -20.5 192.5t-53.5 73.5t-91 25v46q144 -1 160 177q4 52 5 109v97q0 208 79 300t297 91v-201q-119 0 -155 -57q-28 -43 -27 -179v-85q0 -127 -22.5 -175t-45 -68t-52.5 -32q93 -43 113 -161q8 -45 7 -109v-93q0 -137 23 -173
t59.5 -50t99.5 -14v-198z" />
    <glyph glyph-name="bar" unicode="|" horiz-adv-x="295" 
d="M293 -282h-199v1582h199v-1582z" />
    <glyph glyph-name="braceright" unicode="}" horiz-adv-x="637" 
d="M635 487q-146 -3 -160 -181q-4 -52 -4 -110v-95q0 -209 -80 -299t-297 -90v198q120 0 151 50t31 187v93q0 123 22.5 169.5t45 66.5t52.5 34q-92 36 -112 162q-8 46 -8 113v85q0 136 -22.5 172t-59 50t-100.5 14v201q217 0 297 -91t80 -300v-97q0 -138 21 -188.5t53.5 -74
t89.5 -23.5v-46z" />
    <glyph glyph-name="asciitilde" unicode="~" horiz-adv-x="837" 
d="M58 1093q92 190 270 190q71 0 122.5 -27t77.5 -39q28 -12 70 -12t74 17.5t83 63.5l84 -18q-74 -204 -241 -204q-65 0 -146 40q-82 41 -136 41t-88 -18t-85 -62z" />
    <glyph glyph-name="exclamdown" unicode="&#xa1;" horiz-adv-x="279" 
d="M269 1053h-206v231h206v-231zM276 2h-221l17 891h186z" />
    <glyph glyph-name="cent" unicode="&#xa2;" horiz-adv-x="702" 
d="M290 15q-234 98 -234 374.5t110 408.5t312 130h8l76 352h152l-81 -372q28 -7 58 -18v-182q-42 19 -94 30l-124 -572q7 -1 13 -1h12q113 0 203 42v-192q-102 -35 -228 -35q-20 0 -40 2l-57 -263h-150zM446 740q-198 -35 -198 -289q0 -165 85 -235z" />
    <glyph glyph-name="sterling" unicode="&#xa3;" horiz-adv-x="884" 
d="M103 82q157 135 157 364v30l-2 29l-4 37h-162v180h134q-17 108 -17 233q1 125 105 239t301 114q134 0 235 -35v-209q-109 43 -225.5 43t-170.5 -68q-38 -49 -38 -136t18 -181h281v-180h-252q6 -36 6 -69q0 -153 -51 -258h465v-215h-780v82z" />
    <glyph glyph-name="currency" unicode="&#xa4;" horiz-adv-x="929" 
d="M806 765q70 -109 70 -207t-66 -202l121 -121l-111 -113l-125 127q-98 -59 -200.5 -59t-204.5 59l-123 -127l-115 115l123 125q-59 94 -59 193t61 206l-125 127l115 115l129 -129q108 55 198.5 55t198.5 -55l127 129l111 -113zM639 709q-59 62 -143 62t-143 -63
q-59 -62 -59 -148t58 -150t144 -64q84 0 143 63t59 151q0 87 -59 149z" />
    <glyph glyph-name="yen" unicode="&#xa5;" horiz-adv-x="1039" 
d="M1043 1284l-277 -599h211v-148h-280l-29 -62v-20h309v-148h-309v-307h-201v307h-308v148h308v20l-29 62h-279v148h210l-280 599h207l280 -630l275 630h192z" />
    <glyph glyph-name="brokenbar" unicode="&#xa6;" horiz-adv-x="295" 
d="M293 597h-199v683h199v-683zM293 -272h-199v682h199v-682z" />
    <glyph glyph-name="section" unicode="&#xa7;" horiz-adv-x="943" 
d="M852 979q-78 111 -263 111q-96 0 -155 -52q-58 -52 -58 -152t115 -168q32 -19 149 -77.5t194 -138.5q98 -101 103 -260q3 -109 -28 -193t-111 -152q66 -95 66 -255t-103 -270q-103 -111 -284.5 -111t-299.5 104v222q81 -111 264 -111q149 0 197 114q16 38 15.5 101
t-50.5 109q-50 47 -184.5 109t-216.5 147q-106 108 -110 267q-3 109 28.5 193.5t111.5 152.5q-66 91 -66 253t103 272t284.5 110.5t298.5 -102.5v-223zM592 33q143 51 143 216t-298 284q-143 -51 -143 -208q0 -91 72 -161.5t226 -130.5z" />
    <glyph glyph-name="dieresis" unicode="&#xa8;" horiz-adv-x="639" 
d="M637 1072h-191v211h191v-211zM240 1072h-191v211h191v-211z" />
    <glyph glyph-name="copyright" unicode="&#xa9;" horiz-adv-x="1434" 
d="M1246 166q-184 -188 -480 -188t-480 188t-184 476t184 476t481 189q295 0 479 -188t184 -476q0 -289 -184 -477zM381 1026q-147 -152 -147 -384q0 -230 148 -383t384 -153q238 0 385 153t147 384t-147 383t-385 152t-385 -152zM737.5 398q49.5 -11 124.5 -11t154 19v-131
q-81 -24 -191 -24q-198 0 -301 99.5t-103 290.5q0 293 232 370q75 25 171 25t182 -24v-129q-82 17 -154 17t-119 -11.5t-78.5 -41t-48 -79.5t-16.5 -127t16 -126t49 -77.5t82.5 -39.5z" />
    <glyph glyph-name="ordfeminine" unicode="&#xaa;" horiz-adv-x="470" 
d="M247 1301q224 0 224 -211v-323h-124l-2 29q-36 -36 -111 -36t-125 40t-50 132q0 175 229 175q29 0 56 -3v8q0 72 -111 72q-53 0 -137 -36v126q72 27 151 27zM198.5 890.5q17.5 -12.5 70.5 -12.5t75 37v90q-8 2 -20 2h-23q-120 0 -120 -72q0 -32 17.5 -44.5z" />
    <glyph glyph-name="guillemotleft" unicode="&#xab;" horiz-adv-x="674" 
d="M675 -14l-311 355v230l311 354v-200l-165 -271l165 -266v-202zM365 -14l-311 355v230l311 354v-200l-165 -271l165 -266v-202z" />
    <glyph glyph-name="logicalnot" unicode="&#xac;" horiz-adv-x="778" 
d="M775 413h-180v247h-543v180h723v-427z" />
    <glyph glyph-name="uni00AD" unicode="&#xad;" horiz-adv-x="593" 
d="M593 272h-538v168h538v-168z" />
    <glyph glyph-name="registered" unicode="&#xae;" horiz-adv-x="1532" 
d="M1246 166q-184 -188 -480 -188t-480 188t-184 476t184 476t481 189q295 0 479 -188t184 -476q0 -289 -184 -477zM381 1026q-147 -152 -147 -384q0 -230 148 -383t384 -153q238 0 385 153t147 384t-147 383t-385 152t-385 -152zM1091 795q0 -194 -186 -239l199 -333h-147
l-182 312h-124v-312h-126v822h246q320 0 320 -250zM960 794q0 97 -64 129q-39 19 -137 19h-108v-294h108q97 0 149 24.5t52 121.5z" />
    <glyph glyph-name="macron" unicode="&#xaf;" horiz-adv-x="793" 
d="M795 1116h-741v168h741v-168z" />
    <glyph glyph-name="degree" unicode="&#xb0;" horiz-adv-x="452" 
d="M399 880q-51 -70 -147 -70t-145 70t-49 178q0 171 108 226q37 19 89 19t89 -19.5t71 -68.5t34 -157t-50 -178zM334 1058q0 149 -82 149t-82 -149q0 -83 25 -118.5t59 -35.5t57 35t23 119z" />
    <glyph glyph-name="plusminus" unicode="&#xb1;" horiz-adv-x="697" 
d="M693 467h-230v-262h-156v262h-230v158h230v261h156v-261h230v-158zM690 38h-605v156h605v-156z" />
    <glyph glyph-name="uni00B2" unicode="&#xb2;" horiz-adv-x="393" 
d="M57 1272q67 31 140.5 31t128.5 -42q54 -43 54 -133t-106 -200q-28 -30 -56 -58h176v-106h-337v95q209 200 209 280q0 59 -88 59q-45 0 -121 -37v111z" />
    <glyph glyph-name="uni00B3" unicode="&#xb3;" horiz-adv-x="407" 
d="M290 1074q114 -30 114 -147q0 -83 -58 -135t-135.5 -52t-156.5 25v116q87 -27 134.5 -27t75 16.5t27.5 60.5q0 56 -93 56q-15 0 -55 -8v83l86 115h-167v108h316v-97z" />
    <glyph glyph-name="acute" unicode="&#xb4;" horiz-adv-x="356" 
d="M418 1304l-240 -341h-124l130 341h234z" />
    <glyph glyph-name="uni00B5" unicode="&#xb5;" horiz-adv-x="807" 
d="M433 155q186 0 186 215v510h190v-533q0 -183 -70 -275t-224 -92q-224 0 -272 164v-563h-188v1329h190v-540q0 -166 114 -204q34 -12 74 -11z" />
    <glyph glyph-name="paragraph" unicode="&#xb6;" horiz-adv-x="985" 
d="M985 1102h-117v-1536h-114v1536h-84v-1536h-156v850h-58q-154 0 -240 81q-114 108 -113 364q-1 339 211 407q64 20 142 21h529v-187z" />
    <glyph glyph-name="periodcentered" unicode="&#xb7;" horiz-adv-x="266" 
d="M270 342h-216v267h216v-267z" />
    <glyph glyph-name="cedilla" unicode="&#xb8;" horiz-adv-x="540" 
d="M313 -188q-89 0 -138 -19l-22 45l84 166l138 7l-61 -116q28 5 76 5t97 -36t49 -103q0 -131 -178 -185q-138 -43 -266 1l38 97q65 -20 103 -20q148 0 148 95q0 63 -68 63z" />
    <glyph glyph-name="uni00B9" unicode="&#xb9;" horiz-adv-x="258" 
d="M257 757h-104v403l-97 -38v112l109 46h92v-523z" />
    <glyph glyph-name="ordmasculine" unicode="&#xba;" horiz-adv-x="505" 
d="M504 1031q0 -121 -56 -196t-164 -75q-110 0 -166 75t-56 196q0 190 124 250q42 20 98 20t97.5 -20.5t82 -74.5t40.5 -175zM190 1031q0 -153 94.5 -153t94.5 153q0 84 -17.5 109t-35 32.5t-54 7.5t-59.5 -32t-23 -117z" />
    <glyph glyph-name="guillemotright" unicode="&#xbb;" horiz-adv-x="674" 
d="M675 341l-311 -355v202l165 266l-165 271v200l311 -354v-230zM365 341l-311 -355v202l165 266l-165 271v200l311 -354v-230z" />
    <glyph glyph-name="onequarter" unicode="&#xbc;" horiz-adv-x="1031" 
d="M1028 154h-74v-151h-120v151h-326v107l303 496h143v-482h74v-121zM307 1150l-1 -753h-108l1 630l-142 -57v118l142 62h108zM769 885l-525 -905l-79 45l525 906zM834 275v339l-195 -339h195z" />
    <glyph glyph-name="onehalf" unicode="&#xbd;" horiz-adv-x="1135" 
d="M691 720q80 38 184.5 38t176.5 -58t73 -165q0 -147 -206 -333q-52 -47 -95 -90h302v-113l-464 5l-1 105q22 22 180.5 168.5t158.5 232.5t-46 111t-110.5 25t-152.5 -42v116zM306 1150l-1 -753h-107l1 630l-142 -57v118l142 62h107zM768 885l-525 -905l-78 45l524 906z
" />
    <glyph glyph-name="threequarters" unicode="&#xbe;" horiz-adv-x="1109" 
d="M1110 146h-75v-150h-119v150h-325v107l302 496h142v-482h75v-121zM410 637q0 107 -163 107q-27 0 -59 -7v89l152 202h-274v117h429v-115l-150 -193q189 -30 189 -206q0 -116 -79 -187t-192 -71t-209 32v127q106 -33 182 -33q174 0 174 138zM878 885l-525 -905l-78 45
l524 906zM916 267v339l-195 -339h195z" />
    <glyph glyph-name="questiondown" unicode="&#xbf;" horiz-adv-x="754" 
d="M540 1084h-208v220h208v-220zM754 70q-116 -89 -277 -89q-205 1 -313 107t-107 286q1 131 71 227t155 123q37 21 44.5 42t7.5 44v160h196v-235q0 -123 -61 -153q-15 -8 -57 -23t-86 -63q-45 -49 -45 -125t70 -125q70 -48 176 -48t182 78q26 26 44 61v-267z" />
    <glyph glyph-name="Agrave" unicode="&#xc0;" horiz-adv-x="923" 
d="M505 1063h-99l-97 241h163zM916 0h-199l-55 216h-318l-57 -216h-192l302 1027h220zM613 397l-113 423l-110 -423h223z" />
    <glyph glyph-name="Aacute" unicode="&#xc1;" horiz-adv-x="923" 
d="M701 1304l-98 -241h-99l33 241h164zM916 0h-199l-55 216h-318l-57 -216h-192l302 1027h220zM613 397l-113 423l-110 -423h223z" />
    <glyph glyph-name="Acircumflex" unicode="&#xc2;" horiz-adv-x="923" 
d="M765 1065h-151l-109 110l-123 -111h-54l-30 1h-59l196 237h153zM916 0h-199l-55 216h-318l-57 -216h-192l302 1027h220zM613 397l-113 423l-110 -423h223z" />
    <glyph glyph-name="Atilde" unicode="&#xc3;" horiz-adv-x="923" 
d="M841 1285q-23 -133 -125 -185q-67 -34 -135 -6q-27 12 -73 38t-91.5 25.5t-77 -23.5t-62.5 -60l-69 29q36 130 144 173q35 14 84.5 14t108.5 -36q60 -36 100 -35.5t67 21.5q28 20 61 63zM916 0h-199l-55 216h-318l-57 -216h-192l302 1027h220zM613 397l-113 423
l-110 -423h223z" />
    <glyph glyph-name="Adieresis" unicode="&#xc4;" horiz-adv-x="923" 
d="M730 1089h-152v174h152v-174zM440 1089h-152v174h152v-174zM916 0h-199l-55 216h-318l-57 -216h-192l302 1027h220zM613 397l-113 423l-110 -423h223z" />
    <glyph glyph-name="Aring" unicode="&#xc5;" horiz-adv-x="923" 
d="M631 1182q0 -25 -9.5 -46.5t-26 -38t-38 -26t-46.5 -9.5t-47 9.5t-38.5 26t-26 38t-9.5 46.5t9.5 47t26 38.5t38.5 26t47 9.5t46.5 -9.5t38 -26t26 -38.5t9.5 -47zM916 0h-199l-55 216h-318l-57 -216h-192l302 1027h220zM581 1182q0 29 -20.5 50t-49.5 21t-50 -21
t-21 -50q0 -30 20 -50t50 -20t50.5 20.5t20.5 49.5zM613 397l-113 423l-110 -423h223z" />
    <glyph glyph-name="AE" unicode="&#xc6;" horiz-adv-x="1409" 
d="M1409 0h-691v504h-286l-131 -504h-207l379 1284h936v-200h-495v-378h415v-202h-415v-307h495v-197zM718 706v378h-137l-97 -378h234z" />
    <glyph glyph-name="Ccedilla" unicode="&#xc7;" horiz-adv-x="857" 
d="M493 202q66 -23 168 -23t193 29v-193q-115 -37 -239 -37l-7 1l-44 -84q28 5 74.5 5t111.5 -40q66 -40 66 -125t-126 -137q-94 -41 -192 -41t-156 20l38 97q65 -20 103 -20q148 0 148 95q0 63 -68 63q-89 0 -138 -19l-22 45l78 155q-382 88 -383.5 534.5t132.5 612.5
t381 166q133 0 229 -37v-191q-90 27 -188.5 27t-162 -21t-107 -73t-66 -140.5t-22.5 -222.5t22 -224t66.5 -144.5t110.5 -77.5z" />
    <glyph glyph-name="Egrave" unicode="&#xc8;" horiz-adv-x="659" 
d="M385 1063h-99l-97 241h163zM659 0h-562v1027h562v-156h-403v-260h355v-165h-355v-285h403v-161z" />
    <glyph glyph-name="Eacute" unicode="&#xc9;" horiz-adv-x="659" 
d="M581 1304l-98 -241h-99l33 241h164zM659 0h-562v1027h562v-156h-403v-260h355v-165h-355v-285h403v-161z" />
    <glyph glyph-name="Ecircumflex" unicode="&#xca;" horiz-adv-x="659" 
d="M642 1065h-151l-109 110l-123 -111h-53l-32 1h-58l196 237h153zM659 0h-562v1027h562v-156h-403v-260h355v-165h-355v-285h403v-161z" />
    <glyph glyph-name="Edieresis" unicode="&#xcb;" horiz-adv-x="659" 
d="M610 1089h-152v174h152v-174zM320 1089h-152v174h152v-174zM659 0h-562v1027h562v-156h-403v-260h355v-165h-355v-285h403v-161z" />
    <glyph glyph-name="Igrave" unicode="&#xcc;" horiz-adv-x="361" 
d="M295 1063h-99l-97 241h163zM360 0h-174v1031h174v-1031z" />
    <glyph glyph-name="Iacute" unicode="&#xcd;" horiz-adv-x="351" 
d="M351 1304l-98 -241h-99l33 241h164zM269 0h-173v1031h173v-1031z" />
    <glyph glyph-name="Icircumflex" unicode="&#xce;" horiz-adv-x="582" 
d="M602 1065h-151l-109 110l-123 -111h-53l-32 1h-58l196 237h153zM419 0h-173v1031h173v-1031z" />
    <glyph glyph-name="Idieresis" unicode="&#xcf;" horiz-adv-x="505" 
d="M500 1089h-152v174h152v-174zM250 1089h-152v174h152v-174zM379 0h-173v1031h173v-1031z" />
    <glyph glyph-name="Eth" unicode="&#xd0;" horiz-adv-x="1081" 
d="M970 191q-124 -191 -374 -191h-400v558h-107v205h107v521h298l106 -2q248 -6 372 -210q105 -172 105 -443q0 -272 -107 -438zM563 202q298 0 300 441q0 432 -297 443l-72 2h-99v-325h393v-205h-393v-356h168z" />
    <glyph glyph-name="Ntilde" unicode="&#xd1;" horiz-adv-x="785" 
d="M751 1285q-23 -133 -125 -185q-67 -34 -135 -6q-27 12 -73 38t-91.5 25.5t-77 -23.5t-62.5 -60l-69 29q36 130 144 173q35 14 84.5 14t108.5 -36q60 -36 98.5 -35.5t68.5 21.5q29 20 61 63zM777 0h-207l-305 711q1 -7 1 -13v-698h-170v1027h199l313 -708q-1 9 -1 17v691
h170v-1027z" />
    <glyph glyph-name="Ograve" unicode="&#xd2;" horiz-adv-x="898" 
d="M455 1063h-99l-98 241h164zM93 504q0 525 400 525t400 -525q0 -374 -213 -484q-77 -40 -237.5 -40t-254.5 141q-95 141 -95 383zM652 775q-46 79 -158 79t-158 -80t-47 -265q-1 -274 109 -328q38 -19 93.5 -19t94.5 19.5t75 81t36 247.5t-45 265z" />
    <glyph glyph-name="Oacute" unicode="&#xd3;" horiz-adv-x="898" 
d="M711 1304l-98 -241h-99l33 241h164zM93 504q0 525 400 525t400 -525q0 -374 -213 -484q-77 -40 -237.5 -40t-254.5 141q-95 141 -95 383zM652 775q-46 79 -158 79t-158 -80t-47 -265q-1 -274 109 -328q38 -19 93.5 -19t94.5 19.5t75 81t36 247.5t-45 265z" />
    <glyph glyph-name="Ocircumflex" unicode="&#xd4;" horiz-adv-x="898" 
d="M752 1065h-151l-109 110l-123 -111h-53l-32 1h-58l196 237h153zM93 504q0 525 400 525t400 -525q0 -374 -213 -484q-77 -40 -237.5 -40t-254.5 141q-95 141 -95 383zM652 775q-46 79 -158 79t-158 -80t-47 -265q-1 -274 109 -328q38 -19 93.5 -19t94.5 19.5t75 81
t36 247.5t-45 265z" />
    <glyph glyph-name="Otilde" unicode="&#xd5;" horiz-adv-x="898" 
d="M821 1285q-23 -133 -125 -185q-67 -34 -135 -6q-27 12 -73 38t-91.5 25.5t-77 -23.5t-62.5 -60l-69 29q36 130 144 173q35 14 84.5 14t108.5 -36q60 -36 100 -35.5t67 21.5q28 20 61 63zM93 504q0 525 400 525t400 -525q0 -374 -213 -484q-77 -40 -237.5 -40t-254.5 141
q-95 141 -95 383zM652 775q-46 79 -158 79t-158 -80t-47 -265q-1 -274 109 -328q38 -19 93.5 -19t94.5 19.5t75 81t36 247.5t-45 265z" />
    <glyph glyph-name="Odieresis" unicode="&#xd6;" horiz-adv-x="898" 
d="M710 1089h-152v174h152v-174zM420 1089h-152v174h152v-174zM93 504q0 525 400 525t400 -525q0 -374 -213 -484q-77 -40 -237.5 -40t-254.5 141q-95 141 -95 383zM652 775q-46 79 -158 79t-158 -80t-47 -265q-1 -274 109 -328q38 -19 93.5 -19t94.5 19.5t75 81t36 247.5
t-45 265z" />
    <glyph glyph-name="multiply" unicode="&#xd7;" horiz-adv-x="846" 
d="M843 190l-113 -113l-265 265l-265 -265l-113 113l265 264l-265 265l113 113l265 -265l265 265l113 -113l-265 -265z" />
    <glyph glyph-name="Oslash" unicode="&#xd8;" horiz-adv-x="1035" 
d="M564 1301q170 0 280 -87l55 90h135l-110 -179q110 -164 110 -481q0 -474 -251 -611q-90 -49 -240.5 -49t-260.5 92l-58 -95h-135l114 186q-107 165 -107 477q0 657 468 657zM739 1043q-60 64 -173 64q-144 0 -204 -107t-60 -314t29 -311zM801 923l-410 -669
q61 -69 173 -69q142 1 203 113t61 317.5t-27 307.5z" />
    <glyph glyph-name="Ugrave" unicode="&#xd9;" horiz-adv-x="829" 
d="M455 1063h-99l-98 241h164zM825 425q1 -215 -77 -321q-90 -124 -288 -123q-292 1 -348 265q-18 82 -17 179v602h180v-600q-1 -141 41 -198t143 -57t143 58t41 197v600h182v-602z" />
    <glyph glyph-name="Uacute" unicode="&#xda;" horiz-adv-x="829" 
d="M651 1304l-98 -241h-99l33 241h164zM825 425q1 -215 -77 -321q-90 -124 -288 -123q-292 1 -348 265q-18 82 -17 179v602h180v-600q-1 -141 41 -198t143 -57t143 58t41 197v600h182v-602z" />
    <glyph glyph-name="Ucircumflex" unicode="&#xdb;" horiz-adv-x="829" 
d="M722 1065h-151l-109 110l-123 -111h-53l-32 1h-58l196 237h153zM825 425q1 -215 -77 -321q-90 -124 -288 -123q-292 1 -348 265q-18 82 -17 179v602h180v-600q-1 -141 41 -198t143 -57t143 58t41 197v600h182v-602z" />
    <glyph glyph-name="Udieresis" unicode="&#xdc;" horiz-adv-x="829" 
d="M680 1089h-152v174h152v-174zM390 1089h-152v174h152v-174zM825 425q1 -215 -77 -321q-90 -124 -288 -123q-292 1 -348 265q-18 82 -17 179v602h180v-600q-1 -141 41 -198t143 -57t143 58t41 197v600h182v-602z" />
    <glyph glyph-name="Yacute" unicode="&#xdd;" horiz-adv-x="863" 
d="M671 1304l-98 -241h-99l33 241h164zM861 1027l-297 -646v-381h-180v381l-299 646h186l209 -474l206 474h175z" />
    <glyph glyph-name="Thorn" unicode="&#xde;" horiz-adv-x="721" 
d="M366 244q-78 0 -126 12v-256h-179v1284h179v-296q58 15 168 15q111 1 212 -107q100 -108 100 -272t-98 -272t-256 -108zM341 416q175 0 175 206q0 115 -49 163.5t-140 48.5q-45 0 -87 -14v-390q41 -14 101 -14z" />
    <glyph glyph-name="germandbls" unicode="&#xdf;" horiz-adv-x="1076" 
d="M856.5 -10.5q-64.5 -19.5 -164 -19.5t-199.5 31v183q98 -37 214 -37q116 1 165 53q20 22 20 54.5t-17 52.5t-44.5 34t-121.5 45t-151 93t-57 175q0 158 115 214q71 34 93 65t22 68q0 63 -54.5 93t-107.5 30q-98 0 -156 -52t-58 -141v-935h-201v944q0 169 105.5 268.5
t269 99.5t289.5 -88.5t126 -239.5q0 -125 -122 -187q-77 -39 -99 -65t-22 -59t16 -54.5t42.5 -36t60 -26t94.5 -33.5t111.5 -76t50.5 -146.5t-29 -151t-77.5 -97.5t-113 -58.5z" />
    <glyph glyph-name="agrave" unicode="&#xe0;" horiz-adv-x="767" 
d="M385 957h-99l-97 229h163zM117 882q121 44 283 44t263 -84q100 -84 100 -282v-567h-191l-4 80q-61 -93 -215 -93q-209 0 -277 152q-26 56 -26 247.5t399 193.5q70 0 119 -7v34q0 150 -219 150q-89 0 -232 -56v188zM383 428q-147 0 -147 -150q0 -100 90 -116q31 -6 73 -5
q129 0 169 81v184q-38 6 -185 6z" />
    <glyph glyph-name="aacute" unicode="&#xe1;" horiz-adv-x="767" 
d="M611 1186l-98 -229h-99l33 229h164zM117 882q121 44 283 44t263 -84q100 -84 100 -282v-567h-191l-4 80q-61 -93 -215 -93q-209 0 -277 152q-26 56 -26 247.5t399 193.5q70 0 119 -7v34q0 150 -219 150q-89 0 -232 -56v188zM383 428q-147 0 -147 -150q0 -100 90 -116
q31 -6 73 -5q129 0 169 81v184q-38 6 -185 6z" />
    <glyph glyph-name="acircumflex" unicode="&#xe2;" horiz-adv-x="767" 
d="M642 961h-151l-109 105l-123 -106h-53l-32 1h-58l196 225h153zM117 882q121 44 283 44t263 -84q100 -84 100 -282v-567h-191l-4 80q-61 -93 -215 -93q-209 0 -277 152q-26 56 -26 247.5t399 193.5q70 0 119 -7v34q0 150 -219 150q-89 0 -232 -56v188zM383 428
q-147 0 -147 -150q0 -100 90 -116q31 -6 73 -5q129 0 169 81v184q-38 6 -185 6z" />
    <glyph glyph-name="atilde" unicode="&#xe3;" horiz-adv-x="767" 
d="M751 1170q-30 -130 -125 -176q-32 -16 -76.5 -16t-111.5 36t-112 35.5t-76 -23t-63 -56.5l-69 28q41 124 145 164q34 13 81 13q48 1 110 -33q63 -34 99 -34t65 19q30 19 65 60zM117 882q121 44 283 44t263 -84q100 -84 100 -282v-567h-191l-4 80q-61 -93 -215 -93
q-209 0 -277 152q-26 56 -26 247.5t399 193.5q70 0 119 -7v34q0 150 -219 150q-89 0 -232 -56v188zM383 428q-147 0 -147 -150q0 -100 90 -116q31 -6 73 -5q129 0 169 81v184q-38 6 -185 6z" />
    <glyph glyph-name="adieresis" unicode="&#xe4;" horiz-adv-x="767" 
d="M600 969h-152v165h152v-165zM310 969h-152v165h152v-165zM117 882q121 44 283 44t263 -84q100 -84 100 -282v-567h-191l-4 80q-61 -93 -215 -93q-209 0 -277 152q-26 56 -26 247.5t399 193.5q70 0 119 -7v34q0 150 -219 150q-89 0 -232 -56v188zM383 428
q-147 0 -147 -150q0 -100 90 -116q31 -6 73 -5q129 0 169 81v184q-38 6 -185 6z" />
    <glyph glyph-name="aring" unicode="&#xe5;" horiz-adv-x="767" 
d="M501 1073q0 -24 -9.5 -45t-26 -36t-38 -24t-46.5 -9t-47 9t-38.5 24t-26 36t-9.5 45t9.5 44.5t26 36t38 24.5t46.5 9t47 -9t38.5 -24.5t26 -36t9.5 -44.5zM117 882q121 44 283 44t263 -84q100 -84 100 -282v-567h-191l-4 80q-61 -93 -215 -93q-209 0 -277 152
q-26 56 -26 247.5t399 193.5q70 0 119 -7v34q0 150 -219 150q-89 0 -232 -56v188zM451 1073q0 28 -21 47t-50 19t-49.5 -19t-20.5 -47t20.5 -47.5t50 -19.5t50 19.5t20.5 47.5zM383 428q-147 0 -147 -150q0 -100 90 -116q31 -6 73 -5q129 0 169 81v184q-38 6 -185 6z" />
    <glyph glyph-name="ae" unicode="&#xe6;" horiz-adv-x="1299" 
d="M667 811q103 117 273 117t266 -121t95 -310q0 -72 -6 -110h-556q0 -188 171 -219q49 -9 101 -9q123 0 238 52v-184q-119 -47 -249 -47t-202 36q-70 36 -149 117q-90 -153 -283 -153q-221 0 -285 162q-22 56 -22 176.5t117 194.5q94 60 262 60q62 0 113 -7v34
q1 82 -61 116t-151.5 34t-216.5 -56v188q113 44 244 44q211 0 301 -115zM1126 541q0 147 -116 193q-36 14 -98 14t-117 -54t-56 -153h387zM375 428q-142 0 -140 -150q0 -104 94 -117q28 -4 61 -4q122 0 161 81v184q-34 6 -176 6z" />
    <glyph glyph-name="ccedilla" unicode="&#xe7;" horiz-adv-x="702" 
d="M498 165q113 0 203 42v-192q-93 -33 -212 -35l-45 -85q28 5 77 5t107 -36t58 -120t-121 -141q-97 -46 -191 -46t-152 20l38 97q65 -20 103 -20q148 0 148 95q0 63 -68 63q-89 0 -138 -19l-22 45l78 154q-227 53 -287 296q-18 76 -18 226t109 282t313 132q106 0 213 -38
v-182q-89 38 -198.5 38t-176.5 -72q-68 -72 -68 -223q0 -286 250 -286z" />
    <glyph glyph-name="egrave" unicode="&#xe8;" horiz-adv-x="846" 
d="M455 957h-99l-98 229h164zM789 27q-127 -47 -321 -47t-304 126t-110 342t109 348t293 132t286 -122q101 -122 101 -309q0 -72 -6 -110h-585q0 -188 180 -219q52 -9 106 -9q129 0 251 52v-184zM659 541q0 97 -57 152q-58 55 -144 55t-146 -54t-60 -153h407z" />
    <glyph glyph-name="eacute" unicode="&#xe9;" horiz-adv-x="850" 
d="M691 1186l-98 -229h-99l33 229h164zM789 27q-127 -47 -321 -47t-304 126t-110 342t109 348t293 132t286 -122q101 -122 101 -309q0 -72 -6 -110h-585q0 -188 180 -219q52 -9 106 -9q129 0 251 52v-184zM659 541q0 97 -57 152q-58 55 -144 55t-146 -54t-60 -153h407z" />
    <glyph glyph-name="ecircumflex" unicode="&#xea;" horiz-adv-x="850" 
d="M732 961h-151l-109 105l-123 -106h-53l-32 1h-58l196 225h153zM789 27q-127 -47 -321 -47t-304 126t-110 342t109 348t293 132t286 -122q101 -122 101 -309q0 -72 -6 -110h-585q0 -188 180 -219q52 -9 106 -9q129 0 251 52v-184zM659 541q0 97 -57 152q-58 55 -144 55
t-146 -54t-60 -153h407z" />
    <glyph glyph-name="edieresis" unicode="&#xeb;" horiz-adv-x="850" 
d="M690 969h-152v165h152v-165zM400 969h-152v165h152v-165zM789 27q-127 -47 -321 -47t-304 126t-110 342t109 348t293 132t286 -122q101 -122 101 -309q0 -72 -6 -110h-585q0 -188 180 -219q52 -9 106 -9q129 0 251 52v-184zM659 541q0 97 -57 152q-58 55 -144 55
t-146 -54t-60 -153h407z" />
    <glyph glyph-name="igrave" unicode="&#xec;" horiz-adv-x="253" 
d="M185 957h-99l-96 229h162zM252 0h-191v915h191v-915z" />
    <glyph glyph-name="iacute" unicode="&#xed;" horiz-adv-x="330" 
d="M341 1186l-98 -229h-99l33 229h164zM252 0h-191v915h191v-915z" />
    <glyph glyph-name="icircumflex" unicode="&#xee;" horiz-adv-x="570" 
d="M572 961h-151l-109 105l-123 -106h-53l-32 1h-58l196 225h153zM402 0h-191v915h191v-915z" />
    <glyph glyph-name="idieresis" unicode="&#xef;" horiz-adv-x="460" 
d="M460 969h-152v165h152v-165zM210 969h-152v165h152v-165zM352 0h-191v915h191v-915z" />
    <glyph glyph-name="eth" unicode="&#xf0;" horiz-adv-x="830" 
d="M299 1269q100 -20 190 -76l76 80l53 -53l-68 -71q210 -177 266 -507q16 -98 16 -249t-96 -286t-290 -135t-292 112t-98 284t95 286q94 114 238.5 113.5t245.5 -99.5q2 18 2 37q0 223 -159 369l-89 -93l-53 53l84 87q-82 58 -183 85zM473 148q172 0 172 217q0 162 -87 217
q-33 21 -85 21q-113 0 -168 -52.5t-55 -164.5t55 -175t168 -63z" />
    <glyph glyph-name="ntilde" unicode="&#xf1;" horiz-adv-x="800" 
d="M751 1170q-30 -130 -125 -176q-32 -16 -76.5 -16t-111.5 36t-112 35.5t-76 -23t-63 -56.5l-69 28q41 124 145 164q34 13 81 13q48 1 110 -33q63 -34 99 -34t65 19q30 19 65 60zM611 543q0 212 -177 212q-90 0 -140.5 -51.5t-50.5 -160.5v-543h-187v901h185l-2 -144
q23 83 93 129t266.5 46t198.5 -375v-557h-186v543z" />
    <glyph glyph-name="ograve" unicode="&#xf2;" horiz-adv-x="830" 
d="M726.5 112.5q-96.5 -129.5 -285.5 -129.5t-287 129t-98 345q0 335 215 439q71 34 169 34q188 0 285.5 -128.5t97.5 -344t-96.5 -345zM587.5 235.5q44.5 75.5 44.5 187.5t-11 166.5t-34 89.5q-44 67 -145 67t-146 -67.5t-45 -217.5t45.5 -225.5t146 -75.5t145 75.5z
M498 1052h-114l-140 481h224z" />
    <glyph glyph-name="oacute" unicode="&#xf3;" horiz-adv-x="830" 
d="M671 1186l-98 -229h-99l33 229h164zM726 112q-96 -130 -285 -129.5t-287 129.5t-98 345q0 335 215 439q72 34 169.5 34t169.5 -34.5t142.5 -128t70 -309.5t-96.5 -346zM587.5 235.5q44.5 75.5 44.5 187.5t-11 166.5t-34 89.5t-58.5 51t-111 16t-121.5 -68t-45.5 -217.5
t46 -225t146 -75.5t145 75.5z" />
    <glyph glyph-name="ocircumflex" unicode="&#xf4;" horiz-adv-x="830" 
d="M702 961h-151l-109 105l-123 -106h-53l-32 1h-58l196 225h153zM726 112q-96 -130 -285 -129.5t-287 129.5t-98 345q0 335 215 439q72 34 169.5 34t169.5 -34.5t142.5 -128t70 -309.5t-96.5 -346zM587.5 235.5q44.5 75.5 44.5 187.5t-11 166.5t-34 89.5t-58.5 51t-111 16
t-121.5 -68t-45.5 -217.5t46 -225t146 -75.5t145 75.5z" />
    <glyph glyph-name="otilde" unicode="&#xf5;" horiz-adv-x="830" 
d="M781 1170q-30 -130 -125 -176q-32 -16 -76.5 -16t-111.5 36t-112 35.5t-76.5 -23t-62.5 -56.5l-69 28q41 124 145 164q34 13 81.5 13t109.5 -33q64 -34 114 -34t115 79zM726 112q-96 -130 -285 -129.5t-287 129.5t-98 345q0 335 215 439q72 34 169.5 34t169.5 -34.5
t142.5 -128t70 -309.5t-96.5 -346zM587.5 235.5q44.5 75.5 44.5 187.5t-11 166.5t-34 89.5t-58.5 51t-111 16t-121.5 -68t-45.5 -217.5t46 -225t146 -75.5t145 75.5z" />
    <glyph glyph-name="odieresis" unicode="&#xf6;" horiz-adv-x="830" 
d="M660 969h-152v165h152v-165zM370 969h-152v165h152v-165zM726 112q-96 -130 -285 -129.5t-287 129.5t-98 345q0 335 215 439q72 34 169.5 34t169.5 -34.5t142.5 -128t70 -309.5t-96.5 -346zM587.5 235.5q44.5 75.5 44.5 187.5t-11 166.5t-34 89.5t-58.5 51t-111 16
t-121.5 -68t-45.5 -217.5t46 -225t146 -75.5t145 75.5z" />
    <glyph glyph-name="divide" unicode="&#xf7;" horiz-adv-x="826" 
d="M561 749q0 -23 -8.5 -43t-23.5 -35t-35 -23.5t-43 -8.5t-43 8.5t-35 23.5t-23.5 35t-8.5 43t8.5 43t23.5 35t35 23.5t43 8.5t43 -8.5t35 -23.5t23.5 -35t8.5 -43zM826 388h-768v153h768v-153zM561 189q0 -23 -8.5 -43t-23.5 -35t-35 -23.5t-43 -8.5t-43 8.5t-35 23.5
t-23.5 35t-8.5 43t8.5 43t23.5 35t35 23.5t43 8.5t43 -8.5t35 -23.5t23.5 -35t8.5 -43z" />
    <glyph glyph-name="oslash" unicode="&#xf8;" horiz-adv-x="830" 
d="M271 896q72 34 186.5 34t201.5 -63l31 44h145l-92 -132q80 -121 80 -329q-1 -208 -97 -338t-285 -129q-127 0 -212 59l-32 -45l-147 3l91 130q-85 125 -85 327q0 336 215 439zM553 716q-40 30 -125.5 30t-131.5 -68t-45.5 -188.5t16.5 -180.5zM587.5 235.5
q44.5 75.5 44.5 192.5t-13 173l-284 -407q43 -34 108 -34q100 0 144.5 75.5z" />
    <glyph glyph-name="ugrave" unicode="&#xf9;" horiz-adv-x="788" 
d="M415 957h-99l-97 229h163zM421 155q178 0 178 215v540h190v-910h-188v144q-49 -164 -267 -164t-264 206q-16 68 -15 161v563h190v-540q0 -110 42 -162.5t134 -52.5z" />
    <glyph glyph-name="uacute" unicode="&#xfa;" horiz-adv-x="788" 
d="M601 1186l-98 -229h-99l33 229h164zM421 155q178 0 178 215v540h190v-910h-188v144q-49 -164 -267 -164t-264 206q-16 68 -15 161v563h190v-540q0 -110 42 -162.5t134 -52.5z" />
    <glyph glyph-name="ucircumflex" unicode="&#xfb;" horiz-adv-x="788" 
d="M672 961h-151l-109 105l-123 -106h-53l-32 1h-58l196 225h153zM421 155q178 0 178 215v540h190v-910h-188v144q-49 -164 -267 -164t-264 206q-16 68 -15 161v563h190v-540q0 -110 42 -162.5t134 -52.5z" />
    <glyph glyph-name="udieresis" unicode="&#xfc;" horiz-adv-x="788" 
d="M650 969h-152v165h152v-165zM360 969h-152v165h152v-165zM421 155q178 0 178 215v540h190v-910h-188v144q-49 -164 -267 -164t-264 206q-16 68 -15 161v563h190v-540q0 -110 42 -162.5t134 -52.5z" />
    <glyph glyph-name="yacute" unicode="&#xfd;" horiz-adv-x="920" 
d="M711 1186l-98 -229h-99l33 229h164zM358 -433q-47 -23 -115 -23t-134 16v163q114 -33 176 4t91 140l36 126l-359 912h217l228 -708l221 708h209l-393 -1058q-24 -65 -45.5 -120t-53 -96t-78.5 -64z" />
    <glyph glyph-name="thorn" unicode="&#xfe;" horiz-adv-x="842" 
d="M241 804q63 128 236 128q263 0 340 -260q26 -88 26 -263.5t-95 -303.5q-95 -127 -261.5 -127t-245.5 126v-529h-188v1706h184zM241 278q58 -92 182 -92q158 0 205 148q17 54 17 160t-48.5 174.5t-173.5 68.5t-167 -113q-14 -39 -15 -93v-253z" />
    <glyph glyph-name="ydieresis" unicode="&#xff;" horiz-adv-x="920" 
d="M720 969h-152v165h152v-165zM430 969h-152v165h152v-165zM358 -433q-47 -23 -115 -23t-134 16v163q114 -33 176 4t91 140l36 126l-359 912h217l228 -708l221 708h209l-393 -1058q-24 -65 -45.5 -120t-53 -96t-78.5 -64z" />
    <glyph glyph-name="dotlessi" unicode="&#x131;" horiz-adv-x="295" 
d="M293 -272h-199v1552h199v-1552z" />
    <glyph glyph-name="OE" unicode="&#x152;" horiz-adv-x="1373" 
d="M518 1300q145 0 236 -75v59h624v-196h-444v-325h308v-205h-308l-1 -13l1 -343h444v-202h-624v57q-93 -73 -236 -73q-421 0 -421 654q1 522 271 635q64 27 150 27zM754 559v175q0 166 -33.5 236.5t-79.5 103t-112 32.5t-105.5 -21t-66 -56t-41.5 -81.5t-22 -98t-9 -104
t-2 -100.5t1.5 -100.5t24 -206t153.5 -153.5q131 1 177 33q115 84 115 341z" />
    <glyph glyph-name="oe" unicode="&#x153;" horiz-adv-x="1315" 
d="M697 792q101 136 271 136t258 -124t87 -307q0 -65 -5 -110h-524q-2 -14 -2 -50q0 -35 24 -75q62 -102 206.5 -102.5t251.5 51.5v-184q-110 -47 -255 -47q-206 0 -310 129q-96 -133 -280 -133t-276 130t-92 341q0 334 200 443q70 38 168 38q182 0 278 -136zM1148 541
q0 141 -108 191q-34 16 -95.5 16t-112.5 -57t-51 -148v-2h367zM231 326q-1 -177 191 -177t192 299.5t-193 299.5q-163 0 -184 -190q-6 -54 -6 -232z" />
    <glyph glyph-name="circumflex" unicode="&#x2c6;" horiz-adv-x="748" 
d="M747 952h-192l-150 162l-158 -164q-55 0 -98 1t-95 1l259 330h200z" />
    <glyph glyph-name="ring" unicode="&#x2da;" horiz-adv-x="1114" 
d="M611 1182q0 -25 -9.5 -46.5t-26 -38t-38 -26t-46.5 -9.5t-47 9.5t-38.5 26t-26 38t-9.5 46.5t9.5 47t26 38.5t38 26t46.5 9.5t47 -9.5t38.5 -26t26 -38.5t9.5 -47zM561 1182q0 29 -21 50t-50 21t-49.5 -21t-20.5 -50q0 -30 20 -50t50 -20t50.5 20.5t20.5 49.5z" />
    <glyph glyph-name="tilde" unicode="&#x2dc;" horiz-adv-x="767" 
d="M751 1170q-30 -130 -125 -176q-32 -16 -76.5 -16t-111.5 36t-112 35.5t-76 -23t-63 -56.5l-69 28q41 124 145 164q34 13 81 13q48 1 110 -33q63 -34 99 -34t65 19q30 19 65 60z" />
    <glyph glyph-name="uni0D02" unicode="&#xd02;" horiz-adv-x="581" 
d="M446 8q-50 -28 -124 -28q-137 0 -200 95t-63 237q0 226 138 303q50 28 123 28q136 0 199 -96.5t63 -239.5q0 -223 -136 -299zM234 303q0 -164 85 -164q86 0 86 168q0 111 -43 151q-16 15 -41 15q-44 0 -65.5 -48.5t-21.5 -121.5z" />
    <glyph glyph-name="uni0D03" unicode="&#xd03;" horiz-adv-x="384" 
d="M60 663q0 196 155 196q159 0 159 -195q0 -134 -82 -178q-31 -16 -77 -16q-155 0 -155 193zM60 193q0 196 155 196q159 0 159 -196q0 -133 -82 -177q-31 -16 -77 -16q-155 0 -155 193zM216 753q-45 0 -45 -88.5t47 -88.5q48 0 48 88q0 56 -17.5 72.5t-32.5 16.5zM216 283
q-45 0 -45 -88.5t47 -88.5q48 0 48 88q0 56 -17.5 72.5t-32.5 16.5z" />
    <glyph glyph-name="uni0D05" unicode="&#xd05;" horiz-adv-x="1736" 
d="M1065 829q114 101 268 101q197 0 299 -137t102 -341q0 -358 -154 -448q-40 -24 -104 -24q-123 0 -194 103.5t-71 238.5q0 228 115 310q45 32 108.5 32t93.5 -30q-38 110 -188 110t-194 -96q-16 -34 -16 -79v-569h-184v612q6 111 -96 138q-22 6 -54 6q80 -82 80 -185.5
t-73 -155.5q91 -47 91 -164.5t-69.5 -196.5t-167.5 -79q-169 -1 -249 147q-62 117 -62.5 272.5t74.5 299.5q21 40 44 65l-14 1h-28q-51 0 -96 -52q-44 -52 -65 -126t-21 -139q0 -266 119 -443h-204q-99 226 -99 443q0 283 152 413q86 74 198.5 73.5t227.5 -41.5
q169 84 337 10q61 -26 94 -69zM1541 321q-1 91 -43 145q-16 20 -38 20q-39 0 -55.5 -56.5t-16.5 -108.5q0 -95 36 -145q14 -20 36 -20q40 0 60.5 57t20.5 108zM656 492q56 0 56 85t-64 122q-129 -83 -129 -286q0 -79 30.5 -172t84.5 -93q40 0 63.5 34.5t23.5 68.5
q0 80 -64 80h-43v161h42z" />
    <glyph glyph-name="uni0D06" unicode="&#xd06;" horiz-adv-x="2030" 
d="M1065 829q117 103 256 103t245 -74t149 -203q150 -33 229.5 -161t79.5 -298q0 -229 -135.5 -405t-369.5 -176q-117 0 -238 53v211q112 -83 214 -83q175 0 267 137q78 116 78 265t-58 224q-18 24 -43 36q8 -39 12 -79v-30q0 -251 -146 -341q-53 -32 -125 -32
q-129 0 -203 100t-74 232.5t83 231t221 120.5q-55 86 -173 86q-83 0 -143.5 -48t-60.5 -129v-569h-184v621q0 81 -66 119q-30 16 -81 16h-3q80 -82 80 -185.5t-73 -155.5q91 -47 91 -164.5t-69.5 -196.5t-167.5 -79q-169 -1 -249 147q-62 117 -62.5 272.5t74.5 299.5
q21 40 44 65l-14 1h-28q-51 0 -96 -52q-44 -52 -65 -126t-21 -139q0 -266 119 -443h-204q-99 226 -99 443q0 283 152 413q86 74 198.5 73.5t227.5 -41.5q88 43 173 43h12t47 -3t103.5 -30t95.5 -69zM1476 163q96 0 96 238v5q0 26 -12 86q-74 -10 -120 -65.5t-46 -132.5
t44 -117q16 -14 38 -14zM648 699q-129 -83 -129 -286q0 -79 30.5 -172t84.5 -93q40 0 63.5 34.5t23.5 68.5q0 80 -64 80h-43v161h42q56 0 56 85t-64 122z" />
    <glyph glyph-name="uni0D07" unicode="&#xd07;" horiz-adv-x="1300" 
d="M239 575q39 35 93 35q104 0 161.5 -83t57.5 -192.5t-68 -186t-162 -76.5t-144.5 35.5t-88.5 111.5q-38 75 -38 205q0 504 393 505q143 1 231 -71q32 -26 50 -63q28 62 94 98.5t164 36.5t177 -77t114.5 -192.5t35.5 -325t-124 -338t-254 -128.5h-651q-17 0 -28.5 -14
t-11.5 -30.5t11.5 -29t28.5 -12.5h1018v-163h-1048q-81 0 -137 59.5t-56 139.5q0 83 56 143t137 60h649q79 0 139 87t78 261q4 44 5 117q0 73 -30 156q-43 120 -132 120q-65 0 -101.5 -58.5t-36.5 -126.5v-485l-184 1v443q0 226 -196 226q-128 -1 -180 -113q-16 -34 -22 -75
zM380 334q0 64 -37 94q-13 10 -32 10q-33 0 -51 -32.5t-18 -71.5q0 -62 37 -92q13 -10 32 -11q49 0 65 70q4 18 4 33z" />
    <glyph glyph-name="uni0D08" unicode="&#xd08;" horiz-adv-x="2150" 
d="M1430 257q99 -123 245 -123t221.5 102.5t75.5 238t-52 200.5q-20 25 -53 25t-57.5 -30.5t-24.5 -68.5v-141h-150v160q1 49 -33 71q-10 7 -38 7q-27 0 -49.5 -38t-22.5 -85t17 -96t34 -101h-168q-10 48 -20.5 92t-10.5 98t12 110.5t40 100.5t74.5 71t121.5 27t115 -74
q29 53 97 73q22 6 44 7q144 0 226 -137q70 -117 70 -245q0 -238 -125.5 -377t-320.5 -139t-268 83v189zM239 575q39 35 93 35q104 0 161.5 -83t57.5 -192.5t-68 -186t-162 -76.5t-144.5 35.5t-88.5 111.5q-38 75 -38 205q0 504 393 505q143 1 231 -71q32 -26 50 -63
q28 62 94 98.5t164 36.5t177 -77t114.5 -192.5t35.5 -325t-124 -338t-254 -128.5h-651q-17 0 -28.5 -14t-11.5 -30.5t11.5 -29t28.5 -12.5h1018v-163h-1048q-81 0 -137 59.5t-56 139.5q0 83 56 143t137 60h649q79 0 139 87t78 261q4 44 5 117q0 73 -30 156q-43 120 -132 120
q-65 0 -101.5 -58.5t-36.5 -126.5v-485l-184 1v443q0 226 -196 226q-128 -1 -180 -113q-16 -34 -22 -75zM380 334q0 64 -37 94q-13 10 -32 10q-33 0 -51 -32.5t-18 -71.5q0 -62 37 -92q13 -10 32 -11q49 0 65 70q4 18 4 33z" />
    <glyph glyph-name="uni0D09" unicode="&#xd09;" horiz-adv-x="979" 
d="M239 585q39 35 93 35q102 0 160.5 -82.5t58.5 -192t-68.5 -194t-174.5 -84.5q-258 0 -258 400q0 206 120.5 336t337 130t342 -148.5t125.5 -360t-92 -371.5q-65 -113 -171 -160q-54 -24 -122 -24h-310q-17 0 -28.5 -14t-11.5 -30.5t11.5 -29t28.5 -12.5h678v-163h-708
q-80 0 -136.5 62t-56.5 143t55.5 144t137.5 63h318q73 0 134 80q60 79 82 232q6 40 6 90q0 130 -73 226.5t-224 96.5t-223 -92q-26 -33 -31 -80zM311 448q-33 0 -51 -32q-18 -34 -18 -72q0 -39 18 -71t51 -32t51 32.5t18 71t-18 71t-51 32.5z" />
    <glyph glyph-name="uni0D0A" unicode="&#xd0a;" horiz-adv-x="1824" 
d="M1110 257q99 -123 245 -123t221.5 102.5t75.5 238t-52 200.5q-20 25 -53 25t-57.5 -30.5t-24.5 -68.5v-141h-150v160q1 49 -33 71q-10 7 -38 7q-27 0 -49.5 -38t-22.5 -85t17 -96t34 -101h-168q-10 48 -20.5 92t-10.5 98t12 110.5t40 100.5t74.5 71t121.5 27t115 -74
q29 53 97 73q22 6 44 7q144 0 226 -137q70 -117 70 -245q0 -238 -125.5 -377t-320.5 -139t-268 83v189zM239 585q39 35 93 35q102 0 160.5 -82.5t58.5 -192t-68.5 -194t-174.5 -84.5q-258 0 -258 400q0 206 120.5 336t337 130t342 -148.5t125.5 -360t-92 -371.5
q-65 -113 -171 -160q-54 -24 -122 -24h-310q-17 0 -28.5 -14t-11.5 -30.5t11.5 -29t28.5 -12.5h678v-163h-708q-80 0 -136.5 62t-56.5 143t55.5 144t137.5 63h318q73 0 134 80q60 79 82 232q6 40 6 90q0 130 -73 226.5t-224 96.5t-223 -92q-26 -33 -31 -80zM311 448
q-33 0 -51 -32q-18 -34 -18 -72q0 -39 18 -71t51 -32t51 32.5t18 71t-18 71t-51 32.5z" />
    <glyph glyph-name="uni0D0B" unicode="&#xd0b;" horiz-adv-x="930" 
d="M299 543q80 -61 196.5 -61t194.5 61q-77 -2 -125.5 55t-48.5 117q0 105 53.5 160.5t124.5 55.5q121 0 179 -77t58 -182.5t-58 -179.5q-20 -26 -47 -43q75 -45 75 -156q0 -147 -136 -227q-117 -68 -271 -68t-270 69q-140 83 -139 227q0 109 77 155q-106 71 -106 217
q0 108 56.5 186.5t161.5 78.5q137 0 182 -116q14 -36 14 -75q0 -79 -47 -138t-124 -59zM713 792q-35 0 -47 -42q-4 -12 -4 -24q0 -44 30 -66q10 -7 22 -7q36 0 47 47q3 13 3 25q0 42 -30 61q-10 6 -21 6zM278 792q-36 0 -48 -42q-4 -12 -3 -24q-1 -44 29 -66q10 -7 23 -7
q36 0 47 47q3 13 3 25q1 42 -29 61q-10 6 -22 6zM334 368q-55 -32 -55 -81q1 -77 75 -111q58 -26 136 -27q136 -1 196 65q22 24 22 58q0 65 -56 96q-79 -23 -157.5 -23t-160.5 23z" />
    <glyph glyph-name="l1" unicode="&#xd0c;" horiz-adv-x="1476" 
d="M765 784q107 141 315 141q206 1 308 -159q86 -134 86 -322t-57 -308q-72 -154 -217 -153q-120 0 -184.5 106t-64.5 233q-1 222 115 302q44 30 107 30t95 -30q-17 52 -67.5 83.5t-107.5 31.5q-108 0 -171.5 -77.5t-63.5 -183.5v-478h-185v478q0 106 -63.5 183.5
t-162.5 77.5q-99 -1 -157 -67q-18 -22 -28 -48q32 30 94 30q119 0 178 -109q46 -85 46 -217.5t-64.5 -238.5t-173.5 -106t-177 75q-109 120 -109 359q0 343 206 464q75 44 185 44q211 0 318 -141zM1277 311q1 85 -43 135q-16 18 -38 18q-39 0 -59 -60q-14 -43 -14 -93
q0 -89 36 -135q15 -18 37 -18q39 0 60 52t21 101zM408 311q0 87 -37 135q-15 18 -37 18q-38 0 -59 -52t-21 -101q0 -85 43 -135q15 -18 37 -18q38 0 60 60q14 42 14 93z" />
    <glyph glyph-name="uni0D0E" unicode="&#xd0e;" horiz-adv-x="1484" 
d="M589 376q18 -58 18 -101.5t-11 -105.5h87v178q0 293 107 440.5t299 147.5q221 0 315 -178q74 -140 73.5 -420.5t-86.5 -578.5h-192q59 172 87 428q10 92 10 176q0 183 -46 282q-55 118 -164 118t-168.5 -107t-59.5 -315v-171h122v340h184v-504h-2q0 -137 -34 -199.5
t-77.5 -91.5t-113.5 -29q-254 0 -254 320h-299q8 37 27 104t19 132t-23 103t-72 38t-74 -42t-25 -86.5t4 -73.5t10.5 -56t16 -55.5t20.5 -63.5h-184q-9 36 -26.5 97.5t-17.5 143.5q0 132 73.5 231.5t201.5 99.5q126 0 202 -99q34 -45 53 -102zM932 -155q61 0 61 90v11l-1 59
h-134v-46q0 -68 40 -102q14 -12 34 -12z" />
    <glyph glyph-name="uni0D0F" unicode="&#xd0f;" horiz-adv-x="1563" 
d="M993 -48v27q0 13 -1 26h-134v-46q0 -61 41 -89q15 -10 33 -10q62 0 61 92zM346 382q-110 0 -110 -108t51 -269h-184q-44 155 -44 229q0 144 75 243.5t200 99.5t199 -95t74 -224q0 -41 -11 -89h87v178q0 584 446 584q194 0 311.5 -114t117.5 -308q0 -110 -22 -180.5
t-81 -120.5q98 -72 98 -229q0 -120 -67.5 -193.5t-171.5 -73.5h-101v166h52q49 0 85.5 32.5t36.5 86t-35.5 83t-86.5 29.5h-52v172h22q111 -1 139 137q8 40 8 90q0 104 -73 177t-177 73q-174 0 -234 -152q-33 -83 -36.5 -155.5t-3.5 -110.5v-171h122v340h184v-504h-2v-4
q0 -213 -113 -287q-45 -28 -115 -29q-134 0 -192.5 87t-58.5 228v5h-299q14 63 30 125.5t16 118.5t-24 94.5t-60 38.5z" />
    <glyph glyph-name="uni0D10" unicode="&#xd10;" horiz-adv-x="2320" 
d="M1430 375.5q18 -57.5 18 -98t-12 -108.5h87v178q0 293 107 440.5t299 147.5q221 0 315 -178q74 -140 73.5 -420.5t-86.5 -578.5h-192q59 172 87 428q10 92 10 176q0 183 -46 282q-55 118 -164 118t-168.5 -107t-59.5 -315v-171h122v340h184v-504h-2q0 -137 -34 -199.5
t-77.5 -91.5t-113.5 -29q-254 0 -254 320h-299q8 37 27 104t19 132t-23 103t-72 38t-74 -42t-25 -86.5t4 -73.5t10.5 -56t16 -55.5t20.5 -63.5h-184q-9 36 -26.5 97.5t-17.5 143.5q0 132 73.5 231.5t200.5 99.5t204 -99q35 -45 53 -102.5zM261 593q29 26 92 26
q118 0 172.5 -84t54.5 -212t-64.5 -234t-184.5 -106q-200 1 -256 247q-19 84 -19 183q0 219 86 353q102 160 309 159.5t307.5 -132.5t100.5 -329.5t-78 -463.5h-190q84 234 84 436q1 201 -129 277q-44 26 -103 26q-58 0 -114 -45.5t-68 -100.5zM1772 -155q61 0 61 90v11
l-1 59h-134v-46q0 -68 40 -102q14 -12 34 -12zM407 294q1 84 -37 128q-14 17 -46 17q-31 0 -52 -48.5t-21 -96.5q-1 -82 43 -128q16 -16 38 -17q40 0 57.5 50t17.5 95z" />
    <glyph glyph-name="uni0D12" unicode="&#xd12;" horiz-adv-x="966" 
d="M243 573q41 35 106 35q118 0 175 -81t57 -197q0 -234 -130 -316q-48 -30 -141 -30.5t-154 67.5t-79.5 162t-18.5 219.5t42 223.5t110 159q130 116 315 116t309.5 -85.5t124.5 -226.5q0 -88 -52 -152q-18 -22 -43 -38q95 -58 95 -179t-62 -196.5t-178 -75.5q-39 0 -83 10
l-9 171q35 -29 68 -29t57.5 21.5t24.5 79.5t-32 82.5t-77 24.5h-29v154h46q38 0 56 33.5t18 74.5q0 72 -64.5 108t-163.5 36q-223 0 -288 -171zM368 424q-16 18 -40 17q-42 0 -64.5 -50.5t-22.5 -96.5t22.5 -97t65.5 -51q59 0 75 108q4 25 4 40q0 85 -40 130z" />
    <glyph glyph-name="uni0D13" unicode="&#xd13;" horiz-adv-x="1446" 
d="M986 850q36 75 191 75q39 0 119.5 -39t112.5 -173.5t32 -322.5t-91.5 -295.5t-206 -107.5t-157.5 71l5 193q46 -83 105.5 -83t88.5 32q68 74 68 263q0 272 -130 272q-38 0 -74.5 -23.5t-57.5 -65.5zM243 573q41 35 106 35q118 0 175 -81t57 -197q0 -234 -130 -316
q-48 -30 -141 -30.5t-154 67.5t-79.5 162t-18.5 219.5t42 223.5t110 159q130 116 315 116t309.5 -85.5t124.5 -226.5q0 -88 -52 -152q-18 -22 -43 -38q95 -58 95 -179t-62 -196.5t-178 -75.5q-39 0 -83 10l-9 171q35 -29 68 -29t57.5 21.5t24.5 79.5t-32 82.5t-77 24.5h-29
v154h46q38 0 56 33.5t18 74.5q0 72 -64.5 108t-163.5 36q-223 0 -288 -171zM368 424q-16 18 -40 17q-42 0 -64.5 -50.5t-22.5 -96.5t22.5 -97t65.5 -51q59 0 75 108q4 25 4 40q0 85 -40 130z" />
    <glyph glyph-name="uni0D14" unicode="&#xd14;" horiz-adv-x="1809" 
d="M243 573q41 35 106 35q118 0 175 -81t57 -197q0 -234 -130 -316q-48 -30 -141 -30.5t-154 67.5t-79.5 162t-18.5 219.5t42 223.5t110 159q130 116 315 116t309.5 -85.5t124.5 -226.5q0 -88 -52 -152q-18 -22 -43 -38q95 -58 95 -179t-62 -196.5t-178 -75.5q-39 0 -83 10
l-9 171q35 -29 68 -29t57.5 21.5t24.5 79.5t-32 82.5t-77 24.5h-29v154h46q38 0 56 33.5t18 74.5q0 72 -64.5 108t-163.5 36q-223 0 -288 -171zM368 424q-16 18 -40 17q-42 0 -64.5 -50.5t-22.5 -96.5t22.5 -97t65.5 -51q59 0 75 108q4 25 4 40q0 85 -40 130zM1090 257
q99 -123 245 -123t221.5 102.5t75.5 238t-52 200.5q-20 25 -53 25t-57.5 -30.5t-24.5 -68.5v-141h-150v160q1 49 -33 71q-10 7 -38 7q-27 0 -49.5 -38t-22.5 -85t17 -96t34 -101h-168q-10 48 -20.5 92t-10.5 98t12 110.5t40 100.5t74.5 71t121.5 27t115 -74q29 53 97 73
q22 6 44 7q144 0 226 -137q70 -117 70 -245q0 -238 -125.5 -377t-320.5 -139t-268 83v189z" />
    <glyph glyph-name="k1" unicode="&#xd15;" horiz-adv-x="1293" 
d="M509 31q-58 -49 -136.5 -49t-133.5 22t-94 62q-82 83 -82 215q-1 133 79 221q83 92 213 91q15 143 95 233q89 100 226 99q133 0 223 -101q85 -95 93 -231h40q122 0 197 -95q68 -86 68 -214q-1 -129 -73 -209q-76 -83 -202 -83h-24v158h22q73 0 96 92q6 24 6 47t-6 47
q-5 22 -17 42q-28 46 -75 46h-28q-25 -442 -330 -442q-103 0 -157 49zM813 593q-11 102 -81 140q-24 13 -56.5 13t-57.5 -13q-24 -13 -42 -35q-35 -43 -42 -105h279zM529 424q11 -269 147 -269q142 0 142 269h-289zM398 158q-27 63 -35 130.5t-12 135.5h-6q-51 0 -81 -49
q-24 -41 -24 -79.5t6 -61.5q5 -24 17 -42q27 -41 76 -41q15 0 29.5 2.5t29.5 4.5z" />
    <glyph glyph-name="k2" unicode="&#xd16;" horiz-adv-x="1146" 
d="M848.5 644q25.5 -84 25.5 -197.5t-75 -291.5h174l-10 754h179l10 -909l-392 1v-1h-191v37q83 139 112 319q9 56 9 110q0 122 -56 202t-173 80q-142 0 -200 -126q-18 -40 -25 -88q39 37 95 37q108 0 168 -87.5t60 -202t-70.5 -209t-180.5 -94.5q-255 0 -255 433
q0 350 220 471q78 43 185.5 43t184.5 -36t128.5 -98.5t77 -146.5zM311 404q-58 0 -74 -89q-4 -22 -4 -38q0 -75 41 -113q15 -14 37 -14q58 0 74 89q4 22 4 38q0 77 -41 113q-15 14 -37 14z" />
    <glyph glyph-name="k3" unicode="&#xd17;" horiz-adv-x="1035" 
d="M414 620q0 310 294 310t320 -336q4 -52 4 -90q0 -141 -45 -298t-75 -206h-188q67 117 107 345q17 96 17 149q0 252 -138 252q-112 0 -112 -123q0 -73 21.5 -142t31.5 -107q10 -40 10 -94q0 -125 -65.5 -212t-206.5 -87q-309 -1 -331 351q-4 54 -3.5 128.5t29.5 217.5
t80 232h190q-64 -86 -101 -322q-14 -89 -14 -196.5t31 -172.5t109 -65q48 0 75 42.5t23 85.5t-14.5 82.5t-29.5 114.5t-19 141z" />
    <glyph glyph-name="k4" unicode="&#xd18;" horiz-adv-x="1602" 
d="M384 296q46 203 46 266t-23.5 106.5t-60.5 43.5q-109 0 -109 -174q0 -78 50 -242h-184q-42 159 -42 244q0 150 73.5 241.5t199.5 91.5t199 -87.5t73 -205.5q0 -54 -10 -124h77q0 275 130 398q80 76 189 76q108 0 172 -38q174 -106 175 -398q-1 -50 -1 -96v-102h-481v-137
h560l-10 750h184l10 -909h-928v296q-13 -5 -289 0zM1154 456q0 290 -148.5 290t-148.5 -290h297z" />
    <glyph glyph-name="ng" unicode="&#xd19;" horiz-adv-x="1321" 
d="M308 -22q-258 0 -258 434q0 405 258 493q58 20 143 20q84 0 173.5 -32t122.5 -101q26 72 100.5 106t152.5 34q151 0 241 -83t90 -223q-1 -81 -9 -107q-18 -56 -85 -93q81 -34 91 -119q3 -26 3 -67q0 -98 -56 -170t-164 -72h-88v183q89 -1 113 31q12 14 11 40q0 62 -77 68
q-22 2 -45 2v183h21q48 0 74.5 39.5t26.5 80.5q0 119 -139 119q-100 0 -134 -55t-34 -154v-535h-183v519q0 103 -53 164t-163 61q-174 0 -202 -204q40 38 95 38q106 0 166.5 -92.5t60.5 -207.5t-70.5 -207.5t-182.5 -92.5zM383 240q4 21 4 50t-19 70.5t-57 41.5
q-56 0 -72 -86q-4 -22 -4 -51t19 -70t57 -41q56 0 72 86z" />
    <glyph glyph-name="ch1" unicode="&#xd1a;" horiz-adv-x="1152" 
d="M756 159h214l-10 750h184l10 -909h-1104l10 149l434 10q63 2 106 67t43 131q0 169 -133.5 169t-133.5 -177q0 -74 36 -123h-184q-33 66 -33 143q0 157 80 247.5t230 90.5t238 -86.5t88 -226t-75 -235.5z" />
    <glyph glyph-name="ch2" unicode="&#xd1b;" horiz-adv-x="1628" 
d="M1251 744q-220 0 -220 -313q0 -146 104 -431h-1085l10 149l404 10q63 2 106 67t43 115q0 185 -133.5 185t-133.5 -177q0 -74 36 -123h-184q-33 66 -33 143q0 156 80.5 247t230 91t237.5 -86.5t88 -225.5t-75 -236h177q-55 189 -55 294q0 215 102 343.5t303 128.5
q379 0 379 -471q0 -288 -80 -392q-63 -82 -187 -82t-184 102.5t-60 239.5q0 228 115 310q45 32 109.5 32t92.5 -30q-38 110 -187 110zM1446 321q0 91 -42 145q-16 20 -38 20q-39 0 -56 -56.5t-17 -108.5q0 -95 36 -145q15 -20 37 -20q40 0 60 57t20 108z" />
    <glyph glyph-name="ch3" unicode="&#xd1c;" horiz-adv-x="1175" 
d="M1057 363q81 -46 81 -151t-64 -163.5t-163 -58.5q-137 0 -195 93q-20 31 -24 72q-35 -87 -131 -134q-131 -64 -295 -28q-120 27 -177 107q-30 42 -30 92q0 88 53 133.5t131 45.5h553q84 0 128.5 67.5t44.5 157.5q0 174 -128 174q-48 0 -79 -23.5t-31 -73.5v-267h-189
q0 35 4 119q8 169 -45.5 212t-113.5 43q-120 0 -161 -60q36 24 74 24q75 0 118.5 -47t43.5 -106q0 -104 -55 -151.5t-127 -47.5q-120 0 -171.5 73.5t-51.5 162.5q0 158 90.5 233.5t240.5 75.5t241 -93q74 93 214.5 93t224 -93t83.5 -222q0 -183 -94 -259zM897 274
q-45 0 -65 -49q-6 -14 -6 -36t18 -44t48.5 -22t52.5 21.5t22 51.5t-20 54t-50 24zM310.5 626.5q-14.5 19.5 -39 19.5t-39.5 -19.5t-15 -43t15 -44t39.5 -20.5t39 20.5t14.5 44t-14.5 43zM246 200q0 -69 156 -69t188 109h-302q-17 0 -29.5 -12t-12.5 -28z" />
    <glyph glyph-name="ch4" unicode="&#xd1d;" horiz-adv-x="2079" 
d="M2007 910q65 -195 65 -427q0 -387 -214 -479q-52 -22 -121 -22q-119 0 -207 105q-84 -105 -219.5 -105t-212.5 80.5t-77 211.5q0 81 10.5 160t10.5 160t-37.5 122.5t-122.5 41.5q-36 0 -67 -15q138 -128 138 -338q1 -280 -153 -384q-58 -39 -130 -39q-123 0 -196 70
q-119 115 -119 341t123 349l-50 2q-100 2 -150 -105q-38 -82 -38 -196q0 -266 119 -443h-204q-99 226 -99 433.5t88 340.5q102 155 289 155q119 0 208 -55q89 54 184 54q183 0 294.5 -83t111.5 -243q0 -83 -10.5 -164t-10.5 -147q0 -128 102 -128q59 0 90 38t31 94v610h180
v-610q-1 -87 65 -123q22 -12 64 -12t74 30q78 72 77.5 278t-74.5 442h188zM768 336q2 43 1.5 100t-27 132.5t-90.5 109.5q-85 -50 -107 -192q-6 -38 -6 -98q1 -62 21 -130q30 -100 95 -100q107 0 113 178z" />
    <glyph glyph-name="nj" unicode="&#xd1e;" horiz-adv-x="1826" 
d="M1221 874q91 55 205 55q210 0 306.5 -127t96.5 -331t-100 -471h-207q123 244 123 464q0 282 -214 279h-36q70 -64 104 -154t34 -173q0 -185 -61 -298q-77 -143 -236 -143q-160 -1 -238 147q-62 117 -62.5 307t122.5 313q-26 2 -60 2q-76 0 -121.5 -55.5t-45.5 -143.5
v-545h-184v553q0 104 -53 147.5t-153 43.5q-174 0 -202 -204q40 38 95 38q106 0 166.5 -92.5t60.5 -207.5t-70.5 -207.5t-182.5 -92.5q-171 0 -234 246q-23 90 -23 165q0 310 177 459q91 77 227 77t227 -68q32 -24 50 -58q89 130 281 130q119 0 208 -55zM1347 336q2 42 2 98
t-28.5 134.5t-88.5 109.5q-82 -46 -106 -194q-6 -39 -6 -96q-2 -58 20 -129q31 -101 95 -101q104 0 112 178zM350 390q-16 12 -48 12t-54.5 -40t-22.5 -84q0 -76 47 -112q16 -12 48 -12t54.5 40t22.5 84q1 76 -47 112z" />
    <glyph glyph-name="t1" unicode="&#xd1f;" horiz-adv-x="774" 
d="M348 526l132 14q120 0 207 -68q92 -72 92 -192q-1 -151 -119 -235q-104 -74 -283.5 -74t-294.5 98l8 241q70 -110 214 -142q44 -10 76 -10t64 4t62 14q73 26 73 75q0 70 -80 95q-22 7 -43 7l-150 -10q-104 -1 -176 89q-66 83 -66.5 178t33 152t87.5 94q105 71 263 71
q199 0 313 -104l-8 -237q-66 114 -216 146q-44 10 -81 10t-69 -6t-60 -20q-62 -33 -63 -101q0 -89 85 -89z" />
    <glyph glyph-name="t2" unicode="&#xd20;" horiz-adv-x="782" 
d="M420 -14q-196 0 -288 142q-76 117 -75 325q0 327 187 437q70 41 176 41q194 0 285 -144q74 -117 74 -325q1 -330 -183 -436q-70 -40 -176 -40zM246 448q0 -178 86 -244q34 -26 88 -26q98 0 140 95q32 70 31 182q0 283 -172.5 283t-172.5 -290z" />
    <glyph glyph-name="t3" unicode="&#xd21;" horiz-adv-x="1543" 
d="M185 -2q-130 167 -130 471q0 187 69 309q88 155 283 155q130 0 208.5 -93t78.5 -230q0 -57 -18 -157t-18 -158t28 -102.5t71 -44.5q70 0 101 51t31 113v585h181v-585q0 -60 28 -96q50 -66 109 -66q101 0 135 92q20 53 20 176q0 231 -129 489h189q119 -187 119 -473
q-1 -196 -63 -310q-80 -146 -259.5 -146t-241.5 106q-64 -110 -211 -110t-220.5 88t-73.5 226q0 51 19 157t19 168q0 150 -97 150q-97 1 -145 -87q-38 -69 -37 -166q0 -343 162 -512h-208z" />
    <glyph glyph-name="t4" unicode="&#xd22;" horiz-adv-x="1635" 
d="M982 124q-74 -142 -260 -142q-54 0 -106 23q-150 67 -149 283q0 51 19 157t19 157q0 161 -113 161q-86 1 -126 -87q-30 -65 -30 -166q0 -340 162 -512h-208q-130 177 -130 457q0 478 337 478q131 0 211.5 -95t80.5 -228q0 -57 -18 -157t-18 -157q0 -138 96 -138
q58 0 91.5 47t33.5 107v585h181v-455q0 -138 58.5 -213.5t139.5 -75.5q109 1 163 117q18 40 26 92q-40 -38 -94 -38q-104 0 -160.5 90t-56.5 211q0 118 66 209t176 91q259 0 259 -434q0 -401 -256 -489q-60 -20 -138 -20t-148.5 38.5t-107.5 103.5zM1371 748
q-44 0 -65 -41.5t-21 -82.5t21 -82.5t65 -41.5t65 41.5t21 82.5t-21 82.5t-65 41.5z" />
    <glyph glyph-name="nh" unicode="&#xd23;" horiz-adv-x="1749" 
d="M1185 823q75 104 229 104q227 -1 300 -245q28 -94 28 -200t-28 -256t-62 -225h-188q61 125 87 362q7 64 7 137q0 72 -27 144q-38 102 -114 102t-110 -30.5t-34 -100.5v-614h-180v614q0 59 -30 95.5t-92 36.5t-96 -36t-34 -96v-614h-184v530q0 107 -48.5 160t-157.5 53
q-174 0 -202 -204q40 38 95 38q104 0 160.5 -91t56.5 -209.5t-63.5 -208.5t-174.5 -90q-61 -1 -111 31q-87 56 -124 166q-36 110 -36 202q0 326 178 474q90 75 204 75t179 -24t128 -83q53 62 98.5 84.5t120.5 22.5q165 0 225 -104zM316 402q-41 0 -63.5 -40t-22.5 -84
q0 -76 47 -112q16 -12 39 -12q41 0 63.5 40t22.5 84q0 76 -47 112q-16 12 -39 12z" />
    <glyph glyph-name="th1" unicode="&#xd24;" horiz-adv-x="1251" 
d="M641 874q89 55 204 55q211 0 307.5 -127t96.5 -334.5t-100 -467.5h-207q123 246 123 456q1 209 -113 266q-44 22 -111 21h-26q138 -126 138 -338q1 -330 -193 -411q-46 -19 -105 -19q-207 -1 -275 241q-26 92 -25 197q0 206 123 329q-20 2 -61.5 2t-77.5 -31.5
t-67.5 -96.5t-31.5 -173q0 -266 119 -443h-204q-99 229 -99 436.5t86 338.5q102 154 291 154q119 0 208 -55zM653 158q106 0 114 180q2 43 2 98.5t-29 133t-88 108.5q-80 -41 -106 -192q-7 -40 -7 -65q-1 -55 7 -103q26 -160 107 -160z" />
    <glyph glyph-name="th2" unicode="&#xd25;" horiz-adv-x="969" 
d="M664 932q306 0 306 -428v-505l-912 1l8 908h185l-10 -749l115 -1v346q0 294 158 392q60 36 150 36zM664 757q-133 0 -133 -253v-346h264v346q0 107 -14 153q-30 100 -117 100z" />
    <glyph glyph-name="th3" unicode="&#xd26;" horiz-adv-x="765" 
d="M56 458q0 476 368 476q146 0 243.5 -82.5t97.5 -197.5q0 -158 -128 -218q63 -29 96 -81.5t33 -110.5q0 -117 -70 -193t-207 -76q-73 0 -158 32v174q66 -34 127.5 -34t85 27t23.5 69t-32 75.5t-80 33.5h-66v168q93 0 119 10q51 21 51 84.5t-43 99t-104 35.5
q-107 -1 -147 -105q-25 -65 -25 -185t9 -232.5t11 -226.5h-184q-2 115 -11 229t-9 229z" />
    <glyph glyph-name="th4" unicode="&#xd27;" horiz-adv-x="1192" 
d="M245 466q0 -302 171 -302q129 0 129 141v595h176v-594q0 -80 25.5 -111t78.5 -31q178 0 178 273q1 190 -75 363q-24 54 -51 110h183q81 -107 118 -329q12 -71 12 -147q0 -173 -87 -313t-244 -140q-109 1 -182 55q-26 20 -52 46q-54 -56 -92 -72q-129 -56 -247 -10
q-134 54 -194 234q-34 100 -34 223t41.5 255t87.5 198h185q-98 -202 -118 -330q-8 -56 -9 -114z" />
    <glyph glyph-name="n1" unicode="&#xd28;" horiz-adv-x="1170" 
d="M615 828q81 80 170 96q32 6 80 6q98 0 169.5 -66.5t104.5 -172t33 -232t-32.5 -263t-77.5 -196.5h-188q114 224 114 474q0 120 -22 170q-43 102 -122 102t-105 -30t-26 -111v-595h-180v595q0 141 -133 141q-140 0 -156 -193q-4 -52 -4 -142q0 -178 115 -411h-190
q-71 102 -100 318q-9 68 -9 129q0 286 134 414q72 69 206 69t219 -102z" />
    <glyph glyph-name="p1" unicode="&#xd2a;" horiz-adv-x="952" 
d="M607 307q0 -61 -11 -138h169v740h184v-904h-565q46 203 46 296.5t-50 135.5q-18 15 -44 15q-49 0 -74.5 -51t-25.5 -104q0 -125 51 -292h-184q-44 167 -44 260q0 165 73 263.5t201.5 98.5t201 -95t72.5 -225z" />
    <glyph glyph-name="p2" unicode="&#xd2b;" horiz-adv-x="1291" 
d="M607 280q0 -58 -11 -121l85 3v346q0 287 162 388q58 36 144 36q160 0 237 -130q65 -110 65 -294v-499l-905 -4q8 37 16 70q30 115 30 184t-24 116t-60 47q-58 0 -86.5 -52t-28.5 -96.5t4.5 -76.5t12.5 -63t18 -62t21 -67h-184q-9 35 -17 67q-27 106 -27 192
q0 138 71.5 235.5t199.5 97.5t202.5 -95.5t74.5 -221.5zM1102 511q0 157 -55 215q-23 24 -59 25q-62 0 -94 -85q-24 -63 -24 -155v-349h232v349z" />
    <glyph glyph-name="p3" unicode="&#xd2c;" horiz-adv-x="1613" 
d="M1250 159h187l-10 750h184l10 -909h-633v33q101 97 139 345q10 64 10 112q0 106 -41.5 181.5t-140.5 75.5q-117 0 -125 -120q-2 -35 -3 -73v-554h-182v535q0 95 -49 152t-145 57q-135 0 -189 -124q-16 -38 -23 -80q40 38 95 38q106 0 166.5 -92.5t60.5 -207.5
t-70.5 -207.5t-182.5 -92.5q-174 0 -234 246q-22 89 -21 181q0 209 93 353q107 166 307 167q135 1 227 -67q32 -24 55 -58q71 129 218 131q187 2 281 -130q80 -112 80 -299t-64 -343zM311 406q-44 0 -64 -43t-20 -85q1 -74 43 -113q16 -15 41 -15q44 0 64 43t20 85
q-1 74 -43 113q-16 15 -41 15z" />
    <glyph glyph-name="p4" unicode="&#xd2d;" horiz-adv-x="737" 
d="M525 635q41 0 41 43t-40.5 63.5t-94.5 20.5q-103 0 -148.5 -73.5t-42 -175.5t5.5 -171t3 -113t2.5 -86.5t2.5 -81t2 -68.5h-185q-1 31 -2 71.5t-2.5 85.5t-2.5 91.5t-3 120.5q-3 73 -5 168q-5 182 98.5 292.5t280.5 110.5q127 0 212 -69t85 -196.5t-81 -175.5
q-29 -18 -71 -18l-65 7q-31 0 -31 -44t23 -44l58 3q82 0 126.5 -60t44.5 -129q0 -120 -67 -175t-180 -55q-64 0 -137 22v169q43 -30 106 -30q96 0 96 54q0 32 -14.5 40.5t-41.5 8.5l-38 -1q-66 0 -107 62t-41 135t47 137.5t122 64.5z" />
    <glyph glyph-name="m1" unicode="&#xd2e;" horiz-adv-x="821" 
d="M818 8h-762v436q0 340 196 450q72 40 180 41q201 0 293.5 -132t92.5 -339v-456zM489 165h149v299q0 131 -30 185t-68.5 77t-110.5 23q-145 0 -180 -162q33 25 92 25q106 0 157 -72t51 -183t-60 -192zM383 353q0 105 -88 105q-34 0 -60 -42v-251h61q60 53 80 137
q6 26 7 51z" />
    <glyph glyph-name="y1" unicode="&#xd2f;" horiz-adv-x="1251" 
d="M1077 441q0 201 -131 463h201q80 -214 94.5 -308.5t14.5 -172.5q0 -193 -84 -311q-97 -136 -300 -136q-148 0 -210 66q-82 -66 -197 -66q-205 0 -315 159q-96 139 -96 343q0 341 170 428q43 22 102 22q100 0 165 -94q77 94 194 94q171 0 243 -231q27 -87 27 -180.5
t-39.5 -200t-107.5 -170.5l33 -8q159 -40 215 150q21 72 21 153zM670 216q103 124 103 318q0 134 -46 190q-20 24 -55 24q-62 0 -91 -95q-19 -62 -19 -154.5t19 -158.5t89 -124zM528 139q-143 145 -143 353l7 108q0 76 -30 114q-12 16 -33 15q-66 0 -90 -159q-7 -47 -7 -83
q0 -80 27 -169t90.5 -151t153.5 -32q7 2 25 4z" />
    <glyph glyph-name="r3" unicode="&#xd30;" horiz-adv-x="863" 
d="M135 0q-79 269 -79 443q0 339 222 445q78 38 190 37q204 1 306 -159q86 -134 86 -322q-1 -188 -58 -308q-72 -154 -217 -153q-120 0 -184.5 106t-64.5 233q0 222 116 302q44 30 106.5 30t94.5 -30q-17 52 -67 84q-52 31 -112 31q-114 0 -174 -88.5t-60 -207.5
q0 -206 85 -443h-190zM662 311q0 85 -44 135q-16 18 -38 18q-39 0 -58 -60q-14 -43 -14 -93q0 -89 36 -135q14 -18 36 -18q39 0 60.5 52t21.5 101z" />
    <glyph glyph-name="rh" unicode="&#xd31;" horiz-adv-x="759" 
d="M761 464q0 -184 -55 -464h-180q58 298 58 472t-80 244q-34 29 -92 29q-103 1 -147 -109q-31 -76 -31 -192q0 -222 60 -444h-182q-54 233 -54 444q0 298 119 412q85 82 234 81q315 0 345 -367q4 -55 5 -106z" />
    <glyph glyph-name="l3" unicode="&#xd32;" horiz-adv-x="985" 
d="M984 0h-928v473q0 266 134 386q80 71 200 71q231 0 303 -246q28 -96 28 -216v-172h-481v-137h560l-10 750h184zM538 494q0 164 -71 226q-29 26 -78 26q-85 0 -123 -108q-26 -73 -26 -179h297z" />
    <glyph glyph-name="lh" unicode="&#xd33;" horiz-adv-x="967" 
d="M972 577q0 -136 -116 -213q115 -59 115 -227q0 -121 -79.5 -195t-204.5 -74h-397q-17 0 -27.5 -11t-10.5 -26t11.5 -29.5t26.5 -14.5h659v-167h-689q-79 0 -135.5 62t-56.5 144t54.5 140.5t137.5 58.5h397q56 0 90 30.5t34 86.5t-28 90.5t-83 34.5h-29v189l10 -1h18
q99 0 99 132q0 85 -71 129.5t-144 44.5q-128 0 -212.5 -46.5t-97.5 -129.5q39 32 91 32q104 0 161.5 -84t57.5 -171q0 -145 -73 -218t-171 -73q-167 0 -229 196q-22 69 -22 163q0 218 92 344q116 159 370 159q198 0 325 -94t127 -262zM311 445q-54 -1 -69 -75q-4 -20 -4 -36
q0 -69 39 -100q14 -11 34 -11q54 1 69 75q4 20 4 36q0 69 -39 100q-14 11 -34 11z" />
    <glyph glyph-name="zh" unicode="&#xd34;" horiz-adv-x="855" 
d="M409 434q-83 83 -83 214t73 207t192.5 76t192 -81t72.5 -193.5t-20 -160.5q-38 -93 -137 -171q50 -54 50 -120q0 -116 -75.5 -171t-207 -55t-213.5 61.5t-82 174.5h189q0 -57 71 -77q21 -6 49 -5q28 0 55 18.5t27 52.5t-29 69q-44 -11 -103 -11h-1q-177 0 -276 123
t-99 294q0 124 54 230h201q-69 -86 -69 -243q0 -156 91 -212q32 -20 78 -20zM501 641q0 -171 92 -171q65 0 87 97q6 27 6 71t-25.5 87.5t-71.5 43.5t-67 -41.5t-21 -86.5z" />
    <glyph glyph-name="v1" unicode="&#xd35;" horiz-adv-x="1044" 
d="M743 570q4 -54 4 -136t-28 -265h125v741h197v-910h-537q59 305 59 464q0 279 -159 279q-168 0 -168 -299q0 -220 60 -444h-185q-55 239 -55 444q0 298 113 410q84 82 232 83q315 1 342 -367z" />
    <glyph glyph-name="z1" unicode="&#xd36;" horiz-adv-x="1233" 
d="M375 -25q-320 0 -320 462q0 179 69 363q22 58 50 110h190q-93 -140 -118 -388q-7 -70 -7 -141t25 -138q34 -91 106 -91q44 0 71 35.5t27 79.5t-22 129t-22 149.5t24 138.5q24 76 74 130q108 118 305 117q247 -1 341 -171q72 -129 72 -357q0 -155 -60 -275
q-74 -150 -205 -150t-199 123q-56 102 -57 234q-1 213 119 297q44 32 104 32t96 -30q-44 122 -217 122q-106 0 -159.5 -64t-53.5 -169q0 -45 21.5 -119.5t21.5 -127.5q0 -126 -66.5 -213.5t-209.5 -87.5zM1046 321q0 91 -42 145q-16 20 -39 20q-39 0 -59 -66
q-13 -44 -13 -99t13 -99q20 -66 59 -66q40 0 60.5 57t20.5 108z" />
    <glyph glyph-name="sh" unicode="&#xd37;" horiz-adv-x="1364" 
d="M1362 0h-980q8 36 16 66q30 106 30.5 159t-22.5 93t-71.5 40t-74.5 -43t-26 -82t4 -64.5t10.5 -51t16 -53.5t20.5 -64h-184q-9 36 -17 65q-28 94 -28 169q0 118 74 204.5t202 86.5t201.5 -83.5t73.5 -195.5q0 -25 -4 -38.5t-9 -43.5h246l10 226q-14 -2 -26 -2h-25
q-124 0 -210 77.5t-86 197.5t71.5 193t186.5 73q117 0 195.5 -74.5t78.5 -191.5v-78q117 0 133 195q3 42 0 129h184zM693 678q1 -74 69 -100q20 -8 42 -7.5t46 2.5v90q0 34 -23 60.5t-57.5 26.5t-55.5 -22t-21 -50zM1178 164l-10 297q-64 -54 -133 -66l-10 -231h153z" />
    <glyph glyph-name="s1" unicode="&#xd38;" 
d="M1225 -19q-354 0 -354 316q0 56 13 157t13 156q0 143 -97 143q-62 0 -90.5 -46t-28.5 -113v-584h-186v585q0 158 -95 158q-133 -1 -151 -151q-7 -60 -6.5 -93t0.5 -89t29.5 -194.5t66.5 -225.5h-196q-89 251 -89 425.5t16 243.5q30 131 102.5 196t217.5 65q70 0 117 -22
t83 -82q39 63 94 84q56 20 128 20q139 0 207.5 -84t68.5 -228q0 -47 -14 -156t-14 -156q0 -158 120 -158q142 0 136 227q0 22 -1 42q0 340 -147 493h215q121 -157 121 -488q0 -248 -114 -367q-72 -74 -165 -74z" />
    <glyph glyph-name="h1" unicode="&#xd39;" horiz-adv-x="1439" 
d="M380 0q48 212 48 282.5t-22.5 116.5t-59.5 46q-57 0 -82 -50t-25 -103q0 -127 52 -292h-190q-44 169 -44 261q0 165 74.5 264t203 99t202 -96t73.5 -227q0 -63 -11 -138h113q-6 33 -13.5 68t-18.5 95t-11 132.5t22.5 160t69.5 157.5q105 157 293 157q244 0 343 -246
q42 -104 42 -227.5t-54 -343.5q-14 -57 -26 -116h-193q14 60 28 117q56 222 56 337t-47 203t-147 88q-100 1 -154 -105q-44 -84 -44 -191.5t21.5 -207.5t63.5 -241h-563z" />
    <glyph glyph-name="uni0D3D" unicode="&#xd3d;" horiz-adv-x="922" 
d="M642 1274q58 36 128.5 36.5t151.5 -23.5v-183q-50 21 -104 21q-92 1 -132 -73q-28 -52 -36 -157h199v-172h-214q-8 -93 -15.5 -182t-15.5 -177t-16 -177t-16 -169q-14 -152 -94.5 -231.5t-222.5 -79.5q-79 0 -152 24v162q55 -21 128 -21q138 0 156 156q9 92 21 209
t43 486h-180v172h195q23 284 176 379z" />
    <glyph glyph-name="uni0D3E" unicode="&#xd3e;" horiz-adv-x="506" 
d="M51 850q36 75 191 75q39 0 119.5 -39t112.5 -173.5t32 -322.5t-91.5 -295.5t-206 -107.5t-157.5 71l5 193q46 -83 105.5 -83t88.5 32q68 74 68 263q0 272 -130 272q-38 0 -74.5 -23.5t-57.5 -65.5z" />
    <glyph glyph-name="uni0D3F" unicode="&#xd3f;" horiz-adv-x="266" 
d="M-206 1056l-1 18q0 98 68.5 150.5t162 52.5t165.5 -54t72 -150v-1073h-175v1046q0 32 -21.5 48t-45.5 16t-42.5 -14.5t-18.5 -43.5v-6l2 -30q1 -11 1.5 -21t1.5 -11h-164z" />
    <glyph glyph-name="uni0D40" unicode="&#xd40;" horiz-adv-x="288" 
d="M96 939q-26 -22 -94 -22t-124.5 47t-56.5 110q0 109 61 163.5t157 54.5q168 0 227 -120q20 -40 20 -94v-1088h-190v949zM120 1096q0 26 -19 45t-45 19t-45 -18.5t-19 -45t19 -45.5t45 -19t45 19t19 45z" />
    <glyph glyph-name="u1" unicode="&#xd41;" horiz-adv-x="478" 
d="M499 23.5q38 -60.5 38 -131.5q0 -129 -77.5 -214t-191 -85t-191 85t-77.5 200q0 156 133 230q40 22 87 31q6 22 26 64q168 371 -81 706h184q155 -213 147 -429q-6 -148 -60 -272q-10 -24 -20.5 -47t-17.5 -46q63 -31 101 -91.5zM375 -112q-1 73 -65 103q-20 9 -42 9
q-70 0 -98 -70q-8 -20 -9 -53q0 -33 30.5 -67t76.5 -34q45 0 76 33t31 79z" />
    <glyph glyph-name="u2" unicode="&#xd42;" horiz-adv-x="478" 
d="M404 135q165 -70 165 -302q0 -134 -85.5 -223.5t-214.5 -89.5q-130 0 -214 89.5t-84 227.5t69 223.5t185 97.5q4 21 22 59q174 366 -82 692h184q158 -211 149 -430q-6 -145 -60 -261q-26 -56 -34 -83zM194 0q-54 -42 -54 -122t27 -116q48 -62 102 -62t91.5 49t37.5 127
t-54 124h-4q19 -29 19 -68t-26.5 -70.5t-65.5 -31.5q-38 0 -64.5 32t-26.5 70.5t18 67.5h1h-1zM195 0h-1h1z" />
    <glyph glyph-name="r1" unicode="&#xd43;" horiz-adv-x="387" 
d="M63 -257q-53 62 -127.5 62t-97.5 -18.5t-23 -35.5q0 -53 120.5 -53t194 82t73.5 213v7h-3l-35 909h184q0 -147 19.5 -464t19.5 -434q0 -218 -126 -354.5t-324 -136.5t-277 119q-28 43 -28 101q0 107 93 165.5t184 58.5t148 -23t110 -77z" />
    <glyph glyph-name="uni0D46" unicode="&#xd46;" horiz-adv-x="863" 
d="M261 593q29 26 92 26q118 0 172.5 -84t54.5 -212t-64.5 -234t-184.5 -106q-200 1 -256 247q-19 84 -19 183q0 219 86 353q102 160 309 159.5t307.5 -132.5t100.5 -329.5t-78 -463.5h-190q84 234 84 436q1 201 -129 277q-44 26 -103 26q-58 0 -114 -45.5t-68 -100.5z
M407 294q1 84 -37 128q-14 17 -46 17q-31 0 -52 -48.5t-21 -96.5q-1 -82 43 -128q16 -16 38 -17q40 0 57.5 50t17.5 95z" />
    <glyph glyph-name="uni0D47" unicode="&#xd47;" horiz-adv-x="654" 
d="M453 486q-150 0 -184 178q-39 -88 -39 -199t40 -208q18 90 68 131t102 41q93 0 152 -57t59 -149.5t-70 -162.5t-203.5 -70t-230 115t-96.5 358.5t96.5 353.5t231 110t203.5 -67t69 -161t-59.5 -153.5t-138.5 -59.5zM481 681v7q-1 27 -15 49.5t-40 22.5t-39.5 -20
t-13.5 -48t13.5 -52.5t39.5 -24.5t41 20.5t14 45.5zM481 226v7q-1 27 -15 49.5t-40 22.5t-39.5 -20t-13.5 -48t13.5 -52.5t39.5 -24.5t41 20.5t14 45.5z" />
    <glyph glyph-name="uni0D48" unicode="&#xd48;" horiz-adv-x="1707" 
d="M1111 593q29 26 92 26q118 0 172.5 -84t54.5 -212t-64.5 -234t-184.5 -106q-200 1 -256 247q-19 84 -19 183q0 219 86 353q102 160 309 159.5t307.5 -132.5t100.5 -329.5t-78 -463.5h-190q84 234 84 436q1 201 -129 277q-44 26 -103 26q-58 0 -114 -45.5t-68 -100.5z
M261 593q29 26 92 26q118 0 172.5 -84t54.5 -212t-64.5 -234t-184.5 -106q-200 1 -256 247q-19 84 -19 183q0 219 86 353q102 160 309 159.5t307.5 -132.5t100.5 -329.5t-78 -463.5h-190q84 234 84 436q1 201 -129 277q-44 26 -103 26q-58 0 -114 -45.5t-68 -100.5z
M1257 294q1 84 -37 128q-14 17 -46 17q-31 0 -52 -48.5t-21 -96.5q-1 -82 43 -128q16 -16 38 -17q40 0 57.5 50t17.5 95zM407 294q1 84 -37 128q-14 17 -46 17q-31 0 -52 -48.5t-21 -96.5q-1 -82 43 -128q16 -16 38 -17q40 0 57.5 50t17.5 95z" />
    <glyph glyph-name="uni0D4A" unicode="&#xd4a;" horiz-adv-x="2310" 
d="M458 371.5q0 -56.5 42 -99t96.5 -42.5t96 39t41.5 94.5t-38 98t-96 42.5t-100 -38t-42 -94.5zM1246 510q0 -208 -238 -386l-94 38q176 125 176 322q0 130 -93 223t-229.5 93t-230 -95.5t-111.5 -232.5l6 -8q84 118 200 118q90 0 158 -72.5t68 -167t-60 -150.5t-174.5 -56
t-186 87t-71.5 219q0 184 125 316t303 132t315 -106.5t137 -273.5zM1492 530v-84h-176v84h176zM2092 524q0 -388 -274 -388q-130 0 -190 59.5t-60 190.5v4h62q10 -56 20 -84q26 -68 124 -68q115 0 149 106q23 68 23 182q0 286 -150 286q-97 0 -126.5 -57.5t-39.5 -144.5h-62
v4q0 143 51 209.5t185 66.5q288 0 288 -366zM2222 282v506q0 126 -88 214t-212 88h-1372q-126 0 -212 -87.5t-86 -214.5v-506q0 -123 85.5 -210t212.5 -87h1372q125 0 212.5 87.5t87.5 209.5zM2310 876v-686q0 -124 -88 -211.5t-214 -87.5h-1544q-124 0 -212 88t-88 211v686
q0 124 88 212t212 88h1544q125 0 213.5 -88t88.5 -212z" />
    <glyph glyph-name="uni0D4B" unicode="&#xd4b;" horiz-adv-x="2126" 
d="M978 340q0 32 -23.5 55t-56.5 23q-70 0 -70 -84t56 -116q94 24 94 122zM898 606q80 0 80 95t-94 111q-38 -19 -52 -78q-4 -17 -4 -32q0 -96 70 -96zM1038 336q0 -100 -96 -148t-208 -48q-174 0 -268 102.5t-94 275.5t96 274q97 100 262.5 100t255.5 -78q52 -44 52 -116
q0 -148 -140 -148q-71 0 -120 36q-48 36 -48 116t56 122q-18 12 -62 12q-214 0 -214 -321t214 -321q33 0 62 12q-56 36 -56 115t49.5 115t113.5 36t104.5 -37t40.5 -99zM1290 528v-82h-178v82h178zM1888 522q0 -390 -272 -390q-132 0 -191 60.5t-59 193.5v4h60
q14 -75 40 -112q23 -40 109 -40q42 0 76 18q35 19 47 40q44 75 44 228q0 284 -152 284q-50 0 -81 -13q-55 -23 -75 -139q-4 -20 -8 -48h-60v6q0 137 50 206.5t186 69.5q286 0 286 -368zM2056 258v530q0 126 -88 214q-89 88 -214 88h-1196q-124 0 -212 -88t-88 -214v-530
q0 -122 88 -209.5t212 -87.5h1196q124 0 214 87q88 88 88 210zM2128 876v-686q0 -123 -88 -211t-212 -88h-1364q-124 0 -212 88t-88 211v686q0 124 88 212t212 88h1364q124 0 212 -88t88 -212z" />
    <glyph glyph-name="uni0D4C" unicode="&#xd4c;" horiz-adv-x="860" 
d="M140 257q99 -123 245 -123t221.5 102.5t75.5 238t-52 200.5q-20 25 -53 25t-57.5 -30.5t-24.5 -68.5v-141h-150v160q1 49 -33 71q-10 7 -38 7q-27 0 -49.5 -38t-22.5 -85t17 -96t34 -101h-168q-10 48 -20.5 92t-10.5 98t12 110.5t40 100.5t74.5 71t121.5 27t115 -74
q29 53 97 73q22 6 44 7q144 0 226 -137q70 -117 70 -245q0 -238 -125.5 -377t-320.5 -139t-268 83v189z" />
    <glyph glyph-name="xx" unicode="&#xd4d;" horiz-adv-x="41" 
d="M238 1279q7 -44 7 -89.5t-20 -93t-52 -78.5q-64 -62 -158 -62t-166 67q-71 67 -71 183q0 35 8 73h187q-11 -31 -11 -74.5t15.5 -63t35.5 -19.5t37.5 21t17.5 65.5t-10 70.5h180z" />
    <glyph glyph-name="dotreph" unicode="&#xd4e;" horiz-adv-x="0" 
d="M-669 953q-98 0 -138 91q-12 27 -12 58q0 63 44 107q46 44 106 43q61 0 105.5 -43.5t44.5 -106.5q0 -60 -42.5 -104.5t-107.5 -44.5z" />
    <glyph glyph-name="uni0D57" unicode="&#xd57;" horiz-adv-x="860" 
d="M140 257q99 -123 245 -123t221.5 102.5t75.5 238t-52 200.5q-20 25 -53 25t-57.5 -30.5t-24.5 -68.5v-141h-150v160q1 49 -33 71q-10 7 -38 7q-27 0 -49.5 -38t-22.5 -85t17 -96t34 -101h-168q-10 48 -20.5 92t-10.5 98t12 110.5t40 100.5t74.5 71t121.5 27t115 -74
q29 53 97 73q22 6 44 7q144 0 226 -137q70 -117 70 -245q0 -238 -125.5 -377t-320.5 -139t-268 83v189z" />
    <glyph glyph-name="uni0d60" unicode="&#xd60;" horiz-adv-x="930" 
d="M299 543q80 -61 196.5 -61t194.5 61q-77 -2 -125.5 55t-48.5 117q0 105 53.5 160.5t124.5 55.5q121 0 179 -77t58 -182.5t-58 -179.5q-20 -26 -47 -43q75 -45 75 -156q0 -147 -136 -227q-117 -68 -271 -68t-270 69q-140 83 -139 227q0 109 77 155q-106 71 -106 217
q0 108 56.5 186.5t161.5 78.5q137 0 182 -116q14 -36 14 -75q0 -79 -47 -138t-124 -59zM764 725q0 42 -30 61q-10 6 -21 6q-35 0 -47 -42q-4 -12 -4 -24q0 -44 30 -66q10 -7 22 -7q36 0 47 47q3 13 3 25zM330 725q0 42 -30 61q-10 6 -22 6q-36 0 -48 -42q-4 -12 -3 -24
q-1 -44 29 -66q10 -7 23 -7q37 0 48 47q3 13 3 25zM467 269q0 14 -23.5 14t-32.5 -8.5t-9 -15t26 -41.5h-77q-15 30 -15 47.5t24.5 37t70.5 19.5t69 -16q25 17 75 17q51 0 86 -25.5t35 -57.5q0 -3 -0.5 -6t-0.5 -6q13 24 13 50q0 59 -56 90q-79 -23 -157.5 -23t-160.5 23
q-55 -32 -55 -83.5t28 -77t68 -39.5v29q55 -24 116 -24t94 20.5t33 48.5q0 41 -46 41q-17 0 -27.5 -6.5t-10.5 -11.5v-30h-67v34z" />
    <glyph glyph-name="l2" unicode="&#xd61;" horiz-adv-x="1788" 
d="M765 784q109 145 316 145q123 0 230.5 -75t148.5 -199q159 -35 243 -163t84 -297q0 -237 -144.5 -408.5t-378.5 -171.5q-117 0 -238 53v211q112 -83 212 -83q174 0 268.5 117.5t94.5 278.5q0 209 -117 266l1 -48q10 -434 -269 -434q-122 0 -195 98.5t-73 233.5
t82.5 232.5t221.5 119.5q-55 82 -155.5 82t-169.5 -79t-69 -185v-478h-185v478q0 106 -63.5 183.5t-162.5 77.5q-99 -1 -157 -67q-18 -22 -28 -48q34 30 95 30q118 0 177 -109q46 -85 46 -218t-65 -238.5t-173.5 -105.5t-176.5 75q-109 120 -109 359q0 343 206 464
q75 44 185 44q210 0 318 -141zM1220 165q95 0 86 278q-1 31 -1 49q-117 -14 -155 -124q-12 -34 -11 -76q0 -42 20 -84.5t61 -42.5zM408 311q0 87 -37 135q-15 18 -37 18q-38 0 -59 -52t-21 -101q0 -85 43 -135q15 -18 37 -18q38 0 60 60q14 42 14 93z" />
    <glyph glyph-name="uni0D66" unicode="&#xd66;" horiz-adv-x="830" 
d="M440 -17q-384 -1 -384 473t384 474t383 -474q1 -474 -383 -473zM632 423q0 323 -191 323t-190 -293t191 -293t190 263z" />
    <glyph glyph-name="uni0D67" unicode="&#xd67;" horiz-adv-x="1269" 
d="M608 -318l-248 -10q-157 0 -243 90q-57 60 -57 145q0 126 101 195q74 51 218 51q26 0 58 -1v1l233 2v342q0 283 160 383q57 36 142 35q158 0 228 -119t70 -299v-493l-666 -3l-156 1h-39q-129 0 -163.5 -23.5t-34.5 -60t23 -61t57 -29.5t72 -5l240 9zM973 737
q-62 0 -93 -84q-24 -62 -24 -153v-345h229v345q0 155 -54 212q-22 25 -58 25z" />
    <glyph glyph-name="uni0D68" unicode="&#xd68;" horiz-adv-x="1028" 
d="M735 565q4 -54 4 -134t-27 -260h314l2 -166h-528q58 300 58 456q0 274 -156 274q-165 0 -165 -294q0 -216 59 -436h-182q-54 235 -54 436q0 294 111 403q83 82 228 82q309 0 336 -361z" />
    <glyph glyph-name="uni0D69" unicode="&#xd69;" horiz-adv-x="1459" 
d="M393 721q-155 0 -155 -256q0 -156 26 -251.5t85 -213.5h-184q-75 108 -99 331q-6 60 -6 109q0 264 126 389q70 70 201.5 70t212.5 -99q97 99 248.5 99t238.5 -149q72 -123 71 -293q0 -78 -19.5 -153t-40.5 -150h367l5 -154h-619q99 198 120 333q10 58 9 124
q0 264 -172 264q-113 0 -113 -136v-575h-174v575q1 136 -128 136z" />
    <glyph glyph-name="uni0D6A" unicode="&#xd6a;" horiz-adv-x="987" 
d="M162 0q-102 158 -102 385q0 152 73 278t178.5 188t215.5 62q12 0 25 -1q18 84 19 168v86l173 -1v-87q-1 -124 -25 -213q0 -1 -1 -1q198 -107 253 -366q16 -77 16 -173t-51.5 -185t-141.5 -133q-56 -27 -98.5 -27t-74.5 10q-215 68 -214 343q0 77 14.5 151.5t76.5 253.5
q-133 -19 -211 -155q-55 -96 -55.5 -200t18.5 -179.5t72 -201.5zM667 691q-5 -15 -22 -63.5t-41 -125.5t-24 -154.5t10 -110.5q27 -81 93 -81q21 0 43 11q85 41 85 187q0 231 -144 337z" />
    <glyph glyph-name="uni0D6B" unicode="&#xd6b;" horiz-adv-x="1338" 
d="M1338 557q0 -201 -74 -411l-177 8q83 227 83 392q0 34 -4 66q-21 184 -104 276q-123 136 -292 136q-54 0 -108 -16q-198 -60 -327 -310q-106 -204 -106 -419q0 -47 5 -95q28 -265 180 -379q81 -61 185.5 -61t184.5 59q130 97 129 224q0 65 -37 125t-112 87h-85l-4 170
l85 4q77 17 115 92q14 28 14 67q0 79 -53 122t-107 43q-188 0 -188 -393q0 -171 33 -339l-174 -3q-44 223 -27 470.5t144 354.5q95 80 211 80t208 -74q124 -100 124 -254.5t-111 -253.5q134 -118 134 -298q0 -212 -185 -351q-138 -103 -312 -103q-82 0 -151 29
q-375 155 -375 670q0 266 129 514q158 304 428 386q75 23 150 23q247 0 423 -194q148 -164 148 -444z" />
    <glyph glyph-name="uni0D6C" unicode="&#xd6c;" horiz-adv-x="1623" 
d="M207 844q85 75 193.5 75t189.5 -79q86 87 212 87t213 -97q93 93 221 93q167 0 285 -156q65 -86 94 -251q9 -53 9.5 -139t-40.5 -212q-60 -186 -198 -319q-232 -225 -579 -225q-84 0 -175 13l2 174q112 -10 197 -10q261 0 427 160q116 112 163 260q33 102 33 167t-6 103
q-31 177 -126 238q-41 26 -73 26q-109 0 -145 -92q-10 -26 -9.5 -42.5t0.5 -23.5l11 -584l-170 -4l-17 645q-7 47 -41.5 76.5t-85 29.5t-84 -38.5t-33.5 -85.5v-10l1 -617h-170v0l-4 624q1 6 1 12q0 50 -35 79.5t-55.5 29.5t-29.5 -3q-69 -19 -102 -79q-51 -93 -50.5 -294.5
t61.5 -366.5l-167 -5q-65 174 -65 375q0 336 147 466z" />
    <glyph glyph-name="uni0D6D" unicode="&#xd6d;" horiz-adv-x="897" 
d="M60 466q0 342 220 478q89 55 198 55t202 -61q217 -144 218 -479q0 -388 -202 -613q-151 -168 -374 -206l-29 168q165 28 276 152q158 176 158 487q0 256 -136 346q-60 39 -114.5 39t-103.5 -30q-106 -65 -133 -208q41 16 88.5 16t100.5 -30q120 -69 139 -253q2 -20 2 -39
q0 -92 -42 -159q-79 -127 -204 -127q-86 0 -153.5 60t-89 157.5t-21.5 246.5zM247 343q-2 -26 -2 -54.5t6 -44t11.5 -28.5t24 -29.5t31.5 -16.5q36 0 67 51q15 24 15 51.5t-4 67t-27 70t-41 30.5t-35 -9q-42 -24 -46 -88z" />
    <glyph glyph-name="uni0D6E" unicode="&#xd6e;" horiz-adv-x="1024" 
d="M733 562q4 -54 4 -134t-27 -259h122v726h193v-843q0 -34 -1 -46v-13q0 5 -1 10q0 -130 -95 -240t-226 -113l-332 -5l-6 151l294 6q82 2 134 62.5t52 138.5h-345q58 299 58 455q0 273 -156 273q-165 0 -165 -293q0 -216 59 -435h-181q-54 234 -54 435q0 293 111 402
q82 81 227 81q309 1 335 -359z" />
    <glyph glyph-name="uni0D6F" unicode="&#xd6f;" horiz-adv-x="1269" 
d="M133 -4q-73 178 -73 388t58 313q99 175 266 175q116 0 192 -90q85 93 211 112v284h160v-297q143 -45 233 -183t89.5 -288t-81.5 -289q-41 -70 -98 -113t-123 -43q-114 0 -182 98t-68 280q0 86 26 207t34 177q-77 -26 -114 -99q-19 -39 -21 -79l-9 -545l-160 1l4 623
q-5 39 -33.5 62t-46 23t-22.5 -1q-154 -17 -154 -325q0 -197 76 -383zM936 713q-8 -64 -33 -180t-25 -207q0 -152 59 -192q14 -9 28 -10q41 0 93.5 91t52.5 193t-55 187t-120 118z" />
    <glyph glyph-name="ml_quarter" unicode="&#xd73;" horiz-adv-x="1041" 
d="M1039 820l2 -123l-650 -3q211 -67 212 -339q-1 -363 -261 -363q-282 0 -282 424q22 401 320 402zM452 345q0 260 -139 260q-101 0 -101 -231t128 -231q112 0 112 202z" />
    <glyph glyph-name="datemark" unicode="&#xd79;" horiz-adv-x="1490" 
d="M843 905q295 0 383 -280l262 4l3 -161l-235 -4v-12q0 -276 -110 -399q-60 -67 -166 -67t-169 103q-62 103 -62 226q0 215 112 293q24 17 49 18t54 1h48l33 2q-34 60 -115 89q-36 13 -75.5 13t-81.5 -19q-76 -36 -76 -142v-558h-174v577q0 137 -129 137q-135 0 -152 -187
q-4 -54 -3 -139q0 -171 111 -398h-184q-69 99 -97 309q-9 64 -9 158t27 190q72 245 287 246q150 0 228 -99q81 99 241 99zM996 156q69 15 99 162q9 44 9 81t-6 67q-49 6 -82 6t-55.5 -10.5t-39 -31t-21.5 -126.5q16 -78 38.5 -111t57.5 -37z" />
    <glyph glyph-name="nhcil" unicode="&#xd7a;" horiz-adv-x="1854" 
d="M1706 802q146 -121 146 -398q0 -156 -60 -277q-74 -149 -220 -149q-177 0 -242 218q-24 80 -24 175q0 269 122 382q-20 4 -60 4t-85 -41t-45 -101v-614h-180v614q0 91 -70 122q-22 10 -53 10q-85 0 -107 -81q-6 -24 -7 -51v-614h-184v530q0 161 -96 199q-35 14 -85 14
q-89 0 -141.5 -56.5t-65.5 -147.5q40 38 94 38q103 0 160.5 -93t57.5 -207.5t-67 -207t-176 -92.5q-186 0 -240 246q-18 80 -18 203.5t36 232.5q87 267 363 267q147 0 262 -107q42 49 89 78t115 29q164 0 225 -104q81 110 240 110q86 0 158 -32q47 53 47 123t-53 98
q-18 9 -42 9q-49 0 -76 -44t-19 -93h-185q-2 129 70 220.5t199.5 91.5t209 -88t81.5 -209t-74 -207zM1574 673q-81 -63 -88 -215q-2 -41 -2 -95q0 -55 15 -117q22 -92 73 -92q76 0 90 206q2 22 2 69t-20.5 125.5t-69.5 118.5zM392 278q0 76 -40 111q-14 13 -36 13
q-39 0 -57.5 -39.5t-18.5 -84.5q0 -76 40 -111q14 -13 36 -13q39 0 57.5 39.5t18.5 84.5z" />
    <glyph glyph-name="n1cil" unicode="&#xd7b;" horiz-adv-x="1328" 
d="M1186 802q146 -119 146 -394q0 -154 -60 -278q-74 -152 -217 -152t-215 145q-59 118 -59 268q0 245 127 362q-25 5 -60 5q-135 0 -135 -138v-610h-180v595q0 65 -33 103t-101 38t-113 -60q-46 -60 -46 -257t115 -429h-190q-81 120 -103 340q-6 60 -6 223.5t103 265
t230.5 101.5t225.5 -102q95 101 221.5 101t191.5 -28q44 48 44 119.5t-52 99.5q-18 10 -52 9q-35 0 -62.5 -42t-20.5 -93h-185q0 131 70 222t197.5 91t210 -88.5t82.5 -209.5t-74 -207zM1059 668q-95 -73 -95 -259q0 -185 60 -245q14 -14 38 -15q46 0 66 85.5t20 165.5
q0 197 -89 268z" />
    <glyph glyph-name="r3cil" unicode="&#xd7c;" horiz-adv-x="888" 
d="M741 802q146 -119 146 -394q0 -156 -61 -278q-76 -152 -217 -152t-214 145q-59 118 -59 268q0 245 127 362q-15 3 -29 3q-90 0 -144 -116q-44 -94 -44 -203t26 -218.5t59 -218.5h-191q-59 228 -69 307t-10 157q-1 196 89 322q103 144 312 144q61 0 121 -29
q44 44 44 116.5t-50 100.5q-17 10 -53 9q-36 0 -63 -42t-21 -91h-185q0 131 70.5 221.5t197 90.5t209.5 -88.5t83 -209t-74 -206.5zM614 673q-95 -73 -95 -259q-1 -186 59 -246q14 -14 34 -14q76 0 90 206q2 23 1 47q0 195 -89 266z" />
    <glyph glyph-name="l3cil" unicode="&#xd7d;" horiz-adv-x="1527" 
d="M1376 802q146 -122 146 -394q0 -156 -61 -275q-75 -147 -217 -147t-212 141q-56 113 -56 264q0 221 122 362q-84 39 -164.5 39t-146.5 -24q126 -143 126 -363q0 -153 -51 -257q-80 -162 -225 -162t-221 149q-61 119 -61 278q0 211 119 339l-46 2q-104 4 -152 -108
q-36 -81 -36 -203q0 -266 119 -443h-204q-99 226 -99 433t89 340q104 156 288 156q128 0 204 -59q120 82 293 82t288 -51q45 47 45 116.5t-50 98.5q-17 10 -52 10t-64.5 -42t-21.5 -90h-185q-2 128 70 219t199 91t209 -87.5t82 -208t-74 -206.5zM1254 673q-90 -70 -90 -262
q0 -131 26 -193t62 -62q78 0 90 204q2 24 1 76q0 166 -89 237zM633 665q-67 -64 -88 -186q-6 -35 -6 -73q0 -36 7 -86q23 -164 90 -164q68 0 88 162q6 44 5 84q0 180 -96 263z" />
    <glyph glyph-name="lhcil" unicode="&#xd7e;" horiz-adv-x="1253" 
d="M1118 775q134 -153 134 -382t-112 -342q-64 -65 -156 -65q-178 0 -246 226q-26 85 -26 178q0 235 115 375q-28 5 -75 5t-95.5 -39t-48.5 -102.5t16.5 -162.5t16.5 -158q0 -127 -77 -222t-202 -95q-212 1 -281 243q-26 92 -26 203q0 260 119 473h195q-95 -138 -122 -352
q-8 -64 -8 -139t21 -143q32 -102 104 -102q65 0 87 76q6 21 6 62t-16.5 146t-16.5 172q0 140 89 225.5t219.5 85.5t245.5 -51q36 45 36 119.5t-59 105.5q-19 10 -55 10t-63.5 -40t-21.5 -91h-185q-2 131 71 220t198.5 89t207.5 -84t82 -221.5t-71 -222.5zM985 669
q-83 -89 -83 -288q0 -128 45 -193q19 -26 47 -26q48 0 70 76q15 51 15 101q0 233 -94 330z" />
    <glyph glyph-name="k1cil" unicode="&#xd7f;" horiz-adv-x="1293" 
d="M1091 951q0 178 -92 178q-51 0 -83 -44.5t-14 -89.5h-184l-1 49q-4 115 82 187t208.5 72t193.5 -85t71 -216.5t-67.5 -258.5t-178.5 -178q192 -15 249 -183q18 -52 18 -112q0 -124 -67 -210.5t-177.5 -86.5t-175.5 69q-76 -65 -191.5 -65t-172.5 52q-69 -58 -147 -58
q-138 0 -221 88.5t-83 211t84.5 209t210.5 86.5q24 250 184 330q58 29 148.5 29t164 -52t113.5 -142q63 20 95.5 95.5t32.5 124.5zM810 566q-12 122 -72 160q-24 16 -62 15q-123 0 -139 -175h273zM1109 256q0 136 -84 136h-27q-5 -113 -32 -194q34 -44 70 -44t54.5 35
t18.5 67zM532 392q6 -232 144 -232q131 0 138 232h-282zM393 163q-38 89 -45 229h-3q-46 0 -74.5 -38.5t-28.5 -85.5q0 -45 29 -79.5t74 -34.5q13 0 24.5 3.5t23.5 5.5z" />
    <glyph glyph-name="ZWNJ" unicode="&#x200c;" horiz-adv-x="324" 
d="M66 44v988h160v-988h-160z" />
    <glyph glyph-name="ZWJ" unicode="&#x200d;" horiz-adv-x="324" 
d="M226 44l-2 878l-70 108h-12l-76 -116v-870h160zM388 834h-106l-58 88v108h-70l-6 10l-6 -10l-76 2v-118l-52 -80h-103l185 272l-171 248h107l114 -180l124 180h106l-178 -244z" />
    <glyph glyph-name="endash" unicode="&#x2013;" horiz-adv-x="793" 
d="M795 272h-741v168h741v-168z" />
    <glyph glyph-name="emdash" unicode="&#x2014;" horiz-adv-x="1261" 
d="M1265 272h-1211v168h1211v-168z" />
    <glyph glyph-name="quoteleft" unicode="&#x2018;" horiz-adv-x="302" 
d="M230 1276h35q-68 -76 -85 -192q55 -11 89 -42t34 -82.5t-31.5 -84.5t-85.5 -33t-89.5 41.5t-35.5 93.5q0 101 45 182.5t124 116.5z" />
    <glyph glyph-name="quoteright" unicode="&#x2019;" horiz-adv-x="302" 
d="M126 834h-35q68 76 85 192q-55 11 -89 42t-34 82.5t31.5 84.5t85.5 33t89.5 -41.5t35.5 -93.5q0 -101 -45 -182.5t-124 -116.5z" />
    <glyph glyph-name="quotesinglbase" unicode="&#x201a;" horiz-adv-x="359" 
d="M358 34l-190 -480h-114l80 480h224z" />
    <glyph glyph-name="quotedblleft" unicode="&#x201c;" horiz-adv-x="555" 
d="M555 973q0 -48 -28 -78.5t-78.5 -30.5t-92.5 49q-24 28 -23 101q0 73 43 152q43 80 118 112h11q-57 -73 -75 -189q125 -25 125 -116zM285 973q0 -48 -28 -78.5t-78.5 -30.5t-92.5 49q-24 28 -23 101q0 73 43 152q43 80 118 112h11q-57 -73 -75 -189q125 -25 125 -116z
" />
    <glyph glyph-name="quotedblright" unicode="&#x201d;" horiz-adv-x="555" 
d="M61 1166q0 48 28 78.5t78.5 30.5t92.5 -49q24 -28 23 -101q0 -73 -43 -152q-43 -80 -118 -112h-11q57 73 75 189q-125 25 -125 116zM331 1166q0 48 28 78.5t78.5 30.5t92.5 -49q24 -28 23 -101q0 -73 -43 -152q-43 -80 -118 -112h-11q57 73 75 189q-125 25 -125 116z" />
    <glyph glyph-name="quotedblbase" unicode="&#x201e;" horiz-adv-x="644" 
d="M648 41l-190 -480h-114l80 480h224zM368 41l-190 -480h-114l80 480h224z" />
    <glyph glyph-name="bullet" unicode="&#x2022;" horiz-adv-x="692" 
d="M518 366q-72 -72 -172 -72t-172 72t-72 172t72 172t172 71q100 1 172 -71t72 -172t-72 -172z" />
    <glyph glyph-name="ellipsis" unicode="&#x2026;" horiz-adv-x="1227" 
d="M1124 0h-211v262h211v-262zM719 0h-211v262h211v-262zM313 0h-211v262h211v-262z" />
    <glyph glyph-name="guilsinglleft" unicode="&#x2039;" horiz-adv-x="369" 
d="M365 -14l-311 355v230l311 354v-200l-165 -271l165 -266v-202z" />
    <glyph glyph-name="guilsinglright" unicode="&#x203a;" horiz-adv-x="369" 
d="M365 341l-311 -355v202l165 266l-165 271v200l311 -354v-230z" />
    <glyph glyph-name="fraction" unicode="&#x2044;" horiz-adv-x="796" 
d="M704 1130l-515 -1132h-134l515 1132h134z" />
    <glyph glyph-name="uni2074" unicode="&#x2074;" horiz-adv-x="427" 
d="M428 856h-49v-100h-110v100h-217v91l208 341h119v-321h49v-111zM269 967v155l-89 -155h89z" />
    <glyph glyph-name="Euro" unicode="&#x20ac;" horiz-adv-x="995" 
d="M684 198q54 -10 140.5 -10t183.5 29v-192q-108 -36 -238 -36q-410 0 -495 419h-233v129h216q-4 47 -4 81v50q0 16 2 34h-214v132h229q38 229 165 342.5t330 113.5q132 0 228 -37v-190q-90 27 -214 27t-204 -57t-109 -199h427v-132h-443v-118q0 -24 2 -47h441v-129h-421
q48 -178 211 -210z" />
    <glyph glyph-name="uni20B9" unicode="&#x20b9;" horiz-adv-x="1101" 
d="M1027 1250h-239q42 -54 59 -137h233l-53 -121h-178q-19 -149 -129 -234t-262 -96l466 -659h-206l-461 626v123h122q205 0 283 130q32 52 31 109v1h-483l64 121h405q-45 113 -178 129q-51 8 -135 8h-156l64 120h806z" />
    <glyph glyph-name="minus" unicode="&#x2212;" horiz-adv-x="2048" 
 />
    <glyph glyph-name="uni2215" unicode="&#x2215;" horiz-adv-x="939" 
d="M936 1302l-745 -1584h-100l745 1584h100z" />
    <glyph glyph-name="uni25CC" unicode="&#x25cc;" horiz-adv-x="956" 
d="M232 92q-78 50 -94 70h-2l-44 64l90 60q43 -64 56 -74t56 -36zM398 132q50 -10 80 -10t84 10l16 -102q-38 -10 -96 -10t-102 10zM148 370l-108 -16q-20 91 0 186l108 -16q-10 -27 -10 -76t10 -78zM232 802l62 -84q-67 -37 -78 -58q-20 -26 -34 -52l-90 62q44 64 60 78
q16 15 80 54zM780 286l90 -60q-47 -69 -70 -90h-2q-8 -8 -34 -23.5t-34 -20.5l-62 84q66 39 79.5 58.5t21.5 33t11 18.5zM816 370q8 54 8 80t-8 74l104 16q24 -91 0 -186zM562 764q-54 8 -83 8t-81 -8l-18 100q60 12 101 12t97 -12zM718 686q-30 22 -50 32l62 84
q72 -46 96 -70q30 -40 44 -62l-90 -62q-38 66 -60 78h-2z" />
    <glyph glyph-name="uniE0FF" unicode="&#xe0ff;" horiz-adv-x="2048" 
 />
    <glyph glyph-name="uniEFFD" unicode="&#xeffd;" horiz-adv-x="2048" 
 />
    <glyph glyph-name="uniF000" unicode="&#xf000;" horiz-adv-x="2048" 
 />
    <glyph glyph-name="r4" horiz-adv-x="306" 
d="M1032 -380h-451q-182 0 -300 116.5t-172.5 291t-54.5 346.5t26.5 292.5t102.5 242.5h240q-157 -179 -179 -385q-8 -70 -7.5 -273.5t132.5 -328t276 -124.5h355z" />
    <glyph glyph-name="y2" horiz-adv-x="294" 
d="M115 44l-39 844h180l38 -836q1 -10 1 -18v-16q0 -165 -87 -245.5t-183.5 -80.5t-150.5 52q-16 16 -25 34v214q12 -48 55.5 -82.5t91.5 -34.5q49 0 84 42t35 127z" />
    <glyph glyph-name="y2u1" horiz-adv-x="294" 
d="M237 -192q134 -63 134 -194q0 -95 -64 -163t-154 -68t-154 68t-64 163q0 46 19 86q-82 22 -105 78v214q12 -48 55.5 -82.5t92.5 -34.5t83 42.5t34 126.5v23l-38 821h180l38 -836q1 -10 1 -18v-16q0 -125 -58 -210zM215 -441.5q25 27.5 25 64.5t-25.5 64t-61.5 27
t-61.5 -27t-25.5 -64t25 -64.5t62 -27.5t62 27.5z" />
    <glyph glyph-name="y2u2" horiz-adv-x="294" 
d="M295 18q0 -112 -42 -185q117 -31 155 -146q14 -40 14 -92q0 -107 -69 -179.5t-174 -72.5t-173.5 72.5t-68.5 181.5q0 57 20 102q-85 22 -108 79v214q12 -48 55.5 -82.5t92.5 -34.5t83 42.5t34 126.5v23l-38 821h180l38 -836q1 -10 1 -18v-16zM233 -261q19 -25 19 -58.5
t-21 -59.5t-53 -26t-53 25.5t-21 49.5t3 38l-12 -4q-21 -36 -21 -85q0 -50 30.5 -90t74.5 -40t74.5 40t30.5 85q0 89 -51 125z" />
    <glyph glyph-name="v2" horiz-adv-x="254" 
d="M259 -219h-450v174h267l-3 784h172z" />
    <glyph glyph-name="k1u1" horiz-adv-x="1288" 
d="M1288 416q0 -110 -58 -151q48 -34 48 -112t-59 -120t-141 -42q-24 0 -56 9v152q15 -12 31 -12q50 0 50 39q0 30 -33 30q-9 0 -18 -1v146h22q29 0 29 35t-54 35h-58q-25 -442 -330 -442q-103 0 -157 49q-58 -49 -137 -49q-145 0 -227 84t-82 215.5t81.5 221.5t210.5 90
q15 142 99.5 237t219.5 95t222.5 -98t95.5 -234h61q166 0 220 -104q20 -37 20 -73zM808 593q-11 103 -82 140q-25 13 -70 13t-82.5 -45t-44.5 -108h279zM524 424q11 -269 147 -269q142 0 142 269h-289zM393 158q-37 89 -47 266h-6q-50 0 -77.5 -44.5t-27.5 -83.5
q0 -145 99 -145q15 0 29.5 2.5t29.5 4.5z" />
    <glyph glyph-name="k1u2" horiz-adv-x="1199" 
d="M946 22q88 0 88 87q0 47 -44 47h-30v163h6q68 -5 68 51q0 64 -76 71q-20 2 -39 2h-13q-16 -371 -292 -371q-99 0 -150 46q-63 -51 -132 -51q-123 0 -198.5 78.5t-75.5 191.5t75.5 190.5t188.5 77.5q24 225 166 295q52 26 126 26q254 0 288 -321h72q95 0 162 -65
t67 -153.5t-53 -147.5q52 -65 52 -153t-60 -153.5t-152 -65.5l-710 2q-17 0 -28.5 -14t-11.5 -30.5t11.5 -29t28.5 -12.5h858v-163h-888q-80 0 -136.5 60.5t-56.5 143.5q0 81 55 139.5t138 58.5h696zM730 605q-12 107 -62 137q-22 13 -54 13q-104 0 -120 -150h236zM734 443
h-245q4 -135 60 -181q25 -20 65 -19q72 0 99 70q18 45 21 130zM356 245q-34 85 -38 198q-40 0 -64.5 -33t-24.5 -73t23.5 -69.5t65.5 -29.5q10 0 19.5 2.5t18.5 4.5z" />
    <glyph glyph-name="k1r1" horiz-adv-x="1306" 
d="M355 563q39 362 321 362q150 1 232 -111q68 -92 84 -251q8 -2 13.5 -2t9.5 -1q141 -25 214.5 -134.5t73.5 -262.5q0 -233 -153.5 -428t-403.5 -195q-214 0 -300 114q-30 40 -30 97q0 104 93.5 156.5t215.5 52.5q183 0 258 -86l-79 -109q-57 53 -171 53t-114 -67
q0 -60 131 -60q170 0 273 154.5t103 324.5q0 79 -27.5 136.5t-83.5 70.5q-3 1 -8 1t-11 2q-10 -274 -170 -368q-60 -35 -160.5 -35t-156.5 54q-71 -60 -149 -60q-138 0 -218.5 87t-80.5 211t83 209t211 85zM813 563q-11 130 -71 167q-26 16 -66 16q-72 0 -108 -58
q-24 -40 -34 -125h279zM818 394h-289q6 -106 24 -149q38 -90 123 -90q121 0 136 161q4 42 6 78zM239 280q-1 -90 61 -120q20 -10 35 -10t35 4t28 4q-40 95 -47 236h-6q-48 0 -77 -39t-29 -75z" />
    <glyph glyph-name="k1l1" horiz-adv-x="1293" 
d="M355 582q39 343 321 343q222 -1 288 -211q20 -62 28 -132h33q120 0 192.5 -82t72.5 -198t-68 -200t-187 -84h-17v171h17q77 0 77 111q0 80 -44 110q-16 12 -43 11h-29q-15 -277 -168 -363q-60 -34 -163.5 -34t-155.5 52q-71 -58 -149 -58q-138 0 -218.5 83t-80.5 201
t83 199t211 81zM317 -162q35 19 70 19q70 0 121.5 -51.5t51.5 -110.5q0 -103 -61 -157.5t-145 -54.5t-147 63t-63 178.5t77 201t232 85.5q89 0 132 -17.5t98 -68.5q53 51 96 68.5t130 17.5q159 0 236 -85.5t77 -201.5t-62.5 -178.5t-147 -62.5t-145.5 54.5t-61 136
t52.5 132.5t104 51t87.5 -19q-29 42 -100 54t-115 -7q-83 -36 -83 -99v-293h-138v293q0 62 -68 92q-94 40 -188 -4q-24 -12 -41 -36zM813 582q-11 123 -71 158q-26 15 -66 15q-73 0 -102.5 -46.5t-39.5 -126.5h279zM818 421h-289q6 -101 24 -142q38 -85 123 -85
q121 0 136 153q4 40 6 74zM1077 -326q0 48 -36 74q-13 10 -32 10q-33 0 -47.5 -28.5t-14.5 -55.5q0 -50 31 -74q12 -10 31 -9q33 0 50.5 28t17.5 55zM345 189l43 7q3 0 10 1q-40 90 -47 224h-6q-48 0 -77 -37t-29 -83t29 -79t77 -33zM419 -326q0 48 -31 74q-12 10 -38 10
t-43.5 -28.5t-17.5 -55.5q0 -46 37 -74q13 -10 39 -9q26 0 40 28t14 55z" />
    <glyph glyph-name="k1k1" horiz-adv-x="1568" 
d="M509 39q-54 -68 -170 -68t-198.5 86.5t-82.5 212t84 211t211 85.5q25 257 183 339q58 30 135 30q78 0 145.5 -35t95.5 -92q46 79 194 101q40 6 77 6q198 0 293.5 -124t95.5 -324.5t-80 -466.5h-188q84 271 84 464q0 122 -45.5 196t-141.5 74q-97 0 -149.5 -28.5
t-73.5 -93.5l9 -46h82q106 0 169.5 -92t63.5 -203t-71.5 -202t-169 -91t-151.5 47q-18 16 -27 37q-38 -62 -147 -80q-31 -5 -60 -5q-134 0 -167 62zM1120 274q0 72 -36 106q-13 12 -33 12h-61q-4 -36 -6 -72.5t-10 -71.5q7 -52 48 -77q13 -8 38 -8t42.5 37.5t17.5 73.5z
M810 566q-8 83 -27 117q-38 68 -107 68q-100 0 -128 -120q-8 -33 -11 -65h273zM814 392h-282q3 -99 22 -143q39 -89 122 -89q118 0 133 156q4 41 5 76zM393 163q-38 89 -45 229h-3q-46 0 -74.5 -38.5t-28.5 -85.5q0 -48 29 -81t74 -33q13 0 24.5 3.5t23.5 5.5z" />
    <glyph glyph-name="k1k1u1" horiz-adv-x="1639" 
d="M931 811q101 120 296 120q158 0 285 -86t127 -223q0 -136 -85 -203q80 -56 80 -171q0 -116 -64 -195q-64 -78 -169 -78q-50 0 -105 24l1 180q29 -29 66 -29t63 26t26 66.5t-42 64.5t-91 21v174h36q33 0 53 27q21 27 21 83t-67 97q-67 40 -153 40t-151 -46
q-64 -46 -64 -132v-5h54q97 0 164 -80t67 -192q0 -111 -68 -217q-68 -105 -184 -105q-45 0 -84.5 24.5t-59.5 65.5q-65 -90 -195.5 -90t-178.5 67q-61 -67 -172 -67t-195 87t-84 211q0 123 86 209q86 87 209 87q13 156 99 259q86 102 237 102q69 0 134.5 -29.5t107.5 -86.5z
M810 570q0 171 -134 171q-64 0 -100 -53t-39 -122h273v4zM978 289q0 -129 61 -129q45 0 58 84q3 20 3 48t-16 64t-54 36h-36q-16 -35 -16 -103zM814 359v33h-282v-4q0 -144 74 -205q28 -23 92 -23t95 61q21 42 21 138zM393 163q-38 89 -45 229h-3q-45 0 -74 -39t-29 -83.5
t30 -80.5q30 -35 64 -35t57 9z" />
    <glyph glyph-name="k1k1u2" horiz-adv-x="1540" 
d="M594 926q174 0 233 -100q84 105 279 105t314.5 -91.5t119.5 -237.5t-119 -223q107 -71 107 -232q0 -123 -79 -200.5t-202 -77.5h-967q-17 0 -28.5 -14t-11.5 -30.5t11.5 -29t28.5 -12.5h1236v-163h-1266q-80 0 -136.5 62t-56.5 143t56 139t137 58h967q88 0 118 83
q9 25 9 68t-36 79t-94 32v185h7q52 -2 86 38.5t34 90.5q0 88 -66.5 126.5t-172.5 38.5t-176 -64q-26 -23 -36 -57l7 -36h69q95 0 154 -82t59 -184t-65 -185t-166 -83q-73 0 -121 38q-17 14 -27 33q-54 -72 -176 -72t-159 53q-49 -58 -152.5 -58t-179 79.5t-75.5 192
t75.5 189.5t188.5 79q24 224 168 294q52 26 104 26zM730 606q-16 146 -114 146q-86 0 -110 -93q-6 -26 -9 -53h233zM900 441q-10 -106 -14 -122q8 -45 40 -65q11 -6 31 -6t35 30t15 64t-14.5 66.5t-42.5 32.5h-50zM492 441q8 -196 124 -196q70 1 97 69q18 45 21 127h-242z
M356 246q-34 83 -38 195q-37 0 -61.5 -33t-24.5 -72t24.5 -67.5t63.5 -28.5q9 0 36 6z" />
    <glyph glyph-name="k1k1r1" horiz-adv-x="1577" 
d="M509 39q-54 -68 -170 -68t-198.5 86.5t-82.5 212t84 211t211 85.5q25 257 183 339q58 30 135 30q78 0 145.5 -35t95.5 -92q46 77 168 102q38 8 81 8q200 0 307 -162t107 -402q-1 -310 -159 -550q-108 -163 -275 -230q-85 -34 -163 -34q-153 0 -248 48q-114 58 -114 162
t97.5 157t221.5 53q180 0 255 -86l-79 -109q-57 53 -156 53q-136 0 -136 -67q0 -60 135 -60q134 -1 240 109q143 149 187 416q13 80 13 155q0 251 -125 337q-42 29 -103 29t-115.5 -35t-72.5 -90l9 -46h82q106 0 169.5 -92t63.5 -203t-71.5 -202t-169 -91t-151.5 47
q-18 16 -27 37q-38 -62 -147 -80q-31 -5 -60 -5q-134 0 -167 62zM810 566q-8 83 -27 117q-38 68 -107 68q-100 0 -128 -120q-8 -33 -11 -65h273zM1120 274q0 72 -36 106q-13 12 -33 12h-61q-4 -36 -6 -72.5t-10 -71.5q7 -52 48 -77q13 -8 38 -8t42.5 37.5t17.5 73.5z
M814 392h-282q3 -99 22 -143q39 -89 122 -89q118 0 133 156q4 41 5 76zM393 163q-38 89 -45 229h-3q-46 0 -74.5 -38.5t-28.5 -85.5q0 -48 29 -81t74 -33q13 0 24.5 3.5t23.5 5.5z" />
    <glyph glyph-name="k1k1r3" horiz-adv-x="1831" 
d="M643 163q-38 89 -45 229h-3q-46 0 -74.5 -38.5t-28.5 -85.5q0 -48 29 -81t74 -33q13 0 24.5 3.5t23.5 5.5zM1064 392h-282q3 -99 22 -143q39 -89 122 -89q118 0 133 156q4 41 5 76zM1370 274q0 72 -36 106q-13 12 -33 12h-61q-4 -36 -6 -72.5t-10 -71.5q7 -52 48 -77
q13 -8 38 -8t42.5 37.5t17.5 73.5zM1060 566q-8 83 -27 117q-38 68 -107 68q-100 0 -128 -120q-8 -33 -11 -65h273zM397 909q-166 -205 -166 -593q0 -114 43.5 -221.5t133.5 -176.5q174 -134 539.5 -134t532 134t166.5 452q0 256 -133 346q-45 30 -105 30t-110 -35.5
t-70 -98.5l9 -46h82q106 0 169.5 -92t63.5 -203t-71.5 -202t-169 -91t-151.5 47q-18 16 -27 37q-38 -62 -147 -80q-31 -5 -60 -5q-134 0 -167 62q-54 -68 -170 -68t-198.5 86.5t-82.5 212t84 211t211 85.5q25 257 183 339q58 30 135 30q78 0 144.5 -35t97.5 -92
q71 123 235 123q208 0 317.5 -163t109.5 -383t-55 -362q-54 -142 -166 -232q-216 -174 -671 -174t-665.5 173.5t-210.5 571.5q0 235 75 432q24 63 55 115h210z" />
    <glyph glyph-name="k1k1r3u1" horiz-adv-x="1831" 
d="M397 909q-166 -205 -166 -593q0 -114 90.5 -323t550 -209t617 132.5t157.5 453.5q0 256 -133 346q-45 30 -105 30t-110 -35.5t-70 -98.5l9 -46h82q106 0 169.5 -92t63.5 -203t-71.5 -202t-169 -91t-151.5 47q-18 16 -27 37q-38 -62 -147 -80q-31 -5 -60 -5
q-134 0 -167 62q-54 -68 -170 -68t-198.5 86.5t-82.5 212t84 211t211 85.5q25 257 183 339q58 30 135 30q78 0 144.5 -35t97.5 -92q71 123 235 123q208 0 317.5 -163t109.5 -403q0 -170 -30 -298t-110 -217q122 -70 122 -222q0 -115 -77.5 -200t-191.5 -85t-191.5 85
t-77.5 200q0 10 1 15q-146 -26 -344 -26q-431 0 -650 174.5t-219 570.5q0 235 75 432q24 63 55 115h210zM1060 566q-8 83 -27 117q-38 68 -107 68q-100 0 -128 -120q-8 -33 -11 -65h273zM1370 274q0 72 -36 106q-13 12 -33 12h-61q-4 -36 -6 -72.5t-10 -71.5q7 -52 48 -77
q13 -8 38 -8t42.5 37.5t17.5 73.5zM1064 392h-282q3 -99 22 -143q39 -89 122 -89q118 0 133 156q4 41 5 76zM1637 -405q8 20 8 51t-23 62t-60 40q-55 -35 -119 -58q-12 -24 -12 -60t30.5 -70t76.5 -34q45 0 68 24.5t31 44.5zM643 163q-38 89 -45 229h-3q-46 0 -74.5 -38.5
t-28.5 -85.5q0 -48 29 -81t74 -33q13 0 24.5 3.5t23.5 5.5z" />
    <glyph glyph-name="k1k1r3u2" horiz-adv-x="1831" 
d="M397 909q-166 -205 -166 -593q0 -114 90.5 -323t550 -209t617 132.5t157.5 453.5q0 256 -133 346q-45 30 -105 30t-110 -35.5t-70 -98.5l9 -46h82q106 0 169.5 -92t63.5 -203t-71.5 -202t-169 -91t-151.5 47q-18 16 -27 37q-38 -62 -147 -80q-31 -5 -60 -5
q-134 0 -167 62q-54 -68 -170 -68t-198.5 86.5t-82.5 212t84 211t211 85.5q25 257 183 339q58 30 135 30q78 0 144.5 -35t97.5 -92q71 123 235 123q208 0 317.5 -163t109.5 -403q0 -168 -29 -294.5t-107 -216.5q155 -74 155 -278q0 -126 -85.5 -216t-214.5 -90t-214 89
t-85 224q0 28 4 56q-133 -22 -337 -22q-433 0 -644 173.5t-211 571.5q0 235 75 432q24 63 55 115h210zM1060 566q-8 83 -27 117q-38 68 -107 68q-100 0 -128 -120q-8 -33 -11 -65h273zM1370 274q0 72 -36 106q-13 12 -33 12h-61q-4 -36 -6 -72.5t-10 -71.5q7 -52 48 -77
q13 -8 38 -8t42.5 37.5t17.5 73.5zM1064 392h-282q3 -99 22 -143q39 -89 122 -89q118 0 133 156q4 41 5 76zM1610 -242q24 -32 24 -73t-26.5 -73t-65.5 -32q-38 0 -64.5 32t-26.5 75v6q-6 -2 -12 -4.5t-13 -4.5q-11 -35 -11 -68q0 -68 27 -104q48 -62 102 -62t91.5 49
t37.5 104q0 111 -63 155zM643 163q-38 89 -45 229h-3q-46 0 -74.5 -38.5t-28.5 -85.5q0 -48 29 -81t74 -33q13 0 24.5 3.5t23.5 5.5z" />
    <glyph glyph-name="k1t1" horiz-adv-x="1293" 
d="M355 582q38 343 321 343q221 0 264.5 -135.5t51.5 -207.5h33q119 0 192 -80.5t73 -201.5q0 -119 -69 -200.5t-186 -81.5h-17v171q77 -3 85.5 41t8.5 70q0 121 -94 121h-22q-14 -283 -126.5 -340t-209.5 -57t-151 52q-115 -93 -246 -45t-166.5 126.5t-35.5 142.5t23 115
t84 109t187 58zM801 -199l91 7q129 0 169.5 -51t40.5 -95t-27 -76.5t-83 -59.5t-176 -27t-203 54l6 137q71 -86 212 -86q71 0 99 16q28 18 28 32t-9 23.5t-28 18.5t-46 9l-104 -5q-67 0 -118.5 44t-51.5 101t27.5 88.5t83.5 57t176 25.5t201 -56l-6 -135q-66 88 -213 88
q-79 0 -102.5 -22t-23.5 -43q0 -45 57 -45zM813 582q-11 121 -55 147t-83 26t-64.5 -15t-46 -47t-30.5 -111h279zM818 421h-289q6 -99 34.5 -163t112.5 -64q121 0 130.5 95t11.5 132zM398 197q-40 88 -47 224h-6q-43 0 -74.5 -33.5t-31.5 -67.5q0 -33 6.5 -55.5t27.5 -49
t72 -26.5q14 0 27 3t26 5z" />
    <glyph glyph-name="k1t1r3" horiz-adv-x="1293" 
d="M355 582q39 343 321 343q222 -1 288 -211q20 -62 28 -132h33q120 0 192.5 -82t72.5 -198t-68 -200t-187 -84h-17v171h17q77 0 77 111q0 80 -44 110q-16 12 -43 11h-29q-15 -277 -168 -363q-60 -34 -163.5 -34t-155.5 52q-71 -58 -149 -58q-138 0 -218.5 83t-80.5 201
t83 199t211 81zM813 582q-11 123 -71 158q-26 15 -66 15q-73 0 -102.5 -46.5t-39.5 -126.5h279zM818 421h-289q6 -101 24 -142q38 -85 123 -85q121 0 136 153q4 40 6 74zM345 189l43 7q3 0 10 1q-40 90 -47 224h-6q-48 0 -77 -37t-29 -83t29 -79t77 -33zM773 -212l155 10
q101 0 159 -41.5t58 -121t-90.5 -137.5t-271 -58t-317.5 76q-157 86 -157 239v15q7 118 50 174q18 24 45 44h184q-132 -73 -132 -209v-12q4 -107 119 -157q92 -40 206 -41q212 0 212 64q0 38 -65 38q-21 0 -44.5 -1.5t-47.5 -3l-48 -3t-58 -1.5q-73 0 -122 50t-49 103
q0 96 86.5 149t214.5 53q69 0 133.5 -12.5t129.5 -57.5v-137q-55 49 -114.5 65.5t-138.5 16.5q-153 0 -153 -57q0 -15 14.5 -31t41.5 -16z" />
    <glyph glyph-name="k1nh" horiz-adv-x="1293" 
d="M355 582q39 343 321 343q222 -1 288 -211q20 -62 28 -132h33q120 0 192.5 -82t72.5 -198t-68 -200t-187 -84h-17v171h17q77 0 77 111q0 80 -44 110q-16 12 -43 11h-29q-15 -277 -168 -363q-60 -34 -163.5 -34t-155.5 52q-71 -58 -149 -58q-138 0 -218.5 83t-80.5 201
t83 199t211 81zM1037 -491q83 101 83 221q0 64 -35 103.5t-80 39.5q-53 0 -53 -75v-289h-140v309q0 29 -19.5 48.5t-48.5 19.5t-45.5 -25.5t-16.5 -62.5v-289h-133v265q0 68 -97 95q-29 8 -70.5 8t-83 -21t-52.5 -54q32 17 75 17q83 0 127.5 -45t44.5 -94q0 -86 -49 -135
t-137.5 -49t-137.5 63.5t-49 134.5q0 135 79 222.5t226 87.5q95 0 178 -56q57 57 161 57q59 0 120 -55q66 51 134 51q118 0 181.5 -70t63.5 -165q1 -94 -47 -204q-14 -34 -31 -53h-148zM813 582q-11 123 -71 158q-26 15 -66 15q-73 0 -102.5 -46.5t-39.5 -126.5h279z
M818 421h-289q6 -101 24 -142q38 -85 123 -85q121 0 136 153q4 40 6 74zM345 189l43 7q3 0 10 1q-40 90 -47 224h-6q-48 0 -77 -37t-29 -83t29 -79t77 -33zM372 -342q0 38 -34 56q-12 6 -29 7q-45 1 -59 -43q-4 -10 -4 -20q0 -38 34 -56q12 -6 29 -7q45 -1 59 43q4 10 4 20z
" />
    <glyph glyph-name="k1th1" horiz-adv-x="2292" 
d="M1681 874q89 55 204 55q211 0 307.5 -127t96.5 -334.5t-100 -467.5h-207q123 246 123 456q1 209 -113 266q-44 22 -111 21h-26q138 -126 138 -338q0 -169 -60 -287q-74 -146 -238 -147q-207 0 -275 245q-26 93 -25 197q0 206 123 329q-20 2 -62 2t-78 -28
q-102 -77 -98 -273l10 -443h-177l-10 331q0 53 -78 63q-5 1 -9 1h-10q-5 0 -10 -1q-15 -295 -168 -387q-60 -36 -158.5 -36t-160.5 60q-71 -60 -149 -60q-138 0 -218.5 87t-80.5 211t83 209t211 85q39 362 321 362q222 1 288 -221q20 -66 28 -141h33q41 0 79 -11
q34 257 218 346q64 31 167 31t192 -55zM1693 158q106 0 114 180q2 43 2 98t-29 133t-88 109q-80 -41 -106 -192q-7 -40 -7 -80q-1 -40 7 -88q26 -160 107 -160zM813 563q-11 130 -71 167q-26 16 -66 16q-72 0 -108 -58q-24 -40 -34 -125h279zM818 394h-289q6 -106 24 -149
q38 -90 123 -90q121 0 136 161q4 42 6 78zM239 280q-1 -90 61 -120q20 -10 35 -10t35 4t28 4q-40 95 -47 236h-6q-48 0 -77 -39t-29 -75z" />
    <glyph glyph-name="k1th1u1" horiz-adv-x="2146" 
d="M370 221q-38 90 -42 216h-5q-44 0 -71 -35.5t-27 -81.5q0 -72 57 -98q18 -8 34 -8.5t31 3.5t23 4zM756 437h-264q4 -147 64 -197q26 -22 70 -22q78 0 108 76q19 49 22 143zM752 593q-8 78 -25 108q-34 59 -100 59q-96 0 -120 -106q-7 -30 -11 -61h256zM1668 388
q2 38 2 88q0 51 -27 123.5t-81 99.5q-48 -26 -75.5 -99.5t-27.5 -147.5q1 -74 19 -132q28 -90 87 -90q95 0 103 158zM1553 879q84 52 193 52q200 0 300.5 -141t100.5 -354.5t-110 -390t-288 -176.5h-1451q-18 0 -29 -14t-11 -30.5t11.5 -29t28.5 -12.5h1824v-163h-1854
q-82 0 -137.5 59t-55.5 140q0 82 55 142.5t138 60.5h1439q114 0 184 128.5t70 287.5q1 216 -121 294q-42 26 -100 27h-3l-25 -1q127 -115 127 -310q0 -257 -139 -351q-53 -36 -144 -36q-91 1 -159 65q-108 103 -108 312.5t114 319.5q-9 1 -23 1h-24q-89 0 -130.5 -82
t-41.5 -194l1 -408h-162l-1 290q0 30 -22 51t-52 21h-27q-16 -384 -294 -384q-102 0 -154 50q-65 -56 -136 -56q-127 0 -202 80.5t-75 194.5t77 192.5t195 78.5q34 333 295 333q256 0 290 -333h31q39 0 73 -10q35 239 201 319q59 28 152 28t179 -51z" />
    <glyph glyph-name="k1th1u2" horiz-adv-x="2209" 
d="M1711 768q127 -115 127 -333q0 -148 -55 -251q-71 -133 -220 -133q-189 0 -251 223q-24 85 -24 180q0 194 113 303q-20 2 -57.5 2t-71.5 -25q-34 -26 -54 -66q-41 -79 -36 -185l11 -408h-163l-11 303q-1 27 -23 43t-48 16h-27q-16 -390 -294 -390q-96 0 -154 56
q-65 -56 -136 -56q-127 0 -202 80.5t-75 194.5t77 192.5t195 78.5q34 333 295 333q256 0 290 -333h31q38 0 72 -10q35 239 201 319q59 28 152.5 28t177.5 -51q82 51 194 51q222 0 341.5 -89t119.5 -241.5t-119 -230.5q118 -77 118 -207t-79.5 -211.5t-202.5 -81.5h-1627
q-17 0 -28.5 -14t-11.5 -30.5t11.5 -29t28.5 -12.5h1886v-163h-1916q-78 0 -135.5 59.5t-57.5 140.5t56.5 141.5t136.5 60.5h1627q56 0 91.5 37.5t35.5 96t-36 94t-93 35.5l-11 -1v175h10q48 -2 82 42t34 88q0 83 -61 131.5t-201 48.5h-9zM1563 220q106 0 106 231
q0 125 -58 203q-21 28 -51 44q-72 -39 -96 -177q-6 -37 -7 -89q0 -52 19 -118q27 -94 87 -94zM752 593q-8 78 -25 108q-34 59 -100 59q-96 0 -120 -106q-7 -30 -11 -61h256zM756 437h-264q4 -147 64 -197q26 -22 70 -22q78 0 108 76q19 49 22 143zM370 221q-38 90 -42 216
h-5q-44 0 -71 -35.5t-27 -81.5q0 -72 57 -98q18 -8 34 -8.5t31 3.5t23 4z" />
    <glyph glyph-name="k1th1r1" horiz-adv-x="2330" 
d="M1681 874q89 55 228 55t236 -83t139.5 -220.5t42.5 -442.5t-206 -474t-395 -169q-132 0 -231 48q-119 58 -119 162t102 157t227 53q180 0 255 -86l-79 -109q-57 53 -156 53q-136 0 -136 -67q0 -60 133 -60q132 1 230 101q135 138 175 389q12 76 12 154q0 172 -66 291
t-189 117h-29q138 -126 138 -338q0 -275 -151 -373q-58 -38 -158 -38q-100 1 -172 68q-118 109 -117.5 333t123.5 347q-20 2 -62 2t-78 -28q-102 -77 -98 -273l10 -443h-177l-10 331q0 53 -78 63q-5 1 -9 1h-10q-5 0 -10 -1q-15 -295 -168 -387q-60 -36 -158.5 -36
t-160.5 60q-71 -60 -149 -60q-138 0 -218.5 87t-80.5 211t83 209t211 85q39 362 321 362q222 1 288 -221q20 -66 28 -141h33q41 0 79 -11q34 257 218 346q64 31 167 31t192 -55zM1807 342q2 40 2 94q0 55 -29 133t-88 109q-80 -41 -106 -192q-7 -40 -7 -96q1 -56 21 -119
q31 -93 95 -93q104 0 112 164zM813 563q-11 130 -71 167q-26 16 -66 16q-72 0 -108 -58q-24 -40 -34 -125h279zM818 394h-289q6 -106 24 -149q38 -90 123 -90q121 0 136 161q4 42 6 78zM239 280q-1 -90 61 -120q20 -10 35 -10t35 4t28 4q-40 95 -47 236h-6q-48 0 -77 -39
t-29 -75z" />
    <glyph glyph-name="k1th1r3" horiz-adv-x="2561" 
d="M1931 874q89 55 231 55q142 -1 244 -83q164 -133 163 -487q1 -169 -79 -313q-243 -442 -1216 -442q-627 0 -922 184.5t-295 573.5q0 235 75 432q24 63 55 115h210q-117 -145 -155 -399q-12 -79 -11 -158q0 -288 235 -428q254 -150 808 -150q851 0 1055 334q68 112 68 267
t-37 227t-88 107t-135 34h-32q138 -126 138 -338q0 -169 -60 -287q-74 -146 -238 -147q-207 0 -275 245q-26 93 -25 197q0 206 123 329q-20 2 -60.5 2t-76.5 -26q-101 -73 -101 -263v-12l10 -443h-177l-10 331q1 38 -49 56q-22 8 -42 8l-11 -1h-5q-15 -295 -168 -387
q-60 -36 -158.5 -36t-160.5 60q-71 -60 -149 -60q-138 0 -218.5 87t-80.5 211t83 209t211 85q39 362 321 362q222 1 288 -221q20 -66 28 -141h33q41 0 79 -11q34 257 218 346q64 31 167 31t192 -55zM1943 158q106 0 114 180q2 43 2 98t-29 133t-88 109q-80 -41 -106 -192
q-7 -40 -7 -80q-1 -40 7 -88q26 -160 107 -160zM1063 563q-11 130 -71 167q-26 16 -66 16q-72 0 -108 -58q-24 -40 -34 -125h279zM1068 394h-289q6 -106 24 -149q38 -90 123 -90q121 0 136 161q4 42 6 78zM489 280q-1 -90 61 -120q20 -10 35 -10t35 4t28 4q-40 95 -47 236
h-6q-48 0 -77 -39t-29 -75z" />
    <glyph glyph-name="k1n1" horiz-adv-x="1293" 
d="M355 582q39 343 321 343q222 -1 288 -211q20 -62 28 -132h33q120 0 192.5 -82t72.5 -198t-68 -200t-187 -84h-17v171h17q77 0 77 111q0 80 -44 110q-16 12 -43 11h-29q-15 -277 -168 -363q-60 -34 -163.5 -34t-155.5 52q-71 -58 -149 -58q-138 0 -218.5 83t-80.5 201
t83 199t211 81zM813 582q-11 123 -71 158q-26 15 -66 15q-73 0 -102.5 -46.5t-39.5 -126.5h279zM818 421h-289q6 -101 24 -142q38 -85 123 -85q121 0 136 153q4 40 6 74zM345 189l43 7q3 0 10 1q-40 90 -47 224h-6q-48 0 -77 -37t-29 -83t29 -79t77 -33zM740 -44
q53 48 119 48q110 0 157 -68t47 -164t-41 -176q-13 -26 -29 -42h-142q75 118 75 212t-34 114q-14 8 -37.5 8.5t-34 -7t-10.5 -39.5v-284h-134v284q0 47 -55 47q-63 -1 -69 -75q-2 -20 -2 -59q0 -76 76 -201h-143q-45 51 -63 157q-6 33 -6 67q0 90 46 158t135.5 68t144.5 -48
z" />
    <glyph glyph-name="k1m1" horiz-adv-x="1293" 
d="M398 197q-40 90 -47 224h-6q-48 0 -77 -37t-29 -83t29 -79t77 -33l43 7q3 0 10 1zM529 421q6 -101 24 -142q38 -85 123 -85q121 0 136 153q4 40 6 74h-289zM742 740q-26 15 -66 15q-73 0 -102.5 -46.5t-39.5 -126.5h279q-11 123 -71 158zM355 582q39 343 321 343
q222 -1 288 -211q20 -62 28 -132h33q120 0 192.5 -82t72.5 -198t-68 -200t-187 -84h-17v171h17q77 0 77 111q0 80 -44 110q-16 12 -43 11h-29q-15 -277 -168 -363q-60 -34 -163.5 -34t-155.5 52q-71 -58 -149 -58q-138 0 -218.5 83t-80.5 201t83 199t211 81zM1076 -435h-478
v246q0 145 131 191q45 16 103 15q116 0 180 -54t64 -143v-255zM924 -127.5q-29 31.5 -86 31.5t-85 -38q6 1 12 1h13q64 0 101.5 -35.5t37.5 -82.5t-20 -82h56v126q0 48 -29 79.5zM763 -333q50 36 50 81t-50 45q-15 0 -32 -17v-109h32z" />
    <glyph glyph-name="k1r3" horiz-adv-x="1559" 
d="M489 280q-1 -90 61 -120q20 -10 35 -10t35 4t28 4q-40 95 -47 236h-6q-48 0 -77 -39t-29 -75zM1068 394h-289q6 -106 24 -149q38 -90 123 -90q121 0 136 161q4 42 6 78zM1063 563q-11 130 -71 167q-26 16 -66 16q-72 0 -108 -58q-24 -40 -34 -125h279zM397 909
q-166 -205 -166 -591q-1 -112 47 -219q139 -313 588 -313q343 0 469 247q48 94 48 201.5t-63 147.5q-20 12 -45 12h-29q-15 -293 -168 -382q-60 -35 -161.5 -35t-157.5 54q-71 -60 -149 -60q-138 0 -218.5 87t-80.5 211t83 209t211 85q39 362 321 362q222 1 288 -221
q20 -66 28 -141h53q120 0 194 -104t74 -253q0 -229 -157 -395q-184 -194 -574 -194q-154 0 -300 42.5t-252 132.5q-224 191 -223 570q0 235 75 432q24 63 55 115h210z" />
    <glyph glyph-name="k1r3u1" horiz-adv-x="1559" 
d="M231 352q0 -516 655 -516q344 0 455 210q42 79 42 187.5t-63 148.5q-20 12 -45 12h-29q-15 -293 -168 -382q-60 -35 -161.5 -35t-157.5 54q-71 -60 -149 -60q-138 0 -218.5 87t-80.5 211t83 209t211 85q39 362 321 362q222 1 288 -221q20 -66 28 -141h53q120 0 194 -104
t74 -253q0 -217 -119 -342q113 -70 113 -216q0 -115 -77.5 -200t-191.5 -85t-191.5 85t-77.5 200q0 7 0.5 13.5t0.5 13.5q-68 -8 -194.5 -8t-276 34.5t-259.5 115.5q-234 173 -233 545q0 235 75 432q24 63 55 115h210q-117 -145 -155 -399q-12 -79 -11 -158zM1063 563
q-11 130 -71 167q-26 16 -66 16q-72 0 -108 -58q-24 -40 -34 -125h279zM1068 394h-289q6 -106 24 -149q38 -90 123 -90q121 0 136 161q4 42 6 78zM1387 -385q8 20 8 50.5t-21.5 60.5t-55.5 40q-68 -36 -124 -54q-13 -26 -13 -62t30.5 -70t76.5 -34q45 0 68 24.5t31 44.5z
M489 280q-1 -90 61 -120q20 -10 35 -10t35 4t28 4q-40 95 -47 236h-6q-48 0 -77 -39t-29 -75z" />
    <glyph glyph-name="k1r3u2" horiz-adv-x="1559" 
d="M57 334q0 356 130 575h210q-117 -145 -155 -399q-12 -79 -11 -158q0 -274 199 -404q172 -112 476 -112q107 0 158.5 14.5t63.5 18t52.5 18.5t86 54.5t81 105t35.5 180.5t-63 155q-20 12 -45 12h-29q-15 -293 -168 -382q-60 -35 -161.5 -35t-157.5 54q-71 -60 -149 -60
q-138 0 -218.5 87t-80.5 211t83 209t211 85q39 362 321 362q222 1 288 -221q20 -66 28 -141h53q120 0 194 -104t74 -253q0 -246 -148 -380q109 -84 109 -230.5t-85.5 -236t-214.5 -89.5t-214 89t-85 224q0 47 10 84h-40q-677 1 -809 461q-30 102 -29 206zM1063 563
q-11 130 -71 167q-26 16 -66 16q-72 0 -108 -58q-24 -40 -34 -125h279zM1068 394h-289q6 -106 24 -149q38 -90 123 -90q121 0 136 161q4 42 6 78zM489 280q-1 -90 61 -120q20 -10 35 -10t35 4t28 4q-40 95 -47 236h-6q-48 0 -77 -39t-29 -75zM1302 -251l-4 -2q16 -29 16 -66
t-26.5 -69t-65.5 -32q-37 0 -64 31t-27 76v3q-8 -2 -25 -5q-11 -35 -11 -86t37.5 -100t91.5 -49t91.5 49t37.5 125t-51 125z" />
    <glyph glyph-name="k1l3" horiz-adv-x="1293" 
d="M355 586q39 340 321 340q222 0 288 -208q20 -62 28 -132h33q121 0 193 -81.5t72 -196.5t-68.5 -197.5t-186.5 -82.5h-17v168h17q77 0 77 111q0 79 -44 109q-16 12 -43 11h-29q-15 -275 -168 -361q-60 -34 -161.5 -33.5t-157.5 51.5q-71 -56 -148 -56q-138 0 -219 82
t-81 199t83.5 197t210.5 80zM1198 -266q0 -224 -179 -223.5t-228.5 57t-49.5 131.5l5 84q0 57 -28 86t-97 29q-129 0 -168 -53q23 12 65 12q86 0 130 -48t44 -103q0 -96 -57 -146.5t-138.5 -50.5t-143.5 60t-62 173t84 195t247 82q221 1 263 -149q12 -42 12 -87l-7 -92
q0 -21 15 -37.5t51 -16.5q92 0 92 99q0 98 -71 210q-22 34 -50 62h166q70 -83 97 -204q8 -36 8 -70zM813 586q-11 121 -71 156q-26 15 -66 15q-72 0 -102 -46t-40 -125h279zM818 427h-289q6 -100 24 -140q38 -85 123 -85q121 0 136 152q4 40 6 73zM398 204q-40 90 -47 223
h-6q-48 0 -77 -37t-29 -82q0 -46 29 -79t77 -33q10 0 24.5 4t28.5 4zM572 -311q0 45 -37 65q-15 8 -39 8q-62 0 -72 -51q-2 -13 -3 -22q0 -46 36 -65q15 -8 39 -8q61 0 73 52q3 12 3 21z" />
    <glyph glyph-name="k1l3u1" horiz-adv-x="1293" 
d="M355 586q39 340 321 340q222 0 288 -208q20 -62 28 -132h33q121 0 193 -81.5t72 -196.5t-68.5 -197.5t-186.5 -82.5h-17v168h17q77 0 77 111q0 79 -44 109q-16 12 -43 11h-29q-15 -275 -168 -361q-60 -34 -161.5 -33.5t-157.5 51.5q-71 -56 -148 -56q-138 0 -219 82
t-81 199t83.5 197t210.5 80zM1134 1q106 -111 106 -261q0 -46 -23 -88q63 -57 63 -149.5t-62.5 -160.5t-153.5 -68q-92 0 -153 67.5t-61 160.5q0 37 18 77q-90 42 -90 144l6 75q0 100 -122 100t-160 -38q18 6 58 6q85 0 130 -42.5t45 -94.5q0 -90 -57.5 -138.5t-140.5 -48.5
t-145.5 57.5t-62.5 160.5t84.5 177t248.5 74q223 -1 265 -135q12 -38 12 -78l-6 -82q0 -42 60 -42q92 0 92 82q0 90 -72 188q-23 32 -53 57h174zM813 586q-11 121 -71 156q-26 15 -66 15q-72 0 -102 -46t-40 -125h279zM818 427h-289q6 -100 24 -140q38 -85 123 -85
q121 0 136 152q4 40 6 73zM398 204q-40 90 -47 223h-6q-48 0 -77 -37t-29 -82q0 -46 29 -79t77 -33q10 0 24.5 4t28.5 4zM1126.5 -573q24.5 27 24.5 58q0 60 -46 85q-45 -11 -98 -13q-27 -27 -27 -65t24.5 -65t61 -27t61 27zM612 -289q0 42 -37 59q-15 7 -39 7
q-42 0 -58.5 -20.5t-16.5 -45.5q1 -41 37 -57q14 -6 38 -6q61 0 73 43q3 11 3 20z" />
    <glyph glyph-name="k1l3u2" horiz-adv-x="1293" 
d="M355 586q39 340 321 340q222 0 288 -208q20 -62 28 -132h33q121 0 193 -81.5t72 -196.5t-68.5 -197.5t-186.5 -82.5h-17v168h17q77 0 77 111q0 79 -44 109q-16 12 -43 11h-29q-15 -275 -168 -361q-60 -34 -161.5 -33.5t-157.5 51.5q-71 -56 -148 -56q-138 0 -219 82
t-81 199t83.5 197t210.5 80zM1134 1q106 -111 106 -261q0 -46 -23 -88q63 -57 63 -159.5t-62.5 -170.5t-153.5 -68q-92 0 -153 67.5t-61 144.5t18 113q-90 42 -90 144l6 75q0 100 -122 100t-160 -38q18 6 58 6q85 0 130 -42.5t45 -94.5q0 -90 -57.5 -138.5t-140.5 -48.5
t-145.5 57.5t-62.5 160.5t84.5 177t248.5 74q223 -1 265 -135q12 -38 12 -78l-6 -82q0 -19 23.5 -40.5t61.5 -21.5q67 0 67 80v22q0 90 -72 188q-23 32 -53 57h174zM813 586q-11 121 -71 156q-26 15 -66 15q-72 0 -102 -46t-40 -125h279zM818 427h-289q6 -100 24 -140
q38 -85 123 -85q121 0 136 152q4 40 6 73zM398 204q-40 90 -47 223h-6q-48 0 -77 -37t-29 -82q0 -46 29 -79t77 -33q10 0 24.5 4t28.5 4zM1007 -443q-27 -27 -27 -76t25.5 -80t59.5 -31q35 0 60.5 31t25.5 77.5t-34 82.5q6 -18 6 -46.5t-16.5 -53.5t-40 -25t-40 25
t-16.5 51.5t5 44.5h-8zM612 -289q0 42 -37 59q-15 7 -39 7q-42 0 -58.5 -20.5t-16.5 -45.5q1 -41 37 -57q14 -6 38 -6q61 0 73 43q3 11 3 20z" />
    <glyph glyph-name="k1sh" horiz-adv-x="2063" 
d="M239 280q-1 -90 61 -120q20 -10 35 -10t35 4t28 4q-40 95 -47 236h-6q-48 0 -77 -39t-29 -75zM818 394h-289q6 -106 24 -149q38 -90 123 -90q121 0 136 161q4 42 6 78zM813 563q-11 130 -71 167q-26 16 -66 16q-72 0 -108 -58q-24 -40 -34 -125h279zM1875 164l-10 297
q-64 -54 -133 -66l-10 -231h153zM1390 678q0 -74 68 -100q20 -8 42.5 -7.5t46.5 2.5v90q0 34 -23 60.5t-57.5 26.5t-55.5 -22t-21 -50zM1867 839q0 42 -2 70h184l10 -909h-1020q3 15 28 99t25 161q0 134 -87 134h-9q-15 -293 -168 -382q-60 -35 -161.5 -35t-157.5 54
q-71 -60 -149 -60q-138 0 -218.5 87t-80.5 211t83 209t211 85q39 362 321 362q222 1 288 -221q20 -66 28 -141h13q138 0 200.5 -88t62.5 -221q0 -41 -17 -90h286l10 226q-13 -2 -25 -2h-26q-124 0 -210 77.5t-86 197.5t71.5 193t186.5 73q117 0 195.5 -74.5t78.5 -191.5v-78
q135 0 135 254z" />
    <glyph glyph-name="k1shu1" horiz-adv-x="2063" 
d="M1867 839q0 42 -2 70h184l10 -909h-15q23 -48 23 -108q0 -119 -77.5 -204t-191.5 -85t-191.5 85t-77.5 200q0 64 23 112h-514q3 16 12 44q42 133 42 216q0 134 -87 134h-9q-15 -293 -168 -382q-60 -35 -161.5 -35t-157.5 54q-71 -60 -149 -60q-138 0 -218.5 87t-80.5 211
t83 209t211 85q39 362 321 362q222 1 288 -221q20 -66 28 -141h13q138 0 200.5 -88t62.5 -221q0 -41 -17 -90h286l10 226q-13 -2 -25 -2h-26q-124 0 -210 77.5t-86 197.5t71.5 193t186.5 73q117 0 195.5 -74.5t78.5 -191.5v-78q135 0 135 254zM1390 678q0 -74 68 -100
q20 -8 42.5 -7.5t46.5 2.5v90q0 34 -23 60.5t-57.5 26.5t-55.5 -22t-21 -50zM1875 164l-10 297q-64 -54 -133 -66l-10 -231h153zM1905 -102q0 74 -63 102h-88q-28 -13 -45.5 -40.5t-17.5 -66.5t30.5 -73t76.5 -34q45 0 76 33t31 79zM813 563q-11 130 -71 167q-26 16 -66 16
q-72 0 -108 -58q-24 -40 -34 -125h279zM818 394h-289q6 -106 24 -149q38 -90 123 -90q121 0 136 161q4 42 6 78zM239 280q-1 -90 61 -120q20 -10 35 -10t35 4t28 4q-40 95 -47 236h-6q-48 0 -77 -39t-29 -75z" />
    <glyph glyph-name="k1shu2" horiz-adv-x="2063" 
d="M2032 0q42 -69 42 -152q0 -149 -85.5 -238.5t-214.5 -89.5t-214 89t-85 206.5t47 184.5h-484q3 16 12 44q42 133 42 216q0 134 -87 134h-9q-15 -293 -168 -382q-60 -35 -161.5 -35t-157.5 54q-71 -60 -149 -60q-138 0 -218.5 87t-80.5 211t83 209t211 85q39 362 321 362
q222 1 288 -221q20 -66 28 -141h13q138 0 200.5 -88t62.5 -221q0 -41 -17 -90h286l10 226q-13 -2 -25 -2h-26q-124 0 -210 77.5t-86 197.5t71.5 193t186.5 73q117 0 195.5 -74.5t78.5 -191.5v-78q135 0 135 254q0 42 -2 70h184l10 -909h-27zM1390 678q0 -74 68 -100
q20 -8 42.5 -7.5t46.5 2.5v90q0 34 -23 60.5t-57.5 26.5t-55.5 -22t-21 -50zM1875 164l-10 297q-64 -54 -133 -66l-10 -231h153zM1699 0q-54 -44 -54 -123t27 -115q48 -62 102 -62t91.5 49t37.5 127t-54 124h-4q19 -29 19 -68t-26.5 -70.5t-65.5 -31.5q-38 0 -64.5 32
t-26.5 71.5t18 66.5h1h-1zM813 563q-11 130 -71 167q-26 16 -66 16q-72 0 -108 -58q-24 -40 -34 -125h279zM818 394h-289q6 -106 24 -149q38 -90 123 -90q121 0 136 161q4 42 6 78zM239 280q-1 -90 61 -120q20 -10 35 -10t35 4t28 4q-40 95 -47 236h-6q-48 0 -77 -39
t-29 -75zM1700 0h-1h1z" />
    <glyph glyph-name="k1shnh" horiz-adv-x="2063" 
d="M996 415q-21 -402 -320 -402q-112 0 -167 53q-69 -58 -147 -58q-139 0 -220 84t-81 203t83 200.5t211 81.5q39 347 321 347q222 0 288 -213q20 -63 28 -134h13q138 0 200.5 -85t62.5 -212q0 -40 -17 -87h286l10 217q-26 -2 -68.5 -2t-96.5 19t-94 55q-88 77 -88 191.5
t71.5 184.5t186.5 70q116 0 195 -71.5t79 -183.5v-75q135 0 135 243q0 40 -2 68h184l10 -873h-1021q2 15 28 93t26 156q0 130 -87 130h-9zM1344 -186q0 77 -88.5 77t-114.5 -43q91 18 137 -35.5t46 -109.5t-44.5 -100.5t-145 -44.5t-135 73.5t-34.5 122.5q0 102 69.5 174.5
t190 72.5t190.5 -41q56 41 146 41t136 -36q49 36 131 36q134 0 192 -72q46 -55 45.5 -133.5t-25 -142.5t-39.5 -85h-164q51 71 69 174q4 27 4 47q0 103 -73 103q-38 0 -52 -10t-14 -32v-282h-153v282q0 42 -59 42t-59 -42v-282h-156v246zM1547 586v87q0 53 -49 76
q-15 7 -40.5 7t-46.5 -21.5t-21 -57.5t33.5 -64t60.5 -28h39q12 0 24 1zM1875 193l-10 286q-61 -51 -133 -64l-10 -222h153zM813 577q-7 79 -27 111q-38 64 -110 64q-104 0 -130 -111q-8 -31 -12 -64h279zM818 415h-289q6 -101 24 -143q38 -87 123 -87q120 0 136 155
q4 40 6 75zM1226 -287q0 26 -18.5 44.5t-45 18.5t-45 -18.5t-18.5 -44.5t18.5 -44.5t44.5 -18.5t45 18.5t19 44.5zM239 305q-1 -88 61 -116q20 -9 35 -9t35 4t28 4q-40 92 -47 227h-6q-48 0 -77 -37.5t-29 -72.5z" />
    <glyph glyph-name="k1shm1" horiz-adv-x="2063" 
d="M1547 411q-34 -2 -79 -2t-95 20.5t-111.5 77t-61.5 167.5q0 113 72 181.5t186.5 68.5t194 -69t79.5 -183v-75q117 0 126.5 111.5t6.5 196.5h184l10 -864h-1020q7 31 16 61.5t23 84t14 90.5t-4 60.5t-20.5 51t-71.5 27.5q-17 -282 -168 -364q-61 -33 -162 -33t-157 51
q-113 -92 -245.5 -44.5t-167.5 126t-35 142.5t23 116t84 109t187 57q38 344 321 344q222 0 265 -135.5t51 -208.5q276 0 276 -293q0 -44 -17 -86h286zM1950 -420h-550v241q0 101 80.5 152t188.5 51q104 0 165 -34t88.5 -71t27.5 -89v-250zM1547 586v86q0 34 -23.5 58
t-55.5 24t-55 -19t-23 -48t10.5 -48t35.5 -37.5t60 -18.5q34 0 51 3zM1875 197l-10 282q-66 -52 -133 -63l-10 -219h153zM1737.5 -186q16.5 -22 16.5 -62t-29 -80h97v131q0 85 -61 101t-91 16q-88 0 -117 -52q17 4 37 4t50 -5t55.5 -18t42 -35zM813 576q-11 124 -55 149
t-84 25t-65 -14.5t-45 -46t-30 -113.5h279zM1582 -328q66 38 66 87t-68 49q-21 0 -46 -20v-116h48zM818 416h-289q6 -99 24.5 -141t46.5 -64t76 -22t76 21.5t44 60t22 145.5zM398 191q-40 92 -47 225h-6q-43 0 -74.5 -33t-31.5 -67t6 -56.5t26.5 -49.5t73.5 -27q14 0 26.5 4
t26.5 4z" />
    <glyph glyph-name="k1s1" horiz-adv-x="1293" 
d="M355 582q39 343 321 343q222 -1 288 -211q20 -62 28 -132h33q120 0 192.5 -82t72.5 -198t-68 -200t-187 -84h-17v171h17q77 0 77 111q0 80 -44 110q-16 12 -43 11h-29q-15 -277 -168 -363q-60 -34 -163.5 -34t-155.5 52q-71 -58 -149 -58q-138 0 -218.5 83t-80.5 201
t83 199t211 81zM813 582q-11 123 -71 158q-26 15 -66 15q-73 0 -102.5 -46.5t-39.5 -126.5h279zM818 421h-289q6 -101 24 -142q38 -85 123 -85q121 0 136 153q4 40 6 74zM345 189l43 7q3 0 10 1q-40 90 -47 224h-6q-48 0 -77 -37t-29 -83t29 -79t77 -33zM1069 -268
q0 169 -104 267h163q75 -89 75 -253.5t-105 -222.5q-36 -20 -80 -20q-85 0 -139.5 49t-54.5 125l15 156q0 57 -38 57q-51 0 -51 -65v-307h-125v308q0 64 -44 64q-65 0 -71 -75q-2 -21 -1 -41q0 -128 61 -261h-141q-54 128 -54 247t29 164t68.5 64.5t101 19.5t111.5 -52
q47 52 125 52t121 -44.5t43 -125.5l-16 -157q0 -61 53 -61t57 64q1 18 1 48z" />
    <glyph glyph-name="k1rhrh" horiz-adv-x="1293" 
d="M355 582q39 343 321 343q222 -1 288 -211q20 -62 28 -132h33q120 0 192.5 -82t72.5 -198t-68 -200t-187 -84h-17v171h17q77 0 77 111q0 80 -44 110q-16 12 -43 11h-29q-15 -277 -168 -363q-60 -34 -163.5 -34t-155.5 52q-71 -58 -149 -58q-138 0 -218.5 83t-80.5 201
t83 199t211 81zM813 582q-11 123 -71 158q-26 15 -66 15q-73 0 -102.5 -46.5t-39.5 -126.5h279zM818 421h-289q6 -101 24 -142q38 -85 123 -85q121 0 136 153q4 40 6 74zM345 189l43 7q3 0 10 1q-40 90 -47 224h-6q-48 0 -77 -37t-29 -83t29 -79t77 -33zM1217 -210
q0 -84 -34 -224h-135q8 36 22 93t14 113q0 101 -75 101q-82 0 -82 -110q0 -84 39 -197h-137q-34 120 -34 211q0 223 211 223t211 -210zM767 -210q0 -84 -34 -224h-135q8 36 22 93t14 113q0 101 -75 101q-82 0 -82 -110q0 -84 39 -197h-137q-34 120 -34 211q0 223 211 223
t211 -210z" />
    <glyph glyph-name="k2u1" horiz-adv-x="1186" 
d="M848.5 644q25.5 -84 25.5 -197.5t-75 -291.5h204l-10 754h179l10 -909h-17q22 -51 22 -115q0 -122 -77.5 -207t-191.5 -85t-191.5 85t-77.5 200q0 68 33 122h-113v37q83 139 112 319q9 56 9 110q0 122 -56 202t-173 80q-142 0 -200 -126q-18 -40 -25 -88q39 37 95 37
q108 0 168 -87.5t60 -202t-70.5 -209t-180.5 -94.5q-255 0 -255 434q0 349 220 470q78 43 185.5 43t184.5 -36t128.5 -98.5t77 -146.5zM1025 -112q-1 73 -65 103q-20 9 -42 9q-70 0 -98 -70q-8 -20 -9 -53q0 -33 30.5 -67t76.5 -34q45 0 76 33t31 79zM389 277q0 77 -41 113
q-15 14 -37 14q-58 0 -74 -89q-4 -22 -4 -38q0 -75 41 -113q15 -14 37 -14q58 0 74 89q4 22 4 38z" />
    <glyph glyph-name="k2u2" horiz-adv-x="1182" 
d="M1167 0q37 -72 37 -153q0 -148 -85.5 -237.5t-214.5 -89.5t-214 89t-85 224q0 91 39 167h-75v37q83 139 112 319q9 56 9 110q0 122 -56 202t-173 80q-142 0 -200 -126q-18 -40 -25 -88q39 37 95 37q108 0 168 -87.5t60 -202t-70.5 -209t-180.5 -94.5q-255 0 -255 434
q0 349 220 470q77 43 185 43q202 0 309 -129.5t107 -331.5q0 -131 -75 -309h204l-10 754h179l10 -909h-15zM830 0q-55 -42 -55 -122t27 -116q48 -62 102 -62t91.5 49t37.5 128t-54 123h-4q19 -27 19 -67t-26.5 -71.5t-65.5 -31.5q-38 0 -64.5 32t-26.5 72.5t19 65.5z
M389 277q0 77 -41 113q-15 14 -37 14q-58 0 -74 -89q-4 -22 -4 -38q0 -75 41 -113q15 -14 37 -14q58 0 74 89q4 22 4 38z" />
    <glyph glyph-name="k2r1" horiz-adv-x="1154" 
d="M1142 909l9 -919q0 -193 -118 -321.5t-323.5 -128.5t-284.5 114q-28 40 -28 97q0 103 87 156t194.5 53t183.5 -46q28 -16 45 -40l-68 -109q-49 53 -130 53t-111 -34q-12 -13 -12 -32q0 -61 121.5 -61t187.5 89t66 210v10l-201 1v-1h-191v37q83 139 112 319q9 56 9 110
q0 122 -56 202t-173 80q-142 0 -200 -126q-18 -40 -25 -88q39 37 95 37q108 0 168 -87.5t60 -202t-70.5 -209t-180.5 -94.5q-255 0 -255 434q0 349 220 470q77 43 185 43q202 0 309 -129.5t107 -331.5q0 -131 -75 -309h174l-10 754h179zM389 277q0 77 -41 113q-15 14 -37 14
q-58 0 -74 -89q-4 -22 -4 -38q0 -75 41 -113q15 -14 37 -14q58 0 74 89q4 22 4 38z" />
    <glyph glyph-name="k3u1" horiz-adv-x="1046" 
d="M852 444q0 306 -146 306q-45 0 -76.5 -29.5t-31.5 -87.5t31.5 -144t31.5 -140q0 -122 -66.5 -209t-205.5 -87q-307 -1 -331 335q-4 50 -3 118q0 68 29 196t80 208h190q-48 -57 -81.5 -197t-33.5 -252t31 -177t109 -65q48 0 70.5 37.5t22.5 93.5t-29 166.5t-29 156t24 97
t64 87.5q82 74 186 74q183 1 274 -155q78 -134 78 -351t-101.5 -386.5t-277.5 -169.5h-381q-18 0 -29 -14t-11 -30.5t11.5 -29t28.5 -12.5h748v-163h-778q-82 0 -137.5 59t-55.5 140q0 82 55 142.5t138 60.5h379q101 0 162 129.5t61 292.5z" />
    <glyph glyph-name="k3u2" horiz-adv-x="1053" 
d="M707 754q-109 0 -109 -123q0 -55 31.5 -141.5t31.5 -140.5q0 -119 -66 -202.5t-206 -83.5q-256 1 -315 231q-19 74 -19 176q0 103 29 231.5t80 208.5h190q-48 -57 -81.5 -197t-33.5 -252t31 -172t104 -60q72 1 96 79q6 20 7 38v11q-4 37 -14.5 71t-29.5 97.5t-19 130.5
q0 131 80.5 203t208.5 72t238.5 -90t110.5 -235.5t-121 -226.5q58 -38 88 -98.5t30 -124.5q0 -123 -83.5 -205t-208.5 -82h-477q-17 0 -28.5 -14t-11.5 -30.5t11.5 -29t28.5 -12.5h756v-163h-786q-78 0 -135.5 59.5t-57.5 140.5t56.5 141.5t136.5 60.5h477q57 0 97 38t40 96
t-36 93.5t-93 35.5l-11 -1v185h9q55 0 87.5 43t32.5 104t-45 99.5t-101 38.5z" />
    <glyph glyph-name="k3r1" horiz-adv-x="1061" 
d="M414 620q0 310 296 310q169 0 261.5 -167t92.5 -409q0 -311 -139 -550q-95 -163 -245 -230q-76 -34 -146 -34q-136 0 -229 54t-93 157t87 156t192 53q156 0 221 -86l-68 -109q-49 53 -125 53q-77 0 -107 -34q-12 -13 -11 -32q0 -61 115 -61t202 102q114 133 144 394
q9 77 9 155q0 169 -43 286.5t-118 117.5q-112 0 -112 -123q0 -73 21.5 -142t31.5 -107q10 -40 10 -94q0 -125 -65.5 -212t-206.5 -87q-309 -1 -331 351q-4 54 -3 128q0 74 29 217.5t80 232.5h190q-64 -86 -101 -322q-14 -89 -14 -196q0 -108 31 -173t104 -65q72 0 96 78
q6 22 7 41v11q-4 41 -14.5 80.5t-29.5 114.5t-19 141z" />
    <glyph glyph-name="k3k3" horiz-adv-x="1035" 
d="M414 648q0 280 296 280q261 0 291.5 -152.5t30.5 -216.5t-10 -125.5t-37 -168t-73 -174.5h-188q77 126 100.5 257t23.5 177q0 227 -138 227q-112 0 -112 -110q0 -48 31.5 -147t31.5 -154q0 -56 -18 -107t-71.5 -106t-182.5 -55q-171 0 -252.5 97.5t-81.5 274.5
q0 194 39.5 306t69.5 159h190q-48 -57 -81.5 -195t-33.5 -206q0 -67 2.5 -109.5t25 -101.5t112.5 -59q40 0 69.5 31.5t29.5 72.5q0 40 -10 77.5t-32 106.5t-22 121zM473 -341q60 0 60 47q0 31 -21 87.5t-21 94.5q0 39 15.5 71t55.5 62.5t115 30.5t122 -12.5t92.5 -54.5
t45.5 -168q0 -96 -35 -170.5t-53 -96.5h-167q61 88 78.5 161.5t17.5 105.5q0 113 -64 113t-64 -47q0 -29 20.5 -84t20.5 -91t-14 -69t-51.5 -66t-145.5 -33q-226 0 -226 248q0 151 80 254h174q-69 -72 -82 -151.5t-13 -113.5q0 -118 60 -118z" />
    <glyph glyph-name="k3k3u1" horiz-adv-x="1035" 
d="M55 445q0 289 109 465h190q-80 -105 -97.5 -244t-17.5 -181t2.5 -84.5t25 -102t112.5 -59.5q71 0 84.5 48t13.5 78t-10 66t-31.5 102.5t-21.5 114.5q0 143 78.5 211.5t195.5 68.5t179.5 -29t113.5 -101.5t51 -259.5q0 -161 -47.5 -284t-72.5 -163h-188q82 141 103 262.5
t21 171.5q0 227 -138 227q-112 0 -112 -110q0 -49 31.5 -146.5t31.5 -153.5q0 -57 -18.5 -108t-71 -106t-182.5 -55q-254 0 -294 144.5t-40 227.5zM519 -203q0 20 -11 59.5t-11 67.5t22 54t69.5 50.5t114.5 24.5t115.5 -19.5t99.5 -74.5t51 -176q0 -128 -68.5 -227
t-190.5 -99h-305q-26 0 -26 -22.5t26 -22.5h543v-131h-574q-63 0 -102 46.5t-39 94t10 74.5t38 58t93 31h303q66 0 103 67.5t37 138.5q0 85 -33.5 108.5t-51.5 23.5t-30 -3t-28 -13t-16 -28t4 -31.5t12 -39.5q9 -26 9 -54t-18.5 -57.5t-61.5 -58t-111 -28.5t-116.5 10
t-103 49.5t-54.5 155.5t87 215h174q-109 -95 -109 -215q0 -48 22 -63t74.5 -15t52.5 50z" />
    <glyph glyph-name="k3k3u2" horiz-adv-x="1035" 
d="M414 648q0 280 296 280q198 0 270 -130q40 -72 46 -145.5t6 -136.5t-38 -211.5t-82 -213.5h-188q76 125 114 341q10 57 10 93q0 227 -138 227q-112 0 -112 -110q0 -66 21.5 -125t31.5 -92t10 -82q0 -112 -65.5 -191t-206.5 -79q-334 0 -334 372q0 129 29 257t80 208h190
q-48 -57 -81.5 -197t-33.5 -253t31 -167t104 -54q72 0 96 70q6 19 7 37v11q-4 37 -14.5 71t-29.5 97t-19 123zM887 -242q68 -50 68 -120t-49 -130.5t-136 -60.5h-374q-24 0 -24 -17q0 -16 24 -16h560v-121h-571q-70 0 -111 42.5t-41 91.5q0 50 40 93.5t112 43.5h353
q31 0 48 26.5t17 50.5t-20 39q-21 16 -41 16h-23q-3 0 -17 -1v113h21q45 0 65 40q6 12 7 31q0 19 -27.5 35.5t-61.5 16.5t-60 -12.5t-26 -33.5t22.5 -58t22.5 -66q0 -71 -44 -118.5t-138 -47.5q-161 0 -217 71q-36 46 -36 138t48 186q16 32 39 57h173q-78 -67 -103 -189
q-6 -30 -6 -69q0 -71 68 -71q45 0 60 19.5t15 35.5t-22.5 51.5t-22.5 73.5q0 75 62.5 116.5t130.5 41.5q127 0 206 -46.5t79 -123.5t-70 -128z" />
    <glyph glyph-name="k3k3r1" horiz-adv-x="1035" 
d="M383 -211q0 -109 69 -109q43 0 58.5 23t15.5 42q0 18 -15 48l-11 22q-20 35 -20 75q0 77 63.5 124.5t131.5 47.5q129 0 211 -82t82 -235q0 -304 -222 -416q-87 -44 -185 -44q-91 0 -137 26.5t-63 50.5q-17 22 -17 54q0 58 65 87.5t122 29.5t96.5 -7t81.5 -33l-70 -78
q-31 17 -74 17h-12q-64 0 -64 -18q0 -16 27 -16h35q169 0 233 188q26 79 26 166t-34.5 131.5t-67.5 44.5q-66 0 -66 -48q0 -35 22 -71q23 -37 23 -69q0 -75 -53 -131t-149 -56q-161 0 -217 82q-36 54 -36 153q-2 98 46 198q16 34 40 61h171q-76 -71 -100 -198q-6 -32 -6 -60
zM414 648q0 280 296 280q198 0 270 -130q40 -72 46 -145.5t6 -136.5t-38 -211.5t-82 -213.5h-188q76 125 114 341q10 57 10 93q0 227 -138 227q-112 0 -112 -110q0 -66 21.5 -125t31.5 -92t10 -82q0 -112 -65.5 -191t-206.5 -79q-334 0 -334 372q0 129 29 257t80 208h190
q-48 -57 -81.5 -197t-33.5 -253t31 -167t104 -54q72 0 96 70q6 19 7 37v11q-4 37 -14.5 71t-29.5 97t-19 123z" />
    <glyph glyph-name="k3th3" horiz-adv-x="1125" 
d="M711 181q66 -34 117.5 -34t75 27t23.5 69.5t-32 70.5t-80 28h-46v178h20q74 0 93 12q37 23 37 94q0 88 -97 114q-28 8 -76 8t-98 -34t-50 -99t31.5 -166t31.5 -162q0 -131 -65.5 -218.5t-206.5 -87.5q-309 -1 -331 351q-4 54 -3 128q0 74 29 217.5t80 232.5h190
q-64 -86 -101 -322q-14 -89 -14 -196q0 -108 31 -173t104 -65q72 0 96 78q6 22 7 41v11q-4 41 -14.5 80.5t-29.5 114.5t-19 150q0 145 103.5 226.5t248.5 81.5t252 -79.5t107 -217.5q0 -101 -72 -167q-24 -22 -56 -37q63 -29 96 -81.5t33 -110.5q0 -117 -70 -193t-207 -76
q-56 0 -138 32v174z" />
    <glyph glyph-name="k3th3u1" horiz-adv-x="1125" 
d="M1065 61q72 -70 72 -184t-77.5 -199t-191.5 -85t-191.5 85t-77.5 200q0 144 112 213v90q66 -34 117.5 -34t75 27t23.5 69.5t-32 70.5t-80 28h-46v178h20q74 0 93 12q37 23 37 94q0 88 -97 114q-28 8 -76 8t-98 -34t-50 -99t31.5 -166t31.5 -162q0 -131 -65.5 -218.5
t-206.5 -87.5q-309 -1 -331 351q-4 54 -3 128q0 74 29 217.5t80 232.5h190q-64 -86 -101 -322q-14 -89 -14 -196q0 -108 31 -173t104 -65q72 0 96 78q6 22 7 41v11q-4 41 -14.5 80.5t-29.5 114.5t-19 150q0 145 103.5 226.5t248.5 81.5t252 -79.5t107 -217.5
q0 -101 -72 -167q-24 -22 -56 -37q63 -29 96 -81.5t33 -115.5q0 -109 -61 -178zM804 -22q-43 -34 -43 -84t30.5 -84t76.5 -34q45 0 76 33t31 71q0 69 -49 103q-37 -8 -69 -8t-53 3z" />
    <glyph glyph-name="k3th3u2" horiz-adv-x="1142" 
d="M1068 64q96 -85 96 -225t-85.5 -229.5t-214.5 -89.5t-214 89t-85 224q0 94 41.5 159t104.5 100v89q66 -34 117.5 -34t75 27t23.5 69.5t-32 70.5t-80 28h-46v178h20q74 0 93 12q37 23 37 94q0 88 -97 114q-28 8 -76 8t-98 -34t-50 -99t31.5 -166t31.5 -162
q0 -131 -65.5 -218.5t-206.5 -87.5q-309 -1 -331 351q-4 54 -3 128q0 74 29 217.5t80 232.5h190q-64 -86 -101 -322q-14 -89 -14 -196q0 -108 31 -173t104 -65q72 0 96 78q6 22 7 41v11q-4 41 -14.5 80.5t-29.5 114.5t-19 150q0 145 103.5 226.5t248.5 81.5t252 -79.5
t107 -217.5q0 -101 -72 -167q-24 -22 -56 -37q63 -29 96 -81.5t33 -115.5q0 -105 -58 -175zM774 -15q-39 -47 -39 -117t37.5 -119t91.5 -49t91.5 49t37.5 120.5t-42 119.5q-6 -2 -8 -2q11 -25 11 -59t-26.5 -66t-65.5 -32q-38 0 -64.5 32t-26.5 66t9 55z" />
    <glyph glyph-name="k3th3th4" horiz-adv-x="1885" 
d="M1084 164q8 -30 46 -30q64 0 88 56q16 40 17 135v575h176v-594q0 -85 26.5 -118.5t80.5 -33.5q98 0 142 96q32 70 33 193q0 123 -30 226t-96 241h183q81 -107 118 -329q12 -72 12 -163.5t-28 -177.5q-30 -85 -76 -143q-95 -118 -237.5 -118t-203.5 93q-84 -108 -196 -108
q-82 0 -163 58q-52 -48 -119.5 -50t-130.5 35l-5 169q42 -35 82 -31.5t67 30t27 68.5t-32 75.5t-80 33.5h-17l-2 168h15q108 0 108 106q0 88 -82 112q-24 7 -67 7t-87.5 -34t-44.5 -96t26.5 -165.5t26.5 -163.5q0 -130 -65.5 -217.5t-206.5 -87.5q-309 -1 -331 351
q-4 54 -3 128q0 74 29 217.5t80 232.5h190q-64 -86 -101 -322q-14 -89 -14 -196q0 -108 31 -173t104 -65q72 0 96 78q6 22 7 41v11q-4 41 -13 80.5t-24.5 111t-15.5 148.5q0 147 98 229.5t236 82.5t237.5 -78.5t99.5 -217.5q0 -101 -72 -167q-24 -22 -56 -37
q129 -59 129 -187q0 -51 -12 -85z" />
    <glyph glyph-name="k3th3th4u1" horiz-adv-x="1885" 
d="M1084 164q8 -30 46 -30q64 0 88 56q16 40 17 135v575h176v-594q0 -85 26.5 -118.5t80.5 -33.5q98 0 142 96q32 70 33 193q0 123 -30 226t-96 241h183q81 -107 118 -329q12 -72 12 -144q0 -240 -126 -366q83 -72 83 -190t-77.5 -203t-191.5 -85t-191.5 85t-77.5 191.5
t58 175.5q-10 10 -22 27q-84 -108 -196 -108q-82 0 -163 58q-52 -48 -119.5 -50t-130.5 35l-5 169q42 -35 82 -31.5t67 30t27 68.5t-32 75.5t-80 33.5h-17l-2 168h15q108 0 108 106q0 88 -82 112q-24 7 -67 7t-87.5 -34t-44.5 -96t26.5 -165.5t26.5 -163.5
q0 -130 -65.5 -217.5t-206.5 -87.5q-309 -1 -331 351q-4 54 -3 128q0 74 29 217.5t80 232.5h190q-64 -86 -101 -322q-14 -89 -14 -196q0 -108 31 -173t104 -65q72 0 96 78q6 22 7 41v11q-4 41 -13 80.5t-24.5 111t-15.5 148.5q0 147 98 229.5t236 82.5t237.5 -78.5
t99.5 -217.5q0 -101 -72 -167q-24 -22 -56 -37q129 -59 129 -187q0 -51 -12 -85zM1508 -19q-47 -34 -47 -85.5t30.5 -85.5t76.5 -34q45 0 76 33t31 72q0 77 -58 108q-33 -10 -61 -10t-48 2z" />
    <glyph glyph-name="k3th3th4u2" horiz-adv-x="1885" 
d="M1084 164q8 -30 46 -30q64 0 88 56q16 40 17 135v575h176v-594q0 -85 26.5 -118.5t80.5 -33.5q98 0 142 96q32 70 33 193q0 123 -30 226t-96 241h183q81 -107 118 -329q12 -72 12 -144q0 -234 -123 -364q107 -82 107 -228t-85.5 -235.5t-214.5 -89.5t-214 89t-85 224
t88 216q-5 5 -9 11t-9 12q-84 -108 -196 -108q-82 0 -163 58q-52 -48 -119.5 -50t-130.5 35l-5 169q42 -35 82 -31.5t67 30t27 68.5t-32 75.5t-80 33.5h-17l-2 168h15q108 0 108 106q0 88 -82 112q-24 7 -67 7t-87.5 -34t-44.5 -96t26.5 -165.5t26.5 -163.5
q0 -130 -65.5 -217.5t-206.5 -87.5q-309 -1 -331 351q-4 54 -3 128q0 74 29 217.5t80 232.5h190q-64 -86 -101 -322q-14 -89 -14 -196q0 -108 31 -173t104 -65q72 0 96 78q6 22 7 41v11q-4 41 -13 80.5t-24.5 111t-15.5 148.5q0 147 98 229.5t236 82.5t237.5 -78.5
t99.5 -217.5q0 -101 -72 -167q-24 -22 -56 -37q129 -59 129 -187q0 -51 -12 -85zM1474 -14q-39 -47 -39 -120q0 -68 27 -104q48 -62 102 -62t91.5 49t37.5 102q0 98 -50 146l-5 -2q16 -27 16 -64t-26.5 -69t-65.5 -32q-38 0 -64.5 32t-26.5 66t10 56z" />
    <glyph glyph-name="k3th3th4r1" horiz-adv-x="1885" 
d="M1084 164q8 -30 46 -30q64 0 88 56q16 40 17 135v575h176v-594q0 -93 56 -129q20 -13 48 -13q178 0 178 273q1 190 -75 363q-24 54 -51 110h183q132 -176 132 -521.5t-120 -577.5q-92 -177 -264 -247q-90 -36 -176 -37q-160 0 -265.5 54.5t-105.5 158.5t97.5 157
t221.5 53q180 0 255 -86l-79 -109q-57 53 -169.5 53t-112.5 -67q0 -60 131 -60q245 0 345 315q-42 -15 -91 -15q-154 0 -214 91q-84 -108 -196 -108q-82 0 -163 58q-52 -48 -131 -50h-3q-54 0 -116 35l-5 169q35 -32 77 -32h7q38 4 65 30.5t27 68.5t-32 75.5t-80 33.5h-17
l-2 168h15q108 0 108 106q0 88 -82 112q-24 7 -67 7t-87.5 -34t-44.5 -96t26.5 -165.5t26.5 -163.5q0 -130 -65.5 -217.5t-206.5 -87.5q-309 -1 -331 351q-4 54 -3 128q0 74 29 217.5t80 232.5h190q-64 -86 -101 -322q-14 -89 -14 -196q0 -108 31 -173t104 -65q72 0 96 78
q6 22 7 41v11q-4 41 -13 80.5t-24.5 111t-15.5 148.5q0 147 98 229.5t236 82.5t237.5 -78.5t99.5 -217.5q0 -101 -72 -167q-24 -22 -56 -37q129 -59 129 -187q0 -51 -12 -85z" />
    <glyph glyph-name="k3th3th4r3" horiz-adv-x="2191" 
d="M1394 164q8 -30 46 -30q64 0 88 56q16 40 17 135v585h176v-604q0 -85 26.5 -118.5t77.5 -33.5q182 0 182 216q0 137 -54 304t-112 236h213q133 -220 133 -519q1 -571 -571 -726q-196 -53 -471 -53q-533 0 -813 228q-258 209 -257 566q0 288 122 504h210
q-161 -203 -161 -470q0 -476 483 -620q167 -50 412.5 -49.5t469.5 65.5t257 153q-169 0 -223 83q-84 -108 -196 -108q-82 0 -163 58q-54 -50 -131 -50h-4q-53 0 -115 35l-5 169q35 -32 78 -32h6q38 3 65 30t27 69t-32 75.5t-80 33.5h-17l-2 168h15q108 0 108 106
q0 88 -82 112q-24 7 -67 7t-87.5 -34t-44.5 -96t26.5 -165.5t26.5 -163.5q0 -130 -65.5 -217.5t-206.5 -87.5q-180 0 -260.5 113t-80.5 306.5t84 401.5q24 60 52 108h200q-70 -96 -127 -330q-28 -115 -28 -210q0 -216 150 -216q67 0 91 78q6 22 7 41v11q-4 41 -13 80.5
t-24.5 111t-15.5 148.5q0 147 98 229.5t236 82.5t237.5 -78.5t99.5 -217.5q0 -101 -72 -167q-24 -22 -56 -37q129 -59 129 -187q0 -51 -12 -85z" />
    <glyph glyph-name="k3th3th4r3u1" horiz-adv-x="2191" 
d="M2055 -302q0 47 -31 80t-76 33h-8q-28 -23 -86 -59q-13 -26 -13 -62t30.5 -70t76.5 -34q45 0 76 33t31 79zM1394 164q8 -30 46 -30q64 0 88 56q16 40 17 135v585h176v-604q0 -85 26.5 -118.5t77.5 -33.5q182 0 182 216q0 137 -54 304t-112 236h213q133 -220 133 -512
t-133 -470q163 -62 163 -245q0 -110 -77.5 -195t-189 -85t-188.5 79t-83 192q-222 -72 -516 -72q-549 0 -831 232q-258 211 -257 572q0 288 122 504h210q-161 -203 -161 -470q0 -480 483 -628q167 -51 367 -51q201 -1 435 53q297 68 337 175q-169 0 -223 83
q-84 -108 -196 -108q-82 0 -163 58q-54 -50 -131 -50h-4q-53 0 -115 35l-5 169q35 -32 78 -32h6q38 3 65 30t27 69t-32 75.5t-80 33.5h-17l-2 168h15q108 0 108 106q0 88 -82 112q-24 7 -67 7t-87.5 -34t-44.5 -96t26.5 -165.5t26.5 -163.5q0 -130 -65.5 -217.5
t-206.5 -87.5q-180 0 -260.5 113t-80.5 306.5t84 401.5q24 60 52 108h200q-70 -96 -127 -330q-28 -115 -28 -210q0 -216 150 -216q67 0 91 78q6 22 7 41v11q-4 41 -13 80.5t-24.5 111t-15.5 148.5q0 147 98 229.5t236 82.5t237.5 -78.5t99.5 -217.5q0 -101 -72 -167
q-24 -22 -56 -37q129 -59 129 -187q0 -51 -12 -85z" />
    <glyph glyph-name="k3th3th4r3u2" horiz-adv-x="2191" 
d="M1394 164q8 -30 46 -30q64 0 88 56q16 40 17 135v585h176v-604q0 -85 26.5 -118.5t77.5 -33.5q182 0 182 216q0 137 -54 304t-112 236h213q133 -220 133 -525t-169 -491q176 -70 176 -286q0 -128 -85.5 -218t-214.5 -90t-214 89t-85 224q0 24 3 48q-196 -49 -462 -49
q-524 0 -804 228q-258 209 -257 566q0 288 122 504h210q-161 -203 -161 -470q0 -476 483 -620q167 -50 412.5 -49.5t469.5 65.5t257 153q-169 0 -223 83q-84 -108 -196 -108q-82 0 -163 58q-54 -50 -131 -50h-4q-53 0 -115 35l-5 169q35 -32 78 -32h6q38 3 65 30t27 69
t-32 75.5t-80 33.5h-17l-2 168h15q108 0 108 106q0 88 -82 112q-24 7 -67 7t-87.5 -34t-44.5 -96t26.5 -165.5t26.5 -163.5q0 -130 -65.5 -217.5t-206.5 -87.5q-180 0 -260.5 113t-80.5 306.5t84 401.5q24 60 52 108h200q-70 -96 -127 -330q-28 -115 -28 -210
q0 -216 150 -216q67 0 91 78q6 22 7 41v11q-4 41 -13 80.5t-24.5 111t-15.5 148.5q0 147 98 229.5t236 82.5t237.5 -78.5t99.5 -217.5q0 -101 -72 -167q-24 -22 -56 -37q129 -59 129 -187q0 -51 -12 -85zM1960 -212q24 -32 24 -73t-26.5 -73t-65.5 -32q-38 0 -64.5 32
t-26.5 75v8t1 9q-5 -3 -11 -5.5t-12 -5.5q-14 -37 -14 -91t37.5 -103t91.5 -49t91.5 49t37.5 104q0 111 -63 155z" />
    <glyph glyph-name="k3n1" horiz-adv-x="1495" 
d="M955 828q58 58 102 80t124.5 22t195.5 -80t115 -340q0 -258 -68 -430q-20 -50 -42 -80h-188q114 224 114 473q0 121 -32.5 197t-119.5 76q-68 0 -85.5 -28.5t-17.5 -112.5v-605h-181v605q0 107 -83 135q-24 8 -66 8t-83.5 -35.5t-41.5 -98.5q0 -64 31.5 -165t31.5 -162
q0 -131 -65.5 -218.5t-206.5 -87.5q-309 -1 -331 351q-4 54 -3 128q0 74 29 217.5t80 232.5h190q-64 -86 -101 -322q-14 -89 -14 -196q0 -108 31 -173t104 -65q72 0 96 78q6 22 7 41v11q-4 41 -14.5 80.5t-29.5 114.5t-19 145q0 137 91.5 222.5t227 85.5t222.5 -104z" />
    <glyph glyph-name="k3n1u1" horiz-adv-x="1631" 
d="M955 828q102 104 275 104t286 -134.5t113 -380.5q0 -161 -57 -281q-72 -154 -217 -153q-120 0 -184.5 106t-64.5 233q0 222 116 302q44 30 106 30t96 -30q-11 61 -71 99t-130 38q-115 -1 -156 -87q-14 -30 -14 -69v-605h-181v605q0 107 -83 135q-24 8 -66 8t-83.5 -35.5
t-41.5 -98.5q0 -64 31.5 -165t31.5 -162q0 -131 -65.5 -218.5t-206.5 -87.5q-309 -1 -331 351q-4 54 -3 128q0 74 29 217.5t80 232.5h190q-64 -86 -101 -322q-14 -89 -14 -196q0 -108 31 -173t104 -65q72 0 96 78q6 22 7 41v11q-4 41 -14.5 80.5t-29.5 114.5t-19 145
q0 137 91.5 222.5t227 85.5t222.5 -104zM1432 311q0 85 -44 135q-16 18 -38 18q-39 0 -58 -60q-14 -43 -14 -93q0 -89 36 -135q14 -18 36 -18q39 0 60.5 52t21.5 101z" />
    <glyph glyph-name="k3n1u2" horiz-adv-x="1914" 
d="M1366 163q96 0 96 235v8q0 26 -12 86q-74 -10 -120 -65.5t-46 -132.5t44 -117q16 -14 38 -14zM955 828q104 106 244 106t252.5 -76.5t153.5 -202.5q150 -33 229.5 -161t79.5 -298q0 -229 -135.5 -405t-369.5 -176q-117 0 -238 53v211q112 -83 214 -83q175 0 267 137
q78 116 78 265t-58 224q-18 24 -43 36q8 -39 12 -79v-30q1 -251 -145 -341q-52 -32 -124 -32q-130 0 -204.5 100t-74.5 232.5t83 231t221 120.5q-31 66 -149 83q-34 5 -62 5q-58 0 -95.5 -45t-37.5 -128v-575h-181v605q0 107 -83 135q-24 8 -66 8t-83.5 -35.5t-41.5 -98.5
q0 -64 31.5 -165t31.5 -162q0 -131 -65.5 -218.5t-206.5 -87.5q-309 -1 -331 351q-4 54 -3 128q0 74 29 217.5t80 232.5h190q-64 -86 -101 -322q-14 -89 -14 -196q0 -108 31 -173t104 -65q72 0 96 78q6 22 7 41v11q-4 41 -14.5 80.5t-29.5 114.5t-19 145q0 137 91.5 222.5
t227 85.5t222.5 -104z" />
    <glyph glyph-name="k3m1" horiz-adv-x="1293" 
d="M720 736q-102 0 -102 -123q0 -80 21.5 -169.5t21.5 -153.5q0 -134 -65.5 -221.5t-206.5 -87.5q-309 -1 -331 351q-4 54 -3 128q0 74 29 217.5t80 232.5h190q-64 -86 -101 -322q-14 -89 -14 -196q0 -108 31 -173t104 -65q72 0 96 78q6 22 7 41v11q-4 41 -13 80.5
t-24.5 111t-15.5 147.5q0 145 122 227.5t297.5 82.5t310.5 -98t135 -277v-557h-605q145 171 145 437q0 194 -57 270q-20 28 -52 28zM922 756q69 -104 69 -319q0 -117 -19.5 -176.5t-34.5 -97.5l175 -1v379q0 85 -54 150t-133 65h-3z" />
    <glyph glyph-name="k3m1u1" horiz-adv-x="1293" 
d="M664 1q155 183 155 437q0 194 -57 270q-21 28 -66 28t-61.5 -31.5t-16.5 -101.5t21.5 -159.5t21.5 -153.5q0 -134 -65.5 -221.5t-206.5 -87.5q-309 -1 -331 351q-4 54 -3 128q0 74 29 217.5t80 232.5h190q-64 -86 -101 -322q-14 -89 -14 -196q0 -108 31 -173t104 -65
q72 0 96 78q6 22 7 41v11q-4 41 -13 80.5t-24.5 111t-15.5 147.5q0 145 122 227.5t297.5 82.5t310.5 -98t135 -277v-557h-25q23 -49 23 -109q0 -119 -77.5 -204t-191.5 -85t-191.5 85t-77.5 200q0 61 24 113h-109zM922 756q59 -90 59 -319q0 -133 -14.5 -184.5t-29.5 -89.5
l175 -1v379q0 85 -55 151t-132 64h-3zM1117 -145q8 20 8 49t-18 57t-47 40h-83q-29 -12 -47.5 -40t-18.5 -68t30.5 -73.5t76.5 -33.5q45 0 68 24.5t31 44.5z" />
    <glyph glyph-name="k3m1u2" horiz-adv-x="1293" 
d="M1267 1q37 -70 37 -147q0 -144 -85.5 -234t-214.5 -90t-214 89t-85 224q0 92 41 158h-82q145 171 145 437q0 194 -57 270q-21 28 -65 28q-43 0 -59 -37q-10 -22 -10 -94t21.5 -161.5t21.5 -153.5q0 -134 -65.5 -221.5t-206.5 -87.5q-309 -1 -331 351q-4 54 -3 128
q0 74 29 217.5t80 232.5h190q-64 -86 -101 -322q-14 -89 -14 -196q0 -108 31 -173t104 -65q72 0 96 78q6 22 7 41v11q-4 41 -13 80.5t-24.5 111t-15.5 147.5q0 145 122 227.5t297.5 82.5t310.5 -98t135 -277v-557h-22zM922 756q69 -104 69 -319q0 -117 -19.5 -176.5
t-34.5 -97.5l175 -1v379q0 85 -55 151t-132 64h-3zM920 1q-45 -45 -45 -119t27 -110q48 -62 102 -62t91.5 49t37.5 122t-45 120h-8q14 -25 14 -61t-26.5 -68t-65.5 -32q-38 0 -64.5 32t-26.5 67.5t13 61.5h-4z" />
    <glyph glyph-name="k3r3" horiz-adv-x="1342" 
d="M397 909q-166 -204 -166 -587q0 -109 38.5 -214.5t104.5 -176.5q134 -143 354 -143q218 0 340 196q106 169 106 398q0 154 -50 260t-133 106q-42 0 -72.5 -33.5t-30.5 -98.5t31.5 -166.5t31.5 -162.5q0 -131 -65.5 -218.5t-206.5 -87.5q-309 -1 -331 351q-4 54 -3 128
q0 74 29 217.5t80 232.5h190q-64 -86 -101 -322q-14 -89 -14 -196q0 -108 31 -173t104 -65q72 0 96 78q6 22 7 41v11q-4 41 -14.5 80.5t-29.5 114.5t-19 148q0 142 81.5 225.5t186 83.5t175.5 -44t118 -118.5t71 -172t24 -245t-72 -326.5t-214.5 -293t-345.5 -114
q-297 0 -484 189t-187 550q0 235 75 432q24 63 55 115h210z" />
    <glyph glyph-name="k3r3u1" horiz-adv-x="1342" 
d="M397 909q-166 -204 -166 -587q0 -109 40 -205q112 -269 461 -269q226 0 342 166q100 143 100 368q0 154 -50 260t-133 106q-42 0 -72.5 -33.5t-30.5 -98.5t31.5 -166.5t31.5 -162.5q0 -131 -65.5 -218.5t-206.5 -87.5q-309 -1 -331 351q-4 54 -3 128q0 74 29 217.5
t80 232.5h190q-64 -86 -101 -322q-14 -89 -14 -196q0 -108 31 -173t109 -65q52 0 83 48q30 48 0 162q-48 182 -48 259q0 146 81.5 229.5t185.5 83.5q191 0 290 -156.5t99 -381.5q0 -308 -166 -508q61 -28 102 -86t41 -130q0 -131 -77.5 -216t-191.5 -85t-191.5 85t-77.5 200
l1 27q-30 -2 -62 -2q-478 -1 -628 361q-54 130 -53.5 341.5t75.5 408.5q24 63 55 115h210zM1145.5 -254.5q-29.5 33.5 -72.5 35.5q-46 -31 -95 -52q-17 -28 -17 -67t30.5 -72.5t76.5 -33.5q45 0 76 33t31 78t-29.5 78.5z" />
    <glyph glyph-name="k3r3u2" horiz-adv-x="1342" 
d="M397 909q-166 -204 -166 -587q0 -110 37 -204q102 -260 444 -260q226 0 344 151t118 373q0 154 -50 260t-133 106q-42 0 -72.5 -33.5t-30.5 -98.5t31.5 -166.5t31.5 -162.5q0 -131 -65.5 -218.5t-206.5 -87.5q-309 -1 -331 351q-4 54 -3 128q0 74 29 217.5t80 232.5h190
q-64 -86 -101 -322q-14 -89 -14 -196q0 -108 31 -173t104 -65q72 0 96 78q6 22 7 41v11q-4 41 -14.5 80.5t-29.5 114.5t-19 148q0 142 81.5 225.5t185.5 83.5q191 0 290 -156.5t99 -381.5q0 -275 -186 -497q170 -71 170 -284q0 -128 -85.5 -217.5t-214.5 -89.5t-214 89
t-85 224q0 39 7 70h-34q-470 0 -610 353q-50 128 -50.5 339.5t74.5 408.5q24 63 55 115h210zM1110 -202q24 -32 24 -73t-26.5 -73t-65.5 -32q-38 0 -64.5 32t-26.5 75v9l-24 -9q-12 -33 -12 -86t37.5 -102t91.5 -49t91.5 49t37.5 104q0 111 -63 155z" />
    <glyph glyph-name="k3l3" horiz-adv-x="1035" 
d="M414 638q0 292 294 292t320 -316q4 -48 4 -98.5t-17 -141.5q-42 -227 -103 -318h-188q76 130 114 364q10 62 10 100q0 237 -138 237q-112 0 -112 -115q0 -70 21.5 -134.5t31.5 -100.5q10 -35 10 -87q0 -118 -65.5 -200.5t-206.5 -82.5q-307 0 -331 331q-4 50 -3 121
q0 71 29.5 205.5t79.5 217.5h190q-64 -82 -101 -303q-14 -84 -14 -185t31 -162.5t103.5 -61.5t96.5 74q6 20 7 38v11q-4 38 -14.5 75.5t-29.5 107.5t-19 132zM1028 -266q0 -224 -179 -223.5t-228.5 57t-49.5 131.5l5 84q0 57 -28 86t-97 29q-129 0 -168 -53q23 12 65 12
q86 0 130 -48t44 -113q0 -70 -34 -110q-67 -78 -161.5 -78t-150 69.5t-55.5 173.5t84 186t247 82q221 1 263 -149q12 -42 12 -87l-7 -92q0 -21 15 -37.5t51 -16.5q92 0 92 99q0 98 -71 210q-22 34 -50 62h166q70 -83 97 -204q8 -36 8 -70zM397 -311q0 43 -35 61q-14 8 -45 7
q-31 0 -46 -21.5t-15 -46.5q0 -43 34 -61q14 -8 44 -7q31 0 47 21.5t16 46.5z" />
    <glyph glyph-name="k3l3u1" horiz-adv-x="1035" 
d="M414 638q0 292 294 292t320 -316q4 -48 4 -98.5t-17 -141.5q-42 -227 -103 -318h-188q76 130 114 364q10 62 10 100q0 237 -138 237q-112 0 -112 -115q0 -70 21.5 -134.5t31.5 -100.5q10 -35 10 -87q0 -118 -65.5 -200.5t-206.5 -82.5q-307 0 -331 331q-4 50 -3 121
q0 71 29.5 205.5t79.5 217.5h190q-64 -82 -101 -303q-14 -84 -14 -185t31 -162.5t103.5 -61.5t96.5 74q6 20 7 38v11q-4 38 -14.5 75.5t-29.5 107.5t-19 132zM917 1q97 -111 97 -267q0 -52 -31 -99q67 -57 67 -151t-62.5 -162t-153.5 -68q-92 0 -153 67.5t-61 160.5
q0 56 36 109q-63 45 -63 133l5 74q0 47 -24 72t-102 25t-115 -31q11 4 45 4q74 0 115.5 -43.5t41.5 -94.5q0 -91 -52.5 -139.5t-128 -48.5t-133 57.5t-57.5 162.5q0 164 166 227q58 22 134 22q254 0 255 -213l-6 -81q0 -40 51 -40q81 0 81 83q-1 84 -67 183q-22 32 -49 58
h164zM896.5 -583q24.5 27 24.5 59q0 65 -54 88q-35 -6 -78 -8q-39 -26 -39 -69t24.5 -70t61 -27t61 27zM445 -288q1 39 -33 56q-14 7 -35 7q-53 0 -63 -44q-2 -11 -3 -27q0 -16 14.5 -34.5t51.5 -18.5q38 0 53 19t15 42z" />
    <glyph glyph-name="k3l3u2" horiz-adv-x="1035" 
d="M414 638q0 292 294 292t320 -316q4 -48 4 -98.5t-17 -141.5q-42 -227 -103 -318h-188q76 130 114 364q10 62 10 100q0 237 -138 237q-112 0 -112 -115q0 -70 21.5 -134.5t31.5 -100.5q10 -35 10 -87q0 -118 -65.5 -200.5t-206.5 -82.5q-307 0 -331 331q-4 50 -3 121
q0 71 29.5 205.5t79.5 217.5h190q-64 -82 -101 -303q-14 -84 -14 -185t31 -162.5t103.5 -61.5t96.5 74q6 20 7 38v11q-4 38 -14.5 75.5t-29.5 107.5t-19 132zM917 11q97 -111 97 -267q0 -52 -31 -99q67 -57 67 -156t-62.5 -167t-153.5 -68q-92 0 -153 67.5t-61 147t36 132.5
q-63 45 -63 133l5 74q0 47 -24 72t-102 25t-115 -31q11 4 45 4q74 0 115.5 -43.5t41.5 -96.5q0 -98 -52.5 -150.5t-128 -52.5t-133 62t-57.5 170t77 186t220 78t200.5 -63.5t57.5 -159.5l-6 -81q-1 -42 49 -64q14 -6 32 -6t34.5 18.5t16.5 64.5v26q-1 88 -67 187
q-22 32 -49 58h164zM784 -448q-34 -26 -34 -79.5t52 -83.5q16 -9 33 -9q35 0 60.5 31t25.5 70t-31 68q3 -14 3 -38.5t-16.5 -49.5t-40 -25t-40 25t-16.5 52t4 39zM301 -279q0 -80 76 -80q42 0 60 22t18 49q0 26 -17.5 49.5t-60.5 23.5q-42 0 -59 -22.5t-17 -41.5z" />
    <glyph glyph-name="k4u1" horiz-adv-x="1602" 
d="M384 296q46 203 46 266t-23.5 106.5t-60.5 43.5q-109 0 -109 -174q0 -78 50 -242h-184q-42 159 -42 244q0 150 73.5 241.5t199.5 91.5t199 -87.5t73 -205.5q0 -54 -10 -124h77q0 275 130 398q80 76 189 76q108 0 172 -38q174 -106 175 -398q-1 -50 -1 -96v-102h-481v-137
h560l-10 750h184l10 -909h-26q32 -53 32 -116q0 -121 -77.5 -206t-191.5 -85t-191.5 85t-77.5 200q0 68 33 122h-429v296q-13 -5 -289 0zM1154 456q0 290 -148.5 290t-148.5 -290h297zM1445 -112q-1 73 -65 103q-20 9 -42 9q-70 0 -98 -70q-8 -20 -9 -53q0 -33 30.5 -67
t76.5 -34q45 0 76 33t31 79z" />
    <glyph glyph-name="k4u2" horiz-adv-x="1602" 
d="M384 296q46 203 46 266t-23.5 106.5t-60.5 43.5q-109 0 -109 -174q0 -78 50 -242h-184q-42 159 -42 244q0 150 73.5 241.5t199.5 91.5t199 -87.5t73 -206.5q0 -53 -10 -123h77q0 275 130 398q80 76 189 76q108 0 172 -38q174 -106 175 -398q-1 -50 -1 -96v-102h-481v-137
h560l-10 750h184l10 -909h-34q37 -72 37 -153q0 -148 -85.5 -237.5t-214.5 -89.5t-214 89t-85 224q0 91 39 167h-371v296q-13 -5 -289 0zM1154 456q0 290 -148.5 290t-148.5 -290h297zM1229 0q-54 -44 -54 -123t27 -115q48 -62 102 -62t91.5 49t37.5 127t-54 124h-4
q19 -29 19 -68t-26.5 -70.5t-65.5 -31.5q-38 0 -64.5 32t-26.5 71.5t18 66.5h1h-1zM1230 0h-1h1z" />
    <glyph glyph-name="k4r1" horiz-adv-x="1602" 
d="M384 296q46 203 46 266t-23.5 106.5t-60.5 43.5q-109 0 -109 -174q0 -78 50 -242h-184q-42 159 -42 244q0 150 73.5 241.5t199.5 91.5t199 -87.5t73 -206.5q0 -53 -10 -123h77q0 275 130 398q80 76 189 76q108 0 172 -38q174 -106 175 -398q-1 -50 -1 -96v-102h-481v-137
h560l-10 750h184l11 -919q0 -192 -115 -321t-321 -129t-285 114q-28 40 -28 97q0 103 87 156t194.5 53t183.5 -46q28 -16 45 -40l-68 -109q-49 53 -130 53t-111 -34q-12 -13 -12 -32q0 -61 121.5 -61t187.5 89t66 210v10h-744v296q-13 -5 -289 0zM1154 456q0 290 -148.5 290
t-148.5 -290h297z" />
    <glyph glyph-name="k4n1" horiz-adv-x="1601" 
d="M384 328q46 195 46 254t-23.5 100t-59.5 41q-110 0 -110 -165q0 -75 50 -230h-184q-42 153 -42 233q0 143 73 229.5t199.5 86.5t199.5 -83t73 -196q0 -52 -10 -118h77q-1 348 217 432q50 20 130 20q80 -2 144 -38q174 -100 175 -378q-1 -46 -1 -90v-98h-481v-130h560
l-10 713h184l10 -864h-928v281q-5 -1 -35.5 -1t-89 -0.5t-164.5 1.5zM1154 480q0 276 -146 276q-88 0 -126 -103q-26 -71 -25 -173h297zM1229 -22q55 48 120 48q109 0 156 -68t47 -164t-41 -176q-13 -26 -29 -42h-142q75 118 75 212q-1 94 -35 114q-14 8 -37 8.5t-33.5 -7
t-10.5 -39.5v-284h-134v284q0 47 -55 47q-64 -1 -70 -75q-2 -20 -1 -59q0 -76 76 -201h-143q-46 51 -64 157q-6 33 -5 67q0 90 46 158t135.5 68t144.5 -48z" />
    <glyph glyph-name="k4r3" horiz-adv-x="1850" 
d="M1394 456q0 290 -148.5 290t-148.5 -290h297zM623 296q47 207 47 269q0 61 -23.5 104t-60.5 43q-109 0 -109 -174q0 -78 50 -242h-184q-42 159 -42 244q0 150 73.5 241.5t199.5 91.5t199 -87.5t73 -205.5q0 -54 -10 -124h77q0 275 130 398q80 76 189 76q187 0 274 -137
q73 -114 73 -293v-6q-1 -23 -1 -44v-154h-481v-137h560l-11 750h184l14 -909h-2q-8 -136 -103 -248t-225 -112h-813q-205 0 -352 116.5t-222 301.5t-75 393q0 266 115 458h210q-150 -186 -150 -460t130 -454q144 -200 398 -200h714q82 0 136 62.5t54 142.5h-746v296
q-4 -2 -38 -2h-50q-58 0 -202 2z" />
    <glyph glyph-name="k4r3u1" horiz-adv-x="1850" 
d="M623 296q47 207 47 269q0 61 -23.5 104t-60.5 43q-109 0 -109 -174q0 -78 50 -242h-184q-42 159 -42 244q0 150 73.5 241.5t199.5 91.5t199 -87.5t73 -206.5q0 -53 -10 -123h77q0 275 130 398q80 76 189 76q187 0 274 -137q73 -114 73 -293l-1 -6v-198h-481v-137h560
l-11 750h184l14 -909h-2q-5 -78 -44 -130q-14 -18 -33 -40q92 -70 92 -193.5t-77.5 -208.5t-191.5 -85t-191.5 85t-77.5 200q0 50 15 92h-623q-312 0 -485.5 209t-173.5 522q0 266 115 458h210q-150 -186 -150 -454.5t139.5 -424t398.5 -155.5h714q53 0 96.5 17t63.5 35.5
t20 72.5h-746v296q-4 -2 -38 -2h-50q-58 0 -202 2zM1394 456q0 290 -148.5 290t-148.5 -290h297zM1514 -280q-33 -35 -33 -81q0 -45 30.5 -79t76.5 -34q45 0 76 33t31 73q0 77 -60 108q-54 -20 -111 -20h-10z" />
    <glyph glyph-name="k4r3u2" horiz-adv-x="1850" 
d="M623 296q47 207 47 269q0 61 -23.5 104t-60.5 43q-109 0 -109 -174q0 -78 50 -242h-184q-42 159 -42 244q0 150 73.5 241.5t199.5 91.5t199 -87.5t73 -206.5q0 -53 -10 -123h77q0 275 130 398q80 76 189 76q187 0 274 -137q73 -114 73 -293l-1 -6v-198h-481v-137h560
l-11 750h184l14 -909h-2q-4 -82 -46 -133q-14 -18 -34 -37q102 -82 102 -226.5t-85.5 -234t-214.5 -89.5t-214 89t-85 224q0 82 34 147h-588q-313 0 -486 200t-173 511q0 266 115 458h210q-150 -186 -150 -453t139 -414t399 -147h714q101 1 129 13q51 23 51 92h-746v296
q-4 -2 -38 -2h-50q-58 0 -202 2zM1394 456q0 290 -148.5 290t-148.5 -290h297zM1469 -260q-34 -46 -34 -114t37.5 -117t91.5 -49t91.5 49t37.5 102q0 100 -51 147l-4 -1q16 -29 16 -66t-26.5 -69t-65.5 -32q-38 0 -64.5 32t-26.5 75q0 21 8 43h-10z" />
    <glyph glyph-name="ngu1" horiz-adv-x="1321" 
d="M1279 75q98 -78 98 -195t-77.5 -202t-191.5 -85t-191.5 85t-77.5 200q0 168 183 246h1v57q89 -1 113 31q12 14 11 40q0 62 -77 68q-22 2 -45 2v183h21q48 0 74.5 39.5t26.5 80.5q0 119 -139 119q-100 0 -134 -55t-34 -154v-535h-183v519q0 103 -53 164t-163 61
q-174 0 -202 -204q40 38 95 38q106 0 166.5 -92.5t60.5 -207.5t-70.5 -207.5t-182.5 -92.5q-258 0 -258 434q0 405 258 493q58 20 143 20q84 0 173.5 -32t122.5 -101q26 72 100.5 106t152.5 34q151 0 241 -83t90 -223q-1 -81 -9 -107q-18 -56 -85 -93q81 -34 91 -119
q3 -26 3 -55q0 -107 -52 -177zM1207 -155q8 20 8 51.5t-27 66.5q-28 35 -68 35h-36q-36 -9 -59.5 -40t-23.5 -73t30.5 -75.5t76.5 -33.5q45 0 68 24.5t31 44.5zM383 240q4 21 4 50t-19 70.5t-57 41.5q-56 0 -72 -86q-4 -22 -4 -51t19 -70t57 -41q56 0 72 86z" />
    <glyph glyph-name="ngu2" horiz-adv-x="1321" 
d="M1290 92q134 -79 134 -259q0 -134 -85.5 -223.5t-214.5 -89.5t-214 89t-85 236.5t121 231.5q36 25 77 39v65q89 -1 113 31q12 14 11 40q0 62 -77 68q-22 2 -45 2v183h21q48 0 74.5 39.5t26.5 80.5q0 119 -139 119q-100 0 -134 -55t-34 -154v-535h-183v519q0 103 -53 164
t-163 61q-174 0 -202 -204q40 38 95 38q106 0 166.5 -92.5t60.5 -207.5t-70.5 -207.5t-182.5 -92.5q-258 0 -258 434q0 405 258 493q58 20 143 20q84 0 173.5 -32t122.5 -101q26 72 100.5 106t152.5 34q151 0 241 -83t90 -223q-1 -81 -9 -107q-18 -56 -85 -93
q81 -34 91 -119q3 -26 3 -55q0 -93 -41 -160zM1046 -2q-51 -47 -51 -123.5t27 -112.5q48 -62 102 -62t91.5 49t37.5 104q0 112 -63 154q24 -30 24 -72t-26.5 -73.5t-65.5 -31.5q-38 0 -64.5 32t-26.5 70t17 66h-2zM383 240q4 21 4 50t-19 70.5t-57 41.5q-56 0 -72 -86
q-4 -22 -4 -51t19 -70t57 -41q56 0 72 86z" />
    <glyph glyph-name="ngk1" horiz-adv-x="1293" 
d="M459 840q81 85 217 85q222 1 288 -221q20 -66 28 -141h33q121 0 193 -86t72 -208t-68 -210t-187 -88h-17v179h17q77 0 77 117q0 83 -44 115q-16 12 -43 12h-29q-15 -293 -168 -382q-60 -35 -161.5 -35t-157.5 54q-71 -60 -149 -60q-138 0 -218.5 87t-80.5 209
q0 124 77 205q-73 75 -73 181t68 180.5t163 74.5t163 -68zM813 563q-11 130 -71 167q-26 16 -66 16q-72 0 -108 -58q-24 -40 -34 -125h279zM394 733q-26 23 -63 23t-70.5 -28.5t-33.5 -69.5q0 -42 27.5 -67.5t61.5 -29.5q9 2 18 2h18l4 1q11 100 38 169zM818 394h-289
q6 -106 24 -149q38 -90 123 -90q121 0 136 161q4 42 6 78zM239 280q-1 -90 61 -120q20 -10 35 -10t35 4t28 4q-40 95 -47 236h-6q-48 0 -77 -39t-29 -75z" />
    <glyph glyph-name="ngk1u1" horiz-adv-x="1280" 
d="M459 840q60 85 217 85q149 0 224 -101t88 -258h65q166 0 203 -70t37 -138t-58 -110q48 -34 48 -123q0 -78 -59.5 -114.5t-140.5 -36.5q-28 0 -56 10v151q15 -12 32 -12t33 9.5t16 29.5q0 35 -51 29v136h22q29 1 29 33t-40 32h-76q-8 -272 -108.5 -344t-183.5 -72
q-135 0 -191 53q-66 -57 -139 -57q-74 0 -129.5 21.5t-119 82.5t-63.5 188q0 126 78 210q-71 75 -71 182q0 101 67 176.5t173 75.5q105 0 154 -68zM804 566q-8 118 -52 146q-44 29 -82 29t-63.5 -15.5t-48 -50t-27.5 -109.5h273zM308 563l45 3q12 103 39 169q-27 21 -53 21
t-45 -7.5t-43 -29t-24 -49.5t6.5 -44.5t24.5 -39.5t50 -23zM716.5 160q91.5 0 91.5 227v5h-282q0 -151 49.5 -191.5t141 -40.5zM387 163q-38 89 -45 229h-3q-45 0 -74 -39t-29 -72.5t7.5 -54t30 -46.5t65.5 -26q23 0 48 9z" />
    <glyph glyph-name="ngk1u2" horiz-adv-x="1199" 
d="M946 22q88 0 88 87q0 47 -44 47h-30v163h6q68 -5 68 51q0 64 -76 71q-20 2 -39 2h-13q-16 -371 -292 -371q-99 0 -150 46q-63 -51 -132 -51q-123 0 -198.5 78.5t-75.5 188.5t66 184q-60 66 -60 160q0 96 63 163t147 67t146 -56q72 74 194 74q254 0 288 -321h72
q95 0 162 -65t67 -153.5t-53 -147.5q52 -65 52 -153t-60 -153.5t-152 -65.5l-710 2q-17 0 -28.5 -14t-11.5 -30.5t11.5 -29t28.5 -12.5h858v-163h-888q-80 0 -136.5 60.5t-56.5 143.5q0 81 55 139.5t138 58.5h696zM730 605q-12 107 -62 137q-22 13 -54 13q-88 0 -110 -95
q-6 -27 -10 -55h236zM322 605q11 92 35 150q-20 14 -50 14t-62 -25t-32 -60q0 -61 53 -85q27 6 56 6zM734 443h-245q4 -135 60 -181q25 -20 65 -19q72 0 99 70q18 45 21 130zM356 245q-34 85 -38 198q-40 0 -64.5 -33t-24.5 -73t23.5 -69.5t65.5 -29.5q10 0 19.5 2.5
t18.5 4.5z" />
    <glyph glyph-name="ngk1r1" horiz-adv-x="1303" 
d="M239 280q-1 -90 61 -120q20 -10 35 -10t35 4t28 4q-40 95 -47 236h-6q-48 0 -77 -39t-29 -75zM818 394h-289q6 -106 24 -149q38 -90 123 -90q121 0 136 161q4 42 6 78zM394 733q-26 23 -63 23t-70.5 -28.5t-33.5 -69.5q0 -42 27.5 -67.5t61.5 -29.5q9 2 18 2h18l4 1
q11 100 38 169zM813 563q-11 130 -71 167q-26 16 -66 16q-72 0 -108 -58q-24 -40 -34 -125h279zM459 840q81 85 217 85q222 1 288 -221q20 -66 28 -141q8 -2 13.5 -2t9.5 -1q141 -25 214.5 -134.5t73.5 -262.5q0 -233 -153.5 -428t-403.5 -195q-214 0 -300 114
q-30 40 -30 97q0 104 93.5 156.5t215.5 52.5q183 0 258 -86l-79 -109q-57 53 -171 53t-114 -67q0 -60 131 -60q170 0 273 154.5t103 324.5q0 79 -27.5 136.5t-83.5 70.5q-3 1 -8 1t-11 2q-9 -186 -72 -282q-79 -122 -248 -121q-111 0 -167 54q-71 -60 -149 -60
q-138 0 -218.5 87t-80.5 209q0 124 77 205q-73 75 -73 181t68 180.5t163 74.5t163 -68z" />
    <glyph glyph-name="ngng" horiz-adv-x="1803" 
d="M1707 426q81 -34 91 -119q3 -26 3 -67q0 -98 -56 -170t-164 -72h-88v183q89 -1 113 31q12 14 11 40q0 62 -77 68q-22 2 -45 2v183h21q48 0 74.5 39.5t26.5 87.5t-31 71.5t-79 23.5t-92.5 -41t-44.5 -117v-569h-184v621q0 81 -66 119q-30 16 -81 16h-3q91 -61 91 -162
q0 -133 -84 -179q85 -39 85 -155.5t-63 -196.5t-173 -80t-191 110.5t-81 338.5q0 164 48 272q16 34 36 55q-38 2 -88 2q-284 0 -327 -221q40 38 91 38q98 0 155.5 -87t57.5 -206.5t-63.5 -210.5t-171.5 -91q-193 1 -249 241q-19 82 -19 203q0 245 138.5 378.5t364.5 133.5
q144 0 281 -51q98 49 190 49q139 0 241 -108q85 108 225 108q141 1 217 -109q60 -86 60 -216t-100 -186zM922 490q37 0 37 65q0 124 -61 143q-76 -44 -98 -207q-6 -47 -6 -122t27 -148.5t74 -73.5h2q37 0 56 75q5 20 5 44q0 63 -44 64l-43 1l5 160q20 -1 32 -1h14zM433 240
q4 21 4 50t-19 70.5t-57 41.5q-56 0 -72 -86q-4 -22 -4 -51t19 -70t57 -41q56 0 72 86z" />
    <glyph glyph-name="ngngu1" horiz-adv-x="1855" 
d="M1305 829q85 108 265 108q54 0 112 -31q58 -30 94 -78q70 -92 70.5 -219t-99.5 -183q81 -34 91 -119q3 -26 3 -55q0 -94 -39 -158q115 -70 115 -216q0 -115 -77.5 -200t-191.5 -85t-191.5 85t-77.5 200q0 170 154 235v68q89 -1 113 31q12 14 11 40q0 62 -77 68
q-22 2 -45 2v183h21q48 0 74.5 39.5t26.5 86.5q0 48 -39.5 72t-90.5 24q-52 0 -104.5 -41.5t-52.5 -116.5v-569h-184v621q0 81 -66 119q-30 16 -81 16h-3q91 -61 91 -162q0 -133 -84 -179q85 -39 85 -155.5t-63 -196.5t-173 -80t-191 110.5t-81 338.5q0 164 48 272
q16 34 36 55q-38 2 -88 2q-284 0 -327 -221q40 38 91 38q98 0 155.5 -87t57.5 -206.5t-63.5 -210.5t-171.5 -91q-193 1 -249 241q-19 82 -19 203q0 245 138.5 378.5t364.5 133.5q144 0 281 -51q98 49 190 49q139 0 241 -108zM1660 -2h-36q-36 -9 -59.5 -40t-23.5 -73
t30.5 -75.5t76.5 -33.5q45 0 76 33t31 77t-28.5 78t-66.5 34zM922 490q37 0 37 65q0 124 -61 143q-76 -44 -98 -207q-6 -47 -6 -122t27 -148.5t74 -73.5h2q41 0 57 75q4 20 4 44q0 63 -44 64l-43 1l5 160q20 -1 32 -1h14zM433 240q4 21 4 50t-19 70.5t-57 41.5
q-56 0 -72 -86q-4 -22 -4 -51t19 -70t57 -41q56 0 72 86z" />
    <glyph glyph-name="ngngu2" horiz-adv-x="1848" 
d="M1305 829q85 108 265 108q54 0 112 -31q58 -30 94 -78q70 -92 70.5 -219t-99.5 -183q81 -34 91 -119q3 -26 3 -55q0 -88 -36 -152q149 -79 149 -267q0 -134 -85.5 -223.5t-214.5 -89.5t-214 89t-85 224q0 200 178 275v73q89 -1 113 31q12 14 11 40q0 62 -77 68
q-22 2 -45 2v183h21q48 0 74.5 39.5t26.5 86.5q0 48 -39.5 72t-90.5 24q-52 0 -104.5 -41.5t-52.5 -116.5v-569h-184v621q0 81 -66 119q-30 16 -81 16h-3q91 -61 91 -162q0 -133 -84 -179q85 -39 85 -155.5t-63 -196.5t-173 -80t-191 110.5t-81 338.5q0 164 48 272
q16 34 36 55q-38 2 -88 2q-284 0 -327 -221q40 38 91 38q98 0 155.5 -87t57.5 -206.5t-63.5 -210.5t-171.5 -91q-193 1 -249 241q-19 82 -19 203q0 245 138.5 378.5t364.5 133.5q144 0 281 -51q98 49 190 49q139 0 241 -108zM1576 -2q-51 -47 -51 -123.5t27 -112.5
q48 -62 102 -62t91.5 49t37.5 104q0 112 -63 154q24 -30 24 -72t-26.5 -73.5t-65.5 -31.5q-38 0 -64.5 32t-26.5 70t17 66h-2zM922 490q37 0 37 65q0 124 -61 143q-76 -44 -98 -207q-6 -47 -6 -122t27 -148.5t74 -73.5h2q37 0 56 75q5 20 5 44q0 63 -44 64l-43 1l5 160
q20 -1 32 -1h14zM433 240q4 21 4 50t-19 70.5t-57 41.5q-56 0 -72 -86q-4 -22 -4 -51t19 -70t57 -41q56 0 72 86z" />
    <glyph glyph-name="ch1u1" horiz-adv-x="1174" 
d="M756 159h234l-10 750h184l10 -909h-29q32 -53 32 -116q0 -121 -77.5 -206t-191.5 -85t-191.5 85t-77.5 200q0 68 33 122h-622l10 149l434 10q63 2 106 67t43 131q0 169 -133.5 169t-133.5 -177q0 -74 36 -123h-184q-33 66 -33 143q0 157 80 247.5t230 90.5t238 -86.5
t88 -226t-75 -235.5zM1015 -112q-1 73 -65 103q-20 9 -42 9q-70 0 -98 -70q-8 -20 -9 -53q0 -33 30.5 -67t76.5 -34q45 0 76 33t31 79z" />
    <glyph glyph-name="ch1u2" horiz-adv-x="1187" 
d="M1157 0q37 -72 37 -153q0 -148 -85.5 -237.5t-214.5 -89.5t-214 89t-85 224q0 91 39 167h-584l10 149l434 10q63 2 106 67t43 131q0 169 -133.5 169t-133.5 -177q0 -74 36 -123h-184q-33 66 -33 143q0 157 80 247.5t230 90.5t238 -86.5t88 -226t-75 -235.5h244l-10 750
h184l10 -909h-27zM819 0q-54 -44 -54 -123t27 -115q48 -62 102 -62t91.5 49t37.5 127t-54 124h-4q19 -29 19 -68t-26.5 -70.5t-65.5 -31.5q-38 0 -64.5 32t-26.5 71.5t18 66.5h1h-1zM820 0h-1h1z" />
    <glyph glyph-name="ch1ch1" horiz-adv-x="1152" 
d="M756 159h214l-10 750h184l10 -1208h-689v138h39q125 0 159 109q9 27 5 52h-618l10 149l434 10q63 2 106 67t43 131q0 169 -133.5 169t-133.5 -177q0 -74 36 -123h-184q-33 66 -33 143q0 157 80 247.5t230 90.5t238 -86.5t88 -226t-75 -235.5zM830 0q14 -98 -64 -160h204
l-3 160h-137z" />
    <glyph glyph-name="ch1ch1u1" horiz-adv-x="1152" 
d="M1134 -279q33 -54 33 -122q0 -126 -77.5 -211t-191.5 -85t-191.5 85t-77.5 200q0 78 34 133h-198v138h39q57 0 99.5 17.5t59.5 71.5q9 27 5 52h-618l10 149l434 10q63 2 106 67t43 131q0 169 -133.5 169t-133.5 -177q0 -74 36 -123h-184q-33 66 -33 143q0 157 80 247.5
t230 90.5t238 -86.5t88 -226t-75 -235.5h214l-10 750h184l10 -1188h-20zM970 -140l-3 140h-137q12 -81 -26 -122l-18 -18h184zM1005 -402q0 47 -31 80t-76 33q-70 1 -98 -69q-8 -20 -9 -44q0 -44 30.5 -78t76.5 -34q45 0 76 33t31 79z" />
    <glyph glyph-name="ch1ch1u2" horiz-adv-x="1152" 
d="M756 159h214l-10 750h184l10 -1188h-26q26 -56 26 -126q0 -136 -85.5 -225.5t-214.5 -89.5t-214 89t-85 224q0 74 28 128h-118v138h39q57 0 99.5 17.5t59.5 71.5q9 27 5 52h-618l10 149l434 10q63 2 106 67t43 131q0 169 -133.5 169t-133.5 -177q0 -74 36 -123h-184
q-33 66 -33 143q0 157 80 247.5t230 90.5t238 -86.5t88 -226t-75 -235.5zM970 -140l-3 140h-137q12 -81 -26 -122l-18 -18h184zM770 -279q-44 -44 -44 -112t26 -97q46 -52 102 -52q55 0 91.5 40.5t36.5 107.5t-44 113h-8q12 -24 12 -58t-26 -63q-26 -30 -64 -30
q-37 0 -63.5 29.5t-26.5 64t13 57.5h-5z" />
    <glyph glyph-name="ch1ch2" horiz-adv-x="1211" 
d="M756 184h264l-10 728h184l10 -882h-1154l10 144l434 10q63 2 106 65t43 112q0 90 -32 135t-103 45q-132 0 -132 -172q0 -73 36 -120h-184q-33 65 -33 139q0 150 80.5 239t230.5 89t237.5 -84t87.5 -220t-75 -228zM752 -340q-24 70 -24 119q0 99 71 163.5t180 64.5
t172.5 -65.5t63.5 -165.5q-1 -99 -21 -142q-41 -88 -148 -88t-138 108q-9 31 -9 81t31.5 99t100.5 53q-21 8 -57 8t-73 -35.5t-37 -95.5t66 -208h-692l9 90l237 5q40 0 60 56q5 14 5 26q0 60 -57 60q-33 0 -43.5 -18t-10.5 -48t29 -61h-149q-15 33 -15 73q0 80 51 123.5
t138 43.5q132 0 180 -91q16 -30 16 -73.5t-25 -81.5h89zM1051 -217q-44 0 -44 -67q0 -40 15.5 -53.5t28.5 -13.5q37 -1 47 47q2 12 2 20q0 39 -18 53t-31 14z" />
    <glyph glyph-name="ch2u1" horiz-adv-x="1793" 
d="M844 222q-50 174 -50 280q0 203 111 315t263 112q182 0 290 -141q36 -47 54 -111q140 -34 208 -146t68 -265.5t-87.5 -275.5t-229.5 -122h-1221q-17 0 -27.5 -13t-10.5 -29t11 -28t27 -12h1520v-166h-1540q-83 0 -139 60t-56 141.5t55.5 142.5t139.5 61h1189
q81 0 130.5 81.5t49.5 161.5q0 146 -72 198q1 -4 1 -10v-11q0 -180 -75 -282.5t-173 -102.5t-169 90.5t-71 228.5t69 228t205 92q-58 72 -143 72t-146 -72.5t-61 -213t96 -411.5h-1000l9 139l373 9q56 2 96 60.5t40 120.5q0 155 -122 155t-122 -162q0 -65 34 -114h-172
q-31 65 -31 134q0 220 163 288q54 22 124 22q138 0 219 -79.5t81 -209t-67 -215.5h159zM1222 346q0 -108 58 -108q50 0 72 87q8 32 9 42v16q0 81 -30 119q-11 14 -28 16h-4q-47 0 -69 -104q-8 -38 -8 -68z" />
    <glyph glyph-name="ch2u2" horiz-adv-x="1776" 
d="M1710 234q45 -26 58.5 -64t13.5 -90q0 -94 -66 -149t-153 -55l-1323 -7q-17 0 -27.5 -13t-10.5 -28.5t11 -27.5t27 -12h1522v-167h-1541q-83 0 -139 60t-56 141q0 84 56 144t139 60l1269 1q75 0 104 46q10 16 10 40t-14 41.5t-37 17.5h-26v161h25q23 0 37.5 18.5
t14.5 48.5t-23 54.5t-41 24.5t-20 -1l-1 -32q0 -181 -75 -282.5t-173 -101.5t-169 90.5t-71 228.5t70 227.5t205 91.5q-31 73 -129.5 73t-160.5 -74t-62 -214t96 -411h-1000l9 139l373 9q56 2 96 60.5t40 120.5q0 155 -122 155t-122 -162q0 -65 34 -114h-172q-31 65 -31 134
q0 220 163 288q54 22 124 22q138 0 219.5 -80t81.5 -208.5t-68 -215.5h159q-50 174 -50 284q0 211 110 317t266 106q107 0 212 -71t120 -180q124 -17 207 -101t83 -193.5t-72 -149.5zM1212 355q0 -116 59 -116q33 0 56.5 45t23.5 88v18q0 74 -30 112q-11 14 -28 16h-4
q-47 0 -69 -104q-8 -38 -8 -59z" />
    <glyph glyph-name="ch2r1" horiz-adv-x="1914" 
d="M1446 321q0 91 -42 145q-16 20 -38 20q-39 0 -56 -56.5t-17 -108.5q0 -95 36 -145q15 -20 37 -20q40 0 60 57t20 108zM1251 744q-220 0 -220 -313q0 -146 104 -431h-1085l10 149l404 10q63 2 106 67t43 115q0 185 -133.5 185t-133.5 -177q0 -74 36 -123h-184
q-33 66 -33 143q0 156 80.5 247t230 91t237.5 -86.5t88 -225.5t-75 -236h177q-55 189 -55 294q0 215 102 343.5t317 128.5q277 0 345 -281q149 -49 223.5 -172t74.5 -266q0 -228 -124 -422q-95 -148 -262 -211q-86 -33 -170 -33q-160 0 -259 48q-119 58 -119 162t102 157
t227 53q180 0 255 -86l-79 -109q-57 53 -156 53q-136 0 -136 -67q0 -60 142.5 -60t229 80.5t123 190.5t36.5 197q0 182 -89 271q-1 -272 -85 -374q-62 -76 -178 -76t-184 106.5t-68 241.5t59.5 231t168.5 105q15 1 28 3t26 2.5t23 1.5q-47 73 -170 73z" />
    <glyph glyph-name="ch2r3" horiz-adv-x="2072" 
d="M1636 321q0 91 -42 145q-16 20 -38 20q-39 0 -56 -56.5t-17 -108.5q0 -95 36 -145q15 -20 37 -20q40 0 60 57t20 108zM1441 744q-220 0 -220 -313q0 -146 104 -431h-985l10 149l304 10q62 2 105.5 67t43.5 115q0 185 -133.5 185t-133.5 -177q0 -74 36 -123h-184
q-33 66 -33 143q0 156 80.5 247t230 91t237.5 -86.5t88 -225.5t-75 -236h177q-55 189 -55 294q0 215 102 343.5t317 128.5q277 0 345 -281q269 -69 269 -435q0 -226 -130.5 -397.5t-338.5 -171.5h-1031q-247 0 -387 222q-126 201 -127 500q0 235 75 432q24 63 55 115h210
q-117 -145 -155 -399q-12 -78 -11 -172q0 -230 87 -373q104 -170 317 -170h913q157 0 250 131.5t93 282.5t-70 221q-1 -272 -85 -374q-62 -76 -178 -76t-184 106.5t-68 241.5t59.5 231t168.5 105q15 1 28 3t26 2.5t23 1.5q-47 73 -170 73z" />
    <glyph glyph-name="ch2r3u1" horiz-adv-x="2072" 
d="M1441 744q-220 0 -220 -313q0 -146 104 -431h-985l10 149l304 10q62 2 105.5 67t43.5 115q0 185 -133.5 185t-133.5 -177q0 -74 36 -123h-184q-33 66 -33 143q0 156 80.5 247t230 91t237.5 -86.5t88 -225.5t-75 -236h177q-55 189 -55 294q0 215 102 343.5t317 128.5
q277 0 345 -281q269 -69 269 -435q0 -208 -160 -379q106 -72 106 -199.5t-77.5 -212.5t-191.5 -85t-191.5 85t-77.5 200q0 39 9 72h-927q-251 0 -377.5 188t-126.5 484q0 235 75 432q24 63 55 115h210q-117 -145 -155 -399q-12 -78 -11 -172q0 -226 77 -348
q92 -145 307 -145h923q161 0 257 110.5t96 257.5t-70 217q-1 -272 -85 -374q-62 -76 -178 -76t-184 106.5t-68 241.5t59.5 231t168.5 105q15 1 28 3t26 2.5t23 1.5q-47 73 -170 73zM1636 321q0 91 -42 145q-16 20 -38 20q-39 0 -56 -56.5t-17 -108.5q0 -95 36 -145
q15 -20 37 -20q40 0 60 57t20 108zM1847 -415q8 20 8 49.5t-19.5 58.5t-50.5 41q-57 -29 -123 -39q-21 -29 -21 -70t30.5 -75t76.5 -34q45 0 68 24.5t31 44.5z" />
    <glyph glyph-name="ch2r3u2" horiz-adv-x="2072" 
d="M1441 744q-220 0 -220 -313q0 -146 104 -431h-975l10 149l294 10q62 2 105.5 67t43.5 115q0 185 -133.5 185t-133.5 -177q0 -74 36 -123h-184q-33 66 -33 143q0 156 80.5 247t230 91t237.5 -86.5t88 -225.5t-75 -236h177q-55 189 -55 294q0 215 102 343.5t317 128.5
q277 0 345 -281q269 -69 269 -435q0 -230 -135 -367q118 -82 118 -249q0 -134 -85.5 -223.5t-214.5 -89.5t-214 89t-85 224q0 63 20 117h-904q-253 0 -383.5 179.5t-130.5 472.5q0 235 75 432q24 63 55 115h210q-117 -145 -155 -399q-12 -78 -11 -172q0 -221 82 -338
q95 -135 312 -135h933q55 0 194 39t139 317q0 139 -70 209q-1 -272 -85 -374q-62 -76 -178 -76t-184 106.5t-68 241.5t59.5 231t168.5 105q15 1 28 3t26 2.5t23 1.5q-47 73 -170 73zM1636 321q0 91 -42 145q-16 20 -38 20q-39 0 -56 -56.5t-17 -108.5q0 -95 36 -145
q15 -20 37 -20q40 0 60 57t20 108zM1826 -240q18 -32 18 -69t-26.5 -69t-65.5 -32q-38 0 -64.5 32t-26.5 58.5t1 31.5q-6 -1 -10 -1h-9q-18 -39 -18 -96t37.5 -106t91.5 -49t91.5 49t37.5 102q0 104 -54 150z" />
    <glyph glyph-name="ch3u1" horiz-adv-x="1331" 
d="M1074 379q123 -17 188 -88.5t65 -181t-90 -201.5t-253 -92h-745q-15 0 -23.5 -3.5t-8.5 -20.5q0 -26 48 -26h1053v-154h-1083q-121 0 -157 106q-11 32 -11 71q0 79 42.5 122.5t125.5 43.5h727q89 0 150 48t61 117q0 42 -25 83q0 -96 -64 -154.5t-163 -58.5
q-137 0 -195 93q-20 31 -24 72q-35 -87 -131 -134q-131 -64 -295 -28q-120 27 -177 107q-30 42 -30 92q0 87 52.5 132t131.5 45h553q83 0 128 68t45 159q0 174 -128 174q-48 0 -79 -23.5t-31 -73.5v-267h-189q0 4 4 132l1 30q-1 90 -19 126q-45 86 -153 86t-149 -60
q36 24 74 24q75 0 118.5 -47t43.5 -106q0 -104 -55 -151.5t-127 -47.5q-120 0 -171.5 73.5t-51.5 162.5q0 158 90.5 233.5t240.5 75.5t241 -93q74 93 214.5 93t224 -93t83.5 -238.5t-77 -226.5zM945 144.5q22 21.5 22 51.5t-20 54t-50 24q-45 0 -65 -49q-6 -14 -6 -36
t18 -44t48.5 -22t52.5 21.5zM335 574q0 23 -17 42.5t-47 19.5t-47 -19.5t-17 -42.5t17 -44t47 -21t47 21t17 44zM246 200q0 -69 156 -69t188 109h-302q-17 0 -29.5 -12t-12.5 -28z" />
    <glyph glyph-name="ch3u2" horiz-adv-x="1344" 
d="M1074 379h68q69 0 127 -51t58 -118.5t-58 -114.5q57 -41 57 -112q0 -72 -54 -119.5t-126 -47.5l-901 1q-38 1 -38 -21t11.5 -25.5t26.5 -3.5h1063v-154h-1083q-82 0 -125 48.5t-43 128.5t43.5 123t124.5 43l915 1q18 0 28 13.5t10 29.5q0 43 -36 40.5t-48 -2.5l-1 60
q-44 -107 -182 -107q-135 0 -175 60.5t-44 103.5q-50 -129 -158 -151.5t-154 -22.5t-102.5 11t-137.5 53t-81 137t50 141t134 46h553q85 0 129 68.5t44 158.5q0 174 -128 174q-47 0 -78.5 -23.5t-31.5 -73.5v-267h-189l5 179q0 136 -58 165q-59 30 -91 30t-55 -2t-58 -12.5
t-59 -45.5q38 24 74 24t65 -12t63 -44.5t34 -85.5q0 -54 -11.5 -90.5t-47.5 -78t-107 -41.5t-114.5 15.5t-72.5 56.5q-52 74 -52 158t23.5 142.5t88 115.5t216.5 57t244 -93q72 93 208 93q145 0 229.5 -92t84.5 -239q0 -146 -77 -227zM1178 202q0 42 -38 42q-8 0 -15.5 -0.5
t-15.5 -0.5q3 -17 3 -39t-3 -47l12 -1q25 0 41 8.5t16 37.5zM940.5 146.5q16.5 23.5 16.5 51.5t-15 52t-39 24t-37 -7.5t-26.5 -25.5t-13.5 -48t20 -50t49 -20t45.5 23.5zM335 574q0 26 -19 44t-45 18t-45 -18t-19 -44t19 -45.5t45 -19.5t45 19.5t19 45.5zM246 200
q0 -69 154 -69q160 0 190 109h-302q-16 0 -29 -11.5t-13 -28.5z" />
    <glyph glyph-name="ch3r1" horiz-adv-x="1357" 
d="M788 -220q0 -56 127 -57q55 0 111 24q160 69 160 268q0 85 -42 145q-12 18 -26 27v-14q0 -96 -58 -145.5t-140 -49.5q-136 0 -202 101q-22 33 -26 76q-56 -141 -224 -181q-49 -12 -103 -11q-120 0 -213 65t-93 176q0 77 53.5 125t130.5 48h553q84 0 128.5 64.5
t44.5 154.5q0 174 -128 174q-48 0 -79 -23.5t-31 -73.5v-267h-189q0 4 4 132l1 30q-1 90 -19 126q-45 86 -153 86t-149 -60q36 24 74 24q75 0 118.5 -47t43.5 -106q0 -104 -55 -151.5t-127 -47.5q-120 0 -171.5 73.5t-51.5 162.5q0 158 90.5 233.5t240.5 75.5t241 -93
q74 93 214.5 93t224 -93t83.5 -238.5t-75 -224.5q144 -15 211.5 -117t67.5 -264t-122.5 -288.5t-342.5 -126.5q-104 0 -163.5 34t-86.5 71q-26 36 -26 88q0 93 79.5 138t179.5 45q147 0 201 -70l-62 -100q-43 49 -114.5 49t-99.5 -31q-10 -11 -10 -29zM945 144.5
q22 21.5 22 51.5t-20 54t-50 24q-45 0 -65 -49q-6 -14 -6 -36t18 -44t48.5 -22t52.5 21.5zM335 574q0 23 -17 42.5t-47 19.5t-47 -19.5t-17 -42.5t17 -44t47 -21t47 21t17 44zM246 200q0 -69 156 -69t188 109h-302q-17 0 -29.5 -12t-12.5 -28z" />
    <glyph glyph-name="ch3ch3" horiz-adv-x="2287" 
d="M2187 363q81 -46 81 -151t-64 -163.5t-163 -58.5q-137 0 -195 93q-20 31 -24 72q-35 -87 -131 -134q-131 -64 -293 -28q-116 27 -170 107q-28 42 -29 92q0 88 53 133.5t131 45.5h543q84 0 128.5 67.5t44.5 157.5q0 174 -128 174q-48 0 -79 -23.5t-31 -73.5v-267h-189
q0 35 4 119q8 169 -45.5 212t-113.5 43q-120 0 -161 -60q36 24 74 24q75 0 118.5 -47t43.5 -106q0 -104 -55 -151.5t-139.5 -47.5t-138.5 50q-83 -325 -353 -426q-94 -35 -210 -35h-393q-117 0 -179.5 62.5t-62.5 141t45.5 132.5t126.5 54h543q66 0 124.5 69.5t58.5 145.5
q0 184 -118 184q-48 0 -79 -23.5t-31 -73.5v-267h-189q0 4 4 132l1 30q-1 90 -19 126q-45 86 -153 86t-149 -60q36 24 74 24q75 0 118.5 -47t43.5 -106q0 -104 -55 -151.5t-127 -47.5q-120 0 -171.5 73.5t-51.5 162.5q0 158 90.5 233.5t240.5 75.5t241 -93q74 93 212.5 93
t219 -99.5t80.5 -231t-94 -249t-197 -117.5h-542q-32 0 -47 -18t-15 -41t16.5 -44.5t45.5 -21.5h353q225 0 374 151t149 361h3v17q0 143 90.5 218t240.5 75t241 -93q74 93 214.5 93t224 -93t83.5 -222q0 -183 -94 -259zM2075 144.5q22 21.5 22 51.5t-20 54t-50 24
q-45 0 -65 -49q-6 -14 -6 -36t18 -44t48.5 -22t52.5 21.5zM1386 200q0 -69 151 -69t183 109h-292q-17 0 -29.5 -12t-12.5 -28zM335 574q0 23 -17.5 42.5t-46.5 19.5t-46.5 -19.5t-17.5 -42.5t17 -44t47 -21t47 21t17 44zM1401 636q-30 0 -47 -19.5t-17 -42.5t17 -44t47 -21
t47 21t17 44t-17 42.5t-47 19.5z" />
    <glyph glyph-name="ch3ch3u1" horiz-adv-x="2448" 
d="M1812 155q-70 -174 -312 -174q-115 0 -203 54.5t-88 168.5q0 75 52.5 120t131.5 45h523q83 0 128 68t45 159q0 174 -128 174q-48 0 -79 -23.5t-31 -73.5v-267h-189q0 4 4 132l1 30q-1 90 -19 126q-45 86 -153 86t-149 -60q36 24 74 24q75 0 118.5 -47t43.5 -106
q0 -104 -55 -151.5t-136.5 -47.5t-133.5 43q-85 -322 -353 -420q-92 -34 -208 -34h-403q-117 0 -174.5 62t-57.5 141t45.5 133t126.5 54h543q66 0 124.5 69.5t58.5 145.5q0 184 -118 184q-48 0 -79 -23.5t-31 -73.5v-267h-189q0 4 4 132l1 30q-1 90 -19 126q-45 86 -153 86
t-149 -60q36 24 74 24q75 0 118.5 -47t43.5 -106q0 -104 -55 -151.5t-127 -47.5q-120 0 -171.5 73.5t-51.5 162.5q0 158 90.5 233.5t240.5 75.5t241 -93q74 93 212.5 93t219 -99.5t80.5 -231t-94 -249t-197 -117.5h-552q-32 0 -47 -18t-15 -41t16.5 -44.5t45.5 -21.5h363
q213 0 357.5 135.5t163.5 330.5q-5 25 -5 81t25 111q75 164 306 164q150 0 241 -93q74 93 214.5 93t224 -93t83.5 -238.5t-77 -226.5q123 -17 188 -88.5t65 -181t-90 -201.5t-253 -92h-745q-15 0 -23.5 -3.5t-8.5 -20.5q0 -26 48 -26h1053v-154h-1083q-121 0 -157 106
q-11 32 -11 71q0 79 42.5 122.5t125.5 43.5h727q89 0 150 48t61 117q0 42 -25 83q0 -96 -64 -154.5t-163 -58.5q-137 0 -195 93q-20 31 -24 72zM2065 144.5q22 21.5 22 51.5t-20 54t-50 24q-45 0 -65 -49q-6 -14 -6 -36t18 -44t48.5 -22t52.5 21.5zM1455 574q0 23 -17 42.5
t-47 19.5t-47 -19.5t-17 -42.5t17 -44t47 -21t47 21t17 44zM1386 200q0 -69 146 -69t178 109h-282q-17 0 -29.5 -12t-12.5 -28zM335 574q0 23 -17.5 42.5t-46.5 19.5t-46.5 -19.5t-17.5 -42.5t17 -44t47 -21t47 21t17 44z" />
    <glyph glyph-name="ch3ch3u2" horiz-adv-x="2467" 
d="M2224 379h58q71 0 128 -50.5t57 -119.5t-58 -114q57 -41 57 -112q0 -72 -54 -119.5t-126 -47.5l-861 1q-38 1 -38 -21t11.5 -25.5t26.5 -3.5h1013v-154h-1033q-76 0 -123.5 51t-47.5 125q0 116 67 141.5t104 25.5l875 1q18 0 28 13.5t10 29.5q0 40 -36 39t-48 -1l-1 40
q-46 -87 -172 -87q-135 0 -175 60.5t-44 103.5q-50 -129 -158 -151.5t-156 -22.5t-101 13t-123 57.5t-70 152.5q0 72 48 118.5t121 46.5h543q85 0 129 69t44 158q0 174 -128 174q-47 0 -78.5 -23.5t-31.5 -73.5v-267h-189l5 179q0 134 -58 164.5t-91 30.5t-56 -2
t-57.5 -12.5t-58.5 -45.5q38 24 74 24t65 -12t63 -45t34 -86t-11.5 -89.5t-47.5 -78t-122 -41.5t-134 35q-62 -194 -218.5 -319.5t-352.5 -125.5h-433q-160 0 -196 78q-36 80 -36 124t12 77t47.5 71.5t112.5 38.5h543q68 0 125 70q58 67 58 145q0 184 -118 184
q-47 0 -78.5 -23.5t-31.5 -73.5v-267h-189l5 179q0 136 -58 165q-59 30 -91 30t-55 -2t-58 -12.5t-59 -45.5q38 24 74 24t65 -12t63 -44.5t34 -85.5q0 -54 -11.5 -90.5t-47.5 -78t-107 -41.5t-114.5 15.5t-72.5 56.5q-52 74 -52 158t23.5 142.5t88 115.5t216.5 57t244 -93
q72 93 208 93q140 0 222 -98.5t82 -242.5q0 -122 -93 -238q-92 -118 -198 -118h-552q-22 0 -42 -14t-20 -40t16.5 -48.5t45.5 -22.5h413q206 0 340.5 144t155.5 353q1 5 0.5 8.5t-0.5 7.5q0 230 128 269.5t203 39.5q148 0 241 -93q74 93 208 93q145 0 229.5 -92t84.5 -239
q0 -146 -77 -227zM2265 156q53 0 53 44t-61 44q-2 0 -3 1t-1 -1h9v-1q0 -1 -1.5 -1t-1.5 1q3 -17 3 -38t-4 -49h7zM2090.5 146.5q16.5 23.5 16.5 44.5t-4 34.5t-16.5 31t-34.5 17.5t-35.5 -7.5t-27 -25.5t-13.5 -48t20 -50t49 -20t45.5 23.5zM1485 574q0 26 -19 44t-45 18
t-45 -18t-19 -44t19 -45.5t45 -19.5t45 19.5t19 45.5zM1426 200q0 -69 144 -69q139 0 170 109h-272q-16 0 -29 -11.5t-13 -28.5zM335 574q0 26 -19 44t-45 18t-45 -18t-19 -44t19 -45.5t45 -19.5t45 19.5t19 45.5z" />
    <glyph glyph-name="ch3ch3r1" horiz-adv-x="2485" 
d="M1918 -220q0 -56 127 -57q55 0 111 24q160 69 160 268q0 85 -42 145q-12 18 -26 27v-14q0 -96 -58 -145.5t-140 -49.5q-136 0 -202 101q-22 33 -26 76q-56 -141 -224 -181q-49 -12 -103 -11q-117 0 -196.5 64t-79.5 177q0 77 53.5 125t130.5 48h523q84 0 128.5 64.5
t44.5 154.5q0 174 -128 174q-48 0 -79 -23.5t-31 -73.5v-267h-189q0 4 4 132l1 30q-1 90 -19 126q-45 86 -153 86t-149 -60q36 24 74 24q75 0 118.5 -47t43.5 -106q0 -104 -55 -151.5t-139.5 -47.5t-136.5 48q-48 -207 -193.5 -333t-371.5 -126h-403q-117 0 -174.5 62
t-57.5 141t45.5 133t126.5 54h543q66 0 124.5 69.5t58.5 145.5q0 184 -118 184q-48 0 -79 -23.5t-31 -73.5v-267h-189q0 4 4 132l1 30q-1 90 -19 126q-45 86 -153 86t-149 -60q36 24 74 24q75 0 118.5 -47t43.5 -106q0 -104 -55 -151.5t-127 -47.5q-120 0 -171.5 73.5
t-51.5 162.5q0 158 90.5 233.5t240.5 75.5t241 -93q74 93 212.5 93t219 -99.5t80.5 -231t-94 -249t-197 -117.5h-552q-32 0 -47 -18t-15 -41t16.5 -44.5t45.5 -21.5h363q225 0 374 151t149 361h3v17q0 143 90.5 218t240.5 75t241 -93q74 93 214.5 93t224 -93t83.5 -238.5
t-75 -224.5q144 -15 211.5 -117t67.5 -264t-122.5 -288.5t-342.5 -126.5q-104 0 -163.5 34t-86.5 71q-26 36 -26 88q0 93 79.5 138t179.5 45q147 0 201 -70l-62 -100q-43 49 -114.5 49t-99.5 -31q-10 -11 -10 -29zM2075 144.5q22 21.5 22 51.5t-20 54t-50 24q-45 0 -65 -49
q-6 -14 -6 -36t18 -44t48.5 -22t52.5 21.5zM1465 574q0 23 -17 42.5t-47 19.5t-47 -19.5t-17 -42.5t17 -44t47 -21t47 21t17 44zM1406 200q0 -69 124 -69q158 0 190 109h-272q-17 0 -29.5 -12t-12.5 -28zM335 574q0 23 -17.5 42.5t-46.5 19.5t-46.5 -19.5t-17.5 -42.5
t17 -44t47 -21t47 21t17 44z" />
    <glyph glyph-name="ch3nj" horiz-adv-x="2936" 
d="M2331 874q91 55 205 55q210 0 306.5 -127t96.5 -334.5t-100 -467.5h-207q123 246 123 456q1 210 -113 266q-44 22 -111 21h-26q70 -64 104 -154t34 -173q0 -186 -61 -298q-78 -142 -237 -142q-159 -2 -237 146q-62 117 -63 276q0 224 123 344q-26 2 -60 2
q-76 0 -121.5 -54.5t-45.5 -144.5v-545h-184v553q0 103 -52.5 147t-153.5 44q-132 0 -181 -124q-15 -38 -21 -80q40 38 95 38q106 0 166.5 -92.5t60.5 -207.5t-70.5 -207.5t-182.5 -92.5q-168 0 -225 182q-122 -179 -427 -179h-473q-116 0 -174 61t-58 141t45.5 134
t126.5 54h543q66 0 124.5 69.5t58.5 145.5q0 184 -118 184q-48 0 -79 -23.5t-31 -73.5v-267h-189q0 4 4 132l1 30q-1 90 -19 126q-45 86 -153 86t-149 -60q36 24 74 24q75 0 118.5 -47t43.5 -106q0 -104 -55 -151.5t-127 -47.5q-120 0 -171.5 73.5t-51.5 162.5
q0 158 90.5 233.5t240.5 75.5t241 -93q74 93 212.5 93t219 -99.5t80.5 -231t-94 -249t-197 -117.5h-552q-32 0 -47 -18t-15 -41t16.5 -44.5t45.5 -21.5h433q350 0 430 255q-1 11 -1 21v21q0 352 212 470q78 43 207 43t219 -73q28 -23 44 -53q91 130 281 130q119 0 208 -55z
M2342 678q-54 -30 -83.5 -110.5t-29.5 -159.5q-1 -79 21 -149q31 -101 95 -101q73 0 99 96q15 55 15 122q0 242 -117 302zM1493 240q4 21 4 50t-19 70.5t-57 41.5q-56 0 -72 -86q-4 -22 -4 -51t19 -70t57 -41q56 0 72 86zM335 574q0 23 -17.5 42.5t-46.5 19.5t-46.5 -19.5
t-17.5 -42.5t17 -44t47 -21t47 21t17 44z" />
    <glyph glyph-name="ch3nju1" horiz-adv-x="2998" 
d="M2927.5 647q21.5 -85 21.5 -210t-59 -318q116 -40 154 -154q13 -39 13 -91q0 -111 -77.5 -196t-191.5 -85t-191.5 85t-77.5 212.5t108 198.5q32 21 69 33q69 183 69 342q1 202 -113 258q-44 22 -111 21h-26q70 -64 104 -154t34 -173q0 -186 -61 -298q-78 -142 -237 -142
q-159 -2 -237 146q-62 117 -63 276q0 224 123 344q-26 2 -60 2q-76 0 -121.5 -54.5t-45.5 -144.5v-545h-184v553q0 103 -52.5 147t-153.5 44q-132 0 -181 -124q-15 -38 -21 -80q40 38 95 38q106 0 166.5 -92.5t60.5 -207.5t-70.5 -207.5t-182.5 -92.5q-171 0 -229 193
q-117 -190 -433 -190h-473q-116 0 -174 61t-58 141t45.5 134t126.5 54h543q66 0 124.5 69.5t58.5 145.5q0 184 -118 184q-48 0 -79 -23.5t-31 -73.5v-267h-189q0 4 4 132l1 30q-1 90 -19 126q-45 86 -153 86t-149 -60q36 24 74 24q75 0 118.5 -47t43.5 -106
q0 -104 -55 -151.5t-127 -47.5q-120 0 -171.5 73.5t-51.5 162.5q0 158 90.5 233.5t240.5 75.5t241 -93q74 93 212.5 93t219 -99.5t80.5 -231t-94 -249t-197 -117.5h-552q-32 0 -47 -18t-15 -41t16.5 -44.5t45.5 -21.5h433q374 0 439 290v7q0 350 212 470q78 44 207 43.5
t219 -73.5q28 -23 44 -53q91 130 281 130q119 0 208 -55q91 55 205 55t189.5 -36t123 -98.5t69 -147.5zM2352 678q-54 -30 -83.5 -110.5t-29.5 -159.5q-1 -79 21 -149q31 -101 95 -101q73 0 99 96q15 55 15 122q0 242 -117 302zM2895 -112q-1 73 -65 103q-20 9 -42 9
q-70 0 -98 -70q-8 -20 -9 -53q0 -33 30.5 -67t76.5 -34q45 0 76 33t31 79zM1503 240q4 21 4 50t-19 70.5t-57 41.5q-56 0 -72 -86q-4 -22 -4 -51t19 -70t57 -41q56 0 72 86zM335 574q0 23 -17.5 42.5t-46.5 19.5t-46.5 -19.5t-17.5 -42.5t17 -44t47 -21t47 21t17 44z" />
    <glyph glyph-name="ch3nju2" horiz-adv-x="3018" 
d="M2908 113q176 -71 176 -285q0 -128 -85.5 -218t-214.5 -90t-214 89t-85 215t66 202.5t166 99.5q68 178 68 338q0 196 -139 258q-48 22 -115 21h-26q70 -64 104 -154t34 -173q0 -186 -61 -298q-78 -142 -237 -142q-159 -2 -237 146q-62 117 -63 276q0 224 123 344
q-26 2 -60 2q-76 0 -121.5 -54.5t-45.5 -144.5v-545h-184v553q0 103 -52.5 147t-153.5 44q-132 0 -181 -124q-15 -38 -21 -80q40 38 95 38q106 0 166.5 -92.5t60.5 -207.5t-70.5 -207.5t-182.5 -92.5q-168 0 -225 182q-122 -179 -427 -179h-473q-116 0 -174 61t-58 141
t45.5 134t126.5 54h543q66 0 124.5 69.5t58.5 145.5q0 184 -118 184q-48 0 -79 -23.5t-31 -73.5v-267h-189q0 4 4 132l1 30q-1 90 -19 126q-45 86 -153 86t-149 -60q36 24 74 24q75 0 118.5 -47t43.5 -106q0 -104 -55 -151.5t-127 -47.5q-120 0 -171.5 73.5t-51.5 162.5
q0 158 90.5 233.5t240.5 75.5t241 -93q74 93 212.5 93t219 -99.5t80.5 -231t-94 -249t-197 -117.5h-552q-32 0 -47 -18t-15 -41t16.5 -44.5t45.5 -21.5h433q350 0 430 255q-1 11 -1 21v21q0 352 212 470q78 43 207 43t219 -73q28 -23 44 -53q91 130 281 130q119 0 208 -55
q91 55 205 55t194 -36t133 -98.5t79.5 -147.5t26.5 -212.5t-61 -321.5zM2342 678q-54 -30 -83.5 -110.5t-29.5 -159.5q-1 -79 21 -149q31 -101 95 -101q73 0 99 96q15 55 15 122q0 242 -117 302zM2709 0q-54 -44 -54 -123t27 -115q48 -62 102 -62t91.5 49t37.5 127t-54 124
h-4q19 -29 19 -68t-26.5 -70.5t-65.5 -31.5q-38 0 -64.5 32t-26.5 70.5t18 67.5zM1493 240q4 21 4 50t-19 70.5t-57 41.5q-56 0 -72 -86q-4 -22 -4 -51t19 -70t57 -41q56 0 72 86zM335 574q0 23 -17.5 42.5t-46.5 19.5t-46.5 -19.5t-17.5 -42.5t17 -44t47 -21t47 21t17 44z
" />
    <glyph glyph-name="ch3r3" horiz-adv-x="1633" 
d="M546 200q0 -69 156 -69t188 109h-302q-17 0 -29.5 -12t-12.5 -28zM610.5 539.5q14.5 20.5 14.5 44t-14.5 43t-39 19.5t-39.5 -19.5t-15 -43t15 -44t39.5 -20.5t39 20.5zM1245 144.5q22 21.5 22 51.5t-20 54t-50 24q-45 0 -65 -49q-6 -14 -6 -36t18 -44t48.5 -22
t52.5 21.5zM1376 381q255 -29 255 -315q0 -199 -175 -323.5t-541 -124.5t-599 170q-263 192 -263 567q0 295 154 554h210q-188 -235 -188 -534t217 -455q190 -136 515 -135q201 -1 352 93q67 42 105 94.5t38 94.5t-4 69.5t-34 50.5v-14q0 -96 -58.5 -150.5t-141 -54.5
t-149.5 52.5t-77 134.5q-38 -95 -132 -151q-143 -86 -305 -34q-117 36 -169 130q-26 46 -27 94q0 86 53.5 134.5t130.5 48.5h553q84 0 128.5 64.5t44.5 154.5q0 174 -128 174q-48 0 -79 -23.5t-31 -73.5v-267h-189q0 4 4 132l1 30q-1 90 -19 126q-45 86 -153 86t-149 -60
q36 24 74 24q75 0 118.5 -47t43.5 -106q0 -104 -55 -151.5t-127 -47.5q-120 0 -171.5 73.5t-51.5 162.5q0 158 90.5 233.5t240.5 75.5t241 -93q74 93 214.5 93t224 -93t83.5 -238.5t-75 -224.5z" />
    <glyph glyph-name="ch3r3u1" horiz-adv-x="1633" 
d="M1376 381q255 -29 255 -315q1 -120 -61 -198q-22 -28 -55 -57q82 -71 82 -189.5t-77.5 -203.5t-191.5 -85t-191.5 85t-77.5 200q0 18 2 34q-58 -4 -214.5 -4t-355.5 69t-318.5 227t-119.5 432t154 533h210q-188 -235 -188 -521q-1 -401 373 -523q153 -50 363 -50
t350.5 77.5t140.5 185.5q0 31 -4 58.5t-34 50.5v-14q0 -96 -58.5 -150.5t-141 -54.5t-149.5 52.5t-77 134.5q-38 -95 -132 -151q-143 -86 -305 -34q-117 36 -169 130q-26 46 -27 94q0 86 53.5 134.5t130.5 48.5h553q84 0 128.5 64.5t44.5 154.5q0 174 -128 174
q-48 0 -79 -23.5t-31 -73.5v-267h-189q0 4 4 132l1 30q-1 90 -19 126q-45 86 -153 86t-149 -60q36 24 74 24q75 0 118.5 -47t43.5 -106q0 -104 -55 -151.5t-127 -47.5q-120 0 -171.5 73.5t-51.5 162.5q0 158 90.5 233.5t240.5 75.5t241 -93q74 93 214.5 93t224 -93
t83.5 -238.5t-75 -224.5zM1245 144.5q22 21.5 22 51.5t-20 54t-50 24q-45 0 -65 -49q-6 -14 -6 -36t18 -44t48.5 -22t52.5 21.5zM610.5 539.5q14.5 20.5 14.5 44t-14.5 43t-39 19.5t-39.5 -19.5t-15 -43t15 -44t39.5 -20.5t39 20.5zM1382 -274q-70 -32 -150 -49
q-11 -24 -11 -59t30.5 -68.5t76.5 -33.5q45 0 76 33t31 88.5t-53 88.5zM546 200q0 -69 156 -69t188 109h-302q-17 0 -29.5 -12t-12.5 -28z" />
    <glyph glyph-name="ch3r3u2" horiz-adv-x="1633" 
d="M1376 381q255 -29 255 -315q0 -82 -35.5 -139.5t-100.5 -107.5q89 -82 89 -221t-85.5 -228.5t-214.5 -89.5t-214 89t-85 224q0 54 13 96q-16 -1 -32 -1h-34q-552 0 -756 259q-124 156 -123.5 429.5t154.5 532.5h210q-188 -235 -188 -532t217 -421q175 -100 515 -101
q214 0 354.5 59.5t140.5 163.5q0 31 -4 58.5t-34 50.5v-14q0 -96 -58.5 -150.5t-141 -54.5t-149.5 52.5t-77 134.5q-38 -95 -132 -151q-143 -86 -305 -34q-117 36 -169 130q-26 46 -27 94q0 86 53.5 134.5t130.5 48.5h553q84 0 128.5 64.5t44.5 154.5q0 174 -128 174
q-48 0 -79 -23.5t-31 -73.5v-267h-189q0 4 4 132l1 30q-1 90 -19 126q-45 86 -153 86t-149 -60q36 24 74 24q75 0 118.5 -47t43.5 -106q0 -104 -55 -151.5t-127 -47.5q-120 0 -171.5 73.5t-51.5 162.5q0 158 90.5 233.5t240.5 75.5t241 -93q74 93 214.5 93t224 -93
t83.5 -238.5t-75 -224.5zM1245 144.5q22 21.5 22 51.5t-20 54t-50 24q-45 0 -65 -49q-6 -14 -6 -36t18 -44t48.5 -22t52.5 21.5zM610.5 539.5q14.5 20.5 14.5 44t-14.5 43t-39 19.5t-39.5 -19.5t-15 -43t15 -44t39.5 -20.5t39 20.5zM546 200q0 -69 156 -69t188 109h-302
q-17 0 -29.5 -12t-12.5 -28zM1370 -250l-8 -2q12 -24 12 -59t-26.5 -67t-65.5 -32q-38 0 -64.5 32t-26.5 75v8q-5 -1 -10.5 -1.5t-11.5 -1.5q-14 -37 -14 -91t37.5 -102.5t91.5 -48.5t91.5 49t37.5 121.5t-43 119.5z" />
    <glyph glyph-name="ch4u1" horiz-adv-x="2079" 
d="M2007 910q65 -195 65 -427q0 -288 -119 -414q80 -73 80 -189.5t-77.5 -201.5t-191.5 -85t-191.5 85t-77.5 200q0 106 66 176q-15 15 -31 33q-84 -105 -219.5 -105t-212.5 80.5t-77 211.5q0 81 10.5 160t10.5 160t-37.5 122.5t-122.5 41.5q-36 0 -67 -15
q138 -128 138 -338q1 -280 -153 -384q-58 -39 -156 -39t-170 70q-119 115 -119 341t123 349l-50 2q-100 2 -150 -105q-38 -82 -38 -196q0 -266 119 -443h-204q-99 226 -99 433.5t88 340.5q102 155 289 155q119 0 208 -55q89 54 184 54q183 0 294.5 -83t111.5 -243
q0 -83 -10.5 -164t-10.5 -147q0 -128 102 -128q59 0 90 38t31 94v610h180v-610q-1 -87 65 -123q22 -12 64 -12t74 30q78 72 77.5 278t-74.5 442h188zM1708 -16q-51 -33 -51 -86.5t30.5 -87.5t76.5 -34q45 0 76 33t31 73q0 78 -61 108q-35 -8 -61.5 -8t-40.5 2zM768 336
q2 43 1 100q0 57 -26.5 132.5t-90.5 109.5q-85 -50 -107 -192q-6 -38 -6 -99q1 -61 21 -129q30 -100 95 -100q107 0 113 178z" />
    </font>
</defs>
</svg>
