<svg xmlns="http://www.w3.org/2000/svg" viewBox="0 0 576 512"><!--! Font Awesome Pro 7.0.0 by @fontawesome - https://fontawesome.com License - https://fontawesome.com/license (Commercial License) Copyright 2025 Fonticons, Inc. --><path fill="currentColor" d="M544 64l0 128-96 0 0-32 32 0 0-32-32 0 0-64 96 0zM416 128l-32 0 0 32 32 0 0 32-128 0 0-32 32 0 0-32-32 0 0-64 128 0 0 64zm-160 0l-32 0 0 32 32 0 0 32-96 0 0-32 32 0 0-32-32 0 0-64 96 0 0 64zm-128 0l-32 0 0 32 32 0 0 32-96 0 0-128 96 0 0 64zM32 448l0-224 96 0 0 64-32 0 0 32 32 0 0 32-32 0 0 32 32 0 0 64-96 0zm128-64l32 0 0-32-32 0 0-32 32 0 0-32-32 0 0-64 96 0 0 64-32 0 0 32 32 0 0 32-32 0 0 32 32 0 0 64-96 0 0-64zm128-64l32 0 0-32-32 0 0-64 128 0 0 128-32 0 0 32 32 0 0 64-128 0 0-64 32 0 0-32-32 0 0-32zm160 64l32 0 0-32-32 0 0-128 96 0 0 224-96 0 0-64zM32 32l-32 0 0 448 576 0 0-448-544 0z"/></svg>