<svg xmlns="http://www.w3.org/2000/svg" viewBox="0 0 512 512"><!--! Font Awesome Pro 7.0.0 by @fontawesome - https://fontawesome.com License - https://fontawesome.com/license (Commercial License) Copyright 2025 Fonticons, Inc. --><path fill="currentColor" d="M256 64c123.7 0 224 100.3 224 224 0 56.1-20.6 107.4-54.7 146.7l61.3 61.3-22.6 22.6-61.3-61.3C363.4 491.4 312.1 512 256 512s-107.4-20.6-146.7-54.7L48 518.6 25.4 496 86.7 434.7C52.6 395.4 32 344.1 32 288 32 164.3 132.3 64 256 64zm0 32a192 192 0 1 0 0 384 192 192 0 1 0 0-384zm96 208l-192 0 0-32 192 0 0 32zM100.2 .1c26 1.3 49.3 13.1 65.7 31.2-11.1 3.9-21.8 8.5-32.2 13.7-10.6-8.2-24-13-38.4-13-34.9 0-63.2 28.3-63.2 63.2 0 10.4 2.5 20.2 6.9 28.8-7 9.3-13.5 19-19.3 29.2-11.4-14.8-18.6-33.1-19.6-53.1L0 95.2C0 42.6 42.6 0 95.2 0l4.9 .1zM416.7 0C469.4 0 512 42.6 512 95.2l-.1 4.9c-1 19.9-8.2 38.2-19.6 53.1-5.8-10.1-12.2-19.9-19.3-29.2 4.4-8.6 6.9-18.4 6.9-28.8 0-34.9-28.3-63.2-63.3-63.2-14.4 0-27.8 4.8-38.4 13-10.4-5.2-21.1-9.8-32.2-13.7 16.4-18.1 39.6-29.9 65.7-31.2l4.9-.1z"/></svg>