<svg xmlns="http://www.w3.org/2000/svg" viewBox="0 0 448 512"><!--! Font Awesome Pro 7.0.0 by @fontawesome - https://fontawesome.com License - https://fontawesome.com/license (Commercial License) Copyright 2025 Fonticons, Inc. --><path fill="currentColor" d="M27.4 36.7L16.1 25.4-6.5 48 4.8 59.3 167.6 222.1 190.2 199.4 27.4 36.7zM393.5 448l-105.4 0 0 32 160 0 0-160-32 0 0 105.4-135.4-135.4-22.6 22.6 135.4 135.4zM304.1 32l-16 0 0 32 105.4 0-388.7 388.7-11.3 11.3 22.6 22.6 11.3-11.3 388.7-388.7 0 105.4 32 0 0-160-144 0z"/></svg>