<svg xmlns="http://www.w3.org/2000/svg" viewBox="0 0 448 512"><!--! Font Awesome Pro 7.0.0 by @fontawesome - https://fontawesome.com License - https://fontawesome.com/license (Commercial License) Copyright 2025 Fonticons, Inc. --><path fill="currentColor" d="M260.7 4.7l-80 80-11.3 11.3 11.3 11.3 80 80 11.3 11.3 22.6-22.6-11.3-11.3-52.7-52.7 185.4 0 0 112 32 0 0-144-217.4 0 52.7-52.7 11.3-11.3-22.6-22.6-11.3 11.3zm-73.4 272l-11.3-11.3-22.6 22.6 11.3 11.3 52.7 52.7-217.4 0 0 144 32 0 0-112 185.4 0c-42 42-63.4 63.4-64 64l22.6 22.6 11.3-11.3 80-80 11.3-11.3-11.3-11.3-80-80zM384 336a32 32 0 1 1 0 64 32 32 0 1 1 0-64zm0 96a64 64 0 1 0 0-128 64 64 0 1 0 0 128zM96 96a32 32 0 1 1 -64 0 32 32 0 1 1 64 0zM0 96A64 64 0 1 0 128 96 64 64 0 1 0 0 96z"/></svg>