<svg xmlns="http://www.w3.org/2000/svg" viewBox="0 0 512 512"><!--! Font Awesome Pro 7.0.0 by @fontawesome - https://fontawesome.com License - https://fontawesome.com/license (Commercial License) Copyright 2025 Fonticons, Inc. --><path fill="currentColor" d="M139.4 36.7l-11.3-11.3-123.3 123.3-11.3 11.3 22.6 22.6 96-96 0 393.4 32 0 0-393.4 96 96 22.6-22.6-123.3-123.3zm308.7 75.7c-.2 26.4-21.6 47.7-48 47.7-26.5 0-48-21.5-48-48s21.5-48 48-48 48 21.5 48 48l0 .3zm-37.8 79l-40.8 64.6 37.8 0 57.5-91.2c9.9-15.7 15.2-33.8 15.3-52.3l0-.5c0-44.2-35.8-80-80-80s-80 35.8-80 80 35.8 80 80 80c3.4 0 6.8-.2 10.2-.6zM328.1 288l0 32 56 0 0 128-56 0 0 32 144 0 0-32-56 0 0-160-88 0z"/></svg>