<svg xmlns="http://www.w3.org/2000/svg" viewBox="0 0 512 512"><!--! Font Awesome Pro 7.0.0 by @fontawesome - https://fontawesome.com License - https://fontawesome.com/license (Commercial License) Copyright 2025 Fonticons, Inc. --><path fill="currentColor" d="M486.6 96l-11.3 11.3-96 96-11.3 11.3-22.6-22.6 11.3-11.3 68.7-68.7-393.4 0 0 176-32 0 0-208 425.4 0-68.7-68.7-11.3-11.3 22.6-22.6 11.3 11.3 96 96 11.3 11.3zM25.4 416l11.3-11.3 96-96 11.3-11.3 22.6 22.6-11.3 11.3-68.7 68.7 393.4 0 0-176 32 0 0 208-425.4 0 68.7 68.7 11.3 11.3-22.6 22.6-11.3-11.3-96-96-11.3-11.3zM240 192l48 0 0 128-32 0 0-96-32 0 0-32 16 0z"/></svg>