<svg xmlns="http://www.w3.org/2000/svg" viewBox="0 0 640 512"><!--! Font Awesome Pro 7.0.0 by @fontawesome - https://fontawesome.com License - https://fontawesome.com/license (Commercial License) Copyright 2025 Fonticons, Inc. --><path fill="currentColor" d="M528 160L374.6 6.6 352-16c-2.4 2.4-42.9 42.9-121.4 121.4L208 128 276.7 196.7 20.7 452.7 9.4 464c1.4 1.4 21.2 21.2 59.3 59.3l11.3 11.3 11.3-11.3 256-256 36.7 36.7 0 112 32 0c123.7 0 224-100.3 224-224l0-32-112 0zM54.6 464L299.3 219.3 324.7 244.7 80 489.4 54.6 464zM608 192c0 106-86 192-192 192l0-93.3-9.4-9.4-153.4-153.4 98.7-98.7 153.4 153.4 9.4 9.4 93.3 0zM483.3 12.7L472 1.4 449.4 24c1.4 1.4 21.2 21.2 59.3 59.3L520 94.6 542.6 72c-1.4-1.4-21.2-21.2-59.3-59.3z"/></svg>