<svg xmlns="http://www.w3.org/2000/svg" viewBox="0 0 448 512"><!--! Font Awesome Pro 7.0.0 by @fontawesome - https://fontawesome.com License - https://fontawesome.com/license (Commercial License) Copyright 2025 Fonticons, Inc. --><path fill="currentColor" d="M57 96l334 0 12.6 50.3c8.2 33 12.4 66.9 12.4 100.9l0 17.7c0 34-4.2 67.9-12.4 100.9L391 416 57 416 44.4 365.7C36.2 332.7 32 298.9 32 264.8l0-17.7c0-34 4.2-67.9 12.4-100.9L57 96zM392.9 64l-337.9 0-10.7-32 359.2 0-10.7 32zM55.1 448l337.9 0 10.7 32-359.2 0 10.7-32zM0 0C6.1 18.3 15.2 45.7 27.4 82.3L13.4 138.5C4.5 174 0 210.5 0 247.2l0 17.7C0 301.5 4.5 338 13.4 373.5l14.1 56.2C15.2 466.3 6.1 493.7 0 512l448 0c-6.1-18.3-15.2-45.7-27.4-82.3l14.1-56.2c8.9-35.5 13.4-72 13.4-108.7l0-17.7c0-36.6-4.5-73.1-13.4-108.7L420.6 82.3C432.8 45.7 441.9 18.3 448 0L0 0zM96 160l0 32c0 65.3 48.9 119.1 112 127l0 49 32 0 0-49c63.1-7.9 112-61.7 112-127l0-32-39.3 0c-37.2 0-68.9 17.9-88.7 44.5-19.8-26.6-51.5-44.5-88.7-44.5L96 160zM240 286.7l0-46.2c11.7-27.9 39.1-48.4 72.7-48.4l7.3 0c0 47.6-34.6 87.1-80 94.7zm-32-46.2l0 46.2c-45.4-7.6-80-47.1-80-94.7l7.3 0c33.6 0 61 20.5 72.7 48.4z"/></svg>