<svg xmlns="http://www.w3.org/2000/svg" viewBox="0 0 640 512"><!--! Font Awesome Pro 7.0.0 by @fontawesome - https://fontawesome.com License - https://fontawesome.com/license (Commercial License) Copyright 2025 Fonticons, Inc. --><path fill="currentColor" d="M591.9 74.8c-29.4-44.1-89-56-133.1-26.6l-79.2 52.8c37.9 37.9 57.6 57.6 59.1 59.1L416 182.6c-.7-.7-21.9-21.9-63.6-63.6l-88 58.7c40.6 40.6 61.3 61.3 62.3 62.3L304 262.6c-.2-.2-22.4-22.4-66.8-66.8l-88 58.7 54.2 54.2 11.3 11.3-22.6 22.6-11.3-11.3-58.7-58.7-47.2 31.5c-44.1 29.4-56 89-26.6 133.1s89 56 133.1 26.6l384-256c44.1-29.4 56-89 26.6-133.1zM618.5 57c39.2 58.8 23.3 138.3-35.5 177.5l-384 256C140.2 529.7 60.7 513.8 21.5 455S-1.8 316.7 57 277.5l384-256C499.8-17.7 579.3-1.8 618.5 57z"/></svg>