<svg xmlns="http://www.w3.org/2000/svg" viewBox="0 0 512 512"><!--! Font Awesome Pro 7.0.0 by @fontawesome - https://fontawesome.com License - https://fontawesome.com/license (Commercial License) Copyright 2025 Fonticons, Inc. --><path fill="currentColor" d="M431 107L397.6 114.4 405 81 446.7 44 468 65.3 431 107zM448 0l-72 64-14.1 63.5-63 63c-25.2-20.8-56.6-34.4-90.9-37.7l0-24.8-32 0 0 24.8c-34.4 3.2-65.8 16.9-90.9 37.7l-17.5-17.5-22.6 22.6 17.5 17.5C41.6 238.2 28 269.6 24.8 304l-24.8 0 0 32 24.8 0c3.2 34.4 16.9 65.8 37.7 90.9-3.3 3.3-9.1 9.1-17.5 17.5l22.6 22.6c8.4-8.4 14.2-14.2 17.5-17.5 25.2 20.8 56.6 34.4 90.9 37.7l0 24.8 32 0 0-24.8c34.4-3.2 65.8-16.9 90.9-37.7 3.3 3.3 9.1 9.1 17.5 17.5l22.6-22.6c-8.4-8.4-14.2-14.2-17.5-17.5 20.8-25.2 34.4-56.6 37.7-90.9l24.8 0 0-32-24.8 0c-3.2-34.4-16.9-65.8-37.7-90.9l63-62.9 63.5-14.1 64-72-64-64zM192 184a136 136 0 1 1 0 272 136 136 0 1 1 0-272zM147.3 316.7L136 305.4 113.4 328c1.4 1.4 21.2 21.2 59.3 59.3L184 398.6 206.6 376c-1.4-1.4-21.2-21.2-59.3-59.3z"/></svg>