<svg xmlns="http://www.w3.org/2000/svg" viewBox="0 0 576 512"><!--! Font Awesome Pro 7.0.0 by @fontawesome - https://fontawesome.com License - https://fontawesome.com/license (Commercial License) Copyright 2025 Fonticons, Inc. --><path fill="currentColor" d="M96 32l-32 0 0 192-64 0 0 32 576 0 0-32-64 0 0-192-32 0 0 192-64 0 0-192-32 0 0 192-64 0 0-192-32 0 0 192-32 0 0-192-32 0 0 192-64 0 0-192-32 0 0 192-32 0 0-192zM64 480l32 0 0-176-32 0 0 176zm64 0l32 0 0-176-32 0 0 176zm96 0l32 0 0-176-32 0 0 176zm64 0l32 0 0-176-32 0 0 176zm96 0l32 0 0-176-32 0 0 176zm96 0l32 0 0-176-32 0 0 176z"/></svg>