<svg xmlns="http://www.w3.org/2000/svg" viewBox="0 0 512 512"><!--! Font Awesome Pro 7.0.0 by @fontawesome - https://fontawesome.com License - https://fontawesome.com/license (Commercial License) Copyright 2025 Fonticons, Inc. --><path fill="currentColor" d="M0 0l160 0 0 32-128 0 0 128-32 0 0-160zM128 128l0 256-32 0 0-256 32 0zm32 0l32 0 0 256-32 0 0-256zm224 0l32 0 0 256-32 0 0-256zm-128 0l0 256-32 0 0-256 32 0zm48 0l32 0 0 256-32 0 0-256zM496 0l16 0 0 160-32 0 0-128-128 0 0-32 144 0zM0 512l0-160 32 0 0 128 128 0 0 32-160 0zm496 0l-144 0 0-32 128 0 0-128 32 0 0 160-16 0z"/></svg>