<svg xmlns="http://www.w3.org/2000/svg" viewBox="0 0 512 512"><!--! Font Awesome Pro 7.0.0 by @fontawesome - https://fontawesome.com License - https://fontawesome.com/license (Commercial License) Copyright 2025 Fonticons, Inc. --><path fill="currentColor" d="M32 0l0 160 192 0 0-160 288 0 0 504-32 0 0-56.3-448 0 0 56.3-32 0 0-504 32 0zM224 415.7l0-159.7 256 0 0-64-448 0 0 223.7 192 0zM256 160l224 0 0-128-224 0 0 128zM480 288l-224 0 0 127.7 224 0 0-127.7zM128 352a32 32 0 1 0 0-64 32 32 0 1 0 0 64zm0-96a64 64 0 1 1 0 128 64 64 0 1 1 0-128zM160 64a32 32 0 1 0 -64 0 32 32 0 1 0 64 0zM64 64A64 64 0 1 1 192 64 64 64 0 1 1 64 64z"/></svg>