<svg xmlns="http://www.w3.org/2000/svg" viewBox="0 0 576 512"><!--! Font Awesome Pro 7.0.0 by @fontawesome - https://fontawesome.com License - https://fontawesome.com/license (Commercial License) Copyright 2025 Fonticons, Inc. --><path fill="currentColor" d="M448-32l16.9 0 4.7 7.5 35.3 56.5 71.1 0 0 32-88.9 0-4.7-7.5-29-46.4-54.9 116.8-4.3 9.2-27.6 0-4.6-8.2-35.4-63.8-70.6 0 0-32 89.4 0 4.6 8.2 29.2 52.5 54.4-115.5 4.3-9.2 10.2 0zM304 144l21.3 0 1.8 3.2 16 28.8-23 0 0 176 224 0 0-96c0-44.2-35.8-80-80-80l-44.5 0 15.1-32 29.4 0c61.9 0 112 50.1 112 112l0 224-32 0 0-96-512 0 0 96-32 0 0-448 32 0 0 320 256 0 0-208 16 0zm-96 80a48 48 0 1 0 -96 0 48 48 0 1 0 96 0zM80 224a80 80 0 1 1 160 0 80 80 0 1 1 -160 0z"/></svg>