<svg xmlns="http://www.w3.org/2000/svg" viewBox="0 0 576 512"><!--! Font Awesome Pro 7.0.0 by @fontawesome - https://fontawesome.com License - https://fontawesome.com/license (Commercial License) Copyright 2025 Fonticons, Inc. --><path fill="currentColor" d="M304 100.3l0 328 .6-.3C362.4 399 426.1 384 490.6 384l53.4 0 0-320-77.5 0c-40.3 0-80.4 6.9-118.4 20.5L304 100.3zm-32 328l0-328-44.1-15.8c-38-13.6-78-20.5-118.4-20.5l-77.5 0 0 320 53.3 0c64.6 0 128.3 15 186 43.9l.6 .3zM544 32l32 0 0 384-85.4 0c-59.6 0-118.4 13.9-171.7 40.5L288 472 257.1 456.5C203.8 429.9 145 416 85.3 416L0 416 0 32 109.5 32c44 0 87.7 7.6 129.2 22.4L288 72 337.4 54.4C378.8 39.6 422.5 32 466.5 32L544 32zM0 464l81.7 0c43 0 85.7 6.9 126.5 20.5l79.1 26.4 34-14.6C371 475 424.6 464 478.8 464l97.2 0 0 32-97.2 0c-49.8 0-99.2 10.1-145 29.8l-39.6 17-5.6 2.4-5.8-1.9-84.9-28.3C160.5 502.4 121.2 496 81.7 496L0 496 0 464z"/></svg>