<svg xmlns="http://www.w3.org/2000/svg" viewBox="0 0 448 512"><!--! Font Awesome Pro 7.0.0 by @fontawesome - https://fontawesome.com License - https://fontawesome.com/license (Commercial License) Copyright 2025 Fonticons, Inc. --><path fill="currentColor" d="M0 480l0-448 32 0 0 448-32 0zm136-8l0-48 48 0 0 48-48 0zm0-432l48 0 0 48-48 0 0-48zM264 472l0-48 48 0 0 48-48 0zm0-432l48 0 0 48-48 0 0-48zM392 472l0-48 48 0 0 48-48 0zm0-432l48 0 0 48-48 0 0-48zm0 304l0-48 48 0 0 48-48 0zm0-176l48 0 0 48-48 0 0-48z"/></svg>