<svg xmlns="http://www.w3.org/2000/svg" viewBox="0 0 512 512"><!--! Font Awesome Pro 7.0.0 by @fontawesome - https://fontawesome.com License - https://fontawesome.com/license (Commercial License) Copyright 2025 Fonticons, Inc. --><path fill="currentColor" d="M302.6 224l113.4 0 0 32-145.4 0 0 0-32 0 0 0-142.6 0 0-32 110.6 0c-62.9-62.9-97.1-97.1-102.6-102.6L126.6 98.8 250.8-25.4 273.4-48c1.3 1.3 44 44 128 128L424 102.6c-2.4 2.4-42.9 42.9-121.4 121.4zm-45.3 0L378.7 102.6 273.4-2.7 149.3 121.4 251.8 224 257.3 224zM480 160l-45.5 0c18.1-18.1 28.8-28.8 32-32l45.5 0 0 384-512 0 0-384 42.7 0 27.4 27.4 4.6 4.6-42.7 0 0 160 448 0 0-160zM32 352l0 128 448 0 0-128-448 0z"/></svg>