<svg xmlns="http://www.w3.org/2000/svg" viewBox="0 0 512 512"><!--! Font Awesome Pro 7.0.0 by @fontawesome - https://fontawesome.com License - https://fontawesome.com/license (Commercial License) Copyright 2025 Fonticons, Inc. --><path fill="currentColor" d="M256.5 530.4l-7.9-4.5-224-128-8.1-4.6 0-274.5 8.1-4.6 224-128 7.9-4.5 7.9 4.5 224 128 8.1 4.6 0 274.5-8.1 4.6-224 128-7.9 4.5zm208-155.7l0-219.2-192.1 109.7 0 219.2 192.1-109.7zm-96-201.1L448.3 128 256.5 18.4 176.7 64 368.5 173.6zM336.3 192L144.5 82.4 64.7 128 256.5 237.6 336.3 192zm-95.8 73.3l-192-109.7 0 219.2 192 109.7 0-219.2z"/></svg>