<svg xmlns="http://www.w3.org/2000/svg" viewBox="0 0 512 512"><!--! Font Awesome Pro 7.0.0 by @fontawesome - https://fontawesome.com License - https://fontawesome.com/license (Commercial License) Copyright 2025 Fonticons, Inc. --><path fill="currentColor" d="M368 32l0 144 32 0 0-176-288 0 0 176 32 0 0-144 48 0 0 96 128 0 0-96 48 0zM224 32l64 0 0 64-64 0 0-64zM336 512l176 0 0-288-176 0 0 32 64 0 0 64-64 0 0 32 96 0 0-96 48 0 0 224-144 0 0 32zm-96-48l0 0 0-192 0 0 0 192zm16-208l0 224-224 0 0-224 48 0 0 96 128 0 0-96 48 0zM112 320l0-64 64 0 0 64-64 0zm144-96l-256 0 0 288 288 0 0-288-32 0z"/></svg>