<svg xmlns="http://www.w3.org/2000/svg" viewBox="0 0 576 512"><!--! Font Awesome Pro 7.0.0 by @fontawesome - https://fontawesome.com License - https://fontawesome.com/license (Commercial License) Copyright 2025 Fonticons, Inc. --><path fill="currentColor" d="M16 32l-16 0 0 32 48 0 0 64-48 0 0 140.5c9.5 2.4 14.7 3.7 15.5 3.9 28.5 7.1 48.5 32.7 48.5 62.1l0 145.5 128 0 0-128c0-35.3 28.7-64 64-64 6.3 0 12.4 .9 18.2 2.6 6.5-9.3 13.7-18 21.7-26-12.1-5.5-25.6-8.6-39.8-8.6-53 0-96 43-96 96l0 96-64 0 0-113.5c0-41-26-77.1-64-90.5l0-83.9 448 0 0 54c11.1 2.9 21.8 6.7 32 11.4l0-97.4-48 0 0-64 48 0 0-32-496 0zM432 64l0 64-96 0 0-64 96 0zM304 64l0 64-96 0 0-64 96 0zM176 64l0 64-96 0 0-64 96 0zM320 400a112 112 0 1 1 224 0 112 112 0 1 1 -224 0zm256 0a144 144 0 1 0 -288 0 144 144 0 1 0 288 0zM448 320l-32 0 0 96 32 0 0-96zm0 160l0-32-32 0 0 32 32 0z"/></svg>