<svg xmlns="http://www.w3.org/2000/svg" viewBox="0 0 640 512"><!--! Font Awesome Pro 7.0.0 by @fontawesome - https://fontawesome.com License - https://fontawesome.com/license (Commercial License) Copyright 2025 Fonticons, Inc. --><path fill="currentColor" d="M64.1 64l512 0 0 140.5c-9.5 2.4-14.7 3.7-15.5 3.9-28.5 7.1-48.5 32.7-48.5 62.1l0 97.6-32-12.8 0-84.8c0-41 26-77.1 64-90.5l0-83.9-448 0 0 83.9c38 13.4 64 49.5 64 90.5l0 84.8-32 12.8 0-97.6c0-29.4-20-55-48.5-62.1-.8-.2-6-1.5-15.5-3.9L64.1 64zm352 284.8l-32 12.8 0-73.6c0-35.3-28.7-64-64-64s-64 28.7-64 64l0 73.6-32-12.8 0-60.8c0-53 43-96 96-96s96 43 96 96l0 60.8zM199.1 393l121 45.9 121-45.9 5.7-2.1 5.7 2.1 121 45.9c28.3-10.6 45.7-17.1 52-19.5l11.2 30c-5.4 2-24.6 9.2-57.6 21.6l-5.6 2.1-5.6-2.1-121-45.9-121 45.9-5.7 2.1-5.7-2.1-121-45.9-121 45.9-5.6 2.1-5.6-2.1C28.1 458.6 8.9 451.4 3.5 449.4l11.2-30c6.3 2.4 23.6 8.9 52 19.5l121-45.9 5.7-2.1 5.7 2.1z"/></svg>