<svg xmlns="http://www.w3.org/2000/svg" viewBox="0 0 512 512"><!--! Font Awesome Pro 7.0.0 by @fontawesome - https://fontawesome.com License - https://fontawesome.com/license (Commercial License) Copyright 2025 Fonticons, Inc. --><path fill="currentColor" d="M192 480l288 0 0-288-80 0 0-32 112 0 0 352-352 0 0-112 32 0 0 80zm-9.4-160L297.4 320 32 54.6 32 169.4 182.6 320zM176 352l-176 0 0-352 352 0 0 352-176 0zm-38.6-32L32 214.6 32 320 137.4 320zM320 137.4L320 32 214.6 32 320 137.4zM169.4 32L54.6 32 320 297.4 320 182.6 169.4 32z"/></svg>