<svg xmlns="http://www.w3.org/2000/svg" viewBox="0 0 576 512"><!--! Font Awesome Pro 7.0.0 by @fontawesome - https://fontawesome.com License - https://fontawesome.com/license (Commercial License) Copyright 2025 Fonticons, Inc. --><path fill="currentColor" d="M340 180L552-32 576-8 364 204 416 256 257.2 515.9 240 544 216.7 520.7 23.3 327.3 0 304 28.1 286.8 288 128 340 180zM51.4 310.1l47.9 47.9c25.9-25.9 40.8-40.8 44.7-44.7L166.6 336c-3.9 3.9-18.8 18.8-44.7 44.7l111.9 111.9 89.6-146.6-125.5-125.5-146.6 89.6zM340.6 318l34.9-57.2-92.4-92.4-57.2 34.9 114.6 114.6z"/></svg>