<svg xmlns="http://www.w3.org/2000/svg" viewBox="0 0 384 512"><!--! Font Awesome Pro 7.0.0 by @fontawesome - https://fontawesome.com License - https://fontawesome.com/license (Commercial License) Copyright 2025 Fonticons, Inc. --><path fill="currentColor" d="M32 32l0 448 96 0 0-128 128 0 0 128 96 0 0-448-320 0zM160 480l64 0 0-96-64 0 0 96zm-32 32l-128 0 0-512 384 0 0 512-256 0zm96-400l48 0 0 48-48 0 0-48zm48 112l0 48-48 0 0-48 48 0zM112 112l48 0 0 48-48 0 0-48zm48 112l0 48-48 0 0-48 48 0z"/></svg>