<svg xmlns="http://www.w3.org/2000/svg" viewBox="0 0 576 512"><!--! Font Awesome Pro 7.0.0 by @fontawesome - https://fontawesome.com License - https://fontawesome.com/license (Commercial License) Copyright 2025 Fonticons, Inc. --><path fill="currentColor" d="M144-16l32 0 0 233.2c-11.4-3.2-22.2-7.3-32-12.2L144-16zm80 240c-5.4 0-10.7-.3-16-.8l0-191.2 32 0 0 191.2c-5.3 .5-10.6 .8-16 .8zm48-6.8l0-217.2 32 0 0 201.5c-7.2 3.8-14 7.8-20.3 12.1-3.8 1.3-7.7 2.6-11.7 3.7zM224 272c1 0 2 0 3 0-6.2 10-11.5 20.6-15.9 31.7-47.3-2.5-96.5-18.9-134.1-45.4l47.4 189.7 83.5 0 0 32-108.5 0-3-12.1-64-256 28.6-13.1C91.4 241.6 159.7 272 224 272zM368 160l-32 0 0-128 32 0 0 128zM80 160l0-128 32 0 0 128-32 0zM576 320.3l0 47.8-32 0 0-41.5c-.7-1.6-1.7-3.5-3-5.8-3.9-6.9-10.2-16.4-19.7-26-18.4-18.4-50.4-38.7-105.3-38.7-54.9 .1-87 20.4-105.4 38.8-9.5 9.5-15.8 19-19.7 25.9-1.3 2.3-2.2 4.2-3 5.8l0 41.5-32 0 0-47.8s32-96 160-96.2c128 .1 160 96.2 160 96.2zM256 543.6l0-79.5 32 0 0 47.5 256 0 0-47.5 32 0 0 79.5-320 0zM576 432l-320 0 0-32 320 0 0 32zM400 288a16 16 0 1 1 32 0 16 16 0 1 1 -32 0zm-48 16a16 16 0 1 1 0 32 16 16 0 1 1 0-32zm112 16a16 16 0 1 1 32 0 16 16 0 1 1 -32 0z"/></svg>