<svg xmlns="http://www.w3.org/2000/svg" viewBox="0 0 512 512"><!--! Font Awesome Pro 7.0.0 by @fontawesome - https://fontawesome.com License - https://fontawesome.com/license (Commercial License) Copyright 2025 Fonticons, Inc. --><path fill="currentColor" d="M64 400l0 48 384 0 0-48-384 0zm-32 0l0-32 448 0 0 112-448 0 0-80zM480 208l0 32-448 0 0-64S80 32 256 32 480 176 480 176l0 32zM64 182l0 26 384 0 0-26c-1.3-3.1-3.4-7.7-6.4-13.3-6.2-11.6-16.2-27.1-30.8-42.7-28.8-30.5-76.7-62-154.7-62S130.1 95.5 101.3 126c-14.7 15.5-24.6 31.1-30.8 42.7-3 5.6-5.1 10.2-6.4 13.3zM512 288l0 32-512 0 0-32 512 0zM256 92a20 20 0 1 1 0 40 20 20 0 1 1 0-40zM140 144a20 20 0 1 1 40 0 20 20 0 1 1 -40 0zm212-20a20 20 0 1 1 0 40 20 20 0 1 1 0-40z"/></svg>