<svg xmlns="http://www.w3.org/2000/svg" viewBox="0 0 640 512"><!--! Font Awesome Pro 7.0.0 by @fontawesome - https://fontawesome.com License - https://fontawesome.com/license (Commercial License) Copyright 2025 Fonticons, Inc. --><path fill="currentColor" d="M352 416l-32 0 0 64-32 0 0-64-192 0 0 64-32 0 0-64-32 0 0-352 320 0 0 352zM512 0c61.9 0 112 50.1 112 112 0 56.4-41.7 103.1-96 110.8l0 257.2-32 0 0-257.2c-54.3-7.8-96-54.4-96-110.8 0-61.9 50.1-112 112-112zM64 384l256 0 0-128-256 0 0 128zm72-40a24 24 0 1 1 0-48 24 24 0 1 1 0 48zm112 0a24 24 0 1 1 0-48 24 24 0 1 1 0 48zM64 224l256 0 0-128-256 0 0 128zM512 32a80 80 0 1 0 0 160 80 80 0 1 0 0-160z"/></svg>