<svg xmlns="http://www.w3.org/2000/svg" viewBox="0 0 384 512"><!--! Font Awesome Pro 7.0.0 by @fontawesome - https://fontawesome.com License - https://fontawesome.com/license (Commercial License) Copyright 2025 Fonticons, Inc. --><path fill="currentColor" d="M352 160l0 320-320 0 0-320 320 0zm0-32l-320 0 0-96 320 0 0 96zm32 0l0-128-384 0 0 512 384 0 0-384zM72 224a24 24 0 1 0 48 0 24 24 0 1 0 -48 0zm24 72a24 24 0 1 0 0 48 24 24 0 1 0 0-48zm72-72a24 24 0 1 0 48 0 24 24 0 1 0 -48 0zm24 72a24 24 0 1 0 0 48 24 24 0 1 0 0-48zm72-72a24 24 0 1 0 48 0 24 24 0 1 0 -48 0zm24 72a24 24 0 1 0 0 48 24 24 0 1 0 0-48zM264 416c0 13.3 10.7 24 24 24s24-10.7 24-24-10.7-24-24-24-24 10.7-24 24zm-56-16l-144 0 0 32 160 0 0-32-16 0z"/></svg>