<svg xmlns="http://www.w3.org/2000/svg" viewBox="0 0 576 512"><!--! Font Awesome Pro 7.0.0 by @fontawesome - https://fontawesome.com License - https://fontawesome.com/license (Commercial License) Copyright 2025 Fonticons, Inc. --><path fill="currentColor" d="M112 32l-16 0 0 128-64 0 0 320 384 0 0-320-288 0 0-96 224 0 0-32-240 0zM96 192l288 0 0 256-320 0 0-256 32 0zM544 458.7l32 21.3 0-320c-13.3 8.9-50.7 33.8-112 74.7l0 38.5 80-53.3 0 200.4-80-53.3 0 38.5 80 53.3zM112 256l0 32 224 0 0-32-224 0z"/></svg>