<svg xmlns="http://www.w3.org/2000/svg" viewBox="0 0 576 512"><!--! Font Awesome Pro 7.0.0 by @fontawesome - https://fontawesome.com License - https://fontawesome.com/license (Commercial License) Copyright 2025 Fonticons, Inc. --><path fill="currentColor" d="M480 256l0 11.2 7 8.8 35.2 44-468.4 0 35.2-44 7-8.8 0-203.2 384 0 0 192zM32 448l0-96 512 0 0 96-512 0zm544 0l0-112-64-80 0-224-448 0 0 224-64 80 0 144 576 0 0-32zM336 192a48 48 0 1 1 -96 0 48 48 0 1 1 96 0zm-48-80a80 80 0 1 0 0 160 80 80 0 1 0 0-160zM96 384l0 32 384 0 0-32-384 0zM440 104l-48 0 0 48 48 0 0-48z"/></svg>