<svg xmlns="http://www.w3.org/2000/svg" viewBox="0 0 512 512"><!--! Font Awesome Pro 7.0.0 by @fontawesome - https://fontawesome.com License - https://fontawesome.com/license (Commercial License) Copyright 2025 Fonticons, Inc. --><path fill="currentColor" d="M352 32l-192 0-32 64-128 0 0 384 512 0 0-384-128 0-32-64zm128 96l0 320-448 0 0-320 115.8 0c3.5-7 14.2-28.4 32-64l152.4 0c17.8 35.6 28.5 57 32 64L480 128zM113.7 257.4L89.4 278.3c.7 .8 20.1 23.5 58.4 68.1L160 360.6c2.1-2.5 22.2-25.9 60.1-70.2l10.4-12.1-24.3-20.8c-5.4 6.3-15.5 18-30.3 35.3l0-20.7c0-44.2 35.8-80 80-80 5.5 0 10.9 .6 16.1 1.6l23.5-26.4c-12.3-4.7-25.7-7.2-39.6-7.2-61.9 0-112 50.1-112 112l0 20.7c-14.8-17.3-24.9-29-30.3-35.3zm202.4 17l19.9-23.2 0 20.7c0 44.2-35.8 80-80 80-5.5 0-10.9-.6-16.1-1.6l-23.5 26.4c12.3 4.7 25.7 7.2 39.6 7.2 61.9 0 112-50.1 112-112l0-20.7c14.8 17.3 24.9 29 30.3 35.3l24.3-20.8c-.7-.8-20.1-23.5-58.4-68.1L352 183.4c-2.1 2.5-22.2 25.9-60.1 70.2l-10.4 12.1 24.3 20.8 10.4-12.1z"/></svg>