<svg xmlns="http://www.w3.org/2000/svg" viewBox="0 0 448 512"><!--! Font Awesome Pro 7.0.0 by @fontawesome - https://fontawesome.com License - https://fontawesome.com/license (Commercial License) Copyright 2025 Fonticons, Inc. --><path fill="currentColor" d="M32 224a192 192 0 1 1 384 0 192 192 0 1 1 -384 0zM240 447.4C356.2 439.2 448 342.3 448 224 448 100.3 347.7 0 224 0S0 100.3 0 224C0 342.3 91.8 439.2 208 447.4l0 32.6-96 0 0 32 224 0 0-32-96 0 0-32.6zM128 224a96 96 0 1 1 192 0 96 96 0 1 1 -192 0zm224 0a128 128 0 1 0 -256 0 128 128 0 1 0 256 0z"/></svg>