<svg xmlns="http://www.w3.org/2000/svg" viewBox="0 0 384 512"><!--! Font Awesome Pro 7.0.0 by @fontawesome - https://fontawesome.com License - https://fontawesome.com/license (Commercial License) Copyright 2025 Fonticons, Inc. --><path fill="currentColor" d="M328.4 445.3c-6.1 5.8-15.9 11.8-29.2 17.1-26.6 10.7-64.5 17.6-107.2 17.6s-80.6-6.9-107.2-17.6c-13.4-5.3-23.1-11.3-29.2-17.1-6.1-5.8-7.6-10.3-7.6-13.3l0-146.4c12.8 6.5 27.7 11.9 43.7 16.2 6.5 1.7 13.3 3.3 20.3 4.7l0 77.6 160 0 0-77.6c7-1.4 13.8-3 20.3-4.7 16-4.3 30.8-9.7 43.7-16.2L336 432c0 3-1.5 7.5-7.6 13.3zM112 273.7c-4.1-.9-8.2-1.9-12.1-2.9-22.7-6.1-40.3-14-51.9-22.5l0-120.7c7.4 4.7 15.9 8.9 24.9 12.5 31.3 12.5 73.4 19.9 119.1 19.9s87.8-7.4 119.1-19.9c9.1-3.6 17.5-7.8 24.9-12.5l0 120.7c-11.7 8.5-29.3 16.4-51.9 22.5-3.9 1-7.9 2-12.1 2.9l0-49.7-160 0 0 49.7zM368 432l0-360c0-39.8-78.8-72-176-72S16 32.2 16 72l0 368c0 39.8 78.8 72 176 72s176-32.2 176-72l0-8zM55.6 93.3C49.5 87.5 48 83 48 80s1.5-7.5 7.6-13.3C61.7 60.9 71.4 54.9 84.8 49.6 111.4 38.9 149.3 32 192 32s80.6 6.9 107.2 17.6c13.4 5.3 23.1 11.3 29.2 17.1 6.1 5.8 7.6 10.3 7.6 13.3s-1.5 7.5-7.6 13.3c-6.1 5.8-15.9 11.8-29.2 17.1-26.6 10.7-64.5 17.6-107.2 17.6s-80.6-6.9-107.2-17.6c-13.4-5.3-23.1-11.3-29.2-17.1zM144 352l0-96 96 0 0 96-96 0z"/></svg>