<svg xmlns="http://www.w3.org/2000/svg" viewBox="0 0 640 512"><!--! Font Awesome Pro 7.0.0 by @fontawesome - https://fontawesome.com License - https://fontawesome.com/license (Commercial License) Copyright 2025 Fonticons, Inc. --><path fill="currentColor" d="M144 32l-11.5 0-3.6 10.9-49.7 149.1-47.1 0 0 288 32 0 0-64 320 0 0-32-320 0 0-160 265.7 0c1.6-11 4.2-21.8 7.9-32l-224.7 0 42.7-128 264.9 0 9.8 29.4c9.7-4.1 19.9-7.4 30.5-9.7-10.7-32.1-16.5-49.4-17.2-51.7L144 32zm-8 296a24 24 0 1 0 0-48 24 24 0 1 0 0 48zM496 160c48.6 0 88 39.4 88 88 0 39.1-25.5 72.3-60.9 83.8l-11.1 3.6 0 23.3 4.7 4.7 20.7 20.7-32 32c6.3 6.3 16.4 16.4 30.3 30.3l-31.7 24-40-30.3 0-109.5-8.6-4.5c-28.2-14.7-47.4-44.2-47.4-78.1 0-48.6 39.4-88 88-88zM376 248c0 42.8 22.4 80.3 56 101.5l0 106.4 6.3 4.8 56 42.4 9.7 7.3 9.7-7.3c44.2-33.5 67.8-51.3 70.6-53.5-7.4-7.4-18.6-18.6-33.7-33.7 15.4-15.3 26-26 32-32l-30.1-30.1c37.8-20.2 63.5-60 63.5-105.9 0-66.3-53.7-120-120-120S376 181.7 376 248zm120-48a24 24 0 1 0 0 48 24 24 0 1 0 0-48z"/></svg>