<svg xmlns="http://www.w3.org/2000/svg" viewBox="0 0 512 512"><!--! Font Awesome Pro 7.0.0 by @fontawesome - https://fontawesome.com License - https://fontawesome.com/license (Commercial License) Copyright 2025 Fonticons, Inc. --><path fill="currentColor" d="M112 32l96 0 0 32-128 0 0-32 32 0zm224 0l96 0 0 32-128 0 0-32 32 0zM32 128l0 288 448 0 0-288-448 0zM0 96l512 0 0 352-512 0 0-352zm384 80l0 48 48 0 0 32-48 0 0 48-32 0 0-48-48 0 0-32 48 0 0-48 32 0zM96 224l112 0 0 32-128 0 0-32 16 0z"/></svg>