<svg xmlns="http://www.w3.org/2000/svg" viewBox="0 0 640 512"><!--! Font Awesome Pro 7.0.0 by @fontawesome - https://fontawesome.com License - https://fontawesome.com/license (Commercial License) Copyright 2025 Fonticons, Inc. --><path fill="currentColor" d="M64 64l0 320 81.6 0c14.6-28.5 44.2-48 78.4-48s63.8 19.5 78.4 48l17.6 0 0-256 128 0 0 256 64 0 0-320-448 0zM400 256l16 0 0-96-64 0 0 224 64 0 0-96-32 0 0-32 16 0zM136.4 416l-104.4 0 0-384 512 0 0 352 96 0 0 32-328.4 0c.2 2.6 .4 5.3 .4 8 0 48.6-39.4 88-88 88s-88-39.4-88-88c0-2.7 .1-5.4 .4-8zM224 160l-64 0 0 64 64 0 0-64zm-64-32l96 0 0 128-128 0 0-128 32 0zm64 352a56 56 0 1 0 0-112 56 56 0 1 0 0 112z"/></svg>