<svg xmlns="http://www.w3.org/2000/svg" viewBox="0 0 384 512"><!--! Font Awesome Pro 7.0.0 by @fontawesome - https://fontawesome.com License - https://fontawesome.com/license (Commercial License) Copyright 2025 Fonticons, Inc. --><path fill="currentColor" d="M384 512L0 512 0 0 384 0 384 512zM32 480l320 0 0-448-320 0 0 448zm208-96l-96 0 0-32 96 0 0 32zM203.3 132.2c18.3 18.3 49.6 49.6 93.7 93.7 25 25 25 65.5 0 90.5-23.4 23.4-60.5 24.9-85.7 4.4l-4.8-4.4-14.5-14.5-14.5 14.5c-23.4 23.4-60.5 24.9-85.7 4.4L87 316.4c-25-25-25-65.5 0-90.5 42.2-42.3 77.2-77.3 105-105l11.3 11.3zm-34 56.6l-59.7 59.7c-12.5 12.5-12.5 32.8 0 45.3l2.4 2.2c12.6 10.2 31.1 9.5 42.8-2.2 19.6-19.6 32-32 37.1-37.1l11.3 11.3 25.8 25.8c12.5 12.5 32.8 12.5 45.2 0s12.5-32.8 0-45.3l-59.7-59.7-22.7-22.6-22.6 22.6z"/></svg>