<svg xmlns="http://www.w3.org/2000/svg" viewBox="0 0 576 512"><!--! Font Awesome Pro 7.0.0 by @fontawesome - https://fontawesome.com License - https://fontawesome.com/license (Commercial License) Copyright 2025 Fonticons, Inc. --><path fill="currentColor" d="M403.4-19.3L392.1-30.6c-5.5 5.5-17.1 17.1-34.7 34.7-25.9 25.9-33.9 62.8-24.1 95.6-10.6-2.4-21.6-3.7-32.9-3.7-59.1 0-112.5 35.2-135.8 89.5L50.7 451.4c-8 18.6-18.5 43.1-31.5 73.5 28.7-12.3 124.2-53.2 339.4-145.5 54.3-23.3 89.5-76.7 89.5-135.8 0-11.3-1.3-22.3-3.7-32.9 32.7 9.8 69.7 1.8 95.6-24.1 17.6-17.6 29.2-29.2 34.7-34.7-5.5-5.5-17.1-17.1-34.7-34.7-23.6-23.6-56.5-32.4-86.9-26.2 6.1-30.5-2.6-63.3-26.2-86.9L403.4-19.3zm23.4 159.2l0 0c25-25 65.5-25 90.5 0l12.1 12.1-12.1 12.1c-25 25-65.5 25-90.5 0l-12.1-12.1 12.1-12.1zM404.5 117l-12.4 12.4-12.1-12.1c-25-25-25-65.5 0-90.5l12.1-12.1 12.1 12.1c24.9 24.9 25 65.2 .3 90.2zM300.4 128c63.9 0 115.7 51.8 115.7 115.7 0 46.3-27.6 88.1-70.1 106.4l-93.3 40c-.4-.5-.8-.9-1.2-1.4-24.8-24.8-39.2-39.2-43.3-43.3L185.5 368c5.4 5.4 17.2 17.2 35.6 35.6L80.1 464 194.1 198.1c1.3-3.1 2.8-6.2 4.4-9.1 36.7 36.7 55.9 55.9 57.7 57.7l22.6-22.6-59.3-59.3c-.6-.6-1.3-1.2-2-1.7 21.4-22 51.1-35 82.9-35z"/></svg>