<svg xmlns="http://www.w3.org/2000/svg" viewBox="0 0 640 512"><!--! Font Awesome Pro 7.0.0 by @fontawesome - https://fontawesome.com License - https://fontawesome.com/license (Commercial License) Copyright 2025 Fonticons, Inc. --><path fill="currentColor" d="M0 0l101.4 0 2.4 13.1 44.2 242.9 351.1 0 46.1-224 32.7 0-50.1 243.2-2.6 12.8-371.3 0 11.6 64 314.6 0 0 32-341.4 0-2.4-13.1-61.6-338.9-74.6 0 0-32zM208 480a20 20 0 1 0 0-40 20 20 0 1 0 0 40zm0-72a52 52 0 1 1 0 104 52 52 0 1 1 0-104zm244 52a20 20 0 1 0 -40 0 20 20 0 1 0 40 0zm-72 0a52 52 0 1 1 104 0 52 52 0 1 1 -104 0zM324.7 187.3l-72-72-11.3-11.3 22.6-22.6c2 2 20.6 20.6 56 56l0-137.4 32 0 0 137.4c35.3-35.3 54-54 56-56l22.6 22.6-11.3 11.3-72 72-11.3 11.3-11.3-11.3z"/></svg>