<svg xmlns="http://www.w3.org/2000/svg" viewBox="0 0 576 512"><!--! Font Awesome Pro 7.0.0 by @fontawesome - https://fontawesome.com License - https://fontawesome.com/license (Commercial License) Copyright 2025 Fonticons, Inc. --><path fill="currentColor" d="M288.2 93.7c-12.9-13.3-32.9-33.8-60-61.6-9.5 37.6-16.6 65.4-21.1 83.4-17.8-5-45.4-12.8-82.8-23.4 10.6 37.4 18.3 64.9 23.4 82.8-18 4.6-45.8 11.6-83.4 21.1 27.8 27.1 48.4 47.1 61.6 60-13.3 12.9-33.8 32.9-61.6 60 37.6 9.5 65.4 16.6 83.4 21.1-5 17.8-12.8 45.4-23.4 82.8 37.4-10.6 64.9-18.3 82.8-23.4 4.6 18 11.6 45.8 21.1 83.4 27.1-27.8 47.1-48.4 60-61.7 12.9 13.3 32.9 33.8 60 61.7 9.5-37.6 16.6-65.4 21.1-83.4 17.8 5 45.4 12.8 82.8 23.4-10.6-37.4-18.3-64.9-23.4-82.8 18-4.6 45.8-11.6 83.4-21.1-27.8-27.1-48.4-47.1-61.6-60 13.3-12.9 33.8-32.9 61.6-60-37.6-9.5-65.4-16.6-83.4-21.1 5-17.8 12.8-45.4 23.4-82.8-37.4 10.6-64.9 18.3-82.8 23.4-4.6-18-11.6-45.8-21.1-83.4-27.1 27.8-47.1 48.4-60 61.6zM339-4.3l26.2-26.9c13.9 55 24.2 95.3 27.1 107 43.9-12.4 92-26 106.2-30-15.4 54.6-26.7 94.6-30 106.2 44.2 11.2 92.7 23.5 107 27.1-40.6 39.6-70.5 68.6-79.1 77 32.7 31.8 68.5 66.7 79.1 77-55 13.9-95.3 24.2-107 27.1 12.4 43.9 26 92 30 106.2-54.6-15.4-94.6-26.7-106.2-30-11.2 44.2-23.5 92.6-27.1 107-39.6-40.6-68.6-70.5-77-79.1-31.8 32.7-66.7 68.5-77 79.1-13.9-55-24.2-95.3-27.1-107-43.9 12.4-92 26-106.2 30 15.4-54.6 26.7-94.6 30-106.2-44.2-11.2-92.7-23.5-107-27.1 40.6-39.6 70.5-68.6 79.1-77-32.7-31.8-68.5-66.7-79.1-77 55-13.9 95.3-24.2 107-27.1-12.4-43.9-26-92-30-106.2 54.6 15.4 94.6 26.7 106.2 30 11.2-44.2 23.5-92.7 27.1-107 39.6 40.6 68.6 70.5 77 79.1 13.9-14.2 30.8-31.6 50.8-52.2z"/></svg>