<svg xmlns="http://www.w3.org/2000/svg" viewBox="0 0 512 512"><!--! Font Awesome Pro 7.0.0 by @fontawesome - https://fontawesome.com License - https://fontawesome.com/license (Commercial License) Copyright 2025 Fonticons, Inc. --><path fill="currentColor" d="M272 280.6l0-248.6-32 0 0 248.6-202.3 171.2-12.2 10.3 20.7 24.4 12.2-10.3 197.7-167.3 197.7 167.3 12.2 10.3 20.7-24.4-12.2-10.3-202.3-171.2zM56 40l-48 0 0 48 48 0 0-48zM8 232l0 48 48 0 0-48-48 0zm144-96l-48 0 0 48 48 0 0-48zm304 0l0 48 48 0 0-48-48 0zM408 40l-48 0 0 48 48 0 0-48zM360 232l0 48 48 0 0-48-48 0zM280 472l0-48-48 0 0 48 48 0z"/></svg>