<svg xmlns="http://www.w3.org/2000/svg" viewBox="0 0 320 512"><!--! Font Awesome Pro 7.0.0 by @fontawesome - https://fontawesome.com License - https://fontawesome.com/license (Commercial License) Copyright 2025 Fonticons, Inc. --><path fill="currentColor" d="M160 32c53 0 96 43 96 96 0 24.6-9.4 47-24.6 64l16.6 0 0 32-21.3 0 13.3 160 64 80 0 48-288 0 0-48 64-80 13.3-160-21.3 0 0-32 16.6 0c-15.2-17-24.6-39.4-24.6-64 0-53 43-96 96-96zM95.4 416l-47.4 59.3 0 4.7 224 0 0-4.7-47.4-59.3-129.2 0zm16.7-32l95.8 0-13.3-160-69.1 0-13.3 160zM160 64a64 64 0 1 0 0 128 64 64 0 1 0 0-128z"/></svg>