<svg xmlns="http://www.w3.org/2000/svg" viewBox="0 0 512 512"><!--! Font Awesome Pro 7.0.0 by @fontawesome - https://fontawesome.com License - https://fontawesome.com/license (Commercial License) Copyright 2025 Fonticons, Inc. --><path fill="currentColor" d="M176 64a32 32 0 1 0 -64 0 32 32 0 1 0 64 0zM80 64A64 64 0 1 1 208 64 64 64 0 1 1 80 64zM384 224l-32 0 0 144 32 0 0 112 57 0-14.7-73.7c-.2-.9-2.3-11.6-6.4-32-.7-3.6-1.8-8.9-3.2-16l-.6-3.1 0-195.2-32 0 0 64zm116.2 83.9l-52.2 17.4 0 26.7 3.2 16 60.8 0 0 32-54.4 0c9.1 45.3 21.3 106.7 22.4 112l-128 0 0-112-32 0 0-208 32 0 0-64 32 0 0-96-16 0 0-32 48 0 0 128 32 0 0 160 32-8 0-88 32 0 0 112-11.8 3.9zM85 160l117.9 0 4.6 8.3 70.5 128 7.7 14-28 15.4-7.7-14-42-76.2 0 276.5-32 0 0-128-64 0 0 128-32 0 0-276.5-42 76.2-7.7 14-28-15.4 7.7-14 70.5-128 4.6-8.3zm27 192l64 0 0-160-64 0 0 160z"/></svg>