<svg xmlns="http://www.w3.org/2000/svg" viewBox="0 0 512 512"><!--! Font Awesome Pro 7.0.0 by @fontawesome - https://fontawesome.com License - https://fontawesome.com/license (Commercial License) Copyright 2025 Fonticons, Inc. --><path fill="currentColor" d="M256 32a224 224 0 1 1 0 448 224 224 0 1 1 0-448zm0 480a256 256 0 1 0 0-512 256 256 0 1 0 0 512zM176 128l-16 0 0 32 64 0c20.9 0 38.7 13.4 45.3 32l-109.3 0 0 32 109.3 0c-6.6 18.6-24.4 32-45.3 32l-64 0 0 32.4 6.9 4.8 128 88 13.2 9.1 18.1-26.4-13.2-9.1-97.2-66.8 8.1 0c38.7 0 71-27.5 78.4-64l49.6 0 0-32-49.6 0c-2.4-11.8-7.4-22.7-14.4-32l64 0 0-32-176 0z"/></svg>