<svg xmlns="http://www.w3.org/2000/svg" viewBox="0 0 512 512"><!--! Font Awesome Pro 7.0.0 by @fontawesome - https://fontawesome.com License - https://fontawesome.com/license (Commercial License) Copyright 2025 Fonticons, Inc. --><path fill="currentColor" d="M480 256a224 224 0 1 1 -448 0 224 224 0 1 1 448 0zM0 256a256 256 0 1 0 512 0 256 256 0 1 0 -512 0zm240-64l-112 0 0 128 112 0 0 64 32 0 128-128c-1.3-1.3-44-44-128-128l-32 0 0 64zm32 0l0-18.7 82.7 82.7-82.7 82.7 0-50.7-112 0 0-64 112 0 0-32z"/></svg>