<svg xmlns="http://www.w3.org/2000/svg" viewBox="0 0 512 512"><!--! Font Awesome Pro 7.0.0 by @fontawesome - https://fontawesome.com License - https://fontawesome.com/license (Commercial License) Copyright 2025 Fonticons, Inc. --><path fill="currentColor" d="M256 32a224 224 0 1 1 0 448 224 224 0 1 1 0-448zm0 480a256 256 0 1 0 0-512 256 256 0 1 0 0 512zM182.7 256c0-40.5 32.8-73.3 73.3-73.3s73.3 32.8 73.3 73.3c0 14.9-4.5 28.8-12.2 40.4-27.3-27.3-42.3-42.3-45.2-45.2L251.3 272c2.8 2.8 17.9 17.9 45.2 45.2-11.6 7.7-25.5 12.2-40.4 12.2-40.5 0-73.3-32.8-73.3-73.3zm176 0c0-56.7-46-102.7-102.7-102.7s-102.7 46-102.7 102.7 46 102.7 102.7 102.7c23.1 0 44.3-7.6 61.5-20.4 11.7 11.7 20.6 20.6 26.5 26.5L364.7 344c-6-6-14.8-14.8-26.5-26.5 12.8-17.1 20.4-38.4 20.4-61.5z"/></svg>