<svg xmlns="http://www.w3.org/2000/svg" viewBox="0 0 512 512"><!--! Font Awesome Pro 7.0.0 by @fontawesome - https://fontawesome.com License - https://fontawesome.com/license (Commercial License) Copyright 2025 Fonticons, Inc. --><path fill="currentColor" d="M256 32a224 224 0 1 1 0 448 224 224 0 1 1 0-448zm0 480a256 256 0 1 0 0-512 256 256 0 1 0 0 512zM144 128l0 32 96 0 0 68.5c-48.3 16.1-73.8 24.6-76.2 25.4l10.1 30.4c4.2-1.4 26.2-8.7 66.1-22l0 30.3c-48.3 16.1-73.8 24.6-76.2 25.4l10.1 30.4c4.2-1.4 26.2-8.7 66.1-22l0 57.8 32 0 0-68.5c48.3-16.1 73.8-24.6 76.2-25.4l-10.1-30.4c-4.2 1.4-26.2 8.7-66.1 22l0-30.3c48.3-16.1 73.8-24.6 76.2-25.4l-10.1-30.4c-4.2 1.4-26.2 8.7-66.1 22l0-57.8 96 0 0-32-224 0z"/></svg>