<svg xmlns="http://www.w3.org/2000/svg" viewBox="0 0 512 512"><!--! Font Awesome Pro 7.0.0 by @fontawesome - https://fontawesome.com License - https://fontawesome.com/license (Commercial License) Copyright 2025 Fonticons, Inc. --><path fill="currentColor" d="M256 32a224 224 0 1 1 0 448 224 224 0 1 1 0-448zm0 480a256 256 0 1 0 0-512 256 256 0 1 0 0 512zM240 96l0 33.1C177.2 137.3 128.8 191 128.8 256S177.2 374.7 240 382.9l0 33.1 32 0 0-32.9c35.6-4.2 66.7-23.1 87.2-50.3l-25.6-19.2c-17.5 23.3-45.4 38.4-76.8 38.4-53 0-96-43-96-96s43-96 96-96c31.4 0 59.3 15.1 76.8 38.4l25.6-19.2c-20.5-27.2-51.6-46.1-87.2-50.3l0-32.9-32 0z"/></svg>