<svg xmlns="http://www.w3.org/2000/svg" viewBox="0 0 512 512"><!--! Font Awesome Pro 7.0.0 by @fontawesome - https://fontawesome.com License - https://fontawesome.com/license (Commercial License) Copyright 2025 Fonticons, Inc. --><path fill="currentColor" d="M256 32a224 224 0 1 1 0 448 224 224 0 1 1 0-448zm0 480a256 256 0 1 0 0-512 256 256 0 1 0 0 512zM240 104l0 25.1c-54.3 7.8-96 54.4-96 110.9l0 128 32 0 0-128c0-38.7 27.5-71 64-78.4l0 206.4 32 0 0-206.4c36.5 7.4 64 39.7 64 78.4l0 128 32 0 0-128c0-56.4-41.7-103.1-96-110.9l0-25.1-32 0z"/></svg>