<svg xmlns="http://www.w3.org/2000/svg" viewBox="0 0 512 512"><!--! Font Awesome Pro 7.0.0 by @fontawesome - https://fontawesome.com License - https://fontawesome.com/license (Commercial License) Copyright 2025 Fonticons, Inc. --><path fill="currentColor" d="M480 256a224 224 0 1 0 -448 0 224 224 0 1 0 448 0zM0 256a256 256 0 1 1 512 0 256 256 0 1 1 -512 0zM192 128c35.3 0 64 28.7 64 64l0 24-32 0 0-24c0-17.7-14.3-32-32-32s-32 14.3-32 32l0 128c0 17.7 14.3 32 32 32s32-14.3 32-32l0-32-32 0 0-32 64 0 0 64c0 35.3-28.7 64-64 64s-64-28.7-64-64l0-128c0-35.3 28.7-64 64-64zm96 0l96 0 0 32-64 0 0 96 48 0 0 32-48 0 0 96-32 0 0-256z"/></svg>