<svg xmlns="http://www.w3.org/2000/svg" viewBox="0 0 512 512"><!--! Font Awesome Pro 7.0.0 by @fontawesome - https://fontawesome.com License - https://fontawesome.com/license (Commercial License) Copyright 2025 Fonticons, Inc. --><path fill="currentColor" d="M256 32a224 224 0 1 1 0 448 224 224 0 1 1 0-448zm0 480a256 256 0 1 0 0-512 256 256 0 1 0 0 512zM238.8 144l-2.9 12.3-23.9 99.7-39.2 0-29.5-92.8-4.8-15.2-30.5 9.7 4.8 15.2 26.4 83.2-27.1 0 0 32 37.3 0 32 100.8 3.5 11.2 25.5 0 2.9-12.3 23.9-99.7 37.6 0 23.9 99.7 2.9 12.3 25.5 0 3.5-11.2 32-100.8 37.3 0 0-32-27.1 0 26.4-83.2 4.8-15.2-30.5-9.7-4.8 15.2-29.5 92.8-39.2 0-23.9-99.7-2.9-12.3-34.4 0zm78.1 182.4l-9.2-38.4 21.4 0-12.2 38.4zM256 209.6l11.1 46.5-22.3 0 11.1-46.5zM182.9 288l21.4 0-9.2 38.4-12.2-38.4z"/></svg>