<svg xmlns="http://www.w3.org/2000/svg" viewBox="0 0 512 512"><!--! Font Awesome Pro 7.0.0 by @fontawesome - https://fontawesome.com License - https://fontawesome.com/license (Commercial License) Copyright 2025 Fonticons, Inc. --><path fill="currentColor" d="M480 256a224 224 0 1 0 -448 0 224 224 0 1 0 448 0zM0 256a256 256 0 1 1 512 0 256 256 0 1 1 -512 0zM192 128l-16 0 0 56-32 0 0 32 32 0 0 16-32 0 0 32 32 0 0 120 32 0 0-64 48 0c38.7 0 72.1-23 87.3-56l40.7 0 0-32-32.3 0c.2-2.6 .3-5.3 .3-8s-.1-5.4-.3-8l32.3 0 0-32-40.7 0c-15.2-33-48.5-56-87.3-56l-64 0zm114 56l-98 0 0-24 48 0c20.2 0 38.2 9.4 50 24zm-98 32l111.5 0c.3 2.6 .5 5.3 .5 8s-.2 5.4-.5 8l-111.5 0 0-16zm98 48c-11.7 14.6-29.7 24-50 24l-48 0 0-24 98 0z"/></svg>