<svg xmlns="http://www.w3.org/2000/svg" viewBox="0 0 512 512"><!--! Font Awesome Pro 7.0.0 by @fontawesome - https://fontawesome.com License - https://fontawesome.com/license (Commercial License) Copyright 2025 Fonticons, Inc. --><path fill="currentColor" d="M480 256a224 224 0 1 0 -448 0 224 224 0 1 0 448 0zM0 256a256 256 0 1 1 512 0 256 256 0 1 1 -512 0zm227.5-16l92.5 0 0 32-90.8 0c-1.8 15.9-7.4 31.4-16.7 45l-13.1 19 152.6 0 0 32-192 0 0-31.3 2.8-4.1 23.3-33.8c5.6-8.2 9.2-17.3 10.8-26.8l-36.9 0 0-32 34.3 0c-.3-.9-.7-1.9-1-2.8L187 221c-20.4-52.4 18.3-109 74.6-109l3 0c18.8 0 37.1 6.4 51.8 18.2l21.7 17.3-20 25-21.7-17.3c-9-7.2-20.2-11.1-31.8-11.1l-3 0c-33.8 0-57 33.9-44.7 65.4l6.3 16.2c1.8 4.7 3.3 9.5 4.4 14.4z"/></svg>