<svg xmlns="http://www.w3.org/2000/svg" viewBox="0 0 512 512"><!--! Font Awesome Pro 7.0.0 by @fontawesome - https://fontawesome.com License - https://fontawesome.com/license (Commercial License) Copyright 2025 Fonticons, Inc. --><path fill="currentColor" d="M256 32a224 224 0 1 1 0 448 224 224 0 1 1 0-448zm0 480a256 256 0 1 0 0-512 256 256 0 1 0 0 512zM232.7 357.2c7.6 4.6 15.4 8.8 23.3 12.7 7.9-4 15.8-8.1 23.3-12.7 9.4-5.8 22.1-14.2 34.9-24.9 24.5-20.4 53.8-52.6 53.8-92.3 0-35.3-28.7-64-64-64l-2.9 0c-16.7 0-32.8 6.3-45.1 17.5-12.3-11.2-28.4-17.5-45.1-17.5l-2.9 0c-35.3 0-64 28.7-64 64 0 39.7 29.2 71.9 53.8 92.3 12.8 10.6 25.4 19.1 34.9 24.9zM301.1 208l2.9 0c17.7 0 32 14.3 32 32 0 24.3-18.8 48.1-42.2 67.7-11.2 9.4-22.6 16.9-31.1 22.1-2.5 1.5-4.7 2.8-6.7 3.9-1.9-1.1-4.2-2.4-6.7-3.9-8.5-5.2-19.9-12.8-31.1-22.1-23.5-19.6-42.2-43.4-42.2-67.7 0-17.7 14.3-32 32-32l2.9 0c9.3 0 18.1 3.7 24.7 10.2l20.4 20.4 20.4-20.4c6.5-6.5 15.4-10.2 24.7-10.2z"/></svg>