<svg xmlns="http://www.w3.org/2000/svg" viewBox="0 0 512 512"><!--! Font Awesome Pro 7.0.0 by @fontawesome - https://fontawesome.com License - https://fontawesome.com/license (Commercial License) Copyright 2025 Fonticons, Inc. --><path fill="currentColor" d="M256 32a224 224 0 1 1 0 448 224 224 0 1 1 0-448zm0 480a256 256 0 1 0 0-512 256 256 0 1 0 0 512zm65-311c2.1-2.1 15.8-15.8 41-41l-201.9 0 0 201.9c25.2-25.2 38.8-38.8 41-41l.4-.4 22.6-22.6c14.4 14.4 30.9 30.9 49.4 49.4 1.9 1.9 9.4 9.4 22.6 22.6 25.4-25.4 25.5-25.5 51.3-51.3 1.9-1.9 9.4-9.4 22.6-22.6-33.3-33.3-63.4-63.4-72-72l22.6-22.6 .4-.4zm-45.7 45.7L324.7 296 296 324.7c-37.4-37.4-61.4-61.4-72-72-17.3 17.3-28 28-32 32l0-92.7 92.7 0c-4 4-14.7 14.7-32 32l22.6 22.6z"/></svg>