<svg xmlns="http://www.w3.org/2000/svg" viewBox="0 0 512 512"><!--! Font Awesome Pro 7.0.0 by @fontawesome - https://fontawesome.com License - https://fontawesome.com/license (Commercial License) Copyright 2025 Fonticons, Inc. --><path fill="currentColor" d="M304 128l80 0c53 0 96-43 96-96l0-32-96 0c-31 0-58.7 14.7-76.2 37.6-16.7-3.7-34-5.6-51.8-5.6-132.5 0-240 107.5-240 240S123.5 512 256 512 496 404.5 496 272c0-43.8-11.7-84.8-32.2-120.1-8.8 5.9-18.4 10.9-28.5 14.7 18.2 30.9 28.7 66.9 28.7 105.4 0 114.9-93.1 208-208 208S48 386.9 48 272 141.1 64 256 64c12.4 0 24.6 1.1 36.4 3.2-2.9 9.1-4.4 18.8-4.4 28.8l0 32 16 0zm80-96l64 0c0 35.3-28.7 64-64 64l-64 0c0-35.3 28.7-64 64-64z"/></svg>