<svg xmlns="http://www.w3.org/2000/svg" viewBox="0 0 384 512"><!--! Font Awesome Pro 7.0.0 by @fontawesome - https://fontawesome.com License - https://fontawesome.com/license (Commercial License) Copyright 2025 Fonticons, Inc. --><path fill="currentColor" d="M80 112l224 0 0-48 48 0 0 416-320 0 0-416 48 0 0 48zM80 0l0 32-80 0 0 480 384 0 0-480-80 0 0-32-224 0zM272 80l-160 0 0-48 160 0 0 48zm16 144l16 0 0-32-16 0-96 0-16 0 0 32 16 0 96 0zM192 384l-16 0 0 32 128 0 0-32-112 0zm-56-8l-48 0 0 48 48 0 0-48zm0-144l0-48-48 0 0 48 48 0zm72 56l0 32 96 0 0-32-96 0zm-28.8-19.9L154.3 248c-2.9 3.6-17.2 21.3-42.9 53-8.7-10.9-16.2-20.3-22.5-28.1l-25 20c4.2 5.2 15.8 19.8 34.9 43.6l4.8 6 15.3 0 4.8-5.9c36.1-44.6 54.6-67.4 55.4-68.4z"/></svg>