<svg xmlns="http://www.w3.org/2000/svg" viewBox="0 0 576 512"><!--! Font Awesome Pro 7.0.0 by @fontawesome - https://fontawesome.com License - https://fontawesome.com/license (Commercial License) Copyright 2025 Fonticons, Inc. --><path fill="currentColor" d="M240 64c-61.9 0-112 50.1-112 112l0 48.4-12 3.1C67.7 240 32 283.8 32 336l0 112 512 0 0-96c0-38.3-22.4-71.3-54.9-86.8l-9.1-4.3 0-60.9c0-48.6-39.4-88-88-88-13.6 0-26.4 3.1-37.9 8.5l-12.6 6-7.7-11.7C313.8 84.2 279.3 64 240 64zM96 176c0-79.5 64.5-144 144-144 45.7 0 86.5 21.3 112.8 54.5 12.3-4.2 25.5-6.5 39.2-6.5 66.3 0 120 53.7 120 120l0 41.1c38.2 22.1 64 63.5 64 110.9l0 128-576 0 0-144c0-62.7 40.1-116 96-135.8L96 176zm64 80l128 0 0 32-128 0 0-32zm176 0l80 0 0 32-80 0 0-32zm64 96l16 0 0 32-128 0 0-32 112 0zm-176 0l16 0 0 32-80 0 0-32 64 0z"/></svg>