<svg xmlns="http://www.w3.org/2000/svg" viewBox="0 0 576 512"><!--! Font Awesome Pro 7.0.0 by @fontawesome - https://fontawesome.com License - https://fontawesome.com/license (Commercial License) Copyright 2025 Fonticons, Inc. --><path fill="currentColor" d="M208 32c34.8 0 64.5 22.2 75.5 53.3L287.2 96 352 96c35.3 0 64 28.7 64 64 11 0 21.8 1.4 32 4l0-4c0-53-43-96-96-96l-42.8 0C291.2 26.2 252.7 0 208 0 151.6 0 104.9 41.7 97.1 96L96 96C43 96 0 139 0 192l0 96 96.4 0c5-4.3 10.4-8.2 16-11.6 .5-6.9 1.4-13.7 2.8-20.4l-83.2 0 0-64c0-35.3 28.7-64 64-64l32 0 0-16c0-44.2 35.8-80 80-80zM192 288c0-44.2 35.8-80 80-80 34.2 0 63.4 21.4 74.8 51.6l11.4 30 17.1-27.2c8.5-13.5 23.6-22.5 40.7-22.5 26.5 0 48 21.5 48 48l0 32 16 0c35.3 0 64 28.7 64 64l0 64-416 0 0-56c0-28.8 21.8-52.6 49.8-55.7l14.2-1.6 0-46.8zm80-112c-61.9 0-112 50.1-112 112l0 19.3c-36.9 10.5-64 44.4-64 84.7l0 88 480 0 0-96c0-47.6-34.6-87.1-80-94.7 0-44.1-35.4-81.3-80-81.3-19.2 0-36.9 6.8-50.7 18.1-20.1-30.2-54.4-50.1-93.3-50.1z"/></svg>