<svg xmlns="http://www.w3.org/2000/svg" viewBox="0 0 640 512"><!--! Font Awesome Pro 7.0.0 by @fontawesome - https://fontawesome.com License - https://fontawesome.com/license (Commercial License) Copyright 2025 Fonticons, Inc. --><path fill="currentColor" d="M113.5 49.2c-97.4 19.7-64.4 13-90 18.2 13.7 20.7 26 39.2 50.8 76.6-54.9 82.8-36.3 54.7-50.8 76.6 24.5 5 45.9 9.3 88.9 18 .1-11 1.6-21.6 4.3-31.8l-40.3-8.2c18.5-27.8 30.5-46 36.2-54.6-5.7-8.6-17.8-26.8-36.2-54.6 32.7-6.6 54.1-11 64.2-13 2-10.1 6.4-31.5 13-64.2 27.8 18.5 46 30.5 54.6 36.2 8.6-5.7 26.8-17.8 54.6-36.2l2 10c10-3.2 20.5-5.3 31.4-5.9-7.5-36.9-8.6-42.4-11.5-57.1-20.7 13.7-39.2 26-76.6 50.8-82.8-54.9-54.7-36.3-76.6-50.8-4.9 24.3-9.3 46.1-18.2 90zM432.2 64c35.3 0 64 28.6 64 64l0 24 16 0c35.3 0 64 28.7 64 64l0 72-47.9 0 0 16.1 0 0 0 15.9 79.9 0 0-104c0-47.6-34.7-87.2-80.2-94.7-3.4-49.9-45-89.3-95.8-89.3-34.9 0-65.4 18.6-82.2 46.4-13-9.1-28.7-14.4-45.8-14.4-44.2 0-80 35.8-80 80l0 17.6c-36.5 7.4-64 39.7-64 78.4l0 80 82.8 0 37.1-32-87.9 0 0-48c0-26.5 21.5-48 48-48l16 0 0-48c0-26.5 21.5-48 48-48 15.7 0 29.6 7.5 38.4 19.2l19.2 25.5 8.9-30.6c7.8-26.6 32.4-46 61.4-46zM409.1 240l-152.8 131.9 0 44.1 63 0-25.2 112 33.4 0 152.8-131.9 0-44.1-63 0 25.1-112-33.4 0zM291.3 384l106.8-92.2-20.7 92.2 67.9 0-106.8 92.2 20.7-92.2-67.9 0z"/></svg>