<svg xmlns="http://www.w3.org/2000/svg" viewBox="0 0 640 512"><!--! Font Awesome Pro 7.0.0 by @fontawesome - https://fontawesome.com License - https://fontawesome.com/license (Commercial License) Copyright 2025 Fonticons, Inc. --><path fill="currentColor" d="M557.8 16.4c-15.8-7-32.7-12-50.4-14.5-8.9-1.3-18.1-1.9-27.3-1.9-106 0-192 86-192 192 0 2.8 .1 5.6 .2 8.4 5.3 3.6 10.4 7.5 15.2 11.8 5.7-1.5 11.5-2.6 17.5-3.3-.6-5.5-.9-11.2-.9-16.9 0-83.7 64.2-152.3 146-159.4-33.4 33-54 78.8-54 129.4 0 84 56.9 154.7 134.3 175.7-14.7 6.7-30.6 11.2-47.3 13.2 7.3 8.9 13.4 18.8 18.1 29.5 29.8-5.8 57.1-18.6 80.3-36.4 13.9-10.7 26.2-23.3 36.7-37.4-12.8 3.5-26.2 5.4-40.1 5.4-2.7 0-5.3-.1-7.9-.2-79.2-4.1-142.1-69.6-142.1-149.8 0-53.2 27.7-99.9 69.4-126.5 13.5-8.6 28.4-15.1 44.4-19.1zM144.1 320c0-35.3 28.6-64 64-64 29.1 0 53.7 19.4 61.4 46l8.9 30.6 19.2-25.5c8.8-11.7 22.7-19.2 38.4-19.2 26.5 0 48 21.5 48 48l0 48 16 0c26.5 0 48 21.5 48 48l0 48-383.9 0 0-72c0-35.3 28.7-64 64-64l16 0 0-24zm64-96c-50.8 0-92.3 39.4-95.7 89.3-45.5 7.5-80.2 47.1-80.2 94.7l0 104 447.9 0 0-80c0-38.7-27.5-71-64-78.4l0-17.6c0-44.2-35.8-80-80-80-17 0-32.8 5.3-45.8 14.4-16.8-27.8-47.3-46.4-82.2-46.4z"/></svg>