<svg xmlns="http://www.w3.org/2000/svg" viewBox="0 0 576 512"><!--! Font Awesome Pro 7.0.0 by @fontawesome - https://fontawesome.com License - https://fontawesome.com/license (Commercial License) Copyright 2025 Fonticons, Inc. --><path fill="currentColor" d="M335.2-3.2l-4.7-23.2c-4.7 3.1-34.8 23.1-90.5 60-55.6-36.9-85.8-56.9-90.5-60-1.1 5.5-8.3 41-21.5 106.4-65.4 13.2-100.9 20.4-106.4 21.5 3.1 4.7 23.1 34.9 60 90.5-36.9 55.6-56.9 85.8-60 90.5 11.7 2.4 34.8 7 69.5 14.1 4.4-10.4 9.9-20.2 16.5-29.2l-33.1-6.7 39.6-59.8 5.9-8.8-5.9-8.8-39.6-59.8 70.3-14.2 10.4-2.1 2.1-10.4 14.2-70.3 59.8 39.6 8.8 5.9 8.8-5.9 59.8-39.6 14.2 70.3 2.1 10.4 10.4 2.1 70.3 14.2-13.8 20.9c2.7-.2 5.5-.3 8.3-.3 9.7 0 19.1 1.1 28.2 3.1 12.1-18.2 22.2-33.4 30.2-45.6-5.5-1.1-41-8.3-106.4-21.5L335.2-3.2zm-17.3 177c-8.2-35.4-40-61.8-77.9-61.8-44.2 0-80 35.8-80 80 0 10 1.8 19.6 5.2 28.5 9.7-4.3 19.9-7.6 30.6-9.7-2.4-5.8-3.8-12.1-3.8-18.8 0-26.5 21.5-48 48-48s48 21.5 48 48c0 8.1-2 15.8-5.6 22.5 1.3-.5 2.6-.9 3.9-1.3 7.9-15.1 18.6-28.5 31.6-39.4zM224 288c19.1 0 36.3 8.4 48 21.7l9.3 10.6 11.7-8c7.7-5.2 17-8.3 27-8.3 27.2 0 49.6 23.9 47.9 51.1l-.8 12.1 11.4 4c21.8 7.7 37.4 28.5 37.4 52.9l0 56-288 0 0-56c0-19.7 10.1-37 25.5-47l8.6-5.6-1.5-10.1c-5.5-37.7 25-73.3 63.3-73.3zm-95.9 68C108.5 372.2 96 396.6 96 424l0 88 352 0 0-88c0-34.3-19.7-64-48.3-78.5-3.5-40.4-37.9-73.5-79.7-73.5-11.9 0-23.2 2.6-33.3 7.3-16.8-14.5-38.7-23.3-62.7-23.3-54.6 0-98 47-95.9 100zM372.6 232.6c7.8-5.4 17.2-8.6 27.4-8.6 22.3 0 41.2 15.3 46.5 36l3.1 12 54.4 0c22.1 0 40 17.9 40 40l0 40-68.6 0c6.2 9.9 11.1 20.6 14.6 32l86 0 0-72c0-39.8-32.2-72-72-72l-30.7 0c-12.3-28.2-40.5-48-73.3-48-26.3 0-49.6 12.7-64.2 32.2 12.9 .8 25.3 3.7 36.8 8.3z"/></svg>