<svg xmlns="http://www.w3.org/2000/svg" viewBox="0 0 512 512"><!--! Font Awesome Pro 7.0.0 by @fontawesome - https://fontawesome.com License - https://fontawesome.com/license (Commercial License) Copyright 2025 Fonticons, Inc. --><path fill="currentColor" d="M176 32c-44.2 0-80 35.8-80 80l0 46.7-12.8 2.6C54 167.2 32 193.1 32 224l0 64 448 0 0-64c0-35.3-28.7-64-64-64-4.4 0-8.7 .4-12.8 1.3l-19.2 3.9 0-45.2c0-30.9-25.1-56-56-56-19.9 0-37.4 10.4-47.4 26.1l-18 28.5-10.7-32C241.3 54.9 211.3 32 176 32zM64 112c0-61.9 50.1-112 112-112 40.2 0 75.4 21.1 95.1 52.9 15.3-13 35.2-20.9 56.9-20.9 48.6 0 88 39.4 88 88l0 8c53 0 96 43 96 96l0 96-512 0 0-96c0-41.8 26.7-77.4 64-90.5L64 112zM96 392a24 24 0 1 1 48 0 24 24 0 1 1 -48 0zM56 464a24 24 0 1 1 0 48 24 24 0 1 1 0-48zm168-72a24 24 0 1 1 48 0 24 24 0 1 1 -48 0zm-40 72a24 24 0 1 1 0 48 24 24 0 1 1 0-48zm168-72a24 24 0 1 1 48 0 24 24 0 1 1 -48 0zm-40 72a24 24 0 1 1 0 48 24 24 0 1 1 0-48z"/></svg>