<svg xmlns="http://www.w3.org/2000/svg" viewBox="0 0 512 512"><!--! Font Awesome Pro 7.0.0 by @fontawesome - https://fontawesome.com License - https://fontawesome.com/license (Commercial License) Copyright 2025 Fonticons, Inc. --><path fill="currentColor" d="M256.4 46.1l24.3-24.3 4.7-4.7 23.7 0c38.7 0 70.1 31.4 70.1 70.1 0 12.1-2.6 24.1-7.7 35.1l-2.3 4.7-19.8 36.7 35.6-19.9 4.7-2.5c11.2-5.4 23.5-8.2 35.9-8.2 38.5 0 69.7 31.2 69.7 69.7l0 24.1-4.7 4.7-24.3 24.3 29 29 0 24c0 38.6-31.3 69.8-69.8 69.8-12.3 0-24.5-2.7-35.6-8l-4.7-2.4-36.4-20.1 20.1 36.4 2.4 4.7c5.2 11.1 8 23.3 8 35.6 0 38.6-31.3 69.8-69.8 69.8l-24 0-29-29-24.3 24.3-4.7 4.7-24 0c-38.6 0-69.9-31.3-69.9-69.8 0-14.1 3.6-28 10.4-40.3l20.1-36.4-36.4 20.2c-12.3 6.8-26.2 10.4-40.3 10.4-38.6 0-69.8-31.3-69.8-69.8l0-17.3 4.7-11.3 24.3-24.3-29-29 0-24c0-38.6 31.3-69.9 69.8-69.9 14.1 0 28 3.6 40.3 10.4l36.4 20.1-20.1-36.4c-6.8-12.3-10.4-26.2-10.4-40.3 0-38.6 31.3-69.8 69.9-69.8l24 0 29 29zm-52.9 3c-20.9 0-37.9 16.9-37.9 37.8 0 8.7 2.2 17.2 6.4 24.8l47 85-21.7 21.7-85-47c-7.6-4.2-16.1-6.4-24.8-6.4-20.9 0-37.8 17-37.8 37.9l0 10.7 42.2 42.2-42.2 42.2 0 10.8c0 20.9 16.9 37.8 37.8 37.8 8.7 0 17.2-2.2 24.8-6.4l85-47 21.7 21.8-47 85c-4.2 7.6-6.4 16.1-6.4 24.8 0 20.9 17 37.8 37.9 37.8l10.7 0c23.9-23.9 37.9-38 42.2-42.2l42.2 42.2 10.7 0c20.9 0 37.8-17 37.8-37.8 0-6.5-1.2-13-3.6-19l-2.7-5.8-47-85 21.8-21.8 85 47 5.8 2.7c6 2.4 12.5 3.6 19 3.6 20.9 0 37.8-17 37.8-37.8l0-10.7-42.2-42.2 42.2-42.2 0-10.8c0-20.8-16.9-37.7-37.7-37.7-8.7 0-17.4 2.3-25 6.5l-83.6 46.8-21.9-21.5 45.9-85.2 2.7-5.8c2.3-5.9 3.5-12.3 3.5-18.7 0-21.1-17.1-38.1-38.1-38.1l-10.4 0c-23.9 23.9-38 37.9-42.2 42.2l-42.2-42.2-10.7 0z"/></svg>