<svg xmlns="http://www.w3.org/2000/svg" viewBox="0 0 576 512"><!--! Font Awesome Pro 7.0.0 by @fontawesome - https://fontawesome.com License - https://fontawesome.com/license (Commercial License) Copyright 2025 Fonticons, Inc. --><path fill="currentColor" d="M35.6-19.2l-11.3-11.3-22.6 22.6 11.3 11.3 527.8 527.8 11.3 11.3 22.6-22.6-11.3-11.3-96.7-96.7c47.7-43.6 77.4-104.5 77.4-171.9 0-132.5-114.6-240-256-240-66 0-126.1 23.4-171.5 61.8l-81-81zM139.4 84.5c39.3-32.5 91.2-52.5 148.8-52.5 125.7 0 224 95 224 208 0 57.9-25.9 111.2-68 149.3L139.4 84.5zM32.1 240c0 54.4 19.3 104.6 51.8 144.8-27.2 66.6-44.4 109.1-51.8 127.2 14.8-5.1 65.6-22.5 152.5-52.4 31.6 13.1 66.7 20.4 103.5 20.4 39.4 0 76.8-8.4 110.2-23.3l-24.4-24.4c-26.3 10.1-55.2 15.7-85.8 15.7-32.6 0-63.4-6.4-91.2-18l-11.2-4.6-11.5 3.9-85.9 29.5c19.8-48.7 30.6-75.2 32.4-79.5l-11.9-14.7c-28.2-34.9-44.7-78.1-44.7-124.7 0-33.4 8.6-65.2 24-93.5L64.6 123c-20.7 34.6-32.5 74.5-32.5 117z"/></svg>