<svg xmlns="http://www.w3.org/2000/svg" viewBox="0 0 512 512"><!--! Font Awesome Pro 7.0.0 by @fontawesome - https://fontawesome.com License - https://fontawesome.com/license (Commercial License) Copyright 2025 Fonticons, Inc. --><path fill="currentColor" d="M320.5 440.8C285.6 496.6 264.1 531 256 544 247.9 531 226.4 496.6 191.5 440.8 81.4 415.8 0 328.2 0 224 0 100.3 114.6 0 256 0S512 100.3 512 224c0 104.2-81.4 191.8-191.5 216.8zM256 483.6l37.3-59.7 7.1-11.3 13-3C412.1 387.2 480 310.3 480 224 480 121.8 383.9 32 256 32S32 121.8 32 224c0 86.3 67.9 163.2 166.6 185.6l13 3 7.1 11.3 37.3 59.7z"/></svg>