<svg xmlns="http://www.w3.org/2000/svg" viewBox="0 0 512 512"><!--! Font Awesome Pro 7.0.0 by @fontawesome - https://fontawesome.com License - https://fontawesome.com/license (Commercial License) Copyright 2025 Fonticons, Inc. --><path fill="currentColor" d="M320.5 71.2C285.6 15.4 264.1-19 256-32 247.9-19 226.4 15.4 191.5 71.2 81.4 96.2 0 183.8 0 288 0 411.7 114.6 512 256 512S512 411.7 512 288c0-104.2-81.4-191.8-191.5-216.8zM256 28.4l37.3 59.7 7.1 11.3 13 2.9C412.1 124.8 480 201.7 480 288 480 390.2 383.9 480 256 480S32 390.2 32 288c0-86.3 67.9-163.2 166.6-185.6l13-2.9 7.1-11.3 37.3-59.7z"/></svg>