<svg xmlns="http://www.w3.org/2000/svg" viewBox="0 0 512 512"><!--! Font Awesome Pro 7.1.0 by @fontawesome - https://fontawesome.com License - https://fontawesome.com/license (Commercial License) Copyright 2025 Fonticons, Inc. --><path fill="currentColor" d="M256 0C397.4 0 512 107.5 512 240S397.4 480 256 480C219.2 480 184.1 472.7 152.5 459.6 65.6 489.5 14.8 506.9 0 512 7.4 493.9 24.7 451.5 51.8 384.8 19.3 344.6 0 294.4 0 240 0 107.5 114.6 0 256 0zm0 32c-125.7 0-224 95-224 208 0 46.6 16.5 89.8 44.7 124.7l11.9 14.7c-1.7 4.3-12.5 30.7-32.4 79.5l85.9-29.5 11.5-3.9 11.2 4.7c27.8 11.5 58.7 18 91.2 18 125.7 0 224-95 224-208S381.7 32 256 32zM374.3 156.5l-9.4 12.9-128 176-11 15.2-88.6-88.6 22.6-22.6 62.1 62.1 117-160.8 9.4-12.9 25.9 18.8z"/></svg>