<svg xmlns="http://www.w3.org/2000/svg" viewBox="0 0 640 512"><!--! Font Awesome Pro 7.0.0 by @fontawesome - https://fontawesome.com License - https://fontawesome.com/license (Commercial License) Copyright 2025 Fonticons, Inc. --><path fill="currentColor" d="M288 32l0 192-192 0 0-192 192 0zM96 0l-32 0 0 256 256 0 0-256-224 0zM544 96l0 128-128 0 0-128 128 0zM416 64l-32 0 0 192 192 0 0-192-160 0zM608 416c0 35.3-28.7 64-64 64L96 480c-35.3 0-64-28.7-64-64s28.7-64 64-64l448 0c35.3 0 64 28.7 64 64zM96 320c-53 0-96 43-96 96s43 96 96 96l448 0c53 0 96-43 96-96s-43-96-96-96L96 320zm56 96a24 24 0 1 0 -48 0 24 24 0 1 0 48 0zm168 24a24 24 0 1 0 0-48 24 24 0 1 0 0 48zm216-24a24 24 0 1 0 -48 0 24 24 0 1 0 48 0z"/></svg>