<svg xmlns="http://www.w3.org/2000/svg" viewBox="0 0 640 512"><!--! Font Awesome Pro 7.0.0 by @fontawesome - https://fontawesome.com License - https://fontawesome.com/license (Commercial License) Copyright 2025 Fonticons, Inc. --><path fill="currentColor" d="M112 0l-16 0 0 32 112 0 0 128 16 0 240 0 0 48 32 0 0-80-16 0-240 0 0-96 112 0 0-32-240 0zM512 288l0 32-64 0 0-32 64 0zm-96 0l0 32-32 0 0-64-128 0 0 64-32 0 0-64-128 0 0 64c-53 0-96 43-96 96s43 96 96 96l448 0c53 0 96-43 96-96s-43-96-96-96l0-64-128 0 0 32zM128 352l416 0c35.3 0 64 28.7 64 64s-28.7 64-64 64L96 480c-35.3 0-64-28.7-64-64s28.7-64 64-64l32 0zm64-64l0 32-64 0 0-32 64 0zm96 32l0-32 64 0 0 32-64 0zM128 440a24 24 0 1 0 0-48 24 24 0 1 0 0 48zm216-24a24 24 0 1 0 -48 0 24 24 0 1 0 48 0zm168 24a24 24 0 1 0 0-48 24 24 0 1 0 0 48z"/></svg>