<svg xmlns="http://www.w3.org/2000/svg" viewBox="0 0 640 512"><!--! Font Awesome Pro 7.0.0 by @fontawesome - https://fontawesome.com License - https://fontawesome.com/license (Commercial License) Copyright 2025 Fonticons, Inc. --><path fill="currentColor" d="M176.2 96l191.6 0c-1.3 17.7-8.9 34.5-21.6 47.2l-3.6 3.6C323.9 165.5 298.5 176 272 176s-51.9-10.5-70.6-29.3l-3.6-3.6c-12.7-12.7-20.3-29.4-21.6-47.2zm223.7 0l29.8 0c26.3 0 50.8 12.9 65.8 34.5 27.9 40.4 50.8 73.4 68.5 99l0-36.6 24 0 0 71.3 2.8 4.1 17.2 24.8 0 123-47.2 0-48.8-76.7 0-77.2-8.8-4.4c-49.5-24.7-78.5-39.3-87.2-43.6l0 201.9-48 0 0-63.8c0-.2 0-.3 0-.5l0-15.8c0-53-43-96-96-96s-96 43-96 96l0 15.8c0 .2 0 .3 0 .5l0 63.8-48 0 0-272c0-14.8 6.7-28.1 17.3-36.9 3.5 22.1 13.9 42.7 29.9 58.7l3.6 3.6C203.5 194.1 237 208 272 208s68.5-13.9 93.3-38.6l3.6-3.6c18.7-18.7 29.7-43.6 31-69.8zM336 375.8l0 72.2 112 0 0-182.1 32 16 0 66.8 2.5 3.9 56 88 4.7 7.4 96.8 0 0-165-2.8-4.1-17.2-24.8 0-93.3-64.6 0-33.6-48.6C500.9 82 466.5 64 429.7 64L112 64c-44.2 0-80 35.8-80 80l0 88.6C12.9 243.6 0 264.3 0 288l0 32c35.3 0 64-28.7 64-64l0-112c0-26.5 21.5-48 48-48-10 13.4-16 30-16 48l0 304 112 0 0-72.2c6.6 2 14.6 3.8 24 5.3l0 26.9 32 0 0-24.1c5.1 .1 10.9 .1 16 0l0 24.1 32 0 0-26.9c9.4-1.5 17.4-3.3 24-5.3zm0-33.8c-2.1 .8-4.7 1.8-7.7 2.7-11.4 3.5-29.8 7.3-56.3 7.3s-44.9-3.8-56.3-7.3c-3-.9-5.6-1.9-7.7-2.7l0-6c0-35.3 28.7-64 64-64s64 28.7 64 64l0 6zm232-6a16 16 0 1 0 0-32 16 16 0 1 0 0 32z"/></svg>