<svg xmlns="http://www.w3.org/2000/svg" viewBox="0 0 640 512"><!--! Font Awesome Pro 7.0.0 by @fontawesome - https://fontawesome.com License - https://fontawesome.com/license (Commercial License) Copyright 2025 Fonticons, Inc. --><path fill="currentColor" d="M88.3 0L77.5 0c-.7 1.7-7.4 18.4-20 50.1l-1.1 2.9 0 3.1c0 17 7.8 31.3 16.4 42.1l-60.9 75.9-7.5 9.4 6.9 9.8 56 80 8.7 12.4c3-1.9 22.8-14.2 59.2-37l25.2 81.8 0 181.6 144 0 0-96 128 0 0 96 144 0 0-322.5 34.2 58.6 27.6-16.1-56-96-4.6-7.9-1.2 0-305.2 0-44.9-46.1c3.6-7.6 6.1-16.3 6.1-25.9l0-3.1-1.1-2.9-20-50.1-24.7 0-4.5 3.8-37.7 31.7-37.7-31.7-4.5-3.8-13.8 0zm176 160l248 0c10.7 0 21.3 0 32 0l0 160-353.7 0-31-100.7-6.1-19.9c-6.2 3.9-29.1 18.2-68.8 43l-40.4-57.7 62-77.2 9.1-11.4-10.5-10.1c-8.8-8.5-15.3-18-16.4-27.2l8.5-21.2 36.2 30.5 5.9 5 7.6-1.5c.5-.1 1-.2 1.5-.3l4.4-.7 3.4-2.8 35.8-30.1 8.5 21.2c-.6 5.3-3 10.8-7 16.4l-7.7 10.9 9.3 9.5 58.1 59.7 4.7 4.8 6.8 0zm-72 192l352 0 0 128-80 0 0-96-192 0 0 96-80 0 0-128zm80-88a24 24 0 1 0 0-48 24 24 0 1 0 0 48zm216-24a24 24 0 1 0 -48 0 24 24 0 1 0 48 0zm-120 24a24 24 0 1 0 0-48 24 24 0 1 0 0 48z"/></svg>