<svg xmlns="http://www.w3.org/2000/svg" viewBox="0 0 576 512"><!--! Font Awesome Pro 7.0.0 by @fontawesome - https://fontawesome.com License - https://fontawesome.com/license (Commercial License) Copyright 2025 Fonticons, Inc. --><path fill="currentColor" d="M64 448l0-240.4 208 152.5 0-39.7-202.5-148.5 218.5-163.9 181.3 136 53.3 0-234.7-176-256 192 0 320 240 0 0-32-208 0zM544 224l0 256-192 0 0-256 192 0zM352 192l-32 0 0 320 256 0 0-320-224 0zm48 96l-16 0 0 32 128 0 0-32-112 0zm0 64l-16 0 0 32 112 0 0-32-96 0z"/></svg>