<svg xmlns="http://www.w3.org/2000/svg" viewBox="0 0 576 512"><!--! Font Awesome Pro 7.0.0 by @fontawesome - https://fontawesome.com License - https://fontawesome.com/license (Commercial License) Copyright 2025 Fonticons, Inc. --><path fill="currentColor" d="M35.6-19.2L24.3-30.5 1.7-7.9 13 3.4 540.8 531.2 552.1 542.5 574.8 519.9 464.9 410c57-49 94.7-112.9 111.3-154-30-74.7-129.6-224-288-224-58.7 0-109.2 20.5-151.2 50.1L35.6-19.2zM159.9 105c36.7-24.8 79.6-41.1 128.2-41.1 68.4 0 125.4 32.1 170 75 39.8 38.3 67.9 83.7 83.2 117-15.3 33.3-43.4 78.6-83.2 117-5.1 4.9-10.4 9.8-15.9 14.4l-52.9-52.9c16.8-21.7 26.8-48.9 26.8-78.4 0-70.7-57.3-128-128-128-29.6 0-56.8 10-78.4 26.8L159.9 105zM366.4 311.6L232.6 177.7c15.7-11.2 34.9-17.7 55.6-17.7 53 0 96 43 96 96 0 20.7-6.6 39.9-17.7 55.6zM76.8 157.9l-11.3-11.3-22.6 22.6 11.3 11.3 286.3 286.3 11.3 11.3 22.6-22.6-11.3-11.3-286.3-286.3zM27.4 244.3l-11.3-11.3-22.6 22.6 11.3 11.3 196.3 196.3 11.3 11.3 22.6-22.6-11.3-11.3-196.3-196.3z"/></svg>