<svg xmlns="http://www.w3.org/2000/svg" viewBox="0 0 512 512"><!--! Font Awesome Pro 7.0.0 by @fontawesome - https://fontawesome.com License - https://fontawesome.com/license (Commercial License) Copyright 2025 Fonticons, Inc. --><path fill="currentColor" d="M256 0c-17.1 0-33.8 1.7-49.9 4.9l-15.7 3.1 6.2 31.4 15.7-3.1C226.4 33.5 241 32 256 32s29.6 1.5 43.7 4.3l15.7 3.1 6.2-31.4-15.7-3.1C289.8 1.7 273.1 0 256 0zM398.2 43.1l-13.3-8.9-17.8 26.6 13.3 8.9c24.4 16.4 45.5 37.4 61.8 61.8l8.9 13.3 26.6-17.8-8.9-13.3c-18.7-27.9-42.7-51.9-70.6-70.6zM131.6 69.7l13.3-8.9-17.8-26.6-13.3 8.9C85.8 61.8 61.8 85.8 43.1 113.8l-8.9 13.3 26.6 17.8 8.9-13.3c16.4-24.4 37.4-45.5 61.8-61.8zM36.3 212.3l3.1-15.7-31.4-6.2-3.1 15.7C1.7 222.2 0 238.9 0 256s1.7 33.8 4.9 49.9l3.1 15.7 31.4-6.2-3.1-15.7C33.5 285.6 32 271 32 256s1.5-29.6 4.3-43.7zm470.9-6.2l-3.1-15.7-31.4 6.2 3.1 15.7c2.8 14.1 4.3 28.8 4.3 43.7s-1.5 29.6-4.3 43.7l-3.1 15.7 31.4 6.2 3.1-15.7c3.2-16.2 4.9-32.9 4.9-49.9s-1.7-33.8-4.9-49.9zM69.7 380.4l-8.9-13.3-26.6 17.8 8.9 13.3c18.7 27.9 42.7 51.9 70.6 70.6l13.3 8.9 17.8-26.6-13.3-8.9c-24.4-16.4-45.5-37.4-61.8-61.8zm399.2 17.8l8.9-13.3-26.6-17.8-8.9 13.3c-16.4 24.4-37.4 45.5-61.8 61.8l-13.3 8.9 17.8 26.6 13.3-8.9c27.9-18.7 51.9-42.7 70.6-70.6zM212.3 475.7l-15.7-3.1-6.2 31.4 15.7 3.1c16.2 3.2 32.9 4.9 49.9 4.9s33.8-1.7 49.9-4.9l15.7-3.1-6.2-31.4-15.7 3.1C285.6 478.5 271 480 256 480s-29.6-1.5-43.7-4.3zM176 232a24 24 0 1 0 0-48 24 24 0 1 0 0 48zm184-24a24 24 0 1 0 -48 0 24 24 0 1 0 48 0zM184 320l-16 0 0 32 176 0 0-32-160 0z"/></svg>