<svg xmlns="http://www.w3.org/2000/svg" viewBox="0 0 512 512"><!--! Font Awesome Pro 7.0.0 by @fontawesome - https://fontawesome.com License - https://fontawesome.com/license (Commercial License) Copyright 2025 Fonticons, Inc. --><path fill="currentColor" d="M256 32a224 224 0 1 1 0 448 224 224 0 1 1 0-448zm0 480a256 256 0 1 0 0-512 256 256 0 1 0 0 512zM184 208l-80 0 0-16c0-22.1 17.9-40 40-40 .5 0 .9 0 1.4 0-.9 2.5-1.4 5.2-1.4 8 0 13.3 10.7 24 24 24 5.2 0 10.1-1.7 14-4.5 1.3 3.9 2 8.1 2 12.5l0 16zm-40-88c-39.8 0-72 32.2-72 72l0 48 144 0 0-48c0-39.8-32.2-72-72-72zm236.1 53.1c2.5 5.8 3.9 12.2 3.9 18.9l0 16-96 0 0-16c0-26.5 21.5-48 48-48 2 0 3.9 .1 5.8 .3-3.6 4.2-5.8 9.7-5.8 15.7 0 13.3 10.7 24 24 24 8.4 0 15.8-4.3 20.1-10.9zM256 192l0 48 160 0 0-48c0-44.2-35.8-80-80-80s-80 35.8-80 80zm-8 224c-2 0-4 0-6-.1 7.1-27.5 32.2-47.9 62-47.9 14.3 0 27.5 4.7 38.2 12.6-25.3 22.1-58.3 35.4-94.2 35.4zm115.9-59c-16.4-13.1-37.2-21-59.9-21-45.8 0-84.1 32.1-93.7 75-50.7-13.8-90.5-54.8-102.1-107l279.6 0c-4.3 19.5-12.6 37.4-23.9 53zm12.3 35.3c22.4-24 38.1-54.3 44.2-88.2 .9-5 1.6-10.2 2.1-15.3l1.5-16.7-352 0 1.5 16.7c.5 5.2 1.2 10.3 2.1 15.3 14.9 82.6 87 144 172.4 144l7.7 0c48 0 91.4-21.5 120.5-55.8z"/></svg>