<svg xmlns="http://www.w3.org/2000/svg" viewBox="0 0 512 512"><!--! Font Awesome Pro 7.0.0 by @fontawesome - https://fontawesome.com License - https://fontawesome.com/license (Commercial License) Copyright 2025 Fonticons, Inc. --><path fill="currentColor" d="M480 256a224 224 0 1 0 -448 0 224 224 0 1 0 448 0zM0 256a256 256 0 1 1 512 0 256 256 0 1 1 -512 0zM256 400c53.7 0 99.7-33.1 118.7-80l-237.4 0c19 46.9 65 80 118.7 80zM96.8 288l318.4 0c-1.1 11-3.3 21.7-6.5 32-20.4 64.9-81 112-152.7 112S123.7 384.9 103.3 320c-3.2-10.3-5.4-21-6.5-32zm31.7-121.7l-14.3-7.2 14.3-28.6 14.3 7.2 89.2 44.6 0 19.4-9.2 4.6-80 40-14.3 7.2-14.3-28.6c3.4-1.7 25.3-12.6 65.7-32.8l-51.4-25.7zm269.4-7.2c-3.4 1.7-25.3 12.6-65.7 32.8 40.4 20.2 62.3 31.2 65.7 32.8l-14.3 28.6-14.3-7.2-80-40-9.2-4.6 0-19.4 9.2-4.6 80-40 14.3-7.2 14.3 28.6z"/></svg>