<svg xmlns="http://www.w3.org/2000/svg" viewBox="0 0 512 512"><!--! Font Awesome Pro 7.0.0 by @fontawesome - https://fontawesome.com License - https://fontawesome.com/license (Commercial License) Copyright 2025 Fonticons, Inc. --><path fill="currentColor" d="M480 256a224 224 0 1 0 -448 0 224 224 0 1 0 448 0zM0 256a256 256 0 1 1 512 0 256 256 0 1 1 -512 0zm256 94c26.3 0 52.4 4 77.5 11.9-10.6-26.1-38.7-43.9-77.5-43.9-38.1 0-65.4 17.3-76.6 43.6 24.8-7.7 50.6-11.6 76.6-11.6zm0-64c62.2 0 114 38.8 114 100l0 22.7c-15.1-5.4-27.7-9.9-37.8-13.5-24.5-8.7-50.2-13.2-76.2-13.2s-51.8 4.5-76.2 13.2c-10 3.6-22.9 8.2-38.8 13.9l1-23.7c2.5-60.2 51.2-99.4 114-99.4zM222.6 176c-8.2 8.2-14.4 14.4-18.7 18.7-23.6 23.6-53.9 39.2-86.8 44.7l-2.5 .4-15.8 2.6-5.3-31.6 15.8-2.6 2.5-.4c26.3-4.4 50.6-16.9 69.5-35.7 4.3-4.3 10.5-10.5 18.7-18.7L222.6 176zm78.1 11.3L289.4 176 312 153.4c8.2 8.2 14.4 14.4 18.7 18.7 18.9 18.9 43.2 31.4 69.5 35.7l2.5 .4 15.8 2.6-5.3 31.6-15.8-2.6-2.5-.4c-32.9-5.5-63.3-21.1-86.8-44.7l-7.4-7.4z"/></svg>