<svg xmlns="http://www.w3.org/2000/svg" viewBox="0 0 512 512"><!--! Font Awesome Pro 7.0.0 by @fontawesome - https://fontawesome.com License - https://fontawesome.com/license (Commercial License) Copyright 2025 Fonticons, Inc. --><path fill="currentColor" d="M480 256c0 69.1-31.3 130.9-80.5 172-1.4 17-5.8 33.2-12.6 48 74.9-44.7 125.1-126.5 125.1-220 0-141.4-114.6-256-256-256S0 114.6 0 256c0 93.5 50.2 175.4 125.1 220-6.8-14.8-11.2-31-12.6-48-49.2-41.1-80.5-102.9-80.5-172 0-123.7 100.3-224 224-224S480 132.3 480 256zm-59.8-20.9c-2.3-10.5-5.8-20.9-10.3-31l-27.9 16.1-220 127-27.9 16.1c6.5 9 13.7 17.2 21.7 24.4 1.4 1.3 2.8 2.5 4.2 3.7l0 24.5c0 53 43 96 96 96s96-43 96-96l0-12.5c56.5-37.1 82.4-104.9 68.2-168.4zm-29.4 17c5.7 40.6-8.5 82.2-38.8 110.8l0-26.8-106.6 0 145.4-83.9zM264 160c13.3 0 24-10.7 24-24 0-9.7-5.8-18.1-14.1-21.9 4.5-1.4 9.2-2.1 14.1-2.1 26.5 0 48 21.5 48 48s-21.5 48-48 48-48-21.5-48-48c0-4.9 .7-9.7 2.1-14.1 3.8 8.3 12.1 14.1 21.9 14.1zm-96 64a24 24 0 1 0 -48 0 24 24 0 1 0 48 0zm200-64a80 80 0 1 0 -160 0 80 80 0 1 0 160 0zM192 416l0-48 48 0 0 24 32 0 0-24 48 0 0 48c0 35.3-28.7 64-64 64s-64-28.7-64-64z"/></svg>