<svg xmlns="http://www.w3.org/2000/svg" viewBox="0 0 576 512"><!--! Font Awesome Pro 7.0.0 by @fontawesome - https://fontawesome.com License - https://fontawesome.com/license (Commercial License) Copyright 2025 Fonticons, Inc. --><path fill="currentColor" d="M308.8 479.1c-.1 10.7 1.4 21.4 4.5 31.7-8.2 .8-16.6 1.2-25 1.2-7.9 0-15.8-.4-23.6-1.1 3.2-10.3 4.7-21 4.6-31.7 12.2 1 25.8 1.1 39.4-.1zM64.3 256c0 19.3 2.4 37.9 7 55.8-10.4 2.7-20.4 7-29.7 12.9-6.1-21.9-9.3-44.9-9.3-68.7 0-141.4 114.6-256 256-256s256 114.6 256 256c0 23.5-3.2 46.3-9.1 67.9-9.4-5.8-19.4-9.9-29.8-12.5 4.5-17.7 6.9-36.3 6.9-55.4 0-123.7-100.3-224-224-224s-224 100.3-224 224zm88-16l96 0 0 32-112 0 0-32 16 0zm192 0l96 0 0 32-112 0 0-32 16 0zm77.5-72.8l-78.3 39.2-14.3 7.2-14.3-28.6 78.3-39.2 14.3-7.2 14.3 28.6zm-252.6 7.2l-14.3-7.2 14.3-28.6c1.3 .6 27.4 13.7 78.3 39.2l14.3 7.2-14.3 28.6-78.3-39.2zM503.3 389.8c-12.5-12.5-32.8-12.5-45.3 0-3.7 3.7-6.3 8-7.8 12.6l-6 18.3c-8.4-4.6-25.5-14-51.4-28.2 14.2 25.9 23.6 43 28.2 51.4l-18.3 6c-4.6 1.5-8.9 4.1-12.6 7.8-12.5 12.5-12.5 32.8 0 45.3 9.8 9.8 24.5 12 36.5 6.2l10.7-5.1 8 8.7c.5 .5 .9 1 1.4 1.5 18.7 18.7 49.1 18.7 67.9 0s18.7-49.1 0-67.9c-.5-.5-1-1-1.5-1.4l-8.7-8 5.1-10.7c5.7-11.9 3.6-26.6-6.2-36.5zm-67.9-22.6c25-25 65.5-25 90.5 0 16.9 16.9 22.3 40.8 16.5 62.2 26 31.4 24.3 78.1-5.1 107.5S461.2 568 429.8 542c-21.4 5.9-45.4 .4-62.2-16.5-25-25-25-65.5 0-90.5 2.6-2.6 5.4-5 8.4-7-26.9-48.9-48.3-87.8-64.1-116.6 28.8 15.9 67.7 37.2 116.6 64.1 2.1-2.9 4.4-5.7 7-8.4zM120.1 389.8c-12.5-12.5-32.8-12.5-45.3 0-9.8 9.8-12 24.5-6.2 36.5l5.1 10.7-8.7 8c-.5 .5-1 .9-1.5 1.4-18.7 18.7-18.7 49.1 0 67.9s49.1 18.7 67.9 0c.5-.5 1-1 1.4-1.5l8-8.7 10.7 5.1c11.9 5.7 26.6 3.6 36.5-6.2 12.5-12.5 12.5-32.8 0-45.3-3.8-3.8-8.3-6.4-13-7.9L156.5 444c4.6-8.5 13.8-25.6 27.8-51.4-25.1 13.9-41.9 23.2-50.3 27.9l-6.1-18.2c-1.5-4.5-4.1-8.8-7.7-12.4zM52.2 367.2c25-25 65.5-25 90.5 0 2.5 2.5 4.8 5.2 6.8 8 47.9-26.6 86.2-47.8 114.9-63.8-15.6 28.8-36.5 67.5-62.8 116.2 3.1 2.2 6.1 4.7 8.9 7.5 25 25 25 65.5 0 90.5-16.9 16.9-40.8 22.3-62.2 16.5-31.4 26-78.1 24.3-107.5-5.1S9.8 460.8 35.8 429.4c-5.9-21.4-.4-45.4 16.5-62.2z"/></svg>