<svg xmlns="http://www.w3.org/2000/svg" viewBox="0 0 512 512"><!--! Font Awesome Pro 7.0.0 by @fontawesome - https://fontawesome.com License - https://fontawesome.com/license (Commercial License) Copyright 2025 Fonticons, Inc. --><path fill="currentColor" d="M480 256a224 224 0 1 0 -448 0 224 224 0 1 0 448 0zM0 256a256 256 0 1 1 512 0 256 256 0 1 1 -512 0zM184.5 365.9C201.4 386.7 227.1 400 256 400s54.6-13.3 71.5-34.1l24.8 20.2c-22.7 28-57.4 45.9-96.3 45.9s-73.6-17.9-96.3-45.9l24.8-20.2zM344 288l16 0c13.3 0 24-10.7 24-24l0-16 32 0 0 16c0 30.9-25.1 56-56 56l-16 0c-30.9 0-56-25.1-56-56l0-16 32 0 0 16c0 13.3 10.7 24 24 24zM128 264c0 13.3 10.7 24 24 24l16 0c13.3 0 24-10.7 24-24l0-16 32 0 0 16c0 30.9-25.1 56-56 56l-16 0c-30.9 0-56-25.1-56-56l0-16 32 0 0 16zm69.1-136.8l-6.3 2.1c-23.6 7.9-44 23.4-57.8 44.1l-7.6 11.5-26.6-17.8 7.6-11.5c17.8-26.6 43.9-46.6 74.3-56.7l6.3-2.1 10.1 30.4zm124.2 2.1l-6.3-2.1 10.1-30.4 6.3 2.1c30.4 10.1 56.5 30.1 74.3 56.7l7.6 11.5-26.6 17.8-7.6-11.5c-13.8-20.7-34.1-36.3-57.8-44.1z"/></svg>