<svg xmlns="http://www.w3.org/2000/svg" viewBox="0 0 640 512"><!--! Font Awesome Pro 7.0.0 by @fontawesome - https://fontawesome.com License - https://fontawesome.com/license (Commercial License) Copyright 2025 Fonticons, Inc. --><path fill="currentColor" d="M288.1 480c37.2 0 72.2-9.1 103.1-25.1 3.9 10.9 8.1 20.9 12 29.8-34.6 17.5-73.7 27.3-115.1 27.3-141.4 0-256-114.6-256-256s114.6-256 256-256 256 114.6 256 256c0 4.1-.1 8.2-.3 12.3-1.9-1.3-3.9-2.5-5.9-3.7-8.3-4.8-17-8.3-25.8-10.7-1.1-122.8-101-221.9-224-221.9-123.7 0-224 100.3-224 224s100.3 224 224 224zm0-208l16 0c26.5 0 48 21.5 48 48 0 12.3-4.6 23.5-12.2 32 7.6 8.5 12.2 19.7 12.2 32 0 26.5-21.5 48-48 48l-32 0 0-32 32 0c8.8 0 16-7.2 16-16s-7.2-16-16-16l-32 0 0-32 32 0c8.8 0 16-7.2 16-16s-7.2-16-16-16l-32 0 0-32 16 0zm-80-88a24 24 0 1 1 0 48 24 24 0 1 1 0-48zm152 8c-13.3 0-24 10.7-24 24l0 16-32 0 0-16c0-30.9 25.1-56 56-56l16 0c30.9 0 56 25.1 56 56l0 16-32 0 0-16c0-13.3-10.7-24-24-24l-16 0zm89.2 286.1c-5.3-9.7-12.1-23.4-17.8-39-11-29.9-20.3-72.4-.4-106.8 17.7-30.6 56.8-41.1 87.4-23.4l2.5 1.5c14.5 8.4 25.3 21.8 30.3 37.7 16.3-3.6 33.3-.9 47.8 7.4l2.5 1.5c30.6 17.7 41.1 56.8 23.4 87.4-19.9 34.4-61.3 47.6-92.7 53-16.4 2.8-31.6 3.8-42.7 4.1-8.9 .2-17.7-.1-26.6-.6-4.9-7.4-9.6-14.9-13.8-22.7zm133.8-95c-8-4.6-17.5-5.9-26.5-3.5l-27.9 7.5-7.5-27.9c-2.4-8.9-8.2-16.6-16.3-21.2l-2.5-1.5c-15.3-8.8-34.9-3.6-43.7 11.7-12.1 21-7.8 51.1 2.7 79.8 5 13.7 11.1 25.9 15.9 34.7 1.4 2.6 2.7 4.8 3.8 6.7 2.2 0 4.8 0 7.7-.1 10-.2 23.6-1.1 38-3.6 30.1-5.2 58.3-16.5 70.4-37.5 8.8-15.3 3.6-34.9-11.7-43.7l-2.5-1.5z"/></svg>