<svg xmlns="http://www.w3.org/2000/svg" viewBox="0 0 512 512"><!--! Font Awesome Pro 7.0.0 by @fontawesome - https://fontawesome.com License - https://fontawesome.com/license (Commercial License) Copyright 2025 Fonticons, Inc. --><path fill="currentColor" d="M480 256a224 224 0 1 0 -448 0 224 224 0 1 0 448 0zM0 256a256 256 0 1 1 512 0 256 256 0 1 1 -512 0zm256 96c-42.6 0-80.3 20.8-103.6 52.8L126.5 386c29.1-40 76.2-66 129.5-66s100.5 26 129.5 66l-25.9 18.8C336.3 372.8 298.6 352 256 352zM152 208a24 24 0 1 1 48 0 24 24 0 1 1 -48 0zm184-24a24 24 0 1 1 0 48 24 24 0 1 1 0-48z"/></svg>