<svg xmlns="http://www.w3.org/2000/svg" viewBox="0 0 576 512"><!--! Font Awesome Pro 7.0.0 by @fontawesome - https://fontawesome.com License - https://fontawesome.com/license (Commercial License) Copyright 2025 Fonticons, Inc. --><path fill="currentColor" d="M512 256c0 20.7-2.8 40.8-8.1 59.9 9.9 4.9 19.5 10.3 28.6 16.2 7.5-24 11.5-49.6 11.5-76.1 0-141.4-114.6-256-256-256S32 114.6 32 256 146.6 512 288 512c40.2 0 78.3-9.3 112.2-25.8-.1-2-.2-4.1-.2-6.2 0-10.1-.1-19.9-1.3-29.2-32.7 18.6-70.5 29.2-110.7 29.2-123.7 0-224-100.3-224-224S164.3 32 288 32 512 132.3 512 256zM288 336c-38.9 0-73.6 17.9-96.3 45.9l24.8 20.2c16.9-20.8 42.6-34.1 71.5-34.1 20 0 38.5 6.4 53.6 17.2 4.2-21.8 6.4-33.1 6.5-33.7-17.8-9.9-38.3-15.5-60.1-15.5zm64-88l0-16-32 0 0 16c0 30.9 25.1 56 56 56l16 0c30.9 0 56-25.1 56-56l0-16-32 0 0 16c0 13.3-10.7 24-24 24l-16 0c-13.3 0-24-10.7-24-24zM184 272c-13.3 0-24-10.7-24-24l0-16-32 0 0 16c0 30.9 25.1 56 56 56l16 0c30.9 0 56-25.1 56-56l0-16-32 0 0 16c0 13.3-10.7 24-24 24l-16 0zm216 64l-5.9 30.9c26.5 10.6 39.8 30.2 46.7 51.7 7.1 22.1 7.2 45.3 7.2 61.5 0 35.3 28.7 64 64 64s64-28.7 64-64c0-48.1-33.5-84.3-69.3-107.4-35.9-23.2-78.9-36.6-106.7-36.6zm71.2 72.7c-2.7-8.4-6.3-16.8-11-25 9.7 4.3 19.6 9.6 29.1 15.7 32.2 20.8 54.7 48.6 54.7 80.6 0 17.7-14.3 32-32 32s-32-14.3-32-32l0-.5c0-15.9 0-43.6-8.8-70.8z"/></svg>