<svg xmlns="http://www.w3.org/2000/svg" viewBox="0 0 640 512"><!--! Font Awesome Pro 7.0.0 by @fontawesome - https://fontawesome.com License - https://fontawesome.com/license (Commercial License) Copyright 2025 Fonticons, Inc. --><path fill="currentColor" d="M544.2 262.7l-100 100c1.9 2.4 3.8 4.8 5.6 7.3l-25.9 18.8c-23.3-32.1-61-52.8-103.6-52.8s-80.3 20.8-103.6 52.8L190.7 370c29.1-40 76.2-66 129.5-66 3.1 0 6.1 .1 9.1 .3L401.7 232c-.5 0-.9 0-1.4 0-13.3 0-24-10.7-24-24s10.7-24 24-24 24 10.7 24 24c0 .5 0 .9 0 1.4l80.5-80.5c-40.4-58.5-108-96.9-184.5-96.9-123.7 0-224 100.3-224 224s100.3 224 224 224c121.5 0 220.3-96.7 223.9-217.3zm31-31c.7 8 1.1 16.1 1.1 24.2 0 141.4-114.6 256-256 256S64.3 397.4 64.3 256 178.9 0 320.3 0c86 0 162.1 42.4 208.5 107.4 23.5-14.1 54.5-11 74.8 9.2 23.9 23.9 23.9 62.7 0 86.6l-28.4 28.4zM421.5 340.1L457.6 304c-8.7-8.7-16.7-16.7-24-24l22.6-22.6c7.3 7.3 15.3 15.3 24 24L505.6 256c-8.7-8.7-16.7-16.7-24-24l22.6-22.6c7.3 7.3 15.3 15.3 24 24L553.6 208c-8.7-8.7-16.7-16.7-24-24l22.6-22.6c7.3 7.3 15.3 15.3 24 24l4.7-4.7c11.4-11.4 11.4-29.9 0-41.4s-29.9-11.4-41.4 0L367.7 311.2c19.9 6.2 38.1 16.1 53.8 29zM240.3 184a24 24 0 1 1 0 48 24 24 0 1 1 0-48z"/></svg>