<svg xmlns="http://www.w3.org/2000/svg" viewBox="0 0 512 512"><!--! Font Awesome Pro 7.0.0 by @fontawesome - https://fontawesome.com License - https://fontawesome.com/license (Commercial License) Copyright 2025 Fonticons, Inc. --><path fill="currentColor" d="M448 128c-18.7 0-32-13.3-32-32 0-8 3.3-17.7 11.1-29.5 5.8-8.7 13.1-17.1 20.9-25.2 7.8 8.1 15.1 16.5 20.9 25.2 7.8 11.7 11.1 21.5 11.1 29.5 0 18.7-13.3 32-32 32zM448-2.5c-4.9 4.2-9.7 8.4-14.3 12.9-22.3 21.8-49.7 52.2-49.7 85.6 0 36.4 27.6 64 64 64s64-27.6 64-64c0-33.4-27.3-63.8-49.7-85.6-4.6-4.5-9.4-8.7-14.3-12.9zM362.1 22.9C329.8 8.2 293.8 0 256 0 114.6 0 0 114.6 0 256S114.6 512 256 512 512 397.4 512 256c0-21.8-2.7-42.9-7.8-63.1-9.2 5.4-19.3 9.5-30 12 3.8 16.4 5.8 33.5 5.8 51.1 0 123.7-100.3 224-224 224S32 379.7 32 256 132.3 32 256 32c32.1 0 62.7 6.8 90.3 18.9 1.4-3.1 2.8-5.9 4.2-8.6 3.6-7 7.7-13.5 11.6-19.4zM176 186c17.7 0 32 14.3 32 32l0 16 32 0 0-16c0-35.3-28.7-64-64-64s-64 28.7-64 64l0 16 32 0 0-16c0-17.7 14.3-32 32-32zM364.5 340c-22.6 36-62.8 60-108.5 60s-85.8-24-108.5-60c34 7.8 70.5 12 108.5 12s74.5-4.2 108.5-12zm15.8-37.2C342.6 313.8 300.5 320 256 320s-86.6-6.2-124.3-17.2c-12-3.5-23.6-7.5-34.6-12 1.5 13 4.6 25.6 9.1 37.5 22.8 60.6 81.3 103.7 149.8 103.7s127-43.1 149.8-103.7c4.5-11.9 7.6-24.5 9.1-37.5-11 4.5-22.6 8.5-34.6 12zM304 218c0-17.7 14.3-32 32-32s32 14.3 32 32l0 16 32 0 0-16c0-35.3-28.7-64-64-64s-64 28.7-64 64l0 16 32 0 0-16z"/></svg>