<svg xmlns="http://www.w3.org/2000/svg" viewBox="0 0 512 512"><!--! Font Awesome Pro 7.0.0 by @fontawesome - https://fontawesome.com License - https://fontawesome.com/license (Commercial License) Copyright 2025 Fonticons, Inc. --><path fill="currentColor" d="M32 448l64 0 0-324.8-32-40-32 40 0 324.8zM0 112c32.8-41.1 54.2-67.7 64-80 9.8 12.3 31.2 39 64 80l0 48 64 0 0-48c32.8-41.1 54.2-67.7 64-80 9.8 12.3 31.2 39 64 80l0 48 64 0 0-48c32.8-41.1 54.2-67.7 64-80 9.8 12.3 31.2 39 64 80l0 368-128 0 0-96-64 0 0 96-128 0 0-96-64 0 0 96-128 0 0-368zM384 352l0-160-64 0 0 160 64 0zM128 192l0 160 64 0 0-160-64 0zm96 256l64 0 0-324.8-32-40-32 40 0 324.8zm192 0l64 0 0-324.8-32-40-32 40 0 324.8z"/></svg>