<svg xmlns="http://www.w3.org/2000/svg" viewBox="0 0 640 512"><!--! Font Awesome Pro 7.0.0 by @fontawesome - https://fontawesome.com License - https://fontawesome.com/license (Commercial License) Copyright 2025 Fonticons, Inc. --><path fill="currentColor" d="M384.1 32l0 32-128 0 0-32 128 0zm32 32l0-64-192 0 0 64-128 0 0 256 41.6 76.2 29.9-12-39.5-72.4 0-23.8 384 0 0 23.8-39.5 72.4 29.9 12 41.6-76.2 0-256-128 0zm96 192l-384 0 0-160 384 0 0 160zm-313 169l-5.7-2.1-5.7 2.1-121 45.9c-28.4-10.6-45.7-17.1-52-19.5l-11.2 30c5.4 2 24.6 9.2 57.6 21.6l5.6 2.1 5.6-2.1 121-45.9 121 45.9 5.7 2.1 5.7-2.1 121-45.9 121 45.9 5.6 2.1 5.6-2.1c33.1-12.4 52.3-19.6 57.6-21.6l-11.2-30c-6.3 2.4-23.7 8.9-52 19.5l-121-45.9-5.7-2.1-5.7 2.1-121 45.9-121-45.9z"/></svg>