<svg xmlns="http://www.w3.org/2000/svg" viewBox="0 0 576 512"><!--! Font Awesome Pro 7.0.0 by @fontawesome - https://fontawesome.com License - https://fontawesome.com/license (Commercial License) Copyright 2025 Fonticons, Inc. --><path fill="currentColor" d="M224 32l-160 0 0 448 193.4 0c5.2 11.3 11.4 22 18.6 32l-244 0 0-512 224 0 160 160 0 48.7c-11 .9-21.6 2.7-32 5.4l0-22-160 0 0-160zM370.7 160L256 45.3 256 160 370.7 160zM432 512a112 112 0 1 0 0-224 112 112 0 1 0 0 224zm0-256a144 144 0 1 1 0 288 144 144 0 1 1 0-288zm16 192l0 32-32 0 0-32 32 0zm-32-40l0-10.4c4.6-2.1 14.4-6.4 29.2-13 6.6-2.9 10.8-9.4 10.8-16.6 0-13.3-10.7-24-24-24s-24 10.7-24 24l-32 0c0-30.9 25.1-56 56-56s56 25.1 56 56c0 19.8-11.7 37.8-29.8 45.9l-10.2 4.5 0 5.6-32 0 0-16z"/></svg>