<svg xmlns="http://www.w3.org/2000/svg" viewBox="0 0 576 512"><!--! Font Awesome Pro 7.0.0 by @fontawesome - https://fontawesome.com License - https://fontawesome.com/license (Commercial License) Copyright 2025 Fonticons, Inc. --><path fill="currentColor" d="M35.6-19.2l-11.3-11.3-22.6 22.6 11.3 11.3 527.8 527.8 11.3 11.3 22.6-22.6-11.3-11.3-51.3-51.3 0-425.3-425.3 0-51.2-51.2zM118.9 64l41.3 0 0 41.3-41.3-41.3zm73.3 73.3l0-73.3 192 0 0 265.3-192-192zM438.9 384l41.3 0 0 41.3-41.3-41.3zM64.1 122.5l0 357.5 357.5 0-32-32-197.5 0 0-197.5-10.5-10.5-85.5 0 0-85.5-32-32zm96 325.5l-64 0 0-64 64 0 0 64zm0-96l-64 0 0-80 64 0 0 80zm320 0l-64 0 0-80 64 0 0 80zm0-112l-64 0 0-80 64 0 0 80zm0-112l-64 0 0-64 64 0 0 64z"/></svg>