<svg xmlns="http://www.w3.org/2000/svg" viewBox="0 0 640 512"><!--! Font Awesome Pro 7.0.0 by @fontawesome - https://fontawesome.com License - https://fontawesome.com/license (Commercial License) Copyright 2025 Fonticons, Inc. --><path fill="currentColor" d="M441.4 185.4l-9.4 9.4 0 168-48-48 0-120-9.4-9.4-121.4-121.4 309.5 0-121.4 121.4zM464 440l0-232 176-176-464 0 176 176 0 120 112 112zM45.3 128l-45.3 0 176 176 0 120 112 112 0-232 16-16 0-45.3c-30.6 30.6-46.6 46.6-48 48l0 168-48-48 0-120-9.4-9.4-121.4-121.4 158.9 0-32-32-158.9 0z"/></svg>