<svg xmlns="http://www.w3.org/2000/svg" viewBox="0 0 512 512"><!--! Font Awesome Pro 7.0.0 by @fontawesome - https://fontawesome.com License - https://fontawesome.com/license (Commercial License) Copyright 2025 Fonticons, Inc. --><path fill="currentColor" d="M265.4 41.4L224 0c-42.7 26.7-128 102.4-128 192 0 16.8 2.6 33 7.4 48.2 2.8-.2 5.7-.2 8.6-.2 8.9 0 17.7 .7 26.2 2.1-6.6-15.4-10.2-32.3-10.2-50.1 0-34.7 16.7-69.1 41-99.7 16.4-20.6 35.2-38 51.4-50.7 33.7 33.7 56.2 56.2 67.6 67.6 17.1-17.1 28.1-28.1 33-33 51.9 52.1 63 101.6 63 115.8 0 17.8-3.6 34.7-10.2 50.1 8.5-1.4 17.3-2.1 26.2-2.1 2.9 0 5.8 .1 8.6 .2 4.8-15.2 7.4-31.4 7.4-48.2 0-26.7-19.2-96-96-160-4 4-14.7 14.7-32 32L265.4 41.4zM212 213.6c5.5-7.5 11.9-15 19-22.3 8.8-9 17.6-16.9 25-23 7.4 6.1 16.2 13.9 25 23 7.1 7.3 13.5 14.8 19 22.3 16.7 4.3 32.4 11 46.8 19.6-20-57.9-90.8-105-90.8-105s-70.7 47.2-90.8 105c14.4-8.7 30.1-15.3 46.8-19.6zM256 256c-38.1 0-72.2 16.6-95.7 42.9-14.6-7-31-10.9-48.3-10.9-61.9 0-112 50.1-112 112l0 112 512 0 0-112c0-61.9-50.1-112-112-112-17.3 0-33.7 3.9-48.3 10.9-23.4-26.3-57.6-42.9-95.7-42.9zm-78.5 72.8C194.9 304.1 223.6 288 256 288s61.1 16.1 78.5 40.8l8.9 12.6 12.9-8.4c12.5-8.2 27.5-12.9 43.7-12.9 44.2 0 80 35.8 80 80l0 80-448 0 0-80c0-44.2 35.8-80 80-80 16.1 0 31.1 4.8 43.7 12.9l12.9 8.4 8.9-12.6z"/></svg>