<svg xmlns="http://www.w3.org/2000/svg" viewBox="0 0 448 512"><!--! Font Awesome Pro 7.0.0 by @fontawesome - https://fontawesome.com License - https://fontawesome.com/license (Commercial License) Copyright 2025 Fonticons, Inc. --><path fill="currentColor" d="M32 0l-32 0 0 512 32 0 0-120 96.3-24.1c41.1-10.3 84.6-5.5 122.5 13.4 44.2 22.1 95.5 24.8 141.7 7.4L448 368 448 16 393.6 43.2c-46.3 23.2-100.8 23.2-147.1 0-35.1-17.6-75.4-22-113.5-12.5L32 56 32 0zm0 89l96-24 0 68.6-96 20.9 0-65.4zm0 98.2l96-20.9 0 71.3-96 20.9 0-71.3zm128-27.8c19.6-4.3 39.5-4.5 58.8 1.2 23 6.8 45.9 14.1 69.2 20.3l0 70.7-60.1-17.7c-22.1-6.5-45.3-7.6-67.9-3.3l0-71.3zm160 26.9c17.5 1.3 35.2-.1 52.5-4l43.5-10 0 71.2-50.7 11.7c-14.9 3.4-30.2 4.5-45.3 3.1l0-71.9zm-32 98.7l0 77c-7.8-2.4-15.5-5.4-22.9-9.1-32.7-16.4-69-23.8-105.1-21.8l0-67.6c19.6-4.3 39.5-4.5 58.8 1.2 23 6.8 45.9 14.1 69.2 20.3zm32 82.9l0-77.6c17.5 1.3 35.2-.1 52.5-4l43.5-10 0 69.7-34.7 13c-19.8 7.4-40.7 10.4-61.3 8.9zm0-213.7l0-61.5c34.1 0 65.8-9.7 96-24.8l0 71.5-50.7 11.7c-14.9 3.4-30.2 4.5-45.3 3.1zM288 90l0 57.6-60.1-17.7c-22.1-6.5-45.3-7.6-67.9-3.3l0-68.2c24.7-2.4 49.7 2.2 72.1 13.4 17.8 8.9 36.7 15 55.9 18.1zM32 291.2l96-20.9 0 64.9C95.8 342 63.9 351 32 359l0-67.9z"/></svg>