<svg xmlns="http://www.w3.org/2000/svg" viewBox="0 0 576 512"><!--! Font Awesome Pro 7.0.0 by @fontawesome - https://fontawesome.com License - https://fontawesome.com/license (Commercial License) Copyright 2025 Fonticons, Inc. --><path fill="currentColor" d="M64 64l0 384 182 0c2.9 11.1 6.7 21.8 11.4 32l-225.4 0 0-448 333.3 0 9.4 9.4 105.4 105.4 0 67.3c-10.4-2.7-21-4.5-32-5.4l0-48.7-96-96 0 144-224 0 0-144-64 0zM256 256c13.7 0 26.4 4.3 36.9 11.7-7.4 7.8-14.1 16.1-20.1 25-4.9-3-10.6-4.7-16.7-4.7-17.7 0-32 14.3-32 32 0 14.3 9.4 26.5 22.4 30.5-2.7 10.2-4.6 20.8-5.6 31.6-28-6.8-48.8-32.1-48.8-62.2 0-35.3 28.7-64 64-64zM160 64l0 112 160 0 0-112-160 0zM544 400a112 112 0 1 0 -224 0 112 112 0 1 0 224 0zm-256 0a144 144 0 1 1 288 0 144 144 0 1 1 -288 0zm195.3-28.7L454.6 400c22 22 35.4 35.4 40 40L472 462.6c-4.6-4.6-18-18-40-40-22 22-35.4 35.4-40 40L369.4 440c4.6-4.6 18-18 40-40-22-22-35.4-35.4-40-40L392 337.4c4.6 4.6 18 18 40 40 22-22 35.4-35.4 40-40l22.6 22.6-11.3 11.3z"/></svg>