<svg xmlns="http://www.w3.org/2000/svg" viewBox="0 0 576 512"><!--! Font Awesome Pro 7.0.0 by @fontawesome - https://fontawesome.com License - https://fontawesome.com/license (Commercial License) Copyright 2025 Fonticons, Inc. --><path fill="currentColor" d="M464.4-27.9L441.8-5.3 27.1 409.4 4.5 432c8.4 8.4 36.8 36.8 85.3 85.3l22.6 22.6 22.6-22.6 414.6-414.6 22.6-22.6c-8.4-8.4-36.8-36.8-85.3-85.3L464.4-27.9zm-284 329.3l284-284 62.6 62.6-284 284-62.6-62.6zM157.8 324l62.6 62.6-108 108-62.6-62.6 108-108zm154.6-76a16 16 0 1 0 -32 0 16 16 0 1 0 32 0zm-176 176a16 16 0 1 0 0-32 16 16 0 1 0 0 32zm240-240a16 16 0 1 0 -32 0 16 16 0 1 0 32 0zm48-48a16 16 0 1 0 0-32 16 16 0 1 0 0 32z"/></svg>