<svg xmlns="http://www.w3.org/2000/svg" viewBox="0 0 512 512"><!--! Font Awesome Pro 7.0.0 by @fontawesome - https://fontawesome.com License - https://fontawesome.com/license (Commercial License) Copyright 2025 Fonticons, Inc. --><path fill="currentColor" d="M224 32l64 48 224 0 0 368-512 0 0-416 224 0zm64 80l-10.7 0-8.5-6.4-55.5-41.6-181.3 0 0 352 448 0 0-304-192 0zM248 306.7a58.7 58.7 0 1 0 0-117.3 58.7 58.7 0 1 0 0 117.3zm0 29.3c-48.6 0-88-39.4-88-88s39.4-88 88-88 88 39.4 88 88c0 18.5-5.7 35.7-15.5 49.9 33.8 33.8 51.8 51.8 54.1 54.1L352 374.6c-2.3-2.3-20.3-20.3-54.1-54.1-14.2 9.8-31.4 15.5-49.9 15.5z"/></svg>