<svg xmlns="http://www.w3.org/2000/svg" viewBox="0 0 576 512"><!--! Font Awesome Pro 7.0.0 by @fontawesome - https://fontawesome.com License - https://fontawesome.com/license (Commercial License) Copyright 2025 Fonticons, Inc. --><path fill="currentColor" d="M438.3 64l105.7 0 0 128-224 0 0-160 70.3 0 39.9 26.6 8.1 5.4zM544 32l-96 0-48-32-112 0 0 224 288 0 0-192-32 0zM438.3 352l105.7 0 0 128-224 0 0-160 70.3 0 39.9 26.6 8.1 5.4zM544 320l-96 0-48-32-112 0 0 224 288 0 0-192-32 0zM32 24l0-16-32 0 0 440 240 0 0-32-208 0 0-256 208 0 0-32-208 0 0-104z"/></svg>