<svg xmlns="http://www.w3.org/2000/svg" viewBox="0 0 512 512"><!--! Font Awesome Pro 7.0.0 by @fontawesome - https://fontawesome.com License - https://fontawesome.com/license (Commercial License) Copyright 2025 Fonticons, Inc. --><path fill="currentColor" d="M64 32a32 32 0 1 1 0 64 32 32 0 1 1 0-64zm55.4 64c5.4-9.4 8.6-20.3 8.6-32 0-35.3-28.7-64-64-64S0 28.7 0 64c0 23.7 12.9 44.4 32 55.4l0 392.6 32 0 0-64 432 0 0-32-64-144 64-144 0-32-376.6 0zM461 416l-397 0 0-288 397 0-58.2 131-5.8 13 5.8 13 58.2 131z"/></svg>