<svg xmlns="http://www.w3.org/2000/svg" viewBox="0 0 384 512"><!--! Font Awesome Pro 7.0.0 by @fontawesome - https://fontawesome.com License - https://fontawesome.com/license (Commercial License) Copyright 2025 Fonticons, Inc. --><path fill="currentColor" d="M112-16l0 221.1c9.8 4.8 20.6 9 32 12.2l0-233.2-32 0zm80 240c5.4 0 10.7-.3 16-.8l0-191.2-32 0 0 191.2c5.3 .5 10.6 .8 16 .8zm48-6.8c11.4-3.2 22.2-7.3 32-12.2l0-205.1-32 0 0 217.2zM336 160l0-128-32 0 0 128 32 0zM48 160l32 0 0-128-32 0 0 128zM29.1 198.7l-28.6 13.1 64 256 3 12.1 249 0 3-12.1 64-256-28.6-13.1C324.6 241.6 256.3 272 192 272S59.4 241.6 29.1 198.7zM92.5 448L45.1 258.3c85.9 60.5 208 60.5 293.9 0l-47.4 189.7-199 0z"/></svg>