<svg xmlns="http://www.w3.org/2000/svg" viewBox="0 0 512 512"><!--! Font Awesome Pro 7.0.0 by @fontawesome - https://fontawesome.com License - https://fontawesome.com/license (Commercial License) Copyright 2025 Fonticons, Inc. --><path fill="currentColor" d="M144 184c0-83.5 67.3-151.3 150.7-152-31.8 30.1-52.7 69.6-59.9 112.2l-5.3 31.7 28.5-14.8c21-10.9 44.8-17.1 70.1-17.1 83.5 0 151.3 67.3 152 150.7-30.1-31.8-69.6-52.7-112.2-59.9l-31.7-5.3 14.8 28.5c10.9 21 17.1 44.8 17.1 70.1 0 83.5-67.3 151.3-150.7 152 31.8-30.1 52.7-69.6 59.9-112.2l5.3-31.7-28.5 14.8c-20.9 10.9-44.8 17.1-70.1 17.1-83.5 0-151.3-67.3-152-150.7 30.1 31.8 69.6 52.7 112.2 59.9l31.7 5.3-14.8-28.5C150.2 233.1 144 209.3 144 184zM296 0c-101.6 0-184 82.4-184 184 0 18.7 2.8 36.8 8 53.9-25.4-9.2-48.4-24.5-67-44.9-16.4-18-34.1-37.5-53.1-58.4L0 216c0 101.6 82.4 184 184 184 18.7 0 36.8-2.8 53.9-8-9.2 25.4-24.5 48.4-44.9 67-18 16.4-37.5 34.1-58.4 53.1l81.4 0c101.6 0 184-82.4 184-184 0-18.7-2.8-36.8-8-53.9 25.4 9.2 48.4 24.5 67 44.9 16.4 18 34.1 37.5 53.1 58.4l0-81.4c0-101.6-82.4-184-184-184-18.7 0-36.8 2.8-53.9 8 9.2-25.4 24.5-48.4 44.9-67 18-16.4 37.5-34.1 58.4-53.1L296 0zM233.4 310.6L256 333.3 333.3 256c-32.4-32.4-72.2-72.2-77.3-77.3-32.4 32.4-72.2 72.2-77.3 77.3 13.5 13.5 31.7 31.7 54.6 54.6zm32-32L256 288c-13.4-13.4-29.9-29.9-32-32l32-32c13.4 13.4 29.9 29.9 32 32l-22.6 22.6z"/></svg>