<svg xmlns="http://www.w3.org/2000/svg" viewBox="0 0 576 512"><!--! Font Awesome Pro 7.0.0 by @fontawesome - https://fontawesome.com License - https://fontawesome.com/license (Commercial License) Copyright 2025 Fonticons, Inc. --><path fill="currentColor" d="M32 64l0 384 384 0 0-384-384 0zm416 0l0 192 32 0 0-128 96 0 0 96-64 0 0 64-64 0 0 192-448 0 0-448 448 0 0 32zM96 128l0 128 256 0 0-128-256 0zM64 96l320 0 0 192-320 0 0-192zm448 96l32 0 0-32-32 0 0 32zM128 336l0 16 32 0 0 32-32 0 0 32-32 0 0-32-32 0 0-32 32 0 0-32 32 0 0 16zm96 24a24 24 0 1 1 48 0 24 24 0 1 1 -48 0zm104-24a24 24 0 1 1 0 48 24 24 0 1 1 0-48z"/></svg>