<svg xmlns="http://www.w3.org/2000/svg" viewBox="0 0 512 512"><!--! Font Awesome Pro 7.0.0 by @fontawesome - https://fontawesome.com License - https://fontawesome.com/license (Commercial License) Copyright 2025 Fonticons, Inc. --><path fill="currentColor" d="M156.9 155.5L72.7 222.8c-25.7 20.6-40.7 51.8-40.7 84.7 0 56 42.4 102.1 96.9 107.9-29.9-25.4-48.9-63.2-48.9-105.4 0-38.8 16.5-75.9 45.3-101.8 15.7-14.1 26.6-32.5 31.6-52.7zM224 416c61.8 0 112-50.4 112-112.3 0-26.9-9.6-53-27.1-73.3l-17.1-19.9c-33.5-39-51.9-88.8-51.9-140.2l0-38.2-48 0 0 98.2c0 38.8-16.5 75.8-45.3 101.7-22.1 19.9-34.7 48.3-34.7 78 0 58.5 47.4 106.1 105.8 106.1l6.2 0zM272 70.2c0 43.8 15.7 86.1 44.1 119.3l17.1 19.9c22.5 26.2 34.8 59.7 34.8 94.2 0 45.3-20.9 85.8-53.7 112.3l57.2 0c59.9 0 108.5-48.6 108.5-108.5 0-33-15-64.1-40.7-84.7l-107.3-85.8-12-9.6 0-95.4-48 0 0 38.2zM208 448l-32 0 0 64-32 0 0-64-3.5 0C62.9 448 0 385.1 0 307.5 0 264.8 19.4 224.5 52.7 197.8L160 112 160 0 352 0 352 112 459.3 197.8c33.3 26.7 52.7 67 52.7 109.7 0 77.6-62.9 140.5-140.5 140.5l-3.5 0 0 64-32 0 0-64-32 0 0 64-32 0 0-64-32 0 0 64-32 0 0-64z"/></svg>