<svg xmlns="http://www.w3.org/2000/svg" viewBox="0 0 576 512"><!--! Font Awesome Pro 7.0.0 by @fontawesome - https://fontawesome.com License - https://fontawesome.com/license (Commercial License) Copyright 2025 Fonticons, Inc. --><path fill="currentColor" d="M35.6-19.2l-11.3-11.3-22.6 22.6 11.3 11.3 527.8 527.8 11.3 11.3 22.6-22.6-71.9-71.9 41.3 0 0-319-5.2-4.8-96-88-11.8-10.8-21.6 23.6c5.4 4.9 18.2 16.7 38.6 35.4l0 139.6 64 0 0 192-41.3 0-118.7-118.7 0-297.3-288 0 0 9.3-28.5-28.5zM96.1 41.3l0-9.3 224 0 0 233.3-224-224zM64.1 480l-16 0 0 32 320 0 0-32-16 0 0-69.5-32-32 0 101.5-224 0 0-325.5-32-32 0 357.5zm416-366.3l32 29.3 0 49-32 0 0-78.3z"/></svg>