<svg xmlns="http://www.w3.org/2000/svg" viewBox="0 0 576 512"><!--! Font Awesome Pro 7.0.0 by @fontawesome - https://fontawesome.com License - https://fontawesome.com/license (Commercial License) Copyright 2025 Fonticons, Inc. --><path fill="currentColor" d="M158.3-38.2c0 0 24.8 6.6 74.2 19.9l12.4 3.3c-.2 3.6-1 22.1-2.4 55.6 1.7 1.6 3.4 3.3 5 5 33.5-1.4 52.1-2.2 55.6-2.4l3.3 12.4 16.6 61.8 3.3 12.4c-3.1 1.6-19.6 10.2-49.4 25.7-.5 2.3-1.2 4.6-1.8 6.8 18 28.3 28 44 29.9 47l-9.1 9.1-45.3 45.3-9.1 9.1c-3-1.9-18.7-11.9-47-29.9-2.3 .7-4.5 1.3-6.9 1.8-15.5 29.7-24.1 46.2-25.7 49.4l-12.4-3.3-61.8-16.6-12.4-3.3c.2-3.6 1-22.1 2.4-55.6-1.7-1.6-3.4-3.3-5-5-33.5 1.4-52.1 2.2-55.6 2.4 0 0-6.6-24.8-19.9-74.2L-6 126.1 43.4 100.4c.5-2.3 1.2-4.6 1.8-6.8-18-28.3-28-44-29.9-47l54.3-54.3 9.1-9.1c3 1.9 18.7 11.9 47 29.9 2.3-.7 4.5-1.3 6.9-1.8 15.5-29.7 24.1-46.2 25.7-49.4zM174.8-.6C160.9 26 153.9 39.5 153.7 39.8l-7.9 1.3c-5.7 .9-11.3 2.4-16.6 4.5l-7.5 2.8c-.3-.2-13.2-8.4-38.5-24.5L56.1 51C72.2 76.4 80.4 89.2 80.6 89.5L77.8 97c-1 2.7-1.9 5.4-2.6 8.2s-1.4 5.6-1.8 8.4L72 121.5c-.3 .2-13.8 7.2-40.5 21.1l9.9 37 45.6-2 5.1 6.2c3.6 4.4 7.7 8.5 12.2 12.2l6.2 5.1c0 .4-.7 15.6-2 45.6l37 9.9c13.9-26.6 20.9-40.1 21.1-40.4l7.9-1.3c5.7-.9 11.3-2.4 16.6-4.5l7.5-2.8c.3 .2 13.2 8.4 38.5 24.5L264.2 205c-16.1-25.3-24.3-38.2-24.5-38.5l2.8-7.5c1-2.7 1.9-5.4 2.6-8.2s1.4-5.6 1.8-8.4l1.3-7.9c.3-.2 13.8-7.2 40.5-21.1l-9.9-37c-30 1.3-45.2 2-45.6 2l-5.1-6.2c-3.6-4.4-7.7-8.5-12.2-12.2l-6.2-5.1c0-.4 .7-15.6 2-45.6l-37-9.9zM145.7 182.1a56 56 0 1 1 29-108.2 56 56 0 1 1 -29 108.2zm37.7-47.9a24 24 0 1 0 -46.4-12.4 24 24 0 1 0 46.4 12.4zM331.4 241.1l12.4-3.3 61.8-16.6 12.4-3.3c1.6 3.2 10.2 19.6 25.7 49.4 2.3 .6 4.6 1.2 6.9 1.8 28.3-18 44-28 47-29.9l9.1 9.1 45.3 45.3 9.1 9.1c-1.9 3-11.9 18.7-29.9 47 .7 2.2 1.3 4.5 1.8 6.8 29.8 15.5 46.2 24.1 49.4 25.7l-3.3 12.4-16.6 61.8-3.3 12.4c-3.6-.2-22.1-1-55.6-2.4-1.6 1.7-3.3 3.4-5 5 1.4 33.5 2.2 52 2.4 55.6l-12.4 3.3-61.8 16.6-12.4 3.3c-1.6-3.2-10.2-19.6-25.7-49.4-2.3-.5-4.6-1.2-6.9-1.8-28.3 18-44 28-47 29.9l-9.1-9.1-45.3-45.3-9.1-9.1c1.9-3 11.9-18.7 29.9-47-.3-1.1-.7-2.3-1-3.4s-.6-2.3-.9-3.4c-29.8-15.5-46.2-24.1-49.4-25.7l3.3-12.4 16.6-61.8 3.3-12.4c3.6 .2 22.1 1 55.6 2.4 1.6-1.7 3.3-3.4 5-5-1.4-33.5-2.2-52-2.4-55.6zm33.1 24.3l1.6 37.6 .3 8-6.2 5.1c-4.5 3.7-8.5 7.8-12.2 12.2l-5.1 6.2-8-.3-37.6-1.6-9.9 37 33.4 17.4 7.1 3.7 1.3 7.9c.5 2.8 1.1 5.6 1.8 8.4s1.6 5.6 2.6 8.2l2.8 7.5-4.3 6.7-20.2 31.8 27.1 27.1c25.3-16.1 38.2-24.3 38.5-24.5l7.5 2.8c5.4 2 10.9 3.5 16.6 4.5l7.9 1.3 3.7 7.1 17.4 33.4 37-9.9-1.6-37.6-.3-8 6.2-5.1c4.5-3.7 8.5-7.8 12.2-12.2l5.1-6.2 8 .3 37.6 1.6 9.9-37-33.4-17.4-7.1-3.7-1.3-7.9c-.5-2.8-1.1-5.6-1.8-8.4s-1.6-5.6-2.6-8.2l-2.8-7.5c.2-.3 8.4-13.2 24.5-38.5l-27.1-27.1c-25.3 16.1-38.2 24.3-38.5 24.5l-7.5-2.8c-5.4-2-10.9-3.5-16.6-4.5l-7.9-1.3-3.7-7.1-17.4-33.4-37 9.9zm66.1 172.8a56 56 0 1 1 -29-108.2 56 56 0 1 1 29 108.2zm8.7-60.3a24 24 0 1 0 -46.4 12.4 24 24 0 1 0 46.4-12.4z"/></svg>