<svg xmlns="http://www.w3.org/2000/svg" viewBox="0 0 384 512"><!--! Font Awesome Pro 7.0.0 by @fontawesome - https://fontawesome.com License - https://fontawesome.com/license (Commercial License) Copyright 2025 Fonticons, Inc. --><path fill="currentColor" d="M45.9 176.8L64.1 186c30.4 15.2 66.9 11.3 93.4-9.9 20.1-16.1 48.8-16.1 68.9 0 26.5 21.2 63 25.1 93.4 9.9l18.2-9.1-23.7 303.2-244.8 0-23.7-303.2zM43 139.6L34.6 32 349.4 32 341 139.6 305.6 157.3c-19.2 9.6-42.3 7.2-59.1-6.3-31.8-25.5-77.1-25.5-108.9 0-16.8 13.4-39.9 15.9-59.1 6.3L43 139.6zM40 512L344 512 381.5 32 384 0 0 0 2.5 32 40 512z"/></svg>