<svg xmlns="http://www.w3.org/2000/svg" viewBox="0 0 576 512"><!--! Font Awesome Pro 7.0.0 by @fontawesome - https://fontawesome.com License - https://fontawesome.com/license (Commercial License) Copyright 2025 Fonticons, Inc. --><path fill="currentColor" d="M320 480l.1 0c.7-.1 7-1.5 18.4-12.4 11.3-10.7 23.9-27.2 35.7-48.8 21.6-39.3 38.6-91.6 41.4-146.8l-93.6 0 9.4-32 84.1 0c-2.8-55.2-19.9-107.5-41.4-146.8-11.8-21.5-24.4-38.1-35.7-48.8-11.4-10.8-17.8-12.2-18.4-12.4l-.1 0 0 0c-.7 .1-7 1.5-18.4 12.4-11.3 10.7-23.9 27.2-35.7 48.8-21 38.3-37.7 89.1-41.2 142.7L65.4 282.7C64.5 273.9 64 265 64 256 64 114.6 178.6 0 320 0S576 114.6 576 256 461.4 512 320 512c-22.8 0-45-3-66-8.6l9-30.7 0 0 0 0 11.5-39.1c9.2 14.5 18.5 25.9 27 34 11.4 10.8 17.8 12.2 18.4 12.4l0 0zm57-7.3C468.1 448.8 536.6 368.9 543.4 272l-95.8 0c-3.8 81.5-35.8 156.9-70.6 200.7zM447.6 240l95.8 0C536.6 143.1 468.1 63.2 377 39.3 411.8 83.1 443.8 158.5 447.6 240zM263 39.3C171.9 63.2 103.4 143.1 96.6 240l95.8 0c3.8-81.5 35.8-156.9 70.6-200.7zM151.9 392.1l4.8 9.5 27.6 55.3 40.5-137.7-137.7 40.5 55.3 27.6 9.5 4.8zM42 373L0 352c5.8-1.7 84.3-24.8 235.5-69.3L272 272 261.3 308.5c-44.5 151.2-67.6 229.7-69.3 235.5-11.6-23.2-30.4-60.8-56.5-112.9L43.3 523.3 32 534.6 9.4 512 20.7 500.7 112.9 408.5 42 373z"/></svg>