<svg xmlns="http://www.w3.org/2000/svg" viewBox="0 0 512 512"><!--! Font Awesome Pro 7.0.0 by @fontawesome - https://fontawesome.com License - https://fontawesome.com/license (Commercial License) Copyright 2025 Fonticons, Inc. --><path fill="currentColor" d="M256 480c-1.4 0-2.7 0-4.1 0-3.1-1.6-7.9-4.7-14.3-10.9-11.3-10.8-23.9-27.6-35.8-49.3-21.6-39.7-38.6-92.5-41.5-147.7l191.2 0c-2.8 55.3-19.9 108-41.5 147.7-11.8 21.8-24.5 38.5-35.8 49.3-6.4 6.1-11.2 9.3-14.3 10.9-1.4 0-2.7 0-4.1 0zM160.4 240c2.8-55.3 19.9-108 41.5-147.7 11.8-21.8 24.5-38.5 35.8-49.3 6.4-6.1 11.2-9.3 14.3-10.9 2.7 0 5.4 0 8.1 0 3.1 1.6 7.9 4.7 14.3 10.9 11.3 10.8 23.9 27.6 35.8 49.3 21.6 39.7 38.6 92.5 41.5 147.7l-191.2 0zm223.2 32l95.8 0c-6.8 96.5-74.7 176.1-165.3 200.4 34.4-44.4 65.8-119.7 69.5-200.4zm95.8-32l-95.8 0c-3.7-80.7-35.1-156-69.5-200.4 90.6 24.3 158.5 103.9 165.3 200.4zm-351.1 0l-95.8 0C39.4 143.5 107.3 63.9 197.9 39.6 163.5 84 132.1 159.3 128.4 240zM32.6 272l95.8 0c3.7 80.7 35.1 156 69.5 200.4-90.6-24.3-158.5-103.9-165.3-200.4zM256 512a256 256 0 1 0 0-512 256 256 0 1 0 0 512z"/></svg>