<svg xmlns="http://www.w3.org/2000/svg" viewBox="0 0 448 512"><!--! Font Awesome Pro 7.0.0 by @fontawesome - https://fontawesome.com License - https://fontawesome.com/license (Commercial License) Copyright 2025 Fonticons, Inc. --><path fill="currentColor" d="M56 56l0 32-32 0 0-32 32 0zM24 32l-24 0 0 80 80 0 0-80-56 0zM56 178.7l0 32-32 0 0-32 32 0zm-32-24l-24 0 0 80 80 0 0-80-56 0zM56 301.3l0 32-32 0 0-32 32 0zm-32-24l-24 0 0 80 80 0 0-80-56 0zM24 424l32 0 0 32-32 0 0-32zM0 400l0 80 80 0 0-80-80 0zm146.7 24l32 0 0 32-32 0 0-32zm-24-24l0 80 80 0 0-80-80 0zm178.7 24l0 32-32 0 0-32 32 0zm-32-24l-24 0 0 80 80 0 0-80-56 0zM392 424l32 0 0 32-32 0 0-32zm-24-24l0 80 80 0 0-80-80 0zM146.7 301.3l32 0 0 32-32 0 0-32zm-24-24l0 80 80 0 0-80-80 0zm178.7 24l0 32-32 0 0-32 32 0zm-32-24l-24 0 0 80 80 0 0-80-56 0zm122.7 24l32 0 0 32-32 0 0-32zm-24-24l0 80 80 0 0-80-80 0zM146.7 178.7l32 0 0 32-32 0 0-32zm-24-24l0 80 80 0 0-80-80 0zm178.7 24l0 32-32 0 0-32 32 0zm-32-24l-24 0 0 80 80 0 0-80-56 0zm122.7 24l32 0 0 32-32 0 0-32zm-24-24l0 80 80 0 0-80-80 0zM146.7 56l32 0 0 32-32 0 0-32zm-24-24l0 80 80 0 0-80-80 0zM301.3 56l0 32-32 0 0-32 32 0zm-32-24l-24 0 0 80 80 0 0-80-56 0zM392 56l32 0 0 32-32 0 0-32zM368 32l0 80 80 0 0-80-80 0z"/></svg>