<svg xmlns="http://www.w3.org/2000/svg" viewBox="0 0 576 512"><!--! Font Awesome Pro 7.0.0 by @fontawesome - https://fontawesome.com License - https://fontawesome.com/license (Commercial License) Copyright 2025 Fonticons, Inc. --><path fill="currentColor" d="M64 80l0-16-32 0 0 384 32 0 0-176 160 0 0 176 32 0 0-384-32 0 0 176-160 0 0-160zM352 64l-16 0 0 32 124.3 0c32.9 0 59.7 26.7 59.7 59.7 0 21.6-11.7 41.5-30.5 52.1l-95.8 53.7C348.2 286.9 320 334.9 320 387l0 61 224 0 0-32-192 0 0-29c0-40.5 21.9-77.9 57.3-97.7l95.8-53.7c28.9-16.2 46.9-46.8 46.9-80 0-50.6-41-91.7-91.7-91.7L352 64z"/></svg>