<svg xmlns="http://www.w3.org/2000/svg" viewBox="0 0 448 512"><!--! Font Awesome Pro 7.0.0 by @fontawesome - https://fontawesome.com License - https://fontawesome.com/license (Commercial License) Copyright 2025 Fonticons, Inc. --><path fill="currentColor" d="M208 0l-16 0 0 192-80 0 0 52-73.6 55.2-6.4 4.8 0 59.5c0 53 29.1 101.7 75.7 126.8l8.3 4.5c21 11.3 44.4 17.2 68.3 17.2L320 512c61.9 0 112-50.1 112-112l0-160-64 0 0-32-64 0 0-208-96 0zm80 240l48 0 0 32 64 0 0 128c0 44.2-35.8 80-80 80l-135.7 0c-18.5 0-36.8-4.6-53.1-13.4l0 0-8.3-4.5C86.6 442.6 64 404.7 64 363.5l0-43.5 48-36 0 76 32 0 0-136 80 0 0-192 48 0 0 208 16 0z"/></svg>