<svg xmlns="http://www.w3.org/2000/svg" viewBox="0 0 576 512"><!--! Font Awesome Pro 7.0.0 by @fontawesome - https://fontawesome.com License - https://fontawesome.com/license (Commercial License) Copyright 2025 Fonticons, Inc. --><path fill="currentColor" d="M49 189.2l-15.4-4.2 4.2-15.4 21.2-77.1 4.2-15.4c16.6 4.6 79.8 22 85.7 23.6l.1-.3 4.3 1.2-.1 .2 136.9 37.7c3.7-7.2 8-14.2 13-20.8l36.1-48.1 4.8-6.4 59.5 0c53 0 101.7 29.1 126.8 75.7l4.5 8.3c11.3 21 17.2 44.4 17.2 68.3L552 352c0 61.9-50.1 112-112 112l-160 0 0-64-32 0 0-67.2C-13.7 352.4 80.3 345.3 44.3 348l-1.2-16-6-79.8-1.2-16c7.7-.6 92-6.9 145.1-10.9-71.5-19.7-115.5-31.8-132.1-36.3zm272.1-39.8c53.5 15.3 81.1 23.2 82.7 23.6l-8.8 30.8-15.4-4.4-213.2-60.9c-44.2-12.2-71.1-19.6-80.8-22.2l-12.7 46.3 23.1 6.4 182.5 50.2-3 31.4-181.3 13.6-23.9 1.8 3.6 47.9 23.9-1.8 165-12.4 17.2-1.3 0 69.7 32 0 0 64 128 0c44.2 0 80-35.8 80-80l0-135.7c0-18.5-4.6-36.8-13.4-53.1l0 0-4.5-8.3C482.6 118.6 444.7 96 403.5 96l-43.5 0-31.3 41.7c-2.8 3.7-5.4 7.6-7.7 11.6z"/></svg>