<svg xmlns="http://www.w3.org/2000/svg" viewBox="0 0 640 512"><!--! Font Awesome Pro 7.0.0 by @fontawesome - https://fontawesome.com License - https://fontawesome.com/license (Commercial License) Copyright 2025 Fonticons, Inc. --><path fill="currentColor" d="M549.6 304c41.4 0 74.9 33.5 74.9 74.9l0 2.5c0 85.3-144 178.7-144 178.7-1.1-.7-144-93.7-144-178.7l0-2.5c0-41.4 33.6-74.9 74.9-74.9 17.7 0 34.6 6.3 47.9 17.3 4.7 4 9 8.5 12.8 13.7l8.4 11.7 8.4-11.7c3.7-5.1 8-9.7 12.7-13.7 13.3-11.1 30.2-17.3 47.9-17.3zm0 32c-13.8 0-26.7 6.6-34.8 17.8-2.7 3.7-14.2 19.6-34.4 47.5l-25.9-35.9-8.4-11.7c-8.1-11.1-21-17.7-34.8-17.8-23.7 0-42.9 19.2-42.9 42.9l0 2.5 .3 4.9c1.2 11.7 6.7 25.7 17.1 41.6 11.6 17.8 27.7 35.6 44.6 51.6 16.9 15.9 33.8 29.4 46.7 39 1.2 .9 2.3 1.7 3.3 2.5 1.1-.8 2.2-1.6 3.4-2.5 12.8-9.6 29.8-23.1 46.7-39 17-16 33-33.7 44.7-51.6 11.8-18.2 17.3-33.9 17.3-46.5l0-2.5c0-23.7-19.2-42.9-42.9-42.9zM384.5 32l80 0 0 64 80 0 0 160.2c-11 .5-21.7 2.3-32 5.6l0-133.8-48 0 0 128-32 0 0-192-48 0 0 192-32 0 0-224-48 0 0 224-32 0 0-192-48 0 0 246.6-27.7 27.7-76.3-76.3-33.9 33.9 120.8 120.7c31.5 31.5 71.7 52.2 115 59.8 8.5 12.4 18.1 24.2 27.9 35.2-62.2-2.5-121.3-28.2-165.5-72.4l-143.4-143.4 79.2-79.2 72 72 0-256.8 80 0 0-32 112 0 0 32z"/></svg>