<svg xmlns="http://www.w3.org/2000/svg" viewBox="0 0 576 512"><!--! Font Awesome Pro 7.0.0 by @fontawesome - https://fontawesome.com License - https://fontawesome.com/license (Commercial License) Copyright 2025 Fonticons, Inc. --><path fill="currentColor" d="M561.5 60.9l12.9-9.4-18.8-25.9-12.9 9.4-79 57.4-38.7-25.8-4-2.7-283.5 0c-.2 .2-9.2 9.2-27 27l-76.9-56-12.9-9.4-18.8 25.9 12.9 9.4 88 64 11.1 8 37-37 98.7 0-116.7 116.7-11.3 11.3 23.4 23.4c43.7 43.7 114.7 43.7 158.4 0l32.8-32.8 137.4 137.4-53.4 53.4-48.7-48.7-22.6 22.6 48.7 48.7-20 20-58.7 0-59.3-59.3-22.6 22.6 36.7 36.7-74.7 0-171.3-171.3-11.3-11.3-22.6 22.6 11.3 11.3 176 176 4.7 4.7 205.3 0 192-192-22.6-22.6-64 64-148.7-148.7-11.3-11.3c-2.1 2.1-20.6 20.6-55.4 55.4-31.2 31.2-81.9 31.2-113.1 0l-.8-.8 128-128 116.5 0 44 29.3 9.3 6.2 9-6.6 88-64z"/></svg>