<svg xmlns="http://www.w3.org/2000/svg" viewBox="0 0 512 512"><!--! Font Awesome Pro 7.0.0 by @fontawesome - https://fontawesome.com License - https://fontawesome.com/license (Commercial License) Copyright 2025 Fonticons, Inc. --><path fill="currentColor" d="M512 128l0-16-256.6 0c-2-3.2-4.2-6.4-6.5-9.5l-36.1-48.1-4.8-6.4-59.5 0c-53 0-101.7 29.1-126.8 75.7L17.2 132C5.9 153 0 176.4 0 200.3L0 336c0 61.9 50.1 112 112 112l160 0 0-64 32 0 0-72 32 0 0-88 176 0 0-96zM216 112l-64 0 0 32 328 0 0 48-176 0 0 88-32 0 0 72-32 0 0 64-128 0c-44.2 0-80-35.8-80-80l0-135.7c0-18.5 4.6-36.8 13.4-53.1l0 0 4.5-8.3C69.4 102.6 107.3 80 148.5 80l43.5 0 24 32z"/></svg>