<svg xmlns="http://www.w3.org/2000/svg" viewBox="0 0 576 512"><!--! Font Awesome Pro 7.0.0 by @fontawesome - https://fontawesome.com License - https://fontawesome.com/license (Commercial License) Copyright 2025 Fonticons, Inc. --><path fill="currentColor" d="M576 240.2l-.9-123.6-96 .7 .1 18.8-60.2-132.8-58.3 26.4-13.2-29.1-87.4 39.6 13.2 29.1-58.3 26.4 2.7 6.1c2.1 .9 16.8 7.5 44 19.5l-4.4-9.7 29.1-13.2 19.2 42.4 19.9 8.8c8.8 3.9 17.3 8.4 25.4 13.5l-48.5-107.1 29.1-13.2 66 145.7 29.1-13.2-52.8-116.6 29.1-13.2 81.4 179.8 27.3-2.8-.5-73.5 32-.2 .6 91.6c.4 56.1-32.3 107.3-83.4 130.4-5.4 2.4-10.8 4.5-16.3 6.2-2.4 12.3-5.8 24.1-10.2 35.5 13.4-2.5 26.7-6.7 39.7-12.6 62.7-28.4 102.7-91 102.2-159.8zM214.3 134.5L199.6 128c-1.1 2.4-11.9 26.8-32.5 73.1l-6.5 14.6 14.6 6.5 2.6 1.1-145.8 0 0 64-32 0 0 96 32 0 0 64 32 0 0 64 177.9 0c96.1 0 174.1-77.9 174.1-174.1 0-68.8-40.5-131.1-103.4-159.1l-98.4-43.7zM32 351.4l0-32 32 0 0 0 128 0 0-32-128 0 0-32 197.3 0 8.7-26-10.3-4.6-56.8-25.3 13-29.2 83.8 37.2c51.3 22.8 84.4 73.7 84.4 129.8 0 78.5-63.6 142.1-142.1 142.1l-145.9 0 0-32 96 0 0-32-96 0 0 0-32 0 0-32 128 0 0-32-128 0 0 0-32 0z"/></svg>