<svg xmlns="http://www.w3.org/2000/svg" viewBox="0 0 512 512"><!--! Font Awesome Pro 7.0.0 by @fontawesome - https://fontawesome.com License - https://fontawesome.com/license (Commercial License) Copyright 2025 Fonticons, Inc. --><path fill="currentColor" d="M242.2 1.7l4.2 15.4 46.4 168.8C328.7-17 318.6 40.6 323.1 15.1l15.8 2.8 78.8 13.9 15.8 2.8c-1.2 6.6-4.4 25-9.7 55.1l-3.8 21.8c60.9 14.6 91.4 21.9 91.7 22l-3.7 15.6-60.6 252.5C431.6 466.4 373.7 512 307.1 512l-20 0c-58.8 0-115.8-20.9-160.6-59L20.2 362.7 8 352.3 18.4 340.1 70.2 279.2 80.6 267c4.9 4.2 19.5 16.6 43.7 37.1-87-267.6-54.1-166.5-66.3-204 .6-.2 29.8-9.7 87.4-28.4-5-18.1-8.7-31.5-11.1-40.2l15.4-4.2 77.1-21.2 15.4-4.2zm-98.3 104l-45.6 14.8 7.4 22.8 63.2 194.3-28.9 21.7-55.7-47.3-31.1 36.6 94 79.9c39.1 33.2 88.6 51.4 139.9 51.4l20 0c51.8 0 96.8-35.5 108.9-85.9l56.9-237-46.7-11.2-31.1 129.8-2.9 12.3-36 0 3.3-18.8 32.7-185 4.2-23.6-47.3-8.3-4.2 23.6-32.8 185.7-4.7 26.5-19.6 0-6.9-25-61-221.9-46.3 12.7 58.8 214 5.6 20.2-34.9 0-3.6-11.1-48.2-148.4-7.4-22.8z"/></svg>