<svg xmlns="http://www.w3.org/2000/svg" viewBox="0 0 448 512"><!--! Font Awesome Pro 7.0.0 by @fontawesome - https://fontawesome.com License - https://fontawesome.com/license (Commercial License) Copyright 2025 Fonticons, Inc. --><path fill="currentColor" d="M96 0L80 0 80 256.6c-3.2 2-6.4 4.2-9.5 6.5l-48.1 36.1-6.4 4.8 0 59.5c0 53 29.1 101.7 75.7 126.8l8.3 4.5c21 11.3 44.4 17.2 68.3 17.2L304 512c61.9 0 112-50.1 112-112l0-160-64 0 0-32-72 0 0-32-88 0 0-176-96 0zM80 296l0 64 32 0 0-328 48 0 0 176 88 0 0 32 72 0 0 32 64 0 0 128c0 44.2-35.8 80-80 80l-135.7 0c-18.5 0-36.8-4.6-53.1-13.4l0 0-8.3-4.5C70.6 442.6 48 404.7 48 363.5l0-43.5 32-24z"/></svg>