<svg xmlns="http://www.w3.org/2000/svg" viewBox="0 0 576 512"><!--! Font Awesome Pro 7.0.0 by @fontawesome - https://fontawesome.com License - https://fontawesome.com/license (Commercial License) Copyright 2025 Fonticons, Inc. --><path fill="currentColor" d="M304 16l0 48-32 0 0-64 32 0 0 16zM32 80l0 48-32 0 0-64 32 0 0 16zm64 0l0 48-32 0 0-64 32 0 0 16zm64 0l0 48-32 0 0-64 32 0 0 16zm64 0l0 48-32 0 0-64 32 0 0 16zm160 0l0 48-32 0 0-64 32 0 0 16zm64 0l0 48-32 0 0-64 32 0 0 16zm64 0l0 48-32 0 0-64 32 0 0 16zm64 0l0 48-32 0 0-64 32 0 0 16zM304 96l0 256 48 0 0-192 32 0 0 192 32 0 0-192 32 0 0 192 32 0 0-192 32 0 0 189.3c18.6-6.6 32-24.4 32-45.3l0-144 32 0 0 144c0 44.2-35.8 80-80 80l-192 0 0 96 176 0 0 32-384 0 0-32 176 0 0-96-192 0c-44.2 0-80-35.8-80-80l0-144 32 0 0 144c0 20.9 13.4 38.7 32 45.3l0-189.3 32 0 0 192 32 0 0-192 32 0 0 192 32 0 0-192 32 0 0 192 48 0 0-256 32 0z"/></svg>