<svg xmlns="http://www.w3.org/2000/svg" viewBox="0 0 640 512"><!--! Font Awesome Pro 7.0.0 by @fontawesome - https://fontawesome.com License - https://fontawesome.com/license (Commercial License) Copyright 2025 Fonticons, Inc. --><path fill="currentColor" d="M272 32l48 32 48-32 80 0 39.3 176.7C572.9 216.4 640 288.4 640 376l0 72-640 0 0-81.5c0-85.6 67.9-155.4 152.9-158.4L192 32 272 32zM185.3 209.8c18.2 2.4 35.9 7.2 52.8 14.2l219.8 0-35.6-160-44.6 0c-30.3 20.2-49.6 33-57.7 38.5-8.1-5.4-27.4-18.2-57.7-38.5l-44.6 0-32.4 145.8zM292.8 256L494.9 390.7 465 256 292.8 256zM533.3 416l74.7 0 0-40c0-67.4-49-123.3-113.4-134.1L533.3 416zM158.5 240C88.6 240 32 296.6 32 366.5L32 416 475.2 416 255 269.2c-28.6-19.1-62.2-29.2-96.5-29.2z"/></svg>