<svg xmlns="http://www.w3.org/2000/svg" viewBox="0 0 512 512"><!--! Font Awesome Pro 7.0.0 by @fontawesome - https://fontawesome.com License - https://fontawesome.com/license (Commercial License) Copyright 2025 Fonticons, Inc. --><path fill="currentColor" d="M176 36.4l0 96.4-13.7 9.6c-20.8 14.5-34.3 38.5-34.3 65.7 0 44.2 35.8 80 80 80s80-35.8 80-80c0-27.2-13.5-51.2-34.3-65.7l-13.7-9.6 0-99.2c-7.9-1-15.9-1.6-24-1.6-13.7 0-27.1 1.5-40 4.4zM144 46.6C78.2 74.6 32 139.9 32 216 32 269.3 54.6 317.3 90.9 350.9l5.1 4.7 0 156.3-32 0 0-142.5C24.5 330.3 0 276 0 216 0 96.7 96.7 0 216 0 324 0 413.5 79.3 429.5 182.8l61.8 61.8 4.7 4.7 0 86.6-64 0 0 112-112 0 0 64-32 0 0-96 112 0 0-112 64 0 0-41.4-60.9-60.9-3.9-3.9-.7-5.4C389.3 120.8 339 62.1 272 40.7l0 75.4c29 20.2 48 53.9 48 91.9 0 61.9-50.1 112-112 112S96 269.9 96 208c0-38.1 19-71.7 48-91.9l0-69.5zM208 184a24 24 0 1 1 0 48 24 24 0 1 1 0-48z"/></svg>