<svg xmlns="http://www.w3.org/2000/svg" viewBox="0 0 512 512"><!--! Font Awesome Pro 7.0.0 by @fontawesome - https://fontawesome.com License - https://fontawesome.com/license (Commercial License) Copyright 2025 Fonticons, Inc. --><path fill="currentColor" d="M224.5 118.2l0 315.2c-37.8-28.8-77.3-62.4-110.7-99.5-49.3-54.6-81.3-112.2-81.3-168.8 0-55.9 45.3-101.1 101.1-101.1 32.4 0 62.9 15.6 81.9 41.9l8.9 12.3zm32-10.4l-15-20.7c-25-34.6-65.2-55.1-107.9-55.1-73.5 0-133.1 59.6-133.1 133.1 0 123.2 124.4 235.4 224 308.2 11 8.1 21.8 15.6 32 22.7l0-388.2z"/></svg>