<svg xmlns="http://www.w3.org/2000/svg" viewBox="0 0 576 512"><!--! Font Awesome Pro 7.0.0 by @fontawesome - https://fontawesome.com License - https://fontawesome.com/license (Commercial License) Copyright 2025 Fonticons, Inc. --><path fill="currentColor" d="M13.5 256.1L150.9 496.1 426 496.1 563.4 256.1 426 16 150.9 16 13.5 256.1zM169.5 48l238 0 119.1 208.1-119.1 208.1-238 0-119.1-208.1 119.1-208.1zM320.9 198c-1.5 1.8-24.3 30-68.4 84.7-12.8-10.8-22.7-19.1-29.7-24.9l-10.3 11.6-58.4 65.6-7.7 8.6 5.7 10 31.2 54.5 4.6 8.1 200.9 0 4.6-8.1 31.8-55.6 5.2-9.2-6.4-8.4-91-120.5-12.3-16.3zm-.8 52l72.3 95.7-22 38.4-163.8 0-20.9-36.5 40.4-45.4c13.2 11.1 23.5 19.7 30.9 25.9L267.2 315.5 320 250zm-79.6-90a16 16 0 1 1 -32 0 16 16 0 1 1 32 0zm-16-48a48 48 0 1 0 0 96 48 48 0 1 0 0-96z"/></svg>