<svg xmlns="http://www.w3.org/2000/svg" viewBox="0 0 576 512"><!--! Font Awesome Pro 7.0.0 by @fontawesome - https://fontawesome.com License - https://fontawesome.com/license (Commercial License) Copyright 2025 Fonticons, Inc. --><path fill="currentColor" d="M240 0l-16 0 0 96-224 0 0 416 576 0 0-512-336 0zM464 480l0-128-128 0 0 128-80 0 0-448 288 0 0 448-80 0zm-96 0l0-96 64 0 0 96-64 0zM32 128l192 0 0 352-192 0 0-352zM384 80l0 48-48 0 0 32 48 0 0 48 32 0 0-48 48 0 0-32-48 0 0-48-32 0zM128 176l0 48-48 0 0 32 48 0 0 48 32 0 0-48 48 0 0-32-48 0 0-48-32 0z"/></svg>