<svg xmlns="http://www.w3.org/2000/svg" viewBox="0 0 576 512"><!--! Font Awesome Pro 7.0.0 by @fontawesome - https://fontawesome.com License - https://fontawesome.com/license (Commercial License) Copyright 2025 Fonticons, Inc. --><path fill="currentColor" d="M553.4 201.4L576 224 553.4 246.6 278.6 521.4 256 544c-10.3-10.3-34.9-34.9-73.7-73.7-30.4 16.5-69.2 12-94.8-13.7s-30.3-64.5-13.7-94.8C34.9 322.9 10.3 298.3 0 288L22.6 265.4 297.4-9.4 320-32c10.3 10.3 34.9 34.9 73.7 73.7 30.4-16.5 69.2-12 94.8 13.7s30.3 64.5 13.7 94.8l51.1 51.1zm-71.4-26.2L207.2 449.9 256 498.7 530.7 224 481.9 175.2zM368.8 62.1L320 13.3 45.3 288 94.1 336.8 368.8 62.1zm97.1 16c-18.7-18.7-49.1-18.7-67.9 0l-288 288c-18.7 18.7-18.7 49.1 0 67.9s49.1 18.7 67.9 0l288-288c18.7-18.7 18.7-49.1 0-67.9z"/></svg>