<svg xmlns="http://www.w3.org/2000/svg" viewBox="0 0 384 512"><!--! Font Awesome Pro 7.0.0 by @fontawesome - https://fontawesome.com License - https://fontawesome.com/license (Commercial License) Copyright 2025 Fonticons, Inc. --><path fill="currentColor" d="M16 512l-16 0 0-32 32 0 0-119.8 6.2-4.8 127.8-99.4-127.8-99.4-6.2-4.8 0-119.8-32 0 0-32 384 0 0 32-32 0 0 119.8-6.2 4.8-127.8 99.4 127.8 99.4 6.2 4.8 0 119.8 32 0 0 32-368 0zm304-32l0-64-256 0 0 64 256 0zM64 375.8l0 8.2 256 0 0-8.2-128-99.6-128 99.6zM94.6 160l97.4 75.7 97.4-75.7-194.7 0zM320 128l0-96-256 0 0 96 256 0z"/></svg>