<svg xmlns="http://www.w3.org/2000/svg" viewBox="0 0 640 512"><!--! Font Awesome Pro 7.0.0 by @fontawesome - https://fontawesome.com License - https://fontawesome.com/license (Commercial License) Copyright 2025 Fonticons, Inc. --><path fill="currentColor" d="M259.1 38.3c8.6 6.4 16.2 14 22.6 22.6 27.1-27.1 42.4-42.4 46.1-46.1L305.1-7.8 259.1 38.3zM124.9 217.7c-8.6-6.4-16.2-14-22.6-22.6-27.1 27.1-42.4 42.4-46.1 46.1l22.6 22.6c3.6-3.6 19-19 46.1-46.1zM80 128c0-5.4 .4-10.8 1.1-16l-65.1 0 0 32 65.1 0c-.7-5.2-1.1-10.6-1.1-16zm22.3-67.1c6.4-8.6 14-16.2 22.6-22.6-27.1-27.1-42.4-42.4-46.1-46.1L56.2 14.9c3.6 3.6 19 19 46.1 46.1zM176-32l0 49.1c5.2-.7 10.6-1.1 16-1.1s10.8 .4 16 1.1l0-65.1-32 0 0 16zM144 130.8c0-28.1 22.8-50.8 50.8-50.8 23.8 0 43.8 16.4 49.3 38.5l25.1-24.2c-13.5-27.5-41.7-46.4-74.4-46.4-45.7 0-82.8 37.1-82.8 82.8 0 31.6 17.7 59 43.7 73l25.1-24.2C159.5 173.6 144 154 144 130.8zM379.1 76.5l-11.1-10.7-11.1 10.7-224 216-11.5 11.1 22.2 23c6.1-5.9 16.9-16.3 32.4-31.3l0 248.6 384 0 0-248.6c15.5 14.9 26.3 25.4 32.4 31.3l22.2-23-11.5-11.1-224-216zM528 264.5l0 247.5-320 0 0-247.5 160-154.3 160 154.3zM304 272l0 128 128 0 0-128-128 0zm32 32l64 0 0 64-64 0 0-64z"/></svg>