<svg xmlns="http://www.w3.org/2000/svg" viewBox="0 0 512 512"><!--! Font Awesome Pro 7.0.0 by @fontawesome - https://fontawesome.com License - https://fontawesome.com/license (Commercial License) Copyright 2025 Fonticons, Inc. --><path fill="currentColor" d="M177.5 93.3c5-35.2 35.2-61.3 70.7-61.3 43.5 0 76.9 38.5 70.7 81.5L302.8 226.7c-5 35.2-35.2 61.3-70.7 61.3-43.5 0-76.9-38.5-70.7-81.5L177.5 93.3zM248.2 64c-19.6 0-36.3 14.4-39 33.9L193 211c-3.4 23.8 15 45 39 45 19.6 0 36.3-14.4 39-33.9L287.2 109c3.4-23.8-15-45-39-45zM99.8 74.4C64.4 90.1 44.4 99.1 39.7 101.1L27.1 71.9c.3-.1 29.2-13 86.7-38.5l22.1 16.8-40 256-2.5 15.8-31.6-4.4 2.5-15.8 35.5-227.4zM425.7 32c42.8 0 76.1 37.3 71.2 79.8l-11.2 96.7c-4.2 36.1-34.8 63.4-71.2 63.4-42.8 0-76.1-37.3-71.2-79.8l11.2-96.7C358.7 59.3 389.3 32 425.7 32zM386.3 99.1l-11.2 96.7c-2.7 23.5 15.7 44.2 39.4 44.2 20.1 0 37.1-15.1 39.4-35.1l11.2-96.7c2.7-23.5-15.7-44.2-39.4-44.2-20.1 0-37.1 15.1-39.4 35.1zM498.2 351.9l-480 64-4.2-31.7 480-64 4.2 31.7zm-32.1 96l-256 32-4-31.8 256-32 15.9-2 4 31.8-15.9 2z"/></svg>