<svg xmlns="http://www.w3.org/2000/svg" viewBox="0 0 448 512"><!--! Font Awesome Pro 7.0.0 by @fontawesome - https://fontawesome.com License - https://fontawesome.com/license (Commercial License) Copyright 2025 Fonticons, Inc. --><path fill="currentColor" d="M340 384l76 0 0 64-384 0 0-64 308 0zm-12-32l-24-64-160 0-24 64-88 0 0-288 384 0 0 288-88 0zm-173.8 0l12-32 115.6 0 12 32-139.6 0zM448 368l0-336-448 0 0 448 448 0 0-112zM288 192a64 64 0 1 0 -128 0 64 64 0 1 0 128 0zm-96 0a32 32 0 1 1 64 0 32 32 0 1 1 -64 0z"/></svg>