<svg xmlns="http://www.w3.org/2000/svg" viewBox="0 0 448 512"><!--! Font Awesome Pro 7.0.0 by @fontawesome - https://fontawesome.com License - https://fontawesome.com/license (Commercial License) Copyright 2025 Fonticons, Inc. --><path fill="currentColor" d="M144 0c48.7 0 84.7 16.5 108.6 38.9 15.3-4.4 32.4-6.9 51.4-6.9 97.4 0 144 66.2 144 112l0 16-191.7 0c2.7 6.6 5.4 13.5 7.9 20.8 15.5 45.7 25.7 106.5 8.1 172.2 63 8 111.7 61.8 111.7 126.9l0 32-384 0 0-32c0-70.7 57.3-128 128-128l111.3 0c18.2-60.6 9.4-117.4-5.4-160.8-2.6-7.6-5.4-14.7-8.2-21.4L99.9 295.5 88.6 284.2C60 255.7 45.9 190.3 90.2 128L0 128 0 112C0 66.2 46.6 0 144 0zM128 384c-53 0-96 43-96 96l320 0c0-53-43-96-96-96l-128 0zM144 32C76.7 32 44.3 68.5 35 96l83.9 0c11-9.9 22.1-17.9 33.3-24.2 5.2 9.3 10.3 18.7 15.5 28-11.1 6.1-22.5 14.6-33.9 26l-8.3 8.9c-38.8 44.7-35.5 89-23.5 113.4l115.5-115.5 4.7-4.7 190.8 0c-9.3-27.5-41.7-64-109-64-19.8 0-36.4 3.2-50.3 8.2l-10.2 3.7-7.3-8C219.1 48.8 189.5 32 144 32z"/></svg>