<svg xmlns="http://www.w3.org/2000/svg" viewBox="0 0 512 512"><!--! Font Awesome Pro 7.0.0 by @fontawesome - https://fontawesome.com License - https://fontawesome.com/license (Commercial License) Copyright 2025 Fonticons, Inc. --><path fill="currentColor" d="M115.6 416l0-320 280.9 0 0 320-280.9 0zm-32 0l-51.6 0 0-320 51.6 0 0 320zm16-352L0 64 0 448 512 448 512 64 99.6 64zM480 416l-51.6 0 0-320 51.6 0 0 320zM224 160l-16 0 0 48-48 0 0 96 48 0 0 48 96 0 0-48 48 0 0-96-48 0 0-48-80 0zm16 80l0-48 32 0 0 48 48 0 0 32-48 0 0 48-32 0 0-48-48 0 0-32 48 0z"/></svg>