<svg xmlns="http://www.w3.org/2000/svg" viewBox="0 0 576 512"><!--! Font Awesome Pro 7.0.0 by @fontawesome - https://fontawesome.com License - https://fontawesome.com/license (Commercial License) Copyright 2025 Fonticons, Inc. --><path fill="currentColor" d="M224.4 160l0 32 192 0 0 128-192 0 0 128c-2.1-2-61.9-58.6-179.6-170l-23.3-22 23.3-22C162.5 122.6 222.3 66 224.4 64l0 96zm64 128l96 0 0-64-192 0 0-85.7-124.3 117.7 124.3 117.7 0-85.7 96 0zm208-224l48 0 0 48-48 0 0-48zm0 160l0-48 48 0 0 48-48 0zm0 64l48 0 0 48-48 0 0-48zm0 160l0-48 48 0 0 48-48 0z"/></svg>