<svg xmlns="http://www.w3.org/2000/svg" viewBox="0 0 512 512"><!--! Font Awesome Pro 7.0.0 by @fontawesome - https://fontawesome.com License - https://fontawesome.com/license (Commercial License) Copyright 2025 Fonticons, Inc. --><path fill="currentColor" d="M272 0l0 160.5c123.3 7.6 222.9 102.4 238 223.5 1.3 10.5 2 21.2 2 32l-154.8 0c-18 37.8-56.5 64-101.2 64s-83.2-26.2-101.2-64L0 416c0-10.8 .7-21.5 2-32 15.1-121.1 114.8-215.9 238-223.5L240 0 272 0zM187.1 416c15.2 21.8 40.4 36 68.9 36s53.8-14.2 68.9-36l-137.9 0zM34.3 384l443.5 0C462.2 275.4 368.8 192 256 192S49.8 275.4 34.3 384z"/></svg>