<svg xmlns="http://www.w3.org/2000/svg" viewBox="0 0 640 512"><!--! Font Awesome Pro 7.0.0 by @fontawesome - https://fontawesome.com License - https://fontawesome.com/license (Commercial License) Copyright 2025 Fonticons, Inc. --><path fill="currentColor" d="M400 330.6c47.9-27.7 80-79.4 80-138.6 0-88.4-71.6-160-160-160S160 103.6 160 192c0 59.2 32.1 110.9 80 138.6l16 9.2 0 44.1 128 0 0-44.1 16-9.2zM256 416l0 64 128 0 0-64-128 0zM512 192c0 71.1-38.6 133.1-96 166.3l0 153.7-192 0 0-153.7C166.6 325.1 128 263.1 128 192 128 86 214 0 320 0S512 86 512 192zM27.6 9.8c3.1 2.1 23.5 15.7 61.3 40.9l13.3 8.9-17.8 26.6c-3.1-2.1-23.5-15.7-61.3-40.9L9.8 36.4 27.6 9.8zM630.2 36.4c-3.1 2.1-23.5 15.7-61.3 40.9l-13.3 8.9-17.8-26.6c3.1-2.1 23.5-15.7 61.3-40.9l13.3-8.9 17.8 26.6zM0 176l80 0 0 32-80 0 0-32zm560 0l80 0 0 32-80 0 0-32zM102.2 324.4c-3.1 2.1-23.5 15.7-61.3 40.9l-13.3 8.9-17.8-26.6c3.1-2.1 23.5-15.7 61.3-40.9l13.3-8.9 17.8 26.6zm453.4-26.6c3.1 2.1 23.5 15.7 61.3 40.9l13.3 8.9-17.8 26.6c-3.1-2.1-23.5-15.7-61.3-40.9l-13.3-8.9 17.8-26.6zM336 96l0 144-32 0 0-144 32 0zM304 304l0-32 32 0 0 32-32 0z"/></svg>