<svg xmlns="http://www.w3.org/2000/svg" viewBox="0 0 448 512"><!--! Font Awesome Pro 7.0.0 by @fontawesome - https://fontawesome.com License - https://fontawesome.com/license (Commercial License) Copyright 2025 Fonticons, Inc. --><path fill="currentColor" d="M32 64l384 0 0 96-384 0 0-96zm0 128l384 0 0 256-384 0 0-256zM0 64l0 416 448 0 0-448-448 0 0 32zM112 256l-16 0 0 32 256 0 0-32-240 0zm0 96l-16 0 0 32 256 0 0-32-240 0zM328 96l-38.6 0c46.9 46.9 33.4 33.4 46.6 46.6 14.9-14.9 25.4-25.4 46.6-46.6L328 96z"/></svg>