<svg xmlns="http://www.w3.org/2000/svg" viewBox="0 0 576 512"><!--! Font Awesome Pro 7.0.0 by @fontawesome - https://fontawesome.com License - https://fontawesome.com/license (Commercial License) Copyright 2025 Fonticons, Inc. --><path fill="currentColor" d="M304 16l0-16-32 0 0 182.9-48 28.8 0-179.7-64 0C57 145.2 0 292.8 0 445.9l0 66.1 128 0 96-64 0-198.9 64-38.4 64 38.4 0 198.9 96 64 128 0 0-54.3c0-141.1-46.7-278.3-132.7-390.2l-27.3-35.5-64 0 0 179.7-48-28.8 0-166.9zm80 252.3l55.8 33.5 16.5-27.4-72.2-43.3 0-166.9 16.2 0 17.7 23C499.7 193.3 544 323.6 544 457.7l0 22.3-86.3 0-73.7-49.1 0-162.6zM192 64l0 166.9-72.2 43.3 16.5 27.4 55.8-33.5 0 162.6-73.7 49.1-86.3 0 0-34.1C32 305.4 82.7 169.9 174.4 64L192 64z"/></svg>