<svg xmlns="http://www.w3.org/2000/svg" viewBox="0 0 512 512"><!--! Font Awesome Pro 7.0.0 by @fontawesome - https://fontawesome.com License - https://fontawesome.com/license (Commercial License) Copyright 2025 Fonticons, Inc. --><path fill="currentColor" d="M208.1 32a176 176 0 1 1 0 352 176 176 0 1 1 0-352zm0 384c51.7 0 99-18.8 135.3-50l141.4 141.4 11.3 11.3 22.6-22.6-11.3-11.3-141.4-141.4c31.2-36.4 50-83.7 50-135.3 0-114.9-93.1-208-208-208S.1 93.1 .1 208 93.3 416 208.1 416zm38.2-202c-6.5 14.9-15.4 30.2-24.8 44.3-4.5 6.8-9.1 13.2-13.4 18.9-4.3-5.8-8.8-12.1-13.4-18.9-9.4-14-18.3-29.3-24.8-44.3-6.6-15.3-9.8-28.2-9.8-38 0-26.5 21.5-48 48-48s48 21.5 48 48c0 9.8-3.2 22.7-9.8 38zm-17.5 89c23.7-30.8 59.4-84.2 59.4-127 0-44.2-35.8-80-80-80s-80 35.8-80 80c0 42.7 35.7 96.2 59.4 127 11.8 15.3 20.6 25 20.6 25s8.8-9.7 20.6-25zm3.4-119a24 24 0 1 0 -48 0 24 24 0 1 0 48 0z"/></svg>