<svg xmlns="http://www.w3.org/2000/svg" viewBox="0 0 512 512"><!--! Font Awesome Pro 7.0.0 by @fontawesome - https://fontawesome.com License - https://fontawesome.com/license (Commercial License) Copyright 2025 Fonticons, Inc. --><path fill="currentColor" d="M208.1 32a176 176 0 1 1 0 352 176 176 0 1 1 0-352zm0 384c51.7 0 99-18.8 135.3-50l141.4 141.4 11.3 11.3 22.6-22.6-11.3-11.3-141.4-141.4c31.2-36.4 50-83.7 50-135.3 0-114.9-93.1-208-208-208S.1 93.1 .1 208 93.3 416 208.1 416zM175 122.2l-24.1-14.2 0 199.9 24.1-14.2 122.4-72 23.4-13.8-23.4-13.8-122.4-72zM257.8 208l-74.8 44 0-88.1 74.8 44z"/></svg>