<svg xmlns="http://www.w3.org/2000/svg" viewBox="0 0 448 512"><!--! Font Awesome Pro 7.0.0 by @fontawesome - https://fontawesome.com License - https://fontawesome.com/license (Commercial License) Copyright 2025 Fonticons, Inc. --><path fill="currentColor" d="M0 32l144 0 0 256c0 44.2 35.8 80 80 80s80-35.8 80-80l0-256 144 0 0 256c0 123.7-100.3 224-224 224S0 411.7 0 288L0 32zM32 64l0 96 80 0 0-96-80 0zm0 224c0 106 86 192 192 192s192-86 192-192l0-96-80 0 0 96c0 61.9-50.1 112-112 112S112 349.9 112 288l0-96-80 0 0 96zM416 160l0-96-80 0 0 96 80 0z"/></svg>