<svg xmlns="http://www.w3.org/2000/svg" viewBox="0 0 512 512"><!--! Font Awesome Pro 7.0.0 by @fontawesome - https://fontawesome.com License - https://fontawesome.com/license (Commercial License) Copyright 2025 Fonticons, Inc. --><path fill="currentColor" d="M208.1 32a176 176 0 1 1 0 352 176 176 0 1 1 0-352zm0 384c51.7 0 99-18.8 135.3-50l141.4 141.4 11.3 11.3 22.6-22.6-11.3-11.3-141.4-141.4c31.2-36.4 50-83.7 50-135.3 0-114.9-93.1-208-208-208S.1 93.1 .1 208 93.3 416 208.1 416zm80-304l-64 0 0 96c-9.4-5.1-20.3-8-32-8-35.3 0-64 26.9-64 60s28.7 60 64 60 64-26.9 64-60c0-1.4 0-2.7-.1-4.1l.1 .1 0-112 32 0 0-32zm-96 176c-19.6 0-32-14.5-32-28s12.4-28 32-28 32 14.5 32 28-12.4 28-32 28z"/></svg>