<svg xmlns="http://www.w3.org/2000/svg" viewBox="0 0 512 512"><!--! Font Awesome Pro 7.0.0 by @fontawesome - https://fontawesome.com License - https://fontawesome.com/license (Commercial License) Copyright 2025 Fonticons, Inc. --><path fill="currentColor" d="M208.1 32a176 176 0 1 1 0 352 176 176 0 1 1 0-352zm0 384c51.7 0 99-18.8 135.3-50l141.4 141.4 11.3 11.3 22.6-22.6-11.3-11.3-141.4-141.4c31.2-36.4 50-83.7 50-135.3 0-114.9-93.1-208-208-208S.1 93.1 .1 208 93.3 416 208.1 416zm16-288l0-24-32 0 0 24-1.7 0c-25.6 0-46.3 20.7-46.3 46.3 0 22.6 16.4 42 38.7 45.7l45.3 7.6c6.9 1.2 12 7.1 12 14.1 0 7.9-6.4 14.3-14.3 14.3l-73.7 0 0 32 40 0 0 24 32 0 0-24 1.7 0c25.6 0 46.3-20.7 46.3-46.3 0-22.6-16.4-42-38.7-45.7l-45.3-7.6c-6.9-1.2-12-7.1-12-14.1 0-7.9 6.4-14.3 14.3-14.3l65.7 0 0-32-32 0z"/></svg>