<svg xmlns="http://www.w3.org/2000/svg" viewBox="0 0 512 512"><!--! Font Awesome Pro 7.0.0 by @fontawesome - https://fontawesome.com License - https://fontawesome.com/license (Commercial License) Copyright 2025 Fonticons, Inc. --><path fill="currentColor" d="M480 256c0-46.8-14.4-90.3-39-126.3-1 54.3-16.9 140.4-93.9 217.4S184 440.1 129.7 441c36 24.6 79.4 39 126.3 39 123.7 0 224-100.3 224-224zM76.6 390.2c4.5-58.5 22.3-159.3 88.2-225.3 72.7-72.7 165.2-88.8 221.4-91.1-36.7-26.3-81.7-41.8-130.3-41.8-123.7 0-224 100.3-224 224 0 50.3 16.6 96.8 44.6 134.2zM0 256a256 256 0 1 1 512 0 256 256 0 1 1 -512 0zM160.5 406.7c46.9-6.2 107.9-26.1 164-82.2s76.1-117 82.2-164c2.9-22.2 2.7-41.2 1.7-55-15.2-.3-36.4 .4-60.7 4.1-49.7 7.7-110.5 28.1-160.2 77.9-42.2 42.2-62.9 102.6-72.6 155.7-4.7 25.7-6.6 48.7-7.4 65.4 13.6 .9 31.9 .9 52.9-1.9z"/></svg>