<svg xmlns="http://www.w3.org/2000/svg" viewBox="0 0 576 512"><!--! Font Awesome Pro 7.0.0 by @fontawesome - https://fontawesome.com License - https://fontawesome.com/license (Commercial License) Copyright 2025 Fonticons, Inc. --><path fill="currentColor" d="M64 32l320 0 0 182c10.4-2.7 21-4.5 32-5.4L416 0 32 0 32 512 276 512c-7.2-10-13.4-20.7-18.6-32L64 480 64 32zM320 400a112 112 0 1 1 224 0 112 112 0 1 1 -224 0zm256 0a144 144 0 1 0 -288 0 144 144 0 1 0 288 0zm-83.1-38.6l9.4-12.9-25.9-18.8-9.4 12.9-53 72.9C393.7 395 381 382.3 376 377.4L353.4 400c2.8 2.8 19.9 19.9 51.3 51.3l13.2 13.2 11-15.1 64-88zM144 128l-16 0 0 32 192 0 0-32-176 0zm0 96l-16 0 0 32 160 0 0-32-144 0zm0 96l-16 0 0 32 96 0 0-32-80 0z"/></svg>