<svg xmlns="http://www.w3.org/2000/svg" viewBox="0 0 512 512"><!--! Font Awesome Pro 7.0.0 by @fontawesome - https://fontawesome.com License - https://fontawesome.com/license (Commercial License) Copyright 2025 Fonticons, Inc. --><path fill="currentColor" d="M288 416l-8.9 0-7.6 4.6c-61 36.6-98.1 58.9-111.5 66.9l0-71.5-128 0 0-352 448 0 0 352-192 0zM128 487.5l0 56.5c37.3-22.4 67.4-40.4 160-96l224 0 0-416-512 0 0 416 128 0 0 39.5zm12.8-314.7c-23 0-41.6 18.6-41.6 41.6S117.8 256 140.8 256c5.3 0 9.6 4.3 9.6 9.6s-4.3 9.6-9.6 9.6l-41.6 0 0 32 41.6 0c23 0 41.6-18.6 41.6-41.6S163.8 224 140.8 224c-5.3 0-9.6-4.3-9.6-9.6s4.3-9.6 9.6-9.6l35.2 0 0-32-35.2 0zm188.8 41.6c0 23 18.6 41.6 41.6 41.6 5.3 0 9.6 4.3 9.6 9.6s-4.3 9.6-9.6 9.6l-41.6 0 0 32 41.6 0c23 0 41.6-18.6 41.6-41.6S394.2 224 371.2 224c-5.3 0-9.6-4.3-9.6-9.6s4.3-9.6 9.6-9.6l35.2 0 0-32-35.2 0c-23 0-41.6 18.6-41.6 41.6zm-22.4-25.6l0-12.8c-21.4 0-17.3 0-25 0l-3.6 6.8-22.8 43.1-23.8-43.2-3.6-6.6c-11.2 0-12.5 0-23.6 0l0 128 25.6 0 0-71.2c10.1 18.3 18.7 34 25.8 46.9 6.9-13 15.3-28.9 25.4-47.9l0 72.2 25.6 0 0-115.2z"/></svg>