<svg xmlns="http://www.w3.org/2000/svg" viewBox="0 0 512 512"><!--! Font Awesome Pro 7.0.0 by @fontawesome - https://fontawesome.com License - https://fontawesome.com/license (Commercial License) Copyright 2025 Fonticons, Inc. --><path fill="currentColor" d="M304 16l-33.6 19.4-169.1 97.9C38.6 169.7 0 236.6 0 309 0 421.1 90.9 512 203 512 275.4 512 342.3 473.4 378.6 410.7L476.6 241.6 496 208c-40 3.1-43 3.3-59.9 4.6 1.4-4.1 22.1-62 62-173.7L512 0c-9 3.2-68.9 24.6-179.6 64.1l-33 11.8c2.5-32.5 3.2-41.2 4.6-59.9zM117.3 161.1l150.1-86.9-3.7 48.5c13.9-5 79-28.2 195.4-69.8-41.6 116.4-64.8 181.6-69.8 195.4l48.5-3.7-86.9 150.1c-30.6 52.8-87 85.3-148 85.3-94.4 0-171-76.5-171-171 0-61 32.5-117.4 85.3-148zM296 312a96 96 0 1 1 -192 0 96 96 0 1 1 192 0zM200 184a128 128 0 1 0 0 256 128 128 0 1 0 0-256zm8 96a24 24 0 1 0 -48 0 24 24 0 1 0 48 0zm16 88a16 16 0 1 0 0-32 16 16 0 1 0 0 32z"/></svg>