<svg xmlns="http://www.w3.org/2000/svg" viewBox="0 0 576 512"><!--! Font Awesome Pro 7.0.0 by @fontawesome - https://fontawesome.com License - https://fontawesome.com/license (Commercial License) Copyright 2025 Fonticons, Inc. --><path fill="currentColor" d="M5.6 320L224.1 538.5 570.6 192 352.1-26.5 5.6 320zm435.9 80l22.6 22.6 32-32 0 25.4c0 44.2-35.8 80-80 80-22.6 0-42.9-9.4-57.5-24.5L336 494.2c20.3 20.9 48.7 33.8 80.2 33.8 61.9 0 112-50.1 112-112l0-25.4 32 32 22.6-22.6-70.6-70.6-70.6 70.6zm83.9-208L224.1 493.3 50.9 320 352.1 18.8 525.4 192zM137.5 336l70.6 70.6 22.6-22.6-70.6-70.6-22.6 22.6zM160.1-16c-61.9 0-112 50.1-112 112l0 25.4-32-32-22.6 22.6 70.6 70.6 70.6-70.6-22.6-22.6-32 32 0-25.4c0-44.2 35.8-80 80-80 22.6 0 42.9 9.4 57.5 24.5l22.7-22.7C219.9-3 191.6-16 160.1-16z"/></svg>