<svg xmlns="http://www.w3.org/2000/svg" viewBox="0 0 512 512"><!--! Font Awesome Pro 7.0.0 by @fontawesome - https://fontawesome.com License - https://fontawesome.com/license (Commercial License) Copyright 2025 Fonticons, Inc. --><path fill="currentColor" d="M32 429.7L32 384c34.1 0 62 26.7 63.9 60.3-19.4-2-40.5-6.5-63.9-14.7zM32 352l0-144c49.7 0 90.6-37.8 95.5-86.1 5.9 0 11.7-.2 17.5-.6 45.7-2.8 85.4-16 121.1-27.9l1-.3c36.2-12.1 68.4-22.8 104.6-25.9 4-.3 8.2-.6 12.3-.7 1.3 51.9 43.8 93.5 96 93.5l0 144c-49.7 0-90.6 37.8-95.5 86.1-5.9 0-11.7 .2-17.5 .6-45.7 2.8-85.4 16-121.1 27.9l-.9 .3 0 0c-36.2 12.1-68.4 22.8-104.6 25.9-4 .3-8.2 .6-12.3 .7-1.3-51.9-43.8-93.5-96-93.5zm448-16l0 69.4c-22.3-7-43.4-11.4-63.5-13.5 4-31.5 30.9-55.8 63.5-55.8zM416.1 67.6c19.4 2 40.5 6.5 63.9 14.7l0 45.7c-34.1 0-62-26.7-63.9-60.4zM32 176l0-69.4c22.3 7 43.4 11.4 63.5 13.5-4 31.5-30.9 55.8-63.5 55.8zM32 72.9C21.7 69.4 11 65.2 0 60.3L0 451.7c110.8 45.6 182.4 21.7 253.6-2 65.7-21.9 131-43.7 226.4-10.7 10.3 3.6 21 7.8 32 12.7l0-391.5c-110.8-45.6-182.4-21.7-253.6 2-65.7 21.9-131 43.7-226.4 10.7zM224 208l0 32 16 0 0 32-16 0 0 32 64 0 0-32-16 0 0-64-48 0zm-32 48c0-25.5 8-48 20.1-63.8 12.1-15.8 27.8-24.2 43.9-24.2s31.8 8.4 43.9 24.2C312 208 320 230.5 320 256s-8 48-20.1 63.8C287.8 335.6 272.1 344 256 344s-31.8-8.4-43.9-24.2C200 304 192 281.5 192 256zm64-120c-28.1 0-52.4 14.8-69.3 36.7-16.8 21.8-26.7 51.4-26.7 83.3s9.9 61.4 26.7 83.3C203.6 361.2 227.9 376 256 376s52.4-14.8 69.3-36.7C342.1 317.4 352 287.9 352 256s-9.9-61.4-26.7-83.3C308.4 150.8 284.1 136 256 136z"/></svg>