<svg xmlns="http://www.w3.org/2000/svg" viewBox="0 0 576 512"><!--! Font Awesome Pro 7.0.0 by @fontawesome - https://fontawesome.com License - https://fontawesome.com/license (Commercial License) Copyright 2025 Fonticons, Inc. --><path fill="currentColor" d="M192 96l0 40.5-42.2 35.2-5.8 4.8 0 111.5 128 0 0-111.5-5.8-4.8-42.2-35.2 0-40.5 192 0 0 320-320 0 0-320 96 0zM448 256l0-160 16 0c44.2 0 80 35.8 80 80s-35.8 80-80 80l-16 0zm0 160l0-128 16 0c61.9 0 112-50.1 112-112S525.9 64 464 64l-400 0 0 384 384 0 0-32zM176 191.5l32-26.7 32 26.7 0 64.5-64 0 0-64.5z"/></svg>