<svg xmlns="http://www.w3.org/2000/svg" viewBox="0 0 576 512"><!--! Font Awesome Pro 7.0.0 by @fontawesome - https://fontawesome.com License - https://fontawesome.com/license (Commercial License) Copyright 2025 Fonticons, Inc. --><path fill="currentColor" d="M224 64l0 40.5 42.2 35.2 5.8 4.8 0 111.5-128 0 0-111.5 5.8-4.8 42.2-35.2 0-40.5-96 0 0 304 320 0 0-304-192 0zm224 0l0 160 16 0c44.2 0 80-35.8 80-80s-35.8-80-80-80l-16 0zm0 192l0 144-384 0 0-368 400 0c61.9 0 112 50.1 112 112S525.9 256 464 256l-16 0zM32 480l448 0 0 32-448 0 0-32zM176 159.5l0 64.5 64 0 0-64.5-32-26.7-32 26.7z"/></svg>