<svg xmlns="http://www.w3.org/2000/svg" viewBox="0 0 512 512"><!--! Font Awesome Pro 7.0.0 by @fontawesome - https://fontawesome.com License - https://fontawesome.com/license (Commercial License) Copyright 2025 Fonticons, Inc. --><path fill="currentColor" d="M261.3 32.1c1.8 5 2.7 10.4 2.7 15.9 0 26.5-21.5 48-48 48-25.9 0-46.9-20.5-48-46.1 27-11.5 56.7-17.9 88-17.9 1.8 0 3.5 0 5.3 .1zM295 35.4C400.1 53.8 480 145.6 480 256l0 32-448 0 0-32c0-80.4 42.3-150.9 105.9-190.4 8 35.7 39.9 62.4 78.1 62.4 44.2 0 80-35.8 80-80 0-4.3-.3-8.5-1-12.6zM32 320l148 0c-12.7 101.3-19.3 154.7-20 160l192 0-20-160 180 0 0-64C512 114.6 397.4 0 256 0S0 114.6 0 256l0 64 32 0zM196.2 448l16-128 87.5 0 16 128-119.5 0zM128 240a32 32 0 1 0 0-64 32 32 0 1 0 0 64zm240-80a16 16 0 1 1 0 32 16 16 0 1 1 0-32zm0 64a48 48 0 1 0 0-96 48 48 0 1 0 0 96z"/></svg>