<svg xmlns="http://www.w3.org/2000/svg" viewBox="0 0 576 512"><!--! Font Awesome Pro 7.0.0 by @fontawesome - https://fontawesome.com License - https://fontawesome.com/license (Commercial License) Copyright 2025 Fonticons, Inc. --><path fill="currentColor" d="M64 64l384 0 0 112 32 0 0-144-448 0 0 448 275.3 0-2.3-32-241 0 0-384zm320 80l0-16-144 0 0 82.7c-18.6 6.6-32 24.4-32 45.3 0 26.5 21.5 48 48 48 5.6 0 11-1 16-2.7l0-141.3 80 0 0 16 32 0 0-32zM160 352l0-192 32 0 0-32-64 0 0 256 144 0 0-32-112 0zM393.3 224c-.4 .8-8.4 16.8-24 48l-49.3 0 0 32 256 0 0-32-49.3 0c-15.6-31.2-23.6-47.2-24-48l-109.4 0zm19.8 32l69.8 0 8 16-85.8 0 8-16zm-67.9 80.1l14.9 207.9 176 0 14.9-207.9-32.1 0-12.6 175.9-116.4 0-12.6-175.9-32.1 0z"/></svg>