<svg xmlns="http://www.w3.org/2000/svg" viewBox="0 0 448 512"><!--! Font Awesome Pro 7.0.0 by @fontawesome - https://fontawesome.com License - https://fontawesome.com/license (Commercial License) Copyright 2025 Fonticons, Inc. --><path fill="currentColor" d="M416 64l0 384-384 0 0-384 384 0zM32 32l-32 0 0 448 448 0 0-448-416 0zm64 96l0 256 256 0 0-256-144 0 0 82.7c-18.6 6.6-32 24.4-32 45.3 0 26.5 21.5 48 48 48s48-21.5 48-48c0-20.9-13.4-38.7-32-45.3l0-50.7 80 0 0 192-192 0 0-192 32 0 0-32-64 0zM224 272a16 16 0 1 1 0-32 16 16 0 1 1 0 32z"/></svg>