<svg xmlns="http://www.w3.org/2000/svg" viewBox="0 0 448 512"><!--! Font Awesome Pro 7.0.0 by @fontawesome - https://fontawesome.com License - https://fontawesome.com/license (Commercial License) Copyright 2025 Fonticons, Inc. --><path fill="currentColor" d="M178.8-6.5l9.8 12.6 256 328 3.4 4.3 0 173.5-448 0 0-104c0-66.3 53.7-120 120-120l8 0 0 32-8 0c-48.6 0-88 39.4-88 88l0 72 64 0 0-8c0-39.8 32.2-72 72-72s72 32.2 72 72l0 8 176 0 0-130.5-252.6-323.7-9.8-12.6 25.2-19.7zM208 480l0-8c0-22.1-17.9-40-40-40s-40 17.9-40 40l0 8 80 0z"/></svg>