<svg xmlns="http://www.w3.org/2000/svg" viewBox="0 0 512 512"><!--! Font Awesome Pro 7.0.0 by @fontawesome - https://fontawesome.com License - https://fontawesome.com/license (Commercial License) Copyright 2025 Fonticons, Inc. --><path fill="currentColor" d="M32 338.7L32 173.3 173.3 32 338.7 32 480 173.3 480 338.7 338.7 480 173.3 480 32 338.7zM160 0L0 160 0 352 160 512 352 512 512 352 512 160 352 0 160 0zM280 136l-48 0 0 48 48 0 0-48zM160 240l-16 0 0 32 224 0 0-32-208 0zm72 88l0 48 48 0 0-48-48 0z"/></svg>