<svg xmlns="http://www.w3.org/2000/svg" viewBox="0 0 576 512"><!--! Font Awesome Pro 7.0.0 by @fontawesome - https://fontawesome.com License - https://fontawesome.com/license (Commercial License) Copyright 2025 Fonticons, Inc. --><path fill="currentColor" d="M538.8 224.1c6.9 25.6-8.3 51.9-33.9 58.8l-15.5 4.1-66.3-247.3 15.5-4.1c25.6-6.9 51.9 8.3 58.8 33.9l41.4 154.5zM528.3 61.3c-11.4-42.7-55.3-68-98-56.6-7.7 2.1-23.2 6.2-46.4 12.4 2.1 7.9 14.4 53.9 36.9 137.8L300.6 186.1c-10.1-29.6-16.7-49-19.9-58.1l-17.4 0c-2.2 6.4-10.7 31.2-25.4 74.4l-141.9 36.8 0-79.2-32 0 0 320-64 0 0 32 576 0 0-32-175.1 0-1.8-5.2-70.3-205.9-31.1 8.1 28.3 83-108.2 0 23.3-68.4-37.1 9.6-59.3 173.6-1.8 5.2-47.1 0 0-207.8 333.2-86.4c23.1 86.1 35.6 132.9 37.6 140.4 23.2-6.2 38.6-10.4 46.4-12.4 42.7-11.4 68-55.3 56.6-98L528.3 61.3zM337 392l30 88-190.2 0 30-88 130.1 0z"/></svg>