<svg xmlns="http://www.w3.org/2000/svg" viewBox="0 0 512 512"><!--! Font Awesome Pro 7.0.0 by @fontawesome - https://fontawesome.com License - https://fontawesome.com/license (Commercial License) Copyright 2025 Fonticons, Inc. --><path fill="currentColor" d="M480 96l0 320-448 0 0-320 448 0zM32 64l-32 0 0 384 512 0 0-384-480 0zM328 192l32 0c13.3 0 24 10.7 24 24l0 16 32 0 0-16c0-30.9-25.1-56-56-56l-32 0c-30.9 0-56 25.1-56 56l0 80c0 30.9 25.1 56 56 56l32 0c30.9 0 56-25.1 56-56l0-16-32 0 0 16c0 13.3-10.7 24-24 24l-32 0c-13.3 0-24-10.7-24-24l0-80c0-13.3 10.7-24 24-24zM128 216c0-13.3 10.7-24 24-24l32 0c13.3 0 24 10.7 24 24l0 80c0 13.3-10.7 24-24 24l-32 0c-13.3 0-24-10.7-24-24l0-80zm24-56c-30.9 0-56 25.1-56 56l0 80c0 30.9 25.1 56 56 56l32 0c30.9 0 56-25.1 56-56l0-80c0-30.9-25.1-56-56-56l-32 0z"/></svg>