<svg xmlns="http://www.w3.org/2000/svg" viewBox="0 0 512 512"><!--! Font Awesome Pro 7.0.0 by @fontawesome - https://fontawesome.com License - https://fontawesome.com/license (Commercial License) Copyright 2025 Fonticons, Inc. --><path fill="currentColor" d="M260.9 18.4c50-50 131-50 181 0s50 131 0 181L272.2 369.1c-31.2 31.2-81.9 31.2-113.1 0s-31.2-81.9 0-113.1l158.4-158.4 11.3-11.3 22.6 22.6-11.3 11.3-158.4 158.4c-18.7 18.7-18.7 49.1 0 67.9s49.1 18.7 67.9 0L419.3 176.8c37.5-37.5 37.5-98.3 0-135.8S321 3.5 283.5 41L91.2 233.4c-56.2 56.2-56.2 147.4 0 203.6s147.4 56.2 203.6 0l169.7-169.7 22.6 22.6-11.3 11.3-158.4 158.4c-68.7 68.7-180.2 68.7-248.9 0s-68.7-180.2 0-248.9L260.9 18.4z"/></svg>