<svg xmlns="http://www.w3.org/2000/svg" viewBox="0 0 576 512"><!--! Font Awesome Pro 7.0.0 by @fontawesome - https://fontawesome.com License - https://fontawesome.com/license (Commercial License) Copyright 2025 Fonticons, Inc. --><path fill="currentColor" d="M448.4 32c-61.9 0-112 50.1-112 112l0 16-28.4 0-3.8-2.3-133.8-80.3c7.1 51.8 32.2 90.5 57.7 117.6 15.1 16 30.1 27.8 41.4 35.5 5.6 3.9 10.3 6.7 13.5 8.6 1.6 .9 2.8 1.6 3.6 2l.9 .5 .2 .1 0 0 0 0 0 0 14.3 7.1-14.3 28.6-14.3-7.2 7.2-14.3c-7.2 14.3-7.2 14.3-7.2 14.3l0 0 0 0-.1-.1-.4-.2c-.3-.2-.7-.4-1.3-.7-1.1-.6-2.6-1.4-4.5-2.5-3.8-2.2-9.2-5.5-15.5-9.9-12.7-8.7-29.6-22-46.6-40-33.9-36.1-68.3-91.8-68.3-169l0-28.3 24.2 14.5 145.5 87.3C316.9 52.7 376.5 0 448.4 0l112 0 0 32-20.8 0 20.7 20.7 4.1 4.1 .5 5.7 11.4 120 .9 9.8-8.4 5.2c-51.1 32-76.9 48-77.2 48.2-2.6-4-14.6-21.9-35.9-53.8l-7.4 0 0 48c0 30.9-12.4 58.4-32 78.4l0 193.6-112 0 0-164.4-88-19.8 0 19.7c-.5 1.3-2 4.8-4.5 10.6L195.6 396c21.2 76.4 32 115.1 32.2 116l-116.2 0-3.3-11.7-25.9-93.3c-2.9-10.4-4.6-16.7-5.3-19 .9-2.2 3.5-8.2 7.8-18.1l19.5-45.4 0-1.3-33.6-80.7c-4.2-10.1-6.4-20.8-6.4-31.7-18.6 6.6-32 24.4-32 45.3l0 64-32 0 0-64c0-41.3 31.3-75.2 71.4-79.5 9-19.8 25.6-35.4 46-43.1 3.4 10.5 7.4 20.4 11.8 29.8-19.4 7.1-33.2 25.7-33.2 47.6 0 6.7 1.3 13.3 3.9 19.5l34.9 83.7 1.2 3 0 14.3-1.3 3-20.8 48.5-3.3 7.8 2.3 8.1 22.7 81.6 49.8 0-22.5-80.9-1.5-5.4 2.2-5.2 18.5-43.1 1.9-4.5 0-53.1 19.5 4.4 114.9 25.9c1.4 .3 2.8 .6 4.3 .8l13.3 2.3 0 158.8 48 0 0-175.6 5.3-4.8C406 285.1 416.4 264 416.4 240l0-80 56.6 0 4.7 7.1 23.4 35.1 42.4-26.5-9.9-104.4-39.2-39.2-45.9 0zm32 48a16 16 0 1 1 0 32 16 16 0 1 1 0-32z"/></svg>