<svg xmlns="http://www.w3.org/2000/svg" viewBox="0 0 512 512"><!--! Font Awesome Pro 7.0.0 by @fontawesome - https://fontawesome.com License - https://fontawesome.com/license (Commercial License) Copyright 2025 Fonticons, Inc. --><path fill="currentColor" d="M256 32a224 224 0 1 1 0 448 224 224 0 1 1 0-448zm0 480a256 256 0 1 0 0-512 256 256 0 1 0 0 512zM166.2 295.1l109.1-109.1 50.7 50.7-109.1 109.1-59.2 8.5 8.5-59.2zM297.9 163.3l30.1-30.1 50.7 50.7-30.1 30.1-50.7-50.7zM424 184c-10.4-10.4-34.9-34.9-73.4-73.4L328 88 305.4 110.6 136 280c-8.6 60.3-14 97.7-16 112 14.3-2 51.7-7.4 112-16L401.4 206.6 424 184z"/></svg>