<svg xmlns="http://www.w3.org/2000/svg" viewBox="0 0 448 512"><!--! Font Awesome Pro 7.0.0 by @fontawesome - https://fontawesome.com License - https://fontawesome.com/license (Commercial License) Copyright 2025 Fonticons, Inc. --><path fill="currentColor" d="M96 32a32 32 0 1 1 0 64 32 32 0 1 1 0-64zm0 96A64 64 0 1 0 96 0 64 64 0 1 0 96 128zm64 64l0 128-128 0 0-128 128 0zM32 160l-32 0 0 192 32 0 0 160 32 0 0-160 64 0 0 160 32 0 0-160 32 0 0-192-160 0zM352 32a32 32 0 1 1 0 64 32 32 0 1 1 0-64zm0 96a64 64 0 1 0 0-128 64 64 0 1 0 0 128zm64 64l0 128-128 0 0-128 128 0zM288 160l-32 0 0 192 32 0 0 160 32 0 0-160 64 0 0 160 32 0 0-160 32 0 0-192-160 0z"/></svg>