<svg xmlns="http://www.w3.org/2000/svg" viewBox="0 0 576 512"><!--! Font Awesome Pro 7.0.0 by @fontawesome - https://fontawesome.com License - https://fontawesome.com/license (Commercial License) Copyright 2025 Fonticons, Inc. --><path fill="currentColor" d="M295.6 17.7l-7.2-3.6-7.2 3.6-256 128-14.3 7.2 14.3 28.6 14.3-7.2 248.8-124.4 248.8 124.4 14.3 7.2 14.3-28.6-14.3-7.2-256-128zM256.5 224a32 32 0 1 1 64 0 32 32 0 1 1 -64 0zm96 0a64 64 0 1 0 -128 0 64 64 0 1 0 128 0zm-64 96c-70.7 0-128 57.3-128 128l0 32 32 0 0-32c0-53 43-96 96-96s96 43 96 96l0 32 32 0 0-32c0-70.7-57.3-128-128-128zm-160-96a24 24 0 1 1 0 48 24 24 0 1 1 0-48zm0 80a56 56 0 1 0 0-112 56 56 0 1 0 0 112zm320-80a24 24 0 1 1 0 48 24 24 0 1 1 0-48zm0 80a56 56 0 1 0 0-112 56 56 0 1 0 0 112zm-320 48c-53 0-96 43-96 96l0 32 32 0 0-32c0-34 26.5-61.8 59.9-63.9 4.3-11 9.7-21.6 16-31.4-3.9-.5-7.9-.7-12-.7zm324.1 32.1c33.5 2.1 59.9 29.9 59.9 63.9l0 32 32 0 0-32c0-53-43-96-96-96-4.1 0-8.1 .3-12 .7 6.3 9.8 11.7 20.3 16 31.4z"/></svg>