<svg xmlns="http://www.w3.org/2000/svg" viewBox="0 0 512 512"><!--! Font Awesome Pro 7.0.0 by @fontawesome - https://fontawesome.com License - https://fontawesome.com/license (Commercial License) Copyright 2025 Fonticons, Inc. --><path fill="currentColor" d="M128 32a32 32 0 1 1 0 64 32 32 0 1 1 0-64zm0 96a64 64 0 1 0 0-128 64 64 0 1 0 0 128zm64 64l0 128-128 0 0-128 128 0zM64 160l-32 0 0 192 32 0 0 160 32 0 0-160 64 0 0 160 32 0 0-160 32 0 0-192-160 0zM384 32a32 32 0 1 1 0 64 32 32 0 1 1 0-64zm0 96a64 64 0 1 0 0-128 64 64 0 1 0 0 128zm-39.9 64l79.7 0 45.7 160-171.2 0 45.7-160zM448 160l-128 0-54.9 192-9.1 32 64 0 0 128 32 0 0-128 64 0 0 128 32 0 0-128 64 0-9.1-32-54.9-192z"/></svg>