<svg xmlns="http://www.w3.org/2000/svg" viewBox="0 0 448 512"><!--! Font Awesome Pro 7.0.0 by @fontawesome - https://fontawesome.com License - https://fontawesome.com/license (Commercial License) Copyright 2025 Fonticons, Inc. --><path fill="currentColor" d="M176.1 80a48 48 0 1 1 96 0 48 48 0 1 1 -96 0zm128 0a80 80 0 1 0 -160 0 80 80 0 1 0 160 0zm-176 112l-8.6 0-4.7 7.1-96 144-2.7 4 0 77.9 9.3 4.3 176 81.2 13.4-29.1-166.7-76.9 0-47.7 88.6-132.8 176.5 0 100 106.5 0 31-88.6 91.3-11.1 11.5 23 22.3 11.1-11.5 93.1-96 4.5-4.7 0-56.7-4.3-4.6-109.1-116.1-4.7-5-198.9 0zm64 128l0-16-32 0 0 71.2 5.4 4.8 72 64 4.5 4 62.1 0 0-32-49.9 0-62.1-55.2 0-40.8zm80 0a16 16 0 1 1 0 32 16 16 0 1 1 0-32zm0 64a48 48 0 1 0 0-96 48 48 0 1 0 0 96z"/></svg>