<svg xmlns="http://www.w3.org/2000/svg" viewBox="0 0 512 512"><!--! Font Awesome Pro 7.0.0 by @fontawesome - https://fontawesome.com License - https://fontawesome.com/license (Commercial License) Copyright 2025 Fonticons, Inc. --><path fill="currentColor" d="M216.2 40a24 24 0 1 1 48 0 24 24 0 1 1 -48 0zm80 0a56 56 0 1 0 -112 0 56 56 0 1 0 112 0zm-208 88l-8.1 0-4.8 6.6-64 88-9.4 12.9 25.9 18.8 9.4-12.9 59.2-81.4 56.5 0-38.9 100c-7 17.9-7.3 37.8-.8 55.9l27.8 77.8-133.6 89.1-13.3 8.9 17.8 26.6 13.3-8.9 144-96 10.4-6.9-4.2-11.8-26.6-74.6 66 0 60.1 42.1 46.3 139 5.1 15.2 30.4-10.1-53.1-159.2-1.7-5-4.3-3-69.8-48.9 38-101.3 23.9 57.4 3.4 8.2 8.7 1.5 111.8 18.6 5.3-31.6-15.8-2.6-87.3-14.5-36.6-87.8-4.1-9.8-186.7 0zM194.1 288l-53.6 0c.1-5.6 1.2-11.2 3.3-16.4l43.4-111.6 55 0-.9 2.4-47.1 125.6zm222.1 96a32 32 0 1 1 64 0 32 32 0 1 1 -64 0zm96 0a64 64 0 1 0 -128 0 64 64 0 1 0 128 0z"/></svg>