<svg xmlns="http://www.w3.org/2000/svg" viewBox="0 0 320 512"><!--! Font Awesome Pro 7.0.0 by @fontawesome - https://fontawesome.com License - https://fontawesome.com/license (Commercial License) Copyright 2025 Fonticons, Inc. --><path fill="currentColor" d="M152 24a24 24 0 1 0 -48 0 24 24 0 1 0 48 0zM72 24A56 56 0 1 1 184 24 56 56 0 1 1 72 24zm-8 88l106.4 0 4.2 9.5 59.8 134.5 85.6 0 0 32-106.4 0-4.2-9.5-33.4-75.1 0 152.6 41.6 31.2 6.4 4.8 0 152-32 0 0-136-121.6-91.2-6.4-4.8 0-200zm80 220l0-188-48 0 0 152 48 36zM64 371.9c1.1 .8 2.1 1.7 3.2 2.5l28.8 21.6 0 148-32 0 0-172.1z"/></svg>