<svg xmlns="http://www.w3.org/2000/svg" viewBox="0 0 576 512"><!--! Font Awesome Pro 7.0.0 by @fontawesome - https://fontawesome.com License - https://fontawesome.com/license (Commercial License) Copyright 2025 Fonticons, Inc. --><path fill="currentColor" d="M566.6 64l-22.6 22.6-11.3-11.3-52.7-52.7 0 185.4-32 0 0-185.4-52.7 52.7-11.3 11.3-22.6-22.6 11.3-11.3 80-80 11.3-11.3 11.3 11.3 80 80 11.3 11.3zM192 48a24 24 0 1 0 0-48 24 24 0 1 0 0 48zm0-80a56 56 0 1 1 0 112 56 56 0 1 1 0-112zm-68 144l136.1 0 4.7 7.7 92.9 152 8.3 13.7-27.3 16.7-8.3-13.7-58.4-95.4 0 319.1 304 0 0 32-576 0 0-32 112 0 0-319.1-58.3 95.4-8.3 13.7-27.3-16.7 8.3-13.7 92.9-152 4.7-7.7zM144 512l96 0 0-144-96 0 0 144zm96-368l-96 0 0 192 96 0 0-192z"/></svg>