<svg xmlns="http://www.w3.org/2000/svg" viewBox="0 0 512 512"><!--! Font Awesome Pro 7.0.0 by @fontawesome - https://fontawesome.com License - https://fontawesome.com/license (Commercial License) Copyright 2025 Fonticons, Inc. --><path fill="currentColor" d="M392.2 112a24 24 0 1 0 0-48 24 24 0 1 0 0 48zm0-80a56 56 0 1 1 0 112 56 56 0 1 1 0-112zM417 475.4L9 270.3 23.4 241.7 425.1 443.7c38.7-14.6 60.2-22.7 64.4-24.3l11.3 29.9c-3.1 1.2-26.8 10.1-71 26.8l-6.6 2.5-6.3-3.2zM160.2 144l160 0 11.3 27.3-100.7 100.7 137.4 0 0 112-32 0 0-80-105.4 0c-28.5 0-42.8-34.5-22.6-54.6l73.4-73.4-137.4 0 0-32 16 0z"/></svg>