<svg xmlns="http://www.w3.org/2000/svg" viewBox="0 0 576 512"><!--! Font Awesome Pro 7.0.0 by @fontawesome - https://fontawesome.com License - https://fontawesome.com/license (Commercial License) Copyright 2025 Fonticons, Inc. --><path fill="currentColor" d="M448.1 72a24 24 0 1 0 -48 0 24 24 0 1 0 48 0zm-80 0a56 56 0 1 1 112 0 56 56 0 1 1 -112 0zM188.3 41.7l13.1 9.2 272 192 13.1 9.2-18.5 26.1-13.1-9.2-74.6-52.7-88.1 75.5 38.2 31.8 5.8 4.8 0 122.8 103.3 20.2c41-11.7 63.6-18.2 67.7-19.3l8.8 30.8c-3.5 1-27.3 7.8-71.4 20.4-2.4 .7-5 .8-7.5 .3l-368-72c-3.1-.6-6-2.1-8.2-4.4-31.5-31.5-48.6-48.6-51.3-51.3l22.6-22.6c3.3 3.3 19.3 19.3 47.9 47.9l96.1 18.8 0-135c0-23.1 10-45 27.3-60.2l84.3-73.8-104.8-74-13.1-9.2 18.5-26.1zm19.8 384.6l96 18.8 0-101.6-90.2-75.2c-.7-.6-1.4-1.3-2-1.9-2.5 5.8-3.8 12.2-3.8 18.7l0 141.3zm145.2-229l-38.7-27.3-82.4 72.1c.7 .4 1.5 .9 2.2 1.5l32.9 27.4 86-73.8z"/></svg>