<svg xmlns="http://www.w3.org/2000/svg" viewBox="0 0 384 512"><!--! Font Awesome Pro 7.0.0 by @fontawesome - https://fontawesome.com License - https://fontawesome.com/license (Commercial License) Copyright 2025 Fonticons, Inc. --><path fill="currentColor" d="M168.3 24a24 24 0 1 1 48 0 24 24 0 1 1 -48 0zm80 0a56 56 0 1 0 -112 0 56 56 0 1 0 112 0zm-99.1 88l-8.2 0-4.8 6.7-108.9 152-9.3 13 26 18.6 9.3-13 75.9-105.9-54.6 168.6-10.4 32 64 0 0 160 32 0 0-160 16 0 0-32-68 0 67.3-208 .7 0 0-32-27.1 0zm91.1 256l0 176 32 0 0-351.1 58.4 95.4 8.3 13.7 27.3-16.7-8.3-13.7-92.9-152-4.7-7.7-52 0 0 32 32 0 0 192-32 0 0 32 32 0z"/></svg>