<svg xmlns="http://www.w3.org/2000/svg" viewBox="0 0 512 512"><!--! Font Awesome Pro 7.0.0 by @fontawesome - https://fontawesome.com License - https://fontawesome.com/license (Commercial License) Copyright 2025 Fonticons, Inc. --><path fill="currentColor" d="M192.2 96a24 24 0 1 0 0-48 24 24 0 1 0 0 48zm0-80a56 56 0 1 1 0 112 56 56 0 1 1 0-112zM147.7 160l121 0 3 12.1 45 179.9 77.4 0 4.4 8.8 57.8 115.6c26.5-8.8 43.2-14.4 50-16.7l10.1 30.4c-4.6 1.5-25.7 8.6-63.2 21.1l-13.2 4.4-6.2-12.4-59.6-119.2-69.8 0c-.2 0-.5 0-.7 0l-37.7 0c-36.7 0-68.7-25-77.6-60.6l-35.9-143.5-5-19.9zm136 192l-40-160-55 0 30.9 123.6C225 337 244.2 352 266.2 352l17.5 0zM95.8 172.3l61.1 259.7 163.3 0 0 32-188.7 0-2.9-12.3-64-272-3.7-15.6 31.1-7.3 3.7 15.6z"/></svg>