<svg xmlns="http://www.w3.org/2000/svg" viewBox="0 0 448 512"><!--! Font Awesome Pro 7.0.0 by @fontawesome - https://fontawesome.com License - https://fontawesome.com/license (Commercial License) Copyright 2025 Fonticons, Inc. --><path fill="currentColor" d="M352.1 0l-14.1 0 60.4 120.8 7 14c-1.1 .6-26.6 14-76.5 40.3l43.5 111.9c7.8 20.1 11 41.7 9.4 63.2l-13.8 178.9-1.2 16-31.9-2.5 1.2-16 13.4-174.8-55.6 0-.5 .8-120 184-8.7 13.4-26.8-17.5 8.7-13.4 115.4-177-52.8-128.2-5.8-14 13.7-6.5 83.7-39.9 61.9-32.6-60.6-121.1-187 0-20.1 53.6-3.9 10.4-98.2 0c2.8-7.3 13.5-35.9 32.1-85.6L29-32 311.5-32c.4 0 .8 0 1.2 0l55.4 0 0 32-16 0zM287.5 320l61.1 0c-1.3-7.3-3.3-14.4-5.9-21.3l-42.4-109.2-55.5 26.4 42.8 104.1zM248.1 96a24 24 0 1 0 -48 0 24 24 0 1 0 48 0zm-80 0a56 56 0 1 1 112 0 56 56 0 1 1 -112 0zM81 0L51.2 0 39.2 32 69 32 81 0z"/></svg>