<svg xmlns="http://www.w3.org/2000/svg" viewBox="0 0 512 512"><!--! Font Awesome Pro 7.0.0 by @fontawesome - https://fontawesome.com License - https://fontawesome.com/license (Commercial License) Copyright 2025 Fonticons, Inc. --><path fill="currentColor" d="M434.6 19.1l-2.8 15.8-80 448-2.8 15.8-31.5-5.6 2.8-15.8 80-448 2.8-15.8 31.5 5.6zM16 162.7C16 108.2 60.2 64 114.7 64l125.3 0 0 32-125.3 0c-36.9 0-66.7 29.9-66.7 66.7 0 32.3 23.2 60 55 65.7l84 15c49.2 8.8 85 51.5 85 101.5 0 56.9-46.2 103.1-103.1 103.1l-136.9 0 0-32 136.9 0c39.3 0 71.1-31.8 71.1-71.1 0-34.4-24.7-63.9-58.6-70l-84-15C50.3 251.5 16 210.6 16 162.7zM480 392a24 24 0 1 1 0 48 24 24 0 1 1 0-48z"/></svg>