<svg xmlns="http://www.w3.org/2000/svg" viewBox="0 0 640 512"><!--! Font Awesome Pro 7.0.0 by @fontawesome - https://fontawesome.com License - https://fontawesome.com/license (Commercial License) Copyright 2025 Fonticons, Inc. --><path fill="currentColor" d="M576 32l-352 0 0 288 144 0 0 32-176 0 0-352 416 0 0 177.9-32 6.7 0-152.5zM224 448l56.3 0c-4.3 9.8-7.1 20.5-8 32l-272.3 0 0-352 144 0 0 32-16 0 0 288 96 0zM526.6 194.8l-33.9 7.1-37.1-54.3c-32.3 43.8-49.6 67.3-52 70.5-7.5-7.5-18.8-18.8-34.1-34.1l-56.5 71.9 55.1 0 0 32-120.9 0c2.3-2.9 38.4-48.9 108.3-137.9l11.1-14.2c7.2 7.2 18.3 18.3 33.3 33.3 33.8-45.9 52.7-71.5 56.6-76.9 1 1.5 24.4 35.7 70.1 102.5zM288 72a24 24 0 1 1 0 48 24 24 0 1 1 0-48zM96 240l0-80-64 0 0 80 64 0zm0 208l0-80-64 0 0 80 64 0zm0-176l-64 0 0 64 64 0 0-64zm544-32.2l0 216.2c0 30.7-28.4 56-64 56s-64-25.3-64-56 28.4-56 64-56c11.7 0 22.6 2.7 32 7.5l0-68-160 33.3 0 115.2c0 30.7-28.4 56-64 56s-64-25.3-64-56 28.4-56 64-56c11.7 0 22.6 2.7 32 7.5l0-172.7 12.7-2.7 192-40 19.3-4 0 19.7zm-32 67l0-47.3-160 33.3 0 47.3 160-33.3zM352 487.9c0 9.6 10.4 24 32 24s32-14.4 32-24-10.4-24-32-24-32 14.4-32 24zm224-56c-21.6 0-32 14.4-32 24s10.4 24 32 24 32-14.4 32-24-10.4-24-32-24z"/></svg>