<svg xmlns="http://www.w3.org/2000/svg" viewBox="0 0 512 512"><!--! Font Awesome Pro 7.0.0 by @fontawesome - https://fontawesome.com License - https://fontawesome.com/license (Commercial License) Copyright 2025 Fonticons, Inc. --><path fill="currentColor" d="M201.7 272L32 272 32 400c0 44.2 35.8 80 80 80 33.6 0 62.4-20.7 74.2-50.1 4.3 12.6 9.8 24.5 16.5 35.8-20.4 28-53.4 46.3-90.7 46.3-61.9 0-112-50.1-112-112L0 112C0 50.1 50.1 0 112 0S224 50.1 224 112l0 129c-8.4 9.5-15.9 19.9-22.3 31zM192 240l0-128c0-44.2-35.8-80-80-80S32 67.8 32 112l0 128 160 0zm86.3 195.1L435.1 278.3c-18.7-14-41.9-22.3-67.1-22.3-61.9 0-112 50.1-112 112 0 25.2 8.3 48.4 22.3 67.1zm22.6 22.6c18.7 14 41.9 22.3 67.1 22.3 61.9 0 112-50.1 112-112 0-25.2-8.3-48.4-22.3-67.1L300.9 457.7zM368 224a144 144 0 1 1 0 288 144 144 0 1 1 0-288z"/></svg>