<svg xmlns="http://www.w3.org/2000/svg" viewBox="0 0 576 512"><!--! Font Awesome Pro 7.0.0 by @fontawesome - https://fontawesome.com License - https://fontawesome.com/license (Commercial License) Copyright 2025 Fonticons, Inc. --><path fill="currentColor" d="M391.8 120.2C406.8 105.1 421.9 90.1 437 75 429.5 67.4 421.4 60.3 413 53.8 369.6 20.1 315.2 0 256 0 114.6 0 0 114.6 0 256S114.6 512 256 512c59.2 0 113.6-20.1 157-53.8 8.5-6.6 16.5-13.7 24-21.2-64.1-64.1-83-83-158.4-158.4L256 256c3.8-3.8 41.5-41.5 113.1-113.1l22.6-22.6zM367.2 99.5C335.9 77.1 297.5 64 256 64 150 64 64 150 64 256s86 192 192 192c41.5 0 79.9-13.1 111.2-35.5l22.9 22.9C352.7 463.4 306.3 480 256 480 132.3 480 32 379.7 32 256S132.3 32 256 32c50.3 0 96.7 16.6 134.2 44.6L367.2 99.5zm-23 290c-25.3 16.8-55.6 26.5-88.2 26.5-88.4 0-160-71.6-160-160S167.6 96 256 96c32.6 0 62.9 9.8 88.2 26.5-88.6 88.6-133.1 133.1-133.5 133.5 .4 .4 44.9 44.9 133.5 133.5zm155.2 .7l-22.9-22.9C498.9 335.9 512 297.5 512 256s-13.1-79.9-35.5-111.2l22.9-22.9c28 37.4 44.6 83.8 44.6 134.2s-16.6 96.7-44.6 134.2zM480 256c0 32.6-9.8 62.9-26.5 88.2l-88.2-88.2 88.2-88.2C470.2 193.1 480 223.4 480 256zM342.6 233.4L320 256c3.8 3.8 41.5 41.5 113.1 113.1l0 0 22.6 22.6 0 0c15.1 15.1 30.2 30.2 45.3 45.3 7.6-7.6 14.6-15.6 21.2-24 33.7-43.3 53.8-97.8 53.8-157S555.9 142.4 522.2 99c-6.6-8.4-13.6-16.5-21.2-24l0 0c-64.1 64.1-83 83-158.4 158.4zM160 280a24 24 0 1 0 0-48 24 24 0 1 0 0 48zm88-112a24 24 0 1 0 -48 0 24 24 0 1 0 48 0zM224 376a24 24 0 1 0 0-48 24 24 0 1 0 0 48z"/></svg>