<svg xmlns="http://www.w3.org/2000/svg" viewBox="0 0 576 512"><!--! Font Awesome Pro 7.0.0 by @fontawesome - https://fontawesome.com License - https://fontawesome.com/license (Commercial License) Copyright 2025 Fonticons, Inc. --><path fill="currentColor" d="M513.1 279.3c17.4 3.1 29 19.7 26 37.1s-19.7 29-37.1 26l-386-68.1-7.9-1.4-57.8-10.2-.8-146.4 20.8 3.7 45.4 83.2 3.7 6.7 7.6 1.3c68.6 12.1 104.7 18.5 108.5 19.1l-3.3-22-26.4-178.2 50 8.8 136.2 213.7 3.8 5.9 6.9 1.2 110.3 19.4zm57.5 42.6c6.1-34.8-17.1-68-51.9-74.1l-103.4-18.2-136.2-213.7-3.8-5.9-6.9-1.2C206.3-2.3 172.8-8.2 167.7-9.1l3.3 22 26.4 178.2-57.2-10.1-45.4-83.2-3.7-6.7-7.6-1.3C47.2 83.4 25.1 79.5 17.3 78.1l.1 19.2 1 178.9 .1 13.4 13.2 2.3 70.9 12.5 7.9 1.4 386 68.1c34.8 6.1 68-17.1 74.1-51.9zM225.3 423a24 24 0 1 0 0-48 24 24 0 1 0 0 48zm118.5-7.3a24 24 0 1 0 -48 0 24 24 0 1 0 48 0zM16 480l-16 0 0 32 576 0 0-32-560 0z"/></svg>