<svg xmlns="http://www.w3.org/2000/svg" viewBox="0 0 448 512"><!--! Font Awesome Pro 7.0.0 by @fontawesome - https://fontawesome.com License - https://fontawesome.com/license (Commercial License) Copyright 2025 Fonticons, Inc. --><path fill="currentColor" d="M416 224c0 66.5-33.8 125.1-85.2 159.6L325.1 424C398 387 448 311.4 448 224 448 100.3 347.7 0 224 0S0 100.3 0 224c0 87.4 50 163 122.9 200l-5.8-40.4C65.8 349.1 32 290.5 32 224 32 118 118 32 224 32s192 86 192 192zm-96 0c0 22-7.4 42.2-19.8 58.4l20.4 25.5c19.5-22.5 31.4-51.8 31.4-83.9 0-70.7-57.3-128-128-128S96 153.3 96 224c0 32.1 11.8 61.5 31.4 83.9l20.4-25.5c-12.4-16.2-19.8-36.4-19.8-58.4 0-53 43-96 96-96s96 43 96 96zm-96-16a16 16 0 1 1 0 32 16 16 0 1 1 0-32zm0 64a48 48 0 1 0 0-96 48 48 0 1 0 0 96zm12.2 208l-24.5 0-18.1-126.8 13.7-17.2 33.2 0 13.7 17.2-18.1 126.8zM160 344l24 168 80 0 24-168-32-40-64 0-32 40z"/></svg>