<svg xmlns="http://www.w3.org/2000/svg" viewBox="0 0 512 512"><!--! Font Awesome Pro 7.0.0 by @fontawesome - https://fontawesome.com License - https://fontawesome.com/license (Commercial License) Copyright 2025 Fonticons, Inc. --><path fill="currentColor" d="M96 80a16 16 0 1 0 -32 0 16 16 0 1 0 32 0zM32 80a48 48 0 1 1 96 0 48 48 0 1 1 -96 0zM416 96l0 96 64 0 0-96-64 0zm-32 0l-128 0 0 96 128 0 0-96zM224 64l288 0 0 160-288 0 0-160zm32 256l0 96 64 0 0-96-64 0zm96 96l128 0 0-96-128 0 0 96zM224 288l288 0 0 160-288 0 0-160zM80 352a16 16 0 1 0 0-32 16 16 0 1 0 0 32zm0-64a48 48 0 1 1 0 96 48 48 0 1 1 0-96zm45.8-64l-12-32-67.6 0-12 32-34.2 0 24-64 112 0 24 64-34.2 0zm-12 224l-67.6 0-12 32-34.2 0 24-64 112 0 24 64-34.2 0-12-32z"/></svg>