<svg xmlns="http://www.w3.org/2000/svg" viewBox="0 0 512 512"><!--! Font Awesome Pro 7.0.0 by @fontawesome - https://fontawesome.com License - https://fontawesome.com/license (Commercial License) Copyright 2025 Fonticons, Inc. --><path fill="currentColor" d="M185.4 0L232 0c71.6 0 131 52.2 142.1 120.7 29.5 14.2 49.9 44.4 49.9 79.3 0 7.2-.9 14.3-2.5 21.1 34.1 12.1 58.5 44.7 58.5 82.9 0 16-4.3 31-11.7 43.9 26.2 15.3 43.7 43.6 43.7 76.1l0 88-512 0 0-88c0-32.5 17.6-60.8 43.7-76.1-7.5-12.9-11.7-27.9-11.7-43.9 0-38.3 24.4-70.8 58.5-82.9-1.7-6.8-2.5-13.8-2.5-21.1 0-48.6 39.4-88 88-88l18.7 0C215.3 112 232 95.3 232 74.7 232 40 208.1 22.8 185.4 0zm72.3 35c5.5 12.8 6.3 26 6.3 39.7 0 38.3-31 69.3-69.3 69.3L176 144c-30.9 0-56 25.1-56 56 0 9.1 2.2 17.7 6 25.2l10.4 20.5-22.8 2.6c-27.9 3.2-49.5 26.9-49.5 55.6 0 15.3 6.2 29.2 16.2 39.4L99.3 362.8 73 370c-23.7 6.5-41 28.3-41 54l0 56 448 0 0-56c0-25.7-17.4-47.4-41-54l-26.3-7.3 19.2-19.4c10-10.1 16.2-24 16.2-39.4 0-28.7-21.7-52.4-49.5-55.6l-22.8-2.6 10.4-20.5c3.8-7.6 6-16.1 6-25.2 0-24.5-15.8-45.4-37.8-53l-9.8-3.4-1-10.3C339 85.1 303.8 45.8 257.7 35z"/></svg>