<svg xmlns="http://www.w3.org/2000/svg" viewBox="0 0 640 512"><!--! Font Awesome Pro 7.0.0 by @fontawesome - https://fontawesome.com License - https://fontawesome.com/license (Commercial License) Copyright 2025 Fonticons, Inc. --><path fill="currentColor" d="M128 64l176 0 0 49.3-8.8 4.4c-14.7 7.4-23.2 20.5-23.2 34.2 0 20.2 19.4 40 48 40s48-19.8 48-40c0-13.7-8.5-26.8-23.2-34.2l-8.8-4.4 0-49.3 176 0 0 144 12.7 0c10.9-18.3 28.9-32 51.3-32 19.4 0 35.8 10.5 46.7 25.1s17.3 34.1 17.3 54.9-6.3 40.2-17.3 54.9-27.3 25.1-46.7 25.1c-22.4 0-40.4-13.7-51.3-32l-12.7 0 0 144-176 0 0-49.3 8.8-4.4c14.7-7.4 23.2-20.5 23.2-34.2 0-20.2-19.4-40-48-40s-48 19.8-48 40c0 13.7 8.5 26.8 23.2 34.2l8.8 4.4 0 49.3-176 0 0-144-12.7 0c-10.9 18.3-28.9 32-51.3 32-19.4 0-35.8-10.5-46.7-25.1S0 276.8 0 256 6.3 215.8 17.3 201.1 44.6 176 64 176c22.4 0 40.4 13.7 51.3 32l12.7 0 0-144zm32 32l0 144-64.9 0-4.2-9.6c-6.7-15.4-17.5-22.4-26.9-22.4-7.1 0-14.7 3.8-21.1 12.3S32 241.5 32 256 36.4 283.1 42.9 291.7 56.9 304 64 304c9.4 0 20.2-7 26.9-22.4l4.2-9.6 64.9 0 0 144 109.7 0c-17.7-12.9-29.7-32.8-29.7-56 0-41.7 37.9-72 80-72s80 30.3 80 72c0 23.2-12 43.1-29.7 56l109.7 0 0-144 64.9 0 4.2 9.6c6.7 15.4 17.5 22.4 26.9 22.4 7.1 0 14.7-3.8 21.1-12.3s10.9-21.1 10.9-35.7-4.4-27.1-10.9-35.7-14.1-12.3-21.1-12.3c-9.4 0-20.2 7-26.9 22.4l-4.2 9.6-64.9 0 0-144-109.7 0c17.7 12.9 29.7 32.8 29.7 56 0 41.7-37.9 72-80 72s-80-30.3-80-72c0-23.2 12-43.1 29.7-56L160 96z"/></svg>