<svg xmlns="http://www.w3.org/2000/svg" viewBox="0 0 512 512"><!--! Font Awesome Pro 7.0.0 by @fontawesome - https://fontawesome.com License - https://fontawesome.com/license (Commercial License) Copyright 2025 Fonticons, Inc. --><path fill="currentColor" d="M352 384l160 0 0 128-512 0 0-192 160 0 0-64 192 0 0 128zM32 480l128 0 0-128-128 0 0 128zm160 0l128 0 0-192-128 0 0 192zm160 0l128 0 0-64-128 0 0 64zM270.1 31.2l22.8 44.7c36.1 5.8 62.9 10 80.4 12.8-12.5 12.5-31.7 31.8-57.5 57.7 5.7 36.2 9.9 63 12.7 80.6-15.8-8.1-40-20.4-72.6-37-32.6 16.6-56.8 28.9-72.6 37 2.8-17.6 7-44.4 12.7-80.6-25.8-25.9-45-45.1-57.5-57.7 17.5-2.8 44.3-7.1 80.4-12.8 16.6-32.5 29-56.8 37-72.7l14.2 28zM243.6 97.6l-3.7 7.2c-2.3 .4-13.8 2.2-34.7 5.5l19.1 19.1 5.7 5.7-1.2 8-4.2 26.6c18.8-9.6 29.2-14.9 31.3-15.9l7.3 3.7 24 12.2-4.2-26.6-1.2-8c1.6-1.6 9.8-9.9 24.7-24.9-20.8-3.3-32.3-5.1-34.6-5.5l-3.7-7.2-12.2-24-12.2 24z"/></svg>