<svg xmlns="http://www.w3.org/2000/svg" viewBox="0 0 448 512"><!--! Font Awesome Pro 7.0.0 by @fontawesome - https://fontawesome.com License - https://fontawesome.com/license (Commercial License) Copyright 2025 Fonticons, Inc. --><path fill="currentColor" d="M78.1 64L46.1 32 402 32c-6.1 6.1-57.9 57.9-155.3 155.3L224 209.9 201.4 187.3 78.1 64zM224 164.7L324.7 64 123.3 64 224 164.7zM370 448l32 32-355.9 0c6.1-6.1 57.9-57.9 155.3-155.3L224 302.1 246.6 324.7 370 448zM224 347.3L123.3 448 324.7 448 224 347.3zM32 401.9L0 433.9 0 78.1C6.1 84.2 57.9 136 155.3 233.4L178 256 155.3 278.6 32 401.9zM132.7 256L32 155.3 32 356.7 132.7 256zM416 110.1l32-32 0 355.9c-6.1-6.1-57.9-57.9-155.3-155.3L270.1 256 292.7 233.4 416 110.1zM315.3 256L416 356.7 416 155.3 315.3 256z"/></svg>