<svg xmlns="http://www.w3.org/2000/svg" viewBox="0 0 640 512"><!--! Font Awesome Pro 7.0.0 by @fontawesome - https://fontawesome.com License - https://fontawesome.com/license (Commercial License) Copyright 2025 Fonticons, Inc. --><path fill="currentColor" d="M194.8 64L104.4 448 310 448c2.9 11.1 6.7 21.8 11.4 32l-257.4 0 7.5-32 97.9-416 301.2 0 41.6 176.7c-10.5-.9-21.8-.9-32.9 0l-34.1-144.7-109.2 0 0 80-32 0 0-80-109.2 0zM329.7 304l-25.7 0 0-96 32 0 0 85.8c-2.2 3.3-4.3 6.7-6.3 10.2zM608 400a112 112 0 1 0 -224 0 112 112 0 1 0 224 0zm-256 0a144 144 0 1 1 288 0 144 144 0 1 1 -288 0zm160 80l-32 0 0-32 32 0 0 32zm0-160l0 96-32 0 0-96 32 0z"/></svg>