<svg xmlns="http://www.w3.org/2000/svg" viewBox="0 0 640 512"><!--! Font Awesome Pro 7.0.0 by @fontawesome - https://fontawesome.com License - https://fontawesome.com/license (Commercial License) Copyright 2025 Fonticons, Inc. --><path fill="currentColor" d="M64 156.4l96 153.6 0 10-96 0 0-163.6zm96 93.2l-96-153.6-32 0 0 256 576 0-20-32-140-224-32 0 0 153.6-96-153.6-32 0 0 153.6-96-153.6-32 0 0 153.6zM416 310l0 10-96 0 0-163.6 96 153.6zm32 10L448 156.4 550.3 320 448 320zM288 310l0 10-96 0 0-163.6 96 153.6zM0 416l0 32 640 0 0-32-640 0z"/></svg>