<svg xmlns="http://www.w3.org/2000/svg" viewBox="0 0 576 512"><!--! Font Awesome Pro 7.0.0 by @fontawesome - https://fontawesome.com License - https://fontawesome.com/license (Commercial License) Copyright 2025 Fonticons, Inc. --><path fill="currentColor" d="M352.1 0c79.5 0 151.5 32.2 203.6 84.4L533.2 107c-46.3-46.3-110.3-75-181-75s-134.7 28.7-181 75L148.5 84.4C200.6 32.2 272.6 0 352.1 0zm0 96c53 0 101 21.5 135.8 56.2l-22.6 22.6c-29-29-69-46.9-113.1-46.9S268 145.9 239 174.9l-22.6-22.6C251.1 117.5 299.1 96 352.1 96zm16 128l0 64 176 0 0 192-512 0 0-192 304 0 0-64 32 0zm-304 96l0 128 448 0 0-128-448 0zm96 64a24 24 0 1 1 -48 0 24 24 0 1 1 48 0zm72 24a24 24 0 1 1 0-48 24 24 0 1 1 0 48z"/></svg>