<svg xmlns="http://www.w3.org/2000/svg" viewBox="0 0 576 512"><!--! Font Awesome Pro 7.0.0 by @fontawesome - https://fontawesome.com License - https://fontawesome.com/license (Commercial License) Copyright 2025 Fonticons, Inc. --><path fill="currentColor" d="M112 288l0-32C50.1 256 0 205.9 0 144S50.1 32 112 32l256 0-4.6 32-27.4 192-48 0-32 224-144 0 0-192zm143.7-32l-111.7 0 0 192 84.2 0 27.4-192zM112 224l196.2 0 22.9-160-219.1 0c-44.2 0-80 35.8-80 80s35.8 80 80 80zM576 32l0 32-160 0 0-32 160 0zm0 64l0 32-160 0 0-32 160 0zM416 192l160 0 0 32-160 0 0-32zm160 64l0 32-160 0 0-32 160 0zM416 320l160 0 0 32-160 0 0-32zM576 448l0 32-160 0 0-32 160 0z"/></svg>