<svg xmlns="http://www.w3.org/2000/svg" viewBox="0 0 512 512"><!--! Font Awesome Pro 7.0.0 by @fontawesome - https://fontawesome.com License - https://fontawesome.com/license (Commercial License) Copyright 2025 Fonticons, Inc. --><path fill="currentColor" d="M112.1 0l-16 0 0 214.6 4.7 4.7 132.7 132.7 22.6 22.6 124.7 124.7 11.3 11.3 22.6-22.6-11.3-11.3-124.7-124.7 25.4-25.4 124.7 124.7 11.3 11.3 22.6-22.6-11.3-11.3-124.7-124.7c.5-.5 8.9-8.9 25.4-25.4l124.7 124.7 11.3 11.3 22.6-22.6-11.3-11.3-124.7-124.7 36.7-36.7 4.7-4.7 0-214.6-304 0zM329.5 256c-29.1 29.1-39.5 39.5-73.4 73.4l-128-128 0-169.4 256 0 0 169.4-32 32-89.4-89.4 41.4 0 0-32-118.6 0c3.3 3.3 51.3 51.3 144 144zM103.6 289.9l-90.7 90.7-11.3 11.3 22.6 22.6 11.3-11.3 90.7-90.7-22.6-22.6zm48 48l-90.7 90.7-11.3 11.3 22.6 22.6 11.3-11.3 90.7-90.7-22.6-22.6zm48 48l-90.7 90.7-11.3 11.3 22.6 22.6 11.3-11.3 90.7-90.7-22.6-22.6z"/></svg>