<svg xmlns="http://www.w3.org/2000/svg" viewBox="0 0 576 512"><!--! Font Awesome Pro 7.0.0 by @fontawesome - https://fontawesome.com License - https://fontawesome.com/license (Commercial License) Copyright 2025 Fonticons, Inc. --><path fill="currentColor" d="M384 0l0 32-80 0 0-32 80 0zM304 64l112 0 0-96-144 0 0 103.4-132.8 88.6-123.2 0-16 0 0 352 576 0 0-352-16 0-123.2 0-132.8-88.6 0-7.4zM288 99.2l135.1 90.1 4 2.7 4.8 0 112 0 0 288-192 0 0-144-128 0 0 144-192 0 0-288 112 0 4.8 0 4-2.7 135.1-90.1zM144 416l0-48-48 0 0 48 48 0zM96 304l48 0 0-48-48 0 0 48zM480 416l0-48-48 0 0 48 48 0zM432 304l48 0 0-48-48 0 0 48zM288 192a32 32 0 1 1 0 64 32 32 0 1 1 0-64zm0 96a64 64 0 1 0 0-128 64 64 0 1 0 0 128zM256 480l0-112 64 0 0 112-64 0z"/></svg>