<svg xmlns="http://www.w3.org/2000/svg" viewBox="0 0 576 512"><!--! Font Awesome Pro 7.0.0 by @fontawesome - https://fontawesome.com License - https://fontawesome.com/license (Commercial License) Copyright 2025 Fonticons, Inc. --><path fill="currentColor" d="M192.3 97.1l0 62.9-62.9 0-71.9-107.9 26.9-26.9 107.9 71.9zm0 94.9l9.4 0 86.6 86.6 0 105.4 160 160 128-128-160-160-105.4 0-86.6-86.6 0-89.4-144-96-64 64 96 144 80 0zm128 96l82.7 0 128 128-82.7 82.7-128-128 0-82.7zM192.2 250.3C-68.4 510.9 26.4 416.1-5.5 448L5.8 459.3 85 538.5 96.3 549.8c2.8-2.8 19.8-19.8 50.9-50.9l93.1-93.1 0-45.3c-91.7 91.7-139.7 139.7-144 144L39.8 448 68 419.7 214.8 273 192.2 250.3zM336.3 208l86.6 0 4.7-4.7 77.9-77.9c4.4 13.4 6.8 27.7 6.8 42.6 0 32.5-11.4 62.3-30.4 85.7l22.7 22.7c24.8-29.3 39.7-67.1 39.7-108.4 0-2.9-.1-5.8-.2-8.6-1.3-24.9-8-48.5-19-69.4l-.5-.9c-3.2-6-6.8-11.8-10.6-17.3l-14.4 14.4-89.9 89.9-41.4 0 0-41.4 89.9-89.9 14.4-14.4c-5.5-3.9-11.3-7.4-17.3-10.6l-.9-.5C431.1 6.9 404.5 0 376.3 0 337.1 0 300.9 13.5 272.3 36.1l0 44.3c24.9-29.6 62.3-48.4 104-48.4 14.9 0 29.2 2.4 42.6 6.8l-77.9 77.9-4.7 4.7 0 86.6z"/></svg>