<svg xmlns="http://www.w3.org/2000/svg" viewBox="0 0 512 512"><!--! Font Awesome Pro 7.0.0 by @fontawesome - https://fontawesome.com License - https://fontawesome.com/license (Commercial License) Copyright 2025 Fonticons, Inc. --><path fill="currentColor" d="M480 64L32 64 32 176.1c-2.2-.1-4.4-.1-6.7-.1l-25.3 0 0-144 512 0 0 448-208 0 0-25.3c0-2.2 0-4.5-.1-6.7l176.1 0 0-384zM16 224c132.5 0 240 107.5 240 240l0 16-32 0 0-16c0-114.9-93.1-208-208-208l-16 0 0-32 16 0zM32 416a32 32 0 1 1 0 64 32 32 0 1 1 0-64zM0 320l16 0c79.5 0 144 64.5 144 144l0 16-32 0 0-16c0-61.9-50.1-112-112-112l-16 0 0-32z"/></svg>