<svg xmlns="http://www.w3.org/2000/svg" viewBox="0 0 512 512"><!--! Font Awesome Pro 7.1.0 by @fontawesome - https://fontawesome.com License - https://fontawesome.com/license (Commercial License) Copyright 2025 Fonticons, Inc. --><path fill="currentColor" d="M320 64l128 0 0 128 64 64-64 64 0 128-128 0-64 64-64-64-128 0 0-128-64-64 64-64 0-128 128 0 64-64 64 64zM205.2 96L96 96 96 205.2 45.2 256 96 306.7 96 416 205.2 416 256 466.7 306.7 416 416 416 416 306.7 466.7 256 416 205.2 416 96 306.7 96 256 45.2 205.2 96zM276 380l-40 0 0-40 40 0 0 40zm-8.8-76l-22.4 0-12.8-176 48 0-12.8 176z"/></svg>