<svg xmlns="http://www.w3.org/2000/svg" viewBox="0 0 512 512"><!--! Font Awesome Pro 7.0.0 by @fontawesome - https://fontawesome.com License - https://fontawesome.com/license (Commercial License) Copyright 2025 Fonticons, Inc. --><path fill="currentColor" d="M32 0l0 160 448 0 0-160 32 0 0 512-32 0 0-64-448 0 0 64-32 0 0-512 32 0zm0 416l448 0 0-224-448 0 0 224zM144 288l0 64 64 0 0-64-64 0zm-32-32l128 0 0 128-128 0 0-128zm256 32l-64 0 0 64 64 0 0-64zm-64-32l96 0 0 128-128 0 0-128 32 0zm0-224l0 64 64 0 0-64-64 0zM272 0l128 0 0 128-128 0 0-128z"/></svg>