<svg xmlns="http://www.w3.org/2000/svg" viewBox="0 0 512 512"><!--! Font Awesome Pro 7.1.0 by @fontawesome - https://fontawesome.com License - https://fontawesome.com/license (Commercial License) Copyright 2025 Fonticons, Inc. --><path fill="currentColor" d="M267.6 4.5l207.5 80.5 19.2 7.4 1.2 20.5c2.9 50-4.9 126.3-37.3 200.9-32.7 75.2-91.1 150-189.4 192.6l-12.7 5.5-12.7-5.5C144.9 463.9 86.6 389.2 53.9 313.9 21.5 239.3 13.7 162.9 16.6 113L17.8 92.5 37 85 244.5 4.5 256 0 267.6 4.5zM48.5 114.9C43.2 206.1 77.3 399.8 256 477.1 434.8 399.8 468.9 206.1 463.6 114.9L256 34.3 48.5 114.9zM276 364l-40 0 0-40 40 0 0 40zm-8.8-76l-22.4 0-12.8-176 48 0-12.8 176z"/></svg>