<svg xmlns="http://www.w3.org/2000/svg" viewBox="0 0 384 512"><!--! Font Awesome Pro 7.0.0 by @fontawesome - https://fontawesome.com License - https://fontawesome.com/license (Commercial License) Copyright 2025 Fonticons, Inc. --><path fill="currentColor" d="M96 0l-32 0 0 124.6-62.6 140.9-1.4 3.1 0 243.4 384 0 0-243.4-1.4-3.1-62.6-140.9 0-124.6-32 0 0 64c0 53-43 96-96 96S96 117 96 64L96 0zM32 275.4L91 142.6c23.4 30 60 49.4 101 49.4s77.6-19.3 101-49.4l21.9 49.3-4.3 3.1-278.6 201.2 0-120.9zm0 160.3l9.4-6.8 286.8-207.1 23.8 53.6 0 204.6-320 0 0-44.3z"/></svg>