<svg xmlns="http://www.w3.org/2000/svg" viewBox="0 0 640 512"><!--! Font Awesome Pro 7.0.0 by @fontawesome - https://fontawesome.com License - https://fontawesome.com/license (Commercial License) Copyright 2025 Fonticons, Inc. --><path fill="currentColor" d="M48 224l480 0 0-24.4-67.8-135.6-344.4 0-67.8 135.6 0 24.4zm16 32l-48 0 0-64 80-160 384 0 80 160 0 64-48 0 0 48-32 0 0-48-128 0 0 48-32 0 0-48-224 0 0 96 208 0 0 32-208 0 0 64 208 0 0 32-240 0 0-224zM352 400c0-26.5 21.5-48 48-48s48 21.5 48 48l0 1c0 13.6-5 26.7-14 36.9l-37.4 42.1 51.5 0 0 32-96 0 0-30.1 4-4.5 54-60.8c3.8-4.3 5.9-9.9 5.9-15.6l0-1c0-8.8-7.2-16-16-16s-16 7.2-16 16l-32 0zm128 32l0-80 32 0 0 64 32 0 0-64 32 0 0 160-32 0 0-64-64 0 0-16z"/></svg>