<svg xmlns="http://www.w3.org/2000/svg" viewBox="0 0 512 512"><!--! Font Awesome Pro 7.0.0 by @fontawesome - https://fontawesome.com License - https://fontawesome.com/license (Commercial License) Copyright 2025 Fonticons, Inc. --><path fill="currentColor" d="M80.1 32l-16 0 0 94.6-55.7 310.6-2.8 15.8 15.8 2.8 184 32 14.8 2.6 3.5-14.6 32.4-136.2 32.4 136.2 3.5 14.6 14.8-2.6 184-32 15.8-2.8-2.8-15.8-55.7-310.6 0-94.6-368 0zm16 96l0-64 320 0 0 64-320 0zm-5.5 32l331 0 47.9 267-153.3 26.7-36.5-153.4-2.9-12.3-41.3 0-2.9 12.3-36.5 153.4-153.3-26.7 47.9-267z"/></svg>