<svg xmlns="http://www.w3.org/2000/svg" viewBox="0 0 576 512"><!--! Font Awesome Pro 7.0.0 by @fontawesome - https://fontawesome.com License - https://fontawesome.com/license (Commercial License) Copyright 2025 Fonticons, Inc. --><path fill="currentColor" d="M128 32c-53 0-96 43-96 96 0 39.2 23.5 72.9 57.2 87.8-.9 2.7-1.7 5.4-2.5 8.2-8.6 3.9-16.8 8.6-24.6 13.8-37.2-22.4-62.1-63.2-62.1-109.7 0-70.7 57.3-128 128-128 40.1 0 75.9 18.4 99.3 47.3 18.1-9.7 38.7-15.3 60.7-15.3 38.5 0 73 17 96.4 43.8-10.5 4.1-20.5 9.1-29.9 15-17.3-16.6-40.7-26.8-66.6-26.8-20.8 0-40 6.6-55.7 17.8l-13.8 9.9-9-14.4C192.5 50 162.3 32 128 32zM448 144c-41.3 0-76.6 26.1-90.1 62.8l-3.4 9.3c-8.1-2.7-16.5-4.8-25.2-6.1-17.6-20.8-43.9-34-73.3-34-29.2 0-55.3 13-72.9 33.5-7.6-1-15.3-1.5-23.1-1.5-5.1 0-10.2 .2-15.3 .7 22-38.6 63.6-64.7 111.3-64.7 31.4 0 60.1 11.3 82.3 30 22.4-37.1 63.1-62 109.7-62 70.7 0 128 57.3 128 128 0 37.3-16 70.9-41.4 94.3-6.1-8.8-13.1-16.9-21-24.2 18.7-17.5 30.4-42.4 30.4-70.1 0-53-43-96-96-96zM32 384c0-70.7 57.3-128 128-128 27.9 0 53.7 8.9 74.7 24 19.1-15 43.2-24 69.3-24 44.9 0 83.6 26.4 101.5 64.6 3.5-.4 7-.6 10.5-.6 53 0 96 43 96 96l0 96-480 0 0-128zm128-96c-53 0-96 43-96 96l0 96 416 0 0-64c0-35.3-28.7-64-64-64-5.7 0-11.2 .7-16.5 2.1l-14.7 3.9-4.6-14.5c-10.3-32.2-40.6-55.6-76.2-55.6-22.5 0-42.8 9.2-57.3 24.2l-10.8 11.1-11.4-10.4C207.4 297.4 184.8 288 160 288z"/></svg>