<svg xmlns="http://www.w3.org/2000/svg" viewBox="0 0 640 512"><!--! Font Awesome Pro 7.0.0 by @fontawesome - https://fontawesome.com License - https://fontawesome.com/license (Commercial License) Copyright 2025 Fonticons, Inc. --><path fill="currentColor" d="M320 0c-66.3 0-120 53.7-120 120 0 36.6 16.4 69.4 42.3 91.4l17.2 14.7-19.6 11.4c-47.8 27.7-79.9 79.4-79.9 138.5 0 57.4 30.2 107.7 75.7 136l168.7 0c45.5-28.3 75.7-78.6 75.7-136 0-59.2-32.1-110.8-79.9-138.5l-19.6-11.4 17.2-14.7c25.9-22 42.3-54.8 42.3-91.4 0-66.3-53.7-120-120-120zM168 120c0-83.9 68.1-152 152-152S472 36.1 472 120c0 38.8-14.6 74.3-38.5 101.1 24.1 17.7 43.9 40.8 57.6 67.6l44.9-19.3 0-61.4 32 0 0 47.7c25.6-11 41.8-17.9 48.4-20.7L629 264.4c-8.4 3.6-112.3 48.1-125.8 53.9 5.7 18.2 8.8 37.6 8.8 57.7 0 70.7-38.3 132.5-95.1 165.8l-3.7 2.2-186.2 0-3.7-2.2c-56.9-33.3-95.1-95.1-95.1-165.8 0-20.1 3.1-39.5 8.8-57.7-36.6-15.7-73.6-31.6-111.1-47.6L11 264.4 23.6 235c6.6 2.8 22.8 9.8 48.4 20.7l0-47.7 32 0 0 61.4 44.9 19.3c13.7-26.8 33.5-49.9 57.6-67.6-23.9-26.9-38.5-62.3-38.5-101.1zM296 416a24 24 0 1 1 48 0 24 24 0 1 1 -48 0zm24-120a24 24 0 1 1 0 48 24 24 0 1 1 0-48zM248 96a24 24 0 1 1 48 0 24 24 0 1 1 -48 0zM368 72a24 24 0 1 1 0 48 24 24 0 1 1 0-48zm-48.4 88c-8.6 0-15.6 7-15.6 15.6 0 2.7 .7 5.4 2.1 7.7L320 207.8 334 183.3c1.4-2.4 2.1-5 2.1-7.7 0-8.6-7-15.6-15.6-15.6l-.8 0zM272 175.6c0-26.3 21.3-47.6 47.6-47.6l.8 0c26.3 0 47.6 21.3 47.6 47.6 0 8.3-2.2 16.4-6.3 23.6-20.9 36.5-34.8 60.9-41.7 73-6.9-12.1-20.8-36.5-41.7-73-4.1-7.2-6.3-15.3-6.3-23.6z"/></svg>