<svg xmlns="http://www.w3.org/2000/svg" viewBox="0 0 512 512"><!--! Font Awesome Pro 7.0.0 by @fontawesome - https://fontawesome.com License - https://fontawesome.com/license (Commercial License) Copyright 2025 Fonticons, Inc. --><path fill="currentColor" d="M294 378.5l-21.5-21.5 0 123 80 0 0 32-192 0 0-32 80 0 0-123c-3 3-10.2 10.2-21.5 21.5-50 50-131 50-181 0s-50-131 0-181c219.6-219.6 202.2-202.2 218.5-218.5 8.8 8.8 149.6 149.6 218.5 218.5 50 50 50 131 0 181s-131 50-181 0zM188.6 92.1l-128 128c-37.5 37.5-37.5 98.3 0 135.8s98.3 37.5 135.8 0c27.5-27.5 47.5-47.5 60.1-60.1 12.6 12.6 32.6 32.6 60.1 60.1 37.5 37.5 98.3 37.5 135.8 0s37.5-98.3 0-135.8C357 124.8 291.7 59.5 256.5 24.2L188.6 92.1z"/></svg>