<svg xmlns="http://www.w3.org/2000/svg" viewBox="0 0 448 512"><!--! Font Awesome Pro 7.0.0 by @fontawesome - https://fontawesome.com License - https://fontawesome.com/license (Commercial License) Copyright 2025 Fonticons, Inc. --><path fill="currentColor" d="M32 64l0 384 384 0 0-384-384 0zM0 32l448 0 0 448-448 0 0-448zm128 96l32.7 0 4.7 7.3 77.6 120.7 45 0 0-128 32 0 0 128 32 0 0 32-32 0 0 96-32.7 0-4.7-7.3-57-88.7-65.6 0 0 96-32 0 0-96-32 0 0-32 32 0 0-128zM288 326l0-38-24.4 0 24.4 38zM160 186l0 70 45 0-45-70z"/></svg>