<svg xmlns="http://www.w3.org/2000/svg" viewBox="0 0 448 512"><!--! Font Awesome Pro 7.0.0 by @fontawesome - https://fontawesome.com License - https://fontawesome.com/license (Commercial License) Copyright 2025 Fonticons, Inc. --><path fill="currentColor" d="M32 64l0 384 384 0 0-384-384 0zM0 32l448 0 0 448-448 0 0-448zM112 144l56 0c39.8 0 72 32.2 72 72 0 29.4-17.6 54.7-42.8 65.8 20.4 51 31 77.4 31.6 79.1l-29.7 11.9c-.3-.7-11.6-29-33.9-84.8l-37.2 0 0 80-32 0 0-224 16 0zm56 112c22.1 0 40-17.9 40-40s-17.9-40-40-40l-40 0 0 80 40 0zm88-12.8c0-28.3 22.9-51.2 51.2-51.2l52.8 0 0 32-52.8 0c-10.6 0-19.2 8.6-19.2 19.2 0 9.1 6.4 17 15.4 18.8l23.5 4.7c23.9 4.8 41.1 25.8 41.1 50.2 0 28.3-22.9 51.2-51.2 51.2l-52.8 0 0-32 52.8 0c10.6 0 19.2-8.6 19.2-19.2 0-9.1-6.4-17-15.4-18.8l-23.5-4.7c-23.9-4.8-41.1-25.8-41.1-50.2z"/></svg>