<svg xmlns="http://www.w3.org/2000/svg" viewBox="0 0 448 512"><!--! Font Awesome Pro 7.0.0 by @fontawesome - https://fontawesome.com License - https://fontawesome.com/license (Commercial License) Copyright 2025 Fonticons, Inc. --><path fill="currentColor" d="M32 64l0 384 384 0 0-384-384 0zM0 32l448 0 0 448-448 0 0-448zM281.4 96l15.1 0c-4.3 17.2-13.6 54.5-28 112l106.1 0-27.3 27.3-160 160-20.7 20.7-15.1 0c4.3-17.2 13.6-54.5 28-112l-106.1 0 27.3-27.3 160-160 20.7-20.7zM200 272l20.5 0c-2.5 9.9-7.5 29.9-15 59.8l91.8-91.8-69.9 0c2.5-9.9 7.5-29.9 15-59.8L150.6 272 200 272z"/></svg>