<svg xmlns="http://www.w3.org/2000/svg" viewBox="0 0 448 512"><!--! Font Awesome Pro 7.0.0 by @fontawesome - https://fontawesome.com License - https://fontawesome.com/license (Commercial License) Copyright 2025 Fonticons, Inc. --><path fill="currentColor" d="M32 64l0 384 384 0 0-384-384 0zM0 32l448 0 0 448-448 0 0-448zm209.4 96l29.2 0 4.2 9.5 45.4 102.5 63.8 0 0 32-49.6 0 14.2 32 35.5 0 0 32-21.3 0c8.3 18.8 14.3 32.2 17.8 40.2l-29.3 13c-2.6-5.8-10.4-23.5-23.5-53.1l-143.4 0c-13.1 29.6-21 47.3-23.5 53.1l-29.3-13c3.5-7.9 9.4-21.3 17.8-40.2l-21.3 0 0-32 35.5 0 14.2-32-49.6 0 0-32 63.8 0 45.4-102.5 4.2-9.5zM224 174.1l-29.2 65.9 58.4 0-29.2-65.9zM166.5 304l115.1 0-14.2-32-86.8 0-14.2 32z"/></svg>