<svg xmlns="http://www.w3.org/2000/svg" viewBox="0 0 448 512"><!--! Font Awesome Pro 7.0.0 by @fontawesome - https://fontawesome.com License - https://fontawesome.com/license (Commercial License) Copyright 2025 Fonticons, Inc. --><path fill="currentColor" d="M32 64l0 384 384 0 0-384-384 0zM0 32l448 0 0 448-448 0 0-448zm112 96l224 0 0 32-96 0 0 57.8c39.9-13.3 62-20.7 66.1-22l10.1 30.4c-2.5 .8-27.9 9.3-76.2 25.4l0 30.3c39.9-13.3 62-20.7 66.1-22l10.1 30.4c-2.5 .8-27.9 9.3-76.2 25.4l0 68.5-32 0 0-57.8c-39.9 13.3-62 20.7-66.1 22l-10.1-30.4c2.5-.8 27.9-9.3 76.2-25.4l0-30.3c-39.9 13.3-62 20.7-66.1 22l-10.1-30.4c2.5-.8 27.9-9.3 76.2-25.4l0-68.5-96 0 0-32z"/></svg>