<svg xmlns="http://www.w3.org/2000/svg" viewBox="0 0 448 512"><!--! Font Awesome Pro 7.0.0 by @fontawesome - https://fontawesome.com License - https://fontawesome.com/license (Commercial License) Copyright 2025 Fonticons, Inc. --><path fill="currentColor" d="M32 64l0 384 384 0 0-384-384 0zM0 32l448 0 0 448-448 0 0-448zm304 96l-73.4 0c14.9 14.9 26.4 26.4 34.5 34.5-8.5 5.7-24 16-46.4 30.9 24.2 20.2 38.8 32.4 43.8 36.5L242 254.5c-2.2-1.9-22.3-18.6-60.3-50.2l-16.5-13.7c9.6-6.4 26.1-17.4 49.6-33.1l-29.5-29.5-41.4 0 0 80c0 44.2 35.8 80 80 80s80-35.8 80-80l0-80zM144 96l192 0 0 112c0 56.4-41.7 103.1-96 110.9l0 65.1 48 0 0 32-128 0 0-32 48 0 0-65.1c-54.3-7.8-96-54.4-96-110.9l0-112 32 0z"/></svg>