<svg xmlns="http://www.w3.org/2000/svg" viewBox="0 0 448 512"><!--! Font Awesome Pro 7.0.0 by @fontawesome - https://fontawesome.com License - https://fontawesome.com/license (Commercial License) Copyright 2025 Fonticons, Inc. --><path fill="currentColor" d="M32 64l0 384 384 0 0-384-384 0zM0 32l448 0 0 448-448 0 0-448zm128 94.1l1.4 1.9-1.4 0 0-1.9zm29 40.6l67 93.8 67-93.8 4.8-6.7 24.2 0 0 192-32 0 0-126.1c-40.3 56.4-61.6 86.3-64 89.6-2.4-3.3-23.7-33.2-64-89.6l0 126.1-32 0 0-192 24.2 0 4.8 6.7zM318.6 128l1.4-1.9 0 1.9-1.4 0z"/></svg>