<svg xmlns="http://www.w3.org/2000/svg" viewBox="0 0 512 512"><!--! Font Awesome Pro 7.0.0 by @fontawesome - https://fontawesome.com License - https://fontawesome.com/license (Commercial License) Copyright 2025 Fonticons, Inc. --><path fill="currentColor" d="M32 144C32 82.1 82.1 32 144 32S256 82.1 256 144l0 48 32 0 0-48C288 64.5 223.5 0 144 0S0 64.5 0 144 64.5 288 144 288l6.5 0 7.5 13.6c-18.7 22.3-30 51-30 82.4l0 128 368 0 0-32-56.4 0c15.2-17 24.4-39.4 24.4-64 0-28.4-12.4-54-32-71.6l0-88.4 31.5 0 4.8-5.8 40-48 3.7-4.4 0-61.5-7.8-4.7-56-33.4-3.8-2.3-28.4 0 0-32-32 0 0 64 51.6 0 44.4 26.5 0 31.7-31.5 37.8-48.5 0 0 101.5c-10-3.5-20.8-5.5-32-5.5-10 0-19.7 1.5-28.8 4.4l9.6 30.5c6-1.9 12.5-2.9 19.2-2.9 35.3 0 64 28.7 64 64s-28.7 64-64 64l-208 0 0-96c0-26.9 11-51.1 28.8-68.6l8.7-8.5c-1.9-3.5-9.8-17.7-23.5-42.6l-4.6-8.3-25.5 0C82.1 256 32 205.9 32 144zM352 64l-32 0 0 92.2c0 34.6-6.1 56.6-17.1 76.2-10.1 18.1-24.5 34.6-44.4 57.5-2.8 3.2-5.7 6.5-8.7 10l-11.2 13c-20.1 23.3-30.6 57.4-30.6 87l0 16 32 0 0-16c0-23.4 8.5-49.6 22.8-66.1l11.2-13c2.9-3.4 5.8-6.6 8.6-9.9l0 0 0 0c19.6-22.5 36.3-41.7 48.2-63 14.1-25.3 21.2-52.8 21.2-91.9L352 64zm80 96a16 16 0 1 0 -32 0 16 16 0 1 0 32 0z"/></svg>