<svg xmlns="http://www.w3.org/2000/svg" viewBox="0 0 576 512"><!--! Font Awesome Pro 7.0.0 by @fontawesome - https://fontawesome.com License - https://fontawesome.com/license (Commercial License) Copyright 2025 Fonticons, Inc. --><path fill="currentColor" d="M266.7 0l309.3 0 0 32-64 0 0 96 64 0 0 32-272 0 0 304-67.3 0c-10.4 36.9-44.4 64-84.7 64s-74.2-27.1-84.7-64l-67.3 0 0-264 6.4-4.8 256-192 4.3-3.2zm-27 432l32.4 0 0-256-230.4 172.8-9.6 7.2 0 76 32.4 0c4-44.9 41.7-80 87.6-80s83.6 35.1 87.6 80zM304 128l176 0 0-96-176 0 0 96zM272 36L32 216 32 316 272 136 272 36zM208 440a56 56 0 1 0 -112 0 56 56 0 1 0 112 0zM482.7 240l-98.7 0 0 132.1c15.2-12.6 34.7-20.1 56-20.1 45.9 0 83.6 35.1 87.6 80l16.4 0 0-130.7-61.3-61.3zM352 384l0-176 144 0 80 80 0 176-51.3 0c-10.4 36.9-44.4 64-84.7 64-48.6 0-88-39.4-88-88l0-56zm88 112a56 56 0 1 0 0-112 56 56 0 1 0 0 112z"/></svg>