<svg xmlns="http://www.w3.org/2000/svg" viewBox="0 0 512 512"><!--! Font Awesome Pro 7.0.0 by @fontawesome - https://fontawesome.com License - https://fontawesome.com/license (Commercial License) Copyright 2025 Fonticons, Inc. --><path fill="currentColor" d="M217.3 294.7l-15.2-5.1-100.9-33.6 100.9-33.6 15.2-5.1 5.1-15.2 33.6-100.9 33.6 100.9 5.1 15.2 15.2 5.1 100.9 33.6-100.9 33.6-15.2 5.1-5.1 15.2-33.6 100.9-33.6-100.9-5.1-15.2zM50.6 272.9L192 320c36.5 109.4 57.8 173.4 64 192 6.2-18.6 27.5-82.6 64-192 109.4-36.5 173.4-57.8 192-64-18.6-6.2-82.6-27.5-192-64-36.5-109.4-57.8-173.4-64-192-6.2 18.6-27.5 82.6-64 192-109.4 36.5-173.4 57.8-192 64l50.6 16.9zM454.6 80l-22.6-22.6-11.3 11.3-64 64-11.3 11.3 22.6 22.6 11.3-11.3 64-64 11.3-11.3zM91.3 68.7l-11.3-11.3-22.6 22.6 11.3 11.3 64 64 11.3 11.3 22.6-22.6-11.3-11.3-64-64zM166.6 368l-22.6-22.6-11.3 11.3-64 64-11.3 11.3 22.6 22.6 11.3-11.3 64-64 11.3-11.3zm212.7-11.3l-11.3-11.3-22.6 22.6 11.3 11.3 64 64 11.3 11.3 22.6-22.6-11.3-11.3-64-64z"/></svg>