<svg xmlns="http://www.w3.org/2000/svg" viewBox="0 0 576 512"><!--! Font Awesome Pro 7.0.0 by @fontawesome - https://fontawesome.com License - https://fontawesome.com/license (Commercial License) Copyright 2025 Fonticons, Inc. --><path fill="currentColor" d="M334.7 211.9l-7.1-22.3-39.2-123.2-39.2 123.2-7.1 22.3-146.4 0 102.5 79.7 17.6 13.7-6.8 21.3-39.2 123.3 99-77 19.6-15.3 19.6 15.3 99 77-39.2-123.3-6.8-21.3 17.6-13.7 102.5-79.7-146.4 0zm187.5-32l52.1 0c-11.8 9.2-70.5 54.8-176.1 136.9 41.6 130.8 65.1 204.7 70.5 221.6-14.6-11.3-74.7-58.1-180.4-140.3-105.7 82.2-165.8 129-180.4 140.3 5.4-16.9 28.9-90.8 70.5-221.6-105.6-82.1-164.3-127.8-176.1-136.9l216.3 0c41.3-129.8 64.5-202.7 69.7-219 5.2 16.3 28.4 89.3 69.7 219l164.1 0z"/></svg>