<svg xmlns="http://www.w3.org/2000/svg" viewBox="0 0 512 512"><!--! Font Awesome Pro 7.0.0 by @fontawesome - https://fontawesome.com License - https://fontawesome.com/license (Commercial License) Copyright 2025 Fonticons, Inc. --><path fill="currentColor" d="M176 0l-16 0 0 96-160 0 0 384 512 0 0-384-160 0 0-96-176 0zM320 96l-128 0 0-64 128 0 0 64zM96 128l0 320-64 0 0-320 64 0zm32 0l256 0 0 320-256 0 0-320zm288 0l64 0 0 320-64 0 0-320zM208 192l0 48-48 0 0 96 48 0 0 48 96 0 0-48 48 0 0-96-48 0 0-48-96 0zm32 64l0-32 32 0 0 48 48 0 0 32-48 0 0 48-32 0 0-48-48 0 0-32 48 0 0-16z"/></svg>