<svg xmlns="http://www.w3.org/2000/svg" viewBox="0 0 448 512"><!--! Font Awesome Pro 7.0.0 by @fontawesome - https://fontawesome.com License - https://fontawesome.com/license (Commercial License) Copyright 2025 Fonticons, Inc. --><path fill="currentColor" d="M320 64l0 96 96 0 0-96-96 0zm-32 0l-128 0 0 96 128 0 0-96zM128 64l-96 0 0 96 96 0 0-96zM0 192l0-160 448 0 0 448-448 0 0-288zM32 320l96 0 0-128-96 0 0 128zm0 32l0 96 96 0 0-96-96 0zm128 96l128 0 0-96-128 0 0 96zm160 0l96 0 0-96-96 0 0 96zm96-128l0-128-96 0 0 128 96 0zm-256 0l128 0 0-128-128 0 0 128z"/></svg>