<svg xmlns="http://www.w3.org/2000/svg" viewBox="0 0 576 512"><!--! Font Awesome Pro 7.0.0 by @fontawesome - https://fontawesome.com License - https://fontawesome.com/license (Commercial License) Copyright 2025 Fonticons, Inc. --><path fill="currentColor" d="M256 64a192 192 0 1 1 0 384 192 192 0 1 1 0-384zM371.4 448C436.5 408.8 480 337.5 480 256 480 132.3 379.7 32 256 32S32 132.3 32 256 132.3 480 256 480l320 0 0-32-204.6 0zM256 192a64 64 0 1 1 0 128 64 64 0 1 1 0-128zm0 160a96 96 0 1 0 0-192 96 96 0 1 0 0 192z"/></svg>