<svg xmlns="http://www.w3.org/2000/svg" viewBox="0 0 512 512"><!--! Font Awesome Pro 7.0.0 by @fontawesome - https://fontawesome.com License - https://fontawesome.com/license (Commercial License) Copyright 2025 Fonticons, Inc. --><path fill="currentColor" d="M32 64l0 100.1c11.4-7.7 25.2-12.1 40-12.1 18.9 0 36.1 7.3 48.9 19.2 13.3-25.7 40.1-43.2 71.1-43.2 26.2 0 49.4 12.6 64 32 14.6-19.4 37.8-32 64-32 30.9 0 57.7 17.5 71 43.2 12.8-11.9 30-19.2 49-19.2 14.8 0 28.6 4.5 40 12.1L480 64 32 64zm0 160l0 32 80 0 0-32c0-22.1-17.9-40-40-40s-40 17.9-40 40zm0 64l0 24c0 2.7 .3 5.4 .8 8 3.7 18.3 19.8 32 39.2 32s35.5-13.7 39.2-32c.5-2.6 .8-5.3 .8-8l0-24-80 0zM0 312l0-280 512 0 0 448-512 0 0-168zm480 59.9c-11.4 7.7-25.2 12.1-40 12.1-20.4 0-38.8-8.5-51.9-22.1-14.1 22.8-39.3 38.1-68.1 38.1-26.2 0-49.4-12.6-64-32-14.6 19.4-37.8 32-64 32-28.8 0-54-15.2-68.1-38.1-13.1 13.6-31.5 22.1-51.9 22.1-14.8 0-28.6-4.5-40-12.1l0 76.1 448 0 0-76.1zm0-59.9l0-24-80 0 0 24c0 2.7 .3 5.4 .8 8 3.7 18.3 19.8 32 39.2 32s35.5-13.7 39.2-32c.5-2.6 .8-5.3 .8-8zm0-56l0-32c0-22.1-17.9-40-40-40s-40 17.9-40 40l0 32 80 0zM144 312l0 8c0 26.5 21.5 48 48 48s48-21.5 48-48l0-32-96 0 0 24zm224-88l0-16c0-26.5-21.5-48-48-48s-48 21.5-48 48l0 48 96 0 0-32zm-224 0l0 32 96 0 0-48c0-26.5-21.5-48-48-48s-48 21.5-48 48l0 16zm128 96c0 26.5 21.5 48 48 48s48-21.5 48-48l0-32-96 0 0 32z"/></svg>