<svg xmlns="http://www.w3.org/2000/svg" viewBox="0 0 512 512"><!--! Font Awesome Pro 7.0.0 by @fontawesome - https://fontawesome.com License - https://fontawesome.com/license (Commercial License) Copyright 2025 Fonticons, Inc. --><path fill="currentColor" d="M64 0L48 0 48 277.5c-20 24.7-32 56.2-32 90.5 0 79.5 64.5 144 144 144s144-64.5 144-144c0-34.3-12-65.8-32-90.5L272 0 64 0zM80 112l0-80 160 0 0 257.4 4 4.5c17.4 19.8 28 45.7 28 74.1 0 61.9-50.1 112-112 112S48 429.9 48 368c0-28.4 10.6-54.3 28-74.1l4-4.5 0-177.4zm48 256a32 32 0 1 1 64 0 32 32 0 1 1 -64 0zm96 0c0-29.8-20.4-54.9-48-62l0-146-32 0 0 146c-27.6 7.1-48 32.2-48 62 0 35.3 28.7 64 64 64s64-28.7 64-64zM336 32l-16 0 0 32 160 0 0-32-144 0zm0 128l-16 0 0 32 160 0 0-32-144 0zm32 128l-16 0 0 32 128 0 0-32-112 0z"/></svg>