<svg xmlns="http://www.w3.org/2000/svg" viewBox="0 0 576 512"><!--! Font Awesome Pro 7.0.0 by @fontawesome - https://fontawesome.com License - https://fontawesome.com/license (Commercial License) Copyright 2025 Fonticons, Inc. --><path fill="currentColor" d="M96 198.6l11.3-11.3 83.3-83.3-22.6-22.6-56 56 0-137.4-32 0 0 137.4c-35.4-35.4-54-54-56-56l-22.6 22.6 11.3 11.3 72 72 11.3 11.3zM560 512l16 0-3.6-32-26.1-234.7-195.4-117.3-193.1 117.3-26.1 234.7-131.6 0 0 32 560 0zM368 480l0-105.1 66.9 105.1-66.9 0zm-32 0l-172.2 0 24-215.5 148.2-90 0 305.5zm32-304.4l148.2 89 24 215.4-67.4 0-104.8-164.7 0-139.7z"/></svg>