<svg xmlns="http://www.w3.org/2000/svg" viewBox="0 0 512 512"><!--! Font Awesome Pro 7.0.0 by @fontawesome - https://fontawesome.com License - https://fontawesome.com/license (Commercial License) Copyright 2025 Fonticons, Inc. --><path fill="currentColor" d="M496.1 242.7c-5-5-17.6-17.6-37.7-37.7L357 320.3c3.6 49.9-10.9 102.2-40.9 143.6-6.3 8.7-13.2 16.9-20.8 24.4l-22.6-22.6-226.3-226.3-22.6-22.6c7.6-7.6 15.8-14.5 24.5-20.8 41.4-30 93.7-44.4 143.6-40.9L307.1 53.7C287 33.6 274.4 21 269.4 16l22.6-22.6 11.3 11.3 204.1 204.1 11.3 11.3-22.6 22.6zm-60.4-60.4l-106-106-116.8 102.8-10.1 8.9-13.4-1c-41-2.9-83.9 8.5-118.3 31.9L293.2 440.9c23.4-34.5 34.9-77.3 31.9-118.3l-1-13.4 8.9-10.1 102.8-116.8zM4.8 484.7L114.3 375.2 136.9 397.8 27.4 507.3 16.1 518.6-6.5 496 4.8 484.7z"/></svg>