<svg xmlns="http://www.w3.org/2000/svg" viewBox="0 0 640 512"><!--! Font Awesome Pro 7.0.0 by @fontawesome - https://fontawesome.com License - https://fontawesome.com/license (Commercial License) Copyright 2025 Fonticons, Inc. --><path fill="currentColor" d="M96 64l0-32 512 0 0 128c-26.5 0-48 21.5-48 48s21.5 48 48 48l0 128-512 0 0-128c26.5 0 48-21.5 48-48s-21.5-48-48-48l0-96zm32 70.7c28.3 12.3 48 40.5 48 73.3s-19.7 61-48 73.3l0 70.7 448 0 0-70.7c-28.3-12.3-48-40.5-48-73.3s19.7-61 48-73.3l0-70.7-448 0 0 70.7zM32 128l0 320 480 0 0 32-512 0 0-352 32 0zm224 32l0 96 192 0 0-96-192 0zm-32-32l256 0 0 160-256 0 0-160z"/></svg>