<svg xmlns="http://www.w3.org/2000/svg" viewBox="0 0 512 512"><!--! Font Awesome Pro 7.0.0 by @fontawesome - https://fontawesome.com License - https://fontawesome.com/license (Commercial License) Copyright 2025 Fonticons, Inc. --><path fill="currentColor" d="M453.9 393.1l-9.6 18c6.3 8.3 18.2 24.2 35.7 47.6l0 21.3-448 0 0-21.3c17.5-23.4 29.4-39.3 35.7-47.6l-9.6-18C41.5 361.8 32 326.1 32 288 32 164.3 132.3 64 256 64S480 164.3 480 288c0 38.1-9.5 73.8-26.1 105.1zM512 480l0-32-29.9-39.9C501.2 372.3 512 331.4 512 288 512 146.6 397.4 32 256 32S0 146.6 0 288c0 43.4 10.8 84.3 29.9 120.1l-29.9 39.9 0 64 512 0 0-32zM384 288c0 8.3-.8 16.3-2.3 24.2L319.9 292c.1-1.3 .1-2.7 .1-4 0-15.4-5.5-29.6-14.5-40.6l38.2-52.6C368.5 218.1 384 251.2 384 288zm-74.1 34.4l61.9 20.1c-18.3 38.8-55.6 66.9-99.8 72.4l0-65c15.9-4.1 29.4-14.1 38-27.6zm-70 27.5l0 65c-44.2-5.5-81.5-33.6-99.8-72.4l61.9-20.1c8.6 13.4 22.1 23.4 37.9 27.5zM128 288c0-36.8 15.5-69.9 40.3-93.3 21.7 29.9 34.5 47.5 38.2 52.6-9.1 11-14.5 25.2-14.5 40.6 0 1.4 0 2.7 .1 4l-61.8 20.1c-1.5-7.8-2.3-15.9-2.3-24.2zm128-64c-8.3 0-16.3 1.6-23.6 4.5-3.7-5.1-16.4-22.6-38.2-52.6 18.3-10.1 39.4-15.9 61.8-15.9s43.5 5.8 61.8 15.9l-38.2 52.6c-7.3-2.9-15.3-4.5-23.6-4.5zm160 64a160 160 0 1 0 -320 0 160 160 0 1 0 320 0zm-192 0a32 32 0 1 1 64 0 32 32 0 1 1 -64 0z"/></svg>