<svg xmlns="http://www.w3.org/2000/svg" viewBox="0 0 576 512"><!--! Font Awesome Pro 7.0.0 by @fontawesome - https://fontawesome.com License - https://fontawesome.com/license (Commercial License) Copyright 2025 Fonticons, Inc. --><path fill="currentColor" d="M35.6-19.2L24.3-30.5 1.7-7.9 13 3.4 540.8 531.2 552.1 542.5 574.8 519.9c-6.2-6.2-16.4-16.4-30.6-30.6l0-265.3c0-50.8-11.2-97.5-30.1-132.1-18.6-34-46.8-59.9-81.9-59.9l-288 0c-15.8 0-30.3 5.3-43.1 14.2L35.6-19.2zm88.6 88.6c6.7-3.7 13.4-5.4 19.9-5.4l225.3 0c-7.2 8.2-13.6 17.7-19.2 27.9-18.9 34.6-30.1 81.4-30.1 132.1 0 15.2 1 30 2.9 44.2L124.3 69.4zm241 241c-8.2-24.8-13.2-54.4-13.2-86.4 0-46.5 10.3-87.7 26.2-116.8 16.2-29.7 35.9-43.2 53.8-43.2s37.6 13.5 53.8 43.2c15.9 29.1 26.2 70.3 26.2 116.8S501.8 311.7 486 340.8c-14.3 26.3-31.5 39.9-47.6 42.7l-73-73zm98.2 98.3c19.7-9.5 36.2-27.5 48.6-49.1l0 97.7-48.6-48.6zM32.1 224c0 50.8 11.2 97.5 30.1 132.1 18.6 34 46.8 59.9 81.9 59.9l16 0 0 128 325.5 0-32-32-261.5 0 0-96 165.5 0-32-32-181.5 0c-17.9 0-37.6-13.5-53.8-43.2-15.9-29.1-26.2-70.3-26.2-116.8 0-32.7 5.1-62.8 13.6-87.9L52.9 111.3C39.7 143.1 32.1 182.2 32.1 224zm400 48c13.3 0 24-21.5 24-48s-10.7-48-24-48-24 21.5-24 48 10.7 48 24 48z"/></svg>