<svg xmlns="http://www.w3.org/2000/svg" viewBox="0 0 512 512"><!--! Font Awesome Pro 7.0.0 by @fontawesome - https://fontawesome.com License - https://fontawesome.com/license (Commercial License) Copyright 2025 Fonticons, Inc. --><path fill="currentColor" d="M32 224l0 288 256 0 0-288c0-50.8 11.2-97.5 30.1-132.1 5.6-10.2 12-19.6 19.2-27.9L112 64C94.1 64 74.4 77.5 58.2 107.2 42.3 136.3 32 177.5 32 224zM0 224C0 173.2 11.2 126.5 30.1 91.9 48.6 57.9 76.9 32 112 32l288 0c35.1 0 63.4 25.9 81.9 59.9 18.9 34.6 30.1 81.4 30.1 132.1s-11.2 97.5-30.1 132.1c-18.6 34-46.8 59.9-81.9 59.9-33.9 0-61.4-24.1-80-56.4L320 544 0 544 0 224zm320 0c0 46.5 10.3 87.7 26.2 116.8 16.2 29.7 35.9 43.2 53.8 43.2s37.6-13.5 53.8-43.2C469.7 311.7 480 270.5 480 224s-10.3-87.7-26.2-116.8C437.6 77.5 417.9 64 400 64s-37.6 13.5-53.8 43.2C330.3 136.3 320 177.5 320 224zm104 0c0 26.5-10.7 48-24 48s-24-21.5-24-48 10.7-48 24-48 24 21.5 24 48zM246 138.9l-8.5 13.6-80 128-4.7 7.5-16.9 0-4.8-6.4-48-64-9.6-12.8 25.6-19.2c2.3 3.1 16.9 22.5 43.6 58.1l67.6-108.2 8.5-13.6 27.1 17z"/></svg>