<svg xmlns="http://www.w3.org/2000/svg" viewBox="0 0 448 512"><!--! Font Awesome Pro 7.0.0 by @fontawesome - https://fontawesome.com License - https://fontawesome.com/license (Commercial License) Copyright 2025 Fonticons, Inc. --><path fill="currentColor" d="M352 122.6c0 13.9 4.5 27.4 12.8 38.5l55.6 74.2c17.9 23.8 27.5 52.8 27.5 82.6 0 41.8-19 81.3-51.6 107.4-52.9 42.3-89 71.2-108.4 86.7 6.2-37.4 9.5-57.1 9.8-59 4-24 .3-48.7-10.6-70.5-9.9-19.9-25.4-36.5-44.6-47.8L126.2 266.2C48 220.2 0 136.3 0 45.6L0 0 416 0 416 32 370.8 77.2c-12 12-18.8 28.4-18.8 45.4zm24.4 277.7c25-20 39.6-50.4 39.6-82.5 0-4.7-.3-9.3-.9-13.9l-161.6 0 5.3 3.1c24.5 14.4 44.3 35.6 57 61 10.6 21.2 15.9 44.6 15.5 68.1l45-36zM405.5 272c-3-6.1-6.5-12-10.6-17.5l-55.6-74.2c-4.7-6.3-8.6-13.1-11.7-20.3L63.4 160c19 31.9 45.9 59.2 79 78.7l56.7 33.3 206.4 0zM320 122.6c0-25.5 10.1-50 28.2-68L370.7 32 32 32 32 45.6c0 28.7 5.5 56.6 15.7 82.4l272.4 0c-.1-1.8-.2-3.6-.2-5.4z"/></svg>