<svg xmlns="http://www.w3.org/2000/svg" viewBox="0 0 384 512"><!--! Font Awesome Pro 7.0.0 by @fontawesome - https://fontawesome.com License - https://fontawesome.com/license (Commercial License) Copyright 2025 Fonticons, Inc. --><path fill="currentColor" d="M208.3 32l0 192 144 0 0-192-144 0zm-32 0l-144 0 0 192 144 0 0-192zM.3 256l0-256 384 0 0 448-62.7 0 56 70 8 10-41 0-64-80-176.6 0-64 80-41 0 8-10 56-70-62.7 0 0-192zm352 160l0-160-320 0 0 160 320 0zm-64-120a24 24 0 1 1 0 48 24 24 0 1 1 0-48zm-216 24a24 24 0 1 1 48 0 24 24 0 1 1 -48 0z"/></svg>