<svg xmlns="http://www.w3.org/2000/svg" viewBox="0 0 640 512"><!--! Font Awesome Pro 7.0.0 by @fontawesome - https://fontawesome.com License - https://fontawesome.com/license (Commercial License) Copyright 2025 Fonticons, Inc. --><path fill="currentColor" d="M512 64l0 320-209.6 0c-14.6-28.5-44.2-48-78.4-48s-63.8 19.5-78.4 48L64 384 64 64 512 64zM64 416l72.4 0c-.2 2.6-.4 5.3-.4 8 0 48.6 39.4 88 88 88s88-39.4 88-88c0-2.7-.1-5.4-.4-8l328.4 0 0-32-96 0 0-352-512 0 0 384 32 0zM352 128l-32 0 0 160 32 0 0-160zm64 0l0 160 32 0 0-160-32 0zm-256 0l-32 0 0 160 32 0 0-160zm64 0l0 160 32 0 0-160-32 0zm0 240a56 56 0 1 1 0 112 56 56 0 1 1 0-112z"/></svg>