<svg xmlns="http://www.w3.org/2000/svg" viewBox="0 0 576 512"><!--! Font Awesome Pro 7.0.0 by @fontawesome - https://fontawesome.com License - https://fontawesome.com/license (Commercial License) Copyright 2025 Fonticons, Inc. --><path fill="currentColor" d="M288 48a24 24 0 1 0 0-48 24 24 0 1 0 0 48zm0-80a56 56 0 1 1 0 112 56 56 0 1 1 0-112zm-68 144l136.1 0 4.7 7.7 92.9 152 8.3 13.7-27.3 16.7-8.3-13.7-58.4-95.4 0 287.1-32 0 0-112-96 0 0 112-32 0 0-287.1-58.3 95.4-8.3 13.7-27.3-16.7 8.3-13.7 92.9-152 4.7-7.7zM208 544l-80 0 0-32 320 0 0 32-240 0zM336 144l-96 0 0 192 96 0 0-192zM544 16l0 16 32 0 0 32-32 0 0 32-32 0 0-32-32 0 0-32 32 0 0-32 32 0 0 16zM64 80l0 16 32 0 0 32-32 0 0 32-32 0 0-32-32 0 0-32 32 0 0-32 32 0 0 16z"/></svg>