<svg xmlns="http://www.w3.org/2000/svg" viewBox="0 0 448 512"><!--! Font Awesome Pro 7.0.0 by @fontawesome - https://fontawesome.com License - https://fontawesome.com/license (Commercial License) Copyright 2025 Fonticons, Inc. --><path fill="currentColor" d="M152-16l-11.9 0-3.4 11.4-20.6 68.6-116.1 0 0 32 448 0 0-32-116.1 0-20.6-68.6-3.4-11.4-155.9 0zM298.5 64l-149 0 14.4-48 120.2 0 14.4 48zM32 144l0 368 384 0 0-368-32 0 0 336-320 0 0-336-32 0zm278 90.9l-27.1-17-8.5 13.6-67.6 108.2c-26.7-35.6-41.3-55-43.6-58.1l-25.6 19.2 9.6 12.8 48 64 4.8 6.4 16.9 0 4.7-7.5 80-128 8.5-13.6z"/></svg>