<svg xmlns="http://www.w3.org/2000/svg" viewBox="0 0 448 512"><!--! Font Awesome Pro 7.0.0 by @fontawesome - https://fontawesome.com License - https://fontawesome.com/license (Commercial License) Copyright 2025 Fonticons, Inc. --><path fill="currentColor" d="M140.1-16l167.8 0 3.4 11.4 20.6 68.6 116.1 0 0 32-448 0 0-32 116.1 0 20.6-68.6 3.4-11.4zm144 32l-120.2 0-14.4 48 149 0-14.4-48zM56 512l-27.3-368 32.1 0 24.9 336 276.6 0 24.9-336 32.1 0-27.3 368-336 0zm89.4-280L168 209.4c2 2 20.6 20.6 56 56 35.3-35.3 54-54 56-56L302.6 232c-2 2-20.6 20.6-56 56 35.3 35.3 54 54 56 56l-22.6 22.6-56-56c-35.3 35.4-54 54-56 56L145.4 344c2-2 20.6-20.6 56-56-35.3-35.3-54-54-56-56z"/></svg>