<svg xmlns="http://www.w3.org/2000/svg" viewBox="0 0 448 512"><!--! Font Awesome Pro 7.0.0 by @fontawesome - https://fontawesome.com License - https://fontawesome.com/license (Commercial License) Copyright 2025 Fonticons, Inc. --><path fill="currentColor" d="M32 64l0 192 32 0 0-128 320 0 0 128 32 0 0-192-384 0zm0 224l0 128 384 0 0-128-384 0zM0 256l0-224 448 0 0 480-32 0 0-64-384 0 0 64-32 0 0-256zm96 0l256 0 0-96-256 0 0 96zm0 72a24 24 0 1 1 0 48 24 24 0 1 1 0-48zm232 24a24 24 0 1 1 48 0 24 24 0 1 1 -48 0z"/></svg>