<svg xmlns="http://www.w3.org/2000/svg" viewBox="0 0 640 512"><!--! Font Awesome Pro 7.0.0 by @fontawesome - https://fontawesome.com License - https://fontawesome.com/license (Commercial License) Copyright 2025 Fonticons, Inc. --><path fill="currentColor" d="M64 64l0 288 9.6 0c14.6-28.5 44.2-48 78.4-48s63.8 19.5 78.4 48l153.6 0 0-288-320 0zM32 352l0-64-32 0 0-160 32 0 0-96 384 0 0 64 66.5 0 4.2 9.6 44.8 102.4 76.5 0 0 176-48.4 0c.2 2.6 .4 5.3 .4 8 0 48.6-39.4 88-88 88s-88-39.4-88-88c0-2.7 .1-5.4 .4-8l-144.7 0c.2 2.6 .4 5.3 .4 8 0 48.6-39.4 88-88 88s-88-39.4-88-88c0-2.7 .1-5.4 .4-8l-32.4 0 0-32zm384-27.9c15.2-12.6 34.7-20.1 56-20.1 34.2 0 63.8 19.5 78.4 48l25.6 0 0-112-160 0 0 84.1zM416 208l80.5 0-35-80-45.5 0 0 80zM152 448a56 56 0 1 0 0-112 56 56 0 1 0 0 112zm376-56a56 56 0 1 0 -112 0 56 56 0 1 0 112 0zM144 144l0 64c0 8.8 7.2 16 16 16s16-7.2 16-16l0-80 32 0 0 80c0 26.5-21.5 48-48 48s-48-21.5-48-48l0-80 32 0 0 16zm112-16l17.9 0 4.4 8.8 25.7 51.4 0-60.2 32 0 0 128-33.9 0-4.4-8.8-25.7-51.4 0 60.2-32 0 0-128 16 0z"/></svg>