<svg xmlns="http://www.w3.org/2000/svg" viewBox="0 0 640 512"><!--! Font Awesome Pro 7.0.0 by @fontawesome - https://fontawesome.com License - https://fontawesome.com/license (Commercial License) Copyright 2025 Fonticons, Inc. --><path fill="currentColor" d="M256 64l0 128 202.7 0-76.8-128-125.9 0zM224 192l0-160 176 0 96 160 112 0 0 160 32 0 0 32-64.4 0c.2 2.6 .4 5.3 .4 8 0 48.6-39.4 88-88 88s-88-39.4-88-88c0-2.7 .1-5.4 .4-8l-160.7 0c.2 2.6 .4 5.3 .4 8 0 48.6-39.4 88-88 88s-88-39.4-88-88c0-2.7 .1-5.4 .4-8l-64.4 0 0-32 32 0 0-160 192 0zm272 32l-432 0 0 128 9.6 0c14.6-28.5 44.2-48 78.4-48s63.8 19.5 78.4 48l179.2 0c14.6-28.5 44.2-48 78.4-48s63.8 19.5 78.4 48l9.6 0 0-128-80 0zM208 392a56 56 0 1 0 -112 0 56 56 0 1 0 112 0zm280 56a56 56 0 1 0 0-112 56 56 0 1 0 0 112z"/></svg>