<svg xmlns="http://www.w3.org/2000/svg" viewBox="0 0 640 512"><!--! Font Awesome Pro 7.0.0 by @fontawesome - https://fontawesome.com License - https://fontawesome.com/license (Commercial License) Copyright 2025 Fonticons, Inc. --><path fill="currentColor" d="M224 160l-56.8 56C190 275.2 236.8 322 296 344.8l56-56.8 160 96-64 128-16 0C193.4 512 0 318.6 0 80L0 64 128 0 224 160zm94.8 207.2l-14.7 14.9-19.6-7.5c-67.6-26-121.1-79.5-147.1-147.1l-7.5-19.6c6-5.9 23.9-23.6 53.8-53.1L115.8 41.9 32 83.8C34 301.7 210.3 478 428.2 480l41.9-83.8-113-67.8-38.3 38.9zM344 40l0 48-48 0 0-48 48 0zm0 96l0 48-48 0 0-48 48 0zm240 0l48 0 0 48-48 0 0-48zM440 40l0 48-48 0 0-48 48 0zm48 0l48 0 0 48-48 0 0-48zm144 0l0 48-48 0 0-48 48 0zM384 144l160 0 0 32-160 0 0-32z"/></svg>