<svg xmlns="http://www.w3.org/2000/svg" viewBox="0 0 512 512"><!--! Font Awesome Pro 7.0.0 by @fontawesome - https://fontawesome.com License - https://fontawesome.com/license (Commercial License) Copyright 2025 Fonticons, Inc. --><path fill="currentColor" d="M361.6 160.3l.1-21-19.2-8.5c-55.1-24.5-118-24.5-173.1 0l-19.2 8.5c.1 10.9 .2 31 .4 60.2l-92.5 23.1-21.8-70.3C159 34.5 353.1 34.5 475.8 152.4l-21.8 70.3-92.5-23.1 .3-39.3zM36.6 261.1l146.3-36.6-.4-64.4c46.8-20.8 100.3-20.8 147.2 0l-.4 64.4 146.3 36.6 36.6-117.7-9.1-9.1C366.6-2.1 145.5-2.1 9.2 134.3L.1 143.4 36.6 261.1zM40 328l0 48 48 0 0-48-48 0zm96 0l0 48 48 0 0-48-48 0zM88 424l-48 0 0 48 48 0 0-48zm336 0l0 48 48 0 0-48-48 0zM280 328l-48 0 0 48 48 0 0-48zm48 0l0 48 48 0 0-48-48 0zm144 0l-48 0 0 48 48 0 0-48zM128 432l0 32 256 0 0-32-256 0z"/></svg>