<svg xmlns="http://www.w3.org/2000/svg" viewBox="0 0 576 512"><!--! Font Awesome Pro 7.0.0 by @fontawesome - https://fontawesome.com License - https://fontawesome.com/license (Commercial License) Copyright 2025 Fonticons, Inc. --><path fill="currentColor" d="M0 352l96 0 0-144C96 93.1 189.1 0 304 0 418.9 0 512 93.1 512 208l0 240-128 0 0-240c0-44.2-35.8-80-80-80-44.2 0-80 35.8-80 80l0 144 96 0-160 160-160-160zm242.8 32l-50.8 0 0-176c0-59.9 47.1-108.8 106.2-111.8L304 96c61.8 0 112 50.2 112 112l0 208 64 0 0-208c0-97.2-78.8-176-176-176l-9.1 .2C202 36.9 128 113.8 128 208l0 176-50.8 0 82.8 82.7 82.8-82.7z"/></svg>