<svg xmlns="http://www.w3.org/2000/svg" viewBox="0 0 512 512"><!--! Font Awesome Pro 7.0.0 by @fontawesome - https://fontawesome.com License - https://fontawesome.com/license (Commercial License) Copyright 2025 Fonticons, Inc. --><path fill="currentColor" d="M272-16l0-16-32 0 0 32.5C116.7 8.1 17.1 102.9 2 224 .7 234.5 0 245.2 0 256l512 0c0-10.8-.7-21.5-2-32-15.1-121.1-114.8-215.9-238-223.5L272-16zM256 32c112.8 0 206.2 83.4 221.7 192L34.3 224C49.8 115.4 143.2 32 256 32zm16 272l-32 0 0 144.4c0 17.5-14.2 31.6-31.6 31.6-15.5 0-28.7-11.2-31.2-26.4-.7-4.2-2-12.2-4-24l-31.6 5.3c2 11.8 3.3 19.8 4 24 5.1 30.7 31.7 53.2 62.8 53.2 35.1 0 63.6-28.5 63.6-63.6L272 304z"/></svg>