<svg xmlns="http://www.w3.org/2000/svg" viewBox="0 0 448 512"><!--! Font Awesome Pro 7.0.0 by @fontawesome - https://fontawesome.com License - https://fontawesome.com/license (Commercial License) Copyright 2025 Fonticons, Inc. --><path fill="currentColor" d="M286.6 161.4C335.8 112.2 368.2 79.8 384 64L32 64 32 416c15.8-15.8 48.2-48.2 97.4-97.4L152 296 174.6 318.6 313.4 457.4 336 480 448 368 425.4 345.4 286.6 206.6 264 184 286.6 161.4zM402.7 368L336 434.7 174.6 273.4 152 250.7c-8 8-37.3 37.3-88 88L64 96 306.7 96c-50.7 50.7-80 80-88 88L241.4 206.6 402.7 368z"/></svg>