<svg xmlns="http://www.w3.org/2000/svg" viewBox="0 0 576 512"><!--! Font Awesome Pro 7.0.0 by @fontawesome - https://fontawesome.com License - https://fontawesome.com/license (Commercial License) Copyright 2025 Fonticons, Inc. --><path fill="currentColor" d="M16.1-38.6L-6.5-16c.1 .1 22.5 22.5 67.3 67.3L72.1 62.6 94.8 40c-.1-.1-22.5-22.5-67.3-67.3L16.1-38.6zm544 0l-11.3 11.3-56 56-11.3 11.3 22.6 22.6 11.3-11.3 56-56 11.3-11.3-22.6-22.6zM27.4 539.3l56-56 11.3-11.3-22.6-22.6-11.3 11.3-56 56-11.3 11.3 22.6 22.6 11.3-11.3zm532.7 11.3l22.6-22.6-67.3-67.3-11.3-11.3-22.6 22.6 11.3 11.3 67.3 67.3zM240.1 144a48 48 0 1 1 96 0 48 48 0 1 1 -96 0zm128 0a80 80 0 1 0 -160 0 80 80 0 1 0 160 0zM194.3 400l36-96 115.6 0 36 96 34.2 0-48-128-160 0-48 128 34.2 0zM150.9 288l-30.7 0-48 112 34.8 0 15.4-35.9 28.6-76.1zm303.1 76.1l15.4 35.9 34.8 0-48-112-30.7 0 28.6 76.1zM176.9 207.3c-18.6-3.4-32.7-19.7-32.7-39.3 0-13.2 6.4-24.9 16.3-32.2 .8-13.4 3.7-26.2 8.4-38.2-32.4 7-56.7 35.9-56.7 70.4 0 39.8 32.2 72 72 72 5.9 0 11.6-.7 17.1-2-9.6-8.9-17.8-19.2-24.3-30.6zM375.1 238c5.5 1.3 11.2 2 17.1 2 39.8 0 72-32.2 72-72 0-34.5-24.3-63.3-56.7-70.4 4.6 12 7.5 24.8 8.4 38.2 9.9 7.3 16.3 19 16.3 32.2 0 19.6-14.1 35.9-32.7 39.3-6.5 11.4-14.7 21.7-24.3 30.6z"/></svg>