<svg xmlns="http://www.w3.org/2000/svg" viewBox="0 0 576 512"><!--! Font Awesome Pro 7.0.0 by @fontawesome - https://fontawesome.com License - https://fontawesome.com/license (Commercial License) Copyright 2025 Fonticons, Inc. --><path fill="currentColor" d="M288 176a48 48 0 1 0 0-96 48 48 0 1 0 0 96zm0-128a80 80 0 1 1 0 160 80 80 0 1 1 0-160zM152 192c8 0 15.4-2.3 21.7-6.4 4.9 9.6 10.9 18.5 17.9 26.5-.5 .3-1 .7-1.6 1-5.3 1.9-10.4 4.3-15.2 7.1-7.2 2.4-14.9 3.7-22.8 3.7-39.8 0-72-32.2-72-72s32.2-72 72-72c5.7 0 11.2 .7 16.5 1.9-3.8 9.8-6.4 20.2-7.7 31.1-2.9-.6-5.8-1-8.9-1-22.1 0-40 17.9-40 40s17.9 40 40 40zm234 21.2c-.5-.3-1-.7-1.6-1 7-8 13-16.9 17.9-26.5 6.2 4 13.7 6.4 21.7 6.4 22.1 0 40-17.9 40-40s-17.9-40-40-40c-3 0-6 .3-8.9 1-1.3-10.8-3.9-21.2-7.7-31.1 5.3-1.2 10.9-1.9 16.5-1.9 39.8 0 72 32.2 72 72s-32.2 72-72 72c-8 0-15.7-1.3-22.8-3.7-4.8-2.8-9.9-5.2-15.2-7.1zM134.7 272l-12 32-37.6 0-34.3 80-34.8 0 48-112 70.7 0zm318.5 32l-12-32 70.7 0 48 112-34.8 0-34.3-80-37.6 0zM214.2 288l-36 96-34.2 0 48-128 192 0 48 128-34.2 0-36-96-147.6 0zM16 448l560 0 0 32-576 0 0-32 16 0z"/></svg>