<svg xmlns="http://www.w3.org/2000/svg" viewBox="0 0 448 512"><!--! Font Awesome Pro 7.0.0 by @fontawesome - https://fontawesome.com License - https://fontawesome.com/license (Commercial License) Copyright 2025 Fonticons, Inc. --><path fill="currentColor" d="M400 80l-32 12.8 0 19.2s-5.8 2.8-16 6.7l0 25.3c0 70.7-57.3 128-128 128S96 214.7 96 144l0-25.3c-10.2-3.9-16-6.7-16-6.7l0-19.2-32-12.8 0-64 176-48 176 48 0 64zM128 129.4l0 14.6c0 53 43 96 96 96s96-43 96-96l0-14.6c-25.9 7.5-59.9 14.6-96 14.6s-70.1-7.1-96-14.6zm187.5-32c7.8-2.4 14.7-4.7 20.5-6.9l0-19.4c14.8-5.9 25.4-10.2 32-12.8l0-17.9-137.1-37.4C252.2 24.3 282.9 55 291.9 64l-45.3 45.3-1.9 1.9c26.5-2.1 51.2-7.9 70.8-13.8zM203.3 111.2l-1.9-1.9c-15.1-15.1-30.2-30.2-45.3-45.3 35.1-35.1 55.4-55.4 60.9-60.9L80 40.4 80 58.3c6.6 2.6 17.2 6.9 32 12.8l0 19.4c5.7 2.1 12.6 4.5 20.5 6.9 19.6 5.9 44.3 11.7 70.8 13.8zM192 304l80 0 0 32-20.1 0 31.1 53.3 45-69.3 56 0 64 192-33.7 0-53.3-160-15.6 0-94.5 145.4-9.5 14.6-34.7 0-9.5-14.6-94.5-145.4-15.6 0-53.3 160-33.7 0 64-192 56 0 45 69.3 31.1-53.3-20.1 0 0-32 16 0zm-7.4 115.3c13.8 21.2 26.9 41.4 39.4 60.7 12.5-19.2 25.7-39.5 39.4-60.7l-39.4-67.6-39.4 67.6zM224 41.4L201.4 64 224 86.6 246.6 64 224 41.4z"/></svg>