<svg xmlns="http://www.w3.org/2000/svg" viewBox="0 0 448 512"><!--! Font Awesome Pro 7.0.0 by @fontawesome - https://fontawesome.com License - https://fontawesome.com/license (Commercial License) Copyright 2025 Fonticons, Inc. --><path fill="currentColor" d="M224 32c-41.8 0-77.4 26.7-90.5 64l85 0 60.2-46.9C263.2 38.3 244.4 32 224 32zm9.8 92.6l-4.3 3.4-101.5 0 0 16c0 53 43 96 96 96s96-43 96-96l0-16c0-21-6.7-40.4-18.2-56.2l-68 52.9zM96 128C96 57.3 153.3 0 224 0S352 57.3 352 128l0 28.8C382.8 230.7 398.8 269 400 272L48 272c1.2-3 17.2-41.4 48-115.2L96 128zm15 76.1l-15 35.9 43.3 0c-11.5-10.1-21.1-22.3-28.4-35.9zM308.7 240l43.3 0-15-35.9c-7.3 13.6-16.9 25.8-28.4 35.9zM176 304l96 0 0 32-20.1 0 31.1 53.3 45-69.3 56 0 64 192-33.7 0-53.3-160-15.6 0-94.5 145.4-9.5 14.6-34.7 0-9.5-14.6-94.5-145.4-15.6 0-53.3 160-33.7 0 64-192 56 0 45 69.3 31.1-53.3-20.1 0 0-32zm28.9 146.6L224 480c12.5-19.2 25.7-39.5 39.4-60.7l-39.4-67.6-39.4 67.6 20.3 31.3z"/></svg>