<svg xmlns="http://www.w3.org/2000/svg" viewBox="0 0 640 512"><!--! Font Awesome Pro 7.0.0 by @fontawesome - https://fontawesome.com License - https://fontawesome.com/license (Commercial License) Copyright 2025 Fonticons, Inc. --><path fill="currentColor" d="M352 128a96 96 0 1 0 -192 0 96 96 0 1 0 192 0zM65.5 512l-33.5 0 64-208 232.2 0c-.1 2.6-.2 5.3-.2 8 0 8.1 .6 16.2 1.7 24l-210.1 0-54.2 176zM256 0a128 128 0 1 1 0 256 128 128 0 1 1 0-256zM496 224c-48.6 0-88 39.4-88 88 0 33.9 19.2 63.4 47.4 78.1l8.6 4.5 0 109.5 40 30.3 31.7-24c-14-14-24.1-24.1-30.3-30.3l32-32-20.7-20.7-4.7-4.7 0-23.3 11.1-3.6c35.4-11.4 60.9-44.6 60.9-83.8 0-48.6-39.4-88-88-88zM376 312c0-66.3 53.7-120 120-120s120 53.7 120 120c0 45.9-25.7 85.7-63.5 105.9L582.6 448c-6 6-16.6 16.7-32 32 15.1 15.1 26.3 26.3 33.7 33.7-2.9 2.2-26.4 20-70.6 53.5l-9.7 7.3-9.7-7.3-56-42.4-6.3-4.8 0-106.4c-33.6-21.2-56-58.8-56-101.5zm120 0a24 24 0 1 1 0-48 24 24 0 1 1 0 48z"/></svg>