<svg xmlns="http://www.w3.org/2000/svg" viewBox="0 0 448 512"><!--! Font Awesome Pro 7.0.0 by @fontawesome - https://fontawesome.com License - https://fontawesome.com/license (Commercial License) Copyright 2025 Fonticons, Inc. --><path fill="currentColor" d="M224 224a96 96 0 1 0 0-192 96 96 0 1 0 0 192zm128-96a128 128 0 1 1 -256 0 128 128 0 1 1 256 0zM288 402l0-50-128 0 0 50.3c23.1 6.9 40 28.3 40 53.7 0 30.9-25.1 56-56 56s-56-25.1-56-56c0-25.4 16.9-46.8 40-53.7l0-50.3-40.9 0-53.3 160-33.7 0 64-192 320 0 64 192-33.7 0-53.3-160-40.9 0 0 50c27.6 7.1 48 32.2 48 62l0 40-32 0 0-40c0-17.7-14.3-32-32-32s-32 14.3-32 32l0 40-32 0 0-40c0-29.8 20.4-54.9 48-62zM168 456c0-13.3-10.7-24-24-24s-24 10.7-24 24 10.7 24 24 24 24-10.7 24-24z"/></svg>