<svg xmlns="http://www.w3.org/2000/svg" viewBox="0 0 512 512"><!--! Font Awesome Pro 7.0.0 by @fontawesome - https://fontawesome.com License - https://fontawesome.com/license (Commercial License) Copyright 2025 Fonticons, Inc. --><path fill="currentColor" d="M256 32a224 224 0 1 1 0 448 224 224 0 1 1 0-448zm0 480a256 256 0 1 0 0-512 256 256 0 1 0 0 512zM356.7 155.3c55.6 55.6 55.6 145.8 0 201.4l22.6 22.6c68.1-68.1 68.1-178.5 0-246.6s-178.5-68.1-246.6 0l22.6 22.6c55.6-55.6 145.8-55.6 201.4 0zM203.3 212.7l-11.3-11.3-22.6 22.6 11.3 11.3 96 96 11.3 11.3 22.6-22.6-11.3-11.3-96-96zm-64 64l-11.3-11.3-22.6 22.6 11.3 11.3 96 96 11.3 11.3 22.6-22.6-11.3-11.3-96-96z"/></svg>