<svg xmlns="http://www.w3.org/2000/svg" viewBox="0 0 512 512"><!--! Font Awesome Pro 7.0.0 by @fontawesome - https://fontawesome.com License - https://fontawesome.com/license (Commercial License) Copyright 2025 Fonticons, Inc. --><path fill="currentColor" d="M132.9 327.8l-9-7.8-91.9 0 0-128 91.9 0 9-7.8 123.1-106.3 0 356.2-123.1-106.3zM0 352l112 0c114.7 99 173.3 149.7 176 152L288 8c-2.7 2.3-61.3 53-176 152L0 160 0 352zM358.4 204.8C374 216.5 384 235.1 384 256s-10 39.5-25.6 51.2l-10.2 7.7 19.2 25.6 10.3-7.7C400.9 315.3 416 287.4 416 256s-15.1-59.3-38.4-76.8l-10.2-7.7-19.2 25.6 10.2 7.7zM418 124.5c37.9 31.3 62 78.6 62 131.5s-24.1 100.2-62 131.5l-9.5 7.8 19.2 25.6 10.7-8.8C483.3 375.1 512 318.9 512 256S483.3 136.9 438.4 99.8l-10.7-8.8-19.2 25.6 9.5 7.8z"/></svg>