<svg xmlns="http://www.w3.org/2000/svg" viewBox="0 0 448 512"><!--! Font Awesome Pro 7.0.0 by @fontawesome - https://fontawesome.com License - https://fontawesome.com/license (Commercial License) Copyright 2025 Fonticons, Inc. --><path fill="currentColor" d="M132.2 0l268.3 0 0 386c27.6 7.1 48 32.2 48 62 0 35.3-28.7 64-64 64s-64-28.7-64-64c0-29.8 20.4-54.9 48-62l0-162-262.9 0-73.6 276.1-30.9-8.2 128-480 3.2-11.9zM114.1 192l254.4 0 0-160-211.7 0-42.7 160zM352.5 448c0 17.7 14.3 32 32 32s32-14.3 32-32-14.3-32-32-32-32 14.3-32 32z"/></svg>