<svg xmlns="http://www.w3.org/2000/svg" viewBox="0 0 448 512"><!--! Font Awesome Pro 7.0.0 by @fontawesome - https://fontawesome.com License - https://fontawesome.com/license (Commercial License) Copyright 2025 Fonticons, Inc. --><path fill="currentColor" d="M131.9 78.4C159.5 64.1 190.8 56 224 56s64.5 8.1 92.1 22.4L307.4 0 140.6 0 131.9 78.4zM97.2 101.3L112-32 336-32 350.8 101.3C395.5 138 424 193.7 424 256s-28.5 118-73.2 154.7L336 544 112 544 97.2 410.7C52.5 374 24 318.3 24 256S52.5 138 97.2 101.3zm34.7 332.3l8.7 78.4 166.7 0 8.7-78.4C288.5 447.9 257.2 456 224 456s-64.5-8.1-92.1-22.4zM240 160l0 89.4c34.2 34.2 52.4 52.4 54.6 54.6L272 326.6c-1.4-1.4-21.2-21.2-59.3-59.3l-4.7-4.7 0-102.6 32 0zm152 96a168 168 0 1 0 -336 0 168 168 0 1 0 336 0z"/></svg>