<svg xmlns="http://www.w3.org/2000/svg" viewBox="0 0 512 512"><!--! Font Awesome Pro 7.0.0 by @fontawesome - https://fontawesome.com License - https://fontawesome.com/license (Commercial License) Copyright 2025 Fonticons, Inc. --><path fill="currentColor" d="M272 16l0-16-32 0 0 185.4c-42-42-63.4-63.4-64-64l-22.6 22.6 11.3 11.3 80 80 11.3 11.3 11.3-11.3 80-80 11.3-11.3-22.6-22.6-11.3 11.3-52.7 52.7 0-169.4zM129.3 294.9l-5.7 2.1-126.7 48 11.3 29.9 121-45.9 121 45.9 5.7 2.1 5.7-2.1 121-45.9 121 45.9 11.3-29.9-126.7-48-5.7-2.1-5.7 2.1-121 45.9-121-45.9-5.7-2.1zm0 128l-5.7 2.1-126.7 48 11.3 29.9 121-45.9 121 45.9 5.7 2.1 5.7-2.1 121-45.9 121 45.9 11.3-29.9-126.7-48-5.7-2.1-5.7 2.1-121 45.9-121-45.9-5.7-2.1z"/></svg>