<svg xmlns="http://www.w3.org/2000/svg" viewBox="0 0 640 512"><!--! Font Awesome Pro 7.0.0 by @fontawesome - https://fontawesome.com License - https://fontawesome.com/license (Commercial License) Copyright 2025 Fonticons, Inc. --><path fill="currentColor" d="M452.4 393l121 45.9 52-19.5 11.2 30-15 5.6-42.7 16-5.7 2.1-5.7-2.1-121-45.8-121 45.8-5.7 2.2-5.7-2.2-121-45.8-121 45.8-5.7 2.1-5.6-2.1-42.7-16-15-5.6 11.2-30 52 19.5 121-45.9 5.7-2.2 5.7 2.2 121 45.8 121-45.8 5.7-2.2 5.7 2.2zM496.1 32c44.2 0 80 35.8 80 80l0 48-32 0 0-48c0-26.5-21.5-48-48-48s-48 21.5-48 48l0 221.8-8-3.2-24 9.6 0-84-224 0 0 77.6c-13.4 5.4-24.1 9.7-32 12.8l0-234.6c0-44.2 35.8-80 80-80s80 35.8 80 80l0 48-32 0 0-48c0-26.5-21.5-48-48-48s-48 21.5-48 48l0 112.2 224 0 0-112.2c0-44.2 35.8-80 80-80z"/></svg>