<svg xmlns="http://www.w3.org/2000/svg" viewBox="0 0 576 512"><!--! Font Awesome Pro 7.0.0 by @fontawesome - https://fontawesome.com License - https://fontawesome.com/license (Commercial License) Copyright 2025 Fonticons, Inc. --><path fill="currentColor" d="M35.8-19.2L24.5-30.5 1.8-7.9 13.2 3.4 541 531.2 552.3 542.5 574.9 519.9 563.6 508.6 295.1 240.1c55.3 1.9 104.6 27.2 138.4 66.3L456.5 284c-41-46.6-101.2-76-168.2-76-8.1 0-16.1 .4-24 1.3L147.1 92.1C190.6 74 238.3 64 288.3 64 395.7 64 492.4 110 559.6 183.4l22.9-22.3C509.5 81.7 404.7 32 288.3 32 229.2 32 173.2 44.8 122.8 67.8l-87-87zM51.4 109.6c-20.8 15.3-40 32.5-57.4 51.4l22.9 22.3c17.3-18.9 36.5-35.9 57.4-50.9L51.4 109.6zM178.5 236.7c-22 12.4-41.8 28.5-58.4 47.3l22.9 22.4c16.4-19 36.5-34.7 59.1-46l-23.7-23.7zM288.3 400a24 24 0 1 1 0 48 24 24 0 1 1 0-48zm0 80a56 56 0 1 0 0-112 56 56 0 1 0 0 112z"/></svg>