<svg xmlns="http://www.w3.org/2000/svg" viewBox="0 0 320 512"><!--! Font Awesome Pro 7.0.0 by @fontawesome - https://fontawesome.com License - https://fontawesome.com/license (Commercial License) Copyright 2025 Fonticons, Inc. --><path fill="currentColor" d="M51.8 0l216.4 0 3.2 11.8 43 157.8c3.7 13.5 5.5 27.4 5.5 41.3 0 82.4-63.4 149.9-144 156.6l0 144.5 96 0 0 32-224 0 0-32 96 0 0-144.5c-80.6-6.7-144-74.2-144-156.6 0-14 1.9-27.9 5.5-41.3L48.6 11.8 51.8 0zM76.2 32L36.4 178C33.5 188.7 32 199.8 32 210.9 32 280 88 336 157.1 336l5.8 0c69.1 0 125.1-56 125.1-125.1 0-11.1-1.5-22.2-4.4-32.9l-39.8-146-60.1 0c18.4 46.1 28 70 28.7 71.7-3.6 1.8-22.7 11.4-57.3 28.7 38.4 38.4 58.2 58.2 59.6 59.6l-22.6 22.6-11.3-11.3c-50.7-50.7-77.3-77.3-79.7-79.7 8.1-4 31.6-15.8 70.7-35.3L149.2 32 76.2 32z"/></svg>