<svg xmlns="http://www.w3.org/2000/svg" viewBox="0 0 448 512"><!--! Font Awesome Pro 7.0.1 by @fontawesome - https://fontawesome.com License - https://fontawesome.com/license (Commercial License) Copyright 2025 Fonticons, Inc. --><path style="fill:var(--fa-secondary-color,currentColor);opacity:var(--fa-secondary-opacity,.4)" d=""/><path style="fill:var(--fa-primary-color,currentColor);opacity:var(--fa-primary-opacity,1)" d="M24 512c-13.3 0-24-10.7-24-24s10.7-24 24-24l400 0c13.3 0 24 10.7 24 24s-10.7 24-24 24L24 512zm89-135c-9.4 9.4-24.6 9.4-33.9 0L7 305c-9.4-9.4-9.4-24.6 0-33.9s24.6-9.4 33.9 0l31 31 0-278.1C72 10.7 82.7 0 96 0s24 10.7 24 24l0 278.1 31-31c9.4-9.4 24.6-9.4 33.9 0s9.4 24.6 0 33.9l-72 72zm256 0c-9.4 9.4-24.6 9.4-33.9 0l-72-72c-9.4-9.4-9.4-24.6 0-33.9s24.6-9.4 33.9 0l31 31 0-278.1c0-13.3 10.7-24 24-24s24 10.7 24 24l0 278.1 31-31c9.4-9.4 24.6-9.4 33.9 0s9.4 24.6 0 33.9l-72 72z"/></svg>