<svg xmlns="http://www.w3.org/2000/svg" viewBox="0 0 512 512"><!--! Font Awesome Pro 7.1.0 by @fontawesome - https://fontawesome.com License - https://fontawesome.com/license (Commercial License) Copyright 2025 Fonticons, Inc. --><path opacity=".4" fill="currentColor" d="M48.8 208c8.1 89.7 83.4 160 175.2 160 97.2 0 176-78.8 176-176l0-80c0-35.3-28.7-64-64-64s-64 28.7-64 64l0 16c0 44.2-35.8 80-80 80L48.8 208zM360 120a24 24 0 1 1 -48 0 24 24 0 1 1 48 0z"/><path fill="currentColor" d="M336 0c49.7 0 91.8 32.4 106.5 77.2l61.8 37.1c4.8 2.9 7.8 8.1 7.8 13.7s-3 10.8-7.8 13.7l-56.2 33.7 0 16.6-.3 11.5c-4.5 88.9-60.9 164.1-139.4 196l40.9 77.2 1 2.2c4.6 11.3-.1 24.4-11 30.2-11 5.8-24.4 2.2-31.2-7.9l-1.3-2.1-45.7-86.4c-12.1 2-24.4 3.2-37.1 3.2-1 0-2-.1-3-.1l32.3 60.9 1 2.2c4.6 11.3 0 24.4-11 30.2s-24.4 2.2-31.2-7.9l-1.3-2.1-48.7-92C68.5 380.4 0 294.2 0 192l0-3.6c0-14.7 11.2-26.8 25.5-28.3l2.9-.2 163.6 0c17.7 0 32-14.3 32-32l0-16C224 50.1 274.1 0 336 0zm0 48c-35.3 0-64 28.7-64 64l0 16c0 44.2-35.8 80-80 80L48.8 208c8.1 89.7 83.4 160 175.2 160 97.2 0 176-78.8 176-176l0-80c0-35.3-28.7-64-64-64zm0 96a24 24 0 1 1 0-48 24 24 0 1 1 0 48z"/></svg>