<svg xmlns="http://www.w3.org/2000/svg" viewBox="0 0 512 512"><!--! Font Awesome Pro 7.1.0 by @fontawesome - https://fontawesome.com License - https://fontawesome.com/license (Commercial License) Copyright 2025 Fonticons, Inc. --><path opacity=".4" fill="currentColor" d="M48 256a208 208 0 1 0 416 0 208 208 0 1 0 -416 0zM151 151c9.4-9.4 24.6-9.4 33.9 0l22.3 22.3c14.3-8.4 31-13.3 48.8-13.3s34.5 4.8 48.8 13.3L327 151c9.4-9.4 24.6-9.4 33.9 0s9.4 24.6 0 33.9l-22.3 22.3c8.4 14.3 13.3 31 13.3 48.8s-4.8 34.5-13.3 48.8L361 327c9.4 9.4 9.4 24.6 0 33.9s-24.6 9.4-33.9 0l-22.3-22.3c-14.3 8.4-31 13.3-48.8 13.3s-34.5-4.8-48.8-13.3L185 361c-9.4 9.4-24.6 9.4-33.9 0s-9.4-24.6 0-33.9l22.3-22.3c-8.4-14.3-13.3-31-13.3-48.8s4.8-34.5 13.3-48.8L151 185c-9.4-9.4-9.4-24.6 0-33.9zm57 105a48 48 0 1 0 96 0 48 48 0 1 0 -96 0z"/><path fill="currentColor" d="M256 48a208 208 0 1 1 0 416 208 208 0 1 1 0-416zm0 464a256 256 0 1 0 0-512 256 256 0 1 0 0 512zM151 151c-9.4 9.4-9.4 24.6 0 33.9l22.3 22.3c-8.4 14.3-13.3 31-13.3 48.8s4.8 34.5 13.3 48.8L151 327c-9.4 9.4-9.4 24.6 0 33.9s24.6 9.4 33.9 0l22.3-22.3c14.3 8.4 31 13.3 48.8 13.3s34.5-4.8 48.8-13.3L327 361c9.4 9.4 24.6 9.4 33.9 0s9.4-24.6 0-33.9l-22.3-22.3c8.4-14.3 13.3-31 13.3-48.8s-4.8-34.5-13.3-48.8L361 185c9.4-9.4 9.4-24.6 0-33.9s-24.6-9.4-33.9 0l-22.3 22.3c-14.3-8.4-31-13.3-48.8-13.3s-34.5 4.8-48.8 13.3L185 151c-9.4-9.4-24.6-9.4-33.9 0zm105 57a48 48 0 1 1 0 96 48 48 0 1 1 0-96z"/></svg>