<svg xmlns="http://www.w3.org/2000/svg" viewBox="0 0 512 512"><!--! Font Awesome Pro 7.1.0 by @fontawesome - https://fontawesome.com License - https://fontawesome.com/license (Commercial License) Copyright 2025 Fonticons, Inc. --><path opacity=".4" fill="currentColor" d="M48 256a208 208 0 1 0 416 0 208 208 0 1 0 -416 0zm112-80c0-26.5 21.5-48 48-48l96 0c26.5 0 48 21.5 48 48l0 192c0 6.2-3.5 11.8-9.1 14.4s-12.1 1.9-16.9-1.9l-70-56-70 56c-4.8 3.8-11.4 4.6-16.9 1.9S160 374.2 160 368l0-192z"/><path fill="currentColor" d="M256 48a208 208 0 1 1 0 416 208 208 0 1 1 0-416zm0 464a256 256 0 1 0 0-512 256 256 0 1 0 0 512zM160 176l0 192c0 6.2 3.5 11.8 9.1 14.4s12.1 1.9 16.9-1.9l70-56 70 56c4.8 3.8 11.4 4.6 16.9 1.9s9.1-8.3 9.1-14.4l0-192c0-26.5-21.5-48-48-48l-96 0c-26.5 0-48 21.5-48 48z"/></svg>