<svg xmlns="http://www.w3.org/2000/svg" viewBox="0 0 512 512"><!--! Font Awesome Pro 7.1.0 by @fontawesome - https://fontawesome.com License - https://fontawesome.com/license (Commercial License) Copyright 2025 Fonticons, Inc. --><path opacity=".4" fill="currentColor" d="M48 256a208 208 0 1 0 416 0 208 208 0 1 0 -416 0zM160 144c0-13.3 10.7-24 24-24l152 0c8.8 0 16 7.2 16 16s-7.2 16-16 16l-44.1 0c9.3 11.3 15.9 25 18.7 40l25.5 0c8.8 0 16 7.2 16 16s-7.2 16-16 16l-25.5 0c-6.1 33-30.5 59.5-62.3 68.6L319 349.3c10.3 8.3 12 23.4 3.7 33.7s-23.4 12-33.7 3.8l-120-96c-8-6.4-11-17.1-7.7-26.7S173.8 248 184 248l40 0c16.4 0 30.5-9.9 36.7-24L176 224c-8.8 0-16-7.2-16-16s7.2-16 16-16l84.7 0c-6.2-14.1-20.3-24-36.7-24l-40 0c-13.3 0-24-10.7-24-24z"/><path fill="currentColor" d="M256 48a208 208 0 1 1 0 416 208 208 0 1 1 0-416zm0 464a256 256 0 1 0 0-512 256 256 0 1 0 0 512zM184 120c-13.3 0-24 10.7-24 24s10.7 24 24 24l40 0c16.4 0 30.5 9.9 36.7 24L176 192c-8.8 0-16 7.2-16 16s7.2 16 16 16l84.7 0c-6.2 14.1-20.3 24-36.7 24l-40 0c-10.2 0-19.3 6.4-22.6 16.1s-.3 20.3 7.7 26.7l120 96c10.3 8.3 25.5 6.6 33.7-3.8s6.6-25.5-3.7-33.7l-70.8-56.6c31.8-9.1 56.3-35.6 62.3-68.6l25.5 0c8.8 0 16-7.2 16-16s-7.2-16-16-16l-25.5 0c-2.8-15-9.3-28.7-18.7-40l44.1 0c8.8 0 16-7.2 16-16s-7.2-16-16-16l-152 0z"/></svg>