<svg xmlns="http://www.w3.org/2000/svg" viewBox="0 0 512 512"><!--! Font Awesome Pro 7.1.0 by @fontawesome - https://fontawesome.com License - https://fontawesome.com/license (Commercial License) Copyright 2025 Fonticons, Inc. --><path opacity=".4" fill="currentColor" d="M48 256a208 208 0 1 0 416 0 208 208 0 1 0 -416 0zm96-.6c0-4.7 2-9.2 5.5-12.4L290.7 116.7c3.4-3 7.8-4.7 12.4-4.7 12.4 0 21.3 12 17.8 23.9l-31.2 104.1 61.8 0c9.2 0 16.6 7.4 16.6 16.6 0 4.7-2 9.2-5.5 12.4L221.3 395.3c-3.4 3-7.8 4.7-12.4 4.7-12.4 0-21.3-12-17.8-23.9l31.2-104.1-61.8 0c-9.2 0-16.6-7.4-16.6-16.6z"/><path fill="currentColor" d="M256 48a208 208 0 1 1 0 416 208 208 0 1 1 0-416zm0 464a256 256 0 1 0 0-512 256 256 0 1 0 0 512zM160.6 272l61.8 0-31.2 104.1c-3.6 11.9 5.3 23.9 17.8 23.9 4.6 0 9-1.7 12.4-4.7L362.5 268.9c3.5-3.1 5.5-7.6 5.5-12.4 0-9.2-7.4-16.6-16.6-16.6l-61.8 0 31.2-104.1c3.6-11.9-5.3-23.9-17.8-23.9-4.6 0-9 1.7-12.4 4.7L149.5 243.1c-3.5 3.1-5.5 7.6-5.5 12.4 0 9.2 7.4 16.6 16.6 16.6z"/></svg>