<svg xmlns="http://www.w3.org/2000/svg" viewBox="0 0 512 512"><!--! Font Awesome Pro 7.1.0 by @fontawesome - https://fontawesome.com License - https://fontawesome.com/license (Commercial License) Copyright 2025 Fonticons, Inc. --><path opacity=".4" fill="currentColor" d="M48 256a208 208 0 1 0 416 0 208 208 0 1 0 -416 0zm80-40.4c0-35.1 28.5-63.6 63.6-63.6l24.4 0c13.3 0 24 10.7 24 24s-10.7 24-24 24l-24.4 0c-8.6 0-15.6 7-15.6 15.6 0 7.4 5.2 13.8 12.5 15.2l16.4 3.3c29.7 5.9 51.1 32 51.1 62.3 0 35.1-28.5 63.6-63.6 63.6L160 360c-13.3 0-24-10.7-24-24s10.7-24 24-24l32.4 0c8.6 0 15.6-7 15.6-15.6 0-7.4-5.2-13.8-12.5-15.3l-16.4-3.3c-29.7-5.9-51.1-32-51.1-62.3zM272.9 361.4l64-224c3.6-12.7 16.9-20.1 29.7-16.5s20.1 16.9 16.5 29.7l-64 224c-3.6 12.7-16.9 20.1-29.7 16.5s-20.1-16.9-16.5-29.7z"/><path fill="currentColor" d="M256 512a256 256 0 1 1 0-512 256 256 0 1 1 0 512zm0-464a208 208 0 1 0 0 416 208 208 0 1 0 0-416zm80.9 89.4c3.6-12.7 16.9-20.1 29.7-16.5s20.1 16.9 16.5 29.7l-64 224c-3.6 12.7-16.9 20.1-29.7 16.5s-20.1-16.9-16.5-29.7l64-224zM216 152c13.3 0 24 10.7 24 24s-10.7 24-24 24l-24.4 0c-8.6 0-15.6 7-15.6 15.6 0 7.4 5.2 13.8 12.5 15.2l16.4 3.3c29.7 5.9 51.1 32 51.1 62.3 0 35.1-28.5 63.6-63.6 63.6L160 360c-13.3 0-24-10.7-24-24s10.7-24 24-24l32.4 0c8.6 0 15.6-7 15.6-15.6 0-7.4-5.2-13.8-12.5-15.3l-16.4-3.3c-29.7-5.9-51.1-32-51.1-62.3 0-35.1 28.5-63.6 63.6-63.6l24.4 0z"/></svg>