<svg xmlns="http://www.w3.org/2000/svg" viewBox="0 0 512 512"><!--! Font Awesome Pro 7.1.0 by @fontawesome - https://fontawesome.com License - https://fontawesome.com/license (Commercial License) Copyright 2025 Fonticons, Inc. --><path opacity=".4" fill="currentColor" d="M48 256a208 208 0 1 0 416 0 208 208 0 1 0 -416 0zm88-12c0-56 37.1-103.3 88-118.7l0-13.3c0-8.8 7.2-16 16-16s16 7.2 16 16l0 8.1c1.3 0 2.7-.1 4-.1 4 0 8.1 .2 12 .6l0-8.6c0-8.8 7.2-16 16-16s16 7.2 16 16l0 16c39.3 14.9 69 49.2 77.5 91.2 2.6 13-5.8 25.7-18.7 28.3s-25.7-5.8-28.3-18.7C330.6 209.6 319.4 193 304 182l0 26c0 8.8-7.2 16-16 16s-16-7.2-16-16l0-39.1c-3.9-.6-7.9-.9-12-.9-1.3 0-2.7 0-4 .1l0 39.9c0 8.8-7.2 16-16 16s-16-7.2-16-16l0-30.9c-23.8 12.8-40 38-40 66.9 0 42 34 76 76 76l84 0c13.3 0 24 10.7 24 24s-10.7 24-24 24l-176 0c-13.3 0-24-10.7-24-24 0-11.4 7.9-20.9 18.5-23.4-16.6-21.1-26.5-47.7-26.5-76.6z"/><path fill="currentColor" d="M256 48a208 208 0 1 1 0 416 208 208 0 1 1 0-416zm0 464a256 256 0 1 0 0-512 256 256 0 1 0 0 512zm0-400c0-8.8-7.2-16-16-16s-16 7.2-16 16l0 13.3c-50.9 15.4-88 62.7-88 118.7 0 28.9 9.9 55.5 26.5 76.6-10.6 2.5-18.5 12-18.5 23.4 0 13.3 10.7 24 24 24l176 0c13.3 0 24-10.7 24-24s-10.7-24-24-24l-84 0c-42 0-76-34-76-76 0-28.9 16.2-54.1 40-66.9l0 30.9c0 8.8 7.2 16 16 16s16-7.2 16-16l0-39.9c1.3-.1 2.7-.1 4-.1 4.1 0 8.1 .3 12 .9l0 39.1c0 8.8 7.2 16 16 16s16-7.2 16-16l0-26c15.4 11 26.6 27.5 30.5 46.7 2.6 13 15.3 21.4 28.3 18.7s21.4-15.3 18.7-28.3c-8.5-42-38.2-76.3-77.5-91.2l0-16c0-8.8-7.2-16-16-16s-16 7.2-16 16l0 8.6c-3.9-.4-8-.6-12-.6-1.3 0-2.7 0-4 .1l0-8.1z"/></svg>