<svg xmlns="http://www.w3.org/2000/svg" viewBox="0 0 512 512"><!--! Font Awesome Pro 7.1.0 by @fontawesome - https://fontawesome.com License - https://fontawesome.com/license (Commercial License) Copyright 2025 Fonticons, Inc. --><path opacity=".4" fill="currentColor" d="M48 256a208 208 0 1 0 416 0 208 208 0 1 0 -416 0zm81.4-48.3c-8.1-38.1 19.5-69.4 51.8-78.2l2.8-.8c9.8-2.7 20.1 2.4 24 11.8l20.3 48.7c3.4 8.3 1.1 17.8-5.9 23.5l-13.6 11.1c16.1 35 43.8 63.6 78.1 80.9l12.3-15.1c5.7-6.9 15.2-9.3 23.5-5.9l48.7 20.3c9.4 3.9 14.4 14.2 11.8 24l-.8 2.8c-8.8 32.3-40.1 59.9-78.2 51.8-87.5-18.5-156.3-87.4-174.9-174.9z"/><path fill="currentColor" d="M256 48a208 208 0 1 1 0 416 208 208 0 1 1 0-416zm0 464a256 256 0 1 0 0-512 256 256 0 1 0 0 512zM184 128.7l-2.8 .8c-32.3 8.8-59.9 40.1-51.8 78.2 18.5 87.5 87.4 156.3 174.9 174.9 38.1 8.1 69.4-19.5 78.2-51.8l.8-2.8c2.7-9.8-2.4-20.1-11.8-24l-48.7-20.3c-8.3-3.4-17.8-1.1-23.5 5.9L287 304.6c-34.3-17.3-62-45.9-78.1-80.9l13.6-11.1c6.9-5.7 9.3-15.2 5.9-23.5l-20.3-48.7c-3.9-9.4-14.2-14.4-24-11.8z"/></svg>