<svg xmlns="http://www.w3.org/2000/svg" viewBox="0 0 512 512"><!--! Font Awesome Pro 7.1.0 by @fontawesome - https://fontawesome.com License - https://fontawesome.com/license (Commercial License) Copyright 2025 Fonticons, Inc. --><path opacity=".4" fill="currentColor" d="M48 256c0 106.8 80.4 194.7 184 206.6l0-413.3C128.4 61.3 48 149.2 48 256z"/><path fill="currentColor" d="M280 462.6l0-413.3C383.6 61.3 464 149.2 464 256S383.6 450.7 280 462.6zm-48 0C128.4 450.7 48 362.8 48 256S128.4 61.3 232 49.4l0 413.3zM256 512a256 256 0 1 0 0-512 256 256 0 1 0 0 512z"/></svg>