<svg xmlns="http://www.w3.org/2000/svg" viewBox="0 0 576 512"><!--! Font Awesome Pro 7.0.1 by @fontawesome - https://fontawesome.com License - https://fontawesome.com/license (Commercial License) Copyright 2025 Fonticons, Inc. --><path style="fill:var(--fa-secondary-color,currentColor);opacity:var(--fa-secondary-opacity,.4)" d="M176 256a112 112 0 1 0 224 0 112 112 0 1 0 -224 0z"/><path style="fill:var(--fa-primary-color,currentColor);opacity:var(--fa-primary-opacity,1)" d="M288 368a112 112 0 1 0 0-224 112 112 0 1 0 0 224zm158.2-88c-11.6 77-78 136-158.2 136S141.4 357 129.8 280L24 280c-13.3 0-24-10.7-24-24s10.7-24 24-24l105.8 0c11.6-77 78-136 158.2-136s146.6 59 158.2 136L552 232c13.3 0 24 10.7 24 24s-10.7 24-24 24l-105.8 0z"/></svg>