<svg xmlns="http://www.w3.org/2000/svg" viewBox="0 0 512 512"><!--! Font Awesome Pro 7.1.0 by @fontawesome - https://fontawesome.com License - https://fontawesome.com/license (Commercial License) Copyright 2025 Fonticons, Inc. --><path opacity=".4" fill="currentColor" d="M48 256a208 208 0 1 0 416 0 208 208 0 1 0 -416 0zm368 0a160 160 0 1 1 -320 0 160 160 0 1 1 320 0zm-272 0a112 112 0 1 0 224 0 112 112 0 1 0 -224 0zm88-48c0-13.3 10.7-24 24-24s24 10.7 24 24l0 96c0 13.3-10.7 24-24 24s-24-10.7-24-24l0-96z"/><path fill="currentColor" d="M256 48a208 208 0 1 1 0 416 208 208 0 1 1 0-416zm0 464a256 256 0 1 0 0-512 256 256 0 1 0 0 512zm0-368a112 112 0 1 1 0 224 112 112 0 1 1 0-224zm0 272a160 160 0 1 0 0-320 160 160 0 1 0 0 320zm24-208c0-13.3-10.7-24-24-24s-24 10.7-24 24l0 96c0 13.3 10.7 24 24 24s24-10.7 24-24l0-96z"/></svg>