<svg xmlns="http://www.w3.org/2000/svg" viewBox="0 0 512 512"><!--! Font Awesome Pro 7.1.0 by @fontawesome - https://fontawesome.com License - https://fontawesome.com/license (Commercial License) Copyright 2025 Fonticons, Inc. --><path opacity=".4" fill="currentColor" d="M48 256a208 208 0 1 0 416 0 208 208 0 1 0 -416 0zm48 0c0-88.4 71.6-160 160-160 13.3 0 24 10.7 24 24s-10.7 24-24 24c-61.9 0-112 50.1-112 112 0 13.3-10.7 24-24 24s-24-10.7-24-24zm224 0a64 64 0 1 1 -128 0 64 64 0 1 1 128 0z"/><path fill="currentColor" d="M256 48a208 208 0 1 1 0 416 208 208 0 1 1 0-416zm0 464a256 256 0 1 0 0-512 256 256 0 1 0 0 512zm0-192a64 64 0 1 0 0-128 64 64 0 1 0 0 128zm0-88a24 24 0 1 1 0 48 24 24 0 1 1 0-48zM144 256c0-61.9 50.1-112 112-112 13.3 0 24-10.7 24-24s-10.7-24-24-24c-88.4 0-160 71.6-160 160 0 13.3 10.7 24 24 24s24-10.7 24-24z"/></svg>