<svg xmlns="http://www.w3.org/2000/svg" viewBox="0 0 512 512"><!--! Font Awesome Pro 7.1.0 by @fontawesome - https://fontawesome.com License - https://fontawesome.com/license (Commercial License) Copyright 2025 Fonticons, Inc. --><path opacity=".4" fill="currentColor" d="M48 335.3c-.5-35.9 9.9-59.3 25.6-77.9 17.1-20.2 42.5-36.9 76.1-54.5 11-5.8 24.1-12.1 38-18.9 23.4-11.4 49-23.9 70.4-36.2 16-9.2 32.3-19.6 47.7-31.7 7 3.9 14.6 6.9 22.5 8.9 7.1 12.9 15.9 24.2 25.2 33.4s20.6 18.1 33.4 25.2c4.1 16 12.2 30.4 23.1 42.1-16.8 43.9-40.4 90.6-69.8 131.3-48.5 66.9-104.8 107-163.9 107-69.4-.1-127.4-58.8-128.5-128.7z"/><path fill="currentColor" d="M505 7c9.4 9.4 9.4 24.6 0 33.9l-9 9 0 142.1c0 8.8-7.2 16-16 16-26.5 0-48-21.5-48-48 0-5.8-4-10.7-9.4-12.7-13.3-4.8-25.4-13-35.1-22.8-9.7-9.8-17.9-21.9-22.8-35.2-2-5.4-6.9-9.4-12.6-9.4-26.5 0-48-21.5-48-48 0-8.8 7.2-16 16-16l141.9 0 9-9c9.4-9.4 24.6-9.4 33.9 0zM169.9 139.3c35.2-17.1 70.7-34.3 100.7-56.6 8.7 13.9 20.8 25.5 35.2 33.5-15.5 12.1-31.7 22.5-47.7 31.7-21.5 12.3-47 24.8-70.4 36.2l0 0c-13.9 6.8-27 13.2-38 18.9-33.6 17.6-59 34.3-76.1 54.5-15.7 18.5-26.2 42-25.6 77.9 1 70 59 128.7 128.5 128.7 59 .1 115.4-40.1 163.9-107 29.4-40.6 53.1-87.4 69.8-131.3 11.2 11.9 25.4 20.9 41.4 25.9-48.8 122.6-145.7 260.4-275.2 260.3-96.5-.1-175-80.8-176.4-176-1.7-113.5 83.3-154.7 169.9-196.7z"/></svg>