<svg xmlns="http://www.w3.org/2000/svg" viewBox="0 0 512 512"><!--! Font Awesome Pro 7.1.0 by @fontawesome - https://fontawesome.com License - https://fontawesome.com/license (Commercial License) Copyright 2025 Fonticons, Inc. --><path opacity=".4" fill="currentColor" d="M48 256c0 114.9 93.1 208 208 208s208-93.1 208-208c0-19-2.5-37.4-7.3-54.9l-2.9 29.2C450.5 263.1 423 288 390.1 288l-52.2 0c-32.9 0-60.4-24.9-63.7-57.6l-3.8-38.4-28.8 0-3.8 38.4C234.5 263.1 207 288 174.1 288l-52.2 0c-32.9 0-60.4-24.9-63.7-57.6l-2.9-29.2C50.5 218.6 48 237 48 256zM91.3 129c3.2-.7 6.4-1 9.8-1l93.9 0c14.3 0 27 6.2 35.8 16l50.5 0c8.8-9.8 21.5-16 35.8-16l93.9 0c3.4 0 6.6 .3 9.8 1-38-49.3-97.7-81-164.7-81S129.3 79.7 91.3 129zm51.4 239.6c-9.2-9.6-8.9-24.8 .7-33.9s24.8-8.9 33.9 .7C192.3 351 218.4 368 256 368s63.7-17 78.7-32.6c9.2-9.6 24.4-9.9 33.9-.7s9.9 24.4 .7 33.9c-22.1 23-60 47.4-113.3 47.4s-91.2-24.4-113.3-47.4z"/><path fill="currentColor" d="M256 464c-114.9 0-208-93.1-208-208 0-19 2.5-37.4 7.3-54.9l2.9 29.2C61.5 263.1 89 288 121.9 288l52.2 0c32.9 0 60.4-24.9 63.7-57.6l3.8-38.4 28.8 0 3.8 38.4c3.3 32.7 30.8 57.6 63.7 57.6l52.2 0c32.9 0 60.4-24.9 63.7-57.6l2.9-29.2c4.8 17.5 7.3 35.9 7.3 54.9 0 114.9-93.1 208-208 208zM91.3 129c38-49.3 97.7-81 164.7-81s126.7 31.7 164.7 81c-3.1-.7-6.4-1-9.8-1L317 128c-14.3 0-27 6.2-35.8 16l-50.5 0c-8.8-9.8-21.5-16-35.8-16L101 128c-3.4 0-6.6 .3-9.8 1zM256 512a256 256 0 1 0 0-512 256 256 0 1 0 0 512zM143.4 334.7c-9.6 9.2-9.9 24.4-.7 33.9 22.1 23 60 47.4 113.3 47.4s91.2-24.4 113.3-47.4c9.2-9.6 8.9-24.8-.7-33.9s-24.8-8.9-33.9 .7C319.7 351 293.6 368 256 368s-63.7-17-78.7-32.6c-9.2-9.6-24.4-9.9-33.9-.7z"/></svg>