<svg xmlns="http://www.w3.org/2000/svg" viewBox="0 0 512 512"><!--! Font Awesome Pro 7.1.0 by @fontawesome - https://fontawesome.com License - https://fontawesome.com/license (Commercial License) Copyright 2025 Fonticons, Inc. --><path opacity=".4" fill="currentColor" d="M48 256a208 208 0 1 0 416 0 208 208 0 1 0 -416 0zm160-48a32 32 0 1 1 -64 0 32 32 0 1 1 64 0zM161.3 366.1c16-36.6 52.4-62.1 94.8-62.1s78.8 25.6 94.8 62.1c5.4 12.3-8.7 21.6-21.1 16.4-22.4-9.5-47.4-14.8-73.7-14.8s-51.3 5.3-73.7 14.8c-12.4 5.2-26.5-4.1-21.1-16.4zM368 208a32 32 0 1 1 -64 0 32 32 0 1 1 64 0z"/><path fill="currentColor" d="M464 256a208 208 0 1 0 -416 0 208 208 0 1 0 416 0zM0 256a256 256 0 1 1 512 0 256 256 0 1 1 -512 0zM182.4 382.5c-12.4 5.2-26.5-4.1-21.1-16.4 16-36.6 52.4-62.1 94.8-62.1s78.8 25.6 94.8 62.1c5.4 12.3-8.7 21.6-21.1 16.4-22.4-9.5-47.4-14.8-73.7-14.8s-51.3 5.3-73.7 14.8zM144 208a32 32 0 1 1 64 0 32 32 0 1 1 -64 0zm192-32a32 32 0 1 1 0 64 32 32 0 1 1 0-64z"/></svg>