<svg xmlns="http://www.w3.org/2000/svg" viewBox="0 0 512 512"><!--! Font Awesome Pro 7.0.0 by @fontawesome - https://fontawesome.com License - https://fontawesome.com/license (Commercial License) Copyright 2025 Fonticons, Inc. --><path style="fill:var(--fa-secondary-color,currentColor);opacity:var(--fa-secondary-opacity,.4)" d="M48 96l0 288c0 8.8 7.2 16 16 16l384 0c8.8 0 16-7.2 16-16l0-240c0-8.8-7.2-16-16-16l-149.3 0c-17.3 0-34.2-5.6-48-16L212.3 83.2c-2.8-2.1-6.1-3.2-9.6-3.2L64 80c-8.8 0-16 7.2-16 16zM172.8 278.4c-8-10.6-5.8-25.6 4.8-33.6s25.6-5.8 33.6 4.8l27 36 61.4-98.3c7-11.2 21.8-14.7 33.1-7.6s14.7 21.8 7.6 33.1l-80 128c-4.2 6.7-11.4 10.9-19.3 11.3s-15.5-3.2-20.2-9.6l-48-64z"/><path style="fill:var(--fa-primary-color,currentColor);opacity:var(--fa-primary-opacity,1)" d="M448 400L64 400c-8.8 0-16-7.2-16-16L48 96c0-8.8 7.2-16 16-16l138.7 0c3.5 0 6.8 1.1 9.6 3.2L250.7 112c13.8 10.4 30.7 16 48 16L448 128c8.8 0 16 7.2 16 16l0 240c0 8.8-7.2 16-16 16zM64 448l384 0c35.3 0 64-28.7 64-64l0-240c0-35.3-28.7-64-64-64L298.7 80c-6.9 0-13.7-2.2-19.2-6.4L241.1 44.8C230 36.5 216.5 32 202.7 32L64 32C28.7 32 0 60.7 0 96L0 384c0 35.3 28.7 64 64 64zM340.4 212.7c7-11.2 3.6-26-7.6-33.1s-26-3.6-33.1 7.6l-61.4 98.3-27-36c-8-10.6-23-12.8-33.6-4.8s-12.8 23-4.8 33.6l48 64c4.7 6.3 12.3 9.9 20.2 9.6s15.1-4.5 19.3-11.3l80-128z"/></svg>