<svg xmlns="http://www.w3.org/2000/svg" viewBox="0 0 448 512"><!--! Font Awesome Pro 7.1.0 by @fontawesome - https://fontawesome.com License - https://fontawesome.com/license (Commercial License) Copyright 2025 Fonticons, Inc. --><path opacity=".4" fill="currentColor" d="M64 348.3l0 10.2c0 37 19.6 71.2 51.6 89.8l2.6 1.5c15.9 9.3 34 14.2 52.4 14.2L296 464c39.8 0 72-32.2 72-72l0-104c0-8.8-7.2-16-16-16-3.6 0-6.9 1.2-9.6 3.2-7.3 5.5-17 6.3-25.1 2.3S304 265.1 304 256c0-8.8-7.2-16-16-16-5.2 0-9.9 2.5-12.8 6.4-6.2 8.3-17 11.6-26.8 8.3S232 242.3 232 232l0-8c0-8.8-7.2-16-16-16-5.2 0-9.9 2.5-12.8 6.4-6.2 8.3-17 11.6-26.8 8.3S160 210.3 160 200l0-136c0-8.8-7.2-16-16-16s-16 7.2-16 16l0 280c0 8.8-7.2 16-16 16s-16-7.2-16-16l0-42.5-18.9 17.2C68.8 326.3 64 337 64 348.3z"/><path fill="currentColor" d="M144 0C108.7 0 80 28.7 80 64l0 188.8c-5.2 3.6-10.2 7.6-14.9 11.9L44.8 283.2C26.5 299.9 16 323.5 16 348.3l0 10.2c0 54.1 28.7 104.1 75.4 131.3l2.6 1.5c23.2 13.6 49.7 20.7 76.6 20.7L296 512c66.3 0 120-53.7 120-120l0-104c0-35.3-28.7-64-64-64-2.8 0-5.6 .2-8.3 .5-11-19.4-31.8-32.5-55.7-32.5-5.3 0-10.5 .7-15.5 1.9-10.8-20.2-32-33.9-56.5-33.9-2.7 0-5.4 .2-8 .5L208 64c0-35.3-28.7-64-64-64zM128 64c0-8.8 7.2-16 16-16s16 7.2 16 16l0 136c0 10.3 6.6 19.5 16.4 22.8s20.6-.1 26.8-8.3c3-3.9 7.6-6.4 12.8-6.4 8.8 0 16 7.2 16 16l0 8c0 10.3 6.6 19.5 16.4 22.8s20.6-.1 26.8-8.3c3-3.9 7.6-6.4 12.8-6.4 8.8 0 16 7.2 16 16 0 9.1 5.1 17.4 13.3 21.5s17.9 3.2 25.1-2.3c2.7-2 6-3.2 9.6-3.2 8.8 0 16 7.2 16 16l0 104c0 39.8-32.2 72-72 72l-125.4 0c-18.4 0-36.5-4.9-52.4-14.2-11.7 20.1-11.7 20 0 0l-2.6-1.5C83.6 429.7 64 395.5 64 358.5l0-10.2c0-11.3 4.8-22 13.1-29.6L96 301.5 96 344c0 8.8 7.2 16 16 16s16-7.2 16-16l0-280z"/></svg>