<svg xmlns="http://www.w3.org/2000/svg" viewBox="0 0 448 512"><!--! Font Awesome Pro 7.1.0 by @fontawesome - https://fontawesome.com License - https://fontawesome.com/license (Commercial License) Copyright 2025 Fonticons, Inc. --><path opacity=".4" fill="currentColor" d="M48.5 345.1l0 45.8C51.8 414.1 71.8 432 96 432l16 0 0-128-16 0c-24.2 0-44.2 17.9-47.5 41.1zM336 304l0 128 16 0c24.3 0 44.4-18 47.6-41.4l0-45.1C396.4 322 376.3 304 352 304l-16 0z"/><path fill="currentColor" d="M48 224c0-97.2 78.8-176 176-176s176 78.8 176 176l0 44.8c-14.1-8.2-30.5-12.8-48-12.8l-16 0c-26.5 0-48 21.5-48 48l0 128c0 26.5 21.5 48 48 48l16 0c53 0 96-43 96-96l0-160C448 100.3 347.7 0 224 0S0 100.3 0 224L0 384c0 53 43 96 96 96l16 0c26.5 0 48-21.5 48-48l0-128c0-26.5-21.5-48-48-48l-16 0c-17.5 0-33.9 4.7-48 12.8L48 224zm0 128c0-26.5 21.5-48 48-48l16 0 0 128-16 0c-26.5 0-48-21.5-48-48l0-32zm352 0l0 32c0 26.5-21.5 48-48 48l-16 0 0-128 16 0c26.5 0 48 21.5 48 48z"/></svg>