<svg xmlns="http://www.w3.org/2000/svg" viewBox="0 0 640 512"><!--! Font Awesome Pro 7.1.0 by @fontawesome - https://fontawesome.com License - https://fontawesome.com/license (Commercial License) Copyright 2025 Fonticons, Inc. --><path opacity=".4" fill="currentColor" d="M192 80c1.9 0 3.9-.2 5.8-.7l122.2-30.5 0 46.5-128 32 0-47.3zm0 96c1.9 0 3.9-.2 5.8-.7L448 112.7 448 160c-1.9 0-3.9 .2-5.8 .7L192 223.3 192 176zm80 76.7l176-44 0 47.3c-2.1 0-4.2 .3-6.3 .9l-88 24C343.2 283.7 336 293.2 336 304l0 80-32 0 0-89.8-32 8 0-49.5z"/><path fill="currentColor" d="M325.8 47.3c12.9-3.2 20.7-16.2 17.5-29.1S327-2.5 314.2 .7l-128 32c-12.9 3.2-20.7 16.2-17.5 29.1S185 82.5 197.8 79.3l128-32zM471.3 82.2c-3.2-12.9-16.2-20.7-29.1-17.5l-256 64c-12.9 3.2-20.7 16.2-17.5 29.1s16.2 20.7 29.1 17.5l256-64c12.9-3.2 20.7-16.2 17.5-29.1zm0 96c-3.2-12.9-16.2-20.7-29.1-17.5l-256 64c-12.9 3.2-20.7 16.2-17.5 29.1s16.2 20.7 29.1 17.5l256-64c12.9-3.2 20.7-16.2 17.5-29.1zM256 306.2l0 77.8-8 0c-13.3 0-24 10.7-24 24l0 24c0 44.2 35.8 80 80 80l32 0c44.2 0 80-35.8 80-80l0-24c0-13.3-10.7-24-24-24l-8 0 0-61.7 70.3-19.2c12.8-3.5 20.3-16.7 16.8-29.5s-16.7-20.3-29.5-16.8l-88 24C343.2 283.7 336 293.2 336 304l0 80-32 0 0-89.8-48 12zM58.7 26.5c-11.9-5.9-26.3-1.1-32.2 10.7S25.4 63.5 37.3 69.5l32 16c11.9 5.9 26.3 1.1 32.2-10.7s1.1-26.3-10.7-32.2l-32-16zm544 42.9c11.9-5.9 16.7-20.3 10.7-32.2s-20.3-16.7-32.2-10.7l-32 16c-11.9 5.9-16.7 20.3-10.7 32.2s20.3 16.7 32.2 10.7l32-16zM24 168c-13.3 0-24 10.7-24 24s10.7 24 24 24l32 0c13.3 0 24-10.7 24-24s-10.7-24-24-24l-32 0zm560 0c-13.3 0-24 10.7-24 24s10.7 24 24 24l32 0c13.3 0 24-10.7 24-24s-10.7-24-24-24l-32 0zM90.7 341.5c11.9-5.9 16.7-20.3 10.7-32.2s-20.3-16.7-32.2-10.7l-32 16c-11.9 5.9-16.7 20.3-10.7 32.2s20.3 16.7 32.2 10.7l32-16zm480-42.9c-11.9-5.9-26.3-1.1-32.2 10.7s-1.1 26.3 10.7 32.2l32 16c11.9 5.9 26.3 1.1 32.2-10.7s1.1-26.3-10.7-32.2l-32-16z"/></svg>