<svg xmlns="http://www.w3.org/2000/svg" viewBox="0 0 576 512"><!--! Font Awesome Pro 7.0.1 by @fontawesome - https://fontawesome.com License - https://fontawesome.com/license (Commercial License) Copyright 2025 Fonticons, Inc. --><path style="fill:var(--fa-secondary-color,currentColor);opacity:var(--fa-secondary-opacity,.4)" d="M80 256a176 176 0 1 0 352 0 176 176 0 1 0 -352 0zm272 0a96 96 0 1 1 -192 0 96 96 0 1 1 192 0z"/><path style="fill:var(--fa-primary-color,currentColor);opacity:var(--fa-primary-opacity,1)" d="M256 80a176 176 0 1 1 0 352 176 176 0 1 1 0-352zM394.6 432c52-41 85.4-104.6 85.4-176 0-123.7-100.3-224-224-224S32 132.3 32 256 132.3 480 256 480l296 0c13.3 0 24-10.7 24-24s-10.7-24-24-24l-157.4 0zM256 208a48 48 0 1 1 0 96 48 48 0 1 1 0-96zm0 144a96 96 0 1 0 0-192 96 96 0 1 0 0 192z"/></svg>