<svg xmlns="http://www.w3.org/2000/svg" viewBox="0 0 576 512"><!--! Font Awesome Pro 7.1.0 by @fontawesome - https://fontawesome.com License - https://fontawesome.com/license (Commercial License) Copyright 2025 Fonticons, Inc. --><path opacity=".4" fill="currentColor" d="M181.6 464l146.4 0 0-266-125.2 76.1-21.2 189.9zM376 199.1l0 138.6 63.9 126.3 82.5 0-21.1-189.7-125.2-75.2z"/><path fill="currentColor" d="M113 185c-9.4 9.4-24.6 9.4-33.9 0L15 121C5.7 111.6 5.7 96.4 15 87S39.6 77.7 49 87l23 23 0-86.1C72 10.7 82.7 0 96 0s24 10.7 24 24l0 86.1 23-23c9.4-9.4 24.6-9.4 33.9 0s9.4 24.6 0 33.9l-64 64zM0 488c0-13.3 10.7-24 24-24l109.3 0 22.6-203c1.1-9.9 6.7-18.7 15.2-23.8L334.3 138c10.2-6.2 22.9-6.2 33.1-.1l165.3 99.2c8.6 5.1 14.2 14 15.3 23.9l24 215.4c2.1 19-12.7 35.5-31.8 35.5L24 512c-13.3 0-24-10.7-24-24zM328 198l-125.2 76.1-21.2 189.9 146.4 0 0-266zm48 1l0 138.6 63.9 126.3 82.5 0-21.1-189.7-125.2-75.2z"/></svg>