<svg xmlns="http://www.w3.org/2000/svg" viewBox="0 0 512 512"><!--! Font Awesome Pro 7.1.0 by @fontawesome - https://fontawesome.com License - https://fontawesome.com/license (Commercial License) Copyright 2025 Fonticons, Inc. --><path opacity=".4" fill="currentColor" d="M147.9 211.6l-.1 4.1 0 112.9 .2 8c2.4 32.7 21.5 62.1 50.7 77.6l12.2 6.5c1.7 .9 3.5 1.7 5.2 2.6l4.7 2c11.1 4.4 23 6.6 35.1 6.6l104.1 0 2.4-.1c12.1-1.2 21.6-11.4 21.6-23.8l-.2-2.6c-.1-.9-.2-1.7-.4-2.6-2.7-12.1 4.3-24.2 16-28 9.7-3.1 16.6-12.2 16.6-22.8l-.2-3.2c-.4-3.1-1.4-6-2.9-8.6-6.3-11.1-2.8-25.2 8-32 6.8-4.3 11.1-11.8 11.2-20.2l-.2-2.7c-.7-6-3.6-11.4-8-15.3-5.2-4.6-8.2-11.1-8.2-18s3-13.5 8.2-18c5.1-4.5 8.2-10.9 8.2-18l-.1-2.5c-1.2-11.3-10.1-20.3-21.4-21.4l-2.4-.1-147.5 0c-8.2 0-15.8-4.2-20.2-11.1s-5-15.6-1.5-23.1l30.2-64.2 1.2-3c5-14.3-.7-30.2-13.7-38L253.6 51c-14.8-7-32.4-1.5-40.8 12.2l-2.1 3.8-56.8 120.9c-3.5 7.5-5.5 15.6-6 23.7z"/><path fill="currentColor" d="M171.5 38.7C192.3 4 236.5-10.1 274 7.6l7.2 3.9c32.4 19.5 46.8 59.3 34.2 95l-3.1 7.6-14.1 30 109.7 0 7.4 .4C451.7 148 480 178.7 480 216l-.4 8c-1.1 10.1-4.4 19.6-9.3 28 6.1 10.6 9.7 22.8 9.8 36l-.2 4.8c-1.1 16.4-7.7 31.2-17.8 42.7 1.3 5.3 2 10.8 2 16.5l-.2 6c-1.8 22.6-14.2 42.1-32 53.9-1.9 35.5-29.4 64.2-64.4 67.7l-7.4 .4-104.1 0c-18 0-35.9-3.4-52.6-9.9l-7.1-3-.7-.3-6.6-3.3-.7-.3-12.2-6.5c-12.2-6.5-23.3-14.7-32.9-24.1-4.1 26.9-27.3 47.4-55.3 47.4l-32 0c-30.9 0-56-25.1-56-56L0 200c0-30.9 25.1-56 56-56l32 0c10.8 0 20.9 3.1 29.5 8.5l50.1-106.5 .6-1.2 2.7-5 .6-.9zM56 192c-4.4 0-8 3.6-8 8l0 224c0 4.4 3.6 8 8 8l32 0c4.4 0 8-3.6 8-8l0-224c0-4.4-3.6-8-8-8l-32 0zM253.6 51c-14.8-7-32.4-1.5-40.8 12.2l-2.1 3.8-56.8 120.9c-3.5 7.5-5.5 15.6-6 23.7l-.1 4.1 0 112.9 .2 8c2.4 32.7 21.5 62.1 50.7 77.6l12.2 6.5 0 0 5.3 2.6 4.7 2c11.1 4.4 23 6.6 35.1 6.6l104.1 0 2.4-.1c12.1-1.2 21.6-11.4 21.6-23.8l-.2-2.6c-.1-.9-.2-1.7-.4-2.6-2.7-12.1 4.3-24.2 16-28 9.7-3.1 16.6-12.2 16.6-22.8l-.2-3.2c-.4-3.1-1.4-6-2.9-8.6-6.3-11.1-2.8-25.2 8-32 6.8-4.3 11.1-11.8 11.2-20.2l-.2-2.7c-.7-6-3.6-11.4-8-15.3-5.2-4.6-8.2-11.1-8.2-18s3-13.5 8.2-18c5.1-4.5 8.2-10.9 8.2-18l-.1-2.5c-1.2-11.3-10.1-20.3-21.4-21.4l-2.4-.1-147.5 0c-8.2 0-15.8-4.2-20.2-11.1s-5-15.6-1.5-23.1l30.2-64.2 1.2-3c5-14.3-.7-30.2-13.7-38L253.6 51z"/></svg>