<svg xmlns="http://www.w3.org/2000/svg" viewBox="0 0 448 512"><!--! Font Awesome Pro 7.1.0 by @fontawesome - https://fontawesome.com License - https://fontawesome.com/license (Commercial License) Copyright 2025 Fonticons, Inc. --><path opacity=".4" fill="currentColor" d="M80 144l288 0 0 304c0 8.8-7.2 16-16 16L96 464c-8.8 0-16-7.2-16-16l0-304zm70.8 178.2l35.9 37.2c4.9 5.1 11.9 7.8 18.9 7.3 7.1-.5 13.6-4.1 17.8-9.8l76.1-104.7c7.8-10.7 5.4-25.7-5.3-33.5s-25.7-5.4-33.5 5.3l-59.3 81.6-16.1-16.6c-9.2-9.5-24.4-9.8-33.9-.6-9.5 9.2-9.8 24.4-.6 33.9z"/><path fill="currentColor" d="M80 448c0 8.8 7.2 16 16 16l256 0c8.8 0 16-7.2 16-16l0-304 48 0 0 304-.3 6.5c-3.1 30.1-27 54.1-57.1 57.1l-6.5 .3-256 0c-35.3 0-64-28.7-64-64l0-304 48 0 0 304zM260.7 223.9c7.8-10.7 22.8-13.1 33.5-5.3s13.1 22.8 5.3 33.5L223.4 356.8c-4.2 5.7-10.7 9.3-17.8 9.8-7.1 .5-14-2.2-18.9-7.3l-35.9-37.2c-9.2-9.5-8.9-24.7 .6-33.9 9.5-9.2 24.7-9 33.9 .6l16.1 16.6 59.3-81.6zM281.8-16c13.3 0 25.3 8.3 30 20.8L328 48 424 48c13.3 0 24 10.7 24 24s-10.7 24-24 24L24 96C10.7 96 0 85.3 0 72S10.7 48 24 48l96 0 16.2-43.2c4.7-12.5 16.6-20.8 30-20.8l115.6 0z"/></svg>