<svg xmlns="http://www.w3.org/2000/svg" viewBox="0 0 448 512"><!--! Font Awesome Pro 7.0.1 by @fontawesome - https://fontawesome.com License - https://fontawesome.com/license (Commercial License) Copyright 2025 Fonticons, Inc. --><path style="fill:var(--fa-secondary-color,currentColor);opacity:var(--fa-secondary-opacity,.4)" d=""/><path style="fill:var(--fa-primary-color,currentColor);opacity:var(--fa-primary-opacity,1)" d="M344.3-11.3l5.7 5.7 96 96 5.7 5.7-5.7 5.7-96 96-5.7 5.7-11.3-11.3 5.7-5.7 82.3-82.3-404.7 0 0 152-16 0 0-168 420.7 0-82.3-82.3-5.7-5.7 11.3-11.3zm-88 264l5.7 5.7 88 88 5.7 5.7-99.3 99.3-11.3-11.3 5.7-5.7 74.3-74.3-308.7 0 0 120-16 0 0-136 324.7 0-80-80 11.3-11.3z"/></svg>