<svg xmlns="http://www.w3.org/2000/svg" viewBox="0 0 448 512"><!--! Font Awesome Pro 7.1.0 by @fontawesome - https://fontawesome.com License - https://fontawesome.com/license (Commercial License) Copyright 2025 Fonticons, Inc. --><path opacity=".4" fill="currentColor" d="M32 48l384 0 0 96-16 0 0 32 16 0 0 64-16 0 0 32 16 0 0 64-16 0 0 32 16 0 0 64-16 0 0 16-64 0 0-16-32 0 0 16-64 0 0-16-32 0 0 16-64 0 0-16-32 0 0 16-64 0 0-16-16 0 0-64 16 0 0-32-16 0 0-64 16 0 0-32-16 0 0-64 16 0 0-32-16 0 0-96z"/><path fill="currentColor" d="M448 32l-448 0 0 16 448 0 0-16zM48 144l-32 0 0 32 32 0 0-32zm352 0l0 32 32 0 0-32-32 0zM48 336l-32 0 0 32 32 0 0-32zm352 0l0 32 32 0 0-32-32 0zM48 240l-32 0 0 32 32 0 0-32zm352 0l0 32 32 0 0-32-32 0zM48 432l-32 0 0 32 32 0 0-32zm352 0l0 32 32 0 0-32-32 0zm-160 0l-32 0 0 32 32 0 0-32zm-128 0l0 32 32 0 0-32-32 0zm224 0l-32 0 0 32 32 0 0-32z"/></svg>