<svg xmlns="http://www.w3.org/2000/svg" viewBox="0 0 448 512"><!--! Font Awesome Pro 7.0.1 by @fontawesome - https://fontawesome.com License - https://fontawesome.com/license (Commercial License) Copyright 2025 Fonticons, Inc. --><path style="fill:var(--fa-secondary-color,currentColor);opacity:var(--fa-secondary-opacity,.4)" d="M16 64l96 0 0 16 32 0 0-16 64 0 0 16 32 0 0-16 64 0 0 16 32 0 0-16 64 0 0 16 16 0 0 64-16 0 0 32 16 0 0 64-16 0 0 32 16 0 0 64-16 0 0 32 16 0 0 64-16 0 0 16-64 0 0-16-32 0 0 16-64 0 0-16-32 0 0 16-64 0 0-16-32 0 0 16-96 0 0-384z"/><path style="fill:var(--fa-primary-color,currentColor);opacity:var(--fa-primary-opacity,1)" d="M0 32l0 448 16 0 0-448-16 0zM112 432l0 32 32 0 0-32-32 0zm0-352l32 0 0-32-32 0 0 32zM304 432l0 32 32 0 0-32-32 0zm0-352l32 0 0-32-32 0 0 32zM208 432l0 32 32 0 0-32-32 0zm0-352l32 0 0-32-32 0 0 32zM400 432l0 32 32 0 0-32-32 0zm0-352l32 0 0-32-32 0 0 32zm0 160l0 32 32 0 0-32-32 0zm0 128l32 0 0-32-32 0 0 32zm0-224l0 32 32 0 0-32-32 0z"/></svg>