<svg xmlns="http://www.w3.org/2000/svg" viewBox="0 0 448 512"><!--! Font Awesome Pro 7.1.0 by @fontawesome - https://fontawesome.com License - https://fontawesome.com/license (Commercial License) Copyright 2025 Fonticons, Inc. --><path opacity=".4" fill="currentColor" d="M16 144l0 320 416 0 0-320-416 0zm3.7-16l196.3 0 0-96-127.8 0-68.6 96zM124.8 308.1l11.5-11.1 5.6 5.8 55.7 57.6 108.1-148.7 4.7-6.5 12.9 9.4-4.7 6.5-113.7 156.4-5.6 7.7-6.6-6.8-62.3-64.5-5.6-5.8zM232 32l0 96 196.3 0-68.6-96-127.8 0z"/><path fill="currentColor" d="M448 128l0 352-448 0 0-352 80-112 288 0 80 112zM16 464l416 0 0-320-416 0 0 320zM323.3 214.7l-4.7 6.5-113.7 156.4-5.6 7.7-6.6-6.8-62.3-64.5-5.6-5.8 11.5-11.1 5.6 5.8 55.7 57.6 108.1-148.7 4.7-6.5 12.9 9.4zM19.7 128l196.3 0 0-96-127.8 0-68.6 96zM232 128l196.3 0-68.6-96-127.8 0 0 96z"/></svg>