<svg xmlns="http://www.w3.org/2000/svg" viewBox="0 0 576 512"><!--! Font Awesome Pro 7.1.0 by @fontawesome - https://fontawesome.com License - https://fontawesome.com/license (Commercial License) Copyright 2025 Fonticons, Inc. --><path opacity=".4" fill="currentColor" d="M48 80l352 0 0 192-352 0 0-192zm368 0l112 0 0 192-112 0 0-192z"/><path fill="currentColor" d="M416 80l112 0 0 192 16 0 0-208-512 0 0 208 16 0 0-192 352 0 0 192 16 0 0-192zM8 320l-8 0 0 16 32 0 0 112 512 0 0-112 32 0 0-16-568 0zm520 16l0 96-480 0 0-96 480 0z"/></svg>