<svg xmlns="http://www.w3.org/2000/svg" viewBox="0 0 384 512"><!--! Font Awesome Pro 7.0.1 by @fontawesome - https://fontawesome.com License - https://fontawesome.com/license (Commercial License) Copyright 2025 Fonticons, Inc. --><path style="fill:var(--fa-secondary-color,currentColor);opacity:var(--fa-secondary-opacity,.4)" d="M16 16l0 232 352 0 0-232-352 0zm0 248l0 232 352 0 0-232-352 0zM96 96l192 0 0 48-16 0 0-32-160 0 0 32-16 0 0-48zm0 256l192 0 0 48-16 0 0-32-160 0 0 32-16 0 0-48z"/><path style="fill:var(--fa-primary-color,currentColor);opacity:var(--fa-primary-opacity,1)" d="M368 248l0-232-352 0 0 232 352 0zM0 496l0-496 384 0 0 512-384 0 0-16zM16 264l0 232 352 0 0-232-352 0zM104 96l184 0 0 48-16 0 0-32-160 0 0 32-16 0 0-48 8 0zm0 256l184 0 0 48-16 0 0-32-160 0 0 32-16 0 0-48 8 0z"/></svg>