<svg xmlns="http://www.w3.org/2000/svg" viewBox="0 0 512 512"><!--! Font Awesome Pro 7.1.0 by @fontawesome - https://fontawesome.com License - https://fontawesome.com/license (Commercial License) Copyright 2025 Fonticons, Inc. --><path opacity=".4" fill="currentColor" d="M16 112l0 352 480 0 0-352-121.9 0-4-8-2.1 0-4.3-12.9-21.6-43.1-172.2 0-21.6 43.3-4.2 12.7-2.1 0-4 8-121.9 0zm84.7 183.1l12.1-10.4 5.2 6.1 33.9 39.6 0-50.4c0-57.4 46.6-104 104-104 11.9 0 23.3 2 33.9 5.6l-11.7 13.2c-7.1-1.8-14.5-2.8-22.2-2.8-48.6 0-88 39.4-88 88l0 50.4 33.9-39.6 5.2-6.1 12.1 10.4-5.2 6.1-48 56-6.1 7.1-6.1-7.1-48-56-5.2-6.1zm121.4 83.2l11.7-13.2c7.1 1.8 14.5 2.8 22.2 2.8 48.6 0 88-39.4 88-88l0-42.4-33.9 39.6-5.2 6.1-12.1-10.4 5.2-6.1 48-56 6.1-7.1 6.1 7.1 48 56 5.2 6.1-12.1 10.4-5.2-6.1-33.9-39.6 0 42.4c0 57.4-46.6 104-104 104-11.9 0-23.3-2-33.9-5.6z"/><path fill="currentColor" d="M384 96l-32-64-192 0-32 64-128 0 0 384 512 0 0-384-128 0zm112 16l0 352-480 0 0-352 121.9 0 4.4-8.8 27.6-55.2 172.2 0 27.6 55.2 4.4 8.8 121.9 0zM112.9 284.7l-12.1 10.4 5.2 6.1 48 56 6.1 7.1 6.1-7.1 48-56 5.2-6.1-12.1-10.4-5.2 6.1-33.9 39.6 0-50.4c0-48.6 39.4-88 88-88 7.7 0 15.1 1 22.2 2.8l11.7-13.2c-10.6-3.7-22-5.6-33.9-5.6-57.4 0-104 46.6-104 104l0 50.4-33.9-39.6-5.2-6.1zm197.2-7.5l33.9-39.6 0 42.4c0 48.6-39.4 88-88 88-7.7 0-15.1-1-22.2-2.8l-11.7 13.2c10.6 3.7 22 5.6 33.9 5.6 57.4 0 104-46.6 104-104l0-42.4 33.9 39.6 5.2 6.1 12.1-10.4-5.2-6.1-48-56-6.1-7.1-6.1 7.1-48 56-5.2 6.1 12.1 10.4 5.2-6.1z"/></svg>