<svg xmlns="http://www.w3.org/2000/svg" viewBox="0 0 576 512"><!--! Font Awesome Pro 7.1.0 by @fontawesome - https://fontawesome.com License - https://fontawesome.com/license (Commercial License) Copyright 2025 Fonticons, Inc. --><path opacity=".4" fill="currentColor" d="M176 112l320 0 0 224-320 0 0-224zm64 352a32 32 0 1 1 -64 0 32 32 0 1 1 64 0zm256 0a32 32 0 1 1 -64 0 32 32 0 1 1 64 0z"/><path fill="currentColor" d="M8 0l-8 0 0 16 80 0 0 416 92.2 0c-7.6 8.5-12.2 19.7-12.2 32 0 26.5 21.5 48 48 48s48-21.5 48-48c0-12.3-4.6-23.5-12.2-32l184.4 0c-7.6 8.5-12.2 19.7-12.2 32 0 26.5 21.5 48 48 48s48-21.5 48-48c0-12.3-4.6-23.5-12.2-32l76.2 0 0-16-480 0 0-416-88 0zM496 464a32 32 0 1 1 -64 0 32 32 0 1 1 64 0zM208 496a32 32 0 1 1 0-64 32 32 0 1 1 0 64zM176 112l320 0 0 224-320 0 0-224zM160 96l0 256 352 0 0-256-352 0z"/></svg>