<svg xmlns="http://www.w3.org/2000/svg" viewBox="0 0 512 512"><!--! Font Awesome Pro 7.0.0 by @fontawesome - https://fontawesome.com License - https://fontawesome.com/license (Commercial License) Copyright 2025 Fonticons, Inc. --><path style="fill:var(--fa-secondary-color,currentColor);opacity:var(--fa-secondary-opacity,.4)" d="M16 256a240 240 0 1 0 480 0 240 240 0 1 0 -480 0zm112-44.7c0-28.3 23-51.3 51.3-51.3l52.7 0 0 16-52.7 0c-19.5 0-35.3 15.8-35.3 35.3 0 17.3 12.5 32 29.5 34.8l23.6 3.9c24.7 4.1 42.9 25.5 42.9 50.6 0 28.3-23 51.3-51.3 51.3l-52.7 0 0-16 52.7 0c19.5 0 35.3-15.8 35.3-35.3 0-17.3-12.5-32-29.5-34.8l-23.6-3.9c-24.7-4.1-42.9-25.5-42.9-50.6zM262.1 373.5l2.2-7.7 64-224 2.2-7.7 15.4 4.4-2.2 7.7-64 224-2.2 7.7-15.4-4.4zM384 336a16 16 0 1 1 -32 0 16 16 0 1 1 32 0z"/><path style="fill:var(--fa-primary-color,currentColor);opacity:var(--fa-primary-opacity,1)" d="M256 16a240 240 0 1 1 0 480 240 240 0 1 1 0-480zm0 496a256 256 0 1 0 0-512 256 256 0 1 0 0 512zM179.3 160c-28.3 0-51.3 23-51.3 51.3 0 25.1 18.1 46.5 42.9 50.6l23.6 3.9c17 2.8 29.5 17.6 29.5 34.8 0 19.5-15.8 35.3-35.3 35.3l-52.7 0 0 16 52.7 0c28.3 0 51.3-23 51.3-51.3 0-25.1-18.1-46.5-42.9-50.6l-23.6-3.9c-17-2.8-29.5-17.6-29.5-34.8 0-19.5 15.8-35.3 35.3-35.3l52.7 0 0-16-52.7 0zm166.6-21.5l-15.4-4.4-2.2 7.7-64 224-2.2 7.7 15.4 4.4 2.2-7.7 64-224 2.2-7.7zM368 352a16 16 0 1 0 0-32 16 16 0 1 0 0 32z"/></svg>