<svg xmlns="http://www.w3.org/2000/svg" viewBox="0 0 512 512"><!--! Font Awesome Pro 7.0.1 by @fontawesome - https://fontawesome.com License - https://fontawesome.com/license (Commercial License) Copyright 2025 Fonticons, Inc. --><path style="fill:var(--fa-secondary-color,currentColor);opacity:var(--fa-secondary-opacity,.4)" d="M16 256a240 240 0 1 0 480 0 240 240 0 1 0 -480 0zm144-96l144 0 0 16-116.7 0 154.3 154.3 5.7 5.7-11.3 11.3-5.7-5.7-154.3-154.3 0 116.7-16 0 0-144z"/><path style="fill:var(--fa-primary-color,currentColor);opacity:var(--fa-primary-opacity,1)" d="M256 16a240 240 0 1 1 0 480 240 240 0 1 1 0-480zm0 496a256 256 0 1 0 0-512 256 256 0 1 0 0 512zM168 160l-8 0 0 144 16 0 0-116.7 154.3 154.3 5.7 5.7 11.3-11.3-5.7-5.7-154.3-154.3 116.7 0 0-16-136 0z"/></svg>