<svg xmlns="http://www.w3.org/2000/svg" viewBox="0 0 512 512"><!--! Font Awesome Pro 7.1.0 by @fontawesome - https://fontawesome.com License - https://fontawesome.com/license (Commercial License) Copyright 2025 Fonticons, Inc. --><path opacity=".4" fill="currentColor" d="M16 256a240 240 0 1 0 480 0 240 240 0 1 0 -480 0zM240 128l32 0-8 192-16 0-8-192z"/><path fill="currentColor" d="M256 512a256 256 0 1 1 0-512 256 256 0 1 1 0 512zm0-496a240 240 0 1 0 0 480 240 240 0 1 0 0-480zm12 363.8l-24 0 0-24 24 0 0 24zM264 320l-16 0-8-192 32 0-8 192z"/></svg>