<svg xmlns="http://www.w3.org/2000/svg" viewBox="0 0 512 512"><!--! Font Awesome Pro 7.0.1 by @fontawesome - https://fontawesome.com License - https://fontawesome.com/license (Commercial License) Copyright 2025 Fonticons, Inc. --><path style="fill:var(--fa-secondary-color,currentColor);opacity:var(--fa-secondary-opacity,.4)" d="M16 256a240 240 0 1 0 480 0 240 240 0 1 0 -480 0zm160-96l160 0 0 10.9-1.8 2.2-133.3 162.9 135.1 0 0 16-160 0 0-10.9 1.8-2.2 133.3-162.9-135.1 0 0-16z"/><path style="fill:var(--fa-primary-color,currentColor);opacity:var(--fa-primary-opacity,1)" d="M256 16a240 240 0 1 1 0 480 240 240 0 1 1 0-480zm0 496a256 256 0 1 0 0-512 256 256 0 1 0 0 512zm72-352l-152 0 0 16 135.1 0-133.3 162.9-1.8 2.2 0 10.9 160 0 0-16-135.1 0 133.3-162.9 1.8-2.2 0-10.9-8 0z"/></svg>