<svg xmlns="http://www.w3.org/2000/svg" viewBox="0 0 512 512"><!--! Font Awesome Pro 7.1.0 by @fontawesome - https://fontawesome.com License - https://fontawesome.com/license (Commercial License) Copyright 2025 Fonticons, Inc. --><path opacity=".4" fill="currentColor" d="M16 256a240 240 0 1 0 480 0 240 240 0 1 0 -480 0zm176-96l76 0c28.7 0 52 23.3 52 52 0 15.7-6.9 29.7-17.9 39.2 19.8 7.4 33.9 26.4 33.9 48.8 0 28.7-23.3 52-52 52l-92 0 0-192zm16 16l0 72 60 0c19.9 0 36-16.1 36-36s-16.1-36-36-36l-60 0zm0 88l0 72 76 0c19.9 0 36-16.1 36-36s-16.1-36-36-36l-76 0z"/><path fill="currentColor" d="M256 16a240 240 0 1 1 0 480 240 240 0 1 1 0-480zm0 496a256 256 0 1 0 0-512 256 256 0 1 0 0 512zM192 160l0 192 92 0c28.7 0 52-23.3 52-52 0-22.3-14.1-41.4-33.9-48.8 11-9.5 17.9-23.6 17.9-39.2 0-28.7-23.3-52-52-52l-76 0zm112 52c0 19.9-16.1 36-36 36l-60 0 0-72 60 0c19.9 0 36 16.1 36 36zM208 336l0-72 76 0c19.9 0 36 16.1 36 36s-16.1 36-36 36l-76 0z"/></svg>