<svg xmlns="http://www.w3.org/2000/svg" viewBox="0 0 512 512"><!--! Font Awesome Pro 7.0.1 by @fontawesome - https://fontawesome.com License - https://fontawesome.com/license (Commercial License) Copyright 2025 Fonticons, Inc. --><path style="fill:var(--fa-secondary-color,currentColor);opacity:var(--fa-secondary-opacity,.4)" d="M16 256a240 240 0 1 0 480 0 240 240 0 1 0 -480 0zM176 128l16 9.8 176.7 108.8 15.3 9.4-15.3 9.4-176.7 108.8-16 9.8 0-256z"/><path style="fill:var(--fa-primary-color,currentColor);opacity:var(--fa-primary-opacity,1)" d="M256 16a240 240 0 1 1 0 480 240 240 0 1 1 0-480zm0 496a256 256 0 1 0 0-512 256 256 0 1 0 0 512zM192 374.2l176.7-108.8 15.3-9.4-15.3-9.4-176.7-108.8-16-9.8 0 256 16-9.8zM353.5 256L192 355.4 192 156.6 353.5 256z"/></svg>