<svg xmlns="http://www.w3.org/2000/svg" viewBox="0 0 512 512"><!--! Font Awesome Pro 7.0.1 by @fontawesome - https://fontawesome.com License - https://fontawesome.com/license (Commercial License) Copyright 2025 Fonticons, Inc. --><path style="fill:var(--fa-secondary-color,currentColor);opacity:var(--fa-secondary-opacity,.4)" d="M16 256a240 240 0 1 0 480 0 240 240 0 1 0 -480 0zM160 128l192 0 0 256-16-10.7-80-53.3-80 53.3-16 10.7 0-256z"/><path style="fill:var(--fa-primary-color,currentColor);opacity:var(--fa-primary-opacity,1)" d="M256 16a240 240 0 1 1 0 480 240 240 0 1 1 0-480zm0 496a256 256 0 1 0 0-512 256 256 0 1 0 0 512zm8.9-205.3l-8.9-5.9-8.9 5.9-71.1 47.4 0-210.1 160 0 0 210.1-71.1-47.4zM160 384l16-10.7 80-53.3 80 53.3 16 10.7 0-256-192 0 0 256z"/></svg>