<svg xmlns="http://www.w3.org/2000/svg" viewBox="0 0 512 512"><!--! Font Awesome Pro 7.0.0 by @fontawesome - https://fontawesome.com License - https://fontawesome.com/license (Commercial License) Copyright 2025 Fonticons, Inc. --><path style="fill:var(--fa-secondary-color,currentColor);opacity:var(--fa-secondary-opacity,.4)" d="M16 256a240 240 0 1 0 480 0 240 240 0 1 0 -480 0zm156.8-1.4l12.6-9.8 4.9 6.3 48.9 62.9 82-134.1 4.2-6.8 13.7 8.3-4.2 6.8-88 144-6 9.9-7.1-9.1-56-72-4.9-6.3z"/><path style="fill:var(--fa-primary-color,currentColor);opacity:var(--fa-primary-opacity,1)" d="M256 16a240 240 0 1 1 0 480 240 240 0 1 1 0-480zm0 496a256 256 0 1 0 0-512 256 256 0 1 0 0 512zm78.8-323.8l4.2-6.8-13.7-8.3-4.2 6.8-82 134.1-48.9-62.9-4.9-6.3-12.6 9.8 4.9 6.3 56 72 7.1 9.1 6-9.9 88-144z"/></svg>