<svg xmlns="http://www.w3.org/2000/svg" viewBox="0 0 512 512"><!--! Font Awesome Pro 7.1.0 by @fontawesome - https://fontawesome.com License - https://fontawesome.com/license (Commercial License) Copyright 2025 Fonticons, Inc. --><path opacity=".4" fill="currentColor" d="M16 256a240 240 0 1 0 480 0 240 240 0 1 0 -480 0zm160-96l80 0c53 0 96 43 96 96s-43 96-96 96l-80 0 0-192zm16 16l0 160 64 0c44.2 0 80-35.8 80-80s-35.8-80-80-80l-64 0z"/><path fill="currentColor" d="M256 16a240 240 0 1 1 0 480 240 240 0 1 1 0-480zm0 496a256 256 0 1 0 0-512 256 256 0 1 0 0 512zM184 160l-8 0 0 192 80 0c53 0 96-43 96-96s-43-96-96-96l-72 0zm72 176l-64 0 0-160 64 0c44.2 0 80 35.8 80 80s-35.8 80-80 80z"/></svg>