<svg xmlns="http://www.w3.org/2000/svg" viewBox="0 0 384 512"><!--! Font Awesome Pro 7.1.0 by @fontawesome - https://fontawesome.com License - https://fontawesome.com/license (Commercial License) Copyright 2025 Fonticons, Inc. --><path opacity=".4" fill="currentColor" d="M16 48l0 448 352 0 0-448-64 0 0 48-224 0 0-48-64 0zM92.8 308.1l11.5-11.1 5.6 5.8 55.7 57.6 108.1-148.7 4.7-6.5 12.9 9.4-4.7 6.5-113.7 156.4-5.6 7.7-6.6-6.8-62.3-64.5-5.6-5.8z"/><path fill="currentColor" d="M304 32l80 0 0 480-384 0 0-480 80 0 0-32 224 0 0 32zM16 496l352 0 0-448-64 0 0 48-224 0 0-48-64 0 0 448zM291.3 214.7l-4.7 6.5-113.7 156.4-5.6 7.7-6.6-6.8-62.3-64.5-5.6-5.8 11.5-11.1 5.6 5.8 55.7 57.6 108.1-148.7 4.7-6.5 12.9 9.4zM96 80l192 0 0-64-192 0 0 64z"/></svg>