<svg xmlns="http://www.w3.org/2000/svg" viewBox="0 0 384 512"><!--! Font Awesome Pro 7.0.1 by @fontawesome - https://fontawesome.com License - https://fontawesome.com/license (Commercial License) Copyright 2025 Fonticons, Inc. --><path style="fill:var(--fa-secondary-color,currentColor);opacity:var(--fa-secondary-opacity,.4)" d="M16 48l0 448 352 0 0-448-64 0 0 48-224 0 0-48-64 0z"/><path style="fill:var(--fa-primary-color,currentColor);opacity:var(--fa-primary-opacity,1)" d="M80 80l0 16 224 0 0-48 64 0 0 448-352 0 0-448 64 0 0 32zm0-48l-80 0 0 480 384 0 0-480-80 0 0-32-224 0 0 32zM96 16l192 0 0 64-192 0 0-64z"/></svg>