<svg xmlns="http://www.w3.org/2000/svg" viewBox="0 0 576 512"><!--! Font Awesome Pro 7.1.0 by @fontawesome - https://fontawesome.com License - https://fontawesome.com/license (Commercial License) Copyright 2025 Fonticons, Inc. --><path opacity=".4" fill="currentColor" d="M48.1 112.5l83.1-16.8 10.4-2.1 2.1-10.4 16.8-83.1 70.7 46.9 8.8 5.9 8.8-5.9 70.7-46.9 16.8 83.1 2.1 10.4 10.4 2.1 83.1 16.8-21.2 32c-3.5-.3-7.1-.4-10.7-.4-31.2 0-59.9 11.2-82.1 29.8-8.2-35.4-40-61.8-77.9-61.8-44.2 0-80 35.8-80 80 0 11.6 2.5 22.6 6.9 32.6-24.6 13.4-44.6 34.2-57 59.4l-61.9-12.5 46.9-70.7 5.9-8.8-5.9-8.8-46.9-70.7zM112 432c0-23.7 12.9-44.5 32.2-55.5l5.7-3.3-2.1-6.2c-2.4-7.2-3.7-14.9-3.7-23 0-39.8 32.2-72 72-72 25.1 0 47.2 12.8 60.1 32.3l4.6 6.9 6.8-4.8c9.2-6.6 20.4-10.4 32.6-10.4 33.7 0 60.4 31.3 55.4 64.4l-1.1 7.4 7.3 1.6c28.8 6.2 50.4 31.9 50.4 62.6l0 64-320 0 0-64zM344.4 240.3c11-19.3 31.8-32.3 55.6-32.3 30.9 0 56.7 21.9 62.7 51l2.3 11.2 9.7-6c8.5-5.2 18.5-8.3 29.3-8.3 30.9 0 56 25.1 56 56l0 56-81.1 0c-8.4-14.6-19.7-27.3-32.9-37.5-9.5-48.9-50.8-86.4-101.5-90.2z"/><path fill="currentColor" d="M338.4 93.6l-2.1-10.4-16.8-83.1-70.7 46.9-8.8 5.9-8.8-5.9-70.7-46.9-16.8 83.1-2.1 10.4-10.4 2.1-83.1 16.8 46.9 70.7 5.9 8.8-5.9 8.8-46.9 70.7 61.9 12.5c-2.4 4.9-4.5 9.9-6.3 15-51.4-10.4-78.8-15.9-82-16.6l9.5-14.4 50.5-76.1-50.5-76.1-9.5-14.4 16.9-3.4 89.5-18.1 18.1-89.5 3.4-16.9 14.4 9.5 76.1 50.5 76.1-50.5 14.4-9.5 3.4 16.9 18.1 89.5 89.5 18.1 16.9 3.4c-4.5 6.8-14.6 22-30.2 45.6-5.7-1.3-11.5-2.2-17.4-2.7l21.2-32-83.1-16.8-10.4-2.1zm-34.6 94c-2.3-33.3-30-59.5-63.8-59.5-35.3 0-64 28.7-64 64 0 9.2 1.9 17.9 5.4 25.7-5 2-9.8 4.3-14.5 6.8-4.4-9.9-6.9-21-6.9-32.6 0-44.2 35.8-80 80-80 37.9 0 69.7 26.4 77.9 61.8-5 4.2-9.7 8.8-14.1 13.7zm40.5 52.8c-5.3-.4-11.4-.5-17.9 .1 12.3-28.5 40.6-48.4 73.5-48.4 35 0 64.8 22.5 75.6 53.8 8.7-3.7 18.3-5.8 28.4-5.8 39.8 0 72 32.2 72 72l0 72-89.3 0c-2.2-5.5-4.9-10.9-7.8-16l81.1 0 0-56c0-30.9-25.1-56-56-56-10.7 0-20.8 3-29.3 8.3l-9.7 6-2.3-11.2c-6-29.1-31.8-51-62.7-51-23.8 0-44.6 13-55.6 32.3zM216 272c-39.8 0-72 32.2-72 72 0 8.1 1.3 15.8 3.7 23l2.1 6.2-5.7 3.3C124.9 387.5 112 408.3 112 432l0 64 320 0 0-64c0-30.7-21.6-56.3-50.4-62.6l-7.3-1.6 1.1-7.4c5-33.1-21.6-64.4-55.4-64.4-12.2 0-23.4 3.9-32.6 10.4l-6.8 4.8-4.6-6.9c-12.9-19.5-35-32.3-60.1-32.3zm-88 72c0-48.6 39.4-88 88-88 27.9 0 52.7 13 68.8 33.2 10.4-5.8 22.4-9.2 35.2-9.2 41.1 0 73.8 35.7 71.9 75.6 32.5 10.2 56.1 40.5 56.1 76.4l0 80-352 0 0-80c0-27.4 13.8-51.6 34.8-66-1.8-7-2.8-14.4-2.8-22z"/></svg>