<svg xmlns="http://www.w3.org/2000/svg" viewBox="0 0 448 512"><!--! Font Awesome Pro 7.0.1 by @fontawesome - https://fontawesome.com License - https://fontawesome.com/license (Commercial License) Copyright 2025 Fonticons, Inc. --><path style="fill:var(--fa-secondary-color,currentColor);opacity:var(--fa-secondary-opacity,.4)" d="M16 48l0 416 128 0 0-416-128 0zm144 0l0 416 128 0 0-416-128 0zm144 0l0 416 128 0 0-416-128 0z"/><path style="fill:var(--fa-primary-color,currentColor);opacity:var(--fa-primary-opacity,1)" d="M304 48l0 416 128 0 0-416-128 0zm-16 0l-128 0 0 416 128 0 0-416zM144 464l0-416-128 0 0 416 128 0zM0 32l448 0 0 448-448 0 0-448z"/></svg>