<svg xmlns="http://www.w3.org/2000/svg" viewBox="0 0 512 512"><!--! Font Awesome Pro 7.1.0 by @fontawesome - https://fontawesome.com License - https://fontawesome.com/license (Commercial License) Copyright 2025 Fonticons, Inc. --><path opacity=".4" fill="currentColor" d="M16 240c0 53.5 21.1 101.1 54.2 142.1L28.1 485.4 153 442.5c32.9 13.6 67.2 21.5 103 21.5 133.5 0 240-101.2 240-224S389.5 16 256 16 16 117.2 16 240zm72-32c0-22.1 17.9-40 40-40l32 0 0 16-32 0c-13.3 0-24 10.7-24 24s10.7 24 24 24c22.1 0 40 17.9 40 40s-17.9 40-40 40l-40 0 0-16 40 0c13.3 0 24-10.7 24-24s-10.7-24-24-24c-22.1 0-40-17.9-40-40zm112-40c13.2 0 12.8 0 16.7 0l2.3 4.1 36.9 67 35.5-66.9 2.3-4.3c6.6 0 13.9 0 18.4 0l0 144-16 0 0-114.4c-26.3 49.6-39.6 74.7-39.9 75.2-.5-.8-13.8-25.1-40.1-73l0 112.1-16 0 0-144zm144 40c0-22.1 17.9-40 40-40l32 0 0 16-32 0c-13.3 0-24 10.7-24 24s10.7 24 24 24c22.1 0 40 17.9 40 40s-17.9 40-40 40l-40 0 0-16 40 0c13.3 0 24-10.7 24-24s-10.7-24-24-24c-22.1 0-40-17.9-40-40z"/><path fill="currentColor" d="M28.1 485.4L70.2 382.1C37.1 341.1 16 293.5 16 240 16 117.2 122.5 16 256 16S496 117.2 496 240 389.5 464 256 464c-35.7 0-70.1-7.9-103-21.5L28.1 485.4zM51.8 384.8L0 512 152.5 459.6c31.6 13.1 66.7 20.4 103.5 20.4 141.4 0 256-107.5 256-240S397.4 0 256 0 0 107.5 0 240c0 54.4 19.3 104.6 51.8 144.8zM128 168c-22.1 0-40 17.9-40 40s17.9 40 40 40c13.3 0 24 10.7 24 24s-10.7 24-24 24l-40 0 0 16 40 0c22.1 0 40-17.9 40-40s-17.9-40-40-40c-13.3 0-24-10.7-24-24s10.7-24 24-24l32 0 0-16-32 0zm216 40c0 22.1 17.9 40 40 40 13.3 0 24 10.7 24 24s-10.7 24-24 24l-40 0 0 16 40 0c22.1 0 40-17.9 40-40s-17.9-40-40-40c-13.3 0-24-10.7-24-24s10.7-24 24-24l32 0 0-16-32 0c-22.1 0-40 17.9-40 40zm-32-32l0-8c-12.9 0-15.5 0-18.4 0l-2.3 4.3-35.5 66.9-36.9-67-2.3-4.1c-6.7 0-11.2 0-16.7 0l0 144 16 0 0-112.1c26.3 47.8 39.7 72.1 40.1 73 .3-.6 13.6-25.6 39.9-75.2l0 114.4 16 0 0-136z"/></svg>