<svg xmlns="http://www.w3.org/2000/svg" viewBox="0 0 512 512"><!--! Font Awesome Pro 7.0.1 by @fontawesome - https://fontawesome.com License - https://fontawesome.com/license (Commercial License) Copyright 2025 Fonticons, Inc. --><path style="fill:var(--fa-secondary-color,currentColor);opacity:var(--fa-secondary-opacity,.4)" d=""/><path style="fill:var(--fa-primary-color,currentColor);opacity:var(--fa-primary-opacity,1)" d="M8 192l168 0 0 128-176 0 0 192 192 0 0-176 128 0 0 176 192 0 0-192-176 0 0-128 176 0 0-192-192 0 0 176-128 0 0-176-192 0 0 192 8 0zM256 320l-64 0 0-128 128 0 0 128-64 0zM16 176l0-160 160 0 0 160-160 0zM176 496l-160 0 0-160 160 0 0 160zM336 176l0-160 160 0 0 160-160 0zM496 336l0 160-160 0 0-160 160 0z"/></svg>