<svg xmlns="http://www.w3.org/2000/svg" viewBox="0 0 512 512"><!--! Font Awesome Pro 7.1.0 by @fontawesome - https://fontawesome.com License - https://fontawesome.com/license (Commercial License) Copyright 2025 Fonticons, Inc. --><path opacity=".4" fill="currentColor" d="M16 240c0 53.5 21.1 101.1 54.2 142.1L28.1 485.4 153 442.5c32.9 13.6 67.2 21.5 103 21.5 133.5 0 240-101.2 240-224S389.5 16 256 16 16 117.2 16 240zm172.7-56l11.3-11.3 5.7 5.7 50.3 50.3 50.3-50.3 5.7-5.7 11.3 11.3-5.7 5.7-50.3 50.3 50.3 50.3 5.7 5.7-11.3 11.3-5.7-5.7-50.3-50.3-50.3 50.3-5.7 5.7-11.3-11.3 5.7-5.7 50.3-50.3-50.3-50.3-5.7-5.7z"/><path fill="currentColor" d="M28.1 485.4L70.2 382.1C37.1 341.1 16 293.5 16 240 16 117.2 122.5 16 256 16S496 117.2 496 240 389.5 464 256 464c-35.7 0-70.1-7.9-103-21.5L28.1 485.4zM51.8 384.8L0 512 152.5 459.6c31.6 13.1 66.7 20.4 103.5 20.4 141.4 0 256-107.5 256-240S397.4 0 256 0 0 107.5 0 240c0 54.4 19.3 104.6 51.8 144.8zM200 172.7l-11.3 11.3 5.7 5.7 50.3 50.3-50.3 50.3-5.7 5.7 11.3 11.3 5.7-5.7 50.3-50.3 50.3 50.3 5.7 5.7 11.3-11.3-5.7-5.7-50.3-50.3 50.3-50.3 5.7-5.7-11.3-11.3-5.7 5.7-50.3 50.3-50.3-50.3-5.7-5.7z"/></svg>