<svg xmlns="http://www.w3.org/2000/svg" viewBox="0 0 576 512"><!--! Font Awesome Pro 7.1.0 by @fontawesome - https://fontawesome.com License - https://fontawesome.com/license (Commercial License) Copyright 2025 Fonticons, Inc. --><path opacity=".4" fill="currentColor" d="M16 48l320 0 0 336-320 0 0-336zm384 0l160 0 0 416-160 0 0-416zm48 64l0 16 64 0 0-16-64 0zm0 96l0 16 64 0 0-16-64 0zm16 128a16 16 0 1 0 32 0 16 16 0 1 0 -32 0z"/><path fill="currentColor" d="M336 32l-336 0 0 368 336 0 0-16-320 0 0-336 320 0 0-16zm0 432l-240 0 0 16 240 0 0-16zM400 48l160 0 0 416-160 0 0-416zM384 32l0 448 192 0 0-448-192 0zm64 80l0 16 64 0 0-16-64 0zm0 96l0 16 64 0 0-16-64 0zm32 144a16 16 0 1 0 0-32 16 16 0 1 0 0 32z"/></svg>