<svg xmlns="http://www.w3.org/2000/svg" viewBox="0 0 512 512"><!--! Font Awesome Pro 7.0.1 by @fontawesome - https://fontawesome.com License - https://fontawesome.com/license (Commercial License) Copyright 2025 Fonticons, Inc. --><path style="fill:var(--fa-secondary-color,currentColor);opacity:var(--fa-secondary-opacity,.4)" d="M16 240l0 104 480 0 0-104-480 0zm0 120l0 104 480 0 0-104-480 0z"/><path style="fill:var(--fa-primary-color,currentColor);opacity:var(--fa-primary-opacity,1)" d="M384 64l-224 0 0 88 288 0 0 72 64 0 0 256-512 0 0-256 64 0 0-72 80 0 0-104 240 0 0 16zM16 464l480 0 0-104-480 0 0 104zm0-120l480 0 0-104-480 0 0 104zM80 224l352 0 0-56-352 0 0 56z"/></svg>