<svg xmlns="http://www.w3.org/2000/svg" viewBox="0 0 640 512"><!--! Font Awesome Pro 7.1.0 by @fontawesome - https://fontawesome.com License - https://fontawesome.com/license (Commercial License) Copyright 2025 Fonticons, Inc. --><path opacity=".4" fill="currentColor" d="M48 50.8c.9-1 1.8-1.9 2.8-2.8l474.3 0c1 .9 1.9 1.8 2.8 2.8l0 159.8c-10.4-1.7-21.1-2.7-32-2.7s-21.6 .9-32 2.7l0-82.7-104 0 0 16 76.7 0-124.7 124.7-74.3-74.3-5.7-5.7-5.7 5.7-112 112-5.7 5.7 11.3 11.3 5.7-5.7 106.3-106.3 74.3 74.3 5.7 5.7 5.7-5.7 130.3-130.3 0 58.7c-82.8 21.3-144 96.5-144 186L50.8 400c-1-.9-1.9-1.8-2.8-2.8L48 50.8zM225.4 496l13.3-80 65.9 0c2.4 29 11.2 56.1 25 80l-104.2 0z"/><path fill="currentColor" d="M528 48l-480 0 0 352 256 0c0 5.4 .2 10.7 .7 16l-65.9 0-13.3 80 104.2 0c3.2 5.5 6.6 10.9 10.3 16l-212 0 0-16 81.2 0 13.3-80-190.6 0 0-384 512 0 0 182c-5.3-1.4-10.6-2.5-16-3.4L528 48zM448 214l0-58.7-130.3 130.3-5.7 5.7-5.7-5.7-74.3-74.3-106.3 106.3-5.7 5.7-11.3-11.3 5.7-5.7 112-112 5.7-5.7 5.7 5.7 74.3 74.3 124.7-124.7-76.7 0 0-16 104 0 0 82.7c-5.4 .9-10.7 2-16 3.4zm48 314a128 128 0 1 0 0-256 128 128 0 1 0 0 256zm0-272a144 144 0 1 1 0 288 144 144 0 1 1 0-288zm8 56l0 24 32 0 0 16-53.8 0c-10 0-18.2 8.1-18.2 18.2 0 8.8 6.3 16.3 14.9 17.9l45 8.2c16.2 3 28.1 17.1 28.1 33.6 0 18.9-15.3 34.2-34.2 34.2l-13.8 0 0 24-16 0 0-24-32 0 0-16 61.8 0c10 0 18.2-8.1 18.2-18.2 0-8.8-6.3-16.3-14.9-17.9l-45-8.2c-16.2-3-28.1-17.1-28.1-33.6 0-18.9 15.3-34.2 34.2-34.2l5.8 0 0-24 16 0z"/></svg>