<svg xmlns="http://www.w3.org/2000/svg" viewBox="0 0 448 512"><!--! Font Awesome Pro 7.0.1 by @fontawesome - https://fontawesome.com License - https://fontawesome.com/license (Commercial License) Copyright 2025 Fonticons, Inc. --><path style="fill:var(--fa-secondary-color,currentColor);opacity:var(--fa-secondary-opacity,.4)" d="M188 72l0 72 72 0 0-72-72 0zm0 296l0 72 72 0 0-72-72 0z"/><path style="fill:var(--fa-primary-color,currentColor);opacity:var(--fa-primary-opacity,1)" d="M260 72l0 72-72 0 0-72 72 0zM188 56l-16 0 0 104 104 0 0-104-88 0zM0 248l0 16 448 0 0-16-448 0zM188 368l72 0 0 72-72 0 0-72zm-16-16l0 104 104 0 0-104-104 0z"/></svg>