<svg xmlns="http://www.w3.org/2000/svg" viewBox="0 0 448 512"><!--! Font Awesome Pro 7.1.0 by @fontawesome - https://fontawesome.com License - https://fontawesome.com/license (Commercial License) Copyright 2025 Fonticons, Inc. --><path opacity=".4" fill="currentColor" d="M69.2 176l154.8 163.6 154.8-163.6-106.8 0 0-160-96 0 0 160-106.8 0z"/><path fill="currentColor" d="M160 160l-128 0 15.1 16 165.8 175.2 11 11.6 11-11.6 165.8-175.2 15.1-16-128 0 0-160-128 0 0 160zm0 16l16 0 0-160 96 0 0 160 106.8 0-154.8 163.6-154.8-163.6 90.8 0zM16 328l0-8-16 0 0 184c0 4.4 3.6 8 8 8l432 0c4.4 0 8-3.6 8-8l0-184-16 0 0 176-416 0 0-168z"/></svg>