<svg xmlns="http://www.w3.org/2000/svg" viewBox="0 0 640 512"><!--! Font Awesome Pro 7.1.0 by @fontawesome - https://fontawesome.com License - https://fontawesome.com/license (Commercial License) Copyright 2025 Fonticons, Inc. --><path opacity=".4" fill="currentColor" d="M48 112l0 288 64 0 0-288-64 0zm80-32l0 352 80 0 0-352-80 0zm304 0l0 352 80 0 0-352-80 0zm96 32l0 288 64 0 0-288-64 0z"/><path fill="currentColor" d="M224 248l192 0 0-184 112 0 0 32 80 0 0 152 32 0 0 16-32 0 0 152-80 0 0 32-112 0 0-184-192 0 0 184-112 0 0-32-80 0 0-152-32 0 0-16 32 0 0-152 80 0 0-32 112 0 0 184zM128 432l80 0 0-352-80 0 0 352zm304 0l80 0 0-352-80 0 0 352zM48 400l64 0 0-288-64 0 0 288zm480 0l64 0 0-288-64 0 0 288z"/></svg>