<svg xmlns="http://www.w3.org/2000/svg" viewBox="0 0 640 512"><!--! Font Awesome Pro 7.1.0 by @fontawesome - https://fontawesome.com License - https://fontawesome.com/license (Commercial License) Copyright 2025 Fonticons, Inc. --><path opacity=".4" fill="currentColor" d="M112 192l0 304 199.2 0c2.9-6.5 5.9-13 8.8-19.6l0-180.4 80 0 0-48 54.9 0c5.9-17.6 9.1-36.4 9.1-56 0-97.2-78.8-176-176-176S112 94.8 112 192zm64 0c0-61.9 50.1-112 112-112s112 50.1 112 112l0 16-16 0 0-16c0-53-43-96-96-96s-96 43-96 96l0 32 8 0c30.9 0 56 25.1 56 56s-25.1 56-56 56l-24 0 0-16 24 0c22.1 0 40-17.9 40-40s-17.9-40-40-40l-24 0 0-48z"/><path fill="currentColor" d="M112 192l0 304 199.2 0-7.2 16-208 0 0-320C96 86 182 0 288 0S480 86 480 192c0 19.5-2.9 38.3-8.3 56l-16.8 0c5.9-17.6 9.1-36.4 9.1-56 0-97.2-78.8-176-176-176S112 94.8 112 192zM288 96c-53 0-96 43-96 96l0 32 8 0c30.9 0 56 25.1 56 56s-25.1 56-56 56l-24 0 0-16 24 0c22.1 0 40-17.9 40-40s-17.9-40-40-40l-24 0 0-48c0-61.9 50.1-112 112-112s112 50.1 112 112l0 16-16 0 0-16c0-53-43-96-96-96zM464 304l0 232-16 0 0-240 16 0 0 8zm80 32l0 168-16 0 0-176 16 0 0 8zM384 352l0 136-16 0 0-144 16 0 0 8zm240 32l0 72-16 0 0-80 16 0 0 8z"/></svg>