<svg xmlns="http://www.w3.org/2000/svg" viewBox="0 0 512 512"><!--! Font Awesome Pro 7.0.1 by @fontawesome - https://fontawesome.com License - https://fontawesome.com/license (Commercial License) Copyright 2025 Fonticons, Inc. --><path style="fill:var(--fa-secondary-color,currentColor);opacity:var(--fa-secondary-opacity,.4)" d="M32 208l96 0 0 96-96 0 0-96zm176 0l96 0 0 96-96 0 0-96zm176 0l96 0 0 96-96 0 0-96z"/><path style="fill:var(--fa-primary-color,currentColor);opacity:var(--fa-primary-opacity,1)" d="M32 208l96 0 0 96-96 0 0-96zM16 304l0 16 128 0 0-128-128 0 0 112zm192-96l96 0 0 96-96 0 0-96zm-16 96l0 16 128 0 0-128-128 0 0 112zm192 0l0-96 96 0 0 96-96 0zm-16 16l128 0 0-128-128 0 0 128z"/></svg>