<svg xmlns="http://www.w3.org/2000/svg" viewBox="0 0 512 512"><!--! Font Awesome Pro 7.0.1 by @fontawesome - https://fontawesome.com License - https://fontawesome.com/license (Commercial License) Copyright 2025 Fonticons, Inc. --><path style="fill:var(--fa-secondary-color,currentColor);opacity:var(--fa-secondary-opacity,.4)" d="M16 80l480 0 0 52.1-240 185.8-240-185.8 0-52.1zm0 72.3l235.1 182 4.9 3.8 4.9-3.8 235.1-182 0 279.7-480 0 0-279.7z"/><path style="fill:var(--fa-primary-color,currentColor);opacity:var(--fa-primary-opacity,1)" d="M0 64l512 0 0 384-512 0 0-384zM496 80l-480 0 0 52.1 240 185.8 240-185.8 0-52.1zM16 152.3l0 279.7 480 0 0-279.7-235.1 182-4.9 3.8-4.9-3.8-235.1-182z"/></svg>