<svg xmlns="http://www.w3.org/2000/svg" viewBox="0 0 512 512"><!--! Font Awesome Pro 7.1.0 by @fontawesome - https://fontawesome.com License - https://fontawesome.com/license (Commercial License) Copyright 2025 Fonticons, Inc. --><path opacity=".4" fill="currentColor" d="M16 256C16 123.5 123.5 16 256 16S496 123.5 496 256c0 16.6-1.7 32.9-4.9 48.6l13.4 13.4c-5 20.2-12.4 39.4-21.9 57.3l-66.6-66.6-75.3 75.3 69.7 69.7c1.3 1.3 2.6 2.5 3.9 3.6-15.1 11.9-31.6 22.1-49.1 30.4l-12.1-12.1C323.4 488.7 290.5 496 256 496 123.5 496 16 388.5 16 256zm136 56l0 64 16 0 0-64-16 0zm8-104a16 16 0 1 0 32 0 16 16 0 1 0 -32 0zm56 104l0 64 16 0 0-64-16 0zm64 0l0 64 16 0 0-64-16 0zm40-104a16 16 0 1 0 32 0 16 16 0 1 0 -32 0z"/><path fill="currentColor" d="M256 496c34.5 0 67.4-7.3 97.1-20.4l12.1 12.1C332 503.3 295 512 256 512 114.6 512 0 397.4 0 256S114.6 0 256 0 512 114.6 512 256c0 21.4-2.6 42.1-7.5 61.9l-13.4-13.4c3.2-15.7 4.9-31.9 4.9-48.6 0-132.5-107.5-240-240-240S16 123.5 16 256 123.5 496 256 496zM232 312l0 64-16 0 0-64 16 0zm64 8l0 56-16 0 0-64 16 0 0 8zm-128-8l0 64-16 0 0-64 16 0zm8-120a16 16 0 1 1 0 32 16 16 0 1 1 0-32zm144 16a16 16 0 1 1 32 0 16 16 0 1 1 -32 0zM421.7 314.3l64 64c20.8 20.8 20.8 54.5 0 75.3s-54.5 20.8-75.3 0l-69.7-69.7 75.3-75.3 5.7 5.7zm0 128c14.5 14.6 38.1 14.6 52.7 0s14.6-38.1 0-52.7l-58.3-58.3-52.7 52.7 58.3 58.3z"/></svg>