<svg xmlns="http://www.w3.org/2000/svg" viewBox="0 0 512 512"><!--! Font Awesome Pro 7.1.0 by @fontawesome - https://fontawesome.com License - https://fontawesome.com/license (Commercial License) Copyright 2025 Fonticons, Inc. --><path opacity=".4" fill="currentColor" d="M16 256C16 123.5 123.5 16 256 16S496 123.5 496 256c0 63-24.3 120.3-64 163.2l0 22.7C398.1 474 355.4 497 307.8 506.7l79.8-79.8 5.7-5.7-5.7-5.7-37.6-37.6 27.1-27.1 5.7-5.7-5.7-5.7-50-50-16.4 16.4-37.7-37.6-5.7-5.7-5.7 5.7-84.7 84.7 0-54.1-65.1 0 0 133c0 14.4 2.7 28.2 7.7 40.9-20.8-13.1-39.5-29.1-55.7-47.4L64 400c-30.1-40.1-48-90-48-144zm144-64a16 16 0 1 0 32 0 16 16 0 1 0 -32 0zm160 0a16 16 0 1 0 32 0 16 16 0 1 0 -32 0z"/><path fill="currentColor" d="M256 16C123.5 16 16 123.5 16 256 16 310 33.9 359.9 64 400l0 25.3C24.2 380.2 0 320.9 0 256 0 114.6 114.6 0 256 0S512 114.6 512 256c0 73.2-30.7 139.2-80 185.9l0-22.7C471.7 376.3 496 319 496 256 496 123.5 388.5 16 256 16zM176 176a16 16 0 1 1 0 32 16 16 0 1 1 0-32zm144 16a16 16 0 1 1 32 0 16 16 0 1 1 -32 0zm-46.9 76.3l37.7 37.6 16.4-16.4 50 50 5.7 5.7-5.7 5.7-27.1 27.1 37.6 37.6 5.7 5.7-5.7 5.7-84.2 84.2c-21 21-49.6 32.8-79.3 32.8-61.9 0-112.1-50.2-112.1-112.1l0-133 65.1 0 0 54.1 84.7-84.7 5.7-5.7 5.7 5.7zm14 172.6l-11.3-11.3 57.3-57.3 27.1-27.1-33-33-10.7 10.7-73.6 73.6-11.3-11.3 68-68-32-32-92.7 92.7-13.7 13.7 0-76.8-33.1 0 0 117c0 53.1 43 96.1 96.1 96.1 25.5 0 49.9-10.1 68-28.2l78.6-78.6-32-32-51.6 51.6z"/></svg>