<svg xmlns="http://www.w3.org/2000/svg" viewBox="0 0 512 512"><!--! Font Awesome Pro 7.1.0 by @fontawesome - https://fontawesome.com License - https://fontawesome.com/license (Commercial License) Copyright 2025 Fonticons, Inc. --><path opacity=".4" fill="currentColor" d="M16 256a240 240 0 1 0 480 0 240 240 0 1 0 -480 0zm101.9-74.9l5.1-15.2 7.6 2.5 96 32 7.6 2.5-5.1 15.2-7.6-2.5-96-32-7.6-2.5zm41 229.8l1.4-14.8c4.6-47.4 45.9-84.2 95.6-84.2 49.8 0 91 36.7 95.7 84.2l1.4 14.8-10.7-5.6c.3 2.4 .3 4.8 .2 7.1-64.9-32.3-132.7-20.7-173.2-1.9 0-1.7 .1-3.5 .4-5.3l-10.8 5.7zM192 240a16 16 0 1 1 -32 0 16 16 0 1 1 32 0zM182 375.5c14.9-21.7 41.8-40.9 74.4-40.9 30.4 .6 56.9 17.2 72.2 38-12.7-26.2-40.3-44.6-72.6-44.6-33.5 0-62 19.7-74 47.5zm95.8-172.5l7.6-2.5 96-32 7.6-2.5 5.1 15.2-7.6 2.5-96 32-7.6 2.5-5.1-15.2zM352 240a16 16 0 1 1 -32 0 16 16 0 1 1 32 0z"/><path fill="currentColor" d="M256 16a240 240 0 1 1 0 480 240 240 0 1 1 0-480zm0 496a256 256 0 1 0 0-512 256 256 0 1 0 0 512zm97.1-101.1l-1.4-14.8c-4.6-47.5-45.9-84.2-95.7-84.2-49.7 0-91 36.7-95.6 84.2l-1.4 14.8 13.1-6.9c24-12.6 52.8-20 83.9-20 31.1 0 60 7.4 84 20l13.1 6.9zM332.8 383c-23.1-9.6-49.2-15-76.8-15-27.6 0-53.7 5.4-76.7 15 9.8-31.7 40.3-55 76.7-55s66.9 23.3 76.8 55zM176 256a16 16 0 1 0 0-32 16 16 0 1 0 0 32zm176-16a16 16 0 1 0 -32 0 16 16 0 1 0 32 0zM130.5 168.4l-7.6-2.5-5.1 15.2 7.6 2.5 96 32 7.6 2.5 5.1-15.2-7.6-2.5-96-32zm256 15.2l7.6-2.5-5.1-15.2-7.6 2.5-96 32-7.6 2.5 5.1 15.2 7.6-2.5 96-32z"/></svg>