<svg xmlns="http://www.w3.org/2000/svg" viewBox="0 0 448 512"><!--! Font Awesome Pro 7.1.0 by @fontawesome - https://fontawesome.com License - https://fontawesome.com/license (Commercial License) Copyright 2025 Fonticons, Inc. --><path opacity=".4" fill="currentColor" d="M26.7 331.9C9.2 384.4 13.9 423.9 35 445s60.5 25.8 113.1 8.3c51.6-17.2 110.8-54.5 164.7-108.4s91.3-113.2 108.4-164.7C438.8 127.6 434.1 88.1 413 67s-60.5-25.8-113.1-8.3c-.7 .2-1.5 .5-2.2 .7 15.3 .8 32.9 5.7 47.4 20.3 20 20 21.8 45.9 19.8 63.4-2 18.1-8.8 36.3-17 52.8-16.6 33.6-44.5 70.7-78.9 105.1S197.6 363.3 164 379.9c-16.6 8.2-34.7 14.9-52.8 17-17.5 2-43.4 .2-63.4-19.8-14.5-14.6-19.4-32.2-20.3-47.5-.3 .7-.5 1.5-.7 2.2zm17.1-16.4c-1.7 15.2 .1 35.2 15.2 50.3s35.1 16.9 50.3 15.2c15.5-1.8 31.8-7.7 47.5-15.4 31.6-15.7 67.4-42.4 100.9-75.9s60.2-69.2 75.8-100.9c7.8-15.7 13.7-32 15.4-47.5 1.7-15.2-.1-35.2-15.2-50.3s-35.1-16.9-50.3-15.2c-15.5 1.8-31.8 7.7-47.5 15.4-25.7 12.7-54 32.7-81.7 57.6-12.8 11.6-25.8 24.6-37.4 37.4-25 27.7-44.9 56.1-57.7 81.8-7.8 15.7-13.7 32-15.4 47.5z"/><path fill="currentColor" d="M413 67c21.1 21.1 25.8 60.5 8.3 113.1-17.2 51.6-54.5 110.8-108.4 164.7S199.7 436.1 148.1 453.3C95.6 470.8 56.1 466.1 35 445S9.2 384.4 26.7 331.9c.2-.7 .5-1.5 .7-2.2 .8 15.3 5.7 32.9 20.3 47.5 20 20 45.9 21.8 63.4 19.8 18.1-2 36.3-8.8 52.8-17 33.6-16.6 70.7-44.5 105.1-78.9s62.2-71.5 78.9-105.1c8.2-16.6 14.9-34.7 17-52.8 2-17.5 .2-43.4-19.8-63.4-14.5-14.5-32.2-19.4-47.4-20.3 .7-.3 1.5-.5 2.2-.7 52.6-17.5 92.1-12.8 113.1 8.3zM105.1 175.5C8.3 282-28.4 404.2 23.7 456.3 79 511.6 213.5 466.8 324.2 356.2S479.6 111 424.3 55.7C372.2 3.6 250 40.3 143.6 137 130.3 149 117 162.3 105.1 175.5zm11.9 10.7c11.6-12.8 24.5-25.7 37.4-37.4 27.7-24.9 56-44.9 81.7-57.6 15.7-7.8 32-13.7 47.5-15.4 15.2-1.7 35.2 .1 50.3 15.2s16.9 35.1 15.2 50.3c-1.8 15.5-7.7 31.8-15.4 47.5-15.7 31.6-42.4 67.4-75.8 100.9s-69.2 60.2-100.9 75.9c-15.7 7.8-32 13.7-47.5 15.4-15.2 1.7-35.2-.1-50.3-15.2s-16.9-35.1-15.2-50.3c1.8-15.5 7.7-31.8 15.4-47.5 12.7-25.7 32.7-54.1 57.7-81.8z"/></svg>