<svg xmlns="http://www.w3.org/2000/svg" viewBox="0 0 512 512"><!--! Font Awesome Pro 7.1.0 by @fontawesome - https://fontawesome.com License - https://fontawesome.com/license (Commercial License) Copyright 2025 Fonticons, Inc. --><path opacity=".4" fill="currentColor" d="M16 48l0 384 480 0 0-336-213.3 0c-2.5-1.9-6-4.5-10.7-8L267.2 88 253.9 74.4 218.7 48 16 48zM80 208l96 0 0 96-96 0 0-96zm128 0l96 0 0 96-96 0 0-96zm128 0l96 0 0 96-96 0 0-96z"/><path fill="currentColor" d="M224 32l64 48 224 0 0 368-512 0 0-416 224 0zm64 64l-5.3 0-4.3-3.2-59.7-44.8-202.7 0 0 384 480 0 0-336-208 0zM96 224l0 64 64 0 0-64-64 0zM80 208l96 0 0 96-96 0 0-96zm208 16l-64 0 0 64 64 0 0-64zm-64-16l80 0 0 96-96 0 0-96 16 0zm128 16l0 64 64 0 0-64-64 0zm-16-16l96 0 0 96-96 0 0-96z"/></svg>