<svg xmlns="http://www.w3.org/2000/svg" viewBox="0 0 512 512"><!--! Font Awesome Pro 7.1.0 by @fontawesome - https://fontawesome.com License - https://fontawesome.com/license (Commercial License) Copyright 2025 Fonticons, Inc. --><path opacity=".4" fill="currentColor" d="M16 48l0 384 480 0 0-336-213.3 0c-2.5-1.9-6-4.5-10.7-8L267.2 88 253.9 74.4 218.7 48 16 48zM160 232l56 0 0-56 80 0 0 56 56 0 0 80-56 0 0 56-80 0 0-56-56 0 0-80z"/><path fill="currentColor" d="M224 32l64 48 224 0 0 368-512 0 0-416 224 0zm64 64l-5.3 0-4.3-3.2-59.7-44.8-202.7 0 0 384 480 0 0-336-208 0zm-64 80l72 0 0 56 56 0 0 80-56 0 0 56-80 0 0-56-56 0 0-80 56 0 0-56 8 0zm8 64l0 8-56 0 0 48 56 0 0 56 48 0 0-56 56 0 0-48-56 0 0-56-48 0 0 48z"/></svg>