<svg xmlns="http://www.w3.org/2000/svg" viewBox="0 0 512 512"><!--! Font Awesome Pro 7.0.1 by @fontawesome - https://fontawesome.com License - https://fontawesome.com/license (Commercial License) Copyright 2025 Fonticons, Inc. --><path style="fill:var(--fa-secondary-color,currentColor);opacity:var(--fa-secondary-opacity,.4)" d="M16 48l0 384 480 0 0-336-213.3 0c-2.5-1.9-6-4.5-10.7-8L267.2 88 253.9 74.4 218.7 48 16 48zM160 256l192 0 0 16-192 0 0-16z"/><path style="fill:var(--fa-primary-color,currentColor);opacity:var(--fa-primary-opacity,1)" d="M224 32l64 48 224 0 0 368-512 0 0-416 224 0zm64 64l-5.3 0-4.3-3.2-59.7-44.8-202.7 0 0 384 480 0 0-336-208 0zM160 272l0-16 192 0 0 16-192 0z"/></svg>