<svg xmlns="http://www.w3.org/2000/svg" viewBox="0 0 512 512"><!--! Font Awesome Pro 7.1.0 by @fontawesome - https://fontawesome.com License - https://fontawesome.com/license (Commercial License) Copyright 2025 Fonticons, Inc. --><path opacity=".4" fill="currentColor" d="M22 208L256 456.7 490 208 22 208zm7.2-16l209.6 0-119.8-141-89.7 141zM137.3 48L256 187.6 374.7 48 137.3 48zm136 144l209.6 0-89.7-141-119.8 141z"/><path fill="currentColor" d="M267 468.3L256 480 245 468.3 0 208 112 32 400 32 512 208 267 468.3zM490 208L22 208 256 456.7 490 208zm-7.2-16l-89.7-141-119.8 141 209.6 0zM374.7 48L137.3 48 256 187.6 374.7 48zM118.9 51L29.1 192 238.7 192 118.9 51z"/></svg>