<svg xmlns="http://www.w3.org/2000/svg" viewBox="0 0 448 512"><!--! Font Awesome Pro 7.0.1 by @fontawesome - https://fontawesome.com License - https://fontawesome.com/license (Commercial License) Copyright 2025 Fonticons, Inc. --><path style="fill:var(--fa-secondary-color,currentColor);opacity:var(--fa-secondary-opacity,.4)" d="M16 128l0 80 80 0 0-80-80 0zm0 256l0 80 80 0 0-80-80 0zM184 128l0 80 80 0 0-80-80 0zm0 256l0 80 80 0 0-80-80 0zM352 128l0 80 80 0 0-80-80 0zm0 256l0 80 80 0 0-80-80 0z"/><path style="fill:var(--fa-primary-color,currentColor);opacity:var(--fa-primary-opacity,1)" d="M8 32l-8 0 0 16 448 0 0-16-440 0zM8 288l-8 0 0 16 448 0 0-16-440 0zM96 128l0 80-80 0 0-80 80 0zM16 112l-16 0 0 112 112 0 0-112-96 0zM96 384l0 80-80 0 0-80 80 0zM16 368l-16 0 0 112 112 0 0-112-96 0zm248 16l0 80-80 0 0-80 80 0zm-80-16l-16 0 0 112 112 0 0-112-96 0zm168 16l80 0 0 80-80 0 0-80zm-16-16l0 112 112 0 0-112-112 0zM184 128l80 0 0 80-80 0 0-80zm-16-16l0 112 112 0 0-112-112 0zm264 16l0 80-80 0 0-80 80 0zm-80-16l-16 0 0 112 112 0 0-112-96 0z"/></svg>