<svg xmlns="http://www.w3.org/2000/svg" viewBox="0 0 512 512"><!--! Font Awesome Pro 7.1.0 by @fontawesome - https://fontawesome.com License - https://fontawesome.com/license (Commercial License) Copyright 2025 Fonticons, Inc. --><path opacity=".4" fill="currentColor" d="M27.3 272l36.7 36.7 5.7 5.7 48 48 5.7 5.7-11.3 11.3-5.7-5.7-42.3-42.3-36.7 36.7c70.7 70.7 43.7 43.7 84 84 28.2 28.2 66.5 44 106.3 44 83.1 0 150.4-67.3 150.4-150.4l0-169.6-48 0 0 104-13.7 5.7-146.3-146.3-36.7 36.7 90.3 90.3 5.7 5.7-11.3 11.3-5.7-5.7c-32-32-64-64-96-96-1.3-1.3-10-10-26.3-26.3L43.3 192c21 21 39.2 39.2 122.3 122.3l5.7 5.7-11.3 11.3-5.7-5.7-90.3-90.3-36.7 36.7zM372.8 493.6C442.9 480.7 496 419.4 496 345.6l0-169.6-48 0 0 112-16 0 0 57.6c0 57.4-22.5 109.5-59.2 147.9z"/><path fill="currentColor" d="M328 8l0-8-16 0 0 88 16 0 0-80zM225.9 20.8l-13 9.3 4.6 6.5 40 56 4.6 6.5 13-9.3-4.7-6.5-40-56-4.6-6.5zm188.3 0l-4.6 6.5-40 56-4.6 6.5 13 9.3 4.6-6.5 40-56 4.7-6.5-13-9.3zM165.7 122.3l-5.7-5.7-5.7 5.7-42.3 42.3c-21-21-31.7-31.7-32-32l-5.7 5.7-48 48-5.7 5.7 32 32-42.3 42.3-5.7 5.7 5.7 5.7 42.3 42.3-42.3 42.3-5.7 5.7 5.7 5.7 32 32 0 0c22.4 22.4 26.1 26.1 57.6 57.6 29.3 29.3 68.4 46.6 109.7 48.5l0 .2 8 0C309.5 512 384 437.5 384 345.6l0-185.6-80 0 0 100.7-138.3-138.3zM64 212.7L43.3 192 80 155.3c21 21 39.2 39.2 122.3 122.3l0 0 5.7 5.7 11.3-11.3-5.7-5.7-90.3-90.3 36.7-36.7 146.3 146.3 13.7-5.7 0-104 48 0 0 169.6c0 83.1-67.3 150.4-150.4 150.4-39.9 0-78.1-15.8-106.3-44l-36-36c-3.3-3.3-34.8-34.8-48-48l36.7-36.7 42.3 42.3 5.7 5.7 11.3-11.3-5.7-5.7-48-48-5.7-5.7-36.7-36.7 36.7-36.7 90.3 90.3 5.7 5.7 11.3-11.3-5.7-5.7-96-96-5.7-5.7zM512 345.6l0-185.6-80 0 0 128 16 0 0-112 48 0 0 169.6c0 73.8-53.1 135.2-123.2 147.9-6.2 6.5-12.8 12.6-19.8 18.3 88.5-3.9 159-76.8 159-166.2z"/></svg>