<svg xmlns="http://www.w3.org/2000/svg" viewBox="0 0 576 512"><!--! Font Awesome Pro 7.1.0 by @fontawesome - https://fontawesome.com License - https://fontawesome.com/license (Commercial License) Copyright 2025 Fonticons, Inc. --><path opacity=".4" fill="currentColor" d="M48 288l0 96 160 0 0-298.7C113.9 106.4 48 189 48 288zM148.4 90.5c18.4-10.1 38.5-17.5 59.6-21.9-21.3 4.7-41.3 12.1-59.6 21.9zM224 48l0 336 128 0 0-336-128 0zM368 85.3l0 298.7 160 0 0-95.9c-1.1-98.2-66.3-181.4-160-202.7z"/><path fill="currentColor" d="M352 48l0 336-128 0 0-336 128 0zm16 336l0-298.7c93.7 21.4 158.9 104.5 160 202.7l0 95.9-160 0zm176 0l0-96C542.9 181.3 471 90.7 368 68.9l0-36.9-160 0 0 36.9C104.7 90.4 32 180.3 32 288l0 96-32 0 0 96 576 0 0-96-32 0zM48 384l0-96c0-99 65.9-181.6 160-202.7l0 298.7-160 0zM32 400l528 0 0 64-544 0 0-64 16 0z"/></svg>