<svg xmlns="http://www.w3.org/2000/svg" viewBox="0 0 576 512"><!--! Font Awesome Pro 7.1.0 by @fontawesome - https://fontawesome.com License - https://fontawesome.com/license (Commercial License) Copyright 2025 Fonticons, Inc. --><path opacity=".4" fill="currentColor" d="M31.9 256.1c42.7 74.7 85.5 149.4 128.2 224.1l256.6 0 128.2-224.1c-42.7-74.7-85.5-149.4-128.2-224.1-85.5 0-171 0-256.6 0-42.8 74.7-85.5 149.4-128.2 224.1zM189.2 168l11.3-11.3 5.7 5.7 82.3 82.3 82.3-82.3 5.7-5.7 11.3 11.3-5.7 5.7-82.3 82.3 88 88-11.3 11.3-5.7-5.7-82.3-82.3-82.3 82.3-5.7 5.7-11.3-11.3 5.7-5.7 82.3-82.3-82.3-82.3-5.7-5.7z"/><path fill="currentColor" d="M150.9 496.1L13.5 256.1 150.9 16 426 16 563.4 256.1 426 496.1 150.9 496.1zM31.9 256.1L160.2 480.1 416.8 480.1 545 256.1 416.8 32 160.2 32 31.9 256.1zm168.5-99.4l5.7 5.7 82.3 82.3 82.3-82.3 5.7-5.7 11.3 11.3-5.7 5.7-82.3 82.3 88 88-11.3 11.3-5.7-5.7-82.3-82.3-82.3 82.3-5.7 5.7-11.3-11.3 5.7-5.7 82.3-82.3-82.3-82.3-5.7-5.7 11.3-11.3z"/></svg>