<svg xmlns="http://www.w3.org/2000/svg" viewBox="0 0 576 512"><!--! Font Awesome Pro 7.1.0 by @fontawesome - https://fontawesome.com License - https://fontawesome.com/license (Commercial License) Copyright 2025 Fonticons, Inc. --><path opacity=".4" fill="currentColor" d="M16 483.3l52.4-52.4c14.9 14.9 29.8 29.8 44.7 44.7L92.7 496 16 496 16 483.3zM203.9 192.6l258-172 61.4 61.4-172 258-147.5-147.5z"/><path fill="currentColor" d="M231.4 416l88.6 0 224-336-80-80-336 224 0 88.6-52.7 52.7-11.3 11.3 11.3 11.3 80.8 80.8 11.3 11.3c.6-.6 22-22 64-64zm-64 41.4l-80.8-80.8 52.7-52.7 4.7-4.7 0-86.7 46.4-30.9 152 152-30.9 46.4-86.7 0-4.7 4.7-52.7 52.7zm36.5-264.8l258-172 61.4 61.4-172 258-147.5-147.5zM2.3 474.3l-2.3 2.3 0 35.3 99.3 0 2.3-2.3 22.7-22.7-11.3-11.3-20.4 20.4-76.7 0 0-12.7 52.4-52.4-11.3-11.3-54.7 54.7z"/></svg>