<svg xmlns="http://www.w3.org/2000/svg" viewBox="0 0 640 512"><!--! Font Awesome Pro 7.0.1 by @fontawesome - https://fontawesome.com License - https://fontawesome.com/license (Commercial License) Copyright 2025 Fonticons, Inc. --><path style="fill:var(--fa-secondary-color,currentColor);opacity:var(--fa-secondary-opacity,.4)" d="M80 352l0 144 80 0 0-144-80 0zm96 0l0 144 146.6 0 56.7-144-203.3 0zm288 80l0 64 160 0 0-64-160 0z"/><path style="fill:var(--fa-primary-color,currentColor);opacity:var(--fa-primary-opacity,1)" d="M546.4-28.5l-2.9 7.4-208 528-2 5.1-269.4 0 0-176 321.6 0 143-362.9 2.9-7.4 14.9 5.9zM640 512l-192 0 0-96 192 0 0 96zM80 496l80 0 0-144-80 0 0 144zm96 0l146.6 0 56.7-144-203.3 0 0 144zm288 0l160 0 0-64-160 0 0 64z"/></svg>