<svg xmlns="http://www.w3.org/2000/svg" viewBox="0 0 576 512"><!--! Font Awesome Pro 7.1.0 by @fontawesome - https://fontawesome.com License - https://fontawesome.com/license (Commercial License) Copyright 2025 Fonticons, Inc. --><path opacity=".4" fill="currentColor" d="M80 16L80 140 224 246.1 368 140 368 16 80 16zm0 356l0 124 185.7 0c-16.3-28.2-25.7-61-25.7-96 0-37.1 10.5-71.7 28.7-101.1L224 265.9 80 372z"/><path fill="currentColor" d="M40 0l-8 0 0 16 32 0 0 132 3.3 2.4 143.3 105.6-143.3 105.6-3.3 2.4 0 132-32 0 0 16 244 0c-3.7-5.1-7.2-10.5-10.3-16l-185.7 0 0-124 144-106.1 44.7 33c2.8-4.5 5.8-9 9-13.2l-40.3-29.7 143.3-105.6 3.3-2.4 0-132 32 0 0-16-376 0zM368 16L368 140 224 246.1 80 140 80 16 368 16zm64 256a128 128 0 1 1 0 256 128 128 0 1 1 0-256zm0 272a144 144 0 1 0 0-288 144 144 0 1 0 0 288zm8-224l-16 0 0 88 72 0 0-16-56 0 0-72z"/></svg>