<svg xmlns="http://www.w3.org/2000/svg" viewBox="0 0 640 512"><!--! Font Awesome Pro 7.1.0 by @fontawesome - https://fontawesome.com License - https://fontawesome.com/license (Commercial License) Copyright 2025 Fonticons, Inc. --><path opacity=".4" fill="currentColor" d="M80 48l416 0 0 128c-58.7 0-111.2 26.3-146.4 67.8-15.7-27.5-25.6-44.8-29.6-51.8-1.8 2.9-17.7 27.5-47.5 73.9l-8.9 13.8-11.6-11.6-.6-.6-11.5-11.5-9.3 13.3-91.5 130.7-11.2 16 182 0c4.4 17 11 33.1 19.6 48L80 464 80 48zm64 112a48 48 0 1 0 96 0 48 48 0 1 0 -96 0z"/><path fill="currentColor" d="M496 48l-416 0 0 416 249.7 0c3.2 5.5 6.6 10.9 10.3 16l-276 0 0-448 448 0 0 144.7c-5.3-.4-10.6-.7-16-.7l0-128zM329 207.7l20.6 36.1c-3.7 4.4-7.3 9-10.6 13.7l-19.8-34.6c-33.3 51.8-50.9 79.2-52.8 82.2-10-10-18.1-18.1-24.2-24.2L158.7 400 306.7 400c.9 5.4 2 10.7 3.4 16l-182 0 11.2-16 91.5-130.7 9.3-13.3 11.5 11.5 .6 .6 11.6 11.6c1.1-1.7 16.6-25.9 46.6-72.5l9.8-15.2 9 15.7zM192 192a32 32 0 1 0 0-64 32 32 0 1 0 0 64zm0-80a48 48 0 1 1 0 96 48 48 0 1 1 0-96zM624 368a128 128 0 1 0 -256 0 128 128 0 1 0 256 0zm-272 0a144 144 0 1 1 288 0 144 144 0 1 1 -288 0zm152-64l0 56 64 0 0 16-64 0 0 64-16 0 0-64-64 0 0-16 64 0 0-64 16 0 0 8z"/></svg>