<svg xmlns="http://www.w3.org/2000/svg" viewBox="0 0 512 512"><!--! Font Awesome Pro 7.1.0 by @fontawesome - https://fontawesome.com License - https://fontawesome.com/license (Commercial License) Copyright 2025 Fonticons, Inc. --><path opacity=".4" fill="currentColor" d="M172.4 256l163.6 154.8 0-106.8 160 0 0-96-160 0 0-106.8-163.6 154.8z"/><path fill="currentColor" d="M352 320l0 128-16-15.1-175.2-165.8-11.6-11 11.6-11 175.2-165.8 16-15.1 0 128 160 0 0 128-160 0zm-16 0l0-16 160 0 0-96-160 0 0-106.8-163.6 154.8 163.6 154.8 0-90.8zM184 464l8 0 0 16-184 0c-4.4 0-8-3.6-8-8L0 40c0-4.4 3.6-8 8-8l184 0 0 16-176 0 0 416 168 0z"/></svg>