<svg xmlns="http://www.w3.org/2000/svg" viewBox="0 0 512 512"><!--! Font Awesome Pro 7.0.1 by @fontawesome - https://fontawesome.com License - https://fontawesome.com/license (Commercial License) Copyright 2025 Fonticons, Inc. --><path style="fill:var(--fa-secondary-color,currentColor);opacity:var(--fa-secondary-opacity,.4)" d="M136 80c16-16 32-32 48-48l248 0c0 32 0 64 0 96l-248 0c-16-16-32-32-48-48zm0 176c16-16 32-32 48-48l312 0c0 32 0 64 0 96l-312 0-48-48zm0 176c16-16 32-32 48-48l248 0c0 32 0 64 0 96l-248 0c-16-16-32-32-48-48z"/><path style="fill:var(--fa-primary-color,currentColor);opacity:var(--fa-primary-opacity,1)" d="M136 80l48-48 248 0 0 96-248 0-48-48zm41.4-64l-64 64 64 64 270.6 0 0-128-270.6 0zM136 256l48-48 312 0 0 96-312 0-48-48zm-11.3 11.3l52.7 52.7 334.6 0 0-128-334.6 0-64 64 11.3 11.3zM136 432l48-48 248 0 0 96-248 0-48-48zm-11.3 11.3l52.7 52.7 270.6 0 0-128-270.6 0-52.7 52.7-11.3 11.3 11.3 11.3zM32 64a16 16 0 1 0 0 32 16 16 0 1 0 0-32zm0 176a16 16 0 1 0 0 32 16 16 0 1 0 0-32zM48 432a16 16 0 1 0 -32 0 16 16 0 1 0 32 0z"/></svg>