<svg xmlns="http://www.w3.org/2000/svg" viewBox="0 0 384 512"><!--! Font Awesome Pro 7.0.0 by @fontawesome - https://fontawesome.com License - https://fontawesome.com/license (Commercial License) Copyright 2025 Fonticons, Inc. --><path style="fill:var(--fa-secondary-color,currentColor);opacity:var(--fa-secondary-opacity,.4)" d="M16 188.6c0 34.5 11 72.2 28.5 110 1.1 2.3 2.1 4.6 3.2 6.9 16.1 28.5 35.3 57.3 54.7 83.9 23.9 32.8 47.7 62.1 65.6 83.3 9 10.6 16.4 19.1 21.6 25 .8 .9 1.6 1.8 2.3 2.5 .7-.8 1.5-1.6 2.3-2.5 5.2-5.9 12.7-14.4 21.6-25 17.9-21.1 41.8-50.5 65.6-83.3 19.4-26.6 38.6-55.4 54.7-83.9 1.1-2.3 2.2-4.6 3.3-6.9 17.5-37.8 28.5-75.4 28.5-110 0-95-78.5-172.6-176-172.6S16 93.5 16 188.6z"/><path style="fill:var(--fa-primary-color,currentColor);opacity:var(--fa-primary-opacity,1)" d="M192 16c97.5 0 176 77.5 176 172.6 0 34.5-11 72.2-28.5 110-34.7 75.1-94 147.6-129.4 187-7.1 7.9-13.3 14.5-18.1 19.6-4.8-5.1-11-11.7-18.1-19.6-17.7-19.7-41.4-47.6-65-80-23.6-32.5-47-69.3-64.4-106.9-17.5-37.8-28.5-75.4-28.5-110 0-95 78.5-172.6 176-172.6zm11.2 500.6C244.2 473.5 384 317.3 384 188.6 384 84.4 298 0 192 0S0 84.4 0 188.6c0 128.7 139.8 284.9 180.8 328 1.1 1.1 2 2.1 3 3.1 5.2 5.4 8.2 8.4 8.2 8.4s3-2.9 8.2-8.4c.9-1 1.9-2 3-3.1z"/></svg>