<svg xmlns="http://www.w3.org/2000/svg" viewBox="0 0 640 512"><!--! Font Awesome Pro 7.1.0 by @fontawesome - https://fontawesome.com License - https://fontawesome.com/license (Commercial License) Copyright 2025 Fonticons, Inc. --><path opacity=".4" fill="currentColor" d="M16 240l288 0 0 63.3-128 79.3-160-99.1 0-43.5zm0 62.4l155.8 96.4 4.2 2.6 4.2-2.6 123.8-76.7 0 141.8-288 0 0-161.6zM296 80l104 0 0-16 48 0 0 176 16 0 0-80 96 0 0-74.6c18.7 10.8 35.1 25.4 48 42.6l0 30c10.2 19.8 16 42.2 16 66l0 234.3c-1.8 2-3.7 3.9-5.7 5.7l-250.3 0 0-264c0-52-29.1-97.1-72-120zm312 48c10 13.3 18 28.3 23.5 44.5-5.5-16.1-13.5-31.1-23.5-44.5z"/><path fill="currentColor" d="M304 240l-288 0 0 43.5 160 99.1 128-79.3 0 18.8-123.8 76.7-4.2 2.6-4.2-2.6-155.8-96.4 0 161.6 288 0 0 16-304 0 0-256 304 0 0 16zM400 80L296 80c42.8 22.9 72 68 72 120l0 264 256 0 0-240c0-23.8-5.8-46.2-16-66l0-30c20.1 26.7 32 60 32 96l0 256-288 0 0-280c0-66.3-53.7-120-120-120-58.1 0-106.5 41.2-117.6 96l-16.3 0C109.5 112.3 165.1 64 232 64l168 0 0 16zm160 80l-96 0 0 80-16 0 0-176 112 0 0 96zm-96-16l80 0 0-64-80 0 0 64z"/></svg>