<svg xmlns="http://www.w3.org/2000/svg" viewBox="0 0 512 512"><!--! Font Awesome Pro 7.1.0 by @fontawesome - https://fontawesome.com License - https://fontawesome.com/license (Commercial License) Copyright 2025 Fonticons, Inc. --><path opacity=".4" fill="currentColor" d="M80.5 320a176 176 0 1 0 352 0 176 176 0 1 0 -352 0zm57.9-32.5c2.4-.4 29.6-4.3 81.6-11.9 23.2-47.1 35.4-71.8 36.5-74 1.1 2.2 13.3 26.9 36.5 74 52 7.6 79.2 11.5 81.6 11.9-1.8 1.7-21.4 20.9-59.1 57.6 8.9 51.8 13.5 78.9 13.9 81.3-2.2-1.1-26.5-13.9-73-38.4-46.5 24.4-70.8 37.2-73 38.4 .4-2.4 5.1-29.5 13.9-81.3-37.6-36.7-57.3-55.9-59.1-57.6z"/><path fill="currentColor" d="M239.1 128.8L157.2-21.4 43.5 35.4 123.3 181.7c30.6-29.5 71-48.9 115.8-53zM167.5-35.8l89 163.1 89-163.1 3.7-6.8 6.9 3.5 128 64 7.4 3.7-4 7.3-86.2 158.1c29.4 33.7 47.2 77.8 47.2 126.1 0 106-86 192-192 192s-192-86-192-192c0-48.3 17.8-92.4 47.2-126.1l-86.2-158.1-4-7.3 7.4-3.7 128-64 6.9-3.5 3.7 6.8zm302 71.3L355.8-21.4 273.9 128.8c44.8 4 85.2 23.5 115.8 53L469.5 35.4zM432.5 320a176 176 0 1 0 -352 0 176 176 0 1 0 352 0zM263.7 216.2L293 275.7c52 7.6 79.2 11.5 81.6 11.9-1.8 1.7-21.4 20.9-59.1 57.6 8.9 51.8 13.5 78.9 13.9 81.3-2.2-1.1-26.5-13.9-73-38.4-46.5 24.4-70.8 37.2-73 38.4 .4-2.4 5.1-29.5 13.9-81.3-37.6-36.7-57.3-55.9-59.1-57.6 2.4-.4 29.6-4.3 81.6-11.9 23.2-47.1 35.4-71.8 36.5-74l7.2 14.5zm-31.2 70.3l-1.9 3.8-4.2 .6-53.7 7.8 38.9 37.9 3 2.9-.7 4.1-9.2 53.5 48-25.3 3.7-2 3.7 2 48 25.3-9.2-53.5-.7-4.1 3-2.9 38.9-37.9-53.7-7.8-4.2-.6-1.9-3.8-24-48.7-24 48.7z"/></svg>