<svg xmlns="http://www.w3.org/2000/svg" viewBox="0 0 384 512"><!--! Font Awesome Pro 7.0.1 by @fontawesome - https://fontawesome.com License - https://fontawesome.com/license (Commercial License) Copyright 2025 Fonticons, Inc. --><path style="fill:var(--fa-secondary-color,currentColor);opacity:var(--fa-secondary-opacity,.4)" d="M16 16l352 0 0 480-352 0 0-480zM96 128l0 16 192 0 0-16-192 0zm0 96l0 16 192 0 0-16-192 0zm0 96l0 16 128 0 0-16-128 0z"/><path style="fill:var(--fa-primary-color,currentColor);opacity:var(--fa-primary-opacity,1)" d="M16 16l0 480 352 0 0-480-352 0zM0 0L384 0 384 512 0 512 0 0zM104 128l184 0 0 16-192 0 0-16 8 0zm0 96l184 0 0 16-192 0 0-16 8 0zm0 96l120 0 0 16-128 0 0-16 8 0z"/></svg>