<svg xmlns="http://www.w3.org/2000/svg" viewBox="0 0 512 512"><!--! Font Awesome Pro 7.0.1 by @fontawesome - https://fontawesome.com License - https://fontawesome.com/license (Commercial License) Copyright 2025 Fonticons, Inc. --><path style="fill:var(--fa-secondary-color,currentColor);opacity:var(--fa-secondary-opacity,.4)" d="M112 80l0 128 384 0 0-128-384 0zm0 224l0 128 256 0 0-128-256 0z"/><path style="fill:var(--fa-primary-color,currentColor);opacity:var(--fa-primary-opacity,1)" d="M0 512L0 0 16 0 16 512 0 512zM112 208l384 0 0-128-384 0 0 128zM96 80l0-16 416 0 0 160-416 0 0-144zm16 352l256 0 0-128-256 0 0 128zM96 304l0-16 288 0 0 160-288 0 0-144z"/></svg>