<svg xmlns="http://www.w3.org/2000/svg" viewBox="0 0 512 512"><!--! Font Awesome Pro 7.1.0 by @fontawesome - https://fontawesome.com License - https://fontawesome.com/license (Commercial License) Copyright 2025 Fonticons, Inc. --><path opacity=".4" fill="currentColor" d="M16 166.6L16 345.4 166.6 496 345.4 496 496 345.4 496 166.6 345.4 16 166.6 16 16 166.6zM144 248l224 0 0 16-224 0 0-16zm80-120l64 0 0 64-64 0 0-64zm0 192l64 0 0 64-64 0 0-64z"/><path fill="currentColor" d="M16 345.4L16 166.6 166.6 16 345.4 16 496 166.6 496 345.4 345.4 496 166.6 496 16 345.4zM160 0L0 160 0 352 160 512 352 512 512 352 512 160 352 0 160 0zm80 144l32 0 0 32-32 0 0-32zm-16-16l0 64 64 0 0-64-64 0zM152 248l-8 0 0 16 224 0 0-16-216 0zm120 88l0 32-32 0 0-32 32 0zm-32-16l-16 0 0 64 64 0 0-64-48 0z"/></svg>