<svg xmlns="http://www.w3.org/2000/svg" viewBox="0 0 384 512"><!--! Font Awesome Pro 7.0.1 by @fontawesome - https://fontawesome.com License - https://fontawesome.com/license (Commercial License) Copyright 2025 Fonticons, Inc. --><path style="fill:var(--fa-secondary-color,currentColor);opacity:var(--fa-secondary-opacity,.4)" d="M40.3 112c0 53 43 96 96 96l72 0 0-192-72 0c-53 0-96 43-96 96z"/><path style="fill:var(--fa-primary-color,currentColor);opacity:var(--fa-primary-opacity,1)" d="M24.3 112c0-61.9 50.1-112 112-112l248 0 0 16-64 0 0 336-16 0 0-336-80 0 0 336-16 0 0-128-72 0c-61.9 0-112-50.1-112-112zm184 96l0-192-72 0c-53 0-96 43-96 96s43 96 96 96l72 0zM107.6 360l-5.7 5.7-74.3 74.3 356.7 0 0 16-356.7 0 74.3 74.3 5.7 5.7-11.3 11.3-5.7-5.7-88-88-5.7-5.7 5.7-5.7 88-88 5.7-5.7 11.3 11.3z"/></svg>