<svg xmlns="http://www.w3.org/2000/svg" viewBox="0 0 576 512"><!--! Font Awesome Pro 7.1.0 by @fontawesome - https://fontawesome.com License - https://fontawesome.com/license (Commercial License) Copyright 2025 Fonticons, Inc. --><path opacity=".4" fill="currentColor" d="M39.4 504.9L86.6 336.3 310 113 431.3 234.3 208 457.7 39.4 504.9z"/><path fill="currentColor" d="M21.4 510l-5 18 18-5 182-51 332.7-332.7 11.3-11.3-11.3-11.3-121.4-121.4-11.3-11.3-11.3 11.3-332.7 332.7-51 182zm18-5L86.6 336.3 310 113 431.3 234.3 208 457.7 39.4 504.9zM537.7 128l-95 95-121.4-121.4 95-95 121.4 121.4zM208 124.4L86 2.3 80.3-3.3 74.7 2.3 2.7 74.3-3 80 2.7 85.7 124.7 207.7 136 196.4 19.6 80 80.3 19.3 196.7 135.7 208 124.4zM454.3 301.9l-11.9 11.9c31.9 15.6 53.8 48.4 53.8 86.3l0 64 64 0 0 32-160 0c-37.9 0-70.7-22-86.3-53.8L302.2 454c19.1 34.6 55.9 58 98.1 58l176 0 0-64-64 0 0-48c0-42.3-23.4-79.1-58-98.1z"/></svg>