<svg xmlns="http://www.w3.org/2000/svg" viewBox="0 0 512 512"><!--! Font Awesome Pro 7.0.1 by @fontawesome - https://fontawesome.com License - https://fontawesome.com/license (Commercial License) Copyright 2025 Fonticons, Inc. --><path style="fill:var(--fa-secondary-color,currentColor);opacity:var(--fa-secondary-opacity,.4)" d="M16 73.9L16 80c0 229.7 186.3 416 416 416l6.1 0 52.7-105.5-120-66.7-58.5 59.2-8 8.1-10.3-4.9c-73.8-35.1-133.3-94.5-168.3-168.3l-4.9-10.3 8.1-8 59.2-58.5-66.7-120-105.4 52.7z"/><path style="fill:var(--fa-primary-color,currentColor);opacity:var(--fa-primary-opacity,1)" d="M140.2 211L208 144 128 0 0 64 0 80C0 318.6 193.4 512 432 512l16 0 64-128-144-80-67 67.8C230.5 338.3 173.7 281.5 140.2 211zM370.8 323.9l120 66.7-52.7 105.5-6.1 0C202.3 496 16 309.8 16 80l0-6.1 105.4-52.7 66.7 120-59.2 58.5-8.1 8 4.9 10.3c35.1 73.8 94.5 133.3 168.3 168.3l10.3 4.9 8-8.1 58.5-59.2z"/></svg>