<svg xmlns="http://www.w3.org/2000/svg" viewBox="0 0 448 512"><!--! Font Awesome Pro 7.0.1 by @fontawesome - https://fontawesome.com License - https://fontawesome.com/license (Commercial License) Copyright 2025 Fonticons, Inc. --><path style="fill:var(--fa-secondary-color,currentColor);opacity:var(--fa-secondary-opacity,.4)" d=""/><path style="fill:var(--fa-primary-color,currentColor);opacity:var(--fa-primary-opacity,1)" d="M8 0l-8 0 0 320 16 0 0-96 132.7 0 128 128-146.3 146.3 11.3 11.3 146.3-146.3 146.3 146.3 11.3-11.3-146.3-146.3 146.3-146.3-11.3-11.3-146.3 146.3-116.7-116.7 4.7 0c59.2 0 107.6-45.9 111.7-104l.3 0 0-8C288 50.1 237.9 0 176 0L8 0zM176 208l-160 0 0-192 160 0c53 0 96 43 96 96s-43 96-96 96z"/></svg>