<svg xmlns="http://www.w3.org/2000/svg" viewBox="0 0 512 512"><!--! Font Awesome Pro 7.1.0 by @fontawesome - https://fontawesome.com License - https://fontawesome.com/license (Commercial License) Copyright 2025 Fonticons, Inc. --><path opacity=".4" fill="currentColor" d="M224.2 256a31.8 31.8 0 1 0 63.6 0 31.8 31.8 0 1 0 -63.6 0z"/><path fill="currentColor" d="M328.1 320.3l-.2 8-2.6 91.6-.1 2.5-1.5 2-59.2 80.3-4.7 6.4-12.9-9.5 4.8-6.4 57.7-78.3 2.6-89.1 .2-8 16 .4zm-66.5 32l-5.8 5.5-66.6 62.9-1.8 1.7-2.5 .4-98.6 14.9-7.9 1.2-2.4-15.8 7.9-1.2 96.1-14.6 64.8-61.2 5.8-5.5 11 11.6zM358 256.5l62.9 66.6 1.7 1.8 .4 2.5 14.9 98.6 1.2 7.9-15.8 2.4-1.2-7.9-14.6-96.1-61.2-64.8-5.5-5.8 11.6-11 5.5 5.8zm-341.1-5l78.3 57.7 89.1 2.6 8 .2-.4 16-8-.2-91.6-2.6-2.5-.1-2-1.5-80.3-59.2-6.4-4.7 9.5-12.9 6.4 4.8zM255.8 304a48 48 0 1 1 .4-96 48 48 0 1 1 -.4 96zm.4-80a32 32 0 1 0 -.4 64 32 32 0 1 0 .4-64zm72.3-39.7l91.6 2.6 2.5 .1 2 1.5 80.3 59.2 6.4 4.8-9.5 12.9-6.4-4.8-78.3-57.7-89.1-2.6-8-.2 .4-16 8 .2zM90.2 83.6l14.6 96.1 61.2 64.8 5.5 5.8-11.6 11-5.5-5.8-62.9-66.6-1.7-1.8-.4-2.5-14.9-98.6-1.2-7.9 15.8-2.4 1.2 7.9zM265.5 10.3l-4.8 6.4-57.7 78.3-2.6 89.1-.2 8-16-.4 .2-8 2.6-91.6 .1-2.5 1.5-2 59.2-80.3 4.8-6.4 12.9 9.5zm171 78.6l-7.9 1.2-96.1 14.6-64.8 61.2-5.8 5.5-11-11.6 5.8-5.5 66.6-62.9 1.8-1.7 2.5-.4 98.6-14.9 7.9-1.2 2.4 15.8z"/></svg>