<svg xmlns="http://www.w3.org/2000/svg" viewBox="0 0 640 512"><!--! Font Awesome Pro 7.1.0 by @fontawesome - https://fontawesome.com License - https://fontawesome.com/license (Commercial License) Copyright 2025 Fonticons, Inc. --><path opacity=".4" fill="currentColor" d="M321.3 199.6c-72.6 0-86.6-75.9-32.9-104.8l0-22-152.6 0 0 150.7-23.7 0c-32.6-68.5-105.6-15.3-105.6 33.7 18.9 95 97.7 67.2 105.6 30.4l23.7 0 0 152.2 150.8 0 0-24.2c-46-19.3-42.9-104.1 34.7-104.1 78.5 4.9 76.8 86.3 30.3 104.1l0 24.2 151.2 0 0-149.9 20.9 0c17.6 34.9 93.3 59.3 109-33.5-14.4-98.6-99.1-63-107.6-32.5l-22.3 0 0-151.2-150.6 0 0 19.7c56.1 35.9 37.1 102.9-30.9 107.1z"/><path fill="currentColor" d="M296 100.4c-17.2 8.7-32 22.8-32 43.6 1.7 29.1 27.8 48 56 48 26.9-1.1 56-17.9 56-48-.8-20.2-14.6-34.7-32-43.6l0-36.4 168 0 0 152 10.8 0c11.3-19 30.6-32 53.2-32 36.3 0 64 33.3 64 72s-27.7 72-64 72c-22.6 0-41.9-13-53.2-32l-10.8 0 0 152-168 0 0-36.5c17.5-8.9 31.2-23.1 32-43.5 0-25.5-24-48-56-48s-56 22.5-56 48c.8 20.4 14.5 34.6 32 43.5l0 36.5-168 0 0-152-10.8 0c-11.3 19-30.6 32-53.2 32-36.3 0-64-33.3-64-72s27.7-72 64-72c22.6 0 41.9 13 53.2 32l10.8 0 0-152 168 0 0 36.4zM144 232l-36.5 0c-8.7-17.2-22.8-32-43.5-32-25.5 0-48 24-48 56s22.5 56 48 56c20.8 0 34.8-14.8 43.5-32l36.5 0 0 152 136 0 0-10.9c-19.3-11.5-31.1-30.8-32-53.1 0-36.3 33.3-64 72-64s72 27.7 72 64c-.9 22.4-12.7 41.6-32 53.1l0 10.9 136 0 0-152 36.5 0c8.7 17.2 22.8 32 43.5 32 25.5 0 48-24 48-56s-22.5-56-48-56c-20.8 0-34.8 14.8-43.5 32l-36.5 0 0-152-136 0 0 10.8c19 11.3 32 30.6 32 53.2-2.1 38.5-34.8 62.4-72 64-37.4 0-69.9-26.1-72-64 0-22.6 13-41.9 32-53.2l0-10.8-136 0 0 152z"/></svg>