<svg xmlns="http://www.w3.org/2000/svg" viewBox="0 0 448 512"><!--! Font Awesome Pro 7.1.0 by @fontawesome - https://fontawesome.com License - https://fontawesome.com/license (Commercial License) Copyright 2025 Fonticons, Inc. --><path opacity=".4" fill="currentColor" d="M16 116.7L16 395.3 155.3 256 16 116.7zM84.7 48c46.4 46.4 92.9 92.9 139.3 139.3 46.4-46.4 92.9-92.9 139.3-139.3L84.7 48zm0 416l278.6 0c-46.4-46.4-92.9-92.9-139.3-139.3-46.4 46.4-92.9 92.9-139.3 139.3zm208-208L432 395.3 432 116.7 292.7 256z"/><path fill="currentColor" d="M46.1 32L402 32 386 48 235.3 198.6 224 209.9 212.7 198.6 62.1 48 46.1 32zM224 187.3L363.3 48 84.7 48 224 187.3zM386 464l16 16-355.9 0 16-16 150.6-150.6 11.3-11.3 11.3 11.3 150.6 150.6zM224 324.7L84.7 464 363.3 464 224 324.7zM0 433.9L0 78.1 16 94.1 166.6 244.7 178 256 166.6 267.3 16 417.9 0 433.9zM155.3 256L16 116.7 16 395.3 155.3 256zM432 94.1l16-16 0 355.9-166.6-166.6-11.3-11.3 11.3-11.3 150.6-150.6zM292.7 256L432 395.3 432 116.7 292.7 256z"/></svg>