<svg xmlns="http://www.w3.org/2000/svg" viewBox="0 0 384 512"><!--! Font Awesome Pro 7.1.0 by @fontawesome - https://fontawesome.com License - https://fontawesome.com/license (Commercial License) Copyright 2025 Fonticons, Inc. --><path opacity=".4" fill="currentColor" d="M16 16l0 160 240 0 0-80 16 0 0 80 96 0 0-160-352 0zm0 176l0 304 352 0 0-304-96 0 0 160-16 0 0-160-240 0z"/><path fill="currentColor" d="M368 16l0 160-96 0 0-80-16 0 0 80-240 0 0-160 352 0zM256 192l0 160 16 0 0-160 96 0 0 304-352 0 0-304 240 0zM0 16L0 512 384 512 384 0 0 0 0 16z"/></svg>