<svg xmlns="http://www.w3.org/2000/svg" viewBox="0 0 640 512"><!--! Font Awesome Pro 7.1.0 by @fontawesome - https://fontawesome.com License - https://fontawesome.com/license (Commercial License) Copyright 2025 Fonticons, Inc. --><path opacity=".4" fill="currentColor" d="M40.4 272l199.9-179.9 0 115.9 57.7 0c33.2 57.4 95.2 96 166.3 96 16.5 0 32.6-2.1 47.9-6 10.4 21.6 16.1 45.1 16.1 70 0 58-28.8 97.9-58.5 124-3.7 3.2-7.4 6.2-11 9 3.3-11 5.6-23.4 5.6-37 0-70.7-57.3-128-128-128l-96 0 0 115.9-199.9-179.9z"/><path fill="currentColor" d="M464.3-16a128 128 0 1 1 0 256 128 128 0 1 1 0-256zm0 272a144 144 0 1 0 0-288 144 144 0 1 0 0 288zm8-224l-16 0 0 88 72 0 0-16-56 0 0-72zm72 336c0-26.7-6-52-16.6-74.7-5.1 1.8-10.2 3.3-15.5 4.7 10.3 21.1 16.1 44.9 16.1 70 0 58-28.8 97.9-58.5 124-3.7 3.2-7.4 6.2-11 9 3.3-11 5.6-23.4 5.6-37 0-70.7-57.3-128-128-128l-96 0 0 115.9-199.9-179.9 199.9-179.9 0 115.9 57.7 0c-3-5.2-5.8-10.5-8.3-16l-33.4 0 0-135.9-16 14.4-211.9 190.7-12 10.8 12 10.8 211.9 190.7 16 14.4 0-135.9 80 0c61.9 0 112 50.1 112 112 0 21.2-6.2 39.2-13.2 52.8-8.8 17.2-18.8 27.2-18.8 27.2s13.1-4.9 30.8-15.7c37.9-23.1 97.2-73.2 97.2-160.3z"/></svg>