<svg xmlns="http://www.w3.org/2000/svg" viewBox="0 0 640 512"><!--! Font Awesome Pro 7.1.0 by @fontawesome - https://fontawesome.com License - https://fontawesome.com/license (Commercial License) Copyright 2025 Fonticons, Inc. --><path opacity=".4" fill="currentColor" d="M16 96l0 192 7.1 0 1.8-3.6 94.2-188.4-103.1 0zM200.9 288l142.1 0 1.8-3.6 94.2-188.4-142.1 0-1.8 3.6-94.2 188.4zm320 0l103.1 0 0-192-7.1 0-1.8 3.6-94.2 188.4z"/><path fill="currentColor" d="M16 40l0-8-16 0 0 448 16 0 0-176 608 0 0 176 16 0 0-448-16 0 0 48-608 0 0-40zm0 56l103.1 0-94.2 188.4-1.8 3.6-7.1 0 0-192zm608 0l0 192-103.1 0 94.2-188.4 1.8-3.6 7.1 0zM456.9 96l142.1 0-94.2 188.4-1.8 3.6-142.1 0 94.2-188.4 1.8-3.6zM279.1 96l-94.2 188.4-1.8 3.6-142.1 0 96-192 142.1 0zm17.9 0l142.1 0-94.2 188.4-1.8 3.6-142.1 0 94.2-188.4 1.8-3.6z"/></svg>