<svg xmlns="http://www.w3.org/2000/svg" viewBox="0 0 256 512"><!--! Font Awesome Pro 7.0.1 by @fontawesome - https://fontawesome.com License - https://fontawesome.com/license (Commercial License) Copyright 2025 Fonticons, Inc. --><path style="fill:var(--fa-secondary-color,currentColor);opacity:var(--fa-secondary-opacity,.4)" d="M16-16l224 0 0 80-112 0 0 16 112 0 0 80-80 0 0 16 80 0 0 72-112 0 0 16 112 0 0 72-80 0 0 16 80 0 0 80-112 0 0 16 112 0 0 80-224 0 0-544z"/><path style="fill:var(--fa-primary-color,currentColor);opacity:var(--fa-primary-opacity,1)" d="M16-16l0 544 224 0 0-80-112 0 0-16 112 0 0-80-80 0 0-16 80 0 0-72-112 0 0-16 112 0 0-72-80 0 0-16 80 0 0-80-112 0 0-16 112 0 0-80-224 0zM256 64l0 480-256 0 0-576 256 0 0 96z"/></svg>