<svg xmlns="http://www.w3.org/2000/svg" viewBox="0 0 640 512"><!--! Font Awesome Pro 7.1.0 by @fontawesome - https://fontawesome.com License - https://fontawesome.com/license (Commercial License) Copyright 2025 Fonticons, Inc. --><path opacity=".4" fill="currentColor" d="M80 16l480 0 0 193.1c-5.2-.7-10.6-1.1-16-1.1-61.9 0-112 50.1-112 112 0-61.9-50.1-112-112-112S208 258.1 208 320c0-61.9-50.1-112-112-112-5.4 0-10.8 .4-16 1.1L80 16z"/><path fill="currentColor" d="M560 16L80 16 80 209.1c-5.5 .8-10.8 2-16 3.5L64 0 576 0 576 212.6c-5.2-1.5-10.5-2.7-16-3.5L560 16zM96 368a48 48 0 1 0 0-96 48 48 0 1 0 0 96zm0-112a64 64 0 1 1 0 128 64 64 0 1 1 0-128zM320 368a48 48 0 1 0 0-96 48 48 0 1 0 0 96zm0-112a64 64 0 1 1 0 128 64 64 0 1 1 0-128zm272 64a48 48 0 1 0 -96 0 48 48 0 1 0 96 0zm-112 0a64 64 0 1 1 128 0 64 64 0 1 1 -128 0zM43.5 432l-26.7 80-16.9 0 32-96 128 0 32 96-16.9 0-26.7-80-104.9 0zm197.3 80l-16.9 0 32-96 128 0 32 96-16.9 0-26.7-80-104.9 0-26.7 80zm250.7-80l-26.7 80-16.9 0 32-96 128 0 32 96-16.9 0-26.7-80-104.9 0z"/></svg>