<svg xmlns="http://www.w3.org/2000/svg" viewBox="0 0 384 512"><!--! Font Awesome Pro 7.0.1 by @fontawesome - https://fontawesome.com License - https://fontawesome.com/license (Commercial License) Copyright 2025 Fonticons, Inc. --><path style="fill:var(--fa-secondary-color,currentColor);opacity:var(--fa-secondary-opacity,.4)" d="M184 16l160 0 0 224-160 0 0-224z"/><path style="fill:var(--fa-primary-color,currentColor);opacity:var(--fa-primary-opacity,1)" d="M16 0l0 158.7 69.8 209.3 298.2 0 0 16-309.8 0-1.8-5.5-72-216-.4-1.2 0-161.3 16 0zM32 480l352 0 0 16-352 0 0-16zM184 0l176 0 0 256-192 0 0-256 16 0zm0 16l0 224 160 0 0-224-160 0z"/></svg>