<svg xmlns="http://www.w3.org/2000/svg" viewBox="0 0 448 512"><!--! Font Awesome Pro 7.1.0 by @fontawesome - https://fontawesome.com License - https://fontawesome.com/license (Commercial License) Copyright 2025 Fonticons, Inc. --><path opacity=".4" fill="currentColor" d="M16 48l0 160 416 0 0-160-416 0zm0 256l0 160 416 0 0-160-416 0zM304 128a16 16 0 1 1 -32 0 16 16 0 1 1 32 0zm0 256a16 16 0 1 1 -32 0 16 16 0 1 1 32 0zm64-256a16 16 0 1 1 -32 0 16 16 0 1 1 32 0zm0 256a16 16 0 1 1 -32 0 16 16 0 1 1 32 0z"/><path fill="currentColor" d="M432 48l0 160-416 0 0-160 416 0zM16 32l-16 0 0 192 448 0 0-192-432 0zM288 144a16 16 0 1 0 0-32 16 16 0 1 0 0 32zm0 256a16 16 0 1 0 0-32 16 16 0 1 0 0 32zm80-16a16 16 0 1 0 -32 0 16 16 0 1 0 32 0zM352 144a16 16 0 1 0 0-32 16 16 0 1 0 0 32zM16 304l416 0 0 160-416 0 0-160zM0 288l0 192 448 0 0-192-448 0z"/></svg>