<svg xmlns="http://www.w3.org/2000/svg" viewBox="0 0 640 512"><!--! Font Awesome Pro 7.1.0 by @fontawesome - https://fontawesome.com License - https://fontawesome.com/license (Commercial License) Copyright 2025 Fonticons, Inc. --><path opacity=".4" fill="currentColor" d="M98.7 165.7l213.3-51.5 0 319.2-112-44.8c-8.5 3.4-27.1 10.9-56 22.4l0-124.3-.5-1.4-44.8-119.5zm229.3-51.5l213.3 51.5-44.8 119.5-.5 1.4 0 124.3c-28.9-11.5-47.5-19-56-22.4-37.3 14.9-74.7 29.9-112 44.8l0-319.1z"/><path fill="currentColor" d="M449.5 432.5l124 47 48.1-15.2 7.6-2.4 4.8 15.3-7.6 2.4-50.7 16-2.7 .8-2.6-1-123.8-46.9-123.8 46.9-2.8 1.1-2.8-1.1-123.8-46.9-123.8 46.9-2.6 1-2.7-.8-50.7-16-7.6-2.4 4.8-15.3 7.6 2.4 48 15.2 124.1-47 2.8-1.1 2.8 1.1 123.8 46.9 123.8-46.9 2.8-1.1 2.8 1.1zM328.1 16l152 0 0 118.4 73.9 17.8 8.8 2.1-3.2 8.5-47.5 126.7 0 126.5-3.3 0-12.7-5.1 0-124.3 .5-1.4 44.8-119.5-213.3-51.5 0 319.1-8 3.2-8-3.2 0-319.2-213.3 51.5 44.8 119.5 .5 1.4 0 124.3-12.8 5.2-3.2 0 0-126.5-47.5-126.7-3.2-8.5 8.8-2.1 73.8-17.8 0-118.4 152 0 0-48 16 0 0 48zM176 130.5l142.2-34.3 1.9-.4 1.9 .4 142.1 34.3 0-98.5-288 0 0 98.5z"/></svg>