<svg xmlns="http://www.w3.org/2000/svg" viewBox="0 0 576 512"><!--! Font Awesome Pro 7.0.1 by @fontawesome - https://fontawesome.com License - https://fontawesome.com/license (Commercial License) Copyright 2025 Fonticons, Inc. --><path style="fill:var(--fa-secondary-color,currentColor);opacity:var(--fa-secondary-opacity,.4)" d=""/><path style="fill:var(--fa-primary-color,currentColor);opacity:var(--fa-primary-opacity,1)" d="M21.7-21.6l-5.7-5.7-11.3 11.3 5.7 5.7 544.2 544 5.7 5.7 11.3-11.3-5.7-5.7-53.8-53.8 0-436.6-16 0 0 420.6-128-128 0-196.7-16 0 0 180.7-330.3-330.2zM224 271.2l-15.2-15.2-.8 0 0 224 16 0 0-208.8zm144 144l-16-16 0 80.8 16 0 0-64.8zM80 392l0-8-16 0 0 96 16 0 0-88z"/></svg>