<svg xmlns="http://www.w3.org/2000/svg" viewBox="0 0 512 512"><!--! Font Awesome Pro 7.0.1 by @fontawesome - https://fontawesome.com License - https://fontawesome.com/license (Commercial License) Copyright 2025 Fonticons, Inc. --><path style="fill:var(--fa-secondary-color,currentColor);opacity:var(--fa-secondary-opacity,.4)" d="M16 80l0 352 480 0 0-352-480 0z"/><path style="fill:var(--fa-primary-color,currentColor);opacity:var(--fa-primary-opacity,1)" d="M80 16l0 48-80 0 0 384 80 0 0 64 16 0 0-64 320 0 0 64 16 0 0-64 80 0 0-384-80 0 0-48-16 0 0 48-320 0 0-48-16 0zM496 80l0 352-480 0 0-352 480 0z"/></svg>