<svg xmlns="http://www.w3.org/2000/svg" viewBox="0 0 448 512"><!--! Font Awesome Pro 7.0.1 by @fontawesome - https://fontawesome.com License - https://fontawesome.com/license (Commercial License) Copyright 2025 Fonticons, Inc. --><path style="fill:var(--fa-secondary-color,currentColor);opacity:var(--fa-secondary-opacity,.4)" d="M16 48l0 416 416 0 0-416-416 0zM92.7 152l11.3-11.3 5.7 5.7 104 104 5.7 5.7-5.7 5.7-104 104-5.7 5.7-11.3-11.3 5.7-5.7 98.3-98.3-98.3-98.3-5.7-5.7zM192 368l176 0 0 16-176 0 0-16z"/><path style="fill:var(--fa-primary-color,currentColor);opacity:var(--fa-primary-opacity,1)" d="M432 48l0 416-416 0 0-416 416 0zM16 32l-16 0 0 448 448 0 0-448-432 0zM92.7 152l5.7 5.7 98.3 98.3-98.3 98.3-5.7 5.7 11.3 11.3 5.7-5.7 104-104 5.7-5.7-5.7-5.7-104-104-5.7-5.7-11.3 11.3zM200 368l-8 0 0 16 176 0 0-16-168 0z"/></svg>