<svg xmlns="http://www.w3.org/2000/svg" viewBox="0 0 448 512"><!--! Font Awesome Pro 7.1.0 by @fontawesome - https://fontawesome.com License - https://fontawesome.com/license (Commercial License) Copyright 2025 Fonticons, Inc. --><path opacity=".4" fill="currentColor" d="M16 48l416 0 0 416-416 0 0-416zm96 80l0 16 104 0 0 90.2-66.5 22.2-7.6 2.5 5.1 15.2 7.6-2.5 61.5-20.5 0 47.1-66.5 22.2-7.6 2.5 5.1 15.2 7.6-2.5 61.5-20.5 0 68.9 16 0 0-74.2 66.5-22.2 7.6-2.5-5.1-15.2-7.6 2.5-61.5 20.5 0-47.1 66.5-22.2 7.6-2.5-5.1-15.2-7.6 2.5-61.5 20.5 0-84.9 104 0 0-16-224 0z"/><path fill="currentColor" d="M16 48l0 416 416 0 0-416-416 0zM0 32l448 0 0 448-448 0 0-448zm112 96l224 0 0 16-104 0 0 84.9 61.5-20.5 7.6-2.5 5.1 15.2-7.6 2.5-66.5 22.2 0 47.1 61.5-20.5 7.6-2.5 5.1 15.2-7.6 2.5-66.5 22.2 0 74.2-16 0 0-68.9-61.5 20.5-7.6 2.5-5.1-15.2 7.6-2.5 66.5-22.2 0-47.1-61.5 20.5-7.6 2.5-5.1-15.2 7.6-2.5 66.5-22.2 0-90.2-104 0 0-16z"/></svg>