<svg xmlns="http://www.w3.org/2000/svg" viewBox="0 0 448 512"><!--! Font Awesome Pro 7.0.1 by @fontawesome - https://fontawesome.com License - https://fontawesome.com/license (Commercial License) Copyright 2025 Fonticons, Inc. --><path style="fill:var(--fa-secondary-color,currentColor);opacity:var(--fa-secondary-opacity,.4)" d="M16 48l0 416 416 0 0-416-416 0zM132.7 176l11.3-11.3 5.7 5.7 154.3 154.3 0-116.7 16 0 0 144-144 0 0-16 116.7 0-154.3-154.3-5.7-5.7z"/><path style="fill:var(--fa-primary-color,currentColor);opacity:var(--fa-primary-opacity,1)" d="M432 464l0-416-416 0 0 416 416 0zm16 16l-448 0 0-448 448 0 0 448zM312 352l-136 0 0-16 116.7 0-154.3-154.3-5.7-5.7 11.3-11.3 5.7 5.7 154.3 154.3 0-116.7 16 0 0 144-8 0z"/></svg>