<svg xmlns="http://www.w3.org/2000/svg" viewBox="0 0 448 512"><!--! Font Awesome Pro 7.1.0 by @fontawesome - https://fontawesome.com License - https://fontawesome.com/license (Commercial License) Copyright 2025 Fonticons, Inc. --><path opacity=".4" fill="currentColor" d="M16 48l416 0 0 416-416 0 0-416zM96 384c1.6-.3 31.8-5.3 90.7-15.1l185.2-185.2 11.3-11.3-11.3-11.3-53-53-11.3-11.3-11.3 11.3-185.2 185.2C101.3 352.2 96.2 382.5 96 384zM299.6 127.5l8.1-8.1 53 53-8.1 8.1-53-53z"/><path fill="currentColor" d="M16 48l0 416 416 0 0-416-416 0zM0 32l448 0 0 448-448 0 0-448zM126 301l-10.6 63.6 63.6-10.6 134.3-134.3-53-53-134.3 134.3zM360.6 172.4l-53-53-36 36 53 53 36-36zm-64.3-64.3l11.3-11.3 11.3 11.3 53 53 11.3 11.3-11.3 11.3-185.2 185.2c-58.9 9.8-89.1 14.9-90.7 15.1 .3-1.6 5.3-31.8 15.1-90.7L296.3 108.1z"/></svg>