<svg xmlns="http://www.w3.org/2000/svg" viewBox="0 0 576 512"><!--! Font Awesome Pro 7.0.1 by @fontawesome - https://fontawesome.com License - https://fontawesome.com/license (Commercial License) Copyright 2025 Fonticons, Inc. --><path style="fill:var(--fa-secondary-color,currentColor);opacity:var(--fa-secondary-opacity,.4)" d="M28 171.5l127.5 127.7-28.1 178.2 160.8-81.8 160.8 81.8-28.1-178.2 127.5-127.7-178.2-28.3-82-160.7-82 160.7-178.2 28.3z"/><path style="fill:var(--fa-primary-color,currentColor);opacity:var(--fa-primary-opacity,1)" d="M581.9 160.6l-143.9 144.1 31.7 201.2-181.5-92.3-181.5 92.3 31.7-201.2-143.9-144.1 201.1-32 92.6-181.4 92.6 181.4 201.1 32zM370.2 143.1l-82-160.7-82 160.7-178.2 28.3 127.5 127.7-28.1 178.2 160.8-81.8 160.8 81.8-28.1-178.2 127.5-127.7-178.2-28.3z"/></svg>