<svg xmlns="http://www.w3.org/2000/svg" viewBox="0 0 512 512"><!--! Font Awesome Pro 7.1.0 by @fontawesome - https://fontawesome.com License - https://fontawesome.com/license (Commercial License) Copyright 2025 Fonticons, Inc. --><path opacity=".4" fill="currentColor" d="M16 16l160 0 0 400c0 44.2-35.8 80-80 80-44.2 0-80-35.8-80-80L16 16zM48 48l0 96 96 0 0-96-96 0zm0 128l0 96 96 0 0-96-96 0zM64 416a32 32 0 1 0 64 0 32 32 0 1 0 -64 0zm85.1 80c5.3-3.5 10.3-7.6 14.8-12.1 49.3-49.3 98.6-98.6 147.9-147.9 36.5 0 97.9 0 184.2 0l0 160-346.9 0zm41-61c1.2-6.2 1.9-12.5 1.9-19l0-209.1c26.3-26.3 69.7-69.7 130.3-130.3L435.4 189.7 190.1 435z"/><path fill="currentColor" d="M8 0l184 0 0 416c0 6.5-.6 12.9-1.9 19l245.3-245.3-113.1-113.1-82.3 82.3 0-22.6 76.6-76.6 5.7-5.7 5.7 5.7 124.5 124.5 5.7 5.7-5.7 5.7-288.5 288.5 0 0c-4.5 4.5-9.5 8.6-14.8 12.1l346.9 0 0-160-117.1 0 16-16 117.1 0 0 192-416 0c-53 0-96-43-96-96L0 0 8 0zM96 496c44.2 0 80-35.8 80-80l0-400-160 0 0 400c0 44.2 35.8 80 80 80zM48 48l96 0 0 96-96 0 0-96zM80 64l-16 0 0 64 64 0 0-64-48 0zM64 176l80 0 0 96-96 0 0-96 16 0zm0 16l0 64 64 0 0-64-64 0zM96 400a16 16 0 1 0 0 32 16 16 0 1 0 0-32zm32 16a32 32 0 1 1 -64 0 32 32 0 1 1 64 0z"/></svg>