<svg xmlns="http://www.w3.org/2000/svg" viewBox="0 0 448 512"><!--! Font Awesome Pro 7.0.1 by @fontawesome - https://fontawesome.com License - https://fontawesome.com/license (Commercial License) Copyright 2025 Fonticons, Inc. --><path style="fill:var(--fa-secondary-color,currentColor);opacity:var(--fa-secondary-opacity,.4)" d="M16 48l0 112 416 0 0-112-416 0zm0 128l0 288 96 0 0-288-96 0zm112 0l0 288 304 0 0-288-304 0z"/><path style="fill:var(--fa-primary-color,currentColor);opacity:var(--fa-primary-opacity,1)" d="M16 48l416 0 0 112-416 0 0-112zm0 416l0-288 96 0 0 288-96 0zm112 0l0-288 304 0 0 288-304 0zM0 464l0 16 448 0 0-448-448 0 0 432z"/></svg>