<svg xmlns="http://www.w3.org/2000/svg" viewBox="0 0 448 512"><!--! Font Awesome Pro 7.0.1 by @fontawesome - https://fontawesome.com License - https://fontawesome.com/license (Commercial License) Copyright 2025 Fonticons, Inc. --><path style="fill:var(--fa-secondary-color,currentColor);opacity:var(--fa-secondary-opacity,.4)" d="M144 48l0 200 288 0 0-200-288 0zm0 216l0 200 288 0 0-200-288 0z"/><path style="fill:var(--fa-primary-color,currentColor);opacity:var(--fa-primary-opacity,1)" d="M16 48l112 0 0 416-112 0 0-416zM432 464l-288 0 0-200 288 0 0 200zm0-216l-288 0 0-200 288 0 0 200zM0 464l0 16 448 0 0-448-448 0 0 432z"/></svg>