<svg xmlns="http://www.w3.org/2000/svg" viewBox="0 0 512 512"><!--! Font Awesome Pro 7.1.0 by @fontawesome - https://fontawesome.com License - https://fontawesome.com/license (Commercial License) Copyright 2025 Fonticons, Inc. --><path opacity=".4" fill="currentColor" d="M112.5 283.3l0 116.7 116.7 0 243.1-243.1c15.5-15.5 24.2-36.5 24.2-58.3 0-45.6-36.9-82.5-82.5-82.5-21.9 0-42.9 8.7-58.3 24.2l-39.8 39.8 50.3 50.3 5.7 5.7-11.3 11.3-5.7-5.7-50.3-50.3-52.7 52.7 50.3 50.3 5.7 5.7-11.3 11.3-5.7-5.7-50.3-50.3-52.7 52.7 50.3 50.3 5.7 5.7-11.3 11.3-5.7-5.7-50.3-50.3-64 64z"/><path fill="currentColor" d="M355.6 40.2l-39.8 39.8 50.3 50.3 5.7 5.7-11.3 11.3-5.7-5.7-50.3-50.3-52.7 52.7 50.3 50.3 5.7 5.7-11.3 11.3-5.7-5.7-50.3-50.3-52.7 52.7 50.3 50.3 5.7 5.7-11.3 11.3-5.7-5.7-50.3-50.3-64 64 0 116.7 116.7 0 243.1-243.1c15.5-15.5 24.2-36.5 24.2-58.3 0-45.6-36.9-82.5-82.5-82.5-21.9 0-42.9 8.7-58.3 24.2zM422 0l0 .3c48 3.9 86.3 42.2 90.2 90.2l.3 0 0 8c0 26.1-10.4 51.2-28.9 69.7l-245.5 245.5-2.3 2.3-128 0-90.1 90.1-5.7 5.7-11.3-11.3 5.7-5.7 90.1-90.1 0-128 2.3-2.3 245.5-245.5C362.8 10.4 387.9 0 414 0l8 0z"/></svg>