<svg xmlns="http://www.w3.org/2000/svg" viewBox="0 0 576 512"><!--! Font Awesome Pro 7.0.1 by @fontawesome - https://fontawesome.com License - https://fontawesome.com/license (Commercial License) Copyright 2025 Fonticons, Inc. --><path style="fill:var(--fa-secondary-color,currentColor);opacity:var(--fa-secondary-opacity,.4)" d="M64 32l112 0 0 112-112 0 0-112zM232 368l112 0 0 112-112 0 0-112zM400 32l112 0 0 112-112 0 0-112z"/><path style="fill:var(--fa-primary-color,currentColor);opacity:var(--fa-primary-opacity,1)" d="M64 32l0 112 112 0 0-112-112 0zM48 16l144 0 0 144-64 0 0 96 320 0 0-96-64 0 0-144 144 0 0 144-64 0 0 96 112 0 0 16-280 0 0 80 64 0 0 144-144 0 0-144 64 0 0-80-280 0 0-16 112 0 0-96-64 0 0-144zM296 368l-64 0 0 112 112 0 0-112-48 0zM512 32l-112 0 0 112 112 0 0-112z"/></svg>