<svg xmlns="http://www.w3.org/2000/svg" viewBox="0 0 448 512"><!--! Font Awesome Pro 7.1.0 by @fontawesome - https://fontawesome.com License - https://fontawesome.com/license (Commercial License) Copyright 2025 Fonticons, Inc. --><path opacity=".4" fill="currentColor" d="M48 192l0 304 352 0 0-304c0-97.2-78.8-176-176-176S48 94.8 48 192zm88 24l80 0 0-80 16 0 0 80 80 0 0 16-80 0 0 144-16 0 0-144-80 0 0-16z"/><path fill="currentColor" d="M400 496l-352 0 0-304C48 94.8 126.8 16 224 16S400 94.8 400 192l0 304zM32 192l0 304-32 0 0 16 448 0 0-16-32 0 0-304C416 86 330 0 224 0S32 86 32 192zm200-48l0-8-16 0 0 80-80 0 0 16 80 0 0 144 16 0 0-144 80 0 0-16-80 0 0-72z"/></svg>