<svg xmlns="http://www.w3.org/2000/svg" viewBox="0 0 576 512"><!--! Font Awesome Pro 7.0.1 by @fontawesome - https://fontawesome.com License - https://fontawesome.com/license (Commercial License) Copyright 2025 Fonticons, Inc. --><path style="fill:var(--fa-secondary-color,currentColor);opacity:var(--fa-secondary-opacity,.4)" d=""/><path style="fill:var(--fa-primary-color,currentColor);opacity:var(--fa-primary-opacity,1)" d="M536 8l0-8-16 0 0 40-40 0 0 16 40 0 0 40 16 0 0-40 40 0 0-16-40 0 0-32zM56 136l0-8-16 0 0 40-40 0 0 16 40 0 0 40 16 0 0-40 40 0 0-16-40 0 0-32zM248 0l0 16 80 0 0-16-80 0zM224 128l0 16 128 0 0-16-128 0zM120 256l0 16 336 0 0-16-336 0zm72 128l0 16 192 0 0-16-192 0zM128 528l0 16 320 0 0-16-320 0z"/></svg>