<svg xmlns="http://www.w3.org/2000/svg" viewBox="0 0 512 512"><!--! Font Awesome Pro 7.1.0 by @fontawesome - https://fontawesome.com License - https://fontawesome.com/license (Commercial License) Copyright 2025 Fonticons, Inc. --><path opacity=".4" fill="currentColor" d="M16 64a48 48 0 1 0 96 0 48 48 0 1 0 -96 0zm.2 42.5c10.1 11.2 24.1 18.9 39.8 20.9-15.8-1.9-29.8-9.6-39.8-20.9zm0 299c10.1-11.3 24.1-19 39.8-21-15.8 2-29.8 9.7-39.8 21zM16 448a48 48 0 1 0 96 0 48 48 0 1 0 -96 0zM72 127.5c15.8-2 29.8-9.7 39.8-21-10.1 11.2-24.1 18.9-39.8 21zm0 257.1c15.8 2 29.8 9.7 39.8 20.9-10.1-11.3-24.1-19-39.8-20.9zM208 64a48 48 0 1 0 96 0 48 48 0 1 0 -96 0zm.2 42.5c10.1 11.2 24.1 18.9 39.8 20.9-15.8-1.9-29.8-9.6-39.8-20.9zm0 299c10.1-11.3 24.1-19 39.8-21-15.8 2-29.8 9.7-39.8 21zM208 448a48 48 0 1 0 96 0 48 48 0 1 0 -96 0zm56-320.5c15.8-2 29.8-9.7 39.8-21-10.1 11.2-24.1 18.9-39.8 21zm0 257.1c15.8 2 29.8 9.7 39.8 20.9-10.1-11.3-24.1-19-39.8-20.9zM400 64a48 48 0 1 0 96 0 48 48 0 1 0 -96 0zm.2 42.5c10.1 11.2 24.1 18.9 39.8 20.9-15.8-1.9-29.8-9.6-39.8-20.9zm55.8 21c15.8-2 29.8-9.7 39.8-21-10.1 11.2-24.1 18.9-39.8 21z"/><path fill="currentColor" d="M448 0c35.3 0 64 28.7 64 64 0 32.6-24.4 59.5-56 63.4l0 136.6-192 0 0 120.6c31.6 3.9 56 30.8 56 63.4 0 35.3-28.7 64-64 64s-64-28.7-64-64c0-32.6 24.4-59.5 56-63.4l0-120.6-176 0 0 120.6c31.6 3.9 56 30.8 56 63.4 0 35.3-28.7 64-64 64S0 483.3 0 448c0-32.6 24.4-59.5 56-63.4l0-257.2C24.4 123.5 0 96.6 0 64 0 28.7 28.7 0 64 0s64 28.7 64 64c0 32.6-24.4 59.5-56 63.4l0 120.6 176 0 0-120.6c-31.6-3.9-56-30.8-56-63.4 0-35.3 28.7-64 64-64s64 28.7 64 64c0 32.6-24.4 59.5-56 63.4l0 120.6 176 0 0-120.6c-31.6-3.9-56-30.8-56-63.4 0-35.3 28.7-64 64-64zM64 400a48 48 0 1 0 0 96 48 48 0 1 0 0-96zm192 0a48 48 0 1 0 0 96 48 48 0 1 0 0-96zM448 16a48 48 0 1 0 0 96 48 48 0 1 0 0-96zM64 16a48 48 0 1 0 0 96 48 48 0 1 0 0-96zm192 0a48 48 0 1 0 0 96 48 48 0 1 0 0-96z"/></svg>