<svg xmlns="http://www.w3.org/2000/svg" viewBox="0 0 384 512"><!--! Font Awesome Pro 7.0.1 by @fontawesome - https://fontawesome.com License - https://fontawesome.com/license (Commercial License) Copyright 2025 Fonticons, Inc. --><path style="fill:var(--fa-secondary-color,currentColor);opacity:var(--fa-secondary-opacity,.4)" d="M16 416l0 112 80 0 0-112-80 0zM80 80l0 320 224 0 0-320-224 0zm32 336l0 112 160 0 0-112-160 0zm176 0l0 112 80 0 0-112-80 0z"/><path style="fill:var(--fa-primary-color,currentColor);opacity:var(--fa-primary-opacity,1)" d="M144 64l96 0 0-96 16 0 0 96 64 0 0 336 64 0 0 144-384 0 0-144 64 0 0-336 64 0 0-96 16 0 0 96zM16 528l80 0 0-112-80 0 0 112zm96 0l160 0 0-112-160 0 0 112zm176 0l80 0 0-112-80 0 0 112zM80 400l224 0 0-320-224 0 0 320z"/></svg>