<svg xmlns="http://www.w3.org/2000/svg" viewBox="0 0 384 512"><!--! Font Awesome Pro 7.1.0 by @fontawesome - https://fontawesome.com License - https://fontawesome.com/license (Commercial License) Copyright 2025 Fonticons, Inc. --><path opacity=".4" fill="currentColor" d="M38.6 336l105.4 0 0-320c10.7 0 85.3 0 224 0l0 96c-42.7 0-85.3 0-128 0l0 224 105.4 0C294.3 387.1 243.1 438.2 192 489.4 140.9 438.3 89.8 387.1 38.6 336z"/><path fill="currentColor" d="M272 320l-16 0 0-192 128 0 0-128-256 0 0 320-128 0 16 16 164.7 164.7 11.3 11.3 192-192-112 0zm73.4 16l-153.4 153.4-153.4-153.4 105.4 0 0-320 224 0 0 96-128 0 0 224 105.4 0z"/></svg>