<svg xmlns="http://www.w3.org/2000/svg" viewBox="0 0 576 512"><!--! Font Awesome Pro 7.0.1 by @fontawesome - https://fontawesome.com License - https://fontawesome.com/license (Commercial License) Copyright 2025 Fonticons, Inc. --><path style="fill:var(--fa-secondary-color,currentColor);opacity:var(--fa-secondary-opacity,.4)" d="M16 112l352 0 0 288-352 0 0-288z"/><path style="fill:var(--fa-primary-color,currentColor);opacity:var(--fa-primary-opacity,1)" d="M16 112l0 288 352 0 0-288-352 0zM0 96l384 0 0 320-384 0 0-320zM432 384l0-16 128 0 0-224-128 0 0-16 144 0 0 256-144 0zm80-176a16 16 0 1 1 -32 0 16 16 0 1 1 32 0zM496 320a16 16 0 1 1 0-32 16 16 0 1 1 0 32z"/></svg>