<svg xmlns="http://www.w3.org/2000/svg" viewBox="0 0 448 512"><!--! Font Awesome Pro 7.1.0 by @fontawesome - https://fontawesome.com License - https://fontawesome.com/license (Commercial License) Copyright 2025 Fonticons, Inc. --><path opacity=".4" fill="currentColor" d="M16.9 512l414.3 0-58.7-176-43.4 0-91.3 152.2-13.7 22.9-13.7-22.9-91.3-152.2-43.4 0-58.7 176zM64 28.2l0 26.7C82.9 66.3 93.6 72.7 96 74.1l0 27.3 1.6 .7c7.1 2.9 17.5 6.7 30.2 10.5 25.3 7.7 59.4 15.2 95.5 15.3 .2 0 .5 0 .7 0l.7 0c36-.1 70.1-7.6 95.5-15.3 12.7-3.8 23.1-7.7 30.2-10.5l1.6-.7 0-27.3c2.4-1.5 13.1-7.9 32-19.2l0-26.7-160-43.6-160 43.6zM165.3 51.6l7.2-14.3 51.6 25.8 51.6-25.8 7.2 14.3-7.2 3.6-51.6 25.8-51.6-25.8-7.2-3.6zM192 320l0 9.7 32 27.7 32-27.7 0-9.7-64 0zm2.3 110.6L224 480c4.4-7.3 14.3-23.8 29.7-49.4l-29.7-47.5-29.7 47.5zM304 448l80 0 0 16-80 0 0-16z"/><path fill="currentColor" d="M368 83.2l32-19.2 0-48-176-48-176 48 0 48 32 19.2 0 28.8s5.8 2.8 16 6.7L96 144c0 70.7 57.3 128 128 128s128-57.3 128-128l0-25.3c10.2-3.9 16-6.7 16-6.7l0-28.8zM112 144l0-19.6c26.9 9 67.8 19.6 112 19.6s85.1-10.6 112-19.6l0 19.6c0 61.9-50.1 112-112 112S112 205.9 112 144zm240-42.5l-1.6 .7c-7.1 2.9-17.5 6.7-30.2 10.5-25.5 7.7-59.9 15.3-96.2 15.3s-70.7-7.6-96.2-15.3c-12.7-3.8-23.1-7.7-30.2-10.5l-1.6-.7 0-27.3c-2.4-1.5-13.1-7.9-32-19.2l0-26.7 160-43.6 160 43.6 0 26.7c-18.9 11.3-29.6 17.7-32 19.2l0 27.3zM184 304l-8 0 0 33 2.8 2.4 34.8 30.2-28.5 45.6-57.1-95.2-64 0-64 192 16.9 0 58.7-176 43.4 0 91.3 152.2 13.7 22.9 13.7-22.9 91.3-152.2 43.4 0 58.7 176 16.9 0-64-192-64 0-57.1 95.2-28.5-45.6 34.8-30.2 2.8-2.4 0-33-88 0zm30.7 160.5l-20.3-33.9 29.7-47.5 29.7 47.5c-15.4 25.7-25.3 42.1-29.7 49.4l-9.3-15.5zM192 329.7l0-9.7 64 0 0 9.7-32 27.7-32-27.7zM304 448l0 16 80 0 0-16-80 0zM179.6 40.8l-7.2-3.6-7.2 14.3 7.2 3.6 51.6 25.8 51.6-25.8 7.2-3.6-7.2-14.3-51.6 25.8-44.4-22.2z"/></svg>