<svg xmlns="http://www.w3.org/2000/svg" viewBox="0 0 384 512"><!--! Font Awesome Pro 7.0.1 by @fontawesome - https://fontawesome.com License - https://fontawesome.com/license (Commercial License) Copyright 2025 Fonticons, Inc. --><path style="fill:var(--fa-secondary-color,currentColor);opacity:var(--fa-secondary-opacity,.4)" d="M16 80l0 352 352 0 0-352-352 0zM128 256a32 32 0 1 1 -64 0 32 32 0 1 1 64 0zm48-96a32 32 0 1 1 -64 0 32 32 0 1 1 64 0zm0 192a32 32 0 1 1 -64 0 32 32 0 1 1 64 0zm48-96a32 32 0 1 1 -64 0 32 32 0 1 1 64 0zm48-96a32 32 0 1 1 -64 0 32 32 0 1 1 64 0zm0 192a32 32 0 1 1 -64 0 32 32 0 1 1 64 0zm48-96a32 32 0 1 1 -64 0 32 32 0 1 1 64 0z"/><path style="fill:var(--fa-primary-color,currentColor);opacity:var(--fa-primary-opacity,1)" d="M16 64l53.3 0 10.7-96 224 0 10.7 96 69.3 0 0 384-69.3 0-10.7 96-224 0-10.7-96-69.3 0 0-384 16 0zm282.6 0l-8.9-80-195.4 0-8.9 80 213.1 0zM94.3 528l195.4 0 8.9-80-213.1 0 8.9 80zM368 80l-352 0 0 352 352 0 0-352zM208 256a16 16 0 1 0 -32 0 16 16 0 1 0 32 0zm-48 0a32 32 0 1 1 64 0 32 32 0 1 1 -64 0zm80 112a16 16 0 1 0 0-32 16 16 0 1 0 0 32zm0-48a32 32 0 1 1 0 64 32 32 0 1 1 0-64zm-80 32a16 16 0 1 0 -32 0 16 16 0 1 0 32 0zm-48 0a32 32 0 1 1 64 0 32 32 0 1 1 -64 0zM240 176a16 16 0 1 0 0-32 16 16 0 1 0 0 32zm0-48a32 32 0 1 1 0 64 32 32 0 1 1 0-64zm-80 32a16 16 0 1 0 -32 0 16 16 0 1 0 32 0zm-48 0a32 32 0 1 1 64 0 32 32 0 1 1 -64 0zM96 272a16 16 0 1 0 0-32 16 16 0 1 0 0 32zm0-48a32 32 0 1 1 0 64 32 32 0 1 1 0-64zm208 32a16 16 0 1 0 -32 0 16 16 0 1 0 32 0zm-48 0a32 32 0 1 1 64 0 32 32 0 1 1 -64 0z"/></svg>