<svg xmlns="http://www.w3.org/2000/svg" viewBox="0 0 640 512"><!--! Font Awesome Pro 7.1.0 by @fontawesome - https://fontawesome.com License - https://fontawesome.com/license (Commercial License) Copyright 2025 Fonticons, Inc. --><path opacity=".4" fill="currentColor" d="M256 304a64 64 0 1 0 128 0 64 64 0 1 0 -128 0z"/><path fill="currentColor" d="M449.5 432.5l124 47 48.1-15.2 7.6-2.4 4.8 15.3-7.6 2.4-50.7 16-2.7 .8-2.6-1-123.8-46.9-123.8 46.9-2.8 1.1-2.8-1.1-123.8-46.9-123.8 46.9-2.6 1-2.7-.8-50.7-16-7.6-2.4 4.8-15.3 7.6 2.4 48 15.2 124.1-47 2.8-1.1 2.8 1.1 123.8 46.9 123.8-46.9 2.8-1.1 2.8 1.1zM416 16l-88 0 0 80 88 0 0 16-88 0 0 112.4c40.4 4 72 38.1 72 79.6 0 44.2-35.8 80-80 80s-80-35.8-80-80c0-41.5 31.6-75.6 72-79.6L312 0 416 0 416 16zM192 304c0 5.6 .4 11.2 1.1 16.6l-123.6 46.9-2.6 1-2.7-.8-50.7-16-7.6-2.4 4.8-15.3 7.6 2.4 48 15.2 124.1-47 1.5-.6 0 .1zm257.5 .5l124 47 48.1-15.2 7.6-2.4 4.8 15.3-7.6 2.4-50.7 16-2.7 .8-2.6-1-123.6-46.9c.7-5.4 1.1-11 1.1-16.6l0-.1 1.5 .6zM320 240a64 64 0 1 0 0 128 64 64 0 1 0 0-128z"/></svg>