<svg xmlns="http://www.w3.org/2000/svg" viewBox="0 0 576 512"><!--! Font Awesome Pro 7.1.0 by @fontawesome - https://fontawesome.com License - https://fontawesome.com/license (Commercial License) Copyright 2025 Fonticons, Inc. --><path opacity=".4" fill="currentColor" d="M69.6 269.9C52.9 299.2 57.1 337 82 362l43.8 43.8 7.8-10c22.3-28.6 21.3-68.6-1.5-96l-4.8-5.3-42.6-42.6-3.6 3.6c-4.5 4.5-8.3 9.3-11.5 14.5zm69.1 148.7l43.8 43.8c25 25 63 29.1 92.3 12.3 5.1-3.2 9.8-6.9 14.2-11.3l3.6-3.6-42.7-42.7c-27.4-27.3-70.8-30.1-101.3-6.3l-10.1 7.8zm34.9-252.7C156.9 195.2 161.1 233 186 258l43.8 43.8 7.8-10c22.3-28.6 21.3-68.6-1.5-96l-4.8-5.3-42.6-42.6-3.6 3.6c-4.5 4.5-8.3 9.3-11.5 14.5zm69.1 148.7l43.8 43.8c25 25 63 29.1 92.3 12.3 5.1-3.2 9.8-6.9 14.2-11.3l3.6-3.6-42.7-42.7c-27.4-27.3-70.8-30.1-101.3-6.3l-10.1 7.8zM277.5 62C260.9 91.2 265.1 129 290 154l43.8 43.8 7.8-10c22.3-28.6 21.3-68.6-1.5-96l-4.8-5.3-42.6-42.6-3.6 3.6c-4.5 4.5-8.3 9.4-11.5 14.5zm69.1 148.7l43.8 43.8c25 25 63 29.1 92.3 12.3 5.1-3.2 9.8-6.9 14.2-11.3l3.6-3.6-42.7-42.7c-27.4-27.3-70.8-30.1-101.3-6.3l-10.1 7.8zM432.5 78.4c0 11.2 0 22.4 0 33.6l32 0c1 0 2 0 3 0 42.8-1.6 77-36.8 77-80 0-10.7 0-21.3 0-32l-32 0c-1 0-2 0-3 0-42.3 1.6-76.2 35.9-77 78.4z"/><path fill="currentColor" d="M138.7 283.1l5.8 6.4c22.9 27.6 27.4 65.6 12.9 97.5 34.5-15.7 76.1-9.1 104 18.7l54.4 54.4c-3.4 3.4-7.9 7.9-13.5 13.5-36.2 36.2-94.9 36.2-131.1 0l-44.6-44.6-94.1 94.1-11.3-11.3 5.7-5.7 88.4-88.5-44.6-44.6c-36.2-36.2-36.2-94.9 0-131.1 5.6-5.6 10.1-10.1 13.5-13.5l54.4 54.4zM250 417.1c-27.4-27.3-70.8-30.1-101.3-6.3l-10.1 7.8 43.8 43.8c30 30 78.5 30 108.5 0l2.2-2.2-43.1-43.1zM82 253.5C52.1 283.5 52.1 332 82 362l43.8 43.8 7.8-10c22.3-28.6 21.3-68.6-1.5-96l-4.8-5.3-43.1-43.1-2.2 2.2zm160.6-74.4l5.8 6.4c22.9 27.6 27.4 65.6 12.9 97.5 34.5-15.7 76.1-9.1 104 18.7l54.4 54.4c-3.4 3.4-7.9 7.9-13.5 13.5-36.2 36.2-94.9 36.2-131.1 0L174.7 269.3c-36.2-36.2-36.2-94.9 0-131.1 5.6-5.6 10.1-10.1 13.5-13.5l54.4 54.4zM354 313.1c-27.4-27.3-70.8-30.1-101.3-6.3l-10.1 7.8 43.8 43.8c30 30 78.5 30 108.5 0l2.2-2.2-43.1-43.1zM186 149.5c-29.9 30-29.9 78.5 0 108.5l43.8 43.8 7.8-10c22.3-28.6 21.3-68.6-1.5-96l-4.8-5.3-43.1-43.1-2.2 2.2zM346.7 75.1l5.8 6.4c22.9 27.6 27.4 65.6 12.9 97.5 34.5-15.7 76.1-9.1 104 18.8l54.4 54.4c-3.4 3.4-7.9 7.9-13.5 13.5-36.2 36.2-94.9 36.2-131.1 0L278.7 165.3c-36.2-36.2-36.2-94.9 0-131.1 5.6-5.6 10.1-10.1 13.5-13.5l54.4 54.4zM458 209.1c-27.4-27.3-70.8-30.1-101.3-6.3l-10.1 7.8 43.8 43.8c30 30 78.5 30 108.5 0l2.2-2.2-43.1-43.1zM290 45.5c-29.9 30-29.9 78.5 0 108.5l43.8 43.8 7.8-10c22.3-28.6 21.3-68.6-1.5-96l-4.8-5.3-43.1-43.1-2.2 2.2zM560.5 32c0 53-43 96-96 96l-48 0 0-48c0-53 43-96 96-96l48 0 0 48zm-48-32c-44.2 0-80 35.8-80 80l0 32 32 0c44.2 0 80-35.8 80-80l0-32-32 0z"/></svg>