<?xml version="1.0" standalone="no"?>
<!DOCTYPE svg PUBLIC "-//W3C//DTD SVG 1.1//EN" "http://www.w3.org/Graphics/SVG/1.1/DTD/svg11.dtd" >
<svg xmlns="http://www.w3.org/2000/svg" xmlns:xlink="http://www.w3.org/1999/xlink" version="1.1">
<metadata>
Created by FontForge 20170731 at Sat Jul 11 17:22:20 2020
 By Aleksey,,,
Copyright (c) 1995 ParaGraph Intl., (c) 1998 ParaType Inc., ParaType Ltd. All rights reserved.
</metadata>
<defs>
<font id="FuturaPTCond-Bold" horiz-adv-x="1024" >
  <font-face 
    font-family="Futura PT Cond Bold"
    font-weight="700"
    font-stretch="condensed"
    units-per-em="2048"
    panose-1="2 11 8 6 2 2 4 2 2 3"
    ascent="1563"
    descent="-485"
    x-height="915"
    cap-height="1366"
    bbox="-571 -512 2089 1866"
    underline-thickness="102"
    underline-position="-307"
    unicode-range="U+0020-FB02"
  />
<missing-glyph horiz-adv-x="477" 
 />
    <glyph glyph-name="afii10017.var.accented" unicode="&#x410;`" horiz-adv-x="942" 
d="M936 0h-287l-51 229h-272l-50 -229h-270l320 1366h282zM367 440h190q-58 264 -78 394q-15 109 -22 180q-12 -194 -90 -574zM733 1733l-235 -250l-123 73l174 263z" />
    <glyph glyph-name="afii10022.var.accented" unicode="&#x415;`" horiz-adv-x="727" 
d="M653 0h-547v1366h543v-254h-272v-295h239v-258h-239v-307h276v-252zM625 1733l-236 -250l-123 73l174 263z" />
    <glyph glyph-name="afii10026.var.accented" unicode="&#x418;`" horiz-adv-x="997" 
d="M96 0v1366h266v-594q0 -120 -22 -246l311 840h250v-1366h-266v598q0 123 18 252l-307 -850h-250zM760 1733l-236 -250l-123 73l174 263z" />
    <glyph glyph-name="afii10032.var.accented" unicode="&#x41e;`" horiz-adv-x="1110" 
d="M1034 682q0 -81 -5.5 -145.5t-21 -143.5t-51.5 -150t-90 -128q-131 -138 -311 -138t-311 138q-54 57 -90 128t-51.5 150t-21 143.5t-5.5 145.5t5.5 145.5t21 143.5t51.5 150t90 128q130 137 311 137t311 -137q54 -57 90 -128t51.5 -150t21 -143.5t5.5 -145.5zM555 1139
q-56 0 -98 -45q-95 -95 -95 -406q0 -310 95 -405q42 -45 98 -45t98 45q95 95 95 405q0 311 -95 406q-42 45 -98 45zM817 1733l-235 -250l-123 73l174 263z" />
    <glyph glyph-name="afii10037.var.accented" unicode="&#x423;`" horiz-adv-x="935" 
d="M16 1366h291l107 -332q38 -115 57 -235q36 170 59 241l103 326h287l-476 -1366h-270l156 471zM729 1733l-235 -250l-123 73l174 263z" />
    <glyph glyph-name="afii10045.var.accented" unicode="&#x42b;`" horiz-adv-x="1292" 
d="M1186 0h-271v1366h271v-1366zM106 1366h271v-535h8q43 0 78 -3t82 -13.5t91.5 -34.5t82.5 -61q117 -113 117 -320q0 -192 -103 -293q-108 -106 -332 -106h-295v1366zM377 598v-365h8q104 0 147 41q46 46 46 136q0 92 -52 141q-50 47 -143 47h-6zM907 1733l-235 -250
l-123 73l174 263z" />
    <glyph glyph-name="afii10047.var.accented" unicode="&#x42d;`" horiz-adv-x="862" 
d="M92 29v282q73 -65 168 -65q87 0 146 59q41 41 67.5 118.5t26.5 151.5h-326v242h318q-2 63 -25 136.5t-61 111.5q-52 57 -146 57q-95 0 -168 -59v278q91 39 205 39q96 0 171.5 -27t141.5 -93q96 -95 136 -236.5t40 -335.5q0 -400 -176 -579q-72 -72 -151 -97.5t-174 -25.5
q-116 0 -193 43zM598 1733l-236 -250l-122 73l174 263z" />
    <glyph glyph-name="afii10048.var.accented" unicode="&#x42e;`" horiz-adv-x="1538" 
d="M1462 684q0 -79 -5.5 -144t-21 -146.5t-51.5 -154.5t-90 -130q-126 -132 -307 -132q-192 0 -313 121q-147 152 -156 477h-141v-575h-271v1366h271v-535h145q4 112 41 233t119 202q120 120 301 120q185 0 311 -135q55 -58 91 -128.5t51.5 -149.5t20.5 -142.5t5 -146.5z
M983 1139q-56 0 -98 -45q-94 -94 -94 -406q0 -311 94 -405q42 -45 98 -45t98 45q95 95 95 405q0 311 -95 406q-42 45 -98 45zM1030 1733l-235 -250l-123 73l174 263z" />
    <glyph glyph-name="afii10049.var.accented" unicode="&#x42f;`" horiz-adv-x="952" 
d="M68 0l247 582q-82 23 -139 84q-90 94 -90 264q0 104 30 189t83 138q37 37 85 61t101.5 33.5t87.5 12t80 2.5h293v-1366h-271v565l-217 -565h-290zM575 1145h-51q-80 0 -121 -43q-47 -50 -47 -150q0 -95 52 -143q47 -43 139 -43h28v379zM737 1733l-235 -250l-123 73
l174 263z" />
    <glyph glyph-name="afii10023.var.accented" unicode="&#x401;`" horiz-adv-x="727" 
d="M653 0h-547v1366h543v-254h-272v-295h239v-258h-239v-307h276v-252zM537 1757l-220 -250l-79 49l157 263zM244 1651q0 -42 -31.5 -73.5t-71.5 -31.5q-44 0 -75 31t-31 74q0 42 31 72t75 30q40 0 71.5 -30.5t31.5 -71.5zM721 1651q0 -43 -31.5 -74t-75.5 -31
q-40 0 -71 31.5t-31 73.5q0 41 31 71.5t71 30.5q44 0 75.5 -30.5t31.5 -71.5z" />
    <glyph glyph-name="afii10065.var.accented" unicode="&#x430;`" horiz-adv-x="811" 
d="M729 0h-256v104q-66 -122 -170 -122q-60 0 -106.5 35.5t-72.5 87.5t-42.5 120.5t-21.5 125t-5 110.5q0 39 2 77t9 86t18 90t30 83t44 70t62 47t81 18q113 0 172 -129v112h256v-915zM492 457q0 23 -1 48t-6.5 62.5t-14.5 65.5t-26.5 48.5t-40.5 20.5q-29 0 -49 -28.5
t-28 -74.5t-10.5 -78t-2.5 -64t3 -65t11 -78.5t28.5 -74t50.5 -28.5q28 0 47 29t26.5 75t10 78.5t2.5 63.5zM668 1309l-236 -250l-123 74l174 262z" />
    <glyph glyph-name="afii10070.var.accented" unicode="&#x435;`" horiz-adv-x="763" 
d="M477 315h217q-2 -73 -29 -145.5t-69 -116.5q-43 -43 -91 -57t-108 -14q-67 0 -119 16.5t-100 64.5q-125 125 -125 371q0 126 33 236.5t100 177.5q84 84 209 84q119 0 197 -74q60 -58 89.5 -155t29.5 -201q0 -44 -6 -90h-406q-2 -14 -2 -52q0 -121 37 -161q22 -25 53 -25
q32 0 51 16q32 28 39 125zM303 569h184q0 45 -10.5 89t-30.5 61q-21 18 -47 18q-33 0 -57 -24q-19 -20 -29 -62.5t-10 -81.5zM643 1309l-235 -250l-123 74l174 262z" />
    <glyph glyph-name="afii10074.var.accented" unicode="&#x438;`" horiz-adv-x="829" 
d="M82 915h242v-325q0 -99 -19 -240q25 94 66 193l149 372h228v-915h-242v340q0 89 16 233q-28 -122 -71 -227l-142 -346h-227v915zM676 1309l-236 -250l-123 74l175 262z" />
    <glyph glyph-name="afii10080.var.accented" unicode="&#x43e;`" horiz-adv-x="802" 
d="M748 457q0 -275 -125 -396q-82 -79 -222 -79q-139 0 -221 79q-125 121 -125 396q0 274 125 395q83 80 221 80q139 0 222 -80q125 -121 125 -395zM401 702q-30 0 -47 -26q-41 -59 -41 -219t41 -219q18 -27 47 -27q30 0 48 27q40 58 40 219t-40 219q-17 26 -48 26z
M664 1309l-236 -250l-123 74l174 262z" />
    <glyph glyph-name="afii10085.var.accented" unicode="&#x443;`" horiz-adv-x="749" 
d="M756 915l-385 -1337h-252l141 440l-266 897h256l88 -333q33 -126 41 -189l121 522h256zM637 1309l-236 -250l-122 74l174 262z" />
    <glyph glyph-name="afii10093.var.accented" unicode="&#x44b;`" horiz-adv-x="1120" 
d="M1038 0h-256v915h256v-915zM82 915h256v-335h57q160 0 244 -84q80 -76 80 -211q0 -134 -80 -211q-78 -74 -233 -74h-324v915zM338 180h12q59 0 88 23q35 26 35 86q0 51 -29 80q-30 30 -102 30h-4v-219zM821 1309l-235 -250l-123 74l174 262z" />
    <glyph glyph-name="afii10095.var.accented" unicode="&#x44d;`" horiz-adv-x="641" 
d="M61 25v241q49 -55 129 -55q68 0 105 37q20 20 32.5 55t14.5 70h-209v188h209q-4 66 -41 109q-36 43 -108 43q-75 0 -132 -62v236q82 47 181 47q144 0 233 -86q125 -119 125 -383q0 -277 -125 -402q-50 -50 -104 -65.5t-123 -15.5q-110 0 -187 43zM528 1309l-235 -250
l-123 74l174 262z" />
    <glyph glyph-name="afii10096.var.accented" unicode="&#x44e;`" horiz-adv-x="1171" 
d="M1116 457q0 -275 -125 -396q-84 -79 -227 -79q-135 0 -215 75q-57 53 -85 136.5t-30 166.5h-96v-360h-256v915h256v-342h98q1 36 8 75.5t33.5 101t69.5 102.5q82 80 217 80q142 0 227 -80q125 -121 125 -395zM770 702q-30 0 -47 -26q-41 -59 -41 -219t41 -219
q18 -27 47 -27t47 27q41 59 41 219t-41 219q-17 26 -47 26zM848 1309l-236 -250l-123 74l175 262z" />
    <glyph glyph-name="afii10097.var.accented" unicode="&#x44f;`" horiz-adv-x="790" 
d="M41 0l174 342q-70 24 -113 82q-47 63 -47 168q0 152 88 237q90 86 291 86h275v-915h-256v346l-146 -346h-266zM453 487v236h-9q-64 0 -98 -29q-37 -33 -37 -96q0 -59 35 -86q31 -25 102 -25h7zM657 1309l-235 -250l-123 74l174 262z" />
    <glyph glyph-name="afii10071.var.accented" unicode="&#x451;`" horiz-adv-x="763" 
d="M477 315h217q-2 -73 -29 -145.5t-69 -116.5q-43 -43 -91 -57t-108 -14q-67 0 -119 16.5t-100 64.5q-125 125 -125 371q0 126 33 236.5t100 177.5q84 84 209 84q119 0 197 -74q60 -58 89.5 -155t29.5 -201q0 -44 -6 -90h-406q-6 -58 2 -121.5t33 -91.5q22 -25 53 -25
q32 0 51 16q32 28 39 125zM303 569h184q3 42 -8.5 87t-32.5 63t-47 18q-33 0 -57 -24q-19 -21 -30 -64t-9 -80zM526 1313l-221 -242l-67 62l174 262zM53 1231q0 41 29 69.5t70 28.5t69.5 -28.5t28.5 -69.5t-28.5 -69.5t-69.5 -28.5t-70 28.5t-29 69.5zM514 1231
q0 41 28.5 69.5t69.5 28.5t70 -28.5t29 -69.5t-29 -69.5t-70 -28.5t-69.5 28.5t-28.5 69.5z" />
    <glyph glyph-name="fi" unicode="fi" horiz-adv-x="917" 
d="M483 702h-116v-702h-256v702h-95v213h95v310q0 41 0.5 59.5t6.5 49.5t19 57q30 61 96 91.5t140 30.5q48 0 110 -20v-246q-26 15 -45 15q-23 0 -38.5 -10t-22 -28.5t-8.5 -35t-2 -39.5v-234h116v-213zM870 1214q0 -68 -47 -114.5t-114 -46.5q-68 0 -115 47t-47 114
q0 68 47.5 115t114.5 47t114 -47t47 -115zM836 0h-256v915h256v-915z" />
    <glyph glyph-name="fl" unicode="fl" horiz-adv-x="915" 
d="M483 702h-116v-702h-256v702h-95v213h95v310q0 41 0.5 59.5t6.5 49.5t19 57q30 61 96 91.5t140 30.5q48 0 110 -20v-246q-26 15 -45 15q-23 0 -38.5 -10t-22 -28.5t-8.5 -35t-2 -39.5v-234h116v-213zM831 0h-256v1493h256v-1493z" />
    <glyph glyph-name=".notdef" horiz-adv-x="477" 
 />
    <glyph glyph-name=".null" horiz-adv-x="0" 
 />
    <glyph glyph-name="nonmarkingreturn" horiz-adv-x="682" 
 />
    <glyph glyph-name="space" unicode=" " horiz-adv-x="477" 
 />
    <glyph glyph-name="exclam" unicode="!" horiz-adv-x="589" 
d="M430 410h-268v956h268v-956zM467 150q0 -72 -50 -122.5t-122 -50.5q-70 0 -121 51t-51 122q0 70 50.5 121t121.5 51q72 0 122 -50t50 -122z" />
    <glyph glyph-name="quotedbl" unicode="&#x22;" horiz-adv-x="829" 
d="M745 1366l-49 -549h-188l-47 549h284zM369 1366l-47 -549h-189l-47 549h283z" />
    <glyph glyph-name="numbersign" unicode="#" horiz-adv-x="1228" 
d="M1235 1016l-35 -230h-205l-28 -180h209l-35 -229h-211l-60 -377h-262l60 377h-181l-61 -377h-260l61 377h-211l37 229h209l29 180h-209l37 230h207l55 350h260l-55 -350h182l55 350h262l-55 -350h205zM731 786h-180l-29 -180h183z" />
    <glyph glyph-name="dollar" unicode="$" horiz-adv-x="886" 
d="M815 1227l-149 -162q-95 102 -207 102q-70 0 -112 -36.5t-42 -104.5q0 -37 10.5 -65t33 -47.5t42.5 -31t55 -26.5q167 -72 230 -111q144 -90 179 -228q13 -51 13 -111q0 -159 -92 -278.5t-241 -150.5v-163h-148v163q-109 18 -186 53t-152 107l127 201q68 -65 130 -100
t136 -35q78 0 125 47t47 125q0 32 -10.5 58.5t-24.5 44t-43.5 37t-51.5 30.5t-64 30q-38 18 -58 27.5t-54.5 27t-53.5 30t-48 32t-45.5 37t-37.5 41t-32.5 48t-23 54t-16 63t-4.5 71.5q0 159 91 255t249 125v152h148v-152q93 -18 156.5 -52.5t123.5 -106.5z" />
    <glyph glyph-name="percent" unicode="%" horiz-adv-x="1497" 
d="M1139 1366l-592 -1366h-178l596 1366h174zM621 1032q0 -65 -13 -123.5t-42.5 -113.5t-86.5 -88t-135 -33q-62 0 -111.5 22.5t-79.5 58t-50 83.5t-27.5 94.5t-7.5 95.5q0 46 7.5 90.5t27 92t49.5 82.5t79.5 58t112.5 23t112.5 -22.5t80 -57.5t50 -82t27 -91t7.5 -89z
M414 1034q0 16 -2 35.5t-7.5 50t-20 50.5t-36.5 20q-21 0 -35 -20t-19.5 -51t-7 -49.5t-1.5 -35.5q0 -21 1.5 -42t7 -55t19.5 -55.5t35 -21.5t35.5 21.5t20.5 55t8 56t2 41.5zM1223 346q0 16 -2 35.5t-7.5 50t-20 50.5t-36.5 20q-21 0 -35 -20t-19.5 -51t-7 -49.5
t-1.5 -35.5q0 -21 1.5 -42t7 -55t19.5 -55.5t35 -21.5t35.5 21.5t20.5 55t8 56t2 41.5zM1430 344q0 -65 -13 -123.5t-42.5 -113.5t-86.5 -88t-135 -33q-62 0 -111.5 22.5t-79.5 58t-50 83.5t-27.5 94.5t-7.5 95.5q0 46 7.5 90.5t27 92t49.5 82.5t79.5 58t112.5 23
t112.5 -22.5t80 -57.5t50 -82t27 -91t7.5 -89z" />
    <glyph glyph-name="ampersand" unicode="&#x26;" horiz-adv-x="1101" 
d="M920 565l141 -205q-67 -82 -150 -143l144 -217h-287l-53 80q-111 -98 -254 -98q-154 0 -258 110q-115 121 -115 291q0 115 56 213t141 170q-42 67 -64 131q-33 97 -33 184q0 136 86 217q92 88 234 88q146 0 235 -86q78 -75 78 -192q0 -130 -67 -234q-60 -92 -158 -157
l180 -295q77 62 144 143zM481 920q47 34 70 75q24 43 24 95q0 50 -22 69q-19 19 -47 19q-40 0 -60 -23q-22 -22 -22 -72q0 -84 57 -163zM588 274l-172 287q-66 -64 -66 -149q0 -34 14.5 -71t41.5 -62q39 -39 96 -39q47 0 86 34z" />
    <glyph glyph-name="quotesingle" unicode="'" horiz-adv-x="454" 
d="M369 1366l-47 -549h-189l-47 549h283z" />
    <glyph glyph-name="parenleft" unicode="(" horiz-adv-x="628" 
d="M561 -350l-252 -62q-200 453 -200 953q0 528 200 968l252 -55q-182 -454 -182 -913q0 -242 45 -453t137 -438z" />
    <glyph glyph-name="parenright" unicode=")" horiz-adv-x="628" 
d="M319 -412l-251 62q92 227 137 438t45 453q0 459 -182 913l251 55q201 -442 201 -968q0 -498 -201 -953z" />
    <glyph glyph-name="asterisk" unicode="*" horiz-adv-x="890" 
d="M766 1219l-221 -64l139 -186l-102 -74l-129 186l-134 -188l-104 76l141 184l-221 66l39 122l217 -75l-6 227h131l-8 -227l219 75z" />
    <glyph glyph-name="plus" unicode="+" 
d="M956 578h-315v-318h-256v318h-317v235h317v317h256v-317h315v-235z" />
    <glyph glyph-name="comma" unicode="," horiz-adv-x="512" 
d="M467 248l-272 -553h-181l181 553h272z" />
    <glyph glyph-name="hyphen" unicode="-" horiz-adv-x="548" 
d="M446 391h-344v221h344v-221z" />
    <glyph glyph-name="period" unicode="." horiz-adv-x="512" 
d="M428 150q0 -72 -50 -123.5t-122 -51.5q-70 0 -121 52t-51 123q0 70 51 121t121 51t121 -51t51 -121z" />
    <glyph glyph-name="slash" unicode="/" horiz-adv-x="966" 
d="M920 1493l-752 -1888h-229l757 1888h224z" />
    <glyph glyph-name="zero" unicode="0" horiz-adv-x="886" 
d="M827 688q0 -60 -3.5 -118.5t-14.5 -131t-28.5 -135.5t-47.5 -124.5t-69 -105t-96.5 -70t-127.5 -26.5q-69 0 -125.5 27t-95 71t-68 106.5t-46 125.5t-27 136t-14 131.5t-3.5 117.5q0 58 4 117t15.5 129t30 131.5t49 121t70 101.5t96.5 68t125 26q67 0 122 -26.5
t93.5 -69.5t67.5 -103.5t46.5 -122.5t28 -133t14.5 -128.5t4 -114.5zM565 614v123q0 408 -123 408q-120 0 -120 -397v-144q0 -29 1 -57t4.5 -75.5t11.5 -86.5t20.5 -77t34 -59.5t48.5 -21.5q29 0 51 22t34.5 61.5t21 78.5t11.5 89.5t4 77t1 58.5z" />
    <glyph glyph-name="one" unicode="1" horiz-adv-x="886" 
d="M604 0h-262v1128h-131v238h393v-1366z" />
    <glyph glyph-name="two" unicode="2" horiz-adv-x="886" 
d="M342 891h-248q-4 50 -4 74q0 101 16.5 174.5t56.5 131t111 86.5t175 29q173 0 269.5 -88.5t96.5 -259.5q0 -24 -2.5 -48.5t-5 -44t-10 -45t-11.5 -40.5t-15.5 -42.5t-16 -38.5t-19.5 -41l-19.5 -39t-22 -42.5t-21.5 -40.5l-199 -380h318v-236h-717l317 584q49 89 76 143
t58.5 144.5t31.5 154.5q0 29 -4.5 56t-15 55t-33 44.5t-53.5 16.5q-111 0 -111 -223q0 -55 2 -84z" />
    <glyph glyph-name="three" unicode="3" horiz-adv-x="886" 
d="M119 981v14q0 149 37 232q36 82 111.5 120.5t172.5 38.5q162 0 253 -95.5t91 -258.5q0 -117 -37.5 -200t-132.5 -125q211 -66 211 -328q0 -186 -107.5 -294t-293.5 -108q-177 0 -270 101.5t-93 279.5h254q0 -6 -1 -19.5t-1 -19.5q0 -54 26.5 -91.5t78.5 -37.5
q114 0 114 213q0 118 -42 157.5t-162 39.5v229q57 0 92.5 6.5t64 25.5t40.5 55t12 94q0 26 -4 50t-13.5 49t-29.5 39.5t-48 14.5q-25 0 -43 -13.5t-27 -31.5t-13.5 -46.5t-5.5 -46.5t-1 -44h-233z" />
    <glyph glyph-name="four" unicode="4" horiz-adv-x="886" 
d="M827 322h-110v-322h-262v322h-396v210l363 834h295v-811h110v-233zM455 555v500l-201 -500h201z" />
    <glyph glyph-name="five" unicode="5" horiz-adv-x="886" 
d="M428 1133l-37 -224q127 -12 193 -43q77 -35 127.5 -102t70 -142t19.5 -163q0 -224 -114.5 -353t-336.5 -129q-124 0 -262 64l45 235q82 -65 168 -65q102 0 156.5 73t54.5 177q0 122 -73.5 181.5t-198.5 59.5q-49 0 -107 -10l107 674h522v-233h-334z" />
    <glyph glyph-name="six" unicode="6" horiz-adv-x="886" 
d="M631 1366l-258 -539q79 76 170 76q61 0 110.5 -28t80 -72t51 -101.5t28.5 -112.5t8 -110q0 -75 -12 -144t-40 -135t-70 -115t-107 -78.5t-146 -29.5q-101 0 -176.5 40.5t-118.5 110t-64 152.5t-21 179q0 68 8.5 136t29 139.5t38.5 126.5t53 133.5t55 121t63 129.5t60 121
h258zM557 451q0 30 -4.5 62t-14.5 68.5t-32.5 59.5t-54.5 23q-34 0 -59.5 -25.5t-37.5 -65t-17 -75t-5 -68.5q0 -28 5 -61.5t16.5 -71t34 -62t52.5 -24.5q37 0 62 25.5t36 67t15 76.5t4 71z" />
    <glyph glyph-name="seven" unicode="7" horiz-adv-x="886" 
d="M840 1366l-512 -1366h-281l424 1130h-367v236h736z" />
    <glyph glyph-name="eight" unicode="8" horiz-adv-x="886" 
d="M836 377q0 -171 -110.5 -285.5t-281.5 -114.5t-281 114t-110 286q0 162 78 258q20 25 48.5 44.5t49 29.5t60.5 26q-92 39 -139.5 114.5t-47.5 176.5q0 152 94.5 256t245.5 104q152 0 246 -103.5t94 -256.5q0 -213 -184 -291q57 -23 93 -44t65 -56q80 -95 80 -258z
M516 1028q0 23 -3 45t-10.5 46.5t-24 39.5t-40.5 15t-40.5 -15t-24 -39.5t-10.5 -46t-3 -43.5q0 -23 3 -46t10.5 -50t24 -43.5t40.5 -16.5q78 0 78 154zM557 408q0 40 -9.5 81.5t-37 78t-68.5 36.5q-33 0 -57 -20t-35.5 -52t-16.5 -62.5t-5 -61.5t5 -62t16.5 -63t35.5 -52
t57 -20q41 0 68.5 36.5t37 78.5t9.5 82z" />
    <glyph glyph-name="nine" unicode="9" horiz-adv-x="886" 
d="M254 0l260 537q-87 -76 -170 -76q-61 0 -110.5 28t-80 72t-51 102t-28.5 113.5t-8 110.5q0 75 12 144t40 135t70 114t107.5 77t146.5 29q101 0 176.5 -40t118.5 -109t63.5 -151.5t20.5 -178.5q0 -267 -145 -571q-6 -13 -20.5 -41t-20.5 -41l-121 -254h-260zM553 936
q0 28 -5 61t-16 70t-33.5 61.5t-52.5 24.5q-36 0 -60.5 -25.5t-35 -67t-14.5 -75.5t-4 -70q0 -32 4 -63.5t14 -68.5t33 -60t55 -23q33 0 57.5 26t36 66.5t16.5 76.5t5 67z" />
    <glyph glyph-name="colon" unicode=":" horiz-adv-x="512" 
d="M428 760q0 -72 -50 -122t-122 -50t-122 50t-50 122q0 70 51 121t121 51t121 -51t51 -121zM428 156q0 -72 -50 -123t-122 -51q-70 0 -121 51.5t-51 122.5q0 70 51 121t121 51t121 -51t51 -121z" />
    <glyph glyph-name="semicolon" unicode=";" horiz-adv-x="512" 
d="M469 766q0 -72 -51 -123t-123 -51q-70 0 -121 51.5t-51 122.5q0 70 50.5 121t121.5 51t122.5 -51t51.5 -121zM467 248l-272 -553h-181l181 553h272z" />
    <glyph glyph-name="less" unicode="&#x3c;" 
d="M956 127l-888 448v216l888 448v-252l-618 -305l616 -303z" />
    <glyph glyph-name="equal" unicode="=" 
d="M956 760h-888v223h888v-223zM956 410h-888v223h888v-223z" />
    <glyph glyph-name="greater" unicode="&#x3e;" 
d="M956 575l-888 -448v252l618 305l-616 303l-2 252l888 -448v-216z" />
    <glyph glyph-name="question" unicode="?" horiz-adv-x="849" 
d="M315 987h-254q0 113 21 180q32 105 122 161t204 56q175 0 277.5 -113.5t102.5 -289.5q0 -150 -67 -260q-51 -84 -154 -119v-176h-266v336q28 -4 41 -4q43 0 75 19t49 51.5t24.5 68.5t7.5 76q0 27 -4 54t-13.5 56.5t-30 47.5t-49.5 18q-91 0 -86 -162zM606 150
q0 -71 -51 -122t-121 -51q-72 0 -123 50.5t-51 122.5q0 70 51.5 121t122.5 51q70 0 121 -51t51 -121z" />
    <glyph glyph-name="at" unicode="@" horiz-adv-x="1501" 
d="M1171 199l41 -160q-184 -64 -419 -64q-159 0 -281 43q-133 46 -235 147t-155.5 233t-53.5 274q0 148 56.5 281t152.5 228.5t229 151.5t280 56q131 0 249 -43.5t206.5 -120.5t140.5 -191t52 -248q0 -102 -35 -202q-41 -109 -120.5 -190t-180.5 -81q-56 0 -100.5 30.5
t-59.5 82.5q-42 -61 -110.5 -95t-143.5 -34q-85 0 -152 46t-102 118.5t-35 156.5q0 74 27 147.5t73 131.5t114.5 94.5t144.5 36.5q61 0 115 -26.5t85 -75.5l17 82l176 -2l-76 -392q-14 -68 -14 -88q0 -69 49 -69q23 0 51 20q59 46 90 135t31 174q0 203 -138.5 324
t-344.5 121q-155 0 -282.5 -74.5t-200 -203t-72.5 -283.5q0 -110 39 -213t112 -178q143 -146 402 -146q192 0 378 66zM909 707q0 58 -37 98.5t-94 40.5q-79 0 -130.5 -69t-51.5 -150q0 -64 36.5 -108t98.5 -44q55 0 97 37.5t61.5 89t19.5 105.5z" />
    <glyph glyph-name="A" unicode="A" horiz-adv-x="942" 
d="M936 0h-287l-51 229h-272l-50 -229h-270l320 1366h282zM367 440h190q-58 264 -78 394q-15 109 -22 180q-12 -194 -90 -574z" />
    <glyph glyph-name="B" unicode="B" horiz-adv-x="890" 
d="M106 1366h289q36 0 64 -2.5t69.5 -11t81 -29.5t72.5 -53q54 -53 83.5 -131.5t29.5 -163.5q0 -118 -64 -195q-48 -57 -108 -80q98 -37 147 -120q47 -80 47 -193q0 -168 -102 -270q-117 -117 -322 -117h-287v1366zM377 1143v-338q76 4 119 47t43 127q0 80 -43 123
q-41 41 -119 41zM377 596v-363q77 0 123 43q51 47 51 134q0 93 -53 143q-49 43 -121 43z" />
    <glyph glyph-name="C" unicode="C" horiz-adv-x="837" 
d="M770 311v-282q-77 -43 -186 -43q-102 0 -179.5 28t-144.5 95q-184 184 -184 553q0 383 196 581q137 137 328 137q87 0 170 -39v-278q-64 59 -149 59q-89 0 -150 -61q-113 -113 -113 -391q0 -28 2 -59t10 -91t30 -116t55 -93q58 -65 153 -65q92 0 162 65z" />
    <glyph glyph-name="D" unicode="D" horiz-adv-x="999" 
d="M106 1366h228q89 0 151 -9t125 -38q88 -40 151.5 -111.5t97.5 -161.5t49.5 -181t15.5 -189q0 -115 -17.5 -212.5t-58.5 -184.5t-103.5 -147.5t-157.5 -96t-216 -35.5h-265v1366zM377 250h8q62 -1 110.5 27.5t77 73t47.5 103.5t26 113.5t7 110.5q0 120 -32 229.5
t-107 171.5q-51 44 -137 47v-876z" />
    <glyph glyph-name="E" unicode="E" horiz-adv-x="727" 
d="M653 0h-547v1366h543v-254h-272v-295h239v-258h-239v-307h276v-252z" />
    <glyph glyph-name="F" unicode="F" horiz-adv-x="712" 
d="M651 1114h-274v-291h248v-260h-248v-563h-271v1366h545v-252z" />
    <glyph glyph-name="G" unicode="G" horiz-adv-x="1073" 
d="M559 760h438q2 -35 2 -105q0 -175 -24 -288q-36 -170 -143 -280t-271 -110q-106 0 -191.5 44t-139 115t-89.5 165t-50.5 187.5t-14.5 189.5q0 83 9.5 161.5t30.5 160.5t59 150t89.5 121.5t127.5 84t169 30.5q152 0 255 -86.5t147 -236.5l-263 -102q-6 38 -13 64.5
t-21.5 58t-40.5 48.5t-62 17q-44 0 -78.5 -25t-55 -68.5t-34.5 -91t-20 -105t-8 -97t-2 -80.5q0 -459 200 -459q161 0 166 295h-172v242z" />
    <glyph glyph-name="H" unicode="H" horiz-adv-x="1026" 
d="M920 0h-271v604h-272v-604h-271v1366h271v-506h272v506h271v-1366z" />
    <glyph glyph-name="I" unicode="I" horiz-adv-x="483" 
d="M377 0h-271v1366h271v-1366z" />
    <glyph glyph-name="J" unicode="J" horiz-adv-x="634" 
d="M528 1366v-960q0 -143 -28 -224q-33 -96 -114.5 -150.5t-184.5 -54.5q-122 0 -201 43v271q62 -76 143 -76q24 0 43 7.5t31 17.5t20.5 29.5t12.5 33t6 40t2 38.5v39v946h270z" />
    <glyph glyph-name="K" unicode="K" horiz-adv-x="925" 
d="M911 0h-282l-252 694v-694h-271v1366h271v-610l227 610h277l-252 -631z" />
    <glyph glyph-name="L" unicode="L" horiz-adv-x="673" 
d="M659 0h-553v1366h271v-1110h282v-256z" />
    <glyph glyph-name="M" unicode="M" horiz-adv-x="1323" 
d="M1278 0h-277l-67 983q-7 -116 -41 -315l-121 -668h-207l-127 618q-30 145 -35 205l-16 160l-43 -983h-289l119 1366h356l134 -807l108 807h365z" />
    <glyph glyph-name="N" unicode="N" horiz-adv-x="1058" 
d="M952 0h-254l-336 823q15 -77 15 -155v-668h-271v1366h256l336 -825q-20 102 -20 184v641h274v-1366z" />
    <glyph glyph-name="O" unicode="O" horiz-adv-x="1110" 
d="M1034 682q0 -156 -26 -283.5t-97 -228.5q-61 -87 -156.5 -140t-199.5 -53q-103 0 -198 53t-158 140q-123 169 -123 512q0 156 26 284.5t97 229.5q60 87 156 138.5t200 51.5t198.5 -51.5t157.5 -138.5q123 -169 123 -514zM748 688q0 49 -2.5 96t-14.5 115.5t-31 118
t-56.5 85.5t-88.5 36t-88.5 -36t-56.5 -85.5t-31 -118t-14.5 -115.5t-2.5 -96t2.5 -96t14.5 -115t31 -117.5t56.5 -85.5t88.5 -36t88.5 36t56.5 85.5t31 117.5t14.5 115t2.5 96z" />
    <glyph glyph-name="P" unicode="P" horiz-adv-x="890" 
d="M106 1366h328q78 0 128 -8t102 -37q91 -52 138.5 -150t47.5 -210q0 -208 -131.5 -312t-341.5 -88v-561h-271v1366zM377 788h16q96 0 142.5 40t46.5 135q0 88 -36 136t-122 48h-47v-359z" />
    <glyph glyph-name="Q" unicode="Q" horiz-adv-x="1114" 
d="M883 -117l-111 154q-78 -60 -190 -60q-199 0 -332 136q-98 99 -136 241.5t-38 333.5q0 395 174 569q61 62 140.5 95.5t162.5 33.5q89 0 169 -37t140 -98q174 -179 174 -581q0 -161 -30 -278t-95 -216l129 -180zM653 524l74 -110q25 120 25 268q0 300 -99 412
q-43 47 -94 47q-53 0 -92 -39q-45 -43 -69 -118t-28.5 -136t-4.5 -152q0 -309 94 -413q42 -45 100 -45q34 0 57 18l-112 158z" />
    <glyph glyph-name="R" unicode="R" horiz-adv-x="968" 
d="M901 0h-285l-239 629v-629h-271v1366h293q197 0 297 -66q79 -52 120.5 -141.5t41.5 -189.5q0 -117 -47 -202t-147 -146zM377 1153v-375q14 -2 45 -2q85 0 129.5 52t44.5 139t-41 136.5t-127 49.5h-51z" />
    <glyph glyph-name="S" unicode="S" horiz-adv-x="800" 
d="M670 1321v-264q-103 88 -195 88q-60 0 -97.5 -36.5t-37.5 -96.5q0 -48 22.5 -88t59 -70.5t80 -61t87 -67t80 -79t59 -106.5t22.5 -141q0 -183 -104.5 -302.5t-285.5 -119.5q-131 0 -235 70v258q110 -74 201 -74q70 0 114.5 41.5t44.5 110.5q0 38 -14 70q-7 15 -18.5 29
t-32 30t-29.5 23.5t-36.5 25.5t-28.5 19q-64 44 -105.5 81t-77.5 85t-52.5 106t-16.5 131q0 110 40 200t122.5 146.5t193.5 56.5q124 0 240 -65z" />
    <glyph glyph-name="T" unicode="T" horiz-adv-x="692" 
d="M692 1116h-211v-1116h-270v1116h-211v250h692v-250z" />
    <glyph glyph-name="U" unicode="U" horiz-adv-x="1021" 
d="M915 1366v-1018q0 -68 -8.5 -114.5t-36.5 -94.5q-27 -45 -68 -77.5t-90.5 -50.5t-99.5 -26t-104 -8q-178 0 -290 89t-112 262v1038h271v-907v-8q0 -30 0.5 -45.5t3 -43.5t7 -44t14.5 -36.5t24 -31.5t36 -19t50 -8q32 0 56 8t38 26t22.5 34.5t12 46.5t4 48t0.5 52v8v920
h270z" />
    <glyph glyph-name="V" unicode="V" horiz-adv-x="995" 
d="M995 1366l-379 -1366h-221l-395 1366h291l145 -528q45 -165 68 -371q18 231 59 371l150 528h282z" />
    <glyph glyph-name="W" unicode="W" horiz-adv-x="1421" 
d="M1415 1366l-282 -1366h-236q-94 411 -133 567q-35 143 -47 404q-19 -224 -70 -434l-129 -537h-235l-277 1366h277l110 -600q35 -198 35 -344q20 181 51 330l127 614h213l139 -686q30 -161 39 -258q0 203 37 397l99 547h282z" />
    <glyph glyph-name="X" unicode="X" horiz-adv-x="907" 
d="M907 0h-313q-13 33 -42 101t-46 109t-35.5 101t-26.5 111q-7 -35 -18 -74t-20 -67.5t-25 -74t-24 -66t-28 -73t-26 -67.5h-303l289 705l-289 661h303q9 -22 39 -91.5t46 -110t34 -99t22 -100.5q10 50 29 107t34.5 94t45 105t41.5 95h291l-291 -661z" />
    <glyph glyph-name="Y" unicode="Y" horiz-adv-x="915" 
d="M915 1366l-317 -782v-584h-270v584l-328 782h297l100 -297q44 -135 62 -203q19 79 59 205l94 295h303z" />
    <glyph glyph-name="Z" unicode="Z" horiz-adv-x="933" 
d="M897 1366l-467 -1110h428v-256h-821l455 1108h-398v258h803z" />
    <glyph glyph-name="bracketleft" unicode="[" horiz-adv-x="751" 
d="M682 -395h-545v1888h543v-252h-272v-1386h274v-250z" />
    <glyph glyph-name="backslash" unicode="\" horiz-adv-x="966" 
d="M47 1493h223l758 -1888h-229z" />
    <glyph glyph-name="bracketright" unicode="]" horiz-adv-x="749" 
d="M68 -395v250h274v1386h-272v252h542v-1888h-544z" />
    <glyph glyph-name="asciicircum" unicode="^" 
d="M1012 684h-269l-231 479l-231 -479h-269l332 682h336z" />
    <glyph glyph-name="underscore" unicode="_" 
d="M1024 -303h-1024v205h1024v-205z" />
    <glyph glyph-name="grave" unicode="`" 
d="M610 1133l-125 -74l-233 250l184 86z" />
    <glyph glyph-name="a" unicode="a" horiz-adv-x="811" 
d="M729 0h-256v104q-66 -122 -170 -122q-60 0 -106.5 35.5t-72.5 87.5t-42.5 120.5t-21.5 125t-5 110.5q0 39 2 77t9 86t18 90t30 83t44 70t62 47t81 18q113 0 172 -129v112h256v-915zM492 457q0 23 -1 48t-6.5 62.5t-14.5 65.5t-26.5 48.5t-40.5 20.5q-29 0 -49 -28.5
t-28 -74.5t-10.5 -78t-2.5 -64t3 -65t11 -78.5t28.5 -74t50.5 -28.5q28 0 47 29t26.5 75t10 78.5t2.5 63.5z" />
    <glyph glyph-name="b" unicode="b" horiz-adv-x="811" 
d="M338 1493v-690q59 129 172 129q44 0 81 -18t62 -47t44 -70t30 -83t18 -90t9 -86t2 -77q0 -54 -5 -110.5t-21.5 -125t-42.5 -120.5t-72.5 -87.5t-106.5 -35.5q-104 0 -170 122v-104h-256v1493h256zM498 457q0 32 -2.5 64.5t-10.5 78t-28.5 74t-50.5 28.5q-28 0 -47 -29
t-27 -74.5t-10.5 -78.5t-2.5 -63q0 -31 2.5 -64t10.5 -78.5t27.5 -74.5t48.5 -29t48.5 29t27.5 74t11 79t3 64z" />
    <glyph glyph-name="c" unicode="c" horiz-adv-x="575" 
d="M535 248v-234q-71 -32 -146 -32q-71 0 -129 28.5t-95.5 75t-62.5 108t-36 124.5t-11 128q0 89 18 171t57 155.5t110 117.5t166 44q62 0 129 -27v-225q-31 31 -72 31q-44 0 -75 -24.5t-46.5 -65t-22 -79.5t-6.5 -79q0 -42 5.5 -79.5t20 -77.5t45.5 -63.5t75 -23.5
q37 0 76 27z" />
    <glyph glyph-name="d" unicode="d" horiz-adv-x="811" 
d="M729 0h-256v104q-66 -122 -170 -122q-60 0 -106.5 35.5t-72.5 87.5t-42.5 120.5t-21.5 125t-5 110.5q0 39 2 77t9 86t18 90t30 83t44 70t62 47t81 18q113 0 172 -129v690h256v-1493zM492 457q0 23 -1 48t-6.5 62.5t-14.5 65.5t-26.5 48.5t-40.5 20.5q-29 0 -49 -28.5
t-28 -74.5t-10.5 -78t-2.5 -64t3 -65t11 -78.5t28.5 -74t50.5 -28.5q28 0 47 29t26.5 75t10 78.5t2.5 63.5z" />
    <glyph glyph-name="e" unicode="e" horiz-adv-x="763" 
d="M477 315h217q-2 -73 -29 -145.5t-69 -116.5q-43 -43 -91 -57t-108 -14q-67 0 -119 16.5t-100 64.5q-125 125 -125 371q0 126 33 236.5t100 177.5q84 84 209 84q119 0 197 -74q60 -58 89.5 -155t29.5 -201q0 -44 -6 -90h-406q-2 -14 -2 -52q0 -121 37 -161q22 -25 53 -25
q32 0 51 16q32 28 39 125zM303 569h184q0 45 -10.5 89t-30.5 61q-21 18 -47 18q-33 0 -57 -24q-19 -20 -29 -62.5t-10 -81.5z" />
    <glyph glyph-name="f" unicode="f" horiz-adv-x="493" 
d="M483 702h-116v-702h-256v702h-95v213h95v310q0 41 0.5 59.5t6.5 49.5t19 57q30 61 96 91.5t140 30.5q48 0 110 -20v-246q-26 15 -45 15q-23 0 -38.5 -10t-22 -28.5t-8.5 -35t-2 -39.5v-234h116v-213z" />
    <glyph glyph-name="g" unicode="g" horiz-adv-x="821" 
d="M739 915v-972q0 -113 -26 -174q-41 -96 -129 -143.5t-199 -47.5q-295 0 -322 318h226q10 -111 94 -111q34 0 55.5 19t30 54t10.5 60t2 62v135q-19 -32 -32.5 -50.5t-35 -40.5t-47 -32t-57.5 -10q-59 0 -106 34t-74 85t-45 116.5t-24.5 122.5t-6.5 109q0 38 2 76.5t9 88
t18 92.5t30 85.5t44 72.5t62 49t81 19q110 0 182 -127v110h258zM494 459q0 29 -3 62.5t-11 78t-27 73.5t-47 29q-30 0 -50.5 -28t-28.5 -73t-11 -77.5t-3 -64.5t3 -64.5t11 -78t28.5 -73.5t50.5 -28q28 0 47 29t27 74t11 78t3 63z" />
    <glyph glyph-name="h" unicode="h" horiz-adv-x="806" 
d="M725 0h-256v561q0 115 -61 115q-25 0 -40.5 -13t-21.5 -38.5t-7 -42t-1 -45.5v-7v-530h-256v1493h256v-721q82 160 217 160q33 0 59 -9t43.5 -23t30.5 -36t20 -43.5t11 -51.5t5 -53t1 -54v-662z" />
    <glyph glyph-name="i" unicode="i" horiz-adv-x="421" 
d="M377 1214q0 -67 -47 -114t-115 -47t-115 47t-47 114q0 68 47.5 115t114.5 47t114.5 -47t47.5 -115zM342 0h-256v915h256v-915z" />
    <glyph glyph-name="j" unicode="j" horiz-adv-x="421" 
d="M377 1214q0 -67 -47 -114t-115 -47t-115 47t-47 114q0 68 47.5 115t114.5 47t114.5 -47t47.5 -115zM342 -422h-256v1337h256v-1337z" />
    <glyph glyph-name="k" unicode="k" horiz-adv-x="796" 
d="M803 0h-271l-194 473v-473h-256v1493h256v-930l151 352h267l-201 -383z" />
    <glyph glyph-name="l" unicode="l" horiz-adv-x="419" 
d="M338 0h-256v1493h256v-1493z" />
    <glyph glyph-name="m" unicode="m" horiz-adv-x="1191" 
d="M1112 0h-256v549q0 129 -65 129q-14 0 -24.5 -5t-17.5 -12t-12 -20.5t-7.5 -23t-3.5 -27t-1 -26v-25.5v-21v-518h-256v567q0 21 -1.5 35t-6.5 33t-18 29t-33 10q-25 0 -41 -13t-22 -38.5t-7.5 -42.5t-1.5 -45v-535h-256v915h256v-147q44 77 97.5 120.5t129.5 43.5
q124 0 160 -156q36 66 93 111t124 45q42 0 74 -15t49.5 -38.5t28.5 -58.5t14.5 -67.5t3.5 -72.5v-680z" />
    <glyph glyph-name="n" unicode="n" horiz-adv-x="806" 
d="M725 0h-256v561q0 115 -61 115q-25 0 -40.5 -13t-21.5 -38.5t-7 -42t-1 -45.5v-7v-530h-256v915h256v-143q82 160 217 160q33 0 59 -9t43.5 -23t30.5 -36t20 -43.5t11 -51.5t5 -53t1 -54v-662z" />
    <glyph glyph-name="o" unicode="o" horiz-adv-x="802" 
d="M748 457q0 -72 -9.5 -136.5t-34.5 -127.5t-63 -109t-99 -74t-139 -28q-76 0 -136.5 28.5t-99.5 75t-65 109.5t-36.5 127.5t-10.5 134.5t10.5 134.5t36.5 127.5t65 109.5t99.5 75t136.5 28.5q79 0 140 -28t99 -73.5t62.5 -109t34 -128t9.5 -136.5zM489 457q0 31 -2.5 63.5
t-10 78t-26.5 74.5t-47 29q-29 0 -49 -28.5t-28 -74t-10.5 -78t-2.5 -64.5t2.5 -65t10.5 -78.5t28 -74t49 -28.5q28 0 47 29t26.5 75t10 78.5t2.5 63.5z" />
    <glyph glyph-name="p" unicode="p" horiz-adv-x="811" 
d="M338 915v-112q59 129 172 129q44 0 81 -18t62 -47t44 -70t30 -83t18 -90t9 -86t2 -77q0 -54 -5 -110.5t-21.5 -125t-42.5 -120.5t-72.5 -87.5t-106.5 -35.5q-104 0 -170 122v-526h-256v1337h256zM498 457q0 32 -2.5 64.5t-10.5 78t-28.5 74t-50.5 28.5q-28 0 -47 -29
t-27 -74.5t-10.5 -78.5t-2.5 -63q0 -31 2.5 -64t10.5 -78.5t27.5 -74.5t48.5 -29t48.5 29t27.5 74t11 79t3 64z" />
    <glyph glyph-name="q" unicode="q" horiz-adv-x="811" 
d="M729 -422h-256v526q-66 -122 -170 -122q-60 0 -106.5 35.5t-72.5 87.5t-42.5 120.5t-21.5 125t-5 110.5q0 39 2 77t9 86t18 90t30 83t44 70t62 47t81 18q113 0 172 -129v112h256v-1337zM492 457q0 23 -1 48t-6.5 62.5t-14.5 65.5t-26.5 48.5t-40.5 20.5q-29 0 -49 -28.5
t-28 -74.5t-10.5 -78t-2.5 -64t3 -65t11 -78.5t28.5 -74t50.5 -28.5q28 0 47 29t26.5 75t10 78.5t2.5 63.5z" />
    <glyph glyph-name="r" unicode="r" horiz-adv-x="569" 
d="M549 948v-248q-30 5 -37 5q-45 0 -77 -10.5t-51 -28t-29.5 -47t-13.5 -60t-3 -74.5v-485h-256v915h256v-112q46 67 91.5 100.5t119.5 44.5z" />
    <glyph glyph-name="s" unicode="s" horiz-adv-x="645" 
d="M612 854l-102 -186q-32 30 -59 45.5t-62 15.5q-29 0 -47 -18t-18 -47q0 -25 21 -46.5t53 -36t69 -38t69 -51.5t53 -78t21 -115q0 -136 -77 -226.5t-211 -90.5q-144 0 -279 104l113 182q68 -57 125 -57q35 0 58 21t23 55q0 26 -22 48.5t-55.5 38.5t-72 40.5t-72 53
t-55.5 79t-22 115.5q0 127 88 198.5t218 71.5q71 0 127.5 -18t115.5 -60z" />
    <glyph glyph-name="t" unicode="t" horiz-adv-x="471" 
d="M467 702h-105v-702h-256v702h-88v213h88v261h256v-261h105v-213z" />
    <glyph glyph-name="u" unicode="u" horiz-adv-x="804" 
d="M723 915v-618q0 -56 -8.5 -95t-34.5 -79q-43 -67 -119.5 -104t-161.5 -37t-162 37.5t-118 105.5q-37 61 -37 158v632h256v-563q0 -133 63 -133q16 0 28 6.5t19 19.5t11 26t5.5 32.5t1.5 31.5t-0.5 31.5t-0.5 24.5v524h258z" />
    <glyph glyph-name="v" unicode="v" horiz-adv-x="749" 
d="M758 915l-266 -915h-236l-262 915h252q10 -42 31.5 -126t34.5 -135t30 -123.5t29 -133.5q3 23 13.5 63t12.5 50l95 405h266z" />
    <glyph glyph-name="w" unicode="w" horiz-adv-x="1187" 
d="M1194 915l-252 -915h-211q-10 37 -38 137.5t-41.5 152t-31.5 133t-28 150.5q-6 -47 -15.5 -99.5t-17 -91t-22.5 -100.5t-22 -90t-26 -100t-24 -92h-213l-258 915h248q7 -29 26.5 -103.5t29 -114t24 -100.5t25.5 -114.5t20 -105.5l120 538h220q94 -406 116 -538
q25 124 129 538h242z" />
    <glyph glyph-name="x" unicode="x" horiz-adv-x="788" 
d="M797 0h-271l-84 160q-35 68 -49 116q-23 -63 -53 -122l-84 -154h-262l262 492l-227 423h264l49 -96q32 -63 51 -133q14 61 56 139l47 90h264l-234 -423z" />
    <glyph glyph-name="y" unicode="y" horiz-adv-x="749" 
d="M756 915l-385 -1337h-252l141 440l-266 897h256l88 -333q33 -126 41 -189l121 522h256z" />
    <glyph glyph-name="z" unicode="z" horiz-adv-x="698" 
d="M670 915l-283 -704h254v-211h-614l290 702h-260v213h613z" />
    <glyph glyph-name="braceleft" unicode="{" 
d="M821 -164v-225q-147 -6 -149 -6q-164 0 -237 67t-73 230v368q0 75 -23 119.5t-89 56.5v218q61 13 86.5 52t25.5 105v377q0 88 19.5 145.5t62.5 90.5t101 46t145 13q22 0 66 -2t65 -2v-225h-20q-47 0 -69.5 -1t-48 -7.5t-35 -17t-19 -32.5t-11.5 -51.5t-2 -77.5
q0 -41 1 -112t1 -115q0 -142 -24 -201q-9 -24 -27 -44.5t-31 -30t-42 -29.5q75 -48 98.5 -103.5t23.5 -154.5q0 -33 -1 -115t-1 -139q0 -33 0.5 -51t3.5 -43t8 -38t15 -28.5t25 -23t37 -12.5t51 -5q21 0 67 4z" />
    <glyph glyph-name="bar" unicode="|" 
d="M639 -512h-256v2048h256v-2048z" />
    <glyph glyph-name="braceright" unicode="}" 
d="M248 -389v225q46 -4 67 -4q26 0 46 3t34.5 11.5t25 16.5t17 24.5t10 28.5t5 36.5t2 40t0.5 46.5q0 46 -1 124t-1 124q0 99 23.5 154.5t98.5 103.5q-29 20 -42 29.5t-31 30t-27 44.5q-24 59 -24 201q0 44 1 115t1 112q0 48 -2 77.5t-11.5 51.5t-19 32.5t-35 17t-48 7.5
t-69.5 1h-20v225q22 0 66 2t65 2q87 0 145 -13t101 -46t62.5 -90.5t19.5 -145.5v-377q0 -66 25.5 -105t86.5 -52v-218q-66 -12 -89 -56.5t-23 -119.5v-368q0 -163 -73 -230t-237 -67q-2 0 -149 6z" />
    <glyph glyph-name="asciitilde" unicode="~" horiz-adv-x="1366" 
d="M1034 1528l146 -84q-29 -63 -55 -105t-64.5 -83t-89.5 -61.5t-115 -20.5q-67 0 -190.5 52t-188.5 52q-30 0 -53.5 -9.5t-41.5 -30t-29.5 -38.5t-26.5 -49l-142 92q9 16 22.5 48t18.5 42q91 191 269 191q59 0 131 -26t140.5 -52.5t119.5 -26.5q54 0 86.5 27t62.5 82z" />
    <glyph glyph-name="uni00A0" unicode="&#xa0;" horiz-adv-x="477" 
 />
    <glyph glyph-name="exclamdown" unicode="&#xa1;" horiz-adv-x="589" 
d="M467 758q0 -70 -50.5 -121t-121.5 -51t-121.5 51t-50.5 121q0 71 51 122.5t121 51.5q72 0 122 -51t50 -123zM430 -457h-268v955h268v-955z" />
    <glyph glyph-name="cent" unicode="&#xa2;" horiz-adv-x="886" 
d="M682 467v-229q-44 -20 -98 -35v-156h-148v164q-63 23 -109 68.5t-71.5 106t-37 126t-11.5 139.5q0 77 10.5 148.5t34.5 144t71 127t113 78.5v188h148v-176q33 0 98 -26v-230q-39 27 -68 27q-41 0 -71.5 -27.5t-45.5 -71t-21.5 -84.5t-6.5 -79t6 -73.5t20 -72t42.5 -58.5
t68.5 -22q38 0 76 23z" />
    <glyph glyph-name="sterling" unicode="&#xa3;" horiz-adv-x="886" 
d="M846 1053l-230 -68q-2 41 -4.5 61t-8.5 42.5t-17 37.5q-27 39 -82 39q-58 0 -90 -37q-37 -41 -37 -135q0 -78 35 -239h229v-164h-209q14 -63 14 -101q0 -121 -84 -221q39 0 69.5 -11.5t72.5 -35.5q64 -33 121 -33q74 0 114 72l140 -113q-26 -76 -93 -127
q-58 -43 -149 -43q-88 0 -186 37q-107 43 -181 43q-78 0 -155 -57l-109 147q80 62 160 86q37 75 37 177t-31 180h-154v164h123q-35 123 -35 239q0 179 105 287q104 106 291 106q163 0 252 -96q38 -42 62.5 -107t29.5 -130z" />
    <glyph glyph-name="currency" unicode="&#xa4;" horiz-adv-x="1366" 
d="M1319 281l-137 -142l-209 209q-137 -92 -291 -92q-83 0 -148 22t-139 70l-209 -207l-139 138l209 208q-90 137 -90 283q0 150 92 283l-213 211l139 139l213 -211q137 90 287 90q152 0 283 -88l209 207l139 -137l-209 -209q94 -139 94 -285q0 -142 -90 -281zM967 770
q0 117 -83 201t-200 84q-118 0 -201.5 -83.5t-83.5 -201.5q0 -119 83.5 -203t201.5 -84q117 0 200 85t83 202z" />
    <glyph glyph-name="yen" unicode="&#xa5;" horiz-adv-x="886" 
d="M901 1366l-207 -467h166v-139h-227l-49 -113h276v-139h-276v-508h-271v508h-286v139h286l-49 113h-237v139h172l-213 467h297l137 -358q16 -42 24 -80q29 89 156 438h301z" />
    <glyph glyph-name="brokenbar" unicode="&#xa6;" 
d="M639 686h-256v850h256v-850zM639 -512h-256v850h256v-850z" />
    <glyph glyph-name="section" unicode="&#xa7;" horiz-adv-x="886" 
d="M768 1151h-233q-12 162 -89 162q-40 0 -60.5 -36.5t-20.5 -80.5q0 -57 28 -105t72.5 -83t91 -64.5t94.5 -65t72 -69.5q68 -95 68 -274q0 -234 -144 -342q111 -94 111 -291q0 -140 -87.5 -232t-226.5 -92q-89 0 -164.5 45.5t-113.5 124.5q-15 31 -25 72t-13 67t-7 76h237
l2 -37q1 -6 2.5 -27t2.5 -29.5t4.5 -26t9 -25.5t14 -18.5t21.5 -14.5t30 -4q29 0 49 20.5t26.5 43t6.5 42.5q0 54 -18.5 96t-48.5 67.5t-69 51.5t-79 47.5t-79 56t-69 76.5t-48.5 110t-18.5 155q0 104 40 196t118 150q-65 63 -92 128.5t-27 178.5q0 137 89 226.5t225 89.5
q139 0 221.5 -85t93.5 -225zM559 518q0 42 -3 73.5t-13 74.5t-35.5 67.5t-65.5 24.5q-35 0 -59.5 -22.5t-35.5 -59.5t-15 -69t-4 -66q0 -36 4 -67.5t14.5 -69t35 -60t60.5 -22.5q117 0 117 196z" />
    <glyph glyph-name="dieresis" unicode="&#xa8;" horiz-adv-x="972" 
d="M803 1194q0 -56 -39.5 -95.5t-95.5 -39.5t-96 40t-40 95t40 95t96 40t95.5 -39.5t39.5 -95.5zM440 1194q0 -56 -40 -95.5t-95 -39.5t-95 39.5t-40 95.5t40 95.5t95 39.5t95 -39.5t40 -95.5z" />
    <glyph glyph-name="copyright" unicode="&#xa9;" horiz-adv-x="1560" 
d="M1491 682q0 -144 -56 -276t-150.5 -227.5t-226 -152.5t-276.5 -57q-193 0 -357 95.5t-259.5 260t-95.5 357.5t95.5 357.5t259.5 260t357 95.5q145 0 276.5 -57t226 -152.5t150.5 -227.5t56 -276zM1352 682q0 117 -44 225.5t-119 188.5t-181.5 128t-225.5 48
q-159 0 -291 -80t-207 -215t-75 -293t75 -293.5t207.5 -216t290.5 -80.5q157 0 289 81t206.5 216t74.5 291zM940 449v-168q-49 -17 -90 -17q-116 0 -206.5 59t-138.5 155t-48 210q0 166 109.5 290t273.5 124q44 0 100 -17v-163q-42 10 -74 10q-100 0 -155.5 -70.5
t-55.5 -173.5q0 -99 56.5 -176.5t150.5 -77.5q31 0 78 15z" />
    <glyph glyph-name="ordfeminine" unicode="&#xaa;" horiz-adv-x="591" 
d="M502 762h-178v41q-42 -51 -99 -51q-48 0 -82.5 30t-51.5 80t-24.5 100.5t-7.5 106.5q0 309 164 309q58 0 101 -53v41h178v-604zM502 608h-434v90h434v-90zM336 1067q0 164 -49 164t-49 -164t51 -164q47 0 47 164z" />
    <glyph glyph-name="guillemotleft" unicode="&#xab;" horiz-adv-x="811" 
d="M750 135l-138 -78l-237 422l237 422l138 -70l-185 -352zM436 135l-139 -78l-236 422l236 422l139 -70l-186 -352z" />
    <glyph glyph-name="logicalnot" unicode="&#xac;" 
d="M956 0h-256v315h-632v232h888v-547z" />
    <glyph glyph-name="uni00AD" unicode="&#xad;" horiz-adv-x="548" 
d="M446 391h-344v221h344v-221z" />
    <glyph glyph-name="registered" unicode="&#xae;" horiz-adv-x="1587" 
d="M1075 297h-198l-132 346v-346h-184v799h193q59 0 108 -11.5t91.5 -37t66.5 -72t24 -109.5q0 -78 -29.5 -127t-92.5 -80zM745 758h13q55 0 77.5 25t22.5 85q0 45 -21 66.5t-75 21.5h-17v-198zM1364 682q0 157 -74 292.5t-205.5 216.5t-289.5 81q-119 0 -226 -47.5
t-183 -127t-120.5 -187.5t-44.5 -226t44.5 -226.5t120.5 -188.5t183 -127.5t226 -47.5q118 0 224.5 48t181.5 128t119 187.5t44 224.5zM1503 682q0 -144 -56 -276t-150.5 -227.5t-225.5 -152.5t-276 -57t-277 56.5t-227.5 152t-152 227.5t-56.5 277t56.5 277t152 227.5
t227.5 152t277 56.5t276 -57t225.5 -152.5t150.5 -227.5t56 -276z" />
    <glyph glyph-name="macron" unicode="&#xaf;" 
d="M805 1087h-586v164h586v-164z" />
    <glyph glyph-name="degree" unicode="&#xb0;" 
d="M825 1047q0 -128 -92.5 -219t-220.5 -91q-130 0 -221.5 90t-91.5 220q0 128 92.5 217.5t220.5 89.5t220.5 -89.5t92.5 -217.5zM672 1044q0 66 -47 112t-113 46q-65 0 -112.5 -45t-47.5 -110q0 -66 47 -113t113 -47q65 0 112.5 46.5t47.5 110.5z" />
    <glyph glyph-name="plusminus" unicode="&#xb1;" 
d="M956 729h-315v-317h-256v317h-317v236h317v317h256v-317h315v-236zM956 104h-888v238h888v-238z" />
    <glyph glyph-name="twosuperior" unicode="&#xb2;" horiz-adv-x="585" 
d="M229 1071h-170q-2 18 -2 53q0 133 55 194.5t185 61.5q105 0 167 -55.5t62 -159.5q0 -18 -2.5 -36.5t-5 -33t-9.5 -33.5t-11 -29t-14.5 -31t-14.5 -28.5t-17 -31t-16 -29.5l-119 -215h195v-151h-469l205 354q32 55 47.5 83.5t36 82t20.5 92.5q0 37 -14 65.5t-47 28.5
q-77 0 -62 -182z" />
    <glyph glyph-name="threesuperior" unicode="&#xb3;" horiz-adv-x="587" 
d="M246 1124h-164q0 126 46 190t169 64q99 0 159 -59t60 -158q0 -143 -94 -190q121 -41 121 -201q0 -107 -72.5 -171t-181.5 -64q-242 0 -242 237h174q0 -5 -1 -15.5t-1 -15.5q0 -30 14.5 -49.5t42.5 -19.5q68 0 68 121q0 72 -26.5 90t-102.5 18v148q38 0 57.5 2.5t39 11.5
t27 30t7.5 56q0 84 -51 84q-34 0 -44.5 -36t-4.5 -73z" />
    <glyph glyph-name="acute" unicode="&#xb4;" 
d="M774 1309l-235 -250l-123 74l174 262z" />
    <glyph glyph-name="mu" unicode="&#xb5;" 
d="M969 0h-254v119q-69 -139 -203 -139q-69 0 -116.5 31.5t-82.5 94.5v-528h-256v1337h256v-464q0 -41 1 -64t9.5 -57t24.5 -60q27 -42 73 -66t97 -24q62 0 113 39q52 40 68 101.5t16 148.5v446h254v-915z" />
    <glyph glyph-name="mu" unicode="&#x3bc;" 
d="M969 0h-254v119q-69 -139 -203 -139q-69 0 -116.5 31.5t-82.5 94.5v-528h-256v1337h256v-464q0 -41 1 -64t9.5 -57t24.5 -60q27 -42 73 -66t97 -24q62 0 113 39q52 40 68 101.5t16 148.5v446h254v-915z" />
    <glyph glyph-name="paragraph" unicode="&#xb6;" horiz-adv-x="1349" 
d="M1200 1167h-147v-1372h-217v1372h-174v-1372h-218v862q-8 -2 -22 -2q-160 0 -263.5 95.5t-103.5 253.5q0 362 471 362h674v-199z" />
    <glyph glyph-name="periodcentered" unicode="&#xb7;" horiz-adv-x="581" 
d="M498 684q0 -86 -60.5 -146.5t-146.5 -60.5t-146.5 60.5t-60.5 146.5t60.5 146.5t146.5 60.5t146.5 -60.5t60.5 -146.5z" />
    <glyph glyph-name="cedilla" unicode="&#xb8;" 
d="M680 -160l-199 -252l-121 68l150 258z" />
    <glyph glyph-name="onesuperior" unicode="&#xb9;" horiz-adv-x="585" 
d="M393 547h-178v665h-82v154h260v-819z" />
    <glyph glyph-name="ordmasculine" unicode="&#xba;" horiz-adv-x="591" 
d="M518 1069q0 -317 -225 -317q-116 0 -173 86.5t-57 224.5q0 140 56.5 227.5t171.5 87.5q227 0 227 -309zM510 608h-440v90h440v-90zM340 1059q0 168 -49 168q-51 0 -51 -172q0 -152 51 -152q49 0 49 156z" />
    <glyph glyph-name="guillemotright" unicode="&#xbb;" horiz-adv-x="811" 
d="M750 479l-236 -422l-139 78l186 344l-186 352l139 70zM436 479l-237 -422l-138 78l187 344l-187 352l138 70z" />
    <glyph glyph-name="onequarter" unicode="&#xbc;" horiz-adv-x="1474" 
d="M1423 188h-69v-188h-178v188h-250v134l231 497h197v-479h69v-152zM1126 1366l-649 -1366h-158l650 1366h157zM393 547h-178v665h-82v154h260v-819zM1176 340v256l-111 -256h111z" />
    <glyph glyph-name="onehalf" unicode="&#xbd;" horiz-adv-x="1472" 
d="M1116 526h-170q-2 18 -2 54q0 132 54.5 193t185.5 61q106 0 167.5 -54.5t61.5 -158.5q0 -45 -15 -94t-29.5 -77t-45.5 -83l-119 -215h195v-152h-469l205 354q31 52 47.5 83t36.5 84.5t20 92.5q0 37 -14 66t-47 29q-77 0 -62 -183zM1126 1366l-649 -1366h-158l650 1366
h157zM393 547h-178v665h-82v154h260v-819z" />
    <glyph glyph-name="threequarters" unicode="&#xbe;" horiz-adv-x="1474" 
d="M1425 188h-69v-188h-178v188h-250v134l231 497h197v-479h69v-152zM1128 1366l-649 -1366h-157l649 1366h157zM246 1124h-164q0 126 46 190t169 64q99 0 159 -59t60 -158q0 -143 -94 -190q121 -41 121 -201q0 -107 -72.5 -171t-181.5 -64q-242 0 -242 237h174
q0 -5 -1 -15.5t-1 -15.5q0 -30 14.5 -49.5t42.5 -19.5q68 0 68 121q0 72 -26.5 90t-102.5 18v148q38 0 57.5 2.5t39 11.5t27 30t7.5 56q0 84 -51 84q-34 0 -44.5 -36t-4.5 -73zM1178 340v256l-111 -256h111z" />
    <glyph glyph-name="questiondown" unicode="&#xbf;" horiz-adv-x="847" 
d="M588 758q0 -70 -51.5 -121t-122.5 -51q-70 0 -121 51t-51 121q0 71 51 122.5t121 51.5q72 0 123 -51t51 -123zM532 -80h254q0 -117 -20 -180q-31 -104 -121.5 -160.5t-204.5 -56.5q-174 0 -276.5 115t-102.5 290q0 146 66 260q50 82 154 117v176h266v-334q-21 3 -41 3
q-43 0 -75 -18.5t-49 -50.5t-24.5 -68t-7.5 -76q0 -27 4 -54t13 -56.5t29.5 -48t49.5 -18.5q20 0 35 7t24 21t15 28.5t8 35t3 35t1 33.5z" />
    <glyph glyph-name="Agrave" unicode="&#xc0;" horiz-adv-x="942" 
d="M936 0h-287l-51 229h-272l-50 -229h-270l320 1366h282zM367 440h190q-58 264 -78 394q-15 109 -22 180q-12 -194 -90 -574zM569 1556l-125 -73l-233 250l184 86z" />
    <glyph glyph-name="Aacute" unicode="&#xc1;" horiz-adv-x="942" 
d="M936 0h-287l-51 229h-272l-50 -229h-270l320 1366h282zM367 440h190q-58 264 -78 394q-15 109 -22 180q-12 -194 -90 -574zM723 1733l-236 -250l-122 73l174 263z" />
    <glyph glyph-name="Acircumflex" unicode="&#xc2;" horiz-adv-x="942" 
d="M936 0h-287l-51 229h-272l-50 -229h-270l320 1366h282zM367 440h190q-58 264 -78 394q-15 109 -22 180q-12 -194 -90 -574zM733 1595l-110 -112l-154 127l-160 -127l-100 127l260 205z" />
    <glyph glyph-name="Atilde" unicode="&#xc3;" horiz-adv-x="942" 
d="M936 0h-287l-51 229h-272l-50 -229h-270l320 1366h282zM367 440h190q-58 264 -78 394q-15 109 -22 180q-12 -194 -90 -574zM631 1733l135 -9q-6 -38 -12 -65.5t-19.5 -63.5t-31 -58t-47.5 -38t-68 -16q-43 0 -116.5 31.5t-104.5 31.5q-48 0 -58 -57h-133q4 40 9 68.5
t17.5 64t30 57t47.5 37t70 15.5q45 0 113 -35t102 -35q16 0 27 3.5t17.5 12t9.5 15t6.5 21t5.5 20.5z" />
    <glyph glyph-name="Adieresis" unicode="&#xc4;" horiz-adv-x="942" 
d="M936 0h-287l-51 229h-272l-50 -229h-270l320 1366h282zM367 440h190q-58 264 -78 394q-15 109 -22 180q-12 -194 -90 -574zM778 1618q0 -56 -40 -95.5t-95 -39.5t-95 39.5t-40 95.5t40 95.5t95 39.5t95 -39.5t40 -95.5zM430 1618q0 -56 -40 -95.5t-95 -39.5t-95 39.5
t-40 95.5t40 95.5t95 39.5t95 -39.5t40 -95.5z" />
    <glyph glyph-name="Aring" unicode="&#xc5;" horiz-adv-x="942" 
d="M936 0h-287l-51 229h-272l-50 -229h-270l320 1366h282zM367 440h190q-58 264 -78 394q-15 109 -22 180q-12 -194 -90 -574zM264 1659q0 82 57.5 139t139.5 57t139 -57t57 -139t-57 -139.5t-139 -57.5t-139.5 57.5t-57.5 139.5zM377 1659q0 -37 23.5 -60.5t60.5 -23.5
t60.5 23.5t23.5 60.5t-23.5 60.5t-60.5 23.5t-60.5 -23.5t-23.5 -60.5z" />
    <glyph glyph-name="AE" unicode="&#xc6;" horiz-adv-x="1212" 
d="M1198 0h-547l-51 227h-283l-41 -227h-270l311 1366h557l58 -254h-270l69 -283h270l62 -258h-266l77 -315h261zM362 442h193q-10 48 -31.5 144.5t-31.5 144.5q-25 114 -39 281q-3 -35 -7 -73.5t-7.5 -69t-11 -75t-11 -68t-13 -74t-13 -67.5t-15 -74t-13.5 -69z" />
    <glyph glyph-name="Ccedilla" unicode="&#xc7;" horiz-adv-x="837" 
d="M770 311v-282q-77 -43 -186 -43q-102 0 -179.5 28t-144.5 95q-184 184 -184 553q0 383 196 581q137 137 328 137q87 0 170 -39v-278q-64 59 -149 59q-89 0 -150 -61q-113 -113 -113 -391q0 -28 2 -59t10 -91t30 -116t55 -93q58 -65 153 -65q92 0 162 65zM692 -164
l-205 -256l-125 72l156 262z" />
    <glyph glyph-name="Egrave" unicode="&#xc8;" horiz-adv-x="727" 
d="M653 0h-547v1366h543v-254h-272v-295h239v-258h-239v-307h276v-252zM508 1556l-125 -73l-233 250l184 86z" />
    <glyph glyph-name="Eacute" unicode="&#xc9;" horiz-adv-x="727" 
d="M653 0h-547v1366h543v-254h-272v-295h239v-258h-239v-307h276v-252zM610 1733l-235 -250l-123 73l174 263z" />
    <glyph glyph-name="Ecircumflex" unicode="&#xca;" horiz-adv-x="727" 
d="M653 0h-547v1366h543v-254h-272v-295h239v-258h-239v-307h276v-252zM651 1595l-110 -112l-154 127l-160 -127l-100 127l260 205z" />
    <glyph glyph-name="Edieresis" unicode="&#xcb;" horiz-adv-x="727" 
d="M653 0h-547v1366h543v-254h-272v-295h239v-258h-239v-307h276v-252zM686 1618q0 -56 -40 -95.5t-95 -39.5t-95 39.5t-40 95.5t40 95.5t95 39.5t95 -39.5t40 -95.5zM338 1618q0 -56 -40 -95.5t-95 -39.5t-95 39.5t-40 95.5t40 95.5t95 39.5t95 -39.5t40 -95.5z" />
    <glyph glyph-name="Igrave" unicode="&#xcc;" horiz-adv-x="483" 
d="M377 0h-271v1366h271v-1366zM385 1556l-125 -73l-233 250l184 86z" />
    <glyph glyph-name="Iacute" unicode="&#xcd;" horiz-adv-x="483" 
d="M377 0h-271v1366h271v-1366zM487 1733l-235 -250l-123 73l174 263z" />
    <glyph glyph-name="Icircumflex" unicode="&#xce;" horiz-adv-x="483" 
d="M377 0h-271v1366h271v-1366zM504 1595l-111 -112l-153 127l-160 -127l-100 127l260 205z" />
    <glyph glyph-name="Idieresis" unicode="&#xcf;" horiz-adv-x="483" 
d="M377 0h-271v1366h271v-1366zM553 1618q0 -56 -39.5 -95.5t-95.5 -39.5t-95.5 39.5t-39.5 95.5t39.5 95.5t95.5 39.5t95.5 -39.5t39.5 -95.5zM205 1618q0 -56 -39.5 -95.5t-95.5 -39.5t-96 40t-40 95t40 95t96 40t95.5 -39.5t39.5 -95.5z" />
    <glyph glyph-name="Eth" unicode="&#xd0;" horiz-adv-x="999" 
d="M106 1366h228q142 0 237.5 -30t180.5 -119q174 -182 174 -541q0 -115 -17.5 -213t-59 -185t-104 -147.5t-158 -95.5t-216.5 -35h-265v580h-108v219h108v567zM377 580v-332q58 2 96.5 16.5t75.5 54.5q54 58 79 157.5t25 197.5q0 108 -25.5 212t-84.5 167
q-36 39 -72.5 54.5t-93.5 18.5v-327h137v-219h-137z" />
    <glyph glyph-name="Ntilde" unicode="&#xd1;" horiz-adv-x="1058" 
d="M952 0h-254l-336 823q15 -77 15 -155v-668h-271v1366h256l336 -825q-20 102 -20 184v641h274v-1366zM688 1733l135 -9q-6 -38 -12 -65.5t-19.5 -63.5t-31 -58t-47.5 -38t-68 -16q-43 0 -116.5 31.5t-104.5 31.5q-47 0 -57 -57h-134q4 40 9 68.5t17.5 64t30 57t48 37
t70.5 15.5q45 0 113 -35t102 -35q20 0 32.5 7.5t16.5 13.5t9 26t7 25z" />
    <glyph glyph-name="Ograve" unicode="&#xd2;" horiz-adv-x="1110" 
d="M1034 682q0 -156 -26 -283.5t-97 -228.5q-61 -87 -156.5 -140t-199.5 -53q-103 0 -198 53t-158 140q-123 169 -123 512q0 156 26 284.5t97 229.5q60 87 156 138.5t200 51.5t198.5 -51.5t157.5 -138.5q123 -169 123 -514zM748 688q0 49 -2.5 96t-14.5 115.5t-31 118
t-56.5 85.5t-88.5 36t-88.5 -36t-56.5 -85.5t-31 -118t-14.5 -115.5t-2.5 -96t2.5 -96t14.5 -115t31 -117.5t56.5 -85.5t88.5 -36t88.5 36t56.5 85.5t31 117.5t14.5 115t2.5 96zM672 1556l-125 -73l-234 250l185 86z" />
    <glyph glyph-name="Oacute" unicode="&#xd3;" horiz-adv-x="1110" 
d="M1034 682q0 -156 -26 -283.5t-97 -228.5q-61 -87 -156.5 -140t-199.5 -53q-103 0 -198 53t-158 140q-123 169 -123 512q0 156 26 284.5t97 229.5q60 87 156 138.5t200 51.5t198.5 -51.5t157.5 -138.5q123 -169 123 -514zM748 688q0 49 -2.5 96t-14.5 115.5t-31 118
t-56.5 85.5t-88.5 36t-88.5 -36t-56.5 -85.5t-31 -118t-14.5 -115.5t-2.5 -96t2.5 -96t14.5 -115t31 -117.5t56.5 -85.5t88.5 -36t88.5 36t56.5 85.5t31 117.5t14.5 115t2.5 96zM817 1733l-235 -250l-123 73l174 263z" />
    <glyph glyph-name="Ocircumflex" unicode="&#xd4;" horiz-adv-x="1110" 
d="M1034 682q0 -156 -26 -283.5t-97 -228.5q-61 -87 -156.5 -140t-199.5 -53q-103 0 -198 53t-158 140q-123 169 -123 512q0 156 26 284.5t97 229.5q60 87 156 138.5t200 51.5t198.5 -51.5t157.5 -138.5q123 -169 123 -514zM748 688q0 49 -2.5 96t-14.5 115.5t-31 118
t-56.5 85.5t-88.5 36t-88.5 -36t-56.5 -85.5t-31 -118t-14.5 -115.5t-2.5 -96t2.5 -96t14.5 -115t31 -117.5t56.5 -85.5t88.5 -36t88.5 36t56.5 85.5t31 117.5t14.5 115t2.5 96zM817 1595l-110 -112l-154 127l-160 -127l-100 127l260 205z" />
    <glyph glyph-name="Otilde" unicode="&#xd5;" horiz-adv-x="1110" 
d="M1034 682q0 -156 -26 -283.5t-97 -228.5q-61 -87 -156.5 -140t-199.5 -53q-103 0 -198 53t-158 140q-123 169 -123 512q0 156 26 284.5t97 229.5q60 87 156 138.5t200 51.5t198.5 -51.5t157.5 -138.5q123 -169 123 -514zM748 688q0 49 -2.5 96t-14.5 115.5t-31 118
t-56.5 85.5t-88.5 36t-88.5 -36t-56.5 -85.5t-31 -118t-14.5 -115.5t-2.5 -96t2.5 -96t14.5 -115t31 -117.5t56.5 -85.5t88.5 -36t88.5 36t56.5 85.5t31 117.5t14.5 115t2.5 96zM702 1733l136 -9q-6 -38 -12 -65.5t-19.5 -63.5t-31.5 -58t-48 -38t-68 -16q-43 0 -116.5 31.5
t-104.5 31.5q-47 0 -57 -57h-133q4 40 9 68.5t17.5 64t30 57t47.5 37t70 15.5q45 0 113 -35t102 -35q20 0 32.5 7.5t16.5 13.5t9 26t7 25z" />
    <glyph glyph-name="Odieresis" unicode="&#xd6;" horiz-adv-x="1110" 
d="M1034 682q0 -156 -26 -283.5t-97 -228.5q-61 -87 -156.5 -140t-199.5 -53q-103 0 -198 53t-158 140q-123 169 -123 512q0 156 26 284.5t97 229.5q60 87 156 138.5t200 51.5t198.5 -51.5t157.5 -138.5q123 -169 123 -514zM748 688q0 49 -2.5 96t-14.5 115.5t-31 118
t-56.5 85.5t-88.5 36t-88.5 -36t-56.5 -85.5t-31 -118t-14.5 -115.5t-2.5 -96t2.5 -96t14.5 -115t31 -117.5t56.5 -85.5t88.5 -36t88.5 36t56.5 85.5t31 117.5t14.5 115t2.5 96zM860 1618q0 -56 -40 -95.5t-95 -39.5t-95 39.5t-40 95.5t40 95.5t95 39.5t95 -39.5t40 -95.5z
M512 1618q0 -56 -40 -95.5t-95 -39.5t-95 39.5t-40 95.5t40 95.5t95 39.5t95 -39.5t40 -95.5z" />
    <glyph glyph-name="multiply" unicode="&#xd7;" 
d="M743 297l-231 231l-231 -231l-166 168l231 231l-231 230l166 168l231 -232l231 232l166 -168l-231 -230l231 -231z" />
    <glyph glyph-name="Oslash" unicode="&#xd8;" horiz-adv-x="1110" 
d="M1030 1313l-96 -154q100 -173 100 -483t-104 -481q-60 -97 -160.5 -157.5t-212.5 -60.5q-150 0 -295 115l-67 -104l-103 67l88 140q-104 186 -104 487q0 322 114 500q60 94 158.5 149t210.5 55q170 0 295 -122l74 110zM375 498l323 524q-54 121 -143 121
q-188 0 -188 -455q0 -106 8 -190zM739 848l-319 -516q57 -101 139 -101q48 0 84 33.5t55.5 81t31 111t15 110t3.5 90.5q0 49 -9 191z" />
    <glyph glyph-name="Ugrave" unicode="&#xd9;" horiz-adv-x="1021" 
d="M915 1366v-1018q0 -68 -8.5 -114.5t-36.5 -94.5q-27 -45 -68 -77.5t-90.5 -50.5t-99.5 -26t-104 -8q-178 0 -290 89t-112 262v1038h271v-907v-8q0 -30 0.5 -45.5t3 -43.5t7 -44t14.5 -36.5t24 -31.5t36 -19t50 -8q32 0 56 8t38 26t22.5 34.5t12 46.5t4 48t0.5 52v8v920
h270zM610 1556l-125 -73l-233 250l184 86z" />
    <glyph glyph-name="Uacute" unicode="&#xda;" horiz-adv-x="1021" 
d="M915 1366v-1018q0 -68 -8.5 -114.5t-36.5 -94.5q-27 -45 -68 -77.5t-90.5 -50.5t-99.5 -26t-104 -8q-178 0 -290 89t-112 262v1038h271v-907v-8q0 -30 0.5 -45.5t3 -43.5t7 -44t14.5 -36.5t24 -31.5t36 -19t50 -8q32 0 56 8t38 26t22.5 34.5t12 46.5t4 48t0.5 52v8v920
h270zM774 1733l-235 -250l-123 73l174 263z" />
    <glyph glyph-name="Ucircumflex" unicode="&#xdb;" horiz-adv-x="1021" 
d="M915 1366v-1018q0 -68 -8.5 -114.5t-36.5 -94.5q-27 -45 -68 -77.5t-90.5 -50.5t-99.5 -26t-104 -8q-178 0 -290 89t-112 262v1038h271v-907v-8q0 -30 0.5 -45.5t3 -43.5t7 -44t14.5 -36.5t24 -31.5t36 -19t50 -8q32 0 56 8t38 26t22.5 34.5t12 46.5t4 48t0.5 52v8v920
h270zM774 1595l-110 -112l-154 127l-160 -127l-100 127l260 205z" />
    <glyph glyph-name="Udieresis" unicode="&#xdc;" horiz-adv-x="1021" 
d="M915 1366v-1018q0 -68 -8.5 -114.5t-36.5 -94.5q-27 -45 -68 -77.5t-90.5 -50.5t-99.5 -26t-104 -8q-178 0 -290 89t-112 262v1038h271v-907v-8q0 -30 0.5 -45.5t3 -43.5t7 -44t14.5 -36.5t24 -31.5t36 -19t50 -8q32 0 56 8t38 26t22.5 34.5t12 46.5t4 48t0.5 52v8v920
h270zM829 1618q0 -56 -39.5 -95.5t-95.5 -39.5t-95.5 39.5t-39.5 95.5t39.5 95.5t95.5 39.5t95.5 -39.5t39.5 -95.5zM481 1618q0 -56 -39.5 -95.5t-95.5 -39.5t-95.5 39.5t-39.5 95.5t39.5 95.5t95.5 39.5t95.5 -39.5t39.5 -95.5z" />
    <glyph glyph-name="Yacute" unicode="&#xdd;" horiz-adv-x="915" 
d="M915 1366l-317 -782v-584h-270v584l-328 782h297l100 -297q44 -135 62 -203q19 79 59 205l94 295h303zM713 1733l-236 -250l-123 73l174 263z" />
    <glyph glyph-name="Thorn" unicode="&#xde;" horiz-adv-x="890" 
d="M377 1366v-192h32.5h34.5t31 -0.5t34 -2t30.5 -3.5t33 -5.5t30 -8t32 -11.5t29.5 -15q91 -52 138.5 -150t47.5 -210q0 -187 -112 -294t-300 -107q-41 0 -61 4v-371h-271v1366h271zM377 956v-360q106 0 155.5 38t49.5 140q0 87 -39 137q-23 28 -52 36.5t-73 8.5h-41z" />
    <glyph glyph-name="germandbls" unicode="&#xdf;" horiz-adv-x="878" 
d="M135 0v702h-115v213h115v271q0 73 33 151q38 91 119 135t186 44q88 0 153 -31.5t101 -88.5t53 -126t17 -154q0 -54 -5 -93.5t-19 -81t-43.5 -72t-74.5 -50.5q99 -57 134.5 -149.5t35.5 -225.5q0 -454 -295 -454q-36 0 -81 10v229q31 3 47.5 13t27.5 37q23 49 23 182
q0 131 -31 192q-12 23 -26.5 34t-40.5 15v228q50 8 65 51q14 39 14 129q0 178 -71 178q-22 0 -35.5 -8t-19.5 -24t-8 -29t-2 -34.5t-1 -27.5v-1165h-256z" />
    <glyph glyph-name="agrave" unicode="&#xe0;" horiz-adv-x="811" 
d="M729 0h-256v104q-66 -122 -170 -122q-60 0 -106.5 35.5t-72.5 87.5t-42.5 120.5t-21.5 125t-5 110.5q0 39 2 77t9 86t18 90t30 83t44 70t62 47t81 18q113 0 172 -129v112h256v-915zM492 457q0 23 -1 48t-6.5 62.5t-14.5 65.5t-26.5 48.5t-40.5 20.5q-29 0 -49 -28.5
t-28 -74.5t-10.5 -78t-2.5 -64t3 -65t11 -78.5t28.5 -74t50.5 -28.5q28 0 47 29t26.5 75t10 78.5t2.5 63.5zM569 1133l-125 -74l-233 250l184 86z" />
    <glyph glyph-name="aacute" unicode="&#xe1;" horiz-adv-x="811" 
d="M729 0h-256v104q-66 -122 -170 -122q-60 0 -106.5 35.5t-72.5 87.5t-42.5 120.5t-21.5 125t-5 110.5q0 39 2 77t9 86t18 90t30 83t44 70t62 47t81 18q113 0 172 -129v112h256v-915zM492 457q0 23 -1 48t-6.5 62.5t-14.5 65.5t-26.5 48.5t-40.5 20.5q-29 0 -49 -28.5
t-28 -74.5t-10.5 -78t-2.5 -64t3 -65t11 -78.5t28.5 -74t50.5 -28.5q28 0 47 29t26.5 75t10 78.5t2.5 63.5zM641 1309l-235 -250l-123 74l174 262z" />
    <glyph glyph-name="acircumflex" unicode="&#xe2;" horiz-adv-x="811" 
d="M729 0h-256v104q-66 -122 -170 -122q-60 0 -106.5 35.5t-72.5 87.5t-42.5 120.5t-21.5 125t-5 110.5q0 39 2 77t9 86t18 90t30 83t44 70t62 47t81 18q113 0 172 -129v112h256v-915zM492 457q0 23 -1 48t-6.5 62.5t-14.5 65.5t-26.5 48.5t-40.5 20.5q-29 0 -49 -28.5
t-28 -74.5t-10.5 -78t-2.5 -64t3 -65t11 -78.5t28.5 -74t50.5 -28.5q28 0 47 29t26.5 75t10 78.5t2.5 63.5zM668 1171l-111 -112l-154 127l-159 -127l-101 127l260 205z" />
    <glyph glyph-name="atilde" unicode="&#xe3;" horiz-adv-x="811" 
d="M729 0h-256v104q-66 -122 -170 -122q-60 0 -106.5 35.5t-72.5 87.5t-42.5 120.5t-21.5 125t-5 110.5q0 39 2 77t9 86t18 90t30 83t44 70t62 47t81 18q113 0 172 -129v112h256v-915zM492 457q0 23 -1 48t-6.5 62.5t-14.5 65.5t-26.5 48.5t-40.5 20.5q-29 0 -49 -28.5
t-28 -74.5t-10.5 -78t-2.5 -64t3 -65t11 -78.5t28.5 -74t50.5 -28.5q28 0 47 29t26.5 75t10 78.5t2.5 63.5zM580 1309l135 -9q-6 -38 -12 -65.5t-19.5 -63.5t-31 -58t-47.5 -38t-68 -16q-43 0 -117 31.5t-105 31.5q-47 0 -57 -57h-133q4 40 9 68.5t17.5 64t30 57t47.5 37
t70 15.5q45 0 113 -35t102 -35q16 0 27 3.5t17.5 12t9.5 15t6.5 21t5.5 20.5z" />
    <glyph glyph-name="adieresis" unicode="&#xe4;" horiz-adv-x="811" 
d="M729 0h-256v104q-66 -122 -170 -122q-60 0 -106.5 35.5t-72.5 87.5t-42.5 120.5t-21.5 125t-5 110.5q0 39 2 77t9 86t18 90t30 83t44 70t62 47t81 18q113 0 172 -129v112h256v-915zM492 457q0 23 -1 48t-6.5 62.5t-14.5 65.5t-26.5 48.5t-40.5 20.5q-29 0 -49 -28.5
t-28 -74.5t-10.5 -78t-2.5 -64t3 -65t11 -78.5t28.5 -74t50.5 -28.5q28 0 47 29t26.5 75t10 78.5t2.5 63.5zM723 1194q0 -56 -39.5 -95.5t-95.5 -39.5t-95.5 39.5t-39.5 95.5t39.5 95.5t95.5 39.5t95.5 -39.5t39.5 -95.5zM360 1194q0 -56 -40 -95.5t-95 -39.5t-95 39.5
t-40 95.5t40 95.5t95 39.5t95 -39.5t40 -95.5z" />
    <glyph glyph-name="aring" unicode="&#xe5;" horiz-adv-x="811" 
d="M729 0h-256v104q-66 -122 -170 -122q-60 0 -106.5 35.5t-72.5 87.5t-42.5 120.5t-21.5 125t-5 110.5q0 39 2 77t9 86t18 90t30 83t44 70t62 47t81 18q113 0 172 -129v112h256v-915zM492 457q0 23 -1 48t-6.5 62.5t-14.5 65.5t-26.5 48.5t-40.5 20.5q-29 0 -49 -28.5
t-28 -74.5t-10.5 -78t-2.5 -64t3 -65t11 -78.5t28.5 -74t50.5 -28.5q28 0 47 29t26.5 75t10 78.5t2.5 63.5zM209 1268q0 82 57.5 139t139.5 57t139 -57t57 -139t-57 -139.5t-139 -57.5t-139.5 57.5t-57.5 139.5zM322 1268q0 -37 23.5 -60.5t60.5 -23.5t60 23.5t23 60.5
t-23 60.5t-60 23.5t-60.5 -23.5t-23.5 -60.5z" />
    <glyph glyph-name="ae" unicode="&#xe6;" horiz-adv-x="1167" 
d="M1114 393h-420q6 -223 115 -223q42 0 62 32.5t20 78.5h209q-5 -137 -78.5 -218t-208.5 -81q-140 0 -227 112q-54 -58 -107.5 -85t-126.5 -27q-131 0 -214 78t-83 208q0 124 75 202.5t198 78.5q85 0 135 -33v4q0 41 -2 66.5t-10.5 54t-24.5 44t-44 26t-69 10.5
q-81 0 -180 -47v219q121 41 207 41q92 0 151.5 -30t102.5 -105q40 70 93 101.5t132 31.5q45 0 83.5 -12.5t66 -31.5t50 -51t37 -62.5t25.5 -74t17 -77t9.5 -81t4.5 -77t2 -72.5zM696 551h191q0 29 -3 57t-12 62t-29.5 54.5t-49.5 20.5q-30 0 -51 -20.5t-30 -54.5t-12.5 -62
t-3.5 -57zM479 268q0 40 -28 68.5t-68 28.5t-68 -28.5t-28 -68.5t28 -68t68 -28t68 28t28 68z" />
    <glyph glyph-name="ccedilla" unicode="&#xe7;" horiz-adv-x="575" 
d="M535 248v-234q-71 -32 -146 -32q-71 0 -129 28.5t-95.5 75t-62.5 108t-36 124.5t-11 128q0 89 18 171t57 155.5t110 117.5t166 44q62 0 129 -27v-225q-31 31 -72 31q-44 0 -75 -24.5t-46.5 -65t-22 -79.5t-6.5 -79q0 -42 5.5 -79.5t20 -77.5t45.5 -63.5t75 -23.5
q37 0 76 27zM502 -160l-199 -252l-121 68l150 258z" />
    <glyph glyph-name="egrave" unicode="&#xe8;" horiz-adv-x="763" 
d="M477 315h217q-2 -73 -29 -145.5t-69 -116.5q-43 -43 -91 -57t-108 -14q-67 0 -119 16.5t-100 64.5q-125 125 -125 371q0 126 33 236.5t100 177.5q84 84 209 84q119 0 197 -74q60 -58 89.5 -155t29.5 -201q0 -44 -6 -90h-406q-2 -14 -2 -52q0 -121 37 -161q22 -25 53 -25
q32 0 51 16q32 28 39 125zM303 569h184q0 45 -10.5 89t-30.5 61q-21 18 -47 18q-33 0 -57 -24q-19 -20 -29 -62.5t-10 -81.5zM522 1133l-125 -74l-233 250l184 86z" />
    <glyph glyph-name="eacute" unicode="&#xe9;" horiz-adv-x="763" 
d="M477 315h217q-2 -73 -29 -145.5t-69 -116.5q-43 -43 -91 -57t-108 -14q-67 0 -119 16.5t-100 64.5q-125 125 -125 371q0 126 33 236.5t100 177.5q84 84 209 84q119 0 197 -74q60 -58 89.5 -155t29.5 -201q0 -44 -6 -90h-406q-2 -14 -2 -52q0 -121 37 -161q22 -25 53 -25
q32 0 51 16q32 28 39 125zM303 569h184q0 45 -10.5 89t-30.5 61q-21 18 -47 18q-33 0 -57 -24q-19 -20 -29 -62.5t-10 -81.5zM645 1309l-235 -250l-123 74l174 262z" />
    <glyph glyph-name="ecircumflex" unicode="&#xea;" horiz-adv-x="763" 
d="M477 315h217q-2 -73 -29 -145.5t-69 -116.5q-43 -43 -91 -57t-108 -14q-67 0 -119 16.5t-100 64.5q-125 125 -125 371q0 126 33 236.5t100 177.5q84 84 209 84q119 0 197 -74q60 -58 89.5 -155t29.5 -201q0 -44 -6 -90h-406q-2 -14 -2 -52q0 -121 37 -161q22 -25 53 -25
q32 0 51 16q32 28 39 125zM303 569h184q0 45 -10.5 89t-30.5 61q-21 18 -47 18q-33 0 -57 -24q-19 -20 -29 -62.5t-10 -81.5zM645 1171l-110 -112l-154 127l-160 -127l-100 127l260 205z" />
    <glyph glyph-name="edieresis" unicode="&#xeb;" horiz-adv-x="763" 
d="M477 315h217q-2 -73 -29 -145.5t-69 -116.5q-43 -43 -91 -57t-108 -14q-67 0 -119 16.5t-100 64.5q-125 125 -125 371q0 126 33 236.5t100 177.5q84 84 209 84q119 0 197 -74q60 -58 89.5 -155t29.5 -201q0 -44 -6 -90h-406q-2 -14 -2 -52q0 -121 37 -161q22 -25 53 -25
q32 0 51 16q32 28 39 125zM303 569h184q0 45 -10.5 89t-30.5 61q-21 18 -47 18q-33 0 -57 -24q-19 -20 -29 -62.5t-10 -81.5zM698 1194q0 -56 -40 -95.5t-95 -39.5t-95 39.5t-40 95.5t40 95.5t95 39.5t95 -39.5t40 -95.5zM336 1194q0 -56 -40 -95.5t-95 -39.5t-95 39.5
t-40 95.5t40 95.5t95 39.5t95 -39.5t40 -95.5z" />
    <glyph glyph-name="igrave" unicode="&#xec;" horiz-adv-x="421" 
d="M338 0h-256v915h256v-915zM334 1133l-125 -74l-234 250l185 86z" />
    <glyph glyph-name="iacute" unicode="&#xed;" horiz-adv-x="421" 
d="M338 0h-256v915h256v-915zM457 1309l-236 -250l-123 74l174 262z" />
    <glyph glyph-name="icircumflex" unicode="&#xee;" horiz-adv-x="421" 
d="M338 0h-256v915h256v-915zM473 1171l-111 -112l-153 127l-160 -127l-100 127l260 205z" />
    <glyph glyph-name="idieresis" unicode="&#xef;" horiz-adv-x="421" 
d="M338 0h-256v915h256v-915zM526 1194q0 -56 -40 -95.5t-95 -39.5t-95 39.5t-40 95.5t40 95.5t95 39.5t95 -39.5t40 -95.5zM164 1194q0 -56 -40 -95.5t-95 -39.5t-95 39.5t-40 95.5t40 95.5t95 39.5t95 -39.5t40 -95.5z" />
    <glyph glyph-name="eth" unicode="&#xf0;" horiz-adv-x="804" 
d="M664 1378l-158 -110q127 -156 185.5 -368.5t58.5 -442.5q0 -71 -9.5 -135t-34 -127.5t-61.5 -109.5t-97.5 -74.5t-137.5 -28.5q-98 0 -169.5 41t-110.5 111t-57 150.5t-18 172.5q0 84 19.5 175t56.5 154q40 66 111 107t147 41q5 0 15.5 -1t15.5 -1q-27 128 -82 211
l-172 -119l-94 139l153 115q-65 56 -149 102l119 136q125 -64 190 -127l180 129zM489 457q0 28 -2.5 59.5t-9.5 78.5t-25.5 77t-45.5 30q-30 0 -50 -28.5t-28 -75t-10.5 -78t-2.5 -63.5t2.5 -63.5t10.5 -78t28 -75.5t50 -29q27 0 45.5 30t25.5 76.5t9.5 78.5t2.5 61z" />
    <glyph glyph-name="ntilde" unicode="&#xf1;" horiz-adv-x="806" 
d="M725 0h-256v561q0 115 -61 115q-25 0 -40.5 -13t-21.5 -38.5t-7 -42t-1 -45.5v-7v-530h-256v915h256v-143q82 160 217 160q33 0 59 -9t43.5 -23t30.5 -36t20 -43.5t11 -51.5t5 -53t1 -54v-662zM573 1309l136 -9q-6 -38 -12 -65.5t-19.5 -63.5t-31.5 -58t-48 -38t-68 -16
q-43 0 -116.5 31.5t-104.5 31.5q-47 0 -57 -57h-133q4 40 9 68.5t17.5 64t30 57t47.5 37t70 15.5q45 0 113 -35t102 -35q20 0 32.5 7.5t16.5 13.5t9 26t7 25z" />
    <glyph glyph-name="ograve" unicode="&#xf2;" horiz-adv-x="802" 
d="M748 457q0 -72 -9.5 -136.5t-34.5 -127.5t-63 -109t-99 -74t-139 -28q-76 0 -136.5 28.5t-99.5 75t-65 109.5t-36.5 127.5t-10.5 134.5t10.5 134.5t36.5 127.5t65 109.5t99.5 75t136.5 28.5q79 0 140 -28t99 -73.5t62.5 -109t34 -128t9.5 -136.5zM489 457q0 31 -2.5 63.5
t-10 78t-26.5 74.5t-47 29q-29 0 -49 -28.5t-28 -74t-10.5 -78t-2.5 -64.5t2.5 -65t10.5 -78.5t28 -74t49 -28.5q28 0 47 29t26.5 75t10 78.5t2.5 63.5zM549 1133l-125 -74l-234 250l185 86z" />
    <glyph glyph-name="oacute" unicode="&#xf3;" horiz-adv-x="802" 
d="M748 457q0 -72 -9.5 -136.5t-34.5 -127.5t-63 -109t-99 -74t-139 -28q-76 0 -136.5 28.5t-99.5 75t-65 109.5t-36.5 127.5t-10.5 134.5t10.5 134.5t36.5 127.5t65 109.5t99.5 75t136.5 28.5q79 0 140 -28t99 -73.5t62.5 -109t34 -128t9.5 -136.5zM489 457q0 31 -2.5 63.5
t-10 78t-26.5 74.5t-47 29q-29 0 -49 -28.5t-28 -74t-10.5 -78t-2.5 -64.5t2.5 -65t10.5 -78.5t28 -74t49 -28.5q28 0 47 29t26.5 75t10 78.5t2.5 63.5zM651 1309l-235 -250l-123 74l174 262z" />
    <glyph glyph-name="ocircumflex" unicode="&#xf4;" horiz-adv-x="802" 
d="M748 457q0 -72 -9.5 -136.5t-34.5 -127.5t-63 -109t-99 -74t-139 -28q-76 0 -136.5 28.5t-99.5 75t-65 109.5t-36.5 127.5t-10.5 134.5t10.5 134.5t36.5 127.5t65 109.5t99.5 75t136.5 28.5q79 0 140 -28t99 -73.5t62.5 -109t34 -128t9.5 -136.5zM489 457q0 31 -2.5 63.5
t-10 78t-26.5 74.5t-47 29q-29 0 -49 -28.5t-28 -74t-10.5 -78t-2.5 -64.5t2.5 -65t10.5 -78.5t28 -74t49 -28.5q28 0 47 29t26.5 75t10 78.5t2.5 63.5zM672 1171l-111 -112l-153 127l-160 -127l-101 127l261 205z" />
    <glyph glyph-name="otilde" unicode="&#xf5;" horiz-adv-x="802" 
d="M748 457q0 -72 -9.5 -136.5t-34.5 -127.5t-63 -109t-99 -74t-139 -28q-76 0 -136.5 28.5t-99.5 75t-65 109.5t-36.5 127.5t-10.5 134.5t10.5 134.5t36.5 127.5t65 109.5t99.5 75t136.5 28.5q79 0 140 -28t99 -73.5t62.5 -109t34 -128t9.5 -136.5zM489 457q0 31 -2.5 63.5
t-10 78t-26.5 74.5t-47 29q-29 0 -49 -28.5t-28 -74t-10.5 -78t-2.5 -64.5t2.5 -65t10.5 -78.5t28 -74t49 -28.5q28 0 47 29t26.5 75t10 78.5t2.5 63.5zM561 1309l135 -9q-6 -38 -12 -65.5t-19.5 -63.5t-31 -58t-47.5 -38t-68 -16q-43 0 -116.5 31.5t-104.5 31.5
q-47 0 -57 -57h-134q4 40 9 68.5t17.5 64t30 57t48 37t70.5 15.5q45 0 113 -35t102 -35q20 0 32.5 7.5t16.5 13.5t9 26t7 25z" />
    <glyph glyph-name="odieresis" unicode="&#xf6;" horiz-adv-x="802" 
d="M748 457q0 -72 -9.5 -136.5t-34.5 -127.5t-63 -109t-99 -74t-139 -28q-76 0 -136.5 28.5t-99.5 75t-65 109.5t-36.5 127.5t-10.5 134.5t10.5 134.5t36.5 127.5t65 109.5t99.5 75t136.5 28.5q79 0 140 -28t99 -73.5t62.5 -109t34 -128t9.5 -136.5zM489 457q0 31 -2.5 63.5
t-10 78t-26.5 74.5t-47 29q-29 0 -49 -28.5t-28 -74t-10.5 -78t-2.5 -64.5t2.5 -65t10.5 -78.5t28 -74t49 -28.5q28 0 47 29t26.5 75t10 78.5t2.5 63.5zM719 1194q0 -56 -39.5 -95.5t-95.5 -39.5t-95.5 39.5t-39.5 95.5t39.5 95.5t95.5 39.5t95.5 -39.5t39.5 -95.5z
M356 1194q0 -56 -40 -95.5t-95 -39.5t-95 39.5t-40 95.5t40 95.5t95 39.5t95 -39.5t40 -95.5z" />
    <glyph glyph-name="divide" unicode="&#xf7;" 
d="M659 1044q0 -60 -43.5 -103.5t-103.5 -43.5q-62 0 -104.5 42.5t-42.5 104.5t43 105t104 43t104 -43t43 -105zM956 578h-888v235h888v-235zM659 344q0 -60 -43.5 -103.5t-103.5 -43.5q-62 0 -104.5 42.5t-42.5 104.5t43 105t104 43t104 -43t43 -105z" />
    <glyph glyph-name="oslash" unicode="&#xf8;" horiz-adv-x="804" 
d="M735 903l-65 -104q80 -148 80 -338q0 -72 -10 -137.5t-35 -129t-63 -109.5t-99.5 -74.5t-139.5 -28.5q-104 0 -196 65l-49 -80l-95 62l66 108q-74 140 -74 326q0 89 17.5 169t55.5 152t108.5 115t164.5 43q114 0 193 -59l49 78zM489 457q0 30 -3 63.5t-11 79.5t-27 75.5
t-47 29.5q-29 0 -48 -28.5t-27 -74t-10.5 -78t-2.5 -63.5q0 -32 3 -65.5t11 -80t28.5 -75.5t50.5 -29q27 0 45.5 29t25.5 75.5t9.5 78.5t2.5 63z" />
    <glyph glyph-name="ugrave" unicode="&#xf9;" horiz-adv-x="804" 
d="M723 915v-618q0 -56 -8.5 -95t-34.5 -79q-43 -67 -119.5 -104t-161.5 -37t-162 37.5t-118 105.5q-37 61 -37 158v632h256v-563q0 -133 63 -133q16 0 28 6.5t19 19.5t11 26t5.5 32.5t1.5 31.5t-0.5 31.5t-0.5 24.5v524h258zM528 1133l-125 -74l-233 250l184 86z" />
    <glyph glyph-name="uacute" unicode="&#xfa;" horiz-adv-x="804" 
d="M723 915v-618q0 -56 -8.5 -95t-34.5 -79q-43 -67 -119.5 -104t-161.5 -37t-162 37.5t-118 105.5q-37 61 -37 158v632h256v-563q0 -133 63 -133q16 0 28 6.5t19 19.5t11 26t5.5 32.5t1.5 31.5t-0.5 31.5t-0.5 24.5v524h258zM641 1309l-235 -250l-123 74l174 262z" />
    <glyph glyph-name="ucircumflex" unicode="&#xfb;" horiz-adv-x="804" 
d="M723 915v-618q0 -56 -8.5 -95t-34.5 -79q-43 -67 -119.5 -104t-161.5 -37t-162 37.5t-118 105.5q-37 61 -37 158v632h256v-563q0 -133 63 -133q16 0 28 6.5t19 19.5t11 26t5.5 32.5t1.5 31.5t-0.5 31.5t-0.5 24.5v524h258zM666 1171l-111 -112l-154 127l-159 -127
l-101 127l260 205z" />
    <glyph glyph-name="udieresis" unicode="&#xfc;" horiz-adv-x="804" 
d="M723 915v-618q0 -56 -8.5 -95t-34.5 -79q-43 -67 -119.5 -104t-161.5 -37t-162 37.5t-118 105.5q-37 61 -37 158v632h256v-563q0 -133 63 -133q16 0 28 6.5t19 19.5t11 26t5.5 32.5t1.5 31.5t-0.5 31.5t-0.5 24.5v524h258zM719 1194q0 -56 -39.5 -95.5t-95.5 -39.5
t-95.5 39.5t-39.5 95.5t39.5 95.5t95.5 39.5t95.5 -39.5t39.5 -95.5zM356 1194q0 -56 -40 -95.5t-95 -39.5t-95 39.5t-40 95.5t40 95.5t95 39.5t95 -39.5t40 -95.5z" />
    <glyph glyph-name="yacute" unicode="&#xfd;" horiz-adv-x="749" 
d="M756 915l-385 -1337h-252l141 440l-266 897h256l88 -333q33 -126 41 -189l121 522h256zM637 1309l-236 -250l-122 74l174 262z" />
    <glyph glyph-name="thorn" unicode="&#xfe;" horiz-adv-x="811" 
d="M338 1493v-690q60 131 174 131q51 0 92.5 -24t67 -65.5t43 -89.5t26 -105t12 -101.5t3.5 -89.5q0 -51 -5.5 -106.5t-22 -124t-42 -121.5t-71.5 -89t-105 -36q-60 0 -99.5 31.5t-72.5 90.5v-526h-256v1915h256zM496 459q0 32 -2.5 63.5t-10 78t-27.5 75.5t-50 29
q-23 0 -40.5 -21.5t-26 -50t-13.5 -67t-6 -62.5t-1 -47q0 -29 2.5 -61.5t10.5 -79t27 -76t47 -29.5q24 0 42 21.5t27 49.5t14 67t6 62.5t1 47.5z" />
    <glyph glyph-name="ydieresis" unicode="&#xff;" horiz-adv-x="749" 
d="M756 915l-385 -1337h-252l141 440l-266 897h256l88 -333q33 -126 41 -189l121 522h256zM700 1194q0 -56 -40 -95.5t-95 -39.5t-95 39.5t-40 95.5t40 95.5t95 39.5t95 -39.5t40 -95.5zM338 1194q0 -56 -40 -95.5t-95 -39.5t-95 39.5t-40 95.5t40 95.5t95 39.5t95 -39.5
t40 -95.5z" />
    <glyph glyph-name="Amacron" unicode="&#x100;" horiz-adv-x="942" 
d="M936 0h-287l-51 229h-272l-50 -229h-270l320 1366h282zM367 440h190q-58 264 -78 394q-15 109 -22 180q-12 -194 -90 -574zM754 1511h-586v164h586v-164z" />
    <glyph glyph-name="amacron" unicode="&#x101;" horiz-adv-x="811" 
d="M729 0h-256v104q-66 -122 -170 -122q-60 0 -106.5 35.5t-72.5 87.5t-42.5 120.5t-21.5 125t-5 110.5q0 39 2 77t9 86t18 90t30 83t44 70t62 47t81 18q113 0 172 -129v112h256v-915zM492 457q0 23 -1 48t-6.5 62.5t-14.5 65.5t-26.5 48.5t-40.5 20.5q-29 0 -49 -28.5
t-28 -74.5t-10.5 -78t-2.5 -64t3 -65t11 -78.5t28.5 -74t50.5 -28.5q28 0 47 29t26.5 75t10 78.5t2.5 63.5zM713 1087h-586v164h586v-164z" />
    <glyph glyph-name="Abreve" unicode="&#x102;" horiz-adv-x="942" 
d="M936 0h-287l-51 229h-272l-50 -229h-270l320 1366h282zM367 440h190q-58 264 -78 394q-15 109 -22 180q-12 -194 -90 -574zM592 1716h135q-8 -110 -78 -180q-39 -39 -83 -52.5t-105 -13.5q-62 0 -106 13.5t-83 52.5q-67 67 -77 180h135q6 -36 32 -59q31 -27 99 -27
q67 0 98 27q27 24 33 59z" />
    <glyph glyph-name="abreve" unicode="&#x103;" horiz-adv-x="811" 
d="M729 0h-256v104q-66 -122 -170 -122q-60 0 -106.5 35.5t-72.5 87.5t-42.5 120.5t-21.5 125t-5 110.5q0 39 2 77t9 86t18 90t30 83t44 70t62 47t81 18q113 0 172 -129v112h256v-915zM492 457q0 23 -1 48t-6.5 62.5t-14.5 65.5t-26.5 48.5t-40.5 20.5q-29 0 -49 -28.5
t-28 -74.5t-10.5 -78t-2.5 -64t3 -65t11 -78.5t28.5 -74t50.5 -28.5q28 0 47 29t26.5 75t10 78.5t2.5 63.5zM537 1305h135q-4 -48 -22 -91.5t-31 -60.5t-25 -29q-38 -38 -82 -51.5t-106 -13.5t-106.5 13.5t-82.5 51.5q-68 68 -78 181h135q6 -36 33 -60q30 -26 99 -26
q68 0 98 26q27 24 33 60z" />
    <glyph glyph-name="Aogonek" unicode="&#x104;" horiz-adv-x="942" 
d="M326 1366h282l328 -1366h-158q-21 -19 -49 -59q-24 -40 -24 -70q0 -29 18 -47q19 -19 53 -19q36 0 70 21l-29 -154q-41 -20 -98 -20q-88 0 -135 45q-45 45 -45 113q0 65 34 114q29 42 76 76l-51 229h-272l-50 -229h-270zM367 440h190l-4 19q-5 25 -16 71t-19 85t-16 90
q-3 21 -14 83.5t-18.5 114.5t-12.5 111q-6 -101 -35 -281q-9 -53 -17 -97t-18 -93t-16 -82z" />
    <glyph glyph-name="aogonek" unicode="&#x105;" horiz-adv-x="811" 
d="M473 915h256v-915h-78q-33 -38 -49 -61q-24 -34 -24 -72q0 -33 20 -51q19 -19 53 -19q33 0 68 21l-29 -146q-45 -20 -92 -20q-85 0 -133 45q-45 45 -45 115q0 55 35 104q31 45 77 84h-59v104q-30 -56 -65 -84q-44 -38 -103 -38q-79 0 -135 59q-62 66 -88.5 183.5
t-26.5 236.5q0 122 25 237.5t88 178.5q55 55 131 55q64 0 113 -43q33 -29 61 -86v112zM313 461q0 -177 49 -230q17 -20 44 -20q20 0 36 16q21 22 33.5 79.5t14.5 92t2 58.5q0 63 -11.5 132.5t-42.5 98.5q-14 14 -35 14q-23 0 -41 -18q-49 -49 -49 -223z" />
    <glyph glyph-name="Cacute" unicode="&#x106;" horiz-adv-x="837" 
d="M770 311v-282q-77 -43 -186 -43q-102 0 -179.5 28t-144.5 95q-184 184 -184 553q0 383 196 581q137 137 328 137q87 0 170 -39v-278q-64 59 -149 59q-89 0 -150 -61q-113 -113 -113 -391q0 -28 2 -59t10 -91t30 -116t55 -93q58 -65 153 -65q92 0 162 65zM836 1733
l-236 -250l-123 73l174 263z" />
    <glyph glyph-name="cacute" unicode="&#x107;" horiz-adv-x="575" 
d="M535 248v-234q-71 -32 -146 -32q-71 0 -129 28.5t-95.5 75t-62.5 108t-36 124.5t-11 128q0 89 18 171t57 155.5t110 117.5t166 44q62 0 129 -27v-225q-31 31 -72 31q-44 0 -75 -24.5t-46.5 -65t-22 -79.5t-6.5 -79q0 -42 5.5 -79.5t20 -77.5t45.5 -63.5t75 -23.5
q37 0 76 27zM631 1309l-236 -250l-123 74l174 262z" />
    <glyph glyph-name="Ccircumflex" unicode="&#x108;" horiz-adv-x="837" 
d="M770 311v-282q-77 -43 -186 -43q-102 0 -179.5 28t-144.5 95q-184 184 -184 553q0 383 196 581q137 137 328 137q87 0 170 -39v-278q-64 59 -149 59q-89 0 -150 -61q-113 -113 -113 -391q0 -28 2 -59t10 -91t30 -116t55 -93q58 -65 153 -65q92 0 162 65zM918 1595
l-111 -112l-154 127l-159 -127l-101 127l260 205z" />
    <glyph glyph-name="ccircumflex" unicode="&#x109;" horiz-adv-x="575" 
d="M535 248v-234q-71 -32 -146 -32q-71 0 -129 28.5t-95.5 75t-62.5 108t-36 124.5t-11 128q0 89 18 171t57 155.5t110 117.5t166 44q62 0 129 -27v-225q-31 31 -72 31q-44 0 -75 -24.5t-46.5 -65t-22 -79.5t-6.5 -79q0 -42 5.5 -79.5t20 -77.5t45.5 -63.5t75 -23.5
q37 0 76 27zM672 1171l-111 -112l-153 127l-160 -127l-101 127l261 205z" />
    <glyph glyph-name="Cdotaccent" unicode="&#x10a;" horiz-adv-x="837" 
d="M770 311v-282q-77 -43 -186 -43q-102 0 -179.5 28t-144.5 95q-184 184 -184 553q0 383 196 581q137 137 328 137q87 0 170 -39v-278q-64 59 -149 59q-89 0 -150 -61q-113 -113 -113 -391q0 -28 2 -59t10 -91t30 -116t55 -93q58 -65 153 -65q92 0 162 65zM737 1618
q0 -55 -40.5 -95t-96.5 -40t-95.5 39.5t-39.5 95.5q0 57 39 97t96 40t97 -40t40 -97z" />
    <glyph glyph-name="cdotaccent" unicode="&#x10b;" horiz-adv-x="575" 
d="M535 248v-234q-71 -32 -146 -32q-71 0 -129 28.5t-95.5 75t-62.5 108t-36 124.5t-11 128q0 89 18 171t57 155.5t110 117.5t166 44q62 0 129 -27v-225q-31 31 -72 31q-44 0 -75 -24.5t-46.5 -65t-22 -79.5t-6.5 -79q0 -42 5.5 -79.5t20 -77.5t45.5 -63.5t75 -23.5
q37 0 76 27zM543 1194q0 -55 -40.5 -95t-96.5 -40t-96 40t-40 95q0 57 39.5 97t96.5 40t97 -40t40 -97z" />
    <glyph glyph-name="Ccaron" unicode="&#x10c;" horiz-adv-x="837" 
d="M770 311v-282q-77 -43 -186 -43q-102 0 -179.5 28t-144.5 95q-184 184 -184 553q0 383 196 581q137 137 328 137q87 0 170 -39v-278q-64 59 -149 59q-89 0 -150 -61q-113 -113 -113 -391q0 -28 2 -59t10 -91t30 -116t55 -93q58 -65 153 -65q92 0 162 65zM918 1688
l-261 -205l-264 219l113 113l151 -127l160 127z" />
    <glyph glyph-name="ccaron" unicode="&#x10d;" horiz-adv-x="575" 
d="M535 248v-234q-71 -32 -146 -32q-71 0 -129 28.5t-95.5 75t-62.5 108t-36 124.5t-11 128q0 89 18 171t57 155.5t110 117.5t166 44q62 0 129 -27v-225q-31 31 -72 31q-44 0 -75 -24.5t-46.5 -65t-22 -79.5t-6.5 -79q0 -42 5.5 -79.5t20 -77.5t45.5 -63.5t75 -23.5
q37 0 76 27zM672 1264l-260 -205l-265 219l113 113l152 -127l159 127z" />
    <glyph glyph-name="Dcaron" unicode="&#x10e;" horiz-adv-x="999" 
d="M106 1366h228q89 0 151 -9t125 -38q88 -40 151.5 -111.5t97.5 -161.5t49.5 -181t15.5 -189q0 -115 -17.5 -212.5t-58.5 -184.5t-103.5 -147.5t-157.5 -96t-216 -35.5h-265v1366zM377 250h8q62 -1 110.5 27.5t77 73t47.5 103.5t26 113.5t7 110.5q0 120 -32 229.5
t-107 171.5q-51 44 -137 47v-876zM713 1688l-260 -205l-265 219l113 113l152 -127l159 127z" />
    <glyph glyph-name="dcaron" unicode="&#x10f;" horiz-adv-x="1095" 
d="M729 0h-256v104q-66 -122 -170 -122q-60 0 -106.5 35.5t-72.5 87.5t-42.5 120.5t-21.5 125t-5 110.5q0 39 2 77t9 86t18 90t30 83t44 70t62 47t81 18q113 0 172 -129v690h256v-1493zM492 457q0 23 -1 48t-6.5 62.5t-14.5 65.5t-26.5 48.5t-40.5 20.5q-29 0 -49 -28.5
t-28 -74.5t-10.5 -78t-2.5 -64t3 -65t11 -78.5t28.5 -74t50.5 -28.5q28 0 47 29t26.5 75t10 78.5t2.5 63.5zM1116 1366l-174 -418h-143l106 418h211z" />
    <glyph glyph-name="Dcroat" unicode="&#x110;" horiz-adv-x="999" 
d="M106 1366h228q142 0 237.5 -30t180.5 -119q174 -182 174 -541q0 -115 -17.5 -213t-59 -185t-104 -147.5t-158 -95.5t-216.5 -35h-265v580h-108v219h108v567zM377 580v-332q58 2 96.5 16.5t75.5 54.5q54 58 79 157.5t25 197.5q0 108 -25.5 212t-84.5 167
q-36 39 -72.5 54.5t-93.5 18.5v-327h137v-219h-137z" />
    <glyph glyph-name="dcroat" unicode="&#x111;" horiz-adv-x="851" 
d="M729 1038v-1038h-256v104q-66 -122 -170 -122q-60 0 -106.5 35t-72.5 85.5t-42.5 114.5t-21.5 113t-5 90q0 39 2 77t9 86t18 90t30 83t44 70t62 47t81 18q113 0 172 -129v276h-221v181h221v274h256v-274h102v-181h-102zM492 418q0 23 -1 48t-6.5 62t-14.5 65t-26.5 48.5
t-40.5 20.5q-29 0 -49 -29t-28 -75.5t-10.5 -79t-2.5 -64.5q0 -15 3 -40.5t11 -66t28.5 -68.5t50.5 -28q28 0 47 29t26.5 71t10 67.5t2.5 39.5z" />
    <glyph glyph-name="Emacron" unicode="&#x112;" horiz-adv-x="727" 
d="M653 0h-547v1366h543v-254h-272v-295h239v-258h-239v-307h276v-252zM672 1511h-586v164h586v-164z" />
    <glyph glyph-name="emacron" unicode="&#x113;" horiz-adv-x="763" 
d="M477 315h217q-2 -73 -29 -145.5t-69 -116.5q-43 -43 -91 -57t-108 -14q-67 0 -119 16.5t-100 64.5q-125 125 -125 371q0 126 33 236.5t100 177.5q84 84 209 84q119 0 197 -74q60 -58 89.5 -155t29.5 -201q0 -44 -6 -90h-406q-2 -14 -2 -52q0 -121 37 -161q22 -25 53 -25
q32 0 51 16q32 28 39 125zM303 569h184q0 45 -10.5 89t-30.5 61q-21 18 -47 18q-33 0 -57 -24q-19 -20 -29 -62.5t-10 -81.5zM676 1087h-586v164h586v-164z" />
    <glyph glyph-name="Edotaccent" unicode="&#x116;" horiz-adv-x="727" 
d="M653 0h-547v1366h543v-254h-272v-295h239v-258h-239v-307h276v-252zM516 1618q0 -55 -40.5 -95t-96.5 -40q-55 0 -95 39.5t-40 95.5q0 57 39 97t96 40t97 -40t40 -97z" />
    <glyph glyph-name="edotaccent" unicode="&#x117;" horiz-adv-x="763" 
d="M477 315h217q-2 -73 -29 -145.5t-69 -116.5q-43 -43 -91 -57t-108 -14q-67 0 -119 16.5t-100 64.5q-125 125 -125 371q0 126 33 236.5t100 177.5q84 84 209 84q119 0 197 -74q60 -58 89.5 -155t29.5 -201q0 -44 -6 -90h-406q-2 -14 -2 -52q0 -121 37 -161q22 -25 53 -25
q32 0 51 16q32 28 39 125zM303 569h184q0 45 -10.5 89t-30.5 61q-21 18 -47 18q-33 0 -57 -24q-19 -20 -29 -62.5t-10 -81.5zM520 1194q0 -55 -40.5 -95t-96.5 -40q-55 0 -95 39.5t-40 95.5q0 57 39 97t96 40t97 -40t40 -97z" />
    <glyph glyph-name="Eogonek" unicode="&#x118;" horiz-adv-x="727" 
d="M106 1366h543v-254h-272v-295h239v-258h-239v-307h276v-252h-67q-21 -19 -49 -59q-25 -42 -25 -70q0 -29 18 -47q19 -19 54 -19q34 0 69 21l-28 -154q-41 -20 -99 -20q-88 0 -135 45q-45 45 -45 113q0 63 35 114q29 42 76 76h-351v1366z" />
    <glyph glyph-name="eogonek" unicode="&#x119;" horiz-adv-x="763" 
d="M477 283h217q-8 -60 -27.5 -109.5t-36.5 -75t-44 -57.5q-18 -22 -44.5 -50.5t-35.5 -41.5q-33 -46 -33 -82q0 -32 21 -51q19 -19 49 -19q41 0 71 21l-28 -146q-41 -20 -92 -20q-82 0 -134 49q-45 45 -45 106q0 55 37 111q24 37 64 64q-157 0 -246 92q-117 120 -117 362
q0 120 31.5 231t101.5 181q84 84 211 84q118 0 195 -74q119 -119 119 -362q0 -58 -6 -107h-406v-18q0 -133 47 -178q22 -19 51 -19q33 0 52 19q28 25 28 75v15zM303 547h184q0 128 -36 166q-24 24 -56 24q-31 0 -51 -20q-41 -38 -41 -146v-24z" />
    <glyph glyph-name="Ecaron" unicode="&#x11a;" horiz-adv-x="727" 
d="M653 0h-547v1366h543v-254h-272v-295h239v-258h-239v-307h276v-252zM651 1688l-260 -205l-264 219l113 113l151 -127l160 127z" />
    <glyph glyph-name="ecaron" unicode="&#x11b;" horiz-adv-x="763" 
d="M477 315h217q-2 -73 -29 -145.5t-69 -116.5q-43 -43 -91 -57t-108 -14q-67 0 -119 16.5t-100 64.5q-125 125 -125 371q0 126 33 236.5t100 177.5q84 84 209 84q119 0 197 -74q60 -58 89.5 -155t29.5 -201q0 -44 -6 -90h-406q-2 -14 -2 -52q0 -121 37 -161q22 -25 53 -25
q32 0 51 16q32 28 39 125zM303 569h184q0 45 -10.5 89t-30.5 61q-21 18 -47 18q-33 0 -57 -24q-19 -20 -29 -62.5t-10 -81.5zM645 1264l-260 -205l-264 219l112 113l152 -127l160 127z" />
    <glyph glyph-name="Gcircumflex" unicode="&#x11c;" horiz-adv-x="1073" 
d="M559 760h438q2 -35 2 -105q0 -175 -24 -288q-36 -170 -143 -280t-271 -110q-106 0 -191.5 44t-139 115t-89.5 165t-50.5 187.5t-14.5 189.5q0 83 9.5 161.5t30.5 160.5t59 150t89.5 121.5t127.5 84t169 30.5q152 0 255 -86.5t147 -236.5l-263 -102q-6 38 -13 64.5
t-21.5 58t-40.5 48.5t-62 17q-44 0 -78.5 -25t-55 -68.5t-34.5 -91t-20 -105t-8 -97t-2 -80.5q0 -459 200 -459q161 0 166 295h-172v242zM825 1595l-110 -112l-154 127l-160 -127l-100 127l260 205z" />
    <glyph glyph-name="gcircumflex" unicode="&#x11d;" horiz-adv-x="821" 
d="M739 915v-972q0 -113 -26 -174q-41 -96 -129 -143.5t-199 -47.5q-295 0 -322 318h226q10 -111 94 -111q34 0 55.5 19t30 54t10.5 60t2 62v135q-19 -32 -32.5 -50.5t-35 -40.5t-47 -32t-57.5 -10q-59 0 -106 34t-74 85t-45 116.5t-24.5 122.5t-6.5 109q0 38 2 76.5t9 88
t18 92.5t30 85.5t44 72.5t62 49t81 19q110 0 182 -127v110h258zM494 459q0 29 -3 62.5t-11 78t-27 73.5t-47 29q-30 0 -50.5 -28t-28.5 -73t-11 -77.5t-3 -64.5t3 -64.5t11 -78t28.5 -73.5t50.5 -28q28 0 47 29t27 74t11 78t3 63zM682 1171l-111 -112l-153 127l-160 -127
l-100 127l260 205z" />
    <glyph glyph-name="Gbreve" unicode="&#x11e;" horiz-adv-x="1073" 
d="M559 760h438q2 -35 2 -105q0 -175 -24 -288q-36 -170 -143 -280t-271 -110q-106 0 -191.5 44t-139 115t-89.5 165t-50.5 187.5t-14.5 189.5q0 83 9.5 161.5t30.5 160.5t59 150t89.5 121.5t127.5 84t169 30.5q152 0 255 -86.5t147 -236.5l-263 -102q-6 38 -13 64.5
t-21.5 58t-40.5 48.5t-62 17q-44 0 -78.5 -25t-55 -68.5t-34.5 -91t-20 -105t-8 -97t-2 -80.5q0 -459 200 -459q161 0 166 295h-172v242zM694 1716h135q-4 -48 -22 -91.5t-30.5 -60t-24.5 -28.5q-39 -39 -83 -52.5t-106 -13.5q-61 0 -105 13.5t-83 52.5q-68 68 -78 180h135
q6 -35 33 -59q31 -27 98 -27q68 0 99 27q26 23 32 59z" />
    <glyph glyph-name="gbreve" unicode="&#x11f;" horiz-adv-x="821" 
d="M739 915v-972q0 -113 -26 -174q-41 -96 -129 -143.5t-199 -47.5q-295 0 -322 318h226q10 -111 94 -111q34 0 55.5 19t30 54t10.5 60t2 62v135q-19 -32 -32.5 -50.5t-35 -40.5t-47 -32t-57.5 -10q-59 0 -106 34t-74 85t-45 116.5t-24.5 122.5t-6.5 109q0 38 2 76.5t9 88
t18 92.5t30 85.5t44 72.5t62 49t81 19q110 0 182 -127v110h258zM494 459q0 29 -3 62.5t-11 78t-27 73.5t-47 29q-30 0 -50.5 -28t-28.5 -73t-11 -77.5t-3 -64.5t3 -64.5t11 -78t28.5 -73.5t50.5 -28q28 0 47 29t27 74t11 78t3 63zM543 1305h135q-4 -48 -22 -91.5t-31 -60.5
t-25 -29q-38 -38 -82 -51.5t-106 -13.5t-106.5 13.5t-82.5 51.5q-68 68 -78 181h136q6 -37 32 -60q30 -26 99 -26q68 0 98 26q27 24 33 60z" />
    <glyph glyph-name="Gdotaccent" unicode="&#x120;" horiz-adv-x="1073" 
d="M559 760h438q2 -35 2 -105q0 -175 -24 -288q-36 -170 -143 -280t-271 -110q-106 0 -191.5 44t-139 115t-89.5 165t-50.5 187.5t-14.5 189.5q0 83 9.5 161.5t30.5 160.5t59 150t89.5 121.5t127.5 84t169 30.5q152 0 255 -86.5t147 -236.5l-263 -102q-6 38 -13 64.5
t-21.5 58t-40.5 48.5t-62 17q-44 0 -78.5 -25t-55 -68.5t-34.5 -91t-20 -105t-8 -97t-2 -80.5q0 -459 200 -459q161 0 166 295h-172v242zM698 1618q0 -55 -40.5 -95t-96.5 -40q-55 0 -95 39.5t-40 95.5q0 57 39 97t96 40t97 -40t40 -97z" />
    <glyph glyph-name="gdotaccent" unicode="&#x121;" horiz-adv-x="821" 
d="M739 915v-972q0 -113 -26 -174q-41 -96 -129 -143.5t-199 -47.5q-295 0 -322 318h226q10 -111 94 -111q34 0 55.5 19t30 54t10.5 60t2 62v135q-19 -32 -32.5 -50.5t-35 -40.5t-47 -32t-57.5 -10q-59 0 -106 34t-74 85t-45 116.5t-24.5 122.5t-6.5 109q0 38 2 76.5t9 88
t18 92.5t30 85.5t44 72.5t62 49t81 19q110 0 182 -127v110h258zM494 459q0 29 -3 62.5t-11 78t-27 73.5t-47 29q-30 0 -50.5 -28t-28.5 -73t-11 -77.5t-3 -64.5t3 -64.5t11 -78t28.5 -73.5t50.5 -28q28 0 47 29t27 74t11 78t3 63zM535 1194q0 -55 -41 -95t-97 -40
q-55 0 -95 39.5t-40 95.5q0 57 39 97t96 40t97.5 -40t40.5 -97z" />
    <glyph glyph-name="Gcommaaccent" unicode="&#x122;" horiz-adv-x="1073" 
d="M559 760h438q2 -35 2 -105q0 -175 -24 -288q-36 -170 -143 -280t-271 -110q-106 0 -191.5 44t-139 115t-89.5 165t-50.5 187.5t-14.5 189.5q0 83 9.5 161.5t30.5 160.5t59 150t89.5 121.5t127.5 84t169 30.5q152 0 255 -86.5t147 -236.5l-263 -102q-6 38 -13 64.5
t-21.5 58t-40.5 48.5t-62 17q-44 0 -78.5 -25t-55 -68.5t-34.5 -91t-20 -105t-8 -97t-2 -80.5q0 -459 200 -459q161 0 166 295h-172v242zM682 -94l-172 -344h-143l104 344h211z" />
    <glyph glyph-name="gcommaaccent" unicode="&#x123;" horiz-adv-x="821" 
d="M739 915v-972q0 -113 -26 -174q-41 -96 -129 -143.5t-199 -47.5q-295 0 -322 318h226q10 -111 94 -111q34 0 55.5 19t30 54t10.5 60t2 62v135q-19 -32 -32.5 -50.5t-35 -40.5t-47 -32t-57.5 -10q-59 0 -106 34t-74 85t-45 116.5t-24.5 122.5t-6.5 109q0 38 2 76.5t9 88
t18 92.5t30 85.5t44 72.5t62 49t81 19q110 0 182 -127v110h258zM494 459q0 29 -3 62.5t-11 78t-27 73.5t-47 29q-30 0 -50.5 -28t-28.5 -73t-11 -77.5t-3 -64.5t3 -64.5t11 -78t28.5 -73.5t50.5 -28q28 0 47 29t27 74t11 78t3 63zM252 1014l188 372h144l-121 -372h-211z" />
    <glyph glyph-name="Hcircumflex" unicode="&#x124;" horiz-adv-x="1026" 
d="M920 0h-271v604h-272v-604h-271v1366h271v-506h272v506h271v-1366zM774 1595l-110 -112l-154 127l-160 -127l-100 127l260 205z" />
    <glyph glyph-name="hcircumflex" unicode="&#x125;" horiz-adv-x="806" 
d="M725 0h-256v561q0 115 -61 115q-25 0 -40.5 -13t-21.5 -38.5t-7 -42t-1 -45.5v-7v-530h-256v1493h256v-721q82 160 217 160q33 0 59 -9t43.5 -23t30.5 -36t20 -43.5t11 -51.5t5 -53t1 -54v-662zM477 1622l-110 -113l-154 127l-160 -127l-100 127l260 205z" />
    <glyph glyph-name="Hbar" unicode="&#x126;" horiz-adv-x="1026" 
d="M920 0h-271v604h-272v-604h-271v1059h-102v198h102v109h271v-109h272v109h271v-109h102v-198h-102v-1059zM649 1059h-272v-199h272v199z" />
    <glyph glyph-name="hbar" unicode="&#x127;" horiz-adv-x="858" 
d="M776 0h-256v520q0 115 -61 115q-25 0 -40.5 -13t-21.5 -38.5t-7 -42t-1 -45.5v-7v-489h-256v1038h-113v181h113v274h256v-274h221v-181h-221v-307q82 160 217 160q33 0 59 -9t43.5 -23t30.5 -36t20 -43.5t11 -51.5t5 -53t1 -54v-621z" />
    <glyph glyph-name="Imacron" unicode="&#x12a;" horiz-adv-x="483" 
d="M377 0h-271v1366h271v-1366zM535 1511h-586v164h586v-164z" />
    <glyph glyph-name="imacron" unicode="&#x12b;" horiz-adv-x="421" 
d="M338 0h-256v915h256v-915zM504 1087h-586v164h586v-164z" />
    <glyph glyph-name="Iogonek" unicode="&#x12e;" horiz-adv-x="483" 
d="M106 1366h271v-1366q-21 -19 -49 -59q-25 -42 -25 -70t19 -47t53 -19q35 0 69 21l-28 -154q-41 -20 -99 -20q-88 0 -135 45q-45 45 -45 113q0 63 35 114q29 42 76 76h-142v1366z" />
    <glyph glyph-name="iogonek" unicode="&#x12f;" horiz-adv-x="421" 
d="M80 915h256v-915q-38 -38 -55 -61q-29 -39 -29 -76q0 -27 16 -43q20 -23 56 -23q27 0 65 21l-29 -146q-42 -20 -94 -20q-82 0 -129 47q-43 43 -43 113q0 54 41 110q31 42 80 78h-135v915zM51 1186q0 66 48 114t114 48t114 -48t48 -114t-48 -114t-114 -48t-114 48t-48 114
z" />
    <glyph glyph-name="Idotaccent" unicode="&#x130;" horiz-adv-x="483" 
d="M377 0h-271v1366h271v-1366zM379 1618q0 -55 -40.5 -95t-96.5 -40t-96 40t-40 95q0 57 39.5 97t96.5 40t97 -40t40 -97z" />
    <glyph glyph-name="dotlessi" unicode="&#x131;" horiz-adv-x="421" 
d="M338 0h-256v915h256v-915z" />
    <glyph glyph-name="Jcircumflex" unicode="&#x134;" horiz-adv-x="634" 
d="M528 1366v-960q0 -143 -28 -224q-33 -96 -114.5 -150.5t-184.5 -54.5q-122 0 -201 43v271q62 -76 143 -76q24 0 43 7.5t31 17.5t20.5 29.5t12.5 33t6 40t2 38.5v39v946h270zM651 1595l-110 -112l-154 127l-160 -127l-100 127l260 205z" />
    <glyph glyph-name="jcircumflex" unicode="&#x135;" horiz-adv-x="421" 
d="M338 -440h-256v1355h256v-1355zM473 1171l-111 -112l-153 127l-160 -127l-100 127l260 205z" />
    <glyph glyph-name="Kcommaaccent" unicode="&#x136;" horiz-adv-x="925" 
d="M911 0h-282l-252 694v-694h-271v1366h271v-610l227 610h277l-252 -631zM621 -94l-172 -344h-144l105 344h211z" />
    <glyph glyph-name="kcommaaccent" unicode="&#x137;" horiz-adv-x="796" 
d="M803 0h-271l-194 473v-473h-256v1493h256v-930l151 352h267l-201 -383zM539 -94l-189 -373h-143l121 373h211z" />
    <glyph glyph-name="Lacute" unicode="&#x139;" horiz-adv-x="673" 
d="M659 0h-553v1366h271v-1110h282v-256zM508 1733l-236 -250l-122 73l174 263z" />
    <glyph glyph-name="lacute" unicode="&#x13a;" horiz-adv-x="419" 
d="M338 0h-256v1493h256v-1493zM457 1780l-236 -250l-123 74l174 262z" />
    <glyph glyph-name="Lcommaaccent" unicode="&#x13b;" horiz-adv-x="673" 
d="M659 0h-553v1366h271v-1110h282v-256zM516 -94l-172 -344h-143l104 344h211z" />
    <glyph glyph-name="lcommaaccent" unicode="&#x13c;" horiz-adv-x="419" 
d="M338 0h-256v1493h256v-1493zM324 -94l-189 -373h-143l121 373h211z" />
    <glyph glyph-name="Lcaron" unicode="&#x13d;" horiz-adv-x="774" 
d="M659 0h-553v1366h271v-1110h282v-256zM795 1366l-174 -405h-144l105 405h213z" />
    <glyph glyph-name="lcaron" unicode="&#x13e;" horiz-adv-x="706" 
d="M338 0h-256v1493h256v-1493zM727 1366l-174 -418h-143l106 418h211z" />
    <glyph glyph-name="Ldot" unicode="&#x13f;" horiz-adv-x="673" 
d="M659 0h-553v1366h271v-1110h282v-256zM711 684q0 -55 -41 -95t-97 -40q-55 0 -95 39.5t-40 95.5q0 57 39 97t96 40t97.5 -40t40.5 -97z" />
    <glyph glyph-name="ldot" unicode="&#x140;" horiz-adv-x="659" 
d="M338 0h-256v1493h256v-1493zM676 748q0 -55 -40.5 -95.5t-96.5 -40.5q-55 0 -95.5 40t-40.5 96q0 57 39.5 97t96.5 40t97 -40t40 -97z" />
    <glyph glyph-name="Lslash" unicode="&#x141;" horiz-adv-x="673" 
d="M659 0h-553v414l-106 -119v229l106 119v723h271v-492l241 269v-230l-241 -268v-389h282v-256z" />
    <glyph glyph-name="lslash" unicode="&#x142;" horiz-adv-x="419" 
d="M338 1493v-492l98 101v-205l-98 -100v-797h-256v567l-100 -102v205l100 102v721h256z" />
    <glyph glyph-name="Nacute" unicode="&#x143;" horiz-adv-x="1058" 
d="M952 0h-254l-336 823q15 -77 15 -155v-668h-271v1366h256l336 -825q-20 102 -20 184v641h274v-1366zM774 1733l-235 -250l-123 73l174 263z" />
    <glyph glyph-name="nacute" unicode="&#x144;" horiz-adv-x="806" 
d="M725 0h-256v561q0 115 -61 115q-25 0 -40.5 -13t-21.5 -38.5t-7 -42t-1 -45.5v-7v-530h-256v915h256v-143q82 160 217 160q33 0 59 -9t43.5 -23t30.5 -36t20 -43.5t11 -51.5t5 -53t1 -54v-662zM651 1309l-235 -250l-123 74l174 262z" />
    <glyph glyph-name="Ncommaaccent" unicode="&#x145;" horiz-adv-x="1058" 
d="M952 0h-254l-336 823q15 -77 15 -155v-668h-271v1366h256l336 -825q-20 102 -20 184v641h274v-1366zM662 -94l-173 -344h-143l105 344h211z" />
    <glyph glyph-name="ncommaaccent" unicode="&#x146;" horiz-adv-x="806" 
d="M725 0h-256v561q0 115 -61 115q-25 0 -40.5 -13t-21.5 -38.5t-7 -42t-1 -45.5v-7v-530h-256v915h256v-143q82 160 217 160q33 0 59 -9t43.5 -23t30.5 -36t20 -43.5t11 -51.5t5 -53t1 -54v-662zM518 -94l-188 -373h-144l121 373h211z" />
    <glyph glyph-name="Ncaron" unicode="&#x147;" horiz-adv-x="1058" 
d="M952 0h-254l-336 823q15 -77 15 -155v-668h-271v1366h256l336 -825q-20 102 -20 184v641h274v-1366zM791 1688l-261 -205l-264 219l113 113l151 -127l160 127z" />
    <glyph glyph-name="ncaron" unicode="&#x148;" horiz-adv-x="806" 
d="M725 0h-256v561q0 115 -61 115q-25 0 -40.5 -13t-21.5 -38.5t-7 -42t-1 -45.5v-7v-530h-256v915h256v-143q82 160 217 160q33 0 59 -9t43.5 -23t30.5 -36t20 -43.5t11 -51.5t5 -53t1 -54v-662zM676 1264l-260 -205l-264 219l112 113l152 -127l159 127z" />
    <glyph glyph-name="Omacron" unicode="&#x14c;" horiz-adv-x="1110" 
d="M1034 682q0 -156 -26 -283.5t-97 -228.5q-61 -87 -156.5 -140t-199.5 -53q-103 0 -198 53t-158 140q-123 169 -123 512q0 156 26 284.5t97 229.5q60 87 156 138.5t200 51.5t198.5 -51.5t157.5 -138.5q123 -169 123 -514zM748 688q0 49 -2.5 96t-14.5 115.5t-31 118
t-56.5 85.5t-88.5 36t-88.5 -36t-56.5 -85.5t-31 -118t-14.5 -115.5t-2.5 -96t2.5 -96t14.5 -115t31 -117.5t56.5 -85.5t88.5 -36t88.5 36t56.5 85.5t31 117.5t14.5 115t2.5 96zM848 1511h-586v164h586v-164z" />
    <glyph glyph-name="omacron" unicode="&#x14d;" horiz-adv-x="802" 
d="M748 457q0 -72 -9.5 -136.5t-34.5 -127.5t-63 -109t-99 -74t-139 -28q-76 0 -136.5 28.5t-99.5 75t-65 109.5t-36.5 127.5t-10.5 134.5t10.5 134.5t36.5 127.5t65 109.5t99.5 75t136.5 28.5q79 0 140 -28t99 -73.5t62.5 -109t34 -128t9.5 -136.5zM489 457q0 31 -2.5 63.5
t-10 78t-26.5 74.5t-47 29q-29 0 -49 -28.5t-28 -74t-10.5 -78t-2.5 -64.5t2.5 -65t10.5 -78.5t28 -74t49 -28.5q28 0 47 29t26.5 75t10 78.5t2.5 63.5zM694 1087h-585v164h585v-164z" />
    <glyph glyph-name="Obreve" unicode="&#x14e;" horiz-adv-x="1110" 
d="M1034 682q0 -156 -26 -283.5t-97 -228.5q-61 -87 -156.5 -140t-199.5 -53q-103 0 -198 53t-158 140q-123 169 -123 512q0 156 26 284.5t97 229.5q60 87 156 138.5t200 51.5t198.5 -51.5t157.5 -138.5q123 -169 123 -514zM748 688q0 49 -2.5 96t-14.5 115.5t-31 118
t-56.5 85.5t-88.5 36t-88.5 -36t-56.5 -85.5t-31 -118t-14.5 -115.5t-2.5 -96t2.5 -96t14.5 -115t31 -117.5t56.5 -85.5t88.5 -36t88.5 36t56.5 85.5t31 117.5t14.5 115t2.5 96zM686 1716h135q-8 -110 -78 -180q-39 -39 -83 -52.5t-105 -13.5t-105 13.5t-83 52.5
q-68 68 -78 180h135q6 -35 33 -59q31 -27 98 -27t98 27q27 24 33 59z" />
    <glyph glyph-name="obreve" unicode="&#x14f;" horiz-adv-x="802" 
d="M748 457q0 -72 -9.5 -136.5t-34.5 -127.5t-63 -109t-99 -74t-139 -28q-76 0 -136.5 28.5t-99.5 75t-65 109.5t-36.5 127.5t-10.5 134.5t10.5 134.5t36.5 127.5t65 109.5t99.5 75t136.5 28.5q79 0 140 -28t99 -73.5t62.5 -109t34 -128t9.5 -136.5zM489 457q0 31 -2.5 63.5
t-10 78t-26.5 74.5t-47 29q-29 0 -49 -28.5t-28 -74t-10.5 -78t-2.5 -64.5t2.5 -65t10.5 -78.5t28 -74t49 -28.5q28 0 47 29t26.5 75t10 78.5t2.5 63.5zM532 1305h136q-4 -48 -22 -91.5t-31 -60.5t-25 -29q-38 -38 -82.5 -51.5t-106.5 -13.5t-106 13.5t-82 51.5
q-68 68 -78 181h135q6 -36 33 -60q30 -26 98 -26q69 0 99 26q26 23 32 60z" />
    <glyph glyph-name="Ohungarumlaut" unicode="&#x150;" horiz-adv-x="1110" 
d="M1034 682q0 -156 -26 -283.5t-97 -228.5q-61 -87 -156.5 -140t-199.5 -53q-103 0 -198 53t-158 140q-123 169 -123 512q0 156 26 284.5t97 229.5q60 87 156 138.5t200 51.5t198.5 -51.5t157.5 -138.5q123 -169 123 -514zM748 688q0 49 -2.5 96t-14.5 115.5t-31 118
t-56.5 85.5t-88.5 36t-88.5 -36t-56.5 -85.5t-31 -118t-14.5 -115.5t-2.5 -96t2.5 -96t14.5 -115t31 -117.5t56.5 -85.5t88.5 -36t88.5 36t56.5 85.5t31 117.5t14.5 115t2.5 96zM887 1733l-174 -250l-117 73l123 263zM606 1733l-176 -250l-117 73l123 263z" />
    <glyph glyph-name="ohungarumlaut" unicode="&#x151;" horiz-adv-x="802" 
d="M748 457q0 -72 -9.5 -136.5t-34.5 -127.5t-63 -109t-99 -74t-139 -28q-76 0 -136.5 28.5t-99.5 75t-65 109.5t-36.5 127.5t-10.5 134.5t10.5 134.5t36.5 127.5t65 109.5t99.5 75t136.5 28.5q79 0 140 -28t99 -73.5t62.5 -109t34 -128t9.5 -136.5zM489 457q0 31 -2.5 63.5
t-10 78t-26.5 74.5t-47 29q-29 0 -49 -28.5t-28 -74t-10.5 -78t-2.5 -64.5t2.5 -65t10.5 -78.5t28 -74t49 -28.5q28 0 47 29t26.5 75t10 78.5t2.5 63.5zM735 1309l-174 -250l-117 74l123 262zM455 1309l-176 -250l-117 74l123 262z" />
    <glyph glyph-name="OE" unicode="&#x152;" horiz-adv-x="1382" 
d="M1307 0h-562v106q-93 -129 -241 -129q-73 0 -134 24.5t-104 65.5t-77 98.5t-55 119.5t-34.5 132t-18.5 132.5t-5 124.5q0 76 8 151.5t26 158.5t52 152.5t81 127t117.5 90t157.5 32.5q144 0 227 -98v78h560v-252h-293v-285h262v-262h-262v-311h295v-256zM745 686
q0 463 -188 463q-51 0 -89 -37t-57 -87.5t-30 -121t-13.5 -117.5t-2.5 -98q0 -49 2.5 -97t14 -117.5t30.5 -120t56.5 -87.5t88.5 -37q188 0 188 457z" />
    <glyph glyph-name="oe" unicode="&#x153;" horiz-adv-x="1193" 
d="M909 285h217q-11 -141 -87.5 -222t-215.5 -81q-137 0 -237 100q-77 -100 -201 -100q-89 0 -156.5 41.5t-104 110t-54 145.5t-17.5 161q0 87 19 169.5t58 157t109.5 120t163.5 45.5q114 0 201 -90q51 49 97.5 69.5t113.5 20.5q72 0 129 -25t93 -66.5t60 -99t34 -117.5
t10 -126q0 -37 -4 -111h-410v-20q0 -191 100 -191q41 0 61.5 33.5t20.5 75.5zM909 545v4q0 182 -88 182q-90 0 -90 -186h178zM489 457q0 31 -2.5 63.5t-10 78t-26.5 74.5t-47 29q-29 0 -49 -28t-28 -73t-10.5 -77.5t-2.5 -64.5q0 -34 2.5 -65.5t10 -78.5t27.5 -75.5
t50 -28.5q28 0 47 29t26.5 75t10 78.5t2.5 63.5z" />
    <glyph glyph-name="Racute" unicode="&#x154;" horiz-adv-x="968" 
d="M901 0h-285l-239 629v-629h-271v1366h293q197 0 297 -66q79 -52 120.5 -141.5t41.5 -189.5q0 -117 -47 -202t-147 -146zM377 1153v-375q14 -2 45 -2q85 0 129.5 52t44.5 139t-41 136.5t-127 49.5h-51zM713 1733l-236 -250l-123 73l174 263z" />
    <glyph glyph-name="racute" unicode="&#x155;" horiz-adv-x="569" 
d="M549 948v-248q-30 5 -37 5q-45 0 -77 -10.5t-51 -28t-29.5 -47t-13.5 -60t-3 -74.5v-485h-256v915h256v-112q46 67 91.5 100.5t119.5 44.5zM569 1309l-235 -250l-123 74l174 262z" />
    <glyph glyph-name="Rcommaaccent" unicode="&#x156;" horiz-adv-x="968" 
d="M901 0h-285l-239 629v-629h-271v1366h293q197 0 297 -66q79 -52 120.5 -141.5t41.5 -189.5q0 -117 -47 -202t-147 -146zM377 1153v-375q14 -2 45 -2q85 0 129.5 52t44.5 139t-41 136.5t-127 49.5h-51zM610 -94l-172 -344h-143l104 344h211z" />
    <glyph glyph-name="rcommaaccent" unicode="&#x157;" horiz-adv-x="569" 
d="M549 948v-248q-30 5 -37 5q-45 0 -77 -10.5t-51 -28t-29.5 -47t-13.5 -60t-3 -74.5v-485h-256v915h256v-112q46 67 91.5 100.5t119.5 44.5zM442 -94l-188 -373h-143l120 373h211z" />
    <glyph glyph-name="Rcaron" unicode="&#x158;" horiz-adv-x="968" 
d="M901 0h-285l-239 629v-629h-271v1366h293q197 0 297 -66q79 -52 120.5 -141.5t41.5 -189.5q0 -117 -47 -202t-147 -146zM377 1153v-375q14 -2 45 -2q85 0 129.5 52t44.5 139t-41 136.5t-127 49.5h-51zM713 1688l-260 -205l-265 219l113 113l152 -127l159 127z" />
    <glyph glyph-name="rcaron" unicode="&#x159;" horiz-adv-x="569" 
d="M549 948v-248q-30 5 -37 5q-45 0 -77 -10.5t-51 -28t-29.5 -47t-13.5 -60t-3 -74.5v-485h-256v915h256v-112q46 67 91.5 100.5t119.5 44.5zM573 1264l-260 -205l-264 219l113 113l151 -127l160 127z" />
    <glyph glyph-name="Sacute" unicode="&#x15a;" horiz-adv-x="800" 
d="M670 1321v-264q-103 88 -195 88q-60 0 -97.5 -36.5t-37.5 -96.5q0 -48 22.5 -88t59 -70.5t80 -61t87 -67t80 -79t59 -106.5t22.5 -141q0 -183 -104.5 -302.5t-285.5 -119.5q-131 0 -235 70v258q110 -74 201 -74q70 0 114.5 41.5t44.5 110.5q0 38 -14 70q-7 15 -18.5 29
t-32 30t-29.5 23.5t-36.5 25.5t-28.5 19q-64 44 -105.5 81t-77.5 85t-52.5 106t-16.5 131q0 110 40 200t122.5 146.5t193.5 56.5q124 0 240 -65zM692 1733l-235 -250l-123 73l174 263z" />
    <glyph glyph-name="sacute" unicode="&#x15b;" horiz-adv-x="645" 
d="M612 854l-102 -186q-32 30 -59 45.5t-62 15.5q-29 0 -47 -18t-18 -47q0 -25 21 -46.5t53 -36t69 -38t69 -51.5t53 -78t21 -115q0 -136 -77 -226.5t-211 -90.5q-144 0 -279 104l113 182q68 -57 125 -57q35 0 58 21t23 55q0 26 -22 48.5t-55.5 38.5t-72 40.5t-72 53
t-55.5 79t-22 115.5q0 127 88 198.5t218 71.5q71 0 127.5 -18t115.5 -60zM631 1309l-236 -250l-123 74l174 262z" />
    <glyph glyph-name="Scircumflex" unicode="&#x15c;" horiz-adv-x="800" 
d="M670 1321v-264q-103 88 -195 88q-60 0 -97.5 -36.5t-37.5 -96.5q0 -48 22.5 -88t59 -70.5t80 -61t87 -67t80 -79t59 -106.5t22.5 -141q0 -183 -104.5 -302.5t-285.5 -119.5q-131 0 -235 70v258q110 -74 201 -74q70 0 114.5 41.5t44.5 110.5q0 38 -14 70q-7 15 -18.5 29
t-32 30t-29.5 23.5t-36.5 25.5t-28.5 19q-64 44 -105.5 81t-77.5 85t-52.5 106t-16.5 131q0 110 40 200t122.5 146.5t193.5 56.5q124 0 240 -65zM692 1595l-110 -112l-154 127l-160 -127l-100 127l260 205z" />
    <glyph glyph-name="scircumflex" unicode="&#x15d;" horiz-adv-x="645" 
d="M612 854l-102 -186q-32 30 -59 45.5t-62 15.5q-29 0 -47 -18t-18 -47q0 -25 21 -46.5t53 -36t69 -38t69 -51.5t53 -78t21 -115q0 -136 -77 -226.5t-211 -90.5q-144 0 -279 104l113 182q68 -57 125 -57q35 0 58 21t23 55q0 26 -22 48.5t-55.5 38.5t-72 40.5t-72 53
t-55.5 79t-22 115.5q0 127 88 198.5t218 71.5q71 0 127.5 -18t115.5 -60zM631 1171l-111 -112l-153 127l-160 -127l-101 127l261 205z" />
    <glyph glyph-name="Scedilla" unicode="&#x15e;" horiz-adv-x="800" 
d="M670 1321v-264q-103 88 -195 88q-60 0 -97.5 -36.5t-37.5 -96.5q0 -48 22.5 -88t59 -70.5t80 -61t87 -67t80 -79t59 -106.5t22.5 -141q0 -183 -104.5 -302.5t-285.5 -119.5q-131 0 -235 70v258q110 -74 201 -74q70 0 114.5 41.5t44.5 110.5q0 38 -14 70q-7 15 -18.5 29
t-32 30t-29.5 23.5t-36.5 25.5t-28.5 19q-64 44 -105.5 81t-77.5 85t-52.5 106t-16.5 131q0 110 40 200t122.5 146.5t193.5 56.5q124 0 240 -65zM537 -164l-205 -256l-125 72l155 262z" />
    <glyph glyph-name="scedilla" unicode="&#x15f;" horiz-adv-x="645" 
d="M612 854l-102 -186q-32 30 -59 45.5t-62 15.5q-29 0 -47 -18t-18 -47q0 -25 21 -46.5t53 -36t69 -38t69 -51.5t53 -78t21 -115q0 -136 -77 -226.5t-211 -90.5q-144 0 -279 104l113 182q68 -57 125 -57q35 0 58 21t23 55q0 26 -22 48.5t-55.5 38.5t-72 40.5t-72 53
t-55.5 79t-22 115.5q0 127 88 198.5t218 71.5q71 0 127.5 -18t115.5 -60zM479 -160l-198 -252l-121 68l149 258z" />
    <glyph glyph-name="Scaron" unicode="&#x160;" horiz-adv-x="800" 
d="M670 1321v-264q-103 88 -195 88q-60 0 -97.5 -36.5t-37.5 -96.5q0 -48 22.5 -88t59 -70.5t80 -61t87 -67t80 -79t59 -106.5t22.5 -141q0 -183 -104.5 -302.5t-285.5 -119.5q-131 0 -235 70v258q110 -74 201 -74q70 0 114.5 41.5t44.5 110.5q0 38 -14 70q-7 15 -18.5 29
t-32 30t-29.5 23.5t-36.5 25.5t-28.5 19q-64 44 -105.5 81t-77.5 85t-52.5 106t-16.5 131q0 110 40 200t122.5 146.5t193.5 56.5q124 0 240 -65zM692 1688l-260 -205l-264 219l113 113l151 -127l160 127z" />
    <glyph glyph-name="scaron" unicode="&#x161;" horiz-adv-x="645" 
d="M612 854l-102 -186q-32 30 -59 45.5t-62 15.5q-29 0 -47 -18t-18 -47q0 -25 21 -46.5t53 -36t69 -38t69 -51.5t53 -78t21 -115q0 -136 -77 -226.5t-211 -90.5q-144 0 -279 104l113 182q68 -57 125 -57q35 0 58 21t23 55q0 26 -22 48.5t-55.5 38.5t-72 40.5t-72 53
t-55.5 79t-22 115.5q0 127 88 198.5t218 71.5q71 0 127.5 -18t115.5 -60zM631 1264l-260 -205l-265 219l113 113l152 -127l159 127z" />
    <glyph glyph-name="Tcedilla" unicode="&#x162;" horiz-adv-x="692" 
d="M692 1116h-211v-1116h-270v1116h-211v250h692v-250zM504 -164l-205 -256l-125 72l156 262z" />
    <glyph glyph-name="tcedilla" unicode="&#x163;" horiz-adv-x="471" 
d="M467 702h-105v-702h-256v702h-88v213h88v261h256v-261h105v-213zM403 -160l-198 -252l-121 68l149 258z" />
    <glyph glyph-name="Tcaron" unicode="&#x164;" horiz-adv-x="692" 
d="M481 1116h211v250h-692v-250h211v-1116h270v1116zM610 1688l-260 -205l-264 219l113 113l151 -127l160 127z" />
    <glyph glyph-name="tcaron" unicode="&#x165;" horiz-adv-x="727" 
d="M467 702h-105v-702h-256v702h-88v213h88v261h256v-261h105v-213zM748 1438l-175 -418h-143l107 418h211z" />
    <glyph glyph-name="Utilde" unicode="&#x168;" horiz-adv-x="1021" 
d="M915 1366v-1018q0 -68 -8.5 -114.5t-36.5 -94.5q-27 -45 -68 -77.5t-90.5 -50.5t-99.5 -26t-104 -8q-178 0 -290 89t-112 262v1038h271v-907v-8q0 -30 0.5 -45.5t3 -43.5t7 -44t14.5 -36.5t24 -31.5t36 -19t50 -8q32 0 56 8t38 26t22.5 34.5t12 46.5t4 48t0.5 52v8v920
h270zM670 1733l135 -9q-6 -38 -12 -65.5t-19.5 -63.5t-31 -58t-47.5 -38t-68 -16q-43 0 -116.5 31.5t-104.5 31.5q-48 0 -58 -57h-133q4 40 9 68.5t17.5 64t30 57t47.5 37t70 15.5q45 0 113 -35t102 -35q16 0 27 3.5t17.5 12t9.5 15t6.5 21t5.5 20.5z" />
    <glyph glyph-name="utilde" unicode="&#x169;" horiz-adv-x="804" 
d="M723 915v-618q0 -56 -8.5 -95t-34.5 -79q-43 -67 -119.5 -104t-161.5 -37t-162 37.5t-118 105.5q-37 61 -37 158v632h256v-563q0 -133 63 -133q16 0 28 6.5t19 19.5t11 26t5.5 32.5t1.5 31.5t-0.5 31.5t-0.5 24.5v524h258zM561 1309l135 -9q-6 -38 -12 -65.5t-19.5 -63.5
t-31 -58t-47.5 -38t-68 -16q-43 0 -116.5 31.5t-104.5 31.5q-47 0 -57 -57h-134q4 40 9 68.5t17.5 64t30 57t48 37t70.5 15.5q45 0 113 -35t102 -35q20 0 32.5 7.5t16.5 13.5t9 26t7 25z" />
    <glyph glyph-name="Umacron" unicode="&#x16a;" horiz-adv-x="1021" 
d="M915 1366v-1018q0 -68 -8.5 -114.5t-36.5 -94.5q-27 -45 -68 -77.5t-90.5 -50.5t-99.5 -26t-104 -8q-178 0 -290 89t-112 262v1038h271v-907v-8q0 -30 0.5 -45.5t3 -43.5t7 -44t14.5 -36.5t24 -31.5t36 -19t50 -8q32 0 56 8t38 26t22.5 34.5t12 46.5t4 48t0.5 52v8v920
h270zM795 1511h-586v164h586v-164z" />
    <glyph glyph-name="umacron" unicode="&#x16b;" horiz-adv-x="804" 
d="M723 915v-618q0 -56 -8.5 -95t-34.5 -79q-43 -67 -119.5 -104t-161.5 -37t-162 37.5t-118 105.5q-37 61 -37 158v632h256v-563q0 -133 63 -133q16 0 28 6.5t19 19.5t11 26t5.5 32.5t1.5 31.5t-0.5 31.5t-0.5 24.5v524h258zM696 1087h-585v164h585v-164z" />
    <glyph glyph-name="Ubreve" unicode="&#x16c;" horiz-adv-x="1021" 
d="M915 1366v-1018q0 -68 -8.5 -114.5t-36.5 -94.5q-27 -45 -68 -77.5t-90.5 -50.5t-99.5 -26t-104 -8q-178 0 -290 89t-112 262v1038h271v-907v-8q0 -30 0.5 -45.5t3 -43.5t7 -44t14.5 -36.5t24 -31.5t36 -19t50 -8q32 0 56 8t38 26t22.5 34.5t12 46.5t4 48t0.5 52v8v920
h270zM643 1716h135q-8 -110 -78 -180q-39 -39 -83 -52.5t-105 -13.5t-105 13.5t-83 52.5q-68 68 -78 180h135q6 -35 33 -59q31 -27 98 -27t98 27q27 24 33 59z" />
    <glyph glyph-name="ubreve" unicode="&#x16d;" horiz-adv-x="804" 
d="M723 915v-618q0 -56 -8.5 -95t-34.5 -79q-43 -67 -119.5 -104t-161.5 -37t-162 37.5t-118 105.5q-37 61 -37 158v632h256v-563q0 -133 63 -133q16 0 28 6.5t19 19.5t11 26t5.5 32.5t1.5 31.5t-0.5 31.5t-0.5 24.5v524h258zM535 1305h135q-4 -48 -22 -91.5t-31 -60.5
t-25 -29q-38 -38 -82.5 -51.5t-106.5 -13.5t-106 13.5t-82 51.5q-68 68 -78 181h135q6 -36 33 -60q30 -26 98 -26q69 0 99 26q27 24 33 60z" />
    <glyph glyph-name="Uring" unicode="&#x16e;" horiz-adv-x="1021" 
d="M915 1366v-1018q0 -68 -8.5 -114.5t-36.5 -94.5q-27 -45 -68 -77.5t-90.5 -50.5t-99.5 -26t-104 -8q-178 0 -290 89t-112 262v1038h271v-907v-8q0 -30 0.5 -45.5t3 -43.5t7 -44t14.5 -36.5t24 -31.5t36 -19t50 -8q32 0 56 8t38 26t22.5 34.5t12 46.5t4 48t0.5 52v8v920
h270zM315 1659q0 82 57.5 139t139.5 57t139.5 -57t57.5 -139t-57.5 -139.5t-139.5 -57.5t-139.5 57.5t-57.5 139.5zM428 1659q0 -37 23.5 -60.5t60.5 -23.5t60.5 23.5t23.5 60.5t-23.5 60.5t-60.5 23.5t-60.5 -23.5t-23.5 -60.5z" />
    <glyph glyph-name="uring" unicode="&#x16f;" horiz-adv-x="804" 
d="M723 915v-618q0 -56 -8.5 -95t-34.5 -79q-43 -67 -119.5 -104t-161.5 -37t-162 37.5t-118 105.5q-37 61 -37 158v632h256v-563q0 -133 63 -133q16 0 28 6.5t19 19.5t11 26t5.5 32.5t1.5 31.5t-0.5 31.5t-0.5 24.5v524h258zM207 1268q0 82 57 139t139 57t139.5 -57
t57.5 -139t-57.5 -139.5t-139.5 -57.5t-139 57.5t-57 139.5zM319 1268q0 -37 23.5 -60.5t60.5 -23.5t60.5 23.5t23.5 60.5t-23.5 60.5t-60.5 23.5t-60.5 -23.5t-23.5 -60.5z" />
    <glyph glyph-name="Uhungarumlaut" unicode="&#x170;" horiz-adv-x="1021" 
d="M915 1366v-1018q0 -68 -8.5 -114.5t-36.5 -94.5q-27 -45 -68 -77.5t-90.5 -50.5t-99.5 -26t-104 -8q-178 0 -290 89t-112 262v1038h271v-907v-8q0 -30 0.5 -45.5t3 -43.5t7 -44t14.5 -36.5t24 -31.5t36 -19t50 -8q32 0 56 8t38 26t22.5 34.5t12 46.5t4 48t0.5 52v8v920
h270zM825 1733l-174 -250l-116 73l122 263zM545 1733l-176 -250l-117 73l123 263z" />
    <glyph glyph-name="uhungarumlaut" unicode="&#x171;" horiz-adv-x="804" 
d="M723 915v-618q0 -56 -8.5 -95t-34.5 -79q-43 -67 -119.5 -104t-161.5 -37t-162 37.5t-118 105.5q-37 61 -37 158v632h256v-563q0 -133 63 -133q16 0 28 6.5t19 19.5t11 26t5.5 32.5t1.5 31.5t-0.5 31.5t-0.5 24.5v524h258zM723 1309l-174 -250l-117 74l123 262zM442 1309
l-176 -250l-116 74l122 262z" />
    <glyph glyph-name="Uogonek" unicode="&#x172;" horiz-adv-x="1021" 
d="M915 1366v-997q0 -52 -4.5 -90.5t-27.5 -94t-66 -98.5q-31 -31 -110 -82q-57 -35 -80 -63q-25 -31 -25 -68q0 -30 19 -49t53 -19t69 21l-28 -154q-41 -20 -99 -20q-88 0 -135 45q-45 45 -45 113q0 99 86 167q-221 0 -329 113q-87 92 -87 238v1038h271v-930
q0 -134 37 -174q35 -39 98 -39q66 0 98 39q35 41 35 156v948h270z" />
    <glyph glyph-name="uogonek" unicode="&#x173;" horiz-adv-x="804" 
d="M723 915v-604q0 -99 -20 -155.5t-60 -98.5q-24 -25 -65.5 -57t-49.5 -39q-49 -46 -49 -100q0 -24 21 -45q19 -19 49 -19q42 0 72 21l-29 -146q-41 -20 -92 -20q-81 0 -133 49q-45 45 -45 109q0 56 36 108q24 37 64 64q-170 0 -264 94q-46 46 -61 93t-15 114v632h256v-563
q0 -84 22 -112q15 -21 41 -21q25 0 37 12q27 22 27 109v575h258z" />
    <glyph glyph-name="Ydieresis" unicode="&#x178;" horiz-adv-x="915" 
d="M915 1366l-317 -782v-584h-270v584l-328 782h297l100 -297q44 -135 62 -203q19 79 59 205l94 295h303zM768 1618q0 -56 -40 -95.5t-95 -39.5t-95 39.5t-40 95.5t40 95.5t95 39.5t95 -39.5t40 -95.5zM420 1618q0 -56 -40 -95.5t-95 -39.5t-95 39.5t-40 95.5t40 95.5
t95 39.5t95 -39.5t40 -95.5z" />
    <glyph glyph-name="Zacute" unicode="&#x179;" horiz-adv-x="933" 
d="M897 1366l-467 -1110h428v-256h-821l455 1108h-398v258h803zM729 1733l-235 -250l-123 73l174 263z" />
    <glyph glyph-name="zacute" unicode="&#x17a;" horiz-adv-x="698" 
d="M670 915l-283 -704h254v-211h-614l290 702h-260v213h613zM612 1309l-235 -250l-123 74l174 262z" />
    <glyph glyph-name="Zdotaccent" unicode="&#x17b;" horiz-adv-x="933" 
d="M897 1366l-467 -1110h428v-256h-821l455 1108h-398v258h803zM631 1618q0 -55 -40.5 -95t-96.5 -40t-96 40t-40 95q0 57 39.5 97t96.5 40t97 -40t40 -97z" />
    <glyph glyph-name="zdotaccent" unicode="&#x17c;" horiz-adv-x="698" 
d="M670 915l-283 -704h254v-211h-614l290 702h-260v213h613zM504 1194q0 -55 -40.5 -95t-96.5 -40t-96 40t-40 95q0 57 39.5 97t96.5 40t97 -40t40 -97z" />
    <glyph glyph-name="Zcaron" unicode="&#x17d;" horiz-adv-x="933" 
d="M897 1366l-467 -1110h428v-256h-821l455 1108h-398v258h803zM754 1688l-260 -205l-265 219l113 113l152 -127l159 127z" />
    <glyph glyph-name="zcaron" unicode="&#x17e;" horiz-adv-x="698" 
d="M670 915l-283 -704h254v-211h-614l290 702h-260v213h613zM612 1264l-260 -205l-264 219l113 113l151 -127l160 127z" />
    <glyph glyph-name="uni018F" unicode="&#x18f;" horiz-adv-x="1073" 
d="M78 760h631q-2 97 -27 199.5t-74 148.5q-44 41 -102 41q-51 0 -86 -35q-29 -28 -43.5 -73.5t-16.5 -79.5l-262 102q34 127 117 209q111 114 295 114q191 0 311 -120q178 -178 178 -578q0 -189 -48.5 -342.5t-135.5 -243.5q-118 -125 -301 -125q-165 0 -274 113
q-164 170 -164 565q0 64 2 105zM344 518v-10q0 -173 66 -242q41 -43 100 -43q61 0 100 39q38 35 64 112.5t28 143.5h-358z" />
    <glyph glyph-name="florin" unicode="&#x192;" horiz-adv-x="886" 
d="M864 1491l-47 -242q-26 13 -51 13q-15 0 -27.5 -4.5t-21 -15t-14.5 -19t-11 -26t-7.5 -26.5t-6 -29t-4.5 -26l-39 -201h143l-26 -139h-144l-108 -536q-5 -23 -13 -67t-13.5 -71t-15.5 -69t-19.5 -68.5t-25 -62t-32.5 -58t-41 -47t-52.5 -38t-65 -22.5t-79.5 -9
q-51 0 -125 18l48 242q30 -15 55 -15q14 0 25.5 4t20.5 13.5t15 16.5t12 23.5t8 23t7 26t6 22.5q14 62 33 156l102 518h-135l27 139h135q36 170 53 263q11 58 18.5 91t27.5 78.5t48 77.5q41 44 98.5 67.5t118.5 23.5q56 0 123 -25z" />
    <glyph glyph-name="uni01CF" unicode="&#x1cf;" horiz-adv-x="483" 
d="M377 0h-271v1366h271v-1366zM504 1688l-260 -205l-264 219l112 113l152 -127l159 127z" />
    <glyph glyph-name="uni01D0" unicode="&#x1d0;" horiz-adv-x="421" 
d="M338 0h-256v915h256v-915zM471 1264l-260 -205l-264 219l112 113l152 -127l160 127z" />
    <glyph glyph-name="uni01DD" unicode="&#x1dd;" horiz-adv-x="761" 
d="M276 631l-208 41q17 113 88 184q76 76 209 76q143 0 231 -88q113 -113 113 -359q0 -290 -134 -424q-43 -45 -90 -62t-110 -17q-129 0 -205 73q-117 115 -117 365q0 19 2 58.5t2 45.5h406v8q0 149 -47 189q-20 18 -58 18q-33 0 -53 -20q-29 -32 -29 -88zM459 367h-185
q-5 -39 4 -90t33 -76q25 -25 56 -25q30 0 51 21q41 38 41 145v25z" />
    <glyph glyph-name="Gcaron" unicode="&#x1e6;" horiz-adv-x="1073" 
d="M559 760h438q2 -35 2 -105q0 -175 -24 -288q-36 -170 -143 -280t-271 -110q-106 0 -191.5 44t-139 115t-89.5 165t-50.5 187.5t-14.5 189.5q0 83 9.5 161.5t30.5 160.5t59 150t89.5 121.5t127.5 84t169 30.5q152 0 255 -86.5t147 -236.5l-263 -102q-6 38 -13 64.5
t-21.5 58t-40.5 48.5t-62 17q-44 0 -78.5 -25t-55 -68.5t-34.5 -91t-20 -105t-8 -97t-2 -80.5q0 -459 200 -459q161 0 166 295h-172v242zM825 1688l-260 -205l-264 219l113 113l151 -127l160 127z" />
    <glyph glyph-name="gcaron" unicode="&#x1e7;" horiz-adv-x="821" 
d="M739 915v-972q0 -113 -26 -174q-41 -96 -129 -143.5t-199 -47.5q-295 0 -322 318h226q10 -111 94 -111q34 0 55.5 19t30 54t10.5 60t2 62v135q-19 -32 -32.5 -50.5t-35 -40.5t-47 -32t-57.5 -10q-59 0 -106 34t-74 85t-45 116.5t-24.5 122.5t-6.5 109q0 38 2 76.5t9 88
t18 92.5t30 85.5t44 72.5t62 49t81 19q110 0 182 -127v110h258zM494 459q0 29 -3 62.5t-11 78t-27 73.5t-47 29q-30 0 -50.5 -28t-28.5 -73t-11 -77.5t-3 -64.5t3 -64.5t11 -78t28.5 -73.5t50.5 -28q28 0 47 29t27 74t11 78t3 63zM670 1264l-260 -205l-265 219l113 113
l152 -127l159 127z" />
    <glyph glyph-name="AEacute" unicode="&#x1fc;" horiz-adv-x="1212" 
d="M1198 0h-547l-51 227h-283l-41 -227h-270l311 1366h557l58 -254h-270l69 -283h270l62 -258h-266l77 -315h261zM362 442h193q-10 48 -31.5 144.5t-31.5 144.5q-25 114 -39 281q-3 -35 -7 -73.5t-7.5 -69t-11 -75t-11 -68t-13 -74t-13 -67.5t-15 -74t-13.5 -69zM868 1733
l-235 -250l-123 73l174 263z" />
    <glyph glyph-name="aeacute" unicode="&#x1fd;" horiz-adv-x="1167" 
d="M1114 393h-420q6 -223 115 -223q42 0 62 32.5t20 78.5h209q-5 -137 -78.5 -218t-208.5 -81q-140 0 -227 112q-54 -58 -107.5 -85t-126.5 -27q-131 0 -214 78t-83 208q0 124 75 202.5t198 78.5q85 0 135 -33v4q0 41 -2 66.5t-10.5 54t-24.5 44t-44 26t-69 10.5
q-81 0 -180 -47v219q121 41 207 41q92 0 151.5 -30t102.5 -105q40 70 93 101.5t132 31.5q45 0 83.5 -12.5t66 -31.5t50 -51t37 -62.5t25.5 -74t17 -77t9.5 -81t4.5 -77t2 -72.5zM696 551h191q0 29 -3 57t-12 62t-29.5 54.5t-49.5 20.5q-30 0 -51 -20.5t-30 -54.5t-12.5 -62
t-3.5 -57zM479 268q0 40 -28 68.5t-68 28.5t-68 -28.5t-28 -68.5t28 -68t68 -28t68 28t28 68zM846 1309l-236 -250l-123 74l175 262z" />
    <glyph glyph-name="Scommaaccent" unicode="&#x218;" horiz-adv-x="800" 
d="M670 1321v-264q-103 88 -195 88q-60 0 -97.5 -36.5t-37.5 -96.5q0 -48 22.5 -88t59 -70.5t80 -61t87 -67t80 -79t59 -106.5t22.5 -141q0 -183 -104.5 -302.5t-285.5 -119.5q-131 0 -235 70v258q110 -74 201 -74q70 0 114.5 41.5t44.5 110.5q0 38 -14 70q-7 15 -18.5 29
t-32 30t-29.5 23.5t-36.5 25.5t-28.5 19q-64 44 -105.5 81t-77.5 85t-52.5 106t-16.5 131q0 110 40 200t122.5 146.5t193.5 56.5q124 0 240 -65zM528 -94l-172 -344h-143l104 344h211z" />
    <glyph glyph-name="scommaaccent" unicode="&#x219;" horiz-adv-x="645" 
d="M612 854l-102 -186q-32 30 -59 45.5t-62 15.5q-29 0 -47 -18t-18 -47q0 -25 21 -46.5t53 -36t69 -38t69 -51.5t53 -78t21 -115q0 -136 -77 -226.5t-211 -90.5q-144 0 -279 104l113 182q68 -57 125 -57q35 0 58 21t23 55q0 26 -22 48.5t-55.5 38.5t-72 40.5t-72 53
t-55.5 79t-22 115.5q0 127 88 198.5t218 71.5q71 0 127.5 -18t115.5 -60zM446 -94l-188 -373h-143l121 373h210z" />
    <glyph glyph-name="Tcommaaccent" unicode="&#x21a;" horiz-adv-x="692" 
d="M692 1116h-211v-1116h-270v1116h-211v250h692v-250zM467 -94l-172 -344h-143l104 344h211z" />
    <glyph glyph-name="tcommaaccent" unicode="&#x21b;" horiz-adv-x="471" 
d="M467 702h-105v-702h-256v702h-88v213h88v261h256v-261h105v-213zM344 -94l-188 -373h-144l121 373h211z" />
    <glyph glyph-name="uni0228" unicode="&#x228;" horiz-adv-x="727" 
d="M653 0h-547v1366h543v-254h-272v-295h239v-258h-239v-307h276v-252zM539 -164l-205 -256l-125 72l156 262z" />
    <glyph glyph-name="uni0229" unicode="&#x229;" horiz-adv-x="763" 
d="M477 315h217q-2 -73 -29 -145.5t-69 -116.5q-43 -43 -91 -57t-108 -14q-67 0 -119 16.5t-100 64.5q-125 125 -125 371q0 126 33 236.5t100 177.5q84 84 209 84q119 0 197 -74q60 -58 89.5 -155t29.5 -201q0 -44 -6 -90h-406q-2 -14 -2 -52q0 -121 37 -161q22 -25 53 -25
q32 0 51 16q32 28 39 125zM303 569h184q0 45 -10.5 89t-30.5 61q-21 18 -47 18q-33 0 -57 -24q-19 -20 -29 -62.5t-10 -81.5zM539 -160l-199 -252l-121 68l150 258z" />
    <glyph glyph-name="uni0237" unicode="&#x237;" horiz-adv-x="421" 
d="M338 -440h-256v1355h256v-1355z" />
    <glyph glyph-name="uni0259" unicode="&#x259;" horiz-adv-x="761" 
d="M276 631l-208 41q17 113 88 184q76 76 209 76q143 0 231 -88q113 -113 113 -359q0 -290 -134 -424q-43 -45 -90 -62t-110 -17q-129 0 -205 73q-117 115 -117 365q0 19 2 58.5t2 45.5h406v8q0 149 -47 189q-20 18 -58 18q-33 0 -53 -20q-29 -32 -29 -88zM459 367h-185
q-5 -39 4 -90t33 -76q25 -25 56 -25q30 0 51 21q41 38 41 145v25z" />
    <glyph glyph-name="afii57929" unicode="&#x2bc;" horiz-adv-x="446" 
d="M399 1366l-174 -418h-143l106 418h211z" />
    <glyph glyph-name="circumflex" unicode="&#x2c6;" 
d="M774 1171l-110 -112l-154 127l-160 -127l-100 127l260 205z" />
    <glyph glyph-name="caron" unicode="&#x2c7;" 
d="M774 1264l-260 -205l-264 219l112 113l152 -127l160 127z" />
    <glyph glyph-name="uni02C9" unicode="&#x2c9;" 
d="M805 1087h-586v164h586v-164z" />
    <glyph glyph-name="breve" unicode="&#x2d8;" 
d="M643 1305h135q-4 -48 -22 -91.5t-31 -60.5t-25 -29q-38 -38 -82 -51.5t-106 -13.5t-106 13.5t-82 51.5q-68 68 -78 181h135q6 -36 33 -60q30 -26 98 -26t98 26q27 24 33 60z" />
    <glyph glyph-name="dotaccent" unicode="&#x2d9;" 
d="M649 1194q0 -55 -40.5 -95t-96.5 -40t-95.5 39.5t-39.5 95.5q0 57 39 97t96 40t97 -40t40 -97z" />
    <glyph glyph-name="ring" unicode="&#x2da;" 
d="M315 1268q0 82 57.5 139t139.5 57t139.5 -57t57.5 -139t-57.5 -139.5t-139.5 -57.5t-139.5 57.5t-57.5 139.5zM428 1268q0 -37 23.5 -60.5t60.5 -23.5t60.5 23.5t23.5 60.5t-23.5 60.5t-60.5 23.5t-60.5 -23.5t-23.5 -60.5z" />
    <glyph glyph-name="ogonek" unicode="&#x2db;" 
d="M664 -199l-29 -145q-40 -35 -94 -35q-82 0 -135 53q-46 43 -46 109q0 63 37 123q33 53 74 94h121q-1 -1 -8.5 -11.5t-18.5 -28t-20 -32.5q-27 -48 -27 -80q0 -34 23 -57q24 -24 59 -24q37 0 64 34z" />
    <glyph glyph-name="tilde" unicode="&#x2dc;" 
d="M672 1309l135 -9q-6 -38 -12 -65.5t-19.5 -63.5t-31 -58t-47.5 -38t-68 -16q-43 0 -116.5 31.5t-104.5 31.5q-48 0 -58 -57h-133q4 40 9 68.5t17.5 64t30 57t47.5 37t70 15.5q45 0 113 -35t102 -35q16 0 27 3.5t17.5 12t9.5 15t6.5 21t5.5 20.5z" />
    <glyph glyph-name="hungarumlaut" unicode="&#x2dd;" 
d="M866 1309l-174 -250l-117 74l123 262zM586 1309l-176 -250l-117 74l123 262z" />
    <glyph glyph-name="acutecomb" unicode="&#x301;" horiz-adv-x="4" 
d="M-162 1309l-235 -250l-123 74l174 262z" />
    <glyph glyph-name="uni0394" unicode="&#x394;" horiz-adv-x="1366" 
d="M1329 0h-1294l504 1366h278zM958 231l-278 822l-279 -822h557z" />
    <glyph glyph-name="uni0394" unicode="&#x2206;" horiz-adv-x="1366" 
d="M1329 0h-1294l504 1366h278zM958 231l-278 822l-279 -822h557z" />
    <glyph glyph-name="uni03A9" unicode="&#x3a9;" horiz-adv-x="1366" 
d="M1307 0h-551v205q284 155 284 516q0 81 -22.5 159t-65 143.5t-112.5 105.5t-156 40q-70 0 -129.5 -26t-100.5 -70t-70.5 -102t-43.5 -121.5t-14 -128.5q0 -362 284 -516v-205h-551v229h287q-151 94 -220 219t-69 302q0 180 78 328t221.5 234.5t325.5 86.5t325.5 -86.5
t221.5 -234.5t78 -328q0 -179 -67.5 -302.5t-217.5 -218.5h285v-229z" />
    <glyph glyph-name="uni03A9" unicode="&#x2126;" horiz-adv-x="1366" 
d="M1307 0h-551v205q284 155 284 516q0 81 -22.5 159t-65 143.5t-112.5 105.5t-156 40q-70 0 -129.5 -26t-100.5 -70t-70.5 -102t-43.5 -121.5t-14 -128.5q0 -362 284 -516v-205h-551v229h287q-151 94 -220 219t-69 302q0 180 78 328t221.5 234.5t325.5 86.5t325.5 -86.5
t221.5 -234.5t78 -328q0 -179 -67.5 -302.5t-217.5 -218.5h285v-229z" />
    <glyph glyph-name="pi" unicode="&#x3c0;" horiz-adv-x="1349" 
d="M1274 686h-154v-686h-256v686h-377v-686h-256v686h-155v229h1198v-229z" />
    <glyph glyph-name="afii10023" unicode="&#x401;" horiz-adv-x="747" 
d="M666 0h-547v1366h543v-254h-273v-295h240v-258h-240v-307h277v-252zM356 1587q0 -53 -36.5 -90t-88.5 -37t-88.5 37t-36.5 90q0 51 36.5 88t88.5 37t88.5 -37t36.5 -88zM674 1587q0 -53 -36.5 -90t-88.5 -37q-51 0 -88 37.5t-37 89.5q0 51 37 88t88 37q52 0 88.5 -37
t36.5 -88z" />
    <glyph glyph-name="afii10051" unicode="&#x402;" horiz-adv-x="1136" 
d="M827 1114h-315v-301q96 21 166 21q181 0 283 -97q114 -111 114 -342q0 -223 -112 -332q-86 -86 -220 -86q-93 0 -180 46l60 229q28 -25 67 -25q54 0 84 39q31 42 31 123q0 91 -41 141q-44 54 -125 54q-52 0 -127 -23v-561h-270v1116h-211v250h796v-252z" />
    <glyph glyph-name="afii10052" unicode="&#x403;" horiz-adv-x="712" 
d="M651 1114h-274v-1114h-271v1366h545v-252zM618 1733l-235 -250l-123 73l174 263z" />
    <glyph glyph-name="afii10053" unicode="&#x404;" horiz-adv-x="862" 
d="M770 311v-282q-79 -43 -182 -43q-104 0 -182.5 28.5t-145.5 94.5q-184 184 -184 553q0 383 196 581q137 137 328 137q87 0 170 -39v-278q-68 59 -160 59q-103 0 -166 -80q-34 -43 -56.5 -104.5t-27.5 -120.5h353v-242h-363q0 -75 22 -150.5t68 -119.5q59 -59 158 -59
q103 0 172 65z" />
    <glyph glyph-name="afii10054" unicode="&#x405;" horiz-adv-x="800" 
d="M670 1321v-264q-103 88 -195 88q-60 0 -97.5 -36.5t-37.5 -96.5q0 -48 22.5 -88t59 -70.5t80 -61t87 -67t80 -79t59 -106.5t22.5 -141q0 -183 -104.5 -302.5t-285.5 -119.5q-131 0 -235 70v258q110 -74 201 -74q70 0 114.5 41.5t44.5 110.5q0 38 -14 70q-7 15 -18.5 29
t-32 30t-29.5 23.5t-36.5 25.5t-28.5 19q-64 44 -105.5 81t-77.5 85t-52.5 106t-16.5 131q0 110 40 200t122.5 146.5t193.5 56.5q124 0 240 -65z" />
    <glyph glyph-name="afii10055" unicode="&#x406;" horiz-adv-x="483" 
d="M377 0h-271v1366h271v-1366z" />
    <glyph glyph-name="afii10056" unicode="&#x407;" horiz-adv-x="483" 
d="M377 0h-271v1366h271v-1366zM455 1618q0 -55 -28.5 -95t-66.5 -40t-65 39.5t-27 95.5t27 95.5t65 39.5t66.5 -40t28.5 -95zM217 1618q0 -55 -28 -95t-66 -40t-66 40t-28 95t28 95t66 40t66 -40t28 -95z" />
    <glyph glyph-name="afii10057" unicode="&#x408;" horiz-adv-x="634" 
d="M528 1366v-960q0 -143 -28 -224q-33 -96 -114.5 -150.5t-184.5 -54.5q-122 0 -201 43v271q62 -76 143 -76q24 0 43 7.5t31 17.5t20.5 29.5t12.5 33t6 40t2 38.5v39v946h270z" />
    <glyph glyph-name="afii10058" unicode="&#x409;" horiz-adv-x="1474" 
d="M946 831h15q223 0 337 -110q115 -111 115 -318q0 -188 -108 -294q-111 -109 -332 -109h-293v1110h-213v-565q0 -79 -3 -132t-13 -126t-36 -130.5t-67 -97.5q-79 -77 -211 -77q-61 0 -129 16v274q28 -28 74 -28q50 0 78 28q49 49 49 246v848h737v-535zM946 598v-365h8
q101 0 146 43q47 47 47 136q0 94 -51 141q-49 45 -135 45h-15z" />
    <glyph glyph-name="afii10059" unicode="&#x40a;" horiz-adv-x="1439" 
d="M641 1366h270v-535h15q224 0 338 -110t114 -318q0 -188 -108 -294q-111 -109 -332 -109h-297v598h-264v-598h-271v1366h271v-535h264v535zM911 598v-365h9q100 0 145 43q47 47 47 136q0 94 -51 141q-49 45 -135 45h-15z" />
    <glyph glyph-name="afii10060" unicode="&#x40b;" horiz-adv-x="1114" 
d="M242 0v1116h-211v250h796v-252h-315v-305q84 22 176 22q142 0 225 -59q32 -22 55 -51.5t35 -58.5t19 -67t8.5 -67.5t1.5 -70.5v-457h-270v432q0 80 -33 113q-30 30 -104 30q-63 0 -113 -18v-557h-270z" />
    <glyph glyph-name="afii10061" unicode="&#x40c;" horiz-adv-x="925" 
d="M911 0h-282l-252 694v-694h-271v1366h271v-610l227 610h277l-252 -631zM725 1733l-236 -250l-122 73l174 263z" />
    <glyph glyph-name="afii10062" unicode="&#x40e;" horiz-adv-x="935" 
d="M16 1366h291l107 -332q38 -115 57 -235q36 170 59 241l103 326h287l-476 -1366h-270l156 471zM602 1745l203 -66q-30 -113 -119 -174q-84 -55 -219 -55t-219 55q-89 61 -119 174l203 66q12 -58 45 -84q33 -29 90 -29t90 29q33 26 45 84z" />
    <glyph glyph-name="afii10145" unicode="&#x40f;" horiz-adv-x="1009" 
d="M106 1366h271v-1110h256v1110h270v-1366h-274v-266h-246v266h-277v1366z" />
    <glyph glyph-name="afii10017" unicode="&#x410;" horiz-adv-x="942" 
d="M936 0h-287l-51 229h-272l-50 -229h-270l320 1366h282zM367 440h190q-58 264 -78 394q-15 109 -22 180q-12 -194 -90 -574z" />
    <glyph glyph-name="afii10018" unicode="&#x411;" horiz-adv-x="888" 
d="M106 1366h621v-252h-350v-283h6q211 0 330 -114q114 -112 114 -320q0 -187 -106 -288q-115 -109 -336 -109h-279v1366zM377 598v-365h8q80 0 127 41q49 42 49 136q0 92 -51 143q-45 45 -127 45h-6z" />
    <glyph glyph-name="afii10019" unicode="&#x412;" horiz-adv-x="890" 
d="M106 1366h289q36 0 64 -2.5t69.5 -11t81 -29.5t72.5 -53q54 -53 83.5 -131.5t29.5 -163.5q0 -118 -64 -195q-48 -57 -108 -80q98 -37 147 -120q47 -80 47 -193q0 -168 -102 -270q-117 -117 -322 -117h-287v1366zM377 1143v-338q76 4 119 47t43 127q0 80 -43 123
q-41 41 -119 41zM377 596v-363q77 0 123 43q51 47 51 134q0 93 -53 143q-49 43 -121 43z" />
    <glyph glyph-name="afii10020" unicode="&#x413;" horiz-adv-x="712" 
d="M651 1114h-274v-1114h-271v1366h545v-252z" />
    <glyph glyph-name="afii10021" unicode="&#x414;" horiz-adv-x="1050" 
d="M182 1366h738v-1110h110v-522h-246v266h-526v-266h-246v522q71 25 109 80q40 54 50.5 134t10.5 224v672zM444 1110v-387q0 -246 -32 -338q-25 -75 -90 -129h327v854h-205z" />
    <glyph glyph-name="afii10022" unicode="&#x415;" horiz-adv-x="727" 
d="M653 0h-547v1366h543v-254h-272v-295h239v-258h-239v-307h276v-252z" />
    <glyph glyph-name="afii10024" unicode="&#x416;" horiz-adv-x="1261" 
d="M1245 0h-274l-211 686v-686h-258v686l-211 -686h-275l246 741l-248 625h269l219 -618v618h258v-618l219 618h268l-248 -625z" />
    <glyph glyph-name="afii10025" unicode="&#x417;" horiz-adv-x="858" 
d="M96 1016v280q118 90 271 90q178 0 278 -104q98 -100 98 -266q0 -117 -47 -195t-129 -106q89 -23 146 -92q71 -87 71 -217q0 -97 -33 -181.5t-92 -142.5q-110 -105 -292 -105q-164 0 -275 86v279q48 -55 96 -80q55 -31 121 -31q84 0 129 45q49 46 49 130q0 81 -43 124
q-52 50 -168 50h-36v241h28q105 0 152 39q49 40 49 123q0 68 -45 113q-46 41 -115 41q-67 0 -123 -37q-50 -32 -90 -84z" />
    <glyph glyph-name="afii10026" unicode="&#x418;" horiz-adv-x="997" 
d="M96 0v1366h266v-594q0 -120 -22 -246l311 840h250v-1366h-266v598q0 123 18 252l-307 -850h-250z" />
    <glyph glyph-name="afii10027" unicode="&#x419;" horiz-adv-x="997" 
d="M96 0v1366h266v-594q0 -120 -22 -246l311 840h250v-1366h-266v598q0 123 18 252l-307 -850h-250zM635 1745l203 -66q-30 -113 -119 -174q-84 -55 -219 -55t-219 55q-89 61 -119 174l203 66q12 -58 45 -84q33 -29 90 -29t90 29q33 26 45 84z" />
    <glyph glyph-name="afii10028" unicode="&#x41a;" horiz-adv-x="925" 
d="M911 0h-282l-252 694v-694h-271v1366h271v-610l227 610h277l-252 -631z" />
    <glyph glyph-name="afii10029" unicode="&#x41b;" horiz-adv-x="1056" 
d="M209 1366h741v-1366h-270v1110h-213v-565q0 -79 -3 -132t-13 -126t-36 -130.5t-67 -97.5q-79 -77 -211 -77q-61 0 -129 16v274q28 -28 74 -28q50 0 78 28q49 49 49 246v848z" />
    <glyph glyph-name="afii10030" unicode="&#x41c;" horiz-adv-x="1323" 
d="M1278 0h-277l-67 983q-7 -116 -41 -315l-121 -668h-207l-127 618q-30 145 -35 205l-16 160l-43 -983h-289l119 1366h356l134 -807l108 807h365z" />
    <glyph glyph-name="afii10031" unicode="&#x41d;" horiz-adv-x="1026" 
d="M920 0h-271v604h-272v-604h-271v1366h271v-506h272v506h271v-1366z" />
    <glyph glyph-name="afii10032" unicode="&#x41e;" horiz-adv-x="1110" 
d="M1034 682q0 -81 -5.5 -145.5t-21 -143.5t-51.5 -150t-90 -128q-131 -138 -311 -138t-311 138q-54 57 -90 128t-51.5 150t-21 143.5t-5.5 145.5t5.5 145.5t21 143.5t51.5 150t90 128q130 137 311 137t311 -137q54 -57 90 -128t51.5 -150t21 -143.5t5.5 -145.5zM555 1139
q-56 0 -98 -45q-95 -95 -95 -406q0 -310 95 -405q42 -45 98 -45t98 45q95 95 95 405q0 311 -95 406q-42 45 -98 45z" />
    <glyph glyph-name="afii10033" unicode="&#x41f;" horiz-adv-x="1009" 
d="M903 0h-270v1110h-256v-1110h-271v1366h797v-1366z" />
    <glyph glyph-name="afii10034" unicode="&#x420;" horiz-adv-x="890" 
d="M106 1366h328q78 0 128 -8t102 -37q91 -52 138.5 -150t47.5 -210q0 -208 -131.5 -312t-341.5 -88v-561h-271v1366zM377 788h16q96 0 142.5 40t46.5 135q0 88 -36 136t-122 48h-47v-359z" />
    <glyph glyph-name="afii10035" unicode="&#x421;" horiz-adv-x="837" 
d="M770 311v-282q-77 -43 -186 -43q-102 0 -179.5 28t-144.5 95q-184 184 -184 553q0 383 196 581q137 137 328 137q87 0 170 -39v-278q-64 59 -149 59q-89 0 -150 -61q-113 -113 -113 -391q0 -28 2 -59t10 -91t30 -116t55 -93q58 -65 153 -65q92 0 162 65z" />
    <glyph glyph-name="afii10036" unicode="&#x422;" horiz-adv-x="692" 
d="M692 1116h-211v-1116h-270v1116h-211v250h692v-250z" />
    <glyph glyph-name="afii10037" unicode="&#x423;" horiz-adv-x="935" 
d="M16 1366h291l107 -332q38 -115 57 -235q36 170 59 241l103 326h287l-476 -1366h-270l156 471z" />
    <glyph glyph-name="afii10038" unicode="&#x424;" horiz-adv-x="1269" 
d="M500 0v160q-172 9 -289 119q-150 138 -150 442q0 285 142 430q122 122 297 131v143h270v-143q179 -11 299 -131q139 -139 139 -430q0 -303 -147 -442q-10 -10 -28.5 -23.5t-55.5 -35.5t-92 -39t-115 -21v-160h-270zM750 1040v-639q74 6 120 52q72 72 72 268
q0 203 -76 274q-52 45 -116 45zM520 401v639q-65 0 -117 -45q-75 -70 -75 -274q0 -197 71 -268q46 -46 121 -52z" />
    <glyph glyph-name="afii10039" unicode="&#x425;" horiz-adv-x="907" 
d="M907 0h-313q-13 33 -42 101t-46 109t-35.5 101t-26.5 111q-7 -35 -18 -74t-20 -67.5t-25 -74t-24 -66t-28 -73t-26 -67.5h-303l289 705l-289 661h303q9 -22 39 -91.5t46 -110t34 -99t22 -100.5q10 50 29 107t34.5 94t45 105t41.5 95h291l-291 -661z" />
    <glyph glyph-name="afii10040" unicode="&#x426;" horiz-adv-x="1073" 
d="M106 1366h271v-1110h256v1110h270v-1110h141v-522h-245v266h-693v1366z" />
    <glyph glyph-name="afii10041" unicode="&#x427;" horiz-adv-x="989" 
d="M612 0v598q-88 -23 -176 -23q-141 0 -225 60q-32 22 -55 51.5t-35 58.5t-19 67t-8.5 67.5t-1.5 70.5v416h270v-391q0 -80 33 -113q31 -31 105 -31q60 0 112 19v516h271v-1366h-271z" />
    <glyph glyph-name="afii10042" unicode="&#x428;" horiz-adv-x="1482" 
d="M106 1366h267v-1110h235v1110h266v-1110h236v1110h266v-1366h-1270v1366z" />
    <glyph glyph-name="afii10043" unicode="&#x429;" horiz-adv-x="1558" 
d="M106 1366h267v-1110h235v1110h266v-1110h236v1110h266v-1110h154v-522h-246v266h-1178v1366z" />
    <glyph glyph-name="afii10044" unicode="&#x42a;" horiz-adv-x="989" 
d="M190 0v1116h-170v250h441v-535h14q224 0 338 -110q115 -111 115 -318q0 -187 -109 -294q-111 -109 -332 -109h-297zM461 598v-365h8q100 0 145 43q48 48 48 136q0 93 -52 141q-49 45 -135 45h-14z" />
    <glyph glyph-name="afii10045" unicode="&#x42b;" horiz-adv-x="1292" 
d="M1186 0h-271v1366h271v-1366zM106 1366h271v-535h8q43 0 78 -3t82 -13.5t91.5 -34.5t82.5 -61q117 -113 117 -320q0 -192 -103 -293q-108 -106 -332 -106h-295v1366zM377 598v-365h8q104 0 147 41q46 46 46 136q0 92 -52 141q-50 47 -143 47h-6z" />
    <glyph glyph-name="afii10046" unicode="&#x42c;" horiz-adv-x="905" 
d="M106 1366h271v-535h14q224 0 338 -110q115 -111 115 -318q0 -187 -109 -294q-111 -109 -332 -109h-297v1366zM377 598v-365h8q100 0 145 43q48 48 48 136q0 93 -52 141q-49 45 -135 45h-14z" />
    <glyph glyph-name="afii10047" unicode="&#x42d;" horiz-adv-x="862" 
d="M92 29v282q73 -65 168 -65q87 0 146 59q41 41 67.5 118.5t26.5 151.5h-326v242h318q-2 63 -25 136.5t-61 111.5q-52 57 -146 57q-95 0 -168 -59v278q91 39 205 39q96 0 171.5 -27t141.5 -93q96 -95 136 -236.5t40 -335.5q0 -400 -176 -579q-72 -72 -151 -97.5t-174 -25.5
q-116 0 -193 43z" />
    <glyph glyph-name="afii10048" unicode="&#x42e;" horiz-adv-x="1538" 
d="M1462 684q0 -79 -5.5 -144t-21 -146.5t-51.5 -154.5t-90 -130q-126 -132 -307 -132q-192 0 -313 121q-147 152 -156 477h-141v-575h-271v1366h271v-535h145q4 112 41 233t119 202q120 120 301 120q185 0 311 -135q55 -58 91 -128.5t51.5 -149.5t20.5 -142.5t5 -146.5z
M983 1139q-56 0 -98 -45q-94 -94 -94 -406q0 -311 94 -405q42 -45 98 -45t98 45q95 95 95 405q0 311 -95 406q-42 45 -98 45z" />
    <glyph glyph-name="afii10049" unicode="&#x42f;" horiz-adv-x="952" 
d="M68 0l247 582q-82 23 -139 84q-90 94 -90 264q0 104 30 189t83 138q37 37 85 61t101.5 33.5t87.5 12t80 2.5h293v-1366h-271v565l-217 -565h-290zM575 1145h-51q-80 0 -121 -43q-47 -50 -47 -150q0 -95 52 -143q47 -43 139 -43h28v379z" />
    <glyph glyph-name="afii10065" unicode="&#x430;" horiz-adv-x="811" 
d="M729 0h-256v104q-66 -122 -170 -122q-60 0 -106.5 35.5t-72.5 87.5t-42.5 120.5t-21.5 125t-5 110.5q0 39 2 77t9 86t18 90t30 83t44 70t62 47t81 18q113 0 172 -129v112h256v-915zM492 457q0 23 -1 48t-6.5 62.5t-14.5 65.5t-26.5 48.5t-40.5 20.5q-29 0 -49 -28.5
t-28 -74.5t-10.5 -78t-2.5 -64t3 -65t11 -78.5t28.5 -74t50.5 -28.5q28 0 47 29t26.5 75t10 78.5t2.5 63.5z" />
    <glyph glyph-name="afii10066" unicode="&#x431;" horiz-adv-x="819" 
d="M537 1122l-64 -26q-74 -29 -117 -70q-82 -82 -82 -238q19 57 64 99q53 45 133 45q107 0 178 -68q115 -113 115 -401q0 -139 -35.5 -243t-93.5 -159q-83 -79 -219 -79q-138 0 -217 79q-42 41 -69.5 101t-39 134.5t-15 133t-3.5 137.5q0 251 31 399.5t114 233.5
q64 64 172 107q19 7 48.5 18t43 16.5t29 15t25.5 21.5q21 27 18 56h203q0 -142 -76 -224q-6 -7 -13 -13.5t-13 -11.5t-14.5 -10.5t-13 -9t-14.5 -8.5t-14 -7.5t-15.5 -7.5t-14 -6.5t-16 -7t-15.5 -6.5zM418 702q-30 0 -47 -26q-41 -59 -41 -219t41 -219q18 -27 47 -27t47 27
q41 59 41 219t-41 219q-17 26 -47 26z" />
    <glyph glyph-name="afii10067" unicode="&#x432;" horiz-adv-x="784" 
d="M82 915h309q157 0 234 -75q67 -67 67 -183q0 -77 -35 -122q-35 -48 -92 -64q63 -14 101 -55q57 -57 57 -154q0 -119 -76 -188q-81 -74 -231 -74h-334v915zM338 545q62 0 94 26q31 27 31 76q0 43 -29 70q-26 24 -84 24h-12v-196zM338 174q64 0 96 25q35 27 35 82
q0 53 -35 81q-34 27 -96 27v-215z" />
    <glyph glyph-name="afii10068" unicode="&#x433;" horiz-adv-x="583" 
d="M555 702h-217v-702h-256v915h473v-213z" />
    <glyph glyph-name="afii10069" unicode="&#x434;" horiz-adv-x="858" 
d="M152 915h598v-702h92v-426h-209v213h-416v-213h-209v426q46 15 78 47q29 28 44.5 75.5t18.5 83t3 89.5v407zM504 213v489h-127v-213q0 -97 -17 -161q-19 -65 -69 -115h213z" />
    <glyph glyph-name="afii10070" unicode="&#x435;" horiz-adv-x="763" 
d="M477 315h217q-2 -73 -29 -145.5t-69 -116.5q-43 -43 -91 -57t-108 -14q-67 0 -119 16.5t-100 64.5q-125 125 -125 371q0 126 33 236.5t100 177.5q84 84 209 84q119 0 197 -74q60 -58 89.5 -155t29.5 -201q0 -44 -6 -90h-406q-2 -14 -2 -52q0 -121 37 -161q22 -25 53 -25
q32 0 51 16q32 28 39 125zM303 569h184q0 45 -10.5 89t-30.5 61q-21 18 -47 18q-33 0 -57 -24q-19 -20 -29 -62.5t-10 -81.5z" />
    <glyph glyph-name="afii10072" unicode="&#x436;" horiz-adv-x="1042" 
d="M1036 0h-260l-135 422v-422h-240v422l-135 -422h-260l193 479l-195 436h262l135 -421v421h240v-421l135 421h262l-192 -436z" />
    <glyph glyph-name="afii10073" unicode="&#x437;" horiz-adv-x="737" 
d="M524 479q70 -22 107 -61q55 -55 55 -142q0 -123 -88 -208q-88 -86 -240 -86q-106 0 -180 30q-55 20 -127 76l111 191q32 -36 67 -54t86 -18t78 22q27 24 27 60t-27 55q-36 23 -112 23h-45v192h38q54 0 86 14q43 20 43 66q0 33 -26 55q-28 21 -74 21q-48 0 -88 -27
q-31 -19 -59 -55l-95 201q48 34 109 63q74 35 176 35q164 0 248 -88q63 -66 63 -170q0 -76 -39 -127q-37 -46 -94 -68z" />
    <glyph glyph-name="afii10074" unicode="&#x438;" horiz-adv-x="829" 
d="M82 915h242v-325q0 -99 -19 -240q25 94 66 193l149 372h228v-915h-242v340q0 89 16 233q-28 -122 -71 -227l-142 -346h-227v915z" />
    <glyph glyph-name="afii10075" unicode="&#x439;" horiz-adv-x="829" 
d="M82 915h242v-325q0 -99 -19 -240q25 94 66 193l149 372h228v-915h-242v340q0 89 16 233q-28 -122 -71 -227l-142 -346h-227v915zM532 1315l183 -60q-22 -98 -105 -159q-73 -52 -188 -52q-116 0 -189 52q-82 60 -104 159l182 60q4 -54 35 -82q25 -25 76 -25t76 25
q30 27 34 82z" />
    <glyph glyph-name="afii10076" unicode="&#x43a;" horiz-adv-x="757" 
d="M764 0h-270l-156 418v-418h-256v915h256v-417l135 417h262l-186 -434z" />
    <glyph glyph-name="afii10077" unicode="&#x43b;" horiz-adv-x="856" 
d="M774 915v-915h-256v702h-127v-274q0 -61 -2.5 -106t-11 -101t-28 -100.5t-50.5 -75.5q-63 -63 -186 -63q-56 0 -105 16v217q20 -14 51 -14q36 0 58 22q41 41 41 195v497h616z" />
    <glyph glyph-name="afii10078" unicode="&#x43c;" horiz-adv-x="1052" 
d="M616 0h-178l-76 330q-32 137 -45 268q-1 -12 -8.5 -120t-9.5 -148l-20 -330h-250l110 915h267l86 -387q17 -76 34 -217q16 131 35 217l86 387h266l111 -915h-248l-22 330q-9 132 -17 268q-4 -45 -10.5 -87.5t-11 -64.5t-13.5 -64t-12 -54z" />
    <glyph glyph-name="afii10079" unicode="&#x43d;" horiz-adv-x="815" 
d="M338 915v-321h139v321h256v-915h-256v381h-139v-381h-256v915h256z" />
    <glyph glyph-name="afii10080" unicode="&#x43e;" horiz-adv-x="802" 
d="M748 457q0 -275 -125 -396q-82 -79 -222 -79q-139 0 -221 79q-125 121 -125 396q0 274 125 395q83 80 221 80q139 0 222 -80q125 -121 125 -395zM401 702q-30 0 -47 -26q-41 -59 -41 -219t41 -219q18 -27 47 -27q30 0 48 27q40 58 40 219t-40 219q-17 26 -48 26z" />
    <glyph glyph-name="afii10081" unicode="&#x43f;" horiz-adv-x="798" 
d="M82 915h635v-915h-256v702h-123v-702h-256v915z" />
    <glyph glyph-name="afii10082" unicode="&#x440;" horiz-adv-x="811" 
d="M338 915v-112q59 129 172 129q44 0 81 -18t62 -47t44 -70t30 -83t18 -90t9 -86t2 -77q0 -54 -5 -110.5t-21.5 -125t-42.5 -120.5t-72.5 -87.5t-106.5 -35.5q-104 0 -170 122v-526h-256v1337h256zM498 457q0 32 -2.5 64.5t-10.5 78t-28.5 74t-50.5 28.5q-28 0 -47 -29
t-27 -74.5t-10.5 -78.5t-2.5 -63q0 -31 2.5 -64t10.5 -78.5t27.5 -74.5t48.5 -29t48.5 29t27.5 74t11 79t3 64z" />
    <glyph glyph-name="afii10083" unicode="&#x441;" horiz-adv-x="575" 
d="M535 248v-234q-71 -32 -146 -32q-71 0 -129 28.5t-95.5 75t-62.5 108t-36 124.5t-11 128q0 89 18 171t57 155.5t110 117.5t166 44q62 0 129 -27v-225q-31 31 -72 31q-44 0 -75 -24.5t-46.5 -65t-22 -79.5t-6.5 -79q0 -42 5.5 -79.5t20 -77.5t45.5 -63.5t75 -23.5
q37 0 76 27z" />
    <glyph glyph-name="afii10084" unicode="&#x442;" horiz-adv-x="616" 
d="M600 702h-164v-702h-256v702h-164v213h584v-213z" />
    <glyph glyph-name="afii10085" unicode="&#x443;" horiz-adv-x="749" 
d="M756 915l-385 -1337h-252l141 440l-266 897h256l88 -333q33 -126 41 -189l121 522h256z" />
    <glyph glyph-name="afii10086" unicode="&#x444;" horiz-adv-x="1081" 
d="M414 -422v410q-73 6 -138.5 36t-109.5 76q-115 120 -115 369q0 229 119 348q100 96 244 111v438h254v-438q148 -18 243 -113q119 -119 119 -352q0 -245 -115 -367q-99 -103 -247 -108v-410h-254zM645 711v-506q59 3 94 41q54 54 54 211q0 167 -60 221q-37 33 -88 33z
M436 205v506q-51 0 -88 -33q-59 -55 -59 -221q0 -158 53 -211q35 -38 94 -41z" />
    <glyph glyph-name="afii10087" unicode="&#x445;" horiz-adv-x="788" 
d="M797 0h-271l-84 160q-35 68 -49 116q-23 -63 -53 -122l-84 -154h-262l262 492l-227 423h264l49 -96q32 -63 51 -133q14 61 56 139l47 90h264l-234 -423z" />
    <glyph glyph-name="afii10088" unicode="&#x446;" horiz-adv-x="847" 
d="M618 0h-536v915h256v-702h139v702h256v-702h98v-426h-213v213z" />
    <glyph glyph-name="afii10089" unicode="&#x447;" horiz-adv-x="792" 
d="M455 0v377q-65 -21 -129 -21q-129 0 -195 66q-31 31 -47.5 72.5t-19.5 72t-3 72.5v276h250v-258q0 -48 21 -69q23 -19 59 -19q27 0 64 13v333h256v-915h-256z" />
    <glyph glyph-name="afii10090" unicode="&#x448;" horiz-adv-x="1163" 
d="M705 213h131v702h245v-915h-999v915h246v-702h131v702h246v-702z" />
    <glyph glyph-name="afii10091" unicode="&#x449;" horiz-adv-x="1216" 
d="M705 213h131v702h245v-702h119v-426h-213v213h-905v915h246v-702h131v702h246v-702z" />
    <glyph glyph-name="afii10092" unicode="&#x44a;" horiz-adv-x="872" 
d="M428 580h68q159 0 243 -84q80 -76 80 -211q0 -134 -80 -211q-78 -74 -233 -74h-334v702h-143v213h399v-335zM428 180h12q59 0 88 23q35 26 35 86q0 52 -28 80q-30 30 -103 30h-4v-219z" />
    <glyph glyph-name="afii10093" unicode="&#x44b;" horiz-adv-x="1120" 
d="M1038 0h-256v915h256v-915zM82 915h256v-335h57q160 0 244 -84q80 -76 80 -211q0 -134 -80 -211q-78 -74 -233 -74h-324v915zM338 180h12q59 0 88 23q35 26 35 86q0 51 -29 80q-30 30 -102 30h-4v-219z" />
    <glyph glyph-name="afii10094" unicode="&#x44c;" horiz-adv-x="782" 
d="M82 915h256v-335h68q159 0 243 -84q80 -76 80 -211q0 -134 -80 -211q-78 -74 -233 -74h-334v915zM338 180h12q59 0 88 23q35 26 35 86q0 51 -29 80q-30 30 -102 30h-4v-219z" />
    <glyph glyph-name="afii10095" unicode="&#x44d;" horiz-adv-x="641" 
d="M61 25v241q49 -55 129 -55q68 0 105 37q20 20 32.5 55t14.5 70h-209v188h209q-4 66 -41 109q-36 43 -108 43q-75 0 -132 -62v236q82 47 181 47q144 0 233 -86q125 -119 125 -383q0 -277 -125 -402q-50 -50 -104 -65.5t-123 -15.5q-110 0 -187 43z" />
    <glyph glyph-name="afii10096" unicode="&#x44e;" horiz-adv-x="1171" 
d="M1116 457q0 -275 -125 -396q-84 -79 -227 -79q-135 0 -215 75q-57 53 -85 136.5t-30 166.5h-96v-360h-256v915h256v-342h98q1 36 8 75.5t33.5 101t69.5 102.5q82 80 217 80q142 0 227 -80q125 -121 125 -395zM770 702q-30 0 -47 -26q-41 -59 -41 -219t41 -219
q18 -27 47 -27t47 27q41 59 41 219t-41 219q-17 26 -47 26z" />
    <glyph glyph-name="afii10097" unicode="&#x44f;" horiz-adv-x="790" 
d="M41 0l174 342q-70 24 -113 82q-47 63 -47 168q0 152 88 237q90 86 291 86h275v-915h-256v346l-146 -346h-266zM453 487v236h-9q-64 0 -98 -29q-37 -33 -37 -96q0 -59 35 -86q31 -25 102 -25h7z" />
    <glyph glyph-name="afii10071" unicode="&#x451;" horiz-adv-x="763" 
d="M477 315h217q-2 -73 -29 -145.5t-69 -116.5q-43 -43 -91 -57t-108 -14q-67 0 -119 16.5t-100 64.5q-125 125 -125 371q0 126 33 236.5t100 177.5q84 84 209 84q119 0 197 -74q60 -58 89.5 -155t29.5 -201q0 -44 -6 -90h-406q-2 -14 -2 -52q0 -121 37 -161q22 -25 53 -25
q32 0 51 16q32 28 39 125zM303 569h184q0 45 -10.5 89t-30.5 61q-21 18 -47 18q-33 0 -57 -24q-19 -20 -29 -62.5t-10 -81.5zM432 1169q0 55 37 92t92 37t92 -37t37 -92t-37 -92t-92 -37t-92 37t-37 92zM98 1169q0 55 37 92t92 37t92 -37t37 -92t-37 -92t-92 -37t-92 37
t-37 92z" />
    <glyph glyph-name="afii10099" unicode="&#x452;" horiz-adv-x="858" 
d="M389 1493v-274h221v-181h-221v-307q26 54 66 94q66 66 151 66q72 0 115 -43q55 -55 55 -227v-740q0 -163 -80 -239q-69 -64 -188 -64q-71 0 -139 23v225q25 -19 57 -19q36 0 59 21q35 31 35 104v588q0 73 -22 98q-14 17 -39 17q-26 0 -43 -17q-27 -25 -27 -120v-498h-256
v1038h-113v181h113v274h256z" />
    <glyph glyph-name="afii10100" unicode="&#x453;" horiz-adv-x="583" 
d="M555 702h-217v-702h-256v915h473v-213zM555 1309l-236 -250l-122 74l174 262z" />
    <glyph glyph-name="afii10101" unicode="&#x454;" horiz-adv-x="641" 
d="M580 266v-241q-77 -43 -187 -43q-69 0 -123 15.5t-104 65.5q-125 125 -125 402q0 264 125 383q89 86 233 86q99 0 181 -47v-236q-55 62 -136 62q-68 0 -104 -43q-37 -43 -41 -109h209v-188h-209q3 -79 49 -125q39 -37 105 -37q78 0 127 55z" />
    <glyph glyph-name="afii10102" unicode="&#x455;" horiz-adv-x="645" 
d="M612 854l-102 -186q-32 30 -59 45.5t-62 15.5q-29 0 -47 -18t-18 -47q0 -25 21 -46.5t53 -36t69 -38t69 -51.5t53 -78t21 -115q0 -136 -77 -226.5t-211 -90.5q-144 0 -279 104l113 182q68 -57 125 -57q35 0 58 21t23 55q0 26 -22 48.5t-55.5 38.5t-72 40.5t-72 53
t-55.5 79t-22 115.5q0 127 88 198.5t218 71.5q71 0 127.5 -18t115.5 -60z" />
    <glyph glyph-name="afii10103" unicode="&#x456;" horiz-adv-x="421" 
d="M377 1214q0 -67 -47 -114t-115 -47t-115 47t-47 114q0 68 47.5 115t114.5 47t114.5 -47t47.5 -115zM342 0h-256v915h256v-915z" />
    <glyph glyph-name="afii10104" unicode="&#x457;" horiz-adv-x="421" 
d="M338 0h-256v915h256v-915zM401 1194q0 -55 -23.5 -95t-55.5 -40q-34 0 -58 39.5t-24 95.5t24 95.5t58 39.5q32 0 55.5 -40t23.5 -95zM184 1194q0 -56 -24 -95.5t-58 -39.5t-58 39.5t-24 95.5t24 95.5t58 39.5t58 -39.5t24 -95.5z" />
    <glyph glyph-name="afii10105" unicode="&#x458;" horiz-adv-x="421" 
d="M377 1214q0 -67 -47 -114t-115 -47t-115 47t-47 114q0 68 47.5 115t114.5 47t114.5 -47t47.5 -115zM342 -422h-256v1337h256v-1337z" />
    <glyph glyph-name="afii10106" unicode="&#x459;" horiz-adv-x="1210" 
d="M766 915v-335h68q159 0 243 -84q80 -76 80 -211q0 -134 -80 -211q-78 -74 -233 -74h-326v702h-127v-274q0 -61 -2.5 -106t-11 -101t-28 -100.5t-50.5 -75.5q-63 -63 -186 -63q-56 0 -105 16v217q20 -14 51 -14q36 0 58 22q41 41 41 195v497h608zM766 180h12q59 0 88 23
q35 26 35 86q0 51 -29 80q-30 30 -102 30h-4v-219z" />
    <glyph glyph-name="afii10107" unicode="&#x45a;" horiz-adv-x="1173" 
d="M477 915h252v-335h68q159 0 243 -84q80 -76 80 -211q0 -134 -80 -211q-78 -74 -233 -74h-330v387h-139v-387h-256v915h256v-321h139v321zM729 180h12q59 0 88 23q35 26 35 86q0 52 -28 80q-30 30 -107 30v-219z" />
    <glyph glyph-name="afii10108" unicode="&#x45b;" horiz-adv-x="858" 
d="M776 0h-256v520q0 115 -61 115q-20 0 -34 -11t-21 -25t-10.5 -37.5t-4 -37t-0.5 -35.5v-489h-256v1038h-113v181h113v274h256v-274h221v-181h-221v-307q82 160 217 160q33 0 59 -9t43.5 -23t30.5 -36t20 -43.5t11 -51.5t5 -53t1 -54v-621z" />
    <glyph glyph-name="afii10109" unicode="&#x45c;" horiz-adv-x="757" 
d="M764 0h-270l-156 418v-418h-256v915h256v-417l135 417h262l-186 -434zM672 1309l-236 -250l-123 74l174 262z" />
    <glyph glyph-name="afii10110" unicode="&#x45e;" horiz-adv-x="749" 
d="M756 915l-385 -1337h-252l141 440l-266 897h256l88 -333q33 -126 41 -189l121 522h256zM492 1315l182 -60q-22 -98 -105 -159q-73 -52 -188 -52t-188 52q-83 61 -105 159l182 60q4 -54 35 -82q25 -25 76 -25t76 25q31 28 35 82z" />
    <glyph glyph-name="afii10193" unicode="&#x45f;" horiz-adv-x="815" 
d="M301 0h-219v915h256v-702h139v702h256v-915h-219v-213h-213v213z" />
    <glyph glyph-name="afii10146" unicode="&#x462;" horiz-adv-x="997" 
d="M199 0v1020h-158v233h158v172h270v-172h233v-233h-233v-189h14q224 0 338 -110q115 -111 115 -318q0 -187 -109 -294q-111 -109 -331 -109h-297zM469 598v-365h8q101 0 146 43q47 47 47 136q0 93 -52 141q-49 45 -135 45h-14z" />
    <glyph glyph-name="afii10194" unicode="&#x463;" horiz-adv-x="841" 
d="M141 0v702h-110v213h110v451h256v-451h185v-213h-185v-122h68q160 0 244 -84q79 -75 79 -211q0 -135 -79 -211q-78 -74 -234 -74h-334zM397 180h13q59 0 88 23q34 25 34 86q0 52 -28 80q-30 30 -107 30v-219z" />
    <glyph glyph-name="afii10147" unicode="&#x472;" horiz-adv-x="1110" 
d="M1034 682q0 -81 -5.5 -145.5t-21 -143.5t-51.5 -150t-90 -128q-131 -138 -311 -138t-311 138q-54 57 -90 128t-51.5 150t-21 143.5t-5.5 145.5t5.5 145.5t21 143.5t51.5 150t90 128q130 137 311 137t311 -137q54 -57 90 -128t51.5 -150t21 -143.5t5.5 -145.5zM371 819
h368q0 74 -22.5 155t-63.5 122q-43 43 -98 43t-98 -43q-43 -41 -64.5 -119.5t-21.5 -157.5zM743 580h-376q2 -78 23 -164.5t67 -134.5q40 -43 98 -43t98 43q81 87 90 299z" />
    <glyph glyph-name="afii10195" unicode="&#x473;" horiz-adv-x="802" 
d="M748 457q0 -275 -125 -396q-82 -79 -222 -79q-139 0 -221 79q-125 121 -125 396q0 274 125 395q83 80 221 80q139 0 222 -80q125 -121 125 -395zM322 549h159q0 93 -32 139q-18 27 -48 27q-29 0 -47 -27q-32 -46 -32 -139zM319 377q0 -41 10 -88.5t31 -71.5
q15 -18 41 -18t41 18q21 24 31 71.5t10 88.5h-164z" />
    <glyph glyph-name="afii10148" unicode="&#x474;" horiz-adv-x="995" 
d="M995 1366l-379 -1366h-221l-395 1366h291l145 -528q45 -165 68 -371q18 231 59 371l150 528h282z" />
    <glyph glyph-name="afii10196" unicode="&#x475;" horiz-adv-x="749" 
d="M758 915l-266 -915h-236l-262 915h252q10 -42 31.5 -126t34.5 -135t30 -123.5t29 -133.5q3 23 13.5 63t12.5 50l95 405h266z" />
    <glyph glyph-name="afii10050" unicode="&#x490;" horiz-adv-x="772" 
d="M106 1366h369v256h246v-508h-344v-1114h-271v1366z" />
    <glyph glyph-name="afii10098" unicode="&#x491;" horiz-adv-x="663" 
d="M338 0h-256v915h340v205h213v-418h-297v-702z" />
    <glyph glyph-name="uni0492" unicode="&#x492;" horiz-adv-x="780" 
d="M719 1114h-275v-291h248v-260h-248v-563h-270v563h-133v260h133v543h545v-252z" />
    <glyph glyph-name="uni0493" unicode="&#x493;" horiz-adv-x="636" 
d="M608 702h-217v-170h172v-213h-172v-319h-256v319h-104v213h104v383h473v-213z" />
    <glyph glyph-name="uni0494" unicode="&#x494;" horiz-adv-x="1001" 
d="M692 1114h-315v-301q96 21 166 21q180 0 282 -97q115 -112 115 -342q0 -222 -113 -332q-86 -86 -219 -86q-93 0 -180 46l59 229q28 -25 68 -25q54 0 84 39q31 42 31 123q0 91 -41 141q-44 54 -125 54q-52 0 -127 -23v-561h-271v1366h586v-252z" />
    <glyph glyph-name="uni0495" unicode="&#x495;" horiz-adv-x="788" 
d="M575 702h-237v-170h18q183 0 279 -90q67 -62 90 -147.5t23 -188.5q0 -61 -5.5 -112t-22.5 -115t-55.5 -120.5t-95.5 -98.5q-100 -75 -231 -82v221q49 8 82 41q31 30 47.5 81t19 85t2.5 84q0 148 -57 199q-34 30 -86 30h-8v-319h-256v915h493v-213z" />
    <glyph glyph-name="uni0496" unicode="&#x496;" horiz-adv-x="1302" 
d="M14 1366h269l219 -618v618h258v-618l219 618h268l-248 -625l154 -485h141v-522h-245v266h-86l-203 686v-686h-258v686l-211 -686h-275l246 741z" />
    <glyph glyph-name="uni0497" unicode="&#x497;" horiz-adv-x="1058" 
d="M4 915h262l135 -421v421h240v-421l135 421h262l-192 -436l106 -266h99v-426h-213v213h-62l-135 422v-422h-240v422l-135 -422h-260l193 479z" />
    <glyph glyph-name="uni0498" unicode="&#x498;" horiz-adv-x="858" 
d="M96 1016v280q118 90 271 90q178 0 278 -104q98 -100 98 -266q0 -117 -47 -195t-129 -106q87 -23 146 -92q71 -84 71 -209q0 -204 -125 -332q-72 -75 -159 -86v-262h-246v258q-91 12 -162 71v279q48 -55 96 -80q55 -31 121 -31q84 0 129 45q49 46 49 130q0 81 -43 124
q-52 50 -168 50h-36v241h28q105 0 152 39q49 40 49 123q0 68 -45 113q-46 41 -115 41q-67 0 -123 -37q-50 -32 -90 -84z" />
    <glyph glyph-name="uni0499" unicode="&#x499;" horiz-adv-x="737" 
d="M537 479q64 -16 102 -63q47 -56 47 -135q0 -60 -21 -115.5t-55 -91.5q-55 -58 -141 -76v-211h-213v205q-103 16 -205 96l111 191q32 -36 67 -54t86 -18t78 22q27 24 27 60t-27 55q-36 23 -112 23h-45v192h38q54 0 86 14q43 20 43 66q0 33 -26 55q-28 21 -74 21
q-48 0 -88 -27q-31 -19 -59 -55l-95 201q48 34 109 63q74 35 176 35q164 0 248 -88q63 -66 63 -172q0 -77 -36 -129q-32 -46 -84 -64z" />
    <glyph glyph-name="uni049A" unicode="&#x49a;" horiz-adv-x="954" 
d="M106 1366h271v-610l227 610h277l-252 -631l176 -479h141v-522h-246v266h-79l-244 694v-694h-271v1366z" />
    <glyph glyph-name="uni049B" unicode="&#x49b;" horiz-adv-x="776" 
d="M82 915h256v-417l135 417h262l-186 -434l121 -268h98v-426h-213v213h-61l-156 418v-418h-256v915z" />
    <glyph glyph-name="uni049C" unicode="&#x49c;" horiz-adv-x="1134" 
d="M377 575v-575h-271v1366h271v-535h102v314h156v-393l199 614h276l-233 -633l243 -733h-282l-203 690v-426h-156v311h-102z" />
    <glyph glyph-name="uni049D" unicode="&#x49d;" horiz-adv-x="966" 
d="M338 373v-373h-256v915h256v-372h65v227h144v-270l127 415h266l-172 -440l190 -475h-272l-139 420v-260h-144v213h-65z" />
    <glyph glyph-name="uni04A0" unicode="&#x4a0;" horiz-adv-x="1083" 
d="M1069 0h-283l-251 694v-694h-271v1114h-233v252h504v-610l227 610h276l-252 -631z" />
    <glyph glyph-name="uni04A1" unicode="&#x4a1;" horiz-adv-x="880" 
d="M887 0h-271l-155 418v-418h-256v702h-185v213h441v-417l135 417h262l-186 -434z" />
    <glyph glyph-name="uni04A2" unicode="&#x4a2;" horiz-adv-x="1089" 
d="M649 1366h271v-1110h141v-522h-246v266h-166v604h-272v-604h-271v1366h271v-506h272v506z" />
    <glyph glyph-name="uni04A3" unicode="&#x4a3;" horiz-adv-x="847" 
d="M338 915v-321h139v321h256v-702h98v-426h-213v213h-141v381h-139v-381h-256v915h256z" />
    <glyph glyph-name="uni04A4" unicode="&#x4a4;" horiz-adv-x="1226" 
d="M1165 1114h-245v-1114h-271v604h-272v-604h-271v1366h271v-506h272v506h516v-252z" />
    <glyph glyph-name="uni04A5" unicode="&#x4a5;" horiz-adv-x="954" 
d="M338 915v-321h139v321h449v-213h-193v-702h-256v381h-139v-381h-256v915h256z" />
    <glyph glyph-name="uni04AA" unicode="&#x4aa;" horiz-adv-x="837" 
d="M770 311v-282q-45 -23 -78 -33v-262h-246v270q-120 23 -208 127q-162 189 -162 528q0 388 196 584q137 137 328 137q87 0 170 -39v-278q-64 59 -149 59q-89 0 -150 -61q-113 -113 -113 -391q0 -28 2 -59t10 -91t30 -116t55 -93q58 -65 153 -65q92 0 162 65z" />
    <glyph glyph-name="uni04AB" unicode="&#x4ab;" horiz-adv-x="575" 
d="M535 248v-234q-24 -14 -46 -14v-213h-213v217q-57 23 -100 66q-66 66 -93.5 171t-27.5 212q0 121 34 226.5t95 166.5q88 88 222 88q58 0 129 -27v-225q-29 31 -72 31q-51 0 -86 -35q-64 -61 -64 -213q0 -149 60 -209q35 -35 86 -35q13 0 26 3.5t21 7.5t17.5 9.5t11.5 6.5
z" />
    <glyph glyph-name="uni04AE" unicode="&#x4ae;" horiz-adv-x="915" 
d="M915 1366l-317 -782v-584h-270v584l-328 782h297l100 -297q44 -135 62 -203q19 79 59 205l94 295h303z" />
    <glyph glyph-name="uni04AF" unicode="&#x4af;" horiz-adv-x="772" 
d="M-6 928h260l74 -264q44 -153 59 -271q16 107 62 275l69 260h260l-268 -848v-502h-246v502z" />
    <glyph glyph-name="uni04B0" unicode="&#x4b0;" horiz-adv-x="915" 
d="M915 1366l-317 -782v-31h217v-246h-217v-307h-270v307h-217v246h217v31l-328 782h297l100 -297q44 -135 62 -203q19 79 59 205l94 295h303z" />
    <glyph glyph-name="uni04B1" unicode="&#x4b1;" horiz-adv-x="772" 
d="M-4 928h258l74 -264q44 -153 59 -271q16 107 62 275l69 260h260l-268 -807v-35h221v-180h-221v-328h-246v328h-221v180h221v35z" />
    <glyph glyph-name="uni04B2" unicode="&#x4b2;" horiz-adv-x="927" 
d="M303 1366q9 -22 39 -91.5t46 -110t34 -99t22 -100.5q10 50 29 107t34.5 94t45 105t41.5 95h291l-291 -661l197 -449h133v-522h-246v266h-88q-13 35 -51.5 127.5t-61.5 160.5t-33 134q-7 -35 -18 -74t-20 -67.5t-25 -74t-24 -66t-28 -73t-26 -67.5h-303l289 705l-289 661
h303z" />
    <glyph glyph-name="uni04B3" unicode="&#x4b3;" horiz-adv-x="798" 
d="M29 915h264l49 -96q32 -63 51 -133q14 61 56 139l47 90h264l-234 -423l154 -279h111v-426h-213v213h-52l-84 160q-35 68 -49 116q-23 -63 -53 -122l-84 -154h-262l262 492z" />
    <glyph glyph-name="uni04B6" unicode="&#x4b6;" horiz-adv-x="1052" 
d="M778 0h-166v598q-88 -23 -176 -23q-141 0 -225 60q-32 22 -55 51.5t-35 58.5t-19 67t-8.5 67.5t-1.5 70.5v416h270v-391q0 -80 33 -113q31 -31 105 -31q60 0 112 19v516h271v-1110h141v-522h-246v266z" />
    <glyph glyph-name="uni04B7" unicode="&#x4b7;" horiz-adv-x="825" 
d="M61 915h250v-258q0 -48 21 -69q23 -19 59 -19q27 0 64 13v333h256v-702h98v-426h-213v213h-141v377q-65 -21 -129 -21q-129 0 -195 66q-31 31 -47.5 72.5t-19.5 72t-3 72.5v276z" />
    <glyph glyph-name="uni04B8" unicode="&#x4b8;" horiz-adv-x="1112" 
d="M735 0v602q-50 -17 -102 -20v-301h-156v294h-10q-158 0 -244 54q-44 28 -72.5 66t-40 86t-15 83t-3.5 86v416h270v-391q0 -82 33 -113q28 -28 82 -28v319h156v-322q51 0 102 23v512h271v-1366h-271z" />
    <glyph glyph-name="uni04B9" unicode="&#x4b9;" horiz-adv-x="903" 
d="M504 764v-205q26 0 61 14v342h256v-915h-256v377q-6 -1 -27 -7t-34 -8v-186h-119v178q-180 0 -254 74q-70 70 -70 207v280h246v-245q0 -63 21 -84q18 -21 57 -25v203h119z" />
    <glyph glyph-name="uni04BA" unicode="&#x4ba;" horiz-adv-x="978" 
d="M377 1366v-557q84 22 176 22q142 0 225 -59q32 -22 55 -51.5t35 -58.5t19 -67t8.5 -67.5t1.5 -70.5v-457h-270v432q0 80 -33 113q-30 30 -105 30q-63 0 -112 -18v-557h-271v1366h271z" />
    <glyph glyph-name="uni04BB" unicode="&#x4bb;" horiz-adv-x="806" 
d="M725 0h-256v561q0 115 -61 115q-25 0 -40.5 -13t-21.5 -38.5t-7 -42t-1 -45.5v-7v-530h-256v1493h256v-721q82 160 217 160q33 0 59 -9t43.5 -23t30.5 -36t20 -43.5t11 -51.5t5 -53t1 -54v-662z" />
    <glyph glyph-name="uni04C0" unicode="&#x4c0;" horiz-adv-x="419" 
d="M338 0h-256v1366h256v-1366z" />
    <glyph glyph-name="uni04C1" unicode="&#x4c1;" horiz-adv-x="1261" 
d="M1245 0h-274l-211 686v-686h-258v686l-211 -686h-275l246 741l-248 625h269l219 -618v618h258v-618l219 618h268l-248 -625zM766 1745l203 -66q-30 -113 -119 -174q-84 -55 -219 -55t-219 55q-89 61 -119 174l203 66q12 -58 45 -84q33 -29 90 -29t90 29q33 26 45 84z" />
    <glyph glyph-name="uni04C2" unicode="&#x4c2;" horiz-adv-x="1042" 
d="M1036 0h-260l-135 422v-422h-240v422l-135 -422h-260l193 479l-195 436h262l135 -421v421h240v-421l135 421h262l-192 -436zM631 1315l182 -60q-22 -99 -104 -159q-73 -52 -189 -52q-115 0 -188 52q-83 61 -105 159l183 60q4 -55 34 -82q25 -25 76 -25t76 25q31 28 35 82
z" />
    <glyph glyph-name="uni04C3" unicode="&#x4c3;" horiz-adv-x="997" 
d="M106 1366h271v-610l227 610h277l-228 -563q138 -16 213 -141q70 -116 70 -316v-127q0 -160 -25.5 -276t-93.5 -185q-86 -86 -215 -86q-92 0 -170 45l60 230q28 -25 61 -25q47 0 74 39q39 59 39 252v102q0 145 -50 207q-46 58 -131 58q-45 0 -108 -19v-561h-271v1366z" />
    <glyph glyph-name="uni04C4" unicode="&#x4c4;" horiz-adv-x="774" 
d="M82 915h256v-372l135 372h275l-189 -434q92 -35 141 -116q34 -56 44 -117t10 -144q0 -281 -138 -417q-114 -109 -278 -109v221q47 0 84 35q23 22 38 53t20.5 69.5t7 64t1.5 65.5q0 150 -57 201q-36 32 -84 32h-10v-319h-256v915z" />
    <glyph glyph-name="uni04C7" unicode="&#x4c7;" horiz-adv-x="1026" 
d="M106 1366h271v-506h272v506h271v-1360q0 -139 -29 -223q-33 -96 -114.5 -150.5t-184.5 -54.5q-122 0 -201 43v270q62 -75 144 -75q24 0 42.5 7.5t30.5 17.5t20 29t12 33t6.5 39.5t2.5 38.5v39v584h-272v-604h-271v1366z" />
    <glyph glyph-name="uni04C8" unicode="&#x4c8;" horiz-adv-x="815" 
d="M338 915v-321h139v321h256v-1034q0 -163 -80 -239q-69 -64 -188 -64q-71 0 -139 23v225q25 -19 57 -19q36 0 59 21q35 31 35 104v449h-139v-381h-256v915h256z" />
    <glyph glyph-name="uni04D0" unicode="&#x4d0;" horiz-adv-x="942" 
d="M936 0h-287l-51 229h-272l-50 -229h-270l320 1366h282zM367 440h190q-58 264 -78 394q-15 109 -22 180q-12 -194 -90 -574zM598 1745l203 -66q-30 -113 -119 -174q-84 -55 -219 -55t-219 55q-89 61 -119 174l203 66q12 -58 45 -84q33 -29 90 -29t90 29q33 26 45 84z" />
    <glyph glyph-name="uni04D1" unicode="&#x4d1;" horiz-adv-x="811" 
d="M729 0h-256v104q-66 -122 -170 -122q-60 0 -106.5 35.5t-72.5 87.5t-42.5 120.5t-21.5 125t-5 110.5q0 39 2 77t9 86t18 90t30 83t44 70t62 47t81 18q113 0 172 -129v112h256v-915zM492 457q0 23 -1 48t-6.5 62.5t-14.5 65.5t-26.5 48.5t-40.5 20.5q-29 0 -49 -28.5
t-28 -74.5t-10.5 -78t-2.5 -64t3 -65t11 -78.5t28.5 -74t50.5 -28.5q28 0 47 29t26.5 75t10 78.5t2.5 63.5zM524 1315l183 -60q-22 -98 -105 -159q-73 -52 -188 -52q-116 0 -189 52q-82 60 -104 159l182 60q4 -54 35 -82q25 -25 76 -25q50 0 75 25q31 28 35 82z" />
    <glyph glyph-name="uni04D2" unicode="&#x4d2;" horiz-adv-x="942" 
d="M936 0h-287l-51 229h-272l-50 -229h-270l320 1366h282zM367 440h190q-58 264 -78 394q-15 109 -22 180q-12 -194 -90 -574zM764 1618q0 -56 -40 -95.5t-95 -39.5t-95 39.5t-40 95.5t40 95.5t95 39.5t95 -39.5t40 -95.5zM416 1618q0 -56 -40 -95.5t-95 -39.5q-56 0 -96 40
t-40 95t40 95t96 40q55 0 95 -39.5t40 -95.5z" />
    <glyph glyph-name="uni04D3" unicode="&#x4d3;" horiz-adv-x="811" 
d="M729 0h-256v104q-66 -122 -170 -122q-60 0 -106.5 35.5t-72.5 87.5t-42.5 120.5t-21.5 125t-5 110.5q0 39 2 77t9 86t18 90t30 83t44 70t62 47t81 18q113 0 172 -129v112h256v-915zM492 457q0 23 -1 48t-6.5 62.5t-14.5 65.5t-26.5 48.5t-40.5 20.5q-29 0 -49 -28.5
t-28 -74.5t-10.5 -78t-2.5 -64t3 -65t11 -78.5t28.5 -74t50.5 -28.5q28 0 47 29t26.5 75t10 78.5t2.5 63.5zM721 1194q0 -56 -39.5 -95.5t-95.5 -39.5t-95.5 39.5t-39.5 95.5t39.5 95.5t95.5 39.5t95.5 -39.5t39.5 -95.5zM358 1194q0 -56 -40 -95.5t-95 -39.5t-95 39.5
t-40 95.5t40 95.5t95 39.5t95 -39.5t40 -95.5z" />
    <glyph glyph-name="uni04D4" unicode="&#x4d4;" horiz-adv-x="1212" 
d="M1198 0h-547l-51 227h-283l-41 -227h-270l311 1366h557l58 -254h-270l69 -283h270l62 -258h-266l77 -315h261zM362 442h193q-10 48 -31.5 144.5t-31.5 144.5q-25 114 -39 281q-3 -35 -7 -73.5t-7.5 -69t-11 -75t-11 -68t-13 -74t-13 -67.5t-15 -74t-13.5 -69z" />
    <glyph glyph-name="uni04D5" unicode="&#x4d5;" horiz-adv-x="1167" 
d="M1114 393h-420q6 -223 115 -223q42 0 62 32.5t20 78.5h209q-5 -137 -78.5 -218t-208.5 -81q-140 0 -227 112q-54 -58 -107.5 -85t-126.5 -27q-131 0 -214 78t-83 208q0 124 75 202.5t198 78.5q85 0 135 -33v4q0 41 -2 66.5t-10.5 54t-24.5 44t-44 26t-69 10.5
q-81 0 -180 -47v219q121 41 207 41q92 0 151.5 -30t102.5 -105q40 70 93 101.5t132 31.5q45 0 83.5 -12.5t66 -31.5t50 -51t37 -62.5t25.5 -74t17 -77t9.5 -81t4.5 -77t2 -72.5zM696 551h191q0 29 -3 57t-12 62t-29.5 54.5t-49.5 20.5q-30 0 -51 -20.5t-30 -54.5t-12.5 -62
t-3.5 -57zM479 268q0 40 -28 68.5t-68 28.5t-68 -28.5t-28 -68.5t28 -68t68 -28t68 28t28 68z" />
    <glyph glyph-name="uni04D6" unicode="&#x4d6;" horiz-adv-x="727" 
d="M653 0h-547v1366h543v-254h-272v-295h239v-258h-239v-307h276v-252zM500 1745l202 -66q-30 -114 -118 -174q-84 -55 -219 -55q-136 0 -220 55q-88 60 -118 174l202 66q12 -58 45 -84q33 -29 91 -29q57 0 90 29q33 26 45 84z" />
    <glyph glyph-name="uni04D7" unicode="&#x4d7;" horiz-adv-x="763" 
d="M477 315h217q-2 -73 -29 -145.5t-69 -116.5q-43 -43 -91 -57t-108 -14q-67 0 -119 16.5t-100 64.5q-125 125 -125 371q0 126 33 236.5t100 177.5q84 84 209 84q119 0 197 -74q60 -58 89.5 -155t29.5 -201q0 -44 -6 -90h-406q-2 -14 -2 -52q0 -121 37 -161q22 -25 53 -25
q32 0 51 16q32 28 39 125zM303 569h184q0 45 -10.5 89t-30.5 61q-21 18 -47 18q-33 0 -57 -24q-19 -20 -29 -62.5t-10 -81.5zM510 1315l182 -60q-22 -99 -104 -159q-73 -52 -189 -52q-115 0 -188 52q-83 61 -105 159l183 60q4 -54 35 -82q25 -25 75 -25q51 0 76 25
q31 28 35 82z" />
    <glyph glyph-name="uni04D8" unicode="&#x4d8;" horiz-adv-x="1073" 
d="M78 760h631q-2 97 -27 199.5t-74 148.5q-44 41 -102 41q-51 0 -86 -35q-29 -28 -43.5 -73.5t-16.5 -79.5l-262 102q34 127 117 209q111 114 295 114q191 0 311 -120q178 -178 178 -578q0 -189 -48.5 -342.5t-135.5 -243.5q-118 -125 -301 -125q-165 0 -274 113
q-164 170 -164 565q0 64 2 105zM344 518v-10q0 -173 66 -242q41 -43 100 -43q61 0 100 39q38 35 64 112.5t28 143.5h-358z" />
    <glyph glyph-name="afii10846" unicode="&#x4d9;" horiz-adv-x="761" 
d="M276 631l-208 41q17 113 88 184q76 76 209 76q143 0 231 -88q113 -113 113 -359q0 -290 -134 -424q-43 -45 -90 -62t-110 -17q-129 0 -205 73q-117 115 -117 365q0 19 2 58.5t2 45.5h406v8q0 149 -47 189q-20 18 -58 18q-33 0 -53 -20q-29 -32 -29 -88zM459 367h-185
q-5 -39 4 -90t33 -76q25 -25 56 -25q30 0 51 21q41 38 41 145v25z" />
    <glyph glyph-name="uni04DA" unicode="&#x4da;" horiz-adv-x="1073" 
d="M78 760h631q-2 97 -27 199.5t-74 148.5q-44 41 -102 41q-51 0 -86 -35q-29 -28 -43.5 -73.5t-16.5 -79.5l-262 102q34 127 117 209q111 114 295 114q191 0 311 -120q178 -178 178 -578q0 -189 -48.5 -342.5t-135.5 -243.5q-118 -125 -301 -125q-165 0 -274 113
q-164 170 -164 565q0 64 2 105zM344 518v-10q0 -173 66 -242q41 -43 100 -43q61 0 100 39q38 35 64 112.5t28 143.5h-358zM817 1618q0 -56 -39.5 -95.5t-95.5 -39.5t-95.5 39.5t-39.5 95.5t39.5 95.5t95.5 39.5t95.5 -39.5t39.5 -95.5zM469 1618q0 -56 -39.5 -95.5
t-95.5 -39.5t-95.5 39.5t-39.5 95.5t39.5 95.5t95.5 39.5t95.5 -39.5t39.5 -95.5z" />
    <glyph glyph-name="uni04DB" unicode="&#x4db;" horiz-adv-x="761" 
d="M276 631l-208 41q17 113 88 184q76 76 209 76q143 0 231 -88q113 -113 113 -359q0 -290 -134 -424q-43 -45 -90 -62t-110 -17q-129 0 -205 73q-117 115 -117 365q0 19 2 58.5t2 45.5h406v8q0 149 -47 189q-20 18 -58 18q-33 0 -53 -20q-29 -32 -29 -88zM459 367h-185
q-5 -39 4 -90t33 -76q25 -25 56 -25q30 0 51 21q41 38 41 145v25zM698 1194q0 -56 -40 -95.5t-95 -39.5t-95 39.5t-40 95.5t40 95.5t95 39.5t95 -39.5t40 -95.5zM336 1194q0 -56 -40 -95.5t-95 -39.5t-95 39.5t-40 95.5t40 95.5t95 39.5t95 -39.5t40 -95.5z" />
    <glyph glyph-name="uni04DC" unicode="&#x4dc;" horiz-adv-x="1261" 
d="M1245 0h-274l-211 686v-686h-258v686l-211 -686h-275l246 741l-248 625h269l219 -618v618h258v-618l219 618h268l-248 -625zM932 1618q0 -56 -40 -95.5t-95 -39.5t-95 39.5t-40 95.5t40 95.5t95 39.5t95 -39.5t40 -95.5zM584 1618q0 -56 -40 -95.5t-95 -39.5
q-56 0 -96 40t-40 95t40 95t96 40q55 0 95 -39.5t40 -95.5z" />
    <glyph glyph-name="uni04DD" unicode="&#x4dd;" horiz-adv-x="1042" 
d="M1036 0h-260l-135 422v-422h-240v422l-135 -422h-260l193 479l-195 436h262l135 -421v421h240v-421l135 421h262l-192 -436zM827 1194q0 -56 -39.5 -95.5t-95.5 -39.5t-95.5 39.5t-39.5 95.5t39.5 95.5t95.5 39.5t95.5 -39.5t39.5 -95.5zM465 1194q0 -56 -39.5 -95.5
t-95.5 -39.5t-95.5 39.5t-39.5 95.5t39.5 95.5t95.5 39.5t95.5 -39.5t39.5 -95.5z" />
    <glyph glyph-name="uni04DE" unicode="&#x4de;" horiz-adv-x="858" 
d="M96 1016v280q118 90 271 90q178 0 278 -104q98 -100 98 -266q0 -117 -47 -195t-129 -106q89 -23 146 -92q71 -87 71 -217q0 -97 -33 -181.5t-92 -142.5q-110 -105 -292 -105q-164 0 -275 86v279q48 -55 96 -80q55 -31 121 -31q84 0 129 45q49 46 49 130q0 81 -43 124
q-52 50 -168 50h-36v241h28q105 0 152 39q49 40 49 123q0 68 -45 113q-46 41 -115 41q-67 0 -123 -37q-50 -32 -90 -84zM694 1618q0 -56 -40 -95.5t-95 -39.5t-95 39.5t-40 95.5t40 95.5t95 39.5t95 -39.5t40 -95.5zM346 1618q0 -56 -40 -95.5t-95 -39.5t-95 39.5t-40 95.5
t40 95.5t95 39.5t95 -39.5t40 -95.5z" />
    <glyph glyph-name="uni04DF" unicode="&#x4df;" horiz-adv-x="737" 
d="M524 479q70 -22 107 -61q55 -55 55 -142q0 -123 -88 -208q-88 -86 -240 -86q-106 0 -180 30q-55 20 -127 76l111 191q32 -36 67 -54t86 -18t78 22q27 24 27 60t-27 55q-36 23 -112 23h-45v192h38q54 0 86 14q43 20 43 66q0 33 -26 55q-28 21 -74 21q-48 0 -88 -27
q-31 -19 -59 -55l-95 201q48 34 109 63q74 35 176 35q164 0 248 -88q63 -66 63 -170q0 -76 -39 -127q-37 -46 -94 -68zM678 1194q0 -56 -40 -95.5t-95 -39.5t-95 39.5t-40 95.5t40 95.5t95 39.5t95 -39.5t40 -95.5zM315 1194q0 -56 -39.5 -95.5t-95.5 -39.5t-95.5 39.5
t-39.5 95.5t39.5 95.5t95.5 39.5t95.5 -39.5t39.5 -95.5z" />
    <glyph glyph-name="uni04E2" unicode="&#x4e2;" horiz-adv-x="997" 
d="M96 0v1366h266v-594q0 -120 -22 -246l311 840h250v-1366h-266v598q0 123 18 252l-307 -850h-250zM784 1511h-585v164h585v-164z" />
    <glyph glyph-name="uni04E3" unicode="&#x4e3;" horiz-adv-x="829" 
d="M82 915h242v-325q0 -99 -19 -240q25 94 66 193l149 372h228v-915h-242v340q0 89 16 233q-28 -122 -71 -227l-142 -346h-227v915zM709 1087h-586v164h586v-164z" />
    <glyph glyph-name="uni04E4" unicode="&#x4e4;" horiz-adv-x="997" 
d="M96 0v1366h266v-594q0 -120 -22 -246l311 840h250v-1366h-266v598q0 123 18 252l-307 -850h-250zM801 1618q0 -56 -39.5 -95.5t-95.5 -39.5t-96 40t-40 95t40 95t96 40t95.5 -39.5t39.5 -95.5zM453 1618q0 -55 -40 -95t-96 -40q-55 0 -95 39.5t-40 95.5t40 95.5t95 39.5
q56 0 96 -40t40 -95z" />
    <glyph glyph-name="uni04E5" unicode="&#x4e5;" horiz-adv-x="829" 
d="M82 915h242v-325q0 -99 -19 -240q25 94 66 193l149 372h228v-915h-242v340q0 89 16 233q-28 -122 -71 -227l-142 -346h-227v915zM731 1194q0 -56 -39.5 -95.5t-95.5 -39.5t-95.5 39.5t-39.5 95.5t39.5 95.5t95.5 39.5t95.5 -39.5t39.5 -95.5zM369 1194q0 -55 -40 -95
t-96 -40q-55 0 -95 39.5t-40 95.5t40 95.5t95 39.5q56 0 96 -40t40 -95z" />
    <glyph glyph-name="uni04E6" unicode="&#x4e6;" horiz-adv-x="1110" 
d="M1034 682q0 -81 -5.5 -145.5t-21 -143.5t-51.5 -150t-90 -128q-131 -138 -311 -138t-311 138q-54 57 -90 128t-51.5 150t-21 143.5t-5.5 145.5t5.5 145.5t21 143.5t51.5 150t90 128q130 137 311 137t311 -137q54 -57 90 -128t51.5 -150t21 -143.5t5.5 -145.5zM555 1139
q-56 0 -98 -45q-95 -95 -95 -406q0 -310 95 -405q42 -45 98 -45t98 45q95 95 95 405q0 311 -95 406q-42 45 -98 45zM860 1618q0 -56 -40 -95.5t-95 -39.5t-95 39.5t-40 95.5t40 95.5t95 39.5t95 -39.5t40 -95.5zM512 1618q0 -56 -40 -95.5t-95 -39.5t-95 39.5t-40 95.5
t40 95.5t95 39.5t95 -39.5t40 -95.5z" />
    <glyph glyph-name="uni04E7" unicode="&#x4e7;" horiz-adv-x="802" 
d="M748 457q0 -275 -125 -396q-82 -79 -222 -79q-139 0 -221 79q-125 121 -125 396q0 274 125 395q83 80 221 80q139 0 222 -80q125 -121 125 -395zM401 702q-30 0 -47 -26q-41 -59 -41 -219t41 -219q18 -27 47 -27q30 0 48 27q40 58 40 219t-40 219q-17 26 -48 26z
M709 1194q0 -55 -40 -95t-96 -40q-55 0 -95 39.5t-40 95.5t40 95.5t95 39.5q56 0 96 -40t40 -95zM346 1194q0 -56 -40 -95.5t-95 -39.5t-95 39.5t-40 95.5t40 95.5t95 39.5t95 -39.5t40 -95.5z" />
    <glyph glyph-name="uni04E8" unicode="&#x4e8;" horiz-adv-x="1110" 
d="M1034 682q0 -81 -5.5 -145.5t-21 -143.5t-51.5 -150t-90 -128q-131 -138 -311 -138t-311 138q-54 57 -90 128t-51.5 150t-21 143.5t-5.5 145.5t5.5 145.5t21 143.5t51.5 150t90 128q130 137 311 137t311 -137q54 -57 90 -128t51.5 -150t21 -143.5t5.5 -145.5zM371 819
h368q0 74 -22.5 155t-63.5 122q-43 43 -98 43t-98 -43q-43 -41 -64.5 -119.5t-21.5 -157.5zM743 580h-376q2 -78 23 -164.5t67 -134.5q40 -43 98 -43t98 43q81 87 90 299z" />
    <glyph glyph-name="uni04E9" unicode="&#x4e9;" horiz-adv-x="802" 
d="M748 457q0 -275 -125 -396q-82 -79 -222 -79q-139 0 -221 79q-125 121 -125 396q0 274 125 395q83 80 221 80q139 0 222 -80q125 -121 125 -395zM322 549h159q0 93 -32 139q-18 27 -48 27q-29 0 -47 -27q-32 -46 -32 -139zM319 377q0 -41 10 -88.5t31 -71.5
q15 -18 41 -18t41 18q21 24 31 71.5t10 88.5h-164z" />
    <glyph glyph-name="uni04EA" unicode="&#x4ea;" horiz-adv-x="1110" 
d="M1034 682q0 -81 -5.5 -145.5t-21 -143.5t-51.5 -150t-90 -128q-131 -138 -311 -138t-311 138q-54 57 -90 128t-51.5 150t-21 143.5t-5.5 145.5t5.5 145.5t21 143.5t51.5 150t90 128q130 137 311 137t311 -137q54 -57 90 -128t51.5 -150t21 -143.5t5.5 -145.5zM371 819
h368q0 74 -22.5 155t-63.5 122q-43 43 -98 43t-98 -43q-43 -41 -64.5 -119.5t-21.5 -157.5zM743 580h-376q2 -78 23 -164.5t67 -134.5q40 -43 98 -43t98 43q81 87 90 299zM864 1618q0 -56 -40 -95.5t-95 -39.5t-95 39.5t-40 95.5t40 95.5t95 39.5t95 -39.5t40 -95.5z
M516 1618q0 -56 -40 -95.5t-95 -39.5t-95 39.5t-40 95.5t40 95.5t95 39.5t95 -39.5t40 -95.5z" />
    <glyph glyph-name="uni04EB" unicode="&#x4eb;" horiz-adv-x="802" 
d="M748 457q0 -275 -125 -396q-82 -79 -222 -79q-139 0 -221 79q-125 121 -125 396q0 274 125 395q83 80 221 80q139 0 222 -80q125 -121 125 -395zM322 549h159q0 93 -32 139q-18 27 -48 27q-29 0 -47 -27q-32 -46 -32 -139zM319 377q0 -41 10 -88.5t31 -71.5
q15 -18 41 -18t41 18q21 24 31 71.5t10 88.5h-164zM719 1194q0 -56 -39.5 -95.5t-95.5 -39.5t-95.5 39.5t-39.5 95.5t39.5 95.5t95.5 39.5t95.5 -39.5t39.5 -95.5zM356 1194q0 -56 -40 -95.5t-95 -39.5t-95 39.5t-40 95.5t40 95.5t95 39.5t95 -39.5t40 -95.5z" />
    <glyph glyph-name="uni04EE" unicode="&#x4ee;" horiz-adv-x="935" 
d="M16 1366h291l107 -332q38 -115 57 -235q36 170 59 241l103 326h287l-476 -1366h-270l156 471zM762 1511h-586v164h586v-164z" />
    <glyph glyph-name="uni04EF" unicode="&#x4ef;" horiz-adv-x="749" 
d="M756 915l-385 -1337h-252l141 440l-266 897h256l88 -333q33 -126 41 -189l121 522h256zM668 1087h-586v164h586v-164z" />
    <glyph glyph-name="uni04F0" unicode="&#x4f0;" horiz-adv-x="935" 
d="M16 1366h291l107 -332q38 -115 57 -235q36 170 59 241l103 326h287l-476 -1366h-270l156 471zM778 1618q0 -56 -40 -95.5t-95 -39.5t-95 39.5t-40 95.5t40 95.5t95 39.5t95 -39.5t40 -95.5zM430 1618q0 -56 -40 -95.5t-95 -39.5t-95 39.5t-40 95.5t40 95.5t95 39.5
t95 -39.5t40 -95.5z" />
    <glyph glyph-name="uni04F1" unicode="&#x4f1;" horiz-adv-x="749" 
d="M756 915l-385 -1337h-252l141 440l-266 897h256l88 -333q33 -126 41 -189l121 522h256zM694 1194q0 -56 -40 -95.5t-95 -39.5t-95 39.5t-40 95.5t40 95.5t95 39.5t95 -39.5t40 -95.5zM332 1194q0 -56 -40 -95.5t-95 -39.5q-56 0 -96 40t-40 95t40 95t96 40q55 0 95 -39.5
t40 -95.5z" />
    <glyph glyph-name="uni04F2" unicode="&#x4f2;" horiz-adv-x="935" 
d="M16 1366h291l107 -332q38 -115 57 -235q36 170 59 241l103 326h287l-476 -1366h-270l156 471zM809 1733l-174 -250l-117 73l123 263zM528 1733l-176 -250l-116 73l122 263z" />
    <glyph glyph-name="uni04F3" unicode="&#x4f3;" horiz-adv-x="749" 
d="M756 915l-385 -1337h-252l141 440l-266 897h256l88 -333q33 -126 41 -189l121 522h256zM682 1309l-174 -250l-117 74l123 262zM401 1309l-176 -250l-116 74l122 262z" />
    <glyph glyph-name="uni04F4" unicode="&#x4f4;" horiz-adv-x="989" 
d="M612 0v598q-88 -23 -176 -23q-141 0 -225 60q-32 22 -55 51.5t-35 58.5t-19 67t-8.5 67.5t-1.5 70.5v416h270v-391q0 -80 33 -113q31 -31 105 -31q60 0 112 19v516h271v-1366h-271zM799 1618q0 -56 -39.5 -95.5t-95.5 -39.5t-96 40t-40 95t40 95t96 40t95.5 -39.5
t39.5 -95.5zM451 1618q0 -55 -40 -95t-96 -40q-55 0 -95 39.5t-40 95.5t40 95.5t95 39.5q56 0 96 -40t40 -95z" />
    <glyph glyph-name="uni04F5" unicode="&#x4f5;" horiz-adv-x="792" 
d="M455 0v377q-65 -21 -129 -21q-129 0 -195 66q-31 31 -47.5 72.5t-19.5 72t-3 72.5v276h250v-258q0 -48 21 -69q23 -19 59 -19q27 0 64 13v333h256v-915h-256zM702 1194q0 -56 -40 -95.5t-95 -39.5t-95 39.5t-40 95.5t40 95.5t95 39.5t95 -39.5t40 -95.5zM340 1194
q0 -56 -40 -95.5t-95 -39.5t-95 39.5t-40 95.5t40 95.5t95 39.5t95 -39.5t40 -95.5z" />
    <glyph glyph-name="uni04F8" unicode="&#x4f8;" horiz-adv-x="1292" 
d="M1186 0h-271v1366h271v-1366zM106 1366h271v-535h8q43 0 78 -3t82 -13.5t91.5 -34.5t82.5 -61q117 -113 117 -320q0 -192 -103 -293q-108 -106 -332 -106h-295v1366zM377 598v-365h8q104 0 147 41q46 46 46 136q0 92 -52 141q-50 47 -143 47h-6zM942 1618
q0 -56 -40 -95.5t-95 -39.5t-95 39.5t-40 95.5t40 95.5t95 39.5t95 -39.5t40 -95.5zM594 1618q0 -56 -40 -95.5t-95 -39.5t-95 39.5t-40 95.5t40 95.5t95 39.5t95 -39.5t40 -95.5z" />
    <glyph glyph-name="uni04F9" unicode="&#x4f9;" horiz-adv-x="1120" 
d="M1038 0h-256v915h256v-915zM82 915h256v-335h57q160 0 244 -84q80 -76 80 -211q0 -134 -80 -211q-78 -74 -233 -74h-324v915zM338 180h12q59 0 88 23q35 26 35 86q0 51 -29 80q-30 30 -102 30h-4v-219zM866 1194q0 -56 -40 -95.5t-95 -39.5t-95 39.5t-40 95.5t40 95.5
t95 39.5t95 -39.5t40 -95.5zM504 1194q0 -56 -40 -95.5t-95 -39.5q-56 0 -96 40t-40 95t40 95t96 40q55 0 95 -39.5t40 -95.5z" />
    <glyph glyph-name="uni1E9E" unicode="&#x1e9e;" horiz-adv-x="901" 
d="M377 1038v-1038h-271v1006q0 96 24.5 163.5t80.5 122.5q97 94 242 94q161 0 254 -86q54 -51 76 -116.5t24 -153.5q0 -45 -2 -63l-148 -187q35 -15 70 -47.5t55 -68.5q45 -78 45 -215q0 -226 -92 -355q-13 -19 -27 -34t-28.5 -25.5t-26.5 -18.5t-27.5 -12.5t-24.5 -8
t-25 -4.5t-20.5 -1h-19.5h-16q-46 0 -76 10v229q52 0 76 27q20 21 29.5 61t10.5 63.5t1 70.5q0 107 -31 153q-25 38 -86 41v180l105 146q2 8 2 47q0 75 -16 106q-22 39 -70 39q-46 0 -68 -33q-20 -31 -20 -92z" />
    <glyph glyph-name="uni2010" unicode="&#x2010;" horiz-adv-x="548" 
d="M446 391h-344v221h344v-221z" />
    <glyph glyph-name="uni2011" unicode="&#x2011;" horiz-adv-x="548" 
d="M446 391h-344v221h344v-221z" />
    <glyph glyph-name="figuredash" unicode="&#x2012;" horiz-adv-x="1175" 
d="M1032 590h-889v205h889v-205z" />
    <glyph glyph-name="endash" unicode="&#x2013;" horiz-adv-x="1175" 
d="M1032 399h-889v205h889v-205z" />
    <glyph glyph-name="emdash" unicode="&#x2014;" horiz-adv-x="1679" 
d="M1536 604v-205h-1393v205h1393z" />
    <glyph glyph-name="afii00208" unicode="&#x2015;" horiz-adv-x="1679" 
d="M1536 604v-205h-1393v205h1393z" />
    <glyph glyph-name="quoteleft" unicode="&#x2018;" horiz-adv-x="561" 
d="M61 907l273 553h180l-180 -553h-273z" />
    <glyph glyph-name="quoteright" unicode="&#x2019;" horiz-adv-x="561" 
d="M514 1460l-272 -553h-181l181 553h272z" />
    <glyph glyph-name="quotesinglbase" unicode="&#x201a;" horiz-adv-x="512" 
d="M467 248l-272 -553h-181l181 553h272z" />
    <glyph glyph-name="quotedblleft" unicode="&#x201c;" horiz-adv-x="903" 
d="M856 1460l-180 -553h-273l273 553h180zM514 1460l-180 -553h-273l273 553h180z" />
    <glyph glyph-name="quotedblright" unicode="&#x201d;" horiz-adv-x="903" 
d="M856 1460l-272 -553h-181l181 553h272zM514 1460l-272 -553h-181l181 553h272z" />
    <glyph glyph-name="quotedblbase" unicode="&#x201e;" horiz-adv-x="903" 
d="M500 248l-273 -553h-180l180 553h273zM854 248l-272 -553h-181l181 553h272z" />
    <glyph glyph-name="dagger" unicode="&#x2020;" horiz-adv-x="886" 
d="M799 899h-228v-1294h-256v1294h-227v240h227v354h256v-354h228v-240z" />
    <glyph glyph-name="daggerdbl" unicode="&#x2021;" horiz-adv-x="886" 
d="M799 205h-228v-600h-256v600h-227v239h227v455h-227v240h227v354h256v-354h228v-240h-228v-455h228v-239z" />
    <glyph glyph-name="bullet" unicode="&#x2022;" horiz-adv-x="2048" 
d="M1307 696q0 -116 -82.5 -201t-198.5 -85q-117 0 -200 84.5t-83 201.5t83 202t200 85q116 0 198.5 -85.5t82.5 -201.5z" />
    <glyph glyph-name="ellipsis" unicode="&#x2026;" horiz-adv-x="1536" 
d="M1440 162q0 -66 -47 -114t-113 -48t-114 48t-48 114t48 113t114 47t113 -47t47 -113zM928 162q0 -66 -47 -114t-113 -48t-114 48t-48 114t48 113t114 47t113 -47t47 -113zM416 162q0 -66 -47 -114t-113 -48t-114 48t-48 114t48 113t114 47t113 -47t47 -113z" />
    <glyph glyph-name="perthousand" unicode="&#x2030;" horiz-adv-x="2156" 
d="M1139 1366l-592 -1366h-178l596 1366h174zM621 1032q0 -65 -13 -123.5t-42.5 -113.5t-86.5 -88t-135 -33q-62 0 -111.5 22.5t-79.5 58t-50 83.5t-27.5 94.5t-7.5 95.5q0 46 7.5 90.5t27 92t49.5 82.5t79.5 58t112.5 23t112.5 -22.5t80 -57.5t50 -82t27 -91t7.5 -89z
M414 1034q0 16 -2 35.5t-7.5 50t-20 50.5t-36.5 20q-21 0 -35 -20t-19.5 -51t-7 -49.5t-1.5 -35.5q0 -21 1.5 -42t7 -55t19.5 -55.5t35 -21.5t35.5 21.5t20.5 55t8 56t2 41.5zM1223 346q0 16 -2 35.5t-7.5 50t-20 50.5t-36.5 20q-21 0 -35 -20t-19.5 -51t-7 -49.5
t-1.5 -35.5q0 -21 1.5 -42t7 -55t19.5 -55.5t35 -21.5t35.5 21.5t20.5 55t8 56t2 41.5zM1430 344q0 -65 -13 -123.5t-42.5 -113.5t-86.5 -88t-135 -33q-62 0 -111.5 22.5t-79.5 58t-50 83.5t-27.5 94.5t-7.5 95.5q0 46 7.5 90.5t27 92t49.5 82.5t79.5 58t112.5 23
t112.5 -22.5t80 -57.5t50 -82t27 -91t7.5 -89zM1882 346q0 17 -1.5 35.5t-7 49.5t-20 51t-36.5 20q-21 0 -35.5 -20t-20 -50.5t-7 -50t-1.5 -35.5q0 -20 1.5 -41.5t7 -55.5t20 -55.5t35.5 -21.5t35.5 21.5t20 55t7.5 56t2 41.5zM2089 344q0 -65 -13 -123.5t-42.5 -113.5
t-86.5 -88t-135 -33q-62 0 -111.5 22.5t-79.5 58t-50 83.5t-27.5 94.5t-7.5 95.5q0 46 7.5 90.5t27 92t49.5 82.5t79.5 58t112.5 23t112.5 -22.5t80 -57.5t50 -82t27 -91t7.5 -89z" />
    <glyph glyph-name="guilsinglleft" unicode="&#x2039;" horiz-adv-x="497" 
d="M436 135l-139 -78l-236 422l236 422l139 -70l-186 -352z" />
    <glyph glyph-name="guilsinglright" unicode="&#x203a;" horiz-adv-x="497" 
d="M436 479l-237 -422l-138 78l187 344l-187 352l138 70z" />
    <glyph glyph-name="fraction" unicode="&#x2044;" horiz-adv-x="299" 
d="M541 1366l-652 -1366h-157l651 1366h158z" />
    <glyph glyph-name="Euro" unicode="&#x20ac;" horiz-adv-x="886" 
d="M834 311v-282q-77 -43 -187 -43q-102 0 -179 28t-144 95q-144 142 -177 399h-170l60 139h106v113h-166l60 139h125q18 100 64.5 189.5t109.5 154.5q137 137 328 137q87 0 170 -39v-278q-64 59 -150 59q-88 0 -149 -61q-59 -59 -84 -162h395l-60 -139h-362q-2 -18 -2 -55
q0 -40 2 -58h321l-59 -139h-252q9 -54 32.5 -110t51.5 -87q58 -65 154 -65q92 0 162 65z" />
    <glyph glyph-name="uni20B4" unicode="&#x20b4;" horiz-adv-x="886" 
d="M188 1057v264q66 29 111 41q79 22 174 22q143 0 223 -67q88 -75 88 -209q0 -124 -69 -209h143v-139h-215l-94 -113h309v-139h-405q-70 -80 -70 -158q0 -62 45 -94q39 -25 104 -25q57 0 119 23q49 19 92 51v-258q-1 -1 -18 -9t-45.5 -19t-52.5 -17q-77 -22 -158 -22
q-153 0 -248 75q-102 79 -102 234q0 126 71 219h-139v139h223l95 113h-318v139h410q57 55 57 121q0 59 -35 92t-98 33q-55 0 -115 -31q-51 -26 -82 -57z" />
    <glyph glyph-name="uni20B6" unicode="&#x20b6;" horiz-adv-x="886" 
d="M465 1366q78 0 127.5 -8t101.5 -37q91 -52 139 -150t48 -210q0 -200 -116 -291.5t-357 -91.5v-113h225v-139h-225v-326h-271v326h-131v139h131v113h-131v184h131v604h328zM408 762h16q96 0 142 45.5t46 155.5q0 88 -35.5 136t-121.5 48h-47v-385z" />
    <glyph glyph-name="uni20B6" unicode="&#x20cf;" horiz-adv-x="886" 
d="M465 1366q78 0 127.5 -8t101.5 -37q91 -52 139 -150t48 -210q0 -200 -116 -291.5t-357 -91.5v-113h225v-139h-225v-326h-271v326h-131v139h131v113h-131v184h131v604h328zM408 762h16q96 0 142 45.5t46 155.5q0 88 -35.5 136t-121.5 48h-47v-385z" />
    <glyph glyph-name="uni20B6" unicode="&#x20ce;" horiz-adv-x="886" 
d="M465 1366q78 0 127.5 -8t101.5 -37q91 -52 139 -150t48 -210q0 -200 -116 -291.5t-357 -91.5v-113h225v-139h-225v-326h-271v326h-131v139h131v113h-131v184h131v604h328zM408 762h16q96 0 142 45.5t46 155.5q0 88 -35.5 136t-121.5 48h-47v-385z" />
    <glyph glyph-name="uni20B6" unicode="&#x20cd;" horiz-adv-x="886" 
d="M465 1366q78 0 127.5 -8t101.5 -37q91 -52 139 -150t48 -210q0 -200 -116 -291.5t-357 -91.5v-113h225v-139h-225v-326h-271v326h-131v139h131v113h-131v184h131v604h328zM408 762h16q96 0 142 45.5t46 155.5q0 88 -35.5 136t-121.5 48h-47v-385z" />
    <glyph glyph-name="uni20B6" unicode="&#x20cc;" horiz-adv-x="886" 
d="M465 1366q78 0 127.5 -8t101.5 -37q91 -52 139 -150t48 -210q0 -200 -116 -291.5t-357 -91.5v-113h225v-139h-225v-326h-271v326h-131v139h131v113h-131v184h131v604h328zM408 762h16q96 0 142 45.5t46 155.5q0 88 -35.5 136t-121.5 48h-47v-385z" />
    <glyph glyph-name="uni20B6" unicode="&#x20cb;" horiz-adv-x="886" 
d="M465 1366q78 0 127.5 -8t101.5 -37q91 -52 139 -150t48 -210q0 -200 -116 -291.5t-357 -91.5v-113h225v-139h-225v-326h-271v326h-131v139h131v113h-131v184h131v604h328zM408 762h16q96 0 142 45.5t46 155.5q0 88 -35.5 136t-121.5 48h-47v-385z" />
    <glyph glyph-name="uni20B6" unicode="&#x20ca;" horiz-adv-x="886" 
d="M465 1366q78 0 127.5 -8t101.5 -37q91 -52 139 -150t48 -210q0 -200 -116 -291.5t-357 -91.5v-113h225v-139h-225v-326h-271v326h-131v139h131v113h-131v184h131v604h328zM408 762h16q96 0 142 45.5t46 155.5q0 88 -35.5 136t-121.5 48h-47v-385z" />
    <glyph glyph-name="uni20B6" unicode="&#x20c9;" horiz-adv-x="886" 
d="M465 1366q78 0 127.5 -8t101.5 -37q91 -52 139 -150t48 -210q0 -200 -116 -291.5t-357 -91.5v-113h225v-139h-225v-326h-271v326h-131v139h131v113h-131v184h131v604h328zM408 762h16q96 0 142 45.5t46 155.5q0 88 -35.5 136t-121.5 48h-47v-385z" />
    <glyph glyph-name="uni20B6" unicode="&#x20c8;" horiz-adv-x="886" 
d="M465 1366q78 0 127.5 -8t101.5 -37q91 -52 139 -150t48 -210q0 -200 -116 -291.5t-357 -91.5v-113h225v-139h-225v-326h-271v326h-131v139h131v113h-131v184h131v604h328zM408 762h16q96 0 142 45.5t46 155.5q0 88 -35.5 136t-121.5 48h-47v-385z" />
    <glyph glyph-name="uni20B6" unicode="&#x20c7;" horiz-adv-x="886" 
d="M465 1366q78 0 127.5 -8t101.5 -37q91 -52 139 -150t48 -210q0 -200 -116 -291.5t-357 -91.5v-113h225v-139h-225v-326h-271v326h-131v139h131v113h-131v184h131v604h328zM408 762h16q96 0 142 45.5t46 155.5q0 88 -35.5 136t-121.5 48h-47v-385z" />
    <glyph glyph-name="uni20B6" unicode="&#x20c6;" horiz-adv-x="886" 
d="M465 1366q78 0 127.5 -8t101.5 -37q91 -52 139 -150t48 -210q0 -200 -116 -291.5t-357 -91.5v-113h225v-139h-225v-326h-271v326h-131v139h131v113h-131v184h131v604h328zM408 762h16q96 0 142 45.5t46 155.5q0 88 -35.5 136t-121.5 48h-47v-385z" />
    <glyph glyph-name="uni20B6" unicode="&#x20c5;" horiz-adv-x="886" 
d="M465 1366q78 0 127.5 -8t101.5 -37q91 -52 139 -150t48 -210q0 -200 -116 -291.5t-357 -91.5v-113h225v-139h-225v-326h-271v326h-131v139h131v113h-131v184h131v604h328zM408 762h16q96 0 142 45.5t46 155.5q0 88 -35.5 136t-121.5 48h-47v-385z" />
    <glyph glyph-name="uni20B6" unicode="&#x20c4;" horiz-adv-x="886" 
d="M465 1366q78 0 127.5 -8t101.5 -37q91 -52 139 -150t48 -210q0 -200 -116 -291.5t-357 -91.5v-113h225v-139h-225v-326h-271v326h-131v139h131v113h-131v184h131v604h328zM408 762h16q96 0 142 45.5t46 155.5q0 88 -35.5 136t-121.5 48h-47v-385z" />
    <glyph glyph-name="uni20B6" unicode="&#x20c3;" horiz-adv-x="886" 
d="M465 1366q78 0 127.5 -8t101.5 -37q91 -52 139 -150t48 -210q0 -200 -116 -291.5t-357 -91.5v-113h225v-139h-225v-326h-271v326h-131v139h131v113h-131v184h131v604h328zM408 762h16q96 0 142 45.5t46 155.5q0 88 -35.5 136t-121.5 48h-47v-385z" />
    <glyph glyph-name="uni20B6" unicode="&#x20c2;" horiz-adv-x="886" 
d="M465 1366q78 0 127.5 -8t101.5 -37q91 -52 139 -150t48 -210q0 -200 -116 -291.5t-357 -91.5v-113h225v-139h-225v-326h-271v326h-131v139h131v113h-131v184h131v604h328zM408 762h16q96 0 142 45.5t46 155.5q0 88 -35.5 136t-121.5 48h-47v-385z" />
    <glyph glyph-name="uni20B6" unicode="&#x20c1;" horiz-adv-x="886" 
d="M465 1366q78 0 127.5 -8t101.5 -37q91 -52 139 -150t48 -210q0 -200 -116 -291.5t-357 -91.5v-113h225v-139h-225v-326h-271v326h-131v139h131v113h-131v184h131v604h328zM408 762h16q96 0 142 45.5t46 155.5q0 88 -35.5 136t-121.5 48h-47v-385z" />
    <glyph glyph-name="uni20B6" unicode="&#x20c0;" horiz-adv-x="886" 
d="M465 1366q78 0 127.5 -8t101.5 -37q91 -52 139 -150t48 -210q0 -200 -116 -291.5t-357 -91.5v-113h225v-139h-225v-326h-271v326h-131v139h131v113h-131v184h131v604h328zM408 762h16q96 0 142 45.5t46 155.5q0 88 -35.5 136t-121.5 48h-47v-385z" />
    <glyph glyph-name="uni20B6" unicode="&#x20bf;" horiz-adv-x="886" 
d="M465 1366q78 0 127.5 -8t101.5 -37q91 -52 139 -150t48 -210q0 -200 -116 -291.5t-357 -91.5v-113h225v-139h-225v-326h-271v326h-131v139h131v113h-131v184h131v604h328zM408 762h16q96 0 142 45.5t46 155.5q0 88 -35.5 136t-121.5 48h-47v-385z" />
    <glyph glyph-name="uni20B6" unicode="&#x20be;" horiz-adv-x="886" 
d="M465 1366q78 0 127.5 -8t101.5 -37q91 -52 139 -150t48 -210q0 -200 -116 -291.5t-357 -91.5v-113h225v-139h-225v-326h-271v326h-131v139h131v113h-131v184h131v604h328zM408 762h16q96 0 142 45.5t46 155.5q0 88 -35.5 136t-121.5 48h-47v-385z" />
    <glyph glyph-name="uni20B6" unicode="&#x20bd;" horiz-adv-x="886" 
d="M465 1366q78 0 127.5 -8t101.5 -37q91 -52 139 -150t48 -210q0 -200 -116 -291.5t-357 -91.5v-113h225v-139h-225v-326h-271v326h-131v139h131v113h-131v184h131v604h328zM408 762h16q96 0 142 45.5t46 155.5q0 88 -35.5 136t-121.5 48h-47v-385z" />
    <glyph glyph-name="uni20B6" unicode="&#x20bc;" horiz-adv-x="886" 
d="M465 1366q78 0 127.5 -8t101.5 -37q91 -52 139 -150t48 -210q0 -200 -116 -291.5t-357 -91.5v-113h225v-139h-225v-326h-271v326h-131v139h131v113h-131v184h131v604h328zM408 762h16q96 0 142 45.5t46 155.5q0 88 -35.5 136t-121.5 48h-47v-385z" />
    <glyph glyph-name="uni20B6" unicode="&#x20bb;" horiz-adv-x="886" 
d="M465 1366q78 0 127.5 -8t101.5 -37q91 -52 139 -150t48 -210q0 -200 -116 -291.5t-357 -91.5v-113h225v-139h-225v-326h-271v326h-131v139h131v113h-131v184h131v604h328zM408 762h16q96 0 142 45.5t46 155.5q0 88 -35.5 136t-121.5 48h-47v-385z" />
    <glyph glyph-name="uni20B6" unicode="&#x20ba;" horiz-adv-x="886" 
d="M465 1366q78 0 127.5 -8t101.5 -37q91 -52 139 -150t48 -210q0 -200 -116 -291.5t-357 -91.5v-113h225v-139h-225v-326h-271v326h-131v139h131v113h-131v184h131v604h328zM408 762h16q96 0 142 45.5t46 155.5q0 88 -35.5 136t-121.5 48h-47v-385z" />
    <glyph glyph-name="uni20B6" unicode="&#x20b9;" horiz-adv-x="886" 
d="M465 1366q78 0 127.5 -8t101.5 -37q91 -52 139 -150t48 -210q0 -200 -116 -291.5t-357 -91.5v-113h225v-139h-225v-326h-271v326h-131v139h131v113h-131v184h131v604h328zM408 762h16q96 0 142 45.5t46 155.5q0 88 -35.5 136t-121.5 48h-47v-385z" />
    <glyph glyph-name="uni20B6" unicode="&#x20b7;" horiz-adv-x="886" 
d="M465 1366q78 0 127.5 -8t101.5 -37q91 -52 139 -150t48 -210q0 -200 -116 -291.5t-357 -91.5v-113h225v-139h-225v-326h-271v326h-131v139h131v113h-131v184h131v604h328zM408 762h16q96 0 142 45.5t46 155.5q0 88 -35.5 136t-121.5 48h-47v-385z" />
    <glyph glyph-name="uni20B8" unicode="&#x20b8;" horiz-adv-x="886" 
d="M791 850h-213v-850h-271v850h-211v229h695v-229zM791 1178h-695v188h695v-188z" />
    <glyph glyph-name="afii61352" unicode="&#x2116;" horiz-adv-x="1632" 
d="M952 0h-254l-336 823q15 -77 15 -155v-668h-271v1366h256l336 -825q-20 102 -20 184v641h274v-1366zM1559 1065q0 -52 -8 -98t-27.5 -87.5t-48.5 -71.5t-73 -47.5t-99 -17.5q-67 0 -118.5 27t-82 73t-45.5 102t-15 120q0 63 15 119t44.5 102t81 73t117.5 27
q70 0 121.5 -25.5t81 -71.5t43 -101.5t13.5 -122.5zM1536 465h-457v164h457v-164zM1356 1065q0 19 -2 39.5t-7 48.5t-17 46t-30 18t-31 -17.5t-18 -45.5t-6.5 -48.5t-1.5 -40.5t1.5 -40.5t6.5 -48.5t18 -45.5t31 -17.5t30 18t17 46t7 48.5t2 39.5z" />
    <glyph glyph-name="uni2117" unicode="&#x2117;" horiz-adv-x="1587" 
d="M1503 682q0 -292 -207 -502q-208 -211 -503 -211q-296 0 -504 211q-207 210 -207 502t207 502q208 211 504 211q295 0 503 -211q207 -210 207 -502zM793 1272q-225 0 -387 -156q-91 -88 -138 -201t-47 -231q0 -119 47 -232.5t138 -201.5q162 -156 387 -156t387 156
q91 88 137.5 201.5t46.5 232.5q0 118 -46.5 231t-137.5 201q-162 156 -387 156zM596 1096h201q149 0 215 -64q63 -63 63 -178q0 -118 -61 -174q-62 -62 -195 -62h-39v-321h-184v799zM780 758h13q59 0 81 24q27 27 27 78q0 52 -22 74t-70 22h-29v-198z" />
    <glyph glyph-name="trademark" unicode="&#x2122;" horiz-adv-x="1232" 
d="M1212 588h-182l-35 471l-92 -471h-139l-100 461l-23 -461h-190l73 778h230l75 -416l62 416h233zM432 1210h-131v-622h-178v622h-129v156h438v-156z" />
    <glyph glyph-name="partialdiff" unicode="&#x2202;" 
d="M117 1139l33 223q180 -19 323.5 -68t259.5 -149q129 -111 194.5 -266.5t65.5 -331.5q0 -117 -32 -218.5t-92.5 -179.5t-157 -122.5t-217.5 -44.5q-196 0 -335 136t-139 331q0 183 120.5 309.5t303.5 126.5q154 0 254 -97q-52 112 -145 189.5t-200.5 114t-235.5 47.5z
M717 444q0 97 -61.5 162.5t-157.5 65.5q-92 0 -152.5 -67.5t-60.5 -160.5q0 -97 59.5 -165t155.5 -68q95 0 156 68.5t61 164.5z" />
    <glyph glyph-name="product" unicode="&#x220f;" horiz-adv-x="1495" 
d="M1415 -512h-592v229h164v1590h-479v-1590h162v-229h-588v229h170v1590h-170v229h1333v-229h-168v-1590h168v-229z" />
    <glyph glyph-name="summation" unicode="&#x2211;" horiz-adv-x="1366" 
d="M1284 -512h-1241v256l500 803l-500 733v256h1223v-502h-230l-26 273h-678l512 -760l-512 -830h696l16 279h240v-508z" />
    <glyph glyph-name="minus" unicode="&#x2212;" 
d="M956 578h-888v235h888v-235z" />
    <glyph glyph-name="uni2215" unicode="&#x2215;" horiz-adv-x="966" 
d="M920 1493l-752 -1888h-229l757 1888h224z" />
    <glyph glyph-name="uni2219" unicode="&#x2219;" horiz-adv-x="581" 
d="M498 684q0 -86 -60.5 -146.5t-146.5 -60.5t-146.5 60.5t-60.5 146.5t60.5 146.5t146.5 60.5t146.5 -60.5t60.5 -146.5z" />
    <glyph glyph-name="radical" unicode="&#x221a;" horiz-adv-x="1366" 
d="M1366 1462h-369l-348 -1462h-338l-121 559h-190v229h403l39 -180q24 -117 31 -297h21q19 279 96 604l184 779h592v-232z" />
    <glyph glyph-name="infinity" unicode="&#x221e;" horiz-adv-x="1366" 
d="M1331 696q0 -145 -93 -239.5t-237 -94.5q-174 0 -313 166q-145 -166 -321 -166q-146 0 -239 94t-93 240q0 145 92.5 237.5t237.5 92.5q94 0 169 -42.5t144 -121.5q137 164 319 164q147 0 240.5 -92t93.5 -238zM1067 696q0 42 -33.5 71.5t-75.5 29.5q-78 0 -149 -103
q23 -30 41 -49.5t47.5 -36t60.5 -16.5q45 0 77 29.5t32 74.5zM557 694q-23 30 -41 49.5t-47.5 36.5t-60.5 17q-44 0 -76.5 -30t-32.5 -73t32.5 -72.5t76.5 -29.5q76 0 149 102z" />
    <glyph glyph-name="integral" unicode="&#x222b;" 
d="M920 1516l-48 -230q-71 23 -112 23q-117 0 -117 -146v-1126q0 -19 1 -59t1 -60q0 -100 -14 -176.5t-60 -134.5q-92 -119 -280 -119q-85 0 -187 20l46 230q71 -23 114 -23q33 0 55.5 11.5t34.5 27t18.5 43t7.5 48t1 53.5q0 203 -1 608.5t-1 609.5q0 132 22 205
q32 110 122 162.5t212 52.5q83 0 185 -20z" />
    <glyph glyph-name="approxequal" unicode="&#x2248;" 
d="M864 1073l146 -84q-28 -61 -54.5 -103.5t-65 -83.5t-90 -62t-114.5 -21q-67 0 -189.5 52t-189.5 52q-57 0 -88.5 -32t-62.5 -95l-142 92q20 51 37.5 86.5t45 75t57.5 63.5t74 40t96 16q71 0 197.5 -51t191.5 -51q57 0 87 24.5t64 81.5zM864 664l146 -84
q-28 -61 -54.5 -104t-65 -84t-90 -62t-114.5 -21q-67 0 -189.5 52.5t-189.5 52.5q-57 0 -88.5 -32t-62.5 -95l-142 92q21 51 37.5 85.5t44 74.5t57.5 64t73.5 40t95.5 16q70 0 197.5 -51t193.5 -51q56 0 86.5 25t64.5 82z" />
    <glyph glyph-name="notequal" unicode="&#x2260;" 
d="M956 360h-493l-101 -200h-202l98 200h-188v230h292l72 141h-364v230h469l112 221h201l-111 -221h215v-230h-317l-72 -141h389v-230z" />
    <glyph glyph-name="lessequal" unicode="&#x2264;" 
d="M956 297l-888 424v215l888 424v-240l-618 -293l616 -290zM956 10h-888v230h888v-230z" />
    <glyph glyph-name="greaterequal" unicode="&#x2265;" 
d="M956 721l-888 -424v240l618 292l-616 291l-2 240l888 -424v-215zM956 10h-888v230h888v-230z" />
    <glyph glyph-name="dotmath" unicode="&#x22c5;" horiz-adv-x="581" 
d="M498 684q0 -86 -60.5 -146.5t-146.5 -60.5t-146.5 60.5t-60.5 146.5t60.5 146.5t146.5 60.5t146.5 -60.5t60.5 -146.5z" />
    <glyph glyph-name="lozenge" unicode="&#x25ca;" horiz-adv-x="1366" 
d="M1214 684l-532 -737l-530 737l530 735zM915 684l-233 320l-231 -320l231 -319z" />
    <glyph glyph-name="openbullet" unicode="&#x25e6;" 
d="M825 1047q0 -128 -92.5 -219t-220.5 -91q-130 0 -221.5 90t-91.5 220q0 128 92.5 217.5t220.5 89.5t220.5 -89.5t92.5 -217.5zM672 1044q0 66 -47 112t-113 46q-65 0 -112.5 -45t-47.5 -110q0 -66 47 -113t113 -47q65 0 112.5 46.5t47.5 110.5z" />
    <glyph glyph-name="uniF400" unicode="&#xf400;" horiz-adv-x="4" 
d="M-162 1309l-235 -250l-123 74l174 262z" />
    <glyph glyph-name="uniF401" unicode="&#xf401;" horiz-adv-x="4" 
d="M-213 1733l-236 -250l-122 73l174 263z" />
    <glyph glyph-name="uniF406" unicode="&#xf406;" 
d="M643 1716h135q-8 -110 -78 -180q-39 -39 -83 -52.5t-105 -13.5t-105 13.5t-83 52.5q-68 68 -78 180h135q6 -35 33 -59q31 -27 98 -27t98 27q27 24 33 59z" />
    <glyph glyph-name="uniF407" unicode="&#xf407;" 
d="M686 -164l-205 -256l-125 72l156 262z" />
    <glyph glyph-name="uniF408" unicode="&#xf408;" 
d="M774 1595l-110 -112l-154 127l-160 -127l-100 127l260 205z" />
    <glyph glyph-name="uniF409" unicode="&#xf409;" horiz-adv-x="452" 
d="M406 -94l-173 -344h-143l105 344h211z" />
    <glyph glyph-name="uniF40A" unicode="&#xf40a;" horiz-adv-x="442" 
d="M395 1366l-174 -405h-143l104 405h213z" />
    <glyph glyph-name="uniF40B" unicode="&#xf40b;" 
d="M649 1618q0 -55 -40.5 -95t-96.5 -40t-95.5 39.5t-39.5 95.5q0 57 39 97t96 40t97 -40t40 -97z" />
    <glyph glyph-name="uniF40C" unicode="&#xf40c;" 
d="M315 1659q0 82 57.5 139t139.5 57t139.5 -57t57.5 -139t-57.5 -139.5t-139.5 -57.5t-139.5 57.5t-57.5 139.5zM428 1659q0 -37 23.5 -60.5t60.5 -23.5t60.5 23.5t23.5 60.5t-23.5 60.5t-60.5 23.5t-60.5 -23.5t-23.5 -60.5z" />
    <glyph glyph-name="uniF40D" unicode="&#xf40d;" 
d="M672 1733l135 -9q-6 -38 -12 -65.5t-19.5 -63.5t-31 -58t-47.5 -38t-68 -16q-43 0 -116.5 31.5t-104.5 31.5q-48 0 -58 -57h-133q4 40 9 68.5t17.5 64t30 57t47.5 37t70 15.5q45 0 113 -35t102 -35q16 0 27 3.5t17.5 12t9.5 15t6.5 21t5.5 20.5z" />
    <glyph glyph-name="uniF40E" unicode="&#xf40e;" 
d="M664 -199l-29 -145q-38 -35 -96 -35q-69 0 -124 45t-55 113q0 122 152 221h121q-33 -22 -54 -40.5t-41 -49t-20 -62.5q0 -34 24 -57.5t58 -23.5q37 0 64 34z" />
    <glyph glyph-name="uniF4C6" unicode="&#xf4c6;" horiz-adv-x="989" 
d="M612 1366h271v-1475q0 -9 -0.5 -16t-1 -11.5t-3.5 -13.5l-5 -15t-8 -22.5t-11 -29.5q-8 -22 -20 -59q-11 -34 -15.5 -48.5t-15.5 -35t-16 -26.5t-23.5 -16.5t-30 -12t-44 -4.5t-57 -3h-77.5q-28 0 -48 0.5t-37.5 2.5t-26.5 3t-23 6.5t-18.5 7.5t-22.5 10.5t-25 12.5v270
q3 -4 13 -16t13.5 -15t12.5 -12t14.5 -11.5t15.5 -8t20 -7.5t24 -3.5t31 -1.5h116q0 10 -1 29.5t-1 29.5v723q-88 -23 -176 -23q-141 0 -225 60q-32 22 -55 51.5t-35 58.5t-19 67t-8.5 67.5t-1.5 70.5v416h270v-391q0 -80 33 -113q31 -31 105 -31q60 0 112 19v516z" />
    <glyph glyph-name="uniF4C7" unicode="&#xf4c7;" horiz-adv-x="792" 
d="M61 915h250v-258q0 -48 21 -69q23 -19 59 -19q27 0 64 13v333h256v-1034q0 -163 -80 -239q-69 -64 -189 -64q-71 0 -139 23v225q25 -19 57 -19q37 0 60 21q35 31 35 104v445q-65 -21 -129 -21q-129 0 -195 66q-31 31 -47.5 72.5t-19.5 72t-3 72.5v276z" />
    <glyph glyph-name="uniF4CC" unicode="&#xf4cc;" horiz-adv-x="935" 
d="M16 1366h291l107 -332q38 -115 57 -235q36 170 59 241l103 326h287l-476 -1366h-270l156 471zM731 1733l-235 -250l-123 73l174 263z" />
    <glyph glyph-name="uniF4CD" unicode="&#xf4cd;" horiz-adv-x="749" 
d="M756 915l-385 -1337h-252l141 440l-266 897h256l88 -333q33 -126 41 -189l121 522h256zM637 1309l-236 -250l-122 74l174 262z" />
    <glyph glyph-name="dollar.fitted" unicode="&#xf5f5;" horiz-adv-x="876" 
d="M797 1227l-150 -162q-95 102 -207 102q-70 0 -111.5 -36t-41.5 -105q0 -37 10.5 -65t33 -47.5t42.5 -31t55 -26.5q167 -72 230 -111q144 -90 179 -228q13 -51 13 -111q0 -159 -92.5 -278.5t-241.5 -150.5v-163h-147v163q-109 18 -186 53t-152 107l127 201
q68 -65 130 -100t136 -35q78 0 125 47t47 125q0 32 -10.5 58.5t-25 44t-44 37t-51.5 30.5t-64 30q-54 25 -82.5 39t-74.5 40.5t-71.5 47.5t-57 54.5t-47.5 68t-27.5 81t-11.5 100.5q0 159 91 255t249 125v152h147v-152q93 -18 157 -52.5t124 -106.5z" />
    <glyph glyph-name="Euro.fitted" unicode="&#xf5f6;" horiz-adv-x="944" 
d="M874 311v-282q-77 -43 -186 -43q-102 0 -179 28t-144 95q-144 142 -177 399h-170l60 139h106v113h-166l60 139h125q18 100 64.5 189.5t109.5 154.5q137 137 328 137q86 0 169 -39v-278q-64 59 -149 59q-89 0 -150 -61q-57 -57 -83 -162h395l-60 -139h-362q-2 -18 -2 -55
q0 -40 2 -58h321l-59 -139h-252q9 -54 32.5 -110t51.5 -87q58 -65 154 -65q91 0 161 65z" />
    <glyph glyph-name="cent.fitted" unicode="&#xf5f7;" horiz-adv-x="538" 
d="M498 467v-229q-42 -19 -99 -35v-156h-147v164q-63 23 -109 68.5t-71.5 106t-37 126t-11.5 139.5q0 77 10.5 148.5t34.5 144t71 127t113 78.5v188h147v-176q34 0 99 -26v-230q-39 27 -68 27q-41 0 -71.5 -27.5t-45.5 -71t-21.5 -84.5t-6.5 -79t6 -73.5t20 -72t42.5 -58.5
t68.5 -22q38 0 76 23z" />
    <glyph glyph-name="sterling.fitted" unicode="&#xf5f8;" horiz-adv-x="952" 
d="M877 1053l-230 -68q-4 58 -9.5 89t-21.5 52q-27 39 -81 39q-59 0 -91 -37q-36 -40 -36 -135q0 -83 34 -239h230v-164h-209q14 -63 14 -101q0 -121 -84 -221q39 0 69.5 -11.5t72.5 -35.5q64 -33 120 -33q75 0 115 72l139 -113q-26 -77 -92 -127q-58 -43 -149 -43
q-89 0 -187 37q-107 43 -180 43q-79 0 -156 -57l-108 147q80 62 160 86q36 73 36 177q0 105 -30 180h-154v164h123q-35 123 -35 239q0 179 105 287q104 106 290 106q163 0 252 -96q38 -42 63 -107t30 -130z" />
    <glyph glyph-name="yen.fitted" unicode="&#xf5f9;" horiz-adv-x="974" 
d="M944 1366l-207 -467h166v-139h-227l-49 -113h276v-139h-276v-508h-271v508h-286v139h286l-49 113h-237v139h172l-213 467h297l137 -358q16 -42 24 -80q29 89 156 438h301z" />
    <glyph glyph-name="florin.fitted" unicode="&#xf5fa;" horiz-adv-x="874" 
d="M860 1491l-47 -242q-26 13 -51 13q-15 0 -27.5 -4.5t-21 -15t-14.5 -19t-11 -26t-7.5 -26.5t-6 -29t-4.5 -26l-39 -201h143l-26 -139h-144l-108 -536q-5 -23 -13 -67t-13.5 -71t-15.5 -69t-19.5 -68.5t-25 -62t-32.5 -58t-41 -47t-52.5 -38t-65 -22.5t-79.5 -9
q-51 0 -125 18l47 242q30 -15 56 -15q14 0 25.5 4t20.5 13.5t15 16.5t12 23.5t8 23t7 26t6 22.5q14 62 33 156l102 518h-135l27 139h135q36 170 53 263q11 58 18.5 91t27.5 78.5t48 77.5q41 44 98.5 67.5t118.5 23.5q56 0 123 -25z" />
    <glyph glyph-name="uni20B4.fitted" unicode="&#xf5fb;" horiz-adv-x="890" 
d="M178 1057v264q66 29 111 41q79 22 174 22q143 0 223 -67q88 -75 88 -209q0 -124 -69 -209h143v-139h-215l-94 -113h309v-139h-406q-69 -79 -69 -158q0 -62 45 -94q39 -25 104 -25q57 0 119 23q49 19 92 51v-258q-1 -1 -18.5 -9t-46 -19t-52.5 -17q-77 -22 -157 -22
q-153 0 -248 75q-102 79 -102 234q0 126 71 219h-139v139h223l94 113h-317v139h410q57 55 57 121q0 59 -35 92t-98 33q-55 0 -115 -31q-51 -26 -82 -57z" />
    <glyph glyph-name="uni20B6.fitted" unicode="&#xf5fc;" horiz-adv-x="942" 
d="M502 1366q78 0 127.5 -8t101.5 -37q91 -52 139 -150t48 -210q0 -200 -116.5 -291.5t-357.5 -91.5v-113h226v-139h-226v-326h-270v326h-131v139h131v113h-131v184h131v604h328zM444 762h17q96 0 142 45.5t46 155.5q0 88 -35.5 136t-121.5 48h-48v-385z" />
    <glyph glyph-name="uni20B8.fitted" unicode="&#xf5fd;" horiz-adv-x="759" 
d="M727 850h-213v-850h-270v850h-211v229h694v-229zM727 1178h-694v188h694v-188z" />
    <glyph glyph-name="uniF639" unicode="&#xf639;" horiz-adv-x="856" 
d="M811 688q0 -60 -3.5 -118.5t-14.5 -131t-28.5 -135.5t-47.5 -124.5t-69 -105t-96.5 -70t-127.5 -26.5q-69 0 -125.5 27t-95 71t-68 106.5t-46 125.5t-27 136t-14 131.5t-3.5 117.5q0 58 4 116.5t15.5 129t29.5 132t48.5 121t70 101.5t96.5 68t125 26q67 0 122.5 -26.5
t93.5 -69.5t67.5 -103.5t46.5 -122.5t28 -133t15 -128.5t4 -114.5zM549 614v123q0 408 -123 408q-28 0 -50 -22.5t-34.5 -63t-20.5 -81t-11 -92.5t-4 -79t-1 -59v-144q0 -35 1.5 -71t8.5 -95t18.5 -102.5t35.5 -76t57 -32.5q29 0 51 22t34.5 61.5t21 78.5t11.5 89.5t4 77
t1 58.5z" />
    <glyph glyph-name="uniF63A" unicode="&#xf63a;" horiz-adv-x="837" 
d="M313 891h-247q-5 63 -5 74q0 101 16.5 174.5t56.5 131t111 86.5t175 29q173 0 269.5 -88.5t96.5 -259.5q0 -24 -2.5 -48.5t-5 -44t-10 -45t-11.5 -40.5t-15.5 -42.5t-16 -38.5t-19.5 -41l-19.5 -39t-22 -42.5t-21.5 -40.5l-199 -380h318v-236h-717l317 584q49 89 76 143
t58.5 144.5t31.5 154.5q0 29 -4.5 56t-15 55t-33 44.5t-53.5 16.5q-111 0 -111 -223q0 -55 2 -84z" />
    <glyph glyph-name="uniF63B" unicode="&#xf63b;" horiz-adv-x="845" 
d="M96 981v14q0 149 37 232q36 82 112 120.5t173 38.5q162 0 253 -95.5t91 -258.5q0 -117 -37.5 -200t-132.5 -125q211 -66 211 -328q0 -186 -108 -294t-294 -108q-177 0 -269.5 101.5t-92.5 279.5h254q0 -6 -1 -19.5t-1 -19.5q0 -55 26 -92t78 -37q115 0 115 213
q0 118 -42.5 157.5t-162.5 39.5v229q57 0 92.5 6.5t64 25.5t40.5 55t12 94q0 37 -6 68t-28.5 58t-59.5 27q-25 0 -43 -13.5t-27 -31.5t-13.5 -46.5t-5.5 -46.5t-1 -44h-234z" />
    <glyph glyph-name="uniF63C" unicode="&#xf63c;" horiz-adv-x="823" 
d="M784 322h-110v-322h-262v322h-396v210l363 834h295v-811h110v-233zM412 555v500l-201 -500h201z" />
    <glyph glyph-name="uniF63D" unicode="&#xf63d;" horiz-adv-x="800" 
d="M381 1133l-37 -224q127 -12 193 -43q77 -35 127.5 -102t70 -142t19.5 -163q0 -224 -114.5 -353t-336.5 -129q-124 0 -262 64l45 235q82 -65 168 -65q102 0 156.5 73t54.5 177q0 122 -73.5 181.5t-198.5 59.5q-49 0 -107 -10l107 674h522v-233h-334z" />
    <glyph glyph-name="uniF63E" unicode="&#xf63e;" horiz-adv-x="825" 
d="M602 1366l-258 -539q79 76 170 76q76 0 133 -41.5t87 -108t44.5 -135.5t14.5 -139q0 -75 -12 -144t-40 -135t-70 -115t-107 -78.5t-146 -29.5q-101 0 -176.5 40.5t-119 110t-64.5 152.5t-21 179q0 68 8.5 136t29 139.5t38.5 126.5t53 133.5t55 121t63 129.5t60 121h258z
M528 451q0 30 -4.5 62t-14.5 68.5t-32.5 59.5t-54.5 23q-34 0 -59.5 -25.5t-37.5 -65t-17 -75t-5 -68.5q0 -28 5.5 -61.5t16.5 -71t34 -62t53 -24.5q37 0 62 25.5t35.5 67.5t14.5 76.5t4 70.5z" />
    <glyph glyph-name="uniF63F" unicode="&#xf63f;" horiz-adv-x="854" 
d="M842 1366l-512 -1366h-281l424 1130h-367v236h736z" />
    <glyph glyph-name="uniF640" unicode="&#xf640;" horiz-adv-x="866" 
d="M825 377q0 -172 -110 -286t-281 -114t-281 114t-110 286q0 162 78 258q20 25 48.5 44.5t49 29.5t60.5 26q-92 39 -139.5 114.5t-47.5 176.5q0 152 94.5 256t245.5 104q152 0 246 -103.5t94 -256.5q0 -213 -184 -291q56 -23 92 -44t65 -56q80 -95 80 -258zM506 1028
q0 23 -3 45t-10.5 46.5t-24 39.5t-40.5 15t-40.5 -15t-24 -39.5t-10.5 -46t-3 -43.5q0 -23 3 -46t10.5 -50t24 -43.5t40.5 -16.5q78 0 78 154zM547 408q0 40 -9.5 81.5t-37 78t-68.5 36.5q-33 0 -57 -20t-36 -52t-17 -62.5t-5 -61.5t5 -62t17 -63t36 -52t57 -20
q41 0 68.5 36.5t37 78.5t9.5 82z" />
    <glyph glyph-name="uniF641" unicode="&#xf641;" horiz-adv-x="825" 
d="M221 0l260 537q-87 -76 -170 -76q-61 0 -110.5 28t-80 72t-51 102t-28.5 113.5t-8 110.5q0 75 12 144t40 135t70.5 114t108 77t146.5 29t146 -26.5t108 -71.5t71.5 -107t40.5 -130t12 -144q0 -267 -145 -571q-6 -13 -20.5 -41t-20.5 -41l-121 -254h-260zM520 936
q0 28 -5 61t-15.5 70t-33 61.5t-52.5 24.5q-36 0 -60.5 -25.5t-35.5 -67t-15 -76t-4 -69.5q0 -31 4 -63t14.5 -69t33.5 -60t55 -23q33 0 57 26t35.5 66.5t16.5 76t5 67.5z" />
    <glyph glyph-name="uniF6BA" unicode="&#xf6ba;" horiz-adv-x="548" 
d="M446 582h-344v221h344v-221z" />
    <glyph glyph-name="uniF6BB" unicode="&#xf6bb;" horiz-adv-x="1175" 
d="M1032 590h-889v205h889v-205z" />
    <glyph glyph-name="uniF6BC" unicode="&#xf6bc;" horiz-adv-x="1679" 
d="M1536 795v-205h-1393v205h1393z" />
    <glyph glyph-name="uniF6C3" unicode="&#xf6c3;" horiz-adv-x="452" 
d="M406 -94l-189 -373h-143l121 373h211z" />
    <glyph glyph-name="uniF6C9" unicode="&#xf6c9;" 
d="M774 1733l-235 -250l-123 73l174 263z" />
    <glyph glyph-name="uniF6CA" unicode="&#xf6ca;" 
d="M774 1688l-260 -205l-264 219l112 113l152 -127l160 127z" />
    <glyph glyph-name="uniF6CB" unicode="&#xf6cb;" horiz-adv-x="958" 
d="M788 1618q0 -56 -40 -95.5t-95 -39.5t-95 39.5t-40 95.5t40 95.5t95 39.5t95 -39.5t40 -95.5zM440 1618q0 -56 -40 -95.5t-95 -39.5t-95 39.5t-40 95.5t40 95.5t95 39.5t95 -39.5t40 -95.5z" />
    <glyph glyph-name="uniF6CE" unicode="&#xf6ce;" 
d="M610 1556l-125 -73l-233 250l184 86z" />
    <glyph glyph-name="uniF6CF" unicode="&#xf6cf;" 
d="M866 1733l-174 -250l-117 73l123 263zM586 1733l-176 -250l-117 73l123 263z" />
    <glyph glyph-name="uniF6D0" unicode="&#xf6d0;" 
d="M805 1511h-586v164h586v-164z" />
    <glyph glyph-name="uniF6D1" unicode="&#xf6d1;" horiz-adv-x="868" 
d="M569 1745l203 -66q-30 -113 -119 -174q-84 -55 -219 -55t-219 55q-89 61 -119 174l203 66q12 -58 45 -84q33 -29 90 -29t90 29q33 26 45 84z" />
    <glyph glyph-name="uniF6D4" unicode="&#xf6d4;" horiz-adv-x="778" 
d="M500 1315l182 -60q-22 -99 -104 -159q-73 -52 -189 -52q-115 0 -188 52q-83 61 -105 159l183 60q4 -55 34 -82q25 -25 76 -25t76 25q31 28 35 82z" />
    <glyph glyph-name="uniF6DC" unicode="&#xf6dc;" horiz-adv-x="487" 
d="M424 0h-262v1128h-131v238h393v-1366z" />
    <glyph glyph-name="uniF6DE" unicode="&#xf6de;" horiz-adv-x="1259" 
d="M1151 604v-205h-1045v205h1045z" />
    <glyph glyph-name="nbspace" horiz-adv-x="477" 
 />
    <glyph glyph-name="hyphenminus" horiz-adv-x="548" 
d="M446 391h-344v221h344v-221z" />
    <glyph glyph-name="dotlessi1" horiz-adv-x="421" 
d="M338 0h-256v915h256v-915z" />
    </font>
</defs>
</svg>
