<?xml version="1.0" standalone="no"?>
<!DOCTYPE svg PUBLIC "-//W3C//DTD SVG 1.1//EN" "http://www.w3.org/Graphics/SVG/1.1/DTD/svg11.dtd" >
<svg xmlns="http://www.w3.org/2000/svg" xmlns:xlink="http://www.w3.org/1999/xlink" version="1.1">
<metadata>
Created by FontForge 20170731 at Sat Jul 11 17:22:11 2020
 By Aleksey,,,
Copyright (c) 1995 ParaGraph Intl., (c) 1998 ParaType Inc., ParaType Ltd. All rights reserved.
</metadata>
<defs>
<font id="FuturaPTCond-ExtraBoldObl" horiz-adv-x="1024" >
  <font-face 
    font-family="Futura PT Cond Extra Bold Ital"
    font-weight="400"
    font-style="italic"
    font-stretch="condensed"
    units-per-em="2048"
    panose-1="2 11 10 6 2 2 4 9 2 3"
    ascent="1563"
    descent="-485"
    x-height="956"
    cap-height="1366"
    bbox="-557 -512 2097 1905"
    underline-thickness="102"
    underline-position="-307"
    slope="-7"
    unicode-range="U+0020-FB02"
  />
<missing-glyph horiz-adv-x="477" 
 />
    <glyph glyph-name="afii10017.var.accented" unicode="&#x410;`" horiz-adv-x="1073" 
d="M1006 0h-375l-6 174h-244l-51 -174h-377l491 1366h445zM614 625v178q0 46 3.5 131t3.5 104q-3 -13 -20 -84t-28 -108q-14 -48 -50 -179t-58 -202h153q-4 106 -4 160zM940 1778l-215 -303h-201l133 303h283z" />
    <glyph glyph-name="afii10022.var.accented" unicode="&#x415;`" horiz-adv-x="829" 
d="M881 1366l-41 -322h-312l-24 -198h280l-39 -309h-278l-27 -209h312l-39 -328h-676l168 1366h676zM838 1778l-215 -303h-201l133 303h283z" />
    <glyph glyph-name="afii10026.var.accented" unicode="&#x418;`" horiz-adv-x="1140" 
d="M37 0l168 1366h348l-47 -379q-31 -252 -96 -461q88 209 188 400l236 440h323l-168 -1366h-348l45 365q24 202 76 438q-55 -160 -178 -389l-224 -414h-323zM952 1778l-215 -303h-200l133 303h282z" />
    <glyph glyph-name="afii10032.var.accented" unicode="&#x41e;`" horiz-adv-x="1142" 
d="M690 1391q176 0 287 -117q141 -148 141 -426q0 -197 -63 -399t-193 -330q-147 -144 -342 -144q-177 0 -299 127q-46 47 -76.5 103t-44 116.5t-18 109t-4.5 108.5q0 237 71 415t181 285q154 152 360 152zM645 1047q-36 0 -72 -39q-50 -54 -84 -187q-34 -131 -34 -284
q0 -148 45 -193q22 -22 53 -22q40 0 68 32q33 37 56.5 97.5t33.5 105.5q30 120 30 274q0 158 -45 197q-22 19 -51 19zM995 1778l-215 -303h-200l133 303h282z" />
    <glyph glyph-name="afii10037.var.accented" unicode="&#x423;`" 
d="M111 1366h376l48 -223q31 -137 34 -289q46 163 101 299l84 213h381l-652 -1366h-362l221 471zM895 1778l-215 -303h-201l133 303h283z" />
    <glyph glyph-name="afii10045.var.accented" unicode="&#x42b;`" horiz-adv-x="1538" 
d="M1380 0h-362l162 1366h374zM451 0h-414l168 1366h362l-61 -502h16q242 0 357 -112q106 -102 106 -269q0 -102 -35.5 -194t-97.5 -154q-137 -135 -401 -135zM469 569l-33 -272q42 -6 83.5 8t66.5 41q37 37 37 105q0 62 -41 94q-46 34 -113 24zM1151 1778l-215 -303h-201
l133 303h283z" />
    <glyph glyph-name="afii10047.var.accented" unicode="&#x42d;`" horiz-adv-x="1015" 
d="M82 59l22 396q30 -49 89 -90t135 -41q92 0 157 57q30 27 52 69.5t30 84.5h-309l39 309h307q-15 98 -74 151q-61 54 -155 54q-66 0 -125 -33q-47 -26 -90 -72l49 385q113 62 240 62q234 0 376 -142q77 -77 121.5 -200.5t44.5 -270.5q0 -177 -62.5 -359.5t-189.5 -301.5
q-77 -73 -167 -107.5t-207 -34.5q-82 0 -142 19.5t-141 64.5zM795 1778l-215 -303h-201l133 303h283z" />
    <glyph glyph-name="afii10048.var.accented" unicode="&#x42e;`" horiz-adv-x="1658" 
d="M506 870h141q24 110 76.5 206.5t122.5 166.5q151 148 356 148q180 0 291 -117q141 -148 141 -426q0 -127 -23.5 -253.5t-83.5 -258t-149 -219.5q-75 -75 -159 -108.5t-193 -33.5q-172 0 -281 109q-143 143 -143 465h-135l-68 -549h-362l168 1366h362zM1161 1047
q-35 0 -71 -39q-50 -54 -84 -187q-35 -134 -35 -284q0 -148 45 -193q22 -22 53 -22q40 0 68 32q33 37 56.5 97.5t33.5 105.5q30 120 30 274q0 158 -45 197q-22 19 -51 19zM1233 1778l-215 -303h-201l133 303h283z" />
    <glyph glyph-name="afii10049.var.accented" unicode="&#x42f;`" horiz-adv-x="1107" 
d="M0 0l317 551q-81 35 -129 102q-57 82 -57 209q0 111 35 201.5t94 150.5q83 85 211.5 118.5t300.5 33.5h352l-168 -1366h-362l39 301q24 180 37 246l-262 -547h-408zM684 733l39 326q-87 10 -143 -41q-58 -51 -58 -144q0 -61 39 -100q44 -41 111 -41h12zM1018 1778
l-215 -303h-201l133 303h283z" />
    <glyph glyph-name="afii10023.var.accented" unicode="&#x401;`" horiz-adv-x="829" 
d="M881 1366l-41 -322h-312l-24 -198h280l-39 -309h-278l-27 -209h312l-39 -328h-676l168 1366h676zM731 1735l-174 -254l-149 24l120 273zM422 1636q0 -5 -8 -37q-17 -42 -56.5 -69t-83.5 -27q-51 0 -84.5 33.5t-33.5 85.5q0 58 45 102.5t104 44.5q57 0 87 -37t30 -96z
M989 1651q0 -58 -45 -103t-104 -45q-51 0 -84 34t-33 85q0 59 43.5 103t103.5 44q51 0 85 -33.5t34 -84.5z" />
    <glyph glyph-name="afii10065.var.accented" unicode="&#x430;`" horiz-adv-x="1001" 
d="M981 956l-117 -956h-350q5 27 15.5 81.5t15.5 80.5q-51 -86 -114.5 -134t-151.5 -48q-67 0 -115 34.5t-72 91.5t-34.5 115t-10.5 121q0 137 29 262q16 67 42.5 128.5t67 118.5t99.5 91.5t129 34.5q81 0 125.5 -44t76.5 -128q1 25 4.5 75t4.5 76h356zM578 590q0 94 -58 94
q-34 0 -59.5 -35.5t-38 -88t-18 -97.5t-5.5 -78q0 -113 64 -113q33 0 58 38.5t36 95.5t16 103.5t5 80.5zM883 1389l-215 -304h-201l133 304h283z" />
    <glyph glyph-name="afii10070.var.accented" unicode="&#x435;`" horiz-adv-x="970" 
d="M545 322h340q-54 -164 -173 -253t-288 -89q-182 0 -279.5 104t-97.5 287q0 89 21.5 176t64.5 164t103 136t142.5 93.5t176.5 34.5q178 0 273.5 -114.5t95.5 -295.5q0 -49 -17 -162h-512q-2 -12 -2 -38q0 -109 66 -109q29 0 53 19t33 47zM424 594h162q0 4 1 12t1 12
q0 39 -17 68t-53 29q-41 0 -65 -37t-29 -84zM866 1389l-215 -304h-200l133 304h282z" />
    <glyph glyph-name="afii10074.var.accented" unicode="&#x438;`" horiz-adv-x="1032" 
d="M139 956h340l-33 -268q-12 -112 -45 -252q9 22 43 88.5t52 96.5l192 335h324l-117 -956h-340l31 256q7 57 45 264q-54 -124 -94 -192l-191 -328h-323zM899 1389l-215 -304h-201l133 304h283z" />
    <glyph glyph-name="afii10080.var.accented" unicode="&#x43e;`" horiz-adv-x="983" 
d="M553 977q168 0 268 -96q113 -108 113 -312q0 -136 -44.5 -259.5t-127.5 -203.5q-130 -126 -336 -126q-163 0 -260 90q-117 108 -117 319q0 94 20.5 177t53.5 140t55 86t45 52q137 133 330 133zM520 709q-26 0 -49 -23q-36 -36 -59 -123t-23 -164q0 -73 23 -116
q19 -35 53 -35q31 0 51 24q38 39 59 125t21 162q0 70 -23 115q-17 35 -53 35zM874 1389l-215 -304h-200l133 304h282z" />
    <glyph glyph-name="afii10085.var.accented" unicode="&#x443;`" horiz-adv-x="937" 
d="M997 956l-616 -1396h-361l226 479l-168 917h352q5 -40 14.5 -117t15 -125t10.5 -115t5 -124q0 -10 -1 -30.5t-1 -30.5q8 28 22.5 83t23.5 88.5t23.5 80t28.5 84.5l78 206h348zM842 1389l-215 -304h-201l133 304h283z" />
    <glyph glyph-name="afii10093.var.accented" unicode="&#x44b;`" horiz-adv-x="1421" 
d="M1282 0h-352l117 956h352zM449 616h100q180 0 268 -73t88 -205q0 -70 -24 -135.5t-68 -108.5q-98 -94 -285 -94h-508l117 956h352zM401 225h11q72 0 102 15q43 21 43 77q0 29 -18 50q-26 28 -105 28h-12zM1073 1389l-215 -304h-201l134 304h282z" />
    <glyph glyph-name="afii10095.var.accented" unicode="&#x44d;`" horiz-adv-x="796" 
d="M41 45l35 272q60 -67 153 -67q69 0 109 31q45 36 55 92h-219l27 213h211q-11 62 -54 92q-39 29 -104 29q-74 0 -139 -48l35 277q94 41 194 41q184 0 291 -111q113 -116 113 -331q0 -104 -36.5 -223.5t-121.5 -207.5q-66 -69 -141 -96.5t-170 -27.5q-141 0 -238 65z
M678 1389l-215 -304h-201l133 304h283z" />
    <glyph glyph-name="afii10096.var.accented" unicode="&#x44e;`" horiz-adv-x="1445" 
d="M444 627h113q36 153 156 250q122 100 295 100t276 -98q113 -111 113 -314q0 -140 -45.5 -263t-126.5 -202q-125 -120 -336 -120q-171 0 -266 100q-44 46 -72 117t-29 151h-114l-41 -348h-344l116 956h344zM983 709q-26 0 -49 -23q-36 -36 -59 -123t-23 -164
q0 -75 22 -116q19 -35 54 -35q31 0 51 24q38 39 59 125t21 162q0 70 -23 115q-18 35 -53 35zM1106 1389l-215 -304h-201l133 304h283z" />
    <glyph glyph-name="afii10097.var.accented" unicode="&#x44f;`" horiz-adv-x="978" 
d="M0 0l213 332q-61 21 -98 71q-45 62 -45 156q0 174 102 281q69 72 163 94t249 22h374l-116 -956h-353l25 209q8 65 21 149q-14 -36 -31 -70t-21 -44l-112 -244h-371zM553 512l22 195h-18q-73 0 -102 -25q-31 -27 -31 -76q0 -45 31 -69q32 -25 86 -25h12zM893 1389
l-215 -304h-201l133 304h283z" />
    <glyph glyph-name="afii10071.var.accented" unicode="&#x451;`" horiz-adv-x="970" 
d="M545 322h340q-54 -164 -173 -253t-288 -89q-182 0 -279.5 104t-97.5 287q0 89 21.5 176t64.5 164t103 136t142.5 93.5t176.5 34.5q178 0 273.5 -114.5t95.5 -295.5q0 -49 -17 -162h-512q-2 -12 -2 -38q0 -109 66 -109q29 0 53 19t33 47zM424 594h162q0 4 1 12t1 12
q0 39 -17 68t-53 29q-41 0 -65 -37t-29 -84zM696 1356l-186 -262l-129 32l131 269zM389 1247q0 -17 -10 -37q-15 -41 -54 -68.5t-83 -27.5q-51 0 -85 33.5t-34 85.5q0 59 44.5 103t104.5 44q57 0 87 -37t30 -96zM954 1262q0 -58 -45 -103t-104 -45q-50 0 -83.5 34t-33.5 85
q0 58 44.5 102.5t103.5 44.5q52 0 85 -33.5t33 -84.5z" />
    <glyph glyph-name="fi" unicode="fi" horiz-adv-x="1103" 
d="M721 1491l-41 -330q-35 35 -68 35q-19 0 -32 -9t-19.5 -25.5t-9 -30t-4.5 -33.5l-17 -142h125l-34 -286h-125l-82 -670h-351l82 670h-100l35 286h102q2 22 7 75t9 82t11 72t18 77.5t27 64.5q44 88 126.5 138.5t180.5 50.5q69 0 160 -25zM1153 1278q0 -91 -70 -161
t-161 -70q-76 0 -128.5 52.5t-52.5 129.5q0 92 70 161.5t162 69.5q78 0 129 -52t51 -130zM1083 956l-116 -956h-351l119 956h348z" />
    <glyph glyph-name="fl" unicode="fl" horiz-adv-x="1103" 
d="M721 1491l-41 -330q-35 35 -68 35q-19 0 -32 -9t-19.5 -25.5t-9 -30t-4.5 -33.5l-17 -142h125l-34 -286h-125l-82 -670h-351l82 670h-100l35 286h102q2 22 7 75t9 82t11 72t18 77.5t27 64.5q44 88 126.5 138.5t180.5 50.5q69 0 160 -25zM1151 1493l-184 -1493h-351
l185 1493h350z" />
    <glyph glyph-name=".notdef" horiz-adv-x="477" 
 />
    <glyph glyph-name=".null" horiz-adv-x="0" 
 />
    <glyph glyph-name="nonmarkingreturn" horiz-adv-x="682" 
 />
    <glyph glyph-name="space" unicode=" " horiz-adv-x="477" 
 />
    <glyph glyph-name="exclam" unicode="!" horiz-adv-x="643" 
d="M621 1413l-111 -921h-354l110 921h355zM496 211q0 -91 -70.5 -161t-161.5 -70q-77 0 -127.5 52.5t-50.5 129.5q0 93 68.5 163t160.5 70q79 0 130 -52.5t51 -131.5z" />
    <glyph glyph-name="quotedbl" unicode="&#x22;" horiz-adv-x="845" 
d="M864 1366l-51 -549h-195l-49 549h295zM479 1366l-49 -549h-197l-49 549h295z" />
    <glyph glyph-name="numbersign" unicode="#" horiz-adv-x="1228" 
d="M1309 1020l-66 -238h-205l-47 -170h207l-65 -239h-209l-105 -373h-274l106 373h-172l-106 -373h-271l107 373h-209l68 239h206l48 170h-205l65 238h207l98 346h269l-97 -346h172l99 346h272l-98 -346h205zM766 782h-174l-47 -170h172z" />
    <glyph glyph-name="dollar" unicode="$" horiz-adv-x="1089" 
d="M967 1315l-49 -414q-42 66 -90.5 106t-112.5 40q-40 0 -70.5 -25.5t-30.5 -65.5q0 -26 21 -53t52.5 -51t68 -58.5t68 -72.5t52.5 -96.5t21 -126.5q0 -93 -33.5 -183.5t-93.5 -162.5q-42 -49 -81 -77.5t-103 -60.5l-25 -207h-172l21 175q-89 3 -141.5 14.5t-127.5 46.5
l54 426q33 -67 89 -110.5t124 -43.5q48 0 83 27t35 74q0 31 -28.5 67t-69.5 73.5t-82 81t-69.5 106.5t-28.5 135q0 101 39 198.5t108 169.5q49 51 93 80.5t108 52.5l22 191h173l-21 -180q94 -19 197 -76z" />
    <glyph glyph-name="percent" unicode="%" horiz-adv-x="1460" 
d="M686 1087q0 -103 -39 -192.5t-115.5 -147t-173.5 -57.5q-126 0 -194 78t-68 215q0 174 90.5 291t249.5 117q125 0 187.5 -82.5t62.5 -221.5zM449 1092q0 21 -1 35t-4.5 30t-12.5 24.5t-23 8.5q-21 0 -37 -22t-23.5 -56.5t-10.5 -65t-3 -57.5q0 -22 1 -36t5 -30.5t13 -25
t24 -8.5q21 0 36 22.5t22.5 57.5t10.5 65.5t3 57.5zM1227 1366l-758 -1366h-188l761 1366h185zM1417 387q0 -103 -39 -192.5t-115 -147t-173 -57.5q-126 0 -194.5 78t-68.5 215q0 113 38 204t116.5 147t185.5 56q125 0 187.5 -82t62.5 -221zM1180 391q0 21 -1 35t-4.5 30
t-12.5 24.5t-23 8.5q-21 0 -37 -22t-23.5 -56t-10.5 -64.5t-3 -57.5q0 -22 1 -36.5t5 -31t13 -25t24 -8.5q21 0 36 22.5t22.5 57.5t10.5 65.5t3 57.5z" />
    <glyph glyph-name="ampersand" unicode="&#x26;" horiz-adv-x="1269" 
d="M1040 647l156 -250q-96 -92 -158 -143l156 -254h-393l-45 74q-158 -99 -314 -99q-157 0 -264.5 107t-107.5 264q0 136 75 240.5t203 173.5q-74 109 -74 227q0 109 60 202.5t157.5 147.5t204.5 54q150 0 257.5 -92t107.5 -240q0 -122 -77.5 -222t-197.5 -171l111 -177
q76 76 143 158zM756 1047q0 29 -19 46t-47 17q-34 0 -59 -25t-25 -59q0 -16 5.5 -35t9 -27.5t18 -35t14.5 -27.5q103 84 103 146zM604 328l-110 178q-78 -43 -78 -117q0 -41 25.5 -68.5t66.5 -27.5q45 0 96 35z" />
    <glyph glyph-name="quotesingle" unicode="'" horiz-adv-x="460" 
d="M479 1366l-49 -549h-197l-49 549h295z" />
    <glyph glyph-name="parenleft" unicode="(" horiz-adv-x="675" 
d="M473 1509l244 -141q-314 -517 -314 -1026q0 -348 111 -645l-278 -141q-150 355 -150 729q0 648 387 1224z" />
    <glyph glyph-name="parenright" unicode=")" horiz-adv-x="675" 
d="M176 1368l279 141q149 -341 149 -733q0 -646 -387 -1220l-244 141q145 229 230.5 496t85.5 528q0 345 -113 647z" />
    <glyph glyph-name="asterisk" unicode="*" horiz-adv-x="1075" 
d="M995 1085l-221 -30l121 -191l-201 -112l-96 202l-141 -174l-168 158l162 156l-207 82l98 210l195 -106l14 225l227 -28l-41 -222l215 58z" />
    <glyph glyph-name="plus" unicode="+" 
d="M983 573h-309v-313h-266v313h-312v246h312v314h266v-314h309v-246z" />
    <glyph glyph-name="comma" unicode="," horiz-adv-x="591" 
d="M512 326l-315 -656h-287l246 656h356z" />
    <glyph glyph-name="hyphen" unicode="-" horiz-adv-x="649" 
d="M537 381h-445l33 274h444z" />
    <glyph glyph-name="period" unicode="." horiz-adv-x="591" 
d="M467 209q0 -91 -69 -160t-160 -69q-78 0 -130.5 53t-52.5 131q0 91 69.5 160t160.5 69q78 0 130 -53t52 -131z" />
    <glyph glyph-name="slash" unicode="/" horiz-adv-x="1077" 
d="M1157 1493l-1001 -1935h-246l1001 1935h246z" />
    <glyph glyph-name="zero" unicode="0" horiz-adv-x="1089" 
d="M1057 872q0 -196 -41 -364q-19 -80 -48.5 -153.5t-75.5 -143.5t-101.5 -121.5t-131.5 -83t-161 -31.5q-91 0 -163 31.5t-117.5 83t-75.5 123.5t-42 147t-12 160q0 190 43 350q26 100 70.5 189t109 165.5t155.5 121.5t196 45q87 0 155.5 -29.5t113 -79t73.5 -117.5
t41 -140.5t12 -152.5zM702 893q0 32 -2 55t-9.5 55.5t-27 50t-49.5 17.5q-37 0 -66 -36.5t-46.5 -97t-30 -127t-18 -140.5t-7.5 -122t-2 -85q0 -168 78 -168q45 0 79.5 52.5t52.5 124.5t29.5 162.5t15 152t3.5 106.5z" />
    <glyph glyph-name="one" unicode="1" horiz-adv-x="1089" 
d="M897 1366l-168 -1366h-362l127 1044h-146l39 322h510z" />
    <glyph glyph-name="two" unicode="2" horiz-adv-x="1089" 
d="M532 870h-352q20 225 156 373t356 148q172 0 275.5 -105t103.5 -278q0 -85 -26 -169.5t-66 -153.5t-101 -141.5t-116.5 -126.5t-126.5 -114q76 5 338 10l-39 -313h-926l428 498q47 54 72.5 84.5t71.5 92t71 107t45.5 103.5t20.5 108q0 37 -18.5 65.5t-53.5 28.5
q-100 0 -113 -217z" />
    <glyph glyph-name="three" unicode="3" horiz-adv-x="1089" 
d="M526 977h-350q37 188 167 301t319 113q160 0 267 -97.5t107 -255.5q0 -133 -86 -239q-39 -48 -116 -92q145 -90 145 -269q0 -102 -42.5 -189.5t-113.5 -147t-163 -93t-191 -33.5q-109 0 -197.5 38.5t-144 119.5t-55.5 191q0 15 3.5 41t4.5 36h354q-2 -12 -2 -36
q0 -39 19 -62.5t57 -23.5q53 0 85 45.5t32 101.5q0 60 -34 91.5t-95 31.5q-12 0 -33 -2t-33 -2l37 291q14 -2 43 -2q166 0 166 163q0 36 -15 62t-49 26q-21 0 -36.5 -9.5t-25 -27t-14.5 -33.5t-10 -38z" />
    <glyph glyph-name="four" unicode="4" horiz-adv-x="1089" 
d="M1040 571l-34 -295h-115l-35 -276h-362l32 276h-487l35 289l506 801h444l-98 -795h114zM375 571h200q44 304 64 410q-162 -278 -264 -410z" />
    <glyph glyph-name="five" unicode="5" horiz-adv-x="1089" 
d="M1053 1366l-39 -322h-383l-49 -153q20 2 61 2q156 0 251 -103t95 -260q0 -152 -80 -280.5t-212 -201.5t-283 -73q-190 0 -357 107l82 324q151 -95 277 -95q82 0 144.5 45t62.5 125q0 52 -32 84t-72.5 41.5t-92.5 9.5q-117 0 -244 -47l201 797h670z" />
    <glyph glyph-name="six" unicode="6" horiz-adv-x="1089" 
d="M934 1366l-262 -389q-38 -57 -80 -107q69 37 131 37q71 0 127 -33t89 -87t50 -117t17 -129q0 -152 -66.5 -281t-190 -207t-276.5 -78q-185 0 -285 114.5t-100 303.5q0 56 13.5 121t33.5 124t54.5 132t64 127.5t74.5 129.5t74 120t75.5 116.5t65.5 102.5h391zM655 520
q0 47 -21.5 84t-64.5 37q-37 0 -63 -26.5t-38.5 -68t-18 -79t-5.5 -72.5q0 -125 80 -125q37 0 64.5 27t41 69t19.5 80.5t6 73.5z" />
    <glyph glyph-name="seven" unicode="7" horiz-adv-x="1089" 
d="M1194 1366l-772 -1366h-391l411 727q92 161 213 317h-454l39 322h954z" />
    <glyph glyph-name="eight" unicode="8" horiz-adv-x="1089" 
d="M1049 1051q0 -136 -82 -238q-48 -58 -142 -102q90 -39 131 -103.5t41 -163.5q0 -136 -73 -245t-189 -166.5t-250 -57.5q-108 0 -201 43t-151.5 128t-58.5 194q0 85 36.5 165t100.5 134q46 39 135 72q-89 31 -129.5 88.5t-40.5 152.5q0 125 68 227t177 157t232 55
q104 0 192.5 -38t146 -117t57.5 -185zM686 1008q0 35 -15.5 61.5t-47.5 26.5t-54 -26t-29.5 -57t-7.5 -63q0 -92 68 -92q30 0 51 28.5t28 60.5t7 61zM631 461q0 43 -17 74.5t-57 31.5q-50 0 -78 -56.5t-28 -111.5q0 -44 16.5 -76t56.5 -32q52 0 79.5 56t27.5 114z" />
    <glyph glyph-name="nine" unicode="9" horiz-adv-x="1089" 
d="M209 0l262 387q46 67 80 109q-67 -39 -133 -39q-70 0 -125.5 33t-88.5 87.5t-50 117.5t-17 128q0 152 67 281.5t191 208t277 78.5q185 0 284 -115t99 -303q0 -64 -15 -135.5t-48.5 -151.5t-62.5 -142.5t-83.5 -153t-83 -136.5t-89 -138t-75.5 -116h-389zM700 973
q0 123 -79 123q-38 0 -66.5 -27t-42 -69t-19.5 -81t-6 -75q0 -47 21.5 -84t64.5 -37q37 0 64 27t39.5 69.5t18 80.5t5.5 73z" />
    <glyph glyph-name="colon" unicode=":" horiz-adv-x="591" 
d="M539 793q0 -91 -69.5 -160.5t-160.5 -69.5q-78 0 -130 53.5t-52 131.5q0 91 69 160t160 69q78 0 130.5 -53t52.5 -131zM467 209q0 -91 -69 -160t-160 -69q-78 0 -130.5 53t-52.5 131q0 91 69.5 160t160.5 69q78 0 130 -53t52 -131z" />
    <glyph glyph-name="semicolon" unicode=";" horiz-adv-x="591" 
d="M606 793q0 -91 -69 -160.5t-160 -69.5q-78 0 -130 52t-52 130q0 93 68.5 162.5t160.5 69.5q78 0 130 -53t52 -131zM512 326l-315 -656h-287l246 656h356z" />
    <glyph glyph-name="less" unicode="&#x3c;" 
d="M954 119l-886 454v224l886 450v-262l-606 -301l604 -303z" />
    <glyph glyph-name="equal" unicode="=" 
d="M983 758h-887v231h887v-231zM983 403h-887v232h887v-232z" />
    <glyph glyph-name="greater" unicode="&#x3e;" 
d="M1010 571l-887 -452v264l606 301l-604 301l-2 262l887 -452v-224z" />
    <glyph glyph-name="question" unicode="?" horiz-adv-x="1026" 
d="M496 979h-351q11 88 29.5 143.5t63.5 120.5q65 93 170.5 144t222.5 51q177 0 281 -106t104 -283q0 -147 -81.5 -265.5t-227.5 -158.5l-15 -133h-346l39 327q36 -4 55 -4q213 0 213 209q0 111 -63 111q-76 0 -94 -156zM690 211q0 -91 -70 -161t-161 -70q-77 0 -127.5 52.5
t-50.5 129.5q0 93 68.5 163t160.5 70q79 0 129.5 -52.5t50.5 -131.5z" />
    <glyph glyph-name="at" unicode="@" horiz-adv-x="1501" 
d="M1135 201l20 -164q-195 -62 -422 -62q-189 0 -334 70.5t-228 210t-83 330.5q0 159 67 308t177 257t260 173t309 65q160 0 290 -61t209 -182.5t79 -283.5q0 -175 -97 -334q-54 -88 -135 -150.5t-170 -62.5q-52 0 -94 30.5t-49 80.5q-50 -60 -122 -94.5t-150 -34.5
q-113 0 -181.5 79.5t-68.5 194.5q0 105 54.5 210.5t151 176t203.5 70.5q61 0 112.5 -24.5t76.5 -73.5l24 78l180 -2l-122 -388q-2 -8 -7.5 -25.5t-9 -28t-6 -26t-2.5 -28.5q0 -45 41 -45q43 0 98 65q52 60 81.5 145.5t29.5 166.5q0 182 -120 282.5t-306 100.5
q-125 0 -240.5 -50.5t-200 -135t-134.5 -200.5t-50 -241q0 -185 109 -315q123 -144 381 -144q193 0 379 62zM936 715q0 55 -28.5 89t-82.5 34q-82 0 -143 -76t-61 -160q0 -53 32 -86t84 -33q81 0 140 74.5t59 157.5z" />
    <glyph glyph-name="A" unicode="A" horiz-adv-x="1073" 
d="M1006 0h-375l-6 174h-244l-51 -174h-377l491 1366h445zM614 625v178q0 46 3.5 131t3.5 104q-3 -13 -20 -84t-28 -108q-14 -48 -50 -179t-58 -202h153q-4 106 -4 160z" />
    <glyph glyph-name="B" unicode="B" horiz-adv-x="1069" 
d="M205 1366h422q71 0 131.5 -10t115 -34.5t92.5 -62t60.5 -96.5t22.5 -135q0 -139 -75 -227.5t-212 -100.5q124 -18 181.5 -77.5t57.5 -182.5q0 -192 -131.5 -316t-324.5 -124h-508zM530 1069l-28 -233q8 -2 24 -2q67 0 112.5 35.5t45.5 99.5q0 102 -115 102q-27 0 -39 -2z
M469 557l-33 -260q10 -2 31 -2q71 0 119.5 41t48.5 110q0 58 -39 85.5t-98 27.5q-5 0 -14.5 -1t-14.5 -1z" />
    <glyph glyph-name="C" unicode="C" horiz-adv-x="897" 
d="M944 1356l-47 -389q-37 42 -72 62t-86 20q-63 0 -113.5 -31t-82 -79.5t-52.5 -111t-29.5 -121t-8.5 -114.5q0 -52 9.5 -95.5t30.5 -82t60 -60.5t94 -22q97 0 199 88l-70 -395q-121 -50 -223 -50q-118 0 -211 45t-149.5 122.5t-85.5 176.5t-29 213q0 125 26.5 246.5
t82.5 233t135 195.5t193.5 134t248.5 50q57 0 93.5 -7t86.5 -28z" />
    <glyph glyph-name="D" unicode="D" horiz-adv-x="1083" 
d="M205 1366h313q258 0 399.5 -146.5t141.5 -404.5q0 -145 -39.5 -292.5t-114.5 -260.5q-95 -142 -222 -202t-306 -60h-340zM526 1024l-86 -694q70 4 120.5 50t76 117t36.5 139t11 134q0 254 -158 254z" />
    <glyph glyph-name="E" unicode="E" horiz-adv-x="829" 
d="M881 1366l-41 -322h-312l-24 -198h280l-39 -309h-278l-27 -209h312l-39 -328h-676l168 1366h676z" />
    <glyph glyph-name="F" unicode="F" horiz-adv-x="782" 
d="M846 1366l-39 -322h-279l-24 -198h260l-39 -309h-258l-68 -537h-362l168 1366h641z" />
    <glyph glyph-name="G" unicode="G" horiz-adv-x="1130" 
d="M1112 1053l-369 -131q0 34 -6.5 62.5t-28 52.5t-55.5 24q-32 0 -58.5 -18t-42.5 -40.5t-31 -61t-21 -60.5t-15 -58q-43 -187 -43 -329q0 -36 3 -63t13 -59.5t33.5 -50.5t59.5 -18q46 0 79.5 34.5t48.5 76.5t21 88h-133l35 286h506q-17 -176 -49 -303q-26 -108 -69.5 -197
t-108.5 -161t-157.5 -112t-205.5 -40q-94 0 -170 29t-126 79t-83.5 120t-48 148t-14.5 167q0 196 49 363q24 82 60 155.5t87 139t112.5 113t140.5 75t167 27.5q162 0 267.5 -88.5t152.5 -249.5z" />
    <glyph glyph-name="H" unicode="H" horiz-adv-x="1087" 
d="M1104 1366l-168 -1366h-363l68 549h-174l-68 -549h-362l168 1366h362l-59 -483h174l59 483h363z" />
    <glyph glyph-name="I" unicode="I" horiz-adv-x="550" 
d="M567 1366l-168 -1366h-362l168 1366h362z" />
    <glyph glyph-name="J" unicode="J" horiz-adv-x="714" 
d="M731 1366l-117 -948q-8 -58 -14 -92t-21.5 -80t-39.5 -84q-117 -187 -363 -187q-110 0 -231 45l47 381q52 -79 135 -79q35 0 60.5 14t39.5 39.5t21.5 52t11.5 61.5l107 877h364z" />
    <glyph glyph-name="K" unicode="K" horiz-adv-x="1091" 
d="M1155 1366l-371 -659l240 -707h-391l-162 653l-72 -653h-362l168 1366h362l-82 -610l287 610h383z" />
    <glyph glyph-name="L" unicode="L" horiz-adv-x="743" 
d="M713 328l-39 -328h-637l168 1366h362l-127 -1038h273z" />
    <glyph glyph-name="M" unicode="M" horiz-adv-x="1546" 
d="M1458 1366l-37 -1366h-379q32 399 72 870q-48 -188 -123 -436.5t-135 -433.5h-297l-22 657q0 11 -1 35t-1 35q0 49 4 143q-14 -102 -33.5 -225t-33.5 -204t-41 -231t-38 -210h-389l324 1366h452l19 -461q4 -70 4 -102q0 -24 -1 -51.5t-2.5 -61t-2.5 -51.5q19 87 48 191.5
t48 166.5t61.5 195.5t55.5 173.5h448z" />
    <glyph glyph-name="N" unicode="N" horiz-adv-x="1134" 
d="M1151 1366l-168 -1366h-346l-121 502q-39 158 -57 284q-2 -36 -6.5 -108.5t-6.5 -108.5q-4 -67 -12 -146t-15 -135t-18.5 -149t-17.5 -139h-346l168 1366h346l123 -479q17 -65 40 -186.5t31 -157.5v50.5v53.5v50t0.5 53.5t1.5 49.5t2 53.5t2.5 49.5t3.5 53.5t5 50t6 52.5
l39 307h346z" />
    <glyph glyph-name="O" unicode="O" horiz-adv-x="1142" 
d="M1118 864q0 -209 -53 -391q-24 -78 -58 -148.5t-83.5 -135.5t-108.5 -111.5t-135 -74.5t-160 -28q-103 0 -195 49t-151 134q-96 140 -96 381q0 206 59 383q33 95 83.5 177t119 148.5t159 105t191.5 38.5q86 0 158 -29.5t121 -80t83.5 -118t50 -143t15.5 -156.5zM741 836
q0 211 -96 211q-38 0 -71 -37t-54 -93t-33 -103.5t-18 -86.5q-14 -83 -14 -182q0 -223 98 -223q39 0 72.5 37.5t54 96t32 106t17.5 89.5q12 91 12 185z" />
    <glyph glyph-name="P" unicode="P" horiz-adv-x="1019" 
d="M205 1366h352q487 0 487 -395q0 -107 -38.5 -211.5t-110.5 -177.5q-155 -158 -440 -133l-56 -449h-362zM494 754h18q73 0 117.5 52.5t44.5 125.5q0 59 -30 97t-87 38h-27z" />
    <glyph glyph-name="Q" unicode="Q" horiz-adv-x="1159" 
d="M725 -190l-102 182q-52 -17 -111 -17q-89 0 -163 31.5t-123.5 84t-84 123.5t-50 149t-15.5 161q0 196 49 357q30 102 79.5 190.5t118.5 161.5t162.5 115.5t200.5 42.5q90 0 164 -31.5t123.5 -84t83.5 -124t49.5 -149.5t15.5 -162q0 -185 -57.5 -372.5t-169.5 -307.5
l141 -189zM741 825q0 222 -102 222q-36 0 -67.5 -38.5t-52 -96t-32.5 -105.5t-18 -86q-14 -83 -14 -182q0 -217 100 -217q32 0 59.5 25t46 60.5t33.5 81.5t23 81.5t12 66.5q12 91 12 188z" />
    <glyph glyph-name="R" unicode="R" horiz-adv-x="1075" 
d="M205 1366h370q472 0 472 -391q0 -301 -254 -408l200 -567h-393q-9 38 -45.5 184.5t-54.5 225.5q-6 27 -17.5 79t-17.5 78q-16 -193 -66 -567h-362zM489 733h25q72 0 121 60.5t49 134.5q0 72 -39.5 101.5t-114.5 29.5z" />
    <glyph glyph-name="S" unicode="S" horiz-adv-x="815" 
d="M836 1321l-52 -418q-31 63 -82 106.5t-112 43.5q-39 0 -74 -26t-35 -64q0 -28 21.5 -57t53 -53.5t69 -59.5t69 -72t53 -94t21.5 -123q0 -140 -62.5 -261t-177.5 -194.5t-256 -73.5q-127 0 -260 60l54 428q90 -150 213 -150q47 0 82.5 28t35.5 75q0 33 -29 67t-70.5 69
t-83 77.5t-70.5 110t-29 149.5q0 125 61.5 240.5t170.5 188.5t235 73q127 0 254 -70z" />
    <glyph glyph-name="T" unicode="T" horiz-adv-x="772" 
d="M874 1366l-40 -328h-201l-127 -1038h-363l127 1038h-200l41 328h763z" />
    <glyph glyph-name="U" unicode="U" horiz-adv-x="1099" 
d="M1116 1366l-119 -967q-12 -106 -51.5 -179t-122.5 -138q-136 -107 -317 -107q-188 0 -304 96.5t-116 280.5q0 50 6 99l113 915h362l-108 -883q-4 -46 -4 -67q0 -94 80 -94q32 0 53.5 14t32.5 42t15.5 49t8.5 56l109 883h362z" />
    <glyph glyph-name="V" unicode="V" horiz-adv-x="1044" 
d="M1155 1366l-534 -1366h-371l-139 1366h381q2 -46 7.5 -155t8.5 -169.5t5.5 -150t2.5 -164.5q0 -84 -8 -252q17 87 38.5 173.5t52.5 193t48 164t59.5 191t53.5 169.5h395z" />
    <glyph glyph-name="W" unicode="W" horiz-adv-x="1519" 
d="M1630 1366l-440 -1366h-350q-3 66 -11 208t-12 224.5t-7.5 202t-2.5 219.5q-19 -72 -41 -188q-5 -22 -41 -170l-129 -496h-354l-131 1366h358q6 -160 14 -494q4 -78 4 -116q0 -80 -4 -244q13 60 26.5 119.5t32.5 130.5t30.5 115t36 129t33 114t38.5 128.5t35 117.5h311
q29 -469 31 -588q1 0 1 -141l-1 -141q55 285 100 446l119 424h354z" />
    <glyph glyph-name="X" unicode="X" horiz-adv-x="1042" 
d="M1130 1366l-389 -657l244 -709h-403q-28 118 -54 254q-16 72 -20 113q-46 -112 -170 -367h-395l413 709l-227 657h403q7 -38 23 -112.5t23 -112.5q2 -11 5 -31t6 -36.5t7 -31.5q30 97 127 324h407z" />
    <glyph glyph-name="Y" unicode="Y" horiz-adv-x="1009" 
d="M1120 1366l-409 -788l-72 -578h-363l72 578l-237 788h378q62 -295 76 -422q39 105 178 422h377z" />
    <glyph glyph-name="Z" unicode="Z" horiz-adv-x="1038" 
d="M1114 1366l-4 -39l-422 -743q-28 -51 -84 -143t-78 -130q87 8 416 17l-39 -328h-928l5 29l370 667q111 197 225 348h-391l39 322h891z" />
    <glyph glyph-name="bracketleft" unicode="[" horiz-adv-x="704" 
d="M762 1493l-29 -244h-209l-174 -1431h207l-31 -246h-514l236 1921h514z" />
    <glyph glyph-name="backslash" unicode="\" horiz-adv-x="1150" 
d="M109 1493h245l762 -1935h-246z" />
    <glyph glyph-name="bracketright" unicode="]" horiz-adv-x="704" 
d="M709 1493l-236 -1921h-516l31 246h207l176 1431h-207l29 244h516z" />
    <glyph glyph-name="asciicircum" unicode="^" 
d="M1042 676h-278l-225 477l-226 -477h-276l328 690h348z" />
    <glyph glyph-name="underscore" unicode="_" 
d="M967 -340h-1024v246h1024v-246z" />
    <glyph glyph-name="grave" unicode="`" 
d="M696 1085h-200l-140 304h283z" />
    <glyph glyph-name="a" unicode="a" horiz-adv-x="1001" 
d="M981 956l-117 -956h-350q5 27 15.5 81.5t15.5 80.5q-51 -86 -114.5 -134t-151.5 -48q-67 0 -115 34.5t-72 91.5t-34.5 115t-10.5 121q0 137 29 262q16 67 42.5 128.5t67 118.5t99.5 91.5t129 34.5q81 0 125.5 -44t76.5 -128q1 25 4.5 75t4.5 76h356zM578 590q0 94 -58 94
q-34 0 -59.5 -35.5t-38 -88t-18 -97.5t-5.5 -78q0 -113 64 -113q33 0 58 38.5t36 95.5t16 103.5t5 80.5z" />
    <glyph glyph-name="b" unicode="b" horiz-adv-x="1001" 
d="M207 1493h350q-7 -55 -31 -257.5t-41 -311.5q-11 -66 -16 -107q50 78 105.5 119t136.5 41q58 0 103 -22.5t71 -58t42.5 -85.5t22.5 -97.5t6 -101.5q0 -144 -28 -264q-13 -53 -32 -102t-49.5 -98.5t-67 -86t-86.5 -59t-107 -22.5q-52 0 -90 20t-59.5 49t-47.5 80
q-2 -21 -4 -64t-4 -65h-358zM594 559q0 123 -70 123q-31 0 -54.5 -34t-34 -84t-15 -91.5t-4.5 -73.5q0 -114 63 -114q33 0 57.5 32t36 80.5t16.5 89t5 72.5z" />
    <glyph glyph-name="c" unicode="c" horiz-adv-x="610" 
d="M633 973l-39 -311q-84 -6 -131 -61t-47 -140q0 -58 29 -104t83 -46h23l-39 -325q-46 -6 -94 -6q-92 0 -163.5 34.5t-115 95t-66 136.5t-22.5 164q0 107 38 209.5t104 181.5t163 127.5t207 48.5q24 0 70 -4z" />
    <glyph glyph-name="d" unicode="d" horiz-adv-x="1001" 
d="M1047 1493l-183 -1493h-356q1 25 10.5 70t11.5 59q-54 -73 -106 -111t-127 -38q-71 0 -122.5 31.5t-78.5 85.5t-39 113t-12 126q0 139 29 264q13 53 32 103t49.5 101t67 88.5t86.5 61t107 23.5q79 0 125 -40t80 -120q5 80 15 176.5t17 155.5t23.5 182.5t21.5 161.5h349z
M590 561q0 121 -60 121q-34 0 -59 -32.5t-37 -81t-17 -90t-5 -75.5q0 -19 3 -37t9.5 -37.5t21 -31.5t33.5 -12q32 0 55.5 32.5t34.5 81.5t16 90t5 72z" />
    <glyph glyph-name="e" unicode="e" horiz-adv-x="970" 
d="M545 322h340q-54 -164 -173 -253t-288 -89q-182 0 -279.5 104t-97.5 287q0 89 21.5 176t64.5 164t103 136t142.5 93.5t176.5 34.5q178 0 273.5 -114.5t95.5 -295.5q0 -49 -17 -162h-512q-2 -12 -2 -38q0 -109 66 -109q29 0 53 19t33 47zM424 594h162q0 4 1 12t1 12
q0 39 -17 68t-53 29q-41 0 -65 -37t-29 -84z" />
    <glyph glyph-name="f" unicode="f" horiz-adv-x="606" 
d="M721 1491l-41 -330q-35 35 -68 35q-19 0 -32 -9t-19.5 -25.5t-9 -30t-4.5 -33.5l-17 -142h125l-34 -286h-125l-82 -670h-351l82 670h-100l35 286h102q2 22 7 75t9 82t11 72t18 77.5t27 64.5q44 88 126.5 138.5t180.5 50.5q69 0 160 -25z" />
    <glyph glyph-name="g" unicode="g" horiz-adv-x="993" 
d="M973 956l-121 -981q-21 -171 -100 -262q-66 -76 -166 -114.5t-209 -38.5q-186 0 -281 82t-98 264h356q0 -78 64 -78q22 0 39 9t26.5 20.5t17 32t10 35.5t5.5 38q1 6 8 62t11 86q-102 -125 -234 -125q-69 0 -120.5 35t-79.5 91.5t-41 118t-13 125.5q0 123 31 250
q18 65 46 126t70 118.5t101 92t127 34.5q107 0 190 -146l9 125h352zM582 571q0 117 -56 117q-33 0 -57 -33t-35 -82.5t-15.5 -90.5t-4.5 -74q0 -129 61 -129q31 0 54 35t33.5 87.5t15 95t4.5 74.5z" />
    <glyph glyph-name="h" unicode="h" horiz-adv-x="989" 
d="M557 1493l-65 -535q-12 -94 -33 -184q109 203 274 203q97 0 151 -69t54 -169q0 -45 -6 -88l-80 -651h-350l63 506q4 36 4 53q0 64 -47 64q-73 0 -90 -142l-59 -481h-350l184 1493h350z" />
    <glyph glyph-name="i" unicode="i" horiz-adv-x="509" 
d="M559 1278q0 -91 -70 -161t-161 -70q-76 0 -128.5 52.5t-52.5 129.5q0 92 70 161.5t162 69.5q78 0 129 -52t51 -130zM489 956l-116 -956h-350l118 956h348z" />
    <glyph glyph-name="j" unicode="j" horiz-adv-x="516" 
d="M561 1278v-21q0 -22 -16 -59q-25 -65 -85 -108t-128 -43q-78 0 -129 52t-51 130q0 92 68.5 161.5t160.5 69.5q79 0 129.5 -51.5t50.5 -130.5zM496 956l-174 -1396h-349l170 1396h353z" />
    <glyph glyph-name="k" unicode="k" horiz-adv-x="997" 
d="M1034 956l-284 -440l190 -516h-389l-84 299q-28 98 -37 166l-57 -465h-350l184 1493h350l-117 -946q17 39 68 127l154 282h372z" />
    <glyph glyph-name="l" unicode="l" horiz-adv-x="512" 
d="M557 1493l-184 -1493h-350l184 1493h350z" />
    <glyph glyph-name="m" unicode="m" horiz-adv-x="1478" 
d="M141 956h348q-9 -80 -24 -159q112 180 266 180q93 0 144.5 -51t80.5 -148q45 96 103.5 147.5t152.5 51.5q96 0 157 -62.5t61 -158.5q0 -27 -9 -101l-80 -655h-350l62 502q1 8 4.5 32t3.5 37q0 62 -45 62q-80 0 -96 -150l-60 -483h-350l59 481q9 65 9 84q0 60 -50 60
q-27 0 -45.5 -12.5t-28 -37.5t-13.5 -43t-8 -49q-1 -5 -1 -8l-59 -475h-350z" />
    <glyph glyph-name="n" unicode="n" horiz-adv-x="989" 
d="M141 956h348q-29 -177 -30 -182q109 203 274 203q97 0 151 -69t54 -169q0 -45 -6 -88l-80 -651h-350l63 506q4 36 4 53q0 64 -47 64q-73 0 -90 -142l-59 -481h-350z" />
    <glyph glyph-name="o" unicode="o" horiz-adv-x="983" 
d="M934 573q0 -120 -32 -225.5t-93 -188t-160 -131t-223 -48.5q-185 0 -281 110.5t-96 298.5q0 113 34 217.5t96 187.5t159.5 133t214.5 50q182 0 281.5 -110t99.5 -294zM596 551q0 158 -76 158q-35 0 -62.5 -36t-41 -88.5t-20.5 -99t-7 -79.5q0 -24 2.5 -46.5t9.5 -50
t23.5 -44.5t40.5 -17q35 0 62.5 36t41 88.5t20.5 99t7 79.5z" />
    <glyph glyph-name="p" unicode="p" horiz-adv-x="1001" 
d="M494 956l-25 -135q49 75 103.5 115.5t132.5 40.5q71 0 123 -36.5t78.5 -96.5t38 -122.5t11.5 -129.5q0 -143 -30 -250q-17 -65 -44.5 -125t-68.5 -115t-99.5 -88.5t-125.5 -33.5q-73 0 -120.5 38.5t-82.5 110.5q0 -52 -12 -158l-51 -411h-351l174 1396h349zM594 557
q0 19 -2 37.5t-8 40.5t-20 35.5t-34 13.5q-31 0 -54.5 -33t-34.5 -82t-16 -90.5t-5 -72.5q0 -127 59 -127q31 0 55 33.5t36 81.5t18 90.5t6 72.5z" />
    <glyph glyph-name="q" unicode="q" horiz-adv-x="997" 
d="M977 956l-172 -1396h-350l51 411q4 36 8 54q3 18 10.5 52t10.5 52q-52 -71 -108.5 -110t-133.5 -39q-58 0 -103 24t-71.5 60.5t-43 88t-22.5 100t-6 101.5q0 125 31 252q13 51 33 100.5t51 99t68 87t87 61t105 23.5q75 0 121.5 -40t74.5 -116l9 135h350zM586 557
q0 127 -62 127q-32 0 -55.5 -32.5t-34.5 -81.5t-15.5 -89.5t-4.5 -72.5q0 -129 63 -129q29 0 52 34t34.5 83t17 91t5.5 70z" />
    <glyph glyph-name="r" unicode="r" horiz-adv-x="694" 
d="M737 979l-49 -397q-52 30 -94 30q-69 0 -117 -55q-26 -29 -37 -63t-16 -84l-51 -410h-350l118 956h348l-40 -186q103 204 288 209z" />
    <glyph glyph-name="s" unicode="s" horiz-adv-x="796" 
d="M799 899l-152 -260q-71 84 -133 84q-24 0 -42.5 -14t-18.5 -37q0 -25 21.5 -44t53.5 -31t70 -31.5t70 -43t53.5 -68t21.5 -104.5q0 -108 -60.5 -194.5t-155 -131t-201.5 -44.5q-93 0 -163.5 23t-162.5 77l160 264q32 -41 75.5 -70.5t86.5 -29.5q28 0 50.5 14t22.5 41
q0 39 -60 62q-3 1 -22 8q-48 19 -82.5 38.5t-66 48t-48 68t-16.5 88.5q0 81 37.5 151.5t99 116t137.5 71.5t154 26q134 0 271 -78z" />
    <glyph glyph-name="t" unicode="t" horiz-adv-x="608" 
d="M653 956l-35 -286h-114l-84 -670h-348l82 670h-101l35 286h100l35 281h350l-34 -281h114z" />
    <glyph glyph-name="u" unicode="u" horiz-adv-x="1007" 
d="M987 956l-72 -587q-13 -104 -52 -175t-122 -126q-136 -88 -297 -88q-102 0 -186 32.5t-139.5 105.5t-55.5 177q0 15 3 41t4 33l71 587h348l-65 -538q0 -3 -3 -30t-3 -42q0 -70 63 -70q16 0 29 5.5t21.5 12t15.5 21.5l10.5 22.5t7 28t4 26t2.5 26.5l66 538h350z" />
    <glyph glyph-name="v" unicode="v" horiz-adv-x="899" 
d="M958 956l-391 -956h-364l-144 956h355q2 -29 7.5 -99.5t8.5 -109.5t5.5 -97t2.5 -107q0 -65 -4 -191q17 72 41.5 157.5t42 141.5t50.5 159.5t46 145.5h344z" />
    <glyph glyph-name="w" unicode="w" horiz-adv-x="1376" 
d="M1436 956l-392 -956h-346v573l-178 -573h-344l-117 956h344l17 -307q2 -45 2 -270q13 70 36.5 154.5t39 130.5t55 157t47.5 135h297q17 -413 12 -577q42 166 178 577h349z" />
    <glyph glyph-name="x" unicode="x" horiz-adv-x="972" 
d="M1006 956l-334 -456l243 -500h-405q-37 138 -51 225q-40 -89 -125 -225h-391l346 492l-213 464h399q41 -202 41 -206q17 40 53 109.5t49 96.5h388z" />
    <glyph glyph-name="y" unicode="y" horiz-adv-x="937" 
d="M997 956l-616 -1396h-361l226 479l-168 917h352q5 -40 14.5 -117t15 -125t10.5 -115t5 -124q0 -10 -1 -30.5t-1 -30.5q8 28 22.5 83t23.5 88.5t23.5 80t28.5 84.5l78 206h348z" />
    <glyph glyph-name="z" unicode="z" horiz-adv-x="876" 
d="M903 956l-282 -487q-57 -100 -113 -180h258l-35 -289h-756l289 496q65 110 113 174h-266l34 286h758z" />
    <glyph glyph-name="braceleft" unicode="{" horiz-adv-x="1032" 
d="M946 1487l-28 -234q-15 0 -47 1t-44.5 0.5t-35.5 -3.5t-33 -10t-24 -20t-21.5 -34t-12.5 -50q-9 -60 -21 -181.5t-25 -195.5t-38 -123q-17 -33 -42.5 -55.5t-67.5 -49.5q55 -39 74.5 -79t19.5 -109q0 -22 -4 -72l-41 -321q-1 -6 -2.5 -16.5t-2.5 -19.5t-1 -17
q0 -56 30 -72t93 -16q46 0 69 2l-28 -236q-106 -4 -160 -4q-53 0 -92.5 5.5t-76 20.5t-60 39.5t-37 64.5t-13.5 95q0 13 5 70l49 387q4 36 4 57q0 51 -22.5 80t-71.5 39l26 225q66 11 94.5 48.5t36.5 107.5l45 385q20 163 101 230t247 67q24 0 50 -1t58 -2.5t50 -2.5z" />
    <glyph glyph-name="bar" unicode="|" 
d="M651 -512h-266v2048h266v-2048z" />
    <glyph glyph-name="braceright" unicode="}" horiz-adv-x="1032" 
d="M850 635l-27 -225q-92 -20 -116 -95q-16 -55 -17 -61l-47 -387q-11 -89 -37.5 -147t-74.5 -90.5t-108.5 -45t-150.5 -12.5q-43 0 -133 4l29 236q14 -2 43 -2q87 0 112 10q44 18 59 92q2 7 3 14q7 40 18.5 153t27.5 207t40 142q4 8 8.5 15.5t11 14.5t10.5 12t12.5 12
t12 10.5t14.5 11t13.5 9t15 10t13.5 9.5q-55 39 -75 79t-20 108q0 9 5 72l38 321q1 6 4 30.5t3 37.5q0 22 -11 37.5t-25 22.5t-38.5 10.5t-40.5 4t-43.5 -0.5t-34.5 -1l29 234q18 1 49.5 2.5t57.5 2.5t50 1q66 0 113.5 -9.5t87.5 -33t60 -69t20 -113.5q0 -22 -4 -72
l-47 -385q-4 -36 -4 -57q0 -52 22 -81t72 -38z" />
    <glyph glyph-name="asciitilde" unicode="~" horiz-adv-x="1366" 
d="M1139 1532l149 -88q-28 -61 -55 -104t-66 -85t-90.5 -64t-113.5 -22q-64 0 -189 51.5t-186 51.5q-31 0 -54 -8.5t-41 -29t-28 -37.5t-27 -50l-145 96q15 40 39 92q91 193 270 193q69 0 196.5 -50.5t192.5 -50.5q53 0 85.5 26.5t62.5 78.5z" />
    <glyph glyph-name="uni00A0" unicode="&#xa0;" horiz-adv-x="477" 
 />
    <glyph glyph-name="exclamdown" unicode="&#xa1;" horiz-adv-x="645" 
d="M571 795q0 -93 -69.5 -163.5t-161.5 -70.5q-79 0 -129.5 52.5t-50.5 131.5q0 91 70 161.5t161 70.5q76 0 128 -52.5t52 -129.5zM502 465l-115 -922h-354l112 922h357z" />
    <glyph glyph-name="cent" unicode="&#xa2;" horiz-adv-x="1089" 
d="M854 1208l-37 -303q-83 -4 -130.5 -61.5t-47.5 -141.5q0 -57 29 -100t84 -43h22l-39 -330q-18 -3 -51 -3.5t-47 -2.5l-21 -176h-172l27 215q-199 127 -199 383q0 106 37 210t105 187q38 47 73.5 73t94.5 54l24 222h172l-20 -177q15 3 33 3t63 -9z" />
    <glyph glyph-name="sterling" unicode="&#xa3;" horiz-adv-x="1089" 
d="M1030 1196l-219 -197q-12 24 -22 38.5t-24.5 31.5t-33 25t-41.5 8q-47 0 -78.5 -38.5t-31.5 -86.5q0 -33 12 -98.5t12 -98.5h326l-25 -190h-303q-14 -143 -119 -264q48 -3 75 -11t71 -32q41 -23 71 -23q63 0 115 66l168 -99q-127 -252 -350 -252q-85 0 -166 35
q-14 6 -36.5 16t-33.5 14.5t-31.5 8.5t-43.5 4q-82 0 -181 -61l-80 168q94 63 170 98q58 85 58 201q0 40 -17 131h-122l22 190h68q-2 14 -7.5 42t-9 45t-6 41.5t-2.5 45.5q0 186 129 309t315 123q218 0 371 -190z" />
    <glyph glyph-name="currency" unicode="&#xa4;" horiz-adv-x="1366" 
d="M1364 283l-143 -146l-211 211q-137 -92 -291 -92q-79 0 -145 22t-142 68l-209 -209l-143 144l211 211q-90 133 -90 282q0 147 90 281l-213 213l145 145l213 -213q137 90 287 90q145 0 281 -88l210 209l144 -143l-209 -209q47 -73 69.5 -139t22.5 -146q0 -149 -88 -280z
M999 772q0 116 -81.5 198.5t-196.5 82.5t-197 -82.5t-82 -198.5q0 -115 81.5 -196.5t197.5 -81.5q115 0 196.5 81t81.5 197z" />
    <glyph glyph-name="yen" unicode="&#xa5;" horiz-adv-x="1089" 
d="M1161 1366l-227 -434h160l-23 -193h-235l-70 -135h289l-25 -190h-299l-51 -414h-363l52 414h-322l23 190h311l-41 135h-254l25 193h172l-131 434h376q4 -21 17 -81t19 -90t15.5 -79t15.5 -90.5t11 -81.5q60 161 178 422h377z" />
    <glyph glyph-name="brokenbar" unicode="&#xa6;" 
d="M651 686h-266v850h266v-850zM651 -512h-266v850h266v-850z" />
    <glyph glyph-name="section" unicode="&#xa7;" horiz-adv-x="1075" 
d="M39 14h301q-6 -60 -6 -61q0 -129 125 -129q57 0 97 38t40 95q0 19 -8 37.5t-16.5 30.5t-28.5 27.5t-30 22t-34.5 21t-29.5 17.5q-12 7 -66.5 37.5t-81.5 48.5q-99 64 -145.5 132t-46.5 175q0 100 48.5 186t133.5 146q-44 65 -63 115.5t-19 125.5q0 97 40 180t107 138.5
t154.5 87t181.5 31.5q157 0 250.5 -85.5t93.5 -240.5q0 -20 -2 -42t-5.5 -49t-4.5 -42h-287q6 43 6 86q0 125 -110 125q-54 0 -89.5 -33t-35.5 -86q0 -38 27 -71.5t70 -60.5t95 -55.5t103.5 -62t94.5 -72.5t70 -95.5t27 -123.5q0 -95 -45 -178t-123 -141q61 -52 87 -110
t26 -140q0 -136 -73 -247.5t-190.5 -171.5t-252.5 -60q-109 0 -196.5 38t-142 117.5t-54.5 190.5q0 21 3.5 58t4.5 50zM686 571q0 56 -32.5 86.5t-88.5 30.5q-61 0 -104 -43t-43 -104q0 -55 32 -88t87 -33q63 0 106 44t43 107z" />
    <glyph glyph-name="dieresis" unicode="&#xa8;" 
d="M948 1249q0 -64 -50.5 -114t-115.5 -50q-55 0 -92 38t-37 94q0 66 49 114.5t115 48.5q57 0 94 -37t37 -94zM559 1233q0 -16 -10 -41q-19 -46 -62 -76.5t-92 -30.5q-57 0 -94 37.5t-37 94.5q0 66 50 114.5t116 48.5q63 0 96 -41t33 -106z" />
    <glyph glyph-name="copyright" unicode="&#xa9;" horiz-adv-x="1556" 
d="M1516 682q0 -144 -56 -276t-150.5 -227.5t-226 -152.5t-276.5 -57t-277 57t-227.5 153t-152 228t-56.5 277t57 277t153 227.5t228 152t277 56.5q192 0 355 -97t257.5 -261.5t94.5 -356.5zM1352 682q0 150 -71 279.5t-197 207.5t-277 78t-278 -77t-199 -206t-72 -280
q0 -150 72 -280t199 -208.5t278 -78.5t277 78t197 207.5t71 279.5zM1018 553l-17 -262q-79 -33 -151 -33q-118 0 -202.5 59.5t-124.5 153t-40 209.5q0 188 105 307t291 119q71 0 127 -23v-260q-7 6 -26.5 24t-28 24t-26.5 13t-40 7q-51 0 -83.5 -35t-43 -78.5t-10.5 -93.5
q0 -36 6 -68.5t20 -63.5t41.5 -50t65.5 -19q12 0 23 1.5t22.5 6.5t19 8t19.5 12t16.5 12.5t19 15t17.5 14.5z" />
    <glyph glyph-name="ordfeminine" unicode="&#xaa;" horiz-adv-x="581" 
d="M571 762h-202l16 92q-26 -50 -63 -76q-40 -28 -80 -28q-64 0 -103 51q-41 52 -41 157q0 99 26 208t85 167q45 45 106 45q46 0 74 -26q30 -26 45 -74l4 88h207zM551 608h-496l13 99h495zM301 973q0 -29 10 -41q9 -12 25 -12q21 0 39 30q14 28 28 103q11 63 11 92
q0 33 -8 49q-10 16 -27 16q-15 0 -29 -14q-24 -24 -37 -100q-12 -70 -12 -123z" />
    <glyph glyph-name="guillemotleft" unicode="&#xab;" horiz-adv-x="993" 
d="M485 129l-174 -102l-254 462l367 463l145 -135l-274 -344zM895 129l-174 -102l-254 462l367 463l145 -135l-274 -344z" />
    <glyph glyph-name="logicalnot" unicode="&#xac;" 
d="M932 0h-266v307h-621v240h887v-547z" />
    <glyph glyph-name="uni00AD" unicode="&#xad;" horiz-adv-x="649" 
d="M537 381h-445l33 274h444z" />
    <glyph glyph-name="registered" unicode="&#xae;" horiz-adv-x="1556" 
d="M1112 315h-240l-110 293v-293h-223v768h223q139 0 227 -62.5t88 -197.5q0 -138 -125 -190zM762 731h10q37 0 59.5 26.5t22.5 63.5q0 42 -25.5 62t-66.5 20v-172zM1352 682q0 150 -71 279.5t-197 207.5t-277 78t-278 -77t-199 -206t-72 -280q0 -150 72 -280t199 -208.5
t278 -78.5t277 78t197 207.5t71 279.5zM1516 682q0 -144 -56 -276t-150.5 -227.5t-226 -152.5t-276.5 -57t-277 57t-227.5 153t-152 228t-56.5 277t57 277t153 227.5t228 152t277 56.5q192 0 355 -97t257.5 -261.5t94.5 -356.5z" />
    <glyph glyph-name="macron" unicode="&#xaf;" 
d="M961 1325l-25 -192h-686l24 192h687z" />
    <glyph glyph-name="degree" unicode="&#xb0;" 
d="M899 1042q0 -130 -93 -221.5t-224 -91.5q-129 0 -222.5 92t-93.5 221q0 128 94 219t222 91q130 0 223.5 -90t93.5 -220zM739 1042q0 64 -46 109t-111 45q-64 0 -110 -45t-46 -109t45.5 -109.5t110.5 -45.5t111 45t46 110z" />
    <glyph glyph-name="plusminus" unicode="&#xb1;" 
d="M965 731h-312v-315h-266v315h-309v246h309v313h266v-313h312v-246zM965 102h-887v246h887v-246z" />
    <glyph glyph-name="twosuperior" unicode="&#xb2;" horiz-adv-x="710" 
d="M395 1063h-225q11 137 95 227t218 90q109 0 174.5 -62t65.5 -169q0 -62 -21.5 -121.5t-62 -112.5t-79.5 -93t-93 -87q99 6 197 6l-23 -194h-578l267 301q36 41 56 65t51 67t46 83.5t15 77.5q0 20 -10 35.5t-29 15.5q-57 0 -64 -129z" />
    <glyph glyph-name="threesuperior" unicode="&#xb3;" horiz-adv-x="710" 
d="M395 1126h-221q22 115 101 184.5t194 69.5q101 0 169.5 -57t68.5 -156q0 -130 -117 -198q84 -53 84 -158q0 -122 -92.5 -200.5t-216.5 -78.5q-102 0 -177 53.5t-75 151.5q0 20 4 56h225q-2 -8 -2 -27q0 -45 43 -45q30 0 48 26t18 58q0 33 -20 50t-54 17q-17 0 -45 -4
l22 183q5 0 15.5 -1t15.5 -1q96 0 96 94q0 49 -35 49q-17 0 -28 -11.5t-14 -22t-7 -32.5z" />
    <glyph glyph-name="acute" unicode="&#xb4;" 
d="M895 1389l-215 -304h-201l133 304h283z" />
    <glyph glyph-name="mu" unicode="&#xb5;" horiz-adv-x="1191" 
d="M1055 0h-320l17 131q-27 -65 -76 -108q-51 -43 -125 -43q-80 0 -127 47q-45 45 -64 108l-69 -575h-320l170 1396h353l-56 -448q-6 -75 -6 -86q0 -83 39 -131q42 -49 109 -49q58 0 102 41q34 33 53.5 88t30.5 145l53 440h352z" />
    <glyph glyph-name="mu" unicode="&#x3bc;" horiz-adv-x="1191" 
d="M1055 0h-320l17 131q-27 -65 -76 -108q-51 -43 -125 -43q-80 0 -127 47q-45 45 -64 108l-69 -575h-320l170 1396h353l-56 -448q-6 -75 -6 -86q0 -83 39 -131q42 -49 109 -49q58 0 102 41q34 33 53.5 88t30.5 145l53 440h352z" />
    <glyph glyph-name="paragraph" unicode="&#xb6;" horiz-adv-x="1366" 
d="M1325 1366l-25 -205h-149l-166 -1366h-225l166 1366h-170l-168 -1366h-226l107 862h-27q-143 0 -233 79t-90 220q0 83 33 161.5t92 133.5q125 115 395 115h686z" />
    <glyph glyph-name="periodcentered" unicode="&#xb7;" horiz-adv-x="659" 
d="M596 723q0 -106 -81 -186t-187 -80q-91 0 -151 60t-60 151q0 106 80 187t186 81q92 0 152.5 -60.5t60.5 -152.5z" />
    <glyph glyph-name="cedilla" unicode="&#xb8;" 
d="M629 -217l-258 -240l-146 111l209 250z" />
    <glyph glyph-name="onesuperior" unicode="&#xb9;" horiz-adv-x="710" 
d="M614 1366l-100 -819h-229l75 620h-88l25 199h317z" />
    <glyph glyph-name="ordmasculine" unicode="&#xba;" horiz-adv-x="581" 
d="M111 1034q0 166 100 266q75 78 192 78q99 0 160 -63q66 -70 66 -193q0 -71 -23.5 -148.5t-77.5 -131.5q-76 -76 -192 -76q-98 0 -156 63q-69 72 -69 205zM559 608h-504l13 99h503zM387 1225q-16 0 -31 -15q-25 -25 -39 -100q-10 -61 -10 -109q0 -47 15 -65q11 -14 28 -14
t31 14q24 20 37 86q14 68 14 117q0 41 -12 63q-13 23 -33 23z" />
    <glyph glyph-name="guillemotright" unicode="&#xbb;" horiz-adv-x="993" 
d="M23 162l272 344l-189 344l175 102l251 -463l-364 -462zM432 162l273 344l-189 344l174 102l252 -463l-364 -462z" />
    <glyph glyph-name="onequarter" unicode="&#xbc;" horiz-adv-x="1701" 
d="M1630 346l-22 -182h-70l-20 -164h-230l21 164h-297l20 176l309 479h277l-57 -473h69zM614 1366l-100 -819h-229l75 620h-88l25 199h317zM1229 346h110q22 162 33 219q-82 -138 -143 -219zM1331 1366l-758 -1366h-188l762 1366h184z" />
    <glyph glyph-name="onehalf" unicode="&#xbd;" horiz-adv-x="1701" 
d="M1317 516h-223q11 137 95 227.5t218 90.5q109 0 174.5 -62t65.5 -170q0 -62 -21.5 -121.5t-62 -112.5t-79.5 -93t-93 -87q115 7 196 7l-22 -195h-578l266 301q30 34 43 49.5t42 53.5t43.5 64t27 61t12.5 65q0 21 -10.5 36t-30.5 15q-56 0 -63 -129zM614 1366l-100 -819
h-229l75 620h-88l25 199h317zM1331 1366l-758 -1366h-188l762 1366h184z" />
    <glyph glyph-name="threequarters" unicode="&#xbe;" horiz-adv-x="1701" 
d="M1630 346l-22 -182h-70l-20 -164h-230l21 164h-297l20 176l307 479h279l-57 -473h69zM395 1126h-221q22 115 101 184.5t194 69.5q101 0 169.5 -57t68.5 -156q0 -130 -117 -198q84 -53 84 -158q0 -122 -92.5 -200.5t-216.5 -78.5q-102 0 -177 53.5t-75 151.5q0 20 4 56
h225q-2 -8 -2 -27q0 -45 43 -45q30 0 48 26t18 58q0 33 -20 50t-54 17q-17 0 -45 -4l22 183q5 0 15.5 -1t15.5 -1q96 0 96 94q0 49 -35 49q-17 0 -28 -11.5t-14 -22t-7 -32.5zM1227 346h112q26 188 33 219q-83 -140 -145 -219zM1389 1366l-758 -1366h-189l762 1366h185z" />
    <glyph glyph-name="questiondown" unicode="&#xbf;" horiz-adv-x="1026" 
d="M758 793q0 -91 -69 -161.5t-161 -70.5q-79 0 -129.5 52t-50.5 132q0 91 70.5 161.5t161.5 70.5q77 0 127.5 -53.5t50.5 -130.5zM539 -23h350q-10 -88 -27.5 -143.5t-62.5 -120.5q-65 -92 -171 -143t-222 -51q-177 0 -281.5 106t-104.5 283q0 147 81.5 265.5t226.5 158.5
l18 133h346l-43 -328q-32 4 -53 4q-213 0 -213 -209q0 -110 61 -110q77 0 95 155z" />
    <glyph glyph-name="Agrave" unicode="&#xc0;" horiz-adv-x="1073" 
d="M1006 0h-375l-6 174h-244l-51 -174h-377l491 1366h445zM614 625v178q0 46 3.5 131t3.5 104q-3 -13 -20 -84t-28 -108q-14 -48 -50 -179t-58 -202h153q-4 106 -4 160zM778 1475h-200l-140 303h283z" />
    <glyph glyph-name="Aacute" unicode="&#xc1;" horiz-adv-x="1073" 
d="M1006 0h-375l-6 174h-244l-51 -174h-377l491 1366h445zM614 625v178q0 46 3.5 131t3.5 104q-3 -13 -20 -84t-28 -108q-14 -48 -50 -179t-58 -202h153q-4 106 -4 160zM956 1778l-215 -303h-200l133 303h282z" />
    <glyph glyph-name="Acircumflex" unicode="&#xc2;" horiz-adv-x="1073" 
d="M1006 0h-375l-6 174h-244l-51 -174h-377l491 1366h445zM614 625v178q0 46 3.5 131t3.5 104q-3 -13 -20 -84t-28 -108q-14 -48 -50 -179t-58 -202h153q-4 106 -4 160zM729 1782l254 -201l-133 -143l-145 112l-193 -116l-109 143z" />
    <glyph glyph-name="Atilde" unicode="&#xc3;" horiz-adv-x="1073" 
d="M1006 0h-375l-6 174h-244l-51 -174h-377l491 1366h445zM614 625v178q0 46 3.5 131t3.5 104q-3 -13 -20 -84t-28 -108q-14 -48 -50 -179t-58 -202h153q-4 106 -4 160zM846 1751h180q-10 -114 -73 -193t-173 -79q-52 0 -126 33.5t-101 33.5q-52 0 -64 -71h-182q7 66 25 114
q27 67 84.5 111.5t126.5 44.5q55 0 130 -34t107 -34q55 0 66 74z" />
    <glyph glyph-name="Adieresis" unicode="&#xc4;" horiz-adv-x="1073" 
d="M1006 0h-375l-6 174h-244l-51 -174h-377l491 1366h445zM614 625v178q0 46 3.5 131t3.5 104q-3 -13 -20 -84t-28 -108q-14 -48 -50 -179t-58 -202h153q-4 106 -4 160zM1030 1638q0 -64 -50.5 -113.5t-115.5 -49.5q-55 0 -92 37.5t-37 93.5q0 66 49 114.5t115 48.5
q57 0 94 -37t37 -94zM641 1622q0 -16 -10 -41q-19 -46 -62 -76t-92 -30q-57 0 -94 37t-37 94q0 66 50 114.5t116 48.5q63 0 96 -41t33 -106z" />
    <glyph glyph-name="Aring" unicode="&#xc5;" horiz-adv-x="1073" 
d="M1006 0h-375l-6 174h-244l-51 -174h-377l491 1366h445zM614 625v178q0 46 3.5 131t3.5 104q-3 -13 -20 -84t-28 -108q-14 -48 -50 -179t-58 -202h153q-4 106 -4 160zM487 1659q0 82 57.5 139t139.5 57t139.5 -57t57.5 -139q0 -81 -58 -139t-137 -58q-83 0 -141 58.5
t-58 138.5zM608 1659q0 -32 22 -54t54 -22t54 22t22 54t-22 54t-54 22t-54 -22t-22 -54z" />
    <glyph glyph-name="AE" unicode="&#xc6;" horiz-adv-x="1241" 
d="M1290 1366l-39 -322h-362l6 -198h303l-37 -309h-250l9 -209h243l-41 -328h-516l-4 174h-233l-50 -174h-376l479 1366h868zM449 457h151q-4 250 -4 377q0 66 4 202q-33 -148 -151 -579z" />
    <glyph glyph-name="Ccedilla" unicode="&#xc7;" horiz-adv-x="897" 
d="M944 1356l-47 -389q-37 42 -72 62t-86 20q-63 0 -113.5 -31t-82 -79.5t-52.5 -111t-29.5 -121t-8.5 -114.5q0 -52 9.5 -95.5t30.5 -82t60 -60.5t94 -22q97 0 199 88l-70 -395q-121 -50 -223 -50q-118 0 -211 45t-149.5 122.5t-85.5 176.5t-29 213q0 125 26.5 246.5
t82.5 233t135 195.5t193.5 134t248.5 50q57 0 93.5 -7t86.5 -28zM678 -231l-258 -254l-158 108l219 281z" />
    <glyph glyph-name="Egrave" unicode="&#xc8;" horiz-adv-x="829" 
d="M881 1366l-41 -322h-312l-24 -198h280l-39 -309h-278l-27 -209h312l-39 -328h-676l168 1366h676zM696 1475h-200l-140 303h283z" />
    <glyph glyph-name="Eacute" unicode="&#xc9;" horiz-adv-x="829" 
d="M881 1366l-41 -322h-312l-24 -198h280l-39 -309h-278l-27 -209h312l-39 -328h-676l168 1366h676zM854 1778l-215 -303h-201l133 303h283z" />
    <glyph glyph-name="Ecircumflex" unicode="&#xca;" horiz-adv-x="829" 
d="M881 1366l-41 -322h-312l-24 -198h280l-39 -309h-278l-27 -209h312l-39 -328h-676l168 1366h676zM616 1782l254 -201l-133 -143l-145 112l-193 -116l-108 143z" />
    <glyph glyph-name="Edieresis" unicode="&#xcb;" horiz-adv-x="829" 
d="M881 1366l-41 -322h-312l-24 -198h280l-39 -309h-278l-27 -209h312l-39 -328h-676l168 1366h676zM907 1638q0 -64 -50.5 -113.5t-115.5 -49.5q-55 0 -92 37.5t-37 93.5q0 66 49 114.5t115 48.5q57 0 94 -37t37 -94zM518 1622q0 -16 -10 -41q-19 -46 -62 -76t-92 -30
q-57 0 -94 37t-37 94q0 66 50 114.5t116 48.5q63 0 96 -41t33 -106z" />
    <glyph glyph-name="Igrave" unicode="&#xcc;" horiz-adv-x="550" 
d="M567 1366l-168 -1366h-362l168 1366h362zM522 1475h-200l-140 303h283z" />
    <glyph glyph-name="Iacute" unicode="&#xcd;" horiz-adv-x="550" 
d="M567 1366l-168 -1366h-362l168 1366h362zM659 1778l-215 -303h-200l133 303h282z" />
    <glyph glyph-name="Icircumflex" unicode="&#xce;" horiz-adv-x="550" 
d="M567 1366l-168 -1366h-362l168 1366h362zM453 1782l254 -201l-134 -143l-145 112l-192 -116l-109 143z" />
    <glyph glyph-name="Idieresis" unicode="&#xcf;" horiz-adv-x="550" 
d="M567 1366l-168 -1366h-362l168 1366h362zM754 1638q0 -64 -50.5 -113.5t-115.5 -49.5q-55 0 -92 37.5t-37 93.5q0 66 49 114.5t115 48.5q57 0 94 -37t37 -94zM365 1622q0 -13 -11 -41q-19 -46 -61.5 -76t-91.5 -30q-57 0 -94 37t-37 94q0 66 50 114.5t116 48.5
q63 0 96 -41t33 -106z" />
    <glyph glyph-name="Eth" unicode="&#xd0;" horiz-adv-x="1091" 
d="M211 1366h313q212 0 338 -90q102 -72 152.5 -197t50.5 -262q0 -148 -38.5 -294.5t-115.5 -260.5q-94 -141 -221.5 -201.5t-306.5 -60.5h-340l72 588h-80l28 225h80zM479 588l-33 -258q58 3 96 28t70 78q39 65 58.5 157.5t19.5 178.5q0 45 -6.5 85t-22.5 80.5t-49 64.5
t-80 24l-26 -213h102l-28 -225h-101z" />
    <glyph glyph-name="Ntilde" unicode="&#xd1;" horiz-adv-x="1134" 
d="M1151 1366l-168 -1366h-346l-121 502q-39 158 -57 284q-2 -36 -6.5 -108.5t-6.5 -108.5q-4 -67 -12 -146t-15 -135t-18.5 -149t-17.5 -139h-346l168 1366h346l123 -479q17 -65 40 -186.5t31 -157.5v50.5v53.5v50t0.5 53.5t1.5 49.5t2 53.5t2.5 49.5t3.5 53.5t5 50t6 52.5
l39 307h346zM897 1751h180q-10 -114 -73 -193t-173 -79q-52 0 -126 33.5t-101 33.5q-51 0 -63 -71h-183q7 66 25 114q27 67 84.5 111.5t126.5 44.5q55 0 130 -34t107 -34q55 0 66 74z" />
    <glyph glyph-name="Ograve" unicode="&#xd2;" horiz-adv-x="1142" 
d="M1118 864q0 -209 -53 -391q-24 -78 -58 -148.5t-83.5 -135.5t-108.5 -111.5t-135 -74.5t-160 -28q-103 0 -195 49t-151 134q-96 140 -96 381q0 206 59 383q33 95 83.5 177t119 148.5t159 105t191.5 38.5q86 0 158 -29.5t121 -80t83.5 -118t50 -143t15.5 -156.5zM741 836
q0 211 -96 211q-38 0 -71 -37t-54 -93t-33 -103.5t-18 -86.5q-14 -83 -14 -182q0 -223 98 -223q39 0 72.5 37.5t54 96t32 106t17.5 89.5q12 91 12 185zM809 1475h-201l-139 303h283z" />
    <glyph glyph-name="Oacute" unicode="&#xd3;" horiz-adv-x="1142" 
d="M1118 864q0 -209 -53 -391q-24 -78 -58 -148.5t-83.5 -135.5t-108.5 -111.5t-135 -74.5t-160 -28q-103 0 -195 49t-151 134q-96 140 -96 381q0 206 59 383q33 95 83.5 177t119 148.5t159 105t191.5 38.5q86 0 158 -29.5t121 -80t83.5 -118t50 -143t15.5 -156.5zM741 836
q0 211 -96 211q-38 0 -71 -37t-54 -93t-33 -103.5t-18 -86.5q-14 -83 -14 -182q0 -223 98 -223q39 0 72.5 37.5t54 96t32 106t17.5 89.5q12 91 12 185zM1008 1778l-215 -303h-201l133 303h283z" />
    <glyph glyph-name="Ocircumflex" unicode="&#xd4;" horiz-adv-x="1142" 
d="M1118 864q0 -209 -53 -391q-24 -78 -58 -148.5t-83.5 -135.5t-108.5 -111.5t-135 -74.5t-160 -28q-103 0 -195 49t-151 134q-96 140 -96 381q0 206 59 383q33 95 83.5 177t119 148.5t159 105t191.5 38.5q86 0 158 -29.5t121 -80t83.5 -118t50 -143t15.5 -156.5zM741 836
q0 211 -96 211q-38 0 -71 -37t-54 -93t-33 -103.5t-18 -86.5q-14 -83 -14 -182q0 -223 98 -223q39 0 72.5 37.5t54 96t32 106t17.5 89.5q12 91 12 185zM760 1782l254 -201l-133 -143l-146 112l-192 -116l-109 143z" />
    <glyph glyph-name="Otilde" unicode="&#xd5;" horiz-adv-x="1142" 
d="M1118 864q0 -209 -53 -391q-24 -78 -58 -148.5t-83.5 -135.5t-108.5 -111.5t-135 -74.5t-160 -28q-103 0 -195 49t-151 134q-96 140 -96 381q0 206 59 383q33 95 83.5 177t119 148.5t159 105t191.5 38.5q86 0 158 -29.5t121 -80t83.5 -118t50 -143t15.5 -156.5zM741 836
q0 211 -96 211q-38 0 -71 -37t-54 -93t-33 -103.5t-18 -86.5q-14 -83 -14 -182q0 -223 98 -223q39 0 72.5 37.5t54 96t32 106t17.5 89.5q12 91 12 185zM897 1751h180q-10 -114 -73 -193t-173 -79q-52 0 -126 33.5t-101 33.5q-51 0 -63 -71h-183q7 66 25 114
q27 67 84.5 111.5t126.5 44.5q55 0 130 -34t107 -34q55 0 66 74z" />
    <glyph glyph-name="Odieresis" unicode="&#xd6;" horiz-adv-x="1142" 
d="M1118 864q0 -209 -53 -391q-24 -78 -58 -148.5t-83.5 -135.5t-108.5 -111.5t-135 -74.5t-160 -28q-103 0 -195 49t-151 134q-96 140 -96 381q0 206 59 383q33 95 83.5 177t119 148.5t159 105t191.5 38.5q86 0 158 -29.5t121 -80t83.5 -118t50 -143t15.5 -156.5zM741 836
q0 211 -96 211q-38 0 -71 -37t-54 -93t-33 -103.5t-18 -86.5q-14 -83 -14 -182q0 -223 98 -223q39 0 72.5 37.5t54 96t32 106t17.5 89.5q12 91 12 185zM1061 1638q0 -64 -50.5 -113.5t-115.5 -49.5q-55 0 -92 37.5t-37 93.5q0 66 49 114.5t115 48.5q57 0 94 -37t37 -94z
M672 1622q0 -16 -10 -41q-19 -46 -62 -76t-92 -30q-57 0 -94 37t-37 94q0 66 50 114.5t116 48.5q63 0 96 -41t33 -106z" />
    <glyph glyph-name="multiply" unicode="&#xd7;" 
d="M766 295l-227 227l-228 -227l-174 174l228 227l-228 228l174 174l228 -228l227 228l174 -174l-227 -228l227 -227z" />
    <glyph glyph-name="Oslash" unicode="&#xd8;" horiz-adv-x="1200" 
d="M1241 1292l-139 -174q45 -136 45 -276q0 -182 -49 -353q-31 -101 -82 -190t-120.5 -163t-164.5 -117.5t-201 -43.5q-88 0 -157 30t-135 93l-111 -139l-117 90l146 189q-32 81 -44 138.5t-12 139.5q0 194 50 361q30 102 79 191.5t117.5 163t163 116.5t201.5 43
q93 0 165 -33t140 -103l104 131zM469 616l283 357q-8 36 -30 60t-56 24q-139 0 -196 -432q-1 -6 -1 -9zM778 745l-282 -356q6 -36 27.5 -58t56.5 -22q41 0 75 36t54.5 85t36 115.5t22 111.5t10.5 88z" />
    <glyph glyph-name="Ugrave" unicode="&#xd9;" horiz-adv-x="1099" 
d="M1116 1366l-119 -967q-12 -106 -51.5 -179t-122.5 -138q-136 -107 -317 -107q-188 0 -304 96.5t-116 280.5q0 50 6 99l113 915h362l-108 -883q-4 -46 -4 -67q0 -94 80 -94q32 0 53.5 14t32.5 42t15.5 49t8.5 56l109 883h362zM807 1475h-201l-139 303h283z" />
    <glyph glyph-name="Uacute" unicode="&#xda;" horiz-adv-x="1099" 
d="M1116 1366l-119 -967q-12 -106 -51.5 -179t-122.5 -138q-136 -107 -317 -107q-188 0 -304 96.5t-116 280.5q0 50 6 99l113 915h362l-108 -883q-4 -46 -4 -67q0 -94 80 -94q32 0 53.5 14t32.5 42t15.5 49t8.5 56l109 883h362zM944 1778l-215 -303h-201l134 303h282z" />
    <glyph glyph-name="Ucircumflex" unicode="&#xdb;" horiz-adv-x="1099" 
d="M1116 1366l-119 -967q-12 -106 -51.5 -179t-122.5 -138q-136 -107 -317 -107q-188 0 -304 96.5t-116 280.5q0 50 6 99l113 915h362l-108 -883q-4 -46 -4 -67q0 -94 80 -94q32 0 53.5 14t32.5 42t15.5 49t8.5 56l109 883h362zM729 1782l254 -201l-133 -143l-145 112
l-193 -116l-109 143z" />
    <glyph glyph-name="Udieresis" unicode="&#xdc;" horiz-adv-x="1099" 
d="M1116 1366l-119 -967q-12 -106 -51.5 -179t-122.5 -138q-136 -107 -317 -107q-188 0 -304 96.5t-116 280.5q0 50 6 99l113 915h362l-108 -883q-4 -46 -4 -67q0 -94 80 -94q32 0 53.5 14t32.5 42t15.5 49t8.5 56l109 883h362zM1030 1638q0 -64 -50.5 -113.5t-115.5 -49.5
q-55 0 -92 37.5t-37 93.5q0 66 49 114.5t115 48.5q57 0 94 -37t37 -94zM641 1622q0 -16 -10 -41q-19 -46 -62 -76t-92 -30q-57 0 -94 37t-37 94q0 66 50 114.5t116 48.5q63 0 96 -41t33 -106z" />
    <glyph glyph-name="Yacute" unicode="&#xdd;" horiz-adv-x="1009" 
d="M1120 1366l-409 -788l-72 -578h-363l72 578l-237 788h378q62 -295 76 -422q39 105 178 422h377zM926 1778l-215 -303h-201l133 303h283z" />
    <glyph glyph-name="Thorn" unicode="&#xde;" horiz-adv-x="1019" 
d="M567 1366l-22 -190q177 -4 280 -54q98 -48 146.5 -138t48.5 -204q0 -109 -38.5 -211.5t-111.5 -177.5q-132 -135 -381 -135h-57l-33 -256h-362l168 1366h362zM469 563h18q73 0 118.5 52t45.5 126q0 59 -31 97.5t-88 38.5q-12 0 -24 -3z" />
    <glyph glyph-name="germandbls" unicode="&#xdf;" horiz-adv-x="1060" 
d="M82 956h96q20 181 55 265q54 130 176.5 213.5t262.5 83.5q152 0 259 -98t107 -249q0 -74 -24 -141.5t-75.5 -120.5t-121.5 -71q72 -9 113 -50q84 -84 84 -243q0 -94 -37.5 -197.5t-97.5 -175.5q-136 -166 -379 -172l35 293q35 10 60 37.5t36 66.5t15.5 73.5t4.5 72.5
q0 25 -1.5 41.5t-8 38t-21.5 33.5t-38 14l34 286q25 2 43 18.5t26.5 41.5t12.5 48.5t4 47.5q0 88 -67 88q-26 0 -44 -11.5t-27.5 -32.5t-13.5 -40t-7 -45l-131 -1071h-351l82 670h-96z" />
    <glyph glyph-name="agrave" unicode="&#xe0;" horiz-adv-x="1001" 
d="M981 956l-117 -956h-350q5 27 15.5 81.5t15.5 80.5q-51 -86 -114.5 -134t-151.5 -48q-67 0 -115 34.5t-72 91.5t-34.5 115t-10.5 121q0 137 29 262q16 67 42.5 128.5t67 118.5t99.5 91.5t129 34.5q81 0 125.5 -44t76.5 -128q1 25 4.5 75t4.5 76h356zM578 590q0 94 -58 94
q-34 0 -59.5 -35.5t-38 -88t-18 -97.5t-5.5 -78q0 -113 64 -113q33 0 58 38.5t36 95.5t16 103.5t5 80.5zM707 1085h-201l-139 304h282z" />
    <glyph glyph-name="aacute" unicode="&#xe1;" horiz-adv-x="1001" 
d="M981 956l-117 -956h-350q5 27 15.5 81.5t15.5 80.5q-51 -86 -114.5 -134t-151.5 -48q-67 0 -115 34.5t-72 91.5t-34.5 115t-10.5 121q0 137 29 262q16 67 42.5 128.5t67 118.5t99.5 91.5t129 34.5q81 0 125.5 -44t76.5 -128q1 25 4.5 75t4.5 76h356zM578 590q0 94 -58 94
q-34 0 -59.5 -35.5t-38 -88t-18 -97.5t-5.5 -78q0 -113 64 -113q33 0 58 38.5t36 95.5t16 103.5t5 80.5zM844 1389l-215 -304h-201l133 304h283z" />
    <glyph glyph-name="acircumflex" unicode="&#xe2;" horiz-adv-x="1001" 
d="M981 956l-117 -956h-350q5 27 15.5 81.5t15.5 80.5q-51 -86 -114.5 -134t-151.5 -48q-67 0 -115 34.5t-72 91.5t-34.5 115t-10.5 121q0 137 29 262q16 67 42.5 128.5t67 118.5t99.5 91.5t129 34.5q81 0 125.5 -44t76.5 -128q1 25 4.5 75t4.5 76h356zM578 590q0 94 -58 94
q-34 0 -59.5 -35.5t-38 -88t-18 -97.5t-5.5 -78q0 -113 64 -113q33 0 58 38.5t36 95.5t16 103.5t5 80.5zM668 1413l237 -239l-131 -130l-133 136l-184 -144l-109 138z" />
    <glyph glyph-name="atilde" unicode="&#xe3;" horiz-adv-x="1001" 
d="M981 956l-117 -956h-350q5 27 15.5 81.5t15.5 80.5q-51 -86 -114.5 -134t-151.5 -48q-67 0 -115 34.5t-72 91.5t-34.5 115t-10.5 121q0 137 29 262q16 67 42.5 128.5t67 118.5t99.5 91.5t129 34.5q81 0 125.5 -44t76.5 -128q1 25 4.5 75t4.5 76h356zM578 590q0 94 -58 94
q-34 0 -59.5 -35.5t-38 -88t-18 -97.5t-5.5 -78q0 -113 64 -113q33 0 58 38.5t36 95.5t16 103.5t5 80.5zM815 1362h180q-10 -114 -72.5 -193t-172.5 -79q-52 0 -126.5 33.5t-101.5 33.5q-51 0 -63 -72h-183q7 67 25 115q27 67 84.5 111.5t126.5 44.5q55 0 130.5 -34
t107.5 -34q54 0 65 74z" />
    <glyph glyph-name="adieresis" unicode="&#xe4;" horiz-adv-x="1001" 
d="M981 956l-117 -956h-350q5 27 15.5 81.5t15.5 80.5q-51 -86 -114.5 -134t-151.5 -48q-67 0 -115 34.5t-72 91.5t-34.5 115t-10.5 121q0 137 29 262q16 67 42.5 128.5t67 118.5t99.5 91.5t129 34.5q81 0 125.5 -44t76.5 -128q1 25 4.5 75t4.5 76h356zM578 590q0 94 -58 94
q-34 0 -59.5 -35.5t-38 -88t-18 -97.5t-5.5 -78q0 -113 64 -113q33 0 58 38.5t36 95.5t16 103.5t5 80.5zM979 1249q0 -64 -50.5 -114t-115.5 -50q-55 0 -92 38t-37 94q0 66 49 114.5t115 48.5q57 0 94 -37t37 -94zM590 1233q0 -16 -10 -41q-19 -46 -62 -76.5t-92 -30.5
q-57 0 -94 37.5t-37 94.5q0 66 50 114.5t116 48.5q63 0 96 -41t33 -106z" />
    <glyph glyph-name="aring" unicode="&#xe5;" horiz-adv-x="1001" 
d="M981 956l-117 -956h-350q5 27 15.5 81.5t15.5 80.5q-51 -86 -114.5 -134t-151.5 -48q-67 0 -115 34.5t-72 91.5t-34.5 115t-10.5 121q0 137 29 262q16 67 42.5 128.5t67 118.5t99.5 91.5t129 34.5q81 0 125.5 -44t76.5 -128q1 25 4.5 75t4.5 76h356zM578 590q0 94 -58 94
q-34 0 -59.5 -35.5t-38 -88t-18 -97.5t-5.5 -78q0 -113 64 -113q33 0 58 38.5t36 95.5t16 103.5t5 80.5zM385 1268q0 82 57.5 139t139.5 57t139 -57t57 -139t-57 -139.5t-139 -57.5t-139.5 57.5t-57.5 139.5zM506 1268q0 -32 22 -54t54 -22t53.5 22t21.5 54t-21.5 53.5
t-53.5 21.5t-54 -21.5t-22 -53.5z" />
    <glyph glyph-name="ae" unicode="&#xe6;" horiz-adv-x="1482" 
d="M180 657l35 277q162 43 287 43q90 0 154 -19.5t122 -74.5q140 94 283 94q180 0 277.5 -115t97.5 -297q0 -46 -17 -159h-516q0 -6 -1 -18.5t-1 -18.5q0 -127 76 -127q56 0 88 71l330 -6q-34 -90 -74.5 -149t-110.5 -105q-114 -73 -276 -73q-81 0 -144 22.5t-122 75.5
q-153 -98 -316 -98q-136 0 -227.5 77.5t-91.5 210.5q0 161 108.5 254.5t272.5 93.5q81 0 176 -20q-2 117 -170 117q-122 0 -240 -56zM928 596h176q0 133 -74 133q-25 0 -43.5 -12t-30 -35t-17 -41t-11.5 -45zM559 319q0 35 -24 53.5t-60 18.5q-41 0 -71.5 -28t-30.5 -68
q0 -36 23 -54t61 -18q44 0 73 26.5t29 69.5z" />
    <glyph glyph-name="ccedilla" unicode="&#xe7;" horiz-adv-x="610" 
d="M633 973l-39 -311q-84 -6 -131 -61t-47 -140q0 -58 29 -104t83 -46h23l-39 -325q-46 -6 -94 -6q-92 0 -163.5 34.5t-115 95t-66 136.5t-22.5 164q0 107 38 209.5t104 181.5t163 127.5t207 48.5q24 0 70 -4zM508 -217l-258 -240l-146 111l209 250z" />
    <glyph glyph-name="egrave" unicode="&#xe8;" horiz-adv-x="970" 
d="M545 322h340q-54 -164 -173 -253t-288 -89q-182 0 -279.5 104t-97.5 287q0 89 21.5 176t64.5 164t103 136t142.5 93.5t176.5 34.5q178 0 273.5 -114.5t95.5 -295.5q0 -49 -17 -162h-512q-2 -12 -2 -38q0 -109 66 -109q29 0 53 19t33 47zM424 594h162q0 4 1 12t1 12
q0 39 -17 68t-53 29q-41 0 -65 -37t-29 -84zM711 1085h-201l-139 304h282z" />
    <glyph glyph-name="eacute" unicode="&#xe9;" horiz-adv-x="970" 
d="M545 322h340q-54 -164 -173 -253t-288 -89q-182 0 -279.5 104t-97.5 287q0 89 21.5 176t64.5 164t103 136t142.5 93.5t176.5 34.5q178 0 273.5 -114.5t95.5 -295.5q0 -49 -17 -162h-512q-2 -12 -2 -38q0 -109 66 -109q29 0 53 19t33 47zM424 594h162q0 4 1 12t1 12
q0 39 -17 68t-53 29q-41 0 -65 -37t-29 -84zM868 1389l-215 -304h-200l133 304h282z" />
    <glyph glyph-name="ecircumflex" unicode="&#xea;" horiz-adv-x="970" 
d="M545 322h340q-54 -164 -173 -253t-288 -89q-182 0 -279.5 104t-97.5 287q0 89 21.5 176t64.5 164t103 136t142.5 93.5t176.5 34.5q178 0 273.5 -114.5t95.5 -295.5q0 -49 -17 -162h-512q-2 -12 -2 -38q0 -109 66 -109q29 0 53 19t33 47zM424 594h162q0 4 1 12t1 12
q0 39 -17 68t-53 29q-41 0 -65 -37t-29 -84zM637 1413l237 -239l-131 -130l-133 136l-184 -144l-109 138z" />
    <glyph glyph-name="edieresis" unicode="&#xeb;" horiz-adv-x="970" 
d="M545 322h340q-54 -164 -173 -253t-288 -89q-182 0 -279.5 104t-97.5 287q0 89 21.5 176t64.5 164t103 136t142.5 93.5t176.5 34.5q178 0 273.5 -114.5t95.5 -295.5q0 -49 -17 -162h-512q-2 -12 -2 -38q0 -109 66 -109q29 0 53 19t33 47zM424 594h162q0 4 1 12t1 12
q0 39 -17 68t-53 29q-41 0 -65 -37t-29 -84zM922 1249q0 -64 -50.5 -114t-115.5 -50q-55 0 -92 38t-37 94q0 66 49 114.5t115 48.5q57 0 94 -37t37 -94zM532 1233q0 -16 -10 -41q-19 -46 -61.5 -76.5t-91.5 -30.5q-57 0 -94 37.5t-37 94.5q0 66 49.5 114.5t115.5 48.5
q63 0 96 -41t33 -106z" />
    <glyph glyph-name="igrave" unicode="&#xec;" horiz-adv-x="509" 
d="M489 956l-116 -956h-350l118 956h348zM461 1085h-201l-139 304h282z" />
    <glyph glyph-name="iacute" unicode="&#xed;" horiz-adv-x="509" 
d="M489 956l-116 -956h-350l118 956h348zM598 1389l-215 -304h-201l133 304h283z" />
    <glyph glyph-name="icircumflex" unicode="&#xee;" horiz-adv-x="509" 
d="M489 956l-116 -956h-350l118 956h348zM381 1413l237 -239l-131 -130l-133 136l-184 -144l-109 138z" />
    <glyph glyph-name="idieresis" unicode="&#xef;" horiz-adv-x="509" 
d="M489 956l-116 -956h-350l118 956h348zM672 1249q0 -64 -50.5 -114t-115.5 -50q-55 0 -92 38t-37 94q0 66 49 114.5t115 48.5q57 0 94 -37t37 -94zM283 1233q0 -13 -11 -41q-19 -46 -61.5 -76.5t-91.5 -30.5q-57 0 -94 37.5t-37 94.5q0 66 50 114.5t116 48.5q63 0 96 -41
t33 -106z" />
    <glyph glyph-name="eth" unicode="&#xf0;" horiz-adv-x="985" 
d="M852 1358l-143 -76q117 -115 176 -281.5t59 -343.5q0 -318 -129 -487q-145 -190 -379 -190q-190 0 -288.5 108.5t-98.5 300.5q0 87 20 171t61.5 158.5t98.5 131t136.5 90t171.5 35.5q-22 104 -70 180l-197 -111l-67 144l159 88q-79 60 -157 98l106 142q148 -44 262 -127
l201 108zM596 549q0 24 -2.5 46.5t-10 50t-24 44.5t-41.5 17q-35 0 -62.5 -37t-41 -90t-20.5 -99.5t-7 -77.5q0 -23 2.5 -45.5t9.5 -50t23.5 -44.5t40.5 -17q36 0 63.5 36.5t41.5 89t21 99t7 78.5z" />
    <glyph glyph-name="ntilde" unicode="&#xf1;" horiz-adv-x="989" 
d="M141 956h348q-29 -177 -30 -182q109 203 274 203q97 0 151 -69t54 -169q0 -45 -6 -88l-80 -651h-350l63 506q4 36 4 53q0 64 -47 64q-73 0 -90 -142l-59 -481h-350zM768 1362h180q-10 -114 -73 -193t-173 -79q-52 0 -126 33.5t-101 33.5q-51 0 -63 -72h-183q7 67 25 115
q27 67 84.5 111.5t126.5 44.5q55 0 130 -34t107 -34q55 0 66 74z" />
    <glyph glyph-name="ograve" unicode="&#xf2;" horiz-adv-x="983" 
d="M934 573q0 -120 -32 -225.5t-93 -188t-160 -131t-223 -48.5q-185 0 -281 110.5t-96 298.5q0 113 34 217.5t96 187.5t159.5 133t214.5 50q182 0 281.5 -110t99.5 -294zM596 551q0 158 -76 158q-35 0 -62.5 -36t-41 -88.5t-20.5 -99t-7 -79.5q0 -24 2.5 -46.5t9.5 -50
t23.5 -44.5t40.5 -17q35 0 62.5 36t41 88.5t20.5 99t7 79.5zM676 1085h-201l-139 304h282z" />
    <glyph glyph-name="oacute" unicode="&#xf3;" horiz-adv-x="983" 
d="M934 573q0 -120 -32 -225.5t-93 -188t-160 -131t-223 -48.5q-185 0 -281 110.5t-96 298.5q0 113 34 217.5t96 187.5t159.5 133t214.5 50q182 0 281.5 -110t99.5 -294zM596 551q0 158 -76 158q-35 0 -62.5 -36t-41 -88.5t-20.5 -99t-7 -79.5q0 -24 2.5 -46.5t9.5 -50
t23.5 -44.5t40.5 -17q35 0 62.5 36t41 88.5t20.5 99t7 79.5zM895 1389l-215 -304h-201l133 304h283z" />
    <glyph glyph-name="ocircumflex" unicode="&#xf4;" horiz-adv-x="983" 
d="M934 573q0 -120 -32 -225.5t-93 -188t-160 -131t-223 -48.5q-185 0 -281 110.5t-96 298.5q0 113 34 217.5t96 187.5t159.5 133t214.5 50q182 0 281.5 -110t99.5 -294zM596 551q0 158 -76 158q-35 0 -62.5 -36t-41 -88.5t-20.5 -99t-7 -79.5q0 -24 2.5 -46.5t9.5 -50
t23.5 -44.5t40.5 -17q35 0 62.5 36t41 88.5t20.5 99t7 79.5zM637 1413l237 -239l-131 -130l-133 136l-184 -144l-109 138z" />
    <glyph glyph-name="otilde" unicode="&#xf5;" horiz-adv-x="983" 
d="M934 573q0 -120 -32 -225.5t-93 -188t-160 -131t-223 -48.5q-185 0 -281 110.5t-96 298.5q0 113 34 217.5t96 187.5t159.5 133t214.5 50q182 0 281.5 -110t99.5 -294zM596 551q0 158 -76 158q-35 0 -62.5 -36t-41 -88.5t-20.5 -99t-7 -79.5q0 -24 2.5 -46.5t9.5 -50
t23.5 -44.5t40.5 -17q35 0 62.5 36t41 88.5t20.5 99t7 79.5zM764 1362h180q-10 -114 -73 -193t-173 -79q-52 0 -126 33.5t-101 33.5q-51 0 -63 -72h-183q7 67 25 115q27 67 84.5 111.5t126.5 44.5q55 0 130 -34t107 -34q55 0 66 74z" />
    <glyph glyph-name="odieresis" unicode="&#xf6;" horiz-adv-x="983" 
d="M934 573q0 -120 -32 -225.5t-93 -188t-160 -131t-223 -48.5q-185 0 -281 110.5t-96 298.5q0 113 34 217.5t96 187.5t159.5 133t214.5 50q182 0 281.5 -110t99.5 -294zM596 551q0 158 -76 158q-35 0 -62.5 -36t-41 -88.5t-20.5 -99t-7 -79.5q0 -24 2.5 -46.5t9.5 -50
t23.5 -44.5t40.5 -17q35 0 62.5 36t41 88.5t20.5 99t7 79.5zM928 1249q0 -64 -50.5 -114t-115.5 -50q-55 0 -92 38t-37 94q0 66 49 114.5t115 48.5q57 0 94 -37t37 -94zM539 1233q0 -13 -11 -41q-19 -46 -61.5 -76.5t-91.5 -30.5q-57 0 -94 37.5t-37 94.5q0 66 50 114.5
t116 48.5q63 0 96 -41t33 -106z" />
    <glyph glyph-name="divide" unicode="&#xf7;" 
d="M692 1044q0 -62 -45 -106.5t-106 -44.5q-63 0 -108.5 44t-45.5 107t44.5 107.5t107.5 44.5t108 -44t45 -108zM983 573h-887v246h887v-246zM692 348q0 -62 -45 -106.5t-106 -44.5q-63 0 -108.5 44t-45.5 107t44.5 107.5t107.5 44.5t108 -44t45 -108z" />
    <glyph glyph-name="oslash" unicode="&#xf8;" horiz-adv-x="983" 
d="M991 967l-119 -148q64 -104 64 -258q0 -116 -33.5 -220.5t-96.5 -185t-161 -128t-219 -47.5q-64 0 -104 8t-93 35l-110 -138l-123 99l119 149q-66 110 -66 256q0 111 34.5 215.5t96.5 188t158.5 134t212.5 50.5q113 0 205 -49l110 135zM596 551q0 158 -76 158
q-35 0 -62.5 -36t-41 -88.5t-20.5 -99t-7 -79.5q0 -24 2.5 -46.5t9.5 -50t23.5 -44.5t40.5 -17q35 0 62.5 36t41 88.5t20.5 99t7 79.5z" />
    <glyph glyph-name="ugrave" unicode="&#xf9;" horiz-adv-x="1007" 
d="M987 956l-72 -587q-13 -104 -52 -175t-122 -126q-136 -88 -297 -88q-102 0 -186 32.5t-139.5 105.5t-55.5 177q0 15 3 41t4 33l71 587h348l-65 -538q0 -3 -3 -30t-3 -42q0 -70 63 -70q16 0 29 5.5t21.5 12t15.5 21.5l10.5 22.5t7 28t4 26t2.5 26.5l66 538h350zM666 1085
h-201l-139 304h282z" />
    <glyph glyph-name="uacute" unicode="&#xfa;" horiz-adv-x="1007" 
d="M987 956l-72 -587q-13 -104 -52 -175t-122 -126q-136 -88 -297 -88q-102 0 -186 32.5t-139.5 105.5t-55.5 177q0 15 3 41t4 33l71 587h348l-65 -538q0 -3 -3 -30t-3 -42q0 -70 63 -70q16 0 29 5.5t21.5 12t15.5 21.5l10.5 22.5t7 28t4 26t2.5 26.5l66 538h350zM864 1389
l-215 -304h-200l133 304h282z" />
    <glyph glyph-name="ucircumflex" unicode="&#xfb;" horiz-adv-x="1007" 
d="M987 956l-72 -587q-13 -104 -52 -175t-122 -126q-136 -88 -297 -88q-102 0 -186 32.5t-139.5 105.5t-55.5 177q0 15 3 41t4 33l71 587h348l-65 -538q0 -3 -3 -30t-3 -42q0 -70 63 -70q16 0 29 5.5t21.5 12t15.5 21.5l10.5 22.5t7 28t4 26t2.5 26.5l66 538h350zM629 1413
l237 -239l-131 -130l-133 136l-184 -144l-109 138z" />
    <glyph glyph-name="udieresis" unicode="&#xfc;" horiz-adv-x="1007" 
d="M987 956l-72 -587q-13 -104 -52 -175t-122 -126q-136 -88 -297 -88q-102 0 -186 32.5t-139.5 105.5t-55.5 177q0 15 3 41t4 33l71 587h348l-65 -538q0 -3 -3 -30t-3 -42q0 -70 63 -70q16 0 29 5.5t21.5 12t15.5 21.5l10.5 22.5t7 28t4 26t2.5 26.5l66 538h350zM940 1249
q0 -64 -50.5 -114t-115.5 -50q-55 0 -92 38t-37 94q0 66 49 114.5t115 48.5q57 0 94 -37t37 -94zM551 1233q0 -16 -10 -41q-19 -46 -62 -76.5t-92 -30.5q-57 0 -94 37.5t-37 94.5q0 66 50 114.5t116 48.5q63 0 96 -41t33 -106z" />
    <glyph glyph-name="yacute" unicode="&#xfd;" horiz-adv-x="937" 
d="M997 956l-616 -1396h-361l226 479l-168 917h352q5 -40 14.5 -117t15 -125t10.5 -115t5 -124q0 -10 -1 -30.5t-1 -30.5q8 28 22.5 83t23.5 88.5t23.5 80t28.5 84.5l78 206h348zM844 1389l-215 -304h-201l133 304h283z" />
    <glyph glyph-name="thorn" unicode="&#xfe;" horiz-adv-x="1003" 
d="M563 1493l-65 -537q-4 -34 -27 -135q48 76 102.5 116t133.5 40q58 0 103 -25t72.5 -63.5t45 -91t24 -102t6.5 -101.5q0 -69 -11 -146t-38.5 -161.5t-67.5 -152t-104.5 -111t-142.5 -43.5q-77 0 -122.5 36.5t-84.5 112.5q-10 -195 -65 -569h-351l242 1933h350zM596 553
q0 131 -61 131q-31 0 -54.5 -34t-35 -83t-16.5 -90t-5 -69q0 -129 57 -129q31 0 55.5 33.5t36.5 81.5t17.5 89.5t5.5 69.5z" />
    <glyph glyph-name="ydieresis" unicode="&#xff;" horiz-adv-x="937" 
d="M997 956l-616 -1396h-361l226 479l-168 917h352q5 -40 14.5 -117t15 -125t10.5 -115t5 -124q0 -10 -1 -30.5t-1 -30.5q8 28 22.5 83t23.5 88.5t23.5 80t28.5 84.5l78 206h348zM897 1249q0 -64 -50.5 -114t-115.5 -50q-55 0 -92 38t-37 94q0 66 49 114.5t115 48.5
q57 0 94 -37t37 -94zM508 1233q0 -16 -10 -41q-19 -46 -62 -76.5t-92 -30.5q-57 0 -94 37.5t-37 94.5q0 66 50 114.5t116 48.5q63 0 96 -41t33 -106z" />
    <glyph glyph-name="Amacron" unicode="&#x100;" horiz-adv-x="1073" 
d="M1006 0h-375l-6 174h-244l-51 -174h-377l491 1366h445zM614 625v178q0 46 3.5 131t3.5 104q-3 -13 -20 -84t-28 -108q-14 -48 -50 -179t-58 -202h153q-4 106 -4 160zM1032 1714l-24 -192h-686l24 192h686z" />
    <glyph glyph-name="amacron" unicode="&#x101;" horiz-adv-x="1001" 
d="M981 956l-117 -956h-350q5 27 15.5 81.5t15.5 80.5q-51 -86 -114.5 -134t-151.5 -48q-67 0 -115 34.5t-72 91.5t-34.5 115t-10.5 121q0 137 29 262q16 67 42.5 128.5t67 118.5t99.5 91.5t129 34.5q81 0 125.5 -44t76.5 -128q1 25 4.5 75t4.5 76h356zM578 590q0 94 -58 94
q-34 0 -59.5 -35.5t-38 -88t-18 -97.5t-5.5 -78q0 -113 64 -113q33 0 58 38.5t36 95.5t16 103.5t5 80.5zM961 1325l-25 -192h-686l24 192h687z" />
    <glyph glyph-name="Abreve" unicode="&#x102;" horiz-adv-x="1073" 
d="M1006 0h-375l-6 174h-244l-51 -174h-377l491 1366h445zM614 625v178q0 46 3.5 131t3.5 104q-3 -13 -20 -84t-28 -108q-14 -48 -50 -179t-58 -202h153q-4 106 -4 160zM897 1774h141q-30 -139 -125 -221.5t-235 -82.5q-125 0 -206 73t-81 196v35h141q18 -65 57 -87t111 -22
q76 0 120.5 23t76.5 86z" />
    <glyph glyph-name="abreve" unicode="&#x103;" horiz-adv-x="1001" 
d="M981 956l-117 -956h-350q5 27 15.5 81.5t15.5 80.5q-51 -86 -114.5 -134t-151.5 -48q-67 0 -115 34.5t-72 91.5t-34.5 115t-10.5 121q0 137 29 262q16 67 42.5 128.5t67 118.5t99.5 91.5t129 34.5q81 0 125.5 -44t76.5 -128q1 25 4.5 75t4.5 76h356zM578 590q0 94 -58 94
q-34 0 -59.5 -35.5t-38 -88t-18 -97.5t-5.5 -78q0 -113 64 -113q33 0 58 38.5t36 95.5t16 103.5t5 80.5zM815 1370h141q-30 -139 -125 -221t-235 -82q-125 0 -206 72.5t-81 195.5v35h142q18 -65 56.5 -86.5t110.5 -21.5q76 0 120.5 22.5t76.5 85.5z" />
    <glyph glyph-name="Aogonek" unicode="&#x104;" horiz-adv-x="1073" 
d="M444 1366h445l117 -1366h-123q-30 -34 -49 -74q-19 -38 -19 -71q0 -26 16 -45q18 -21 56 -21q33 0 74 18l-35 -157q-61 -25 -123 -25q-87 0 -137 43q-48 41 -48 113q0 70 46 131q26 35 88 88h-121l-6 174h-244l-51 -174h-377zM614 625v178q0 26 1.5 67.5t3 92.5t2.5 75
q-39 -175 -74 -286q-7 -22 -15.5 -52.5t-26.5 -94.5t-40 -140h153z" />
    <glyph glyph-name="aogonek" unicode="&#x105;" horiz-adv-x="1001" 
d="M981 956l-117 -956h-106q-32 -40 -47 -70q-21 -42 -21 -69q0 -29 21 -47q17 -17 49 -17q33 0 71 19l-34 -150q-58 -24 -125 -24q-88 0 -135 49q-39 42 -39 106q0 63 41 119q26 38 88 84h-113l31 162q-25 -46 -72 -96q-82 -86 -188 -86q-95 0 -150 61q-88 93 -88 313
q0 154 44 303.5t128 233.5q86 86 195 86q79 0 131 -49q23 -21 42.5 -55.5t28.5 -67.5l9 151h356zM520 684q-27 0 -49 -22q-36 -36 -53 -119q-19 -78 -19 -164q0 -65 25 -90q17 -17 39 -17t45 23q36 36 55 141q15 81 15 150q0 66 -23 86q-12 12 -35 12z" />
    <glyph glyph-name="Cacute" unicode="&#x106;" horiz-adv-x="897" 
d="M944 1356l-47 -389q-37 42 -72 62t-86 20q-63 0 -113.5 -31t-82 -79.5t-52.5 -111t-29.5 -121t-8.5 -114.5q0 -52 9.5 -95.5t30.5 -82t60 -60.5t94 -22q97 0 199 88l-70 -395q-121 -50 -223 -50q-118 0 -211 45t-149.5 122.5t-85.5 176.5t-29 213q0 125 26.5 246.5
t82.5 233t135 195.5t193.5 134t248.5 50q57 0 93.5 -7t86.5 -28zM1059 1778l-215 -303h-201l133 303h283z" />
    <glyph glyph-name="cacute" unicode="&#x107;" horiz-adv-x="610" 
d="M633 973l-39 -311q-84 -6 -131 -61t-47 -140q0 -58 29 -104t83 -46h23l-39 -325q-46 -6 -94 -6q-92 0 -163.5 34.5t-115 95t-66 136.5t-22.5 164q0 107 38 209.5t104 181.5t163 127.5t207 48.5q24 0 70 -4zM834 1389l-216 -304h-200l133 304h283z" />
    <glyph glyph-name="Ccircumflex" unicode="&#x108;" horiz-adv-x="897" 
d="M944 1356l-47 -389q-37 42 -72 62t-86 20q-63 0 -113.5 -31t-82 -79.5t-52.5 -111t-29.5 -121t-8.5 -114.5q0 -52 9.5 -95.5t30.5 -82t60 -60.5t94 -22q97 0 199 88l-70 -395q-121 -50 -223 -50q-118 0 -211 45t-149.5 122.5t-85.5 176.5t-29 213q0 125 26.5 246.5
t82.5 233t135 195.5t193.5 134t248.5 50q57 0 93.5 -7t86.5 -28zM811 1782l254 -201l-133 -143l-146 112l-192 -116l-109 143z" />
    <glyph glyph-name="ccircumflex" unicode="&#x109;" horiz-adv-x="610" 
d="M633 973l-39 -311q-84 -6 -131 -61t-47 -140q0 -58 29 -104t83 -46h23l-39 -325q-46 -6 -94 -6q-92 0 -163.5 34.5t-115 95t-66 136.5t-22.5 164q0 107 38 209.5t104 181.5t163 127.5t207 48.5q24 0 70 -4zM535 1413l237 -239l-131 -130l-133 136l-184 -144l-109 138z
" />
    <glyph glyph-name="Cdotaccent" unicode="&#x10a;" horiz-adv-x="897" 
d="M944 1356l-47 -389q-37 42 -72 62t-86 20q-63 0 -113.5 -31t-82 -79.5t-52.5 -111t-29.5 -121t-8.5 -114.5q0 -52 9.5 -95.5t30.5 -82t60 -60.5t94 -22q97 0 199 88l-70 -395q-121 -50 -223 -50q-118 0 -211 45t-149.5 122.5t-85.5 176.5t-29 213q0 125 26.5 246.5
t82.5 233t135 195.5t193.5 134t248.5 50q57 0 93.5 -7t86.5 -28zM948 1630q0 -23 -12 -43q-19 -50 -63.5 -81t-96.5 -31q-58 0 -97.5 39.5t-39.5 97.5q0 69 51.5 120.5t120.5 51.5q68 0 102.5 -42.5t34.5 -111.5z" />
    <glyph glyph-name="cdotaccent" unicode="&#x10b;" horiz-adv-x="610" 
d="M633 973l-39 -311q-84 -6 -131 -61t-47 -140q0 -58 29 -104t83 -46h23l-39 -325q-46 -6 -94 -6q-92 0 -163.5 34.5t-115 95t-66 136.5t-22.5 164q0 107 38 209.5t104 181.5t163 127.5t207 48.5q24 0 70 -4zM727 1241q0 -23 -12 -43q-19 -50 -63.5 -81.5t-96.5 -31.5
q-58 0 -97.5 39.5t-39.5 98.5q0 69 51.5 120.5t120.5 51.5q68 0 102.5 -42.5t34.5 -111.5z" />
    <glyph glyph-name="Ccaron" unicode="&#x10c;" horiz-adv-x="897" 
d="M944 1356l-47 -389q-37 42 -72 62t-86 20q-63 0 -113.5 -31t-82 -79.5t-52.5 -111t-29.5 -121t-8.5 -114.5q0 -52 9.5 -95.5t30.5 -82t60 -60.5t94 -22q97 0 199 88l-70 -395q-121 -50 -223 -50q-118 0 -211 45t-149.5 122.5t-85.5 176.5t-29 213q0 125 26.5 246.5
t82.5 233t135 195.5t193.5 134t248.5 50q57 0 93.5 -7t86.5 -28zM1098 1642l-340 -200l-248 211l145 129l144 -119l188 115z" />
    <glyph glyph-name="ccaron" unicode="&#x10d;" horiz-adv-x="610" 
d="M633 973l-39 -311q-84 -6 -131 -61t-47 -140q0 -58 29 -104t83 -46h23l-39 -325q-46 -6 -94 -6q-92 0 -163.5 34.5t-115 95t-66 136.5t-22.5 164q0 107 38 209.5t104 181.5t163 127.5t207 48.5q24 0 70 -4zM840 1276l-326 -229l-242 241l146 125l131 -133l178 133z" />
    <glyph glyph-name="Dcaron" unicode="&#x10e;" horiz-adv-x="1083" 
d="M205 1366h313q258 0 399.5 -146.5t141.5 -404.5q0 -145 -39.5 -292.5t-114.5 -260.5q-95 -142 -222 -202t-306 -60h-340zM526 1024l-86 -694q70 4 120.5 50t76 117t36.5 139t11 134q0 254 -158 254zM934 1642l-340 -200l-248 211l146 129l143 -119l188 115z" />
    <glyph glyph-name="dcaron" unicode="&#x10f;" horiz-adv-x="1468" 
d="M1047 1493l-183 -1493h-356q1 25 10.5 70t11.5 59q-54 -73 -106 -111t-127 -38q-71 0 -122.5 31.5t-78.5 85.5t-39 113t-12 126q0 139 29 264q13 53 32 103t49.5 101t67 88.5t86.5 61t107 23.5q79 0 125 -40t80 -120q5 80 15 176.5t17 155.5t23.5 182.5t21.5 161.5h349z
M590 561q0 121 -60 121q-34 0 -59 -32.5t-37 -81t-17 -90t-5 -75.5q0 -19 3 -37t9.5 -37.5t21 -31.5t33.5 -12q32 0 55.5 32.5t34.5 81.5t16 90t5 72zM1489 1366l-205 -453h-213l119 453h299z" />
    <glyph glyph-name="Dcroat" unicode="&#x110;" horiz-adv-x="1091" 
d="M211 1366h313q212 0 338 -90q102 -72 152.5 -197t50.5 -262q0 -148 -38.5 -294.5t-115.5 -260.5q-94 -141 -221.5 -201.5t-306.5 -60.5h-340l72 588h-80l28 225h80zM479 588l-33 -258q58 3 96 28t70 78q39 65 58.5 157.5t19.5 178.5q0 45 -6.5 85t-22.5 80.5t-49 64.5
t-80 24l-26 -213h102l-28 -225h-101z" />
    <glyph glyph-name="dcroat" unicode="&#x111;" horiz-adv-x="1060" 
d="M1047 1493l-31 -256h112l-28 -215h-111l-125 -1022h-356l22 129q-39 -60 -94 -102q-62 -47 -139 -47q-108 0 -174 88q-78 103 -78 299q0 119 45 246t119 198q84 80 194 80q74 0 129 -39q51 -35 82 -96q1 36 3 60.5t6 52t6 46.5l12 107h-246l29 215h242l32 256h349z
M526 629q-23 0 -45 -19q-33 -28 -51 -97t-18 -134q0 -72 26 -98q21 -17 37 -17q24 0 43 19q34 33 52 105t18 126q0 69 -25 98q-17 17 -37 17z" />
    <glyph glyph-name="Emacron" unicode="&#x112;" horiz-adv-x="829" 
d="M881 1366l-41 -322h-312l-24 -198h280l-39 -309h-278l-27 -209h312l-39 -328h-676l168 1366h676zM920 1714l-25 -192h-686l24 192h687z" />
    <glyph glyph-name="emacron" unicode="&#x113;" horiz-adv-x="970" 
d="M545 322h340q-54 -164 -173 -253t-288 -89q-182 0 -279.5 104t-97.5 287q0 89 21.5 176t64.5 164t103 136t142.5 93.5t176.5 34.5q178 0 273.5 -114.5t95.5 -295.5q0 -49 -17 -162h-512q-2 -12 -2 -38q0 -109 66 -109q29 0 53 19t33 47zM424 594h162q0 4 1 12t1 12
q0 39 -17 68t-53 29q-41 0 -65 -37t-29 -84zM934 1325l-25 -192h-686l25 192h686z" />
    <glyph glyph-name="Edotaccent" unicode="&#x116;" horiz-adv-x="829" 
d="M881 1366l-41 -322h-312l-24 -198h280l-39 -309h-278l-27 -209h312l-39 -328h-676l168 1366h676zM721 1630q0 -23 -12 -43q-19 -50 -63.5 -81t-96.5 -31q-59 0 -98 39.5t-39 97.5q0 69 51.5 120.5t120.5 51.5q68 0 102.5 -42.5t34.5 -111.5z" />
    <glyph glyph-name="edotaccent" unicode="&#x117;" horiz-adv-x="970" 
d="M545 322h340q-54 -164 -173 -253t-288 -89q-182 0 -279.5 104t-97.5 287q0 89 21.5 176t64.5 164t103 136t142.5 93.5t176.5 34.5q178 0 273.5 -114.5t95.5 -295.5q0 -49 -17 -162h-512q-2 -12 -2 -38q0 -109 66 -109q29 0 53 19t33 47zM424 594h162q0 4 1 12t1 12
q0 39 -17 68t-53 29q-41 0 -65 -37t-29 -84zM735 1241q0 -23 -12 -43q-19 -50 -63.5 -81.5t-96.5 -31.5q-58 0 -97.5 39.5t-39.5 98.5q0 69 51.5 120.5t120.5 51.5q68 0 102.5 -42.5t34.5 -111.5z" />
    <glyph glyph-name="Eogonek" unicode="&#x118;" horiz-adv-x="829" 
d="M881 1366l-41 -322h-312l-24 -198h280l-39 -309h-278l-27 -209h312l-39 -328h-107q-30 -34 -49 -74q-18 -36 -18 -71q0 -26 16 -45q18 -21 55 -21q34 0 74 18l-35 -157q-61 -25 -123 -25q-87 0 -137 43q-47 40 -47 113q0 71 45 131q26 35 88 88h-438l168 1366h676z" />
    <glyph glyph-name="eogonek" unicode="&#x119;" horiz-adv-x="970" 
d="M545 322h340q-32 -102 -105 -183q-44 -49 -133 -121q-76 -63 -92 -88q-23 -33 -23 -69q0 -29 21 -47q17 -17 49 -17q34 0 72 19l-35 -150q-58 -24 -125 -24q-88 0 -135 49q-39 42 -39 106q0 60 41 119q28 41 70 66q-16 -2 -50 -2q-149 0 -247 98q-107 107 -107 293
q0 139 50 263t134 208q136 133 324 133q156 0 252 -92q56 -54 86.5 -137t30.5 -181q0 -63 -17 -162h-512q-2 -10 -2 -38q0 -70 25 -95q18 -14 41 -14q27 0 51 18q20 15 35 48zM424 594h162q2 8 2 27q0 47 -21 71q-18 23 -49 23q-30 0 -53 -23q-37 -37 -41 -98z" />
    <glyph glyph-name="Ecaron" unicode="&#x11a;" horiz-adv-x="829" 
d="M881 1366l-41 -322h-312l-24 -198h280l-39 -309h-278l-27 -209h312l-39 -328h-676l168 1366h676zM883 1642l-340 -200l-248 211l145 129l144 -119l188 115z" />
    <glyph glyph-name="ecaron" unicode="&#x11b;" horiz-adv-x="970" 
d="M545 322h340q-54 -164 -173 -253t-288 -89q-182 0 -279.5 104t-97.5 287q0 89 21.5 176t64.5 164t103 136t142.5 93.5t176.5 34.5q178 0 273.5 -114.5t95.5 -295.5q0 -49 -17 -162h-512q-2 -12 -2 -38q0 -109 66 -109q29 0 53 19t33 47zM424 594h162q0 4 1 12t1 12
q0 39 -17 68t-53 29q-41 0 -65 -37t-29 -84zM874 1276l-325 -229l-242 241l146 125l131 -133l178 133z" />
    <glyph glyph-name="Gcircumflex" unicode="&#x11c;" horiz-adv-x="1130" 
d="M1112 1053l-369 -131q0 34 -6.5 62.5t-28 52.5t-55.5 24q-32 0 -58.5 -18t-42.5 -40.5t-31 -61t-21 -60.5t-15 -58q-43 -187 -43 -329q0 -36 3 -63t13 -59.5t33.5 -50.5t59.5 -18q46 0 79.5 34.5t48.5 76.5t21 88h-133l35 286h506q-17 -176 -49 -303q-26 -108 -69.5 -197
t-108.5 -161t-157.5 -112t-205.5 -40q-94 0 -170 29t-126 79t-83.5 120t-48 148t-14.5 167q0 196 49 363q24 82 60 155.5t87 139t112.5 113t140.5 75t167 27.5q162 0 267.5 -88.5t152.5 -249.5zM791 1782l253 -201l-133 -143l-145 112l-193 -116l-108 143z" />
    <glyph glyph-name="gcircumflex" unicode="&#x11d;" horiz-adv-x="993" 
d="M973 956l-121 -981q-21 -171 -100 -262q-66 -76 -166 -114.5t-209 -38.5q-186 0 -281 82t-98 264h356q0 -78 64 -78q22 0 39 9t26.5 20.5t17 32t10 35.5t5.5 38q1 6 8 62t11 86q-102 -125 -234 -125q-69 0 -120.5 35t-79.5 91.5t-41 118t-13 125.5q0 123 31 250
q18 65 46 126t70 118.5t101 92t127 34.5q107 0 190 -146l9 125h352zM582 571q0 117 -56 117q-33 0 -57 -33t-35 -82.5t-15.5 -90.5t-4.5 -74q0 -129 61 -129q31 0 54 35t33.5 87.5t15 95t4.5 74.5zM657 1413l238 -239l-131 -130l-133 136l-185 -144l-108 138z" />
    <glyph glyph-name="Gbreve" unicode="&#x11e;" horiz-adv-x="1130" 
d="M1112 1053l-369 -131q0 34 -6.5 62.5t-28 52.5t-55.5 24q-32 0 -58.5 -18t-42.5 -40.5t-31 -61t-21 -60.5t-15 -58q-43 -187 -43 -329q0 -36 3 -63t13 -59.5t33.5 -50.5t59.5 -18q46 0 79.5 34.5t48.5 76.5t21 88h-133l35 286h506q-17 -176 -49 -303q-26 -108 -69.5 -197
t-108.5 -161t-157.5 -112t-205.5 -40q-94 0 -170 29t-126 79t-83.5 120t-48 148t-14.5 167q0 196 49 363q24 82 60 155.5t87 139t112.5 113t140.5 75t167 27.5q162 0 267.5 -88.5t152.5 -249.5zM928 1774h141q-30 -139 -125 -221.5t-235 -82.5q-125 0 -206 73t-81 196v35
h141q18 -65 57 -87t111 -22q76 0 120.5 23t76.5 86z" />
    <glyph glyph-name="gbreve" unicode="&#x11f;" horiz-adv-x="993" 
d="M973 956l-121 -981q-21 -171 -100 -262q-66 -76 -166 -114.5t-209 -38.5q-186 0 -281 82t-98 264h356q0 -78 64 -78q22 0 39 9t26.5 20.5t17 32t10 35.5t5.5 38q1 6 8 62t11 86q-102 -125 -234 -125q-69 0 -120.5 35t-79.5 91.5t-41 118t-13 125.5q0 123 31 250
q18 65 46 126t70 118.5t101 92t127 34.5q107 0 190 -146l9 125h352zM582 571q0 117 -56 117q-33 0 -57 -33t-35 -82.5t-15.5 -90.5t-4.5 -74q0 -129 61 -129q31 0 54 35t33.5 87.5t15 95t4.5 74.5zM784 1370h142q-30 -139 -125.5 -221t-235.5 -82q-125 0 -205.5 72.5
t-80.5 195.5v35h141q18 -65 56.5 -86.5t111.5 -21.5q76 0 120 22.5t76 85.5z" />
    <glyph glyph-name="Gdotaccent" unicode="&#x120;" horiz-adv-x="1130" 
d="M1112 1053l-369 -131q0 34 -6.5 62.5t-28 52.5t-55.5 24q-32 0 -58.5 -18t-42.5 -40.5t-31 -61t-21 -60.5t-15 -58q-43 -187 -43 -329q0 -36 3 -63t13 -59.5t33.5 -50.5t59.5 -18q46 0 79.5 34.5t48.5 76.5t21 88h-133l35 286h506q-17 -176 -49 -303q-26 -108 -69.5 -197
t-108.5 -161t-157.5 -112t-205.5 -40q-94 0 -170 29t-126 79t-83.5 120t-48 148t-14.5 167q0 196 49 363q24 82 60 155.5t87 139t112.5 113t140.5 75t167 27.5q162 0 267.5 -88.5t152.5 -249.5zM881 1630q0 -21 -13 -43q-19 -50 -63 -81t-96 -31q-59 0 -98.5 39.5
t-39.5 97.5q0 69 51.5 120.5t120.5 51.5q68 0 103 -42.5t35 -111.5z" />
    <glyph glyph-name="gdotaccent" unicode="&#x121;" horiz-adv-x="993" 
d="M973 956l-121 -981q-21 -171 -100 -262q-66 -76 -166 -114.5t-209 -38.5q-186 0 -281 82t-98 264h356q0 -78 64 -78q22 0 39 9t26.5 20.5t17 32t10 35.5t5.5 38q1 6 8 62t11 86q-102 -125 -234 -125q-69 0 -120.5 35t-79.5 91.5t-41 118t-13 125.5q0 123 31 250
q18 65 46 126t70 118.5t101 92t127 34.5q107 0 190 -146l9 125h352zM582 571q0 117 -56 117q-33 0 -57 -33t-35 -82.5t-15.5 -90.5t-4.5 -74q0 -129 61 -129q31 0 54 35t33.5 87.5t15 95t4.5 74.5zM741 1241q0 -23 -12 -43q-19 -50 -63.5 -81.5t-96.5 -31.5
q-58 0 -97.5 39.5t-39.5 98.5q0 69 51.5 120.5t120.5 51.5q68 0 102.5 -42.5t34.5 -111.5z" />
    <glyph glyph-name="Gcommaaccent" unicode="&#x122;" horiz-adv-x="1130" 
d="M1112 1053l-369 -131q0 34 -6.5 62.5t-28 52.5t-55.5 24q-32 0 -58.5 -18t-42.5 -40.5t-31 -61t-21 -60.5t-15 -58q-43 -187 -43 -329q0 -36 3 -63t13 -59.5t33.5 -50.5t59.5 -18q46 0 79.5 34.5t48.5 76.5t21 88h-133l35 286h506q-17 -176 -49 -303q-26 -108 -69.5 -197
t-108.5 -161t-157.5 -112t-205.5 -40q-94 0 -170 29t-126 79t-83.5 120t-48 148t-14.5 167q0 196 49 363q24 82 60 155.5t87 139t112.5 113t140.5 75t167 27.5q162 0 267.5 -88.5t152.5 -249.5zM670 -92l-193 -385h-209l103 385h299z" />
    <glyph glyph-name="gcommaaccent" unicode="&#x123;" horiz-adv-x="993" 
d="M973 956l-121 -981q-21 -171 -100 -262q-66 -76 -166 -114.5t-209 -38.5q-186 0 -281 82t-98 264h356q0 -78 64 -78q22 0 39 9t26.5 20.5t17 32t10 35.5t5.5 38q1 6 8 62t11 86q-102 -125 -234 -125q-69 0 -120.5 35t-79.5 91.5t-41 118t-13 125.5q0 123 31 250
q18 65 46 126t70 118.5t101 92t127 34.5q107 0 190 -146l9 125h352zM582 571q0 117 -56 117q-33 0 -57 -33t-35 -82.5t-15.5 -90.5t-4.5 -74q0 -129 61 -129q31 0 54 35t33.5 87.5t15 95t4.5 74.5zM367 1059l192 385h209l-102 -385h-299z" />
    <glyph glyph-name="Hcircumflex" unicode="&#x124;" horiz-adv-x="1087" 
d="M1104 1366l-168 -1366h-363l68 549h-174l-68 -549h-362l168 1366h362l-59 -483h174l59 483h363zM739 1782l254 -201l-133 -143l-145 112l-193 -116l-108 143z" />
    <glyph glyph-name="hcircumflex" unicode="&#x125;" horiz-adv-x="989" 
d="M557 1493l-65 -535q-12 -94 -33 -184q109 203 274 203q97 0 151 -69t54 -169q0 -45 -6 -88l-80 -651h-350l63 506q4 36 4 53q0 64 -47 64q-73 0 -90 -142l-59 -481h-350l184 1493h350zM432 1905l238 -240l-131 -129l-133 135l-185 -143l-108 137z" />
    <glyph glyph-name="Hbar" unicode="&#x126;" horiz-adv-x="1087" 
d="M37 0l127 1034h-103l31 248h103l10 84h362l-10 -84h176l10 84h363l-10 -84h102l-31 -248h-102l-127 -1034h-363l68 549h-176l-68 -549h-362zM702 1034h-176l-20 -172h176z" />
    <glyph glyph-name="hbar" unicode="&#x127;" horiz-adv-x="1001" 
d="M41 0l125 1022h-111l29 215h109l30 256h355l-31 -256h241l-28 -215h-242l-16 -150q-12 -94 -33 -184q109 203 274 203q97 0 151 -69t54 -169q0 -45 -6 -88l-72 -565h-350l55 420q5 45 5 53q0 64 -48 64q-73 0 -90 -142l-51 -395h-350z" />
    <glyph glyph-name="Imacron" unicode="&#x12a;" horiz-adv-x="550" 
d="M567 1366l-168 -1366h-362l168 1366h362zM745 1714l-24 -192h-686l24 192h686z" />
    <glyph glyph-name="imacron" unicode="&#x12b;" horiz-adv-x="512" 
d="M489 956l-116 -956h-350l118 956h348zM694 1325l-24 -192h-686l24 192h686z" />
    <glyph glyph-name="Iogonek" unicode="&#x12e;" horiz-adv-x="550" 
d="M567 1366l-168 -1366q-30 -34 -49 -74q-18 -36 -18 -71q0 -26 16 -45q18 -21 55 -21q33 0 74 18l-35 -157q-61 -25 -123 -25q-87 0 -137 43q-47 40 -47 113q0 71 45 131q26 35 88 88h-231l168 1366h362z" />
    <glyph glyph-name="iogonek" unicode="&#x12f;" horiz-adv-x="512" 
d="M381 1460q76 0 127 -51q53 -51 53 -131q0 -88 -69 -160q-69 -71 -162 -71q-74 0 -127 53q-53 56 -53 129q0 90 67 160q71 71 164 71zM492 956l-117 -956q-32 -40 -47 -70q-21 -42 -21 -69q0 -29 21 -47q17 -17 49 -17q34 0 72 19l-35 -150q-58 -24 -125 -24
q-88 0 -135 49q-39 42 -39 106q0 63 41 119q26 38 88 84h-219l118 956h349z" />
    <glyph glyph-name="Idotaccent" unicode="&#x130;" horiz-adv-x="550" 
d="M567 1366l-168 -1366h-362l168 1366h362zM567 1630q0 -23 -12 -43q-19 -50 -63.5 -81t-96.5 -31q-59 0 -98 39.5t-39 97.5q0 69 51.5 120.5t120.5 51.5q68 0 102.5 -42.5t34.5 -111.5z" />
    <glyph glyph-name="dotlessi" unicode="&#x131;" horiz-adv-x="509" 
d="M489 956l-116 -956h-350l118 956h348z" />
    <glyph glyph-name="Jcircumflex" unicode="&#x134;" horiz-adv-x="714" 
d="M731 1366l-117 -948q-8 -58 -14 -92t-21.5 -80t-39.5 -84q-117 -187 -363 -187q-110 0 -231 45l47 381q52 -79 135 -79q35 0 60.5 14t39.5 39.5t21.5 52t11.5 61.5l107 877h364zM596 1782l254 -201l-133 -143l-146 112l-192 -116l-109 143z" />
    <glyph glyph-name="jcircumflex" unicode="&#x135;" horiz-adv-x="514" 
d="M494 956l-172 -1396h-349l168 1396h353zM360 1413l238 -239l-131 -130l-133 136l-184 -144l-109 138z" />
    <glyph glyph-name="Kcommaaccent" unicode="&#x136;" horiz-adv-x="1091" 
d="M1155 1366l-371 -659l240 -707h-391l-162 653l-72 -653h-362l168 1366h362l-82 -610l287 610h383zM659 -92l-192 -385h-209l102 385h299z" />
    <glyph glyph-name="kcommaaccent" unicode="&#x137;" horiz-adv-x="997" 
d="M1034 956l-284 -440l190 -516h-389l-84 299q-28 98 -37 166l-57 -465h-350l184 1493h350l-117 -946q17 39 68 127l154 282h372zM608 -94l-192 -385h-209l102 385h299z" />
    <glyph glyph-name="Lacute" unicode="&#x139;" horiz-adv-x="743" 
d="M713 328l-39 -328h-637l168 1366h362l-127 -1038h273zM670 1778l-215 -303h-201l133 303h283z" />
    <glyph glyph-name="lacute" unicode="&#x13a;" horiz-adv-x="512" 
d="M557 1493l-184 -1493h-350l184 1493h350zM649 1880l-215 -303h-201l134 303h282z" />
    <glyph glyph-name="Lcommaaccent" unicode="&#x13b;" horiz-adv-x="743" 
d="M713 328l-39 -328h-637l168 1366h362l-127 -1038h273zM506 -92l-193 -385h-209l103 385h299z" />
    <glyph glyph-name="lcommaaccent" unicode="&#x13c;" horiz-adv-x="512" 
d="M557 1493l-184 -1493h-350l184 1493h350zM342 -94l-192 -385h-209l102 385h299z" />
    <glyph glyph-name="Lcaron" unicode="&#x13d;" horiz-adv-x="1038" 
d="M713 328l-39 -328h-637l168 1366h362l-127 -1038h273zM1038 1366l-213 -428h-209l123 428h299z" />
    <glyph glyph-name="lcaron" unicode="&#x13e;" horiz-adv-x="997" 
d="M557 1493l-184 -1493h-350l184 1493h350zM997 1366l-204 -453h-213l118 453h299z" />
    <glyph glyph-name="Ldot" unicode="&#x13f;" horiz-adv-x="808" 
d="M713 328l-39 -328h-637l168 1366h362l-127 -1038h273zM862 684q0 -23 -12 -43q-19 -50 -63.5 -81.5t-96.5 -31.5q-58 0 -97.5 39.5t-39.5 98.5q0 69 51.5 120.5t120.5 51.5q68 0 102.5 -42.5t34.5 -111.5z" />
    <glyph glyph-name="ldot" unicode="&#x140;" horiz-adv-x="811" 
d="M557 1493l-184 -1493h-350l184 1493h350zM852 748q0 -23 -12 -43q-19 -50 -63.5 -81.5t-96.5 -31.5q-58 0 -97.5 39t-39.5 98q0 69 51.5 120.5t120.5 51.5q68 0 102.5 -42t34.5 -111z" />
    <glyph glyph-name="Lslash" unicode="&#x141;" horiz-adv-x="751" 
d="M719 328l-39 -328h-637l55 444l-106 -82l33 269l106 82l80 653h362l-55 -459l197 146l-33 -269l-197 -145l-39 -311h273z" />
    <glyph glyph-name="lslash" unicode="&#x142;" horiz-adv-x="606" 
d="M653 1055l-30 -242l-111 -80l-90 -733h-350l69 563l-112 -78l28 242l113 78l86 688h348l-63 -518z" />
    <glyph glyph-name="Nacute" unicode="&#x143;" horiz-adv-x="1134" 
d="M1151 1366l-168 -1366h-346l-121 502q-39 158 -57 284q-2 -36 -6.5 -108.5t-6.5 -108.5q-4 -67 -12 -146t-15 -135t-18.5 -149t-17.5 -139h-346l168 1366h346l123 -479q17 -65 40 -186.5t31 -157.5v50.5v53.5v50t0.5 53.5t1.5 49.5t2 53.5t2.5 49.5t3.5 53.5t5 50t6 52.5
l39 307h346zM967 1778l-215 -303h-201l133 303h283z" />
    <glyph glyph-name="nacute" unicode="&#x144;" horiz-adv-x="989" 
d="M141 956h348q-29 -177 -30 -182q109 203 274 203q97 0 151 -69t54 -169q0 -45 -6 -88l-80 -651h-350l63 506q4 36 4 53q0 64 -47 64q-73 0 -90 -142l-59 -481h-350zM854 1389l-215 -304h-201l133 304h283z" />
    <glyph glyph-name="Ncommaaccent" unicode="&#x145;" horiz-adv-x="1134" 
d="M1151 1366l-168 -1366h-346l-121 502q-39 158 -57 284q-2 -36 -6.5 -108.5t-6.5 -108.5q-4 -67 -12 -146t-15 -135t-18.5 -149t-17.5 -139h-346l168 1366h346l123 -479q17 -65 40 -186.5t31 -157.5v50.5v53.5v50t0.5 53.5t1.5 49.5t2 53.5t2.5 49.5t3.5 53.5t5 50t6 52.5
l39 307h346zM659 -92l-192 -385h-209l102 385h299z" />
    <glyph glyph-name="ncommaaccent" unicode="&#x146;" horiz-adv-x="989" 
d="M141 956h348q-29 -177 -30 -182q109 203 274 203q97 0 151 -69t54 -169q0 -45 -6 -88l-80 -651h-350l63 506q4 36 4 53q0 64 -47 64q-73 0 -90 -142l-59 -481h-350zM588 -94l-193 -385h-209l103 385h299z" />
    <glyph glyph-name="Ncaron" unicode="&#x147;" horiz-adv-x="1134" 
d="M1151 1366l-168 -1366h-346l-121 502q-39 158 -57 284q-2 -36 -6.5 -108.5t-6.5 -108.5q-4 -67 -12 -146t-15 -135t-18.5 -149t-17.5 -139h-346l168 1366h346l123 -479q17 -65 40 -186.5t31 -157.5v50.5v53.5v50t0.5 53.5t1.5 49.5t2 53.5t2.5 49.5t3.5 53.5t5 50t6 52.5
l39 307h346zM1036 1642l-340 -200l-247 211l145 129l143 -119l189 115z" />
    <glyph glyph-name="ncaron" unicode="&#x148;" horiz-adv-x="989" 
d="M141 956h348q-29 -177 -30 -182q109 203 274 203q97 0 151 -69t54 -169q0 -45 -6 -88l-80 -651h-350l63 506q4 36 4 53q0 64 -47 64q-73 0 -90 -142l-59 -481h-350zM911 1276l-325 -229l-242 241l145 125l132 -133l178 133z" />
    <glyph glyph-name="Omacron" unicode="&#x14c;" horiz-adv-x="1142" 
d="M1118 864q0 -209 -53 -391q-24 -78 -58 -148.5t-83.5 -135.5t-108.5 -111.5t-135 -74.5t-160 -28q-103 0 -195 49t-151 134q-96 140 -96 381q0 206 59 383q33 95 83.5 177t119 148.5t159 105t191.5 38.5q86 0 158 -29.5t121 -80t83.5 -118t50 -143t15.5 -156.5zM741 836
q0 211 -96 211q-38 0 -71 -37t-54 -93t-33 -103.5t-18 -86.5q-14 -83 -14 -182q0 -223 98 -223q39 0 72.5 37.5t54 96t32 106t17.5 89.5q12 91 12 185zM1073 1714l-24 -192h-687l25 192h686z" />
    <glyph glyph-name="omacron" unicode="&#x14d;" horiz-adv-x="983" 
d="M934 573q0 -120 -32 -225.5t-93 -188t-160 -131t-223 -48.5q-185 0 -281 110.5t-96 298.5q0 113 34 217.5t96 187.5t159.5 133t214.5 50q182 0 281.5 -110t99.5 -294zM596 551q0 158 -76 158q-35 0 -62.5 -36t-41 -88.5t-20.5 -99t-7 -79.5q0 -24 2.5 -46.5t9.5 -50
t23.5 -44.5t40.5 -17q35 0 62.5 36t41 88.5t20.5 99t7 79.5zM961 1325l-25 -192h-686l24 192h687z" />
    <glyph glyph-name="Obreve" unicode="&#x14e;" horiz-adv-x="1142" 
d="M1118 864q0 -209 -53 -391q-24 -78 -58 -148.5t-83.5 -135.5t-108.5 -111.5t-135 -74.5t-160 -28q-103 0 -195 49t-151 134q-96 140 -96 381q0 206 59 383q33 95 83.5 177t119 148.5t159 105t191.5 38.5q86 0 158 -29.5t121 -80t83.5 -118t50 -143t15.5 -156.5zM741 836
q0 211 -96 211q-38 0 -71 -37t-54 -93t-33 -103.5t-18 -86.5q-14 -83 -14 -182q0 -223 98 -223q39 0 72.5 37.5t54 96t32 106t17.5 89.5q12 91 12 185zM918 1774h141q-30 -139 -125.5 -221.5t-235.5 -82.5q-125 0 -205.5 73t-80.5 196v35h141q18 -65 57 -87t111 -22
q76 0 120.5 23t76.5 86z" />
    <glyph glyph-name="obreve" unicode="&#x14f;" horiz-adv-x="983" 
d="M934 573q0 -120 -32 -225.5t-93 -188t-160 -131t-223 -48.5q-185 0 -281 110.5t-96 298.5q0 113 34 217.5t96 187.5t159.5 133t214.5 50q182 0 281.5 -110t99.5 -294zM596 551q0 158 -76 158q-35 0 -62.5 -36t-41 -88.5t-20.5 -99t-7 -79.5q0 -24 2.5 -46.5t9.5 -50
t23.5 -44.5t40.5 -17q35 0 62.5 36t41 88.5t20.5 99t7 79.5zM784 1370h142q-30 -139 -125.5 -221t-235.5 -82q-125 0 -205.5 72.5t-80.5 195.5v35h141q18 -65 56.5 -86.5t111.5 -21.5q76 0 120 22.5t76 85.5z" />
    <glyph glyph-name="Ohungarumlaut" unicode="&#x150;" horiz-adv-x="1142" 
d="M1118 864q0 -209 -53 -391q-24 -78 -58 -148.5t-83.5 -135.5t-108.5 -111.5t-135 -74.5t-160 -28q-103 0 -195 49t-151 134q-96 140 -96 381q0 206 59 383q33 95 83.5 177t119 148.5t159 105t191.5 38.5q86 0 158 -29.5t121 -80t83.5 -118t50 -143t15.5 -156.5zM741 836
q0 211 -96 211q-38 0 -71 -37t-54 -93t-33 -103.5t-18 -86.5q-14 -83 -14 -182q0 -223 98 -223q39 0 72.5 37.5t54 96t32 106t17.5 89.5q12 91 12 185zM1169 1778l-215 -303h-180l133 303h262zM831 1778l-213 -303h-180l133 303h260z" />
    <glyph glyph-name="ohungarumlaut" unicode="&#x151;" horiz-adv-x="983" 
d="M934 573q0 -120 -32 -225.5t-93 -188t-160 -131t-223 -48.5q-185 0 -281 110.5t-96 298.5q0 113 34 217.5t96 187.5t159.5 133t214.5 50q182 0 281.5 -110t99.5 -294zM596 551q0 158 -76 158q-35 0 -62.5 -36t-41 -88.5t-20.5 -99t-7 -79.5q0 -24 2.5 -46.5t9.5 -50
t23.5 -44.5t40.5 -17q35 0 62.5 36t41 88.5t20.5 99t7 79.5zM1036 1389l-215 -304h-180l133 304h262zM698 1389l-213 -304h-180l133 304h260z" />
    <glyph glyph-name="OE" unicode="&#x152;" horiz-adv-x="1427" 
d="M1382 846l-39 -309h-274l-25 -209h306l-39 -328h-672l12 100q-90 -116 -209 -116q-168 0 -268 151q-96 151 -96 389q0 216 65 413.5t183 315.5q125 125 278 125q136 0 191 -106l12 94h668l-39 -322h-303l-25 -198h274zM451 537q0 -57 12 -114.5t39 -82.5q21 -21 53 -21
q35 0 68 33q58 58 94 244q24 123 24 244q0 143 -43 186q-21 21 -49 21q-42 0 -71 -33q-56 -58 -89 -189q-15 -57 -26.5 -141.5t-11.5 -146.5z" />
    <glyph glyph-name="oe" unicode="&#x153;" horiz-adv-x="1486" 
d="M1067 322h332q-56 -161 -177 -251.5t-284 -90.5q-150 0 -248 88q-94 -88 -239 -88q-191 0 -296.5 108.5t-105.5 300.5q0 118 33.5 222.5t96.5 186t162.5 129t221.5 48.5q76 0 132 -18t108 -68q65 48 127 67t137 19q119 -1 205 -55t128 -145t42 -208q0 -56 -19 -164h-518
v-34q0 -21 3 -40t10 -39.5t23 -33t38 -12.5q31 0 54 22t34 56zM930 594h176q0 121 -74 121q-25 0 -43.5 -10.5t-29.5 -31t-17 -37.5t-12 -42zM600 555q0 24 -2.5 46t-10 49.5t-24 44t-41.5 16.5q-35 0 -62.5 -36.5t-41 -89t-20.5 -99.5t-7 -80q0 -24 2.5 -46.5t9.5 -50
t23.5 -44.5t40.5 -17q36 0 63.5 36.5t41.5 89.5t21 100t7 81z" />
    <glyph glyph-name="Racute" unicode="&#x154;" horiz-adv-x="1075" 
d="M205 1366h370q472 0 472 -391q0 -301 -254 -408l200 -567h-393q-9 38 -45.5 184.5t-54.5 225.5q-6 27 -17.5 79t-17.5 78q-16 -193 -66 -567h-362zM489 733h25q72 0 121 60.5t49 134.5q0 72 -39.5 101.5t-114.5 29.5zM920 1778l-215 -303h-201l133 303h283z" />
    <glyph glyph-name="racute" unicode="&#x155;" horiz-adv-x="694" 
d="M737 979l-49 -397q-52 30 -94 30q-69 0 -117 -55q-26 -29 -37 -63t-16 -84l-51 -410h-350l118 956h348l-40 -186q103 204 288 209zM772 1389l-215 -304h-201l133 304h283z" />
    <glyph glyph-name="Rcommaaccent" unicode="&#x156;" horiz-adv-x="1075" 
d="M205 1366h370q472 0 472 -391q0 -301 -254 -408l200 -567h-393q-9 38 -45.5 184.5t-54.5 225.5q-6 27 -17.5 79t-17.5 78q-16 -193 -66 -567h-362zM489 733h25q72 0 121 60.5t49 134.5q0 72 -39.5 101.5t-114.5 29.5zM649 -92l-192 -385h-209l102 385h299z" />
    <glyph glyph-name="rcommaaccent" unicode="&#x157;" horiz-adv-x="694" 
d="M737 979l-49 -397q-52 30 -94 30q-69 0 -117 -55q-26 -29 -37 -63t-16 -84l-51 -410h-350l118 956h348l-40 -186q103 204 288 209zM567 -94l-192 -385h-209l102 385h299z" />
    <glyph glyph-name="Rcaron" unicode="&#x158;" horiz-adv-x="1075" 
d="M205 1366h370q472 0 472 -391q0 -301 -254 -408l200 -567h-393q-9 38 -45.5 184.5t-54.5 225.5q-6 27 -17.5 79t-17.5 78q-16 -193 -66 -567h-362zM489 733h25q72 0 121 60.5t49 134.5q0 72 -39.5 101.5t-114.5 29.5zM948 1642l-340 -200l-248 211l146 129l143 -119
l189 115z" />
    <glyph glyph-name="rcaron" unicode="&#x159;" horiz-adv-x="694" 
d="M737 979l-49 -397q-52 30 -94 30q-69 0 -117 -55q-26 -29 -37 -63t-16 -84l-51 -410h-350l118 956h348l-40 -186q103 204 288 209zM819 1276l-325 -229l-242 241l145 125l131 -133l179 133z" />
    <glyph glyph-name="Sacute" unicode="&#x15a;" horiz-adv-x="815" 
d="M836 1321l-52 -418q-31 63 -82 106.5t-112 43.5q-39 0 -74 -26t-35 -64q0 -28 21.5 -57t53 -53.5t69 -59.5t69 -72t53 -94t21.5 -123q0 -140 -62.5 -261t-177.5 -194.5t-256 -73.5q-127 0 -260 60l54 428q90 -150 213 -150q47 0 82.5 28t35.5 75q0 33 -29 67t-70.5 69
t-83 77.5t-70.5 110t-29 149.5q0 125 61.5 240.5t170.5 188.5t235 73q127 0 254 -70zM895 1778l-215 -303h-201l133 303h283z" />
    <glyph glyph-name="sacute" unicode="&#x15b;" horiz-adv-x="796" 
d="M799 899l-152 -260q-71 84 -133 84q-24 0 -42.5 -14t-18.5 -37q0 -25 21.5 -44t53.5 -31t70 -31.5t70 -43t53.5 -68t21.5 -104.5q0 -108 -60.5 -194.5t-155 -131t-201.5 -44.5q-93 0 -163.5 23t-162.5 77l160 264q32 -41 75.5 -70.5t86.5 -29.5q28 0 50.5 14t22.5 41
q0 39 -60 62q-3 1 -22 8q-48 19 -82.5 38.5t-66 48t-48 68t-16.5 88.5q0 81 37.5 151.5t99 116t137.5 71.5t154 26q134 0 271 -78zM844 1389l-215 -304h-201l133 304h283z" />
    <glyph glyph-name="Scircumflex" unicode="&#x15c;" horiz-adv-x="815" 
d="M836 1321l-52 -418q-31 63 -82 106.5t-112 43.5q-39 0 -74 -26t-35 -64q0 -28 21.5 -57t53 -53.5t69 -59.5t69 -72t53 -94t21.5 -123q0 -140 -62.5 -261t-177.5 -194.5t-256 -73.5q-127 0 -260 60l54 428q90 -150 213 -150q47 0 82.5 28t35.5 75q0 33 -29 67t-70.5 69
t-83 77.5t-70.5 110t-29 149.5q0 125 61.5 240.5t170.5 188.5t235 73q127 0 254 -70zM647 1782l254 -201l-133 -143l-145 112l-193 -116l-108 143z" />
    <glyph glyph-name="scircumflex" unicode="&#x15d;" horiz-adv-x="796" 
d="M799 899l-152 -260q-71 84 -133 84q-24 0 -42.5 -14t-18.5 -37q0 -25 21.5 -44t53.5 -31t70 -31.5t70 -43t53.5 -68t21.5 -104.5q0 -108 -60.5 -194.5t-155 -131t-201.5 -44.5q-93 0 -163.5 23t-162.5 77l160 264q32 -41 75.5 -70.5t86.5 -29.5q28 0 50.5 14t22.5 41
q0 39 -60 62q-3 1 -22 8q-48 19 -82.5 38.5t-66 48t-48 68t-16.5 88.5q0 81 37.5 151.5t99 116t137.5 71.5t154 26q134 0 271 -78zM596 1413l238 -239l-132 -130l-133 136l-184 -144l-109 138z" />
    <glyph glyph-name="Scedilla" unicode="&#x15e;" horiz-adv-x="815" 
d="M836 1321l-52 -418q-31 63 -82 106.5t-112 43.5q-39 0 -74 -26t-35 -64q0 -28 21.5 -57t53 -53.5t69 -59.5t69 -72t53 -94t21.5 -123q0 -140 -62.5 -261t-177.5 -194.5t-256 -73.5q-127 0 -260 60l54 428q90 -150 213 -150q47 0 82.5 28t35.5 75q0 33 -29 67t-70.5 69
t-83 77.5t-70.5 110t-29 149.5q0 125 61.5 240.5t170.5 188.5t235 73q127 0 254 -70zM451 -231l-258 -254l-158 108l219 281z" />
    <glyph glyph-name="scedilla" unicode="&#x15f;" horiz-adv-x="796" 
d="M799 899l-152 -260q-71 84 -133 84q-24 0 -42.5 -14t-18.5 -37q0 -25 21.5 -44t53.5 -31t70 -31.5t70 -43t53.5 -68t21.5 -104.5q0 -108 -60.5 -194.5t-155 -131t-201.5 -44.5q-93 0 -163.5 23t-162.5 77l160 264q32 -41 75.5 -70.5t86.5 -29.5q28 0 50.5 14t22.5 41
q0 39 -60 62q-3 1 -22 8q-48 19 -82.5 38.5t-66 48t-48 68t-16.5 88.5q0 81 37.5 151.5t99 116t137.5 71.5t154 26q134 0 271 -78zM487 -217l-258 -240l-145 111l209 250z" />
    <glyph glyph-name="Scaron" unicode="&#x160;" horiz-adv-x="815" 
d="M836 1321l-52 -418q-31 63 -82 106.5t-112 43.5q-39 0 -74 -26t-35 -64q0 -28 21.5 -57t53 -53.5t69 -59.5t69 -72t53 -94t21.5 -123q0 -140 -62.5 -261t-177.5 -194.5t-256 -73.5q-127 0 -260 60l54 428q90 -150 213 -150q47 0 82.5 28t35.5 75q0 33 -29 67t-70.5 69
t-83 77.5t-70.5 110t-29 149.5q0 125 61.5 240.5t170.5 188.5t235 73q127 0 254 -70zM924 1642l-340 -200l-248 211l145 129l144 -119l188 115z" />
    <glyph glyph-name="scaron" unicode="&#x161;" horiz-adv-x="796" 
d="M799 899l-152 -260q-71 84 -133 84q-24 0 -42.5 -14t-18.5 -37q0 -25 21.5 -44t53.5 -31t70 -31.5t70 -43t53.5 -68t21.5 -104.5q0 -108 -60.5 -194.5t-155 -131t-201.5 -44.5q-93 0 -163.5 23t-162.5 77l160 264q32 -41 75.5 -70.5t86.5 -29.5q28 0 50.5 14t22.5 41
q0 39 -60 62q-3 1 -22 8q-48 19 -82.5 38.5t-66 48t-48 68t-16.5 88.5q0 81 37.5 151.5t99 116t137.5 71.5t154 26q134 0 271 -78zM850 1276l-326 -229l-241 241l145 125l131 -133l178 133z" />
    <glyph glyph-name="Tcedilla" unicode="&#x162;" horiz-adv-x="772" 
d="M874 1366l-40 -328h-201l-127 -1038h-363l127 1038h-200l41 328h763zM485 -231l-258 -254l-157 108l219 281z" />
    <glyph glyph-name="tcedilla" unicode="&#x163;" horiz-adv-x="608" 
d="M653 956l-35 -286h-114l-84 -670h-348l82 670h-101l35 286h100l35 281h350l-34 -281h114zM403 -217l-258 -240l-145 111l209 250z" />
    <glyph glyph-name="Tcaron" unicode="&#x164;" horiz-adv-x="772" 
d="M834 1038l40 328h-763l-41 -328h200l-127 -1038h363l127 1038h201zM842 1642l-340 -200l-248 211l145 129l144 -119l188 115z" />
    <glyph glyph-name="tcaron" unicode="&#x165;" horiz-adv-x="1038" 
d="M653 956l-35 -286h-114l-84 -670h-348l82 670h-101l35 286h100l35 281h350l-34 -281h114zM1059 1489l-205 -453h-213l119 453h299z" />
    <glyph glyph-name="Utilde" unicode="&#x168;" horiz-adv-x="1099" 
d="M1116 1366l-119 -967q-12 -106 -51.5 -179t-122.5 -138q-136 -107 -317 -107q-188 0 -304 96.5t-116 280.5q0 50 6 99l113 915h362l-108 -883q-4 -46 -4 -67q0 -94 80 -94q32 0 53.5 14t32.5 42t15.5 49t8.5 56l109 883h362zM866 1751h181q-10 -114 -73 -193t-173 -79
q-52 0 -126.5 33.5t-101.5 33.5q-51 0 -63 -71h-182q7 69 24 114q27 67 84.5 111.5t126.5 44.5q55 0 130.5 -34t107.5 -34q54 0 65 74z" />
    <glyph glyph-name="utilde" unicode="&#x169;" horiz-adv-x="1007" 
d="M987 956l-72 -587q-13 -104 -52 -175t-122 -126q-136 -88 -297 -88q-102 0 -186 32.5t-139.5 105.5t-55.5 177q0 15 3 41t4 33l71 587h348l-65 -538q0 -3 -3 -30t-3 -42q0 -70 63 -70q16 0 29 5.5t21.5 12t15.5 21.5l10.5 22.5t7 28t4 26t2.5 26.5l66 538h350zM776 1362
h180q-10 -114 -72.5 -193t-172.5 -79q-52 0 -126.5 33.5t-101.5 33.5q-51 0 -63 -72h-182q7 71 24 115q27 67 84.5 111.5t126.5 44.5q55 0 130.5 -34t107.5 -34q54 0 65 74z" />
    <glyph glyph-name="Umacron" unicode="&#x16a;" horiz-adv-x="1099" 
d="M1116 1366l-119 -967q-12 -106 -51.5 -179t-122.5 -138q-136 -107 -317 -107q-188 0 -304 96.5t-116 280.5q0 50 6 99l113 915h362l-108 -883q-4 -46 -4 -67q0 -94 80 -94q32 0 53.5 14t32.5 42t15.5 49t8.5 56l109 883h362zM1042 1714l-24 -192h-686l24 192h686z" />
    <glyph glyph-name="umacron" unicode="&#x16b;" horiz-adv-x="1007" 
d="M987 956l-72 -587q-13 -104 -52 -175t-122 -126q-136 -88 -297 -88q-102 0 -186 32.5t-139.5 105.5t-55.5 177q0 15 3 41t4 33l71 587h348l-65 -538q0 -3 -3 -30t-3 -42q0 -70 63 -70q16 0 29 5.5t21.5 12t15.5 21.5l10.5 22.5t7 28t4 26t2.5 26.5l66 538h350zM940 1325
l-25 -192h-686l25 192h686z" />
    <glyph glyph-name="Ubreve" unicode="&#x16c;" horiz-adv-x="1099" 
d="M1116 1366l-119 -967q-12 -106 -51.5 -179t-122.5 -138q-136 -107 -317 -107q-188 0 -304 96.5t-116 280.5q0 50 6 99l113 915h362l-108 -883q-4 -46 -4 -67q0 -94 80 -94q32 0 53.5 14t32.5 42t15.5 49t8.5 56l109 883h362zM887 1774h141q-30 -139 -125 -221.5
t-235 -82.5q-125 0 -206 73t-81 196v35h141q18 -65 57 -87t111 -22q76 0 120.5 23t76.5 86z" />
    <glyph glyph-name="ubreve" unicode="&#x16d;" horiz-adv-x="1007" 
d="M987 956l-72 -587q-13 -104 -52 -175t-122 -126q-136 -88 -297 -88q-102 0 -186 32.5t-139.5 105.5t-55.5 177q0 15 3 41t4 33l71 587h348l-65 -538q0 -3 -3 -30t-3 -42q0 -70 63 -70q16 0 29 5.5t21.5 12t15.5 21.5l10.5 22.5t7 28t4 26t2.5 26.5l66 538h350zM784 1370
h142q-30 -139 -125.5 -221t-235.5 -82q-125 0 -205.5 72.5t-80.5 195.5v35h141q18 -65 56.5 -86.5t111.5 -21.5q76 0 120 22.5t76 85.5z" />
    <glyph glyph-name="Uring" unicode="&#x16e;" horiz-adv-x="1099" 
d="M1116 1366l-119 -967q-12 -106 -51.5 -179t-122.5 -138q-136 -107 -317 -107q-188 0 -304 96.5t-116 280.5q0 50 6 99l113 915h362l-108 -883q-4 -46 -4 -67q0 -94 80 -94q32 0 53.5 14t32.5 42t15.5 49t8.5 56l109 883h362zM498 1659q0 82 57 139t139 57t139.5 -57
t57.5 -139q0 -81 -58 -139t-137 -58q-82 0 -140 58.5t-58 138.5zM618 1659q0 -32 22 -54t54 -22t54 22t22 54t-22 54t-54 22t-54 -22t-22 -54z" />
    <glyph glyph-name="uring" unicode="&#x16f;" horiz-adv-x="1007" 
d="M987 956l-72 -587q-13 -104 -52 -175t-122 -126q-136 -88 -297 -88q-102 0 -186 32.5t-139.5 105.5t-55.5 177q0 15 3 41t4 33l71 587h348l-65 -538q0 -3 -3 -30t-3 -42q0 -70 63 -70q16 0 29 5.5t21.5 12t15.5 21.5l10.5 22.5t7 28t4 26t2.5 26.5l66 538h350zM385 1268
q0 82 57.5 139t139.5 57t139 -57t57 -139t-57 -139.5t-139 -57.5t-139.5 57.5t-57.5 139.5zM506 1268q0 -32 22 -54t54 -22t53.5 22t21.5 54t-21.5 53.5t-53.5 21.5t-54 -21.5t-22 -53.5z" />
    <glyph glyph-name="Uhungarumlaut" unicode="&#x170;" horiz-adv-x="1099" 
d="M1116 1366l-119 -967q-12 -106 -51.5 -179t-122.5 -138q-136 -107 -317 -107q-188 0 -304 96.5t-116 280.5q0 50 6 99l113 915h362l-108 -883q-4 -46 -4 -67q0 -94 80 -94q32 0 53.5 14t32.5 42t15.5 49t8.5 56l109 883h362zM1067 1778l-215 -303h-180l133 303h262z
M729 1778l-213 -303h-180l133 303h260z" />
    <glyph glyph-name="uhungarumlaut" unicode="&#x171;" horiz-adv-x="1007" 
d="M987 956l-72 -587q-13 -104 -52 -175t-122 -126q-136 -88 -297 -88q-102 0 -186 32.5t-139.5 105.5t-55.5 177q0 15 3 41t4 33l71 587h348l-65 -538q0 -3 -3 -30t-3 -42q0 -70 63 -70q16 0 29 5.5t21.5 12t15.5 21.5l10.5 22.5t7 28t4 26t2.5 26.5l66 538h350zM1006 1389
l-215 -304h-181l133 304h263zM668 1389l-213 -304h-181l134 304h260z" />
    <glyph glyph-name="Uogonek" unicode="&#x172;" horiz-adv-x="1099" 
d="M1116 1366l-119 -967q-14 -119 -55 -194q-48 -89 -139 -158q-10 -8 -67.5 -46.5t-80.5 -61.5q-39 -43 -39 -82q0 -27 17 -47q18 -21 55 -21q34 0 74 18l-35 -157q-61 -25 -123 -25q-90 0 -137 43q-47 44 -47 117q0 59 37 115q29 42 69 77h-20q-184 0 -287 80
q-133 100 -133 301q0 52 6 93l113 915h362l-108 -883q-4 -40 -4 -59q0 -53 22 -80q19 -22 55 -22q40 0 64 22q17 16 27.5 41.5t14 44t7.5 53.5l109 883h362z" />
    <glyph glyph-name="uogonek" unicode="&#x173;" horiz-adv-x="1007" 
d="M987 956l-72 -587q-6 -47 -10 -72t-18 -66.5t-37 -74.5q-20 -28 -50 -54.5t-49 -39.5t-61 -39q-103 -64 -123 -86q-28 -31 -28 -74q0 -32 20 -49q17 -17 49 -17q34 0 72 19l-35 -150q-58 -24 -125 -24q-88 0 -135 49q-39 42 -39 106q0 51 31 101q25 40 80 84
q-12 -2 -39 -2q-75 0 -146.5 27.5t-121.5 74.5q-87 83 -87 213q0 40 9 96l69 565h348l-67 -563q-4 -20 -4 -49q0 -35 16 -51q17 -17 47 -17q33 0 54 21q24 24 32 84l70 575h350z" />
    <glyph glyph-name="Ydieresis" unicode="&#x178;" horiz-adv-x="1009" 
d="M1120 1366l-409 -788l-72 -578h-363l72 578l-237 788h378q62 -295 76 -422q39 105 178 422h377zM979 1638q0 -64 -50.5 -113.5t-115.5 -49.5q-55 0 -92 37.5t-37 93.5q0 66 49 114.5t115 48.5q57 0 94 -37t37 -94zM590 1622q0 -16 -10 -41q-19 -46 -62 -76t-92 -30
q-57 0 -94 37t-37 94q0 66 50 114.5t116 48.5q63 0 96 -41t33 -106z" />
    <glyph glyph-name="Zacute" unicode="&#x179;" horiz-adv-x="1038" 
d="M1114 1366l-4 -39l-422 -743q-28 -51 -84 -143t-78 -130q87 8 416 17l-39 -328h-928l5 29l370 667q111 197 225 348h-391l39 322h891zM946 1778l-215 -303h-201l134 303h282z" />
    <glyph glyph-name="zacute" unicode="&#x17a;" horiz-adv-x="876" 
d="M903 956l-282 -487q-57 -100 -113 -180h258l-35 -289h-756l289 496q65 110 113 174h-266l34 286h758zM821 1389l-215 -304h-200l133 304h282z" />
    <glyph glyph-name="Zdotaccent" unicode="&#x17b;" horiz-adv-x="1038" 
d="M1114 1366l-4 -39l-422 -743q-28 -51 -84 -143t-78 -130q87 8 416 17l-39 -328h-928l5 29l370 667q111 197 225 348h-391l39 322h891zM838 1630q0 -21 -13 -43q-19 -50 -63 -81t-96 -31q-59 0 -98.5 39.5t-39.5 97.5q0 69 51.5 120.5t120.5 51.5q68 0 103 -42.5
t35 -111.5z" />
    <glyph glyph-name="zdotaccent" unicode="&#x17c;" horiz-adv-x="876" 
d="M903 956l-282 -487q-57 -100 -113 -180h258l-35 -289h-756l289 496q65 110 113 174h-266l34 286h758zM702 1241q0 -23 -12 -43q-19 -50 -63.5 -81.5t-96.5 -31.5q-58 0 -97.5 39.5t-39.5 98.5q0 69 51.5 120.5t120.5 51.5q68 0 102.5 -42.5t34.5 -111.5z" />
    <glyph glyph-name="Zcaron" unicode="&#x17d;" horiz-adv-x="1038" 
d="M1114 1366l-4 -39l-422 -743q-28 -51 -84 -143t-78 -130q87 8 416 17l-39 -328h-928l5 29l370 667q111 197 225 348h-391l39 322h891zM995 1642l-340 -200l-247 211l145 129l143 -119l189 115z" />
    <glyph glyph-name="zcaron" unicode="&#x17e;" horiz-adv-x="876" 
d="M903 956l-282 -487q-57 -100 -113 -180h258l-35 -289h-756l289 496q65 110 113 174h-266l34 286h758zM840 1276l-326 -229l-242 241l146 125l131 -133l178 133z" />
    <glyph glyph-name="uni018F" unicode="&#x18f;" horiz-adv-x="1134" 
d="M96 788h635q5 178 -37 236q-29 37 -78 37q-48 0 -77 -29q-41 -38 -62 -110l-344 112q77 166 203 258q136 99 309 99q199 0 324 -125q141 -146 141 -426q0 -126 -23.5 -252.5t-83.5 -257.5t-149 -219q-78 -78 -157 -107t-189 -29q-91 0 -159.5 22.5t-127.5 84.5
q-143 148 -143 463q0 86 12 188zM698 518h-264q-12 -141 33 -186q24 -27 70 -27q43 0 77 31q60 55 84 182z" />
    <glyph glyph-name="florin" unicode="&#x192;" horiz-adv-x="1089" 
d="M981 1493l-45 -283q-12 0 -33.5 3.5t-32.5 3.5q-65 0 -77 -70l-37 -191h143l-37 -192h-145l-131 -680q-33 -171 -120.5 -263.5t-252.5 -92.5q-61 0 -156 26l54 293q40 -4 63 -4q45 0 67 15.5t31 58.5l125 647h-139l35 192h141l43 218q17 83 39.5 140.5t60.5 105.5
t98.5 72t143.5 24q60 0 162 -23z" />
    <glyph glyph-name="uni01CF" unicode="&#x1cf;" horiz-adv-x="550" 
d="M567 1366l-168 -1366h-362l168 1366h362zM750 1642l-340 -200l-248 211l145 129l144 -119l188 115z" />
    <glyph glyph-name="uni01D0" unicode="&#x1d0;" horiz-adv-x="512" 
d="M489 956l-116 -956h-350l118 956h348zM645 1276l-326 -229l-241 241l145 125l131 -133l178 133z" />
    <glyph glyph-name="uni01DD" unicode="&#x1dd;" horiz-adv-x="987" 
d="M412 631l-316 78q56 115 160 186q120 82 283 82q179 0 282 -98q117 -110 117 -318q0 -136 -44.5 -259.5t-127.5 -203.5q-70 -68 -151.5 -93t-178.5 -25q-84 0 -151.5 22t-122.5 82q-56 59 -84.5 148t-28.5 188q0 45 14 131h521q11 88 -23 125q-20 22 -57 22
q-31 0 -55 -16q-27 -19 -37 -51zM557 360h-166q-4 -71 23 -102q18 -18 49 -18q29 0 49 20q34 34 45 100z" />
    <glyph glyph-name="Gcaron" unicode="&#x1e6;" horiz-adv-x="1130" 
d="M1112 1053l-369 -131q0 34 -6.5 62.5t-28 52.5t-55.5 24q-32 0 -58.5 -18t-42.5 -40.5t-31 -61t-21 -60.5t-15 -58q-43 -187 -43 -329q0 -36 3 -63t13 -59.5t33.5 -50.5t59.5 -18q46 0 79.5 34.5t48.5 76.5t21 88h-133l35 286h506q-17 -176 -49 -303q-26 -108 -69.5 -197
t-108.5 -161t-157.5 -112t-205.5 -40q-94 0 -170 29t-126 79t-83.5 120t-48 148t-14.5 167q0 196 49 363q24 82 60 155.5t87 139t112.5 113t140.5 75t167 27.5q162 0 267.5 -88.5t152.5 -249.5zM1047 1642l-340 -200l-248 211l145 129l144 -119l188 115z" />
    <glyph glyph-name="gcaron" unicode="&#x1e7;" horiz-adv-x="993" 
d="M973 956l-121 -981q-21 -171 -100 -262q-66 -76 -166 -114.5t-209 -38.5q-186 0 -281 82t-98 264h356q0 -78 64 -78q22 0 39 9t26.5 20.5t17 32t10 35.5t5.5 38q1 6 8 62t11 86q-102 -125 -234 -125q-69 0 -120.5 35t-79.5 91.5t-41 118t-13 125.5q0 123 31 250
q18 65 46 126t70 118.5t101 92t127 34.5q107 0 190 -146l9 125h352zM582 571q0 117 -56 117q-33 0 -57 -33t-35 -82.5t-15.5 -90.5t-4.5 -74q0 -129 61 -129q31 0 54 35t33.5 87.5t15 95t4.5 74.5zM870 1276l-325 -229l-242 241l146 125l131 -133l178 133z" />
    <glyph glyph-name="AEacute" unicode="&#x1fc;" horiz-adv-x="1241" 
d="M1290 1366l-39 -322h-362l6 -198h303l-37 -309h-250l9 -209h243l-41 -328h-516l-4 174h-233l-50 -174h-376l479 1366h868zM449 457h151q-4 250 -4 377q0 66 4 202q-33 -148 -151 -579zM1004 1778l-216 -303h-200l133 303h283z" />
    <glyph glyph-name="aeacute" unicode="&#x1fd;" horiz-adv-x="1482" 
d="M180 657l35 277q162 43 287 43q90 0 154 -19.5t122 -74.5q140 94 283 94q180 0 277.5 -115t97.5 -297q0 -46 -17 -159h-516q0 -6 -1 -18.5t-1 -18.5q0 -127 76 -127q56 0 88 71l330 -6q-34 -90 -74.5 -149t-110.5 -105q-114 -73 -276 -73q-81 0 -144 22.5t-122 75.5
q-153 -98 -316 -98q-136 0 -227.5 77.5t-91.5 210.5q0 161 108.5 254.5t272.5 93.5q81 0 176 -20q-2 117 -170 117q-122 0 -240 -56zM928 596h176q0 133 -74 133q-25 0 -43.5 -12t-30 -35t-17 -41t-11.5 -45zM559 319q0 35 -24 53.5t-60 18.5q-41 0 -71.5 -28t-30.5 -68
q0 -36 23 -54t61 -18q44 0 73 26.5t29 69.5zM1124 1389l-215 -304h-200l133 304h282z" />
    <glyph glyph-name="Scommaaccent" unicode="&#x218;" horiz-adv-x="815" 
d="M836 1321l-52 -418q-31 63 -82 106.5t-112 43.5q-39 0 -74 -26t-35 -64q0 -28 21.5 -57t53 -53.5t69 -59.5t69 -72t53 -94t21.5 -123q0 -140 -62.5 -261t-177.5 -194.5t-256 -73.5q-127 0 -260 60l54 428q90 -150 213 -150q47 0 82.5 28t35.5 75q0 33 -29 67t-70.5 69
t-83 77.5t-70.5 110t-29 149.5q0 125 61.5 240.5t170.5 188.5t235 73q127 0 254 -70zM465 -92l-193 -385h-209l103 385h299z" />
    <glyph glyph-name="scommaaccent" unicode="&#x219;" horiz-adv-x="796" 
d="M799 899l-152 -260q-71 84 -133 84q-24 0 -42.5 -14t-18.5 -37q0 -25 21.5 -44t53.5 -31t70 -31.5t70 -43t53.5 -68t21.5 -104.5q0 -108 -60.5 -194.5t-155 -131t-201.5 -44.5q-93 0 -163.5 23t-162.5 77l160 264q32 -41 75.5 -70.5t86.5 -29.5q28 0 50.5 14t22.5 41
q0 39 -60 62q-3 1 -22 8q-48 19 -82.5 38.5t-66 48t-48 68t-16.5 88.5q0 81 37.5 151.5t99 116t137.5 71.5t154 26q134 0 271 -78zM496 -94l-193 -385h-209l103 385h299z" />
    <glyph glyph-name="Tcommaaccent" unicode="&#x21a;" horiz-adv-x="772" 
d="M874 1366l-40 -328h-201l-127 -1038h-363l127 1038h-200l41 328h763zM465 -92l-193 -385h-209l103 385h299z" />
    <glyph glyph-name="tcommaaccent" unicode="&#x21b;" horiz-adv-x="608" 
d="M653 956l-35 -286h-114l-84 -670h-348l82 670h-101l35 286h100l35 281h350l-34 -281h114zM393 -94l-192 -385h-209l102 385h299z" />
    <glyph glyph-name="uni0228" unicode="&#x228;" horiz-adv-x="829" 
d="M881 1366l-41 -322h-312l-24 -198h280l-39 -309h-278l-27 -209h312l-39 -328h-676l168 1366h676zM553 -231l-258 -254l-158 108l219 281z" />
    <glyph glyph-name="uni0229" unicode="&#x229;" horiz-adv-x="970" 
d="M545 322h340q-54 -164 -173 -253t-288 -89q-182 0 -279.5 104t-97.5 287q0 89 21.5 176t64.5 164t103 136t142.5 93.5t176.5 34.5q178 0 273.5 -114.5t95.5 -295.5q0 -49 -17 -162h-512q-2 -12 -2 -38q0 -109 66 -109q29 0 53 19t33 47zM424 594h162q0 4 1 12t1 12
q0 39 -17 68t-53 29q-41 0 -65 -37t-29 -84zM584 -217l-258 -240l-146 111l209 250z" />
    <glyph glyph-name="uni0237" unicode="&#x237;" horiz-adv-x="514" 
d="M494 956l-172 -1396h-349l168 1396h353z" />
    <glyph glyph-name="uni0259" unicode="&#x259;" horiz-adv-x="987" 
d="M412 631l-316 78q56 115 160 186q120 82 283 82q179 0 282 -98q117 -110 117 -318q0 -136 -44.5 -259.5t-127.5 -203.5q-70 -68 -151.5 -93t-178.5 -25q-84 0 -151.5 22t-122.5 82q-56 59 -84.5 148t-28.5 188q0 45 14 131h521q11 88 -23 125q-20 22 -57 22
q-31 0 -55 -16q-27 -19 -37 -51zM557 360h-166q-4 -71 23 -102q18 -18 49 -18q29 0 49 20q34 34 45 100z" />
    <glyph glyph-name="afii57929" unicode="&#x2bc;" horiz-adv-x="503" 
d="M547 1366l-205 -453h-213l119 453h299z" />
    <glyph glyph-name="circumflex" unicode="&#x2c6;" 
d="M637 1413l237 -239l-131 -130l-133 136l-184 -144l-109 138z" />
    <glyph glyph-name="caron" unicode="&#x2c7;" 
d="M901 1276l-326 -229l-241 241l145 125l131 -133l178 133z" />
    <glyph glyph-name="uni02C9" unicode="&#x2c9;" 
d="M961 1325l-25 -192h-686l24 192h687z" />
    <glyph glyph-name="breve" unicode="&#x2d8;" 
d="M805 1370h141q-30 -139 -125 -221t-235 -82q-125 0 -206 72.5t-81 195.5v35h141q18 -65 56.5 -86.5t111.5 -21.5q76 0 120.5 22.5t76.5 85.5z" />
    <glyph glyph-name="dotaccent" unicode="&#x2d9;" 
d="M762 1241q0 -23 -12 -43q-19 -50 -63.5 -81.5t-96.5 -31.5q-58 0 -97.5 39.5t-39.5 98.5q0 69 51.5 120.5t120.5 51.5q68 0 102.5 -42.5t34.5 -111.5z" />
    <glyph glyph-name="ring" unicode="&#x2da;" horiz-adv-x="1030" 
d="M416 1268q0 82 57 139t139 57t139.5 -57t57.5 -139t-57.5 -139.5t-139.5 -57.5t-139 57.5t-57 139.5zM537 1268q0 -32 21.5 -54t53.5 -22t54 22t22 54t-22 53.5t-54 21.5t-53.5 -21.5t-21.5 -53.5z" />
    <glyph glyph-name="ogonek" unicode="&#x2db;" 
d="M774 -188l-33 -144q-41 -18 -90 -18q-92 0 -147 49q-41 38 -41 100q0 51 39 111q31 45 76 90h122q-2 -3 -10.5 -14t-17 -23.5t-15.5 -25.5q-26 -43 -26 -76q0 -29 18 -43q23 -19 58 -19q30 0 67 13z" />
    <glyph glyph-name="tilde" unicode="&#x2dc;" 
d="M784 1362h181q-10 -114 -73 -193t-173 -79q-52 0 -126 33.5t-101 33.5q-52 0 -64 -72h-182q7 71 24 115q27 67 84.5 111.5t126.5 44.5q55 0 130.5 -34t107.5 -34q54 0 65 74z" />
    <glyph glyph-name="hungarumlaut" unicode="&#x2dd;" 
d="M1057 1389l-215 -304h-180l133 304h262zM719 1389l-213 -304h-180l133 304h260z" />
    <glyph glyph-name="acutecomb" unicode="&#x301;" horiz-adv-x="4" 
d="M-141 1389l-215 -304h-201l133 304h283z" />
    <glyph glyph-name="uni0394" unicode="&#x394;" horiz-adv-x="1366" 
d="M1274 0h-1299l502 1366h289zM889 242l-266 798l-267 -798h533z" />
    <glyph glyph-name="uni0394" unicode="&#x2206;" horiz-adv-x="1366" 
d="M1274 0h-1299l502 1366h289zM889 242l-266 798l-267 -798h533z" />
    <glyph glyph-name="uni03A9" unicode="&#x3a9;" horiz-adv-x="1366" 
d="M1296 0h-553v213q275 149 275 508q0 80 -21.5 156t-62.5 140t-109 103t-153 39t-153 -39t-109 -103t-62.5 -140t-21.5 -156q0 -364 276 -508v-213h-555v240h279q-148 91 -213.5 213t-65.5 297q0 180 78 328t221.5 234.5t325.5 86.5q136 0 253.5 -50.5t198 -138
t126.5 -206.5t46 -254q0 -248 -139 -402q-48 -52 -139 -108h278v-240z" />
    <glyph glyph-name="uni03A9" unicode="&#x2126;" horiz-adv-x="1366" 
d="M1296 0h-553v213q275 149 275 508q0 80 -21.5 156t-62.5 140t-109 103t-153 39t-153 -39t-109 -103t-62.5 -140t-21.5 -156q0 -364 276 -508v-213h-555v240h279q-148 91 -213.5 213t-65.5 297q0 180 78 328t221.5 234.5t325.5 86.5q136 0 253.5 -50.5t198 -138
t126.5 -206.5t46 -254q0 -248 -139 -402q-48 -52 -139 -108h278v-240z" />
    <glyph glyph-name="pi" unicode="&#x3c0;" horiz-adv-x="1449" 
d="M1376 670h-155v-670h-353v670h-276v-670h-352v670h-158v286h1294v-286z" />
    <glyph glyph-name="afii10023" unicode="&#x401;" horiz-adv-x="839" 
d="M881 1366l-41 -322h-312l-24 -198h280l-39 -309h-278l-27 -209h312l-39 -328h-676l168 1366h676zM899 1624q0 -64 -50.5 -114t-115.5 -50q-55 0 -92 37.5t-37 93.5q0 66 49 115t115 49q57 0 94 -37t37 -94zM520 1608q0 -16 -10 -41q-19 -46 -62 -76.5t-92 -30.5
q-57 0 -94 37t-37 94q0 66 50 115t116 49q63 0 96 -41t33 -106z" />
    <glyph glyph-name="afii10051" unicode="&#x402;" horiz-adv-x="1189" 
d="M156 0l129 1038h-203l41 328h878l-40 -328h-316l-16 -133q-8 -74 -27 -131q115 68 223 68q145 0 232 -109q82 -102 82 -272q0 -124 -40 -234t-106 -172q-92 -88 -252 -88q-77 0 -151 29l63 291q22 -19 49 -19q28 0 50 29q26 36 26 111q0 60 -24 88q-23 30 -62 30
q-40 0 -114 -34l-60 -492h-362z" />
    <glyph glyph-name="afii10052" unicode="&#x403;" horiz-adv-x="782" 
d="M846 1366l-39 -322h-279l-129 -1044h-362l168 1366h641zM834 1778l-216 -303h-200l133 303h283z" />
    <glyph glyph-name="afii10053" unicode="&#x404;" horiz-adv-x="993" 
d="M913 430l-65 -387q-123 -68 -266 -68q-222 0 -351 134q-69 70 -111 183t-42 263q0 185 64.5 370.5t187.5 303.5q168 162 424 162q149 0 270 -66l-47 -387q-40 50 -80 76q-55 35 -129 35q-107 0 -176 -66q-60 -57 -86 -137h336l-41 -305h-338q3 -96 65 -158
q57 -55 152 -55q72 0 131 26q55 23 102 76z" />
    <glyph glyph-name="afii10054" unicode="&#x405;" horiz-adv-x="815" 
d="M836 1321l-52 -418q-31 63 -82 106.5t-112 43.5q-39 0 -74 -26t-35 -64q0 -28 21.5 -57t53 -53.5t69 -59.5t69 -72t53 -94t21.5 -123q0 -140 -62.5 -261t-177.5 -194.5t-256 -73.5q-127 0 -260 60l54 428q90 -150 213 -150q47 0 82.5 28t35.5 75q0 33 -29 67t-70.5 69
t-83 77.5t-70.5 110t-29 149.5q0 125 61.5 240.5t170.5 188.5t235 73q127 0 254 -70z" />
    <glyph glyph-name="afii10055" unicode="&#x406;" horiz-adv-x="550" 
d="M567 1366l-168 -1366h-362l168 1366h362z" />
    <glyph glyph-name="afii10056" unicode="&#x407;" horiz-adv-x="550" 
d="M567 1366l-168 -1366h-362l168 1366h362zM649 1638q0 -64 -35.5 -113.5t-81.5 -49.5q-38 0 -64 37.5t-26 93.5q0 66 34.5 114.5t80.5 48.5q40 0 66 -37t26 -94zM377 1622q0 -21 -8 -41q-12 -46 -42.5 -76t-64.5 -30q-40 0 -66 37t-26 94q0 65 35.5 114t81.5 49
q44 0 67 -41t23 -106z" />
    <glyph glyph-name="afii10057" unicode="&#x408;" horiz-adv-x="714" 
d="M731 1366l-117 -948q-8 -58 -14 -92t-21.5 -80t-39.5 -84q-117 -187 -363 -187q-110 0 -231 45l47 381q52 -79 135 -79q35 0 60.5 14t39.5 39.5t21.5 52t11.5 61.5l107 877h364z" />
    <glyph glyph-name="afii10058" unicode="&#x409;" horiz-adv-x="1644" 
d="M1079 0h-411l127 1030h-164l-56 -452q-23 -181 -60 -301t-107 -191q-107 -109 -302 -109q-78 0 -147 17l45 364q32 -32 76 -32q53 0 86 30q48 45 65 199l101 811h862l-61 -502h18q241 0 356 -112q107 -107 107 -273q0 -100 -35 -190.5t-98 -153.5q-137 -135 -402 -135z
M1096 569l-33 -272q42 -6 83 8t66 41q37 37 37 105q0 62 -41 94q-46 34 -112 24z" />
    <glyph glyph-name="afii10059" unicode="&#x40a;" horiz-adv-x="1552" 
d="M987 0h-412l68 569h-176l-68 -569h-362l168 1366h362l-61 -502h176l61 502h359l-62 -502h19q241 0 356 -112q107 -107 107 -273q0 -100 -35 -190.5t-98 -153.5q-137 -135 -402 -135zM1004 569l-33 -272q42 -6 83 8t66 41q37 37 37 105q0 62 -41 94q-46 34 -112 24z" />
    <glyph glyph-name="afii10060" unicode="&#x40b;" horiz-adv-x="1165" 
d="M154 0l131 1038h-203l41 328h878l-40 -328h-316l-31 -219q82 31 185 31q149 0 233 -82q82 -80 82 -217q0 -23 -14 -156l-47 -395h-361l41 324q10 92 10 102q0 50 -20 72q-21 24 -64 24q-39 0 -81 -22l-62 -500h-362z" />
    <glyph glyph-name="afii10061" unicode="&#x40c;" horiz-adv-x="1091" 
d="M1155 1366l-371 -659l240 -707h-391l-162 653l-72 -653h-362l168 1366h362l-82 -610l287 610h383zM967 1778l-215 -303h-201l133 303h283z" />
    <glyph glyph-name="afii10062" unicode="&#x40e;" 
d="M111 1366h376l48 -223q31 -137 34 -289q46 163 101 299l84 213h381l-652 -1366h-362l221 471zM772 1790l256 -76q-34 -136 -147 -203q-91 -55 -248 -55q-153 0 -242 53q-114 69 -149 203l260 78q3 -22 14.5 -46.5t26.5 -37.5q35 -31 96 -31t96 35q29 33 37 80z" />
    <glyph glyph-name="afii10145" unicode="&#x40f;" horiz-adv-x="1085" 
d="M567 1366l-127 -1032h172l127 1032h363l-168 -1366h-285l-33 -266h-327l33 266h-285l168 1366h362z" />
    <glyph glyph-name="afii10017" unicode="&#x410;" horiz-adv-x="1073" 
d="M1006 0h-375l-6 174h-244l-51 -174h-377l491 1366h445zM614 625v178q0 46 3.5 131t3.5 104q-3 -13 -20 -84t-28 -108q-14 -48 -50 -179t-58 -202h153q-4 106 -4 160z" />
    <glyph glyph-name="afii10018" unicode="&#x411;" horiz-adv-x="1005" 
d="M455 0h-418l168 1366h751l-38 -322h-390l-26 -213h20q249 0 359 -110q94 -94 94 -250q0 -213 -131 -338q-138 -133 -389 -133zM467 557l-31 -260q35 -6 72.5 4.5t60.5 34.5q41 41 41 115q0 55 -32 81q-35 33 -111 25z" />
    <glyph glyph-name="afii10019" unicode="&#x412;" horiz-adv-x="1069" 
d="M205 1366h422q71 0 131.5 -10t115 -34.5t92.5 -62t60.5 -96.5t22.5 -135q0 -139 -75 -227.5t-212 -100.5q124 -18 181.5 -77.5t57.5 -182.5q0 -192 -131.5 -316t-324.5 -124h-508zM530 1069l-28 -233q8 -2 24 -2q67 0 112.5 35.5t45.5 99.5q0 102 -115 102q-27 0 -39 -2z
M469 557l-33 -260q10 -2 31 -2q71 0 119.5 41t48.5 110q0 58 -39 85.5t-98 27.5q-5 0 -14.5 -1t-14.5 -1z" />
    <glyph glyph-name="afii10020" unicode="&#x413;" horiz-adv-x="782" 
d="M846 1366l-39 -322h-279l-129 -1044h-362l168 1366h641z" />
    <glyph glyph-name="afii10021" unicode="&#x414;" horiz-adv-x="1193" 
d="M311 1366h842l-129 -1042h115l-72 -590h-311l32 266h-505l-33 -266h-311l73 590q69 15 115 61q75 75 100 291zM608 1042l-43 -346q-22 -188 -59 -268q-29 -59 -88 -104h252l88 718h-150z" />
    <glyph glyph-name="afii10022" unicode="&#x415;" horiz-adv-x="829" 
d="M881 1366l-41 -322h-312l-24 -198h280l-39 -309h-278l-27 -209h312l-39 -328h-676l168 1366h676z" />
    <glyph glyph-name="afii10024" unicode="&#x416;" horiz-adv-x="1591" 
d="M1452 0h-373l-125 657l-69 -657h-348l92 657l-287 -657h-373l363 715l-201 651h369l141 -614l64 614h348l-86 -614l290 614h365l-360 -664z" />
    <glyph glyph-name="afii10025" unicode="&#x417;" horiz-adv-x="925" 
d="M143 928l50 389q129 74 284 74q218 0 334 -119q94 -97 94 -252q0 -150 -82 -234q-77 -77 -196 -92q107 0 176 -69t69 -189q0 -91 -37.5 -181.5t-103.5 -152.5q-136 -127 -369 -127q-154 0 -321 88l51 412q44 -73 101 -117q61 -47 141 -47q70 0 108 35q35 31 35 86
q0 56 -49 88q-39 25 -119 25h-53l35 303h49q90 0 133 22q53 29 53 86q0 43 -37 72q-39 31 -112 31q-65 0 -125 -37q-46 -27 -109 -94z" />
    <glyph glyph-name="afii10026" unicode="&#x418;" horiz-adv-x="1140" 
d="M37 0l168 1366h348l-47 -379q-31 -252 -96 -461q88 209 188 400l236 440h323l-168 -1366h-348l45 365q24 202 76 438q-55 -160 -178 -389l-224 -414h-323z" />
    <glyph glyph-name="afii10027" unicode="&#x419;" horiz-adv-x="1140" 
d="M37 0l168 1366h348l-47 -379q-31 -252 -96 -461q88 209 188 400l236 440h323l-168 -1366h-348l45 365q24 202 76 438q-55 -160 -178 -389l-224 -414h-323zM854 1790l256 -76q-34 -136 -147 -203q-91 -55 -248 -55q-153 0 -242 53q-114 69 -149 203l260 78
q3 -22 14.5 -46.5t26.5 -37.5q35 -31 96 -31t96 35q29 33 37 80z" />
    <glyph glyph-name="afii10028" unicode="&#x41a;" horiz-adv-x="1091" 
d="M1155 1366l-371 -659l240 -707h-391l-162 653l-72 -653h-362l168 1366h362l-82 -610l287 610h383z" />
    <glyph glyph-name="afii10029" unicode="&#x41b;" horiz-adv-x="1187" 
d="M332 1366h872l-168 -1366h-368l127 1030h-164l-56 -452q-23 -181 -60 -301t-107 -191q-107 -109 -302 -109q-78 0 -147 17l45 364q32 -32 76 -32q53 0 86 30q48 45 65 199z" />
    <glyph glyph-name="afii10030" unicode="&#x41c;" horiz-adv-x="1546" 
d="M1458 1366l-37 -1366h-379q32 399 72 870q-48 -188 -123 -436.5t-135 -433.5h-297l-22 657q0 11 -1 35t-1 35q0 49 4 143q-14 -102 -33.5 -225t-33.5 -204t-41 -231t-38 -210h-389l324 1366h452l19 -461q4 -70 4 -102q0 -24 -1 -51.5t-2.5 -61t-2.5 -51.5q19 87 48 191.5
t48 166.5t61.5 195.5t55.5 173.5h448z" />
    <glyph glyph-name="afii10031" unicode="&#x41d;" horiz-adv-x="1087" 
d="M1104 1366l-168 -1366h-363l68 549h-174l-68 -549h-362l168 1366h362l-59 -483h174l59 483h363z" />
    <glyph glyph-name="afii10032" unicode="&#x41e;" horiz-adv-x="1142" 
d="M690 1391q176 0 287 -117q141 -148 141 -426q0 -197 -63 -399t-193 -330q-147 -144 -342 -144q-177 0 -299 127q-46 47 -76.5 103t-44 116.5t-18 109t-4.5 108.5q0 237 71 415t181 285q154 152 360 152zM645 1047q-36 0 -72 -39q-50 -54 -84 -187q-34 -131 -34 -284
q0 -148 45 -193q22 -22 53 -22q40 0 68 32q33 37 56.5 97.5t33.5 105.5q30 120 30 274q0 158 -45 197q-22 19 -51 19z" />
    <glyph glyph-name="afii10033" unicode="&#x41f;" horiz-adv-x="1087" 
d="M1104 1366l-168 -1366h-363l127 1032h-174l-127 -1032h-362l168 1366h899z" />
    <glyph glyph-name="afii10034" unicode="&#x420;" horiz-adv-x="1019" 
d="M205 1366h352q487 0 487 -395q0 -107 -38.5 -211.5t-110.5 -177.5q-155 -158 -440 -133l-56 -449h-362zM494 754h18q73 0 117.5 52.5t44.5 125.5q0 59 -30 97t-87 38h-27z" />
    <glyph glyph-name="afii10035" unicode="&#x421;" horiz-adv-x="897" 
d="M944 1356l-47 -389q-37 42 -72 62t-86 20q-63 0 -113.5 -31t-82 -79.5t-52.5 -111t-29.5 -121t-8.5 -114.5q0 -52 9.5 -95.5t30.5 -82t60 -60.5t94 -22q97 0 199 88l-70 -395q-121 -50 -223 -50q-118 0 -211 45t-149.5 122.5t-85.5 176.5t-29 213q0 125 26.5 246.5
t82.5 233t135 195.5t193.5 134t248.5 50q57 0 93.5 -7t86.5 -28z" />
    <glyph glyph-name="afii10036" unicode="&#x422;" horiz-adv-x="772" 
d="M874 1366l-40 -328h-201l-127 -1038h-363l127 1038h-200l41 328h763z" />
    <glyph glyph-name="afii10037" unicode="&#x423;" 
d="M111 1366h376l48 -223q31 -137 34 -289q46 163 101 299l84 213h381l-652 -1366h-362l221 471z" />
    <glyph glyph-name="afii10038" unicode="&#x424;" horiz-adv-x="1439" 
d="M475 0l23 184q-169 17 -287 129q-133 127 -133 346q0 271 153 433q70 73 174.5 120t225.5 54l20 176h361l-21 -176q80 -9 158 -43.5t133 -89.5q133 -133 133 -357q0 -135 -44.5 -246t-115.5 -180q-74 -72 -183 -115t-214 -51l-22 -184h-361zM924 948l-54 -444
q87 3 142 61q63 69 63 197q0 92 -47 139q-41 41 -104 47zM565 502l56 446q-76 -3 -129 -51q-74 -71 -74 -201q0 -92 49 -143q41 -41 98 -51z" />
    <glyph glyph-name="afii10039" unicode="&#x425;" horiz-adv-x="1042" 
d="M1130 1366l-389 -657l244 -709h-403q-28 118 -54 254q-16 72 -20 113q-46 -112 -170 -367h-395l413 709l-227 657h403q7 -38 23 -112.5t23 -112.5q2 -11 5 -31t6 -36.5t7 -31.5q30 97 127 324h407z" />
    <glyph glyph-name="afii10040" unicode="&#x426;" horiz-adv-x="1142" 
d="M567 1366l-127 -1032h168l127 1032h363l-127 -1032h143l-76 -600h-327l34 266h-708l168 1366h362z" />
    <glyph glyph-name="afii10041" unicode="&#x427;" horiz-adv-x="1067" 
d="M553 0l68 551q-82 -23 -162 -23q-144 0 -232 68q-104 81 -104 229q0 59 12 152l49 389h361l-45 -365q-6 -55 -6 -61q0 -43 26 -66q25 -22 72 -22q36 0 67 14l62 500h362l-168 -1366h-362z" />
    <glyph glyph-name="afii10042" unicode="&#x428;" horiz-adv-x="1597" 
d="M565 1366l-127 -1032h164l127 1032h361l-127 -1032h163l127 1032h361l-168 -1366h-1409l168 1366h360z" />
    <glyph glyph-name="afii10043" unicode="&#x429;" horiz-adv-x="1679" 
d="M569 1366l-127 -1032h164l127 1032h361l-127 -1032h163l127 1032h361l-127 -1032h160l-76 -600h-328l35 266h-1241l168 1366h360z" />
    <glyph glyph-name="afii10044" unicode="&#x42a;" horiz-adv-x="1136" 
d="M571 0h-415l127 1038h-170l41 328h532l-61 -502h18q241 0 356 -112q107 -107 107 -273q0 -100 -35 -190.5t-98 -153.5q-137 -135 -402 -135zM588 569l-33 -272q42 -6 83.5 8t66.5 41q36 36 36 105q0 62 -41 94q-46 34 -112 24z" />
    <glyph glyph-name="afii10045" unicode="&#x42b;" horiz-adv-x="1538" 
d="M1380 0h-362l162 1366h374zM451 0h-414l168 1366h362l-61 -502h16q242 0 357 -112q106 -102 106 -269q0 -102 -35.5 -194t-97.5 -154q-137 -135 -401 -135zM469 569l-33 -272q42 -6 83.5 8t66.5 41q37 37 37 105q0 62 -41 94q-46 34 -113 24z" />
    <glyph glyph-name="afii10046" unicode="&#x42c;" horiz-adv-x="1017" 
d="M453 0h-416l168 1366h362l-61 -502h18q242 0 357 -112q106 -106 106 -273q0 -100 -35 -190.5t-98 -153.5q-137 -135 -401 -135zM469 569l-33 -272q42 -6 83.5 8t66.5 41q37 37 37 105q0 62 -41 94q-46 34 -113 24z" />
    <glyph glyph-name="afii10047" unicode="&#x42d;" horiz-adv-x="1015" 
d="M82 59l22 396q30 -49 89 -90t135 -41q92 0 157 57q30 27 52 69.5t30 84.5h-309l39 309h307q-15 98 -74 151q-61 54 -155 54q-66 0 -125 -33q-47 -26 -90 -72l49 385q113 62 240 62q234 0 376 -142q77 -77 121.5 -200.5t44.5 -270.5q0 -177 -62.5 -359.5t-189.5 -301.5
q-77 -73 -167 -107.5t-207 -34.5q-82 0 -142 19.5t-141 64.5z" />
    <glyph glyph-name="afii10048" unicode="&#x42e;" horiz-adv-x="1658" 
d="M506 870h141q24 110 76.5 206.5t122.5 166.5q151 148 356 148q180 0 291 -117q141 -148 141 -426q0 -127 -23.5 -253.5t-83.5 -258t-149 -219.5q-75 -75 -159 -108.5t-193 -33.5q-172 0 -281 109q-143 143 -143 465h-135l-68 -549h-362l168 1366h362zM1161 1047
q-35 0 -71 -39q-50 -54 -84 -187q-35 -134 -35 -284q0 -148 45 -193q22 -22 53 -22q40 0 68 32q33 37 56.5 97.5t33.5 105.5q30 120 30 274q0 158 -45 197q-22 19 -51 19z" />
    <glyph glyph-name="afii10049" unicode="&#x42f;" horiz-adv-x="1107" 
d="M0 0l317 551q-81 35 -129 102q-57 82 -57 209q0 111 35 201.5t94 150.5q83 85 211.5 118.5t300.5 33.5h352l-168 -1366h-362l39 301q24 180 37 246l-262 -547h-408zM684 733l39 326q-87 10 -143 -41q-58 -51 -58 -144q0 -61 39 -100q44 -41 111 -41h12z" />
    <glyph glyph-name="afii10065" unicode="&#x430;" horiz-adv-x="1001" 
d="M981 956l-117 -956h-350q5 27 15.5 81.5t15.5 80.5q-51 -86 -114.5 -134t-151.5 -48q-67 0 -115 34.5t-72 91.5t-34.5 115t-10.5 121q0 137 29 262q16 67 42.5 128.5t67 118.5t99.5 91.5t129 34.5q81 0 125.5 -44t76.5 -128q1 25 4.5 75t4.5 76h356zM578 590q0 94 -58 94
q-34 0 -59.5 -35.5t-38 -88t-18 -97.5t-5.5 -78q0 -113 64 -113q33 0 58 38.5t36 95.5t16 103.5t5 80.5z" />
    <glyph glyph-name="afii10066" unicode="&#x431;" horiz-adv-x="1030" 
d="M770 1141l-78 -23q-50 -14 -75 -22.5t-65.5 -29.5t-68.5 -48q-86 -83 -100 -211q37 79 96 121q68 49 166 49q131 0 217 -86q51 -53 78 -135.5t27 -175.5q0 -75 -13 -155t-54 -175t-105 -156q-72 -68 -152 -91t-174 -23q-79 0 -145 20t-123 78q-119 121 -119 381
q0 200 61 432q29 106 70 194.5t115 161.5q67 66 144 100t187 64q103 25 138 66q22 24 26 59h269q-5 -69 -32 -141.5t-71 -126.5q-72 -87 -219 -127zM553 709q-26 0 -49 -23q-36 -36 -59 -123t-23 -164q0 -75 22 -116q19 -35 54 -35q31 0 51 24q38 39 59 125t21 162
q0 70 -23 115q-18 35 -53 35z" />
    <glyph glyph-name="afii10067" unicode="&#x432;" horiz-adv-x="974" 
d="M139 956h410q66 0 109.5 -3t105 -22.5t98.5 -56.5q64 -69 64 -169q0 -96 -54 -150q-30 -30 -78 -46.5t-92 -16.5v-5q44 2 87.5 -12.5t70.5 -42.5q45 -49 45 -131q0 -120 -71 -197q-97 -104 -297 -104h-514zM442 573h15q73 0 102 25q31 28 31 70q0 31 -29 53
q-23 14 -84 14h-14zM399 221h13q68 0 98 19q39 25 39 75q0 41 -35 62q-30 12 -78 12h-16z" />
    <glyph glyph-name="afii10068" unicode="&#x433;" horiz-adv-x="745" 
d="M719 670h-262l-82 -670h-352l116 956h615z" />
    <glyph glyph-name="afii10069" unicode="&#x434;" horiz-adv-x="1091" 
d="M250 956h774l-82 -677h109l-66 -515h-283l31 236h-483l-29 -236h-282l63 515q72 14 113 55q69 64 92 270zM602 279l49 399h-125l-20 -162q-12 -88 -35 -143q-26 -58 -78 -94h209z" />
    <glyph glyph-name="afii10070" unicode="&#x435;" horiz-adv-x="970" 
d="M545 322h340q-54 -164 -173 -253t-288 -89q-182 0 -279.5 104t-97.5 287q0 89 21.5 176t64.5 164t103 136t142.5 93.5t176.5 34.5q178 0 273.5 -114.5t95.5 -295.5q0 -49 -17 -162h-512q-2 -12 -2 -38q0 -109 66 -109q29 0 53 19t33 47zM424 594h162q0 4 1 12t1 12
q0 39 -17 68t-53 29q-41 0 -65 -37t-29 -84z" />
    <glyph glyph-name="afii10072" unicode="&#x436;" horiz-adv-x="1480" 
d="M1405 0h-383l-53 197q-36 133 -51 245l-56 -442h-344l55 442q-61 -148 -112 -245l-103 -197h-393l297 489l-162 467h365l61 -213q39 -143 54 -241l55 454h344l-55 -454q37 91 114 241l111 213h369l-281 -467z" />
    <glyph glyph-name="afii10073" unicode="&#x437;" horiz-adv-x="890" 
d="M221 621l-112 260q80 43 151 65q97 31 207 31q203 0 301 -98q70 -70 70 -174q0 -98 -60 -154q-27 -25 -68 -42t-83 -20q38 -3 76.5 -18.5t62.5 -38.5q51 -47 51 -133q0 -113 -84 -203q-65 -67 -143.5 -91.5t-177.5 -24.5q-131 0 -226 36q-80 29 -166 93l168 247
q23 -44 76 -77q48 -29 101 -29q33 0 65 16q25 17 25 47q0 39 -41 54q-31 10 -101 10h-41l27 223h61q53 0 84 8q45 13 45 51q0 25 -26 41q-24 15 -68 15q-49 0 -94 -25q-12 -7 -24 -16t-21.5 -17.5t-16 -15.5t-12 -13t-6.5 -7z" />
    <glyph glyph-name="afii10074" unicode="&#x438;" horiz-adv-x="1032" 
d="M139 956h340l-33 -268q-12 -112 -45 -252q9 22 43 88.5t52 96.5l192 335h324l-117 -956h-340l31 256q7 57 45 264q-54 -124 -94 -192l-191 -328h-323z" />
    <glyph glyph-name="afii10075" unicode="&#x439;" horiz-adv-x="1032" 
d="M139 956h340l-33 -268q-12 -112 -45 -252q9 22 43 88.5t52 96.5l192 335h324l-117 -956h-340l31 256q7 57 45 264q-54 -124 -94 -192l-191 -328h-323zM719 1386l227 -53q-19 -68 -59 -122.5t-88 -86.5q-79 -51 -205 -51q-134 0 -211 55q-46 32 -79.5 86t-43.5 119l242 53
q-4 -55 24 -86q23 -26 70 -26q52 0 78 26q32 28 45 86z" />
    <glyph glyph-name="afii10076" unicode="&#x43a;" horiz-adv-x="997" 
d="M934 0h-389l-49 164q-3 11 -14.5 46t-24.5 82t-31 124l-51 -416h-352l116 956h353l-56 -452q64 158 144 301l82 151h372l-284 -479z" />
    <glyph glyph-name="afii10077" unicode="&#x43b;" horiz-adv-x="1036" 
d="M1016 956l-117 -956h-352l82 670h-123l-27 -213q-36 -298 -147 -402q-85 -78 -236 -78q-69 0 -137 21l35 285q21 -15 49 -15q41 0 66 21q46 35 63 184l59 483h785z" />
    <glyph glyph-name="afii10078" unicode="&#x43c;" horiz-adv-x="1302" 
d="M711 0h-242l-35 346q-13 113 -10 219q-7 -81 -35 -221l-67 -344h-342l241 956h373l33 -319q14 -130 12 -240q23 112 66 230l114 329h373l8 -956h-342l19 317q7 134 18 248q-22 -110 -70 -241z" />
    <glyph glyph-name="afii10079" unicode="&#x43d;" horiz-adv-x="995" 
d="M492 956l-39 -325h131l39 325h352l-117 -956h-352l43 344h-131l-43 -344h-352l116 956h353z" />
    <glyph glyph-name="afii10080" unicode="&#x43e;" horiz-adv-x="983" 
d="M553 977q168 0 268 -96q113 -108 113 -312q0 -136 -44.5 -259.5t-127.5 -203.5q-130 -126 -336 -126q-163 0 -260 90q-117 108 -117 319q0 94 20.5 177t53.5 140t55 86t45 52q137 133 330 133zM520 709q-26 0 -49 -23q-36 -36 -59 -123t-23 -164q0 -73 23 -116
q19 -35 53 -35q31 0 51 24q38 39 59 125t21 162q0 70 -23 115q-17 35 -53 35z" />
    <glyph glyph-name="afii10081" unicode="&#x43f;" horiz-adv-x="991" 
d="M854 0h-352l82 670h-127l-82 -670h-352l116 956h832z" />
    <glyph glyph-name="afii10082" unicode="&#x440;" horiz-adv-x="1001" 
d="M494 956l-25 -135q49 75 103.5 115.5t132.5 40.5q71 0 123 -36.5t78.5 -96.5t38 -122.5t11.5 -129.5q0 -143 -30 -250q-17 -65 -44.5 -125t-68.5 -115t-99.5 -88.5t-125.5 -33.5q-73 0 -120.5 38.5t-82.5 110.5q0 -52 -12 -158l-51 -411h-351l174 1396h349zM594 557
q0 19 -2 37.5t-8 40.5t-20 35.5t-34 13.5q-31 0 -54.5 -33t-34.5 -82t-16 -90.5t-5 -72.5q0 -127 59 -127q31 0 55 33.5t36 81.5t18 90.5t6 72.5z" />
    <glyph glyph-name="afii10083" unicode="&#x441;" horiz-adv-x="610" 
d="M633 973l-39 -311q-84 -6 -131 -61t-47 -140q0 -58 29 -104t83 -46h23l-39 -325q-46 -6 -94 -6q-92 0 -163.5 34.5t-115 95t-66 136.5t-22.5 164q0 107 38 209.5t104 181.5t163 127.5t207 48.5q24 0 70 -4z" />
    <glyph glyph-name="afii10084" unicode="&#x442;" horiz-adv-x="770" 
d="M815 956l-35 -286h-192l-84 -670h-348l82 670h-185l35 286h727z" />
    <glyph glyph-name="afii10085" unicode="&#x443;" horiz-adv-x="937" 
d="M997 956l-616 -1396h-361l226 479l-168 917h352q5 -40 14.5 -117t15 -125t10.5 -115t5 -124q0 -10 -1 -30.5t-1 -30.5q8 28 22.5 83t23.5 88.5t23.5 80t28.5 84.5l78 206h348z" />
    <glyph glyph-name="afii10086" unicode="&#x444;" horiz-adv-x="1312" 
d="M367 -440l55 426q-149 7 -256 114q-117 122 -117 332q0 247 152 395q134 130 342 144l51 395h348l-51 -395q152 -25 256 -133q117 -124 117 -316q0 -119 -39 -226.5t-111 -178.5q-60 -58 -149 -94.5t-195 -36.5l-55 -426h-348zM825 684l-51 -412q73 3 115 45
q67 64 67 193q0 77 -34 123q-30 42 -97 51zM487 272l52 412q-66 -3 -111 -45q-32 -29 -51 -81.5t-19 -115.5q0 -82 37 -127q33 -43 92 -43z" />
    <glyph glyph-name="afii10087" unicode="&#x445;" horiz-adv-x="972" 
d="M1006 956l-334 -456l243 -500h-405q-37 138 -51 225q-40 -89 -125 -225h-391l346 492l-213 464h399q41 -202 41 -206q17 40 53 109.5t49 96.5h388z" />
    <glyph glyph-name="afii10088" unicode="&#x446;" horiz-adv-x="1038" 
d="M623 956h352l-82 -669h125l-64 -523h-290l28 236h-669l116 956h353l-82 -669h131z" />
    <glyph glyph-name="afii10089" unicode="&#x447;" horiz-adv-x="974" 
d="M485 0l41 330q-74 -21 -145 -21q-149 0 -229 76q-70 70 -70 186q0 57 10 134l31 251h348l-31 -249q-4 -28 -4 -54q0 -33 19 -47q16 -14 49 -14q31 0 55 16l43 348h352l-116 -956h-353z" />
    <glyph glyph-name="afii10090" unicode="&#x448;" horiz-adv-x="1462" 
d="M618 956h345l-82 -669h135l82 669h344l-117 -956h-1302l116 956h344l-82 -669h136z" />
    <glyph glyph-name="afii10091" unicode="&#x449;" horiz-adv-x="1517" 
d="M618 956h345l-82 -669h135l82 669h344l-82 -669h137l-63 -523h-291l28 236h-1148l116 956h344l-82 -669h136z" />
    <glyph glyph-name="afii10092" unicode="&#x44a;" horiz-adv-x="1077" 
d="M571 616h109q180 0 268 -73t88 -205q0 -70 -24 -135.5t-68 -108.5q-98 -94 -285 -94h-516l82 670h-164l35 286h516zM524 225h11q72 0 102 15q43 21 43 77q0 29 -18 50q-26 28 -105 28h-12z" />
    <glyph glyph-name="afii10093" unicode="&#x44b;" horiz-adv-x="1421" 
d="M1282 0h-352l117 956h352zM449 616h100q180 0 268 -73t88 -205q0 -70 -24 -135.5t-68 -108.5q-98 -94 -285 -94h-508l117 956h352zM401 225h11q72 0 102 15q43 21 43 77q0 29 -18 50q-26 28 -105 28h-12z" />
    <glyph glyph-name="afii10094" unicode="&#x44c;" horiz-adv-x="954" 
d="M449 616h108q180 0 268 -73t88 -205q0 -70 -24 -135.5t-68 -108.5q-98 -94 -284 -94h-517l117 956h352zM401 225h11q72 0 102 15q43 21 43 77q0 29 -18 50q-26 28 -105 28h-12z" />
    <glyph glyph-name="afii10095" unicode="&#x44d;" horiz-adv-x="796" 
d="M41 45l35 272q60 -67 153 -67q69 0 109 31q45 36 55 92h-219l27 213h211q-11 62 -54 92q-39 29 -104 29q-74 0 -139 -48l35 277q94 41 194 41q184 0 291 -111q113 -116 113 -331q0 -104 -36.5 -223.5t-121.5 -207.5q-66 -69 -141 -96.5t-170 -27.5q-141 0 -238 65z" />
    <glyph glyph-name="afii10096" unicode="&#x44e;" horiz-adv-x="1445" 
d="M444 627h113q36 153 156 250q122 100 295 100t276 -98q113 -111 113 -314q0 -140 -45.5 -263t-126.5 -202q-125 -120 -336 -120q-171 0 -266 100q-44 46 -72 117t-29 151h-114l-41 -348h-344l116 956h344zM983 709q-26 0 -49 -23q-36 -36 -59 -123t-23 -164
q0 -75 22 -116q19 -35 54 -35q31 0 51 24q38 39 59 125t21 162q0 70 -23 115q-18 35 -53 35z" />
    <glyph glyph-name="afii10097" unicode="&#x44f;" horiz-adv-x="978" 
d="M0 0l213 332q-61 21 -98 71q-45 62 -45 156q0 174 102 281q69 72 163 94t249 22h374l-116 -956h-353l25 209q8 65 21 149q-14 -36 -31 -70t-21 -44l-112 -244h-371zM553 512l22 195h-18q-73 0 -102 -25q-31 -27 -31 -76q0 -45 31 -69q32 -25 86 -25h12z" />
    <glyph glyph-name="afii10071" unicode="&#x451;" horiz-adv-x="970" 
d="M545 322h340q-54 -164 -173 -253t-288 -89q-182 0 -279.5 104t-97.5 287q0 89 21.5 176t64.5 164t103 136t142.5 93.5t176.5 34.5q178 0 273.5 -114.5t95.5 -295.5q0 -49 -17 -162h-512q-2 -12 -2 -38q0 -109 66 -109q29 0 53 19t33 47zM424 594h162q0 4 1 12t1 12
q0 39 -17 68t-53 29q-41 0 -65 -37t-29 -84zM926 1249q0 -64 -50.5 -114t-115.5 -50q-55 0 -92 38t-37 94q0 66 49 114.5t115 48.5q57 0 94 -37t37 -94zM537 1233q0 -13 -11 -41q-19 -46 -61.5 -76.5t-91.5 -30.5q-57 0 -94 37.5t-37 94.5q0 66 50 114.5t116 48.5
q63 0 96 -41t33 -106z" />
    <glyph glyph-name="afii10099" unicode="&#x452;" horiz-adv-x="1007" 
d="M41 0l131 1022h-111l29 215h109l30 256h355l-33 -256h242l-29 -215h-242l-16 -152q-12 -105 -29 -184q29 63 82 119q86 86 193 86q82 0 135 -53q67 -70 67 -213q0 -78 -18 -201l-55 -410q-15 -123 -45 -213.5t-97 -152.5q-96 -88 -260 -88q-66 0 -151 20l37 297
q26 -31 63 -31t64 27q24 30 32 100l56 414q8 55 8 82q0 35 -15 53q-12 15 -30 15q-28 0 -51 -23q-30 -32 -41 -102l-56 -412h-354z" />
    <glyph glyph-name="afii10100" unicode="&#x453;" horiz-adv-x="745" 
d="M719 670h-262l-82 -670h-352l116 956h615zM756 1389l-215 -304h-201l133 304h283z" />
    <glyph glyph-name="afii10101" unicode="&#x454;" horiz-adv-x="798" 
d="M702 287l-34 -273q-92 -34 -207 -34q-185 0 -287 98q-123 120 -123 342q0 120 41.5 231t118.5 189q133 137 350 137q124 0 217 -49l-33 -271q-72 54 -151 54q-64 0 -109 -31q-46 -30 -65 -90h215l-27 -217h-215q9 -57 47 -90q43 -37 119 -37q80 0 143 41z" />
    <glyph glyph-name="afii10102" unicode="&#x455;" horiz-adv-x="796" 
d="M799 899l-152 -260q-71 84 -133 84q-24 0 -42.5 -14t-18.5 -37q0 -25 21.5 -44t53.5 -31t70 -31.5t70 -43t53.5 -68t21.5 -104.5q0 -108 -60.5 -194.5t-155 -131t-201.5 -44.5q-93 0 -163.5 23t-162.5 77l160 264q32 -41 75.5 -70.5t86.5 -29.5q28 0 50.5 14t22.5 41
q0 39 -60 62q-3 1 -22 8q-48 19 -82.5 38.5t-66 48t-48 68t-16.5 88.5q0 81 37.5 151.5t99 116t137.5 71.5t154 26q134 0 271 -78z" />
    <glyph glyph-name="afii10103" unicode="&#x456;" horiz-adv-x="509" 
d="M559 1278q0 -91 -70 -161t-161 -70q-76 0 -128.5 52.5t-52.5 129.5q0 92 70 161.5t162 69.5q78 0 129 -52t51 -130zM489 956l-116 -956h-350l118 956h348z" />
    <glyph glyph-name="afii10104" unicode="&#x457;" horiz-adv-x="509" 
d="M489 956l-116 -956h-350l118 956h348zM502 1419q30 0 53 -26q35 -38 35 -107q0 -98 -55 -156q-31 -36 -72 -36q-31 0 -55 24q-35 39 -35 113q0 97 61 158q30 30 68 30zM240 1419q32 0 55 -26q33 -36 33 -107q0 -43 -15 -86.5t-39 -69.5q-31 -36 -71 -36q-34 0 -58 24
q-36 36 -36 113q0 43 16 87.5t45 70.5q34 30 70 30z" />
    <glyph glyph-name="afii10105" unicode="&#x458;" horiz-adv-x="516" 
d="M561 1278v-21q0 -22 -16 -59q-25 -65 -85 -108t-128 -43q-78 0 -129 52t-51 130q0 92 68.5 161.5t160.5 69.5q79 0 129.5 -51.5t50.5 -130.5zM496 956l-174 -1396h-349l170 1396h353z" />
    <glyph glyph-name="afii10106" unicode="&#x459;" horiz-adv-x="1472" 
d="M967 616h108q180 0 268 -73q89 -74 89 -205q0 -70 -24 -135.5t-69 -108.5q-98 -94 -284 -94h-508l82 670h-123l-27 -213q-36 -298 -147 -402q-85 -78 -236 -78q-69 0 -137 21l35 285q21 -15 49 -15q41 0 66 21q46 35 63 184l59 483h777zM920 225h10q72 0 102 15
q43 21 43 77q0 29 -18 50q-26 28 -105 28h-12z" />
    <glyph glyph-name="afii10107" unicode="&#x45a;" horiz-adv-x="1441" 
d="M936 616h108q181 0 269 -73t88 -205q0 -70 -24 -135.5t-68 -108.5q-98 -94 -285 -94h-516l49 395h-133l-49 -395h-352l116 956h353l-39 -340h131l41 340h352zM889 225h10q72 0 102 15q43 21 43 77q0 29 -18 50q-26 28 -104 28h-13z" />
    <glyph glyph-name="afii10108" unicode="&#x45b;" horiz-adv-x="1001" 
d="M41 0l125 1022h-111l29 215h109l30 256h355l-31 -256h241l-28 -215h-242l-16 -150q-12 -94 -33 -184q109 203 274 203q97 0 151 -69t54 -169q0 -45 -6 -88l-72 -565h-350l55 424q5 40 5 49q0 64 -48 64q-73 0 -90 -142l-51 -395h-350z" />
    <glyph glyph-name="afii10109" unicode="&#x45c;" horiz-adv-x="997" 
d="M934 0h-389l-49 164q-3 11 -14.5 46t-24.5 82t-31 124l-51 -416h-352l116 956h353l-56 -452q64 158 144 301l82 151h372l-284 -479zM895 1389l-215 -304h-201l133 304h283z" />
    <glyph glyph-name="afii10110" unicode="&#x45e;" horiz-adv-x="937" 
d="M997 956l-616 -1396h-361l226 479l-168 917h352q5 -40 14.5 -117t15 -125t10.5 -115t5 -124q0 -10 -1 -30.5t-1 -30.5q8 28 22.5 83t23.5 88.5t23.5 80t28.5 84.5l78 206h348zM680 1386l227 -53q-19 -68 -59 -122.5t-88 -86.5q-79 -51 -205 -51q-134 0 -211 55
q-46 32 -79.5 86t-43.5 119l242 53q-4 -55 24 -86q23 -26 70 -26q52 0 78 26q32 28 45 86z" />
    <glyph glyph-name="afii10193" unicode="&#x45f;" horiz-adv-x="995" 
d="M623 956h352l-117 -956h-272l-29 -236h-291l29 236h-272l116 956h353l-82 -669h131z" />
    <glyph glyph-name="afii10146" unicode="&#x462;" horiz-adv-x="1101" 
d="M537 0h-416l125 1001h-174l34 267h173l20 174h363l-23 -174h213l-33 -267h-213l-16 -149h18q119 0 205.5 -22.5t151.5 -86.5q106 -106 106 -264q0 -103 -38 -198t-105 -158q-45 -41 -98 -68t-109.5 -38t-95 -14t-88.5 -3zM553 569l-33 -272q8 -2 25 -2q77 0 125 51
q37 37 37 105q0 62 -41 94q-32 24 -113 24z" />
    <glyph glyph-name="afii10194" unicode="&#x463;" horiz-adv-x="1019" 
d="M526 702l-10 -94h107q180 0 268 -73t88 -205q0 -146 -90 -236q-98 -94 -285 -94h-516l86 702h-123l31 254h123l51 410h352l-51 -410h199l-31 -254h-199zM469 225h10q73 0 103 15q43 21 43 77q0 28 -19 50q-26 28 -104 28h-13z" />
    <glyph glyph-name="afii10147" unicode="&#x472;" horiz-adv-x="1142" 
d="M690 1391q176 0 287 -117q141 -148 141 -426q0 -197 -63 -399t-193 -330q-147 -144 -342 -144q-177 0 -299 127q-46 47 -76.5 103t-44 116.5t-18 109t-4.5 108.5q0 237 71 415t181 285q154 152 360 152zM492 834h249q5 52 -5.5 114t-39.5 88q-19 19 -51 19q-36 0 -72 -39
q-28 -31 -50 -84t-31 -98zM713 565h-258q0 -184 47 -231q21 -21 51 -21q32 0 65 29q33 32 60 95.5t35 127.5z" />
    <glyph glyph-name="afii10195" unicode="&#x473;" horiz-adv-x="983" 
d="M553 977q168 0 268 -96q113 -108 113 -312q0 -136 -44.5 -259.5t-127.5 -203.5q-130 -126 -336 -126q-163 0 -260 90q-117 108 -117 319q0 94 20.5 177t53.5 140t55 86t45 52q137 133 330 133zM412 596h188q-4 62 -20 92q-19 37 -62 37q-28 0 -51 -20q-18 -14 -33.5 -46
t-21.5 -63zM578 379h-193q0 -74 23 -113q20 -35 57 -35q31 0 57 23q19 19 35.5 55t20.5 70z" />
    <glyph glyph-name="afii10148" unicode="&#x474;" horiz-adv-x="1044" 
d="M1155 1366l-534 -1366h-371l-139 1366h381q2 -46 7.5 -155t8.5 -169.5t5.5 -150t2.5 -164.5q0 -84 -8 -252q17 87 38.5 173.5t52.5 193t48 164t59.5 191t53.5 169.5h395z" />
    <glyph glyph-name="afii10196" unicode="&#x475;" horiz-adv-x="899" 
d="M958 956l-391 -956h-364l-144 956h355q2 -29 7.5 -99.5t8.5 -109.5t5.5 -97t2.5 -107q0 -65 -4 -191q17 72 41.5 157.5t42 141.5t50.5 159.5t46 145.5h344z" />
    <glyph glyph-name="afii10050" unicode="&#x490;" horiz-adv-x="923" 
d="M205 1366h442l35 291h319l-73 -613h-400l-129 -1044h-362z" />
    <glyph glyph-name="afii10098" unicode="&#x491;" horiz-adv-x="825" 
d="M139 956h410l37 287h291l-72 -573h-348l-82 -670h-352z" />
    <glyph glyph-name="uni0492" unicode="&#x492;" horiz-adv-x="829" 
d="M854 1044h-283l-24 -198h262l-39 -309h-262l-66 -537h-362l65 537h-135l39 309h135l64 520h645z" />
    <glyph glyph-name="uni0493" unicode="&#x493;" horiz-adv-x="794" 
d="M803 956l-35 -286h-262l-14 -127h204l-37 -287h-204l-31 -256h-352l30 256h-102l37 287h102l49 413h615z" />
    <glyph glyph-name="uni0494" unicode="&#x494;" horiz-adv-x="1071" 
d="M872 1366l-38 -322h-306l-18 -139q-13 -87 -27 -131q115 68 224 68q144 0 231 -109q82 -102 82 -272q0 -124 -40 -234t-106 -172q-92 -88 -251 -88q-78 0 -152 29l64 291q22 -19 49 -19t49 29q26 36 26 111q0 60 -24 88q-23 30 -62 30q-40 0 -114 -34l-60 -492h-362
l168 1366h667z" />
    <glyph glyph-name="uni0495" unicode="&#x495;" horiz-adv-x="950" 
d="M735 670h-278l-19 -148h31q93 0 170.5 -21t140.5 -85q109 -111 109 -312q0 -248 -152 -395q-144 -140 -409 -149l32 278q65 3 109 41q78 67 78 215q0 108 -45 150q-35 32 -92 32l-35 -276h-352l116 956h631z" />
    <glyph glyph-name="uni0496" unicode="&#x496;" horiz-adv-x="1591" 
d="M131 1366h369l141 -614l64 614h348l-86 -614l290 614h365l-360 -664l100 -368h147l-75 -598h-320l35 264h-70l-125 657l-69 -657h-348l92 657l-287 -657h-373l363 715z" />
    <glyph glyph-name="uni0497" unicode="&#x497;" horiz-adv-x="1480" 
d="M100 956h365l61 -213q39 -143 54 -241l55 454h344l-55 -454q37 91 114 241l111 213h369l-281 -467l61 -202h129l-63 -523h-291l29 236h-74l-55 197q-3 12 -11.5 39t-11 37.5t-8.5 33.5t-9 39.5t-7.5 41.5t-7.5 54l-56 -442h-344l55 442q-61 -148 -112 -245l-103 -197
h-393l297 489z" />
    <glyph glyph-name="uni0498" unicode="&#x498;" horiz-adv-x="925" 
d="M143 928l50 389q129 74 284 74q218 0 334 -119q94 -97 94 -252q0 -150 -82 -234q-77 -77 -196 -92q107 0 176 -69t69 -201q0 -167 -96 -289q-92 -114 -227 -135l-33 -266h-328l33 262q-97 20 -180 67l51 412q44 -73 101 -117q61 -47 141 -47q70 0 108 35q35 31 35 86
q0 56 -49 88q-39 25 -119 25h-53l35 303h49q90 0 133 22q53 29 53 86q0 43 -37 72q-39 31 -112 31q-65 0 -125 -37q-46 -27 -109 -94z" />
    <glyph glyph-name="uni0499" unicode="&#x499;" horiz-adv-x="890" 
d="M221 621l-112 260q80 43 151 65q97 31 207 31q203 0 301 -98q70 -70 70 -174q0 -98 -60 -154q-27 -25 -68 -42t-83 -20q83 -6 137 -57q53 -48 53 -135q0 -131 -88 -215q-77 -73 -188 -84l-29 -234h-291l29 230q-104 25 -230 115l168 247q23 -44 76 -77q48 -29 101 -29
q33 0 65 16q25 17 25 47q0 39 -41 54q-31 10 -101 10h-41l27 223h61q53 0 84 8q45 13 45 51q0 25 -26 41q-24 15 -68 15q-49 0 -94 -25q-12 -7 -24 -16t-21.5 -17.5t-16 -15.5t-12 -13t-6.5 -7z" />
    <glyph glyph-name="uni049A" unicode="&#x49a;" horiz-adv-x="1091" 
d="M1155 1366l-371 -659l127 -373h158l-76 -598h-319l35 264h-76l-162 653l-72 -653h-362l168 1366h362l-82 -610l287 610h383z" />
    <glyph glyph-name="uni049B" unicode="&#x49b;" horiz-adv-x="1007" 
d="M139 956h353l-56 -452q64 158 144 301l82 151h382l-288 -469l71 -200h134l-64 -523h-291l29 236h-86l-53 164q-33 96 -70 252l-51 -416h-352z" />
    <glyph glyph-name="uni049C" unicode="&#x49c;" horiz-adv-x="1357" 
d="M473 600l-74 -600h-362l168 1366h362l-69 -561h88l39 307h178l-43 -344l280 598h381l-358 -659l194 -707h-389l-123 649l-38 -323h-179l33 274h-88z" />
    <glyph glyph-name="uni049D" unicode="&#x49d;" horiz-adv-x="1189" 
d="M420 371l-45 -371h-352l116 956h353l-46 -381h68l23 195h147l-31 -252q49 143 127 287l82 151h365l-281 -473l176 -483h-377l-49 164q-38 121 -57 237l-29 -241h-147l24 211h-67z" />
    <glyph glyph-name="uni04A0" unicode="&#x4a0;" horiz-adv-x="1275" 
d="M1339 1366l-370 -659l239 -707h-391l-162 653l-71 -653h-363l127 1044h-266l39 322h631l-82 -610l286 610h383z" />
    <glyph glyph-name="uni04A1" unicode="&#x4a1;" horiz-adv-x="1169" 
d="M1114 0h-407l-50 164q-2 7 -14 45t-24.5 84t-30.5 123l-51 -416h-353l82 670h-225l35 286h577l-55 -452q67 164 143 301l82 151h383l-288 -473z" />
    <glyph glyph-name="uni04A2" unicode="&#x4a2;" horiz-adv-x="1146" 
d="M1104 1366l-129 -1032h143l-78 -598h-327l37 264h-177l68 549h-174l-68 -549h-362l168 1366h362l-59 -483h174l59 483h363z" />
    <glyph glyph-name="uni04A3" unicode="&#x4a3;" horiz-adv-x="1038" 
d="M492 956l-39 -325h131l39 325h352l-82 -669h125l-64 -523h-290l28 236h-186l43 344h-131l-43 -344h-352l116 956h353z" />
    <glyph glyph-name="uni04A4" unicode="&#x4a4;" horiz-adv-x="1288" 
d="M205 1366h362l-59 -483h174l59 483h611l-39 -322h-248l-129 -1044h-363l68 549h-174l-68 -549h-362z" />
    <glyph glyph-name="uni04A5" unicode="&#x4a5;" horiz-adv-x="1179" 
d="M492 956l-39 -325h131l39 325h565l-35 -286h-213l-82 -670h-352l43 344h-131l-43 -344h-352l116 956h353z" />
    <glyph glyph-name="uni04AA" unicode="&#x4aa;" horiz-adv-x="897" 
d="M944 1356l-47 -389q-37 42 -72 62t-86 20q-63 0 -113.5 -31t-82 -79.5t-52.5 -111t-29.5 -121t-8.5 -114.5q0 -52 9.5 -95.5t30.5 -82t60 -60.5t94 -22q97 0 199 88l-70 -395q-66 -26 -78 -29l-59 -281h-328l62 291q-145 56 -220 198.5t-75 327.5q0 125 26.5 246.5
t82.5 233t135 195.5t193.5 134t248.5 50q57 0 93.5 -7t86.5 -28z" />
    <glyph glyph-name="uni04AB" unicode="&#x4ab;" horiz-adv-x="628" 
d="M571 311l-41 -325l-41 -6l-26 -216h-279l33 261q-80 60 -119 137q-47 102 -47 229q0 269 162 438q141 148 352 148q14 0 48 -2t38 -2l-37 -311q-34 0 -70.5 -13t-60.5 -35q-26 -24 -42.5 -67t-16.5 -80q0 -80 41 -121q35 -35 96 -35h10z" />
    <glyph glyph-name="uni04AE" unicode="&#x4ae;" horiz-adv-x="1009" 
d="M1120 1366l-409 -788l-72 -578h-363l72 578l-237 788h378q62 -295 76 -422q39 105 178 422h377z" />
    <glyph glyph-name="uni04AF" unicode="&#x4af;" horiz-adv-x="937" 
d="M51 956h361l24 -235q21 -189 21 -324q67 241 98 328l80 231h375l-418 -917l-57 -479h-351l56 479z" />
    <glyph glyph-name="uni04B0" unicode="&#x4b0;" horiz-adv-x="1009" 
d="M1120 1366l-403 -752l-6 -53h241l-37 -293h-241l-35 -268h-363l35 268h-241l36 293h242l6 53l-243 752h378q62 -295 76 -422q39 105 178 422h377z" />
    <glyph glyph-name="uni04B1" unicode="&#x4b1;" horiz-adv-x="952" 
d="M66 956h360l27 -225q20 -185 22 -317q33 143 96 321l78 221h375l-403 -813l-7 -37h217l-26 -215h-217l-39 -331h-352l39 331h-216l27 215h215l6 37z" />
    <glyph glyph-name="uni04B2" unicode="&#x4b2;" horiz-adv-x="1042" 
d="M1130 1366l-389 -657l125 -375h144l-74 -598h-320l33 264h-67q-12 50 -31.5 146t-22.5 108q-16 72 -20 113q-46 -112 -170 -367h-395l413 709l-227 657h403q10 -52 46 -225q2 -11 5 -31t6 -36.5t7 -31.5q30 97 127 324h407z" />
    <glyph glyph-name="uni04B3" unicode="&#x4b3;" horiz-adv-x="972" 
d="M1006 956l-334 -456l102 -213h133l-63 -523h-291l29 236h-64q-39 100 -59 225q-40 -89 -125 -225h-391l346 492l-213 464h399q41 -202 41 -206q17 40 53 109.5t49 96.5h388z" />
    <glyph glyph-name="uni04B6" unicode="&#x4b6;" horiz-adv-x="1126" 
d="M729 0h-176l68 551q-82 -23 -162 -23q-144 0 -232 68q-104 81 -104 229q0 59 12 152l49 389h361l-45 -365q-6 -43 -6 -61q0 -43 26 -66q25 -22 72 -22q36 0 67 14l62 500h362l-129 -1032h144l-74 -598h-328z" />
    <glyph glyph-name="uni04B7" unicode="&#x4b7;" horiz-adv-x="1013" 
d="M668 0h-183l41 330q-74 -21 -145 -21q-149 0 -229 76q-70 70 -70 186q0 57 10 134l31 251h348l-31 -249q-4 -28 -4 -54q0 -33 19 -47q16 -14 49 -14q31 0 55 16l43 348h352l-84 -669h123l-63 -523h-291z" />
    <glyph glyph-name="uni04B8" unicode="&#x4b8;" horiz-adv-x="1218" 
d="M705 0l67 547q-42 -14 -82 -19l-28 -243h-170l30 243q-84 -3 -172 20.5t-141 74.5q-86 82 -86 211q0 51 12 143l49 389h353l-45 -365q-7 -54 -7 -77q0 -43 25 -60q21 -14 51 -14l35 278h170l-35 -282q39 3 80 18l61 502h363l-168 -1366h-362z" />
    <glyph glyph-name="uni04B9" unicode="&#x4b9;" horiz-adv-x="1112" 
d="M623 0l41 338q-37 -16 -70 -19l-21 -176h-147l18 164h-14q-187 0 -274 78q-74 66 -74 182q0 61 10 138l31 251h330l-29 -239q-6 -54 -6 -64q0 -44 20 -59q18 -14 41 -14l25 211h147l-24 -209q41 3 69 20l43 354h353l-117 -956h-352z" />
    <glyph glyph-name="uni04BA" unicode="&#x4ba;" horiz-adv-x="1054" 
d="M567 1366l-63 -514q82 31 184 31q150 0 234 -82q82 -80 82 -217q0 -25 -15 -156l-53 -428h-361l46 356q10 92 10 103q0 47 -21 71q-21 25 -63 25q-38 0 -82 -23l-66 -532h-362l168 1366h362z" />
    <glyph glyph-name="uni04BB" unicode="&#x4bb;" horiz-adv-x="989" 
d="M557 1493l-65 -535q-12 -94 -33 -184q109 203 274 203q97 0 151 -69t54 -169q0 -45 -6 -88l-80 -651h-350l63 506q4 36 4 53q0 64 -47 64q-73 0 -90 -142l-59 -481h-350l184 1493h350z" />
    <glyph glyph-name="uni04C0" unicode="&#x4c0;" horiz-adv-x="512" 
d="M543 1366l-170 -1366h-350l170 1366h350z" />
    <glyph glyph-name="uni04C1" unicode="&#x4c1;" horiz-adv-x="1591" 
d="M1452 0h-373l-125 657l-69 -657h-348l92 657l-287 -657h-373l363 715l-201 651h369l141 -614l64 614h348l-86 -614l290 614h365l-360 -664zM1028 1790l256 -76q-34 -136 -147 -203q-91 -55 -248 -55q-153 0 -242 53q-114 69 -149 203l260 78q3 -22 14.5 -46.5t26.5 -37.5
q35 -31 96 -31t96 35q29 33 37 80z" />
    <glyph glyph-name="uni04C2" unicode="&#x4c2;" horiz-adv-x="1480" 
d="M1405 0h-383l-53 197q-36 133 -51 245l-56 -442h-344l55 442q-61 -148 -112 -245l-103 -197h-393l297 489l-162 467h365l61 -213q39 -143 54 -241l55 454h344l-55 -454q37 91 114 241l111 213h369l-281 -467zM924 1386l227 -53q-19 -68 -59 -122.5t-88 -86.5
q-79 -51 -205 -51q-134 0 -211 55q-46 32 -79.5 86t-43.5 119l242 53q-4 -55 24 -86q23 -26 70 -26q52 0 78 26q32 28 45 86z" />
    <glyph glyph-name="uni04C3" unicode="&#x4c3;" horiz-adv-x="1142" 
d="M205 1366h362l-82 -586l289 586h389l-329 -569q104 -24 167 -117q64 -95 64 -279q0 -123 -23 -264q-39 -265 -147 -373q-56 -56 -121.5 -74t-152.5 -18q-105 0 -177 29l60 291q28 -21 63 -21t54 19q24 21 40 87.5t21 137.5q14 165 14 191q0 74 -34 106q-29 29 -76 29
q-59 0 -131 -41l-56 -500h-362z" />
    <glyph glyph-name="uni04C4" unicode="&#x4c4;" horiz-adv-x="1007" 
d="M139 956h353l-56 -452q64 158 144 301l82 151h382l-296 -485q88 -31 137 -109q51 -82 51 -217q0 -115 -39 -235.5t-117 -198.5q-140 -143 -432 -151l35 278q66 0 109 41q39 38 58 104t19 132q0 90 -41 129q-32 30 -120 30l-33 -274h-352z" />
    <glyph glyph-name="uni04C7" unicode="&#x4c7;" horiz-adv-x="1089" 
d="M743 1366h363l-178 -1454q-11 -90 -36 -159t-81 -118q-38 -34 -91 -52t-85.5 -20.5t-81.5 -2.5q-87 0 -166 24l35 285q27 -25 61 -25q37 0 58 25q7 8 12 17t8.5 24t5 22.5t3.5 28.5t3 27l70 561h-176l-68 -549h-362l168 1366h362l-59 -483h176z" />
    <glyph glyph-name="uni04C8" unicode="&#x4c8;" horiz-adv-x="995" 
d="M492 956l-39 -325h131l39 325h352l-113 -942q-30 -264 -141 -366q-96 -88 -260 -88q-67 0 -152 20l37 297q26 -31 64 -31q36 0 63 27q24 29 31 102l45 369h-131l-43 -344h-352l116 956h353z" />
    <glyph glyph-name="uni04D0" unicode="&#x4d0;" horiz-adv-x="1073" 
d="M1006 0h-375l-6 174h-244l-51 -174h-377l491 1366h445zM614 625v178q0 46 3.5 131t3.5 104q-3 -13 -20 -84t-28 -108q-14 -48 -50 -179t-58 -202h153q-4 106 -4 160zM813 1790l256 -76q-34 -136 -147 -203q-91 -55 -248 -55q-153 0 -242 53q-114 69 -149 203l260 78
q3 -22 14.5 -46.5t26.5 -37.5q35 -31 96 -31t96 35q29 33 37 80z" />
    <glyph glyph-name="uni04D1" unicode="&#x4d1;" horiz-adv-x="1001" 
d="M981 956l-117 -956h-350q5 27 15.5 81.5t15.5 80.5q-51 -86 -114.5 -134t-151.5 -48q-67 0 -115 34.5t-72 91.5t-34.5 115t-10.5 121q0 137 29 262q16 67 42.5 128.5t67 118.5t99.5 91.5t129 34.5q81 0 125.5 -44t76.5 -128q1 25 4.5 75t4.5 76h356zM578 590q0 94 -58 94
q-34 0 -59.5 -35.5t-38 -88t-18 -97.5t-5.5 -78q0 -113 64 -113q33 0 58 38.5t36 95.5t16 103.5t5 80.5zM727 1386l227 -53q-19 -68 -59 -122.5t-88 -86.5q-79 -51 -205 -51q-134 0 -211 55q-46 32 -79.5 86t-43.5 119l242 53q-4 -54 25 -86q23 -26 69 -26q52 0 78 26
q32 28 45 86z" />
    <glyph glyph-name="uni04D2" unicode="&#x4d2;" horiz-adv-x="1073" 
d="M1006 0h-375l-6 174h-244l-51 -174h-377l491 1366h445zM614 625v178q0 46 3.5 131t3.5 104q-3 -13 -20 -84t-28 -108q-14 -48 -50 -179t-58 -202h153q-4 106 -4 160zM1010 1638q0 -64 -50.5 -113.5t-115.5 -49.5q-55 0 -92 37.5t-37 93.5q0 66 49 114.5t115 48.5
q57 0 94 -37t37 -94zM621 1622q0 -13 -11 -41q-19 -46 -61.5 -76t-91.5 -30q-57 0 -94 37t-37 94q0 66 50 114.5t116 48.5q63 0 96 -41t33 -106z" />
    <glyph glyph-name="uni04D3" unicode="&#x4d3;" horiz-adv-x="1001" 
d="M981 956l-117 -956h-350q5 27 15.5 81.5t15.5 80.5q-51 -86 -114.5 -134t-151.5 -48q-67 0 -115 34.5t-72 91.5t-34.5 115t-10.5 121q0 137 29 262q16 67 42.5 128.5t67 118.5t99.5 91.5t129 34.5q81 0 125.5 -44t76.5 -128q1 25 4.5 75t4.5 76h356zM578 590q0 94 -58 94
q-34 0 -59.5 -35.5t-38 -88t-18 -97.5t-5.5 -78q0 -113 64 -113q33 0 58 38.5t36 95.5t16 103.5t5 80.5zM969 1249q0 -64 -50.5 -114t-115.5 -50q-55 0 -92 38t-37 94q0 66 49 114.5t115 48.5q57 0 94 -37t37 -94zM580 1233q0 -13 -11 -41q-19 -46 -61.5 -76.5t-91.5 -30.5
q-57 0 -94 37.5t-37 94.5q0 66 50 114.5t116 48.5q63 0 96 -41t33 -106z" />
    <glyph glyph-name="uni04D4" unicode="&#x4d4;" horiz-adv-x="1241" 
d="M1290 1366l-39 -322h-362l6 -198h303l-37 -309h-250l9 -209h243l-41 -328h-516l-4 174h-233l-50 -174h-376l479 1366h868zM449 457h151q-4 250 -4 377q0 66 4 202q-33 -148 -151 -579z" />
    <glyph glyph-name="uni04D5" unicode="&#x4d5;" horiz-adv-x="1482" 
d="M180 657l35 277q162 43 287 43q90 0 154 -19.5t122 -74.5q140 94 283 94q180 0 277.5 -115t97.5 -297q0 -46 -17 -159h-516q0 -6 -1 -18.5t-1 -18.5q0 -127 76 -127q56 0 88 71l330 -6q-34 -90 -74.5 -149t-110.5 -105q-114 -73 -276 -73q-81 0 -144 22.5t-122 75.5
q-153 -98 -316 -98q-136 0 -227.5 77.5t-91.5 210.5q0 161 108.5 254.5t272.5 93.5q81 0 176 -20q-2 117 -170 117q-122 0 -240 -56zM928 596h176q0 133 -74 133q-25 0 -43.5 -12t-30 -35t-17 -41t-11.5 -45zM559 319q0 35 -24 53.5t-60 18.5q-41 0 -71.5 -28t-30.5 -68
q0 -36 23 -54t61 -18q44 0 73 26.5t29 69.5z" />
    <glyph glyph-name="uni04D6" unicode="&#x4d6;" horiz-adv-x="829" 
d="M881 1366l-41 -322h-312l-24 -198h280l-39 -309h-278l-27 -209h312l-39 -328h-676l168 1366h676zM700 1790l256 -76q-34 -136 -147 -203q-91 -55 -248 -55q-153 0 -242 53q-114 69 -149 203l260 78q3 -22 14.5 -46.5t26.5 -37.5q35 -31 96 -31q62 0 97 35q28 31 36 80z
" />
    <glyph glyph-name="uni04D7" unicode="&#x4d7;" horiz-adv-x="970" 
d="M545 322h340q-54 -164 -173 -253t-288 -89q-182 0 -279.5 104t-97.5 287q0 89 21.5 176t64.5 164t103 136t142.5 93.5t176.5 34.5q178 0 273.5 -114.5t95.5 -295.5q0 -49 -17 -162h-512q-2 -12 -2 -38q0 -109 66 -109q29 0 53 19t33 47zM424 594h162q0 4 1 12t1 12
q0 39 -17 68t-53 29q-41 0 -65 -37t-29 -84zM686 1386l227 -53q-19 -68 -59 -122.5t-88 -86.5q-79 -51 -205 -51q-134 0 -211 55q-46 32 -79.5 86t-43.5 119l242 53q-4 -54 25 -86q23 -26 69 -26q52 0 78 26q32 28 45 86z" />
    <glyph glyph-name="uni04D8" unicode="&#x4d8;" horiz-adv-x="1134" 
d="M96 788h635q5 178 -37 236q-29 37 -78 37q-48 0 -77 -29q-41 -38 -62 -110l-344 112q77 166 203 258q136 99 309 99q199 0 324 -125q141 -146 141 -426q0 -126 -23.5 -252.5t-83.5 -257.5t-149 -219q-78 -78 -157 -107t-189 -29q-91 0 -159.5 22.5t-127.5 84.5
q-143 148 -143 463q0 86 12 188zM698 518h-264q-12 -141 33 -186q24 -27 70 -27q43 0 77 31q60 55 84 182z" />
    <glyph glyph-name="afii10846" unicode="&#x4d9;" horiz-adv-x="987" 
d="M412 631l-316 78q56 115 160 186q120 82 283 82q179 0 282 -98q117 -110 117 -318q0 -136 -44.5 -259.5t-127.5 -203.5q-70 -68 -151.5 -93t-178.5 -25q-84 0 -151.5 22t-122.5 82q-56 59 -84.5 148t-28.5 188q0 45 14 131h521q11 88 -23 125q-20 22 -57 22
q-31 0 -55 -16q-27 -19 -37 -51zM557 360h-166q-4 -71 23 -102q18 -18 49 -18q29 0 49 20q34 34 45 100z" />
    <glyph glyph-name="uni04DA" unicode="&#x4da;" horiz-adv-x="1134" 
d="M96 788h635q5 178 -37 236q-29 37 -78 37q-48 0 -77 -29q-41 -38 -62 -110l-344 112q77 166 203 258q136 99 309 99q199 0 324 -125q141 -146 141 -426q0 -126 -23.5 -252.5t-83.5 -257.5t-149 -219q-78 -78 -157 -107t-189 -29q-91 0 -159.5 22.5t-127.5 84.5
q-143 148 -143 463q0 86 12 188zM698 518h-264q-12 -141 33 -186q24 -27 70 -27q43 0 77 31q60 55 84 182zM1004 1638q0 -64 -50.5 -113.5t-115.5 -49.5q-55 0 -92 37.5t-37 93.5q0 66 48.5 114.5t114.5 48.5q57 0 94.5 -37t37.5 -94zM614 1622q0 -16 -10 -41
q-19 -46 -61.5 -76t-91.5 -30q-57 0 -94.5 37t-37.5 94q0 66 50 114.5t116 48.5q63 0 96 -41t33 -106z" />
    <glyph glyph-name="uni04DB" unicode="&#x4db;" horiz-adv-x="987" 
d="M412 631l-316 78q56 115 160 186q120 82 283 82q179 0 282 -98q117 -110 117 -318q0 -136 -44.5 -259.5t-127.5 -203.5q-70 -68 -151.5 -93t-178.5 -25q-84 0 -151.5 22t-122.5 82q-56 59 -84.5 148t-28.5 188q0 45 14 131h521q11 88 -23 125q-20 22 -57 22
q-31 0 -55 -16q-27 -19 -37 -51zM557 360h-166q-4 -71 23 -102q18 -18 49 -18q29 0 49 20q34 34 45 100zM897 1249q0 -64 -50.5 -114t-115.5 -50q-55 0 -92 38t-37 94q0 66 49 114.5t115 48.5q57 0 94 -37t37 -94zM508 1233q0 -16 -10 -41q-19 -46 -62 -76.5t-92 -30.5
q-57 0 -94 37.5t-37 94.5q0 66 50 114.5t116 48.5q63 0 96 -41t33 -106z" />
    <glyph glyph-name="uni04DC" unicode="&#x4dc;" horiz-adv-x="1591" 
d="M1452 0h-373l-125 657l-69 -657h-348l92 657l-287 -657h-373l363 715l-201 651h369l141 -614l64 614h348l-86 -614l290 614h365l-360 -664zM1231 1638q0 -64 -50.5 -113.5t-115.5 -49.5q-55 0 -92 37.5t-37 93.5q0 66 49 114.5t115 48.5q57 0 94 -37t37 -94zM842 1622
q0 -13 -11 -41q-19 -46 -61.5 -76t-91.5 -30q-57 0 -94 37t-37 94q0 66 50 114.5t116 48.5q63 0 96 -41t33 -106z" />
    <glyph glyph-name="uni04DD" unicode="&#x4dd;" horiz-adv-x="1480" 
d="M1405 0h-383l-53 197q-36 133 -51 245l-56 -442h-344l55 442q-61 -148 -112 -245l-103 -197h-393l297 489l-162 467h365l61 -213q39 -143 54 -241l55 454h344l-55 -454q37 91 114 241l111 213h369l-281 -467zM1163 1249q0 -64 -50.5 -114t-115.5 -50q-55 0 -92 38t-37 94
q0 66 49 114.5t115 48.5q57 0 94 -37t37 -94zM774 1233q0 -16 -10 -41q-19 -46 -62 -76.5t-92 -30.5q-57 0 -94 37.5t-37 94.5q0 66 50 114.5t116 48.5q63 0 96 -41t33 -106z" />
    <glyph glyph-name="uni04DE" unicode="&#x4de;" horiz-adv-x="925" 
d="M143 928l50 389q129 74 284 74q218 0 334 -119q94 -97 94 -252q0 -150 -82 -234q-77 -77 -196 -92q107 0 176 -69t69 -189q0 -91 -37.5 -181.5t-103.5 -152.5q-136 -127 -369 -127q-154 0 -321 88l51 412q44 -73 101 -117q61 -47 141 -47q70 0 108 35q35 31 35 86
q0 56 -49 88q-39 25 -119 25h-53l35 303h49q90 0 133 22q53 29 53 86q0 43 -37 72q-39 31 -112 31q-65 0 -125 -37q-46 -27 -109 -94zM866 1638q0 -64 -50.5 -113.5t-115.5 -49.5q-55 0 -92 37.5t-37 93.5q0 66 49 114.5t115 48.5q57 0 94 -37t37 -94zM477 1622
q0 -16 -10 -41q-19 -46 -62 -76t-92 -30q-57 0 -94 37t-37 94q0 66 50 114.5t116 48.5q63 0 96 -41t33 -106z" />
    <glyph glyph-name="uni04DF" unicode="&#x4df;" horiz-adv-x="890" 
d="M221 621l-112 260q80 43 151 65q97 31 207 31q203 0 301 -98q70 -70 70 -174q0 -98 -60 -154q-27 -25 -68 -42t-83 -20q38 -3 76.5 -18.5t62.5 -38.5q51 -47 51 -133q0 -113 -84 -203q-65 -67 -143.5 -91.5t-177.5 -24.5q-131 0 -226 36q-80 29 -166 93l168 247
q23 -44 76 -77q48 -29 101 -29q33 0 65 16q25 17 25 47q0 39 -41 54q-31 10 -101 10h-41l27 223h61q53 0 84 8q45 13 45 51q0 25 -26 41q-24 15 -68 15q-49 0 -94 -25q-12 -7 -24 -16t-21.5 -17.5t-16 -15.5t-12 -13t-6.5 -7zM846 1249q0 -64 -50.5 -114t-115.5 -50
q-55 0 -92 38t-37 94q0 66 49 114.5t115 48.5q57 0 94 -37t37 -94zM457 1233q0 -13 -11 -41q-19 -46 -61.5 -76.5t-91.5 -30.5q-57 0 -94 37.5t-37 94.5q0 66 50 114.5t116 48.5q63 0 96 -41t33 -106z" />
    <glyph glyph-name="uni04E2" unicode="&#x4e2;" horiz-adv-x="1140" 
d="M37 0l168 1366h348l-47 -379q-31 -252 -96 -461q88 209 188 400l236 440h323l-168 -1366h-348l45 365q24 202 76 438q-55 -160 -178 -389l-224 -414h-323zM1063 1714l-25 -192h-686l25 192h686z" />
    <glyph glyph-name="uni04E3" unicode="&#x4e3;" horiz-adv-x="1032" 
d="M139 956h340l-33 -268q-12 -112 -45 -252q9 22 43 88.5t52 96.5l192 335h324l-117 -956h-340l31 256q7 57 45 264q-54 -124 -94 -192l-191 -328h-323zM950 1325l-24 -192h-686l24 192h686z" />
    <glyph glyph-name="uni04E4" unicode="&#x4e4;" horiz-adv-x="1140" 
d="M37 0l168 1366h348l-47 -379q-31 -252 -96 -461q88 209 188 400l236 440h323l-168 -1366h-348l45 365q24 202 76 438q-55 -160 -178 -389l-224 -414h-323zM1051 1638q0 -64 -50.5 -113.5t-115.5 -49.5q-55 0 -92 37.5t-37 93.5q0 66 49 114.5t115 48.5q57 0 94 -37
t37 -94zM662 1622q0 -13 -11 -41q-19 -46 -61.5 -76t-91.5 -30q-57 0 -94 37t-37 94q0 66 49.5 114.5t115.5 48.5q63 0 96.5 -41t33.5 -106z" />
    <glyph glyph-name="uni04E5" unicode="&#x4e5;" horiz-adv-x="1032" 
d="M139 956h340l-33 -268q-12 -112 -45 -252q9 22 43 88.5t52 96.5l192 335h324l-117 -956h-340l31 256q7 57 45 264q-54 -124 -94 -192l-191 -328h-323zM952 1249q0 -64 -50.5 -114t-115.5 -50q-55 0 -92 38t-37 94q0 66 49 114.5t115 48.5q57 0 94 -37t37 -94zM563 1233
q0 -16 -10 -41q-19 -46 -62 -76.5t-92 -30.5q-57 0 -94 37.5t-37 94.5q0 66 50 114.5t116 48.5q63 0 96 -41t33 -106z" />
    <glyph glyph-name="uni04E6" unicode="&#x4e6;" horiz-adv-x="1142" 
d="M690 1391q176 0 287 -117q141 -148 141 -426q0 -197 -63 -399t-193 -330q-147 -144 -342 -144q-177 0 -299 127q-46 47 -76.5 103t-44 116.5t-18 109t-4.5 108.5q0 237 71 415t181 285q154 152 360 152zM645 1047q-36 0 -72 -39q-50 -54 -84 -187q-34 -131 -34 -284
q0 -148 45 -193q22 -22 53 -22q40 0 68 32q33 37 56.5 97.5t33.5 105.5q30 120 30 274q0 158 -45 197q-22 19 -51 19zM1061 1638q0 -64 -50.5 -113.5t-115.5 -49.5q-55 0 -92 37.5t-37 93.5q0 66 49 114.5t115 48.5q57 0 94 -37t37 -94zM672 1622q0 -16 -10 -41
q-19 -46 -62 -76t-92 -30q-57 0 -94 37t-37 94q0 66 50 114.5t116 48.5q63 0 96 -41t33 -106z" />
    <glyph glyph-name="uni04E7" unicode="&#x4e7;" horiz-adv-x="983" 
d="M553 977q168 0 268 -96q113 -108 113 -312q0 -136 -44.5 -259.5t-127.5 -203.5q-130 -126 -336 -126q-163 0 -260 90q-117 108 -117 319q0 94 20.5 177t53.5 140t55 86t45 52q137 133 330 133zM520 709q-26 0 -49 -23q-36 -36 -59 -123t-23 -164q0 -73 23 -116
q19 -35 53 -35q31 0 51 24q38 39 59 125t21 162q0 70 -23 115q-17 35 -53 35zM928 1249q0 -64 -50.5 -114t-115.5 -50q-55 0 -92 38t-37 94q0 66 49 114.5t115 48.5q57 0 94 -37t37 -94zM539 1233q0 -13 -11 -41q-19 -46 -61.5 -76.5t-91.5 -30.5q-57 0 -94 37.5t-37 94.5
q0 66 50 114.5t116 48.5q63 0 96 -41t33 -106z" />
    <glyph glyph-name="uni04E8" unicode="&#x4e8;" horiz-adv-x="1142" 
d="M690 1391q176 0 287 -117q141 -148 141 -426q0 -197 -63 -399t-193 -330q-147 -144 -342 -144q-177 0 -299 127q-46 47 -76.5 103t-44 116.5t-18 109t-4.5 108.5q0 237 71 415t181 285q154 152 360 152zM492 834h249q5 52 -5.5 114t-39.5 88q-19 19 -51 19q-36 0 -72 -39
q-28 -31 -50 -84t-31 -98zM713 565h-258q0 -184 47 -231q21 -21 51 -21q32 0 65 29q33 32 60 95.5t35 127.5z" />
    <glyph glyph-name="uni04E9" unicode="&#x4e9;" horiz-adv-x="983" 
d="M553 977q168 0 268 -96q113 -108 113 -312q0 -136 -44.5 -259.5t-127.5 -203.5q-130 -126 -336 -126q-163 0 -260 90q-117 108 -117 319q0 94 20.5 177t53.5 140t55 86t45 52q137 133 330 133zM412 596h188q-4 62 -20 92q-19 37 -62 37q-28 0 -51 -20q-18 -14 -33.5 -46
t-21.5 -63zM578 379h-193q0 -74 23 -113q20 -35 57 -35q31 0 57 23q19 19 35.5 55t20.5 70z" />
    <glyph glyph-name="uni04EA" unicode="&#x4ea;" horiz-adv-x="1142" 
d="M690 1391q176 0 287 -117q141 -148 141 -426q0 -197 -63 -399t-193 -330q-147 -144 -342 -144q-177 0 -299 127q-46 47 -76.5 103t-44 116.5t-18 109t-4.5 108.5q0 237 71 415t181 285q154 152 360 152zM492 834h249q5 52 -5.5 114t-39.5 88q-19 19 -51 19q-36 0 -72 -39
q-28 -31 -50 -84t-31 -98zM713 565h-258q0 -184 47 -231q21 -21 51 -21q32 0 65 29q33 32 60 95.5t35 127.5zM1061 1638q0 -64 -50.5 -113.5t-115.5 -49.5q-55 0 -92 37.5t-37 93.5q0 66 49 114.5t115 48.5q57 0 94 -37t37 -94zM672 1622q0 -16 -10 -41q-19 -46 -62 -76
t-92 -30q-57 0 -94 37t-37 94q0 66 50 114.5t116 48.5q63 0 96 -41t33 -106z" />
    <glyph glyph-name="uni04EB" unicode="&#x4eb;" horiz-adv-x="983" 
d="M553 977q168 0 268 -96q113 -108 113 -312q0 -136 -44.5 -259.5t-127.5 -203.5q-130 -126 -336 -126q-163 0 -260 90q-117 108 -117 319q0 94 20.5 177t53.5 140t55 86t45 52q137 133 330 133zM412 596h188q-4 62 -20 92q-19 37 -62 37q-28 0 -51 -20q-18 -14 -33.5 -46
t-21.5 -63zM578 379h-193q0 -74 23 -113q20 -35 57 -35q31 0 57 23q19 19 35.5 55t20.5 70zM928 1249q0 -64 -50.5 -114t-115.5 -50q-55 0 -92 38t-37 94q0 66 49 114.5t115 48.5q57 0 94 -37t37 -94zM539 1233q0 -13 -11 -41q-19 -46 -61.5 -76.5t-91.5 -30.5
q-57 0 -94 37.5t-37 94.5q0 66 50 114.5t116 48.5q63 0 96 -41t33 -106z" />
    <glyph glyph-name="uni04EE" unicode="&#x4ee;" 
d="M111 1366h376l48 -223q31 -137 34 -289q46 163 101 299l84 213h381l-652 -1366h-362l221 471zM991 1714l-24 -192h-686l24 192h686z" />
    <glyph glyph-name="uni04EF" unicode="&#x4ef;" horiz-adv-x="937" 
d="M997 956l-616 -1396h-361l226 479l-168 917h352q5 -40 14.5 -117t15 -125t10.5 -115t5 -124q0 -10 -1 -30.5t-1 -30.5q8 28 22.5 83t23.5 88.5t23.5 80t28.5 84.5l78 206h348zM889 1325l-25 -192h-686l25 192h686z" />
    <glyph glyph-name="uni04F0" unicode="&#x4f0;" 
d="M111 1366h376l48 -223q31 -137 34 -289q46 163 101 299l84 213h381l-652 -1366h-362l221 471zM989 1638q0 -64 -50.5 -113.5t-115.5 -49.5q-55 0 -92 37.5t-37 93.5q0 66 49 114.5t115 48.5q57 0 94 -37t37 -94zM600 1622q0 -16 -10 -41q-19 -46 -62 -76t-92 -30
q-57 0 -94 37t-37 94q0 66 50 114.5t116 48.5q63 0 96 -41t33 -106z" />
    <glyph glyph-name="uni04F1" unicode="&#x4f1;" horiz-adv-x="937" 
d="M997 956l-616 -1396h-361l226 479l-168 917h352q5 -40 14.5 -117t15 -125t10.5 -115t5 -124q0 -10 -1 -30.5t-1 -30.5q8 28 22.5 83t23.5 88.5t23.5 80t28.5 84.5l78 206h348zM897 1249q0 -64 -50.5 -114t-115.5 -50q-55 0 -92 38t-37 94q0 66 49 114.5t115 48.5
q57 0 94 -37t37 -94zM508 1233q0 -16 -10 -41q-19 -46 -62 -76.5t-92 -30.5q-57 0 -94 37.5t-37 94.5q0 66 50 114.5t116 48.5q63 0 96 -41t33 -106z" />
    <glyph glyph-name="uni04F2" unicode="&#x4f2;" 
d="M111 1366h376l48 -223q31 -137 34 -289q46 163 101 299l84 213h381l-652 -1366h-362l221 471zM1057 1778l-215 -303h-180l133 303h262zM719 1778l-213 -303h-180l133 303h260z" />
    <glyph glyph-name="uni04F3" unicode="&#x4f3;" horiz-adv-x="937" 
d="M997 956l-616 -1396h-361l226 479l-168 917h352q5 -40 14.5 -117t15 -125t10.5 -115t5 -124q0 -10 -1 -30.5t-1 -30.5q8 28 22.5 83t23.5 88.5t23.5 80t28.5 84.5l78 206h348zM965 1389l-215 -304h-181l133 304h263zM627 1389l-213 -304h-181l134 304h260z" />
    <glyph glyph-name="uni04F4" unicode="&#x4f4;" horiz-adv-x="1067" 
d="M553 0l68 551q-82 -23 -162 -23q-144 0 -232 68q-104 81 -104 229q0 59 12 152l49 389h361l-45 -365q-6 -55 -6 -61q0 -43 26 -66q25 -22 72 -22q36 0 67 14l62 500h362l-168 -1366h-362zM1010 1638q0 -64 -50.5 -113.5t-115.5 -49.5q-55 0 -92 37.5t-37 93.5
q0 66 49 114.5t115 48.5q57 0 94 -37t37 -94zM621 1622q0 -13 -11 -41q-19 -46 -61.5 -76t-91.5 -30q-57 0 -94 37t-37 94q0 66 50 114.5t116 48.5q63 0 96 -41t33 -106z" />
    <glyph glyph-name="uni04F5" unicode="&#x4f5;" horiz-adv-x="974" 
d="M485 0l41 330q-74 -21 -145 -21q-149 0 -229 76q-70 70 -70 186q0 57 10 134l31 251h348l-31 -249q-4 -28 -4 -54q0 -33 19 -47q16 -14 49 -14q31 0 55 16l43 348h352l-116 -956h-353zM907 1249q0 -64 -50.5 -114t-115.5 -50q-55 0 -92 38t-37 94q0 66 49 114.5t115 48.5
q57 0 94 -37t37 -94zM518 1233q0 -16 -10 -41q-19 -46 -62 -76.5t-92 -30.5q-57 0 -94 37.5t-37 94.5q0 66 50 114.5t116 48.5q63 0 96 -41t33 -106z" />
    <glyph glyph-name="uni04F8" unicode="&#x4f8;" horiz-adv-x="1538" 
d="M1380 0h-362l162 1366h374zM451 0h-414l168 1366h362l-61 -502h16q242 0 357 -112q106 -102 106 -269q0 -102 -35.5 -194t-97.5 -154q-137 -135 -401 -135zM469 569l-33 -272q42 -6 83.5 8t66.5 41q37 37 37 105q0 62 -41 94q-46 34 -113 24zM1225 1638
q0 -64 -50.5 -113.5t-115.5 -49.5q-55 0 -92 37.5t-37 93.5q0 66 49 114.5t115 48.5q57 0 94 -37t37 -94zM836 1622q0 -13 -11 -41q-19 -46 -61.5 -76t-91.5 -30q-57 0 -94 37t-37 94q0 66 50 114.5t116 48.5q63 0 96 -41t33 -106z" />
    <glyph glyph-name="uni04F9" unicode="&#x4f9;" horiz-adv-x="1421" 
d="M1282 0h-352l117 956h352zM449 616h100q180 0 268 -73t88 -205q0 -70 -24 -135.5t-68 -108.5q-98 -94 -285 -94h-508l117 956h352zM401 225h11q72 0 102 15q43 21 43 77q0 29 -18 50q-26 28 -105 28h-12zM1143 1249q0 -64 -50.5 -114t-115.5 -50q-55 0 -92 38t-37 94
q0 66 49 114.5t115 48.5q57 0 94 -37t37 -94zM754 1233q0 -13 -11 -41q-19 -46 -61.5 -76.5t-91.5 -30.5q-57 0 -94 37.5t-37 94.5q0 66 50 114.5t116 48.5q63 0 96 -41t33 -106z" />
    <glyph glyph-name="uni1E9E" unicode="&#x1e9e;" horiz-adv-x="1067" 
d="M594 856l92 121q4 20 4 41q0 37 -20 57q-21 21 -52 21q-44 0 -67 -31q-27 -30 -33 -94l-119 -971h-362l110 899q31 247 164 367q71 65 152 95t186 30q82 0 149.5 -17t127.5 -67q64 -53 94 -132.5t24 -170.5l-186 -203q26 -6 58.5 -27t56.5 -55q45 -66 45 -199
q0 -114 -47 -222.5t-140 -184.5q-71 -59 -152 -86t-190 -27l37 297q44 3 72 43q41 54 41 160q0 54 -21 84q-21 27 -53 30z" />
    <glyph glyph-name="uni2010" unicode="&#x2010;" horiz-adv-x="649" 
d="M537 381h-445l33 274h444z" />
    <glyph glyph-name="uni2011" unicode="&#x2011;" horiz-adv-x="649" 
d="M537 381h-445l33 274h444z" />
    <glyph glyph-name="figuredash" unicode="&#x2012;" horiz-adv-x="1175" 
d="M1024 571h-889l29 246h889z" />
    <glyph glyph-name="endash" unicode="&#x2013;" horiz-adv-x="1175" 
d="M1024 395h-889l29 246h889z" />
    <glyph glyph-name="emdash" unicode="&#x2014;" horiz-adv-x="1679" 
d="M1528 395h-1393l29 246h1392z" />
    <glyph glyph-name="afii00208" unicode="&#x2015;" horiz-adv-x="1679" 
d="M1528 395h-1393l29 246h1392z" />
    <glyph glyph-name="quoteleft" unicode="&#x2018;" horiz-adv-x="655" 
d="M698 1477l-245 -658h-357l316 658h286z" />
    <glyph glyph-name="quoteright" unicode="&#x2019;" horiz-adv-x="655" 
d="M698 1477l-315 -658h-287l246 658h356z" />
    <glyph glyph-name="quotesinglbase" unicode="&#x201a;" horiz-adv-x="655" 
d="M571 326l-315 -656h-287l246 656h356z" />
    <glyph glyph-name="quotedblleft" unicode="&#x201c;" horiz-adv-x="1146" 
d="M1190 1477l-246 -658h-356l315 658h287zM713 1477l-246 -658h-356l315 658h287z" />
    <glyph glyph-name="quotedblright" unicode="&#x201d;" horiz-adv-x="1146" 
d="M1190 1477l-316 -658h-286l246 658h356zM713 1477l-316 -658h-286l245 658h357z" />
    <glyph glyph-name="quotedblbase" unicode="&#x201e;" horiz-adv-x="1132" 
d="M1049 326l-316 -656h-287l246 656h357zM571 326l-315 -656h-287l246 656h356z" />
    <glyph glyph-name="dagger" unicode="&#x2020;" horiz-adv-x="1075" 
d="M1108 1159l-37 -287h-321l-160 -1300h-324l160 1300h-322l35 287h322l43 334h321l-41 -334h324z" />
    <glyph glyph-name="daggerdbl" unicode="&#x2021;" horiz-adv-x="1075" 
d="M1106 1157l-33 -283h-323l-50 -407h322l-35 -281h-321l-76 -614h-324l76 614h-324l35 281h324l49 407h-322l35 283h322l41 336h323l-41 -336h322z" />
    <glyph glyph-name="bullet" unicode="&#x2022;" horiz-adv-x="2048" 
d="M1335 696q0 -118 -82 -202t-200 -84q-116 0 -198.5 85t-82.5 201q0 118 82.5 202.5t200.5 84.5q116 0 198 -85t82 -202z" />
    <glyph glyph-name="ellipsis" unicode="&#x2026;" horiz-adv-x="2017" 
d="M1853 209q0 -91 -70 -160t-161 -69q-77 0 -128.5 53.5t-51.5 130.5q0 91 68 160t159 69q79 0 131.5 -52.5t52.5 -131.5zM1180 209q0 -91 -69.5 -160t-160.5 -69q-78 0 -130 53t-52 131q0 91 69 160t160 69q78 0 130.5 -53t52.5 -131zM508 209q0 -90 -70.5 -159.5
t-161.5 -69.5q-77 0 -128.5 53.5t-51.5 130.5q0 91 69.5 160t160.5 69q78 0 130 -53t52 -131z" />
    <glyph glyph-name="perthousand" unicode="&#x2030;" horiz-adv-x="2164" 
d="M686 1087q0 -103 -39 -192.5t-115.5 -147t-173.5 -57.5q-126 0 -194 78t-68 215q0 174 90.5 291t249.5 117q125 0 187.5 -82.5t62.5 -221.5zM449 1092q0 21 -1 35t-4.5 30t-12.5 24.5t-23 8.5q-21 0 -37 -22t-23.5 -56.5t-10.5 -65t-3 -57.5q0 -22 1 -36t5 -30.5t13 -25
t24 -8.5q21 0 36 22.5t22.5 57.5t10.5 65.5t3 57.5zM1227 1366l-758 -1366h-188l761 1366h185zM1417 387q0 -103 -39 -192.5t-115 -147t-173 -57.5q-126 0 -194.5 78t-68.5 215q0 113 38 204t116.5 147t185.5 56q125 0 187.5 -82t62.5 -221zM1180 391q0 21 -1 35t-4.5 30
t-12.5 24.5t-23 8.5q-21 0 -37 -22t-23.5 -56t-10.5 -64.5t-3 -57.5q0 -22 1 -36.5t5 -31t13 -25t24 -8.5q21 0 36 22.5t22.5 57.5t10.5 65.5t3 57.5zM2097 387q0 -103 -39 -192.5t-115.5 -147t-173.5 -57.5q-126 0 -194 78t-68 215q0 113 38 204t116.5 147t185.5 56
q125 0 187.5 -82t62.5 -221zM1860 391q0 21 -1 35t-4.5 30t-12.5 24.5t-23 8.5q-21 0 -37 -22t-23.5 -56t-10.5 -64.5t-3 -57.5q0 -22 1 -36.5t5 -31t13 -25t24 -8.5q21 0 36 22.5t22.5 57.5t10.5 65.5t3 57.5z" />
    <glyph glyph-name="guilsinglleft" unicode="&#x2039;" horiz-adv-x="583" 
d="M485 129l-174 -102l-254 462l367 463l145 -135l-274 -344z" />
    <glyph glyph-name="guilsinglright" unicode="&#x203a;" horiz-adv-x="583" 
d="M23 162l272 344l-189 344l175 102l251 -463l-364 -462z" />
    <glyph glyph-name="fraction" unicode="&#x2044;" horiz-adv-x="131" 
d="M565 1366l-758 -1366h-188l762 1366h184z" />
    <glyph glyph-name="Euro" unicode="&#x20ac;" horiz-adv-x="1089" 
d="M1020 420l-72 -395q-69 -28 -115.5 -39t-109.5 -11q-109 0 -196 36t-145 101.5t-92.5 152t-45.5 192.5h-215l84 159h129q2 42 14 119h-193l89 160h145q79 229 245.5 362.5t397.5 133.5q57 0 93.5 -7t84.5 -28l-49 -389q-35 42 -71.5 62t-88.5 20q-144 0 -223 -154h354
l-100 -160h-307l-8 -51q-4 -46 -4 -68h270l-84 -159h-166q46 -125 174 -125q55 0 101.5 22t103.5 66z" />
    <glyph glyph-name="uni20B4" unicode="&#x20b4;" horiz-adv-x="1089" 
d="M291 1034l35 287q176 70 313 70q163 0 250 -84q82 -79 82 -201q0 -97 -64 -174h148l-25 -193h-248l-114 -135h346l-23 -190h-450q-21 -32 -21 -74q0 -40 27 -59q32 -23 100 -23q128 0 230 61l-35 -286q-150 -58 -320 -58q-175 0 -268 82q-90 79 -90 199q0 81 53 158h-127
l23 190h231l115 135h-330l25 193h438q31 35 31 76q0 55 -31 82q-32 24 -82 24q-51 0 -110.5 -22.5t-108.5 -57.5z" />
    <glyph glyph-name="uni20B6" unicode="&#x20b6;" horiz-adv-x="1089" 
d="M217 721l80 645h352q487 0 492 -375q0 -108 -39.5 -209t-110.5 -159q-90 -78 -190.5 -102.5t-249.5 -24.5l-16 -136h286l-22 -190h-287l-20 -170h-363l25 170h-146l23 190h145l14 136h-145l27 225h145zM586 721h43q64 0 102.5 57t38.5 137q0 66 -24.5 109t-71.5 43h-47z
" />
    <glyph glyph-name="uni20B6" unicode="&#x20cf;" horiz-adv-x="1089" 
d="M217 721l80 645h352q487 0 492 -375q0 -108 -39.5 -209t-110.5 -159q-90 -78 -190.5 -102.5t-249.5 -24.5l-16 -136h286l-22 -190h-287l-20 -170h-363l25 170h-146l23 190h145l14 136h-145l27 225h145zM586 721h43q64 0 102.5 57t38.5 137q0 66 -24.5 109t-71.5 43h-47z
" />
    <glyph glyph-name="uni20B6" unicode="&#x20ce;" horiz-adv-x="1089" 
d="M217 721l80 645h352q487 0 492 -375q0 -108 -39.5 -209t-110.5 -159q-90 -78 -190.5 -102.5t-249.5 -24.5l-16 -136h286l-22 -190h-287l-20 -170h-363l25 170h-146l23 190h145l14 136h-145l27 225h145zM586 721h43q64 0 102.5 57t38.5 137q0 66 -24.5 109t-71.5 43h-47z
" />
    <glyph glyph-name="uni20B6" unicode="&#x20cd;" horiz-adv-x="1089" 
d="M217 721l80 645h352q487 0 492 -375q0 -108 -39.5 -209t-110.5 -159q-90 -78 -190.5 -102.5t-249.5 -24.5l-16 -136h286l-22 -190h-287l-20 -170h-363l25 170h-146l23 190h145l14 136h-145l27 225h145zM586 721h43q64 0 102.5 57t38.5 137q0 66 -24.5 109t-71.5 43h-47z
" />
    <glyph glyph-name="uni20B6" unicode="&#x20cc;" horiz-adv-x="1089" 
d="M217 721l80 645h352q487 0 492 -375q0 -108 -39.5 -209t-110.5 -159q-90 -78 -190.5 -102.5t-249.5 -24.5l-16 -136h286l-22 -190h-287l-20 -170h-363l25 170h-146l23 190h145l14 136h-145l27 225h145zM586 721h43q64 0 102.5 57t38.5 137q0 66 -24.5 109t-71.5 43h-47z
" />
    <glyph glyph-name="uni20B6" unicode="&#x20cb;" horiz-adv-x="1089" 
d="M217 721l80 645h352q487 0 492 -375q0 -108 -39.5 -209t-110.5 -159q-90 -78 -190.5 -102.5t-249.5 -24.5l-16 -136h286l-22 -190h-287l-20 -170h-363l25 170h-146l23 190h145l14 136h-145l27 225h145zM586 721h43q64 0 102.5 57t38.5 137q0 66 -24.5 109t-71.5 43h-47z
" />
    <glyph glyph-name="uni20B6" unicode="&#x20ca;" horiz-adv-x="1089" 
d="M217 721l80 645h352q487 0 492 -375q0 -108 -39.5 -209t-110.5 -159q-90 -78 -190.5 -102.5t-249.5 -24.5l-16 -136h286l-22 -190h-287l-20 -170h-363l25 170h-146l23 190h145l14 136h-145l27 225h145zM586 721h43q64 0 102.5 57t38.5 137q0 66 -24.5 109t-71.5 43h-47z
" />
    <glyph glyph-name="uni20B6" unicode="&#x20c9;" horiz-adv-x="1089" 
d="M217 721l80 645h352q487 0 492 -375q0 -108 -39.5 -209t-110.5 -159q-90 -78 -190.5 -102.5t-249.5 -24.5l-16 -136h286l-22 -190h-287l-20 -170h-363l25 170h-146l23 190h145l14 136h-145l27 225h145zM586 721h43q64 0 102.5 57t38.5 137q0 66 -24.5 109t-71.5 43h-47z
" />
    <glyph glyph-name="uni20B6" unicode="&#x20c8;" horiz-adv-x="1089" 
d="M217 721l80 645h352q487 0 492 -375q0 -108 -39.5 -209t-110.5 -159q-90 -78 -190.5 -102.5t-249.5 -24.5l-16 -136h286l-22 -190h-287l-20 -170h-363l25 170h-146l23 190h145l14 136h-145l27 225h145zM586 721h43q64 0 102.5 57t38.5 137q0 66 -24.5 109t-71.5 43h-47z
" />
    <glyph glyph-name="uni20B6" unicode="&#x20c7;" horiz-adv-x="1089" 
d="M217 721l80 645h352q487 0 492 -375q0 -108 -39.5 -209t-110.5 -159q-90 -78 -190.5 -102.5t-249.5 -24.5l-16 -136h286l-22 -190h-287l-20 -170h-363l25 170h-146l23 190h145l14 136h-145l27 225h145zM586 721h43q64 0 102.5 57t38.5 137q0 66 -24.5 109t-71.5 43h-47z
" />
    <glyph glyph-name="uni20B6" unicode="&#x20c6;" horiz-adv-x="1089" 
d="M217 721l80 645h352q487 0 492 -375q0 -108 -39.5 -209t-110.5 -159q-90 -78 -190.5 -102.5t-249.5 -24.5l-16 -136h286l-22 -190h-287l-20 -170h-363l25 170h-146l23 190h145l14 136h-145l27 225h145zM586 721h43q64 0 102.5 57t38.5 137q0 66 -24.5 109t-71.5 43h-47z
" />
    <glyph glyph-name="uni20B6" unicode="&#x20c5;" horiz-adv-x="1089" 
d="M217 721l80 645h352q487 0 492 -375q0 -108 -39.5 -209t-110.5 -159q-90 -78 -190.5 -102.5t-249.5 -24.5l-16 -136h286l-22 -190h-287l-20 -170h-363l25 170h-146l23 190h145l14 136h-145l27 225h145zM586 721h43q64 0 102.5 57t38.5 137q0 66 -24.5 109t-71.5 43h-47z
" />
    <glyph glyph-name="uni20B6" unicode="&#x20c4;" horiz-adv-x="1089" 
d="M217 721l80 645h352q487 0 492 -375q0 -108 -39.5 -209t-110.5 -159q-90 -78 -190.5 -102.5t-249.5 -24.5l-16 -136h286l-22 -190h-287l-20 -170h-363l25 170h-146l23 190h145l14 136h-145l27 225h145zM586 721h43q64 0 102.5 57t38.5 137q0 66 -24.5 109t-71.5 43h-47z
" />
    <glyph glyph-name="uni20B6" unicode="&#x20c3;" horiz-adv-x="1089" 
d="M217 721l80 645h352q487 0 492 -375q0 -108 -39.5 -209t-110.5 -159q-90 -78 -190.5 -102.5t-249.5 -24.5l-16 -136h286l-22 -190h-287l-20 -170h-363l25 170h-146l23 190h145l14 136h-145l27 225h145zM586 721h43q64 0 102.5 57t38.5 137q0 66 -24.5 109t-71.5 43h-47z
" />
    <glyph glyph-name="uni20B6" unicode="&#x20c2;" horiz-adv-x="1089" 
d="M217 721l80 645h352q487 0 492 -375q0 -108 -39.5 -209t-110.5 -159q-90 -78 -190.5 -102.5t-249.5 -24.5l-16 -136h286l-22 -190h-287l-20 -170h-363l25 170h-146l23 190h145l14 136h-145l27 225h145zM586 721h43q64 0 102.5 57t38.5 137q0 66 -24.5 109t-71.5 43h-47z
" />
    <glyph glyph-name="uni20B6" unicode="&#x20c1;" horiz-adv-x="1089" 
d="M217 721l80 645h352q487 0 492 -375q0 -108 -39.5 -209t-110.5 -159q-90 -78 -190.5 -102.5t-249.5 -24.5l-16 -136h286l-22 -190h-287l-20 -170h-363l25 170h-146l23 190h145l14 136h-145l27 225h145zM586 721h43q64 0 102.5 57t38.5 137q0 66 -24.5 109t-71.5 43h-47z
" />
    <glyph glyph-name="uni20B6" unicode="&#x20c0;" horiz-adv-x="1089" 
d="M217 721l80 645h352q487 0 492 -375q0 -108 -39.5 -209t-110.5 -159q-90 -78 -190.5 -102.5t-249.5 -24.5l-16 -136h286l-22 -190h-287l-20 -170h-363l25 170h-146l23 190h145l14 136h-145l27 225h145zM586 721h43q64 0 102.5 57t38.5 137q0 66 -24.5 109t-71.5 43h-47z
" />
    <glyph glyph-name="uni20B6" unicode="&#x20bf;" horiz-adv-x="1089" 
d="M217 721l80 645h352q487 0 492 -375q0 -108 -39.5 -209t-110.5 -159q-90 -78 -190.5 -102.5t-249.5 -24.5l-16 -136h286l-22 -190h-287l-20 -170h-363l25 170h-146l23 190h145l14 136h-145l27 225h145zM586 721h43q64 0 102.5 57t38.5 137q0 66 -24.5 109t-71.5 43h-47z
" />
    <glyph glyph-name="uni20B6" unicode="&#x20be;" horiz-adv-x="1089" 
d="M217 721l80 645h352q487 0 492 -375q0 -108 -39.5 -209t-110.5 -159q-90 -78 -190.5 -102.5t-249.5 -24.5l-16 -136h286l-22 -190h-287l-20 -170h-363l25 170h-146l23 190h145l14 136h-145l27 225h145zM586 721h43q64 0 102.5 57t38.5 137q0 66 -24.5 109t-71.5 43h-47z
" />
    <glyph glyph-name="uni20B6" unicode="&#x20bd;" horiz-adv-x="1089" 
d="M217 721l80 645h352q487 0 492 -375q0 -108 -39.5 -209t-110.5 -159q-90 -78 -190.5 -102.5t-249.5 -24.5l-16 -136h286l-22 -190h-287l-20 -170h-363l25 170h-146l23 190h145l14 136h-145l27 225h145zM586 721h43q64 0 102.5 57t38.5 137q0 66 -24.5 109t-71.5 43h-47z
" />
    <glyph glyph-name="uni20B6" unicode="&#x20bc;" horiz-adv-x="1089" 
d="M217 721l80 645h352q487 0 492 -375q0 -108 -39.5 -209t-110.5 -159q-90 -78 -190.5 -102.5t-249.5 -24.5l-16 -136h286l-22 -190h-287l-20 -170h-363l25 170h-146l23 190h145l14 136h-145l27 225h145zM586 721h43q64 0 102.5 57t38.5 137q0 66 -24.5 109t-71.5 43h-47z
" />
    <glyph glyph-name="uni20B6" unicode="&#x20bb;" horiz-adv-x="1089" 
d="M217 721l80 645h352q487 0 492 -375q0 -108 -39.5 -209t-110.5 -159q-90 -78 -190.5 -102.5t-249.5 -24.5l-16 -136h286l-22 -190h-287l-20 -170h-363l25 170h-146l23 190h145l14 136h-145l27 225h145zM586 721h43q64 0 102.5 57t38.5 137q0 66 -24.5 109t-71.5 43h-47z
" />
    <glyph glyph-name="uni20B6" unicode="&#x20ba;" horiz-adv-x="1089" 
d="M217 721l80 645h352q487 0 492 -375q0 -108 -39.5 -209t-110.5 -159q-90 -78 -190.5 -102.5t-249.5 -24.5l-16 -136h286l-22 -190h-287l-20 -170h-363l25 170h-146l23 190h145l14 136h-145l27 225h145zM586 721h43q64 0 102.5 57t38.5 137q0 66 -24.5 109t-71.5 43h-47z
" />
    <glyph glyph-name="uni20B6" unicode="&#x20b9;" horiz-adv-x="1089" 
d="M217 721l80 645h352q487 0 492 -375q0 -108 -39.5 -209t-110.5 -159q-90 -78 -190.5 -102.5t-249.5 -24.5l-16 -136h286l-22 -190h-287l-20 -170h-363l25 170h-146l23 190h145l14 136h-145l27 225h145zM586 721h43q64 0 102.5 57t38.5 137q0 66 -24.5 109t-71.5 43h-47z
" />
    <glyph glyph-name="uni20B6" unicode="&#x20b7;" horiz-adv-x="1089" 
d="M217 721l80 645h352q487 0 492 -375q0 -108 -39.5 -209t-110.5 -159q-90 -78 -190.5 -102.5t-249.5 -24.5l-16 -136h286l-22 -190h-287l-20 -170h-363l25 170h-146l23 190h145l14 136h-145l27 225h145zM586 721h43q64 0 102.5 57t38.5 137q0 66 -24.5 109t-71.5 43h-47z
" />
    <glyph glyph-name="uni20B8" unicode="&#x20b8;" horiz-adv-x="1089" 
d="M1012 1038l-39 -307h-209l-90 -731h-363l90 731h-200l39 307h772zM1022 1141h-772l31 225h772z" />
    <glyph glyph-name="afii61352" unicode="&#x2116;" horiz-adv-x="1783" 
d="M1151 1366l-168 -1366h-346l-121 502q-39 158 -57 284q-3 -34 -13 -217q-5 -86 -14 -173.5t-26.5 -222t-22.5 -173.5h-346l168 1366h346l123 -479q17 -65 40 -186.5t31 -157.5q0 17 1 121.5t2 143.5t5.5 114.5t12.5 136.5l39 307h346zM1804 1120q0 -108 -36 -196
t-115 -144.5t-191 -56.5q-123 0 -186.5 73.5t-63.5 200.5q0 76 22.5 146.5t64 126t107 88.5t144.5 33q121 0 187.5 -74t66.5 -197zM1696 606l-25 -205h-510l25 205h510zM1579 1106q0 106 -53 106q-23 0 -41 -24t-27 -59t-13.5 -66t-4.5 -53q0 -107 51 -107q24 0 42.5 24.5
t27.5 60t13.5 66.5t4.5 52z" />
    <glyph glyph-name="uni2117" unicode="&#x2117;" horiz-adv-x="1556" 
d="M588 1083h221q161 0 244 -79q73 -73 73 -195q0 -113 -61 -178q-71 -76 -234 -76h-20v-240h-223v768zM811 731h4q41 0 64 23q24 24 24 67q0 41 -24 62q-22 20 -62 20h-6v-172zM1516 682q0 -147 -55.5 -274.5t-149.5 -225.5q-37 -38 -81 -71t-107 -67.5t-145.5 -54.5
t-172.5 -20t-172.5 20t-145.5 54.5t-107 67.5t-81 71q-94 96 -149.5 224t-55.5 278q0 147 55.5 274.5t149.5 225.5q37 38 81 71t107 67.5t145.5 54.5t172.5 20t172.5 -20t145.5 -54.5t107 -67.5t81 -71q94 -96 149.5 -224t55.5 -278zM805 1247q-218 0 -375 -153
q-172 -168 -172 -412t172 -412q157 -153 375 -153t375 153q172 168 172 412t-172 412q-157 153 -375 153z" />
    <glyph glyph-name="trademark" unicode="&#x2122;" horiz-adv-x="1345" 
d="M1352 1366l-19 -778h-233l30 399l-126 -399h-183l-16 379l-70 -379h-239l188 778h274l17 -336l104 336h273zM571 1366l-24 -197h-121l-72 -581h-225l72 581h-117l25 197h462z" />
    <glyph glyph-name="partialdiff" unicode="&#x2202;" 
d="M115 1141l35 229q183 -20 327.5 -68t261.5 -149q129 -111 194.5 -267.5t65.5 -334.5q0 -118 -32 -220.5t-93.5 -180.5t-158.5 -123t-219 -45q-196 0 -336 137t-140 332q0 183 121 308.5t303 125.5q153 0 248 -92q-125 303 -577 348zM500 662h-21q-16 0 -61 -17
q-58 -24 -90.5 -79t-32.5 -120q0 -94 57 -159.5t150 -65.5q92 0 150.5 65t58.5 158t-59 155.5t-152 62.5z" />
    <glyph glyph-name="product" unicode="&#x220f;" horiz-adv-x="1501" 
d="M1425 -512h-602v240h164v1568h-463v-1568h162v-240h-598v240h170v1568h-170v240h1337v-240h-168v-1568h168v-240z" />
    <glyph glyph-name="summation" unicode="&#x2211;" horiz-adv-x="1366" 
d="M1294 -512h-1247v266l500 793l-500 723v266h1229v-506h-240l-26 266h-662l510 -749l-510 -819h680l16 272h250v-512z" />
    <glyph glyph-name="minus" unicode="&#x2212;" 
d="M985 573h-889v246h889v-246z" />
    <glyph glyph-name="uni2215" unicode="&#x2215;" horiz-adv-x="1077" 
d="M1157 1493l-1001 -1935h-246l1001 1935h246z" />
    <glyph glyph-name="uni2219" unicode="&#x2219;" horiz-adv-x="659" 
d="M596 723q0 -106 -81 -186t-187 -80q-91 0 -151 60t-60 151q0 106 80 187t186 81q92 0 152.5 -60.5t60.5 -152.5z" />
    <glyph glyph-name="radical" unicode="&#x221a;" horiz-adv-x="1366" 
d="M1446 1454h-365l-338 -1454h-354l-115 555h-194v238h414q3 -13 20 -88t23 -115q20 -147 20 -268h23q17 287 88 593l182 779h596v-240z" />
    <glyph glyph-name="infinity" unicode="&#x221e;" horiz-adv-x="1366" 
d="M1360 696q0 -146 -93.5 -241t-238.5 -95q-166 0 -311 162q-145 -162 -320 -162q-146 0 -241 94t-95 240t94 240t240 94q92 0 163.5 -41t146.5 -119q143 160 319 160q147 0 241.5 -92.5t94.5 -239.5zM1085 696q0 39 -31.5 67t-70.5 28q-73 0 -141 -97q70 -94 141 -94
q41 0 71.5 28t30.5 68zM580 694q-70 94 -142 94q-41 0 -71.5 -27t-30.5 -67t31.5 -67t72.5 -27t73.5 25.5t66.5 68.5z" />
    <glyph glyph-name="integral" unicode="&#x222b;" 
d="M934 1516l-47 -238q-62 20 -115 20q-66 0 -92.5 -38t-26.5 -107v-1102q0 -133 -2 -201q-13 -362 -358 -362q-88 0 -193 20l50 238q62 -20 114 -20q28 0 49 6.5t33.5 21.5t20 28.5t10.5 39t3.5 41t0.5 45.5v90q0 182 -1 548t-1 548q0 135 24 221q32 111 125 166t217 55
q67 0 189 -20z" />
    <glyph glyph-name="approxequal" unicode="&#x2248;" 
d="M887 1081l149 -88q-24 -51 -43 -85t-48.5 -73t-60.5 -62t-75.5 -38.5t-97.5 -15.5q-61 0 -195 51t-178 51q-57 0 -89.5 -31.5t-62.5 -93.5l-145 97q25 64 48.5 108t60 87.5t87 66t115.5 22.5q69 0 195 -50t192 -50q53 0 85.5 26t62.5 78zM887 664l149 -86
q-30 -65 -55 -106t-63.5 -84t-90 -64t-116.5 -21q-66 0 -193.5 51.5t-179.5 51.5q-40 0 -70 -19t-45 -41.5t-37 -64.5l-145 94q21 52 38 87t44.5 76.5t57.5 66t74 41t97 16.5q69 0 197.5 -51.5t189.5 -51.5q51 0 84 27t64 78z" />
    <glyph glyph-name="notequal" unicode="&#x2260;" 
d="M979 350h-494l-100 -194h-209l96 194h-180v240h289l70 137h-359v238h467l113 221h209l-111 -221h209v-238h-317l-68 -137h385v-240z" />
    <glyph glyph-name="lessequal" unicode="&#x2264;" 
d="M956 297l-886 426v223l886 424v-248l-606 -288l604 -289zM956 0h-886v240h886v-240z" />
    <glyph glyph-name="greaterequal" unicode="&#x2265;" 
d="M983 723l-889 -426v248l608 289l-606 288l-2 248l889 -424v-223zM983 0h-889v240h889v-240z" />
    <glyph glyph-name="dotmath" unicode="&#x22c5;" horiz-adv-x="659" 
d="M596 723q0 -106 -81 -186t-187 -80q-91 0 -151 60t-60 151q0 106 80 187t186 81q92 0 152.5 -60.5t60.5 -152.5z" />
    <glyph glyph-name="lozenge" unicode="&#x25ca;" horiz-adv-x="1366" 
d="M1241 684l-532 -737l-531 737l531 735zM930 684l-221 303l-220 -303l220 -303z" />
    <glyph glyph-name="openbullet" unicode="&#x25e6;" 
d="M899 1042q0 -130 -93 -221.5t-224 -91.5q-129 0 -222.5 92t-93.5 221q0 128 94 219t222 91q130 0 223.5 -90t93.5 -220zM739 1042q0 64 -46 109t-111 45q-64 0 -110 -45t-46 -109t45.5 -109.5t110.5 -45.5t111 45t46 110z" />
    <glyph glyph-name="uniF400" unicode="&#xf400;" horiz-adv-x="4" 
d="M-141 1389l-215 -304h-201l133 304h283z" />
    <glyph glyph-name="uniF401" unicode="&#xf401;" horiz-adv-x="4" 
d="M-141 1778l-215 -303h-201l133 303h283z" />
    <glyph glyph-name="uniF406" unicode="&#xf406;" 
d="M805 1774h141q-30 -139 -125 -221.5t-235 -82.5q-125 0 -206 73t-81 196v35h141q18 -65 57 -87t111 -22q76 0 120.5 23t76.5 86z" />
    <glyph glyph-name="uniF407" unicode="&#xf407;" 
d="M637 -231l-258 -254l-158 108l219 281z" />
    <glyph glyph-name="uniF408" unicode="&#xf408;" 
d="M647 1782l254 -201l-133 -143l-145 112l-193 -116l-108 143z" />
    <glyph glyph-name="uniF409" unicode="&#xf409;" horiz-adv-x="503" 
d="M547 -92l-193 -385h-209l103 385h299z" />
    <glyph glyph-name="uniF40A" unicode="&#xf40a;" horiz-adv-x="503" 
d="M547 1366l-213 -428h-209l123 428h299z" />
    <glyph glyph-name="uniF40B" unicode="&#xf40b;" 
d="M762 1630q0 -23 -12 -43q-19 -50 -63.5 -81t-96.5 -31q-58 0 -97.5 39.5t-39.5 97.5q0 69 51.5 120.5t120.5 51.5q68 0 102.5 -42.5t34.5 -111.5z" />
    <glyph glyph-name="uniF40C" unicode="&#xf40c;" horiz-adv-x="1030" 
d="M416 1659q0 82 57 139t139 57t139.5 -57t57.5 -139q0 -81 -58 -139t-137 -58q-82 0 -140 58.5t-58 138.5zM537 1659q0 -32 21.5 -54t53.5 -22t54 22t22 54t-22 54t-54 22t-53.5 -22t-21.5 -54z" />
    <glyph glyph-name="uniF40D" unicode="&#xf40d;" 
d="M784 1751h181q-10 -114 -73 -193t-173 -79q-52 0 -126 33.5t-101 33.5q-52 0 -64 -71h-182q7 69 24 114q27 67 84.5 111.5t126.5 44.5q55 0 130.5 -34t107.5 -34q54 0 65 74z" />
    <glyph glyph-name="uniF40E" unicode="&#xf40e;" 
d="M774 -188l-33 -144q-45 -18 -90 -18q-75 0 -131.5 37t-56.5 108q0 107 131 205h123q-86 -73 -86 -139q0 -30 21 -46t53 -16t69 13z" />
    <glyph glyph-name="uniF4C6" unicode="&#xf4c6;" horiz-adv-x="1067" 
d="M184 1366h361l-45 -365q-6 -43 -6 -61q0 -43 26 -66q25 -22 72 -22q36 0 67 14l62 500h362l-176 -1454q-22 -194 -116 -277q-38 -34 -91 -52t-86 -20.5t-82 -2.5q-86 0 -165 24l34 285q27 -25 62 -25q36 0 57 25q6 7 11 16t7.5 16t5 21t3.5 20t3 23.5t3 22.5l68 563
q-82 -23 -162 -23q-144 0 -232 68q-104 81 -104 229q0 59 12 152z" />
    <glyph glyph-name="uniF4C7" unicode="&#xf4c7;" horiz-adv-x="974" 
d="M602 956h352l-118 -942q-15 -120 -45.5 -212t-96.5 -154q-96 -88 -260 -88q-66 0 -151 20l36 297q26 -31 64 -31q40 0 63 27q20 20 31 102l49 355q-74 -21 -145 -21q-149 0 -229 76q-70 70 -70 186q0 57 10 134l31 251h348l-31 -249q-4 -24 -4 -54q0 -33 19 -47
q16 -14 49 -14q31 0 55 16z" />
    <glyph glyph-name="uniF4CC" unicode="&#xf4cc;" 
d="M111 1366h376l48 -223q31 -137 34 -289q46 163 101 299l84 213h381l-652 -1366h-362l221 471zM885 1778l-215 -303h-201l133 303h283z" />
    <glyph glyph-name="uniF4CD" unicode="&#xf4cd;" horiz-adv-x="937" 
d="M997 956l-616 -1396h-361l226 479l-168 917h352q5 -40 14.5 -117t15 -125t10.5 -115t5 -124q0 -10 -1 -30.5t-1 -30.5q8 28 22.5 83t23.5 88.5t23.5 80t28.5 84.5l78 206h348zM823 1389l-215 -304h-200l133 304h282z" />
    <glyph glyph-name="dollar.fitted" unicode="&#xf5f5;" horiz-adv-x="884" 
d="M852 1315l-49 -414q-42 66 -90.5 106t-112.5 40q-40 0 -70 -25.5t-30 -65.5q0 -26 21 -53t52 -51t68 -58.5t68 -72.5t52 -96.5t21 -126.5q0 -93 -33.5 -183.5t-93.5 -162.5q-42 -49 -81 -77.5t-103 -60.5l-25 -207h-172l21 175q-89 3 -141 14.5t-127 46.5l53 426
q33 -67 89 -110.5t124 -43.5q48 0 83.5 27t35.5 74q0 27 -20.5 57t-51.5 57.5t-67.5 64.5t-67.5 75t-51.5 93t-20.5 116q0 101 39.5 198.5t108.5 169.5q49 51 92.5 80.5t107.5 52.5l23 191h172l-21 -180q94 -19 197 -76z" />
    <glyph glyph-name="Euro.fitted" unicode="&#xf5f6;" horiz-adv-x="1159" 
d="M1012 420l-72 -395q-69 -28 -115.5 -39t-109.5 -11q-109 0 -196 36t-145 101.5t-92.5 152t-45.5 192.5h-216l84 159h129q2 32 15 119h-193l88 160h146q79 229 245.5 362.5t397.5 133.5q57 0 93.5 -7t84.5 -28l-49 -389q-35 42 -71.5 62t-88.5 20q-144 0 -223 -154h354
l-100 -160h-307l-9 -51q-4 -46 -4 -68h271l-84 -159h-166q46 -125 174 -125q55 0 101.5 22t103.5 66z" />
    <glyph glyph-name="cent.fitted" unicode="&#xf5f7;" horiz-adv-x="638" 
d="M606 1208l-37 -303q-83 -4 -130.5 -61.5t-47.5 -141.5q0 -57 29 -100t84 -43h22l-39 -330q-18 -3 -51 -3.5t-47 -2.5l-20 -176h-172l26 215q-198 126 -198 383q0 106 37 210t104 187q38 47 73.5 73t94.5 54l24 222h172l-20 -177q15 3 33 3t63 -9z" />
    <glyph glyph-name="sterling.fitted" unicode="&#xf5f8;" horiz-adv-x="1046" 
d="M1004 1196l-220 -197q-13 24 -22 38.5t-24 31.5t-33 25t-41 8q-48 0 -79.5 -38.5t-31.5 -86.5q0 -33 12.5 -98.5t12.5 -98.5h325l-24 -190h-304q-14 -145 -118 -264q48 -3 74.5 -11t70.5 -32q41 -23 72 -23q62 0 114 66l168 -99q-127 -252 -350 -252q-85 0 -166 35
q-14 6 -36.5 16t-33.5 14.5t-31.5 8.5t-43.5 4q-81 0 -180 -61l-80 168q94 63 170 98q32 48 44.5 93.5t12.5 107.5q0 45 -16 131h-123l22 190h68q-2 14 -7.5 42t-9 45t-6 41.5t-2.5 45.5q0 122 59.5 221.5t161.5 155t224 55.5q218 0 371 -190z" />
    <glyph glyph-name="yen.fitted" unicode="&#xf5f9;" horiz-adv-x="1179" 
d="M1151 1366l-227 -434h159l-22 -193h-236l-69 -135h288l-24 -190h-299l-51 -414h-363l51 414h-321l22 190h312l-41 135h-254l24 193h172l-131 434h377q4 -21 17 -81t19 -90t15.5 -79t15.5 -90.5t11 -81.5q60 161 178 422h377z" />
    <glyph glyph-name="florin.fitted" unicode="&#xf5fa;" horiz-adv-x="960" 
d="M942 1493l-45 -283q-11 0 -32.5 3.5t-33.5 3.5q-65 0 -77 -70l-37 -191h143l-37 -192h-145l-131 -680q-33 -171 -120.5 -263.5t-252.5 -92.5q-61 0 -156 26l54 293q40 -4 63 -4q45 0 67 15.5t31 58.5l125 647h-139l35 192h141l43 218q17 83 39.5 140.5t60.5 105.5
t98.5 72t143.5 24q60 0 162 -23z" />
    <glyph glyph-name="uni20B4.fitted" unicode="&#xf5fb;" horiz-adv-x="1042" 
d="M240 1034l34 287q176 70 314 70q163 0 250 -84q82 -79 82 -201q0 -97 -64 -174h148l-25 -193h-248l-115 -135h347l-23 -190h-451q-20 -30 -20 -74q0 -40 27 -59q32 -23 100 -23q127 0 229 61l-34 -286q-150 -58 -320 -58q-175 0 -268 82q-90 79 -90 199q0 81 53 158h-127
l22 190h232l115 135h-330l24 193h439q30 34 30 76q0 56 -30 82q-32 24 -82 24q-51 0 -110.5 -22.5t-108.5 -57.5z" />
    </font>
</defs>
</svg>
