<?xml version="1.0" standalone="no"?>
<!DOCTYPE svg PUBLIC "-//W3C//DTD SVG 1.1//EN" "http://www.w3.org/Graphics/SVG/1.1/DTD/svg11.dtd" >
<svg xmlns="http://www.w3.org/2000/svg" xmlns:xlink="http://www.w3.org/1999/xlink" version="1.1">
<metadata>
Created by FontForge 20170731 at Sat Jul 11 17:22:09 2020
 By Aleksey,,,
Copyright (c) 1995 ParaGraph Intl., (c) 1998 ParaType Inc., ParaType Ltd. All rights reserved.
</metadata>
<defs>
<font id="FuturaPT-BookObl" horiz-adv-x="1024" >
  <font-face 
    font-family="Futura PT Book Italic"
    font-weight="400"
    font-style="italic"
    font-stretch="normal"
    units-per-em="2048"
    panose-1="2 11 5 2 2 2 4 9 3 3"
    ascent="1563"
    descent="-485"
    x-height="850"
    cap-height="1366"
    bbox="-625 -512 2234 1896"
    underline-thickness="102"
    underline-position="-307"
    slope="-7"
    unicode-range="U+0020-FB02"
  />
<missing-glyph horiz-adv-x="477" 
 />
    <glyph glyph-name="afii10017.var.accented" unicode="&#x410;`" horiz-adv-x="1273" 
d="M1094 0l-113 385h-582l-211 -385h-172l805 1432l436 -1432h-163zM477 528h463l-164 547zM1026 1806l133 -92l-344 -239l-80 65z" />
    <glyph glyph-name="afii10022.var.accented" unicode="&#x415;`" horiz-adv-x="987" 
d="M1053 1366l-19 -143h-557l-49 -406h541l-19 -143h-540l-64 -531h557l-18 -143h-709l168 1366h709zM883 1806l133 -92l-344 -239l-80 65z" />
    <glyph glyph-name="afii10026.var.accented" unicode="&#x418;`" horiz-adv-x="1454" 
d="M1126 0l127 1042l-1085 -1103l176 1427h152l-129 -1047l1085 1104l-174 -1423h-152zM1116 1806l133 -92l-344 -239l-80 65z" />
    <glyph glyph-name="afii10032.var.accented" unicode="&#x41e;`" horiz-adv-x="1638" 
d="M817 -25q-281 0 -455 179q-176 180 -176 452q0 192 67.5 333.5t166.5 234.5q226 215 561 215q285 0 459 -172q180 -176 180 -447q0 -164 -58.5 -317.5t-170.5 -262.5q-98 -95 -244.5 -155t-329.5 -60zM965 1245q-127 0 -239 -43t-194 -119q-82 -77 -135 -190t-53 -258
q0 -232 141 -377q135 -139 349 -139q134 0 249.5 44t192.5 120q89 86 137.5 209.5t48.5 248.5q0 111 -38.5 205t-104.5 160q-139 139 -354 139zM1208 1806l133 -92l-344 -239l-79 65z" />
    <glyph glyph-name="afii10037.var.accented" unicode="&#x423;`" horiz-adv-x="1163" 
d="M184 1366h174l328 -805l455 805h174l-785 -1366h-163l221 381zM971 1806l133 -92l-344 -239l-80 65z" />
    <glyph glyph-name="afii10045.var.accented" unicode="&#x42b;`" horiz-adv-x="1454" 
d="M1294 1366h152l-168 -1366h-152zM176 0l166 1366h154l-70 -567h152q256 0 368 -115q92 -92 92 -244q0 -112 -36.5 -192.5t-88.5 -128.5q-43 -40 -96.5 -66t-111.5 -36.5t-98.5 -13.5t-90.5 -3h-340zM408 655l-62 -512h176q190 0 273 70q38 32 62 87t24 122
q0 77 -28.5 122.5t-64.5 67.5q-61 43 -225 43h-155zM1116 1806l133 -92l-344 -239l-80 65z" />
    <glyph glyph-name="afii10047.var.accented" unicode="&#x42d;`" horiz-adv-x="1329" 
d="M233 1065l23 188q87 52 184 90q121 46 254 46q140 0 252 -42t187 -112q178 -165 178 -459q0 -69 -9 -138.5t-31.5 -155t-71 -169.5t-118.5 -151q-104 -99 -228.5 -143t-279.5 -44t-286 48q-90 31 -170 90l22 184q69 -75 172 -123q118 -55 273 -55q244 0 387 141
q141 137 170 375h-797l18 143h791q0 108 -38.5 199t-98.5 149q-121 119 -330 119q-149 0 -280 -63q-103 -52 -173 -117zM909 1806l133 -92l-344 -239l-80 65z" />
    <glyph glyph-name="afii10048.var.accented" unicode="&#x42e;`" horiz-adv-x="2033" 
d="M426 797h205q47 209 192 366q212 226 543 226q146 0 268 -48t207 -133q174 -174 174 -460q0 -181 -63.5 -326t-165.5 -246q-207 -201 -522 -201q-300 0 -480 191q-177 186 -174 487h-202l-80 -653h-152l168 1366h152zM1350 1245q-117 0 -221.5 -43.5t-178.5 -114.5
q-82 -79 -133 -200t-51 -252q0 -106 39 -204.5t104 -166.5q64 -67 159 -106t210 -39q114 0 217 38.5t178 108.5q83 76 134 200t51 267q0 100 -32.5 192.5t-92.5 159.5q-64 72 -165 116t-218 44zM1405 1806l133 -92l-344 -239l-80 65z" />
    <glyph glyph-name="afii10049.var.accented" unicode="&#x42f;`" horiz-adv-x="1044" 
d="M61 0l476 608q-63 7 -122.5 35t-101.5 68q-86 84 -86 233q0 184 111 299q70 71 170.5 97t249.5 26h278l-168 -1366h-151l74 598h-78l-463 -598h-189zM866 1223h-147q-188 0 -266 -80q-66 -68 -66 -180q0 -61 19 -107t73 -78q72 -45 197 -45h131zM911 1806l133 -92
l-344 -239l-79 65z" />
    <glyph glyph-name="afii10023.var.accented" unicode="&#x401;`" horiz-adv-x="987" 
d="M1053 1366l-19 -143h-557l-49 -406h541l-19 -143h-540l-64 -531h557l-18 -143h-709l168 1366h709zM782 1806l111 -75l-291 -244l-67 53zM324 1599q0 41 28 74q32 37 82 37q37 0 62 -22q26 -22 26 -62q0 -47 -30 -80q-31 -35 -78 -35q-41 0 -68 27q-22 22 -22 61z
M854 1599q0 41 29 74q33 37 82 37q41 0 63 -22q25 -22 25 -62q0 -46 -31 -80q-31 -35 -78 -35q-41 0 -65 27q-25 25 -25 61z" />
    <glyph glyph-name="afii10065.var.accented" unicode="&#x430;`" horiz-adv-x="1081" 
d="M885 729l14 121h148l-105 -850h-147l14 119q-49 -67 -107 -101q-75 -43 -176 -43q-176 0 -276 105q-111 120 -111 303q0 123 41 219t107 158q116 110 305 110q104 0 180 -41q72 -38 113 -100zM604 739q-121 0 -205 -80q-48 -45 -78 -117t-30 -149q0 -64 23 -124t65 -99
q67 -64 172 -64q133 0 211 84q45 46 70.5 121.5t25.5 155.5q0 131 -80 205q-71 67 -174 67zM836 1364l143 -70l-309 -276l-86 49z" />
    <glyph glyph-name="afii10070.var.accented" unicode="&#x435;`" horiz-adv-x="989" 
d="M809 285l125 -68q-30 -51 -73 -99t-85 -77q-101 -66 -246 -66q-85 0 -153.5 23t-126.5 84q-113 117 -113 305q0 107 38.5 201.5t107.5 163.5q118 118 297 118q176 0 276 -100q125 -129 96 -375h-661q-2 -147 76 -225q64 -64 168 -64q95 0 163 48q64 46 111 131zM315 518
h496q-2 46 -21 92t-51 76q-55 53 -155 53q-116 0 -187 -71q-61 -61 -82 -150zM788 1364l144 -70l-309 -276l-86 49z" />
    <glyph glyph-name="afii10074.var.accented" unicode="&#x438;`" horiz-adv-x="1007" 
d="M244 850h147l-69 -565l659 630l-113 -915h-147l70 571l-660 -630zM799 1364l143 -70l-309 -276l-86 49z" />
    <glyph glyph-name="afii10080.var.accented" unicode="&#x43e;`" horiz-adv-x="1081" 
d="M549 -25q-191 0 -303 117q-109 116 -109 297q0 212 154 354q139 127 340 127q195 0 311 -116q105 -105 105 -279q0 -229 -144 -369q-135 -131 -354 -131zM629 739q-136 0 -232 -94q-108 -105 -108 -266q0 -116 73 -193q75 -80 197 -80q140 0 232 99q47 51 74.5 123
t27.5 145q0 115 -70 189q-74 77 -194 77zM836 1364l143 -70l-309 -276l-86 49z" />
    <glyph glyph-name="afii10085.var.accented" unicode="&#x443;`" horiz-adv-x="942" 
d="M80 -471l338 551l-297 770h164l225 -608l352 608h168l-786 -1321h-164zM766 1364l143 -70l-309 -276l-86 49z" />
    <glyph glyph-name="afii10093.var.accented" unicode="&#x44b;`" horiz-adv-x="1150" 
d="M864 0l105 850h147l-104 -850h-148zM139 0l105 850h147l-41 -326h154q144 0 221 -65q72 -65 72 -174q0 -123 -74 -197q-86 -88 -258 -88h-176h-150zM303 131h154q93 0 139 35q49 39 49 104q0 66 -45 97q-36 26 -125 26h-139zM870 1364l144 -70l-309 -276l-87 49z" />
    <glyph glyph-name="afii10095.var.accented" unicode="&#x44d;`" horiz-adv-x="872" 
d="M168 676l18 143q115 51 242 51q187 0 295 -100q115 -108 115 -301q0 -223 -133 -360q-131 -134 -353 -134q-154 0 -264 58l18 143q101 -70 236 -70q156 0 242 84q73 70 90 179h-449l17 131h444q-5 103 -80 170q-79 69 -215 69q-118 0 -223 -63zM629 1364l143 -70
l-309 -276l-86 49z" />
    <glyph glyph-name="afii10096.var.accented" unicode="&#x44e;`" horiz-adv-x="1417" 
d="M348 502h152q33 133 135 235q137 133 340 133q181 0 295 -108q112 -108 112 -289q0 -104 -36.5 -203.5t-108.5 -169.5q-75 -74 -159.5 -99.5t-180.5 -25.5q-204 0 -313 117q-46 48 -75.5 119.5t-29.5 155.5h-147l-45 -367h-148l105 850h147zM963 739q-136 0 -224 -88
q-52 -52 -79 -124t-27 -146q0 -127 72 -199q35 -37 88 -56.5t106 -19.5q135 0 225 93q47 47 76 119.5t29 152.5q0 117 -72 193q-71 75 -194 75zM1004 1364l143 -70l-309 -276l-86 49z" />
    <glyph glyph-name="afii10097.var.accented" unicode="&#x44f;`" horiz-adv-x="835" 
d="M41 0l307 350q-9 0 -30 4.5t-57 20.5t-62 41q-56 56 -56 145q0 131 80 207q37 36 89.5 55.5t92 23t99.5 3.5h297l-105 -850h-147l43 342h-82l-285 -342h-184zM606 465l31 254h-152q-94 0 -141 -33q-49 -35 -49 -98q0 -64 45 -94q43 -29 135 -29h131zM713 1364l143 -70
l-309 -276l-86 49z" />
    <glyph glyph-name="afii10071.var.accented" unicode="&#x451;`" horiz-adv-x="989" 
d="M809 285l125 -68q-30 -51 -73 -99t-85 -77q-101 -66 -246 -66q-85 0 -153.5 23t-126.5 84q-113 117 -113 305q0 107 38.5 201.5t107.5 163.5q118 118 297 118q176 0 276 -100q125 -129 96 -375h-661q-2 -147 76 -225q64 -64 168 -64q95 0 163 48q64 46 111 131zM315 518
h496q-2 46 -21 92t-51 76q-55 53 -155 53q-116 0 -187 -71q-61 -61 -82 -150zM745 1112q0 47 35 82t82 35q39 0 64 -25q26 -23 26 -65q0 -45 -37 -82q-33 -33 -77 -33q-37 0 -66 25q-27 27 -27 63zM260 1112q0 47 35 82t82 35q38 0 63 -25q27 -24 27 -65q0 -45 -37 -82
q-33 -33 -78 -33q-36 0 -65 25q-27 27 -27 63zM733 1364l121 -57l-309 -277l-64 37z" />
    <glyph glyph-name="fi" unicode="fi" horiz-adv-x="940" 
d="M588 715h-209l-88 -715h-148l88 715h-81l16 135h82l39 319q6 51 13.5 86.5t29 83t55.5 82.5q92 97 248 97q163 0 250 -91q67 -71 67 -186q0 -50 -8 -106h-147q6 60 6 77q0 74 -45 115q-44 41 -127 41q-94 0 -142 -55q-40 -46 -53 -144l-39 -319h209zM760 850h147
l-104 -850h-148z" />
    <glyph glyph-name="fl" unicode="fl" horiz-adv-x="940" 
d="M588 715h-209l-88 -715h-148l88 715h-81l16 135h82l39 319q6 51 13.5 86.5t29 83t55.5 82.5q93 97 252 97q158 0 246 -91q67 -72 67 -188q0 -51 -12 -143l-135 -1096h-148l133 1090q1 10 5 35t6 46.5t2 40.5q0 75 -45 115q-47 41 -125 41q-97 0 -144 -55
q-40 -45 -53 -144l-39 -319h209z" />
    <glyph glyph-name=".notdef" horiz-adv-x="477" 
 />
    <glyph glyph-name=".null" horiz-adv-x="0" 
 />
    <glyph glyph-name="nonmarkingreturn" horiz-adv-x="682" 
 />
    <glyph glyph-name="space" unicode=" " horiz-adv-x="477" 
 />
    <glyph glyph-name="exclam" unicode="!" horiz-adv-x="575" 
d="M397 276h-147l133 1090h147zM195 72q0 48 32 80q28 32 80 32q42 0 68 -26t26 -70q0 -48 -39 -82q-33 -26 -73 -26q-44 0 -70 26q-24 24 -24 66z" />
    <glyph glyph-name="quotedbl" unicode="&#x22;" horiz-adv-x="675" 
d="M442 1366l-94 -549h-110l41 549h163zM733 1366l-94 -549h-111l41 549h164z" />
    <glyph glyph-name="numbersign" unicode="#" horiz-adv-x="1228" 
d="M807 0h-150l117 424h-278l-117 -424h-150l117 424h-225l39 135h225l74 272h-226l37 136h226l110 399h150l-111 -399h279l110 399h150l-111 -399h225l-36 -136h-226l-73 -272h225l-39 -135h-225zM813 559l74 272h-279l-73 -272h278z" />
    <glyph glyph-name="dollar" unicode="$" horiz-adv-x="1163" 
d="M1102 1176l-129 -80q-11 60 -55 98q-37 33 -91 41l-55 -453q125 -47 201 -133q88 -102 88 -241q0 -183 -115 -302q-107 -113 -272 -126l-23 -187h-123l23 184q-141 0 -242 101q-100 100 -114 250l151 41q5 -50 25 -99.5t49 -79.5q56 -59 149 -69l68 555l-51 24
q-112 55 -162 107q-78 81 -78 209q0 153 107 260q110 110 272 110l20 177h123l-22 -181q89 -13 160 -71q67 -54 96 -135zM752 618l-60 -493q87 16 146 84q63 73 63 188q0 89 -51 148q-39 48 -98 73zM657 838l50 405q-83 -2 -140 -55q-67 -64 -67 -156q0 -75 49 -127
q41 -44 108 -67z" />
    <glyph glyph-name="percent" unicode="%" horiz-adv-x="1462" 
d="M295 20l965 1373l75 -45l-966 -1375zM1145 580q129 0 211 -82q74 -74 74 -191q0 -146 -93 -239q-84 -82 -225 -82q-62 0 -109.5 15t-91.5 58q-82 79 -82 199q0 63 23.5 123.5t67.5 105.5q93 93 225 93zM1124 98q74 0 123 49q58 58 58 152q0 79 -52 127q-41 41 -116 41
q-82 0 -133 -57q-52 -58 -52 -142q0 -79 49 -125q52 -45 123 -45zM516 1378q129 0 211 -82q74 -74 74 -190q0 -148 -92 -240q-84 -82 -226 -82q-61 0 -108.5 15.5t-91.5 58.5q-82 82 -82 199q0 136 90 229q92 92 225 92zM496 897q73 0 122 49q58 58 58 152q0 80 -51 127
q-41 41 -117 41q-81 0 -133 -58q-51 -57 -51 -141q0 -79 49 -125q52 -45 123 -45z" />
    <glyph glyph-name="ampersand" unicode="&#x26;" horiz-adv-x="1306" 
d="M1192 592l100 -92q-122 -133 -198 -203l192 -297h-188l-125 190q-102 -94 -197 -147q-119 -68 -256 -68q-86 0 -150.5 22.5t-121.5 80.5q-94 97 -94 233q0 168 133 301q52 52 130.5 106t147.5 89l-43 76q-57 97 -57 196q0 136 84 224q84 86 233 86q135 0 211 -78
q64 -64 64 -164q0 -105 -56 -182q-38 -53 -122 -113l-103 -74l240 -366q103 93 176 180zM895 303l-254 391q-65 -34 -134.5 -83t-111.5 -91q-44 -45 -66 -90.5t-22 -105.5q0 -92 58 -150q59 -59 159 -59q105 0 207 61q73 43 164 127zM657 961l43 -72l84 57q20 12 49.5 36.5
t43.5 41.5q34 42 34 100q0 65 -47 103q-38 30 -92 30q-71 0 -117 -43q-47 -44 -47 -116q0 -58 49 -137z" />
    <glyph glyph-name="quotesingle" unicode="'" horiz-adv-x="385" 
d="M442 1366l-94 -549h-110l41 549h163z" />
    <glyph glyph-name="parenleft" unicode="(" horiz-adv-x="610" 
d="M535 1516l122 -60q-123 -258 -206 -567q-86 -320 -86 -574q0 -112 16.5 -277.5t58.5 -326.5l-135 -59q-92 332 -92 651q0 297 96 637q81 284 226 576z" />
    <glyph glyph-name="parenright" unicode=")" horiz-adv-x="610" 
d="M215 -348l-123 59q133 288 209 570q44 164 64 304t20 310q0 287 -76 561l135 60q93 -344 93 -631q0 -183 -20 -319t-71 -314q-93 -338 -231 -600z" />
    <glyph glyph-name="asterisk" unicode="*" horiz-adv-x="1163" 
d="M449 1327l225 -88l22 254h140l-43 -254l249 88l27 -129l-254 -70l133 -198l-121 -80l-114 211l-168 -211l-101 80l183 198l-238 70z" />
    <glyph glyph-name="plus" unicode="+" 
d="M152 614v136h370v352h148v-352h370v-136h-370v-352h-148v352h-370z" />
    <glyph glyph-name="comma" unicode="," horiz-adv-x="561" 
d="M16 -272l226 473l129 -49l-265 -463z" />
    <glyph glyph-name="hyphen" unicode="-" horiz-adv-x="655" 
d="M147 360l19 152h450l-18 -152h-451z" />
    <glyph glyph-name="period" unicode="." horiz-adv-x="468" 
d="M141 72q0 47 33 80q28 32 80 32q42 0 68 -26t26 -70q0 -48 -39 -82q-33 -26 -73 -26q-44 0 -70 26q-25 25 -25 66z" />
    <glyph glyph-name="slash" unicode="/" horiz-adv-x="1239" 
d="M-39 -348l1294 1902l123 -61l-1292 -1899z" />
    <glyph glyph-name="zero" unicode="0" horiz-adv-x="1163" 
d="M578 -25q-78 0 -139 22.5t-120 82.5q-155 159 -155 461q0 210 68 400t186 310q135 138 319 138q155 0 262 -101q156 -149 156 -457q0 -217 -62 -413t-188 -318q-73 -71 -149 -98t-178 -27zM727 1249q-119 0 -213 -94q-91 -93 -145 -258t-54 -334q0 -27 3 -61.5t12.5 -96
t35.5 -121.5t64 -100q66 -69 168 -69q113 0 197 78q100 92 154.5 270t54.5 348q0 106 -28 211.5t-87 163.5q-63 63 -162 63z" />
    <glyph glyph-name="one" unicode="1" horiz-adv-x="1163" 
d="M545 0l149 1223h-229l98 143h301l-168 -1366h-151z" />
    <glyph glyph-name="two" unicode="2" horiz-adv-x="1163" 
d="M985 0h-883l570 571q154 154 205 224q81 112 81 223q0 105 -67 168t-182 63q-135 0 -205 -75q-36 -36 -58.5 -92.5t-27.5 -114.5h-152q11 86 48.5 167t93.5 136q122 119 313 119q87 0 161 -28t124 -75q104 -98 104 -252q0 -92 -30 -168.5t-93 -156.5q-24 -30 -56.5 -65.5
t-55 -58t-65.5 -65t-60 -59.5l-326 -322h577z" />
    <glyph glyph-name="three" unicode="3" horiz-adv-x="1163" 
d="M461 1028h-152q10 72 42.5 140.5t76.5 113.5q104 107 277 107q165 0 264 -91q100 -92 100 -258q0 -116 -57 -200q-63 -90 -158 -123q71 -34 113 -101q49 -74 49 -182q0 -94 -33.5 -183t-97.5 -155q-119 -121 -312 -121q-183 0 -284 103q-47 49 -79 123t-36 153h152
q3 -51 22.5 -100t50.5 -80q61 -59 174 -59q128 0 201 73q43 43 64.5 109.5t21.5 128.5q0 97 -63 160q-67 63 -181 63h-16l16 135h21q133 0 205 60q78 63 78 196q0 96 -58 152q-60 57 -164 57q-102 0 -166 -61q-61 -61 -71 -160z" />
    <glyph glyph-name="four" unicode="4" horiz-adv-x="1163" 
d="M1065 1442l-127 -1045h168l-19 -139h-167l-31 -258h-152l31 258h-700zM360 397h424l74 590z" />
    <glyph glyph-name="five" unicode="5" horiz-adv-x="1163" 
d="M1149 1366l-16 -139h-439l-123 -297q104 17 199.5 -10.5t161.5 -92.5q121 -118 121 -313q0 -239 -150 -393q-143 -146 -375 -146q-161 0 -270 72q-94 62 -162 174l131 86q39 -77 101 -127q84 -65 202 -65q173 0 269 100q49 51 75.5 127.5t26.5 165.5q0 140 -96 221
q-83 72 -219 72q-139 0 -256 -84l276 649h543z" />
    <glyph glyph-name="six" unicode="6" horiz-adv-x="1163" 
d="M852 1399l113 -86l-355 -424q106 18 213 -14t181 -107q108 -111 108 -291q0 -221 -137 -358q-144 -144 -385 -144q-191 0 -305 109q-57 53 -91 133.5t-34 173.5q0 140 71 264q43 75 154 203zM608 115q160 0 250 90q98 98 98 268q0 129 -79 203q-42 39 -103.5 59.5
t-122.5 20.5q-131 0 -233 -97q-47 -46 -76 -114t-29 -144q0 -119 78 -200q79 -86 217 -86z" />
    <glyph glyph-name="seven" unicode="7" horiz-adv-x="1163" 
d="M104 47l922 1180h-739l16 139h1004l-1086 -1399z" />
    <glyph glyph-name="eight" unicode="8" horiz-adv-x="1163" 
d="M879 707q70 -33 116 -99q54 -79 54 -184q0 -203 -125 -328q-123 -123 -330 -123q-189 0 -291 107q-98 101 -98 270q0 62 19.5 128t54.5 114q66 87 178 125q-60 40 -90 94q-41 68 -41 162q0 188 110 303q110 113 293 113q167 0 264 -99q90 -92 90 -250q0 -120 -57 -209
q-55 -84 -147 -124zM686 772q109 0 178 66q74 70 74 192q0 103 -61 162q-57 57 -162 57q-107 0 -170 -63q-78 -75 -78 -197q0 -91 57 -153q60 -64 162 -64zM602 115q136 0 209 71q39 37 61.5 95t22.5 122q0 71 -24.5 116.5t-51.5 66.5q-63 55 -176 55q-128 0 -203 -80
q-80 -87 -80 -207q0 -110 64 -174q65 -65 178 -65z" />
    <glyph glyph-name="nine" unicode="9" horiz-adv-x="1163" 
d="M467 -33l-105 84l359 426q-103 -22 -215.5 13.5t-186.5 109.5q-104 107 -104 270q0 232 145 377q142 142 365 142q207 0 332 -125q108 -108 108 -283q0 -129 -53 -238q-7 -14 -14.5 -27.5t-13.5 -24t-16 -24.5t-14.5 -21.5t-16.5 -22.5l-16 -20t-18 -21.5t-16.5 -19.5
t-19 -21.5t-17.5 -20.5zM711 1249q-148 0 -238 -90q-104 -100 -104 -276q0 -113 69 -187q38 -39 97 -63.5t131 -24.5q144 0 245 105q45 48 73 115.5t28 138.5q0 131 -90 209q-81 73 -211 73z" />
    <glyph glyph-name="colon" unicode=":" horiz-adv-x="468" 
d="M141 68q0 46 33 79q29 33 80 33q42 0 68 -26t26 -70q0 -48 -39 -82q-35 -27 -73 -27q-43 0 -70 27q-25 25 -25 66zM225 758q0 47 33 80q28 32 80 32q42 0 68 -26t26 -70q0 -48 -39 -82q-33 -26 -74 -26q-43 0 -69 26q-25 25 -25 66z" />
    <glyph glyph-name="semicolon" unicode=";" horiz-adv-x="561" 
d="M16 -272l226 473l129 -49l-265 -463zM252 758q0 47 33 80q28 32 80 32q41 0 67 -26q27 -27 27 -70q0 -48 -39 -82q-33 -26 -74 -26q-44 0 -70 26q-24 24 -24 66z" />
    <glyph glyph-name="less" unicode="&#x3c;" 
d="M334 676l731 -332v-147l-889 415v127l889 416v-147z" />
    <glyph glyph-name="equal" unicode="=" 
d="M154 786v136h888v-136h-888zM154 471v135h888v-135h-888z" />
    <glyph glyph-name="greater" unicode="&#x3e;" 
d="M856 676l-731 332v147l889 -416v-127l-889 -415v147z" />
    <glyph glyph-name="question" unicode="?" horiz-adv-x="897" 
d="M662 592h147q0 -64 -22.5 -126t-63.5 -104q-83 -83 -223 -83q-134 0 -211 75q-70 70 -70 178q0 131 82 213q62 65 213 109l68 20q82 24 127 74q49 56 49 135q0 80 -53 127q-45 39 -121 39q-82 0 -133 -51q-56 -56 -56 -164q0 -19 4 -51h-151q-2 18 -2 51q0 162 100 262
q95 93 250 93q153 0 235 -82q78 -78 78 -213q0 -140 -88 -232q-72 -75 -178 -106l-90 -29q-35 -10 -53.5 -17t-44 -21t-43.5 -32q-43 -48 -43 -108q0 -67 39 -98q36 -33 102 -33q69 0 108 39q44 47 44 135zM354 61q0 47 33 80q29 33 80 33q41 0 68 -27q26 -26 26 -69
q0 -48 -39 -82q-34 -27 -73 -27q-43 0 -70 27q-25 25 -25 65z" />
    <glyph glyph-name="at" unicode="@" horiz-adv-x="1509" 
d="M1094 874l43 132h106l-135 -431q-25 -91 -25 -112q0 -41 21 -60q18 -18 49 -18q71 0 137 59q65 61 103.5 166t38.5 215q0 213 -146 342q-140 119 -350 119q-290 0 -485 -199q-98 -101 -146.5 -230t-48.5 -259q0 -102 35 -201.5t102 -169.5q71 -73 185.5 -114t252.5 -41
q234 0 420 94l19 -94q-194 -99 -473 -99q-301 0 -482 187q-163 171 -163 422q0 164 59.5 311.5t161.5 253.5q43 45 95 83.5t122.5 75t162 57.5t191.5 21q273 0 436 -163q150 -150 150 -371q0 -68 -14 -145.5t-53 -167t-97 -146.5q-99 -96 -213 -96q-67 0 -111 41
q-43 40 -43 96q-44 -65 -100 -100q-70 -45 -160 -45q-115 0 -186 71q-78 78 -78 217q0 93 37 186t104 161q110 110 258 110q101 0 160 -55q43 -40 60 -103zM762 397q91 0 164 70q52 52 82 129t30 149q0 85 -49 134q-43 43 -112 43q-109 0 -185 -82q-44 -48 -70 -118
t-26 -134q0 -104 57 -154q42 -37 109 -37z" />
    <glyph glyph-name="A" unicode="A" horiz-adv-x="1273" 
d="M1094 0l-113 385h-582l-211 -385h-172l805 1432l436 -1432h-163zM477 528h463l-164 547z" />
    <glyph glyph-name="B" unicode="B" horiz-adv-x="1089" 
d="M344 1366h223q235 0 340 -109q80 -80 80 -217q0 -113 -47 -196q-40 -74 -127 -115q82 -33 137 -88q84 -87 84 -227q0 -196 -125 -301q-132 -113 -377 -113h-356zM477 1223l-55 -457h98q162 0 242 70q74 64 74 182q0 107 -76 160q-61 45 -182 45h-101zM406 631l-60 -488
h184q175 0 256 60q41 29 68 81t27 122q0 127 -101 184q-70 41 -221 41h-153z" />
    <glyph glyph-name="C" unicode="C" horiz-adv-x="1331" 
d="M1382 1253l-22 -188q-72 80 -160 125q-107 55 -231 55q-131 0 -245.5 -46.5t-199.5 -131.5q-84 -86 -131 -200.5t-47 -237.5q0 -218 143 -369q135 -141 345 -141q149 0 260 57q94 49 172 121l-23 -188q-100 -70 -174 -97q-98 -37 -246 -37q-287 0 -465 181
q-172 175 -172 456q0 345 230 570q116 113 253 160t300 47q154 0 268 -48q69 -29 145 -88z" />
    <glyph glyph-name="D" unicode="D" horiz-adv-x="1302" 
d="M176 0l168 1366h248q346 0 526 -170q166 -162 166 -442q0 -144 -44.5 -288t-154.5 -257q-118 -120 -273 -164.5t-372 -44.5h-264zM477 1223l-131 -1080h100q178 0 305 36.5t216 125.5q157 157 157 436q0 215 -123 340q-138 142 -391 142h-133z" />
    <glyph glyph-name="E" unicode="E" horiz-adv-x="987" 
d="M1053 1366l-19 -143h-557l-49 -406h541l-19 -143h-540l-64 -531h557l-18 -143h-709l168 1366h709z" />
    <glyph glyph-name="F" unicode="F" horiz-adv-x="888" 
d="M967 1366l-19 -143h-471l-49 -404h455l-17 -143h-454l-84 -676h-152l168 1366h623z" />
    <glyph glyph-name="G" unicode="G" horiz-adv-x="1556" 
d="M952 543l17 143h569l-4 -33q-38 -300 -201 -475q-188 -203 -499 -203q-286 0 -467 181t-181 456q0 172 62 313.5t164 243.5q117 119 256 169.5t307 50.5q209 0 358 -95q122 -75 195 -202l-125 -103q-57 113 -166 182q-116 74 -264 74q-152 0 -264 -49.5t-185 -120.5
q-90 -90 -136 -213.5t-46 -245.5q0 -102 37.5 -196t103.5 -162q134 -139 365 -139q230 0 364 139q110 110 146 285h-406z" />
    <glyph glyph-name="H" unicode="H" horiz-adv-x="1355" 
d="M496 1366l-68 -555h700l68 555h152l-168 -1366h-152l82 668h-700l-82 -668h-152l168 1366h152z" />
    <glyph glyph-name="I" unicode="I" horiz-adv-x="503" 
d="M344 1366h152l-168 -1366h-152z" />
    <glyph glyph-name="J" unicode="J" horiz-adv-x="612" 
d="M453 1366h151l-121 -987q-14 -116 -38 -193t-74 -127q-84 -84 -238 -84q-76 0 -137 31q-52 25 -94 70l98 119q22 -28 61 -52q44 -24 89 -24q65 0 106 41q56 56 76 219z" />
    <glyph glyph-name="K" unicode="K" horiz-adv-x="1163" 
d="M496 1366l-72 -586l653 586h205l-725 -639l569 -727h-200l-482 627l-45 -39l-71 -588h-152l168 1366h152z" />
    <glyph glyph-name="L" unicode="L" horiz-adv-x="733" 
d="M344 1366h152l-150 -1223h377l-18 -143h-529z" />
    <glyph glyph-name="M" unicode="M" horiz-adv-x="1767" 
d="M287 0h-158l403 1442l383 -1153l678 1155l35 -1444h-153l-13 950l-588 -1007l-335 1007z" />
    <glyph glyph-name="N" unicode="N" horiz-adv-x="1568" 
d="M328 0h-152l174 1423l928 -1120l131 1063h152l-177 -1427l-927 1120z" />
    <glyph glyph-name="O" unicode="O" horiz-adv-x="1638" 
d="M817 -25q-281 0 -455 179q-176 180 -176 452q0 192 67.5 333.5t166.5 234.5q226 215 561 215q285 0 459 -172q180 -176 180 -447q0 -164 -58.5 -317.5t-170.5 -262.5q-98 -95 -244.5 -155t-329.5 -60zM965 1245q-127 0 -239 -43t-194 -119q-82 -77 -135 -190t-53 -258
q0 -232 141 -377q135 -139 349 -139q134 0 249.5 44t192.5 120q89 86 137.5 209.5t48.5 248.5q0 111 -38.5 205t-104.5 160q-139 139 -354 139z" />
    <glyph glyph-name="P" unicode="P" horiz-adv-x="935" 
d="M344 1366h248q223 0 330 -104q94 -91 94 -258q0 -94 -31.5 -169t-79.5 -122q-123 -119 -387 -119h-117l-73 -594h-152zM477 1223l-59 -486h129q165 0 246 74q73 66 73 188q0 119 -75 175q-63 49 -201 49h-113z" />
    <glyph glyph-name="Q" unicode="Q" horiz-adv-x="1638" 
d="M1348 -14l-91 106q-185 -117 -421 -117q-299 0 -476 185q-77 81 -125.5 195.5t-48.5 254.5q0 151 55.5 298.5t172.5 262.5q222 218 555 218q280 0 463 -175q188 -180 188 -460q0 -189 -70 -336q-11 -24 -27.5 -52.5t-59 -81t-93.5 -96.5l166 -202h-188zM1057 549
l213 -248q79 69 125 145q67 113 67 269q0 230 -137 377q-139 153 -358 153q-254 0 -437 -174q-186 -179 -186 -446q0 -111 38 -205.5t103 -161.5q134 -139 367 -139q169 0 305 90l-289 340h189z" />
    <glyph glyph-name="R" unicode="R" horiz-adv-x="1034" 
d="M344 1366h219q110 0 192.5 -18.5t149.5 -81.5q99 -92 99 -244q0 -187 -109 -291q-53 -52 -130.5 -83.5t-156.5 -37.5l359 -610h-185l-342 598h-39l-73 -598h-152zM477 1223l-59 -490h96q174 0 254 72t80 194q0 129 -92 185q-29 18 -86 28.5t-107 10.5h-86z" />
    <glyph glyph-name="S" unicode="S" horiz-adv-x="1060" 
d="M1051 1176l-129 -80q-21 62 -76 106q-56 43 -154 43q-108 0 -172 -57q-32 -29 -51.5 -72.5t-19.5 -89.5q0 -74 57 -125q37 -34 115 -72l122 -57q112 -52 175 -117q55 -56 73.5 -110.5t18.5 -128.5q0 -190 -115 -310q-127 -131 -354 -131q-90 0 -157.5 22.5t-125.5 80.5
q-46 47 -77 113t-38 137l152 41q6 -108 74 -179q41 -42 87.5 -56.5t106.5 -14.5q140 0 213 76q36 38 55 91.5t19 106.5q0 108 -74 174q-44 40 -133 82l-108 51q-37 16 -84.5 45t-77.5 60q-78 82 -78 211q0 155 106 258q118 115 301 115q138 0 226 -58q83 -55 123 -155z" />
    <glyph glyph-name="T" unicode="T" horiz-adv-x="872" 
d="M993 1223h-331l-150 -1223h-152l150 1223h-332l19 143h815z" />
    <glyph glyph-name="U" unicode="U" horiz-adv-x="1323" 
d="M496 1366l-99 -803q-14 -107 -14 -164q0 -126 88 -206q49 -45 103 -59.5t126 -14.5q34 0 59.5 2.5t63 11t72 29.5t63.5 53q36 40 59.5 106t29.5 103.5t14 103.5l102 838h152l-109 -879q-16 -135 -47.5 -224t-111.5 -165q-55 -52 -124 -81t-120.5 -35.5t-118.5 -6.5
q-214 0 -334 115q-119 115 -119 283q0 68 15 207l98 786h152z" />
    <glyph glyph-name="V" unicode="V" horiz-adv-x="1138" 
d="M184 1366h166l256 -1042l514 1042h170l-731 -1448z" />
    <glyph glyph-name="W" unicode="W" horiz-adv-x="1961" 
d="M184 1366h166l236 -1024l561 1094l272 -1094l525 1024h170l-750 -1438l-268 1094l-564 -1094z" />
    <glyph glyph-name="X" unicode="X" horiz-adv-x="1028" 
d="M29 0l489 707l-285 659h168l220 -514l354 514h172l-457 -659l309 -707h-168l-243 561l-387 -561h-172z" />
    <glyph glyph-name="Y" unicode="Y" horiz-adv-x="1085" 
d="M465 0l72 588l-353 778h172l273 -610l428 610h180l-549 -778l-72 -588h-151z" />
    <glyph glyph-name="Z" unicode="Z" horiz-adv-x="1097" 
d="M1217 1366l-895 -1223h725l-19 -143h-979l895 1223h-649l18 143h904z" />
    <glyph glyph-name="bracketleft" unicode="[" horiz-adv-x="591" 
d="M672 1358h-197l-192 -1571h196l-16 -135h-344l227 1841h344z" />
    <glyph glyph-name="backslash" unicode="\" horiz-adv-x="1204" 
d="M1165 -348l-116 -58l-828 1899l119 61z" />
    <glyph glyph-name="bracketright" unicode="]" horiz-adv-x="591" 
d="M57 -213h197l192 1571h-196l18 135h344l-227 -1841h-344z" />
    <glyph glyph-name="asciicircum" unicode="^" 
d="M604 1253l-299 -505h-160l363 618h192l363 -618h-160z" />
    <glyph glyph-name="underscore" unicode="_" 
d="M0 -270v131h1024v-131h-1024z" />
    <glyph glyph-name="grave" unicode="`" 
d="M635 1018l-242 276l160 70l178 -297z" />
    <glyph glyph-name="a" unicode="a" horiz-adv-x="1081" 
d="M885 729l14 121h148l-105 -850h-147l14 119q-49 -67 -107 -101q-75 -43 -176 -43q-176 0 -276 105q-111 120 -111 303q0 123 41 219t107 158q116 110 305 110q104 0 180 -41q72 -38 113 -100zM604 739q-121 0 -205 -80q-48 -45 -78 -117t-30 -149q0 -64 23 -124t65 -99
q67 -64 172 -64q133 0 211 84q45 46 70.5 121.5t25.5 155.5q0 131 -80 205q-71 67 -174 67z" />
    <glyph glyph-name="b" unicode="b" horiz-adv-x="1081" 
d="M301 123l-14 -123h-148l185 1493h147l-94 -762q46 62 110 98q72 41 170 41q176 0 279 -100q111 -109 111 -289q0 -115 -38.5 -216t-109.5 -171q-122 -119 -307 -119q-112 0 -189 45q-64 39 -102 103zM594 106q112 0 192 76q53 51 81 127.5t28 147.5q0 129 -78 207
q-72 75 -184 75q-117 0 -201 -82q-49 -47 -77.5 -116.5t-28.5 -141.5q0 -135 86 -221q72 -72 182 -72z" />
    <glyph glyph-name="c" unicode="c" horiz-adv-x="901" 
d="M905 788l-20 -176q-54 61 -107 90q-66 37 -153 37q-134 0 -228 -88q-108 -104 -108 -258q0 -131 82 -213q74 -74 196 -74q88 0 158 37q64 34 119 97l-21 -177q-63 -47 -123 -65q-70 -23 -151 -23q-189 0 -299 113q-113 116 -113 297q0 98 39 193t109 163q52 52 138 90.5
t206 38.5q155 0 276 -82z" />
    <glyph glyph-name="d" unicode="d" horiz-adv-x="1081" 
d="M885 729l94 764h147l-184 -1493h-147l14 119q-46 -68 -119 -107q-70 -37 -166 -37q-158 0 -260 97q-54 52 -89.5 131.5t-35.5 181.5q0 104 40 203.5t108 165.5q55 54 134 85t169 31q104 0 184 -41q65 -33 111 -100zM596 739q-119 0 -199 -75q-46 -43 -76 -112t-30 -153
q0 -133 80 -217q71 -76 188 -76q125 0 201 74q49 49 73.5 124t24.5 145q0 133 -78 217q-68 73 -184 73z" />
    <glyph glyph-name="e" unicode="e" horiz-adv-x="989" 
d="M809 285l125 -68q-30 -51 -73 -99t-85 -77q-101 -66 -246 -66q-85 0 -153.5 23t-126.5 84q-113 117 -113 305q0 107 38.5 201.5t107.5 163.5q118 118 297 118q176 0 276 -100q125 -129 96 -375h-661q-2 -147 76 -225q64 -64 168 -64q95 0 163 48q64 46 111 131zM315 518
h496q-2 46 -21 92t-51 76q-55 53 -155 53q-116 0 -187 -71q-61 -61 -82 -150z" />
    <glyph glyph-name="f" unicode="f" horiz-adv-x="491" 
d="M588 715h-209l-88 -715h-148l88 715h-81l16 135h82l45 371q5 47 11 77.5t25 73.5t50 74q70 70 186 70q60 0 119 -19l-18 -143q-52 18 -91 18q-57 0 -90 -33q-36 -36 -47 -135l-43 -354h209z" />
    <glyph glyph-name="g" unicode="g" horiz-adv-x="1077" 
d="M881 729l14 121h147l-100 -830q-8 -65 -14 -102t-20 -90.5t-38.5 -96.5t-60.5 -79q-119 -123 -332 -123q-187 0 -287 100q-96 98 -96 277v12h146v-8q0 -128 67 -191q64 -59 176 -59q139 0 215 76q27 26 45.5 58.5t28 72t13.5 64t8 65.5l12 123q-42 -67 -121 -107
q-76 -37 -164 -37q-177 0 -280 109q-107 109 -107 289q0 106 35.5 205.5t101.5 166.5q121 125 316 125q115 0 188 -41q65 -33 107 -100zM602 739q-122 0 -205 -77q-110 -104 -110 -279q0 -134 75 -209q68 -68 175 -68q126 0 208 74q52 48 80.5 127.5t28.5 155.5
q0 55 -19.5 111t-54.5 94q-67 71 -178 71z" />
    <glyph glyph-name="h" unicode="h" horiz-adv-x="960" 
d="M139 0l185 1493h147l-92 -741q3 5 13.5 16.5t31.5 30.5t41 32q63 39 156 39q129 0 204 -73q68 -68 68 -191q0 -39 -12 -141l-58 -465h-147l51 424q12 105 12 145q0 84 -43 127t-118 43q-96 0 -152 -59q-61 -63 -84 -236l-55 -444h-148z" />
    <glyph glyph-name="i" unicode="i" horiz-adv-x="425" 
d="M244 850h147l-104 -850h-148zM252 1159q0 45 29 78q31 39 88 39q40 0 65 -25q27 -27 27 -67q0 -49 -33 -82q-33 -35 -82 -35q-41 0 -70 29q-24 24 -24 63z" />
    <glyph glyph-name="j" unicode="j" horiz-adv-x="423" 
d="M244 850h147l-164 -1321h-147zM250 1159q0 45 29 78q31 39 88 39q40 0 65 -25q27 -27 27 -67q0 -49 -33 -82q-33 -35 -82 -35q-41 0 -70 29q-24 24 -24 63z" />
    <glyph glyph-name="k" unicode="k" horiz-adv-x="864" 
d="M324 1493h147l-119 -958l350 315h193l-414 -365l371 -485h-188l-293 387l-41 -37l-43 -350h-148z" />
    <glyph glyph-name="l" unicode="l" horiz-adv-x="425" 
d="M324 1493h147l-184 -1493h-148z" />
    <glyph glyph-name="m" unicode="m" horiz-adv-x="1400" 
d="M139 0l105 850h147l-10 -90q33 52 82 78q58 32 131 32q88 0 141 -34q27 -17 50 -45.5t36 -57.5q33 58 90 96q65 41 160 41q125 0 199 -71q67 -64 67 -174q0 -22 -16 -170l-55 -455h-148l58 455q12 94 12 127q0 75 -41 116t-107 41q-74 0 -127 -49q-37 -35 -53.5 -87
t-25.5 -130l-58 -473h-147l61 504q6 41 7 67t-8.5 64.5t-33.5 62.5q-36 41 -108 41t-121 -49q-64 -64 -82 -227l-57 -463h-148z" />
    <glyph glyph-name="n" unicode="n" horiz-adv-x="960" 
d="M139 0l105 850h147l-12 -98q3 5 13.5 16.5t31.5 30.5t41 32q63 39 158 39q129 0 202 -73q68 -68 68 -191q0 -39 -12 -141l-58 -465h-147l51 424q12 105 12 145q0 84 -43 127t-118 43q-96 0 -152 -59q-61 -63 -84 -236l-55 -444h-148z" />
    <glyph glyph-name="o" unicode="o" horiz-adv-x="1081" 
d="M549 -25q-191 0 -303 117q-109 116 -109 297q0 212 154 354q139 127 340 127q195 0 311 -116q105 -105 105 -279q0 -229 -144 -369q-135 -131 -354 -131zM629 739q-136 0 -232 -94q-108 -105 -108 -266q0 -116 73 -193q75 -80 197 -80q140 0 232 99q47 51 74.5 123
t27.5 145q0 115 -70 189q-74 77 -194 77z" />
    <glyph glyph-name="p" unicode="p" horiz-adv-x="1081" 
d="M301 119l-74 -590h-147l164 1321h147l-14 -119q49 64 119 100q72 39 174 39q166 0 266 -98q111 -106 111 -293q0 -119 -40.5 -222t-109.5 -171q-65 -64 -139.5 -87.5t-165.5 -23.5q-118 0 -195 48q-57 36 -96 96zM588 106q115 0 192 72q56 52 85.5 130.5t29.5 160.5
q0 125 -74 199q-67 71 -188 71q-127 0 -211 -90q-94 -102 -94 -258q0 -124 69 -203q74 -82 191 -82z" />
    <glyph glyph-name="q" unicode="q" horiz-adv-x="1083" 
d="M887 729l14 121h148l-164 -1321h-148l74 590q-52 -70 -119 -105q-78 -39 -180 -39q-171 0 -270 107q-103 108 -103 283q0 115 39.5 217t108.5 170q120 118 325 118q102 0 174 -43q65 -38 101 -98zM602 739q-124 0 -203 -82q-52 -53 -79 -131.5t-27 -158.5q0 -120 69 -193
q65 -68 177 -68q131 0 215 84q51 51 78.5 123.5t27.5 149.5q0 126 -69 199q-69 77 -189 77z" />
    <glyph glyph-name="r" unicode="r" horiz-adv-x="606" 
d="M139 0l105 850h147l-12 -92q29 49 86 82q53 30 123 30q73 0 125 -34l-86 -134q-39 29 -88 29q-68 0 -113 -45q-40 -38 -57 -96.5t-27 -140.5l-55 -449h-148z" />
    <glyph glyph-name="s" unicode="s" horiz-adv-x="716" 
d="M694 717l-129 -64q-10 33 -35 58q-28 28 -73 28q-49 0 -82 -26q-33 -29 -33 -76q0 -34 25 -59q22 -22 84 -50l77 -39q66 -32 109 -75q55 -60 55 -152q0 -119 -71 -196q-84 -91 -244 -91q-110 0 -178 56q-76 63 -101 162l129 53q16 -62 52 -101q39 -39 102 -39
q74 0 115 37q43 40 43 109q0 52 -45 88q-23 20 -88 51l-48 23q-73 33 -112 78q-47 52 -47 133q0 103 71 174t193 71q90 0 153 -51q54 -45 78 -102z" />
    <glyph glyph-name="t" unicode="t" horiz-adv-x="438" 
d="M526 715h-147l-88 -715h-148l88 715h-90l17 135h90l37 307h147l-37 -307h148z" />
    <glyph glyph-name="u" unicode="u" horiz-adv-x="952" 
d="M389 850l-55 -449q-8 -78 -8 -110q0 -48 10 -81t41 -60q50 -44 127 -44q81 0 137 52q33 33 47 82.5t25 138.5l57 471h148l-60 -488q-9 -74 -16.5 -114t-29.5 -94.5t-58 -90.5q-88 -88 -246 -88q-160 0 -248 78q-84 73 -84 215q0 35 12 146l54 436h147z" />
    <glyph glyph-name="v" unicode="v" horiz-adv-x="868" 
d="M121 850h160l184 -574l323 574h168l-528 -905z" />
    <glyph glyph-name="w" unicode="w" horiz-adv-x="1396" 
d="M121 850h160l180 -578l346 643l184 -643l326 578h168l-535 -909l-182 634l-342 -634z" />
    <glyph glyph-name="x" unicode="x" horiz-adv-x="925" 
d="M16 0l418 455l-260 395h176l185 -289l258 289h180l-361 -397l297 -453h-176l-225 346l-311 -346h-181z" />
    <glyph glyph-name="y" unicode="y" horiz-adv-x="942" 
d="M80 -471l338 551l-297 770h164l225 -608l352 608h168l-786 -1321h-164z" />
    <glyph glyph-name="z" unicode="z" horiz-adv-x="942" 
d="M1030 850l-702 -715h590l-17 -135h-885l703 715h-496l17 135h790z" />
    <glyph glyph-name="braceleft" unicode="{" horiz-adv-x="1030" 
d="M700 1190l-47 -387q-10 -88 -43 -141q-42 -65 -110 -91q49 -20 73 -59q29 -42 29 -98q0 -11 -1 -23.5t-2.5 -27.5t-2.5 -23l-45 -373q-8 -54 -8 -86q0 -65 45 -88q29 -16 104 -16h31l-16 -125h-56q-127 0 -184 39q-76 50 -76 159q0 43 10 113l45 340q7 51 7 74
q0 65 -29 98q-28 33 -70 37l15 119q65 13 98 57q29 36 41 125l49 401q22 166 119 232q31 21 69.5 32t65.5 13t68 2h55l-14 -125h-31q-92 0 -131 -33q-48 -40 -58 -145z" />
    <glyph glyph-name="bar" unicode="|" 
d="M438 -512v2048h148v-2048h-148z" />
    <glyph glyph-name="braceright" unicode="}" horiz-adv-x="1030" 
d="M455 -45l47 385q13 96 45 147q41 64 108 84q-44 21 -69 56q-31 40 -31 102q0 39 10 131l33 275q10 80 10 112q0 66 -39 96q-36 25 -108 25h-31l14 125h56q132 0 186 -39q74 -50 74 -170q0 -37 -12 -139l-35 -281q-1 -13 -4 -32.5t-5 -36t-2 -33.5q0 -72 35 -103
q25 -22 64 -28l-15 -119q-64 -5 -98 -55q-35 -46 -41 -127l-49 -400q-16 -140 -82 -206q-75 -72 -242 -72h-55l17 125h30q96 0 135 35q40 35 54 143z" />
    <glyph glyph-name="asciitilde" unicode="~" 
d="M989 739l84 -53q-52 -89 -121 -149q-89 -80 -207 -80q-37 0 -75 10.5t-64.5 22.5t-81.5 40q-113 62 -180 62q-58 0 -108 -41q-49 -43 -84 -107l-84 54q57 103 116 159q81 78 195 78q52 0 101.5 -17.5t133.5 -60.5q108 -57 172 -57q69 0 121 43q47 38 82 96z" />
    <glyph glyph-name="uni00A0" unicode="&#xa0;" horiz-adv-x="477" 
 />
    <glyph glyph-name="exclamdown" unicode="&#xa1;" horiz-adv-x="573" 
d="M307 618h148l-133 -1089h-148zM301 803q0 47 33 80q28 32 80 32q41 0 67 -26q27 -27 27 -70q0 -48 -39 -82q-33 -26 -74 -26q-43 0 -69 26q-25 25 -25 66z" />
    <glyph glyph-name="cent" unicode="&#xa2;" horiz-adv-x="1163" 
d="M1053 1061l-21 -176q-37 48 -94 86q-49 32 -109 35l-75 -625q63 3 127 37q66 37 110 94l-20 -176q-105 -81 -234 -86l-26 -221h-123l26 225q-131 16 -217 106q-112 115 -112 297q0 98 39 194.5t108 162.5q117 117 293 127l25 200h122l-26 -204q111 -10 207 -76zM631 389
l78 619q-110 -14 -189 -105q-84 -98 -84 -235q0 -116 53 -185q50 -68 142 -94z" />
    <glyph glyph-name="sterling" unicode="&#xa3;" horiz-adv-x="1163" 
d="M1124 938h-149q6 35 6 66q0 110 -57 170q-64 67 -176 67q-58 0 -109.5 -20.5t-83.5 -53.5q-66 -66 -66 -180q0 -90 58 -244l39 -102h258l-15 -115h-219q15 -58 15 -102q0 -109 -70 -215l115 -47q100 -41 147 -41q62 0 109 47q43 40 71 94l115 -74q-24 -43 -59 -86
t-66 -67q-73 -58 -176 -58q-80 0 -166 35l-59 25q-112 47 -178 47q-58 0 -109 -41q-32 -25 -68 -70l-106 80q56 72 119 119q75 52 159 55q68 96 68 191q0 60 -18 108h-230l15 115h178l-27 76q-59 167 -59 258q0 169 112 287q116 122 310 122q171 0 276 -96q51 -46 78 -115.5
t27 -148.5q0 -42 -9 -86z" />
    <glyph glyph-name="currency" unicode="&#xa4;" horiz-adv-x="1366" 
d="M283 1303l194 -193q121 104 297 104t297 -104l195 193l82 -82l-195 -195q104 -121 104 -291t-104 -291l193 -192l-82 -82l-193 190q-121 -104 -297 -104t-297 104l-192 -190l-82 82l192 192q-104 121 -104 291t104 291l-194 195zM774 387q150 0 246 96q98 101 98 252
q0 74 -27 140t-73 112q-96 96 -244 96q-150 0 -246 -96q-44 -44 -71 -110.5t-27 -141.5q0 -152 100 -252q96 -96 244 -96z" />
    <glyph glyph-name="yen" unicode="&#xa5;" horiz-adv-x="1163" 
d="M1157 786h-289l-127 -180h394l-15 -114h-405l-60 -492h-151l59 492h-399l14 114h387l-82 180h-282l14 115h217l-211 465h174l273 -610l428 610h182l-330 -465h223z" />
    <glyph glyph-name="brokenbar" unicode="&#xa6;" 
d="M438 799v737h148v-737h-148zM438 -512v737h148v-737h-148z" />
    <glyph glyph-name="section" unicode="&#xa7;" horiz-adv-x="1159" 
d="M1085 1106h-147q4 20 4 57q0 100 -61 150q-56 45 -140 45q-97 0 -155 -58q-60 -57 -60 -143q0 -83 58 -137q16 -14 40 -28t38 -20.5t49.5 -21t40.5 -16.5l53 -23q104 -45 153 -102q72 -82 72 -217q0 -129 -69 -215q-64 -81 -166 -117q66 -51 94 -104q35 -58 35 -138
q0 -170 -101 -266q-104 -100 -278 -100q-143 0 -230 80q-106 95 -106 299h147q0 -108 41 -168q52 -76 158 -76q101 0 158 57t57 148q0 76 -47 123q-33 37 -137 82l-68 28q-34 13 -83 42.5t-85 68.5q-80 88 -80 217q0 125 66 211q65 86 178 125q-135 89 -135 252
q0 151 102 250q104 102 279 102q149 0 235 -84q92 -88 92 -250q0 -35 -2 -53zM666 797q-115 0 -179 -68q-63 -66 -63 -172q0 -90 57 -147q60 -60 162 -60q97 0 166 64q65 61 65 170q0 96 -59 155q-56 58 -149 58z" />
    <glyph glyph-name="dieresis" unicode="&#xa8;" 
d="M725 1112q0 47 35 82t82 35q37 0 63.5 -25.5t26.5 -64.5q0 -45 -37 -82q-33 -33 -78 -33q-37 0 -64.5 25t-27.5 63zM369 1112q0 48 34 82q35 35 82 35q37 0 63.5 -25.5t26.5 -64.5q0 -46 -36 -82q-33 -33 -78 -33q-37 0 -64.5 25t-27.5 63z" />
    <glyph glyph-name="copyright" unicode="&#xa9;" horiz-adv-x="1515" 
d="M1137 1018v-164q-32 40 -72 66.5t-78.5 36.5t-59.5 13t-40 3q-126 0 -209 -90q-74 -82 -74 -203q0 -132 76 -213q79 -88 205 -88q76 0 143.5 34t114.5 91v-166q-112 -82 -254 -82q-185 0 -305 117q-121 121 -121 299q0 82 31.5 163.5t89.5 141.5q119 119 303 119
q143 0 250 -78zM1548 684q0 -282 -192 -487q-90 -96 -219.5 -158t-294.5 -62t-294.5 62t-219.5 158q-193 206 -193 487q0 279 193 485q90 96 219.5 158t294.5 62t294.5 -62t219.5 -158q192 -205 192 -485zM842 1274q-111 0 -224 -45.5t-192 -122.5q-84 -81 -130 -194
t-46 -228q0 -117 45.5 -229.5t130.5 -194.5q79 -77 192 -122.5t224 -45.5t223.5 45t191.5 123q85 82 131 195t46 229q0 115 -46 227.5t-131 194.5q-79 78 -191.5 123t-223.5 45z" />
    <glyph glyph-name="ordfeminine" unicode="&#xaa;" horiz-adv-x="747" 
d="M684 1284l8 70h105l-68 -545h-104l8 65q-26 -32 -70 -55q-51 -26 -110 -26q-114 0 -183 65q-73 69 -73 186q0 78 29.5 144t80.5 108q83 70 203 70q59 0 106 -23q39 -19 68 -59zM508 1276q-84 0 -139 -55q-31 -29 -49.5 -73.5t-18.5 -90.5q0 -75 47 -125q46 -49 125 -49
q81 0 135 57q60 63 60 164q0 77 -50 127q-45 45 -110 45zM172 682h543l-10 -86h-543z" />
    <glyph glyph-name="guillemotleft" unicode="&#xab;" horiz-adv-x="880" 
d="M283 434l209 -299l-103 -74l-262 373l354 385l86 -76zM586 434l209 -299l-103 -74l-262 373l354 385l86 -76z" />
    <glyph glyph-name="logicalnot" unicode="&#xac;" 
d="M983 0h-143v416h-746v131h889v-547z" />
    <glyph glyph-name="uni00AD" unicode="&#xad;" horiz-adv-x="655" 
d="M147 360l19 152h450l-18 -152h-451z" />
    <glyph glyph-name="registered" unicode="&#xae;" horiz-adv-x="1515" 
d="M1122 297h-139l-250 324v-324h-110v766h139q34 0 56 -1.5t58.5 -7.5t67.5 -22t55 -41q58 -58 58 -149q0 -94 -58 -148q-48 -48 -141 -63zM733 965v-246h45q96 0 133 35q35 33 35 88q0 56 -26 84q-34 39 -146 39h-41zM1548 680q0 -282 -192 -487q-90 -96 -219.5 -158
t-294.5 -62t-294.5 62t-219.5 158q-193 206 -193 487q0 279 193 485q90 96 219.5 157.5t294.5 61.5t294.5 -61.5t219.5 -157.5q192 -205 192 -485zM842 1270q-111 0 -224 -45.5t-192 -122.5q-84 -81 -130 -194t-46 -228q0 -117 45.5 -229.5t130.5 -194.5q79 -77 192 -122.5
t224 -45.5t223.5 45t191.5 123q85 82 131 195t46 229q0 115 -46 227.5t-131 194.5q-79 78 -191.5 123t-223.5 45z" />
    <glyph glyph-name="macron" unicode="&#xaf;" 
d="M332 1051l14 123h619l-15 -123h-618z" />
    <glyph glyph-name="degree" unicode="&#xb0;" horiz-adv-x="1013" 
d="M354 1065q0 132 88 223q79 82 207 82q131 0 203 -72q72 -70 72 -190q0 -143 -86 -225q-80 -78 -215 -78q-132 0 -205 80q-64 72 -64 180zM457 1069q0 -78 45 -123q42 -47 125 -47q82 0 133 51q61 58 61 156q0 76 -51 127q-50 43 -123 43q-80 0 -133 -53q-27 -28 -42 -71
t-15 -83z" />
    <glyph glyph-name="plusminus" unicode="&#xb1;" 
d="M127 707v135h371v350h147v-350h371v-135h-371v-351h-147v351h-371zM127 137v135h889v-135h-889z" />
    <glyph glyph-name="twosuperior" unicode="&#xb2;" horiz-adv-x="716" 
d="M674 547h-543l342 346q100 103 117 127q53 67 53 137q0 55 -37 90q-39 37 -110 37q-76 0 -119 -45q-43 -47 -47 -123h-103q9 117 88 193q72 69 191 69q113 0 178 -61q66 -62 66 -154q0 -44 -15 -85t-30.5 -63.5t-40.5 -53.5q-35 -41 -132 -138l-180 -182h334z" />
    <glyph glyph-name="threesuperior" unicode="&#xb3;" horiz-adv-x="716" 
d="M172 770h102q0 -62 39 -104q37 -39 107 -39q74 0 117 43q47 51 47 131q0 63 -35 96t-111 33h-10l10 94h15q88 0 129 43q34 34 34 98q0 53 -28 84q-31 35 -94 35q-64 0 -99 -35q-37 -37 -45 -96h-102q8 46 30 92.5t50 73.5q61 59 170 59q108 0 170 -57q57 -52 57 -147
q0 -74 -37 -125q-37 -49 -92 -72q44 -19 70 -62q26 -42 26 -104q0 -127 -76 -203q-74 -76 -204 -76q-100 0 -160 52q-77 67 -80 186z" />
    <glyph glyph-name="acute" unicode="&#xb4;" 
d="M807 1364l143 -70l-309 -276l-86 49z" />
    <glyph glyph-name="mu" unicode="&#xb5;" horiz-adv-x="1069" 
d="M227 -471h-147l162 1321h147l-47 -385q-10 -72 -10 -141q0 -103 61 -162q60 -56 162 -56q107 0 180 70q43 42 67 105.5t36 162.5l49 406h147l-104 -850h-148l19 143q-38 -78 -94 -118q-66 -50 -168 -50q-103 0 -166 58q-48 42 -72 112z" />
    <glyph glyph-name="mu" unicode="&#x3bc;" horiz-adv-x="1069" 
d="M227 -471h-147l162 1321h147l-47 -385q-10 -72 -10 -141q0 -103 61 -162q60 -56 162 -56q107 0 180 70q43 42 67 105.5t36 162.5l49 406h147l-104 -850h-148l19 143q-38 -78 -94 -118q-66 -50 -168 -50q-103 0 -166 58q-48 42 -72 112z" />
    <glyph glyph-name="paragraph" unicode="&#xb6;" horiz-adv-x="1189" 
d="M557 -195h-127l102 838h-30q-151 0 -244 90q-90 86 -90 228q0 77 28 152t83 128q74 74 171.5 99.5t215.5 25.5h548l-14 -119h-123l-178 -1442h-127l178 1442h-217z" />
    <glyph glyph-name="periodcentered" unicode="&#xb7;" horiz-adv-x="409" 
d="M160 682q0 59 45 104q39 41 96 41q59 0 90 -36q31 -31 31 -78q0 -62 -41 -103q-45 -45 -105 -45q-46 0 -79 29q-37 37 -37 88z" />
    <glyph glyph-name="cedilla" unicode="&#xb8;" 
d="M532 -106l127 -56l-237 -262l-94 49z" />
    <glyph glyph-name="onesuperior" unicode="&#xb9;" horiz-adv-x="716" 
d="M408 547l88 725h-160l61 94h217l-100 -819h-106z" />
    <glyph glyph-name="ordmasculine" unicode="&#xba;" horiz-adv-x="751" 
d="M520 1366q128 0 207 -82q76 -76 76 -199q0 -116 -82 -198q-90 -90 -238 -90q-123 0 -204 77q-78 78 -78 189q0 67 26.5 125t71.5 98q86 80 221 80zM176 682h555l-10 -86h-555zM518 1276q-94 0 -149 -51q-30 -27 -48 -70t-18 -86q0 -81 47 -131q51 -51 139 -51
q87 0 142 47q67 59 67 160q0 78 -47 129q-48 53 -133 53z" />
    <glyph glyph-name="guillemotright" unicode="&#xbb;" horiz-adv-x="880" 
d="M403 446l-208 299l102 74l262 -373l-354 -385l-86 76zM707 446l-209 299l102 74l262 -373l-354 -385l-86 76z" />
    <glyph glyph-name="onequarter" unicode="&#xbc;" horiz-adv-x="1558" 
d="M408 547l88 725h-160l61 94h217l-100 -819h-106zM385 20l963 1373l73 -45l-964 -1375zM1087 250h232l39 317zM1497 864l-76 -614h101l-13 -94h-100l-18 -156h-103l19 156h-420z" />
    <glyph glyph-name="onehalf" unicode="&#xbd;" horiz-adv-x="1558" 
d="M408 547l88 725h-160l61 94h217l-100 -819h-106zM303 20l963 1373l73 -45l-964 -1375zM1448 0h-543l342 346q100 103 117 127q53 67 53 137q0 55 -37 90q-39 37 -110 37q-76 0 -119 -45q-43 -47 -47 -123h-103q9 116 89 193q72 69 190 69q113 0 178 -61q66 -62 66 -154
q0 -44 -15 -85t-30.5 -63.5t-40.5 -53.5q-41 -48 -131 -138l-181 -182h334z" />
    <glyph glyph-name="threequarters" unicode="&#xbe;" horiz-adv-x="1558" 
d="M172 770h102q0 -62 39 -104q37 -39 107 -39q74 0 117 43q47 51 47 131q0 63 -35 96t-111 33h-10l10 94h15q88 0 129 43q34 34 34 98q0 53 -28 84q-31 35 -94 35q-64 0 -99 -35q-37 -37 -45 -96h-102q8 46 30 92.5t50 73.5q61 59 170 59q108 0 170 -57q57 -52 57 -147
q0 -74 -37 -125q-37 -49 -92 -72q44 -19 70 -62q26 -42 26 -104q0 -127 -76 -203q-74 -76 -204 -76q-100 0 -160 52q-77 67 -80 186zM426 20l963 1373l73 -45l-964 -1375zM1497 864l-76 -614h101l-13 -94h-100l-18 -156h-103l19 156h-420zM1087 250h232l39 317z" />
    <glyph glyph-name="questiondown" unicode="&#xbf;" horiz-adv-x="901" 
d="M362 301h-147q6 66 33.5 131t68.5 105q77 77 218 77q129 0 202 -73q72 -72 72 -185q0 -131 -84 -211q-59 -56 -207 -106l-94 -31q-79 -26 -119 -80q-37 -51 -37 -125q0 -71 45 -116q49 -43 115 -43q93 0 145 49q58 52 58 168q0 33 -2 49h151v-16q0 -192 -92 -289
q-93 -101 -274 -101q-127 0 -209 74q-90 80 -90 213q0 77 27.5 142t70.5 108q59 59 172 96l88 29q106 33 145 76q39 42 39 110q0 63 -39 92q-39 31 -98 31q-80 0 -119 -53q-36 -52 -39 -121zM465 803q0 47 33 80q28 32 80 32q41 0 67 -26q27 -27 27 -70q0 -48 -39 -82
q-33 -26 -74 -26q-44 0 -70 26q-24 24 -24 66z" />
    <glyph glyph-name="Agrave" unicode="&#xc0;" horiz-adv-x="1273" 
d="M1094 0l-113 385h-582l-211 -385h-172l805 1432l436 -1432h-163zM477 528h463l-164 547zM838 1475l-283 239l154 92l225 -266z" />
    <glyph glyph-name="Aacute" unicode="&#xc1;" horiz-adv-x="1273" 
d="M1094 0l-113 385h-582l-211 -385h-172l805 1432l436 -1432h-163zM477 528h463l-164 547zM1026 1806l133 -92l-344 -239l-80 65z" />
    <glyph glyph-name="Acircumflex" unicode="&#xc2;" horiz-adv-x="1273" 
d="M1094 0l-113 385h-582l-211 -385h-172l805 1432l436 -1432h-163zM477 528h463l-164 547zM844 1632l-199 -155l-104 84l315 243l258 -243l-108 -84z" />
    <glyph glyph-name="Atilde" unicode="&#xc3;" horiz-adv-x="1273" 
d="M1094 0l-113 385h-582l-211 -385h-172l805 1432l436 -1432h-163zM477 528h463l-164 547zM1077 1724l80 -71q-21 -46 -72 -90q-69 -58 -139 -58q-50 0 -110 31l-43 25q-54 30 -91 30q-41 0 -65 -28q-24 -24 -43 -62l-82 74q38 62 82 98q57 49 131 49q55 0 117 -34l51 -29
q40 -23 72 -23q37 0 69 29q27 27 43 59z" />
    <glyph glyph-name="Adieresis" unicode="&#xc4;" horiz-adv-x="1273" 
d="M1094 0l-113 385h-582l-211 -385h-172l805 1432l436 -1432h-163zM477 528h463l-164 547zM918 1593q0 46 30 78q36 39 86 39q39 0 66 -24q26 -26 26 -64q0 -49 -32 -86q-35 -35 -82 -35q-43 0 -70 27q-24 24 -24 65zM528 1593q0 45 31 78q36 39 86 39q39 0 66 -24
q26 -26 26 -64q0 -49 -32 -86q-35 -35 -82 -35q-43 0 -70 27q-25 25 -25 65z" />
    <glyph glyph-name="Aring" unicode="&#xc5;" horiz-adv-x="1273" 
d="M1094 0l-113 385h-582l-211 -385h-172l805 1432l436 -1432h-163zM477 528h463l-164 547zM653 1657q0 85 60 145q53 53 137 53q76 0 125 -49q43 -50 43 -118q0 -85 -57 -142q-55 -51 -140 -51q-74 0 -119 43q-49 49 -49 119zM752 1667q0 -33 20 -53q23 -23 57 -23
q38 0 66 25q29 25 29 67q0 39 -25 60q-20 20 -57 20q-40 0 -64 -24q-26 -26 -26 -72z" />
    <glyph glyph-name="AE" unicode="&#xc6;" horiz-adv-x="1843" 
d="M1102 0l-115 383h-581l-209 -383h-168l776 1366h600l41 -143h-551l121 -406h540l41 -143h-536l158 -531h555l41 -143h-713zM489 526h457l-160 535z" />
    <glyph glyph-name="Ccedilla" unicode="&#xc7;" horiz-adv-x="1331" 
d="M1382 1253l-22 -188q-72 80 -160 125q-107 55 -231 55q-131 0 -245.5 -46.5t-199.5 -131.5q-84 -86 -131 -200.5t-47 -237.5q0 -218 143 -369q135 -141 345 -141q149 0 260 57q94 49 172 121l-23 -188q-100 -70 -174 -97q-98 -37 -246 -37q-287 0 -465 181
q-172 175 -172 456q0 345 230 570q116 113 253 160t300 47q154 0 268 -48q69 -29 145 -88zM774 -106l135 -62l-245 -262l-97 53z" />
    <glyph glyph-name="Egrave" unicode="&#xc8;" horiz-adv-x="987" 
d="M1053 1366l-19 -143h-557l-49 -406h541l-19 -143h-540l-64 -531h557l-18 -143h-709l168 1366h709zM735 1475l-282 239l153 92l225 -266z" />
    <glyph glyph-name="Eacute" unicode="&#xc9;" horiz-adv-x="987" 
d="M1053 1366l-19 -143h-557l-49 -406h541l-19 -143h-540l-64 -531h557l-18 -143h-709l168 1366h709zM901 1806l133 -92l-344 -239l-80 65z" />
    <glyph glyph-name="Ecircumflex" unicode="&#xca;" horiz-adv-x="987" 
d="M1053 1366l-19 -143h-557l-49 -406h541l-19 -143h-540l-64 -531h557l-18 -143h-709l168 1366h709zM741 1632l-198 -155l-105 84l316 243l258 -243l-109 -84z" />
    <glyph glyph-name="Edieresis" unicode="&#xcb;" horiz-adv-x="987" 
d="M1053 1366l-19 -143h-557l-49 -406h541l-19 -143h-540l-64 -531h557l-18 -143h-709l168 1366h709zM819 1593q0 45 31 78q36 39 86 39q38 0 65 -24q27 -27 27 -64q0 -48 -33 -86q-35 -35 -82 -35q-42 0 -69 27q-25 25 -25 65zM430 1593q0 45 31 78q36 39 86 39
q38 0 65 -24q27 -27 27 -64q0 -48 -33 -86q-35 -35 -82 -35q-42 0 -69 27q-25 25 -25 65z" />
    <glyph glyph-name="Igrave" unicode="&#xcc;" horiz-adv-x="503" 
d="M344 1366h152l-168 -1366h-152zM434 1475l-282 239l153 92l225 -266z" />
    <glyph glyph-name="Iacute" unicode="&#xcd;" horiz-adv-x="503" 
d="M344 1366h152l-168 -1366h-152zM651 1806l133 -92l-344 -239l-80 65z" />
    <glyph glyph-name="Icircumflex" unicode="&#xce;" horiz-adv-x="503" 
d="M344 1366h152l-168 -1366h-152zM457 1632l-199 -155l-104 84l315 243l258 -243l-109 -84z" />
    <glyph glyph-name="Idieresis" unicode="&#xcf;" horiz-adv-x="503" 
d="M344 1366h152l-168 -1366h-152zM479 1593q0 56 37 90q27 27 68 27q35 0 59 -24q25 -28 25 -72q0 -46 -33 -84q-29 -29 -70 -29q-36 0 -61 25t-25 67zM229 1593q0 56 37 90q27 27 68 27q35 0 59 -24q25 -28 25 -72q0 -46 -33 -84q-29 -29 -70 -29q-36 0 -61 25t-25 67z
" />
    <glyph glyph-name="Eth" unicode="&#xd0;" horiz-adv-x="1298" 
d="M172 0l86 688h-176l16 131h176l66 547h248q346 0 526 -170q166 -162 166 -442q0 -144 -44.5 -288t-154.5 -257q-118 -120 -273 -164.5t-372 -44.5h-264zM473 1223l-49 -404h278l-16 -131h-278l-66 -545h100q178 0 305 36.5t216 125.5q157 157 157 436q0 215 -123 340
q-138 142 -391 142h-133z" />
    <glyph glyph-name="Ntilde" unicode="&#xd1;" horiz-adv-x="1568" 
d="M328 0h-152l174 1423l928 -1120l131 1063h152l-177 -1427l-927 1120zM1225 1724l80 -71q-21 -46 -72 -90q-69 -58 -139 -58q-51 0 -111 31l-43 25q-54 30 -90 30q-42 0 -66 -28q-24 -24 -43 -62l-82 74q38 62 82 98q57 49 131 49q55 0 117 -34l51 -29q40 -23 72 -23
q38 0 70 29q27 27 43 59z" />
    <glyph glyph-name="Ograve" unicode="&#xd2;" horiz-adv-x="1638" 
d="M817 -25q-281 0 -455 179q-176 180 -176 452q0 192 67.5 333.5t166.5 234.5q226 215 561 215q285 0 459 -172q180 -176 180 -447q0 -164 -58.5 -317.5t-170.5 -262.5q-98 -95 -244.5 -155t-329.5 -60zM965 1245q-127 0 -239 -43t-194 -119q-82 -77 -135 -190t-53 -258
q0 -232 141 -377q135 -139 349 -139q134 0 249.5 44t192.5 120q89 86 137.5 209.5t48.5 248.5q0 111 -38.5 205t-104.5 160q-139 139 -354 139zM1022 1475l-283 239l154 92l225 -266z" />
    <glyph glyph-name="Oacute" unicode="&#xd3;" horiz-adv-x="1638" 
d="M817 -25q-281 0 -455 179q-176 180 -176 452q0 192 67.5 333.5t166.5 234.5q226 215 561 215q285 0 459 -172q180 -176 180 -447q0 -164 -58.5 -317.5t-170.5 -262.5q-98 -95 -244.5 -155t-329.5 -60zM965 1245q-127 0 -239 -43t-194 -119q-82 -77 -135 -190t-53 -258
q0 -232 141 -377q135 -139 349 -139q134 0 249.5 44t192.5 120q89 86 137.5 209.5t48.5 248.5q0 111 -38.5 205t-104.5 160q-139 139 -354 139zM1167 1806l133 -92l-344 -239l-79 65z" />
    <glyph glyph-name="Ocircumflex" unicode="&#xd4;" horiz-adv-x="1638" 
d="M817 -25q-281 0 -455 179q-176 180 -176 452q0 192 67.5 333.5t166.5 234.5q226 215 561 215q285 0 459 -172q180 -176 180 -447q0 -164 -58.5 -317.5t-170.5 -262.5q-98 -95 -244.5 -155t-329.5 -60zM965 1245q-127 0 -239 -43t-194 -119q-82 -77 -135 -190t-53 -258
q0 -232 141 -377q135 -139 349 -139q134 0 249.5 44t192.5 120q89 86 137.5 209.5t48.5 248.5q0 111 -38.5 205t-104.5 160q-139 139 -354 139zM1022 1632l-199 -155l-104 84l315 243l258 -243l-108 -84z" />
    <glyph glyph-name="Otilde" unicode="&#xd5;" horiz-adv-x="1638" 
d="M817 -25q-281 0 -455 179q-176 180 -176 452q0 192 67.5 333.5t166.5 234.5q226 215 561 215q285 0 459 -172q180 -176 180 -447q0 -164 -58.5 -317.5t-170.5 -262.5q-98 -95 -244.5 -155t-329.5 -60zM965 1245q-127 0 -239 -43t-194 -119q-82 -77 -135 -190t-53 -258
q0 -232 141 -377q135 -139 349 -139q134 0 249.5 44t192.5 120q89 86 137.5 209.5t48.5 248.5q0 111 -38.5 205t-104.5 160q-139 139 -354 139zM1253 1724l80 -71q-22 -47 -71 -90q-69 -58 -140 -58q-50 0 -110 31l-43 25q-54 30 -90 30q-42 0 -66 -28q-24 -24 -43 -62
l-82 74q38 62 82 98q57 49 131 49q55 0 117 -34l51 -29q40 -23 72 -23q37 0 69 29q27 27 43 59z" />
    <glyph glyph-name="Odieresis" unicode="&#xd6;" horiz-adv-x="1638" 
d="M817 -25q-281 0 -455 179q-176 180 -176 452q0 192 67.5 333.5t166.5 234.5q226 215 561 215q285 0 459 -172q180 -176 180 -447q0 -164 -58.5 -317.5t-170.5 -262.5q-98 -95 -244.5 -155t-329.5 -60zM965 1245q-127 0 -239 -43t-194 -119q-82 -77 -135 -190t-53 -258
q0 -232 141 -377q135 -139 349 -139q134 0 249.5 44t192.5 120q89 86 137.5 209.5t48.5 248.5q0 111 -38.5 205t-104.5 160q-139 139 -354 139zM1085 1593q0 45 31 78q36 39 86 39q39 0 66 -24q26 -26 26 -64q0 -49 -32 -86q-35 -35 -82 -35q-43 0 -70 27q-25 25 -25 65z
M696 1593q0 45 31 78q36 39 86 39q39 0 66 -24q26 -26 26 -64q0 -48 -33 -86q-35 -35 -81 -35q-43 0 -70 27q-25 25 -25 65z" />
    <glyph glyph-name="multiply" unicode="&#xd7;" 
d="M213 389l293 293l-305 305l96 96l305 -305l305 305l97 -96l-306 -305l293 -293l-96 -96l-293 293l-293 -293z" />
    <glyph glyph-name="Oslash" unicode="&#xd8;" horiz-adv-x="1638" 
d="M1696 1300l-187 -165q113 -165 113 -365q0 -164 -58.5 -317.5t-170.5 -262.5q-99 -96 -244 -155.5t-326 -59.5q-140 0 -244.5 40.5t-195.5 119.5l-182 -162l-88 103l184 164q-109 162 -109 366q0 344 234 568q226 215 561 215q133 0 236.5 -35t199.5 -117l187 166z
M420 348l876 780q-73 66 -151 91.5t-178 25.5q-258 0 -432 -162q-189 -178 -189 -448q0 -164 74 -287zM1384 1024l-880 -780q70 -63 149 -94t183 -31q135 0 249 44t193 120q83 80 134.5 198.5t51.5 259.5q0 161 -80 283z" />
    <glyph glyph-name="Ugrave" unicode="&#xd9;" horiz-adv-x="1323" 
d="M496 1366l-99 -803q-14 -107 -14 -164q0 -126 88 -206q49 -45 103 -59.5t126 -14.5q34 0 59.5 2.5t63 11t72 29.5t63.5 53q36 40 59.5 106t29.5 103.5t14 103.5l102 838h152l-109 -879q-16 -135 -47.5 -224t-111.5 -165q-55 -52 -124 -81t-120.5 -35.5t-118.5 -6.5
q-214 0 -334 115q-119 115 -119 283q0 68 15 207l98 786h152zM858 1475l-283 239l154 92l225 -266z" />
    <glyph glyph-name="Uacute" unicode="&#xda;" horiz-adv-x="1323" 
d="M496 1366l-99 -803q-14 -107 -14 -164q0 -126 88 -206q49 -45 103 -59.5t126 -14.5q34 0 59.5 2.5t63 11t72 29.5t63.5 53q36 40 59.5 106t29.5 103.5t14 103.5l102 838h152l-109 -879q-16 -135 -47.5 -224t-111.5 -165q-55 -52 -124 -81t-120.5 -35.5t-118.5 -6.5
q-214 0 -334 115q-119 115 -119 283q0 68 15 207l98 786h152zM1036 1806l133 -92l-344 -239l-80 65z" />
    <glyph glyph-name="Ucircumflex" unicode="&#xdb;" horiz-adv-x="1323" 
d="M496 1366l-99 -803q-14 -107 -14 -164q0 -126 88 -206q49 -45 103 -59.5t126 -14.5q34 0 59.5 2.5t63 11t72 29.5t63.5 53q36 40 59.5 106t29.5 103.5t14 103.5l102 838h152l-109 -879q-16 -135 -47.5 -224t-111.5 -165q-55 -52 -124 -81t-120.5 -35.5t-118.5 -6.5
q-214 0 -334 115q-119 115 -119 283q0 68 15 207l98 786h152zM870 1632l-198 -155l-105 84l316 243l258 -243l-109 -84z" />
    <glyph glyph-name="Udieresis" unicode="&#xdc;" horiz-adv-x="1323" 
d="M496 1366l-99 -803q-14 -107 -14 -164q0 -126 88 -206q49 -45 103 -59.5t126 -14.5q34 0 59.5 2.5t63 11t72 29.5t63.5 53q36 40 59.5 106t29.5 103.5t14 103.5l102 838h152l-109 -879q-16 -135 -47.5 -224t-111.5 -165q-55 -52 -124 -81t-120.5 -35.5t-118.5 -6.5
q-214 0 -334 115q-119 115 -119 283q0 68 15 207l98 786h152zM948 1593q0 45 31 78q36 39 86 39q38 0 65 -24q27 -27 27 -64q0 -48 -33 -86q-35 -35 -82 -35q-42 0 -69 27q-25 25 -25 65zM559 1593q0 45 31 78q36 39 86 39q38 0 65 -24q27 -27 27 -64q0 -48 -33 -86
q-35 -35 -82 -35q-42 0 -69 27q-25 25 -25 65z" />
    <glyph glyph-name="Yacute" unicode="&#xdd;" horiz-adv-x="1085" 
d="M465 0l72 588l-353 778h172l273 -610l428 610h180l-549 -778l-72 -588h-151zM932 1806l133 -92l-344 -239l-80 65z" />
    <glyph glyph-name="Thorn" unicode="&#xde;" horiz-adv-x="935" 
d="M344 1366h152l-25 -205h94q223 0 330 -104q94 -91 94 -258q0 -94 -31 -169t-79 -122q-123 -119 -387 -119h-117l-47 -389h-152zM453 1018l-60 -486h129q165 0 246 74q74 67 74 189q0 117 -76 174q-63 49 -201 49h-112z" />
    <glyph glyph-name="germandbls" unicode="&#xdf;" horiz-adv-x="1083" 
d="M293 0h-148l88 715h-135l17 135h135l35 283q22 180 116 278q103 107 271 107q144 0 241 -93q91 -89 91 -237q0 -114 -56 -195q-51 -74 -137 -106q83 -34 162 -113q82 -96 82 -248q0 -234 -156 -385q-162 -157 -426 -166l16 144q83 5 161.5 35t131.5 79q54 49 85.5 120.5
t31.5 154.5q0 132 -84 213q-43 41 -108 64.5t-129 25.5l16 131q52 0 105.5 18t88.5 52q66 61 66 176q0 96 -51 147t-137 51q-88 0 -146 -55q-34 -33 -56 -86.5t-28 -89t-12 -88.5z" />
    <glyph glyph-name="agrave" unicode="&#xe0;" horiz-adv-x="1081" 
d="M885 729l14 121h148l-105 -850h-147l14 119q-49 -67 -107 -101q-75 -43 -176 -43q-176 0 -276 105q-111 120 -111 303q0 123 41 219t107 158q116 110 305 110q104 0 180 -41q72 -38 113 -100zM604 739q-121 0 -205 -80q-48 -45 -78 -117t-30 -149q0 -64 23 -124t65 -99
q67 -64 172 -64q133 0 211 84q45 46 70.5 121.5t25.5 155.5q0 131 -80 205q-71 67 -174 67zM635 1018l-242 276l160 70l178 -297z" />
    <glyph glyph-name="aacute" unicode="&#xe1;" horiz-adv-x="1081" 
d="M885 729l14 121h148l-105 -850h-147l14 119q-49 -67 -107 -101q-75 -43 -176 -43q-176 0 -276 105q-111 120 -111 303q0 123 41 219t107 158q116 110 305 110q104 0 180 -41q72 -38 113 -100zM604 739q-121 0 -205 -80q-48 -45 -78 -117t-30 -149q0 -64 23 -124t65 -99
q67 -64 172 -64q133 0 211 84q45 46 70.5 121.5t25.5 155.5q0 131 -80 205q-71 67 -174 67zM807 1364l143 -70l-309 -276l-86 49z" />
    <glyph glyph-name="acircumflex" unicode="&#xe2;" horiz-adv-x="1081" 
d="M885 729l14 121h148l-105 -850h-147l14 119q-49 -67 -107 -101q-75 -43 -176 -43q-176 0 -276 105q-111 120 -111 303q0 123 41 219t107 158q116 110 305 110q104 0 180 -41q72 -38 113 -100zM604 739q-121 0 -205 -80q-48 -45 -78 -117t-30 -149q0 -64 23 -124t65 -99
q67 -64 172 -64q133 0 211 84q45 46 70.5 121.5t25.5 155.5q0 131 -80 205q-71 67 -174 67zM678 1184l-209 -166l-94 74l313 247l252 -247l-94 -74z" />
    <glyph glyph-name="atilde" unicode="&#xe3;" horiz-adv-x="1081" 
d="M885 729l14 121h148l-105 -850h-147l14 119q-49 -67 -107 -101q-75 -43 -176 -43q-176 0 -276 105q-111 120 -111 303q0 123 41 219t107 158q116 110 305 110q104 0 180 -41q72 -38 113 -100zM604 739q-121 0 -205 -80q-48 -45 -78 -117t-30 -149q0 -64 23 -124t65 -99
q67 -64 172 -64q133 0 211 84q45 46 70.5 121.5t25.5 155.5q0 131 -80 205q-71 67 -174 67zM408 1018l-78 69q32 49 82 93q59 49 127 49q10 0 19 -0.5t18 -2.5t15.5 -3.5t16 -5t14 -5t14 -6t12 -6t13 -6.5t11.5 -6l35 -19q44 -22 75 -22q41 0 72 31q20 23 41 57l76 -70
q-34 -62 -74 -96q-50 -45 -125 -45q-48 0 -113 29l-45 22q-5 2 -22 10t-24 11t-20 6.5t-24 3.5q-36 0 -69 -33q-36 -33 -47 -55z" />
    <glyph glyph-name="adieresis" unicode="&#xe4;" horiz-adv-x="1081" 
d="M885 729l14 121h148l-105 -850h-147l14 119q-49 -67 -107 -101q-75 -43 -176 -43q-176 0 -276 105q-111 120 -111 303q0 123 41 219t107 158q116 110 305 110q104 0 180 -41q72 -38 113 -100zM604 739q-121 0 -205 -80q-48 -45 -78 -117t-30 -149q0 -64 23 -124t65 -99
q67 -64 172 -64q133 0 211 84q45 46 70.5 121.5t25.5 155.5q0 131 -80 205q-71 67 -174 67zM760 1112q0 47 35 82t82 35q37 0 63.5 -25.5t26.5 -64.5q0 -45 -37 -82q-33 -33 -78 -33q-37 0 -64.5 25t-27.5 63zM403 1112q0 47 35 82t82 35q37 0 63.5 -25.5t26.5 -64.5
q0 -45 -37 -82q-33 -33 -77 -33q-37 0 -65 25t-28 63z" />
    <glyph glyph-name="aring" unicode="&#xe5;" horiz-adv-x="1081" 
d="M885 729l14 121h148l-105 -850h-147l14 119q-49 -67 -107 -101q-75 -43 -176 -43q-176 0 -276 105q-111 120 -111 303q0 123 41 219t107 158q116 110 305 110q104 0 180 -41q72 -38 113 -100zM604 739q-121 0 -205 -80q-48 -45 -78 -117t-30 -149q0 -64 23 -124t65 -99
q67 -64 172 -64q133 0 211 84q45 46 70.5 121.5t25.5 155.5q0 131 -80 205q-71 67 -174 67zM481 1178q0 90 56 143q49 49 129 49t125 -45t45 -123q0 -81 -52 -133q-54 -51 -137 -51q-78 0 -121 43q-45 45 -45 117zM573 1186q0 -32 21 -53q21 -25 61 -25q39 0 64 25
q26 26 26 69q0 40 -22 58q-20 20 -59 20t-64 -25q-27 -27 -27 -69z" />
    <glyph glyph-name="ae" unicode="&#xe6;" horiz-adv-x="1589" 
d="M850 713q52 68 135 112q88 45 199 45q174 0 270 -100q125 -129 96 -373h-669v-16q0 -132 75 -211q64 -64 168 -64t172 48q64 46 111 131l125 -68q-30 -51 -73 -99t-85 -77q-94 -66 -246 -66q-127 0 -210 50q-68 41 -119 120q-54 -85 -133 -127q-79 -43 -213 -43
q-154 0 -238 60q-98 66 -98 194q0 73 32.5 134.5t86.5 99.5q100 69 260 69q143 0 247 -71q16 167 -53 229q-53 49 -172 49t-252 -53l17 139q128 45 262 45q125 0 203 -45q74 -41 102 -112zM492 401q-108 0 -170 -47q-56 -40 -56 -108q0 -66 56 -105q52 -35 153 -35
q86 0 156 35q78 44 78 127q0 64 -62 101q-51 32 -155 32zM907 520h506q-3 100 -72 166q-58 53 -159 53q-122 0 -193 -71q-61 -61 -82 -148z" />
    <glyph glyph-name="ccedilla" unicode="&#xe7;" horiz-adv-x="901" 
d="M905 788l-20 -176q-54 61 -107 90q-66 37 -153 37q-134 0 -228 -88q-108 -104 -108 -258q0 -131 82 -213q74 -74 196 -74q88 0 158 37q64 34 119 97l-21 -177q-63 -47 -123 -65q-70 -23 -151 -23q-189 0 -299 113q-113 116 -113 297q0 98 39 193t109 163q52 52 138 90.5
t206 38.5q155 0 276 -82zM492 -106l126 -56l-237 -262l-94 49z" />
    <glyph glyph-name="egrave" unicode="&#xe8;" horiz-adv-x="989" 
d="M809 285l125 -68q-30 -51 -73 -99t-85 -77q-101 -66 -246 -66q-85 0 -153.5 23t-126.5 84q-113 117 -113 305q0 107 38.5 201.5t107.5 163.5q118 118 297 118q176 0 276 -100q125 -129 96 -375h-661q-2 -147 76 -225q64 -64 168 -64q95 0 163 48q64 46 111 131zM315 518
h496q-2 46 -21 92t-51 76q-55 53 -155 53q-116 0 -187 -71q-61 -61 -82 -150zM635 1018l-242 276l160 70l178 -297z" />
    <glyph glyph-name="eacute" unicode="&#xe9;" horiz-adv-x="989" 
d="M809 285l125 -68q-30 -51 -73 -99t-85 -77q-101 -66 -246 -66q-85 0 -153.5 23t-126.5 84q-113 117 -113 305q0 107 38.5 201.5t107.5 163.5q118 118 297 118q176 0 276 -100q125 -129 96 -375h-661q-2 -147 76 -225q64 -64 168 -64q95 0 163 48q64 46 111 131zM315 518
h496q-2 46 -21 92t-51 76q-55 53 -155 53q-116 0 -187 -71q-61 -61 -82 -150zM766 1364l143 -70l-309 -276l-86 49z" />
    <glyph glyph-name="ecircumflex" unicode="&#xea;" horiz-adv-x="989" 
d="M809 285l125 -68q-30 -51 -73 -99t-85 -77q-101 -66 -246 -66q-85 0 -153.5 23t-126.5 84q-113 117 -113 305q0 107 38.5 201.5t107.5 163.5q118 118 297 118q176 0 276 -100q125 -129 96 -375h-661q-2 -147 76 -225q64 -64 168 -64q95 0 163 48q64 46 111 131zM315 518
h496q-2 46 -21 92t-51 76q-55 53 -155 53q-116 0 -187 -71q-61 -61 -82 -150zM625 1184l-209 -166l-94 74l313 247l252 -247l-94 -74z" />
    <glyph glyph-name="edieresis" unicode="&#xeb;" horiz-adv-x="989" 
d="M809 285l125 -68q-30 -51 -73 -99t-85 -77q-101 -66 -246 -66q-85 0 -153.5 23t-126.5 84q-113 117 -113 305q0 107 38.5 201.5t107.5 163.5q118 118 297 118q176 0 276 -100q125 -129 96 -375h-661q-2 -147 76 -225q64 -64 168 -64q95 0 163 48q64 46 111 131zM315 518
h496q-2 46 -21 92t-51 76q-55 53 -155 53q-116 0 -187 -71q-61 -61 -82 -150zM682 1112q0 47 35 82t82 35q37 0 63.5 -25.5t26.5 -64.5q0 -45 -37 -82q-33 -33 -78 -33q-37 0 -64.5 25t-27.5 63zM326 1112q0 48 34 82q35 35 82 35q37 0 63.5 -25.5t26.5 -64.5q0 -46 -36 -82
q-33 -33 -78 -33q-37 0 -64.5 25t-27.5 63z" />
    <glyph glyph-name="igrave" unicode="&#xec;" horiz-adv-x="425" 
d="M244 850h147l-104 -850h-148zM348 1010l-215 301l164 55l147 -313z" />
    <glyph glyph-name="iacute" unicode="&#xed;" horiz-adv-x="425" 
d="M244 850h147l-104 -850h-148zM465 1366l151 -55l-288 -301l-92 43z" />
    <glyph glyph-name="icircumflex" unicode="&#xee;" horiz-adv-x="425" 
d="M244 850h147l-104 -850h-148zM356 1171l-170 -137l-80 72l269 217l215 -217l-96 -72z" />
    <glyph glyph-name="idieresis" unicode="&#xef;" horiz-adv-x="425" 
d="M244 850h147l-104 -850h-148zM418 1112q0 47 35 82t82 35q37 0 63.5 -25.5t26.5 -64.5q0 -45 -37 -82q-33 -33 -78 -33q-37 0 -64.5 25t-27.5 63zM61 1112q0 47 35 82t82 35q37 0 63.5 -25.5t26.5 -64.5q0 -45 -37 -82q-33 -33 -77 -33q-37 0 -65 25t-28 63z" />
    <glyph glyph-name="eth" unicode="&#xf0;" horiz-adv-x="1062" 
d="M330 1253l51 125q237 -18 414 -145l262 80l35 -105l-201 -63q71 -71 117 -174q36 -82 46.5 -149t10.5 -154q0 -198 -38 -334t-136 -230q-134 -129 -348 -129q-174 0 -283 109q-57 57 -89 136.5t-32 168.5q0 99 37 196t100 165q55 61 144.5 103t210.5 42q159 0 274 -98
q-22 170 -170 299l-391 -123l-29 110l299 93q-130 70 -284 77zM899 494q0 120 -76 196q-74 74 -192 74q-137 0 -230 -88q-48 -46 -77 -121.5t-29 -165.5q0 -133 76 -209q74 -74 188 -74q141 0 234 93q106 106 106 295z" />
    <glyph glyph-name="ntilde" unicode="&#xf1;" horiz-adv-x="960" 
d="M139 0l105 850h147l-12 -98q3 5 13.5 16.5t31.5 30.5t41 32q63 39 158 39q129 0 202 -73q68 -68 68 -191q0 -39 -12 -141l-58 -465h-147l51 424q12 105 12 145q0 84 -43 127t-118 43q-96 0 -152 -59q-61 -63 -84 -236l-55 -444h-148zM367 1018l-78 69q32 49 82 93
q59 49 127 49q10 0 19 -0.5t18 -2.5t15.5 -3.5t16 -5t14 -5t14 -6t12 -6t13 -6.5t11.5 -6l35 -19q44 -22 75 -22q41 0 72 31q20 23 41 57l76 -70q-34 -62 -74 -96q-50 -45 -125 -45q-48 0 -113 29l-45 22q-5 2 -22 10t-24 11t-20 6.5t-24 3.5q-36 0 -69 -33q-36 -33 -47 -55
z" />
    <glyph glyph-name="ograve" unicode="&#xf2;" horiz-adv-x="1081" 
d="M549 -25q-191 0 -303 117q-109 116 -109 297q0 212 154 354q139 127 340 127q195 0 311 -116q105 -105 105 -279q0 -229 -144 -369q-135 -131 -354 -131zM629 739q-136 0 -232 -94q-108 -105 -108 -266q0 -116 73 -193q75 -80 197 -80q140 0 232 99q47 51 74.5 123
t27.5 145q0 115 -70 189q-74 77 -194 77zM659 1018l-241 276l160 70l178 -297z" />
    <glyph glyph-name="oacute" unicode="&#xf3;" horiz-adv-x="1081" 
d="M549 -25q-191 0 -303 117q-109 116 -109 297q0 212 154 354q139 127 340 127q195 0 311 -116q105 -105 105 -279q0 -229 -144 -369q-135 -131 -354 -131zM629 739q-136 0 -232 -94q-108 -105 -108 -266q0 -116 73 -193q75 -80 197 -80q140 0 232 99q47 51 74.5 123
t27.5 145q0 115 -70 189q-74 77 -194 77zM831 1364l144 -70l-309 -276l-86 49z" />
    <glyph glyph-name="ocircumflex" unicode="&#xf4;" horiz-adv-x="1081" 
d="M549 -25q-191 0 -303 117q-109 116 -109 297q0 212 154 354q139 127 340 127q195 0 311 -116q105 -105 105 -279q0 -229 -144 -369q-135 -131 -354 -131zM629 739q-136 0 -232 -94q-108 -105 -108 -266q0 -116 73 -193q75 -80 197 -80q140 0 232 99q47 51 74.5 123
t27.5 145q0 115 -70 189q-74 77 -194 77zM678 1184l-209 -166l-94 74l313 247l252 -247l-94 -74z" />
    <glyph glyph-name="otilde" unicode="&#xf5;" horiz-adv-x="1081" 
d="M549 -25q-191 0 -303 117q-109 116 -109 297q0 212 154 354q139 127 340 127q195 0 311 -116q105 -105 105 -279q0 -229 -144 -369q-135 -131 -354 -131zM629 739q-136 0 -232 -94q-108 -105 -108 -266q0 -116 73 -193q75 -80 197 -80q140 0 232 99q47 51 74.5 123
t27.5 145q0 115 -70 189q-74 77 -194 77zM432 1018l-78 69q32 49 82 93q59 49 127 49q10 0 19 -0.5t18 -2.5t15.5 -3.5t16 -5t14 -5t14 -6t12 -6t13 -6.5t11.5 -6l35 -19q44 -22 76 -22q41 0 72 31q20 23 41 57l75 -70q-34 -63 -73 -96q-50 -45 -125 -45q-48 0 -113 29
l-45 22q-5 2 -22 10t-24 11t-20 6.5t-24 3.5q-37 0 -70 -33q-36 -33 -47 -55z" />
    <glyph glyph-name="odieresis" unicode="&#xf6;" horiz-adv-x="1081" 
d="M549 -25q-191 0 -303 117q-109 116 -109 297q0 212 154 354q139 127 340 127q195 0 311 -116q105 -105 105 -279q0 -229 -144 -369q-135 -131 -354 -131zM629 739q-136 0 -232 -94q-108 -105 -108 -266q0 -116 73 -193q75 -80 197 -80q140 0 232 99q47 51 74.5 123
t27.5 145q0 115 -70 189q-74 77 -194 77zM750 1112q0 48 34 82q35 35 82 35q37 0 63.5 -25.5t26.5 -64.5q0 -46 -36 -82q-33 -33 -78 -33q-37 0 -64.5 25t-27.5 63zM393 1112q0 47 35 82t82 35q37 0 63.5 -25.5t26.5 -64.5q0 -45 -37 -82q-33 -33 -78 -33q-37 0 -64.5 25
t-27.5 63z" />
    <glyph glyph-name="divide" unicode="&#xf7;" 
d="M496 1055q0 41 29.5 70.5t70.5 29.5t70.5 -29.5t29.5 -70.5t-29.5 -71t-70.5 -30t-70.5 30t-29.5 71zM496 309q0 41 29.5 71t70.5 30t70.5 -30t29.5 -71t-29.5 -70.5t-70.5 -29.5t-70.5 29.5t-29.5 70.5zM152 614v136h888v-136h-888z" />
    <glyph glyph-name="oslash" unicode="&#xf8;" horiz-adv-x="1073" 
d="M1118 819l-139 -125q57 -100 57 -223q0 -226 -143 -365q-135 -131 -356 -131q-82 0 -144.5 18.5t-124.5 67.5l-139 -122l-82 92l141 125q-61 105 -61 233q0 212 154 354q139 127 340 127q158 0 276 -86l143 127zM307 254l484 430q-75 55 -173 55q-141 0 -235 -94
q-49 -49 -76.5 -120.5t-27.5 -147.5q0 -65 28 -123zM860 590l-479 -428q72 -56 168 -56q139 0 231 99q103 111 103 278q0 57 -23 107z" />
    <glyph glyph-name="ugrave" unicode="&#xf9;" horiz-adv-x="952" 
d="M389 850l-55 -449q-8 -78 -8 -110q0 -48 10 -81t41 -60q50 -44 127 -44q81 0 137 52q33 33 47 82.5t25 138.5l57 471h148l-60 -488q-9 -74 -16.5 -114t-29.5 -94.5t-58 -90.5q-88 -88 -246 -88q-160 0 -248 78q-84 73 -84 215q0 35 12 146l54 436h147zM614 1018l-241 276
l159 70l179 -297z" />
    <glyph glyph-name="uacute" unicode="&#xfa;" horiz-adv-x="952" 
d="M389 850l-55 -449q-8 -78 -8 -110q0 -48 10 -81t41 -60q50 -44 127 -44q81 0 137 52q33 33 47 82.5t25 138.5l57 471h148l-60 -488q-9 -74 -16.5 -114t-29.5 -94.5t-58 -90.5q-88 -88 -246 -88q-160 0 -248 78q-84 73 -84 215q0 35 12 146l54 436h147zM754 1364l143 -70
l-309 -276l-86 49z" />
    <glyph glyph-name="ucircumflex" unicode="&#xfb;" horiz-adv-x="952" 
d="M389 850l-55 -449q-8 -78 -8 -110q0 -48 10 -81t41 -60q50 -44 127 -44q81 0 137 52q33 33 47 82.5t25 138.5l57 471h148l-60 -488q-9 -74 -16.5 -114t-29.5 -94.5t-58 -90.5q-88 -88 -246 -88q-160 0 -248 78q-84 73 -84 215q0 35 12 146l54 436h147zM631 1184
l-209 -166l-94 74l313 247l252 -247l-94 -74z" />
    <glyph glyph-name="udieresis" unicode="&#xfc;" horiz-adv-x="952" 
d="M389 850l-55 -449q-8 -78 -8 -110q0 -48 10 -81t41 -60q50 -44 127 -44q81 0 137 52q33 33 47 82.5t25 138.5l57 471h148l-60 -488q-9 -74 -16.5 -114t-29.5 -94.5t-58 -90.5q-88 -88 -246 -88q-160 0 -248 78q-84 73 -84 215q0 35 12 146l54 436h147zM690 1112
q0 47 35 82t82 35q37 0 63.5 -25.5t26.5 -64.5q0 -45 -37 -82q-33 -33 -78 -33q-37 0 -64.5 25t-27.5 63zM334 1112q0 47 35 82t82 35q37 0 63.5 -25.5t26.5 -64.5q0 -45 -37 -82q-33 -33 -78 -33q-37 0 -64.5 25t-27.5 63z" />
    <glyph glyph-name="yacute" unicode="&#xfd;" horiz-adv-x="942" 
d="M80 -471l338 551l-297 770h164l225 -608l352 608h168l-786 -1321h-164zM766 1364l143 -70l-309 -276l-86 49z" />
    <glyph glyph-name="thorn" unicode="&#xfe;" horiz-adv-x="1081" 
d="M301 119l-74 -590h-147l242 1964h147l-92 -762q49 64 119 100q72 39 174 39q166 0 266 -98q111 -106 111 -293q0 -119 -40.5 -222t-109.5 -171q-65 -64 -139.5 -87.5t-165.5 -23.5q-118 0 -195 48q-57 36 -96 96zM588 106q115 0 192 72q56 52 85.5 130.5t29.5 160.5
q0 125 -74 199q-67 71 -188 71q-127 0 -211 -90q-94 -102 -94 -258q0 -124 69 -203q74 -82 191 -82z" />
    <glyph glyph-name="ydieresis" unicode="&#xff;" horiz-adv-x="942" 
d="M80 -471l338 551l-297 770h164l225 -608l352 608h168l-786 -1321h-164zM684 1112q0 47 35 82t82 35q37 0 63.5 -25.5t26.5 -64.5q0 -45 -37 -82q-33 -33 -78 -33q-37 0 -64.5 25t-27.5 63zM328 1112q0 48 34 82q35 35 82 35q38 0 64.5 -25.5t26.5 -64.5q0 -45 -37 -82
q-33 -33 -78 -33q-37 0 -64.5 25t-27.5 63z" />
    <glyph glyph-name="Amacron" unicode="&#x100;" horiz-adv-x="1273" 
d="M1094 0l-113 385h-582l-211 -385h-172l805 1432l436 -1432h-163zM477 528h463l-164 547zM492 1501l16 131h655l-16 -131h-655z" />
    <glyph glyph-name="amacron" unicode="&#x101;" horiz-adv-x="1081" 
d="M885 729l14 121h148l-105 -850h-147l14 119q-49 -67 -107 -101q-75 -43 -176 -43q-176 0 -276 105q-111 120 -111 303q0 123 41 219t107 158q116 110 305 110q104 0 180 -41q72 -38 113 -100zM604 739q-121 0 -205 -80q-48 -45 -78 -117t-30 -149q0 -64 23 -124t65 -99
q67 -64 172 -64q133 0 211 84q45 46 70.5 121.5t25.5 155.5q0 131 -80 205q-71 67 -174 67zM360 1051l15 123h618l-14 -123h-619z" />
    <glyph glyph-name="Abreve" unicode="&#x102;" horiz-adv-x="1273" 
d="M1094 0l-113 385h-582l-211 -385h-172l805 1432l436 -1432h-163zM477 528h463l-164 547zM1024 1722h139q-26 -113 -114 -178q-88 -67 -224 -67q-140 0 -219 79q-68 68 -78 166h131q14 -55 56 -84q40 -30 116 -30q75 0 121 28q47 26 72 86z" />
    <glyph glyph-name="abreve" unicode="&#x103;" horiz-adv-x="1081" 
d="M885 729l14 121h148l-105 -850h-147l14 119q-49 -67 -107 -101q-75 -43 -176 -43q-176 0 -276 105q-111 120 -111 303q0 123 41 219t107 158q116 110 305 110q104 0 180 -41q72 -38 113 -100zM604 739q-121 0 -205 -80q-48 -45 -78 -117t-30 -149q0 -64 23 -124t65 -99
q67 -64 172 -64q133 0 211 84q45 46 70.5 121.5t25.5 155.5q0 131 -80 205q-71 67 -174 67zM371 1264h121q11 -58 45 -88q39 -35 110 -35q78 0 125 37q44 35 64 86h129q-28 -97 -93 -162q-84 -84 -221 -84q-131 0 -200 65q-74 71 -80 181z" />
    <glyph glyph-name="Aogonek" unicode="&#x104;" horiz-adv-x="1273" 
d="M16 0l805 1432l436 -1432h-36q-55 -38 -97 -80q-59 -59 -59 -117q0 -36 29 -55q22 -14 55 -14q50 0 104 26l-32 -120q-60 -29 -117 -29q-80 0 -127 41q-49 45 -49 119q0 67 55 133q47 53 111 96l-113 385h-582l-211 -385h-172zM477 528h463l-164 547z" />
    <glyph glyph-name="aogonek" unicode="&#x105;" horiz-adv-x="1081" 
d="M885 729l14 121h148l-105 -850h-29q-66 -40 -106 -80q-59 -59 -59 -117q0 -29 16 -45q24 -24 78 -24q48 0 104 26l-31 -112q-55 -29 -122 -29q-78 0 -129 47q-43 43 -43 103q0 81 65 151q43 46 109 80l14 119q-49 -67 -107 -101q-75 -43 -176 -43q-176 0 -276 105
q-111 120 -111 303q0 123 41 219t107 158q116 110 305 110q104 0 180 -41q72 -38 113 -100zM604 739q-121 0 -205 -80q-48 -45 -78 -117t-30 -149q0 -64 23 -124t65 -99q67 -64 172 -64q133 0 211 84q45 46 70.5 121.5t25.5 155.5q0 131 -80 205q-71 67 -174 67z" />
    <glyph glyph-name="Cacute" unicode="&#x106;" horiz-adv-x="1331" 
d="M1382 1253l-22 -188q-72 80 -160 125q-107 55 -231 55q-131 0 -245.5 -46.5t-199.5 -131.5q-84 -86 -131 -200.5t-47 -237.5q0 -218 143 -369q135 -141 345 -141q149 0 260 57q94 49 172 121l-23 -188q-100 -70 -174 -97q-98 -37 -246 -37q-287 0 -465 181
q-172 175 -172 456q0 345 230 570q116 113 253 160t300 47q154 0 268 -48q69 -29 145 -88zM1147 1806l133 -92l-344 -239l-80 65z" />
    <glyph glyph-name="cacute" unicode="&#x107;" horiz-adv-x="901" 
d="M905 788l-20 -176q-54 61 -107 90q-66 37 -153 37q-134 0 -228 -88q-108 -104 -108 -258q0 -131 82 -213q74 -74 196 -74q88 0 158 37q64 34 119 97l-21 -177q-63 -47 -123 -65q-70 -23 -151 -23q-189 0 -299 113q-113 116 -113 297q0 98 39 193t109 163q52 52 138 90.5
t206 38.5q155 0 276 -82zM784 1364l144 -70l-310 -276l-86 49z" />
    <glyph glyph-name="Ccircumflex" unicode="&#x108;" horiz-adv-x="1331" 
d="M1382 1253l-22 -188q-72 80 -160 125q-107 55 -231 55q-131 0 -245.5 -46.5t-199.5 -131.5q-84 -86 -131 -200.5t-47 -237.5q0 -218 143 -369q135 -141 345 -141q149 0 260 57q94 49 172 121l-23 -188q-100 -70 -174 -97q-98 -37 -246 -37q-287 0 -465 181
q-172 175 -172 456q0 345 230 570q116 113 253 160t300 47q154 0 268 -48q69 -29 145 -88zM1008 1632l-199 -155l-104 84l315 243l258 -243l-109 -84z" />
    <glyph glyph-name="ccircumflex" unicode="&#x109;" horiz-adv-x="901" 
d="M905 788l-20 -176q-54 61 -107 90q-66 37 -153 37q-134 0 -228 -88q-108 -104 -108 -258q0 -131 82 -213q74 -74 196 -74q88 0 158 37q64 34 119 97l-21 -177q-63 -47 -123 -65q-70 -23 -151 -23q-189 0 -299 113q-113 116 -113 297q0 98 39 193t109 163q52 52 138 90.5
t206 38.5q155 0 276 -82zM666 1184l-209 -166l-95 74l314 247l252 -247l-94 -74z" />
    <glyph glyph-name="Cdotaccent" unicode="&#x10a;" horiz-adv-x="1331" 
d="M1382 1253l-22 -188q-72 80 -160 125q-107 55 -231 55q-131 0 -245.5 -46.5t-199.5 -131.5q-84 -86 -131 -200.5t-47 -237.5q0 -218 143 -369q135 -141 345 -141q149 0 260 57q94 49 172 121l-23 -188q-100 -70 -174 -97q-98 -37 -246 -37q-287 0 -465 181
q-172 175 -172 456q0 345 230 570q116 113 253 160t300 47q154 0 268 -48q69 -29 145 -88zM920 1589q0 61 41 97q35 32 83 32q44 0 76 -28q27 -23 27 -72q0 -52 -33 -88q-34 -37 -88 -37q-53 0 -80 27q-26 26 -26 69z" />
    <glyph glyph-name="cdotaccent" unicode="&#x10b;" horiz-adv-x="901" 
d="M905 788l-20 -176q-54 61 -107 90q-66 37 -153 37q-134 0 -228 -88q-108 -104 -108 -258q0 -131 82 -213q74 -74 196 -74q88 0 158 37q64 34 119 97l-21 -177q-63 -47 -123 -65q-70 -23 -151 -23q-189 0 -299 113q-113 116 -113 297q0 98 39 193t109 163q52 52 138 90.5
t206 38.5q155 0 276 -82zM571 1118q0 53 35 88t86 35q43 0 70 -27q26 -26 26 -71q0 -52 -34 -86q-33 -33 -82 -33t-76 27q-25 33 -25 67z" />
    <glyph glyph-name="Ccaron" unicode="&#x10c;" horiz-adv-x="1331" 
d="M1382 1253l-22 -188q-72 80 -160 125q-107 55 -231 55q-131 0 -245.5 -46.5t-199.5 -131.5q-84 -86 -131 -200.5t-47 -237.5q0 -218 143 -369q135 -141 345 -141q149 0 260 57q94 49 172 121l-23 -188q-100 -70 -174 -97q-98 -37 -246 -37q-287 0 -465 181
q-172 175 -172 456q0 345 230 570q116 113 253 160t300 47q154 0 268 -48q69 -29 145 -88zM993 1649l199 155l104 -84l-315 -243l-258 243l108 84z" />
    <glyph glyph-name="ccaron" unicode="&#x10d;" horiz-adv-x="901" 
d="M905 788l-20 -176q-54 61 -107 90q-66 37 -153 37q-134 0 -228 -88q-108 -104 -108 -258q0 -131 82 -213q74 -74 196 -74q88 0 158 37q64 34 119 97l-21 -177q-63 -47 -123 -65q-70 -23 -151 -23q-189 0 -299 113q-113 116 -113 297q0 98 39 193t109 163q52 52 138 90.5
t206 38.5q155 0 276 -82zM647 1174l209 165l94 -73l-313 -248l-252 248l94 73z" />
    <glyph glyph-name="Dcaron" unicode="&#x10e;" horiz-adv-x="1302" 
d="M176 0l168 1366h248q346 0 526 -170q166 -162 166 -442q0 -144 -44.5 -288t-154.5 -257q-118 -120 -273 -164.5t-372 -44.5h-264zM477 1223l-131 -1080h100q178 0 305 36.5t216 125.5q157 157 157 436q0 215 -123 340q-138 142 -391 142h-133zM748 1649l198 155l105 -84
l-316 -243l-258 243l109 84z" />
    <glyph glyph-name="dcaron" unicode="&#x10f;" horiz-adv-x="1228" 
d="M885 729l94 764h147l-184 -1493h-147l14 119q-46 -68 -119 -107q-70 -37 -166 -37q-158 0 -260 97q-54 52 -89.5 131.5t-35.5 181.5q0 104 40 203.5t108 165.5q55 54 134 85t169 31q104 0 184 -41q65 -33 111 -100zM596 739q-119 0 -199 -75q-46 -43 -76 -112t-30 -153
q0 -133 80 -217q71 -76 188 -76q125 0 201 74q49 49 73.5 124t24.5 145q0 133 -78 217q-68 73 -184 73zM1147 1090l156 323l131 -61l-193 -308z" />
    <glyph glyph-name="Dcroat" unicode="&#x110;" horiz-adv-x="1298" 
d="M172 0l86 688h-176l16 131h176l66 547h248q346 0 526 -170q166 -162 166 -442q0 -144 -44.5 -288t-154.5 -257q-118 -120 -273 -164.5t-372 -44.5h-264zM473 1223l-49 -404h278l-16 -131h-278l-66 -545h100q178 0 305 36.5t216 125.5q157 157 157 436q0 215 -123 340
q-138 142 -391 142h-133z" />
    <glyph glyph-name="dcroat" unicode="&#x111;" horiz-adv-x="1081" 
d="M795 0l14 119q-46 -68 -119 -107q-70 -37 -166 -37q-158 0 -260 97q-54 52 -89.5 131.5t-35.5 181.5q0 104 40 203.5t108 165.5q55 54 134 85t169 31q104 0 184 -41q65 -33 111 -100l49 406h-410l15 122h409l31 236h147l-30 -236h200l-14 -122h-201l-139 -1135h-147z
M596 739q-119 0 -199 -75q-46 -43 -76 -112t-30 -153q0 -133 80 -217q71 -76 188 -76q125 0 201 74q49 49 73.5 124t24.5 145q0 133 -78 217q-68 73 -184 73z" />
    <glyph glyph-name="Emacron" unicode="&#x112;" horiz-adv-x="987" 
d="M1053 1366l-19 -143h-557l-49 -406h541l-19 -143h-540l-64 -531h557l-18 -143h-709l168 1366h709zM389 1501l17 131h655l-17 -131h-655z" />
    <glyph glyph-name="emacron" unicode="&#x113;" horiz-adv-x="989" 
d="M809 285l125 -68q-30 -51 -73 -99t-85 -77q-101 -66 -246 -66q-85 0 -153.5 23t-126.5 84q-113 117 -113 305q0 107 38.5 201.5t107.5 163.5q118 118 297 118q176 0 276 -100q125 -129 96 -375h-661q-2 -147 76 -225q64 -64 168 -64q95 0 163 48q64 46 111 131zM315 518
h496q-2 46 -21 92t-51 76q-55 53 -155 53q-116 0 -187 -71q-61 -61 -82 -150zM289 1051l14 123h619l-15 -123h-618z" />
    <glyph glyph-name="Edotaccent" unicode="&#x116;" horiz-adv-x="987" 
d="M1053 1366l-19 -143h-557l-49 -406h541l-19 -143h-540l-64 -531h557l-18 -143h-709l168 1366h709zM614 1589q0 61 41 97q35 32 84 32q45 0 76 -28q27 -23 27 -72q0 -52 -33 -88q-34 -37 -88 -37q-53 0 -80 27t-27 69z" />
    <glyph glyph-name="edotaccent" unicode="&#x117;" horiz-adv-x="989" 
d="M809 285l125 -68q-30 -51 -73 -99t-85 -77q-101 -66 -246 -66q-85 0 -153.5 23t-126.5 84q-113 117 -113 305q0 107 38.5 201.5t107.5 163.5q118 118 297 118q176 0 276 -100q125 -129 96 -375h-661q-2 -147 76 -225q64 -64 168 -64q95 0 163 48q64 46 111 131zM315 518
h496q-2 46 -21 92t-51 76q-55 53 -155 53q-116 0 -187 -71q-61 -61 -82 -150zM500 1118q0 53 35 88t86 35q42 0 69 -27t27 -71q0 -51 -35 -86q-33 -33 -82 -33t-76 27q-24 32 -24 67z" />
    <glyph glyph-name="Eogonek" unicode="&#x118;" horiz-adv-x="987" 
d="M1053 1366l-19 -143h-557l-49 -406h541l-19 -143h-540l-64 -531h557l-18 -143h-82q-52 -36 -96 -80q-60 -60 -60 -117q0 -36 29 -55q22 -14 55 -14q51 0 105 26l-33 -120q-60 -29 -117 -29q-80 0 -127 41q-49 45 -49 119q0 67 55 133q47 53 111 96h-500l168 1366h709z
" />
    <glyph glyph-name="eogonek" unicode="&#x119;" horiz-adv-x="989" 
d="M809 285l125 -68q-33 -66 -88 -119q-55 -52 -117 -90q-7 -5 -25.5 -17t-30 -20t-28.5 -22t-31 -29q-59 -62 -59 -117q0 -29 16 -45q24 -24 78 -24q49 0 105 26l-31 -112q-55 -29 -123 -29q-78 0 -129 47q-43 40 -43 105q0 64 43 120q32 43 80 84q-101 0 -172 23t-129 84
q-113 117 -113 305q0 107 38.5 201.5t107.5 163.5q118 118 297 118q176 0 276 -100q100 -104 100 -291q0 -55 -4 -84h-661q0 -149 76 -225q64 -64 168 -64q95 0 163 48q64 46 111 131zM315 518h496q-2 46 -21 92t-51 76q-55 53 -155 53q-116 0 -187 -71q-61 -61 -82 -150z
" />
    <glyph glyph-name="Ecaron" unicode="&#x11a;" horiz-adv-x="987" 
d="M1053 1366l-19 -143h-557l-49 -406h541l-19 -143h-540l-64 -531h557l-18 -143h-709l168 1366h709zM727 1649l199 155l104 -84l-315 -243l-258 243l108 84z" />
    <glyph glyph-name="ecaron" unicode="&#x11b;" horiz-adv-x="989" 
d="M809 285l125 -68q-30 -51 -73 -99t-85 -77q-101 -66 -246 -66q-85 0 -153.5 23t-126.5 84q-113 117 -113 305q0 107 38.5 201.5t107.5 163.5q118 118 297 118q176 0 276 -100q125 -129 96 -375h-661q-2 -147 76 -225q64 -64 168 -64q95 0 163 48q64 46 111 131zM315 518
h496q-2 46 -21 92t-51 76q-55 53 -155 53q-116 0 -187 -71q-61 -61 -82 -150zM604 1174l209 165l94 -73l-313 -248l-252 248l94 73z" />
    <glyph glyph-name="Gcircumflex" unicode="&#x11c;" horiz-adv-x="1556" 
d="M952 543l17 143h569l-4 -33q-38 -300 -201 -475q-188 -203 -499 -203q-286 0 -467 181t-181 456q0 172 62 313.5t164 243.5q117 119 256 169.5t307 50.5q209 0 358 -95q122 -75 195 -202l-125 -103q-57 113 -166 182q-116 74 -264 74q-152 0 -264 -49.5t-185 -120.5
q-90 -90 -136 -213.5t-46 -245.5q0 -102 37.5 -196t103.5 -162q134 -139 365 -139q230 0 364 139q110 110 146 285h-406zM1008 1632l-199 -155l-104 84l315 243l258 -243l-109 -84z" />
    <glyph glyph-name="gcircumflex" unicode="&#x11d;" horiz-adv-x="1077" 
d="M881 729l14 121h147l-100 -830q-8 -65 -14 -102t-20 -90.5t-38.5 -96.5t-60.5 -79q-119 -123 -332 -123q-187 0 -287 100q-96 98 -96 277v12h146v-8q0 -128 67 -191q64 -59 176 -59q139 0 215 76q27 26 45.5 58.5t28 72t13.5 64t8 65.5l12 123q-42 -67 -121 -107
q-76 -37 -164 -37q-177 0 -280 109q-107 109 -107 289q0 106 35.5 205.5t101.5 166.5q121 125 316 125q115 0 188 -41q65 -33 107 -100zM602 739q-122 0 -205 -77q-110 -104 -110 -279q0 -134 75 -209q68 -68 175 -68q126 0 208 74q52 48 80.5 127.5t28.5 155.5
q0 55 -19.5 111t-54.5 94q-67 71 -178 71zM666 1184l-209 -166l-95 74l314 247l252 -247l-94 -74z" />
    <glyph glyph-name="Gbreve" unicode="&#x11e;" horiz-adv-x="1556" 
d="M952 543l17 143h569l-4 -33q-38 -300 -201 -475q-188 -203 -499 -203q-286 0 -467 181t-181 456q0 172 62 313.5t164 243.5q117 119 256 169.5t307 50.5q209 0 358 -95q122 -75 195 -202l-125 -103q-57 113 -166 182q-116 74 -264 74q-152 0 -264 -49.5t-185 -120.5
q-90 -90 -136 -213.5t-46 -245.5q0 -102 37.5 -196t103.5 -162q134 -139 365 -139q230 0 364 139q110 110 146 285h-406zM1200 1722h139q-26 -113 -114 -178q-88 -67 -224 -67q-140 0 -219 79q-67 67 -77 166h131q14 -56 55 -84q40 -30 117 -30q74 0 120 28q47 26 72 86z
" />
    <glyph glyph-name="gbreve" unicode="&#x11f;" horiz-adv-x="1077" 
d="M881 729l14 121h147l-100 -830q-8 -65 -14 -102t-20 -90.5t-38.5 -96.5t-60.5 -79q-119 -123 -332 -123q-187 0 -287 100q-96 98 -96 277v12h146v-8q0 -128 67 -191q64 -59 176 -59q139 0 215 76q27 26 45.5 58.5t28 72t13.5 64t8 65.5l12 123q-42 -67 -121 -107
q-76 -37 -164 -37q-177 0 -280 109q-107 109 -107 289q0 106 35.5 205.5t101.5 166.5q121 125 316 125q115 0 188 -41q65 -33 107 -100zM602 739q-122 0 -205 -77q-110 -104 -110 -279q0 -134 75 -209q68 -68 175 -68q126 0 208 74q52 48 80.5 127.5t28.5 155.5
q0 55 -19.5 111t-54.5 94q-67 71 -178 71zM371 1264h121q11 -58 45 -88q39 -35 110 -35q78 0 125 37q44 35 64 86h129q-28 -97 -93 -162q-84 -84 -221 -84q-131 0 -200 65q-74 71 -80 181z" />
    <glyph glyph-name="Gdotaccent" unicode="&#x120;" horiz-adv-x="1556" 
d="M952 543l17 143h569l-4 -33q-38 -300 -201 -475q-188 -203 -499 -203q-286 0 -467 181t-181 456q0 172 62 313.5t164 243.5q117 119 256 169.5t307 50.5q209 0 358 -95q122 -75 195 -202l-125 -103q-57 113 -166 182q-116 74 -264 74q-152 0 -264 -49.5t-185 -120.5
q-90 -90 -136 -213.5t-46 -245.5q0 -102 37.5 -196t103.5 -162q134 -139 365 -139q230 0 364 139q110 110 146 285h-406zM885 1589q0 61 41 97q35 32 84 32q44 0 75 -28q27 -23 27 -72q0 -52 -33 -88q-34 -37 -88 -37q-53 0 -80 27q-26 26 -26 69z" />
    <glyph glyph-name="gdotaccent" unicode="&#x121;" horiz-adv-x="1077" 
d="M881 729l14 121h147l-100 -830q-8 -65 -14 -102t-20 -90.5t-38.5 -96.5t-60.5 -79q-119 -123 -332 -123q-187 0 -287 100q-96 98 -96 277v12h146v-8q0 -128 67 -191q64 -59 176 -59q139 0 215 76q27 26 45.5 58.5t28 72t13.5 64t8 65.5l12 123q-42 -67 -121 -107
q-76 -37 -164 -37q-177 0 -280 109q-107 109 -107 289q0 106 35.5 205.5t101.5 166.5q121 125 316 125q115 0 188 -41q65 -33 107 -100zM602 739q-122 0 -205 -77q-110 -104 -110 -279q0 -134 75 -209q68 -68 175 -68q126 0 208 74q52 48 80.5 127.5t28.5 155.5
q0 55 -19.5 111t-54.5 94q-67 71 -178 71zM539 1118q0 54 34 88q35 35 86 35q43 0 70 -27t27 -71q0 -51 -35 -86q-33 -33 -82 -33t-76 27q-24 32 -24 67z" />
    <glyph glyph-name="Gcommaaccent" unicode="&#x122;" horiz-adv-x="1556" 
d="M952 543l17 143h569l-4 -33q-38 -300 -201 -475q-188 -203 -499 -203q-286 0 -467 181t-181 456q0 172 62 313.5t164 243.5q117 119 256 169.5t307 50.5q209 0 358 -95q122 -75 195 -202l-125 -103q-57 113 -166 182q-116 74 -264 74q-152 0 -264 -49.5t-185 -120.5
q-90 -90 -136 -213.5t-46 -245.5q0 -102 37.5 -196t103.5 -162q134 -139 365 -139q230 0 364 139q110 110 146 285h-406zM616 -422l156 320l131 -62l-188 -307z" />
    <glyph glyph-name="gcommaaccent" unicode="&#x123;" horiz-adv-x="1077" 
d="M881 729l14 121h147l-100 -830q-8 -65 -14 -102t-20 -90.5t-38.5 -96.5t-60.5 -79q-119 -123 -332 -123q-187 0 -287 100q-96 98 -96 277v12h146v-8q0 -128 67 -191q64 -59 176 -59q139 0 215 76q27 26 45.5 58.5t28 72t13.5 64t8 65.5l12 123q-42 -67 -121 -107
q-76 -37 -164 -37q-177 0 -280 109q-107 109 -107 289q0 106 35.5 205.5t101.5 166.5q121 125 316 125q115 0 188 -41q65 -33 107 -100zM602 739q-122 0 -205 -77q-110 -104 -110 -279q0 -134 75 -209q68 -68 175 -68q126 0 208 74q52 48 80.5 127.5t28.5 155.5
q0 55 -19.5 111t-54.5 94q-67 71 -178 71zM807 1323l-156 -319l-131 61l189 307z" />
    <glyph glyph-name="Hcircumflex" unicode="&#x124;" horiz-adv-x="1355" 
d="M496 1366l-68 -555h700l68 555h152l-168 -1366h-152l82 668h-700l-82 -668h-152l168 1366h152zM887 1632l-199 -155l-104 84l315 243l258 -243l-108 -84z" />
    <glyph glyph-name="hcircumflex" unicode="&#x125;" horiz-adv-x="960" 
d="M139 0l185 1493h147l-92 -741q3 5 13.5 16.5t31.5 30.5t41 32q63 39 156 39q129 0 204 -73q68 -68 68 -191q0 -39 -12 -141l-58 -465h-147l51 424q12 105 12 145q0 84 -43 127t-118 43q-96 0 -152 -59q-61 -63 -84 -236l-55 -444h-148zM410 1675l-209 -166l-95 74
l314 248l252 -248l-94 -74z" />
    <glyph glyph-name="Hbar" unicode="&#x126;" horiz-adv-x="1357" 
d="M496 1366l-15 -109h701l14 109h152l-15 -109h123l-14 -127h-123l-139 -1130h-152l82 668h-700l-82 -668h-152l139 1130h-122l14 127h123l14 109h152zM1167 1130h-700l-39 -319h700z" />
    <glyph glyph-name="hbar" unicode="&#x127;" horiz-adv-x="960" 
d="M139 0l140 1135h-201l14 122h203l29 236h147l-29 -236h408l-14 -122h-410l-47 -383q3 5 13.5 16.5t31.5 30.5t41 32q63 39 156 39q129 0 204 -73q68 -68 68 -191q0 -39 -12 -141l-58 -465h-147l51 424q12 105 12 145q0 84 -43 127t-118 43q-96 0 -152 -59
q-61 -63 -84 -236l-55 -444h-148z" />
    <glyph glyph-name="Imacron" unicode="&#x12a;" horiz-adv-x="503" 
d="M344 1366h152l-168 -1366h-152zM184 1501l17 131h504l-17 -131h-504z" />
    <glyph glyph-name="imacron" unicode="&#x12b;" horiz-adv-x="425" 
d="M244 850h147l-104 -850h-148zM129 1051l14 123h426l-14 -123h-426z" />
    <glyph glyph-name="Iogonek" unicode="&#x12e;" horiz-adv-x="503" 
d="M344 1366h152l-168 -1366q-55 -38 -97 -80q-59 -59 -59 -117q0 -36 29 -55q22 -14 55 -14q50 0 104 26l-32 -120q-60 -29 -117 -29q-80 0 -127 41q-49 45 -49 119q0 67 55 133q47 53 111 96h-25z" />
    <glyph glyph-name="iogonek" unicode="&#x12f;" horiz-adv-x="425" 
d="M244 850h147l-104 -850q-69 -42 -107 -80q-59 -59 -59 -117q0 -29 16 -45q24 -24 78 -24q48 0 104 26l-30 -112q-55 -29 -123 -29q-78 0 -129 47q-43 43 -43 103q0 81 65 151q43 46 109 80h-29zM252 1159q0 45 29 78q31 39 88 39q40 0 65 -25q27 -27 27 -67
q0 -49 -33 -82q-33 -35 -82 -35q-41 0 -70 29q-24 24 -24 63z" />
    <glyph glyph-name="Idotaccent" unicode="&#x130;" horiz-adv-x="503" 
d="M344 1366h152l-168 -1366h-152zM336 1589q0 61 41 97q35 32 84 32q45 0 76 -28q26 -23 26 -72q0 -52 -33 -88q-34 -37 -88 -37q-53 0 -80 27q-26 26 -26 69z" />
    <glyph glyph-name="dotlessi" unicode="&#x131;" horiz-adv-x="425" 
d="M244 850h147l-104 -850h-148z" />
    <glyph glyph-name="Jcircumflex" unicode="&#x134;" horiz-adv-x="612" 
d="M453 1366h151l-121 -987q-14 -116 -38 -193t-74 -127q-84 -84 -238 -84q-76 0 -137 31q-52 25 -94 70l98 119q22 -28 61 -52q44 -24 89 -24q65 0 106 41q56 56 76 219zM567 1632l-198 -155l-105 84l316 243l258 -243l-109 -84z" />
    <glyph glyph-name="jcircumflex" unicode="&#x135;" horiz-adv-x="425" 
d="M244 850h147l-164 -1321h-147zM356 1171l-170 -137l-80 72l269 217l215 -217l-96 -72z" />
    <glyph glyph-name="Kcommaaccent" unicode="&#x136;" horiz-adv-x="1163" 
d="M496 1366l-72 -586l653 586h205l-725 -639l569 -727h-200l-482 627l-45 -39l-71 -588h-152l168 1366h152zM393 -422l156 320l131 -62l-188 -307z" />
    <glyph glyph-name="kcommaaccent" unicode="&#x137;" horiz-adv-x="864" 
d="M324 1493h147l-119 -958l350 315h193l-414 -365l371 -485h-188l-293 387l-41 -37l-43 -350h-148zM246 -422l155 320l131 -62l-188 -307z" />
    <glyph glyph-name="Lacute" unicode="&#x139;" horiz-adv-x="733" 
d="M344 1366h152l-150 -1223h377l-18 -143h-529zM717 1806l133 -92l-344 -239l-80 65z" />
    <glyph glyph-name="lacute" unicode="&#x13a;" horiz-adv-x="425" 
d="M324 1493h147l-184 -1493h-148zM518 1896l144 -69l-310 -277l-86 49z" />
    <glyph glyph-name="Lcommaaccent" unicode="&#x13b;" horiz-adv-x="733" 
d="M344 1366h152l-150 -1223h377l-18 -143h-529zM248 -422l155 320l132 -62l-189 -307z" />
    <glyph glyph-name="lcommaaccent" unicode="&#x13c;" horiz-adv-x="425" 
d="M324 1493h147l-184 -1493h-148zM2 -422l156 320l131 -62l-189 -307z" />
    <glyph glyph-name="Lcaron" unicode="&#x13d;" horiz-adv-x="733" 
d="M344 1366h152l-150 -1223h377l-18 -143h-529zM573 1069l156 324l131 -62l-192 -307z" />
    <glyph glyph-name="lcaron" unicode="&#x13e;" horiz-adv-x="573" 
d="M324 1493h147l-184 -1493h-148zM492 1090l155 323l131 -61l-192 -308z" />
    <glyph glyph-name="Ldot" unicode="&#x13f;" horiz-adv-x="733" 
d="M344 1366h152l-150 -1223h377l-18 -143h-529zM586 668q0 60 41 96q36 33 84 33q42 0 75 -29q27 -23 27 -72q0 -52 -33 -88q-34 -37 -88 -37q-53 0 -80 27q-26 26 -26 70z" />
    <glyph glyph-name="ldot" unicode="&#x140;" horiz-adv-x="684" 
d="M324 1493h147l-184 -1493h-148zM528 731q0 53 35 88t86 35q43 0 70 -27q26 -26 26 -71q0 -52 -34 -86q-33 -33 -82 -33t-76 27q-25 33 -25 67z" />
    <glyph glyph-name="Lslash" unicode="&#x141;" horiz-adv-x="733" 
d="M344 1366h152l-66 -535l221 132l-16 -132l-221 -131l-68 -557h377l-18 -143h-529l76 625l-189 -113l17 131l188 113z" />
    <glyph glyph-name="lslash" unicode="&#x142;" horiz-adv-x="425" 
d="M324 1493h147l-59 -471l153 108l-16 -122l-152 -109l-110 -899h-148l99 805l-152 -109l14 123l154 109z" />
    <glyph glyph-name="Nacute" unicode="&#x143;" horiz-adv-x="1568" 
d="M328 0h-152l174 1423l928 -1120l131 1063h152l-177 -1427l-927 1120zM1174 1806l133 -92l-344 -239l-80 65z" />
    <glyph glyph-name="nacute" unicode="&#x144;" horiz-adv-x="960" 
d="M139 0l105 850h147l-12 -98q3 5 13.5 16.5t31.5 30.5t41 32q63 39 158 39q129 0 202 -73q68 -68 68 -191q0 -39 -12 -141l-58 -465h-147l51 424q12 105 12 145q0 84 -43 127t-118 43q-96 0 -152 -59q-61 -63 -84 -236l-55 -444h-148zM807 1364l143 -70l-309 -276l-86 49z
" />
    <glyph glyph-name="Ncommaaccent" unicode="&#x145;" horiz-adv-x="1568" 
d="M328 0h-152l174 1423l928 -1120l131 1063h152l-177 -1427l-927 1120zM575 -422l156 320l131 -62l-188 -307z" />
    <glyph glyph-name="ncommaaccent" unicode="&#x146;" horiz-adv-x="960" 
d="M139 0l105 850h147l-12 -98q3 5 13.5 16.5t31.5 30.5t41 32q63 39 158 39q129 0 202 -73q68 -68 68 -191q0 -39 -12 -141l-58 -465h-147l51 424q12 105 12 145q0 84 -43 127t-118 43q-96 0 -152 -59q-61 -63 -84 -236l-55 -444h-148zM248 -422l155 320l132 -62l-189 -307
z" />
    <glyph glyph-name="Ncaron" unicode="&#x147;" horiz-adv-x="1568" 
d="M328 0h-152l174 1423l928 -1120l131 1063h152l-177 -1427l-927 1120zM979 1649l199 155l104 -84l-315 -243l-258 243l108 84z" />
    <glyph glyph-name="ncaron" unicode="&#x148;" horiz-adv-x="960" 
d="M139 0l105 850h147l-12 -98q3 5 13.5 16.5t31.5 30.5t41 32q63 39 158 39q129 0 202 -73q68 -68 68 -191q0 -39 -12 -141l-58 -465h-147l51 424q12 105 12 145q0 84 -43 127t-118 43q-96 0 -152 -59q-61 -63 -84 -236l-55 -444h-148zM627 1174l209 165l94 -73l-314 -248
l-251 248l94 73z" />
    <glyph glyph-name="Omacron" unicode="&#x14c;" horiz-adv-x="1638" 
d="M817 -25q-281 0 -455 179q-176 180 -176 452q0 192 67.5 333.5t166.5 234.5q226 215 561 215q285 0 459 -172q180 -176 180 -447q0 -164 -58.5 -317.5t-170.5 -262.5q-98 -95 -244.5 -155t-329.5 -60zM965 1245q-127 0 -239 -43t-194 -119q-82 -77 -135 -190t-53 -258
q0 -232 141 -377q135 -139 349 -139q134 0 249.5 44t192.5 120q89 86 137.5 209.5t48.5 248.5q0 111 -38.5 205t-104.5 160q-139 139 -354 139zM655 1501l17 131h655l-16 -131h-656z" />
    <glyph glyph-name="omacron" unicode="&#x14d;" horiz-adv-x="1081" 
d="M549 -25q-191 0 -303 117q-109 116 -109 297q0 212 154 354q139 127 340 127q195 0 311 -116q105 -105 105 -279q0 -229 -144 -369q-135 -131 -354 -131zM629 739q-136 0 -232 -94q-108 -105 -108 -266q0 -116 73 -193q75 -80 197 -80q140 0 232 99q47 51 74.5 123
t27.5 145q0 115 -70 189q-74 77 -194 77zM344 1051l14 123h619l-14 -123h-619z" />
    <glyph glyph-name="Obreve" unicode="&#x14e;" horiz-adv-x="1638" 
d="M817 -25q-281 0 -455 179q-176 180 -176 452q0 192 67.5 333.5t166.5 234.5q226 215 561 215q285 0 459 -172q180 -176 180 -447q0 -164 -58.5 -317.5t-170.5 -262.5q-98 -95 -244.5 -155t-329.5 -60zM965 1245q-127 0 -239 -43t-194 -119q-82 -77 -135 -190t-53 -258
q0 -232 141 -377q135 -139 349 -139q134 0 249.5 44t192.5 120q89 86 137.5 209.5t48.5 248.5q0 111 -38.5 205t-104.5 160q-139 139 -354 139zM1188 1722h139q-26 -112 -115 -178q-88 -67 -223 -67q-140 0 -219 79q-68 68 -78 166h131q14 -55 56 -84q40 -30 116 -30
q75 0 121 28q47 26 72 86z" />
    <glyph glyph-name="obreve" unicode="&#x14f;" horiz-adv-x="1081" 
d="M549 -25q-191 0 -303 117q-109 116 -109 297q0 212 154 354q139 127 340 127q195 0 311 -116q105 -105 105 -279q0 -229 -144 -369q-135 -131 -354 -131zM629 739q-136 0 -232 -94q-108 -105 -108 -266q0 -116 73 -193q75 -80 197 -80q140 0 232 99q47 51 74.5 123
t27.5 145q0 115 -70 189q-74 77 -194 77zM371 1264h121q11 -58 45 -88q39 -35 110 -35q78 0 125 37q44 35 64 86h129q-28 -97 -93 -162q-84 -84 -221 -84q-131 0 -200 65q-74 71 -80 181z" />
    <glyph glyph-name="Ohungarumlaut" unicode="&#x150;" horiz-adv-x="1638" 
d="M817 -25q-281 0 -455 179q-176 180 -176 452q0 192 67.5 333.5t166.5 234.5q226 215 561 215q285 0 459 -172q180 -176 180 -447q0 -164 -58.5 -317.5t-170.5 -262.5q-98 -95 -244.5 -155t-329.5 -60zM965 1245q-127 0 -239 -43t-194 -119q-82 -77 -135 -190t-53 -258
q0 -232 141 -377q135 -139 349 -139q134 0 249.5 44t192.5 120q89 86 137.5 209.5t48.5 248.5q0 111 -38.5 205t-104.5 160q-139 139 -354 139zM1028 1806l133 -82l-332 -249l-79 53zM1335 1806l133 -82l-331 -249l-80 53z" />
    <glyph glyph-name="ohungarumlaut" unicode="&#x151;" horiz-adv-x="1081" 
d="M549 -25q-191 0 -303 117q-109 116 -109 297q0 212 154 354q139 127 340 127q195 0 311 -116q105 -105 105 -279q0 -229 -144 -369q-135 -131 -354 -131zM629 739q-136 0 -232 -94q-108 -105 -108 -266q0 -116 73 -193q75 -80 197 -80q140 0 232 99q47 51 74.5 123
t27.5 145q0 115 -70 189q-74 77 -194 77zM680 1364l139 -66l-315 -278l-78 47zM954 1364l136 -66l-312 -278l-78 47z" />
    <glyph glyph-name="OE" unicode="&#x152;" horiz-adv-x="2168" 
d="M2234 1366l-18 -143h-547l-49 -406h532l-18 -143h-532l-64 -531h547l-19 -143h-698l31 231q-49 -57 -112.5 -109.5t-121.5 -80.5q-137 -66 -329 -66q-301 0 -474 179q-176 180 -176 460q0 182 64.5 322.5t167.5 237.5q117 111 262 163t295 52q91 0 185 -26.5t169 -78.5
q17 -10 40.5 -29.5t63 -64t70.5 -96.5l33 272h698zM956 1245q-122 0 -231 -42.5t-193 -119.5q-82 -77 -135 -190t-53 -258q0 -232 141 -377q135 -139 355 -139q132 0 242.5 44.5t187.5 119.5q89 86 137.5 209.5t48.5 248.5q0 111 -38.5 205t-104.5 160q-139 139 -357 139z
" />
    <glyph glyph-name="oe" unicode="&#x153;" horiz-adv-x="1748" 
d="M1569 285l125 -68q-30 -51 -73 -99t-85 -77q-98 -66 -246 -66q-131 0 -221 58q-82 53 -129 149q-72 -96 -149 -145q-101 -62 -242 -62q-191 0 -303 117q-109 116 -109 297q0 105 39.5 196.5t110.5 157.5q133 127 346 127q122 0 217 -53q89 -51 135 -137q50 86 141 137
q95 53 222 53q172 0 268 -100q125 -129 96 -373h-670q-3 -148 76 -227q64 -64 168 -64t172 48q64 46 111 131zM1069 520h506q-3 100 -72 166q-58 53 -160 53q-121 0 -192 -71q-61 -61 -82 -148zM625 739q-138 0 -230 -92q-104 -104 -104 -264q0 -120 74 -197q76 -80 198 -80
q132 0 225 97q101 104 101 266q0 119 -70 193q-74 77 -194 77z" />
    <glyph glyph-name="Racute" unicode="&#x154;" horiz-adv-x="1034" 
d="M344 1366h219q110 0 192.5 -18.5t149.5 -81.5q99 -92 99 -244q0 -187 -109 -291q-53 -52 -130.5 -83.5t-156.5 -37.5l359 -610h-185l-342 598h-39l-73 -598h-152zM477 1223l-59 -490h96q174 0 254 72t80 194q0 129 -92 185q-29 18 -86 28.5t-107 10.5h-86zM860 1806
l133 -92l-344 -239l-80 65z" />
    <glyph glyph-name="racute" unicode="&#x155;" horiz-adv-x="606" 
d="M139 0l105 850h147l-12 -92q29 49 86 82q53 30 123 30q73 0 125 -34l-86 -134q-39 29 -88 29q-68 0 -113 -45q-40 -38 -57 -96.5t-27 -140.5l-55 -449h-148zM684 1364l143 -70l-309 -276l-86 49z" />
    <glyph glyph-name="Rcommaaccent" unicode="&#x156;" horiz-adv-x="1034" 
d="M344 1366h219q110 0 192.5 -18.5t149.5 -81.5q99 -92 99 -244q0 -187 -109 -291q-53 -52 -130.5 -83.5t-156.5 -37.5l359 -610h-185l-342 598h-39l-73 -598h-152zM477 1223l-59 -490h96q174 0 254 72t80 194q0 129 -92 185q-29 18 -86 28.5t-107 10.5h-86zM330 -422
l155 320l131 -62l-188 -307z" />
    <glyph glyph-name="rcommaaccent" unicode="&#x157;" horiz-adv-x="606" 
d="M139 0l105 850h147l-12 -92q29 49 86 82q53 30 123 30q73 0 125 -34l-86 -134q-39 29 -88 29q-68 0 -113 -45q-40 -38 -57 -96.5t-27 -140.5l-55 -449h-148zM84 -422l156 320l131 -62l-189 -307z" />
    <glyph glyph-name="Rcaron" unicode="&#x158;" horiz-adv-x="1034" 
d="M344 1366h219q110 0 192.5 -18.5t149.5 -81.5q99 -92 99 -244q0 -187 -109 -291q-53 -52 -130.5 -83.5t-156.5 -37.5l359 -610h-185l-342 598h-39l-73 -598h-152zM477 1223l-59 -490h96q174 0 254 72t80 194q0 129 -92 185q-29 18 -86 28.5t-107 10.5h-86zM666 1649
l198 155l105 -84l-316 -243l-258 243l109 84z" />
    <glyph glyph-name="rcaron" unicode="&#x159;" horiz-adv-x="606" 
d="M139 0l105 850h147l-12 -92q29 49 86 82q53 30 123 30q73 0 125 -34l-86 -134q-39 29 -88 29q-68 0 -113 -45q-40 -38 -57 -96.5t-27 -140.5l-55 -449h-148zM545 1174l209 165l94 -73l-313 -248l-252 248l94 73z" />
    <glyph glyph-name="Sacute" unicode="&#x15a;" horiz-adv-x="1060" 
d="M1051 1176l-129 -80q-21 62 -76 106q-56 43 -154 43q-108 0 -172 -57q-32 -29 -51.5 -72.5t-19.5 -89.5q0 -74 57 -125q37 -34 115 -72l122 -57q112 -52 175 -117q55 -56 73.5 -110.5t18.5 -128.5q0 -190 -115 -310q-127 -131 -354 -131q-90 0 -157.5 22.5t-125.5 80.5
q-46 47 -77 113t-38 137l152 41q6 -108 74 -179q41 -42 87.5 -56.5t106.5 -14.5q140 0 213 76q36 38 55 91.5t19 106.5q0 108 -74 174q-44 40 -133 82l-108 51q-37 16 -84.5 45t-77.5 60q-78 82 -78 211q0 155 106 258q118 115 301 115q138 0 226 -58q83 -55 123 -155z
M920 1806l133 -92l-344 -239l-80 65z" />
    <glyph glyph-name="sacute" unicode="&#x15b;" horiz-adv-x="716" 
d="M694 717l-129 -64q-10 33 -35 58q-28 28 -73 28q-49 0 -82 -26q-33 -29 -33 -76q0 -34 25 -59q22 -22 84 -50l77 -39q66 -32 109 -75q55 -60 55 -152q0 -119 -71 -196q-84 -91 -244 -91q-110 0 -178 56q-76 63 -101 162l129 53q16 -62 52 -101q39 -39 102 -39
q74 0 115 37q43 40 43 109q0 52 -45 88q-23 20 -88 51l-48 23q-73 33 -112 78q-47 52 -47 133q0 103 71 174t193 71q90 0 153 -51q54 -45 78 -102zM655 1364l144 -70l-310 -276l-86 49z" />
    <glyph glyph-name="Scircumflex" unicode="&#x15c;" horiz-adv-x="1060" 
d="M1051 1176l-129 -80q-21 62 -76 106q-56 43 -154 43q-108 0 -172 -57q-32 -29 -51.5 -72.5t-19.5 -89.5q0 -74 57 -125q37 -34 115 -72l122 -57q112 -52 175 -117q55 -56 73.5 -110.5t18.5 -128.5q0 -190 -115 -310q-127 -131 -354 -131q-90 0 -157.5 22.5t-125.5 80.5
q-46 47 -77 113t-38 137l152 41q6 -108 74 -179q41 -42 87.5 -56.5t106.5 -14.5q140 0 213 76q36 38 55 91.5t19 106.5q0 108 -74 174q-44 40 -133 82l-108 51q-37 16 -84.5 45t-77.5 60q-78 82 -78 211q0 155 106 258q118 115 301 115q138 0 226 -58q83 -55 123 -155z
M741 1632l-198 -155l-105 84l316 243l258 -243l-109 -84z" />
    <glyph glyph-name="scircumflex" unicode="&#x15d;" horiz-adv-x="716" 
d="M694 717l-129 -64q-10 33 -35 58q-28 28 -73 28q-49 0 -82 -26q-33 -29 -33 -76q0 -34 25 -59q22 -22 84 -50l77 -39q66 -32 109 -75q55 -60 55 -152q0 -119 -71 -196q-84 -91 -244 -91q-110 0 -178 56q-76 63 -101 162l129 53q16 -62 52 -101q39 -39 102 -39
q74 0 115 37q43 40 43 109q0 52 -45 88q-23 20 -88 51l-48 23q-73 33 -112 78q-47 52 -47 133q0 103 71 174t193 71q90 0 153 -51q54 -45 78 -102zM510 1184l-209 -166l-94 74l313 247l252 -247l-94 -74z" />
    <glyph glyph-name="Scedilla" unicode="&#x15e;" horiz-adv-x="1060" 
d="M1051 1176l-129 -80q-21 62 -76 106q-56 43 -154 43q-108 0 -172 -57q-32 -29 -51.5 -72.5t-19.5 -89.5q0 -74 57 -125q37 -34 115 -72l122 -57q112 -52 175 -117q55 -56 73.5 -110.5t18.5 -128.5q0 -190 -115 -310q-127 -131 -354 -131q-90 0 -157.5 22.5t-125.5 80.5
q-46 47 -77 113t-38 137l152 41q6 -108 74 -179q41 -42 87.5 -56.5t106.5 -14.5q140 0 213 76q36 38 55 91.5t19 106.5q0 108 -74 174q-44 40 -133 82l-108 51q-37 16 -84.5 45t-77.5 60q-78 82 -78 211q0 155 106 258q118 115 301 115q138 0 226 -58q83 -55 123 -155z
M508 -106l135 -62l-246 -262l-96 53z" />
    <glyph glyph-name="scedilla" unicode="&#x15f;" horiz-adv-x="716" 
d="M694 717l-129 -64q-10 33 -35 58q-28 28 -73 28q-49 0 -82 -26q-33 -29 -33 -76q0 -34 25 -59q22 -22 84 -50l77 -39q66 -32 109 -75q55 -60 55 -152q0 -119 -71 -196q-84 -91 -244 -91q-110 0 -178 56q-76 63 -101 162l129 53q16 -62 52 -101q39 -39 102 -39
q74 0 115 37q43 40 43 109q0 52 -45 88q-23 20 -88 51l-48 23q-73 33 -112 78q-47 52 -47 133q0 103 71 174t193 71q90 0 153 -51q54 -45 78 -102zM348 -106l127 -56l-237 -262l-95 49z" />
    <glyph glyph-name="Scaron" unicode="&#x160;" horiz-adv-x="1060" 
d="M1051 1176l-129 -80q-21 62 -76 106q-56 43 -154 43q-108 0 -172 -57q-32 -29 -51.5 -72.5t-19.5 -89.5q0 -74 57 -125q37 -34 115 -72l122 -57q112 -52 175 -117q55 -56 73.5 -110.5t18.5 -128.5q0 -190 -115 -310q-127 -131 -354 -131q-90 0 -157.5 22.5t-125.5 80.5
q-46 47 -77 113t-38 137l152 41q6 -108 74 -179q41 -42 87.5 -56.5t106.5 -14.5q140 0 213 76q36 38 55 91.5t19 106.5q0 108 -74 174q-44 40 -133 82l-108 51q-37 16 -84.5 45t-77.5 60q-78 82 -78 211q0 155 106 258q118 115 301 115q138 0 226 -58q83 -55 123 -155z
M727 1649l199 155l104 -84l-315 -243l-258 243l108 84z" />
    <glyph glyph-name="scaron" unicode="&#x161;" horiz-adv-x="716" 
d="M694 717l-129 -64q-10 33 -35 58q-28 28 -73 28q-49 0 -82 -26q-33 -29 -33 -76q0 -34 25 -59q22 -22 84 -50l77 -39q66 -32 109 -75q55 -60 55 -152q0 -119 -71 -196q-84 -91 -244 -91q-110 0 -178 56q-76 63 -101 162l129 53q16 -62 52 -101q39 -39 102 -39
q74 0 115 37q43 40 43 109q0 52 -45 88q-23 20 -88 51l-48 23q-73 33 -112 78q-47 52 -47 133q0 103 71 174t193 71q90 0 153 -51q54 -45 78 -102zM492 1174l208 165l95 -73l-314 -248l-252 248l95 73z" />
    <glyph glyph-name="Tcedilla" unicode="&#x162;" horiz-adv-x="872" 
d="M993 1223h-331l-150 -1223h-152l150 1223h-332l19 143h815zM406 -106l135 -62l-246 -262l-96 53z" />
    <glyph glyph-name="tcedilla" unicode="&#x163;" horiz-adv-x="438" 
d="M526 715h-147l-88 -715h-148l88 715h-90l17 135h90l37 307h147l-37 -307h148zM184 -106l127 -56l-237 -262l-94 49z" />
    <glyph glyph-name="Tcaron" unicode="&#x164;" horiz-adv-x="872" 
d="M993 1223h-331l-150 -1223h-152l150 1223h-332l19 143h815zM631 1649l198 155l105 -84l-316 -243l-258 243l109 84z" />
    <glyph glyph-name="tcaron" unicode="&#x165;" horiz-adv-x="573" 
d="M526 715h-147l-88 -715h-148l88 715h-90l17 135h90l37 307h147l-37 -307h148zM492 1090l155 323l131 -61l-192 -308z" />
    <glyph glyph-name="Utilde" unicode="&#x168;" horiz-adv-x="1323" 
d="M496 1366l-99 -803q-14 -107 -14 -164q0 -126 88 -206q49 -45 103 -59.5t126 -14.5q34 0 59.5 2.5t63 11t72 29.5t63.5 53q36 40 59.5 106t29.5 103.5t14 103.5l102 838h152l-109 -879q-16 -135 -47.5 -224t-111.5 -165q-55 -52 -124 -81t-120.5 -35.5t-118.5 -6.5
q-214 0 -334 115q-119 115 -119 283q0 68 15 207l98 786h152zM1102 1724l80 -71q-21 -46 -72 -90q-69 -58 -139 -58q-51 0 -111 31l-43 25q-54 30 -90 30q-41 0 -65 -28q-26 -26 -44 -62l-81 74q39 64 81 98q57 49 132 49q54 0 116 -34l52 -29q40 -23 71 -23q38 0 70 29
q27 27 43 59z" />
    <glyph glyph-name="utilde" unicode="&#x169;" horiz-adv-x="952" 
d="M389 850l-55 -449q-8 -78 -8 -110q0 -48 10 -81t41 -60q50 -44 127 -44q81 0 137 52q33 33 47 82.5t25 138.5l57 471h148l-60 -488q-9 -74 -16.5 -114t-29.5 -94.5t-58 -90.5q-88 -88 -246 -88q-160 0 -248 78q-84 73 -84 215q0 35 12 146l54 436h147zM371 1018l-78 69
q32 49 82 93q59 49 127 49q10 0 19 -0.5t18 -2.5t15.5 -3.5t16 -5t14 -5t14 -6t12 -6t13 -6.5t11.5 -6l35 -19q44 -22 75 -22q41 0 72 31q20 23 41 57l76 -70q-34 -62 -74 -96q-50 -45 -125 -45q-47 0 -112 29l-45 22q-3 1 -21.5 10t-25 11.5t-20 6t-24.5 3.5q-36 0 -69 -33
q-36 -33 -47 -55z" />
    <glyph glyph-name="Umacron" unicode="&#x16a;" horiz-adv-x="1323" 
d="M496 1366l-99 -803q-14 -107 -14 -164q0 -126 88 -206q49 -45 103 -59.5t126 -14.5q34 0 59.5 2.5t63 11t72 29.5t63.5 53q36 40 59.5 106t29.5 103.5t14 103.5l102 838h152l-109 -879q-16 -135 -47.5 -224t-111.5 -165q-55 -52 -124 -81t-120.5 -35.5t-118.5 -6.5
q-214 0 -334 115q-119 115 -119 283q0 68 15 207l98 786h152zM518 1501l17 131h655l-16 -131h-656z" />
    <glyph glyph-name="umacron" unicode="&#x16b;" horiz-adv-x="952" 
d="M389 850l-55 -449q-8 -78 -8 -110q0 -48 10 -81t41 -60q50 -44 127 -44q81 0 137 52q33 33 47 82.5t25 138.5l57 471h148l-60 -488q-9 -74 -16.5 -114t-29.5 -94.5t-58 -90.5q-88 -88 -246 -88q-160 0 -248 78q-84 73 -84 215q0 35 12 146l54 436h147zM297 1051l14 123
h619l-15 -123h-618z" />
    <glyph glyph-name="Ubreve" unicode="&#x16c;" horiz-adv-x="1323" 
d="M496 1366l-99 -803q-14 -107 -14 -164q0 -126 88 -206q49 -45 103 -59.5t126 -14.5q34 0 59.5 2.5t63 11t72 29.5t63.5 53q36 40 59.5 106t29.5 103.5t14 103.5l102 838h152l-109 -879q-16 -135 -47.5 -224t-111.5 -165q-55 -52 -124 -81t-120.5 -35.5t-118.5 -6.5
q-214 0 -334 115q-119 115 -119 283q0 68 15 207l98 786h152zM1051 1722h139q-26 -112 -115 -178q-88 -67 -223 -67q-140 0 -219 79q-68 68 -78 166h131q14 -56 55 -84q40 -30 117 -30q75 0 121 28q47 26 72 86z" />
    <glyph glyph-name="ubreve" unicode="&#x16d;" horiz-adv-x="952" 
d="M389 850l-55 -449q-8 -78 -8 -110q0 -48 10 -81t41 -60q50 -44 127 -44q81 0 137 52q33 33 47 82.5t25 138.5l57 471h148l-60 -488q-9 -74 -16.5 -114t-29.5 -94.5t-58 -90.5q-88 -88 -246 -88q-160 0 -248 78q-84 73 -84 215q0 35 12 146l54 436h147zM319 1264h121
q11 -58 45 -88q39 -35 111 -35q78 0 125 37q43 34 63 86h129q-29 -99 -92 -162q-84 -84 -221 -84q-132 0 -201 65q-74 71 -80 181z" />
    <glyph glyph-name="Uring" unicode="&#x16e;" horiz-adv-x="1323" 
d="M496 1366l-99 -803q-14 -107 -14 -164q0 -126 88 -206q49 -45 103 -59.5t126 -14.5q34 0 59.5 2.5t63 11t72 29.5t63.5 53q36 40 59.5 106t29.5 103.5t14 103.5l102 838h152l-109 -879q-16 -135 -47.5 -224t-111.5 -165q-55 -52 -124 -81t-120.5 -35.5t-118.5 -6.5
q-214 0 -334 115q-119 115 -119 283q0 68 15 207l98 786h152zM684 1657q0 86 59 145q53 53 138 53q76 0 125 -49q43 -50 43 -118q0 -84 -58 -142q-55 -51 -139 -51q-74 0 -119 43q-49 49 -49 119zM782 1667q0 -32 21 -53q23 -23 57 -23q38 0 66 25q28 24 28 67q0 39 -24 60
q-20 20 -58 20q-39 0 -63 -24q-27 -27 -27 -72z" />
    <glyph glyph-name="uring" unicode="&#x16f;" horiz-adv-x="952" 
d="M389 850l-55 -449q-8 -78 -8 -110q0 -48 10 -81t41 -60q50 -44 127 -44q81 0 137 52q33 33 47 82.5t25 138.5l57 471h148l-60 -488q-9 -74 -16.5 -114t-29.5 -94.5t-58 -90.5q-88 -88 -246 -88q-160 0 -248 78q-84 73 -84 215q0 35 12 146l54 436h147zM430 1178
q0 91 55 143q49 49 129 49t125 -45t45 -123q0 -82 -51 -133q-54 -51 -137 -51q-78 0 -121 43q-45 45 -45 117zM522 1186q0 -32 21 -53q21 -25 61 -25q39 0 64 25q26 26 26 69q0 40 -22 58q-20 20 -60 20q-38 0 -63 -25q-27 -27 -27 -69z" />
    <glyph glyph-name="Uhungarumlaut" unicode="&#x170;" horiz-adv-x="1323" 
d="M496 1366l-99 -803q-14 -107 -14 -164q0 -126 88 -206q49 -45 103 -59.5t126 -14.5q34 0 59.5 2.5t63 11t72 29.5t63.5 53q36 40 59.5 106t29.5 103.5t14 103.5l102 838h152l-109 -879q-16 -135 -47.5 -224t-111.5 -165q-55 -52 -124 -81t-120.5 -35.5t-118.5 -6.5
q-214 0 -334 115q-119 115 -119 283q0 68 15 207l98 786h152zM891 1806l133 -82l-332 -249l-80 53zM1198 1806l133 -82l-332 -249l-79 53z" />
    <glyph glyph-name="uhungarumlaut" unicode="&#x171;" horiz-adv-x="952" 
d="M389 850l-55 -449q-8 -78 -8 -110q0 -48 10 -81t41 -60q50 -44 127 -44q81 0 137 52q33 33 47 82.5t25 138.5l57 471h148l-60 -488q-9 -74 -16.5 -114t-29.5 -94.5t-58 -90.5q-88 -88 -246 -88q-160 0 -248 78q-84 73 -84 215q0 35 12 146l54 436h147zM629 1364l139 -66
l-315 -278l-78 47zM903 1364l135 -66l-311 -278l-78 47z" />
    <glyph glyph-name="Uogonek" unicode="&#x172;" horiz-adv-x="1323" 
d="M496 1366l-99 -803q-14 -107 -14 -164q0 -126 88 -206q50 -46 105 -60t124 -14q171 0 258 96q35 38 58 98t29.5 98.5t13.5 100.5l104 854h152l-109 -879q-6 -53 -9 -76t-13.5 -71.5t-24.5 -79.5t-39.5 -72t-60.5 -77q-17 -19 -34 -34t-37.5 -28.5t-30.5 -20t-34.5 -20
t-29.5 -16.5q-98 -53 -133 -88q-47 -47 -47 -101q0 -36 28 -55q20 -14 58 -14q52 0 102 26l-33 -120q-60 -29 -116 -29q-80 0 -127 41q-50 40 -50 119q0 64 43 118q41 55 99 88q-14 -2 -41 -2q-88 0 -176 29.5t-150 85.5q-119 108 -119 287q0 64 15 203l98 786h152z" />
    <glyph glyph-name="uogonek" unicode="&#x173;" horiz-adv-x="952" 
d="M389 850l-55 -449q-8 -78 -8 -110q0 -48 10 -81t41 -60q50 -44 127 -44q81 0 137 52q33 33 47 82.5t25 138.5l57 471h148l-60 -488q-13 -121 -35 -185.5t-82 -125.5q-12 -12 -79 -69q-40 -32 -70 -62q-60 -62 -60 -117q0 -28 17 -45q24 -24 78 -24q48 0 104 26l-31 -112
q-55 -29 -122 -29q-78 0 -129 47q-43 43 -43 103q0 62 40 120q32 43 86 86q-179 -3 -272 78q-84 73 -84 215q0 35 12 146l54 436h147z" />
    <glyph glyph-name="Ydieresis" unicode="&#x178;" horiz-adv-x="1085" 
d="M465 0l72 588l-353 778h172l273 -610l428 610h180l-549 -778l-72 -588h-151zM829 1593q0 45 31 78q36 39 86 39q39 0 66 -24q26 -26 26 -64q0 -49 -32 -86q-35 -35 -82 -35q-43 0 -70 27q-25 25 -25 65zM440 1593q0 45 31 78q36 39 86 39q39 0 66 -24q26 -26 26 -64
q0 -48 -33 -86q-35 -35 -81 -35q-43 0 -70 27q-25 25 -25 65z" />
    <glyph glyph-name="Zacute" unicode="&#x179;" horiz-adv-x="1097" 
d="M1217 1366l-895 -1223h725l-19 -143h-979l895 1223h-649l18 143h904zM938 1806l133 -92l-344 -239l-80 65z" />
    <glyph glyph-name="zacute" unicode="&#x17a;" horiz-adv-x="942" 
d="M1030 850l-702 -715h590l-17 -135h-885l703 715h-496l17 135h790zM786 1364l144 -70l-309 -276l-86 49z" />
    <glyph glyph-name="Zdotaccent" unicode="&#x17b;" horiz-adv-x="1097" 
d="M1217 1366l-895 -1223h725l-19 -143h-979l895 1223h-649l18 143h904zM655 1589q0 61 41 97q35 32 84 32q44 0 76 -28q27 -23 27 -72q0 -52 -33 -88q-34 -37 -88 -37q-53 0 -80 27t-27 69z" />
    <glyph glyph-name="zdotaccent" unicode="&#x17c;" horiz-adv-x="942" 
d="M1030 850l-702 -715h590l-17 -135h-885l703 715h-496l17 135h790zM543 1118q0 53 35 88t86 35q42 0 69 -27t27 -71q0 -51 -35 -86q-33 -33 -82 -33t-76 27q-24 32 -24 67z" />
    <glyph glyph-name="Zcaron" unicode="&#x17d;" horiz-adv-x="1097" 
d="M1217 1366l-895 -1223h725l-19 -143h-979l895 1223h-649l18 143h904zM768 1649l199 155l104 -84l-315 -243l-258 243l108 84z" />
    <glyph glyph-name="zcaron" unicode="&#x17e;" horiz-adv-x="942" 
d="M1030 850l-702 -715h590l-17 -135h-885l703 715h-496l17 135h790zM659 1174l209 165l95 -73l-314 -248l-252 248l95 73z" />
    <glyph glyph-name="uni018F" unicode="&#x18f;" horiz-adv-x="1554" 
d="M393 989l-127 72q114 153 252 233q167 95 369 95q141 0 264 -46t209 -129q176 -170 176 -458q0 -183 -59.5 -331.5t-155.5 -248.5q-113 -117 -245 -159t-285 -42q-123 0 -231 32t-200 124q-80 80 -129 199.5t-49 261.5q0 48 6 94h1188q20 124 -17 236t-116 188
q-143 135 -362 135q-170 0 -299 -80q-102 -64 -189 -176zM1346 543h-1018q4 -93 42 -177t95 -137q119 -110 334 -110q121 0 215 31t176 110q119 115 156 283z" />
    <glyph glyph-name="florin" unicode="&#x192;" horiz-adv-x="1163" 
d="M952 727h-221l-174 -674q-19 -71 -32.5 -113.5t-44.5 -98.5t-72 -93q-107 -96 -291 -96q-36 0 -86 8l39 131q28 -4 49 -4q125 0 188 59q66 63 117 263l158 618h-148l27 123h151l95 367q39 159 116 231q73 68 195 68q63 0 129 -21l-37 -137q-50 22 -92 22q-57 0 -92 -32
q-44 -41 -78 -172l-86 -326h217z" />
    <glyph glyph-name="uni01CF" unicode="&#x1cf;" horiz-adv-x="503" 
d="M344 1366h152l-168 -1366h-152zM446 1649l199 155l105 -84l-316 -243l-258 243l109 84z" />
    <glyph glyph-name="uni01D0" unicode="&#x1d0;" horiz-adv-x="425" 
d="M244 850h147l-104 -850h-148zM352 1186l170 137l86 -72l-268 -217l-215 217l90 72z" />
    <glyph glyph-name="uni01DD" unicode="&#x1dd;" horiz-adv-x="989" 
d="M283 561l-115 68q60 108 149 170q104 71 252 71q172 0 273 -94q114 -107 114 -295q0 -136 -46.5 -250.5t-131.5 -177.5q-63 -48 -131 -63t-147 -15q-173 0 -267 99q-66 69 -87.5 170.5t-6.5 206.5h664q7 66 -14.5 128t-59.5 99q-64 61 -172 61q-103 0 -178 -61
q-46 -37 -96 -117zM776 328h-500q2 -46 19.5 -90.5t46.5 -73.5q58 -58 168 -58q100 0 170 54q34 26 60.5 70.5t35.5 97.5z" />
    <glyph glyph-name="Gcaron" unicode="&#x1e6;" horiz-adv-x="1556" 
d="M952 543l17 143h569l-4 -33q-38 -300 -201 -475q-188 -203 -499 -203q-286 0 -467 181t-181 456q0 172 62 313.5t164 243.5q117 119 256 169.5t307 50.5q209 0 358 -95q122 -75 195 -202l-125 -103q-57 113 -166 182q-116 74 -264 74q-152 0 -264 -49.5t-185 -120.5
q-90 -90 -136 -213.5t-46 -245.5q0 -102 37.5 -196t103.5 -162q134 -139 365 -139q230 0 364 139q110 110 146 285h-406zM993 1649l199 155l104 -84l-315 -243l-258 243l108 84z" />
    <glyph glyph-name="gcaron" unicode="&#x1e7;" horiz-adv-x="1077" 
d="M881 729l14 121h147l-100 -830q-8 -65 -14 -102t-20 -90.5t-38.5 -96.5t-60.5 -79q-119 -123 -332 -123q-187 0 -287 100q-96 98 -96 277v12h146v-8q0 -128 67 -191q64 -59 176 -59q139 0 215 76q27 26 45.5 58.5t28 72t13.5 64t8 65.5l12 123q-42 -67 -121 -107
q-76 -37 -164 -37q-177 0 -280 109q-107 109 -107 289q0 106 35.5 205.5t101.5 166.5q121 125 316 125q115 0 188 -41q65 -33 107 -100zM602 739q-122 0 -205 -77q-110 -104 -110 -279q0 -134 75 -209q68 -68 175 -68q126 0 208 74q52 48 80.5 127.5t28.5 155.5
q0 55 -19.5 111t-54.5 94q-67 71 -178 71zM647 1174l209 165l94 -73l-313 -248l-252 248l94 73z" />
    <glyph glyph-name="AEacute" unicode="&#x1fc;" horiz-adv-x="1843" 
d="M1102 0l-115 383h-581l-209 -383h-168l776 1366h600l41 -143h-551l121 -406h540l41 -143h-536l158 -531h555l41 -143h-713zM489 526h457l-160 535zM1311 1806l133 -92l-344 -239l-80 65z" />
    <glyph glyph-name="aeacute" unicode="&#x1fd;" horiz-adv-x="1589" 
d="M850 713q52 68 135 112q88 45 199 45q174 0 270 -100q125 -129 96 -373h-669v-16q0 -132 75 -211q64 -64 168 -64t172 48q64 46 111 131l125 -68q-30 -51 -73 -99t-85 -77q-94 -66 -246 -66q-127 0 -210 50q-68 41 -119 120q-54 -85 -133 -127q-79 -43 -213 -43
q-154 0 -238 60q-98 66 -98 194q0 73 32.5 134.5t86.5 99.5q100 69 260 69q143 0 247 -71q16 167 -53 229q-53 49 -172 49t-252 -53l17 139q128 45 262 45q125 0 203 -45q74 -41 102 -112zM492 401q-108 0 -170 -47q-56 -40 -56 -108q0 -66 56 -105q52 -35 153 -35
q86 0 156 35q78 44 78 127q0 64 -62 101q-51 32 -155 32zM907 520h506q-3 100 -72 166q-58 53 -159 53q-122 0 -193 -71q-61 -61 -82 -148zM1090 1364l143 -70l-309 -276l-86 49z" />
    <glyph glyph-name="Scommaaccent" unicode="&#x218;" horiz-adv-x="1060" 
d="M1051 1176l-129 -80q-21 62 -76 106q-56 43 -154 43q-108 0 -172 -57q-32 -29 -51.5 -72.5t-19.5 -89.5q0 -74 57 -125q37 -34 115 -72l122 -57q112 -52 175 -117q55 -56 73.5 -110.5t18.5 -128.5q0 -190 -115 -310q-127 -131 -354 -131q-90 0 -157.5 22.5t-125.5 80.5
q-46 47 -77 113t-38 137l152 41q6 -108 74 -179q41 -42 87.5 -56.5t106.5 -14.5q140 0 213 76q36 38 55 91.5t19 106.5q0 108 -74 174q-44 40 -133 82l-108 51q-37 16 -84.5 45t-77.5 60q-78 82 -78 211q0 155 106 258q118 115 301 115q138 0 226 -58q83 -55 123 -155z
M330 -422l155 320l131 -62l-188 -307z" />
    <glyph glyph-name="scommaaccent" unicode="&#x219;" horiz-adv-x="716" 
d="M694 717l-129 -64q-10 33 -35 58q-28 28 -73 28q-49 0 -82 -26q-33 -29 -33 -76q0 -34 25 -59q22 -22 84 -50l77 -39q66 -32 109 -75q55 -60 55 -152q0 -119 -71 -196q-84 -91 -244 -91q-110 0 -178 56q-76 63 -101 162l129 53q16 -62 52 -101q39 -39 102 -39
q74 0 115 37q43 40 43 109q0 52 -45 88q-23 20 -88 51l-48 23q-73 33 -112 78q-47 52 -47 133q0 103 71 174t193 71q90 0 153 -51q54 -45 78 -102zM166 -422l156 320l131 -62l-189 -307z" />
    <glyph glyph-name="Tcommaaccent" unicode="&#x21a;" horiz-adv-x="872" 
d="M993 1223h-331l-150 -1223h-152l150 1223h-332l19 143h815zM248 -422l155 320l132 -62l-189 -307z" />
    <glyph glyph-name="tcommaaccent" unicode="&#x21b;" horiz-adv-x="438" 
d="M526 715h-147l-88 -715h-148l88 715h-90l17 135h90l37 307h147l-37 -307h148zM43 -422l156 320l131 -62l-189 -307z" />
    <glyph glyph-name="uni0228" unicode="&#x228;" horiz-adv-x="987" 
d="M1053 1366l-19 -143h-557l-49 -406h541l-19 -143h-540l-64 -531h557l-18 -143h-709l168 1366h709zM510 -106l135 -62l-246 -262l-96 53z" />
    <glyph glyph-name="uni0229" unicode="&#x229;" horiz-adv-x="989" 
d="M809 285l125 -68q-30 -51 -73 -99t-85 -77q-101 -66 -246 -66q-85 0 -153.5 23t-126.5 84q-113 117 -113 305q0 107 38.5 201.5t107.5 163.5q118 118 297 118q176 0 276 -100q125 -129 96 -375h-661q-2 -147 76 -225q64 -64 168 -64q95 0 163 48q64 46 111 131zM315 518
h496q-2 46 -21 92t-51 76q-55 53 -155 53q-116 0 -187 -71q-61 -61 -82 -150zM516 -106l127 -56l-237 -262l-95 49z" />
    <glyph glyph-name="uni0237" unicode="&#x237;" horiz-adv-x="423" 
d="M244 850h147l-164 -1321h-147z" />
    <glyph glyph-name="uni0259" unicode="&#x259;" horiz-adv-x="989" 
d="M283 561l-115 68q60 108 149 170q104 71 252 71q172 0 273 -94q114 -107 114 -295q0 -136 -46.5 -250.5t-131.5 -177.5q-63 -48 -131 -63t-147 -15q-173 0 -267 99q-66 69 -87.5 170.5t-6.5 206.5h664q7 66 -14.5 128t-59.5 99q-64 61 -172 61q-103 0 -178 -61
q-46 -37 -96 -117zM776 328h-500q2 -46 19.5 -90.5t46.5 -73.5q58 -58 168 -58q100 0 170 54q34 26 60.5 70.5t35.5 97.5z" />
    <glyph glyph-name="afii57929" unicode="&#x2bc;" 
d="M451 1090l155 323l131 -61l-192 -308z" />
    <glyph glyph-name="circumflex" unicode="&#x2c6;" 
d="M666 1184l-209 -166l-95 74l314 247l252 -247l-94 -74z" />
    <glyph glyph-name="caron" unicode="&#x2c7;" 
d="M647 1174l209 165l94 -73l-313 -248l-252 248l94 73z" />
    <glyph glyph-name="uni02C9" unicode="&#x2c9;" 
d="M332 1051l14 123h619l-15 -123h-618z" />
    <glyph glyph-name="breve" unicode="&#x2d8;" 
d="M371 1264h121q11 -58 45 -88q39 -35 110 -35q78 0 125 37q44 35 64 86h129q-28 -97 -93 -162q-84 -84 -221 -84q-131 0 -200 65q-74 71 -80 181z" />
    <glyph glyph-name="dotaccent" unicode="&#x2d9;" 
d="M543 1118q0 53 35 88t86 35q42 0 69 -27t27 -71q0 -51 -35 -86q-33 -33 -82 -33t-76 27q-24 32 -24 67z" />
    <glyph glyph-name="ring" unicode="&#x2da;" 
d="M481 1178q0 90 56 143q49 49 129 49t125 -45t45 -123q0 -81 -52 -133q-54 -51 -137 -51q-78 0 -121 43q-45 45 -45 117zM573 1186q0 -32 21 -53q21 -25 61 -25q39 0 64 25q26 26 26 69q0 40 -22 58q-20 20 -59 20t-64 -25q-27 -27 -27 -69z" />
    <glyph glyph-name="ogonek" unicode="&#x2db;" 
d="M717 -240l-31 -112q-55 -29 -123 -29q-78 0 -129 47q-43 43 -43 103q0 80 66 151q44 47 108 80h119q-66 -40 -106 -80q-60 -60 -60 -117q0 -28 17 -45q24 -24 77 -24q49 0 105 26z" />
    <glyph glyph-name="tilde" unicode="&#x2dc;" 
d="M408 1018l-78 69q32 49 82 93q59 49 127 49q10 0 19 -0.5t18 -2.5t15.5 -3.5t16 -5t14 -5t14 -6t12 -6t13 -6.5t11.5 -6l35 -19q44 -22 75 -22q41 0 72 31q20 23 41 57l76 -70q-34 -62 -74 -96q-50 -45 -125 -45q-48 0 -113 29l-45 22q-5 2 -22 10t-24 11t-20 6.5
t-24 3.5q-36 0 -69 -33q-36 -33 -47 -55z" />
    <glyph glyph-name="hungarumlaut" unicode="&#x2dd;" 
d="M680 1364l139 -66l-315 -278l-78 47zM954 1364l136 -66l-312 -278l-78 47z" />
    <glyph glyph-name="acutecomb" unicode="&#x301;" horiz-adv-x="4" 
d="M-262 1364l143 -70l-309 -276l-86 49z" />
    <glyph glyph-name="uni0394" unicode="&#x394;" horiz-adv-x="1368" 
d="M1311 0h-1254l549 1366h156zM684 1176l-410 -1033h820z" />
    <glyph glyph-name="uni0394" unicode="&#x2206;" horiz-adv-x="1368" 
d="M1311 0h-1254l549 1366h156zM684 1176l-410 -1033h820z" />
    <glyph glyph-name="uni03A9" unicode="&#x3a9;" horiz-adv-x="1275" 
d="M776 0v143q75 40 150 102.5t123 129.5q104 153 104 346q0 255 -156 403q-128 121 -313 121t-313 -121q-156 -148 -156 -403q0 -193 104 -346q48 -67 123 -129.5t150 -102.5v-143h-533v143h367q-154 80 -248 211q-119 165 -119 381q0 149 51 275t138 211q168 168 436 168
t436 -168q87 -85 138 -211t51 -275q0 -216 -119 -381q-94 -131 -248 -211h367v-143h-533z" />
    <glyph glyph-name="uni03A9" unicode="&#x2126;" horiz-adv-x="1275" 
d="M776 0v143q75 40 150 102.5t123 129.5q104 153 104 346q0 255 -156 403q-128 121 -313 121t-313 -121q-156 -148 -156 -403q0 -193 104 -346q48 -67 123 -129.5t150 -102.5v-143h-533v143h367q-154 80 -248 211q-119 165 -119 381q0 149 51 275t138 211q168 168 436 168
t436 -168q87 -85 138 -211t51 -275q0 -216 -119 -381q-94 -131 -248 -211h367v-143h-533z" />
    <glyph glyph-name="pi" unicode="&#x3c0;" horiz-adv-x="1085" 
d="M444 0h-147v715h-152v135h988v-135h-152v-715h-147v715h-390v-715z" />
    <glyph glyph-name="afii10023" unicode="&#x401;" horiz-adv-x="987" 
d="M1053 1366l-19 -143h-557l-49 -406h541l-19 -143h-540l-64 -531h557l-18 -143h-709l168 1366h709zM817 1593q0 45 31 78q36 39 86 39q38 0 65 -24q27 -27 27 -64q0 -48 -33 -86q-35 -35 -82 -35q-42 0 -69 27q-25 25 -25 65zM428 1593q0 45 31 78q36 39 86 39
q38 0 65 -24q27 -27 27 -64q0 -48 -33 -86q-35 -35 -82 -35q-42 0 -69 27q-25 25 -25 65z" />
    <glyph glyph-name="afii10051" unicode="&#x402;" horiz-adv-x="1327" 
d="M1071 1223h-414l-53 -435q134 48 275 48q190 0 295 -101q50 -46 82 -126.5t32 -192.5q0 -93 -32 -182t-91 -146q-104 -102 -303 -102q-82 0 -170 16l19 141q74 -14 141 -14q128 0 199 66q77 69 77 221q0 131 -63 202q-66 74 -213 74q-139 0 -264 -47l-80 -645h-152
l150 1223h-328l19 143h893z" />
    <glyph glyph-name="afii10052" unicode="&#x403;" horiz-adv-x="827" 
d="M176 0l168 1366h623l-19 -143h-471l-149 -1223h-152zM881 1806l133 -92l-344 -239l-80 65z" />
    <glyph glyph-name="afii10053" unicode="&#x404;" horiz-adv-x="1331" 
d="M1382 1253l-22 -188q-66 77 -160 125q-107 55 -229 55q-118 0 -214 -31t-186 -102q-167 -133 -200 -334h788l-18 -143h-793q-1 -118 38.5 -216.5t102.5 -162.5q131 -137 345 -137q149 0 260 57q94 49 172 121l-23 -188q-100 -70 -174 -97q-98 -37 -246 -37
q-288 0 -465 185q-172 180 -172 454q0 185 64 327t166 241q116 113 252 160t301 47q154 0 268 -48q69 -29 145 -88z" />
    <glyph glyph-name="afii10054" unicode="&#x405;" horiz-adv-x="1060" 
d="M1051 1176l-129 -80q-21 62 -76 106q-56 43 -154 43q-108 0 -172 -57q-32 -29 -51.5 -72.5t-19.5 -89.5q0 -74 57 -125q37 -34 115 -72l122 -57q112 -52 175 -117q55 -56 73.5 -110.5t18.5 -128.5q0 -190 -115 -310q-127 -131 -354 -131q-90 0 -157.5 22.5t-125.5 80.5
q-46 47 -77 113t-38 137l152 41q6 -108 74 -179q41 -42 87.5 -56.5t106.5 -14.5q140 0 213 76q36 38 55 91.5t19 106.5q0 108 -74 174q-44 40 -133 82l-108 51q-37 16 -84.5 45t-77.5 60q-78 82 -78 211q0 155 106 258q118 115 301 115q138 0 226 -58q83 -55 123 -155z" />
    <glyph glyph-name="afii10055" unicode="&#x406;" horiz-adv-x="503" 
d="M344 1366h152l-168 -1366h-152z" />
    <glyph glyph-name="afii10056" unicode="&#x407;" horiz-adv-x="503" 
d="M344 1366h152l-168 -1366h-152zM479 1593q0 56 37 90q27 27 68 27q35 0 59 -24q25 -28 25 -72q0 -46 -33 -84q-29 -29 -70 -29q-36 0 -61 25t-25 67zM229 1593q0 56 37 90q27 27 68 27q35 0 59 -24q25 -28 25 -72q0 -46 -33 -84q-29 -29 -70 -29q-36 0 -61 25t-25 67z
" />
    <glyph glyph-name="afii10057" unicode="&#x408;" horiz-adv-x="612" 
d="M453 1366h151l-121 -987q-14 -116 -38 -193t-74 -127q-84 -84 -238 -84q-76 0 -137 31q-52 25 -94 70l98 119q22 -28 61 -52q44 -24 89 -24q65 0 106 41q56 56 76 219z" />
    <glyph glyph-name="afii10058" unicode="&#x409;" horiz-adv-x="1892" 
d="M995 0l148 1223h-527l-79 -654q-23 -180 -59 -297t-103 -184q-46 -47 -114.5 -73.5t-145.5 -26.5q-46 0 -86 12l18 143q35 -12 68 -12q88 0 149 57q54 51 78 137t41 226l100 815h832l-70 -567h152q255 0 368 -115q93 -96 93 -244q0 -112 -36.5 -192.5t-88.5 -128.5
q-43 -40 -96.5 -66t-112 -36.5t-99 -13.5t-90.5 -3h-340zM1227 655l-62 -512h176q190 0 273 70q38 34 62 90t24 121q0 129 -92 188q-61 43 -226 43h-155z" />
    <glyph glyph-name="afii10059" unicode="&#x40a;" horiz-adv-x="1923" 
d="M1276 799h151q257 0 369 -115q92 -95 92 -248q0 -200 -125 -317q-43 -40 -96.5 -66t-111.5 -36.5t-98.5 -13.5t-90.5 -3h-340l82 655h-700l-80 -655h-152l168 1366h152l-70 -567h700l66 567h154zM1257 655l-61 -512h176q190 0 273 70q38 32 62 87t24 122
q0 77 -28.5 122.5t-64.5 67.5q-61 43 -225 43h-156z" />
    <glyph glyph-name="afii10060" unicode="&#x40b;" horiz-adv-x="1394" 
d="M1071 1223h-414l-49 -402q111 15 242 15q244 0 352 -76q113 -77 113 -225q0 -4 -12 -142l-50 -393h-151l47 373q10 77 10 121q0 59 -21.5 98.5t-74.5 64.5q-79 35 -217 35q-128 0 -254 -14l-84 -678h-152l150 1223h-328l19 143h893z" />
    <glyph glyph-name="afii10061" unicode="&#x40c;" horiz-adv-x="1163" 
d="M496 1366l-72 -586l653 586h205l-725 -639l569 -727h-200l-482 627l-45 -39l-71 -588h-152l168 1366h152zM971 1806l133 -92l-344 -239l-80 65z" />
    <glyph glyph-name="afii10062" unicode="&#x40e;" horiz-adv-x="1163" 
d="M184 1366h174l328 -805l455 805h174l-785 -1366h-163l221 381zM453 1675l145 47q10 -51 49 -82q41 -32 119 -32t123 32q46 32 57 82l137 -47q-32 -97 -127 -151q-82 -47 -194 -47q-139 0 -221 65q-67 54 -88 133z" />
    <glyph glyph-name="afii10145" unicode="&#x40f;" horiz-adv-x="1347" 
d="M176 0l168 1366h152l-150 -1223h692l150 1223h151l-168 -1366h-426l-38 -328h-144l39 328h-426z" />
    <glyph glyph-name="afii10017" unicode="&#x410;" horiz-adv-x="1273" 
d="M1094 0l-113 385h-582l-211 -385h-172l805 1432l436 -1432h-163zM477 528h463l-164 547z" />
    <glyph glyph-name="afii10018" unicode="&#x411;" horiz-adv-x="1089" 
d="M176 0l168 1366h678l-18 -143h-527l-51 -424h147q267 0 377 -115q88 -90 88 -246q0 -203 -112 -311q-130 -127 -406 -127h-344zM408 655l-62 -512h193q183 0 266 80q76 72 76 199q0 125 -86 188q-70 45 -213 45h-174z" />
    <glyph glyph-name="afii10019" unicode="&#x412;" horiz-adv-x="1089" 
d="M344 1366h223q235 0 340 -109q80 -80 80 -217q0 -113 -47 -196q-40 -74 -127 -115q82 -33 137 -88q84 -87 84 -227q0 -196 -125 -301q-132 -113 -377 -113h-356zM477 1223l-55 -457h98q162 0 242 70q74 64 74 182q0 107 -76 160q-61 45 -182 45h-101zM406 631l-60 -488
h184q175 0 256 60q41 29 68 81t27 122q0 127 -101 184q-70 41 -221 41h-153z" />
    <glyph glyph-name="afii10020" unicode="&#x413;" horiz-adv-x="827" 
d="M176 0l168 1366h623l-19 -143h-471l-149 -1223h-152z" />
    <glyph glyph-name="afii10021" unicode="&#x414;" horiz-adv-x="1310" 
d="M463 1366h831l-149 -1223h155l-53 -430h-143l35 287h-967l-35 -287h-143l53 430q96 12 168 84q68 68 106 181t58 278zM596 1223l-66 -537q-32 -248 -88 -367q-50 -104 -137 -176h688l131 1080h-528z" />
    <glyph glyph-name="afii10022" unicode="&#x415;" horiz-adv-x="987" 
d="M1053 1366l-19 -143h-557l-49 -406h541l-19 -143h-540l-64 -531h557l-18 -143h-709l168 1366h709z" />
    <glyph glyph-name="afii10024" unicode="&#x416;" horiz-adv-x="1658" 
d="M922 1366h151l-72 -586l592 586h189l-656 -637l500 -729h-188l-424 625l-37 -37l-72 -588h-151l71 588l-28 37l-576 -625h-192l684 729l-496 637h184l449 -586z" />
    <glyph glyph-name="afii10025" unicode="&#x417;" horiz-adv-x="1136" 
d="M414 1098l-111 92q71 88 164 141q108 58 242 58q183 0 284 -103q82 -85 82 -211q0 -146 -71 -231q-57 -69 -156 -101q94 -17 153 -81q82 -82 82 -230q0 -196 -127 -323q-81 -79 -174 -106.5t-200 -27.5q-203 0 -324 95q-47 38 -85 94.5t-52.5 89.5t-18.5 49l146 66
q30 -109 106 -176q85 -74 236 -74q155 0 246 86q90 87 90 221q0 122 -88 182q-76 51 -230 51h-139l16 144h113q162 0 242 67q78 68 78 179q0 87 -64 143q-64 53 -168 53q-96 0 -164 -45q-57 -36 -108 -102z" />
    <glyph glyph-name="afii10026" unicode="&#x418;" horiz-adv-x="1454" 
d="M1126 0l127 1042l-1085 -1103l176 1427h152l-129 -1047l1085 1104l-174 -1423h-152z" />
    <glyph glyph-name="afii10027" unicode="&#x419;" horiz-adv-x="1454" 
d="M1126 0l127 1042l-1085 -1103l176 1427h152l-129 -1047l1085 1104l-174 -1423h-152zM621 1675l145 47q10 -51 49 -82q41 -32 119 -32t123 32q46 32 57 82l137 -47q-32 -97 -127 -151q-82 -47 -194 -47q-139 0 -221 65q-67 54 -88 133z" />
    <glyph glyph-name="afii10028" unicode="&#x41a;" horiz-adv-x="1163" 
d="M496 1366l-72 -586l653 586h205l-725 -639l569 -727h-200l-482 627l-45 -39l-71 -588h-152l168 1366h152z" />
    <glyph glyph-name="afii10029" unicode="&#x41b;" horiz-adv-x="1323" 
d="M483 1366h832l-168 -1366h-152l150 1223h-529l-79 -654q-23 -180 -59 -297t-103 -184q-46 -47 -114.5 -73.5t-145.5 -26.5q-46 0 -86 12l18 143q35 -12 68 -12q88 0 149 57q54 51 78 137t41 226z" />
    <glyph glyph-name="afii10030" unicode="&#x41c;" horiz-adv-x="1767" 
d="M287 0h-158l403 1442l383 -1153l678 1155l35 -1444h-153l-13 950l-588 -1007l-335 1007z" />
    <glyph glyph-name="afii10031" unicode="&#x41d;" horiz-adv-x="1355" 
d="M496 1366l-68 -555h700l68 555h152l-168 -1366h-152l82 668h-700l-82 -668h-152l168 1366h152z" />
    <glyph glyph-name="afii10032" unicode="&#x41e;" horiz-adv-x="1638" 
d="M817 -25q-281 0 -455 179q-176 180 -176 452q0 192 67.5 333.5t166.5 234.5q226 215 561 215q285 0 459 -172q180 -176 180 -447q0 -164 -58.5 -317.5t-170.5 -262.5q-98 -95 -244.5 -155t-329.5 -60zM965 1245q-127 0 -239 -43t-194 -119q-82 -77 -135 -190t-53 -258
q0 -232 141 -377q135 -139 349 -139q134 0 249.5 44t192.5 120q89 86 137.5 209.5t48.5 248.5q0 111 -38.5 205t-104.5 160q-139 139 -354 139z" />
    <glyph glyph-name="afii10033" unicode="&#x41f;" horiz-adv-x="1355" 
d="M344 1366h1004l-168 -1366h-152l150 1223h-701l-149 -1223h-152z" />
    <glyph glyph-name="afii10034" unicode="&#x420;" horiz-adv-x="935" 
d="M344 1366h248q223 0 330 -104q94 -91 94 -258q0 -94 -31.5 -169t-79.5 -122q-123 -119 -387 -119h-117l-73 -594h-152zM477 1223l-59 -486h129q165 0 246 74q73 66 73 188q0 119 -75 175q-63 49 -201 49h-113z" />
    <glyph glyph-name="afii10035" unicode="&#x421;" horiz-adv-x="1331" 
d="M1382 1253l-22 -188q-72 80 -160 125q-107 55 -231 55q-131 0 -245.5 -46.5t-199.5 -131.5q-84 -86 -131 -200.5t-47 -237.5q0 -218 143 -369q135 -141 345 -141q149 0 260 57q94 49 172 121l-23 -188q-100 -70 -174 -97q-98 -37 -246 -37q-287 0 -465 181
q-172 175 -172 456q0 345 230 570q116 113 253 160t300 47q154 0 268 -48q69 -29 145 -88z" />
    <glyph glyph-name="afii10036" unicode="&#x422;" horiz-adv-x="872" 
d="M993 1223h-331l-150 -1223h-152l150 1223h-332l19 143h815z" />
    <glyph glyph-name="afii10037" unicode="&#x423;" horiz-adv-x="1163" 
d="M184 1366h174l328 -805l455 805h174l-785 -1366h-163l221 381z" />
    <glyph glyph-name="afii10038" unicode="&#x424;" horiz-adv-x="1691" 
d="M770 0l25 193h-13q-156 0 -278 41t-193 112q-121 125 -121 332q0 247 168 407q98 95 228 133.5t315 38.5h23l20 164h152l-21 -164h10q309 0 463 -149q129 -126 129 -328q0 -256 -166 -413q-102 -95 -237.5 -134.5t-310.5 -39.5h-17l-24 -193h-152zM811 336l96 778h-41
q-266 0 -399 -131q-119 -119 -119 -305q0 -166 113 -256q106 -86 325 -86h25zM1059 1114l-96 -778h41q221 0 350 88q75 51 121.5 138t46.5 204q0 170 -121 264q-106 84 -316 84h-26z" />
    <glyph glyph-name="afii10039" unicode="&#x425;" horiz-adv-x="1028" 
d="M29 0l489 707l-285 659h168l220 -514l354 514h172l-457 -659l309 -707h-168l-243 561l-387 -561h-172z" />
    <glyph glyph-name="afii10040" unicode="&#x426;" horiz-adv-x="1355" 
d="M176 0l168 1366h152l-150 -1223h692l150 1223h151l-149 -1223h156l-54 -430h-143l35 287h-1008z" />
    <glyph glyph-name="afii10041" unicode="&#x427;" horiz-adv-x="1212" 
d="M885 0l73 598q-138 -27 -241 -27q-212 0 -326 66q-137 78 -137 240q0 51 12 147l41 342h152l-41 -332q-10 -88 -10 -121q0 -49 15 -86.5t60 -66.5q67 -45 246 -45q128 0 246 22l78 629h151l-168 -1366h-151z" />
    <glyph glyph-name="afii10042" unicode="&#x428;" horiz-adv-x="1888" 
d="M176 0l168 1366h152l-150 -1223h541l149 1223h152l-150 -1223h541l150 1223h151l-168 -1366h-1536z" />
    <glyph glyph-name="afii10043" unicode="&#x429;" horiz-adv-x="1896" 
d="M176 0l168 1366h152l-150 -1223h541l149 1223h152l-150 -1223h541l150 1223h151l-149 -1223h155l-53 -430h-143l34 287h-1548z" />
    <glyph glyph-name="afii10044" unicode="&#x42a;" horiz-adv-x="1253" 
d="M356 0l150 1223h-328l19 143h479l-70 -567h152q256 0 368 -115q93 -96 93 -244q0 -112 -36.5 -192.5t-88.5 -128.5q-43 -40 -96.5 -66t-112 -36.5t-99 -13.5t-90.5 -3h-340zM588 655l-62 -512h176q190 0 273 70q38 32 62 87t24 122q0 134 -92 190q-61 43 -226 43h-155z
" />
    <glyph glyph-name="afii10045" unicode="&#x42b;" horiz-adv-x="1454" 
d="M1294 1366h152l-168 -1366h-152zM176 0l166 1366h154l-70 -567h152q256 0 368 -115q92 -92 92 -244q0 -112 -36.5 -192.5t-88.5 -128.5q-43 -40 -96.5 -66t-111.5 -36.5t-98.5 -13.5t-90.5 -3h-340zM408 655l-62 -512h176q190 0 273 70q38 32 62 87t24 122
q0 77 -28.5 122.5t-64.5 67.5q-61 43 -225 43h-155z" />
    <glyph glyph-name="afii10046" unicode="&#x42c;" horiz-adv-x="1073" 
d="M176 0l166 1366h154l-70 -567h152q256 0 368 -115q92 -95 92 -244q0 -112 -36.5 -192.5t-88.5 -128.5q-43 -40 -96.5 -66t-111.5 -36.5t-98.5 -13.5t-90.5 -3h-340zM408 655l-62 -512h176q190 0 273 70q38 32 62 87t24 122q0 77 -28.5 122.5t-64.5 67.5q-61 43 -225 43
h-155z" />
    <glyph glyph-name="afii10047" unicode="&#x42d;" horiz-adv-x="1329" 
d="M233 1065l23 188q87 52 184 90q121 46 254 46q140 0 252 -42t187 -112q178 -165 178 -459q0 -69 -9 -138.5t-31.5 -155t-71 -169.5t-118.5 -151q-104 -99 -228.5 -143t-279.5 -44t-286 48q-90 31 -170 90l22 184q69 -75 172 -123q118 -55 273 -55q244 0 387 141
q141 137 170 375h-797l18 143h791q0 108 -38.5 199t-98.5 149q-121 119 -330 119q-149 0 -280 -63q-103 -52 -173 -117z" />
    <glyph glyph-name="afii10048" unicode="&#x42e;" horiz-adv-x="2033" 
d="M426 797h205q47 209 192 366q212 226 543 226q146 0 268 -48t207 -133q174 -174 174 -460q0 -181 -63.5 -326t-165.5 -246q-207 -201 -522 -201q-300 0 -480 191q-177 186 -174 487h-202l-80 -653h-152l168 1366h152zM1350 1245q-117 0 -221.5 -43.5t-178.5 -114.5
q-82 -79 -133 -200t-51 -252q0 -106 39 -204.5t104 -166.5q64 -67 159 -106t210 -39q114 0 217 38.5t178 108.5q83 76 134 200t51 267q0 100 -32.5 192.5t-92.5 159.5q-64 72 -165 116t-218 44z" />
    <glyph glyph-name="afii10049" unicode="&#x42f;" horiz-adv-x="1044" 
d="M61 0l476 608q-63 7 -122.5 35t-101.5 68q-86 84 -86 233q0 184 111 299q70 71 170.5 97t249.5 26h278l-168 -1366h-151l74 598h-78l-463 -598h-189zM866 1223h-147q-188 0 -266 -80q-66 -68 -66 -180q0 -61 19 -107t73 -78q72 -45 197 -45h131z" />
    <glyph glyph-name="afii10065" unicode="&#x430;" horiz-adv-x="1081" 
d="M885 729l14 121h148l-105 -850h-147l14 119q-49 -67 -107 -101q-75 -43 -176 -43q-176 0 -276 105q-111 120 -111 303q0 123 41 219t107 158q116 110 305 110q104 0 180 -41q72 -38 113 -100zM604 739q-121 0 -205 -80q-48 -45 -78 -117t-30 -149q0 -64 23 -124t65 -99
q67 -64 172 -64q133 0 211 84q45 46 70.5 121.5t25.5 155.5q0 131 -80 205q-71 67 -174 67z" />
    <glyph glyph-name="afii10066" unicode="&#x431;" horiz-adv-x="1083" 
d="M981 1434h164q-31 -78 -80 -125q-11 -10 -23 -19.5t-21.5 -16.5t-25.5 -15t-24 -12.5t-27 -11t-24.5 -9t-27.5 -8.5t-25 -7t-28 -7.5t-26 -6.5q-117 -29 -197.5 -60.5t-134.5 -82.5q-101 -94 -157 -338h4q41 57 104 98q92 57 215 57q96 0 173.5 -30t127.5 -80
q105 -105 105 -277q0 -228 -140 -368t-362 -140q-94 0 -168 26.5t-133 92.5q-103 116 -103 309q0 81 17 204.5t39 203.5q25 91 69.5 177.5t102.5 146.5q102 104 272 153q26 7 111.5 27t124.5 35q71 29 98 84zM623 739q-138 0 -230 -92q-98 -98 -98 -256q0 -138 80 -215
q72 -70 190 -70q144 0 236 95q100 103 100 264q0 123 -76 199q-75 75 -202 75z" />
    <glyph glyph-name="afii10067" unicode="&#x432;" horiz-adv-x="882" 
d="M244 850h297q119 0 180 -47q72 -55 72 -150q0 -71 -33 -118q-32 -47 -82 -68q59 -15 98 -59q51 -54 51 -138q0 -115 -71 -186q-88 -84 -248 -84h-219h-150zM348 504h156q72 0 112 33q37 29 37 84q0 57 -47 81q-34 17 -110 17h-121zM303 131h186q99 0 142 29q53 37 53 104
q0 63 -51 94q-41 23 -131 23h-168z" />
    <glyph glyph-name="afii10068" unicode="&#x433;" horiz-adv-x="651" 
d="M139 0l105 850h504l-17 -135h-356l-88 -715h-148z" />
    <glyph glyph-name="afii10069" unicode="&#x434;" horiz-adv-x="942" 
d="M305 850h598l-88 -715h127l-45 -360h-135l29 225h-648l-28 -225h-135l45 360q77 4 135 62q27 26 45 57t28.5 74t14 66t10.5 77zM668 135l71 580h-303l-33 -275q-13 -122 -45 -186q-40 -79 -96 -119h406z" />
    <glyph glyph-name="afii10070" unicode="&#x435;" horiz-adv-x="989" 
d="M809 285l125 -68q-30 -51 -73 -99t-85 -77q-101 -66 -246 -66q-85 0 -153.5 23t-126.5 84q-113 117 -113 305q0 107 38.5 201.5t107.5 163.5q118 118 297 118q176 0 276 -100q125 -129 96 -375h-661q-2 -147 76 -225q64 -64 168 -64q95 0 163 48q64 46 111 131zM315 518
h496q-2 46 -21 92t-51 76q-55 53 -155 53q-116 0 -187 -71q-61 -61 -82 -150z" />
    <glyph glyph-name="afii10072" unicode="&#x436;" horiz-adv-x="1220" 
d="M641 850h147l-43 -348l363 348h172l-424 -401l348 -449h-176l-272 358l-31 -28l-41 -330h-147l41 330l-27 28l-358 -358h-185l465 459l-319 391h168l276 -348z" />
    <glyph glyph-name="afii10073" unicode="&#x437;" horiz-adv-x="827" 
d="M289 633l-92 84q52 64 120 106q79 47 191 47q126 0 197 -71q55 -58 55 -142q0 -74 -39 -125q-28 -40 -82 -61q56 -19 96 -70q39 -51 39 -118q0 -69 -27.5 -130.5t-80.5 -103.5q-92 -74 -263 -74q-136 0 -221 66q-31 25 -58 62t-37.5 59.5t-12.5 30.5l131 53
q19 -60 65 -96q57 -44 144 -44q95 0 147 37q62 43 62 123q0 62 -50 92q-42 27 -124 27h-87l17 135h72q100 0 141 39q29 29 29 74q0 43 -29 72q-34 34 -105 34t-120 -32q-45 -28 -78 -74z" />
    <glyph glyph-name="afii10074" unicode="&#x438;" horiz-adv-x="1007" 
d="M244 850h147l-69 -565l659 630l-113 -915h-147l70 571l-660 -630z" />
    <glyph glyph-name="afii10075" unicode="&#x439;" horiz-adv-x="1007" 
d="M244 850h147l-69 -565l659 630l-113 -915h-147l70 571l-660 -630zM369 1217l123 47q16 -60 57 -90q42 -33 113 -33q69 0 112 30q49 36 66 93l123 -47q-40 -92 -111 -144q-76 -55 -190 -55q-120 0 -195 57q-73 57 -98 142z" />
    <glyph glyph-name="afii10076" unicode="&#x43a;" horiz-adv-x="864" 
d="M244 850h147l-43 -348l387 348h180l-423 -383l356 -467h-184l-287 373l-49 -43l-41 -330h-148z" />
    <glyph glyph-name="afii10077" unicode="&#x43b;" horiz-adv-x="921" 
d="M887 850l-105 -850h-147l88 715h-303l-47 -373q-11 -89 -31 -150t-70 -112q-47 -47 -115 -69.5t-141 -10.5l17 135q72 -17 127 31q49 45 67 180l62 504h598z" />
    <glyph glyph-name="afii10078" unicode="&#x43c;" horiz-adv-x="1187" 
d="M41 0l317 915l267 -692l430 692l92 -915h-148l-47 526l-362 -585l-219 585l-174 -526h-156z" />
    <glyph glyph-name="afii10079" unicode="&#x43d;" horiz-adv-x="974" 
d="M139 0l105 850h147l-43 -348h402l43 348h147l-104 -850h-148l45 367h-401l-45 -367h-148z" />
    <glyph glyph-name="afii10080" unicode="&#x43e;" horiz-adv-x="1081" 
d="M549 -25q-191 0 -303 117q-109 116 -109 297q0 212 154 354q139 127 340 127q195 0 311 -116q105 -105 105 -279q0 -229 -144 -369q-135 -131 -354 -131zM629 739q-136 0 -232 -94q-108 -105 -108 -266q0 -116 73 -193q75 -80 197 -80q140 0 232 99q47 51 74.5 123
t27.5 145q0 115 -70 189q-74 77 -194 77z" />
    <glyph glyph-name="afii10081" unicode="&#x43f;" horiz-adv-x="962" 
d="M244 850h684l-105 -850h-147l88 715h-389l-88 -715h-148z" />
    <glyph glyph-name="afii10082" unicode="&#x440;" horiz-adv-x="1081" 
d="M301 119l-74 -590h-147l164 1321h147l-14 -119q49 64 119 100q72 39 174 39q166 0 266 -98q111 -106 111 -293q0 -119 -40.5 -222t-109.5 -171q-65 -64 -139.5 -87.5t-165.5 -23.5q-118 0 -195 48q-57 36 -96 96zM588 106q115 0 192 72q56 52 85.5 130.5t29.5 160.5
q0 125 -74 199q-67 71 -188 71q-127 0 -211 -90q-94 -102 -94 -258q0 -124 69 -203q74 -82 191 -82z" />
    <glyph glyph-name="afii10083" unicode="&#x441;" horiz-adv-x="901" 
d="M905 788l-20 -176q-54 61 -107 90q-66 37 -153 37q-134 0 -228 -88q-108 -104 -108 -258q0 -131 82 -213q74 -74 196 -74q88 0 158 37q64 34 119 97l-21 -177q-63 -47 -123 -65q-70 -23 -151 -23q-189 0 -299 113q-113 116 -113 297q0 98 39 193t109 163q52 52 138 90.5
t206 38.5q155 0 276 -82z" />
    <glyph glyph-name="afii10084" unicode="&#x442;" horiz-adv-x="712" 
d="M784 715h-266l-88 -715h-147l88 715h-267l17 135h680z" />
    <glyph glyph-name="afii10085" unicode="&#x443;" horiz-adv-x="942" 
d="M80 -471l338 551l-297 770h164l225 -608l352 608h168l-786 -1321h-164z" />
    <glyph glyph-name="afii10086" unicode="&#x444;" horiz-adv-x="1337" 
d="M535 -471l57 457q-112 0 -198.5 30.5t-133.5 75.5q-54 50 -87.5 125t-33.5 166q0 189 123 324q59 65 141 102t148 46t149 9l62 502h147l-61 -502q13 0 29 -1t59.5 -7.5t82.5 -18.5t87.5 -37.5t85.5 -60.5q113 -109 113 -280q0 -100 -33 -185t-88 -143
q-136 -145 -436 -145h-9l-57 -457h-147zM608 117l74 616q-195 0 -295 -98q-47 -47 -72.5 -112t-25.5 -132q0 -115 76 -188q42 -40 108 -63t135 -23zM831 733l-75 -616h8q202 0 299 100q88 90 88 240q0 126 -74 194q-43 40 -111 61t-135 21z" />
    <glyph glyph-name="afii10087" unicode="&#x445;" horiz-adv-x="925" 
d="M16 0l418 455l-260 395h176l185 -289l258 289h180l-361 -397l297 -453h-176l-225 346l-311 -346h-181z" />
    <glyph glyph-name="afii10088" unicode="&#x446;" horiz-adv-x="970" 
d="M139 0l105 850h147l-88 -715h381l88 715h148l-89 -715h140l-45 -360h-135l28 225h-680z" />
    <glyph glyph-name="afii10089" unicode="&#x447;" horiz-adv-x="880" 
d="M594 0l41 340q-82 -25 -170 -25q-60 0 -122.5 15.5t-100.5 48.5q-60 53 -60 149q0 26 13 125l24 197h148l-23 -188q-10 -76 -10 -103q0 -59 43 -84q37 -24 129 -24q90 0 145 22l47 377h148l-105 -850h-147z" />
    <glyph glyph-name="afii10090" unicode="&#x448;" horiz-adv-x="1376" 
d="M139 0l105 850h147l-88 -715h328l88 715h147l-88 -715h328l88 715h147l-104 -850h-1098z" />
    <glyph glyph-name="afii10091" unicode="&#x449;" horiz-adv-x="1392" 
d="M139 0l105 850h147l-88 -715h328l88 715h147l-88 -715h328l88 715h147l-88 -715h140l-45 -360h-136l29 225h-1102z" />
    <glyph glyph-name="afii10092" unicode="&#x44a;" horiz-adv-x="882" 
d="M201 0l88 715h-185l17 135h332l-41 -326h153q144 0 221 -65q72 -65 72 -174q0 -123 -74 -197q-86 -88 -258 -88h-176h-149zM365 131h153q93 0 139 35q50 40 50 104q0 66 -45 97q-36 26 -125 26h-140z" />
    <glyph glyph-name="afii10093" unicode="&#x44b;" horiz-adv-x="1150" 
d="M864 0l105 850h147l-104 -850h-148zM139 0l105 850h147l-41 -326h154q144 0 221 -65q72 -65 72 -174q0 -123 -74 -197q-86 -88 -258 -88h-176h-150zM303 131h154q93 0 139 35q49 39 49 104q0 66 -45 97q-36 26 -125 26h-139z" />
    <glyph glyph-name="afii10094" unicode="&#x44c;" horiz-adv-x="821" 
d="M139 0l105 850h147l-41 -326h154q144 0 221 -65q72 -65 72 -174q0 -123 -74 -197q-86 -88 -258 -88h-178h-148zM303 131h154q93 0 139 35q49 34 49 104q0 66 -45 97q-36 26 -125 26h-139z" />
    <glyph glyph-name="afii10095" unicode="&#x44d;" horiz-adv-x="872" 
d="M168 676l18 143q115 51 242 51q187 0 295 -100q115 -108 115 -301q0 -223 -133 -360q-131 -134 -353 -134q-154 0 -264 58l18 143q101 -70 236 -70q156 0 242 84q73 70 90 179h-449l17 131h444q-5 103 -80 170q-79 69 -215 69q-118 0 -223 -63z" />
    <glyph glyph-name="afii10096" unicode="&#x44e;" horiz-adv-x="1417" 
d="M348 502h152q33 133 135 235q137 133 340 133q181 0 295 -108q112 -108 112 -289q0 -104 -36.5 -203.5t-108.5 -169.5q-75 -74 -159.5 -99.5t-180.5 -25.5q-204 0 -313 117q-46 48 -75.5 119.5t-29.5 155.5h-147l-45 -367h-148l105 850h147zM963 739q-136 0 -224 -88
q-52 -52 -79 -124t-27 -146q0 -127 72 -199q35 -37 88 -56.5t106 -19.5q135 0 225 93q47 47 76 119.5t29 152.5q0 117 -72 193q-71 75 -194 75z" />
    <glyph glyph-name="afii10097" unicode="&#x44f;" horiz-adv-x="835" 
d="M41 0l307 350q-9 0 -30 4.5t-57 20.5t-62 41q-56 56 -56 145q0 131 80 207q37 36 89.5 55.5t92 23t99.5 3.5h297l-105 -850h-147l43 342h-82l-285 -342h-184zM606 465l31 254h-152q-94 0 -141 -33q-49 -35 -49 -98q0 -64 45 -94q43 -29 135 -29h131z" />
    <glyph glyph-name="afii10071" unicode="&#x451;" horiz-adv-x="989" 
d="M809 285l125 -68q-30 -51 -73 -99t-85 -77q-101 -66 -246 -66q-85 0 -153.5 23t-126.5 84q-113 117 -113 305q0 107 38.5 201.5t107.5 163.5q118 118 297 118q176 0 276 -100q125 -129 96 -375h-661q-2 -147 76 -225q64 -64 168 -64q95 0 163 48q64 46 111 131zM315 518
h496q-2 46 -21 92t-51 76q-55 53 -155 53q-116 0 -187 -71q-61 -61 -82 -150zM719 1112q0 47 35 82t82 35q37 0 63.5 -25.5t26.5 -64.5q0 -45 -37 -82q-33 -33 -78 -33q-37 0 -64.5 25t-27.5 63zM362 1112q0 47 35 82t82 35q37 0 63.5 -25.5t26.5 -64.5q0 -45 -37 -82
q-33 -33 -77 -33q-37 0 -65 25t-28 63z" />
    <glyph glyph-name="afii10099" unicode="&#x452;" horiz-adv-x="960" 
d="M139 0l129 1053h-200l14 123h201l41 317h147l-41 -317h410l-15 -123h-409l-47 -383q3 5 13.5 17t31.5 31t41 32q61 38 155 38q130 0 205 -73q68 -68 68 -191q0 -26 -13 -141l-67 -563q-11 -87 -27.5 -137.5t-58.5 -88.5q-70 -65 -187 -65q-65 0 -118 18l18 144
q55 -19 94 -19q62 0 90 33q29 29 41 123l62 514q12 96 12 145q0 84 -43 127t-119 43q-95 0 -151 -59q-61 -63 -84 -236l-45 -362h-148z" />
    <glyph glyph-name="afii10100" unicode="&#x453;" horiz-adv-x="651" 
d="M139 0l105 850h504l-17 -135h-356l-88 -715h-148zM684 1364l143 -70l-309 -276l-86 49z" />
    <glyph glyph-name="afii10101" unicode="&#x454;" horiz-adv-x="901" 
d="M905 788l-20 -176q-54 61 -107 90q-66 37 -151 37q-130 0 -217 -75q-77 -67 -103 -164h445l-17 -131h-446q4 -68 30 -117.5t52 -71.5q77 -74 196 -74q88 0 158 37q64 34 119 97l-21 -177q-63 -47 -123 -65q-70 -23 -151 -23q-189 0 -299 113q-113 116 -113 297
q0 98 39 193t109 163q52 52 138 90.5t206 38.5q155 0 276 -82z" />
    <glyph glyph-name="afii10102" unicode="&#x455;" horiz-adv-x="716" 
d="M694 717l-129 -64q-10 33 -35 58q-28 28 -73 28q-49 0 -82 -26q-33 -29 -33 -76q0 -34 25 -59q22 -22 84 -50l77 -39q66 -32 109 -75q55 -60 55 -152q0 -119 -71 -196q-84 -91 -244 -91q-110 0 -178 56q-76 63 -101 162l129 53q16 -62 52 -101q39 -39 102 -39
q74 0 115 37q43 40 43 109q0 52 -45 88q-23 20 -88 51l-48 23q-73 33 -112 78q-47 52 -47 133q0 103 71 174t193 71q90 0 153 -51q54 -45 78 -102z" />
    <glyph glyph-name="afii10103" unicode="&#x456;" horiz-adv-x="425" 
d="M244 850h147l-104 -850h-148zM252 1159q0 45 29 78q31 39 88 39q40 0 65 -25q27 -27 27 -67q0 -49 -33 -82q-33 -35 -82 -35q-41 0 -70 29q-24 24 -24 63z" />
    <glyph glyph-name="afii10104" unicode="&#x457;" horiz-adv-x="425" 
d="M248 850h147l-104 -850h-148zM377 1159q0 49 26 82q25 35 68 35q35 0 59 -27q23 -28 23 -65q0 -53 -35 -88q-25 -25 -57 -25q-35 0 -60 25q-24 24 -24 63zM158 1159q0 49 26 82q25 35 68 35q35 0 59 -27q23 -28 23 -65q0 -53 -35 -88q-25 -25 -57 -25q-35 0 -60 25
q-24 24 -24 63z" />
    <glyph glyph-name="afii10105" unicode="&#x458;" horiz-adv-x="423" 
d="M244 850h147l-164 -1321h-147zM250 1159q0 45 29 78q31 39 88 39q40 0 65 -25q27 -27 27 -67q0 -49 -33 -82q-33 -35 -82 -35q-41 0 -70 29q-24 24 -24 63z" />
    <glyph glyph-name="afii10106" unicode="&#x459;" horiz-adv-x="1316" 
d="M635 0l88 715h-303l-47 -373q-11 -89 -31 -150t-70 -112q-47 -47 -115 -69.5t-141 -10.5l17 135q72 -17 127 31q49 45 67 180l62 504h598l-41 -326h153q145 0 222 -65q71 -64 71 -174q0 -124 -73 -197q-86 -88 -258 -88h-326zM799 131h153q94 0 140 35q49 34 49 104
q0 66 -45 97q-36 26 -125 26h-140z" />
    <glyph glyph-name="afii10107" unicode="&#x45a;" horiz-adv-x="1370" 
d="M688 0l49 393h-401l-49 -393h-148l105 850h147l-39 -326h400l41 326h147l-41 -326h154q144 0 221 -65q72 -65 72 -174q0 -123 -74 -197q-86 -88 -258 -88h-326zM852 131h154q93 0 139 35q49 34 49 104q0 66 -45 97q-36 26 -125 26h-139z" />
    <glyph glyph-name="afii10108" unicode="&#x45b;" horiz-adv-x="960" 
d="M139 0l129 1053h-200l14 123h201l41 317h147l-41 -317h410l-15 -123h-409l-47 -383q3 5 13.5 17t31.5 31t41 32q61 38 155 38q130 0 205 -73q68 -68 68 -191q0 -43 -11 -129l-49 -395h-147l41 342q12 96 12 145q0 84 -43 127t-119 43q-95 0 -151 -59q-61 -63 -84 -236
l-45 -362h-148z" />
    <glyph glyph-name="afii10109" unicode="&#x45c;" horiz-adv-x="864" 
d="M244 850h147l-43 -348l387 348h180l-423 -383l356 -467h-184l-287 373l-49 -43l-41 -330h-148zM727 1364l143 -70l-309 -276l-86 49z" />
    <glyph glyph-name="afii10110" unicode="&#x45e;" horiz-adv-x="942" 
d="M80 -471l338 551l-297 770h164l225 -608l352 608h168l-786 -1321h-164zM303 1217l123 47q16 -60 57 -90q42 -33 113 -33q70 0 113 30q47 35 65 93l123 -47q-40 -92 -111 -144q-76 -55 -190 -55q-120 0 -195 57q-73 57 -98 142z" />
    <glyph glyph-name="afii10193" unicode="&#x45f;" horiz-adv-x="954" 
d="M139 0l105 850h147l-88 -715h381l88 715h148l-105 -850h-270l-29 -246h-135l29 246h-271z" />
    <glyph glyph-name="afii10146" unicode="&#x462;" horiz-adv-x="1253" 
d="M356 0l129 1059h-327l18 143h328l26 219h152l-27 -219h369l-18 -143h-369l-31 -260h152q256 0 368 -115q93 -95 93 -242q0 -205 -125 -323q-43 -40 -96.5 -66t-112 -36.5t-99 -13.5t-90.5 -3h-340zM588 655l-62 -512h176q190 0 273 70q38 32 62 87t24 122q0 134 -92 190
q-61 43 -226 43h-155z" />
    <glyph glyph-name="afii10194" unicode="&#x463;" horiz-adv-x="882" 
d="M201 0l88 715h-185l17 135h184l64 516h147l-63 -516h245l-16 -135h-246l-24 -191h153q144 0 221 -65q72 -65 72 -174q0 -123 -74 -197q-86 -88 -258 -88h-325zM365 131h153q93 0 139 35q50 34 50 104q0 66 -45 97q-36 26 -125 26h-140z" />
    <glyph glyph-name="afii10147" unicode="&#x472;" horiz-adv-x="1638" 
d="M817 -25q-281 0 -455 179q-176 180 -176 452q0 192 67.5 333.5t166.5 234.5q226 215 561 215q285 0 459 -172q180 -176 180 -447q0 -164 -58.5 -317.5t-170.5 -262.5q-98 -95 -244.5 -155t-329.5 -60zM360 778h1100q-1 22 -6 50.5t-18.5 77.5t-43.5 103t-73 97
q-139 139 -354 139q-135 0 -245 -44.5t-188 -117.5q-132 -125 -172 -305zM1454 635h-1110q-1 -117 38.5 -214t102.5 -163q135 -139 349 -139q134 0 249.5 44t192.5 120q142 139 178 352z" />
    <glyph glyph-name="afii10195" unicode="&#x473;" horiz-adv-x="1081" 
d="M549 -25q-191 0 -303 117q-109 116 -109 297q0 212 154 354q139 127 340 127q195 0 311 -116q105 -105 105 -279q0 -229 -144 -369q-135 -131 -354 -131zM307 500h584q-5 95 -68 162q-74 77 -198 77q-121 0 -211 -75q-81 -68 -107 -164zM879 369h-590q6 -112 73 -183
q73 -80 201 -80q119 0 203 70q86 72 113 193z" />
    <glyph glyph-name="afii10148" unicode="&#x474;" horiz-adv-x="1138" 
d="M184 1366h166l256 -1042l514 1042h170l-731 -1448z" />
    <glyph glyph-name="afii10196" unicode="&#x475;" horiz-adv-x="868" 
d="M121 850h160l184 -574l323 574h168l-528 -905z" />
    <glyph glyph-name="afii10050" unicode="&#x490;" horiz-adv-x="827" 
d="M176 0l168 1366h479l35 287h143l-53 -430h-471l-149 -1223h-152z" />
    <glyph glyph-name="afii10098" unicode="&#x491;" horiz-adv-x="671" 
d="M139 0l105 850h368l27 225h135l-43 -360h-356l-88 -715h-148z" />
    <glyph glyph-name="uni0492" unicode="&#x492;" horiz-adv-x="827" 
d="M176 0l84 684h-176l16 135h176l68 547h623l-19 -143h-471l-49 -404h279l-17 -135h-278l-84 -684h-152z" />
    <glyph glyph-name="uni0493" unicode="&#x493;" horiz-adv-x="651" 
d="M139 0l47 385h-139l14 123h140l43 342h504l-17 -135h-356l-27 -207h205l-14 -123h-205l-47 -385h-148z" />
    <glyph glyph-name="uni0494" unicode="&#x494;" horiz-adv-x="1146" 
d="M1026 1223h-549l-53 -435q132 48 270 48q190 0 299 -101q50 -46 82.5 -127t32.5 -192q0 -93 -32 -182t-91 -146q-104 -102 -303 -102q-82 0 -170 16l18 141q74 -14 142 -14q127 0 198 66q78 70 78 221q0 131 -63 202q-66 74 -213 74q-139 0 -264 -47l-80 -645h-152
l168 1366h700z" />
    <glyph glyph-name="uni0495" unicode="&#x495;" horiz-adv-x="880" 
d="M139 0l105 850h504l-17 -135h-356l-29 -232h25q223 0 334 -116q92 -97 92 -258q0 -49 -9 -99t-31.5 -109.5t-69 -116.5t-112.5 -101q-134 -90 -301 -109l17 143q126 19 205 78q65 47 107 130t42 175q0 63 -21 113.5t-55 79.5q-38 34 -86 44.5t-112 10.5h-41l-43 -348
h-148z" />
    <glyph glyph-name="uni0496" unicode="&#x496;" horiz-adv-x="1658" 
d="M922 1366h151l-72 -586l592 586h189l-656 -637l402 -586h117l-54 -430h-143l35 287h-45l-424 625l-37 -37l-72 -588h-151l71 588l-28 37l-576 -625h-192l684 729l-496 637h184l449 -586z" />
    <glyph glyph-name="uni0497" unicode="&#x497;" horiz-adv-x="1220" 
d="M641 850h147l-43 -348l363 348h172l-424 -401l244 -314h119l-45 -360h-136l29 225h-39l-272 358l-31 -28l-41 -330h-147l41 330l-27 28l-358 -358h-185l465 459l-319 391h168l276 -348z" />
    <glyph glyph-name="uni0498" unicode="&#x498;" horiz-adv-x="1136" 
d="M414 1098l-111 92q71 88 164 141q108 58 242 58q181 0 278 -95q88 -85 88 -227q0 -135 -71 -223q-57 -69 -156 -101q94 -17 153 -81q82 -84 82 -226q0 -93 -33 -178.5t-94 -148.5q-51 -53 -129.5 -90.5t-177.5 -41.5l-39 -305h-143l39 308q-144 6 -248 90
q-50 40 -91.5 103.5t-64.5 129.5l146 66q30 -109 106 -176q85 -74 236 -74q155 0 246 86q90 87 90 221q0 122 -88 182q-76 51 -230 51h-139l16 144h113q162 0 242 67q78 68 78 179q0 87 -64 143q-64 53 -168 53q-96 0 -164 -45q-57 -36 -108 -102z" />
    <glyph glyph-name="uni0499" unicode="&#x499;" horiz-adv-x="827" 
d="M289 633l-92 84q52 64 120 106q79 47 191 47q126 0 197 -71q55 -58 55 -144q0 -71 -39 -123q-28 -40 -82 -61q47 -15 80 -51q55 -58 55 -141q0 -125 -84 -209q-88 -88 -225 -93l-29 -223h-135l29 228q-101 10 -170 79q-54 52 -86 132l131 53q23 -62 65 -96
q55 -44 144 -44q108 0 164 52q45 45 45 108q0 62 -50 92q-42 27 -124 27h-87l17 135h72q100 0 141 39q29 29 29 74q0 43 -29 72q-34 34 -105 34q-70 0 -120 -32q-43 -27 -78 -74z" />
    <glyph glyph-name="uni049A" unicode="&#x49a;" horiz-adv-x="1163" 
d="M496 1366l-72 -586l653 586h205l-721 -637l459 -586h129l-53 -430h-144l35 287h-61l-482 627l-45 -39l-71 -588h-152l168 1366h152z" />
    <glyph glyph-name="uni049B" unicode="&#x49b;" horiz-adv-x="864" 
d="M244 850h147l-43 -348l387 348h180l-423 -383l253 -332h119l-45 -360h-135l29 225h-49l-287 373l-49 -43l-41 -330h-148z" />
    <glyph glyph-name="uni049C" unicode="&#x49c;" horiz-adv-x="1329" 
d="M344 1366h152l-74 -596h164l35 287h135l-35 -287l551 596h178l-610 -659l465 -707h-195l-405 635l-37 -307h-136l37 307h-163l-78 -635h-152z" />
    <glyph glyph-name="uni049D" unicode="&#x49d;" horiz-adv-x="921" 
d="M244 850h147l-43 -348h103l24 205h123l-25 -205l267 348h159l-313 -408l223 -442h-159l-191 379l-29 -225h-122l28 225h-102l-47 -379h-148z" />
    <glyph glyph-name="uni04A0" unicode="&#x4a0;" horiz-adv-x="1343" 
d="M1462 1366l-721 -637l570 -729h-205l-481 627l-45 -39l-72 -588h-152l150 1223h-328l19 143h479l-72 -586l653 586h205z" />
    <glyph glyph-name="uni04A1" unicode="&#x4a1;" horiz-adv-x="925" 
d="M201 0l88 715h-185l17 135h332l-43 -348l387 348h180l-424 -383l356 -467h-184l-287 373l-49 -43l-41 -330h-147z" />
    <glyph glyph-name="uni04A2" unicode="&#x4a2;" horiz-adv-x="1363" 
d="M176 0l168 1366h152l-68 -555h700l68 555h152l-150 -1223h156l-54 -430h-143l35 287h-164l82 668h-700l-82 -668h-152z" />
    <glyph glyph-name="uni04A3" unicode="&#x4a3;" horiz-adv-x="991" 
d="M139 0l105 850h147l-43 -348h402l43 348h147l-88 -715h139l-45 -360h-135l29 225h-152l45 367h-401l-45 -367h-148z" />
    <glyph glyph-name="uni04A4" unicode="&#x4a4;" horiz-adv-x="1679" 
d="M176 0l168 1366h152l-68 -555h700l68 555h623l-19 -143h-471l-149 -1223h-152l82 668h-700l-82 -668h-152z" />
    <glyph glyph-name="uni04A5" unicode="&#x4a5;" horiz-adv-x="1200" 
d="M139 0l105 850h147l-43 -348h402l43 348h503l-16 -135h-356l-88 -715h-148l45 367h-401l-45 -367h-148z" />
    <glyph glyph-name="uni04AA" unicode="&#x4aa;" horiz-adv-x="1331" 
d="M1382 1253l-22 -188q-72 80 -160 125q-107 55 -231 55q-131 0 -245.5 -46.5t-199.5 -131.5q-84 -86 -131 -200.5t-47 -237.5q0 -218 143 -369q135 -141 345 -141q149 0 260 57q94 49 172 121l-23 -188q-160 -115 -330 -132l-39 -305h-143l39 308q-245 4 -412 176
q-172 178 -172 454q0 107 22.5 203t60.5 166.5t73 117.5t74 85q113 112 248 159.5t303 47.5q148 0 256 -43q90 -36 159 -93z" />
    <glyph glyph-name="uni04AB" unicode="&#x4ab;" horiz-adv-x="901" 
d="M905 788l-20 -176q-54 61 -107 90q-66 37 -153 37q-134 0 -228 -88q-108 -104 -108 -258q0 -131 82 -213q74 -74 196 -74q88 0 158 37q64 34 119 97l-21 -177q-88 -68 -205 -86l-28 -223h-135l28 228q-137 10 -233 106q-113 116 -113 293q0 100 39.5 196.5t108.5 163.5
q134 129 338 129q159 0 282 -82z" />
    <glyph glyph-name="uni04AE" unicode="&#x4ae;" horiz-adv-x="1085" 
d="M465 0l72 588l-353 778h172l273 -610l428 610h180l-549 -778l-72 -588h-151z" />
    <glyph glyph-name="uni04AF" unicode="&#x4af;" horiz-adv-x="868" 
d="M121 850h160l184 -574l323 574h168l-436 -746l-69 -575h-148l70 575z" />
    <glyph glyph-name="uni04B0" unicode="&#x4b0;" horiz-adv-x="1085" 
d="M465 0l55 453h-389l16 135h390l-353 778h172l273 -610l428 610h180l-549 -778h389l-16 -135h-389l-56 -453h-151z" />
    <glyph glyph-name="uni04B1" unicode="&#x4b1;" horiz-adv-x="868" 
d="M121 850h160l184 -574l323 574h168l-436 -746l-12 -104h246l-17 -135h-245l-43 -336h-148l43 336h-246l17 135h245l13 104z" />
    <glyph glyph-name="uni04B2" unicode="&#x4b2;" horiz-adv-x="1060" 
d="M29 0l489 707l-285 659h168l220 -514l354 514h172l-457 -659l250 -564h113l-54 -430h-143l35 287h-60l-243 561l-387 -561h-172z" />
    <glyph glyph-name="uni04B3" unicode="&#x4b3;" horiz-adv-x="925" 
d="M16 0l418 455l-260 395h176l185 -289l258 289h180l-361 -397l207 -318h105l-45 -360h-136l29 225h-39l-225 346l-311 -346h-181z" />
    <glyph glyph-name="uni04B6" unicode="&#x4b6;" horiz-adv-x="1220" 
d="M1049 0h-164l73 598q-138 -27 -241 -27q-212 0 -326 66q-137 78 -137 240q0 51 12 147l41 342h152l-41 -332q-10 -88 -10 -121q0 -49 15 -86.5t60 -66.5q67 -45 246 -45q128 0 246 22l78 629h151l-149 -1223h155l-53 -430h-143z" />
    <glyph glyph-name="uni04B7" unicode="&#x4b7;" horiz-adv-x="897" 
d="M698 850h148l-88 -715h139l-45 -360h-135l28 225h-151l41 340q-82 -25 -170 -25q-60 0 -122.5 15.5t-100.5 48.5q-60 53 -60 149q0 26 13 125l24 197h148l-23 -188q-10 -76 -10 -103q0 -59 43 -84q37 -24 129 -24q90 0 145 22z" />
    <glyph glyph-name="uni04B8" unicode="&#x4b8;" horiz-adv-x="1275" 
d="M948 0l72 584q-130 -18 -240 -15l-35 -282h-135l35 284q-70 0 -145.5 19t-124.5 51q-121 77 -121 233q0 37 14 156l41 336h152l-41 -330q-12 -96 -12 -127q0 -114 77 -161q28 -18 79.5 -28.5t99.5 -8.5l36 305h136l-37 -314q119 -3 237 17l80 647h152l-168 -1366h-152z
" />
    <glyph glyph-name="uni04B9" unicode="&#x4b9;" horiz-adv-x="942" 
d="M655 0l41 330q-76 -13 -133 -13l-24 -204h-123l24 202q-48 -3 -101.5 10.5t-86.5 39.5q-70 57 -70 153q0 15 11 117l26 215h148l-27 -211q-6 -41 -6 -72q0 -62 33 -90q35 -28 90 -24l26 213h123l-26 -217q70 0 133 16l47 385h147l-104 -850h-148z" />
    <glyph glyph-name="uni04BA" unicode="&#x4ba;" horiz-adv-x="1214" 
d="M496 1366l-68 -545q111 15 242 15q244 0 352 -76q113 -77 113 -225q0 -16 -2.5 -45.5t-6 -60t-4.5 -36.5l-49 -393h-151l47 373q10 77 10 121q0 59 -21.5 98.5t-74.5 64.5q-79 35 -217 35q-128 0 -254 -14l-84 -678h-152l168 1366h152z" />
    <glyph glyph-name="uni04BB" unicode="&#x4bb;" horiz-adv-x="960" 
d="M139 0l185 1493h147l-92 -741q3 5 13.5 16.5t31.5 30.5t41 32q63 39 156 39q129 0 204 -73q68 -68 68 -191q0 -39 -12 -141l-58 -465h-147l51 424q12 105 12 145q0 84 -43 127t-118 43q-96 0 -152 -59q-61 -63 -84 -236l-55 -444h-148z" />
    <glyph glyph-name="uni04C0" unicode="&#x4c0;" horiz-adv-x="503" 
d="M344 1366h152l-168 -1366h-152z" />
    <glyph glyph-name="uni04C1" unicode="&#x4c1;" horiz-adv-x="1658" 
d="M922 1366h151l-72 -586l592 586h189l-656 -637l500 -729h-188l-424 625l-37 -37l-72 -588h-151l71 588l-28 37l-576 -625h-192l684 729l-496 637h184l449 -586zM721 1675l145 47q10 -51 49 -82q41 -32 119 -32t123 32q46 32 57 82l138 -47q-32 -97 -127 -151
q-82 -47 -195 -47q-139 0 -221 65q-67 54 -88 133z" />
    <glyph glyph-name="uni04C2" unicode="&#x4c2;" horiz-adv-x="1220" 
d="M641 850h147l-43 -348l363 348h172l-424 -401l348 -449h-176l-272 358l-31 -28l-41 -330h-147l41 330l-27 28l-358 -358h-185l465 459l-319 391h168l276 -348zM463 1217l123 47q16 -60 57 -90q42 -33 113 -33q69 0 112 30q49 36 66 93l123 -47q-40 -92 -111 -144
q-76 -55 -190 -55q-120 0 -195 57q-73 57 -98 142z" />
    <glyph glyph-name="uni04C3" unicode="&#x4c3;" horiz-adv-x="1187" 
d="M496 1366l-76 -606l645 606h205l-594 -557q86 0 174.5 -38.5t150.5 -98.5q150 -145 150 -410q0 -308 -164 -469q-121 -121 -303 -121q-77 0 -164 33l41 143q55 -30 127 -30q113 0 191 78q56 56 86 153t30 197q0 106 -29.5 189t-80.5 132q-49 49 -127.5 77t-167.5 28
q-77 0 -182 -23l-80 -649h-152l168 1366h152z" />
    <glyph glyph-name="uni04C4" unicode="&#x4c4;" horiz-adv-x="876" 
d="M244 850h147l-45 -356l389 356h180l-415 -381q62 -12 120 -44t97 -77q80 -92 80 -233q0 -54 -10.5 -108t-34 -113t-69 -114t-108.5 -97q-132 -86 -296 -109l16 143q115 16 201 78q73 54 111 137t38 164q0 63 -22 114t-58 81q-38 33 -96 49t-115 16h-24l-43 -356h-148z
" />
    <glyph glyph-name="uni04C7" unicode="&#x4c7;" horiz-adv-x="1355" 
d="M176 0l168 1366h152l-68 -555h700l68 555h152l-189 -1497q-9 -70 -17 -111t-29.5 -90.5t-55.5 -79.5q-67 -59 -183 -59q-73 0 -137 22l17 144q50 -23 100 -23q58 0 98 35q46 44 60 166l98 795h-700l-82 -668h-152z" />
    <glyph glyph-name="uni04C8" unicode="&#x4c8;" horiz-adv-x="974" 
d="M139 0l105 850h147l-43 -348h402l43 348h147l-129 -1030q-10 -88 -27 -138t-59 -88q-70 -65 -186 -65q-66 0 -119 18l18 144q55 -19 94 -19q63 0 91 33q29 31 41 123l69 539h-401l-45 -367h-148z" />
    <glyph glyph-name="uni04D0" unicode="&#x4d0;" horiz-adv-x="1273" 
d="M1094 0l-113 385h-582l-211 -385h-172l805 1432l436 -1432h-163zM477 528h463l-164 547zM516 1675l146 47q10 -51 49 -82q41 -32 118 -32q78 0 123 32q47 33 58 82l137 -47q-32 -97 -127 -151q-82 -47 -195 -47q-139 0 -221 65q-67 54 -88 133z" />
    <glyph glyph-name="uni04D1" unicode="&#x4d1;" horiz-adv-x="1081" 
d="M885 729l14 121h148l-105 -850h-147l14 119q-49 -67 -107 -101q-75 -43 -176 -43q-176 0 -276 105q-111 120 -111 303q0 123 41 219t107 158q116 110 305 110q104 0 180 -41q72 -38 113 -100zM604 739q-121 0 -205 -80q-48 -45 -78 -117t-30 -149q0 -64 23 -124t65 -99
q67 -64 172 -64q133 0 211 84q45 46 70.5 121.5t25.5 155.5q0 131 -80 205q-71 67 -174 67zM344 1217l123 47q16 -60 57 -90q42 -33 113 -33q70 0 113 30q47 35 65 93l123 -47q-40 -92 -111 -144q-76 -55 -190 -55q-120 0 -195 57q-73 57 -98 142z" />
    <glyph glyph-name="uni04D2" unicode="&#x4d2;" horiz-adv-x="1273" 
d="M1094 0l-113 385h-582l-211 -385h-172l805 1432l436 -1432h-163zM477 528h463l-164 547zM922 1593q0 46 30 78q36 39 86 39q39 0 66 -24q26 -26 26 -64q0 -49 -32 -86q-35 -35 -82 -35q-43 0 -70 27q-24 24 -24 65zM532 1593q0 45 31 78q36 39 86 39q39 0 66 -24
q26 -26 26 -64q0 -49 -32 -86q-35 -35 -82 -35q-43 0 -70 27q-25 25 -25 65z" />
    <glyph glyph-name="uni04D3" unicode="&#x4d3;" horiz-adv-x="1081" 
d="M885 729l14 121h148l-105 -850h-147l14 119q-49 -67 -107 -101q-75 -43 -176 -43q-176 0 -276 105q-111 120 -111 303q0 123 41 219t107 158q116 110 305 110q104 0 180 -41q72 -38 113 -100zM604 739q-121 0 -205 -80q-48 -45 -78 -117t-30 -149q0 -64 23 -124t65 -99
q67 -64 172 -64q133 0 211 84q45 46 70.5 121.5t25.5 155.5q0 131 -80 205q-71 67 -174 67zM705 1112q0 48 34 82q35 35 82 35q37 0 63.5 -25.5t26.5 -64.5q0 -45 -37 -82q-33 -33 -77 -33q-37 0 -64.5 25t-27.5 63zM348 1112q0 47 35 82t82 35q37 0 63.5 -25.5t26.5 -64.5
q0 -45 -37 -82q-33 -33 -78 -33q-37 0 -64.5 25t-27.5 63z" />
    <glyph glyph-name="uni04D4" unicode="&#x4d4;" horiz-adv-x="1843" 
d="M1102 0l-115 383h-581l-209 -383h-168l776 1366h600l41 -143h-551l121 -406h540l41 -143h-536l158 -531h555l41 -143h-713zM489 526h457l-160 535z" />
    <glyph glyph-name="uni04D5" unicode="&#x4d5;" horiz-adv-x="1589" 
d="M850 713q52 68 135 112q88 45 199 45q174 0 270 -100q125 -129 96 -373h-669v-16q0 -132 75 -211q64 -64 168 -64t172 48q64 46 111 131l125 -68q-30 -51 -73 -99t-85 -77q-94 -66 -246 -66q-127 0 -210 50q-68 41 -119 120q-54 -85 -133 -127q-79 -43 -213 -43
q-154 0 -238 60q-98 66 -98 194q0 73 32.5 134.5t86.5 99.5q100 69 260 69q143 0 247 -71q16 167 -53 229q-53 49 -172 49t-252 -53l17 139q128 45 262 45q125 0 203 -45q74 -41 102 -112zM492 401q-108 0 -170 -47q-56 -40 -56 -108q0 -66 56 -105q52 -35 153 -35
q86 0 156 35q78 44 78 127q0 64 -62 101q-51 32 -155 32zM907 520h506q-3 100 -72 166q-58 53 -159 53q-122 0 -193 -71q-61 -61 -82 -148z" />
    <glyph glyph-name="uni04D6" unicode="&#x4d6;" horiz-adv-x="987" 
d="M1053 1366l-19 -143h-557l-49 -406h541l-19 -143h-540l-64 -531h557l-18 -143h-709l168 1366h709zM422 1675l145 47q10 -51 49 -82q41 -32 119 -32t123 32q46 32 57 82l138 -47q-32 -97 -127 -151q-82 -47 -195 -47q-139 0 -221 65q-67 54 -88 133z" />
    <glyph glyph-name="uni04D7" unicode="&#x4d7;" horiz-adv-x="989" 
d="M809 285l125 -68q-30 -51 -73 -99t-85 -77q-101 -66 -246 -66q-85 0 -153.5 23t-126.5 84q-113 117 -113 305q0 107 38.5 201.5t107.5 163.5q118 118 297 118q176 0 276 -100q125 -129 96 -375h-661q-2 -147 76 -225q64 -64 168 -64q95 0 163 48q64 46 111 131zM315 518
h496q-2 46 -21 92t-51 76q-55 53 -155 53q-116 0 -187 -71q-61 -61 -82 -150zM324 1217l122 47q16 -59 58 -90q42 -33 112 -33t113 30q49 36 66 93l123 -47q-40 -92 -111 -144q-76 -55 -191 -55q-119 0 -194 57q-73 57 -98 142z" />
    <glyph glyph-name="uni04D8" unicode="&#x4d8;" horiz-adv-x="1554" 
d="M393 989l-127 72q114 153 252 233q167 95 369 95q141 0 264 -46t209 -129q176 -170 176 -458q0 -183 -59.5 -331.5t-155.5 -248.5q-113 -117 -245 -159t-285 -42q-123 0 -231 32t-200 124q-80 80 -129 199.5t-49 261.5q0 48 6 94h1188q20 124 -17 236t-116 188
q-143 135 -362 135q-170 0 -299 -80q-102 -64 -189 -176zM1346 543h-1018q4 -93 42 -177t95 -137q119 -110 334 -110q121 0 215 31t176 110q119 115 156 283z" />
    <glyph glyph-name="afii10846" unicode="&#x4d9;" horiz-adv-x="989" 
d="M283 561l-115 68q60 108 149 170q104 71 252 71q172 0 273 -94q114 -107 114 -295q0 -136 -46.5 -250.5t-131.5 -177.5q-63 -48 -131 -63t-147 -15q-173 0 -267 99q-66 69 -87.5 170.5t-6.5 206.5h664q7 66 -14.5 128t-59.5 99q-64 61 -172 61q-103 0 -178 -61
q-46 -37 -96 -117zM776 328h-500q2 -46 19.5 -90.5t46.5 -73.5q58 -58 168 -58q100 0 170 54q34 26 60.5 70.5t35.5 97.5z" />
    <glyph glyph-name="uni04DA" unicode="&#x4da;" horiz-adv-x="1554" 
d="M393 989l-127 72q114 153 252 233q167 95 369 95q141 0 264 -46t209 -129q176 -170 176 -458q0 -183 -59.5 -331.5t-155.5 -248.5q-113 -117 -245 -159t-285 -42q-123 0 -231 32t-200 124q-80 80 -129 199.5t-49 261.5q0 48 6 94h1188q20 124 -17 236t-116 188
q-143 135 -362 135q-170 0 -299 -80q-102 -64 -189 -176zM1346 543h-1018q4 -93 42 -177t95 -137q119 -110 334 -110q121 0 215 31t176 110q119 115 156 283zM995 1593q0 45 31 78q36 39 86 39q39 0 66 -24q26 -26 26 -64q0 -48 -33 -86q-35 -35 -81 -35q-43 0 -70 27
q-25 25 -25 65zM606 1593q0 45 31 78q36 39 86 39q38 0 65 -24q27 -27 27 -64q0 -48 -33 -86q-35 -35 -82 -35q-42 0 -69 27q-25 25 -25 65z" />
    <glyph glyph-name="uni04DB" unicode="&#x4db;" horiz-adv-x="989" 
d="M283 561l-115 68q60 108 149 170q104 71 252 71q172 0 273 -94q114 -107 114 -295q0 -136 -46.5 -250.5t-131.5 -177.5q-63 -48 -131 -63t-147 -15q-173 0 -267 99q-66 69 -87.5 170.5t-6.5 206.5h664q7 66 -14.5 128t-59.5 99q-64 61 -172 61q-103 0 -178 -61
q-46 -37 -96 -117zM776 328h-500q2 -46 19.5 -90.5t46.5 -73.5q58 -58 168 -58q100 0 170 54q34 26 60.5 70.5t35.5 97.5zM672 1112q0 47 35 82t81 35q38 0 64.5 -25.5t26.5 -64.5q0 -45 -37 -82q-33 -33 -78 -33q-37 0 -64.5 25t-27.5 63zM315 1112q0 47 35 82t82 35
q37 0 63.5 -25.5t26.5 -64.5q0 -45 -37 -82q-33 -33 -77 -33q-37 0 -65 25t-28 63z" />
    <glyph glyph-name="uni04DC" unicode="&#x4dc;" horiz-adv-x="1658" 
d="M922 1366h151l-72 -586l592 586h189l-656 -637l500 -729h-188l-424 625l-37 -37l-72 -588h-151l71 588l-28 37l-576 -625h-192l684 729l-496 637h184l449 -586zM1116 1593q0 45 31 78q36 39 86 39q38 0 65 -24q27 -27 27 -64q0 -48 -33 -86q-35 -35 -82 -35q-42 0 -69 27
q-25 25 -25 65zM727 1593q0 45 31 78q36 39 86 39q38 0 65 -24q27 -27 27 -64q0 -48 -33 -86q-35 -35 -82 -35q-42 0 -69 27q-25 25 -25 65z" />
    <glyph glyph-name="uni04DD" unicode="&#x4dd;" horiz-adv-x="1220" 
d="M641 850h147l-43 -348l363 348h172l-424 -401l348 -449h-176l-272 358l-31 -28l-41 -330h-147l41 330l-27 28l-358 -358h-185l465 459l-319 391h168l276 -348zM823 1112q0 47 35 82t82 35q37 0 63.5 -25.5t26.5 -64.5q0 -45 -37 -82q-33 -33 -78 -33q-37 0 -64.5 25
t-27.5 63zM467 1112q0 47 35 82t82 35q37 0 63.5 -25.5t26.5 -64.5q0 -45 -37 -82q-33 -33 -78 -33q-37 0 -64.5 25t-27.5 63z" />
    <glyph glyph-name="uni04DE" unicode="&#x4de;" horiz-adv-x="1136" 
d="M414 1098l-111 92q71 88 164 141q108 58 242 58q183 0 284 -103q82 -85 82 -211q0 -146 -71 -231q-57 -69 -156 -101q94 -17 153 -81q82 -82 82 -230q0 -196 -127 -323q-81 -79 -174 -106.5t-200 -27.5q-203 0 -324 95q-47 38 -85 94.5t-52.5 89.5t-18.5 49l146 66
q30 -109 106 -176q85 -74 236 -74q155 0 246 86q90 87 90 221q0 122 -88 182q-76 51 -230 51h-139l16 144h113q162 0 242 67q78 68 78 179q0 87 -64 143q-64 53 -168 53q-96 0 -164 -45q-57 -36 -108 -102zM823 1593q0 45 31 78q36 39 86 39q39 0 66 -24q26 -26 26 -64
q0 -48 -33 -86q-35 -35 -81 -35q-43 0 -70 27q-25 25 -25 65zM434 1593q0 45 31 78q36 39 86 39q38 0 65 -24q27 -27 27 -64q0 -48 -33 -86q-35 -35 -82 -35q-42 0 -69 27q-25 25 -25 65z" />
    <glyph glyph-name="uni04DF" unicode="&#x4df;" horiz-adv-x="827" 
d="M289 633l-92 84q52 64 120 106q79 47 191 47q126 0 197 -71q55 -58 55 -142q0 -74 -39 -125q-28 -40 -82 -61q56 -19 96 -70q39 -51 39 -118q0 -69 -27.5 -130.5t-80.5 -103.5q-92 -74 -263 -74q-136 0 -221 66q-31 25 -58 62t-37.5 59.5t-12.5 30.5l131 53
q19 -60 65 -96q57 -44 144 -44q95 0 147 37q62 43 62 123q0 62 -50 92q-42 27 -124 27h-87l17 135h72q100 0 141 39q29 29 29 74q0 43 -29 72q-34 34 -105 34t-120 -32q-45 -28 -78 -74zM575 1112q0 47 35 82t82 35q37 0 63.5 -25.5t26.5 -64.5q0 -45 -37 -82
q-33 -33 -77 -33q-37 0 -65 25t-28 63zM219 1112q0 47 35 82t82 35q37 0 63.5 -25.5t26.5 -64.5q0 -45 -37 -82q-33 -33 -78 -33q-37 0 -64.5 25t-27.5 63z" />
    <glyph glyph-name="uni04E2" unicode="&#x4e2;" horiz-adv-x="1454" 
d="M1126 0l127 1042l-1085 -1103l176 1427h152l-129 -1047l1085 1104l-174 -1423h-152zM604 1501l17 131h655l-16 -131h-656z" />
    <glyph glyph-name="uni04E3" unicode="&#x4e3;" horiz-adv-x="1007" 
d="M244 850h147l-69 -565l659 630l-113 -915h-147l70 571l-660 -630zM311 1051l15 123h618l-14 -123h-619z" />
    <glyph glyph-name="uni04E4" unicode="&#x4e4;" horiz-adv-x="1454" 
d="M1126 0l127 1042l-1085 -1103l176 1427h152l-129 -1047l1085 1104l-174 -1423h-152zM1034 1593q0 45 31 78q36 39 86 39q39 0 66 -24q26 -26 26 -64q0 -48 -33 -86q-35 -35 -82 -35q-42 0 -69 27q-25 25 -25 65zM645 1593q0 45 31 78q36 39 86 39q38 0 65 -24
q27 -27 27 -64q0 -48 -33 -86q-35 -35 -82 -35q-42 0 -69 27q-25 25 -25 65z" />
    <glyph glyph-name="uni04E5" unicode="&#x4e5;" horiz-adv-x="1007" 
d="M244 850h147l-69 -565l659 630l-113 -915h-147l70 571l-660 -630zM717 1112q0 47 35 82t82 35q37 0 63.5 -25.5t26.5 -64.5q0 -45 -37 -82q-33 -33 -78 -33q-37 0 -64.5 25t-27.5 63zM360 1112q0 47 35 82t82 35q37 0 63.5 -25.5t26.5 -64.5q0 -45 -37 -82
q-33 -33 -77 -33q-37 0 -65 25t-28 63z" />
    <glyph glyph-name="uni04E6" unicode="&#x4e6;" horiz-adv-x="1638" 
d="M817 -25q-281 0 -455 179q-176 180 -176 452q0 192 67.5 333.5t166.5 234.5q226 215 561 215q285 0 459 -172q180 -176 180 -447q0 -164 -58.5 -317.5t-170.5 -262.5q-98 -95 -244.5 -155t-329.5 -60zM965 1245q-127 0 -239 -43t-194 -119q-82 -77 -135 -190t-53 -258
q0 -232 141 -377q135 -139 349 -139q134 0 249.5 44t192.5 120q89 86 137.5 209.5t48.5 248.5q0 111 -38.5 205t-104.5 160q-139 139 -354 139zM1071 1593q0 45 31 78q36 39 86 39q38 0 65 -24q27 -27 27 -64q0 -48 -33 -86q-35 -35 -82 -35q-42 0 -69 27q-25 25 -25 65z
M682 1593q0 45 31 78q36 39 86 39q38 0 65 -24q27 -27 27 -64q0 -48 -33 -86q-35 -35 -82 -35q-42 0 -69 27q-25 25 -25 65z" />
    <glyph glyph-name="uni04E7" unicode="&#x4e7;" horiz-adv-x="1081" 
d="M549 -25q-191 0 -303 117q-109 116 -109 297q0 212 154 354q139 127 340 127q195 0 311 -116q105 -105 105 -279q0 -229 -144 -369q-135 -131 -354 -131zM629 739q-136 0 -232 -94q-108 -105 -108 -266q0 -116 73 -193q75 -80 197 -80q140 0 232 99q47 51 74.5 123
t27.5 145q0 115 -70 189q-74 77 -194 77zM750 1112q0 48 34 82q35 35 82 35q37 0 63.5 -25.5t26.5 -64.5q0 -46 -36 -82q-33 -33 -78 -33q-37 0 -64.5 25t-27.5 63zM393 1112q0 47 35 82t82 35q37 0 63.5 -25.5t26.5 -64.5q0 -45 -37 -82q-33 -33 -78 -33q-37 0 -64.5 25
t-27.5 63z" />
    <glyph glyph-name="uni04E8" unicode="&#x4e8;" horiz-adv-x="1638" 
d="M817 -25q-281 0 -455 179q-176 180 -176 452q0 192 67.5 333.5t166.5 234.5q226 215 561 215q285 0 459 -172q180 -176 180 -447q0 -164 -58.5 -317.5t-170.5 -262.5q-98 -95 -244.5 -155t-329.5 -60zM360 778h1100q-1 22 -6 50.5t-18.5 77.5t-43.5 103t-73 97
q-139 139 -354 139q-135 0 -245 -44.5t-188 -117.5q-132 -125 -172 -305zM1454 635h-1110q-1 -117 38.5 -214t102.5 -163q135 -139 349 -139q134 0 249.5 44t192.5 120q142 139 178 352z" />
    <glyph glyph-name="uni04E9" unicode="&#x4e9;" horiz-adv-x="1081" 
d="M549 -25q-191 0 -303 117q-109 116 -109 297q0 212 154 354q139 127 340 127q195 0 311 -116q105 -105 105 -279q0 -229 -144 -369q-135 -131 -354 -131zM307 500h584q-5 95 -68 162q-74 77 -198 77q-121 0 -211 -75q-81 -68 -107 -164zM879 369h-590q6 -112 73 -183
q73 -80 201 -80q119 0 203 70q86 72 113 193z" />
    <glyph glyph-name="uni04EA" unicode="&#x4ea;" horiz-adv-x="1638" 
d="M817 -25q-281 0 -455 179q-176 180 -176 452q0 192 67.5 333.5t166.5 234.5q226 215 561 215q285 0 459 -172q180 -176 180 -447q0 -164 -58.5 -317.5t-170.5 -262.5q-98 -95 -244.5 -155t-329.5 -60zM360 778h1100q-1 22 -6 50.5t-18.5 77.5t-43.5 103t-73 97
q-139 139 -354 139q-135 0 -245 -44.5t-188 -117.5q-132 -125 -172 -305zM1454 635h-1110q-1 -117 38.5 -214t102.5 -163q135 -139 349 -139q134 0 249.5 44t192.5 120q142 139 178 352zM1071 1593q0 45 31 78q36 39 86 39q38 0 65 -24q27 -27 27 -64q0 -48 -33 -86
q-35 -35 -82 -35q-42 0 -69 27q-25 25 -25 65zM682 1593q0 45 31 78q36 39 86 39q38 0 65 -24q27 -27 27 -64q0 -48 -33 -86q-35 -35 -82 -35q-42 0 -69 27q-25 25 -25 65z" />
    <glyph glyph-name="uni04EB" unicode="&#x4eb;" horiz-adv-x="1081" 
d="M549 -25q-191 0 -303 117q-109 116 -109 297q0 212 154 354q139 127 340 127q195 0 311 -116q105 -105 105 -279q0 -229 -144 -369q-135 -131 -354 -131zM307 500h584q-5 95 -68 162q-74 77 -198 77q-121 0 -211 -75q-81 -68 -107 -164zM879 369h-590q6 -112 73 -183
q73 -80 201 -80q119 0 203 70q86 72 113 193zM725 1112q0 47 35 82t82 35q37 0 63.5 -25.5t26.5 -64.5q0 -45 -37 -82q-33 -33 -78 -33q-37 0 -64.5 25t-27.5 63zM369 1112q0 48 34 82q35 35 82 35q37 0 63.5 -25.5t26.5 -64.5q0 -46 -36 -82q-33 -33 -78 -33
q-37 0 -64.5 25t-27.5 63z" />
    <glyph glyph-name="uni04EE" unicode="&#x4ee;" horiz-adv-x="1163" 
d="M184 1366h174l328 -805l455 805h174l-785 -1366h-163l221 381zM440 1501l17 131h655l-16 -131h-656z" />
    <glyph glyph-name="uni04EF" unicode="&#x4ef;" horiz-adv-x="942" 
d="M80 -471l338 551l-297 770h164l225 -608l352 608h168l-786 -1321h-164zM270 1051l15 123h618l-14 -123h-619z" />
    <glyph glyph-name="uni04F0" unicode="&#x4f0;" horiz-adv-x="1163" 
d="M184 1366h174l328 -805l455 805h174l-785 -1366h-163l221 381zM860 1593q0 45 31 78q36 39 86 39q38 0 65 -24q27 -27 27 -64q0 -48 -33 -86q-35 -35 -82 -35q-42 0 -69 27q-25 25 -25 65zM471 1593q0 45 31 78q36 39 86 39q38 0 65 -24q27 -27 27 -64q0 -48 -33 -86
q-35 -35 -82 -35q-42 0 -69 27q-25 25 -25 65z" />
    <glyph glyph-name="uni04F1" unicode="&#x4f1;" horiz-adv-x="942" 
d="M80 -471l338 551l-297 770h164l225 -608l352 608h168l-786 -1321h-164zM684 1112q0 47 35 82t82 35q37 0 63.5 -25.5t26.5 -64.5q0 -45 -37 -82q-33 -33 -78 -33q-37 0 -64.5 25t-27.5 63zM328 1112q0 48 34 82q35 35 82 35q38 0 64.5 -25.5t26.5 -64.5q0 -45 -37 -82
q-33 -33 -78 -33q-37 0 -64.5 25t-27.5 63z" />
    <glyph glyph-name="uni04F2" unicode="&#x4f2;" horiz-adv-x="1163" 
d="M184 1366h174l328 -805l455 805h174l-785 -1366h-163l221 381zM791 1806l133 -82l-332 -249l-80 53zM1098 1806l133 -82l-332 -249l-80 53z" />
    <glyph glyph-name="uni04F3" unicode="&#x4f3;" horiz-adv-x="942" 
d="M80 -471l338 551l-297 770h164l225 -608l352 608h168l-786 -1321h-164zM608 1364l140 -66l-316 -278l-78 47zM883 1364l135 -66l-311 -278l-78 47z" />
    <glyph glyph-name="uni04F4" unicode="&#x4f4;" horiz-adv-x="1212" 
d="M885 0l73 598q-138 -27 -241 -27q-212 0 -326 66q-137 78 -137 240q0 51 12 147l41 342h152l-41 -332q-10 -88 -10 -121q0 -49 15 -86.5t60 -66.5q67 -45 246 -45q128 0 246 22l78 629h151l-168 -1366h-151zM881 1593q0 46 30 78q36 39 86 39q39 0 66 -24q27 -27 27 -64
q0 -48 -33 -86q-35 -35 -82 -35q-43 0 -70 27q-24 24 -24 65zM492 1593q0 46 30 78q36 39 86 39q39 0 66 -24q26 -26 26 -64q0 -49 -32 -86q-35 -35 -82 -35q-43 0 -70 27q-24 24 -24 65z" />
    <glyph glyph-name="uni04F5" unicode="&#x4f5;" horiz-adv-x="880" 
d="M594 0l41 340q-82 -25 -170 -25q-60 0 -122.5 15.5t-100.5 48.5q-60 53 -60 149q0 26 13 125l24 197h148l-23 -188q-10 -76 -10 -103q0 -59 43 -84q37 -24 129 -24q90 0 145 22l47 377h148l-105 -850h-147zM643 1112q0 47 35 82t82 35q37 0 63.5 -25.5t26.5 -64.5
q0 -45 -37 -82q-33 -33 -78 -33q-37 0 -64.5 25t-27.5 63zM287 1112q0 47 35 82t81 35q38 0 64.5 -25.5t26.5 -64.5q0 -45 -37 -82q-33 -33 -78 -33q-37 0 -64.5 25t-27.5 63z" />
    <glyph glyph-name="uni04F8" unicode="&#x4f8;" horiz-adv-x="1454" 
d="M1294 1366h152l-168 -1366h-152zM176 0l166 1366h154l-70 -567h152q256 0 368 -115q92 -92 92 -244q0 -112 -36.5 -192.5t-88.5 -128.5q-43 -40 -96.5 -66t-111.5 -36.5t-98.5 -13.5t-90.5 -3h-340zM408 655l-62 -512h176q190 0 273 70q38 32 62 87t24 122
q0 77 -28.5 122.5t-64.5 67.5q-61 43 -225 43h-155zM1014 1593q0 46 30 78q36 39 86 39q39 0 66 -24q27 -27 27 -64q0 -48 -33 -86q-35 -35 -82 -35q-43 0 -70 27q-24 24 -24 65zM625 1593q0 46 30 78q36 39 86 39q39 0 66 -24q27 -27 27 -64q0 -48 -33 -86q-35 -35 -82 -35
q-43 0 -70 27q-24 24 -24 65z" />
    <glyph glyph-name="uni04F9" unicode="&#x4f9;" horiz-adv-x="1150" 
d="M864 0l105 850h147l-104 -850h-148zM139 0l105 850h147l-41 -326h154q144 0 221 -65q72 -65 72 -174q0 -123 -74 -197q-86 -88 -258 -88h-176h-150zM303 131h154q93 0 139 35q49 39 49 104q0 66 -45 97q-36 26 -125 26h-139zM766 1112q0 47 35 82t82 35q37 0 63.5 -25.5
t26.5 -64.5q0 -45 -37 -82q-33 -33 -78 -33q-37 0 -64.5 25t-27.5 63zM410 1112q0 48 34 82q35 35 82 35q37 0 63.5 -25.5t26.5 -64.5q0 -46 -36 -82q-33 -33 -78 -33q-37 0 -64.5 25t-27.5 63z" />
    <glyph glyph-name="uni1E9E" unicode="&#x1e9e;" horiz-adv-x="1206" 
d="M176 0l137 983q25 184 166 301q70 60 148.5 82.5t140.5 22.5q139 0 242 -70q135 -95 141 -254q0 -31 -2 -45l-328 -250q121 -23 205 -92q109 -92 109 -227q0 -119 -66 -216.5t-178 -164.5q-139 -83 -340 -95l20 144q142 7 252 69q68 39 113 102.5t45 143.5
q-3 108 -102 176q-84 55 -230 64l17 123l327 262q-10 81 -75 135q-61 51 -162 51q-117 0 -199 -82q-76 -76 -96 -209l-133 -954h-152z" />
    <glyph glyph-name="uni2010" unicode="&#x2010;" horiz-adv-x="655" 
d="M147 360l19 152h450l-18 -152h-451z" />
    <glyph glyph-name="uni2011" unicode="&#x2011;" horiz-adv-x="655" 
d="M147 360l19 152h450l-18 -152h-451z" />
    <glyph glyph-name="figuredash" unicode="&#x2012;" horiz-adv-x="1187" 
d="M188 629l17 131h901l-16 -131h-902z" />
    <glyph glyph-name="endash" unicode="&#x2013;" horiz-adv-x="1187" 
d="M188 371l17 131h901l-16 -131h-902z" />
    <glyph glyph-name="emdash" unicode="&#x2014;" horiz-adv-x="1638" 
d="M188 371l17 131h1351l-16 -131h-1352z" />
    <glyph glyph-name="afii00208" unicode="&#x2015;" horiz-adv-x="1638" 
d="M188 371l17 131h1351l-16 -131h-1352z" />
    <glyph glyph-name="quoteleft" unicode="&#x2018;" horiz-adv-x="540" 
d="M594 1366l-229 -473l-127 49l264 463z" />
    <glyph glyph-name="quoteright" unicode="&#x2019;" horiz-adv-x="540" 
d="M238 942l223 473l131 -49l-264 -463z" />
    <glyph glyph-name="quotesinglbase" unicode="&#x201a;" horiz-adv-x="630" 
d="M86 -272l223 473l131 -49l-264 -463z" />
    <glyph glyph-name="quotedblleft" unicode="&#x201c;" horiz-adv-x="839" 
d="M594 1366l-229 -473l-127 49l264 463zM893 1366l-225 -473l-131 49l264 463z" />
    <glyph glyph-name="quotedblright" unicode="&#x201d;" horiz-adv-x="839" 
d="M238 942l223 473l131 -49l-264 -463zM537 942l227 473l127 -49l-264 -463z" />
    <glyph glyph-name="quotedblbase" unicode="&#x201e;" horiz-adv-x="929" 
d="M86 -272l223 473l131 -49l-264 -463zM385 -272l227 473l127 -49l-264 -463z" />
    <glyph glyph-name="dagger" unicode="&#x2020;" horiz-adv-x="1165" 
d="M651 1030l58 463h147l-57 -463h303l-19 -139h-303l-151 -1239h-148l152 1239h-303l18 139h303z" />
    <glyph glyph-name="daggerdbl" unicode="&#x2021;" horiz-adv-x="1157" 
d="M643 1030l57 463h148l-57 -463h303l-19 -139h-303l-70 -567h304l-17 -140h-303l-68 -544h-147l68 544h-303l16 140h303l70 567h-303l18 139h303z" />
    <glyph glyph-name="bullet" unicode="&#x2022;" horiz-adv-x="2048" 
d="M821 657q0 129 92 228q96 98 232 98q104 0 174 -63q80 -72 80 -191q0 -135 -90 -225q-44 -44 -106.5 -69t-129.5 -25q-104 0 -176 69q-76 73 -76 178z" />
    <glyph glyph-name="ellipsis" unicode="&#x2026;" horiz-adv-x="1529" 
d="M672 72q0 47 33 80q28 32 79 32q42 0 68 -26q27 -27 27 -70q0 -48 -39 -82q-33 -26 -74 -26q-44 0 -70 26q-24 24 -24 66zM164 72q0 47 33 80q28 32 79 32q42 0 68 -26q27 -27 27 -70q0 -48 -39 -82q-33 -26 -74 -26q-44 0 -70 26q-24 24 -24 66zM1180 72q0 48 32 80
q28 32 80 32q42 0 68 -26t26 -70q0 -49 -38 -82q-33 -26 -74 -26q-44 0 -70 26q-24 24 -24 66z" />
    <glyph glyph-name="perthousand" unicode="&#x2030;" horiz-adv-x="2174" 
d="M295 20l965 1373l75 -45l-966 -1375zM1145 580q129 0 211 -82q74 -74 74 -191q0 -146 -93 -239q-84 -82 -225 -82q-62 0 -109.5 15t-91.5 58q-82 79 -82 199q0 63 23.5 123.5t67.5 105.5q93 93 225 93zM1124 98q74 0 123 49q58 58 58 152q0 79 -52 127q-41 41 -116 41
q-82 0 -133 -57q-52 -58 -52 -142q0 -79 49 -125q52 -45 123 -45zM516 1378q129 0 211 -82q74 -74 74 -190q0 -148 -92 -240q-84 -82 -226 -82q-61 0 -108.5 15.5t-91.5 58.5q-82 82 -82 199q0 136 90 229q92 92 225 92zM496 897q73 0 122 49q58 58 58 152q0 80 -51 127
q-41 41 -117 41q-81 0 -133 -58q-51 -57 -51 -141q0 -79 49 -125q52 -45 123 -45zM1858 580q128 0 210 -82q74 -74 74 -191q0 -147 -92 -239q-84 -82 -225 -82q-62 0 -109.5 15t-91.5 58q-82 79 -82 199q0 136 90 229q93 93 226 93zM1837 98q74 0 123 49q57 57 57 152
q0 80 -51 127q-41 41 -117 41q-82 0 -133 -57t-51 -142q0 -79 49 -125q52 -45 123 -45z" />
    <glyph glyph-name="guilsinglleft" unicode="&#x2039;" horiz-adv-x="577" 
d="M283 426l209 -299l-103 -66l-262 373l354 385l86 -84z" />
    <glyph glyph-name="guilsinglright" unicode="&#x203a;" horiz-adv-x="577" 
d="M403 455l-208 299l102 65l262 -373l-354 -385l-86 84z" />
    <glyph glyph-name="fraction" unicode="&#x2044;" horiz-adv-x="421" 
d="M-307 20l962 1373l74 -45l-965 -1375z" />
    <glyph glyph-name="uni2080" unicode="&#x2080;" horiz-adv-x="716" 
d="M365 -14q-104 0 -170 69q-97 97 -97 271q0 106 37 222t111 193q87 90 209 90q97 0 163 -63q93 -89 93 -276q0 -284 -150 -426q-83 -80 -196 -80zM606 492q0 143 -61 204q-41 41 -99 41q-74 0 -129 -57q-55 -58 -84.5 -155.5t-29.5 -188.5q0 -149 71 -217q42 -39 95 -39
q65 0 118 51q54 53 86.5 154t32.5 207z" />
    <glyph glyph-name="uni2081" unicode="&#x2081;" horiz-adv-x="716" 
d="M340 0l88 725h-160l62 94h217l-101 -819h-106z" />
    <glyph glyph-name="uni2082" unicode="&#x2082;" horiz-adv-x="716" 
d="M608 0h-542l342 346q96 99 116 127q54 70 54 135q0 55 -37 92q-43 37 -111 37q-76 0 -119 -45q-43 -47 -47 -123h-102q9 117 88 193q74 69 190 69q110 0 178 -61q66 -60 66 -154q0 -96 -74 -188q-34 -43 -143 -152l-180 -182h334z" />
    <glyph glyph-name="uni2083" unicode="&#x2083;" horiz-adv-x="716" 
d="M104 223h103q0 -62 39 -104q37 -39 106 -39q74 0 117 43q47 51 47 131q0 63 -35 96t-110 33h-11l11 94h14q88 0 129 43q35 35 35 98q0 52 -29 84q-32 35 -94 35q-63 0 -98 -35q-37 -37 -45 -96h-103q8 46 30 92.5t50 73.5q61 59 170 59q108 0 170 -57q57 -52 57 -147
q0 -76 -36 -125t-93 -72q45 -19 70 -61q27 -43 27 -105q0 -127 -76 -203q-73 -75 -205 -75q-102 0 -160 51q-77 67 -80 186z" />
    <glyph glyph-name="uni2084" unicode="&#x2084;" horiz-adv-x="716" 
d="M657 864l-77 -637h100l-12 -94h-101l-16 -133h-102l16 133h-420zM250 227h227l39 328z" />
    <glyph glyph-name="uni2085" unicode="&#x2085;" horiz-adv-x="716" 
d="M709 819l-13 -94h-274l-64 -166q63 8 125 -10t105 -60q65 -62 65 -176q0 -151 -90 -245q-82 -82 -223 -82q-108 0 -182 49q-56 38 -97 98l89 62q28 -51 71 -80q55 -35 119 -35q92 0 145 57q27 30 42.5 75t15.5 89q0 81 -56 129q-48 39 -127 39q-84 0 -161 -57l168 407
h342z" />
    <glyph glyph-name="uni2086" unicode="&#x2086;" horiz-adv-x="716" 
d="M518 846l78 -64l-209 -250q61 6 120.5 -10.5t102.5 -56.5q74 -69 74 -182q0 -131 -82 -213q-82 -84 -221 -84q-142 0 -217 77q-66 70 -66 168q0 83 43 160q26 47 105 137zM377 80q90 0 141 49q57 55 57 150q0 77 -47 122q-48 45 -129 45q-80 0 -133 -53q-61 -61 -61 -147
q0 -66 43 -115q49 -51 129 -51z" />
    <glyph glyph-name="uni2087" unicode="&#x2087;" horiz-adv-x="716" 
d="M70 37l536 688h-430l12 94h615l-649 -839z" />
    <glyph glyph-name="uni2088" unicode="&#x2088;" horiz-adv-x="716" 
d="M274 426q-39 24 -57 61q-22 43 -22 93q0 113 67 180q71 71 180 71q107 0 166 -59q58 -55 58 -143q0 -80 -33 -131q-34 -52 -88 -76q39 -19 67 -62q35 -52 35 -116q0 -115 -74 -189q-71 -69 -198 -69q-116 0 -178 55q-74 66 -74 170q0 79 43 135q39 57 108 80zM422 469
q67 0 102 39q41 41 41 108q0 58 -37 91q-34 30 -92 30q-61 0 -102 -41q-39 -42 -39 -100q0 -55 31 -90q33 -37 96 -37zM393 379q-76 0 -121 -45q-43 -43 -43 -115q0 -59 39 -98q41 -41 109 -41q76 0 121 45q43 43 43 119q0 59 -37 96q-39 39 -111 39z" />
    <glyph glyph-name="uni2089" unicode="&#x2089;" horiz-adv-x="716" 
d="M293 -29l-78 64l213 246q-60 -11 -122.5 8t-106.5 61q-72 69 -72 176q0 130 86 219q82 86 219 86q138 0 211 -73q32 -32 51 -78t19 -90q0 -80 -33 -148q-29 -56 -96 -133zM436 737q-87 0 -141 -51q-59 -57 -59 -151q0 -75 47 -119q45 -45 123 -45q89 0 141 55
q59 59 59 149q0 83 -51 123q-45 39 -119 39z" />
    <glyph glyph-name="Euro" unicode="&#x20ac;" horiz-adv-x="1163" 
d="M1196 1274l-84 -137q-113 108 -289 108q-161 0 -287.5 -95t-179.5 -249h656l-70 -135h-623q-19 -88 -22 -160h573l-69 -135h-498q5 -67 29 -128t68 -112t117 -81.5t165 -30.5q205 0 393 157l-24 -188q-183 -113 -400 -113q-123 0 -222 41t-161 110.5t-95 158t-34 186.5
h-139l70 135h67q5 64 23 160h-123l69 135h84q31 97 87 181.5t136 154.5t192.5 111t242.5 41q194 0 348 -115z" />
    <glyph glyph-name="uni20B4" unicode="&#x20b4;" horiz-adv-x="1163" 
d="M346 1176q69 94 170 149q121 64 244 64q148 0 239 -95q72 -78 72 -184q0 -120 -98 -209h168l-15 -115h-254l-213 -180h445l-14 -114h-558q-48 -39 -84 -97t-36 -116q0 -76 59 -123q49 -37 127 -37q99 0 178 45q99 56 139 164l136 -58q-60 -153 -215 -239
q-105 -56 -240 -56q-145 0 -238 70q-106 82 -106 209q0 64 28 127t76 111h-161l14 114h266l213 180h-457l15 115h547q52 35 88.5 87t36.5 110q0 64 -46 104q-48 43 -131 43q-87 0 -163 -43q-71 -41 -119 -106z" />
    <glyph glyph-name="uni20B6" unicode="&#x20b6;" horiz-adv-x="1163" 
d="M707 1366q222 0 329 -104q94 -94 94 -258q0 -177 -110 -283q-125 -119 -387 -119h-117l-22 -180h335l-14 -115h-336l-37 -307h-151l37 307h-156l14 115h156l23 180h-154l14 135h156l78 629h248zM592 1223l-60 -486h130q164 0 245 74q74 67 74 188q0 118 -76 175
q-63 49 -200 49h-113z" />
    <glyph glyph-name="uni20B6" unicode="&#x20cf;" horiz-adv-x="1163" 
d="M707 1366q222 0 329 -104q94 -94 94 -258q0 -177 -110 -283q-125 -119 -387 -119h-117l-22 -180h335l-14 -115h-336l-37 -307h-151l37 307h-156l14 115h156l23 180h-154l14 135h156l78 629h248zM592 1223l-60 -486h130q164 0 245 74q74 67 74 188q0 118 -76 175
q-63 49 -200 49h-113z" />
    <glyph glyph-name="uni20B6" unicode="&#x20ce;" horiz-adv-x="1163" 
d="M707 1366q222 0 329 -104q94 -94 94 -258q0 -177 -110 -283q-125 -119 -387 -119h-117l-22 -180h335l-14 -115h-336l-37 -307h-151l37 307h-156l14 115h156l23 180h-154l14 135h156l78 629h248zM592 1223l-60 -486h130q164 0 245 74q74 67 74 188q0 118 -76 175
q-63 49 -200 49h-113z" />
    <glyph glyph-name="uni20B6" unicode="&#x20cd;" horiz-adv-x="1163" 
d="M707 1366q222 0 329 -104q94 -94 94 -258q0 -177 -110 -283q-125 -119 -387 -119h-117l-22 -180h335l-14 -115h-336l-37 -307h-151l37 307h-156l14 115h156l23 180h-154l14 135h156l78 629h248zM592 1223l-60 -486h130q164 0 245 74q74 67 74 188q0 118 -76 175
q-63 49 -200 49h-113z" />
    <glyph glyph-name="uni20B6" unicode="&#x20cc;" horiz-adv-x="1163" 
d="M707 1366q222 0 329 -104q94 -94 94 -258q0 -177 -110 -283q-125 -119 -387 -119h-117l-22 -180h335l-14 -115h-336l-37 -307h-151l37 307h-156l14 115h156l23 180h-154l14 135h156l78 629h248zM592 1223l-60 -486h130q164 0 245 74q74 67 74 188q0 118 -76 175
q-63 49 -200 49h-113z" />
    <glyph glyph-name="uni20B6" unicode="&#x20cb;" horiz-adv-x="1163" 
d="M707 1366q222 0 329 -104q94 -94 94 -258q0 -177 -110 -283q-125 -119 -387 -119h-117l-22 -180h335l-14 -115h-336l-37 -307h-151l37 307h-156l14 115h156l23 180h-154l14 135h156l78 629h248zM592 1223l-60 -486h130q164 0 245 74q74 67 74 188q0 118 -76 175
q-63 49 -200 49h-113z" />
    <glyph glyph-name="uni20B6" unicode="&#x20ca;" horiz-adv-x="1163" 
d="M707 1366q222 0 329 -104q94 -94 94 -258q0 -177 -110 -283q-125 -119 -387 -119h-117l-22 -180h335l-14 -115h-336l-37 -307h-151l37 307h-156l14 115h156l23 180h-154l14 135h156l78 629h248zM592 1223l-60 -486h130q164 0 245 74q74 67 74 188q0 118 -76 175
q-63 49 -200 49h-113z" />
    <glyph glyph-name="uni20B6" unicode="&#x20c9;" horiz-adv-x="1163" 
d="M707 1366q222 0 329 -104q94 -94 94 -258q0 -177 -110 -283q-125 -119 -387 -119h-117l-22 -180h335l-14 -115h-336l-37 -307h-151l37 307h-156l14 115h156l23 180h-154l14 135h156l78 629h248zM592 1223l-60 -486h130q164 0 245 74q74 67 74 188q0 118 -76 175
q-63 49 -200 49h-113z" />
    <glyph glyph-name="uni20B6" unicode="&#x20c8;" horiz-adv-x="1163" 
d="M707 1366q222 0 329 -104q94 -94 94 -258q0 -177 -110 -283q-125 -119 -387 -119h-117l-22 -180h335l-14 -115h-336l-37 -307h-151l37 307h-156l14 115h156l23 180h-154l14 135h156l78 629h248zM592 1223l-60 -486h130q164 0 245 74q74 67 74 188q0 118 -76 175
q-63 49 -200 49h-113z" />
    <glyph glyph-name="uni20B6" unicode="&#x20c7;" horiz-adv-x="1163" 
d="M707 1366q222 0 329 -104q94 -94 94 -258q0 -177 -110 -283q-125 -119 -387 -119h-117l-22 -180h335l-14 -115h-336l-37 -307h-151l37 307h-156l14 115h156l23 180h-154l14 135h156l78 629h248zM592 1223l-60 -486h130q164 0 245 74q74 67 74 188q0 118 -76 175
q-63 49 -200 49h-113z" />
    <glyph glyph-name="uni20B6" unicode="&#x20c6;" horiz-adv-x="1163" 
d="M707 1366q222 0 329 -104q94 -94 94 -258q0 -177 -110 -283q-125 -119 -387 -119h-117l-22 -180h335l-14 -115h-336l-37 -307h-151l37 307h-156l14 115h156l23 180h-154l14 135h156l78 629h248zM592 1223l-60 -486h130q164 0 245 74q74 67 74 188q0 118 -76 175
q-63 49 -200 49h-113z" />
    <glyph glyph-name="uni20B6" unicode="&#x20c5;" horiz-adv-x="1163" 
d="M707 1366q222 0 329 -104q94 -94 94 -258q0 -177 -110 -283q-125 -119 -387 -119h-117l-22 -180h335l-14 -115h-336l-37 -307h-151l37 307h-156l14 115h156l23 180h-154l14 135h156l78 629h248zM592 1223l-60 -486h130q164 0 245 74q74 67 74 188q0 118 -76 175
q-63 49 -200 49h-113z" />
    <glyph glyph-name="uni20B6" unicode="&#x20c4;" horiz-adv-x="1163" 
d="M707 1366q222 0 329 -104q94 -94 94 -258q0 -177 -110 -283q-125 -119 -387 -119h-117l-22 -180h335l-14 -115h-336l-37 -307h-151l37 307h-156l14 115h156l23 180h-154l14 135h156l78 629h248zM592 1223l-60 -486h130q164 0 245 74q74 67 74 188q0 118 -76 175
q-63 49 -200 49h-113z" />
    <glyph glyph-name="uni20B6" unicode="&#x20c3;" horiz-adv-x="1163" 
d="M707 1366q222 0 329 -104q94 -94 94 -258q0 -177 -110 -283q-125 -119 -387 -119h-117l-22 -180h335l-14 -115h-336l-37 -307h-151l37 307h-156l14 115h156l23 180h-154l14 135h156l78 629h248zM592 1223l-60 -486h130q164 0 245 74q74 67 74 188q0 118 -76 175
q-63 49 -200 49h-113z" />
    <glyph glyph-name="uni20B6" unicode="&#x20c2;" horiz-adv-x="1163" 
d="M707 1366q222 0 329 -104q94 -94 94 -258q0 -177 -110 -283q-125 -119 -387 -119h-117l-22 -180h335l-14 -115h-336l-37 -307h-151l37 307h-156l14 115h156l23 180h-154l14 135h156l78 629h248zM592 1223l-60 -486h130q164 0 245 74q74 67 74 188q0 118 -76 175
q-63 49 -200 49h-113z" />
    <glyph glyph-name="uni20B6" unicode="&#x20c1;" horiz-adv-x="1163" 
d="M707 1366q222 0 329 -104q94 -94 94 -258q0 -177 -110 -283q-125 -119 -387 -119h-117l-22 -180h335l-14 -115h-336l-37 -307h-151l37 307h-156l14 115h156l23 180h-154l14 135h156l78 629h248zM592 1223l-60 -486h130q164 0 245 74q74 67 74 188q0 118 -76 175
q-63 49 -200 49h-113z" />
    <glyph glyph-name="uni20B6" unicode="&#x20c0;" horiz-adv-x="1163" 
d="M707 1366q222 0 329 -104q94 -94 94 -258q0 -177 -110 -283q-125 -119 -387 -119h-117l-22 -180h335l-14 -115h-336l-37 -307h-151l37 307h-156l14 115h156l23 180h-154l14 135h156l78 629h248zM592 1223l-60 -486h130q164 0 245 74q74 67 74 188q0 118 -76 175
q-63 49 -200 49h-113z" />
    <glyph glyph-name="uni20B6" unicode="&#x20bf;" horiz-adv-x="1163" 
d="M707 1366q222 0 329 -104q94 -94 94 -258q0 -177 -110 -283q-125 -119 -387 -119h-117l-22 -180h335l-14 -115h-336l-37 -307h-151l37 307h-156l14 115h156l23 180h-154l14 135h156l78 629h248zM592 1223l-60 -486h130q164 0 245 74q74 67 74 188q0 118 -76 175
q-63 49 -200 49h-113z" />
    <glyph glyph-name="uni20B6" unicode="&#x20be;" horiz-adv-x="1163" 
d="M707 1366q222 0 329 -104q94 -94 94 -258q0 -177 -110 -283q-125 -119 -387 -119h-117l-22 -180h335l-14 -115h-336l-37 -307h-151l37 307h-156l14 115h156l23 180h-154l14 135h156l78 629h248zM592 1223l-60 -486h130q164 0 245 74q74 67 74 188q0 118 -76 175
q-63 49 -200 49h-113z" />
    <glyph glyph-name="uni20B6" unicode="&#x20bd;" horiz-adv-x="1163" 
d="M707 1366q222 0 329 -104q94 -94 94 -258q0 -177 -110 -283q-125 -119 -387 -119h-117l-22 -180h335l-14 -115h-336l-37 -307h-151l37 307h-156l14 115h156l23 180h-154l14 135h156l78 629h248zM592 1223l-60 -486h130q164 0 245 74q74 67 74 188q0 118 -76 175
q-63 49 -200 49h-113z" />
    <glyph glyph-name="uni20B6" unicode="&#x20bc;" horiz-adv-x="1163" 
d="M707 1366q222 0 329 -104q94 -94 94 -258q0 -177 -110 -283q-125 -119 -387 -119h-117l-22 -180h335l-14 -115h-336l-37 -307h-151l37 307h-156l14 115h156l23 180h-154l14 135h156l78 629h248zM592 1223l-60 -486h130q164 0 245 74q74 67 74 188q0 118 -76 175
q-63 49 -200 49h-113z" />
    <glyph glyph-name="uni20B6" unicode="&#x20bb;" horiz-adv-x="1163" 
d="M707 1366q222 0 329 -104q94 -94 94 -258q0 -177 -110 -283q-125 -119 -387 -119h-117l-22 -180h335l-14 -115h-336l-37 -307h-151l37 307h-156l14 115h156l23 180h-154l14 135h156l78 629h248zM592 1223l-60 -486h130q164 0 245 74q74 67 74 188q0 118 -76 175
q-63 49 -200 49h-113z" />
    <glyph glyph-name="uni20B6" unicode="&#x20ba;" horiz-adv-x="1163" 
d="M707 1366q222 0 329 -104q94 -94 94 -258q0 -177 -110 -283q-125 -119 -387 -119h-117l-22 -180h335l-14 -115h-336l-37 -307h-151l37 307h-156l14 115h156l23 180h-154l14 135h156l78 629h248zM592 1223l-60 -486h130q164 0 245 74q74 67 74 188q0 118 -76 175
q-63 49 -200 49h-113z" />
    <glyph glyph-name="uni20B6" unicode="&#x20b9;" horiz-adv-x="1163" 
d="M707 1366q222 0 329 -104q94 -94 94 -258q0 -177 -110 -283q-125 -119 -387 -119h-117l-22 -180h335l-14 -115h-336l-37 -307h-151l37 307h-156l14 115h156l23 180h-154l14 135h156l78 629h248zM592 1223l-60 -486h130q164 0 245 74q74 67 74 188q0 118 -76 175
q-63 49 -200 49h-113z" />
    <glyph glyph-name="uni20B6" unicode="&#x20b7;" horiz-adv-x="1163" 
d="M707 1366q222 0 329 -104q94 -94 94 -258q0 -177 -110 -283q-125 -119 -387 -119h-117l-22 -180h335l-14 -115h-336l-37 -307h-151l37 307h-156l14 115h156l23 180h-154l14 135h156l78 629h248zM592 1223l-60 -486h130q164 0 245 74q74 67 74 188q0 118 -76 175
q-63 49 -200 49h-113z" />
    <glyph glyph-name="uni20B8" unicode="&#x20b8;" horiz-adv-x="1163" 
d="M1112 997h-332l-123 -997h-151l123 997h-332l18 144h815zM1141 1243h-815l16 123h815z" />
    <glyph glyph-name="afii61352" unicode="&#x2116;" horiz-adv-x="2091" 
d="M328 0h-152l174 1423l821 -1083l127 1026h152l-176 -1427l-821 1083zM1888 1366q123 0 199 -76q74 -74 74 -194q0 -142 -86 -232q-88 -92 -242 -92q-123 0 -197 74q-73 73 -73 190q0 63 22.5 127t65.5 109q90 94 237 94zM1843 885q81 0 137 53q58 58 58 152q0 86 -51 127
q-42 36 -111 36q-80 0 -129 -49q-29 -28 -45 -70t-16 -83q0 -78 45 -123q43 -43 112 -43zM1532 465l16 143h512l-16 -143h-512z" />
    <glyph glyph-name="uni2117" unicode="&#x2117;" horiz-adv-x="1515" 
d="M623 1063h151q76 0 131.5 -12t93.5 -52q58 -58 58 -157q0 -100 -58 -158q-63 -63 -202 -63h-64v-324h-110v766zM733 965v-246h45q96 0 133 35q35 30 35 90q0 54 -26 82q-35 39 -146 39h-41zM1548 680q0 -282 -192 -487q-90 -96 -219.5 -158t-294.5 -62t-294.5 62
t-219.5 158q-193 206 -193 487q0 279 193 485q90 96 219.5 157.5t294.5 61.5t294.5 -61.5t219.5 -157.5q192 -205 192 -485zM842 1270q-111 0 -224 -45.5t-192 -122.5q-84 -81 -130 -194t-46 -228q0 -117 45.5 -229.5t130.5 -194.5q79 -77 192 -122.5t224 -45.5t223.5 45
t191.5 123q85 82 131 195t46 229q0 115 -46 227.5t-131 194.5q-79 78 -191.5 123t-223.5 45z" />
    <glyph glyph-name="trademark" unicode="&#x2122;" horiz-adv-x="1478" 
d="M635 1272h-184l-84 -684h-103l84 684h-184l12 94h471zM719 588h-94l235 827l213 -645l381 645l23 -827h-95l-6 526l-329 -565l-187 565z" />
    <glyph glyph-name="partialdiff" unicode="&#x2202;" horiz-adv-x="1054" 
d="M223 1237l35 141q266 -30 449 -157q171 -118 254 -297q79 -170 79 -404q0 -126 -29.5 -232.5t-113.5 -191.5q-121 -121 -305 -121q-203 0 -328 134q-125 132 -125 325q0 205 133 338q123 123 301 123q175 0 279 -98q-18 64 -52 121t-74.5 97t-69.5 63t-56 40
q-68 44 -168.5 78t-208.5 41zM889 446q0 72 -27 139.5t-76 110.5q-78 68 -190 68q-137 0 -221 -92q-41 -45 -62.5 -110t-21.5 -130q0 -152 98 -246q86 -80 205 -80q111 0 192 78q103 100 103 262z" />
    <glyph glyph-name="product" unicode="&#x220f;" horiz-adv-x="1486" 
d="M184 1401v135h1282v-135h-159v-1778h159v-135h-479v135h168v1778h-659v-1778h166v-135h-478v135h160v1778h-160z" />
    <glyph glyph-name="summation" unicode="&#x2211;" horiz-adv-x="1396" 
d="M184 1536h1176v-440h-152v305h-823l487 -846l-495 -932h848v301h151v-436h-1192v94l516 975l-516 885v94z" />
    <glyph glyph-name="minus" unicode="&#x2212;" 
d="M152 614v136h888v-136h-888z" />
    <glyph glyph-name="uni2215" unicode="&#x2215;" horiz-adv-x="1239" 
d="M-39 -348l1294 1902l123 -61l-1292 -1899z" />
    <glyph glyph-name="uni2219" unicode="&#x2219;" horiz-adv-x="409" 
d="M160 682q0 59 45 104q39 41 96 41q59 0 90 -36q31 -31 31 -78q0 -62 -41 -103q-45 -45 -105 -45q-46 0 -79 29q-37 37 -37 88z" />
    <glyph glyph-name="radical" unicode="&#x221a;" horiz-adv-x="1234" 
d="M913 1694h531v-135h-408l-440 -1559h-182l-168 614h-170v136h289l143 -549h4z" />
    <glyph glyph-name="infinity" unicode="&#x221e;" horiz-adv-x="1368" 
d="M774 598q-60 -85 -123 -137q-97 -78 -219 -78q-128 0 -217 86q-90 86 -90 227q0 138 88 226t227 88q116 0 203 -72q59 -48 123 -143q60 85 123 137q97 78 219 78q128 0 217 -86q90 -86 90 -228q0 -137 -88 -225t-227 -88q-63 0 -108.5 17.5t-90.5 54.5q-73 57 -127 143z
M1087 879q-73 0 -139 -56q-55 -48 -104 -127q39 -71 98 -121q68 -61 145 -61q74 0 127 53q50 50 50 129q0 83 -52 133q-54 50 -125 50zM453 879q-71 0 -125 -50q-52 -50 -52 -133q0 -79 50 -129q53 -53 127 -53q77 0 145 61q59 50 98 121q-49 79 -104 127q-66 56 -139 56z
" />
    <glyph glyph-name="integral" unicode="&#x222b;" horiz-adv-x="778" 
d="M768 1513l-33 -131q-45 23 -96 23q-55 0 -82 -31q-14 -15 -20.5 -43t-7.5 -54t-1 -81v-1399q0 -54 -3 -89t-18 -79t-44 -73q-68 -68 -193 -68q-65 0 -133 23l33 131q46 -23 88 -23q59 0 90 31q15 15 21.5 46.5t7 52.5t0.5 79v1368q0 51 1 72.5t5 62.5t16.5 70.5
t32.5 54.5q29 34 80.5 57t118.5 23t137 -23z" />
    <glyph glyph-name="approxequal" unicode="&#x2248;" 
d="M997 999l90 -53q-41 -91 -102 -149q-80 -80 -197 -80q-17 0 -32.5 1.5t-35 7t-29 8t-33.5 12.5t-28.5 11.5t-33 15t-29.5 13.5q-57 27 -82 37.5t-56 19.5t-56 9q-60 0 -107 -41q-40 -35 -71 -106l-91 53q49 103 99 160q69 77 178 77q53 0 105 -17t126 -52q2 -1 22.5 -11
t25.5 -12t23.5 -10.5t26 -11t23.5 -8t26 -7.5t23.5 -4t24.5 -2q76 0 125 49q39 36 65 90zM997 659l90 -53q-41 -91 -102 -149q-80 -80 -197 -80q-17 0 -32.5 1.5t-35 7t-29 8t-33.5 12.5t-28.5 11.5t-33 15t-29.5 13.5q-57 27 -82 37.5t-56 19.5t-56 9q-60 0 -107 -41
q-40 -35 -71 -106l-91 53q49 103 99 160q69 77 178 77q53 0 105 -17t126 -52q2 -1 22.5 -11t25.5 -12t23.5 -10.5t26 -11t23.5 -8t26 -7.5t23.5 -4t24.5 -2q76 0 125 49q39 36 65 90z" />
    <glyph glyph-name="notequal" unicode="&#x2260;" 
d="M154 786v136h491l113 233h121l-111 -233h274v-136h-340l-86 -180h426v-135h-491l-111 -233h-123l113 233h-276v135h340l88 180h-428z" />
    <glyph glyph-name="lessequal" unicode="&#x2264;" 
d="M309 772l731 -326v-139l-888 402v127l888 401v-139zM1040 113h-888v135h888v-135z" />
    <glyph glyph-name="greaterequal" unicode="&#x2265;" 
d="M858 772l-731 326v139l889 -401v-127l-889 -402v139zM1016 113h-889v135h889v-135z" />
    <glyph glyph-name="dotmath" unicode="&#x22c5;" horiz-adv-x="409" 
d="M160 682q0 59 45 104q39 41 96 41q59 0 90 -36q31 -31 31 -78q0 -62 -41 -103q-45 -45 -105 -45q-46 0 -79 29q-37 37 -37 88z" />
    <glyph glyph-name="lozenge" unicode="&#x25ca;" horiz-adv-x="1392" 
d="M236 684l532 737l532 -737l-532 -737zM1128 684l-360 498l-360 -498l360 -498z" />
    <glyph glyph-name="openbullet" unicode="&#x25e6;" horiz-adv-x="1013" 
d="M354 1065q0 132 88 223q79 82 207 82q131 0 203 -72q72 -70 72 -190q0 -143 -86 -225q-80 -78 -215 -78q-132 0 -205 80q-64 72 -64 180zM457 1069q0 -78 45 -123q42 -47 125 -47q82 0 133 51q61 58 61 156q0 76 -51 127q-50 43 -123 43q-80 0 -133 -53q-27 -28 -42 -71
t-15 -83z" />
    <glyph glyph-name="uniF400" unicode="&#xf400;" horiz-adv-x="4" 
d="M-262 1364l143 -70l-309 -276l-86 49z" />
    <glyph glyph-name="uniF401" unicode="&#xf401;" horiz-adv-x="4" 
d="M-334 1806l133 -92l-344 -239l-80 65z" />
    <glyph glyph-name="uniF406" unicode="&#xf406;" 
d="M901 1722h139q-26 -113 -114 -178q-88 -67 -224 -67q-140 0 -219 79q-67 67 -77 166h131q14 -56 55 -84q40 -30 117 -30q74 0 120 28q47 26 72 86z" />
    <glyph glyph-name="uniF407" unicode="&#xf407;" 
d="M528 -106l136 -62l-246 -262l-96 53z" />
    <glyph glyph-name="uniF408" unicode="&#xf408;" 
d="M721 1632l-199 -155l-104 84l315 243l258 -243l-108 -84z" />
    <glyph glyph-name="uniF409" unicode="&#xf409;" 
d="M371 -422l155 320l131 -62l-188 -307z" />
    <glyph glyph-name="uniF40A" unicode="&#xf40a;" 
d="M451 1069l155 324l131 -62l-192 -307z" />
    <glyph glyph-name="uniF40B" unicode="&#xf40b;" 
d="M594 1589q0 61 41 97q35 32 84 32q45 0 76 -28q26 -23 26 -72q0 -52 -33 -88q-34 -37 -88 -37q-52 0 -79 27t-27 69z" />
    <glyph glyph-name="uniF40C" unicode="&#xf40c;" 
d="M535 1657q0 86 59 145q53 53 137 53q76 0 125 -49q43 -50 43 -118q0 -85 -57 -142q-55 -51 -140 -51q-73 0 -118 43q-49 49 -49 119zM633 1667q0 -33 20 -53q23 -23 58 -23q37 0 65 25q29 25 29 67q0 39 -25 60q-20 20 -57 20q-40 0 -64 -24q-26 -26 -26 -72z" />
    <glyph glyph-name="uniF40D" unicode="&#xf40d;" 
d="M952 1724l80 -71q-22 -47 -71 -90q-69 -58 -140 -58q-50 0 -110 31l-43 25q-54 30 -90 30q-42 0 -66 -28q-24 -24 -43 -62l-82 74q38 62 82 98q57 49 131 49q55 0 117 -34l51 -29q40 -23 72 -23q37 0 69 29q27 27 43 59z" />
    </font>
</defs>
</svg>
