<?xml version="1.0" standalone="no"?>
<!DOCTYPE svg PUBLIC "-//W3C//DTD SVG 1.1//EN" "http://www.w3.org/Graphics/SVG/1.1/DTD/svg11.dtd" >
<svg xmlns="http://www.w3.org/2000/svg" xmlns:xlink="http://www.w3.org/1999/xlink" version="1.1">
<metadata>
Created by FontForge 20170731 at Wed May  2 18:31:45 2012
 By Aleksey,,,
Copyright (c) 2005 - 2008 Linotype GmbH, www.linotype.com. All rights reserved. This font software may not be reproduced, modified, disclosed or transferred without the express written approval of Linotype GmbH. Praxis is a trademark of Linotype GmbH and may be registered in certain jurisdictions. This typeface is original artwork of Gerard Unger. The design may be protected in certain jurisdictions.
</metadata>
<defs>
<font id="PraxisW01-Heavy" horiz-adv-x="616" >
  <font-face 
    font-family="PraxisW01-Heavy"
    font-weight="400"
    font-stretch="normal"
    units-per-em="1000"
    panose-1="2 11 9 3 2 2 2 2 2 4"
    ascent="720"
    descent="-280"
    x-height="521"
    cap-height="680"
    bbox="-32 -247 1041 919"
    underline-thickness="50"
    underline-position="-150"
    unicode-range="U+000D-2122"
  />
<missing-glyph horiz-adv-x="0" 
 />
    <glyph glyph-name=".notdef" horiz-adv-x="0" 
 />
    <glyph glyph-name="glyph1" horiz-adv-x="0" 
 />
    <glyph glyph-name="uni000D" unicode="&#xd;" horiz-adv-x="0" 
 />
    <glyph glyph-name="space" unicode=" " horiz-adv-x="266" 
 />
    <glyph glyph-name="exclam" unicode="!" horiz-adv-x="380" 
d="M299 643q0 -8 -0.5 -23.5t-1.5 -29.5l-33 -406q-1 -14 -6.5 -18.5t-16.5 -4.5h-102q-13 0 -18 4.5t-6 18.5l-32 406q-1 9 -1.5 23t-0.5 30q0 37 46 37h127q45 0 45 -37zM294 56q0 -34 -27 -53t-76 -19q-105 0 -105 73q0 33 26.5 52t77.5 19t77.5 -18.5t26.5 -53.5z" />
    <glyph glyph-name="quotedbl" unicode="&#x22;" horiz-adv-x="500" 
d="M226 687q0 -5 -0.5 -15.5t-1.5 -21.5l-15 -216q-1 -18 -20 -18h-50q-11 0 -15.5 3.5t-5.5 14.5l-14 216q-1 11 -1.5 21.5t-0.5 15.5q0 21 9 29.5t26 8.5h54q17 0 26 -8.5t9 -29.5zM397 687q0 -5 -0.5 -15.5t-1.5 -21.5l-15 -216q-1 -18 -20 -18h-51q-10 0 -14.5 3.5
t-5.5 14.5l-15 216q-1 11 -1.5 21.5t-0.5 15.5q0 21 9 29.5t27 8.5h54q17 0 26 -8.5t9 -29.5z" />
    <glyph glyph-name="numbersign" unicode="#" horiz-adv-x="666" 
d="M657 482q0 -6 -4 -25l-7 -34q-2 -9 -6 -13t-15 -4h-122q-12 0 -14 -11l-20 -101q-2 -10 -2 -13q0 -4 2.5 -5.5t10.5 -1.5h117q14 0 14 -10q0 -5 -4 -25l-7 -34q-2 -8 -6 -12t-15 -4h-122q-4 0 -7.5 -2t-5.5 -9l-34 -163q-3 -15 -21 -15h-65q-15 0 -15 9q0 2 0.5 8t2.5 13
l27 128q4 19 4 24q0 7 -13 7h-65q-10 0 -13 -12l-34 -162q-3 -15 -20 -15h-67q-14 0 -14 9q0 5 3 20l27 130q2 7 2.5 13t0.5 9q0 8 -13 8h-116q-14 0 -14 8q0 4 1 11.5t4 20.5l6 29q3 16 21 16h121q11 0 14 11l20 98q2 7 2 10v5q0 8 -13 8h-115q-15 0 -15 10q0 4 3 19l8 40
q3 16 21 16h121q11 0 14 12l34 162q3 15 21 15h66q9 0 12 -3t3 -8t-3 -18l-31 -139q-2 -8 -2 -13q0 -4 2.5 -6t10.5 -2h65q5 0 8 2t5 11l36 161q3 15 21 15h65q15 0 15 -11q0 -2 -0.5 -6t-1.5 -9l-31 -142q-1 -3 -1.5 -7.5t-0.5 -5.5q0 -8 13 -8h117q14 0 14 -9zM389 399
q0 7 -13 7h-65q-10 0 -13 -12l-22 -100q-2 -5 -2 -8v-5q0 -7 13 -7h65q5 0 8.5 2t5.5 10l21 97q1 4 1.5 9t0.5 7z" />
    <glyph glyph-name="dollar" unicode="$" 
d="M72 154q0 5 4 10.5t12 5.5q7 0 19.5 -7t32.5 -15.5t49.5 -15.5t71.5 -7q29 0 47.5 4t29 10.5t14.5 15.5t4 19t-2 18.5t-7.5 16t-15.5 15t-27 17.5l-117 70q-52 31 -77.5 75.5t-25.5 112.5q0 32 8.5 60.5t27 52t48.5 40.5t74 26q9 2 11.5 6t2.5 9v54q0 17 20 17h64
q18 0 18 -17v-49q0 -9 6 -9q55 0 96 -11t61 -24q12 -8 12 -30v-98q0 -5 -3 -11t-12 -6q-11 0 -23 7.5t-30.5 16t-46.5 16t-70 7.5q-39 0 -60.5 -12t-21.5 -35q0 -22 12 -35t41 -28l82 -40q40 -20 66.5 -41t42.5 -46t22.5 -55t6.5 -67q0 -24 -4 -54t-21 -59t-51 -52t-95 -32
q-10 -1 -10 -14v-52q0 -18 -22 -18h-61q-19 0 -19 18v48q0 10 -9 10q-13 0 -32.5 2.5t-40.5 6.5t-40.5 9t-32.5 11q-20 9 -24.5 17t-4.5 17v99z" />
    <glyph glyph-name="percent" unicode="%" horiz-adv-x="600" 
d="M311 538q0 -70 -39 -115.5t-115 -45.5q-77 0 -114.5 42.5t-37.5 110.5q0 72 38 115.5t116 43.5t115 -41t37 -110zM200 535q0 30 -9.5 49t-32.5 19q-24 0 -34 -20t-10 -52q0 -30 9.5 -48.5t32.5 -18.5t33.5 20t10.5 51zM577 653q0 -8 -7 -18l-468 -648q-7 -10 -17 -10
q-8 0 -17 6l-40 28q-9 5 -9 15q0 5 2.5 9.5t6.5 9.5l467 647q3 4 7 7t9 3q10 0 14 -4l43 -31q9 -6 9 -14zM595 151q0 -70 -39 -115t-115 -45q-78 0 -115 42t-37 111q0 72 38 115t116 43t115 -41t37 -110zM486 148q0 30 -10 49.5t-34 19.5t-33 -20t-9 -52q0 -30 8.5 -49
t31.5 -19q24 0 35 20t11 51z" />
    <glyph glyph-name="ampersand" unicode="&#x26;" horiz-adv-x="760" 
d="M777 13q0 -13 -18 -13h-184q-8 0 -13 2.5t-13 10.5l-26 26q-6 7 -13 7q-4 0 -19.5 -8.5t-44 -19t-70 -19t-97.5 -8.5q-64 0 -110.5 15t-77 41.5t-45.5 63t-15 80.5q0 53 25 93.5t89 66.5q16 7 16 12q0 7 -10 16l-6 5q-38 37 -49.5 69t-11.5 58q0 91 56.5 134.5
t171.5 43.5q56 0 97.5 -12.5t68.5 -35t40.5 -54t13.5 -68.5q0 -29 -9 -53.5t-24 -43.5t-34.5 -32t-40.5 -20q-11 -3 -13.5 -5.5t-2.5 -5.5t2.5 -7t15.5 -15l80 -70q16 -14 23.5 -19t13.5 -5q3 0 7 7.5t7.5 19t6.5 25.5t3 27v28q0 19 18 19h115q19 0 19 -19t-3.5 -43
t-11.5 -49.5t-20 -50t-30 -42.5l-7.5 -7.5t-2.5 -5.5q0 -9 9 -16l114 -103q10 -10 10 -20zM395 520q0 26 -17.5 43t-58.5 17q-33 0 -50 -16.5t-17 -42.5q0 -13 7.5 -26t28.5 -32l36 -34q11 -11 19 -11q6 0 15 8.5t17.5 22.5t14 32.5t5.5 38.5zM411 135q0 5 -7 12l-153 140
q-9 7 -14 7t-12.5 -6t-15 -18t-12.5 -29.5t-5 -41.5q0 -42 26 -69t92 -27q20 0 38.5 3.5t32.5 8t22 10t8 10.5z" />
    <glyph glyph-name="quotesingle" unicode="'" horiz-adv-x="250" 
d="M187 687q0 -5 -0.5 -15.5t-1.5 -21.5l-15 -216q-1 -18 -20 -18h-50q-11 0 -15 3.5t-5 14.5l-15 216q-1 11 -1.5 21.5t-0.5 15.5q0 21 9 29.5t26 8.5h54q17 0 26 -8.5t9 -29.5z" />
    <glyph glyph-name="parenleft" unicode="(" horiz-adv-x="328" 
d="M226 239q0 -104 9 -179t25 -133q16 -59 30.5 -85t14.5 -36q0 -15 -22 -24l-44 -18q-16 -7 -24 -9t-14 -2q-5 0 -10 2t-11.5 9t-14 20t-17.5 36q-38 86 -61 188.5t-23 230.5t23 230.5t61 188.5q10 22 17.5 35.5t14 20.5t11.5 9t10 2q6 0 14 -2t24 -9l44 -18q22 -9 22 -24
q0 -5 -4 -13.5t-10.5 -22.5t-14.5 -34.5t-16 -50.5q-16 -58 -25 -133t-9 -179z" />
    <glyph glyph-name="parenright" unicode=")" horiz-adv-x="328" 
d="M103 239q0 104 -9 179t-25 133q-8 30 -16 50.5t-14.5 34.5t-10.5 22.5t-4 13.5q0 15 22 24l44 18q16 7 24 9t14 2q5 0 10 -2t11.5 -9t14 -20.5t17.5 -35.5q38 -86 61 -188.5t23 -230.5t-23 -230.5t-61 -188.5q-10 -23 -17.5 -36t-14 -20t-11.5 -9t-10 -2q-6 0 -14 2
t-24 9l-44 18q-22 9 -22 24q0 10 14.5 36t30.5 85q16 58 25 133t9 179z" />
    <glyph glyph-name="asterisk" unicode="*" horiz-adv-x="413" 
d="M357 574q0 -14 -14 -14h-66q-7 0 -7 -3t3 -6l64 -52q6 -5 6 -10q0 -7 -4 -11l-16 -16q-5 -6 -11 -6t-14 7l-51 42q-4 4 -8 4t-4 -6v-56q0 -15 -15 -15h-23q-14 0 -14 15v56q0 6 -4 6t-9 -4l-51 -42q-3 -2 -6 -4.5t-8 -2.5q-2 0 -5 2t-5 4l-15 16q-4 4 -4 11q0 6 5 10
l63 52q3 3 3 6t-7 3h-65q-15 0 -15 14v25q0 14 15 14h65q7 0 7 4t-3 6l-63 51q-5 4 -5 10t4 11l15 17q2 2 5 4t5 2q4 0 8 -2.5t6 -4.5l51 -43q5 -4 9 -4t4 7v55q0 15 14 15h23q15 0 15 -15v-55q0 -7 4 -7q3 0 8 4l52 43q7 7 14 7q4 0 11 -7l15 -16q4 -4 4 -11q0 -6 -6 -10
l-64 -51q-3 -2 -3 -6t7 -4h66q14 0 14 -14v-25z" />
    <glyph glyph-name="plus" unicode="+" 
d="M286 81q-17 0 -24 7t-7 24v158q0 14 -13 14h-147q-31 0 -31 29v41q0 30 31 30h147q5 0 9 4.5t4 10.5v156q0 17 7 24.5t24 7.5h43q17 0 24 -7.5t7 -24.5v-156q0 -15 14 -15h146q31 0 31 -30v-41q0 -29 -31 -29h-146q-14 0 -14 -14v-158q0 -17 -7 -24t-24 -7h-43z" />
    <glyph glyph-name="comma" unicode="," horiz-adv-x="266" 
d="M231 34q0 -36 -13.5 -67.5t-31.5 -55t-35.5 -36.5t-26.5 -13q-5 0 -11.5 2.5t-16.5 9.5l-21 15q-11 8 -14.5 13t-3.5 10q0 7 6 14t13.5 15.5t14 18t6.5 20.5q0 9 -6.5 15t-23.5 11q-14 5 -23.5 21.5t-9.5 39.5q0 29 24 49t69 20q104 0 104 -102z" />
    <glyph glyph-name="hyphen" unicode="-" horiz-adv-x="266" 
d="M238 263q0 -9 -3.5 -14t-17.5 -5h-168q-13 0 -17 5t-4 14v69q0 8 4 13.5t17 5.5h168q14 0 17.5 -5.5t3.5 -13.5v-69z" />
    <glyph glyph-name="period" unicode="." horiz-adv-x="266" 
d="M230 65q0 -42 -23 -58t-74 -16q-50 0 -73.5 15.5t-23.5 56.5q0 42 23 60t74 18q50 0 73.5 -17.5t23.5 -58.5z" />
    <glyph glyph-name="slash" unicode="/" horiz-adv-x="500" 
d="M385 722q0 -2 -0.5 -8.5t-2.5 -13.5l-164 -925q-3 -19 -21 -19q-8 0 -24.5 2t-38.5 7q-19 5 -19 19q0 3 0.5 9.5t2.5 12.5l166 926q3 19 20 19q9 0 26.5 -2t34.5 -6q20 -5 20 -21z" />
    <glyph glyph-name="zero" unicode="0" 
d="M571 343q0 -101 -20.5 -169t-56 -108.5t-83.5 -57.5t-103 -17q-56 0 -104 17t-84 57t-56.5 106.5t-20.5 165.5q0 102 21 169.5t57 108t84 57.5t102 17q55 0 103 -17.5t84 -58t56.5 -106.5t20.5 -164zM385 338q0 72 -5.5 114.5t-16 64.5t-25 28.5t-31.5 6.5
q-18 0 -32.5 -6t-24.5 -28t-15.5 -63.5t-5.5 -112.5t5.5 -113.5t16 -65.5t25 -30t31.5 -7t31.5 6t25 28t16 64t5.5 114z" />
    <glyph glyph-name="one" unicode="1" 
d="M459 18q0 -8 -3.5 -13t-15.5 -5h-156q-18 0 -18 18v483q0 9 -7 9q-6 0 -17 -5.5t-27.5 -11.5t-38.5 -11.5t-51 -5.5q-5 0 -10 3.5t-5 11.5v110q0 10 5 14.5t12 4.5q13 0 35.5 4.5t47 12.5t48.5 19t41 24q13 9 24 9h118q11 0 14.5 -5t3.5 -14v-652z" />
    <glyph glyph-name="two" unicode="2" 
d="M351 461q0 48 -21 71.5t-82 23.5q-33 0 -58.5 -7.5t-44 -16t-31.5 -16t-20 -7.5q-11 0 -14.5 4.5t-3.5 12.5v105q0 11 8 18t28 14q35 12 80.5 19t99.5 7q79 0 131 -15t82.5 -40.5t43 -60.5t12.5 -74q0 -27 -5.5 -54.5t-21.5 -56.5t-44.5 -58t-74.5 -59l-57 -37
q-38 -25 -59.5 -39.5t-32.5 -22t-13.5 -10.5t-2.5 -5q0 -3 2 -5t10 -2h279q12 0 16.5 -5.5t4.5 -13.5v-113q0 -9 -4.5 -13.5t-16.5 -4.5h-467q-21 0 -21 18v45q0 32 6 57.5t18 47.5t30.5 41.5t44.5 39.5l127 96q36 27 54 53.5t18 62.5z" />
    <glyph glyph-name="three" unicode="3" 
d="M550 197q0 -46 -16 -84t-52 -65t-92.5 -42t-137.5 -15q-44 0 -86.5 4.5t-77.5 18.5q-23 8 -32 16t-9 22v102q0 16 17 16q7 0 17 -7.5t28 -16t45.5 -16t68.5 -7.5q37 0 61.5 7t39 19t20 29t5.5 38q0 30 -26 52t-86 22h-8q-6 0 -11 3.5t-5 12.5v101q0 16 15 16h10
q48 0 70.5 19.5t22.5 48.5q0 30 -20.5 47.5t-68.5 17.5q-37 0 -65 -7.5t-48.5 -16.5t-33.5 -16.5t-21 -7.5q-9 0 -12 5t-3 12v105q0 11 7.5 19.5t35.5 16.5q32 10 74.5 16.5t86.5 6.5q78 0 127.5 -14t78 -37t39.5 -52.5t11 -60.5q0 -57 -30.5 -99.5t-86.5 -57.5
q-10 -3 -10 -7q0 -5 10 -6q71 -10 109.5 -49.5t38.5 -108.5z" />
    <glyph glyph-name="four" unicode="4" 
d="M585 140q0 -18 -18 -18h-33q-5 0 -8.5 -2.5t-3.5 -10.5v-91q0 -18 -18 -18h-137q-17 0 -17 18v91q0 8 -3.5 10.5t-9.5 2.5h-293q-20 0 -20 18v143q0 9 3 15t8 13l272 365q9 13 23 13h174q18 0 18 -19v-391q0 -8 3.5 -10t8.5 -2h33q18 0 18 -18v-109zM350 524q0 6 -5 6
t-12 -10l-163 -236q-4 -7 -4 -11q0 -3 3 -4.5t6 -1.5h164q11 0 11 12v245z" />
    <glyph glyph-name="five" unicode="5" 
d="M276 -9q-33 0 -56 1t-41.5 3t-34 6t-33.5 9q-29 9 -38 18.5t-9 16.5v106q0 16 18 16q8 0 17.5 -7t25.5 -15.5t41 -15.5t65 -7q54 0 87 25t33 88q0 50 -21.5 75t-68.5 25q-22 0 -35 -5.5t-21 -12.5t-14.5 -12.5t-14.5 -5.5h-84q-18 0 -18 18v345q0 18 17 18h407
q21 0 21 -18v-113q0 -18 -21 -18h-272q-13 0 -13 -14v-71q0 -9 2 -11.5t6 -2.5q5 0 12.5 3t19 6.5t28 6.5t39.5 3q118 0 173 -57t55 -166q0 -51 -18 -94.5t-52.5 -75t-85 -49.5t-116.5 -18z" />
    <glyph glyph-name="six" unicode="6" 
d="M502 661q16 -8 21.5 -14.5t5.5 -14.5v-106q0 -8 -3 -12.5t-13 -4.5q-7 0 -18.5 7.5t-30 16t-45.5 16t-64 7.5q-70 0 -99.5 -38t-29.5 -125q0 -5 2 -7t4 -2q5 0 11 6t19.5 13.5t36.5 14t61 6.5q51 0 90.5 -15t66 -43t40 -66.5t13.5 -85.5q0 -51 -18 -92t-50.5 -70
t-78.5 -45t-102 -16q-68 0 -119.5 18t-86 57t-52 101t-17.5 150q0 107 22.5 178.5t63 114.5t96.5 61t122 18q45 0 82.5 -6.5t69.5 -21.5zM391 203q0 48 -22.5 69t-56.5 21q-41 0 -58.5 -25t-17.5 -65q0 -41 19 -66.5t60 -25.5t58.5 26t17.5 66z" />
    <glyph glyph-name="seven" unicode="7" 
d="M546 588q0 -29 -8.5 -60.5t-31.5 -76.5l-103 -203q-20 -38 -27.5 -84t-7.5 -112v-34q0 -18 -19 -18h-152q-18 0 -18 18v27q0 85 20 147.5t49 106.5l111 164q11 16 16.5 29.5t5.5 27.5q0 5 -2.5 8t-11.5 3h-281q-13 0 -17.5 5t-4.5 13v113q0 8 4.5 13t17.5 5h440
q20 0 20 -18v-74z" />
    <glyph glyph-name="eight" unicode="8" 
d="M571 184q0 -91 -67.5 -142t-198.5 -51q-69 0 -118.5 13.5t-81.5 37.5t-47 56t-15 70q0 27 6.5 51.5t22 45t41 36.5t63.5 27q8 2 8 7q0 2 -3 4t-12 7l-6 3q-42 24 -65 68.5t-23 98.5q0 80 57 126.5t177 46.5q115 0 170.5 -41.5t55.5 -116.5q0 -59 -27 -94.5t-74 -47.5
q-8 -1 -8 -8q0 -4 6 -7l16 -8q67 -33 95 -74t28 -108zM396 512q0 68 -77 68q-43 0 -60 -19t-17 -45q0 -13 2.5 -22.5t8.5 -17.5t16.5 -16t26.5 -17l19 -11q9 -6 18 -6q6 0 16.5 6.5t21 18t18 27.5t7.5 34zM388 175q0 21 -10 36t-36 30l-47 27q-9 5 -16 5q-2 0 -7.5 -1
t-11.5 -5q-27 -17 -36.5 -37t-9.5 -45q0 -82 88 -82q42 0 64 18.5t22 53.5z" />
    <glyph glyph-name="nine" unicode="9" 
d="M132 12q-28 10 -36 17t-8 23v101q0 10 5 14t13 4q10 0 21.5 -7.5t28.5 -17t43.5 -17t68.5 -7.5q31 0 58.5 12.5t44.5 45.5q12 25 15.5 49.5t3.5 58.5q0 8 -5 8q-6 0 -13 -6.5t-20.5 -14t-36 -13.5t-59.5 -6q-45 0 -83.5 13t-66.5 39.5t-44 65.5t-16 92q0 103 66.5 163
t184.5 60q140 0 206.5 -78.5t66.5 -247.5q0 -77 -14 -144.5t-49 -118t-94 -80t-149 -29.5q-13 0 -30 1.5t-34.5 4t-35 6.5t-32.5 9zM225 477q0 -41 18.5 -65.5t60.5 -24.5q41 0 58.5 25t17.5 65q0 42 -19 66t-60 24q-42 0 -59 -24t-17 -66z" />
    <glyph glyph-name="colon" unicode=":" horiz-adv-x="266" 
d="M230 65q0 -42 -22.5 -58t-73.5 -16t-74.5 15.5t-23.5 56.5q0 42 23 60t74 18q50 0 73.5 -17.5t23.5 -58.5zM230 454q0 -42 -22.5 -58t-73.5 -16t-74.5 15.5t-23.5 56.5q0 42 23 60.5t74 18.5q50 0 73.5 -18t23.5 -59z" />
    <glyph glyph-name="semicolon" unicode=";" horiz-adv-x="266" 
d="M230 454q0 -42 -25.5 -58t-73.5 -16q-49 0 -72.5 17.5t-23.5 59.5q0 40 25.5 57t72.5 17q50 0 73.5 -17.5t23.5 -59.5zM231 34q0 -36 -13.5 -67.5t-31.5 -55t-35.5 -36.5t-26.5 -13q-5 0 -11.5 2.5t-16.5 9.5l-21 15q-11 8 -14.5 13t-3.5 10q0 7 6 14t13.5 15.5t14 18
t6.5 20.5q0 9 -6.5 15t-23.5 11q-14 5 -23.5 21.5t-9.5 39.5q0 29 24 49t69 20q104 0 104 -102z" />
    <glyph glyph-name="less" unicode="&#x3c;" 
d="M64 356q0 22 21 32l415 201q22 10 29 10q22 0 22 -22v-50q0 -14 -5 -23t-18 -14l-336 -149q-8 -4 -8 -8t8 -8l336 -149q13 -5 18 -14t5 -23v-50q0 -22 -22 -22q-7 0 -29 10l-415 202q-21 11 -21 30v47z" />
    <glyph glyph-name="equal" unicode="=" 
d="M99 401q-35 0 -35 33v33q0 34 35 34h417q35 0 35 -34v-33q0 -33 -35 -33h-417zM99 168q-35 0 -35 33v33q0 34 35 34h417q35 0 35 -34v-33q0 -33 -35 -33h-417z" />
    <glyph glyph-name="greater" unicode="&#x3e;" 
d="M551 310q0 -22 -21 -32l-415 -201q-22 -10 -29 -10q-22 0 -22 22v50q0 14 5 23t18 14l336 149q8 4 8 8t-8 8l-336 149q-13 5 -18 14t-5 23v50q0 22 22 22q7 0 29 -10l415 -202q21 -11 21 -30v-47z" />
    <glyph glyph-name="question" unicode="?" horiz-adv-x="512" 
d="M476 504q0 -47 -17.5 -89.5t-64.5 -88.5l-69 -68q-11 -11 -16.5 -21.5t-5.5 -24.5v-20q0 -20 -20 -20h-113q-17 0 -17 20v36q0 24 3.5 43t11.5 36.5t21 35.5t33 41l8 12q15 17 23 29t12 21.5t5 18t1 19.5q0 32 -23 52t-67 20q-31 0 -53.5 -7.5t-39 -17t-28 -17
t-19.5 -7.5q-15 0 -15 20v99q0 16 10 24.5t42 18.5t68.5 15t93.5 5q64 0 109 -14.5t73.5 -39t41 -58.5t12.5 -73zM332 52q0 -33 -27 -52.5t-77 -19.5q-51 0 -77.5 19t-26.5 54q0 34 26.5 52.5t77.5 18.5q50 0 77 -18t27 -54z" />
    <glyph glyph-name="at" unicode="@" horiz-adv-x="965" 
d="M933 337q0 -29 -3 -66t-15 -75.5t-35 -75t-62.5 -65.5t-98 -46.5t-141.5 -17.5q-39 0 -51.5 4.5t-12.5 11.5q0 5 0.5 6.5t0.5 3.5q0 7 -8 7q-9 0 -17.5 -5.5t-22.5 -11.5t-36.5 -11.5t-59.5 -5.5q-80 0 -113 41.5t-33 127.5q0 39 6.5 78t19 75.5t30.5 69t41 58.5
q21 24 41.5 39.5t41 24.5t42.5 12.5t47 3.5q36 0 55 -10t24 -10q6 0 8 8q1 7 10 7h135q11 0 11 -8q0 -6 -2.5 -19t-9.5 -42l-71 -304q-4 -17 -4.5 -24t-0.5 -14t4.5 -12t18.5 -5q18 0 43.5 7.5t49 33.5t39.5 75.5t16 134.5q0 68 -21 122t-60 91.5t-94 57.5t-123 20
q-92 0 -162.5 -28t-118.5 -80t-72.5 -126t-24.5 -167q0 -81 23 -147.5t70.5 -113t120.5 -72t172 -25.5q45 0 80 5.5t60 12t39 12t19 5.5q8 0 12 -3t8 -12q9 -23 12 -34.5t3 -21.5q0 -6 -9 -13t-41 -17q-33 -11 -89.5 -18t-118.5 -7q-103 0 -189.5 28.5t-149.5 83.5
t-98 135.5t-35 185.5q0 106 33 199t95 162t151.5 108.5t203.5 39.5q92 0 168.5 -27t132 -77.5t86 -121.5t30.5 -158zM530 399q0 19 -16 19q-14 0 -28 -14.5t-28 -49.5q-20 -50 -30.5 -106t-10.5 -100q0 -24 7.5 -37.5t25.5 -13.5q7 0 12 6.5t12 35.5l50 221q4 18 5 25t1 14z
" />
    <glyph glyph-name="A" unicode="A" horiz-adv-x="626" 
d="M629 13q0 -13 -17 -13h-156q-11 0 -14 12l-43 157q-3 11 -6.5 13.5t-14.5 2.5h-172q-8 0 -11.5 -2.5t-6.5 -11.5l-47 -159q-4 -12 -16 -12h-111q-17 0 -17 13q0 6 3 15l201 636q8 25 38 25h158q30 0 38 -26l188 -622l4 -16t2 -12zM359 309q0 6 -3 15l-53 192q-3 10 -8 10
t-8 -11l-55 -191q-3 -11 -3 -15q0 -7 7 -7h115q8 0 8 7z" />
    <glyph glyph-name="B" unicode="B" horiz-adv-x="637" 
d="M606 188q0 -38 -13.5 -71t-36.5 -58q-29 -32 -80.5 -45.5t-129.5 -13.5h-264q-11 0 -15 4.5t-4 13.5v644q0 18 19 18h276q115 0 165 -42.5t50 -122.5q0 -63 -29.5 -98.5t-77.5 -49.5q-11 -3 -11 -7q0 -3 9 -5q79 -16 110.5 -61t31.5 -106zM382 490q0 45 -21.5 64.5
t-59.5 19.5h-37q-2 0 -6 -2.5t-4 -10.5v-145q0 -12 12 -12h37q40 0 59.5 18t19.5 68zM409 203q0 50 -21.5 72.5t-69.5 22.5h-52q-12 0 -12 -12v-167q0 -12 12 -12h51q53 0 72.5 26.5t19.5 69.5z" />
    <glyph glyph-name="C" unicode="C" horiz-adv-x="635" 
d="M607 55q0 -14 -9 -22.5t-36 -18.5q-23 -8 -65 -15t-95 -7q-100 0 -170.5 25.5t-115 70.5t-65 106t-20.5 132q0 85 23.5 152.5t69 114.5t113 71.5t155.5 24.5q65 0 107 -7.5t75 -19.5q21 -8 27 -14.5t6 -23.5v-101q0 -17 -14 -17q-11 0 -21.5 7t-28.5 15.5t-47 15.5t-77 7
q-38 0 -72 -13t-59.5 -40.5t-40 -70t-14.5 -101.5q0 -97 52 -147t155 -50q34 0 59 7t43 15.5t29.5 15.5t19.5 7q16 0 16 -16v-103z" />
    <glyph glyph-name="D" unicode="D" horiz-adv-x="751" 
d="M720 344q0 -103 -40 -180t-113 -117q-41 -23 -94.5 -35t-128.5 -12h-263q-9 0 -13.5 5t-4.5 13v643q0 11 4.5 15t14.5 4h273q109 0 180 -25.5t119 -89.5q29 -38 47.5 -94t18.5 -127zM518 343q0 104 -47.5 151t-133.5 47h-68q-11 0 -11 -12v-376q0 -14 13 -14h53
q30 0 64 6.5t63 28t48 61.5t19 108z" />
    <glyph glyph-name="E" unicode="E" horiz-adv-x="567" 
d="M537 18q0 -9 -3.5 -13.5t-14.5 -4.5h-438q-18 0 -18 18v644q0 18 18 18h417q19 0 19 -18v-103q0 -11 -4.5 -14.5t-14.5 -3.5h-230q-10 0 -10 -12v-99q0 -12 11 -12h178q18 0 18 -17v-104q0 -18 -18 -18h-178q-11 0 -11 -12v-114q0 -14 12 -14h249q11 0 14.5 -4.5
t3.5 -13.5v-103z" />
    <glyph glyph-name="F" unicode="F" horiz-adv-x="498" 
d="M486 559q0 -18 -16 -18h-199q-13 0 -13 -12v-128q0 -8 3.5 -10t8.5 -2h164q19 0 19 -19v-102q0 -19 -19 -19h-164q-5 0 -8.5 -2t-3.5 -10v-219q0 -9 -5 -13.5t-13 -4.5h-159q-8 0 -13 4.5t-5 13.5v644q0 8 3.5 13t14.5 5h389q16 0 16 -18v-103z" />
    <glyph glyph-name="G" unicode="G" horiz-adv-x="680" 
d="M626 53q0 -6 -2 -12t-9.5 -11.5t-21.5 -11t-37 -11.5q-29 -7 -64.5 -11t-89.5 -4q-178 0 -274.5 86t-96.5 248q0 84 23 151t69 114.5t115.5 72.5t162.5 25q121 0 191 -28q21 -8 27.5 -15t6.5 -18v-105q0 -8 -2.5 -12.5t-12.5 -4.5q-9 0 -19 7t-29 15.5t-51 15.5t-84 7
q-45 0 -81.5 -13t-62.5 -40t-40 -69.5t-14 -102.5q0 -97 45.5 -148t149.5 -51q13 0 13 15v171q0 18 18 18h152q18 0 18 -18v-260z" />
    <glyph glyph-name="H" unicode="H" horiz-adv-x="755" 
d="M692 18q0 -18 -16 -18h-161q-17 0 -17 18v253q0 8 -4 10t-9 2h-214q-7 0 -10 -2t-3 -10v-253q0 -18 -18 -18h-159q-18 0 -18 18v644q0 18 18 18h159q18 0 18 -18v-229q0 -8 3 -10t10 -2h214q7 0 10 2t3 10v229q0 18 17 18h161q16 0 16 -18v-644z" />
    <glyph glyph-name="I" unicode="I" horiz-adv-x="323" 
d="M259 18q0 -9 -5 -13.5t-13 -4.5h-159q-18 0 -18 18v644q0 18 20 18h157q18 0 18 -18v-644z" />
    <glyph glyph-name="J" unicode="J" horiz-adv-x="379" 
d="M321 161q0 -85 -49.5 -127t-160.5 -42q-15 0 -33 1t-34 4.5t-27 10t-11 16.5v102q0 16 13 16q10 0 19.5 -5.5t31.5 -5.5q26 0 41 14.5t15 52.5v464q0 8 3.5 13t14.5 5h159q18 0 18 -18v-501z" />
    <glyph glyph-name="K" unicode="K" horiz-adv-x="660" 
d="M660 12q0 -12 -13 -12h-188q-10 0 -15 3t-11 13l-151 267q-5 8 -13 8q-3 0 -7 -2.5t-4 -10.5v-260q0 -18 -19 -18h-157q-19 0 -19 18v644q0 18 19 18h157q19 0 19 -18v-246q0 -11 12 -11q4 0 8 3t9 11l165 244q8 11 14 14t15 3h152q11 0 11 -10q0 -8 -10 -21l-184 -258
q-6 -8 -6 -13q0 -4 1 -6t4 -7l204 -333q5 -7 6 -11t1 -9z" />
    <glyph glyph-name="L" unicode="L" horiz-adv-x="510" 
d="M496 18q0 -18 -17 -18h-398q-18 0 -18 18v644q0 18 18 18h159q18 0 18 -18v-510q0 -13 13 -13h208q17 0 17 -18v-103z" />
    <glyph glyph-name="M" unicode="M" horiz-adv-x="947" 
d="M884 18q0 -18 -18 -18h-143q-18 0 -18 18v476q0 2 -1 4t-4 2q-7 0 -8 -7l-109 -427q-6 -23 -11 -36t-11.5 -20t-16 -8.5t-24.5 -1.5h-129q-15 0 -25 1.5t-16.5 8.5t-11.5 20t-11 36l-109 427q-1 7 -7 7q-5 0 -5 -9v-473q0 -18 -19 -18h-105q-19 0 -19 18v644q0 18 18 18
h236q24 0 28 -16l123 -483q3 -9 6 -9q4 0 7 9l122 478q3 13 8.5 17t13.5 4h242q17 0 17 -18v-644z" />
    <glyph glyph-name="N" unicode="N" horiz-adv-x="726" 
d="M663 18q0 -18 -18 -18h-205q-14 0 -23.5 8t-21.5 37l-169 409q-4 8 -9 8q-4 0 -4 -8v-436q0 -18 -19 -18h-112q-19 0 -19 18v644q0 18 18 18h213q13 0 19 -4t9 -11l178 -426q4 -8 9 -8q4 0 4 7v424q0 9 4 13.5t15 4.5h111q20 0 20 -18v-644z" />
    <glyph glyph-name="O" unicode="O" horiz-adv-x="759" 
d="M728 342q0 -76 -21 -140t-63.5 -110.5t-108.5 -73t-156 -26.5q-86 0 -151 25t-109 70.5t-66 109.5t-22 142q0 76 21 140t63.5 110.5t108 73t155.5 26.5q87 0 152 -25t109 -70.5t66 -109.5t22 -142zM527 340q0 111 -38 162t-110 51q-70 0 -109 -51t-39 -161
q0 -214 148 -214q72 0 110 52.5t38 160.5z" />
    <glyph glyph-name="P" unicode="P" horiz-adv-x="627" 
d="M609 475q0 -65 -24 -111t-59 -71q-35 -24 -77 -31t-102 -7h-75q-14 0 -14 -12v-225q0 -8 -4 -13t-12 -5h-163q-8 0 -12 5t-4 13v644q0 18 17 18h277q36 0 63 -2t47.5 -6t36.5 -10.5t31 -16.5q38 -25 56 -72t18 -98zM409 471q0 56 -22 78.5t-68 22.5h-48q-13 0 -13 -14
v-183q0 -12 14 -12h45q18 0 35 5.5t29.5 18t20 33t7.5 51.5z" />
    <glyph glyph-name="Q" unicode="Q" horiz-adv-x="759" 
d="M728 342q0 -78 -20 -137.5t-54 -101t-79.5 -66t-95.5 -31.5q-15 -2 -18.5 -7t-3.5 -23q0 -35 23 -47.5t65 -12.5q29 0 48.5 4t32.5 9.5t21 9.5t15 4q13 0 13 -17v-94q0 -12 -5.5 -18.5t-19.5 -11.5q-20 -7 -52 -11t-86 -4q-68 0 -112.5 11.5t-70.5 32t-37 50t-11 65.5
q0 19 -0.5 30.5t-2 17t-4.5 7.5t-7 3q-47 13 -90 37.5t-75.5 64.5t-51.5 97.5t-19 135.5q0 76 21 140t63.5 110.5t108 73t155.5 26.5q87 0 152 -25t109 -70.5t66 -109.5t22 -142zM527 340q0 43 -6.5 81.5t-23.5 68t-45.5 46.5t-72.5 17q-42 0 -70.5 -17t-45.5 -46
t-24.5 -67.5t-7.5 -81.5q0 -44 7 -82.5t23.5 -68t45 -46.5t72.5 -17q43 0 71.5 17t45.5 46t24 67.5t7 82.5z" />
    <glyph glyph-name="R" unicode="R" horiz-adv-x="658" 
d="M650 11q0 -11 -13 -11h-193q-19 0 -27 15l-139 268q-6 10 -10 10h-5q-7 0 -7 -9v-266q0 -18 -19 -18h-155q-19 0 -19 18v644q0 18 18 18h252q41 0 69 -1t49 -4t36.5 -8t31.5 -13q32 -16 52 -49t20 -94q0 -41 -10 -72t-26.5 -53.5t-38 -36.5t-43.5 -21q-12 -4 -12 -8t4 -9
l176 -280q6 -10 7.5 -13.5t1.5 -6.5zM399 493q0 41 -21.5 61t-69.5 20h-39q-10 0 -10 -11v-145q0 -9 9 -9h42q38 0 63.5 19.5t25.5 64.5z" />
    <glyph glyph-name="S" unicode="S" horiz-adv-x="539" 
d="M499 197q0 -44 -14.5 -81.5t-45 -65t-79 -43t-117.5 -15.5q-52 0 -95.5 5.5t-78.5 18.5q-21 8 -29 15t-8 22v101q0 16 14 16q6 0 17.5 -7t32 -15.5t52.5 -15.5t80 -7q50 0 69 13t19 39q0 9 -1.5 16t-6.5 14.5t-15 15t-26 17.5l-113 66q-59 35 -84.5 81.5t-25.5 112.5
q0 89 65 139t201 50q39 0 76 -6t78 -23q18 -8 22.5 -14.5t4.5 -17.5v-101q0 -6 -2 -12t-12 -6t-21.5 7.5t-29.5 16t-46 16t-72 7.5q-37 0 -61 -8.5t-24 -41.5q0 -15 8.5 -27t31.5 -23l92 -46q45 -22 73 -44.5t43.5 -48t21.5 -55t6 -65.5z" />
    <glyph glyph-name="T" unicode="T" horiz-adv-x="604" 
d="M602 559q0 -18 -16 -18h-176q-11 0 -11 -13v-510q0 -18 -17 -18h-160q-17 0 -17 18v510q0 13 -11 13h-176q-16 0 -16 18v103q0 18 16 18h568q16 0 16 -18v-103z" />
    <glyph glyph-name="U" unicode="U" horiz-adv-x="730" 
d="M671 245q0 -134 -74 -197.5t-235 -63.5q-158 0 -229.5 59.5t-71.5 180.5v438q0 8 4 13t15 5h159q9 0 12.5 -5t3.5 -13v-393q0 -32 6 -57t21 -42t39.5 -26.5t61.5 -9.5q36 0 60.5 9t39.5 25.5t21 40t6 53.5v400q0 8 3.5 13t13.5 5h126q9 0 13.5 -5t4.5 -13v-417z" />
    <glyph glyph-name="V" unicode="V" horiz-adv-x="653" 
d="M651 667q0 -5 -0.5 -7.5l-1.5 -7.5l-203 -622q-6 -20 -15 -29t-30 -9h-157q-17 0 -26.5 7t-17.5 30l-195 623q-2 3 -2.5 7.5t-0.5 7.5q0 13 17 13h160q16 0 20 -12l133 -491q5 -14 10 -14q7 0 11 14l139 491q2 6 5.5 9t14.5 3h126q13 0 13 -13z" />
    <glyph glyph-name="W" unicode="W" horiz-adv-x="1043" 
d="M1041 665q0 -4 -2 -12t-5 -18l-146 -558q-7 -26 -13.5 -42.5t-13 -26t-14.5 -13t-18 -3.5h-166q-20 0 -32 12t-19 50l-77 459q-3 15 -8 15t-8 -14l-82 -478q-4 -24 -15 -34t-31 -10h-181q-30 0 -42 44l-154 589q-5 18 -6.5 26.5t-1.5 13.5q0 6 4 10.5t11 4.5h155
q22 0 27 -21l112 -499q1 -5 2.5 -8.5t6.5 -3.5t8 12l79 468q5 27 16 39.5t33 12.5h173q20 0 32 -13.5t17 -45.5l74 -458q2 -10 3.5 -12.5t4.5 -2.5q5 0 8 12l106 499q4 21 26 21h120q7 0 12 -3.5t5 -11.5z" />
    <glyph glyph-name="X" unicode="X" horiz-adv-x="669" 
d="M669 13q0 -6 -4.5 -9.5t-9.5 -3.5h-189q-12 0 -19 11l-128 208q-7 10 -11 10q-2 0 -4.5 -1.5t-5.5 -7.5l-125 -208q-4 -7 -8 -9.5t-12 -2.5h-135q-18 0 -18 13q0 6 2.5 11l4.5 9l213 308q3 3 3 9q0 5 -4 13l-185 285q-5 8 -6.5 12.5t-1.5 6.5q0 13 15 13h187q13 0 21 -13
l94 -155q7 -11 12 -11q4 0 5.5 2.5l4.5 7.5l92 157q7 12 20 12h136q15 0 15 -13q0 -9 -6 -18l-178 -254q-5 -8 -5 -15q0 -5 5 -13l218 -336q5 -7 6 -10.5t1 -7.5z" />
    <glyph glyph-name="Y" unicode="Y" horiz-adv-x="629" 
d="M631 669q0 -7 -7 -20l-195 -348q-7 -12 -9 -23t-2 -26v-234q0 -18 -19 -18h-157q-11 0 -15 5t-4 13v211q0 20 -2 28.5t-11 25.5l-200 365q-8 15 -8 21q0 11 14 11h168q16 0 24 -15l116 -234q6 -10 12 -10t11 10l119 234q5 9 10 12t15 3h127q13 0 13 -11z" />
    <glyph glyph-name="Z" unicode="Z" horiz-adv-x="593" 
d="M575 18q0 -18 -18 -18h-518q-17 0 -17 18v114q0 25 11 37l292 352q3 3 4.5 6.5t1.5 5.5q0 8 -10 8h-270q-17 0 -17 18v103q0 18 17 18h497q10 0 14.5 -3.5t4.5 -14.5v-105q0 -11 -2 -19t-9 -16l-301 -362q-2 -2 -4 -5.5t-2 -7.5q0 -3 2 -5.5t11 -2.5h295q9 0 13.5 -3.5
t4.5 -14.5v-103z" />
    <glyph glyph-name="bracketleft" unicode="[" horiz-adv-x="305" 
d="M272 -197q0 -23 -23 -23h-184q-21 0 -21 21v897q0 22 22 22h183q23 0 23 -23v-34q0 -22 -23 -22h-57q-13 0 -13 -13v-757q0 -12 14 -12h56q23 0 23 -22v-34z" />
    <glyph glyph-name="backslash" unicode="\" horiz-adv-x="500" 
d="M115 723q0 14 19 19q17 5 36 7t28 2q15 0 18 -19l167 -932q2 -10 2 -15q0 -16 -19 -20q-21 -5 -41.5 -7t-21.5 -2q-18 0 -21 19l-165 935q-1 5 -1.5 8.5t-0.5 4.5z" />
    <glyph glyph-name="bracketright" unicode="]" horiz-adv-x="305" 
d="M34 697q0 23 23 23h184q21 0 21 -21v-897q0 -22 -22 -22h-183q-23 0 -23 23v34q0 22 23 22h56q13 0 13 13v757q0 12 -14 12h-55q-23 0 -23 22v34z" />
    <glyph glyph-name="asciicircum" unicode="^" 
d="M334 691q19 0 30 -21l200 -415q10 -23 10 -29q0 -22 -22 -22h-50q-27 0 -38 23l-147 336q-4 8 -9 8q-4 0 -8 -8l-148 -336q-11 -23 -38 -23h-50q-22 0 -22 22q0 9 10 29l202 415q11 21 30 21h50z" />
    <glyph glyph-name="underscore" unicode="_" horiz-adv-x="500" 
d="M521 -142q0 -21 -21 -21h-500q-21 0 -21 22v19q0 21 21 21h500q21 0 21 -22v-19z" />
    <glyph glyph-name="grave" unicode="`" horiz-adv-x="500" 
d="M372 595q0 -6 -2 -12.5t-10 -17.5q-9 -13 -17 -13q-6 0 -12 1.5t-19 7.5l-169 82q-11 5 -14.5 10.5t-3.5 13.5q0 9 7 20l20 31q8 13 13.5 16.5t11.5 3.5q8 0 14 -3.5t19 -12.5l152 -109q10 -7 10 -18z" />
    <glyph glyph-name="a" unicode="a" horiz-adv-x="572" 
d="M514 18q0 -8 -4.5 -13t-15.5 -5h-138q-5 0 -7.5 3t-2.5 6q0 11 -10 11q-9 0 -20.5 -4.5t-27.5 -9.5t-38 -9.5t-51 -4.5q-53 0 -86 14.5t-51.5 37.5t-25.5 50.5t-7 54.5q0 75 40.5 115t121.5 63l115 32q22 6 27.5 12t5.5 15v3q0 9 -18.5 17.5t-71.5 8.5q-42 0 -71.5 -6.5
t-49 -14t-31 -14t-17.5 -6.5q-16 0 -16 16v84q0 10 7 17.5t30 15.5q29 11 77 17.5t97 6.5q78 0 127 -16.5t72 -42.5q20 -23 30 -51.5t10 -83.5v-319zM339 244q0 12 -11 12q-3 0 -10 -1t-20 -6l-20 -7q-29 -10 -47.5 -27.5t-18.5 -46.5t12 -44.5t50 -15.5q24 0 44.5 11
t20.5 45v80z" />
    <glyph glyph-name="b" unicode="b" horiz-adv-x="641" 
d="M612 268q0 -68 -17.5 -119.5t-50 -86t-77.5 -52.5t-100 -18q-27 0 -46 4.5t-33 9.5t-24 9.5t-19 4.5q-11 0 -11 -7q0 -5 -1.5 -9t-6.5 -4h-147q-19 0 -19 18v684q0 18 20 18h143q18 0 18 -18v-188q0 -13 9 -13q6 0 15.5 4.5t25 10.5t36.5 10.5t49 4.5q113 0 174.5 -70.5
t61.5 -192.5zM422 266q0 65 -24 102.5t-84 37.5q-27 0 -50 -12t-23 -42v-184q0 -16 7 -26t18 -16t24 -8t25 -2q48 0 77.5 34.5t29.5 115.5z" />
    <glyph glyph-name="c" unicode="c" horiz-adv-x="526" 
d="M486 45q0 -21 -27 -32q-14 -5 -32 -9t-39 -6.5t-42.5 -4t-40.5 -1.5q-130 0 -203 65.5t-73 198.5q0 131 73.5 203t215.5 72q42 0 81.5 -6.5t62.5 -15.5q15 -6 19.5 -11.5t4.5 -18.5v-90q0 -8 -4.5 -12t-9.5 -4q-9 0 -17 5t-21 11t-33.5 11t-53.5 5q-62 0 -95.5 -33.5
t-33.5 -117.5q0 -38 9 -64t25.5 -42t39 -23.5t48.5 -7.5q35 0 57.5 5.5t36.5 11.5t22.5 11.5t15.5 5.5q9 0 11.5 -5t2.5 -12v-89z" />
    <glyph glyph-name="d" unicode="d" horiz-adv-x="640" 
d="M580 18q0 -8 -3 -13t-16 -5h-143q-12 0 -12 13q0 3 -1.5 5t-8.5 2q-9 0 -19.5 -4.5t-26 -9.5t-36.5 -9.5t-50 -4.5q-113 0 -174 70.5t-61 192.5q0 67 17.5 118.5t49.5 86.5t77 53t100 18q27 0 47.5 -4t34.5 -9.5t22.5 -9.5t12.5 -4q9 0 9 13v185q0 18 17 18h147
q17 0 17 -18v-684zM399 364q0 17 -18.5 29.5t-53.5 12.5q-49 0 -79 -34.5t-30 -114.5q0 -66 24 -103.5t85 -37.5q13 0 26 2.5t23 9t16.5 17.5t6.5 29v190z" />
    <glyph glyph-name="e" unicode="e" horiz-adv-x="588" 
d="M559 240q0 -18 -18 -18h-307q-15 0 -15 -15q0 -48 33.5 -74.5t106.5 -26.5q38 0 65 6t45 12.5t27.5 12.5t13.5 6q9 0 12.5 -5t3.5 -12v-81q0 -22 -27 -32q-32 -11 -67.5 -16.5t-97.5 -5.5q-155 0 -229.5 69t-74.5 196q0 78 21 130.5t57.5 84.5t85 46t103.5 14
q79 0 130 -21t80 -57t40.5 -83t11.5 -98v-32zM380 340q0 38 -20.5 62t-65.5 24q-38 0 -58.5 -22.5t-20.5 -66.5q0 -5 2 -8t10 -3h141q8 0 10 2.5t2 11.5z" />
    <glyph glyph-name="f" unicode="f" horiz-adv-x="362" 
d="M348 424q0 -19 -18 -19h-65q-13 0 -13 -12v-375q0 -18 -17 -18h-148q-16 0 -16 18v375q0 12 -13 12h-36q-8 0 -13 4t-5 15v79q0 11 5 14.5t13 3.5h36q13 0 13 12v33q0 85 43 122t119 37q57 0 84.5 -11.5t27.5 -27.5v-74q0 -9 -4.5 -12.5t-9.5 -3.5q-9 0 -17 4.5t-22 4.5
q-28 0 -34 -15t-6 -42v-15q0 -12 13 -12h65q11 0 14.5 -4.5t3.5 -13.5v-79z" />
    <glyph glyph-name="g" unicode="g" horiz-adv-x="638" 
d="M580 42q0 -40 -5 -75.5t-20 -63.5q-18 -32 -46.5 -54t-65.5 -35.5t-81 -19.5t-91 -6q-55 0 -101 7.5t-88 20.5q-20 6 -26 14t-6 20v84q0 18 13 18q8 0 19 -7t31 -15t51.5 -15t79.5 -7q29 0 60.5 4.5t54.5 18.5q26 17 33 37t7 43v7q0 14 -9 14q-5 0 -15 -5t-25.5 -11
t-37 -11t-49.5 -5q-113 0 -173.5 68.5t-60.5 190.5q0 68 17.5 119t50 85t77.5 51t100 17q27 0 46 -4.5t32.5 -10t23.5 -10t20 -4.5q7 0 8.5 1.5t1.5 4.5q0 5 2 9t11 4h143q8 0 13 -4.5t5 -13.5v-461zM399 363q0 12 -7.5 21t-18.5 14t-23.5 7.5t-23.5 2.5q-22 0 -41.5 -7
t-34.5 -24t-23.5 -45t-8.5 -71q0 -66 24 -101.5t84 -35.5q13 0 26 2t23.5 9t17 18.5t6.5 31.5v178z" />
    <glyph glyph-name="h" unicode="h" horiz-adv-x="625" 
d="M567 18q0 -8 -3.5 -13t-14.5 -5h-145q-9 0 -13.5 5t-4.5 13v300q0 35 -17.5 58.5t-52.5 23.5q-14 0 -27.5 -1.5t-22.5 -6.5q-27 -14 -27 -48v-326q0 -8 -3.5 -13t-13.5 -5h-145q-9 0 -14 5t-5 13v684q0 18 18 18h146q17 0 17 -18v-193q0 -13 9 -13q5 0 16 5.5t28 12
t40.5 12t52.5 5.5q44 0 81 -12t62 -39t32 -64.5t7 -100.5v-297z" />
    <glyph glyph-name="i" unicode="i" horiz-adv-x="303" 
d="M250 647q0 -34 -25.5 -52.5t-71.5 -18.5q-48 0 -74 18.5t-26 53.5t25.5 53.5t73.5 18.5q47 0 72.5 -19t25.5 -54zM242 18q0 -18 -17 -18h-146q-18 0 -18 18v485q0 7 3.5 12.5t14.5 5.5h146q10 0 13.5 -5.5t3.5 -13.5v-484z" />
    <glyph glyph-name="j" unicode="j" horiz-adv-x="325" 
d="M274 647q0 -34 -25.5 -52.5t-72.5 -18.5q-48 0 -74 18.5t-26 53.5t25.5 53.5t73.5 18.5t73.5 -19t25.5 -54zM265 -61q0 -159 -185 -159q-40 0 -65.5 5t-25.5 19v76q0 10 4.5 13.5t9.5 3.5t9.5 -1.5t12.5 -1.5q34 0 46.5 15t12.5 45v549q0 18 17 18h146q18 0 18 -19v-563z
" />
    <glyph glyph-name="k" unicode="k" horiz-adv-x="582" 
d="M582 14q0 -14 -14 -14h-168q-17 0 -27 17l-109 192q-4 8 -12 8q-13 0 -13 -13v-186q0 -8 -3.5 -13t-12.5 -5h-147q-11 0 -14.5 5t-3.5 13v684q0 18 19 18h145q17 0 17 -19v-388q0 -12 13 -12q9 0 17 13l113 189q6 11 13.5 14.5t16.5 3.5h130q8 0 11 -3.5t3 -8.5
q0 -3 -2 -7.5t-7 -12.5l-123 -192q-6 -8 -6 -13q0 -6 4 -11l151 -237q9 -13 9 -22z" />
    <glyph glyph-name="l" unicode="l" horiz-adv-x="301" 
d="M241 18q0 -18 -17 -18h-146q-18 0 -18 18v684q0 9 5.5 13.5t12.5 4.5h146q17 0 17 -19v-683z" />
    <glyph glyph-name="m" unicode="m" horiz-adv-x="925" 
d="M867 18q0 -18 -18 -18h-144q-19 0 -19 18v291q0 44 -14 67.5t-54 23.5q-26 0 -46 -9t-20 -42v-331q0 -18 -18 -18h-145q-18 0 -18 18v290q0 49 -14.5 70.5t-52.5 21.5q-27 0 -46.5 -9t-19.5 -42v-331q0 -18 -17 -18h-143q-20 0 -20 18v485q0 18 20 18h141q12 0 12 -13
q0 -3 2 -5t10 -2q12 0 23.5 4.5t26 10.5t35 10.5t51.5 4.5q37 0 60 -7t37.5 -15.5t23.5 -15.5t17 -7h6q11 0 23.5 7t31.5 15.5t47.5 15.5t70.5 7q43 0 74.5 -12t57.5 -39q13 -14 21 -30t12 -37t5 -48t1 -61v-286z" />
    <glyph glyph-name="n" unicode="n" horiz-adv-x="625" 
d="M567 18q0 -18 -18 -18h-146q-17 0 -17 18v274q0 35 -3.5 53t-14.5 32q-17 23 -59 23q-12 0 -24.5 -2.5t-22.5 -8.5t-16.5 -16t-6.5 -25v-330q0 -8 -3.5 -13t-13.5 -5h-146q-18 0 -18 18v485q0 11 5 14.5t13 3.5h145q14 0 14 -13q0 -3 2 -5t10 -2q11 0 24 4.5t29.5 10.5
t37.5 10.5t47 4.5q44 0 81 -12t62 -39t32 -64.5t7 -100.5v-297z" />
    <glyph glyph-name="o" unicode="o" horiz-adv-x="620" 
d="M591 263q0 -59 -17 -109t-52 -86t-87.5 -56.5t-124.5 -20.5q-69 0 -122 19t-88 54t-53 84t-18 110q0 59 17 109t52 86.5t88 57t125 20.5q69 0 121 -19t87.5 -54t53.5 -84.5t18 -110.5zM402 265q0 83 -22 115.5t-70 32.5t-70 -35.5t-22 -121.5q0 -82 22 -115t71 -33
q46 0 68.5 34.5t22.5 122.5z" />
    <glyph glyph-name="p" unicode="p" horiz-adv-x="639" 
d="M610 266q0 -68 -18 -119.5t-50.5 -86t-77.5 -52t-100 -17.5q-28 0 -48 4t-33.5 9t-22 9t-12.5 4q-9 0 -9 -13v-198q0 -18 -15 -18h-149q-17 0 -17 18v697q0 18 16 18h144q14 0 14 -10t10 -10q9 0 20 4.5t27 10.5t36.5 10.5t48.5 4.5q56 0 100 -18.5t74 -53t46 -83.5
t16 -110zM420 264q0 71 -26 106t-82 35q-30 0 -51.5 -12.5t-21.5 -39.5v-192q0 -13 7 -21.5t18 -14t24 -8t24 -2.5q21 0 40.5 7t34.5 24t24 45.5t9 72.5z" />
    <glyph glyph-name="q" unicode="q" horiz-adv-x="639" 
d="M29 253q0 65 17.5 116.5t49 87.5t75.5 55t97 19q28 0 48.5 -4.5t35.5 -10.5t26 -10.5t20 -4.5t9 10t14 10h144q16 0 16 -18v-697q0 -18 -17 -18h-149q-6 0 -10.5 4.5t-4.5 13.5v201q0 13 -9 13q-4 0 -14 -4.5t-26 -10t-37.5 -10t-48.5 -4.5q-55 0 -98.5 18t-74 51.5
t-47 82t-16.5 110.5zM219 255q0 -43 9 -70.5t24.5 -43t35 -21t40.5 -5.5q10 0 22.5 2t23.5 8t18.5 16t7.5 26v194q0 23 -22.5 33.5t-49.5 10.5q-57 0 -83 -38.5t-26 -111.5z" />
    <glyph glyph-name="r" unicode="r" horiz-adv-x="434" 
d="M426 392q0 -15 -14 -15q-6 0 -11.5 1t-14 2.5t-21 3t-32.5 1.5q-51 0 -72.5 -20.5t-21.5 -56.5v-290q0 -18 -14 -18h-152q-6 0 -10.5 4.5t-4.5 13.5v485q0 18 15 18h145q14 0 14 -10v-11q0 -8 11 -8t21 6t23.5 12.5t33.5 12.5t51 6q18 0 29 -3t16.5 -8.5t7 -12t1.5 -12.5
v-101z" />
    <glyph glyph-name="s" unicode="s" horiz-adv-x="460" 
d="M422 161q0 -34 -12.5 -64.5t-38 -54t-65 -37t-94.5 -13.5q-53 0 -92 6t-62 15q-14 5 -20 12.5t-6 24.5v72q0 18 13 18q5 0 15 -5.5t29 -11.5t49 -11.5t74 -5.5q26 0 35 8t9 19t-7.5 18.5t-36.5 22.5l-81 43q-40 21 -64.5 52.5t-24.5 87.5q0 78 52.5 126t156.5 48
q45 0 79 -5.5t58 -16.5q14 -6 19 -11.5t5 -16.5v-81q0 -5 -2 -10.5t-13 -5.5q-8 0 -17.5 5t-23.5 11.5t-35 11.5t-51 5q-38 0 -49 -8.5t-11 -22.5q0 -11 7.5 -18.5t36.5 -22.5l44 -23q36 -19 60 -36.5t38 -36.5t20 -40.5t6 -47.5z" />
    <glyph glyph-name="t" unicode="t" horiz-adv-x="440" 
d="M402 29q0 -14 -32 -25.5t-114 -11.5h-17q-87 0 -127.5 41.5t-40.5 122.5v237q0 12 -11 12h-38q-18 0 -18 19v79q0 18 18 18h38q5 0 8 2t3 10v95q0 19 18 19h144q11 0 15 -4.5t4 -14.5v-95q0 -8 3.5 -10t8.5 -2h118q20 0 20 -18v-79q0 -19 -20 -19h-118q-5 0 -8.5 -2.5
t-3.5 -9.5v-208q0 -39 16.5 -52t46.5 -13q19 0 30.5 3t19 6t12.5 6t10 3q15 0 15 -15v-94z" />
    <glyph glyph-name="u" unicode="u" horiz-adv-x="621" 
d="M563 18q0 -18 -17 -18h-146q-10 0 -12 4t-2 9q0 3 -1.5 5t-8.5 2q-12 0 -23.5 -4.5t-27 -9.5t-37.5 -9.5t-53 -4.5q-44 0 -80.5 11.5t-62.5 38.5q-13 14 -20.5 29.5t-11.5 35t-5 44t-1 56.5v296q0 18 19 18h145q17 0 17 -18v-294q0 -46 17 -67t57 -21q11 0 24 2t23 7
q26 13 26 47v326q0 18 18 18h145q18 0 18 -18v-485z" />
    <glyph glyph-name="v" unicode="v" horiz-adv-x="531" 
d="M531 508q0 -7 -3 -14l-151 -472q-5 -17 -14.5 -23.5t-26.5 -6.5h-146q-18 0 -27 6.5t-14 20.5l-146 475q-3 9 -3 14q0 13 17 13h149q16 0 19 -12l85 -341q2 -9 4 -11.5t5 -2.5q5 0 9 14l90 341q3 12 20 12h116q17 0 17 -13z" />
    <glyph glyph-name="w" unicode="w" horiz-adv-x="866" 
d="M864 508q0 -6 -3 -15l-132 -446q-10 -33 -20 -44t-30 -11h-132q-24 0 -33.5 10t-15.5 42l-60 305q-3 14 -8 14t-8 -13l-58 -308q-5 -29 -16.5 -39.5t-30.5 -10.5h-138q-18 0 -29 10t-22 48l-122 439q-2 5 -3 10t-1 9q0 13 16 13h144q10 0 13.5 -3t5.5 -9l74 -344
q3 -13 9 -13q5 0 8 13l60 311q5 26 17 35.5t29 9.5h147q20 0 30 -9t15 -32l58 -313q2 -10 3.5 -12.5t5.5 -2.5q5 0 8 12l78 345q3 12 18 12h106q17 0 17 -13z" />
    <glyph glyph-name="x" unicode="x" horiz-adv-x="531" 
d="M527 14q0 -14 -12 -14h-171q-16 0 -21 11l-72 124q-6 10 -12 10q-5 0 -10 -9l-62 -122q-8 -14 -23 -14h-122q-18 0 -18 13q0 6 2.5 11l4.5 9l147 216q2 2 2 4.5v4.5q0 5 -4 12l-140 220q-2 4 -4.5 8.5t-2.5 9.5q0 13 18 13h165q8 0 13.5 -2t9.5 -10l52 -96q5 -10 12 -10
q5 0 10 9l50 97q4 7 8 9.5t12 2.5h122q17 0 17 -12q0 -8 -7 -17l-128 -192q-4 -5 -4 -10q0 -7 5 -15l156 -244q7 -11 7 -17z" />
    <glyph glyph-name="y" unicode="y" horiz-adv-x="537" 
d="M535 510q0 -8 -4 -20l-185 -560q-14 -43 -32.5 -71.5t-41.5 -46t-50.5 -25t-60.5 -7.5q-27 0 -44.5 1.5t-27 4.5t-13 7t-3.5 10v78q0 15 15 15q5 0 15 -1t24 -1q36 0 51.5 12t15.5 29q0 12 -5 29l-183 526q-4 11 -4 18q0 13 17 13h148q17 0 20 -12l94 -326q4 -13 9 -13
q6 0 10 13l82 326q2 8 7.5 10t12.5 2h119q14 0 14 -11z" />
    <glyph glyph-name="z" unicode="z" horiz-adv-x="495" 
d="M463 18q0 -18 -18 -18h-401q-18 0 -18 18v68q0 10 1.5 18.5t9.5 19.5l184 263q2 3 3.5 5.5t1.5 5.5q0 7 -7 7h-165q-18 0 -18 19v79q0 11 5 14.5t13 3.5h380q10 0 14.5 -3.5t4.5 -14.5v-61q0 -12 -2 -19.5t-9 -17.5l-187 -266q-5 -8 -6.5 -10.5t-1.5 -4.5q0 -7 11 -7h187
q18 0 18 -18v-81z" />
    <glyph glyph-name="braceleft" unicode="{" horiz-adv-x="349" 
d="M27 215q-9 1 -11.5 4.5t-2.5 10.5v44q0 7 2.5 10.5t11.5 4.5l18 1q19 0 30.5 4t18.5 12.5t9.5 23t2.5 36.5v217q0 77 33 109.5t112 32.5h61q18 0 18 -16v-47q0 -16 -18 -16h-17q-45 0 -64.5 -19.5t-19.5 -70.5v-202q0 -37 -12 -62t-43 -33q-9 -4 -9 -7t9 -7q31 -8 43 -33
t12 -62v-201q0 -51 19.5 -70.5t64.5 -19.5h17q18 0 18 -16v-47q0 -16 -18 -16h-61q-79 0 -112 33t-33 110v215q0 43 -12 59t-49 17z" />
    <glyph glyph-name="bar" unicode="|" horiz-adv-x="500" 
d="M306 -224q0 -23 -22 -23h-70q-21 0 -21 22v958q0 23 22 23h70q21 0 21 -23v-957z" />
    <glyph glyph-name="braceright" unicode="}" horiz-adv-x="349" 
d="M322 291q9 -1 11.5 -4.5t2.5 -10.5v-45q0 -7 -2.5 -10.5t-11.5 -4.5l-18 -1q-19 -1 -31 -5t-18.5 -12.5t-9 -22.5t-2.5 -35v-217q0 -77 -33.5 -110t-112.5 -33h-60q-11 0 -14.5 4t-3.5 12v47q0 8 3.5 12t14.5 4h16q45 0 64.5 19.5t19.5 70.5v202q0 38 12 63t43 32
q9 3 9 7t-9 7q-31 8 -43 33t-12 62v201q0 51 -19.5 70.5t-64.5 19.5h-16q-11 0 -14.5 4t-3.5 12v47q0 8 3.5 12t14.5 4h60q79 0 112.5 -32.5t33.5 -109.5v-216q0 -43 11.5 -59t49.5 -16z" />
    <glyph glyph-name="asciitilde" unicode="~" 
d="M269 467q-25 11 -38 16.5t-24 5.5q-17 0 -27.5 -11.5t-23.5 -35.5q-10 -20 -18.5 -26t-19.5 -6q-5 0 -15 4t-20 10.5t-18 14t-8 15.5q0 11 5.5 27t18.5 36q26 38 56.5 56t60.5 18q26 0 52 -7.5t52 -19.5l45 -21q23 -10 37 -16t25 -6q17 0 27.5 11.5t23.5 35.5
q11 20 19 26t19 6q4 0 14.5 -4t20.5 -10.5t18 -14.5t8 -15q0 -11 -5.5 -27t-18.5 -36q-26 -38 -56.5 -56t-60.5 -18q-26 0 -50.5 7t-53.5 20z" />
    <glyph glyph-name="uni00A0" unicode="&#xa0;" horiz-adv-x="266" 
 />
    <glyph glyph-name="exclamdown" unicode="&#xa1;" horiz-adv-x="380" 
d="M81 -128q0 7 0.5 22.5t1.5 29.5l33 407q1 23 23 23h102q23 0 24 -23l32 -407q1 -9 1.5 -22.5t0.5 -29.5q0 -20 -11 -28.5t-35 -8.5h-127q-23 0 -34 8.5t-11 28.5zM86 459q0 33 27 52.5t76 19.5q52 0 78.5 -19t26.5 -54q0 -34 -26.5 -52.5t-77.5 -18.5t-77.5 18t-26.5 54z
" />
    <glyph glyph-name="cent" unicode="&#xa2;" 
d="M527 46q0 -12 -6.5 -19.5t-28.5 -15.5q-11 -4 -25 -7t-28 -5.5t-26.5 -3.5t-18.5 -1q-11 0 -11 -13v-42q0 -13 -3.5 -18t-17.5 -5h-60q-14 0 -17.5 5t-3.5 18v47q0 11 -8 12q-42 7 -79 25t-64.5 49.5t-43.5 77t-16 106.5t14.5 106t41 77t62.5 52t79 31q5 2 9.5 5.5
t4.5 9.5v35q0 13 3.5 17.5t17.5 4.5h60q14 0 17.5 -4.5t3.5 -17.5v-30q0 -12 10 -12q26 -2 58.5 -8t56.5 -16q8 -3 13.5 -8t5.5 -16v-93q0 -5 -2 -10.5t-12 -5.5q-8 0 -17 5t-22.5 11t-34 11t-50.5 5q-66 0 -97.5 -36.5t-31.5 -114.5q0 -72 34 -104t91 -32q34 0 55 5
t34.5 11.5t22 11.5t16.5 5t11 -5t3 -12v-88z" />
    <glyph glyph-name="sterling" unicode="&#xa3;" 
d="M576 18q0 -18 -18 -18h-489q-16 0 -16 15v92q0 9 4 13.5t15 9.5l10 5q15 8 24 27.5t9 51.5v76q0 14 -11 14h-32q-19 0 -19 17v58q0 8 5 13t14 5h32q11 0 11 12v76q0 46 12 84t41.5 64.5t78.5 41t124 14.5q22 0 45 -3t44 -7.5t39.5 -10t30.5 -11.5q15 -7 19.5 -14.5
t4.5 -17.5v-95q0 -6 -3 -11.5t-12 -5.5q-6 0 -16 6.5t-26.5 14.5t-41 14.5t-58.5 6.5q-30 0 -50 -6.5t-31 -19.5t-15.5 -32.5t-4.5 -45.5v-42q0 -12 13 -12h103q9 0 13.5 -5t4.5 -13v-58q0 -17 -18 -17h-103q-13 0 -13 -14v-48q0 -26 -8.5 -46t-29.5 -33q-6 -4 -6 -9
q0 -6 8 -6h298q18 0 18 -19v-111z" />
    <glyph glyph-name="currency" unicode="&#xa4;" 
d="M501 102q-9 -9 -16 -9q-6 0 -15 9l-47 45q-29 -17 -55 -23t-61 -6t-60.5 6t-54.5 23l-47 -45q-8 -9 -15 -9t-14 7l-44 42q-7 7 -7 14q0 8 8 16l47 44q-17 26 -25.5 54t-8.5 63t8.5 63.5t25.5 54.5l-46 43q-9 7 -9 16q0 7 9 16l41 39q8 8 15 8q8 0 17 -9l46 -44
q29 16 54 22t60 6t60.5 -6t54.5 -22l47 45q9 9 16 9q6 0 14 -8l43 -42q7 -7 7 -13q0 -9 -9 -16l-47 -44q18 -26 27 -54.5t9 -63.5t-8.5 -63t-26.5 -54l47 -44q8 -7 8 -15t-8 -16zM184 333q0 -26 9.5 -48.5t26 -39t39 -26.5t48.5 -10t48.5 10t39 26.5t26 39t9.5 48.5
q0 25 -9.5 48t-26 39.5t-39 26.5t-48.5 10t-48.5 -10t-39 -26.5t-26 -39.5t-9.5 -48z" />
    <glyph glyph-name="yen" unicode="&#xa5;" 
d="M623 669q0 -7 -7 -20l-103 -182q-8 -14 -10 -20t-2 -10q0 -6 8 -6h48q8 0 11.5 -4.5t3.5 -10.5v-59q0 -6 -3.5 -10.5t-11.5 -4.5h-99q-15 0 -19 -8l-3 -7q-3 -6 -3 -11t6 -5h118q8 0 11.5 -4.5t3.5 -10.5v-59q0 -6 -3.5 -10.5t-11.5 -4.5h-134q-13 0 -13 -11v-193
q0 -18 -20 -18h-154q-21 0 -21 18v193q0 11 -16 11h-141q-8 0 -11.5 4.5t-3.5 10.5v59q0 6 3.5 10.5t11.5 4.5h117q6 0 6 5q0 2 -3 10l-4 8q-3 5 -6.5 7t-13.5 2h-96q-8 0 -11.5 4.5t-3.5 10.5v59q0 6 3.5 10.5t11.5 4.5h48q9 0 9 6t-10 25l-103 184q-3 5 -5.5 11.5
t-2.5 10.5q0 11 15 11h168q11 0 16.5 -4t8.5 -11l114 -231q5 -10 13 -10q5 0 11 10l118 231q5 9 10 12t14 3h130q4 0 7.5 -3t3.5 -8z" />
    <glyph glyph-name="brokenbar" unicode="&#xa6;" horiz-adv-x="500" 
d="M312 420q0 -22 -22 -22h-81q-21 0 -21 21v363q0 23 22 23h81q21 0 21 -23v-362zM312 -191q0 -22 -22 -22h-81q-21 0 -21 21v363q0 23 22 23h81q21 0 21 -23v-362z" />
    <glyph glyph-name="section" unicode="&#xa7;" horiz-adv-x="556" 
d="M390 441q38 -20 64 -39.5t42 -41t23 -45.5t7 -53q0 -58 -31.5 -92.5t-75.5 -45.5q-8 -2 -10 -4t-2 -4q0 -4 5 -6q70 -36 70 -137q0 -77 -57 -119t-181 -42q-60 0 -96.5 7t-55.5 15q-13 5 -17.5 11.5t-4.5 14.5v88q0 15 16 15q8 0 17 -5.5t25 -11.5t41 -11.5t66 -5.5
q47 0 62.5 9.5t15.5 23.5q0 19 -24 32l-126 66q-72 38 -103.5 79.5t-31.5 100.5q0 57 31.5 91.5t75.5 46.5q8 2 10 4t2 4q0 3 -5 6q-35 18 -53 53.5t-18 83.5q0 77 57 119t182 42q60 0 96.5 -7.5t55.5 -15.5q13 -5 17.5 -11.5t4.5 -14.5v-87q0 -16 -16 -16q-8 0 -17.5 5.5
t-25 11.5t-41 11.5t-65.5 5.5q-42 0 -60 -8.5t-18 -22.5q0 -12 5 -19t18 -14zM251 328q-8 5 -13 6t-11 1q-14 0 -25 -17q-9 -14 -9 -36q0 -14 3 -23.5t10.5 -18.5t20.5 -18t33 -21l43 -27q13 -8 24 -8q13 0 24 18q4 6 7 15t3 21q0 14 -2.5 23.5t-10 18.5t-20.5 18t-33 21z
" />
    <glyph glyph-name="dieresis" unicode="&#xa8;" horiz-adv-x="500" 
d="M218 646q0 -34 -18 -49.5t-51 -15.5t-51.5 15.5t-18.5 50.5q0 63 70 63q32 0 50.5 -15.5t18.5 -48.5zM421 646q0 -65 -70 -65q-32 0 -50.5 15.5t-18.5 50.5q0 32 18 47.5t51 15.5t51.5 -15.5t18.5 -48.5z" />
    <glyph glyph-name="copyright" unicode="&#xa9;" horiz-adv-x="890" 
d="M617 50q0 -19 -22 -29q-26 -11 -56.5 -17t-73.5 -6q-125 0 -189 58.5t-64 185.5t64 191t202 64q36 0 68 -6.5t54 -17.5q17 -8 17 -26v-58q0 -16 -14 -16q-7 0 -16.5 5.5t-24.5 11.5t-35.5 11.5t-49.5 5.5q-60 0 -94 -43.5t-34 -118.5q0 -79 33 -118.5t96 -39.5
q27 0 47.5 5.5t35 12t24.5 12t18 5.5t11 -5t3 -11v-56zM845 246q0 -89 -29 -164t-82 -129t-126.5 -84t-163.5 -30t-163 30t-125.5 83t-81 127t-28.5 162t28.5 163.5t81 130.5t125.5 86t163 31t163.5 -29t126.5 -82t82 -128t29 -167zM739 250q0 66 -22 122.5t-61 98.5
t-93 65.5t-119 23.5t-118.5 -24t-92 -66t-60 -100t-21.5 -125t21.5 -124.5t60 -100t92 -66.5t118.5 -24t119 24.5t93 67.5t61 101.5t22 126.5z" />
    <glyph glyph-name="ordfeminine" unicode="&#xaa;" horiz-adv-x="424" 
d="M383 306q0 -19 -18 -19h-106q-6 0 -9 3t-3 6q0 7 -8 7q-5 0 -12 -3.5t-17 -7.5t-24.5 -7.5t-34.5 -3.5q-41 0 -66.5 11t-39 27.5t-18 37t-4.5 39.5q0 46 31.5 76t79.5 44l66 20q30 10 37 15t7 13v4q0 3 -1.5 6t-7 5.5t-16.5 4t-29 1.5q-28 0 -49.5 -4.5t-37 -10.5
t-25.5 -10.5t-14 -4.5q-9 0 -12.5 4.5t-3.5 10.5v62q0 11 14 20t36.5 15t50.5 9.5t56 3.5q87 0 132.5 -30.5t45.5 -100.5v-243zM244 451q0 9 -6 9q-10 0 -26 -6l-13 -5q-14 -5 -22.5 -15.5t-8.5 -22.5q0 -14 8.5 -23.5t28.5 -9.5q22 0 30.5 7t8.5 25v41z" />
    <glyph glyph-name="guillemotleft" unicode="&#xab;" horiz-adv-x="500" 
d="M264 450q0 -7 -6 -20l-75 -153q-7 -14 -7 -22t7 -22l75 -153q6 -14 6 -20q0 -14 -19 -14h-77q-11 0 -16.5 3.5t-10.5 14.5l-83 168q-4 8 -5 13t-1 10t1 10t5 13l83 168q5 11 10.5 14.5t16.5 3.5h77q19 0 19 -14zM447 450q0 -7 -6 -20l-75 -153q-7 -14 -7 -22t7 -22
l75 -153q6 -14 6 -20q0 -14 -19 -14h-77q-11 0 -16.5 3.5t-10.5 14.5l-83 168q-4 8 -5 13t-1 10t1 10t5 13l83 168q5 11 10.5 14.5t16.5 3.5h77q19 0 19 -14z" />
    <glyph glyph-name="logicalnot" unicode="&#xac;" 
d="M546 182q0 -35 -33 -35h-38q-35 0 -35 35v133q0 5 -3 5h-333q-35 0 -35 33v33q0 34 35 34h409q33 0 33 -35v-203z" />
    <glyph glyph-name="uni00AD" unicode="&#xad;" horiz-adv-x="266" 
d="M238 263q0 -9 -3.5 -14t-17.5 -5h-168q-13 0 -17 5t-4 14v69q0 8 4 13.5t17 5.5h168q14 0 17.5 -5.5t3.5 -13.5v-69z" />
    <glyph glyph-name="registered" unicode="&#xae;" horiz-adv-x="890" 
d="M845 246q0 -89 -29 -164t-82 -129t-126.5 -84t-163.5 -30t-163 30t-125.5 83t-81 127t-28.5 162t28.5 163.5t81 130.5t125.5 86t163 31t163.5 -29t126.5 -82t82 -128t29 -167zM739 250q0 66 -22 122.5t-61 98.5t-93 65.5t-119 23.5t-118.5 -24t-92 -66t-60 -100
t-21.5 -125t21.5 -124.5t60 -100t92 -66.5t118.5 -24t119 24.5t93 67.5t61 101.5t22 126.5zM636 20q0 -13 -16 -13h-84q-11 0 -16 3.5t-10 11.5l-92 173q-4 6 -9 6h-3q-4 0 -4 -6v-169q0 -11 -5 -15t-11 -4h-90q-6 0 -11 3.5t-5 11.5v449q0 19 18 19h168q80 0 117 -31.5
t37 -100.5q0 -58 -20.5 -89t-58.5 -44q-7 -2 -7 -8t4 -12l89 -161q9 -17 9 -24zM492 352q0 26 -16 42t-45 16h-18q-11 0 -11 -12v-99q0 -13 13 -13h16q29 0 45 14.5t16 51.5z" />
    <glyph glyph-name="macron" unicode="&#xaf;" horiz-adv-x="500" 
d="M394 608q0 -20 -20 -20h-249q-11 0 -15.5 4t-4.5 16v43q0 20 20 20h249q11 0 15.5 -4t4.5 -16v-43z" />
    <glyph glyph-name="degree" unicode="&#xb0;" horiz-adv-x="436" 
d="M376 612q0 -72 -42.5 -115t-114.5 -43t-115.5 40t-43.5 118q0 72 42.5 115t114.5 43t115.5 -40t43.5 -118zM280 612q0 33 -18 52.5t-45 19.5q-26 0 -44 -18.5t-18 -53.5q0 -33 18.5 -52.5t45.5 -19.5q26 0 43.5 18.5t17.5 53.5z" />
    <glyph glyph-name="plusminus" unicode="&#xb1;" 
d="M99 -11q-35 0 -35 32v33q0 34 35 34h416q36 0 36 -34v-33q0 -32 -36 -32h-416zM286 117q-17 0 -24 7t-7 24v158q0 14 -13 14h-147q-31 0 -31 29v41q0 30 31 30h147q5 0 9 4.5t4 10.5v156q0 17 7 24.5t24 7.5h43q17 0 24 -7.5t7 -24.5v-156q0 -15 14 -15h146q31 0 31 -30
v-41q0 -29 -31 -29h-146q-14 0 -14 -14v-158q0 -17 -7 -24t-24 -7h-43z" />
    <glyph glyph-name="uni00B2" unicode="&#xb2;" horiz-adv-x="310" 
d="M305 266q0 -11 -3.5 -14.5t-13.5 -3.5h-272q-5 0 -10 4t-5 14v35q0 38 16 66t57 61l56 45q23 19 29.5 32.5t6.5 34.5q0 5 -1.5 13t-7 15.5t-15 13t-24.5 5.5q-23 0 -39 -5t-27.5 -11t-18.5 -11t-12 -5q-8 0 -11 2.5t-3 11.5v62q0 13 5 19.5t20 11.5q28 10 58 14.5t59 4.5
q88 0 124 -36t36 -94q0 -38 -16.5 -70.5t-61.5 -59.5l-70 -43q-26 -16 -26 -23t11 -7h142q10 0 13.5 -4t3.5 -15v-63z" />
    <glyph glyph-name="uni00B3" unicode="&#xb3;" horiz-adv-x="310" 
d="M307 368q0 -63 -40.5 -94t-131.5 -31q-48 0 -83 8t-40 13q-6 5 -8 10t-2 14v57q0 11 4 13t13 2q4 0 10.5 -4t17 -9.5t25 -9.5t35.5 -4q37 0 52.5 11.5t15.5 39.5q0 20 -10 30t-39 10h-23q-18 0 -18 17v52q0 19 18 19h18q19 0 30.5 7t11.5 32q0 20 -9.5 30t-37.5 10
q-20 0 -33 -4.5t-22 -9.5t-15.5 -9.5t-14.5 -4.5q-14 0 -14 16v59q0 22 23 29q20 7 51 10.5t57 3.5q69 0 109 -22t40 -80q0 -23 -5 -39t-14.5 -27.5t-23.5 -19.5t-32 -15q-5 -2 -5 -5q0 -6 10 -8q41 -8 60.5 -33t19.5 -64z" />
    <glyph glyph-name="acute" unicode="&#xb4;" horiz-adv-x="500" 
d="M126 595q0 11 10 18l152 109q13 9 19.5 12.5t13.5 3.5t12.5 -3.5t13.5 -16.5l20 -31q7 -11 7 -20q0 -8 -4 -13.5t-15 -10.5l-169 -82q-12 -6 -18.5 -7.5t-11.5 -1.5q-9 0 -18 13q-7 11 -9.5 17.5t-2.5 12.5z" />
    <glyph glyph-name="mu" unicode="&#xb5;" 
d="M562 18q0 -11 -3.5 -14.5t-11.5 -3.5h-149q-13 0 -13 13q0 2 -2 5t-8 3q-2 0 -7.5 -4.5t-16 -10.5t-28 -10.5t-44.5 -4.5q-20 0 -27.5 4.5t-11.5 4.5q-6 0 -6 -9v-183q0 -20 -18 -20h-143q-20 0 -20 20v695q0 9 5 13.5t12 4.5h148q16 0 16 -18v-290q0 -51 17.5 -72
t61.5 -21q24 0 46 12t22 44v327q0 9 5 13.5t13 4.5h144q8 0 13.5 -4.5t5.5 -13.5v-485z" />
    <glyph glyph-name="paragraph" unicode="&#xb6;" horiz-adv-x="440" 
d="M106 -91q0 17 14 17q10 0 20 -6t35 -6t38.5 15t13.5 50v323q0 15 -13 17q-92 8 -139 64t-47 136q0 99 62 152.5t179 53.5h98q8 0 13 -5t5 -13v-772q0 -40 -13.5 -69.5t-37.5 -48.5t-57 -28t-72 -9q-54 0 -76.5 9t-22.5 23v97z" />
    <glyph glyph-name="periodcentered" unicode="&#xb7;" horiz-adv-x="266" 
d="M223 338q0 -45 -22.5 -69t-67.5 -24q-41 0 -66 24t-25 68q0 42 25 67t66 25q45 0 67.5 -25.5t22.5 -65.5z" />
    <glyph glyph-name="cedilla" unicode="&#xb8;" horiz-adv-x="500" 
d="M338 -106q0 -42 -34 -65t-94 -23q-23 0 -36.5 3.5t-13.5 15.5v19q0 9 7.5 14t40.5 7q17 2 30.5 8.5t13.5 26.5q0 23 -19 28q-18 5 -23 10.5t-5 16.5v27q0 18 -13 18h94q-4 0 -9.5 -3.5t-5.5 -10.5v-6q0 -5 4.5 -8.5t19.5 -8.5q24 -7 33.5 -27t9.5 -42z" />
    <glyph glyph-name="uni00B9" unicode="&#xb9;" horiz-adv-x="310" 
d="M255 266q0 -18 -16 -18h-96q-15 0 -15 18v289q0 8 -7 8q-12 0 -27 -6.5t-45 -6.5q-16 0 -16 17v55q0 11 4.5 15t12.5 4q13 0 27.5 4t28 9t23.5 11l15 9q7 6 20 6h74q17 0 17 -17v-397z" />
    <glyph glyph-name="ordmasculine" unicode="&#xba;" horiz-adv-x="466" 
d="M445 481q0 -93 -51.5 -146.5t-158.5 -53.5q-52 0 -91.5 14.5t-66 40.5t-40 62.5t-13.5 80.5q0 93 52 146.5t160 53.5q102 0 155.5 -54t53.5 -144zM280 483q0 30 -3 49t-9 29.5t-14.5 14t-18.5 3.5q-11 0 -19.5 -4t-14.5 -14.5t-9 -29t-3 -48.5q0 -60 12.5 -80.5
t34.5 -20.5q11 0 19 4.5t13.5 15.5t8.5 31t3 50z" />
    <glyph glyph-name="guillemotright" unicode="&#xbb;" horiz-adv-x="500" 
d="M235 60q0 6 6 20l75 153q7 14 7 22t-7 22l-75 153q-6 13 -6 20q0 14 19 14h77q11 0 16.5 -3.5t10.5 -14.5l83 -168q4 -8 5 -13t1 -10t-1 -10t-5 -13l-83 -168q-5 -11 -10.5 -14.5t-16.5 -3.5h-77q-19 0 -19 14zM52 60q0 6 6 20l75 153q7 14 7 22t-7 22l-75 153
q-6 13 -6 20q0 14 19 14h77q11 0 16.5 -3.5t10.5 -14.5l83 -168q4 -8 5 -13t1 -10t-1 -10t-5 -13l-83 -168q-5 -11 -10.5 -14.5t-16.5 -3.5h-77q-19 0 -19 14z" />
    <glyph glyph-name="onequarter" unicode="&#xbc;" horiz-adv-x="930" 
d="M845 100q0 -19 -19 -19h-23q-11 0 -11 -13v-50q0 -8 -3.5 -13t-13.5 -5h-74q-8 0 -12 5t-4 13v50q0 13 -10 13h-184q-8 0 -11.5 4t-3.5 15v58q0 14 9 26l175 236q5 8 9.5 10t12.5 2h94q16 0 16 -17v-228q0 -12 11 -12h23q19 0 19 -18v-57zM685 313q0 6 -5 6
q-3 0 -5.5 -1.5t-6.5 -7.5l-82 -117q-5 -8 -5 -12q0 -3 3 -4.5t6 -1.5h85q10 0 10 12v126zM657 666q0 -6 -8 -20l-362 -663q-7 -12 -17 -12q-5 0 -24 7t-35 18q-11 7 -11 18q0 5 7 18l367 664q6 13 16 13q3 0 10 -3t16 -7t18 -9t15 -9q8 -5 8 -15zM282 266q0 -18 -16 -18
h-96q-15 0 -15 18v289q0 8 -7 8q-12 0 -27 -6.5t-45 -6.5q-16 0 -16 17v55q0 11 4.5 15t12.5 4q13 0 27.5 4t28 9t23.5 11l15 9q7 6 20 6h74q17 0 17 -17v-397z" />
    <glyph glyph-name="onehalf" unicode="&#xbd;" horiz-adv-x="930" 
d="M834 18q0 -11 -3 -14.5t-13 -3.5h-273q-5 0 -10 4t-5 15v35q0 38 15.5 66t57.5 61l56 45q23 18 29.5 32t6.5 34q0 6 -1.5 14t-6.5 15.5t-14.5 13t-25.5 5.5q-23 0 -39 -5t-27.5 -11.5t-18.5 -11.5t-12 -5q-8 0 -11 2.5t-3 11.5v62q0 14 5 20t21 12q27 10 57 14t59 4
q88 0 124 -36t36 -94q0 -38 -16.5 -70.5t-60.5 -58.5l-70 -43q-20 -13 -23 -16.5t-3 -6.5q0 -7 11 -7h142q10 0 13 -4t3 -16v-63zM282 266q0 -18 -16 -18h-96q-15 0 -15 18v289q0 8 -7 8q-12 0 -27 -6.5t-45 -6.5q-16 0 -16 17v55q0 11 4.5 15t12.5 4q13 0 27.5 4t28 9
t23.5 11l15 9q7 6 20 6h74q17 0 17 -17v-397zM635 666q0 -6 -8 -20l-361 -663q-7 -12 -17 -12q-3 0 -9.5 2t-15 5.5t-18 8t-17.5 9.5q-11 7 -11 18q0 5 7 18l367 664q6 13 16 13q3 0 10 -3t16 -7t18 -9t15 -9q8 -5 8 -15z" />
    <glyph glyph-name="threequarters" unicode="&#xbe;" horiz-adv-x="930" 
d="M865 100q0 -19 -19 -19h-23q-11 0 -11 -13v-50q0 -8 -3.5 -13t-13.5 -5h-74q-8 0 -12 5t-4 13v50q0 13 -10 13h-184q-8 0 -11.5 4t-3.5 15v58q0 14 9 26l175 236q5 8 9.5 10t12.5 2h94q16 0 16 -17v-228q0 -12 11 -12h23q19 0 19 -18v-57zM705 313q0 6 -5 6
q-3 0 -5.5 -1.5t-6.5 -7.5l-82 -117q-5 -8 -5 -12q0 -3 3 -4.5t6 -1.5h85q10 0 10 12v126zM351 368q0 -63 -41 -94t-132 -31q-24 0 -45 2.5t-37.5 6t-27 7t-13.5 5.5q-6 5 -8 10t-2 14v57q0 11 4 13t13 2q4 0 10.5 -4t17 -9.5t25 -9.5t35.5 -4q38 0 53 11.5t15 39.5
q0 20 -10 30t-39 10h-23q-18 0 -18 17v52q0 19 18 19h18q19 0 30.5 7t11.5 32q0 20 -9 30t-38 10q-20 0 -33 -4.5t-22 -9.5t-15.5 -9.5t-14.5 -4.5q-5 0 -9.5 3.5t-4.5 12.5v59q0 11 5 17.5t19 11.5q20 6 50.5 10t56.5 4q69 0 109.5 -22t40.5 -80q0 -23 -5 -39t-15 -27.5
t-24 -19.5t-32 -15q-5 -2 -5 -5q0 -6 10 -8q41 -8 61 -33t20 -64zM688 666q0 -6 -8 -20l-362 -663q-7 -12 -17 -12q-3 0 -9.5 2t-15 5.5t-18 8t-17.5 9.5q-11 7 -11 18q0 5 7 18l367 664q6 13 16 13q3 0 10 -3t16 -7t18.5 -9t15.5 -9q8 -5 8 -15z" />
    <glyph glyph-name="questiondown" unicode="&#xbf;" horiz-adv-x="512" 
d="M36 7q0 47 17.5 89t64.5 89l69 68q11 11 16.5 21.5t5.5 24.5v20q0 20 20 20h113q17 0 17 -20v-36q0 -24 -3 -43t-11 -36.5t-21.5 -35.5t-33.5 -41l-8 -12q-15 -17 -23 -29t-12 -21.5t-5 -18t-1 -19.5q0 -32 23 -52t67 -20q31 0 53.5 7.5t39 16t28 16t19.5 7.5
q15 0 15 -17v-107q0 -12 -10 -19.5t-42 -18.5q-15 -5 -31 -8.5t-35 -5.5t-42.5 -3t-53.5 -1q-65 0 -109.5 14.5t-73 39t-41 58.5t-12.5 73zM181 459q0 33 26.5 52.5t76.5 19.5q51 0 77.5 -19t26.5 -54q0 -34 -26.5 -52.5t-77.5 -18.5q-50 0 -76.5 18t-26.5 54z" />
    <glyph glyph-name="Agrave" unicode="&#xc0;" horiz-adv-x="626" 
d="M629 13q0 -13 -17 -13h-156q-11 0 -14 12l-43 157q-3 11 -6.5 13.5t-14.5 2.5h-172q-8 0 -11.5 -2.5t-6.5 -11.5l-47 -159q-4 -12 -16 -12h-111q-17 0 -17 13q0 6 3 15l201 636q8 25 38 25h158q30 0 38 -26l188 -622l4 -16t2 -12zM359 309q0 6 -3 15l-53 192q-3 10 -8 10
t-8 -11l-55 -191q-3 -11 -3 -15q0 -7 7 -7h115q8 0 8 7zM434 776q0 -6 -2.5 -12.5t-9.5 -17.5q-9 -13 -18 -13q-5 0 -11.5 1.5t-18.5 7.5l-169 82q-11 5 -15 10.5t-4 13.5q0 9 7 20l20 31q8 13 13.5 16.5t12.5 3.5t13.5 -3.5t20.5 -12.5l151 -109q10 -7 10 -18z" />
    <glyph glyph-name="Aacute" unicode="&#xc1;" horiz-adv-x="626" 
d="M629 13q0 -13 -17 -13h-156q-11 0 -14 12l-43 157q-3 11 -6.5 13.5t-14.5 2.5h-172q-8 0 -11.5 -2.5t-6.5 -11.5l-47 -159q-4 -12 -16 -12h-111q-17 0 -17 13q0 6 3 15l201 636q8 25 38 25h158q30 0 38 -26l188 -622l4 -16t2 -12zM359 309q0 6 -3 15l-53 192q-3 10 -8 10
t-8 -11l-55 -191q-3 -11 -3 -15q0 -7 7 -7h115q8 0 8 7zM191 776q0 11 10 18l151 109q13 9 20 12.5t14 3.5t12.5 -3.5t13.5 -16.5l20 -31q7 -11 7 -20q0 -8 -4 -13.5t-15 -10.5l-169 -82q-12 -6 -18.5 -7.5t-11.5 -1.5q-9 0 -18 13q-7 11 -9.5 17.5t-2.5 12.5z" />
    <glyph glyph-name="Acircumflex" unicode="&#xc2;" horiz-adv-x="626" 
d="M629 13q0 -13 -17 -13h-156q-11 0 -14 12l-43 157q-3 11 -6.5 13.5t-14.5 2.5h-172q-8 0 -11.5 -2.5t-6.5 -11.5l-47 -159q-4 -12 -16 -12h-111q-17 0 -17 13q0 6 3 15l201 636q8 25 38 25h158q30 0 38 -26l188 -622l4 -16t2 -12zM359 309q0 6 -3 15l-53 192q-3 10 -8 10
t-8 -11l-55 -191q-3 -11 -3 -15q0 -7 7 -7h115q8 0 8 7zM486 783q0 -5 -4 -12l-16 -25q-5 -8 -12 -8q-5 0 -17 5l-113 58q-9 4 -13 4t-13 -4l-113 -58q-12 -5 -17 -5q-7 0 -12 8l-16 25q-4 7 -4 12q0 4 1.5 7t8.5 8l129 91q24 17 36 17t36 -17l129 -91q7 -5 8.5 -8t1.5 -7z
" />
    <glyph glyph-name="Atilde" unicode="&#xc3;" horiz-adv-x="626" 
d="M629 13q0 -13 -17 -13h-156q-11 0 -14 12l-43 157q-3 11 -6.5 13.5t-14.5 2.5h-172q-8 0 -11.5 -2.5t-6.5 -11.5l-47 -159q-4 -12 -16 -12h-111q-17 0 -17 13q0 6 3 15l201 636q8 25 38 25h158q30 0 38 -26l188 -622l4 -16t2 -12zM359 309q0 6 -3 15l-53 192q-3 10 -8 10
t-8 -11l-55 -191q-3 -11 -3 -15q0 -7 7 -7h115q8 0 8 7zM280 778q-23 11 -39 11q-17 0 -28 -17l-8 -11q-8 -14 -18 -14q-11 0 -29 14q-6 4 -7.5 8t-1.5 9q0 8 10 27q17 36 37.5 50t42.5 14q11 0 25 -1.5t28 -8.5l51 -28q22 -11 38 -11t28 17l7 10q10 15 21 15q3 0 10 -3
t17 -11q6 -4 7.5 -8t1.5 -9q0 -8 -10 -27q-17 -36 -37.5 -50t-42.5 -14q-11 0 -25 1.5t-28 8.5z" />
    <glyph glyph-name="Adieresis" unicode="&#xc4;" horiz-adv-x="626" 
d="M629 13q0 -13 -17 -13h-156q-11 0 -14 12l-43 157q-3 11 -6.5 13.5t-14.5 2.5h-172q-8 0 -11.5 -2.5t-6.5 -11.5l-47 -159q-4 -12 -16 -12h-111q-17 0 -17 13q0 6 3 15l201 636q8 25 38 25h158q30 0 38 -26l188 -622l4 -16t2 -12zM359 309q0 6 -3 15l-53 192q-3 10 -8 10
t-8 -11l-55 -191q-3 -11 -3 -15q0 -7 7 -7h115q8 0 8 7zM279 807q0 -34 -18 -49.5t-51 -15.5t-51.5 15.5t-18.5 50.5q0 63 70 63q32 0 50.5 -15.5t18.5 -48.5zM482 807q0 -65 -70 -65q-32 0 -50.5 15.5t-18.5 50.5q0 32 18 47.5t51 15.5t51.5 -15.5t18.5 -48.5z" />
    <glyph glyph-name="Aring" unicode="&#xc5;" horiz-adv-x="626" 
d="M629 13q0 -13 -17 -13h-156q-11 0 -14 12l-43 157q-3 11 -6.5 13.5t-14.5 2.5h-172q-8 0 -11.5 -2.5t-6.5 -11.5l-47 -159q-4 -12 -16 -12h-111q-17 0 -17 13q0 6 3 15l201 636q8 25 38 25h158q30 0 38 -26l188 -622l4 -16t2 -12zM359 309q0 6 -3 15l-53 192q-3 10 -8 10
t-8 -11l-55 -191q-3 -11 -3 -15q0 -7 7 -7h115q8 0 8 7zM399 805q0 -44 -22.5 -63.5t-64.5 -19.5t-65 18.5t-23 60.5q0 39 22.5 59.5t63.5 20.5q42 0 65.5 -20t23.5 -56zM342 799q0 33 -30 33q-31 0 -31 -31q0 -30 29 -30q32 0 32 28z" />
    <glyph glyph-name="AE" unicode="&#xc6;" horiz-adv-x="866" 
d="M836 18q0 -9 -4 -13.5t-16 -4.5h-383q-12 0 -15.5 4t-5.5 12l-41 222q-2 10 -6 12.5t-15 2.5h-134q-10 0 -14 -3.5t-6 -11.5l-73 -226q-2 -8 -6.5 -10t-12.5 -2h-119q-17 0 -17 13q0 7 3 15l224 626q5 16 15.5 21t24.5 5h562q18 0 18 -18v-103q0 -9 -3.5 -13.5
t-14.5 -4.5h-294q-13 0 -13 -9q0 -11 3 -23l21 -102q2 -8 5 -10.5t12 -2.5h214q18 0 18 -19v-102q0 -20 -18 -20h-185q-13 0 -13 -7q0 -12 3 -24l14 -69q3 -14 14 -14h238q20 0 20 -18v-103zM340 401q0 7 -4 27l-23 124q-2 8 -3.5 10.5t-4.5 2.5t-4.5 -1.5t-3.5 -8.5
l-41 -138q-2 -5 -3 -9.5t-1 -6.5q0 -7 7 -7h72q9 0 9 7z" />
    <glyph glyph-name="Ccedilla" unicode="&#xc7;" horiz-adv-x="635" 
d="M469 -106q0 -42 -34 -65t-94 -23q-23 0 -36.5 3.5t-13.5 15.5v19q0 9 7.5 14t40.5 7q17 2 30.5 8.5t13.5 26.5q0 23 -19 28q-18 5 -23 10.5t-5 16.5v25q0 13 -9 16q-80 9 -136 38t-91.5 72.5t-52 99.5t-16.5 120q0 85 23.5 152.5t69 114.5t113 71.5t155.5 24.5
q65 0 107 -7.5t75 -19.5q21 -8 27 -14.5t6 -23.5v-101q0 -17 -14 -17q-11 0 -21.5 7t-28.5 15.5t-47 15.5t-77 7q-38 0 -72 -13t-59.5 -40.5t-40 -70t-14.5 -101.5q0 -97 52 -147t155 -50q34 0 59 7t43 15.5t29.5 15.5t19.5 7q16 0 16 -16v-103q0 -14 -9 -22.5t-36 -18.5
q-22 -8 -61.5 -14.5t-89.5 -7.5q-9 -2 -9 -13q0 -4 5.5 -7.5t23.5 -11.5q20 -8 29 -26t9 -40z" />
    <glyph glyph-name="Egrave" unicode="&#xc8;" horiz-adv-x="567" 
d="M537 18q0 -9 -3.5 -13.5t-14.5 -4.5h-438q-18 0 -18 18v644q0 18 18 18h417q19 0 19 -18v-103q0 -11 -4.5 -14.5t-14.5 -3.5h-230q-10 0 -10 -12v-99q0 -12 11 -12h178q18 0 18 -17v-104q0 -18 -18 -18h-178q-11 0 -11 -12v-114q0 -14 12 -14h249q11 0 14.5 -4.5
t3.5 -13.5v-103zM405 776q0 -6 -2.5 -12.5t-9.5 -17.5q-9 -13 -18 -13q-5 0 -11.5 1.5t-18.5 7.5l-169 82q-11 5 -15 10.5t-4 13.5q0 9 7 20l20 31q8 13 13.5 16.5t12.5 3.5t13.5 -3.5t20.5 -12.5l151 -109q10 -7 10 -18z" />
    <glyph glyph-name="Eacute" unicode="&#xc9;" horiz-adv-x="567" 
d="M537 18q0 -9 -3.5 -13.5t-14.5 -4.5h-438q-18 0 -18 18v644q0 18 18 18h417q19 0 19 -18v-103q0 -11 -4.5 -14.5t-14.5 -3.5h-230q-10 0 -10 -12v-99q0 -12 11 -12h178q18 0 18 -17v-104q0 -18 -18 -18h-178q-11 0 -11 -12v-114q0 -14 12 -14h249q11 0 14.5 -4.5
t3.5 -13.5v-103zM176 776q0 11 10 18l151 109q13 9 20 12.5t14 3.5t12.5 -3.5t13.5 -16.5l20 -31q7 -11 7 -20q0 -8 -4 -13.5t-15 -10.5l-169 -82q-12 -6 -18.5 -7.5t-11.5 -1.5q-9 0 -18 13q-7 11 -9.5 17.5t-2.5 12.5z" />
    <glyph glyph-name="Ecircumflex" unicode="&#xca;" horiz-adv-x="567" 
d="M537 18q0 -9 -3.5 -13.5t-14.5 -4.5h-438q-18 0 -18 18v644q0 18 18 18h417q19 0 19 -18v-103q0 -11 -4.5 -14.5t-14.5 -3.5h-230q-10 0 -10 -12v-99q0 -12 11 -12h178q18 0 18 -17v-104q0 -18 -18 -18h-178q-11 0 -11 -12v-114q0 -14 12 -14h249q11 0 14.5 -4.5
t3.5 -13.5v-103zM465 783q0 -5 -4 -12l-16 -25q-5 -8 -12 -8q-5 0 -17 5l-113 58q-9 4 -13 4t-13 -4l-113 -58q-12 -5 -17 -5q-7 0 -12 8l-16 25q-4 7 -4 12q0 4 1.5 7t8.5 8l129 91q24 17 36 17t36 -17l129 -91q7 -5 8.5 -8t1.5 -7z" />
    <glyph glyph-name="Edieresis" unicode="&#xcb;" horiz-adv-x="567" 
d="M537 18q0 -9 -3.5 -13.5t-14.5 -4.5h-438q-18 0 -18 18v644q0 18 18 18h417q19 0 19 -18v-103q0 -11 -4.5 -14.5t-14.5 -3.5h-230q-10 0 -10 -12v-99q0 -12 11 -12h178q18 0 18 -17v-104q0 -18 -18 -18h-178q-11 0 -11 -12v-114q0 -14 12 -14h249q11 0 14.5 -4.5
t3.5 -13.5v-103zM259 807q0 -34 -18 -49.5t-51 -15.5t-51.5 15.5t-18.5 50.5q0 63 70 63q32 0 50.5 -15.5t18.5 -48.5zM462 807q0 -65 -70 -65q-32 0 -50.5 15.5t-18.5 50.5q0 32 18 47.5t51 15.5t51.5 -15.5t18.5 -48.5z" />
    <glyph glyph-name="Igrave" unicode="&#xcc;" horiz-adv-x="323" 
d="M259 18q0 -9 -5 -13.5t-13 -4.5h-159q-18 0 -18 18v644q0 18 20 18h157q18 0 18 -18v-644zM277 776q0 -6 -2.5 -12.5t-9.5 -17.5q-9 -13 -18 -13q-5 0 -11.5 1.5t-18.5 7.5l-169 82q-11 5 -15 10.5t-4 13.5q0 9 7 20l20 31q8 13 13.5 16.5t12.5 3.5t13.5 -3.5t20.5 -12.5
l151 -109q10 -7 10 -18z" />
    <glyph glyph-name="Iacute" unicode="&#xcd;" horiz-adv-x="323" 
d="M259 18q0 -9 -5 -13.5t-13 -4.5h-159q-18 0 -18 18v644q0 18 20 18h157q18 0 18 -18v-644zM49 776q0 11 10 18l151 109q13 9 20 12.5t14 3.5t12.5 -3.5t13.5 -16.5l20 -31q7 -11 7 -20q0 -8 -4 -13.5t-15 -10.5l-169 -82q-12 -6 -18.5 -7.5t-11.5 -1.5q-9 0 -18 13
q-7 11 -9.5 17.5t-2.5 12.5z" />
    <glyph glyph-name="Icircumflex" unicode="&#xce;" horiz-adv-x="323" 
d="M259 18q0 -9 -5 -13.5t-13 -4.5h-159q-18 0 -18 18v644q0 18 20 18h157q18 0 18 -18v-644zM338 783q0 -5 -4 -12l-16 -25q-5 -8 -12 -8q-5 0 -17 5l-113 58q-9 4 -13 4t-13 -4l-113 -58q-12 -5 -17 -5q-7 0 -12 8l-16 25q-4 7 -4 12q0 4 1.5 7t8.5 8l129 91q24 17 36 17
t36 -17l129 -91q7 -5 8.5 -8t1.5 -7z" />
    <glyph glyph-name="Idieresis" unicode="&#xcf;" horiz-adv-x="323" 
d="M259 18q0 -9 -5 -13.5t-13 -4.5h-159q-18 0 -18 18v644q0 18 20 18h157q18 0 18 -18v-644zM131 807q0 -34 -18 -49.5t-51 -15.5t-51.5 15.5t-18.5 50.5q0 63 70 63q32 0 50.5 -15.5t18.5 -48.5zM334 807q0 -65 -70 -65q-32 0 -50.5 15.5t-18.5 50.5q0 32 18 47.5t51 15.5
t51.5 -15.5t18.5 -48.5z" />
    <glyph glyph-name="Eth" unicode="&#xd0;" horiz-adv-x="751" 
d="M720 344q0 -103 -40 -180t-113 -117q-41 -23 -94.5 -35t-128.5 -12h-263q-9 0 -13.5 5t-4.5 13v261q0 8 -3.5 10t-5.5 2h-48q-7 0 -11 5.5t-4 12.5v78q0 19 15 19h48q2 0 5.5 2t3.5 10v243q0 11 4.5 15t14.5 4h273q54 0 99 -6t81.5 -19.5t66 -35.5t53.5 -54
q29 -39 47 -95.5t18 -125.5zM518 343q0 104 -47.5 151t-133.5 47h-68q-11 0 -11 -12v-111q0 -8 3 -10t9 -2h86q16 0 16 -19v-78q0 -7 -4 -12.5t-12 -5.5h-86q-12 0 -12 -11v-127q0 -14 13 -14h53q30 0 64 6.5t63 28t48 61.5t19 108z" />
    <glyph glyph-name="Ntilde" unicode="&#xd1;" horiz-adv-x="726" 
d="M663 18q0 -18 -18 -18h-205q-14 0 -23.5 8t-21.5 37l-169 409q-4 8 -9 8q-4 0 -4 -8v-436q0 -18 -19 -18h-112q-19 0 -19 18v644q0 18 18 18h213q13 0 19 -4t9 -11l178 -426q4 -8 9 -8q4 0 4 7v424q0 9 4 13.5t15 4.5h111q20 0 20 -18v-644zM332 778q-23 11 -39 11
q-17 0 -28 -17l-8 -11q-8 -14 -18 -14q-11 0 -29 14q-6 4 -7.5 8t-1.5 9q0 8 10 27q17 36 37.5 50t42.5 14q11 0 25 -1.5t28 -8.5l51 -28q22 -11 38 -11t28 17l7 10q10 15 21 15q3 0 10 -3t17 -11q6 -4 7.5 -8t1.5 -9q0 -8 -10 -27q-17 -36 -37.5 -50t-42.5 -14
q-11 0 -25 1.5t-28 8.5z" />
    <glyph glyph-name="Ograve" unicode="&#xd2;" horiz-adv-x="759" 
d="M728 342q0 -76 -21 -140t-63.5 -110.5t-108.5 -73t-156 -26.5q-86 0 -151 25t-109 70.5t-66 109.5t-22 142q0 76 21 140t63.5 110.5t108 73t155.5 26.5q87 0 152 -25t109 -70.5t66 -109.5t22 -142zM527 340q0 111 -38 162t-110 51q-70 0 -109 -51t-39 -161
q0 -214 148 -214q72 0 110 52.5t38 160.5zM480 776q0 -6 -2.5 -12.5t-9.5 -17.5q-9 -13 -18 -13q-5 0 -11.5 1.5t-18.5 7.5l-169 82q-11 5 -15 10.5t-4 13.5q0 9 7 20l20 31q8 13 13.5 16.5t12.5 3.5t13.5 -3.5t20.5 -12.5l151 -109q10 -7 10 -18z" />
    <glyph glyph-name="Oacute" unicode="&#xd3;" horiz-adv-x="759" 
d="M728 342q0 -76 -21 -140t-63.5 -110.5t-108.5 -73t-156 -26.5q-86 0 -151 25t-109 70.5t-66 109.5t-22 142q0 76 21 140t63.5 110.5t108 73t155.5 26.5q87 0 152 -25t109 -70.5t66 -109.5t22 -142zM527 340q0 111 -38 162t-110 51q-70 0 -109 -51t-39 -161
q0 -214 148 -214q72 0 110 52.5t38 160.5zM273 776q0 11 10 18l151 109q13 9 20 12.5t14 3.5t12.5 -3.5t13.5 -16.5l20 -31q7 -11 7 -20q0 -8 -4 -13.5t-15 -10.5l-169 -82q-12 -6 -18.5 -7.5t-11.5 -1.5q-9 0 -18 13q-7 11 -9.5 17.5t-2.5 12.5z" />
    <glyph glyph-name="Ocircumflex" unicode="&#xd4;" horiz-adv-x="759" 
d="M728 342q0 -76 -21 -140t-63.5 -110.5t-108.5 -73t-156 -26.5q-86 0 -151 25t-109 70.5t-66 109.5t-22 142q0 76 21 140t63.5 110.5t108 73t155.5 26.5q87 0 152 -25t109 -70.5t66 -109.5t22 -142zM527 340q0 111 -38 162t-110 51q-70 0 -109 -51t-39 -161
q0 -214 148 -214q72 0 110 52.5t38 160.5zM554 783q0 -5 -4 -12l-16 -25q-5 -8 -12 -8q-5 0 -17 5l-113 58q-9 4 -13 4t-13 -4l-113 -58q-12 -5 -17 -5q-7 0 -12 8l-16 25q-4 7 -4 12q0 4 1.5 7t8.5 8l129 91q24 17 36 17t36 -17l129 -91q7 -5 8.5 -8t1.5 -7z" />
    <glyph glyph-name="Otilde" unicode="&#xd5;" horiz-adv-x="759" 
d="M728 342q0 -76 -21 -140t-63.5 -110.5t-108.5 -73t-156 -26.5q-86 0 -151 25t-109 70.5t-66 109.5t-22 142q0 76 21 140t63.5 110.5t108 73t155.5 26.5q87 0 152 -25t109 -70.5t66 -109.5t22 -142zM527 340q0 111 -38 162t-110 51q-70 0 -109 -51t-39 -161
q0 -214 148 -214q72 0 110 52.5t38 160.5zM348 778q-23 11 -39 11q-17 0 -28 -17l-8 -11q-8 -14 -18 -14q-11 0 -29 14q-6 4 -7.5 8t-1.5 9q0 8 10 27q17 36 37.5 50t42.5 14q11 0 25 -1.5t28 -8.5l51 -28q22 -11 38 -11t28 17l7 10q10 15 21 15q3 0 10 -3t17 -11
q6 -4 7.5 -8t1.5 -9q0 -8 -10 -27q-17 -36 -37.5 -50t-42.5 -14q-11 0 -25 1.5t-28 8.5z" />
    <glyph glyph-name="Odieresis" unicode="&#xd6;" horiz-adv-x="759" 
d="M728 342q0 -76 -21 -140t-63.5 -110.5t-108.5 -73t-156 -26.5q-86 0 -151 25t-109 70.5t-66 109.5t-22 142q0 76 21 140t63.5 110.5t108 73t155.5 26.5q87 0 152 -25t109 -70.5t66 -109.5t22 -142zM527 340q0 111 -38 162t-110 51q-70 0 -109 -51t-39 -161
q0 -214 148 -214q72 0 110 52.5t38 160.5zM347 807q0 -34 -18 -49.5t-51 -15.5t-51.5 15.5t-18.5 50.5q0 63 70 63q32 0 50.5 -15.5t18.5 -48.5zM550 807q0 -65 -70 -65q-32 0 -50.5 15.5t-18.5 50.5q0 32 18 47.5t51 15.5t51.5 -15.5t18.5 -48.5z" />
    <glyph glyph-name="multiply" unicode="&#xd7;" 
d="M490 129q-13 -13 -25 -13q-11 0 -24 13l-121 122q-7 7 -13 7q-7 0 -13 -7l-118 -122q-11 -13 -25 -13q-12 0 -23 11l-26 26q-11 11 -11 23t12 24l121 122q5 5 6 7.5t1 4.5q0 5 -7 12l-127 126q-6 6 -6 18t13 25l23 23q12 12 24 12q13 0 26 -13l118 -119q8 -8 13 -8
q3 0 6 1.5t9 7.5l117 119q13 13 25 13q8 0 12.5 -3t10.5 -9l26 -26q11 -11 11 -22q0 -12 -13 -26l-119 -119q-7 -7 -7 -12t7 -12l120 -120q12 -13 12 -25q0 -13 -12 -25z" />
    <glyph glyph-name="Oslash" unicode="&#xd8;" horiz-adv-x="759" 
d="M729 342q0 -168 -87 -259t-266 -91q-32 0 -57.5 3.5t-44.5 7.5t-30.5 7.5t-15.5 3.5q-6 0 -11 -8l-22 -39q-4 -6 -7 -9t-8 -3q-7 0 -14 3l-20 11q-10 4 -10 13q0 7 7 18l17 29q5 9 5 15q0 7 -21 21.5t-46.5 47t-46.5 88t-21 144.5q0 169 90.5 256.5t261.5 87.5
q35 0 60.5 -3.5t42.5 -8t27.5 -8t15.5 -3.5q8 0 13 8l22 39q5 9 8 11t8 2q6 0 14 -4l22 -13q7 -2 7 -12q0 -6 -7 -17l-16 -28q-5 -8 -5 -16q0 -5 21 -20t46.5 -48t46.5 -87.5t21 -138.5zM529 340q0 67 -11 103.5t-18 36.5q-5 0 -11 -10l-176 -304q-5 -8 -5 -14
q0 -9 18 -16.5t50 -7.5q34 0 62 11.5t48.5 37t31.5 66t11 97.5zM450 528q0 10 -20 17t-50 7q-33 0 -61 -11.5t-48.5 -37t-31.5 -65.5t-11 -97q0 -30 2.5 -55.5t6.5 -44t9 -29.5t11 -11t12 11l176 302q5 9 5 14z" />
    <glyph glyph-name="Ugrave" unicode="&#xd9;" horiz-adv-x="730" 
d="M671 245q0 -134 -74 -197.5t-235 -63.5q-158 0 -229.5 59.5t-71.5 180.5v438q0 8 4 13t15 5h159q9 0 12.5 -5t3.5 -13v-393q0 -32 6 -57t21 -42t39.5 -26.5t61.5 -9.5q36 0 60.5 9t39.5 25.5t21 40t6 53.5v400q0 8 3.5 13t13.5 5h126q9 0 13.5 -5t4.5 -13v-417zM486 776
q0 -6 -2.5 -12.5t-9.5 -17.5q-9 -13 -18 -13q-5 0 -11.5 1.5t-18.5 7.5l-169 82q-11 5 -15 10.5t-4 13.5q0 9 7 20l20 31q8 13 13.5 16.5t12.5 3.5t13.5 -3.5t20.5 -12.5l151 -109q10 -7 10 -18z" />
    <glyph glyph-name="Uacute" unicode="&#xda;" horiz-adv-x="730" 
d="M671 245q0 -134 -74 -197.5t-235 -63.5q-158 0 -229.5 59.5t-71.5 180.5v438q0 8 4 13t15 5h159q9 0 12.5 -5t3.5 -13v-393q0 -32 6 -57t21 -42t39.5 -26.5t61.5 -9.5q36 0 60.5 9t39.5 25.5t21 40t6 53.5v400q0 8 3.5 13t13.5 5h126q9 0 13.5 -5t4.5 -13v-417zM262 776
q0 11 10 18l151 109q13 9 20 12.5t14 3.5t12.5 -3.5t13.5 -16.5l20 -31q7 -11 7 -20q0 -8 -4 -13.5t-15 -10.5l-169 -82q-12 -6 -18.5 -7.5t-11.5 -1.5q-9 0 -18 13q-7 11 -9.5 17.5t-2.5 12.5z" />
    <glyph glyph-name="Ucircumflex" unicode="&#xdb;" horiz-adv-x="730" 
d="M671 245q0 -134 -74 -197.5t-235 -63.5q-158 0 -229.5 59.5t-71.5 180.5v438q0 8 4 13t15 5h159q9 0 12.5 -5t3.5 -13v-393q0 -32 6 -57t21 -42t39.5 -26.5t61.5 -9.5q36 0 60.5 9t39.5 25.5t21 40t6 53.5v400q0 8 3.5 13t13.5 5h126q9 0 13.5 -5t4.5 -13v-417zM547 783
q0 -5 -4 -12l-16 -25q-5 -8 -12 -8q-5 0 -17 5l-113 58q-9 4 -13 4t-13 -4l-113 -58q-12 -5 -17 -5q-7 0 -12 8l-16 25q-4 7 -4 12q0 4 1.5 7t8.5 8l129 91q24 17 36 17t36 -17l129 -91q7 -5 8.5 -8t1.5 -7z" />
    <glyph glyph-name="Udieresis" unicode="&#xdc;" horiz-adv-x="730" 
d="M671 245q0 -134 -74 -197.5t-235 -63.5q-158 0 -229.5 59.5t-71.5 180.5v438q0 8 4 13t15 5h159q9 0 12.5 -5t3.5 -13v-393q0 -32 6 -57t21 -42t39.5 -26.5t61.5 -9.5q36 0 60.5 9t39.5 25.5t21 40t6 53.5v400q0 8 3.5 13t13.5 5h126q9 0 13.5 -5t4.5 -13v-417zM341 807
q0 -34 -18 -49.5t-51 -15.5t-51.5 15.5t-18.5 50.5q0 63 70 63q32 0 50.5 -15.5t18.5 -48.5zM544 807q0 -65 -70 -65q-32 0 -50.5 15.5t-18.5 50.5q0 32 18 47.5t51 15.5t51.5 -15.5t18.5 -48.5z" />
    <glyph glyph-name="Yacute" unicode="&#xdd;" horiz-adv-x="629" 
d="M631 669q0 -7 -7 -20l-195 -348q-7 -12 -9 -23t-2 -26v-234q0 -18 -19 -18h-157q-11 0 -15 5t-4 13v211q0 20 -2 28.5t-11 25.5l-200 365q-8 15 -8 21q0 11 14 11h168q16 0 24 -15l116 -234q6 -10 12 -10t11 10l119 234q5 9 10 12t15 3h127q13 0 13 -11zM210 776
q0 11 10 18l151 109q13 9 20 12.5t14 3.5t12.5 -3.5t13.5 -16.5l20 -31q7 -11 7 -20q0 -8 -4 -13.5t-15 -10.5l-169 -82q-12 -6 -18.5 -7.5t-11.5 -1.5q-9 0 -18 13q-7 11 -9.5 17.5t-2.5 12.5z" />
    <glyph glyph-name="Thorn" unicode="&#xde;" horiz-adv-x="655" 
d="M625 390q0 -59 -24 -112t-72 -79q-29 -17 -67.5 -24.5t-98.5 -7.5h-91q-8 0 -11 -2t-3 -10v-137q0 -18 -17 -18h-161q-17 0 -17 18v644q0 18 17 18h161q17 0 17 -18v-56q0 -12 12 -12h103q35 0 61.5 -2t47.5 -6t37.5 -10.5t31.5 -16.5q38 -25 56 -71.5t18 -97.5zM425 385
q0 56 -22 78.5t-68 22.5h-64q-13 0 -13 -14v-185q0 -12 14 -12h61q18 0 35 5.5t29.5 18.5t20 34t7.5 52z" />
    <glyph glyph-name="germandbls" unicode="&#xdf;" horiz-adv-x="696" 
d="M674 160q0 -35 -13 -65.5t-39.5 -53t-66 -36t-91.5 -13.5t-90 5.5t-62 15.5q-19 8 -24.5 15.5t-5.5 18.5v75q0 17 15 17q4 0 14.5 -5t29 -11.5t47 -11.5t69.5 -5q29 0 39.5 6t10.5 20q0 10 -8 17.5t-35 22.5l-67 37q-27 15 -47 29t-33 30.5t-19.5 37t-6.5 47.5
q0 53 21.5 84t63.5 54q19 10 32.5 18t21 16t11 17t3.5 23q0 30 -21.5 46t-75.5 16q-61 0 -84.5 -28.5t-23.5 -84.5v-496q0 -18 -16 -18h-147q-18 0 -18 18v488q0 59 20.5 100.5t57.5 68t89 38.5t115 12q78 0 130.5 -12.5t84 -33t45 -46t13.5 -51.5q0 -35 -7.5 -57.5
t-20 -37.5t-29.5 -25t-35 -19q-21 -11 -33.5 -17.5t-19 -12.5t-8.5 -12.5t-2 -16.5q0 -11 8 -17t26 -16l68 -37q33 -18 54.5 -35t35 -35t19 -38.5t5.5 -45.5z" />
    <glyph glyph-name="agrave" unicode="&#xe0;" horiz-adv-x="572" 
d="M514 18q0 -8 -4.5 -13t-15.5 -5h-138q-5 0 -7.5 3t-2.5 6q0 11 -10 11q-9 0 -20.5 -4.5t-27.5 -9.5t-38 -9.5t-51 -4.5q-53 0 -86 14.5t-51.5 37.5t-25.5 50.5t-7 54.5q0 75 40.5 115t121.5 63l115 32q22 6 27.5 12t5.5 15v3q0 9 -18.5 17.5t-71.5 8.5q-42 0 -71.5 -6.5
t-49 -14t-31 -14t-17.5 -6.5q-16 0 -16 16v84q0 10 7 17.5t30 15.5q29 11 77 17.5t97 6.5q78 0 127 -16.5t72 -42.5q20 -23 30 -51.5t10 -83.5v-319zM339 244q0 12 -11 12q-3 0 -10 -1t-20 -6l-20 -7q-29 -10 -47.5 -27.5t-18.5 -46.5t12 -44.5t50 -15.5q24 0 44.5 11
t20.5 45v80zM390 595q0 -6 -2 -12.5t-10 -17.5q-9 -13 -17 -13q-6 0 -12 1.5t-19 7.5l-169 82q-11 5 -14.5 10.5t-3.5 13.5q0 9 7 20l20 31q8 13 13.5 16.5t11.5 3.5q8 0 14 -3.5t19 -12.5l152 -109q10 -7 10 -18z" />
    <glyph glyph-name="aacute" unicode="&#xe1;" horiz-adv-x="572" 
d="M514 18q0 -8 -4.5 -13t-15.5 -5h-138q-5 0 -7.5 3t-2.5 6q0 11 -10 11q-9 0 -20.5 -4.5t-27.5 -9.5t-38 -9.5t-51 -4.5q-53 0 -86 14.5t-51.5 37.5t-25.5 50.5t-7 54.5q0 75 40.5 115t121.5 63l115 32q22 6 27.5 12t5.5 15v3q0 9 -18.5 17.5t-71.5 8.5q-42 0 -71.5 -6.5
t-49 -14t-31 -14t-17.5 -6.5q-16 0 -16 16v84q0 10 7 17.5t30 15.5q29 11 77 17.5t97 6.5q78 0 127 -16.5t72 -42.5q20 -23 30 -51.5t10 -83.5v-319zM339 244q0 12 -11 12q-3 0 -10 -1t-20 -6l-20 -7q-29 -10 -47.5 -27.5t-18.5 -46.5t12 -44.5t50 -15.5q24 0 44.5 11
t20.5 45v80zM163 595q0 11 10 18l152 109q13 9 19.5 12.5t13.5 3.5t12.5 -3.5t13.5 -16.5l20 -31q7 -11 7 -20q0 -8 -4 -13.5t-15 -10.5l-169 -82q-12 -6 -18.5 -7.5t-11.5 -1.5q-9 0 -18 13q-7 11 -9.5 17.5t-2.5 12.5z" />
    <glyph glyph-name="acircumflex" unicode="&#xe2;" horiz-adv-x="572" 
d="M514 18q0 -8 -4.5 -13t-15.5 -5h-138q-5 0 -7.5 3t-2.5 6q0 11 -10 11q-9 0 -20.5 -4.5t-27.5 -9.5t-38 -9.5t-51 -4.5q-53 0 -86 14.5t-51.5 37.5t-25.5 50.5t-7 54.5q0 75 40.5 115t121.5 63l115 32q22 6 27.5 12t5.5 15v3q0 9 -18.5 17.5t-71.5 8.5q-42 0 -71.5 -6.5
t-49 -14t-31 -14t-17.5 -6.5q-16 0 -16 16v84q0 10 7 17.5t30 15.5q29 11 77 17.5t97 6.5q78 0 127 -16.5t72 -42.5q20 -23 30 -51.5t10 -83.5v-319zM339 244q0 12 -11 12q-3 0 -10 -1t-20 -6l-20 -7q-29 -10 -47.5 -27.5t-18.5 -46.5t12 -44.5t50 -15.5q24 0 44.5 11
t20.5 45v80zM457 602q0 -5 -4 -12l-16 -25q-5 -8 -12 -8q-5 0 -17 5l-113 58q-9 4 -13 4t-13 -4l-113 -58q-12 -5 -17 -5q-7 0 -12 8l-16 25q-4 7 -4 12q0 4 1.5 7t8.5 8l129 91q24 17 36 17t36 -17l129 -91q7 -5 8.5 -8t1.5 -7z" />
    <glyph glyph-name="atilde" unicode="&#xe3;" horiz-adv-x="572" 
d="M514 18q0 -8 -4.5 -13t-15.5 -5h-138q-5 0 -7.5 3t-2.5 6q0 11 -10 11q-9 0 -20.5 -4.5t-27.5 -9.5t-38 -9.5t-51 -4.5q-53 0 -86 14.5t-51.5 37.5t-25.5 50.5t-7 54.5q0 75 40.5 115t121.5 63l115 32q22 6 27.5 12t5.5 15v3q0 9 -18.5 17.5t-71.5 8.5q-42 0 -71.5 -6.5
t-49 -14t-31 -14t-17.5 -6.5q-16 0 -16 16v84q0 10 7 17.5t30 15.5q29 11 77 17.5t97 6.5q78 0 127 -16.5t72 -42.5q20 -23 30 -51.5t10 -83.5v-319zM339 244q0 12 -11 12q-3 0 -10 -1t-20 -6l-20 -7q-29 -10 -47.5 -27.5t-18.5 -46.5t12 -44.5t50 -15.5q24 0 44.5 11
t20.5 45v80zM252 618q-22 11 -37 11q-16 0 -26 -16l-8 -11q-9 -13 -17 -13q-9 0 -28 13q-5 4 -6.5 8t-1.5 8q0 8 9 26q16 35 36 48t40 13q11 0 24.5 -1.5t26.5 -8.5l48 -26q22 -11 37 -11t26 16l7 10q10 14 20 14q7 0 26 -13q5 -4 6.5 -8t1.5 -8q0 -8 -9 -26
q-16 -35 -36 -48t-40 -13q-11 0 -24.5 1.5t-26.5 8.5z" />
    <glyph glyph-name="adieresis" unicode="&#xe4;" horiz-adv-x="572" 
d="M514 18q0 -8 -4.5 -13t-15.5 -5h-138q-5 0 -7.5 3t-2.5 6q0 11 -10 11q-9 0 -20.5 -4.5t-27.5 -9.5t-38 -9.5t-51 -4.5q-53 0 -86 14.5t-51.5 37.5t-25.5 50.5t-7 54.5q0 75 40.5 115t121.5 63l115 32q22 6 27.5 12t5.5 15v3q0 9 -18.5 17.5t-71.5 8.5q-42 0 -71.5 -6.5
t-49 -14t-31 -14t-17.5 -6.5q-16 0 -16 16v84q0 10 7 17.5t30 15.5q29 11 77 17.5t97 6.5q78 0 127 -16.5t72 -42.5q20 -23 30 -51.5t10 -83.5v-319zM339 244q0 12 -11 12q-3 0 -10 -1t-20 -6l-20 -7q-29 -10 -47.5 -27.5t-18.5 -46.5t12 -44.5t50 -15.5q24 0 44.5 11
t20.5 45v80zM250 646q0 -34 -18 -49.5t-51 -15.5t-51.5 15.5t-18.5 50.5q0 63 70 63q32 0 50.5 -15.5t18.5 -48.5zM453 646q0 -65 -70 -65q-32 0 -50.5 15.5t-18.5 50.5q0 32 18 47.5t51 15.5t51.5 -15.5t18.5 -48.5z" />
    <glyph glyph-name="aring" unicode="&#xe5;" horiz-adv-x="572" 
d="M514 18q0 -8 -4.5 -13t-15.5 -5h-138q-5 0 -7.5 3t-2.5 6q0 11 -10 11q-9 0 -20.5 -4.5t-27.5 -9.5t-38 -9.5t-51 -4.5q-53 0 -86 14.5t-51.5 37.5t-25.5 50.5t-7 54.5q0 75 40.5 115t121.5 63l115 32q22 6 27.5 12t5.5 15v3q0 9 -18.5 17.5t-71.5 8.5q-42 0 -71.5 -6.5
t-49 -14t-31 -14t-17.5 -6.5q-16 0 -16 16v84q0 10 7 17.5t30 15.5q29 11 77 17.5t97 6.5q78 0 127 -16.5t72 -42.5q20 -23 30 -51.5t10 -83.5v-319zM339 244q0 12 -11 12q-3 0 -10 -1t-20 -6l-20 -7q-29 -10 -47.5 -27.5t-18.5 -46.5t12 -44.5t50 -15.5q24 0 44.5 11
t20.5 45v80zM370 640q0 -44 -23 -63.5t-65 -19.5t-64.5 18.5t-22.5 60.5q0 39 23 59.5t64 20.5q42 0 65 -20t23 -56zM313 634q0 33 -31 33q-30 0 -30 -31q0 -30 30 -30q31 0 31 28z" />
    <glyph glyph-name="ae" unicode="&#xe6;" horiz-adv-x="878" 
d="M849 241q0 -18 -17 -18h-308q-15 0 -15 -15q0 -29 10.5 -48.5t29 -31.5t44.5 -17t57 -5q38 0 65.5 6t46 12.5t28 12.5t12.5 6q10 0 13 -6t3 -12v-75q0 -12 -5 -21t-25 -18q-15 -6 -35.5 -10t-41.5 -6t-41 -3t-35 -1q-57 0 -94 9.5t-59.5 20.5t-33 20.5t-16.5 9.5
q-11 0 -23 -9t-34 -20.5t-59.5 -20.5t-99.5 -9q-89 0 -137.5 36t-48.5 120q0 37 9 64.5t29 48.5t50.5 36.5t74.5 28.5l111 33q24 7 30 12t6 12q0 17 -19.5 24.5t-75.5 7.5q-43 0 -71 -6.5t-46.5 -14.5t-29.5 -14.5t-19 -6.5q-15 0 -15 16v87q0 16 25 26q32 14 78 21t100 7
q49 0 80 -7.5t50 -16t28.5 -16t16.5 -7.5q3 0 15 7.5t32 16t48 16t64 7.5q55 0 100.5 -13.5t78.5 -44.5t51 -82t18 -126v-23zM670 341q0 45 -23.5 65t-64.5 20q-38 0 -57.5 -23t-19.5 -65q0 -11 12 -11h141q7 0 9.5 2.5t2.5 11.5zM340 248q0 10 -9 10q-3 0 -9.5 -1.5
t-21.5 -6.5l-43 -16q-20 -8 -32 -25t-12 -42q0 -30 13.5 -45t53.5 -15q9 0 19.5 3t19.5 9t15 15.5t6 23.5v90z" />
    <glyph glyph-name="ccedilla" unicode="&#xe7;" horiz-adv-x="526" 
d="M383 -106q0 -42 -34 -65t-94 -23q-23 0 -36.5 3.5t-13.5 15.5v19q0 9 7.5 14t40.5 7q17 2 30.5 8.5t13.5 26.5q0 23 -19 28q-18 5 -23 10.5t-5 16.5v28q0 13 -10 14q-101 14 -156 78.5t-55 180.5q0 131 73.5 203t215.5 72q42 0 81.5 -6.5t62.5 -15.5q15 -6 19.5 -11.5
t4.5 -18.5v-90q0 -8 -4.5 -12t-9.5 -4q-9 0 -17 5t-21 11t-33.5 11t-53.5 5q-62 0 -95.5 -33.5t-33.5 -117.5q0 -38 9 -64t25.5 -42t39 -23.5t48.5 -7.5q35 0 57.5 5.5t36.5 11.5t22.5 11.5t15.5 5.5q9 0 11.5 -5t2.5 -12v-89q0 -21 -27 -32q-24 -10 -62 -14.5t-75 -6.5
q-6 -2 -6 -8v-5q0 -5 4.5 -8t19.5 -8q24 -7 33.5 -27t9.5 -42z" />
    <glyph glyph-name="egrave" unicode="&#xe8;" horiz-adv-x="588" 
d="M559 240q0 -18 -18 -18h-307q-15 0 -15 -15q0 -48 33.5 -74.5t106.5 -26.5q38 0 65 6t45 12.5t27.5 12.5t13.5 6q9 0 12.5 -5t3.5 -12v-81q0 -22 -27 -32q-32 -11 -67.5 -16.5t-97.5 -5.5q-155 0 -229.5 69t-74.5 196q0 78 21 130.5t57.5 84.5t85 46t103.5 14
q79 0 130 -21t80 -57t40.5 -83t11.5 -98v-32zM380 340q0 38 -20.5 62t-65.5 24q-38 0 -58.5 -22.5t-20.5 -66.5q0 -5 2 -8t10 -3h141q8 0 10 2.5t2 11.5zM412 595q0 -6 -2 -12.5t-10 -17.5q-9 -13 -17 -13q-6 0 -12 1.5t-19 7.5l-169 82q-11 5 -14.5 10.5t-3.5 13.5
q0 9 7 20l20 31q8 13 13.5 16.5t11.5 3.5q8 0 14 -3.5t19 -12.5l152 -109q10 -7 10 -18z" />
    <glyph glyph-name="eacute" unicode="&#xe9;" horiz-adv-x="588" 
d="M559 240q0 -18 -18 -18h-307q-15 0 -15 -15q0 -48 33.5 -74.5t106.5 -26.5q38 0 65 6t45 12.5t27.5 12.5t13.5 6q9 0 12.5 -5t3.5 -12v-81q0 -22 -27 -32q-32 -11 -67.5 -16.5t-97.5 -5.5q-155 0 -229.5 69t-74.5 196q0 78 21 130.5t57.5 84.5t85 46t103.5 14
q79 0 130 -21t80 -57t40.5 -83t11.5 -98v-32zM380 340q0 38 -20.5 62t-65.5 24q-38 0 -58.5 -22.5t-20.5 -66.5q0 -5 2 -8t10 -3h141q8 0 10 2.5t2 11.5zM184 595q0 11 10 18l152 109q13 9 19.5 12.5t13.5 3.5t12.5 -3.5t13.5 -16.5l20 -31q7 -11 7 -20q0 -8 -4 -13.5
t-15 -10.5l-169 -82q-12 -6 -18.5 -7.5t-11.5 -1.5q-9 0 -18 13q-7 11 -9.5 17.5t-2.5 12.5z" />
    <glyph glyph-name="ecircumflex" unicode="&#xea;" horiz-adv-x="588" 
d="M559 240q0 -18 -18 -18h-307q-15 0 -15 -15q0 -48 33.5 -74.5t106.5 -26.5q38 0 65 6t45 12.5t27.5 12.5t13.5 6q9 0 12.5 -5t3.5 -12v-81q0 -22 -27 -32q-32 -11 -67.5 -16.5t-97.5 -5.5q-155 0 -229.5 69t-74.5 196q0 78 21 130.5t57.5 84.5t85 46t103.5 14
q79 0 130 -21t80 -57t40.5 -83t11.5 -98v-32zM380 340q0 38 -20.5 62t-65.5 24q-38 0 -58.5 -22.5t-20.5 -66.5q0 -5 2 -8t10 -3h141q8 0 10 2.5t2 11.5zM473 602q0 -5 -4 -12l-16 -25q-5 -8 -12 -8q-5 0 -17 5l-113 58q-9 4 -13 4t-13 -4l-113 -58q-12 -5 -17 -5
q-7 0 -12 8l-16 25q-4 7 -4 12q0 4 1.5 7t8.5 8l129 91q24 17 36 17t36 -17l129 -91q7 -5 8.5 -8t1.5 -7z" />
    <glyph glyph-name="edieresis" unicode="&#xeb;" horiz-adv-x="588" 
d="M559 240q0 -18 -18 -18h-307q-15 0 -15 -15q0 -48 33.5 -74.5t106.5 -26.5q38 0 65 6t45 12.5t27.5 12.5t13.5 6q9 0 12.5 -5t3.5 -12v-81q0 -22 -27 -32q-32 -11 -67.5 -16.5t-97.5 -5.5q-155 0 -229.5 69t-74.5 196q0 78 21 130.5t57.5 84.5t85 46t103.5 14
q79 0 130 -21t80 -57t40.5 -83t11.5 -98v-32zM380 340q0 38 -20.5 62t-65.5 24q-38 0 -58.5 -22.5t-20.5 -66.5q0 -5 2 -8t10 -3h141q8 0 10 2.5t2 11.5zM264 646q0 -34 -18 -49.5t-51 -15.5t-51.5 15.5t-18.5 50.5q0 63 70 63q32 0 50.5 -15.5t18.5 -48.5zM467 646
q0 -65 -70 -65q-32 0 -50.5 15.5t-18.5 50.5q0 32 18 47.5t51 15.5t51.5 -15.5t18.5 -48.5z" />
    <glyph glyph-name="igrave" unicode="&#xec;" horiz-adv-x="303" 
d="M242 18q0 -18 -17 -18h-146q-18 0 -18 18v485q0 7 3.5 12.5t14.5 5.5h146q10 0 13.5 -5.5t3.5 -13.5v-484zM260 595q0 -6 -2 -12.5t-10 -17.5q-9 -13 -17 -13q-6 0 -12 1.5t-19 7.5l-169 82q-11 5 -14.5 10.5t-3.5 13.5q0 9 7 20l20 31q8 13 13.5 16.5t11.5 3.5
q8 0 14 -3.5t19 -12.5l152 -109q10 -7 10 -18z" />
    <glyph glyph-name="iacute" unicode="&#xed;" horiz-adv-x="303" 
d="M242 18q0 -18 -17 -18h-146q-18 0 -18 18v485q0 7 3.5 12.5t14.5 5.5h146q10 0 13.5 -5.5t3.5 -13.5v-484zM31 595q0 11 10 18l152 109q13 9 19.5 12.5t13.5 3.5t12.5 -3.5t13.5 -16.5l20 -31q7 -11 7 -20q0 -8 -4 -13.5t-15 -10.5l-169 -82q-12 -6 -18.5 -7.5
t-11.5 -1.5q-9 0 -18 13q-7 11 -9.5 17.5t-2.5 12.5z" />
    <glyph glyph-name="icircumflex" unicode="&#xee;" horiz-adv-x="303" 
d="M242 18q0 -18 -17 -18h-146q-18 0 -18 18v485q0 7 3.5 12.5t14.5 5.5h146q10 0 13.5 -5.5t3.5 -13.5v-484zM320 602q0 -5 -4 -12l-16 -25q-5 -8 -12 -8q-5 0 -17 5l-113 58q-9 4 -13 4t-13 -4l-113 -58q-12 -5 -17 -5q-7 0 -12 8l-16 25q-4 7 -4 12q0 4 1.5 7t8.5 8
l129 91q24 17 36 17t36 -17l129 -91q7 -5 8.5 -8t1.5 -7z" />
    <glyph glyph-name="idieresis" unicode="&#xef;" horiz-adv-x="303" 
d="M242 18q0 -18 -17 -18h-146q-18 0 -18 18v485q0 7 3.5 12.5t14.5 5.5h146q10 0 13.5 -5.5t3.5 -13.5v-484zM112 646q0 -34 -18 -49.5t-51 -15.5t-51.5 15.5t-18.5 50.5q0 63 70 63q32 0 50.5 -15.5t18.5 -48.5zM315 646q0 -65 -70 -65q-32 0 -50.5 15.5t-18.5 50.5
q0 32 18 47.5t51 15.5t51.5 -15.5t18.5 -48.5z" />
    <glyph glyph-name="eth" unicode="&#xf0;" horiz-adv-x="615" 
d="M585 337q0 -98 -20 -164t-57 -106t-90.5 -57.5t-120.5 -17.5q-71 0 -122 20t-83.5 55t-47.5 82.5t-15 103.5q0 58 17.5 106.5t50 82.5t79.5 53t106 19q33 0 55 -6.5t35.5 -14t20 -14t8.5 -6.5q3 0 3 8q0 25 -5 44.5t-12.5 33t-15 21t-12.5 7.5q-6 0 -13 -5l-56 -36
q-13 -8 -20 -8q-10 0 -16 10l-19 31q-4 8 -4 14q0 9 10 14l17 9q10 6 10 9q0 5 -15 7t-31 2q-48 0 -71.5 -8.5t-28.5 -8.5q-13 0 -13 17v63q0 7 11.5 14t31 13t45.5 9.5t55 3.5q39 0 64 -4t40.5 -9t23.5 -9t14 -4t11 2t14 9l39 27q10 7 17 7q11 0 16 -9l25 -38q5 -8 5 -15
q0 -8 -14 -17l-14 -9q-9 -5 -9 -10q0 -4 7.5 -11.5t18.5 -21.5t24.5 -36.5t24.5 -57t18.5 -82t7.5 -112.5zM400 249q0 32 -5 60.5t-16.5 50.5t-29 34.5t-42.5 12.5q-26 0 -43 -11.5t-28 -32.5t-15.5 -49.5t-4.5 -62.5q0 -30 3.5 -57t13.5 -47.5t28 -32.5t47 -12q30 0 48 13
t27.5 33.5t13 47t3.5 53.5z" />
    <glyph glyph-name="ntilde" unicode="&#xf1;" horiz-adv-x="625" 
d="M567 18q0 -18 -18 -18h-146q-17 0 -17 18v274q0 35 -3.5 53t-14.5 32q-17 23 -59 23q-12 0 -24.5 -2.5t-22.5 -8.5t-16.5 -16t-6.5 -25v-330q0 -8 -3.5 -13t-13.5 -5h-146q-18 0 -18 18v485q0 11 5 14.5t13 3.5h145q14 0 14 -13q0 -3 2 -5t10 -2q11 0 24 4.5t29.5 10.5
t37.5 10.5t47 4.5q44 0 81 -12t62 -39t32 -64.5t7 -100.5v-297zM280 618q-22 11 -37 11q-16 0 -26 -16l-8 -11q-9 -13 -17 -13q-9 0 -28 13q-5 4 -6.5 8t-1.5 8q0 8 9 26q16 35 36 48t40 13q11 0 24.5 -1.5t26.5 -8.5l48 -26q22 -11 37 -11t26 16l7 10q10 14 20 14
q7 0 26 -13q5 -4 6.5 -8t1.5 -8q0 -8 -9 -26q-16 -35 -36 -48t-40 -13q-11 0 -24.5 1.5t-26.5 8.5z" />
    <glyph glyph-name="ograve" unicode="&#xf2;" horiz-adv-x="620" 
d="M591 263q0 -59 -17 -109t-52 -86t-87.5 -56.5t-124.5 -20.5q-69 0 -122 19t-88 54t-53 84t-18 110q0 59 17 109t52 86.5t88 57t125 20.5q69 0 121 -19t87.5 -54t53.5 -84.5t18 -110.5zM402 265q0 83 -22 115.5t-70 32.5t-70 -35.5t-22 -121.5q0 -82 22 -115t71 -33
q46 0 68.5 34.5t22.5 122.5zM423 595q0 -6 -2 -12.5t-10 -17.5q-9 -13 -17 -13q-6 0 -12 1.5t-19 7.5l-169 82q-11 5 -14.5 10.5t-3.5 13.5q0 9 7 20l20 31q8 13 13.5 16.5t11.5 3.5q8 0 14 -3.5t19 -12.5l152 -109q10 -7 10 -18z" />
    <glyph glyph-name="oacute" unicode="&#xf3;" horiz-adv-x="620" 
d="M591 263q0 -59 -17 -109t-52 -86t-87.5 -56.5t-124.5 -20.5q-69 0 -122 19t-88 54t-53 84t-18 110q0 59 17 109t52 86.5t88 57t125 20.5q69 0 121 -19t87.5 -54t53.5 -84.5t18 -110.5zM402 265q0 83 -22 115.5t-70 32.5t-70 -35.5t-22 -121.5q0 -82 22 -115t71 -33
q46 0 68.5 34.5t22.5 122.5zM196 595q0 11 10 18l152 109q13 9 19.5 12.5t13.5 3.5t12.5 -3.5t13.5 -16.5l20 -31q7 -11 7 -20q0 -8 -4 -13.5t-15 -10.5l-169 -82q-12 -6 -18.5 -7.5t-11.5 -1.5q-9 0 -18 13q-7 11 -9.5 17.5t-2.5 12.5z" />
    <glyph glyph-name="ocircumflex" unicode="&#xf4;" horiz-adv-x="620" 
d="M591 263q0 -59 -17 -109t-52 -86t-87.5 -56.5t-124.5 -20.5q-69 0 -122 19t-88 54t-53 84t-18 110q0 59 17 109t52 86.5t88 57t125 20.5q69 0 121 -19t87.5 -54t53.5 -84.5t18 -110.5zM402 265q0 83 -22 115.5t-70 32.5t-70 -35.5t-22 -121.5q0 -82 22 -115t71 -33
q46 0 68.5 34.5t22.5 122.5zM485 602q0 -5 -4 -12l-16 -25q-5 -8 -12 -8q-5 0 -17 5l-113 58q-9 4 -13 4t-13 -4l-113 -58q-12 -5 -17 -5q-7 0 -12 8l-16 25q-4 7 -4 12q0 4 1.5 7t8.5 8l129 91q24 17 36 17t36 -17l129 -91q7 -5 8.5 -8t1.5 -7z" />
    <glyph glyph-name="otilde" unicode="&#xf5;" horiz-adv-x="620" 
d="M591 263q0 -59 -17 -109t-52 -86t-87.5 -56.5t-124.5 -20.5q-69 0 -122 19t-88 54t-53 84t-18 110q0 59 17 109t52 86.5t88 57t125 20.5q69 0 121 -19t87.5 -54t53.5 -84.5t18 -110.5zM402 265q0 83 -22 115.5t-70 32.5t-70 -35.5t-22 -121.5q0 -82 22 -115t71 -33
q46 0 68.5 34.5t22.5 122.5zM280 618q-22 11 -37 11q-16 0 -26 -16l-8 -11q-9 -13 -17 -13q-9 0 -28 13q-5 4 -6.5 8t-1.5 8q0 8 9 26q16 35 36 48t40 13q11 0 24.5 -1.5t26.5 -8.5l48 -26q22 -11 37 -11t26 16l7 10q10 14 20 14q7 0 26 -13q5 -4 6.5 -8t1.5 -8q0 -8 -9 -26
q-16 -35 -36 -48t-40 -13q-11 0 -24.5 1.5t-26.5 8.5z" />
    <glyph glyph-name="odieresis" unicode="&#xf6;" horiz-adv-x="620" 
d="M591 263q0 -59 -17 -109t-52 -86t-87.5 -56.5t-124.5 -20.5q-69 0 -122 19t-88 54t-53 84t-18 110q0 59 17 109t52 86.5t88 57t125 20.5q69 0 121 -19t87.5 -54t53.5 -84.5t18 -110.5zM402 265q0 83 -22 115.5t-70 32.5t-70 -35.5t-22 -121.5q0 -82 22 -115t71 -33
q46 0 68.5 34.5t22.5 122.5zM278 646q0 -34 -18 -49.5t-51 -15.5t-51.5 15.5t-18.5 50.5q0 63 70 63q32 0 50.5 -15.5t18.5 -48.5zM481 646q0 -65 -70 -65q-32 0 -50.5 15.5t-18.5 50.5q0 32 18 47.5t51 15.5t51.5 -15.5t18.5 -48.5z" />
    <glyph glyph-name="divide" unicode="&#xf7;" 
d="M388 524q0 -35 -23.5 -58t-57.5 -23q-33 0 -57 23t-24 58q0 38 23 59.5t58 21.5q34 0 57.5 -21.5t23.5 -59.5zM388 144q0 -36 -23.5 -58.5t-57.5 -22.5q-33 0 -57 22.5t-24 58.5q0 35 23 58t58 23q34 0 57.5 -21.5t23.5 -59.5zM99 284q-35 0 -35 33v33q0 34 35 34h417
q35 0 35 -34v-33q0 -33 -35 -33h-417z" />
    <glyph glyph-name="oslash" unicode="&#xf8;" horiz-adv-x="620" 
d="M592 263q0 -45 -12.5 -93t-44 -88t-86.5 -65.5t-140 -25.5q-53 0 -79 7.5t-36 7.5q-5 0 -10 -8l-20 -34q-7 -13 -16 -13q-4 0 -7.5 1t-10.5 5l-15 8q-7 4 -7 13q0 4 2 8l4 8l15 24q4 5 5 9t1 7q0 7 -16.5 17.5t-36 34t-36 64t-16.5 108.5q0 46 12.5 94t44.5 88t86.5 65.5
t139.5 25.5q28 0 48 -2.5t33 -5.5t20.5 -5.5t11.5 -2.5q7 0 12 8l20 34q7 13 16 13q7 0 21 -7l12 -6q9 -5 9 -15q0 -3 -1 -6t-6 -9l-17 -25q-3 -5 -3.5 -7.5t-0.5 -4.5q0 -6 16 -18t35.5 -36.5t36 -66t16.5 -106.5zM359 400q0 4 -12.5 9t-35.5 5q-15 0 -32 -4t-31.5 -20
t-24 -47.5t-9.5 -86.5q0 -39 3 -57t9 -18q2 0 4 2t6 9l118 195q5 7 5 13zM408 265q0 75 -11 75q-2 0 -4 -1.5t-7 -9.5l-117 -195q-5 -9 -5 -13t11.5 -9t36.5 -5q15 0 32 4.5t31.5 21t23.5 47.5t9 85z" />
    <glyph glyph-name="ugrave" unicode="&#xf9;" horiz-adv-x="621" 
d="M563 18q0 -18 -17 -18h-146q-10 0 -12 4t-2 9q0 3 -1.5 5t-8.5 2q-12 0 -23.5 -4.5t-27 -9.5t-37.5 -9.5t-53 -4.5q-44 0 -80.5 11.5t-62.5 38.5q-13 14 -20.5 29.5t-11.5 35t-5 44t-1 56.5v296q0 18 19 18h145q17 0 17 -18v-294q0 -46 17 -67t57 -21q11 0 24 2t23 7
q26 13 26 47v326q0 18 18 18h145q18 0 18 -18v-485zM424 595q0 -6 -2 -12.5t-10 -17.5q-9 -13 -17 -13q-6 0 -12 1.5t-19 7.5l-169 82q-11 5 -14.5 10.5t-3.5 13.5q0 9 7 20l20 31q8 13 13.5 16.5t11.5 3.5q8 0 14 -3.5t19 -12.5l152 -109q10 -7 10 -18z" />
    <glyph glyph-name="uacute" unicode="&#xfa;" horiz-adv-x="621" 
d="M563 18q0 -18 -17 -18h-146q-10 0 -12 4t-2 9q0 3 -1.5 5t-8.5 2q-12 0 -23.5 -4.5t-27 -9.5t-37.5 -9.5t-53 -4.5q-44 0 -80.5 11.5t-62.5 38.5q-13 14 -20.5 29.5t-11.5 35t-5 44t-1 56.5v296q0 18 19 18h145q17 0 17 -18v-294q0 -46 17 -67t57 -21q11 0 24 2t23 7
q26 13 26 47v326q0 18 18 18h145q18 0 18 -18v-485zM195 595q0 11 10 18l152 109q13 9 19.5 12.5t13.5 3.5t12.5 -3.5t13.5 -16.5l20 -31q7 -11 7 -20q0 -8 -4 -13.5t-15 -10.5l-169 -82q-12 -6 -18.5 -7.5t-11.5 -1.5q-9 0 -18 13q-7 11 -9.5 17.5t-2.5 12.5z" />
    <glyph glyph-name="ucircumflex" unicode="&#xfb;" horiz-adv-x="621" 
d="M563 18q0 -18 -17 -18h-146q-10 0 -12 4t-2 9q0 3 -1.5 5t-8.5 2q-12 0 -23.5 -4.5t-27 -9.5t-37.5 -9.5t-53 -4.5q-44 0 -80.5 11.5t-62.5 38.5q-13 14 -20.5 29.5t-11.5 35t-5 44t-1 56.5v296q0 18 19 18h145q17 0 17 -18v-294q0 -46 17 -67t57 -21q11 0 24 2t23 7
q26 13 26 47v326q0 18 18 18h145q18 0 18 -18v-485zM485 602q0 -5 -4 -12l-16 -25q-5 -8 -12 -8q-5 0 -17 5l-113 58q-9 4 -13 4t-13 -4l-113 -58q-12 -5 -17 -5q-7 0 -12 8l-16 25q-4 7 -4 12q0 4 1.5 7t8.5 8l129 91q24 17 36 17t36 -17l129 -91q7 -5 8.5 -8t1.5 -7z" />
    <glyph glyph-name="udieresis" unicode="&#xfc;" horiz-adv-x="621" 
d="M563 18q0 -18 -17 -18h-146q-10 0 -12 4t-2 9q0 3 -1.5 5t-8.5 2q-12 0 -23.5 -4.5t-27 -9.5t-37.5 -9.5t-53 -4.5q-44 0 -80.5 11.5t-62.5 38.5q-13 14 -20.5 29.5t-11.5 35t-5 44t-1 56.5v296q0 18 19 18h145q17 0 17 -18v-294q0 -46 17 -67t57 -21q11 0 24 2t23 7
q26 13 26 47v326q0 18 18 18h145q18 0 18 -18v-485zM278 646q0 -34 -18 -49.5t-51 -15.5t-51.5 15.5t-18.5 50.5q0 63 70 63q32 0 50.5 -15.5t18.5 -48.5zM481 646q0 -65 -70 -65q-32 0 -50.5 15.5t-18.5 50.5q0 32 18 47.5t51 15.5t51.5 -15.5t18.5 -48.5z" />
    <glyph glyph-name="yacute" unicode="&#xfd;" horiz-adv-x="537" 
d="M535 510q0 -8 -4 -20l-185 -560q-14 -43 -32.5 -71.5t-41.5 -46t-50.5 -25t-60.5 -7.5q-27 0 -44.5 1.5t-27 4.5t-13 7t-3.5 10v78q0 15 15 15q5 0 15 -1t24 -1q36 0 51.5 12t15.5 29q0 12 -5 29l-183 526q-4 11 -4 18q0 13 17 13h148q17 0 20 -12l94 -326q4 -13 9 -13
q6 0 10 13l82 326q2 8 7.5 10t12.5 2h119q14 0 14 -11zM178 595q0 11 10 18l152 109q13 9 19.5 12.5t13.5 3.5t12.5 -3.5t13.5 -16.5l20 -31q7 -11 7 -20q0 -8 -4 -13.5t-15 -10.5l-169 -82q-12 -6 -18.5 -7.5t-11.5 -1.5q-9 0 -18 13q-7 11 -9.5 17.5t-2.5 12.5z" />
    <glyph glyph-name="thorn" unicode="&#xfe;" horiz-adv-x="639" 
d="M610 266q0 -68 -18 -119.5t-50.5 -86t-77.5 -52t-100 -17.5q-28 0 -48 4t-33.5 9t-22 9t-12.5 4q-9 0 -9 -13v-198q0 -18 -15 -18h-149q-17 0 -17 18v899q0 8 4.5 13t12.5 5h149q15 0 15 -20v-188q0 -14 9 -14q5 0 15 4.5t25.5 10.5t36.5 10.5t49 4.5q56 0 100 -18.5
t74 -53t46 -83.5t16 -110zM420 264q0 71 -26 106t-82 35q-30 0 -51.5 -12.5t-21.5 -39.5v-192q0 -13 7 -21.5t18 -14t24 -8t24 -2.5q21 0 40.5 7t34.5 24t24 45.5t9 72.5z" />
    <glyph glyph-name="ydieresis" unicode="&#xff;" horiz-adv-x="537" 
d="M535 510q0 -8 -4 -20l-185 -560q-14 -43 -32.5 -71.5t-41.5 -46t-50.5 -25t-60.5 -7.5q-27 0 -44.5 1.5t-27 4.5t-13 7t-3.5 10v78q0 15 15 15q5 0 15 -1t24 -1q36 0 51.5 12t15.5 29q0 12 -5 29l-183 526q-4 11 -4 18q0 13 17 13h148q17 0 20 -12l94 -326q4 -13 9 -13
q6 0 10 13l82 326q2 8 7.5 10t12.5 2h119q14 0 14 -11zM244 646q0 -34 -18 -49.5t-51 -15.5t-51.5 15.5t-18.5 50.5q0 63 70 63q32 0 50.5 -15.5t18.5 -48.5zM447 646q0 -65 -70 -65q-32 0 -50.5 15.5t-18.5 50.5q0 32 18 47.5t51 15.5t51.5 -15.5t18.5 -48.5z" />
    <glyph glyph-name="dotlessi" unicode="&#x131;" horiz-adv-x="325" 
d="M242 18q0 -18 -17 -18h-146q-18 0 -18 18v485q0 7 3.5 12.5t14.5 5.5h146q10 0 13.5 -5.5t3.5 -13.5v-484z" />
    <glyph glyph-name="OE" unicode="&#x152;" horiz-adv-x="964" 
d="M933 18q0 -18 -19 -18h-424q-10 0 -19 -1.5t-22 -3.5t-33 -3.5t-52 -1.5q-76 0 -137.5 22.5t-105 65.5t-67 105.5t-23.5 142.5q0 97 25.5 166t72 113t110 65t140.5 21q24 0 41.5 -1.5t32.5 -4t28.5 -4t29.5 -1.5h384q18 0 18 -18v-103q0 -18 -18 -18h-228q-15 0 -15 -12
v-99q0 -12 14 -12h175q20 0 20 -18v-102q0 -19 -20 -19h-175q-14 0 -14 -12v-115q0 -13 15 -13h247q9 0 14 -3.5t5 -14.5v-103zM458 506q0 20 -20 33t-65 13q-68 0 -105 -55.5t-37 -163.5q0 -100 37.5 -152.5t100.5 -52.5q53 0 71 14t18 34v330z" />
    <glyph glyph-name="oe" unicode="&#x153;" horiz-adv-x="957" 
d="M928 241q0 -12 -6 -15t-12 -3h-309q-14 0 -14 -15q0 -54 36 -78t104 -24q39 0 66 6t45 12.5t28 12.5t15 6q14 0 14 -17v-81q0 -19 -17 -27q-26 -13 -69 -20t-102 -7q-57 0 -95.5 11.5t-63.5 25t-36.5 25t-14.5 11.5q-6 0 -18 -11.5t-35 -25t-58 -25t-86 -11.5
q-70 0 -121.5 19t-85 54t-49.5 84t-16 110q0 70 21.5 121.5t58.5 85.5t87 50t107 16q51 0 85.5 -11.5t56.5 -25.5t33.5 -25.5t17.5 -11.5q5 0 16 11.5t32.5 25.5t55.5 25.5t85 11.5q50 0 94.5 -12.5t77.5 -42.5t52.5 -81.5t19.5 -129.5v-24zM749 342q0 16 -4 31.5
t-13.5 27.5t-26.5 19t-44 7q-14 0 -28 -4t-25 -13.5t-18.5 -26.5t-7.5 -44q0 -6 2 -9t10 -3h143q8 0 10 2.5t2 12.5zM401 265q0 83 -22 115.5t-70 32.5t-70 -35.5t-22 -121.5q0 -82 22 -115t71 -33q46 0 68.5 34.5t22.5 122.5z" />
    <glyph glyph-name="Scaron" unicode="&#x160;" horiz-adv-x="539" 
d="M499 197q0 -44 -14.5 -81.5t-45 -65t-79 -43t-117.5 -15.5q-52 0 -95.5 5.5t-78.5 18.5q-21 8 -29 15t-8 22v101q0 16 14 16q6 0 17.5 -7t32 -15.5t52.5 -15.5t80 -7q50 0 69 13t19 39q0 9 -1.5 16t-6.5 14.5t-15 15t-26 17.5l-113 66q-59 35 -84.5 81.5t-25.5 112.5
q0 89 65 139t201 50q39 0 76 -6t78 -23q18 -8 22.5 -14.5t4.5 -17.5v-101q0 -6 -2 -12t-12 -6t-21.5 7.5t-29.5 16t-46 16t-72 7.5q-37 0 -61 -8.5t-24 -41.5q0 -15 8.5 -27t31.5 -23l92 -46q45 -22 73 -44.5t43.5 -48t21.5 -55t6 -65.5zM97 861q0 5 4 12l16 25q5 8 12 8
q5 0 17 -5l113 -58q9 -4 13 -4t13 4l113 58q12 5 17 5q7 0 12 -8l16 -25q4 -7 4 -12q0 -4 -1.5 -7t-8.5 -8l-129 -91q-24 -17 -36 -17t-36 17l-129 91q-7 5 -8.5 8t-1.5 7z" />
    <glyph glyph-name="scaron" unicode="&#x161;" horiz-adv-x="460" 
d="M422 161q0 -34 -12.5 -64.5t-38 -54t-65 -37t-94.5 -13.5q-53 0 -92 6t-62 15q-14 5 -20 12.5t-6 24.5v72q0 18 13 18q5 0 15 -5.5t29 -11.5t49 -11.5t74 -5.5q26 0 35 8t9 19t-7.5 18.5t-36.5 22.5l-81 43q-40 21 -64.5 52.5t-24.5 87.5q0 78 52.5 126t156.5 48
q45 0 79 -5.5t58 -16.5q14 -6 19 -11.5t5 -16.5v-81q0 -5 -2 -10.5t-13 -5.5q-8 0 -17.5 5t-23.5 11.5t-35 11.5t-51 5q-38 0 -49 -8.5t-11 -22.5q0 -11 7.5 -18.5t36.5 -22.5l44 -23q36 -19 60 -36.5t38 -36.5t20 -40.5t6 -47.5zM60 680q0 5 4 12l16 25q5 8 12 8q5 0 17 -5
l113 -58q9 -4 13 -4t13 4l113 58q12 5 17 5q7 0 12 -8l16 -25q4 -7 4 -12q0 -4 -1.5 -7t-8.5 -8l-129 -91q-24 -17 -36 -17t-36 17l-129 91q-7 5 -8.5 8t-1.5 7z" />
    <glyph glyph-name="Ydieresis" unicode="&#x178;" horiz-adv-x="629" 
d="M631 669q0 -7 -7 -20l-195 -348q-7 -12 -9 -23t-2 -26v-234q0 -18 -19 -18h-157q-11 0 -15 5t-4 13v211q0 20 -2 28.5t-11 25.5l-200 365q-8 15 -8 21q0 11 14 11h168q16 0 24 -15l116 -234q6 -10 12 -10t11 10l119 234q5 9 10 12t15 3h127q13 0 13 -11zM292 807
q0 -34 -18 -49.5t-51 -15.5t-51.5 15.5t-18.5 50.5q0 63 70 63q32 0 50.5 -15.5t18.5 -48.5zM495 807q0 -65 -70 -65q-32 0 -50.5 15.5t-18.5 50.5q0 32 18 47.5t51 15.5t51.5 -15.5t18.5 -48.5z" />
    <glyph glyph-name="Zcaron" unicode="&#x17d;" horiz-adv-x="593" 
d="M575 18q0 -18 -18 -18h-518q-17 0 -17 18v114q0 25 11 37l292 352q3 3 4.5 6.5t1.5 5.5q0 8 -10 8h-270q-17 0 -17 18v103q0 18 17 18h497q10 0 14.5 -3.5t4.5 -14.5v-105q0 -11 -2 -19t-9 -16l-301 -362q-2 -2 -4 -5.5t-2 -7.5q0 -3 2 -5.5t11 -2.5h295q9 0 13.5 -3.5
t4.5 -14.5v-103zM129 861q0 5 4 12l16 25q5 8 12 8q5 0 17 -5l113 -58q9 -4 13 -4t13 4l113 58q12 5 17 5q7 0 12 -8l16 -25q4 -7 4 -12q0 -4 -1.5 -7t-8.5 -8l-129 -91q-24 -17 -36 -17t-36 17l-129 91q-7 5 -8.5 8t-1.5 7z" />
    <glyph glyph-name="zcaron" unicode="&#x17e;" horiz-adv-x="495" 
d="M463 18q0 -18 -18 -18h-401q-18 0 -18 18v68q0 10 1.5 18.5t9.5 19.5l184 263q2 3 3.5 5.5t1.5 5.5q0 7 -7 7h-165q-18 0 -18 19v79q0 11 5 14.5t13 3.5h380q10 0 14.5 -3.5t4.5 -14.5v-61q0 -12 -2 -19.5t-9 -17.5l-187 -266q-5 -8 -6.5 -10.5t-1.5 -4.5q0 -7 11 -7h187
q18 0 18 -18v-81zM75 680q0 5 4 12l16 25q5 8 12 8q5 0 17 -5l113 -58q9 -4 13 -4t13 4l113 58q12 5 17 5q7 0 12 -8l16 -25q4 -7 4 -12q0 -4 -1.5 -7t-8.5 -8l-129 -91q-24 -17 -36 -17t-36 17l-129 91q-7 5 -8.5 8t-1.5 7z" />
    <glyph glyph-name="florin" unicode="&#x192;" 
d="M583 681q0 -11 -3.5 -24.5t-12.5 -33.5q-13 -29 -20 -36.5t-15 -7.5q-11 0 -23 8t-33 8q-19 0 -28.5 -7.5t-13.5 -20.5q-2 -9 -4 -25.5t-2 -19.5q0 -12 13 -12h85q8 0 13 -4.5t5 -10.5q0 -12 -3 -33t-7 -35q-3 -11 -9 -14.5t-14 -3.5h-84q-12 0 -14 -12l-61 -469
q-5 -38 -24.5 -66.5t-48 -47.5t-64 -28.5t-72.5 -9.5q-30 0 -49 1.5t-29.5 5.5t-14 9t-3.5 13q0 10 1.5 26.5t9.5 44.5q7 27 27 27q47 0 66 21t23 53l51 419q0 8 -5.5 10.5t-10.5 2.5h-41q-10 0 -14 4.5t-4 10.5t3 26.5t9 40.5q4 12 8.5 15.5t15.5 3.5h36q19 0 19 19
q4 97 48 147t144 50q35 0 63 -4t46 -11q24 -9 32.5 -16t8.5 -14z" />
    <glyph glyph-name="uni0237" unicode="&#x237;" horiz-adv-x="325" 
d="M264 -61q0 -159 -185 -159q-40 0 -65.5 5t-25.5 19v76q0 10 4.5 13.5t9.5 3.5t9.5 -1.5t12.5 -1.5q34 0 46.5 15t12.5 45v549q0 18 17 18h146q18 0 18 -19v-563z" />
    <glyph glyph-name="circumflex" unicode="&#x2c6;" horiz-adv-x="500" 
d="M425 602q0 -5 -4 -12l-16 -25q-5 -8 -12 -8q-5 0 -17 5l-113 58q-9 4 -13 4t-13 -4l-113 -58q-12 -5 -17 -5q-7 0 -12 8l-16 25q-4 7 -4 12q0 4 1.5 7t8.5 8l129 91q24 17 36 17t36 -17l129 -91q7 -5 8.5 -8t1.5 -7z" />
    <glyph glyph-name="tilde" unicode="&#x2dc;" horiz-adv-x="500" 
d="M220 618q-22 11 -37 11q-16 0 -26 -16l-8 -11q-9 -13 -17 -13q-9 0 -28 13q-5 4 -6.5 8t-1.5 8q0 8 9 26q16 35 36 48t40 13q11 0 24.5 -1.5t26.5 -8.5l48 -26q22 -11 37 -11t26 16l7 10q10 14 20 14q7 0 26 -13q5 -4 6.5 -8t1.5 -8q0 -8 -9 -26q-16 -35 -36 -48t-40 -13
q-11 0 -24.5 1.5t-26.5 8.5z" />
    <glyph glyph-name="endash" unicode="&#x2013;" horiz-adv-x="500" 
d="M484 241q0 -18 -17 -18h-434q-18 0 -18 18v69q0 17 18 17h434q9 0 13 -3t4 -14v-69z" />
    <glyph glyph-name="emdash" unicode="&#x2014;" horiz-adv-x="1000" 
d="M897 241q0 -18 -17 -18h-759q-18 0 -18 18v69q0 17 18 17h759q9 0 13 -3t4 -14v-69z" />
    <glyph glyph-name="quoteleft" unicode="&#x2018;" horiz-adv-x="298" 
d="M50 527q0 36 13.5 67.5t31.5 55t35.5 36.5t26.5 13q5 0 11.5 -2.5t16.5 -9.5l21 -15q11 -8 14.5 -13t3.5 -10q0 -7 -6.5 -14t-14 -15.5t-13.5 -18t-6 -20.5q0 -9 6.5 -15t23.5 -11q14 -5 23.5 -21.5t9.5 -39.5q0 -29 -24 -49t-69 -20q-104 0 -104 102z" />
    <glyph glyph-name="quoteright" unicode="&#x2019;" horiz-adv-x="298" 
d="M247 597q0 -36 -13.5 -67.5t-31.5 -55t-35.5 -36.5t-26.5 -13q-5 0 -11.5 2.5t-16.5 9.5l-21 15q-11 8 -14.5 13t-3.5 10q0 7 6 14t13.5 15.5t14 18t6.5 20.5q0 9 -6.5 15t-23.5 11q-14 5 -23.5 21.5t-9.5 39.5q0 29 24 49t69 20q104 0 104 -102z" />
    <glyph glyph-name="quotesinglbase" unicode="&#x201a;" horiz-adv-x="298" 
d="M247 34q0 -36 -13.5 -67.5t-31.5 -55t-35.5 -36.5t-26.5 -13q-5 0 -11.5 2.5t-16.5 9.5l-21 15q-11 8 -14.5 13t-3.5 10q0 7 6 14t13.5 15.5t14 18t6.5 20.5q0 9 -6.5 15t-23.5 11q-14 5 -23.5 21.5t-9.5 39.5q0 29 24 49t69 20q104 0 104 -102z" />
    <glyph glyph-name="quotedblleft" unicode="&#x201c;" horiz-adv-x="548" 
d="M292 527q0 36 13.5 67.5t31.5 55t35.5 36.5t26.5 13q5 0 11.5 -2.5t16.5 -9.5l21 -15q11 -8 14.5 -13t3.5 -10q0 -7 -6.5 -14t-14 -15.5t-13.5 -18t-6 -20.5q0 -9 6.5 -15t23.5 -11q14 -5 23.5 -21.5t9.5 -39.5q0 -29 -24 -49t-69 -20q-104 0 -104 102zM56 527
q0 36 13.5 67.5t31.5 55t35.5 36.5t26.5 13q5 0 11.5 -2.5t16.5 -9.5l21 -15q11 -8 14.5 -13t3.5 -10q0 -7 -6.5 -14t-14 -15.5t-13.5 -18t-6 -20.5q0 -9 6.5 -15t23.5 -11q14 -5 23.5 -21.5t9.5 -39.5q0 -29 -24 -49t-69 -20q-104 0 -104 102z" />
    <glyph glyph-name="quotedblright" unicode="&#x201d;" horiz-adv-x="548" 
d="M253 597q0 -36 -13.5 -67.5t-31.5 -55t-35.5 -36.5t-26.5 -13q-5 0 -11.5 2.5t-16.5 9.5l-21 15q-11 8 -14.5 13t-3.5 10q0 7 6 14t13.5 15.5t14 18t6.5 20.5q0 9 -6.5 15t-23.5 11q-14 5 -23.5 21.5t-9.5 39.5q0 29 24 49t69 20q104 0 104 -102zM489 597
q0 -36 -13.5 -67.5t-31.5 -55t-35.5 -36.5t-26.5 -13q-5 0 -11.5 2.5t-16.5 9.5l-21 15q-11 8 -14.5 13t-3.5 10q0 7 6 14t13.5 15.5t14 18t6.5 20.5q0 9 -6.5 15t-23.5 11q-14 5 -23.5 21.5t-9.5 39.5q0 29 24 49t69 20q104 0 104 -102z" />
    <glyph glyph-name="quotedblbase" unicode="&#x201e;" horiz-adv-x="548" 
d="M254 34q0 -36 -13.5 -67.5t-31.5 -55t-35.5 -36.5t-26.5 -13q-5 0 -11.5 2.5t-16.5 9.5l-21 15q-11 8 -14.5 13t-3.5 10q0 7 6 14t13.5 15.5t14 18t6.5 20.5q0 9 -6.5 15t-23.5 11q-14 5 -23.5 21.5t-9.5 39.5q0 29 24 49t69 20q104 0 104 -102zM490 34
q0 -36 -13.5 -67.5t-31.5 -55t-35.5 -36.5t-26.5 -13q-5 0 -11.5 2.5t-16.5 9.5l-21 15q-11 8 -14.5 13t-3.5 10q0 7 6 14t13.5 15.5t14 18t6.5 20.5q0 9 -6.5 15t-23.5 11q-14 5 -23.5 21.5t-9.5 39.5q0 29 24 49t69 20q104 0 104 -102z" />
    <glyph glyph-name="dagger" unicode="&#x2020;" horiz-adv-x="489" 
d="M467 470q0 -22 -22 -22h-122q-5 0 -9 -4t-4 -9v-573q0 -22 -23 -22h-87q-21 0 -21 21v574q0 13 -14 13h-121q-23 0 -23 23v75q0 20 22 20h122q14 0 14 13v164q0 22 22 22h87q22 0 22 -22v-164q0 -13 13 -13h122q22 0 22 -23v-73z" />
    <glyph glyph-name="daggerdbl" unicode="&#x2021;" horiz-adv-x="479" 
d="M179 435q0 13 -13 13h-122q-11 0 -17 5t-6 19v74q0 20 21 20h124q13 0 13 13v164q0 22 22 22h87q22 0 22 -22v-164q0 -13 14 -13h122q22 0 22 -23v-73q0 -22 -22 -22h-122q-5 0 -9.5 -4t-4.5 -9v-265q0 -13 13 -13h122q11 0 17 -5t6 -19v-74q0 -20 -21 -20h-124
q-13 0 -13 -13v-164q0 -22 -22 -22h-87q-22 0 -22 22v164q0 13 -14 13h-122q-22 0 -22 23v73q0 22 22 22h122q5 0 9.5 4t4.5 9v265z" />
    <glyph glyph-name="bullet" unicode="&#x2022;" horiz-adv-x="350" 
d="M326 332q0 -70 -42.5 -109t-113.5 -39t-111 39t-40 109t40 108.5t111 38.5t113.5 -38.5t42.5 -108.5z" />
    <glyph glyph-name="ellipsis" unicode="&#x2026;" horiz-adv-x="1000" 
d="M260 59q0 -41 -24.5 -57t-73.5 -16q-50 0 -72.5 17.5t-22.5 58.5q0 40 24.5 57.5t72.5 17.5q51 0 73.5 -18t22.5 -60zM596 59q0 -41 -24 -57t-73 -16q-51 0 -73.5 17.5t-22.5 58.5q0 40 25 57.5t73 17.5q50 0 72.5 -18t22.5 -60zM932 59q0 -41 -24.5 -57t-72.5 -16
q-51 0 -74 17.5t-23 58.5q0 40 25.5 57.5t73.5 17.5q50 0 72.5 -18t22.5 -60z" />
    <glyph glyph-name="perthousand" unicode="&#x2030;" horiz-adv-x="930" 
d="M313 538q0 -70 -39 -115.5t-115 -45.5q-77 0 -114.5 42t-37.5 111q0 72 38 115.5t116 43.5t115 -41t37 -110zM202 535q0 30 -9.5 49t-32.5 19q-24 0 -34 -20t-10 -52q0 -30 9.5 -48.5t32.5 -18.5t33.5 20t10.5 51zM598 151q0 -70 -39 -115t-115 -45q-78 0 -115 42
t-37 111q0 72 37.5 115t116.5 43q78 0 115 -41t37 -110zM488 148q0 30 -9.5 49.5t-33.5 19.5t-33.5 -20t-9.5 -52q0 -30 9 -49t32 -19q24 0 34.5 20t10.5 51zM923 151q0 -70 -39 -115t-115 -45q-78 0 -115 42t-37 111q0 72 38 115t116 43t115 -41t37 -110zM814 148
q0 30 -10 49.5t-34 19.5t-33.5 -20t-9.5 -52q0 -30 9 -49t32 -19q24 0 35 20t11 51zM579 653q0 -8 -7 -18l-468 -648q-7 -10 -17 -10q-8 0 -17 6l-40 28q-9 5 -9 15q0 5 2.5 9.5t6.5 9.5l467 647q3 4 7 7t9 3q10 0 14 -4l43 -31q9 -6 9 -14z" />
    <glyph glyph-name="guilsinglleft" unicode="&#x2039;" horiz-adv-x="346" 
d="M279 450q0 -7 -6 -20l-75 -153q-7 -14 -7 -22t7 -22l75 -153q6 -14 6 -20q0 -14 -19 -14h-77q-11 0 -16.5 3.5t-10.5 14.5l-83 168q-4 8 -5 13t-1 10t1 10t5 13l83 168q5 11 10.5 14.5t16.5 3.5h77q19 0 19 -14z" />
    <glyph glyph-name="guilsinglright" unicode="&#x203a;" horiz-adv-x="346" 
d="M67 60q0 6 6 20l75 153q7 14 7 22t-7 22l-75 153q-6 13 -6 20q0 14 19 14h77q11 0 16.5 -3.5t10.5 -14.5l83 -168q4 -8 5 -13t1 -10t-1 -10t-5 -13l-83 -168q-5 -11 -10.5 -14.5t-16.5 -3.5h-77q-19 0 -19 14z" />
    <glyph glyph-name="Euro" unicode="&#x20ac;" 
d="M562 40q0 -9 -5 -15.5t-20 -12.5q-17 -7 -52 -13.5t-84 -6.5q-71 0 -121.5 17t-83.5 49t-51.5 78.5t-25.5 106.5q-2 18 -15 18h-31q-13 0 -17 4t-4 14v21q0 12 4 15.5t17 3.5h25q15 0 15 16v-4q0 8 1 16.5t1 18.5q0 12 -16 12h-26q-13 0 -17 4t-4 15v20q0 13 4 16.5
t17 3.5h35q8 0 11.5 3t5.5 14q11 64 36 109t60.5 73.5t79 41t91.5 12.5q45 0 80 -6t64 -16q16 -5 21 -12.5t5 -21.5v-84q0 -6 -4 -11t-12 -5q-11 0 -23.5 4.5t-27.5 9.5t-33 9.5t-39 4.5q-52 0 -83.5 -32t-31.5 -83q0 -5 3 -7.5t12 -2.5h181q12 0 18 -3t6 -17v-20
q0 -14 -6 -16.5t-19 -2.5h-186q-12 0 -15.5 -8t-3.5 -34q0 -12 4 -14.5t18 -2.5h183q13 0 19 -3t6 -17v-21q0 -13 -6 -15t-19 -2h-180q-12 0 -16 -5t-4 -22q0 -52 29.5 -83.5t82.5 -31.5q25 0 46 5t38 11t28.5 11t17.5 5q17 0 17 -18v-93z" />
    <glyph glyph-name="trademark" unicode="&#x2122;" horiz-adv-x="942" 
d="M899 225q0 -19 -17 -19h-85q-18 0 -18 19v264q0 8 -4 8q-5 0 -8 -8l-75 -224q-7 -21 -12.5 -32.5t-11 -17.5t-11.5 -7.5t-14 -1.5h-29q-10 0 -16.5 1.5t-11.5 7t-10.5 17.5t-12.5 33l-73 224q-3 8 -8 8q-4 0 -4 -9v-263q0 -12 -6.5 -15.5t-12.5 -3.5h-70q-6 0 -12.5 3.5
t-6.5 15.5v445q0 19 17 19h120q22 0 28 -17l94 -277q3 -9 8 -9t8 9l94 272q5 12 9 17t14 5h121q16 0 16 -16v-448zM339 616q0 -16 -18 -16h-81q-10 0 -10 -12v-363q0 -19 -17 -19h-87q-17 0 -17 19v363q0 12 -11 12h-81q-17 0 -17 16v57q0 16 17 16h304q18 0 18 -16v-57z
" />
    <glyph glyph-name="glyph205" horiz-adv-x="500" 
d="M75 680q0 5 4 12l16 25q5 8 12 8q5 0 17 -5l113 -58q9 -4 13 -4t13 4l113 58q12 5 17 5q7 0 12 -8l16 -25q4 -7 4 -12q0 -4 -1.5 -7t-8.5 -8l-129 -91q-24 -17 -36 -17t-36 17l-129 91q-7 5 -8.5 8t-1.5 7z" />
    <glyph glyph-name="glyph206" horiz-adv-x="500" 
d="M338 640q0 -44 -23 -63.5t-65 -19.5t-64.5 18.5t-22.5 60.5q0 39 23 59.5t64 20.5q42 0 65 -20t23 -56zM281 634q0 33 -31 33q-30 0 -30 -31q0 -30 30 -30q31 0 31 28z" />
    <glyph glyph-name="glyph225" horiz-adv-x="500" 
d="M374 776q0 -6 -2.5 -12.5t-9.5 -17.5q-9 -13 -18 -13q-5 0 -11.5 1.5t-18.5 7.5l-169 82q-11 5 -15 10.5t-4 13.5q0 9 7 20l20 31q8 13 13.5 16.5t12.5 3.5t13.5 -3.5t20.5 -12.5l151 -109q10 -7 10 -18z" />
    <glyph glyph-name="glyph226" horiz-adv-x="500" 
d="M126 776q0 11 10 18l151 109q13 9 20 12.5t14 3.5t12.5 -3.5t13.5 -16.5l20 -31q7 -11 7 -20q0 -8 -4 -13.5t-15 -10.5l-169 -82q-12 -6 -18.5 -7.5t-11.5 -1.5q-9 0 -18 13q-7 11 -9.5 17.5t-2.5 12.5z" />
    <glyph glyph-name="glyph227" horiz-adv-x="500" 
d="M425 783q0 -5 -4 -12l-16 -25q-5 -8 -12 -8q-5 0 -17 5l-113 58q-9 4 -13 4t-13 -4l-113 -58q-12 -5 -17 -5q-7 0 -12 8l-16 25q-4 7 -4 12q0 4 1.5 7t8.5 8l129 91q24 17 36 17t36 -17l129 -91q7 -5 8.5 -8t1.5 -7z" />
    <glyph glyph-name="glyph228" horiz-adv-x="500" 
d="M75 861q0 5 4 12l16 25q5 8 12 8q5 0 17 -5l113 -58q9 -4 13 -4t13 4l113 58q12 5 17 5q7 0 12 -8l16 -25q4 -7 4 -12q0 -4 -1.5 -7t-8.5 -8l-129 -91q-24 -17 -36 -17t-36 17l-129 91q-7 5 -8.5 8t-1.5 7z" />
    <glyph glyph-name="glyph229" horiz-adv-x="500" 
d="M219 778q-23 11 -39 11q-17 0 -28 -17l-8 -11q-8 -14 -18 -14q-11 0 -29 14q-6 4 -7.5 8t-1.5 9q0 8 10 27q17 36 37.5 50t42.5 14q11 0 25 -1.5t28 -8.5l51 -28q22 -11 38 -11t28 17l7 10q10 15 21 15q3 0 10 -3t17 -11q6 -4 7.5 -8t1.5 -9q0 -8 -10 -27
q-17 -36 -37.5 -50t-42.5 -14q-11 0 -25 1.5t-28 8.5z" />
    <glyph glyph-name="glyph230" horiz-adv-x="500" 
d="M218 807q0 -34 -18 -49.5t-51 -15.5t-51.5 15.5t-18.5 50.5q0 63 70 63q32 0 50.5 -15.5t18.5 -48.5zM421 807q0 -65 -70 -65q-32 0 -50.5 15.5t-18.5 50.5q0 32 18 47.5t51 15.5t51.5 -15.5t18.5 -48.5z" />
    <glyph glyph-name="glyph231" horiz-adv-x="500" 
d="M338 805q0 -44 -22.5 -63.5t-64.5 -19.5t-65 18.5t-23 60.5q0 39 22.5 59.5t63.5 20.5q42 0 65.5 -20t23.5 -56zM281 799q0 33 -30 33q-31 0 -31 -31q0 -30 29 -30q32 0 32 28z" />
    </font>
</defs>
</svg>
