<?xml version="1.0" standalone="no"?>
<!DOCTYPE svg PUBLIC "-//W3C//DTD SVG 1.1//EN" "http://www.w3.org/Graphics/SVG/1.1/DTD/svg11.dtd" >
<svg xmlns="http://www.w3.org/2000/svg" xmlns:xlink="http://www.w3.org/1999/xlink" version="1.1">
<metadata>
Created by FontForge 20170731 at Wed May  2 17:41:33 2012
 By Aleksey,,,
Copyright (c) 2005 - 2008 Linotype GmbH, www.linotype.com. All rights reserved. This font software may not be reproduced, modified, disclosed or transferred without the express written approval of Linotype GmbH. Praxis is a trademark of Linotype GmbH and may be registered in certain jurisdictions. This typeface is original artwork of Gerard Unger. The design may be protected in certain jurisdictions.
</metadata>
<defs>
<font id="PraxisW01-Bold" horiz-adv-x="616" >
  <font-face 
    font-family="PraxisW01-Bold"
    font-weight="400"
    font-stretch="normal"
    units-per-em="1000"
    panose-1="2 11 8 3 2 2 2 2 2 4"
    ascent="720"
    descent="-280"
    x-height="518"
    cap-height="680"
    bbox="-26 -247 997 913"
    underline-thickness="50"
    underline-position="-150"
    unicode-range="U+000D-2122"
  />
<missing-glyph horiz-adv-x="0" 
 />
    <glyph glyph-name=".notdef" horiz-adv-x="0" 
 />
    <glyph glyph-name="glyph1" horiz-adv-x="0" 
 />
    <glyph glyph-name="uni000D" unicode="&#xd;" horiz-adv-x="0" 
 />
    <glyph glyph-name="space" unicode=" " horiz-adv-x="266" 
 />
    <glyph glyph-name="exclam" unicode="!" horiz-adv-x="367" 
d="M275 638q0 -7 -0.5 -23t-1.5 -30l-27 -400q-1 -14 -6 -19t-17 -5h-79q-13 0 -17.5 5t-5.5 19l-27 400q-1 11 -1.5 25.5t-0.5 27.5q0 23 10 32.5t36 9.5h92q26 0 35.5 -9.5t9.5 -32.5zM274 52q0 -32 -23.5 -50t-66.5 -18q-91 0 -91 69q0 32 23.5 50t67.5 18t67 -17.5
t23 -51.5z" />
    <glyph glyph-name="quotedbl" unicode="&#x22;" horiz-adv-x="500" 
d="M220 686q0 -5 -0.5 -15.5t-1.5 -20.5l-15 -215q-1 -11 -5.5 -15t-14.5 -4h-42q-11 0 -15 3.5t-5 15.5l-15 215q-1 10 -1.5 20.5t-0.5 15.5q0 22 9 30.5t29 8.5h40q20 0 29 -8.5t9 -30.5zM395 686q0 -5 -0.5 -15.5t-1.5 -20.5l-15 -215q-1 -11 -5.5 -15t-14.5 -4h-42
q-11 0 -15 3.5t-5 15.5l-15 215q-1 10 -1.5 20.5t-0.5 15.5q0 22 9 30.5t29 8.5h40q20 0 29 -8.5t9 -30.5z" />
    <glyph glyph-name="numbersign" unicode="#" horiz-adv-x="666" 
d="M657 479q0 -4 -2 -14l-8 -38q-2 -7 -5.5 -12t-15.5 -5h-125q-3 0 -7.5 -2t-6.5 -9l-23 -112q-1 -5 -1 -9t2.5 -6t10.5 -2h121q14 0 14 -9q0 -2 -0.5 -6.5t-1.5 -9.5l-8 -37q-2 -8 -6 -12t-15 -4h-125q-3 0 -7 -2t-6 -9l-35 -166q-3 -15 -21 -15h-56q-15 0 -15 9q0 5 3 19
l29 136q2 6 2.5 12t0.5 8q0 8 -13 8h-77q-10 0 -13 -12l-35 -165q-1 -5 -5 -10t-15 -5h-57q-14 0 -14 9q0 5 3 19l28 136q2 6 2.5 12t0.5 8q0 8 -13 8h-120q-14 0 -14 9q0 2 1.5 11.5t2.5 12.5l6 29q2 6 5.5 11t15.5 5h124q3 0 7.5 2t6.5 9l22 106q2 6 2 9.5v5.5q0 8 -13 8
h-120q-14 0 -14 9q0 5 2 15l8 38q2 6 5.5 11t15.5 5h124q3 0 7.5 2.5t6.5 9.5l35 165q3 15 21 15h56q9 0 12 -3t3 -8q0 -3 -2 -13l-33 -151q-1 -4 -1 -8t2 -6.5t11 -2.5h77q5 0 8 2.5t5 10.5l36 164q3 15 21 15h56q15 0 15 -11q0 -3 -2 -13l-33 -151q-1 -4 -1 -8q0 -9 13 -9
h121q14 0 14 -9zM396 402q0 8 -13 8h-77q-10 0 -13 -12l-24 -111q-1 -5 -1 -9q0 -8 13 -8h77q5 0 8.5 2t5.5 10l22 105q2 6 2 9.5v5.5z" />
    <glyph glyph-name="dollar" unicode="$" 
d="M84 136q0 6 2.5 11t11.5 5q7 0 19 -7t31.5 -15.5t48.5 -15.5t71 -7q60 0 81.5 18.5t21.5 48.5q0 23 -10.5 39t-43.5 36l-116 71q-54 32 -79.5 75t-25.5 108q0 75 41.5 118.5t113.5 58.5q8 2 10 5.5t2 8.5v52q0 18 20 18h45q18 0 18 -18v-48q0 -9 8 -9q48 0 88.5 -11.5
t62.5 -25.5q8 -5 10 -10.5t2 -15.5v-82q0 -6 -2.5 -11.5t-11.5 -5.5t-21 7.5t-30.5 16t-45 16t-65.5 7.5q-92 0 -92 -61q0 -22 12 -38t43 -33l92 -50q37 -20 62 -40.5t40 -44t21.5 -51.5t6.5 -62q0 -35 -9.5 -67t-30 -58.5t-52.5 -44.5t-78 -25q-10 -1 -10 -13v-51
q0 -19 -21 -19h-43q-19 0 -19 19v47q0 10 -10 10q-11 0 -31.5 2.5t-43 7t-45 11.5t-37.5 17q-8 5 -10 10.5t-2 14.5v81z" />
    <glyph glyph-name="percent" unicode="%" horiz-adv-x="600" 
d="M317 538q0 -70 -40.5 -115.5t-114.5 -45.5q-75 0 -114 42t-39 111q0 72 40 115.5t115 43.5t114 -41t39 -110zM221 535q0 36 -14 57.5t-44 21.5t-44.5 -22.5t-14.5 -60.5q0 -35 14 -56.5t43 -21.5q30 0 45 22.5t15 59.5zM575 660q0 -7 -8 -18l-475 -655q-7 -10 -16 -10
q-7 0 -16 6l-30 21q-8 5 -8 14q0 8 8 18l475 656q7 10 16 10q7 0 13 -4l32 -24q9 -6 9 -14zM591 151q0 -70 -40.5 -115t-114.5 -45q-75 0 -114 42t-39 111q0 72 39.5 115t115.5 43q75 0 114 -41t39 -110zM496 148q0 36 -14.5 58t-44.5 22t-44 -22.5t-14 -60.5
q0 -35 13.5 -57t42.5 -22q30 0 45.5 23t15.5 59z" />
    <glyph glyph-name="ampersand" unicode="&#x26;" horiz-adv-x="734" 
d="M732 13q0 -13 -18 -13h-151q-14 0 -26 13l-21 22q-6 7 -12 7q-4 0 -18.5 -8t-41 -17.5t-66 -17.5t-92.5 -8q-65 0 -112 14.5t-77.5 40.5t-45 62t-14.5 80q0 57 26.5 97t89.5 66q16 7 16 12t-9 14l-10 10q-32 32 -46 63.5t-14 66.5q0 172 211 172q105 0 156 -45.5
t51 -117.5q0 -61 -33 -100.5t-82 -54.5q-8 -2 -10.5 -4.5t-2.5 -5.5q0 -2 2.5 -5.5t11.5 -12.5l114 -109q19 -18 27 -18q3 0 7 7t7.5 18t6.5 25.5t3 29.5v25q0 19 18 19h95q19 0 19 -19q0 -21 -4 -45t-11.5 -47t-19 -44.5t-26.5 -36.5l-7.5 -7.5t-2.5 -5.5q0 -7 9 -14
l93 -88q10 -10 10 -20zM386 524q0 32 -18.5 51.5t-60.5 19.5q-37 0 -55.5 -18.5t-18.5 -48.5q0 -16 7.5 -31t27.5 -34l37 -36q8 -7 11.5 -9t7.5 -2q6 0 16.5 8t20.5 22.5t17.5 34.5t7.5 43zM421 120q0 5 -7 12l-168 162q-7 7 -13 7q-5 0 -13.5 -6t-17.5 -19t-15.5 -32
t-6.5 -44q0 -52 31.5 -81.5t99.5 -29.5q52 0 81 11.5t29 19.5z" />
    <glyph glyph-name="quotesingle" unicode="'" horiz-adv-x="250" 
d="M183 686q0 -5 -0.5 -15.5t-1.5 -20.5l-15 -215q-1 -11 -5.5 -15t-14.5 -4h-42q-11 0 -15 3.5t-5 15.5l-15 215q-1 10 -1.5 20.5t-0.5 15.5q0 22 9 30.5t29 8.5h40q20 0 29 -8.5t9 -30.5z" />
    <glyph glyph-name="parenleft" unicode="(" horiz-adv-x="321" 
d="M291 680q0 -5 -10 -23.5t-25 -65.5q-19 -59 -34 -144.5t-15 -207.5t15 -207.5t34 -144.5q15 -47 25 -65.5t10 -23.5q0 -6 -3 -9t-10 -6l-45 -21q-11 -5 -17 -7t-11 -2q-4 0 -8.5 1.5t-9.5 7.5t-12 17t-16 30q-36 75 -64.5 182t-28.5 248t28.5 248t64.5 182q18 37 28 46.5
t18 9.5q5 0 11 -2t17 -7l45 -21q7 -3 10 -6t3 -9z" />
    <glyph glyph-name="parenright" unicode=")" horiz-adv-x="321" 
d="M30 -202q0 5 10 23.5t25 65.5q19 59 34 144.5t15 207.5t-15 207.5t-34 144.5q-15 47 -25 65.5t-10 23.5q0 6 3 9t10 6l45 21q11 5 17 7t11 2q8 0 18 -9.5t28 -46.5q36 -75 64.5 -182t28.5 -248t-28.5 -248t-64.5 -182q-9 -19 -16 -30t-12 -17t-9.5 -7.5t-8.5 -1.5
q-5 0 -11 2t-17 7l-45 21q-7 3 -10 6t-3 9z" />
    <glyph glyph-name="asterisk" unicode="*" horiz-adv-x="413" 
d="M356 576q0 -14 -14 -14h-70q-7 0 -7 -3t4 -7l66 -53q6 -5 6 -10q0 -7 -4 -11l-14 -14q-4 -6 -10 -6q-5 0 -8 2.5t-6 4.5l-53 44q-5 4 -8 4q-4 0 -4 -6v-60q0 -15 -15 -15h-20q-14 0 -14 15v60q0 6 -4 6t-9 -4l-53 -44q-3 -2 -6 -4.5t-8 -2.5q-6 0 -10 6l-13 14
q-4 4 -4 11q0 5 6 10l65 53q4 4 4 7t-7 3h-69q-15 0 -15 14v21q0 14 15 14h69q7 0 7 3t-4 7l-65 53q-6 4 -6 10q0 7 4 11l13 14q4 6 10 6q5 0 8 -2.5t6 -4.5l53 -44q5 -4 9 -4t4 7v59q0 15 14 15h20q15 0 15 -15v-59q0 -7 4 -7q3 0 8 4l53 44q3 2 6 4.5t8 2.5q6 0 10 -6
l14 -14q4 -4 4 -11q0 -6 -6 -10l-66 -53q-4 -4 -4 -6q0 -4 7 -4h70q14 0 14 -14v-21z" />
    <glyph glyph-name="plus" unicode="+" 
d="M290 81q-17 0 -24 7t-7 24v162q0 14 -13 14h-151q-31 0 -31 29v33q0 30 31 30h151q5 0 9 4.5t4 10.5v160q0 17 7 24.5t24 7.5h35q17 0 24 -7.5t7 -24.5v-160q0 -15 14 -15h150q31 0 31 -30v-33q0 -29 -31 -29h-150q-14 0 -14 -14v-162q0 -17 -7 -24t-24 -7h-35z" />
    <glyph glyph-name="comma" unicode="," horiz-adv-x="266" 
d="M223 36q0 -35 -12.5 -65t-29 -52t-33 -35t-25.5 -13q-8 0 -21 9l-24 17q-10 7 -12.5 10.5t-2.5 8.5q0 6 6 12.5t13 15t13 18.5t6 23q0 8 -5.5 14t-20.5 11q-14 5 -23.5 20.5t-9.5 38.5q0 29 23 47.5t62 18.5q96 0 96 -99z" />
    <glyph glyph-name="hyphen" unicode="-" horiz-adv-x="266" 
d="M238 267q0 -8 -4 -13t-15 -5h-172q-19 0 -19 18v63q0 17 19 17h172q11 0 15 -4.5t4 -12.5v-63z" />
    <glyph glyph-name="period" unicode="." horiz-adv-x="266" 
d="M222 63q0 -40 -21.5 -56t-67.5 -16t-67.5 16t-21.5 56t21.5 57.5t67.5 17.5t67.5 -17.5t21.5 -57.5z" />
    <glyph glyph-name="slash" unicode="/" horiz-adv-x="500" 
d="M379 724q0 -2 -0.5 -6.5t-1.5 -9.5l-165 -932q-3 -19 -20 -19q-2 0 -19 1.5t-34 6.5q-19 4 -19 19q0 6 2 16l166 932q3 19 19 19q8 0 24 -2t30 -6q18 -5 18 -19z" />
    <glyph glyph-name="zero" unicode="0" 
d="M567 343q0 -179 -67.5 -265.5t-191.5 -86.5t-192 85t-68 261q0 180 68 266t191 86t191.5 -86t68.5 -260zM408 340q0 70 -6 115t-18.5 70.5t-31.5 35.5t-44 10q-26 0 -45 -10t-31.5 -36t-18.5 -70.5t-6 -114.5q0 -69 6 -113.5t18.5 -71t31 -37t44.5 -10.5q25 0 44 10.5
t32 36.5t19 71t6 114z" />
    <glyph glyph-name="one" unicode="1" 
d="M444 18q0 -18 -18 -18h-127q-18 0 -18 18v505q0 9 -7 9q-5 0 -16 -5.5t-28 -11.5t-39 -11.5t-50 -5.5q-14 0 -14 16v88q0 18 15 18q14 0 36 4.5t45.5 13t45.5 19.5t36 23q10 9 22 9h99q18 0 18 -19v-652z" />
    <glyph glyph-name="two" unicode="2" 
d="M375 470q0 54 -25.5 79t-87.5 25q-37 0 -64 -7.5t-46.5 -16t-31.5 -16t-18 -7.5q-17 0 -17 17v85q0 10 4 16t20 13q33 14 82 22.5t105 8.5q68 0 116.5 -13t79 -38t44.5 -60t14 -79q0 -28 -5.5 -55t-20.5 -54t-42.5 -55t-70.5 -58l-83 -57q-33 -23 -53 -37t-31 -22.5
t-14.5 -13t-3.5 -7.5q0 -5 2.5 -7.5t11.5 -2.5h291q20 0 20 -19v-93q0 -18 -20 -18h-447q-20 0 -20 18v40q0 29 5.5 53.5t17.5 46.5t32 43t49 44l130 101q40 31 58.5 58.5t18.5 65.5z" />
    <glyph glyph-name="three" unicode="3" 
d="M543 197q0 -47 -16.5 -85t-52 -65t-90 -41.5t-130.5 -14.5q-54 0 -97.5 8t-71.5 20q-18 8 -25 15t-7 19v83q0 16 16 16q7 0 18 -7t29.5 -16t47 -16t69.5 -7q74 0 106.5 25.5t32.5 77.5q0 19 -6 35t-21 28t-40 19t-62 7h-11q-17 0 -17 17v81q0 17 17 17h6q59 0 86.5 22.5
t27.5 60.5q0 35 -22 56.5t-77 21.5q-39 0 -66.5 -7.5t-47 -16t-32.5 -16t-21 -7.5q-15 0 -15 17v85q0 11 6 18t27 15q78 27 167 27q65 0 111 -12t75 -34t42.5 -52t13.5 -66q0 -59 -31 -100.5t-83 -56.5q-9 -3 -9 -7q0 -5 9 -6q70 -10 107 -50t37 -108z" />
    <glyph glyph-name="four" unicode="4" 
d="M579 157q0 -18 -18 -18h-42q-11 0 -11 -13v-108q0 -18 -18 -18h-111q-18 0 -18 18v108q0 13 -12 13h-302q-19 0 -19 18v111q0 14 10 27l290 381q5 7 10.5 10t14.5 3h137q18 0 18 -19v-394q0 -12 11 -12h42q18 0 18 -18v-89zM361 536q0 6 -5 6q-2 0 -4.5 -2t-7.5 -8
l-181 -252q-4 -5 -4 -10q0 -3 3 -4.5t6 -1.5h183q10 0 10 12v260z" />
    <glyph glyph-name="five" unicode="5" 
d="M274 -9q-63 0 -100.5 6.5t-69.5 18.5q-23 8 -29.5 16t-6.5 16v86q0 16 16 16q8 0 18.5 -7t27.5 -15.5t43.5 -15.5t67.5 -7q63 0 99 30t36 96q0 114 -110 114q-25 0 -40.5 -5.5t-25.5 -12t-17 -12t-15 -5.5h-71q-18 0 -18 18v334q0 18 18 18h400q20 0 20 -18v-93
q0 -18 -20 -18h-285q-13 0 -13 -14v-97q0 -8 2 -10.5t6 -2.5q5 0 13 3.5t20 7t30.5 7t44.5 3.5q113 0 170.5 -56.5t57.5 -164.5q0 -50 -17 -93t-51 -75t-84 -50t-117 -18z" />
    <glyph glyph-name="six" unicode="6" 
d="M501 659q14 -7 19 -13.5t5 -14.5v-87q0 -8 -3 -12.5t-12 -4.5q-8 0 -19.5 7.5t-29.5 16t-45 16t-64 7.5q-77 0 -111.5 -46t-34.5 -138q0 -10 7 -10q5 0 12.5 7t22.5 16t40 16t65 7q98 0 154 -56t56 -156q0 -47 -15.5 -87.5t-46.5 -70.5t-76 -47.5t-105 -17.5
q-66 0 -116 18t-83.5 57t-50.5 101t-17 150q0 193 76 282.5t219 89.5q47 0 85 -8t68 -22zM409 204q0 54 -25.5 81.5t-72.5 27.5q-51 0 -73 -30.5t-22 -78.5q0 -49 23.5 -79.5t74.5 -30.5t73 31t22 79z" />
    <glyph glyph-name="seven" unicode="7" 
d="M541 604q0 -24 -7.5 -55t-31.5 -78l-118 -227q-19 -37 -27 -81.5t-8 -110.5v-34q0 -18 -19 -18h-124q-18 0 -18 18v27q0 82 19.5 144.5t49.5 109.5l120 184q11 17 16.5 30.5t5.5 27.5q0 10 -14 10h-298q-20 0 -20 18v93q0 18 20 18h435q19 0 19 -18v-58z" />
    <glyph glyph-name="eight" unicode="8" 
d="M53 169q0 61 30.5 102t102.5 64q9 2 9 7q0 4 -12 10q-50 25 -74 68t-24 96q0 79 55 126t171 47q110 0 164 -42.5t54 -114.5q0 -57 -26.5 -94.5t-77.5 -51.5q-10 -3 -10 -8q0 -4 7 -7l14 -7q35 -17 59 -35.5t39 -40t21.5 -47.5t6.5 -58q0 -91 -66 -141.5t-192 -50.5
q-65 0 -112.5 13.5t-78 37.5t-45.5 56.5t-15 70.5zM404 518q0 37 -21 57t-66 20q-48 0 -68 -20.5t-20 -53.5q0 -14 3 -25t10.5 -20.5t19 -18.5t29.5 -19l23 -13q10 -6 19 -6q6 0 18 7t23.5 20t20.5 31.5t9 40.5zM406 173q0 27 -12.5 45t-50.5 39l-48 27q-10 5 -16 5
q-5 0 -12 -3q-36 -16 -51.5 -42.5t-15.5 -59.5q0 -95 105 -95q48 0 74.5 22t26.5 62z" />
    <glyph glyph-name="nine" unicode="9" 
d="M123 18q-21 10 -26.5 16t-5.5 20v83q0 16 15 16q9 0 20.5 -7.5t29.5 -16.5t45 -16.5t66 -7.5q38 0 68.5 14.5t50.5 51.5q15 29 19.5 59t4.5 61q0 9 -7 9q-6 0 -14 -7t-23 -16t-39.5 -16t-63.5 -7q-44 0 -82.5 13t-67 39t-44.5 66t-16 94q0 50 16.5 91t47.5 70.5
t76.5 45.5t103.5 16q68 0 118 -18.5t83 -58t49 -101t16 -148.5q0 -75 -13.5 -142.5t-47.5 -118.5t-91 -81t-144 -30q-35 0 -75.5 7t-68.5 20zM207 476q0 -49 23 -79t75 -30q51 0 73 30.5t22 78.5q0 50 -23.5 79.5t-74.5 29.5t-73 -30t-22 -79z" />
    <glyph glyph-name="colon" unicode=":" horiz-adv-x="266" 
d="M222 63q0 -40 -21.5 -56t-67.5 -16t-67.5 16t-21.5 56t21.5 57.5t67.5 17.5t67.5 -17.5t21.5 -57.5zM222 452q0 -40 -21.5 -56t-67.5 -16t-67.5 16t-21.5 56t21.5 57.5t67.5 17.5t67.5 -17.5t21.5 -57.5z" />
    <glyph glyph-name="semicolon" unicode=";" horiz-adv-x="266" 
d="M222 452q0 -40 -23 -56t-68 -16t-66.5 17.5t-21.5 57.5q0 39 23 55.5t67 16.5q46 0 67.5 -17t21.5 -58zM223 36q0 -35 -12.5 -65t-29 -52t-33 -35t-25.5 -13q-8 0 -21 9l-24 17q-10 7 -12.5 10.5t-2.5 8.5q0 6 6 12.5t13 15t13 18.5t6 23q0 8 -5.5 14t-20.5 11
q-14 5 -23.5 20.5t-9.5 38.5q0 29 23 47.5t62 18.5q96 0 96 -99z" />
    <glyph glyph-name="less" unicode="&#x3c;" 
d="M64 350q1 14 5.5 21t13.5 12l423 203q19 9 27 9q18 0 18 -18v-50q0 -23 -21 -33l-342 -152q-8 -4 -8 -9t8 -9l342 -152q21 -10 21 -33v-50q0 -18 -18 -18q-8 0 -27 9l-423 204q-19 9 -19 27v39z" />
    <glyph glyph-name="equal" unicode="=" 
d="M95 405q-31 0 -31 29v33q0 30 31 30h425q31 0 31 -30v-33q0 -29 -31 -29h-425zM95 172q-31 0 -31 29v33q0 30 31 30h425q31 0 31 -30v-33q0 -29 -31 -29h-425z" />
    <glyph glyph-name="greater" unicode="&#x3e;" 
d="M551 316q-1 -14 -5.5 -21t-13.5 -12l-423 -203q-20 -9 -27 -9q-18 0 -18 18v50q0 23 21 33l342 152q8 4 8 9t-8 9l-342 152q-21 10 -21 33v50q0 18 18 18q7 0 27 -9l423 -204q19 -10 19 -27v-39z" />
    <glyph glyph-name="question" unicode="?" horiz-adv-x="505" 
d="M464 506q0 -46 -17 -86t-59 -82l-80 -80q-12 -12 -17.5 -23t-5.5 -28v-22q0 -19 -19 -19h-90q-18 0 -18 19v37q0 21 3 37.5t9.5 31.5t17.5 31t28 35l33 39q26 31 34 51t8 44q0 38 -25.5 60.5t-77.5 22.5q-34 0 -58 -7.5t-41.5 -16t-28.5 -16t-19 -7.5q-15 0 -15 17v87
q0 11 7.5 18.5t33.5 16.5q31 11 69 17t97 6q61 0 105 -13.5t72 -38t41 -58t13 -73.5zM312 52q0 -32 -23.5 -50t-66.5 -18q-91 0 -91 69q0 32 23.5 50t67.5 18t67 -17.5t23 -51.5z" />
    <glyph glyph-name="at" unicode="@" horiz-adv-x="964" 
d="M927 337q0 -30 -4 -67.5t-16 -75.5t-35 -75t-60.5 -65t-92.5 -45.5t-131 -17.5q-44 0 -58.5 4t-14.5 12q0 5 0.5 6.5t0.5 3.5q0 7 -8 7q-9 0 -17.5 -5.5t-22.5 -11.5t-36 -11.5t-57 -5.5q-80 0 -113 42.5t-33 122.5q0 43 8.5 85t22 79t31.5 68t38 53q41 45 81 62.5
t93 17.5q19 0 33.5 -3.5t24.5 -7.5t16.5 -7.5t9.5 -3.5q6 0 8 9q2 8 12 8h107q11 0 11 -8q0 -5 -3.5 -20.5t-8.5 -37.5l-72 -313q-7 -29 -7 -43q0 -6 4 -10.5t12 -4.5q9 0 25.5 1.5t36 9.5t39.5 24t36 44.5t26.5 72t10.5 105.5q0 70 -21 125.5t-60.5 94t-96 59t-127.5 20.5
q-95 0 -166.5 -30t-119 -84t-71.5 -128.5t-24 -163.5q0 -83 24 -150t72.5 -114t121.5 -72.5t171 -25.5q46 0 82 5.5t60.5 12t39 12t19.5 5.5q12 0 15 -9q16 -41 16 -55q0 -6 -7 -12t-35 -15q-35 -11 -91 -19t-122 -8q-105 0 -191.5 29t-147.5 84t-94.5 135t-33.5 181
q0 108 33.5 200.5t95.5 160t150 106t198 38.5q94 0 170 -27t130 -77t83.5 -120t29.5 -156zM551 404q0 29 -31 29q-23 0 -40.5 -13.5t-34.5 -44.5q-11 -19 -21 -45.5t-18.5 -56.5t-13.5 -62.5t-5 -63.5q0 -29 12 -47t39 -18q19 0 33 12.5t21 42.5l55 235q2 9 3 17.5t1 14.5z
" />
    <glyph glyph-name="A" unicode="A" horiz-adv-x="617" 
d="M617 13q0 -13 -17 -13h-128q-13 0 -16 12l-52 178q-2 8 -6 11t-13 3h-185q-8 0 -12 -2t-6 -10l-56 -180q-4 -12 -17 -12h-92q-17 0 -17 13q0 6 3 15l207 632q9 29 41 29h123q19 0 28 -6.5t14 -22.5l198 -632q3 -9 3 -15zM368 313q0 6 -3 14l-62 212q-3 10 -8 10t-8 -11
l-65 -211q-3 -11 -3 -14q0 -7 10 -7h128q11 0 11 7z" />
    <glyph glyph-name="B" unicode="B" horiz-adv-x="618" 
d="M581 189q0 -39 -14.5 -74t-43.5 -63q-28 -27 -78 -39.5t-126 -12.5h-231q-19 0 -19 18v644q0 12 6.5 15t12.5 3h243q59 0 100 -11t66.5 -32t37 -52t11.5 -70q0 -63 -30.5 -99t-77.5 -48q-8 -2 -8 -6q0 -3 8 -5q40 -8 67.5 -24t44.5 -38t24 -49t7 -57zM383 496
q0 48 -23.5 69.5t-74.5 21.5h-45q-3 0 -6.5 -2.5t-3.5 -10.5v-162q0 -7 3.5 -9.5t6.5 -2.5h45q53 0 75.5 26.5t22.5 69.5zM415 201q0 54 -26 79.5t-83 25.5h-66q-3 0 -6.5 -2t-3.5 -10v-188q0 -7 3.5 -9.5t6.5 -2.5h63q61 0 86.5 28t25.5 79z" />
    <glyph glyph-name="C" unicode="C" horiz-adv-x="637" 
d="M603 55q0 -9 -2 -14.5t-10 -10.5q-6 -4 -21 -10.5t-39 -12.5t-56.5 -10.5t-72.5 -4.5q-93 0 -162 24t-114 67.5t-67 105.5t-22 137q0 85 24 152.5t69.5 114.5t112.5 71.5t153 24.5q43 0 76.5 -4.5t58 -10.5t39.5 -12.5t21 -10.5q8 -5 10 -10.5t2 -15.5v-83q0 -17 -14 -17
q-10 0 -21 7t-29.5 15.5t-47 15.5t-72.5 7q-47 0 -86 -15t-67 -45.5t-43.5 -76.5t-15.5 -107q0 -107 56 -161.5t165 -54.5q38 0 65 7t45.5 15.5t29.5 15.5t19 7q16 0 16 -16v-84z" />
    <glyph glyph-name="D" unicode="D" horiz-adv-x="735" 
d="M698 344q0 -103 -40 -180t-113 -117q-41 -23 -94.5 -35t-128.5 -12h-235q-18 0 -18 18v643q0 19 19 19h248q102 0 169.5 -23.5t114.5 -78.5q35 -42 56.5 -101t21.5 -133zM528 343q0 60 -15.5 102t-43 67.5t-66.5 37t-86 11.5h-73q-11 0 -11 -12v-417q0 -13 13 -13h61
q34 0 73 7t72 30.5t54.5 68t21.5 118.5z" />
    <glyph glyph-name="E" unicode="E" horiz-adv-x="550" 
d="M518 18q0 -18 -18 -18h-413q-18 0 -18 18v644q0 18 18 18h392q19 0 19 -18v-83q0 -18 -19 -18h-236q-10 0 -10 -12v-125q0 -12 11 -12h184q18 0 18 -18v-83q0 -18 -18 -18h-184q-11 0 -11 -12v-149q0 -13 12 -13h255q18 0 18 -18v-83z" />
    <glyph glyph-name="F" unicode="F" horiz-adv-x="489" 
d="M477 579q0 -18 -17 -18h-215q-12 0 -12 -12v-145q0 -12 12 -12h174q19 0 19 -19v-82q0 -19 -19 -19h-174q-5 0 -8.5 -2t-3.5 -10v-242q0 -18 -18 -18h-128q-18 0 -18 18v644q0 18 18 18h373q17 0 17 -18v-83z" />
    <glyph glyph-name="G" unicode="G" horiz-adv-x="679" 
d="M619 53q0 -12 -10 -22t-47 -20q-28 -8 -67 -13.5t-93 -5.5q-86 0 -153.5 21.5t-114.5 63.5t-72 104.5t-25 144.5q0 84 23.5 151.5t69.5 114.5t114.5 72t157.5 25q60 0 106 -7.5t78 -20.5q21 -8 27 -15t6 -18v-86q0 -8 -3 -12.5t-12 -4.5q-8 0 -19 7t-31 15.5t-50.5 15.5
t-77.5 7q-104 0 -162.5 -60t-58.5 -184q0 -107 51.5 -162.5t161.5 -55.5q26 0 34 5t8 15v177q0 12 6 15t12 3h123q6 0 12 -3t6 -15v-252z" />
    <glyph glyph-name="H" unicode="H" horiz-adv-x="730" 
d="M661 18q0 -18 -17 -18h-129q-17 0 -17 18v263q0 12 -12 12h-241q-12 0 -12 -12v-263q0 -18 -18 -18h-128q-18 0 -18 18v644q0 18 18 18h128q18 0 18 -18v-238q0 -12 12 -12h241q12 0 12 12v238q0 18 17 18h129q17 0 17 -18v-644z" />
    <glyph glyph-name="I" unicode="I" horiz-adv-x="304" 
d="M234 18q0 -18 -18 -18h-128q-18 0 -18 18v644q0 18 19 18h127q18 0 18 -18v-644z" />
    <glyph glyph-name="J" unicode="J" horiz-adv-x="356" 
d="M291 154q0 -81 -44.5 -121.5t-142.5 -40.5q-17 0 -34 1.5t-31 5t-23 9.5t-9 15v83q0 16 13 16q10 0 19.5 -5.5t31.5 -5.5q26 0 41 14.5t15 53.5v483q0 18 18 18h128q18 0 18 -18v-508z" />
    <glyph glyph-name="K" unicode="K" horiz-adv-x="627" 
d="M625 12q0 -12 -15 -12h-150q-10 0 -15 3t-11 13l-175 277q-5 8 -14 8q-5 0 -8.5 -2.5t-3.5 -10.5v-270q0 -18 -18 -18h-128q-18 0 -18 18v644q0 18 18 18h128q18 0 18 -18v-250q0 -12 12 -12q8 0 17 12l186 251q8 11 14 14t15 3h120q13 0 13 -11q0 -8 -9 -20l-201 -261
q-6 -8 -6 -13t5 -12l218 -331q8 -12 8 -20z" />
    <glyph glyph-name="L" unicode="L" horiz-adv-x="489" 
d="M477 18q0 -18 -18 -18h-372q-18 0 -18 18v644q0 18 18 18h128q18 0 18 -18v-530q0 -13 13 -13h213q18 0 18 -18v-83z" />
    <glyph glyph-name="M" unicode="M" horiz-adv-x="912" 
d="M843 18q0 -18 -18 -18h-117q-17 0 -17 18v487q0 8 -5 8t-8 -8l-127 -444q-6 -21 -11 -33t-11 -18.5t-15 -8t-22 -1.5h-102q-14 0 -23 1.5t-15 8t-11 18.5t-11 33l-127 444q-3 8 -7 8q-5 0 -5 -10v-485q0 -18 -18 -18h-86q-18 0 -18 18v644q0 18 18 18h190q24 0 28 -16
l145 -505q3 -9 7 -9t7 9l144 500q4 13 9 17t14 4h194q18 0 18 -18v-644z" />
    <glyph glyph-name="N" unicode="N" horiz-adv-x="714" 
d="M645 18q0 -18 -18 -18h-159q-14 0 -23.5 8t-23.5 38l-212 437q-4 8 -9 8q-4 0 -4 -8v-465q0 -18 -18 -18h-91q-18 0 -18 18v644q0 18 18 18h172q12 0 18 -3.5t10 -11.5l218 -450q4 -8 9 -8q4 0 4 8v447q0 18 18 18h91q18 0 18 -18v-644z" />
    <glyph glyph-name="O" unicode="O" horiz-adv-x="753" 
d="M716 342q0 -76 -20.5 -140t-62.5 -110.5t-106 -73t-151 -26.5q-84 0 -147 25t-106 70.5t-64.5 109.5t-21.5 142q0 76 20.5 140t62 110.5t105.5 73t151 26.5q84 0 147.5 -25t106.5 -70.5t64.5 -109.5t21.5 -142zM547 340q0 118 -44 175t-127 57q-79 0 -124.5 -56.5
t-45.5 -174.5q0 -115 42 -174t128 -59q83 0 127 59t44 173z" />
    <glyph glyph-name="P" unicode="P" horiz-adv-x="595" 
d="M575 479q0 -59 -24.5 -110t-71.5 -77q-29 -17 -67.5 -24t-98.5 -7h-67q-13 0 -13 -12v-231q0 -18 -17 -18h-130q-17 0 -17 18v644q0 18 17 18h237q36 0 63 -2t47.5 -6t36.5 -11t30 -16q37 -26 56 -70.5t19 -95.5zM406 474q0 59 -26 84.5t-83 25.5h-52q-12 0 -12 -13v-202
q0 -12 13 -12h49q51 0 81 26.5t30 90.5z" />
    <glyph glyph-name="Q" unicode="Q" horiz-adv-x="753" 
d="M716 342q0 -77 -19.5 -137t-54.5 -103.5t-83.5 -68.5t-105.5 -31q-7 -1 -9 -4.5t-2 -19.5q0 -32 23.5 -49t78.5 -17q28 0 47.5 4t32 9.5t21 9.5t14.5 4q13 0 13 -17v-78q0 -11 -5 -17.5t-19 -11.5q-20 -7 -51 -11t-81 -4q-73 0 -117.5 16.5t-68.5 43.5t-31.5 61t-7.5 70
q0 5 -2.5 6.5t-7.5 3.5q-53 12 -98 38t-77.5 67.5t-50.5 99.5t-18 133q0 76 20.5 140t62 110.5t105.5 73t151 26.5q84 0 147.5 -25t106.5 -70.5t64.5 -109.5t21.5 -142zM547 340q0 46 -8 88t-27.5 74t-52.5 51t-83 19q-48 0 -80.5 -19t-52.5 -51t-28.5 -73.5t-8.5 -87.5
q0 -47 8 -89t27.5 -74t52 -51t82.5 -19q48 0 81 19t53 51t28.5 74t8.5 88z" />
    <glyph glyph-name="R" unicode="R" horiz-adv-x="625" 
d="M618 11q0 -11 -14 -11h-154q-18 0 -27 15l-162 275q-6 10 -14 10h-7q-9 0 -9 -10v-272q0 -18 -18 -18h-126q-18 0 -18 18v644q0 18 18 18h232q40 0 70 -3t53.5 -9t41 -16t31.5 -23q44 -43 44 -118q0 -41 -10.5 -72t-28 -53t-41 -36t-50.5 -21q-11 -3 -11 -7q0 -5 4 -10
l187 -281q5 -8 7 -12t2 -8zM396 496q0 46 -25 68.5t-82 22.5h-46q-10 0 -10 -11v-166q0 -10 10 -10h48q48 0 76.5 23t28.5 73z" />
    <glyph glyph-name="S" unicode="S" horiz-adv-x="520" 
d="M476 194q0 -45 -14.5 -82.5t-44.5 -64t-76 -41t-109 -14.5q-48 0 -90 6.5t-76 20.5q-19 8 -25.5 14t-6.5 20v83q0 16 14 16q7 0 18 -7t30.5 -15.5t49.5 -15.5t75 -7q55 0 77.5 17.5t22.5 49.5q0 22 -10 38t-44 37l-116 71q-54 33 -79.5 76.5t-25.5 106.5q0 91 63 138.5
t184 47.5q37 0 74 -6.5t75 -23.5q17 -8 21 -14t4 -16v-85q0 -6 -2.5 -11.5t-11.5 -5.5q-10 0 -21 7.5t-29 16t-44.5 16t-67.5 7.5q-50 0 -71 -16.5t-21 -44.5q0 -22 11.5 -37.5t44.5 -33.5l91 -50q39 -21 64 -42.5t40 -44.5t20.5 -50.5t5.5 -60.5z" />
    <glyph glyph-name="T" unicode="T" horiz-adv-x="579" 
d="M575 579q0 -18 -17 -18h-176q-11 0 -11 -12v-531q0 -18 -17 -18h-129q-17 0 -17 18v531q0 12 -11 12h-176q-17 0 -17 18v83q0 18 17 18h537q17 0 17 -18v-83z" />
    <glyph glyph-name="U" unicode="U" horiz-adv-x="707" 
d="M642 242q0 -133 -69.5 -195.5t-222.5 -62.5t-219 61t-66 179v438q0 18 18 18h128q17 0 17 -18v-404q0 -72 30.5 -109.5t108.5 -37.5q76 0 107.5 36t31.5 107v408q0 18 17 18h101q18 0 18 -18v-420z" />
    <glyph glyph-name="V" unicode="V" horiz-adv-x="632" 
d="M630 667q0 -6 -3 -15l-208 -624q-6 -19 -14.5 -27.5t-28.5 -8.5h-127q-19 0 -27.5 6.5t-16.5 29.5l-200 624q-3 7 -3 15q0 13 17 13h131q15 0 19 -12l150 -515q4 -13 9 -13q6 0 10 13l156 515q3 12 19 12h102q15 0 15 -13z" />
    <glyph glyph-name="W" unicode="W" horiz-adv-x="1001" 
d="M997 667q0 -8 -4 -21l-155 -582q-11 -44 -23 -58t-32 -14h-132q-20 0 -31.5 11t-18.5 46l-91 476q-3 15 -8 15t-8 -14l-96 -491q-5 -23 -15.5 -33t-30.5 -10h-141q-32 0 -43 41l-161 616q-3 10 -3 18q0 13 15 13h130q11 0 14.5 -3.5t5.5 -12.5l122 -521q4 -13 9 -13t8 13
l96 490q5 25 16 36t32 11h131q21 0 32.5 -11.5t16.5 -40.5l91 -479q2 -10 4 -13t5 -3q6 0 9 13l118 518q2 9 5.5 12.5t14.5 3.5h102q16 0 16 -13z" />
    <glyph glyph-name="X" unicode="X" horiz-adv-x="639" 
d="M635 13q0 -6 -4.5 -9.5t-10.5 -3.5h-151q-13 0 -20 11l-142 223q-6 10 -11 10t-10 -9l-135 -223q-4 -7 -8 -9.5t-12 -2.5h-110q-17 0 -17 13q0 8 7 19l208 306q4 5 4 11q0 5 -5 13l-187 287q-8 12 -8 18q0 13 16 13h150q13 0 21 -12l113 -178q7 -11 12 -11q4 0 10 10
l108 179q7 12 20 12h109q16 0 16 -13q0 -7 -7 -17l-180 -264q-4 -7 -4 -12t5 -13l216 -330q5 -7 6 -10.5t1 -7.5z" />
    <glyph glyph-name="Y" unicode="Y" horiz-adv-x="603" 
d="M601 669q0 -6 -7 -19l-195 -348q-8 -14 -9.5 -23.5t-1.5 -25.5v-235q0 -18 -18 -18h-128q-18 0 -18 18v215q0 20 -2 28.5t-11 25.5l-201 362q-8 15 -8 20q0 11 14 11h137q16 0 24 -15l130 -251q5 -10 12 -10q6 0 11 10l131 251q5 9 10 12t15 3h102q13 0 13 -11z" />
    <glyph glyph-name="Z" unicode="Z" horiz-adv-x="580" 
d="M556 18q0 -18 -18 -18h-497q-17 0 -17 18v95q0 10 2 18.5t9 17.5l309 392q6 7 6 13q0 7 -11 7h-286q-17 0 -17 18v83q0 18 17 18h476q19 0 19 -18v-85q0 -11 -2 -18.5t-9 -16.5l-317 -402q-6 -8 -6 -14q0 -3 2.5 -5t10.5 -2h311q18 0 18 -18v-83z" />
    <glyph glyph-name="bracketleft" unicode="[" horiz-adv-x="299" 
d="M263 -198q0 -22 -22 -22h-174q-21 0 -21 21v897q0 22 22 22h173q22 0 22 -22v-34q0 -21 -22 -21h-63q-12 0 -12 -13v-761q0 -12 13 -12h62q22 0 22 -21v-34z" />
    <glyph glyph-name="backslash" unicode="\" horiz-adv-x="500" 
d="M120 724q0 14 18 19q14 4 30 6t24 2q16 0 19 -19l166 -932q2 -10 2 -16q0 -15 -19 -19q-17 -5 -34 -6.5t-19 -1.5q-17 0 -20 19l-165 932q-1 5 -1.5 9.5t-0.5 6.5z" />
    <glyph glyph-name="bracketright" unicode="]" horiz-adv-x="299" 
d="M36 698q0 22 22 22h174q21 0 21 -21v-897q0 -22 -22 -22h-173q-22 0 -22 22v34q0 21 22 21h63q12 0 12 13v761q0 12 -13 12h-62q-22 0 -22 21v34z" />
    <glyph glyph-name="asciicircum" unicode="^" 
d="M561 249q9 -20 9 -27q0 -18 -18 -18h-50q-23 0 -33 21l-152 342q-4 8 -9 8t-9 -8l-152 -342q-10 -21 -33 -21h-50q-18 0 -18 18q0 7 9 27l204 423q9 19 27 19h44q19 -1 28 -19z" />
    <glyph glyph-name="underscore" unicode="_" horiz-adv-x="500" 
d="M521 -140q0 -21 -21 -21h-499q-22 0 -22 22v17q0 21 21 21h500q21 0 21 -22v-17z" />
    <glyph glyph-name="grave" unicode="`" horiz-adv-x="500" 
d="M368 595q0 -5 -2.5 -11t-10.5 -19q-8 -12 -16 -12q-5 0 -10 1.5t-16 6.5l-164 79q-19 9 -19 24q0 9 8 22l17 27q8 12 13 15.5t12 3.5t13.5 -3.5t19.5 -12.5l145 -104q10 -7 10 -17z" />
    <glyph glyph-name="a" unicode="a" horiz-adv-x="557" 
d="M493 18q0 -18 -19 -18h-112q-11 0 -11 10t-10 10q-9 0 -20.5 -4.5t-27.5 -9.5t-38 -9.5t-51 -4.5q-52 0 -85 14t-52 35.5t-26 48.5t-7 54q0 35 9 61.5t28.5 47t50 35.5t73.5 28l116 35q20 6 26.5 11.5t6.5 16.5v9q0 16 -20 26.5t-72 10.5q-42 0 -70.5 -6.5t-48 -14.5
t-31 -14.5t-18.5 -6.5q-15 0 -15 16v71q0 10 6 17t26 15q31 12 76.5 18.5t95.5 6.5q69 0 113 -14t67 -38q10 -11 18 -23t12.5 -27.5t7 -35t2.5 -46.5v-325zM344 252q0 10 -8 10q-3 0 -9 -1.5t-20 -6.5l-46 -17q-36 -14 -53.5 -30.5t-17.5 -47.5q0 -33 17 -49t55 -16
q34 0 58 12.5t24 43.5v102z" />
    <glyph glyph-name="b" unicode="b" horiz-adv-x="624" 
d="M590 266q0 -67 -17.5 -118t-50 -85.5t-77.5 -52.5t-100 -18q-27 0 -46.5 4.5t-33 9.5t-23.5 9.5t-19 4.5q-11 0 -11 -7q0 -13 -10 -13h-118q-18 0 -18 18v684q0 18 19 18h116q18 0 18 -18v-192q0 -13 9 -13q5 0 15 4.5t25 10.5t36.5 10.5t49.5 4.5q113 0 174.5 -70
t61.5 -191zM429 264q0 72 -28.5 113.5t-98.5 41.5q-32 0 -57.5 -13t-25.5 -43v-208q0 -17 8 -27.5t20.5 -16.5t27 -8.5t28.5 -2.5q57 0 91.5 38t34.5 126z" />
    <glyph glyph-name="c" unicode="c" horiz-adv-x="519" 
d="M477 45q0 -20 -23 -30q-12 -6 -30 -10t-38.5 -7t-42 -4.5t-40.5 -1.5q-131 0 -200 67t-69 195q0 127 71 200t211 73q41 0 80.5 -7t59.5 -16q14 -6 17.5 -11.5t3.5 -17.5v-75q0 -16 -14 -16q-9 0 -17.5 5.5t-22 11.5t-34 11.5t-53.5 5.5q-142 0 -142 -164q0 -81 37 -117
t98 -36q34 0 56.5 5.5t37.5 12t24 12t16 5.5q8 0 11 -5t3 -12v-74z" />
    <glyph glyph-name="d" unicode="d" horiz-adv-x="623" 
d="M557 18q0 -8 -3.5 -13t-14.5 -5h-116q-12 0 -12 13q0 3 -1.5 5t-8.5 2q-9 0 -19.5 -4.5t-26 -9.5t-36.5 -9.5t-50 -4.5q-113 0 -174 70t-61 191q0 67 17.5 118t49.5 85.5t77 52.5t100 18q27 0 47.5 -4t34.5 -9.5t22.5 -9.5t12.5 -4q9 0 9 13v189q0 18 17 18h119
q17 0 17 -18v-684zM404 371q0 20 -21.5 34t-61.5 14q-59 0 -93 -38.5t-34 -125.5q0 -72 28.5 -113.5t98.5 -41.5q16 0 31 3t26.5 9.5t18.5 18t7 28.5v212z" />
    <glyph glyph-name="e" unicode="e" horiz-adv-x="573" 
d="M539 247q0 -18 -18 -18h-312q-15 0 -15 -15q0 -57 36.5 -89t112.5 -32q36 0 62.5 6t44.5 12.5t28 12.5t15 6q15 0 15 -17v-67q0 -20 -22 -30q-28 -12 -67 -18.5t-96 -6.5q-147 0 -218 69t-71 194q0 73 19.5 125t54 85t81.5 48t102 15q70 0 117.5 -19.5t76.5 -53
t41.5 -79.5t12.5 -99v-29zM386 336q0 45 -25 71t-74 26q-46 0 -71 -27.5t-25 -72.5q0 -5 2 -8t10 -3h171q8 0 10 2.5t2 11.5z" />
    <glyph glyph-name="f" unicode="f" horiz-adv-x="339" 
d="M329 435q0 -19 -18 -19h-72q-12 0 -12 -12v-386q0 -18 -17 -18h-120q-16 0 -16 18v386q0 12 -12 12h-42q-18 0 -18 19v65q0 18 18 18h42q12 0 12 12v42q0 78 40 115.5t114 37.5q52 0 76.5 -10.5t24.5 -25.5v-63q0 -16 -14 -16q-9 0 -17 5t-25 5q-29 0 -37.5 -15.5
t-8.5 -44.5v-30q0 -12 12 -12h72q18 0 18 -18v-65z" />
    <glyph glyph-name="g" unicode="g" horiz-adv-x="621" 
d="M557 31q0 -40 -4.5 -72.5t-17.5 -58.5q-16 -31 -43 -52.5t-62 -34.5t-76.5 -19t-87.5 -6q-29 0 -58 3t-54.5 8t-45 10.5t-29.5 10.5q-13 6 -17.5 12t-4.5 17v71q0 17 13 17q7 0 19 -7t32 -15t51 -15t78 -7q29 0 61 5t55 20q25 17 31.5 38.5t6.5 46.5v15q0 14 -9 14
q-5 0 -14.5 -5t-25 -11t-37 -11t-49.5 -5q-113 0 -174 68t-61 189q0 67 17.5 117.5t50 84.5t77.5 51t100 17q27 0 46.5 -4.5t33 -10t23.5 -10t19 -4.5q7 0 8.5 2t1.5 5q0 13 14 13h114q18 0 18 -18v-469zM404 370q0 13 -8 22.5t-20 15.5t-26.5 9t-28.5 3q-28 0 -51.5 -8.5
t-40 -27t-26 -49.5t-9.5 -76q0 -72 29 -111.5t98 -39.5q16 0 31 3t26.5 9.5t18.5 18t7 29.5v202z" />
    <glyph glyph-name="h" unicode="h" horiz-adv-x="604" 
d="M542 18q0 -18 -18 -18h-118q-17 0 -17 18v304q0 43 -21 68t-66 25q-14 0 -29.5 -2.5t-26.5 -7.5q-31 -14 -31 -49v-338q0 -18 -17 -18h-118q-18 0 -18 18v684q0 18 18 18h118q17 0 17 -18v-196q0 -13 9 -13q4 0 15 5.5t28 11.5t40.5 11.5t52.5 5.5q44 0 81 -12t62 -39
t32 -64.5t7 -100.5v-293z" />
    <glyph glyph-name="i" unicode="i" horiz-adv-x="283" 
d="M227 652q0 -32 -22 -49.5t-63 -17.5q-42 0 -64 17.5t-22 50.5q0 32 22 49.5t64 17.5q41 0 63 -17.5t22 -50.5zM218 18q0 -18 -17 -18h-118q-18 0 -18 18v482q0 8 3.5 13t14.5 5h118q17 0 17 -19v-481z" />
    <glyph glyph-name="j" unicode="j" horiz-adv-x="303" 
d="M240 -63q0 -81 -44 -119t-129 -38q-35 0 -54 5t-19 17v66q0 10 4 12.5t9 2.5q6 0 9.5 -0.5t9.5 -0.5q37 0 49 17.5t12 51.5v549q0 18 17 18h118q18 0 18 -19v-562zM249 652q0 -32 -22 -49.5t-63 -17.5q-42 0 -64 17.5t-22 50.5q0 32 22 49.5t64 17.5q41 0 63 -17.5
t22 -50.5z" />
    <glyph glyph-name="k" unicode="k" horiz-adv-x="548" 
d="M546 13q0 -13 -14 -13h-136q-7 0 -14 3t-13 13l-127 201q-5 8 -13 8q-12 0 -12 -13v-194q0 -18 -17 -18h-118q-18 0 -18 18v684q0 18 18 18h118q17 0 17 -19v-386q0 -12 12 -12q7 0 15 11l134 187q8 11 14.5 14t15.5 3h107q14 0 14 -12q0 -7 -9 -19l-143 -191
q-6 -8 -6 -12q0 -6 4 -11l163 -240q8 -12 8 -20z" />
    <glyph glyph-name="l" unicode="l" horiz-adv-x="285" 
d="M219 18q0 -18 -17 -18h-118q-18 0 -18 18v684q0 9 5 13.5t13 4.5h118q17 0 17 -19v-683z" />
    <glyph glyph-name="m" unicode="m" horiz-adv-x="909" 
d="M845 18q0 -18 -18 -18h-117q-18 0 -18 18v299q0 48 -18 73t-65 25q-14 0 -28 -2.5t-25.5 -8.5t-18.5 -16.5t-7 -26.5v-343q0 -18 -18 -18h-117q-18 0 -18 18v298q0 51 -18.5 75t-63.5 24q-14 0 -28 -2.5t-25.5 -8.5t-18.5 -16.5t-7 -26.5v-343q0 -18 -17 -18h-116
q-19 0 -19 18v482q0 18 19 18h113q13 0 13 -13q0 -3 1.5 -5t9.5 -2q13 0 24 4.5t26 10t35.5 10t51.5 4.5q37 0 60 -7t37.5 -15.5t23.5 -15.5t17 -7h6q11 0 23.5 7t31.5 15.5t47.5 15.5t70.5 7q44 0 75.5 -12t56.5 -39t32 -64.5t7 -100.5v-293z" />
    <glyph glyph-name="n" unicode="n" horiz-adv-x="608" 
d="M546 18q0 -18 -18 -18h-118q-17 0 -17 18v285q0 31 -3.5 50.5t-14.5 33.5q-22 28 -71 28q-15 0 -30 -2.5t-27 -9t-20 -17t-8 -26.5v-342q0 -18 -17 -18h-118q-18 0 -18 18v482q0 18 18 18h116q14 0 14 -13q0 -3 1.5 -5t9.5 -2q11 0 24 4.5t29.5 10t37.5 10t48 4.5
q44 0 81 -12t62 -39t32 -64.5t7 -100.5v-293z" />
    <glyph glyph-name="o" unicode="o" horiz-adv-x="607" 
d="M573 261q0 -59 -16.5 -108.5t-50 -85.5t-84 -56t-119.5 -20q-66 0 -116.5 19t-84.5 53.5t-51 84t-17 109.5q0 58 16.5 107.5t50 85.5t84 56.5t119.5 20.5q66 0 116.5 -19t84 -53.5t51 -84t17.5 -109.5zM413 263q0 89 -27 125t-83 36q-55 0 -82 -38.5t-27 -130.5
q0 -88 26.5 -124.5t83.5 -36.5q54 0 81.5 38t27.5 131z" />
    <glyph glyph-name="p" unicode="p" horiz-adv-x="622" 
d="M588 265q0 -67 -17.5 -118t-50 -85.5t-77.5 -52.5t-100 -18q-27 0 -47.5 4t-34.5 9.5t-22.5 9.5t-12.5 4q-9 0 -9 -13v-199q0 -18 -16 -18h-120q-17 0 -17 18v694q0 18 17 18h115q14 0 14 -11q0 -9 10 -9q9 0 20 4.5t26.5 10t36.5 10t49 4.5q113 0 174.5 -70.5
t61.5 -191.5zM427 263q0 75 -30 115t-97 40q-15 0 -30 -3t-27 -9.5t-19 -17t-7 -25.5v-213q0 -14 8 -24t20 -16t26.5 -8.5t28.5 -2.5q26 0 49 8t40.5 27.5t27.5 50.5t10 78z" />
    <glyph glyph-name="q" unicode="q" horiz-adv-x="622" 
d="M34 252q0 65 17.5 116t49.5 86.5t76 54t98 18.5q28 0 48 -4.5t35 -10t25 -10t19 -4.5q10 0 10 9q0 11 14 11h115q17 0 17 -18v-694q0 -18 -17 -18h-120q-16 0 -16 18v202q0 13 -9 13q-4 0 -14 -4.5t-26 -10.5t-37.5 -10.5t-48.5 -4.5q-111 0 -173.5 69t-62.5 192z
M195 254q0 -86 35 -120.5t92 -34.5q14 0 29 2.5t27 9t19.5 17t7.5 26.5v215q0 13 -7 22t-19 15t-27 9t-30 3q-127 0 -127 -164z" />
    <glyph glyph-name="r" unicode="r" horiz-adv-x="409" 
d="M401 408q0 -15 -14 -15q-6 0 -11.5 1t-13.5 2.5t-20.5 3t-32.5 1.5q-92 0 -92 -77v-306q0 -18 -15 -18h-122q-16 0 -16 18v482q0 18 16 18h116q14 0 14 -11v-10q0 -9 11 -9t22 6t25 13t33.5 13t48.5 6q34 0 42.5 -10t8.5 -23v-85z" />
    <glyph glyph-name="s" unicode="s" horiz-adv-x="443" 
d="M401 155q0 -35 -12.5 -65t-37.5 -51.5t-62.5 -34t-87.5 -12.5q-54 0 -94.5 8t-57.5 19q-9 6 -12 12t-3 18v62q0 17 14 17q4 0 14 -5.5t27 -12t44 -12t66 -5.5q32 0 45.5 11t13.5 28q0 14 -8.5 23.5t-37.5 26.5l-80 46q-41 23 -64.5 54.5t-23.5 81.5q0 75 49.5 119
t146.5 44q43 0 78 -7t58 -19q15 -8 15 -24v-69q0 -6 -2.5 -11t-12.5 -5q-8 0 -17 5.5t-23 11.5t-34 11.5t-48 5.5q-38 0 -52.5 -10.5t-14.5 -27.5q0 -14 8.5 -23.5t34.5 -23.5l65 -37q30 -17 50 -33.5t32.5 -34t18 -37.5t5.5 -44z" />
    <glyph glyph-name="t" unicode="t" horiz-adv-x="425" 
d="M383 29q0 -11 -12.5 -18t-31 -11t-40 -6t-39.5 -2q-10 0 -27 1t-36.5 4.5t-39 10.5t-34.5 19q-23 17 -35 48t-12 88v241q0 12 -11 12h-43q-18 0 -18 19v65q0 18 18 18h43q11 0 11 12v98q0 19 18 19h116q19 0 19 -19v-98q0 -12 11 -12h124q19 0 19 -18v-65q0 -19 -19 -19
h-124q-11 0 -11 -12v-206q0 -24 1 -35.5t4 -22.5q4 -14 17 -25.5t43 -11.5q19 0 31 3t20 6.5t13 6.5t10 3q15 0 15 -16v-77z" />
    <glyph glyph-name="u" unicode="u" horiz-adv-x="604" 
d="M540 18q0 -18 -18 -18h-116q-9 0 -11.5 4t-2.5 9q0 3 -1.5 5t-8.5 2q-12 0 -24 -4.5t-27.5 -9.5t-37 -9.5t-52.5 -4.5q-44 0 -81 11.5t-62 38.5q-13 14 -20.5 29.5t-11.5 35t-5 44t-1 56.5v293q0 18 18 18h118q17 0 17 -18v-300q0 -51 20 -74t69 -23q13 0 28 2.5t26 7.5
q31 14 31 49v338q0 18 17 18h118q18 0 18 -18v-482z" />
    <glyph glyph-name="v" unicode="v" horiz-adv-x="514" 
d="M512 505q0 -7 -3 -14l-153 -464q-7 -20 -16.5 -27.5t-26.5 -7.5h-116q-19 0 -28 7t-15 26l-149 466q-3 9 -3 14q0 13 17 13h122q16 0 19 -12l99 -359q4 -13 9 -13t9 13l103 359q3 12 20 12h95q17 0 17 -13z" />
    <glyph glyph-name="w" unicode="w" horiz-adv-x="837" 
d="M833 505q0 -5 -3 -14l-128 -427q-7 -23 -13.5 -37.5t-12.5 -22t-13 -10t-16 -2.5h-105q-22 0 -32.5 12.5t-19.5 54.5l-64 304q-3 14 -8 14t-8 -13l-62 -300q-9 -45 -22 -58.5t-30 -13.5h-112q-9 0 -15.5 1.5t-12.5 8.5t-11.5 20t-12.5 37l-124 428q-2 5 -3 9.5t-1 8.5
q0 13 17 13h118q16 0 19 -12l87 -363q3 -13 9 -13q5 0 8 13l69 329q5 26 16.5 36t30.5 10h112q21 0 32 -11t17 -42l65 -319q3 -16 9 -16q5 0 8 13l88 363q3 12 19 12h88q17 0 17 -13z" />
    <glyph glyph-name="x" unicode="x" horiz-adv-x="504" 
d="M500 14q0 -14 -14 -14h-137q-14 0 -21 11l-87 139q-6 10 -12 10q-5 0 -10 -9l-77 -139q-7 -12 -21 -12h-99q-18 0 -18 13q0 8 7 19l146 216q4 5 4 11q0 5 -5 13l-140 215q-7 10 -7 18q0 13 18 13h133q15 0 22 -12l69 -112q5 -10 11 -10q5 0 10 9l64 113q4 7 8 9.5t12 2.5
h98q17 0 17 -13q0 -7 -7 -17l-129 -192q-4 -5 -4 -11t5 -14l157 -240q7 -11 7 -17z" />
    <glyph glyph-name="y" unicode="y" horiz-adv-x="519" 
d="M517 506q0 -8 -4 -19l-197 -571q-26 -74 -65 -105t-101 -31q-29 0 -50.5 3.5t-21.5 17.5v68q0 10 4.5 12.5t9.5 2.5t13 -1t20 -1q44 0 59 33l7 15q4 8 5 14t1 11t-2 10.5t-4 13.5l-181 509q-4 9 -4 17q0 13 17 13h122q16 0 19 -12l105 -340q4 -13 9 -13q6 0 10 13l97 340
q4 12 20 12h97q15 0 15 -12z" />
    <glyph glyph-name="z" unicode="z" horiz-adv-x="491" 
d="M457 18q0 -18 -18 -18h-391q-18 0 -18 18v64q0 10 2 18t9 17l210 281q5 7 5 11q0 7 -8 7h-190q-18 0 -18 19v65q0 18 18 18h371q19 0 19 -18v-54q0 -12 -2 -19.5t-9 -16.5l-215 -286q-5 -6 -6 -9t-1 -5q0 -7 11 -7h213q18 0 18 -18v-67z" />
    <glyph glyph-name="braceleft" unicode="{" horiz-adv-x="356" 
d="M31 216q-11 1 -13.5 4.5t-2.5 10.5v42q0 7 2.5 10.5t13.5 4.5l20 1q34 2 45.5 16.5t11.5 55.5v225q0 73 32.5 106t110.5 33h61q18 0 18 -16v-44q0 -16 -18 -16h-20q-45 0 -64.5 -19.5t-19.5 -69.5v-206q0 -38 -12.5 -62.5t-42.5 -32.5q-9 -3 -9 -7t9 -7q30 -8 42.5 -32.5
t12.5 -62.5v-205q0 -50 19.5 -69.5t64.5 -19.5h20q18 0 18 -16v-44q0 -16 -18 -16h-61q-78 0 -110.5 33t-32.5 106v224q0 41 -11.5 55.5t-45.5 16.5z" />
    <glyph glyph-name="bar" unicode="|" horiz-adv-x="500" 
d="M299 -224q0 -23 -22 -23h-56q-21 0 -21 22v958q0 23 22 23h56q21 0 21 -23v-957z" />
    <glyph glyph-name="braceright" unicode="}" horiz-adv-x="356" 
d="M325 289q11 -1 13.5 -4.5t2.5 -10.5v-42q0 -7 -2.5 -10.5t-13.5 -4.5l-20 -1q-34 -2 -45.5 -16.5t-11.5 -55.5v-225q0 -73 -32.5 -106t-110.5 -33h-61q-18 0 -18 16v44q0 16 18 16h20q45 0 64.5 19.5t19.5 69.5v206q0 38 12.5 62.5t42.5 32.5q9 3 9 7t-9 7
q-30 8 -42.5 32.5t-12.5 62.5v205q0 50 -19.5 69.5t-64.5 19.5h-20q-18 0 -18 16v44q0 16 18 16h61q78 0 110.5 -33t32.5 -106v-224q0 -41 11.5 -55.5t45.5 -16.5z" />
    <glyph glyph-name="asciitilde" unicode="~" 
d="M267 472q-25 11 -38 16t-24 5q-19 0 -31 -11.5t-26 -37.5q-10 -19 -17 -24.5t-17 -5.5q-4 0 -13.5 3.5t-19 9.5t-17 13t-7.5 14q0 10 5.5 25.5t18.5 35.5q26 38 56.5 55t60.5 17q24 0 48 -6.5t50 -18.5l53 -24q23 -11 37 -16t25 -5q19 0 31 11.5t26 37.5q11 19 17.5 24.5
t16.5 5.5q4 0 13.5 -3.5t19 -9.5t17 -13t7.5 -14q0 -10 -5.5 -25.5t-18.5 -35.5q-26 -38 -56.5 -55t-60.5 -17q-44 0 -98 25z" />
    <glyph glyph-name="uni00A0" unicode="&#xa0;" horiz-adv-x="266" 
 />
    <glyph glyph-name="exclamdown" unicode="&#xa1;" horiz-adv-x="367" 
d="M92 -127q0 7 0.5 23t1.5 30l27 400q1 14 6 19t17 5h79q13 0 17.5 -5t5.5 -19l27 -400q1 -11 1.5 -25.5t0.5 -27.5q0 -23 -10 -32.5t-36 -9.5h-92q-26 0 -35.5 9.5t-9.5 32.5zM93 459q0 32 23.5 50t66.5 18q91 0 91 -69q0 -32 -23.5 -50t-67.5 -18t-67 17.5t-23 51.5z" />
    <glyph glyph-name="cent" unicode="&#xa2;" 
d="M521 46q0 -12 -6 -19.5t-25 -14.5q-21 -8 -44 -12t-61 -7q-11 -1 -11 -12v-44q0 -12 -3.5 -16.5t-15.5 -4.5h-45q-12 0 -15.5 4.5t-3.5 16.5v49q0 10 -9 11q-42 6 -79 24t-65 49t-44 76.5t-16 107.5q0 115 52.5 180t145.5 85q15 3 15 14v40q0 12 3.5 16.5t15.5 4.5h45
q12 0 15.5 -4.5t3.5 -16.5v-35q0 -12 10 -12q30 -2 63.5 -8t56.5 -16q8 -4 12.5 -9t4.5 -15v-78q0 -6 -2.5 -11t-11.5 -5q-8 0 -17.5 5.5t-23.5 11.5t-34.5 11.5t-51.5 5.5q-142 0 -142 -164q0 -77 35.5 -115t99.5 -38q34 0 56 5.5t37 12t24 12t17 5.5t11 -5t3 -12v-73z" />
    <glyph glyph-name="sterling" unicode="&#xa3;" 
d="M564 18q0 -18 -18 -18h-468q-16 0 -16 15v78q0 9 3.5 13.5t14.5 9.5l10 5q34 17 34 82v92q0 13 -11 13h-33q-18 0 -18 18v51q0 18 18 18h33q11 0 11 12v77q0 46 12 84t40.5 65t75 41.5t115.5 14.5q25 0 51 -4t48.5 -10t39.5 -12.5t24 -12.5q8 -6 10 -10.5t2 -14.5v-78
q0 -6 -3 -11.5t-12 -5.5q-7 0 -17 6.5t-26 15t-39.5 15t-57.5 6.5q-62 0 -85.5 -27.5t-23.5 -79.5v-59q0 -12 12 -12h110q18 0 18 -18v-51q0 -18 -18 -18h-110q-12 0 -12 -13v-63q0 -32 -8.5 -53.5t-29.5 -35.5q-6 -4 -6 -9q0 -4 3.5 -5t5.5 -1h303q18 0 18 -19v-91z" />
    <glyph glyph-name="currency" unicode="&#xa4;" 
d="M504 104q-9 -9 -16 -9q-6 0 -15 9l-47 46q-28 -17 -56 -24.5t-63 -7.5t-62.5 7.5t-55.5 24.5l-47 -46q-8 -9 -15 -9t-14 7l-38 37q-7 7 -7 14q0 8 8 16l47 45q-36 52 -36 119t36 120l-46 44q-9 7 -9 16q0 7 9 16l35 34q8 8 15 8q8 0 17 -9l46 -45q28 17 55 24t62 7
t62.5 -7t55.5 -24l47 46q9 9 16 9q6 0 14 -8l38 -37q7 -7 7 -13q0 -9 -9 -16l-47 -45q18 -26 27.5 -55.5t9.5 -64.5q0 -67 -36 -119l47 -45q8 -7 8 -15t-8 -16zM177 333q0 -27 10 -50.5t27.5 -41.5t41.5 -28t51 -10t51 10t42 28t28 41.5t10 50.5t-10 50.5t-28 41.5t-42 28
t-51 10t-51 -10t-41.5 -28t-27.5 -41.5t-10 -50.5z" />
    <glyph glyph-name="yen" unicode="&#xa5;" 
d="M608 669q0 -8 -7 -20l-117 -209q-2 -4 -2 -7q0 -4 3 -5t6 -1h53q14 0 14 -14v-49q0 -14 -14 -14h-97q-10 0 -13.5 -2.5t-7.5 -9.5l-10 -18q-2 -4 -2 -8q0 -5 7 -5h123q14 0 14 -14v-49q0 -14 -14 -14h-137q-12 0 -12 -11v-201q0 -12 -6.5 -15t-12.5 -3h-126q-6 0 -12.5 3
t-6.5 15v201q0 11 -14 11h-144q-14 0 -14 14v49q0 14 14 14h123q6 0 6 5q0 4 -3 9l-11 19q-4 7 -7.5 9t-13.5 2h-94q-14 0 -14 14v49q0 14 14 14h54q8 0 8 5q0 2 -1.5 5l-6.5 13l-110 198q-3 5 -5.5 10.5t-2.5 9.5q0 11 14 11h137q10 0 15 -3.5t9 -11.5l130 -251
q5 -10 12 -10q5 0 11 10l131 251q5 9 10 12t14 3h103q13 0 13 -11z" />
    <glyph glyph-name="brokenbar" unicode="&#xa6;" horiz-adv-x="500" 
d="M304 420q0 -22 -22 -22h-66q-21 0 -21 21v363q0 23 22 23h66q21 0 21 -23v-362zM304 -191q0 -22 -22 -22h-66q-21 0 -21 21v363q0 23 22 23h66q21 0 21 -23v-362z" />
    <glyph glyph-name="section" unicode="&#xa7;" horiz-adv-x="538" 
d="M375 437q24 -13 47 -28t41 -35.5t29 -47.5t11 -64q0 -30 -9 -54.5t-24.5 -42.5t-35 -30t-40.5 -18q-8 -2 -10 -4t-2 -4q0 -4 7 -7q35 -18 52 -53t17 -80q0 -78 -56 -117.5t-164 -39.5q-55 0 -90.5 8t-53.5 16q-12 5 -16 11.5t-4 14.5v73q0 16 16 16q7 0 16.5 -5.5
t25.5 -12t39.5 -12t59.5 -5.5q26 0 42 3.5t25 9.5t12 13.5t3 16.5q0 15 -8 25.5t-30 21.5l-113 60q-24 13 -47 28t-41 35.5t-29 47.5t-11 64q0 30 9 54.5t24.5 42.5t35 30t40.5 18q8 2 10 4t2 4q0 3 -7 7q-35 18 -52 53t-17 80q0 78 56 117.5t164 39.5q55 0 90.5 -8
t53.5 -16q12 -5 16 -11.5t4 -14.5v-73q0 -16 -16 -16q-7 0 -16.5 5.5t-25.5 12t-39.5 12t-59.5 5.5q-26 0 -42 -3.5t-25 -9.5t-12 -13.5t-3 -16.5q0 -15 8 -25.5t30 -21.5zM252 341q-9 5 -14.5 7t-10.5 2q-12 0 -29 -18q-10 -11 -16 -24t-6 -32q0 -16 3.5 -28t11.5 -21.5
t20.5 -18.5t30.5 -20l43 -26q9 -5 14.5 -7t10.5 -2q12 0 29 18q10 11 16 24t6 32q0 16 -3.5 27.5t-11 21.5t-20 19t-30.5 20z" />
    <glyph glyph-name="dieresis" unicode="&#xa8;" horiz-adv-x="500" 
d="M213 641q0 -32 -16.5 -46t-47.5 -14q-30 0 -47 14.5t-17 46.5q0 59 64 59q30 0 47 -14t17 -46zM415 641q0 -32 -16.5 -46t-47.5 -14q-30 0 -47 14.5t-17 46.5q0 59 64 59q30 0 47 -14t17 -46z" />
    <glyph glyph-name="copyright" unicode="&#xa9;" horiz-adv-x="890" 
d="M615 50q0 -18 -22 -28q-26 -11 -56.5 -17.5t-73.5 -6.5q-123 0 -186 60t-63 184q0 122 63 188.5t199 66.5q36 0 68 -7t54 -18q17 -8 17 -25v-51q0 -16 -14 -16q-7 0 -16.5 5.5t-24 11.5t-35.5 11.5t-49 5.5q-66 0 -102.5 -45.5t-36.5 -123.5q0 -82 35.5 -123.5
t101.5 -41.5q28 0 48.5 5.5t35.5 12t25 12t18 5.5t11 -5t3 -11v-49zM845 246q0 -89 -29 -164t-82 -129t-126.5 -84t-163.5 -30t-163 30t-125.5 83t-81 127t-28.5 162t28.5 163.5t81 130.5t125.5 86t163 31t163.5 -29t126.5 -82t82 -128t29 -167zM752 250q0 69 -22.5 127.5
t-63.5 102t-97.5 68t-124.5 24.5t-124 -25t-96.5 -68.5t-62.5 -103.5t-22 -130q0 -69 22 -129t62.5 -104t96.5 -69t124 -25t124.5 25.5t97.5 70t63.5 105t22.5 131.5z" />
    <glyph glyph-name="ordfeminine" unicode="&#xaa;" horiz-adv-x="418" 
d="M28 394q0 25 6 44.5t20 34.5t37.5 26.5t59.5 22.5l89 26q14 5 14 19v6q0 9 -12 15.5t-46 6.5q-30 0 -51.5 -5t-36.5 -10.5t-24 -10.5t-15 -5q-15 0 -15 16v52q0 17 19 25q25 11 61.5 17t74.5 6q84 0 125.5 -29t41.5 -95v-250q0 -13 -6 -16t-12 -3h-83q-15 0 -15 10
q0 7 -8 7q-5 0 -12.5 -3.5t-19 -8t-27 -8t-35.5 -3.5q-41 0 -66.5 10.5t-39.5 26.5t-19 36t-5 40zM155 406q0 -39 46 -39q23 0 38 7.5t15 27.5v55q0 9 -7 9q-5 0 -16 -4l-37 -12q-39 -12 -39 -44z" />
    <glyph glyph-name="guillemotleft" unicode="&#xab;" horiz-adv-x="500" 
d="M262 450q0 -7 -6 -20l-75 -154q-7 -14 -7 -21t7 -21l75 -154q6 -14 6 -20q0 -14 -19 -14h-65q-11 0 -16.5 3.5t-10.5 14.5l-83 169q-4 8 -5 12.5t-1 9.5t1 9.5t5 12.5l83 169q5 11 10.5 14.5t16.5 3.5h65q19 0 19 -14zM437 450q0 -7 -6 -20l-75 -154q-7 -14 -7 -21t7 -21
l75 -154q6 -14 6 -20q0 -14 -19 -14h-65q-11 0 -16.5 3.5t-10.5 14.5l-83 169q-4 8 -5 12.5t-1 9.5t1 9.5t5 12.5l83 169q5 11 10.5 14.5t16.5 3.5h65q19 0 19 -14z" />
    <glyph glyph-name="logicalnot" unicode="&#xac;" 
d="M546 178q0 -31 -29 -31h-38q-30 0 -30 31v137q0 9 -8 9h-341q-31 0 -31 29v33q0 30 31 30h417q29 0 29 -31v-207z" />
    <glyph glyph-name="uni00AD" unicode="&#xad;" horiz-adv-x="266" 
d="M238 267q0 -8 -4 -13t-15 -5h-172q-19 0 -19 18v63q0 17 19 17h172q11 0 15 -4.5t4 -12.5v-63z" />
    <glyph glyph-name="registered" unicode="&#xae;" horiz-adv-x="890" 
d="M845 246q0 -89 -29 -164t-82 -129t-126.5 -84t-163.5 -30t-163 30t-125.5 83t-81 127t-28.5 162t28.5 163.5t81 130.5t125.5 86t163 31t163.5 -29t126.5 -82t82 -128t29 -167zM752 250q0 69 -22.5 127.5t-63.5 102t-97.5 68t-124.5 24.5t-124 -25t-96.5 -68.5
t-62.5 -103.5t-22 -130q0 -69 22 -129t62.5 -104t96.5 -69t124 -25t124.5 25.5t97.5 70t63.5 105t22.5 131.5zM660 19q0 -12 -17 -12h-75q-15 0 -26 15l-134 179q-6 9 -10 9h-2q-4 0 -4 -5v-179q0 -11 -5 -15t-11 -4h-77q-6 0 -11 3.5t-5 11.5v449q0 19 18 19h160
q78 0 117 -31t39 -99q0 -63 -26 -93.5t-70 -41.5q-7 -2 -7 -7t4 -11l132 -165q10 -13 10 -23zM502 354q0 29 -18 46.5t-60 17.5h-21q-11 0 -11 -12v-110q0 -13 13 -13h15q40 0 61 16.5t21 54.5z" />
    <glyph glyph-name="macron" unicode="&#xaf;" horiz-adv-x="500" 
d="M389 611q0 -20 -20 -20h-239q-11 0 -15.5 4t-4.5 16v36q0 20 20 20h239q11 0 15.5 -4t4.5 -16v-36z" />
    <glyph glyph-name="degree" unicode="&#xb0;" horiz-adv-x="439" 
d="M377 612q0 -72 -42.5 -115t-114.5 -43t-115.5 40t-43.5 118q0 72 42.5 115t114.5 43t115.5 -40t43.5 -118zM291 612q0 37 -20.5 58t-52.5 21q-30 0 -50.5 -20.5t-20.5 -58.5q0 -37 21 -58t52 -21t51 20.5t20 58.5z" />
    <glyph glyph-name="plusminus" unicode="&#xb1;" 
d="M290 118q-17 0 -24 7t-7 24v172q0 4 -3 4h-161q-31 0 -31 29v33q0 30 31 30h161q3 0 3 5v170q0 17 7 24.5t24 7.5h35q17 0 24 -7.5t7 -24.5v-170q0 -5 4 -5h160q31 0 31 -30v-33q0 -29 -31 -29h-160q-4 0 -4 -4v-172q0 -17 -7 -24t-24 -7h-35zM95 -8q-31 0 -31 29v33
q0 30 31 30h425q31 0 31 -30v-33q0 -29 -31 -29h-425z" />
    <glyph glyph-name="uni00B2" unicode="&#xb2;" horiz-adv-x="310" 
d="M304 266q0 -18 -17 -18h-269q-16 0 -16 18v29q0 38 17 67t59 61l65 50q23 18 31.5 33.5t8.5 37.5q0 18 -12.5 35.5t-45.5 17.5q-25 0 -42 -5t-28.5 -11.5t-19 -11.5t-13.5 -5q-9 0 -12 3.5t-3 11.5v52q0 12 4.5 18.5t18.5 11.5q49 20 121 20q79 0 118 -33.5t39 -94.5
q0 -39 -17.5 -71t-59.5 -58l-71 -45q-13 -8 -20.5 -13.5t-11 -9t-4.5 -5.5t-1 -5q0 -7 11 -7h153q17 0 17 -19v-54z" />
    <glyph glyph-name="uni00B3" unicode="&#xb3;" horiz-adv-x="310" 
d="M307 370q0 -59 -40 -92t-132 -33q-44 0 -77 7.5t-43 13.5q-8 5 -10 11t-2 15v48q0 16 16 16q5 0 11.5 -4.5t17.5 -10t27 -10t39 -4.5q40 0 58 13t18 43q0 23 -13.5 35t-45.5 12h-23q-18 0 -18 16v46q0 17 18 17h18q24 0 38 10t14 36q0 23 -13 33.5t-42 10.5
q-22 0 -36 -4.5t-23.5 -10t-16.5 -10t-15 -4.5q-14 0 -14 16v51q0 11 4.5 17t17.5 11q20 8 50 12t58 4q71 0 109.5 -24t38.5 -79q0 -42 -17.5 -63t-49.5 -34q-8 -3 -8 -7q0 -6 11 -8q75 -17 75 -96z" />
    <glyph glyph-name="acute" unicode="&#xb4;" horiz-adv-x="500" 
d="M131 595q0 10 10 17l145 104q13 9 19.5 12.5t13.5 3.5t12 -3.5t13 -15.5l17 -27q8 -13 8 -22q0 -15 -19 -24l-164 -79q-11 -5 -16 -6.5t-10 -1.5q-8 0 -16 12q-8 13 -10.5 19t-2.5 11z" />
    <glyph glyph-name="mu" unicode="&#xb5;" 
d="M548 18q0 -18 -16 -18h-119q-13 0 -13 13q0 8 -10 8q-6 0 -13.5 -4.5t-19.5 -10.5t-31 -10.5t-47 -4.5q-25 0 -36 5.5t-15 5.5q-7 0 -7 -11v-184q0 -19 -18 -19h-116q-19 0 -19 19v693q0 18 17 18h120q16 0 16 -18v-297q0 -54 20 -77t69 -23q38 0 61.5 13.5t23.5 45.5
v338q0 18 17 18h118q8 0 13 -4.5t5 -13.5v-482z" />
    <glyph glyph-name="paragraph" unicode="&#xb6;" horiz-adv-x="437" 
d="M112 -109q0 16 13 16q10 0 20 -5.5t34 -5.5q29 0 41.5 17t12.5 49v342q0 8 -3.5 11t-11.5 4q-47 5 -81.5 22.5t-57.5 44t-34 60.5t-11 73q0 96 60 151t175 55h85q18 0 18 -17v-776q0 -75 -45 -113t-123 -38q-17 0 -33.5 1.5t-29.5 5t-21 9.5t-8 15v79z" />
    <glyph glyph-name="periodcentered" unicode="&#xb7;" horiz-adv-x="266" 
d="M222 342q0 -44 -24 -66t-68 -22q-42 0 -64.5 22.5t-22.5 65.5q0 42 22.5 65t64.5 23q44 0 68 -23t24 -65z" />
    <glyph glyph-name="cedilla" unicode="&#xb8;" horiz-adv-x="500" 
d="M333 -106q0 -40 -32 -62.5t-88 -22.5q-22 0 -34.5 3.5t-12.5 15.5v19q0 16 25 16q30 0 46 6.5t16 30.5q0 15 -9.5 23t-20.5 10q-15 3 -15 17v39q0 6 -3.5 8.5t-7.5 2.5h84q-4 0 -7.5 -2.5t-3.5 -8.5v-6q0 -8 6 -11.5t16 -7.5q20 -8 30.5 -24.5t10.5 -45.5z" />
    <glyph glyph-name="uni00B9" unicode="&#xb9;" horiz-adv-x="310" 
d="M245 266q0 -18 -16 -18h-80q-16 0 -16 18v297q0 9 -7 9q-11 0 -26 -7t-46 -7q-16 0 -16 18v46q0 19 17 19q12 0 25.5 3.5t26.5 8.5t23 10.5t15 9.5t8 5.5t11 1.5h64q17 0 17 -17v-397z" />
    <glyph glyph-name="ordmasculine" unicode="&#xba;" horiz-adv-x="465" 
d="M441 481q0 -90 -51 -145t-155 -55q-51 0 -89.5 14.5t-64.5 40.5t-39 62.5t-13 80.5q0 91 51 145.5t156 54.5q101 0 153 -53.5t52 -144.5zM300 483q0 55 -17.5 81.5t-47.5 26.5q-29 0 -47 -27t-18 -87q0 -57 18.5 -82t47.5 -25t46.5 25.5t17.5 87.5z" />
    <glyph glyph-name="guillemotright" unicode="&#xbb;" horiz-adv-x="500" 
d="M237 60q0 6 6 20l75 154q7 14 7 21t-7 21l-75 154q-6 13 -6 20q0 14 19 14h65q11 0 16.5 -3.5t10.5 -14.5l83 -169q4 -8 5 -12.5t1 -9.5t-1 -9.5t-5 -12.5l-83 -169q-5 -11 -10.5 -14.5t-16.5 -3.5h-65q-19 0 -19 14zM62 60q0 6 6 20l75 154q7 14 7 21t-7 21l-75 154
q-6 13 -6 20q0 14 19 14h65q11 0 16.5 -3.5t10.5 -14.5l83 -169q4 -8 5 -12.5t1 -9.5t-1 -9.5t-5 -12.5l-83 -169q-5 -11 -10.5 -14.5t-16.5 -3.5h-65q-19 0 -19 14z" />
    <glyph glyph-name="onequarter" unicode="&#xbc;" horiz-adv-x="930" 
d="M840 102q0 -19 -18 -19h-26q-10 0 -10 -12v-53q0 -18 -17 -18h-64q-16 0 -16 18v53q0 12 -10 12h-185q-16 0 -16 19v48q0 13 9 25l179 245q5 8 10 10t13 2h81q16 0 16 -16v-236q0 -12 10 -12h26q18 0 18 -18v-48zM689 321q0 6 -5 6q-6 0 -12 -9l-93 -134q-4 -5 -4 -10
q0 -3 3 -4.5t6 -1.5h95q10 0 10 12v141zM267 266q0 -18 -16 -18h-80q-16 0 -16 18v297q0 9 -7 9q-11 0 -26 -7t-46 -7q-16 0 -16 18v46q0 19 17 19q12 0 25.5 3.5t26.5 8.5t23 10.5t15 9.5t8 5.5t11 1.5h64q17 0 17 -17v-397zM649 670q0 -6 -8 -20l-366 -667q-7 -12 -17 -12
q-5 0 -20 5.5t-31 16.5q-10 7 -10 17q0 5 7 18l370 668q6 13 16 13q5 0 21.5 -8t29.5 -16q8 -5 8 -15z" />
    <glyph glyph-name="onehalf" unicode="&#xbd;" horiz-adv-x="930" 
d="M836 18q0 -18 -17 -18h-269q-16 0 -16 18v29q0 38 17 67t59 61l65 50q23 18 31.5 33.5t8.5 37.5q0 18 -12.5 35.5t-45.5 17.5q-25 0 -42 -5t-28.5 -11.5t-19 -11.5t-13.5 -5q-9 0 -12 3.5t-3 11.5v52q0 12 4.5 18.5t18.5 11.5q49 20 121 20q79 0 118 -33.5t39 -94.5
q0 -39 -17.5 -71t-59.5 -58l-71 -45q-13 -8 -20.5 -13.5t-11 -9t-4.5 -5.5t-1 -5q0 -7 11 -7h153q17 0 17 -19v-54zM267 266q0 -18 -16 -18h-80q-16 0 -16 18v297q0 9 -7 9q-11 0 -26 -7t-46 -7q-16 0 -16 18v46q0 19 17 19q12 0 25.5 3.5t26.5 8.5t23 10.5t15 9.5t8 5.5
t11 1.5h64q17 0 17 -17v-397zM633 670q0 -6 -8 -20l-366 -667q-7 -12 -17 -12q-5 0 -20 5.5t-31 16.5q-10 7 -10 17q0 5 7 18l370 668q6 13 16 13q5 0 21.5 -8t29.5 -16q8 -5 8 -15z" />
    <glyph glyph-name="threequarters" unicode="&#xbe;" horiz-adv-x="930" 
d="M860 102q0 -19 -18 -19h-26q-10 0 -10 -12v-53q0 -18 -17 -18h-64q-16 0 -16 18v53q0 12 -10 12h-185q-16 0 -16 19v48q0 13 9 25l179 245q5 8 10 10t13 2h81q16 0 16 -16v-236q0 -12 10 -12h26q18 0 18 -18v-48zM709 321q0 6 -5 6q-6 0 -12 -9l-93 -134q-4 -5 -4 -10
q0 -3 3 -4.5t6 -1.5h95q10 0 10 12v141zM354 370q0 -59 -40 -92t-132 -33q-44 0 -77 7.5t-43 13.5q-8 5 -10 11t-2 15v48q0 16 16 16q5 0 11.5 -4.5t17.5 -10t27 -10t39 -4.5q40 0 58 13t18 43q0 23 -13.5 35t-45.5 12h-23q-18 0 -18 16v46q0 17 18 17h18q24 0 38 10t14 36
q0 23 -13 33.5t-42 10.5q-22 0 -36 -4.5t-23.5 -10t-16.5 -10t-15 -4.5q-14 0 -14 16v51q0 11 4.5 17t17.5 11q20 8 50 12t58 4q71 0 109.5 -24t38.5 -79q0 -42 -17.5 -63t-49.5 -34q-8 -3 -8 -7q0 -6 11 -8q75 -17 75 -96zM689 670q0 -6 -8 -20l-366 -667q-7 -12 -17 -12
q-5 0 -20 5.5t-31 16.5q-10 7 -10 17q0 5 7 18l370 668q6 13 16 13q5 0 21.5 -8t29.5 -16q8 -5 8 -15z" />
    <glyph glyph-name="questiondown" unicode="&#xbf;" horiz-adv-x="505" 
d="M41 5q0 46 17 86t59 82l80 80q12 12 17.5 23t5.5 28v22q0 19 19 19h90q18 0 18 -19v-37q0 -21 -3 -37.5t-9.5 -31.5t-18 -31t-27.5 -35l-33 -39q-13 -16 -21.5 -28t-13 -23t-6 -21.5t-1.5 -22.5q0 -38 25.5 -60.5t77.5 -22.5q34 0 58 7.5t41.5 16t28.5 16t19 7.5
q15 0 15 -17v-87q0 -11 -7.5 -18.5t-33.5 -16.5q-31 -11 -69 -17t-97 -6q-61 0 -105 13.5t-72 38t-41 58t-13 73.5zM193 459q0 32 23.5 50t66.5 18q91 0 91 -69q0 -32 -23.5 -50t-67.5 -18t-67 17.5t-23 51.5z" />
    <glyph glyph-name="Agrave" unicode="&#xc0;" horiz-adv-x="617" 
d="M617 13q0 -13 -17 -13h-128q-13 0 -16 12l-52 178q-2 8 -6 11t-13 3h-185q-8 0 -12 -2t-6 -10l-56 -180q-4 -12 -17 -12h-92q-17 0 -17 13q0 6 3 15l207 632q9 29 41 29h123q19 0 28 -6.5t14 -22.5l198 -632q3 -9 3 -15zM368 313q0 6 -3 14l-62 212q-3 10 -8 10t-8 -11
l-65 -211q-3 -11 -3 -14q0 -7 10 -7h128q11 0 11 7zM424 776q0 -5 -2.5 -11t-10.5 -19q-8 -12 -16 -12q-5 0 -10 1.5t-16 6.5l-164 79q-19 9 -19 24q0 9 8 22l17 27q8 12 13 15.5t12 3.5t13.5 -3.5t19.5 -12.5l145 -104q10 -7 10 -17z" />
    <glyph glyph-name="Aacute" unicode="&#xc1;" horiz-adv-x="617" 
d="M617 13q0 -13 -17 -13h-128q-13 0 -16 12l-52 178q-2 8 -6 11t-13 3h-185q-8 0 -12 -2t-6 -10l-56 -180q-4 -12 -17 -12h-92q-17 0 -17 13q0 6 3 15l207 632q9 29 41 29h123q19 0 28 -6.5t14 -22.5l198 -632q3 -9 3 -15zM368 313q0 6 -3 14l-62 212q-3 10 -8 10t-8 -11
l-65 -211q-3 -11 -3 -14q0 -7 10 -7h128q11 0 11 7zM188 776q0 10 10 17l145 104q13 9 19.5 12.5t13.5 3.5t12 -3.5t13 -15.5l17 -27q8 -13 8 -22q0 -15 -19 -24l-164 -79q-11 -5 -16 -6.5t-10 -1.5q-8 0 -16 12q-8 13 -10.5 19t-2.5 11z" />
    <glyph glyph-name="Acircumflex" unicode="&#xc2;" horiz-adv-x="617" 
d="M617 13q0 -13 -17 -13h-128q-13 0 -16 12l-52 178q-2 8 -6 11t-13 3h-185q-8 0 -12 -2t-6 -10l-56 -180q-4 -12 -17 -12h-92q-17 0 -17 13q0 6 3 15l207 632q9 29 41 29h123q19 0 28 -6.5t14 -22.5l198 -632q3 -9 3 -15zM368 313q0 6 -3 14l-62 212q-3 10 -8 10t-8 -11
l-65 -211q-3 -11 -3 -14q0 -7 10 -7h128q11 0 11 7zM478 780q0 -4 -4 -11l-14 -23q-5 -8 -12 -8q-5 0 -17 5l-110 59q-8 4 -13 4t-13 -4l-110 -59q-12 -5 -17 -5q-7 0 -12 8l-14 23q-4 7 -4 11t1.5 7t8.5 8l127 93q12 9 19 12.5t14 3.5t14 -3.5t19 -12.5l127 -93
q7 -5 8.5 -8t1.5 -7z" />
    <glyph glyph-name="Atilde" unicode="&#xc3;" horiz-adv-x="617" 
d="M617 13q0 -13 -17 -13h-128q-13 0 -16 12l-52 178q-2 8 -6 11t-13 3h-185q-8 0 -12 -2t-6 -10l-56 -180q-4 -12 -17 -12h-92q-17 0 -17 13q0 6 3 15l207 632q9 29 41 29h123q19 0 28 -6.5t14 -22.5l198 -632q3 -9 3 -15zM368 313q0 6 -3 14l-62 212q-3 10 -8 10t-8 -11
l-65 -211q-3 -11 -3 -14q0 -7 10 -7h128q11 0 11 7zM276 776q-13 6 -19 8t-14 2q-17 0 -29 -16l-7 -10q-5 -7 -8.5 -10t-9.5 -3q-3 0 -9.5 2.5t-17.5 10.5q-5 4 -6.5 7.5t-1.5 8.5q0 7 9 27q18 36 38 48t42 12q15 0 27.5 -3t33.5 -13l32 -16q23 -11 37 -11q16 0 29 17l7 10
q5 7 8.5 10t9.5 3q3 0 9.5 -2.5t17.5 -10.5q5 -4 6.5 -7.5t1.5 -8.5q0 -8 -9 -27q-18 -36 -38 -48t-42 -12q-15 0 -28 2.5t-30 10.5z" />
    <glyph glyph-name="Adieresis" unicode="&#xc4;" horiz-adv-x="617" 
d="M617 13q0 -13 -17 -13h-128q-13 0 -16 12l-52 178q-2 8 -6 11t-13 3h-185q-8 0 -12 -2t-6 -10l-56 -180q-4 -12 -17 -12h-92q-17 0 -17 13q0 6 3 15l207 632q9 29 41 29h123q19 0 28 -6.5t14 -22.5l198 -632q3 -9 3 -15zM368 313q0 6 -3 14l-62 212q-3 10 -8 10t-8 -11
l-65 -211q-3 -11 -3 -14q0 -7 10 -7h128q11 0 11 7zM271 802q0 -32 -16.5 -46t-47.5 -14q-30 0 -47 14.5t-17 46.5q0 59 64 59q30 0 47 -14t17 -46zM473 802q0 -32 -16.5 -46t-47.5 -14q-30 0 -47 14.5t-17 46.5q0 59 64 59q30 0 47 -14t17 -46z" />
    <glyph glyph-name="Aring" unicode="&#xc5;" horiz-adv-x="617" 
d="M617 13q0 -13 -17 -13h-128q-13 0 -16 12l-52 178q-2 8 -6 11t-13 3h-185q-8 0 -12 -2t-6 -10l-56 -180q-4 -12 -17 -12h-92q-17 0 -17 13q0 6 3 15l207 632q9 29 41 29h123q19 0 28 -6.5t14 -22.5l198 -632q3 -9 3 -15zM368 313q0 6 -3 14l-62 212q-3 10 -8 10t-8 -11
l-65 -211q-3 -11 -3 -14q0 -7 10 -7h128q11 0 11 7zM393 801q0 -42 -21.5 -61.5t-62.5 -19.5q-42 0 -64 18.5t-22 58.5q0 38 22 58t62 20t63 -19.5t23 -54.5zM341 795q0 36 -32 36q-34 0 -34 -34q0 -33 32 -33q34 0 34 31z" />
    <glyph glyph-name="AE" unicode="&#xc6;" horiz-adv-x="835" 
d="M805 18q0 -18 -19 -18h-345q-11 0 -14.5 4t-5.5 12l-45 237q-2 8 -5.5 11t-12.5 3h-146q-9 0 -13 -3.5t-7 -11.5l-83 -240q-4 -12 -19 -12h-96q-17 0 -17 13q0 7 3 15l233 626q5 15 15 20.5t24 5.5h514q18 0 18 -18v-83q0 -18 -18 -18h-285q-13 0 -13 -8q0 -5 1.5 -14
t2.5 -12l26 -127q2 -8 5 -10.5t12 -2.5h199q18 0 18 -19v-82q0 -19 -18 -19h-174q-13 0 -13 -8q0 -5 1 -12t4 -22l19 -92q2 -8 4.5 -11t10.5 -3h220q19 0 19 -18v-83zM349 394q0 8 -4 28l-28 148q-2 8 -3.5 10t-3.5 2q-5 0 -9 -10l-55 -162q-2 -5 -3 -9.5t-1 -6.5q0 -7 9 -7
h87q11 0 11 7z" />
    <glyph glyph-name="Ccedilla" unicode="&#xc7;" horiz-adv-x="637" 
d="M465 -106q0 -40 -32 -62.5t-88 -22.5q-22 0 -34.5 3.5t-12.5 15.5v19q0 16 25 16q30 0 46 6.5t16 30.5q0 15 -9.5 23t-20.5 10q-15 3 -15 17v36q0 10 -12 11q-74 9 -129 36t-91 70t-53.5 99t-17.5 124q0 85 24 152.5t69.5 114.5t112.5 71.5t153 24.5q43 0 76.5 -4.5
t58 -10.5t39.5 -12.5t21 -10.5q8 -5 10 -10.5t2 -15.5v-83q0 -17 -14 -17q-10 0 -21 7t-29.5 15.5t-47 15.5t-72.5 7q-47 0 -86 -15t-67 -45.5t-43.5 -76.5t-15.5 -107q0 -107 56 -161.5t165 -54.5q38 0 65 7t45.5 15.5t29.5 15.5t19 7q16 0 16 -16v-84q0 -9 -2 -14.5
t-10 -10.5q-5 -3 -21.5 -9.5t-40.5 -13t-54 -11t-62 -4.5q-11 0 -11 -9q0 -8 6 -11.5t16 -7.5q20 -8 30.5 -24.5t10.5 -45.5z" />
    <glyph glyph-name="Egrave" unicode="&#xc8;" horiz-adv-x="550" 
d="M518 18q0 -18 -18 -18h-413q-18 0 -18 18v644q0 18 18 18h392q19 0 19 -18v-83q0 -18 -19 -18h-236q-10 0 -10 -12v-125q0 -12 11 -12h184q18 0 18 -18v-83q0 -18 -18 -18h-184q-11 0 -11 -12v-149q0 -13 12 -13h255q18 0 18 -18v-83zM398 776q0 -5 -2.5 -11t-10.5 -19
q-8 -12 -16 -12q-5 0 -10 1.5t-16 6.5l-164 79q-19 9 -19 24q0 9 8 22l17 27q8 12 13 15.5t12 3.5t13.5 -3.5t19.5 -12.5l145 -104q10 -7 10 -17z" />
    <glyph glyph-name="Eacute" unicode="&#xc9;" horiz-adv-x="550" 
d="M518 18q0 -18 -18 -18h-413q-18 0 -18 18v644q0 18 18 18h392q19 0 19 -18v-83q0 -18 -19 -18h-236q-10 0 -10 -12v-125q0 -12 11 -12h184q18 0 18 -18v-83q0 -18 -18 -18h-184q-11 0 -11 -12v-149q0 -13 12 -13h255q18 0 18 -18v-83zM178 776q0 10 10 17l145 104
q13 9 19.5 12.5t13.5 3.5t12 -3.5t13 -15.5l17 -27q8 -13 8 -22q0 -15 -19 -24l-164 -79q-11 -5 -16 -6.5t-10 -1.5q-8 0 -16 12q-8 13 -10.5 19t-2.5 11z" />
    <glyph glyph-name="Ecircumflex" unicode="&#xca;" horiz-adv-x="550" 
d="M518 18q0 -18 -18 -18h-413q-18 0 -18 18v644q0 18 18 18h392q19 0 19 -18v-83q0 -18 -19 -18h-236q-10 0 -10 -12v-125q0 -12 11 -12h184q18 0 18 -18v-83q0 -18 -18 -18h-184q-11 0 -11 -12v-149q0 -13 12 -13h255q18 0 18 -18v-83zM457 780q0 -4 -4 -11l-14 -23
q-5 -8 -12 -8q-5 0 -17 5l-110 59q-8 4 -13 4t-13 -4l-110 -59q-12 -5 -17 -5q-7 0 -12 8l-14 23q-4 7 -4 11t1.5 7t8.5 8l127 93q12 9 19 12.5t14 3.5t14 -3.5t19 -12.5l127 -93q7 -5 8.5 -8t1.5 -7z" />
    <glyph glyph-name="Edieresis" unicode="&#xcb;" horiz-adv-x="550" 
d="M518 18q0 -18 -18 -18h-413q-18 0 -18 18v644q0 18 18 18h392q19 0 19 -18v-83q0 -18 -19 -18h-236q-10 0 -10 -12v-125q0 -12 11 -12h184q18 0 18 -18v-83q0 -18 -18 -18h-184q-11 0 -11 -12v-149q0 -13 12 -13h255q18 0 18 -18v-83zM249 802q0 -32 -16.5 -46t-47.5 -14
q-30 0 -47 14.5t-17 46.5q0 59 64 59q30 0 47 -14t17 -46zM451 802q0 -32 -16.5 -46t-47.5 -14q-30 0 -47 14.5t-17 46.5q0 59 64 59q30 0 47 -14t17 -46z" />
    <glyph glyph-name="Igrave" unicode="&#xcc;" horiz-adv-x="304" 
d="M234 18q0 -18 -18 -18h-128q-18 0 -18 18v644q0 18 19 18h127q18 0 18 -18v-644zM265 776q0 -5 -2.5 -11t-10.5 -19q-8 -12 -16 -12q-5 0 -10 1.5t-16 6.5l-164 79q-19 9 -19 24q0 9 8 22l17 27q8 12 13 15.5t12 3.5t13.5 -3.5t19.5 -12.5l145 -104q10 -7 10 -17z" />
    <glyph glyph-name="Iacute" unicode="&#xcd;" horiz-adv-x="304" 
d="M234 18q0 -18 -18 -18h-128q-18 0 -18 18v644q0 18 19 18h127q18 0 18 -18v-644zM44 776q0 10 10 17l145 104q13 9 19.5 12.5t13.5 3.5t12 -3.5t13 -15.5l17 -27q8 -13 8 -22q0 -15 -19 -24l-164 -79q-11 -5 -16 -6.5t-10 -1.5q-8 0 -16 12q-8 13 -10.5 19t-2.5 11z" />
    <glyph glyph-name="Icircumflex" unicode="&#xce;" horiz-adv-x="304" 
d="M234 18q0 -18 -18 -18h-128q-18 0 -18 18v644q0 18 19 18h127q18 0 18 -18v-644zM322 780q0 -4 -4 -11l-14 -23q-5 -8 -12 -8q-5 0 -17 5l-110 59q-8 4 -13 4t-13 -4l-110 -59q-12 -5 -17 -5q-7 0 -12 8l-14 23q-4 7 -4 11t1.5 7t8.5 8l127 93q12 9 19 12.5t14 3.5
t14 -3.5t19 -12.5l127 -93q7 -5 8.5 -8t1.5 -7z" />
    <glyph glyph-name="Idieresis" unicode="&#xcf;" horiz-adv-x="304" 
d="M234 18q0 -18 -18 -18h-128q-18 0 -18 18v644q0 18 19 18h127q18 0 18 -18v-644zM117 802q0 -32 -16.5 -46t-47.5 -14q-30 0 -47 14.5t-17 46.5q0 59 64 59q30 0 47 -14t17 -46zM319 802q0 -32 -16.5 -46t-47.5 -14q-30 0 -47 14.5t-17 46.5q0 59 64 59q30 0 47 -14
t17 -46z" />
    <glyph glyph-name="Eth" unicode="&#xd0;" horiz-adv-x="735" 
d="M698 344q0 -103 -40 -180t-113 -117q-41 -23 -94.5 -35t-128.5 -12h-235q-18 0 -18 18v268q0 7 -3 9.5t-6 2.5h-47q-8 0 -12 5t-4 12v66q0 18 16 18h47q3 0 6 2.5t3 9.5v250q0 19 19 19h248q102 0 169.5 -23.5t114.5 -78.5q35 -42 56.5 -101t21.5 -133zM528 343
q0 60 -15.5 102t-43 67.5t-66.5 37t-86 11.5h-73q-11 0 -11 -12v-138q0 -12 11 -12h86q17 0 17 -18v-66q0 -7 -4.5 -12t-12.5 -5h-86q-11 0 -11 -10v-156q0 -13 13 -13h61q34 0 73 7t72 30.5t54.5 68t21.5 118.5z" />
    <glyph glyph-name="Ntilde" unicode="&#xd1;" horiz-adv-x="714" 
d="M645 18q0 -18 -18 -18h-159q-14 0 -23.5 8t-23.5 38l-212 437q-4 8 -9 8q-4 0 -4 -8v-465q0 -18 -18 -18h-91q-18 0 -18 18v644q0 18 18 18h172q12 0 18 -3.5t10 -11.5l218 -450q4 -8 9 -8q4 0 4 8v447q0 18 18 18h91q18 0 18 -18v-644zM324 776q-13 6 -19 8t-14 2
q-17 0 -29 -16l-7 -10q-5 -7 -8.5 -10t-9.5 -3q-3 0 -9.5 2.5t-17.5 10.5q-5 4 -6.5 7.5t-1.5 8.5q0 7 9 27q18 36 38 48t42 12q15 0 27.5 -3t33.5 -13l32 -16q23 -11 37 -11q16 0 29 17l7 10q5 7 8.5 10t9.5 3q3 0 9.5 -2.5t17.5 -10.5q5 -4 6.5 -7.5t1.5 -8.5q0 -8 -9 -27
q-18 -36 -38 -48t-42 -12q-15 0 -28 2.5t-30 10.5z" />
    <glyph glyph-name="Ograve" unicode="&#xd2;" horiz-adv-x="753" 
d="M716 342q0 -76 -20.5 -140t-62.5 -110.5t-106 -73t-151 -26.5q-84 0 -147 25t-106 70.5t-64.5 109.5t-21.5 142q0 76 20.5 140t62 110.5t105.5 73t151 26.5q84 0 147.5 -25t106.5 -70.5t64.5 -109.5t21.5 -142zM547 340q0 118 -44 175t-127 57q-79 0 -124.5 -56.5
t-45.5 -174.5q0 -115 42 -174t128 -59q83 0 127 59t44 173zM476 776q0 -5 -2.5 -11t-10.5 -19q-8 -12 -16 -12q-5 0 -10 1.5t-16 6.5l-164 79q-19 9 -19 24q0 9 8 22l17 27q8 12 13 15.5t12 3.5t13.5 -3.5t19.5 -12.5l145 -104q10 -7 10 -17z" />
    <glyph glyph-name="Oacute" unicode="&#xd3;" horiz-adv-x="753" 
d="M716 342q0 -76 -20.5 -140t-62.5 -110.5t-106 -73t-151 -26.5q-84 0 -147 25t-106 70.5t-64.5 109.5t-21.5 142q0 76 20.5 140t62 110.5t105.5 73t151 26.5q84 0 147.5 -25t106.5 -70.5t64.5 -109.5t21.5 -142zM547 340q0 118 -44 175t-127 57q-79 0 -124.5 -56.5
t-45.5 -174.5q0 -115 42 -174t128 -59q83 0 127 59t44 173zM257 776q0 10 10 17l145 104q13 9 19.5 12.5t13.5 3.5t12 -3.5t13 -15.5l17 -27q8 -13 8 -22q0 -15 -19 -24l-164 -79q-11 -5 -16 -6.5t-10 -1.5q-8 0 -16 12q-8 13 -10.5 19t-2.5 11z" />
    <glyph glyph-name="Ocircumflex" unicode="&#xd4;" horiz-adv-x="753" 
d="M716 342q0 -76 -20.5 -140t-62.5 -110.5t-106 -73t-151 -26.5q-84 0 -147 25t-106 70.5t-64.5 109.5t-21.5 142q0 76 20.5 140t62 110.5t105.5 73t151 26.5q84 0 147.5 -25t106.5 -70.5t64.5 -109.5t21.5 -142zM547 340q0 118 -44 175t-127 57q-79 0 -124.5 -56.5
t-45.5 -174.5q0 -115 42 -174t128 -59q83 0 127 59t44 173zM546 780q0 -4 -4 -11l-14 -23q-5 -8 -12 -8q-5 0 -17 5l-110 59q-8 4 -13 4t-13 -4l-110 -59q-12 -5 -17 -5q-7 0 -12 8l-14 23q-4 7 -4 11t1.5 7t8.5 8l127 93q12 9 19 12.5t14 3.5t14 -3.5t19 -12.5l127 -93
q7 -5 8.5 -8t1.5 -7z" />
    <glyph glyph-name="Otilde" unicode="&#xd5;" horiz-adv-x="753" 
d="M716 342q0 -76 -20.5 -140t-62.5 -110.5t-106 -73t-151 -26.5q-84 0 -147 25t-106 70.5t-64.5 109.5t-21.5 142q0 76 20.5 140t62 110.5t105.5 73t151 26.5q84 0 147.5 -25t106.5 -70.5t64.5 -109.5t21.5 -142zM547 340q0 118 -44 175t-127 57q-79 0 -124.5 -56.5
t-45.5 -174.5q0 -115 42 -174t128 -59q83 0 127 59t44 173zM344 776q-13 6 -19 8t-14 2q-17 0 -29 -16l-7 -10q-5 -7 -8.5 -10t-9.5 -3q-3 0 -9.5 2.5t-17.5 10.5q-5 4 -6.5 7.5t-1.5 8.5q0 7 9 27q18 36 38 48t42 12q15 0 27.5 -3t33.5 -13l32 -16q23 -11 37 -11
q16 0 29 17l7 10q5 7 8.5 10t9.5 3q3 0 9.5 -2.5t17.5 -10.5q5 -4 6.5 -7.5t1.5 -8.5q0 -8 -9 -27q-18 -36 -38 -48t-42 -12q-15 0 -28 2.5t-30 10.5z" />
    <glyph glyph-name="Odieresis" unicode="&#xd6;" horiz-adv-x="753" 
d="M716 342q0 -76 -20.5 -140t-62.5 -110.5t-106 -73t-151 -26.5q-84 0 -147 25t-106 70.5t-64.5 109.5t-21.5 142q0 76 20.5 140t62 110.5t105.5 73t151 26.5q84 0 147.5 -25t106.5 -70.5t64.5 -109.5t21.5 -142zM547 340q0 118 -44 175t-127 57q-79 0 -124.5 -56.5
t-45.5 -174.5q0 -115 42 -174t128 -59q83 0 127 59t44 173zM338 802q0 -32 -16.5 -46t-47.5 -14q-30 0 -47 14.5t-17 46.5q0 59 64 59q30 0 47 -14t17 -46zM540 802q0 -32 -16.5 -46t-47.5 -14q-30 0 -47 14.5t-17 46.5q0 59 64 59q30 0 47 -14t17 -46z" />
    <glyph glyph-name="multiply" unicode="&#xd7;" 
d="M490 129q-12 -12 -22 -12q-6 0 -10.5 3t-10.5 9l-128 128q-6 6 -12 6q-5 0 -11 -6l-126 -128q-5 -5 -10 -8.5t-12 -3.5q-10 0 -20 10l-26 26q-10 10 -10 20q0 11 11 22l128 128q6 6 6 11q0 6 -6 11l-133 132q-6 6 -6 16t12 22l23 23q11 11 21 11q11 0 23 -12l125 -125
q7 -7 12 -7q6 0 13 7l125 126q12 12 22 12q6 0 10.5 -3t9.5 -8l26 -26q10 -10 10 -19q0 -11 -12 -23l-126 -126q-6 -6 -6 -11t6 -11l127 -127q11 -11 11 -22t-11 -22z" />
    <glyph glyph-name="Oslash" unicode="&#xd8;" horiz-adv-x="753" 
d="M716 343q0 -14 -2 -46t-11.5 -71t-30.5 -80.5t-59 -75.5t-96.5 -56t-142.5 -22q-34 0 -60 3.5t-44.5 8t-30 8.5t-15.5 4q-6 0 -11 -8l-21 -37q-8 -12 -16 -12q-7 0 -13 3l-20 11q-9 4 -9 13q0 7 7 18l17 29q5 9 5 15t-19.5 20.5t-43.5 46.5t-43.5 85.5t-19.5 137.5
q0 14 2 46t11.5 71t30.5 80.5t59 75.5t96 56t142 22q36 0 62 -4t43.5 -8.5t28 -8.5t15.5 -4q8 0 13 8l21 37q5 8 8 10.5t8 2.5q6 0 13 -4l21 -12q8 -4 8 -13q0 -6 -7 -17l-17 -28q-5 -8 -5 -16q0 -5 19.5 -20t43.5 -47.5t43.5 -86t19.5 -135.5zM549 340q0 38 -4.5 67.5
t-11 50t-13 31t-10.5 10.5t-11 -11l-202 -339q-5 -8 -5 -13q0 -11 24.5 -19.5t57.5 -8.5q89 0 132 62.5t43 169.5zM460 545q0 10 -24 18.5t-59 8.5q-89 0 -131.5 -62.5t-42.5 -168.5q0 -35 4 -64.5t10 -50.5t12.5 -32.5t12.5 -11.5q5 0 11 11l202 338q5 9 5 14z" />
    <glyph glyph-name="Ugrave" unicode="&#xd9;" horiz-adv-x="707" 
d="M642 242q0 -133 -69.5 -195.5t-222.5 -62.5t-219 61t-66 179v438q0 18 18 18h128q17 0 17 -18v-404q0 -72 30.5 -109.5t108.5 -37.5q76 0 107.5 36t31.5 107v408q0 18 17 18h101q18 0 18 -18v-420zM476 776q0 -5 -2.5 -11t-10.5 -19q-8 -12 -16 -12q-5 0 -10 1.5t-16 6.5
l-164 79q-19 9 -19 24q0 9 8 22l17 27q8 12 13 15.5t12 3.5t13.5 -3.5t19.5 -12.5l145 -104q10 -7 10 -17z" />
    <glyph glyph-name="Uacute" unicode="&#xda;" horiz-adv-x="707" 
d="M642 242q0 -133 -69.5 -195.5t-222.5 -62.5t-219 61t-66 179v438q0 18 18 18h128q17 0 17 -18v-404q0 -72 30.5 -109.5t108.5 -37.5q76 0 107.5 36t31.5 107v408q0 18 17 18h101q18 0 18 -18v-420zM257 776q0 10 10 17l145 104q13 9 19.5 12.5t13.5 3.5t12 -3.5t13 -15.5
l17 -27q8 -13 8 -22q0 -15 -19 -24l-164 -79q-11 -5 -16 -6.5t-10 -1.5q-8 0 -16 12q-8 13 -10.5 19t-2.5 11z" />
    <glyph glyph-name="Ucircumflex" unicode="&#xdb;" horiz-adv-x="707" 
d="M642 242q0 -133 -69.5 -195.5t-222.5 -62.5t-219 61t-66 179v438q0 18 18 18h128q17 0 17 -18v-404q0 -72 30.5 -109.5t108.5 -37.5q76 0 107.5 36t31.5 107v408q0 18 17 18h101q18 0 18 -18v-420zM531 780q0 -4 -4 -11l-14 -23q-5 -8 -12 -8q-5 0 -17 5l-110 59
q-8 4 -13 4t-13 -4l-110 -59q-12 -5 -17 -5q-7 0 -12 8l-14 23q-4 7 -4 11t1.5 7t8.5 8l127 93q12 9 19 12.5t14 3.5t14 -3.5t19 -12.5l127 -93q7 -5 8.5 -8t1.5 -7z" />
    <glyph glyph-name="Udieresis" unicode="&#xdc;" horiz-adv-x="707" 
d="M642 242q0 -133 -69.5 -195.5t-222.5 -62.5t-219 61t-66 179v438q0 18 18 18h128q17 0 17 -18v-404q0 -72 30.5 -109.5t108.5 -37.5q76 0 107.5 36t31.5 107v408q0 18 17 18h101q18 0 18 -18v-420zM322 802q0 -32 -16.5 -46t-47.5 -14q-30 0 -47 14.5t-17 46.5
q0 59 64 59q30 0 47 -14t17 -46zM524 802q0 -32 -16.5 -46t-47.5 -14q-30 0 -47 14.5t-17 46.5q0 59 64 59q30 0 47 -14t17 -46z" />
    <glyph glyph-name="Yacute" unicode="&#xdd;" horiz-adv-x="603" 
d="M601 669q0 -6 -7 -19l-195 -348q-8 -14 -9.5 -23.5t-1.5 -25.5v-235q0 -18 -18 -18h-128q-18 0 -18 18v215q0 20 -2 28.5t-11 25.5l-201 362q-8 15 -8 20q0 11 14 11h137q16 0 24 -15l130 -251q5 -10 12 -10q6 0 11 10l131 251q5 9 10 12t15 3h102q13 0 13 -11zM206 776
q0 10 10 17l145 104q13 9 19.5 12.5t13.5 3.5t12 -3.5t13 -15.5l17 -27q8 -13 8 -22q0 -15 -19 -24l-164 -79q-11 -5 -16 -6.5t-10 -1.5q-8 0 -16 12q-8 13 -10.5 19t-2.5 11z" />
    <glyph glyph-name="Thorn" unicode="&#xde;" horiz-adv-x="629" 
d="M595 386q0 -59 -24.5 -110t-71.5 -77q-29 -17 -67.5 -24.5t-98.5 -7.5h-87q-13 0 -13 -12v-137q0 -18 -17 -18h-130q-17 0 -17 18v644q0 18 17 18h130q17 0 17 -18v-63q0 -12 12 -12h98q36 0 63 -2t47.5 -6t36.5 -11t30 -16q37 -26 56 -70.5t19 -95.5zM426 381
q0 59 -26 84.5t-83 25.5h-72q-12 0 -12 -13v-203q0 -12 13 -12h69q51 0 81 27t30 91z" />
    <glyph glyph-name="germandbls" unicode="&#xdf;" horiz-adv-x="664" 
d="M636 155q0 -35 -12.5 -65t-38 -51.5t-63 -34t-86.5 -12.5q-92 0 -142 22q-16 7 -21 14t-5 17v66q0 17 15 17q4 0 14 -5.5t27 -12t42.5 -12t62.5 -5.5q35 0 49.5 9.5t14.5 29.5q0 13 -8.5 23t-37.5 27l-66 38q-27 15 -46.5 29.5t-31.5 31t-18 36t-6 45.5q0 50 21 80t64 53
q20 11 33 19.5t21 17t11 18t3 22.5q0 31 -23 47t-79 16q-63 0 -88 -30t-25 -92v-495q0 -18 -17 -18h-118q-18 0 -18 18v489q0 59 18.5 100.5t53 67.5t83 38t107.5 12q69 0 117 -11.5t78 -30.5t43.5 -44.5t13.5 -52.5q0 -31 -7 -52.5t-19.5 -37t-31 -27t-41.5 -23.5
q-18 -9 -29.5 -16t-18 -13t-8.5 -13t-2 -17q0 -14 9.5 -23t33.5 -23l65 -37q61 -35 84 -69t23 -80z" />
    <glyph glyph-name="agrave" unicode="&#xe0;" horiz-adv-x="557" 
d="M493 18q0 -18 -19 -18h-112q-11 0 -11 10t-10 10q-9 0 -20.5 -4.5t-27.5 -9.5t-38 -9.5t-51 -4.5q-52 0 -85 14t-52 35.5t-26 48.5t-7 54q0 35 9 61.5t28.5 47t50 35.5t73.5 28l116 35q20 6 26.5 11.5t6.5 16.5v9q0 16 -20 26.5t-72 10.5q-42 0 -70.5 -6.5t-48 -14.5
t-31 -14.5t-18.5 -6.5q-15 0 -15 16v71q0 10 6 17t26 15q31 12 76.5 18.5t95.5 6.5q69 0 113 -14t67 -38q10 -11 18 -23t12.5 -27.5t7 -35t2.5 -46.5v-325zM344 252q0 10 -8 10q-3 0 -9 -1.5t-20 -6.5l-46 -17q-36 -14 -53.5 -30.5t-17.5 -47.5q0 -33 17 -49t55 -16
q34 0 58 12.5t24 43.5v102zM390 595q0 -5 -2.5 -11t-10.5 -19q-8 -12 -16 -12q-5 0 -10 1.5t-16 6.5l-164 79q-19 9 -19 24q0 9 8 22l17 27q8 12 13 15.5t12 3.5t13.5 -3.5t19.5 -12.5l145 -104q10 -7 10 -17z" />
    <glyph glyph-name="aacute" unicode="&#xe1;" horiz-adv-x="557" 
d="M493 18q0 -18 -19 -18h-112q-11 0 -11 10t-10 10q-9 0 -20.5 -4.5t-27.5 -9.5t-38 -9.5t-51 -4.5q-52 0 -85 14t-52 35.5t-26 48.5t-7 54q0 35 9 61.5t28.5 47t50 35.5t73.5 28l116 35q20 6 26.5 11.5t6.5 16.5v9q0 16 -20 26.5t-72 10.5q-42 0 -70.5 -6.5t-48 -14.5
t-31 -14.5t-18.5 -6.5q-15 0 -15 16v71q0 10 6 17t26 15q31 12 76.5 18.5t95.5 6.5q69 0 113 -14t67 -38q10 -11 18 -23t12.5 -27.5t7 -35t2.5 -46.5v-325zM344 252q0 10 -8 10q-3 0 -9 -1.5t-20 -6.5l-46 -17q-36 -14 -53.5 -30.5t-17.5 -47.5q0 -33 17 -49t55 -16
q34 0 58 12.5t24 43.5v102zM164 595q0 10 10 17l145 104q13 9 19.5 12.5t13.5 3.5t12 -3.5t13 -15.5l17 -27q8 -13 8 -22q0 -15 -19 -24l-164 -79q-11 -5 -16 -6.5t-10 -1.5q-8 0 -16 12q-8 13 -10.5 19t-2.5 11z" />
    <glyph glyph-name="acircumflex" unicode="&#xe2;" horiz-adv-x="557" 
d="M493 18q0 -18 -19 -18h-112q-11 0 -11 10t-10 10q-9 0 -20.5 -4.5t-27.5 -9.5t-38 -9.5t-51 -4.5q-52 0 -85 14t-52 35.5t-26 48.5t-7 54q0 35 9 61.5t28.5 47t50 35.5t73.5 28l116 35q20 6 26.5 11.5t6.5 16.5v9q0 16 -20 26.5t-72 10.5q-42 0 -70.5 -6.5t-48 -14.5
t-31 -14.5t-18.5 -6.5q-15 0 -15 16v71q0 10 6 17t26 15q31 12 76.5 18.5t95.5 6.5q69 0 113 -14t67 -38q10 -11 18 -23t12.5 -27.5t7 -35t2.5 -46.5v-325zM344 252q0 10 -8 10q-3 0 -9 -1.5t-20 -6.5l-46 -17q-36 -14 -53.5 -30.5t-17.5 -47.5q0 -33 17 -49t55 -16
q34 0 58 12.5t24 43.5v102zM452 599q0 -4 -4 -11l-14 -23q-5 -8 -12 -8q-5 0 -17 5l-110 59q-8 4 -13 4t-13 -4l-110 -59q-12 -5 -17 -5q-7 0 -12 8l-14 23q-4 7 -4 11t1.5 7t8.5 8l127 93q12 9 19 12.5t14 3.5t14 -3.5t19 -12.5l127 -93q7 -5 8.5 -8t1.5 -7z" />
    <glyph glyph-name="atilde" unicode="&#xe3;" horiz-adv-x="557" 
d="M493 18q0 -18 -19 -18h-112q-11 0 -11 10t-10 10q-9 0 -20.5 -4.5t-27.5 -9.5t-38 -9.5t-51 -4.5q-52 0 -85 14t-52 35.5t-26 48.5t-7 54q0 35 9 61.5t28.5 47t50 35.5t73.5 28l116 35q20 6 26.5 11.5t6.5 16.5v9q0 16 -20 26.5t-72 10.5q-42 0 -70.5 -6.5t-48 -14.5
t-31 -14.5t-18.5 -6.5q-15 0 -15 16v71q0 10 6 17t26 15q31 12 76.5 18.5t95.5 6.5q69 0 113 -14t67 -38q10 -11 18 -23t12.5 -27.5t7 -35t2.5 -46.5v-325zM344 252q0 10 -8 10q-3 0 -9 -1.5t-20 -6.5l-46 -17q-36 -14 -53.5 -30.5t-17.5 -47.5q0 -33 17 -49t55 -16
q34 0 58 12.5t24 43.5v102zM250 616q-13 6 -19 8t-14 2q-17 0 -29 -16l-7 -10q-5 -7 -8.5 -10t-9.5 -3q-3 0 -9.5 2.5t-17.5 10.5q-5 4 -6.5 7.5t-1.5 8.5q0 7 9 27q18 36 38 48t42 12q15 0 27.5 -3t33.5 -13l32 -16q23 -11 37 -11q16 0 29 17l7 10q5 7 8.5 10t9.5 3
q3 0 9.5 -2.5t17.5 -10.5q5 -4 6.5 -7.5t1.5 -8.5q0 -8 -9 -27q-18 -36 -38 -48t-42 -12q-15 0 -28 2.5t-30 10.5z" />
    <glyph glyph-name="adieresis" unicode="&#xe4;" horiz-adv-x="557" 
d="M493 18q0 -18 -19 -18h-112q-11 0 -11 10t-10 10q-9 0 -20.5 -4.5t-27.5 -9.5t-38 -9.5t-51 -4.5q-52 0 -85 14t-52 35.5t-26 48.5t-7 54q0 35 9 61.5t28.5 47t50 35.5t73.5 28l116 35q20 6 26.5 11.5t6.5 16.5v9q0 16 -20 26.5t-72 10.5q-42 0 -70.5 -6.5t-48 -14.5
t-31 -14.5t-18.5 -6.5q-15 0 -15 16v71q0 10 6 17t26 15q31 12 76.5 18.5t95.5 6.5q69 0 113 -14t67 -38q10 -11 18 -23t12.5 -27.5t7 -35t2.5 -46.5v-325zM344 252q0 10 -8 10q-3 0 -9 -1.5t-20 -6.5l-46 -17q-36 -14 -53.5 -30.5t-17.5 -47.5q0 -33 17 -49t55 -16
q34 0 58 12.5t24 43.5v102zM245 641q0 -32 -16.5 -46t-47.5 -14q-30 0 -47 14.5t-17 46.5q0 59 64 59q30 0 47 -14t17 -46zM447 641q0 -32 -16.5 -46t-47.5 -14q-30 0 -47 14.5t-17 46.5q0 59 64 59q30 0 47 -14t17 -46z" />
    <glyph glyph-name="aring" unicode="&#xe5;" horiz-adv-x="557" 
d="M493 18q0 -18 -19 -18h-112q-11 0 -11 10t-10 10q-9 0 -20.5 -4.5t-27.5 -9.5t-38 -9.5t-51 -4.5q-52 0 -85 14t-52 35.5t-26 48.5t-7 54q0 35 9 61.5t28.5 47t50 35.5t73.5 28l116 35q20 6 26.5 11.5t6.5 16.5v9q0 16 -20 26.5t-72 10.5q-42 0 -70.5 -6.5t-48 -14.5
t-31 -14.5t-18.5 -6.5q-15 0 -15 16v71q0 10 6 17t26 15q31 12 76.5 18.5t95.5 6.5q69 0 113 -14t67 -38q10 -11 18 -23t12.5 -27.5t7 -35t2.5 -46.5v-325zM344 252q0 10 -8 10q-3 0 -9 -1.5t-20 -6.5l-46 -17q-36 -14 -53.5 -30.5t-17.5 -47.5q0 -33 17 -49t55 -16
q34 0 58 12.5t24 43.5v102zM368 640q0 -42 -21.5 -61.5t-62.5 -19.5q-42 0 -64 18.5t-22 58.5q0 38 22 58t62 20t63 -19.5t23 -54.5zM316 634q0 36 -32 36q-34 0 -34 -34q0 -33 32 -33q34 0 34 31z" />
    <glyph glyph-name="ae" unicode="&#xe6;" horiz-adv-x="869" 
d="M835 248q0 -18 -18 -18h-312q-15 0 -15 -15q0 -65 40.5 -93.5t108.5 -28.5q36 0 62.5 6t44.5 12.5t28.5 12.5t14.5 6q9 0 12 -5.5t3 -11.5v-64q0 -11 -5 -19.5t-22 -16.5q-14 -6 -33 -10t-39.5 -7t-41 -4t-38.5 -1q-53 0 -88.5 9.5t-57.5 21t-33.5 21t-17.5 9.5
q-10 0 -22.5 -9.5t-35 -20.5t-58.5 -20.5t-94 -9.5q-95 0 -138.5 38.5t-43.5 113.5q0 36 9.5 62.5t29 46.5t50 35t72.5 28l115 35q22 7 28 12.5t6 15.5v5q0 21 -20.5 31t-74.5 10q-42 0 -70.5 -6.5t-47 -14.5t-29.5 -14.5t-19 -6.5q-14 0 -14 16v73q0 9 6 15.5t21 12.5
q32 13 75 20t96 7q49 0 79 -7.5t48 -17t27 -17t15 -7.5q4 0 15.5 7.5t31 17t47.5 17t65 7.5q55 0 99 -14.5t75 -45.5t47.5 -79.5t16.5 -115.5v-24zM682 337q0 48 -26 72.5t-74 24.5q-45 0 -70 -27.5t-25 -72.5q0 -11 12 -11h171q7 0 9.5 2.5t2.5 11.5zM346 252q0 10 -8 10
q-3 0 -7.5 -1t-9.5 -3l-58 -21q-38 -14 -54.5 -31.5t-16.5 -46.5q0 -35 18 -50t58 -15q31 0 54.5 13.5t23.5 39.5v105z" />
    <glyph glyph-name="ccedilla" unicode="&#xe7;" horiz-adv-x="519" 
d="M378 -106q0 -40 -32 -62.5t-88 -22.5q-22 0 -34.5 3.5t-12.5 15.5v19q0 16 25 16q30 0 46 6.5t16 30.5q0 15 -9.5 23t-20.5 10q-15 3 -15 17v28q0 15 -10 18q-102 14 -155.5 79.5t-53.5 178.5q0 127 71 200t211 73q41 0 80.5 -7t59.5 -16q14 -6 17.5 -11.5t3.5 -17.5v-75
q0 -16 -14 -16q-9 0 -17.5 5.5t-22 11.5t-34 11.5t-53.5 5.5q-142 0 -142 -164q0 -81 37 -117t98 -36q34 0 56.5 5.5t37.5 12t24 12t16 5.5q8 0 11 -5t3 -12v-74q0 -20 -23 -30q-23 -11 -60.5 -16t-73.5 -7q-5 -1 -5 -11q0 -6 5 -9t17 -8q20 -8 30.5 -24.5t10.5 -45.5z" />
    <glyph glyph-name="egrave" unicode="&#xe8;" horiz-adv-x="573" 
d="M539 247q0 -18 -18 -18h-312q-15 0 -15 -15q0 -57 36.5 -89t112.5 -32q36 0 62.5 6t44.5 12.5t28 12.5t15 6q15 0 15 -17v-67q0 -20 -22 -30q-28 -12 -67 -18.5t-96 -6.5q-147 0 -218 69t-71 194q0 73 19.5 125t54 85t81.5 48t102 15q70 0 117.5 -19.5t76.5 -53
t41.5 -79.5t12.5 -99v-29zM386 336q0 45 -25 71t-74 26q-46 0 -71 -27.5t-25 -72.5q0 -5 2 -8t10 -3h171q8 0 10 2.5t2 11.5zM408 595q0 -5 -2.5 -11t-10.5 -19q-8 -12 -16 -12q-5 0 -10 1.5t-16 6.5l-164 79q-19 9 -19 24q0 9 8 22l17 27q8 12 13 15.5t12 3.5t13.5 -3.5
t19.5 -12.5l145 -104q10 -7 10 -17z" />
    <glyph glyph-name="eacute" unicode="&#xe9;" horiz-adv-x="573" 
d="M539 247q0 -18 -18 -18h-312q-15 0 -15 -15q0 -57 36.5 -89t112.5 -32q36 0 62.5 6t44.5 12.5t28 12.5t15 6q15 0 15 -17v-67q0 -20 -22 -30q-28 -12 -67 -18.5t-96 -6.5q-147 0 -218 69t-71 194q0 73 19.5 125t54 85t81.5 48t102 15q70 0 117.5 -19.5t76.5 -53
t41.5 -79.5t12.5 -99v-29zM386 336q0 45 -25 71t-74 26q-46 0 -71 -27.5t-25 -72.5q0 -5 2 -8t10 -3h171q8 0 10 2.5t2 11.5zM186 595q0 10 10 17l145 104q13 9 19.5 12.5t13.5 3.5t12 -3.5t13 -15.5l17 -27q8 -13 8 -22q0 -15 -19 -24l-164 -79q-11 -5 -16 -6.5t-10 -1.5
q-8 0 -16 12q-8 13 -10.5 19t-2.5 11z" />
    <glyph glyph-name="ecircumflex" unicode="&#xea;" horiz-adv-x="573" 
d="M539 247q0 -18 -18 -18h-312q-15 0 -15 -15q0 -57 36.5 -89t112.5 -32q36 0 62.5 6t44.5 12.5t28 12.5t15 6q15 0 15 -17v-67q0 -20 -22 -30q-28 -12 -67 -18.5t-96 -6.5q-147 0 -218 69t-71 194q0 73 19.5 125t54 85t81.5 48t102 15q70 0 117.5 -19.5t76.5 -53
t41.5 -79.5t12.5 -99v-29zM386 336q0 45 -25 71t-74 26q-46 0 -71 -27.5t-25 -72.5q0 -5 2 -8t10 -3h171q8 0 10 2.5t2 11.5zM465 599q0 -4 -4 -11l-14 -23q-5 -8 -12 -8q-5 0 -17 5l-110 59q-8 4 -13 4t-13 -4l-110 -59q-12 -5 -17 -5q-7 0 -12 8l-14 23q-4 7 -4 11t1.5 7
t8.5 8l127 93q12 9 19 12.5t14 3.5t14 -3.5t19 -12.5l127 -93q7 -5 8.5 -8t1.5 -7z" />
    <glyph glyph-name="edieresis" unicode="&#xeb;" horiz-adv-x="573" 
d="M539 247q0 -18 -18 -18h-312q-15 0 -15 -15q0 -57 36.5 -89t112.5 -32q36 0 62.5 6t44.5 12.5t28 12.5t15 6q15 0 15 -17v-67q0 -20 -22 -30q-28 -12 -67 -18.5t-96 -6.5q-147 0 -218 69t-71 194q0 73 19.5 125t54 85t81.5 48t102 15q70 0 117.5 -19.5t76.5 -53
t41.5 -79.5t12.5 -99v-29zM386 336q0 45 -25 71t-74 26q-46 0 -71 -27.5t-25 -72.5q0 -5 2 -8t10 -3h171q8 0 10 2.5t2 11.5zM257 641q0 -32 -16.5 -46t-47.5 -14q-30 0 -47 14.5t-17 46.5q0 59 64 59q30 0 47 -14t17 -46zM459 641q0 -32 -16.5 -46t-47.5 -14
q-30 0 -47 14.5t-17 46.5q0 59 64 59q30 0 47 -14t17 -46z" />
    <glyph glyph-name="igrave" unicode="&#xec;" horiz-adv-x="283" 
d="M218 18q0 -18 -17 -18h-118q-18 0 -18 18v482q0 8 3.5 13t14.5 5h118q17 0 17 -19v-481zM253 595q0 -5 -2.5 -11t-10.5 -19q-8 -12 -16 -12q-5 0 -10 1.5t-16 6.5l-164 79q-19 9 -19 24q0 9 8 22l17 27q8 12 13 15.5t12 3.5t13.5 -3.5t19.5 -12.5l145 -104q10 -7 10 -17z
" />
    <glyph glyph-name="iacute" unicode="&#xed;" horiz-adv-x="283" 
d="M218 18q0 -18 -17 -18h-118q-18 0 -18 18v482q0 8 3.5 13t14.5 5h118q17 0 17 -19v-481zM38 595q0 10 10 17l145 104q13 9 19.5 12.5t13.5 3.5t12 -3.5t13 -15.5l17 -27q8 -13 8 -22q0 -15 -19 -24l-164 -79q-11 -5 -16 -6.5t-10 -1.5q-8 0 -16 12q-8 13 -10.5 19
t-2.5 11z" />
    <glyph glyph-name="icircumflex" unicode="&#xee;" horiz-adv-x="283" 
d="M218 18q0 -18 -17 -18h-118q-18 0 -18 18v482q0 8 3.5 13t14.5 5h118q17 0 17 -19v-481zM314 599q0 -4 -4 -11l-14 -23q-5 -8 -12 -8q-5 0 -17 5l-110 59q-8 4 -13 4t-13 -4l-110 -59q-12 -5 -17 -5q-7 0 -12 8l-14 23q-4 7 -4 11t1.5 7t8.5 8l127 93q12 9 19 12.5
t14 3.5t14 -3.5t19 -12.5l127 -93q7 -5 8.5 -8t1.5 -7z" />
    <glyph glyph-name="idieresis" unicode="&#xef;" horiz-adv-x="283" 
d="M218 18q0 -18 -17 -18h-118q-18 0 -18 18v482q0 8 3.5 13t14.5 5h118q17 0 17 -19v-481zM108 641q0 -32 -16.5 -46t-47.5 -14q-30 0 -47 14.5t-17 46.5q0 59 64 59q30 0 47 -14t17 -46zM310 641q0 -32 -16.5 -46t-47.5 -14q-30 0 -47 14.5t-17 46.5q0 59 64 59
q30 0 47 -14t17 -46z" />
    <glyph glyph-name="eth" unicode="&#xf0;" horiz-adv-x="603" 
d="M567 337q0 -98 -19 -164t-54.5 -106t-87 -57.5t-115.5 -17.5q-68 0 -117 20t-80 55.5t-45.5 83t-14.5 103.5q0 58 16.5 106.5t48 83t76 53.5t101.5 19q40 0 66.5 -9t42 -20.5t22.5 -20.5t10 -9q4 0 4 8q0 22 -6.5 45t-16.5 41.5t-22 30t-22 11.5q-6 0 -13 -5l-54 -35
q-11 -7 -18 -7q-6 0 -9 2.5t-6 7.5l-17 26q-4 8 -4 13q0 7 13 16l15 9q8 5 10 7t2 5q0 5 -15 8t-37 3q-47 0 -70 -8t-29 -8q-13 0 -13 17v54q0 14 38 25.5t95 11.5q38 0 63.5 -4t41.5 -9.5t25 -9.5t15 -4q5 0 9.5 2t11.5 7l48 32q10 7 17 7q11 0 16 -9l21 -35q4 -7 4 -12
q0 -9 -13 -17l-24 -15q-9 -5 -9 -10q0 -6 15.5 -21t34 -49.5t34 -94.5t15.5 -156zM410 266q0 28 -5.5 56t-18 50t-33.5 35.5t-52 13.5q-33 0 -54 -14t-33 -37.5t-16.5 -54t-4.5 -63.5q0 -32 4 -61.5t16 -52t33.5 -35.5t55.5 -13q32 0 53 12.5t33 36t17 56t5 71.5z" />
    <glyph glyph-name="ntilde" unicode="&#xf1;" horiz-adv-x="608" 
d="M546 18q0 -18 -18 -18h-118q-17 0 -17 18v285q0 31 -3.5 50.5t-14.5 33.5q-22 28 -71 28q-15 0 -30 -2.5t-27 -9t-20 -17t-8 -26.5v-342q0 -18 -17 -18h-118q-18 0 -18 18v482q0 18 18 18h116q14 0 14 -13q0 -3 1.5 -5t9.5 -2q11 0 24 4.5t29.5 10t37.5 10t48 4.5
q44 0 81 -12t62 -39t32 -64.5t7 -100.5v-293zM277 616q-13 6 -19 8t-14 2q-17 0 -29 -16l-7 -10q-5 -7 -8.5 -10t-9.5 -3q-3 0 -9.5 2.5t-17.5 10.5q-5 4 -6.5 7.5t-1.5 8.5q0 7 9 27q18 36 38 48t42 12q15 0 27.5 -3t33.5 -13l32 -16q23 -11 37 -11q16 0 29 17l7 10
q5 7 8.5 10t9.5 3q3 0 9.5 -2.5t17.5 -10.5q5 -4 6.5 -7.5t1.5 -8.5q0 -8 -9 -27q-18 -36 -38 -48t-42 -12q-15 0 -28 2.5t-30 10.5z" />
    <glyph glyph-name="ograve" unicode="&#xf2;" horiz-adv-x="607" 
d="M573 261q0 -59 -16.5 -108.5t-50 -85.5t-84 -56t-119.5 -20q-66 0 -116.5 19t-84.5 53.5t-51 84t-17 109.5q0 58 16.5 107.5t50 85.5t84 56.5t119.5 20.5q66 0 116.5 -19t84 -53.5t51 -84t17.5 -109.5zM413 263q0 89 -27 125t-83 36q-55 0 -82 -38.5t-27 -130.5
q0 -88 26.5 -124.5t83.5 -36.5q54 0 81.5 38t27.5 131zM410 595q0 -5 -2.5 -11t-10.5 -19q-8 -12 -16 -12q-5 0 -10 1.5t-16 6.5l-164 79q-19 9 -19 24q0 9 8 22l17 27q8 12 13 15.5t12 3.5t13.5 -3.5t19.5 -12.5l145 -104q10 -7 10 -17z" />
    <glyph glyph-name="oacute" unicode="&#xf3;" horiz-adv-x="607" 
d="M573 261q0 -59 -16.5 -108.5t-50 -85.5t-84 -56t-119.5 -20q-66 0 -116.5 19t-84.5 53.5t-51 84t-17 109.5q0 58 16.5 107.5t50 85.5t84 56.5t119.5 20.5q66 0 116.5 -19t84 -53.5t51 -84t17.5 -109.5zM413 263q0 89 -27 125t-83 36q-55 0 -82 -38.5t-27 -130.5
q0 -88 26.5 -124.5t83.5 -36.5q54 0 81.5 38t27.5 131zM184 595q0 10 10 17l145 104q13 9 19.5 12.5t13.5 3.5t12 -3.5t13 -15.5l17 -27q8 -13 8 -22q0 -15 -19 -24l-164 -79q-11 -5 -16 -6.5t-10 -1.5q-8 0 -16 12q-8 13 -10.5 19t-2.5 11z" />
    <glyph glyph-name="ocircumflex" unicode="&#xf4;" horiz-adv-x="607" 
d="M573 261q0 -59 -16.5 -108.5t-50 -85.5t-84 -56t-119.5 -20q-66 0 -116.5 19t-84.5 53.5t-51 84t-17 109.5q0 58 16.5 107.5t50 85.5t84 56.5t119.5 20.5q66 0 116.5 -19t84 -53.5t51 -84t17.5 -109.5zM413 263q0 89 -27 125t-83 36q-55 0 -82 -38.5t-27 -130.5
q0 -88 26.5 -124.5t83.5 -36.5q54 0 81.5 38t27.5 131zM473 599q0 -4 -4 -11l-14 -23q-5 -8 -12 -8q-5 0 -17 5l-110 59q-8 4 -13 4t-13 -4l-110 -59q-12 -5 -17 -5q-7 0 -12 8l-14 23q-4 7 -4 11t1.5 7t8.5 8l127 93q12 9 19 12.5t14 3.5t14 -3.5t19 -12.5l127 -93
q7 -5 8.5 -8t1.5 -7z" />
    <glyph glyph-name="otilde" unicode="&#xf5;" horiz-adv-x="607" 
d="M573 261q0 -59 -16.5 -108.5t-50 -85.5t-84 -56t-119.5 -20q-66 0 -116.5 19t-84.5 53.5t-51 84t-17 109.5q0 58 16.5 107.5t50 85.5t84 56.5t119.5 20.5q66 0 116.5 -19t84 -53.5t51 -84t17.5 -109.5zM413 263q0 89 -27 125t-83 36q-55 0 -82 -38.5t-27 -130.5
q0 -88 26.5 -124.5t83.5 -36.5q54 0 81.5 38t27.5 131zM271 616q-13 6 -19 8t-14 2q-17 0 -29 -16l-7 -10q-5 -7 -8.5 -10t-9.5 -3q-3 0 -9.5 2.5t-17.5 10.5q-5 4 -6.5 7.5t-1.5 8.5q0 7 9 27q18 36 38 48t42 12q15 0 27.5 -3t33.5 -13l32 -16q23 -11 37 -11q16 0 29 17
l7 10q5 7 8.5 10t9.5 3q3 0 9.5 -2.5t17.5 -10.5q5 -4 6.5 -7.5t1.5 -8.5q0 -8 -9 -27q-18 -36 -38 -48t-42 -12q-15 0 -28 2.5t-30 10.5z" />
    <glyph glyph-name="odieresis" unicode="&#xf6;" horiz-adv-x="607" 
d="M573 261q0 -59 -16.5 -108.5t-50 -85.5t-84 -56t-119.5 -20q-66 0 -116.5 19t-84.5 53.5t-51 84t-17 109.5q0 58 16.5 107.5t50 85.5t84 56.5t119.5 20.5q66 0 116.5 -19t84 -53.5t51 -84t17.5 -109.5zM413 263q0 89 -27 125t-83 36q-55 0 -82 -38.5t-27 -130.5
q0 -88 26.5 -124.5t83.5 -36.5q54 0 81.5 38t27.5 131zM266 641q0 -32 -16.5 -46t-47.5 -14q-30 0 -47 14.5t-17 46.5q0 59 64 59q30 0 47 -14t17 -46zM468 641q0 -32 -16.5 -46t-47.5 -14q-30 0 -47 14.5t-17 46.5q0 59 64 59q30 0 47 -14t17 -46z" />
    <glyph glyph-name="divide" unicode="&#xf7;" 
d="M384 524q0 -34 -22.5 -55.5t-54.5 -21.5t-54.5 21.5t-22.5 55.5q0 36 22 56.5t55 20.5q32 0 54.5 -20.5t22.5 -56.5zM384 144q0 -35 -22.5 -56t-54.5 -21t-54.5 21t-22.5 56q0 34 22 55.5t55 21.5q32 0 54.5 -20.5t22.5 -56.5zM95 288q-31 0 -31 29v33q0 30 31 30h425
q31 0 31 -30v-33q0 -29 -31 -29h-425z" />
    <glyph glyph-name="oslash" unicode="&#xf8;" horiz-adv-x="607" 
d="M573 261q0 -49 -13 -97t-44.5 -86.5t-83.5 -62.5t-130 -24q-27 0 -46.5 2.5t-33 6t-21.5 6t-13 2.5q-6 0 -11 -9l-20 -34q-7 -13 -16 -13q-7 0 -11 3l-19 10q-8 4 -8 14q0 4 6 15l17 28q6 9 6 14q0 6 -15.5 16.5t-33.5 34.5t-33.5 64.5t-15.5 105.5q0 49 13 97.5
t44.5 86.5t83.5 62t130 24q28 0 48 -2.5t33 -6t20.5 -6t10.5 -2.5q6 0 12 9l21 34q8 13 16 13q6 0 11 -3l19 -10q9 -5 9 -14q0 -5 -7 -15l-18 -28q-5 -8 -5 -14q0 -4 15.5 -15t33.5 -35.5t33.5 -65.5t15.5 -105zM359 408q0 5 -14.5 11t-41.5 6q-25 0 -45.5 -8t-35.5 -27.5
t-23.5 -52t-8.5 -82.5q0 -45 5.5 -68.5t12.5 -23.5q2 0 4.5 2t6.5 9l135 221q5 8 5 13zM417 263q0 42 -5 67t-13 25q-2 0 -4.5 -2t-6.5 -9l-135 -221q-5 -9 -5 -13q0 -6 15 -11.5t41 -5.5q25 0 45.5 8t35.5 27.5t23.5 52t8.5 82.5z" />
    <glyph glyph-name="ugrave" unicode="&#xf9;" horiz-adv-x="604" 
d="M540 18q0 -18 -18 -18h-116q-9 0 -11.5 4t-2.5 9q0 3 -1.5 5t-8.5 2q-12 0 -24 -4.5t-27.5 -9.5t-37 -9.5t-52.5 -4.5q-44 0 -81 11.5t-62 38.5q-13 14 -20.5 29.5t-11.5 35t-5 44t-1 56.5v293q0 18 18 18h118q17 0 17 -18v-300q0 -51 20 -74t69 -23q13 0 28 2.5t26 7.5
q31 14 31 49v338q0 18 17 18h118q18 0 18 -18v-482zM410 595q0 -5 -2.5 -11t-10.5 -19q-8 -12 -16 -12q-5 0 -10 1.5t-16 6.5l-164 79q-19 9 -19 24q0 9 8 22l17 27q8 12 13 15.5t12 3.5t13.5 -3.5t19.5 -12.5l145 -104q10 -7 10 -17z" />
    <glyph glyph-name="uacute" unicode="&#xfa;" horiz-adv-x="604" 
d="M540 18q0 -18 -18 -18h-116q-9 0 -11.5 4t-2.5 9q0 3 -1.5 5t-8.5 2q-12 0 -24 -4.5t-27.5 -9.5t-37 -9.5t-52.5 -4.5q-44 0 -81 11.5t-62 38.5q-13 14 -20.5 29.5t-11.5 35t-5 44t-1 56.5v293q0 18 18 18h118q17 0 17 -18v-300q0 -51 20 -74t69 -23q13 0 28 2.5t26 7.5
q31 14 31 49v338q0 18 17 18h118q18 0 18 -18v-482zM190 595q0 10 10 17l145 104q13 9 19.5 12.5t13.5 3.5t12 -3.5t13 -15.5l17 -27q8 -13 8 -22q0 -15 -19 -24l-164 -79q-11 -5 -16 -6.5t-10 -1.5q-8 0 -16 12q-8 13 -10.5 19t-2.5 11z" />
    <glyph glyph-name="ucircumflex" unicode="&#xfb;" horiz-adv-x="604" 
d="M540 18q0 -18 -18 -18h-116q-9 0 -11.5 4t-2.5 9q0 3 -1.5 5t-8.5 2q-12 0 -24 -4.5t-27.5 -9.5t-37 -9.5t-52.5 -4.5q-44 0 -81 11.5t-62 38.5q-13 14 -20.5 29.5t-11.5 35t-5 44t-1 56.5v293q0 18 18 18h118q17 0 17 -18v-300q0 -51 20 -74t69 -23q13 0 28 2.5t26 7.5
q31 14 31 49v338q0 18 17 18h118q18 0 18 -18v-482zM469 599q0 -4 -4 -11l-14 -23q-5 -8 -12 -8q-5 0 -17 5l-110 59q-8 4 -13 4t-13 -4l-110 -59q-12 -5 -17 -5q-7 0 -12 8l-14 23q-4 7 -4 11t1.5 7t8.5 8l127 93q12 9 19 12.5t14 3.5t14 -3.5t19 -12.5l127 -93
q7 -5 8.5 -8t1.5 -7z" />
    <glyph glyph-name="udieresis" unicode="&#xfc;" horiz-adv-x="604" 
d="M540 18q0 -18 -18 -18h-116q-9 0 -11.5 4t-2.5 9q0 3 -1.5 5t-8.5 2q-12 0 -24 -4.5t-27.5 -9.5t-37 -9.5t-52.5 -4.5q-44 0 -81 11.5t-62 38.5q-13 14 -20.5 29.5t-11.5 35t-5 44t-1 56.5v293q0 18 18 18h118q17 0 17 -18v-300q0 -51 20 -74t69 -23q13 0 28 2.5t26 7.5
q31 14 31 49v338q0 18 17 18h118q18 0 18 -18v-482zM263 641q0 -32 -16.5 -46t-47.5 -14q-30 0 -47 14.5t-17 46.5q0 59 64 59q30 0 47 -14t17 -46zM465 641q0 -32 -16.5 -46t-47.5 -14q-30 0 -47 14.5t-17 46.5q0 59 64 59q30 0 47 -14t17 -46z" />
    <glyph glyph-name="yacute" unicode="&#xfd;" horiz-adv-x="519" 
d="M517 506q0 -8 -4 -19l-197 -571q-26 -74 -65 -105t-101 -31q-29 0 -50.5 3.5t-21.5 17.5v68q0 10 4.5 12.5t9.5 2.5t13 -1t20 -1q44 0 59 33l7 15q4 8 5 14t1 11t-2 10.5t-4 13.5l-181 509q-4 9 -4 17q0 13 17 13h122q16 0 19 -12l105 -340q4 -13 9 -13q6 0 10 13l97 340
q4 12 20 12h97q15 0 15 -12zM169 595q0 10 10 17l145 104q13 9 19.5 12.5t13.5 3.5t12 -3.5t13 -15.5l17 -27q8 -13 8 -22q0 -15 -19 -24l-164 -79q-11 -5 -16 -6.5t-10 -1.5q-8 0 -16 12q-8 13 -10.5 19t-2.5 11z" />
    <glyph glyph-name="thorn" unicode="&#xfe;" horiz-adv-x="622" 
d="M588 265q0 -67 -17.5 -118t-50 -85.5t-77.5 -52.5t-100 -18q-27 0 -47.5 4t-34.5 9.5t-22.5 9.5t-12.5 4q-9 0 -9 -13v-199q0 -18 -16 -18h-120q-17 0 -17 18v896q0 18 17 18h120q16 0 16 -19v-191q0 -13 9 -13q5 0 15 4.5t25 10.5t36.5 10.5t49.5 4.5q113 0 174.5 -70.5
t61.5 -191.5zM427 263q0 75 -30 115t-97 40q-15 0 -30 -3t-27 -9.5t-19 -17t-7 -25.5v-213q0 -14 8 -24t20 -16t26.5 -8.5t28.5 -2.5q26 0 49 8t40.5 27.5t27.5 50.5t10 78z" />
    <glyph glyph-name="ydieresis" unicode="&#xff;" horiz-adv-x="519" 
d="M517 506q0 -8 -4 -19l-197 -571q-26 -74 -65 -105t-101 -31q-29 0 -50.5 3.5t-21.5 17.5v68q0 10 4.5 12.5t9.5 2.5t13 -1t20 -1q44 0 59 33l7 15q4 8 5 14t1 11t-2 10.5t-4 13.5l-181 509q-4 9 -4 17q0 13 17 13h122q16 0 19 -12l105 -340q4 -13 9 -13q6 0 10 13l97 340
q4 12 20 12h97q15 0 15 -12zM234 641q0 -32 -16.5 -46t-47.5 -14q-30 0 -47 14.5t-17 46.5q0 59 64 59q30 0 47 -14t17 -46zM436 641q0 -32 -16.5 -46t-47.5 -14q-30 0 -47 14.5t-17 46.5q0 59 64 59q30 0 47 -14t17 -46z" />
    <glyph glyph-name="dotlessi" unicode="&#x131;" horiz-adv-x="283" 
d="M218 18q0 -18 -17 -18h-118q-18 0 -18 18v482q0 8 3.5 13t14.5 5h118q17 0 17 -19v-481z" />
    <glyph glyph-name="OE" unicode="&#x152;" horiz-adv-x="950" 
d="M919 18q0 -18 -18 -18h-415q-11 0 -20.5 -1.5t-22.5 -3.5t-32 -3.5t-50 -1.5q-74 0 -134 22.5t-102 65.5t-65 105.5t-23 142.5q0 97 25 166t70 113t107 65t137 21q24 0 41 -1.5t31.5 -4t27.5 -4t28 -1.5h377q18 0 18 -18v-83q0 -18 -18 -18h-235q-13 0 -13 -12v-125
q0 -12 13 -12h182q19 0 19 -18v-83q0 -18 -19 -18h-182q-13 0 -13 -12v-149q0 -13 14 -13h254q9 0 13.5 -3.5t4.5 -14.5v-83zM470 519q0 23 -22 38t-76 15q-80 0 -123 -61t-43 -178q0 -109 43.5 -167t117.5 -58q57 0 80 14t23 40v357z" />
    <glyph glyph-name="oe" unicode="&#x153;" horiz-adv-x="948" 
d="M914 248q0 -12 -6 -15t-12 -3h-313q-15 0 -15 -15q0 -65 40.5 -93.5t108.5 -28.5q37 0 63 6t43.5 12.5t28 12.5t16.5 6q14 0 14 -17v-68q0 -19 -22 -29q-25 -11 -65.5 -18t-94.5 -7q-57 0 -95 11.5t-61.5 26t-35.5 26t-16 11.5q-6 0 -18 -11.5t-34.5 -26t-57 -26
t-86.5 -11.5q-66 0 -115.5 19t-82 53.5t-48.5 84t-16 109.5q0 66 19 116.5t54 84.5t84 51.5t108 17.5q51 0 85.5 -12t56 -26t33.5 -26t18 -12q5 0 16.5 12t32.5 26t54 26t83 12q114 0 175 -63.5t61 -191.5v-24zM761 337q0 45 -25 71t-75 26q-45 0 -70.5 -27.5t-25.5 -72.5
q0 -5 2 -8t10 -3h172q8 0 10 2.5t2 11.5zM413 263q0 89 -27 125t-83 36q-55 0 -82 -38.5t-27 -130.5q0 -88 26.5 -124.5t83.5 -36.5q54 0 81.5 38t27.5 131z" />
    <glyph glyph-name="Scaron" unicode="&#x160;" horiz-adv-x="520" 
d="M476 194q0 -45 -14.5 -82.5t-44.5 -64t-76 -41t-109 -14.5q-48 0 -90 6.5t-76 20.5q-19 8 -25.5 14t-6.5 20v83q0 16 14 16q7 0 18 -7t30.5 -15.5t49.5 -15.5t75 -7q55 0 77.5 17.5t22.5 49.5q0 22 -10 38t-44 37l-116 71q-54 33 -79.5 76.5t-25.5 106.5q0 91 63 138.5
t184 47.5q37 0 74 -6.5t75 -23.5q17 -8 21 -14t4 -16v-85q0 -6 -2.5 -11.5t-11.5 -5.5q-10 0 -21 7.5t-29 16t-44.5 16t-67.5 7.5q-50 0 -71 -16.5t-21 -44.5q0 -22 11.5 -37.5t44.5 -33.5l91 -50q39 -21 64 -42.5t40 -44.5t20.5 -50.5t5.5 -60.5zM99 862q0 4 4 11l14 23
q5 8 12 8q5 0 17 -5l110 -59q8 -4 13 -4t13 4l110 59q12 5 17 5q7 0 12 -8l14 -23q4 -7 4 -11t-1.5 -7t-8.5 -8l-127 -93q-12 -9 -19 -12.5t-14 -3.5t-14 3.5t-19 12.5l-127 93q-7 5 -8.5 8t-1.5 7z" />
    <glyph glyph-name="scaron" unicode="&#x161;" horiz-adv-x="443" 
d="M401 155q0 -35 -12.5 -65t-37.5 -51.5t-62.5 -34t-87.5 -12.5q-54 0 -94.5 8t-57.5 19q-9 6 -12 12t-3 18v62q0 17 14 17q4 0 14 -5.5t27 -12t44 -12t66 -5.5q32 0 45.5 11t13.5 28q0 14 -8.5 23.5t-37.5 26.5l-80 46q-41 23 -64.5 54.5t-23.5 81.5q0 75 49.5 119
t146.5 44q43 0 78 -7t58 -19q15 -8 15 -24v-69q0 -6 -2.5 -11t-12.5 -5q-8 0 -17 5.5t-23 11.5t-34 11.5t-48 5.5q-38 0 -52.5 -10.5t-14.5 -27.5q0 -14 8.5 -23.5t34.5 -23.5l65 -37q30 -17 50 -33.5t32.5 -34t18 -37.5t5.5 -44zM58 681q0 4 4 11l14 23q5 8 12 8q5 0 17 -5
l110 -59q8 -4 13 -4t13 4l110 59q12 5 17 5q7 0 12 -8l14 -23q4 -7 4 -11t-1.5 -7t-8.5 -8l-127 -93q-12 -9 -19 -12.5t-14 -3.5t-14 3.5t-19 12.5l-127 93q-7 5 -8.5 8t-1.5 7z" />
    <glyph glyph-name="Ydieresis" unicode="&#x178;" horiz-adv-x="603" 
d="M601 669q0 -6 -7 -19l-195 -348q-8 -14 -9.5 -23.5t-1.5 -25.5v-235q0 -18 -18 -18h-128q-18 0 -18 18v215q0 20 -2 28.5t-11 25.5l-201 362q-8 15 -8 20q0 11 14 11h137q16 0 24 -15l130 -251q5 -10 12 -10q6 0 11 10l131 251q5 9 10 12t15 3h102q13 0 13 -11zM273 802
q0 -32 -16.5 -46t-47.5 -14q-30 0 -47 14.5t-17 46.5q0 59 64 59q30 0 47 -14t17 -46zM475 802q0 -32 -16.5 -46t-47.5 -14q-30 0 -47 14.5t-17 46.5q0 59 64 59q30 0 47 -14t17 -46z" />
    <glyph glyph-name="Zcaron" unicode="&#x17d;" horiz-adv-x="580" 
d="M556 18q0 -18 -18 -18h-497q-17 0 -17 18v95q0 10 2 18.5t9 17.5l309 392q6 7 6 13q0 7 -11 7h-286q-17 0 -17 18v83q0 18 17 18h476q19 0 19 -18v-85q0 -11 -2 -18.5t-9 -16.5l-317 -402q-6 -8 -6 -14q0 -3 2.5 -5t10.5 -2h311q18 0 18 -18v-83zM128 862q0 4 4 11l14 23
q5 8 12 8q5 0 17 -5l110 -59q8 -4 13 -4t13 4l110 59q12 5 17 5q7 0 12 -8l14 -23q4 -7 4 -11t-1.5 -7t-8.5 -8l-127 -93q-12 -9 -19 -12.5t-14 -3.5t-14 3.5t-19 12.5l-127 93q-7 5 -8.5 8t-1.5 7z" />
    <glyph glyph-name="zcaron" unicode="&#x17e;" horiz-adv-x="491" 
d="M457 18q0 -18 -18 -18h-391q-18 0 -18 18v64q0 10 2 18t9 17l210 281q5 7 5 11q0 7 -8 7h-190q-18 0 -18 19v65q0 18 18 18h371q19 0 19 -18v-54q0 -12 -2 -19.5t-9 -16.5l-215 -286q-5 -6 -6 -9t-1 -5q0 -7 11 -7h213q18 0 18 -18v-67zM80 681q0 4 4 11l14 23q5 8 12 8
q5 0 17 -5l110 -59q8 -4 13 -4t13 4l110 59q12 5 17 5q7 0 12 -8l14 -23q4 -7 4 -11t-1.5 -7t-8.5 -8l-127 -93q-12 -9 -19 -12.5t-14 -3.5t-14 3.5t-19 12.5l-127 93q-7 5 -8.5 8t-1.5 7z" />
    <glyph glyph-name="florin" unicode="&#x192;" 
d="M553 687q0 -8 -2 -16.5t-12 -30.5q-10 -21 -16 -27t-13 -6t-17.5 6.5t-35.5 6.5q-20 0 -32.5 -11t-16.5 -29q-2 -7 -3 -16.5t-2.5 -18.5t-2 -16.5t-0.5 -10.5q0 -8 7 -8h91q15 0 15 -12q0 -10 -2.5 -26.5t-6.5 -29.5q-4 -15 -19 -15h-86q-10 0 -12 -12l-62 -483
q-4 -34 -20.5 -62t-42 -48.5t-59 -32t-72.5 -11.5q-45 0 -61 5.5t-16 17.5q0 8 1.5 23t6.5 32q6 21 21 21q40 0 63.5 18.5t29.5 68.5l54 450v5q0 8 -9 8h-47q-10 0 -13 3.5t-3 9.5q0 11 2.5 24.5t6.5 30.5q4 15 17 15h48q4 0 7 3t4 14q4 61 19 99.5t40.5 60.5t60.5 30t77 8
q22 0 42.5 -3.5t36.5 -8.5t25 -12t9 -14z" />
    <glyph glyph-name="uni0237" unicode="&#x237;" horiz-adv-x="303" 
d="M236 -63q0 -81 -44 -119t-129 -38q-35 0 -54 5t-19 17v66q0 10 4 12.5t9 2.5q6 0 9.5 -0.5t9.5 -0.5q37 0 49 17.5t12 51.5v549q0 18 17 18h118q18 0 18 -19v-562z" />
    <glyph glyph-name="circumflex" unicode="&#x2c6;" horiz-adv-x="500" 
d="M420 599q0 -4 -4 -11l-14 -23q-5 -8 -12 -8q-5 0 -17 5l-110 59q-8 4 -13 4t-13 -4l-110 -59q-12 -5 -17 -5q-7 0 -12 8l-14 23q-4 7 -4 11t1.5 7t8.5 8l127 93q12 9 19 12.5t14 3.5t14 -3.5t19 -12.5l127 -93q7 -5 8.5 -8t1.5 -7z" />
    <glyph glyph-name="tilde" unicode="&#x2dc;" horiz-adv-x="500" 
d="M218 616q-13 6 -19 8t-14 2q-17 0 -29 -16l-7 -10q-5 -7 -8.5 -10t-9.5 -3q-3 0 -9.5 2.5t-17.5 10.5q-5 4 -6.5 7.5t-1.5 8.5q0 7 9 27q18 36 38 48t42 12q15 0 27.5 -3t33.5 -13l32 -16q23 -11 37 -11q16 0 29 17l7 10q5 7 8.5 10t9.5 3q3 0 9.5 -2.5t17.5 -10.5
q5 -4 6.5 -7.5t1.5 -8.5q0 -8 -9 -27q-18 -36 -38 -48t-42 -12q-15 0 -28 2.5t-30 10.5z" />
    <glyph glyph-name="endash" unicode="&#x2013;" horiz-adv-x="500" 
d="M484 241q0 -18 -17 -18h-434q-18 0 -18 18v60q0 17 18 17h434q17 0 17 -17v-60z" />
    <glyph glyph-name="emdash" unicode="&#x2014;" horiz-adv-x="1000" 
d="M897 241q0 -18 -17 -18h-759q-18 0 -18 18v60q0 17 18 17h759q17 0 17 -17v-60z" />
    <glyph glyph-name="quoteleft" unicode="&#x2018;" horiz-adv-x="298" 
d="M58 534q0 34 12.5 64.5t29 52.5t33 35t25.5 13q8 0 21 -9l24 -17q10 -7 12.5 -10.5t2.5 -8.5q0 -6 -6 -13t-13 -15t-13 -18t-6 -23q0 -8 5.5 -14t20.5 -11q14 -5 23.5 -20.5t9.5 -38.5q0 -29 -23 -47.5t-62 -18.5q-96 0 -96 99z" />
    <glyph glyph-name="quoteright" unicode="&#x2019;" horiz-adv-x="298" 
d="M239 600q0 -35 -12.5 -65t-29 -52t-33 -35t-25.5 -13q-8 0 -21 9l-24 17q-10 7 -12.5 10.5t-2.5 8.5q0 6 6 12.5t13 15t13 18.5t6 23q0 8 -5.5 14t-20.5 11q-14 5 -23.5 20.5t-9.5 38.5q0 29 23 47.5t62 18.5q96 0 96 -99z" />
    <glyph glyph-name="quotesinglbase" unicode="&#x201a;" horiz-adv-x="298" 
d="M239 36q0 -35 -12.5 -65t-29 -52t-33 -35t-25.5 -13q-8 0 -21 9l-24 17q-10 7 -12.5 10.5t-2.5 8.5q0 6 6 12.5t13 15t13 18.5t6 23q0 8 -5.5 14t-20.5 11q-14 5 -23.5 20.5t-9.5 38.5q0 29 23 47.5t62 18.5q96 0 96 -99z" />
    <glyph glyph-name="quotedblleft" unicode="&#x201c;" horiz-adv-x="548" 
d="M292 534q0 34 12.5 64.5t29 52.5t33 35t25.5 13q8 0 21 -9l24 -17q10 -7 12.5 -10.5t2.5 -8.5q0 -6 -6 -13t-13 -15t-13 -18t-6 -23q0 -8 5.5 -14t20.5 -11q14 -5 23.5 -20.5t9.5 -38.5q0 -29 -23 -47.5t-62 -18.5q-96 0 -96 99zM72 534q0 34 12.5 64.5t29 52.5t33 35
t25.5 13q8 0 21 -9l24 -17q10 -7 12.5 -10.5t2.5 -8.5q0 -6 -6 -13t-13 -15t-13 -18t-6 -23q0 -8 5.5 -14t20.5 -11q14 -5 23.5 -20.5t9.5 -38.5q0 -29 -23 -47.5t-62 -18.5q-96 0 -96 99z" />
    <glyph glyph-name="quotedblright" unicode="&#x201d;" horiz-adv-x="548" 
d="M254 600q0 -35 -12.5 -65t-29 -52t-33 -35t-25.5 -13q-8 0 -21 9l-24 17q-10 7 -12.5 10.5t-2.5 8.5q0 6 6 12.5t13 15t13 18.5t6 23q0 8 -5.5 14t-20.5 11q-14 5 -23.5 20.5t-9.5 38.5q0 29 23 47.5t62 18.5q96 0 96 -99zM474 600q0 -35 -12.5 -65t-29 -52t-33 -35
t-25.5 -13q-8 0 -21 9l-24 17q-10 7 -12.5 10.5t-2.5 8.5q0 6 6 12.5t13 15t13 18.5t6 23q0 8 -5.5 14t-20.5 11q-14 5 -23.5 20.5t-9.5 38.5q0 29 23 47.5t62 18.5q96 0 96 -99z" />
    <glyph glyph-name="quotedblbase" unicode="&#x201e;" horiz-adv-x="548" 
d="M254 36q0 -35 -12.5 -65t-29 -52t-33 -35t-25.5 -13q-8 0 -21 9l-24 17q-10 7 -12.5 10.5t-2.5 8.5q0 6 6 12.5t13 15t13 18.5t6 23q0 8 -5.5 14t-20.5 11q-14 5 -23.5 20.5t-9.5 38.5q0 29 23 47.5t62 18.5q96 0 96 -99zM474 36q0 -35 -12.5 -65t-29 -52t-33 -35
t-25.5 -13q-8 0 -21 9l-24 17q-10 7 -12.5 10.5t-2.5 8.5q0 6 6 12.5t13 15t13 18.5t6 23q0 8 -5.5 14t-20.5 11q-14 5 -23.5 20.5t-9.5 38.5q0 29 23 47.5t62 18.5q96 0 96 -99z" />
    <glyph glyph-name="dagger" unicode="&#x2020;" horiz-adv-x="487" 
d="M462 478q0 -22 -22 -22h-127q-13 0 -13 -13v-581q0 -22 -23 -22h-70q-21 0 -21 21v582q0 13 -13 13h-126q-23 0 -23 23v61q0 21 22 21h127q13 0 13 13v169q0 22 22 22h70q22 0 22 -22v-169q0 -13 13 -13h127q22 0 22 -23v-60z" />
    <glyph glyph-name="daggerdbl" unicode="&#x2021;" horiz-adv-x="479" 
d="M186 443q0 13 -13 13h-126q-23 0 -23 23v61q0 21 22 21h127q13 0 13 13v169q0 22 22 22h70q22 0 22 -22v-169q0 -13 13 -13h127q22 0 22 -23v-60q0 -22 -22 -22h-127q-13 0 -13 -13v-281q0 -13 13 -13h126q23 0 23 -23v-61q0 -21 -22 -21h-127q-13 0 -13 -13v-169
q0 -22 -22 -22h-70q-22 0 -22 22v169q0 13 -13 13h-127q-22 0 -22 23v60q0 22 22 22h127q13 0 13 13v281z" />
    <glyph glyph-name="bullet" unicode="&#x2022;" horiz-adv-x="350" 
d="M322 338q0 -68 -41 -105.5t-110 -37.5t-107.5 37.5t-38.5 105.5t38.5 105t107.5 37t110 -37t41 -105z" />
    <glyph glyph-name="ellipsis" unicode="&#x2026;" horiz-adv-x="1000" 
d="M256 59q0 -40 -22.5 -55.5t-67.5 -15.5q-46 0 -67 17t-21 57q0 39 22.5 56t67.5 17q46 0 67 -17.5t21 -58.5zM589 59q0 -40 -22.5 -55.5t-67.5 -15.5q-46 0 -67 17t-21 57q0 39 22.5 56t67.5 17q46 0 67 -17.5t21 -58.5zM922 59q0 -40 -22.5 -55.5t-67.5 -15.5
q-46 0 -67 17t-21 57q0 39 22.5 56t67.5 17q46 0 67 -17.5t21 -58.5z" />
    <glyph glyph-name="perthousand" unicode="&#x2030;" horiz-adv-x="930" 
d="M317 538q0 -70 -40.5 -115.5t-114.5 -45.5q-75 0 -114 42t-39 111q0 72 40 115.5t115 43.5t114 -41t39 -110zM221 535q0 36 -14 57.5t-44 21.5t-44.5 -22.5t-14.5 -60.5q0 -35 14 -56.5t43 -21.5q30 0 45 22.5t15 59.5zM575 660q0 -7 -8 -18l-475 -655q-7 -10 -16 -10
q-7 0 -16 6l-30 21q-8 5 -8 14q0 8 8 18l475 656q7 10 16 10q7 0 13 -4l32 -24q9 -6 9 -14zM591 151q0 -70 -40.5 -115t-114.5 -45q-75 0 -114 42t-39 111q0 72 39.5 115t115.5 43q75 0 114 -41t39 -110zM496 148q0 36 -14.5 58t-44.5 22t-44 -22.5t-14 -60.5
q0 -35 13.5 -57t42.5 -22q30 0 45.5 23t15.5 59zM921 151q0 -70 -40.5 -115t-114.5 -45q-75 0 -114 42t-39 111q0 72 39.5 115t115.5 43q75 0 114 -41t39 -110zM826 148q0 36 -14.5 58t-44.5 22t-44 -22.5t-14 -60.5q0 -35 13.5 -57t42.5 -22q30 0 45.5 23t15.5 59z" />
    <glyph glyph-name="guilsinglleft" unicode="&#x2039;" horiz-adv-x="346" 
d="M273 450q0 -7 -6 -20l-75 -154q-7 -14 -7 -21t7 -21l75 -154q6 -14 6 -20q0 -14 -19 -14h-65q-11 0 -16.5 3.5t-10.5 14.5l-83 169q-4 8 -5 12.5t-1 9.5t1 9.5t5 12.5l83 169q5 11 10.5 14.5t16.5 3.5h65q19 0 19 -14z" />
    <glyph glyph-name="guilsinglright" unicode="&#x203a;" horiz-adv-x="346" 
d="M73 60q0 6 6 20l75 154q7 14 7 21t-7 21l-75 154q-6 13 -6 20q0 14 19 14h65q11 0 16.5 -3.5t10.5 -14.5l83 -169q4 -8 5 -12.5t1 -9.5t-1 -9.5t-5 -12.5l-83 -169q-5 -11 -10.5 -14.5t-16.5 -3.5h-65q-19 0 -19 14z" />
    <glyph glyph-name="Euro" unicode="&#x20ac;" 
d="M558 49q0 -10 -1.5 -15.5t-9.5 -11.5q-5 -3 -15.5 -8t-29 -10t-47.5 -8.5t-69 -3.5q-63 0 -109.5 18t-78.5 51t-51 78.5t-27 100.5q-2 10 -4 14t-12 4h-30q-11 0 -16.5 2.5t-5.5 14.5v23q0 11 5 14.5t16 3.5h26q11 0 13 4.5t2 11.5v16t1 16q2 15 -15 15h-26
q-11 0 -16.5 2.5t-5.5 15.5v22q0 12 5 15.5t16 3.5h35q8 0 12 3t6 14q11 55 31.5 93.5t45.5 64.5t52.5 41.5t53.5 23t49 9.5t39 2q22 0 45.5 -2.5t44.5 -7t37 -9.5t24 -11q8 -5 9 -10.5t1 -15.5v-72q0 -6 -2.5 -11t-11.5 -5q-6 0 -9 1.5t-8 3.5q-14 7 -25.5 12.5t-23.5 9.5
t-26.5 5.5t-35.5 1.5q-32 0 -57.5 -10t-40.5 -27q-21 -24 -29 -53t-8 -41q0 -5 3 -7.5t12 -2.5h201q11 0 16.5 -3t5.5 -16v-22q0 -12 -5.5 -15t-16.5 -3h-208q-17 0 -17 -13q0 -8 -0.5 -16.5t-0.5 -16.5q0 -11 4 -14t16 -3h206q11 0 16.5 -3t5.5 -15v-23q0 -11 -5.5 -14
t-16.5 -3h-203q-9 0 -13 -1.5t-4 -12.5q0 -20 6.5 -47t29.5 -56q12 -16 37 -28t63 -12q41 0 65 7.5t50 22.5q5 2 7.5 3.5t8.5 1.5q8 0 11 -5t3 -12v-70z" />
    <glyph glyph-name="trademark" unicode="&#x2122;" horiz-adv-x="942" 
d="M890 225q0 -19 -17 -19h-72q-18 0 -18 19v280q0 8 -4 8q-5 0 -8 -8l-81 -240q-7 -21 -12.5 -32.5t-11 -17.5t-11.5 -7.5t-14 -1.5h-29q-10 0 -16.5 1.5t-11.5 7t-10.5 17.5t-12.5 33l-80 240q-3 8 -8 8q-4 0 -4 -9v-279q0 -12 -6.5 -15.5t-12.5 -3.5h-57q-6 0 -12.5 3.5
t-6.5 15.5v445q0 19 17 19h105q22 0 28 -17l103 -302q3 -9 8 -9t8 9l102 297q5 12 9 17t14 5h106q16 0 16 -16v-448zM343 625q0 -16 -18 -16h-87q-10 0 -10 -12v-372q0 -19 -17 -19h-75q-17 0 -17 19v372q0 12 -11 12h-87q-17 0 -17 16v48q0 16 17 16h304q18 0 18 -16v-48z
" />
    <glyph glyph-name="glyph205" horiz-adv-x="500" 
d="M80 681q0 4 4 11l14 23q5 8 12 8q5 0 17 -5l110 -59q8 -4 13 -4t13 4l110 59q12 5 17 5q7 0 12 -8l14 -23q4 -7 4 -11t-1.5 -7t-8.5 -8l-127 -93q-12 -9 -19 -12.5t-14 -3.5t-14 3.5t-19 12.5l-127 93q-7 5 -8.5 8t-1.5 7z" />
    <glyph glyph-name="glyph206" horiz-adv-x="500" 
d="M335 640q0 -42 -21.5 -61.5t-62.5 -19.5q-42 0 -64 18.5t-22 58.5q0 38 22 58t62 20t63 -19.5t23 -54.5zM283 634q0 36 -32 36q-34 0 -34 -34q0 -33 32 -33q34 0 34 31z" />
    <glyph glyph-name="glyph225" horiz-adv-x="500" 
d="M369 776q0 -5 -2.5 -11t-10.5 -19q-8 -12 -16 -12q-5 0 -10 1.5t-16 6.5l-164 79q-19 9 -19 24q0 9 8 22l17 27q8 12 13 15.5t12 3.5t13.5 -3.5t19.5 -12.5l145 -104q10 -7 10 -17z" />
    <glyph glyph-name="glyph226" horiz-adv-x="500" 
d="M131 776q0 10 10 17l145 104q13 9 19.5 12.5t13.5 3.5t12 -3.5t13 -15.5l17 -27q8 -13 8 -22q0 -15 -19 -24l-164 -79q-11 -5 -16 -6.5t-10 -1.5q-8 0 -16 12q-8 13 -10.5 19t-2.5 11z" />
    <glyph glyph-name="glyph227" horiz-adv-x="500" 
d="M420 780q0 -4 -4 -11l-14 -23q-5 -8 -12 -8q-5 0 -17 5l-110 59q-8 4 -13 4t-13 -4l-110 -59q-12 -5 -17 -5q-7 0 -12 8l-14 23q-4 7 -4 11t1.5 7t8.5 8l127 93q12 9 19 12.5t14 3.5t14 -3.5t19 -12.5l127 -93q7 -5 8.5 -8t1.5 -7z" />
    <glyph glyph-name="glyph228" horiz-adv-x="500" 
d="M80 862q0 4 4 11l14 23q5 8 12 8q5 0 17 -5l110 -59q8 -4 13 -4t13 4l110 59q12 5 17 5q7 0 12 -8l14 -23q4 -7 4 -11t-1.5 -7t-8.5 -8l-127 -93q-12 -9 -19 -12.5t-14 -3.5t-14 3.5t-19 12.5l-127 93q-7 5 -8.5 8t-1.5 7z" />
    <glyph glyph-name="glyph229" horiz-adv-x="500" 
d="M218 776q-13 6 -19 8t-14 2q-17 0 -29 -16l-7 -10q-5 -7 -8.5 -10t-9.5 -3q-3 0 -9.5 2.5t-17.5 10.5q-5 4 -6.5 7.5t-1.5 8.5q0 7 9 27q18 36 38 48t42 12q15 0 27.5 -3t33.5 -13l32 -16q23 -11 37 -11q16 0 29 17l7 10q5 7 8.5 10t9.5 3q3 0 9.5 -2.5t17.5 -10.5
q5 -4 6.5 -7.5t1.5 -8.5q0 -8 -9 -27q-18 -36 -38 -48t-42 -12q-15 0 -28 2.5t-30 10.5z" />
    <glyph glyph-name="glyph230" horiz-adv-x="500" 
d="M213 802q0 -32 -16.5 -46t-47.5 -14q-30 0 -47 14.5t-17 46.5q0 59 64 59q30 0 47 -14t17 -46zM415 802q0 -32 -16.5 -46t-47.5 -14q-30 0 -47 14.5t-17 46.5q0 59 64 59q30 0 47 -14t17 -46z" />
    <glyph glyph-name="glyph231" horiz-adv-x="500" 
d="M335 801q0 -42 -21.5 -61.5t-62.5 -19.5q-42 0 -64 18.5t-22 58.5q0 38 22 58t62 20t63 -19.5t23 -54.5zM283 795q0 36 -32 36q-34 0 -34 -34q0 -33 32 -33q34 0 34 31z" />
    </font>
</defs>
</svg>
