<?xml version="1.0" standalone="no"?>
<!DOCTYPE svg PUBLIC "-//W3C//DTD SVG 1.1//EN" "http://www.w3.org/Graphics/SVG/1.1/DTD/svg11.dtd" >
<svg xmlns="http://www.w3.org/2000/svg" xmlns:xlink="http://www.w3.org/1999/xlink" version="1.1">
<metadata>
Created by FontForge 20170731 at Wed May  2 15:43:23 2012
 By Aleksey,,,
Copyright (c) 2005 - 2008 Linotype GmbH, www.linotype.com. All rights reserved. This font software may not be reproduced, modified, disclosed or transferred without the express written approval of Linotype GmbH. Praxis is a trademark of Linotype GmbH and may be registered in certain jurisdictions. This typeface is original artwork of Gerard Unger. The design may be protected in certain jurisdictions.
</metadata>
<defs>
<font id="PraxisW01-SemiBoldOblique" horiz-adv-x="616" >
  <font-face 
    font-family="PraxisW01-SemiBoldOblique"
    font-weight="400"
    font-style="oblique"
    font-stretch="normal"
    units-per-em="1000"
    panose-1="2 11 6 3 2 2 2 9 2 4"
    ascent="720"
    descent="-280"
    x-height="515"
    cap-height="680"
    bbox="-113 -247 1020 886"
    underline-thickness="50"
    underline-position="-150"
    unicode-range="U+000D-2122"
  />
<missing-glyph horiz-adv-x="0" 
 />
    <glyph glyph-name=".notdef" horiz-adv-x="0" 
 />
    <glyph glyph-name="glyph1" horiz-adv-x="0" 
 />
    <glyph glyph-name="uni000D" unicode="&#xd;" horiz-adv-x="0" 
 />
    <glyph glyph-name="space" unicode=" " horiz-adv-x="266" 
 />
    <glyph glyph-name="exclam" unicode="!" horiz-adv-x="354" 
d="M312 633q-2 -7 -5.5 -23.5t-7.5 -30.5l-105 -393q-4 -15 -9 -20t-18 -5h-56q-18 0 -18 14q0 2 1 12.5t6 39.5l56 352q3 27 6.5 46t10 31.5t17.5 18t31 5.5h57q20 0 28.5 -6t8.5 -20q0 -9 -3 -21zM192 48q-7 -31 -31 -47.5t-60 -16.5q-65 0 -65 48q0 38 26.5 60t67.5 22
q64 0 64 -49q0 -4 -0.5 -8t-1.5 -9z" />
    <glyph glyph-name="quotedbl" unicode="&#x22;" horiz-adv-x="500" 
d="M458 700q0 -7 -3 -21t-8 -31l-61 -212q-4 -13 -8.5 -16.5t-15.5 -3.5h-34q-8 0 -12 2t-4 10v5l35 248q3 21 12 32.5t36 11.5h29q18 0 26 -5.5t8 -19.5zM280 700q0 -7 -3 -21t-8 -31l-61 -212q-4 -13 -8.5 -16.5t-15.5 -3.5h-34q-8 0 -12 2t-4 10v5l35 248q3 21 12 32.5
t36 11.5h29q18 0 26 -5.5t8 -19.5z" />
    <glyph glyph-name="numbersign" unicode="#" horiz-adv-x="666" 
d="M686 478q0 -3 -1.5 -7.5t-7.5 -18.5l-10 -21q-4 -9 -9 -13t-16 -4h-128q-11 0 -16 -11l-48 -115q-5 -12 -5 -16q0 -6 11 -6h124q8 0 10 -1.5t2 -6.5q0 -4 -6.5 -20t-11.5 -27q-3 -7 -8 -11.5t-16 -4.5h-128q-4 0 -8.5 -2.5t-6.5 -8.5l-72 -169q-3 -6 -8 -10.5t-16 -4.5
h-46q-14 0 -14 7q0 4 1 7.5t5 12.5l61 142q5 10 6 13.5t1 5.5q0 7 -11 7h-90q-4 0 -8.5 -2t-7.5 -10l-71 -168q-4 -8 -8 -11.5t-15 -3.5h-46q-13 0 -13 7q0 4 1 7.5t5 12.5l59 141q5 11 6 15t1 6q0 6 -11 6h-122q-12 0 -12 9q0 6 11 32l6 14q7 16 24 16h127q3 0 8 2t8 9
l49 114q5 12 5 17q0 6 -12 6h-125q-12 0 -12 6q0 2 1.5 7.5t5.5 13.5l13 28q5 10 10 13t15 3h127q3 0 8 2.5t8 9.5l72 169q3 7 8 10.5t16 3.5h46q13 0 13 -8q0 -5 -3 -12.5t-13 -30.5l-51 -117q-5 -12 -6 -16t-1 -5q0 -6 12 -6h89q10 0 15 13l72 167q6 15 24 15h47
q13 0 13 -9l-3 -9q-4 -11 -12 -29l-55 -126q-4 -7 -4 -14q0 -8 11 -8h125q12 0 12 -7zM411 390l4 10t2 7q0 7 -12 7h-89q-10 0 -15 -12l-49 -114q-4 -11 -4 -15q0 -7 11 -7h89q5 0 9 2t8 10z" />
    <glyph glyph-name="dollar" unicode="$" 
d="M47 116q2 7 5.5 11.5t13.5 4.5q7 0 17 -7t27 -16t43.5 -16t67.5 -7q66 0 99 28.5t33 78.5q0 17 -9 32.5t-32 32.5l-99 72q-38 27 -56.5 57.5t-18.5 72.5q0 57 18.5 96t47 64.5t62.5 39.5t65 21q11 2 14 14l11 50q2 11 7 15t17 4h26q15 0 15 -11q0 -2 -2.5 -15.5
t-8.5 -39.5v-3q0 -6 8 -6q25 0 51 -4.5t47 -12t34.5 -17t13.5 -18.5q0 -2 -3.5 -20.5t-11.5 -53.5q-2 -7 -5.5 -11t-12.5 -4q-8 0 -18 7t-26 16t-40 16t-59 7q-57 0 -88.5 -24.5t-31.5 -69.5q0 -17 9 -32.5t31 -30.5l90 -61q48 -32 68.5 -62.5t20.5 -71.5q0 -61 -21.5 -105
t-53.5 -73t-70 -45t-71 -21q-11 -2 -12 -12l-11 -50q-4 -20 -24 -20h-25q-16 0 -16 11q0 2 2 14t9 41v3q0 7 -9 7q-14 0 -39.5 3.5t-50.5 10.5t-43.5 17t-18.5 22q0 6 1 10z" />
    <glyph glyph-name="percent" unicode="%" horiz-adv-x="600" 
d="M365 538q-8 -35 -25 -64.5t-42 -51t-56 -33.5t-67 -12q-61 0 -93.5 31t-32.5 83q0 43 15.5 79.5t42 63t62 41t74.5 14.5q62 0 94 -30t32 -82q0 -20 -4 -39zM284 534q2 8 3 16t1 16q0 29 -15 45t-44 16q-19 0 -37 -8.5t-31.5 -25t-21.5 -39.5t-8 -52t14 -45.5t42 -16.5
q37 0 62.5 25t34.5 69zM642 668q0 -6 -12 -18l-623 -663q-10 -10 -17 -10q-8 0 -15 6l-16 13q-5 5 -5 11q0 5 3 10t8 10l624 665q9 10 19 10q7 0 12 -5l16 -15q7 -6 7 -10q0 -3 -1 -4zM547 151q-8 -35 -25 -64.5t-42 -50.5t-56 -33t-67 -12q-62 0 -94 30.5t-32 82.5
q0 44 15 80.5t41.5 62.5t61.5 40.5t76 14.5q62 0 94 -29.5t32 -81.5q0 -9 -1 -19t-3 -21zM465 148q2 8 3 16t1 16q0 29 -14.5 45t-43.5 16q-20 0 -37.5 -9t-31 -25.5t-21.5 -40t-8 -51.5q0 -29 13.5 -45t42.5 -16q36 0 61.5 26t34.5 68z" />
    <glyph glyph-name="ampersand" unicode="&#x26;" horiz-adv-x="707" 
d="M617 18q0 -18 -22 -18h-116q-10 0 -15 2.5t-10 10.5l-11 18q-5 7 -9 7t-19 -7.5t-41.5 -16t-65 -16t-89.5 -7.5q-114 0 -164.5 38.5t-50.5 105.5q0 80 41.5 133t117.5 83q19 7 19 14q0 3 -6 11l-11 14q-17 21 -25.5 46t-8.5 50q0 48 17.5 85.5t48.5 63.5t73.5 40t93.5 14
q85 0 124.5 -32t39.5 -86q0 -38 -13 -70.5t-35 -58t-51 -43.5t-61 -27q-12 -3 -12 -10q0 -5 7 -13l114 -152q5 -7 9 -9t8 -2q3 0 8 6t11 16.5t12 25.5t10 32l5 23q2 11 8 14.5t14 3.5h74q16 0 16 -12q0 -11 -7 -33t-19 -46t-28.5 -47.5t-35.5 -37.5q-8 -5 -10.5 -8.5
t-3.5 -6.5q0 -6 6 -12l56 -70q7 -8 7 -16zM417 529q3 13 3 26q0 26 -16.5 41t-51.5 15q-45 0 -72 -25.5t-27 -68.5q0 -27 21 -54l30 -38q5 -7 8 -9t7 -2q6 0 19.5 8t29.5 23t29.5 36t19.5 48zM255 73q66 0 95.5 12t29.5 21q0 4 -4 9l-143 187q-4 7 -12 7q-4 0 -18 -8.5
t-29.5 -25.5t-28 -44t-12.5 -63q0 -47 31 -71t91 -24z" />
    <glyph glyph-name="quotesingle" unicode="'" horiz-adv-x="250" 
d="M248 700q0 -7 -3 -21t-8 -31l-61 -212q-4 -13 -8.5 -16.5t-15.5 -3.5h-34q-8 0 -12 2t-4 10v5l35 248q3 21 12 32.5t36 11.5h29q18 0 26 -5.5t8 -19.5z" />
    <glyph glyph-name="parenleft" unicode="(" horiz-adv-x="314" 
d="M354 690q0 -7 -8.5 -19t-28.5 -44q-45 -74 -85 -168.5t-67 -219.5q-14 -68 -20.5 -126.5t-6.5 -109.5q0 -35 4 -71t9 -66t9 -49.5t4 -21.5q0 -11 -14 -17l-43 -19q-8 -4 -12.5 -5t-9.5 -1q-8 0 -13.5 7.5t-15.5 36.5q-14 44 -24 100.5t-10 125.5q0 48 5.5 102t18.5 114
q32 147 86.5 258t111.5 184q23 29 32 36.5t16 7.5q8 0 20 -6l34 -19q8 -5 8 -10z" />
    <glyph glyph-name="parenright" unicode=")" horiz-adv-x="314" 
d="M-83 -211q0 6 8 17.5t28 44.5q46 74 85.5 168.5t65.5 219.5q15 69 21 127.5t6 109.5q0 36 -4 73t-8.5 66.5t-8.5 48.5t-4 20q0 9 13 16l43 19q15 6 23 6q9 0 20 -23.5t20.5 -62t15.5 -87t6 -97.5q0 -48 -5.5 -102t-18.5 -114q-15 -73 -37.5 -137.5t-48.5 -120t-55 -102
t-57 -82.5q-11 -15 -18.5 -23.5t-12.5 -13t-8.5 -6t-7.5 -1.5q-8 0 -20 6l-34 19q-7 4 -7 11z" />
    <glyph glyph-name="asterisk" unicode="*" horiz-adv-x="413" 
d="M395 576q-3 -12 -17 -12h-74q-5 0 -7 -2q-1 -1 0 -2q0 -3 3 -7l57 -54q4 -4 4 -8q0 -2 -1 -5t-6 -8l-14 -12q-6 -6 -12 -6q-7 0 -12 7l-44 46q-5 4 -8 4t-5 -6l-13 -64q-3 -15 -19 -15h-17q-11 0 -11 10q0 2 4 21l10 48v2q0 4 -3 4q-4 0 -9 -4l-65 -46q-4 -2 -7.5 -4.5
t-8.5 -2.5t-9 6q-7 10 -9 13.5t-2 7.5t11 12l78 54q6 4 7 8q0 3 -7 3h-73q-12 0 -12 10v4l4 17q3 14 18 14h73q5 0 6 0.5t2 2.5q0 4 -4 7l-55 55q-5 5 -5 8q0 7 6 13l14 12q5 5 11 5q8 0 13 -7l45 -45q4 -4 8 -4t5 5l14 65q3 15 17 15h17q13 0 13 -10q0 -1 -0.5 -3.5l-2 -10
t-4.5 -21t-8 -34.5q0 -6 3 -6q2 0 9 4l63 45q5 4 8 5.5t8 1.5q6 0 9 -5l9 -12q3 -5 3 -8q0 -6 -9 -13l-80 -55q-6 -4 -6 -8q0 -2 6 -2h74q12 0 12 -9q0 -2 -1.5 -9.5t-3.5 -14.5z" />
    <glyph glyph-name="plus" unicode="+" 
d="M235 81q-23 0 -23 16q0 7 6 33l33 154v3q0 5 -5 5h-166q-22 0 -22 17q0 2 1.5 12.5t6.5 28.5q6 25 31 25h166q7 0 9 10l37 174q3 14 10.5 21t22.5 7h35q21 0 21 -17q0 -2 -1.5 -12t-7.5 -39l-29 -134v-2q0 -8 7 -8h164q23 0 23 -17q0 -2 -1.5 -10.5t-6.5 -30.5
q-6 -25 -32 -25h-164q-10 0 -11 -8l-38 -177q-5 -26 -31 -26h-35z" />
    <glyph glyph-name="comma" unicode="," horiz-adv-x="266" 
d="M151 38q-7 -32 -24.5 -60.5t-37.5 -50t-38 -34t-27 -12.5q-10 0 -21 8q-16 13 -20.5 18t-4.5 11q0 5 8.5 12t18 16.5t18 21.5t8.5 28q0 6 -6.5 10t-14 9t-13.5 13.5t-6 24.5q0 37 26.5 59t65.5 22q71 0 71 -65q0 -15 -3 -31z" />
    <glyph glyph-name="hyphen" unicode="-" horiz-adv-x="266" 
d="M212 265q-3 -16 -21 -16h-162q-14 0 -14 13v4l12 55q3 15 20 15h162q15 0 15 -11q0 -1 -2 -12.5t-10 -47.5z" />
    <glyph glyph-name="period" unicode="." horiz-adv-x="266" 
d="M154 61q-8 -38 -31 -54t-64 -16q-35 0 -52 11t-17 37q0 51 27.5 73.5t71.5 22.5q68 0 68 -49q0 -10 -3 -25z" />
    <glyph glyph-name="slash" unicode="/" horiz-adv-x="500" 
d="M433 729q0 -8 -5 -19l-363 -933q-7 -19 -21 -19q-3 0 -12 1t-19 3.5t-18 6t-8 9.5q0 8 5 21l362 933q5 11 8.5 15t11.5 4q4 0 14 -1t20 -3.5t17.5 -7t7.5 -10.5z" />
    <glyph glyph-name="zero" unicode="0" 
d="M563 343q-16 -77 -43.5 -141.5t-68 -111t-94.5 -73t-123 -26.5q-53 0 -90 15t-61 43t-35 68t-11 89q0 60 15 131q16 76 43.5 141t68 111.5t94.5 73t123 26.5q52 0 89.5 -15.5t61.5 -43.5t35.5 -67.5t11.5 -88.5q0 -30 -4 -63t-12 -68zM431 342q9 42 14 77.5t5 65.5
q0 51 -19 80t-69 29q-40 0 -68.5 -19.5t-49 -54t-35 -81.5t-26.5 -101q-8 -40 -13.5 -75.5t-5.5 -65.5q0 -52 19.5 -82t70.5 -30q40 0 68.5 20t48.5 54.5t34.5 81.5t25.5 101z" />
    <glyph glyph-name="one" unicode="1" 
d="M359 18q-3 -18 -20 -18h-97q-14 0 -14 13v5l113 529v4q0 5 -5 5t-17 -5.5t-31 -11.5t-42.5 -11.5t-50.5 -5.5q-10 0 -10 12q0 8 4.5 28t8.5 40q4 18 19 18t37.5 5t46 13t45.5 19t37 23q6 5 10 7t12 2h79q15 0 15 -13v-2z" />
    <glyph glyph-name="two" unicode="2" 
d="M429 480q4 19 4 37q0 41 -25.5 59t-77.5 18q-41 0 -71 -7t-51 -16t-34 -16t-20 -7q-13 0 -13 11q0 5 3.5 20t10.5 48q2 11 7.5 17t19.5 12q33 15 83.5 24t108.5 9q99 0 151.5 -34.5t52.5 -106.5q0 -37 -9 -71t-30 -66t-56 -64t-87 -64l-128 -79l-55 -35t-34.5 -24
t-17.5 -17.5t-5 -13.5q0 -7 12 -7h303q16 0 16 -12v-3l-16 -74q-2 -9 -6.5 -13.5t-15.5 -4.5h-427q-16 0 -16 13v5l8 35q6 25 15.5 48t26.5 45.5t43 45.5t65 49l154 106q51 35 76.5 64.5t34.5 68.5z" />
    <glyph glyph-name="three" unicode="3" 
d="M504 197q-20 -96 -100 -150.5t-222 -54.5q-51 0 -86 6t-57.5 14.5t-32.5 18t-10 15.5v4l14 65q3 16 19 16q7 0 17 -7t27.5 -15.5t45 -15.5t69.5 -7q81 0 124 29t56 87q3 12 3 26q0 36 -28 57.5t-87 21.5h-29q-15 0 -15 12v2l13 62q3 18 22 18h16q31 0 58 8t47 24t31.5 39
t11.5 53q0 29 -20.5 49t-72.5 20q-40 0 -69.5 -7t-50 -16t-34 -16t-22.5 -7q-12 0 -12 11v5l14 66q2 11 20 21.5t46.5 19t65.5 13.5t76 5q93 0 145 -31.5t52 -95.5q0 -38 -12.5 -70t-33.5 -57t-47.5 -42t-54.5 -25q-8 -2 -10 -7q0 -5 7 -6q111 -18 111 -115q0 -18 -5 -43z
" />
    <glyph glyph-name="four" unicode="4" 
d="M538 176q-4 -18 -22 -18h-51q-10 0 -13 -13l-27 -127q-3 -18 -21 -18h-85q-16 0 -16 13v5l28 131v2q0 7 -8 7h-312q-15 0 -15 12v3l17 78q2 8 4.5 13.5t9.5 12.5l394 399q7 7 13 10t16 3h100q15 0 15 -12v-4l-85 -400v-4q0 -8 7 -8h51q15 0 15 -11v-2zM416 549v2
q0 4 -4 4q-5 0 -13 -9l-257 -270q-6 -6 -6 -10q0 -5 7 -5h203q9 0 12 12z" />
    <glyph glyph-name="five" unicode="5" 
d="M198 -9q-41 0 -75 4.5t-59.5 12t-39.5 17.5t-14 21v5l14 64q3 16 17 16q8 0 18 -7t27 -15.5t43.5 -15.5t67.5 -7q39 0 72.5 11.5t58.5 34t39.5 56.5t14.5 78q0 46 -27.5 68t-80.5 22q-29 0 -47.5 -5.5t-31.5 -11.5t-22 -11.5t-17 -5.5h-58q-15 0 -15 12v3l69 325
q4 18 23 18h393q16 0 16 -11v-3l-16 -74q-3 -18 -22 -18h-299q-14 0 -17 -15l-27 -129v-3q0 -6 6 -6t14.5 3.5t22.5 8t35 8.5t51 4q92 0 140.5 -40.5t48.5 -117.5q0 -58 -21.5 -111.5t-63 -94.5t-101.5 -65.5t-137 -24.5z" />
    <glyph glyph-name="six" unicode="6" 
d="M567 657q16 -8 16 -19v-4l-15 -70q-3 -16 -17 -16q-8 0 -18.5 7t-27 16t-41.5 16t-63 7q-32 0 -67 -12t-64 -41q-18 -18 -32 -42.5t-23.5 -47.5t-14.5 -42.5t-5 -26.5q0 -6 6 -6t16 8t29 18t47.5 18t70.5 8q78 0 125 -38.5t47 -115.5q0 -47 -17.5 -97.5t-53.5 -91.5
t-90.5 -67.5t-129.5 -26.5q-101 0 -153.5 45.5t-52.5 149.5q0 58 16 131q18 85 48.5 154t75 117.5t104.5 74.5t137 26q49 0 85.5 -9t61.5 -23zM399 205q2 12 3.5 22.5t1.5 20.5q0 42 -23.5 65t-71.5 23q-33 0 -60.5 -13t-47 -36.5t-30 -55t-10.5 -67.5q0 -41 22.5 -65
t72.5 -24q60 0 95.5 36.5t47.5 93.5z" />
    <glyph glyph-name="seven" unicode="7" 
d="M596 622q-6 -26 -19.5 -55t-46.5 -74l-188 -255q-15 -20 -25 -39.5t-18.5 -41t-15.5 -47.5t-14 -58l-8 -34q-4 -18 -22 -18h-96q-15 0 -15 13v3l6 29q17 79 48.5 141t73.5 113l175 207q16 19 25 34t9 28q0 6 -11 6h-316q-15 0 -15 13v5l15 70q4 18 22 18h430q15 0 15 -12
v-3z" />
    <glyph glyph-name="eight" unicode="8" 
d="M518 181q-20 -91 -94.5 -140t-195.5 -49q-107 0 -156.5 37.5t-49.5 100.5q0 42 13 76t36 60.5t55.5 45t70.5 30.5q11 3 11 9q0 3 -7 7l-6 3q-35 20 -51.5 49t-16.5 66q0 46 17.5 85.5t50.5 67.5t81 44t110 16q92 0 136.5 -33.5t44.5 -90.5q0 -33 -10.5 -62.5t-30 -53.5
t-46 -41.5t-57.5 -26.5q-12 -3 -12 -9q0 -2 6 -6l9 -5q53 -29 75.5 -59.5t22.5 -72.5q0 -23 -6 -48zM451 524q3 13 3 25q0 62 -83 62q-55 0 -87.5 -27.5t-32.5 -79.5q0 -22 12.5 -39t40.5 -34l24 -15q10 -6 19 -6q7 0 22 8t31.5 22.5t30.5 35.5t20 48zM388 170q3 15 3 26
q0 22 -13.5 39t-48.5 40l-37 24q-11 7 -20 7q-3 0 -9 -1t-14 -5q-47 -20 -74 -58t-27 -90q0 -79 102 -79q55 0 91.5 25.5t46.5 71.5z" />
    <glyph glyph-name="nine" unicode="9" 
d="M46 23q-16 11 -16 22v4l14 67q3 16 18 16q8 0 18.5 -7t27.5 -16t42 -16t62 -7q45 0 83.5 16.5t68.5 58.5q12 17 22.5 38.5t18 41.5t12 35.5t4.5 21.5t-7 6q-6 0 -17 -8t-29.5 -18t-46.5 -18t-70 -8q-37 0 -68.5 9t-54 28t-35.5 48t-13 68q0 61 21 113t59.5 90t92 59.5
t118.5 21.5q103 0 154.5 -44.5t51.5 -147.5q0 -58 -16 -134q-16 -74 -43 -141.5t-70.5 -118.5t-105.5 -81.5t-146 -30.5q-45 0 -85.5 9t-64.5 23zM216 475q-5 -25 -5 -42q0 -42 22.5 -65.5t73.5 -23.5q34 0 61 13.5t46 37.5t29 55.5t10 67.5q0 40 -22 63.5t-72 23.5
q-61 0 -95.5 -36.5t-47.5 -93.5z" />
    <glyph glyph-name="colon" unicode=":" horiz-adv-x="266" 
d="M152 61q-8 -38 -31 -54t-65 -16q-34 0 -51 11t-17 37q0 51 27 73.5t72 22.5q68 0 68 -49q0 -10 -3 -25zM235 450q-8 -38 -31.5 -54t-65.5 -16q-34 0 -50.5 11t-16.5 37q0 51 27 73t72 22q35 0 51.5 -11t16.5 -37q0 -12 -3 -25z" />
    <glyph glyph-name="semicolon" unicode=";" horiz-adv-x="266" 
d="M237 450q-8 -38 -32.5 -54t-65.5 -16q-67 0 -67 49q0 52 28 73t72 21q35 0 51.5 -11t16.5 -37q0 -12 -3 -25zM151 38q-7 -32 -24.5 -60.5t-37.5 -50t-38 -34t-27 -12.5q-10 0 -21 8q-16 13 -20.5 18t-4.5 11q0 5 8.5 12t18 16.5t18 21.5t8.5 28q0 6 -6.5 10t-14 9
t-13.5 13.5t-6 24.5q0 37 26.5 59t65.5 22q71 0 71 -65q0 -15 -3 -31z" />
    <glyph glyph-name="less" unicode="&#x3c;" 
d="M66 352q2 11 8 16t15 9l474 206q11 5 17 6.5t10 1.5q12 0 12 -10v-1l-11 -53q-2 -11 -8.5 -17t-16.5 -11l-382 -156q-10 -4 -10 -12q0 -4 6 -8l315 -156q14 -7 14 -19v-7l-12 -52q-1 -7 -6 -10.5t-11 -3.5q-7 0 -23 8l-387 206q-12 6 -12 19v5z" />
    <glyph glyph-name="equal" unicode="=" 
d="M105 409q-22 0 -22 17q0 2 1 8t7 33q6 26 32 26h433q23 0 23 -18q0 -2 -1 -8t-7 -33q-4 -25 -33 -25h-433zM56 176q-23 0 -23 18q0 1 1.5 7.5t6.5 32.5q6 26 33 26h433q22 0 22 -17q0 -2 -1 -8.5t-7 -33.5q-4 -25 -32 -25h-433z" />
    <glyph glyph-name="greater" unicode="&#x3e;" 
d="M545 314q-4 -11 -8.5 -16t-13.5 -9l-475 -206q-19 -8 -27 -8q-11 0 -11 12v2l11 50q2 11 8 17t17 11l381 156q10 5 10 13q0 5 -6 7l-314 156q-14 8 -14 19v3t1 8t3.5 17t6.5 31q3 14 17 14q8 0 23 -8l388 -206q13 -7 13 -19z" />
    <glyph glyph-name="question" unicode="?" horiz-adv-x="498" 
d="M487 508q-18 -85 -103 -157l-110 -92q-17 -14 -24.5 -26t-12.5 -31l-5 -24q-4 -19 -23 -19h-66q-15 0 -15 13v6l8 37q8 33 23.5 58t46.5 54l74 69q68 64 68 128q0 34 -23.5 52t-75.5 18q-37 0 -64 -7t-46.5 -16t-32.5 -16t-21 -7q-12 0 -12 11v5l14 65q3 13 21 24t47 19
t66.5 12.5t78.5 4.5q99 0 145.5 -36t46.5 -99q0 -11 -1.5 -22.5t-3.5 -23.5zM233 72q0 -37 -23.5 -60.5t-64.5 -23.5q-70 0 -70 47q0 39 26 61t68 22q32 0 48 -12.5t16 -33.5z" />
    <glyph glyph-name="at" unicode="@" horiz-adv-x="963" 
d="M907 337q0 -31 -4.5 -69t-17.5 -76.5t-35.5 -74.5t-58.5 -64t-87 -45t-120 -17q-25 0 -41 1t-25 3t-12.5 5t-3.5 7q0 5 0.5 6.5t0.5 3.5q0 7 -8 7q-9 0 -18 -5.5t-23 -11.5t-35 -11.5t-54 -5.5q-41 0 -68.5 11.5t-45 32.5t-25 51t-7.5 66q0 49 10 93.5t25.5 82t33.5 66.5
t34 47q38 43 79 61.5t97 18.5q21 0 35.5 -4t25 -8.5t17.5 -8t12 -3.5q4 0 5.5 3t3 6.5t4 6.5t9.5 3h78q11 0 11 -8q0 -5 -3.5 -21.5t-8.5 -38.5l-73 -317q-4 -16 -6.5 -30t-2.5 -21q0 -15 24 -15q31 0 63.5 13.5t59.5 45t44.5 83t17.5 126.5q0 146 -81.5 226.5t-230.5 80.5
q-98 0 -170.5 -32.5t-120 -88.5t-70.5 -130.5t-23 -159.5q0 -84 25 -152t74 -116t122.5 -73.5t170.5 -25.5q48 0 84 5.5t61 12t39.5 12t19.5 5.5q7 0 12.5 -8t8.5 -18t4.5 -19t1.5 -11q0 -9 -20.5 -18.5t-55 -17t-80 -12.5t-96.5 -5q-108 0 -193.5 30t-145.5 85t-91.5 133.5
t-31.5 176.5q0 111 34 203t95.5 158t148.5 102.5t193 36.5q96 0 171.5 -27t128.5 -76t81 -118.5t28 -153.5zM561 417q0 16 -14.5 24t-38.5 8q-27 0 -49 -12t-42 -39q-15 -20 -28.5 -50t-24 -64.5t-16.5 -70.5t-6 -67q0 -38 16.5 -59t53.5 -21q33 0 55.5 16.5t30.5 52.5
l59 250q2 9 3 18t1 14z" />
    <glyph glyph-name="A" unicode="A" horiz-adv-x="604" 
d="M534 19q0 -19 -19 -19h-100q-14 0 -16 12l-18 202q-1 6 -3.5 9t-10.5 3h-198q-8 0 -12.5 -2t-8.5 -9l-108 -203q-7 -12 -21 -12h-72q-15 0 -15 11q0 5 2 8.5t4 8.5l347 628q10 17 21 25t28 8h93q18 0 26 -6.5t10 -25.5l62 -554q5 -46 7 -64t2 -20zM358 310q14 0 14 14
q0 2 -0.5 16t-2.5 30l-19 195q-1 10 -6 10q-6 0 -11 -11l-124 -232q-2 -5 -4 -9.5t-2 -7.5q0 -5 8 -5h147z" />
    <glyph glyph-name="B" unicode="B" horiz-adv-x="596" 
d="M528 237q0 -54 -24.5 -103t-67.5 -82q-36 -27 -86 -39.5t-131 -12.5h-197q-16 0 -16 13v5l137 644q2 11 8.5 14.5t14.5 3.5h209q100 0 142.5 -31.5t42.5 -87.5q0 -41 -12 -73.5t-31.5 -56.5t-44.5 -39t-52 -21q-7 -2 -9 -4t-2 -4t11 -5q60 -14 84 -45.5t24 -75.5z
M419 499q2 9 3 17.5t1 15.5q0 34 -23 51.5t-76 17.5h-54q-9 0 -12 -12l-39 -182v-4q0 -8 8 -8h51q22 0 44 4.5t41 16.5t33.5 32t22.5 51zM391 199q4 19 4 37q0 79 -107 79h-79q-9 0 -12 -12l-45 -211v-4q0 -9 8 -9h73q69 0 107 29.5t51 90.5z" />
    <glyph glyph-name="C" unicode="C" horiz-adv-x="637" 
d="M540 55q-2 -9 -5.5 -14.5t-12.5 -10.5q-25 -13 -74 -25.5t-118 -12.5q-147 0 -223 62t-76 179q0 43 11 95q18 85 56.5 152.5t94.5 113.5t127.5 70.5t155.5 24.5q46 0 81 -5.5t58.5 -13.5t35.5 -17.5t12 -17.5v-5l-15 -67q-3 -16 -17 -16q-8 0 -19 7t-28 15.5t-43.5 15.5
t-66.5 7q-114 0 -190.5 -67.5t-104.5 -196.5q-4 -20 -6 -39t-2 -36q0 -81 48.5 -123t144.5 -42q42 0 72 7t51 15.5t34 15.5t20 7q13 0 13 -9v-3z" />
    <glyph glyph-name="D" unicode="D" horiz-adv-x="717" 
d="M676 344q-20 -91 -65 -160t-114 -116q-54 -36 -121 -52t-149 -16h-206q-15 0 -15 13v5l137 643q4 19 23 19h222q82 0 139 -17t92 -49t51 -77.5t16 -101.5q0 -44 -10 -91zM538 343q9 45 9 79q0 46 -15 77t-41 50t-62.5 27t-79.5 8h-79q-11 0 -14 -12l-99 -464v-2
q0 -10 11 -10h70q39 0 84 8t87.5 34t77 74.5t51.5 130.5z" />
    <glyph glyph-name="E" unicode="E" horiz-adv-x="531" 
d="M429 18q-3 -18 -21 -18h-387q-15 0 -15 14v4l137 644q4 18 22 18h367q15 0 15 -11v-2l-14 -65q-2 -10 -6 -14t-15 -4h-243q-10 0 -13 -12l-33 -155v-2q0 -10 9 -10h190q15 0 15 -11v-3l-14 -64q-4 -19 -22 -19h-190q-11 0 -14 -12l-40 -188v-3q0 -9 10 -9h261
q15 0 15 -11v-3z" />
    <glyph glyph-name="F" unicode="F" horiz-adv-x="483" 
d="M523 602q-3 -18 -21 -18h-232q-11 0 -14 -12l-35 -165v-4q0 -8 9 -8h185q15 0 15 -12v-3l-13 -63q-4 -19 -22 -19h-185q-12 0 -15 -12l-57 -268q-3 -18 -21 -18h-96q-15 0 -15 13v5l137 644q5 18 22 18h357q15 0 15 -12v-2z" />
    <glyph glyph-name="G" unicode="G" horiz-adv-x="678" 
d="M553 53q-2 -11 -12 -19.5t-40 -17.5q-29 -9 -73 -16.5t-98 -7.5q-141 0 -220 60t-79 181q0 40 11 93q18 85 56.5 152t94.5 114t128 72t158 25q41 0 77 -4.5t62.5 -12t42 -17t15.5 -18.5v-5l-15 -69q-3 -16 -18 -16q-7 0 -18 7t-29.5 15.5t-47 15.5t-69.5 7
q-120 0 -197 -68t-104 -198q-9 -42 -9 -76q0 -81 47 -122.5t143 -41.5q42 0 58.5 6.5t18.5 18.5l39 185q4 18 22 18h93q15 0 15 -12v-3z" />
    <glyph glyph-name="H" unicode="H" horiz-adv-x="704" 
d="M560 18q-3 -18 -21 -18h-96q-14 0 -14 13v5l59 274v3q0 9 -9 9h-269q-12 0 -13 -12l-59 -274q-3 -18 -21 -18h-96q-15 0 -15 13v5l137 644q4 18 22 18h96q15 0 15 -12v-3l-54 -251v-3q0 -9 9 -9h269q11 0 13 12l53 248q4 18 21 18h96q15 0 15 -12v-3z" />
    <glyph glyph-name="I" unicode="I" horiz-adv-x="286" 
d="M140 18q-3 -18 -21 -18h-96q-15 0 -15 13v5l137 644q4 18 22 18h96q15 0 15 -12v-3z" />
    <glyph glyph-name="J" unicode="J" horiz-adv-x="339" 
d="M225 146q-17 -75 -64 -114.5t-132 -39.5q-38 0 -60.5 6.5t-22.5 20.5v3l13 61q4 17 17 17q10 0 18 -6t30 -6q27 0 45 14.5t26 54.5l107 505q5 18 22 18h96q15 0 15 -12v-2z" />
    <glyph glyph-name="K" unicode="K" horiz-adv-x="592" 
d="M519 15q0 -8 -5.5 -11.5t-13.5 -3.5h-111q-10 0 -14 3t-9 13l-139 288q-4 8 -13 8q-13 0 -16 -13l-60 -281q-3 -18 -20 -18h-98q-14 0 -14 13v5l137 644q4 18 21 18h98q14 0 14 -12v-2l-55 -259v-4q0 -8 9 -8q10 0 19 9l263 259q12 12 18 14.5t15 2.5h88q13 0 13 -9
q0 -8 -14 -22l-275 -264q-5 -5 -6.5 -8t-1.5 -8q0 -4 2 -8l163 -329q5 -12 5 -17z" />
    <glyph glyph-name="L" unicode="L" horiz-adv-x="468" 
d="M388 18q-3 -18 -21 -18h-346q-15 0 -15 13v5l137 644q4 18 22 18h96q15 0 15 -12v-3l-118 -556v-4q0 -9 10 -9h219q15 0 15 -11v-3z" />
    <glyph glyph-name="M" unicode="M" horiz-adv-x="875" 
d="M731 18q-3 -18 -20 -18h-90q-14 0 -14 13v5l108 504q0 5 -4 5q-5 0 -9 -8l-245 -464q-10 -19 -17 -30t-13.5 -16.5t-15 -7t-20.5 -1.5h-74q-12 0 -20 1.5t-13 7t-7.5 16.5t-4.5 30l-46 464q-1 8 -5 8q-6 0 -8 -10l-106 -499q-4 -18 -20 -18h-67q-14 0 -14 13v5l137 644
q4 18 22 18h143q23 0 24 -16l56 -530q1 -9 5 -9q5 0 10 9l278 525q7 13 12 17t16 4h145q15 0 15 -12v-3z" />
    <glyph glyph-name="N" unicode="N" horiz-adv-x="702" 
d="M558 18q-3 -18 -21 -18h-112q-14 0 -21.5 7.5t-18.5 38.5l-156 470q-3 8 -7 8q-5 0 -6 -9l-106 -497q-3 -18 -20 -18h-70q-14 0 -14 13v5l137 644q5 18 22 18h130q20 0 25 -15l157 -477q3 -8 8 -8q3 0 6 9l100 473q4 18 21 18h70q14 0 14 -12v-2z" />
    <glyph glyph-name="O" unicode="O" horiz-adv-x="747" 
d="M704 342q-16 -76 -49.5 -140t-84.5 -110.5t-118.5 -73t-152.5 -26.5q-134 0 -201 66t-67 179q0 24 3.5 49.5t8.5 52.5q16 76 49.5 140t84 110.5t118.5 73t152 26.5q134 0 201.5 -66t67.5 -179q0 -48 -12 -102zM567 340q5 26 8 49.5t3 44.5q0 80 -38.5 120t-112.5 40
q-44 0 -83.5 -16t-71.5 -48t-55.5 -79t-36.5 -110q-11 -53 -11 -94q0 -78 37 -119.5t113 -41.5q94 0 158 66.5t90 187.5z" />
    <glyph glyph-name="P" unicode="P" horiz-adv-x="562" 
d="M570 483q-13 -60 -48 -109t-87 -75q-34 -17 -74 -24t-99 -7h-59q-11 0 -14 -12l-51 -238q-3 -18 -21 -18h-96q-15 0 -15 13v5l137 644q4 18 21 18h220q44 0 79.5 -7.5t60.5 -24.5t38.5 -46.5t13.5 -72.5q0 -9 -1.5 -21t-4.5 -25zM432 477q5 25 5 41q0 80 -107 80h-57
q-11 0 -14 -13l-48 -224q0 -10 10 -10h54q64 0 103.5 30t53.5 96z" />
    <glyph glyph-name="Q" unicode="Q" horiz-adv-x="747" 
d="M704 342q-16 -75 -47 -135t-74 -103.5t-96.5 -69.5t-113.5 -33q-14 -2 -19.5 -8.5t-5.5 -26.5q0 -12 5 -22.5t16.5 -18.5t31.5 -13t50 -5q28 0 48 4t33.5 9.5t22 9.5t14.5 4q11 0 11 -12v-1l-14 -63q-5 -23 -45.5 -33.5t-112.5 -10.5q-86 0 -136.5 32.5t-50.5 100.5
q0 11 3 22t3 24q0 4 -10 7q-89 18 -137.5 77t-48.5 159q0 47 12 103q16 76 49.5 140t84 110.5t118.5 73t152 26.5q134 0 201.5 -66t67.5 -179q0 -48 -12 -102zM567 340q11 50 11 94q0 34 -7.5 63.5t-25.5 51t-47 33.5t-71 12q-66 0 -114.5 -32.5t-80.5 -83t-47.5 -112
t-15.5 -119.5q0 -34 7.5 -63.5t25.5 -51t46.5 -34t70.5 -12.5q54 0 96 21.5t72 56.5t49.5 81t30.5 95z" />
    <glyph glyph-name="R" unicode="R" horiz-adv-x="593" 
d="M515 14q0 -14 -17 -14h-114q-19 0 -24 15l-126 282q-5 11 -16 11h-10q-10 0 -12 -11l-60 -279q-3 -18 -20 -18h-96q-14 0 -14 13v5l137 644q4 18 22 18h186q60 0 101 -7.5t66.5 -23t37 -39.5t11.5 -56q0 -10 -1.5 -20.5t-3.5 -22.5q-17 -81 -66 -124.5t-115 -56.5
q-13 -3 -13 -7t3 -10l139 -282q5 -9 5 -17zM427 499q3 16 3 30q0 37 -25 54.5t-80 17.5h-54q-9 0 -12 -11l-40 -189v-4q0 -7 8 -7h54q59 0 96.5 27.5t49.5 81.5z" />
    <glyph glyph-name="S" unicode="S" horiz-adv-x="504" 
d="M421 191q-20 -94 -89.5 -146.5t-184.5 -52.5q-27 0 -57.5 4t-56 10.5t-42.5 16t-17 21.5v5l14 67q3 16 18 16q8 0 17.5 -7t26 -15.5t43 -15.5t67.5 -7q66 0 99 29.5t33 75.5q0 17 -9.5 33.5t-32.5 33.5l-103 77q-34 26 -51.5 55.5t-17.5 69.5q0 11 1.5 22t3.5 23
q20 92 90 137.5t176 45.5q25 0 52 -4t50 -11t38 -16.5t15 -19.5v-3l-15 -72q-2 -6 -5.5 -10.5t-11.5 -4.5q-9 0 -19 7t-25 16t-39 16t-61 7q-40 0 -63.5 -11.5t-35.5 -26.5t-15.5 -31t-3.5 -25q0 -19 12 -36t43 -38l79 -54q45 -31 64 -59.5t19 -68.5q0 -25 -6 -53z" />
    <glyph glyph-name="T" unicode="T" horiz-adv-x="535" 
d="M591 602q-3 -18 -21 -18h-176q-11 0 -14 -12l-118 -554q-3 -18 -20 -18h-97q-14 0 -14 13v5l119 557v2q0 7 -9 7h-176q-15 0 -15 13v5l13 60q4 18 22 18h505q15 0 15 -12v-2z" />
    <glyph glyph-name="U" unicode="U" horiz-adv-x="689" 
d="M594 239q-27 -131 -106 -193t-223 -62q-61 0 -104 11t-70.5 32t-40 51.5t-12.5 70.5q0 37 9 78l93 435q4 18 21 18h97q14 0 14 -12v-3l-89 -416q-4 -17 -5.5 -33t-1.5 -30q0 -51 29 -76t95 -25q79 0 123.5 38t61.5 122l88 417q4 18 21 18h76q15 0 15 -12v-3z" />
    <glyph glyph-name="V" unicode="V" horiz-adv-x="604" 
d="M676 670q0 -5 -7 -18l-347 -626q-10 -17 -20 -25.5t-28 -8.5h-96q-20 0 -27.5 6.5t-9.5 28.5l-73 631v2q0 20 21 20h101q14 0 15 -12l52 -542q1 -12 7 -12q4 0 11 12l288 542q4 8 8.5 10t12.5 2h78q14 0 14 -10z" />
    <glyph glyph-name="W" unicode="W" horiz-adv-x="952" 
d="M1020 671q0 -6 -8 -22l-291 -600q-8 -17 -15 -28t-14.5 -17.5t-15.5 -9t-18 -2.5h-92q-21 0 -29.5 9.5t-8.5 41.5l-3 496q0 14 -5 14q-6 0 -11 -13l-218 -506q-10 -23 -22 -32.5t-33 -9.5h-99q-17 0 -25.5 6.5t-10.5 31.5l-31 619q0 14 3 22.5t17 8.5h97q16 0 16 -14
l17 -543q0 -13 6 -13q5 0 11 13l222 515q10 23 23 32.5t33 9.5h87q22 0 30.5 -10t8.5 -35l3 -505q0 -10 1.5 -13t4.5 -3q6 0 11 13l245 539q4 8 8.5 11t13.5 3h77q15 0 15 -9z" />
    <glyph glyph-name="X" unicode="X" horiz-adv-x="599" 
d="M527 17q0 -17 -19 -17h-112q-15 0 -19 11l-104 239q-4 10 -10 10q-5 0 -12 -9l-197 -239q-5 -7 -9 -9.5t-12 -2.5h-85q-14 0 -14 11q0 5 3 10.5t8 10.5l267 302q6 8 7.5 10.5t1.5 4.5q0 5 -4 13l-128 287q-4 9 -4 15q0 16 20 16h112q12 0 18 -11l90 -204q5 -11 9 -11
q5 0 12 10l168 204q9 12 23 12h81q15 0 15 -10q0 -7 -12 -20l-239 -271q-7 -8 -7 -14q0 -5 3 -11l145 -323q4 -8 4 -14z" />
    <glyph glyph-name="Y" unicode="Y" horiz-adv-x="544" 
d="M618 671q0 -7 -11 -21l-269 -347q-10 -13 -14 -22t-8 -27l-50 -236q-5 -18 -20 -18h-98q-14 0 -14 14v4l47 218q5 22 5 30q0 6 -1.5 12t-4.5 14l-127 357q-4 11 -4 16t4.5 10t12.5 5h105q16 0 21 -15l86 -270q4 -10 10 -10t13 10l202 270q7 9 12.5 12t15.5 3h76
q11 0 11 -9z" />
    <glyph glyph-name="Z" unicode="Z" horiz-adv-x="560" 
d="M462 18q-3 -18 -21 -18h-475q-14 0 -14 13v5l16 73q2 11 6 19t12 16l419 438q9 9 9 15q0 5 -8 5h-304q-14 0 -14 12v5l13 61q4 18 21 18h455q15 0 15 -11v-2l-14 -67q-2 -11 -6 -18.5t-12 -16.5l-429 -448q-8 -8 -9 -14q0 -3 2 -5t10 -2h327q15 0 15 -11v-3z" />
    <glyph glyph-name="bracketleft" unicode="[" horiz-adv-x="293" 
d="M139 -199q-4 -21 -25 -21h-164q-18 0 -18 14v3l192 901q4 22 27 22h163q17 0 17 -13v-3l-8 -39q-4 -20 -25 -20h-69q-12 0 -15 -13l-163 -765v-2q0 -10 11 -10h68q17 0 17 -13v-2z" />
    <glyph glyph-name="backslash" unicode="\" horiz-adv-x="500" 
d="M152 710q0 8 1.5 15t8.5 12q6 4 14.5 7t17.5 4.5t16.5 2t11.5 0.5q14 0 14 -19l-33 -933q0 -11 -2 -17.5t-10 -11.5q-12 -7 -30 -9.5t-27 -2.5q-15 0 -15 16v2t0.5 13t1.5 35t2.5 68t3.5 111.5t5.5 166t8.5 232t11 308.5z" />
    <glyph glyph-name="bracketright" unicode="]" horiz-adv-x="293" 
d="M114 699q4 21 25 21h164q18 0 18 -14v-3l-192 -901q-4 -22 -27 -22h-163q-17 0 -17 13v3l8 39q4 20 25 20h69q12 0 15 13l163 765v2q0 10 -11 10h-68q-17 0 -17 13v2z" />
    <glyph glyph-name="asciicircum" unicode="^" 
d="M392 691q11 0 16.5 -4.5t7.5 -12.5l113 -423q2 -8 3.5 -16.5t1.5 -12.5q0 -8 -5.5 -13t-12.5 -5h-50q-20 0 -24 19l-82 348q-3 8 -8 8q-7 0 -12 -8l-230 -348q-7 -10 -14 -14.5t-18 -4.5h-50q-11 0 -11 10q0 4 2.5 10.5t10.5 18.5l298 431q12 17 27 17h37z" />
    <glyph glyph-name="underscore" unicode="_" horiz-adv-x="500" 
d="M453 -138q-4 -21 -25 -21h-506q-19 0 -19 15q0 2 0.5 5t4.5 17q6 21 20 21h512q17 0 17 -13q0 -2 -0.5 -6t-3.5 -18z" />
    <glyph glyph-name="grave" unicode="`" horiz-adv-x="500" 
d="M418 587q0 -8 -10 -20.5t-18 -12.5t-14.5 2.5t-19.5 9.5l-138 71q-15 7 -15 20t27 50q9 12 15.5 15.5t14.5 3.5q7 0 12.5 -3.5t15.5 -12.5l123 -107q7 -6 7 -16z" />
    <glyph glyph-name="a" unicode="a" horiz-adv-x="544" 
d="M401 18q-3 -18 -21 -18h-85q-10 0 -10 9v5q0 6 -8 6q-9 0 -21.5 -4.5t-29.5 -9.5t-40 -9.5t-52 -4.5q-42 0 -70 8.5t-44.5 23.5t-23 34.5t-6.5 40.5q0 18 5 40q7 33 21 58t37.5 44.5t57 35t79.5 28.5l127 36q21 6 27.5 11t9.5 17q4 14 4.5 19.5t0.5 7.5q0 20 -19.5 30
t-65.5 10q-41 0 -71 -6.5t-51 -15t-34 -15t-20 -6.5q-11 0 -11 12v4l13 57q2 14 22.5 25t51 18t66.5 10.5t69 3.5q94 0 132.5 -28t38.5 -80q0 -14 -1.5 -30t-6.5 -36zM321 216q5 22 6.5 31t1.5 12q0 5 -6 5q-3 0 -8 -1t-16 -5l-81 -26q-44 -14 -69.5 -36.5t-25.5 -66.5
q0 -27 19 -38.5t51 -11.5q44 0 74.5 14t36.5 42z" />
    <glyph glyph-name="b" unicode="b" horiz-adv-x="607" 
d="M550 264q-14 -66 -42.5 -117t-68 -85.5t-88.5 -52t-104 -17.5q-27 0 -45.5 4.5t-31 9.5t-21.5 9.5t-18 4.5q-8 0 -10 -3t-4 -8t-4 -7t-9 -2h-88q-14 0 -14 13v5l146 684q3 18 22 18h89q14 0 14 -12v-2l-44 -204v-2q0 -7 8 -7q5 0 16 4.5t27.5 10.5t38.5 10.5t50 4.5
q94 0 142 -47.5t48 -133.5q0 -36 -9 -78zM418 262q7 32 7 62q0 51 -26.5 80t-89.5 29q-37 0 -68.5 -14t-38.5 -44l-50 -235q-1 -4 -1 -11q0 -14 8 -23t20 -14.5t27 -7.5t29 -2q65 0 114 42t69 138z" />
    <glyph glyph-name="c" unicode="c" horiz-adv-x="517" 
d="M408 45q-3 -14 -20 -24t-42 -16.5t-55.5 -9.5t-60.5 -3q-109 0 -162.5 47.5t-53.5 135.5q0 37 9 78q13 61 40.5 111t69.5 85t97.5 54.5t125.5 19.5q30 0 56.5 -3.5t46 -9.5t31 -13.5t11.5 -15.5v-3l-15 -65q-2 -10 -6 -13t-11 -3q-9 0 -17 5.5t-21 12t-32.5 12t-51.5 5.5
q-81 0 -129 -48t-65 -129q-6 -32 -6 -57q0 -58 31 -86.5t88 -28.5q33 0 56.5 5.5t41 12.5t28.5 12.5t18 5.5q11 0 11 -11v-2z" />
    <glyph glyph-name="d" unicode="d" horiz-adv-x="608" 
d="M467 18q-3 -18 -20 -18h-88q-10 0 -10 10v5q0 5 -8 5q-9 0 -20.5 -4.5t-28 -9.5t-38.5 -9.5t-51 -4.5q-94 0 -141.5 48t-47.5 133q0 38 9 80q14 66 42.5 116t68 84.5t88 52t103.5 17.5q27 0 46.5 -4t32.5 -9.5t20.5 -9.5t11.5 -4q9 0 12 13l41 193q3 18 21 18h91
q13 0 13 -12v-3zM421 383v5q0 20 -21.5 32.5t-61.5 12.5q-69 0 -117 -42.5t-68 -135.5q-4 -17 -5.5 -33t-1.5 -30q0 -51 27 -80.5t90 -29.5q38 0 69 14t38 46z" />
    <glyph glyph-name="e" unicode="e" horiz-adv-x="566" 
d="M504 255q-5 -18 -22 -18h-317q-13 0 -17.5 -13t-4.5 -41q0 -49 32.5 -77t99.5 -28q34 0 61 6t46.5 12.5t31.5 12.5t17 6q13 0 13 -10v-2l-13 -56q-3 -15 -20 -25.5t-42.5 -17.5t-58 -10t-68.5 -3q-116 0 -172 47.5t-56 136.5q0 36 9 77q15 68 44 119t69 84.5t89 50.5
t103 17q99 0 144.5 -45.5t45.5 -121.5q0 -17 -4.5 -47t-9.5 -54zM379 318q11 0 14.5 10t3.5 32q0 38 -23 59.5t-71 21.5q-32 0 -57.5 -13t-42.5 -31t-26 -38t-9 -35q0 -6 10 -6h201z" />
    <glyph glyph-name="f" unicode="f" horiz-adv-x="328" 
d="M336 447q-4 -19 -23 -19h-78q-11 0 -14 -12l-85 -398q-3 -18 -20 -18h-91q-13 0 -13 13v5l85 398q0 2 0.5 2.5t0.5 1.5q0 8 -10 8h-48q-14 0 -14 12v3l11 54q4 18 22 18h48q11 0 14 12l11 52q15 71 60 108.5t117 37.5q44 0 63.5 -8t19.5 -21v-3l-12 -52q-4 -16 -17 -16
q-9 0 -16.5 5.5t-26.5 5.5q-53 0 -66 -63l-9 -46v-5q0 -7 9 -7h78q15 0 15 -11v-3z" />
    <glyph glyph-name="g" unicode="g" horiz-adv-x="604" 
d="M464 19q-9 -40 -19.5 -69.5t-26.5 -52.5q-42 -60 -115 -84.5t-162 -24.5q-36 0 -69.5 4.5t-59 12t-41 17t-15.5 18.5v5l13 59q3 17 17 17q7 0 17.5 -7t29 -15t48 -15t74.5 -7q75 0 118.5 24t55.5 75q5 20 7.5 33.5t2.5 15.5q0 7 -7 7q-5 0 -15.5 -5t-27 -11t-38.5 -11
t-50 -5q-94 0 -142.5 46.5t-48.5 131.5q0 35 9 77q14 66 42 116.5t67.5 84t88.5 50.5t104 17q27 0 45.5 -4.5t31.5 -10t22 -10t17 -4.5t12 9q2 5 5.5 8.5t11.5 3.5h85q15 0 15 -12v-3zM416 382v5q0 25 -25 36t-57 11q-69 0 -116.5 -41t-67.5 -136q-7 -31 -7 -60
q0 -51 27.5 -79t90.5 -28q38 0 68 14t37 45z" />
    <glyph glyph-name="h" unicode="h" horiz-adv-x="591" 
d="M450 18q-3 -18 -20 -18h-91q-13 0 -13 13v5l66 308q2 10 3 18.5t1 16.5q0 35 -20.5 53t-65.5 18q-17 0 -35 -3t-34 -10.5t-27 -19.5t-15 -29l-75 -352q-3 -18 -19 -18h-91q-14 0 -14 14v4l146 684q3 18 22 18h89q14 0 14 -12v-2l-44 -203v-3q0 -10 8 -10q4 0 15.5 5
t29.5 11.5t42.5 11.5t53.5 5q32 0 59.5 -6.5t48 -20.5t32 -36t11.5 -52q0 -20 -4 -44.5t-11 -56.5z" />
    <glyph glyph-name="i" unicode="i" horiz-adv-x="272" 
d="M274 657q-14 -62 -85 -62q-61 0 -61 47q0 38 25.5 58t63.5 20q59 0 59 -45q0 -5 -0.5 -9t-1.5 -9zM128 18q-3 -18 -20 -18h-89q-15 0 -15 14v4l102 479q3 18 22 18h89q14 0 14 -13v-3z" />
    <glyph glyph-name="j" unicode="j" horiz-adv-x="293" 
d="M132 -65q-17 -81 -67 -118t-126 -37q-52 0 -52 17v3l12 55q2 9 6.5 12t9.5 3q6 0 9.5 -0.5t9.5 -0.5q34 0 51 18t25 58l117 552q3 18 21 18h89q15 0 15 -13v-3zM295 657q-14 -62 -85 -62q-61 0 -61 47q0 38 25.5 58t63.5 20q59 0 59 -45q0 -5 -0.5 -9t-1.5 -9z" />
    <glyph glyph-name="k" unicode="k" horiz-adv-x="518" 
d="M442 16q0 -16 -18 -16h-102q-10 0 -14.5 3t-9.5 12l-101 211q-4 8 -13 8q-10 0 -14 -13l-43 -203q-2 -11 -7.5 -14.5t-12.5 -3.5h-89q-6 0 -11 2.5t-5 10.5v2l147 687q3 18 21 18h91q13 0 13 -13v-3l-84 -390v-2q0 -7 8 -7q7 0 16 9l196 185q11 11 17.5 13.5t15.5 2.5h83
q12 0 12 -9q0 -10 -14 -22l-203 -188q-9 -8 -9 -16q0 -3 8 -19l118 -231q4 -8 4 -14z" />
    <glyph glyph-name="l" unicode="l" horiz-adv-x="271" 
d="M126 18q-3 -18 -20 -18h-89q-15 0 -15 14v4l146 684q3 18 22 18h89q14 0 14 -13v-3z" />
    <glyph glyph-name="m" unicode="m" horiz-adv-x="893" 
d="M752 18q-3 -18 -21 -18h-89q-14 0 -14 13v5l66 308q4 19 4 37q0 33 -18.5 51t-61.5 18q-14 0 -31 -2.5t-32 -9.5t-26 -18t-15 -27l-76 -357q-3 -18 -21 -18h-89q-15 0 -15 14v4l66 307q2 11 3.5 20.5t1.5 18.5q0 34 -19 51t-61 17q-14 0 -30.5 -2.5t-32 -9.5t-27 -18
t-15.5 -27l-76 -357q-3 -18 -20 -18h-88q-15 0 -15 13v5l102 479q4 18 22 18h85q11 0 11 -8q0 -2 -0.5 -3.5t-0.5 -3.5q0 -5 10 -5q13 0 25.5 4.5t28 9.5t37 9.5t52.5 4.5q37 0 58.5 -7t34.5 -15.5t20 -15.5t15 -7h6q11 0 25 7t35 15.5t51 15.5t72 7q63 0 101.5 -28.5
t38.5 -85.5q0 -18 -3.5 -40.5t-9.5 -50.5z" />
    <glyph glyph-name="n" unicode="n" horiz-adv-x="590" 
d="M450 18q-3 -18 -21 -18h-89q-14 0 -14 13v5l63 297q6 25 6 49q0 37 -22 52.5t-60 15.5q-18 0 -36.5 -3t-34 -10t-27 -18.5t-15.5 -27.5l-76 -355q-3 -18 -20 -18h-89q-15 0 -15 13v5l102 479q4 18 22 18h86q12 0 12 -9q0 -2 -0.5 -3t-0.5 -3q0 -5 10 -5q12 0 25 4.5
t30.5 9.5t39 9.5t50.5 4.5q70 0 110 -28t40 -88q0 -35 -10 -82z" />
    <glyph glyph-name="o" unicode="o" horiz-adv-x="596" 
d="M539 259q-12 -58 -38.5 -107t-66 -85t-92 -56t-118.5 -20q-106 0 -158 50.5t-52 138.5q0 35 9 76q12 58 38.5 107t66 84.5t92 55.5t118.5 20q106 0 158 -50t52 -138q0 -36 -9 -76zM409 261q9 42 9 74q0 54 -25.5 77.5t-74.5 23.5q-63 0 -104 -42t-62 -140q-9 -44 -9 -74
q0 -54 25 -78t75 -24q62 0 103.5 42t62.5 141z" />
    <glyph glyph-name="p" unicode="p" horiz-adv-x="606" 
d="M549 264q-14 -65 -42 -116t-67 -86t-88 -53t-104 -18q-27 0 -46.5 4.5t-33 9.5t-21 9.5t-11.5 4.5q-10 0 -13 -13l-43 -200q-3 -18 -20 -18h-91q-13 0 -13 12v6l147 691q3 18 22 18h85q12 0 12 -8q0 -2 -0.5 -3t-0.5 -3q0 -6 9 -6t21 4.5t28.5 9.5t38 9.5t50.5 4.5
q94 0 142 -47.5t48 -133.5q0 -36 -9 -78zM417 262q4 17 6 32.5t2 29.5q0 52 -27.5 80.5t-89.5 28.5q-16 0 -33.5 -3t-32.5 -10t-26.5 -18.5t-14.5 -27.5l-50 -236q-1 -3 -1 -10q0 -13 7.5 -22t19.5 -14.5t26.5 -8t29.5 -2.5q31 0 60 9.5t53 31t42 56t29 84.5z" />
    <glyph glyph-name="q" unicode="q" horiz-adv-x="609" 
d="M23 251q14 65 42.5 116t67.5 85.5t88 52.5t103 18q28 0 46.5 -4.5t32 -9.5t22.5 -9.5t17 -4.5q7 0 9.5 3t4 7t4.5 7t11 3h86q14 0 14 -12v-2l-148 -695q-3 -18 -21 -18h-90q-13 0 -13 12v6l43 203q1 2 1 6q0 7 -7 7q-5 0 -15.5 -5t-27 -10.5t-39 -10.5t-50.5 -5
q-92 0 -141 47.5t-49 134.5q0 36 9 78zM154 253q-7 -32 -7 -61q0 -111 117 -111q37 0 68 13.5t38 45.5l52 242v5q0 12 -7 21t-18.5 14.5t-26.5 8t-31 2.5q-69 0 -117 -44t-68 -136z" />
    <glyph glyph-name="r" unicode="r" horiz-adv-x="385" 
d="M392 426q-3 -15 -17 -15q-6 0 -10.5 1t-12 2.5t-19.5 3t-32 1.5q-42 0 -70.5 -18t-37.5 -59l-69 -324q-3 -18 -19 -18h-91q-14 0 -14 14v4l102 479q4 18 21 18h87q11 0 11 -8q0 -2 -1 -6t-1 -10q0 -7 8 -7q11 0 24 6t29.5 13.5t37.5 13.5t47 6q25 0 33.5 -6t8.5 -15v-5z
" />
    <glyph glyph-name="s" unicode="s" horiz-adv-x="420" 
d="M336 188q0 -44 -17 -80.5t-46.5 -62t-70 -39.5t-88.5 -14q-63 0 -105.5 12t-42.5 33v4l12 57q3 17 19 17q6 0 14 -5.5t22 -12.5t35.5 -12.5t54.5 -5.5q45 0 66.5 18t21.5 47q0 13 -8.5 23.5t-28.5 24.5l-69 48q-31 22 -46.5 45.5t-15.5 54.5q0 42 16.5 75.5t45.5 57.5
t69.5 37t87.5 13q26 0 49.5 -3t41.5 -9t28.5 -14t10.5 -17v-4l-13 -59q-2 -7 -5 -11.5t-13 -4.5q-7 0 -15 5.5t-20 12t-29.5 12t-44.5 5.5q-43 0 -64.5 -15t-21.5 -40q0 -13 7.5 -23t23.5 -21l77 -53q32 -23 47 -46.5t15 -49.5z" />
    <glyph glyph-name="t" unicode="t" horiz-adv-x="403" 
d="M295 29q-2 -11 -15.5 -18t-32 -11t-39 -6t-35.5 -2q-27 0 -52 3.5t-44.5 14.5t-31 33t-11.5 58q0 28 9 69l53 250v2q0 7 -8 7h-48q-16 0 -16 13q0 2 0.5 3t0.5 3l10 49q4 18 23 18h48q10 0 13 12l21 101q4 19 22 19h87q16 0 16 -12v-5l-22 -103v-4q0 -8 8 -8h129
q15 0 15 -11v-4l-11 -52q-4 -19 -22 -19h-129q-11 0 -14 -12l-55 -259q-1 -6 -1.5 -12t-0.5 -12q0 -22 11 -36.5t43 -14.5q19 0 31.5 3t21.5 7t15.5 7t11.5 3q12 0 12 -11v-4z" />
    <glyph glyph-name="u" unicode="u" horiz-adv-x="584" 
d="M443 18q-3 -18 -21 -18h-86q-12 0 -12 10v5q0 5 -8 5q-12 0 -25 -4.5t-30 -9.5t-39 -9.5t-53 -4.5q-32 0 -59.5 6t-48 19.5t-32 35t-11.5 51.5q0 20 4 45.5t11 57.5l62 290q3 18 21 18h91q13 0 13 -12v-3l-66 -310q-5 -25 -5 -41q0 -34 20 -50t67 -16q39 0 71 14t39 47
l75 353q3 18 20 18h91q14 0 14 -13v-3z" />
    <glyph glyph-name="v" unicode="v" horiz-adv-x="489" 
d="M515 506q0 -6 -7 -19l-253 -455q-13 -24 -23 -32t-30 -8h-85q-19 0 -26.5 7t-10.5 30l-56 464v3q0 19 21 19h94q16 0 16 -12l33 -379q1 -12 7 -12q5 0 12 12l196 379q6 12 23 12h74q15 0 15 -9z" />
    <glyph glyph-name="w" unicode="w" horiz-adv-x="811" 
d="M829 506q0 -7 -7 -19l-226 -436q-10 -19 -17.5 -30.5t-14.5 -18t-14.5 -8.5t-16.5 -2h-77q-22 0 -30 9.5t-8 41.5l-3 336q0 13 -5 13q-6 0 -11 -13l-146 -332q-14 -32 -27 -43.5t-32 -11.5h-84q-9 0 -15.5 1.5t-11 7t-7 16.5t-4.5 29l-39 437q0 2 -0.5 5t-0.5 5
q0 10 4 16t18 6h91q16 0 16 -12l20 -385q0 -13 6 -13q4 0 11 13l152 350q12 27 25 37t33 10h76q23 0 31 -10.5t8 -39.5l3 -346q0 -14 6 -14q3 0 11 13l179 385q6 12 22 12h70q15 0 15 -9z" />
    <glyph glyph-name="x" unicode="x" horiz-adv-x="478" 
d="M403 17q0 -7 -5 -12t-14 -5h-102q-14 0 -19 11l-69 156q-4 10 -10 10q-5 0 -12 -9l-125 -158q-5 -5 -9.5 -7.5t-12.5 -2.5h-75q-16 0 -16 11q0 5 3 10.5t8 10.5l191 215q10 10 10 16q0 3 -1 5.5t-3 5.5l-96 210q-3 7 -3 14q0 17 21 17h100q8 0 12 -3t6 -9l58 -130
q4 -10 10 -10q5 0 12 9l105 131q9 12 23 12h73q15 0 15 -9q0 -7 -12 -22l-171 -193q-6 -8 -6 -14q0 -7 3 -13l107 -233q4 -8 4 -14z" />
    <glyph glyph-name="y" unicode="y" horiz-adv-x="482" 
d="M518 506q0 -6 -9 -22l-334 -583q-35 -62 -74 -91.5t-97 -29.5q-52 0 -52 16v3l12 57q3 14 16 14q5 0 10.5 -0.5t16.5 -0.5q20 0 35.5 9t29.5 33l21 36q8 12 10 18t2 11q0 3 -0.5 8.5t-1.5 10.5l-76 493v5q0 10 4.5 16t16.5 6h96q8 0 11 -3t4 -9l41 -356q1 -13 6 -13
q6 0 13 13l187 356q7 12 23 12h75q14 0 14 -9z" />
    <glyph glyph-name="z" unicode="z" horiz-adv-x="488" 
d="M375 18q-3 -18 -21 -18h-381q-15 0 -15 13v5l13 59q4 19 18 33l301 300q7 7 7 14q0 4 -8 4h-216q-14 0 -14 11v4l11 54q4 18 22 18h362q16 0 16 -12v-3l-11 -50q-2 -11 -6 -18.5t-12 -16.5l-309 -306q-6 -5 -7.5 -9t-1.5 -7q0 -5 9 -5h240q15 0 15 -11v-3z" />
    <glyph glyph-name="braceleft" unicode="{" horiz-adv-x="363" 
d="M29 217q-16 1 -16 10q0 4 2 16.5t7 30.5q2 6 5.5 9t16.5 4l22 1q31 2 45 16.5t22 51.5l50 233q15 69 54.5 102.5t115.5 33.5h61q15 0 15 -10q0 -2 -2.5 -14t-7.5 -35q-4 -14 -21 -14h-23q-45 0 -68.5 -20t-34.5 -68l-44 -210q-17 -80 -75 -95q-11 -3 -11 -8q0 -3 8 -6
q39 -11 39 -57q0 -15 -5 -38l-44 -209q-4 -19 -4 -36q0 -29 16.5 -40.5t52.5 -11.5h23q16 0 16 -11q0 -2 -3 -15.5t-7 -30.5q-3 -16 -21 -16h-61q-62 0 -90 22.5t-28 67.5q0 11 1.5 21.5t3.5 23.5l50 233q2 9 3 16.5t1 13.5q0 37 -43 38z" />
    <glyph glyph-name="bar" unicode="|" horiz-adv-x="500" 
d="M119 -224q-3 -12 -9 -17.5t-18 -5.5h-42q-17 0 -17 13v4l204 963q6 23 27 23h42q17 0 17 -14v-5z" />
    <glyph glyph-name="braceright" unicode="}" horiz-adv-x="363" 
d="M297 287q9 -1 12 -3t3 -6q0 -2 -2 -14.5t-7 -32.5q-2 -6 -5.5 -8.5t-15.5 -4.5l-23 -2q-30 -2 -44.5 -15t-22.5 -52l-50 -234q-14 -69 -53.5 -102t-114.5 -33h-62q-15 0 -15 11q0 1 1 6.5t2.5 13t3 15.5t3.5 13q4 14 20 14h24q45 0 68.5 19.5t34.5 68.5l45 210
q8 39 25.5 63t49.5 32q10 3 10 8q0 2 -7 6q-39 10 -39 58q0 18 4 37l44 209q2 10 3 18.5t1 16.5q0 29 -16.5 41t-52.5 12h-24q-15 0 -15 12v4l9 41q4 16 22 16h62q61 0 88.5 -22.5t27.5 -67.5q0 -11 -1 -22t-4 -24l-50 -233q-2 -9 -3 -17t-1 -14q0 -20 10 -27t33 -9z" />
    <glyph glyph-name="asciitilde" unicode="~" 
d="M294 478q-23 11 -35 15t-23 4q-20 0 -37 -12t-37 -39q-14 -18 -21 -23t-15 -5q-3 0 -10.5 3t-15 8t-13.5 11t-6 12q0 8 10 24.5t27 36.5q33 38 67 54t64 16q42 0 88 -23l55 -28q22 -11 35 -15t23 -4q20 0 36.5 12.5t36.5 38.5q14 18 21 23t15 5q4 0 11.5 -3t15 -8
t13.5 -11t6 -12q0 -8 -10 -24.5t-27 -36.5q-33 -38 -67.5 -54t-64.5 -16q-20 0 -41 5t-46 18z" />
    <glyph glyph-name="uni00A0" unicode="&#xa0;" horiz-adv-x="266" 
 />
    <glyph glyph-name="exclamdown" unicode="&#xa1;" horiz-adv-x="354" 
d="M1 -147q0 17 5 34.5t11 40.5l105 393q5 16 10 20.5t18 4.5h55q11 0 15 -2.5t4 -11.5v-5l-64 -403q-5 -30 -9 -49t-10.5 -29.5t-16.5 -14.5t-28 -4h-57q-21 0 -29.5 6t-8.5 20zM125 459q7 32 30.5 48t60.5 16q65 0 65 -47q0 -39 -26.5 -61t-67.5 -22q-64 0 -64 49
q0 4 0.5 8t1.5 9z" />
    <glyph glyph-name="cent" unicode="&#xa2;" 
d="M452 46q-3 -14 -17.5 -23.5t-35.5 -16t-46.5 -10t-50.5 -4.5q-11 0 -14 -11l-9 -46q-2 -11 -6.5 -15t-13.5 -4h-30q-16 0 -16 9q0 3 2 12t4.5 19.5t4.5 19.5t2 13q0 6 -8 7q-34 4 -63.5 17t-51 35t-33.5 54t-12 75q0 34 9 75q23 108 87.5 176.5t167.5 87.5q16 3 19 13
l10 45q2 11 6 15.5t15 4.5h30q14 0 14 -10q0 -4 -1.5 -13t-4 -18t-4 -16.5t-1.5 -8.5q0 -6 8 -6q21 0 44.5 -3t42.5 -8.5t31.5 -13t12.5 -17.5v-3l-14 -64q-3 -16 -17 -16q-9 0 -17 5.5t-20.5 12.5t-32.5 12.5t-52 5.5q-78 0 -127 -46.5t-68 -132.5q-6 -30 -6 -56
q0 -56 29 -86t87 -30q33 0 58 6t42.5 12.5t29 12.5t18.5 6q11 0 11 -10v-3z" />
    <glyph glyph-name="sterling" unicode="&#xa3;" 
d="M483 18q-3 -18 -21 -18h-447q-14 0 -14 9v3l14 65q2 10 6 14.5t16 9.5l11 5q39 17 53 84l24 112v2q0 9 -9 9h-34q-14 0 -14 11v3l10 48q4 18 21 18h34q11 0 14 12l16 78q10 46 30.5 84t53.5 65t80 42t110 15q36 0 64.5 -6t48.5 -14t31 -17.5t11 -15.5t-2 -14l-12 -56
q-2 -6 -6 -11.5t-13 -5.5q-8 0 -16.5 7t-22.5 15t-35 15t-54 7q-65 0 -97.5 -29t-43.5 -82l-16 -77v-4q0 -8 8 -8h117q15 0 15 -12v-2l-10 -48q-5 -18 -22 -18h-117q-11 0 -14 -13l-17 -79q-8 -38 -21 -61.5t-39 -38.5l-4.5 -4.5t-2.5 -5.5q0 -5 7 -5h310q15 0 15 -12v-4z
" />
    <glyph glyph-name="currency" unicode="&#xa4;" 
d="M447 106q-11 -9 -18 -9q-6 0 -13 9l-37 47q-60 -35 -129 -35t-114 35l-57 -47q-9 -9 -17 -9q-6 0 -12 7l-26 32q-3 4 -3.5 7.5t-0.5 6.5q1 7 12 16l57 46q-18 34 -18 76q0 46 19 89.5t50 77.5l-36 45q-6 6 -6 14t13 18l35 29q9 8 16 8q8 0 16 -9l36 -46q31 17 61.5 25.5
t65.5 8.5q68 0 114 -34l57 47q10 9 18 9q6 0 12 -8l26 -32q4 -5 4 -12q0 -8 -12 -17l-57 -46q17 -36 17 -76q0 -48 -18 -90t-49 -77l37 -46q5 -5 5 -12q0 -8 -12 -19zM158 333q-3 -15 -3 -29q0 -47 30 -77.5t81 -30.5q32 0 63 13.5t55 36t38.5 52.5t14.5 63q0 48 -31 78.5
t-82 30.5q-29 0 -56 -10.5t-49.5 -29.5t-38.5 -44t-22 -53z" />
    <glyph glyph-name="yen" unicode="&#xa5;" 
d="M662 671q0 -9 -12 -22l-158 -205q-11 -13 -11 -17q0 -5 8 -5h59q11 0 11 -9v-3l-8 -38q-3 -13 -16 -13h-95q-10 0 -14.5 -2.5t-9.5 -9.5l-21 -27q-7 -10 -7 -13q0 -5 6 -5h129q11 0 11 -8v-1l-9 -41q-3 -13 -16 -13h-140q-11 0 -14 -11l-45 -210q-2 -11 -8 -14.5
t-12 -3.5h-97q-6 0 -10.5 2.5t-4.5 10.5v5l43 198q2 5 2.5 10t0.5 6q0 7 -11 7h-146q-11 0 -11 9v4l8 38q3 12 17 12h128q6 0 8 5q0 2 -0.5 3.5l-1.5 4.5l-12 34q-2 7 -5.5 9t-13.5 2h-91q-11 0 -11 9v4l8 38q3 12 16 12h57q4 0 7.5 1.5t3.5 4.5t-3 12l-74 208q-3 9 -3 17
q0 14 16 14h105q10 0 14 -3.5t7 -11.5l87 -270q4 -10 9 -10q6 0 13 10l202 270q7 9 12.5 12t13.5 3h77q12 0 12 -9z" />
    <glyph glyph-name="brokenbar" unicode="&#xa6;" horiz-adv-x="500" 
d="M311 420q-4 -22 -27 -22h-51q-17 0 -17 13v5l78 366q3 12 9 17.5t18 5.5h51q17 0 17 -14v-4zM181 -191q-4 -22 -27 -22h-51q-17 0 -17 13v4l78 367q3 12 9 17.5t18 5.5h51q17 0 17 -14v-5z" />
    <glyph glyph-name="section" unicode="&#xa7;" horiz-adv-x="520" 
d="M378 432q19 -11 35.5 -23.5t28.5 -27.5t19 -33.5t7 -42.5q0 -42 -14 -75t-36 -57t-48.5 -40t-50.5 -23q-13 -4 -14 -8q0 -4 7 -9q45 -29 45 -88q0 -50 -18.5 -86.5t-51 -60t-75.5 -35t-92 -11.5q-73 0 -108.5 15t-35.5 28v5l13 61q2 7 6 11.5t13 4.5q6 0 14.5 -5.5
t23 -12.5t35.5 -12.5t52 -5.5q101 0 101 68q0 14 -9.5 25t-32.5 25l-88 53q-38 23 -64 51.5t-26 76.5q0 42 14 75t36 57t48 40t50 23q9 3 11.5 4.5t2.5 4.5q0 2 -7 7q-44 29 -44 89q0 50 19 86t51.5 59.5t75.5 35t92 11.5q76 0 109.5 -15.5t33.5 -27.5v-5l-13 -60
q-3 -17 -19 -17q-6 0 -15 5.5t-23 12.5t-35.5 12.5t-51.5 5.5q-50 0 -75.5 -16t-25.5 -51q0 -15 10 -26t33 -25zM256 356q-9 6 -14 8t-10 2t-13 -3.5t-22 -14.5q-29 -21 -42.5 -48t-13.5 -57q0 -24 12 -39.5t34 -29.5l38 -25q10 -7 15 -9t10 -2q7 0 35 19q30 21 43.5 48.5
t13.5 57.5q0 23 -12 38t-35 30z" />
    <glyph glyph-name="dieresis" unicode="&#xa8;" horiz-adv-x="500" 
d="M281 636q-7 -29 -24.5 -42t-46.5 -13q-23 0 -35.5 9t-12.5 29q0 38 21 55t50 17q24 0 37 -9t13 -30q0 -4 -0.5 -7.5t-1.5 -8.5zM462 636q-7 -29 -24.5 -42t-45.5 -13q-49 0 -49 38t21 55t51 17q23 0 36 -9t13 -30q0 -4 -0.5 -7.5t-1.5 -8.5z" />
    <glyph glyph-name="copyright" unicode="&#xa9;" horiz-adv-x="890" 
d="M557 50q-3 -13 -18.5 -22.5t-38.5 -16t-51 -10t-55 -3.5q-100 0 -151 43t-51 127q0 33 9 74q25 118 101.5 186.5t210.5 68.5q23 0 46 -3.5t42 -9t30.5 -13.5t11.5 -17v-3l-11 -47q-3 -16 -17 -16q-7 0 -15.5 5.5t-21.5 11.5t-32.5 11.5t-47.5 5.5q-39 0 -74.5 -17
t-62.5 -47.5t-42.5 -74t-15.5 -96.5q0 -57 29.5 -86t86.5 -29q29 0 51 5.5t38.5 12t27.5 12t19 5.5q12 0 12 -11v-3zM831 246q-19 -89 -64 -164t-109.5 -129t-144.5 -84t-170 -30q-77 0 -137 21.5t-101 61.5t-63 95.5t-22 123.5q0 24 3 49t8 51q19 88 63.5 163.5t108 130.5
t143.5 86t170 31q76 0 136.5 -21t102.5 -60.5t64.5 -95.5t22.5 -126q0 -24 -2.5 -50t-8.5 -53zM752 250q9 42 9 80q0 56 -18 103t-51.5 81t-81.5 53t-108 19q-80 0 -152 -33.5t-127 -91t-87.5 -135.5t-32.5 -166q0 -56 17 -103t50 -81t80 -53t107 -19q71 0 135.5 26.5
t117 73t89.5 109.5t53 137z" />
    <glyph glyph-name="ordfeminine" unicode="&#xaa;" horiz-adv-x="412" 
d="M360 305q-2 -11 -7.5 -14.5t-12.5 -3.5h-64q-12 0 -12 9v3q0 6 -7 6q-4 0 -13.5 -4t-23 -8.5t-31 -8t-37.5 -3.5q-33 0 -55 6.5t-34.5 17.5t-18 25.5t-5.5 30.5q0 23 7 44.5t26 41t50.5 36.5t81.5 31l57 16q29 8 38.5 16t11.5 17q1 2 2 8t1 11q0 11 -13 17.5t-43 6.5
q-32 0 -54 -5t-38 -11t-26 -11t-16 -5q-12 0 -12 11v5l9 42q3 13 20.5 22.5t41.5 15t51 8t50 2.5q69 0 102 -19.5t33 -63.5q0 -8 -1 -16.5t-3 -17.5zM289 467q0 5 -4 5q-43 0 -69 -12t-40 -27t-18.5 -28.5t-4.5 -17.5q0 -33 46 -33q25 0 47.5 8.5t27.5 29.5z" />
    <glyph glyph-name="guillemotleft" unicode="&#xab;" horiz-adv-x="452" 
d="M260 453q0 -5 -3 -10.5t-8 -12.5l-108 -154q-8 -11 -9.5 -16.5t-1.5 -9.5v-7t2 -9l43 -154q2 -10 2 -13q0 -21 -23 -21h-53q-11 0 -15.5 3.5t-7.5 14.5l-47 169q-2 5 -2 8v5q0 7 2 14t9 17l119 169q8 11 14 14.5t17 3.5h53q17 0 17 -11zM427 453q0 -5 -3 -10.5t-8 -12.5
l-108 -154q-8 -11 -9.5 -16.5t-1.5 -9.5v-7t2 -9l43 -154q2 -10 2 -13q0 -21 -23 -21h-53q-11 0 -15.5 3.5t-7.5 14.5l-47 169q-2 5 -2 8v5q0 7 2 14t9 17l119 169q8 11 14 14.5t17 3.5h53q17 0 17 -11z" />
    <glyph glyph-name="logicalnot" unicode="&#xac;" 
d="M510 174q-3 -14 -9.5 -20.5t-20.5 -6.5h-38q-21 0 -21 18q0 3 5 26t11 50.5t11 51t5 26.5t-3 6t-8 3h-349q-22 0 -22 17q0 2 1 8t7 33q6 26 32 26h425q20 0 20 -17q0 -6 -1 -10z" />
    <glyph glyph-name="uni00AD" unicode="&#xad;" horiz-adv-x="266" 
d="M212 265q-3 -16 -21 -16h-162q-14 0 -14 13v4l12 55q3 15 20 15h162q15 0 15 -11q0 -1 -2 -12.5t-10 -47.5z" />
    <glyph glyph-name="registered" unicode="&#xae;" horiz-adv-x="890" 
d="M831 246q-19 -89 -64 -164t-109.5 -129t-144.5 -84t-170 -30q-77 0 -137 21.5t-101 61.5t-63 95.5t-22 123.5q0 24 3 49t8 51q19 88 63.5 163.5t108 130.5t143.5 86t170 31q76 0 136.5 -21t102.5 -60.5t64.5 -95.5t22.5 -126q0 -24 -2.5 -50t-8.5 -53zM752 250q9 42 9 80
q0 56 -18 103t-51.5 81t-81.5 53t-108 19q-80 0 -152 -33.5t-127 -91t-87.5 -135.5t-32.5 -166q0 -56 17 -103t50 -81t80 -53t107 -19q71 0 135.5 26.5t117 73t89.5 109.5t53 137zM595 22q0 -8 -6 -11.5t-14 -3.5h-66q-9 0 -13.5 3.5t-9.5 11.5l-101 185q-4 9 -11 9h-5
q-8 0 -9 -8l-39 -182q-2 -11 -8 -15t-12 -4h-64q-13 0 -13 12v3l96 449q3 19 22 19h152q66 0 100 -22t34 -70q0 -39 -11 -68t-29.5 -49.5t-42.5 -33t-49 -18.5q-6 -1 -7.5 -4t-1.5 -6q0 -6 1 -8l101 -171q6 -11 6 -18zM521 356q3 10 3 20q0 51 -71 51h-36q-11 0 -13 -12
l-26 -122v-4q0 -9 10 -9h25q48 0 74 18t34 58z" />
    <glyph glyph-name="macron" unicode="&#xaf;" horiz-adv-x="500" 
d="M442 614q-4 -20 -24 -20h-229q-17 0 -17 12q0 2 0.5 4t0.5 4l6 29q4 20 24 20h229q17 0 17 -11q0 -5 -1 -9z" />
    <glyph glyph-name="degree" unicode="&#xb0;" horiz-adv-x="442" 
d="M416 612q-16 -72 -67.5 -115t-123.5 -43q-60 0 -95 28.5t-35 84.5q0 45 15.5 82.5t42 64.5t62 41.5t75.5 14.5q61 0 96 -28.5t35 -85.5q0 -11 -1.5 -21.5t-3.5 -22.5zM340 612q3 12 3 22q0 31 -18.5 48t-49.5 17q-18 0 -36 -7t-32.5 -21t-23.5 -34.5t-9 -47.5
q0 -30 18.5 -47t47.5 -17q35 0 62.5 22t37.5 65z" />
    <glyph glyph-name="plusminus" unicode="&#xb1;" 
d="M17 -4q-22 0 -22 16q0 5 1 8l7 33q6 26 31 26h434q23 0 23 -18q0 -5 -1 -8l-7 -33q-4 -24 -32 -24h-434zM243 118q-23 0 -23 16q0 6 1 10l38 177v2q0 6 -6 6h-166q-21 0 -21 16q0 6 1 9l7 33q6 25 31 25h166q7 0 9 10l37 174q3 14 10.5 21t22.5 7h35q21 0 21 -17
q0 -7 -1 -11l-37 -174v-2q0 -8 7 -8h164q23 0 23 -17q0 -5 -1 -8l-7 -33q-4 -25 -33 -25h-164q-9 0 -10 -8l-38 -177q-5 -26 -31 -26h-35z" />
    <glyph glyph-name="uni00B2" unicode="&#xb2;" horiz-adv-x="310" 
d="M287 266q-5 -18 -22 -18h-265q-13 0 -13 12v5l5 23q4 19 12 35.5t20.5 32t30.5 30.5t43 31l86 55q31 20 46.5 41.5t15.5 49.5q0 20 -13.5 32t-43.5 12q-27 0 -46 -5t-32.5 -11.5t-22 -11.5t-15.5 -5q-14 0 -14 10v2l10 48q3 12 18 21t37 15t48.5 8.5t52.5 2.5
q60 0 95.5 -23t35.5 -71q0 -51 -27.5 -91t-80.5 -70l-82 -47q-19 -11 -30 -18t-17 -12t-8 -8.5t-2 -7.5q0 -5 9 -5h164q15 0 15 -11z" />
    <glyph glyph-name="uni00B3" unicode="&#xb3;" horiz-adv-x="310" 
d="M313 372q-12 -55 -59 -90t-139 -35q-18 0 -39 2t-40 6.5t-31.5 11.5t-12.5 18v3l10 46q2 8 6 12.5t13 4.5q5 0 11 -5t16.5 -10.5t26.5 -10.5t42 -5q45 0 72 18t27 58t-60 40h-23q-14 0 -14 12v4l8 39q3 15 21 15h18q31 0 53 16.5t22 51.5q0 19 -14 26.5t-40 7.5
q-24 0 -40.5 -5t-28 -10.5t-19.5 -10.5t-16 -5q-11 0 -11 10v3l10 49q3 11 18 19t35 13t43 7.5t42 2.5q127 0 127 -79q0 -46 -23 -75t-58 -43q-12 -5 -13 -9q0 -2 1.5 -4.5t9.5 -4.5q52 -13 52 -66q0 -13 -3 -28z" />
    <glyph glyph-name="acute" unicode="&#xb4;" horiz-adv-x="500" 
d="M185 595q1 9 13 16l159 99q14 9 22 12t15 3t11 -3.5t9 -14.5l14 -28q4 -11 4 -19q0 -19 -24 -29l-175 -70q-11 -5 -15.5 -6t-8.5 -1q-5 0 -9.5 5.5t-7.5 12.5q-4 8 -7 19v4z" />
    <glyph glyph-name="mu" unicode="&#xb5;" 
d="M464 18q-3 -18 -21 -18h-87q-7 0 -8.5 2.5t-1.5 6.5q0 5 -1 8t-8 3q-9 0 -20 -4.5t-26 -9.5t-36 -9.5t-50 -4.5q-18 0 -29 2t-18 5t-10 5t-5 2q-8 0 -11 -14l-40 -185q-4 -19 -21 -19h-88q-10 0 -12.5 3t-2.5 13l148 692q3 18 21 18h91q13 0 13 -12v-2l-66 -309
q-2 -12 -3.5 -22.5t-1.5 -19.5q0 -35 20 -51t66 -16q19 0 37.5 3.5t33.5 11t25.5 19.5t14.5 29l75 351q3 18 20 18h90q15 0 15 -13v-2z" />
    <glyph glyph-name="paragraph" unicode="&#xb6;" horiz-adv-x="434" 
d="M18 -129q4 16 16 16q5 0 9 -1.5t9 -4t12.5 -4t19.5 -1.5q33 0 48.5 18.5t21.5 48.5l78 364v2q0 8 -15 10q-77 10 -111 51t-34 98q0 56 20.5 103.5t57.5 81.5t88 53t113 19h71q15 0 15 -12v-2l-167 -782q-14 -69 -60.5 -108t-125.5 -39q-34 0 -56 6t-22 20v4z" />
    <glyph glyph-name="periodcentered" unicode="&#xb7;" horiz-adv-x="266" 
d="M216 345q-9 -42 -34.5 -61.5t-66.5 -19.5q-68 0 -68 56q0 54 28.5 80.5t73.5 26.5q70 0 70 -58q0 -11 -3 -24z" />
    <glyph glyph-name="cedilla" unicode="&#xb8;" horiz-adv-x="500" 
d="M235 -105q-8 -38 -44 -60t-88 -22q-18 0 -28.5 2.5t-10.5 11.5v5l3 14q2 10 9.5 14t36.5 6q19 2 35 10.5t16 32.5q0 6 -5.5 11t-12.5 9.5t-12.5 8t-5.5 8.5v4l9 41v2q0 7 -8 7h77q-8 0 -12 -9l-3 -10v-7q0 -4 7.5 -7t16 -8.5t16 -15t7.5 -27.5q0 -9 -3 -21z" />
    <glyph glyph-name="uni00B9" unicode="&#xb9;" horiz-adv-x="310" 
d="M197 266q-4 -18 -20 -18h-64q-14 0 -14 12v3l66 309q1 2 1 5q0 5 -6 5q-5 0 -11.5 -2.5t-15 -5t-20.5 -5t-28 -2.5q-13 0 -13 11v2l9 42q4 19 21 19q22 0 40.5 6t33.5 13.5t24.5 13.5t13.5 6h53q15 0 15 -10v-3z" />
    <glyph glyph-name="ordmasculine" unicode="&#xba;" horiz-adv-x="464" 
d="M467 481q-9 -44 -29.5 -80.5t-51.5 -63t-72 -41.5t-92 -15q-84 0 -124.5 39t-40.5 105q0 55 18 101.5t51 80.5t79 53t103 19q84 0 124.5 -38.5t40.5 -104.5q0 -27 -6 -55zM351 483q6 28 6 49q0 73 -66 73q-40 0 -68.5 -30t-42.5 -97q-6 -29 -6 -52q0 -37 16.5 -53.5
t48.5 -16.5q42 0 70 30.5t42 96.5z" />
    <glyph glyph-name="guillemotright" unicode="&#xbb;" horiz-adv-x="452" 
d="M155 57q0 5 3 10t8 13l107 154q8 11 10.5 16t2.5 9q0 3 -1 7.5t-3 9.5l-42 154q-1 5 -1.5 9t-0.5 7q0 18 22 18h53q11 0 15.5 -3.5t7.5 -14.5l47 -169q3 -9 3 -15q0 -8 -2.5 -13.5t-9.5 -15.5l-119 -169q-8 -11 -14 -14.5t-17 -3.5h-53q-16 0 -16 11zM-12 57q0 5 3 10
t8 13l107 154q8 11 10.5 16t2.5 9q0 3 -1 7.5t-3 9.5l-42 154q-1 5 -1.5 9t-0.5 7q0 18 22 18h53q11 0 15.5 -3.5t7.5 -14.5l47 -169q3 -9 3 -15q0 -8 -2.5 -13.5t-9.5 -15.5l-119 -169q-8 -11 -14 -14.5t-17 -3.5h-53q-16 0 -16 11z" />
    <glyph glyph-name="onequarter" unicode="&#xbc;" horiz-adv-x="930" 
d="M785 104q-5 -19 -21 -19h-29q-9 0 -12 -11l-12 -56q-3 -18 -20 -18h-54q-13 0 -13 13v5l12 56q1 2 1 5q0 6 -8 6h-186q-14 0 -14 11v4l8 41q3 12 15 24l237 255q7 8 12 10t14 2h68q14 0 14 -11v-3l-53 -246v-4q0 -7 7 -7h29q14 0 14 -12v-3zM691 330q0 6 -4 6
q-7 0 -14 -9l-136 -151q-5 -6 -5 -10q0 -5 8 -5h105q9 0 12 11zM711 678q0 -5 -2 -9t-10 -14l-513 -672q-9 -12 -18 -12q-4 0 -12 3t-15.5 7.5t-13 9.5t-5.5 10t2 9t9 13l515 673q6 8 9 10.5t8 2.5q8 0 16.5 -4t15 -9t10.5 -10t4 -8zM236 266q-4 -18 -20 -18h-64
q-14 0 -14 12v3l66 309q1 2 1 5q0 5 -6 5q-5 0 -11.5 -2.5t-15 -5t-20.5 -5t-28 -2.5q-13 0 -13 11v2l9 42q4 19 21 19q22 0 40.5 6t33.5 13.5t24.5 13.5t13.5 6h53q15 0 15 -10v-3z" />
    <glyph glyph-name="onehalf" unicode="&#xbd;" horiz-adv-x="930" 
d="M701 678q0 -5 -2 -9t-10 -14l-513 -672q-9 -12 -18 -12q-4 0 -12 3t-15.5 7.5t-13 9.5t-5.5 10t2 9t9 13l515 673q6 8 9 10.5t8 2.5q8 0 16.5 -4t15 -9t10.5 -10t4 -8zM236 266q-4 -18 -20 -18h-64q-14 0 -14 12v3l66 309q1 2 1 5q0 5 -6 5q-5 0 -11.5 -2.5t-15 -5
t-20.5 -5t-28 -2.5q-13 0 -13 11v2l9 42q4 19 21 19q22 0 40.5 6t33.5 13.5t24.5 13.5t13.5 6h53q15 0 15 -10v-3zM769 18q-5 -18 -22 -18h-265q-13 0 -13 12v5l5 23q4 19 12 35.5t20.5 32t30.5 30.5t43 31l86 55q31 20 46.5 41.5t15.5 49.5q0 20 -13.5 32t-43.5 12
q-27 0 -46 -5t-32.5 -11.5t-22 -11.5t-15.5 -5q-14 0 -14 10v2l10 48q3 12 18 21t37 15t48.5 8.5t52.5 2.5q60 0 95.5 -23t35.5 -71q0 -51 -27.5 -91t-80.5 -70l-82 -47q-19 -11 -30 -18t-17 -12t-8 -8.5t-2 -7.5q0 -5 9 -5h164q15 0 15 -11z" />
    <glyph glyph-name="threequarters" unicode="&#xbe;" horiz-adv-x="930" 
d="M761 678q0 -5 -2 -9t-10 -14l-513 -672q-9 -12 -18 -12q-4 0 -12 3t-15.5 7.5t-13 9.5t-5.5 10t2 9t9 13l515 673q6 8 9 10.5t8 2.5q8 0 16.5 -4t15 -9t10.5 -10t4 -8zM805 104q-5 -19 -21 -19h-29q-9 0 -12 -11l-12 -56q-3 -18 -20 -18h-54q-13 0 -13 13v5l12 56
q1 2 1 5q0 6 -8 6h-186q-14 0 -14 11v4l8 41q3 12 15 24l237 255q7 8 12 10t14 2h68q14 0 14 -11v-3l-53 -246v-4q0 -7 7 -7h29q14 0 14 -12v-3zM711 330q0 6 -4 6q-7 0 -14 -9l-136 -151q-5 -6 -5 -10q0 -5 8 -5h105q9 0 12 11zM364 372q-12 -55 -59 -90t-139 -35
q-18 0 -39 2t-40 6.5t-31.5 11.5t-12.5 18v3l10 46q2 8 6 12.5t13 4.5q5 0 11 -5t16.5 -10.5t26.5 -10.5t42 -5q45 0 72 18t27 58t-60 40h-23q-14 0 -14 12v4l8 39q3 15 21 15h18q31 0 53 16.5t22 51.5q0 19 -14 26.5t-40 7.5q-24 0 -40.5 -5t-28 -10.5t-19.5 -10.5t-16 -5
q-11 0 -11 10v3l10 49q3 11 18 19t35 13t43 7.5t42 2.5q127 0 127 -79q0 -46 -23 -75t-58 -43q-12 -5 -13 -9q0 -2 1.5 -4.5t9.5 -4.5q52 -13 52 -66q0 -13 -3 -28z" />
    <glyph glyph-name="questiondown" unicode="&#xbf;" horiz-adv-x="498" 
d="M-26 3q18 85 103 157l110 92q17 14 24.5 26t12.5 31l5 24q4 19 23 19h66q15 0 15 -13v-6l-8 -37q-8 -33 -23.5 -58t-46.5 -54l-74 -69q-68 -64 -68 -128q0 -34 23.5 -52t75.5 -18q37 0 64 7t46.5 16t32.5 16t21 7q12 0 12 -11v-5l-14 -65q-3 -13 -21 -24t-47 -19
t-66.5 -12.5t-78.5 -4.5q-99 0 -145.5 36t-46.5 99q0 11 1.5 22.5t3.5 23.5zM228 439q0 37 23.5 60.5t64.5 23.5q70 0 70 -47q0 -39 -26 -61t-68 -22q-32 0 -48 12.5t-16 33.5z" />
    <glyph glyph-name="Agrave" unicode="&#xc0;" horiz-adv-x="604" 
d="M534 19q0 -19 -19 -19h-100q-14 0 -16 12l-18 202q-1 6 -3.5 9t-10.5 3h-198q-8 0 -12.5 -2t-8.5 -9l-108 -203q-7 -12 -21 -12h-72q-15 0 -15 11q0 5 2 8.5t4 8.5l347 628q10 17 21 25t28 8h93q18 0 26 -6.5t10 -25.5l62 -554q5 -46 7 -64t2 -20zM358 310q14 0 14 14
q0 2 -0.5 16t-2.5 30l-19 195q-1 10 -6 10q-6 0 -11 -11l-124 -232q-2 -5 -4 -9.5t-2 -7.5q0 -5 8 -5h147zM483 747q0 -8 -10 -20.5t-18 -12.5t-14.5 2.5t-19.5 9.5l-138 71q-15 7 -15 20t27 50q9 12 15.5 15.5t14.5 3.5q7 0 12.5 -3.5t15.5 -12.5l123 -107q7 -6 7 -16z" />
    <glyph glyph-name="Aacute" unicode="&#xc1;" horiz-adv-x="604" 
d="M534 19q0 -19 -19 -19h-100q-14 0 -16 12l-18 202q-1 6 -3.5 9t-10.5 3h-198q-8 0 -12.5 -2t-8.5 -9l-108 -203q-7 -12 -21 -12h-72q-15 0 -15 11q0 5 2 8.5t4 8.5l347 628q10 17 21 25t28 8h93q18 0 26 -6.5t10 -25.5l62 -554q5 -46 7 -64t2 -20zM358 310q14 0 14 14
q0 2 -0.5 16t-2.5 30l-19 195q-1 10 -6 10q-6 0 -11 -11l-124 -232q-2 -5 -4 -9.5t-2 -7.5q0 -5 8 -5h147zM276 755q1 9 13 16l159 99q14 9 22 12t15 3t11 -3.5t9 -14.5l14 -28q4 -11 4 -19q0 -19 -24 -29l-175 -70q-11 -5 -15.5 -6t-8.5 -1q-5 0 -9.5 5.5t-7.5 12.5
q-4 8 -7 19v4z" />
    <glyph glyph-name="Acircumflex" unicode="&#xc2;" horiz-adv-x="604" 
d="M534 19q0 -19 -19 -19h-100q-14 0 -16 12l-18 202q-1 6 -3.5 9t-10.5 3h-198q-8 0 -12.5 -2t-8.5 -9l-108 -203q-7 -12 -21 -12h-72q-15 0 -15 11q0 5 2 8.5t4 8.5l347 628q10 17 21 25t28 8h93q18 0 26 -6.5t10 -25.5l62 -554q5 -46 7 -64t2 -20zM358 310q14 0 14 14
q0 2 -0.5 16t-2.5 30l-19 195q-1 10 -6 10q-6 0 -11 -11l-124 -232q-2 -5 -4 -9.5t-2 -7.5q0 -5 8 -5h147zM551 755q-2 -6 -8 -13l-13 -14q-6 -8 -14 -8q-3 0 -7 1t-9 4l-93 63q-7 4 -12 4q-7 0 -14 -4l-121 -63q-10 -5 -18 -5q-7 0 -10 8l-10 15q-2 4 -2 8q1 5 3.5 10
t10.5 10l145 95q14 9 20 12t14 3q7 0 12.5 -3t15.5 -12l103 -95q7 -7 7 -13v-3z" />
    <glyph glyph-name="Atilde" unicode="&#xc3;" horiz-adv-x="604" 
d="M534 19q0 -19 -19 -19h-100q-14 0 -16 12l-18 202q-1 6 -3.5 9t-10.5 3h-198q-8 0 -12.5 -2t-8.5 -9l-108 -203q-7 -12 -21 -12h-72q-15 0 -15 11q0 5 2 8.5t4 8.5l347 628q10 17 21 25t28 8h93q18 0 26 -6.5t10 -25.5l62 -554q5 -46 7 -64t2 -20zM358 310q14 0 14 14
q0 2 -0.5 16t-2.5 30l-19 195q-1 10 -6 10q-6 0 -11 -11l-124 -232q-2 -5 -4 -9.5t-2 -7.5q0 -5 8 -5h147zM353 768q-21 11 -35 11q-8 0 -13.5 -4t-13.5 -12l-9 -10q-11 -12 -19 -12q-8 2 -14 5q-5 2 -9 6t-4 10q0 14 18 40q23 33 43.5 40t38.5 7q28 0 51 -12l33 -18
q19 -11 34 -11q13 0 28 16l9 10q11 12 18 12q8 -2 14 -5q5 -2 9.5 -6.5t4.5 -9.5q0 -15 -19 -40q-24 -32 -44 -39.5t-38 -7.5q-27 0 -51 12z" />
    <glyph glyph-name="Adieresis" unicode="&#xc4;" horiz-adv-x="604" 
d="M534 19q0 -19 -19 -19h-100q-14 0 -16 12l-18 202q-1 6 -3.5 9t-10.5 3h-198q-8 0 -12.5 -2t-8.5 -9l-108 -203q-7 -12 -21 -12h-72q-15 0 -15 11q0 5 2 8.5t4 8.5l347 628q10 17 21 25t28 8h93q18 0 26 -6.5t10 -25.5l62 -554q5 -46 7 -64t2 -20zM358 310q14 0 14 14
q0 2 -0.5 16t-2.5 30l-19 195q-1 10 -6 10q-6 0 -11 -11l-124 -232q-2 -5 -4 -9.5t-2 -7.5q0 -5 8 -5h147zM360 796q-7 -29 -24.5 -42t-46.5 -13q-23 0 -35.5 9t-12.5 29q0 38 21 55t50 17q24 0 37 -9t13 -30q0 -4 -0.5 -7.5t-1.5 -8.5zM541 796q-7 -29 -24.5 -42t-45.5 -13
q-49 0 -49 38t21 55t51 17q23 0 36 -9t13 -30q0 -4 -0.5 -7.5t-1.5 -8.5z" />
    <glyph glyph-name="Aring" unicode="&#xc5;" horiz-adv-x="604" 
d="M534 19q0 -19 -19 -19h-100q-14 0 -16 12l-18 202q-1 6 -3.5 9t-10.5 3h-198q-8 0 -12.5 -2t-8.5 -9l-108 -203q-7 -12 -21 -12h-72q-15 0 -15 11q0 5 2 8.5t4 8.5l347 628q10 17 21 25t28 8h93q18 0 26 -6.5t10 -25.5l62 -554q5 -46 7 -64t2 -20zM358 310q14 0 14 14
q0 2 -0.5 16t-2.5 30l-19 195q-1 10 -6 10q-6 0 -11 -11l-124 -232q-2 -5 -4 -9.5t-2 -7.5q0 -5 8 -5h147zM472 800q-18 -79 -98 -79q-70 0 -70 53q0 48 28.5 73t71.5 25q33 0 51.5 -14.5t18.5 -40.5q0 -4 -0.5 -8t-1.5 -9zM422 794q1 5 1.5 8.5t0.5 6.5q0 23 -26 23
q-20 0 -32.5 -12t-12.5 -35q0 -24 27 -24q36 0 42 33z" />
    <glyph glyph-name="AE" unicode="&#xc6;" horiz-adv-x="803" 
d="M704 18q-3 -18 -21 -18h-338q-11 0 -13 4t-2 12l23 254v3q0 9 -12 9h-146q-7 0 -12.5 -2.5t-10.5 -12.5l-147 -255q-4 -6 -8 -9t-14 -3h-72q-14 0 -14 10q0 3 1.5 8t4.5 10l375 626q8 14 18 20t26 6h464q15 0 15 -11v-4l-14 -63q-3 -18 -21 -18h-266q-11 0 -16 -4t-6 -17
l-13 -170v-4q0 -10 15 -10h190q15 0 15 -11v-4l-14 -63q-2 -10 -6.5 -14.5t-15.5 -4.5h-174q-14 0 -16.5 -6.5t-4.5 -25.5l-11 -140q0 -14 14 -14h226q15 0 15 -11v-4zM347 379q9 0 12 3t5 16l17 192q0 7 -3 9t-5 2q-8 0 -15 -10l-109 -189q-4 -7 -5.5 -10.5t-1.5 -8.5
q0 -4 9 -4h96z" />
    <glyph glyph-name="Ccedilla" unicode="&#xc7;" horiz-adv-x="637" 
d="M364 -105q-8 -38 -44 -60t-88 -22q-18 0 -28.5 2.5t-10.5 11.5v5l3 14q2 10 9.5 14t36.5 6q19 2 35 10.5t16 32.5q0 6 -5.5 11t-12.5 9.5t-12.5 8t-5.5 8.5v4l9 36v2q0 6 -4 8q-114 14 -172.5 74t-58.5 163q0 43 11 95q18 85 56.5 152.5t94.5 113.5t127.5 70.5
t155.5 24.5q46 0 81 -5.5t58.5 -13.5t35.5 -17.5t12 -17.5v-5l-15 -67q-3 -16 -17 -16q-8 0 -19 7t-28 15.5t-43.5 15.5t-66.5 7q-114 0 -190.5 -67.5t-104.5 -196.5q-4 -20 -6 -39t-2 -36q0 -81 48.5 -123t144.5 -42q42 0 72 7t51 15.5t34 15.5t20 7q13 0 13 -9v-3l-14 -66
q-2 -9 -5.5 -14.5t-12.5 -10.5q-25 -13 -74 -25.5t-118 -12.5q-4 0 -7 -4.5t-3 -9.5v-4q0 -4 7.5 -7t16 -8.5t16 -15t7.5 -27.5q0 -9 -3 -21z" />
    <glyph glyph-name="Egrave" unicode="&#xc8;" horiz-adv-x="531" 
d="M429 18q-3 -18 -21 -18h-387q-15 0 -15 14v4l137 644q4 18 22 18h367q15 0 15 -11v-2l-14 -65q-2 -10 -6 -14t-15 -4h-243q-10 0 -13 -12l-33 -155v-2q0 -10 9 -10h190q15 0 15 -11v-3l-14 -64q-4 -19 -22 -19h-190q-11 0 -14 -12l-40 -188v-3q0 -9 10 -9h261
q15 0 15 -11v-3zM452 747q0 -8 -10 -20.5t-18 -12.5t-14.5 2.5t-19.5 9.5l-138 71q-15 7 -15 20t27 50q9 12 15.5 15.5t14.5 3.5q7 0 12.5 -3.5t15.5 -12.5l123 -107q7 -6 7 -16z" />
    <glyph glyph-name="Eacute" unicode="&#xc9;" horiz-adv-x="531" 
d="M429 18q-3 -18 -21 -18h-387q-15 0 -15 14v4l137 644q4 18 22 18h367q15 0 15 -11v-2l-14 -65q-2 -10 -6 -14t-15 -4h-243q-10 0 -13 -12l-33 -155v-2q0 -10 9 -10h190q15 0 15 -11v-3l-14 -64q-4 -19 -22 -19h-190q-11 0 -14 -12l-40 -188v-3q0 -9 10 -9h261
q15 0 15 -11v-3zM252 755q1 9 13 16l159 99q14 9 22 12t15 3t11 -3.5t9 -14.5l14 -28q4 -11 4 -19q0 -19 -24 -29l-175 -70q-11 -5 -15.5 -6t-8.5 -1q-5 0 -9.5 5.5t-7.5 12.5q-4 8 -7 19v4z" />
    <glyph glyph-name="Ecircumflex" unicode="&#xca;" horiz-adv-x="531" 
d="M429 18q-3 -18 -21 -18h-387q-15 0 -15 14v4l137 644q4 18 22 18h367q15 0 15 -11v-2l-14 -65q-2 -10 -6 -14t-15 -4h-243q-10 0 -13 -12l-33 -155v-2q0 -10 9 -10h190q15 0 15 -11v-3l-14 -64q-4 -19 -22 -19h-190q-11 0 -14 -12l-40 -188v-3q0 -9 10 -9h261
q15 0 15 -11v-3zM519 755q-2 -6 -8 -13l-13 -14q-6 -8 -14 -8q-3 0 -7 1t-9 4l-93 63q-7 4 -12 4q-7 0 -14 -4l-121 -63q-10 -5 -18 -5q-7 0 -10 8l-10 15q-2 4 -2 8q1 5 3.5 10t10.5 10l145 95q14 9 20 12t14 3q7 0 12.5 -3t15.5 -12l103 -95q7 -7 7 -13v-3z" />
    <glyph glyph-name="Edieresis" unicode="&#xcb;" horiz-adv-x="531" 
d="M429 18q-3 -18 -21 -18h-387q-15 0 -15 14v4l137 644q4 18 22 18h367q15 0 15 -11v-2l-14 -65q-2 -10 -6 -14t-15 -4h-243q-10 0 -13 -12l-33 -155v-2q0 -10 9 -10h190q15 0 15 -11v-3l-14 -64q-4 -19 -22 -19h-190q-11 0 -14 -12l-40 -188v-3q0 -9 10 -9h261
q15 0 15 -11v-3zM326 796q-7 -29 -24.5 -42t-46.5 -13q-23 0 -35.5 9t-12.5 29q0 38 21 55t50 17q24 0 37 -9t13 -30q0 -4 -0.5 -7.5t-1.5 -8.5zM507 796q-7 -29 -24.5 -42t-45.5 -13q-49 0 -49 38t21 55t51 17q23 0 36 -9t13 -30q0 -4 -0.5 -7.5t-1.5 -8.5z" />
    <glyph glyph-name="Igrave" unicode="&#xcc;" horiz-adv-x="286" 
d="M140 18q-3 -18 -21 -18h-96q-15 0 -15 13v5l137 644q4 18 22 18h96q15 0 15 -12v-3zM328 747q0 -8 -10 -20.5t-18 -12.5t-14.5 2.5t-19.5 9.5l-138 71q-15 7 -15 20t27 50q9 12 15.5 15.5t14.5 3.5q7 0 12.5 -3.5t15.5 -12.5l123 -107q7 -6 7 -16z" />
    <glyph glyph-name="Iacute" unicode="&#xcd;" horiz-adv-x="286" 
d="M140 18q-3 -18 -21 -18h-96q-15 0 -15 13v5l137 644q4 18 22 18h96q15 0 15 -12v-3zM119 755q1 9 13 16l159 99q14 9 22 12t15 3t11 -3.5t9 -14.5l14 -28q4 -11 4 -19q0 -19 -24 -29l-175 -70q-11 -5 -15.5 -6t-8.5 -1q-5 0 -9.5 5.5t-7.5 12.5q-4 8 -7 19v4z" />
    <glyph glyph-name="Icircumflex" unicode="&#xce;" horiz-adv-x="286" 
d="M140 18q-3 -18 -21 -18h-96q-15 0 -15 13v5l137 644q4 18 22 18h96q15 0 15 -12v-3zM390 755q-2 -6 -8 -13l-13 -14q-6 -8 -14 -8q-3 0 -7 1t-9 4l-93 63q-7 4 -12 4q-7 0 -14 -4l-121 -63q-10 -5 -18 -5q-7 0 -10 8l-10 15q-2 4 -2 8q1 5 3.5 10t10.5 10l145 95
q14 9 20 12t14 3q7 0 12.5 -3t15.5 -12l103 -95q7 -7 7 -13v-3z" />
    <glyph glyph-name="Idieresis" unicode="&#xcf;" horiz-adv-x="286" 
d="M140 18q-3 -18 -21 -18h-96q-15 0 -15 13v5l137 644q4 18 22 18h96q15 0 15 -12v-3zM203 796q-7 -29 -24.5 -42t-46.5 -13q-23 0 -35.5 9t-12.5 29q0 38 21 55t50 17q24 0 37 -9t13 -30q0 -4 -0.5 -7.5t-1.5 -8.5zM384 796q-7 -29 -24.5 -42t-45.5 -13q-49 0 -49 38
t21 55t51 17q23 0 36 -9t13 -30q0 -4 -0.5 -7.5t-1.5 -8.5z" />
    <glyph glyph-name="Eth" unicode="&#xd0;" horiz-adv-x="717" 
d="M676 344q-20 -91 -65 -160t-114 -116q-54 -36 -121 -52t-149 -16h-206q-15 0 -15 13v5l60 279q0 8 -8 8h-46q-13 0 -13 12v5l11 52q4 18 21 18h46q8 0 11 12l55 257q4 19 23 19h222q82 0 139 -17t92 -49t51 -77.5t16 -101.5q0 -44 -10 -91zM538 343q9 45 9 79
q0 46 -15 77t-41 50t-62.5 27t-79.5 8h-79q-11 0 -14 -12l-36 -168v-4q0 -8 8 -8h86q15 0 15 -13v-2l-12 -55q-3 -17 -22 -17h-86q-8 0 -12 -10l-40 -187v-2q0 -10 11 -10h70q39 0 84 8t87.5 34t77 74.5t51.5 130.5z" />
    <glyph glyph-name="Ntilde" unicode="&#xd1;" horiz-adv-x="702" 
d="M558 18q-3 -18 -21 -18h-112q-14 0 -21.5 7.5t-18.5 38.5l-156 470q-3 8 -7 8q-5 0 -6 -9l-106 -497q-3 -18 -20 -18h-70q-14 0 -14 13v5l137 644q5 18 22 18h130q20 0 25 -15l157 -477q3 -8 8 -8q3 0 6 9l100 473q4 18 21 18h70q14 0 14 -12v-2zM404 768q-21 11 -35 11
q-8 0 -13.5 -4t-13.5 -12l-9 -10q-11 -12 -19 -12q-8 2 -14 5q-5 2 -9 6t-4 10q0 14 18 40q23 33 43.5 40t38.5 7q28 0 51 -12l33 -18q19 -11 34 -11q13 0 28 16l9 10q11 12 18 12q8 -2 14 -5q5 -2 9.5 -6.5t4.5 -9.5q0 -15 -19 -40q-24 -32 -44 -39.5t-38 -7.5
q-27 0 -51 12z" />
    <glyph glyph-name="Ograve" unicode="&#xd2;" horiz-adv-x="747" 
d="M704 342q-16 -76 -49.5 -140t-84.5 -110.5t-118.5 -73t-152.5 -26.5q-134 0 -201 66t-67 179q0 24 3.5 49.5t8.5 52.5q16 76 49.5 140t84 110.5t118.5 73t152 26.5q134 0 201.5 -66t67.5 -179q0 -48 -12 -102zM567 340q5 26 8 49.5t3 44.5q0 80 -38.5 120t-112.5 40
q-44 0 -83.5 -16t-71.5 -48t-55.5 -79t-36.5 -110q-11 -53 -11 -94q0 -78 37 -119.5t113 -41.5q94 0 158 66.5t90 187.5zM571 747q0 -8 -10 -20.5t-18 -12.5t-14.5 2.5t-19.5 9.5l-138 71q-15 7 -15 20t27 50q9 12 15.5 15.5t14.5 3.5q7 0 12.5 -3.5t15.5 -12.5l123 -107
q7 -6 7 -16z" />
    <glyph glyph-name="Oacute" unicode="&#xd3;" horiz-adv-x="747" 
d="M704 342q-16 -76 -49.5 -140t-84.5 -110.5t-118.5 -73t-152.5 -26.5q-134 0 -201 66t-67 179q0 24 3.5 49.5t8.5 52.5q16 76 49.5 140t84 110.5t118.5 73t152 26.5q134 0 201.5 -66t67.5 -179q0 -48 -12 -102zM567 340q5 26 8 49.5t3 44.5q0 80 -38.5 120t-112.5 40
q-44 0 -83.5 -16t-71.5 -48t-55.5 -79t-36.5 -110q-11 -53 -11 -94q0 -78 37 -119.5t113 -41.5q94 0 158 66.5t90 187.5zM368 755q1 9 13 16l159 99q14 9 22 12t15 3t11 -3.5t9 -14.5l14 -28q4 -11 4 -19q0 -19 -24 -29l-175 -70q-11 -5 -15.5 -6t-8.5 -1q-5 0 -9.5 5.5
t-7.5 12.5q-4 8 -7 19v4z" />
    <glyph glyph-name="Ocircumflex" unicode="&#xd4;" horiz-adv-x="747" 
d="M704 342q-16 -76 -49.5 -140t-84.5 -110.5t-118.5 -73t-152.5 -26.5q-134 0 -201 66t-67 179q0 24 3.5 49.5t8.5 52.5q16 76 49.5 140t84 110.5t118.5 73t152 26.5q134 0 201.5 -66t67.5 -179q0 -48 -12 -102zM567 340q5 26 8 49.5t3 44.5q0 80 -38.5 120t-112.5 40
q-44 0 -83.5 -16t-71.5 -48t-55.5 -79t-36.5 -110q-11 -53 -11 -94q0 -78 37 -119.5t113 -41.5q94 0 158 66.5t90 187.5zM629 755q-2 -6 -8 -13l-13 -14q-6 -8 -14 -8q-3 0 -7 1t-9 4l-93 63q-7 4 -12 4q-7 0 -14 -4l-121 -63q-10 -5 -18 -5q-7 0 -10 8l-10 15q-2 4 -2 8
q1 5 3.5 10t10.5 10l145 95q14 9 20 12t14 3q7 0 12.5 -3t15.5 -12l103 -95q7 -7 7 -13v-3z" />
    <glyph glyph-name="Otilde" unicode="&#xd5;" horiz-adv-x="747" 
d="M704 342q-16 -76 -49.5 -140t-84.5 -110.5t-118.5 -73t-152.5 -26.5q-134 0 -201 66t-67 179q0 24 3.5 49.5t8.5 52.5q16 76 49.5 140t84 110.5t118.5 73t152 26.5q134 0 201.5 -66t67.5 -179q0 -48 -12 -102zM567 340q5 26 8 49.5t3 44.5q0 80 -38.5 120t-112.5 40
q-44 0 -83.5 -16t-71.5 -48t-55.5 -79t-36.5 -110q-11 -53 -11 -94q0 -78 37 -119.5t113 -41.5q94 0 158 66.5t90 187.5zM437 768q-21 11 -35 11q-8 0 -13.5 -4t-13.5 -12l-9 -10q-11 -12 -19 -12q-8 2 -14 5q-5 2 -9 6t-4 10q0 14 18 40q23 33 43.5 40t38.5 7q28 0 51 -12
l33 -18q19 -11 34 -11q13 0 28 16l9 10q11 12 18 12q8 -2 14 -5q5 -2 9.5 -6.5t4.5 -9.5q0 -15 -19 -40q-24 -32 -44 -39.5t-38 -7.5q-27 0 -51 12z" />
    <glyph glyph-name="Odieresis" unicode="&#xd6;" horiz-adv-x="747" 
d="M704 342q-16 -76 -49.5 -140t-84.5 -110.5t-118.5 -73t-152.5 -26.5q-134 0 -201 66t-67 179q0 24 3.5 49.5t8.5 52.5q16 76 49.5 140t84 110.5t118.5 73t152 26.5q134 0 201.5 -66t67.5 -179q0 -48 -12 -102zM567 340q5 26 8 49.5t3 44.5q0 80 -38.5 120t-112.5 40
q-44 0 -83.5 -16t-71.5 -48t-55.5 -79t-36.5 -110q-11 -53 -11 -94q0 -78 37 -119.5t113 -41.5q94 0 158 66.5t90 187.5zM438 796q-7 -29 -24.5 -42t-46.5 -13q-23 0 -35.5 9t-12.5 29q0 38 21 55t50 17q24 0 37 -9t13 -30q0 -4 -0.5 -7.5t-1.5 -8.5zM619 796
q-7 -29 -24.5 -42t-45.5 -13q-49 0 -49 38t21 55t51 17q23 0 36 -9t13 -30q0 -4 -0.5 -7.5t-1.5 -8.5z" />
    <glyph glyph-name="multiply" unicode="&#xd7;" 
d="M445 129q-14 -11 -21 -11q-9 0 -17 11l-106 135q-5 5 -9 5q-5 0 -10 -5l-163 -135q-13 -11 -21 -11q-9 0 -16 9l-20 26q-5 6 -5 14q0 9 14 22l163 135q5 4 6.5 7t1.5 6q0 2 -4 8l-107 135q-2 3 -4 5.5t-2 6.5q0 10 16 23l28 23q11 10 20 10t18 -11l104 -132q4 -6 9 -6
t13 6l161 133q13 11 21 11q7 0 15 -10l21 -26q5 -8 5 -13q0 -10 -15 -23l-161 -133q-7 -5 -8 -10q0 -6 3 -10l106 -134q6 -9 6 -16q0 -11 -14 -22z" />
    <glyph glyph-name="Oslash" unicode="&#xd8;" horiz-adv-x="747" 
d="M704 343q-7 -32 -20 -71t-35 -78t-53.5 -75.5t-74.5 -64.5t-98 -45t-125 -17q-36 0 -62 4t-43 9t-27 9t-15 4t-12 -8l-28 -35q-9 -12 -19 -12q-5 0 -13.5 4.5t-15.5 9.5t-7 10q0 7 12 22l23 28q5 6 7 9t2 6q0 4 -11 14.5t-24 31.5t-24 54.5t-11 83.5q0 13 4.5 52t18.5 89
t42 105t74 101t114.5 76t164.5 30q38 0 63.5 -4t42 -9.5t25.5 -9.5t15 -4q8 0 15 8l27 35q10 13 18 13q9 0 30 -15q6 -5 6 -11t-11 -20l-22 -27q-10 -11 -10 -17q0 -4 11 -14.5t23.5 -31.5t23.5 -54.5t11 -83.5q0 -43 -12 -101zM569 340q5 27 7.5 49.5t2.5 42.5
q0 43 -7.5 65.5t-13.5 22.5q-3 0 -5 -1.5t-8 -9.5l-309 -379q-8 -10 -8 -14q0 -6 8 -11.5t20.5 -9.5t28.5 -6.5t33 -2.5q55 0 97.5 21.5t73 56.5t50 81t30.5 95zM509 550q8 10 8 15q0 10 -25 19.5t-64 9.5q-68 0 -117 -32.5t-81.5 -83t-48 -112t-15.5 -119.5q0 -42 7.5 -64
t14.5 -22q3 0 13 11z" />
    <glyph glyph-name="Ugrave" unicode="&#xd9;" horiz-adv-x="689" 
d="M594 239q-27 -131 -106 -193t-223 -62q-61 0 -104 11t-70.5 32t-40 51.5t-12.5 70.5q0 37 9 78l93 435q4 18 21 18h97q14 0 14 -12v-3l-89 -416q-4 -17 -5.5 -33t-1.5 -30q0 -51 29 -76t95 -25q79 0 123.5 38t61.5 122l88 417q4 18 21 18h76q15 0 15 -12v-3zM525 747
q0 -8 -10 -20.5t-18 -12.5t-14.5 2.5t-19.5 9.5l-138 71q-15 7 -15 20t27 50q9 12 15.5 15.5t14.5 3.5q7 0 12.5 -3.5t15.5 -12.5l123 -107q7 -6 7 -16z" />
    <glyph glyph-name="Uacute" unicode="&#xda;" horiz-adv-x="689" 
d="M594 239q-27 -131 -106 -193t-223 -62q-61 0 -104 11t-70.5 32t-40 51.5t-12.5 70.5q0 37 9 78l93 435q4 18 21 18h97q14 0 14 -12v-3l-89 -416q-4 -17 -5.5 -33t-1.5 -30q0 -51 29 -76t95 -25q79 0 123.5 38t61.5 122l88 417q4 18 21 18h76q15 0 15 -12v-3zM314 755
q1 9 13 16l159 99q14 9 22 12t15 3t11 -3.5t9 -14.5l14 -28q4 -11 4 -19q0 -19 -24 -29l-175 -70q-11 -5 -15.5 -6t-8.5 -1q-5 0 -9.5 5.5t-7.5 12.5q-4 8 -7 19v4z" />
    <glyph glyph-name="Ucircumflex" unicode="&#xdb;" horiz-adv-x="689" 
d="M594 239q-27 -131 -106 -193t-223 -62q-61 0 -104 11t-70.5 32t-40 51.5t-12.5 70.5q0 37 9 78l93 435q4 18 21 18h97q14 0 14 -12v-3l-89 -416q-4 -17 -5.5 -33t-1.5 -30q0 -51 29 -76t95 -25q79 0 123.5 38t61.5 122l88 417q4 18 21 18h76q15 0 15 -12v-3zM586 755
q-2 -6 -8 -13l-13 -14q-6 -8 -14 -8q-3 0 -7 1t-9 4l-93 63q-7 4 -12 4q-7 0 -14 -4l-121 -63q-10 -5 -18 -5q-7 0 -10 8l-10 15q-2 4 -2 8q1 5 3.5 10t10.5 10l145 95q14 9 20 12t14 3q7 0 12.5 -3t15.5 -12l103 -95q7 -7 7 -13v-3z" />
    <glyph glyph-name="Udieresis" unicode="&#xdc;" horiz-adv-x="689" 
d="M594 239q-27 -131 -106 -193t-223 -62q-61 0 -104 11t-70.5 32t-40 51.5t-12.5 70.5q0 37 9 78l93 435q4 18 21 18h97q14 0 14 -12v-3l-89 -416q-4 -17 -5.5 -33t-1.5 -30q0 -51 29 -76t95 -25q79 0 123.5 38t61.5 122l88 417q4 18 21 18h76q15 0 15 -12v-3zM403 796
q-7 -29 -24.5 -42t-46.5 -13q-23 0 -35.5 9t-12.5 29q0 38 21 55t50 17q24 0 37 -9t13 -30q0 -4 -0.5 -7.5t-1.5 -8.5zM584 796q-7 -29 -24.5 -42t-45.5 -13q-49 0 -49 38t21 55t51 17q23 0 36 -9t13 -30q0 -4 -0.5 -7.5t-1.5 -8.5z" />
    <glyph glyph-name="Yacute" unicode="&#xdd;" horiz-adv-x="544" 
d="M618 671q0 -7 -11 -21l-269 -347q-10 -13 -14 -22t-8 -27l-50 -236q-5 -18 -20 -18h-98q-14 0 -14 14v4l47 218q5 22 5 30q0 6 -1.5 12t-4.5 14l-127 357q-4 11 -4 16t4.5 10t12.5 5h105q16 0 21 -15l86 -270q4 -10 10 -10t13 10l202 270q7 9 12.5 12t15.5 3h76
q11 0 11 -9zM249 755q1 9 13 16l159 99q14 9 22 12t15 3t11 -3.5t9 -14.5l14 -28q4 -11 4 -19q0 -19 -24 -29l-175 -70q-11 -5 -15.5 -6t-8.5 -1q-5 0 -9.5 5.5t-7.5 12.5q-4 8 -7 19v4z" />
    <glyph glyph-name="Thorn" unicode="&#xde;" horiz-adv-x="585" 
d="M569 384q-21 -102 -96 -158.5t-193 -56.5h-97q-12 0 -15 -12l-30 -139q-3 -18 -20 -18h-98q-14 0 -14 14v4l137 644q4 18 21 18h98q14 0 14 -11v-2l-15 -74v-3q0 -8 9 -8h117q40 0 74.5 -7t59.5 -24t39.5 -45.5t14.5 -70.5q0 -24 -6 -51zM431 379q5 25 5 41
q0 42 -26 60.5t-81 18.5h-77q-11 0 -14 -12l-47 -223v-4q0 -8 9 -8h74q64 0 103.5 30.5t53.5 96.5z" />
    <glyph glyph-name="germandbls" unicode="&#xdf;" horiz-adv-x="631" 
d="M555 149q-15 -71 -72.5 -114t-150.5 -43q-26 0 -51.5 3t-45.5 8.5t-32.5 14t-12.5 20.5v5l11 55q5 18 19 18q6 0 14 -6t21.5 -12.5t34.5 -12.5t53 -6q45 0 68 17t23 48q0 14 -8.5 24t-28.5 25l-56 40q-37 26 -54.5 49t-17.5 55q0 60 30.5 98t85.5 65q25 12 41.5 22.5
t26.5 21.5t14 23t4 28q0 24 -22.5 36.5t-73.5 12.5q-64 0 -98 -31.5t-48 -100.5l-105 -494q-3 -18 -20 -18h-89q-15 0 -15 13v5l104 490q13 59 39 100.5t63 67.5t84.5 37.5t102.5 11.5q107 0 155.5 -31t48.5 -79q0 -6 -0.5 -13.5t-2.5 -13.5q-6 -25 -16 -44.5t-26.5 -35.5
t-39.5 -30t-54 -29q-38 -18 -53 -32t-15 -38q0 -13 9.5 -22.5t32.5 -26.5l54 -37q40 -27 56.5 -53t16.5 -56q0 -8 -1 -17t-3 -18z" />
    <glyph glyph-name="agrave" unicode="&#xe0;" horiz-adv-x="544" 
d="M401 18q-3 -18 -21 -18h-85q-10 0 -10 9v5q0 6 -8 6q-9 0 -21.5 -4.5t-29.5 -9.5t-40 -9.5t-52 -4.5q-42 0 -70 8.5t-44.5 23.5t-23 34.5t-6.5 40.5q0 18 5 40q7 33 21 58t37.5 44.5t57 35t79.5 28.5l127 36q21 6 27.5 11t9.5 17q4 14 4.5 19.5t0.5 7.5q0 20 -19.5 30
t-65.5 10q-41 0 -71 -6.5t-51 -15t-34 -15t-20 -6.5q-11 0 -11 12v4l13 57q2 14 22.5 25t51 18t66.5 10.5t69 3.5q94 0 132.5 -28t38.5 -80q0 -14 -1.5 -30t-6.5 -36zM321 216q5 22 6.5 31t1.5 12q0 5 -6 5q-3 0 -8 -1t-16 -5l-81 -26q-44 -14 -69.5 -36.5t-25.5 -66.5
q0 -27 19 -38.5t51 -11.5q44 0 74.5 14t36.5 42zM416 587q0 -8 -10 -20.5t-18 -12.5t-14.5 2.5t-19.5 9.5l-138 71q-15 7 -15 20t27 50q9 12 15.5 15.5t14.5 3.5q7 0 12.5 -3.5t15.5 -12.5l123 -107q7 -6 7 -16z" />
    <glyph glyph-name="aacute" unicode="&#xe1;" horiz-adv-x="544" 
d="M401 18q-3 -18 -21 -18h-85q-10 0 -10 9v5q0 6 -8 6q-9 0 -21.5 -4.5t-29.5 -9.5t-40 -9.5t-52 -4.5q-42 0 -70 8.5t-44.5 23.5t-23 34.5t-6.5 40.5q0 18 5 40q7 33 21 58t37.5 44.5t57 35t79.5 28.5l127 36q21 6 27.5 11t9.5 17q4 14 4.5 19.5t0.5 7.5q0 20 -19.5 30
t-65.5 10q-41 0 -71 -6.5t-51 -15t-34 -15t-20 -6.5q-11 0 -11 12v4l13 57q2 14 22.5 25t51 18t66.5 10.5t69 3.5q94 0 132.5 -28t38.5 -80q0 -14 -1.5 -30t-6.5 -36zM321 216q5 22 6.5 31t1.5 12q0 5 -6 5q-3 0 -8 -1t-16 -5l-81 -26q-44 -14 -69.5 -36.5t-25.5 -66.5
q0 -27 19 -38.5t51 -11.5q44 0 74.5 14t36.5 42zM199 595q1 9 13 16l159 99q14 9 22 12t15 3t11 -3.5t9 -14.5l14 -28q4 -11 4 -19q0 -19 -24 -29l-175 -70q-11 -5 -15.5 -6t-8.5 -1q-5 0 -9.5 5.5t-7.5 12.5q-4 8 -7 19v4z" />
    <glyph glyph-name="acircumflex" unicode="&#xe2;" horiz-adv-x="544" 
d="M401 18q-3 -18 -21 -18h-85q-10 0 -10 9v5q0 6 -8 6q-9 0 -21.5 -4.5t-29.5 -9.5t-40 -9.5t-52 -4.5q-42 0 -70 8.5t-44.5 23.5t-23 34.5t-6.5 40.5q0 18 5 40q7 33 21 58t37.5 44.5t57 35t79.5 28.5l127 36q21 6 27.5 11t9.5 17q4 14 4.5 19.5t0.5 7.5q0 20 -19.5 30
t-65.5 10q-41 0 -71 -6.5t-51 -15t-34 -15t-20 -6.5q-11 0 -11 12v4l13 57q2 14 22.5 25t51 18t66.5 10.5t69 3.5q94 0 132.5 -28t38.5 -80q0 -14 -1.5 -30t-6.5 -36zM321 216q5 22 6.5 31t1.5 12q0 5 -6 5q-3 0 -8 -1t-16 -5l-81 -26q-44 -14 -69.5 -36.5t-25.5 -66.5
q0 -27 19 -38.5t51 -11.5q44 0 74.5 14t36.5 42zM469 595q-2 -6 -8 -13l-13 -14q-6 -8 -14 -8q-3 0 -7 1t-9 4l-93 63q-7 4 -12 4q-7 0 -14 -4l-121 -63q-10 -5 -18 -5q-7 0 -10 8l-10 15q-2 4 -2 8q1 5 3.5 10t10.5 10l145 95q14 9 20 12t14 3q7 0 12.5 -3t15.5 -12
l103 -95q7 -7 7 -13v-3z" />
    <glyph glyph-name="atilde" unicode="&#xe3;" horiz-adv-x="544" 
d="M401 18q-3 -18 -21 -18h-85q-10 0 -10 9v5q0 6 -8 6q-9 0 -21.5 -4.5t-29.5 -9.5t-40 -9.5t-52 -4.5q-42 0 -70 8.5t-44.5 23.5t-23 34.5t-6.5 40.5q0 18 5 40q7 33 21 58t37.5 44.5t57 35t79.5 28.5l127 36q21 6 27.5 11t9.5 17q4 14 4.5 19.5t0.5 7.5q0 20 -19.5 30
t-65.5 10q-41 0 -71 -6.5t-51 -15t-34 -15t-20 -6.5q-11 0 -11 12v4l13 57q2 14 22.5 25t51 18t66.5 10.5t69 3.5q94 0 132.5 -28t38.5 -80q0 -14 -1.5 -30t-6.5 -36zM321 216q5 22 6.5 31t1.5 12q0 5 -6 5q-3 0 -8 -1t-16 -5l-81 -26q-44 -14 -69.5 -36.5t-25.5 -66.5
q0 -27 19 -38.5t51 -11.5q44 0 74.5 14t36.5 42zM283 608q-21 11 -35 11q-8 0 -13.5 -4t-13.5 -12l-9 -10q-11 -12 -19 -12q-8 2 -14 5q-5 2 -9 6t-4 10q0 14 18 40q23 33 43.5 40t38.5 7q28 0 51 -12l33 -18q19 -11 34 -11q13 0 28 16l9 10q11 12 18 12q8 -2 14 -5
q5 -2 9.5 -6.5t4.5 -9.5q0 -15 -19 -40q-24 -32 -44 -39.5t-38 -7.5q-27 0 -51 12z" />
    <glyph glyph-name="adieresis" unicode="&#xe4;" horiz-adv-x="544" 
d="M401 18q-3 -18 -21 -18h-85q-10 0 -10 9v5q0 6 -8 6q-9 0 -21.5 -4.5t-29.5 -9.5t-40 -9.5t-52 -4.5q-42 0 -70 8.5t-44.5 23.5t-23 34.5t-6.5 40.5q0 18 5 40q7 33 21 58t37.5 44.5t57 35t79.5 28.5l127 36q21 6 27.5 11t9.5 17q4 14 4.5 19.5t0.5 7.5q0 20 -19.5 30
t-65.5 10q-41 0 -71 -6.5t-51 -15t-34 -15t-20 -6.5q-11 0 -11 12v4l13 57q2 14 22.5 25t51 18t66.5 10.5t69 3.5q94 0 132.5 -28t38.5 -80q0 -14 -1.5 -30t-6.5 -36zM321 216q5 22 6.5 31t1.5 12q0 5 -6 5q-3 0 -8 -1t-16 -5l-81 -26q-44 -14 -69.5 -36.5t-25.5 -66.5
q0 -27 19 -38.5t51 -11.5q44 0 74.5 14t36.5 42zM282 636q-7 -29 -24.5 -42t-46.5 -13q-23 0 -35.5 9t-12.5 29q0 38 21 55t50 17q24 0 37 -9t13 -30q0 -4 -0.5 -7.5t-1.5 -8.5zM463 636q-7 -29 -24.5 -42t-45.5 -13q-49 0 -49 38t21 55t51 17q23 0 36 -9t13 -30
q0 -4 -0.5 -7.5t-1.5 -8.5z" />
    <glyph glyph-name="aring" unicode="&#xe5;" horiz-adv-x="544" 
d="M401 18q-3 -18 -21 -18h-85q-10 0 -10 9v5q0 6 -8 6q-9 0 -21.5 -4.5t-29.5 -9.5t-40 -9.5t-52 -4.5q-42 0 -70 8.5t-44.5 23.5t-23 34.5t-6.5 40.5q0 18 5 40q7 33 21 58t37.5 44.5t57 35t79.5 28.5l127 36q21 6 27.5 11t9.5 17q4 14 4.5 19.5t0.5 7.5q0 20 -19.5 30
t-65.5 10q-41 0 -71 -6.5t-51 -15t-34 -15t-20 -6.5q-11 0 -11 12v4l13 57q2 14 22.5 25t51 18t66.5 10.5t69 3.5q94 0 132.5 -28t38.5 -80q0 -14 -1.5 -30t-6.5 -36zM321 216q5 22 6.5 31t1.5 12q0 5 -6 5q-3 0 -8 -1t-16 -5l-81 -26q-44 -14 -69.5 -36.5t-25.5 -66.5
q0 -27 19 -38.5t51 -11.5q44 0 74.5 14t36.5 42zM401 640q-18 -79 -98 -79q-70 0 -70 53q0 48 28.5 73t71.5 25q33 0 51.5 -14.5t18.5 -40.5q0 -4 -0.5 -8t-1.5 -9zM351 634q1 5 1.5 8.5t0.5 6.5q0 23 -26 23q-20 0 -32.5 -12t-12.5 -35q0 -24 27 -24q36 0 42 33z" />
    <glyph glyph-name="ae" unicode="&#xe6;" horiz-adv-x="860" 
d="M802 256q-5 -19 -23 -19h-317q-11 0 -17 -13t-6 -42q0 -52 34.5 -78t97.5 -26q34 0 60.5 6t46 12.5t31.5 12.5t17 6q12 0 12 -10v-3l-12 -55q-3 -16 -21 -26.5t-44 -17t-58 -9t-63 -2.5q-49 0 -81 9.5t-51.5 21t-29.5 21t-16 9.5q-9 0 -24 -9.5t-40 -21t-62 -21t-91 -9.5
q-83 0 -117 29t-34 76q0 18 5 41q7 32 21 57.5t37 45.5t57 35.5t81 28.5l112 31q28 8 38.5 14t12.5 17q3 14 3.5 20.5t0.5 8.5q0 20 -19 30t-66 10q-42 0 -71.5 -6.5t-50 -15t-33 -15t-20.5 -6.5q-11 0 -11 12v4l13 58q3 13 22.5 23.5t49 17.5t64.5 11t69 4q48 0 75.5 -8
t42.5 -17.5t21.5 -17.5t12.5 -8q5 0 18 8t34 17.5t50 17.5t68 8q91 0 137.5 -43.5t46.5 -124.5q0 -25 -4 -51.5t-9 -47.5zM678 318q8 0 12 8t4 35q0 38 -23 59.5t-69 21.5q-32 0 -57.5 -12.5t-43 -31t-27 -38.5t-9.5 -35q0 -7 10 -7h203zM333 255v4q0 5 -6 5q-3 0 -7.5 -1
t-9.5 -3l-84 -27q-47 -15 -73 -37.5t-26 -66.5q0 -28 19 -39.5t53 -11.5q45 0 74.5 15t34.5 40z" />
    <glyph glyph-name="ccedilla" unicode="&#xe7;" horiz-adv-x="517" 
d="M289 -105q-8 -38 -44 -60t-88 -22q-18 0 -28.5 2.5t-10.5 11.5v5l3 14q2 10 9.5 14t36.5 6q19 2 35 10.5t16 32.5q0 6 -5.5 11t-12.5 9.5t-12.5 8t-5.5 8.5v4l8 36v2q0 5 -7 7q-85 10 -127 56t-42 124q0 37 9 78q13 61 40.5 111t69.5 85t97.5 54.5t125.5 19.5
q30 0 56.5 -3.5t46 -9.5t31 -13.5t11.5 -15.5v-3l-15 -65q-2 -10 -6 -13t-11 -3q-9 0 -17 5.5t-21 12t-32.5 12t-51.5 5.5q-81 0 -129 -48t-65 -129q-6 -32 -6 -57q0 -58 31 -86.5t88 -28.5q33 0 56.5 5.5t41 12.5t28.5 12.5t18 5.5q11 0 11 -11v-2l-13 -61
q-3 -13 -17.5 -22.5t-36 -16t-48 -9.5t-54.5 -4q-4 -3 -5.5 -8t-1.5 -8v-3q0 -4 7.5 -7t16 -8.5t16 -15t7.5 -27.5q0 -9 -3 -21z" />
    <glyph glyph-name="egrave" unicode="&#xe8;" horiz-adv-x="566" 
d="M504 255q-5 -18 -22 -18h-317q-13 0 -17.5 -13t-4.5 -41q0 -49 32.5 -77t99.5 -28q34 0 61 6t46.5 12.5t31.5 12.5t17 6q13 0 13 -10v-2l-13 -56q-3 -15 -20 -25.5t-42.5 -17.5t-58 -10t-68.5 -3q-116 0 -172 47.5t-56 136.5q0 36 9 77q15 68 44 119t69 84.5t89 50.5
t103 17q99 0 144.5 -45.5t45.5 -121.5q0 -17 -4.5 -47t-9.5 -54zM379 318q11 0 14.5 10t3.5 32q0 38 -23 59.5t-71 21.5q-32 0 -57.5 -13t-42.5 -31t-26 -38t-9 -35q0 -6 10 -6h201zM452 587q0 -8 -10 -20.5t-18 -12.5t-14.5 2.5t-19.5 9.5l-138 71q-15 7 -15 20t27 50
q9 12 15.5 15.5t14.5 3.5q7 0 12.5 -3.5t15.5 -12.5l123 -107q7 -6 7 -16z" />
    <glyph glyph-name="eacute" unicode="&#xe9;" horiz-adv-x="566" 
d="M504 255q-5 -18 -22 -18h-317q-13 0 -17.5 -13t-4.5 -41q0 -49 32.5 -77t99.5 -28q34 0 61 6t46.5 12.5t31.5 12.5t17 6q13 0 13 -10v-2l-13 -56q-3 -15 -20 -25.5t-42.5 -17.5t-58 -10t-68.5 -3q-116 0 -172 47.5t-56 136.5q0 36 9 77q15 68 44 119t69 84.5t89 50.5
t103 17q99 0 144.5 -45.5t45.5 -121.5q0 -17 -4.5 -47t-9.5 -54zM379 318q11 0 14.5 10t3.5 32q0 38 -23 59.5t-71 21.5q-32 0 -57.5 -13t-42.5 -31t-26 -38t-9 -35q0 -6 10 -6h201zM232 595q1 9 13 16l159 99q14 9 22 12t15 3t11 -3.5t9 -14.5l14 -28q4 -11 4 -19
q0 -19 -24 -29l-175 -70q-11 -5 -15.5 -6t-8.5 -1q-5 0 -9.5 5.5t-7.5 12.5q-4 8 -7 19v4z" />
    <glyph glyph-name="ecircumflex" unicode="&#xea;" horiz-adv-x="566" 
d="M504 255q-5 -18 -22 -18h-317q-13 0 -17.5 -13t-4.5 -41q0 -49 32.5 -77t99.5 -28q34 0 61 6t46.5 12.5t31.5 12.5t17 6q13 0 13 -10v-2l-13 -56q-3 -15 -20 -25.5t-42.5 -17.5t-58 -10t-68.5 -3q-116 0 -172 47.5t-56 136.5q0 36 9 77q15 68 44 119t69 84.5t89 50.5
t103 17q99 0 144.5 -45.5t45.5 -121.5q0 -17 -4.5 -47t-9.5 -54zM379 318q11 0 14.5 10t3.5 32q0 38 -23 59.5t-71 21.5q-32 0 -57.5 -13t-42.5 -31t-26 -38t-9 -35q0 -6 10 -6h201zM506 595q-2 -6 -8 -13l-13 -14q-6 -8 -14 -8q-3 0 -7 1t-9 4l-93 63q-7 4 -12 4
q-7 0 -14 -4l-121 -63q-10 -5 -18 -5q-7 0 -10 8l-10 15q-2 4 -2 8q1 5 3.5 10t10.5 10l145 95q14 9 20 12t14 3q7 0 12.5 -3t15.5 -12l103 -95q7 -7 7 -13v-3z" />
    <glyph glyph-name="edieresis" unicode="&#xeb;" horiz-adv-x="566" 
d="M504 255q-5 -18 -22 -18h-317q-13 0 -17.5 -13t-4.5 -41q0 -49 32.5 -77t99.5 -28q34 0 61 6t46.5 12.5t31.5 12.5t17 6q13 0 13 -10v-2l-13 -56q-3 -15 -20 -25.5t-42.5 -17.5t-58 -10t-68.5 -3q-116 0 -172 47.5t-56 136.5q0 36 9 77q15 68 44 119t69 84.5t89 50.5
t103 17q99 0 144.5 -45.5t45.5 -121.5q0 -17 -4.5 -47t-9.5 -54zM379 318q11 0 14.5 10t3.5 32q0 38 -23 59.5t-71 21.5q-32 0 -57.5 -13t-42.5 -31t-26 -38t-9 -35q0 -6 10 -6h201zM310 636q-7 -29 -24.5 -42t-46.5 -13q-23 0 -35.5 9t-12.5 29q0 38 21 55t50 17
q24 0 37 -9t13 -30q0 -4 -0.5 -7.5t-1.5 -8.5zM491 636q-7 -29 -24.5 -42t-45.5 -13q-49 0 -49 38t21 55t51 17q23 0 36 -9t13 -30q0 -4 -0.5 -7.5t-1.5 -8.5z" />
    <glyph glyph-name="igrave" unicode="&#xec;" horiz-adv-x="272" 
d="M128 18q-3 -18 -20 -18h-89q-15 0 -15 14v4l102 479q3 18 22 18h89q14 0 14 -13v-3zM290 587q0 -8 -10 -20.5t-18 -12.5t-14.5 2.5t-19.5 9.5l-138 71q-15 7 -15 20t27 50q9 12 15.5 15.5t14.5 3.5q7 0 12.5 -3.5t15.5 -12.5l123 -107q7 -6 7 -16z" />
    <glyph glyph-name="iacute" unicode="&#xed;" horiz-adv-x="272" 
d="M128 18q-3 -18 -20 -18h-89q-15 0 -15 14v4l102 479q3 18 22 18h89q14 0 14 -13v-3zM74 595q1 9 13 16l159 99q14 9 22 12t15 3t11 -3.5t9 -14.5l14 -28q4 -11 4 -19q0 -19 -24 -29l-175 -70q-11 -5 -15.5 -6t-8.5 -1q-5 0 -9.5 5.5t-7.5 12.5q-4 8 -7 19v4z" />
    <glyph glyph-name="icircumflex" unicode="&#xee;" horiz-adv-x="272" 
d="M128 18q-3 -18 -20 -18h-89q-15 0 -15 14v4l102 479q3 18 22 18h89q14 0 14 -13v-3zM346 595q-2 -6 -8 -13l-13 -14q-6 -8 -14 -8q-3 0 -7 1t-9 4l-93 63q-7 4 -12 4q-7 0 -14 -4l-121 -63q-10 -5 -18 -5q-7 0 -10 8l-10 15q-2 4 -2 8q1 5 3.5 10t10.5 10l145 95
q14 9 20 12t14 3q7 0 12.5 -3t15.5 -12l103 -95q7 -7 7 -13v-3z" />
    <glyph glyph-name="idieresis" unicode="&#xef;" horiz-adv-x="272" 
d="M128 18q-3 -18 -20 -18h-89q-15 0 -15 14v4l102 479q3 18 22 18h89q14 0 14 -13v-3zM159 636q-7 -29 -24.5 -42t-46.5 -13q-23 0 -35.5 9t-12.5 29q0 38 21 55t50 17q24 0 37 -9t13 -30q0 -4 -0.5 -7.5t-1.5 -8.5zM340 636q-7 -29 -24.5 -42t-45.5 -13q-49 0 -49 38
t21 55t51 17q23 0 36 -9t13 -30q0 -4 -0.5 -7.5t-1.5 -8.5z" />
    <glyph glyph-name="eth" unicode="&#xf0;" horiz-adv-x="594" 
d="M549 337q-21 -98 -52.5 -164t-74 -106t-95 -57.5t-114.5 -17.5q-53 0 -90.5 13.5t-61.5 37.5t-35.5 57.5t-11.5 74.5q0 37 9 79q13 58 39 106.5t64 83.5t86.5 54t105.5 19q44 0 69.5 -10t39 -22.5t18.5 -22.5t7 -10q4 0 5.5 8t1.5 28q0 30 -4.5 51.5t-10.5 35.5t-12 20.5
t-10 6.5t-10 -3l-77 -44q-12 -7 -20 -7q-9 0 -13 9l-10 23q-1 2 -2 5.5t-1 5.5q0 7 3.5 10.5t13.5 8.5l24 12q16 8 22.5 13t6.5 7q0 5 -13.5 8t-51.5 3q-48 0 -73 -7.5t-33 -7.5q-10 0 -10 9v3l10 48q3 14 37.5 24t91.5 10q37 0 62 -4.5t41 -10t25 -10t14 -4.5q8 0 21 8
l62 37q7 4 10.5 5.5t8.5 1.5q10 0 14 -9l7 -17q6 -12 6 -19q0 -12 -16 -20l-41 -23q-9 -5 -10 -10q0 -4 7 -13.5t16 -29t16 -50.5t7 -78q0 -30 -4 -67t-14 -82zM401 224q11 34 15.5 55.5t4.5 44.5q0 21 -5 41t-17 35.5t-32 25.5t-50 10q-39 0 -66.5 -15.5t-47 -41
t-31.5 -58.5t-20 -69q-9 -39 -9 -75q0 -44 21 -72.5t78 -28.5q35 0 60.5 12t44.5 32.5t32 47.5t22 56z" />
    <glyph glyph-name="ntilde" unicode="&#xf1;" horiz-adv-x="590" 
d="M450 18q-3 -18 -21 -18h-89q-14 0 -14 13v5l63 297q6 25 6 49q0 37 -22 52.5t-60 15.5q-18 0 -36.5 -3t-34 -10t-27 -18.5t-15.5 -27.5l-76 -355q-3 -18 -20 -18h-89q-15 0 -15 13v5l102 479q4 18 22 18h86q12 0 12 -9q0 -2 -0.5 -3t-0.5 -3q0 -5 10 -5q12 0 25 4.5
t30.5 9.5t39 9.5t50.5 4.5q70 0 110 -28t40 -88q0 -35 -10 -82zM307 608q-21 11 -35 11q-8 0 -13.5 -4t-13.5 -12l-9 -10q-11 -12 -19 -12q-8 2 -14 5q-5 2 -9 6t-4 10q0 14 18 40q23 33 43.5 40t38.5 7q28 0 51 -12l33 -18q19 -11 34 -11q13 0 28 16l9 10q11 12 18 12
q8 -2 14 -5q5 -2 9.5 -6.5t4.5 -9.5q0 -15 -19 -40q-24 -32 -44 -39.5t-38 -7.5q-27 0 -51 12z" />
    <glyph glyph-name="ograve" unicode="&#xf2;" horiz-adv-x="596" 
d="M539 259q-12 -58 -38.5 -107t-66 -85t-92 -56t-118.5 -20q-106 0 -158 50.5t-52 138.5q0 35 9 76q12 58 38.5 107t66 84.5t92 55.5t118.5 20q106 0 158 -50t52 -138q0 -36 -9 -76zM409 261q9 42 9 74q0 54 -25.5 77.5t-74.5 23.5q-63 0 -104 -42t-62 -140q-9 -44 -9 -74
q0 -54 25 -78t75 -24q62 0 103.5 42t62.5 141zM460 587q0 -8 -10 -20.5t-18 -12.5t-14.5 2.5t-19.5 9.5l-138 71q-15 7 -15 20t27 50q9 12 15.5 15.5t14.5 3.5q7 0 12.5 -3.5t15.5 -12.5l123 -107q7 -6 7 -16z" />
    <glyph glyph-name="oacute" unicode="&#xf3;" horiz-adv-x="596" 
d="M539 259q-12 -58 -38.5 -107t-66 -85t-92 -56t-118.5 -20q-106 0 -158 50.5t-52 138.5q0 35 9 76q12 58 38.5 107t66 84.5t92 55.5t118.5 20q106 0 158 -50t52 -138q0 -36 -9 -76zM409 261q9 42 9 74q0 54 -25.5 77.5t-74.5 23.5q-63 0 -104 -42t-62 -140q-9 -44 -9 -74
q0 -54 25 -78t75 -24q62 0 103.5 42t62.5 141zM239 595q1 9 13 16l159 99q14 9 22 12t15 3t11 -3.5t9 -14.5l14 -28q4 -11 4 -19q0 -19 -24 -29l-175 -70q-11 -5 -15.5 -6t-8.5 -1q-5 0 -9.5 5.5t-7.5 12.5q-4 8 -7 19v4z" />
    <glyph glyph-name="ocircumflex" unicode="&#xf4;" horiz-adv-x="596" 
d="M539 259q-12 -58 -38.5 -107t-66 -85t-92 -56t-118.5 -20q-106 0 -158 50.5t-52 138.5q0 35 9 76q12 58 38.5 107t66 84.5t92 55.5t118.5 20q106 0 158 -50t52 -138q0 -36 -9 -76zM409 261q9 42 9 74q0 54 -25.5 77.5t-74.5 23.5q-63 0 -104 -42t-62 -140q-9 -44 -9 -74
q0 -54 25 -78t75 -24q62 0 103.5 42t62.5 141zM515 595q-2 -6 -8 -13l-13 -14q-6 -8 -14 -8q-3 0 -7 1t-9 4l-93 63q-7 4 -12 4q-7 0 -14 -4l-121 -63q-10 -5 -18 -5q-7 0 -10 8l-10 15q-2 4 -2 8q1 5 3.5 10t10.5 10l145 95q14 9 20 12t14 3q7 0 12.5 -3t15.5 -12l103 -95
q7 -7 7 -13v-3z" />
    <glyph glyph-name="otilde" unicode="&#xf5;" horiz-adv-x="596" 
d="M539 259q-12 -58 -38.5 -107t-66 -85t-92 -56t-118.5 -20q-106 0 -158 50.5t-52 138.5q0 35 9 76q12 58 38.5 107t66 84.5t92 55.5t118.5 20q106 0 158 -50t52 -138q0 -36 -9 -76zM409 261q9 42 9 74q0 54 -25.5 77.5t-74.5 23.5q-63 0 -104 -42t-62 -140q-9 -44 -9 -74
q0 -54 25 -78t75 -24q62 0 103.5 42t62.5 141zM322 608q-21 11 -35 11q-8 0 -13.5 -4t-13.5 -12l-9 -10q-11 -12 -19 -12q-8 2 -14 5q-5 2 -9 6t-4 10q0 14 18 40q23 33 43.5 40t38.5 7q28 0 51 -12l33 -18q19 -11 34 -11q13 0 28 16l9 10q11 12 18 12q8 -2 14 -5
q5 -2 9.5 -6.5t4.5 -9.5q0 -15 -19 -40q-24 -32 -44 -39.5t-38 -7.5q-27 0 -51 12z" />
    <glyph glyph-name="odieresis" unicode="&#xf6;" horiz-adv-x="596" 
d="M539 259q-12 -58 -38.5 -107t-66 -85t-92 -56t-118.5 -20q-106 0 -158 50.5t-52 138.5q0 35 9 76q12 58 38.5 107t66 84.5t92 55.5t118.5 20q106 0 158 -50t52 -138q0 -36 -9 -76zM409 261q9 42 9 74q0 54 -25.5 77.5t-74.5 23.5q-63 0 -104 -42t-62 -140q-9 -44 -9 -74
q0 -54 25 -78t75 -24q62 0 103.5 42t62.5 141zM323 636q-7 -29 -24.5 -42t-46.5 -13q-23 0 -35.5 9t-12.5 29q0 38 21 55t50 17q24 0 37 -9t13 -30q0 -4 -0.5 -7.5t-1.5 -8.5zM504 636q-7 -29 -24.5 -42t-45.5 -13q-49 0 -49 38t21 55t51 17q23 0 36 -9t13 -30
q0 -4 -0.5 -7.5t-1.5 -8.5z" />
    <glyph glyph-name="divide" unicode="&#xf7;" 
d="M419 524q-7 -32 -32.5 -52.5t-56.5 -20.5q-26 0 -42.5 15.5t-16.5 41.5q0 20 7.5 36.5t20.5 28t29 18t33 6.5q27 0 43.5 -15t16.5 -41q0 -4 -0.5 -8t-1.5 -9zM338 144q-7 -33 -32 -53t-56 -20q-26 0 -43 15.5t-17 41.5q0 19 7.5 35.5t20.5 28.5t29.5 18.5t33.5 6.5
q26 0 42.5 -14t16.5 -40v-9.5t-2 -9.5zM81 292q-23 0 -23 17q0 2 1 8t7 33q6 26 32 26h433q23 0 23 -18q0 -2 -1 -8t-7 -33q-4 -25 -32 -25h-433z" />
    <glyph glyph-name="oslash" unicode="&#xf8;" horiz-adv-x="596" 
d="M539 259q-11 -53 -35.5 -101.5t-63.5 -85.5t-92.5 -59t-123.5 -22q-28 0 -47 3t-31 6.5t-19 6.5t-12 3q-6 0 -13 -9l-28 -35q-10 -13 -18 -13q-5 0 -13 4q-12 7 -15.5 10.5t-3.5 7.5q0 6 10 19l26 31q8 10 8 13q0 4 -8.5 12t-18.5 23.5t-18.5 41t-8.5 64.5
q0 63 20.5 124.5t61 110t101.5 79t142 30.5q28 0 47 -3t31.5 -6t19 -6t9.5 -3t6 1.5t8 7.5l29 35q8 9 10.5 11t7.5 2q2 0 6 -1.5t6 -3.5q12 -8 15.5 -11.5t3.5 -6.5q0 -5 -1.5 -8t-8.5 -11l-25 -30q-8 -9 -8 -14q0 -3 8.5 -11.5t18 -24.5t18 -41.5t8.5 -63.5q0 -33 -9 -76z
M378 418q0 7 -15.5 13t-44.5 6q-70 0 -109.5 -47t-59.5 -136q-5 -21 -6.5 -39t-1.5 -32q0 -41 10 -41q2 0 4.5 2t8.5 10l206 250q7 8 8 13v1zM412 261q9 42 9 73q0 17 -2.5 27.5t-7.5 10.5q-4 0 -14 -11l-207 -251q-8 -10 -8 -13q0 -8 17 -14t44 -6q69 0 109 46.5t60 137.5z
" />
    <glyph glyph-name="ugrave" unicode="&#xf9;" horiz-adv-x="584" 
d="M443 18q-3 -18 -21 -18h-86q-12 0 -12 10v5q0 5 -8 5q-12 0 -25 -4.5t-30 -9.5t-39 -9.5t-53 -4.5q-32 0 -59.5 6t-48 19.5t-32 35t-11.5 51.5q0 20 4 45.5t11 57.5l62 290q3 18 21 18h91q13 0 13 -12v-3l-66 -310q-5 -25 -5 -41q0 -34 20 -50t67 -16q39 0 71 14t39 47
l75 353q3 18 20 18h91q14 0 14 -13v-3zM435 587q0 -8 -10 -20.5t-18 -12.5t-14.5 2.5t-19.5 9.5l-138 71q-15 7 -15 20t27 50q9 12 15.5 15.5t14.5 3.5q7 0 12.5 -3.5t15.5 -12.5l123 -107q7 -6 7 -16z" />
    <glyph glyph-name="uacute" unicode="&#xfa;" horiz-adv-x="584" 
d="M443 18q-3 -18 -21 -18h-86q-12 0 -12 10v5q0 5 -8 5q-12 0 -25 -4.5t-30 -9.5t-39 -9.5t-53 -4.5q-32 0 -59.5 6t-48 19.5t-32 35t-11.5 51.5q0 20 4 45.5t11 57.5l62 290q3 18 21 18h91q13 0 13 -12v-3l-66 -310q-5 -25 -5 -41q0 -34 20 -50t67 -16q39 0 71 14t39 47
l75 353q3 18 20 18h91q14 0 14 -13v-3zM225 595q1 9 13 16l159 99q14 9 22 12t15 3t11 -3.5t9 -14.5l14 -28q4 -11 4 -19q0 -19 -24 -29l-175 -70q-11 -5 -15.5 -6t-8.5 -1q-5 0 -9.5 5.5t-7.5 12.5q-4 8 -7 19v4z" />
    <glyph glyph-name="ucircumflex" unicode="&#xfb;" horiz-adv-x="584" 
d="M443 18q-3 -18 -21 -18h-86q-12 0 -12 10v5q0 5 -8 5q-12 0 -25 -4.5t-30 -9.5t-39 -9.5t-53 -4.5q-32 0 -59.5 6t-48 19.5t-32 35t-11.5 51.5q0 20 4 45.5t11 57.5l62 290q3 18 21 18h91q13 0 13 -12v-3l-66 -310q-5 -25 -5 -41q0 -34 20 -50t67 -16q39 0 71 14t39 47
l75 353q3 18 20 18h91q14 0 14 -13v-3zM492 595q-2 -6 -8 -13l-13 -14q-6 -8 -14 -8q-3 0 -7 1t-9 4l-93 63q-7 4 -12 4q-7 0 -14 -4l-121 -63q-10 -5 -18 -5q-7 0 -10 8l-10 15q-2 4 -2 8q1 5 3.5 10t10.5 10l145 95q14 9 20 12t14 3q7 0 12.5 -3t15.5 -12l103 -95
q7 -7 7 -13v-3z" />
    <glyph glyph-name="udieresis" unicode="&#xfc;" horiz-adv-x="584" 
d="M443 18q-3 -18 -21 -18h-86q-12 0 -12 10v5q0 5 -8 5q-12 0 -25 -4.5t-30 -9.5t-39 -9.5t-53 -4.5q-32 0 -59.5 6t-48 19.5t-32 35t-11.5 51.5q0 20 4 45.5t11 57.5l62 290q3 18 21 18h91q13 0 13 -12v-3l-66 -310q-5 -25 -5 -41q0 -34 20 -50t67 -16q39 0 71 14t39 47
l75 353q3 18 20 18h91q14 0 14 -13v-3zM303 636q-7 -29 -24.5 -42t-46.5 -13q-23 0 -35.5 9t-12.5 29q0 38 21 55t50 17q24 0 37 -9t13 -30q0 -4 -0.5 -7.5t-1.5 -8.5zM484 636q-7 -29 -24.5 -42t-45.5 -13q-49 0 -49 38t21 55t51 17q23 0 36 -9t13 -30q0 -4 -0.5 -7.5
t-1.5 -8.5z" />
    <glyph glyph-name="yacute" unicode="&#xfd;" horiz-adv-x="482" 
d="M518 506q0 -6 -9 -22l-334 -583q-35 -62 -74 -91.5t-97 -29.5q-52 0 -52 16v3l12 57q3 14 16 14q5 0 10.5 -0.5t16.5 -0.5q20 0 35.5 9t29.5 33l21 36q8 12 10 18t2 11q0 3 -0.5 8.5t-1.5 10.5l-76 493v5q0 10 4.5 16t16.5 6h96q8 0 11 -3t4 -9l41 -356q1 -13 6 -13
q6 0 13 13l187 356q7 12 23 12h75q14 0 14 -9zM187 595q1 9 13 16l159 99q14 9 22 12t15 3t11 -3.5t9 -14.5l14 -28q4 -11 4 -19q0 -19 -24 -29l-175 -70q-11 -5 -15.5 -6t-8.5 -1q-5 0 -9.5 5.5t-7.5 12.5q-4 8 -7 19v4z" />
    <glyph glyph-name="thorn" unicode="&#xfe;" horiz-adv-x="606" 
d="M549 264q-14 -65 -42 -116t-67 -86t-88 -53t-104 -18q-27 0 -46.5 4.5t-33 9.5t-21 9.5t-11.5 4.5q-10 0 -13 -13l-43 -200q-3 -18 -20 -18h-91q-13 0 -13 12v6l190 893q4 18 21 18h91q13 0 13 -10v-4l-43 -201v-2q0 -7 8 -7q5 0 15.5 4.5t27 10.5t38.5 10.5t51 4.5
q94 0 142 -47.5t48 -133.5q0 -36 -9 -78zM417 262q4 17 6 32.5t2 29.5q0 52 -27.5 80.5t-89.5 28.5q-16 0 -33.5 -3t-32.5 -10t-26.5 -18.5t-14.5 -27.5l-51 -239v-7q0 -13 7.5 -22t19.5 -14.5t26.5 -8t29.5 -2.5q31 0 60 9.5t53 31t42 56t29 84.5z" />
    <glyph glyph-name="ydieresis" unicode="&#xff;" horiz-adv-x="482" 
d="M518 506q0 -6 -9 -22l-334 -583q-35 -62 -74 -91.5t-97 -29.5q-52 0 -52 16v3l12 57q3 14 16 14q5 0 10.5 -0.5t16.5 -0.5q20 0 35.5 9t29.5 33l21 36q8 12 10 18t2 11q0 3 -0.5 8.5t-1.5 10.5l-76 493v5q0 10 4.5 16t16.5 6h96q8 0 11 -3t4 -9l41 -356q1 -13 6 -13
q6 0 13 13l187 356q7 12 23 12h75q14 0 14 -9zM264 636q-7 -29 -24.5 -42t-46.5 -13q-23 0 -35.5 9t-12.5 29q0 38 21 55t50 17q24 0 37 -9t13 -30q0 -4 -0.5 -7.5t-1.5 -8.5zM445 636q-7 -29 -24.5 -42t-45.5 -13q-49 0 -49 38t21 55t51 17q23 0 36 -9t13 -30
q0 -4 -0.5 -7.5t-1.5 -8.5z" />
    <glyph glyph-name="dotlessi" unicode="&#x131;" horiz-adv-x="272" 
d="M128 18q-3 -18 -20 -18h-89q-15 0 -15 14v4l102 479q3 18 22 18h89q14 0 14 -13v-3z" />
    <glyph glyph-name="OE" unicode="&#x152;" horiz-adv-x="936" 
d="M836 18q-3 -18 -20 -18h-406q-12 0 -22 -1.5t-23.5 -3.5t-33 -3.5t-48.5 -1.5q-121 0 -187.5 61t-66.5 176q0 44 11 99q21 97 59.5 166t91.5 113t118 65t138 21q24 0 40.5 -1.5t30 -4t25 -4t26.5 -1.5h370q15 0 15 -12v-3l-14 -63q-4 -18 -21 -18h-242q-12 0 -15 -12
l-33 -155v-2q0 -10 10 -10h189q16 0 16 -11v-3l-14 -65q-5 -18 -23 -18h-189q-12 0 -15 -12l-39 -187v-4q0 -9 11 -9h261q14 0 14 -11v-4zM525 538l1 8q0 22 -23 35t-78 13q-92 0 -156 -67t-91 -194q-10 -46 -10 -87q0 -78 37.5 -119t105.5 -41q61 0 92.5 14t38.5 46z" />
    <glyph glyph-name="oe" unicode="&#x153;" horiz-adv-x="939" 
d="M894 353q0 -23 -3.5 -49t-8.5 -49q-3 -12 -10 -15t-13 -3h-317q-9 0 -13.5 -6t-6.5 -14.5t-2.5 -18t-0.5 -15.5q0 -55 37 -80t95 -25q34 0 60.5 6t45.5 12.5t31 12.5t18 6q8 0 10 -3.5t2 -8.5v-4l-12 -54q-3 -12 -17.5 -21.5t-39 -17t-58 -11.5t-72.5 -4q-57 0 -91.5 12
t-54.5 26.5t-29 26.5t-15 12t-20.5 -12t-39 -26.5t-62 -26.5t-89.5 -12q-104 0 -154.5 50t-50.5 137q0 36 9 78q13 62 40.5 111.5t68 84t92 53t112.5 18.5q51 0 82.5 -12t50 -27t27.5 -27t16 -12q5 0 19 12t38 27t59.5 27t83.5 12q51 0 85.5 -13.5t56.5 -36.5t31.5 -54
t9.5 -66zM759 318q15 0 15 44q0 42 -26.5 61t-67.5 19q-31 0 -56 -13t-43 -31t-27.5 -38t-9.5 -34q0 -8 11 -8h204zM408 261q9 42 9 74q0 54 -25.5 77.5t-74.5 23.5q-63 0 -104 -42t-62 -140q-9 -44 -9 -74q0 -54 25 -78t75 -24q62 0 103.5 42t62.5 141z" />
    <glyph glyph-name="Scaron" unicode="&#x160;" horiz-adv-x="504" 
d="M421 191q-20 -94 -89.5 -146.5t-184.5 -52.5q-27 0 -57.5 4t-56 10.5t-42.5 16t-17 21.5v5l14 67q3 16 18 16q8 0 17.5 -7t26 -15.5t43 -15.5t67.5 -7q66 0 99 29.5t33 75.5q0 17 -9.5 33.5t-32.5 33.5l-103 77q-34 26 -51.5 55.5t-17.5 69.5q0 11 1.5 22t3.5 23
q20 92 90 137.5t176 45.5q25 0 52 -4t50 -11t38 -16.5t15 -19.5v-3l-15 -72q-2 -6 -5.5 -10.5t-11.5 -4.5q-9 0 -19 7t-25 16t-39 16t-61 7q-40 0 -63.5 -11.5t-35.5 -26.5t-15.5 -31t-3.5 -25q0 -19 12 -36t43 -38l79 -54q45 -31 64 -59.5t19 -68.5q0 -25 -6 -53zM181 843
q0 5 7 13l14 14q6 8 14 8t16 -5l93 -63q5 -4 12 -4q6 0 14 4l121 63q10 5 18 5q7 0 10 -8l9 -15q2 -3 2 -6.5v-5.5q-2 -8 -14 -16l-144 -95q-13 -8 -20 -11.5t-14 -3.5t-12.5 3t-15.5 12l-104 95q-6 7 -6 14v2z" />
    <glyph glyph-name="scaron" unicode="&#x161;" horiz-adv-x="420" 
d="M336 188q0 -44 -17 -80.5t-46.5 -62t-70 -39.5t-88.5 -14q-63 0 -105.5 12t-42.5 33v4l12 57q3 17 19 17q6 0 14 -5.5t22 -12.5t35.5 -12.5t54.5 -5.5q45 0 66.5 18t21.5 47q0 13 -8.5 23.5t-28.5 24.5l-69 48q-31 22 -46.5 45.5t-15.5 54.5q0 42 16.5 75.5t45.5 57.5
t69.5 37t87.5 13q26 0 49.5 -3t41.5 -9t28.5 -14t10.5 -17v-4l-13 -59q-2 -7 -5 -11.5t-13 -4.5q-7 0 -15 5.5t-20 12t-29.5 12t-44.5 5.5q-43 0 -64.5 -15t-21.5 -40q0 -13 7.5 -23t23.5 -21l77 -53q32 -23 47 -46.5t15 -49.5zM92 683q0 5 7 13l14 14q6 8 14 8t16 -5
l93 -63q5 -4 12 -4q6 0 14 4l121 63q10 5 18 5q7 0 10 -8l9 -15q2 -3 2 -6.5v-5.5q-2 -8 -14 -16l-144 -95q-13 -8 -20 -11.5t-14 -3.5t-12.5 3t-15.5 12l-104 95q-6 7 -6 14v2z" />
    <glyph glyph-name="Ydieresis" unicode="&#x178;" horiz-adv-x="544" 
d="M618 671q0 -7 -11 -21l-269 -347q-10 -13 -14 -22t-8 -27l-50 -236q-5 -18 -20 -18h-98q-14 0 -14 14v4l47 218q5 22 5 30q0 6 -1.5 12t-4.5 14l-127 357q-4 11 -4 16t4.5 10t12.5 5h105q16 0 21 -15l86 -270q4 -10 10 -10t13 10l202 270q7 9 12.5 12t15.5 3h76
q11 0 11 -9zM325 796q-7 -29 -24.5 -42t-46.5 -13q-23 0 -35.5 9t-12.5 29q0 38 21 55t50 17q24 0 37 -9t13 -30q0 -4 -0.5 -7.5t-1.5 -8.5zM506 796q-7 -29 -24.5 -42t-45.5 -13q-49 0 -49 38t21 55t51 17q23 0 36 -9t13 -30q0 -4 -0.5 -7.5t-1.5 -8.5z" />
    <glyph glyph-name="Zcaron" unicode="&#x17d;" horiz-adv-x="560" 
d="M462 18q-3 -18 -21 -18h-475q-14 0 -14 13v5l16 73q2 11 6 19t12 16l419 438q9 9 9 15q0 5 -8 5h-304q-14 0 -14 12v5l13 61q4 18 21 18h455q15 0 15 -11v-2l-14 -67q-2 -11 -6 -18.5t-12 -16.5l-429 -448q-8 -8 -9 -14q0 -3 2 -5t10 -2h327q15 0 15 -11v-3zM201 843
q0 5 7 13l14 14q6 8 14 8t16 -5l93 -63q5 -4 12 -4q6 0 14 4l121 63q10 5 18 5q7 0 10 -8l9 -15q2 -3 2 -6.5v-5.5q-2 -8 -14 -16l-144 -95q-13 -8 -20 -11.5t-14 -3.5t-12.5 3t-15.5 12l-104 95q-6 7 -6 14v2z" />
    <glyph glyph-name="zcaron" unicode="&#x17e;" horiz-adv-x="488" 
d="M375 18q-3 -18 -21 -18h-381q-15 0 -15 13v5l13 59q4 19 18 33l301 300q7 7 7 14q0 4 -8 4h-216q-14 0 -14 11v4l11 54q4 18 22 18h362q16 0 16 -12v-3l-11 -50q-2 -11 -6 -18.5t-12 -16.5l-309 -306q-6 -5 -7.5 -9t-1.5 -7q0 -5 9 -5h240q15 0 15 -11v-3zM134 683
q0 5 7 13l14 14q6 8 14 8t16 -5l93 -63q5 -4 12 -4q6 0 14 4l121 63q10 5 18 5q7 0 10 -8l9 -15q2 -3 2 -6.5v-5.5q-2 -8 -14 -16l-144 -95q-13 -8 -20 -11.5t-14 -3.5t-12.5 3t-15.5 12l-104 95q-6 7 -6 14v2z" />
    <glyph glyph-name="florin" unicode="&#x192;" 
d="M596 692q0 -2 -4.5 -11.5t-11.5 -19.5t-14.5 -18t-13.5 -8q-3 0 -6.5 1.5t-9 4t-13.5 4t-21 1.5q-22 0 -39.5 -12.5t-28.5 -38.5q-5 -13 -9.5 -27.5t-8.5 -26.5t-6 -19.5t-2 -6.5q0 -5 5 -5h91q12 0 12 -7v-3l-11 -32q-4 -12 -9 -16.5t-16 -4.5h-86q-5 0 -9 -3.5t-6 -8.5
l-170 -497q-27 -79 -85.5 -119.5t-130.5 -40.5q-28 0 -38 4t-10 12q0 4 2 13t6.5 18t11 16t14.5 7q36 0 65.5 20.5t46.5 73.5l165 497v3q0 5 -7 5h-47q-8 0 -10.5 2t-2.5 7v4l10 28q5 14 10.5 18t13.5 4h48q3 0 7.5 3t7.5 14q16 57 37.5 94.5t48.5 60t60 32t72 9.5t65.5 -9
t26.5 -22z" />
    <glyph glyph-name="uni0237" unicode="&#x237;" horiz-adv-x="293" 
d="M132 -65q-17 -81 -67 -118t-126 -37q-52 0 -52 17v3l12 55q2 9 6.5 12t9.5 3q6 0 9.5 -0.5t9.5 -0.5q34 0 51 18t25 58l117 552q3 18 21 18h89q15 0 15 -13v-3z" />
    <glyph glyph-name="circumflex" unicode="&#x2c6;" horiz-adv-x="500" 
d="M469 595q-2 -6 -8 -13l-13 -14q-6 -8 -14 -8q-3 0 -7 1t-9 4l-93 63q-7 4 -12 4q-7 0 -14 -4l-121 -63q-10 -5 -18 -5q-7 0 -10 8l-10 15q-2 4 -2 8q1 5 3.5 10t10.5 10l145 95q14 9 20 12t14 3q7 0 12.5 -3t15.5 -12l103 -95q7 -7 7 -13v-3z" />
    <glyph glyph-name="tilde" unicode="&#x2dc;" horiz-adv-x="500" 
d="M279 608q-21 11 -35 11q-8 0 -13.5 -4t-13.5 -12l-9 -10q-11 -12 -19 -12q-8 2 -14 5q-5 2 -9 6t-4 10q0 14 18 40q23 33 43.5 40t38.5 7q28 0 51 -12l33 -18q19 -11 34 -11q13 0 28 16l9 10q11 12 18 12q8 -2 14 -5q5 -2 9.5 -6.5t4.5 -9.5q0 -15 -19 -40
q-24 -32 -44 -39.5t-38 -7.5q-27 0 -51 12z" />
    <glyph glyph-name="endash" unicode="&#x2013;" horiz-adv-x="500" 
d="M463 241q-5 -18 -21 -18h-434q-15 0 -15 12q0 1 11 56q5 17 22 17h434q14 0 14 -10q0 -2 -2.5 -15t-8.5 -42z" />
    <glyph glyph-name="emdash" unicode="&#x2014;" horiz-adv-x="1000" 
d="M876 241q-5 -18 -21 -18h-759q-15 0 -15 12q0 3 11 56q5 17 22 17h759q14 0 14 -10q0 -2 -3 -17.5t-8 -39.5z" />
    <glyph glyph-name="quoteleft" unicode="&#x2018;" horiz-adv-x="250" 
d="M81 510q0 36 16.5 70.5t38 60.5t43 42t32.5 16q13 0 29 -12.5t16 -26.5q0 -5 -8 -11.5t-17.5 -15.5t-17.5 -21t-8 -27q0 -7 6 -11l13.5 -9t14 -14t6.5 -25q0 -37 -27.5 -58.5t-65.5 -21.5q-71 0 -71 64z" />
    <glyph glyph-name="quoteright" unicode="&#x2019;" horiz-adv-x="250" 
d="M266 635q0 -36 -16.5 -70.5t-38 -60.5t-43.5 -42t-32 -16q-13 0 -29 12.5t-16 26.5q0 4 8 11t17.5 16t17.5 21t8 27q0 7 -6.5 11t-14 9t-13.5 14t-6 25q0 37 27.5 58.5t65.5 21.5q71 0 71 -64z" />
    <glyph glyph-name="quotesinglbase" unicode="&#x201a;" horiz-adv-x="250" 
d="M146 69q0 -35 -16 -68.5t-37.5 -60t-43.5 -43t-33 -16.5q-8 0 -16 4.5t-14.5 10.5t-11 12t-4.5 10q0 5 8.5 12t18 16.5t18 21.5t8.5 28q0 6 -6.5 10t-14 9t-13.5 13.5t-6 24.5q0 37 26.5 59t65.5 22q71 0 71 -65z" />
    <glyph glyph-name="quotedblleft" unicode="&#x201c;" horiz-adv-x="500" 
d="M105 510q0 36 16.5 70.5t38 60.5t43 42t32.5 16q13 0 29 -12.5t16 -26.5q0 -5 -8 -11.5t-17.5 -15.5t-17.5 -21t-8 -27q0 -7 6 -11l13.5 -9t14 -14t6.5 -25q0 -37 -27.5 -58.5t-65.5 -21.5q-71 0 -71 64zM307 510q0 36 16.5 70.5t38 60.5t43 42t32.5 16q13 0 29 -12.5
t16 -26.5q0 -5 -8 -11.5t-17.5 -15.5t-17.5 -21t-8 -27q0 -7 6 -11l13.5 -9t14 -14t6.5 -25q0 -37 -27.5 -58.5t-65.5 -21.5q-71 0 -71 64z" />
    <glyph glyph-name="quotedblright" unicode="&#x201d;" horiz-adv-x="500" 
d="M492 635q0 -36 -16.5 -70.5t-38 -60.5t-43.5 -42t-32 -16q-13 0 -29 12.5t-16 26.5q0 4 8 11t17.5 16t17.5 21t8 27q0 7 -6.5 11t-14 9t-13.5 14t-6 25q0 37 27.5 58.5t65.5 21.5q71 0 71 -64zM290 635q0 -36 -16.5 -70.5t-38 -60.5t-43.5 -42t-32 -16q-13 0 -29 12.5
t-16 26.5q0 4 8 11t17.5 16t17.5 21t8 27q0 7 -6.5 11t-14 9t-13.5 14t-6 25q0 37 27.5 58.5t65.5 21.5q71 0 71 -64z" />
    <glyph glyph-name="quotedblbase" unicode="&#x201e;" horiz-adv-x="500" 
d="M170 69q0 -35 -16 -68.5t-37.5 -60t-43.5 -43t-33 -16.5q-8 0 -16 4.5t-14.5 10.5t-11 12t-4.5 10q0 5 8.5 12t18 16.5t18 21.5t8.5 28q0 6 -6.5 10t-14 9t-13.5 13.5t-6 24.5q0 37 26.5 59t65.5 22q71 0 71 -65zM372 69q0 -35 -16 -68.5t-37.5 -60t-43.5 -43t-33 -16.5
q-8 0 -16 4.5t-14.5 10.5t-11 12t-4.5 10q0 5 8.5 12t18 16.5t18 21.5t8.5 28q0 6 -6.5 10t-14 9t-13.5 13.5t-6 24.5q0 37 26.5 59t65.5 22q71 0 71 -65z" />
    <glyph glyph-name="dagger" unicode="&#x2020;" horiz-adv-x="485" 
d="M488 487q-4 -22 -27 -22h-132q-13 0 -15 -13l-126 -590q-4 -22 -28 -22h-53q-17 0 -17 13v5l127 594v3q0 10 -10 10h-131q-19 0 -19 16v4l11 49q4 21 26 21h132q12 0 15 13l37 175q4 22 27 22h53q18 0 18 -13v-5l-38 -179v-3q0 -10 10 -10h132q19 0 19 -15v-4z" />
    <glyph glyph-name="daggerdbl" unicode="&#x2021;" horiz-adv-x="479" 
d="M217 455q0 10 -11 10h-130q-19 0 -19 15l11 53q5 22 27 22h130q14 0 16 13l37 175q4 22 27 22h53q18 0 18 -13v-4l-38 -180v-3q0 -10 9 -10h132q19 0 19 -15l-11 -53q-4 -22 -27 -22h-132q-12 0 -14 -13l-64 -299v-3q0 -10 10 -10h130q20 0 20 -15v-2l-11 -51
q-4 -22 -28 -22h-130q-13 0 -16 -13l-37 -175q-4 -22 -27 -22h-53q-18 0 -18 14v4l39 183q0 9 -10 9h-132q-18 0 -18 14l11 54q3 14 9 18t17 4h132q13 0 15 13l64 299v3z" />
    <glyph glyph-name="bullet" unicode="&#x2022;" horiz-adv-x="350" 
d="M315 345q-14 -65 -62 -101t-114 -36q-56 0 -85.5 25.5t-29.5 73.5q0 41 13.5 73.5t37 55t55.5 34.5t68 12q57 0 89 -26.5t32 -75.5q0 -19 -4 -35z" />
    <glyph glyph-name="ellipsis" unicode="&#x2026;" horiz-adv-x="1000" 
d="M176 59q-8 -39 -32.5 -54t-64.5 -15q-35 0 -51.5 11t-16.5 37q0 51 28.5 73t72.5 22q34 0 50.5 -11.5t16.5 -37.5q0 -12 -3 -25zM509 59q-8 -39 -33 -54t-65 -15q-34 0 -50.5 11t-16.5 37q0 51 28 73t72 22q35 0 51.5 -11.5t16.5 -37.5q0 -12 -3 -25zM842 59
q-8 -39 -33 -54t-65 -15q-66 0 -66 47q0 52 27.5 74t71.5 22q35 0 51.5 -11.5t16.5 -37.5q0 -12 -3 -25z" />
    <glyph glyph-name="perthousand" unicode="&#x2030;" horiz-adv-x="930" 
d="M363 538q-8 -35 -25 -64.5t-42 -51t-56 -33.5t-67 -12q-61 0 -93.5 31t-32.5 83q0 43 15.5 79.5t42 63t62 41t74.5 14.5q62 0 94 -30t32 -82q0 -20 -4 -39zM282 534q2 8 3 16t1 16q0 29 -15 45t-44 16q-19 0 -37 -8.5t-31.5 -25t-21.5 -39.5t-8 -52t14 -45.5t42 -16.5
q37 0 62.5 25t34.5 69zM640 668q0 -6 -12 -18l-623 -663q-10 -10 -17 -10q-8 0 -15 6l-16 13q-5 5 -5 11q0 5 3 10t8 10l624 665q9 10 19 10q7 0 12 -5l16 -15q7 -6 7 -10q0 -3 -1 -4zM545 151q-8 -35 -25 -64.5t-42 -50.5t-56 -33t-67 -12q-62 0 -94 30.5t-32 82.5
q0 44 15 80.5t41.5 62.5t61.5 40.5t76 14.5q62 0 94 -29.5t32 -81.5q0 -9 -1 -19t-3 -21zM463 148q2 8 3 16t1 16q0 29 -14.5 45t-43.5 16q-20 0 -37.5 -9t-31 -25.5t-21.5 -40t-8 -51.5q0 -29 13.5 -45t42.5 -16q36 0 61.5 26t34.5 68zM879 151q-8 -35 -25 -64.5t-42 -50.5
t-56 -33t-67 -12q-62 0 -94 30.5t-32 82.5q0 44 15 80.5t41.5 62.5t61.5 40.5t76 14.5q62 0 94 -29.5t32 -81.5q0 -9 -1 -19t-3 -21zM797 148q2 8 3 16t1 16q0 29 -14.5 45t-43.5 16q-20 0 -37.5 -9t-31 -25.5t-21.5 -40t-8 -51.5q0 -29 13.5 -45t42.5 -16q36 0 61.5 26
t34.5 68z" />
    <glyph glyph-name="guilsinglleft" unicode="&#x2039;" horiz-adv-x="298" 
d="M263 453q0 -5 -3 -10.5t-8 -12.5l-108 -154q-8 -11 -9.5 -16.5t-1.5 -9.5v-7t2 -9l43 -154q2 -10 2 -13q0 -21 -23 -21h-53q-11 0 -15.5 3.5t-7.5 14.5l-47 169q-2 5 -2 8v5q0 7 2 14t9 17l119 169q8 11 14 14.5t17 3.5h53q17 0 17 -11z" />
    <glyph glyph-name="guilsinglright" unicode="&#x203a;" horiz-adv-x="298" 
d="M-3 57q0 5 3 10t8 13l107 154q8 11 10.5 16t2.5 9q0 3 -1 7.5t-3 9.5l-42 154q-1 5 -1.5 9t-0.5 7q0 18 22 18h53q11 0 15.5 -3.5t7.5 -14.5l47 -169q3 -9 3 -15q0 -8 -2.5 -13.5t-9.5 -15.5l-119 -169q-8 -11 -14 -14.5t-17 -3.5h-53q-16 0 -16 11z" />
    <glyph glyph-name="Euro" unicode="&#x20ac;" 
d="M493 49q-2 -6 -12 -15.5t-31 -18.5t-54.5 -16t-80.5 -7q-60 0 -101.5 15.5t-67.5 43.5t-37.5 67t-11.5 86q0 9 0.5 18.5t0.5 19.5q0 12 -13 12h-33q-16 0 -16 10v3l6 27q4 18 22 18h29q11 0 13.5 4.5t4.5 11.5q5 18 7.5 29t2.5 13q0 9 -13 9h-29q-16 0 -16 10v4l6 26
q3 11 7.5 15t14.5 4h38q8 0 12 3t9 14q28 64 65 108.5t79.5 72.5t87.5 40.5t88 12.5q30 0 56.5 -4t47 -10.5t32.5 -16.5t12 -22v-3l-14 -60q-1 -6 -4.5 -11t-12.5 -5q-12 0 -23 6t-24.5 13.5t-32 14t-45.5 6.5q-47 0 -82 -18.5t-58.5 -43.5t-35 -50.5t-11.5 -39.5
q0 -7 13 -7h222q17 0 17 -11v-3l-6 -28q-4 -17 -23 -17h-231q-18 0 -22 -22q-5 -23 -5.5 -27.5t-0.5 -6.5q0 -11 15 -11h230q16 0 16 -10v-2l-6 -29q-3 -17 -23 -17h-227q-12 0 -16.5 -13.5t-4.5 -43.5q0 -18 5 -38.5t18.5 -37.5t38.5 -28t66 -11q28 0 51 6.5t40.5 14
t30.5 14t22 6.5q11 0 11 -10v-3z" />
    <glyph glyph-name="trademark" unicode="&#x2122;" horiz-adv-x="942" 
d="M856 225q-4 -19 -21 -19h-59q-14 0 -14 14v5l64 298v3q0 5 -3 5q-5 0 -9 -8l-142 -258q-11 -21 -19 -32.5t-15 -17.5t-13.5 -7.5t-14.5 -1.5h-29q-10 0 -16 1.5t-10 7t-6.5 17.5t-5.5 33l-32 258q-2 8 -7 8q-3 0 -6 -9l-63 -297q-2 -12 -9.5 -15.5t-13.5 -3.5h-44
q-5 0 -10 2.5t-5 11.5v5l95 445q4 19 21 19h90q22 0 24 -17l42 -330q1 -9 6 -9t10 9l179 325q7 13 13.5 17.5t14.5 4.5h91q13 0 13 -13v-3zM409 635q-3 -16 -21 -16h-93q-10 0 -12 -12l-82 -382q-4 -19 -21 -19h-63q-14 0 -14 13v4l83 384v3q0 9 -9 9h-93q-14 0 -14 12v4
l9 38q3 16 20 16h304q16 0 16 -12v-2z" />
    <glyph glyph-name="glyph205" horiz-adv-x="500" 
d="M158 683q0 5 7 13l14 14q6 8 14 8t16 -5l93 -63q5 -4 12 -4q6 0 14 4l121 63q10 5 18 5q7 0 10 -8l9 -15q2 -3 2 -6.5v-5.5q-2 -8 -14 -16l-144 -95q-13 -8 -20 -11.5t-14 -3.5t-12.5 3t-15.5 12l-104 95q-6 7 -6 14v2z" />
    <glyph glyph-name="glyph206" horiz-adv-x="500" 
d="M396 640q-18 -79 -98 -79q-70 0 -70 53q0 48 28.5 73t71.5 25q33 0 51.5 -14.5t18.5 -40.5q0 -4 -0.5 -8t-1.5 -9zM346 634q1 5 1.5 8.5t0.5 6.5q0 23 -26 23q-20 0 -32.5 -12t-12.5 -35q0 -24 27 -24q36 0 42 33z" />
    <glyph glyph-name="glyph225" horiz-adv-x="500" 
d="M418 747q0 -8 -10 -20.5t-18 -12.5t-14.5 2.5t-19.5 9.5l-138 71q-15 7 -15 20t27 50q9 12 15.5 15.5t14.5 3.5q7 0 12.5 -3.5t15.5 -12.5l123 -107q7 -6 7 -16z" />
    <glyph glyph-name="glyph226" horiz-adv-x="500" 
d="M185 755q1 9 13 16l159 99q14 9 22 12t15 3t11 -3.5t9 -14.5l14 -28q4 -11 4 -19q0 -19 -24 -29l-175 -70q-11 -5 -15.5 -6t-8.5 -1q-5 0 -9.5 5.5t-7.5 12.5q-4 8 -7 19v4z" />
    <glyph glyph-name="glyph227" horiz-adv-x="500" 
d="M469 755q-2 -6 -8 -13l-13 -14q-6 -8 -14 -8q-3 0 -7 1t-9 4l-93 63q-7 4 -12 4q-7 0 -14 -4l-121 -63q-10 -5 -18 -5q-7 0 -10 8l-10 15q-2 4 -2 8q1 5 3.5 10t10.5 10l145 95q14 9 20 12t14 3q7 0 12.5 -3t15.5 -12l103 -95q7 -7 7 -13v-3z" />
    <glyph glyph-name="glyph228" horiz-adv-x="500" 
d="M158 843q0 5 7 13l14 14q6 8 14 8t16 -5l93 -63q5 -4 12 -4q6 0 14 4l121 63q10 5 18 5q7 0 10 -8l9 -15q2 -3 2 -6.5v-5.5q-2 -8 -14 -16l-144 -95q-13 -8 -20 -11.5t-14 -3.5t-12.5 3t-15.5 12l-104 95q-6 7 -6 14v2z" />
    <glyph glyph-name="glyph229" horiz-adv-x="500" 
d="M279 768q-21 11 -35 11q-8 0 -13.5 -4t-13.5 -12l-9 -10q-11 -12 -19 -12q-8 2 -14 5q-5 2 -9 6t-4 10q0 14 18 40q23 33 43.5 40t38.5 7q28 0 51 -12l33 -18q19 -11 34 -11q13 0 28 16l9 10q11 12 18 12q8 -2 14 -5q5 -2 9.5 -6.5t4.5 -9.5q0 -15 -19 -40
q-24 -32 -44 -39.5t-38 -7.5q-27 0 -51 12z" />
    <glyph glyph-name="glyph230" horiz-adv-x="500" 
d="M281 796q-7 -29 -24.5 -42t-46.5 -13q-23 0 -35.5 9t-12.5 29q0 38 21 55t50 17q24 0 37 -9t13 -30q0 -4 -0.5 -7.5t-1.5 -8.5zM462 796q-7 -29 -24.5 -42t-45.5 -13q-49 0 -49 38t21 55t51 17q23 0 36 -9t13 -30q0 -4 -0.5 -7.5t-1.5 -8.5z" />
    <glyph glyph-name="glyph231" horiz-adv-x="500" 
d="M396 800q-18 -79 -98 -79q-70 0 -70 53q0 48 28.5 73t71.5 25q33 0 51.5 -14.5t18.5 -40.5q0 -4 -0.5 -8t-1.5 -9zM346 794q1 5 1.5 8.5t0.5 6.5q0 23 -26 23q-20 0 -32.5 -12t-12.5 -35q0 -24 27 -24q36 0 42 33z" />
    </font>
</defs>
</svg>
