<?xml version="1.0" standalone="no"?>
<!DOCTYPE svg PUBLIC "-//W3C//DTD SVG 1.1//EN" "http://www.w3.org/Graphics/SVG/1.1/DTD/svg11.dtd" >
<svg xmlns="http://www.w3.org/2000/svg" xmlns:xlink="http://www.w3.org/1999/xlink" version="1.1">
<metadata>
Created by FontForge 20170731 at Wed May  2 17:55:16 2012
 By Aleksey,,,
Copyright (c) 2005 - 2008 Linotype GmbH, www.linotype.com. All rights reserved. This font software may not be reproduced, modified, disclosed or transferred without the express written approval of Linotype GmbH. Praxis is a trademark of Linotype GmbH and may be registered in certain jurisdictions. This typeface is original artwork of Gerard Unger. The design may be protected in certain jurisdictions.
</metadata>
<defs>
<font id="PraxisW01-Regular" horiz-adv-x="616" >
  <font-face 
    font-family="PraxisW01-Regular"
    font-weight="400"
    font-stretch="normal"
    units-per-em="1000"
    panose-1="2 11 5 3 2 2 2 2 2 4"
    ascent="720"
    descent="-280"
    x-height="511"
    cap-height="680"
    bbox="-32 -247 917 871"
    underline-thickness="50"
    underline-position="-150"
    unicode-range="U+000D-2122"
  />
<missing-glyph horiz-adv-x="0" 
 />
    <glyph glyph-name=".notdef" horiz-adv-x="0" 
 />
    <glyph glyph-name="glyph1" horiz-adv-x="0" 
 />
    <glyph glyph-name="uni000D" unicode="&#xd;" horiz-adv-x="0" 
 />
    <glyph glyph-name="space" unicode=" " horiz-adv-x="266" 
 />
    <glyph glyph-name="exclam" unicode="!" horiz-adv-x="340" 
d="M225 627q0 -6 -0.5 -23t-1.5 -31l-15 -385q-1 -17 -4.5 -22t-17.5 -5h-31q-14 0 -17.5 5t-4.5 22l-16 385q-1 14 -1.5 31t-0.5 23q0 29 7.5 41t37.5 12h21q29 0 36.5 -12t7.5 -41zM233 44q0 -30 -17 -45t-46 -15t-46 14.5t-17 45.5q0 30 17.5 46t46.5 16q30 0 46 -16.5
t16 -45.5z" />
    <glyph glyph-name="quotedbl" unicode="&#x22;" horiz-adv-x="500" 
d="M391 684q0 -5 -0.5 -15.5t-1.5 -18.5l-16 -213q-1 -14 -4.5 -17.5t-14.5 -3.5h-25q-11 0 -15 3.5t-5 17.5l-15 213q-1 8 -1.5 18.5t-0.5 15.5q0 23 10 32t34 9h11q24 0 34 -9t10 -32zM207 684q0 -5 -0.5 -15.5t-1.5 -18.5l-15 -213q-1 -14 -5 -17.5t-15 -3.5h-25
q-11 0 -14.5 3.5t-4.5 17.5l-16 213q-1 8 -1.5 18.5t-0.5 15.5q0 23 10 32t34 9h11q24 0 34 -9t10 -32z" />
    <glyph glyph-name="numbersign" unicode="#" horiz-adv-x="666" 
d="M656 471q0 -2 -0.5 -4t-0.5 -4l-6 -28q-2 -7 -5.5 -12t-15.5 -5h-132q-12 0 -14 -11l-25 -122q-2 -10 -2 -14t2.5 -6.5t10.5 -2.5h129q13 0 13 -8q0 -5 -2 -15l-5 -25q-2 -6 -5.5 -11t-15.5 -5h-132q-10 0 -13 -11l-37 -172q-1 -5 -5.5 -10t-15.5 -5h-36q-15 0 -15 10
q0 3 2 13l33 152q2 10 2 14t-2.5 6.5t-10.5 2.5h-102q-4 0 -7.5 -2t-5.5 -10l-37 -171q-2 -7 -5.5 -11t-14.5 -4h-37q-14 0 -14 9q0 5 3 17l31 149q2 10 2 15q0 8 -13 8h-128q-14 0 -14 11q0 2 0.5 4t0.5 4l6 29q2 6 5.5 11t15.5 5h132q3 0 7.5 2t6.5 9l25 123q2 10 2 14
q0 8 -13 8h-130q-12 0 -12 7q0 5 3 20l4 21q2 6 5.5 11t15.5 5h132q3 0 7.5 2.5t6.5 9.5l36 171q1 5 5.5 10t15.5 5h36q9 0 12 -3t3 -8q0 -2 -0.5 -4t-0.5 -4l-34 -156q-1 -3 -1.5 -8t-0.5 -7q0 -4 2.5 -6t10.5 -2h102q10 0 13 13l37 170q2 7 6 11t15 4h36q15 0 15 -11
q0 -7 -3 -19l-32 -145q-2 -8 -2 -13q0 -4 2.5 -7t10.5 -3h128q14 0 14 -11zM411 409q0 9 -13 9h-102q-4 0 -7.5 -2t-5.5 -10l-26 -121q-2 -10 -2 -14t2.5 -6.5t10.5 -2.5h102q5 0 8.5 2t5.5 10l25 122q2 10 2 13z" />
    <glyph glyph-name="dollar" unicode="$" 
d="M123 111q7 0 18 -7t28.5 -16t44.5 -16t68 -7q63 0 92 28t29 80q0 26 -13.5 49.5t-45.5 44.5l-114 73q-56 36 -83 75t-27 96q0 50 16 82t39 51t48.5 27.5t45.5 12.5q8 1 8 12v48q0 11 3.5 15.5t16.5 4.5h7q11 0 14.5 -4.5t3.5 -15.5v-45q0 -7 3.5 -8.5t8.5 -1.5
q34 0 72.5 -10.5t64.5 -24.5q9 -5 12 -10t3 -13v-46q0 -16 -16 -16q-6 0 -17.5 7t-28.5 16t-41.5 16t-55.5 7q-60 0 -86.5 -23.5t-26.5 -68.5q0 -23 12.5 -46.5t45.5 -44.5l113 -72q33 -21 54.5 -40t35 -39.5t19 -43.5t5.5 -50q0 -60 -21 -96.5t-49 -57t-56 -28t-42 -9.5
q-9 -1 -9 -11v-48q0 -12 -3.5 -16.5t-15.5 -4.5h-7q-12 0 -15.5 4.5t-3.5 16.5v45q0 7 -3.5 8.5t-8.5 1.5q-14 0 -35 3t-42 8t-40 11.5t-29 14.5q-8 5 -10 10.5t-2 14.5v41q0 8 2.5 12t13.5 4z" />
    <glyph glyph-name="percent" unicode="%" horiz-adv-x="600" 
d="M330 538q0 -35 -11.5 -64.5t-32.5 -51t-50 -33.5t-63 -12q-35 0 -63.5 11t-48.5 31.5t-31.5 48.5t-11.5 62q0 36 11.5 65t32 50t49.5 32.5t64 11.5q71 0 113 -41t42 -110zM573 676q0 -5 -9 -18l-492 -671q-7 -10 -15 -10q-7 0 -14 5l-9 6q-3 2 -6 5.5t-3 6.5q0 8 7 18
l492 673q6 8 9.5 9.5t8.5 1.5t11 -5l9 -7q11 -7 11 -14zM582 152q0 -35 -11.5 -64.5t-32.5 -50.5t-50 -33t-63 -12q-70 0 -112.5 42t-42.5 111q0 72 43 115t114 43t113 -41t42 -110zM265 535q0 50 -23.5 77.5t-67.5 27.5q-43 0 -66.5 -28.5t-23.5 -80.5q0 -48 23 -76t65 -28
q44 0 68.5 28.5t24.5 79.5zM517 149q0 50 -24 77.5t-67 27.5t-66.5 -28.5t-23.5 -79.5q0 -48 23 -76t65 -28q43 0 68 28.5t25 78.5z" />
    <glyph glyph-name="ampersand" unicode="&#x26;" horiz-adv-x="679" 
d="M639 13q0 -8 -6 -10.5t-13 -2.5h-82q-11 0 -16 3t-11 10l-10 13q-6 8 -10 8q-3 0 -15.5 -6.5t-35.5 -14.5t-57 -14.5t-82 -6.5q-68 0 -116 13t-78 37.5t-44 59.5t-14 80q0 64 31.5 103t88.5 65q16 7 16 13q0 5 -2 6.5t-4 3.5l-19 20q-21 22 -39.5 53.5t-18.5 84.5
q0 72 46 115t130 43q91 0 135.5 -40.5t44.5 -107.5q0 -65 -33 -107.5t-96 -59.5q-8 -2 -8 -8q0 -4 1.5 -5.5t4.5 -5.5l182 -195q5 -5 10 -5t14 21t9 60v20q0 11 5 14.5t13 3.5h54q8 0 13 -3.5t5 -14.5q0 -53 -15 -91.5t-37 -55.5q-9 -8 -9 -12t7 -11l50 -53q11 -11 11 -20z
M368 534q0 45 -20 69.5t-65 24.5q-46 0 -67.5 -22.5t-21.5 -61.5q0 -46 33 -80l39 -42q11 -11 18 -11q5 0 19 8t28.5 23.5t25.5 38.5t11 53zM441 86q0 4 -7 11l-198 214q-4 4 -6 5.5t-7 1.5q-4 0 -15 -7t-23 -21t-21.5 -36t-9.5 -52q0 -74 44 -109.5t116 -35.5q37 0 62 3.5
t39 8.5t20 10t6 7z" />
    <glyph glyph-name="quotesingle" unicode="'" horiz-adv-x="248" 
d="M173 684q0 -5 -0.5 -15.5t-1.5 -18.5l-15 -213q-1 -14 -5 -17.5t-15 -3.5h-25q-11 0 -14.5 3.5t-4.5 17.5l-16 213q-1 8 -1.5 18.5t-0.5 15.5q0 23 10 32t34 9h11q24 0 34 -9t10 -32z" />
    <glyph glyph-name="parenleft" unicode="(" horiz-adv-x="306" 
d="M270 692q0 -3 -2 -8.5t-10 -20.5q-44 -87 -67.5 -191.5t-23.5 -232.5t23.5 -232.5t67.5 -191.5q8 -15 10 -20.5t2 -8.5q0 -8 -8 -13l-31 -17q-6 -3 -14 -3q-5 0 -11 5t-20 26q-23 36 -44 83t-36.5 104t-25 124.5t-9.5 143.5t9.5 143.5t25 124.5t36.5 104t44 83
q14 21 20 26t11 5q8 0 14 -3l31 -17q8 -5 8 -13z" />
    <glyph glyph-name="parenright" unicode=")" horiz-adv-x="306" 
d="M36 -214q0 3 2 8.5t10 20.5q44 87 67.5 191.5t23.5 232.5t-23.5 232.5t-67.5 191.5q-8 15 -10 20.5t-2 8.5q0 8 8 13l31 17q6 3 14 3q5 0 11 -5t20 -26q23 -36 44 -83t36.5 -104t25 -124.5t9.5 -143.5t-9.5 -143.5t-25 -124.5t-36.5 -104t-44 -83q-14 -21 -20 -26t-11 -5
q-8 0 -14 3l-31 17q-8 5 -8 13z" />
    <glyph glyph-name="asterisk" unicode="*" horiz-adv-x="414" 
d="M354 580q0 -14 -15 -14h-78q-6 0 -6 -3q0 -5 5 -8l70 -56q7 -5 7 -11q0 -5 -4 -10l-9 -10q-5 -5 -10 -5t-14 7l-56 47q-5 4 -9 4t-4 -6v-68q0 -15 -14 -15h-14q-14 0 -14 15v68q0 6 -4 6t-9 -4l-56 -47q-9 -7 -14 -7t-10 5l-9 10q-4 5 -4 10q0 6 7 11l70 56q5 3 5 8
q0 3 -6 3h-78q-15 0 -15 14v12q0 14 15 14h78q6 0 6 3q0 5 -5 8l-70 56q-7 5 -7 11q0 5 4 10l9 10q5 5 10 5t14 -7l56 -47q5 -4 9 -4t4 6v68q0 15 14 15h14q14 0 14 -15v-68q0 -6 4 -6t9 4l56 47q9 7 14 7t10 -5l9 -10q4 -5 4 -10q0 -6 -7 -11l-70 -56q-5 -3 -5 -8
q0 -3 6 -3h78q15 0 15 -14v-12z" />
    <glyph glyph-name="plus" unicode="+" 
d="M290 81q-22 0 -22 22v181q0 13 -12 13h-170q-22 0 -22 20v33q0 21 22 21h170q12 0 12 14v179q0 23 22 23h35q22 0 22 -23v-179q0 -14 13 -14h169q22 0 22 -21v-33q0 -20 -22 -20h-169q-13 0 -13 -13v-181q0 -22 -22 -22h-35z" />
    <glyph glyph-name="comma" unicode="," horiz-adv-x="266" 
d="M206 40q0 -30 -10 -56.5t-24 -47t-28.5 -32.5t-23.5 -12q-8 0 -17 6l-18 12q-9 6 -9 14q0 5 5.5 11t11.5 14t11.5 19.5t5.5 27.5q0 13 -19 23q-14 7 -23 19t-9 35q0 29 20 44t49 15q38 0 58 -22.5t20 -69.5z" />
    <glyph glyph-name="hyphen" unicode="-" horiz-adv-x="266" 
d="M238 268q0 -6 -3.5 -11t-10.5 -5h-181q-6 0 -10.5 5t-4.5 11v51q0 6 4.5 10t10.5 4h181q14 0 14 -14v-51z" />
    <glyph glyph-name="period" unicode="." horiz-adv-x="266" 
d="M206 59q0 -38 -19.5 -52.5t-54.5 -14.5q-37 0 -54.5 16t-17.5 54q0 37 19.5 53t54.5 16q38 0 55 -17t17 -55z" />
    <glyph glyph-name="slash" unicode="/" horiz-adv-x="248" 
d="M242 728q0 -6 -2 -16l-164 -934q-3 -19 -19 -19q-5 0 -14 1.5t-18 3.5q-19 4 -19 19q0 2 0.5 6t1.5 9l165 934q3 19 16 19q5 0 18 -2.5t21 -4.5q14 -4 14 -16z" />
    <glyph glyph-name="zero" unicode="0" 
d="M558 343q0 -63 -10 -126t-38 -113t-76.5 -81t-124.5 -31q-75 0 -124 30.5t-77 79t-39 110.5t-11 125t10.5 126t38 113t76 81.5t125.5 31.5q75 0 123.5 -30.5t76.5 -80t39 -111t11 -124.5zM455 345q0 40 -3 87.5t-17 88.5t-44 69t-84 28t-83.5 -29.5t-43.5 -73
t-16.5 -92.5t-2.5 -88q0 -40 3 -87.5t17.5 -89t44.5 -69t84 -27.5t83 29.5t43 73t16.5 92.5t2.5 88z" />
    <glyph glyph-name="one" unicode="1" 
d="M412 18q0 -11 -5 -14.5t-11 -3.5h-66q-17 0 -17 18v554q0 9 -7 9q-4 0 -15.5 -5.5t-28.5 -11.5t-39.5 -11.5t-48.5 -5.5q-8 0 -11.5 5t-3.5 13v37q0 18 15 18q16 0 37 5t41 13.5t37.5 19.5t27.5 22q4 5 7 7t11 2h59q18 0 18 -19v-652z" />
    <glyph glyph-name="two" unicode="2" 
d="M529 18q0 -18 -18 -18h-406q-19 0 -19 18v29q0 22 4.5 43.5t17 44t35.5 47.5t59 55l135 111q48 39 67.5 70.5t19.5 72.5q0 67 -35 95t-98 28q-45 0 -74.5 -7t-48.5 -15.5t-30.5 -15.5t-19.5 -7q-14 0 -14 16v40q0 12 3.5 18t13.5 11q28 15 75.5 25t107.5 10
q46 0 86.5 -9.5t71 -31.5t48.5 -58.5t18 -90.5q0 -62 -27.5 -110.5t-96.5 -98.5l-139 -102q-46 -34 -64.5 -55.5t-18.5 -38.5q0 -10 14 -10h315q18 0 18 -19v-47z" />
    <glyph glyph-name="three" unicode="3" 
d="M527 197q0 -99 -68 -152t-201 -53q-38 0 -68.5 4.5t-53.5 10.5t-38 12t-21 10q-8 5 -10.5 11t-2.5 15v40q0 16 15 16q7 0 19 -7t32 -15.5t50 -15.5t72 -7q88 0 129.5 33t41.5 100q0 52 -35.5 84.5t-118.5 32.5h-32q-19 0 -19 19v36q0 19 19 19h26q28 0 52.5 7t42.5 21
t28 36t10 52q0 18 -4.5 37t-18 34.5t-37 26t-61.5 10.5q-42 0 -69.5 -7t-45.5 -15.5t-29.5 -15.5t-20.5 -7q-14 0 -14 16v40q0 10 2 15.5t10 10.5q6 4 19.5 10.5t36 12.5t53 10.5t69.5 4.5t77.5 -8t68.5 -27.5t48.5 -51t18.5 -77.5q0 -65 -31.5 -104t-76.5 -53q-7 -3 -7 -7
q0 -5 7 -6q69 -11 102.5 -51.5t33.5 -106.5z" />
    <glyph glyph-name="four" unicode="4" 
d="M567 196q0 -19 -18 -19h-61q-9 0 -9 -12v-147q0 -18 -18 -18h-58q-19 0 -19 18v147q0 12 -9 12h-321q-18 0 -18 19v37q0 13 9 25l327 418q6 8 11.5 10.5t16.5 2.5h61q18 0 18 -19v-401q0 -12 9 -12h61q18 0 18 -18v-43zM384 563q0 6 -6 6q-5 0 -11 -9l-219 -289
q-3 -3 -3 -8q0 -3 3 -4.5t6 -1.5h221q9 0 9 12v294z" />
    <glyph glyph-name="five" unicode="5" 
d="M533 224q0 -47 -15.5 -89t-47.5 -73.5t-82 -50.5t-119 -19q-58 0 -105.5 10t-74.5 27q-13 8 -13 26v40q0 17 13 17q7 0 19.5 -7t32 -16t49 -16t71.5 -7q81 0 124.5 41.5t43.5 115.5t-40.5 109t-112.5 35q-32 0 -52 -5t-33.5 -11.5t-22 -11.5t-16.5 -5h-44q-18 0 -18 18
v310q0 18 19 18h385q9 0 14 -3.5t5 -14.5v-47q0 -18 -19 -18h-312q-13 0 -13 -15v-155q0 -8 2 -10t6 -2q6 0 14 4t22 9t36 9t55 4q52 0 94 -14.5t72 -42t46.5 -68t16.5 -92.5z" />
    <glyph glyph-name="six" unicode="6" 
d="M549 214q0 -37 -11 -76t-38 -71.5t-71.5 -53.5t-110.5 -21q-62 0 -108.5 17.5t-78.5 56t-48 100.5t-16 151q0 73 12.5 140.5t43.5 119t84.5 82t135.5 30.5q53 0 91.5 -10t64.5 -24q11 -6 14.5 -11.5t3.5 -15.5v-43q0 -16 -14 -16q-9 0 -20.5 7t-29.5 15.5t-44 15.5t-64 7
q-45 0 -78.5 -17t-56 -48t-34 -73t-11.5 -93q0 -8 2.5 -10t6.5 -2q6 0 16 9t28.5 20.5t47.5 20.5t73 9q43 0 81 -12.5t66.5 -38.5t45.5 -67t17 -98zM447 207q0 69 -32.5 110.5t-105.5 41.5q-35 0 -60.5 -11t-42 -31.5t-24.5 -48.5t-8 -61q0 -69 32.5 -110.5t105.5 -41.5
q70 0 102.5 42.5t32.5 109.5z" />
    <glyph glyph-name="seven" unicode="7" 
d="M531 640q0 -26 -7.5 -53.5t-30.5 -71.5l-148 -281q-10 -19 -16.5 -38t-10.5 -40.5t-6 -47t-2 -56.5v-34q0 -18 -19 -18h-67q-18 0 -18 18v27q0 76 18 138t51 116l140 230q12 20 16.5 33.5t4.5 25.5q0 9 -13 9h-334q-16 0 -16 18v47q0 18 16 18h424q18 0 18 -18v-22z" />
    <glyph glyph-name="eight" unicode="8" 
d="M543 179q0 -91 -63.5 -139t-178.5 -48t-171.5 49t-56.5 129q0 75 36.5 117t98.5 62q9 3 9 8q0 4 -6 7l-9 5q-54 30 -76 64.5t-22 82.5q0 38 12 70t37.5 55t65.5 35.5t95 12.5q49 0 87 -12t63.5 -33t38.5 -49.5t13 -61.5q0 -54 -25.5 -95t-85.5 -61q-13 -4 -13 -8
q0 -3 8 -7l8 -4q40 -20 66 -39.5t41.5 -40.5t21.5 -45t6 -54zM420 531q0 46 -26 71.5t-83 25.5q-111 0 -111 -96q0 -36 19 -60t60 -47l31 -17q14 -7 22 -7q7 0 21.5 8.5t29.5 25t26 41t11 55.5zM442 168q0 20 -4 36t-14.5 30t-30 28t-49.5 31l-45 25q-12 6 -20 6t-17 -4
q-49 -21 -70.5 -55.5t-21.5 -84.5q0 -60 35.5 -91.5t104.5 -31.5q61 0 96.5 29t35.5 82z" />
    <glyph glyph-name="nine" unicode="9" 
d="M548 363q0 -73 -12.5 -140t-43.5 -118.5t-84 -82t-135 -30.5q-54 0 -99.5 10.5t-68.5 27.5q-12 8 -12 25v40q0 6 2.5 11t11.5 5q7 0 19.5 -7t31.5 -15.5t45 -15.5t61 -7q52 0 90 19.5t64 65.5q10 19 16.5 40t10 41t5 37t1.5 29q0 11 -10 11q-6 0 -16 -9t-28 -20.5
t-47 -20.5t-73 -9q-43 0 -81 12.5t-66.5 38.5t-45.5 67t-17 98q0 48 14.5 88.5t44 70.5t72.5 47t100 17q63 0 109.5 -17t78 -55.5t47 -100.5t15.5 -153zM441 473q0 69 -32 110.5t-105 41.5q-35 0 -60.5 -11t-42 -31.5t-24.5 -48.5t-8 -61q0 -68 32.5 -110t105.5 -42
q70 0 102 43t32 109z" />
    <glyph glyph-name="colon" unicode=":" horiz-adv-x="266" 
d="M205 448q0 -38 -19 -53.5t-55 -15.5q-71 0 -71 72q0 37 18 52.5t54 15.5q38 0 55.5 -16.5t17.5 -54.5zM205 59q0 -38 -19.5 -52.5t-54.5 -14.5q-37 0 -54 16t-17 54q0 37 18 53t54 16q38 0 55.5 -17t17.5 -55z" />
    <glyph glyph-name="semicolon" unicode=";" horiz-adv-x="266" 
d="M205 448q0 -38 -19 -53.5t-55 -15.5q-71 0 -71 72q0 37 18 52.5t54 15.5q38 0 55.5 -16.5t17.5 -54.5zM206 40q0 -30 -10 -56.5t-24 -47t-28.5 -32.5t-23.5 -12q-8 0 -17 6l-18 12q-9 6 -9 14q0 5 5.5 11t11.5 14t11.5 19.5t5.5 27.5q0 13 -19 23q-14 7 -23 19t-9 35
q0 29 20 44t49 15q38 0 58 -22.5t20 -69.5z" />
    <glyph glyph-name="less" unicode="&#x3c;" 
d="M64 350q0 15 14 21l441 209q9 5 14 6t8 1q10 0 10 -10v-50q0 -10 -4 -14.5t-12 -8.5l-355 -160q-9 -5 -9 -11q0 -7 9 -11l355 -160q8 -4 12 -8.5t4 -14.5v-50q0 -10 -10 -10q-3 0 -8 1t-14 6l-441 209q-14 6 -14 21v34z" />
    <glyph glyph-name="equal" unicode="=" 
d="M86 414q-22 0 -22 20v33q0 21 22 21h443q22 0 22 -21v-33q0 -20 -22 -20h-443zM86 181q-22 0 -22 20v33q0 21 22 21h443q22 0 22 -21v-33q0 -20 -22 -20h-443z" />
    <glyph glyph-name="greater" unicode="&#x3e;" 
d="M551 316q0 -15 -14 -21l-441 -209q-9 -5 -14 -6t-8 -1q-10 0 -10 10v50q0 10 4 14.5t12 8.5l355 160q9 4 9 11q0 6 -9 11l-355 160q-8 4 -12 8.5t-4 14.5v50q0 10 10 10q3 0 8 -1t14 -6l441 -209q14 -6 14 -21v-34z" />
    <glyph glyph-name="question" unicode="?" horiz-adv-x="490" 
d="M439 510q0 -42 -17 -78.5t-46 -66.5l-103 -106q-15 -15 -20 -28.5t-5 -34.5v-26q0 -18 -18 -18h-42q-19 0 -19 18v38q0 24 8 45.5t27 42.5l84 100q20 25 32 53.5t12 58.5q0 52 -30 79t-99 27q-40 0 -67.5 -7t-46 -15.5t-30 -15.5t-18.5 -7q-15 0 -15 16v41q0 10 3 16.5
t15 12.5q30 15 74.5 24.5t100.5 9.5q108 0 164 -46t56 -133zM271 52q0 -30 -16.5 -45t-45.5 -15q-30 0 -46.5 14.5t-16.5 45.5q0 30 17 46t47 16t45.5 -16.5t15.5 -45.5z" />
    <glyph glyph-name="at" unicode="@" horiz-adv-x="961" 
d="M915 337q0 -32 -5.5 -70.5t-18.5 -77t-35.5 -74.5t-56.5 -63.5t-81.5 -44t-109.5 -16.5q-55 0 -73 3.5t-18 13.5q0 4 0.5 6t0.5 4q0 7 -8 7q-9 0 -18 -5.5t-23 -11.5t-34.5 -11.5t-51.5 -5.5q-41 0 -68.5 12t-44.5 33t-24.5 49.5t-7.5 61.5q0 54 12 101.5t28.5 85.5
t35 65.5t30.5 41.5q35 40 77 59t101 19q22 0 37 -4t26 -9t18.5 -9t13.5 -4q4 0 6 2t4 10q1 5 4 7.5t11 2.5h48q11 0 11 -8q0 -4 -4 -22.5t-9 -40.5l-74 -321q-4 -15 -7.5 -33t-3.5 -25q0 -11 8.5 -13t24.5 -2q48 0 84.5 22.5t61.5 60.5t38 89t13 107q0 150 -82.5 233
t-237.5 83q-102 0 -175 -35t-120.5 -93t-69.5 -133.5t-22 -155.5q0 -86 25.5 -155t75.5 -117t124 -74t170 -26q48 0 84.5 5.5t62 12t40 12t19.5 5.5q10 0 14 -10q2 -6 6 -20.5t4 -17.5q0 -5 -4 -9t-22 -11q-38 -14 -93 -23t-131 -9q-110 0 -195 30.5t-143 86t-87.5 133
t-29.5 171.5q0 113 34 204.5t95.5 156t146.5 99.5t187 35q98 0 173.5 -26.5t127.5 -75.5t78.5 -117t26.5 -151zM599 430q0 17 -21 26.5t-53 9.5t-58.5 -10.5t-49.5 -33.5q-20 -20 -36.5 -54.5t-29 -73.5t-19.5 -79t-7 -71q0 -46 21 -70.5t67 -24.5q98 0 119 84l63 266
q2 8 3 17t1 14z" />
    <glyph glyph-name="A" unicode="A" horiz-adv-x="592" 
d="M588 12q0 -12 -16 -12h-70q-10 0 -14 3t-6 9l-71 226q-4 10 -14 10h-213q-15 0 -18 -9l-74 -227q-4 -12 -20 -12h-51q-17 0 -17 13q0 6 3 15l219 624q8 21 16.5 29t26.5 8h61q19 0 27.5 -6.5t16.5 -29.5l210 -625q4 -11 4 -16zM384 322q0 4 -4 14l-81 255q-3 10 -8 10
q-4 0 -8 -11l-85 -255q-3 -8 -3 -13q0 -7 10 -7h168q11 0 11 7z" />
    <glyph glyph-name="B" unicode="B" horiz-adv-x="578" 
d="M529 191q0 -42 -15.5 -78.5t-43.5 -60.5q-16 -14 -34 -23.5t-42.5 -16t-56.5 -9.5t-75 -3h-162q-18 0 -18 18v644q0 18 18 18h174q61 0 102.5 -11.5t66.5 -33.5t35.5 -52.5t10.5 -67.5q0 -61 -29 -96.5t-74 -46.5q-6 -2 -7.5 -3t-1.5 -3t2 -3t13 -3q39 -8 65 -24.5
t42 -38.5t23 -49t7 -57zM387 506q0 26 -7 46.5t-22.5 34.5t-41.5 21.5t-64 7.5h-63q-10 0 -10 -12v-202q0 -12 12 -12h57q19 0 43 3t45.5 14.5t36 34.5t14.5 64zM427 196q0 66 -35 97.5t-110 31.5h-93q-10 0 -10 -12v-236q0 -13 12 -13h83q78 0 115.5 31t37.5 101z" />
    <glyph glyph-name="C" unicode="C" horiz-adv-x="635" 
d="M595 55q0 -18 -14 -26q-32 -17 -77 -27t-103 -10q-79 0 -144 20.5t-111 61.5t-71.5 104t-25.5 148t25 152.5t71 114.5t112 71.5t148 24.5q57 0 102 -10.5t73 -26.5q15 -8 15 -24v-43q0 -16 -15 -16q-6 0 -19 7t-32.5 15.5t-46.5 15.5t-63 7q-133 0 -199.5 -77t-66.5 -212
q0 -128 64.5 -193.5t186.5 -65.5q45 0 75.5 7t50 15.5t30.5 15.5t18 7q17 0 17 -16v-40z" />
    <glyph glyph-name="D" unicode="D" horiz-adv-x="701" 
d="M652 344q0 -103 -40 -180t-113 -117q-41 -23 -94.5 -35t-128.5 -12h-176q-18 0 -18 18v644q0 18 18 18h196q88 0 150 -18.5t103 -56.5q51 -48 77 -114.5t26 -146.5zM549 344q0 78 -21.5 129t-59 81t-87 41.5t-105.5 11.5h-85q-10 0 -10 -12v-511q0 -11 12 -11h79
q43 0 91.5 8.5t90 37t68.5 82t27 143.5z" />
    <glyph glyph-name="E" unicode="E" horiz-adv-x="510" 
d="M478 18q0 -18 -18 -18h-360q-18 0 -18 18v644q0 18 18 18h340q18 0 18 -18v-37q0 -18 -18 -18h-249q-10 0 -10 -12v-185q0 -5 2.5 -8.5t7.5 -3.5h197q18 0 18 -19v-36q0 -19 -18 -19h-197q-10 0 -10 -12v-228q0 -11 12 -11h267q18 0 18 -18v-37z" />
    <glyph glyph-name="F" unicode="F" horiz-adv-x="468" 
d="M458 625q0 -18 -18 -18h-249q-10 0 -10 -12v-185q0 -12 12 -12h195q18 0 18 -19v-36q0 -19 -18 -19h-195q-12 0 -12 -12v-294q0 -18 -19 -18h-62q-18 0 -18 18v644q0 18 18 18h340q18 0 18 -18v-37z" />
    <glyph glyph-name="G" unicode="G" horiz-adv-x="677" 
d="M605 54q0 -11 -5.5 -18t-24.5 -15q-26 -11 -72.5 -20t-101.5 -9q-79 0 -144 20.5t-111 61.5t-71.5 104t-25.5 148t25 152.5t71 114.5t112 71.5t148 24.5q57 0 98 -9t70 -20q21 -8 26.5 -14t5.5 -17v-44q0 -16 -16 -16q-6 0 -19.5 7t-34.5 15.5t-49.5 15.5t-64.5 7
q-134 0 -201 -77t-67 -212q0 -128 64.5 -194.5t186.5 -66.5q58 0 80 7.5t22 21.5v193q0 18 18 18h63q18 0 18 -18v-232z" />
    <glyph glyph-name="H" unicode="H" horiz-adv-x="679" 
d="M597 18q0 -18 -19 -18h-62q-18 0 -18 18v285q0 12 -9 12h-299q-9 0 -9 -12v-285q0 -18 -19 -18h-62q-18 0 -18 18v644q0 18 18 18h62q19 0 19 -18v-259q0 -12 9 -12h299q9 0 9 12v259q0 18 18 18h62q19 0 19 -18v-644z" />
    <glyph glyph-name="I" unicode="I" horiz-adv-x="267" 
d="M183 18q0 -18 -18 -18h-64q-17 0 -17 18v644q0 18 17 18h64q18 0 18 -18v-644z" />
    <glyph glyph-name="J" unicode="J" horiz-adv-x="318" 
d="M141 662q0 18 18 18h62q19 0 19 -18v-524q0 -70 -34 -108t-106 -38q-80 0 -80 29v39q0 17 14 17q9 0 18.5 -6t32.5 -6q27 0 41.5 14.5t14.5 55.5v527z" />
    <glyph glyph-name="K" unicode="K" horiz-adv-x="552" 
d="M552 13q0 -8 -5.5 -10.5t-13.5 -2.5h-71q-10 0 -15 3.5t-11 11.5l-225 301q-6 8 -17 8q-13 0 -13 -13v-293q0 -18 -17 -18h-66q-16 0 -16 18v644q0 18 16 18h66q17 0 17 -18v-260q0 -8 3.5 -10.5t8.5 -2.5q10 0 16 7l231 268q9 11 14.5 13.5t14.5 2.5h56q17 0 17 -12
q0 -9 -10 -19l-236 -268q-6 -8 -6 -12q0 -6 4 -10l249 -327q9 -12 9 -19z" />
    <glyph glyph-name="L" unicode="L" horiz-adv-x="451" 
d="M437 18q0 -18 -19 -18h-319q-17 0 -17 18v644q0 18 17 18h64q18 0 18 -18v-576q0 -13 12 -13h225q19 0 19 -18v-37z" />
    <glyph glyph-name="M" unicode="M" horiz-adv-x="839" 
d="M757 18q0 -18 -17 -18h-63q-16 0 -16 18v513q0 8 -1.5 9.5t-3.5 1.5q-4 0 -7 -9l-164 -484q-11 -33 -21 -41t-31 -8h-46q-11 0 -18 1.5t-12 6.5t-9.5 14.5t-10.5 26.5l-165 484q-3 9 -7 9q-5 0 -5 -11v-513q0 -18 -16 -18h-46q-16 0 -16 18v644q0 18 18 18h94q12 0 18 -4
t9 -12l192 -556q3 -9 8 -9t8 9l190 551q4 12 8.5 16.5t15.5 4.5h95q19 0 19 -18v-644z" />
    <glyph glyph-name="N" unicode="N" horiz-adv-x="690" 
d="M608 18q0 -18 -18 -18h-64q-7 0 -12 1.5t-10.5 6t-11.5 14t-16 25.5l-302 503q-4 8 -9 8q-4 0 -4 -10v-530q0 -18 -16 -18h-47q-16 0 -16 18v644q0 18 18 18h87q10 0 15.5 -3t11.5 -13l301 -504q5 -8 9 -8t4 10v500q0 18 16 18h49q6 0 10.5 -4.5t4.5 -13.5v-644z" />
    <glyph glyph-name="O" unicode="O" horiz-adv-x="741" 
d="M692 342q0 -76 -19.5 -140t-59.5 -110.5t-100.5 -73t-142.5 -26.5q-79 0 -139 25t-100.5 70.5t-61 109.5t-20.5 142q0 76 19.5 140t59 110.5t100 73t142.5 26.5q79 0 139 -25t100.5 -70.5t61.5 -109.5t21 -142zM588 340q0 136 -56.5 206t-161.5 70q-49 0 -89 -18
t-68.5 -52.5t-44 -86t-15.5 -118.5q0 -64 14 -115t41 -87t67.5 -55.5t94.5 -19.5q52 0 92.5 19.5t68.5 55.5t42.5 87t14.5 114z" />
    <glyph glyph-name="P" unicode="P" horiz-adv-x="526" 
d="M504 487q0 -60 -24.5 -107t-71.5 -73q-30 -17 -68.5 -24.5t-97.5 -7.5h-51q-10 0 -10 -12v-245q0 -18 -19 -18h-62q-18 0 -18 18v644q0 18 17 18h153q36 0 63 -2t47.5 -6t36 -10.5t29.5 -15.5q37 -26 56.5 -67t19.5 -92zM400 480q0 67 -35 99.5t-113 32.5h-61
q-10 0 -10 -12v-245q0 -11 10 -11h59q78 0 114 33.5t36 102.5z" />
    <glyph glyph-name="Q" unicode="Q" horiz-adv-x="741" 
d="M692 342q0 -147 -67 -237t-189 -106q-17 -2 -21.5 -5t-4.5 -11q0 -12 5 -26t19 -26t40 -20.5t67 -8.5q28 0 46.5 4t31 9.5t20.5 9.5t14 4q7 0 10 -5t3 -12v-40q0 -10 -4 -16t-18 -11q-20 -8 -50 -12t-69 -4q-25 0 -61.5 4.5t-70.5 20.5t-58 47.5t-24 85.5q0 5 -2.5 7
t-10.5 4q-61 10 -107.5 39t-78 73t-47.5 102t-16 127q0 76 19.5 140t59 110.5t100 73t142.5 26.5q79 0 139 -25t100.5 -70.5t61.5 -109.5t21 -142zM588 340q0 53 -10.5 102.5t-36 88t-67.5 62t-104 23.5q-60 0 -101.5 -23.5t-67 -62t-37 -88t-11.5 -101.5q0 -53 10.5 -103
t36 -88.5t67 -62t103.5 -23.5q60 0 102 23.5t67.5 62t37 88t11.5 102.5z" />
    <glyph glyph-name="R" unicode="R" horiz-adv-x="560" 
d="M552 12q0 -12 -17 -12h-73q-9 0 -14.5 3t-11.5 12l-211 290q-5 8 -9.5 10t-12.5 2h-14q-10 0 -10 -12v-287q0 -18 -17 -18h-64q-16 0 -16 18v644q0 18 18 18h139q44 0 82 -2t71 -13q21 -7 39 -19t32 -31t22 -44.5t8 -59.5q0 -81 -42 -123t-114 -56q-9 -2 -9 -7
q0 -4 4 -11l211 -282q9 -12 9 -20zM390 502q0 59 -33.5 86.5t-106.5 27.5h-61q-10 0 -10 -11v-214q0 -11 11 -11h61q69 0 104 31t35 91z" />
    <glyph glyph-name="S" unicode="S" horiz-adv-x="483" 
d="M432 187q0 -97 -58.5 -146t-160.5 -49q-42 0 -80.5 8t-69.5 23q-14 7 -18 13.5t-4 15.5v43q0 16 14 16q9 0 20 -7t28.5 -15.5t43 -15.5t63.5 -7q66 0 95.5 29t29.5 72q0 32 -14.5 55.5t-50.5 47.5l-122 82q-45 30 -69.5 67t-24.5 90q0 47 15.5 81t42.5 56t65 32.5
t83 10.5q46 0 82.5 -10t56.5 -21q13 -7 17 -13t4 -14v-48q0 -14 -14 -14q-9 0 -20.5 7t-28 15.5t-40.5 15.5t-58 7q-38 0 -59.5 -10.5t-32.5 -24.5t-13.5 -28.5t-2.5 -22.5q0 -18 4 -32t14 -27.5t28 -27t45 -31.5l89 -58q56 -36 78.5 -73.5t22.5 -91.5z" />
    <glyph glyph-name="T" unicode="T" horiz-adv-x="521" 
d="M515 625q0 -18 -18 -18h-177q-10 0 -10 -11v-578q0 -18 -17 -18h-64q-18 0 -18 18v578q0 11 -10 11h-176q-19 0 -19 18v37q0 18 19 18h472q18 0 18 -18v-37z" />
    <glyph glyph-name="U" unicode="U" horiz-adv-x="670" 
d="M506 662q0 18 17 18h49q18 0 18 -18v-426q0 -128 -61.5 -190t-196.5 -62q-71 0 -119 16.5t-77.5 48t-42.5 75.5t-13 100v438q0 18 17 18h64q18 0 18 -18v-428q0 -91 37 -133.5t126 -42.5q82 0 123 41t41 137v426z" />
    <glyph glyph-name="V" unicode="V" horiz-adv-x="592" 
d="M588 667q0 -6 -4 -15l-220 -628q-5 -16 -13.5 -24t-25.5 -8h-64q-21 0 -28.5 7t-14.5 27l-211 627q-3 10 -3 14q0 13 17 13h71q12 0 17 -12l184 -570q3 -10 8 -10q4 0 8 11l191 569q4 12 17 12h53q18 0 18 -13z" />
    <glyph glyph-name="W" unicode="W" horiz-adv-x="912" 
d="M908 667q0 -6 -2 -14l-174 -620q-7 -25 -17 -33t-29 -8h-53q-21 0 -31 8t-17 37l-124 516q-3 14 -8 14t-8 -13l-126 -521q-5 -22 -15.5 -31.5t-30.5 -9.5h-56q-20 0 -30 7.5t-15 27.5l-165 621q-3 10 -3 19q0 13 17 13h64q16 0 19 -12l141 -566q3 -13 9 -13q5 0 8 13
l131 542q5 20 15.5 28t29.5 8h43q23 0 33.5 -8.5t15.5 -28.5l130 -538q4 -16 9 -16t8 13l143 566q3 12 17 12h53q18 0 18 -13z" />
    <glyph glyph-name="X" unicode="X" horiz-adv-x="579" 
d="M569 13q0 -13 -17 -13h-73q-14 0 -21 10l-170 257q-7 10 -12 10t-10 -9l-157 -256q-4 -7 -7.5 -9.5t-11.5 -2.5h-58q-16 0 -16 13q0 4 1 8t6 10l198 299q7 11 7 17q0 4 -7 15l-193 288q-7 10 -7 17q0 13 18 13h73q14 0 20 -9l154 -232q7 -11 11 -11t10 10l141 230
q7 12 20 12h53q18 0 18 -13q0 -3 -1.5 -6.5t-6.5 -11.5l-182 -278q-4 -5 -4 -11q0 -5 5 -13l212 -316q5 -6 6 -9.5t1 -8.5z" />
    <glyph glyph-name="Y" unicode="Y" horiz-adv-x="545" 
d="M541 670q0 -9 -7 -20l-195 -345q-7 -13 -9 -21t-2 -28v-238q0 -18 -17 -18h-66q-16 0 -16 18v225q0 20 -2.5 28.5t-11.5 25.5l-203 352q-5 8 -6.5 12t-1.5 8q0 5 4.5 8t10.5 3h72q9 0 13.5 -3.5t9.5 -11.5l159 -289q5 -10 12 -10q5 0 11 10l157 289q5 9 10 12t14 3h50
q14 0 14 -10z" />
    <glyph glyph-name="Z" unicode="Z" horiz-adv-x="552" 
d="M522 18q0 -18 -18 -18h-452q-18 0 -18 18v51q0 19 11 34l344 484q6 7 6 14q0 6 -13 6h-318q-18 0 -18 17v39q0 17 18 17h432q18 0 18 -18v-39q0 -11 -2 -18t-9 -17l-350 -494q-4 -5 -5 -8t-1 -7q0 -6 13 -6h344q18 0 18 -18v-37z" />
    <glyph glyph-name="bracketleft" unicode="[" horiz-adv-x="286" 
d="M245 -200q0 -20 -20 -20h-153q-21 0 -21 21v897q0 22 22 22h152q20 0 20 -20v-34q0 -19 -20 -19h-76q-11 0 -11 -13v-769q0 -12 12 -12h75q20 0 20 -19v-34z" />
    <glyph glyph-name="backslash" unicode="\" horiz-adv-x="500" 
d="M368 -219q0 -13 -18 -17q-10 -2 -19.5 -3.5t-13.5 -1.5q-15 0 -18 19l-164 926q-1 3 -2 10t-1 13q0 14 16 18q11 3 20 4t14 1q17 0 20 -18l164 -932q1 -5 1.5 -10.5t0.5 -8.5z" />
    <glyph glyph-name="bracketright" unicode="]" horiz-adv-x="286" 
d="M41 700q0 20 20 20h153q21 0 21 -21v-897q0 -22 -22 -22h-152q-20 0 -20 20v34q0 19 20 19h76q11 0 11 13v769q0 12 -12 12h-75q-20 0 -20 19v34z" />
    <glyph glyph-name="asciicircum" unicode="^" 
d="M325 691q15 0 21 -14l209 -441q5 -9 6 -14t1 -8q0 -10 -10 -10h-50q-10 0 -14.5 4t-8.5 12l-160 355q-5 9 -11 9q-7 0 -11 -9l-160 -355q-4 -8 -8.5 -12t-14.5 -4h-50q-10 0 -10 10q0 3 1 8t6 14l209 441q6 14 21 14h34z" />
    <glyph glyph-name="underscore" unicode="_" horiz-adv-x="500" 
d="M521 -136q0 -21 -21 -21h-500q-21 0 -21 22v13q0 21 21 21h500q21 0 21 -22v-13z" />
    <glyph glyph-name="grave" unicode="`" horiz-adv-x="500" 
d="M359 596q0 -4 -2 -9.5t-13 -21.5q-6 -9 -13 -9q-6 0 -16 5l-154 73q-20 10 -20 24q0 9 10 25l11 18q7 11 11.5 14t12.5 3q11 0 33 -15l130 -93q10 -7 10 -14z" />
    <glyph glyph-name="a" unicode="a" horiz-adv-x="527" 
d="M451 18q0 -18 -17 -18h-57q-14 0 -14 13q0 7 -10 7q-9 0 -20.5 -4.5t-27.5 -9.5t-38 -9.5t-51 -4.5q-51 0 -84 12t-52 32t-26.5 45t-7.5 52q0 62 36.5 98.5t124.5 62.5l119 36q17 5 23.5 12t6.5 20v23q0 32 -22 47t-73 15q-41 0 -69 -6.5t-47 -15t-30.5 -15t-19.5 -6.5
q-13 0 -13 16v42q0 9 4 15.5t18 12.5q34 14 74.5 21.5t91.5 7.5q100 0 142 -38q23 -20 31 -48t8 -77v-338zM356 257q0 10 -8 10q-6 0 -17 -4l-107 -36q-39 -13 -58.5 -32.5t-19.5 -55.5q0 -22 7.5 -36.5t20 -23.5t29.5 -12.5t36 -3.5q54 0 85.5 16t31.5 40v138z" />
    <glyph glyph-name="b" unicode="b" horiz-adv-x="587" 
d="M541 262q0 -66 -17.5 -116t-50 -84.5t-77.5 -52t-100 -17.5q-27 0 -46.5 4.5t-33.5 9.5t-23.5 9.5t-18.5 4.5q-8 0 -9.5 -1.5t-1.5 -5.5q0 -13 -14 -13h-57q-16 0 -16 18v684q0 18 16 18h61q17 0 17 -18v-201q0 -13 10 -13q4 0 14 5t25.5 10.5t36.5 10.5t49 5
q113 0 174.5 -68.5t61.5 -188.5zM441 260q0 43 -9 77.5t-29 59t-51.5 38t-76.5 13.5q-42 0 -73.5 -15t-31.5 -46v-262q0 -18 10 -30t26 -19t34.5 -10t35.5 -3q37 0 67.5 11t52 35t33.5 61.5t12 89.5z" />
    <glyph glyph-name="c" unicode="c" horiz-adv-x="509" 
d="M461 45q0 -11 -4 -16.5t-11 -9.5q-21 -12 -60 -19.5t-85 -7.5q-65 0 -113 18.5t-79.5 52.5t-47 81.5t-15.5 105.5q0 59 15.5 108.5t48.5 85t83.5 55.5t120.5 20q20 0 40.5 -2.5t38.5 -6t31.5 -8.5t21.5 -9q10 -6 12.5 -11.5t2.5 -14.5v-41q0 -16 -14 -16q-9 0 -18.5 6
t-24.5 12.5t-36.5 12.5t-52.5 6q-45 0 -77 -15.5t-52.5 -41.5t-30 -61.5t-9.5 -75.5q0 -92 42 -140.5t120 -48.5q31 0 54 6t39.5 12.5t27.5 12.5t18 6q14 0 14 -16v-40z" />
    <glyph glyph-name="d" unicode="d" horiz-adv-x="587" 
d="M511 18q0 -18 -16 -18h-59q-13 0 -13 13q0 7 -10 7q-8 0 -19 -4.5t-26 -9.5t-36 -9.5t-50 -4.5q-113 0 -174.5 68.5t-61.5 188.5q0 66 17.5 116t50 84.5t77.5 52t100 17.5q27 0 47 -4.5t34.5 -9.5t23 -9.5t11.5 -4.5q9 0 9 13v198q0 18 17 18h62q16 0 16 -18v-684z
M416 388q0 26 -28 43t-77 17q-80 0 -122.5 -48.5t-42.5 -148.5q0 -86 38 -137t127 -51q45 0 75 15.5t30 46.5v263z" />
    <glyph glyph-name="e" unicode="e" horiz-adv-x="547" 
d="M501 263q0 -18 -18 -18h-322q-15 0 -15 -14q0 -77 43 -122.5t125 -45.5q32 0 57 6t43 12.5t29.5 12.5t17.5 6q14 0 14 -16v-35q0 -10 -1.5 -15.5t-9.5 -11.5q-9 -7 -26.5 -12.5t-39.5 -9.5t-46.5 -6t-47.5 -2q-130 0 -194 68t-64 190q0 63 17 112.5t48 84.5t74.5 53.5
t97.5 18.5q103 0 160.5 -60.5t57.5 -172.5v-23zM402 326q0 59 -34 91.5t-91 32.5q-32 0 -56.5 -10.5t-41 -28.5t-25 -41t-8.5 -47q0 -5 2 -7.5t10 -2.5h232q7 0 9.5 2.5t2.5 10.5z" />
    <glyph glyph-name="f" unicode="f" horiz-adv-x="313" 
d="M303 657q0 -16 -13 -16q-9 0 -18 6t-31 6q-29 0 -43.5 -15.5t-14.5 -50.5v-64q0 -12 11 -12h85q18 0 18 -18v-34q0 -18 -18 -18h-85q-11 0 -11 -13v-410q0 -18 -17 -18h-62q-16 0 -16 18v410q0 13 -10 13h-55q-17 0 -17 18v34q0 18 17 18h55q10 0 10 12v63q0 63 34 101
t104 38q41 0 59 -7.5t18 -21.5v-39z" />
    <glyph glyph-name="g" unicode="g" horiz-adv-x="587" 
d="M511 6q0 -40 -4 -66t-13 -46q-26 -58 -88.5 -82t-148.5 -24q-48 0 -93 9.5t-74 23.5q-18 8 -18 25v42q0 16 13 16q7 0 19.5 -7t33.5 -15t51.5 -15t74.5 -7q29 0 61 6t56 23q23 16 29 42t6 53v34q0 14 -9 14q-5 0 -14.5 -5t-25 -11t-36.5 -11t-49 -5q-113 0 -174.5 66.5
t-61.5 186.5q0 66 17.5 115.5t50 83t77.5 50.5t100 17q27 0 46.5 -4.5t34 -10t24 -10t17.5 -4.5q10 0 10 8q0 13 15 13h55q18 0 18 -18v-487zM416 387q0 16 -8.5 27.5t-23 19t-33.5 11t-40 3.5q-82 0 -123.5 -46t-41.5 -147q0 -86 38 -135t127 -49q45 0 75 16t30 43v257z
" />
    <glyph glyph-name="h" unicode="h" horiz-adv-x="571" 
d="M495 18q0 -18 -17 -18h-62q-16 0 -16 18v313q0 60 -28 89t-94 29q-15 0 -33.5 -3.5t-34.5 -9.5q-20 -8 -30 -19t-10 -33v-366q0 -18 -16 -18h-62q-16 0 -16 18v684q0 18 17 18h60q17 0 17 -18v-203q0 -13 10 -13q4 0 14 5t27 11.5t40 11.5t52 5q44 0 81.5 -12t61.5 -39
q25 -28 32 -65t7 -100v-285z" />
    <glyph glyph-name="i" unicode="i" horiz-adv-x="248" 
d="M182 663q0 -57 -59 -57q-57 0 -57 58q0 27 16 41.5t42 14.5q58 0 58 -57zM171 18q0 -18 -17 -18h-59q-18 0 -18 18v475q0 18 17 18h60q17 0 17 -18v-475z" />
    <glyph glyph-name="j" unicode="j" horiz-adv-x="270" 
d="M204 663q0 -57 -58 -57q-57 0 -57 58q0 27 15.5 41.5t42.5 14.5t42 -14.5t15 -42.5zM194 -68q0 -81 -40 -116.5t-107 -35.5q-25 0 -33 4.5t-8 12.5v45q0 14 13 14q6 0 9.5 -0.5t10.5 -0.5q32 0 46 19t14 65v554q0 18 17 18h60q18 0 18 -18v-561z" />
    <glyph glyph-name="k" unicode="k" horiz-adv-x="479" 
d="M471 499q0 -9 -9 -18l-183 -184q-7 -7 -7 -12t4 -11l188 -247q4 -5 5 -8.5t1 -7.5q0 -11 -15 -11h-69q-11 0 -16.5 3t-10.5 11l-164 222q-7 8 -15 8q-10 0 -10 -13v-213q0 -12 -6 -15t-12 -3h-58q-6 0 -12 3t-6 15v684q0 18 16 18h62q16 0 16 -18v-382q0 -12 10 -12
q6 0 11 5l178 183q10 11 15 13t14 2h59q5 0 9.5 -2.5t4.5 -9.5z" />
    <glyph glyph-name="l" unicode="l" horiz-adv-x="250" 
d="M172 18q0 -18 -17 -18h-60q-17 0 -17 18v684q0 18 17 18h60q17 0 17 -18v-684z" />
    <glyph glyph-name="m" unicode="m" horiz-adv-x="875" 
d="M799 18q0 -18 -18 -18h-60q-17 0 -17 18v317q0 56 -26 85t-87 29q-16 0 -34.5 -3t-34.5 -10.5t-26.5 -19t-10.5 -27.5v-371q0 -18 -18 -18h-60q-17 0 -17 18v317q0 56 -26 85t-88 29q-15 0 -33 -3t-34.5 -10.5t-27.5 -19t-11 -27.5v-371q0 -18 -17 -18h-60q-17 0 -17 18
v475q0 18 17 18h56q14 0 14 -13q0 -3 1.5 -5t8.5 -2q13 0 24.5 4.5t26.5 9.5t35.5 9.5t51.5 4.5q37 0 60 -7t37.5 -15.5t23.5 -15.5t17 -7h6q11 0 23.5 7t31.5 15.5t47.5 15.5t70.5 7q46 0 78 -13t55 -39t30.5 -58.5t7.5 -82.5v-308z" />
    <glyph glyph-name="n" unicode="n" horiz-adv-x="571" 
d="M495 18q0 -18 -18 -18h-60q-17 0 -17 18v309q0 21 -4 45t-14 37q-15 20 -40 30t-55 10q-21 0 -41.5 -3t-37.5 -10.5t-27.5 -19.5t-10.5 -29v-369q0 -18 -17 -18h-60q-17 0 -17 18v475q0 18 18 18h55q14 0 14 -13q0 -3 1.5 -5t8.5 -2q12 0 24.5 4.5t28 9.5t36.5 9.5
t51 4.5q44 0 81.5 -12t61.5 -39q25 -28 32 -65t7 -100v-285z" />
    <glyph glyph-name="o" unicode="o" horiz-adv-x="583" 
d="M537 257q0 -57 -15 -106t-45.5 -84t-77 -55t-108.5 -20q-60 0 -106 18.5t-76.5 53t-46.5 83t-16 107.5q0 57 15 106t45.5 84t76.5 55t109 20q60 0 106 -18.5t76.5 -53t46.5 -83t16 -107.5zM437 259q0 101 -37 145.5t-109 44.5t-108.5 -45.5t-36.5 -151.5
q0 -101 37 -145.5t109 -44.5q71 0 108 45.5t37 151.5z" />
    <glyph glyph-name="p" unicode="p" horiz-adv-x="587" 
d="M541 262q0 -63 -17 -113.5t-48.5 -85t-76 -53t-100.5 -18.5q-27 0 -47.5 4.5t-35 9.5t-23.5 9.5t-13 4.5q-10 0 -10 -13v-201q0 -18 -17 -18h-60q-17 0 -17 18v687q0 18 18 18h55q14 0 14 -13q0 -7 10 -7q9 0 19.5 4.5t26 9.5t36.5 9.5t50 4.5q113 0 174.5 -68.5
t61.5 -188.5zM441 260q0 43 -9 77.5t-29 59t-51.5 38t-76.5 13.5q-17 0 -35.5 -3t-34 -10t-25.5 -19.5t-10 -30.5v-259q0 -18 9.5 -30t24.5 -19.5t33.5 -10.5t37.5 -3q36 0 66.5 11t52.5 34.5t34.5 61t12.5 90.5z" />
    <glyph glyph-name="q" unicode="q" horiz-adv-x="587" 
d="M511 -194q0 -18 -17 -18h-60q-18 0 -18 18v204q0 13 -9 13q-5 0 -14.5 -5t-25 -10.5t-36.5 -10.5t-49 -5q-113 0 -174.5 68.5t-61.5 188.5q0 66 17.5 116t50 84.5t77.5 52t100 17.5q27 0 46 -4.5t33 -9.5t24 -9.5t18 -4.5q11 0 11 7q0 13 14 13h56q18 0 18 -18v-687z
M416 387q0 16 -9 28t-24 19t-34 10.5t-38 3.5q-76 0 -120.5 -47t-44.5 -150q0 -86 38 -137t127 -51q45 0 75 15.5t30 46.5v262z" />
    <glyph glyph-name="r" unicode="r" horiz-adv-x="362" 
d="M348 445q0 -16 -14 -16q-6 0 -11 1.5t-12.5 3t-19.5 3t-32 1.5q-39 0 -64 -17t-25 -60v-343q0 -18 -17 -18h-60q-17 0 -17 18v475q0 18 17 18h57q13 0 13 -13v-8q0 -10 11 -10t23.5 6t28 13.5t34.5 13.5t43 6q27 0 36 -6.5t9 -20.5v-47z" />
    <glyph glyph-name="s" unicode="s" horiz-adv-x="408" 
d="M356 142q0 -76 -49 -113t-129 -37q-77 0 -123 24q-10 5 -13.5 11.5t-3.5 15.5v42q0 7 3 11.5t12 4.5q8 0 17 -6t22 -12.5t32 -12.5t46 -6q48 0 70 17t22 49q0 23 -10.5 37.5t-41.5 34.5l-79 51q-47 30 -65 60t-18 67q0 66 43.5 102.5t124.5 36.5q38 0 68 -8t46 -17
q11 -6 13.5 -12t2.5 -15v-41q0 -7 -3 -11.5t-12 -4.5q-6 0 -15 6t-22 12.5t-31 12.5t-43 6q-41 0 -61.5 -14.5t-20.5 -39.5q0 -21 10.5 -35t30.5 -26l108 -69q69 -45 69 -121z" />
    <glyph glyph-name="t" unicode="t" horiz-adv-x="381" 
d="M345 29q0 -11 -11.5 -18t-28 -11t-35 -6t-31.5 -2q-43 0 -72 10t-46.5 29.5t-25 49t-7.5 68.5v279q0 13 -10 13h-53q-19 0 -19 18v34q0 18 19 18h53q10 0 10 12v105q0 19 18 19h58q19 0 19 -19v-105q0 -12 10 -12h135q17 0 17 -18v-34q0 -18 -17 -18h-135q-10 0 -10 -13
v-283q0 -40 16 -60.5t54 -20.5q19 0 31.5 3t21 7t14.5 7t11 3q14 0 14 -17v-38z" />
    <glyph glyph-name="u" unicode="u" horiz-adv-x="568" 
d="M492 18q0 -18 -19 -18h-55q-14 0 -14 13q0 7 -10 7q-12 0 -24.5 -4.5t-28 -9.5t-37 -9.5t-51.5 -4.5q-44 0 -81.5 11.5t-61.5 38.5q-12 14 -19.5 29.5t-11.5 35t-5.5 44t-1.5 56.5v286q0 18 17 18h62q16 0 16 -18v-313q0 -61 26 -89.5t94 -28.5q16 0 35.5 3.5t34.5 9.5
q20 8 30 19t10 34v365q0 18 16 18h62q17 0 17 -18v-475z" />
    <glyph glyph-name="v" unicode="v" horiz-adv-x="479" 
d="M473 498q0 -8 -3 -15l-158 -445q-10 -29 -18.5 -37.5t-28.5 -8.5h-53q-10 0 -17 1.5t-12 6t-9 13.5t-9 23l-156 447q-3 7 -3 15q0 13 17 13h65q9 0 13 -3t6 -9l129 -399q3 -11 9 -11q5 0 9 11l131 399q2 8 7 10t12 2h52q17 0 17 -13z" />
    <glyph glyph-name="w" unicode="w" horiz-adv-x="788" 
d="M774 498q0 -8 -3 -15l-138 -446q-8 -28 -18 -36.5t-29 -8.5h-50q-21 0 -30.5 8t-14.5 28l-85 367q-2 8 -3.5 10.5t-4.5 2.5q-5 0 -8 -13l-87 -366q-5 -19 -15 -28t-30 -9h-54q-20 0 -29 7.5t-17 32.5l-140 447q-2 5 -3 10.5t-1 8.5q0 13 18 13h64q16 0 19 -12l114 -407
q3 -13 10 -13q5 0 8 13l87 371q7 28 16.5 38t31.5 10h41q26 0 35.5 -10t15.5 -35l86 -371q2 -10 4 -13t5 -3q2 0 4 2.5t4 10.5l108 407q3 12 20 12h52q17 0 17 -13z" />
    <glyph glyph-name="x" unicode="x" horiz-adv-x="467" 
d="M453 14q0 -14 -17 -14h-67q-7 0 -11.5 2t-9.5 10l-117 172q-7 10 -12 10t-10 -9l-108 -177q-2 -4 -6 -6t-12 -2h-51q-18 0 -18 13q0 8 7 18l145 214q7 10 7 16t-7 15l-139 204q-8 11 -8 18q0 13 18 13h66q8 0 12.5 -3t8.5 -9l101 -148q7 -10 12 -10t10 9l92 149
q7 12 20 12h49q17 0 17 -12q0 -9 -7 -19l-131 -194q-4 -5 -4 -12q0 -6 5 -13l158 -230q7 -10 7 -17z" />
    <glyph glyph-name="y" unicode="y" horiz-adv-x="472" 
d="M472 498q0 -4 -1 -8.5t-3 -9.5l-223 -595q-9 -24 -19.5 -43.5t-25 -33t-34 -21t-46.5 -7.5q-23 0 -31.5 5t-8.5 12v45q0 14 13 14q5 0 8 -0.5t11 -0.5q17 0 29 10t24 41l23 58q4 10 5 15.5t1 9.5q0 8 -6 23l-178 469q-4 10 -4 17q0 13 18 13h68q8 0 11.5 -3t5.5 -9
l128 -371q4 -13 9 -13t9 13l129 371q2 6 6 9t13 3h52q17 0 17 -13z" />
    <glyph glyph-name="z" unicode="z" horiz-adv-x="484" 
d="M442 18q0 -18 -18 -18h-370q-18 0 -18 18v54q0 11 3 18t8 12l264 320q6 7 6 13t-10 6h-243q-18 0 -18 18v34q0 18 18 18h353q19 0 19 -18v-38q0 -12 -2.5 -19t-9.5 -15l-272 -330q-6 -8 -6 -12q0 -7 11 -7h267q18 0 18 -18v-36z" />
    <glyph glyph-name="braceleft" unicode="{" horiz-adv-x="371" 
d="M20 270q0 7 3 10.5t16 4.5l25 2q26 2 37.5 15t11.5 48v243q0 63 31.5 97.5t105.5 34.5h62q18 0 18 -16v-38q0 -16 -18 -16h-27q-46 0 -65 -19.5t-19 -67.5v-214q0 -42 -13 -64.5t-42 -30.5q-9 -3 -9 -7t9 -7q29 -8 42 -30.5t13 -64.5v-214q0 -48 19 -67.5t65 -19.5h27
q18 0 18 -16v-38q0 -16 -18 -16h-62q-74 0 -105.5 34.5t-31.5 97.5v243q0 35 -11.5 48t-37.5 15l-25 2q-13 1 -16 4.5t-3 10.5v36z" />
    <glyph glyph-name="bar" unicode="|" horiz-adv-x="500" 
d="M285 -224q0 -23 -22 -23h-28q-21 0 -21 22v958q0 23 22 23h28q21 0 21 -23v-957z" />
    <glyph glyph-name="braceright" unicode="}" horiz-adv-x="371" 
d="M351 234q0 -7 -3 -10.5t-16 -4.5l-25 -2q-26 -2 -37.5 -15t-11.5 -48v-243q0 -63 -31.5 -97.5t-105.5 -34.5h-62q-18 0 -18 16v38q0 16 18 16h27q46 0 65 19.5t19 67.5v214q0 42 13 64.5t42 30.5q9 3 9 7t-9 7q-29 8 -42 30.5t-13 64.5v214q0 48 -19 67.5t-65 19.5h-27
q-18 0 -18 16v38q0 16 18 16h62q74 0 105.5 -34.5t31.5 -97.5v-243q0 -35 11.5 -48t37.5 -15l25 -2q13 -1 16 -4.5t3 -10.5v-36z" />
    <glyph glyph-name="asciitilde" unicode="~" 
d="M262 484q-25 11 -38 14.5t-24 3.5q-22 0 -38 -12.5t-31 -41.5q-9 -17 -13.5 -21t-12.5 -4q-3 0 -11 3t-16.5 7.5t-14.5 10t-6 10.5q0 8 5 22t18 34q24 38 56 53t62 15q19 0 39 -4t46 -16l71 -32q25 -11 38 -14.5t24 -3.5q22 0 38 12.5t31 41.5q9 17 13.5 21t12.5 4
q3 0 11 -3t16.5 -7.5t14.5 -10t6 -10.5q0 -8 -5 -22t-18 -34q-24 -38 -56 -53t-62 -15q-19 0 -39 4t-46 16z" />
    <glyph glyph-name="uni00A0" unicode="&#xa0;" horiz-adv-x="266" 
 />
    <glyph glyph-name="exclamdown" unicode="&#xa1;" horiz-adv-x="340" 
d="M115 -124q0 6 0.5 23t1.5 31l15 385q1 17 4.5 22t17.5 5h31q14 0 17.5 -5t4.5 -22l16 -385q1 -14 1.5 -31t0.5 -23q0 -29 -7.5 -41t-37.5 -12h-21q-29 0 -36.5 12t-7.5 41zM107 459q0 30 17 45t46 15t46 -14.5t17 -45.5q0 -30 -17.5 -46t-46.5 -16q-30 0 -46 16.5
t-16 45.5z" />
    <glyph glyph-name="cent" unicode="&#xa2;" 
d="M192 253q0 -86 38.5 -138t118.5 -52q33 0 57.5 6t42 13t29 13t17.5 6q8 0 11 -5t3 -11v-38q0 -12 -4 -18.5t-18 -13.5q-11 -5 -27 -9.5t-33 -7.5t-33.5 -5t-26.5 -2q-11 0 -11 -11v-48q0 -17 -15 -17h-15q-15 0 -15 17v53q0 8 -11 9q-42 4 -79.5 21.5t-65.5 48.5
t-44.5 77t-16.5 108q0 50 11.5 94.5t36 79t62.5 58t91 31.5q10 2 13 4.5t3 7.5v51q0 10 3 14t12 4h14q16 0 16 -18v-47q0 -10 9 -10q38 0 74.5 -7.5t55.5 -18.5q14 -8 14 -24v-42q0 -16 -14 -16q-10 0 -19.5 6t-23.5 13t-35.5 13t-54.5 6q-84 0 -127 -52t-43 -143z" />
    <glyph glyph-name="sterling" unicode="&#xa3;" 
d="M540 18q0 -18 -19 -18h-425q-16 0 -16 15v46q0 10 3 14.5t14 9.5l10 5q20 10 27.5 32.5t7.5 54.5v129q0 12 -11 12h-34q-17 0 -17 19v35q0 19 17 19h34q11 0 11 12v79q0 46 12.5 84t38.5 65.5t67 42.5t98 15q25 0 48.5 -4t43 -10t34 -12.5t22.5 -12.5t9.5 -10.5
t1.5 -14.5v-40q0 -6 -2.5 -11t-11.5 -5t-19.5 7t-26 15.5t-37.5 15.5t-54 7q-66 0 -95.5 -30.5t-29.5 -84.5v-96q0 -12 10 -12h125q18 0 18 -19v-35q0 -19 -18 -19h-125q-10 0 -10 -12v-96q0 -44 -8.5 -69.5t-30.5 -42.5q-5 -3 -5 -9t7 -6h317q19 0 19 -19v-46z" />
    <glyph glyph-name="currency" unicode="&#xa4;" 
d="M511 109q-9 -9 -16 -9q-6 0 -15 9l-47 47q-26 -18 -58.5 -28t-67.5 -10t-66.5 10t-57.5 28l-47 -47q-8 -9 -15 -9t-14 7l-26 26q-7 7 -7 14q0 8 8 16l47 47q-19 26 -29 57t-10 66t10 66.5t29 57.5l-46 46q-9 11 -9 16q0 7 9 16l23 23q8 8 15 8q8 0 17 -9l46 -46
q26 17 57 27t66 10t67 -10t58 -27l47 47q9 9 16 9q6 0 14 -8l26 -26q7 -7 7 -13q0 -9 -9 -16l-47 -47q19 -26 29.5 -57.5t10.5 -66.5t-10 -66t-29 -57l47 -47q8 -7 8 -15t-8 -16zM162 333q0 -30 11.5 -56.5t31 -46t46 -30.5t56.5 -11t57 11t47 30.5t31.5 46t11.5 56.5
t-11.5 56t-31.5 45.5t-47 31t-57 11.5t-56.5 -11.5t-46 -31t-31 -45.5t-11.5 -56z" />
    <glyph glyph-name="yen" unicode="&#xa5;" 
d="M576 669q0 -6 -7 -19l-113 -201q-12 -21 -12 -26q0 -4 3 -5t6 -1h64q12 0 12 -11v-26q0 -11 -12 -11h-92q-10 0 -13.5 -2.5t-7.5 -9.5l-23 -40q-6 -9 -6 -14q0 -6 8 -6h134q12 0 12 -11v-26q0 -11 -12 -11h-143q-11 0 -11 -11v-220q0 -18 -16 -18h-67q-16 0 -16 18v220
q0 11 -10 11h-149q-13 0 -13 11v26q0 11 13 11h134q7 0 7 5q0 3 -2 7l-29 50q-4 7 -7.5 9t-13.5 2h-89q-13 0 -13 11v26q0 11 13 11h61q3 0 6 1t3 5q0 3 -2 7l-125 218q-8 13 -8 20q0 11 13 11h73q9 0 14 -3t10 -12l159 -289q6 -10 11 -10t11 10l157 289q8 15 24 15h48
q16 0 16 -11z" />
    <glyph glyph-name="brokenbar" unicode="&#xa6;" horiz-adv-x="500" 
d="M289 420q0 -22 -22 -22h-35q-21 0 -21 21v363q0 23 22 23h35q21 0 21 -23v-362zM289 -191q0 -22 -22 -22h-35q-21 0 -21 21v363q0 23 22 23h35q21 0 21 -23v-362z" />
    <glyph glyph-name="section" unicode="&#xa7;" horiz-adv-x="501" 
d="M343 427q27 -14 48 -29.5t35.5 -35t22 -43.5t7.5 -56q0 -35 -10.5 -61.5t-27 -46.5t-37 -33t-39.5 -20q-12 -4 -12 -8q0 -3 3 -5t8 -5q34 -23 50 -51.5t16 -72.5q0 -40 -15 -68t-39.5 -45.5t-57.5 -25.5t-69 -8q-46 0 -78.5 8.5t-48.5 17.5q-11 6 -13.5 11.5t-2.5 15.5
v40q0 7 3 12t12 5q5 0 15.5 -6t26.5 -12.5t36.5 -12.5t46.5 -6q39 0 66 13t27 51q0 27 -15.5 44t-55.5 39l-86 46q-27 14 -48 29.5t-35.5 35t-22 43.5t-7.5 56q0 34 10.5 61t27 47t36.5 33t40 20q12 4 12 8q0 3 -3 5t-8 5q-34 23 -50 51.5t-16 72.5q0 40 15 68t39.5 45.5
t57.5 25.5t69 8q46 0 78.5 -8.5t48.5 -17.5q11 -6 13.5 -11.5t2.5 -15.5v-40q0 -7 -3 -12t-12 -5q-5 0 -15.5 6t-26.5 12.5t-37 12.5t-46 6q-39 0 -66 -13t-27 -51q0 -14 3.5 -24.5t11.5 -20t22 -18.5t34 -20zM255 371q-13 8 -18.5 10t-9.5 2t-11 -4t-23 -15
q-30 -22 -41 -48t-11 -53q0 -43 17 -66t46 -38l43 -24q13 -8 18.5 -10t9.5 -2t11 4t23 15q30 22 41 48t11 53q0 43 -17 66t-46 38z" />
    <glyph glyph-name="dieresis" unicode="&#xa8;" horiz-adv-x="500" 
d="M213 630q0 -27 -14 -38t-39 -11t-39 11t-14 38t14 38.5t39 11.5t39 -11.5t14 -38.5zM393 630q0 -27 -14 -38t-39 -11t-39 11t-14 38t14 38.5t39 11.5t39 -11.5t14 -38.5z" />
    <glyph glyph-name="copyright" unicode="&#xa9;" horiz-adv-x="890" 
d="M611 50q0 -18 -22 -28q-26 -11 -56.5 -17.5t-73.5 -6.5q-118 0 -179.5 64.5t-61.5 179.5q0 56 15 103t46.5 80.5t79.5 52.5t113 19q36 0 68 -7t54 -18q17 -8 17 -25v-35q0 -16 -14 -16q-7 0 -16.5 5.5t-24 11.5t-35 11.5t-48.5 5.5q-76 0 -119 -49t-43 -136
q0 -89 41.5 -135t113.5 -46q30 0 51 5.5t36.5 12t25.5 12t18 5.5t11 -5t3 -11v-33zM845 246q0 -89 -29 -164t-82 -129t-126.5 -84t-163.5 -30t-163 30t-125.5 83t-81 127t-28.5 162t28.5 163.5t81 130.5t125.5 86t163 31t163.5 -29t126.5 -82t82 -128t29 -167zM779 250
q0 75 -24.5 139t-69 111t-106 73.5t-135.5 26.5t-135 -27t-105 -74.5t-68 -112.5t-24 -141q0 -75 24 -140t68 -113t105 -75t135 -27t135.5 27.5t106 76t69 114t24.5 142.5z" />
    <glyph glyph-name="ordfeminine" unicode="&#xaa;" horiz-adv-x="406" 
d="M360 305q0 -18 -16 -18h-45q-12 0 -12 12q0 7 -8 7q-4 0 -14 -4t-24 -8.5t-31.5 -8.5t-37.5 -4q-40 0 -66 9.5t-41.5 24.5t-21.5 34t-6 39q0 48 28.5 76t99.5 48l85 24q13 4 18 9t5 16v19q0 19 -15 28t-50 9q-33 0 -54.5 -5t-35.5 -11.5t-23 -11.5t-16 -5q-14 0 -14 17
v31q0 9 3 15t14 11q29 12 63.5 17t70.5 5q77 0 110.5 -25.5t33.5 -83.5v-266zM273 470q0 8 -6 8q-5 0 -17 -3l-61 -17q-37 -11 -49.5 -27t-12.5 -37q0 -29 18 -41t47 -12q13 0 27 2t26 7t20 13t8 19v88z" />
    <glyph glyph-name="guillemotleft" unicode="&#xab;" horiz-adv-x="452" 
d="M233 450q0 -7 -6 -20l-75 -154q-7 -14 -7 -21t7 -21l75 -154q6 -14 6 -20q0 -14 -19 -14h-39q-11 0 -16.5 3.5t-10.5 14.5l-83 169q-4 8 -5 12.5t-1 9.5t1 9.5t5 12.5l83 169q5 11 10.5 14.5t16.5 3.5h39q19 0 19 -14zM392 450q0 -7 -6 -20l-75 -154q-7 -14 -7 -21t7 -21
l75 -154q6 -14 6 -20q0 -14 -19 -14h-39q-11 0 -16.5 3.5t-10.5 14.5l-83 169q-4 8 -5 12.5t-1 9.5t1 9.5t5 12.5l83 169q5 11 10.5 14.5t16.5 3.5h39q19 0 19 -14z" />
    <glyph glyph-name="logicalnot" unicode="&#xac;" 
d="M546 169q0 -22 -20 -22h-38q-21 0 -21 22v146q0 18 -17 18h-359q-22 0 -22 20v33q0 21 22 21h435q20 0 20 -22v-216z" />
    <glyph glyph-name="uni00AD" unicode="&#xad;" horiz-adv-x="266" 
d="M238 268q0 -6 -3.5 -11t-10.5 -5h-181q-6 0 -10.5 5t-4.5 11v51q0 6 4.5 10t10.5 4h181q14 0 14 -14v-51z" />
    <glyph glyph-name="registered" unicode="&#xae;" horiz-adv-x="890" 
d="M845 246q0 -89 -29 -164t-82 -129t-126.5 -84t-163.5 -30t-163 30t-125.5 83t-81 127t-28.5 162t28.5 163.5t81 130.5t125.5 86t163 31t163.5 -29t126.5 -82t82 -128t29 -167zM779 250q0 75 -24.5 139t-69 111t-106 73.5t-135.5 26.5t-135 -27t-105 -74.5t-68 -112.5
t-24 -141q0 -75 24 -140t68 -113t105 -75t135 -27t135.5 27.5t106 76t69 114t24.5 142.5zM654 19q0 -12 -17 -12h-57q-16 0 -26 15l-146 192q-6 9 -17 9h-8q-4 0 -7.5 -2.5t-3.5 -9.5v-185q0 -11 -5 -15t-11 -4h-51q-6 0 -11 3.5t-5 11.5v449q0 19 18 19h143
q76 0 118.5 -29.5t42.5 -95.5q0 -57 -29 -89.5t-76 -41.5q-9 -2 -9 -7t4 -11l143 -178l7.5 -10.5t2.5 -8.5zM522 358q0 78 -87 78h-52q-11 0 -11 -12v-135q0 -13 13 -13h35q55 0 78.5 20.5t23.5 61.5z" />
    <glyph glyph-name="macron" unicode="&#xaf;" horiz-adv-x="500" 
d="M379 618q0 -20 -20 -20h-219q-11 0 -15.5 4t-4.5 16v21q0 20 20 20h219q11 0 15.5 -4t4.5 -16v-21z" />
    <glyph glyph-name="degree" unicode="&#xb0;" horiz-adv-x="445" 
d="M380 612q0 -72 -42.5 -115t-114.5 -43t-115.5 40t-43.5 118q0 72 42.5 115t114.5 43t115.5 -40t43.5 -118zM313 612q0 45 -26 70.5t-66 25.5q-38 0 -64 -24t-26 -72q0 -45 26.5 -70.5t65.5 -25.5t64.5 24t25.5 72z" />
    <glyph glyph-name="plusminus" unicode="&#xb1;" 
d="M86 0q-22 0 -22 20v33q0 21 22 21h443q22 0 22 -21v-33q0 -20 -22 -20h-443zM290 118q-22 0 -22 22v181q0 13 -12 13h-170q-22 0 -22 20v33q0 21 22 21h170q12 0 12 14v179q0 23 22 23h35q22 0 22 -23v-179q0 -14 13 -14h169q22 0 22 -21v-33q0 -20 -22 -20h-169
q-13 0 -13 -13v-181q0 -22 -22 -22h-35z" />
    <glyph glyph-name="uni00B2" unicode="&#xb2;" horiz-adv-x="310" 
d="M302 267q0 -18 -18 -18h-261q-11 0 -15 5t-4 11v16q0 39 19.5 69t62.5 61l84 61q48 34 48 81q0 35 -20.5 50.5t-57.5 15.5q-29 0 -48 -5.5t-31.5 -11.5t-20.5 -11.5t-15 -5.5q-11 0 -14 5t-3 12v30q0 9 3.5 15.5t13.5 11.5q17 9 49 16t81 7q29 0 56.5 -6.5t48.5 -21.5
t33.5 -38.5t12.5 -57.5q0 -42 -19 -72t-57 -56l-73 -49q-19 -13 -31 -21.5t-18.5 -14.5t-9 -10.5t-2.5 -9.5q0 -7 11 -7h177q18 0 18 -18v-33z" />
    <glyph glyph-name="uni00B3" unicode="&#xb3;" horiz-adv-x="310" 
d="M306 374q0 -25 -9 -47.5t-29.5 -39.5t-53 -27t-79.5 -10q-36 0 -64.5 6t-48.5 15q-11 5 -14 12.5t-3 16.5v28q0 7 2.5 12.5t11.5 5.5q6 0 13 -5t19.5 -11.5t31 -11.5t46.5 -5q92 0 92 68q0 62 -79 62h-23q-10 0 -14 4.5t-4 10.5v31q0 14 18 14h17q73 0 73 61
q0 30 -19.5 42t-51.5 12q-26 0 -42.5 -5t-27.5 -11.5t-18.5 -11.5t-15.5 -5q-9 0 -11.5 5.5t-2.5 11.5v33q0 8 4 14t15 11q45 20 109 20q75 0 110 -28t35 -76q0 -31 -12 -54.5t-38 -34.5q-13 -6 -13 -10q0 -2 2 -4.5t10 -4.5q29 -9 46.5 -30.5t17.5 -63.5z" />
    <glyph glyph-name="acute" unicode="&#xb4;" horiz-adv-x="500" 
d="M141 596q0 7 10 14l130 93q22 15 33 15q8 0 12.5 -3t11.5 -14l11 -18q10 -16 10 -25q0 -14 -20 -24l-154 -73q-10 -5 -16 -5q-7 0 -13 9q-11 16 -13 21.5t-2 9.5z" />
    <glyph glyph-name="mu" unicode="&#xb5;" 
d="M518 18q0 -18 -19 -18h-55q-14 0 -14 13q0 7 -10 7q-12 0 -24.5 -4.5t-28 -9.5t-37 -9.5t-51.5 -4.5q-37 0 -55 6.5t-22 6.5q-10 0 -10 -13v-186q0 -18 -17 -18h-60q-17 0 -17 18v687q0 18 17 18h62q16 0 16 -18v-313q0 -61 26 -89.5t94 -28.5q16 0 35.5 3.5t34.5 9.5
q20 8 30 19t10 34v365q0 18 16 18h62q17 0 17 -18v-475z" />
    <glyph glyph-name="paragraph" unicode="&#xb6;" horiz-adv-x="430" 
d="M344 -74q0 -63 -32.5 -103t-109.5 -40q-78 0 -78 29v39q0 16 14 16q4 0 8 -2t9.5 -4t13 -4t18.5 -2q36 0 47 20.5t11 47.5v381q0 8 -3.5 11t-14.5 5q-50 7 -84 25.5t-56 45t-31.5 59.5t-9.5 69q0 45 14.5 82.5t42.5 65t69.5 43t95.5 15.5h57q19 0 19 -17v-782z" />
    <glyph glyph-name="periodcentered" unicode="&#xb7;" horiz-adv-x="266" 
d="M220 349q0 -45 -22 -63.5t-65 -18.5q-45 0 -66 19.5t-21 64.5t21 64t66 19q43 0 65 -20t22 -65z" />
    <glyph glyph-name="cedilla" unicode="&#xb8;" horiz-adv-x="500" 
d="M321 -104q0 -37 -27.5 -58t-75.5 -21q-19 0 -29.5 3.5t-10.5 14.5v14q0 15 21 15q29 0 42.5 7t13.5 30q0 25 -26 32q-15 3 -15 17v42q0 8 -8 8h69q-8 0 -8 -8v-13q0 -11 19 -18q12 -5 23.5 -19t11.5 -46z" />
    <glyph glyph-name="uni00B9" unicode="&#xb9;" horiz-adv-x="310" 
d="M224 265q0 -18 -16 -18h-47q-17 0 -17 18v317q0 11 -7 11q-5 0 -10.5 -2.5t-13.5 -5.5t-19.5 -5.5t-28.5 -2.5t-17 19v25q0 19 18 19q9 0 21 2.5t24 7t22.5 10.5t15.5 12q5 5 8 6.5t10 1.5h39q18 0 18 -18v-397z" />
    <glyph glyph-name="ordmasculine" unicode="&#xba;" horiz-adv-x="463" 
d="M432 482q0 -43 -12 -80t-36.5 -64t-61.5 -42t-86 -15q-97 0 -146.5 54t-49.5 144q0 43 12 80t36.5 64t61.5 42t87 15q96 0 145.5 -54t49.5 -144zM342 483q0 70 -26.5 103t-79.5 33t-79 -33.5t-26 -107.5t26 -105t80 -31q105 0 105 141z" />
    <glyph glyph-name="guillemotright" unicode="&#xbb;" horiz-adv-x="452" 
d="M218 60q0 6 6 20l75 154q7 14 7 21t-7 21l-75 154q-6 13 -6 20q0 14 19 14h39q11 0 16.5 -3.5t10.5 -14.5l83 -169q4 -8 5 -12.5t1 -9.5t-1 -9.5t-5 -12.5l-83 -169q-5 -11 -10.5 -14.5t-16.5 -3.5h-39q-19 0 -19 14zM59 60q0 6 6 20l75 154q7 14 7 21t-7 21l-75 154
q-6 13 -6 20q0 14 19 14h39q11 0 16.5 -3.5t10.5 -14.5l83 -169q4 -8 5 -12.5t1 -9.5t-1 -9.5t-5 -12.5l-83 -169q-5 -11 -10.5 -14.5t-16.5 -3.5h-39q-19 0 -19 14z" />
    <glyph glyph-name="onequarter" unicode="&#xbc;" horiz-adv-x="930" 
d="M236 265q0 -18 -16 -18h-47q-17 0 -17 18v317q0 11 -7 11q-5 0 -10.5 -2.5t-13.5 -5.5t-19.5 -5.5t-28.5 -2.5t-17 19v25q0 19 18 19q9 0 21 2.5t24 7t22.5 10.5t15.5 12q5 5 8 6.5t10 1.5h39q18 0 18 -18v-397zM632 680q0 -6 -8 -20l-375 -677q-7 -12 -17 -12
q-5 0 -11 2.5t-22 13.5q-8 5 -8 13q0 5 7 18l376 678q6 13 16 13q9 0 34 -16zM830 107q0 -19 -17 -19h-31q-9 0 -9 -10v-60q0 -18 -17 -18h-42q-17 0 -17 18v60q0 10 -9 10h-187q-19 0 -19 19v25q0 10 9 22l187 266q9 12 25 12h55q15 0 15 -14v-255q0 -10 9 -10h31
q17 0 17 -19v-27zM697 340q0 6 -5 6q-6 0 -12 -9l-115 -170q-3 -5 -3 -8t3 -4.5t6 -1.5h117q9 0 9 10v177z" />
    <glyph glyph-name="onehalf" unicode="&#xbd;" horiz-adv-x="930" 
d="M840 18q0 -18 -18 -18h-261q-11 0 -15 5t-4 11v16q0 39 19.5 69t62.5 61l84 61q48 34 48 81q0 35 -20.5 50.5t-57.5 15.5q-29 0 -48 -5.5t-31.5 -11.5t-20.5 -11.5t-15 -5.5q-11 0 -14 5t-3 12v30q0 9 3.5 15.5t13.5 11.5q17 9 49 16t81 7q29 0 56.5 -6.5t48.5 -21.5
t33.5 -38.5t12.5 -57.5q0 -42 -19 -72t-57 -56l-73 -49q-19 -13 -31 -21.5t-18.5 -14.5t-9 -10.5t-2.5 -9.5q0 -7 11 -7h177q18 0 18 -18v-33zM236 265q0 -18 -16 -18h-47q-17 0 -17 18v317q0 11 -7 11q-5 0 -10.5 -2.5t-13.5 -5.5t-19.5 -5.5t-28.5 -2.5t-17 19v25
q0 19 18 19q9 0 21 2.5t24 7t22.5 10.5t15.5 12q5 5 8 6.5t10 1.5h39q18 0 18 -18v-397zM628 680q0 -6 -8 -20l-375 -677q-7 -12 -17 -12q-5 0 -11 2.5t-22 13.5q-8 5 -8 13q0 5 7 18l376 678q6 13 16 13q9 0 34 -16z" />
    <glyph glyph-name="threequarters" unicode="&#xbe;" horiz-adv-x="930" 
d="M361 374q0 -25 -9 -47.5t-29.5 -39.5t-53 -27t-79.5 -10q-36 0 -64.5 6t-48.5 15q-11 5 -14 12.5t-3 16.5v28q0 7 2.5 12.5t11.5 5.5q6 0 13 -5t19.5 -11.5t31 -11.5t46.5 -5q92 0 92 68q0 62 -79 62h-23q-10 0 -14 4.5t-4 10.5v31q0 14 18 14h17q73 0 73 61
q0 30 -19.5 42t-51.5 12q-26 0 -42.5 -5t-27.5 -11.5t-18.5 -11.5t-15.5 -5q-9 0 -11.5 5.5t-2.5 11.5v33q0 8 4 14t15 11q45 20 109 20q75 0 110 -28t35 -76q0 -31 -12 -54.5t-38 -34.5q-13 -6 -13 -10q0 -2 2 -4.5t10 -4.5q29 -9 46.5 -30.5t17.5 -63.5zM692 680
q0 -6 -8 -20l-375 -677q-7 -12 -17 -12q-5 0 -11 2.5t-22 13.5q-8 5 -8 13q0 5 7 18l376 678q6 13 16 13q9 0 34 -16zM850 107q0 -19 -17 -19h-31q-9 0 -9 -10v-60q0 -18 -17 -18h-42q-17 0 -17 18v60q0 10 -9 10h-187q-19 0 -19 19v25q0 10 9 22l187 266q9 12 25 12h55
q15 0 15 -14v-255q0 -10 9 -10h31q17 0 17 -19v-27zM717 340q0 6 -5 6q-6 0 -12 -9l-115 -170q-3 -5 -3 -8t3 -4.5t6 -1.5h117q9 0 9 10v177z" />
    <glyph glyph-name="questiondown" unicode="&#xbf;" horiz-adv-x="490" 
d="M51 1q0 42 17 78.5t46 66.5l103 106q15 15 20 28.5t5 34.5v26q0 18 18 18h42q19 0 19 -18v-38q0 -24 -8 -45.5t-27 -42.5l-84 -100q-20 -25 -32 -53.5t-12 -58.5q0 -52 30 -79t99 -27q40 0 67.5 7t46 15.5t29.5 15.5t19 7q15 0 15 -16v-41q0 -10 -3 -16.5t-15 -12.5
q-30 -15 -74.5 -24.5t-100.5 -9.5q-108 0 -164 46t-56 133zM219 459q0 30 16.5 45t45.5 15q30 0 46.5 -14.5t16.5 -45.5q0 -30 -17 -46t-47 -16t-45.5 16.5t-15.5 45.5z" />
    <glyph glyph-name="Agrave" unicode="&#xc0;" horiz-adv-x="592" 
d="M588 12q0 -12 -16 -12h-70q-10 0 -14 3t-6 9l-71 226q-4 10 -14 10h-213q-15 0 -18 -9l-74 -227q-4 -12 -20 -12h-51q-17 0 -17 13q0 6 3 15l219 624q8 21 16.5 29t26.5 8h61q19 0 27.5 -6.5t16.5 -29.5l210 -625q4 -11 4 -16zM384 322q0 4 -4 14l-81 255q-3 10 -8 10
q-4 0 -8 -11l-85 -255q-3 -8 -3 -13q0 -7 10 -7h168q11 0 11 7zM405 748q0 -4 -2 -9.5t-13 -21.5q-6 -9 -13 -9q-6 0 -16 5l-154 73q-20 10 -20 24q0 9 10 25l11 18q7 11 11.5 14t12.5 3q11 0 33 -15l130 -93q10 -7 10 -14z" />
    <glyph glyph-name="Aacute" unicode="&#xc1;" horiz-adv-x="592" 
d="M588 12q0 -12 -16 -12h-70q-10 0 -14 3t-6 9l-71 226q-4 10 -14 10h-213q-15 0 -18 -9l-74 -227q-4 -12 -20 -12h-51q-17 0 -17 13q0 6 3 15l219 624q8 21 16.5 29t26.5 8h61q19 0 27.5 -6.5t16.5 -29.5l210 -625q4 -11 4 -16zM384 322q0 4 -4 14l-81 255q-3 10 -8 10
q-4 0 -8 -11l-85 -255q-3 -8 -3 -13q0 -7 10 -7h168q11 0 11 7zM187 748q0 7 10 14l130 93q22 15 33 15q8 0 12.5 -3t11.5 -14l11 -18q10 -16 10 -25q0 -14 -20 -24l-154 -73q-10 -5 -16 -5q-7 0 -13 9q-11 16 -13 21.5t-2 9.5z" />
    <glyph glyph-name="Acircumflex" unicode="&#xc2;" horiz-adv-x="592" 
d="M588 12q0 -12 -16 -12h-70q-10 0 -14 3t-6 9l-71 226q-4 10 -14 10h-213q-15 0 -18 -9l-74 -227q-4 -12 -20 -12h-51q-17 0 -17 13q0 6 3 15l219 624q8 21 16.5 29t26.5 8h61q19 0 27.5 -6.5t16.5 -29.5l210 -625q4 -11 4 -16zM384 322q0 4 -4 14l-81 255q-3 10 -8 10
q-4 0 -8 -11l-85 -255q-3 -8 -3 -13q0 -7 10 -7h168q11 0 11 7zM456 745q0 -2 -0.5 -4.5t-3.5 -7.5l-10 -16q-5 -8 -12 -8q-3 0 -7.5 1t-9.5 4l-103 61q-8 5 -14 5t-14 -5l-103 -61q-5 -3 -9.5 -4t-7.5 -1q-7 0 -12 8l-10 16q-3 5 -3.5 7.5t-0.5 4.5q0 6 10 15l121 97
q11 9 16 11.5t13 2.5t13 -2.5t16 -11.5l121 -97q10 -9 10 -15z" />
    <glyph glyph-name="Atilde" unicode="&#xc3;" horiz-adv-x="592" 
d="M588 12q0 -12 -16 -12h-70q-10 0 -14 3t-6 9l-71 226q-4 10 -14 10h-213q-15 0 -18 -9l-74 -227q-4 -12 -20 -12h-51q-17 0 -17 13q0 6 3 15l219 624q8 21 16.5 29t26.5 8h61q19 0 27.5 -6.5t16.5 -29.5l210 -625q4 -11 4 -16zM384 322q0 4 -4 14l-81 255q-3 10 -8 10
q-4 0 -8 -11l-85 -255q-3 -8 -3 -13q0 -7 10 -7h168q11 0 11 7zM275 761q-12 6 -20 8t-16 2q-17 0 -29 -16l-7 -10q-5 -7 -8 -9t-7 -2q-3 0 -7.5 1.5t-14.5 8.5q-5 4 -6.5 6.5t-1.5 6.5q0 5 2 11t7 15q19 34 37.5 44t38.5 10q19 0 45 -12l29 -15q12 -6 20 -8t16 -2
q17 0 29 16l7 10q5 7 8 9t7 2q3 0 7.5 -1.5t14.5 -8.5q5 -4 6.5 -6.5t1.5 -6.5q0 -5 -2 -11t-7 -15q-10 -17 -19 -27.5t-18.5 -16.5t-19 -8t-19.5 -2q-20 0 -45 12z" />
    <glyph glyph-name="Adieresis" unicode="&#xc4;" horiz-adv-x="592" 
d="M588 12q0 -12 -16 -12h-70q-10 0 -14 3t-6 9l-71 226q-4 10 -14 10h-213q-15 0 -18 -9l-74 -227q-4 -12 -20 -12h-51q-17 0 -17 13q0 6 3 15l219 624q8 21 16.5 29t26.5 8h61q19 0 27.5 -6.5t16.5 -29.5l210 -625q4 -11 4 -16zM384 322q0 4 -4 14l-81 255q-3 10 -8 10
q-4 0 -8 -11l-85 -255q-3 -8 -3 -13q0 -7 10 -7h168q11 0 11 7zM259 782q0 -27 -14 -38t-39 -11t-39 11t-14 38t14 38.5t39 11.5t39 -11.5t14 -38.5zM439 782q0 -27 -14 -38t-39 -11t-39 11t-14 38t14 38.5t39 11.5t39 -11.5t14 -38.5z" />
    <glyph glyph-name="Aring" unicode="&#xc5;" horiz-adv-x="592" 
d="M588 12q0 -12 -16 -12h-70q-10 0 -14 3t-6 9l-71 226q-4 10 -14 10h-213q-15 0 -18 -9l-74 -227q-4 -12 -20 -12h-51q-17 0 -17 13q0 6 3 15l219 624q8 21 16.5 29t26.5 8h61q19 0 27.5 -6.5t16.5 -29.5l210 -625q4 -11 4 -16zM384 322q0 4 -4 14l-81 255q-3 10 -8 10
q-4 0 -8 -11l-85 -255q-3 -8 -3 -13q0 -7 10 -7h168q11 0 11 7zM376 792q0 -77 -79 -77q-80 0 -80 73q0 36 20 55t58 19t59.5 -18t21.5 -52zM333 786q0 20 -8 30t-28 10q-38 0 -38 -38q0 -37 36 -37q38 0 38 35z" />
    <glyph glyph-name="AE" unicode="&#xc6;" horiz-adv-x="771" 
d="M741 18q0 -18 -18 -18h-265q-10 0 -13.5 3.5t-5.5 11.5l-52 273q-2 10 -13 10h-170q-8 0 -12 -2.5t-8 -12.5l-104 -271q-2 -5 -5.5 -8.5t-14.5 -3.5h-48q-17 0 -17 13q0 6 3 15l252 627q5 13 13 19t25 6h414q18 0 18 -18v-37q0 -18 -18 -18h-266q-13 0 -13 -7
q0 -3 1.5 -14t3.5 -19l37 -182q2 -9 5 -11.5t12 -2.5h168q18 0 18 -18v-37q0 -18 -18 -18h-151q-14 0 -14 -9q0 -2 0.5 -5.5t1.5 -8.5l37 -188q2 -9 5 -11.5t13 -2.5h181q18 0 18 -18v-37zM368 378q0 9 -5 34l-38 198q-2 7 -3.5 8.5t-3.5 1.5q-5 0 -9 -10l-84 -216
q-4 -9 -4 -17q0 -6 14 -6h118q15 0 15 7z" />
    <glyph glyph-name="Ccedilla" unicode="&#xc7;" horiz-adv-x="635" 
d="M445 -104q0 -37 -27.5 -58t-75.5 -21q-19 0 -29.5 3.5t-10.5 14.5v14q0 15 21 15q29 0 42.5 7t13.5 30q0 25 -26 32q-15 3 -15 17v38q0 2 -2.5 5t-9.5 4q-130 14 -203.5 95.5t-73.5 233.5q0 85 25 152.5t71 114.5t112 71.5t148 24.5q57 0 102 -10.5t73 -26.5
q15 -8 15 -24v-43q0 -16 -15 -16q-6 0 -19 7t-32.5 15.5t-46.5 15.5t-63 7q-133 0 -199.5 -77t-66.5 -212q0 -128 64.5 -193.5t186.5 -65.5q45 0 75.5 7t50 15.5t30.5 15.5t18 7q17 0 17 -16v-40q0 -18 -14 -26q-32 -17 -77 -27t-103 -10q-10 0 -10 -8v-5q0 -11 19 -18
q12 -5 23.5 -19t11.5 -46z" />
    <glyph glyph-name="Egrave" unicode="&#xc8;" horiz-adv-x="510" 
d="M478 18q0 -18 -18 -18h-360q-18 0 -18 18v644q0 18 18 18h340q18 0 18 -18v-37q0 -18 -18 -18h-249q-10 0 -10 -12v-185q0 -5 2.5 -8.5t7.5 -3.5h197q18 0 18 -19v-36q0 -19 -18 -19h-197q-10 0 -10 -12v-228q0 -11 12 -11h267q18 0 18 -18v-37zM375 748q0 -4 -2 -9.5
t-13 -21.5q-6 -9 -13 -9q-6 0 -16 5l-154 73q-20 10 -20 24q0 9 10 25l11 18q7 11 11.5 14t12.5 3q11 0 33 -15l130 -93q10 -7 10 -14z" />
    <glyph glyph-name="Eacute" unicode="&#xc9;" horiz-adv-x="510" 
d="M478 18q0 -18 -18 -18h-360q-18 0 -18 18v644q0 18 18 18h340q18 0 18 -18v-37q0 -18 -18 -18h-249q-10 0 -10 -12v-185q0 -5 2.5 -8.5t7.5 -3.5h197q18 0 18 -19v-36q0 -19 -18 -19h-197q-10 0 -10 -12v-228q0 -11 12 -11h267q18 0 18 -18v-37zM172 748q0 7 10 14
l130 93q22 15 33 15q8 0 12.5 -3t11.5 -14l11 -18q10 -16 10 -25q0 -14 -20 -24l-154 -73q-10 -5 -16 -5q-7 0 -13 9q-11 16 -13 21.5t-2 9.5z" />
    <glyph glyph-name="Ecircumflex" unicode="&#xca;" horiz-adv-x="510" 
d="M478 18q0 -18 -18 -18h-360q-18 0 -18 18v644q0 18 18 18h340q18 0 18 -18v-37q0 -18 -18 -18h-249q-10 0 -10 -12v-185q0 -5 2.5 -8.5t7.5 -3.5h197q18 0 18 -19v-36q0 -19 -18 -19h-197q-10 0 -10 -12v-228q0 -11 12 -11h267q18 0 18 -18v-37zM427 745q0 -2 -0.5 -4.5
t-3.5 -7.5l-10 -16q-5 -8 -12 -8q-3 0 -7.5 1t-9.5 4l-103 61q-8 5 -14 5t-14 -5l-103 -61q-5 -3 -9.5 -4t-7.5 -1q-7 0 -12 8l-10 16q-3 5 -3.5 7.5t-0.5 4.5q0 6 10 15l121 97q11 9 16 11.5t13 2.5t13 -2.5t16 -11.5l121 -97q10 -9 10 -15z" />
    <glyph glyph-name="Edieresis" unicode="&#xcb;" horiz-adv-x="510" 
d="M478 18q0 -18 -18 -18h-360q-18 0 -18 18v644q0 18 18 18h340q18 0 18 -18v-37q0 -18 -18 -18h-249q-10 0 -10 -12v-185q0 -5 2.5 -8.5t7.5 -3.5h197q18 0 18 -19v-36q0 -19 -18 -19h-197q-10 0 -10 -12v-228q0 -11 12 -11h267q18 0 18 -18v-37zM230 782q0 -27 -14 -38
t-39 -11t-39 11t-14 38t14 38.5t39 11.5t39 -11.5t14 -38.5zM410 782q0 -27 -14 -38t-39 -11t-39 11t-14 38t14 38.5t39 11.5t39 -11.5t14 -38.5z" />
    <glyph glyph-name="Igrave" unicode="&#xcc;" horiz-adv-x="267" 
d="M183 18q0 -18 -18 -18h-64q-17 0 -17 18v644q0 18 17 18h64q18 0 18 -18v-644zM239 748q0 -4 -2 -9.5t-13 -21.5q-6 -9 -13 -9q-6 0 -16 5l-154 73q-20 10 -20 24q0 9 10 25l11 18q7 11 11.5 14t12.5 3q11 0 33 -15l130 -93q10 -7 10 -14z" />
    <glyph glyph-name="Iacute" unicode="&#xcd;" horiz-adv-x="267" 
d="M183 18q0 -18 -18 -18h-64q-17 0 -17 18v644q0 18 17 18h64q18 0 18 -18v-644zM32 748q0 7 10 14l130 93q22 15 33 15q8 0 12.5 -3t11.5 -14l11 -18q10 -16 10 -25q0 -14 -20 -24l-154 -73q-10 -5 -16 -5q-7 0 -13 9q-11 16 -13 21.5t-2 9.5z" />
    <glyph glyph-name="Icircumflex" unicode="&#xce;" horiz-adv-x="267" 
d="M183 18q0 -18 -18 -18h-64q-17 0 -17 18v644q0 18 17 18h64q18 0 18 -18v-644zM295 745q0 -2 -0.5 -4.5t-3.5 -7.5l-10 -16q-5 -8 -12 -8q-3 0 -7.5 1t-9.5 4l-103 61q-8 5 -14 5t-14 -5l-103 -61q-5 -3 -9.5 -4t-7.5 -1q-7 0 -12 8l-10 16q-3 5 -3.5 7.5t-0.5 4.5
q0 6 10 15l121 97q11 9 16 11.5t13 2.5t13 -2.5t16 -11.5l121 -97q10 -9 10 -15z" />
    <glyph glyph-name="Idieresis" unicode="&#xcf;" horiz-adv-x="267" 
d="M183 18q0 -18 -18 -18h-64q-17 0 -17 18v644q0 18 17 18h64q18 0 18 -18v-644zM98 782q0 -27 -14 -38t-39 -11t-39 11t-14 38t14 38.5t39 11.5t39 -11.5t14 -38.5zM278 782q0 -27 -14 -38t-39 -11t-39 11t-14 38t14 38.5t39 11.5t39 -11.5t14 -38.5z" />
    <glyph glyph-name="Eth" unicode="&#xd0;" horiz-adv-x="701" 
d="M652 344q0 -103 -40 -180t-113 -117q-41 -23 -94.5 -35t-128.5 -12h-176q-18 0 -18 18v283q0 12 -10 12h-44q-19 0 -19 16v38q0 17 19 17h44q10 0 10 12v266q0 18 18 18h196q88 0 150 -18.5t103 -56.5q51 -48 77 -114.5t26 -146.5zM549 344q0 78 -21.5 129t-59 81
t-87 41.5t-105.5 11.5h-85q-10 0 -10 -12v-199q0 -12 9 -12h86q19 0 19 -17v-38q0 -16 -19 -16h-86q-7 0 -9 -10v-219q0 -11 12 -11h79q43 0 91.5 8.5t90 37t68.5 82t27 143.5z" />
    <glyph glyph-name="Ntilde" unicode="&#xd1;" horiz-adv-x="690" 
d="M608 18q0 -18 -18 -18h-64q-7 0 -12 1.5t-10.5 6t-11.5 14t-16 25.5l-302 503q-4 8 -9 8q-4 0 -4 -10v-530q0 -18 -16 -18h-47q-16 0 -16 18v644q0 18 18 18h87q10 0 15.5 -3t11.5 -13l301 -504q5 -8 9 -8t4 10v500q0 18 16 18h49q6 0 10.5 -4.5t4.5 -13.5v-644zM322 761
q-12 6 -20 8t-16 2q-17 0 -29 -16l-7 -10q-5 -7 -8 -9t-7 -2q-3 0 -7.5 1.5t-14.5 8.5q-5 4 -6.5 6.5t-1.5 6.5q0 5 2 11t7 15q19 34 37.5 44t38.5 10q19 0 45 -12l29 -15q12 -6 20 -8t16 -2q17 0 29 16l7 10q5 7 8 9t7 2q3 0 7.5 -1.5t14.5 -8.5q5 -4 6.5 -6.5t1.5 -6.5
q0 -5 -2 -11t-7 -15q-10 -17 -19 -27.5t-18.5 -16.5t-19 -8t-19.5 -2q-20 0 -45 12z" />
    <glyph glyph-name="Ograve" unicode="&#xd2;" horiz-adv-x="741" 
d="M692 342q0 -76 -19.5 -140t-59.5 -110.5t-100.5 -73t-142.5 -26.5q-79 0 -139 25t-100.5 70.5t-61 109.5t-20.5 142q0 76 19.5 140t59 110.5t100 73t142.5 26.5q79 0 139 -25t100.5 -70.5t61.5 -109.5t21 -142zM588 340q0 136 -56.5 206t-161.5 70q-49 0 -89 -18
t-68.5 -52.5t-44 -86t-15.5 -118.5q0 -64 14 -115t41 -87t67.5 -55.5t94.5 -19.5q52 0 92.5 19.5t68.5 55.5t42.5 87t14.5 114zM477 748q0 -4 -2 -9.5t-13 -21.5q-6 -9 -13 -9q-6 0 -16 5l-154 73q-20 10 -20 24q0 9 10 25l11 18q7 11 11.5 14t12.5 3q11 0 33 -15l130 -93
q10 -7 10 -14z" />
    <glyph glyph-name="Oacute" unicode="&#xd3;" horiz-adv-x="741" 
d="M692 342q0 -76 -19.5 -140t-59.5 -110.5t-100.5 -73t-142.5 -26.5q-79 0 -139 25t-100.5 70.5t-61 109.5t-20.5 142q0 76 19.5 140t59 110.5t100 73t142.5 26.5q79 0 139 -25t100.5 -70.5t61.5 -109.5t21 -142zM588 340q0 136 -56.5 206t-161.5 70q-49 0 -89 -18
t-68.5 -52.5t-44 -86t-15.5 -118.5q0 -64 14 -115t41 -87t67.5 -55.5t94.5 -19.5q52 0 92.5 19.5t68.5 55.5t42.5 87t14.5 114zM260 748q0 7 10 14l130 93q22 15 33 15q8 0 12.5 -3t11.5 -14l11 -18q10 -16 10 -25q0 -14 -20 -24l-154 -73q-10 -5 -16 -5q-7 0 -13 9
q-11 16 -13 21.5t-2 9.5z" />
    <glyph glyph-name="Ocircumflex" unicode="&#xd4;" horiz-adv-x="741" 
d="M692 342q0 -76 -19.5 -140t-59.5 -110.5t-100.5 -73t-142.5 -26.5q-79 0 -139 25t-100.5 70.5t-61 109.5t-20.5 142q0 76 19.5 140t59 110.5t100 73t142.5 26.5q79 0 139 -25t100.5 -70.5t61.5 -109.5t21 -142zM588 340q0 136 -56.5 206t-161.5 70q-49 0 -89 -18
t-68.5 -52.5t-44 -86t-15.5 -118.5q0 -64 14 -115t41 -87t67.5 -55.5t94.5 -19.5q52 0 92.5 19.5t68.5 55.5t42.5 87t14.5 114zM530 745q0 -2 -0.5 -4.5t-3.5 -7.5l-10 -16q-5 -8 -12 -8q-3 0 -7.5 1t-9.5 4l-103 61q-8 5 -14 5t-14 -5l-103 -61q-5 -3 -9.5 -4t-7.5 -1
q-7 0 -12 8l-10 16q-3 5 -3.5 7.5t-0.5 4.5q0 6 10 15l121 97q11 9 16 11.5t13 2.5t13 -2.5t16 -11.5l121 -97q10 -9 10 -15z" />
    <glyph glyph-name="Otilde" unicode="&#xd5;" horiz-adv-x="741" 
d="M692 342q0 -76 -19.5 -140t-59.5 -110.5t-100.5 -73t-142.5 -26.5q-79 0 -139 25t-100.5 70.5t-61 109.5t-20.5 142q0 76 19.5 140t59 110.5t100 73t142.5 26.5q79 0 139 -25t100.5 -70.5t61.5 -109.5t21 -142zM588 340q0 136 -56.5 206t-161.5 70q-49 0 -89 -18
t-68.5 -52.5t-44 -86t-15.5 -118.5q0 -64 14 -115t41 -87t67.5 -55.5t94.5 -19.5q52 0 92.5 19.5t68.5 55.5t42.5 87t14.5 114zM349 761q-12 6 -20 8t-16 2q-17 0 -29 -16l-7 -10q-5 -7 -8 -9t-7 -2q-3 0 -7.5 1.5t-14.5 8.5q-5 4 -6.5 6.5t-1.5 6.5q0 5 2 11t7 15
q19 34 37.5 44t38.5 10q19 0 45 -12l29 -15q12 -6 20 -8t16 -2q17 0 29 16l7 10q5 7 8 9t7 2q3 0 7.5 -1.5t14.5 -8.5q5 -4 6.5 -6.5t1.5 -6.5q0 -5 -2 -11t-7 -15q-10 -17 -19 -27.5t-18.5 -16.5t-19 -8t-19.5 -2q-20 0 -45 12z" />
    <glyph glyph-name="Odieresis" unicode="&#xd6;" horiz-adv-x="741" 
d="M692 342q0 -76 -19.5 -140t-59.5 -110.5t-100.5 -73t-142.5 -26.5q-79 0 -139 25t-100.5 70.5t-61 109.5t-20.5 142q0 76 19.5 140t59 110.5t100 73t142.5 26.5q79 0 139 -25t100.5 -70.5t61.5 -109.5t21 -142zM588 340q0 136 -56.5 206t-161.5 70q-49 0 -89 -18
t-68.5 -52.5t-44 -86t-15.5 -118.5q0 -64 14 -115t41 -87t67.5 -55.5t94.5 -19.5q52 0 92.5 19.5t68.5 55.5t42.5 87t14.5 114zM333 782q0 -27 -14 -38t-39 -11t-39 11t-14 38t14 38.5t39 11.5t39 -11.5t14 -38.5zM513 782q0 -27 -14 -38t-39 -11t-39 11t-14 38t14 38.5
t39 11.5t39 -11.5t14 -38.5z" />
    <glyph glyph-name="multiply" unicode="&#xd7;" 
d="M490 129q-9 -9 -16 -9q-6 0 -15 9l-142 141q-5 5 -10 5q-4 0 -7 -4l-143 -142q-8 -9 -15 -9t-14 7l-26 26q-7 7 -7 14q0 8 8 16l142 142q4 4 4 8t-5 11l-140 139q-9 11 -9 16q0 7 9 16l23 23q8 8 15 8q8 0 17 -9l139 -139q5 -5 10 -5t9 4l141 141q9 9 16 9q6 0 14 -8
l26 -26q7 -7 7 -13q0 -9 -9 -16l-140 -141q-5 -5 -5 -9t5 -9l141 -142q8 -7 8 -15t-8 -16z" />
    <glyph glyph-name="Oslash" unicode="&#xd8;" horiz-adv-x="741" 
d="M692 342q0 -76 -19.5 -140t-59.5 -110.5t-100.5 -73t-142.5 -26.5q-39 0 -66 4.5t-45 10t-28 10t-16 4.5q-5 0 -11 -9l-19 -31q-7 -13 -18 -13q-7 0 -11 3l-19 11q-8 5 -8 12q0 6 7 18l18 30q5 8 5 15q0 4 -17 18.5t-38 46.5t-38 84.5t-17 132.5q0 76 19.5 140t59 110.5
t100 73t142.5 26.5q39 0 65.5 -4.5t44.5 -10.5t28.5 -10.5t16.5 -4.5q7 0 12 9l19 32q7 12 16 12q6 0 12 -3l18 -10q10 -6 10 -14q0 -6 -7 -17l-18 -29q-6 -9 -6 -15q0 -4 17.5 -18.5t38 -46.5t38 -84.5t17.5 -132.5zM590 340q0 48 -7.5 85.5t-17.5 63.5t-20 39.5t-14 13.5
t-11 -12l-256 -419q-2 -5 -3.5 -7.5t-1.5 -5.5q0 -7 10.5 -13t26.5 -11t36 -8t38 -3q67 0 109.5 26.5t67 67.5t34 89.5t9.5 93.5zM481 584q0 4 -8.5 10t-23.5 11t-35.5 8.5t-43.5 3.5q-66 0 -108.5 -26.5t-67 -67t-34 -89.5t-9.5 -93q0 -48 7.5 -86t17.5 -63.5t19.5 -39
t13.5 -13.5t11 11l256 419q5 8 5 15z" />
    <glyph glyph-name="Ugrave" unicode="&#xd9;" horiz-adv-x="670" 
d="M506 662q0 18 17 18h49q18 0 18 -18v-426q0 -128 -61.5 -190t-196.5 -62q-71 0 -119 16.5t-77.5 48t-42.5 75.5t-13 100v438q0 18 17 18h64q18 0 18 -18v-428q0 -91 37 -133.5t126 -42.5q82 0 123 41t41 137v426zM450 748q0 -4 -2 -9.5t-13 -21.5q-6 -9 -13 -9
q-6 0 -16 5l-154 73q-20 10 -20 24q0 9 10 25l11 18q7 11 11.5 14t12.5 3q11 0 33 -15l130 -93q10 -7 10 -14z" />
    <glyph glyph-name="Uacute" unicode="&#xda;" horiz-adv-x="670" 
d="M506 662q0 18 17 18h49q18 0 18 -18v-426q0 -128 -61.5 -190t-196.5 -62q-71 0 -119 16.5t-77.5 48t-42.5 75.5t-13 100v438q0 18 17 18h64q18 0 18 -18v-428q0 -91 37 -133.5t126 -42.5q82 0 123 41t41 137v426zM234 748q0 7 10 14l130 93q22 15 33 15q8 0 12.5 -3
t11.5 -14l11 -18q10 -16 10 -25q0 -14 -20 -24l-154 -73q-10 -5 -16 -5q-7 0 -13 9q-11 16 -13 21.5t-2 9.5z" />
    <glyph glyph-name="Ucircumflex" unicode="&#xdb;" horiz-adv-x="670" 
d="M506 662q0 18 17 18h49q18 0 18 -18v-426q0 -128 -61.5 -190t-196.5 -62q-71 0 -119 16.5t-77.5 48t-42.5 75.5t-13 100v438q0 18 17 18h64q18 0 18 -18v-428q0 -91 37 -133.5t126 -42.5q82 0 123 41t41 137v426zM502 745q0 -2 -0.5 -4.5t-3.5 -7.5l-10 -16q-5 -8 -12 -8
q-3 0 -7.5 1t-9.5 4l-103 61q-8 5 -14 5t-14 -5l-103 -61q-5 -3 -9.5 -4t-7.5 -1q-7 0 -12 8l-10 16q-3 5 -3.5 7.5t-0.5 4.5q0 6 10 15l121 97q11 9 16 11.5t13 2.5t13 -2.5t16 -11.5l121 -97q10 -9 10 -15z" />
    <glyph glyph-name="Udieresis" unicode="&#xdc;" horiz-adv-x="670" 
d="M506 662q0 18 17 18h49q18 0 18 -18v-426q0 -128 -61.5 -190t-196.5 -62q-71 0 -119 16.5t-77.5 48t-42.5 75.5t-13 100v438q0 18 17 18h64q18 0 18 -18v-428q0 -91 37 -133.5t126 -42.5q82 0 123 41t41 137v426zM306 782q0 -27 -14 -38t-39 -11t-39 11t-14 38t14 38.5
t39 11.5t39 -11.5t14 -38.5zM486 782q0 -27 -14 -38t-39 -11t-39 11t-14 38t14 38.5t39 11.5t39 -11.5t14 -38.5z" />
    <glyph glyph-name="Yacute" unicode="&#xdd;" horiz-adv-x="545" 
d="M541 670q0 -9 -7 -20l-195 -345q-7 -13 -9 -21t-2 -28v-238q0 -18 -17 -18h-66q-16 0 -16 18v225q0 20 -2.5 28.5t-11.5 25.5l-203 352q-5 8 -6.5 12t-1.5 8q0 5 4.5 8t10.5 3h72q9 0 13.5 -3.5t9.5 -11.5l159 -289q5 -10 12 -10q5 0 11 10l157 289q5 9 10 12t14 3h50
q14 0 14 -10zM195 748q0 7 10 14l130 93q22 15 33 15q8 0 12.5 -3t11.5 -14l11 -18q10 -16 10 -25q0 -14 -20 -24l-154 -73q-10 -5 -16 -5q-7 0 -13 9q-11 16 -13 21.5t-2 9.5z" />
    <glyph glyph-name="Thorn" unicode="&#xde;" horiz-adv-x="546" 
d="M514 391q0 -60 -24.5 -107t-71.5 -73q-30 -17 -68.5 -24t-97.5 -7h-60q-11 0 -11 -13v-149q0 -18 -18 -18h-64q-17 0 -17 18v644q0 18 17 18h64q18 0 18 -18v-65q0 -13 11 -13h70q36 0 63 -2t47.5 -6t36 -10.5t29.5 -15.5q37 -26 56.5 -67t19.5 -92zM410 385
q0 66 -35 98.5t-113 32.5h-71q-10 0 -10 -12v-244q0 -12 11 -12h68q78 0 114 34t36 103z" />
    <glyph glyph-name="germandbls" unicode="&#xdf;" horiz-adv-x="594" 
d="M556 144q0 -72 -46.5 -112t-132.5 -40q-33 0 -64.5 5.5t-56.5 17.5q-11 5 -14.5 11t-3.5 15v44q0 19 15 19q8 0 17 -6.5t22 -14t32 -13.5t46 -6q48 0 70 18t22 50q0 23 -11.5 39t-40.5 34l-63 41q-26 17 -44 32t-29 30.5t-16 33.5t-5 41q0 42 20.5 69.5t65.5 52.5
q40 22 53 40.5t13 41.5q0 34 -25.5 50.5t-86.5 16.5q-67 0 -95 -34t-28 -109v-493q0 -18 -18 -18h-58q-18 0 -18 18v491q0 59 15.5 100.5t44 67t69 37t91.5 11.5q100 0 154 -34t54 -95q0 -22 -5 -40.5t-18 -35.5t-35 -33t-55 -34q-26 -14 -37.5 -28t-11.5 -32q0 -11 2 -19
t8.5 -16t19 -17t32.5 -22l60 -38q54 -33 73 -65t19 -72z" />
    <glyph glyph-name="agrave" unicode="&#xe0;" horiz-adv-x="527" 
d="M451 18q0 -18 -17 -18h-57q-14 0 -14 13q0 7 -10 7q-9 0 -20.5 -4.5t-27.5 -9.5t-38 -9.5t-51 -4.5q-51 0 -84 12t-52 32t-26.5 45t-7.5 52q0 62 36.5 98.5t124.5 62.5l119 36q17 5 23.5 12t6.5 20v23q0 32 -22 47t-73 15q-41 0 -69 -6.5t-47 -15t-30.5 -15t-19.5 -6.5
q-13 0 -13 16v42q0 9 4 15.5t18 12.5q34 14 74.5 21.5t91.5 7.5q100 0 142 -38q23 -20 31 -48t8 -77v-338zM356 257q0 10 -8 10q-6 0 -17 -4l-107 -36q-39 -13 -58.5 -32.5t-19.5 -55.5q0 -22 7.5 -36.5t20 -23.5t29.5 -12.5t36 -3.5q54 0 85.5 16t31.5 40v138zM373 596
q0 -4 -2 -9.5t-13 -21.5q-6 -9 -13 -9q-6 0 -16 5l-154 73q-20 10 -20 24q0 9 10 25l11 18q7 11 11.5 14t12.5 3q11 0 33 -15l130 -93q10 -7 10 -14z" />
    <glyph glyph-name="aacute" unicode="&#xe1;" horiz-adv-x="527" 
d="M451 18q0 -18 -17 -18h-57q-14 0 -14 13q0 7 -10 7q-9 0 -20.5 -4.5t-27.5 -9.5t-38 -9.5t-51 -4.5q-51 0 -84 12t-52 32t-26.5 45t-7.5 52q0 62 36.5 98.5t124.5 62.5l119 36q17 5 23.5 12t6.5 20v23q0 32 -22 47t-73 15q-41 0 -69 -6.5t-47 -15t-30.5 -15t-19.5 -6.5
q-13 0 -13 16v42q0 9 4 15.5t18 12.5q34 14 74.5 21.5t91.5 7.5q100 0 142 -38q23 -20 31 -48t8 -77v-338zM356 257q0 10 -8 10q-6 0 -17 -4l-107 -36q-39 -13 -58.5 -32.5t-19.5 -55.5q0 -22 7.5 -36.5t20 -23.5t29.5 -12.5t36 -3.5q54 0 85.5 16t31.5 40v138zM150 596
q0 7 10 14l130 93q22 15 33 15q8 0 12.5 -3t11.5 -14l11 -18q10 -16 10 -25q0 -14 -20 -24l-154 -73q-10 -5 -16 -5q-7 0 -13 9q-11 16 -13 21.5t-2 9.5z" />
    <glyph glyph-name="acircumflex" unicode="&#xe2;" horiz-adv-x="527" 
d="M451 18q0 -18 -17 -18h-57q-14 0 -14 13q0 7 -10 7q-9 0 -20.5 -4.5t-27.5 -9.5t-38 -9.5t-51 -4.5q-51 0 -84 12t-52 32t-26.5 45t-7.5 52q0 62 36.5 98.5t124.5 62.5l119 36q17 5 23.5 12t6.5 20v23q0 32 -22 47t-73 15q-41 0 -69 -6.5t-47 -15t-30.5 -15t-19.5 -6.5
q-13 0 -13 16v42q0 9 4 15.5t18 12.5q34 14 74.5 21.5t91.5 7.5q100 0 142 -38q23 -20 31 -48t8 -77v-338zM356 257q0 10 -8 10q-6 0 -17 -4l-107 -36q-39 -13 -58.5 -32.5t-19.5 -55.5q0 -22 7.5 -36.5t20 -23.5t29.5 -12.5t36 -3.5q54 0 85.5 16t31.5 40v138zM422 593
q0 -2 -0.5 -4.5t-3.5 -7.5l-10 -16q-5 -8 -12 -8q-3 0 -7.5 1t-9.5 4l-103 61q-8 5 -14 5t-14 -5l-103 -61q-5 -3 -9.5 -4t-7.5 -1q-7 0 -12 8l-10 16q-3 5 -3.5 7.5t-0.5 4.5q0 6 10 15l121 97q11 9 16 11.5t13 2.5t13 -2.5t16 -11.5l121 -97q10 -9 10 -15z" />
    <glyph glyph-name="atilde" unicode="&#xe3;" horiz-adv-x="527" 
d="M451 18q0 -18 -17 -18h-57q-14 0 -14 13q0 7 -10 7q-9 0 -20.5 -4.5t-27.5 -9.5t-38 -9.5t-51 -4.5q-51 0 -84 12t-52 32t-26.5 45t-7.5 52q0 62 36.5 98.5t124.5 62.5l119 36q17 5 23.5 12t6.5 20v23q0 32 -22 47t-73 15q-41 0 -69 -6.5t-47 -15t-30.5 -15t-19.5 -6.5
q-13 0 -13 16v42q0 9 4 15.5t18 12.5q34 14 74.5 21.5t91.5 7.5q100 0 142 -38q23 -20 31 -48t8 -77v-338zM356 257q0 10 -8 10q-6 0 -17 -4l-107 -36q-39 -13 -58.5 -32.5t-19.5 -55.5q0 -22 7.5 -36.5t20 -23.5t29.5 -12.5t36 -3.5q54 0 85.5 16t31.5 40v138zM245 609
q-12 6 -20 8t-16 2q-17 0 -29 -16l-7 -10q-5 -7 -8 -9t-7 -2q-3 0 -7.5 1.5t-14.5 8.5q-5 4 -6.5 6.5t-1.5 6.5q0 5 2 11t7 15q19 34 37.5 44t38.5 10q19 0 45 -12l29 -15q12 -6 20 -8t16 -2q17 0 29 16l7 10q5 7 8 9t7 2q3 0 7.5 -1.5t14.5 -8.5q5 -4 6.5 -6.5t1.5 -6.5
q0 -5 -2 -11t-7 -15q-10 -17 -19 -27.5t-18.5 -16.5t-19 -8t-19.5 -2q-20 0 -45 12z" />
    <glyph glyph-name="adieresis" unicode="&#xe4;" horiz-adv-x="527" 
d="M451 18q0 -18 -17 -18h-57q-14 0 -14 13q0 7 -10 7q-9 0 -20.5 -4.5t-27.5 -9.5t-38 -9.5t-51 -4.5q-51 0 -84 12t-52 32t-26.5 45t-7.5 52q0 62 36.5 98.5t124.5 62.5l119 36q17 5 23.5 12t6.5 20v23q0 32 -22 47t-73 15q-41 0 -69 -6.5t-47 -15t-30.5 -15t-19.5 -6.5
q-13 0 -13 16v42q0 9 4 15.5t18 12.5q34 14 74.5 21.5t91.5 7.5q100 0 142 -38q23 -20 31 -48t8 -77v-338zM356 257q0 10 -8 10q-6 0 -17 -4l-107 -36q-39 -13 -58.5 -32.5t-19.5 -55.5q0 -22 7.5 -36.5t20 -23.5t29.5 -12.5t36 -3.5q54 0 85.5 16t31.5 40v138zM226 630
q0 -27 -14 -38t-39 -11t-39 11t-14 38t14 38.5t39 11.5t39 -11.5t14 -38.5zM406 630q0 -27 -14 -38t-39 -11t-39 11t-14 38t14 38.5t39 11.5t39 -11.5t14 -38.5z" />
    <glyph glyph-name="aring" unicode="&#xe5;" horiz-adv-x="527" 
d="M451 18q0 -18 -17 -18h-57q-14 0 -14 13q0 7 -10 7q-9 0 -20.5 -4.5t-27.5 -9.5t-38 -9.5t-51 -4.5q-51 0 -84 12t-52 32t-26.5 45t-7.5 52q0 62 36.5 98.5t124.5 62.5l119 36q17 5 23.5 12t6.5 20v23q0 32 -22 47t-73 15q-41 0 -69 -6.5t-47 -15t-30.5 -15t-19.5 -6.5
q-13 0 -13 16v42q0 9 4 15.5t18 12.5q34 14 74.5 21.5t91.5 7.5q100 0 142 -38q23 -20 31 -48t8 -77v-338zM356 257q0 10 -8 10q-6 0 -17 -4l-107 -36q-39 -13 -58.5 -32.5t-19.5 -55.5q0 -22 7.5 -36.5t20 -23.5t29.5 -12.5t36 -3.5q54 0 85.5 16t31.5 40v138zM347 640
q0 -77 -79 -77q-80 0 -80 73q0 36 20 55t58 19t59.5 -18t21.5 -52zM304 634q0 20 -8 30t-28 10q-38 0 -38 -38q0 -37 36 -37q38 0 38 35z" />
    <glyph glyph-name="ae" unicode="&#xe6;" horiz-adv-x="850" 
d="M804 263q0 -18 -19 -18h-321q-15 0 -15 -15q0 -80 43.5 -123.5t122.5 -43.5q32 0 56.5 6t42 12.5t29 12.5t17.5 6q14 0 14 -16v-39q0 -19 -21 -29q-22 -11 -62 -17.5t-87 -6.5q-45 0 -77.5 9.5t-54.5 21.5t-34.5 21.5t-18.5 9.5q-9 0 -22.5 -9.5t-36 -21.5t-56.5 -21.5
t-83 -9.5q-53 0 -87 12t-53 32t-26 45t-7 52q0 34 10 58.5t30.5 43.5t50.5 33t70 26l119 36q18 5 24 12.5t6 19.5v24q0 29 -22 45t-73 16q-42 0 -70 -6.5t-46.5 -15t-30 -15t-19.5 -6.5q-13 0 -13 16v42q0 11 6 18t25 14q33 12 69.5 18.5t87.5 6.5q47 0 75 -8.5t44.5 -18
t24 -18t13.5 -8.5t16.5 8.5t28.5 18t45.5 18t68.5 8.5q54 0 94.5 -17.5t67.5 -48.5t40.5 -73.5t13.5 -91.5v-25zM705 326q0 54 -31.5 89t-92.5 35q-30 0 -54.5 -10t-41.5 -27.5t-26.5 -40.5t-9.5 -49q0 -5 2 -7.5t10 -2.5h232q7 0 9.5 2.5t2.5 10.5zM358 257q0 10 -7 10
q-6 0 -17 -4l-112 -37q-38 -13 -56 -32.5t-18 -54.5q0 -22 7.5 -36.5t20 -23.5t29.5 -12.5t37 -3.5q58 0 87 17t29 40v137z" />
    <glyph glyph-name="ccedilla" unicode="&#xe7;" horiz-adv-x="509" 
d="M364 -104q0 -37 -27.5 -58t-75.5 -21q-19 0 -29.5 3.5t-10.5 14.5v14q0 15 21 15q29 0 42.5 7t13.5 30q0 25 -26 32q-15 3 -15 17v38q0 6 -4 7q-105 13 -156 81.5t-51 173.5q0 59 15.5 108.5t48.5 85t83.5 55.5t120.5 20q20 0 40.5 -2.5t38.5 -6t31.5 -8.5t21.5 -9
q10 -6 12.5 -11.5t2.5 -14.5v-41q0 -16 -14 -16q-9 0 -18.5 6t-24.5 12.5t-36.5 12.5t-52.5 6q-45 0 -77 -15.5t-52.5 -41.5t-30 -61.5t-9.5 -75.5q0 -92 42 -140.5t120 -48.5q31 0 54 6t39.5 12.5t27.5 12.5t18 6q14 0 14 -16v-40q0 -11 -4 -16.5t-11 -9.5
q-20 -11 -54.5 -19t-75.5 -8q-6 0 -6 -8v-5q0 -11 19 -18q12 -5 23.5 -19t11.5 -46z" />
    <glyph glyph-name="egrave" unicode="&#xe8;" horiz-adv-x="547" 
d="M501 263q0 -18 -18 -18h-322q-15 0 -15 -14q0 -77 43 -122.5t125 -45.5q32 0 57 6t43 12.5t29.5 12.5t17.5 6q14 0 14 -16v-35q0 -10 -1.5 -15.5t-9.5 -11.5q-9 -7 -26.5 -12.5t-39.5 -9.5t-46.5 -6t-47.5 -2q-130 0 -194 68t-64 190q0 63 17 112.5t48 84.5t74.5 53.5
t97.5 18.5q103 0 160.5 -60.5t57.5 -172.5v-23zM402 326q0 59 -34 91.5t-91 32.5q-32 0 -56.5 -10.5t-41 -28.5t-25 -41t-8.5 -47q0 -5 2 -7.5t10 -2.5h232q7 0 9.5 2.5t2.5 10.5zM396 596q0 -4 -2 -9.5t-13 -21.5q-6 -9 -13 -9q-6 0 -16 5l-154 73q-20 10 -20 24q0 9 10 25
l11 18q7 11 11.5 14t12.5 3q11 0 33 -15l130 -93q10 -7 10 -14z" />
    <glyph glyph-name="eacute" unicode="&#xe9;" horiz-adv-x="547" 
d="M501 263q0 -18 -18 -18h-322q-15 0 -15 -14q0 -77 43 -122.5t125 -45.5q32 0 57 6t43 12.5t29.5 12.5t17.5 6q14 0 14 -16v-35q0 -10 -1.5 -15.5t-9.5 -11.5q-9 -7 -26.5 -12.5t-39.5 -9.5t-46.5 -6t-47.5 -2q-130 0 -194 68t-64 190q0 63 17 112.5t48 84.5t74.5 53.5
t97.5 18.5q103 0 160.5 -60.5t57.5 -172.5v-23zM402 326q0 59 -34 91.5t-91 32.5q-32 0 -56.5 -10.5t-41 -28.5t-25 -41t-8.5 -47q0 -5 2 -7.5t10 -2.5h232q7 0 9.5 2.5t2.5 10.5zM168 596q0 7 10 14l130 93q22 15 33 15q8 0 12.5 -3t11.5 -14l11 -18q10 -16 10 -25
q0 -14 -20 -24l-154 -73q-10 -5 -16 -5q-7 0 -13 9q-11 16 -13 21.5t-2 9.5z" />
    <glyph glyph-name="ecircumflex" unicode="&#xea;" horiz-adv-x="547" 
d="M501 263q0 -18 -18 -18h-322q-15 0 -15 -14q0 -77 43 -122.5t125 -45.5q32 0 57 6t43 12.5t29.5 12.5t17.5 6q14 0 14 -16v-35q0 -10 -1.5 -15.5t-9.5 -11.5q-9 -7 -26.5 -12.5t-39.5 -9.5t-46.5 -6t-47.5 -2q-130 0 -194 68t-64 190q0 63 17 112.5t48 84.5t74.5 53.5
t97.5 18.5q103 0 160.5 -60.5t57.5 -172.5v-23zM402 326q0 59 -34 91.5t-91 32.5q-32 0 -56.5 -10.5t-41 -28.5t-25 -41t-8.5 -47q0 -5 2 -7.5t10 -2.5h232q7 0 9.5 2.5t2.5 10.5zM438 593q0 -2 -0.5 -4.5t-3.5 -7.5l-10 -16q-5 -8 -12 -8q-3 0 -7.5 1t-9.5 4l-103 61
q-8 5 -14 5t-14 -5l-103 -61q-5 -3 -9.5 -4t-7.5 -1q-7 0 -12 8l-10 16q-3 5 -3.5 7.5t-0.5 4.5q0 6 10 15l121 97q11 9 16 11.5t13 2.5t13 -2.5t16 -11.5l121 -97q10 -9 10 -15z" />
    <glyph glyph-name="edieresis" unicode="&#xeb;" horiz-adv-x="547" 
d="M501 263q0 -18 -18 -18h-322q-15 0 -15 -14q0 -77 43 -122.5t125 -45.5q32 0 57 6t43 12.5t29.5 12.5t17.5 6q14 0 14 -16v-35q0 -10 -1.5 -15.5t-9.5 -11.5q-9 -7 -26.5 -12.5t-39.5 -9.5t-46.5 -6t-47.5 -2q-130 0 -194 68t-64 190q0 63 17 112.5t48 84.5t74.5 53.5
t97.5 18.5q103 0 160.5 -60.5t57.5 -172.5v-23zM402 326q0 59 -34 91.5t-91 32.5q-32 0 -56.5 -10.5t-41 -28.5t-25 -41t-8.5 -47q0 -5 2 -7.5t10 -2.5h232q7 0 9.5 2.5t2.5 10.5zM241 630q0 -27 -14 -38t-39 -11t-39 11t-14 38t14 38.5t39 11.5t39 -11.5t14 -38.5zM421 630
q0 -27 -14 -38t-39 -11t-39 11t-14 38t14 38.5t39 11.5t39 -11.5t14 -38.5z" />
    <glyph glyph-name="igrave" unicode="&#xec;" horiz-adv-x="248" 
d="M171 18q0 -18 -17 -18h-59q-18 0 -18 18v475q0 18 17 18h60q17 0 17 -18v-475zM235 596q0 -4 -2 -9.5t-13 -21.5q-6 -9 -13 -9q-6 0 -16 5l-154 73q-20 10 -20 24q0 9 10 25l11 18q7 11 11.5 14t12.5 3q11 0 33 -15l130 -93q10 -7 10 -14z" />
    <glyph glyph-name="iacute" unicode="&#xed;" horiz-adv-x="248" 
d="M171 18q0 -18 -17 -18h-59q-18 0 -18 18v475q0 18 17 18h60q17 0 17 -18v-475zM17 596q0 7 10 14l130 93q22 15 33 15q8 0 12.5 -3t11.5 -14l11 -18q10 -16 10 -25q0 -14 -20 -24l-154 -73q-10 -5 -16 -5q-7 0 -13 9q-11 16 -13 21.5t-2 9.5z" />
    <glyph glyph-name="icircumflex" unicode="&#xee;" horiz-adv-x="248" 
d="M171 18q0 -18 -17 -18h-59q-18 0 -18 18v475q0 18 17 18h60q17 0 17 -18v-475zM288 593q0 -2 -0.5 -4.5t-3.5 -7.5l-10 -16q-5 -8 -12 -8q-3 0 -7.5 1t-9.5 4l-103 61q-8 5 -14 5t-14 -5l-103 -61q-5 -3 -9.5 -4t-7.5 -1q-7 0 -12 8l-10 16q-3 5 -3.5 7.5t-0.5 4.5
q0 6 10 15l121 97q11 9 16 11.5t13 2.5t13 -2.5t16 -11.5l121 -97q10 -9 10 -15z" />
    <glyph glyph-name="idieresis" unicode="&#xef;" horiz-adv-x="248" 
d="M171 18q0 -18 -17 -18h-59q-18 0 -18 18v475q0 18 17 18h60q17 0 17 -18v-475zM91 630q0 -27 -14 -38t-39 -11t-39 11t-14 38t14 38.5t39 11.5t39 -11.5t14 -38.5zM271 630q0 -27 -14 -38t-39 -11t-39 11t-14 38t14 38.5t39 11.5t39 -11.5t14 -38.5z" />
    <glyph glyph-name="eth" unicode="&#xf0;" horiz-adv-x="578" 
d="M530 350q0 -102 -17 -171t-49.5 -110.5t-79 -59t-105.5 -17.5q-62 0 -106 20.5t-72.5 55.5t-41.5 83t-13 104q0 58 15 107t44.5 83.5t71.5 54t96 19.5q46 0 74 -10t44 -21.5t22.5 -21.5t8.5 -10q4 0 4 8q0 20 -8.5 44.5t-20.5 45.5t-23.5 35.5t-17.5 14.5q-3 0 -6.5 -1.5
t-11.5 -6.5l-49 -32q-11 -7 -18 -7q-10 0 -16 10l-13 19q-4 7 -4 12q0 10 14 18l29 18q10 7 10 11q0 6 -19 12t-60 6q-35 0 -57 -7t-31 -7q-13 0 -13 16v34q0 14 27.5 22.5t84.5 8.5q36 0 62.5 -5t44.5 -10.5t28.5 -10.5t15.5 -5q6 0 14 6l65 43q10 7 17 7q10 0 16 -9
q8 -11 12.5 -19t4.5 -13q0 -8 -13 -17l-46 -31q-8 -5 -8 -10t14.5 -20.5t32.5 -50t32.5 -91.5t14.5 -144zM432 262q0 35 -6.5 69t-23 61t-44 43.5t-69.5 16.5q-44 0 -72 -17t-44 -44.5t-21.5 -63.5t-5.5 -74t5.5 -72.5t21.5 -60.5t44 -42t73 -16t73 17t43 45t20.5 64t5.5 74
z" />
    <glyph glyph-name="ntilde" unicode="&#xf1;" horiz-adv-x="571" 
d="M495 18q0 -18 -18 -18h-60q-17 0 -17 18v309q0 21 -4 45t-14 37q-15 20 -40 30t-55 10q-21 0 -41.5 -3t-37.5 -10.5t-27.5 -19.5t-10.5 -29v-369q0 -18 -17 -18h-60q-17 0 -17 18v475q0 18 18 18h55q14 0 14 -13q0 -3 1.5 -5t8.5 -2q12 0 24.5 4.5t28 9.5t36.5 9.5
t51 4.5q44 0 81.5 -12t61.5 -39q25 -28 32 -65t7 -100v-285zM265 609q-12 6 -20 8t-16 2q-17 0 -29 -16l-7 -10q-5 -7 -8 -9t-7 -2q-3 0 -7.5 1.5t-14.5 8.5q-5 4 -6.5 6.5t-1.5 6.5q0 5 2 11t7 15q19 34 37.5 44t38.5 10q19 0 45 -12l29 -15q12 -6 20 -8t16 -2q17 0 29 16
l7 10q5 7 8 9t7 2q3 0 7.5 -1.5t14.5 -8.5q5 -4 6.5 -6.5t1.5 -6.5q0 -5 -2 -11t-7 -15q-10 -17 -19 -27.5t-18.5 -16.5t-19 -8t-19.5 -2q-20 0 -45 12z" />
    <glyph glyph-name="ograve" unicode="&#xf2;" horiz-adv-x="583" 
d="M537 257q0 -57 -15 -106t-45.5 -84t-77 -55t-108.5 -20q-60 0 -106 18.5t-76.5 53t-46.5 83t-16 107.5q0 57 15 106t45.5 84t76.5 55t109 20q60 0 106 -18.5t76.5 -53t46.5 -83t16 -107.5zM437 259q0 101 -37 145.5t-109 44.5t-108.5 -45.5t-36.5 -151.5
q0 -101 37 -145.5t109 -44.5q71 0 108 45.5t37 151.5zM393 596q0 -4 -2 -9.5t-13 -21.5q-6 -9 -13 -9q-6 0 -16 5l-154 73q-20 10 -20 24q0 9 10 25l11 18q7 11 11.5 14t12.5 3q11 0 33 -15l130 -93q10 -7 10 -14z" />
    <glyph glyph-name="oacute" unicode="&#xf3;" horiz-adv-x="583" 
d="M537 257q0 -57 -15 -106t-45.5 -84t-77 -55t-108.5 -20q-60 0 -106 18.5t-76.5 53t-46.5 83t-16 107.5q0 57 15 106t45.5 84t76.5 55t109 20q60 0 106 -18.5t76.5 -53t46.5 -83t16 -107.5zM437 259q0 101 -37 145.5t-109 44.5t-108.5 -45.5t-36.5 -151.5
q0 -101 37 -145.5t109 -44.5q71 0 108 45.5t37 151.5zM176 596q0 7 10 14l130 93q22 15 33 15q8 0 12.5 -3t11.5 -14l11 -18q10 -16 10 -25q0 -14 -20 -24l-154 -73q-10 -5 -16 -5q-7 0 -13 9q-11 16 -13 21.5t-2 9.5z" />
    <glyph glyph-name="ocircumflex" unicode="&#xf4;" horiz-adv-x="583" 
d="M537 257q0 -57 -15 -106t-45.5 -84t-77 -55t-108.5 -20q-60 0 -106 18.5t-76.5 53t-46.5 83t-16 107.5q0 57 15 106t45.5 84t76.5 55t109 20q60 0 106 -18.5t76.5 -53t46.5 -83t16 -107.5zM437 259q0 101 -37 145.5t-109 44.5t-108.5 -45.5t-36.5 -151.5
q0 -101 37 -145.5t109 -44.5q71 0 108 45.5t37 151.5zM449 593q0 -2 -0.5 -4.5t-3.5 -7.5l-10 -16q-5 -8 -12 -8q-3 0 -7.5 1t-9.5 4l-103 61q-8 5 -14 5t-14 -5l-103 -61q-5 -3 -9.5 -4t-7.5 -1q-7 0 -12 8l-10 16q-3 5 -3.5 7.5t-0.5 4.5q0 6 10 15l121 97q11 9 16 11.5
t13 2.5t13 -2.5t16 -11.5l121 -97q10 -9 10 -15z" />
    <glyph glyph-name="otilde" unicode="&#xf5;" horiz-adv-x="583" 
d="M537 257q0 -57 -15 -106t-45.5 -84t-77 -55t-108.5 -20q-60 0 -106 18.5t-76.5 53t-46.5 83t-16 107.5q0 57 15 106t45.5 84t76.5 55t109 20q60 0 106 -18.5t76.5 -53t46.5 -83t16 -107.5zM437 259q0 101 -37 145.5t-109 44.5t-108.5 -45.5t-36.5 -151.5
q0 -101 37 -145.5t109 -44.5q71 0 108 45.5t37 151.5zM269 609q-12 6 -20 8t-16 2q-17 0 -29 -16l-7 -10q-5 -7 -8 -9t-7 -2q-3 0 -7.5 1.5t-14.5 8.5q-5 4 -6.5 6.5t-1.5 6.5q0 5 2 11t7 15q19 34 37.5 44t38.5 10q19 0 45 -12l29 -15q12 -6 20 -8t16 -2q17 0 29 16l7 10
q5 7 8 9t7 2q3 0 7.5 -1.5t14.5 -8.5q5 -4 6.5 -6.5t1.5 -6.5q0 -5 -2 -11t-7 -15q-10 -17 -19 -27.5t-18.5 -16.5t-19 -8t-19.5 -2q-20 0 -45 12z" />
    <glyph glyph-name="odieresis" unicode="&#xf6;" horiz-adv-x="583" 
d="M537 257q0 -57 -15 -106t-45.5 -84t-77 -55t-108.5 -20q-60 0 -106 18.5t-76.5 53t-46.5 83t-16 107.5q0 57 15 106t45.5 84t76.5 55t109 20q60 0 106 -18.5t76.5 -53t46.5 -83t16 -107.5zM437 259q0 101 -37 145.5t-109 44.5t-108.5 -45.5t-36.5 -151.5
q0 -101 37 -145.5t109 -44.5q71 0 108 45.5t37 151.5zM253 630q0 -27 -14 -38t-39 -11t-39 11t-14 38t14 38.5t39 11.5t39 -11.5t14 -38.5zM433 630q0 -27 -14 -38t-39 -11t-39 11t-14 38t14 38.5t39 11.5t39 -11.5t14 -38.5z" />
    <glyph glyph-name="divide" unicode="&#xf7;" 
d="M375 524q0 -30 -19.5 -49t-48.5 -19q-28 0 -48 19t-20 49q0 32 19.5 50t48.5 18t48.5 -18t19.5 -50zM375 144q0 -31 -19.5 -49.5t-48.5 -18.5q-28 0 -48 18.5t-20 49.5q0 30 19.5 49t48.5 19t48.5 -18t19.5 -50zM86 297q-22 0 -22 20v33q0 21 22 21h443q22 0 22 -21v-33
q0 -20 -22 -20h-443z" />
    <glyph glyph-name="oslash" unicode="&#xf8;" horiz-adv-x="583" 
d="M537 257q0 -57 -15 -106t-45.5 -84t-77 -55t-108.5 -20q-29 0 -48 3t-31.5 7t-20 7t-11.5 3q-7 0 -13 -9l-21 -35q-7 -13 -16 -13q-5 0 -12 4l-11 7q-11 7 -11 15q0 5 6 14l22 33q5 7 5 12q0 3 -13 15t-28.5 36.5t-28.5 64t-13 98.5q0 57 15 106t45.5 84t76.5 55t109 20
q27 0 47 -3t33.5 -7t20.5 -7t10 -3q6 0 12 9l22 35q7 13 17 13q2 0 6.5 -1.5t6.5 -3.5l10 -6q9 -5 9 -12q0 -5 -2.5 -9.5t-4.5 -8.5l-20 -32q-5 -8 -5 -13q0 -4 13 -15.5t28.5 -35.5t28.5 -63t13 -99zM439 258q0 25 -3 48.5t-8 42t-10.5 30t-10.5 11.5q-4 0 -6 -3.5t-5 -8.5
l-173 -281q-2 -5 -3.5 -7.5t-1.5 -5.5q0 -10 23 -16.5t51 -6.5q44 0 72.5 15.5t45 42.5t23 63t6.5 76zM364 427q0 8 -19.5 15.5t-53.5 7.5q-45 0 -74 -16.5t-45 -43.5t-22 -62.5t-6 -74.5q0 -29 3.5 -53t8.5 -41.5t10 -27.5t9 -10q5 0 12 12l172 281q2 5 3.5 7.5t1.5 5.5z
" />
    <glyph glyph-name="ugrave" unicode="&#xf9;" horiz-adv-x="568" 
d="M492 18q0 -18 -19 -18h-55q-14 0 -14 13q0 7 -10 7q-12 0 -24.5 -4.5t-28 -9.5t-37 -9.5t-51.5 -4.5q-44 0 -81.5 11.5t-61.5 38.5q-12 14 -19.5 29.5t-11.5 35t-5.5 44t-1.5 56.5v286q0 18 17 18h62q16 0 16 -18v-313q0 -61 26 -89.5t94 -28.5q16 0 35.5 3.5t34.5 9.5
q20 8 30 19t10 34v365q0 18 16 18h62q17 0 17 -18v-475zM386 596q0 -4 -2 -9.5t-13 -21.5q-6 -9 -13 -9q-6 0 -16 5l-154 73q-20 10 -20 24q0 9 10 25l11 18q7 11 11.5 14t12.5 3q11 0 33 -15l130 -93q10 -7 10 -14z" />
    <glyph glyph-name="uacute" unicode="&#xfa;" horiz-adv-x="568" 
d="M492 18q0 -18 -19 -18h-55q-14 0 -14 13q0 7 -10 7q-12 0 -24.5 -4.5t-28 -9.5t-37 -9.5t-51.5 -4.5q-44 0 -81.5 11.5t-61.5 38.5q-12 14 -19.5 29.5t-11.5 35t-5.5 44t-1.5 56.5v286q0 18 17 18h62q16 0 16 -18v-313q0 -61 26 -89.5t94 -28.5q16 0 35.5 3.5t34.5 9.5
q20 8 30 19t10 34v365q0 18 16 18h62q17 0 17 -18v-475zM176 596q0 7 10 14l130 93q22 15 33 15q8 0 12.5 -3t11.5 -14l11 -18q10 -16 10 -25q0 -14 -20 -24l-154 -73q-10 -5 -16 -5q-7 0 -13 9q-11 16 -13 21.5t-2 9.5z" />
    <glyph glyph-name="ucircumflex" unicode="&#xfb;" horiz-adv-x="568" 
d="M492 18q0 -18 -19 -18h-55q-14 0 -14 13q0 7 -10 7q-12 0 -24.5 -4.5t-28 -9.5t-37 -9.5t-51.5 -4.5q-44 0 -81.5 11.5t-61.5 38.5q-12 14 -19.5 29.5t-11.5 35t-5.5 44t-1.5 56.5v286q0 18 17 18h62q16 0 16 -18v-313q0 -61 26 -89.5t94 -28.5q16 0 35.5 3.5t34.5 9.5
q20 8 30 19t10 34v365q0 18 16 18h62q17 0 17 -18v-475zM442 593q0 -2 -0.5 -4.5t-3.5 -7.5l-10 -16q-5 -8 -12 -8q-3 0 -7.5 1t-9.5 4l-103 61q-8 5 -14 5t-14 -5l-103 -61q-5 -3 -9.5 -4t-7.5 -1q-7 0 -12 8l-10 16q-3 5 -3.5 7.5t-0.5 4.5q0 6 10 15l121 97q11 9 16 11.5
t13 2.5t13 -2.5t16 -11.5l121 -97q10 -9 10 -15z" />
    <glyph glyph-name="udieresis" unicode="&#xfc;" horiz-adv-x="568" 
d="M492 18q0 -18 -19 -18h-55q-14 0 -14 13q0 7 -10 7q-12 0 -24.5 -4.5t-28 -9.5t-37 -9.5t-51.5 -4.5q-44 0 -81.5 11.5t-61.5 38.5q-12 14 -19.5 29.5t-11.5 35t-5.5 44t-1.5 56.5v286q0 18 17 18h62q16 0 16 -18v-313q0 -61 26 -89.5t94 -28.5q16 0 35.5 3.5t34.5 9.5
q20 8 30 19t10 34v365q0 18 16 18h62q17 0 17 -18v-475zM245 630q0 -27 -14 -38t-39 -11t-39 11t-14 38t14 38.5t39 11.5t39 -11.5t14 -38.5zM425 630q0 -27 -14 -38t-39 -11t-39 11t-14 38t14 38.5t39 11.5t39 -11.5t14 -38.5z" />
    <glyph glyph-name="yacute" unicode="&#xfd;" horiz-adv-x="472" 
d="M472 498q0 -4 -1 -8.5t-3 -9.5l-223 -595q-9 -24 -19.5 -43.5t-25 -33t-34 -21t-46.5 -7.5q-23 0 -31.5 5t-8.5 12v45q0 14 13 14q5 0 8 -0.5t11 -0.5q17 0 29 10t24 41l23 58q4 10 5 15.5t1 9.5q0 8 -6 23l-178 469q-4 10 -4 17q0 13 18 13h68q8 0 11.5 -3t5.5 -9
l128 -371q4 -13 9 -13t9 13l129 371q2 6 6 9t13 3h52q17 0 17 -13zM157 596q0 7 10 14l130 93q22 15 33 15q8 0 12.5 -3t11.5 -14l11 -18q10 -16 10 -25q0 -14 -20 -24l-154 -73q-10 -5 -16 -5q-7 0 -13 9q-11 16 -13 21.5t-2 9.5z" />
    <glyph glyph-name="thorn" unicode="&#xfe;" horiz-adv-x="587" 
d="M541 262q0 -63 -17 -113.5t-48.5 -85t-76 -53t-100.5 -18.5q-27 0 -47.5 4.5t-35 9.5t-23.5 9.5t-13 4.5q-10 0 -10 -13v-201q0 -18 -17 -18h-60q-17 0 -17 18v890q0 18 17 18h60q17 0 17 -18v-198q0 -10 10 -10q5 0 14.5 5t24.5 10.5t36 10.5t50 5q113 0 174.5 -68.5
t61.5 -188.5zM441 260q0 43 -9 77.5t-29 59t-51.5 38t-76.5 13.5q-17 0 -35.5 -3t-34 -10t-25.5 -19.5t-10 -30.5v-259q0 -18 9.5 -30t24.5 -19.5t33.5 -10.5t37.5 -3q36 0 66.5 11t52.5 34.5t34.5 61t12.5 90.5z" />
    <glyph glyph-name="ydieresis" unicode="&#xff;" horiz-adv-x="472" 
d="M472 498q0 -4 -1 -8.5t-3 -9.5l-223 -595q-9 -24 -19.5 -43.5t-25 -33t-34 -21t-46.5 -7.5q-23 0 -31.5 5t-8.5 12v45q0 14 13 14q5 0 8 -0.5t11 -0.5q17 0 29 10t24 41l23 58q4 10 5 15.5t1 9.5q0 8 -6 23l-178 469q-4 10 -4 17q0 13 18 13h68q8 0 11.5 -3t5.5 -9
l128 -371q4 -13 9 -13t9 13l129 371q2 6 6 9t13 3h52q17 0 17 -13zM212 630q0 -27 -14 -38t-39 -11t-39 11t-14 38t14 38.5t39 11.5t39 -11.5t14 -38.5zM392 630q0 -27 -14 -38t-39 -11t-39 11t-14 38t14 38.5t39 11.5t39 -11.5t14 -38.5z" />
    <glyph glyph-name="dotlessi" unicode="&#x131;" horiz-adv-x="248" 
d="M171 18q0 -18 -17 -18h-59q-18 0 -18 18v475q0 18 17 18h60q17 0 17 -18v-475z" />
    <glyph glyph-name="OE" unicode="&#x152;" horiz-adv-x="921" 
d="M890 18q0 -18 -16 -18h-396q-13 0 -23.5 -1.5t-23 -3.5t-30.5 -3.5t-46 -1.5q-70 0 -126.5 22.5t-96.5 65.5t-61.5 105.5t-21.5 142.5q0 97 23.5 166t66 113t101.5 65t129 21q24 0 40.5 -1.5t29.5 -4t25 -4t26 -1.5h362q8 0 13 -3.5t5 -14.5v-37q0 -18 -18 -18h-249
q-10 0 -10 -12v-185q0 -12 11 -12h196q18 0 18 -17v-40q0 -17 -18 -17h-196q-11 0 -11 -12v-226q0 -13 13 -13h268q16 0 16 -18v-37zM496 549q0 31 -27.5 49.5t-98.5 18.5q-105 0 -161 -73.5t-56 -211.5q0 -131 56.5 -200t152.5 -69q66 0 100 14.5t34 52.5v419z" />
    <glyph glyph-name="oe" unicode="&#x153;" horiz-adv-x="930" 
d="M884 263q0 -12 -6 -15t-12 -3h-321q-16 0 -16 -14q0 -45 13.5 -76.5t36.5 -52t53.5 -30t63.5 -9.5q31 0 55.5 6t42 12.5t29 12.5t17.5 6q9 0 12 -5t3 -11v-39q0 -12 -7 -19.5t-26 -14.5q-23 -8 -57.5 -13.5t-79.5 -5.5q-56 0 -92 12.5t-58.5 27t-34.5 27t-19 12.5
q-6 0 -17 -12.5t-32.5 -27t-56 -27t-87.5 -12.5q-59 0 -104 18.5t-75.5 53t-46.5 83t-16 107.5q0 57 15 106t45.5 84t76.5 55t109 20q52 0 85.5 -12.5t55 -28t33 -28t19.5 -12.5q6 0 17 12.5t32 28t52.5 28t78.5 12.5q71 0 114 -24.5t66.5 -60.5t31 -76t7.5 -70v-25z
M785 326q0 36 -11.5 60t-29.5 38t-40 20t-42 6q-41 0 -67 -15t-40.5 -35.5t-20 -42t-5.5 -34.5q0 -5 2.5 -7.5t10.5 -2.5h231q7 0 9.5 2.5t2.5 10.5zM437 259q0 101 -37 145.5t-109 44.5t-108.5 -45.5t-36.5 -151.5q0 -101 37 -145.5t109 -44.5q71 0 108 45.5t37 151.5z" />
    <glyph glyph-name="Scaron" unicode="&#x160;" horiz-adv-x="483" 
d="M432 187q0 -97 -58.5 -146t-160.5 -49q-42 0 -80.5 8t-69.5 23q-14 7 -18 13.5t-4 15.5v43q0 16 14 16q9 0 20 -7t28.5 -15.5t43 -15.5t63.5 -7q66 0 95.5 29t29.5 72q0 32 -14.5 55.5t-50.5 47.5l-122 82q-45 30 -69.5 67t-24.5 90q0 47 15.5 81t42.5 56t65 32.5
t83 10.5q46 0 82.5 -10t56.5 -21q13 -7 17 -13t4 -14v-48q0 -14 -14 -14q-9 0 -20.5 7t-28 15.5t-40.5 15.5t-58 7q-38 0 -59.5 -10.5t-32.5 -24.5t-13.5 -28.5t-2.5 -22.5q0 -18 4 -32t14 -27.5t28 -27t45 -31.5l89 -58q56 -36 78.5 -73.5t22.5 -91.5zM86 835q0 2 0.5 4.5
t3.5 7.5l10 16q5 8 12 8q3 0 7.5 -1t9.5 -4l103 -61q8 -5 14 -5t14 5l103 61q5 3 9.5 4t7.5 1q7 0 12 -8l10 -16q3 -5 3.5 -7.5t0.5 -4.5q0 -6 -10 -15l-121 -97q-11 -9 -16 -11.5t-13 -2.5t-13 2.5t-16 11.5l-121 97q-10 9 -10 15z" />
    <glyph glyph-name="scaron" unicode="&#x161;" horiz-adv-x="408" 
d="M356 142q0 -76 -49 -113t-129 -37q-77 0 -123 24q-10 5 -13.5 11.5t-3.5 15.5v42q0 7 3 11.5t12 4.5q8 0 17 -6t22 -12.5t32 -12.5t46 -6q48 0 70 17t22 49q0 23 -10.5 37.5t-41.5 34.5l-79 51q-47 30 -65 60t-18 67q0 66 43.5 102.5t124.5 36.5q38 0 68 -8t46 -17
q11 -6 13.5 -12t2.5 -15v-41q0 -7 -3 -11.5t-12 -4.5q-6 0 -15 6t-22 12.5t-31 12.5t-43 6q-41 0 -61.5 -14.5t-20.5 -39.5q0 -21 10.5 -35t30.5 -26l108 -69q69 -45 69 -121zM45 683q0 2 0.5 4.5t3.5 7.5l10 16q5 8 12 8q3 0 7.5 -1t9.5 -4l103 -61q8 -5 14 -5t14 5l103 61
q5 3 9.5 4t7.5 1q7 0 12 -8l10 -16q3 -5 3.5 -7.5t0.5 -4.5q0 -6 -10 -15l-121 -97q-11 -9 -16 -11.5t-13 -2.5t-13 2.5t-16 11.5l-121 97q-10 9 -10 15z" />
    <glyph glyph-name="Ydieresis" unicode="&#x178;" horiz-adv-x="545" 
d="M541 670q0 -9 -7 -20l-195 -345q-7 -13 -9 -21t-2 -28v-238q0 -18 -17 -18h-66q-16 0 -16 18v225q0 20 -2.5 28.5t-11.5 25.5l-203 352q-5 8 -6.5 12t-1.5 8q0 5 4.5 8t10.5 3h72q9 0 13.5 -3.5t9.5 -11.5l159 -289q5 -10 12 -10q5 0 11 10l157 289q5 9 10 12t14 3h50
q14 0 14 -10zM241 782q0 -27 -14 -38t-39 -11t-39 11t-14 38t14 38.5t39 11.5t39 -11.5t14 -38.5zM421 782q0 -27 -14 -38t-39 -11t-39 11t-14 38t14 38.5t39 11.5t39 -11.5t14 -38.5z" />
    <glyph glyph-name="Zcaron" unicode="&#x17d;" horiz-adv-x="552" 
d="M522 18q0 -18 -18 -18h-452q-18 0 -18 18v51q0 19 11 34l344 484q6 7 6 14q0 6 -13 6h-318q-18 0 -18 17v39q0 17 18 17h432q18 0 18 -18v-39q0 -11 -2 -18t-9 -17l-350 -494q-4 -5 -5 -8t-1 -7q0 -6 13 -6h344q18 0 18 -18v-37zM121 835q0 2 0.5 4.5t3.5 7.5l10 16
q5 8 12 8q3 0 7.5 -1t9.5 -4l103 -61q8 -5 14 -5t14 5l103 61q5 3 9.5 4t7.5 1q7 0 12 -8l10 -16q3 -5 3.5 -7.5t0.5 -4.5q0 -6 -10 -15l-121 -97q-11 -9 -16 -11.5t-13 -2.5t-13 2.5t-16 11.5l-121 97q-10 9 -10 15z" />
    <glyph glyph-name="zcaron" unicode="&#x17e;" horiz-adv-x="484" 
d="M442 18q0 -18 -18 -18h-370q-18 0 -18 18v54q0 11 3 18t8 12l264 320q6 7 6 13t-10 6h-243q-18 0 -18 18v34q0 18 18 18h353q19 0 19 -18v-38q0 -12 -2.5 -19t-9.5 -15l-272 -330q-6 -8 -6 -12q0 -7 11 -7h267q18 0 18 -18v-36zM83 683q0 2 0.5 4.5t3.5 7.5l10 16
q5 8 12 8q3 0 7.5 -1t9.5 -4l103 -61q8 -5 14 -5t14 5l103 61q5 3 9.5 4t7.5 1q7 0 12 -8l10 -16q3 -5 3.5 -7.5t0.5 -4.5q0 -6 -10 -15l-121 -97q-11 -9 -16 -11.5t-13 -2.5t-13 2.5t-16 11.5l-121 97q-10 9 -10 15z" />
    <glyph glyph-name="florin" unicode="&#x192;" 
d="M490 691q0 -2 -1.5 -6t-4.5 -9t-6.5 -8.5t-7.5 -3.5q-7 0 -16 4.5t-36 4.5q-20 0 -40 -13t-26 -51q-2 -14 -4 -28.5t-3.5 -27.5t-2.5 -22.5t-1 -12.5q0 -8 7 -8h90q14 0 14 -12q0 -16 -4 -23.5t-18 -7.5h-86q-10 0 -12 -12l-66 -523q-8 -68 -46.5 -111t-115.5 -43
q-36 0 -36 14q0 11 2 19q3 8 15 8q32 0 58 20t32 70l65 545v5q0 8 -9 8h-46q-10 0 -12.5 3.5t-2.5 9.5q0 19 5 24.5t15 5.5h48q4 0 7 3t4 14q4 58 18 96t36 60t50 30.5t60 8.5q35 0 56 -10t21 -21z" />
    <glyph glyph-name="uni0237" unicode="&#x237;" horiz-adv-x="270" 
d="M194 -68q0 -81 -40 -116.5t-107 -35.5q-25 0 -33 4.5t-8 12.5v45q0 14 13 14q6 0 9.5 -0.5t10.5 -0.5q32 0 46 19t14 65v554q0 18 17 18h60q18 0 18 -18v-561z" />
    <glyph glyph-name="circumflex" unicode="&#x2c6;" horiz-adv-x="500" 
d="M410 593q0 -2 -0.5 -4.5t-3.5 -7.5l-10 -16q-5 -8 -12 -8q-3 0 -7.5 1t-9.5 4l-103 61q-8 5 -14 5t-14 -5l-103 -61q-5 -3 -9.5 -4t-7.5 -1q-7 0 -12 8l-10 16q-3 5 -3.5 7.5t-0.5 4.5q0 6 10 15l121 97q11 9 16 11.5t13 2.5t13 -2.5t16 -11.5l121 -97q10 -9 10 -15z" />
    <glyph glyph-name="tilde" unicode="&#x2dc;" horiz-adv-x="500" 
d="M229 609q-12 6 -20 8t-16 2q-17 0 -29 -16l-7 -10q-5 -7 -8 -9t-7 -2q-3 0 -7.5 1.5t-14.5 8.5q-5 4 -6.5 6.5t-1.5 6.5q0 5 2 11t7 15q19 34 37.5 44t38.5 10q19 0 45 -12l29 -15q12 -6 20 -8t16 -2q17 0 29 16l7 10q5 7 8 9t7 2q3 0 7.5 -1.5t14.5 -8.5q5 -4 6.5 -6.5
t1.5 -6.5q0 -5 -2 -11t-7 -15q-10 -17 -19 -27.5t-18.5 -16.5t-19 -8t-19.5 -2q-20 0 -45 12z" />
    <glyph glyph-name="endash" unicode="&#x2013;" horiz-adv-x="500" 
d="M484 241q0 -8 -4 -13t-12 -5h-436q-9 0 -13 5t-4 13v40q0 17 17 17h436q16 0 16 -17v-40z" />
    <glyph glyph-name="emdash" unicode="&#x2014;" horiz-adv-x="1000" 
d="M897 241q0 -8 -4 -13t-12 -5h-761q-9 0 -13 5t-4 13v40q0 17 17 17h761q16 0 16 -17v-40z" />
    <glyph glyph-name="quoteleft" unicode="&#x2018;" horiz-adv-x="250" 
d="M51 551q0 30 10 56.5t24 47t28.5 32.5t23.5 12q8 0 17 -6l18 -12q9 -6 9 -14q0 -5 -5.5 -11t-11.5 -14t-11.5 -19.5t-5.5 -27.5q0 -14 19 -23q14 -7 23 -19t9 -35q0 -29 -20 -44t-49 -15q-38 0 -58 22.5t-20 69.5z" />
    <glyph glyph-name="quoteright" unicode="&#x2019;" horiz-adv-x="250" 
d="M198 607q0 -30 -10 -56.5t-24 -47t-28.5 -32.5t-23.5 -12q-8 0 -17 6l-18 12q-9 6 -9 14q0 5 5.5 11t11.5 14t11.5 19.5t5.5 27.5q0 13 -19 23q-14 7 -23 19t-9 35q0 29 20 44t49 15q38 0 58 -22.5t20 -69.5z" />
    <glyph glyph-name="quotesinglbase" unicode="&#x201a;" horiz-adv-x="250" 
d="M198 40q0 -30 -10 -56.5t-24 -47t-28.5 -32.5t-23.5 -12q-8 0 -17 6l-18 12q-9 6 -9 14q0 5 5.5 11t11.5 14t11.5 19.5t5.5 27.5q0 13 -19 23q-14 7 -23 19t-9 35q0 29 20 44t49 15q38 0 58 -22.5t20 -69.5z" />
    <glyph glyph-name="quotedblleft" unicode="&#x201c;" horiz-adv-x="500" 
d="M83 551q0 30 10 56.5t24 47t28.5 32.5t23.5 12q8 0 17 -6l18 -12q9 -6 9 -14q0 -5 -5.5 -11t-11.5 -14t-11.5 -19.5t-5.5 -27.5q0 -14 19 -23q14 -7 23 -19t9 -35q0 -29 -20 -44t-49 -15q-38 0 -58 22.5t-20 69.5zM269 551q0 30 10 56.5t24 47t28.5 32.5t23.5 12
q8 0 17 -6l18 -12q9 -6 9 -14q0 -5 -5.5 -11t-11.5 -14t-11.5 -19.5t-5.5 -27.5q0 -14 19 -23q14 -7 23 -19t9 -35q0 -29 -20 -44t-49 -15q-38 0 -58 22.5t-20 69.5z" />
    <glyph glyph-name="quotedblright" unicode="&#x201d;" horiz-adv-x="500" 
d="M230 607q0 -30 -10 -56.5t-24 -47t-28.5 -32.5t-23.5 -12q-8 0 -17 6l-18 12q-9 6 -9 14q0 5 5.5 11t11.5 14t11.5 19.5t5.5 27.5q0 13 -19 23q-14 7 -23 19t-9 35q0 29 20 44t49 15q38 0 58 -22.5t20 -69.5zM416 607q0 -30 -10 -56.5t-24 -47t-28.5 -32.5t-23.5 -12
q-8 0 -17 6l-18 12q-9 6 -9 14q0 5 5.5 11t11.5 14t11.5 19.5t5.5 27.5q0 13 -19 23q-14 7 -23 19t-9 35q0 29 20 44t49 15q38 0 58 -22.5t20 -69.5z" />
    <glyph glyph-name="quotedblbase" unicode="&#x201e;" horiz-adv-x="500" 
d="M230 40q0 -30 -10 -56.5t-24 -47t-28.5 -32.5t-23.5 -12q-8 0 -17 6l-18 12q-9 6 -9 14q0 5 5.5 11t11.5 14t11.5 19.5t5.5 27.5q0 13 -19 23q-14 7 -23 19t-9 35q0 29 20 44t49 15q38 0 58 -22.5t20 -69.5zM416 40q0 -30 -10 -56.5t-24 -47t-28.5 -32.5t-23.5 -12
q-8 0 -17 6l-18 12q-9 6 -9 14q0 5 5.5 11t11.5 14t11.5 19.5t5.5 27.5q0 13 -19 23q-14 7 -23 19t-9 35q0 29 20 44t49 15q38 0 58 -22.5t20 -69.5z" />
    <glyph glyph-name="dagger" unicode="&#x2020;" horiz-adv-x="482" 
d="M452 496q0 -22 -23 -22h-136q-14 0 -14 -13v-599q0 -22 -22 -22h-35q-21 0 -21 21v600q0 13 -12 13h-136q-22 0 -22 23v30q0 22 21 22h137q12 0 12 13v181q0 22 22 22h35q21 0 21 -22v-181q0 -13 14 -13h136q23 0 23 -23v-30z" />
    <glyph glyph-name="daggerdbl" unicode="&#x2021;" horiz-adv-x="479" 
d="M426 131q23 0 23 -22v-30q0 -23 -23 -23h-133q-14 0 -14 -13v-181q0 -22 -21 -22h-35q-22 0 -22 22v181q0 13 -12 13h-137q-21 0 -21 22v30q0 23 22 23h136q12 0 12 13v317q0 13 -14 13h-133q-23 0 -23 22v30q0 23 23 23h133q14 0 14 13v181q0 22 21 22h35q22 0 22 -22
v-181q0 -13 12 -13h137q21 0 21 -22v-30q0 -23 -22 -23h-136q-12 0 -12 -13v-317q0 -13 14 -13h133z" />
    <glyph glyph-name="bullet" unicode="&#x2022;" horiz-adv-x="351" 
d="M313 348q0 -63 -38.5 -97.5t-101.5 -34.5t-99 34.5t-36 97.5t36 97t99 34t101.5 -34t38.5 -97z" />
    <glyph glyph-name="ellipsis" unicode="&#x2026;" horiz-adv-x="1000" 
d="M906 59q0 -38 -20 -52.5t-55 -14.5q-37 0 -54 16t-17 54q0 37 18 53t54 16q38 0 56 -17t18 -55zM573 59q0 -38 -20 -52.5t-55 -14.5q-37 0 -54 16t-17 54q0 37 18 53t54 16q38 0 56 -17t18 -55zM240 59q0 -38 -19.5 -52.5t-54.5 -14.5q-37 0 -54.5 16t-17.5 54
q0 37 19.5 53t54.5 16q38 0 55 -17t17 -55z" />
    <glyph glyph-name="perthousand" unicode="&#x2030;" horiz-adv-x="930" 
d="M325 538q0 -35 -11.5 -64.5t-32.5 -51t-50 -33.5t-63 -12q-35 0 -63.5 11t-48.5 31.5t-31.5 48.5t-11.5 62q0 36 11.5 65t32 50t49.5 32.5t64 11.5q71 0 113 -41t42 -110zM917 152q0 -35 -11.5 -64.5t-32.5 -50.5t-50 -33t-63 -12q-70 0 -112.5 42t-42.5 111q0 72 43 115
t114 43t113 -41t42 -110zM260 535q0 50 -23.5 77.5t-67.5 27.5q-43 0 -66.5 -28.5t-23.5 -80.5q0 -48 23 -76t65 -28q44 0 68.5 28.5t24.5 79.5zM852 149q0 50 -24 77.5t-67 27.5t-66.5 -28.5t-23.5 -79.5q0 -48 23 -76t65 -28q43 0 68 28.5t25 78.5zM577 152
q0 -35 -11.5 -64.5t-32.5 -50.5t-50 -33t-63 -12q-70 0 -112.5 42t-42.5 111q0 72 43 115t114 43t113 -41t42 -110zM512 149q0 50 -24 77.5t-67 27.5t-66.5 -28.5t-23.5 -79.5q0 -48 23 -76t65 -28q43 0 68 28.5t25 78.5zM568 676q0 -5 -9 -18l-492 -671q-7 -10 -15 -10
q-7 0 -14 5l-9 6q-3 2 -6 5.5t-3 6.5q0 8 7 18l492 673q6 8 9.5 9.5t8.5 1.5t11 -5l9 -7q11 -7 11 -14z" />
    <glyph glyph-name="guilsinglleft" unicode="&#x2039;" horiz-adv-x="298" 
d="M236 450q0 -7 -6 -20l-75 -154q-7 -14 -7 -21t7 -21l75 -154q6 -14 6 -20q0 -14 -19 -14h-39q-11 0 -16.5 3.5t-10.5 14.5l-83 169q-4 8 -5 12.5t-1 9.5t1 9.5t5 12.5l83 169q5 11 10.5 14.5t16.5 3.5h39q19 0 19 -14z" />
    <glyph glyph-name="guilsinglright" unicode="&#x203a;" horiz-adv-x="298" 
d="M62 60q0 6 6 20l75 154q7 14 7 21t-7 21l-75 154q-6 13 -6 20q0 14 19 14h39q11 0 16.5 -3.5t10.5 -14.5l83 -169q4 -8 5 -12.5t1 -9.5t-1 -9.5t-5 -12.5l-83 -169q-5 -11 -10.5 -14.5t-16.5 -3.5h-39q-19 0 -19 14z" />
    <glyph glyph-name="Euro" unicode="&#x20ac;" 
d="M552 50q0 -17 -19 -27q-23 -13 -55 -22t-86 -9q-67 0 -115 18t-80 50.5t-50.5 76.5t-25.5 96q-2 11 -5.5 14.5t-11.5 3.5h-36q-16 0 -16 17v23q0 18 16 18h32q11 0 13 4.5t2 10.5v10q0 8 0.5 17.5t0.5 13.5q0 15 -15 15h-33q-16 0 -16 18v22q0 19 16 19h40q8 0 12.5 3
t6.5 14q10 45 30 87.5t52 74.5t78 51.5t108 19.5q45 0 77 -8.5t58 -22.5q14 -7 18 -13.5t4 -14.5v-45q0 -6 -2.5 -11t-11.5 -5q-7 0 -17.5 7.5t-26 16t-38.5 16t-55 7.5q-52 0 -82.5 -17.5t-47.5 -35.5q-10 -11 -19 -27.5t-15.5 -33t-10 -31t-3.5 -22.5q0 -10 15 -10h244
q18 0 18 -17v-26q0 -16 -17 -16h-254q-15 0 -15 -13v-43q0 -6 3.5 -10.5t11.5 -4.5h254q17 0 17 -15v-26q0 -17 -17 -17h-250q-12 0 -12 -14q0 -11 3.5 -25t9 -29.5t12.5 -30.5t15 -26q6 -8 16.5 -18.5t27 -20.5t39.5 -16.5t55 -6.5q33 0 56 7.5t39.5 16t26.5 16t17 7.5
q14 0 14 -16v-45z" />
    <glyph glyph-name="trademark" unicode="&#x2122;" horiz-adv-x="942" 
d="M872 225q0 -19 -17 -19h-46q-18 0 -18 19v317q0 8 -4 8q-5 0 -8 -8l-94 -277q-7 -21 -12.5 -32.5t-11 -17.5t-11.5 -7.5t-14 -1.5h-29q-10 0 -16.5 1.5t-11.5 7t-10.5 17.5t-12.5 33l-93 277q-3 8 -8 8q-4 0 -4 -9v-316q0 -12 -6.5 -15.5t-12.5 -3.5h-31q-6 0 -12.5 3.5
t-6.5 15.5v445q0 19 17 19h75q22 0 28 -17l120 -359q3 -9 8 -9t8 9l120 354q5 12 9 17t14 5h75q16 0 16 -16v-448zM351 645q0 -16 -18 -16h-100q-10 0 -10 -12v-392q0 -19 -17 -19h-49q-17 0 -17 19v392q0 12 -11 12h-100q-17 0 -17 16v28q0 16 17 16h304q18 0 18 -16v-28z
" />
    <glyph glyph-name="glyph205" horiz-adv-x="500" 
d="M90 683q0 2 0.5 4.5t3.5 7.5l10 16q5 8 12 8q3 0 7.5 -1t9.5 -4l103 -61q8 -5 14 -5t14 5l103 61q5 3 9.5 4t7.5 1q7 0 12 -8l10 -16q3 -5 3.5 -7.5t0.5 -4.5q0 -6 -10 -15l-121 -97q-11 -9 -16 -11.5t-13 -2.5t-13 2.5t-16 11.5l-121 97q-10 9 -10 15z" />
    <glyph glyph-name="glyph206" horiz-adv-x="500" 
d="M329 640q0 -77 -79 -77q-80 0 -80 73q0 36 20 55t58 19t59.5 -18t21.5 -52zM286 634q0 20 -8 30t-28 10q-38 0 -38 -38q0 -37 36 -37q38 0 38 35z" />
    <glyph glyph-name="glyph225" horiz-adv-x="500" 
d="M359 748q0 -4 -2 -9.5t-13 -21.5q-6 -9 -13 -9q-6 0 -16 5l-154 73q-20 10 -20 24q0 9 10 25l11 18q7 11 11.5 14t12.5 3q11 0 33 -15l130 -93q10 -7 10 -14z" />
    <glyph glyph-name="glyph226" horiz-adv-x="500" 
d="M141 748q0 7 10 14l130 93q22 15 33 15q8 0 12.5 -3t11.5 -14l11 -18q10 -16 10 -25q0 -14 -20 -24l-154 -73q-10 -5 -16 -5q-7 0 -13 9q-11 16 -13 21.5t-2 9.5z" />
    <glyph glyph-name="glyph227" horiz-adv-x="500" 
d="M410 745q0 -2 -0.5 -4.5t-3.5 -7.5l-10 -16q-5 -8 -12 -8q-3 0 -7.5 1t-9.5 4l-103 61q-8 5 -14 5t-14 -5l-103 -61q-5 -3 -9.5 -4t-7.5 -1q-7 0 -12 8l-10 16q-3 5 -3.5 7.5t-0.5 4.5q0 6 10 15l121 97q11 9 16 11.5t13 2.5t13 -2.5t16 -11.5l121 -97q10 -9 10 -15z" />
    <glyph glyph-name="glyph228" horiz-adv-x="500" 
d="M90 835q0 2 0.5 4.5t3.5 7.5l10 16q5 8 12 8q3 0 7.5 -1t9.5 -4l103 -61q8 -5 14 -5t14 5l103 61q5 3 9.5 4t7.5 1q7 0 12 -8l10 -16q3 -5 3.5 -7.5t0.5 -4.5q0 -6 -10 -15l-121 -97q-11 -9 -16 -11.5t-13 -2.5t-13 2.5t-16 11.5l-121 97q-10 9 -10 15z" />
    <glyph glyph-name="glyph229" horiz-adv-x="500" 
d="M229 761q-12 6 -20 8t-16 2q-17 0 -29 -16l-7 -10q-5 -7 -8 -9t-7 -2q-3 0 -7.5 1.5t-14.5 8.5q-5 4 -6.5 6.5t-1.5 6.5q0 5 2 11t7 15q19 34 37.5 44t38.5 10q19 0 45 -12l29 -15q12 -6 20 -8t16 -2q17 0 29 16l7 10q5 7 8 9t7 2q3 0 7.5 -1.5t14.5 -8.5q5 -4 6.5 -6.5
t1.5 -6.5q0 -5 -2 -11t-7 -15q-10 -17 -19 -27.5t-18.5 -16.5t-19 -8t-19.5 -2q-20 0 -45 12z" />
    <glyph glyph-name="glyph230" horiz-adv-x="500" 
d="M213 782q0 -27 -14 -38t-39 -11t-39 11t-14 38t14 38.5t39 11.5t39 -11.5t14 -38.5zM393 782q0 -27 -14 -38t-39 -11t-39 11t-14 38t14 38.5t39 11.5t39 -11.5t14 -38.5z" />
    <glyph glyph-name="glyph231" horiz-adv-x="500" 
d="M329 792q0 -77 -79 -77q-80 0 -80 73q0 36 20 55t58 19t59.5 -18t21.5 -52zM286 786q0 20 -8 30t-28 10q-38 0 -38 -38q0 -37 36 -37q38 0 38 35z" />
    </font>
</defs>
</svg>
