<svg xmlns="http://www.w3.org/2000/svg" viewBox="0 0 512 512"><!--! Font Awesome Pro 7.1.0 by @fontawesome - https://fontawesome.com License - https://fontawesome.com/license (Commercial License) Copyright 2025 Fonticons, Inc. --><path fill="currentColor" d="M421.3 415.9c-47.2 0-43.5-67.5 3.5-64.3 12.3-.8 21.5-10.5 21.8-21.9 1.4-46.4 1.4-92.1 1.4-138.4 0-26.9 0-54.1 .3-81.7 0-4.9-3.4-7.3-6.1-7.5-14.8-.6-30.9-1-47.5-1.3-104.2-3.6-211.6-9.8-320.1-4.2-3.6 .2-6.8 3.1-6.9 7.1-4.3 66.3-1.1 129.2 1.8 193 2.4 24.2-7.8 59 29.8 54.5 41.9 .2 41.8 63.9 0 64-70 3.5-99.2-51.5-93.8-116.6-3.2-65.7-6-132.4-1.8-197.8 1.7-36.8 31.1-66.6 68.3-68.1 82.2-3.3 177.6-3.2 255.4 1.8 65.8 8.1 182.1-21.9 184.8 75.8-.7 73.4 .5 147.7-1.7 221.3-1.3 48.4-42.2 84.7-89.3 84.3zM285 332.8l96 128c16 19.9-.1 52-25.6 51.2l-192 0c-67.6-11.1-8.4-84.6 15.5-114.3l56.1-66.4c12.5-15.5 38.5-14.8 50 1.5zm-27.1 70.5c-12.5 14.8-25.7 29.3-37.5 44.7l71 0-33.5-44.7z"/></svg>