<svg xmlns="http://www.w3.org/2000/svg" viewBox="0 0 640 512"><!--! Font Awesome Pro 7.1.0 by @fontawesome - https://fontawesome.com License - https://fontawesome.com/license (Commercial License) Copyright 2025 Fonticons, Inc. --><path fill="currentColor" d="M158 12.8c30.5-28.6-12.7-75.3-43.5-46.9-28 25.9-54.7 53.2-83.5 78.3-31.4 27.6 10.4 75.6 42 48.3 17.8-15.5 34.9-32 51.5-48 10.6-10.2 22.7-21.8 33.5-31.6zM482.6-28.5c-26.8 31.3 16.5 56.1 35.1 76.7 13.3 14 33.4 31.5 46.3 46 27.5 31.6 75.7-10 48.5-41.8-16.3-18.4-30.3-29.7-47.2-47.2-22.3-20.2-51.6-64.8-82.6-33.7zm-77.3 44C288.8-32 130.6 32.9 80.8 146.1 55.6 218 58 293.1 85.6 357.9 217.5 666 689.9 464.2 551.5 165 526.1 108.5 479.1 30.7 405.3 15.5zM140 170.4c34.3-85.2 179.7-134.4 260.8-88.7 50.2 18 66.6 62 93.4 111.9 56.2 112.3-28.8 254-179.2 254-142.9 7.6-220.7-160.2-175-277.2zm211.9-18.8c-.2-41.8-63.8-41.9-64 0l0 104c0 17.7 14.3 32 32 32 31.3 .1 71.5 .2 102.8 1 41.8 .9 43.6-62.7 1.7-64-22-.6-49.7-.8-72.5-1l0-72.1z"/></svg>