<svg xmlns="http://www.w3.org/2000/svg" viewBox="0 0 448 512"><!--! Font Awesome Pro 7.1.0 by @fontawesome - https://fontawesome.com License - https://fontawesome.com/license (Commercial License) Copyright 2025 Fonticons, Inc. --><path fill="currentColor" d="M221.7 3.8c17.6-1.6 33.2 11.3 34.8 28.9 3.8 40.5 2.6 82.5 1.6 122.1-.8 25.9-1.2 45.8-.8 71.4 .1 6 .1 12.5 .2 19.3l72.3-72.3c29.6-29.4 74.8 15.5 45.2 45.2l-128 128c-14.4 15.3-41.9 11-51-7.9-3.6-7.6-23.1-25.3-31.4-32.7-12.2-10.9-25.8-24.5-41-39.7-23.7-30.8-79.2-52.5-51.7-90.9 36.1-36 68.5 22.5 97.1 45.7 8.9 9 17.3 17.3 24.6 24.4 0-5.1-.1-10.1-.1-15-.4-28.7 .1-55.4 .9-82.3 1-37.4 2-72.7-1.4-109.5-1.6-17.6 11.3-33.2 28.9-34.8zM421.3 513.2L27.7 517.7c-42 .3-42.4-63.3-.7-64l393.6-4.5c41.9-.3 42.4 63.4 .7 64z"/></svg>