<svg xmlns="http://www.w3.org/2000/svg" viewBox="0 0 448 512"><!--! Font Awesome Pro 7.1.0 by @fontawesome - https://fontawesome.com License - https://fontawesome.com/license (Commercial License) Copyright 2025 Fonticons, Inc. --><path fill="currentColor" d="M362.5 48.4c31.9-18.2 70 6.1 69.2 41.4-1.5 65.7-1.2 131.4-.9 197.2 .1 35.6 .6 70.4-.1 106.3 8 45.7-40.6 86.5-81.2 53.4-30.3-24.3-61.6-46.6-92.2-71.4-184.1-135.1-97.9-129 22.6-255.1 24.4-25.5 50.1-53.2 82.5-71.9zm4.3 239.7c-.3-54.4-.5-109.3 .2-164.2-12.6 11-27.2 26.1-40.2 40-34.2 38.5-64.3 58.1-105.2 97.5 43.4 44.5 95.6 80.7 145.4 117.6 .3-30.2-.1-60.4-.2-90.9l0 0zM32.4 88.8c-.9-41.7 62.7-43.6 64-1.7 2.8 107.7 3.1 219.6 3.6 328 0 41.8-63.6 42.2-64 .3l-.2-37.3 0 0c-.4-96.2-.9-194.8-3.4-289.4z"/></svg>