<svg xmlns="http://www.w3.org/2000/svg" viewBox="0 0 640 512"><!--! Font Awesome Pro 7.1.0 by @fontawesome - https://fontawesome.com License - https://fontawesome.com/license (Commercial License) Copyright 2025 Fonticons, Inc. --><path fill="currentColor" d="M360.3 69.3c-98.4-5.9-182.6-7.9-281.9-.4-44.7 3.5-75.9 37.7-77.1 81.6-1.3 50.2-1.4 130.3-1.3 188.1 7.3 123 120.3 110.4 209.7 107.9 62.4-1.7 150.2-.8 224.5-.3 120.1-5 109.4-117.8 109.3-203.7 10.1-143.8-50.7-175.1-183.2-173.2zm-6.1 63.6c93.8 5.3 133.6-9.6 125.4 103.9-.3 36.6 .4 62.8-2.9 108.8-1.4 20.5-18.6 36.8-41.9 36.6-74.5-.5-162.8-1.5-226.7 .3-41.3-5.8-140.4 25.4-144-44.2-.2-58-.1-137.2 1.2-186.2 .4-12.1 7-18.8 18.2-19.7 95.6-7 175.9-5.3 270.7 .4zM576 191.6l0 127.7c.2 41.7 63.8 41.8 64 0l0-127.7c-.2-41.7-63.8-41.8-64 0zM266 159.7c-22.1 0-45.8 1.1-68.6 2.2-61.3-3.3-108.7 19.3-101.3 90.7-6.1 52.9 23 99.9 78.3 98.3 76.9-7 203.4 32.8 209.5-77.1 6.6-101.9-21.1-117.5-117.8-114zM165.1 227.2c52.9-2.1 101.7-5.5 154.4-2.2-3 14.4 10.2 60.5-12 62.4-13.3 .2-26.5 .1-37.5-.2-27.9-.7-65.5-.4-98.4-.2-3.8 0-6.6-1.3-8.3-2.8-6.7-11-1.7-28-3.3-38.2-.1-6.4-.2-11.1 .4-17.1 1-.9 2.5-1.6 4.6-1.7z"/></svg>