<svg xmlns="http://www.w3.org/2000/svg" viewBox="0 0 640 512"><!--! Font Awesome Pro 7.1.0 by @fontawesome - https://fontawesome.com License - https://fontawesome.com/license (Commercial License) Copyright 2025 Fonticons, Inc. --><path fill="currentColor" d="M335.8 37c-1.9-30-45-39.7-59.4-13.2l-58.6 99.8c-31.1 49.4-64 99.7-99 144.8-6.6 8.5-8.4 19.7-5 29.9s11.8 17.9 22.1 20.7l74.6 19.7c2.8 26.1 10.9 108.2 13.6 135.6 1.5 15.1 13.4 27.1 28.5 28.7 15.1 1.6 29.2-7.7 33.8-22.2 6.3-21.3 38.2-85.3 51.6-102.8 32.5-43.8 62.8-96.1 88.6-143.9 11.2-18.9-2.2-45.3-24.1-47.3l-64.1-7.8c.8-45.1 1.3-101.2-2.6-141.9zM272.7 156.5l2.1-3.6c-1.2 78.8-10.9 84.4 72.8 91.7-21.2 39.1-46.7 74.3-71.1 110.6L271.8 310c-2.7-33-49.5-31.8-73.9-40.9 26.4-37.1 51.4-75.5 74.7-112.6zM200.1 95.3c-2.5-41.1-48.2-29.9-75.6-30.4-60.4 1.2-115.4 45.2-122.2 108.7-3.8 58.3-2.2 101.8 .4 163.3 3.8 65 58.3 110.5 120.5 110l19.2-.2c17.7-.1 31.9-14.6 31.8-32.2s-14.5-31.9-32.2-31.8l-19.3 .2c-78.1-1.1-53.9-99.3-58.3-145.6-2.8-47-.7-106.2 61.5-108.4l42.9-.9c17.6-.4 31.7-15 31.3-32.7zm173.3 1.1c2.2 42.6 43.1 31.6 78.2 35.7 16.6 1.2 26.8 11.6 27.1 29.2 1.1 45.3 1.2 110.7 1.1 163.4-.1 34.2-25.6 59.7-54.2 59.3-7.3-.1-15.7-.3-25.8-.6-17.7-.5-32.4 13.4-32.8 31.1-.5 33.2 33.9 34.6 57.8 33.4 69.6 1 118.9-59 119-123.2-9-91.3 38.1-242.8-87.7-256.5-36.1-.7-77-14.5-82.7 28.2zM576.1 192l0 128c.2 41.8 63.8 41.9 63.9 0l0-128c-.2-41.8-63.8-41.9-63.9 0z"/></svg>