<svg xmlns="http://www.w3.org/2000/svg" viewBox="0 0 640 512"><!--! Font Awesome Pro 7.1.0 by @fontawesome - https://fontawesome.com License - https://fontawesome.com/license (Commercial License) Copyright 2025 Fonticons, Inc. --><path fill="currentColor" d="M360.3 442.7c-98.4 5.9-182.5 7.9-281.9 .4-44.7-3.5-75.9-37.7-77.2-81.6-1.3-50.2-1.4-130.3-1.3-188.1 7.2-122.9 120.4-110.4 209.7-107.9 56.5 1.6 132.5 1 202.1 .4 139.8-6.7 132.5 101.8 131.6 203.5 10.1 143.8-50.7 175.1-183.2 173.2zm-6.1-63.6c93.8-5.3 133.6 9.6 125.4-103.9-.3-36.6 .4-62.7-2.9-108.8-1.4-20.5-18.6-36.8-41.9-36.6-74.5 .5-162.8 1.5-226.7-.3-41.3 5.7-140.3-25.4-144 44.2-.2 58-.1 137.2 1.2 186.2 .4 12.1 7 18.8 18.2 19.7 95.6 7 175.9 5.3 270.7-.4zM239.4 350c-53.5 3.4-141.9 15.1-143.2-60.5-.2-15.6-.3-35.3-.3-52.6 0-40 30.8-76.3 74.6-76.3 79.9 0 155-9.4 149.3 99.7 6.9 55.5-27.2 92.2-80.3 89.6zm-6.2-63.6c6.9-1.1 15.5 .5 22.2-2.5 .5-6.5 .4-12 .3-18.8-1.6-10.4 3.6-26.4-3.5-36.8-22.8-7.7-58.1-.9-81.9-3.7-6.7 .2-10.4 5.6-10.6 12.4 0 16.9 .1 35.6 .3 50.6 25.2 1.5 47.3 .7 73.1-1.1zM576 320.3l0-127.7c.2-41.7 63.8-41.8 64 0l0 127.7c-.2 41.7-63.8 41.8-64 0z"/></svg>