<svg xmlns="http://www.w3.org/2000/svg" viewBox="0 0 384 512"><!--! Font Awesome Pro 7.1.0 by @fontawesome - https://fontawesome.com License - https://fontawesome.com/license (Commercial License) Copyright 2025 Fonticons, Inc. --><path fill="currentColor" d="M132.3 93.2c62.7-.7 165.1 8 152.2 87.1-28.5 44.3-105.4 40.6-154.2 40.4 .5-43.8 1.3-94 2-127.5zM315.6 241.9c33.3-25.4 41.8-70.3 28.5-109.1-50.6-134.3-202.1-97.5-311.8-102.7-17.7-.1-32.1 14.1-32.3 31.7 .4 37.2 41.4 33.2 68.3 31.9-2.4 121-2.3 214.7-4.4 318.8-25.9-1.4-64.8-1.8-63.9 33.6 .7 17.7 15.5 31.4 33.2 30.8 90.9-2.3 187 13.5 275.5-20.4 91.7-34.8 101.1-173.5 6.9-214.7zM160.6 285c56.9-2.5 178.7-5.4 154.6 82-8.4 16.8-18.8 25.2-32 30.9-41.8 15.9-105.4 18.5-155.3 16.5 .3-43.3 2-85.7 1.8-129.7 10.1 .1 20.3 .3 30.9 .2l0 0z"/></svg>