<svg xmlns="http://www.w3.org/2000/svg" viewBox="0 0 512 512"><!--! Font Awesome Pro 7.1.0 by @fontawesome - https://fontawesome.com License - https://fontawesome.com/license (Commercial License) Copyright 2025 Fonticons, Inc. --><path fill="currentColor" d="M101.5 15.2C116.4-3.9 141.9 1.8 163 1.3l218.6 0c11.7 0 22.5 5.1 29.9 13.5 22.5 25.6 43.5 55.1 63.3 82.9 12.9 22.1 33.5 36.8 37.8 61.5 7.9 83.5-.4 219.8-1.2 313.1-.1 21.5-17.4 39.5-39.5 39.8-65 1-128.6 .6-190.6 3.2-67.3 3.1-135.9 3.6-202.9-3.5-22.9-1.7-66-.3-71.5-27.5-6.6-38.5-.5-108.8-2.1-148.5 4.4-63.2-12.3-120.6 1-182.2 13.6-27.3 29.8-43.6 45.5-69 15.9-23.5 31.7-47.1 50.4-69.4l0 0zm41.9 49.9c-13.1 16.6-26.2 36-38.7 54.6-3.3 4.8-6.6 9.7-9.9 14.6 41.6 .9 78.7 .7 116.2-2.4 6.2-.4 12.6-.9 19-1.2-1.1-19.4-2.7-46.1-3.9-65.4-28-.1-54.3 .2-82.6-.2zm146.8 .2c1.2 19.5 2.7 43.3 3.7 63.1 42 1.4 82.7 4.1 125.8 2.5l-.3-.4c-16.1-22.7-31.4-44.3-49-65.2l-80.3 0zM67 253.2l0 .3c3.4 60.8 .7 130.3 1.2 193.7 68.8 6.3 137.9 8.2 209 4.3 62.3-2.6 100.9-2 170.3-3 1.5-79.9 6.7-180.1 3.2-253.9-11.6 .4-23.2 .2-35.5 .4-66.2 2-129.7-6.3-197.2 .7-47.4 4.1-104.2 3.4-152.8 2 .1 18.2 .9 36.4 1.7 55.5z"/></svg>