<svg xmlns="http://www.w3.org/2000/svg" viewBox="0 0 576 512"><!--! Font Awesome Pro 7.1.0 by @fontawesome - https://fontawesome.com License - https://fontawesome.com/license (Commercial License) Copyright 2025 Fonticons, Inc. --><path fill="currentColor" d="M55.7-22.8c-12.6-12.4-32.9-12.3-45.2 .3-12.4 12.6-12.3 32.9 .3 45.2 34.3 34.1 69.7 63.2 103.4 98.3 90.6 87.8 178.4 172.7 262.1 268.9 41.4 54.1 97.1 98.9 145.5 144 12.1 12.9 32.4 13.5 45.2 1.5 12.9-12.1 13.5-32.4 1.5-45.2-50.1-48.3-98.2-83.1-142.7-140.8-115.6-132-242.7-251.5-370.1-372.1zm369.9 3.7l-.1 0c-14.8-9.7-34.6-5.5-44.3 9.3l0-.1 0 .1c-3.3 4.3-8.4 9.6-12.6 14.4-9.2 10.2-19.2 21-27.4 32.2-30.3-10.5-113.7-20.6-106.9 34.3 3.9 17.2 21 28.1 38.2 24.2 27.1-6.1 48.8-.6 67 11.8 24.9 16.4 55.1 60.3 56.9 95.5 1.5 29-2.4 56.8 26.7 78.7 22.4 15.5 86.2 37.4 93.9-8 2.4-17.5-9.8-33.7-27.3-36.1-18-2.5-25.4-5.6-27.9-7-1.4-10.2-.4-23.8-1.8-35.9l41.7 .4c41.9 .3 42.5-63.4 .7-64L440 130c-11.5-22.1-26.1-42.7-44.1-59.5 5.3-6.7 13.3-15.6 19.5-22.3 19.6-18.2 38.6-47.3 10.2-67.4zm-324 277.8c-55-3.4-49.4 74.1 4.4 63.8 7.9-.4 15.3-.8 22.6-1 4.1 22 6.2 41.8 10.1 63.5-27.4 5.5-75-5.9-76.1 35.2 4 49.2 64.5 27.9 97.3 27 34 56.4 114.7 70.7 180 61.1 17.6-1.3 30.9-16.6 29.6-34.2s-16.6-30.9-34.2-29.6l-45.3 3.3c-27.8-3.7-45.4-9.7-56.7-16.3-29.8-17.5-29.5-48.9-35.6-82.8-9.2-73.7-15.5-99.6-96.3-90.1z"/></svg>