<svg xmlns="http://www.w3.org/2000/svg" viewBox="0 0 448 512"><!--! Font Awesome Pro 7.1.0 by @fontawesome - https://fontawesome.com License - https://fontawesome.com/license (Commercial License) Copyright 2025 Fonticons, Inc. --><path fill="currentColor" d="M432.6 100.3c32.4 27.5-13.6 63.3-26.9 80.5-64.7 79.7-147.9 156.3-224.2 224.2-13.2 11.5-33.1 10.4-44.8-2.6-21.7-24-46-46.7-70.6-69.6-21.8-28.4-98-65.2-62.1-106.8 12.8-12.2 33.1-11.6 45.2 1.2 35.6 37.6 76.1 71.6 113.1 109.2 59.8-55.6 120.7-108.2 173.2-172.4 20.3-23.6 28.6-32.5 52-60 11.4-13.5 31.6-15.1 45.1-3.6z"/></svg>