<svg xmlns="http://www.w3.org/2000/svg" viewBox="0 0 640 512"><!--! Font Awesome Pro 7.1.0 by @fontawesome - https://fontawesome.com License - https://fontawesome.com/license (Commercial License) Copyright 2025 Fonticons, Inc. --><path fill="currentColor" d="M440.8-51.6c15.1 18.6 28.4 37.1 44.4 52.3 12.9 .3 29.2 .1 41.5-.1 26.8-.5 48.4 20.9 49.3 47 .4 11.5 1.2 26.5 2.7 39.3 75.2 37.3 63.9 79.2 2.8 124.1l0 42.7c-.2 41.9-63.8 41.8-64 0l0-49.1c.5-29.4 19.8-39.1 38.8-56.5-17.9-10.2-36.3-19.5-39.7-43.1-2-12.8-3.2-27.6-3.9-40.2-23.9-.6-50.1 4.3-67.6-13.8-11.3-11-20.3-20-30.4-32.8-18.1 19.4-16.4 27.4-38.4 38.2-16 5.8-30.8 4.2-45.8 3.4-3.9-.2-10.1-.8-14.1-.3 .3 5.2 .6 10.4 1 15.2 4 41.7-59.3 48-63.7 6.4-.4-13-5-45 0-61.7 10.5-33.9 67.5-21.8 95.9-22.8 20.6-22 55.6-87.6 91.2-48.1zM382.2 116.8c25.5-31.3 55.8 3.2 77.9 19 14 10.7 16.8 30.8 6.1 44.8-25.4 31.3-55.8-3.2-77.9-19-14-10.7-16.8-30.8-6.1-44.8zM273.4 218.5c-49.3-22.2-107.3 29.2-107.6 80.6 0 14.2-9.3 26.7-22.9 30.7-11.1 3.2-35.6 11.6-42.6 15.6-32.8 18.8-53 79-17.1 107.9 64.5 43.3 187.7 30.4 262.6 16.7 34.6-5.3 94.6-30.8 91.1-71.2-3.5-41.1-13.8-63.6-40.1-73.3-5.8-2-13.9-3.6-20.9-6-17.4-2-39.9-27.9-48.9-45.8-12.6-20.7-32.2-48.3-53.6-55.3l0 0zM104.2 274.9c33.8-149.7 210.6-169.6 279.3-31.8 3.4 5.3 6.6 10.3 9.5 14.5 3.2 1.3 6.1 2 10.5 3.1 69.5 14 95.4 82.7 97.1 132.4 5.3 92.2-89.4 132.9-161.4 142.9-90.2 12.5-220.1 27.4-301.2-37.6-75.6-70.6-30.3-199 66.3-223.6z"/></svg>