<svg xmlns="http://www.w3.org/2000/svg" viewBox="0 0 512 512"><!--! Font Awesome Pro 7.1.0 by @fontawesome - https://fontawesome.com License - https://fontawesome.com/license (Commercial License) Copyright 2025 Fonticons, Inc. --><path fill="currentColor" d="M308.4 32c-70.9 0-172.3-.1-235.7 7.5-35.3 4.2-59.6 32.5-64 64.4-14.6 106.8-8.6 190.8-3 303.9 5.9 65 66.1 76.3 120.3 70.8 116.4-3.3 202.7 4.6 313.9-.8 42-2.6 72.1-37.8 72.3-77.7 .1-49.7 .5-137.3-.2-207.5-.3-36.2-.8-68.6-1.6-90.5-1.2-31.6-23.4-58.1-56.3-62.4-57.3-6.6-93.2-7.2-145.4-7.8zM447.5 164.3c-134-7.3-242.6-10.6-381.7 .1 1.1-13.3 3.7-33.9 6.2-51.6 .9-6.5 5.1-9.3 8.3-9.7 108.1-8.9 248.5-11.5 365.8 .3 1 16.1 1 36.4 1.5 60.9zM64.3 228.6c138.7-10.8 248.5-7.7 383.7-.3 .3 62.1 .2 129.2 0 171.6 0 8.4-6 13.7-12.1 14-39.9 2.4-85 2.5-119.7 1.3-66.1-2.3-158.2-.8-232.9-.2-8 .1-13.3-5.5-13.8-11.8-4.8-65.1-5.2-116.4-5.1-168.4-.1-2-.1-4.1-.1-6.1z"/></svg>