<svg xmlns="http://www.w3.org/2000/svg" viewBox="0 0 512 512"><!--! Font Awesome Pro 7.1.0 by @fontawesome - https://fontawesome.com License - https://fontawesome.com/license (Commercial License) Copyright 2025 Fonticons, Inc. --><path fill="currentColor" d="M56 314.9c-2-.5-4.9-1.5-8.2-3.4-36.9-5.7-45.4-34.7-47.5-60.9 2-42.8 41.3-69.4 81.3-59.4 46.3 10.6 65.8 72 28.7 104.6-14.3 14.8-32.9 24.3-54.4 18.9zM239.8 193.8c22.8-11.7 46.7-1.2 62.6 15.6 37.1 32.6 17.6 94.1-28.7 104.6-40.1 10.1-79.4-16.6-81.3-59.4 2.1-26.2 10.7-55.2 47.5-60.9zm226.9 0c36.8 5.7 45.4 34.7 47.5 60.9-2 42.7-41.3 69.4-81.3 59.4-46.3-10.5-65.7-72-28.7-104.6 15.9-16.7 39.8-27.3 62.6-15.6z"/></svg>