<svg xmlns="http://www.w3.org/2000/svg" viewBox="0 0 512 512"><!--! Font Awesome Pro 7.1.0 by @fontawesome - https://fontawesome.com License - https://fontawesome.com/license (Commercial License) Copyright 2025 Fonticons, Inc. --><path fill="currentColor" d="M101.8 457.2c110.2 87 292.7 60.5 360.6-71.7 30.8-65.3 53.9-125.7 38.9-204.2-39.6-184-282-238.5-417.3-125.6-128.4 108.8-115.3 296.9 17.8 401.5zM295 437.7c-185.4 48.8-324.9-206.3-168.8-333.9 95-81.8 287.3-41.5 312.4 89.4 10.9 57.5-4.3 102-34 164.9-19.8 42-58.5 66.2-109.5 79.5zM207.8 183.4c-10.4-31.2-56.5-27-72.8-2.5-9.5 12.7-7.8 35.4 2.8 47 33.1 38.3 90.8 .7 70.3-43.7-.1-.2-.1-.3-.3-.8zm131.9-17.2c-60.6-6.2-66 80-8.2 83.3 56-1.5 67.1-77.3 8.2-83.3zm-6.9 63.6l0 0zM248.5 378.3c22.7-.3 41.8-.6 61.2-.7 17.7 0 32-14.3 32-32-7.1-19.6-18.2-31.6-29.9-31.9-.7-.1-1.2-.1-1.3-.1-19.7 0-37.7 .4-60.7 .7-29.3 .4-59.2 .8-65.4 .8-14.2-1.2-32.4 12.7-32.4 30.2 4.4 48.9 46.6 30.2 96.7 33z"/></svg>