<svg xmlns="http://www.w3.org/2000/svg" viewBox="0 0 512 512"><!--! Font Awesome Pro 7.1.0 by @fontawesome - https://fontawesome.com License - https://fontawesome.com/license (Commercial License) Copyright 2025 Fonticons, Inc. --><path fill="currentColor" d="M396.8 457.2C286.5 544.2 104 517.8 36.1 385.5 5.3 320.2-17.8 259.8-2.8 181.3 36.8-2.8 279.2-57.2 414.5 55.7 542.9 164.6 529.8 352.5 396.8 457.2zM203.5 437.7c185.4 48.8 325-206.3 168.8-333.9-94.9-81.8-287.3-41.5-312.3 89.4-11 57.5 4.3 102 34 164.9 19.8 42 58.5 66.2 109.5 79.5zM167.7 153.1c-43.9 7.5-46.7 81.6 1.6 82.3 62.6-4.5 62.9-81.9-1.6-82.3zM151.6 263c66.3 0 132.6 1.8 198.6 1.8 17.7 0 32 14.3 32 31.9 .2 58-35.6 97-80.6 112.1-75.2 24.4-180.8-15.4-182-113.1-.7-17.4 14.6-33.1 32-32.7zm50.9 71.4c33.8 24.2 81.7 25.4 106.4-5.8-39.4-.3-77.6-1-114.4-1.4 2.4 2.8 5.1 5.1 8 7.2zM353.9 170.9c38 30.4-2.6 82.5-43.5 65.8-60.1-26.5-6.7-112 43.5-65.8z"/></svg>