<svg xmlns="http://www.w3.org/2000/svg" viewBox="0 0 512 512"><!--! Font Awesome Pro 7.1.0 by @fontawesome - https://fontawesome.com License - https://fontawesome.com/license (Commercial License) Copyright 2025 Fonticons, Inc. --><path fill="currentColor" d="M147.7 88.5l51.5-1.2c12.3 11.8 32.2 32.1 45.2 50.1 30.9 45.9 100.3 25.3 147.7 28 17.4 2.3 50.4-11 52.8 14.9-.3 46.1-2 131.8 .7 173.2l0 63.4s-.1 .1-.1 .1c-72.8 1.2-144.1-2.4-216.8 .3l-.2 0c-58.6 1.8-104.2 1-170.3 .2-1.9-77.2 1.2-124.3 1-201.6 0-.2-.9-127.5-.9-127.7 45 0 82.3 .4 89.4 .3zm95.4-47.8c-22.2-25-68-15.7-97-16.2-3.8-.1-49.1-.3-90.3-.3-34.9 .2-63 33.3-61.6 64.4 .6 57 1.4 160.8 0 211.1-.6 39-1.2 75-.1 119.8 .9 34.4 28.9 61.5 62.9 61.9 65.8 .8 114.3 1.6 172.7-.2l.2 0c41-1.2 79-1.5 120.2-.5 57.7-1.9 156.1 20.7 159.5-63.9 0-68.7-2.6-161.1-.7-235.7-.8-67.7-60.9-87.9-119.4-79.7-30.2 .8-59.8 1.5-89.9 1.4-18.3-21.4-42.7-50.1-56.5-62.1l0 0zM182.7 257.3c-17.6-1.8-33.3 11.1-35 28.6-1.8 17.6 11.1 33.3 28.6 35 50.7 5.1 99.7 3.3 148 2.1 41.8-1.3 40.2-64.9-1.7-64-48 1.3-94.4 2.8-139.9-1.8z"/></svg>