<svg xmlns="http://www.w3.org/2000/svg" viewBox="0 0 512 512"><!--! Font Awesome Pro 7.1.0 by @fontawesome - https://fontawesome.com License - https://fontawesome.com/license (Commercial License) Copyright 2025 Fonticons, Inc. --><path fill="currentColor" d="M158.4 104.2c117.8-85 225.5-34.2 247.3 109.3 15.4 56.7 7 109.9 11.2 166.7 .5 14.8 1 29.6 1.1 44.1-19.3-10.9-41.5-29.5-66-32.6-38.8 3.2-68 29.1-97.9 49.1-4.1-3.1-8.5-6.7-13.2-10.4-47.9-44.2-96-50.3-152.9-10.7 1.3-101.9-5.1-239.1 70.3-315.5zm84.1 404.4c11 5.2 24 3.6 33.5-4l.1-.1c20.3-15.6 48.2-36.6 72.2-47.1 12.3 6.2 26.1 15 39.4 23.6 112.4 83.6 94.1-25.2 93.1-105.3-3.8-59.8 3.7-122.6-13.8-180.7-29.1-184.8-197.6-255.4-350-139.5-83 79.6-86.9 190.5-92.9 296.2l0 128c-.1 30.2 37.5 42 57.8 21 18.1-12.5 54.1-38.2 77.1-44.3 .3-.1 .4-.1 .2-.1 8.5-1.3 29.8 13.7 41.8 24.1 13 10.4 25.1 20.4 41.6 28.2l.1 0zM191.3 186.9c-13.2 0-24.6 8-29.4 19.5-31.7 56.4 64.5 80 61 17.8 3.3-19.2-12-37.5-31.6-37.2zm137.3 6.3c-18.1-3.9-33.9 8.8-39.7 25.2-12 38.3 41.2 59.9 60 23.8 11.6-16.8 1.7-45.4-20.3-49z"/></svg>