<svg xmlns="http://www.w3.org/2000/svg" viewBox="0 0 576 512"><!--! Font Awesome Pro 7.1.0 by @fontawesome - https://fontawesome.com License - https://fontawesome.com/license (Commercial License) Copyright 2025 Fonticons, Inc. --><path fill="currentColor" d="M146.1 104.6c40.4-9.2 89.3 4.7 118.6 42.9 25.5 33.2 76.1-5.6 50.8-38.8-90.2-123.8-310.1-77.4-296.9 86.9 7.3 78.4 73.5 136.2 121.5 189 34.1 37.1 74 74.7 116.2 104.8 14.4 10.3 34.4 6.9 44.6-7.5 10.3-14.4 6.9-34.4-7.5-44.6-37.6-26.8-74.2-61.1-106.3-96-35.8-39.1-100.5-98.9-104.7-149.7-2.2-48.6 20.6-75.9 63.6-87z"/></svg>