<svg xmlns="http://www.w3.org/2000/svg" viewBox="0 0 576 512"><!--! Font Awesome Pro 7.1.0 by @fontawesome - https://fontawesome.com License - https://fontawesome.com/license (Commercial License) Copyright 2025 Fonticons, Inc. --><path fill="currentColor" d="M246.2 385.2c26.8-1.4 51.1-2 78.1-1.9 69.6-1.1 141.2-3 212.6-.3 20.1 3.6 42.1-9.4 42-31.3 .9-46.3 1.7-108.1-.2-153.5-.5-47.1-2.4-93.4-2.7-141.1 .3-2.7-1.6-24.9-1.8-28.1-1.2-16.7-15.2-29.6-31.9-29.6-37.4 0-74.8 .6-111.9 1.2-89.6 3-179.5-1.9-269.1 1.3-27.2 2.1-32.4 26.4-30.2 49.5 2.4 40.3 2.4 80.4 2.3 122l0 14.5c.8 52.5-5.6 99.5 2.6 153.9 1.2 11.6 4 22.5 13.2 33.6 24.9 23.2 66.5 7.3 97.3 9.8l0 0zm-37.1-62.5c-3.7 .1-7.5 .2-11.2 .3-5.3-41.7 .3-91.3-.7-135.1l0-14.5c.1-35.5 .1-71.8-1.5-108.3 28.4-1.2 49.4-.7 76.8 0 52.4 1.6 106.3 .3 158.6-.5 27.1-.4 54-.9 80.8-1.1 .8 45.4 2.2 90.8 2.8 136.7 .7 24.4 1.4 48.2 1.3 72-40.5-35.7-82-70.4-117.4-103.5-13.6-13.4-38.1-10.7-48.4 5.5-21.7 27.5-53 54.5-75.7 81.1-21.6 23.3-42.4 45.7-65.2 67.3zm261.5-5c-57.9-1.2-111.3 2.1-168.4 1.7 7.3-7.8 14.6-15.6 21.8-23.4 19.1-20.6 36.1-38.8 55.5-57.9 23.5 20.6 62.2 54.2 91.1 79.5zM293.3 119.4c-28.8-38.4-78.9 1.9-54.6 41.2 29.4 46.7 98.8-3.2 54.6-41.2zm-21.2 58.1c.7 .1 1.4 .1 2.2 .1-.4 0-1.1 0-2.2-.1zM64.4 160c-.3-41.7-64.1-41.6-64 .4 .8 85.4 7.2 170.1 7.1 254.8 1.8 58.3 51.7 94.8 102.8 95.8 121.2 1.8 214.5 3.5 304.5-5.6 41.7 1.9 45.1-61.6 3.1-63.9-94.6 7.7-181.3 8-306.4 5.5-31.9-1.2-42.9-23.4-40.3-47.5 0-80.4-6.4-160-6.9-239.6z"/></svg>