<svg xmlns="http://www.w3.org/2000/svg" viewBox="0 0 576 512"><!--! Font Awesome Pro 7.1.0 by @fontawesome - https://fontawesome.com License - https://fontawesome.com/license (Commercial License) Copyright 2025 Fonticons, Inc. --><path fill="currentColor" d="M300.1-31.9c-20.6-7.6-32.6 5.9-52.8 14.7-29.1 14.6-70.5 35.4-107.4 57.6-46.1 31-102.2 58.8-107.7 118.3-.3 16.5 13.8 31.4 30.3 32l1.2 171.7c.2 17.7 14.6 31.9 32.3 31.8 17.7-.1 31.9-14.6 31.7-32.2L126.5 189c22-.4 43.8-.5 66.7-.4l-2.7 177.1c-.3 17.7 13.9 32.2 31.5 32.5s32.2-13.9 32.5-31.5l2.7-177.8c24.4 .1 48 .2 72.1 1-1.7 59.6-3.3 130-5 175.6-1.2 41.8 62.4 44 64 2.2l1.2-33.5 0-.4c.4-20.5 2.8-104.9 3.8-142.2 6.9-.1 13.8-.2 20.5-.3 12.4-.2 24-.4 34.8-.3 .4 32.9 1.4 129.2 1.5 140.1l-1 37.2c-.5 17.7 13.5 32.4 31.1 32.8 17.7 .4 32.4-13.5 32.8-31.2l1-37.6c0-10.3-1.1-107.9-1.5-141.3 38.1-1.7 37.6-48.5 21.1-74.4-22.1-29.3-52.7-38.6-81.2-60.6-48.1-32-98.8-66-152.3-87.6l0 0zM420.8 111.5c7.6 5.1 15.2 10.1 22.8 15.1-65.6 2-131.9-2.4-196.7-2-39.7-.1-80.4-.4-118.5 .3 40.4-31 103.3-62.8 144.6-83.5 5.8-2.9 11.3-5.7 16.4-8.3 43.3 19.4 89.8 50.7 131.3 78.3zm88.7 342.2c-151.9 3-304.2-6.7-456.6 .5-41.9 1.4-39.9 65 1.9 64l56.6-1.6 .3 0c132.4-4.3 265.7 4.5 399.3 1.2 41.9-1.1 40.4-64.7-1.3-64z"/></svg>