<svg xmlns="http://www.w3.org/2000/svg" viewBox="0 0 576 512"><!--! Font Awesome Pro 7.1.0 by @fontawesome - https://fontawesome.com License - https://fontawesome.com/license (Commercial License) Copyright 2025 Fonticons, Inc. --><path fill="currentColor" d="M48-28.3C34.5-39.7 14.3-38 2.9-24.6-18.4 2.3 8 21.8 27.6 41.1 46.7 62 68.5 81.7 89.9 99l0 0c48.4 38.9 85.9 87.8 131.2 127.7 104.2 102.6 199 210.8 302.8 312.9 12.4 12.6 32.6 12.8 45.3 .4 12.6-12.4 12.8-32.6 .4-45.2-37.3-37.9-75.1-77.7-112.7-115.3-108.3-111.2-212.2-227.9-326.8-330.3-30.7-23.4-53.6-51.6-82.1-77.5zM243.7 69.4c115.7-27.7 198.1 53.6 174.3 171.1-9.2 40.7 52.9 55.1 62.4 14.2 33.4-154.2-81.1-285.1-244.3-248.9-41.5 5.2-34 68.3 7.6 63.6zm44.2 314.2c0-17.7-14.3-32-32-32l-19 0c-.9-17.8-2.9-41.8-23.5-47.6-35.4-12.1-66.4-46-79.3-89.5-5-17-22.8-26.6-39.8-21.6-68.3 27.8 38.4 150.6 78.8 163.5l3 30.4c1.6 16.4 15.4 28.8 31.8 28.8l48 0c17.7 0 32-14.3 32-32zm58.4 132.8c41.8-.9 40.8-64.5-1-64-32.3 .5-64.7 1.5-97.2 3.1-41.8 2.3-38.6 65.9 3.3 63.9 31.6-1.6 63.2-2.6 94.9-3.1z"/></svg>