<svg xmlns="http://www.w3.org/2000/svg" viewBox="0 0 576 512"><!--! Font Awesome Pro 7.1.0 by @fontawesome - https://fontawesome.com License - https://fontawesome.com/license (Commercial License) Copyright 2025 Fonticons, Inc. --><path fill="currentColor" d="M348 480c-82.7 0-201.2 0-272.8-7.9-35-3.9-60.1-31.3-65.2-63.5-16.7-106.9-9.9-192.2-3.3-305.6 8.3-72.2 75.2-73.2 132.7-69.6 134.3 3.4 235.3-4.9 363.7 1.1 42.1 2.4 72.9 37.6 73 78 .4 75.5 .7 232.5-2.1 297.4-1.3 32.3-24.6 58-57.1 62-66 6.9-108.8 7.6-168.9 8.2zM82.3 408.5c125.4 9.5 290.8 12.4 427.6-.4 3-63.6 2.4-218.6 2.2-295.4 0-8.4-6.1-14-12.7-14.4-126.3-5.8-229.5 2.4-361.4-1-19.4 3.6-68-12.1-67.9 14.6-5.8 109.9-12.6 186.2 3.3 287.8 1.3 5.6 5.3 8.3 8.9 8.7zM375.1 294.2c-24 60.1-102.4 77-152.2 36.9-39.9-38.2-42-107.5 1.2-146.2 78.7-67.2 195.7 9.8 151 109.3zM266.7 232.5c-13.7 12.3-14.3 38.3 .4 52.3 4.3 3.5 22.4 3.8 29.3 2.2 18.9-.3 27.7-38.3 22.7-46.8-7.1-19.8-38.5-20.4-52.3-7.7z"/></svg>