<svg xmlns="http://www.w3.org/2000/svg" viewBox="0 0 512 512"><!--! Font Awesome Pro 7.1.0 by @fontawesome - https://fontawesome.com License - https://fontawesome.com/license (Commercial License) Copyright 2025 Fonticons, Inc. --><path fill="currentColor" d="M261.9 49.6c20.4-19.1 3.9-56.8-24.3-54.4-30.8 1.3-64.5 .9-100.4 22.8-115.9 72.6-168.4 207.8-122.9 341.3 49.8 122.3 190 174.8 312.3 149.7 43.7-13.8 102.3-45.9 134.1-80.1 9.2-13.8 18.9-29.8 26.5-44.4 13.2-27.3-19.2-56.6-44.8-41.2-23.9 10-75.3 1.4-92.4-9.2-52.1-30.2-97.2-56.8-113.3-131.1-17.7-70.8-.9-100.4 25.2-153.5zM182.9 66.5c-39.1 85.8-8.9 219.7 67.2 278.1 42 30.3 80 60 133.8 65.3-47.8 30.4-79.1 47.6-137.1 39.2-223.2-9.1-243.2-291.4-64-382.7z"/></svg>