<svg xmlns="http://www.w3.org/2000/svg" viewBox="0 0 512 512"><!--! Font Awesome Pro 7.1.0 by @fontawesome - https://fontawesome.com License - https://fontawesome.com/license (Commercial License) Copyright 2025 Fonticons, Inc. --><path fill="currentColor" d="M365.3 7.5c57.5 38.5-10.5 109.5-60.9 80.5-23.7-13.7-21-48.2-11.1-69 13.4-30.1 52.9-31.6 72-11.5zM216.8 17.5c27.4 27.3-6.7 93.2-50.3 79.1-78.3-28.2-9.5-151 50.3-79.1zM73.8 143.2c41.1 32.7-9.2 106.5-53.7 69.7-27.1-22.5-25.2-79.5 21.2-87.6 13.9-1.6 26.7 6 32.5 17.9zM195.7 158c56.9-33.4 114.1 .8 159.5 36.7 64 55 102.4 82.6 121.2 162.4 16.4 116.5-124.9 195.9-212 108.3-81.1 78.5-240.4 55.9-233-75.8 3.6-68.5 53-110.4 90.6-158.8 17.3-22.1 42.5-54.2 73.8-72.8zm53.8 239.6c23-16.4 46.3 6.9 60.9 23.3 22.1 21.6 48.9 21.9 70.3 9.7 101.7-62.3-58.8-199.2-130.4-222.4-46.7 3.5-68.6 57.7-101.5 90.7-74.1 70.5-80.4 181.5 46.8 137.8 18.1-8.6 33.8-28.9 54-39.1l0 0zm211.3-268c11.1-.4 21.2 4.9 27.2 13.3 41.6 25.6 9.9 91.4-36.4 83-52.4-10.4-49.1-91.5 9.2-96.4z"/></svg>