<svg xmlns="http://www.w3.org/2000/svg" viewBox="0 0 576 512"><!--! Font Awesome Pro 7.1.0 by @fontawesome - https://fontawesome.com License - https://fontawesome.com/license (Commercial License) Copyright 2025 Fonticons, Inc. --><path fill="currentColor" d="M8.9-22.1c12.2-12.8 32.5-13.2 45.2-1 33.6 31.8 131 126.5 163.8 156.2l.1 .1c45.5 40.6 89 87.2 130.3 131.6 49.1 52.8 98.1 104.7 148.9 154.9l67.7 70.4c12.3 12.7 11.9 33-.9 45.2s-33 11.9-45.2-.9l-67.5-70.1C400 413.6 350.7 361.3 301.8 308.8 246.9 247.4 189 193.4 128.8 137L9.9 23.1C-2.9 10.9-3.3-9.4 8.9-22.1zM157.5 252.6c27.1 28.8-10.3 54.7-29.4 74.8-12.4 12.6-25.9 24.1-38.8 36.2l6.8 84.3c34-3.7 67.9-8 101.4-13.2 15.6-18.8 31.2-37.5 47.1-56 27.4-31.6 75.7 9.8 48.5 41.7-7.5 8.6-31 35.9-37.8 44.5-33.1 49.4-101.7 35.6-152.7 46.7-35.9 3.9-67.4-22.8-70.3-58.3-.4-46.3-21.6-106.8 13.2-136.4 17.2-16.1 28.2-24.6 43.6-41.1 17.2-19.1 43.2-47.9 68.3-23zM340 121c-32.9 25.9-72.5-23.7-39.9-50 6.4-4.7 78.9-64.3 84.3-65.4 86.1-39.5 170.3 43.9 155.3 129.7-1.3 22.7-70.2 90.7-83.2 109.4-27.2 31.8-75.7-9.3-48.8-41.4l69.4-82c6-31.9-31.2-74.9-64.2-58.5L340 121z"/></svg>