<svg xmlns="http://www.w3.org/2000/svg" viewBox="0 0 512 512"><!--! Font Awesome Pro 7.1.0 by @fontawesome - https://fontawesome.com License - https://fontawesome.com/license (Commercial License) Copyright 2025 Fonticons, Inc. --><path fill="currentColor" d="M340.6 103.2c5.3-4.2 13.1-9.8 21-15.1 39.6 37.2 62 60.3 74.5 74.2-13.3 12.4-27.2 24.2-41.8 36.2-24.3 20.1-27 51.3-25 71 2.1 127.3-138.2 130.7-232.7 156.2 22.7-26.1 46.8-52.8 68.8-75.9 43.5 9.1 89.1-40 65.7-80.2-31.5-61.1-113.7-35.5-107.2 31.1-23.5 24.3-49 52.6-73 80.2 1.6-12 3.1-25.2 4.4-37.4 7.8-82.2 21.3-163 101.1-191.2-.1 0-.1 0 .2 0 18.6-3.5 47.8-4.6 65.8-5.6 32.5-.6 53.9-25.6 78.3-43.5zM64 508.6c7.3-.8 15.7-3.2 23.5-5.6 22.6-6 45.7-11 69.3-16.1 25.9-5.5 52.8-11.6 79.1-18.6 130-28.7 198.8-81.5 199.1-220.4 113.9-87.3 81.2-98.8-31.1-207.7-19.2-18-49.9-23.6-74.8-7.3-26.6 15.2-43.6 37.4-69.8 49.9-216.9-13.4-231.9 215.7-238.8 375.1-5.8 32.1 17.3 55.1 43.5 50.8z"/></svg>