<svg xmlns="http://www.w3.org/2000/svg" viewBox="0 0 512 512"><!--! Font Awesome Pro 7.1.0 by @fontawesome - https://fontawesome.com License - https://fontawesome.com/license (Commercial License) Copyright 2025 Fonticons, Inc. --><path fill="currentColor" d="M234.5 84c16.8 28.5 3.2 74.2-17.6 95.8-48 55.8 27.4 140.9 91.6 121.3 17.3-4.1 34.1-10.3 50-20.4 11.7-7.4 20-14.8 40.2-15.6 38.6 2.4 52.5 28.9 69 51.4 21.2 28.1 42.9 67 19.8 105.2-87.5 129.1-280.5 100.6-376.8 6.8-78.9-69.8-111.4-159.7-110.5-259.4 4-59.8 38.9-142.8 102-166.6 57.9-12.3 109.3 33 132.3 81.4zM119.7 64.3c-144.8 126.5 14.1 382.6 182.3 380.4 57.4-.4 112.1-18.7 131.5-58.4-3-16.2-23-40.6-34.9-55.3-67 48.6-167.9 50.6-222.7-15.3-28.9-33.6-48.5-83.5-33.4-129.9 7.1-26.9 27.2-45.4 35.9-65.7-1.8-22.9-34.9-56-58.7-55.9zm198.5-32c17.6-1.1 32.8 12.3 34 29.9l3.1 49.7c35.2-36.7 68.2-73.8 110.6-105.5 14.3-10.4 34.3-7.2 44.7 7.1 10.4 14.3 7.2 34.3-7 44.7-24.4 17.8-45 38.9-67.7 62.3-14.6 15.1-29.1 29.1-43.2 46.1 16.6 1.2 36.6 2.1 52.2 1.7 41.8-1.1 43.7 62.6 1.9 64-29.9 1.3-55.3-3.4-85.2-1.5-24.7 2.9-62.4 5.3-64.5-28.5L288.2 66.2c-1.1-17.6 12.3-32.8 29.9-34z"/></svg>