<svg xmlns="http://www.w3.org/2000/svg" viewBox="0 0 512 512"><!--! Font Awesome Pro 7.1.0 by @fontawesome - https://fontawesome.com License - https://fontawesome.com/license (Commercial License) Copyright 2025 Fonticons, Inc. --><path fill="currentColor" d="M426.3 32c-123.2 2-138.4 121.7-139.3 217.6-9.2 90.2-4 220.5 121.8 201.1 4.7-.4 8.4-.8 13.2-1 72.4 1.5 103.3-60.1 94.9-126.2 7-103.3-90.6-108.2-164.6-95.5 0-40.4 6.5-88.6 29.9-117.9 1.3-1.2 4-3 12.4-6 12.4-4.4 22.7-8.5 31.7-8 41.8-.2 41.9-63.8 0-64zM348.9 326.8c-.6-11.3-.5-23.1-.2-34.8 32 .7 75.4-15.4 100.6 4.1 6.1 13.7 3.3 44.3 3.7 59.9-1.6 25.3-12.5 28.9-32.8 29.5-57.3 6.8-66.7 3.5-71.4-58.7zM148.2 35.8c-130.3-14-145.7 89.7-149 194.8 3.6 58-10.4 121.9 14 175.5 22.7 52.2 98.9 48.1 144.4 36.4 56.4-12.4 65.8-70.9 64.4-114.1 5.6-115.2-59.4-120.9-158.2-113.2 1.9-35.3 6.8-68.2 17.6-97.7 6.4-16.8 42.4-20.4 59.8-18 41.6 4.3 48.5-58.9 6.9-63.6zM63.5 308.2c-.2-9.6-.4-19.2-.5-28.8 27.5-1.2 60.3-3.5 86.5 .3 10.3 7.4 8.1 31.2 8.6 46.6-1.2 18.7 3.1 47.2-14.2 53.9-19.1 4.4-51.1 9-68.4 3.2-19.5-20.6-8.5-50.6-12-75.1z"/></svg>