<svg xmlns="http://www.w3.org/2000/svg" viewBox="0 0 448 512"><!--! Font Awesome Pro 7.1.0 by @fontawesome - https://fontawesome.com License - https://fontawesome.com/license (Commercial License) Copyright 2025 Fonticons, Inc. --><path fill="currentColor" d="M437.7 504.1c-6 6.3-14.4 9.9-23.1 9.9-27.8 0-67.5-.5-107.1-.9l-.8 0c-40-.5-79.9-.9-108-.9-29.9 0-93-7-127.4-11.1-30.9-3.7-54.5-28.9-56.1-59.9-3.9-74.6-14.7-288.3-14.7-347.2 0-.6 0-1.2 0-1.9 0-6.6-.1-18.9 2.5-30.4 2.9-13.1 11.4-33.8 35.1-41.9 47.2-16.2 101.2-19.7 152.1-19.6 25.7 .1 51.4 1 75.7 2l.9 0c24.2 .9 46.8 1.8 67.7 1.8 1.4 0 3.2 0 5.4 0 9.1-.1 23.9-.2 38.1 .7 8.8 .6 18.7 1.7 27.8 3.8 8.2 1.9 20.3 5.6 29.9 14.1 6.9 6.1 10.8 14.8 10.8 24 0 40-.5 86-1.1 134.1-1.2 103-2.5 215.8 1.1 299.8 .4 8.7-2.8 17.2-8.9 23.5zM382.5 69.3c-2.7-.3-5.7-.6-8.9-.8-11.3-.8-22.6-.7-31.8-.6-2.6 0-5 0-7.3 0-22.2 0-45.9-.9-69.5-1.8l-1.6-.1c-24.4-1-49-1.9-73.4-1.9-46.5-.1-89.4 3.1-125.1 14.1-.2 1.3-.3 2.9-.4 4.8-.1 2.8-.1 5.4-.1 8.5 0 .7 0 1.5 0 2.3 0 56.6 10.6 267.5 14.6 343.6 36 4.3 94.4 10.6 119.6 10.6 28.6 0 68.9 .5 108.8 .9l.4 0c25.8 .3 51.3 .6 73.6 .8-2.2-81.1-1-181.5 0-272.4 .4-38.4 .9-75.1 1-108z"/></svg>