<svg xmlns="http://www.w3.org/2000/svg" viewBox="0 0 640 512"><!--! Font Awesome Pro 7.1.0 by @fontawesome - https://fontawesome.com License - https://fontawesome.com/license (Commercial License) Copyright 2025 Fonticons, Inc. --><path fill="currentColor" d="M47.6-31.5c26.9-23.8 51.8 7.9 67.7 27.8 124 131.8 258.8 251.8 379.8 387.4 25.3 27.4 52.8 52.4 81.1 78.8 20.9 19.7 57.3 43.6 31.4 73.3-12.1 12.9-32.3 13.5-45.2 1.4-154.9-144.1-292.8-304.4-448.9-448.7-24.2-23.3-46.2-50.4-68.2-74.8-11.9-13.1-10.9-33.3 2.2-45.2zM311 2.3c38.5-5.7 70.3 18.3 105.3 25.6 45.8 17.3 128.2 28.1 130.4 90.5 .7 37.8 3.2 88.5 .7 126.9-.8 26.7 3.1 65.3-33.1 66-17.7 0-32-14.3-32-32 2.3-51.8 2.7-106.8 .5-158.2-47.3-24-107.9-38.1-158.2-55.8l-30 10.3C254.8 89.2 234.2 29 273.6 15.2L311 2.3zM128.3 189c17.7 0 32 14.3 32 32 0 35.7 2.7 64 12.9 94.8 21.4 68.4 95.9 91.9 150.1 126.8 34.1-38 86.1 9.8 47.8 43.7-10.5 8.3-19.3 16.3-34 21-38.6 8.9-79.7-32.3-112.6-48.6-51.3-28.7-93.9-62.8-112.2-122.8-9.4-36.9-40.8-145.3 15.9-146.9z"/></svg>