<svg xmlns="http://www.w3.org/2000/svg" viewBox="0 0 512 512"><!--! Font Awesome Pro 7.1.0 by @fontawesome - https://fontawesome.com License - https://fontawesome.com/license (Commercial License) Copyright 2025 Fonticons, Inc. --><path fill="currentColor" d="M315 71.7c48 7.6 80.2 25.7 92.3 54.8 24.9 59.9 37.4 119 40.4 183.3-13.1 18.1-28.3 34.8-47.8 46.2-27.7 18.8-13.8 65.3-17 98.5-14.1 3.7-28 5.6-42.3 6.4 .3-4.4 .5-8.9 .8-13.6 2.3-26.1 7.8-70.6-30.4-71.1-37 .9-31.8 40.4-33.5 67.6l0 .4c-.4 6-.8 12.3-1.1 18.8-12.1 .5-24.2 .3-36.8-.2-5.5-28.7 12.2-84.4-33.3-86.2-23.5-.2-34.8 22.1-32.1 43.3-.1 12-.3 25.7 .7 39.4-15.7-.5-31.2-2.5-46.8-4.5-.2-6.3-.4-12.4-.6-18.3-8.6-49.6 3.1-63.4-31.1-97.8-10.7-10.8-21.5-21.5-32.3-32.3 12.6-171 52.5-262 250.8-234.7zM64.1 481.3c-.9 16.6 11.2 31.3 28 33.4l.2 0c39 4.8 76.4 7.7 115.4 10.3 31.5 2.6 64 2.4 97.1 1.1 38.7 .5 81.4-3 118.4-15.3 15.5-3.6 26.1-17.9 24.8-33.7-1.6-20.4-1.6-50.9-.7-75.7 26.6-22.6 58.3-48.1 64.8-82.8-2.3-75.7-16.2-145.7-45.6-216.7-49.1-123.2-298.7-124.2-376.9-47.4-74.1 66.8-85.5 175-89.5 265 2.8 28.4 34.5 42.9 50.8 64L63 395.9c-1.2 29.2 2.2 57.6 1 85.4zm302-252.4c-6.5-14.9-23-22.3-38.1-17.9l-.4 .1c-48.1 10-26.7 84.6 21.1 60.4 16.8-6.7 24.8-26.1 17.4-42.6zm-37.5-18c.7-.1 .8-.2 .2 0l-.2 0zM193.8 271c36-15.7 15.6-71-21.7-60l-.4 .1c-48.2 10-26.7 84.6 21 60.4 .4-.1 .7-.3 1.1-.4zm-20.9-60.2c.7-.2 .5-.1-.2 0l.2 0z"/></svg>