<svg xmlns="http://www.w3.org/2000/svg" viewBox="0 0 576 512"><!--! Font Awesome Pro 7.1.0 by @fontawesome - https://fontawesome.com License - https://fontawesome.com/license (Commercial License) Copyright 2025 Fonticons, Inc. --><path fill="currentColor" d="M282.8 18.7c13 .6 24.4 9.1 28.7 21.4 7.9 23 24.6 53 39.1 78.6 7.9 14.1 16.5 29.3 25.1 45.6 58.8 14.7 101.4 19.1 152.7 31.2 19.8 9.3 23.8 38.3 7.1 52.4-26.8 23.9-70.9 48.2-91.9 75.4-4.7 5.2-10 11.2-15.3 16.7 6.3 46.7 15.6 89.9 21.6 136 4.1 29.6-31.2 45.7-53.8 29.2l0 0c-35.6-23.5-74.7-45.5-107.5-67.5-12.2 6.8-24.9 13.5-37.3 20.1-32 17-67.7 36-94 55.8-14.1 10.6-34.2 7.7-44.8-6.4-20.7-22.5-3.1-56.9 5.1-79.3 11.6-25.9 19.3-53.8 25.6-79.4 1-3.9 2-7.9 3.1-11.9-39.8-28.8-77.6-58.7-116.1-89.1-28.5-22-2.1-68 31-55.1 44.4-.5 87.1-7.4 131.3-20.5 6.7-13.5 17.8-35.7 24.1-48.7l.1-.2c11.7-28.5 22.6-57.5 35.8-86 5.5-11.8 17.5-19.2 30.6-18.6l0 0zM246.6 206.5c-22.4 35.6-71.9 33.9-109.4 43.7 19.8 15.1 38.4 29.1 59.2 43.8l0 0 0 0c36.8 28 .5 85.8-6.4 124 10.8-5.9 22-11.8 32.5-17.4 28.7-10.4 56.8-46.1 86.8-26 9.3 6.2 21.8 14.9 31.1 21 .8 .5 1 .7 .8 .5 8.3 4.7 20.9 12.4 34 20.5l-.5-3.6c-3.2-20.3-7.4-46.6-10.4-66.8-4.4-29.6 13.4-46.5 31-65.2 12.5-14.4 24-26.3 40.8-38.4-27.1-5.3-55.4-11.5-89.4-19.4-9.2-2.1-17-8.3-21.3-16.7-10.1-20-20.3-38-30.2-55.6-4.1-7.3-8.2-14.6-12.2-21.9-8.3 22.5-24.2 52.4-36.5 77.4z"/></svg>