<svg xmlns="http://www.w3.org/2000/svg" viewBox="0 0 448 512"><!--! Font Awesome Pro 7.1.0 by @fontawesome - https://fontawesome.com License - https://fontawesome.com/license (Commercial License) Copyright 2025 Fonticons, Inc. --><path fill="currentColor" d="M249.1 60.8c15.9 .4 29.1 1.2 41.2 3-.1 9.3-.9 20.5-1.7 30.1-43.7-1-86.8-.3-130.1 .1 .3-8.3-2.1-21.3 .7-28.3 24.1-6.3 58.4-4.6 89.9-5zM352.7 96.7C364.3 2.9 335.8 .5 250.7-3.2 172.3-4.4 82-9.3 94.5 94.2 61.2 98.7 .1 73.9-6.4 122.5-7.9 146.7 15.2 158.9 36.8 156.8l0 257.8c-.2 52 43.9 93.3 95.8 90.7l170.3 0c101.5 4.8 116.4-92.4 110.8-174.1-.6-31.1 1.7-121.6 2.8-171.4 42.2-.1 42-64.3-.3-64l-63.6 .9zm-.2 64c-2.4 77.2-3 153.3-2.7 215.6-3.2 35.8-2.9 67.2-45.7 64.9l-173.1 0c-15.9 1.6-30.4-10.3-30.3-26.7l0-256.4c83.7 .2 169.8-3 251.7 2.5z"/></svg>