<svg xmlns="http://www.w3.org/2000/svg" viewBox="0 0 640 512"><!--! Font Awesome Pro 7.1.0 by @fontawesome - https://fontawesome.com License - https://fontawesome.com/license (Commercial License) Copyright 2025 Fonticons, Inc. --><path fill="currentColor" d="M245.5-1c-164.7-22.2-204.3 184.5-57.8 246 90 29.8 188.1-55.5 163-150-15.3-46.6-55.2-87.1-105.2-96l0 0zM160.9 110.7c.1-38.2 42.2-52.8 75.4-48.3 18.9 1.3 49 32.1 53 50.8 14.3 37.7-45 87.4-79.7 71.7-29.2-10.7-48.7-40-48.7-74.2zM126.1 391.5c63-17.1 151.9-21.3 212 3.6 17.2 6 49.6 65.6 46.8 83.6 0 17.7 14.3 32 32 32 56-6.7 25.2-78.5 7.7-110.8-22-47.6-74.2-77.2-122.5-80.7-116.9-18-312.1 0-301.3 159.6 .3 41.8 63.7 41.9 64 0-1.4-46 15.2-73.7 61.2-87.2zM618.7 155.7c-23-30.5-56.9-.2-74.4 19.6-20.9-18.3-41.8-47.6-69-24.3-27.4 27 4.4 54 26.7 72.3-18 18.9-51.7 35.9-31.2 65.9 24.6 32.9 60.7-3 78.8-23.1 18.1 20.1 26.5 46.7 57.5 33.1 36.9-20.7 7.1-60.6-15.1-81.3 18.3-16.7 46.1-35 26.6-62.2z"/></svg>