<svg xmlns="http://www.w3.org/2000/svg" viewBox="0 0 640 512"><!--! Font Awesome Pro 7.1.0 by @fontawesome - https://fontawesome.com License - https://fontawesome.com/license (Commercial License) Copyright 2025 Fonticons, Inc. --><path fill="currentColor" d="M626.1 47c-38.7 99.7-129.3 104.8-202.4 38-57.2 68.1-149.4 59-202.4 .8-42 64.1-169.7 65-198-15.3-12.2-20.9-25.3-47 .6-63.3 28.6-17 48.1 12.4 56.8 34.9 7.6 13.7 6.7 20.5 22.4 23.3 31.6 5.2 44.4 1.1 52.2-3.9 10.3-6.6 19.2-18.7 36.7-45.6 11.6-19.1 41.9-19.2 53.6-.1 41.9 59.5 99.6 80.6 150.5 1.5 5.2-7.5 13.4-12.4 22.5-13.5 20.8-3.3 35 18.1 46.2 31 17.8 20.1 48.4 35.3 71.6 29.1 15.2-6.6 24.5-30.8 33.1-46.5 19.6-37 75.9-7.6 56.7 29.6zM25.7 195.8l0-.1c56.7-25.3 45.4 80.8 101.2 59.6 17.6-6.5 32.3-11.4 46.6-28.5 11.1-12.9 25.4-34.3 46.2-31 9.1 1.1 17.3 6 22.5 13.5 50.9 79.1 108.5 58 150.5-1.5l0 0c11.7-19.1 42-19 53.6 .1 17.5 26.9 26.4 39 36.6 45.6 3.1 5.2 40.4 10.6 62.2 .6 5.9-4.7 7.9-11.1 12.7-20.5 8.5-22.4 28.2-51.3 56.5-34.4 26 16.3 12.7 42.5 .6 63.3-28.3 80.3-156.1 79.5-198 15.3-52.9 58.3-145.2 67.3-202.4-.8-45.1 47.3-141.6 68.1-180.8 .8-15.4-25.2-42.7-61.9-8-82zM612.5 378c34.7 20 7.4 56.8-8 82-39.3 67.3-135.7 46.5-180.8-.8-56.4 66.9-146.9 59.8-200.2 2.9-21.3 42.5-67.1 59.2-114.8 48.6-50.6-8.4-73.6-48.3-95.5-85.4-22.5-44.4 43.1-69.7 60.4-23.7 12.3 19.7 23.4 42.1 45.4 46 34.9 6.8 41.2-1.7 56.1-29.5 4.6-8 10.3-17.9 16.8-27.9 11.6-19.1 41.9-19.2 53.6-.1l0 0c41.9 59.6 99.6 80.6 150.5 1.5 21.4-28.3 51-7.9 66.1 14.4 14 18.4 30.8 25.2 49.2 31.6 55.8 21.2 44.6-84.9 101.2-59.5z"/></svg>