<svg xmlns="http://www.w3.org/2000/svg" viewBox="0 0 448 512"><!--! Font Awesome Pro 7.1.0 by @fontawesome - https://fontawesome.com License - https://fontawesome.com/license (Commercial License) Copyright 2025 Fonticons, Inc. --><path fill="currentColor" d="M218.1-32.8c4.3 .7 10.5 2.6 16.3 7.1 18.5 7.2 23.4 30.4 22 42.5-2.6 30-24.9 43.3-52.3 45.9-36.3-3.1-42.5-30.2-43.7-51-.9-26.8 29.3-48.4 57.8-44.5zM209.7 93.5c47 2.1 58.4 61.7 91.5 78 13.6 5.2 26.6 5.2 37 .6 16.2-7.1 35.1 .3 42.2 16.4 17.1 55.9-70 57.9-102.1 42.7-28.9-12.4-38.9-27.2-54.2-45.9 3.1 28.4-2.5 59.7 2 87.3 21.4 10.3 58 9.8 84.1 11.2 127.2-8.3 120.4 96.3 97.8 184.7-3.3 17.4-20 28.8-37.3 25.6-27.8-5.1-29.2-34.6-21.6-56.7 5.2-20.3 14.4-73.6 2.1-85.1-.2-.2-.5-.5-1.2-.8-8.9-3.4-26-2.8-41.6-3.7l0 0c-51.7-1.9-137.4-1.2-146.3-68.4-4.4-34.3 1.6-62-2.3-94.7-7.4-36.1 1.4-90.7 50.1-91.2zM125.1 256.7c7.7 15.9 1.1 35-14.8 42.8-14.7 7.1-22.2 13.9-27.8 21.4-6.2 8.4-11.3 19.6-18.2 39-12.1 27.1 8.6 89.1 34.4 103.5 53.7 37.3 133.7-4.2 155.2-60.4 16.4-38.5 75.1-13.7 59 24.9-30.1 67.1-92 112.8-166.2 114.4-159.4 .1-205.6-231.8-64.4-300.2 15.9-7.7 35-1.1 42.8 14.8z"/></svg>