<svg xmlns="http://www.w3.org/2000/svg" viewBox="0 0 576 512"><!--! Font Awesome Pro 7.1.0 by @fontawesome - https://fontawesome.com License - https://fontawesome.com/license (Commercial License) Copyright 2025 Fonticons, Inc. --><path fill="currentColor" d="M208.5 20.1c6.7-16.4 25.3-24.2 41.7-17.6L278.4 14c56.3 19.4 91.1 85.1 48.1 138.1-34.7 40.9-106.2 33.7-154.2 38-38.1 .8-77.6-.3-113.9 3.2-17.6 1.7-33.2-11.3-34.8-28.8 .5-55 79.6-32.2 115.9-38 45.5-.2 95.8-.9 135.5-12.4 25.3-28.7-27.9-43.3-48.9-52.3-16.4-6.7-24.2-25.3-17.6-41.7zm65.7 94.7l.1-.1s-.1 .1-.1 .1zM402 135.6c4.5-47.1 60.7-32.6 95.4-20.4 62.6 23.5 59.7 108.2 5.6 141.2-21.1 14.6-46.7 22.6-67.9 25.7-125.8 18.5-250.3 5.3-375.7 9.1-17.7 .5-32.4-13.3-33-31s13.3-32.4 31-33c44.3-1.3 89.2-.6 133.2 .2 78.7 1.4 158.9 2.7 235.1-8.6 20.1-2.8 59.9-16.7 53.8-39.9-22.6-20.4-76 2.8-77.6-43.3zM62.1 384.2c-40.9-.1-42.3-61.8-1.8-64 23.5-.1 46.8-.5 70.9-1.1 65.1-1.5 132.9-3 200.4 6.6 29.3 4.2 57.3 19.6 74.3 44.1 29.9 38.8 14.5 109.5-34.7 130.9-26.8 12.4-88.5 21.8-88.3-23.8 .9-17.7 15.9-31.3 33.5-30.4 20.5-.3 28.5 .1 37.1-12.9 33.2-72.4-176.2-46.8-216.1-50.6-24.5 .5-49.6 1.1-75.4 1.1z"/></svg>