<svg width="24" height="24" viewBox="0 0 24 24" fill="none" xmlns="http://www.w3.org/2000/svg">
<path opacity="0.4" fill-rule="evenodd" clip-rule="evenodd" d="M7.88904 7.26106C7.0412 7.1855 6.07178 7.47814 4.93412 8.75754C4.47538 9.27343 3.68528 9.31977 3.16939 8.86102C2.65349 8.40228 2.60716 7.61218 3.0659 7.09629C4.59491 5.37679 6.29216 4.60883 8.11098 4.77093C9.82558 4.92375 11.4012 5.88841 12.7942 7.03468C14.0678 8.08263 15.1589 8.65392 16.111 8.73877C16.9588 8.81434 17.9282 8.52169 19.0659 7.2423C19.5246 6.7264 20.3147 6.68007 20.8306 7.13881C21.3465 7.59755 21.3929 8.38765 20.9341 8.90355C19.4051 10.6231 17.7079 11.391 15.889 11.2289C14.1744 11.0761 12.5988 10.1114 11.2058 8.96516C9.93218 7.9172 8.84112 7.34592 7.88904 7.26106Z" fill="#141B34"/>
<path fill-rule="evenodd" clip-rule="evenodd" d="M7.88904 15.2611C7.0412 15.1855 6.07178 15.4781 4.93412 16.7575C4.47538 17.2734 3.68528 17.3198 3.16939 16.861C2.65349 16.4023 2.60716 15.6122 3.0659 15.0963C4.59491 13.3768 6.29216 12.6088 8.11098 12.7709C9.82558 12.9237 11.4012 13.8884 12.7942 15.0347C14.0678 16.0826 15.1589 16.6539 16.111 16.7388C16.9588 16.8143 17.9282 16.5217 19.0659 15.2423C19.5246 14.7264 20.3147 14.6801 20.8306 15.1388C21.3465 15.5976 21.3929 16.3877 20.9341 16.9035C19.4051 18.6231 17.7079 19.391 15.889 19.2289C14.1744 19.0761 12.5988 18.1114 11.2058 16.9652C9.93218 15.9172 8.84112 15.3459 7.88904 15.2611Z" fill="#141B34"/>
</svg>
