<svg width="24" height="24" viewBox="0 0 24 24" fill="none" xmlns="http://www.w3.org/2000/svg">
<path opacity="0.4" d="M22.7501 13.3173V13.9325C22.7501 15.5341 22.7501 16.8127 22.6153 17.8153C22.476 18.8514 22.1799 19.7047 21.505 20.3798C20.8299 21.0548 19.9766 21.3508 18.9405 21.4901C17.9379 21.6249 16.6592 21.6249 15.0577 21.6249H8.9415C7.34026 21.6249 6.06218 21.6248 5.05966 21.4901C4.02354 21.3508 3.1703 21.0547 2.49521 20.3798C1.82009 19.7046 1.52419 18.8515 1.38486 17.8153C1.25006 16.8127 1.25007 15.5341 1.25009 13.9325V13.3173C1.25009 12.8718 1.25013 12.4511 1.25302 12.0546C2.66743 13.4488 5.77152 15.6722 11.2501 15.8602V17.1239C11.2501 17.5381 11.5859 17.8739 12.0001 17.8739C12.4141 17.8736 12.7501 17.538 12.7501 17.1239V15.8602C18.2278 15.6719 21.3308 13.4477 22.7452 12.0536C22.7481 12.4504 22.7501 12.8714 22.7501 13.3173Z" fill="#141B34"/>
<path d="M14.7496 6.3739C14.7496 5.65606 14.7489 5.17392 14.7115 4.80652C14.6754 4.45178 14.6111 4.288 14.5387 4.17957C14.4475 4.04311 14.3304 3.92603 14.1939 3.83484C14.0855 3.76239 13.9217 3.69809 13.567 3.66199C13.1996 3.62461 12.7174 3.6239 11.9996 3.6239C11.2818 3.6239 10.7996 3.62461 10.4322 3.66199C10.0775 3.69809 9.9137 3.76239 9.80527 3.83484C9.66881 3.92603 9.55173 4.04311 9.46054 4.17957C9.38809 4.288 9.32379 4.45178 9.28769 4.80652C9.25032 5.17392 9.2496 5.65606 9.2496 6.3739C9.2496 6.78812 8.91382 7.1239 8.4996 7.1239C8.08539 7.1239 7.7496 6.78812 7.7496 6.3739C7.7496 5.6874 7.74864 5.11605 7.7955 4.65515C7.84366 4.18174 7.94894 3.74252 8.21347 3.34656C8.41411 3.04629 8.67199 2.78841 8.97226 2.58777C9.36822 2.32324 9.80744 2.21796 10.2809 2.1698C10.7418 2.12294 11.3131 2.1239 11.9996 2.1239C12.6861 2.1239 13.2575 2.12294 13.7184 2.1698C14.1918 2.21796 14.631 2.32324 15.0269 2.58777C15.3272 2.78841 15.5851 3.04629 15.7857 3.34656C16.0503 3.74252 16.1555 4.18174 16.2037 4.65515C16.2506 5.11605 16.2496 5.6874 16.2496 6.3739C16.2496 6.78812 15.9138 7.1239 15.4996 7.1239C15.0854 7.1239 14.7496 6.78812 14.7496 6.3739Z" fill="#141B34"/>
<path d="M15.055 5.6239H14.9991H8.99913H8.94384C7.3415 5.62388 6.06269 5.62387 5.05968 5.75867C4.02342 5.89799 3.16939 6.19388 2.49425 6.86902C1.71759 7.64583 1.44289 8.65892 1.33117 9.91589C1.31466 10.1017 1.36786 10.2878 1.48058 10.4364C2.07251 11.2167 5.06908 14.6237 11.9991 14.6239C18.9296 14.6239 21.9267 11.2166 22.5187 10.4364C22.6314 10.2878 22.6846 10.1017 22.6681 9.91589C22.5564 8.65892 22.2816 7.64583 21.505 6.86902C20.8299 6.19388 19.9758 5.89799 18.9396 5.75867C17.9366 5.62387 16.6573 5.62388 15.055 5.6239Z" fill="#141B34"/>
</svg>
