<svg width="24" height="24" viewBox="0 0 24 24" fill="none" xmlns="http://www.w3.org/2000/svg">
<path d="M14.7493 6.375C14.7493 5.65716 14.7486 5.17502 14.7112 4.80762C14.6751 4.45288 14.6108 4.2891 14.5384 4.18067C14.4472 4.04421 14.3301 3.92712 14.1937 3.83594C14.0852 3.76349 13.9215 3.69919 13.5667 3.66309C13.1993 3.62571 12.7172 3.625 11.9993 3.625C11.2815 3.625 10.7994 3.62571 10.4319 3.66309C10.0772 3.69919 9.91343 3.76349 9.80499 3.83594C9.66854 3.92712 9.55145 4.04421 9.46027 4.18067C9.38782 4.2891 9.32352 4.45288 9.28742 4.80762C9.25004 5.17502 9.24933 5.65716 9.24933 6.375C9.24933 6.78922 8.91354 7.125 8.49933 7.125C8.08512 7.125 7.74933 6.78922 7.74933 6.375C7.74933 5.6885 7.74836 5.11715 7.79523 4.65625C7.84339 4.18283 7.94867 3.74362 8.2132 3.34766C8.41383 3.04738 8.67171 2.7895 8.97199 2.58887C9.36795 2.32434 9.80716 2.21906 10.2806 2.1709C10.7415 2.12403 11.3128 2.125 11.9993 2.125C12.6858 2.125 13.2572 2.12403 13.7181 2.1709C14.1915 2.21906 14.6307 2.32434 15.0267 2.58887C15.3269 2.7895 15.5848 3.04738 15.7855 3.34766C16.05 3.74362 16.1553 4.18283 16.2034 4.65625C16.2503 5.11715 16.2493 5.6885 16.2493 6.375C16.2493 6.78922 15.9135 7.125 15.4993 7.125C15.0851 7.125 14.7493 6.78922 14.7493 6.375Z" fill="#141B34"/>
<path d="M13.2493 13.375V13.125H10.7493V13.375C10.7493 13.8883 10.7556 13.998 10.7747 14.0693C10.8441 14.328 11.0463 14.5302 11.305 14.5996C11.3763 14.6187 11.4861 14.625 11.9993 14.625C12.5126 14.625 12.6223 14.6187 12.6937 14.5996C12.9523 14.5302 13.1546 14.328 13.2239 14.0693C13.2431 13.998 13.2493 13.8883 13.2493 13.375Z" fill="#141B34"/>
<path d="M15.057 5.625H15.0569H8.94171H8.94168C7.34009 5.62498 6.06153 5.62497 5.0589 5.75977C4.02265 5.89909 3.16958 6.19499 2.49445 6.87012C1.81931 7.54525 1.52342 8.39832 1.38409 9.43457C1.30064 10.0553 1.27119 10.7817 1.25909 11.625H22.7396C22.7275 10.7817 22.698 10.0553 22.6146 9.43457C22.4752 8.39832 22.1793 7.54525 21.5042 6.87012C20.8291 6.19499 19.976 5.89909 18.9398 5.75977C17.9371 5.62497 16.6586 5.62498 15.057 5.625Z" fill="#141B34"/>
<path opacity="0.4" d="M9.24933 13.375V13.125H1.24933V13.9326V13.9326C1.24931 15.5342 1.24929 16.8128 1.38409 17.8154C1.52342 18.8517 1.81931 19.7048 2.49445 20.3799C3.16958 21.055 4.02265 21.3509 5.0589 21.4902C6.06152 21.625 7.34013 21.625 8.94168 21.625H8.94171H15.0569H15.057C16.6585 21.625 17.9371 21.625 18.9398 21.4902C19.976 21.3509 20.8291 21.055 21.5042 20.3799C22.1793 19.7048 22.4752 18.8517 22.6146 17.8154C22.7494 16.8128 22.7493 15.5342 22.7493 13.9327V13.9326V13.125H14.7493V13.375C14.7493 13.7916 14.7552 14.1469 14.6722 14.457C14.4641 15.2335 13.8578 15.8398 13.0814 16.0479C12.7712 16.1309 12.416 16.125 11.9993 16.125C11.5827 16.125 11.2274 16.1309 10.9173 16.0479C10.1408 15.8398 9.53453 15.2335 9.32648 14.457C9.24342 14.1469 9.24933 13.7916 9.24933 13.375Z" fill="#141B34"/>
</svg>
