<svg width="24" height="24" viewBox="0 0 24 24" fill="none" xmlns="http://www.w3.org/2000/svg">
<path opacity="0.4" d="M12 22.25C17.6609 22.25 22.25 17.6609 22.25 12C22.25 6.33908 17.6609 1.75 12 1.75C6.33908 1.75 1.75 6.33908 1.75 12C1.75 13.1296 1.9329 14.2181 2.27148 15.2363C2.70956 16.5536 2.43613 18.1714 2.07617 19.1318L2.00293 19.3145C1.80203 19.788 1.8481 20.4083 2.2793 20.8398C2.5542 21.1147 2.95556 21.2709 3.37793 21.207C3.71652 21.1558 4.05383 21.0493 4.34102 20.9586L4.3584 20.9531C4.66731 20.8556 4.94458 20.7688 5.23633 20.7139C5.78228 20.6112 6.38511 20.6201 7.14453 21.0293C8.59046 21.8084 10.2448 22.25 12 22.25Z" fill="#141B34"/>
<path d="M13.0615 16.4365C14.1387 15.8665 16.25 14.4101 16.25 11.6943V10.2988C16.25 9.79434 16.2708 9.28148 15.9678 8.77832C15.6712 8.2859 15.3059 8.11268 14.9502 7.93066C14.1022 7.49676 13.0839 7.25 12 7.25C10.9161 7.25 9.89779 7.49676 9.0498 7.93066C8.69413 8.11268 8.32881 8.2859 8.03223 8.77832C7.72923 9.28148 7.74999 9.79434 7.75 10.2988V11.6943C7.75 14.4101 9.86132 15.8665 10.9385 16.4365C11.2266 16.589 11.515 16.75 12 16.75C12.485 16.75 12.7734 16.589 13.0615 16.4365Z" fill="#141B34"/>
</svg>
