<svg width="24" height="24" viewBox="0 0 24 24" fill="none" xmlns="http://www.w3.org/2000/svg">
<path opacity="0.4" d="M11.4999 21.75C17.1609 21.75 21.7499 17.1609 21.7499 11.5C21.7499 5.83908 17.1609 1.25 11.4999 1.25C5.83902 1.25 1.24994 5.83908 1.24994 11.5C1.24994 12.6296 1.43284 13.7181 1.77142 14.7363C2.2095 16.0536 1.93607 17.6714 1.57611 18.6318L1.50287 18.8145C1.30197 19.288 1.34804 19.9083 1.77924 20.3398C2.05414 20.6147 2.4555 20.7709 2.87787 20.707C3.21646 20.6558 3.55377 20.5493 3.84096 20.4586L3.85834 20.4531C4.16725 20.3556 4.44452 20.2688 4.73627 20.2139C5.28222 20.1112 5.88505 20.1201 6.64447 20.5293C8.0904 21.3084 9.74473 21.75 11.4999 21.75Z" fill="#141B34"/>
<path d="M11.4999 6.75C12.7426 6.75 13.7499 7.75736 13.7499 9C13.7499 9.81147 13.3189 10.5202 12.6747 10.916C14.4503 11.4259 15.7499 13.0605 15.7499 15C15.7499 15.4142 15.4142 15.75 14.9999 15.75H7.99994C7.58573 15.75 7.24994 15.4142 7.24994 15C7.24994 13.0608 8.54903 11.4261 10.3242 10.916C9.6804 10.5201 9.24994 9.81117 9.24994 9C9.24994 7.75736 10.2573 6.75 11.4999 6.75Z" fill="#141B34"/>
</svg>
