<svg width="24" height="24" viewBox="0 0 24 24" fill="none" xmlns="http://www.w3.org/2000/svg">
<path opacity="0.4" d="M12 1.75C13.1853 1.75 14.3228 1.95317 15.3818 2.32324C14.8275 3.07127 14.5 3.99747 14.5 5C14.5 7.48528 16.5147 9.5 19 9.5C20.0025 9.5 20.9278 9.17143 21.6758 8.61719C22.0461 9.67652 22.25 10.8143 22.25 12C22.25 17.6609 17.6609 22.25 12 22.25C10.2448 22.25 8.59046 21.8084 7.14453 21.0293C6.38511 20.6201 5.78228 20.6112 5.23633 20.7139C4.94458 20.7688 4.66731 20.8556 4.3584 20.9531L4.34082 20.959C4.05369 21.0496 3.7164 21.1558 3.37793 21.207C2.95556 21.2709 2.5542 21.1147 2.2793 20.8398C1.8481 20.4083 1.80203 19.788 2.00293 19.3145L2.07617 19.1318C2.43613 18.1714 2.70956 16.5536 2.27148 15.2363C1.9329 14.2181 1.75 13.1296 1.75 12C1.75 6.33908 6.33908 1.75 12 1.75Z" fill="#141B34"/>
<path d="M19 8.25C20.7949 8.25 22.25 6.79493 22.25 5C22.25 3.20507 20.7949 1.75 19 1.75C17.2051 1.75 15.75 3.20507 15.75 5C15.75 6.79493 17.2051 8.25 19 8.25Z" fill="#141B34"/>
<path d="M8.01782 11L8.12036 11.0049C8.62456 11.0561 9.01782 11.4823 9.01782 12C9.01782 12.5177 8.62456 12.9439 8.12036 12.9951L8.01782 13H8.00903C7.45675 13 7.00903 12.5523 7.00903 12C7.00903 11.4477 7.45675 11 8.00903 11H8.01782ZM12.0139 11C12.566 11.0002 13.0139 11.4479 13.0139 12C13.0139 12.5521 12.566 12.9998 12.0139 13H12.0042C11.452 12.9998 11.0042 12.5522 11.0042 12C11.0042 11.4478 11.452 11.0002 12.0042 11H12.0139ZM16.009 11C16.5613 11 17.009 11.4477 17.009 12C17.009 12.5523 16.5613 13 16.009 13H16.0002C15.448 13 15.0002 12.5523 15.0002 12C15.0002 11.4477 15.448 11 16.0002 11H16.009Z" fill="#141B34"/>
</svg>
