<svg width="24" height="24" viewBox="0 0 24 24" fill="none" xmlns="http://www.w3.org/2000/svg">
<path d="M8.35 1.25C8.88848 1.25 9.325 1.68754 9.325 2.22727V3.21284C9.90289 3.20453 10.5284 3.20453 11.2037 3.20454H13.2963C13.9716 3.20453 14.5971 3.20453 15.175 3.21284V2.22727C15.175 1.68754 15.6115 1.25 16.15 1.25C16.6885 1.25 17.125 1.68754 17.125 2.22727V3.29947C17.3013 3.31556 17.471 3.33437 17.6343 3.35638C18.8044 3.51407 19.7897 3.85141 20.5721 4.63573C21.3546 5.42004 21.6912 6.40758 21.8485 7.58045C21.9326 8.20706 21.97 8.92803 21.9866 9.75H2.51335C2.53001 8.92803 2.56743 8.20706 2.65148 7.58045C2.8088 6.40758 3.14536 5.42004 3.92786 4.63573C4.71035 3.85141 5.69558 3.51407 6.86572 3.35638C7.02902 3.33437 7.19874 3.31556 7.375 3.29947V2.22727C7.375 1.68754 7.81152 1.25 8.35 1.25Z" fill="#141B34"/>
<path opacity="0.4" d="M22 11.9285V14.026C22 15.808 22 17.2444 21.8485 18.3741C21.6912 19.547 21.3546 20.5345 20.5721 21.3188C19.7897 22.1031 18.8044 22.4405 17.6343 22.5982C16.5072 22.75 15.0742 22.75 13.2963 22.75H11.2037C9.42581 22.75 7.99279 22.75 6.86573 22.5982C5.69558 22.4405 4.71035 22.1031 3.92786 21.3188C3.14537 20.5345 2.8088 19.547 2.65148 18.3741C2.49996 17.2444 2.49998 15.8081 2.5 14.0261V14.0261V11.9285V11.9284C2.49999 11.1349 2.49998 10.4099 2.51335 9.75H4.46386C4.45045 10.3958 4.45001 11.1378 4.45001 12V13.9545C4.45001 15.8249 4.45208 17.1294 4.5841 18.1137C4.71235 19.0698 4.94693 19.5761 5.30673 19.9367C5.66652 20.2974 6.17166 20.5325 7.12557 20.6611C8.10752 20.7934 9.40897 20.7955 11.275 20.7955H13.225C15.0911 20.7955 16.3925 20.7934 17.3745 20.6611C18.3284 20.5325 18.8335 20.2974 19.1933 19.9367C19.5531 19.5761 19.7877 19.0698 19.9159 18.1137C20.0479 17.1294 20.05 15.8249 20.05 13.9545V12C20.05 11.1378 20.0496 10.3958 20.0362 9.75H21.9867C22 10.4099 22 11.1349 22 11.9285Z" fill="#141B34"/>
<path d="M8 14.1061C8 12.7261 9.02738 11.5228 10.5 11.5228C11.0236 11.5228 11.5113 11.6354 11.9397 11.8981C12.0505 11.966 12.1538 12.0418 12.25 12.1245C12.3462 12.0418 12.4495 11.966 12.5603 11.8981C12.9887 11.6354 13.4764 11.5228 14 11.5228C15.4726 11.5228 16.5 12.7261 16.5 14.1061C16.5 15.7425 15.3996 16.9766 14.4763 17.7357C14.0068 18.1217 12.9511 18.7303 12.5794 18.9445L12.5599 18.9557C12.363 19.0451 12.1366 19.0449 11.9396 18.9555L11.9206 18.9446C11.5494 18.7306 10.4934 18.1218 10.0237 17.7357C9.10038 16.9766 8 15.7425 8 14.1061Z" fill="#141B34"/>
</svg>
