<svg width="24" height="24" viewBox="0 0 24 24" fill="none" xmlns="http://www.w3.org/2000/svg">
<path opacity="0.4" d="M18.7113 21.7333C20.4365 21.9235 21.7504 20.4991 21.7504 18.9103V17.4402C21.7504 16.3427 20.8839 15.563 19.9766 15.398C19.4468 15.3016 18.8692 15.1405 18.3685 14.9809C17.3064 14.6423 16.0861 14.8688 15.2504 15.7045L12.9863 17.9677C10.0284 16.4015 7.59807 13.9716 6.03211 11.0135L8.35429 8.69325C9.14303 7.90451 9.40357 6.75267 9.09312 5.71221C8.92934 5.16344 8.75071 4.52185 8.63421 3.98605C8.43907 3.08892 7.63771 2.25037 6.56053 2.25037H5.09048C3.50169 2.25037 2.07729 3.56423 2.26749 5.28948C3.22053 13.9249 10.0759 20.7802 18.7113 21.7333Z" fill="#141B34"/>
<path d="M19.2934 3.29326C19.6839 2.90274 20.3169 2.90274 20.7075 3.29326C21.098 3.68378 21.098 4.3168 20.7075 4.70732L18.4145 7.00029L20.7075 9.29326C21.098 9.68378 21.098 10.3168 20.7075 10.7073C20.3169 11.0978 19.6839 11.0978 19.2934 10.7073L17.0004 8.41435L14.7075 10.7073C14.3169 11.0978 13.6839 11.0978 13.2934 10.7073C12.9029 10.3168 12.9029 9.68378 13.2934 9.29326L15.5864 7.00029L13.2934 4.70732C12.9029 4.3168 12.9029 3.68378 13.2934 3.29326C13.6839 2.90274 14.3169 2.90274 14.7075 3.29326L17.0004 5.58623L19.2934 3.29326Z" fill="#141B34"/>
</svg>
