<svg width="24" height="24" viewBox="0 0 24 24" fill="none" xmlns="http://www.w3.org/2000/svg">
<path opacity="0.4" d="M12.699 3.25009C13.3598 3.25009 13.8697 3.24054 14.3386 3.40439C14.5328 3.47226 14.7185 3.56205 14.8923 3.67099C14.144 3.98068 13.5987 4.68182 13.5134 5.51962L13.5017 5.75009C13.5017 6.99271 14.5091 8.00006 15.7517 8.00009H16.0017V8.25009C16.0017 9.49271 17.0091 10.5001 18.2517 10.5001C19.4943 10.5001 20.5017 9.49273 20.5017 8.25009V8.00009H20.7517C21.1854 8.00009 21.5888 7.87479 21.9324 7.6622C22.2387 8.04608 22.4721 8.49128 22.6101 8.97861C22.759 9.50467 22.7517 10.1248 22.7517 11.0538V15.0645C22.7517 16.4275 22.7517 17.5268 22.6355 18.3917C22.5145 19.2918 22.255 20.0495 21.6531 20.6515C21.0512 21.2534 20.2934 21.5129 19.3933 21.6339C18.5284 21.7501 17.4292 21.7501 16.0662 21.7501H7.93725C6.57425 21.7501 5.47499 21.7501 4.61011 21.6339C3.71006 21.5129 2.95222 21.2533 2.35034 20.6515C1.74854 20.0496 1.48892 19.2917 1.36792 18.3917C1.25168 17.5268 1.25168 16.4275 1.25171 15.0645V11.0538C1.25171 10.1248 1.24439 9.50467 1.39331 8.97861C1.74802 7.72582 2.72742 6.74636 3.98022 6.39169C4.5063 6.24277 5.12638 6.25009 6.05542 6.25009C6.44817 6.25009 6.55482 6.24746 6.64624 6.23154C6.91012 6.18549 7.15201 6.05547 7.33667 5.86142C7.37762 5.80641 7.48848 5.65881 7.5437 5.57919C7.65411 5.42 7.77547 5.2374 7.87768 5.08408C8.24427 4.5342 8.51927 4.10405 8.91577 3.80478C9.14312 3.63325 9.39594 3.49837 9.66479 3.40439C10.1337 3.24049 10.6436 3.25009 11.3044 3.25009H12.699Z" fill="#141B34"/>
<path d="M15.0018 13.5C15.0018 11.8431 13.6586 10.5 12.0018 10.5C10.3449 10.5 9.00177 11.8431 9.00177 13.5C9.00177 15.1568 10.3449 16.5 12.0018 16.5C13.6586 16.5 15.0018 15.1568 15.0018 13.5ZM17.0018 13.5C17.0018 16.2614 14.7632 18.5 12.0018 18.5C9.24034 18.5 7.00177 16.2614 7.00177 13.5C7.00177 10.7386 9.24034 8.49998 12.0018 8.49998C14.7632 8.49998 17.0018 10.7386 17.0018 13.5Z" fill="#141B34"/>
<path d="M17.2518 8.24998V6.74998H15.7518C15.1995 6.74998 14.7518 6.30227 14.7518 5.74998C14.7518 5.1977 15.1995 4.74998 15.7518 4.74998H17.2518V3.24998C17.2518 2.6977 17.6995 2.24998 18.2518 2.24998C18.8041 2.24998 19.2518 2.6977 19.2518 3.24998V4.74998H20.7518C21.3041 4.74998 21.7518 5.1977 21.7518 5.74998C21.7518 6.30227 21.3041 6.74998 20.7518 6.74998H19.2518V8.24998C19.2518 8.80227 18.8041 9.24998 18.2518 9.24998C17.6995 9.24998 17.2518 8.80227 17.2518 8.24998Z" fill="#141B34"/>
</svg>
