<svg width="24" height="24" viewBox="0 0 24 24" fill="none" xmlns="http://www.w3.org/2000/svg">
<path opacity="0.4" d="M22.7518 14.5645V14.5V10.5538C22.7518 9.62465 22.7592 9.00466 22.6102 8.47856C22.2556 7.22567 21.2762 6.24632 20.0233 5.89165C19.4972 5.74272 18.8772 5.75005 17.9481 5.75005C17.5553 5.75005 17.4487 5.74743 17.3573 5.73149C17.0934 5.68544 16.8515 5.55543 16.6669 5.36137C16.626 5.30643 16.5151 5.1588 16.4598 5.07915C16.3575 4.93161 16.2458 4.76403 16.1486 4.61822L16.1259 4.58403C15.7592 4.03411 15.4843 3.60402 15.0878 3.30473C14.8604 3.13319 14.6076 2.99832 14.3387 2.90434C13.8698 2.74043 13.36 2.75004 12.6991 2.75004H11.3046C10.6437 2.75004 10.1339 2.74043 9.66492 2.90434C9.39604 2.99832 9.14326 3.13319 8.91589 3.30473C8.51937 3.60402 8.24442 4.03411 7.87781 4.58403C7.77557 4.73738 7.65424 4.91993 7.54382 5.07915C7.48857 5.1588 7.3777 5.30643 7.33679 5.36137C7.15213 5.55542 6.91024 5.68544 6.64636 5.73149C6.55492 5.74743 6.4484 5.75005 6.05554 5.75005C5.12644 5.75005 4.50645 5.74272 3.98034 5.89165C2.72746 6.24632 1.7481 7.22567 1.39343 8.47856C1.24451 9.00466 1.25183 9.62465 1.25183 10.5538V14.5L1.25183 14.5645C1.2518 15.9276 1.25178 17.0267 1.36804 17.8916C1.48906 18.7918 1.74855 19.5495 2.35046 20.1514C2.95238 20.7533 3.71012 21.0128 4.61023 21.1338C5.47515 21.2501 6.57433 21.2501 7.9374 21.25H8.00183H16.0018H16.0663C17.4293 21.2501 18.5285 21.2501 19.3934 21.1338C20.2935 21.0128 21.0513 20.7533 21.6532 20.1514C22.2551 19.5495 22.5146 18.7918 22.6356 17.8916C22.7519 17.0267 22.7519 15.9275 22.7518 14.5645Z" fill="#141B34"/>
<path d="M14.0018 10.5097V10.4999C14.0018 9.94765 14.4495 9.49994 15.0018 9.49994C15.5541 9.49994 16.0018 9.94765 16.0018 10.4999V10.5097C16.0018 11.062 15.5541 11.5097 15.0018 11.5097C14.4495 11.5097 14.0018 11.062 14.0018 10.5097Z" fill="#141B34"/>
<path d="M8.00177 10.5097V10.4999C8.00177 9.94765 8.44949 9.49994 9.00177 9.49994C9.55405 9.49994 10.0018 9.94765 10.0018 10.4999V10.5097C10.0018 11.062 9.55405 11.5097 9.00177 11.5097C8.44949 11.5097 8.00177 11.062 8.00177 10.5097Z" fill="#141B34"/>
<path d="M14.8748 14.0881C15.1023 13.742 15.5678 13.6458 15.9139 13.8732C16.26 14.1007 16.3562 14.5662 16.1287 14.9123C15.2137 16.3047 13.7227 17.2502 12.0018 17.2502C10.2809 17.2502 8.78988 16.3047 7.87483 14.9123C7.64736 14.5662 7.74357 14.1007 8.08967 13.8732C8.43581 13.6458 8.90124 13.742 9.12874 14.0881C9.80991 15.1246 10.8603 15.7502 12.0018 15.7502C13.1433 15.7502 14.1937 15.1246 14.8748 14.0881Z" fill="#141B34"/>
</svg>
