<svg width="24" height="24" viewBox="0 0 24 24" fill="none" xmlns="http://www.w3.org/2000/svg">
<path opacity="0.4" d="M4.02441 3.1875C2.6335 2.91149 1.25017 3.94228 1.25 5.4209V15.4385C1.25012 16.4686 1.95787 17.3852 2.9834 17.6113L3.63574 17.749C6.81344 18.3891 8.78314 18.319 10.5127 18.0625C12.3677 17.7874 13.6966 17.3594 16 17.3594C17.4632 17.3594 18.7875 17.5204 19.6826 17.6895C20.4095 17.7837 21.1365 17.5615 21.6904 17.1582C22.2837 16.7262 22.7499 16.0301 22.75 15.1826V5.42676C22.7499 4.63549 22.3186 3.84508 21.5195 3.51855C20.5084 3.20522 18.5578 2.75 16 2.75C13.6323 2.75 12.0595 3.1919 10.4746 3.44141C8.99031 3.67507 7.31829 3.78337 4.58496 3.29395L4.02441 3.1875Z" fill="#141B34"/>
<path d="M15.0005 10.5C15.0005 12.1569 13.6573 13.5 12.0005 13.5C10.3436 13.5 9.00049 12.1569 9.00049 10.5C9.00049 8.84315 10.3436 7.5 12.0005 7.5C13.6573 7.5 15.0005 8.84315 15.0005 10.5Z" fill="#141B34"/>
<path d="M1.25 13.1963C3.65452 13.709 5.54338 15.6679 5.91504 18.1152C5.22744 18.0356 4.47354 17.9168 3.63574 17.748L2.9834 17.6104C1.95787 17.3842 1.25012 16.4676 1.25 15.4375V13.1963Z" fill="#141B34"/>
<path d="M22.75 15.1816C22.7499 16.0291 22.2837 16.7253 21.6904 17.1572C21.1365 17.5605 20.4095 17.7827 19.6826 17.6885C19.3299 17.6219 18.9106 17.5567 18.4424 17.502C19.0107 15.5152 20.6808 13.9949 22.75 13.6436V15.1816Z" fill="#141B34"/>
<path d="M18.5479 2.90234C19.8597 3.06289 20.8784 3.31891 21.5195 3.51758C22.3186 3.8441 22.7499 4.63451 22.75 5.42578V7.70605C20.4938 7.17919 18.7735 5.25993 18.5479 2.90234Z" fill="#141B34"/>
<path d="M1.25 5.41992C1.25017 3.9413 2.6335 2.91052 4.02441 3.18652L4.58496 3.29297C4.93145 3.35501 5.26103 3.4064 5.5752 3.4502C5.06942 5.49299 3.36506 7.06146 1.25 7.36523V5.41992Z" fill="#141B34"/>
<path d="M16.001 18.75C16.9103 18.75 17.7229 18.8061 18.4385 18.8945L19.1221 18.9932L19.1973 19.0088C19.564 19.1082 19.8032 19.4715 19.7402 19.8545C19.6771 20.2378 19.3336 20.5052 18.9541 20.4814L18.8779 20.4727L18.2549 20.3838C17.5996 20.3028 16.8484 20.25 16.001 20.25C13.947 20.25 12.6445 20.6406 11.042 20.9473C9.42555 21.2566 7.65489 21.4388 4.86818 20.9414C4.46054 20.8686 4.18919 20.4789 4.26173 20.0713C4.33451 19.6635 4.72409 19.3911 5.13185 19.4639C7.7075 19.9236 9.2902 19.7549 10.7598 19.4736C12.2432 19.1897 13.7607 18.75 16.001 18.75Z" fill="#141B34"/>
</svg>
