<svg width="24" height="24" viewBox="0 0 24 24" fill="none" xmlns="http://www.w3.org/2000/svg">
<path opacity="0.4" d="M11.7744 2.25C11.3759 2.61962 11.0554 2.97138 10.8232 3.25C10.6777 3.42464 10.4166 3.78039 10.3359 3.88965C9.88436 4.56705 9.88867 5.45076 10.3467 6.12402C10.4256 6.22905 10.6884 6.58299 10.8369 6.75879C11.1271 7.10225 11.552 7.55987 12.0938 8.02148C13.142 8.91454 14.8415 9.999 17 9.99902C19.1585 9.99902 20.858 8.91455 21.9062 8.02148C22.1869 7.78234 22.4349 7.54297 22.6504 7.32129C22.6752 7.75567 22.6923 8.22118 22.71 8.72266C22.7359 9.45808 22.75 10.2195 22.75 10.999C22.75 11.7785 22.7359 12.54 22.71 13.2754C22.6298 15.5486 22.6167 17.0859 21.4023 18.3096C20.7921 18.9244 20.0995 19.2373 19.2588 19.4072C18.4718 19.5663 17.5091 19.6073 16.3418 19.6572L16.2754 19.6602C15.5355 19.6918 14.7696 19.7156 13.9834 19.7305C13.1863 19.7456 12.9733 19.7597 12.7988 19.8262C12.6239 19.8928 12.4615 20.0188 11.873 20.5234L9.69336 22.3926C9.4251 22.6226 9.08286 22.749 8.72949 22.749C7.91249 22.7488 7.25022 22.0865 7.25 21.2695V19.6387C6.26419 19.5949 5.43456 19.5473 4.74121 19.4072C3.90049 19.2373 3.20788 18.9244 2.59766 18.3096C1.38331 17.0859 1.37023 15.5486 1.29004 13.2754C1.26409 12.54 1.25 11.7785 1.25 10.999C1.25 10.2195 1.26409 9.45808 1.29004 8.72266C1.37023 6.44948 1.38331 4.91214 2.59766 3.68848C3.20788 3.07366 3.90049 2.76074 4.74121 2.59082C5.52815 2.43179 6.49097 2.39072 7.6582 2.34082L7.72461 2.33789C9.00621 2.28306 10.3657 2.25298 11.7744 2.25Z" fill="#141B34"/>
<path d="M8.01782 10L8.12036 10.0049C8.62458 10.0561 9.01782 10.4823 9.01782 11C9.01782 11.5177 8.62458 11.9439 8.12036 11.9951L8.01782 12H8.00903C7.45675 12 7.00903 11.5523 7.00903 11C7.00903 10.4477 7.45675 10 8.00903 10H8.01782ZM12.0139 10C12.566 10.0002 13.0139 10.4478 13.0139 11C13.0139 11.5522 12.566 11.9998 12.0139 12H12.0042C11.452 11.9998 11.0042 11.5522 11.0042 11C11.0042 10.4478 11.452 10.0002 12.0042 10H12.0139Z" fill="#141B34"/>
<path d="M17 1.25C18.7534 1.25 20.1722 2.124 21.1133 2.93066C21.5896 3.33893 21.9625 3.74558 22.2168 4.05078C22.3444 4.20391 22.6114 4.59005 22.6797 4.68262C22.7905 4.91968 22.7704 5.20101 22.6201 5.42188C22.5509 5.5141 22.3371 5.8004 22.208 5.95312C21.9507 6.25761 21.574 6.66373 21.0957 7.07129C20.1524 7.87496 18.7337 8.75 17 8.75C15.2663 8.75 13.8476 7.87496 12.9043 7.07129C12.426 6.66373 12.0493 6.25761 11.792 5.95312C11.6629 5.8004 11.5634 5.67132 11.4941 5.5791C11.4596 5.5331 11.3989 5.44855 11.3799 5.42188C11.2081 5.16942 11.2066 4.83805 11.376 4.58398C11.3948 4.55717 11.4542 4.47192 11.4883 4.42578C11.5566 4.33321 11.6556 4.20391 11.7832 4.05078C12.0375 3.74558 12.4104 3.33893 12.8867 2.93066C13.8278 2.124 15.2466 1.25 17 1.25ZM16.9932 3.5C16.1685 3.50017 15.5 4.17168 15.5 5C15.5 5.82832 16.1685 6.49983 16.9932 6.5H17.0068C17.8315 6.49985 18.5 5.82834 18.5 5C18.5 4.17166 17.8315 3.50015 17.0068 3.5H16.9932Z" fill="#141B34"/>
</svg>
