<svg width="24" height="24" viewBox="0 0 24 24" fill="none" xmlns="http://www.w3.org/2000/svg">
<path opacity="0.4" d="M22.71 12.7764C22.7359 12.0409 22.75 11.2795 22.75 10.5C22.75 9.72053 22.7359 8.95905 22.71 8.22363C22.6298 5.95045 22.6167 4.41312 21.4023 3.18945C20.7921 2.57464 20.0995 2.26171 19.2588 2.0918C18.4718 1.93276 17.5089 1.8916 16.3416 1.8417L16.2754 1.83887C14.9255 1.78112 13.4892 1.75 12 1.75C10.5108 1.75 9.0745 1.78112 7.72461 1.83887L7.65843 1.8417C6.49109 1.8916 5.5282 1.93276 4.74121 2.0918C3.90049 2.26171 3.20788 2.57464 2.59766 3.18945C1.38331 4.41312 1.37023 5.95046 1.29004 8.22363C1.26409 8.95905 1.25 9.72053 1.25 10.5C1.25 11.2795 1.26409 12.0409 1.29004 12.7764C1.37023 15.0495 1.38331 16.5869 2.59766 17.8105C3.20788 18.4254 3.90049 18.7383 4.74121 18.9082C5.43456 19.0483 6.26419 19.0959 7.25 19.1396V20.7705C7.25022 21.5875 7.91249 22.2498 8.72949 22.25C9.08286 22.25 9.4251 22.1236 9.69336 21.8936L11.873 20.0244C12.4615 19.5198 12.6239 19.3938 12.7988 19.3271C12.9733 19.2607 13.1863 19.2466 13.9834 19.2314C14.7696 19.2165 15.5355 19.1928 16.2754 19.1611L16.3415 19.1583C17.5089 19.1084 18.4718 19.0672 19.2588 18.9082C20.0995 18.7383 20.7921 18.4254 21.4023 17.8105C22.6167 16.5869 22.6298 15.0495 22.71 12.7764Z" fill="#141B34"/>
<path d="M11.0001 9.1084V14C11.0001 14.5523 11.4479 15 12.0001 15C12.5524 15 13.0001 14.5523 13.0001 14V9.1084C13.3106 9.46593 13.6417 9.87361 13.8546 10.1465C13.9606 10.2822 14.1362 10.5144 14.1955 10.5928C14.523 11.0374 15.1483 11.1322 15.5929 10.8047C16.0374 10.4773 16.133 9.85188 15.8058 9.40723C15.7411 9.32161 15.5442 9.06134 15.4308 8.91602C15.2048 8.62647 14.8925 8.23707 14.5519 7.84473C14.2156 7.45738 13.8318 7.04392 13.465 6.71973C13.2826 6.55861 13.0803 6.39791 12.8722 6.27246C12.7142 6.1772 12.454 6.03967 12.1388 6.00684L12.0001 6C11.6229 6 11.3087 6.16356 11.1281 6.27246C10.92 6.39791 10.7176 6.55861 10.5353 6.71973C10.1685 7.04393 9.78469 7.45738 9.44838 7.84473C9.10775 8.23707 8.79544 8.62647 8.56948 8.91602C8.45607 9.06134 8.26012 9.32161 8.19545 9.40723C7.86795 9.85193 7.96267 10.4782 8.40737 10.8057C8.82429 11.1124 9.40023 11.0475 9.74038 10.6719L9.89467 10.4736C9.95389 10.3952 10.0397 10.2822 10.1456 10.1465C10.3586 9.87361 10.6897 9.46593 11.0001 9.1084Z" fill="#141B34"/>
</svg>
