<svg width="24" height="24" viewBox="0 0 24 24" fill="none" xmlns="http://www.w3.org/2000/svg">
<path opacity="0.4" d="M22.71 12.7764C22.7359 12.0409 22.75 11.2795 22.75 10.5C22.75 9.72053 22.7359 8.95905 22.71 8.22363C22.6298 5.95045 22.6167 4.41312 21.4023 3.18945C20.7921 2.57464 20.0995 2.26171 19.2588 2.0918C18.4718 1.93276 17.5089 1.8916 16.3416 1.8417L16.2754 1.83887C14.9255 1.78112 13.4892 1.75 12 1.75C10.5108 1.75 9.0745 1.78112 7.72461 1.83887L7.65843 1.8417C6.49109 1.8916 5.5282 1.93276 4.74121 2.0918C3.90049 2.26171 3.20788 2.57464 2.59766 3.18945C1.38331 4.41312 1.37023 5.95046 1.29004 8.22363C1.26409 8.95905 1.25 9.72053 1.25 10.5C1.25 11.2795 1.26409 12.0409 1.29004 12.7764C1.37023 15.0495 1.38331 16.5869 2.59766 17.8105C3.20788 18.4254 3.90049 18.7383 4.74121 18.9082C5.43456 19.0483 6.26419 19.0959 7.25 19.1396V20.7705C7.25022 21.5875 7.91249 22.2498 8.72949 22.25C9.08286 22.25 9.4251 22.1236 9.69336 21.8936L11.873 20.0244C12.4615 19.5198 12.6239 19.3938 12.7988 19.3271C12.9733 19.2607 13.1863 19.2466 13.9834 19.2314C14.7696 19.2165 15.5355 19.1928 16.2754 19.1611L16.3415 19.1583C17.5089 19.1084 18.4718 19.0672 19.2588 18.9082C20.0995 18.7383 20.7921 18.4254 21.4023 17.8105C22.6167 16.5869 22.6298 15.0495 22.71 12.7764Z" fill="#141B34"/>
<path d="M15.2294 6.73631C14.5808 6.08793 13.5294 6.08787 12.8808 6.73631L8.81536 10.8017C8.45632 11.1608 8.21184 11.6183 8.11224 12.1162L7.76458 13.8525C7.7154 14.0984 7.79234 14.3529 7.96966 14.5303C8.14698 14.7076 8.4015 14.7845 8.64739 14.7353L10.3837 14.3877C10.8816 14.2881 11.3391 14.0436 11.6982 13.6845L15.7636 9.61912C16.412 8.97051 16.412 7.91913 15.7636 7.27049L15.2294 6.73631Z" fill="#141B34"/>
</svg>
