<svg width="24" height="24" viewBox="0 0 24 24" fill="none" xmlns="http://www.w3.org/2000/svg">
<path d="M17.75 8.25V6.25H15.75C15.1977 6.25 14.75 5.80228 14.75 5.25C14.75 4.69772 15.1977 4.25 15.75 4.25H17.75V2.25C17.75 1.69772 18.1977 1.25 18.75 1.25C19.3023 1.25 19.75 1.69772 19.75 2.25V4.25H21.75C22.3023 4.25 22.75 4.69772 22.75 5.25C22.75 5.80228 22.3023 6.25 21.75 6.25H19.75V8.25C19.75 8.80228 19.3023 9.25 18.75 9.25C18.1977 9.25 17.75 8.80228 17.75 8.25Z" fill="#141B34"/>
<path opacity="0.4" d="M15.75 7.5C14.5074 7.5 13.5 6.49264 13.5 5.25V2.26063C13.007 2.2536 12.5066 2.25 12 2.25C10.5108 2.25 9.0745 2.28112 7.72461 2.33887L7.6582 2.3418L7.65591 2.34189C6.48971 2.39175 5.52763 2.43287 4.74121 2.5918C3.90049 2.76171 3.20788 3.07464 2.59766 3.68945C1.38331 4.91312 1.37023 6.45046 1.29004 8.72363C1.26409 9.45905 1.25 10.2205 1.25 11C1.25 11.7795 1.26409 12.5409 1.29004 13.2764C1.37023 15.5495 1.38331 17.0869 2.59766 18.3105C3.20788 18.9254 3.90049 19.2383 4.74121 19.4082C5.43456 19.5483 6.26419 19.5959 7.25 19.6396V21.2705C7.25022 22.0875 7.91249 22.7498 8.72949 22.75C9.08286 22.75 9.4251 22.6236 9.69336 22.3936L11.873 20.5244C12.4615 20.0198 12.6239 19.8938 12.7988 19.8271C12.9733 19.7607 13.1863 19.7466 13.9834 19.7314C14.7696 19.7165 15.5355 19.6928 16.2754 19.6611L16.3418 19.6582L16.344 19.6581C17.5103 19.6083 18.4723 19.5671 19.2588 19.4082C20.0995 19.2383 20.7921 18.9254 21.4023 18.3105C22.6167 17.0869 22.6298 15.5495 22.71 13.2764C22.7359 12.5409 22.75 11.7795 22.75 11C22.75 10.2205 22.7359 9.45905 22.71 8.72363C22.6947 8.2899 22.6794 7.88308 22.6602 7.5H21V8.25C21 9.49264 19.9926 10.5 18.75 10.5C17.5074 10.5 16.5 9.49264 16.5 8.25V7.5H15.75Z" fill="#141B34"/>
<path d="M8.01782 10L8.12036 10.0049C8.62458 10.0561 9.01782 10.4823 9.01782 11C9.01782 11.5177 8.62458 11.9439 8.12036 11.9951L8.01782 12H8.00903C7.45675 12 7.00903 11.5523 7.00903 11C7.00903 10.4477 7.45675 10 8.00903 10H8.01782ZM12.0139 10C12.566 10.0002 13.0139 10.4478 13.0139 11C13.0139 11.5522 12.566 11.9998 12.0139 12H12.0042C11.452 11.9998 11.0042 11.5522 11.0042 11C11.0042 10.4478 11.452 10.0002 12.0042 10H12.0139Z" fill="#141B34"/>
</svg>
