<svg width="24" height="24" viewBox="0 0 24 24" fill="none" xmlns="http://www.w3.org/2000/svg">
<path opacity="0.4" d="M22.71 12.7764C22.7359 12.0409 22.75 11.2795 22.75 10.5C22.75 9.72053 22.7359 8.95905 22.71 8.22363C22.6298 5.95045 22.6167 4.41312 21.4023 3.18945C20.7921 2.57464 20.0995 2.26171 19.2588 2.0918C18.4718 1.93276 17.5089 1.8916 16.3416 1.8417L16.2754 1.83887C14.9255 1.78112 13.4892 1.75 12 1.75C10.5108 1.75 9.0745 1.78112 7.72461 1.83887L7.65843 1.8417C6.49109 1.8916 5.5282 1.93276 4.74121 2.0918C3.90049 2.26171 3.20788 2.57464 2.59766 3.18945C1.38331 4.41312 1.37023 5.95046 1.29004 8.22363C1.26409 8.95905 1.25 9.72053 1.25 10.5C1.25 11.2795 1.26409 12.0409 1.29004 12.7764C1.37023 15.0495 1.38331 16.5869 2.59766 17.8105C3.20788 18.4254 3.90049 18.7383 4.74121 18.9082C5.43456 19.0483 6.26419 19.0959 7.25 19.1396V20.7705C7.25022 21.5875 7.91249 22.2498 8.72949 22.25C9.08286 22.25 9.4251 22.1236 9.69336 21.8936L11.873 20.0244C12.4615 19.5198 12.6239 19.3938 12.7988 19.3271C12.9733 19.2607 13.1863 19.2466 13.9834 19.2314C14.7696 19.2165 15.5355 19.1928 16.2754 19.1611L16.3415 19.1583C17.5089 19.1084 18.4718 19.0672 19.2588 18.9082C20.0995 18.7383 20.7921 18.4254 21.4023 17.8105C22.6167 16.5869 22.6298 15.0495 22.71 12.7764Z" fill="#141B34"/>
<path d="M16.001 11.8203C16.4178 11.1892 16.75 10.4411 16.75 9.63867C16.7499 8.10509 15.6313 6.75 14 6.75C13.3244 6.75 12.6891 6.95554 12 7.51172C11.3109 6.95554 10.6756 6.75 10 6.75C8.36874 6.75 7.25011 8.10509 7.25 9.63867C7.25 10.4411 7.58219 11.1892 7.99902 11.8203C8.42004 12.4578 8.96792 13.0372 9.49316 13.5186C10.0214 14.0027 10.5462 14.4059 10.9375 14.6865C11.1338 14.8273 11.2987 14.9378 11.415 15.0146C11.4733 15.0531 11.6667 15.1668 11.6992 15.1875C11.9227 15.2853 12.1832 15.2682 12.3945 15.1377C12.427 15.117 12.5267 15.0531 12.585 15.0146C12.7013 14.9378 12.8662 14.8273 13.0625 14.6865C13.4538 14.4059 13.9786 14.0027 14.5068 13.5186C15.0321 13.0372 15.58 12.4578 16.001 11.8203Z" fill="#141B34"/>
</svg>
