<svg width="24" height="24" viewBox="0 0 24 24" fill="none" xmlns="http://www.w3.org/2000/svg">
<path opacity="0.4" d="M22.75 12.0001C22.75 17.9372 17.9371 22.7501 12 22.7501C6.06294 22.7501 1.25 17.9372 1.25 12.0001C1.25 6.06306 6.06294 1.25012 12 1.25012C17.9371 1.25012 22.75 6.06306 22.75 12.0001Z" fill="#141B34"/>
<path d="M11.9999 11.514C11.9834 11.5203 11.9627 11.5289 11.9374 11.5403C11.8222 11.5924 11.6696 11.6786 11.4826 11.8025C11.1094 12.0498 10.679 12.3936 10.2583 12.757C9.8418 13.1168 9.45425 13.4789 9.16959 13.7525L8.71344 14.2008C8.32647 14.5948 7.69327 14.6006 7.29924 14.2137C6.90519 13.8267 6.89944 13.1936 7.2864 12.7995L7.78376 12.3104C8.0844 12.0215 8.49922 11.6336 8.95094 11.2434C9.39853 10.8568 9.90221 10.4506 10.3778 10.1354C10.6152 9.97805 10.8658 9.82991 11.1134 9.71793C11.3435 9.6139 11.6583 9.50021 11.9999 9.50021C12.3416 9.50021 12.6564 9.6139 12.8865 9.71793C13.1341 9.82991 13.3846 9.97805 13.6221 10.1354C14.0977 10.4506 14.6014 10.8568 15.049 11.2434C15.5007 11.6336 15.9155 12.0215 16.2161 12.3104L16.7135 12.7995C17.1005 13.1936 17.0947 13.8267 16.7007 14.2137C16.3066 14.6006 15.6734 14.5948 15.2865 14.2008L14.8303 13.7525C14.5456 13.4789 14.1581 13.1168 13.7416 12.757C13.3209 12.3936 12.8905 12.0498 12.5173 11.8025C12.3303 11.6786 12.1777 11.5924 12.0625 11.5403C12.0372 11.5289 12.0164 11.5203 11.9999 11.514Z" fill="#141B34"/>
</svg>
