<svg width="24" height="24" viewBox="0 0 24 24" fill="none" xmlns="http://www.w3.org/2000/svg">
<path d="M10.5 17.75V19.25C10.5 19.5261 10.2761 19.75 10 19.75H8C7.44772 19.75 7 20.1977 7 20.75C7 21.3023 7.44772 21.75 8 21.75H16C16.5523 21.75 17 21.3023 17 20.75C17 20.1977 16.5523 19.75 16 19.75H14C13.7239 19.75 13.5 19.5261 13.5 19.25V17.75H10.5Z" fill="#141B34"/>
<path fill-rule="evenodd" clip-rule="evenodd" d="M12.0002 5.5C12.5525 5.50001 13.0002 5.94773 13.0002 6.50001L13.0002 7.17082C13.3471 7.2935 13.6646 7.47812 13.9393 7.71111L14.4963 7.38622C14.9733 7.10794 15.5857 7.26908 15.8639 7.74613C16.1422 8.22318 15.9811 8.8355 15.504 9.11378L14.9475 9.43842C14.9821 9.62059 15.0002 9.80837 15.0002 10C15.0002 10.1916 14.9821 10.3794 14.9475 10.5616L15.504 10.8862C15.9811 11.1645 16.1422 11.7768 15.8639 12.2539C15.5857 12.7309 14.9733 12.8921 14.4963 12.6138L13.9393 12.2889C13.6646 12.5219 13.3471 12.7065 13.0002 12.8292L13.0002 13.5C13.0002 14.0523 12.5525 14.5 12.0002 14.5C11.4479 14.5 11.0002 14.0523 11.0002 13.5L11.0002 12.8292C10.6532 12.7065 10.3358 12.5219 10.061 12.2889L9.50403 12.6138C9.02698 12.8921 8.41466 12.7309 8.13638 12.2539C7.8581 11.7768 8.01924 11.1645 8.49629 10.8862L9.05282 10.5616C9.01824 10.3794 9.00016 10.1916 9.00016 10C9.00016 9.80837 9.01824 9.62059 9.05282 9.43841L8.4963 9.11378C8.01924 8.8355 7.8581 8.22319 8.13638 7.74613C8.41466 7.26908 9.02697 7.10794 9.50403 7.38622L10.061 7.7111C10.3358 7.47811 10.6532 7.29349 11.0002 7.17081L11.0002 6.49999C11.0002 5.9477 11.4479 5.49999 12.0002 5.5ZM12.0002 9C11.6329 9 11.3106 9.19744 11.1356 9.49677C11.0497 9.64376 11.0002 9.81457 11.0002 10C11.0002 10.1854 11.0497 10.3562 11.1356 10.5032C11.3106 10.8026 11.6329 11 12.0002 11C12.3674 11 12.6897 10.8026 12.8647 10.5032C12.9506 10.3562 13.0002 10.1854 13.0002 10C13.0002 9.81458 12.9506 9.64376 12.8647 9.49678C12.6897 9.19745 12.3674 9 12.0002 9Z" fill="#141B34"/>
<path opacity="0.4" d="M16.0549 2.25C17.4225 2.24998 18.5248 2.24996 19.3918 2.36652C20.2919 2.48754 21.0497 2.74643 21.6517 3.34835C22.2536 3.95027 22.5125 4.70814 22.6335 5.60825C22.75 6.47522 22.75 7.57754 22.75 8.94513V11.0549C22.75 12.4225 22.75 13.5248 22.6335 14.3918C22.5125 15.2919 22.2536 16.0497 21.6517 16.6517C21.0497 17.2536 20.2919 17.5125 19.3918 17.6335C18.5248 17.75 17.4225 17.75 16.0549 17.75H16.0549H7.94513H7.94512C6.57754 17.75 5.47522 17.75 4.60825 17.6335C3.70814 17.5125 2.95027 17.2536 2.34835 16.6517C1.74643 16.0497 1.48754 15.2919 1.36652 14.3918C1.24996 13.5248 1.24998 12.4225 1.25 11.0549V11.0549V8.94513V8.94511C1.24998 7.57753 1.24996 6.47521 1.36652 5.60825C1.48754 4.70814 1.74643 3.95027 2.34835 3.34835C2.95027 2.74643 3.70814 2.48754 4.60825 2.36652C5.47521 2.24996 6.57753 2.24998 7.94511 2.25H7.94513H16.0549H16.0549Z" fill="#141B34"/>
</svg>
