<svg width="24" height="24" viewBox="0 0 24 24" fill="none" xmlns="http://www.w3.org/2000/svg">
<path d="M14.4404 1.75021C16.2584 1.75021 17.4971 1.72809 18.5761 2.23458C19.6549 2.74121 20.379 3.68449 21.4697 5.05001L22.0546 5.78439C22.2054 5.9732 22.2651 6.19844 22.2441 6.41622C22.2022 6.04167 21.8857 5.75021 21.4999 5.75021H19.5829C18.6151 4.54776 18.2191 4.11655 17.7031 3.87423C17.1331 3.60663 16.4545 3.58419 14.4404 3.58419H9.55951C7.54575 3.58419 6.86767 3.60674 6.29779 3.87423C5.78171 4.11653 5.38573 4.54783 4.41791 5.75021H2.49994C2.11419 5.75023 1.79664 6.04163 1.75482 6.41622C1.73382 6.19854 1.79462 5.97313 1.94525 5.78439L2.53119 5.05001C3.62168 3.68468 4.34517 2.74121 5.42377 2.23458C6.50278 1.72798 7.74144 1.7502 9.55951 1.75021H14.4404Z" fill="#141B34"/>
<path opacity="0.4" d="M21.5 5.75067C21.9142 5.75067 22.25 6.08646 22.25 6.50067V13.5505C22.25 14.1341 22.2471 14.6794 22.2422 15.1882C21.3261 14.1545 19.9896 13.5019 18.5 13.5016L17.9824 13.5007C18.0352 13.0292 17.9044 12.2792 17.415 11.739C16.6503 10.8946 15.3549 10.7474 14.416 11.4382L14.4043 11.4479C14.334 11.501 14.1057 11.6728 13.9746 11.7751C13.7209 11.9731 13.3766 12.2504 13.0254 12.5554C12.6856 12.8504 12.2863 13.2177 11.9551 13.5925C11.7913 13.7778 11.5964 14.0178 11.4307 14.2927C11.3148 14.4849 11.0731 14.9165 11.0137 15.4899C11.0015 15.5837 10.9846 15.8193 11.0137 16.0114C11.0731 16.585 11.3148 17.0165 11.4307 17.2087C11.5964 17.4836 11.7913 17.7245 11.9551 17.9099C12.2863 18.2846 12.6855 18.6518 13.0254 18.947C13.3767 19.2519 13.7219 19.5283 13.9756 19.7263C14.1067 19.8286 14.3457 20.0101 14.416 20.0632C15.0151 20.5039 15.7595 20.6012 16.4189 20.3962C16.3383 20.5922 16.2841 20.802 16.2617 21.0212C16.2179 21.4515 16.3044 21.8591 16.4814 22.2155C15.6344 22.2493 14.6619 22.2507 13.5498 22.2507H10.4502C8.60939 22.2507 7.15129 22.2507 6.01074 22.0974C4.83844 21.9397 3.88991 21.6074 3.1416 20.8591C2.39329 20.1108 2.06096 19.1622 1.90332 17.9899C1.74998 16.8494 1.74999 15.3913 1.75 13.5505V6.50067C1.75 6.08646 2.08579 5.75067 2.5 5.75067H21.5Z" fill="#141B34"/>
<path d="M18.5 16.7517C19.4664 16.7519 20.25 17.5352 20.25 18.5017C20.25 19.4683 19.4664 20.2517 18.5 20.2517C17.9478 20.2517 17.5001 20.6995 17.5 21.2517C17.5 21.804 17.9477 22.2517 18.5 22.2517C20.5711 22.2517 22.25 20.5727 22.25 18.5017C22.25 16.4308 20.571 14.752 18.5 14.7517L15.4619 14.7507C15.6498 14.5949 15.8272 14.4518 15.9746 14.3367C16.087 14.249 16.278 14.1053 16.3428 14.0564C16.7875 13.7289 16.8822 13.1027 16.5547 12.658C16.2273 12.2135 15.6019 12.1179 15.1572 12.4451C15.0853 12.4994 14.866 12.6654 14.7441 12.7605C14.5014 12.9499 14.1746 13.2124 13.8447 13.4988C13.5199 13.7809 13.1689 14.1059 12.8916 14.4197C12.7539 14.5755 12.6128 14.7528 12.501 14.9382C12.4176 15.0765 12.2879 15.3188 12.2568 15.6189L12.25 15.7507L12.2568 15.8826C12.2879 16.1827 12.4176 16.4249 12.501 16.5632C12.6128 16.7487 12.7539 16.926 12.8916 17.0818C13.1689 17.3956 13.5199 17.7206 13.8447 18.0027C14.1746 18.2891 14.5014 18.5516 14.7441 18.741C14.866 18.8361 15.0853 19.0021 15.1572 19.0564C15.6019 19.3836 16.2282 19.2881 16.5557 18.8435C16.8828 18.3988 16.7864 17.7725 16.3418 17.4451C16.2771 17.3962 16.087 17.2525 15.9746 17.1648C15.8273 17.0498 15.6506 16.9064 15.4629 16.7507L18.5 16.7517Z" fill="#141B34"/>
</svg>
