<svg width="24" height="24" viewBox="0 0 24 24" fill="none" xmlns="http://www.w3.org/2000/svg">
<path opacity="0.4" d="M21.5 6.74995C21.9142 6.74995 22.25 7.08574 22.25 7.49995V12.9843C21.2351 11.7676 19.6979 11 18 11C14.9994 11 12.5 13.3966 12.5 16.4345L12.5088 16.7587C12.5916 18.2594 13.2504 19.4666 14.2939 20.4394L14.7217 20.8222C14.9546 21.0372 15.2372 21.3162 15.5107 21.6074C15.7267 21.8373 15.9123 22.0516 16.0566 22.2294C15.3133 22.2492 14.4803 22.25 13.5498 22.25H10.4502C8.60943 22.25 7.15127 22.25 6.01074 22.0966C4.83855 21.939 3.88986 21.6066 3.1416 20.8584C2.39338 20.1101 2.06095 19.1615 1.90332 17.9892C1.74998 16.8487 1.74999 15.3906 1.75 13.5498V7.49995C1.75 7.08582 2.0859 6.75009 2.5 6.74995H21.5Z" fill="#141B34"/>
<path d="M14.0002 9.74995C14.4145 9.74995 14.7502 10.0857 14.7502 10.5C14.7502 10.9142 14.4145 11.25 14.0002 11.25H10.0002C9.58603 11.25 9.25024 10.9142 9.25024 10.5C9.25024 10.0857 9.58603 9.74995 10.0002 9.74995H14.0002Z" fill="#141B34"/>
<path d="M18 12.25C20.3337 12.25 22.25 14.1103 22.25 16.4345C22.2499 17.7701 21.6906 18.8108 20.6768 19.6835C20.0922 20.1868 19.0443 21.2912 18.6221 21.9189C18.4804 22.1293 18.2419 22.2539 17.9883 22.25C17.7344 22.2459 17.4992 22.1134 17.3643 21.8984C16.9755 21.2792 15.9215 20.1985 15.3232 19.6835C14.3094 18.8108 13.7501 17.7701 13.75 16.4345C13.75 14.1103 15.6663 12.25 18 12.25ZM17.998 15C17.1732 15 16.5049 15.6715 16.5049 16.5C16.5049 17.3284 17.1732 18 17.998 18H18.0107L18.1641 17.9931C18.9171 17.9163 19.5049 17.2766 19.5049 16.5C19.5049 15.7233 18.9171 15.0846 18.1641 15.0078L18.0107 15H17.998Z" fill="#141B34"/>
<path d="M15.0283 1.74996C15.8193 1.74996 16.4825 1.74924 17.0293 1.79976C17.5972 1.85227 18.1155 1.96535 18.6113 2.23238C19.107 2.49941 19.475 2.86367 19.8145 3.29976C20.1413 3.71973 20.4818 4.26011 20.8887 4.90523L22.1104 6.84371C22.2225 7.02156 22.2642 7.22038 22.2442 7.41206C22.2006 7.03931 21.8845 6.74996 21.5 6.74996H19.7754L19.2149 5.86128C18.7886 5.18556 18.5027 4.73515 18.2451 4.40425C18.0005 4.09004 17.8247 3.94308 17.6494 3.84859C17.474 3.75409 17.2505 3.68531 16.8408 3.64742C16.41 3.6076 15.8568 3.60738 15.0283 3.60738H12.9766V6.74996H11.0244V3.60738H9.02638C8.21605 3.60738 7.67568 3.60812 7.25392 3.64644C6.85301 3.6829 6.63303 3.74778 6.45997 3.83882C6.28688 3.92998 6.11171 4.0729 5.86622 4.37691C5.60813 4.69659 5.32095 5.13175 4.89064 5.78511L4.25489 6.74996H2.50001C2.11563 6.75008 1.79842 7.03933 1.75489 7.41206C1.73428 7.21443 1.78008 7.00929 1.89943 6.82808L3.23536 4.79976C3.64637 4.17572 3.99034 3.6513 4.31837 3.24507C4.65896 2.82333 5.02514 2.47109 5.51368 2.21382C6.00228 1.95656 6.5108 1.84845 7.06739 1.79781C7.60333 1.74908 8.25247 1.74996 9.02638 1.74996H15.0283Z" fill="#141B34"/>
</svg>
