<svg width="24" height="24" viewBox="0 0 24 24" fill="none" xmlns="http://www.w3.org/2000/svg">
<path opacity="0.4" d="M12 22.75C17.9371 22.75 22.75 17.9371 22.75 12C22.75 6.06294 17.9371 1.25 12 1.25C6.06294 1.25 1.25 6.06294 1.25 12C1.25 17.9371 6.06294 22.75 12 22.75Z" fill="#141B34"/>
<path d="M11.9995 6.5C11.4472 6.5 10.9995 6.94772 10.9995 7.5V14.5488C10.7895 14.3293 10.5724 14.0907 10.3589 13.8447C9.93994 13.3622 9.55027 12.8764 9.26416 12.5098C9.12169 12.3272 8.88505 12.013 8.80518 11.9072C8.47776 11.4626 7.85142 11.3671 7.40674 11.6943C6.96216 12.0218 6.86763 12.6481 7.19483 13.0928C7.28014 13.2057 7.53803 13.5481 7.68799 13.7402C7.98714 14.1236 8.39992 14.6379 8.84913 15.1553C9.2941 15.6678 9.79499 16.206 10.2681 16.624C10.5034 16.8319 10.755 17.0318 11.0083 17.1846C11.2343 17.3208 11.5893 17.5 11.9995 17.5L12.1509 17.4922C12.4965 17.456 12.793 17.3038 12.9907 17.1846C13.2441 17.0318 13.4957 16.8319 13.731 16.624C14.204 16.206 14.7049 15.6678 15.1499 15.1553C15.5991 14.6379 16.0119 14.1236 16.311 13.7402C16.461 13.5481 16.7199 13.2057 16.8052 13.0928C17.1324 12.6481 17.0369 12.0218 16.5923 11.6943C16.1476 11.3672 15.5213 11.4627 15.1939 11.9072C15.114 12.013 14.8773 12.3272 14.7349 12.5098C14.4488 12.8764 14.0591 13.3622 13.6401 13.8447C13.4266 14.0907 13.2096 14.3293 12.9995 14.5488V7.5C12.9995 6.94772 12.5518 6.5 11.9995 6.5Z" fill="#141B34"/>
</svg>
