<svg width="24" height="24" viewBox="0 0 24 24" fill="none" xmlns="http://www.w3.org/2000/svg">
<path opacity="0.4" d="M22.25 14.0308V14V13.9692C22.25 12.3584 22.25 11.0832 22.1309 10.0752C22.009 9.04424 21.7537 8.19522 21.1719 7.4863C20.9746 7.24589 20.7541 7.02541 20.5137 6.82809C19.8048 6.2463 18.9557 5.99098 17.9248 5.86911C16.9168 5.74996 15.6416 5.74996 14.0308 5.74997H14H10H9.96922C8.35839 5.74996 7.0832 5.74996 6.0752 5.86911C5.04427 5.99098 4.19525 6.2463 3.48633 6.82809C3.24592 7.02541 3.02544 7.24589 2.82813 7.4863C2.24633 8.19522 1.99101 9.04424 1.86914 10.0752C1.74999 11.0832 1.75 12.3584 1.75 13.9692V14V14.0308C1.75 15.6416 1.74999 16.9168 1.86914 17.9248C1.99101 18.9557 2.24633 19.8047 2.82813 20.5136C3.02544 20.7541 3.24592 20.9745 3.48633 21.1718C4.19525 21.7536 5.04427 22.009 6.0752 22.1308C7.0832 22.25 8.35839 22.25 9.96921 22.25H10H14H14.0308C15.6416 22.25 16.9168 22.25 17.9248 22.1308C18.9557 22.009 19.8048 21.7536 20.5137 21.1718C20.7541 20.9745 20.9746 20.7541 21.1719 20.5136C21.7537 19.8047 22.009 18.9557 22.1309 17.9248C22.25 16.9168 22.25 15.6416 22.25 14.0308Z" fill="#141B34"/>
<path d="M12 9.49997C11.4477 9.49997 11 9.94768 11 10.5V15.3906C10.6896 15.0331 10.3584 14.6264 10.1455 14.3535C10.0396 14.2178 9.86487 13.9856 9.80565 13.9072C9.47823 13.4626 8.85189 13.3671 8.40721 13.6943C7.96264 14.0217 7.86714 14.6481 8.19432 15.0927C8.25898 15.1784 8.45592 15.4386 8.56932 15.584C8.79529 15.8735 9.10759 16.2629 9.44823 16.6552C9.78454 17.0426 10.1683 17.456 10.5351 17.7802C10.7175 17.9414 10.9198 18.1021 11.1279 18.2275C11.3086 18.3364 11.6227 18.5 12 18.5C12.3772 18.5 12.6914 18.3364 12.8721 18.2275C13.0802 18.1021 13.2825 17.9414 13.4648 17.7802C13.8317 17.456 14.2154 17.0426 14.5517 16.6552C14.8924 16.2629 15.2047 15.8735 15.4306 15.584C15.5441 15.4386 15.741 15.1784 15.8056 15.0927C16.1328 14.6481 16.0373 14.0227 15.5928 13.6953C15.1481 13.3678 14.5218 13.4635 14.1943 13.9082C14.1351 13.9866 13.9604 14.2178 13.8545 14.3535C13.6415 14.6264 13.3104 15.0331 13 15.3906V10.5C13 9.94769 12.5523 9.49998 12 9.49997Z" fill="#141B34"/>
<path d="M14.0312 1.74997C15.6419 1.74996 16.9169 1.74997 17.9248 1.86911C18.9557 1.99098 19.8048 2.2463 20.5137 2.82809C20.7541 3.02541 20.9746 3.24589 21.1719 3.4863C21.7537 4.19522 22.009 5.04424 22.1309 6.07516C22.25 7.08307 22.25 8.35812 22.25 9.96872V10.0312C22.25 10.7528 22.248 11.407 22.2373 12C22.2241 11.2693 22.1966 10.6315 22.1309 10.0752C22.009 9.04424 21.7537 8.19522 21.1719 7.4863C20.9746 7.24589 20.7541 7.02541 20.5137 6.82809C19.8048 6.2463 18.9557 5.99098 17.9248 5.86911C16.9169 5.74997 15.6419 5.74996 14.0312 5.74997H9.96875C8.35815 5.74996 7.0831 5.74997 6.0752 5.86911C5.04427 5.99098 4.19525 6.2463 3.48633 6.82809C3.24592 7.02541 3.02544 7.24589 2.82813 7.4863C2.24633 8.19522 1.99101 9.04424 1.86914 10.0752C1.80338 10.6315 1.77492 11.2693 1.76172 12C1.75101 11.407 1.75 10.7528 1.75 10.0312V9.96872C1.75 8.35812 1.75 7.08307 1.86914 6.07516C1.99101 5.04424 2.24633 4.19522 2.82813 3.4863C3.02544 3.24589 3.24592 3.02541 3.48633 2.82809C4.19525 2.2463 5.04427 1.99098 6.0752 1.86911C7.0831 1.74997 8.35815 1.74996 9.96875 1.74997H14.0312Z" fill="#141B34"/>
</svg>
