<svg width="24" height="24" viewBox="0 0 24 24" fill="none" xmlns="http://www.w3.org/2000/svg">
<path opacity="0.4" d="M22.75 8.05279V8V7.94722C22.75 7.28354 22.75 6.7397 22.7139 6.29688C22.676 5.83363 22.5946 5.41515 22.3955 5.02442C22.0839 4.41305 21.587 3.91606 20.9756 3.60449C20.5849 3.40541 20.1664 3.32399 19.7031 3.28614C19.2603 3.24996 18.7165 3.24998 18.0528 3.25L18 3.25H6L5.9472 3.25C5.28353 3.24998 4.73969 3.24996 4.29688 3.28614C3.83363 3.32399 3.41515 3.40541 3.02442 3.60449C2.41305 3.91606 1.91606 4.41305 1.60449 5.02442C1.40541 5.41515 1.32399 5.83363 1.28614 6.29688C1.24996 6.73969 1.24998 7.28353 1.25 7.9472L1.25 8L1.25 8.05281C1.24998 8.71647 1.24996 9.26031 1.28614 9.70313C1.32399 10.1664 1.40541 10.5849 1.60449 10.9756C1.91606 11.587 2.41305 12.084 3.02442 12.3955C3.41515 12.5946 3.83363 12.676 4.29688 12.7139C4.7397 12.75 5.28354 12.75 5.94722 12.75L6 12.75H18L18.0528 12.75C18.7165 12.75 19.2603 12.75 19.7031 12.7139C20.1664 12.676 20.5849 12.5946 20.9756 12.3955C21.587 12.084 22.0839 11.587 22.3955 10.9756C22.5946 10.5849 22.676 10.1664 22.7139 9.70313C22.75 9.26031 22.75 8.71646 22.75 8.05279Z" fill="#141B34"/>
<path d="M13.4073 6.19444C13.852 5.86726 14.4784 5.96276 14.8058 6.40733L14.8077 6.41026C14.81 6.41327 14.8137 6.41845 14.8185 6.42491C14.8282 6.43796 14.8431 6.45798 14.8624 6.48351C14.901 6.53457 14.9571 6.60849 15.0265 6.69737C15.1663 6.8765 15.3558 7.1123 15.5577 7.34483C15.7127 7.52337 15.8649 7.6867 16.0001 7.81847C16.1353 7.6867 16.2875 7.52337 16.4425 7.34483C16.6444 7.1123 16.8339 6.8765 16.9737 6.69737C17.0431 6.60849 17.0992 6.53457 17.1378 6.48351C17.1571 6.45798 17.172 6.43796 17.1817 6.42491C17.1866 6.41845 17.1903 6.41327 17.1925 6.41026L17.1944 6.40733C17.522 5.96264 18.1482 5.8679 18.5929 6.19542C19.0374 6.52285 19.1329 7.14824 18.8058 7.59288H18.8048V7.59386L18.8038 7.59581C18.8028 7.59714 18.8006 7.59843 18.7989 7.60069C18.7956 7.60524 18.7913 7.6121 18.7853 7.62022C18.7732 7.63647 18.7555 7.65945 18.7335 7.68858C18.6895 7.74685 18.6268 7.82938 18.5499 7.92784C18.3971 8.12361 18.1853 8.38808 17.9532 8.65538C17.7254 8.91776 17.4581 9.20618 17.1974 9.43663C17.0681 9.55081 16.9166 9.67254 16.754 9.77062C16.6187 9.85217 16.3445 10.0001 16.0001 10.0001C15.6557 10.0001 15.3815 9.85217 15.2462 9.77062C15.0836 9.67253 14.9321 9.55082 14.8028 9.43663C14.5421 9.20617 14.2748 8.91777 14.047 8.65538C13.8149 8.38808 13.6031 8.12362 13.4503 7.92784C13.3735 7.82938 13.3107 7.74685 13.2667 7.68858C13.2447 7.65946 13.2271 7.63647 13.215 7.62022C13.2089 7.6121 13.2037 7.60524 13.2003 7.60069C13.1988 7.59864 13.1973 7.59705 13.1964 7.59581L13.1954 7.59386V7.59288H13.1944C12.8673 7.1482 12.9628 6.52186 13.4073 6.19444Z" fill="#141B34"/>
<path d="M14.25 14.75C14.8023 14.75 15.25 15.1977 15.25 15.75C15.25 16.3023 14.8023 16.75 14.25 16.75H2.25C1.69772 16.75 1.25 16.3023 1.25 15.75C1.25 15.1977 1.69772 14.75 2.25 14.75H14.25Z" fill="#141B34"/>
<path d="M14.25 18.75C14.8023 18.75 15.25 19.1977 15.25 19.75C15.25 20.3023 14.8023 20.75 14.25 20.75H2.25C1.69772 20.75 1.25 20.3023 1.25 19.75C1.25 19.1977 1.69772 18.75 2.25 18.75H14.25Z" fill="#141B34"/>
</svg>
