<svg width="24" height="24" viewBox="0 0 24 24" fill="none" xmlns="http://www.w3.org/2000/svg">
<path opacity="0.4" d="M13.4925 2.29395C13.0749 1.94268 12.5462 1.75 12.0003 1.75C11.5226 1.75 11.0585 1.89775 10.6702 2.16992L10.5091 2.29395L1.59792 9.78906C1.18543 10.1364 1.1323 10.7528 1.47976 11.165C1.78998 11.5327 2.31359 11.6121 2.71608 11.3789V15.4727V15.4792C2.71606 16.8038 2.71604 17.8957 2.8323 18.7598C2.95421 19.6655 3.22039 20.466 3.86159 21.1064L3.98366 21.2227C4.60319 21.7796 5.36041 22.0197 6.21023 22.1338C6.96532 22.2352 7.89431 22.2464 9.00026 22.248H15.0003C16.1062 22.2464 17.0352 22.2352 17.7903 22.1338C18.6969 22.012 19.4978 21.7467 20.1389 21.1064L20.2561 20.9844C20.8139 20.3655 21.054 19.6087 21.1682 18.7598C21.2845 17.8957 21.2845 16.8038 21.2844 15.4792V15.4727V11.3789C21.6869 11.6121 22.2105 11.5327 22.5208 11.165C22.8466 10.7785 22.8204 10.2127 22.4758 9.85742L22.4026 9.78906L21.2844 8.84863V5.16699C21.2844 4.62786 20.8466 4.19043 20.3069 4.19043C19.7673 4.19058 19.3303 4.62795 19.3303 5.16699V7.2041L13.4925 2.29395Z" fill="#141B34"/>
<path d="M10.5 10.75L10.5771 10.7539C10.9551 10.7925 11.25 11.1118 11.25 11.5V12.5L11.2461 12.5771C11.2075 12.9551 10.8882 13.25 10.5 13.25H9.5C9.08579 13.25 8.75 12.9142 8.75 12.5V11.5L8.75391 11.4229C8.79253 11.0449 9.11183 10.75 9.5 10.75H10.5Z" fill="#141B34"/>
<path d="M14.5 10.75L14.5771 10.7539C14.9551 10.7925 15.25 11.1118 15.25 11.5V12.5L15.2461 12.5771C15.2075 12.9551 14.8882 13.25 14.5 13.25H13.5C13.0858 13.25 12.75 12.9142 12.75 12.5V11.5L12.7539 11.4229C12.7925 11.0449 13.1118 10.75 13.5 10.75H14.5Z" fill="#141B34"/>
<path d="M10.5 14.75L10.5771 14.7539C10.9551 14.7925 11.25 15.1118 11.25 15.5V16.5L11.2461 16.5771C11.2075 16.9551 10.8882 17.25 10.5 17.25H9.5C9.30109 17.25 9.11038 17.1709 8.96973 17.0303C8.82907 16.8896 8.75 16.6989 8.75 16.5V15.5L8.75391 15.4229C8.79253 15.0449 9.11183 14.75 9.5 14.75H10.5Z" fill="#141B34"/>
<path d="M14.5 14.75L14.5771 14.7539C14.9551 14.7925 15.25 15.1118 15.25 15.5V16.5L15.2461 16.5771C15.2075 16.9551 14.8882 17.25 14.5 17.25H13.5C13.3011 17.25 13.1104 17.1709 12.9697 17.0303C12.8291 16.8896 12.75 16.6989 12.75 16.5V15.5L12.7539 15.4229C12.7925 15.0449 13.1118 14.75 13.5 14.75H14.5Z" fill="#141B34"/>
</svg>
