<svg width="24" height="24" viewBox="0 0 24 24" fill="none" xmlns="http://www.w3.org/2000/svg">
<path opacity="0.4" d="M22.75 12.0644V12V11.9356C22.75 10.5725 22.7501 9.47332 22.6338 8.6084C22.5128 7.70829 22.2533 6.95055 21.6514 6.34863C21.0495 5.74672 20.2917 5.48723 19.3916 5.36621C18.5267 5.24995 17.4275 5.24997 16.0644 5.25H16H8H7.93561C6.57252 5.24997 5.47333 5.24995 4.6084 5.36621C3.70829 5.48723 2.95055 5.74672 2.34863 6.34863C1.74672 6.95055 1.48723 7.70829 1.36621 8.6084C1.24995 9.47333 1.24997 10.5725 1.25 11.9356V12V12.0644C1.24997 13.4275 1.24995 14.5267 1.36621 15.3916C1.48723 16.2917 1.74672 17.0495 2.34863 17.6514C2.95055 18.2533 3.70829 18.5128 4.6084 18.6338C5.47332 18.7501 6.5725 18.75 7.93557 18.75H8H16H16.0644C17.4275 18.75 18.5267 18.7501 19.3916 18.6338C20.2917 18.5128 21.0495 18.2533 21.6514 17.6514C22.2533 17.0495 22.5128 16.2917 22.6338 15.3916C22.7501 14.5267 22.75 13.4275 22.75 12.0644Z" fill="#141B34"/>
<path d="M7.00012 8.25C7.53981 8.25 8.01674 8.58999 8.19641 9.09082L8.22766 9.19336L9.72473 14.8066C9.83145 15.2068 9.59364 15.6178 9.19348 15.7246C8.7933 15.8313 8.38229 15.5935 8.27551 15.1934L7.89075 13.75H6.1095L5.72473 15.1934C5.61795 15.5935 5.20695 15.8313 4.80676 15.7246C4.40661 15.6178 4.1688 15.2068 4.27551 14.8066L5.77258 9.19336L5.80383 9.09082C5.98351 8.58999 6.46044 8.25 7.00012 8.25ZM6.50989 12.25H7.49036L7.00012 10.4111L6.50989 12.25Z" fill="#141B34"/>
<path fill-rule="evenodd" clip-rule="evenodd" d="M13.5 15.75C14.7426 15.75 15.75 14.7426 15.75 13.5C15.75 12.923 15.531 12.3983 15.1738 12C15.531 11.6017 15.75 11.077 15.75 10.5C15.75 9.25736 14.7426 8.25 13.5 8.25H12C11.5858 8.25 11.25 8.58579 11.25 9V15C11.25 15.4142 11.5858 15.75 12 15.75H13.5ZM12.75 11.25V9.75H13.5C13.9142 9.75 14.25 10.0858 14.25 10.5C14.25 10.9142 13.9142 11.25 13.5 11.25H12.75ZM12.75 14.25V12.75H13.5C13.9142 12.75 14.25 13.0858 14.25 13.5C14.25 13.9142 13.9142 14.25 13.5 14.25H12.75Z" fill="#141B34"/>
</svg>
