<svg width="24" height="24" viewBox="0 0 24 24" fill="none" xmlns="http://www.w3.org/2000/svg">
<path opacity="0.4" d="M20.75 14.0308V14V10V9.96921C20.75 8.35839 20.75 7.0832 20.6309 6.0752C20.509 5.04427 20.2537 4.19525 19.6719 3.48633C19.4746 3.24592 19.2541 3.02544 19.0137 2.82813C18.3047 2.24633 17.4557 1.99101 16.4248 1.86914C15.4168 1.74999 14.1416 1.75 12.5308 1.75H12.5H12H11.9501C10.1092 1.74999 8.6513 1.74998 7.51074 1.90332C6.33844 2.06096 5.38991 2.39329 4.6416 3.1416C3.89329 3.88991 3.56096 4.83844 3.40332 6.01074C3.24998 7.1513 3.24999 8.60924 3.25 10.4501V10.5V13.5V13.5499C3.24999 15.3908 3.24998 16.8487 3.40332 17.9893C3.56096 19.1616 3.89329 20.1101 4.6416 20.8584C5.38991 21.6067 6.33844 21.939 7.51074 22.0967C8.65129 22.25 10.1092 22.25 11.95 22.25H12H12.5H12.5308C14.1416 22.25 15.4168 22.25 16.4248 22.1309C17.4557 22.009 18.3047 21.7537 19.0137 21.1719C19.2541 20.9746 19.4746 20.7541 19.6719 20.5137C20.2537 19.8048 20.509 18.9557 20.6309 17.9248C20.75 16.9168 20.75 15.6416 20.75 14.0308Z" fill="#141B34"/>
<path d="M14.9443 7.40734C15.2718 6.96276 15.8981 6.86725 16.3428 7.19445V7.19543H16.3447C16.3453 7.19585 16.3458 7.19672 16.3467 7.19738C16.349 7.19907 16.3523 7.20213 16.3564 7.2052C16.3648 7.21136 16.3771 7.22005 16.3926 7.23156C16.4235 7.25459 16.4679 7.28852 16.5244 7.33117C16.6374 7.41649 16.7981 7.53863 16.9902 7.68859C17.3736 7.98774 17.8879 8.40052 18.4053 8.84973C18.9178 9.2947 19.456 9.79559 19.874 10.2687C20.0819 10.504 20.2818 10.7556 20.4346 11.0089C20.5708 11.2349 20.75 11.5899 20.75 12.0001C20.75 12.4104 20.5708 12.7653 20.4346 12.9913C20.2818 13.2447 20.0819 13.4963 19.874 13.7316C19.456 14.2046 18.9178 14.7055 18.4053 15.1505C17.8879 15.5997 17.3736 16.0125 16.9902 16.3116C16.7981 16.4616 16.6374 16.5837 16.5244 16.6691C16.4679 16.7117 16.4235 16.7456 16.3926 16.7687C16.3771 16.7802 16.3648 16.7889 16.3564 16.795C16.3523 16.7981 16.349 16.8002 16.3467 16.8019C16.3456 16.8027 16.3454 16.8043 16.3447 16.8048H16.3428V16.8058C15.8981 17.133 15.2718 17.0375 14.9443 16.5929C14.6172 16.1482 14.7127 15.5219 15.1572 15.1945L15.1592 15.1935C15.1607 15.1923 15.1628 15.19 15.166 15.1876C15.1728 15.1826 15.1835 15.1754 15.1973 15.1652C15.225 15.1445 15.2665 15.1133 15.3193 15.0734C15.4251 14.9935 15.5772 14.878 15.7598 14.7355C16.1264 14.4494 16.6122 14.0597 17.0947 13.6407C17.3407 13.4272 17.5793 13.2102 17.7988 13.0001H9.25C8.69772 13.0001 8.25 12.5524 8.25 12.0001C8.25 11.4478 8.69772 11.0001 9.25 11.0001H17.7988C17.5793 10.7901 17.3407 10.573 17.0947 10.3595C16.6122 9.94054 16.1264 9.55087 15.7598 9.26477C15.5772 9.12229 15.4251 9.00674 15.3193 8.92687C15.2665 8.88694 15.225 8.85572 15.1973 8.83508C15.1835 8.82485 15.1728 8.81765 15.166 8.81262C15.1628 8.81026 15.1607 8.80792 15.1592 8.80676L15.1572 8.80578C14.7126 8.47836 14.6171 7.85202 14.9443 7.40734Z" fill="#141B34"/>
</svg>
