<svg width="24" height="24" viewBox="0 0 24 24" fill="none" xmlns="http://www.w3.org/2000/svg">
<path opacity="0.4" d="M9.07999 1.7868C11.033 1.73773 12.967 1.73773 14.92 1.78681L14.9782 1.78827C16.503 1.82656 17.73 1.85737 18.7133 2.02862C19.7428 2.20791 20.5795 2.55179 21.2864 3.26134C21.9903 3.96792 22.3324 4.79261 22.5082 5.80542C22.6757 6.76979 22.7012 7.96683 22.7328 9.44967L22.7341 9.5084C22.7553 10.5047 22.7553 11.4953 22.7341 12.4916L22.7305 12.6575C22.7284 12.7555 22.7274 12.8046 22.7243 12.8243C22.6914 13.036 22.5066 13.1383 22.3097 13.054C22.2914 13.0461 22.24 13.0155 22.1373 12.9542C20.728 12.1137 19.3402 12.1105 18.2317 12.4987C18.1111 12.5409 18.0509 12.562 17.9999 12.562C17.9489 12.562 17.8886 12.5409 17.7681 12.4987C16.6596 12.1105 15.2718 12.1137 13.8624 12.9542C12.2482 13.9169 11.5499 15.787 11.8008 17.6056C11.8772 18.1593 12.0538 18.7346 12.3053 19.2884C12.5136 19.7468 12.6177 19.976 12.5288 20.1137C12.4399 20.2513 12.2054 20.2508 11.7362 20.2497C10.8524 20.2477 9.96815 20.2355 9.07999 20.2132L9.02177 20.2117C7.49697 20.1735 6.27001 20.1426 5.2867 19.9714C4.2572 19.7921 3.42048 19.4482 2.71362 18.7387C2.00972 18.0321 1.66764 17.2074 1.49176 16.1946C1.32429 15.2302 1.29879 14.0332 1.26719 12.5504L1.26594 12.4916C1.24469 11.4953 1.24469 10.5047 1.26593 9.50839L1.26719 9.44965C1.29878 7.9668 1.32429 6.76978 1.49176 5.8054C1.66764 4.7926 2.00971 3.9679 2.71362 3.26132C3.42048 2.55177 4.2572 2.20789 5.2867 2.0286C6.27002 1.85735 7.497 1.82655 9.02182 1.78826L9.07999 1.7868Z" fill="#141B34"/>
<path d="M16.4912 6.63911C16.9666 6.35803 17.5799 6.51557 17.8609 6.99097C18.142 7.46638 17.9845 8.07964 17.5091 8.36072L14.567 10.1001C13.6915 10.6178 12.8898 10.9999 12.0001 10.9999C11.1105 10.9999 10.3087 10.6178 9.4332 10.1001L6.49119 8.36072C6.01578 8.07964 5.85824 7.46638 6.13932 6.99097C6.4204 6.51557 7.03366 6.35803 7.50907 6.63911L10.4511 8.37854C11.2914 8.87538 11.6897 8.99991 12.0001 8.99991C12.3105 8.99991 12.7088 8.87538 13.5492 8.37854L16.4912 6.63911Z" fill="#141B34"/>
<path d="M17.9996 14.2893C18.7725 13.7397 20.0195 13.4381 21.3688 14.2427C22.3751 14.8429 22.8968 16.0671 22.7128 17.4009C22.5274 18.7448 21.645 20.1871 19.9019 21.4415C19.348 21.8412 18.7809 22.2503 17.9996 22.2503C17.2183 22.2503 16.6513 21.8412 16.0974 21.4415C14.3543 20.1871 13.4719 18.7448 13.2865 17.4009C13.1025 16.0671 13.6241 14.8429 14.6305 14.2427C15.9798 13.4381 17.2268 13.7397 17.9996 14.2893Z" fill="#141B34"/>
</svg>
