<svg width="24" height="24" viewBox="0 0 24 24" fill="none" xmlns="http://www.w3.org/2000/svg">
<path opacity="0.4" d="M6.5 4.5H5.5C4.94772 4.5 4.5 4.94772 4.5 5.5V15.5C4.5 16.0523 4.05228 16.5 3.5 16.5H2.5C1.94772 16.5 1.5 16.9477 1.5 17.5V18.5C1.5 19.0523 1.94772 19.5 2.5 19.5H9.5C10.0523 19.5 10.5 19.0523 10.5 18.5V16.5H13.5V18.5C13.5 19.0523 13.9477 19.5 14.5 19.5H21.5C22.0523 19.5 22.5 19.0523 22.5 18.5V17.5C22.5 16.9477 22.0523 16.5 21.5 16.5H20.5C19.9477 16.5 19.5 16.0523 19.5 15.5V5.5C19.5 4.94772 19.0523 4.5 18.5 4.5H17.5C16.9477 4.5 16.5 4.94772 16.5 5.5V6.5C16.5 7.05228 16.0523 7.5 15.5 7.5H14.5C13.9477 7.5 13.5 7.94772 13.5 8.5V9.5C13.5 10.0523 13.0523 10.5 12.5 10.5H11.5C10.9477 10.5 10.5 10.0523 10.5 9.5V8.5C10.5 7.94772 10.0523 7.5 9.5 7.5H8.5C7.94772 7.5 7.5 7.05228 7.5 6.5V5.5C7.5 4.94772 7.05228 4.5 6.5 4.5Z" fill="#141B34"/>
<path d="M15.5 16.5H13.5V14.5C13.5 13.9477 13.9477 13.5 14.5 13.5H15.5C16.0523 13.5 16.5 13.9477 16.5 14.5V15.5C16.5 16.0523 16.0523 16.5 15.5 16.5Z" fill="#141B34"/>
<path d="M10.5 16.5H8.5C7.94772 16.5 7.5 16.0523 7.5 15.5V14.5C7.5 13.9477 7.94772 13.5 8.5 13.5H9.5C10.0523 13.5 10.5 13.9477 10.5 14.5V16.5Z" fill="#141B34"/>
</svg>
