<svg width="24" height="24" viewBox="0 0 24 24" fill="none" xmlns="http://www.w3.org/2000/svg">
<path opacity="0.4" d="M22.75 13.0644V13V11V10.9356C22.75 9.5725 22.7501 8.47332 22.6338 7.6084C22.5128 6.70829 22.2533 5.95055 21.6514 5.34863C21.0495 4.74672 20.2917 4.48723 19.3916 4.36621C18.5267 4.24995 17.4275 4.24997 16.0644 4.25H16H8H7.93561C6.57252 4.24997 5.47333 4.24995 4.6084 4.36621C3.70829 4.48723 2.95055 4.74672 2.34863 5.34863C1.74672 5.95055 1.48723 6.70829 1.36621 7.6084C1.24995 8.47333 1.24997 9.57252 1.25 10.9356V11V13V13.0644C1.24997 14.4275 1.24995 15.5267 1.36621 16.3916C1.48723 17.2917 1.74672 18.0495 2.34863 18.6514L2.46289 18.7607C3.04541 19.2856 3.76456 19.5203 4.6084 19.6338C5.47331 19.7501 6.57248 19.75 7.93554 19.75H8H16H16.0645C17.4275 19.75 18.5267 19.7501 19.3916 19.6338C20.2917 19.5128 21.0495 19.2533 21.6514 18.6514L21.7607 18.5371C22.2856 17.9546 22.5203 17.2354 22.6338 16.3916C22.7501 15.5267 22.75 14.4275 22.75 13.0644Z" fill="#141B34"/>
<path d="M15 12C15 13.6569 13.6569 15 12 15C10.3431 15 9 13.6569 9 12C9 10.3431 10.3431 9 12 9C13.6569 9 15 10.3431 15 12Z" fill="#141B34"/>
<path d="M21.6514 5.34961C21.0495 4.74769 20.2917 4.4882 19.3916 4.36718C18.9962 4.31403 18.5518 4.28519 18.0557 4.26953C18.0557 6.84111 20.1592 8.92578 22.7308 8.92578C22.715 8.43748 22.6862 7.99958 22.6338 7.60937C22.5128 6.70926 22.2533 5.95152 21.6514 5.34961Z" fill="#141B34"/>
<path d="M2.32946 5.34961C2.93137 4.74769 3.68911 4.4882 4.58922 4.36718C4.98463 4.31403 5.429 4.28519 5.92516 4.26953C5.92516 6.84111 3.82158 8.92578 1.25 8.92578C1.2658 8.43748 1.29458 7.99958 1.34703 7.60937C1.46805 6.70926 1.72754 5.95152 2.32946 5.34961Z" fill="#141B34"/>
<path d="M21.6514 18.6504C21.0494 19.2523 20.2917 19.5118 19.3916 19.6328C18.9962 19.686 18.5518 19.7148 18.0557 19.7305C18.0557 17.1589 20.1592 15.0742 22.7308 15.0742C22.715 15.5625 22.6862 16.0004 22.6338 16.3906C22.5128 17.2907 22.2533 18.0485 21.6514 18.6504Z" fill="#141B34"/>
<path d="M2.32945 18.6504C2.93137 19.2523 3.68911 19.5118 4.58922 19.6328C4.98463 19.686 5.42899 19.7148 5.92515 19.7305C5.92515 17.1589 3.82157 15.0742 1.25 15.0742C1.26579 15.5625 1.29458 16.0004 1.34703 16.3906C1.46804 17.2907 1.72754 18.0485 2.32945 18.6504Z" fill="#141B34"/>
</svg>
