<svg width="24" height="24" viewBox="0 0 24 24" fill="none" xmlns="http://www.w3.org/2000/svg">
<path d="M17.1582 17.1904C17.4258 17.2912 17.66 17.3965 17.8623 17.502L5.74316 5.38281C5.36368 6.04416 5.08351 6.77358 4.92578 7.55273L4.86719 7.88086L3.32715 17.7812C3.28928 17.97 3.25197 18.2236 3.25195 18.4023C3.27187 19.1598 3.6878 19.7711 4.18848 20.2168C4.7027 20.6745 5.3918 21.0421 6.15918 21.3311C7.70137 21.9117 9.76668 22.251 12 22.251C14.2333 22.251 16.2986 21.9117 17.8408 21.3311C18.6082 21.0421 19.2973 20.6744 19.8115 20.2168C19.9447 20.0983 20.0702 19.9668 20.1855 19.8252L18.7744 18.4141C18.7516 18.5192 18.6778 18.6349 18.5215 18.7568C18.2486 18.9997 17.7981 19.263 17.1582 19.5039C15.8854 19.9831 14.062 20.2998 12 20.2998C9.93798 20.2998 8.11455 19.9831 6.8418 19.5039C6.20193 19.263 5.75142 18.9998 5.47852 18.7568C5.00065 18.3766 5.28491 18.0789 5.47852 17.9375C5.75145 17.6946 6.20209 17.4313 6.8418 17.1904C8.11455 16.7112 9.93806 16.3955 12 16.3955C14.0619 16.3955 15.8855 16.7112 17.1582 17.1904Z" fill="#141B34"/>
<path opacity="0.4" d="M12 1.75C15.5569 1.75 18.5835 4.35131 19.1328 7.87988L20.5537 17.0186L7.1582 3.62305C8.44697 2.45306 10.1516 1.75001 12 1.75Z" fill="#141B34"/>
<path d="M12.9998 17.3477C13.552 17.3477 13.9998 17.7954 13.9998 18.3477C13.9998 18.8999 13.552 19.3477 12.9998 19.3477H10.9998C10.4475 19.3477 9.99976 18.8999 9.99976 18.3477C9.99976 17.7954 10.4475 17.3477 10.9998 17.3477H12.9998Z" fill="#141B34"/>
<path fill-rule="evenodd" clip-rule="evenodd" d="M1.54289 1.54289C1.93342 1.15237 2.56658 1.15237 2.95711 1.54289L22.4571 21.0429C22.8476 21.4334 22.8476 22.0666 22.4571 22.4571C22.0666 22.8476 21.4334 22.8476 21.0429 22.4571L1.54289 2.95711C1.15237 2.56658 1.15237 1.93342 1.54289 1.54289Z" fill="#141B34"/>
</svg>
