<svg width="24" height="24" viewBox="0 0 24 24" fill="none" xmlns="http://www.w3.org/2000/svg">
<path opacity="0.4" d="M13.0215 2.31836C12.6872 2.27433 12.3463 2.25 12 2.25C7.71979 2.25 4.25 5.71979 4.25 10V12.7559C4.24999 13.278 4.06829 13.7813 3.74023 14.1816L3.59082 14.3467L2.9873 14.9502C2.51512 15.4225 2.25 16.0635 2.25 16.7314C2.25017 18.1223 3.37767 19.2498 4.76855 19.25H19.2314C20.6223 19.2498 21.7498 18.1223 21.75 16.7314C21.75 16.0635 21.4849 15.4225 21.0127 14.9502L20.4092 14.3467C19.9872 13.9247 19.75 13.3526 19.75 12.7559V10H16.458C16.233 10 15.9306 10.0017 15.6348 9.98242C15.3405 10 14.8006 9.87232 14.4521 9.7168C14.1037 9.56126 13.5125 9.09471 13.1895 8.44531C12.8543 7.65583 13.0258 6.93265 13.2227 6.49902C13.482 6.06818 13.9728 5.48879 14.0645 5.38477L15.0928 4.36914C14.0425 4.32132 13.092 3.42288 13.0215 2.31836Z" fill="#141B34"/>
<path d="M12 22.75C13.624 22.75 15.0345 21.8387 15.75 20.5H8.25C8.96548 21.8387 10.376 22.75 12 22.75Z" fill="#141B34"/>
<path d="M18.1342 3.12502H15.1936C14.6808 3.12502 14.265 2.70529 14.265 2.18752C14.265 1.66976 14.6808 1.25003 15.1936 1.25003L18.6566 1.25001C18.9681 1.24989 19.2968 1.24976 19.5565 1.28796C19.8088 1.32507 20.3767 1.44957 20.6287 2.04334C20.8775 2.62937 20.5855 3.129 20.4432 3.33997C20.295 3.55958 20.0725 3.80551 19.8599 4.04063L16.9695 6.875H19.8214C20.3343 6.875 20.75 7.29473 20.75 7.81249C20.75 8.33026 20.3343 8.74999 19.8214 8.74999L16.4581 8.74999C16.1345 8.75006 15.7825 8.75013 15.4995 8.71474C15.3506 8.69612 15.1538 8.66074 14.9617 8.57496C14.7619 8.48578 14.4878 8.30461 14.3401 7.95668C14.1829 7.58637 14.2585 7.24174 14.3612 7.01577C14.4509 6.81833 14.5817 6.66126 14.6668 6.56466C14.7516 6.46848 14.8524 6.3657 14.9419 6.27446L18.1342 3.12502Z" fill="#141B34"/>
</svg>
