<svg width="24" height="24" viewBox="0 0 24 24" fill="none" xmlns="http://www.w3.org/2000/svg">
<path opacity="0.4" d="M11.5 2.25C12.0006 2.25 12.4897 2.29899 12.9639 2.38965C12.3561 3.27436 12 4.34551 12 5.5C12 8.53757 14.4624 11 17.5 11C18.112 11 18.7001 10.8984 19.25 10.7139V18.5C19.25 18.9142 18.9142 19.25 18.5 19.25H4.5C4.08579 19.25 3.75 18.9142 3.75 18.5V10C3.75 5.71979 7.21979 2.25 11.5 2.25Z" fill="#141B34"/>
<path d="M20.75 18.25C20.75 17.6977 20.3023 17.25 19.75 17.25H3.25C2.69772 17.25 2.25 17.6977 2.25 18.25C2.25 18.8023 2.69772 19.25 3.25 19.25H19.75C20.3023 19.25 20.75 18.8023 20.75 18.25Z" fill="#141B34"/>
<path d="M13.75 20.5C13.75 21.7426 12.7426 22.75 11.5 22.75C10.2574 22.75 9.25 21.7426 9.25 20.5H13.75Z" fill="#141B34"/>
<path d="M19.8611 5.5C19.8611 4.19599 18.804 3.13889 17.5 3.13889C17.1957 3.13889 16.9056 3.19825 16.6386 3.30306L19.696 6.36051C19.8007 6.09357 19.8611 5.80407 19.8611 5.5ZM15.1389 5.5C15.1389 6.80401 16.196 7.86111 17.5 7.86111C17.8041 7.86111 18.0936 7.8007 18.3605 7.69602L15.3031 4.63856C15.1983 4.90564 15.1389 5.19574 15.1389 5.5ZM21.75 5.5C21.75 7.84721 19.8472 9.75 17.5 9.75C15.1528 9.75 13.25 7.84721 13.25 5.5C13.25 3.15279 15.1528 1.25 17.5 1.25C19.8472 1.25 21.75 3.15279 21.75 5.5Z" fill="#141B34"/>
</svg>
