<svg width="24" height="24" viewBox="0 0 24 24" fill="none" xmlns="http://www.w3.org/2000/svg">
<path opacity="0.4" d="M19.3916 3.36621C18.5267 3.24995 17.4275 3.24997 16.0645 3.25H7.93555C6.57249 3.24997 5.47331 3.24995 4.6084 3.36621C3.70829 3.48723 2.95055 3.74672 2.34863 4.34863C1.74672 4.95055 1.48723 5.70829 1.36621 6.6084C1.24995 7.47331 1.24997 8.57249 1.25 9.93555V12.0645C1.24997 13.4275 1.24995 14.5267 1.36621 15.3916C1.48723 16.2917 1.74672 17.0495 2.34863 17.6514L2.46289 17.7607C3.04541 18.2856 3.76456 18.5203 4.6084 18.6338C5.47331 18.7501 6.57248 18.75 7.93552 18.75H7.93555H11.7168C11.5865 18.4298 11.5107 18.0278 11.5107 17.5195C11.6262 16.3852 12.5852 15.5 13.75 15.5C14.151 15.5 14.6753 15.6341 14.7949 15.7012C15.052 15.7966 15.3259 15.9322 15.6074 16.1182L16.4492 15.1172C16.9574 14.5426 17.8451 13.6855 18.4541 13.1514C19.2176 12.5308 20.4928 11.6597 21.4268 11.5234C21.8883 11.4561 22.3483 11.5371 22.75 11.7363V9.93555C22.75 8.57249 22.7501 7.47331 22.6338 6.6084C22.5128 5.70829 22.2533 4.95055 21.6514 4.34863C21.0494 3.74672 20.2917 3.48723 19.3916 3.36621Z" fill="#141B34"/>
<path d="M22.6925 13.4155C22.5196 12.9277 22.007 12.658 21.5148 12.7778C20.6367 13.0888 19.6986 13.711 18.962 14.3569C18.215 15.012 17.5163 15.7727 16.923 16.4839C16.484 17.0101 16.0954 17.5172 15.7804 17.9477C15.4918 17.6023 15.2039 17.3502 14.9298 17.1675C14.6554 16.9845 14.4043 16.8782 14.1964 16.8188C14.0934 16.7894 13.9148 16.7495 13.7501 16.7495C13.1978 16.7495 12.7501 17.1972 12.7501 17.7495C12.7501 18.2692 13.1465 18.696 13.6534 18.7446C13.6738 18.7512 13.7322 18.7727 13.8204 18.8315C14.0197 18.9644 14.4149 19.3154 14.8556 20.1968L14.923 20.312C15.0975 20.5687 15.3842 20.7324 15.6993 20.7485C16.0591 20.7668 16.4007 20.5897 16.5939 20.2856C16.6818 20.1536 16.9425 19.7636 17.1075 19.5298C17.4386 19.0608 17.9073 18.4266 18.4591 17.7651C19.0128 17.1014 19.6378 16.4244 20.2804 15.8608C20.9335 15.2881 21.6452 14.8418 22.1788 14.6528C22.6369 14.4361 22.8653 13.9035 22.6925 13.4155Z" fill="#141B34"/>
<path d="M15 11C15 12.6569 13.6569 14 12 14C10.3431 14 9 12.6569 9 11C9 9.34315 10.3431 8 12 8C13.6569 8 15 9.34315 15 11Z" fill="#141B34"/>
<path d="M21.6514 4.34961C21.0495 3.74769 20.2917 3.4882 19.3916 3.36718C18.9962 3.31403 18.5518 3.28519 18.0557 3.26953C18.0557 5.84111 20.1592 7.92578 22.7308 7.92578C22.715 7.43748 22.6862 6.99958 22.6338 6.60937C22.5128 5.70926 22.2533 4.95152 21.6514 4.34961Z" fill="#141B34"/>
<path d="M2.32946 4.34961C2.93137 3.74769 3.68911 3.4882 4.58922 3.36718C4.98463 3.31403 5.429 3.28519 5.92516 3.26953C5.92516 5.84111 3.82158 7.92578 1.25 7.92578C1.2658 7.43748 1.29458 6.99958 1.34703 6.60937C1.46805 5.70926 1.72754 4.95152 2.32946 4.34961Z" fill="#141B34"/>
<path d="M2.32945 17.6504C2.93137 18.2523 3.68911 18.5118 4.58922 18.6328C4.98463 18.686 5.42899 18.7148 5.92515 18.7305C5.92515 16.1589 3.82157 14.0742 1.25 14.0742C1.26579 14.5625 1.29458 15.0004 1.34703 15.3906C1.46804 16.2907 1.72754 17.0485 2.32945 17.6504Z" fill="#141B34"/>
</svg>
