<svg width="24" height="24" viewBox="0 0 24 24" fill="none" xmlns="http://www.w3.org/2000/svg">
<path opacity="0.4" d="M22.25 12.0526V12V11.9474C22.25 9.75475 22.25 8.03277 22.0693 6.68848C21.8842 5.31182 21.4969 4.21953 20.6387 3.36133C19.7805 2.50313 18.6882 2.11575 17.3115 1.93066C15.9672 1.74998 14.2452 1.74999 12.0526 1.75H12H11.9474C9.75476 1.74999 8.03277 1.74998 6.68848 1.93066C5.31182 2.11575 4.21953 2.50313 3.36133 3.36133C2.50313 4.21953 2.11575 5.31182 1.93066 6.68848C1.74998 8.03277 1.74999 9.75476 1.75 11.9474V12V12.0526C1.74999 14.2452 1.74998 15.9672 1.93066 17.3115C2.11575 18.6882 2.50313 19.7805 3.36133 20.6387C4.21953 21.4969 5.31182 21.8842 6.68848 22.0693C8.03277 22.25 9.75475 22.25 11.9474 22.25H12H12.0526C14.2452 22.25 15.9672 22.25 17.3115 22.0693C18.6882 21.8842 19.7805 21.4969 20.6387 20.6387C21.4969 19.7805 21.8842 18.6882 22.0693 17.3115C22.25 15.9672 22.25 14.2452 22.25 12.0526Z" fill="#141B34"/>
<path d="M13.5195 18.5762C13.8377 18.8412 14.311 18.7984 14.5762 18.4805C14.8413 18.1623 14.7985 17.689 14.4805 17.4238L10.0723 13.75H11C12.8142 13.75 14.3273 12.4616 14.6748 10.75H16C16.4142 10.75 16.75 10.4142 16.75 10C16.75 9.58579 16.4142 9.25 16 9.25H14.6748C14.5623 8.69579 14.3276 8.18609 14 7.75H16C16.4142 7.75 16.75 7.41418 16.75 7C16.75 6.58579 16.4142 6.25 16 6.25H8C7.58579 6.25 7.25 6.58579 7.25 7C7.25004 7.41418 7.58581 7.75 8 7.75H11C11.9794 7.75 12.81 8.37653 13.1191 9.25H8C7.58579 9.25 7.25 9.58579 7.25 10C7.25004 10.4142 7.58581 10.75 8 10.75H13.1191C12.81 11.6234 11.9793 12.25 11 12.25H8C7.68423 12.25 7.40242 12.4482 7.29492 12.7451C7.18769 13.0418 7.27721 13.3741 7.51953 13.5762L13.5195 18.5762Z" fill="#141B34"/>
</svg>
