<svg width="24" height="24" viewBox="0 0 24 24" fill="none" xmlns="http://www.w3.org/2000/svg">
<path opacity="0.4" d="M10.75 4.5C10.75 2.70507 12.2051 1.25 14 1.25C15.7949 1.25 17.25 2.70507 17.25 4.5C17.25 5.43065 16.7371 6.49342 16.0149 7.21578C15.3849 7.84586 14.4515 8.34398 13.4158 8.12505L13.2992 8.24774L13.3194 8.37814C13.3668 8.6864 13.4301 9.11342 13.4934 9.58838C13.6182 10.5241 13.75 11.6943 13.75 12.5C13.75 12.9318 13.9365 13.2366 14.398 13.5955C14.6395 13.7834 14.9322 13.9659 15.2843 14.1772L15.4548 14.2791L15.4548 14.2791C15.7543 14.4579 16.086 14.6559 16.416 14.876C17.0414 15.2928 17.42 15.8524 17.6751 16.3757C17.8251 16.6834 17.949 17.0209 18.0489 17.3048C19.3047 17.5592 20.25 18.6692 20.25 20C20.25 21.5188 19.0188 22.75 17.5 22.75H4.5C4.08579 22.75 3.75 22.4142 3.75 22C3.75 21.3268 4.01137 20.3843 4.75896 19.6056C5.2678 19.0756 5.97235 18.6514 6.90596 18.4264C6.721 18.1967 6.53225 17.9327 6.35431 17.6315C5.73848 16.5894 5.25 15.1222 5.25 13C5.25 10.4094 5.76697 8.73134 6.5827 7.61898C7.40711 6.49478 8.45972 6.05619 9.26283 5.78849C9.81671 5.60386 10.2019 5.39618 10.4397 5.1754C10.6542 4.9762 10.75 4.76889 10.75 4.5Z" fill="#141B34"/>
<path fill-rule="evenodd" clip-rule="evenodd" d="M9.6384 10.2631C10.0454 10.3399 10.3132 10.7321 10.2364 11.1391C10.0861 11.9361 10.0927 13.0366 10.5404 14.0682C10.9765 15.073 11.8542 16.0704 13.5646 16.6757C13.9551 16.8139 14.1596 17.2425 14.0214 17.633C13.8832 18.0235 13.4546 18.228 13.0642 18.0898C10.9714 17.3491 9.77059 16.062 9.16445 14.6654C8.56995 13.2956 8.57066 11.8777 8.76239 10.8611C8.83916 10.4541 9.23136 10.1864 9.6384 10.2631Z" fill="#141B34"/>
</svg>
