<svg width="24" height="24" viewBox="0 0 24 24" fill="none" xmlns="http://www.w3.org/2000/svg">
<path opacity="0.4" d="M15.0537 1.25H11.9463C10.8135 1.24998 9.88774 1.24996 9.15688 1.34822C8.39293 1.45093 7.73059 1.67321 7.2019 2.20191C6.67321 2.7306 6.45093 3.39294 6.34822 4.15689C6.25569 4.84508 6.25031 5.70604 6.25001 6.75H11.25C12.4926 6.75 13.5 7.75736 13.5 9V14C13.5 15.2426 12.4926 16.25 11.25 16.25C10.1428 16.25 9.22246 15.4503 9.03492 14.3971L6.25 17.182C6.25011 18.2566 6.25369 19.14 6.34822 19.8431C6.45093 20.6071 6.67321 21.2694 7.2019 21.7981C7.73059 22.3268 8.39293 22.5491 9.15688 22.6518C9.88774 22.75 10.8135 22.75 11.9463 22.75H15.0537C16.1865 22.75 17.1123 22.75 17.8431 22.6518C18.6071 22.5491 19.2694 22.3268 19.7981 21.7981C20.3268 21.2694 20.5491 20.6071 20.6518 19.8431C20.75 19.1123 20.75 18.1865 20.75 17.0537V6.94632C20.75 5.81348 20.75 4.88775 20.6518 4.15689C20.5491 3.39294 20.3268 2.7306 19.7981 2.20191C19.2694 1.67321 18.6071 1.45093 17.8431 1.34822C17.1123 1.24996 16.1865 1.24998 15.0537 1.25Z" fill="#141B34"/>
<path fill-rule="evenodd" clip-rule="evenodd" d="M12.5 19.5C12.5 18.9477 12.9477 18.5 13.5 18.5H13.51C14.0623 18.5 14.51 18.9477 14.51 19.5C14.51 20.0523 14.0623 20.5 13.51 20.5H13.5C12.9477 20.5 12.5 20.0523 12.5 19.5Z" fill="#141B34"/>
<path fill-rule="evenodd" clip-rule="evenodd" d="M5.25 9C5.25 8.44772 5.69772 8 6.25 8H11.25C11.8023 8 12.25 8.44772 12.25 9V14C12.25 14.5523 11.8023 15 11.25 15C10.6977 15 10.25 14.5523 10.25 14V11.4142L4.95711 16.7071C4.56658 17.0976 3.93342 17.0976 3.54289 16.7071C3.15237 16.3166 3.15237 15.6834 3.54289 15.2929L8.83579 10H6.25C5.69772 10 5.25 9.55228 5.25 9Z" fill="#141B34"/>
</svg>
