<svg width="24" height="24" viewBox="0 0 24 24" fill="none" xmlns="http://www.w3.org/2000/svg">
<path opacity="0.4" d="M1.25 12.0001C1.25 6.06299 6.06294 1.25005 12 1.25005C17.937 1.25005 22.75 6.06299 22.75 12.0001C22.75 17.9371 17.937 22.7501 12 22.7501C6.06293 22.7501 1.25 17.9371 1.25 12.0001Z" fill="#141B34"/>
<path fill-rule="evenodd" clip-rule="evenodd" d="M7 12.0001C7 9.23863 9.23858 7.00005 12 7.00005C14.7614 7.00005 17 9.23863 17 12.0001C17 13.0191 16.6951 13.967 16.1716 14.7574L17.7071 16.2929C18.0976 16.6835 18.0976 17.3166 17.7071 17.7072C17.3166 18.0977 16.6834 18.0977 16.2929 17.7072L14.7574 16.1717C13.9669 16.6952 13.0191 17.0001 12 17.0001C9.23857 17.0001 7 14.7615 7 12.0001ZM12 9.00005C10.3431 9.00005 9 10.3432 9 12.0001C9 13.6569 10.3431 15.0001 12 15.0001C13.6568 15.0001 15 13.6569 15 12.0001C15 10.3432 13.6568 9.00005 12 9.00005Z" fill="#141B34"/>
</svg>
