<svg width="24" height="24" viewBox="0 0 24 24" fill="none" xmlns="http://www.w3.org/2000/svg">
<path opacity="0.4" d="M17.9064 2.49497C16.8704 1.7219 15.7727 1.74985 14.2111 1.74985H8.78918C7.22762 1.74985 6.13076 1.72198 5.09485 2.49497C4.06784 3.2614 3.82032 4.16917 3.44153 5.44517C2.95394 7.08768 2.43337 9.38174 2.07825 12.4247L2.07239 12.4784L2.07112 12.4892C1.87104 14.2035 1.71039 15.5799 1.75891 16.6922C1.80979 17.8578 2.09185 18.8208 2.83704 19.6581C3.59195 20.5062 4.56521 20.8916 5.7804 21.0741C6.95138 21.2499 8.44701 21.2499 10.3263 21.2499H12.6739C12.8607 21.2499 13.0436 21.2481 13.2228 21.2479C12.4974 20.8751 12.0003 20.1232 12.0001 19.2508C12.0001 18.0082 13.0075 17.0008 14.2501 17.0008C14.5555 17.0008 14.8763 17.0715 15.0392 17.118C15.2724 17.1847 15.5244 17.2859 15.7863 17.4276C16.2846 16.6637 16.9346 15.7816 17.6759 15.0301C18.4024 14.2937 19.3489 13.5372 20.4991 13.1297C20.6612 13.0724 20.8255 13.0357 20.9894 13.0165C20.9691 12.8409 20.9492 12.6615 20.9279 12.4784L20.922 12.4247C20.5669 9.38173 20.0463 7.08769 19.5587 5.44517C19.18 4.16938 18.9329 3.26132 17.9064 2.49497Z" fill="#141B34"/>
<path d="M7.50006 6.49973C7.50006 5.94744 7.94778 5.49973 8.50006 5.49973C9.05235 5.49973 9.50006 5.94744 9.50006 6.49973C9.50006 7.60429 10.3955 8.49973 11.5001 8.49973C12.6046 8.49973 13.5001 7.60429 13.5001 6.49973C13.5001 5.94744 13.9478 5.49973 14.5001 5.49973C15.0523 5.49973 15.5001 5.94744 15.5001 6.49973C15.5001 8.70886 13.7092 10.4997 11.5001 10.4997C9.29092 10.4997 7.50006 8.70886 7.50006 6.49973Z" fill="#141B34"/>
<path d="M22.1923 14.9158C22.0079 14.3953 21.4365 14.123 20.916 14.3074C20.0125 14.6274 19.2221 15.2412 18.5654 15.907C17.902 16.5796 17.324 17.3566 16.8535 18.0779C16.5779 18.5003 16.3352 18.9112 16.1288 19.28C15.8906 19.02 15.6565 18.819 15.4296 18.6677C15.1552 18.4848 14.9041 18.3785 14.6962 18.3191C14.5932 18.2897 14.3957 18.2498 14.2499 18.2498C13.6977 18.2498 13.2499 18.6975 13.2499 19.2498C13.2499 19.7694 13.6463 20.1962 14.1533 20.2449C14.1736 20.2515 14.232 20.273 14.3203 20.3318C14.5195 20.4646 14.9147 20.8157 15.3554 21.697C15.5291 22.0443 15.8882 22.26 16.2763 22.2498C16.6644 22.2395 17.0119 22.0042 17.1669 21.6482C17.2276 21.5188 17.4062 21.1396 17.5244 20.909C17.7613 20.4464 18.1039 19.8221 18.5283 19.1716C18.9547 18.5181 19.4506 17.8573 19.9892 17.3113C20.5346 16.7584 21.0757 16.3721 21.5839 16.1922C22.1044 16.0077 22.3767 15.4363 22.1923 14.9158Z" fill="#141B34"/>
</svg>
