<svg width="24" height="24" viewBox="0 0 24 24" fill="none" xmlns="http://www.w3.org/2000/svg">
<path opacity="0.4" d="M22.25 12.0526V12V11.9474C22.25 9.75475 22.25 8.03277 22.0693 6.68848C21.8842 5.31182 21.4969 4.21953 20.6387 3.36133C19.7805 2.50313 18.6882 2.11575 17.3115 1.93066C15.9672 1.74998 14.2452 1.74999 12.0526 1.75H12H11.9474C9.75476 1.74999 8.03277 1.74998 6.68848 1.93066C5.31182 2.11575 4.21953 2.50313 3.36133 3.36133C2.50313 4.21953 2.11575 5.31182 1.93066 6.68848C1.74998 8.03277 1.74999 9.75476 1.75 11.9474V12V12.0526C1.74999 14.2452 1.74998 15.9672 1.93066 17.3115C2.11575 18.6882 2.50313 19.7805 3.36133 20.6387C4.21953 21.4969 5.31182 21.8842 6.68848 22.0693C8.03277 22.25 9.75475 22.25 11.9474 22.25H12H12.0526C14.2452 22.25 15.9672 22.25 17.3115 22.0693C18.6882 21.8842 19.7805 21.4969 20.6387 20.6387C21.4969 19.7805 21.8842 18.6882 22.0693 17.3115C22.25 15.9672 22.25 14.2452 22.25 12.0526Z" fill="#141B34"/>
<path d="M10.0244 12.9999H15.9999C16.5522 12.9999 16.9999 12.5522 16.9999 11.9999C16.9999 11.4477 16.5522 10.9999 15.9999 10.9999L10.0244 10.9999C10.1474 10.8872 10.2747 10.7724 10.4052 10.6591C10.8252 10.2944 11.2486 9.95456 11.5683 9.70503C11.7275 9.58075 12.0797 9.30973 12.1718 9.24018C12.5476 8.89993 12.6117 8.32412 12.3046 7.90717C11.9772 7.46267 11.3518 7.36714 10.9072 7.69428C10.8079 7.76928 10.5066 7.99714 10.3378 8.12885C10.0013 8.39146 9.54961 8.75435 9.09467 9.14936C8.64467 9.54007 8.16892 9.98226 7.79779 10.4023C7.61329 10.6111 7.43298 10.8376 7.29388 11.0683C7.18661 11.2462 7.0422 11.5248 7.00775 11.8554L6.99994 11.9999C6.99994 12.3937 7.17131 12.7283 7.29388 12.9316C7.43298 13.1623 7.61329 13.3888 7.79779 13.5976C8.16892 14.0176 8.64467 14.4598 9.09467 14.8505C9.54961 15.2455 10.0013 15.6084 10.3378 15.871C10.5066 16.0028 10.8079 16.2306 10.9072 16.3056C11.3518 16.6328 11.9782 16.5373 12.3056 16.0927C12.6124 15.6758 12.5475 15.0999 12.1718 14.7597C12.0797 14.6902 11.7275 14.4191 11.5683 14.2949C11.2485 14.0453 10.8252 13.7055 10.4052 13.3408C10.2747 13.2275 10.1474 13.1127 10.0244 12.9999Z" fill="#141B34"/>
</svg>
