<svg width="24" height="24" viewBox="0 0 24 24" fill="none" xmlns="http://www.w3.org/2000/svg">
<g opacity="0.4">
<path d="M7.55506 1.25H7.44545C6.19569 1.24998 5.18122 1.24996 4.38182 1.35852C3.54841 1.4717 2.83771 1.71523 2.27271 2.28594C1.70875 2.85559 1.46905 3.5704 1.35748 4.40863C1.28334 4.96569 1.26045 5.6266 1.25339 6.3989C1.25081 6.68118 1.24952 6.82232 1.33755 6.91116C1.42558 7 1.56755 7 1.85149 7H13.149C13.4329 7 13.5749 7 13.6629 6.91116C13.751 6.82232 13.7497 6.68118 13.7471 6.3989C13.74 5.6266 13.7172 4.96569 13.643 4.40863C13.5314 3.5704 13.2917 2.85559 12.7278 2.28594C12.1628 1.71523 11.4521 1.4717 10.6187 1.35852C9.81927 1.24996 8.80481 1.24998 7.55506 1.25Z" fill="#141B34"/>
<path d="M13.7502 9.6C13.7502 9.31716 13.7502 9.17574 13.6624 9.08787C13.5745 9 13.4331 9 13.1502 9H1.85024C1.5674 9 1.42598 9 1.33811 9.08787C1.25024 9.17574 1.25024 9.31716 1.25024 9.6V11.4C1.25024 11.6828 1.25024 11.8243 1.33811 11.9121C1.42598 12 1.5674 12 1.85024 12H13.1502C13.4331 12 13.5745 12 13.6624 11.9121C13.7502 11.8243 13.7502 11.6828 13.7502 11.4V9.6Z" fill="#141B34"/>
<path d="M13.7502 14.6C13.7502 14.3172 13.7502 14.1757 13.6624 14.0879C13.5745 14 13.4331 14 13.1502 14H1.85024C1.5674 14 1.42598 14 1.33811 14.0879C1.25024 14.1757 1.25024 14.3172 1.25024 14.6V16.4444C1.25024 19.9198 4.04138 22.75 7.50025 22.75C10.9591 22.75 13.7502 19.9198 13.7502 16.4444V14.6Z" fill="#141B34"/>
</g>
<path fill-rule="evenodd" clip-rule="evenodd" d="M6.50024 17.5C6.50024 16.9477 6.94596 16.5 7.49577 16.5H7.50472C8.05453 16.5 8.50024 16.9477 8.50024 17.5C8.50024 18.0523 8.05453 18.5 7.50472 18.5H7.49577C6.94596 18.5 6.50024 18.0523 6.50024 17.5Z" fill="#141B34"/>
<path d="M7.69958 22.7469C9.3692 22.6942 10.8711 21.9817 11.961 20.8611H16.3954C17.6912 20.8611 18.5686 20.8592 19.2246 20.7759C19.8557 20.6958 20.1341 20.5556 20.3173 20.3826C20.4962 20.2137 20.6389 19.9626 20.7218 19.3804C20.809 18.7679 20.8112 17.9462 20.8112 16.72C20.8112 16.143 20.8111 15.65 20.8006 15.2167C20.788 14.6953 21.2116 14.2626 21.7468 14.2503C22.282 14.238 22.7261 14.6507 22.7388 15.1722C22.7498 15.6299 22.7498 16.1442 22.7498 16.7113L22.7498 16.7873C22.7499 17.9286 22.7499 18.8824 22.6421 19.6399C22.5278 20.4426 22.2762 21.1632 21.6665 21.739C21.061 22.3108 20.3104 22.5429 19.4751 22.649C18.679 22.7501 17.6744 22.75 16.4613 22.75L7.77916 22.75C7.75237 22.75 7.72583 22.7489 7.69958 22.7469Z" fill="#141B34"/>
<path d="M17.1841 3.50951C16.7959 3.144 16.1895 3.16743 15.8298 3.56186C15.47 3.95629 15.4931 4.57234 15.8813 4.93786C16.3037 5.33554 16.7877 5.83819 17.3962 6.47063C18.3186 7.42925 18.942 8.07998 19.3465 8.63096C19.7338 9.15861 19.834 9.48252 19.834 9.77421C19.834 10.0659 19.7338 10.3898 19.3465 10.9175C18.942 11.4684 18.3186 12.1192 17.3962 13.0778L13.7359 16.8819C13.5988 18.8978 12.5213 20.657 10.9397 21.7107C11.2119 21.7915 11.5165 21.7493 11.7654 21.5691C12.0711 21.3477 12.3616 21.0958 12.6328 20.8139L18.8134 14.3907C19.6773 13.4929 20.3925 12.7497 20.8828 12.0818C21.3991 11.3786 21.7507 10.6495 21.7507 9.77421C21.7507 8.89894 21.3991 8.16982 20.8828 7.46663C20.3925 6.79876 19.6773 6.05554 18.8134 5.15774L18.7524 5.09441C18.1611 4.47983 17.645 3.94346 17.1841 3.50951Z" fill="#141B34"/>
</svg>
