<svg width="24" height="24" viewBox="0 0 24 24" fill="none" xmlns="http://www.w3.org/2000/svg">
<path opacity="0.4" d="M8.28826 5.75183C7.21819 5.75758 6.32318 5.78014 5.57525 5.86855C4.54428 5.99041 3.69558 6.24625 2.98663 6.82807C2.74612 7.02545 2.52559 7.24599 2.3282 7.4865C1.74638 8.19545 1.49054 9.04419 1.36868 10.0752C1.24998 11.0794 1.24999 12.4466 1.25 14.0489C1.24999 15.6512 1.24998 16.9205 1.36868 17.9247C1.49055 18.9557 1.74638 19.8044 2.3282 20.5134C2.52559 20.7539 2.74612 20.9744 2.98663 21.1718C3.69558 21.7536 4.54428 22.0094 5.57525 22.1313C6.57946 22.25 7.94667 22.25 9.54889 22.25C11.1511 22.25 12.4206 22.25 13.4248 22.1313C14.4558 22.0094 15.3045 21.7536 16.0134 21.1718C16.2539 20.9744 16.4745 20.7539 16.6718 20.5134C17.2537 19.8044 17.5095 18.9557 17.6314 17.9247C17.7501 16.9205 17.7501 15.6512 17.75 14.0489C17.7501 12.4467 17.7501 11.0794 17.6314 10.0752C17.5095 9.04419 17.2537 8.19545 16.6718 7.4865C16.6364 7.44328 16.6002 7.40071 16.5632 7.35881C16.3467 7.65187 16.0442 7.84445 15.7146 7.93655C16.3588 9.02635 15.9125 10.6759 14.3754 10.9901C13.4261 11.1841 12.6842 11.926 12.4902 12.8753C12.0475 15.0414 8.95254 15.0414 8.50981 12.8753C8.31577 11.926 7.57388 11.1841 6.62456 10.9901C4.45839 10.5473 4.45857 7.45238 6.62456 7.00967C7.35196 6.861 7.95758 6.39067 8.28826 5.75183Z" fill="#141B34"/>
<path fill-rule="evenodd" clip-rule="evenodd" d="M14.8706 2.05967C14.955 1.64678 15.545 1.64678 15.6294 2.05967C15.8158 2.97159 16.5284 3.68424 17.4403 3.87063C17.8532 3.95503 17.8532 4.54497 17.4403 4.62937C16.5284 4.81576 15.8158 5.52841 15.6294 6.44033C15.545 6.85322 14.955 6.85322 14.8706 6.44033C14.6842 5.52841 13.9716 4.81576 13.0597 4.62937C12.6468 4.54497 12.6468 3.95503 13.0597 3.87063C13.9716 3.68424 14.6842 2.97159 14.8706 2.05967ZM9.73449 5.37487C9.90478 4.5417 11.0952 4.54172 11.2655 5.37487C11.5598 6.81485 12.6852 7.94017 14.1251 8.23449C14.9583 8.40478 14.9583 9.59522 14.1251 9.76551C12.6852 10.0598 11.5598 11.1852 11.2655 12.6251C11.0952 13.4583 9.90478 13.4583 9.73449 12.6251C9.44017 11.1852 8.31485 10.0598 6.87487 9.76551C6.0417 9.59522 6.04172 8.40478 6.87487 8.23449C8.31485 7.94017 9.44017 6.81485 9.73449 5.37487ZM17.7501 14.0491C17.7501 15.2779 17.7501 16.3109 17.6966 17.1787L19 18.9167C19.3935 19.4413 20.011 19.75 20.6667 19.75C21.8173 19.75 22.75 18.8173 22.75 17.6667V10.3333C22.75 9.18274 21.8173 8.25 20.6667 8.25C20.011 8.25 19.3935 8.55874 19 9.08333L17.6958 10.8223C17.7501 11.7193 17.7501 12.8144 17.7501 14.0491V14.0491Z" fill="#141B34"/>
</svg>
