<svg width="24" height="24" viewBox="0 0 24 24" fill="none" xmlns="http://www.w3.org/2000/svg">
<path opacity="0.4" d="M11.0874 1.24998C11.6574 1.24922 12.1619 1.24854 12.6373 1.41721C12.7353 1.45197 12.8314 1.49196 12.9251 1.53703C13.3799 1.7557 13.7362 2.11477 14.1387 2.52041L18.9215 7.32806C19.3889 7.79642 19.8036 8.21208 20.0277 8.75583C20.2518 9.29959 20.2509 9.88834 20.2499 10.5517L20.2498 11.9979H9C7.89543 11.9979 7 12.8934 7 13.9979C7 14.9316 7.63974 15.7158 8.50477 15.9361L7.28499 17.9692C6.91429 18.5871 6.9046 19.3566 7.25961 19.9836C7.61462 20.6106 8.27946 20.9981 9 20.9981H19.1118C19.0238 21.1085 18.9288 21.2154 18.826 21.3187C18.0457 22.103 17.0633 22.4404 15.8965 22.598C14.7727 22.7499 13.3438 22.7499 11.571 22.7499C9.79819 22.7499 8.22705 22.7499 7.10322 22.598C5.93643 22.4404 4.95402 22.103 4.17377 21.3187C3.39352 20.5344 3.05792 19.5469 2.90105 18.374C2.74996 17.2444 2.74998 15.808 2.75 14.0261V14.0261V9.4525V9.45248C2.74998 7.91885 2.74997 6.68227 2.86424 5.69844C2.98248 4.68048 3.23418 3.80827 3.82681 3.06942C4.04435 2.79821 4.29012 2.55116 4.55992 2.33249C5.29495 1.73678 6.16265 1.48377 7.17534 1.36492C8.1541 1.25005 9.5617 1.24996 11.0874 1.24998Z" fill="#141B34"/>
<path fill-rule="evenodd" clip-rule="evenodd" d="M8.25 13.999C8.25 13.5848 8.58579 13.249 9 13.249H12C12.2702 13.249 12.5195 13.3944 12.6526 13.6295C12.7858 13.8646 12.7821 14.1532 12.6431 14.3849L10.3246 18.2492H12C12.4142 18.2492 12.75 18.585 12.75 18.9992C12.75 19.4135 12.4142 19.7492 12 19.7492H9C8.7298 19.7492 8.48048 19.6039 8.34735 19.3688C8.21422 19.1337 8.21786 18.8451 8.35687 18.6134L10.6754 14.749H9C8.58579 14.749 8.25 14.4132 8.25 13.999ZM14.5 13.249C14.9142 13.249 15.25 13.5848 15.25 13.999V18.9992C15.25 19.4135 14.9142 19.7492 14.5 19.7492C14.0858 19.7492 13.75 19.4135 13.75 18.9992V13.999C13.75 13.5848 14.0858 13.249 14.5 13.249ZM16.25 13.999C16.25 13.5848 16.5858 13.249 17 13.249H19C20.2426 13.249 21.25 14.2564 21.25 15.499C21.25 16.7417 20.2426 17.749 19 17.749H17.75V18.999C17.75 19.4132 17.4142 19.749 17 19.749C16.5858 19.749 16.25 19.4132 16.25 18.999V13.999ZM17.75 16.249H19C19.4142 16.249 19.75 15.9132 19.75 15.499C19.75 15.0848 19.4142 14.749 19 14.749H17.75V16.249Z" fill="#141B34"/>
<path d="M12.6752 1.38866C12.7732 1.42342 12.8692 1.46341 12.9629 1.50847C13.4178 1.72714 13.774 2.08622 14.1765 2.49186L18.9593 7.29951L18.9593 7.29952C19.4267 7.76787 19.8415 8.18353 20.0656 8.72728C20.1643 8.96698 20.2194 9.21541 20.25 9.47513H18.2692C16.9016 9.47515 16.2531 9.47436 15.3861 9.3578C14.486 9.23678 13.7281 8.97789 13.1262 8.37597C12.5243 7.77406 12.2654 7.01618 12.1444 6.11608C12.028 5.25088 12.0281 4.60317 12.0281 3.24131V1.25C12.2515 1.27307 12.4661 1.31449 12.6752 1.38866Z" fill="#141B34"/>
</svg>
