<svg xmlns="http://www.w3.org/2000/svg" viewBox="0 0 560 560"><!--! Font Awesome Pro 7.1.0 by @fontawesome - https://fontawesome.com License - https://fontawesome.com/license (Commercial License) Copyright 2025 Fonticons, Inc. --><path opacity=".4" fill="currentColor" d="M61.7 205.7c15.9 17.5 45.6 49.1 81.5 82.6 42.3 39.4 91.9 80 136.8 103.7 44.9-23.7 94.5-64.2 136.8-103.7 35.9-33.5 65.6-65.1 81.5-82.6-46 10.6-126.2 25.3-218.3 25.3S107.7 216.3 61.7 205.7z"/><path fill="currentColor" d="M546.9 235.4c8.6-9.6 13.1-21.9 13.1-34.4 0-35.4-33.7-59.6-66.4-51.7-41.7 10-121.5 25.7-213.6 25.7S108 159.3 66.4 149.3c-32.6-7.9-66.4 16.3-66.4 51.7 0 12.5 4.5 24.8 13.1 34.4 13.6 15.2 48.3 53.1 92 93.9 43.3 40.4 97.1 85 148.7 112.3 8.4 4.4 17.5 6.4 26.3 6.4s17.9-2 26.3-6.4c51.6-27.2 105.4-71.9 148.7-112.3 43.7-40.7 78.4-78.7 92-93.9zm-48.6-29.7c-15.9 17.5-45.6 49.1-81.5 82.6-42.3 39.4-91.9 80-136.8 103.7-44.9-23.7-94.5-64.2-136.8-103.7-35.9-33.5-65.6-65.1-81.5-82.6 46 10.6 126.2 25.3 218.3 25.3s172.3-14.7 218.3-25.3z"/></svg>