<svg xmlns="http://www.w3.org/2000/svg" viewBox="0 0 560 560"><!--! Font Awesome Pro 7.1.0 by @fontawesome - https://fontawesome.com License - https://fontawesome.com/license (Commercial License) Copyright 2025 Fonticons, Inc. --><path opacity=".4" fill="currentColor" d="M308 57.2l0 199.6c0 7.4 3 14.5 8.2 19.8l146 146c26.4-36 41.8-84 41.8-142.6 0-66.6-19.8-119.5-53.2-156.7-32.9-36.7-81.1-60.6-142.8-66.1z"/><path fill="currentColor" d="M310.3 1.2C277-1.5 252 25.8 252 56l0 200.8c0 22.3 8.9 43.6 24.6 59.4L424.2 463.8c21.1 21.1 59 23.7 80.3-4 36.5-47.7 55.6-109.2 55.6-179.7 0-77.9-23.3-144.8-67.5-194.1-44.2-49.3-107.3-78.6-182.3-84.7zM308 256.8l0-199.6c61.7 5.5 109.9 29.3 142.8 66.1 33.4 37.2 53.2 90.1 53.2 156.7 0 58.7-15.4 106.6-41.8 142.6l-146-146c-5.3-5.3-8.2-12.4-8.2-19.8zM191.1 69.9c14.6-5 22.4-21 17.3-35.6s-21-22.4-35.6-17.3C63.7 54.7 0 151.7 0 280 0 363 26.5 433.6 76.5 483.5S197 560 280 560c38.6 0 74.6-5.7 107.1-17 14.6-5.1 22.4-21 17.3-35.6s-21-22.4-35.6-17.3c-26 9-55.7 13.9-88.9 13.9-71 0-126.4-22.5-164-60S56 351 56 280C56 172.1 107.6 98.7 191.1 69.9z"/></svg>