<svg xmlns="http://www.w3.org/2000/svg" viewBox="0 0 560 560"><!--! Font Awesome Pro 7.1.0 by @fontawesome - https://fontawesome.com License - https://fontawesome.com/license (Commercial License) Copyright 2025 Fonticons, Inc. --><path opacity=".4" fill="currentColor" d="M56 280c0 63.4 18 114.4 48.5 151.2 30.4 36.7 75 61.5 132.2 69.8 9.5 1.4 19.8-5.5 21-18.7 3.8-40.4 8.3-107.8 8.3-202.3s-4.5-161.9-8.3-202.3C256.5 64.5 246.1 57.6 236.7 59 179.5 67.3 134.9 92 104.5 128.8 74 165.6 56 216.6 56 280z"/><path fill="currentColor" d="M313.5 72.4C309.5 31.1 273.4-2.9 228.7 3.6 159.4 13.6 101.6 44.4 61.3 93 21.1 141.6 0 205.9 0 280S21.1 418.4 61.3 467c40.3 48.7 98.1 79.5 167.3 89.5 44.7 6.5 80.9-27.5 84.8-68.8 4-42.1 8.5-111.3 8.5-207.6s-4.6-165.5-8.5-207.6zM236.7 59c9.5-1.4 19.8 5.5 21 18.7 3.8 40.4 8.3 107.8 8.3 202.3s-4.5 161.9-8.3 202.3c-1.2 13.2-11.6 20.1-21 18.7-57.2-8.3-101.8-33-132.2-69.8-30.5-36.8-48.5-87.8-48.5-151.2s18-114.4 48.5-151.2C134.9 92 179.5 67.3 236.7 59zM387.1 17c-14.6-5-30.6 2.7-35.6 17.3s2.7 30.6 17.3 35.6C452.4 98.7 504 172.1 504 280S452.4 461.3 368.9 490.1c-14.6 5-22.4 21-17.3 35.6s21 22.4 35.6 17.3C496.4 505.3 560 408.3 560 280S496.4 54.7 387.1 17z"/></svg>