<svg xmlns="http://www.w3.org/2000/svg" viewBox="0 0 560 560"><!--! Font Awesome Pro 7.1.0 by @fontawesome - https://fontawesome.com License - https://fontawesome.com/license (Commercial License) Copyright 2025 Fonticons, Inc. --><path opacity=".4" fill="currentColor" d="M56 280c0-71 22.5-126.4 60-164s93-60 164-60 126.4 22.5 164 60 60 93 60 164-22.5 126.4-60 164-93 60-164 60-126.4-22.5-164-60-60-93-60-164zm112-56c0 15.5 12.5 28 28 28s28-12.5 28-28c0-19.6 6.1-33 14.5-41.5s21.8-14.5 41.5-14.5 33 6.1 41.5 14.5 14.5 21.8 14.5 41.5-6.1 33-14.5 41.5-21.8 14.5-41.5 14.5c-15.5 0-28 12.5-28 28s12.5 28 28 28c31.7 0 60.3-10.2 81-31s31-49.3 31-81-10.2-60.3-31-81-49.4-31-81-31-60.3 10.2-81 31-31 49.3-31 81zm70 182a42 42 0 1 0 84 0 42 42 0 1 0 -84 0z"/><path fill="currentColor" d="M238.5 182.5c-8.4 8.4-14.5 21.8-14.5 41.5 0 15.5-12.5 28-28 28s-28-12.5-28-28c0-31.7 10.2-60.3 31-81s49.4-31 81-31 60.3 10.2 81 31 31 49.3 31 81-10.2 60.3-31 81-49.4 31-81 31c-15.5 0-28-12.5-28-28s12.5-28 28-28c19.6 0 33-6.1 41.5-14.5s14.5-21.8 14.5-41.5-6.1-33-14.5-41.5-21.8-14.5-41.5-14.5-33 6.1-41.5 14.5zM280 448a42 42 0 1 0 0-84 42 42 0 1 0 0 84zM76.5 76.5C126.4 26.5 197 0 280 0S433.6 26.5 483.5 76.5 560 197 560 280 533.5 433.6 483.5 483.5 363 560 280 560 126.4 533.5 76.5 483.5 0 363 0 280 26.5 126.4 76.5 76.5zM116 116c-37.6 37.6-60 93-60 164s22.5 126.4 60 164 93 60 164 60 126.4-22.5 164-60 60-93 60-164-22.5-126.4-60-164-93-60-164-60-126.4 22.5-164 60z"/></svg>