<svg xmlns="http://www.w3.org/2000/svg" viewBox="0 0 560 560"><!--! Font Awesome Pro 7.1.0 by @fontawesome - https://fontawesome.com License - https://fontawesome.com/license (Commercial License) Copyright 2025 Fonticons, Inc. --><path opacity=".4" fill="currentColor" d="M56 280c0 71 22.5 126.4 60 164s93 60 164 60 126.4-22.5 164-60 60-93 60-164-22.5-126.4-60-164-93-60-164-60-126.4 22.5-164 60-60 93-60 164zM252 140c0-15.5 12.5-28 28-28s28 12.5 28 28l0 116.8c0 7.4 3 14.5 8.2 19.8l67.6 67.6c10.9 10.9 10.9 28.7 0 39.6s-28.7 10.9-39.6 0l-67.6-67.6c-15.8-15.8-24.6-37.1-24.6-59.4L252 140z"/><path fill="currentColor" d="M308 140c0-15.5-12.5-28-28-28s-28 12.5-28 28l0 116.8c0 22.3 8.9 43.6 24.6 59.4l67.6 67.6c10.9 10.9 28.7 10.9 39.6 0s10.9-28.7 0-39.6l-67.6-67.6c-5.3-5.3-8.2-12.4-8.2-19.8L308 140zM280 0C197 0 126.4 26.5 76.5 76.5S0 197 0 280 26.5 433.6 76.5 483.5 197 560 280 560 433.6 533.5 483.5 483.5 560 363 560 280 533.5 126.4 483.5 76.5 363 0 280 0zM56 280c0-71 22.5-126.4 60-164s93-60 164-60 126.4 22.5 164 60 60 93 60 164-22.5 126.4-60 164-93 60-164 60-126.4-22.5-164-60-60-93-60-164z"/></svg>