<svg xmlns="http://www.w3.org/2000/svg" viewBox="0 0 616 560"><!--! Font Awesome Pro 7.1.0 by @fontawesome - https://fontawesome.com License - https://fontawesome.com/license (Commercial License) Copyright 2025 Fonticons, Inc. --><path opacity=".4" fill="currentColor" d="M252 279c32-4.6 59-24.6 73.2-52.3 22.5 7.3 38.8 28.4 38.8 53.3 0 30.9-25.1 56-56 56-30.9 0-56.5-26.1-56-57z"/><path fill="currentColor" d="M308 168c-14.6 0-26.1 10.3-29 23.3-4.2 18.7-21 32.7-41 32.7-14 0-33.6 8.1-38.8 29.5-2.1 8.5-3.2 17.4-3.2 26.5 0 61.9 50.1 112 112 112s112-50.1 112-112-50.1-112-112-112zM252 279c32-4.6 59-24.6 73.2-52.3 22.5 7.3 38.8 28.4 38.8 53.3 0 30.9-25.1 56-56 56-30.9 0-56.5-26.1-56-57zM308 42C138.8 42 46.6 165.5 15.9 216 4.2 235.2 0 256.6 0 276.6l0 6.8c0 20 4.2 41.4 15.9 60.6 30.7 50.5 122.9 174 292.1 174S569.4 394.5 600.1 344c11.7-19.2 15.9-40.6 15.9-60.6l0-6.8c0-20-4.2-41.4-15.9-60.6-30.7-50.5-122.9-174-292.1-174zM63.8 245.1C91.6 199.2 169.2 98 308 98S524.4 199.2 552.2 245.1c5.1 8.5 7.8 19.1 7.8 31.5l0 6.8c0 12.4-2.6 23.1-7.8 31.5-27.9 45.8-105.4 147.1-244.2 147.1S91.6 360.8 63.8 314.9c-5.1-8.5-7.8-19.1-7.8-31.5l0-6.8c0-12.4 2.6-23.1 7.8-31.5z"/></svg>