<svg xmlns="http://www.w3.org/2000/svg" viewBox="0 0 560 560"><!--! Font Awesome Pro 7.1.0 by @fontawesome - https://fontawesome.com License - https://fontawesome.com/license (Commercial License) Copyright 2025 Fonticons, Inc. --><path opacity=".4" fill="currentColor" d="M56 280c0-71 22.5-126.4 60-164s93-60 164-60 126.4 22.5 164 60 60 93 60 164-22.5 126.4-60 164-93 60-164 60-126.4-22.5-164-60-60-93-60-164zm84-84l0 56c0 15.5 12.5 28 28 28s28-12.5 28-28l0-56c0-15.5-12.5-28-28-28s-28 12.5-28 28zm29.6 172.6c5.2 14.6 21.3 22.1 35.8 16.9 13.3-4.8 28.8-7.5 46.5-7.5 38.7 0 67.1 12.8 85.2 32.8 10.4 11.4 28.1 12.3 39.6 1.9s12.3-28.1 1.9-39.6c-30.6-33.7-75.2-51.2-126.7-51.2-23.4 0-45.4 3.6-65.5 10.8-14.6 5.2-22.1 21.3-16.9 35.8zM280 196l0 56c0 15.5 12.5 28 28 28s28-12.5 28-28l0-56c0-15.5-12.5-28-28-28s-28 12.5-28 28z"/><path fill="currentColor" d="M168 168c15.5 0 28 12.5 28 28l0 56c0 15.5-12.5 28-28 28s-28-12.5-28-28l0-56c0-15.5 12.5-28 28-28zm140 0c15.5 0 28 12.5 28 28l0 56c0 15.5-12.5 28-28 28s-28-12.5-28-28l0-56c0-15.5 12.5-28 28-28zm70.7 205.2c10.4 11.4 9.5 29.2-1.9 39.6s-29.2 9.5-39.6-1.9c-18.2-20-46.5-32.8-85.2-32.8-17.7 0-33.3 2.7-46.5 7.5-14.6 5.2-30.6-2.3-35.8-16.9s2.3-30.6 16.9-35.8c20-7.2 42-10.8 65.5-10.8 51.5 0 96.1 17.4 126.7 51.2zM76.5 76.5C126.4 26.5 197 0 280 0S433.6 26.5 483.5 76.5 560 197 560 280 533.5 433.6 483.5 483.5 363 560 280 560 126.4 533.5 76.5 483.5 0 363 0 280 26.5 126.4 76.5 76.5zM116 116c-37.6 37.6-60 93-60 164s22.5 126.4 60 164 93 60 164 60 126.4-22.5 164-60 60-93 60-164-22.5-126.4-60-164-93-60-164-60-126.4 22.5-164 60z"/></svg>