<svg xmlns="http://www.w3.org/2000/svg" viewBox="0 0 560 560"><!--! Font Awesome Pro 7.1.0 by @fontawesome - https://fontawesome.com License - https://fontawesome.com/license (Commercial License) Copyright 2025 Fonticons, Inc. --><path opacity=".4" fill="currentColor" d="M31 308.2c8.6 .9 16.7 5.9 21.3 13.9l47.5 83.1C134.7 466.3 199.7 504 270 504l10 0c62.4 0 110.8-19.7 143.5-52.5S476 370.4 476 308l0-140c0-15.5 12.5-28 28-28 0-30.9-25.1-56-56-56l-28 0 0 196c0 15.5-12.5 28-28 28s-28-12.5-28-28l0-196c0-13 8.9-24 21-27.1-9.6-17.3-28-28.9-49-28.9l-28 0 0 252c0 15.5-12.5 28-28 28s-28-12.5-28-28l0-252-28 0c-21.1 0-39.5 11.7-49 28.9 12.1 3.1 21 14.1 21 27.1l0 252c0 15.5-12.5 28-28 28s-28-12.5-28-28l0-28-10.6-10.6c-11.1-11.1-26.2-17.4-42-17.4l-15.1 0c-18.8 0-34.8 11.7-41.2 28.2z"/><path fill="currentColor" d="M308 28c0-15.5-12.5-28-28-28s-28 12.5-28 28l0 252c0 15.5 12.5 28 28 28s28-12.5 28-28l0-252zM196 84c0-15.5-12.5-28-28-28s-28 12.5-28 28l0 252c0 15.5 12.5 28 28 28s28-12.5 28-28l0-252zm224 0c0-15.5-12.5-28-28-28s-28 12.5-28 28l0 196c0 15.5 12.5 28 28 28s28-12.5 28-28l0-196zm112 84c0-15.5-12.5-28-28-28s-28 12.5-28 28l0 140c0 62.4-19.7 110.8-52.5 143.5S342.4 504 280 504l-10 0c-70.3 0-135.3-37.7-170.2-98.8L52.3 322.1c-7.7-13.4-24.8-18.1-38.2-10.4S-4 336.5 3.7 349.9L51.2 433C96.1 511.5 179.6 560 270 560l10 0c74.5 0 138.1-23.8 183.1-68.9S532 382.5 532 308l0-140z"/></svg>