<svg xmlns="http://www.w3.org/2000/svg" viewBox="0 0 504 560"><!--! Font Awesome Pro 7.1.0 by @fontawesome - https://fontawesome.com License - https://fontawesome.com/license (Commercial License) Copyright 2025 Fonticons, Inc. --><path opacity=".4" fill="currentColor" d="M55.8 307.3c0 14.8 .1 29.4 .4 44 25.1-10.1 53.4-15.2 83.9-15.2 28.5 0 55.2 4.5 79.2 13.5 2.9-3.9 5.9-7.6 9-11.3 47.4-55.8 119.4-86.2 205.9-86.2 .2 0 .5 0 .7 0 4.2 0 8.6 .1 13.3 .3l0-28.3c0-34.4-1.8-60.1-5.9-79.4-4.1-19-10.1-30.1-17.4-37.3S406.4 94 387.4 89.9c-19.3-4.2-45-5.9-79.4-5.9L196 84c-34.4 0-60.1 1.8-79.4 5.9-19 4.1-30.1 10.1-37.3 17.4S66 125.6 61.9 144.6c-2.1 9.7-3.6 20.9-4.5 34-.5 6.6-.8 13.6-1.1 21.1s-.3 15.6-.3 24.1l0 .4c0 6.5 0 12.9 0 19.3l0 .4c0 6.2 0 12.4-.1 18.6 0 .6 0 1.1 0 1.6 0 7-.1 13.9-.1 20.9l0 .5c0 7.3 0 14.4 0 21.6z"/><path fill="currentColor" d="M140 210a42 42 0 1 1 84 0 42 42 0 1 1 -84 0zM7.2 427.2C1.7 401.9 0 371.6 0 336L0 224c0-35.6 1.7-65.9 7.2-91.2 5.5-25.6 15.2-47.8 32.5-65.1s39.5-27 65.1-32.5C130.1 29.7 160.4 28 196 28l112 0c35.6 0 65.9 1.7 91.2 7.2 25.6 5.5 47.8 15.2 65.1 32.5s27 39.5 32.5 65.1c5.5 25.3 7.2 55.7 7.2 91.2l0 112c0 35.6-1.7 65.9-7.2 91.2-5.5 25.6-15.2 47.8-32.5 65.1s-39.5 27-65.1 32.5c-25.3 5.5-55.7 7.2-91.2 7.2l-112 0c-35.6 0-65.9-1.7-91.2-7.2-25.6-5.5-47.8-15.2-65.1-32.5s-27-39.5-32.5-65.1zm109.4 42.9c19.3 4.2 45 5.9 79.4 5.9l75.3 0c-10.4-30.3-29.7-52.7-55.4-66.6-20.2-11-45.6-17.4-75.9-17.4-31.8 0-58.1 7-78.9 19.1 4 21.4 10.5 33.8 18.2 41.6 7.2 7.2 18.3 13.3 37.3 17.4zM56.1 351.3c25.1-10.2 53.4-15.3 83.9-15.3 28.5 0 55.2 4.5 79.2 13.5 47-63 122.8-97.5 214.8-97.5 4.7 0 9.4 .1 14 .3l0-28.3c0-34.4-1.8-60.1-5.9-79.4-4.1-19-10.1-30.1-17.4-37.3S406.4 94 387.4 89.9c-19.3-4.2-45-5.9-79.4-5.9L196 84c-34.4 0-60.1 1.8-79.4 5.9-19 4.1-30.1 10.1-37.3 17.4S66 125.6 61.9 144.6c-4.2 19.3-5.9 45-5.9 79.4 0 42.4-.6 84.9 .1 127.3zm391.9-43c-66.4-3.1-136.1 15.7-179.5 69 30.3 24.3 51.2 58.1 61 98.4 23.9-.6 42.8-2.4 57.9-5.7 19-4.1 30.1-10.1 37.3-17.4s13.3-18.3 17.4-37.3c4.2-19.3 5.9-45 5.9-79.4l0-27.7z"/></svg>