<svg xmlns="http://www.w3.org/2000/svg" viewBox="0 0 504 560"><!--! Font Awesome Pro 7.1.0 by @fontawesome - https://fontawesome.com License - https://fontawesome.com/license (Commercial License) Copyright 2025 Fonticons, Inc. --><path opacity=".4" fill="currentColor" d="M32.8 281.4c12.1-6.6 26.3-9.5 40.5-7.4 15.5 2.3 34.6 4.4 55.8 5.4 24.1 1.2 47.7 12.3 63 32.8l9.5 12.6c5.3 7.1 13.6 11.2 22.4 11.2l56 0c8.8 0 17.1-4.1 22.4-11.2l9.5-12.6c15.3-20.4 38.9-31.6 63-32.8 21.2-1 40.3-3.2 55.8-5.4 14.2-2.1 28.4 .8 40.5 7.4-2-14-4.6-28.8-7.5-44-15 3-29.8-6.6-32.9-21.7-6.9-32.6-14.7-65.1-21.5-91.7-6-23.6-27.5-40.1-52.6-40.1L147.4 84c-25.1 0-46.6 16.6-52.6 40.1-6.8 26.6-14.6 59-21.5 91.7-1.6 7.5-6.1 13.7-12 17.6s-13.4 5.6-21.2 4c-2.6 15.2-5.2 30-7.2 44z"/><path fill="currentColor" d="M147.4 28c-49.9 0-94.3 33.1-106.9 82.3-6.9 27-15 60.3-22.1 94-3.2 15.1 6.5 30 21.6 33.2s30-6.5 33.2-21.6c6.9-32.6 14.7-65.1 21.5-91.7 6-23.6 27.5-40.1 52.6-40.1l209.3 0c25.1 0 46.6 16.6 52.6 40.1 6.8 26.6 14.6 59 21.5 91.7 3.2 15.1 18 24.8 33.2 21.6s24.8-18 21.6-33.2c-7.1-33.7-15.2-66.9-22.1-94-12.5-49.1-57-82.3-106.9-82.3L147.4 28zm-74 246c-36.5-5.3-73.3 22.2-73.3 62 0 35.6 1.7 65.9 7.2 91.2 5.5 25.6 15.2 47.8 32.5 65.1s39.5 27 65.1 32.5c25.3 5.5 55.7 7.2 91.2 7.2l112 0c35.6 0 65.9-1.7 91.2-7.2 25.6-5.5 47.8-15.2 65.1-32.5s27-39.5 32.5-65.1c5.5-25.3 7.2-55.7 7.2-91.2 0-39.9-36.8-67.4-73.3-62-15.5 2.3-34.6 4.4-55.8 5.4-24.1 1.2-47.7 12.3-63 32.8l-9.5 12.6c-5.3 7.1-13.6 11.2-22.4 11.2l-56 0c-8.8 0-17.1-4.1-22.4-11.2l-9.5-12.6c-15.3-20.4-38.9-31.6-63-32.8-21.2-1-40.3-3.2-55.8-5.4zM56 336c0-4.4 5.3-7.2 9.2-6.6 16.9 2.5 37.9 4.8 61.2 6 8.9 .4 16.4 4.5 20.9 10.5l9.5 12.6C172.7 379.6 197.6 392 224 392l56 0c26.4 0 51.3-12.4 67.2-33.6l9.5-12.6c4.5-6 12-10 20.9-10.5 23.3-1.1 44.3-3.5 61.2-6 3.9-.6 9.2 2.2 9.2 6.6 0 34.4-1.8 60.1-5.9 79.4-4.1 19-10.1 30.1-17.4 37.3s-18.3 13.3-37.3 17.4c-19.3 4.2-45 5.9-79.4 5.9l-112 0c-34.4 0-60.1-1.8-79.4-5.9-19-4.1-30.1-10.1-37.3-17.4S66 434.4 61.9 415.4c-4.2-19.3-5.9-45-5.9-79.4z"/></svg>