<svg xmlns="http://www.w3.org/2000/svg" viewBox="0 0 560 560"><!--! Font Awesome Pro 7.1.0 by @fontawesome - https://fontawesome.com License - https://fontawesome.com/license (Commercial License) Copyright 2025 Fonticons, Inc. --><path opacity=".4" fill="currentColor" d="M84 252c0 35.2 5.5 66.5 15.6 93.6 5.2 14-1.5 29.5-15 35.4 7.4 14.5 16.2 27.9 26.3 40.1 19.7-27.9 42.1-53.7 65.3-76.9l112-112c10.9-10.9 28.7-10.9 39.6 0s10.9 28.7 0 39.6l-112 112c-22.6 22.6-44.5 48.1-63.2 75.7 11.8 8.3 24.5 15.4 38.2 21.5 5.2-13.8 20.3-21.3 34.6-16.9 24.5 7.7 52.2 11.9 82.7 11.9 72.2 0 119.3-34.9 150.2-93.5 31.9-60.6 45.8-146.3 45.8-242.5 0-40.4-7.1-58.5-16.3-67.7S460.4 56 420 56C323.8 56 238.2 69.9 177.5 101.8 118.9 132.7 84 179.8 84 252z"/><path fill="currentColor" d="M84 252c0-72.2 34.9-119.3 93.5-150.2 60.6-31.9 146.3-45.8 242.5-45.8 40.4 0 58.5 7.1 67.7 16.3S504 99.6 504 140c0 96.2-13.9 181.8-45.8 242.5-30.9 58.7-78.1 93.5-150.2 93.5-30.5 0-58.2-4.2-82.7-11.9-14.8-4.6-30.5 3.6-35.1 18.3s3.6 30.5 18.3 35.1c30.5 9.6 63.8 14.4 99.5 14.4 95.8 0 160.7-49.1 199.8-123.5 38.1-72.4 52.2-168.7 52.2-268.5 0-43.6-6.9-81.5-32.7-107.3S463.6 0 420 0C320.2 0 223.8 14.1 151.5 52.2 77.1 91.3 28 156.2 28 252 28 293 34.5 331 47.1 365.1 52.5 379.6 68.6 387 83.1 381.6s21.9-21.5 16.5-36C89.5 318.5 84 287.2 84 252zM215.8 383.8l112-112c10.9-10.9 10.9-28.7 0-39.6s-28.7-10.9-39.6 0l-112 112c-49.6 49.6-95.7 111.5-118.7 178.8-4.9 14.7 3 30.7 17.6 35.6s30.5-3 35.4-17.7c20.7-59.1 61.6-113.4 105.2-157.1z"/></svg>