<svg xmlns="http://www.w3.org/2000/svg" viewBox="0 0 560 560"><!--! Font Awesome Pro 7.1.0 by @fontawesome - https://fontawesome.com License - https://fontawesome.com/license (Commercial License) Copyright 2025 Fonticons, Inc. --><path opacity=".4" fill="currentColor" d="M56 107l0 334.4c21-4.2 49.3-9.3 75.1-13.6 12.6-2.1 25.5-4.1 36.9-5.6L168 252c0-15.5 12.5-28 28-28l0-140c-7.5 0-30.9 3.3-60.6 8.4-28.3 4.8-59.1 10.7-79.4 14.6zM364 336l0 140c7.5 0 30.9-3.3 60.6-8.4 28.3-4.8 59.1-10.7 79.4-14.6l0-334.4c-21 4.2-49.3 9.3-75.1 13.6-12.6 2.1-25.5 4.1-36.9 5.6L392 308c0 15.5-12.5 28-28 28z"/><path fill="currentColor" d="M238.8 38.5c-7.5-2.8-14.9-5.2-21.6-7.1-6.2-1.7-13.9-3.4-21.2-3.4-13.4 0-42.4 4.5-70 9.2-28.9 5-60.3 10.9-80.8 14.9-26.4 5.1-45.2 28.2-45.2 54.9L0 441.5c0 35.6 32.6 62 67.2 55.1 20.8-4.1 48.1-9.3 73.1-13.5 25.9-4.3 46.6-7.1 55.7-7.1 3.5 0 12.5 1.9 27.9 7.2 16.8 5.8 33.2 12.6 49.6 19.3s33.2 13.7 47.7 19c7.5 2.8 14.9 5.2 21.6 7.1 6.2 1.7 13.9 3.4 21.2 3.4 13.4 0 42.4-4.5 70-9.2 28.9-5 60.3-10.9 80.8-14.9 26.4-5.1 45.2-28.2 45.2-54.9l0-334.5c0-35.6-32.6-62-67.2-55.1-20.8 4.1-48.1 9.3-73.1 13.5-25.9 4.3-46.6 7.1-55.7 7.1-3.5 0-12.5-1.9-27.9-7.2-19-6.6-37.5-14.3-56.1-22-14.2-5.9-28.6-11.7-41.2-16.3zM56 107c20.3-3.9 51.1-9.8 79.4-14.6 29.7-5.1 53.1-8.4 60.6-8.4 .4 .1 2.4 .3 6.5 1.4 19.5 5.3 38.3 13.3 57 21.3 19.7 8.4 40.1 16.7 58.4 23 5.8 2 12 4 18.2 5.7L336 308c0 15.5 12.5 28 28 28s28-12.5 28-28l0-170.3c11.5-1.4 24.3-3.4 36.9-5.6 25.8-4.3 54-9.5 75.1-13.6L504 453c-20.3 3.9-51.1 9.8-79.4 14.6-29.7 5.1-53.1 8.4-60.6 8.4-.4-.1-2.4-.3-6.5-1.4-19.5-5.3-38.3-13.3-57-21.3-19.7-8.4-40.1-16.7-58.4-23-5.8-2-12-4-18.2-5.7L224 252c0-15.5-12.5-28-28-28s-28 12.5-28 28l0 170.3c-11.5 1.4-24.3 3.4-36.9 5.6-25.8 4.3-54 9.5-75.1 13.6L56 107z"/></svg>