<svg xmlns="http://www.w3.org/2000/svg" viewBox="0 0 560 560"><!--! Font Awesome Pro 7.1.0 by @fontawesome - https://fontawesome.com License - https://fontawesome.com/license (Commercial License) Copyright 2025 Fonticons, Inc. --><path opacity=".4" fill="currentColor" d="M126 251.3c7.2-.7 14.1-2 20.8-3.8 3.3-.9 6.6-2 9.8-3.2 1.6-.6 3.2-1.2 4.7-1.9s3.1-1.4 4.6-2.1L501.8 408.2c-9.6 34.1-48.8 53.5-82.9 36.6L167.3 320.4c-12.6-6.4-26.5-10.2-41.3-11.7l0-57.4zm102.9-42.2c63.3-31.3 126.7-62.7 190-94 34.1-16.9 73.3 2.5 82.9 36.6-31.4 15.7-62.9 31.4-94.3 47.2-13.8 6.9-19.4 23.7-12.5 37.6l-55.7 27.8c-36.8-18.4-73.6-36.8-110.4-55.2z"/><path fill="currentColor" d="M31 59c20.7-20.7 49.3-31 81-31s60.3 10.2 81 31 31 49.3 31 81c0 3.1-.1 6.2-.3 9.3L394.1 65c76.4-37.8 165.9 17.8 165.9 103 0 10.6-6 20.3-15.5 25l-112 56c-13.8 6.9-30.6 1.3-37.6-12.5s-1.3-30.6 12.5-37.6l94.3-47.2c-9.6-34.1-48.8-53.5-82.9-36.6l-190 94 315.6 157.8c9.5 4.7 15.5 14.4 15.5 25 0 85.2-89.5 140.8-165.9 103L223.7 410.7c.2 3 .3 6.1 .3 9.3 0 31.7-10.2 60.3-31 81s-49.3 31-81 31c-20.9 0-40.5-4.4-57.5-13.5-35.7-19.1-54.5-55.6-54.5-98.5 0-31.7 10.2-60.3 31-81s49.3-31 81-31c20 0 38.8 4 55.3 12.4L418.9 444.8c34.1 16.9 73.3-2.5 82.9-36.6L166 240.3c-16.1 7.8-34.4 11.7-54 11.7-20.9 0-40.5-4.4-57.5-13.5-35.7-19.1-54.5-55.6-54.5-98.5 0-31.7 10.2-60.3 31-81zM70.5 98.5c-8.4 8.4-14.5 21.8-14.5 41.5 0 25.9 10.5 41.4 24.9 49.1 7.8 4.2 18 6.9 31.1 6.9 19.6 0 33-6.1 41.5-14.5S168 159.6 168 140 161.9 107 153.5 98.5 131.6 84 112 84 79 90.1 70.5 98.5zm0 280c-8.4 8.4-14.5 21.8-14.5 41.5 0 25.9 10.5 41.4 24.9 49.1 7.8 4.2 18 6.9 31.1 6.9 19.6 0 33-6.1 41.5-14.5S168 439.6 168 420c0-26.3-10.8-42-25.9-49.6-7.6-3.9-17.6-6.4-30.1-6.4-19.6 0-33 6.1-41.5 14.5z"/></svg>