<svg xmlns="http://www.w3.org/2000/svg" viewBox="0 0 560 560"><!--! Font Awesome Pro 7.1.0 by @fontawesome - https://fontawesome.com License - https://fontawesome.com/license (Commercial License) Copyright 2025 Fonticons, Inc. --><path opacity=".4" fill="currentColor" d="M56 84l114.9 0c4.3 20.4 13.7 38.6 28.1 53 20.7 20.7 49.4 31 81 31s60.3-10.2 81-31c14.4-14.4 23.7-32.6 28.1-53l114.9 0 0 91.8-45.7 15.2c-22.9 7.6-38.3 29-38.3 53.1L420 360c0 29.4-1.5 51.1-5 67.2-3.4 15.8-8.3 24.5-13.8 30s-14.1 10.4-30 13.8c-16.2 3.5-37.8 5-67.2 5l-48 0c-29.4 0-51.1-1.5-67.2-5-15.8-3.4-24.5-8.3-30-13.8s-10.4-14.1-13.8-30c-3.5-16.2-5-37.8-5-67.2l0-115.8c0-24.1-15.4-45.5-38.3-53.1L56 175.8 56 84z"/><path fill="currentColor" d="M0 84C0 53.1 25.1 28 56 28l140 0c15.5 0 28 12.5 28 28 0 19.6 6.1 33 14.5 41.5S260.4 112 280 112 313 105.9 321.5 97.5 336 75.6 336 56c0-15.5 12.5-28 28-28l140 0c30.9 0 56 25.1 56 56l0 91.8c0 24.1-15.4 45.5-38.3 53.1L476 244.2 476 360c0 30.6-1.5 56.9-6.3 79-4.8 22.4-13.4 42.2-28.9 57.8s-35.4 24.1-57.8 28.9c-22.1 4.8-48.5 6.3-79 6.3l-48 0c-30.6 0-56.9-1.5-79-6.3-22.4-4.8-42.2-13.4-57.8-28.9S95.1 461.4 90.3 439c-4.8-22.1-6.3-48.5-6.3-79l0-115.8-45.7-15.2C15.4 221.3 0 199.9 0 175.8L0 84zm170.9 0l-114.9 0 0 91.8 45.7 15.2c22.9 7.6 38.3 29 38.3 53.1L140 360c0 29.4 1.5 51.1 5 67.2 3.4 15.8 8.3 24.5 13.8 30s14.1 10.4 30 13.8c16.2 3.5 37.8 5 67.2 5l48 0c29.4 0 51.1-1.5 67.2-5 15.8-3.4 24.5-8.3 30-13.8s10.4-14.1 13.8-30c3.5-16.2 5-37.8 5-67.2l0-115.8c0-24.1 15.4-45.5 38.3-53.1l45.7-15.2 0-91.8-114.9 0c-4.3 20.4-13.7 38.6-28.1 53-20.7 20.7-49.4 31-81 31s-60.3-10.2-81-31c-14.4-14.4-23.7-32.6-28.1-53z"/></svg>