<svg xmlns="http://www.w3.org/2000/svg" viewBox="0 0 560 560"><!--! Font Awesome Pro 7.1.0 by @fontawesome - https://fontawesome.com License - https://fontawesome.com/license (Commercial License) Copyright 2025 Fonticons, Inc. --><path opacity=".4" fill="currentColor" d="M378 280c0 95.8 4.6 144.5 8.2 167.7 59-1.6 83.6-10.6 96.4-25 6.6-7.5 12.2-18.9 16-37.8 3.8-19.1 5.4-44 5.4-76.9l0-56c0-32.9-1.6-57.8-5.4-76.9-3.8-18.9-9.4-30.3-16-37.8-12.8-14.4-37.4-23.4-96.4-25-3.6 23.3-8.2 71.9-8.2 167.7z"/><path fill="currentColor" d="M266 448c15.5 0 28 12.5 28 28s-12.5 28-28 28l-70 0c-35.6 0-65.9-1.7-91.2-7.2-25.6-5.5-47.8-15.2-65.1-32.5s-27-39.5-32.5-65.1C1.7 373.9 0 343.6 0 308l0-56c0-35.6 1.7-65.9 7.2-91.2 5.5-25.6 15.2-47.8 32.5-65.1s39.5-27 65.1-32.5C130.1 57.7 160.4 56 196 56l70 0c15.5 0 28 12.5 28 28s-12.5 28-28 28l-70 0c-34.4 0-60.1 1.8-79.4 5.9-19 4.1-30.1 10.1-37.3 17.4S66 153.6 61.9 172.6c-4.2 19.3-5.9 45-5.9 79.4l0 56c0 34.4 1.8 60.1 5.9 79.4 4.1 19 10.1 30.1 17.4 37.3s18.3 13.3 37.3 17.4c19.3 4.2 45 5.9 79.4 5.9l70 0zM560 308c0 34.1-1.6 63.3-6.5 87.9-4.9 24.7-13.6 46.5-29 63.9-30.9 34.9-80.5 42.8-142.6 44-22 .4-44.9-13.4-49.7-39.5-4.6-24.9-10.2-77.1-10.2-184.3s5.6-159.4 10.2-184.3c4.8-26.1 27.7-39.9 49.7-39.5 62.1 1.2 111.7 9.1 142.6 44 15.4 17.4 24 39.2 29 63.9 4.9 24.6 6.5 53.8 6.5 87.9l0 56zM378 280c0 95.8 4.6 144.5 8.2 167.7 59-1.6 83.6-10.6 96.4-25 6.6-7.5 12.2-18.9 16-37.8 3.8-19.1 5.4-44 5.4-76.9l0-56c0-32.9-1.6-57.8-5.4-76.9-3.8-18.9-9.4-30.3-16-37.8-12.8-14.4-37.4-23.4-96.4-25-3.6 23.3-8.2 71.9-8.2 167.7z"/></svg>