<svg xmlns="http://www.w3.org/2000/svg" viewBox="0 0 616 560"><!--! Font Awesome Pro 7.1.0 by @fontawesome - https://fontawesome.com License - https://fontawesome.com/license (Commercial License) Copyright 2025 Fonticons, Inc. --><path opacity=".4" fill="currentColor" d="M56 401.3c0-21.6 4.1-29 6.4-31.4 1.8-1.9 7.1-5.9 25.6-5.9l20 0c18.5 0 23.8 4 25.6 5.9 2.3 2.5 6.4 9.8 6.4 31.4l0 9.3c0 21.6-4.1 29-6.4 31.4-1.8 1.9-7.1 5.9-25.6 5.9l-20 0c-18.5 0-23.8-4-25.6-5.9-2.3-2.5-6.4-9.8-6.4-31.4l0-9.3z"/><path fill="currentColor" d="M21.3 331.9C38.8 313 63.5 308 88 308l20 0c24.5 0 49.2 5 66.7 23.9 16.9 18.3 21.3 43.6 21.3 69.5l0 9.3c0 25.8-4.4 51.2-21.3 69.5-17.5 18.9-42.2 23.9-66.7 23.9l-20 0C63.5 504 38.8 499 21.3 480.1 4.4 461.8 0 436.5 0 410.7l0-9.3c0-25.8 4.4-51.2 21.3-69.5zm41.1 38c-2.3 2.5-6.4 9.8-6.4 31.4l0 9.3c0 21.6 4.1 29 6.4 31.4 1.8 1.9 7.1 5.9 25.6 5.9l20 0c18.5 0 23.8-4 25.6-5.9 2.3-2.5 6.4-9.8 6.4-31.4l0-9.3c0-21.6-4.1-29-6.4-31.4-1.8-1.9-7.1-5.9-25.6-5.9l-20 0c-18.5 0-23.8 4-25.6 5.9z"/></svg>