<svg xmlns="http://www.w3.org/2000/svg" viewBox="0 0 616 560"><!--! Font Awesome Pro 7.1.0 by @fontawesome - https://fontawesome.com License - https://fontawesome.com/license (Commercial License) Copyright 2025 Fonticons, Inc. --><path opacity=".4" fill="currentColor" d="M336 233.3l0 35.1 84 84 0-119.1c0-21.6-4.1-29-6.4-31.4-1.8-1.9-7.1-5.9-25.6-5.9l-20 0c-18.5 0-23.8 4-25.6 5.9-2.3 2.5-6.4 9.8-6.4 31.4zm140-84l0 259.1 39.6 39.6 12.4 0c18.5 0 23.8-4 25.6-5.9 2.3-2.5 6.4-9.8 6.4-31.4l0-261.3c0-21.6-4.1-29-6.4-31.4-1.8-1.9-7.1-5.9-25.6-5.9l-20 0c-18.5 0-23.8 4-25.6 5.9-2.3 2.5-6.4 9.8-6.4 31.4z"/><path fill="currentColor" d="M36.2 8.2C47.1-2.7 64.9-2.7 75.8 8.2L281 213.4c2.1-18.6 7.7-36 20.3-49.6 17.5-18.9 42.2-23.9 66.7-23.9l20 0c10.9 0 21.8 1 32.1 3.7 .6-23.9 5.5-46.9 21.2-63.9 17.5-18.9 42.2-23.9 66.7-23.9l20 0c24.5 0 49.2 5 66.7 23.9 16.9 18.3 21.3 43.6 21.3 69.5l0 261.3c0 25.8-4.4 51.2-21.3 69.5-8.2 8.9-18 14.7-28.6 18.3l13.7 13.7c10.9 10.9 10.9 28.7 0 39.6s-28.7 10.9-39.6 0l-504-504c-10.9-10.9-10.9-28.7 0-39.6zM515.6 448l12.4 0c18.5 0 23.8-4 25.6-5.9 2.3-2.5 6.4-9.8 6.4-31.4l0-261.3c0-21.6-4.1-29-6.4-31.4-1.8-1.9-7.1-5.9-25.6-5.9l-20 0c-18.5 0-23.8 4-25.6 5.9-2.3 2.5-6.4 9.8-6.4 31.4l0 259.1 39.6 39.6zM420 352.4l0-119.1c0-21.6-4.1-29-6.4-31.4-1.8-1.9-7.1-5.9-25.6-5.9l-20 0c-18.5 0-23.8 4-25.6 5.9-2.3 2.5-6.4 9.8-6.4 31.4l0 35.1 84 84zM199 292.2c5-14.6-2.8-30.5-17.5-35.5S151 259.5 146 274.1c-3.9 11.5-5.6 24.2-6 37.6-10.3-2.7-21.2-3.7-32.1-3.7l-20 0C63.5 308 38.8 313 21.3 331.9 4.4 350.2 0 375.5 0 401.3l0 9.3C0 436.5 4.4 461.8 21.3 480.1 38.8 499 63.5 504 88 504l277.4 0c15.5 0 28-12.5 28-28s-12.5-28-28-28l-29.4 0 0-29.4c0-15.5-12.5-28-28-28s-28 12.5-28 28l0 29.4-84 0 0-130.7c0-12.1 1.3-20.1 3-25.2zM88 448c-18.5 0-23.8-4-25.6-5.9-2.3-2.5-6.4-9.8-6.4-31.4l0-9.3c0-21.6 4.1-29 6.4-31.4 1.8-1.9 7.1-5.9 25.6-5.9l20 0c18.5 0 23.8 4 25.6 5.9 2.3 2.5 6.4 9.8 6.4 31.4l0 46.7-52 0z"/></svg>