<svg xmlns="http://www.w3.org/2000/svg" viewBox="0 0 560 560"><!--! Font Awesome Pro 7.1.0 by @fontawesome - https://fontawesome.com License - https://fontawesome.com/license (Commercial License) Copyright 2025 Fonticons, Inc. --><path opacity=".4" fill="currentColor" d="M56 322c0 61.3 7.8 88 22.8 102.2 11 10.5 29.9 18.1 65.2 21.6-1.9-26.2-4-67.6-4-123.8 0-56 2.1-97.2 4-123.4-34.7 4-53.7 12.5-64.8 23.5-15.5 15.3-23.2 42.7-23.2 100zm140 0c0 59.8 2.4 101.9 4.4 126l159.3 0c1.9-24.1 4.4-66.2 4.4-126s-2.4-101.9-4.4-126l-159.3 0c-1.9 24.1-4.4 66.2-4.4 126zM416 198.2c1.9 26.2 4 67.6 4 123.8s-2.1 97.6-4 123.8c35.3-3.5 54.2-11.1 65.2-21.6 15-14.2 22.8-41 22.8-102.2s-7.8-88-22.8-102.2c-11-10.5-29.9-18.1-65.2-21.6z"/><path fill="currentColor" d="M148.2 81.3c-1.5 15.4 9.8 29.1 25.2 30.5s29.1-9.8 30.5-25.2c1.9-20.1 6.3-23.2 8.2-24.4 5-3.2 16.6-6.3 46.9-6.3l42 0c30.3 0 41.9 3.1 46.9 6.3 1.9 1.2 6.2 4.3 8.2 24.4 1.5 15.4 15.1 26.7 30.5 25.2s26.7-15.1 25.2-30.5C409.3 55.5 401.9 30.6 378.3 15.3 357.8 2 330.2 0 301 0L259 0c-29.2 0-56.8 2-77.3 15.3-23.6 15.3-31 40.3-33.5 66zM0 322C0 382.1 6.2 432.4 40.2 464.8 73.6 496.6 126.6 504 196 504l168 0c69.4 0 122.4-7.4 155.8-39.2 34-32.4 40.2-82.7 40.2-142.8s-6.2-110.4-40.2-142.8C486.4 147.4 433.4 140 364 140l-168 0C125.6 140 73 149.4 39.8 182.2 6.3 215.3 0 264.9 0 322zM144 445.8c-35.3-3.5-54.2-11.1-65.2-21.6-15-14.2-22.8-41-22.8-102.2 0-57.2 7.7-84.6 23.2-100 11.2-11 30.1-19.5 64.8-23.5-1.9 26.2-4 67.5-4 123.4 0 56.2 2.1 97.6 4 123.8zm56.3 2.2c-1.9-24.1-4.4-66.2-4.4-126s2.4-101.9 4.4-126l159.3 0c1.9 24.1 4.4 66.2 4.4 126s-2.4 101.9-4.4 126l-159.3 0zm280.8-23.8c-11 10.5-29.9 18.1-65.2 21.6 1.9-26.2 4-67.6 4-123.8s-2.1-97.6-4-123.8c35.3 3.5 54.2 11.1 65.2 21.6 15 14.2 22.8 41 22.8 102.2s-7.8 88-22.8 102.2z"/></svg>