<svg xmlns="http://www.w3.org/2000/svg" viewBox="0 0 448 560"><!--! Font Awesome Pro 7.1.0 by @fontawesome - https://fontawesome.com License - https://fontawesome.com/license (Commercial License) Copyright 2025 Fonticons, Inc. --><path opacity=".4" fill="currentColor" d="M54.6 540.8c.5-1.4 .8-2.8 1-4.3 .1-.7 .2-1.5 .3-2.2l.1-1.1c0-.4 0-.8 0-1.2 0-17.3 .4-32.2 1.4-45.4 .5-6.6 1.1-12.7 1.8-18.3 .4-2.8 .8-5.5 1.2-8.2 .4-2.6 .9-5.1 1.5-7.5 4.1-19 10.1-30.1 17.4-37.3s18.3-13.3 37.3-17.4c19.3-4.2 45-5.9 79.4-5.9l56 0c34.4 0 60.1 1.8 79.4 5.9 19 4.1 30.1 10.1 37.3 17.4s13.3 18.3 17.4 37.3c4.2 19.3 5.9 45 5.9 79.4 0 3.1 .5 6 1.4 8.8-30 8.2-85.8 19.2-169.4 19.2S84.6 549 54.6 540.8zm85.5-406c.1-1.7 .2-3.4 .3-5 .3-3.3 .7-6.4 1.2-9.5 1-6.1 2.6-11.7 4.5-16.8 3.9-10.3 9.4-18.7 16-25.3 13.3-13.3 33.7-22.1 61.9-22.1s48.6 8.8 61.9 22.1 22.1 33.7 22.1 61.9-8.8 48.6-22.1 61.9-33.7 22.1-61.9 22.1-48.6-8.8-61.9-22.1c-6.6-6.6-12.2-15.1-16-25.3-1.9-5.1-3.5-10.7-4.5-16.8-.5-3-.9-6.2-1.2-9.5-.1-1.6-.2-3.3-.3-5-.1-1.6-.1-3.3-.1-5.4 0-1.7 0-3.4 .1-5z"/><path fill="currentColor" d="M224 0c-40.3 0-75.9 12.9-101.5 38.5S84 99.7 84 140 96.9 215.9 122.5 241.5 183.7 280 224 280 299.9 267.1 325.5 241.5 364 180.3 364 140 351.1 64.1 325.5 38.5 264.3 0 224 0zM140 140c0-28.2 8.8-48.6 22.1-61.9s33.7-22.1 61.9-22.1 48.6 8.8 61.9 22.1 22.1 33.7 22.1 61.9-8.8 48.6-22.1 61.9-33.7 22.1-61.9 22.1-48.6-8.8-61.9-22.1-22.1-33.7-22.1-61.9zm56 196c-35.6 0-65.9 1.7-91.2 7.2-25.6 5.5-47.8 15.2-65.1 32.5s-27 39.5-32.5 65.1C1.7 466.1 0 496.4 0 532 0 547.5 12.5 560 28 560s28-12.5 28-28c0-34.4 1.8-60.1 5.9-79.4 4.1-19 10.1-30.1 17.4-37.3s18.3-13.3 37.3-17.4c19.3-4.2 45-5.9 79.4-5.9l56 0c34.4 0 60.1 1.8 79.4 5.9 19 4.1 30.1 10.1 37.3 17.4s13.3 18.3 17.4 37.3c4.2 19.3 5.9 45 5.9 79.4 0 15.5 12.5 28 28 28s28-12.5 28-28c0-35.6-1.7-65.9-7.2-91.2-5.5-25.6-15.2-47.8-32.5-65.1s-39.5-27-65.1-32.5c-25.3-5.5-55.7-7.2-91.2-7.2l-56 0z"/></svg>