<svg xmlns="http://www.w3.org/2000/svg" viewBox="0 0 504 560"><!--! Font Awesome Pro 7.1.0 by @fontawesome - https://fontawesome.com License - https://fontawesome.com/license (Commercial License) Copyright 2025 Fonticons, Inc. --><path opacity=".4" fill="currentColor" d="M56 406c0-32.5 10.2-56.4 25.9-72.1S121.5 308 154 308 210.4 318.2 226.1 333.9 252 373.5 252 406 241.8 462.4 226.1 478.1 186.5 504 154 504 97.6 493.8 81.9 478.1 56 438.5 56 406zM336 84c0-11.1 3.4-17.5 7-21s10-7 21-7 17.5 3.4 21 7 7 10 7 21-3.4 17.5-7 21-10 7-21 7-17.5-3.4-21-7-7-10-7-21z"/><path fill="currentColor" d="M303.4 23.4C319.3 7.5 340.9 0 364 0s44.7 7.5 60.6 23.4 23.4 37.5 23.4 60.6-7.5 44.7-23.4 60.6-37.5 23.4-60.6 23.4-44.7-7.5-60.6-23.4-23.4-37.5-23.4-60.6 7.5-44.7 23.4-60.6zM343 63c-3.6 3.6-7 10-7 21s3.4 17.5 7 21 10 7 21 7 17.5-3.4 21-7 7-10 7-21-3.4-17.5-7-21-10-7-21-7-17.5 3.4-21 7zM42.3 294.3c28-28 67.1-42.3 111.7-42.3 22.2 0 43 3.5 61.8 10.6l35.1-35.1c1.5-1.5 1.4-4.2-.2-5.5l-60.9-50.7c-4.7-3.9-11.8-4.3-16.9-.9L99.5 219.3c-12.9 8.6-30.3 5.1-38.8-7.8s-5.1-30.3 7.8-38.8l73.4-48.9c11.5-7.7 25.1-11.8 38.9-11.8 16.4 0 32.3 5.8 44.9 16.3L286.5 179c13.6 11.3 21.5 28.2 21.5 45.9 0 15.8-6.3 31-17.5 42.2l-26 26c12.5 12.2 22.5 26.7 29.6 42.9l76 0c43 0 77.9 34.9 77.9 77.9 0 6.4-.8 12.7-2.3 18.9l-26.5 106c-3.7 15-19 24.1-34 20.4s-24.1-19-20.4-34l26.5-106c3.4-13.4-7.2-27.2-21.2-27.2l-62.6 0c.3 4.6 .5 9.3 .5 14 0 44.5-14.3 83.6-42.3 111.7S198.5 560 154 560 70.4 545.7 42.3 517.7 0 450.5 0 406 14.3 322.4 42.3 294.3zm39.6 39.6C66.2 349.6 56 373.5 56 406s10.2 56.4 25.9 72.1 39.6 25.9 72.1 25.9 56.4-10.2 72.1-25.9 25.9-39.6 25.9-72.1-10.2-56.4-25.9-72.1-39.6-25.9-72.1-25.9-56.4 10.2-72.1 25.9z"/></svg>