<svg width="24" height="24" viewBox="0 0 24 24" fill="none" xmlns="http://www.w3.org/2000/svg">
<path opacity="0.4" d="M12.001 20.0049C12.8289 20.0049 13.5 19.3337 13.5 18.5059V13.5029H18.502C19.3295 13.5029 20.0004 12.8324 20.001 12.0049C20.0015 11.1766 19.3302 10.5049 18.502 10.5049H13.5V5.50293C13.5 4.67542 12.8295 4.00445 12.002 4.00391C11.1737 4.00337 10.502 4.67466 10.502 5.50293V10.5049H5.49902C4.67114 10.5049 4 11.176 4 12.0039C4 12.8318 4.67114 13.5029 5.49902 13.5029H10.502V18.5059C10.502 19.3337 11.1731 20.0049 12.001 20.0049Z" stroke="#141B34" stroke-width="1.5" stroke-linecap="round" stroke-linejoin="round"/>
</svg>
