<svg width="24" height="24" viewBox="0 0 24 24" fill="none" xmlns="http://www.w3.org/2000/svg">
<path d="M18.7088 3.49534C16.8164 2.55382 14.5008 2 11.9999 2C9.49904 2 7.18344 2.55382 5.2911 3.49534C4.36312 3.95706 3.89913 4.18792 3.44954 4.91378C2.99994 5.63965 2.99994 6.34248 2.99994 7.74814V11.2371C2.99994 16.9205 7.54229 20.0804 10.173 21.4338C10.9066 21.8113 11.2734 22 11.9999 22C12.7264 22 13.0932 21.8113 13.8269 21.4338C16.4576 20.0804 20.9999 16.9205 20.9999 11.2371L20.9999 7.74814C20.9999 6.34249 20.9999 5.63966 20.5503 4.91378C20.1007 4.18791 19.6367 3.95706 18.7088 3.49534Z" stroke="#141B34" stroke-width="1.5" stroke-linecap="round" stroke-linejoin="round"/>
<path opacity="0.4" d="M9.52508 13.4744C10.1584 14.1078 11.0334 14.4995 11.9999 14.4995C13.9329 14.4995 15.4999 12.9324 15.4999 10.9995C15.4999 10.033 15.1082 9.15801 14.4748 8.52464M9.52508 13.4744C8.89169 12.841 8.49994 11.966 8.49994 10.9995C8.49994 9.06651 10.0669 7.49951 11.9999 7.49951C12.9664 7.49951 13.8414 7.89126 14.4748 8.52464M9.52508 13.4744L14.4748 8.52464" stroke="#141B34" stroke-width="1.5" stroke-linecap="round" stroke-linejoin="round"/>
</svg>
