<svg width="24" height="24" viewBox="0 0 24 24" fill="none" xmlns="http://www.w3.org/2000/svg">
<path d="M12.6972 3.49976H11.3028C10.5882 3.49976 10.2309 3.49976 9.91048 3.61175C9.7148 3.68015 9.53094 3.77855 9.36549 3.90342C9.09456 4.10792 8.89637 4.4052 8.5 4.99976L8.49999 4.99977C8.29698 5.30428 7.99776 5.75312 7.87848 5.87846C7.58295 6.18903 7.19545 6.39642 6.77311 6.47004C6.60265 6.49976 6.41967 6.49976 6.05369 6.49976C5.07361 6.49976 4.58357 6.49976 4.18289 6.61318C3.18055 6.89691 2.39716 7.68031 2.11342 8.68265C2 9.08333 2 9.57337 2 10.5534V14.4998C2 17.3282 2 18.7424 2.87868 19.6211C3.75736 20.4998 5.17157 20.4998 8 20.4998H16C18.8284 20.4998 20.2426 20.4998 21.1213 19.6211C22 18.7424 22 17.3282 22 14.4998V10.5534C22 9.57337 22 9.08333 21.8866 8.68265C21.6028 7.68031 20.8194 6.89691 19.8171 6.61318C19.4164 6.49976 18.9264 6.49976 17.9463 6.49976C17.5803 6.49976 17.3973 6.49976 17.2269 6.47004C16.8046 6.39642 16.417 6.18903 16.1215 5.87846C16.0022 5.75312 15.703 5.30427 15.5 4.99976C15.1036 4.4052 14.9054 4.10792 14.6345 3.90342C14.4691 3.77855 14.2852 3.68015 14.0895 3.61175C13.7691 3.49976 13.4118 3.49976 12.6972 3.49976Z" stroke="#141B34" stroke-width="1.5" stroke-linecap="round" stroke-linejoin="round"/>
<path opacity="0.4" d="M19 9.49976V9.50976" stroke="#141B34" stroke-width="2" stroke-linecap="round" stroke-linejoin="round"/>
<path opacity="0.4" d="M12 15.9998C13.3962 15.9998 14.9999 14.9998 15.4999 13.9998M12 15.9998C10.6038 15.9998 9.00014 14.9998 8.50014 13.9998M12 15.9998L12 17.4998M12 13.4998C11.1716 13.4998 10.5 12.8282 10.5 11.9998L10.5 9.99976C10.5 9.17133 11.1716 8.49976 12 8.49976C12.8285 8.49976 13.5 9.17133 13.5 9.99976V11.9998C13.5 12.8282 12.8285 13.4998 12 13.4998Z" stroke="#141B34" stroke-width="1.5" stroke-linecap="round" stroke-linejoin="round"/>
</svg>
