<svg width="24" height="24" viewBox="0 0 24 24" fill="none" xmlns="http://www.w3.org/2000/svg">
<path d="M2.45892 9C3.73634 4.94289 7.53601 2 12.0247 2C17.2229 2 21.497 5.94668 21.9999 11L19.9999 10.5929" stroke="#141B34" stroke-width="1.5" stroke-linecap="round" stroke-linejoin="round"/>
<path d="M21.541 15C20.2636 19.0571 16.4639 22 11.9752 22C6.77701 22 2.50291 18.0533 1.99994 13L3.99999 13.4071" stroke="#141B34" stroke-width="1.5" stroke-linecap="round" stroke-linejoin="round"/>
<path opacity="0.4" d="M8.98434 13.479V15.4709C8.98434 15.7976 9.14015 16.1085 9.41637 16.2813C10.26 16.809 10.9017 16.9637 11.9878 16.9971C12.9885 17.0241 13.616 16.8668 14.5503 16.2828C14.8305 16.1076 14.9913 15.7938 14.9913 15.4624V13.479M16.9936 10.9661V13.9816M7.0316 10.7948C7.39322 10.0308 9.63599 8.70074 11.6833 8.0437C11.8808 7.98031 12.0929 7.9866 12.2877 8.05791C14.0977 8.7206 16.1112 9.72285 16.8421 10.5365C17.2237 10.9612 16.8505 11.5032 16.3892 11.8386C15.4528 12.5194 14.4188 13.049 12.3315 13.8507C12.1105 13.9356 11.8652 13.9385 11.6432 13.8561C9.50248 13.0613 7.50138 12.0354 7.04824 11.1329C6.99481 11.0264 6.98066 10.9024 7.0316 10.7948Z" stroke="#141B34" stroke-width="1.5" stroke-linecap="round" stroke-linejoin="round"/>
</svg>
