<svg width="24" height="24" viewBox="0 0 24 24" fill="none" xmlns="http://www.w3.org/2000/svg">
<path d="M19.9734 9.90907V7.81816C19.9734 6.12492 19.9734 5.2783 19.7059 4.60212C19.2758 3.51508 18.3664 2.65763 17.2133 2.25218C16.4961 1.99998 15.5981 1.99998 13.8021 1.99998C10.6592 1.99998 9.08764 1.99998 7.83252 2.44133C5.81475 3.15086 4.22316 4.6514 3.47057 6.55373C3.00244 7.73704 3.00244 9.21863 3.00244 12.1818V14.7273C3.00244 17.7966 3.00244 19.3313 3.84869 20.3971C4.09116 20.7025 4.3787 20.9736 4.7026 21.2022C5.83305 22 7.46086 22 10.7165 22H11.4879C12.0216 22 13.019 22 13.4845 21.9972" stroke="#141B34" stroke-width="1.5" stroke-linecap="round" stroke-linejoin="round"/>
<path d="M3.00244 12C3.00244 10.159 4.49227 8.66665 6.33007 8.66665C6.99471 8.66665 7.77829 8.78332 8.42451 8.60987C8.99868 8.45575 9.44716 8.0065 9.601 7.43134C9.77416 6.78402 9.6577 5.9991 9.6577 5.33331C9.6577 3.49236 11.1475 1.99998 12.9854 1.99998" stroke="#141B34" stroke-width="1.5" stroke-linecap="round" stroke-linejoin="round"/>
<path opacity="0.4" d="M20.7513 15.8111C20.856 14.5466 18.9246 13.5141 17.4485 14.2068C15.6047 15.0722 15.7655 17.2594 18.0427 17.375C19.0561 17.4265 19.9425 17.3169 20.5449 17.9708C21.1472 18.6248 21.4083 20.2901 19.6327 20.8552C17.8571 21.4204 16.0063 20.4125 16.0063 19.1831M18.4731 13V13.9776M18.4731 21.2204V22" stroke="#141B34" stroke-width="1.5" stroke-linecap="round" stroke-linejoin="round"/>
</svg>
