<svg width="24" height="24" viewBox="0 0 24 24" fill="none" xmlns="http://www.w3.org/2000/svg">
<path d="M3.49481 13.5H6.12758C7.47973 13.5 7.50999 13.5078 8.56558 14.3288M3.49481 13.5C3.45894 13.4054 3.42022 13.309 3.37844 13.2105C2.45391 11.0305 3.44008 9.19682 4.03589 8.21888C4.51253 7.43652 4.80001 6.26667 4.65224 5.44804C6.77248 2.92168 10.2822 2.83339 11.7752 3.10505C11.9396 4.6942 13.0079 8.68748 14.9597 10.4193C16.9115 12.151 21 12.92 21 14.4736C21 15.8943 20.3714 17 18.8254 17H14.0587C13.0389 17 12.529 17 12.0558 16.8376C11.5825 16.6752 11.18 16.3622 10.3751 15.7361L8.58331 14.3426C8.57737 14.3379 8.57146 14.3333 8.56558 14.3288M3.49481 13.5C3.88444 14.5268 3.93896 15.3255 3.9294 16.0007C3.92278 16.4683 3.91947 16.7021 4.06633 16.851C4.2132 17 4.44231 17 4.90054 17H6.71921C7.26389 17 7.53623 17 7.68043 16.865C7.82463 16.73 7.84661 16.3961 7.89058 15.7282C7.92573 15.1945 8.08921 14.6288 8.56558 14.3288" stroke="#141B34" stroke-width="1.5" stroke-linecap="round" stroke-linejoin="round"/>
<path opacity="0.4" d="M13.5 9.5L13 10" stroke="#141B34" stroke-width="1.5" stroke-linecap="round" stroke-linejoin="round"/>
<path opacity="0.4" d="M12.5 7L11 7.5" stroke="#141B34" stroke-width="1.5" stroke-linecap="round" stroke-linejoin="round"/>
<path opacity="0.4" d="M20.0293 17L20.6302 17.8C21.6792 19.1963 22.2036 19.8944 21.9268 20.4472C21.6499 21 20.7758 21 19.0276 21H1.99999M15 17V21M5.99999 17V21" stroke="#141B34" stroke-width="1.5" stroke-linecap="round" stroke-linejoin="round"/>
</svg>
