<svg width="24" height="24" viewBox="0 0 24 24" fill="none" xmlns="http://www.w3.org/2000/svg">
<path opacity="0.4" fill-rule="evenodd" clip-rule="evenodd" d="M18 4C19.1046 4 20 4.89543 20 6V18C20 19.1046 19.1046 20 18 20H6C4.89543 20 4 19.1046 4 18V6C4 4.89543 4.89543 4 6 4H18ZM12.5195 7.8623C12.341 7.37973 11.659 7.37973 11.4805 7.8623L10.6797 10.0244C10.5674 10.3279 10.3279 10.5674 10.0244 10.6797L7.8623 11.4805C7.37973 11.659 7.37973 12.341 7.8623 12.5195L10.0244 13.3203C10.3279 13.4326 10.5674 13.6721 10.6797 13.9756L11.4805 16.1377C11.659 16.6203 12.341 16.6203 12.5195 16.1377L13.3203 13.9756C13.4326 13.6721 13.6721 13.4326 13.9756 13.3203L16.1377 12.5195C16.6203 12.341 16.6203 11.659 16.1377 11.4805L13.9756 10.6797C13.6721 10.5674 13.4326 10.3279 13.3203 10.0244L12.5195 7.8623Z" fill="#141B34"/>
<path d="M18 4H6C4.89543 4 4 4.89543 4 6V18C4 19.1046 4.89543 20 6 20H18C19.1046 20 20 19.1046 20 18V6C20 4.89543 19.1046 4 18 4Z" stroke="#141B34" stroke-width="1.5" stroke-linecap="round" stroke-linejoin="round"/>
<path d="M8 2V4M16 2V4M12 2V4M8 20V22M12 20V22M16 20V22M22 16H20M4 8H2M4 16H2M4 12H2M22 8H20M22 12H20" stroke="#141B34" stroke-width="1.5" stroke-linecap="round" stroke-linejoin="round"/>
<path d="M11.4802 7.86193C11.6587 7.37936 12.3413 7.37936 12.5198 7.86193L13.3202 10.0248C13.4325 10.3283 13.6717 10.5675 13.9752 10.6798L16.1381 11.4802C16.6206 11.6587 16.6206 12.3413 16.1381 12.5198L13.9752 13.3202C13.6717 13.4325 13.4325 13.6717 13.3202 13.9752L12.5198 16.1381C12.3413 16.6206 11.6587 16.6206 11.4802 16.1381L10.6798 13.9752C10.5675 13.6717 10.3283 13.4325 10.0248 13.3202L7.86193 12.5198C7.37936 12.3413 7.37936 11.6587 7.86193 11.4802L10.0248 10.6798C10.3283 10.5675 10.5675 10.3283 10.6798 10.0248L11.4802 7.86193Z" stroke="#141B34" stroke-width="1.5"/>
</svg>
