<svg width="24" height="24" viewBox="0 0 24 24" fill="none" xmlns="http://www.w3.org/2000/svg">
<path opacity="0.4" d="M11.1973 7.5C11.3679 7.80041 11.5183 8.20278 11.7403 8.80273L11.9981 9.5L12.2559 8.80273C12.4779 8.20277 12.6283 7.80041 12.7989 7.5H18.2637C19.8139 7.5002 21.109 8.68186 21.251 10.2256L21.9922 18.2861C22.1162 20.0227 20.7414 21.5 19.001 21.5H18.2539C17.0279 21.4998 15.9251 20.7531 15.4698 19.6143L14.2246 16.5H9.77543L8.53031 19.6143C8.07496 20.7531 6.97219 21.4998 5.74613 21.5H4.99906C3.25871 21.5 1.88386 20.0227 2.00785 18.2861L2.75492 10.2227C2.89813 8.67999 4.19292 7.50014 5.74223 7.5H11.1973Z" fill="#141B34"/>
<path d="M18 7.5H18.2633C19.8137 7.5 21.1087 8.68133 21.2507 10.2252L21.9922 18.2863C22.1162 20.0229 20.7414 21.5 19.001 21.5H18.2543C17.0281 21.5 15.9254 20.7531 15.47 19.6142L14.2248 16.5H9.7752L8.53002 19.6142C8.0746 20.7531 6.97191 21.5 5.74567 21.5H4.99899C3.25864 21.5 1.88378 20.0229 2.00778 18.2863L2.75532 10.2231C2.89837 8.68012 4.19295 7.5 5.74251 7.5H6" stroke="#141B34" stroke-width="1.5" stroke-linecap="round" stroke-linejoin="round"/>
<path d="M16.9998 12.5H17.0088" stroke="#141B34" stroke-width="2" stroke-linecap="round" stroke-linejoin="round"/>
<path d="M6.99981 12.5H7.00879" stroke="#141B34" stroke-width="2" stroke-linecap="round" stroke-linejoin="round"/>
<path d="M11.998 2.5L12.256 3.19703C12.5942 4.11102 12.7633 4.56802 13.0967 4.90139C13.43 5.23477 13.887 5.40387 14.801 5.74208L15.498 6L14.801 6.25792C13.887 6.59613 13.43 6.76524 13.0967 7.09861C12.7633 7.43198 12.5942 7.88898 12.256 8.80297L11.998 9.5L11.7401 8.80297C11.4019 7.88898 11.2328 7.43198 10.8994 7.09861C10.5661 6.76523 10.1091 6.59613 9.19507 6.25792L8.49805 6L9.19507 5.74208C10.1091 5.40387 10.5661 5.23477 10.8994 4.90139C11.2328 4.56802 11.4019 4.11102 11.7401 3.19703L11.998 2.5Z" stroke="#141B34" stroke-width="1.5" stroke-linecap="round" stroke-linejoin="round"/>
</svg>
