<svg width="24" height="24" viewBox="0 0 24 24" fill="none" xmlns="http://www.w3.org/2000/svg">
<path opacity="0.4" d="M9 8H5V15H9V8Z" fill="#141B34"/>
<path opacity="0.4" d="M19 11H14C13.4477 11 13 11.4477 13 12V15H20V12C20 11.4477 19.5523 11 19 11Z" fill="#141B34"/>
<path d="M21 15H3C2.44772 15 2 15.4477 2 16V21C2 21.5523 2.44772 22 3 22H21C21.5523 22 22 21.5523 22 21V16C22 15.4477 21.5523 15 21 15Z" stroke="#141B34" stroke-width="1.5" stroke-linecap="round" stroke-linejoin="round"/>
<path d="M18 18.5V18.51" stroke="#141B34" stroke-width="1.5" stroke-linecap="round" stroke-linejoin="round"/>
<path d="M14 18.5V18.51" stroke="#141B34" stroke-width="1.5" stroke-linecap="round" stroke-linejoin="round"/>
<path d="M10 18.5V18.51" stroke="#141B34" stroke-width="1.5" stroke-linecap="round" stroke-linejoin="round"/>
<path d="M6 18.5V18.51" stroke="#141B34" stroke-width="1.5" stroke-linecap="round" stroke-linejoin="round"/>
<path d="M20 15V12C20 11.4477 19.5523 11 19 11H14C13.4477 11 13 11.4477 13 12V15" stroke="#141B34" stroke-width="1.5" stroke-linecap="round" stroke-linejoin="round"/>
<path d="M9 15V8H5V15" stroke="#141B34" stroke-width="1.5" stroke-linecap="round" stroke-linejoin="round"/>
<path d="M11.191 4H2.80902C2.36221 4 2 4.36221 2 4.80902C2 4.93461 2.02924 5.05848 2.08541 5.17082L3.22361 7.44721C3.393 7.786 3.73926 8 4.11803 8H9.88197C10.2607 8 10.607 7.786 10.7764 7.44721L11.9146 5.17082C11.9708 5.05848 12 4.93461 12 4.80902C12 4.36221 11.6378 4 11.191 4Z" stroke="#141B34" stroke-width="1.5" stroke-linecap="round" stroke-linejoin="round"/>
<path d="M7 4V2" stroke="#141B34" stroke-width="1.5" stroke-linecap="round" stroke-linejoin="round"/>
</svg>
