<svg width="24" height="24" viewBox="0 0 24 24" fill="none" xmlns="http://www.w3.org/2000/svg">
<path opacity="0.4" d="M3.58485 21H20.4152C21.2904 21 22 20.2904 22 19.4152C22 19.143 21.9299 18.8754 21.7965 18.6382L13.4903 3.87158C13.1874 3.33318 12.6177 3 12 3C11.3823 3 10.8126 3.33318 10.5097 3.87158L2.20353 18.6382C2.0701 18.8754 2 19.143 2 19.4152C2 20.2904 2.70956 21 3.58485 21Z" fill="#141B34"/>
<path d="M3.58485 21H20.4152C21.2904 21 22 20.2904 22 19.4152C22 19.143 21.9299 18.8754 21.7965 18.6382L13.4903 3.87158C13.1874 3.33318 12.6177 3 12 3C11.3823 3 10.8126 3.33318 10.5097 3.87158L2.20353 18.6382C2.0701 18.8754 2 19.143 2 19.4152C2 20.2904 2.70956 21 3.58485 21Z" stroke="#141B34" stroke-width="1.5" stroke-linecap="round" stroke-linejoin="round"/>
<path d="M12 17.5V13" stroke="#141B34" stroke-width="1.5" stroke-linecap="round" stroke-linejoin="round"/>
<path d="M12 9.51V9.5" stroke="#141B34" stroke-width="1.8" stroke-linecap="round" stroke-linejoin="round"/>
</svg>
