<svg width="24" height="24" viewBox="0 0 24 24" fill="none" xmlns="http://www.w3.org/2000/svg">
<path opacity="0.4" fill-rule="evenodd" clip-rule="evenodd" d="M12 3C16.1421 3 19.5 6.35786 19.5 10.5H20.5C21.3284 10.5 22 11.1716 22 12C22 12.8284 21.3284 13.5 20.5 13.5H19.5V22L15.5 20L12 22L8.5 20L4.5 22V13.5H3.5C2.67157 13.5 2 12.8284 2 12C2 11.1716 2.67157 10.5 3.5 10.5H4.5C4.5 6.35786 7.85786 3 12 3ZM12 7C10.3431 7 9 8.34315 9 10C9 11.6569 10.3431 13 12 13C13.6569 13 15 11.6569 15 10C15 8.34315 13.6569 7 12 7Z" fill="#141B34"/>
<path d="M15.5 20L19.5 22V13.5H20.5C21.3284 13.5 22 12.8284 22 12C22 11.1716 21.3284 10.5 20.5 10.5H19.5C19.5 6.35786 16.1421 3 12 3C7.85786 3 4.5 6.35786 4.5 10.5H3.5C2.67157 10.5 2 11.1716 2 12C2 12.8284 2.67157 13.5 3.5 13.5H4.5V22L8.5 20L12 22L15.5 20Z" stroke="#141B34" stroke-width="1.5" stroke-linecap="round" stroke-linejoin="round"/>
<path d="M11.9922 16.9727H12.0012" stroke="#141B34" stroke-width="2" stroke-linecap="round" stroke-linejoin="round"/>
<path d="M20.5 2C20.5 2.99844 19.5 4.7557 17.5 4.99532" stroke="#141B34" stroke-width="1.5" stroke-linecap="round"/>
<path d="M3.5 2C3.5 2.99844 4.5 4.7557 6.5 4.99532" stroke="#141B34" stroke-width="1.5" stroke-linecap="round"/>
<circle cx="12" cy="10" r="3" stroke="#141B34" stroke-width="1.5" stroke-linecap="round" stroke-linejoin="round"/>
</svg>
