<svg width="24" height="24" viewBox="0 0 24 24" fill="none" xmlns="http://www.w3.org/2000/svg">
<path opacity="0.4" d="M19.1849 19.2363L16.9998 7H11L9.5 21H17.7083C18.6422 21 19.3491 20.1557 19.1849 19.2363Z" fill="#141B34"/>
<path d="M19.1851 19.2363L17 7H7L4.81495 19.2363C4.65077 20.1557 5.35765 21 6.29159 21H17.7084C18.6424 21 19.3492 20.1557 19.1851 19.2363Z" stroke="#141B34" stroke-width="1.5" stroke-linecap="square" stroke-linejoin="round"/>
<path d="M21 11C21.8626 10.7762 22 9.98695 22 9.04763V5.01588C22 3.90254 21.1046 3 20 3H4C2.89543 3 2 3.90254 2 5.01588V9.04763C2 9.98695 2.13739 10.7762 3 11" stroke="#141B34" stroke-width="1.5" stroke-linecap="round" stroke-linejoin="round"/>
<path d="M11 7L9.5 21" stroke="#141B34" stroke-width="1.5" stroke-linejoin="round"/>
<path d="M15 16L15 17" stroke="#141B34" stroke-width="1.5" stroke-miterlimit="10" stroke-linecap="round" stroke-linejoin="round"/>
</svg>
