<svg width="24" height="24" viewBox="0 0 24 24" fill="none" xmlns="http://www.w3.org/2000/svg">
<path opacity="0.4" d="M20.5 20H20C19.4477 20 19 19.5523 19 19V15C19 14.4477 19.4477 14 20 14H20.5C21.0523 14 21.5 14.4477 21.5 15V19C21.5 19.5523 21.0523 20 20.5 20Z" fill="#141B34"/>
<path opacity="0.4" d="M3.5 20H4C4.55228 20 5 19.5523 5 19V15C5 14.4477 4.55228 14 4 14H3.5C2.94772 14 2.5 14.4477 2.5 15V19C2.5 19.5523 2.94772 20 3.5 20Z" fill="#141B34"/>
<path d="M19 20V12C19 8.13401 15.866 5 12 5C8.13401 5 5 8.13401 5 12V20C5 21.1046 5.89543 22 7 22H17C18.1046 22 19 21.1046 19 20Z" stroke="#141B34" stroke-width="1.5"/>
<path d="M5 16C6.64996 14.78 9.17273 14 12 14C14.8273 14 17.35 14.78 19 16" stroke="#141B34" stroke-width="1.5" stroke-linejoin="round"/>
<path opacity="0.4" d="M19 12C19 8.13401 15.866 5 12 5C8.13401 5 5 8.13401 5 12V16C6.64996 14.78 9.17273 14 12 14C14.8273 14 17.35 14.78 19 16V12Z" fill="#141B34"/>
<path d="M10.5 10H13.5" stroke="#141B34" stroke-width="1.5" stroke-linecap="round"/>
<path d="M9 5.5V5C9 3.34315 10.3431 2 12 2C13.6569 2 15 3.34315 15 5V5.5" stroke="#141B34" stroke-width="1.5" stroke-linecap="round" stroke-linejoin="round"/>
<path d="M19 20H20.5C21.0523 20 21.5 19.5523 21.5 19V15C21.5 14.4477 21.0523 14 20.5 14H19" stroke="#141B34" stroke-width="1.5" stroke-linejoin="round"/>
<path d="M5 20H3.5C2.94772 20 2.5 19.5523 2.5 19V15C2.5 14.4477 2.94772 14 3.5 14H5" stroke="#141B34" stroke-width="1.5" stroke-linejoin="round"/>
</svg>
