<svg width="24" height="24" viewBox="0 0 24 24" fill="none" xmlns="http://www.w3.org/2000/svg">
<g opacity="0.4">
<path d="M15.215 3.34434L12.0005 6.55881L17.44 12.0005L20.6559 8.78462C21.4036 7.99835 21.388 6.75927 20.6207 5.99207L18.0075 3.37916C17.2402 2.61196 16.0011 2.59651 15.215 3.34434Z" fill="#141B34"/>
<path d="M8.78484 20.6558L12.0005 17.4401L6.5589 12.0005L3.34429 15.2151C2.59648 16.0013 2.61198 17.2404 3.37923 18.0077L5.99227 20.6208C6.75951 21.388 7.9986 21.4036 8.78484 20.6558Z" fill="#141B34"/>
</g>
<path d="M12 6.62824L8.78598 3.41415C8.00496 2.63313 6.73869 2.63308 5.95762 3.41405L3.41437 5.95699C2.63325 6.73802 2.6332 8.00441 3.41428 8.78549L6.62853 11.9998M12 6.62824L17.3715 11.9998M12 6.62824L6.62853 11.9998M6.62853 11.9998L12 17.3714M17.3715 11.9998L20.5858 15.2142C21.3669 15.9952 21.3669 17.2616 20.5858 18.0426L18.0427 20.5857C17.2617 21.3668 15.9953 21.3668 15.2143 20.5857L12 17.3714M17.3715 11.9998L12 17.3714" stroke="#141B34" stroke-width="1.5" stroke-linejoin="round"/>
<path d="M14 4.5L15.2149 3.34432C16.0011 2.59649 17.2402 2.61194 18.0075 3.37914L20.6207 5.99205C21.388 6.75925 21.4036 7.99833 20.6558 8.7846L19.5 10M10 19.5L8.78482 20.6558C7.99859 21.4035 6.7595 21.388 5.99225 20.6208L3.37922 18.0076C2.61197 17.2404 2.59647 16.0013 3.34428 15.2151L4.5 14" stroke="#141B34" stroke-width="1.5" stroke-linecap="round" stroke-linejoin="round"/>
</svg>
