<svg width="24" height="24" viewBox="0 0 24 24" fill="none" xmlns="http://www.w3.org/2000/svg">
<g opacity="0.4">
<path d="M21.0001 17.5209V20.0245C21.0001 20.5775 20.551 21.0288 19.9987 20.9986C17.5888 20.8666 15.3049 20.2613 13.2384 19.2739L16.484 16.0284C16.7888 15.7236 17.2546 15.647 17.6558 15.8046C18.214 16.0238 19.0695 16.3105 20.0021 16.4444C20.5496 16.523 21.0001 16.9678 21.0001 17.5209Z" fill="#141B34"/>
<path d="M6.47925 3H3.97565C3.42257 3 2.97132 3.44914 3.00156 4.00139C3.13352 6.41136 3.73886 8.69526 4.7262 10.7617L7.97174 7.51614C8.27654 7.21135 8.35314 6.74557 8.19556 6.34436C7.97633 5.78617 7.68962 4.93061 7.5557 3.99797C7.47709 3.45051 7.03233 3 6.47925 3Z" fill="#141B34"/>
</g>
<path d="M13.4893 19.0233L16.484 16.0286C16.7888 15.7238 17.2546 15.6472 17.6558 15.8048C18.214 16.024 19.0695 16.3107 20.0021 16.4447C20.5496 16.5233 21.0001 16.968 21.0001 17.5211V20.0247C21.0001 20.5778 20.551 21.029 19.9987 20.9988C10.8406 20.4974 3.50301 13.1598 3.00156 4.00164C2.97132 3.44939 3.42257 3.00024 3.97565 3.00024H6.47925C7.03233 3.00024 7.47709 3.45075 7.5557 3.99822C7.68962 4.93086 7.97633 5.78641 8.19556 6.3446C8.35314 6.74581 8.27654 7.21159 7.97174 7.51639L4.97709 10.511" stroke="#141B34" stroke-width="1.5" stroke-linecap="round" stroke-linejoin="round"/>
<path d="M16.5001 4.00024V11.0002M20.0001 7.50024H13.0001" stroke="#141B34" stroke-width="1.5" stroke-linecap="round" stroke-linejoin="round"/>
</svg>
