<svg width="24" height="24" viewBox="0 0 24 24" fill="none" xmlns="http://www.w3.org/2000/svg">
<path opacity="0.4" fill-rule="evenodd" clip-rule="evenodd" d="M16.0391 3.5C16.6465 3.50009 17.2211 3.77663 17.6006 4.25098L19 6H20C21.1046 6 22 6.89543 22 8V18.5C22 19.6046 21.1046 20.5 20 20.5H4C2.89543 20.5 2 19.6046 2 18.5V8C2 6.89543 2.89543 6 4 6H10L11.3994 4.25098C11.7789 3.77663 12.3535 3.50009 12.9609 3.5H16.0391ZM14.5 8.5C13.6716 8.5 13 9.17157 13 10V12C13 12.8284 13.6716 13.5 14.5 13.5C15.3284 13.4999 16 12.8284 16 12V10C16 9.17162 15.3284 8.50008 14.5 8.5Z" fill="#141B34"/>
<path d="M22 18.5V8C22 6.89543 21.1046 6 20 6H19L17.6005 4.25061C17.2209 3.77618 16.6463 3.5 16.0388 3.5H12.9612C12.3537 3.5 11.7791 3.77618 11.3995 4.25061L10 6H4C2.89543 6 2 6.89543 2 8V18.5C2 19.6046 2.89543 20.5 4 20.5H20C21.1046 20.5 22 19.6046 22 18.5Z" stroke="#141B34" stroke-width="1.5" stroke-linecap="round" stroke-linejoin="round"/>
<path d="M5 9H7" stroke="#141B34" stroke-width="1.5" stroke-linecap="round" stroke-linejoin="round"/>
<path d="M14.4999 16C15.8961 16 17.4998 15 17.9998 14M14.4999 16C13.1037 16 11.5 15 11 14M14.4999 16L14.4999 17.5M14.4999 13.5C13.6714 13.5 12.9999 12.8284 12.9999 12L12.9999 10C12.9999 9.17157 13.6714 8.5 14.4999 8.5C15.3283 8.5 15.9999 9.17157 15.9999 10V12C15.9999 12.8284 15.3283 13.5 14.4999 13.5Z" stroke="#141B34" stroke-width="1.5" stroke-linecap="round" stroke-linejoin="round"/>
</svg>
