<svg width="24" height="24" viewBox="0 0 24 24" fill="none" xmlns="http://www.w3.org/2000/svg">
<path opacity="0.4" d="M3.99994 20.5H19.9999C20.1544 20.5 20.3048 20.4825 20.4493 20.4493L16.4889 16.489C15.9102 16.8144 15.2424 17 14.5312 17C12.322 17 10.5312 15.2091 10.5312 13C10.5312 12.2888 10.7168 11.621 11.0422 11.0423L5.99994 6H3.99994C2.89537 6 1.99994 6.89543 1.99994 8V18.5C1.99994 19.6046 2.89537 20.5 3.99994 20.5Z" fill="#141B34"/>
<path d="M4.99994 9H5.99994" stroke="#141B34" stroke-width="1.5" stroke-linecap="round" stroke-linejoin="round"/>
<path d="M1.99994 2L21.9999 22" stroke="#141B34" stroke-width="1.5" stroke-linecap="round" stroke-linejoin="round"/>
<path d="M13.2201 9.21981C13.6308 9.07738 14.072 9 14.5312 9C16.7403 9 18.5312 10.7909 18.5312 13C18.5312 13.4592 18.4538 13.9003 18.3114 14.3111M16.4892 16.4889C15.9104 16.8143 15.2425 17 14.5312 17C12.322 17 10.5312 15.2091 10.5312 13C10.5312 12.2887 10.7168 11.6208 11.0423 11.042" stroke="#141B34" stroke-width="1.5" stroke-linecap="round" stroke-linejoin="round"/>
<path d="M19.9999 20.5H3.99994C2.89537 20.5 1.99994 19.6046 1.99994 18.5V8C1.99994 6.89543 2.89537 6 3.99994 6H5.99994M9.99994 6L11.3995 4.25061C11.779 3.77618 12.3536 3.5 12.9612 3.5H16.0387C16.6463 3.5 17.2209 3.77618 17.6004 4.25061L18.9999 6H19.9999C21.1045 6 21.9999 6.89543 21.9999 8V18" stroke="#141B34" stroke-width="1.5" stroke-linecap="round" stroke-linejoin="round"/>
</svg>
