<svg width="24" height="24" viewBox="0 0 24 24" fill="none" xmlns="http://www.w3.org/2000/svg">
<path opacity="0.4" d="M22 18.5V8C22 6.89543 21.1046 6 20 6H19L17.6005 4.25061C17.2209 3.77618 16.6463 3.5 16.0388 3.5H12.9612C12.3537 3.5 11.7791 3.77618 11.3995 4.25061L10 6H4C2.89543 6 2 6.89543 2 8V18.5C2 19.6046 2.89543 20.5 4 20.5H20C21.1046 20.5 22 19.6046 22 18.5Z" fill="#141B34"/>
<path d="M22 18.5V8C22 6.89543 21.1046 6 20 6H19L17.6005 4.25061C17.2209 3.77618 16.6463 3.5 16.0388 3.5H12.9612C12.3537 3.5 11.7791 3.77618 11.3995 4.25061L10 6H4C2.89543 6 2 6.89543 2 8V18.5C2 19.6046 2.89543 20.5 4 20.5H20C21.1046 20.5 22 19.6046 22 18.5Z" stroke="#141B34" stroke-width="1.5" stroke-linecap="round" stroke-linejoin="round"/>
<path d="M5 9H7" stroke="#141B34" stroke-width="1.5" stroke-linecap="round" stroke-linejoin="round"/>
<path d="M17.5 10.4922V10.5022" stroke="#141B34" stroke-width="2" stroke-linecap="round" stroke-linejoin="round"/>
<path d="M11.5 10.5V10.51" stroke="#141B34" stroke-width="2" stroke-linecap="round" stroke-linejoin="round"/>
<path d="M11 14.5C11.7981 15.7144 13.0688 16.5 14.5 16.5C15.9312 16.5 17.2019 15.7144 18 14.5" stroke="#141B34" stroke-width="1.5" stroke-linecap="round" stroke-linejoin="round"/>
</svg>
