<svg width="24" height="24" viewBox="0 0 24 24" fill="none" xmlns="http://www.w3.org/2000/svg">
<path opacity="0.4" d="M14 9C14 10.1046 13.1046 11 12 11C10.8954 11 10 10.1046 10 9C10 7.89543 10.8954 7 12 7C13.1046 7 14 7.89543 14 9Z" fill="#141B34"/>
<path d="M11.25 20C11.25 20.4142 11.5858 20.75 12 20.75C12.4142 20.75 12.75 20.4142 12.75 20H12H11.25ZM12 11H11.25L11.25 20H12H12.75L12.75 11H12ZM14 9H13.25C13.25 9.69036 12.6904 10.25 12 10.25V11V11.75C13.5188 11.75 14.75 10.5188 14.75 9H14ZM12 11V10.25C11.3096 10.25 10.75 9.69036 10.75 9H10H9.25C9.25 10.5188 10.4812 11.75 12 11.75V11ZM10 9H10.75C10.75 8.30964 11.3096 7.75 12 7.75V7V6.25C10.4812 6.25 9.25 7.48122 9.25 9H10ZM12 7V7.75C12.6904 7.75 13.25 8.30964 13.25 9H14H14.75C14.75 7.48122 13.5188 6.25 12 6.25V7Z" fill="#141B34"/>
<path d="M16.9588 6C17.6186 6.86961 18 7.89801 18 9C18 10.102 17.6186 11.1304 16.9588 12M7.04117 6C6.38143 6.86961 6 7.89801 6 9C6 10.102 6.38143 11.1304 7.04117 12" stroke="#141B34" stroke-width="1.5" stroke-linecap="round" stroke-linejoin="round"/>
<path d="M20.3159 4C21.3796 5.43008 22 7.14984 22 9C22 10.8502 21.3796 12.5699 20.3159 14M3.68409 4C2.62036 5.43008 2 7.14984 2 9C2 10.8502 2.62036 12.5699 3.68409 14" stroke="#141B34" stroke-width="1.5" stroke-linecap="round" stroke-linejoin="round"/>
</svg>
