<svg width="24" height="24" viewBox="0 0 24 24" fill="none" xmlns="http://www.w3.org/2000/svg">
<path opacity="0.4" fill-rule="evenodd" clip-rule="evenodd" d="M12 2.5C14.9734 2.5 17.7311 2.62481 20.002 2.83789C20.8901 2.92123 21.5992 3.60651 21.6973 4.49316C21.8886 6.22432 22 8.28649 22 10.5C22 12.7135 21.8886 14.7757 21.6973 16.5068C21.5992 17.3935 20.8901 18.0788 20.002 18.1621C17.859 18.3632 15.2823 18.4859 12.5 18.499L9.20508 21.3242C9.07277 21.4377 8.90378 21.5 8.72949 21.5C8.3267 21.4998 8.00022 21.1733 8 20.7705V18.4219C6.5552 18.364 5.20755 18.2756 3.99805 18.1621C3.10988 18.0788 2.40078 17.3935 2.30273 16.5068C2.11141 14.7757 2 12.7135 2 10.5C2 8.28649 2.11141 6.22432 2.30273 4.49316C2.40078 3.60651 3.10988 2.92123 3.99805 2.83789C6.26885 2.62481 9.02658 2.5 12 2.5ZM12.0352 6.52832C12.0272 6.49052 11.9728 6.49052 11.9648 6.52832C11.5597 8.51045 10.0104 10.0597 8.02832 10.4648C7.99052 10.4728 7.99052 10.5272 8.02832 10.5352C10.0104 10.9403 11.5597 12.4896 11.9648 14.4717C11.9728 14.5095 12.0272 14.5095 12.0352 14.4717C12.4403 12.4896 13.9896 10.9403 15.9717 10.5352C16.0095 10.5272 16.0095 10.4728 15.9717 10.4648C13.9896 10.0597 12.4403 8.51045 12.0352 6.52832Z" fill="#141B34"/>
<path d="M2 10.5C2 8.28649 2.11103 6.2244 2.30236 4.49324C2.40035 3.60654 3.10975 2.92132 3.99796 2.83797C6.26878 2.62488 9.02653 2.5 12 2.5C14.9735 2.5 17.7312 2.62488 20.002 2.83797C20.8902 2.92132 21.5996 3.60654 21.6976 4.49324C21.889 6.2244 22 8.28649 22 10.5C22 12.7135 21.889 14.7756 21.6976 16.5068C21.5996 17.3935 20.8906 18.0786 20.0024 18.162C17.8593 18.3631 15.2825 18.4857 12.5 18.4988L9.20503 21.3242C9.07273 21.4376 8.90419 21.5 8.72991 21.5C8.32679 21.5 8 21.1732 8 20.7701V18.4219C6.55512 18.364 5.2074 18.2755 3.99783 18.162C3.10963 18.0787 2.40035 17.3935 2.30236 16.5068C2.11103 14.7756 2 12.7135 2 10.5Z" stroke="#141B34" stroke-width="1.5" stroke-linecap="round" stroke-linejoin="round"/>
<path d="M11.9649 6.52864C11.9727 6.49045 12.0273 6.49045 12.0351 6.52864C12.4402 8.51077 13.9892 10.0598 15.9714 10.4649C16.0095 10.4727 16.0095 10.5273 15.9714 10.5351C13.9892 10.9402 12.4402 12.4892 12.0351 14.4714C12.0273 14.5095 11.9727 14.5095 11.9649 14.4714C11.5598 12.4892 10.0108 10.9402 8.02864 10.5351C7.99045 10.5273 7.99045 10.4727 8.02864 10.4649C10.0108 10.0598 11.5598 8.51077 11.9649 6.52864Z" stroke="#141B34" stroke-width="1.5" stroke-linejoin="round"/>
</svg>
