<svg width="24" height="24" viewBox="0 0 24 24" fill="none" xmlns="http://www.w3.org/2000/svg">
<path opacity="0.4" d="M7.5 10C9.59593 10 11.4174 11.1727 12.3457 12.8975C11.508 13.8626 11 15.1217 11 16.5C11 17.4412 11.2367 18.327 11.6533 19.1016C10.6449 20.2635 9.15927 21 7.5 21C4.46243 21 2 18.5376 2 15.5C2 12.4624 4.46243 10 7.5 10Z" fill="#141B34"/>
<path d="M22 16.5C22 19.5376 19.5376 22 16.5 22C13.4624 22 11 19.5376 11 16.5C11 13.4624 13.4624 11 16.5 11C19.5376 11 22 13.4624 22 16.5Z" stroke="#141B34" stroke-width="1.5" stroke-linecap="round" stroke-linejoin="round"/>
<path d="M10.5 11C9.62217 10.37 8.55171 10 7.39646 10C4.41608 10 2 12.4624 2 15.5C2 18.5376 4.41608 21 7.39646 21C8.08877 21 8.75062 20.8671 9.35882 20.6251" stroke="#141B34" stroke-width="1.5" stroke-linecap="round" stroke-linejoin="round"/>
<path d="M16 13C14.1631 11.1035 11.7291 7.13692 13.7946 4M16 2C14.9847 2.59904 14.2703 3.27752 13.7946 4M13.7946 4C11.4006 4.5 6.09142 6.5 7.13408 12" stroke="#141B34" stroke-width="1.5" stroke-linecap="round" stroke-linejoin="round"/>
</svg>
