<svg width="24" height="24" viewBox="0 0 24 24" fill="none" xmlns="http://www.w3.org/2000/svg">
<path opacity="0.4" d="M12 3C15.0376 3 17.5 5.46243 17.5 8.5C17.5 8.66855 17.4924 8.83532 17.4775 9H17.5C19.9853 9 22 11.0147 22 13.5C22 15.9853 19.9853 18 17.5 18H14.415C14.0563 16.8621 12.6426 15.6225 12 15C11.3574 15.6225 9.94365 16.8621 9.58496 18H7C4.23858 18 2 15.7614 2 13C2 10.4003 3.98407 8.26383 6.52051 8.02246C6.76253 5.2085 9.12332 3 12 3Z" fill="#141B34"/>
<path d="M17.4776 9.00915C17.485 9.00911 17.4925 9.00909 17.5 9.00909C19.9853 9.00909 22 11.0269 22 13.5159C22 15.8512 20.2265 17.7716 17.9548 18M17.4776 9.00915C17.4924 8.8442 17.5 8.67716 17.5 8.50834C17.5 5.46617 15.0376 3 12 3C9.12324 3 6.76233 5.21197 6.52042 8.03032M17.4776 9.00915C17.3753 10.1453 16.9286 11.182 16.2428 12.0136M6.52042 8.03032C3.98398 8.27205 2 10.4116 2 13.0152C2 15.4378 3.71776 17.536 6 18M6.52042 8.03032C6.67826 8.01527 6.83823 8.00758 7 8.00758C8.12582 8.00758 9.16474 8.38023 10.0005 9.00909" stroke="#141B34" stroke-width="1.5" stroke-linecap="round" stroke-linejoin="round"/>
<path d="M12 15C11.2608 15.7161 9.5 17.2482 9.5 18.5034C9.5 19.7341 10.4467 21 12 21C13.5533 21 14.5 19.7341 14.5 18.5034C14.5 17.2482 12.7392 15.7161 12 15Z" stroke="#141B34" stroke-width="1.5" stroke-linecap="round" stroke-linejoin="round"/>
</svg>
