<svg width="24" height="24" viewBox="0 0 24 24" fill="none" xmlns="http://www.w3.org/2000/svg">
<path d="M17.4776 9.01106C17.485 9.01102 17.4925 9.01101 17.5 9.01101C19.9853 9.01101 22 11.0294 22 13.5193C22 15.8398 20.25 17.7508 18 18M17.4776 9.01106C17.4924 8.84606 17.5 8.67896 17.5 8.51009C17.5 5.46695 15.0376 3 12 3C9.12324 3 6.76233 5.21267 6.52042 8.03192M17.4776 9.01106C17.3753 10.1476 16.9286 11.1846 16.2428 12.0165M6.52042 8.03192C3.98398 8.27373 2 10.4139 2 13.0183C2 15.4417 3.71776 17.4632 6 17.9273M6.52042 8.03192C6.67826 8.01687 6.83823 8.00917 7 8.00917C8.12582 8.00917 9.16474 8.38194 10.0005 9.01101" stroke="#141B34" stroke-width="1.5" stroke-linecap="round" stroke-linejoin="round"/>
<path d="M9.5 18.5L12 21L14.5 18.5M12 13.5V20.3912" stroke="#141B34" stroke-width="1.5" stroke-linecap="round" stroke-linejoin="round"/>
<path opacity="0.4" d="M17.5 8.5C17.5 5.46243 15.0376 3 12 3C9.12324 3 6.76233 5.20862 6.52042 8.0227C3.98398 8.26407 2 10.4003 2 13C2 15.7614 4.23858 18 7 18H17.5C19.9853 18 22 15.9853 22 13.5C22 11.0147 19.9853 9 17.5 9L17.4776 9.00005C17.4924 8.83536 17.5 8.66856 17.5 8.5Z" fill="#141B34"/>
</svg>
