<svg width="24" height="24" viewBox="0 0 24 24" fill="none" xmlns="http://www.w3.org/2000/svg">
<path opacity="0.4" d="M3.08579 16.9142L6.5 13.5H14.5L7.08579 20.9142C6.71071 21.2893 6.20201 21.5 5.67157 21.5H2.5V18.3284C2.5 17.798 2.71071 17.2893 3.08579 16.9142Z" fill="#141B34"/>
<path opacity="0.4" d="M17.75 7.75L16.25 6.25C15.5596 5.55964 15.5596 4.44036 16.25 3.75C16.9404 3.05964 18.0596 3.05964 18.75 3.75L20.25 5.25C20.9404 5.94036 20.9404 7.05964 20.25 7.75C19.5596 8.44036 18.4404 8.44036 17.75 7.75Z" fill="#141B34"/>
<path d="M13.5 3.5L15 5M20.5 10.5L19 9M15 5L16.0858 3.91421C16.8668 3.13317 18.1332 3.13316 18.9142 3.91421L20.0858 5.08579C20.8668 5.86683 20.8668 7.13317 20.0858 7.91421L19 9M15 5L19 9" stroke="#141B34" stroke-width="1.5" stroke-linecap="round" stroke-linejoin="round"/>
<path d="M13 7L3.08579 16.9142C2.71071 17.2893 2.5 17.798 2.5 18.3284V21.5H5.67157C6.20201 21.5 6.71071 21.2893 7.08579 20.9142L17 11" stroke="#141B34" stroke-width="1.5" stroke-linecap="round" stroke-linejoin="round"/>
<path d="M6.5 13.5H14.5" stroke="#141B34" stroke-width="1.5" stroke-linecap="round" stroke-linejoin="round"/>
</svg>
