<svg width="24" height="24" viewBox="0 0 24 24" fill="none" xmlns="http://www.w3.org/2000/svg">
<g opacity="0.4">
<path d="M13 17H20V12H12V16C12 16.5523 12.4477 17 13 17Z" fill="#141B34"/>
<path d="M12 2H4C3.44772 2 3 2.44772 3 3V8C3 8.55228 3.44772 9 4 9H12C12.5523 9 13 8.55228 13 8V3C13 2.44772 12.5523 2 12 2Z" fill="#141B34"/>
</g>
<path d="M22 12H2" stroke="#141B34" stroke-width="1.5" stroke-linecap="round" stroke-linejoin="round"/>
<path d="M20 17H13C12.4477 17 12 16.5523 12 16V12" stroke="#141B34" stroke-width="1.5" stroke-linecap="round" stroke-linejoin="round"/>
<path d="M4 12V22M20 12V22" stroke="#141B34" stroke-width="1.5" stroke-linecap="round" stroke-linejoin="round"/>
<rect x="3" y="2" width="10" height="7" rx="1" stroke="#141B34" stroke-width="1.5" stroke-linecap="round" stroke-linejoin="round"/>
<path d="M9.5 9L10 12M6.5 9L6 12" stroke="#141B34" stroke-width="1.5" stroke-linecap="round" stroke-linejoin="round"/>
<path d="M19 12L20.2572 8.85697C20.6674 7.83141 20.1686 6.66747 19.1431 6.25724L18.5 6M18.5 6C18.5 4.89543 17.6046 4 16.5 4H16V8H16.5C17.6046 8 18.5 7.10457 18.5 6Z" stroke="#141B34" stroke-width="1.5" stroke-linecap="round" stroke-linejoin="round"/>
</svg>
