<svg width="24" height="24" viewBox="0 0 24 24" fill="none" xmlns="http://www.w3.org/2000/svg">
<path opacity="0.4" d="M14.5977 3.1582C15.9577 2.91883 17.6855 2.29235 18.2363 1.99707H4C2.89543 1.99707 2 2.8925 2 3.99707V15.9971C2.00014 17.1015 2.89552 17.9971 4 17.9971H20C21.1045 17.9971 21.9999 17.1015 22 15.9971V6.07324C21.9998 8.96545 19.0952 10.543 18.2363 10.9463C18.0849 11.0174 17.9151 11.0174 17.7637 10.9463C16.9048 10.543 14.0002 8.96545 14 6.07324V3.85547C14 3.50676 14.2602 3.21765 14.5977 3.1582Z" fill="#141B34"/>
<path d="M11 1.99707H4C2.89543 1.99707 2 2.8925 2 3.99707V15.9968C2 17.1014 2.89543 17.9968 4 17.9968H20C21.1046 17.9968 22 17.1014 22 15.9968V12.4998" stroke="#141B34" stroke-width="1.5" stroke-linecap="round" stroke-linejoin="round"/>
<path d="M11 14.958H13" stroke="#141B34" stroke-width="1.5" stroke-linecap="round" stroke-linejoin="round"/>
<path d="M22 6.07299V3.85546C22 3.50671 21.7398 3.21726 21.4023 3.15786C20.0422 2.91848 18.9131 2.38597 18.3623 2.09069C18.1367 1.96977 17.8633 1.96977 17.6377 2.09069C17.0869 2.38597 15.9578 2.91848 14.5977 3.15786C14.2602 3.21726 14 3.50671 14 3.85546V6.07299C14 8.9658 16.9056 10.5437 17.764 10.9467C17.9154 11.0178 18.0846 11.0178 18.236 10.9467C19.0944 10.5437 22 8.9658 22 6.07299Z" stroke="#141B34" stroke-width="1.5" stroke-linecap="round"/>
<path d="M11.977 18V22M11.977 22H16M11.977 22H8" stroke="#141B34" stroke-width="1.5" stroke-linecap="round" stroke-linejoin="round"/>
</svg>
