<svg width="24" height="24" viewBox="0 0 24 24" fill="none" xmlns="http://www.w3.org/2000/svg">
<path opacity="0.4" d="M17 3.5C17 3.22386 17.2239 3 17.5 3H4C2.89543 3 2 3.89543 2 5V15C2 16.1046 2.89543 17 4 17H19.5V10H19C17.8954 10 17 9.10457 17 8V3.5Z" fill="#141B34"/>
<path d="M15 21H9" stroke="#141B34" stroke-width="1.5" stroke-linecap="round" stroke-linejoin="round"/>
<path d="M12 17H12.5V21H12M12 17H11.5V21H12M12 17V21" stroke="#141B34" stroke-width="1.5" stroke-linecap="round" stroke-linejoin="round"/>
<path d="M14 3H4C2.89543 3 2 3.89543 2 5V15C2 16.1046 2.89543 17 4 17H16.5" stroke="#141B34" stroke-width="1.5" stroke-linecap="round" stroke-linejoin="round"/>
<path d="M19 10H20C21.1046 10 22 9.10457 22 8V5.5H17V8C17 9.10457 17.8954 10 19 10Z" stroke="#141B34" stroke-width="1.5" stroke-linecap="round" stroke-linejoin="round"/>
<path d="M19.5 10V21" stroke="#141B34" stroke-width="1.5" stroke-linecap="round" stroke-linejoin="round"/>
<path d="M17 5.5H22V3.5C22 3.22386 21.7761 3 21.5 3H17.5C17.2239 3 17 3.22386 17 3.5V5.5Z" stroke="#141B34" stroke-width="1.5" stroke-linecap="round" stroke-linejoin="round"/>
</svg>
