<svg width="24" height="24" viewBox="0 0 24 24" fill="none" xmlns="http://www.w3.org/2000/svg">
<path opacity="0.4" d="M18.7324 4.4668C17.2861 6.9303 19.1433 10.0332 22 10.0332V13.9668C19.1434 13.9668 17.2871 17.0697 18.7334 19.5332L15.2695 21.5C13.8047 19.0049 10.1974 19.005 8.73242 21.5L6.33691 20.1396L11 15.5H14C15 15.5 16 14.5 16 13.5V9.50098L14 11.5C13.4525 12.0475 12.5475 12.0475 12 11.5C11.4525 10.9525 11.4525 10.0475 12 9.5L14 7.5H10C9 7.5 8 8.5 8 9.5V12.5L5.02246 15.4912C4.3505 14.5869 3.27572 13.9668 2 13.9668V10.0332C4.85673 10.0332 6.71586 6.93034 5.26953 4.4668L8.7334 2.5C10.1976 4.99392 13.8034 4.99386 15.2676 2.5L18.7324 4.4668Z" fill="#141B34"/>
<path d="M2 13.9669V10.0332C4.85673 10.0332 6.71586 6.93035 5.26953 4.46681L8.73363 2.5C10.1978 4.99395 13.8038 4.99405 15.2679 2.5001L18.732 4.46691C17.2857 6.93041 19.1433 10.0332 22 10.0332V13.9669C19.1434 13.9669 17.2874 17.0696 18.7336 19.5331L15.2695 21.4999C13.8046 19.0047 10.1969 19.0048 8.73205 21.5" stroke="#141B34" stroke-width="1.5" stroke-linecap="round" stroke-linejoin="round"/>
<path d="M12 9.5L14 7.5H10C9 7.5 8 8.5 8 9.5V12.5L2.61598 17.9098C1.79467 18.7311 1.79467 20.0627 2.61598 20.884C3.43729 21.7053 4.7689 21.7053 5.59021 20.884L11 15.5H14C15 15.5 16 14.5 16 13.5V9.50095L14 11.5C13.4525 12.0475 12.5475 12.0475 12 11.5C11.4525 10.9525 11.4525 10.0475 12 9.5Z" stroke="#141B34" stroke-width="1.5" stroke-linecap="round" stroke-linejoin="round"/>
</svg>
