<svg width="24" height="24" viewBox="0 0 24 24" fill="none" xmlns="http://www.w3.org/2000/svg">
<path opacity="0.4" fill-rule="evenodd" clip-rule="evenodd" d="M19.875 2C20.9796 2 21.875 2.89543 21.875 4V20C21.875 21.1046 20.9796 22 19.875 22H5.875C4.77043 22 3.875 21.1046 3.875 20V4C3.875 2.89543 4.77043 2 5.875 2H19.875ZM12.7061 16.1689C13.5808 16.5882 14.5386 16.8624 15.5479 16.96C16.0758 17.011 16.5868 16.7891 16.9619 16.4141L17.876 15.5L14.876 14L12.7061 16.1689ZM8.46191 7.91406C8.08692 8.28906 7.86415 8.79929 7.91504 9.32715C8.01253 10.3363 8.28685 11.2942 8.70605 12.1689L10.876 10L9.37598 7L8.46191 7.91406Z" fill="#141B34"/>
<path d="M3.875 4C3.875 2.89543 4.77043 2 5.875 2H19.875C20.9796 2 21.875 2.89543 21.875 4V20C21.875 21.1046 20.9796 22 19.875 22H5.875C4.77043 22 3.875 21.1046 3.875 20V4Z" stroke="#141B34" stroke-width="1.5" stroke-linejoin="round"/>
<path d="M5.125 6H2.125M5.125 12H2.125M5.125 18H2.125" stroke="#141B34" stroke-width="1.5" stroke-linecap="round" stroke-linejoin="round"/>
<path d="M8.875 12L10.875 10L9.375 7L8.46079 7.91421C8.08571 8.28929 7.86375 8.79945 7.91476 9.32743C8.30445 13.3613 11.5137 16.5706 15.5476 16.9602C16.0755 17.0112 16.5857 16.7893 16.9608 16.4142L17.875 15.5L14.875 14L12.875 16" stroke="#141B34" stroke-width="1.5" stroke-linecap="round" stroke-linejoin="round"/>
</svg>
