<svg width="24" height="24" viewBox="0 0 24 24" fill="none" xmlns="http://www.w3.org/2000/svg">
<path opacity="0.4" fill-rule="evenodd" clip-rule="evenodd" d="M18 2C19.6569 2 21 3.34315 21 5V18C21 18.0819 20.9947 18.1629 20.9883 18.2432C20.8567 16.4302 19.3466 15 17.5 15C15.567 15 14 16.567 14 18.5C14 19.4797 14.4031 20.3647 15.0518 21H5C3.34315 21 2 19.6569 2 18V5C2 3.34315 3.34315 2 5 2H18ZM7.75 15C7.05964 15 6.5 15.5596 6.5 16.25C6.5 16.9404 7.05964 17.5 7.75 17.5C8.44036 17.5 9 16.9404 9 16.25C9 15.5596 8.44036 15 7.75 15ZM7.75 5.5C7.05964 5.5 6.5 6.05964 6.5 6.75C6.5 7.44036 7.05964 8 7.75 8C8.44036 8 9 7.44036 9 6.75C9 6.05964 8.44036 5.5 7.75 5.5Z" fill="#141B34"/>
<path d="M21 12.5V5C21 3.34315 19.6569 2 18 2H5C3.34315 2 2 3.34315 2 5V18C2 19.6569 3.34315 21 5 21H10.5" stroke="#141B34" stroke-width="1.5" stroke-linecap="round" stroke-linejoin="round"/>
<path d="M12.5 6.5L16.5 6.5" stroke="#141B34" stroke-width="1.5" stroke-linecap="round" stroke-linejoin="round"/>
<circle cx="7.75" cy="6.75" r="1.25" stroke="#141B34" stroke-width="1.5" stroke-linecap="round" stroke-linejoin="round"/>
<circle cx="7.75" cy="16.25" r="1.25" stroke="#141B34" stroke-width="1.5" stroke-linecap="round" stroke-linejoin="round"/>
<path d="M2.5 11.5H20.5" stroke="#141B34" stroke-width="1.5" stroke-linejoin="round"/>
<path d="M20.6632 17C20.1014 15.8175 18.8962 15 17.5 15C15.7368 15 14.2426 16.3039 14 18L13 16M14.3368 20C14.8985 21.1825 16.1038 22 17.5 22C19.2632 22 20.7574 20.6961 21 19L22 21" stroke="#141B34" stroke-width="1.5" stroke-linecap="round" stroke-linejoin="round"/>
</svg>
