<svg width="24" height="24" viewBox="0 0 24 24" fill="none" xmlns="http://www.w3.org/2000/svg">
<path opacity="0.4" d="M2.5 19.5V7.50003H21.5V19.5C21.5 20.6046 20.6046 21.5 19.5 21.5H4.5C3.39543 21.5 2.5 20.6046 2.5 19.5Z" fill="#141B34"/>
<path d="M2.5 7.49942V19.4994C2.5 20.604 3.39543 21.4994 4.5 21.4994H14M21.5 13.9994V7.49942" stroke="#141B34" stroke-width="1.5" stroke-linecap="round" stroke-linejoin="round"/>
<path d="M4.91739 3.47043L2.5 7.49942H21.5L19.0826 3.47043C18.7212 2.86802 18.0701 2.49943 17.3676 2.49942L6.63238 2.49942C5.92986 2.49942 5.27884 2.86802 4.91739 3.47043Z" stroke="#141B34" stroke-width="1.5" stroke-linecap="round" stroke-linejoin="round"/>
<path d="M12 7.49942V2.49942" stroke="#141B34" stroke-width="1.5" stroke-linecap="round" stroke-linejoin="round"/>
<path d="M10 10.4994H14" stroke="#141B34" stroke-width="1.5" stroke-linecap="round" stroke-linejoin="round"/>
<path d="M14.0001 16.2494C13.5859 16.2494 13.25 16.5851 13.25 16.9993C13.25 17.4136 13.5857 17.7494 13.9999 17.7494L14 16.9994L14.0001 16.2494ZM19.2499 16.9999L19.2498 17.7499L19.2499 16.9999ZM13.5 16.9994L12.9697 16.4691C12.6768 16.762 12.6768 17.2369 12.9697 17.5298L13.5 16.9994ZM16.5303 15.0298C16.8232 14.7369 16.8232 14.262 16.5303 13.9691C16.2374 13.6762 15.7626 13.6762 15.4697 13.9691L16 14.4994L16.5303 15.0298ZM15.4697 20.0298C15.7626 20.3226 16.2374 20.3226 16.5303 20.0298C16.8232 19.7369 16.8232 19.262 16.5303 18.9691L16 19.4994L15.4697 20.0298ZM18.5 20.7506C18.0858 20.7506 17.75 21.0864 17.75 21.5006C17.75 21.9148 18.0858 22.2506 18.5 22.2506V21.5006V20.7506ZM14 16.9994L13.9999 17.7494L19.2498 17.7499L19.2499 16.9999L19.25 16.2499L14.0001 16.2494L14 16.9994ZM13.5 16.9994L14.0303 17.5298L16.5303 15.0298L16 14.4994L15.4697 13.9691L12.9697 16.4691L13.5 16.9994ZM13.5 16.9994L12.9697 17.5298L15.4697 20.0298L16 19.4994L16.5303 18.9691L14.0303 16.4691L13.5 16.9994ZM18.5 21.5006V22.2506H19.2497V21.5006V20.7506H18.5V21.5006ZM19.2497 21.5006V22.2506C20.9067 22.2506 22.25 20.9073 22.25 19.2503H21.5H20.75C20.75 20.0789 20.0783 20.7506 19.2497 20.7506V21.5006ZM19.2499 16.9999L19.2498 17.7499C20.0784 17.75 20.75 18.4217 20.75 19.2503H21.5H22.25C22.25 17.5933 20.9069 16.2501 19.25 16.2499L19.2499 16.9999Z" fill="#141B34"/>
</svg>
