<svg width="24" height="24" viewBox="0 0 24 24" fill="none" xmlns="http://www.w3.org/2000/svg">
<path opacity="0.4" fill-rule="evenodd" clip-rule="evenodd" d="M12.6887 4.55001C14.9942 2.26539 18.1344 2.71281 19.6057 4.55001L19.6203 4.56759C20.6461 5.84826 23.193 9.03025 16.8576 20.2395C16.5941 20.7055 16.0694 21.0002 15.5041 21.0002C14.6021 21.0002 13.8967 20.2798 13.8674 19.4397C13.8052 17.6578 13.4604 15.6029 12.0002 15.6027C10.5399 15.6027 10.1942 17.6577 10.132 19.4397C10.1027 20.2798 9.39818 21.0001 8.4963 21.0002C7.93089 21.0002 7.40531 20.7057 7.14181 20.2395C0.806294 9.02998 3.35439 5.84819 4.38009 4.56759L4.39376 4.55001C5.86492 2.71266 9.00511 2.26549 11.3108 4.55001C11.5484 4.78552 11.7788 4.99318 12.0002 5.17599C12.2215 4.99325 12.4511 4.7854 12.6887 4.55001ZM11.0002 9.00021C10.4479 9.00019 10.0002 9.44791 10.0002 10.0002V12.0002C10.0005 12.5523 10.4481 13.0002 11.0002 13.0002H13.0002C13.5523 13.0001 14 12.5522 14.0002 12.0002V10.0002C14.0002 9.44796 13.5524 9.00027 13.0002 9.00021H11.0002Z" fill="#141B34"/>
<path d="M9.00009 5.99979C9.50009 6.49979 10.5034 6.41207 12.0001 5.17611M12.0001 5.17611C11.7787 4.9933 11.5487 4.78561 11.311 4.5501C9.00539 2.26539 5.86528 2.71271 4.39408 4.5501C3.37793 5.81918 0.777613 8.97836 7.14224 20.2393C7.40575 20.7056 7.93069 20.9998 8.4961 20.9998C9.39809 20.9998 10.103 20.2799 10.1324 19.4397C10.1946 17.6577 10.5398 15.6033 12.0001 15.6033C13.4604 15.6033 13.8056 17.6577 13.8678 19.4397C13.8971 20.2799 14.6021 20.9998 15.5041 20.9998C16.0695 20.9998 16.5944 20.7056 16.8579 20.2393C23.2226 8.97836 20.6223 5.81918 19.6061 4.5501C18.1349 2.71271 14.9948 2.26539 12.6891 4.5501C12.4515 4.78561 12.2215 4.9933 12.0001 5.17611Z" stroke="#141B34" stroke-width="1.5" stroke-linecap="round" stroke-linejoin="round"/>
<path d="M11.0001 12.9998H13.0001C13.5524 12.9998 14.0001 12.5521 14.0001 11.9998V9.99986C14.0001 9.44759 13.5524 8.99988 13.0001 8.99986L11.0001 8.99981C10.4478 8.9998 10.0001 9.44752 10.0001 9.99981V11.9998C10.0001 12.5521 10.4478 12.9998 11.0001 12.9998Z" stroke="#141B34" stroke-width="1.5" stroke-linecap="round" stroke-linejoin="round"/>
<path d="M10.0001 10.9998H3.50009M20.5001 10.9998H14.0001" stroke="#141B34" stroke-width="1.5" stroke-linecap="round" stroke-linejoin="round"/>
</svg>
