<svg width="24" height="24" viewBox="0 0 24 24" fill="none" xmlns="http://www.w3.org/2000/svg">
<path opacity="0.4" d="M22 12C22 17.5227 17.5229 22 12 22C6.47713 22 2 17.5227 2 12C2 6.47713 6.47713 2 12 2C17.5229 2 22 6.47713 22 12Z" fill="#141B34"/>
<path d="M22 12C22 17.5227 17.5229 22 12 22C6.47713 22 2 17.5227 2 12C2 6.47713 6.47713 2 12 2C17.5229 2 22 6.47713 22 12Z" stroke="#141B34" stroke-width="1.5" stroke-linecap="round" stroke-linejoin="round"/>
<path d="M15.6904 9L17.1609 10.703C17.9481 11.6145 17.2771 12.9989 16.048 12.9995L15 13" stroke="#141B34" stroke-width="1.5" stroke-linecap="round" stroke-linejoin="round"/>
<path d="M9 8V12.998" stroke="#141B34" stroke-width="1.5" stroke-linecap="round" stroke-linejoin="round"/>
<path d="M9.5 17.4997H11M9.5 17.4997H8M9.5 17.4997C9.16667 17.1663 8.69989 16.2996 9.5 15.4997C10.1328 14.8671 11 15.5006 11 15.5006" stroke="#141B34" stroke-width="1.5" stroke-linecap="round" stroke-linejoin="round"/>
<path d="M12 13V13.01" stroke="#141B34" stroke-width="2" stroke-linecap="round" stroke-linejoin="round"/>
</svg>
