<svg width="24" height="24" viewBox="0 0 24 24" fill="none" xmlns="http://www.w3.org/2000/svg">
<path opacity="0.4" d="M20 22.0002V15.0003C20 13.8957 19.1046 13.0003 18 13.0003L14 13.0002L12 15.0002L10 13.0002L5.99998 13.0003C4.89542 13.0003 4 13.8957 4 15.0003V22.0002H20Z" fill="#141B34"/>
<path opacity="0.4" d="M15.5 6.50024V5.50024C15.5 3.56725 13.933 2.00024 12 2.00024C10.067 2.00024 8.5 3.56725 8.5 5.50024V6.50024C8.5 8.43324 10.067 10.0002 12 10.0002C13.933 10.0002 15.5 8.43324 15.5 6.50024Z" fill="#141B34"/>
<path d="M20 22.0001V15.0001C20 13.8955 19.1046 13.0001 18 13.0001L14 13.0001L12 15.0001L10 13.0001L5.99998 13.0001C4.89542 13.0001 4 13.8955 4 15.0001V22.0001" stroke="#141B34" stroke-width="1.5" stroke-linecap="round" stroke-linejoin="round"/>
<path d="M15.5 6.50012V5.50012C15.5 3.56713 13.933 2.00012 12 2.00012C10.067 2.00012 8.5 3.56713 8.5 5.50012V6.50012C8.5 8.43312 10.067 10.0001 12 10.0001C13.933 10.0001 15.5 8.43312 15.5 6.50012Z" stroke="#141B34" stroke-width="1.5" stroke-linecap="round" stroke-linejoin="round"/>
<path d="M16 16.0001V19.0001M17.5 17.5001L14.5 17.5001" stroke="#141B34" stroke-width="1.5" stroke-linecap="round" stroke-linejoin="round"/>
</svg>
