<svg width="24" height="24" viewBox="0 0 24 24" fill="none" xmlns="http://www.w3.org/2000/svg">
<path opacity="0.4" fill-rule="evenodd" clip-rule="evenodd" d="M12.998 7C12.998 8.10457 13.8935 9 14.998 9H20V20C20 21.1046 19.1046 22 18 22H6C4.89543 22 4 21.1046 4 20V4C4 2.89543 4.89543 2 6 2H13L12.998 7ZM15 14L15.5 16.5L14 19H20L18.5 16.5L19 14H15Z" fill="#141B34"/>
<path d="M20 11V9L13 2H6C4.89543 2 4 2.89543 4 4V20C4 21.1046 4.89543 22 6 22H12" stroke="#141B34" stroke-width="1.5" stroke-linecap="round" stroke-linejoin="round"/>
<path d="M13 2V7C13 8.10457 13.8954 9 15 9H20" stroke="#141B34" stroke-width="1.5" stroke-linejoin="round"/>
<path d="M17 19H14L15.5 16.5L15 14H19L18.5 16.5L20 19H17ZM17 19V22" stroke="#141B34" stroke-width="1.5" stroke-linecap="round" stroke-linejoin="round"/>
</svg>
