<svg width="24" height="24" viewBox="0 0 24 24" fill="none" xmlns="http://www.w3.org/2000/svg">
<path opacity="0.4" d="M12.998 7C12.998 8.10457 13.8935 9 14.998 9H20V17.4906C20 17.4937 20 17.4969 20 17.5V17.4906C19.9977 17.2375 19.8104 16.9924 19.5088 16.9688L17.333 16.7988L16.4912 14.8213C16.3086 14.3928 15.6913 14.3928 15.5088 14.8213L14.667 16.7988L12.4912 16.9688C12.018 17.0058 11.8269 17.588 12.1885 17.8906L13.8437 19.2754L13.3369 21.3525C13.2529 21.6973 13.5316 21.9878 13.8437 22H5.99999C4.89542 22 3.99999 21.1046 3.99999 20V4C3.99999 2.89543 4.89542 2 5.99999 2H13L12.998 7Z" fill="#141B34"/>
<path d="M20 13V9L13 2H5.99999C4.89542 2 3.99999 2.89543 3.99999 4V20C3.99999 21.1046 4.89542 22 5.99999 22H9.99999" stroke="#141B34" stroke-width="1.5" stroke-linecap="round" stroke-linejoin="round"/>
<path d="M13 2V7C13 8.10457 13.8954 9 15 9H20" stroke="#141B34" stroke-width="1.5" stroke-linejoin="round"/>
<path d="M15.5088 14.8215C15.6913 14.3928 16.3087 14.3928 16.4911 14.8215L17.3329 16.7988L19.509 16.9692C19.9822 17.0063 20.1733 17.5879 19.8118 17.8905L18.1566 19.2758L18.6635 21.3521C18.7741 21.8049 18.2742 22.1639 17.8696 21.9224L16 20.8067L14.1304 21.9224C13.7257 22.1639 13.2259 21.8049 13.3365 21.3521L13.8434 19.2758L12.1882 17.8905C11.8267 17.5879 12.0178 17.0063 12.491 16.9692L14.6671 16.7988L15.5088 14.8215Z" stroke="#141B34" stroke-width="1.5" stroke-linecap="round" stroke-linejoin="round"/>
</svg>
