<svg width="24" height="24" viewBox="0 0 24 24" fill="none" xmlns="http://www.w3.org/2000/svg">
<path opacity="0.4" fill-rule="evenodd" clip-rule="evenodd" d="M14 6.99915L16 4.33508C18.3911 6.60716 20 10.54 20 13.5011C19.9999 17.9193 16.4182 21.5011 12 21.5011C7.58181 21.5011 4.00014 17.9193 4 13.5011C4 9.59551 7 4.99915 10.5 2.49915L14 6.99915ZM10.5 9.49817C9.50001 10.4982 8.00002 12.1106 8 13.9991C8 16.4844 9.79086 18.4991 12 18.4991C14.2091 18.4991 16 16.4844 16 13.9991C16 13.2081 15.8186 12.4644 15.5 11.8185L13.5 13.4991L10.5 9.49817Z" fill="#141B34"/>
<path d="M12 21.5007C16.4183 21.5007 20 17.919 20 13.5007C20 10.5396 18.3912 6.60671 16 4.33466L14 6.99902L10.5 2.49902C7 4.99902 4 9.59514 4 13.5007C4 17.919 7.58172 21.5007 12 21.5007Z" stroke="#141B34" stroke-width="1.5" stroke-linejoin="round"/>
<path d="M12 18.499C14.2091 18.499 16 16.4843 16 13.999C16 13.208 15.8186 12.4646 15.5 11.8188L13.5 13.499L10.5 9.49799C9.5 10.498 8 12.1105 8 13.999C8 16.4843 9.79086 18.499 12 18.499Z" stroke="#141B34" stroke-width="1.5" stroke-linejoin="round"/>
</svg>
