<svg width="24" height="24" viewBox="0 0 24 24" fill="none" xmlns="http://www.w3.org/2000/svg">
<path opacity="0.4" d="M2 4V21L6 11H20V8C20 6.89543 19.1046 6 18 6H10L7.79985 3.35982C7.60985 3.13182 7.3284 3 7.03163 3H3C2.44772 3 2 3.44772 2 4Z" fill="#141B34"/>
<path d="M2 21V4C2 3.44772 2.44772 3 3 3H7.03163C7.3284 3 7.60985 3.13182 7.79985 3.35982L10 6M10 6H7M10 6H18C19.1046 6 20 6.89543 20 8V11" stroke="#141B34" stroke-width="1.5" stroke-linecap="round" stroke-linejoin="round"/>
<path d="M18.4766 21H2L5.74856 11.6286C5.90042 11.249 6.26813 11 6.67703 11H20.9995C21.707 11 22.1908 11.7145 21.928 12.3714L18.4766 21Z" stroke="#141B34" stroke-width="1.5" stroke-linecap="round" stroke-linejoin="round"/>
</svg>
