<svg width="24" height="24" viewBox="0 0 24 24" fill="none" xmlns="http://www.w3.org/2000/svg">
<path opacity="0.4" fill-rule="evenodd" clip-rule="evenodd" d="M8.50195 3C8.81547 3 9.11081 3.14731 9.2998 3.39746L12.0176 6.99414H20C21.1045 6.99414 21.9998 7.88972 22 8.99414V19C22 20.1046 21.1046 21 20 21H4C2.89543 21 2 20.1046 2 19V4C2 3.44772 2.44772 3 3 3H8.50195ZM17.4287 13C15.5351 13 14 14.5351 14 16.4287C14.0001 18.3222 15.5351 19.8574 17.4287 19.8574C18.3754 19.8574 19.2322 19.473 19.8525 18.8525C19.9671 18.738 20.0744 18.6161 20.1719 18.4863C20.6024 17.9134 20.8574 17.2007 20.8574 16.4287C20.8574 14.5351 19.3222 13.0001 17.4287 13Z" fill="#141B34"/>
<path d="M8 6.99446H12.0179M12.0179 6.99446H20C21.1046 6.99446 22 7.88989 22 8.99446V11M12.0179 6.99446L9.30008 3.39718C9.11109 3.14703 8.81572 3 8.5022 3H3C2.44772 3 2 3.44772 2 4V19C2 20.1046 2.89543 21 4 21H12.0179" stroke="#141B34" stroke-width="1.5" stroke-linecap="round" stroke-linejoin="round"/>
<path d="M22 21L19.8529 18.8529M19.8529 18.8529C19.9675 18.7384 20.0739 18.6158 20.1714 18.486C20.602 17.913 20.8571 17.2006 20.8571 16.4286C20.8571 14.535 19.3221 13 17.4286 13C15.535 13 14 14.535 14 16.4286C14 18.3221 15.535 19.8571 17.4286 19.8571C18.3753 19.8571 19.2325 19.4734 19.8529 18.8529Z" stroke="#141B34" stroke-width="1.5" stroke-linecap="round" stroke-linejoin="round"/>
</svg>
