<svg width="24" height="24" viewBox="0 0 24 24" fill="none" xmlns="http://www.w3.org/2000/svg">
<path opacity="0.4" d="M11.0015 5.5C11.0015 4.67157 10.3299 4 9.50147 4C8.67304 4 8.00147 4.67157 8.00147 5.5L8.00158 9L5.09622 11.5412C4.39964 12.1505 4.00006 13.0309 4.00006 13.9563C4.00006 14.6346 4.21503 15.2955 4.6141 15.844L8.00168 20.5V22L18.0013 22.0002L18.0013 20.5L19.1248 19.0957C19.6922 18.3864 20.0013 17.5052 20.0013 16.5969V7.49981C20.0013 6.67149 19.3298 6 18.5015 6C17.6732 6 17.0017 6.67149 17.0017 7.49981V5.5C17.0017 4.67157 16.3301 4 15.5017 4C14.6733 4 14.0017 4.67157 14.0017 5.5V3.5001C14.0017 2.67162 13.3301 2 12.5016 2C11.6731 2 11.0015 2.67162 11.0015 3.5001V5.5Z" fill="#141B34"/>
<path d="M11.0016 5.5C11.0016 4.67157 10.33 4 9.50156 4C8.67313 4 8.00156 4.67157 8.00156 5.5L8.00167 9M11.0016 5.5V10.5M11.0016 5.5V3.5001C11.0016 2.67162 11.6732 2 12.5017 2C13.3301 2 14.0018 2.67162 14.0018 3.5001V5.5M18.0014 22.0002L18.0014 20.5L19.1249 19.0957C19.6923 18.3864 20.0014 17.5052 20.0014 16.5969V7.49981C20.0014 6.67149 19.3299 6 18.5016 6C17.6733 6 17.0018 6.67149 17.0018 7.49981M8.00177 22V20.5L4.61419 15.844C4.21512 15.2955 4.00015 14.6346 4.00015 13.9563C4.00015 13.0309 4.39973 12.1505 5.09631 11.5412L8.00167 9M8.00177 13.5L8.00167 9M14.0018 5.5V11.5M14.0018 5.5C14.0018 4.67157 14.6733 4 15.5018 4C16.3302 4 17.0018 4.67157 17.0018 5.5V7.49981M17.0018 7.49981V12.5" stroke="#141B34" stroke-width="1.5" stroke-linecap="round" stroke-linejoin="round"/>
</svg>
