<svg width="24" height="24" viewBox="0 0 24 24" fill="none" xmlns="http://www.w3.org/2000/svg">
<path opacity="0.4" d="M15.8476 7.08243C17.7092 6.4939 20.1822 9.11506 21.3711 12.9369C22.5599 16.7589 22.0139 20.3345 20.1523 20.9233C19.0504 21.2714 17.0064 20.4555 15.4726 17.9984C15.4817 17.9986 15.4908 18.0004 15.5 18.0004C16.6044 18.0004 17.4997 17.1048 17.5 16.0004C17.5 14.8958 16.6045 14.0004 15.5 14.0004C14.3955 14.0005 13.5 14.8959 13.5 16.0004V16.0024L10.499 16.0004C10.499 14.8958 9.60454 14.0004 8.49997 14.0004C7.39546 14.0005 6.49997 14.8959 6.49997 16.0004C6.5002 17.1047 7.39561 18.0003 8.49997 18.0004C8.50775 18.0004 8.51565 17.9985 8.52341 17.9984C6.98987 20.4533 4.94881 21.2714 3.84763 20.9233C1.98603 20.3345 1.44008 16.7588 2.62888 12.9369C3.81766 9.11523 6.29074 6.49421 8.15231 7.08243C9.05718 7.36862 9.99139 8.7011 10.3486 9.25626C10.4448 9.40577 10.6093 9.5003 10.7871 9.5004H13.2129C13.3907 9.50039 13.5551 9.40585 13.6513 9.25626C14.0085 8.70118 14.9427 7.36864 15.8476 7.08243Z" fill="#141B34"/>
<path d="M17.5001 16C17.5001 17.1046 16.6047 18 15.5001 18C14.3956 18 13.5001 17.1046 13.5001 16C13.5001 14.8954 14.3956 14 15.5001 14C16.6047 14 17.5001 14.8954 17.5001 16Z" stroke="#141B34" stroke-width="1.5"/>
<path d="M10.5001 16C10.5001 17.1046 9.60469 18 8.50012 18C7.39555 18 6.50012 17.1046 6.50012 16C6.50012 14.8954 7.39555 14 8.50012 14C9.60469 14 10.5001 14.8954 10.5001 16Z" stroke="#141B34" stroke-width="1.5"/>
<path d="M10.5001 16.0038L13.5001 16.0038M15.4729 18C17.0067 20.4564 19.0512 21.2717 20.1528 20.9233C22.0144 20.3345 22.5598 16.7589 21.3709 12.9369C20.182 9.11488 17.7091 6.49384 15.8475 7.08262C14.9424 7.36887 14.0082 8.70152 13.6512 9.25647C13.5549 9.40607 13.3907 9.5 13.2128 9.5L10.7874 9.5C10.6095 9.5 10.4453 9.40607 10.3491 9.25647C9.99203 8.70152 9.05782 7.36887 8.15277 7.08262C6.29114 6.49384 3.81822 9.11488 2.62935 12.9369C1.44047 16.7589 1.98585 20.3345 3.84748 20.9233C4.94909 21.2717 6.99352 20.4564 8.52734 18" stroke="#141B34" stroke-width="1.5" stroke-linejoin="round"/>
<path d="M12.0001 3V9" stroke="#141B34" stroke-width="1.5" stroke-linecap="round" stroke-linejoin="round"/>
</svg>
