<svg width="24" height="24" viewBox="0 0 24 24" fill="none" xmlns="http://www.w3.org/2000/svg">
<path opacity="0.4" d="M15 16.5C16.5 16.5 16.5 14.5 16.5 14.5C16.5 13.3 16 12.5 16 12.5L18.5 13C18.5 13 19 13.9 19 15.5C19 17.5 17.7385 18.6308 16 19.5C14 20.5 12 22 12 22C12 22 10 20.5 8 19.5C6.26155 18.6308 5 17.5 5 15.5C5 13.9 5.5 13 5.5 13L8 12.5C8 12.5 7.5 13.3 7.5 14.5C7.5 14.5 7.5 16.5 9 16.5C10.5 16.5 10.5 15 12 15C13.5 15 13.5 16.5 15 16.5Z" fill="#141B34"/>
<path d="M12 12C14.5827 12 16.9032 12.3863 18.5 13C18.5 12.3474 18.3107 11.7087 17.955 11.1616L12 2L6.04499 11.1616C5.68931 11.7087 5.5 12.3474 5.5 13C7.09679 12.3863 9.41727 12 12 12Z" stroke="#141B34" stroke-width="1.5" stroke-linecap="round" stroke-linejoin="round"/>
<path d="M16 12.5C16 12.5 16.5 13.3 16.5 14.5C16.5 14.5 16.5 16.5 15 16.5C13.5 16.5 13.5 15 12 15C10.5 15 10.5 16.5 9 16.5C7.5 16.5 7.5 14.5 7.5 14.5C7.5 13.3 8 12.5 8 12.5" stroke="#141B34" stroke-width="1.5" stroke-linecap="round" stroke-linejoin="round"/>
<path d="M18.5 13C18.5 13 19 13.9 19 15.5C19 17.5 17.7385 18.6308 16 19.5C14 20.5 12 22 12 22C12 22 10 20.5 8 19.5C6.26155 18.6308 5 17.5 5 15.5C5 13.9 5.5 13 5.5 13" stroke="#141B34" stroke-width="1.5" stroke-linecap="round" stroke-linejoin="round"/>
</svg>
