<svg width="24" height="24" viewBox="0 0 24 24" fill="none" xmlns="http://www.w3.org/2000/svg">
<path opacity="0.4" fill-rule="evenodd" clip-rule="evenodd" d="M20 5C21.1046 5 22 5.89543 22 7V15C22 16.1046 21.1046 17 20 17H4V5H20ZM15 8C13.3431 8 12 9.34315 12 11C12 12.6569 13.3431 14 15 14C16.6569 14 18 12.6569 18 11C18 9.34315 16.6569 8 15 8Z" fill="#141B34"/>
<path d="M4 17V5H20C21.1046 5 22 5.89543 22 7V15C22 16.1046 21.1046 17 20 17H4Z" stroke="#141B34" stroke-width="1.5" stroke-linecap="round" stroke-linejoin="round"/>
<path d="M8 17V19C8 19.5523 8.44772 20 9 20H10C10.5523 20 11 19.5523 11 19V17" stroke="#141B34" stroke-width="1.5" stroke-linecap="round" stroke-linejoin="round"/>
<path d="M14 17V19C14 19.5523 14.4477 20 15 20H18C18.5523 20 19 19.5523 19 19V17" stroke="#141B34" stroke-width="1.5" stroke-linecap="round" stroke-linejoin="round"/>
<path d="M2 3H3C3.55228 3 4 3.44772 4 4V21" stroke="#141B34" stroke-width="1.5" stroke-linecap="round" stroke-linejoin="round"/>
<path d="M8 9V13" stroke="#141B34" stroke-width="1.5" stroke-linecap="round" stroke-linejoin="round"/>
<path d="M15 14C16.6569 14 18 12.6569 18 11C18 9.34315 16.6569 8 15 8C13.3431 8 12 9.34315 12 11C12 12.6569 13.3431 14 15 14Z" stroke="#141B34" stroke-width="1.5" stroke-linecap="round" stroke-linejoin="round"/>
</svg>
