<svg width="24" height="24" viewBox="0 0 24 24" fill="none" xmlns="http://www.w3.org/2000/svg">
<path opacity="0.4" d="M20.1341 15.5056C20.0498 14.8735 19.6692 14.3195 19.1093 14.0142L15 11.7727C13.1206 15.7287 8.81049 17.5223 7.7427 17.9151L7 22H17C17.9333 21.1646 19.9199 19.0951 20.4 17.4998L20.1341 15.5056Z" fill="#141B34"/>
<path opacity="0.4" d="M8.71674 3.52486C9.42263 2.44833 10.7123 2 11.9996 2C13.2869 2 14.577 2.44833 15.2829 3.52486C15.7829 4.2874 15.9993 5.09433 15.9996 6.01197H8C8.00036 5.09433 8.21672 4.2874 8.71674 3.52486Z" fill="#141B34"/>
<path d="M9.5 11.5L4.89066 14.0142C4.33084 14.3195 3.95019 14.8736 3.86591 15.5056L3 22M14.5 11.5L19.1093 14.0142C19.6692 14.3195 20.0498 14.8736 20.1341 15.5056L21 22" stroke="#141B34" stroke-width="1.5" stroke-linecap="round" stroke-linejoin="round"/>
<path d="M7 22L8 16.5" stroke="#141B34" stroke-width="1.5" stroke-linecap="round" stroke-linejoin="round"/>
<path d="M15.6774 12.3218C15.8552 11.9477 15.696 11.5003 15.3218 11.3226C14.9477 11.1448 14.5003 11.304 14.3226 11.6782L15 12L15.6774 12.3218ZM7.5 18C7.69839 18.7233 7.69866 18.7232 7.69894 18.7231C7.69906 18.7231 7.69936 18.723 7.69961 18.7229C7.7001 18.7228 7.70066 18.7227 7.70132 18.7225C7.70262 18.7221 7.70424 18.7217 7.70619 18.7211C7.71009 18.72 7.71527 18.7186 7.72171 18.7167C7.73458 18.713 7.75247 18.7078 7.77512 18.7011C7.82041 18.6876 7.88476 18.6678 7.96606 18.6413C8.12859 18.5884 8.35929 18.5087 8.64118 18.3989C9.20411 18.1797 9.97602 17.8386 10.8192 17.3485C12.4964 16.3737 14.5113 14.7765 15.6774 12.3218L15 12L14.3226 11.6782C13.3349 13.7571 11.5998 15.1599 10.0654 16.0517C9.30282 16.4949 8.60358 16.8038 8.0968 17.0012C7.84384 17.0997 7.64004 17.17 7.50179 17.215C7.4327 17.2375 7.38009 17.2536 7.34601 17.2638C7.32898 17.2689 7.31659 17.2724 7.3091 17.2746C7.30535 17.2757 7.30283 17.2764 7.30157 17.2767C7.30095 17.2769 7.30063 17.277 7.30063 17.277C7.30064 17.277 7.30072 17.277 7.30088 17.2769C7.30096 17.2769 7.30114 17.2768 7.30118 17.2768C7.30139 17.2768 7.30161 17.2767 7.5 18Z" fill="#141B34"/>
<path d="M12 20C12 20 17 18 18 13.5" stroke="#141B34" stroke-width="1.5" stroke-linecap="round" stroke-linejoin="round"/>
<path d="M16.584 21.376C16.2393 21.6057 16.1462 22.0714 16.376 22.416C16.6057 22.7607 17.0714 22.8538 17.416 22.624L17 22L16.584 21.376ZM17 22L17.416 22.624C17.8782 22.3159 18.3381 21.8467 18.7511 21.3607C19.1719 20.8657 19.5785 20.312 19.9305 19.7999C20.2836 19.2864 20.5876 18.8062 20.8033 18.4548C20.9113 18.2788 20.9975 18.1344 21.0571 18.0335C21.0869 17.983 21.11 17.9433 21.1259 17.9159C21.1338 17.9022 21.14 17.8916 21.1442 17.8843C21.1463 17.8806 21.148 17.8777 21.1491 17.8757C21.1497 17.8747 21.1502 17.8739 21.1505 17.8733C21.1507 17.873 21.1508 17.8727 21.1509 17.8725C21.151 17.8724 21.1511 17.8723 21.1511 17.8723C21.1511 17.8722 21.1512 17.8721 20.5 17.5C19.8488 17.1279 19.8488 17.1278 19.8489 17.1278C19.8489 17.1278 19.8489 17.1278 19.8489 17.1278C19.8489 17.1278 19.8488 17.1279 19.8487 17.128C19.8486 17.1283 19.8483 17.1287 19.848 17.1294C19.8472 17.1307 19.8459 17.1329 19.8442 17.1359C19.8408 17.1418 19.8355 17.151 19.8285 17.1632C19.8143 17.1876 19.793 17.2241 19.7652 17.2712C19.7095 17.3656 19.6278 17.5025 19.5248 17.6702C19.3186 18.0063 19.0289 18.4636 18.6945 18.9501C18.359 19.438 17.9843 19.9468 17.6082 20.3893C17.2244 20.8408 16.8718 21.1841 16.584 21.376L17 22Z" fill="#141B34"/>
<path d="M8.71674 3.52486C9.42263 2.44833 10.7123 2 11.9996 2C13.2869 2 14.577 2.44833 15.2829 3.52486C15.7829 4.2874 15.9993 5.09433 15.9996 6.01197C15.9999 6.66714 15.9044 7.31882 15.7161 7.94636C15.1367 9.87779 14.4561 12 11.9996 12C9.54314 12 8.86295 9.87779 8.28352 7.94636C8.09526 7.31882 7.99975 6.66714 8 6.01197C8.00036 5.09433 8.21673 4.2874 8.71674 3.52486Z" stroke="#141B34" stroke-width="1.5" stroke-linecap="round" stroke-linejoin="round"/>
<path d="M8 6.00003L15.9986 6" stroke="#141B34" stroke-width="1.5" stroke-linecap="round" stroke-linejoin="round"/>
</svg>
