<svg width="24" height="24" viewBox="0 0 24 24" fill="none" xmlns="http://www.w3.org/2000/svg">
<path opacity="0.4" fill-rule="evenodd" clip-rule="evenodd" d="M11.8828 2C16.7891 2 21 5.98 21 10.75C21 15.1688 17.279 19.34 11.8828 22V18.8203C7.23503 18.8202 3 15.2699 3 10.75C3.0007 6.04645 7.0449 2.00079 11.8828 2ZM6.5 8V12H9V14C9.5 14 10.5 13 10.5 12V8H6.5ZM13 12H15.5V14C16 14 17 13 17 12V8H13V12Z" fill="#141B34"/>
<path d="M11.883 2C7.045 2.00068 3.0007 6.04639 3 10.75C3 15.27 7.23514 18.82 11.883 18.82V22C17.2791 19.34 21 15.1688 21 10.75C21 5.98 16.7893 2 11.883 2Z" stroke="#141B34" stroke-width="1.5" stroke-linejoin="round"/>
<path d="M17 12C17 13 16 14 15.5 14V12L13 12V8H17V12Z" stroke="#141B34" stroke-width="1.5" stroke-linejoin="round"/>
<path d="M10.5 12C10.5 13 9.5 14 9 14V12L6.5 12V8H10.5V12Z" stroke="#141B34" stroke-width="1.5" stroke-linejoin="round"/>
</svg>
