<svg width="24" height="24" viewBox="0 0 24 24" fill="none" xmlns="http://www.w3.org/2000/svg">
<path opacity="0.4" d="M7 21V19C7 18.4477 6.55228 18 6 18H3C2.44772 18 2 18.4477 2 19V21C2 21.5523 2.44772 22 3 22H6C6.55228 22 7 21.5523 7 21Z" fill="#141B34"/>
<path opacity="0.4" d="M22 21V19C22 18.4477 21.5523 18 21 18H18C17.4477 18 17 18.4477 17 19V21C17 21.5523 17.4477 22 18 22H21C21.5523 22 22 21.5523 22 21Z" fill="#141B34"/>
<path opacity="0.4" d="M16 6V3C16 2.44772 15.5523 2 15 2H9C8.44772 2 8 2.44772 8 3V6C8 6.55228 8.44772 7 9 7H15C15.5523 7 16 6.55228 16 6Z" fill="#141B34"/>
<path d="M7 21V19C7 18.4477 6.55228 18 6 18H3C2.44772 18 2 18.4477 2 19V21C2 21.5523 2.44772 22 3 22H6C6.55228 22 7 21.5523 7 21Z" stroke="#141B34" stroke-width="1.5" stroke-linejoin="round"/>
<path d="M22 21V19C22 18.4477 21.5523 18 21 18H18C17.4477 18 17 18.4477 17 19V21C17 21.5523 17.4477 22 18 22H21C21.5523 22 22 21.5523 22 21Z" stroke="#141B34" stroke-width="1.5" stroke-linejoin="round"/>
<path d="M19.5 18L19.5005 15.5004C19.5007 14.3957 18.6052 13.5 17.5005 13.5H14.5008M4.5 18V15.5C4.5 14.3954 5.39543 13.5 6.5 13.5H9.50081M12.0008 7V11" stroke="#141B34" stroke-width="1.5" stroke-linejoin="round"/>
<path d="M16 6V3C16 2.44772 15.5523 2 15 2H9C8.44772 2 8 2.44772 8 3V6C8 6.55228 8.44772 7 9 7H15C15.5523 7 16 6.55228 16 6Z" stroke="#141B34" stroke-width="1.5" stroke-linejoin="round"/>
<path d="M14.5 13.5C14.5 14.8807 13.3807 16 12 16C10.6193 16 9.5 14.8807 9.5 13.5C9.5 12.1193 10.6193 11 12 11C13.3807 11 14.5 12.1193 14.5 13.5Z" stroke="#141B34" stroke-width="1.5"/>
</svg>
