<svg width="24" height="24" viewBox="0 0 24 24" fill="none" xmlns="http://www.w3.org/2000/svg">
<path d="M17.9999 18C17.0322 18.6667 15.6892 19.8667 16.0644 22" stroke="#141B34" stroke-width="1.5" stroke-linejoin="round"/>
<path d="M6.49988 5L15.4999 7.5" stroke="#141B34" stroke-width="1.5" stroke-linejoin="round"/>
<path d="M3.99997 7C6.95999 9 7.94667 11.5 5.97332 14.5" stroke="#141B34" stroke-width="1.5" stroke-linejoin="round"/>
<path d="M15.5169 16.7388C14.7354 15.613 14.7428 13.7738 15.0511 11.0689L15.999 4.00887C15.9997 4.00383 15.9965 3.99908 15.9915 3.99784L7.99998 2L6.50006 5C3.30006 6.2 3.00006 9 3.00006 11L12 22L19.244 22C20.2138 22 21 21.2138 21 20.244C21 19.4987 20.5299 18.8289 19.8156 18.6163C17.5107 17.9303 16.3291 17.9087 15.5169 16.7388Z" stroke="#141B34" stroke-width="1.5" stroke-linecap="round" stroke-linejoin="round"/>
<path opacity="0.4" d="M15.5 7.5L6.50003 5C5.30003 5.4 4.33336 6.5 4.00003 7C8.00003 9.4 7.00003 12.6667 6.00003 14L12 22H16C16 19.6 17.3334 18.3333 18 18C17.3334 17.8333 15.8 17.2 15 16C14.2 14.8 15 9.83333 15.5 7.5Z" fill="#141B34"/>
</svg>
