<svg width="24" height="24" viewBox="0 0 24 24" fill="none" xmlns="http://www.w3.org/2000/svg">
<path opacity="0.4" d="M15.3555 3C14.5246 3.73296 14 4.80496 14 6C14 8.20914 15.7909 10 18 10C19.1953 10 20.267 9.47472 21 8.64355V14H15V14.5C15 16.433 13.433 18 11.5 18C9.567 18 8 16.433 8 14.5V14H2V5C2 3.89543 2.89543 3 4 3H15.3555Z" fill="#141B34"/>
<path d="M16.9303 5.46967C16.6374 5.17678 16.1626 5.17678 15.8697 5.46967C15.5768 5.76256 15.5768 6.23744 15.8697 6.53033L16.4 6L16.9303 5.46967ZM17.6 7.2L17.0697 7.73033C17.2187 7.87933 17.4235 7.95878 17.634 7.94923C17.8445 7.93968 18.0413 7.84202 18.1762 7.68014L17.6 7.2ZM20.1762 5.28014C20.4413 4.96193 20.3983 4.48901 20.0801 4.22383C19.7619 3.95866 19.289 4.00165 19.0238 4.31986L19.6 4.8L20.1762 5.28014ZM22 6H22.75C22.75 3.37665 20.6234 1.25 18 1.25V2V2.75C19.7949 2.75 21.25 4.20507 21.25 6H22ZM18 2V1.25C15.3766 1.25 13.25 3.37665 13.25 6H14H14.75C14.75 4.20507 16.2051 2.75 18 2.75V2ZM14 6H13.25C13.25 8.62335 15.3766 10.75 18 10.75V10V9.25C16.2051 9.25 14.75 7.79493 14.75 6H14ZM18 10V10.75C20.6234 10.75 22.75 8.62335 22.75 6H22H21.25C21.25 7.79493 19.7949 9.25 18 9.25V10ZM16.4 6L15.8697 6.53033L17.0697 7.73033L17.6 7.2L18.1303 6.66967L16.9303 5.46967L16.4 6ZM17.6 7.2L18.1762 7.68014L20.1762 5.28014L19.6 4.8L19.0238 4.31986L17.0238 6.71986L17.6 7.2Z" fill="#141B34"/>
<path d="M11.5 3H4C2.89543 3 2 3.89543 2 5V20C2 21.1046 2.89543 22 4 22H19C20.1046 22 21 21.1046 21 20V12.5" stroke="#141B34" stroke-width="1.5" stroke-linecap="round" stroke-linejoin="round"/>
<path d="M2 14H8V14.5C8 16.433 9.567 18 11.5 18C13.433 18 15 16.433 15 14.5V14H21" stroke="#141B34" stroke-width="1.5" stroke-linecap="round" stroke-linejoin="round"/>
</svg>
