<svg width="24" height="24" viewBox="0 0 24 24" fill="none" xmlns="http://www.w3.org/2000/svg">
<path opacity="0.4" d="M15 12C15 7.71523 12.3782 4.05124 8.67216 2.56714C4.78532 3.93837 2 7.64394 2 12.0001C2 16.3561 4.78532 20.0617 8.67217 21.433C12.3782 19.9489 15 16.2849 15 12Z" fill="#141B34"/>
<path d="M22 12C22 17.5228 17.5228 22 12 22C6.47715 22 2 17.5228 2 12C2 6.47715 6.47715 2 12 2C17.5228 2 22 6.47715 22 12Z" stroke="#141B34" stroke-width="1.5"/>
<path d="M8.5 2.5C12.2967 3.93836 15 7.64912 15 12C15 16.3509 12.2967 20.0617 8.5 21.5" stroke="#141B34" stroke-width="1.5"/>
</svg>
