<svg width="24" height="24" viewBox="0 0 24 24" fill="none" xmlns="http://www.w3.org/2000/svg">
<path opacity="0.4" fill-rule="evenodd" clip-rule="evenodd" d="M11.1846 2.20179C11.6921 1.93306 12.3079 1.93306 12.8154 2.20179C14.0549 2.85799 16.5953 4.04097 19.6553 4.57288C20.4146 4.70493 21 5.3487 21 6.12366V11.0514C20.9998 17.4795 14.4627 20.9858 12.5312 21.8815C12.1905 22.0395 11.8095 22.0395 11.4688 21.8815C9.53726 20.9858 3.00021 17.4795 3 11.0514V6.12366C3 5.34871 3.58542 4.70493 4.34473 4.57288C7.40465 4.04097 9.94512 2.85799 11.1846 2.20179ZM9.5 9.99964L13.5 13.9996L16 11.4996L12 7.49964L9.5 9.99964Z" fill="#141B34"/>
<path d="M11.5 12L13.5 14L16 11.5L12 7.5L9.5 10L11.5 12ZM11.5 12L9 14.5" stroke="#141B34" stroke-width="1.5" stroke-linecap="round" stroke-linejoin="round"/>
<path d="M21 11.0511V6.12325C21 5.34825 20.4145 4.70502 19.6551 4.57302C16.595 4.04108 14.0546 2.85772 12.8152 2.20154C12.3077 1.93282 11.6923 1.93282 11.1848 2.20154C9.94542 2.85772 7.40502 4.04108 4.34489 4.57302C3.58552 4.70502 3 5.34825 3 6.12325V11.0511C3 17.4795 9.53762 20.9859 11.4689 21.8815C11.8097 22.0395 12.1903 22.0395 12.5311 21.8815C14.4624 20.9859 21 17.4795 21 11.0511Z" stroke="#141B34" stroke-width="1.5" stroke-linecap="round"/>
</svg>
