<svg width="24" height="24" viewBox="0 0 24 24" fill="none" xmlns="http://www.w3.org/2000/svg">
<path opacity="0.4" d="M12 2.38873C7.30558 2.38873 3.5 6.00659 3.5 10.4694C3.5 15.3299 8.21916 17.758 11.1092 21.1947C11.5669 21.739 12.4531 21.7534 12.9211 21.2179C15.8645 17.8501 20.5 15.2362 20.5 10.4694C20.5 6.00659 16.6944 2.38873 12 2.38873Z" fill="#141B34"/>
<path d="M15.5 10.3887H8.5" stroke="#141B34" stroke-width="1.5" stroke-linecap="round" stroke-linejoin="round"/>
<path d="M12 2.38873C7.30558 2.38873 3.5 6.00659 3.5 10.4694C3.5 15.3299 8.21916 17.758 11.1092 21.1947C11.5669 21.739 12.4531 21.7534 12.9211 21.2179C15.8645 17.8501 20.5 15.2362 20.5 10.4694C20.5 6.00659 16.6944 2.38873 12 2.38873Z" stroke="#141B34" stroke-width="1.5" stroke-linejoin="round"/>
</svg>
