<svg width="24" height="24" viewBox="0 0 24 24" fill="none" xmlns="http://www.w3.org/2000/svg">
<path opacity="0.4" d="M3.5 10.0807C3.5 14.9411 8.21916 17.3692 11.1092 20.8059C11.5669 21.3502 12.4533 21.3643 12.9213 20.8289C13.9006 19.7084 15.0671 18.6714 16.188 17.6108C16.5909 17.2295 16.5931 16.593 16.2008 16.2007L6.00649 6.00644C5.58415 5.58409 4.88264 5.62217 4.57939 6.13675C3.89193 7.30326 3.5 8.64844 3.5 10.0807Z" fill="#141B34"/>
<path d="M16.9124 16.9124C15.5849 18.2231 14.1142 19.4641 12.9213 20.8289C12.4533 21.3644 11.5669 21.3502 11.1092 20.806C8.21916 17.3692 3.5 14.9412 3.5 10.0807C3.5 8.25332 4.13806 6.5676 5.21393 5.21393M7.5 3.22404C8.80503 2.44833 10.3474 2 12 2C16.6944 2 20.5 5.61786 20.5 10.0807C20.5 11.8459 19.8643 13.3159 18.9143 14.6383" stroke="#141B34" stroke-width="1.5" stroke-linecap="round" stroke-linejoin="round"/>
<path d="M2 2L22 22" stroke="#141B34" stroke-width="1.5" stroke-linecap="round" stroke-linejoin="round"/>
</svg>
