<svg width="24" height="24" viewBox="0 0 24 24" fill="none" xmlns="http://www.w3.org/2000/svg">
<path d="M21.2154 16C19.6684 19.5318 16.1355 22 12.0247 22C6.48823 22 2 17.5228 2 12C2 6.47714 6.48823 1.99998 12.0247 1.99998C17.2229 1.99998 21.497 5.94666 22 11L19.5 9.99976" stroke="#141B34" stroke-width="1.5" stroke-linecap="round" stroke-linejoin="round"/>
<path opacity="0.4" d="M9 13.5599C9 11.9362 10.3431 10.6199 12 10.6199C13.6569 10.6199 15 11.9362 15 13.5599C15 15.1836 13.6569 16.4999 12 16.4999C10.3431 16.4999 9 15.1836 9 13.5599Z" fill="#141B34"/>
<path d="M13.9286 11.3077V9.38976C13.9286 8.34594 13.0651 7.49976 12 7.49976C10.9349 7.49976 10.0714 8.34594 10.0714 9.38976V11.3077M12 16.4998C10.3431 16.4998 9 15.1835 9 13.5598C9 11.936 10.3431 10.6198 12 10.6198C13.6569 10.6198 15 11.936 15 13.5598C15 15.1835 13.6569 16.4998 12 16.4998Z" stroke="#141B34" stroke-width="1.5" stroke-linejoin="round"/>
</svg>
