<svg width="24" height="24" viewBox="0 0 24 24" fill="none" xmlns="http://www.w3.org/2000/svg">
<path opacity="0.4" d="M16 2C17.1046 2 18 2.89543 18 4V10.3633L14.5 7.5V10.5H9V13.5H14.5V16.5L18 13.6357V20C18 21.1046 17.1046 22 16 22H6C4.89543 22 4 21.1046 4 20V4C4 2.89543 4.89543 2 6 2H16Z" fill="#141B34"/>
<path d="M18 6V4C18 2.89543 17.1046 2 16 2H6C4.89543 2 4 2.89543 4 4V20C4 21.1046 4.89543 22 6 22H16C17.1046 22 18 21.1046 18 20V18" stroke="#141B34" stroke-width="1.5" stroke-linecap="round" stroke-linejoin="round"/>
<path d="M14.5 16.5L20 12L14.5 7.5V10.5H9V13.5H14.5V16.5Z" stroke="#141B34" stroke-width="1.5" stroke-linecap="round" stroke-linejoin="round"/>
</svg>
