<svg width="24" height="24" viewBox="0 0 24 24" fill="none" xmlns="http://www.w3.org/2000/svg">
<path opacity="0.4" d="M2 18.8073V8.30725L7.5 13.3073H16.5L22 8.30725V18.8073C22 19.9118 21.1046 20.8073 20 20.8073H4C2.89543 20.8073 2 19.9118 2 18.8073Z" fill="#141B34"/>
<path d="M2.45501 8.0115L10.91 2.51574C11.5728 2.08492 12.4272 2.08492 13.09 2.51574L21.545 8.0115C21.8288 8.19596 22 8.51147 22 8.84994V18.8073C22 19.9118 21.1046 20.8073 20 20.8073H4C2.89543 20.8073 2 19.9118 2 18.8073V8.84994C2 8.51147 2.17122 8.19596 2.45501 8.0115Z" stroke="#141B34" stroke-width="1.5" stroke-linejoin="round"/>
<path d="M2 8.30725L6.92787 12.7871C7.29601 13.1218 7.77568 13.3073 8.27321 13.3073H15.7268C16.2243 13.3073 16.704 13.1218 17.0721 12.7871L22 8.30725" stroke="#141B34" stroke-width="1.5"/>
</svg>
