<svg width="24" height="24" viewBox="0 0 24 24" fill="none" xmlns="http://www.w3.org/2000/svg">
<path opacity="0.4" fill-rule="evenodd" clip-rule="evenodd" d="M22 16C22 17.1046 21.1046 18 20 18H4C2.89543 18 2 17.1046 2 16V5L11.1055 9.55273C11.6685 9.83426 12.3315 9.83426 12.8945 9.55273L22 5V16ZM18.5 11.5C17.6716 11.5 17 12.1716 17 13V15C17 15.8284 17.6716 16.5 18.5 16.5C19.3284 16.4999 20 15.8284 20 15V13C20 12.1716 19.3284 11.5001 18.5 11.5Z" fill="#141B34"/>
<path d="M12 18H4C2.89543 18 2 17.1046 2 16V4C2 2.89543 2.89543 2 4 2H20C21.1046 2 22 2.89543 22 4V9" stroke="#141B34" stroke-width="1.5" stroke-linecap="round" stroke-linejoin="round"/>
<path d="M22 5L12.8944 9.55279C12.3314 9.83431 11.6686 9.83431 11.1056 9.55279L2 5" stroke="#141B34" stroke-width="1.5" stroke-linejoin="round"/>
<path d="M18.4999 19C19.8961 19 21.4998 18 21.9998 17M18.4999 19C17.1037 19 15.5 18 15 17M18.4999 19V21M18.4999 16.5C17.6715 16.5 16.9999 15.8284 16.9999 15V13C16.9999 12.1716 17.6715 11.5 18.4999 11.5C19.3283 11.5 19.9999 12.1716 19.9999 13V15C19.9999 15.8284 19.3283 16.5 18.4999 16.5Z" stroke="#141B34" stroke-width="1.5" stroke-linecap="round"/>
</svg>
