<svg width="24" height="24" viewBox="0 0 24 24" fill="none" xmlns="http://www.w3.org/2000/svg">
<path opacity="0.4" d="M14.5 16.5001L19.1326 18.0441C19.9493 18.3163 20.5002 19.0806 20.5002 19.9415V21.5001H3.50018V19.9415C3.50018 19.0806 4.05106 18.3163 4.86775 18.0441L9.50001 16.5001V14.5623C7.71917 13.1685 6.50001 11.4999 6.50001 7.91674C6.50001 4.32689 8.45475 2.49993 11.4923 2.49993C13.6433 2.49993 14.5385 3.49993 14.5385 3.49993C17.0769 3.49993 17.5 5.59712 17.5 7.91674C17.5 11.4999 16.2809 13.1685 14.5 14.5623V16.5001Z" fill="#141B34"/>
<path d="M14.5002 16.5L19.1328 18.044C19.9495 18.3163 20.5004 19.0805 20.5004 19.9414V21.5H3.50037V19.9414C3.50037 19.0805 4.05124 18.3162 4.86793 18.044L9.5002 16.5V14.5622C7.71936 13.1684 6.5002 11.4999 6.5002 7.91667C6.5002 4.32682 8.45494 2.49986 11.4925 2.49986C13.6434 2.49986 14.5387 3.49986 14.5387 3.49986C17.0771 3.49986 17.5002 5.59705 17.5002 7.91667C17.5002 11.4999 16.281 13.1684 14.5002 14.5622V16.5Z" stroke="#141B34" stroke-width="1.5" stroke-linejoin="round"/>
</svg>
