<svg width="24" height="24" viewBox="0 0 24 24" fill="none" xmlns="http://www.w3.org/2000/svg">
<path opacity="0.4" fill-rule="evenodd" clip-rule="evenodd" d="M10 2C14.4183 2 18 5.61823 18 10.0811C18 10.4034 17.9831 10.7166 17.9512 11.0215C17.8028 11.0069 17.6523 11 17.5 11C15.0147 11 13 12.9898 13 15.4443C13 16.2979 13.2089 17.0355 13.625 17.7021C12.3895 18.9457 10.9679 20.5293 10.1758 21.7236C10.093 21.8484 9.90698 21.8484 9.82422 21.7236C8.70565 20.0372 6.33483 17.5715 5 16.3887C3.00021 14.6165 2.0001 12.6327 2 10.0811C2 5.61823 5.58172 2 10 2ZM10 6.5C8.067 6.5 6.5 8.067 6.5 10C6.5 11.933 8.067 13.5 10 13.5C11.933 13.5 13.5 11.933 13.5 10C13.5 8.067 11.933 6.5 10 6.5Z" fill="#141B34"/>
<path d="M17.5 11C15.0147 11 13 12.9898 13 15.4444C13 16.8479 13.5625 17.9392 14.6875 18.914C15.4104 19.5404 16.6734 20.8207 17.3279 21.7429C17.412 21.8613 17.5921 21.8641 17.6783 21.7472C18.3507 20.8362 19.5895 19.5404 20.3125 18.914C21.4375 17.9392 22 16.8479 22 15.4444C22 12.9898 19.9853 11 17.5 11Z" stroke="#141B34" stroke-width="1.5" stroke-linecap="round" stroke-linejoin="round"/>
<path d="M13.5352 10C13.5352 8.067 11.9682 6.5 10.0352 6.5C8.10216 6.5 6.53516 8.067 6.53516 10C6.53516 11.933 8.10216 13.5 10.0352 13.5C10.4027 13.5 10.7571 13.4433 11.09 13.3383" stroke="#141B34" stroke-width="1.5" stroke-linecap="round" stroke-linejoin="round"/>
<path d="M12.062 19.3956C11.335 20.2183 10.6555 21.0499 10.1772 21.7375C10.0932 21.8582 9.91154 21.8561 9.83043 21.7335C8.71455 20.0468 6.3374 17.5741 5 16.389C3 14.6167 2 12.6325 2 10.0807C2 5.61783 5.58172 2 10 2C13.9735 2 17.2703 4.92604 17.8939 8.76126" stroke="#141B34" stroke-width="1.5" stroke-linecap="round" stroke-linejoin="round"/>
<path d="M17.5 15.5H17.509" stroke="#141B34" stroke-width="3" stroke-linecap="round" stroke-linejoin="round"/>
</svg>
