<svg width="24" height="24" viewBox="0 0 24 24" fill="none" xmlns="http://www.w3.org/2000/svg">
<path opacity="0.4" fill-rule="evenodd" clip-rule="evenodd" d="M11 2C15.8706 2 20 6.03298 20 10.9258C20 11.5248 19.9391 12.1022 19.8251 12.6588C19.1413 12.2415 18.3428 12 17.5 12C15.0647 12 13 14.0165 13 16.4629C13 17.8543 13.6543 19.0061 14.5688 19.9605C13.7071 20.6198 12.8087 21.2171 11.927 21.7567C11.6445 21.9162 11.325 22 11 22C10.675 22 10.3555 21.9162 10.073 21.7567C6.2039 19.3616 2 15.9137 2 10.9258C2 6.03298 6.12944 2 11 2ZM14.5 11C14.5 12.933 12.933 14.5 11 14.5C9.067 14.5 7.5 12.933 7.5 11C7.5 9.067 9.067 7.5 11 7.5C12.933 7.5 14.5 9.067 14.5 11Z" fill="#141B34"/>
<path d="M22 16.5C22 19.7272 18.1741 21.6791 17.5777 21.9638C17.5267 21.9882 17.4733 21.9882 17.4223 21.9638C16.8259 21.6791 13 19.7272 13 16.5C13 14.0147 15.0147 12 17.5 12C19.9853 12 22 14.0147 22 16.5Z" stroke="#141B34" stroke-width="1.5" stroke-linecap="round" stroke-linejoin="round"/>
<path d="M11 14.5C9.067 14.5 7.5 12.933 7.5 11C7.5 9.067 9.067 7.5 11 7.5C12.7533 7.5 14.2056 8.78927 14.4604 10.4715" stroke="#141B34" stroke-width="1.5" stroke-linecap="round" stroke-linejoin="round"/>
<path d="M19.9662 10.2147C19.5684 5.61188 15.706 2 11 2C6.02944 2 2 6.02944 2 11C2 17.1102 8.85731 20.9346 10.6007 21.8081C10.8537 21.9349 11.1476 21.9343 11.4005 21.8075C11.6877 21.6636 12.1131 21.4399 12.6235 21.1393" stroke="#141B34" stroke-width="1.5" stroke-linecap="round" stroke-linejoin="round"/>
<path d="M17.5 16.5H17.509" stroke="#141B34" stroke-width="3" stroke-linecap="round" stroke-linejoin="round"/>
</svg>
