<svg width="24" height="24" viewBox="0 0 24 24" fill="none" xmlns="http://www.w3.org/2000/svg">
<path opacity="0.4" fill-rule="evenodd" clip-rule="evenodd" d="M12 2C17.5228 2.00001 22 6.47716 22 12C22 16.3271 19.2516 20.0124 15.4053 21.4053L2.59473 8.59473C3.98762 4.74838 7.67287 2 12 2ZM14.5 6C12.5671 6 11.0002 7.61156 11 9.59961C11 11.8069 13.1749 13.2692 14.0957 13.7891C14.3485 13.9318 14.6515 13.9318 14.9043 13.7891C15.8251 13.2692 18 11.8069 18 9.59961C17.9998 7.61156 16.4329 6 14.5 6Z" fill="#141B34"/>
<path d="M9 15L5 19M15 21L3 9" stroke="#141B34" stroke-width="1.5" stroke-linecap="round"/>
<path d="M18 9.6C18 11.8075 15.8246 13.2691 14.9039 13.7888C14.6511 13.9316 14.3489 13.9316 14.0961 13.7888C13.1754 13.2691 11 11.8075 11 9.6C11 7.61177 12.567 6 14.5 6C16.433 6 18 7.61177 18 9.6Z" stroke="#141B34" stroke-width="1.5" stroke-linejoin="round"/>
<path d="M14.5 9.5H14.509" stroke="#141B34" stroke-width="2" stroke-linecap="round" stroke-linejoin="round"/>
<path d="M22 12C22 17.5228 17.5228 22 12 22C6.47715 22 2 17.5228 2 12C2 6.47715 6.47715 2 12 2C17.5228 2 22 6.47715 22 12Z" stroke="#141B34" stroke-width="1.5"/>
</svg>
