<svg width="24" height="24" viewBox="0 0 24 24" fill="none" xmlns="http://www.w3.org/2000/svg">
<g opacity="0.4">
<path d="M22 6C22 5.44772 21.5523 5 21 5H15V12.7578C15.7151 12.2792 16.5749 12 17.5 12C19.9853 12 22 14.0147 22 16.5V6Z" fill="#141B34"/>
<path d="M3.31641 18.5615L8 17V2L2.55273 4.72363C2.21398 4.89303 2 5.23941 2 5.61816V17.6123C2 18.2949 2.66888 18.7774 3.31641 18.5615Z" fill="#141B34"/>
</g>
<path d="M10.5 18L8 17L3.31623 18.5613C2.6687 18.7771 2 18.2951 2 17.6126V5.61803C2 5.23926 2.214 4.893 2.55279 4.72361L7.58517 2.20742C7.84826 2.07587 8.15593 2.06683 8.4263 2.1827L15 5H21C21.5523 5 22 5.44772 22 6V10.5" stroke="#141B34" stroke-width="1.5" stroke-linecap="round" stroke-linejoin="round"/>
<path d="M8 2L8 17" stroke="#141B34" stroke-width="1.5" stroke-linejoin="round"/>
<path d="M15 5V9.5" stroke="#141B34" stroke-width="1.5" stroke-linecap="round" stroke-linejoin="round"/>
<path d="M17.8966 21.8023C18.9956 21.2182 22 19.3598 22 16.5C22 14.0147 19.9853 12 17.5 12C15.0147 12 13 14.0147 13 16.5C13 19.3598 16.0044 21.2182 17.1034 21.8023C17.3533 21.9351 17.6467 21.9351 17.8966 21.8023Z" stroke="#141B34" stroke-width="1.5" stroke-linejoin="round"/>
<path d="M17.5 16.5H17.509" stroke="#141B34" stroke-width="2" stroke-linecap="round" stroke-linejoin="round"/>
</svg>
