<svg width="24" height="24" viewBox="0 0 24 24" fill="none" xmlns="http://www.w3.org/2000/svg">
<g opacity="0.4">
<path d="M22 7C22 6.44772 21.5523 6 21 6H15V17.5L19.5 13L22 15.5V7Z" fill="#141B34"/>
<path d="M3.31641 19.5615L8 18V3L2.55273 5.72363C2.21398 5.89303 2 6.23941 2 6.61816V18.6123C2 19.2949 2.66888 19.7774 3.31641 19.5615Z" fill="#141B34"/>
</g>
<path d="M10.5 19L8 18L3.31623 19.5613C2.6687 19.7771 2 19.2951 2 18.6126V6.61803C2 6.23926 2.214 5.893 2.55279 5.72361L7.58517 3.20742C7.84826 3.07587 8.15593 3.06683 8.4263 3.1827L15 6H21C21.5523 6 22 6.44772 22 7V11" stroke="#141B34" stroke-width="1.5" stroke-linecap="round" stroke-linejoin="round"/>
<path d="M8 3L8 18" stroke="#141B34" stroke-width="1.5" stroke-linejoin="round"/>
<path d="M15 6V12" stroke="#141B34" stroke-width="1.5" stroke-linecap="round" stroke-linejoin="round"/>
<path d="M14 18.5V21H16.5L22 15.5L19.5 13L14 18.5Z" stroke="#141B34" stroke-width="1.5" stroke-linejoin="round"/>
</svg>
