<svg width="24" height="24" viewBox="0 0 24 24" fill="none" xmlns="http://www.w3.org/2000/svg">
<path opacity="0.4" fill-rule="evenodd" clip-rule="evenodd" d="M19.5 2.50012C20.6045 2.50012 21.4999 3.39566 21.5 4.50012V19.5001C21.5 20.6047 20.6046 21.5001 19.5 21.5001H4.5C3.39543 21.5001 2.5 20.6047 2.5 19.5001V4.50012C2.50013 3.39567 3.39551 2.50012 4.5 2.50012H19.5ZM7.5 9.50012C6.11929 9.50012 5 10.6194 5 12.0001C5 13.3808 6.11929 14.5001 7.5 14.5001C8.88071 14.5001 10 13.3808 10 12.0001C10 10.6194 8.88071 9.50012 7.5 9.50012ZM13.5 9.50012C12.6716 9.50012 12 10.6194 12 12.0001C12 13.3808 12.6716 14.5001 13.5 14.5001C14.3284 14.5001 15 13.3808 15 12.0001C15 10.6194 14.3284 9.50012 13.5 9.50012ZM18 9.50012C17.4477 9.50012 17 10.6194 17 12.0001C17 13.3808 17.4477 14.5001 18 14.5001C18.5523 14.5001 19 13.3808 19 12.0001C19 10.6194 18.5523 9.50012 18 9.50012Z" fill="#141B34"/>
<path d="M21.5 4.50037V19.5001C21.5 20.6047 20.6046 21.5001 19.5 21.5001H4.5C3.39543 21.5001 2.5 20.6047 2.5 19.5001V4.50037C2.5 3.3958 3.39543 2.50037 4.5 2.50037H19.5C20.6046 2.50037 21.5 3.3958 21.5 4.50037Z" stroke="#141B34" stroke-width="1.5" stroke-linecap="square" stroke-linejoin="round"/>
<circle cx="7.5" cy="12.0001" r="2.5" stroke="#141B34" stroke-width="1.5" stroke-linejoin="round"/>
<ellipse cx="13.5" cy="12.0001" rx="1.5" ry="2.5" stroke="#141B34" stroke-width="1.5" stroke-linejoin="round"/>
<ellipse cx="18" cy="12.0001" rx="1" ry="2.5" stroke="#141B34" stroke-width="1.5" stroke-linejoin="round"/>
</svg>
