<svg width="24" height="24" viewBox="0 0 24 24" fill="none" xmlns="http://www.w3.org/2000/svg">
<path opacity="0.4" d="M4.95785 8.54663L10.0428 5.54199L12.9053 10.5C11.6035 10.5972 9 11.8123 9 15.8957C8.74548 15.9646 8.48195 16 8.21611 16H6.5C5.29956 15.868 4.17499 15.1712 3.52508 14.0192C2.44415 12.103 3.08563 9.6529 4.95785 8.54663Z" fill="#141B34"/>
<path opacity="0.4" d="M17.9971 21.1952C20.8668 19.5383 21.8501 15.8688 20.1932 12.999L9.8009 18.999C11.4578 21.8688 15.1273 22.852 17.9971 21.1952Z" fill="#141B34"/>
<path d="M20.1932 12.999C21.8501 15.8688 20.8669 19.5383 17.9971 21.1952C15.1273 22.8521 11.4578 21.8688 9.80094 18.999M20.1932 12.999C18.5364 10.1293 14.8669 9.14604 11.9971 10.8029C9.12734 12.4598 8.14409 16.1293 9.80094 18.999M20.1932 12.999L9.80094 18.999" stroke="#141B34" stroke-width="1.5" stroke-linejoin="round"/>
<path d="M10.0428 5.54203L15.1278 2.5374C17 1.43112 19.394 2.08763 20.4749 4.00376C21.3433 5.54315 21.1 7.4272 20 8.6822M10.0428 5.54203L4.95785 8.54667C3.08563 9.65294 2.44415 12.1031 3.52508 14.0192C4.17499 15.1713 5.29956 15.868 6.5 16M10.0428 5.54203L11.5 8" stroke="#141B34" stroke-width="1.5" stroke-linecap="round" stroke-linejoin="round"/>
</svg>
