<svg width="24" height="24" viewBox="0 0 24 24" fill="none" xmlns="http://www.w3.org/2000/svg">
<path opacity="0.4" d="M9.81038 3.00025C11.2344 2.90562 12.7243 2.9054 14.1512 3.00025C16.2606 3.1405 18.1531 4.06973 19.5467 5.50025H15.0194V11.0003H21.9451C21.9924 11.7992 21.9917 12.6234 21.9403 13.4202C21.6659 17.6623 18.3341 21.0416 14.1512 21.3196C12.7243 21.4145 11.2344 21.4143 9.81038 21.3196C9.31994 21.287 8.78444 21.1703 8.32405 20.9807C7.81197 20.7698 7.55575 20.6639 7.42561 20.6799C7.29547 20.6961 7.10664 20.8353 6.72932 21.1135C6.06339 21.6046 5.22434 21.9572 3.9803 21.927C3.35128 21.9117 3.03623 21.9042 2.89534 21.6643C2.75451 21.4242 2.93029 21.0918 3.28108 20.427C3.7676 19.505 4.07528 18.4495 3.60823 17.6038C2.8038 16.3958 2.12026 14.9652 2.02034 13.4202C1.96669 12.59 1.96669 11.7299 2.02034 10.8997C2.29451 6.65735 5.62737 3.27831 9.81038 3.00025Z" fill="#141B34"/>
<path d="M12.02 3C11.2959 3.00043 10.5725 3.02415 9.86514 3.07106C5.6737 3.34912 2.335 6.72837 2.06028 10.9707C2.00652 11.8009 2.00652 12.6607 2.06028 13.4909C2.16034 15.036 2.84505 16.4666 3.65115 17.6746C4.11919 18.5203 3.81031 19.5758 3.32279 20.4978C2.97128 21.1626 2.79553 21.495 2.93665 21.7351C3.07776 21.9752 3.39298 21.9829 4.02342 21.9982C5.27017 22.0285 6.11087 21.6757 6.77821 21.1846C7.1567 20.9061 7.34594 20.7668 7.47637 20.7508C7.6068 20.7348 7.86348 20.8403 8.37676 21.0513C8.83808 21.2409 9.37372 21.3579 9.86514 21.3905C11.2922 21.4852 12.7852 21.4854 14.2151 21.3905C18.2373 21.1237 21.5224 18.001 22.02 14.0004" stroke="#141B34" stroke-width="1.5" stroke-linecap="round" stroke-linejoin="round"/>
<path d="M8.51996 15H15.52M8.51996 10L11.52 10" stroke="#141B34" stroke-width="1.5" stroke-linecap="round" stroke-linejoin="round"/>
<path d="M16.52 5.5H15.02V11H22.02V5.5H20.52M16.52 5.5V4C16.52 2.89543 17.4154 2 18.52 2C19.6245 2 20.52 2.89543 20.52 4V5.5M16.52 5.5H20.52" stroke="#141B34" stroke-width="1.5" stroke-linejoin="round"/>
</svg>
