<svg width="24" height="24" viewBox="0 0 24 24" fill="none" xmlns="http://www.w3.org/2000/svg">
<path opacity="0.4" d="M9.83025 3.0713C11.2543 2.97667 12.7441 2.97645 14.1711 3.0713C16.2453 3.20921 18.1096 4.1099 19.4963 5.50001H15.0002V11H21.9611C22.0128 11.8209 22.0131 12.67 21.9601 13.4902C21.6859 17.7325 18.354 21.1126 14.1711 21.3906C12.7441 21.4855 11.2543 21.4853 9.83025 21.3906C9.33981 21.358 8.80432 21.2404 8.34393 21.0508C7.83202 20.8399 7.57561 20.735 7.44549 20.751C7.31533 20.7672 7.12656 20.9063 6.7492 21.1846C6.08327 21.6756 5.24421 22.0283 4.00018 21.9981C3.37131 21.9828 3.05616 21.9751 2.91521 21.7354C2.7744 21.4953 2.95023 21.1627 3.30096 20.4981C3.78744 19.5761 4.09501 18.5205 3.6281 17.6748C2.82362 16.4668 2.14007 15.0353 2.04021 13.4902C1.9866 12.6603 1.98659 11.8007 2.04021 10.9707C2.31438 6.72839 5.64724 3.34936 9.83025 3.0713Z" fill="#141B34"/>
<path d="M12 2.99927C11.276 2.9997 10.5525 3.02341 9.84518 3.07033C5.65374 3.34839 2.31504 6.72764 2.04032 10.9699C1.98656 11.8001 1.98656 12.6599 2.04032 13.4901C2.14038 15.0352 2.82509 16.4658 3.63119 17.6738C4.09923 18.5195 3.79035 19.575 3.30283 20.497C2.95132 21.1618 2.77557 21.4942 2.91669 21.7343C3.0578 21.9744 3.37302 21.9821 4.00346 21.9974C5.25021 22.0277 6.09091 21.6749 6.75825 21.1838C7.13674 20.9053 7.32598 20.766 7.45641 20.75C7.58684 20.734 7.84352 20.8395 8.3568 21.0505C8.81812 21.2401 9.35376 21.3571 9.84518 21.3897C11.2722 21.4844 12.7652 21.4846 14.1951 21.3897C18.2174 21.123 21.5024 18.0003 22 13.9996" stroke="#141B34" stroke-width="1.5" stroke-linecap="round" stroke-linejoin="round"/>
<path d="M16.5 5.49976H15V10.9998H22V5.49976H20.5H16.5ZM16.5 5.49976V3.99976C16.5 2.89519 17.3954 1.99976 18.5 1.99976C19.2403 1.99976 19.8866 2.40195 20.2324 2.99976" stroke="#141B34" stroke-width="1.5" stroke-linecap="round" stroke-linejoin="round"/>
<path d="M11.9955 12.4998H12.0044M8 12.4998H8.00897" stroke="#141B34" stroke-width="2" stroke-linecap="round" stroke-linejoin="round"/>
</svg>
