<svg width="24" height="24" viewBox="0 0 24 24" fill="none" xmlns="http://www.w3.org/2000/svg">
<path opacity="0.4" fill-rule="evenodd" clip-rule="evenodd" d="M16 3.5C16.9452 3.5 17.7791 3.55632 18.501 3.6416V4C18.501 6.03964 20.2655 7.96875 22 7.96875V13.5C20.1009 13.5 18.2596 14.92 18.1016 16.708C17.4763 16.6474 16.7758 16.6094 16 16.6094C11.9861 16.6094 10.55 17.8983 6.00098 17.3721V16.9961C6.00098 14.7871 4.20989 12.9964 2.00098 12.9961L2 7.5C3.95133 7.5 5.70453 5.90481 5.92871 4.25391C10.5347 4.80221 11.965 3.5 16 3.5ZM12 8C10.6193 8 9.5 9.11929 9.5 10.5C9.5 11.8807 10.6193 13 12 13C13.3807 13 14.5 11.8807 14.5 10.5C14.5 9.11929 13.3807 8 12 8Z" fill="#141B34"/>
<path d="M14.4998 10.5C14.4998 11.8807 13.3805 13 11.9998 13C10.619 13 9.49976 11.8807 9.49976 10.5C9.49976 9.11929 10.619 8 11.9998 8C13.3805 8 14.4998 9.11929 14.4998 10.5Z" stroke="#141B34" stroke-width="1.5" stroke-linecap="round" stroke-linejoin="round"/>
<path d="M17.5 16.6584C18.7491 16.7421 19.7381 16.9209 20.4671 17.1012C21.1888 17.2796 22 16.7347 22 15.9913V5.11803C22 4.73926 21.7844 4.39596 21.4264 4.2723C20.572 3.9772 18.7632 3.5 16 3.5C11.2733 3.5 10.1213 5.28736 3.25078 3.79306C2.61507 3.6548 2 4.1302 2 4.78078V15.8286C2 16.2875 2.31284 16.689 2.75993 16.7923C4.23146 17.1323 5.45106 17.328 6.5 17.4237" stroke="#141B34" stroke-width="1.5" stroke-linecap="round" stroke-linejoin="round"/>
<path d="M2 7.5C3.95133 7.5 5.70483 5.90507 5.92901 4.25417M18.5005 4C18.5005 6.03964 20.2655 7.96899 22 7.96899M22 13.5C20.1009 13.5 18.2601 14.8102 18.102 16.5983M6.00049 16.9961C6.00049 14.787 4.20963 12.9961 2.00049 12.9961" stroke="#141B34" stroke-width="1.5" stroke-linecap="round" stroke-linejoin="round"/>
<path d="M12 16.5V20.5M15 16.5V18.5M9 16.5V18.5" stroke="#141B34" stroke-width="1.5" stroke-linecap="round" stroke-linejoin="round"/>
</svg>
