<svg width="24" height="24" viewBox="0 0 24 24" fill="none" xmlns="http://www.w3.org/2000/svg">
<path opacity="0.4" fill-rule="evenodd" clip-rule="evenodd" d="M16 6.5C16.9452 6.5 17.7791 6.55632 18.501 6.6416V7C18.501 9.03964 20.2655 10.9688 22 10.9688V16.5C20.1009 16.5 18.2596 17.92 18.1016 19.708C17.4763 19.6474 16.7758 19.6094 16 19.6094C11.9861 19.6094 10.55 20.8983 6.00098 20.3721V19.9961C6.00098 17.7871 4.20989 15.9964 2.00098 15.9961L2 10.5C3.95133 10.5 5.70453 8.90481 5.92871 7.25391C10.5347 7.80221 11.965 6.5 16 6.5ZM12 11C10.6193 11 9.5 12.1193 9.5 13.5C9.5 14.8807 10.6193 16 12 16C13.3807 16 14.5 14.8807 14.5 13.5C14.5 12.1193 13.3807 11 12 11Z" fill="#141B34"/>
<path d="M14.5 13.5C14.5 14.8807 13.3807 16 12 16C10.6193 16 9.5 14.8807 9.5 13.5C9.5 12.1193 10.6193 11 12 11C13.3807 11 14.5 12.1193 14.5 13.5Z" stroke="#141B34" stroke-width="1.5" stroke-linecap="round" stroke-linejoin="round"/>
<path d="M12 7.5V3.5M15 7.5V5.5M9 7.5V5.5" stroke="#141B34" stroke-width="1.5" stroke-linecap="round" stroke-linejoin="round"/>
<path d="M17.5 6.55078C19.4289 6.67999 20.7377 7.03618 21.4264 7.27405C21.7844 7.3977 22 7.741 22 8.11978V18.9931C22 19.7365 21.1888 20.2814 20.4671 20.1029C19.4672 19.8557 17.9782 19.6111 16 19.6111C11.1629 19.6111 10.0694 21.4829 2.75993 19.794C2.31284 19.6907 2 19.2892 2 18.8303V7.78252C2 7.13195 2.61507 6.65654 3.25078 6.7948C4.50578 7.06776 5.56997 7.23122 6.5 7.31607" stroke="#141B34" stroke-width="1.5" stroke-linecap="round" stroke-linejoin="round"/>
<path d="M2 10.502C3.95133 10.502 5.70483 8.90703 5.92901 7.25612M18.5005 7.00195C18.5005 9.04159 20.2655 10.9709 22 10.9709M22 16.502C20.1009 16.502 18.2601 17.8122 18.102 19.6002M6.00049 19.998C6.00049 17.7889 4.20963 15.998 2.00049 15.998" stroke="#141B34" stroke-width="1.5" stroke-linecap="round" stroke-linejoin="round"/>
</svg>
