<svg width="24" height="24" viewBox="0 0 24 24" fill="none" xmlns="http://www.w3.org/2000/svg">
<path opacity="0.4" d="M17.4971 9.5C17.4971 6.46243 15.0347 4 11.9971 4C9.12037 4 6.75946 6.20862 6.51755 9.0227C3.98111 9.26407 2.49713 10.9003 2.49713 13.5C2.49713 16.2614 5.23571 18 7.99713 18H16.4971C18.9824 18 21.4971 16.4853 21.4971 14C21.4971 11.5147 19.9824 10 17.4971 10L17.4747 10.0001C17.4895 9.83536 17.4971 9.66856 17.4971 9.5Z" fill="#141B34"/>
<path d="M14.151 21.9146C14.2953 21.9699 14.4507 22 14.6125 22C15.3772 22 15.9971 21.3284 15.9971 20.5C15.9971 19.6716 15.3772 19 14.6125 19C14.341 19 14.0878 19.0846 13.8741 19.2309C12.8129 20.0225 10.8471 21.0378 8.61248 21.301M5.84327 21.1936C5.22505 21.0635 4.6058 20.8541 3.99713 20.5478" stroke="#141B34" stroke-width="1.5" stroke-linecap="round" stroke-linejoin="round"/>
<path d="M18.9971 21C19.2552 21 19.9528 21 20.9971 21" stroke="#141B34" stroke-width="1.5" stroke-linecap="round" stroke-linejoin="round"/>
<path d="M9.49713 4C9.00096 3 8.13396 2.28978 7.15551 2C7.30671 3.27541 6.73458 4.58081 5.60588 5.26383C4.47717 5.94685 3.11251 5.81349 2.13429 5.03854C1.8845 6.07158 1.95749 7.00417 2.50602 8C2.86907 8.65907 4.00638 9.5 4.00638 9.5" stroke="#141B34" stroke-width="1.5" stroke-linecap="round" stroke-linejoin="round"/>
<path d="M17.2249 17.7749C18.6838 17.7749 20.2688 17.0644 21.1311 15.2446C21.9935 13.4249 21.1311 11.6765 20.3877 10.847C19.7832 10.1726 18.3475 9.42342 17.2249 9.49778M17.2249 9.49778C17.2045 10.0971 16.7089 11.4932 16.0384 12.2594M17.2249 9.49778C17.3611 7.71955 16.2948 4.64721 12.7943 4.06366C9.16121 3.45799 6.97219 6.45428 6.76161 8.56696M6.76161 8.56696C7.47166 8.51435 8.99384 8.69395 10.0953 9.49673M6.76161 8.56696C5.38673 8.728 2.61098 9.88194 2.507 13.2093C2.40302 16.5366 6.27184 17.8761 8.30165 17.9907C9.64817 18.1046 12.366 17.7366 13.5877 16.008C13.9055 15.5827 14.2093 14.2619 13.0367 13.4801C11.8866 12.7134 10.7401 13.5656 10.457 13.9264C10.3241 14.0957 10.0925 14.5791 10.0925 15.0072" stroke="#141B34" stroke-width="1.5" stroke-linecap="round" stroke-linejoin="round"/>
</svg>
