<svg width="24" height="24" viewBox="0 0 24 24" fill="none" xmlns="http://www.w3.org/2000/svg">
<path opacity="0.4" d="M16.9985 18.6892C17.7056 17.2125 18.6733 14.3226 17.3211 12.9618C15.1895 10.8167 12.2083 10.424 10.5 10.5V4.75C10.5 3.7835 9.71651 3 8.75001 3C7.78351 3 7.00001 3.7835 7.00001 4.75V15L4.78342 12.6713C4.05939 12.0311 2.9652 12.1372 2.36949 12.9053C1.87386 13.5444 1.8772 14.4534 2.3775 15.0886L7.00001 20.9973V22H16V21L16.9985 18.6892Z" fill="#141B34"/>
<path d="M15.9999 22V21L16.9984 18.6892C17.7055 17.2125 18.6731 14.3226 17.321 12.9618C15.1894 10.8167 12.2081 10.424 10.4999 10.5V4.75C10.4999 3.7835 9.71639 3 8.74989 3C7.78339 3 6.99989 3.7835 6.99989 4.75V15L4.7833 12.6713C4.05927 12.0311 2.96508 12.1372 2.36937 12.9053C1.87374 13.5444 1.87708 14.4534 2.37738 15.0886L6.99989 20.9973V22" stroke="#141B34" stroke-width="1.5" stroke-linecap="round" stroke-linejoin="round"/>
<path d="M14.9999 7L13.9999 6L14.9999 5M20.9999 7L21.9999 5.99276L21.0008 4.99009M16.9999 3L18.0007 2L19.0006 2.9967M17.0003 9L17.9999 10L18.9999 9M18.0011 2.554L18.0057 9.27418M21.3005 5.99356L18.0033 5.99276L14.7003 5.99356" stroke="#141B34" stroke-width="1.5" stroke-linecap="round" stroke-linejoin="round"/>
</svg>
