<svg width="24" height="24" viewBox="0 0 24 24" fill="none" xmlns="http://www.w3.org/2000/svg">
<path opacity="0.4" d="M19.5 2.5L7.5 2.5C6.39543 2.5 5.5 3.39543 5.5 4.5V19.5C5.5 20.6046 6.39543 21.5 7.5 21.5L19.5 21.5C20.6046 21.5 21.5 20.6046 21.5 19.5V4.5C21.5 3.39543 20.6046 2.5 19.5 2.5Z" fill="#141B34"/>
<path d="M19.5 2.5L7.49997 2.5C6.3954 2.5 5.49997 3.39543 5.49997 4.5V19.5C5.49997 20.6046 6.3954 21.5 7.49997 21.5L19.5 21.5C20.6045 21.5 21.5 20.6046 21.5 19.5V4.5C21.5 3.39543 20.6045 2.5 19.5 2.5Z" stroke="#141B34" stroke-width="1.5" stroke-linecap="round" stroke-linejoin="round"/>
<path d="M5.5 10.5L4 10.5C3.17157 10.5 2.5 9.82843 2.5 9C2.5 8.17157 3.17157 7.5 4 7.5L7.5 7.5" stroke="#141B34" stroke-width="1.5" stroke-linecap="round" stroke-linejoin="round"/>
<path d="M5.5 17.5L4 17.5C3.17157 17.5 2.5 16.8284 2.5 16C2.5 15.1716 3.17157 14.5 4 14.5L7.5 14.5" stroke="#141B34" stroke-width="1.5" stroke-linecap="round" stroke-linejoin="round"/>
<path d="M11 10.5H15M11 6.5H17.5" stroke="#141B34" stroke-width="1.5" stroke-linecap="round" stroke-linejoin="round"/>
</svg>
