<svg width="24" height="24" viewBox="0 0 24 24" fill="none" xmlns="http://www.w3.org/2000/svg">
<g opacity="0.4">
<path d="M3.69951 3H20.3005C21.063 3 21.5449 3.81911 21.1746 4.48564L18.9524 8.48564C18.7761 8.80311 18.4414 9 18.0783 9H5.92174C5.55857 9 5.22395 8.80311 5.04758 8.48564L2.82536 4.48564C2.45506 3.81911 2.93703 3 3.69951 3Z" fill="#141B34"/>
<path d="M11.1258 19.4265L8.93647 15.4856C8.56617 14.8191 9.04814 14 9.81063 14H14.1894C14.9519 14 15.4338 14.8191 15.0635 15.4856L12.8742 19.4265C12.4932 20.1123 11.5068 20.1123 11.1258 19.4265Z" fill="#141B34"/>
</g>
<path d="M20.3005 3C21.063 3 21.5449 3.81911 21.1746 4.48564L12.8742 19.4265C12.4932 20.1123 11.5068 20.1123 11.1258 19.4265L2.82536 4.48564C2.45506 3.81911 2.93703 3 3.69951 3H20.3005Z" stroke="#141B34" stroke-width="1.5" stroke-linejoin="round"/>
<path d="M19 9L5 9M16.1818 14L8 14" stroke="#141B34" stroke-width="1.5" stroke-linejoin="round"/>
</svg>
