<svg width="24" height="24" viewBox="0 0 24 24" fill="none" xmlns="http://www.w3.org/2000/svg">
<path opacity="0.4" fill-rule="evenodd" clip-rule="evenodd" d="M12 2C17.5228 2 22 6.47715 22 12C22 17.5228 17.5228 22 12 22C6.47715 22 2 17.5228 2 12C2 6.47715 6.47715 2 12 2ZM10.9082 8.66309C10.0742 8.21631 9 8.73933 9 9.5918V14.4082C9 15.2607 10.0742 15.7837 10.9082 15.3369L15.4043 12.9277C16.1984 12.5022 16.1984 11.4978 15.4043 11.0723L10.9082 8.66309Z" fill="#141B34"/>
<circle cx="12" cy="12" r="10" stroke="#141B34" stroke-width="1.5"/>
<path d="M9 14.4086V9.59138C9 8.73892 10.0738 8.21659 10.9079 8.66336L15.4043 11.072C16.1986 11.4975 16.1986 12.5025 15.4043 12.928L10.9079 15.3366C10.0738 15.7834 9 15.2611 9 14.4086Z" stroke="#141B34" stroke-width="1.5" stroke-linejoin="round"/>
</svg>
