<svg width="24" height="24" viewBox="0 0 24 24" fill="none" xmlns="http://www.w3.org/2000/svg">
<path opacity="0.4" d="M14 4.5C14 5.60457 13.1046 6.5 12 6.5C10.8954 6.5 10 5.60457 10 4.5C10 3.39543 10.8954 2.5 12 2.5C13.1046 2.5 14 3.39543 14 4.5Z" fill="#141B34"/>
<path opacity="0.4" d="M5.08887 16.0965L6.29062 20.0965C6.54147 20.9315 7.2849 21.5 8.12591 21.5H15.8741C16.7151 21.5 17.4585 20.9315 17.7094 20.0965L18.9111 16.0965C19.2981 14.8087 18.3731 13.5 17.0759 13.5H6.92415C5.62695 13.5 4.70194 14.8087 5.08887 16.0965Z" fill="#141B34"/>
<path d="M8 10.5C9.83846 7.90464 14.1188 7.76296 16 10.5M14 4.5C14 5.60457 13.1046 6.5 12 6.5C10.8954 6.5 10 5.60457 10 4.5C10 3.39543 10.8954 2.5 12 2.5C13.1046 2.5 14 3.39543 14 4.5Z" stroke="#141B34" stroke-width="1.5" stroke-linecap="round"/>
<path d="M3 21.5H21" stroke="#141B34" stroke-width="1.5" stroke-linecap="round" stroke-linejoin="round"/>
<path d="M10.9998 16.5H12.9998M6.29062 20.0965L5.08887 16.0965C4.70194 14.8087 5.62695 13.5 6.92415 13.5H17.0759C18.3731 13.5 19.2981 14.8087 18.9111 16.0965L17.7094 20.0965C17.4585 20.9315 16.7151 21.5 15.8741 21.5H8.12591C7.2849 21.5 6.54147 20.9315 6.29062 20.0965Z" stroke="#141B34" stroke-width="1.5" stroke-linecap="round" stroke-linejoin="round"/>
</svg>
