<svg width="24" height="24" viewBox="0 0 24 24" fill="none" xmlns="http://www.w3.org/2000/svg">
<path opacity="0.4" fill-rule="evenodd" clip-rule="evenodd" d="M12 2C17.5228 2 22 6.47715 22 12C22 17.5228 17.5228 22 12 22C6.47715 22 2 17.5228 2 12C2 6.47715 6.47715 2 12 2ZM7.5 8C6.94772 8 6.5 8.44772 6.5 9V11C6.5 11.5523 6.94772 12 7.5 12H10.5V9C10.5 8.44772 10.0523 8 9.5 8H7.5ZM14.5 8C13.9477 8 13.5 8.44772 13.5 9V11C13.5 11.5523 13.9477 12 14.5 12H17.5V9C17.5 8.44772 17.0523 8 16.5 8H14.5Z" fill="#141B34"/>
<circle cx="12" cy="12" r="10" stroke="#141B34" stroke-width="1.5"/>
<path d="M10.5 12V9C10.5 8.44772 10.0523 8 9.5 8H7.5C6.94772 8 6.5 8.44772 6.5 9V11C6.5 11.5523 6.94772 12 7.5 12H10.5ZM10.5 12V13C10.5 14.6569 9.15685 16 7.5 16M17.5 12V9C17.5 8.44772 17.0523 8 16.5 8H14.5C13.9477 8 13.5 8.44772 13.5 9V11C13.5 11.5523 13.9477 12 14.5 12H17.5ZM17.5 12V13C17.5 14.6569 16.1569 16 14.5 16" stroke="#141B34" stroke-width="1.5" stroke-linecap="round" stroke-linejoin="round"/>
</svg>
