<svg width="24" height="24" viewBox="0 0 24 24" fill="none" xmlns="http://www.w3.org/2000/svg">
<path opacity="0.4" d="M6 15.7031V19L9.49837 17.2508C9.80996 17.095 10.1802 17.1126 10.4756 17.2972L12.5 18.5625L14.4525 17.3422C14.7858 17.1339 15.2102 17.1401 15.5372 17.3581L18 19L18.0001 15.7031C18.0001 15.248 18.1602 14.8095 18.4268 14.4407C19.5851 12.8378 19.9999 11.4865 20.0001 10.3241C20.0009 6.02102 13.528 4.30591 12.0001 2C10.4722 4.30591 3.99917 6.02102 4 10.3241C4.00022 11.4865 4.41501 12.8378 5.57336 14.4407C5.83991 14.8095 6 15.248 6 15.7031Z" fill="#141B34"/>
<path d="M6 15.7031V21.9996H18.0001V15.7031C18.0001 15.248 18.1602 14.8095 18.4268 14.4407C19.5851 12.8378 19.9999 11.4865 20.0001 10.3241C20.0009 6.02102 13.528 4.30591 12.0001 2C10.4722 4.30591 3.99917 6.02102 4 10.3241C4.00022 11.4865 4.41501 12.8378 5.57336 14.4407C5.83991 14.8095 6 15.248 6 15.7031Z" stroke="#141B34" stroke-width="1.5" stroke-linecap="round" stroke-linejoin="round"/>
<path d="M14.9925 12.4316C14.4275 13.3692 13.3994 13.9964 12.225 13.9964C10.4417 13.9964 8.99609 12.5508 8.99609 10.7675C8.99609 9.59303 9.62322 8.565 10.5609 8" stroke="#141B34" stroke-width="1.5" stroke-linecap="round"/>
<path d="M14 8.99902H14.009" stroke="#141B34" stroke-width="2" stroke-linecap="round" stroke-linejoin="round"/>
<path d="M10.6025 18.864C10.2512 19.0835 10.1445 19.5462 10.364 19.8975C10.5835 20.2488 11.0462 20.3555 11.3975 20.136L11 19.5L10.6025 18.864ZM15.5372 17.3581L15.9532 16.7341L15.5372 17.3581ZM14.4525 17.3422L14.055 16.7062L14.4525 17.3422ZM18 19L18.416 18.376L15.9532 16.7341L15.5372 17.3581L15.1212 17.9822L17.584 19.624L18 19ZM9.49837 17.2508L9.16296 16.58L5.66459 18.3292L6 19L6.33541 19.6708L9.83378 17.9216L9.49837 17.2508ZM14.4525 17.3422L14.055 16.7062L12.1025 17.9265L12.5 18.5625L12.8975 19.1985L14.85 17.9782L14.4525 17.3422ZM12.5 18.5625L12.1025 17.9265L10.6025 18.864L11 19.5L11.3975 20.136L12.8975 19.1985L12.5 18.5625ZM12.5 18.5625L12.8975 17.9265L10.8731 16.6612L10.4756 17.2972L10.0781 17.9332L12.1025 19.1985L12.5 18.5625ZM9.49837 17.2508L9.83378 17.9216C9.91168 17.8827 10.0042 17.8871 10.0781 17.9332L10.4756 17.2972L10.8731 16.6612C10.3561 16.3381 9.70824 16.3074 9.16296 16.58L9.49837 17.2508ZM15.5372 17.3581L15.9532 16.7341C15.3809 16.3526 14.6383 16.3417 14.055 16.7062L14.4525 17.3422L14.85 17.9782C14.9333 17.9261 15.0394 17.9277 15.1212 17.9822L15.5372 17.3581Z" fill="#141B34"/>
</svg>
