<svg width="24" height="24" viewBox="0 0 24 24" fill="none" xmlns="http://www.w3.org/2000/svg">
<path opacity="0.4" d="M19.5 3.5H4.5C3.39543 3.5 2.5 4.39543 2.5 5.5V8.5H21.5V5.5C21.5 4.39543 20.6046 3.5 19.5 3.5Z" fill="#141B34"/>
<path d="M18 2V5M6 2V5" stroke="#141B34" stroke-width="1.5" stroke-linecap="round" stroke-linejoin="round"/>
<path d="M19.5 3.5H4.5C3.39543 3.5 2.5 4.39543 2.5 5.5V20C2.5 21.1046 3.39543 22 4.5 22H19.5C20.6046 22 21.5 21.1046 21.5 20V5.5C21.5 4.39543 20.6046 3.5 19.5 3.5Z" stroke="#141B34" stroke-width="1.5" stroke-linecap="round" stroke-linejoin="round"/>
<path d="M14.9925 16.4316C14.4275 17.3692 13.3994 17.9964 12.225 17.9964C10.4417 17.9964 8.99609 16.5508 8.99609 14.7675C8.99609 13.593 9.62322 12.565 10.5609 12" stroke="#141B34" stroke-width="1.5" stroke-linecap="round"/>
<path d="M14 12.999H14.009" stroke="#141B34" stroke-width="2" stroke-linecap="round" stroke-linejoin="round"/>
<path d="M2.5 8.5H21.5" stroke="#141B34" stroke-width="1.5" stroke-linecap="round" stroke-linejoin="round"/>
</svg>
