<svg width="24" height="24" viewBox="0 0 24 24" fill="none" xmlns="http://www.w3.org/2000/svg">
<path opacity="0.4" d="M17 22H5C3.89543 22 3 21.1046 3 20L3 4C3 2.89543 3.89543 2 5 2H12L11.998 7C11.998 8.10457 12.8935 9 13.998 9L19 9L19 20C19 21.1046 18.1046 22 17 22Z" fill="#141B34"/>
<path d="M19 22H5C3.89543 22 3 21.1046 3 20L3 4C3 2.89543 3.89543 2 5 2H12L19 9V11M18.5 9H13.998C12.8935 9 11.998 8.10457 11.998 7V2.5" stroke="#141B34" stroke-width="1.5" stroke-linecap="round" stroke-linejoin="round"/>
<path d="M7 16.5V14H8.75C9.44036 14 10 14.5596 10 15.25C10 15.9404 9.44036 16.5 8.75 16.5M7 16.5V19M7 16.5H8.75M8.75 16.5L10 19M18 16.5V14H19.75C20.4404 14 21 14.5596 21 15.25C21 15.9404 20.4404 16.5 19.75 16.5M18 16.5V19M18 16.5H19.75M19.75 16.5L21 19M12 19L13.75 14H14.25L16 19M13 17.5H15" stroke="#141B34" stroke-width="1.5" stroke-linecap="round" stroke-linejoin="round"/>
</svg>
