<svg width="24" height="24" viewBox="0 0 24 24" fill="none" xmlns="http://www.w3.org/2000/svg">
<path opacity="0.4" d="M16.881 5H9.19422C5.22096 5 2 8.13401 2 12C2 13.4872 2.47668 14.8662 3.2895 16C3.848 16.9858 5.85306 18.3096 6.90847 18.9219C6.97458 18.9602 7.00764 18.9794 7.04593 18.9897C7.08423 19 7.12375 19 7.20279 19H14.8058C18.779 19 22 15.866 22 12C22 10.5128 21.5233 9.13383 20.7105 8C19.7228 6.4681 17.9648 5.4251 17.1087 5.04654C17.0581 5.02415 17.0327 5.01295 17.0021 5.00648C16.9714 5 16.9413 5 16.881 5Z" fill="#141B34"/>
<path d="M8.5 21.5L5.5 19H15C18.5265 19 21.5148 16.3923 22 13" stroke="#141B34" stroke-width="1.5" stroke-linecap="round" stroke-linejoin="round"/>
<path d="M3.25469 16C2.46381 14.8662 2 13.4872 2 12C2 8.13401 5.13401 5 9 5H17L14 2.5" stroke="#141B34" stroke-width="1.5" stroke-linecap="round" stroke-linejoin="round"/>
<path d="M22 9V3L20.5 4" stroke="#141B34" stroke-width="1.5" stroke-linecap="round" stroke-linejoin="round"/>
</svg>
