<svg width="24" height="24" viewBox="0 0 24 24" fill="none" xmlns="http://www.w3.org/2000/svg">
<path opacity="0.4" d="M12.1006 6C12.035 6.32314 12 6.6575 12 7C12 9.76142 14.2386 12 17 12C19.5541 12 21.6589 10.0848 21.9609 7.6123C21.9856 7.73782 22 7.86726 22 8V20C22 21.1046 21.1046 22 20 22H13C13 15.8127 7.96543 11 3 11V8C3 6.89543 3.89543 6 5 6H12.1006Z" fill="#141B34"/>
<path d="M13.5 22H20C21.1046 22 22 21.1046 22 20V14M3 11V8C3 6.89543 3.89543 6 5 6H9" stroke="#141B34" stroke-width="1.5" stroke-linecap="round" stroke-linejoin="round"/>
<path d="M3 21H3.00898" stroke="#141B34" stroke-width="2" stroke-linecap="round" stroke-linejoin="round"/>
<path d="M2 17.2349C4.49328 17.2349 6.77053 19.5 6.77053 21.9996M10 21.9996C10 17.5 5.99511 14 2.04522 14" stroke="#141B34" stroke-width="1.5" stroke-linecap="round" stroke-linejoin="round"/>
<path d="M15.5303 6.46967C15.2374 6.17678 14.7626 6.17678 14.4697 6.46967C14.1768 6.76256 14.1768 7.23744 14.4697 7.53033L15 7L15.5303 6.46967ZM16.5 8.5L15.9697 9.03033C16.1187 9.17933 16.3235 9.25878 16.534 9.24923C16.7445 9.23968 16.9413 9.14202 17.0762 8.98014L16.5 8.5ZM19.5762 5.98014C19.8413 5.66193 19.7983 5.18901 19.4801 4.92383C19.1619 4.65866 18.689 4.70165 18.4238 5.01986L19 5.5L19.5762 5.98014ZM22 7H22.75C22.75 3.82436 20.1756 1.25 17 1.25V2V2.75C19.3472 2.75 21.25 4.65279 21.25 7H22ZM17 2V1.25C13.8244 1.25 11.25 3.82436 11.25 7H12H12.75C12.75 4.65279 14.6528 2.75 17 2.75V2ZM12 7H11.25C11.25 10.1756 13.8244 12.75 17 12.75V12V11.25C14.6528 11.25 12.75 9.34721 12.75 7H12ZM17 12V12.75C20.1756 12.75 22.75 10.1756 22.75 7H22H21.25C21.25 9.34721 19.3472 11.25 17 11.25V12ZM15 7L14.4697 7.53033L15.9697 9.03033L16.5 8.5L17.0303 7.96967L15.5303 6.46967L15 7ZM16.5 8.5L17.0762 8.98014L19.5762 5.98014L19 5.5L18.4238 5.01986L15.9238 8.01986L16.5 8.5Z" fill="#141B34"/>
</svg>
