<svg width="24" height="24" viewBox="0 0 24 24" fill="none" xmlns="http://www.w3.org/2000/svg">
<path opacity="0.4" d="M22 18.5V6.5C22 5.39543 21.1046 4.5 20 4.5H5C3.89543 4.5 3 5.39543 3 6.5V9.5C7.96543 9.5 13 14.3127 13 20.5H20C21.1046 20.5 22 19.6046 22 18.5Z" fill="#141B34"/>
<path d="M2 15.7349C4.49328 15.7349 6.77053 18 6.77053 20.4996M10 20.4996C10 16 5.99511 12.5 2.04522 12.5" stroke="#141B34" stroke-width="1.5" stroke-linecap="round"/>
<path d="M3 19.5H3.00898" stroke="#141B34" stroke-width="2" stroke-linecap="round" stroke-linejoin="round"/>
<path d="M13.5 7L16 9.5L21 3.5" stroke="#141B34" stroke-width="1.5" stroke-linecap="round" stroke-linejoin="round"/>
<path d="M13.5 20.5H20C21.1046 20.5 22 19.6046 22 18.5V8.5M3 9.5V6.5C3 5.39543 3.89543 4.5 5 4.5H11" stroke="#141B34" stroke-width="1.5" stroke-linecap="round" stroke-linejoin="round"/>
</svg>
