<svg width="24" height="24" viewBox="0 0 24 24" fill="none" xmlns="http://www.w3.org/2000/svg">
<path opacity="0.4" d="M21 5C18.8786 3.17002 15.6351 2 12 2C8.36494 2 5.12137 3.17002 3 5V11C3 19 12 22 12 22C12 22 21 19 21 11L21 5Z" fill="#141B34"/>
<path d="M10 10V8.5C10 7.39543 10.8954 6.5 12 6.5C13.1046 6.5 14 7.39543 14 8.5V10" stroke="#141B34" stroke-width="1.5" stroke-linecap="round" stroke-linejoin="round"/>
<path d="M14.5 10H9.5C8.94772 10 8.5 10.4477 8.5 11V13.5C8.5 14.0523 8.94772 14.5 9.5 14.5H14.5C15.0523 14.5 15.5 14.0523 15.5 13.5V11C15.5 10.4477 15.0523 10 14.5 10Z" stroke="#141B34" stroke-width="1.5" stroke-linecap="round" stroke-linejoin="round"/>
<path d="M21 5C18.8786 3.17002 15.6351 2 12 2C8.36494 2 5.12137 3.17002 3 5V11C3 19 12 22 12 22C12 22 21 19 21 11L21 5Z" stroke="#141B34" stroke-width="1.5" stroke-linecap="round" stroke-linejoin="round"/>
</svg>
