<svg width="24" height="24" viewBox="0 0 24 24" fill="none" xmlns="http://www.w3.org/2000/svg">
<path opacity="0.4" d="M13.2785 2C13.7088 2.00014 14.0916 2.27543 14.2277 2.68359L15.0002 5L16.5598 5.98633L19.1115 5.35547C19.5391 5.24982 19.9859 5.43597 20.2111 5.81445L21.6018 8.15332C21.8357 8.54705 21.7719 9.04984 21.4475 9.37305L19.6418 11.1709L19.6408 12.752C18.8745 12.2743 17.9697 11.9981 17.0002 11.998C16.4744 11.998 15.9674 12.079 15.4914 12.2295C15.4963 12.1536 15.5002 12.0771 15.5002 12C15.5002 10.0673 13.9328 8.50044 12.0002 8.5C10.0672 8.5 8.5002 10.067 8.5002 12C8.5002 13.933 10.0672 15.5 12.0002 15.5C12.0777 15.5 12.1544 15.4952 12.2307 15.4902C12.0804 15.966 12.0002 16.4726 12.0002 16.998C12.0002 18.7991 12.9525 20.3776 14.3811 21.2578L14.3762 21.2783C14.2523 21.7056 13.8611 21.9997 13.4162 22H10.5842C10.1391 22 9.74711 21.7058 9.62325 21.2783L8.91817 18.8418L7.44063 18.0137L4.88887 18.6445C4.46112 18.7504 4.01355 18.5642 3.78828 18.1855L2.42403 15.8896C2.1785 15.4762 2.26239 14.9468 2.62325 14.6289L4.41231 13.0527V10.9473L2.62227 9.37109C2.26146 9.05318 2.17838 8.52379 2.42403 8.11035L3.78828 5.81445C4.01361 5.43598 4.46026 5.24966 4.88789 5.35547L7.43965 5.98633L9.0002 5L9.77168 2.68359C9.90786 2.27538 10.2906 2 10.7209 2H13.2785Z" fill="#141B34"/>
<path d="M10.5 22C10.1049 22 9.75733 21.7388 9.64743 21.3593L8.91858 18.8421L7.44089 18.0134L4.88868 18.6449C4.46082 18.7508 4.01409 18.564 3.78888 18.1851L2.42463 15.8899C2.17882 15.4764 2.26231 14.9464 2.62337 14.6285L4.41294 13.0526V10.9474L2.62281 9.37147C2.26167 9.05356 2.17813 8.52353 2.42396 8.10993L3.78816 5.81484C4.01337 5.43595 4.46009 5.2492 4.88796 5.35506L7.44016 5.98656L9 5L9.77208 2.68377C9.90819 2.27543 10.2903 2 10.7208 2H13.2792C13.7097 2 14.0918 2.27543 14.2279 2.68377L15 5L16.5598 5.98656L19.112 5.35506C19.5399 5.2492 19.9866 5.43595 20.2118 5.81484L21.6019 8.15339C21.836 8.54721 21.7725 9.04974 21.4478 9.37298L20.8208 9.99726M14.5 9.55051C13.8647 8.90223 12.9793 8.5 12 8.5C10.067 8.5 8.5 10.067 8.5 12C8.5 12.9793 8.90223 13.8647 9.55051 14.5" stroke="#141B34" stroke-width="1.5" stroke-linecap="round" stroke-linejoin="round"/>
<path d="M17 14.998V16.998M17.009 18.998H17M22 16.998C22 19.7594 19.7614 21.998 17 21.998C14.2386 21.998 12 19.7594 12 16.998C12 14.2366 14.2386 11.998 17 11.998C19.7614 11.998 22 14.2366 22 16.998Z" stroke="#141B34" stroke-width="1.5" stroke-linecap="round"/>
</svg>
