<svg width="24" height="24" viewBox="0 0 24 24" fill="none" xmlns="http://www.w3.org/2000/svg">
<path opacity="0.4" d="M11.3591 2.53316C11.73 2.22483 12.2689 2.22442 12.6394 2.53316L14.7214 4.26851C14.901 4.41808 15.1274 4.50083 15.3611 4.50093H18.4998C19.0517 4.50135 19.4997 4.94895 19.4998 5.50093V8.63863C19.4998 8.87212 19.581 9.09871 19.7302 9.27827L21.4627 11.3613C21.7707 11.7318 21.7706 12.2691 21.4627 12.6396L20.6648 13.5976C19.7517 12.6139 18.4478 11.9981 16.9998 11.998C16.474 11.998 15.967 12.079 15.491 12.2294C15.4959 12.1536 15.4998 12.077 15.4998 12C15.4995 10.0674 13.9323 8.50033 11.9998 8.49995C10.0669 8.49995 8.50003 10.0672 8.49977 12C8.49977 13.933 10.0668 15.5 11.9998 15.5C12.0772 15.4999 12.154 15.4961 12.2302 15.4912C12.0801 15.9666 11.9998 16.4729 11.9998 16.998C11.9998 18.4471 12.6164 19.7518 13.6013 20.665L12.6394 21.4677C12.2689 21.7765 11.73 21.7761 11.3591 21.4677L9.27321 19.7314C9.09375 19.5821 8.86698 19.5011 8.63356 19.5009H5.49488C4.94282 19.5008 4.49511 19.053 4.49488 18.5009V15.3623C4.49486 15.1287 4.41274 14.9022 4.26344 14.7226L2.53199 12.6396C2.22371 12.269 2.22371 11.7319 2.53199 11.3613L4.26344 9.27827C4.4127 9.09871 4.49488 8.87213 4.49488 8.63863V5.50093C4.49494 4.94875 4.94272 4.50103 5.49488 4.50093H8.63356C8.86701 4.50079 9.09374 4.4188 9.27321 4.26948L11.3591 2.53316Z" fill="#141B34"/>
<path d="M10 20.5L9.29289 19.7929C9.10536 19.6054 8.851 19.5 8.58579 19.5H5.5C4.94772 19.5 4.5 19.0523 4.5 18.5V15.362C4.5 15.1281 4.41798 14.9016 4.26822 14.7219L2.53349 12.6402C2.22445 12.2693 2.22445 11.7307 2.53349 11.3598L4.26822 9.27813C4.41798 9.09842 4.5 8.87189 4.5 8.63795V5.5C4.5 4.94772 4.94772 4.5 5.5 4.5H8.63795C8.87189 4.5 9.09842 4.41798 9.27813 4.26822L11.3598 2.53349C11.7307 2.22445 12.2693 2.22445 12.6402 2.53349L14.7219 4.26822C14.9016 4.41798 15.1281 4.5 15.362 4.5H18.5C19.0523 4.5 19.5 4.94772 19.5 5.5V8.58579C19.5 8.851 19.6054 9.10536 19.7929 9.29289L20.5 10" stroke="#141B34" stroke-width="1.5" stroke-linecap="round" stroke-linejoin="round"/>
<path d="M14.384 9.43749C13.7591 8.85581 12.9211 8.5 12 8.5C10.067 8.5 8.5 10.067 8.5 12C8.5 12.9211 8.85581 13.7591 9.43749 14.384" stroke="#141B34" stroke-width="1.5" stroke-linecap="round"/>
<path d="M15.5303 16.4697C15.2374 16.1768 14.7626 16.1768 14.4697 16.4697C14.1768 16.7626 14.1768 17.2374 14.4697 17.5303L15 17L15.5303 16.4697ZM16.5 18.5L15.9697 19.0303C16.1187 19.1793 16.3235 19.2588 16.534 19.2492C16.7445 19.2397 16.9413 19.142 17.0762 18.9801L16.5 18.5ZM19.5762 15.9801C19.8413 15.6619 19.7983 15.189 19.4801 14.9238C19.1619 14.6587 18.689 14.7017 18.4238 15.0199L19 15.5L19.5762 15.9801ZM22 17H22.75C22.75 13.8244 20.1756 11.25 17 11.25V12V12.75C19.3472 12.75 21.25 14.6528 21.25 17H22ZM17 12V11.25C13.8244 11.25 11.25 13.8244 11.25 17H12H12.75C12.75 14.6528 14.6528 12.75 17 12.75V12ZM12 17H11.25C11.25 20.1756 13.8244 22.75 17 22.75V22V21.25C14.6528 21.25 12.75 19.3472 12.75 17H12ZM17 22V22.75C20.1756 22.75 22.75 20.1756 22.75 17H22H21.25C21.25 19.3472 19.3472 21.25 17 21.25V22ZM15 17L14.4697 17.5303L15.9697 19.0303L16.5 18.5L17.0303 17.9697L15.5303 16.4697L15 17ZM16.5 18.5L17.0762 18.9801L19.5762 15.9801L19 15.5L18.4238 15.0199L15.9238 18.0199L16.5 18.5Z" fill="#141B34"/>
</svg>
