<svg width="24" height="24" viewBox="0 0 24 24" fill="none" xmlns="http://www.w3.org/2000/svg">
<path opacity="0.4" fill-rule="evenodd" clip-rule="evenodd" d="M12.0262 2.00091C15.4081 1.93383 17.0632 4.97625 20.5301 4.9765C22.3888 14.3835 18.5222 20.2927 12.0546 21.9999C6.05929 20.5829 1.55463 14.6132 3.43054 4.9345C6.56911 5.16032 8.5929 2.00106 12.0262 2.00091ZM7.99987 9.24993V13.7499L11.9999 15.9999L15.9999 13.7499V9.24993L11.9999 6.99993L7.99987 9.24993Z" fill="#141B34"/>
<path d="M11.9999 6.99994L15.9999 9.24994V13.7499L11.9999 15.9999L7.99994 13.7499V9.24994L11.9999 6.99994Z" stroke="#141B34" stroke-width="1.5" stroke-linejoin="round"/>
<path d="M15.9999 9.24994L11.9999 11.4999M7.99994 9.24994L11.9999 11.4999M11.9999 11.4999V15.9999" stroke="#141B34" stroke-width="1.5" stroke-linejoin="round"/>
<path d="M3.43061 4.93443C6.56926 5.16025 8.59306 2.00103 12.0265 2.00103C15.4085 1.93395 17.0634 4.97662 20.5306 4.97662C22.3893 14.3836 18.5225 20.2927 12.0548 21.9999C6.05944 20.583 1.55464 14.6133 3.43061 4.93443Z" stroke="#141B34" stroke-width="1.5" stroke-linejoin="round"/>
</svg>
