<svg width="24" height="24" viewBox="0 0 24 24" fill="none" xmlns="http://www.w3.org/2000/svg">
<path opacity="0.4" d="M20.5004 17.4953C20.2035 9.70546 18.7966 5.34068 18.0402 3.52071C17.7706 2.87198 17.1265 2.5 16.424 2.5L6.57688 2.50002C5.87435 2.50002 5.2302 2.872 4.96059 3.52073C4.20422 5.3407 2.79735 9.70548 2.50042 17.4953C2.43731 19.1509 3.78765 20.5 5.4445 20.5L17.5563 20.5C19.2132 20.5 20.5635 19.1509 20.5004 17.4953Z" fill="#141B34"/>
<path d="M12.5598 20.5L5.44797 20.5C3.79112 20.5 2.44078 19.1509 2.5039 17.4953C2.80083 9.70548 4.2077 5.3407 4.96407 3.52073C5.23368 2.872 5.87783 2.50002 6.58035 2.50002L16.4274 2.5C17.13 2.5 17.7741 2.87198 18.0437 3.52071C18.6193 4.90566 19.5716 7.76425 20.1248 12.4844" stroke="#141B34" stroke-width="1.5" stroke-linecap="round" stroke-linejoin="round"/>
<path d="M8.50568 6.48438C8.50568 8.14123 9.84882 9.48438 11.5057 9.48438C13.1625 9.48438 14.5057 8.14123 14.5057 6.48438" stroke="#141B34" stroke-width="1.5" stroke-linecap="round" stroke-linejoin="round"/>
<path d="M15.5018 18.5H21.5018M18.5018 21.5V15.5" stroke="#141B34" stroke-width="1.5" stroke-linecap="round" stroke-linejoin="round"/>
</svg>
