<svg width="24" height="24" viewBox="0 0 24 24" fill="none" xmlns="http://www.w3.org/2000/svg">
<g opacity="0.4">
<path d="M11 9.5873L13.923 6.85186C14.4688 6.36061 15.2901 6.33676 15.8635 6.7955L17.3693 8.00016L12.8693 12.5002L11.4761 11.5713C10.8022 11.1221 10.628 10.247 11 9.5873Z" fill="#141B34"/>
<path d="M20.367 4.5C20.367 5.3284 19.6958 6 18.8678 6C18.0399 6 17.3687 5.3284 17.3687 4.5C17.3687 3.67157 18.0399 3 18.8678 3C19.6958 3 20.367 3.67157 20.367 4.5Z" fill="#141B34"/>
</g>
<path d="M20.2483 4.5C20.2483 5.3284 19.5771 6 18.7492 6C17.9212 6 17.25 5.3284 17.25 4.5C17.25 3.67157 17.9212 3 18.7492 3C19.5771 3 20.2483 3.67157 20.2483 4.5Z" stroke="#141B34" stroke-width="1.5"/>
<path d="M12.7287 7.81915L13.8037 6.85169C14.3495 6.36044 15.1707 6.33659 15.7442 6.79533L17.25 8M12.7287 7.81915L15.55 9.7L17.25 8M12.7287 7.81915L6.25 3.5M12.75 12.5L11.3568 11.5712C10.6829 11.1219 10.5087 10.2468 10.8807 9.58714M12.75 12.5L15.1108 14.1863C15.6691 14.5851 15.6691 15.4149 15.1108 15.8137L12.75 17.5M12.75 12.5L13.75 11.5M17.25 8L17.75 11.1667L21.25 13.5" stroke="#141B34" stroke-width="1.5" stroke-linecap="round" stroke-linejoin="round"/>
<path d="M3.25 12L17.25 21L19.75 20.5" stroke="#141B34" stroke-width="1.5" stroke-linecap="round" stroke-linejoin="round"/>
</svg>
