<svg width="24" height="24" viewBox="0 0 24 24" fill="none" xmlns="http://www.w3.org/2000/svg">
<g opacity="0.4">
<path d="M21.0589 4.71675L18.0003 4L14.9997 8L13.9997 7L12.4997 9.5L14.9997 18L13.4997 20H17.3604C18.3145 20 19.1357 19.3262 19.322 18.3905L21.8115 5.88563C21.9167 5.35682 21.5838 4.83977 21.0589 4.71675Z" fill="#141B34"/>
<path d="M2.18904 5.88563L4.67855 18.3905C4.86482 19.3262 5.68603 20 6.64006 20H10.25L8.99969 18L11.4997 9.5L10.25 7L8.99969 8L6.00025 4L2.94163 4.71676C2.41667 4.83978 2.08376 5.35683 2.18904 5.88563Z" fill="#141B34"/>
</g>
<path d="M17.9997 4L21.0583 4.71675C21.5833 4.83977 21.9162 5.35682 21.8109 5.88563L19.3214 18.3905C19.1351 19.3262 18.3139 20 17.3599 20H16.9997M5.9997 4L2.94108 4.71676C2.41612 4.83978 2.08321 5.35683 2.18849 5.88563L4.678 18.3905C4.86427 19.3262 5.68548 20 6.63951 20H6.9997" stroke="#141B34" stroke-width="1.5" stroke-linecap="round"/>
<path d="M9.99971 7L11.5708 9.5L8.99969 18L11.999 22L14.999 18L12.4277 9.5L13.9997 7" stroke="#141B34" stroke-width="1.5" stroke-linecap="round" stroke-linejoin="round"/>
<path d="M11.9997 5L7.99969 2L5.99969 4L8.99969 8L11.9997 5ZM11.9997 5L15.9997 2L17.9997 4L14.9997 8L11.9997 5Z" stroke="#141B34" stroke-width="1.5" stroke-linejoin="round"/>
</svg>
