<svg width="24" height="24" viewBox="0 0 24 24" fill="none" xmlns="http://www.w3.org/2000/svg">
<path opacity="0.4" d="M3.99988 4V12.9978L19.9999 12.9978V8.9978L14.9999 8.9978C13.8953 8.9978 12.9999 8.10237 12.9999 6.9978L12.9957 2.00778L6.0021 2C4.89667 1.99877 3.99988 2.89456 3.99988 4Z" fill="#141B34"/>
<path d="M3.99988 12.9978L4.01982 3.99557C4.02226 2.89186 4.91833 1.99877 6.02204 2L12.9957 2.00776L19.9999 8.99481L19.9921 12.9978M12.9999 2.49778V6.99778C12.9999 8.10235 13.8953 8.99778 14.9999 8.99778H19.4999" stroke="#141B34" stroke-width="1.5" stroke-linecap="round" stroke-linejoin="round"/>
<path d="M7.00008 16H3.99988V19H7.00008V22H3.99988" stroke="#141B34" stroke-width="1.5" stroke-linecap="round" stroke-linejoin="round"/>
<path d="M19.9999 17V16H16.4999V22H19.9999V19.5H18.9999" stroke="#141B34" stroke-width="1.5" stroke-linecap="round" stroke-linejoin="round"/>
<path d="M14.0001 16L11.75 22L9.49988 16" stroke="#141B34" stroke-width="1.5" stroke-linecap="round" stroke-linejoin="round"/>
</svg>
