<svg width="24" height="24" viewBox="0 0 24 24" fill="none" xmlns="http://www.w3.org/2000/svg">
<path opacity="0.4" d="M22 5V19C22 20.1046 21.1046 21 20 21H6.5V3H20C21.1046 3 22 3.89543 22 5Z" fill="#141B34"/>
<path d="M22 6V5C22 3.89543 21.1046 3 20 3H4C2.89543 3 2 3.89543 2 5V19C2 20.1046 2.89543 21 4 21H20C21.1046 21 22 20.1046 22 19V18" stroke="#141B34" stroke-width="1.5" stroke-linecap="round" stroke-linejoin="round"/>
<path d="M6.5 3V21" stroke="#141B34" stroke-width="1.5" stroke-linejoin="round"/>
<path d="M10 11.2525C9.58579 11.2525 9.25 11.5883 9.25 12.0025C9.25 12.4167 9.58579 12.7525 10 12.7525V12.0025V11.2525ZM19 12.7525C19.4142 12.7525 19.75 12.4167 19.75 12.0025C19.75 11.5883 19.4142 11.2525 19 11.2525V12.0025V12.7525ZM17.7115 12.2372C17.8425 11.8443 17.6302 11.4195 17.2372 11.2885C16.8443 11.1575 16.4195 11.3698 16.2885 11.7628L17 12L17.7115 12.2372ZM12.5 8.25C12.0858 8.25 11.75 8.58579 11.75 9C11.75 9.41421 12.0858 9.75 12.5 9.75V9V8.25ZM14 14.25C13.5858 14.25 13.25 14.5858 13.25 15C13.25 15.4142 13.5858 15.75 14 15.75V15V14.25ZM14.2278 9.68401L13.5162 9.921L14.2278 9.68401ZM10 12.0025V12.7525H15V12.0025V11.2525H10V12.0025ZM15 12.0025V12.7525H16.9992V12.0025V11.2525H15V12.0025ZM16.9992 12.0025V12.7525H19V12.0025V11.2525H16.9992V12.0025ZM14.2278 9.68401L13.5162 9.921L14.2884 12.2395L15 12.0025L15.7116 11.7655L14.9394 9.44702L14.2278 9.68401ZM16.2279 14.3162L16.9394 14.5534L17.7107 12.2397L16.9992 12.0025L16.2877 11.7653L15.5164 14.0791L16.2279 14.3162ZM16.9992 12.0025L17.7107 12.2397L17.7115 12.2372L17 12L16.2885 11.7628L16.2877 11.7653L16.9992 12.0025ZM13.2791 9V8.25H12.5V9V9.75H13.2791V9ZM15.2792 15V14.25H14V15V15.75H15.2792V15ZM22 12H21.25C21.25 12.4142 20.9142 12.75 20.5 12.75V13.5V14.25C21.7426 14.25 22.75 13.2426 22.75 12H22ZM20.5 13.5V12.75C20.0858 12.75 19.75 12.4142 19.75 12H19H18.25C18.25 13.2426 19.2574 14.25 20.5 14.25V13.5ZM19 12H19.75C19.75 11.5858 20.0858 11.25 20.5 11.25V10.5V9.75C19.2574 9.75 18.25 10.7574 18.25 12H19ZM20.5 10.5V11.25C20.9142 11.25 21.25 11.5858 21.25 12H22H22.75C22.75 10.7574 21.7426 9.75 20.5 9.75V10.5ZM16.2279 14.3162L15.5164 14.0791C15.4824 14.1811 15.3868 14.25 15.2792 14.25V15V15.75C16.0325 15.75 16.7012 15.268 16.9394 14.5534L16.2279 14.3162ZM14.2278 9.68401L14.9394 9.44702C14.7013 8.73221 14.0325 8.25 13.2791 8.25V9V9.75C13.3867 9.75 13.4822 9.81889 13.5162 9.921L14.2278 9.68401Z" fill="#141B34"/>
</svg>
