<svg width="24" height="24" viewBox="0 0 24 24" fill="none" xmlns="http://www.w3.org/2000/svg">
<path opacity="0.4" fill-rule="evenodd" clip-rule="evenodd" d="M21.5859 11.5861C21.5859 12.1164 21.375 12.6251 21 13.0001L13 21.0001C12.2191 21.7811 10.9529 21.7809 10.1719 21.0001L3 13.8282C2.21895 13.0472 2.21895 11.7812 3 11.0001L11 3.00012C11.3751 2.62505 11.8836 2.41418 12.4141 2.41418H21.5859V11.5861ZM16.584 5.91418C15.7556 5.91418 15.084 6.58575 15.084 7.41418C15.084 8.24261 15.7556 8.91418 16.584 8.91418C17.4124 8.91418 18.084 8.24261 18.084 7.41418C18.084 6.58575 17.4124 5.91418 16.584 5.91418Z" fill="#141B34"/>
<path d="M18.084 7.41418C18.084 6.58575 17.4124 5.91418 16.584 5.91418C15.7556 5.91418 15.084 6.58575 15.084 7.41418C15.084 8.24261 15.7556 8.91418 16.584 8.91418C17.4124 8.91418 18.084 8.24261 18.084 7.41418Z" stroke="#141B34" stroke-width="1.5" stroke-linejoin="round"/>
<path d="M7.56531 13.4376L10.5653 16.4376" stroke="#141B34" stroke-width="1.5" stroke-linecap="round" stroke-linejoin="round"/>
<path d="M10.1717 21L3.00015 13.8284C2.21911 13.0473 2.2191 11.781 3.00015 11L11.0002 2.99997C11.3752 2.6249 11.8839 2.41418 12.4144 2.41418H21.5859V11.5858C21.5859 12.1162 21.3752 12.6249 21.0002 13L13.0002 21C12.2191 21.781 10.9528 21.781 10.1717 21Z" stroke="#141B34" stroke-width="1.5" stroke-linejoin="round"/>
</svg>
