<svg width="24" height="24" viewBox="0 0 24 24" fill="none" xmlns="http://www.w3.org/2000/svg">
<path opacity="0.4" d="M19 20V4C19 2.89543 18.1046 2 17 2H14.5V3.5C14.5 4.32843 13.8284 5 13 5H9C8.17157 5 7.5 4.32843 7.5 3.5V2H5C3.89543 2 3 2.89543 3 4V20C3 21.1046 3.89543 22 5 22L17 22C18.1046 22 19 21.1046 19 20Z" fill="#141B34"/>
<path d="M19 15V4C19 2.89543 18.1046 2 17 2H5C3.89543 2 3 2.89543 3 4V20C3 21.1046 3.89543 22 5 22L13 22" stroke="#141B34" stroke-width="1.5" stroke-linecap="round" stroke-linejoin="round"/>
<path d="M14.5 2H7.5V3.5C7.5 4.32843 8.17157 5 9 5H13C13.8284 5 14.5 4.32843 14.5 3.5V2Z" stroke="#141B34" stroke-width="1.5" stroke-linecap="round" stroke-linejoin="round"/>
<path d="M7 15H11M7 11H15" stroke="#141B34" stroke-width="1.5" stroke-linecap="round" stroke-linejoin="round"/>
<path d="M21 17L18.5 19.5M18.5 19.5L16 22M18.5 19.5L21 22M18.5 19.5L16 17" stroke="#141B34" stroke-width="1.5" stroke-linecap="round" stroke-linejoin="round"/>
</svg>
