<svg width="24" height="24" viewBox="0 0 24 24" fill="none" xmlns="http://www.w3.org/2000/svg">
<path opacity="0.4" d="M19 8H15C13.8954 8 13 8.89543 13 10V14C13 15.1046 13.8954 16 15 16H19C20.1046 16 21 15.1046 21 14V10C21 8.89543 20.1046 8 19 8Z" fill="#141B34"/>
<path d="M3 9H9" stroke="#141B34" stroke-width="1.5" stroke-linecap="round" stroke-linejoin="round"/>
<path d="M3 15H9" stroke="#141B34" stroke-width="1.5" stroke-linecap="round" stroke-linejoin="round"/>
<path d="M3 3H21" stroke="#141B34" stroke-width="1.5" stroke-linecap="round" stroke-linejoin="round"/>
<path d="M3 21H21" stroke="#141B34" stroke-width="1.5" stroke-linecap="round" stroke-linejoin="round"/>
<path d="M19 8H15C13.8954 8 13 8.89543 13 10V14C13 15.1046 13.8954 16 15 16H19C20.1046 16 21 15.1046 21 14V10C21 8.89543 20.1046 8 19 8Z" stroke="#141B34" stroke-width="1.5" stroke-linecap="round" stroke-linejoin="round"/>
</svg>
