<svg width="24" height="24" viewBox="0 0 24 24" fill="none" xmlns="http://www.w3.org/2000/svg">
<path opacity="0.4" d="M7.12831 12.0089L8.36852 10.5206C8.72556 10.0922 9.36408 10.0386 9.78753 10.4015L12.5177 12.7416L18.3115 6.50208C18.6972 6.08673 19.3506 6.07463 19.7514 6.47542L21.3105 8.03453C21.7011 8.42506 21.7011 9.05822 21.3105 9.44875L13.1947 17.5646C12.8161 17.9432 12.2065 17.9564 11.8119 17.5947L7.2208 13.3862C6.82721 13.0254 6.78649 12.419 7.12831 12.0089Z" fill="#141B34"/>
<path d="M11.7319 8.74163L14.0365 6.2598C14.2993 5.97678 14.7446 5.96854 15.0177 6.24163M5.37246 10.4743L5.28753 10.4015C4.86408 10.0386 4.22556 10.0921 3.86852 10.5206L2.62831 12.0088C2.28649 12.419 2.32721 13.0254 2.7208 13.3862L7.49641 17.7638C7.78787 18.031 8.23806 18.0212 8.51765 17.7416" stroke="#141B34" stroke-width="1.5" stroke-linecap="round" stroke-linejoin="round"/>
<path d="M7.12831 12.0089L8.36852 10.5206C8.72556 10.0922 9.36408 10.0386 9.78753 10.4015L12.5177 12.7416L18.3115 6.50208C18.6972 6.08673 19.3506 6.07463 19.7514 6.47542L21.3105 8.03453C21.7011 8.42506 21.7011 9.05822 21.3105 9.44875L13.1947 17.5646C12.8161 17.9432 12.2065 17.9564 11.8119 17.5947L7.2208 13.3862C6.82721 13.0254 6.78649 12.419 7.12831 12.0089Z" stroke="#141B34" stroke-width="1.5" stroke-linecap="round" stroke-linejoin="round"/>
</svg>
