<svg width="24" height="24" viewBox="0 0 24 24" fill="none" xmlns="http://www.w3.org/2000/svg">
<path opacity="0.4" fill-rule="evenodd" clip-rule="evenodd" d="M19.5 2.5C20.6046 2.5 21.5 3.39543 21.5 4.5V19.5C21.5 20.6046 20.6046 21.5 19.5 21.5H4.5C3.39543 21.5 2.5 20.6046 2.5 19.5V4.5C2.5 3.39543 3.39543 2.5 4.5 2.5H19.5ZM12.0078 10.5078C11.1795 10.5078 10.508 11.1796 10.5078 12.0078C10.5078 12.8362 11.1794 13.5078 12.0078 13.5078C12.8362 13.5078 13.5078 12.8362 13.5078 12.0078C13.5076 11.1796 12.8361 10.5078 12.0078 10.5078Z" fill="#141B34"/>
<path d="M19.5 2.5H4.5C3.39543 2.5 2.5 3.39543 2.5 4.5V19.5C2.5 20.6046 3.39543 21.5 4.5 21.5H19.5C20.6046 21.5 21.5 20.6046 21.5 19.5V4.5C21.5 3.39543 20.6046 2.5 19.5 2.5Z" stroke="#141B34" stroke-width="1.5" stroke-linejoin="round"/>
<path d="M12.0078 10.5082C11.1794 10.5082 10.5078 11.1798 10.5078 12.0082C10.5078 12.8366 11.1794 13.5082 12.0078 13.5082C12.8362 13.5082 13.5078 12.8366 13.5078 12.0082C13.5078 11.1798 12.8362 10.5082 12.0078 10.5082ZM12.0078 10.5082V6.99902M15.0147 15.0198L13.0661 13.0712" stroke="#141B34" stroke-width="1.5" stroke-linecap="round" stroke-linejoin="round"/>
</svg>
