<svg width="24" height="24" viewBox="0 0 24 24" fill="none" xmlns="http://www.w3.org/2000/svg">
<path opacity="0.4" fill-rule="evenodd" clip-rule="evenodd" d="M12 2C17.5228 2 22 6.47715 22 12C22 17.5228 17.5228 22 12 22C6.47715 22 2 17.5228 2 12C2 6.47715 6.47715 2 12 2ZM12.4619 7.25293C12.2469 6.91534 11.7531 6.91534 11.5381 7.25293L10.916 8.23047C10.2281 9.31135 9.31135 10.2281 8.23047 10.916L7.25293 11.5381C6.91534 11.7531 6.91534 12.2469 7.25293 12.4619L8.23047 13.084C9.31135 13.7719 10.2281 14.6887 10.916 15.7695L11.5381 16.7471C11.7531 17.0847 12.2469 17.0847 12.4619 16.7471L13.084 15.7695C13.7719 14.6887 14.6887 13.7719 15.7695 13.084L16.7471 12.4619C17.0847 12.2469 17.0847 11.7531 16.7471 11.5381L15.7695 10.916C14.6887 10.2281 13.7719 9.31135 13.084 8.23047L12.4619 7.25293Z" fill="#141B34"/>
<circle cx="12" cy="12" r="10" stroke="#141B34" stroke-width="1.5" stroke-linejoin="round"/>
<path d="M11.5384 7.2534C11.7534 6.91553 12.2466 6.91553 12.4616 7.2534L13.0837 8.23082C13.7716 9.3117 14.6883 10.2284 15.7692 10.9163L16.7466 11.5384C17.0845 11.7534 17.0845 12.2466 16.7466 12.4616L15.7692 13.0837C14.6883 13.7716 13.7716 14.6883 13.0837 15.7692L12.4616 16.7466C12.2466 17.0845 11.7534 17.0845 11.5384 16.7466L10.9163 15.7692C10.2284 14.6883 9.3117 13.7716 8.23082 13.0837L7.2534 12.4616C6.91553 12.2466 6.91553 11.7534 7.2534 11.5384L8.23082 10.9163C9.3117 10.2284 10.2284 9.3117 10.9163 8.23082L11.5384 7.2534Z" stroke="#141B34" stroke-width="1.5" stroke-linejoin="round"/>
</svg>
