<svg width="24" height="24" viewBox="0 0 24 24" fill="none" xmlns="http://www.w3.org/2000/svg">
<path opacity="0.4" d="M10.7503 2C11.7167 2.00005 12.5003 2.78354 12.5003 3.75V9.5C14.2085 9.42406 17.19 9.81681 19.3215 11.9619C20.4858 13.1339 19.9285 15.4393 19.3001 17H14.0003V22H9.00025V19.9971L4.37721 14.0889C3.87698 13.4537 3.87386 12.5443 4.36939 11.9053C4.96504 11.1372 6.05943 11.031 6.78346 11.6709L9.00025 14V3.75C9.00025 2.7835 9.78376 2 10.7503 2Z" fill="#141B34"/>
<path d="M18.5001 17V15.5C18.5001 14.6716 17.8285 14 17.0001 14C16.1717 14 15.5001 14.6716 15.5001 15.5V17M14.0001 17H20.0001V22H14.0001V17Z" stroke="#141B34" stroke-width="1.5" stroke-linejoin="round"/>
<path d="M9.00012 22V19.9973L4.37762 14.0886C3.87731 13.4534 3.87397 12.5444 4.3696 11.9053C4.96531 11.1372 6.0595 11.0311 6.78353 11.6713L9.00012 14V3.75C9.00012 2.7835 9.78362 2 10.7501 2C11.7166 2 12.5001 2.7835 12.5001 3.75V9.5C13.877 9.43877 16.0808 9.78016 18.0001 11" stroke="#141B34" stroke-width="1.5" stroke-linecap="round" stroke-linejoin="round"/>
</svg>
