<svg width="24" height="24" viewBox="0 0 24 24" fill="none" xmlns="http://www.w3.org/2000/svg">
<path opacity="0.4" d="M8.7501 2C9.71654 2.00008 10.5001 2.78355 10.5001 3.75V10H15.0001C16.6569 10.0001 18.0001 11.3432 18.0001 13V17H14.0001V21H8.58409C7.90789 21 7.27743 20.6583 6.90831 20.0918L4.98741 17.1426C4.11586 15.8152 4.01683 15.2012 4.00108 14.5303C3.99398 14.2278 4.03213 13.9257 4.11534 13.6348C4.29994 12.9895 4.77669 12.4445 5.7296 11.3555L7.0001 10V3.75C7.0001 2.7835 7.7836 2 8.7501 2Z" fill="#141B34"/>
<path d="M7 14V10M7 10V3.75C7 2.7835 7.7835 2 8.75 2C9.7165 2 10.5 2.7835 10.5 3.75V10H15.5C16.5435 10 17.5 10.5 18 11M7 10L5.7297 11.3558C4.77679 12.4448 4.30031 12.9894 4.11571 13.6346C4.03246 13.9256 3.99373 14.2276 4.00083 14.5302C4.01657 15.2011 4.11571 15.8152 4.98731 17.1426L6.90829 20.0916C7.27739 20.6583 7.90785 21 8.5841 21H11" stroke="#141B34" stroke-width="1.5" stroke-linecap="round" stroke-linejoin="round"/>
<path d="M18.5 17V15.5C18.5 14.6716 17.8284 14 17 14C16.1716 14 15.5 14.6716 15.5 15.5V17M14 17H20V22H14V17Z" stroke="#141B34" stroke-width="1.5" stroke-linejoin="round"/>
</svg>
