<svg width="24" height="24" viewBox="0 0 24 24" fill="none" xmlns="http://www.w3.org/2000/svg">
<path opacity="0.4" d="M10 21.9998V17.9998C10 16.8952 10.8954 15.9998 12 15.9998C13.1046 15.9998 14 16.8952 14 17.9998V21.9998L19.5 21.9998L19.5 11.9998H4.5V21.9999L10 21.9998Z" fill="#141B34"/>
<path opacity="0.4" d="M5 8.50747C8.88275 9.40683 10.6245 5.23112 13.8426 7.9102C15.5 9.28987 17.1524 9.20479 19 8.50747L12 1.99976L5 8.50747Z" fill="#141B34"/>
<path d="M2.5 11.9999L9.89117 3.02919C11.0219 1.65677 12.9781 1.65677 14.1088 3.02919L21.5 11.9999H2.5Z" stroke="#141B34" stroke-width="1.5" stroke-linecap="round" stroke-linejoin="round"/>
<path d="M6 7.9996C9 9.50691 10.821 5.21746 13.5794 7.90959C15 9.29599 16.4164 9.20277 18 8.50205" stroke="#141B34" stroke-width="1.5" stroke-linecap="round" stroke-linejoin="round"/>
<path d="M10.0001 21.9998V17.9998C10.0001 16.8952 10.8956 15.9998 12.0001 15.9998C13.1047 15.9998 14.0001 16.8952 14.0001 17.9998V21.9998" stroke="#141B34" stroke-width="1.5" stroke-linecap="round" stroke-linejoin="round"/>
<path d="M19.5 11.9998L19.5 21.9998L4.5 21.9999L4.5 11.9998" stroke="#141B34" stroke-width="1.5" stroke-linecap="round" stroke-linejoin="round"/>
</svg>
