<svg width="24" height="24" viewBox="0 0 24 24" fill="none" xmlns="http://www.w3.org/2000/svg">
<path opacity="0.4" d="M4 4V12.9978L20 12.9978V8.9978L15 8.9978C13.8954 8.9978 13 8.10237 13 6.9978L12.9958 2.00778L6.00223 2C4.89679 1.99877 4 2.89456 4 4Z" fill="#141B34"/>
<path d="M6 16H8.5M11 16H8.5M8.5 16V22" stroke="#141B34" stroke-width="1.5" stroke-linecap="round" stroke-linejoin="round"/>
<path d="M18.0002 16L14 16V19H18.0002V22H14" stroke="#141B34" stroke-width="1.5" stroke-linecap="round" stroke-linejoin="round"/>
<path d="M4 12.9978L4.01994 3.99557C4.02238 2.89186 4.91845 1.99877 6.02216 2L12.9958 2.00776L20 8.99481L19.9922 12.9978M13 2.49778V6.99778C13 8.10235 13.8954 8.99778 15 8.99778H19.5" stroke="#141B34" stroke-width="1.5" stroke-linecap="round" stroke-linejoin="round"/>
</svg>
