<svg width="24" height="24" viewBox="0 0 24 24" fill="none" xmlns="http://www.w3.org/2000/svg">
<path opacity="0.4" d="M20.0501 11.1143C21.4737 13.0941 21.2963 15.869 19.516 17.6494L16.6498 20.5156C14.671 22.4944 11.4625 22.4944 9.48374 20.5156C7.50543 18.537 7.50541 15.3292 9.48374 13.3506L9.94858 12.8848C10.1073 13.1056 10.2852 13.3171 10.4837 13.5156C12.4625 15.4944 15.671 15.4944 17.6498 13.5156L20.0501 11.1143Z" fill="#141B34"/>
<path d="M12.1434 10.691L12.3503 10.4841C14.329 8.50532 17.5372 8.50532 19.5159 10.4841C21.4947 12.4628 21.4947 15.671 19.5159 17.6497L16.6497 20.5159C14.671 22.4947 11.4628 22.4947 9.48405 20.5159C7.50532 18.5372 7.50532 15.329 9.48405 13.3503L9.9484 12.886" stroke="#141B34" stroke-width="1.5" stroke-linecap="round" stroke-linejoin="round"/>
<path d="M20.0516 11.114L20.5159 10.6497C22.4947 8.67095 22.4947 5.46279 20.5159 3.48405C18.5372 1.50532 15.329 1.50532 13.3503 3.48405L10.4841 6.35031C8.50532 8.32904 8.50532 11.5372 10.4841 13.5159C12.4628 15.4947 15.671 15.4947 17.6497 13.5159L17.8566 13.309" stroke="#141B34" stroke-width="1.5" stroke-linecap="round" stroke-linejoin="round"/>
<path d="M2 8L5 9M3 13.5L5 12M4.5 4L6 6" stroke="#141B34" stroke-width="1.5" stroke-linecap="round" stroke-linejoin="round"/>
</svg>
