<svg width="24" height="24" viewBox="0 0 24 24" fill="none" xmlns="http://www.w3.org/2000/svg">
<path opacity="0.4" d="M10.5 3C13.2614 3 15.5 5.23858 15.5 8C15.5 10.7614 13.2614 13 10.5 13C14.366 13 17.5 16.134 17.5 20H3.5C3.5 16.134 6.63401 13 10.5 13C7.73858 13 5.5 10.7614 5.5 8C5.5 5.23858 7.73858 3 10.5 3Z" fill="#141B34"/>
<path d="M15.5 8C15.5 5.23858 13.2614 3 10.5 3C7.73858 3 5.5 5.23858 5.5 8C5.5 10.7614 7.73858 13 10.5 13C13.2614 13 15.5 10.7614 15.5 8Z" stroke="#141B34" stroke-width="1.5" stroke-linecap="round" stroke-linejoin="round"/>
<path d="M3.5 20C3.5 16.134 6.63401 13 10.5 13C11.775 13 12.9704 13.3409 14 13.9365" stroke="#141B34" stroke-width="1.5" stroke-linecap="round" stroke-linejoin="round"/>
<path d="M16.5 14.8462C16.5 13.8266 17.3954 13 18.5 13C19.6046 13 20.5 13.8266 20.5 14.8462C20.5 15.2137 20.3837 15.5561 20.1831 15.8438C19.5854 16.7012 18.5 17.0189 18.5 18.0385V18.5M18.4902 21H18.4992" stroke="#141B34" stroke-width="1.5" stroke-linecap="round" stroke-linejoin="round"/>
</svg>
