<svg width="24" height="24" viewBox="0 0 24 24" fill="none" xmlns="http://www.w3.org/2000/svg">
<g opacity="0.4">
<path d="M5.94405 19.5335L4.94743 18.5673L3.95043 17.5845C3.94692 17.581 3.94646 17.5755 3.94934 17.5715L5.56099 15.3321L8.34683 18.0414C8.3515 18.046 8.35065 18.0537 8.3451 18.0571L5.94405 19.5335Z" fill="#141B34"/>
<path d="M19.2557 5.82114L15.437 10.5088L12.959 8.0639L17.7387 4.26367L19.2557 5.82114Z" fill="#141B34"/>
</g>
<path opacity="0.4" d="M15 14C17.2091 14 19 15.7909 19 18C19 20.2091 17.2091 22 15 22C12.7909 22 11 20.2091 11 18C11 15.7909 12.7909 14 15 14Z" fill="#141B34"/>
<path d="M14.0303 17.4697C13.7374 17.1768 13.2626 17.1768 12.9697 17.4697C12.6768 17.7626 12.6768 18.2374 12.9697 18.5303L13.5 18L14.0303 17.4697ZM14.5 19L13.9697 19.5303C14.2626 19.8232 14.7374 19.8232 15.0303 19.5303L14.5 19ZM17.0303 17.5303C17.3232 17.2374 17.3232 16.7626 17.0303 16.4697C16.7374 16.1768 16.2626 16.1768 15.9697 16.4697L16.5 17L17.0303 17.5303ZM19 18H19.75C19.75 15.3766 17.6234 13.25 15 13.25V14V14.75C16.7949 14.75 18.25 16.2051 18.25 18H19ZM15 14V13.25C12.3766 13.25 10.25 15.3766 10.25 18H11H11.75C11.75 16.2051 13.2051 14.75 15 14.75V14ZM11 18H10.25C10.25 20.6234 12.3766 22.75 15 22.75V22V21.25C13.2051 21.25 11.75 19.7949 11.75 18H11ZM15 22V22.75C17.6234 22.75 19.75 20.6234 19.75 18H19H18.25C18.25 19.7949 16.7949 21.25 15 21.25V22ZM13.5 18L12.9697 18.5303L13.9697 19.5303L14.5 19L15.0303 18.4697L14.0303 17.4697L13.5 18ZM14.5 19L15.0303 19.5303L17.0303 17.5303L16.5 17L15.9697 16.4697L13.9697 18.4697L14.5 19Z" fill="#141B34"/>
<path d="M2.5 21L4.94737 18.5673M4.94737 18.5673L5.94399 19.5335L8.34504 18.0571C8.35059 18.0537 8.35145 18.046 8.34677 18.0414L5.56093 15.3321M4.94737 18.5673L3.95038 17.5845C3.94687 17.581 3.9464 17.5755 3.94928 17.5715L5.56093 15.3321M5.56093 15.3321L4.46936 14.1899C4.46562 14.186 4.46568 14.1798 4.46951 14.1759L11.7537 6.85925M11.7537 6.85925L10.7971 5.88068M11.7537 6.85925L12.959 8.0639M16.1659 11.2456L15.437 10.5088M15.437 10.5088L19.2556 5.82114M15.437 10.5088L12.959 8.0639M19.2556 5.82114C19.9206 6.48593 20.0661 6.85925 21.5 6.85925M19.2556 5.82114L17.7386 4.26367M12.959 8.0639L17.7386 4.26367M17.7386 4.26367C17.1568 3.59926 16.6788 3.72374 16.6788 2" stroke="#141B34" stroke-width="1.5" stroke-linecap="round" stroke-linejoin="round"/>
</svg>
