<svg width="24" height="24" viewBox="0 0 24 24" fill="none" xmlns="http://www.w3.org/2000/svg">
<path opacity="0.4" fill-rule="evenodd" clip-rule="evenodd" d="M12 2C12.8331 2 14.36 2.6941 15.1357 3.50391C15.3977 3.7774 15.7394 4 16.1182 4H17C17.5523 4 17.9789 4.47454 18.2441 4.95898C18.4203 5.28082 18.6828 5.54894 19 5.73242V18.2676C18.6828 18.4511 18.4203 18.7192 18.2441 19.041C17.9789 19.5254 17.5522 20 17 20H16.1182C15.7394 20 15.3978 20.2226 15.1357 20.4961C14.36 21.3059 12.8331 22 12 22C11.1669 22 9.63996 21.3059 8.86426 20.4961C8.60225 20.2226 8.26061 20 7.88184 20H7C6.44776 20 6.02106 19.5254 5.75586 19.041C5.57967 18.7192 5.3172 18.4511 5 18.2676V5.73242C5.31719 5.54894 5.57967 5.28082 5.75586 4.95898C6.02105 4.47454 6.44772 4 7 4H7.88184C8.26057 4 8.60226 3.7774 8.86426 3.50391C9.63995 2.6941 11.1669 2 12 2ZM12 6C9.79087 6 8 7.79086 8 10C8 12.2091 9.79087 14 12 14C14.2091 14 16 12.2091 16 10C16 7.79086 14.2091 6 12 6Z" fill="#141B34"/>
<path d="M3 18H4C4.75709 18 5.41594 18.4207 5.75553 19.041C6.02072 19.5255 6.44772 20 7 20H7.88196C8.26074 20 8.60216 20.2226 8.86417 20.4961C9.63986 21.3059 11.1669 21.9998 12 21.9998C12.8331 21.9998 14.3601 21.3059 15.1358 20.4961C15.3978 20.2226 15.7393 20 16.118 20H17C17.5523 20 17.9793 19.5255 18.2445 19.041C18.5841 18.4207 19.2429 18 20 18H21" stroke="#141B34" stroke-width="1.5" stroke-linecap="round" stroke-linejoin="round"/>
<path d="M3 5.99977H4C4.75709 5.99977 5.41594 5.57909 5.75553 4.95874C6.02072 4.47429 6.44772 3.99977 7 3.99977H7.88196C8.26074 3.99977 8.60216 3.77717 8.86417 3.50364C9.63986 2.69383 11.1669 2 12 2C12.8331 2 14.3601 2.69383 15.1358 3.50364C15.3978 3.77717 15.7393 3.99977 16.118 3.99977H17C17.5523 3.99977 17.9793 4.47429 18.2445 4.95874C18.5841 5.57909 19.2429 5.99977 20 5.99977H21" stroke="#141B34" stroke-width="1.5" stroke-linecap="round" stroke-linejoin="round"/>
<path d="M16 10C16 12.2091 14.2091 14 12 14C9.79086 14 8 12.2091 8 10C8 7.79086 9.79086 6 12 6C14.2091 6 16 7.79086 16 10Z" stroke="#141B34" stroke-width="1.5" stroke-linecap="round" stroke-linejoin="round"/>
<path d="M19 6V18M5 6V18" stroke="#141B34" stroke-width="1.5" stroke-linecap="round" stroke-linejoin="round"/>
<path d="M12.0039 10L13.0039 9" stroke="#141B34" stroke-width="1.5" stroke-linecap="round" stroke-linejoin="round"/>
<path d="M11.9736 14V17.991M10.5 18H13.5" stroke="#141B34" stroke-width="1.5" stroke-linecap="round" stroke-linejoin="round"/>
</svg>
