<svg width="24" height="24" viewBox="0 0 24 24" fill="none" xmlns="http://www.w3.org/2000/svg">
<g opacity="0.4">
<path d="M16 3H5C3.89543 3 3 3.89543 3 5C3 6.10457 3.89543 7 5 7H18V5C18 3.89543 17.1046 3 16 3Z" fill="#141B34"/>
<path d="M18 12H21V16H18C17.4477 16 17 15.5523 17 15V13C17 12.4477 17.4477 12 18 12Z" fill="#141B34"/>
</g>
<path d="M16 3H5C3.89543 3 3 3.89543 3 5C3 6.10457 3.89543 7 5 7H18V5C18 3.89543 17.1046 3 16 3Z" stroke="#141B34" stroke-width="1.5" stroke-linecap="round" stroke-linejoin="round"/>
<path d="M3 5V19C3 20.1046 3.89543 21 5 21H19C20.1046 21 21 20.1046 21 19V9C21 7.89543 20.1046 7 19 7H7" stroke="#141B34" stroke-width="1.5" stroke-linecap="round" stroke-linejoin="round"/>
<path d="M21 12H18C17.4477 12 17 12.4477 17 13V15C17 15.5523 17.4477 16 18 16H21" stroke="#141B34" stroke-width="1.5" stroke-linecap="round" stroke-linejoin="round"/>
</svg>
