<svg width="24" height="24" viewBox="0 0 24 24" fill="none" xmlns="http://www.w3.org/2000/svg">
<path opacity="0.4" fill-rule="evenodd" clip-rule="evenodd" d="M19.5 21.5C20.6046 21.5 21.5 20.6046 21.5 19.5V4.5C21.5 3.39543 20.6046 2.5 19.5 2.5H4.5C3.39543 2.5 2.5 3.39543 2.5 4.5V19.5C2.5 20.6046 3.39543 21.5 4.5 21.5H19.5ZM11.2207 12.665C9.12014 17.7521 6.71938 16.3395 6.11914 12.9482C5.519 9.55699 7.31918 8.14399 8.51953 8.70898C9.47981 9.16118 9.32018 10.4045 9.12012 10.9697C10.3504 8.58761 13.8309 6.02174 13.8311 10.2979C14.1325 9.81735 15.0358 8.74317 16.2402 8.28613C17.7461 7.71472 18.8744 8.85707 17.0781 10.5713C17.0781 10.5713 16.1795 11.4283 15.2812 13.1426C14.383 14.8569 11.9884 16.5713 11.2207 12.665Z" fill="#141B34"/>
<path d="M21.5 4.5V19.5C21.5 20.6046 20.6046 21.5 19.5 21.5H4.5C3.39543 21.5 2.5 20.6046 2.5 19.5V4.5C2.5 3.39543 3.39543 2.5 4.5 2.5H19.5C20.6046 2.5 21.5 3.39543 21.5 4.5Z" stroke="#141B34" stroke-width="1.5" stroke-linejoin="round"/>
<path d="M8.51991 8.70869C9.48019 9.16088 9.32015 10.4044 9.12009 10.9697C10.3504 8.58748 13.8307 6.02163 13.8307 10.2981C14.1319 9.8178 15.0354 8.74285 16.2401 8.28571C17.7461 7.71428 18.8745 8.85714 17.078 10.5714C17.078 10.5714 16.1798 11.4286 15.2816 13.1429C14.3834 14.8571 11.9881 16.5714 11.2205 12.6651C9.11986 17.7523 6.71939 16.3394 6.11921 12.948C5.51904 9.55655 7.31956 8.14345 8.51991 8.70869Z" stroke="#141B34" stroke-width="1.5" stroke-linecap="round" stroke-linejoin="round"/>
</svg>
