<svg width="24" height="24" viewBox="0 0 24 24" fill="none" xmlns="http://www.w3.org/2000/svg">
<path opacity="0.4" d="M19 5.5C20.1046 5.5 21 6.39543 21 7.5V14C20.0878 12.7857 18.6357 12 17 12C14.2386 12 12 14.2386 12 17C12 18.6357 12.7857 20.0878 14 21H4C2.89543 21 2 20.1046 2 19V7.5C2 6.39543 2.89543 5.5 4 5.5H19Z" fill="#141B34"/>
<path d="M21 10V7.5C21 6.39543 20.1046 5.5 19 5.5H4C2.89543 5.5 2 6.39543 2 7.5V19C2 20.1046 2.89543 21 4 21H9.5" stroke="#141B34" stroke-width="1.5" stroke-linecap="round" stroke-linejoin="round"/>
<path d="M15.5 5.5L14.7072 2.72528C14.5846 2.29598 14.1922 2 13.7457 2H9.2543C8.80782 2 8.41544 2.29598 8.29278 2.72528L7.5 5.5" stroke="#141B34" stroke-width="1.5" stroke-linejoin="round"/>
<path d="M17 19L16.4697 19.5303C16.7626 19.8232 17.2374 19.8232 17.5303 19.5303L17 19ZM19.5303 17.5303C19.8232 17.2374 19.8232 16.7626 19.5303 16.4697C19.2374 16.1768 18.7626 16.1768 18.4697 16.4697L19 17L19.5303 17.5303ZM15.5303 16.4697C15.2374 16.1768 14.7626 16.1768 14.4697 16.4697C14.1768 16.7626 14.1768 17.2374 14.4697 17.5303L15 17L15.5303 16.4697ZM17.75 15C17.75 14.5858 17.4142 14.25 17 14.25C16.5858 14.25 16.25 14.5858 16.25 15H17H17.75ZM22 17H21.25C21.25 19.3472 19.3472 21.25 17 21.25V22V22.75C20.1756 22.75 22.75 20.1756 22.75 17H22ZM17 22V21.25C14.6528 21.25 12.75 19.3472 12.75 17H12H11.25C11.25 20.1756 13.8244 22.75 17 22.75V22ZM12 17H12.75C12.75 14.6528 14.6528 12.75 17 12.75V12V11.25C13.8244 11.25 11.25 13.8244 11.25 17H12ZM17 12V12.75C19.3472 12.75 21.25 14.6528 21.25 17H22H22.75C22.75 13.8244 20.1756 11.25 17 11.25V12ZM17 19L17.5303 19.5303L19.5303 17.5303L19 17L18.4697 16.4697L16.4697 18.4697L17 19ZM17 19L17.5303 18.4697L15.5303 16.4697L15 17L14.4697 17.5303L16.4697 19.5303L17 19ZM17 19H17.75V15H17H16.25V19H17Z" fill="#141B34"/>
</svg>
