<svg width="24" height="24" viewBox="0 0 24 24" fill="none" xmlns="http://www.w3.org/2000/svg">
<path opacity="0.4" fill-rule="evenodd" clip-rule="evenodd" d="M19 2C20.1044 2.00003 20.9998 2.89566 21 4V20C21 21.1046 20.1046 22 19 22H5C3.89543 22 3 21.1046 3 20V4C3.00003 2.89545 3.89545 2 5 2H19ZM16.5 15.4053C16.5 14.4757 15.5454 13.8349 14.6709 14.0381C13.8575 14.2271 12.9529 14.332 12 14.332C11.0471 14.332 10.1425 14.2271 9.3291 14.0381C8.45459 13.8349 7.5 14.4757 7.5 15.4053C7.50012 15.8906 7.76655 16.3401 8.20703 16.5039C8.53068 16.6243 8.87754 16.73 9.24316 16.8184C9.83472 16.9614 10.355 17.3472 10.6123 17.918L10.7188 18.1543C10.9513 18.6703 11.4509 19 12 19C12.5491 19 13.0487 18.6703 13.2812 18.1543L13.3877 17.918C13.645 17.3472 14.1653 16.9614 14.7568 16.8184C15.1225 16.73 15.4693 16.6243 15.793 16.5039C16.2334 16.3401 16.4999 15.8906 16.5 15.4053Z" fill="#141B34"/>
<path d="M5 22H19C20.1046 22 21 21.1046 21 20V4.00046C21 2.89591 20.1046 2.00049 19.0001 2.00046L5.00006 2.00006C3.89547 2.00003 3 2.89547 3 4.00006V20C3 21.1046 3.89543 22 5 22Z" stroke="#141B34" stroke-width="1.5" stroke-linecap="round" stroke-linejoin="round"/>
<path d="M12 5L12 14" stroke="#141B34" stroke-width="1.5" stroke-linecap="round" stroke-linejoin="round"/>
<path d="M12 14.3321C11.047 14.3321 10.1425 14.2268 9.329 14.0377C8.45448 13.8345 7.5 14.4753 7.5 15.4049C7.5 15.8904 7.76615 16.3401 8.20673 16.5039C8.53045 16.6243 8.87716 16.7297 9.24287 16.8181C9.83466 16.961 10.3551 17.3472 10.6124 17.9182L10.7188 18.1543C10.9514 18.6703 11.4509 19 12 19C12.5491 19 13.0486 18.6703 13.2812 18.1543L13.3876 17.9182C13.6449 17.3472 14.1653 16.961 14.7571 16.8181C15.1228 16.7297 15.4695 16.6243 15.7933 16.5039C16.2338 16.3401 16.5 15.8904 16.5 15.4049C16.5 14.4753 15.5455 13.8345 14.671 14.0377C13.8575 14.2268 12.953 14.3321 12 14.3321Z" stroke="#141B34" stroke-width="1.5" stroke-linecap="round" stroke-linejoin="round"/>
<path d="M15 7C14.6134 7.61859 14.084 8 13.5 8C12.916 8 12.3866 7.61859 12 7C11.6134 7.61859 11.084 8 10.5 8C9.91601 8 9.38657 7.61859 9 7" stroke="#141B34" stroke-width="1.5" stroke-linecap="round" stroke-linejoin="round"/>
<path d="M7 10C7.64429 10.6186 8.52668 11 9.5 11C10.4733 11 11.3557 10.6186 12 10C12.6443 10.6186 13.5267 11 14.5 11C15.4733 11 16.3557 10.6186 17 10" stroke="#141B34" stroke-width="1.5" stroke-linecap="round" stroke-linejoin="round"/>
</svg>
