<svg width="24" height="24" viewBox="0 0 24 24" fill="none" xmlns="http://www.w3.org/2000/svg">
<g opacity="0.4">
<path d="M12.1768 3.55785C12.2446 2.84797 11.5688 2.2973 10.8873 2.50701L7.22966 3.63239C6.55377 3.84035 6.30138 4.66501 6.74509 5.21564L11.4598 11.0664L12.1768 3.55785Z" fill="#141B34"/>
<path d="M16.1209 19.0306C16.4352 19.7221 17.3755 19.8245 17.8313 19.2168L18.9359 17.7439C19.3595 17.1791 19.0802 16.3649 18.399 16.1792L14.319 15.0664L16.1209 19.0306Z" fill="#141B34"/>
<path d="M8.5282 18.9915C7.97264 19.4854 8.13101 20.3912 8.82119 20.6673L10.8163 21.4654C11.5065 21.7415 12.246 21.1948 12.1842 20.4539L11.8186 16.0664L8.5282 18.9915Z" fill="#141B34"/>
</g>
<path d="M12.1768 3.55785C12.2446 2.84797 11.5688 2.2973 10.8873 2.50701L7.22966 3.63239C6.55377 3.84035 6.30138 4.66501 6.74509 5.21564L11.4598 11.0664L12.1768 3.55785Z" stroke="#141B34" stroke-width="1.5" stroke-linejoin="round"/>
<path d="M18.6294 12.2073C19.3883 12.1441 19.8008 11.2898 19.3785 10.6561L18.1955 8.8814C17.7883 8.27052 16.8836 8.29202 16.5059 8.92154L14.319 12.5664L18.6294 12.2073Z" stroke="#141B34" stroke-width="1.5" stroke-linejoin="round"/>
<path d="M16.1209 19.0305C16.4352 19.7221 17.3754 19.8245 17.8312 19.2167L18.9359 17.7439C19.3595 17.179 19.0802 16.3649 18.399 16.1791L14.319 15.0664L16.1209 19.0305Z" stroke="#141B34" stroke-width="1.5" stroke-linejoin="round"/>
<path d="M8.52812 18.9915C7.97256 19.4854 8.13093 20.3912 8.8211 20.6673L10.8162 21.4654C11.5064 21.7415 12.2459 21.1947 12.1841 20.4539L11.8185 16.0664L8.52812 18.9915Z" stroke="#141B34" stroke-width="1.5" stroke-linejoin="round"/>
<path d="M6.21499 11.4547C5.58046 11.0509 4.74403 11.4658 4.68157 12.2153L4.45553 14.9279C4.39327 15.6749 5.14472 16.2223 5.83669 15.934L10.319 14.0663L6.21499 11.4547Z" stroke="#141B34" stroke-width="1.5" stroke-linejoin="round"/>
</svg>
