<svg width="24" height="24" viewBox="0 0 24 24" fill="none" xmlns="http://www.w3.org/2000/svg">
<path d="M12.0027 21C7.2874 21 4.92973 21 3.46487 19.5355C2 18.0711 2 15.714 2 11V7.94427C2 6.1278 2 5.21956 2.38042 4.53806C2.6516 4.05227 3.05255 3.65142 3.53848 3.38032C4.22017 3 5.12865 3 6.94562 3C8.10969 3 8.69172 3 9.20122 3.19101C10.3645 3.62712 10.8442 4.68358 11.3691 5.73313L12.0027 7M8.00164 7H16.754C18.8613 7 19.9149 7 20.6718 7.50559C20.9995 7.72447 21.2808 8.00572 21.4997 8.33329C21.8937 8.92282 21.9808 9.69244 22 11" stroke="#141B34" stroke-width="1.5" stroke-linecap="round" stroke-linejoin="round"/>
<path d="M19.2671 17.7011L18 17V15.2668M22 17C22 19.2091 20.2091 21 18 21C15.7909 21 14 19.2091 14 17C14 14.7909 15.7909 13 18 13C20.2091 13 22 14.7909 22 17Z" stroke="#141B34" stroke-width="1.5" stroke-linecap="round" stroke-linejoin="round"/>
</svg>
