<?xml version="1.0" standalone="no"?>
<!DOCTYPE svg PUBLIC "-//W3C//DTD SVG 1.1//EN" "http://www.w3.org/Graphics/SVG/1.1/DTD/svg11.dtd" >
<svg xmlns="http://www.w3.org/2000/svg" xmlns:xlink="http://www.w3.org/1999/xlink" version="1.1">
<metadata>
Created by FontForge 20170731 at Wed Jul 23 19:50:07 2014
 By Aleksey,,,
Copyright (c) 2014 by Indo Asian News Channel (P) Ltd. All rights reserved.
</metadata>
<defs>
<font id="." horiz-adv-x="2295" >
  <font-face 
    font-family="."
    font-weight="400"
    font-stretch="normal"
    units-per-em="2048"
    panose-1="2 0 6 3 0 0 0 0 0 0"
    ascent="1638"
    descent="-410"
    x-height="1030"
    cap-height="1317"
    bbox="-1253 -594 5908 1509"
    underline-thickness="61"
    underline-position="-467"
    unicode-range="U+000D-2AA5"
  />
<missing-glyph horiz-adv-x="692" 
d="M606 0h-561v1118h561v-1118zM102 1063v-1008h451v1008h-451z" />
    <glyph glyph-name=".notdef" horiz-adv-x="692" 
d="M606 0h-561v1118h561v-1118zM102 1063v-1008h451v1008h-451z" />
    <glyph glyph-name=".null" horiz-adv-x="0" 
 />
    <glyph glyph-name="nonmarkingreturn" horiz-adv-x="682" 
 />
    <glyph glyph-name="NULL" horiz-adv-x="0" 
 />
    <glyph glyph-name="NULL" horiz-adv-x="0" 
 />
    <glyph glyph-name="CR" unicode="&#xd;" horiz-adv-x="681" 
 />
    <glyph glyph-name="space" unicode=" " horiz-adv-x="438" 
 />
    <glyph glyph-name="exclam" unicode="!" horiz-adv-x="335" 
d="M336 4h-182v176h182v-176zM319 334h-145l-14 336v379h170v-377z" />
    <glyph glyph-name="quotedbl" unicode="&#x22;" horiz-adv-x="665" 
d="M563 809l-20 -102h-45l-23 102q-16 91 -16 98v166h125v-166q-1 -7 -4 -20t-8 -35.5t-9 -42.5zM362 809l-20 -102h-45l-21 102l-20 98v166h127v-166q-1 -7 -4 -20t-8 -35.5t-9 -42.5z" />
    <glyph glyph-name="numbersign" unicode="#" horiz-adv-x="800" 
d="M848 664h-162l-51 -281h162v-86h-179l-59 -322h-96l57 322h-209l-59 -322h-96l57 322h-156v86h174l50 281h-166v86h182l53 297h101l-58 -297h211l53 297h101l-58 -297h148v-86zM588 664h-209l-53 -281h213z" />
    <glyph glyph-name="dollar" unicode="$" horiz-adv-x="811" 
d="M481 -27v-153h-69v153q-163 12 -243.5 92.5t-80.5 239.5h102q9 -113 54 -174q45 -57 168 -72v430q-157 47 -230 105t-73 188q0 258 303 295v80h69v-80q138 -11 217 -84t80 -196h-102q-5 85 -56 138t-139 54v-395q199 -52 264 -111q66 -60 66 -186q0 -300 -330 -324z
M412 600v389q-199 -27 -199 -192q0 -145 199 -197zM481 481v-422q224 27 224 217q0 156 -224 205z" />
    <glyph glyph-name="percent" unicode="%" horiz-adv-x="1019" 
d="M154 784q0 179 202 179q205 0 205 -179q0 -90 -47 -135t-158 -45q-109 0 -155.5 45t-46.5 135zM354 705q35 0 52.5 16.5t17.5 60.5q0 41 -18 57.5t-52 16.5q-31 0 -46 -16.5t-15 -57.5q0 -45 14.5 -61t46.5 -16zM158 -106l735 1202h123l-737 -1202h-121zM612 168
q0 178 201 178q207 0 207 -178q0 -90 -47 -135t-160 -45q-107 0 -154 45t-47 135zM813 90q34 0 51 17t17 59t-17 59t-51 17q-31 0 -47 -17t-16 -59t16 -59t47 -17z" />
    <glyph glyph-name="ampersand" unicode="&#x26;" horiz-adv-x="1212" 
d="M999 412v-76q0 -176 -104.5 -261t-335.5 -85q-192 0 -298.5 79.5t-106.5 215.5q0 196 227 256q-199 57 -199 239q0 122 91 203.5t266 81.5q184 0 282.5 -84t98.5 -225v-15h-187v15q0 52 -15.5 86.5t-44 50.5t-57.5 21.5t-69 5.5q-79 0 -127.5 -36t-48.5 -116v-14
q0 -77 49 -110.5t147 -33.5h78v-149h-80q-108 0 -161.5 -38.5t-53.5 -127.5v-6q0 -88 66 -128t168 -40q45 0 83.5 10t74 33t55.5 68t20 108v70v24q0 36 8 64.5t19.5 46.5t30 31t34 19.5t37.5 10t34 4t30 0.5h202v-147h-159q-19 0 -31.5 -5t-16.5 -15t-5 -15.5t-1 -15.5z" />
    <glyph glyph-name="quotesingle" unicode="'" horiz-adv-x="577" 
d="M449 1067l-23 -115l-25 -121h-55l-24 121q-21 102 -21 115v195h148v-195z" />
    <glyph glyph-name="parenleft" unicode="(" horiz-adv-x="632" 
d="M633 -137v-144q-72 2 -137.5 27t-129 85t-109.5 148.5t-74.5 228t-28.5 314.5q0 165 28 300.5t75 226.5t109.5 154t129 92t137.5 32v-145q-40 0 -81.5 -22t-82.5 -73t-72.5 -125t-51 -188t-19.5 -252q0 -142 20 -256t51 -185.5t73 -120.5t82 -70.5t81 -26.5z" />
    <glyph glyph-name="parenright" unicode=")" horiz-adv-x="632" 
d="M154 -281v144q41 5 81 26.5t82 70.5t73 120.5t51 185.5t20 256q0 138 -19.5 252t-51 188t-72.5 125t-82.5 73t-81.5 22v145q71 -3 137.5 -32t129 -92t109.5 -154t75 -226.5t28 -300.5q0 -175 -28.5 -314.5t-74.5 -228t-109.5 -148.5t-129 -85t-137.5 -27z" />
    <glyph glyph-name="asterisk" unicode="*" horiz-adv-x="716" 
d="M717 1214q0 -28 -38.5 -54t-82 -40t-90.5 -24q18 -6 62 -14.5t72 -15.5t52.5 -27t24.5 -50q0 -65 -70 -65q-26 0 -56 16.5t-47 32.5t-41 43l-24 26q1 -5 7 -30t9.5 -40.5t7 -38.5t3.5 -40q0 -37 -19 -60.5t-53 -23.5q-32 0 -50.5 22.5t-18.5 59.5q0 55 32 149
q-6 -4 -49.5 -41t-76 -56t-58.5 -19q-27 0 -43 17t-16 46q0 26 23 45t50 28t71.5 21t63.5 19q-10 3 -36.5 10.5t-43 12t-39 13t-38.5 17.5q-51 25 -46 68q4 35 39 48q36 14 78 -12q20 -13 65 -50.5t69 -53.5q-3 11 -15 46t-20 65t-8 47q0 82 71 82q32 0 52 -21t20 -61
q0 -76 -39 -156q3 3 27 28t35 34.5t33 27t41.5 24.5t39.5 7q70 0 70 -62z" />
    <glyph glyph-name="plus" unicode="+" horiz-adv-x="778" 
d="M154 434v154h241v231h154v-231h229v-154h-229v-239h-154v239h-241z" />
    <glyph glyph-name="comma" unicode="," horiz-adv-x="335" 
d="M244 4h-90v176h182v-153l-88 -199h-80z" />
    <glyph glyph-name="hyphen" unicode="-" horiz-adv-x="761" 
d="M154 442v138h608v-138h-608z" />
    <glyph glyph-name="period" unicode="." horiz-adv-x="335" 
d="M336 4h-182v176h182v-176z" />
    <glyph glyph-name="slash" unicode="/" horiz-adv-x="800" 
d="M154 -135l530 1296h117l-531 -1296h-116z" />
    <glyph glyph-name="zero" unicode="0" horiz-adv-x="972" 
d="M154 524q0 278 94.5 409.5t314.5 131.5q222 0 316 -131.5t94 -409.5q0 -276 -94 -407t-316 -131q-220 0 -314.5 131t-94.5 407zM801 526q0 104 -11.5 176.5t-30 115.5t-51 67t-65.5 31.5t-82 7.5q-43 0 -74.5 -7t-63.5 -31t-52 -66.5t-32.5 -116.5t-12.5 -177t12.5 -176
t32.5 -115t52 -66t63.5 -31t74.5 -7q49 0 82 7.5t65.5 31t51 66t30 115t11.5 175.5z" />
    <glyph glyph-name="one" unicode="1" horiz-adv-x="565" 
d="M524 1044v-1042h-162v879l-208 -56v146l258 73h112z" />
    <glyph glyph-name="two" unicode="2" horiz-adv-x="952" 
d="M528 322q-42 0 -73 -5.5t-58.5 -20t-42 -43.5t-14.5 -71v-30h606v-150h-792v172q0 142 102 216.5t295 74.5q90 0 152.5 52.5t62.5 166.5q0 58 -8 96.5t-29.5 72.5t-65.5 50.5t-112 16.5q-37 0 -64 -3t-58.5 -16t-50.5 -36t-32.5 -65.5t-13.5 -101.5h-178q0 179 99.5 273
t299.5 94q197 0 298 -95.5t101 -281.5q0 -187 -100.5 -276.5t-323.5 -89.5z" />
    <glyph glyph-name="three" unicode="3" horiz-adv-x="1001" 
d="M573 461h-137v151h137q88 0 144.5 34t56.5 108v12q0 80 -56 117t-145 37q-44 0 -77.5 -8t-66 -30t-50 -68t-17.5 -114h-180q0 365 389 365q192 0 294 -81.5t102 -203.5q0 -183 -187 -239q114 -19 167.5 -82.5t53.5 -177.5q0 -135 -109 -215t-314 -80q-208 0 -316 88
t-108 260v16h186v-16q0 -62 21 -106.5t56.5 -67.5t73.5 -33t82 -10q98 0 165 42.5t67 129.5v6q0 40 -13 70.5t-34.5 48.5t-52.5 28.5t-62.5 14.5t-69.5 4z" />
    <glyph glyph-name="four" unicode="4" horiz-adv-x="1019" 
d="M885 350h135v-147h-135v-201h-185v201h-546v110l475 731h256v-694zM700 350v531l-344 -531h344z" />
    <glyph glyph-name="five" unicode="5" horiz-adv-x="962" 
d="M590 696q373 0 373 -356q0 -352 -406 -352q-403 0 -403 350h186q0 -118 57 -161.5t160 -43.5q107 0 160 43t53 164q0 62 -15.5 103.5t-46.5 63t-67.5 30t-87.5 8.5q-178 0 -215 -99l-172 46l70 552h682v-149h-529l-35 -272q26 37 96 55t140 18z" />
    <glyph glyph-name="six" unicode="6" horiz-adv-x="976" 
d="M797 319q0 95 -60.5 143t-163.5 48q-97 0 -156 -52.5t-59 -140.5q0 -89 58.5 -138.5t156.5 -49.5q103 0 163.5 47.5t60.5 142.5zM326 551q41 53 115 83t161 30q166 0 270.5 -85.5t104.5 -256.5q0 -148 -105 -242t-299 -94q-218 0 -318.5 123t-100.5 403q0 201 51.5 325
t145 176t237.5 52q190 0 282.5 -89.5t92.5 -225.5h-170v8q0 76 -62 118t-143 42q-128 0 -195 -84t-67 -283z" />
    <glyph glyph-name="seven" unicode="7" horiz-adv-x="919" 
d="M698 887h-544v157h766v-110l-433 -934h-202z" />
    <glyph glyph-name="eight" unicode="8" horiz-adv-x="1007" 
d="M582 1065q194 0 295.5 -81.5t101.5 -203.5q0 -182 -195 -239q224 -59 224 -260q0 -134 -110.5 -214.5t-315.5 -80.5q-206 0 -317 80.5t-111 214.5q0 201 223 260q-195 57 -195 239q0 122 102.5 203.5t297.5 81.5zM584 465q-102 0 -166 -38.5t-64 -123.5v-12
q0 -86 64 -125t166 -39q63 0 112 14.5t83 53t34 96.5v12q0 84 -65 123t-164 39zM586 920q-91 0 -145 -37t-54 -117v-12q0 -78 54 -114t145 -36t144.5 36t53.5 114v12q0 80 -54 117t-144 37z" />
    <glyph glyph-name="nine" unicode="9" horiz-adv-x="976" 
d="M334 731q0 -95 60 -142.5t163 -47.5q97 0 156 52.5t59 139.5q0 89 -58.5 139t-156.5 50q-102 0 -162.5 -48t-60.5 -143zM805 500q-41 -53 -115.5 -83t-161.5 -30q-166 0 -270 85.5t-104 256.5q0 148 104.5 242t298.5 94q218 0 319 -123.5t101 -402.5q0 -201 -51.5 -325
t-145 -176t-237.5 -52q-190 0 -282.5 89.5t-92.5 225.5h170v-8q0 -76 62 -118t143 -42q128 0 195 84t67 283z" />
    <glyph glyph-name="colon" unicode=":" horiz-adv-x="335" 
d="M336 471h-182v176h182v-176zM336 4h-182v176h182v-176z" />
    <glyph glyph-name="semicolon" unicode=";" horiz-adv-x="335" 
d="M336 471h-182v176h182v-176zM244 4h-90v176h182v-153l-88 -199h-80z" />
    <glyph glyph-name="less" unicode="&#x3c;" horiz-adv-x="954" 
d="M154 328v114l800 320v-158l-559 -219l559 -213v-166z" />
    <glyph glyph-name="equal" unicode="=" horiz-adv-x="761" 
d="M154 580v137h608v-137h-608zM154 334v137h608v-137h-608z" />
    <glyph glyph-name="greater" unicode="&#x3e;" horiz-adv-x="954" 
d="M954 442v-114l-800 -322v166l559 213l-559 219v158z" />
    <glyph glyph-name="question" unicode="?" horiz-adv-x="890" 
d="M891 786q0 -43 -8.5 -80t-18.5 -62t-32.5 -48t-37 -35t-46 -27t-44.5 -20t-47 -18q-36 -13 -54 -21t-41.5 -23t-33.5 -35.5t-10 -47.5v-86h-170v96q0 47 11.5 82.5t27 57t44 39.5t49 26t55.5 20q4 1 6.5 2t5.5 2q34 11 51.5 17.5t43 20.5t38.5 30.5t23 44t10 63.5
q0 76 -49 113t-138 37q-202 0 -202 -168v-25h-170v25q0 301 366 301q170 0 270.5 -69.5t100.5 -211.5zM526 4h-180v176h180v-176z" />
    <glyph glyph-name="at" unicode="@" horiz-adv-x="1474" 
d="M774 932q-82 0 -152 -63.5t-106.5 -152t-36.5 -171.5q0 -77 45 -127.5t115 -50.5q75 0 143 67t105 157.5t37 168.5q0 66 -46 119t-104 53zM1139 1022l-154 -524q-20 -62 -20 -95q0 -57 43 -57q55 0 115.5 64t100.5 164.5t40 195.5q0 107 -42 197.5t-111.5 150.5
t-159.5 93.5t-187 33.5q-154 0 -283.5 -80t-203.5 -216t-74 -296q0 -120 45.5 -229t122.5 -186t182 -122.5t219 -45.5q132 0 256 61t201 162h117q-87 -151 -243.5 -238.5t-334.5 -87.5q-143 0 -271 54.5t-219.5 147.5t-145.5 222.5t-54 272.5q0 139 54.5 266t146.5 218.5
t218.5 145.5t264.5 54q169 0 312.5 -72.5t229 -204t85.5 -293.5q0 -114 -43.5 -217t-109 -170t-140 -106t-140.5 -39q-49 0 -82 30.5t-34 88.5h-6q-46 -53 -106.5 -88t-123.5 -35q-115 0 -188.5 83.5t-73.5 206.5q0 96 31.5 190t86.5 168.5t137.5 120.5t176.5 46
q148 0 207 -152l43 117h115z" />
    <glyph glyph-name="A" unicode="A" horiz-adv-x="1193" 
d="M-12 0l514 1317h192l514 -1317h-192l-144 395h-557l-147 -395h-180zM594 1157l-223 -612h444l-217 612h-4z" />
    <glyph glyph-name="B" unicode="B" horiz-adv-x="1263" 
d="M319 602v-455h439q113 0 179.5 64t66.5 172q0 50 -16 88.5t-42 63t-63.5 40t-77 21.5t-86.5 6h-400zM143 0v1317h478q82 0 129.5 -1.5t115 -13t103.5 -34.5q70 -40 112.5 -111t42.5 -164q0 -104 -51.5 -181t-142.5 -114v-4q120 -24 185 -108t65 -207q0 -100 -44.5 -184.5
t-138 -139.5t-219.5 -55h-635zM319 1167v-415h351q147 0 212.5 51.5t65.5 157.5q0 53 -15 91t-39 60t-62 34.5t-75 16.5t-87 4h-351z" />
    <glyph glyph-name="C" unicode="C" horiz-adv-x="1331" 
d="M1243 920h-174q-27 135 -127.5 207.5t-241.5 72.5q-113 0 -200.5 -44t-139.5 -120t-78 -169t-26 -199q0 -116 26 -213.5t78.5 -174.5t139.5 -120t202 -43q167 0 267.5 105.5t111.5 273.5h176q-25 -248 -173.5 -388.5t-395.5 -140.5q-150 0 -267.5 53t-191 146.5
t-111.5 217t-38 269.5q0 145 40.5 270.5t117.5 220.5t196.5 149.5t267.5 54.5q213 0 362 -112t179 -316z" />
    <glyph glyph-name="D" unicode="D" horiz-adv-x="1298" 
d="M143 0v1317h453q308 0 470.5 -157.5t162.5 -471.5q0 -688 -633 -688h-453zM319 1167v-1020h291q32 0 62.5 3t77 15.5t85.5 33t80.5 60t70.5 92.5t48 134t19 181q0 246 -103 373.5t-336 127.5h-295z" />
    <glyph glyph-name="E" unicode="E" horiz-adv-x="1126" 
d="M143 0v1317h910v-150h-734v-415h685v-150h-685v-455h740v-147h-916z" />
    <glyph glyph-name="F" unicode="F" horiz-adv-x="1058" 
d="M143 0v1317h865v-150h-689v-415h605v-150h-605v-602h-176z" />
    <glyph glyph-name="G" unicode="G" horiz-adv-x="1398" 
d="M1174 0l-46 164q-73 -98 -185.5 -147.5t-235.5 -49.5q-143 0 -263 56t-198.5 149t-122 212.5t-43.5 248.5q0 116 25 221.5t76.5 195.5t125 156.5t176 104t224.5 37.5q148 0 263.5 -44t196.5 -144t105 -249h-174q-25 143 -131 216t-260 73q-115 0 -204 -47t-141.5 -127
t-79 -177.5t-26.5 -207.5q0 -140 50.5 -257.5t155 -192t245.5 -74.5q198 0 313.5 122t107.5 306h-421v147h577v-692h-110z" />
    <glyph glyph-name="H" unicode="H" horiz-adv-x="1331" 
d="M143 0v1317h176v-565h693v565h176v-1317h-176v602h-693v-602h-176z" />
    <glyph glyph-name="I" unicode="I" horiz-adv-x="477" 
d="M152 0v1317h174v-1317h-174z" />
    <glyph glyph-name="J" unicode="J" horiz-adv-x="956" 
d="M813 1317v-989q0 -56 -12 -106t-40.5 -97.5t-72 -82t-111 -55t-153.5 -20.5q-185 0 -284 99.5t-99 285.5v80h174v-53q0 -127 46 -194.5t165 -67.5q116 0 164.5 60.5t48.5 176.5v963h174z" />
    <glyph glyph-name="K" unicode="K" horiz-adv-x="1228" 
d="M143 0v1317h176v-658l666 658h227l-555 -533l578 -784h-221l-475 666l-220 -205v-461h-176z" />
    <glyph glyph-name="L" unicode="L" horiz-adv-x="1024" 
d="M143 0v1317h176v-1170h697v-147h-873z" />
    <glyph glyph-name="M" unicode="M" horiz-adv-x="1605" 
d="M147 0v1317h240l416 -1106l416 1106h239v-1317h-166v1096h-4l-411 -1096h-150l-410 1096h-4v-1096h-166z" />
    <glyph glyph-name="N" unicode="N" horiz-adv-x="1331" 
d="M141 0v1317h187l694 -1069h2v1069h168v-1317h-193l-688 1057h-4v-1057h-166z" />
    <glyph glyph-name="O" unicode="O" horiz-adv-x="1400" 
d="M70 657q0 109 25 209.5t77 188.5t125.5 153t177 102.5t225.5 37.5t225.5 -37.5t177.5 -102.5t126 -153t77 -188.5t25 -209.5q0 -108 -25 -208.5t-77 -188t-126 -153t-177.5 -103t-225.5 -37.5q-152 0 -274 57.5t-198.5 154.5t-117 219.5t-40.5 258.5zM246 657
q0 -103 27 -197t80 -172t142.5 -124.5t204.5 -46.5q116 0 206 46.5t143 124.5t79.5 171.5t26.5 197.5t-26.5 198t-79.5 172.5t-143 125.5t-206 47q-93 0 -169.5 -31t-128.5 -83.5t-88 -122.5t-52 -147t-16 -159z" />
    <glyph glyph-name="P" unicode="P" horiz-adv-x="1193" 
d="M143 0v1317h578q194 0 298.5 -102.5t104.5 -286.5q0 -185 -104.5 -287.5t-298.5 -101.5h-402v-539h-176zM319 1167v-481h343q286 -3 286 242q0 239 -286 239h-343z" />
    <glyph glyph-name="Q" unicode="Q" horiz-adv-x="1400" 
d="M1305 -4l-88 -111l-201 162q-135 -80 -316 -80q-152 0 -274 57.5t-198.5 154.5t-117 219.5t-40.5 258.5q0 109 25 209.5t77 188.5t125.5 153t177 102.5t225.5 37.5t225.5 -37.5t177.5 -102.5t126 -153t77 -188.5t25 -209.5q0 -154 -51.5 -290.5t-149.5 -231.5zM737 268
l92 109l175 -141q75 74 113 185.5t38 235.5q0 104 -26.5 198t-79.5 172.5t-143 125.5t-206 47q-93 0 -169.5 -31t-128.5 -83.5t-88 -122.5t-52 -147t-16 -159q0 -103 27 -197t80 -172t142.5 -124.5t204.5 -46.5q102 0 183 37z" />
    <glyph glyph-name="R" unicode="R" horiz-adv-x="1263" 
d="M319 709h365q67 0 117.5 10t94.5 34.5t67.5 72.5t23.5 118q0 102 -57.5 162.5t-175.5 60.5h-435v-458zM143 0v1317h621q184 0 291.5 -93.5t107.5 -252.5q0 -124 -57 -212.5t-172 -119.5v-4q56 -11 93.5 -36.5t58 -64.5t30 -78t14.5 -94q2 -24 5.5 -76.5t6.5 -83
t10.5 -71.5t21 -73t34.5 -58h-194q-21 23 -27.5 73.5t-8 126t-11.5 124.5q-8 56 -19 93.5t-34.5 73t-65.5 53t-103 17.5h-426v-561h-176z" />
    <glyph glyph-name="S" unicode="S" horiz-adv-x="1193" 
d="M1071 932h-166q-15 135 -100 201.5t-225 66.5q-47 0 -88.5 -6.5t-80.5 -23t-67 -41.5t-44.5 -64.5t-16.5 -89.5q0 -26 6.5 -48.5t23 -41t32 -32.5t46 -27t51.5 -21.5t61.5 -18.5t63.5 -15t70 -15t70 -15q73 -17 125 -33.5t111.5 -47.5t96.5 -69t61.5 -97t24.5 -134
q0 -81 -30.5 -148t-81 -111.5t-118 -75.5t-139 -44.5t-145.5 -13.5q-113 0 -210 28.5t-172.5 84t-118.5 146t-43 206.5h165q0 -79 31.5 -141t85.5 -99t121.5 -56t144.5 -19q65 0 120.5 11t105.5 36.5t79 74t29 115.5q0 35 -11 64.5t-28 51t-47.5 40.5t-58 31t-71 24.5
t-75.5 20t-83 18.5q-10 2 -15.5 3.5t-14.5 3t-16 3.5q-62 13 -105.5 25t-96.5 31.5t-88.5 44.5t-67.5 59.5t-47.5 82t-15.5 106.5q0 96 40.5 171.5t108.5 121t151.5 69t176.5 23.5q103 0 188 -25t151 -74.5t104 -130t42 -186.5z" />
    <glyph glyph-name="T" unicode="T" horiz-adv-x="1058" 
d="M442 0v1167h-438v150h1053v-150h-441v-1167h-174z" />
    <glyph glyph-name="U" unicode="U" horiz-adv-x="1331" 
d="M1194 1317v-842q0 -247 -134.5 -377.5t-381.5 -130.5q-261 0 -401 125.5t-140 382.5v842h174v-842q0 -173 96 -265.5t271 -92.5q165 0 253.5 92.5t88.5 265.5v842h174z" />
    <glyph glyph-name="V" unicode="V" horiz-adv-x="1126" 
d="M1128 1317l-466 -1317h-199l-465 1317h190l375 -1143h4l381 1143h180z" />
    <glyph glyph-name="W" unicode="W" horiz-adv-x="1705" 
d="M1686 1317l-353 -1317h-182l-301 1106h-4l-303 -1106h-185l-335 1317h178l258 -1096h4l295 1096h190l289 -1096h4l268 1096h177z" />
    <glyph glyph-name="X" unicode="X" horiz-adv-x="1126" 
d="M-2 0l459 678l-432 639h208l328 -514l344 514h197l-436 -639l462 -678h-215l-352 545l-366 -545h-197z" />
    <glyph glyph-name="Y" unicode="Y" horiz-adv-x="1193" 
d="M1192 1317l-504 -778v-539h-176v539l-508 778h209l393 -629l385 629h201z" />
    <glyph glyph-name="Z" unicode="Z" horiz-adv-x="1126" 
d="M41 0v147l817 1020h-756v150h965v-150l-819 -1020h839v-147h-1046z" />
    <glyph glyph-name="bracketleft" unicode="[" horiz-adv-x="477" 
d="M477 1348v-125h-196v-1463h196v-125h-346v1713h346z" />
    <glyph glyph-name="backslash" unicode="\" horiz-adv-x="614" 
d="M102 1348l545 -1381h-135l-545 1381h135z" />
    <glyph glyph-name="bracketright" unicode="]" horiz-adv-x="477" 
d="M0 -365v125h197v1463h-197v125h344v-1713h-344z" />
    <glyph glyph-name="asciicircum" unicode="^" horiz-adv-x="1105" 
d="M92 487l402 797h118l402 -797h-129l-334 664l-328 -664h-131z" />
    <glyph glyph-name="underscore" unicode="_" horiz-adv-x="921" 
d="M0 -229v90h922v-90h-922z" />
    <glyph glyph-name="grave" unicode="`" horiz-adv-x="409" 
d="M199 1083l-242 265h201l159 -265h-118z" />
    <glyph glyph-name="a" unicode="a" horiz-adv-x="1069" 
d="M764 358v174q-23 -17 -61.5 -29t-71.5 -17t-87.5 -12.5t-84.5 -12.5q-46 -7 -80.5 -19t-64.5 -32.5t-46 -54t-16 -79.5q0 -78 56 -113.5t143 -35.5q79 0 142 22.5t98.5 58t54 74.5t18.5 76zM1040 135v-131q-50 -29 -120 -29q-68 0 -106 39.5t-38 120.5
q-138 -160 -362 -160q-98 0 -172.5 28.5t-122 95t-47.5 165.5q0 49 10.5 90t27.5 70.5t44.5 53.5t55 39.5t66 28.5t70 20.5t74.5 15.5q37 7 90 15t84.5 12.5t68 14t56.5 22t33.5 34.5t13.5 53q0 53 -19.5 88.5t-54.5 53t-71 24t-82 6.5q-118 0 -185 -44t-73 -150h-170
q4 74 28.5 133t64.5 98t95.5 65t117 37t132.5 11q61 0 111.5 -6t103.5 -24.5t89.5 -49t59.5 -82.5t23 -121v-530q0 -30 0.5 -43.5t3 -31t8 -24t15.5 -11.5t26 -5q31 0 51 8z" />
    <glyph glyph-name="b" unicode="b" horiz-adv-x="1181" 
d="M930 524q0 74 -19.5 141t-57 121.5t-100 86.5t-141.5 32q-83 0 -145.5 -33t-98.5 -89t-53.5 -123.5t-17.5 -143.5q0 -63 11 -118.5t36 -106t62 -86.5t92.5 -57t124.5 -21q83 0 144.5 33t96 91t50.5 125.5t16 147.5zM133 0v1423h170v-532h2q43 82 131.5 123t200.5 41
q92 0 170 -28.5t133 -79t94 -119t57.5 -148.5t18.5 -168q0 -111 -30 -207.5t-87 -170.5t-148 -116.5t-206 -42.5q-92 0 -186.5 39t-147.5 123h-2v-137h-170z" />
    <glyph glyph-name="c" unicode="c" horiz-adv-x="1069" 
d="M1001 698h-174q-20 99 -85.5 153t-170.5 54q-88 0 -152 -32.5t-99.5 -90.5t-51.5 -127t-16 -153q0 -73 17.5 -138.5t52 -119.5t93.5 -85.5t136 -31.5q122 0 195 65t90 185h172q-28 -190 -145 -296t-308 -106q-230 0 -356.5 145.5t-126.5 381.5q0 118 30.5 218t89.5 175
t152.5 117.5t212.5 42.5q186 0 306.5 -89.5t137.5 -267.5z" />
    <glyph glyph-name="d" unicode="d" horiz-adv-x="1181" 
d="M1049 1423v-1423h-168v139h-7q-40 -81 -128 -122.5t-199 -41.5q-153 0 -262.5 76t-161 197t-51.5 270q0 111 30 207t87 170.5t148 117t206 42.5q92 0 185.5 -39t145.5 -123h7v530h168zM252 506q0 -101 32.5 -184.5t106 -139t178.5 -55.5q82 0 144.5 33t99 89t54.5 123
t18 142q0 79 -18.5 147.5t-56.5 124t-102.5 87.5t-148.5 32q-83 0 -144 -33t-95.5 -91t-51 -126.5t-16.5 -148.5z" />
    <glyph glyph-name="e" unicode="e" horiz-adv-x="1069" 
d="M840 328h168q-35 -169 -151.5 -261t-291.5 -92q-120 0 -213.5 40t-153 113.5t-91 171.5t-35.5 218q0 232 137 384.5t346 152.5q106 0 190 -37.5t136.5 -98t86.5 -140t46.5 -158t9.5 -158.5h-772q-5 -143 77 -239.5t242 -96.5q107 0 176.5 51t92.5 150zM252 614h592
q-6 123 -89.5 207t-207.5 84q-129 0 -208 -83.5t-87 -207.5z" />
    <glyph glyph-name="f" unicode="f" horiz-adv-x="589" 
d="M199 0v881h-174v149h174v154q0 126 72 191t210 65q55 0 111 -17v-147q-54 14 -96 14q-65 0 -97 -25.5t-32 -90.5v-144h198v-149h-198v-881h-168z" />
    <glyph glyph-name="g" unicode="g" horiz-adv-x="1144" 
d="M543 137q64 0 116.5 23t87.5 61.5t58.5 90.5t34 108.5t10.5 116.5q0 71 -16.5 134t-50 117t-92.5 85.5t-136 31.5q-78 0 -137.5 -30.5t-95 -84t-53 -119.5t-17.5 -143q0 -74 14.5 -139.5t46.5 -124t91 -93t139 -34.5zM1018 1030v-942q0 -253 -118.5 -379.5t-360.5 -126.5
q-61 0 -118.5 9.5t-113 32t-97 56.5t-69 86.5t-30.5 118.5h170q4 -59 48.5 -98.5t101 -54.5t118.5 -15q159 0 234 104t75 288v65h-4q-41 -90 -130.5 -138t-191.5 -48q-112 0 -201 42t-144.5 114.5t-85 166t-29.5 201.5q0 76 15 149.5t51 146t89 126.5t136 87.5t186 33.5
q99 0 180 -44t127 -128h2v147h160z" />
    <glyph glyph-name="h" unicode="h" horiz-adv-x="1107" 
d="M127 0v1423h170v-542h4q39 85 131 129.5t195 44.5q191 0 272.5 -99t81.5 -278v-678h-168v696q0 95 -57 152t-154 57q-148 0 -226.5 -89.5t-78.5 -233.5v-582h-170z" />
    <glyph glyph-name="i" unicode="i" horiz-adv-x="442" 
d="M137 0v1030h168v-1030h-168zM305 1423v-209h-168v209h168z" />
    <glyph glyph-name="j" unicode="j" horiz-adv-x="442" 
d="M305 1030v-1161q0 -134 -64.5 -198t-181.5 -64q-47 0 -88 8v143q25 -4 72 -4q54 0 74 31t20 113v1132h168zM305 1423v-209h-168v209h168z" />
    <glyph glyph-name="k" unicode="k" horiz-adv-x="1034" 
d="M137 0v1423h168v-843l473 450h226l-408 -375l438 -655h-215l-352 539l-162 -150v-389h-168z" />
    <glyph glyph-name="l" unicode="l" horiz-adv-x="442" 
d="M137 0v1423h168v-1423h-168z" />
    <glyph glyph-name="m" unicode="m" horiz-adv-x="1701" 
d="M127 0v1030h160v-149h4q115 174 334 174q100 0 175.5 -43t106.5 -131q53 82 138.5 128t185.5 46q161 0 251.5 -72.5t90.5 -226.5v-756h-168v676q0 51 -8.5 90t-30 71.5t-62.5 50t-100 17.5q-123 0 -195.5 -72t-72.5 -192v-641h-172v676q0 110 -43 169.5t-150 59.5
q-57 0 -105 -20t-78.5 -50.5t-51.5 -67t-30 -69t-9 -57.5v-641h-170z" />
    <glyph glyph-name="n" unicode="n" horiz-adv-x="1107" 
d="M127 0v1030h160v-164h4q108 189 336 189q191 0 272.5 -99t81.5 -278v-678h-168v696q0 95 -57 152t-154 57q-148 0 -226.5 -89.5t-78.5 -233.5v-582h-170z" />
    <glyph glyph-name="o" unicode="o" horiz-adv-x="1144" 
d="M72 514q0 115 32.5 213t94 171t157.5 115t215 42q120 0 216.5 -42t158 -115t94.5 -171t33 -213q0 -153 -56 -273.5t-171.5 -193t-274.5 -72.5q-119 0 -215 41.5t-157.5 115t-94 171t-32.5 211.5zM252 514q0 -182 90 -284.5t229 -102.5t230.5 103t91.5 284
q0 182 -91.5 286.5t-230.5 104.5q-138 0 -228.5 -104.5t-90.5 -286.5z" />
    <glyph glyph-name="p" unicode="p" horiz-adv-x="1181" 
d="M930 524q0 74 -19.5 141t-57 121.5t-100 86.5t-141.5 32q-83 0 -145.5 -33t-98.5 -89t-53.5 -123.5t-17.5 -143.5q0 -63 11 -118.5t36 -106t62 -86.5t92.5 -57t124.5 -21q83 0 144.5 33t96 91t50.5 125.5t16 147.5zM133 -393v1423h170v-139h2q43 82 131.5 123t200.5 41
q92 0 170 -28.5t133 -79t94 -119t57.5 -148.5t18.5 -168q0 -111 -30 -207.5t-87 -170.5t-148 -116.5t-206 -42.5q-92 0 -186.5 39t-147.5 123h-2v-530h-170z" />
    <glyph glyph-name="q" unicode="q" horiz-adv-x="1181" 
d="M1049 1030v-1423h-168v532h-7q-40 -81 -128 -122.5t-199 -41.5q-153 0 -262.5 76t-161 197t-51.5 270q0 111 30 207t87 170.5t148 117t206 42.5q92 0 185.5 -39t145.5 -123h7v137h168zM252 506q0 -101 32.5 -184.5t106 -139t178.5 -55.5q82 0 144.5 33t99 89t54.5 123
t18 142q0 79 -18.5 147.5t-56.5 124t-102.5 87.5t-148.5 32q-83 0 -144 -33t-95.5 -91t-51 -126.5t-16.5 -148.5z" />
    <glyph glyph-name="r" unicode="r" horiz-adv-x="663" 
d="M123 0v1030h158v-217h4q63 127 154 186.5t225 55.5v-181q-198 0 -285.5 -105.5t-87.5 -309.5v-459h-168z" />
    <glyph glyph-name="s" unicode="s" horiz-adv-x="997" 
d="M61 326h170q2 -56 25.5 -96t63.5 -61.5t86.5 -31.5t101.5 -10q36 0 67.5 3.5t66 13.5t59.5 26t41 44t16 65q0 20 -5.5 37t-13 30.5t-22.5 25.5t-28.5 20.5t-36 17.5t-39.5 14.5t-45.5 13t-47 11.5t-50.5 11t-50 11q-58 13 -99.5 25.5t-89.5 35.5t-77.5 52t-49.5 74.5
t-20 103.5q0 60 23 109.5t60.5 83t88 56.5t104 33.5t109.5 10.5q407 0 422 -324h-170q-7 91 -75.5 132.5t-164.5 41.5q-41 0 -77 -6t-69.5 -20t-53 -41t-19.5 -64q0 -26 9.5 -46.5t31 -36.5t41.5 -27.5t57.5 -22t61 -16.5t69 -16t66.5 -15q61 -14 102.5 -26.5t90.5 -35.5
t78 -52t49 -75t20 -104q0 -71 -25.5 -128t-68 -93.5t-100.5 -60.5t-118 -34t-126 -10q-91 0 -166 19.5t-136.5 59.5t-97 109.5t-39.5 162.5z" />
    <glyph glyph-name="t" unicode="t" horiz-adv-x="626" 
d="M365 1339v-309h204v-149h-204v-639q0 -59 23 -75.5t104 -16.5h77v-150h-131q-70 0 -113 8.5t-74 33.5t-43.5 68.5t-12.5 114.5v656h-177v149h177v309h170z" />
    <glyph glyph-name="u" unicode="u" horiz-adv-x="1107" 
d="M981 1030v-1030h-160v164h-4q-107 -189 -336 -189q-191 0 -272.5 99t-81.5 278v678h170v-696q0 -94 56.5 -150.5t152.5 -56.5q150 0 228.5 88.5t78.5 233.5v581h168z" />
    <glyph glyph-name="v" unicode="v" horiz-adv-x="997" 
d="M969 1030l-377 -1030h-180l-383 1030h188l289 -860h6l281 860h176z" />
    <glyph glyph-name="w" unicode="w" horiz-adv-x="1511" 
d="M1477 1030l-328 -1030h-180l-209 819h-4l-207 -819h-184l-330 1030h184l236 -842h4l207 842h186l215 -842h2l231 842h177z" />
    <glyph glyph-name="x" unicode="x" horiz-adv-x="1032" 
d="M18 0l388 543l-361 487h217l250 -360l254 360h205l-355 -475l400 -555h-219l-285 426l-291 -426h-203z" />
    <glyph glyph-name="y" unicode="y" horiz-adv-x="997" 
d="M981 1030l-449 -1167q-60 -155 -124 -216t-175 -61q-67 0 -118 21v153q73 -22 100 -22q50 0 82 22.5t57 69.5l70 174l-410 1026h195l299 -842h4l289 842h180z" />
    <glyph glyph-name="z" unicode="z" horiz-adv-x="956" 
d="M43 0v129l623 752h-582v149h801v-115l-629 -765h657v-150h-870z" />
    <glyph glyph-name="braceleft" unicode="{" horiz-adv-x="614" 
d="M569 1348v-111h-92q-88 0 -88 -160v-336q0 -61 -18.5 -109.5t-47 -76t-51.5 -41.5t-43 -20v-5q15 -2 33 -10t41 -26.5t41.5 -44.5t31.5 -69.5t13 -96.5v-336q0 -162 88 -162h92v-109h-129q-76 0 -137 65.5t-61 176.5v336q0 96 -46 154.5t-108 58.5v127q61 0 107.5 61.5
t46.5 155.5v336q0 111 61 176.5t137 65.5h129z" />
    <glyph glyph-name="bar" unicode="|" horiz-adv-x="409" 
d="M141 -393v1843h125v-1843h-125z" />
    <glyph glyph-name="braceright" unicode="}" horiz-adv-x="614" 
d="M43 -365v109h94q88 0 88 162v336q0 49 12.5 91t31 68t42 46t41 29t33.5 13v5q-20 3 -44 15.5t-51.5 38.5t-46 76.5t-18.5 116.5v334q0 162 -88 162h-94v111h131q75 0 137 -65.5t62 -176.5v-336q0 -96 46 -156.5t107 -60.5v-127q-61 0 -107 -60t-46 -153v-336
q0 -111 -62 -176.5t-137 -65.5h-131z" />
    <glyph glyph-name="asciitilde" unicode="~" horiz-adv-x="1105" 
d="M913 588l66 -92q-26 -37 -44.5 -59t-47.5 -48t-63.5 -38.5t-75.5 -12.5q-82 0 -187 59q-40 23 -64.5 35t-67 24.5t-81.5 12.5q-29 0 -53.5 -12t-44 -35t-31 -42.5t-26.5 -49.5l-66 92q83 158 229 158q74 0 205 -58q18 -8 51 -24t52.5 -25t44.5 -16.5t43 -7.5q24 0 45 9.5
t42.5 32.5t32 37t32.5 47q6 9 9 13z" />
    <glyph glyph-name="uni00A0" unicode="&#xa0;" horiz-adv-x="438" 
 />
    <glyph glyph-name="reporterlogo" unicode="&#xa2;" horiz-adv-x="1282" 
d="M94 604v498h504v-498h-504zM1200 1102v-498h-500v498h500zM94 0v498h504v-498h-504zM977 567l305 -309l-305 -305l-309 305z" />
    <glyph glyph-name="uni00AD" unicode="&#xad;" horiz-adv-x="761" 
d="M154 442v138h608v-138h-608z" />
    <glyph glyph-name="onequarter" unicode="&#xbc;" horiz-adv-x="1372" 
d="M246 -45l717 1239h104l-715 -1239h-106zM362 455v716h-79l-172 -55v-96l139 37v-602h112zM1290 236h-90v471h-174l-324 -494v-76h371v-137h127v137h90v99zM1073 598v-362h-231z" />
    <glyph glyph-name="onehalf" unicode="&#xbd;" horiz-adv-x="1372" 
d="M221 -45l715 1239h106l-714 -1239h-107zM362 455v716h-79l-172 -55v-96l139 37v-602h112zM1051 215q149 0 214.5 59t65.5 185q0 252 -266 252q-264 0 -264 -244h117q0 48 12.5 79.5t36 45t45.5 18t53 4.5q89 0 117 -37.5t28 -121.5q0 -72 -43 -109t-102 -37
q-264 0 -264 -190v-117h526v98h-403v25q0 53 33.5 71.5t93.5 18.5z" />
    <glyph glyph-name="threequarters" unicode="&#xbe;" horiz-adv-x="1372" 
d="M346 -45l713 1239h108l-718 -1239h-103zM289 786v80h45q58 0 95.5 26.5t37.5 82.5q0 48 -35 73t-90 25q-65 0 -99 -37.5t-34 -101.5h-115q6 106 72 170.5t176 64.5q104 0 171 -51.5t67 -142.5q0 -45 -31.5 -82.5t-81.5 -58.5v-5q70 -10 106.5 -55t36.5 -112
q0 -102 -77.5 -157.5t-186.5 -55.5q-117 0 -191.5 61.5t-74.5 171.5h113q0 -69 39.5 -105t113.5 -36q63 0 107.5 31.5t44.5 84.5q0 66 -44 97.5t-108 31.5h-57zM1307 236h-90v471h-175l-325 -494v-76h373v-137h127v137h90v99zM1090 598v-362h-232z" />
    <glyph glyph-name="multiply" unicode="&#xd7;" horiz-adv-x="997" 
d="M238 152l-76 77l295 303l-293 295l76 78l301 -297l295 297l77 -78l-295 -295l295 -303l-77 -77l-295 299z" />
    <glyph glyph-name="uni0D02" unicode="&#xd02;" horiz-adv-x="923" 
d="M166 379q0 77 20 140.5t55.5 108t83.5 75t103.5 45t116.5 14.5t116.5 -14.5t103.5 -45t83.5 -75t55.5 -108t20 -140.5q0 -124 -53.5 -212.5t-137.5 -129.5t-188 -41t-188 41t-137.5 129.5t-53.5 212.5zM737 381q0 121 -44 174t-154 53q-104 0 -147.5 -53.5t-43.5 -173.5
q0 -114 44.5 -174t146.5 -60q110 0 154 59t44 175z" />
    <glyph glyph-name="uni0D03" unicode="&#xd03;" horiz-adv-x="690" 
d="M166 717q0 112 75.5 169.5t186.5 57.5q113 0 187.5 -57.5t74.5 -169.5q0 -100 -75.5 -155.5t-186.5 -55.5q-109 0 -185.5 56t-76.5 155zM530 721q0 45 -25.5 72.5t-80.5 27.5q-52 0 -78.5 -27.5t-26.5 -72.5q0 -37 27.5 -65.5t77.5 -28.5q54 0 80 27.5t26 66.5zM166 205
q0 110 75 166.5t187 56.5q113 0 187.5 -56t74.5 -167q0 -103 -75 -158t-187 -55q-111 0 -186.5 55t-75.5 158zM530 209q0 41 -25.5 67.5t-80.5 26.5q-51 0 -78 -26.5t-27 -67.5q0 -37 27.5 -65.5t77.5 -28.5q54 0 80 27.5t26 66.5z" />
    <glyph glyph-name="uni0D05" unicode="&#xd05;" horiz-adv-x="2609" 
d="M977 -10q-393 0 -393 479q0 65 9.5 126.5t31 129.5t64.5 128.5t104 102.5q-27 2 -80 2q-199 0 -283 -104.5t-84 -314.5q0 -83 6.5 -145t23.5 -119t51 -87t85 -30v-160q-83 0 -146 30.5t-100 80t-60.5 122.5t-31.5 146t-8 162q0 278 142 422.5t397 144.5q152 0 251 -70
q119 68 273 68q114 0 215 -44.5t172 -129.5q147 180 430 180q261 0 412 -155t151 -416q0 -549 -362 -549q-166 0 -259.5 108.5t-93.5 337.5q0 210 95.5 329.5t281.5 141.5q-111 51 -217 51q-172 0 -261 -80t-89 -208v-668h-178v668q-4 131 -86 213t-205 82q-18 0 -94 -13
q74 -34 114.5 -92.5t40.5 -120.5q0 -161 -174 -200q118 -16 176 -86t58 -170q0 -127 -98.5 -210t-280.5 -83zM961 911q-61 -37 -102 -89t-60 -112t-26 -112.5t-7 -114.5q0 -43 1.5 -75t6.5 -69t13.5 -63t24.5 -52t38 -42t54 -25.5t73 -9.5q94 0 142 41.5t48 112.5
q0 86 -47.5 121t-148.5 35h-84v147h51q87 0 127.5 32t40.5 109q0 129 -145 166zM2378 778q-88 -4 -145.5 -27t-90.5 -67.5t-46 -103t-13 -144.5q0 -56 3.5 -96t13.5 -79t28 -63t49 -38.5t74 -14.5q35 0 63 13t46.5 32.5t31.5 53t19.5 64t10 77t4.5 80t1 84.5q0 139 -49 229z
" />
    <glyph glyph-name="uni0D06" unicode="&#xd06;" horiz-adv-x="2969" 
d="M2787 279q0 312 -188 383q10 -68 10 -123q0 -549 -362 -549q-165 0 -259 105t-94 317q0 89 24 162t65 122.5t97 83t119 49t132 15.5q-96 114 -277 114q-172 0 -261 -80t-89 -208v-668h-178v668q-4 131 -86 213t-205 82q-54 0 -94 -13q74 -34 114.5 -92.5t40.5 -120.5
q0 -161 -174 -200q118 -16 176 -86t58 -170q0 -127 -98.5 -210t-280.5 -83q-393 0 -393 479q0 65 9.5 126.5t31 129.5t64.5 128.5t104 102.5q-27 2 -80 2q-199 0 -283 -104.5t-84 -314.5q0 -83 6.5 -145t23.5 -119t51 -87t85 -30v-160q-83 0 -146 30.5t-100 80t-60.5 122.5
t-31.5 146t-8 162q0 278 142 422.5t397 144.5q152 0 251 -70q119 68 273 68q114 0 215 -44.5t172 -129.5q147 180 430 180q177 0 306 -73t194 -208q197 -27 310.5 -166t113.5 -384q0 -96 -20 -181t-66 -162.5t-116 -133t-176 -88.5t-239 -33q-207 0 -337 64t-177 179l166 45
q26 -56 116.5 -97.5t231.5 -41.5q122 0 208 33t134.5 95t70 140.5t21.5 180.5zM961 911q-61 -37 -102 -89t-60 -112t-26 -112.5t-7 -114.5q0 -43 1.5 -75t6.5 -69t13.5 -63t24.5 -52t38 -42t54 -25.5t73 -9.5q94 0 142 41.5t48 112.5q0 86 -47.5 121t-148.5 35h-84v147h51
q87 0 127.5 32t40.5 109q0 129 -145 166zM2427 549q0 79 -19 153q-175 4 -250 -69t-75 -219q0 -49 3.5 -85t13.5 -72.5t28 -59.5t49 -37.5t74 -14.5q35 0 63 13t46.5 32.5t31.5 53t19.5 64t10 77t4.5 80t1 84.5z" />
    <glyph glyph-name="uni0D07" unicode="&#xd07;" horiz-adv-x="1867" 
d="M1391 12h-961q-46 0 -67 -25t-21 -53q0 -29 21 -54.5t67 -26.5h1382v-158h-1361q-41 0 -78 5.5t-76.5 21.5t-68 40.5t-46.5 66.5t-18 97q0 52 18 94.5t46.5 69t66.5 44.5t75.5 25t75.5 7h889q353 0 353 393q0 36 -1 64t-7.5 73.5t-18 80t-33.5 73.5t-52.5 64t-78 42
t-106.5 17q-56 0 -98 -19t-65 -46.5t-37 -67t-18 -73t-4 -71.5v-442h-184l2 442q0 62 -22 111t-57 79.5t-83.5 50.5t-97.5 28t-102 8q-124 0 -209 -69t-94 -167q53 82 174 82q125 0 202.5 -80t77.5 -227q0 -145 -88 -217t-223 -72q-66 0 -117.5 21t-85 57t-55.5 87.5
t-31.5 109.5t-9.5 127q0 239 134 360t376 121q104 0 210 -36t181 -118q50 73 139.5 113.5t190.5 40.5t184.5 -32t148.5 -96.5t101.5 -171.5t36.5 -247q0 -259 -125 -403t-352 -144zM457 684q-44 0 -72 -27.5t-37.5 -60.5t-9.5 -70q0 -29 5.5 -55t18.5 -50.5t37 -39t58 -14.5
q141 0 141 159q0 27 -5.5 51.5t-20 50.5t-44 41t-71.5 15z" />
    <glyph glyph-name="uni0D08" unicode="&#xd08;" horiz-adv-x="3190" 
d="M1391 12h-961q-46 0 -67 -25t-21 -53q0 -29 21 -54.5t67 -26.5h1382v-158h-1361q-41 0 -78 5.5t-76.5 21.5t-68 40.5t-46.5 66.5t-18 97q0 52 18 94.5t46.5 69t66.5 44.5t75.5 25t75.5 7h889q353 0 353 393q0 36 -1 64t-7.5 73.5t-18 80t-33.5 73.5t-52.5 64t-78 42
t-106.5 17q-56 0 -98 -19t-65 -46.5t-37 -67t-18 -73t-4 -71.5v-442h-184l2 442q0 62 -22 111t-57 79.5t-83.5 50.5t-97.5 28t-102 8q-124 0 -209 -69t-94 -167q53 82 174 82q125 0 202.5 -80t77.5 -227q0 -145 -88 -217t-223 -72q-66 0 -117.5 21t-85 57t-55.5 87.5
t-31.5 109.5t-9.5 127q0 239 134 360t376 121q104 0 210 -36t181 -118q50 73 139.5 113.5t190.5 40.5t184.5 -32t148.5 -96.5t101.5 -171.5t36.5 -247q0 -259 -125 -403t-352 -144zM457 684q-44 0 -72 -27.5t-37.5 -60.5t-9.5 -70q0 -29 5.5 -55t18.5 -50.5t37 -39t58 -14.5
q141 0 141 159q0 27 -5.5 51.5t-20 50.5t-44 41t-71.5 15zM2666 793v-181h-169v181q0 77 -37 124.5t-95 47.5q-47 0 -80.5 -26.5t-52 -78t-27.5 -110t-12 -138.5h-172q11 256 102 376t236 120t221 -100q87 100 244 100q367 0 367 -530q0 -302 -134 -443t-391 -141
q-222 0 -339 90.5t-117 292.5v20h176v-20q0 -121 65 -177.5t218 -56.5q84 0 145.5 23.5t97 61.5t56.5 97t27.5 117.5t6.5 135.5q0 73 -4 126.5t-16.5 105t-33.5 84t-56 52t-84 19.5q-62 0 -102 -47.5t-40 -124.5z" />
    <glyph glyph-name="uni0D09" unicode="&#xd09;" horiz-adv-x="1286" 
d="M457 684q-44 0 -72 -27.5t-37.5 -60.5t-9.5 -70q0 -29 5.5 -55t18.5 -50.5t37 -39t58 -14.5q141 0 141 159q0 27 -5.5 51.5t-20 50.5t-44 41t-71.5 15zM446 166h314q348 0 348 381q0 38 -1.5 65t-10 75t-24 82.5t-46.5 75.5t-74 67t-111 43.5t-153 17.5
q-183 0 -269.5 -65t-96.5 -171q53 82 174 82q125 0 202.5 -80t77.5 -227q0 -145 -88 -217t-223 -72q-66 0 -117.5 21t-85 57t-55.5 87.5t-31.5 109.5t-9.5 127q0 481 549 481q128 0 230.5 -32t179.5 -96.5t119 -171t42 -247.5q0 -259 -125 -403t-352 -144h-379
q-46 0 -67 -25t-21 -53q0 -29 21 -54.5t67 -26.5h793v-158h-772q-41 0 -78 5.5t-76.5 21.5t-68 40.5t-46.5 66.5t-18 97q0 52 18 94.5t46.5 69t66.5 44.5t75.5 25t75.5 7z" />
    <glyph glyph-name="uni0D0A" unicode="&#xd0a;" horiz-adv-x="2615" 
d="M457 684q-44 0 -72 -27.5t-37.5 -60.5t-9.5 -70q0 -29 5.5 -55t18.5 -50.5t37 -39t58 -14.5q141 0 141 159q0 27 -5.5 51.5t-20 50.5t-44 41t-71.5 15zM446 166h314q348 0 348 381q0 38 -1.5 65t-10 75t-24 82.5t-46.5 75.5t-74 67t-111 43.5t-153 17.5
q-183 0 -269.5 -65t-96.5 -171q53 82 174 82q125 0 202.5 -80t77.5 -227q0 -145 -88 -217t-223 -72q-66 0 -117.5 21t-85 57t-55.5 87.5t-31.5 109.5t-9.5 127q0 481 549 481q128 0 230.5 -32t179.5 -96.5t119 -171t42 -247.5q0 -259 -125 -403t-352 -144h-379
q-46 0 -67 -25t-21 -53q0 -29 21 -54.5t67 -26.5h793v-158h-772q-41 0 -78 5.5t-76.5 21.5t-68 40.5t-46.5 66.5t-18 97q0 52 18 94.5t46.5 69t66.5 44.5t75.5 25t75.5 7zM2087 793v-181h-170v181q0 76 -36.5 124t-90.5 48q-49 0 -83 -26.5t-52.5 -78t-27.5 -110t-11 -138.5
h-174q11 257 103 376.5t239 119.5q137 0 221 -100q81 100 240 100q370 0 370 -530q0 -303 -134.5 -443.5t-393.5 -140.5q-221 0 -339 91t-118 292v20h178v-20q0 -122 64 -178t217 -56q84 0 145.5 23.5t97.5 61.5t57.5 97t28.5 117.5t7 135.5q0 73 -4 126.5t-16.5 105t-34 84
t-56.5 52t-84 19.5q-63 0 -103 -47.5t-40 -124.5z" />
    <glyph glyph-name="uni0D0B" unicode="&#xd0b;" horiz-adv-x="1536" 
d="M825 356q121 0 216.5 13.5t158 37t103.5 56.5t59 69.5t20 79.5q-24 -47 -80 -75.5t-120 -28.5q-145 0 -226.5 82t-81.5 221q0 135 95.5 216t232.5 81q160 0 248 -107.5t88 -271.5q0 -346 -250 -434q250 -79 250 -264q0 -152 -176 -236t-537 -84q-362 0 -538 84t-176 236
q0 185 249 264q-249 87 -249 434q0 164 87.5 271.5t247.5 107.5q138 0 234 -81t96 -216q0 -139 -81.5 -221t-225.5 -82q-64 0 -121.5 28.5t-81.5 75.5q2 -43 20 -79.5t59.5 -69.5t103.5 -56.5t158 -37t218 -13.5zM301 803q0 -28 6.5 -53t21.5 -50t45 -40t72 -15
q43 0 73.5 15t45.5 40t21 50t6 53q0 30 -6 56t-21 50.5t-45.5 39t-73.5 14.5q-55 0 -89 -27t-45 -60.5t-11 -72.5zM1348 803q0 39 -11 72.5t-45.5 60.5t-89.5 27q-42 0 -72.5 -14.5t-45 -39t-21 -50.5t-6.5 -56q0 -28 6.5 -53t21 -50t45 -40t72.5 -15t72 15t45.5 40t22 50.5
t6.5 52.5zM825 213q-155 0 -259 -13t-158.5 -38t-77 -54.5t-25.5 -70.5q3 -40 25.5 -68.5t76.5 -54t159 -38.5t259 -13q153 0 257 13t158 38.5t76 54t25 68.5q-3 32 -16 57t-47 48t-90 38t-147.5 24t-215.5 9z" />
    <glyph glyph-name="uni0D0E" unicode="&#xd0e;" horiz-adv-x="2301" 
d="M1618 2h-277q18 -79 57 -132.5t103 -53.5q17 0 34 5t37 17.5t33 42.5t13 72v49zM1161 2h-530v148h16q30 0 52 13.5t33 31.5t17.5 46.5t7.5 48.5t1 46q0 38 -3.5 65t-15.5 55.5t-33.5 46t-59.5 29t-91 11.5q-116 0 -160.5 -52.5t-44.5 -140.5q0 -23 0.5 -36.5t3 -41.5
t9 -45.5t17 -37t29 -29.5t42.5 -10h16v-148h-35q-65 0 -114.5 24t-77.5 60t-45.5 85.5t-23 91.5t-5.5 87q0 153 101 250.5t288 97.5q185 0 285 -97.5t100 -250.5q0 -125 -78 -200h275q-15 86 -15 235q0 336 149 528.5t435 192.5q277 0 436.5 -180t159.5 -531
q0 -98 -12.5 -186.5t-42.5 -174t-76 -148t-118.5 -100.5t-164.5 -38v168q60 0 104.5 39t69.5 107.5t37 150.5t12 180q0 97 -10.5 175.5t-38.5 151.5t-72.5 122t-116.5 78.5t-167 29.5q-401 0 -401 -581q0 -145 10 -219h303v696h184v-844q0 -90 -25.5 -158t-68.5 -107.5
t-95.5 -59t-111.5 -19.5q-74 0 -135 30.5t-101 81.5t-66 109.5t-38 122.5z" />
    <glyph glyph-name="uni0D0F" unicode="&#xd0f;" horiz-adv-x="2332" 
d="M1618 2h-277q18 -79 57 -132.5t103 -53.5q17 0 34 5t37 17.5t33 42.5t13 72v49zM1122 385q0 339 153.5 532t446.5 193q111 0 208 -27t175.5 -80.5t124 -142t45.5 -201.5q0 -55 -15 -103.5t-52 -92t-94 -66.5q76 -14 127 -59.5t71.5 -102.5t20.5 -124q0 -75 -20 -138.5
t-62 -115t-115 -80.5t-172 -29h-51v168h51q180 0 180 203q0 90 -45 139t-137 49h-49v156h51q61 0 93 55t32 127q0 146 -101 227.5t-259 81.5q-424 0 -424 -585q0 -145 10 -219h303v696h184v-844q0 -90 -25.5 -158t-68.5 -107.5t-95.5 -59t-111.5 -19.5q-74 0 -135 30.5
t-101 81.5t-66 109.5t-38 122.5h-530v148h16q30 0 52 13.5t33 31.5t17.5 46.5t7.5 48.5t1 46q0 38 -3.5 65t-15.5 55.5t-33.5 46t-59.5 29t-91 11.5q-116 0 -160.5 -52.5t-44.5 -140.5q0 -23 0.5 -36.5t3 -41.5t9 -45.5t17 -37t29 -29.5t42.5 -10h16v-148h-35
q-65 0 -114.5 24t-77.5 60t-45.5 85.5t-23 91.5t-5.5 87q0 153 101 250.5t288 97.5q185 0 285 -97.5t100 -250.5q0 -125 -78 -200h275q-15 86 -15 235z" />
    <glyph glyph-name="uni0D10" unicode="&#xd10;" horiz-adv-x="3538" 
d="M2853 2h-277q16 -77 55.5 -131.5t104.5 -54.5q17 0 34 5t37 17.5t33 42.5t13 72v49zM2396 2h-528v148h14q30 0 52 13.5t33 31.5t17.5 46.5t7.5 48.5t1 46q0 47 -7 80t-26.5 64t-62 47t-107.5 16q-116 0 -160.5 -52.5t-44.5 -140.5q0 -23 0.5 -36.5t3 -41.5t9 -45.5
t17 -37t29 -29.5t42.5 -10h16v-148h-35q-65 0 -114.5 24t-77.5 60t-45.5 85.5t-23 91.5t-5.5 87q0 153 101 250.5t288 97.5q186 0 286.5 -97.5t100.5 -250.5q0 -123 -80 -200h275q-15 86 -15 235q0 336 149 528.5t435 192.5q277 0 437.5 -180t160.5 -531q0 -97 -12.5 -186
t-43.5 -174.5t-77 -148t-119 -100.5t-164 -38v168q60 0 104.5 39t69.5 107.5t37 150.5t12 180q0 97 -10.5 175.5t-38.5 151.5t-72.5 122t-116.5 78.5t-167 29.5q-401 0 -401 -581q0 -145 10 -219h303v696h184v-844q0 -90 -25.5 -158t-68.5 -107.5t-95.5 -59t-111.5 -19.5
q-74 0 -135 30.5t-101 81.5t-66 109.5t-38 122.5zM358 389q0 -111 33 -175t119 -64q47 0 79.5 18.5t49 53.5t23 74.5t6.5 92.5q0 113 -34 178.5t-124 65.5q-45 0 -76 -19t-47 -54.5t-22.5 -76.5t-6.5 -94zM154 553q0 262 144.5 409.5t403.5 147.5q121 0 220 -33.5t174 -100
t116 -174t41 -247.5q0 -264 -81 -404.5t-257 -152.5q-1 26 -1 76t-1 78q26 4 47 14.5t36.5 22.5t27 34.5t19.5 39t13 49.5t7.5 52t4 60t1.5 60v65q0 409 -391 409q-144 0 -238 -72.5t-112 -213.5q13 41 52.5 68t78.5 36.5t76 9.5q151 0 234 -98t83 -299t-91 -298t-251 -97
q-182 0 -269 146.5t-87 412.5z" />
    <glyph glyph-name="uni0D12" unicode="&#xd12;" horiz-adv-x="1406" 
d="M373 391q0 -54 6.5 -94t22.5 -75t47.5 -53.5t78.5 -18.5q46 0 77.5 18.5t47.5 53.5t22.5 75.5t6.5 93.5t-6.5 93t-22.5 75.5t-47.5 54.5t-77.5 19q-47 0 -78.5 -19t-47.5 -54.5t-22.5 -75.5t-6.5 -93zM1161 778q0 56 -56 99.5t-138 64.5t-172 21q-121 0 -220 -33
t-161.5 -100t-65.5 -158q24 59 79.5 86.5t115.5 27.5q158 0 243.5 -97.5t85.5 -299.5q0 -191 -95 -294t-257 -103q-171 0 -262.5 134t-91.5 388q0 299 155 448.5t459 149.5q111 0 209.5 -19.5t180.5 -59t130 -107t48 -154.5q0 -77 -39.5 -133t-120.5 -78
q110 -18 164.5 -87.5t54.5 -160.5q0 -141 -95.5 -227t-301.5 -86h-49v162h49q119 0 164 41.5t45 118.5q0 81 -52.5 115t-162.5 34h-43v160h43q83 0 120 34t37 113z" />
    <glyph glyph-name="uni0D13" unicode="&#xd13;" horiz-adv-x="2320" 
d="M373 391q0 -54 6.5 -94t22.5 -75t47.5 -53.5t78.5 -18.5q46 0 77.5 18.5t47.5 53.5t22.5 75.5t6.5 93.5t-6.5 93t-22.5 75.5t-47.5 54.5t-77.5 19q-47 0 -78.5 -19t-47.5 -54.5t-22.5 -75.5t-6.5 -93zM1161 778q0 56 -56 99.5t-138 64.5t-172 21q-121 0 -220 -33
t-161.5 -100t-65.5 -158q24 59 79.5 86.5t115.5 27.5q158 0 243.5 -97.5t85.5 -299.5q0 -191 -95 -294t-257 -103q-171 0 -262.5 134t-91.5 388q0 299 155 448.5t459 149.5q111 0 209.5 -19.5t180.5 -59t130 -107t48 -154.5q0 -77 -39.5 -133t-120.5 -78
q110 -18 164.5 -87.5t54.5 -160.5q0 -141 -95.5 -227t-301.5 -86h-49v162h49q119 0 164 41.5t45 118.5q0 81 -52.5 115t-162.5 34h-43v160h43q83 0 120 34t37 113zM2320 553q0 -151 -32.5 -262t-91.5 -174.5t-133.5 -93t-166.5 -29.5q-78 0 -144 21t-119.5 65t-84 120
t-30.5 177v20h178v-20q0 -117 50 -175.5t142 -58.5q59 0 102.5 20.5t70.5 55.5t43 88.5t22 111.5t6 134t-6 134t-22 111.5t-43 88.5t-70.5 55.5t-102.5 20.5q-92 0 -142 -60t-50 -174v-24h-178v24q0 99 30.5 174t84 118.5t119.5 65t144 21.5q73 0 134.5 -17t116 -57.5
t92.5 -103.5t59.5 -158.5t21.5 -218.5z" />
    <glyph glyph-name="uni0D14" unicode="&#xd14;" horiz-adv-x="2643" 
d="M373 391q0 -54 6.5 -94t22.5 -75t47.5 -53.5t78.5 -18.5q46 0 77.5 18.5t47.5 53.5t22.5 75.5t6.5 93.5t-6.5 93t-22.5 75.5t-47.5 54.5t-77.5 19q-47 0 -78.5 -19t-47.5 -54.5t-22.5 -75.5t-6.5 -93zM1161 778q0 56 -56 99.5t-138 64.5t-172 21q-121 0 -220 -33
t-161.5 -100t-65.5 -158q24 59 79.5 86.5t115.5 27.5q158 0 243.5 -97.5t85.5 -299.5q0 -191 -95 -294t-257 -103q-171 0 -262.5 134t-91.5 388q0 299 155 448.5t459 149.5q111 0 209.5 -19.5t180.5 -59t130 -107t48 -154.5q0 -77 -39.5 -133t-120.5 -78
q110 -18 164.5 -87.5t54.5 -160.5q0 -141 -95.5 -227t-301.5 -86h-49v162h49q119 0 164 41.5t45 118.5q0 81 -52.5 115t-162.5 34h-43v160h43q83 0 120 34t37 113zM2116 793v-181h-170v181q0 77 -36 124.5t-91 47.5q-39 0 -69 -18.5t-48.5 -49t-30.5 -77.5t-17.5 -95.5
t-8.5 -112.5h-172q6 132 34 229t74 154.5t103.5 85t127.5 27.5q143 0 222 -100q84 100 241 100q369 0 369 -530q0 -303 -133.5 -443.5t-394.5 -140.5q-220 0 -337.5 91t-117.5 292v20h178v-20q0 -122 63.5 -178t215.5 -56q72 0 127.5 15.5t91.5 46t60.5 68t37 90t17 102
t4.5 113.5q0 73 -4.5 126.5t-17 105t-33.5 84t-57 52t-85 19.5q-61 0 -102 -47.5t-41 -124.5z" />
    <glyph glyph-name="kA" unicode="&#xd15;" horiz-adv-x="1820" 
d="M993 -8q-162 0 -276 90q-87 -90 -223 -90q-156 0 -242 89t-86 277q0 176 108 260t293 84q31 205 143 304.5t283 99.5q169 0 279.5 -100t140.5 -304q191 0 299.5 -83.5t108.5 -260.5q0 -180 -84.5 -272t-229.5 -92q-9 0 -59 4v154q14 -2 37 -2q90 0 127 51.5t37 150.5
q0 38 -10.5 72t-33.5 64.5t-66.5 48.5t-102.5 18q-9 -284 -126 -423.5t-317 -139.5zM1247 555h-510q0 -44 1 -76t6.5 -77.5t15.5 -77.5t29 -67t45.5 -56.5t67 -36t91.5 -14.5t91 14.5t66 36t45 56.5t29 67t15.5 77.5t6.5 77.5t1 76zM993 952q-64 0 -110.5 -19.5t-74 -56
t-42.5 -78.5t-21 -96h494q-30 250 -246 250zM340 352q0 -99 36 -150.5t122 -51.5q81 0 129 51q-70 128 -70 354q-62 0 -106.5 -18t-67.5 -49t-33 -64t-10 -72z" />
    <glyph glyph-name="kh" unicode="&#xd16;" horiz-adv-x="1699" 
d="M166 539q0 262 145.5 416.5t401.5 154.5q120 0 220 -35t174 -102.5t115.5 -174t41.5 -243.5q0 -154 -17.5 -249t-72.5 -156h344v942h182v-1090h-774q-1 27 -1 74.5t-1 75.5q33 5 58 20t41.5 32.5t28 50.5t17 57.5t8.5 71t3.5 73.5t0.5 81v4v3v4q0 409 -391 409
q-144 0 -238.5 -72.5t-111.5 -213.5q12 41 51.5 68t78 36.5t75.5 9.5q152 0 235.5 -98t83.5 -299q0 -202 -90.5 -298.5t-251.5 -96.5q-356 0 -356 545zM369 389q0 -53 6.5 -92.5t22 -74.5t47 -53.5t77.5 -18.5q47 0 78.5 18.5t48 53.5t23 74.5t6.5 92.5q0 54 -6.5 94.5
t-23 76t-48 54.5t-78.5 19q-46 0 -77.5 -19t-47 -54.5t-22 -76t-6.5 -94.5z" />
    <glyph glyph-name="ga" unicode="&#xd17;" horiz-adv-x="1662" 
d="M1006 692v-307q0 -100 -32 -177t-88 -124t-128 -70.5t-156 -23.5q-94 0 -171.5 32.5t-137.5 98t-93.5 175t-33.5 253.5q0 255 131.5 405t359.5 150v-160q-75 0 -133 -25.5t-91.5 -64.5t-54.5 -92.5t-28.5 -102.5t-7.5 -102q0 -41 1.5 -71.5t7 -74.5t15.5 -76.5
t29.5 -67.5t46 -57.5t67 -37t91.5 -14.5q121 0 172 59t51 184v308q0 196 114 295.5t290 99.5q93 0 170.5 -32.5t138 -98t94 -174.5t33.5 -252q0 -256 -130.5 -406.5t-358.5 -150.5v162q75 0 132.5 25t91 64t54.5 93t28 103t7 104q0 40 -1.5 71t-7 75t-16 76.5t-30 67.5
t-46 57.5t-66.5 37t-91 14.5q-122 0 -172.5 -61.5t-50.5 -186.5z" />
    <glyph glyph-name="gh" unicode="&#xd18;" horiz-adv-x="2396" 
d="M1319 150h897v942h180v-1090h-1255v334h-510v143h16q111 0 111 185q0 50 -6.5 83t-26.5 64t-62 46t-108 15q-117 0 -161 -51t-44 -143q0 -22 0.5 -35t3 -41t9 -46t17 -37.5t29 -29.5t42.5 -10h16v-143h-35q-65 0 -114.5 24t-77.5 60t-45.5 84.5t-23 89.5t-5.5 84
q0 155 101 253.5t288 98.5q185 0 285 -98.5t100 -253.5q0 -121 -78 -199h279v277q0 72 21.5 131t58 99t86.5 67.5t106.5 40t118.5 12.5q79 0 149.5 -20.5t127.5 -61.5t90.5 -110t33.5 -158v-420h-614v-186zM1315 752v-273h434v273q0 108 -62.5 159.5t-156.5 51.5
q-93 0 -154 -51.5t-61 -159.5z" />
    <glyph glyph-name="ng" unicode="&#xd19;" horiz-adv-x="1937" 
d="M698 1106q123 0 224.5 -39.5t158.5 -114.5q58 75 152 114.5t213 39.5q114 0 211.5 -36.5t160 -110.5t62.5 -173q0 -45 -15 -87.5t-53 -82.5t-94 -59q113 -18 166 -84.5t53 -159.5q0 -68 -21 -122.5t-66 -98t-124 -67t-186 -23.5h-160v160h146q128 0 175.5 40.5
t47.5 119.5q0 81 -53.5 115t-169.5 34h-146v160h131q97 0 140 32.5t43 114.5q0 176 -244 176q-52 0 -94 -10t-68.5 -25t-46 -38.5t-29 -43.5t-15 -48.5t-6.5 -45.5t-1 -41v-700h-180v694q0 66 -29 117.5t-78 81t-107.5 44.5t-123.5 15q-139 0 -229.5 -75t-102.5 -207
q22 58 82.5 86t120.5 28q158 0 243.5 -97.5t85.5 -299.5t-93.5 -299.5t-258.5 -97.5q-181 0 -267.5 147t-86.5 414q0 261 134.5 407t397.5 146zM373 391q0 -54 6.5 -94t22.5 -75t47.5 -53.5t78.5 -18.5q46 0 77.5 18.5t47.5 53.5t22.5 75.5t6.5 93.5t-6.5 93t-22.5 75.5
t-47.5 54.5t-77.5 19q-47 0 -78.5 -19t-47.5 -54.5t-22.5 -75.5t-6.5 -93z" />
    <glyph glyph-name="ca" unicode="&#xd1a;" horiz-adv-x="1730" 
d="M881 150h665v944h185v-1092h-1565v148h311q506 0 506 385q0 94 -55 152t-150 58q-79 0 -128.5 -38.5t-49.5 -110.5q0 -145 107 -145v-158h-29q-60 0 -106.5 21t-73 52t-43.5 72t-23 76t-6 68q0 156 101.5 240.5t263.5 84.5q174 0 283.5 -95.5t109.5 -272.5
q0 -139 -75.5 -243t-227.5 -146z" />
    <glyph glyph-name="ch" unicode="&#xd1b;" horiz-adv-x="2529" 
d="M2343 549q0 140 -41 229q-89 -4 -147 -26.5t-91 -67t-46 -103t-13 -145.5q0 -56 3 -95.5t13 -78t27.5 -61.5t47 -37t71.5 -14q41 0 72 15t49.5 46.5t30 64t16.5 84.5t6.5 90.5t1.5 98.5zM881 150h618q-82 139 -82 405q0 140 41 247.5t115.5 174t173 100t217.5 33.5
q263 0 414 -148.5t151 -408.5q0 -559 -366 -559q-164 0 -256 107.5t-92 334.5q0 211 94 330t280 141q-108 51 -217 51q-375 0 -375 -409q0 -57 1.5 -96t6 -87t15 -80t27.5 -62.5t43.5 -48t62.5 -23.5v-150h-1587v148h311q506 0 506 385q0 94 -55 152t-150 58
q-79 0 -128.5 -38.5t-49.5 -110.5q0 -145 107 -145v-158h-29q-60 0 -106.5 21t-73 52t-43.5 72t-23 76t-6 68q0 156 101.5 240.5t263.5 84.5q174 0 283.5 -95.5t109.5 -272.5q0 -139 -75.5 -243t-227.5 -146z" />
    <glyph glyph-name="ja" unicode="&#xd1c;" horiz-adv-x="1622" 
d="M862 571v236q0 57 -39.5 96.5t-94.5 55.5t-118 16q60 -17 95.5 -69.5t35.5 -114.5q0 -121 -77.5 -177.5t-214.5 -56.5q-281 0 -281 258q0 64 24 115t63.5 83.5t95 53.5t114.5 30t125 9q103 0 200 -30.5t160 -94.5q37 58 111 91.5t168 33.5q79 0 147.5 -19.5t124.5 -59.5
t88.5 -107.5t32.5 -155.5q0 -50 -9.5 -96.5t-30 -89.5t-58 -73t-88.5 -40q62 -6 105.5 -40.5t62 -81t18.5 -99.5q0 -111 -72.5 -181.5t-226.5 -70.5q-145 0 -217 61t-72 164q0 110 90 162h-43q-26 0 -59.5 -21.5t-50.5 -44.5v4l-154 -163q-55 -57 -104.5 -91.5t-98.5 -49
t-82.5 -18t-87.5 -3.5q-278 0 -278 268q0 57 19.5 101t49.5 70t71 42.5t78.5 22.5t78.5 6h708q135 0 204 62t69 184q0 227 -217 227q-93 0 -139 -48.5t-46 -119.5v-236h-180zM831 379h-356q-72 0 -103.5 -28.5t-31.5 -94.5q0 -64 30 -91.5t95 -27.5q58 -2 105 16t106 74z
M1198 256q0 -65 35 -92t88 -27q129 0 129 119q0 68 -34.5 95.5t-94.5 27.5q-123 0 -123 -123zM344 797q0 -119 107 -119q60 0 85 34t25 85q0 112 -110 112q-107 0 -107 -112z" />
    <glyph glyph-name="jh" unicode="&#xd1d;" horiz-adv-x="3022" 
d="M1731 633v-184q0 -69 9 -118.5t32 -93t68.5 -65.5t113.5 -22q111 0 169 68t58 222v656h180v-656q0 -290 236 -290q50 0 90 15.5t66 38.5t44 60t27 68.5t14 77t6 72t1 65.5q0 49 -0.5 77.5t-5.5 77t-13.5 78t-26.5 66t-43 57t-64 35t-89 14.5h-23v148h23
q213 0 316.5 -146.5t103.5 -406.5q0 -139 -35.5 -248t-96.5 -174.5t-135.5 -99t-158.5 -33.5q-65 0 -124.5 18.5t-113 62t-86.5 107.5q-51 -95 -136 -141.5t-183 -46.5q-64 0 -119.5 12.5t-108.5 44t-90 80t-59.5 127t-22.5 178.5v131q0 95 -22.5 168.5t-62.5 119t-94.5 74
t-119 33t-135.5 -3.5q209 -178 209 -487q0 -479 -371 -479q-374 0 -374 479q0 319 204 481q-64 13 -94 13q-175 0 -261.5 -101.5t-86.5 -320.5q0 -83 6.5 -145t23.5 -119.5t51 -88t85 -30.5v-160q-70 0 -125 20.5t-92.5 59.5t-63 87.5t-39.5 112.5t-20 126.5t-6 136.5
q0 278 140.5 421.5t395.5 143.5q159 0 256 -66q89 66 254 66q136 0 253 -55.5t191.5 -165.5t74.5 -252zM958 147q51 0 86.5 19t55.5 47t30.5 75.5t13.5 90t3 104.5q0 307 -189 428q-192 -120 -192 -428q0 -51 2 -87t8 -78.5t19 -70t33.5 -52t53.5 -36.5t76 -12z" />
    <glyph glyph-name="nja" unicode="&#xd1e;" horiz-adv-x="2547" 
d="M1090 936q71 81 176 124.5t221 43.5q143 0 270 -68q102 70 256 70q254 0 394.5 -143.5t140.5 -421.5q0 -74 -5.5 -136.5t-19.5 -126.5t-39.5 -112.5t-62 -87.5t-91.5 -59.5t-124 -20.5v160q51 2 85.5 33t51.5 88.5t23 118t6 143.5q0 218 -89 320t-264 102q-11 0 -98 -7
q211 -178 211 -487q0 -479 -377 -479q-179 0 -274 118.5t-95 360.5q0 316 203 481q-49 11 -106 11q-58 0 -109.5 -18.5t-93 -54t-66 -95.5t-24.5 -136v-655h-180v655q0 62 -18.5 112t-50 84t-74.5 57t-92 33.5t-103 10.5q-139 0 -229.5 -75t-102.5 -207q22 58 82.5 86
t120.5 28q158 0 243.5 -97.5t85.5 -299.5t-93.5 -299.5t-258.5 -97.5q-182 0 -268 142.5t-86 404.5q0 264 135 415.5t397 151.5q129 0 233 -43t159 -127zM373 391q0 -54 6.5 -94t22.5 -75t47.5 -53.5t78.5 -18.5q46 0 77.5 18.5t47.5 53.5t22.5 75.5t6.5 93.5t-6.5 93
t-22.5 75.5t-47.5 54.5t-77.5 19q-47 0 -78.5 -19t-47.5 -54.5t-22.5 -75.5t-6.5 -93zM1755 147q44 0 77 11.5t54 36.5t34 52.5t18.5 70t7.5 78t2 87.5q0 306 -193 428q-188 -121 -188 -428q0 -62 2.5 -104t13.5 -90t30.5 -76t55 -47t86.5 -19z" />
    <glyph glyph-name="Ta" unicode="&#xd1f;" horiz-adv-x="1103" 
d="M643 487q-229 0 -341 80t-112 224q0 141 129.5 228t319.5 87q59 0 118 -10.5t118 -34.5t103.5 -60t72.5 -91.5t28 -123.5v-30h-168q0 215 -276 215q-122 0 -196 -43.5t-74 -126.5q0 -30 4.5 -51t20.5 -43t44.5 -35t78.5 -21t120 -8q231 0 351 -89.5t120 -240.5
q0 -143 -129.5 -232t-343.5 -89q-90 0 -169.5 17.5t-147.5 53.5t-108 100t-40 150v35h170q0 -114 71.5 -159.5t223.5 -45.5q142 0 217.5 43.5t75.5 130.5q0 92 -63 131t-218 39z" />
    <glyph glyph-name="Th" unicode="&#xd20;" horiz-adv-x="1120" 
d="M643 1106q78 0 146 -18t129.5 -59t105.5 -103.5t70 -158t26 -214.5q0 -120 -26 -216t-70 -159.5t-105.5 -106t-130 -61t-145.5 -18.5q-99 0 -182 30.5t-150.5 94.5t-106 175.5t-38.5 260.5q0 148 38.5 258.5t106.5 173t150.5 92t181.5 29.5zM643 145q281 0 281 410
q0 406 -281 406q-283 0 -283 -406q0 -410 283 -410z" />
    <glyph glyph-name="Da" unicode="&#xd21;" 
d="M582 1106q63 0 120 -13.5t110.5 -46t92.5 -80.5t62.5 -122t23.5 -166v-229q0 -139 54 -219t184 -80q111 0 168 68t57 222v656h182v-656q0 -290 236 -290q50 0 89 15.5t64.5 38.5t43.5 60t27 68.5t13.5 77t5.5 72t1 65.5q0 49 -0.5 77.5t-5.5 77t-13.5 78t-26 66t-42 57
t-63 35t-87.5 14.5h-23v148h23q210 0 314 -146.5t104 -406.5q0 -139 -35.5 -248t-95.5 -174.5t-134.5 -99t-158.5 -33.5q-101 0 -188 46.5t-140 141.5q-50 -95 -133.5 -141.5t-181.5 -46.5q-63 0 -121 14t-113 47.5t-95 84.5t-64.5 131t-24.5 180v200q0 42 -1 69.5
t-6.5 62.5t-14.5 57.5t-26 46t-41 37t-59 22t-81 8.5q-39 0 -71 -10t-55 -24.5t-41 -40t-29.5 -47.5t-19.5 -56.5t-12 -57t-6 -60t-2 -54v-49.5q0 -144 20 -213q54 -190 289 -190v-154q-108 2 -191.5 28t-139.5 73t-91.5 116t-51 152.5t-15.5 187.5q0 124 22.5 220.5
t60.5 158.5t92 102t113 56t128 16z" />
    <glyph glyph-name="Dh" unicode="&#xd22;" horiz-adv-x="2482" 
d="M2482 592q0 -292 -134 -446t-404 -154q-135 0 -240 46.5t-158 141.5q-50 -95 -134.5 -141.5t-182.5 -46.5q-63 0 -121 14t-113 47.5t-95 84.5t-64.5 131t-24.5 180v200q0 42 -1 69.5t-6.5 62.5t-14.5 57.5t-26 46t-41 37t-59 22t-81 8.5q-39 0 -71 -10t-55 -24.5t-41 -40
t-29.5 -47.5t-19.5 -56.5t-12 -57t-6 -60t-2 -54v-49.5q0 -144 20 -213q54 -190 289 -190v-154q-108 2 -191.5 28t-139.5 73t-91.5 116t-51 152.5t-15.5 187.5q0 124 22.5 220.5t60.5 158.5t92 102t113 56t128 16q63 0 120 -13.5t110.5 -46t92.5 -80.5t62.5 -122t23.5 -166
v-229q0 -139 54 -219t184 -80q111 0 168 68t57 222v656h182v-656q0 -76 27.5 -134t75.5 -92t106.5 -50.5t126.5 -16.5q141 0 232 83t104 247q-24 -50 -86 -75t-119 -25q-331 0 -331 366q0 184 94 273.5t258 89.5q181 0 269.5 -135.5t88.5 -378.5zM2273 741q0 50 -6.5 87
t-22.5 69.5t-47.5 50t-78.5 17.5q-46 0 -77.5 -17.5t-48 -50t-23.5 -70t-7 -86.5q0 -227 156 -227q46 0 78 18t48 51.5t22.5 71t6.5 86.5z" />
    <glyph glyph-name="Na" unicode="&#xd23;" horiz-adv-x="2500" 
d="M166 539q0 264 135 415.5t397 151.5q137 0 242 -46.5t156 -141.5q54 95 141 141.5t186 46.5q98 0 185.5 -47t138.5 -141q53 95 140 141.5t186 46.5q85 0 160 -33t136 -98t96.5 -173t35.5 -247q0 -262 -105.5 -409.5t-316.5 -147.5h-21v152h21q39 0 71 8.5t55.5 21.5
t42 36t30 44t20 54t13 57.5t6.5 62t2.5 60.5t0.5 61t-1 64.5t-6 71.5t-14 77t-27.5 69t-43.5 60t-65 39t-90 16q-234 0 -234 -295v-655h-178v655q0 295 -238 295q-233 0 -233 -295v-655h-180v655q0 62 -18.5 112t-50 84t-74.5 57t-92 33.5t-103 10.5q-139 0 -229.5 -75
t-102.5 -207q22 58 82.5 86t120.5 28q158 0 243.5 -97.5t85.5 -299.5t-93.5 -299.5t-258.5 -97.5q-354 0 -354 547zM373 391q0 -54 6.5 -94t22.5 -75t47.5 -53.5t78.5 -18.5q46 0 77.5 18.5t47.5 53.5t22.5 75.5t6.5 93.5t-6.5 93t-22.5 75.5t-47.5 54.5t-77.5 19
q-47 0 -78.5 -19t-47.5 -54.5t-22.5 -75.5t-6.5 -93z" />
    <glyph glyph-name="th" unicode="&#xd24;" horiz-adv-x="1746" 
d="M958 1040q89 66 252 66q254 0 395.5 -143.5t141.5 -421.5q0 -89 -8.5 -163t-31.5 -146.5t-60.5 -122.5t-100 -80.5t-145.5 -30.5v160q170 0 170 383q0 219 -88.5 320.5t-263.5 101.5q-26 0 -95 -13q203 -170 203 -481q0 -479 -369 -479q-376 0 -376 479q0 309 211 487
q-8 0 -43.5 3.5t-55.5 3.5q-175 0 -261.5 -101.5t-86.5 -320.5q0 -83 6.5 -145t23.5 -119.5t51 -88t85 -30.5v-160q-70 0 -125 20.5t-92.5 59.5t-63 87.5t-39.5 112.5t-20 126.5t-6 136.5q0 277 140.5 421t393.5 144q161 0 258 -66zM958 147q51 0 86.5 19t55.5 47t30.5 75.5
t13.5 90t3 104.5q0 307 -189 428q-192 -120 -192 -428q0 -51 2 -87t8 -78.5t19 -70t33.5 -52t53.5 -36.5t76 -12z" />
    <glyph glyph-name="td" unicode="&#xd25;" horiz-adv-x="1490" 
d="M348 150h309v567q0 186 111.5 287.5t304.5 101.5q195 0 306.5 -101t111.5 -288v-715h-1325v1090h182v-942zM1073 963q-235 0 -235 -250v-563h473v563q0 129 -60 189.5t-178 60.5z" />
    <glyph glyph-name="da" unicode="&#xd26;" horiz-adv-x="1093" 
d="M606 954q-73 0 -124.5 -15t-77 -34.5t-39.5 -51.5t-16.5 -53t-2.5 -52v-746h-180v707q0 96 33.5 172t93 125t138.5 74.5t171 25.5q114 0 211.5 -36.5t160 -110.5t62.5 -173q0 -45 -15 -87.5t-53 -82.5t-94 -59q113 -18 166.5 -84.5t53.5 -159.5q0 -68 -21 -122.5
t-66.5 -98t-124.5 -67t-186 -23.5h-159v160h145q128 0 175.5 40.5t47.5 119.5q0 81 -53.5 115t-169.5 34h-145v160h131q97 0 138.5 32.5t41.5 114.5q0 176 -242 176z" />
    <glyph glyph-name="dh" unicode="&#xd27;" horiz-adv-x="1669" 
d="M1008 1102v-656q0 -155 60 -221.5t171 -66.5q50 0 89.5 15.5t65 38.5t44.5 59t28.5 68.5t15 76.5t6.5 72.5t1 66.5q0 49 -1 78.5t-5.5 77t-13.5 77t-27 65t-43 55.5t-64 34t-88 14h-20v150h20q141 0 237 -69.5t140.5 -191t44.5 -290.5q0 -140 -36 -249.5t-97.5 -175
t-136.5 -99t-160 -33.5q-98 0 -184 46.5t-140 141.5q-51 -94 -138.5 -141t-180.5 -47q-86 0 -161.5 33.5t-136.5 99t-96.5 175t-35.5 249.5q0 259 104.5 405t315.5 146h22v-150h-22q-49 0 -87.5 -14t-63.5 -34t-42.5 -55.5t-26.5 -65t-13.5 -77t-5.5 -77t-1 -78.5
q0 -38 1 -66.5t6.5 -72.5t15 -76.5t28.5 -68.5t44.5 -59t65 -38.5t89.5 -15.5q111 0 171 66.5t60 221.5v656h181z" />
    <glyph glyph-name="na" unicode="&#xd28;" horiz-adv-x="1669" 
d="M1008 657v-655h-181v655q0 295 -231 295q-50 0 -89.5 -15.5t-65 -39t-44.5 -60t-28.5 -69.5t-15 -76.5t-6.5 -72t-1 -64.5q0 -49 1 -79t5.5 -77.5t13.5 -77.5t26.5 -65.5t42.5 -55.5t63.5 -34t87.5 -14h22v-154h-22q-212 0 -316 147t-104 410q0 139 35.5 247t96.5 173
t136.5 98t161.5 33q93 0 180.5 -47t138.5 -141q54 95 140 141.5t184 46.5q85 0 160 -33t136.5 -98t97.5 -173.5t36 -246.5q0 -262 -105.5 -409.5t-316.5 -147.5h-20v154h20q49 0 88 14t64 34t43 55.5t27 65.5t13.5 77.5t5.5 77.5t1 79q0 36 -1 64.5t-6.5 72t-15 76.5
t-28.5 69.5t-44.5 60t-65 39t-89.5 15.5q-231 0 -231 -295z" />
    <glyph glyph-name="pa" unicode="&#xd2a;" horiz-adv-x="1613" 
d="M555 698q185 0 285 -97.5t100 -250.5q0 -125 -78 -200h570v942h182v-1090h-983v148h16q30 0 52 13.5t33 31.5t17.5 46.5t7.5 48.5t1 46q0 38 -3.5 65t-15.5 55.5t-33.5 46t-59.5 29t-91 11.5q-116 0 -160.5 -52.5t-44.5 -140.5q0 -23 0.5 -36.5t3 -41.5t9 -45.5t17 -37
t29 -29.5t42.5 -10h16v-148h-35q-65 0 -114.5 24t-77.5 60t-45.5 85.5t-23 91.5t-5.5 87q0 153 101 250.5t288 97.5z" />
    <glyph glyph-name="ph" unicode="&#xd2b;" horiz-adv-x="2060" 
d="M940 350q0 -125 -78 -200h305v567q0 183 124.5 286t322.5 103t322 -103t124 -286v-715h-1429v148h16q30 0 52 13.5t33 31.5t17.5 46.5t7.5 48.5t1 46q0 38 -3.5 65t-15.5 55.5t-33.5 46t-59.5 29t-91 11.5q-116 0 -160.5 -52.5t-44.5 -140.5q0 -23 0.5 -36.5t3 -41.5
t9 -45.5t17 -37t29 -29.5t42.5 -10h16v-148h-35q-65 0 -114.5 24t-77.5 60t-45.5 85.5t-23 91.5t-5.5 87q0 153 101 250.5t288 97.5q185 0 285 -97.5t100 -250.5zM1614 963q-127 0 -199 -61.5t-72 -188.5v-563h537v563q0 250 -266 250z" />
    <glyph glyph-name="ba" unicode="&#xd2c;" horiz-adv-x="2324" 
d="M1190 657v-655h-180v655q0 62 -18.5 112t-50 84t-74.5 57t-92 33.5t-103 10.5q-139 0 -229.5 -75t-102.5 -207q22 58 82.5 86t120.5 28q158 0 243.5 -97.5t85.5 -299.5t-93.5 -299.5t-258.5 -97.5q-354 0 -354 543q0 263 135.5 417t396.5 154q137 0 242 -46.5t156 -141.5
q54 95 142 141.5t185 46.5q85 0 160 -33t136 -98t96.5 -173t35.5 -247q0 -265 -102 -405h393v942h182v-1090h-915v148h23q38 0 70 8.5t55.5 21.5t41.5 36t30 44t20 54t12.5 57.5t6.5 62t2.5 60.5t0.5 61q0 28 -0.5 49t-3 54.5t-7 59t-13.5 57.5t-21 55.5t-31 47.5t-43 39.5
t-57 25t-72 9.5q-233 0 -233 -295zM373 391q0 -54 6.5 -94t22.5 -75t47.5 -53.5t78.5 -18.5q46 0 77.5 18.5t47.5 53.5t22.5 75.5t6.5 93.5t-6.5 93t-22.5 75.5t-47.5 54.5t-77.5 19q-47 0 -78.5 -19t-47.5 -54.5t-22.5 -75.5t-6.5 -93z" />
    <glyph glyph-name="bh" unicode="&#xd2d;" horiz-adv-x="1249" 
d="M559 16v154q129 -27 258 -27q236 0 236 101q0 36 -20.5 56.5t-57.5 25.5t-70.5 4.5t-78.5 -4.5t-62 -4q-111 0 -170 52.5t-59 170.5q0 112 64 167.5t165 55.5q10 0 37.5 -1.5t47.5 -2.5t46.5 2t43.5 11t29.5 25.5t12.5 43.5q0 56 -87.5 88.5t-197.5 32.5
q-97 0 -175 -23.5t-127.5 -73.5t-49.5 -120v-754h-178v713q0 186 140.5 291.5t381.5 105.5q87 0 169.5 -14.5t157 -44t120 -83.5t45.5 -124q0 -42 -14.5 -77.5t-46 -66.5t-89 -48t-135.5 -15q-8 0 -29.5 1t-29.5 1q-66 0 -96.5 -20t-30.5 -70q0 -48 32 -68t95 -20
q18 0 54.5 3t57.5 3q301 0 301 -217q0 -68 -34 -118.5t-96.5 -79.5t-141.5 -42.5t-176 -13.5q-150 0 -242 24z" />
    <glyph glyph-name="ma" unicode="&#xd2e;" horiz-adv-x="1210" 
d="M166 2v639q0 106 34.5 190t87 134.5t122.5 83.5t134 45t128 12q68 0 136.5 -12t142.5 -45t130 -83.5t92.5 -134.5t36.5 -190v-639h-1044zM477 780q-52 0 -90.5 -38t-38.5 -124v-468h244l31 428q3 51 -8 94.5t-46.5 75.5t-91.5 32zM672 956q-130 0 -207 -59q31 8 70 8
q129 0 206 -85t68 -212l-29 -458h246v489q0 77 -23.5 136t-59.5 92.5t-85.5 54.5t-93.5 27.5t-92 6.5z" />
    <glyph glyph-name="ya" unicode="&#xd2f;" horiz-adv-x="1896" 
d="M1036 47q-121 -59 -280 -59q-127 0 -229 34.5t-168.5 91.5t-110.5 134.5t-63 159.5t-19 170q0 73 8.5 138.5t33 135.5t63 121.5t103 88t148.5 44.5q89 0 151 -35.5t89 -97.5q28 58 101.5 95.5t158.5 37.5q191 0 303.5 -119.5t112.5 -359.5q0 -314 -224 -465
q47 -17 152 -17q182 0 271 119t89 340q0 69 -13 128.5t-40.5 109.5t-76.5 79t-115 29h-6v140h6q112 0 194.5 -38.5t129.5 -109t69 -158.5t22 -198q0 -280 -142.5 -438t-428.5 -158q-208 0 -289 57zM653 629q0 163 -13 222q-27 109 -112 110q-58 0 -98.5 -37t-59.5 -97
t-26.5 -115.5t-7.5 -113.5q0 -212 103 -329t325 -117q51 0 98 8q-120 84 -164.5 196.5t-44.5 272.5zM1038 193q59 34 100.5 83.5t63 107.5t30.5 112t9 112q0 83 -10 145.5t-33.5 113t-66.5 76.5t-105 26q-192 0 -192 -361q0 -299 204 -415z" />
    <glyph glyph-name="ra" unicode="&#xd30;" horiz-adv-x="1275" 
d="M563 436q0 210 94 329.5t279 141.5q-105 51 -219 51q-371 0 -371 -409q0 -50 1 -83t4 -76t9 -72t17.5 -60t27.5 -51t40 -35t55 -20v-154q-173 12 -253.5 153t-80.5 404q0 140 41 247.5t114.5 174t172 100t217.5 33.5q263 0 414 -148.5t151 -408.5q0 -559 -365 -559
q-165 0 -256.5 107t-91.5 335zM1092 549q0 140 -41 229q-89 -4 -147.5 -26.5t-92 -67t-46.5 -103t-13 -145.5q0 -56 3 -95.5t13 -78t27.5 -61.5t47.5 -37t72 -14q35 0 63 12.5t46.5 31.5t31.5 52t20 63t10.5 76t4.5 79.5t1 84.5z" />
    <glyph glyph-name="Ra" unicode="&#xd31;" horiz-adv-x="1157" 
d="M659 954q-50 0 -91 -9t-71.5 -23.5t-54.5 -38t-39.5 -46.5t-26.5 -55.5t-16.5 -58t-9 -61t-4 -58t-0.5 -55.5q0 -45 1 -75.5t5 -76.5t12 -76.5t23.5 -65.5t37 -56t55 -35t75.5 -14h10v-152h-10q-197 0 -293 148t-96 403q0 141 36.5 249t103 174.5t155.5 100t198 33.5
q228 0 363 -139.5t135 -417.5q0 -254 -97 -402.5t-292 -148.5h-10v152h10q42 0 75.5 14t55 35t37 56t23.5 65.5t12 76.5t5 76.5t1 75.5q0 43 -1.5 72.5t-8 75.5t-18.5 78t-35.5 68t-56 58.5t-83.5 37.5t-115 15z" />
    <glyph glyph-name="la" unicode="&#xd32;" horiz-adv-x="1419" 
d="M342 752v-273h434v273q0 107 -63.5 159t-155.5 52q-96 0 -155.5 -51t-59.5 -160zM346 150h893v942h180v-1090h-1253v754q0 118 57 199t143.5 116t192.5 35q79 0 149 -20.5t127.5 -61.5t91.5 -110t34 -158v-420h-615v-186z" />
    <glyph glyph-name="La" unicode="&#xd33;" horiz-adv-x="1304" 
d="M451 674q-39 0 -64.5 -27t-34 -60.5t-8.5 -72.5q0 -38 8.5 -70.5t34 -59t64.5 -26.5q127 0 127 156q0 160 -127 160zM705 1106q146 0 266.5 -36t198 -113t77.5 -183q0 -70 -37 -129t-116 -88h-2q107 -18 160 -85.5t53 -158.5q0 -140 -91.5 -220.5t-291.5 -80.5h-498
q-41 0 -60.5 -25t-19.5 -53q0 -29 19.5 -54.5t60.5 -26.5h829v-158h-809q-40 0 -76 5.5t-74 21.5t-65.5 40.5t-45 66.5t-17.5 97q0 52 17 94.5t45 69t64.5 44t73 25t74.5 7.5h467q120 0 163.5 38.5t43.5 117.5q0 81 -49.5 115t-157.5 34h-71v160h57q76 0 121 34.5t45 96.5
q0 67 -53.5 113.5t-131.5 66t-172 19.5q-95 0 -166.5 -17.5t-114 -48.5t-65.5 -68t-30 -82q55 64 159 64q121 0 196 -79.5t75 -227.5q0 -144 -85 -215.5t-218 -71.5q-77 0 -134 31t-89.5 87t-48 126.5t-15.5 156.5q0 244 132 367t407 123z" />
    <glyph glyph-name="zh" unicode="&#xd34;" horiz-adv-x="1284" 
d="M774 303l-26 80q-129 0 -229.5 18.5t-182.5 61t-126 119t-44 184.5q0 65 19 124t56 108.5t101 78.5t147 29v-143q-42 -2 -71.5 -22t-44 -52.5t-20 -64t-5.5 -66.5q0 -48 15 -86.5t39.5 -61.5t55.5 -40.5t63.5 -24t63.5 -12t55.5 -4t39.5 0.5h10q-2 6 -12 31.5t-13.5 34
t-11.5 32.5t-11.5 36.5t-9 34.5t-8 39t-4.5 38.5t-2 42.5q0 59 18.5 109.5t55.5 91t100.5 63.5t147.5 23t151 -28.5t108 -76.5t63 -107.5t22 -125.5q0 -148 -91 -241t-263 -130l24 -57q13 -50 14 -99t-21.5 -94t-59 -79.5t-99 -55t-141.5 -20.5q-139 0 -221 59t-82 189v41
h166v-17q0 -62 27.5 -94.5t109.5 -32.5q46 0 76.5 10.5t44 26.5t17.5 39.5t0.5 44t-11.5 45.5zM817 737l68 -200q102 16 161.5 75t59.5 156q0 33 -8 64.5t-25.5 61.5t-51.5 48.5t-81 18.5q-190 0 -123 -224z" />
    <glyph glyph-name="va" unicode="&#xd35;" horiz-adv-x="1507" 
d="M965 150h362v942h180v-1090h-815v148h6q39 0 70 14.5t51 35.5t34 56.5t21.5 66t11.5 76.5t4.5 75.5t0.5 74.5q0 44 -1 73.5t-6.5 76t-16 78t-30.5 68t-48.5 58t-72 36.5t-98.5 15t-98 -15t-71.5 -37t-48.5 -58t-30 -68t-16 -77.5t-7 -75.5t-1 -74q0 -47 0.5 -75t4.5 -75
t11 -76.5t21.5 -66t34.5 -57t51.5 -35t71.5 -14.5h4v-152h-4q-97 0 -170 41t-117 116t-66 173.5t-22 220.5q0 269 124.5 413t327.5 144q201 0 328 -144.5t127 -412.5q0 -267 -108 -399z" />
    <glyph glyph-name="Sa" unicode="&#xd36;" horiz-adv-x="1880" 
d="M1696 549q0 134 -41 229q-89 -4 -148 -26.5t-92.5 -67t-47 -103t-13.5 -145.5q0 -56 3.5 -95.5t13.5 -78t28 -61.5t48 -37t73 -14q35 0 62.5 12.5t46 32t31.5 52t20 63t10.5 76t4.5 79.5t1 84zM600 158q121 0 172 59t51 184v273q0 93 27 167.5t73 124t110 82.5t134 47.5
t148 14.5q263 0 414 -148.5t151 -408.5q0 -266 -89 -412.5t-275 -146.5q-166 0 -257.5 107t-91.5 335q0 211 93 330t278 141q-102 51 -217 51q-315 0 -315 -301v-272q0 -100 -32 -177t-88 -124t-128 -70.5t-156 -23.5q-94 0 -171.5 32.5t-137.5 98t-93.5 175t-33.5 253.5
q0 255 132 405t364 150l2 -160q-77 0 -136 -25.5t-93.5 -64.5t-56 -92.5t-29 -102.5t-7.5 -102q0 -41 1.5 -71.5t7 -74.5t15.5 -76.5t29.5 -67.5t46 -57.5t67 -37t91.5 -14.5z" />
    <glyph glyph-name="sh" unicode="&#xd37;" horiz-adv-x="2113" 
d="M860 150h584v231h-35q-111 0 -192 20.5t-127 53t-73.5 83t-35.5 98.5t-8 112q0 180 90.5 269t241.5 89q154 0 237.5 -89.5t83.5 -271.5v-219q30 2 74.5 23.5t91 55.5t86 86t55.5 108v297h181v-1094h-1483v148h16q37 0 60.5 18t33 51t12.5 58t3 59q0 38 -3.5 65
t-15.5 55.5t-33.5 46t-59 29t-89.5 11.5q-116 0 -161.5 -52.5t-45.5 -140.5q0 -24 0.5 -37.5t3 -41.5t9 -45.5t17 -37t29 -29t42.5 -9.5h16v-148h-33q-65 0 -114.5 24t-77.5 60t-45.5 85.5t-23 91.5t-5.5 87q0 153 100.5 250.5t288.5 97.5q184 0 284.5 -97.5t100.5 -250.5
q0 -128 -80 -200zM1933 150v403q-77 -84 -160 -124t-147 -42v-237h307zM1413 522h31v226q0 41 -7.5 77.5t-23.5 69.5t-47 52.5t-74 19.5q-143 0 -143 -219q0 -33 1 -53t6.5 -46.5t16 -43t30 -34t47 -27t69 -16t94.5 -6.5z" />
    <glyph glyph-name="sa" unicode="&#xd38;" 
d="M1880 -8q-63 0 -120 13.5t-110 46t-92 80.5t-62 122t-23 166v229q0 303 -240 303q-110 0 -167.5 -70t-57.5 -225v-655h-183v655q0 295 -235 295q-50 0 -89 -16t-64.5 -39t-43.5 -60.5t-27 -69t-13.5 -76.5t-5.5 -71.5t-1 -64.5q0 -50 0.5 -79t5.5 -77.5t13.5 -78
t26 -65.5t42 -56.5t63 -34.5t87.5 -14h22v-152h-22q-108 0 -188.5 39t-130.5 113t-74.5 175t-24.5 230q0 139 35 247t94.5 173t134.5 98t160 33q99 0 186 -46.5t137 -141.5q53 96 137 142t183 46q63 0 121 -14t113 -47.5t95 -84.5t64.5 -131t24.5 -180v-200q0 -42 1 -69.5
t6.5 -62t14.5 -56.5t26 -45t41 -36t59 -21.5t81 -8.5q49 0 88 16t63 38t41.5 61t25.5 68.5t12.5 78t5 71.5t0.5 66v4q0 35 -0.5 54.5t-3 57t-8 60.5t-16 56.5t-25.5 55t-39 45.5t-54 38t-72 23t-92 9v150q107 -2 190 -28t139 -72.5t92.5 -115.5t52.5 -151.5t16 -185.5
q0 -124 -22.5 -221t-60.5 -159.5t-92 -103t-113 -57t-128 -16.5z" />
    <glyph glyph-name="ha" unicode="&#xd39;" horiz-adv-x="2131" 
d="M1655 1106q103 0 188 -33.5t150.5 -100t102 -174.5t36.5 -249q0 -255 -96.5 -403t-292.5 -148h-12v152h12q42 0 75 14t54 35t36.5 56t23.5 65.5t12 76.5t5 76.5t1 75.5q0 43 -1 72.5t-7.5 75.5t-17.5 78t-32.5 68t-52 58.5t-78 37.5t-106.5 15q-60 0 -107.5 -15
t-78.5 -37.5t-53 -58.5t-33.5 -68.5t-17.5 -78t-7.5 -75.5t-1.5 -72q0 -53 1.5 -89t7.5 -88t20 -86.5t36 -68t59 -50.5t85 -17h12v-148h-946v148h16q30 0 52 13.5t33 31.5t17.5 46.5t7.5 48.5t1 46q0 38 -3.5 65t-15.5 55.5t-33.5 46t-59.5 29t-91 11.5q-116 0 -160.5 -52.5
t-44.5 -140.5q0 -23 0.5 -36.5t3 -41.5t9 -45.5t17 -37t29 -29.5t42.5 -10h16v-148h-35q-65 0 -114.5 24t-77.5 60t-45.5 85.5t-23 91.5t-5.5 87q0 153 101 250.5t288 97.5q185 0 285 -97.5t100 -250.5q0 -125 -78 -200h408q-92 140 -92 399q0 141 36.5 249t102 174.5
t150.5 100t188 33.5z" />
    <glyph glyph-name="uni0D3E" unicode="&#xd3e;" horiz-adv-x="968" 
d="M969 553q0 -151 -32.5 -262t-91.5 -174.5t-133.5 -93t-166.5 -29.5q-78 0 -144.5 21t-120 65t-84 120t-30.5 177v20h178v-20q0 -117 49.5 -175.5t143.5 -58.5q59 0 102.5 20.5t70 55t42.5 88.5t22 112t6 134t-6 134t-22 112t-42.5 88.5t-70 55t-102.5 20.5
q-93 0 -143 -59.5t-50 -174.5v-24h-178v24q0 99 30.5 174t84 118.5t120 65t144.5 21.5q73 0 134.5 -17t116 -57.5t92.5 -103.5t59.5 -158.5t21.5 -218.5z" />
    <glyph glyph-name="uni0D3F" unicode="&#xd3f;" horiz-adv-x="446" 
d="M446 1155v-1155h-184v1141q0 99 -33.5 140.5t-99.5 41.5q-129 0 -129 -152v-26h-176v33q0 76 27.5 136t72.5 95t96.5 53.5t104.5 18.5q43 0 84 -8.5t85 -31.5t77 -58.5t54 -94t21 -133.5z" />
    <glyph glyph-name="uni0D40" unicode="&#xd40;" horiz-adv-x="446" 
d="M262 0v997q-79 -47 -178 -47q-115 0 -187.5 65t-72.5 199q0 54 18.5 99t48.5 75.5t69.5 52t81 31t83.5 9.5t84 -9t85.5 -31.5t76.5 -55t54 -84t21 -115.5v-1186h-184zM262 1214q0 117 -133 117q-67 0 -98 -27.5t-31 -89.5q0 -65 31 -92.5t98 -27.5q133 0 133 120z" />
    <glyph glyph-name="usign" unicode="&#xd41;" horiz-adv-x="794" 
d="M598 809l-61 -518q116 -23 187 -102t71 -212q0 -157 -101.5 -242t-249.5 -85q-96 0 -173 34.5t-126 110.5t-49 182q0 132 72.5 211.5t189.5 102.5l66 516q5 64 -29 102.5t-100 38.5q-45 0 -86 -33v164q66 29 141 29q107 0 179.5 -61.5t72.5 -182.5q0 -19 -4 -55zM610 -23
q0 173 -172 173q-168 0 -168 -173q0 -77 41 -124.5t127 -47.5q172 0 172 172z" />
    <glyph glyph-name="uusign" unicode="&#xd42;" horiz-adv-x="757" 
d="M94 98q0 74 62.5 131t187.5 70l62 508v16q0 57 -34 91t-96 34q-41 0 -86 -33v164q66 29 144 29q107 0 178.5 -61t71.5 -183q0 -19 -4 -55l-64 -514q105 -24 173.5 -97t68.5 -188q0 -97 -55 -167.5t-141 -104t-189 -33.5q-123 0 -222 36t-141 107l115 76
q25 -51 78.5 -75.5t146.5 -24.5q112 0 184 50.5t72 150.5q0 43 -19 80t-57 55v-2q19 -22 19 -74q0 -67 -59 -115.5t-154 -48.5q-100 0 -171 52.5t-71 125.5zM416 100q0 80 -88 80q-95 0 -95 -80q0 -73 95 -73q88 0 88 73z" />
    <glyph glyph-name="rusign" unicode="&#xd43;" horiz-adv-x="530" 
d="M279 -94q0 -80 -48 -117q123 29 123 150q0 50 -29 143.5t-63 185t-63 216t-29 229.5q0 73 14.5 134t46.5 114t89.5 88t136.5 45l43 -113q-162 -58 -162 -250q0 -89 29 -203t76.5 -251.5t58.5 -176.5q28 -92 28 -161q0 -135 -103 -224.5t-282 -89.5q-168 0 -265 63.5
t-97 182.5q0 87 65.5 153t184.5 66q103 0 174.5 -51t71.5 -133zM125 -127q0 92 -94 92q-48 0 -69 -26.5t-21 -65.5q0 -34 21.5 -62t68.5 -28q48 0 71 27t23 63z" />
    <glyph glyph-name="uni0D46" unicode="&#xd46;" horiz-adv-x="1263" 
d="M369 389q0 -53 6.5 -92.5t22 -74.5t47 -53.5t77.5 -18.5q47 0 78.5 18.5t48 53.5t23 74.5t6.5 92.5q0 54 -6.5 94.5t-23 76t-48 54.5t-78.5 19q-46 0 -77.5 -19t-47 -54.5t-22 -76t-6.5 -94.5zM166 553q0 262 144 409.5t403 147.5q121 0 220 -33.5t174 -100t116 -174
t41 -247.5q0 -264 -80.5 -404.5t-257.5 -152.5q-1 26 -1 76t-1 78q33 5 58 20t41.5 32.5t28 50.5t17 57.5t8.5 71t3.5 73.5t0.5 81v4v3v4q0 409 -391 409q-144 0 -238.5 -72.5t-111.5 -213.5q12 41 51.5 68t78 36.5t75.5 9.5q152 0 235.5 -98t83.5 -299q0 -202 -90.5 -298.5
t-251.5 -96.5q-183 0 -269.5 146t-86.5 413z" />
    <glyph glyph-name="uni0D47" unicode="&#xd47;" horiz-adv-x="1107" 
d="M367 555q0 -39 0.5 -65t5.5 -71t13.5 -76t26.5 -68t42.5 -59.5t63 -38t87.5 -15.5q-41 39 -41 131q0 102 78.5 157.5t190.5 55.5q120 0 197 -62t77 -182q0 -124 -100 -200t-320 -76q-240 0 -381 142.5t-141 426.5t140.5 424.5t381.5 140.5q220 0 320 -76t100 -202
q0 -121 -76.5 -181.5t-197.5 -60.5q-112 0 -190.5 54.5t-78.5 156.5q0 76 41 137q-49 0 -87.5 -15.5t-63 -38.5t-42.5 -60.5t-26.5 -68.5t-13.5 -76t-5.5 -70.5t-0.5 -63.5zM739 844q0 -107 95 -107q48 0 70 30t22 77q0 112 -92 112q-95 0 -95 -112zM739 260q0 -108 95 -108
q92 0 92 108q0 111 -92 111q-95 0 -95 -111z" />
    <glyph glyph-name="uni0D48" unicode="&#xd48;" horiz-adv-x="2512" 
d="M369 389q0 -53 6.5 -92.5t22 -74.5t47 -53.5t77.5 -18.5q47 0 78.5 18.5t48 53.5t23 74.5t6.5 92.5q0 54 -6.5 94.5t-23 76t-48 54.5t-78.5 19q-46 0 -77.5 -19t-47 -54.5t-22 -76t-6.5 -94.5zM166 553q0 262 144 409.5t403 147.5q121 0 220 -33.5t174 -100t116 -174
t41 -247.5q0 -264 -80.5 -404.5t-257.5 -152.5q-1 26 -1 76t-1 78q33 5 58 20t41.5 32.5t28 50.5t17 57.5t8.5 71t3.5 73.5t0.5 81v4v3v4q0 409 -391 409q-144 0 -238.5 -72.5t-111.5 -213.5q12 41 51.5 68t78 36.5t75.5 9.5q152 0 235.5 -98t83.5 -299q0 -202 -90.5 -298.5
t-251.5 -96.5q-183 0 -269.5 146t-86.5 413zM1620 389q0 -53 6 -92.5t22 -74.5t47 -53.5t77 -18.5q47 0 79 18.5t48.5 53.5t23 74.5t6.5 92.5t-6.5 94t-23 76.5t-48.5 54.5t-79 19q-46 0 -77 -19t-47 -55t-22 -76t-6 -94zM1415 553q0 262 145 409.5t404 147.5
q121 0 220 -33.5t173 -100t115 -174t41 -247.5q0 -264 -80 -404.5t-254 -152.5q-1 26 -1 76t-1 78q23 4 42 11.5t33.5 20.5t26 26t19.5 35l14 38.5t9.5 45.5t5.5 48t3 53.5t1 53.5v58v7q0 409 -392 409q-144 0 -238 -72.5t-112 -213.5q20 59 82 86.5t125 27.5
q151 0 234.5 -98t83.5 -299q0 -202 -90.5 -298.5t-251.5 -96.5q-182 0 -269.5 146.5t-87.5 412.5z" />
    <glyph glyph-name="uni0D4A" unicode="&#xd4a;" horiz-adv-x="3291" 
d="M369 389q0 -53 6.5 -92.5t22 -74.5t47 -53.5t77.5 -18.5q47 0 78.5 18.5t48 53.5t23 74.5t6.5 92.5q0 54 -6.5 94.5t-23 76t-48 54.5t-78.5 19q-46 0 -77.5 -19t-47 -54.5t-22 -76t-6.5 -94.5zM166 553q0 262 144 409.5t403 147.5q121 0 220 -33.5t174 -100t116 -174
t41 -247.5q0 -264 -80.5 -404.5t-257.5 -152.5q-1 26 -1 76t-1 78q33 5 58 20t41.5 32.5t28 50.5t17 57.5t8.5 71t3.5 73.5t0.5 81v4v3v4q0 409 -391 409q-144 0 -238.5 -72.5t-111.5 -213.5q12 41 51.5 68t78 36.5t75.5 9.5q152 0 235.5 -98t83.5 -299q0 -202 -90.5 -298.5
t-251.5 -96.5q-183 0 -269.5 146t-86.5 413zM3291 553q0 -151 -32.5 -262t-91.5 -174.5t-133.5 -93t-166.5 -29.5q-78 0 -144.5 21t-120 65t-84 120t-30.5 177v20h178v-20q0 -117 49.5 -175.5t143.5 -58.5q59 0 102.5 20.5t70.5 55.5t43 88.5t22 111.5t6 134t-6 134
t-22 111.5t-43 88.5t-70.5 55.5t-102.5 20.5q-93 0 -143 -59.5t-50 -174.5v-24h-178v24q0 99 30.5 174t84 118.5t120 65t144.5 21.5q73 0 134.5 -17t116 -57.5t92.5 -103.5t59.5 -158.5t21.5 -218.5zM2132 211l82 -80q-135 -126 -322 -135v119q143 6 240 96zM2247 168
l-86 72q91 99 104 245h111q-9 -188 -129 -317zM1534 131l84 80q93 -90 237 -96v-119q-186 9 -321 135zM1587 240l-86 -72q-120 129 -129 317h113q9 -142 102 -245zM2214 872l-82 -79q-101 90 -240 96v119q186 -9 322 -136zM2161 762l86 74q120 -129 129 -322h-111
q-12 146 -104 248zM1618 793l-84 79q136 127 321 136v-119q-141 -6 -237 -96zM1501 836l86 -74q-93 -107 -102 -248h-113q9 193 129 322z" />
    <glyph glyph-name="uni0D4B" unicode="&#xd4b;" horiz-adv-x="3129" 
d="M3129 553q0 -151 -32.5 -262t-91.5 -174.5t-133 -93t-165 -29.5q-79 0 -145.5 21t-120 65t-84 120t-30.5 177v20h178v-20q0 -117 50 -175.5t142 -58.5q59 0 102.5 20.5t70.5 55.5t43 88.5t22 111.5t6 134t-6 134t-22 111.5t-43 88.5t-70.5 55.5t-102.5 20.5
q-92 0 -142 -60t-50 -174v-24h-178v24q0 99 30.5 174t84 118.5t120 65t145.5 21.5q92 0 165 -28.5t132.5 -90.5t92 -172.5t32.5 -263.5zM1972 211l82 -80q-132 -126 -323 -135v119q140 6 241 96zM2087 168l-82 72q89 106 98 245h117q-12 -183 -133 -317zM1376 131l80 80
q97 -90 240 -96v-119q-191 9 -320 135zM1425 240l-84 -72q-120 129 -129 317h111q9 -134 102 -245zM2054 872l-82 -79q-104 90 -241 96v119q190 -9 323 -136zM2005 762l82 74q122 -134 133 -322h-117q-9 138 -98 248zM1456 793l-80 79q130 127 320 136v-119
q-139 -6 -240 -96zM1341 836l84 -74q-94 -115 -102 -248h-111q9 193 129 322zM356 555q0 -39 1 -65t5.5 -71t13.5 -76t26.5 -68t42.5 -59.5t63.5 -38t87.5 -15.5q-41 39 -41 131q0 102 78 157.5t190 55.5q120 0 197.5 -62t77.5 -182q0 -124 -101 -200t-321 -76
q-240 0 -381 142.5t-141 426.5t140.5 424.5t381.5 140.5q220 0 321 -76t101 -202q0 -121 -77 -181.5t-198 -60.5q-112 0 -190 54.5t-78 156.5q0 76 41 137q-49 0 -87.5 -15.5t-63.5 -38.5t-42.5 -60t-26.5 -68.5t-13.5 -76t-5.5 -70.5t-1 -64zM727 844q0 -107 96 -107
q47 0 69.5 30t22.5 77q0 112 -92 112q-96 0 -96 -112zM727 260q0 -108 96 -108q92 0 92 108q0 49 -22.5 80t-69.5 31q-96 0 -96 -111z" />
    <glyph glyph-name="uni0D4C" unicode="&#xd4c;" horiz-adv-x="1333" 
d="M809 793v-181h-168v181q0 77 -37.5 124.5t-93.5 47.5q-47 0 -80.5 -26.5t-51.5 -77.5t-27 -110.5t-11 -138.5h-174q11 256 102 376t234 120q144 0 225 -100q84 100 242 100q81 0 144.5 -26.5t114.5 -85.5t78 -164.5t27 -253.5q0 -303 -132.5 -443.5t-391.5 -140.5
q-220 0 -337.5 91t-117.5 292v20h178v-20q0 -122 63.5 -178t215.5 -56q85 0 146.5 23.5t97.5 61.5t57 97t28 117.5t7 135.5q0 72 -4.5 126.5t-17 105.5t-33.5 83.5t-56 52t-82 19.5q-64 0 -104.5 -47.5t-40.5 -124.5z" />
    <glyph glyph-name="uni0D4D" unicode="&#xd4d;" horiz-adv-x="18" 
d="M-37 1155q-60 0 -112 16.5t-94 50t-66.5 89.5t-24.5 129v45h168v-25q0 -76 28 -116.5t101 -40.5q70 0 98.5 40.5t28.5 116.5v25h166v-45q0 -139 -84 -212t-209 -73z" />
    <glyph glyph-name="uni0D57" unicode="&#xd57;" horiz-adv-x="1333" 
d="M809 793v-181h-168v181q0 77 -37.5 124.5t-93.5 47.5q-47 0 -80.5 -26.5t-51.5 -77.5t-27 -110.5t-11 -138.5h-174q11 256 102 376t234 120q144 0 225 -100q84 100 242 100q81 0 144.5 -26.5t114.5 -85.5t78 -164.5t27 -253.5q0 -303 -132.5 -443.5t-391.5 -140.5
q-220 0 -337.5 91t-117.5 292v20h178v-20q0 -122 63.5 -178t215.5 -56q85 0 146.5 23.5t97.5 61.5t57 97t28 117.5t7 135.5q0 72 -4.5 126.5t-17 105.5t-33.5 83.5t-56 52t-82 19.5q-64 0 -104.5 -47.5t-40.5 -124.5z" />
    <glyph glyph-name="date" unicode="&#xd79;" horiz-adv-x="2058" 
d="M1030 1042q106 66 268 66q110 0 201 -31t164.5 -103t108.5 -181h286v-154h-254q4 -58 4 -84q0 -163 -36.5 -286.5t-119 -200t-204.5 -76.5q-148 0 -225.5 111t-77.5 288q0 204 90.5 303t259.5 99h94q-84 161 -297 161q-137 0 -210.5 -69.5t-73.5 -227.5v-655h-181v655
q0 295 -231 295q-50 0 -89.5 -15.5t-65 -39t-44.5 -60t-28.5 -69.5t-15 -76.5t-6.5 -72t-1 -64.5q0 -49 1 -79t5.5 -77.5t13.5 -77.5t26.5 -65.5t42.5 -55.5t63.5 -34t87.5 -14h22v-154h-22q-212 0 -316 147t-104 410q0 139 35.5 247t96.5 173t136.5 98t161.5 33
q93 0 180.5 -47t138.5 -141q43 71 115 124zM1321 387q0 -116 34.5 -181t90.5 -65q36 0 64.5 14.5t47.5 37t32.5 58.5t20.5 69t11 79t5 78.5t1 77.5q0 51 -2 84h-110q-61 0 -101 -16.5t-60 -52t-27 -77.5t-7 -106z" />
    <glyph glyph-name="NNx" unicode="&#xd7a;" horiz-adv-x="2740" 
d="M373 391q0 -54 6.5 -94t22.5 -75t47.5 -53.5t78.5 -18.5q46 0 77.5 18.5t47.5 53.5t22.5 75.5t6.5 93.5t-6.5 93t-22.5 75.5t-47.5 54.5t-77.5 19q-47 0 -78.5 -19t-47.5 -54.5t-22.5 -75.5t-6.5 -93zM1839 653v-651h-178v655q0 295 -238 295q-233 0 -233 -295v-655h-180
v655q0 62 -18.5 112t-50 84t-74.5 57t-92 33.5t-103 10.5q-139 0 -229.5 -75t-102.5 -207q22 58 82.5 86t120.5 28q158 0 243.5 -97.5t85.5 -299.5t-93.5 -299.5t-258.5 -97.5q-354 0 -354 547q0 264 135 415.5t397 151.5q137 0 242 -46.5t156 -141.5q54 95 141 141.5
t186 46.5q98 0 185.5 -47t138.5 -141q126 190 418 190q143 0 245 -41q37 49 37 150q0 68 -33.5 102.5t-111.5 34.5q-72 0 -98.5 -29t-34.5 -100h-164q4 144 79 214t222 70q62 0 116.5 -15t102 -47.5t75.5 -91.5t28 -138q0 -67 -15 -120.5t-63 -103.5q190 -161 190 -444
q0 -266 -87.5 -412.5t-274.5 -146.5q-346 0 -346 444q0 361 202 520q-17 4 -71 4q-167 0 -245.5 -83.5t-78.5 -221.5zM2560 547q0 249 -154 346q-58 -25 -97 -68.5t-58.5 -106.5t-27 -129t-7.5 -155q0 -56 3.5 -96t14 -78t28.5 -61.5t48.5 -37.5t73.5 -14q35 0 62 12.5
t45.5 32t31.5 52t20 63.5t11 76t5 80t1 84z" />
    <glyph glyph-name="nnx" unicode="&#xd7b;" horiz-adv-x="1910" 
d="M1331 958q-167 0 -245 -83.5t-78 -221.5v-651h-181v655q0 295 -231 295q-50 0 -89.5 -15.5t-65 -39t-44.5 -60t-28.5 -69.5t-15 -76.5t-6.5 -72t-1 -64.5q0 -49 1 -79t5.5 -77.5t13.5 -77.5t26.5 -65.5t42.5 -55.5t63.5 -34t87.5 -14h22v-154h-22q-212 0 -316 147
t-104 410q0 139 35.5 247t96.5 173t136.5 98t161.5 33q93 0 180.5 -47t138.5 -141q126 190 418 190q144 0 246 -41q37 49 37 150q0 68 -33 102.5t-110 34.5q-74 0 -101 -29t-33 -100h-165q4 144 79 214t222 70q62 0 116.5 -15t102 -47.5t75 -91.5t27.5 -138
q0 -67 -15 -120.5t-63 -103.5q193 -164 193 -444q0 -266 -89 -412.5t-276 -146.5q-163 0 -254.5 107t-91.5 337q0 360 203 520q-17 4 -72 4zM1729 547q0 249 -154 346q-58 -25 -96.5 -68.5t-58 -106.5t-27 -129t-7.5 -155q0 -71 6 -118t22.5 -88t50 -61t85.5 -20
q41 0 71.5 15t49.5 46t31.5 65t18 84.5t7 91t1.5 98.5z" />
    <glyph glyph-name="RRx" unicode="&#xd7c;" horiz-adv-x="1333" 
d="M344 547q0 -82 6 -143t21.5 -121t48.5 -95t82 -41h28v-151h-28q-176 13 -256 154t-80 403q0 279 154.5 417t427.5 138q143 0 256 -41q17 23 25.5 54t9.5 48t1 48q0 68 -33.5 102.5t-111.5 34.5q-72 0 -97.5 -29t-31.5 -100h-168q9 284 299 284q63 0 118 -15t102.5 -47.5
t75.5 -91.5t28 -138q0 -67 -14.5 -120.5t-61.5 -103.5q188 -162 188 -444q0 -266 -87 -412.5t-271 -146.5q-165 0 -257.5 107t-92.5 337q0 361 202 520q-22 4 -79 4q-404 0 -404 -411zM1157 547q0 247 -158 346q-58 -25 -97 -68.5t-58.5 -106.5t-27 -129t-7.5 -155
q0 -70 6 -117.5t23.5 -88.5t52.5 -61t88 -20q40 0 70.5 15t49.5 46t31 65t17.5 84.5t7.5 91.5t2 98z" />
    <glyph glyph-name="llx" unicode="&#xd7d;" horiz-adv-x="2058" 
d="M1380 434q0 174 46.5 297t148.5 205q-104 35 -225 35q-129 0 -226 -21q203 -170 203 -481q0 -479 -369 -479q-376 0 -376 479q0 309 211 487q-8 0 -43.5 3.5t-55.5 3.5q-175 0 -261.5 -101.5t-86.5 -320.5q0 -83 6.5 -145t23.5 -119.5t51 -88t85 -30.5v-160
q-70 0 -125 20.5t-92.5 59.5t-63 87.5t-39.5 112.5t-20 126.5t-6 136.5q0 277 140.5 421t393.5 144q161 0 258 -66q45 32 153 51t185 19q248 0 416 -70q24 17 41 38t25 38t12.5 39t5 33t0.5 29q0 137 -143 137q-77 0 -102.5 -28.5t-30.5 -100.5h-168q9 284 303 284
q62 0 116 -15t101 -47.5t74.5 -91.5t27.5 -138q0 -33 -3 -57.5t-14 -60.5t-37 -70.5t-67 -65.5q99 -76 152 -187.5t53 -249.5q0 -536 -346 -536q-157 0 -244.5 109t-87.5 335zM958 147q51 0 86.5 19t55.5 47t30.5 75.5t13.5 90t3 104.5q0 307 -189 428q-192 -120 -192 -428
q0 -51 2 -87t8 -78.5t19 -70t33.5 -52t53.5 -36.5t76 -12zM1878 510q0 246 -164 360q-164 -110 -164 -436q0 -287 160 -287q38 0 67 15.5t47 45.5t29.5 62t16.5 78t6.5 81t1.5 81z" />
    <glyph glyph-name="LLx" unicode="&#xd7e;" horiz-adv-x="1906" 
d="M1317 958q-311 0 -311 -331v-242q0 -100 -32 -177t-88 -124t-128 -70.5t-156 -23.5q-94 0 -171.5 32.5t-137.5 98t-93.5 175t-33.5 253.5q0 252 126.5 403.5t332.5 151.5v-160q-66 -2 -117 -28t-81.5 -64.5t-50.5 -91t-27 -101.5t-7 -102q0 -41 1.5 -71.5t7 -74.5
t15.5 -76.5t29.5 -67.5t46 -57.5t67 -37t91.5 -14.5q121 0 172 59t51 184v252q0 118 38 207.5t105 143t151 80t183 26.5q144 0 277 -43q37 49 37 150q0 68 -33.5 102.5t-112.5 34.5q-73 0 -100 -29.5t-33 -99.5h-164q9 284 302 284q62 0 116.5 -15t102 -47.5t75 -91.5
t27.5 -138q0 -67 -15 -120.5t-63 -103.5q191 -162 191 -444q0 -266 -88 -412.5t-275 -146.5q-346 0 -346 444q0 360 203 520q-50 4 -84 4zM1726 547q0 250 -153 346q-58 -25 -97 -68.5t-59 -106.5t-27.5 -129t-7.5 -155q0 -70 6 -117.5t23 -88.5t51 -61t86 -20
q35 0 62.5 12.5t46 32t32 52t20.5 63.5t11 76t5 80t1 84z" />
    <glyph glyph-name="uni2000" unicode="&#x2000;" horiz-adv-x="754" 
 />
    <glyph glyph-name="uni2001" unicode="&#x2001;" horiz-adv-x="1509" 
 />
    <glyph glyph-name="uni2002" unicode="&#x2002;" horiz-adv-x="754" 
 />
    <glyph glyph-name="uni2003" unicode="&#x2003;" horiz-adv-x="1509" 
 />
    <glyph glyph-name="uni2004" unicode="&#x2004;" horiz-adv-x="503" 
 />
    <glyph glyph-name="uni2005" unicode="&#x2005;" horiz-adv-x="377" 
 />
    <glyph glyph-name="uni2006" unicode="&#x2006;" horiz-adv-x="251" 
 />
    <glyph glyph-name="uni2007" unicode="&#x2007;" horiz-adv-x="251" 
 />
    <glyph glyph-name="uni2008" unicode="&#x2008;" horiz-adv-x="188" 
 />
    <glyph glyph-name="uni2009" unicode="&#x2009;" horiz-adv-x="301" 
 />
    <glyph glyph-name="uni200A" unicode="&#x200a;" horiz-adv-x="83" 
 />
    <glyph glyph-name="uni200C" unicode="&#x200c;" horiz-adv-x="344" 
d="M70 45v1059h170v-1059h-170z" />
    <glyph glyph-name="uni200D" unicode="&#x200d;" horiz-adv-x="344" 
d="M240 45l-2 942l-72 115h-14l-82 -123v-934h170zM414 891h-113l-63 96v115h-72l-6 10l-8 -10l-82 2v-125l-56 -88h-108l194 295l-180 264h115l86 -131q5 -7 17 -28.5t20 -33.5q0 1 14 21.5t29 40.5l88 131h114l-190 -260z" />
    <glyph glyph-name="uni2010" unicode="&#x2010;" horiz-adv-x="761" 
d="M154 442v138h608v-138h-608z" />
    <glyph glyph-name="uni2011" unicode="&#x2011;" horiz-adv-x="761" 
d="M154 442v138h608v-138h-608z" />
    <glyph glyph-name="figuredash" unicode="&#x2012;" horiz-adv-x="761" 
d="M154 442v138h608v-138h-608z" />
    <glyph glyph-name="endash" unicode="&#x2013;" horiz-adv-x="1177" 
d="M154 442v138h1024v-138h-1024z" />
    <glyph glyph-name="emdash" unicode="&#x2014;" horiz-adv-x="2201" 
d="M154 442v138h2048v-138h-2048z" />
    <glyph glyph-name="quoteleft" unicode="&#x2018;" horiz-adv-x="360" 
d="M360 1260h-98l84 -191h-88l-92 213v166h194v-188z" />
    <glyph glyph-name="quoteright" unicode="&#x2019;" horiz-adv-x="360" 
d="M260 1260h-94v188h194v-166l-96 -213h-84z" />
    <glyph glyph-name="uni202F" unicode="&#x202f;" horiz-adv-x="301" 
 />
    <glyph glyph-name="uni205F" unicode="&#x205f;" horiz-adv-x="377" 
 />
    <glyph glyph-name="rupee" unicode="&#x20a8;" horiz-adv-x="1079" 
d="M1028 979h-323v-98h323v-142h-323v-151q0 -94 -109 -94h-117l238 -488h-182l-273 543q-16 31 -2 61.5t57 30.5h213v98h-364v142h364v98h-364v145h862v-145z" />
    <glyph glyph-name="reporterlogo2" unicode="&#x221e;" horiz-adv-x="5908" 
d="M162 1104h5746v-1104h-5746v1104zM688 887v-301h307v301h-307zM625 217v305h-303v-305h303zM625 586v301h-303v-301h303zM858 186l186 191l-186 186l-190 -186zM5849 53v998h-4645v-998h4645zM1530 467v-248h-162v668h264q109 0 168.5 -62.5t59.5 -152.5
q0 -113 -111 -176l147 -277h-192l-117 248h-57zM1530 743v-137h94q32 0 52 20t20 46q0 28 -20 49.5t-52 21.5h-94zM2388 367v-148h-457v668h457v-144h-289v-114h246v-148h-246v-114h289zM2626 455v-236h-166v668h264q107 0 168 -62.5t61 -152.5q0 -86 -61.5 -151.5
t-167.5 -65.5h-98zM2626 743v-137h92q31 0 50 20t19 46q0 28 -19 49.5t-50 21.5h-92zM3049 287q-33 33 -49 78t-18 77t-2 95v18q0 116 10 159q15 64 59 107q75 72 187 72q113 0 188 -72q26 -26 41 -55.5t21 -70.5t7 -64.5t1 -75.5q0 -54 -1 -77.5t-7 -64.5t-21 -70.5
t-41 -55.5q-74 -74 -188 -74q-113 0 -187 74zM3168 717q-12 -17 -17 -48t-5 -114q0 -86 5 -117.5t17 -46.5q24 -31 68 -31q48 0 65 31q14 16 20.5 48t6.5 116q0 82 -6.5 113t-20.5 49q-17 33 -65 33q-45 0 -68 -33zM3723 467v-248h-166v668h265q109 0 170 -62.5t61 -152.5
q0 -110 -109 -176l146 -277h-191l-120 248h-56zM3723 743v-137h92q34 0 54 20t20 46q0 28 -20 49.5t-54 21.5h-92zM4252 219v524h-164v144h491v-144h-164v-524h-163zM5085 367v-148h-454v668h454v-144h-291v-114h248v-148h-248v-114h291zM5321 467v-248h-166v668h268
q107 0 167 -62.5t60 -152.5q0 -110 -108 -176l143 -277h-190l-117 248h-57zM5321 743v-137h92q32 0 52 20t20 46q0 28 -20 49.5t-52 21.5h-92z" />
    <glyph glyph-name="uni25CC" unicode="&#x25cc;" horiz-adv-x="1173" 
d="M924 211l84 -80q-135 -126 -322 -135v119q145 6 238 96zM1040 168l-82 72q90 107 99 245h117q-9 -182 -134 -317zM330 131l80 80q97 -90 239 -96v-119q-190 9 -319 135zM381 240l-86 -72q-120 129 -129 317h110q9 -134 105 -245zM1008 872l-84 -79q-96 90 -238 96v119
q186 -9 322 -136zM958 762l82 74q125 -135 134 -322h-117q-9 137 -99 248zM410 793l-80 79q130 127 319 136v-119q-138 -6 -239 -96zM295 836l86 -74q-97 -115 -105 -248h-110q9 193 129 322z" />
    <glyph glyph-name="uni25FC" unicode="&#x25fc;" horiz-adv-x="1034" 
d="M0 1034h1034v-1034h-1034v1034z" />
    <glyph glyph-name="uni2AA5" unicode="&#x2aa5;" horiz-adv-x="1662" 
d="M709 -33q76 0 140.5 -11.5t118.5 -35.5t84.5 -68t30.5 -104v-39q0 -45 31.5 -60.5t114.5 -15.5q49 0 84.5 8t53 18t27 26t11.5 26.5t2 24.5q0 39 -47 67.5t-160 28.5v131q363 0 363 -229q0 -80 -46.5 -133t-119 -75t-168.5 -22q-138 0 -222.5 49t-84.5 156v39
q0 43 -43.5 63t-124.5 25q80 -27 80 -139q0 -92 -72 -141.5t-197 -49.5q-282 0 -282 218q0 128 107.5 185.5t318.5 57.5zM559 -213q-50 0 -82.5 -19.5t-32.5 -56.5q0 -80 117 -80q107 0 107 80q0 36 -31.5 56t-77.5 20zM1006 692v-307q0 -100 -32 -177t-88 -124t-128 -70.5
t-156 -23.5q-94 0 -171.5 32.5t-137.5 98t-93.5 175t-33.5 253.5q0 255 131.5 405t359.5 150v-160q-75 0 -133 -25.5t-91.5 -64.5t-54.5 -92.5t-28.5 -102.5t-7.5 -102q0 -41 1.5 -71.5t7 -74.5t15.5 -76.5t29.5 -67.5t46 -57.5t67 -37t91.5 -14.5q121 0 172 59t51 184v308
q0 196 114 295.5t290 99.5q93 0 170.5 -32.5t138 -98t94 -174.5t33.5 -252q0 -256 -130.5 -406.5t-358.5 -150.5v162q75 0 132.5 25t91 64t54.5 93t28 103t7 104q0 40 -1.5 71t-7 75t-16 76.5t-30 67.5t-46 57.5t-66.5 37t-91 14.5q-122 0 -172.5 -61.5t-50.5 -186.5z" />
    <glyph glyph-name="rasign" horiz-adv-x="485" 
d="M700 -106v-154h-34q-500 0 -500 401q0 72 14 146l154 815h153l-133 -809q-14 -83 -14 -152q0 -75 19.5 -124t63 -76t101 -37t144.5 -10h32z" />
    <glyph glyph-name="yasign" horiz-adv-x="528" 
d="M465 1106l43 -111q-166 -57 -166 -252q0 -91 30 -206t78.5 -252t59.5 -176q27 -95 27 -168q0 -135 -98.5 -221.5t-266.5 -86.5q-104 0 -182.5 29t-127 96t-48.5 166v15h188q2 -75 40 -112.5t132 -37.5q80 0 132 35.5t52 116.5q0 51 -29 145t-64 187t-64 219.5t-29 234.5
q0 72 15 133t48 114t91.5 87.5t138.5 44.5z" />
    <glyph glyph-name="vasign" horiz-adv-x="423" 
d="M-297 -106h537l-50 1187h177l57 -1345h-721v158z" />
    <glyph glyph-name="kka" horiz-adv-x="2594" 
d="M1516 555h-86q0 -281 -119.5 -422t-317.5 -141q-162 0 -276 90q-87 -90 -223 -90q-156 0 -242 89t-86 277q0 177 106.5 260.5t294.5 83.5q31 205 143 304.5t283 99.5q169 0 279.5 -100t140.5 -304h113q79 404 532 404q256 0 396.5 -139t140.5 -418q0 -274 -89 -412.5
t-278 -138.5h-12v152h12q38 0 68 14.5t50 36t34 57t21 66.5t11 76.5t4.5 75t0.5 73.5q0 53 -7.5 102.5t-31 107t-61 98.5t-104.5 69t-155 28q-86 0 -151 -20t-104 -57.5t-61 -79.5t-34 -95h43q183 0 288 -83.5t105 -260.5q0 -179 -81.5 -272.5t-223.5 -93.5
q-108 0 -182 74.5t-107.5 198.5t-33.5 290zM1767 555h-71q0 -190 20 -270q34 -134 127 -135q66 0 96.5 56t30.5 146q0 39 -9.5 72t-31 64t-63 49t-99.5 18zM340 352q0 -99 35.5 -150.5t120.5 -51.5q83 0 131 51q-70 128 -70 354q-62 0 -106.5 -18t-67.5 -49t-33 -64t-10 -72
zM993 952q-64 0 -110.5 -19.5t-74 -56t-42.5 -78.5t-21 -96h494q-30 250 -246 250zM1245 555h-508q0 -44 1 -76t6.5 -77.5t15.5 -77.5t29 -67t45.5 -56.5t67 -36t91.5 -14.5t91 14.5t66 36t44.5 57t28 67t15 77.5t6.5 77t1 76z" />
    <glyph glyph-name="kta" horiz-adv-x="1820" 
d="M993 -8q-162 0 -276 90q-87 -90 -223 -90q-156 0 -242 89t-86 277q0 176 108 260t293 84q31 205 143 304.5t283 99.5q169 0 279.5 -100t140.5 -304q191 0 299.5 -83.5t108.5 -260.5q0 -188 -88 -277t-244 -89q-1 0 -33 4q-1 0 -4 1t-4 1v152h37q90 0 127 51.5t37 150.5
q0 38 -10.5 72t-33.5 64.5t-66.5 48.5t-102.5 18q-9 -284 -126 -423.5t-317 -139.5zM1247 555h-510q0 -44 1 -76t6.5 -77.5t15.5 -77.5t29 -67t45.5 -56.5t67 -36t91.5 -14.5t91 14.5t66 36t45 56.5t29 67t15.5 77.5t6.5 77.5t1 76zM993 952q-64 0 -110.5 -19.5t-74 -56
t-42.5 -78.5t-21 -96h494q-30 250 -246 250zM340 352q0 -99 36 -150.5t122 -51.5q81 0 129 51q-70 128 -70 354q-62 0 -106.5 -18t-67.5 -49t-33 -64t-10 -72zM993 -326q-362 0 -362 148q0 51 49.5 86.5t128 51t178.5 15.5q58 0 113 -9t107 -28.5t86 -56t40 -84.5h-131
q-19 70 -215 70q-207 0 -207 -43q0 -37 203 -37q185 0 280 -42.5t95 -119.5q0 -75 -99.5 -114t-275.5 -39q-69 0 -129.5 9t-113.5 28t-86.5 53.5t-39.5 81.5h144q34 -58 225 -58q221 0 221 43q0 45 -211 45z" />
    <glyph glyph-name="kth" horiz-adv-x="3201" 
d="M1413 702q135 0 221 -45q27 225 160 337t360 112q162 0 259 -66q89 66 251 66q254 0 395.5 -143.5t141.5 -421.5q0 -74 -6 -136.5t-20 -126.5t-39.5 -112.5t-63 -87.5t-92.5 -59.5t-125 -20.5v160q50 0 84.5 30.5t52 87.5t24.5 120t7 145q0 219 -87.5 320.5t-262.5 101.5
q-26 0 -95 -13q203 -168 203 -481q0 -479 -368 -479q-183 0 -280 118.5t-97 360.5q0 309 211 487q-8 0 -43.5 3.5t-55.5 3.5q-175 0 -261.5 -101.5t-86.5 -320.5v-539h-174v365q0 77 -46 132.5t-144 55.5q-9 -284 -126 -423.5t-317 -139.5q-162 0 -276 90q-87 -90 -223 -90
q-156 0 -242 89t-86 277q0 176 108 260t293 84q31 205 143 304.5t283 99.5q169 0 279.5 -100t140.5 -304zM2413 147q51 0 87 19t55.5 47t30 76t13 89.5t2.5 104.5q0 307 -188 428q-191 -120 -191 -428q0 -44 1 -75t5.5 -69t12.5 -63.5t22 -51.5t34 -42t49.5 -25.5t66.5 -9.5
zM1247 555h-510q0 -44 1 -76t6.5 -77.5t15.5 -77.5t29 -67t45.5 -56.5t67 -36t91.5 -14.5t91 14.5t66 36t45 56.5t29 67t15.5 77.5t6.5 77.5t1 76zM993 952q-64 0 -110.5 -19.5t-74 -56t-42.5 -78.5t-21 -96h494q-30 250 -246 250zM340 352q0 -99 36 -150.5t122 -51.5
q81 0 129 51q-70 128 -70 354q-62 0 -106.5 -18t-67.5 -49t-33 -64t-10 -72z" />
    <glyph glyph-name="kla" horiz-adv-x="1820" 
d="M993 -8q-162 0 -276 90q-87 -90 -223 -90q-156 0 -242 89t-86 277q0 176 108 260t293 84q31 205 143 304.5t283 99.5q169 0 279.5 -100t140.5 -304q191 0 299.5 -83.5t108.5 -260.5q0 -180 -84.5 -272t-229.5 -92q-9 0 -59 4v154q14 -2 37 -2q90 0 127 51.5t37 150.5
q0 38 -10.5 72t-33.5 64.5t-66.5 48.5t-102.5 18q-9 -284 -126 -423.5t-317 -139.5zM1247 555h-510q0 -44 1 -76t6.5 -77.5t15.5 -77.5t29 -67t45.5 -56.5t67 -36t91.5 -14.5t91 14.5t66 36t45 56.5t29 67t15.5 77.5t6.5 77.5t1 76zM993 952q-64 0 -110.5 -19.5t-74 -56
t-42.5 -78.5t-21 -96h494q-30 250 -246 250zM340 352q0 -99 36 -150.5t122 -51.5q81 0 129 51q-70 128 -70 354q-62 0 -106.5 -18t-67.5 -49t-33 -64t-10 -72zM778 -33q77 0 142.5 -11.5t120.5 -35.5t86.5 -68t31.5 -104v-39q0 -45 30.5 -60.5t115.5 -15.5q61 0 101 10.5
t56 29t20.5 32t4.5 31.5q0 38 -48 67t-163 29v131q369 0 369 -229q0 -80 -47 -133t-121 -75t-172 -22q-66 0 -120 11t-97.5 34t-68 64t-24.5 96v39q0 78 -176 88q82 -28 82 -139q0 -92 -73 -141.5t-201 -49.5q-150 0 -216.5 56t-66.5 162q0 129 107.5 186t326.5 57z
M621 -213q-47 0 -81 -20t-34 -56q0 -80 117 -80q114 0 114 80q0 36 -34.5 56t-81.5 20z" />
    <glyph glyph-name="ksh" horiz-adv-x="3028" 
d="M1014 -8q-170 0 -293 98q-85 -98 -227 -98q-156 0 -242 89t-86 277q0 177 106.5 260.5t294.5 83.5q37 203 155.5 303.5t291.5 100.5q170 0 289.5 -101t156.5 -303q188 0 296 -83.5t108 -260.5q0 -110 -45 -208h540v231h-35q-111 0 -192 20.5t-127 53t-73.5 83t-35.5 98.5
t-8 112q0 180 91.5 269t244.5 89q154 0 236 -89.5t82 -271.5v-219q31 2 76 23.5t92 55.5t86.5 86t54.5 108v297h178v-1094h-1538v148h37q89 0 126.5 51.5t37.5 150.5q0 38 -10.5 72t-33.5 64.5t-66.5 48.5t-102.5 18q-9 -281 -136.5 -422t-328.5 -141zM1288 555h-551
q0 -40 1 -69t7 -74t16.5 -78t31 -69.5t49 -60t73 -39t99.5 -15.5t99 15.5t72.5 38.5t49 60.5t30.5 69.5t15.5 78t6.5 74t1 69zM2329 522h30v226q0 41 -7 77.5t-23 69.5t-46 52.5t-71 19.5q-79 0 -112.5 -55t-33.5 -164q0 -33 1 -53t6.5 -47t16 -43t29.5 -33.5t46.5 -27
t69 -16t94.5 -6.5zM1014 952q-223 0 -269 -250h535q-46 250 -266 250zM2851 150v403q-80 -86 -162 -125t-147 -41v-237h309zM340 352q0 -99 35.5 -150.5t120.5 -51.5q79 0 133 57q-72 126 -72 348q-62 0 -106.5 -18t-67.5 -49t-33 -64t-10 -72z" />
    <glyph glyph-name="gga" horiz-adv-x="1662" 
d="M1004 -250v-57q0 -79 -46.5 -130.5t-116.5 -71t-163 -19.5q-100 0 -175.5 25.5t-122 82.5t-46.5 141q0 109 104 176.5t275 67.5v-129q-117 0 -166 -34t-49 -81q0 -22 5 -39t21 -37.5t54.5 -32t97.5 -11.5q87 0 119 19t32 73v57q0 59 26 102t72.5 67t102.5 35t125 11
q151 0 247.5 -61.5t96.5 -182.5q0 -112 -105.5 -180.5t-277.5 -68.5v129q117 0 165 34.5t48 85.5q0 22 -4 37t-19 35.5t-53.5 31.5t-97.5 11q-84 0 -116.5 -19t-32.5 -67zM1006 692v-307q0 -100 -32 -177t-88 -124t-128 -70.5t-156 -23.5q-94 0 -171.5 32.5t-137.5 98
t-93.5 175t-33.5 253.5q0 255 131.5 405t359.5 150v-160q-75 0 -133 -25.5t-91.5 -64.5t-54.5 -92.5t-28.5 -102.5t-7.5 -102q0 -41 1.5 -71.5t7 -74.5t15.5 -76.5t29.5 -67.5t46 -57.5t67 -37t91.5 -14.5q121 0 172 59t51 184v308q0 196 114 295.5t290 99.5
q93 0 170.5 -32.5t138 -98t94 -174.5t33.5 -252q0 -256 -130.5 -406.5t-358.5 -150.5v162q75 0 132.5 25t91 64t54.5 93t28 103t7 104q0 40 -1.5 71t-7 75t-16 76.5t-30 67.5t-46 57.5t-66.5 37t-91 14.5q-122 0 -172.5 -61.5t-50.5 -186.5z" />
    <glyph glyph-name="gda" horiz-adv-x="1751" 
d="M1264 954q-73 0 -124.5 -15t-77 -34.5t-39.5 -51.5t-16.5 -53t-2.5 -52v-363q0 -100 -31.5 -177t-87.5 -124t-127.5 -70.5t-155.5 -23.5q-94 0 -171.5 32.5t-137.5 98t-93.5 175t-33.5 253.5q0 255 131.5 405t359.5 150v-160q-75 0 -133 -25.5t-91.5 -64.5t-54.5 -92.5
t-28.5 -102.5t-7.5 -102q0 -41 1.5 -71.5t7 -74.5t15.5 -76.5t29.5 -67.5t46 -57.5t67 -37t91.5 -14.5q121 0 172 59t51 184v308q0 127 59 218.5t156.5 135t221.5 43.5q114 0 211.5 -36.5t160 -110.5t62.5 -173q0 -45 -15 -87.5t-53 -82.5t-94 -59q113 -18 166 -84.5
t53 -159.5q0 -142 -94 -226.5t-301 -84.5h-162v160h145q128 0 177 40.5t49 119.5q0 81 -55 115t-171 34h-145v160h131q97 0 138.5 32.5t41.5 114.5q0 176 -241 176z" />
    <glyph glyph-name="gna" 
d="M582 -8q-69 0 -128 16.5t-113 57t-92 103t-60.5 159.5t-22.5 221q0 103 15.5 185.5t51 151.5t91.5 115.5t139.5 72.5t191.5 28v-150q-88 0 -150.5 -29t-92.5 -65t-46 -100t-18 -101.5t-2 -101.5v-6q0 -43 0.5 -66t5 -71.5t12.5 -78t25.5 -68.5t41.5 -61t63 -38t88 -16
q46 0 81 8.5t59 21.5t41 36t26 45t14.5 56.5t6.5 62t1 69.5v200q0 100 24.5 180t64.5 131t95 84.5t113 47.5t121 14q98 0 181.5 -46.5t133.5 -141.5q53 95 140 141.5t188 46.5q84 0 158.5 -33t134.5 -98t95.5 -173t35.5 -247q0 -262 -104 -409.5t-314 -147.5h-23v152h23
q49 0 87.5 14t63 34.5t42 56.5t26 65.5t13.5 78t5.5 77.5t0.5 79q0 38 -1 64.5t-5.5 71.5t-13.5 76.5t-27 69t-43.5 60.5t-64.5 39t-89 16q-236 0 -236 -295v-655h-182v655q0 155 -57.5 225t-167.5 70q-238 0 -238 -303v-229q0 -92 -23.5 -166t-62.5 -122t-92.5 -80.5
t-110.5 -46t-120 -13.5z" />
    <glyph glyph-name="gma" horiz-adv-x="2498" 
d="M1962 1106q68 0 136 -12t142 -45t130 -83.5t92.5 -134.5t36.5 -190v-639h-1045v655q0 155 -57.5 225t-167.5 70q-238 0 -238 -303v-229q0 -92 -23.5 -166t-62.5 -122t-92.5 -80.5t-110.5 -46t-120 -13.5q-69 0 -128 16.5t-113 57t-92 103t-60.5 159.5t-22.5 221
q0 103 15.5 185.5t51 151.5t91.5 115.5t139.5 72.5t191.5 28v-150q-88 0 -150.5 -29t-92.5 -65t-46 -100t-18 -101.5t-2 -101.5v-6q0 -43 0.5 -66t5 -71.5t12.5 -78t25.5 -68.5t41.5 -61t63 -38t88 -16q46 0 81 8.5t59 21.5t41 36t26 45t14.5 56.5t6.5 62t1 69.5v200
q0 100 24.5 180t64.5 131t95 84.5t113 47.5t121 14q100 0 189.5 -47t142.5 -141q72 97 182.5 142.5t218.5 45.5zM1767 780q-53 0 -92 -37.5t-39 -124.5v-468h246l31 405q3 36 -2.5 72t-19.5 72t-46 58.5t-78 22.5zM1962 956q-130 0 -209 -59q39 8 72 8q127 0 204 -91
t70 -236l-31 -428h248v489q0 77 -24 136t-59.5 92.5t-85.5 54.5t-93.5 27.5t-91.5 6.5z" />
    <glyph glyph-name="ngk" horiz-adv-x="1820" 
d="M463 1106q73 0 136 -28.5t99 -78.5q116 107 295 107q169 0 279.5 -100t140.5 -304q191 0 299.5 -83.5t108.5 -260.5q0 -180 -84.5 -272t-229.5 -92q-9 0 -59 4v154q14 -2 37 -2q90 0 127 51.5t37 150.5q0 38 -10.5 72t-33.5 64.5t-66.5 48.5t-102.5 18
q-9 -284 -126 -423.5t-317 -139.5q-162 0 -276 90q-87 -90 -223 -90q-156 0 -242 89t-86 277q0 191 127 275q-127 62 -127 203q0 128 81 199t216 71zM1247 555h-510q0 -44 1 -76t6.5 -77.5t15.5 -77.5t29 -67t45.5 -56.5t67 -36t91.5 -14.5t91 14.5t66 36t45 56.5t29 67
t15.5 77.5t6.5 77.5t1 76zM993 952q-64 0 -110.5 -19.5t-74 -56t-42.5 -78.5t-21 -96h494q-30 250 -246 250zM340 352q0 -99 36 -150.5t122 -51.5q81 0 129 51q-70 128 -70 354q-62 0 -106.5 -18t-67.5 -49t-33 -64t-10 -72zM496 700h71q7 65 35 136q-6 49 -41 87t-104 38
q-65 0 -93 -39.5t-28 -92.5q0 -22 7 -42.5t23.5 -41t50 -33t79.5 -12.5z" />
    <glyph glyph-name="ngg" horiz-adv-x="2691" 
d="M373 391q0 -54 6.5 -94t22.5 -75t47.5 -53.5t78.5 -18.5q46 0 77.5 18.5t47.5 53.5t22.5 75.5t6.5 93.5t-6.5 93t-22.5 75.5t-47.5 54.5t-77.5 19q-47 0 -78.5 -19t-47.5 -54.5t-22.5 -75.5t-6.5 -93zM1315 147q44 0 77 11.5t53.5 36.5t33.5 52t19 70.5t7.5 78t1.5 87.5
q0 61 -7 113t-25.5 112.5t-59 112.5t-100.5 90q-191 -123 -191 -428q0 -44 1 -75t5.5 -69t12.5 -63.5t22 -51.5t34 -42t49.5 -25.5t66.5 -9.5zM1481 952q211 -178 211 -483q0 -242 -97.5 -360.5t-279.5 -118.5q-179 0 -275 118.5t-96 360.5q0 316 203 483q-124 23 -242 23
q-131 0 -238 -27t-174 -71.5t-105.5 -96.5t-47.5 -108q22 58 82.5 86t120.5 28q158 0 243.5 -97.5t85.5 -299.5t-93.5 -299.5t-258.5 -97.5q-121 0 -202 66t-116.5 177t-35.5 263q0 156 53.5 274t152.5 191.5t232.5 110t300.5 36.5q265 0 412 -74q131 70 272 70
q111 0 204 -42.5t132 -113.5q105 156 318 156q105 0 193.5 -36.5t145 -110.5t56.5 -173q0 -70 -36.5 -135t-109.5 -94q100 -18 149.5 -85t49.5 -159q0 -141 -87.5 -226t-274.5 -85h-146v160h133q116 0 159.5 41t43.5 121q0 81 -48 114t-155 33h-133v160h119q89 0 127.5 33
t38.5 114q0 176 -221 176q-66 0 -112.5 -15.5t-70 -36.5t-36 -57.5t-15 -63t-2.5 -68.5v-711h-166v711q0 116 -81.5 180.5t-200.5 64.5q-13 0 -82 -6z" />
    <glyph glyph-name="cca" horiz-adv-x="1730" 
d="M881 150h665v944h185v-1440h-1289v147h187q157 0 267 51t140 150h-870v148h311q506 0 506 385q0 94 -55 152t-150 58q-79 0 -128.5 -38.5t-49.5 -110.5q0 -145 107 -145v-158h-29q-60 0 -106.5 21t-73 52t-43.5 72t-23 76t-6 68q0 156 101.5 240.5t263.5 84.5
q174 0 283.5 -95.5t109.5 -272.5q0 -139 -75.5 -243t-227.5 -146zM1030 -199h516v201h-313q-7 -26 -22.5 -56t-40 -61t-61.5 -54.5t-79 -29.5z" />
    <glyph glyph-name="cch" horiz-adv-x="1804" 
d="M743 -471h326q-41 76 -41 229q0 160 80 246h-942v154h326q528 0 528 401q0 100 -57 160.5t-158 60.5q-83 0 -133.5 -39t-50.5 -120q0 -148 110 -148v-162h-31q-62 0 -110.5 22t-76 54t-45.5 74.5t-24 78t-6 68.5q0 164 107 255t274 91q182 0 297 -102.5t115 -288.5
q0 -144 -79.5 -252.5t-238.5 -152.5h695v944h194v-1098h-78q91 -101 91 -246q0 -352 -263 -352q-115 0 -182 69.5t-67 215.5q0 118 53 192t157 97q-53 12 -92 12q-135 0 -193.5 -66t-58.5 -170q0 -34 0.5 -53.5t3.5 -49t10.5 -47t19 -35.5t31.5 -28t46 -12v-117h-1114v115
h326q119 0 175 50.5t56 139.5q0 56 -32.5 92.5t-100.5 36.5q-53 0 -86 -19.5t-33 -57.5q0 -8 1.5 -15.5t6.5 -18t13 -18t24 -13t37 -5.5v-125h-33q-53 0 -91.5 20t-57 51.5t-26 60t-7.5 56.5q0 102 72.5 156.5t189.5 54.5q130 0 205.5 -64t75.5 -185q0 -150 -138 -197z
M1671 -244q0 67 -26 127q-112 -4 -151.5 -49t-39.5 -143q0 -83 20 -122.5t85 -39.5q30 0 51.5 14t33 34t18 53t8 60t1.5 66z" />
    <glyph glyph-name="jja" horiz-adv-x="3215" 
d="M2458 571v236q0 57 -40 96.5t-95 55.5t-117 16q60 -16 93.5 -69t33.5 -115q0 -234 -287 -234q-129 0 -199 53q-215 -622 -1134 -622q-99 0 -173.5 5.5t-148 23t-120.5 47t-76 79t-29 117.5q0 57 19.5 101t49.5 70t71 42.5t78.5 22.5t78.5 6h708q135 0 204 62t69 184
q0 227 -217 227q-93 0 -139 -48.5t-46 -119.5v-236h-180v236q0 57 -39.5 96.5t-94.5 55.5t-118 16q60 -17 95.5 -69.5t35.5 -114.5q0 -121 -77.5 -177.5t-214.5 -56.5q-281 0 -281 258q0 64 24 115t63.5 83.5t95 53.5t114.5 30t125 9q103 0 200 -30.5t160 -94.5
q37 58 111 91.5t168 33.5q63 0 119 -11.5t107 -38t87.5 -67.5t58 -103t21.5 -141q0 -28 -3 -54.5t-13.5 -65.5t-29 -72t-53 -68t-80 -59t-116 -39.5t-156.5 -15.5h-696q-68 0 -101.5 -23.5t-33.5 -85.5q0 -73 101 -105t294 -32q147 0 280.5 21t262.5 71.5t227 127.5
t167 197.5t89 272.5q0 64 24 115t63.5 83.5t95.5 53.5t115 30t126 9q104 0 200.5 -30.5t156.5 -94.5q39 58 113.5 91.5t168.5 33.5q78 0 146.5 -19.5t124 -59.5t88 -107.5t32.5 -155.5q0 -68 -16.5 -127.5t-60 -109t-109.5 -62.5q62 -6 105.5 -40.5t62 -81t18.5 -99.5
q0 -112 -70.5 -182t-224.5 -70q-146 0 -218 61t-72 164q0 109 90 162h-43q-26 0 -62.5 -22t-52.5 -44v4l-149 -163q-55 -57 -105.5 -91.5t-99.5 -49t-82 -18t-86 -3.5q-283 0 -283 268q0 57 19.5 101t49.5 70t71.5 42.5t80 22.5t80.5 6h705q136 0 206 62t70 184
q0 227 -219 227q-92 0 -137 -48.5t-45 -119.5v-236h-180zM2427 379h-356q-74 0 -107 -28.5t-33 -94.5q0 -64 31.5 -91.5t97.5 -27.5q58 0 106 17.5t107 72.5zM2791 256q0 -65 35.5 -92t89.5 -27q129 0 129 119q0 123 -129 123q-54 0 -89.5 -28t-35.5 -95zM1935 797
q0 -51 25.5 -85t87.5 -34q104 0 104 119q0 112 -104 112q-113 0 -113 -112zM344 797q0 -119 107 -119q60 0 85 34t25 85q0 112 -110 112q-107 0 -107 -112z" />
    <glyph glyph-name="jna" horiz-adv-x="4120" 
d="M2662 936q68 80 174.5 124t223.5 44q143 0 270 -68q93 70 252 70q256 0 397.5 -143.5t141.5 -421.5q0 -74 -6 -136.5t-20 -126.5t-40 -112.5t-63 -87.5t-92.5 -59.5t-125.5 -20.5v160q42 2 73 24t49.5 56t29.5 85.5t14.5 102t3.5 115.5q0 218 -90 320t-266 102
q-7 0 -94 -7q209 -178 209 -487q0 -242 -97 -360.5t-278 -118.5t-278 118.5t-97 360.5q0 314 205 481q-45 11 -102 11q-58 0 -110 -18.5t-94.5 -54t-67.5 -95.5t-25 -136v-655h-181v655q0 76 -27 134.5t-74 93.5t-105.5 52t-126.5 17q-139 0 -232 -75.5t-106 -206.5
q24 58 85.5 86t118.5 28q159 0 246.5 -98t87.5 -299t-95 -299t-259 -98q-296 0 -348 389q-284 -393 -1030 -393q-99 0 -173.5 5.5t-148 23t-120.5 47t-76 79t-29 117.5q0 57 19.5 101t49.5 70t71 42.5t78.5 22.5t78.5 6h708q135 0 204 62t69 184q0 227 -217 227
q-93 0 -139 -48.5t-46 -119.5v-236h-180v236q0 57 -39.5 96.5t-94.5 55.5t-118 16q60 -17 95.5 -69.5t35.5 -114.5q0 -121 -77.5 -177.5t-214.5 -56.5q-281 0 -281 258q0 64 24 115t63.5 83.5t95 53.5t114.5 30t125 9q103 0 200 -30.5t160 -94.5q37 58 111 91.5t168 33.5
q63 0 119 -11.5t107 -38t87.5 -67.5t58 -103t21.5 -141q0 -28 -3 -54.5t-13.5 -65.5t-29 -72t-53 -68t-80 -59t-116 -39.5t-156.5 -15.5h-696q-68 0 -101.5 -23.5t-33.5 -85.5q0 -73 101 -105t294 -32q130 0 250 16t240 54t217.5 95.5t176 148t120.5 204.5
q26 218 159.5 340.5t372.5 122.5q127 0 230 -43t161 -127zM3328 147q44 0 77 11.5t54 36.5t34 52.5t18.5 70t7.5 78t2 87.5q0 306 -193 428q-193 -121 -193 -428q0 -62 3 -104.5t14 -90t31 -75.5t56.5 -47t88.5 -19zM1942 391q0 -53 6.5 -93.5t23 -75.5t48 -53.5t77.5 -18.5
q47 0 79 18.5t48 54t22.5 75t6.5 93.5q0 53 -6.5 93t-22.5 75.5t-48 54.5t-79 19q-46 0 -77.5 -19t-48 -54.5t-23 -75.5t-6.5 -93zM344 797q0 -119 107 -119q60 0 85 34t25 85q0 112 -110 112q-107 0 -107 -112z" />
    <glyph glyph-name="nca" horiz-adv-x="2863" 
d="M1423 150h605q284 9 284 419q0 185 -85.5 287t-254.5 102q-63 0 -82 -4q112 -74 151.5 -165t39.5 -197q0 -171 -97.5 -262.5t-240.5 -91.5q-147 0 -241.5 91t-94.5 263q0 240 182 362q-47 7 -84 7q-86 0 -155.5 -31t-114.5 -101.5t-45 -171.5v-655h-180v655
q0 62 -18.5 112t-50 84t-74.5 57t-92 33.5t-103 10.5q-139 0 -229.5 -75t-102.5 -207q22 58 82.5 86t120.5 28q158 0 243.5 -97.5t85.5 -299.5t-93.5 -299.5t-258.5 -97.5q-182 0 -268 142.5t-86 404.5q0 264 135 415.5t397 151.5q129 0 233 -43t159 -127q71 81 176.5 125.5
t220.5 44.5q157 0 256 -43q86 43 205 43q257 0 398.5 -135.5t141.5 -397.5q0 -297 -139 -423h332v942h182v-1090h-1440v148zM1743 381q47 0 79.5 18t49 52.5t23 74.5t6.5 95q0 207 -158 299q-156 -93 -156 -299q0 -108 37 -174t119 -66zM373 391q0 -54 6.5 -94t22.5 -75
t47.5 -53.5t78.5 -18.5q46 0 77.5 18.5t47.5 53.5t22.5 75.5t6.5 93.5t-6.5 93t-22.5 75.5t-47.5 54.5t-77.5 19q-47 0 -78.5 -19t-47.5 -54.5t-22.5 -75.5t-6.5 -93z" />
    <glyph glyph-name="njah" horiz-adv-x="2861" 
d="M373 391q0 -54 6.5 -94t22.5 -75t47.5 -53.5t78.5 -18.5q46 0 77.5 18.5t47.5 53.5t22.5 75.5t6.5 93.5t-6.5 93t-22.5 75.5t-47.5 54.5t-77.5 19q-47 0 -78.5 -19t-47.5 -54.5t-22.5 -75.5t-6.5 -93zM2071 379h-357q-72 0 -103.5 -28.5t-31.5 -94.5q0 -64 30 -91.5
t95 -27.5q59 0 107 17.5t106 72.5zM2439 256q0 -119 121 -119q129 0 129 119q0 68 -34.5 95.5t-94.5 27.5q-121 0 -121 -123zM1583 797q0 -50 25 -84.5t84 -34.5q58 0 83 34.5t25 84.5q0 112 -108 112q-109 0 -109 -112zM1528 975q-165 0 -251.5 -86.5t-86.5 -231.5v-655
h-180v655q0 62 -18.5 112t-50 84t-74.5 57t-92 33.5t-103 10.5q-139 0 -229.5 -75t-102.5 -207q22 58 82.5 86t120.5 28q158 0 243.5 -97.5t85.5 -299.5t-93.5 -299.5t-258.5 -97.5q-182 0 -268 142.5t-86 404.5q0 264 135 415.5t397 151.5q129 0 233 -43t159 -127
q59 79 167.5 126.5t233.5 47.5q109 0 197 -33q69 29 174 29q99 0 187 -31t138 -94q39 58 113 91.5t168 33.5q79 0 147.5 -19.5t124.5 -59.5t88.5 -107.5t32.5 -155.5q0 -68 -16.5 -127.5t-60 -109t-109.5 -62.5q62 -6 105.5 -40.5t62 -81t18.5 -99.5q0 -111 -72.5 -181.5
t-226.5 -70.5q-145 0 -217 61t-72 164q0 110 90 162h-43q-26 0 -59.5 -21.5t-50.5 -44.5v4l-154 -163q-55 -57 -104.5 -91.5t-98.5 -49t-82.5 -18t-87.5 -3.5q-21 0 -39.5 1t-48.5 7t-53.5 16t-50.5 30.5t-44.5 47.5t-29.5 70t-12 96q0 57 19.5 101t49.5 70t71 42.5
t78.5 22.5t78.5 6h708q135 0 204 62t69 184q0 227 -217 227q-93 0 -139 -48.5t-46 -119.5v-236h-180v236q0 57 -40 96.5t-95 55.5t-117 16q60 -16 94.5 -69t34.5 -115q0 -234 -290 -234q-287 0 -287 234q0 62 33.5 115t93.5 69z" />
    <glyph glyph-name="nnj" horiz-adv-x="3864" 
d="M2417 936q68 81 170.5 125.5t216.5 44.5q135 0 272 -70q96 70 252 70q256 0 396.5 -143.5t140.5 -421.5q0 -74 -6 -136.5t-20 -126.5t-39.5 -112.5t-62.5 -87.5t-92 -59.5t-124 -20.5v160q53 2 88 33t52 88.5t23 118t6 143.5q0 218 -90 320t-266 102q-2 0 -96 -7
q213 -182 213 -487q0 -242 -97.5 -360.5t-279.5 -118.5q-179 0 -276 118.5t-97 360.5q0 316 203 481q-53 13 -104 13q-57 0 -108.5 -18.5t-94 -54.5t-67.5 -96t-25 -137v-655h-181v655q0 77 -24.5 137t-66.5 96t-93 54.5t-108 18.5q-51 0 -107 -13q205 -167 205 -481
q0 -243 -96.5 -361t-278.5 -118q-179 0 -274 118.5t-95 360.5q0 316 203 481q-59 13 -106 13q-123 0 -208 -78t-85 -228v-655h-180v655q0 62 -18.5 112t-50 84t-74.5 57t-92 33.5t-103 10.5q-139 0 -229.5 -75t-102.5 -207q22 58 82.5 86t120.5 28q158 0 243.5 -97.5
t85.5 -299.5t-93.5 -299.5t-258.5 -97.5q-354 0 -354 547q0 264 135 415.5t397 151.5q129 0 233 -43t159 -127q71 81 176.5 125.5t220.5 44.5q139 0 270 -70q131 70 271 70q113 0 215 -44.5t174 -125.5zM1755 911q-188 -121 -188 -428q0 -62 2.5 -104t13.5 -90t30.5 -76
t55 -47t86.5 -19q37 0 66.5 9.5t49.5 25.5t34 42t22 51.5t12.5 63.5t5.5 69t1 75q0 308 -191 428zM373 391q0 -54 6.5 -94t22.5 -75t47.5 -53.5t78.5 -18.5q46 0 77.5 18.5t47.5 53.5t22.5 75.5t6.5 93.5t-6.5 93t-22.5 75.5t-47.5 54.5t-77.5 19q-47 0 -78.5 -19
t-47.5 -54.5t-22.5 -75.5t-6.5 -93zM3074 147q44 0 77 11.5t54 36.5t34 52.5t18.5 70t7.5 78t2 87.5q0 306 -193 428q-190 -119 -190 -428q0 -63 2.5 -104.5t13 -89.5t30.5 -76t56 -47t88 -19z" />
    <glyph glyph-name="TTa" horiz-adv-x="1103" 
d="M209 154v155h475q122 0 181 30t59 83q0 57 -63.5 82.5t-217.5 25.5q-238 0 -345.5 67t-107.5 218q0 97 62 165t161 99t226 31q75 0 149 -17t141 -51t108.5 -94.5t41.5 -138.5v-31h-168q0 199 -276 199q-123 0 -196.5 -39t-73.5 -115q0 -34 8.5 -56.5t34.5 -44.5t82.5 -33
t142.5 -11q471 0 471 -264q0 -124 -121 -195q121 -80 121 -223q0 -137 -129 -219t-344 -82q-89 0 -169 17t-148 51t-108 94t-40 139v35h170q0 -108 71 -149.5t224 -41.5q141 0 217 40t76 118t-57 115t-195 41h-463z" />
    <glyph glyph-name="DDa" 
d="M754 -37q88 0 162.5 -18t128 -63.5t53.5 -112.5v-74q0 -86 180 -86q87 0 128.5 21.5t41.5 84.5v244h174v-240q0 -65 44 -87.5t134 -22.5q63 0 103.5 11t56.5 30.5t20.5 34t4.5 34.5q0 18 -1.5 29.5t-11.5 28t-28 26t-53 16.5t-85 7h-32v135h32q178 0 263 -64t85 -178
q0 -81 -51.5 -138.5t-129.5 -83t-173 -25.5q-141 0 -264 75q-103 -75 -258 -75q-67 0 -127 11.5t-112.5 35t-83.5 66t-31 98.5v47q0 30 -4 44.5t-20.5 28.5t-51 18.5t-94.5 4.5q-52 0 -88.5 -8.5t-53.5 -18.5t-26 -27.5t-10 -26t-1 -24.5q0 -20 1 -29t13 -28t36 -28.5
t75 -18t125 -8.5v-135q-156 4 -251 34.5t-133 82t-38 130.5q0 67 28.5 116t79 75.5t110.5 38.5t133 12zM582 1106q63 0 120 -13.5t110.5 -46t92.5 -80.5t62.5 -122t23.5 -166v-229q0 -139 54 -219t184 -80q111 0 168 68t57 222v656h182v-656q0 -290 236 -290q50 0 89 15.5
t64.5 38.5t43.5 60t27 68.5t13.5 77t5.5 72t1 65.5q0 49 -0.5 77.5t-5.5 77t-13.5 78t-26 66t-42 57t-63 35t-87.5 14.5h-23v148h23q210 0 314 -146.5t104 -406.5q0 -139 -35.5 -248t-95.5 -174.5t-134.5 -99t-158.5 -33.5q-101 0 -188 46.5t-140 141.5
q-50 -95 -133.5 -141.5t-181.5 -46.5q-63 0 -121 14t-113 47.5t-95 84.5t-64.5 131t-24.5 180v200q0 42 -1 69.5t-6.5 62.5t-14.5 57.5t-26 46t-41 37t-59 22t-81 8.5q-39 0 -71 -10t-55 -24.5t-41 -40t-29.5 -47.5t-19.5 -56.5t-12 -57t-6 -60t-2 -54v-49.5q0 -144 20 -213
q54 -190 289 -190v-154q-108 2 -191.5 28t-139.5 73t-91.5 116t-51 152.5t-15.5 187.5q0 124 22.5 220.5t60.5 158.5t92 102t113 56t128 16z" />
    <glyph glyph-name="NDa" horiz-adv-x="2639" 
d="M1747 918q49 92 157 140t261 48q69 0 137 -15t131 -44.5t102 -84t39 -124.5q0 -88 -55 -147.5t-178 -59.5q-8 0 -31 1t-35 1q-61 0 -87.5 -19t-26.5 -69q0 -48 28.5 -68t85.5 -20q17 0 45 4t45 4q275 0 275 -219q0 -68 -30.5 -118.5t-86.5 -79.5t-126 -42.5t-156 -13.5
q-134 0 -218 24v154q113 -27 224 -27q202 0 202 101q0 86 -116 86q-24 0 -69 -4t-60 -4q-98 0 -148.5 52t-50.5 171q0 113 54.5 167t144.5 54q8 0 36 -3t46 -3q100 0 100 82q0 56 -67.5 84t-164.5 28q-144 0 -229.5 -50.5t-85.5 -153.5v-748h-178v655q0 295 -238 295
q-233 0 -233 -295v-655h-180v655q0 62 -18.5 112t-50 84t-74.5 57t-92 33.5t-103 10.5q-139 0 -229.5 -75t-102.5 -207q22 58 82.5 86t120.5 28q158 0 243.5 -97.5t85.5 -299.5t-93.5 -299.5t-258.5 -97.5q-354 0 -354 547q0 264 135 415.5t397 151.5q137 0 242 -46.5
t156 -141.5q54 95 141 141.5t186 46.5q98 0 185.5 -47t138.5 -141zM373 391q0 -54 6.5 -94t22.5 -75t47.5 -53.5t78.5 -18.5q46 0 77.5 18.5t47.5 53.5t22.5 75.5t6.5 93.5t-6.5 93t-22.5 75.5t-47.5 54.5t-77.5 19q-47 0 -78.5 -19t-47.5 -54.5t-22.5 -75.5t-6.5 -93z" />
    <glyph glyph-name="NDh" horiz-adv-x="3786" 
d="M373 391q0 -54 6.5 -94t22.5 -75t47.5 -53.5t78.5 -18.5q46 0 77.5 18.5t47.5 53.5t22.5 75.5t6.5 93.5t-6.5 93t-22.5 75.5t-47.5 54.5t-77.5 19q-47 0 -78.5 -19t-47.5 -54.5t-22.5 -75.5t-6.5 -93zM1839 657v-655h-178v655q0 295 -238 295q-233 0 -233 -295v-655h-180
v655q0 62 -18.5 112t-50 84t-74.5 57t-92 33.5t-103 10.5q-139 0 -229.5 -75t-102.5 -207q22 58 82.5 86t120.5 28q158 0 243.5 -97.5t85.5 -299.5t-93.5 -299.5t-258.5 -97.5q-354 0 -354 547q0 264 135 415.5t397 151.5q137 0 242 -46.5t156 -141.5q54 95 141 141.5
t186 46.5q98 0 185.5 -47t138.5 -141q53 96 135.5 142t181.5 46q63 0 121 -14t113 -47.5t95 -84.5t64.5 -131t24.5 -180v-200q0 -139 54 -219t184 -80q111 0 168 68t57 222v656h182v-656q0 -290 236 -290q50 0 89 15.5t64.5 38.5t43.5 60t27 68.5t13.5 77t5.5 72t1 65.5
q0 49 -0.5 77.5t-5.5 77t-13.5 78t-26 66t-42 57t-63 35t-87.5 14.5h-23v148h23q212 0 315 -146t103 -407q0 -139 -35.5 -248t-95.5 -174.5t-134.5 -99t-158.5 -33.5q-100 0 -187 46.5t-137 141.5q-53 -96 -136.5 -142t-182.5 -46q-63 0 -121 14t-113 47.5t-95 84.5
t-64.5 131t-24.5 180v200q0 303 -238 303q-110 0 -167.5 -70t-57.5 -225z" />
    <glyph glyph-name="NNa" horiz-adv-x="2500" 
d="M166 539q0 264 135 415.5t397 151.5q137 0 242 -46.5t156 -141.5q54 95 141 141.5t186 46.5q98 0 185.5 -47t138.5 -141q53 95 140 141.5t186 46.5q85 0 160 -33t136 -98t96.5 -173t35.5 -247q0 -262 -105.5 -409.5t-316.5 -147.5h-21v152h21q39 0 71 8.5t55.5 21.5
t42 36t30 44t20 54t13 57.5t6.5 62t2.5 60.5t0.5 61t-1 64.5t-6 71.5t-14 77t-27.5 69t-43.5 60t-65 39t-90 16q-234 0 -234 -295v-655h-178v655q0 295 -238 295q-233 0 -233 -295v-655h-180v655q0 62 -18.5 112t-50 84t-74.5 57t-92 33.5t-103 10.5q-139 0 -229.5 -75
t-102.5 -207q22 58 82.5 86t120.5 28q158 0 243.5 -97.5t85.5 -299.5t-93.5 -299.5t-258.5 -97.5q-354 0 -354 547zM373 391q0 -54 6.5 -94t22.5 -75t47.5 -53.5t78.5 -18.5q46 0 77.5 18.5t47.5 53.5t22.5 75.5t6.5 93.5t-6.5 93t-22.5 75.5t-47.5 54.5t-77.5 19
q-47 0 -78.5 -19t-47.5 -54.5t-22.5 -75.5t-6.5 -93zM371 -285q0 114 113.5 181t334.5 67q228 0 324 -86q96 86 264 86q74 0 147 -21t119 -65q80 86 262 86q96 0 175.5 -25.5t132.5 -82t53 -134.5q0 -118 -86.5 -182.5t-267.5 -64.5h-27v129h27q65 0 105 10t56 31.5
t19.5 37.5t3.5 44q0 17 -2 28.5t-12 29t-29 28.5t-57 19.5t-91 8.5q-83 0 -132.5 -25t-49.5 -69v-270h-162v260q0 49 -50 76.5t-134 27.5q-81 0 -129.5 -27.5t-48.5 -76.5v-260h-168v268q0 48 -78 78.5t-186 30.5q-101 0 -185 -25q27 6 76 6q281 0 281 -182
q0 -89 -80.5 -134.5t-220.5 -45.5q-297 0 -297 243zM565 -346q0 -32 22 -50t85 -18q70 0 96.5 18t26.5 50q0 35 -26 54.5t-97 19.5q-63 0 -85 -19t-22 -55z" />
    <glyph glyph-name="Nma" horiz-adv-x="2705" 
d="M1749 918q72 100 187 144t231 44q68 0 136.5 -12t142.5 -45t130 -83.5t92.5 -134.5t36.5 -190v-639h-1044v655q0 295 -238 295q-233 0 -233 -295v-655h-180v655q0 62 -18.5 112t-50 84t-74.5 57t-92 33.5t-103 10.5q-139 0 -229.5 -75t-102.5 -207q22 58 82.5 86
t120.5 28q158 0 243.5 -97.5t85.5 -299.5t-93.5 -299.5t-258.5 -97.5q-354 0 -354 547q0 264 135 415.5t397 151.5q137 0 242 -46.5t156 -141.5q54 95 141 141.5t186 46.5q98 0 186.5 -47t139.5 -141zM373 391q0 -54 6.5 -94t22.5 -75t47.5 -53.5t78.5 -18.5q46 0 77.5 18.5
t47.5 53.5t22.5 75.5t6.5 93.5t-6.5 93t-22.5 75.5t-47.5 54.5t-77.5 19q-47 0 -78.5 -19t-47.5 -54.5t-22.5 -75.5t-6.5 -93zM1974 780q-53 0 -92 -37.5t-39 -124.5v-468h246l29 405q3 36 -2 72t-19 72t-45.5 58.5t-77.5 22.5zM2167 956q-130 0 -207 -59q33 8 70 8
q128 0 205.5 -91t70.5 -236l-31 -428h246v489q0 77 -23.5 136t-59.5 92.5t-85.5 54.5t-93.5 27.5t-92 6.5z" />
    <glyph glyph-name="tta" horiz-adv-x="3063" 
d="M1614 940q68 80 170 122t219 42q140 0 270 -68q93 70 252 70q256 0 397.5 -143.5t141.5 -421.5q0 -89 -8.5 -163t-31.5 -146.5t-60.5 -122.5t-100 -80.5t-145.5 -30.5v160q42 2 73 24t49.5 56t29.5 85.5t14.5 102t3.5 115.5q0 218 -90.5 320t-266.5 102q-1 0 -96 -7
q211 -180 211 -487q0 -242 -97 -360.5t-278 -118.5t-278 118.5t-97 360.5q0 314 205 481q-61 15 -104 15q-116 0 -205.5 -70.5t-89.5 -179.5v-713h-178v713q0 108 -89 179t-204 71q-39 0 -107 -15q203 -167 203 -481q0 -242 -95 -360.5t-274 -118.5q-376 0 -376 479
q0 309 211 487q-58 7 -99 7q-179 0 -265.5 -101t-86.5 -321q0 -81 6.5 -143t24 -118.5t51.5 -88t84 -33.5v-160q-84 0 -146.5 31t-99 80t-59 122.5t-30 146t-7.5 163.5q0 278 139.5 421.5t394.5 143.5q154 0 256 -70q127 68 271 68q115 0 217.5 -42t169.5 -122zM958 147
q51 0 86.5 19t55.5 47t30.5 75.5t13.5 90t3 104.5q0 307 -189 428q-194 -119 -194 -428q0 -63 2.5 -104.5t13.5 -89.5t31 -76t57 -47t90 -19zM2271 147q44 0 77 11.5t54 36.5t34 52.5t18.5 70t7.5 78t2 87.5q0 306 -193 428q-192 -120 -192 -428q0 -51 2 -87t8 -78.5t19 -70
t33.5 -52t53.5 -36.5t76 -12z" />
    <glyph glyph-name="tda" horiz-adv-x="2816" 
d="M1982 150v567q0 187 111 288t307 101t306 -101t110 -288v-715h-1415v156q170 0 170 383q0 219 -88.5 320.5t-263.5 101.5q-26 0 -95 -13q203 -170 203 -481q0 -479 -369 -479q-376 0 -376 479q0 309 211 487q-8 0 -43.5 3.5t-55.5 3.5q-175 0 -261.5 -101.5t-86.5 -320.5
q0 -83 6.5 -145t23.5 -119.5t51 -88t85 -30.5v-160q-70 0 -125 20.5t-92.5 59.5t-63 87.5t-39.5 112.5t-20 126.5t-6 136.5q0 277 140.5 421t393.5 144q161 0 258 -66q89 66 252 66q254 0 395.5 -143.5t141.5 -421.5q0 -255 -76 -391h311zM958 147q51 0 86.5 19t55.5 47
t30.5 75.5t13.5 90t3 104.5q0 307 -189 428q-192 -120 -192 -428q0 -51 2 -87t8 -78.5t19 -70t33.5 -52t53.5 -36.5t76 -12zM2400 963q-239 0 -239 -250v-563h477v563q0 250 -238 250z" />
    <glyph glyph-name="tna" horiz-adv-x="2365" 
d="M1227 1104q112 0 216.5 -49t172.5 -137q49 94 137 141t182 47q85 0 160.5 -33t137 -98t97 -173t35.5 -247q0 -263 -104 -410t-317 -147h-21v154h21q50 0 89 14t64 34t43 55.5t27 65t13.5 77.5t5.5 77.5t1 79.5q0 36 -1 64.5t-6.5 72t-15 76.5t-28.5 69.5t-45 60t-66 39
t-90 15.5q-107 0 -169 -71t-62 -224v-655h-180v655q0 148 -86 226t-207 78q-57 0 -107 -11q203 -167 203 -481q0 -242 -95 -360.5t-274 -118.5q-376 0 -376 479q0 309 211 487q-94 7 -99 7q-175 0 -263.5 -101.5t-88.5 -320.5q0 -83 6 -143.5t23 -118t51.5 -88.5t85.5 -33
v-160q-69 0 -124 20.5t-91.5 59.5t-62 87.5t-39.5 112.5t-19.5 126.5t-5.5 136.5q0 278 139.5 421.5t394.5 143.5q154 0 256 -70q127 68 271 68zM958 147q51 0 86.5 19t55.5 47t30.5 75.5t13.5 90t3 104.5q0 307 -189 428q-194 -122 -194 -428q0 -63 2.5 -104.5t13.5 -89.5
t31 -76t57 -47t90 -19z" />
    <glyph glyph-name="tbh" horiz-adv-x="2502" 
d="M958 147q51 0 86.5 19t55.5 47t30.5 75.5t13.5 90t3 104.5q0 307 -189 428q-194 -119 -194 -428q0 -63 2.5 -104.5t13.5 -89.5t31 -76t57 -47t90 -19zM1847 16v154q123 -27 246 -27q219 0 219 101q0 36 -19 56.5t-54 25.5t-66 4.5t-72.5 -4.5t-56.5 -4q-105 0 -161 52.5
t-56 170.5q0 113 59.5 168t157.5 55q9 0 42 -2.5t55 -2t48.5 6.5t41 24.5t14.5 49.5q0 108 -265 108q-120 0 -199 -52t-79 -150v-748h-178v711q0 110 -88.5 181t-204.5 71q-39 0 -107 -15q203 -167 203 -481q0 -242 -95 -360.5t-274 -118.5q-376 0 -376 479q0 309 211 487
q-58 7 -99 7q-179 0 -265.5 -101t-86.5 -321q0 -81 6.5 -143t24 -118.5t51.5 -88t84 -33.5v-160q-84 0 -146.5 31t-99 80t-59 122.5t-30 146t-7.5 163.5q0 278 139.5 421.5t394.5 143.5q154 0 256 -70q127 68 271 68q116 0 220 -42t171 -122q50 80 156 123t241 43
q53 0 108.5 -8.5t112 -28.5t100.5 -50t71.5 -76t27.5 -103q0 -93 -63.5 -153t-204.5 -56q-8 0 -26 2t-27 2q-64 0 -90.5 -20t-26.5 -70q0 -48 29 -68t88 -20q18 0 50 4t50 4q289 0 289 -219q0 -68 -32.5 -118.5t-92 -79.5t-134 -42.5t-167.5 -13.5q-141 0 -230 24z" />
    <glyph glyph-name="tma" horiz-adv-x="2568" 
d="M1622 940q73 87 186.5 126.5t225.5 39.5q68 0 136 -12t141.5 -45t129 -83.5t91.5 -134.5t36 -190v-639h-1044v713q0 108 -89 179t-204 71q-39 0 -107 -15q203 -167 203 -481q0 -242 -95 -360.5t-274 -118.5q-376 0 -376 479q0 309 211 487q-58 7 -99 7
q-179 0 -265.5 -101t-86.5 -321q0 -81 6.5 -143t24 -118.5t51.5 -88t84 -33.5v-160q-84 0 -146.5 31t-99 80t-59 122.5t-30 146t-7.5 163.5q0 278 139.5 421.5t394.5 143.5q154 0 256 -70q127 68 271 68q116 0 222 -42.5t173 -121.5zM958 147q51 0 86.5 19t55.5 47
t30.5 75.5t13.5 90t3 104.5q0 307 -189 428q-194 -119 -194 -428q0 -63 2.5 -104.5t13.5 -89.5t31 -76t57 -47t90 -19zM1839 780q-52 0 -92.5 -38t-40.5 -124v-468h244l32 405q3 36 -1.5 72t-18.5 72t-45.5 58.5t-77.5 22.5zM2034 956q-134 0 -207 -59q31 8 65 8
q129 0 207 -91t68 -236l-29 -428h248v489q0 77 -23.5 136t-59 92.5t-85 54.5t-93 27.5t-91.5 6.5z" />
    <glyph glyph-name="tsa" horiz-adv-x="2990" 
d="M1614 940q52 85 136 125.5t177 40.5q63 0 120 -14t112 -47.5t95 -84.5t64.5 -131t24.5 -180v-200q0 -59 3 -96t16 -80t37 -67t68 -40t107 -16q39 0 71.5 10t55.5 24t41.5 39.5t30 47t19.5 56.5t12 57t6 60t2 54.5v50.5q0 144 -21 214q-57 188 -290 189v150
q108 -2 191.5 -28t139.5 -72.5t91.5 -115.5t51 -151.5t15.5 -185.5q0 -124 -22.5 -221t-60 -159.5t-91.5 -103t-113.5 -57t-128.5 -16.5q-63 0 -120 13.5t-110.5 46t-92.5 80.5t-62.5 122t-23.5 166v229q0 303 -238 303q-225 0 -225 -297v-653h-178v713q0 108 -89 179
t-204 71q-39 0 -107 -15q203 -167 203 -481q0 -242 -95 -360.5t-274 -118.5q-376 0 -376 479q0 309 211 487q-58 7 -99 7q-179 0 -265.5 -101t-86.5 -321q0 -81 6.5 -143t24 -118.5t51.5 -88t84 -33.5v-160q-84 0 -146.5 31t-99 80t-59 122.5t-30 146t-7.5 163.5
q0 278 139.5 421.5t394.5 143.5q154 0 256 -70q127 68 271 68q115 0 217.5 -42t169.5 -122zM958 147q51 0 86.5 19t55.5 47t30.5 75.5t13.5 90t3 104.5q0 307 -189 428q-194 -119 -194 -428q0 -63 2.5 -104.5t13.5 -89.5t31 -76t57 -47t90 -19z" />
    <glyph glyph-name="dda" horiz-adv-x="1093" 
d="M1094 395q0 -157 -136 -215q66 -29 100 -81.5t34 -112.5q0 -129 -95 -205t-303 -76h-254v150h238q128 0 176.5 34.5t48.5 98.5q0 68 -54.5 98.5t-170.5 30.5h-141v147h145q127 0 175 34.5t48 98.5q0 68 -54.5 98.5t-168.5 30.5h-145v152h133q96 0 137 27.5t41 97.5
q0 153 -240 153q-262 0 -262 -208v-746h-180v707q0 99 36.5 177t99 126t142.5 73t172 25q74 0 147 -19t135 -54t100 -92t38 -126q0 -39 -15 -78t-53 -76.5t-94 -54.5q112 -14 166 -74.5t54 -140.5z" />
    <glyph glyph-name="ddh" horiz-adv-x="2131" 
d="M1094 313q0 -90 -39 -155q118 5 175.5 70.5t57.5 217.5v648h180v-648q0 -288 234 -288q49 0 88.5 15.5t65 38.5t44 59t28 68.5t15 76.5t6.5 72.5t1 66.5q0 37 -0.5 60.5t-2.5 60.5t-6.5 61t-13 55.5t-20.5 52t-30 43t-41.5 35t-55.5 21t-70 8.5h-22v150h22
q213 0 317.5 -144.5t104.5 -402.5q0 -140 -36 -249.5t-97.5 -175t-136.5 -99t-160 -33.5q-96 0 -183.5 47t-138.5 141q-52 -94 -139 -139t-184 -45h-520v160h145q128 0 175.5 40.5t47.5 119.5q0 81 -53.5 115t-169.5 34h-145v160h131q97 0 138.5 32.5t41.5 114.5
q0 176 -242 176q-73 0 -124.5 -15t-77 -34.5t-39.5 -51.5t-16.5 -53t-2.5 -52v-746h-180v707q0 96 33.5 172t93 125t138.5 74.5t171 25.5q114 0 211.5 -36.5t160 -110.5t62.5 -173q0 -45 -15 -87.5t-53 -82.5t-94 -59q113 -18 166.5 -84.5t53.5 -159.5z" />
    <glyph glyph-name="ntt" horiz-adv-x="2365" 
d="M1305 1104q141 0 274 -68q96 70 252 70q254 0 394 -143.5t140 -421.5q0 -74 -5.5 -136.5t-19.5 -126.5t-39.5 -112.5t-62 -87.5t-91.5 -59.5t-124 -20.5v160q51 2 85.5 33.5t51.5 88t24 118t7 143.5q0 218 -89 320t-265 102q-3 0 -98 -7q209 -176 209 -487
q0 -479 -371 -479q-182 0 -278.5 118t-96.5 361q0 314 205 481q-45 11 -107 11q-56 0 -107 -18.5t-93 -54t-67 -95.5t-25 -136v-655h-181v655q0 295 -231 295q-50 0 -89.5 -15.5t-65 -39t-44.5 -60t-28.5 -69.5t-15 -76.5t-6.5 -72t-1 -64.5q0 -49 1 -79t5.5 -77.5
t13.5 -77.5t26.5 -65.5t42.5 -55.5t63.5 -34t87.5 -14h22v-154h-22q-212 0 -316 147t-104 410q0 139 35.5 247t96.5 173t136.5 98t161.5 33q93 0 180.5 -47t138.5 -141q68 88 173.5 137t216.5 49zM1577 147q52 0 88 19t56 47t30.5 76t13 89.5t2.5 104.5q0 305 -190 428
q-191 -120 -191 -428q0 -44 1 -75t5.5 -69t12.5 -63.5t22 -51.5t34 -42t49.5 -25.5t66.5 -9.5z" />
    <glyph glyph-name="ndh" horiz-adv-x="2713" 
d="M1571 150h309v567q0 187 111 288t305 101q195 0 306.5 -101t111.5 -288v-715h-1487v150h20q49 0 88 14t64 34t43 55.5t27 65.5t13.5 77.5t5.5 77.5t1 79q0 36 -1 64.5t-6.5 72t-15 76.5t-28.5 69.5t-44.5 60t-65 39t-89.5 15.5q-231 0 -231 -295v-655h-181v655
q0 295 -231 295q-50 0 -89.5 -15.5t-65 -39t-44.5 -60t-28.5 -69.5t-15 -76.5t-6.5 -72t-1 -64.5q0 -49 1 -79t5.5 -77.5t13.5 -77.5t26.5 -65.5t42.5 -55.5t63.5 -34t87.5 -14h22v-154h-22q-212 0 -316 147t-104 410q0 139 35.5 247t96.5 173t136.5 98t161.5 33
q93 0 180.5 -47t138.5 -141q54 95 140 141.5t184 46.5q85 0 160 -33t136.5 -98t97.5 -173.5t36 -246.5q0 -262 -98 -405zM2296 963q-236 0 -236 -250v-563h473v563q0 129 -59.5 189.5t-177.5 60.5z" />
    <glyph glyph-name="nda" horiz-adv-x="1613" 
d="M1169 954q-49 0 -87 -8t-63 -20t-42.5 -32.5t-27 -38.5t-14.5 -46t-6 -47.5t-1 -48.5v-711h-162v711q0 120 -59.5 179.5t-151.5 59.5q-45 0 -81 -15.5t-59 -39t-39.5 -60.5t-25 -69.5t-13.5 -76.5t-6 -71.5t-1 -64.5q0 -48 1 -79t5.5 -78t12.5 -77.5t24.5 -65.5t39 -55
t57.5 -34t79 -14h18v-154h-18q-100 0 -174 39t-119.5 113t-67.5 175t-22 230q0 139 32 247t87.5 173t123.5 98t146 33q89 0 166.5 -39t124.5 -117q50 77 132 116.5t185 39.5q162 0 277.5 -86.5t115.5 -233.5q0 -71 -35.5 -135.5t-107.5 -93.5q98 -18 149.5 -86t51.5 -158
q0 -140 -89.5 -225.5t-275.5 -85.5h-147v160h135q117 0 161 41.5t44 120.5q0 81 -49 114t-156 33h-135v160h123q86 0 126 33.5t40 113.5q0 88 -58 132t-164 44z" />
    <glyph glyph-name="ndd" horiz-adv-x="2955" 
d="M1651 584v-135q0 -67 11 -118.5t37 -93.5t73.5 -64.5t115.5 -22.5q111 0 168.5 68t57.5 222v656h182v-656q0 -290 235 -290q50 0 89 15.5t64.5 38.5t43.5 60t27 68.5t13.5 77t5.5 72t1 65.5q0 49 -0.5 77.5t-5.5 77t-13.5 78t-26 66t-42 57t-63 35t-87.5 14.5h-22v148h22
q212 0 315 -146t103 -407q0 -139 -35.5 -248t-95.5 -174.5t-134.5 -99t-158.5 -33.5q-99 0 -186 46.5t-137 141.5q-53 -96 -137 -142t-183 -46q-63 0 -120.5 14t-112 47.5t-94.5 84.5t-64 131t-24 180v200q0 303 -240 303q-110 0 -167.5 -70t-57.5 -225v-655h-183v655
q0 295 -235 295q-50 0 -89 -16t-64.5 -39t-43.5 -60.5t-27 -69t-13.5 -76.5t-5.5 -71.5t-1 -64.5q0 -50 0.5 -79t5.5 -77.5t13.5 -78t26 -65.5t42 -56.5t63 -34.5t87.5 -14h22v-152h-22q-108 0 -188.5 39t-130.5 113t-74.5 175t-24.5 230q0 139 35 247t94.5 173t134.5 98
t160 33q99 0 186 -46.5t137 -141.5q53 96 137 142t183 46q63 0 121 -14t113 -47.5t95 -84.5t64.5 -131t24.5 -180v-65z" />
    <glyph glyph-name="nna" horiz-adv-x="2320" 
d="M1241 1106h2q99 0 186.5 -46.5t137.5 -141.5q51 95 138.5 141.5t186.5 46.5q85 0 160 -33t136 -98t96.5 -173t35.5 -247q0 -262 -105.5 -409.5t-318.5 -147.5h-20v154h20q49 0 88 14t64 34t43 55.5t27 65.5t13.5 77.5t5.5 77.5t1 79q0 38 -1 65t-6 71.5t-14 76.5
t-27.5 69t-43.5 60.5t-64.5 39t-89.5 15.5q-105 0 -169 -59.5t-64 -187.5v-703h-180v703q0 127 -65.5 187t-172.5 60q-105 0 -169 -61t-64 -189v-700h-181v703q0 127 -65.5 187t-169.5 60q-49 0 -88 -15.5t-64.5 -39t-43.5 -60.5t-27 -69t-14 -76.5t-6 -71.5t-1 -65
q0 -49 1 -79t5.5 -77.5t13.5 -77.5t26.5 -65.5t42.5 -55.5t63.5 -34t87.5 -14h22v-154h-22q-213 0 -317.5 147t-104.5 410q0 139 35.5 247t96 173t135.5 98t159 33q98 0 186.5 -47t139.5 -141q50 94 137.5 141t185.5 47z" />
    <glyph glyph-name="nma" horiz-adv-x="1871" 
d="M827 2v655q0 295 -231 295q-50 0 -89.5 -15.5t-65 -39t-44.5 -60t-28.5 -69.5t-15 -76.5t-6.5 -72t-1 -64.5q0 -49 1 -79t5.5 -77.5t13.5 -77.5t26.5 -65.5t42.5 -55.5t63.5 -34t87.5 -14h22v-154h-22q-212 0 -316 147t-104 410q0 139 35.5 247t96.5 173t136.5 98
t161.5 33q93 0 180.5 -47t138.5 -141q72 100 187 144t231 44q68 0 136.5 -12t143 -45t130.5 -83.5t92.5 -134.5t36.5 -190v-639h-1045zM1141 780q-53 0 -92 -37.5t-39 -124.5v-468h245l29 428q2 38 -4 72t-21 64t-45.5 48t-72.5 18zM1333 956q-130 0 -207 -59q36 8 70 8
q132 0 208.5 -84.5t68.5 -212.5l-31 -458h246v489q0 77 -23.5 136t-59.5 92.5t-86 54.5t-94 27.5t-92 6.5z" />
    <glyph glyph-name="nta" horiz-adv-x="1910" 
d="M1331 958q-167 0 -245 -83.5t-78 -221.5v-651h-181v655q0 295 -231 295q-50 0 -89.5 -15.5t-65 -39t-44.5 -60t-28.5 -69.5t-15 -76.5t-6.5 -72t-1 -64.5q0 -49 1 -79t5.5 -77.5t13.5 -77.5t26.5 -65.5t42.5 -55.5t63.5 -34t87.5 -14h22v-154h-22q-212 0 -316 147
t-104 410q0 139 35.5 247t96.5 173t136.5 98t161.5 33q93 0 180.5 -47t138.5 -141q126 190 418 190q144 0 246 -41q37 49 37 150q0 68 -33 102.5t-110 34.5q-74 0 -101 -29t-33 -100h-165q4 144 79 214t222 70q62 0 116.5 -15t102 -47.5t75 -91.5t27.5 -138
q0 -67 -15 -120.5t-63 -103.5q193 -164 193 -444q0 -266 -89 -412.5t-276 -146.5q-163 0 -254.5 107t-91.5 337q0 360 203 520q-17 4 -72 4zM1729 547q0 249 -154 346q-58 -25 -96.5 -68.5t-58 -106.5t-27 -129t-7.5 -155q0 -71 6 -118t22.5 -88t50 -61t85.5 -20
q41 0 71.5 15t49.5 46t31.5 65t18 84.5t7 91t1.5 98.5zM1546 -156q-47 0 -82.5 -9.5t-53.5 -22.5t-29.5 -30.5t-14 -30t-2.5 -25.5q0 -28 3 -44t14 -36.5t40 -31.5t76 -13v-129q-151 0 -223 67.5t-72 186.5q0 118 95.5 182.5t248.5 64.5q156 0 252 -64.5t96 -182.5t-72 -186
t-223 -68v129q45 2 74.5 13t41.5 31t16 37.5t4 43.5q0 15 -3 28.5t-14.5 30.5t-31 29.5t-56 21t-84.5 8.5z" />
    <glyph glyph-name="ppa" horiz-adv-x="1613" 
d="M555 698q185 0 285 -97.5t100 -250.5q0 -125 -78 -200h570v446q-58 -31 -117.5 -43t-93.5 -12q-65 0 -117 11.5t-84.5 27.5t-56 41.5t-34.5 46t-17 49t-6.5 42.5t-0.5 34v4v22q0 144 -131 144q-139 0 -139 -162v-27h-168v57q0 119 81 197t228 78q144 0 220.5 -77.5
t76.5 -197.5v-22q0 -68 37.5 -94.5t142.5 -26.5q54 0 104 17.5t75 52.5v334h182v-1090h-983v148h16q30 0 52 13.5t33 31.5t17.5 46.5t7.5 48.5t1 46q0 38 -3.5 65t-15.5 55.5t-33.5 46t-59.5 29t-91 11.5q-116 0 -160.5 -52.5t-44.5 -140.5q0 -23 0.5 -36.5t3 -41.5t9 -45.5
t17 -37t29 -29.5t42.5 -10h16v-148h-35q-65 0 -114.5 24t-77.5 60t-45.5 85.5t-23 91.5t-5.5 87q0 153 101 250.5t288 97.5z" />
    <glyph glyph-name="pla" horiz-adv-x="1613" 
d="M797 -33q73 0 134.5 -11.5t114 -35.5t82 -68t29.5 -104v-39q0 -45 29 -60.5t106 -15.5q57 0 94.5 10.5t53 28.5t20 32t4.5 32q0 38 -45 67t-153 29v131q348 0 348 -229q0 -80 -45 -133t-115 -75t-162 -22q-130 0 -209 49t-79 156v39q0 43 -42 63t-124 25q77 -25 77 -139
q0 -93 -68 -142t-190 -49q-139 0 -201.5 56t-62.5 162q0 128 102.5 185.5t301.5 57.5zM653 -213q-43 0 -74.5 -20t-31.5 -56q0 -80 108 -80q57 0 81 20.5t24 59.5q0 36 -32.5 56t-74.5 20zM555 698q185 0 285 -97.5t100 -250.5q0 -125 -78 -200h570v942h182v-1090h-983v148
h16q30 0 52 13.5t33 31.5t17.5 46.5t7.5 48.5t1 46q0 38 -3.5 65t-15.5 55.5t-33.5 46t-59.5 29t-91 11.5q-116 0 -160.5 -52.5t-44.5 -140.5q0 -23 0.5 -36.5t3 -41.5t9 -45.5t17 -37t29 -29.5t42.5 -10h16v-148h-35q-65 0 -114.5 24t-77.5 60t-45.5 85.5t-23 91.5t-5.5 87
q0 153 101 250.5t288 97.5z" />
    <glyph glyph-name="phl" horiz-adv-x="2060" 
d="M940 350q0 -125 -78 -200h305v567q0 183 124.5 286t322.5 103t322 -103t124 -286v-715h-1429v148h16q30 0 52 13.5t33 31.5t17.5 46.5t7.5 48.5t1 46q0 38 -3.5 65t-15.5 55.5t-33.5 46t-59.5 29t-91 11.5q-116 0 -160.5 -52.5t-44.5 -140.5q0 -23 0.5 -36.5t3 -41.5
t9 -45.5t17 -37t29 -29.5t42.5 -10h16v-148h-35q-65 0 -114.5 24t-77.5 60t-45.5 85.5t-23 91.5t-5.5 87q0 153 101 250.5t288 97.5q185 0 285 -97.5t100 -250.5zM1614 963q-127 0 -199 -61.5t-72 -188.5v-563h537v563q0 250 -266 250zM1227 -33q74 0 136.5 -11.5
t115.5 -35.5t83.5 -68t30.5 -104v-39q0 -45 31 -60.5t111 -15.5q58 0 96 10.5t53 29t19 32t4 31.5q0 39 -44.5 67.5t-156.5 28.5v131q356 0 356 -229q0 -80 -45.5 -133t-116.5 -75t-165 -22q-133 0 -216 49t-83 156v39q0 43 -42 63t-126 25q80 -28 80 -139q0 -92 -72 -141.5
t-193 -49.5q-146 0 -210 55.5t-64 162.5q0 128 106 185.5t312 57.5zM1077 -213q-47 0 -77.5 -19.5t-30.5 -56.5q0 -80 110 -80q109 0 109 80q0 36 -33.5 56t-77.5 20z" />
    <glyph glyph-name="bdh" horiz-adv-x="2324" 
d="M1190 657v-655h-180v655q0 62 -18.5 112t-50 84t-74.5 57t-92 33.5t-103 10.5q-139 0 -229.5 -75t-102.5 -207q22 58 82.5 86t120.5 28q158 0 243.5 -97.5t85.5 -299.5t-93.5 -299.5t-258.5 -97.5q-354 0 -354 543q0 263 135.5 417t396.5 154q137 0 242 -46.5t156 -141.5
q54 95 142 141.5t185 46.5q85 0 160 -33t136 -98t96.5 -173t35.5 -247q0 -265 -102 -405h393v942h182v-1090h-915v148h23q38 0 70 8.5t55.5 21.5t41.5 36t30 44t20 54t12.5 57.5t6.5 62t2.5 60.5t0.5 61q0 28 -0.5 49t-3 54.5t-7 59t-13.5 57.5t-21 55.5t-31 47.5t-43 39.5
t-57 25t-72 9.5q-233 0 -233 -295zM373 391q0 -54 6.5 -94t22.5 -75t47.5 -53.5t78.5 -18.5q46 0 77.5 18.5t47.5 53.5t22.5 75.5t6.5 93.5t-6.5 93t-22.5 75.5t-47.5 54.5t-77.5 19q-47 0 -78.5 -19t-47.5 -54.5t-22.5 -75.5t-6.5 -93zM1810 -33v-264q0 -47 46.5 -75.5
t123.5 -28.5q63 0 103.5 12t56.5 34t20.5 38.5t4.5 40.5q0 21 -1.5 33.5t-11 31t-26.5 29t-51.5 18.5t-83.5 8h-29v123h29q171 0 252 -64.5t81 -178.5q0 -62 -29 -111.5t-78 -79.5t-109.5 -45.5t-127.5 -15.5q-65 0 -133.5 21t-122.5 58q-42 -39 -109.5 -59t-137.5 -20
q-93 0 -169.5 26t-127 85t-50.5 141q0 114 82.5 178.5t253.5 64.5h27v-123h-27q-51 0 -86 -8t-53 -18.5t-27 -29t-10.5 -31t-1.5 -33.5q0 -19 1.5 -31.5t12 -32t29 -31.5t56 -21t90.5 -9q78 0 125 28.5t47 75.5v264h161z" />
    <glyph glyph-name="bda" horiz-adv-x="2324" 
d="M1190 657v-655h-180v655q0 62 -18.5 112t-50 84t-74.5 57t-92 33.5t-103 10.5q-139 0 -229.5 -75t-102.5 -207q22 58 82.5 86t120.5 28q158 0 243.5 -97.5t85.5 -299.5t-93.5 -299.5t-258.5 -97.5q-354 0 -354 543q0 263 135.5 417t396.5 154q137 0 242 -46.5t156 -141.5
q54 95 142 141.5t185 46.5q85 0 160 -33t136 -98t96.5 -173t35.5 -247q0 -265 -102 -405h393v942h182v-1090h-915v148h23q38 0 70 8.5t55.5 21.5t41.5 36t30 44t20 54t12.5 57.5t6.5 62t2.5 60.5t0.5 61q0 28 -0.5 49t-3 54.5t-7 59t-13.5 57.5t-21 55.5t-31 47.5t-43 39.5
t-57 25t-72 9.5q-233 0 -233 -295zM373 391q0 -54 6.5 -94t22.5 -75t47.5 -53.5t78.5 -18.5q46 0 77.5 18.5t47.5 53.5t22.5 75.5t6.5 93.5t-6.5 93t-22.5 75.5t-47.5 54.5t-77.5 19q-47 0 -78.5 -19t-47.5 -54.5t-22.5 -75.5t-6.5 -93zM1872 -129q-81 0 -133.5 -9
t-75.5 -26.5t-30 -33.5t-7 -38v-292h-160v299q0 69 55 115.5t143.5 66.5t205.5 20q164 0 283.5 -42.5t119.5 -112.5q0 -26 -22 -51t-68 -35q72 -7 106.5 -40.5t34.5 -70.5q0 -68 -80 -108.5t-255 -40.5h-181v100h181q157 0 157 51q0 45 -157 45h-181v105h181q106 0 106 45
q0 53 -223 53z" />
    <glyph glyph-name="bba" horiz-adv-x="2324" 
d="M1190 657v-655h-180v655q0 62 -18.5 112t-50 84t-74.5 57t-92 33.5t-103 10.5q-139 0 -229.5 -75t-102.5 -207q22 58 82.5 86t120.5 28q158 0 243.5 -97.5t85.5 -299.5t-93.5 -299.5t-258.5 -97.5q-354 0 -354 543q0 263 135.5 417t396.5 154q137 0 242 -46.5t156 -141.5
q54 95 142 141.5t185 46.5q85 0 160 -33t136 -98t96.5 -173t35.5 -247q0 -265 -102 -405h393v942h182v-1438h-1212v147h111q156 0 265.5 51t139.5 150h-219v148h23q38 0 70 8.5t55.5 21.5t41.5 36t30 44t20 54t12.5 57.5t6.5 62t2.5 60.5t0.5 61q0 28 -0.5 49t-3 54.5t-7 59
t-13.5 57.5t-21 55.5t-31 47.5t-43 39.5t-57 25t-72 9.5q-233 0 -233 -295zM373 391q0 -54 6.5 -94t22.5 -75t47.5 -53.5t78.5 -18.5q46 0 77.5 18.5t47.5 53.5t22.5 75.5t6.5 93.5t-6.5 93t-22.5 75.5t-47.5 54.5t-77.5 19q-47 0 -78.5 -19t-47.5 -54.5t-22.5 -75.5
t-6.5 -93zM1624 -199h516v201h-313q-18 -62 -71.5 -125.5t-131.5 -75.5z" />
    <glyph glyph-name="bla" horiz-adv-x="2324" 
d="M1190 657v-655h-180v655q0 62 -18.5 112t-50 84t-74.5 57t-92 33.5t-103 10.5q-139 0 -229.5 -75t-102.5 -207q22 58 82.5 86t120.5 28q158 0 243.5 -97.5t85.5 -299.5t-93.5 -299.5t-258.5 -97.5q-354 0 -354 543q0 263 135.5 417t396.5 154q137 0 242 -46.5t156 -141.5
q54 95 142 141.5t185 46.5q85 0 160 -33t136 -98t96.5 -173t35.5 -247q0 -265 -102 -405h393v942h182v-1090h-915v148h23q38 0 70 8.5t55.5 21.5t41.5 36t30 44t20 54t12.5 57.5t6.5 62t2.5 60.5t0.5 61q0 28 -0.5 49t-3 54.5t-7 59t-13.5 57.5t-21 55.5t-31 47.5t-43 39.5
t-57 25t-72 9.5q-233 0 -233 -295zM373 391q0 -54 6.5 -94t22.5 -75t47.5 -53.5t78.5 -18.5q46 0 77.5 18.5t47.5 53.5t22.5 75.5t6.5 93.5t-6.5 93t-22.5 75.5t-47.5 54.5t-77.5 19q-47 0 -78.5 -19t-47.5 -54.5t-22.5 -75.5t-6.5 -93zM1411 -33q82 0 151.5 -11.5
t128.5 -35.5t92.5 -68t33.5 -104v-39q0 -45 33 -60.5t122 -15.5q51 0 88.5 7.5t56 18t29.5 26.5t13 26.5t2 24.5q0 17 -10.5 32.5t-33.5 30.5t-69.5 24t-110.5 9v131q392 0 392 -229q0 -118 -97 -174t-260 -56q-70 0 -128 11t-105 34t-73 64t-26 96v39q0 44 -45.5 63.5
t-138.5 24.5q88 -27 88 -139q0 -92 -77.5 -141.5t-211.5 -49.5q-158 0 -228.5 56t-70.5 162q0 129 113.5 186t341.5 57zM1247 -213q-48 0 -84.5 -20t-36.5 -56q0 -80 123 -80q119 0 119 80q0 36 -36.5 56t-84.5 20z" />
    <glyph glyph-name="sta" 
d="M1880 -8q-63 0 -120 13.5t-110 46t-92 80.5t-62 122t-23 166v229q0 303 -240 303q-110 0 -167.5 -70t-57.5 -225v-655h-183v655q0 295 -235 295q-50 0 -89 -16t-64.5 -39t-43.5 -60.5t-27 -69t-13.5 -76.5t-5.5 -71.5t-1 -64.5q0 -50 0.5 -79t5.5 -77.5t13.5 -78
t26 -65.5t42 -56.5t63 -34.5t87.5 -14h22v-152h-22q-108 0 -188.5 39t-130.5 113t-74.5 175t-24.5 230q0 139 35 247t94.5 173t134.5 98t160 33q99 0 186 -46.5t137 -141.5q53 96 137 142t183 46q63 0 121 -14t113 -47.5t95 -84.5t64.5 -131t24.5 -180v-200q0 -42 1 -69.5
t6.5 -62t14.5 -56.5t26 -45t41 -36t59 -21.5t81 -8.5q49 0 88 16t63 38t41.5 61t25.5 68.5t12.5 78t5 71.5t0.5 66v4q0 35 -0.5 54.5t-3 57t-8 60.5t-16 56.5t-25.5 55t-39 45.5t-54 38t-72 23t-92 9v150q107 -2 190 -28t139 -72.5t92.5 -115.5t52.5 -151.5t16 -185.5
q0 -124 -22.5 -221t-60.5 -159.5t-92 -103t-113 -57t-128 -16.5zM1434 -35q126 0 202 -24q73 24 203 24q207 0 323.5 -64.5t116.5 -185.5q0 -51 -12 -91t-42 -76t-89 -56t-145 -20v106q77 0 105 36.5t28 100.5q0 77 -68.5 112.5t-208.5 35.5h-4h-2q98 -68 98 -178
q0 -217 -303 -217q-148 0 -228.5 54.5t-80.5 162.5q0 107 105 178h-7q-140 0 -209 -35.5t-69 -112.5q0 -137 135 -137v-106q-85 0 -144 20t-88.5 56t-42 76t-12.5 91q0 122 115.5 186t323.5 64zM1636 -426q50 0 81.5 8.5t46 26t19.5 36.5t5 48q0 39 -36.5 80t-115.5 69
q-81 -28 -115 -68t-34 -81q0 -30 4 -48t18 -36t45.5 -26.5t81.5 -8.5z" />
    <glyph glyph-name="mpa" horiz-adv-x="2142" 
d="M1008 657v-655h-181v655q0 295 -231 295q-50 0 -89.5 -15.5t-65 -39t-44.5 -60t-28.5 -69.5t-15 -76.5t-6.5 -72t-1 -64.5q0 -49 1 -79t5.5 -77.5t13.5 -77.5t26.5 -65.5t42.5 -55.5t63.5 -34t87.5 -14h22v-154h-22q-212 0 -316 147t-104 410q0 139 35.5 247t96.5 173
t136.5 98t161.5 33q59 0 116.5 -18.5t112.5 -62t88 -107.5q53 94 141.5 141t186.5 47q85 0 160 -33t136 -98t96.5 -173t35.5 -247q0 -262 -98 -405h389v942h182v-1090h-915v148h20q49 0 88 14t64 34.5t43 56.5t27 66t13.5 77.5t5.5 77.5t1 79q0 28 -0.5 49t-3 54.5t-7 59
t-13.5 57.5t-21 55.5t-31 47.5t-43 39.5t-57 25t-72 9.5q-233 0 -233 -295z" />
    <glyph glyph-name="mma" horiz-adv-x="2070" 
d="M166 2v639q0 106 34.5 190t87 134.5t122.5 83.5t134 45t128 12q123 0 245 -43.5t195 -138.5q50 65 128.5 108t150.5 58.5t143 15.5q68 0 136.5 -12t142.5 -45t129.5 -83.5t92 -134.5t36.5 -190v-639h-1905zM1534 956q-130 0 -209 -59q36 8 72 8q134 0 209 -88.5
t65 -238.5l-31 -428h248v489q0 77 -24 136t-59.5 92.5t-85.5 54.5t-93.5 27.5t-91.5 6.5zM672 956q-130 0 -207 -59q31 8 70 8q132 0 209 -89t65 -238l-29 -428h246v489q0 77 -23.5 136t-59.5 92.5t-85.5 54.5t-93.5 27.5t-92 6.5zM1339 780q-49 0 -87 -34.5t-42 -110.5
v-485h244l31 405q5 98 -29 161.5t-117 63.5zM477 780q-52 0 -90.5 -38t-38.5 -124v-468h244l31 405q5 99 -28.5 162t-117.5 63z" />
    <glyph glyph-name="mla" horiz-adv-x="1210" 
d="M166 2v639q0 106 34.5 190t87 134.5t122.5 83.5t134 45t128 12q68 0 136.5 -12t142.5 -45t130 -83.5t92.5 -134.5t36.5 -190v-639h-1044zM477 780q-52 0 -90.5 -38t-38.5 -124v-468h244l31 428q3 51 -8 94.5t-46.5 75.5t-91.5 32zM672 956q-130 0 -207 -59q31 8 70 8
q129 0 206 -85t68 -212l-29 -458h246v489q0 77 -23.5 136t-59.5 92.5t-85.5 54.5t-93.5 27.5t-92 6.5zM489 -33q70 0 129 -11.5t109 -35.5t78.5 -68t28.5 -104v-39q0 -45 27 -60.5t100 -15.5q147 0 147 103q0 39 -42 67.5t-144 28.5v131q340 0 340 -229q0 -80 -41.5 -133
t-107 -75t-152.5 -22q-130 0 -208.5 49t-78.5 156v39q0 78 -142 88q78 -42 78 -139q0 -86 -68.5 -138.5t-179.5 -52.5q-262 0 -262 222q0 119 99 179t290 60zM356 -213q-39 0 -66.5 -20t-27.5 -56q0 -80 96 -80q91 0 91 80q0 36 -28 56t-65 20z" />
    <glyph glyph-name="yya" horiz-adv-x="1896" 
d="M1036 47q-121 -59 -280 -59q-127 0 -229 34.5t-168.5 91.5t-110.5 134.5t-63 159.5t-19 170q0 73 8.5 138.5t33 135.5t63 121.5t103 88t148.5 44.5q89 0 151 -35.5t89 -97.5q28 58 101.5 95.5t158.5 37.5q191 0 303.5 -119.5t112.5 -359.5q0 -314 -224 -465
q47 -17 152 -17q182 0 271 119t89 340q0 71 -14.5 131t-45 109.5t-84 77.5t-124.5 28v140q96 0 171 -25t125 -69.5t82 -108.5t46 -138t14 -163q0 -182 -61 -322v-610h-1212v147h108q157 0 266.5 51.5t139.5 153.5q-57 12 -101 41zM1038 193q59 34 100.5 83.5t63 107.5
t30.5 112t9 112q0 83 -10 145.5t-33.5 113t-66.5 76.5t-105 26q-192 0 -192 -361q0 -299 204 -415zM653 629q0 163 -13 222q-27 109 -112 110q-58 0 -98.5 -37t-59.5 -97t-26.5 -115.5t-7.5 -113.5q0 -212 103 -329t325 -117q51 0 98 8q-120 84 -164.5 196.5t-44.5 272.5z
M1130 -199h521v260q-128 -71 -324 -71q-14 -60 -67.5 -118.5t-129.5 -70.5z" />
    <glyph glyph-name="lpa" horiz-adv-x="1419" 
d="M508 -43q158 0 245 -72.5t87 -179.5q0 -91 -64 -143h484v440h-1094v754q0 118 57 199t143.5 116t192.5 35q79 0 149 -20.5t127.5 -61.5t91.5 -110t34 -158v-420h-615v-186h893v942h180v-1090h-4v-547h-840v107h13q94 0 94 133q0 33 -6 56t-23 45t-53.5 33t-91.5 11
q-100 0 -136 -35t-36 -100q0 -21 0.5 -32.5t4.5 -35.5t12.5 -38t26 -25.5t42.5 -11.5h12v-107h-31q-68 0 -116 25t-70.5 66t-31.5 79.5t-9 79.5q0 107 87 179.5t245 72.5zM342 752v-273h434v273q0 107 -63.5 159t-155.5 52q-96 0 -155.5 -51t-59.5 -160z" />
    <glyph glyph-name="lla" horiz-adv-x="1419" 
d="M342 752v-273h434v273q0 107 -63.5 159t-155.5 52q-96 0 -155.5 -51t-59.5 -160zM346 150h893v942h180v-1090h-1253v754q0 118 57 199t143.5 116t192.5 35q79 0 149 -20.5t127.5 -61.5t91.5 -110t34 -158v-420h-615v-186zM582 -33q74 0 136.5 -11.5t116.5 -35.5t84.5 -68
t30.5 -104v-39q0 -45 30 -60.5t110 -15.5q59 0 97.5 10.5t53.5 29t19 32t4 31.5q0 39 -45.5 67.5t-157.5 28.5v131q356 0 356 -229q0 -80 -45.5 -133t-116.5 -75t-165 -22q-136 0 -217.5 49t-81.5 156v39q0 43 -42 63t-126 25q77 -27 77 -139q0 -92 -70 -141.5t-192 -49.5
q-146 0 -209 55.5t-63 162.5q0 128 105.5 185.5t310.5 57.5zM432 -213q-47 0 -77.5 -19.5t-30.5 -56.5q0 -80 110 -80q109 0 109 80q0 36 -33.5 56t-77.5 20z" />
    <glyph glyph-name="vva" horiz-adv-x="1507" 
d="M965 150h362v942h180v-1438h-1101v147h51q157 0 267 51t140 150h-172v148h6q39 0 70 14.5t51 35.5t34 56.5t21.5 66t11.5 76.5t4.5 75.5t0.5 74.5q0 44 -1 73.5t-6.5 76t-16 78t-30.5 68t-48.5 58t-72 36.5t-98.5 15t-98 -15t-71.5 -37t-48.5 -58t-30 -68t-16 -77.5
t-7 -75.5t-1 -74q0 -47 0.5 -75t4.5 -75t11 -76.5t21.5 -66t34.5 -57t51.5 -35t71.5 -14.5h4v-152h-4q-97 0 -170 41t-117 116t-66 173.5t-22 220.5q0 269 124.5 413t327.5 144q201 0 328 -144.5t127 -412.5q0 -267 -108 -399zM860 -199h463v201h-262q-7 -26 -22 -56
t-39 -61t-61 -54.5t-79 -29.5z" />
    <glyph glyph-name="Sca" horiz-adv-x="2672" 
d="M1315 961q-153 -2 -231 -73t-78 -231v-272q0 -100 -32 -177t-88 -124t-128 -70.5t-156 -23.5q-94 0 -171.5 32.5t-137.5 98t-93.5 175t-33.5 253.5q0 255 132 405t364 150l2 -160q-77 0 -136 -25.5t-93.5 -64.5t-56 -92.5t-29 -102.5t-7.5 -102q0 -41 1.5 -71.5t7 -74.5
t15.5 -76.5t29.5 -67.5t46 -57.5t67 -37t91.5 -14.5q121 0 172 59t51 184v273q0 112 39 198t106 136.5t150 76t178 25.5q149 0 254 -47q97 47 207 47q257 0 398 -137.5t141 -399.5q0 -300 -139 -423h333v942h183v-1090h-1440v148h604q283 10 283 419q0 185 -84.5 287
t-251.5 102q-66 0 -84 -4q59 -39 98.5 -85t58.5 -95t26 -91t7 -91q0 -115 -48.5 -197t-124 -119.5t-167.5 -37.5q-145 0 -239 91t-94 263q0 241 182 362q-47 7 -84 7zM1550 381q91 0 125.5 63t34.5 177q0 206 -160 299q-153 -92 -153 -299q0 -108 36 -174t117 -66z" />
    <glyph glyph-name="Sla" horiz-adv-x="1880" 
d="M1696 549q0 134 -41 229q-89 -4 -148 -26.5t-92.5 -67t-47 -103t-13.5 -145.5q0 -56 3.5 -95.5t13.5 -78t28 -61.5t48 -37t73 -14q35 0 62.5 12.5t46 32t31.5 52t20 63t10.5 76t4.5 79.5t1 84zM795 -33q82 0 151.5 -11.5t128 -35.5t92 -68t33.5 -104v-39
q0 -45 33.5 -60.5t122.5 -15.5q51 0 88.5 7.5t56 18t29 26.5t12.5 26.5t2 24.5q0 17 -10 32.5t-33.5 30.5t-69.5 24t-110 9v131q391 0 391 -229q0 -118 -97 -174t-259 -56q-70 0 -128 11t-105 34t-73 64t-26 96v39q0 44 -45.5 63.5t-138.5 24.5q88 -27 88 -139
q0 -92 -77.5 -141.5t-211.5 -49.5q-158 0 -228.5 56t-70.5 162q0 129 113.5 186t341.5 57zM631 -213q-48 0 -84.5 -20t-36.5 -56q0 -80 123 -80q119 0 119 80q0 36 -36.5 56t-84.5 20zM600 158q121 0 172 59t51 184v273q0 93 27 167.5t73 124t110 82.5t134 47.5t148 14.5
q263 0 414 -148.5t151 -408.5q0 -266 -89 -412.5t-275 -146.5q-166 0 -257.5 107t-91.5 335q0 211 93 330t278 141q-102 51 -217 51q-315 0 -315 -301v-272q0 -100 -32 -177t-88 -124t-128 -70.5t-156 -23.5q-94 0 -171.5 32.5t-137.5 98t-93.5 175t-33.5 253.5
q0 255 132 405t364 150l2 -160q-77 0 -136 -25.5t-93.5 -64.5t-56 -92.5t-29 -102.5t-7.5 -102q0 -41 1.5 -71.5t7 -74.5t15.5 -76.5t29.5 -67.5t46 -57.5t67 -37t91.5 -14.5z" />
    <glyph glyph-name="SSa" horiz-adv-x="1880" 
d="M1257 -31q230 0 347.5 -62.5t117.5 -197.5q0 -235 -305 -235q-136 0 -218.5 54.5t-82.5 149.5q0 126 96 152q-97 -5 -143.5 -26t-46.5 -68v-41q0 -60 -26.5 -104.5t-75 -69.5t-107.5 -37t-131 -12q-106 0 -186 25.5t-129.5 82.5t-49.5 141q0 124 105 184t291 60v-139
q-64 0 -111 -10t-71 -26t-35 -32.5t-11 -33.5q0 -22 5.5 -37.5t23 -34.5t60 -29t108.5 -10q91 0 125.5 17.5t34.5 64.5v41q0 63 34.5 110t94.5 73t131 38t155 12zM1696 549q0 134 -41 229q-89 -4 -148 -26.5t-92.5 -67t-47 -103t-13.5 -145.5q0 -56 3.5 -95.5t13.5 -78
t28 -61.5t48 -37t73 -14q35 0 62.5 12.5t46 32t31.5 52t20 63t10.5 76t4.5 79.5t1 84zM1423 -201q-49 0 -86 -23.5t-37 -66.5q0 -98 121 -98q123 0 123 98q0 43 -35.5 66.5t-85.5 23.5zM600 158q121 0 172 59t51 184v273q0 93 27 167.5t73 124t110 82.5t134 47.5t148 14.5
q263 0 414 -148.5t151 -408.5q0 -266 -89 -412.5t-275 -146.5q-166 0 -257.5 107t-91.5 335q0 211 93 330t278 141q-102 51 -217 51q-315 0 -315 -301v-272q0 -100 -32 -177t-88 -124t-128 -70.5t-156 -23.5q-94 0 -171.5 32.5t-137.5 98t-93.5 175t-33.5 253.5
q0 255 132 405t364 150l2 -160q-77 0 -136 -25.5t-93.5 -64.5t-56 -92.5t-29 -102.5t-7.5 -102q0 -41 1.5 -71.5t7 -74.5t15.5 -76.5t29.5 -67.5t46 -57.5t67 -37t91.5 -14.5z" />
    <glyph glyph-name="sht" horiz-adv-x="2113" 
d="M1743 -326q-357 0 -357 148q0 51 48.5 86.5t126 51t178.5 15.5q58 0 114 -9t108 -28.5t87 -56t41 -84.5h-135q-22 70 -215 70q-209 0 -209 -43q0 -37 205 -37q186 0 280 -42.5t94 -119.5q0 -75 -100 -114t-274 -39q-68 0 -128 9t-112.5 28t-86.5 53.5t-40 81.5h139
q34 -58 228 -58q221 0 221 43q0 45 -213 45zM860 150h584v231h-35q-111 0 -192 20.5t-127 53t-73.5 83t-35.5 98.5t-8 112q0 180 90.5 269t241.5 89q154 0 237.5 -89.5t83.5 -271.5v-219q30 2 74.5 23.5t91 55.5t86 86t55.5 108v297h181v-1094h-1483v148h16q37 0 60.5 18
t33 51t12.5 58t3 59q0 38 -3.5 65t-15.5 55.5t-33.5 46t-59 29t-89.5 11.5q-116 0 -161.5 -52.5t-45.5 -140.5q0 -24 0.5 -37.5t3 -41.5t9 -45.5t17 -37t29 -29t42.5 -9.5h16v-148h-33q-65 0 -114.5 24t-77.5 60t-45.5 85.5t-23 91.5t-5.5 87q0 153 100.5 250.5t288.5 97.5
q184 0 284.5 -97.5t100.5 -250.5q0 -128 -80 -200zM1933 150v403q-77 -84 -160 -124t-147 -42v-237h307zM1413 522h31v226q0 41 -7.5 77.5t-23.5 69.5t-47 52.5t-74 19.5q-143 0 -143 -219q0 -33 1 -53t6.5 -46.5t16 -43t30 -34t47 -27t69 -16t94.5 -6.5z" />
    <glyph glyph-name="sdh" horiz-adv-x="3346" 
d="M2202 150h311v567q0 187 111.5 288t306.5 101q194 0 304.5 -101t110.5 -288v-715h-1361q-62 -10 -105 -10q-63 0 -120 13.5t-110 46t-92 80.5t-62 122t-23 166v229q0 303 -240 303q-110 0 -167.5 -70t-57.5 -225v-655h-183v655q0 295 -235 295q-50 0 -89 -16t-64.5 -39
t-43.5 -60.5t-27 -69t-13.5 -76.5t-5.5 -71.5t-1 -64.5q0 -50 0.5 -79t5.5 -77.5t13.5 -78t26 -65.5t42 -56.5t63 -34.5t87.5 -14h22v-152h-22q-108 0 -188.5 39t-130.5 113t-74.5 175t-24.5 230q0 139 35 247t94.5 173t134.5 98t160 33q99 0 186 -46.5t137 -141.5
q53 96 137 142t183 46q63 0 121 -14t113 -47.5t95 -84.5t64.5 -131t24.5 -180v-200q0 -42 1 -69.5t6.5 -62t14.5 -56.5t26 -45t41 -36t59 -21.5t81 -8.5q49 0 88 16t63 38t41.5 61t25.5 68.5t12.5 78t5 71.5t0.5 66v4q0 35 -0.5 54.5t-3 57t-8 60.5t-16 56.5t-25.5 55
t-39 45.5t-54 38t-72 23t-92 9v150q107 -2 190 -28t139 -72.5t92.5 -115.5t52.5 -151.5t16 -185.5q0 -260 -94 -399zM2931 963q-238 0 -238 -250v-563h473v563q0 129 -59 189.5t-176 60.5z" />
    <glyph glyph-name="sla" 
d="M1880 -8q-63 0 -120 13.5t-110 46t-92 80.5t-62 122t-23 166v229q0 303 -240 303q-110 0 -167.5 -70t-57.5 -225v-655h-183v655q0 295 -235 295q-50 0 -89 -16t-64.5 -39t-43.5 -60.5t-27 -69t-13.5 -76.5t-5.5 -71.5t-1 -64.5q0 -50 0.5 -79t5.5 -77.5t13.5 -78
t26 -65.5t42 -56.5t63 -34.5t87.5 -14h22v-152h-22q-108 0 -188.5 39t-130.5 113t-74.5 175t-24.5 230q0 139 35 247t94.5 173t134.5 98t160 33q99 0 186 -46.5t137 -141.5q53 96 137 142t183 46q63 0 121 -14t113 -47.5t95 -84.5t64.5 -131t24.5 -180v-200q0 -42 1 -69.5
t6.5 -62t14.5 -56.5t26 -45t41 -36t59 -21.5t81 -8.5q49 0 88 16t63 38t41.5 61t25.5 68.5t12.5 78t5 71.5t0.5 66v4q0 35 -0.5 54.5t-3 57t-8 60.5t-16 56.5t-25.5 55t-39 45.5t-54 38t-72 23t-92 9v150q107 -2 190 -28t139 -72.5t92.5 -115.5t52.5 -151.5t16 -185.5
q0 -124 -22.5 -221t-60.5 -159.5t-92 -103t-113 -57t-128 -16.5zM1280 -33q82 0 151.5 -11.5t128.5 -35.5t92.5 -68t33.5 -104v-39q0 -45 33 -60.5t124 -15.5q52 0 89.5 7.5t56.5 18t30 26.5t13 26.5t2 24.5q0 17 -10.5 32.5t-33.5 30.5t-69.5 24t-110.5 9v131
q392 0 392 -229q0 -118 -98 -174t-261 -56q-71 0 -129.5 11t-105.5 34t-73 64t-26 96v39q0 44 -45.5 63.5t-138.5 24.5q92 -26 92 -139q0 -92 -79 -141.5t-214 -49.5q-158 0 -228.5 56t-70.5 162q0 128 115 185.5t340 57.5zM1116 -213q-48 0 -82.5 -20t-34.5 -56
q0 -80 121 -80q64 0 90.5 20.5t26.5 59.5q0 36 -35 56t-86 20z" />
    <glyph glyph-name="ssa" 
d="M1880 -8q-63 0 -120 13.5t-110 46t-92 80.5t-62 122t-23 166v229q0 303 -240 303q-110 0 -167.5 -70t-57.5 -225v-655h-183v655q0 295 -235 295q-50 0 -89 -16t-64.5 -39t-43.5 -60.5t-27 -69t-13.5 -76.5t-5.5 -71.5t-1 -64.5q0 -50 0.5 -79t5.5 -77.5t13.5 -78
t26 -65.5t42 -56.5t63 -34.5t87.5 -14h22v-152h-22q-108 0 -188.5 39t-130.5 113t-74.5 175t-24.5 230q0 139 35 247t94.5 173t134.5 98t160 33q99 0 186 -46.5t137 -141.5q53 96 137 142t183 46q63 0 121 -14t113 -47.5t95 -84.5t64.5 -131t24.5 -180v-200q0 -42 1 -69.5
t6.5 -62t14.5 -56.5t26 -45t41 -36t59 -21.5t81 -8.5q49 0 88 16t63 38t41.5 61t25.5 68.5t12.5 78t5 71.5t0.5 66v4q0 35 -0.5 54.5t-3 57t-8 60.5t-16 56.5t-25.5 55t-39 45.5t-54 38t-72 23t-92 9v150q107 -2 190 -28t139 -72.5t92.5 -115.5t52.5 -151.5t16 -185.5
q0 -124 -22.5 -221t-60.5 -159.5t-92 -103t-113 -57t-128 -16.5zM1808 -528q-89 0 -165 19t-129.5 64.5t-53.5 110.5v78q0 82 -180 82q-84 0 -127 -21t-43 -81v-248h-172v245q0 61 -44.5 83t-131.5 22q-64 0 -105.5 -11t-57 -30t-20 -32.5t-4.5 -31.5q0 -26 4 -41t20 -34
t55 -28t102 -9h30v-135h-30q-180 0 -266.5 64.5t-86.5 182.5q0 59 30 106.5t81 76.5t114 44t134 15q68 0 139.5 -19.5t120.5 -56.5q97 76 258 76q67 0 127 -11t112.5 -34t83.5 -66t31 -100v-43q0 -25 2 -38.5t11 -27.5t28 -20t51 -10t82 -4q38 0 67 4.5t47.5 10t31.5 17
t19 18.5t9 21.5t3 19.5v19q0 19 -0.5 26.5t-13 26.5t-36 28t-75 17.5t-125.5 8.5v135q226 -4 322.5 -65.5t96.5 -176.5q0 -69 -27.5 -118.5t-77 -76.5t-109 -39.5t-132.5 -12.5z" />
    <glyph glyph-name="sTa" 
d="M1157 -156q-48 0 -84 -9.5t-55 -22.5t-30 -30.5t-14 -30t-3 -25.5q0 -28 3 -44t14 -36.5t40 -31.5t76 -13v-129q-151 0 -223 67.5t-72 186.5q0 118 96.5 182.5t251.5 64.5q154 0 249 -64.5t95 -182.5t-72 -186t-223 -68v129q45 2 74 13t41.5 31t16 37.5t3.5 43.5
q0 19 -6 36t-23 37.5t-57 32.5t-98 12zM1880 -8q-63 0 -120 13.5t-110 46t-92 80.5t-62 122t-23 166v229q0 303 -240 303q-110 0 -167.5 -70t-57.5 -225v-655h-183v655q0 295 -235 295q-50 0 -89 -16t-64.5 -39t-43.5 -60.5t-27 -69t-13.5 -76.5t-5.5 -71.5t-1 -64.5
q0 -50 0.5 -79t5.5 -77.5t13.5 -78t26 -65.5t42 -56.5t63 -34.5t87.5 -14h22v-152h-22q-108 0 -188.5 39t-130.5 113t-74.5 175t-24.5 230q0 139 35 247t94.5 173t134.5 98t160 33q99 0 186 -46.5t137 -141.5q53 96 137 142t183 46q63 0 121 -14t113 -47.5t95 -84.5
t64.5 -131t24.5 -180v-200q0 -42 1 -69.5t6.5 -62t14.5 -56.5t26 -45t41 -36t59 -21.5t81 -8.5q49 0 88 16t63 38t41.5 61t25.5 68.5t12.5 78t5 71.5t0.5 66v4q0 35 -0.5 54.5t-3 57t-8 60.5t-16 56.5t-25.5 55t-39 45.5t-54 38t-72 23t-92 9v150q107 -2 190 -28t139 -72.5
t92.5 -115.5t52.5 -151.5t16 -185.5q0 -124 -22.5 -221t-60.5 -159.5t-92 -103t-113 -57t-128 -16.5zM1913 -156q-48 0 -84.5 -9.5t-55.5 -22.5t-31 -30.5t-15 -30.5t-3 -25q0 -28 3 -44t15 -36.5t42 -31.5t78 -13v-129q-150 0 -222.5 67.5t-72.5 186.5q0 118 95 182.5
t251 64.5q154 0 250 -64.5t96 -182.5t-73.5 -186t-223.5 -68v129q47 2 76.5 13t41.5 31t15.5 37t3.5 44q0 118 -186 118z" />
    <glyph glyph-name="hna" horiz-adv-x="2641" 
d="M1978 657v-655h-178v655q0 153 -62 224t-171 71q-50 0 -90 -15.5t-66 -39t-45 -60t-28.5 -69.5t-15 -76.5t-6.5 -72t-1 -64.5q0 -50 1 -79.5t5.5 -77.5t13.5 -77.5t26.5 -65t42.5 -55.5t64 -34t88 -14h25v-150h-950v148h16q30 0 52 13.5t33 31.5t17.5 46.5t7.5 48.5t1 46
q0 38 -3.5 65t-15.5 55.5t-33.5 46t-59.5 29t-91 11.5q-116 0 -160.5 -52.5t-44.5 -140.5q0 -23 0.5 -36.5t3 -41.5t9 -45.5t17 -37t29 -29.5t42.5 -10h16v-148h-35q-65 0 -114.5 24t-77.5 60t-45.5 85.5t-23 91.5t-5.5 87q0 153 101 250.5t288 97.5q185 0 285 -97.5
t100 -250.5q0 -125 -78 -200h375q-102 144 -102 405q0 112 23.5 204t64 155.5t96 107.5t118 64t130.5 20q94 0 182 -47t139 -141q51 94 138.5 141t185.5 47q85 0 160 -33t136.5 -98t97.5 -173.5t36 -246.5q0 -262 -105.5 -409.5t-314.5 -147.5h-22v154h22q49 0 87.5 14
t63.5 34t42.5 55.5t26.5 65.5t13.5 77.5t5.5 77.5t1 79q0 36 -1 64.5t-6.5 72t-15 76.5t-28.5 69.5t-44.5 60t-65 39t-89.5 15.5q-110 0 -172 -71t-62 -224z" />
    <glyph glyph-name="hma" horiz-adv-x="2213" 
d="M631 2v148h16q30 0 52 13.5t33 31.5t17.5 46.5t7.5 48.5t1 46q0 38 -3.5 65t-15.5 55.5t-33.5 46t-59.5 29t-91 11.5q-116 0 -160.5 -52.5t-44.5 -140.5q0 -23 0.5 -36.5t3 -41.5t9 -45.5t17 -37t29 -29.5t42.5 -10h16v-148h-35q-65 0 -114.5 24t-77.5 60t-45.5 85.5
t-23 91.5t-5.5 87q0 153 101 250.5t288 97.5q185 0 285 -97.5t100 -250.5q0 -125 -78 -200h309v491q0 106 34.5 190t87 134.5t122.5 83.5t134 45t128 12q68 0 136.5 -12t142.5 -45t129.5 -83.5t92 -134.5t36.5 -190v-639h-1583zM1677 956q-134 0 -209 -59q33 8 68 8
q135 0 213 -89t66 -238l-29 -428h246v489q0 77 -24 136t-60 92.5t-86 54.5t-93.5 27.5t-91.5 6.5zM1483 780q-53 0 -92 -37.5t-39 -124.5v-468h245l31 405q3 63 -8 111t-45.5 81t-91.5 33z" />
    <glyph glyph-name="hla" horiz-adv-x="2131" 
d="M1655 1106q103 0 188 -33.5t150.5 -100t102 -174.5t36.5 -249q0 -255 -96.5 -403t-292.5 -148h-12v152h12q42 0 75 14t54 35t36.5 56t23.5 65.5t12 76.5t5 76.5t1 75.5q0 43 -1 72.5t-7.5 75.5t-17.5 78t-32.5 68t-52 58.5t-78 37.5t-106.5 15q-60 0 -107.5 -15
t-78.5 -37.5t-53 -58.5t-33.5 -68.5t-17.5 -78t-7.5 -75.5t-1.5 -72q0 -53 1.5 -89t7.5 -88t20 -86.5t36 -68t59 -50.5t85 -17h12v-148h-946v148h16q30 0 52 13.5t33 31.5t17.5 46.5t7.5 48.5t1 46q0 38 -3.5 65t-15.5 55.5t-33.5 46t-59.5 29t-91 11.5q-116 0 -160.5 -52.5
t-44.5 -140.5q0 -23 0.5 -36.5t3 -41.5t9 -45.5t17 -37t29 -29.5t42.5 -10h16v-148h-35q-65 0 -114.5 24t-77.5 60t-45.5 85.5t-23 91.5t-5.5 87q0 153 101 250.5t288 97.5q185 0 285 -97.5t100 -250.5q0 -125 -78 -200h408q-92 140 -92 399q0 141 36.5 249t102 174.5
t150.5 100t188 33.5zM1092 -33q82 0 151.5 -11.5t128 -35.5t92 -68t33.5 -104v-39q0 -45 33.5 -60.5t124.5 -15.5q52 0 89.5 7.5t56.5 18t29.5 26.5t12.5 26.5t2 24.5q0 17 -10 32.5t-33.5 30.5t-69.5 24t-110 9v131q391 0 391 -229q0 -118 -98 -174t-260 -56
q-71 0 -129.5 11t-105.5 34t-73 64t-26 96v39q0 44 -45.5 63.5t-138.5 24.5q92 -26 92 -139q0 -92 -79.5 -141.5t-213.5 -49.5q-159 0 -230 56t-71 162q0 128 115.5 185.5t341.5 57.5zM928 -213q-48 0 -83.5 -20t-35.5 -56q0 -80 121 -80q119 0 119 80q0 36 -35 56t-86 20z
" />
    <glyph glyph-name="LLa" horiz-adv-x="2519" 
d="M705 1106q146 0 266.5 -36t198 -113t77.5 -183q0 -70 -37 -129t-116 -88h-2q107 -18 160 -85.5t53 -158.5q0 -140 -91.5 -220.5t-291.5 -80.5h-498q-41 0 -60.5 -25t-19.5 -53q0 -29 19.5 -54.5t60.5 -26.5h967q-11 25 -11 73q0 65 25.5 113.5t67.5 75t88 39t96 12.5h465
q120 0 164.5 38.5t44.5 117.5q0 82 -49.5 115.5t-159.5 33.5h-70v160h57q75 0 120.5 34.5t45.5 96.5q0 67 -53 113.5t-131 66t-172 19.5q-184 0 -275 -60.5t-106 -155.5q61 64 164 64q119 0 193.5 -79.5t74.5 -227.5q0 -144 -84.5 -215.5t-216.5 -71.5q-77 0 -134.5 31
t-90.5 87t-48.5 126.5t-15.5 156.5q0 245 131 367.5t410 122.5q146 0 266.5 -36t198.5 -113t78 -183q0 -70 -37.5 -129t-116.5 -88h-2q106 -18 158.5 -85t52.5 -159q0 -140 -90.5 -220.5t-290.5 -80.5h-500q-40 0 -61 -25.5t-21 -52.5q0 -28 21 -54t61 -27h830v-158h-2024
q-40 0 -76 5.5t-74 21.5t-65.5 40.5t-45 66.5t-17.5 97q0 52 17 94.5t45 69t64.5 44t73 25t74.5 7.5h467q120 0 163.5 38.5t43.5 117.5q0 81 -49.5 115t-157.5 34h-71v160h57q76 0 121 34.5t45 96.5q0 67 -53.5 113.5t-131.5 66t-172 19.5q-95 0 -166.5 -17.5t-114 -48.5
t-65.5 -68t-30 -82q55 64 159 64q121 0 196 -79.5t75 -227.5q0 -144 -85 -215.5t-218 -71.5q-77 0 -134 31t-89.5 87t-48 126.5t-15.5 156.5q0 244 132 367t407 123zM451 674q-39 0 -64.5 -27t-34 -60.5t-8.5 -72.5q0 -38 8.5 -70.5t34 -59t64.5 -26.5q127 0 127 156
q0 160 -127 160zM1667 674q-57 0 -84 -49t-27 -111q0 -60 27 -108t84 -48q49 0 79 26t39 58.5t9 71.5q0 40 -9 73t-39.5 60t-78.5 27z" />
    <glyph glyph-name="RRa" horiz-adv-x="1157" 
d="M659 954q-50 0 -91 -9t-71.5 -23.5t-54.5 -38t-39.5 -46.5t-26.5 -55.5t-16.5 -58t-9 -61t-4 -58t-0.5 -55.5q0 -45 1 -75.5t5 -76.5t12 -76.5t23.5 -65.5t37 -56t55 -35t75.5 -14h10v-152h-10q-197 0 -293 148t-96 403q0 141 36.5 249t103 174.5t155.5 100t198 33.5
q228 0 363 -139.5t135 -417.5q0 -254 -97 -402.5t-292 -148.5h-10v152h10q42 0 75.5 14t55 35t37 56t23.5 65.5t12 76.5t5 76.5t1 75.5q0 43 -1.5 72.5t-8 75.5t-18.5 78t-35.5 68t-56 58.5t-83.5 37.5t-115 15zM657 -143q-198 0 -198 -129q0 -26 4 -44t16.5 -39t43.5 -33.5
t79 -14.5v-125q-151 0 -225 68.5t-74 187.5q0 125 97 189.5t257 64.5t257.5 -64.5t97.5 -189.5q0 -119 -74 -187.5t-225 -68.5v125q39 2 66.5 11.5t41.5 21t22 30.5t9.5 33t1.5 35q0 129 -197 129z" />
    <glyph glyph-name="la2" horiz-adv-x="0" 
d="M-836 -33q74 0 136.5 -11.5t116 -35.5t84 -68t30.5 -104v-39q0 -45 30.5 -60.5t110.5 -15.5q58 0 96 10.5t53 29t19 32t4 31.5q0 39 -44 67.5t-156 28.5v131q356 0 356 -229q0 -80 -45.5 -133t-117 -75t-165.5 -22q-133 0 -216 49t-83 156v39q0 43 -42 63t-126 25
q82 -29 82 -139q0 -92 -72.5 -141.5t-193.5 -49.5q-146 0 -210 55.5t-64 162.5q0 128 106 185.5t311 57.5zM-985 -213q-47 0 -78 -19.5t-31 -56.5q0 -80 111 -80q109 0 109 80q0 36 -32.5 56t-78.5 20z" />
    <glyph glyph-name="kaw" horiz-adv-x="1820" 
d="M993 -8q-162 0 -276 90q-87 -90 -223 -90q-156 0 -242 89t-86 277q0 176 108 260t293 84q31 205 143 304.5t283 99.5q169 0 279.5 -100t140.5 -304q191 0 299.5 -83.5t108.5 -260.5q0 -180 -84.5 -272t-229.5 -92q-9 0 -59 4v154q14 -2 37 -2q90 0 127 51.5t37 150.5
q0 38 -10.5 72t-33.5 64.5t-66.5 48.5t-102.5 18q-9 -284 -126 -423.5t-317 -139.5zM1247 555h-510q0 -44 1 -76t6.5 -77.5t15.5 -77.5t29 -67t45.5 -56.5t67 -36t91.5 -14.5t91 14.5t66 36t45 56.5t29 67t15.5 77.5t6.5 77.5t1 76zM993 952q-64 0 -110.5 -19.5t-74 -56
t-42.5 -78.5t-21 -96h494q-30 250 -246 250zM340 352q0 -99 36 -150.5t122 -51.5q81 0 129 51q-70 128 -70 354q-62 0 -106.5 -18t-67.5 -49t-33 -64t-10 -72zM1786 1155q-127 0 -212 71.5t-85 213.5v45h168v-25q0 -77 27.5 -117t101.5 -40q70 0 98.5 40.5t28.5 116.5v25
h164v-45q0 -138 -84.5 -211.5t-206.5 -73.5z" />
    <glyph glyph-name="khw" horiz-adv-x="1699" 
d="M166 539q0 262 145.5 416.5t401.5 154.5q120 0 220 -35t174 -102.5t115.5 -174t41.5 -243.5q0 -154 -17.5 -249t-72.5 -156h344v942h182v-1090h-774q-1 27 -1 74.5t-1 75.5q33 5 58 20t41.5 32.5t28 50.5t17 57.5t8.5 71t3.5 73.5t0.5 81v4v3v4q0 409 -391 409
q-144 0 -238.5 -72.5t-111.5 -213.5q12 41 51.5 68t78 36.5t75.5 9.5q152 0 235.5 -98t83.5 -299q0 -202 -90.5 -298.5t-251.5 -96.5q-356 0 -356 545zM369 389q0 -53 6.5 -92.5t22 -74.5t47 -53.5t77.5 -18.5q47 0 78.5 18.5t48 53.5t23 74.5t6.5 92.5q0 54 -6.5 94.5
t-23 76t-48 54.5t-78.5 19q-46 0 -77.5 -19t-47 -54.5t-22 -76t-6.5 -94.5zM1663 1155q-127 0 -210 71.5t-83 213.5v45h164v-25q0 -76 28.5 -116.5t100.5 -40.5t101.5 41t29.5 116v25h162v-45q0 -139 -84.5 -212t-208.5 -73z" />
    <glyph glyph-name="gaw" horiz-adv-x="1662" 
d="M1006 692v-307q0 -100 -32 -177t-88 -124t-128 -70.5t-156 -23.5q-94 0 -171.5 32.5t-137.5 98t-93.5 175t-33.5 253.5q0 255 131.5 405t359.5 150v-160q-75 0 -133 -25.5t-91.5 -64.5t-54.5 -92.5t-28.5 -102.5t-7.5 -102q0 -41 1.5 -71.5t7 -74.5t15.5 -76.5
t29.5 -67.5t46 -57.5t67 -37t91.5 -14.5q121 0 172 59t51 184v308q0 196 114 295.5t290 99.5q93 0 170.5 -32.5t138 -98t94 -174.5t33.5 -252q0 -256 -130.5 -406.5t-358.5 -150.5v162q75 0 132.5 25t91 64t54.5 93t28 103t7 104q0 40 -1.5 71t-7 75t-16 76.5t-30 67.5
t-46 57.5t-66.5 37t-91 14.5q-122 0 -172.5 -61.5t-50.5 -186.5zM1626 1155q-60 0 -112 16.5t-94 50t-66.5 89.5t-24.5 129v45h168v-25q0 -76 28 -116.5t101 -40.5q70 0 98.5 40.5t28.5 116.5v25h166v-45q0 -139 -84 -212t-209 -73z" />
    <glyph glyph-name="ghw" horiz-adv-x="2396" 
d="M1319 150h897v942h180v-1090h-1255v334h-510v143h16q111 0 111 185q0 50 -6.5 83t-26.5 64t-62 46t-108 15q-117 0 -161 -51t-44 -143q0 -22 0.5 -35t3 -41t9 -46t17 -37.5t29 -29.5t42.5 -10h16v-143h-35q-65 0 -114.5 24t-77.5 60t-45.5 84.5t-23 89.5t-5.5 84
q0 155 101 253.5t288 98.5q185 0 285 -98.5t100 -253.5q0 -121 -78 -199h279v277q0 72 21.5 131t58 99t86.5 67.5t106.5 40t118.5 12.5q79 0 149.5 -20.5t127.5 -61.5t90.5 -110t33.5 -158v-420h-614v-186zM1315 752v-273h434v273q0 108 -62.5 159.5t-156.5 51.5
q-93 0 -154 -51.5t-61 -159.5zM2357 1155q-59 0 -110.5 16.5t-93 50t-65.5 89.5t-24 129v45h168v-25q0 -77 27 -117t98 -40q73 0 102 40.5t29 116.5v25h164v-45q0 -138 -85 -211.5t-210 -73.5z" />
    <glyph glyph-name="ngw" horiz-adv-x="1937" 
d="M698 1106q123 0 224.5 -39.5t158.5 -114.5q58 75 152 114.5t213 39.5q114 0 211.5 -36.5t160 -110.5t62.5 -173q0 -45 -15 -87.5t-53 -82.5t-94 -59q113 -18 166 -84.5t53 -159.5q0 -68 -21 -122.5t-66 -98t-124 -67t-186 -23.5h-160v160h146q128 0 175.5 40.5
t47.5 119.5q0 81 -53.5 115t-169.5 34h-146v160h131q97 0 140 32.5t43 114.5q0 176 -244 176q-52 0 -94 -10t-68.5 -25t-46 -38.5t-29 -43.5t-15 -48.5t-6.5 -45.5t-1 -41v-700h-180v694q0 66 -29 117.5t-78 81t-107.5 44.5t-123.5 15q-139 0 -229.5 -75t-102.5 -207
q22 58 82.5 86t120.5 28q158 0 243.5 -97.5t85.5 -299.5t-93.5 -299.5t-258.5 -97.5q-181 0 -267.5 147t-86.5 414q0 261 134.5 407t397.5 146zM373 391q0 -54 6.5 -94t22.5 -75t47.5 -53.5t78.5 -18.5q46 0 77.5 18.5t47.5 53.5t22.5 75.5t6.5 93.5t-6.5 93t-22.5 75.5
t-47.5 54.5t-77.5 19q-47 0 -78.5 -19t-47.5 -54.5t-22.5 -75.5t-6.5 -93zM1901 1155q-125 0 -208 71.5t-83 213.5v45h164v-25q0 -76 28.5 -116.5t98.5 -40.5q74 0 102.5 40.5t28.5 116.5v25h166v-45q0 -94 -42.5 -160t-108 -95.5t-146.5 -29.5z" />
    <glyph glyph-name="caw" horiz-adv-x="1730" 
d="M881 150h665v944h185v-1092h-1565v148h311q506 0 506 385q0 94 -55 152t-150 58q-79 0 -128.5 -38.5t-49.5 -110.5q0 -145 107 -145v-158h-29q-60 0 -106.5 21t-73 52t-43.5 72t-23 76t-6 68q0 156 101.5 240.5t263.5 84.5q174 0 283.5 -95.5t109.5 -272.5
q0 -139 -75.5 -243t-227.5 -146zM1696 1155q-127 0 -210 71.5t-83 213.5v45h168v-25q0 -77 27 -117t98 -40q73 0 102 40.5t29 116.5v25h164v-45q0 -138 -85 -211.5t-210 -73.5z" />
    <glyph glyph-name="chw" horiz-adv-x="2529" 
d="M2343 549q0 140 -41 229q-89 -4 -147 -26.5t-91 -67t-46 -103t-13 -145.5q0 -56 3 -95.5t13 -78t27.5 -61.5t47 -37t71.5 -14q41 0 72 15t49.5 46.5t30 64t16.5 84.5t6.5 90.5t1.5 98.5zM881 150h618q-82 139 -82 405q0 140 41 247.5t115.5 174t173 100t217.5 33.5
q263 0 414 -148.5t151 -408.5q0 -559 -366 -559q-164 0 -256 107.5t-92 334.5q0 211 94 330t280 141q-108 51 -217 51q-375 0 -375 -409q0 -57 1.5 -96t6 -87t15 -80t27.5 -62.5t43.5 -48t62.5 -23.5v-150h-1587v148h311q506 0 506 385q0 94 -55 152t-150 58
q-79 0 -128.5 -38.5t-49.5 -110.5q0 -145 107 -145v-158h-29q-60 0 -106.5 21t-73 52t-43.5 72t-23 76t-6 68q0 156 101.5 240.5t263.5 84.5q174 0 283.5 -95.5t109.5 -272.5q0 -139 -75.5 -243t-227.5 -146zM2492 1155q-127 0 -209.5 71.5t-82.5 213.5v45h163v-25
q0 -76 28 -116.5t101 -40.5q72 0 101.5 41t29.5 116v25h160v-45q0 -139 -83.5 -212t-207.5 -73z" />
    <glyph glyph-name="jaw" horiz-adv-x="1622" 
d="M862 571v236q0 57 -39.5 96.5t-94.5 55.5t-118 16q60 -17 95.5 -69.5t35.5 -114.5q0 -121 -77.5 -177.5t-214.5 -56.5q-281 0 -281 258q0 64 24 115t63.5 83.5t95 53.5t114.5 30t125 9q103 0 200 -30.5t160 -94.5q37 58 111 91.5t168 33.5q79 0 147.5 -19.5t124.5 -59.5
t88.5 -107.5t32.5 -155.5q0 -50 -9.5 -96.5t-30 -89.5t-58 -73t-88.5 -40q62 -6 105.5 -40.5t62 -81t18.5 -99.5q0 -111 -72.5 -181.5t-226.5 -70.5q-145 0 -217 61t-72 164q0 110 90 162h-43q-26 0 -59.5 -21.5t-50.5 -44.5v4l-154 -163q-55 -57 -104.5 -91.5t-98.5 -49
t-82.5 -18t-87.5 -3.5q-278 0 -278 268q0 57 19.5 101t49.5 70t71 42.5t78.5 22.5t78.5 6h708q135 0 204 62t69 184q0 227 -217 227q-93 0 -139 -48.5t-46 -119.5v-236h-180zM831 379h-356q-72 0 -103.5 -28.5t-31.5 -94.5q0 -64 30 -91.5t95 -27.5q58 -2 105 16t106 74z
M1198 256q0 -65 35 -92t88 -27q129 0 129 119q0 68 -34.5 95.5t-94.5 27.5q-123 0 -123 -123zM344 797q0 -119 107 -119q60 0 85 34t25 85q0 112 -110 112q-107 0 -107 -112zM1585 1155q-60 0 -112 16.5t-94 50t-66.5 89.5t-24.5 129v45h168v-25q0 -76 28 -116.5t101 -40.5
q70 0 98.5 40.5t28.5 116.5v25h166v-45q0 -138 -85 -211.5t-208 -73.5z" />
    <glyph glyph-name="jhw" horiz-adv-x="3022" 
d="M1731 633v-184q0 -69 9 -118.5t32 -93t68.5 -65.5t113.5 -22q111 0 169 68t58 222v656h180v-656q0 -290 236 -290q50 0 90 15.5t66 38.5t44 60t27 68.5t14 77t6 72t1 65.5q0 49 -0.5 77.5t-5.5 77t-13.5 78t-26.5 66t-43 57t-64 35t-89 14.5h-23v148h23
q213 0 316.5 -146.5t103.5 -406.5q0 -139 -35.5 -248t-96.5 -174.5t-135.5 -99t-158.5 -33.5q-65 0 -124.5 18.5t-113 62t-86.5 107.5q-51 -95 -136 -141.5t-183 -46.5q-64 0 -119.5 12.5t-108.5 44t-90 80t-59.5 127t-22.5 178.5v131q0 95 -22.5 168.5t-62.5 119t-94.5 74
t-119 33t-135.5 -3.5q209 -178 209 -487q0 -479 -371 -479q-374 0 -374 479q0 319 204 481q-64 13 -94 13q-175 0 -261.5 -101.5t-86.5 -320.5q0 -83 6.5 -145t23.5 -119.5t51 -88t85 -30.5v-160q-70 0 -125 20.5t-92.5 59.5t-63 87.5t-39.5 112.5t-20 126.5t-6 136.5
q0 278 140.5 421.5t395.5 143.5q159 0 256 -66q89 66 254 66q136 0 253 -55.5t191.5 -165.5t74.5 -252zM958 147q51 0 86.5 19t55.5 47t30.5 75.5t13.5 90t3 104.5q0 307 -189 428q-192 -120 -192 -428q0 -51 2 -87t8 -78.5t19 -70t33.5 -52t53.5 -36.5t76 -12zM2984 1155
q-123 0 -208 72t-85 213v45h168v-25q0 -76 27.5 -116.5t97.5 -40.5q73 0 102 40.5t29 116.5v25h166v-45q0 -94 -42.5 -160t-108 -95.5t-146.5 -29.5z" />
    <glyph glyph-name="njw" horiz-adv-x="2547" 
d="M1090 936q71 81 176 124.5t221 43.5q143 0 270 -68q102 70 256 70q254 0 394.5 -143.5t140.5 -421.5q0 -74 -5.5 -136.5t-19.5 -126.5t-39.5 -112.5t-62 -87.5t-91.5 -59.5t-124 -20.5v160q51 2 85.5 33t51.5 88.5t23 118t6 143.5q0 218 -89 320t-264 102q-11 0 -98 -7
q211 -178 211 -487q0 -479 -377 -479q-179 0 -274 118.5t-95 360.5q0 316 203 481q-49 11 -106 11q-58 0 -109.5 -18.5t-93 -54t-66 -95.5t-24.5 -136v-655h-180v655q0 62 -18.5 112t-50 84t-74.5 57t-92 33.5t-103 10.5q-139 0 -229.5 -75t-102.5 -207q22 58 82.5 86
t120.5 28q158 0 243.5 -97.5t85.5 -299.5t-93.5 -299.5t-258.5 -97.5q-182 0 -268 142.5t-86 404.5q0 264 135 415.5t397 151.5q129 0 233 -43t159 -127zM373 391q0 -54 6.5 -94t22.5 -75t47.5 -53.5t78.5 -18.5q46 0 77.5 18.5t47.5 53.5t22.5 75.5t6.5 93.5t-6.5 93
t-22.5 75.5t-47.5 54.5t-77.5 19q-47 0 -78.5 -19t-47.5 -54.5t-22.5 -75.5t-6.5 -93zM1755 147q44 0 77 11.5t54 36.5t34 52.5t18.5 70t7.5 78t2 87.5q0 306 -193 428q-188 -121 -188 -428q0 -62 2.5 -104t13.5 -90t30.5 -76t55 -47t86.5 -19zM2511 1155q-125 0 -208 71.5
t-83 213.5v45h164v-25q0 -76 28.5 -116.5t98.5 -40.5q74 0 102.5 40.5t28.5 116.5v25h164v-45q0 -139 -84.5 -212t-210.5 -73z" />
    <glyph glyph-name="Taw" horiz-adv-x="1103" 
d="M643 487q-229 0 -341 80t-112 224q0 141 129.5 228t319.5 87q59 0 118 -10.5t118 -34.5t103.5 -60t72.5 -91.5t28 -123.5v-30h-168q0 215 -276 215q-122 0 -196 -43.5t-74 -126.5q0 -30 4.5 -51t20.5 -43t44.5 -35t78.5 -21t120 -8q231 0 351 -89.5t120 -240.5
q0 -143 -129.5 -232t-343.5 -89q-90 0 -169.5 17.5t-147.5 53.5t-108 100t-40 150v35h170q0 -114 71.5 -159.5t223.5 -45.5q142 0 217.5 43.5t75.5 130.5q0 92 -63 131t-218 39zM1067 1155q-125 0 -208 71.5t-83 213.5v45h164v-25q0 -76 28.5 -116.5t98.5 -40.5
q74 0 102.5 40.5t28.5 116.5v25h166v-45q0 -94 -42.5 -160t-108 -95.5t-146.5 -29.5z" />
    <glyph glyph-name="Thw" horiz-adv-x="1120" 
d="M643 1106q78 0 146 -18t129.5 -59t105.5 -103.5t70 -158t26 -214.5q0 -120 -26 -216t-70 -159.5t-105.5 -106t-130 -61t-145.5 -18.5q-99 0 -182 30.5t-150.5 94.5t-106 175.5t-38.5 260.5q0 148 38.5 258.5t106.5 173t150.5 92t181.5 29.5zM643 145q281 0 281 410
q0 406 -281 406q-283 0 -283 -406q0 -410 283 -410zM1083 1155q-127 0 -209.5 71.5t-82.5 213.5v45h167v-25q0 -77 27 -117t98 -40q73 0 102 40.5t29 116.5v25h164v-45q0 -138 -85 -211.5t-210 -73.5z" />
    <glyph glyph-name="Daw" 
d="M582 1106q63 0 120 -13.5t110.5 -46t92.5 -80.5t62.5 -122t23.5 -166v-229q0 -139 54 -219t184 -80q111 0 168 68t57 222v656h182v-656q0 -290 236 -290q50 0 89 15.5t64.5 38.5t43.5 60t27 68.5t13.5 77t5.5 72t1 65.5q0 49 -0.5 77.5t-5.5 77t-13.5 78t-26 66t-42 57
t-63 35t-87.5 14.5h-23v148h23q210 0 314 -146.5t104 -406.5q0 -139 -35.5 -248t-95.5 -174.5t-134.5 -99t-158.5 -33.5q-101 0 -188 46.5t-140 141.5q-50 -95 -133.5 -141.5t-181.5 -46.5q-63 0 -121 14t-113 47.5t-95 84.5t-64.5 131t-24.5 180v200q0 42 -1 69.5
t-6.5 62.5t-14.5 57.5t-26 46t-41 37t-59 22t-81 8.5q-39 0 -71 -10t-55 -24.5t-41 -40t-29.5 -47.5t-19.5 -56.5t-12 -57t-6 -60t-2 -54v-49.5q0 -144 20 -213q54 -190 289 -190v-154q-108 2 -191.5 28t-139.5 73t-91.5 116t-51 152.5t-15.5 187.5q0 124 22.5 220.5
t60.5 158.5t92 102t113 56t128 16zM2259 1155q-60 0 -111.5 16.5t-93.5 50t-66 89.5t-24 129v45h168v-25q0 -77 27 -117t100 -40q72 0 100.5 40.5t28.5 116.5v25h164v-45q0 -139 -84 -212t-209 -73z" />
    <glyph glyph-name="DDw" horiz-adv-x="2482" 
d="M2482 592q0 -292 -134 -446t-404 -154q-135 0 -240 46.5t-158 141.5q-50 -95 -134.5 -141.5t-182.5 -46.5q-63 0 -121 14t-113 47.5t-95 84.5t-64.5 131t-24.5 180v200q0 42 -1 69.5t-6.5 62.5t-14.5 57.5t-26 46t-41 37t-59 22t-81 8.5q-39 0 -71 -10t-55 -24.5t-41 -40
t-29.5 -47.5t-19.5 -56.5t-12 -57t-6 -60t-2 -54v-49.5q0 -144 20 -213q54 -190 289 -190v-154q-108 2 -191.5 28t-139.5 73t-91.5 116t-51 152.5t-15.5 187.5q0 124 22.5 220.5t60.5 158.5t92 102t113 56t128 16q63 0 120 -13.5t110.5 -46t92.5 -80.5t62.5 -122t23.5 -166
v-229q0 -139 54 -219t184 -80q111 0 168 68t57 222v656h182v-656q0 -76 27.5 -134t75.5 -92t106.5 -50.5t126.5 -16.5q141 0 232 83t104 247q-24 -50 -86 -75t-119 -25q-331 0 -331 366q0 184 94 273.5t258 89.5q181 0 269.5 -135.5t88.5 -378.5zM2273 741q0 50 -6.5 87
t-22.5 69.5t-47.5 50t-78.5 17.5q-46 0 -77.5 -17.5t-48 -50t-23.5 -70t-7 -86.5q0 -227 156 -227q46 0 78 18t48 51.5t22.5 71t6.5 86.5zM2445 1155q-127 0 -212 71.5t-85 213.5v45h168v-25q0 -77 27.5 -117t101.5 -40q70 0 98.5 40.5t28.5 116.5v25h164v-45
q0 -138 -84 -211.5t-207 -73.5z" />
    <glyph glyph-name="NNw" horiz-adv-x="2500" 
d="M166 539q0 264 135 415.5t397 151.5q137 0 242 -46.5t156 -141.5q54 95 141 141.5t186 46.5q98 0 185.5 -47t138.5 -141q53 95 140 141.5t186 46.5q85 0 160 -33t136 -98t96.5 -173t35.5 -247q0 -262 -105.5 -409.5t-316.5 -147.5h-21v152h21q39 0 71 8.5t55.5 21.5
t42 36t30 44t20 54t13 57.5t6.5 62t2.5 60.5t0.5 61t-1 64.5t-6 71.5t-14 77t-27.5 69t-43.5 60t-65 39t-90 16q-234 0 -234 -295v-655h-178v655q0 295 -238 295q-233 0 -233 -295v-655h-180v655q0 62 -18.5 112t-50 84t-74.5 57t-92 33.5t-103 10.5q-139 0 -229.5 -75
t-102.5 -207q22 58 82.5 86t120.5 28q158 0 243.5 -97.5t85.5 -299.5t-93.5 -299.5t-258.5 -97.5q-354 0 -354 547zM373 391q0 -54 6.5 -94t22.5 -75t47.5 -53.5t78.5 -18.5q46 0 77.5 18.5t47.5 53.5t22.5 75.5t6.5 93.5t-6.5 93t-22.5 75.5t-47.5 54.5t-77.5 19
q-47 0 -78.5 -19t-47.5 -54.5t-22.5 -75.5t-6.5 -93zM2464 1155q-60 0 -112 16.5t-94 50t-66.5 89.5t-24.5 129v45h168v-25q0 -76 28 -116.5t101 -40.5q71 0 100 41t29 116v25h164v-45q0 -139 -84 -212t-209 -73z" />
    <glyph glyph-name="thw" horiz-adv-x="1746" 
d="M958 1040q89 66 252 66q254 0 395.5 -143.5t141.5 -421.5q0 -89 -8.5 -163t-31.5 -146.5t-60.5 -122.5t-100 -80.5t-145.5 -30.5v160q170 0 170 383q0 219 -88.5 320.5t-263.5 101.5q-26 0 -95 -13q203 -170 203 -481q0 -479 -369 -479q-376 0 -376 479q0 309 211 487
q-8 0 -43.5 3.5t-55.5 3.5q-175 0 -261.5 -101.5t-86.5 -320.5q0 -83 6.5 -145t23.5 -119.5t51 -88t85 -30.5v-160q-70 0 -125 20.5t-92.5 59.5t-63 87.5t-39.5 112.5t-20 126.5t-6 136.5q0 277 140.5 421t393.5 144q161 0 258 -66zM958 147q51 0 86.5 19t55.5 47t30.5 75.5
t13.5 90t3 104.5q0 307 -189 428q-192 -120 -192 -428q0 -51 2 -87t8 -78.5t19 -70t33.5 -52t53.5 -36.5t76 -12zM1710 1155q-126 0 -209.5 71.5t-83.5 213.5v45h168v-25q0 -76 27.5 -116.5t97.5 -40.5q73 0 102 40.5t29 116.5v25h166v-45q0 -138 -86 -211.5t-211 -73.5z
" />
    <glyph glyph-name="dhw" horiz-adv-x="1490" 
d="M348 150h309v567q0 186 111.5 287.5t304.5 101.5q195 0 306.5 -101t111.5 -288v-715h-1325v1090h182v-942zM1073 963q-235 0 -235 -250v-563h473v563q0 129 -60 189.5t-178 60.5zM1454 1155q-126 0 -209.5 71.5t-83.5 213.5v45h164v-25q0 -76 28.5 -116.5t100.5 -40.5
t101.5 41t29.5 116v25h162v-45q0 -139 -84 -212t-209 -73z" />
    <glyph glyph-name="daw" horiz-adv-x="1093" 
d="M606 954q-73 0 -124.5 -15t-77 -34.5t-39.5 -51.5t-16.5 -53t-2.5 -52v-746h-180v707q0 96 33.5 172t93 125t138.5 74.5t171 25.5q114 0 211.5 -36.5t160 -110.5t62.5 -173q0 -45 -15 -87.5t-53 -82.5t-94 -59q113 -18 166.5 -84.5t53.5 -159.5q0 -68 -21 -122.5
t-66.5 -98t-124.5 -67t-186 -23.5h-159v160h145q128 0 175.5 40.5t47.5 119.5q0 81 -53.5 115t-169.5 34h-145v160h131q97 0 138.5 32.5t41.5 114.5q0 176 -242 176zM1057 1155q-126 0 -209.5 71.5t-83.5 213.5v45h164v-25q0 -75 29 -116t100 -41q73 0 102 40.5t29 116.5v25
h164v-45q0 -139 -84.5 -212t-210.5 -73z" />
    <glyph glyph-name="ddw" horiz-adv-x="1669" 
d="M1008 1102v-656q0 -155 60 -221.5t171 -66.5q50 0 89.5 15.5t65 38.5t44.5 59t28.5 68.5t15 76.5t6.5 72.5t1 66.5q0 49 -1 78.5t-5.5 77t-13.5 77t-27 65t-43 55.5t-64 34t-88 14h-20v150h20q141 0 237 -69.5t140.5 -191t44.5 -290.5q0 -140 -36 -249.5t-97.5 -175
t-136.5 -99t-160 -33.5q-98 0 -184 46.5t-140 141.5q-51 -94 -138.5 -141t-180.5 -47q-86 0 -161.5 33.5t-136.5 99t-96.5 175t-35.5 249.5q0 259 104.5 405t315.5 146h22v-150h-22q-49 0 -87.5 -14t-63.5 -34t-42.5 -55.5t-26.5 -65t-13.5 -77t-5.5 -77t-1 -78.5
q0 -38 1 -66.5t6.5 -72.5t15 -76.5t28.5 -68.5t44.5 -59t65 -38.5t89.5 -15.5q111 0 171 66.5t60 221.5v656h181zM1632 1155q-60 0 -112 16.5t-94 50t-66.5 89.5t-24.5 129v45h168v-25q0 -76 28 -116.5t101 -40.5q72 0 100.5 40.5t28.5 116.5v25h164v-45q0 -139 -84 -212
t-209 -73z" />
    <glyph glyph-name="naw" horiz-adv-x="1669" 
d="M1008 657v-655h-181v655q0 295 -231 295q-50 0 -89.5 -15.5t-65 -39t-44.5 -60t-28.5 -69.5t-15 -76.5t-6.5 -72t-1 -64.5q0 -49 1 -79t5.5 -77.5t13.5 -77.5t26.5 -65.5t42.5 -55.5t63.5 -34t87.5 -14h22v-154h-22q-212 0 -316 147t-104 410q0 139 35.5 247t96.5 173
t136.5 98t161.5 33q93 0 180.5 -47t138.5 -141q54 95 140 141.5t184 46.5q85 0 160 -33t136.5 -98t97.5 -173.5t36 -246.5q0 -262 -105.5 -409.5t-316.5 -147.5h-20v154h20q49 0 88 14t64 34t43 55.5t27 65.5t13.5 77.5t5.5 77.5t1 79q0 36 -1 64.5t-6.5 72t-15 76.5
t-28.5 69.5t-44.5 60t-65 39t-89.5 15.5q-231 0 -231 -295zM1632 1155q-60 0 -112 16.5t-94 50t-66.5 89.5t-24.5 129v45h168v-25q0 -76 28 -116.5t101 -40.5q72 0 100.5 40.5t28.5 116.5v25h164v-45q0 -139 -84 -212t-209 -73z" />
    <glyph glyph-name="paw" horiz-adv-x="1613" 
d="M555 698q185 0 285 -97.5t100 -250.5q0 -125 -78 -200h570v942h182v-1090h-983v148h16q30 0 52 13.5t33 31.5t17.5 46.5t7.5 48.5t1 46q0 38 -3.5 65t-15.5 55.5t-33.5 46t-59.5 29t-91 11.5q-116 0 -160.5 -52.5t-44.5 -140.5q0 -23 0.5 -36.5t3 -41.5t9 -45.5t17 -37
t29 -29.5t42.5 -10h16v-148h-35q-65 0 -114.5 24t-77.5 60t-45.5 85.5t-23 91.5t-5.5 87q0 153 101 250.5t288 97.5zM1577 1155q-127 0 -212 71.5t-85 213.5v45h168v-25q0 -76 28 -116.5t101 -40.5q70 0 98.5 40.5t28.5 116.5v25h166v-45q0 -138 -85.5 -211.5t-207.5 -73.5z
" />
    <glyph glyph-name="phw" horiz-adv-x="2060" 
d="M940 350q0 -125 -78 -200h305v567q0 183 124.5 286t322.5 103t322 -103t124 -286v-715h-1429v148h16q30 0 52 13.5t33 31.5t17.5 46.5t7.5 48.5t1 46q0 38 -3.5 65t-15.5 55.5t-33.5 46t-59.5 29t-91 11.5q-116 0 -160.5 -52.5t-44.5 -140.5q0 -23 0.5 -36.5t3 -41.5
t9 -45.5t17 -37t29 -29.5t42.5 -10h16v-148h-35q-65 0 -114.5 24t-77.5 60t-45.5 85.5t-23 91.5t-5.5 87q0 153 101 250.5t288 97.5q185 0 285 -97.5t100 -250.5zM1614 963q-127 0 -199 -61.5t-72 -188.5v-563h537v563q0 250 -266 250zM2023 1155q-60 0 -112 16.5t-94 50
t-66.5 89.5t-24.5 129v45h168v-25q0 -76 28 -116.5t101 -40.5q70 0 98.5 40.5t28.5 116.5v25h166v-45q0 -139 -84.5 -212t-208.5 -73z" />
    <glyph glyph-name="baw" horiz-adv-x="2324" 
d="M1190 657v-655h-180v655q0 62 -18.5 112t-50 84t-74.5 57t-92 33.5t-103 10.5q-139 0 -229.5 -75t-102.5 -207q22 58 82.5 86t120.5 28q158 0 243.5 -97.5t85.5 -299.5t-93.5 -299.5t-258.5 -97.5q-354 0 -354 543q0 263 135.5 417t396.5 154q137 0 242 -46.5t156 -141.5
q54 95 142 141.5t185 46.5q85 0 160 -33t136 -98t96.5 -173t35.5 -247q0 -265 -102 -405h393v942h182v-1090h-915v148h23q38 0 70 8.5t55.5 21.5t41.5 36t30 44t20 54t12.5 57.5t6.5 62t2.5 60.5t0.5 61q0 28 -0.5 49t-3 54.5t-7 59t-13.5 57.5t-21 55.5t-31 47.5t-43 39.5
t-57 25t-72 9.5q-233 0 -233 -295zM373 391q0 -54 6.5 -94t22.5 -75t47.5 -53.5t78.5 -18.5q46 0 77.5 18.5t47.5 53.5t22.5 75.5t6.5 93.5t-6.5 93t-22.5 75.5t-47.5 54.5t-77.5 19q-47 0 -78.5 -19t-47.5 -54.5t-22.5 -75.5t-6.5 -93zM2288 1155q-126 0 -209.5 71.5
t-83.5 213.5v45h164v-25q0 -76 28.5 -116.5t100.5 -40.5t101.5 41t29.5 116v25h161v-45q0 -139 -83.5 -212t-208.5 -73z" />
    <glyph glyph-name="bhw" horiz-adv-x="1249" 
d="M559 16v154q129 -27 258 -27q236 0 236 101q0 36 -20.5 56.5t-57.5 25.5t-70.5 4.5t-78.5 -4.5t-62 -4q-111 0 -170 52.5t-59 170.5q0 112 64 167.5t165 55.5q10 0 37.5 -1.5t47.5 -2.5t46.5 2t43.5 11t29.5 25.5t12.5 43.5q0 56 -87.5 88.5t-197.5 32.5
q-97 0 -175 -23.5t-127.5 -73.5t-49.5 -120v-754h-178v713q0 186 140.5 291.5t381.5 105.5q87 0 169.5 -14.5t157 -44t120 -83.5t45.5 -124q0 -42 -14.5 -77.5t-46 -66.5t-89 -48t-135.5 -15q-8 0 -29.5 1t-29.5 1q-66 0 -96.5 -20t-30.5 -70q0 -48 32 -68t95 -20
q18 0 54.5 3t57.5 3q301 0 301 -217q0 -68 -34 -118.5t-96.5 -79.5t-141.5 -42.5t-176 -13.5q-150 0 -242 24zM1214 1155q-127 0 -211.5 71.5t-84.5 213.5v45h167v-25q0 -77 27.5 -117t101.5 -40q70 0 98.5 40.5t28.5 116.5v25h164v-45q0 -139 -83.5 -212t-207.5 -73z" />
    <glyph glyph-name="maw" horiz-adv-x="1210" 
d="M166 2v639q0 106 34.5 190t87 134.5t122.5 83.5t134 45t128 12q68 0 136.5 -12t142.5 -45t130 -83.5t92.5 -134.5t36.5 -190v-639h-1044zM477 780q-52 0 -90.5 -38t-38.5 -124v-468h244l31 428q3 51 -8 94.5t-46.5 75.5t-91.5 32zM672 956q-130 0 -207 -59q31 8 70 8
q129 0 206 -85t68 -212l-29 -458h246v489q0 77 -23.5 136t-59.5 92.5t-85.5 54.5t-93.5 27.5t-92 6.5zM1174 1155q-127 0 -212 71.5t-85 213.5v45h167v-25q0 -77 28 -117t102 -40q70 0 98 40.5t28 116.5v25h164v-45q0 -138 -84 -211.5t-206 -73.5z" />
    <glyph glyph-name="yaw" horiz-adv-x="1896" 
d="M1036 47q-121 -59 -280 -59q-127 0 -229 34.5t-168.5 91.5t-110.5 134.5t-63 159.5t-19 170q0 73 8.5 138.5t33 135.5t63 121.5t103 88t148.5 44.5q89 0 151 -35.5t89 -97.5q28 58 101.5 95.5t158.5 37.5q191 0 303.5 -119.5t112.5 -359.5q0 -314 -224 -465
q47 -17 152 -17q182 0 271 119t89 340q0 69 -13 128.5t-40.5 109.5t-76.5 79t-115 29h-6v140h6q112 0 194.5 -38.5t129.5 -109t69 -158.5t22 -198q0 -280 -142.5 -438t-428.5 -158q-208 0 -289 57zM653 629q0 163 -13 222q-27 109 -112 110q-58 0 -98.5 -37t-59.5 -97
t-26.5 -115.5t-7.5 -113.5q0 -212 103 -329t325 -117q51 0 98 8q-120 84 -164.5 196.5t-44.5 272.5zM1038 193q59 34 100.5 83.5t63 107.5t30.5 112t9 112q0 83 -10 145.5t-33.5 113t-66.5 76.5t-105 26q-192 0 -192 -361q0 -299 204 -415zM1860 1155q-126 0 -209.5 71.5
t-83.5 213.5v45h164v-25q0 -76 28 -116.5t101 -40.5q72 0 101.5 41t29.5 116v25h161v-45q0 -139 -83.5 -212t-208.5 -73z" />
    <glyph glyph-name="raw" horiz-adv-x="1275" 
d="M563 436q0 210 94 329.5t279 141.5q-105 51 -219 51q-371 0 -371 -409q0 -50 1 -83t4 -76t9 -72t17.5 -60t27.5 -51t40 -35t55 -20v-154q-173 12 -253.5 153t-80.5 404q0 140 41 247.5t114.5 174t172 100t217.5 33.5q263 0 414 -148.5t151 -408.5q0 -559 -365 -559
q-165 0 -256.5 107t-91.5 335zM1092 549q0 140 -41 229q-89 -4 -147.5 -26.5t-92 -67t-46.5 -103t-13 -145.5q0 -56 3 -95.5t13 -78t27.5 -61.5t47.5 -37t72 -14q35 0 63 12.5t46.5 31.5t31.5 52t20 63t10.5 76t4.5 79.5t1 84.5zM1239 1155q-125 0 -208 71.5t-83 213.5v45
h162v-25q0 -76 28 -116.5t101 -40.5q72 0 101.5 41t29.5 116v25h162v-45q0 -139 -84 -212t-209 -73z" />
    <glyph glyph-name="Raw" horiz-adv-x="1157" 
d="M659 954q-50 0 -91 -9t-71.5 -23.5t-54.5 -38t-39.5 -46.5t-26.5 -55.5t-16.5 -58t-9 -61t-4 -58t-0.5 -55.5q0 -45 1 -75.5t5 -76.5t12 -76.5t23.5 -65.5t37 -56t55 -35t75.5 -14h10v-152h-10q-197 0 -293 148t-96 403q0 141 36.5 249t103 174.5t155.5 100t198 33.5
q228 0 363 -139.5t135 -417.5q0 -254 -97 -402.5t-292 -148.5h-10v152h10q42 0 75.5 14t55 35t37 56t23.5 65.5t12 76.5t5 76.5t1 75.5q0 43 -1.5 72.5t-8 75.5t-18.5 78t-35.5 68t-56 58.5t-83.5 37.5t-115 15zM1116 1155q-58 0 -109 16.5t-92.5 50t-65.5 89.5t-24 129v45
h168v-25q0 -77 26.5 -117t96.5 -40q74 0 102.5 40.5t28.5 116.5v25h166v-45q0 -94 -42.5 -160t-108 -95.5t-146.5 -29.5z" />
    <glyph glyph-name="law" horiz-adv-x="1419" 
d="M342 752v-273h434v273q0 107 -63.5 159t-155.5 52q-96 0 -155.5 -51t-59.5 -160zM346 150h893v942h180v-1090h-1253v754q0 118 57 199t143.5 116t192.5 35q79 0 149 -20.5t127.5 -61.5t91.5 -110t34 -158v-420h-615v-186zM1382 1155q-60 0 -111.5 16.5t-93.5 50t-66 89.5
t-24 129v45h168v-25q0 -77 27 -117t100 -40q72 0 99.5 40.5t27.5 116.5v25h166v-45q0 -138 -85 -211.5t-208 -73.5z" />
    <glyph glyph-name="Law" horiz-adv-x="1304" 
d="M451 674q-39 0 -64.5 -27t-34 -60.5t-8.5 -72.5q0 -38 8.5 -70.5t34 -59t64.5 -26.5q127 0 127 156q0 160 -127 160zM705 1106q146 0 266.5 -36t198 -113t77.5 -183q0 -70 -37 -129t-116 -88h-2q107 -18 160 -85.5t53 -158.5q0 -140 -91.5 -220.5t-291.5 -80.5h-498
q-41 0 -60.5 -25t-19.5 -53q0 -29 19.5 -54.5t60.5 -26.5h829v-158h-809q-40 0 -76 5.5t-74 21.5t-65.5 40.5t-45 66.5t-17.5 97q0 52 17 94.5t45 69t64.5 44t73 25t74.5 7.5h467q120 0 163.5 38.5t43.5 117.5q0 81 -49.5 115t-157.5 34h-71v160h57q76 0 121 34.5t45 96.5
q0 67 -53.5 113.5t-131.5 66t-172 19.5q-95 0 -166.5 -17.5t-114 -48.5t-65.5 -68t-30 -82q55 64 159 64q121 0 196 -79.5t75 -227.5q0 -144 -85 -215.5t-218 -71.5q-77 0 -134 31t-89.5 87t-48 126.5t-15.5 156.5q0 244 132 367t407 123zM1268 1155q-127 0 -210 71.5
t-83 213.5v45h166v-25q0 -76 28.5 -116.5t98.5 -40.5q73 0 102 40.5t29 116.5v25h164v-45q0 -138 -85 -211.5t-210 -73.5z" />
    <glyph glyph-name="zhw" horiz-adv-x="1284" 
d="M774 303l-26 80q-129 0 -229.5 18.5t-182.5 61t-126 119t-44 184.5q0 65 19 124t56 108.5t101 78.5t147 29v-143q-42 -2 -71.5 -22t-44 -52.5t-20 -64t-5.5 -66.5q0 -48 15 -86.5t39.5 -61.5t55.5 -40.5t63.5 -24t63.5 -12t55.5 -4t39.5 0.5h10q-2 6 -12 31.5t-13.5 34
t-11.5 32.5t-11.5 36.5t-9 34.5t-8 39t-4.5 38.5t-2 42.5q0 59 18.5 109.5t55.5 91t100.5 63.5t147.5 23t151 -28.5t108 -76.5t63 -107.5t22 -125.5q0 -148 -91 -241t-263 -130l24 -57q13 -50 14 -99t-21.5 -94t-59 -79.5t-99 -55t-141.5 -20.5q-139 0 -221 59t-82 189v41
h166v-17q0 -62 27.5 -94.5t109.5 -32.5q46 0 76.5 10.5t44 26.5t17.5 39.5t0.5 44t-11.5 45.5zM817 737l68 -200q102 16 161.5 75t59.5 156q0 33 -8 64.5t-25.5 61.5t-51.5 48.5t-81 18.5q-190 0 -123 -224zM1247 1155q-125 0 -208 71.5t-83 213.5v45h164v-25
q0 -76 27.5 -116.5t99.5 -40.5q73 0 102 40.5t29 116.5v25h162v-45q0 -139 -84 -212t-209 -73z" />
    <glyph glyph-name="vaw" horiz-adv-x="1507" 
d="M965 150h362v942h180v-1090h-815v148h6q39 0 70 14.5t51 35.5t34 56.5t21.5 66t11.5 76.5t4.5 75.5t0.5 74.5q0 44 -1 73.5t-6.5 76t-16 78t-30.5 68t-48.5 58t-72 36.5t-98.5 15t-98 -15t-71.5 -37t-48.5 -58t-30 -68t-16 -77.5t-7 -75.5t-1 -74q0 -47 0.5 -75t4.5 -75
t11 -76.5t21.5 -66t34.5 -57t51.5 -35t71.5 -14.5h4v-152h-4q-97 0 -170 41t-117 116t-66 173.5t-22 220.5q0 269 124.5 413t327.5 144q201 0 328 -144.5t127 -412.5q0 -267 -108 -399zM1473 1155q-127 0 -210 71.5t-83 213.5v45h163v-25q0 -75 29 -116t101 -41
q73 0 101 40.5t28 116.5v25h163v-45q0 -139 -84 -212t-208 -73z" />
    <glyph glyph-name="Saw" horiz-adv-x="1880" 
d="M1696 549q0 134 -41 229q-89 -4 -148 -26.5t-92.5 -67t-47 -103t-13.5 -145.5q0 -56 3.5 -95.5t13.5 -78t28 -61.5t48 -37t73 -14q35 0 62.5 12.5t46 32t31.5 52t20 63t10.5 76t4.5 79.5t1 84zM600 158q121 0 172 59t51 184v273q0 93 27 167.5t73 124t110 82.5t134 47.5
t148 14.5q263 0 414 -148.5t151 -408.5q0 -266 -89 -412.5t-275 -146.5q-166 0 -257.5 107t-91.5 335q0 211 93 330t278 141q-102 51 -217 51q-315 0 -315 -301v-272q0 -100 -32 -177t-88 -124t-128 -70.5t-156 -23.5q-94 0 -171.5 32.5t-137.5 98t-93.5 175t-33.5 253.5
q0 255 132 405t364 150l2 -160q-77 0 -136 -25.5t-93.5 -64.5t-56 -92.5t-29 -102.5t-7.5 -102q0 -41 1.5 -71.5t7 -74.5t15.5 -76.5t29.5 -67.5t46 -57.5t67 -37t91.5 -14.5zM1843 1155q-127 0 -212 71.5t-85 213.5v45h168v-25q0 -76 28 -116.5t101 -40.5q71 0 100 41
t29 116v25h164v-45q0 -139 -84.5 -212t-208.5 -73z" />
    <glyph glyph-name="shw" horiz-adv-x="2113" 
d="M860 150h584v231h-35q-111 0 -192 20.5t-127 53t-73.5 83t-35.5 98.5t-8 112q0 180 90.5 269t241.5 89q154 0 237.5 -89.5t83.5 -271.5v-219q30 2 74.5 23.5t91 55.5t86 86t55.5 108v297h181v-1094h-1483v148h16q37 0 60.5 18t33 51t12.5 58t3 59q0 38 -3.5 65
t-15.5 55.5t-33.5 46t-59 29t-89.5 11.5q-116 0 -161.5 -52.5t-45.5 -140.5q0 -24 0.5 -37.5t3 -41.5t9 -45.5t17 -37t29 -29t42.5 -9.5h16v-148h-33q-65 0 -114.5 24t-77.5 60t-45.5 85.5t-23 91.5t-5.5 87q0 153 100.5 250.5t288.5 97.5q184 0 284.5 -97.5t100.5 -250.5
q0 -128 -80 -200zM1933 150v403q-77 -84 -160 -124t-147 -42v-237h307zM1413 522h31v226q0 41 -7.5 77.5t-23.5 69.5t-47 52.5t-74 19.5q-143 0 -143 -219q0 -33 1 -53t6.5 -46.5t16 -43t30 -34t47 -27t69 -16t94.5 -6.5zM2077 1155q-125 0 -208 71.5t-83 213.5v45h162v-25
q0 -76 28.5 -116.5t100.5 -40.5q73 0 102 40.5t29 116.5v25h162v-45q0 -139 -84 -212t-209 -73z" />
    <glyph glyph-name="saw" 
d="M1880 -8q-63 0 -120 13.5t-110 46t-92 80.5t-62 122t-23 166v229q0 303 -240 303q-110 0 -167.5 -70t-57.5 -225v-655h-183v655q0 295 -235 295q-50 0 -89 -16t-64.5 -39t-43.5 -60.5t-27 -69t-13.5 -76.5t-5.5 -71.5t-1 -64.5q0 -50 0.5 -79t5.5 -77.5t13.5 -78
t26 -65.5t42 -56.5t63 -34.5t87.5 -14h22v-152h-22q-108 0 -188.5 39t-130.5 113t-74.5 175t-24.5 230q0 139 35 247t94.5 173t134.5 98t160 33q99 0 186 -46.5t137 -141.5q53 96 137 142t183 46q63 0 121 -14t113 -47.5t95 -84.5t64.5 -131t24.5 -180v-200q0 -42 1 -69.5
t6.5 -62t14.5 -56.5t26 -45t41 -36t59 -21.5t81 -8.5q49 0 88 16t63 38t41.5 61t25.5 68.5t12.5 78t5 71.5t0.5 66v4q0 35 -0.5 54.5t-3 57t-8 60.5t-16 56.5t-25.5 55t-39 45.5t-54 38t-72 23t-92 9v150q107 -2 190 -28t139 -72.5t92.5 -115.5t52.5 -151.5t16 -185.5
q0 -124 -22.5 -221t-60.5 -159.5t-92 -103t-113 -57t-128 -16.5zM2259 1155q-60 0 -111.5 16.5t-93.5 50t-66 89.5t-24 129v45h168v-25q0 -77 27 -117t100 -40q72 0 100.5 40.5t28.5 116.5v25h164v-45q0 -139 -84 -212t-209 -73z" />
    <glyph glyph-name="haw" horiz-adv-x="2131" 
d="M1655 1106q103 0 188 -33.5t150.5 -100t102 -174.5t36.5 -249q0 -255 -96.5 -403t-292.5 -148h-12v152h12q42 0 75 14t54 35t36.5 56t23.5 65.5t12 76.5t5 76.5t1 75.5q0 43 -1 72.5t-7.5 75.5t-17.5 78t-32.5 68t-52 58.5t-78 37.5t-106.5 15q-60 0 -107.5 -15
t-78.5 -37.5t-53 -58.5t-33.5 -68.5t-17.5 -78t-7.5 -75.5t-1.5 -72q0 -53 1.5 -89t7.5 -88t20 -86.5t36 -68t59 -50.5t85 -17h12v-148h-946v148h16q30 0 52 13.5t33 31.5t17.5 46.5t7.5 48.5t1 46q0 38 -3.5 65t-15.5 55.5t-33.5 46t-59.5 29t-91 11.5q-116 0 -160.5 -52.5
t-44.5 -140.5q0 -23 0.5 -36.5t3 -41.5t9 -45.5t17 -37t29 -29.5t42.5 -10h16v-148h-35q-65 0 -114.5 24t-77.5 60t-45.5 85.5t-23 91.5t-5.5 87q0 153 101 250.5t288 97.5q185 0 285 -97.5t100 -250.5q0 -125 -78 -200h408q-92 140 -92 399q0 141 36.5 249t102 174.5
t150.5 100t188 33.5zM2095 1155q-127 0 -210 71.5t-83 213.5v45h166v-25q0 -76 27.5 -116.5t99.5 -40.5q73 0 102 40.5t29 116.5v25h162v-45q0 -139 -84.5 -212t-208.5 -73z" />
    <glyph glyph-name="ndw" horiz-adv-x="1613" 
d="M1169 954q-49 0 -87 -8t-63 -20t-42.5 -32.5t-27 -38.5t-14.5 -46t-6 -47.5t-1 -48.5v-711h-162v711q0 120 -59.5 179.5t-151.5 59.5q-45 0 -81 -15.5t-59 -39t-39.5 -60.5t-25 -69.5t-13.5 -76.5t-6 -71.5t-1 -64.5q0 -48 1 -79t5.5 -78t12.5 -77.5t24.5 -65.5t39 -55
t57.5 -34t79 -14h18v-154h-18q-100 0 -174 39t-119.5 113t-67.5 175t-22 230q0 139 32 247t87.5 173t123.5 98t146 33q89 0 166.5 -39t124.5 -117q50 77 132 116.5t185 39.5q162 0 277.5 -86.5t115.5 -233.5q0 -71 -35.5 -135.5t-107.5 -93.5q98 -18 149.5 -86t51.5 -158
q0 -140 -89.5 -225.5t-275.5 -85.5h-147v160h135q117 0 161 41.5t44 120.5q0 81 -49 114t-156 33h-135v160h123q86 0 126 33.5t40 113.5q0 88 -58 132t-164 44zM1577 1155q-127 0 -212 71.5t-85 213.5v45h168v-25q0 -76 28 -116.5t101 -40.5q70 0 98.5 40.5t28.5 116.5v25
h166v-45q0 -138 -85.5 -211.5t-207.5 -73.5z" />
    <glyph glyph-name="ntw" horiz-adv-x="2365" 
d="M1305 1104q141 0 274 -68q96 70 252 70q254 0 394 -143.5t140 -421.5q0 -74 -5.5 -136.5t-19.5 -126.5t-39.5 -112.5t-62 -87.5t-91.5 -59.5t-124 -20.5v160q51 2 85.5 33.5t51.5 88t24 118t7 143.5q0 218 -89 320t-265 102q-3 0 -98 -7q209 -176 209 -487
q0 -479 -371 -479q-182 0 -278.5 118t-96.5 361q0 314 205 481q-45 11 -107 11q-56 0 -107 -18.5t-93 -54t-67 -95.5t-25 -136v-655h-181v655q0 295 -231 295q-50 0 -89.5 -15.5t-65 -39t-44.5 -60t-28.5 -69.5t-15 -76.5t-6.5 -72t-1 -64.5q0 -49 1 -79t5.5 -77.5
t13.5 -77.5t26.5 -65.5t42.5 -55.5t63.5 -34t87.5 -14h22v-154h-22q-212 0 -316 147t-104 410q0 139 35.5 247t96.5 173t136.5 98t161.5 33q93 0 180.5 -47t138.5 -141q68 88 173.5 137t216.5 49zM1577 147q52 0 88 19t56 47t30.5 76t13 89.5t2.5 104.5q0 305 -190 428
q-191 -120 -191 -428q0 -44 1 -75t5.5 -69t12.5 -63.5t22 -51.5t34 -42t49.5 -25.5t66.5 -9.5zM2329 1155q-59 0 -110.5 16.5t-93 50t-65.5 89.5t-24 129v45h168v-25q0 -76 27.5 -116.5t97.5 -40.5q73 0 102 40.5t29 116.5v25h166v-45q0 -94 -42.5 -160t-108 -95.5
t-146.5 -29.5z" />
    <glyph glyph-name="bullet1" horiz-adv-x="1265" 
d="M162 555q0 149 73.5 275t200 199t275.5 73q113 0 216 -43t177 -116.5t118 -174.5t44 -213q0 -113 -44 -216t-118 -177t-177 -118t-216 -44q-112 0 -213.5 44t-175 118t-117 177t-43.5 216z" />
    <glyph glyph-name="bullet2" horiz-adv-x="1267" 
d="M162 0v1106h1106v-1106h-1106z" />
    <glyph glyph-name="bullet3" horiz-adv-x="954" 
d="M952 162h-788l-2 790h792z" />
    <glyph glyph-name="bullet4" horiz-adv-x="954" 
d="M162 557q0 164 116 280.5t279 116.5q164 0 280.5 -116.5t116.5 -280.5q0 -163 -116.5 -279t-280.5 -116q-163 0 -279 116t-116 279z" />
    <glyph glyph-name="bullet5" horiz-adv-x="1275" 
d="M715 -2l-553 557l553 555l561 -555z" />
    <glyph glyph-name="triangle45left" horiz-adv-x="714" 
d="M715 -2l-553 557l553 555v-1112z" />
    <glyph glyph-name="triangle45right" horiz-adv-x="714" 
d="M715 555l-553 -557v1112z" />
    <glyph glyph-name="triangle45down" horiz-adv-x="1275" 
d="M715 322l-553 555h1114z" />
    <glyph glyph-name="triangle45up" horiz-adv-x="1275" 
d="M162 322l553 555l561 -555h-1114z" />
    <glyph glyph-name="barb1left" horiz-adv-x="1468" 
d="M684 0l-553 557l553 551h156l-496 -498h995v-112h-995l496 -498h-156z" />
    <glyph glyph-name="barb1right" horiz-adv-x="1468" 
d="M1337 557l-553 -557h-155l495 498h-995v112h995l-495 498h155z" />
    <glyph glyph-name="barb1up" horiz-adv-x="1370" 
d="M131 557l553 551l555 -551v-158l-498 496v-993h-112v993l-498 -496v158z" />
    <glyph glyph-name="barb1down" horiz-adv-x="1370" 
d="M1239 557l-555 -557l-553 557v152l498 -496v999h112v-999l498 496v-152z" />
    <glyph glyph-name="barb1nw" horiz-adv-x="1155" 
d="M131 219v787h782l113 -117h-707l707 -705l-76 -75l-710 706v-706z" />
    <glyph glyph-name="barb1ne" horiz-adv-x="1155" 
d="M1024 1006v-787l-109 -110v706l-710 -706l-76 75l707 705h-707l113 117h782z" />
    <glyph glyph-name="barb1sw" horiz-adv-x="1155" 
d="M913 109h-782v780l109 117v-711l710 711l76 -84l-707 -703h707z" />
    <glyph glyph-name="barb1se" horiz-adv-x="1155" 
d="M1026 109h-782l-113 110h707l-707 703l76 84l711 -711v711l108 -117v-780z" />
    <glyph glyph-name="barb3left" horiz-adv-x="1572" 
d="M684 0l-553 557l553 551h315l-442 -442h887v-224h-887l442 -442h-315z" />
    <glyph glyph-name="barb3right" horiz-adv-x="1572" 
d="M1444 557l-553 -557h-316l443 442h-887v224h887l-443 442h316z" />
    <glyph glyph-name="barb3up" horiz-adv-x="1370" 
d="M131 557l553 551l555 -551v-317l-442 444v-889h-224v889l-442 -444v317z" />
    <glyph glyph-name="barb3down" horiz-adv-x="1370" 
d="M1239 557l-555 -557l-553 557v311l442 -442v887h224v-887l442 442v-311z" />
    <glyph glyph-name="barb3nw" horiz-adv-x="1265" 
d="M131 272v785h782l222 -221h-627l627 -627l-156 -160l-627 629v-629z" />
    <glyph glyph-name="barb3ne" horiz-adv-x="1265" 
d="M1135 1057v-785l-222 -223v629l-626 -629l-156 160l627 627h-627l221 221h783z" />
    <glyph glyph-name="barb3sw" horiz-adv-x="1265" 
d="M913 49h-782v787l221 221v-627l627 627l156 -156l-627 -629h627z" />
    <glyph glyph-name="barb3se" horiz-adv-x="1265" 
d="M1135 49h-783l-221 223h627l-627 629l156 156l626 -627v627l222 -221v-787z" />
  </font>
</defs>
</svg>
