<?xml version="1.0" standalone="no"?>
<!DOCTYPE svg PUBLIC "-//W3C//DTD SVG 1.1//EN" "http://www.w3.org/Graphics/SVG/1.1/DTD/svg11.dtd" >
<svg xmlns="http://www.w3.org/2000/svg" xmlns:xlink="http://www.w3.org/1999/xlink" version="1.1">
<metadata>
Created by FontForge 20170731 at Fri Jul 17 15:49:41 2015
 By Aleksey,,,
Copyright (c) 2015 by Kostas Bartsokas. All rights reserved.
</metadata>
<defs>
<font id="Averta-ExtraBold" horiz-adv-x="1200" >
  <font-face 
    font-family="Averta-ExtraBold"
    font-weight="400"
    font-stretch="normal"
    units-per-em="2048"
    panose-1="0 0 9 0 0 0 0 0 0 0"
    ascent="1602"
    descent="-446"
    x-height="1002"
    cap-height="1455"
    bbox="-551 -529 2946 2036"
    underline-thickness="123"
    underline-position="-317"
    unicode-range="U+0020-2E18"
  />
<missing-glyph horiz-adv-x="894" 
 />
    <glyph glyph-name=".notdef" horiz-adv-x="894" 
 />
    <glyph glyph-name=".null" horiz-adv-x="0" 
 />
    <glyph glyph-name="nonmarkingreturn" horiz-adv-x="682" 
 />
    <glyph glyph-name="space" unicode=" " horiz-adv-x="500" 
 />
    <glyph glyph-name="exclam" unicode="!" horiz-adv-x="594" 
d="M182 502l-55 1006h344l-55 -1006h-234zM294 -20q-79 0 -135 55t-56 133q0 76 56 131t135 55q77 0 133 -55t56 -131q0 -78 -55.5 -133t-133.5 -55z" />
    <glyph glyph-name="quotedbl" unicode="&#x22;" horiz-adv-x="907" 
d="M53 901l61 554h321l-141 -554h-241zM484 901l60 554h323l-141 -554h-242z" />
    <glyph glyph-name="numbersign" unicode="#" horiz-adv-x="1307" 
d="M197 -99l58 368h-204v234h240l41 262h-228v233h264l53 345h215l-54 -345h254l54 345h214l-53 -345h210l-1 -233h-246l-40 -262h233l-2 -234h-267l-57 -368h-214l56 368h-253l-58 -368h-215zM505 503h255l40 262h-253z" />
    <glyph glyph-name="dollar" unicode="$" horiz-adv-x="1151" 
d="M1093 413q0 -167 -100 -276t-274 -139v-218h-252v218q-231 39 -406 211l195 239q81 -76 174.5 -114t175.5 -38q58 0 91.5 25t33.5 66q0 46 -40.5 77t-154.5 65q-57 17 -99 31.5t-91 36t-83.5 43.5t-68.5 53.5t-54.5 67.5t-33 83.5t-12.5 103.5q0 163 99 274t274 138v235
h252v-246q97 -23 189 -67t161 -102l-189 -238q-161 111 -301 111q-63 0 -94.5 -21.5t-31.5 -60.5q0 -25 16 -45t55.5 -40t106.5 -40q69 -21 116 -36.5t99.5 -38t86.5 -45.5t67 -54.5t51.5 -68t30 -84.5t11.5 -106z" />
    <glyph glyph-name="percent" unicode="%" horiz-adv-x="2081" 
d="M836 -55l-234 102l649 1442l233 -102zM474 652q-114 0 -208.5 51t-150.5 146t-56 215q0 112 51.5 205t147 148t216.5 55q115 0 209.5 -50t151 -144t56.5 -214q0 -113 -51.5 -206.5t-147.5 -149.5t-218 -56zM477 872q50 0 89.5 25.5t60.5 68.5t21 95q0 83 -49 135.5
t-122 52.5q-75 0 -122.5 -54.5t-47.5 -133.5q0 -55 23 -98.5t61.5 -67t85.5 -23.5zM1607 -20q-114 0 -208.5 51t-150.5 146t-56 215q0 112 51 205t146.5 148.5t217.5 55.5q114 0 208.5 -50.5t151 -144.5t56.5 -214q0 -113 -51 -206.5t-147 -149.5t-218 -56zM1609 200
q75 0 123 55t48 135q0 82 -49.5 134.5t-121.5 52.5q-75 0 -123 -54t-48 -133q0 -84 49.5 -137t121.5 -53z" />
    <glyph glyph-name="ampersand" unicode="&#x26;" horiz-adv-x="1349" 
d="M966 0l-64 85h-3q-138 -105 -355 -105q-135 0 -245 56.5t-175 161t-65 237.5q0 266 258 425l-150 199q20 183 149 299.5t316 116.5q330 0 481 -314l-261 -96q-15 28 -30 49.5t-37.5 42.5t-53 33t-67.5 12t-66 -11.5t-46.5 -31t-27.5 -38.5t-15 -39l409 -545h3
q32 88 32 172l296 7q0 -115 -30.5 -232t-96.5 -216v-3l199 -265h-355zM376 455q0 -85 56.5 -135.5t145.5 -50.5q83 0 154 38v3l-247 327q-109 -64 -109 -182z" />
    <glyph glyph-name="quotesingle" unicode="'" horiz-adv-x="475" 
d="M53 901l61 554h321l-141 -554h-241z" />
    <glyph glyph-name="parenleft" unicode="(" horiz-adv-x="633" 
d="M342 -331q-125 186 -190.5 425t-65.5 509t66 511t192 424l232 -104q-99 -180 -151.5 -393.5t-52.5 -437.5q0 -450 203 -831z" />
    <glyph glyph-name="parenright" unicode=")" horiz-adv-x="633" 
d="M317 -331l-233 103q203 381 203 831q0 224 -52.5 437.5t-151.5 393.5l232 104q83 -122 141 -271.5t87.5 -317t29.5 -346.5q0 -270 -65.5 -509t-190.5 -425z" />
    <glyph glyph-name="asterisk" unicode="*" horiz-adv-x="793" 
d="M303 775l9 194l-161 -103l-96 162l170 85l-170 90l96 163l161 -105l-9 194h186l-10 -194l163 102l95 -160l-172 -88l171 -87l-94 -164l-159 105l6 -194h-186z" />
    <glyph glyph-name="plus" unicode="+" horiz-adv-x="1159" 
d="M440 81v350h-350v273h350v353h277v-353h351v-273h-351v-350h-277z" />
    <glyph glyph-name="comma" unicode="," horiz-adv-x="498" 
d="M33 -274l61 553h321l-152 -553h-230z" />
    <glyph glyph-name="hyphen" unicode="-" horiz-adv-x="779" 
d="M76 486v295h627v-295h-627z" />
    <glyph glyph-name="period" unicode="." horiz-adv-x="551" 
d="M276 -20q-79 0 -135 55t-56 133q0 76 56 131t135 55q77 0 133 -55t56 -131q0 -78 -55.5 -133t-133.5 -55z" />
    <glyph glyph-name="slash" unicode="/" horiz-adv-x="900" 
d="M181 -227l-233 106l780 1749l230 -106z" />
    <glyph glyph-name="zero" unicode="0" horiz-adv-x="1265" 
d="M632 -20q-125 0 -228.5 50t-176.5 142t-113 228t-40 304q0 217 67.5 380t194 252t296.5 89q125 0 229 -49.5t177 -141.5t113.5 -227.5t40.5 -302.5q0 -218 -67.5 -382t-194.5 -253t-298 -89zM633 289q102 0 160.5 105t58.5 310q0 191 -56 302t-163 111
q-101 0 -159.5 -105t-58.5 -308q0 -190 56.5 -302.5t161.5 -112.5z" />
    <glyph glyph-name="one" unicode="1" horiz-adv-x="850" 
d="M378 0v1008l-214 -160l-158 247l441 311h266v-1406h-335z" />
    <glyph glyph-name="two" unicode="2" horiz-adv-x="1063" 
d="M534 300h462v-300h-935l-4 215l416 448q90 96 132 165.5t42 139.5q0 66 -41.5 109t-106.5 43q-127 0 -216 -131l-236 170q33 57 77 103.5t102.5 84t135.5 58t165 20.5q51 0 100.5 -9.5t94.5 -28t84.5 -45t72 -62t55.5 -77t35.5 -92t12.5 -105.5q0 -85 -18 -152.5
t-68.5 -147t-142.5 -175.5l-219 -228v-3z" />
    <glyph glyph-name="three" unicode="3" horiz-adv-x="1079" 
d="M797 726q102 -49 159.5 -135.5t57.5 -205.5q0 -122 -63 -214.5t-173 -141.5t-249 -49q-187 0 -325 90.5t-191 232.5l288 118q49 -145 204 -145q69 0 118 41t49 113q0 68 -50.5 112.5t-143.5 44.5h-92v264h116q72 0 109 38t37 99q0 62 -42 101t-105 39q-61 0 -101.5 -27
t-67.5 -80l-264 141q46 116 166 189.5t275 73.5q96 0 180 -25.5t146.5 -72.5t98.5 -120t36 -162q0 -100 -45.5 -181t-127.5 -134v-4z" />
    <glyph glyph-name="four" unicode="4" horiz-adv-x="1146" 
d="M594 0v221h-567v203l628 982h263v-906h182v-279h-182v-221h-324zM378 481h242v402z" />
    <glyph glyph-name="five" unicode="5" horiz-adv-x="1090" 
d="M593 913q87 0 165 -32t136.5 -90t92.5 -144t34 -187q0 -139 -67 -249t-183 -170.5t-259 -60.5q-148 0 -275 53.5t-221 162.5l236 193q93 -109 229 -109q90 0 147.5 53.5t57.5 132.5q0 59 -30.5 102.5t-74.5 62.5t-94 19q-52 0 -97.5 -15.5t-95.5 -53.5l-173 66l45 759
h780v-299h-498l-13 -219q91 25 158 25z" />
    <glyph glyph-name="six" unicode="6" horiz-adv-x="1164" 
d="M674 906q84 0 160 -30t135 -85.5t93.5 -143t34.5 -194.5q0 -140 -67 -248t-184 -166t-265 -58q-110 0 -204 41.5t-161 115.5t-105 181.5t-38 234.5q0 129 33 250t97 227t154.5 191.5t211 146t260.5 87.5l91 -259q-185 -53 -300 -134t-172 -200l7 -6q104 49 219 49z
M592 272q82 0 135 55t53 136q0 54 -23.5 95.5t-68 65t-103.5 23.5q-54 0 -108 -28t-93 -76v-18q0 -115 58.5 -184t149.5 -69z" />
    <glyph glyph-name="seven" unicode="7" horiz-adv-x="961" 
d="M28 1406h878v-213l-455 -1226l-330 58l423 1083h-516v298z" />
    <glyph glyph-name="eight" unicode="8" horiz-adv-x="1141" 
d="M849 761q107 -44 173.5 -139t66.5 -233q0 -124 -70 -217.5t-187 -142t-263 -48.5t-262.5 49t-184.5 143t-68 216q0 70 18.5 131t52 107t75.5 79t92 54v3q-67 31 -115.5 112t-48.5 178q0 90 34 161.5t94 117t139.5 69.5t173.5 24q128 0 227 -42t158 -127t59 -203
q0 -64 -24 -125t-61 -102.5t-79 -61.5v-3zM569 1157q-59 0 -99 -39.5t-40 -94.5q0 -58 39.5 -95.5t99.5 -37.5q61 0 100.5 37.5t39.5 95.5q0 57 -40 95.5t-100 38.5zM569 259q79 0 130.5 52t51.5 124q0 75 -51 124t-131 49q-79 0 -130 -49.5t-51 -123.5t52.5 -125t128.5 -51
z" />
    <glyph glyph-name="nine" unicode="9" horiz-adv-x="1161" 
d="M568 1425q153 0 271 -72t182.5 -203t64.5 -301q0 -162 -53 -311.5t-150 -268.5t-241 -204t-319 -118l-91 259q191 54 308 137.5t173 208.5q-107 -56 -233 -56q-84 0 -159.5 30t-134 86t-93 143t-34.5 194q0 140 68 249.5t183.5 168t257.5 58.5zM377 941q0 -54 23.5 -94
t64.5 -60.5t95 -20.5q59 0 115 27.5t97 73.5v10q0 115 -57.5 185t-142.5 70t-140 -53.5t-55 -137.5z" />
    <glyph glyph-name="colon" unicode=":" horiz-adv-x="556" 
d="M274 646q-79 0 -135 55t-56 133q0 76 56 131t135 55q51 0 94.5 -25.5t69 -68t25.5 -92.5q0 -51 -25.5 -94.5t-69 -68.5t-94.5 -25zM274 -20q-79 0 -135 55t-56 133q0 76 56 131t135 55q77 0 133 -55t56 -131q0 -78 -55.5 -133t-133.5 -55z" />
    <glyph glyph-name="semicolon" unicode=";" horiz-adv-x="514" 
d="M245 647q-31 0 -60.5 9.5t-53 27t-41 40.5t-27 51.5t-9.5 59.5q0 76 56 131t135 55q77 0 133 -55t56 -131q0 -78 -55.5 -133t-133.5 -55zM33 -274l61 553h321l-152 -553h-230z" />
    <glyph glyph-name="less" unicode="&#x3c;" horiz-adv-x="1167" 
d="M1084 37l-966 405v225l966 415v-302l-564 -222l564 -227v-294z" />
    <glyph glyph-name="equal" unicode="=" horiz-adv-x="1190" 
d="M117 667v273h978v-273h-978zM117 195v273h978v-273h-978z" />
    <glyph glyph-name="greater" unicode="&#x3e;" horiz-adv-x="1168" 
d="M109 37v294l564 227l-564 222v302l966 -415v-225z" />
    <glyph glyph-name="question" unicode="?" horiz-adv-x="947" 
d="M255 497l-2 98q0 19 2.5 38t6.5 35t12 33t14.5 30t19 30t20.5 27t23 27t23.5 25.5t24.5 25.5t24 25q24 26 36.5 39.5t32 38.5t29 43.5t17.5 42.5t8 47q0 60 -34 93t-96 33q-35 0 -69 -12t-62.5 -33t-52.5 -50l-225 206q71 86 187.5 137.5t246.5 51.5q72 0 137 -15
t122.5 -47.5t99.5 -79.5t66 -115t24 -151q0 -57 -14.5 -108t-42.5 -94.5t-56.5 -75.5t-67.5 -69q-13 -12 -45.5 -41t-45.5 -42t-33 -35t-28.5 -40.5t-10.5 -37.5l-8 -80h-283zM399 -20q-79 0 -135 55t-56 133q0 76 56 131t135 55q77 0 133 -55t56 -131q0 -78 -56 -133
t-133 -55z" />
    <glyph glyph-name="at" unicode="@" horiz-adv-x="1809" 
d="M1363 956l-56 -547q-3 -26 -3 -44q0 -44 14.5 -63t48.5 -19q42 0 78 33.5t57 84t32.5 102t11.5 93.5q0 117 -38.5 220t-109 181.5t-180.5 124.5t-244 46q-106 0 -199.5 -22.5t-163.5 -61.5t-127.5 -93t-96 -114t-65 -127t-38 -131t-11.5 -126q0 -128 45.5 -242
t122.5 -195t182 -128t219 -47q205 0 411 114l93 -146q-233 -159 -504 -159q-163 0 -306 60.5t-245 166t-161 255.5t-59 322q0 77 15 157t48.5 165t82.5 163t123 147.5t164 120t211 80.5t259 30q142 0 265.5 -38t215 -107t157.5 -163.5t99 -209.5t33 -242q0 -44 -5.5 -88.5
t-20.5 -96.5t-38 -98t-61 -89.5t-86 -75t-116 -50.5t-149 -19q-114 0 -189 46q-42 30 -62 89h-6q-38 -50 -102.5 -82t-128.5 -32q-151 0 -241.5 106.5t-90.5 280.5q0 32 4.5 68.5t14.5 77.5t26 81t37.5 78.5t51.5 71t65 57t80.5 38.5t96.5 14q136 0 214 -108h5l11 90h309z
M873 366q64 0 114.5 56t50.5 140q0 66 -35 106t-85 40q-41 0 -79 -24.5t-63 -70t-25 -101.5q0 -44 17 -77.5t44.5 -51t60.5 -17.5z" />
    <glyph glyph-name="A" unicode="A" horiz-adv-x="1415" 
d="M1048 0l-85 260h-511l-84 -260h-358l533 1455h328l535 -1455h-358zM546 550h323l-160 491h-4z" />
    <glyph glyph-name="B" unicode="B" horiz-adv-x="1289" 
d="M944 774q144 -39 215 -134t71 -234q0 -89 -29 -162.5t-86 -128t-146.5 -85t-203.5 -30.5h-638v1455h549q120 0 211 -24t150 -70t88.5 -111.5t29.5 -150.5q0 -48 -11 -93t-35 -88.5t-66 -80t-99 -59.5v-4zM463 1153v-278h161q81 0 133 36t52 103q0 65 -48.5 102.5
t-147.5 36.5h-150zM660 299q48 0 87 10t67.5 28.5t44 47.5t15.5 67q0 70 -54 112t-160 42h-197v-307h197z" />
    <glyph glyph-name="C" unicode="C" horiz-adv-x="1451" 
d="M823 -18q-121 0 -232 30.5t-205 92t-163.5 149t-109 208t-39.5 261.5q0 125 31.5 238t94.5 206.5t152 162.5t209.5 107t261.5 38q103 0 204 -28.5t202.5 -93t179.5 -159.5l-251 -214q-60 71 -147.5 119.5t-187.5 48.5q-53 0 -103 -13t-93 -37.5t-79 -61.5t-61.5 -83.5
t-39.5 -105t-14 -124.5q0 -115 47.5 -209t137.5 -149.5t205 -55.5q96 0 185.5 45.5t149.5 120.5l251 -215q-100 -125 -251 -201.5t-335 -76.5z" />
    <glyph glyph-name="D" unicode="D" horiz-adv-x="1458" 
d="M127 0v1455h503q170 0 312 -54t239 -150t150.5 -231t53.5 -295t-51.5 -294t-146 -229.5t-236 -148.5t-315.5 -53h-509zM464 305h151q74 0 139 21t115 59.5t86 90t55 115.5t19 134q0 120 -50.5 217t-140.5 152t-200 55h-174v-844z" />
    <glyph glyph-name="E" unicode="E" horiz-adv-x="1190" 
d="M126 0v1455h950v-306h-614v-279h485v-301h-485v-264h657v-305h-993z" />
    <glyph glyph-name="F" unicode="F" horiz-adv-x="1168" 
d="M127 0v1455h984v-306h-647v-327h534v-304h-534v-518h-337z" />
    <glyph glyph-name="G" unicode="G" horiz-adv-x="1498" 
d="M823 -16q-126 0 -239 31t-206 93.5t-161 150.5t-105.5 207t-37.5 258q0 159 50.5 296t143 238t232.5 159t310 58q163 0 321.5 -67.5t266.5 -192.5l-242 -206q-148 144 -347 144q-77 0 -145.5 -29t-120 -83t-82 -136t-30.5 -181q0 -88 27 -166t76.5 -136t124 -92
t164.5 -34q130 0 249 65v165h-279v289h608v-654q-100 -79 -256.5 -128t-321.5 -49z" />
    <glyph glyph-name="H" unicode="H" horiz-adv-x="1457" 
d="M127 0v1455h345v-603h512v603h345v-1455h-345v547h-512v-547h-345z" />
    <glyph glyph-name="I" unicode="I" horiz-adv-x="618" 
d="M136 0v1455h346v-1455h-346z" />
    <glyph glyph-name="J" unicode="J" horiz-adv-x="1009" 
d="M428 -20q-117 0 -226.5 49.5t-180.5 142.5l197 241q22 -29 50.5 -52.5t64.5 -39t71 -15.5q147 0 147 212v937h343v-928q0 -101 -15 -182.5t-49.5 -150.5t-88 -115.5t-132.5 -72.5t-181 -26z" />
    <glyph glyph-name="K" unicode="K" horiz-adv-x="1347" 
d="M580 548h-6l-106 -128v-420h-341v1455h341v-558h4l421 558h433l-523 -631l543 -824h-422z" />
    <glyph glyph-name="L" unicode="L" horiz-adv-x="1124" 
d="M127 0v1455h344v-1150h610v-305h-954z" />
    <glyph glyph-name="M" unicode="M" horiz-adv-x="1751" 
d="M1279 1455h345v-1455h-340v802h-4l-295 -535h-219l-295 534h-4v-801h-340v1455h345l402 -771h6z" />
    <glyph glyph-name="N" unicode="N" horiz-adv-x="1504" 
d="M1035 1455h342v-1455h-353l-552 872h-4v-872h-341v1455h343l561 -894h4v894z" />
    <glyph glyph-name="O" unicode="O" horiz-adv-x="1642" 
d="M823 -20q-164 0 -304 55.5t-237.5 153.5t-152.5 237t-55 301t55 301t152.5 237.5t237.5 154t304 55.5q161 0 299.5 -54.5t236.5 -152t154 -237t56 -304.5q0 -164 -56 -303.5t-154 -237t-236.5 -152t-299.5 -54.5zM823 300q111 0 200.5 56t139 153.5t49.5 217.5t-49.5 218
t-139 154t-200.5 56q-113 0 -203 -57t-139.5 -154.5t-49.5 -216.5q0 -118 49.5 -215.5t139.5 -154.5t203 -57z" />
    <glyph glyph-name="P" unicode="P" horiz-adv-x="1246" 
d="M127 0v1455h553q131 0 231.5 -37.5t162.5 -105.5t93 -158.5t31 -200.5q0 -159 -68 -269t-189 -162.5t-287 -52.5h-190v-469h-337zM464 770h144q112 0 173.5 50.5t61.5 140.5q0 85 -59 138t-171 53h-149v-382z" />
    <glyph glyph-name="Q" unicode="Q" horiz-adv-x="1668" 
d="M1611 176l-176 -227l-173 158q-190 -127 -439 -127q-164 0 -304 55.5t-237.5 153.5t-152.5 237t-55 301t55 301t152.5 237.5t237.5 154t304 55.5q161 0 299.5 -54.5t236.5 -152t154 -237t56 -304.5q0 -235 -111 -415zM824 300q96 0 179 43l-113 104l174 213l119 -105
q30 79 30 172q0 117 -47.5 214t-137 155.5t-204.5 58.5q-110 0 -200 -55t-141 -153t-51 -220t51 -219.5t141 -152.5t200 -55z" />
    <glyph glyph-name="R" unicode="R" horiz-adv-x="1319" 
d="M1285 0h-403l-298 469h-120v-469h-337v1455h567q131 0 232 -37.5t163 -105.5t93.5 -158.5t31.5 -200.5q0 -162 -70 -272t-200 -164v-5zM464 1152v-383h158q110 0 173.5 51.5t63.5 140.5q0 85 -60.5 138t-170.5 53h-164z" />
    <glyph glyph-name="S" unicode="S" horiz-adv-x="1158" 
d="M572 -20q-145 0 -283.5 58t-253.5 174l202 250q79 -86 170.5 -130t172.5 -44q57 0 95 16.5t53.5 42.5t15.5 60q0 59 -45 93.5t-172 76.5q-53 18 -94.5 34.5t-89.5 41t-83.5 50t-70 61t-56 75.5t-35 92t-13.5 112q0 119 63.5 217.5t173 155t240.5 58.5q273 4 506 -190
l-195 -254q-174 140 -300 140q-61 0 -96.5 -30t-36.5 -83q-1 -48 43.5 -80.5t168.5 -80.5q184 -71 248 -107q134 -75 177 -188q25 -67 25 -154q0 -99 -33 -180t-86.5 -133t-124 -88t-142 -51t-144.5 -15z" />
    <glyph glyph-name="T" unicode="T" horiz-adv-x="1192" 
d="M425 0v1149h-384v306h1109v-306h-384v-1149h-341z" />
    <glyph glyph-name="U" unicode="U" horiz-adv-x="1426" 
d="M711 -20q-135 0 -245.5 41.5t-189.5 120t-122 197.5t-43 268v848h345v-826q0 -68 16.5 -127t47.5 -104t80 -71t111 -26q115 0 187.5 88t72.5 240v826h344v-848q0 -190 -69.5 -331t-206.5 -218.5t-328 -77.5z" />
    <glyph glyph-name="V" unicode="V" horiz-adv-x="1400" 
d="M1018 1455h369l-534 -1455h-300l-536 1455h371l312 -969h3z" />
    <glyph glyph-name="W" unicode="W" horiz-adv-x="2090" 
d="M1698 1455h365l-455 -1455h-313l-244 957h-3l-253 -957h-313l-455 1455h365l246 -893h3l225 893h361l222 -893h3z" />
    <glyph glyph-name="X" unicode="X" horiz-adv-x="1437" 
d="M1012 0l-289 468h-7l-290 -468h-399l466 732l-449 723h393l280 -457h5l281 457h390l-447 -723l465 -732h-399z" />
    <glyph glyph-name="Y" unicode="Y" horiz-adv-x="1292" 
d="M900 1455h396l-478 -822v-633h-347v633l-475 822h392l255 -482h6z" />
    <glyph glyph-name="Z" unicode="Z" horiz-adv-x="1248" 
d="M1166 1195l-648 -883v-7h648v-305h-1086v267l630 877v5h-608v306h1064v-260z" />
    <glyph glyph-name="bracketleft" unicode="[" horiz-adv-x="718" 
d="M115 -307v1813h530v-235h-258v-1342h258v-236h-530z" />
    <glyph glyph-name="backslash" unicode="\" horiz-adv-x="905" 
d="M745 -227l-777 1749l230 106l780 -1749z" />
    <glyph glyph-name="bracketright" unicode="]" horiz-adv-x="718" 
d="M629 -307h-530v236h258v1342h-258v235h530v-1813z" />
    <glyph glyph-name="asciicircum" unicode="^" horiz-adv-x="929" 
d="M80 1023l275 432h217l277 -432h-251l-134 238l-143 -238h-241z" />
    <glyph glyph-name="underscore" unicode="_" horiz-adv-x="1072" 
d="M-18 -267v212h1107v-212h-1107z" />
    <glyph glyph-name="grave" unicode="`" horiz-adv-x="1013" 
d="M444 1090l-253 308l328 -2l225 -306h-300z" />
    <glyph glyph-name="a" unicode="a" horiz-adv-x="1211" 
d="M791 1002h321v-1002h-304v108h-4q-97 -127 -278 -127q-102 0 -190 38t-150 105t-97 164t-35 212q0 113 35 210.5t96 165.5t145.5 106.5t180.5 38.5q169 0 276 -125h4v106zM592 263q90 0 151 65.5t61 170.5q0 68 -27.5 122.5t-76 85t-107.5 30.5q-93 0 -154 -66t-61 -172
q0 -105 60 -170.5t154 -65.5z" />
    <glyph glyph-name="b" unicode="b" horiz-adv-x="1228" 
d="M715 1021q96 0 180.5 -38.5t145.5 -106.5t96 -165.5t35 -210.5q0 -231 -132.5 -375t-339.5 -144q-186 0 -286 127h-5v-108h-304v1508h321v-612h5q110 125 284 125zM634 263q94 0 154 65.5t60 170.5q0 106 -61 172t-154 66q-96 0 -158 -67t-62 -171q0 -53 17 -97
t46.5 -74.5t70 -47.5t87.5 -17z" />
    <glyph glyph-name="c" unicode="c" horiz-adv-x="1059" 
d="M577 -20q-148 0 -266 65t-186 184t-68 271t68 271t190.5 184.5t277.5 65.5q127 0 243 -52t190 -148l-214 -183q-80 97 -207 97q-101 0 -163 -64.5t-62 -167.5q0 -52 16.5 -96t46.5 -75t72.5 -48.5t92.5 -17.5q123 0 204 91l219 -191q-69 -83 -186.5 -134.5t-267.5 -51.5z
" />
    <glyph glyph-name="d" unicode="d" horiz-adv-x="1227" 
d="M800 1508h321v-1508h-304v108h-4q-100 -127 -286 -127q-102 0 -190 38t-150 105t-97 164t-35 212q0 113 35 210.5t96 165.5t145.5 106.5t180.5 38.5q174 0 284 -125h4v612zM593 263q96 0 158.5 65t62.5 171q0 68 -28 122.5t-78.5 85t-113.5 30.5q-93 0 -154 -66t-61 -172
q0 -105 60 -170.5t154 -65.5z" />
    <glyph glyph-name="e" unicode="e" horiz-adv-x="1119" 
d="M1065 510q0 -36 -8 -95h-682q17 -82 82.5 -127.5t154.5 -45.5q139 0 243 121l170 -191q-68 -86 -183 -138.5t-264 -52.5q-110 0 -206.5 38t-165.5 105.5t-109 165t-40 211.5q0 112 38.5 209t105.5 165t161.5 107t203.5 39q144 0 258 -65t177.5 -182t63.5 -264zM569 765
q-74 0 -126 -41.5t-67 -117.5l375 2q-11 49 -35 84t-62 54t-85 19z" />
    <glyph glyph-name="f" unicode="f" horiz-adv-x="702" 
d="M141 0v741h-98v261h98v156q0 182 87.5 275.5t242.5 93.5q88 0 160 -25t110 -52l-59 -230q-70 35 -127 35q-93 0 -93 -109v-144h191v-261h-191v-741h-321z" />
    <glyph glyph-name="g" unicode="g" horiz-adv-x="1209" 
d="M789 1002h321v-870q0 -72 -8.5 -134t-27.5 -119t-48.5 -103t-73 -83.5t-98.5 -63t-126.5 -39.5t-157.5 -14q-124 0 -223 22.5t-190 73.5l72 259q149 -87 306 -87q125 0 193.5 54t68.5 136v95h-5q-103 -109 -276 -109q-133 0 -238.5 63t-164.5 175.5t-59 252.5
q0 146 58 262.5t159.5 182t227.5 65.5q173 0 285 -118h5v99zM591 305q92 0 152 60.5t60 155.5q0 94 -61 154t-151 60q-93 0 -153.5 -60t-60.5 -155q0 -96 61 -155.5t153 -59.5z" />
    <glyph glyph-name="h" unicode="h" horiz-adv-x="1193" 
d="M738 1021q82 0 145 -21.5t113 -68t76.5 -129.5t26.5 -198v-604h-320v526q0 117 -39 163t-127 46q-87 0 -137 -58t-50 -172h-1v-505h-320v1508h320v-622h4q58 67 138 101t171 34z" />
    <glyph glyph-name="i" unicode="i" horiz-adv-x="552" 
d="M276 1121q-85 0 -142.5 52.5t-57.5 134.5q0 54 27 96.5t72.5 66t100.5 23.5q85 0 142.5 -52.5t57.5 -133.5q0 -82 -57.5 -134.5t-142.5 -52.5zM116 0v1002h319v-1002h-319z" />
    <glyph glyph-name="j" unicode="j" horiz-adv-x="526" 
d="M262 1129q-85 0 -142.5 52.5t-57.5 134.5q0 81 57.5 133.5t142.5 52.5t142.5 -52.5t57.5 -133.5q0 -82 -57.5 -134.5t-142.5 -52.5zM109 -424q-126 0 -229 37l53 254q43 -19 86 -19q47 0 66 31.5t19 97.5v1025h320v-1052q0 -185 -81 -279.5t-234 -94.5z" />
    <glyph glyph-name="k" unicode="k" horiz-adv-x="1093" 
d="M536 367h-5l-106 -120v-247h-320v1508h320v-838h4l290 332h371l-344 -391l352 -611h-355z" />
    <glyph glyph-name="l" unicode="l" horiz-adv-x="552" 
d="M116 0v1508h319v-1508h-319z" />
    <glyph glyph-name="m" unicode="m" horiz-adv-x="1790" 
d="M1340 1021q81 0 144.5 -24.5t111.5 -75.5t73.5 -136t25.5 -201v-584h-319v509q0 226 -146 226q-73 0 -120 -60.5t-47 -172.5v-502h-319v509q0 226 -147 226q-77 0 -124.5 -60t-47.5 -173v-502h-320v1002h320v-113h5q56 64 129 98t151 34q199 0 287 -144h5
q124 144 338 144z" />
    <glyph glyph-name="n" unicode="n" horiz-adv-x="1183" 
d="M730 1021q82 0 145 -21.5t112.5 -69.5t75.5 -131t26 -198v-601h-320v522q0 81 -18.5 128.5t-52 66t-89.5 18.5q-55 0 -96 -25t-64.5 -78t-23.5 -129v-503h-320v1002h320v-121h2q59 68 137 104t166 36z" />
    <glyph glyph-name="o" unicode="o" horiz-adv-x="1195" 
d="M598 -20q-119 0 -220 38.5t-171.5 107t-110 165t-39.5 209.5t39.5 209.5t110 165t171.5 107.5t220 39q157 0 280 -65.5t191.5 -184.5t68.5 -271t-68.5 -270.5t-191.5 -184t-280 -65.5zM598 265q92 0 154.5 66.5t62.5 168.5q0 104 -61.5 169.5t-155.5 65.5q-96 0 -157 -66
t-61 -169q0 -101 62 -168t156 -67z" />
    <glyph glyph-name="p" unicode="p" horiz-adv-x="1228" 
d="M715 1021q96 0 180.5 -38.5t145.5 -106.5t96 -165.5t35 -210.5q0 -153 -60.5 -271.5t-168 -183t-243.5 -64.5q-169 0 -270 117h-5v-503h-320v1407h321v-108h4q109 127 285 127zM634 263q94 0 154 65.5t60 170.5q0 53 -16.5 97.5t-45 75.5t-68.5 48t-85 17q-96 0 -158 -67
t-62 -171q0 -106 62.5 -171t158.5 -65z" />
    <glyph glyph-name="q" unicode="q" horiz-adv-x="1225" 
d="M802 1002h321v-1407h-320v503h-4q-101 -117 -270 -117q-137 0 -244.5 64.5t-167.5 183t-60 271.5q0 113 35 210.5t96 165.5t145.5 106.5t180.5 38.5q176 0 285 -127h3v108zM595 263q63 0 113 29t79 83t29 124q0 68 -28 122.5t-78.5 85t-113.5 30.5q-93 0 -154 -66
t-61 -172q0 -105 60 -170.5t154 -65.5z" />
    <glyph glyph-name="r" unicode="r" horiz-adv-x="752" 
d="M719 1021q8 0 11 -1v-345q-29 2 -75 2q-74 0 -126.5 -29.5t-78 -80.5t-25.5 -117v-450h-320v1002h320v-134h4q38 50 84.5 84t98.5 51.5t107 17.5z" />
    <glyph glyph-name="s" unicode="s" horiz-adv-x="893" 
d="M440 -20q-242 0 -412 149l152 215q121 -114 263 -114q29 0 49 6.5t30.5 19t10.5 30.5q0 20 -32.5 38.5t-121.5 46.5q-38 12 -70 24.5t-65 30t-58.5 36.5t-48.5 44.5t-38.5 54.5t-24 65.5t-8.5 78.5q0 95 50 167.5t135 110.5t191 38q74 0 138 -14t122 -41.5t117 -71.5
l-152 -229q-51 51 -112 78t-114 27q-27 0 -49 -12t-22 -39q0 -19 30.5 -39t100.5 -45q38 -14 63.5 -23.5t56.5 -22.5t51.5 -23.5t44 -24.5t38.5 -27t31 -30.5t25 -35.5t17 -40.5t11.5 -48t3.5 -55.5q0 -71 -25 -129.5t-74 -102t-126.5 -68t-177.5 -24.5z" />
    <glyph glyph-name="t" unicode="t" horiz-adv-x="756" 
d="M432 -19q-134 0 -214 85t-80 249v426h-113v261h113v320l320 34v-354h243v-261h-243v-366q0 -54 16.5 -84t59.5 -30q50 0 99 25l79 -236q-61 -34 -122.5 -51.5t-157.5 -17.5z" />
    <glyph glyph-name="u" unicode="u" horiz-adv-x="1159" 
d="M739 1002h321v-1002h-321v113h-5q-110 -132 -283 -132q-361 0 -361 427v594h320v-515q0 -120 35.5 -170.5t117.5 -50.5q76 0 126 61.5t50 178.5v496z" />
    <glyph glyph-name="v" unicode="v" horiz-adv-x="1097" 
d="M745 1002h337l-387 -1002h-292l-389 1002h334l200 -618h4z" />
    <glyph glyph-name="w" unicode="w" horiz-adv-x="1559" 
d="M1222 1002h318l-339 -1002h-267l-155 558h-3l-152 -558h-267l-339 1002h319l164 -537h4l148 537h251l149 -538h4z" />
    <glyph glyph-name="x" unicode="x" horiz-adv-x="1068" 
d="M704 0l-168 248h-5l-170 -248h-343l336 517l-331 485h360l147 -247h5l150 247h358l-332 -486l339 -516h-346z" />
    <glyph glyph-name="y" unicode="y" horiz-adv-x="1090" 
d="M747 1002h328l-526 -1407h-317l173 473l-391 934h332l204 -543h5z" />
    <glyph glyph-name="z" unicode="z" horiz-adv-x="971" 
d="M918 790l-443 -528v-4h426v-258h-845v214l433 527v4h-395v257h824v-212z" />
    <glyph glyph-name="braceleft" unicode="{" horiz-adv-x="718" 
d="M506 828q0 -63 -12 -107.5t-35 -72.5t-60 -45v-4q31 -14 47.5 -25.5t32 -35.5t21.5 -64t6 -103v-331q0 -34 3.5 -56.5t14.5 -42t34 -28.5t58 -9h43v-207h-169q-106 0 -178 76t-72 199v349q0 24 -0.5 37t-4 33t-10 30.5t-19 24t-31 20.5t-46 12t-63.5 5v233q36 1 64 7
t46 14t30.5 22t19 25.5t10 30.5t4 30.5t0.5 31.5v353q0 117 69.5 196.5t180.5 79.5h169v-207h-43q-33 0 -56.5 -14t-34.5 -36t-15 -41.5t-4 -38.5v-341z" />
    <glyph glyph-name="bar" unicode="|" horiz-adv-x="648" 
d="M195 -235v1744h257v-1744h-257z" />
    <glyph glyph-name="braceright" unicode="}" horiz-adv-x="718" 
d="M504 877q0 -15 0.5 -24t2 -24t4.5 -24.5t9 -22.5t14.5 -21t22 -17t30.5 -14.5t40 -9.5t51 -4v-233q-36 0 -63.5 -5t-46 -12t-31 -20.5t-19 -24t-10 -30.5t-4 -33t-0.5 -37v-349q0 -81 -34 -144.5t-90.5 -97t-125.5 -33.5h-169v207h43q35 0 58 9t34 28.5t14.5 42t3.5 56.5
v331q0 63 6 103t21.5 64t32 35.5t47.5 25.5v4q-55 25 -81 78.5t-26 146.5v341q0 19 -4 38.5t-15 41.5t-34.5 36t-56.5 14h-43v207h169q111 0 180.5 -79.5t69.5 -196.5v-353z" />
    <glyph glyph-name="asciitilde" unicode="~" horiz-adv-x="1149" 
d="M300 381l-217 88q42 126 121 204.5t186 78.5q47 0 92 -10t61 -16.5t57 -24.5q60 -30 119 -30q78 0 132 87l215 -74q-39 -130 -117.5 -213.5t-182.5 -83.5q-42 0 -84 8.5t-64.5 16.5t-60.5 23q-79 35 -126 35q-78 0 -131 -89z" />
    <glyph glyph-name="exclamdown" unicode="&#xa1;" horiz-adv-x="594" 
d="M294 1019q78 0 133.5 -55t55.5 -133q0 -76 -56 -131t-133 -55q-52 0 -96 25.5t-69.5 68t-25.5 92.5q0 78 56 133t135 55zM182 497h234l55 -1006h-344z" />
    <glyph glyph-name="cent" unicode="&#xa2;" horiz-adv-x="1085" 
d="M1040 276q-34 -41 -80 -74.5t-108.5 -60t-132.5 -39.5v-185h-245v183q-185 34 -299.5 172.5t-114.5 337.5q0 198 113 335t301 175v173h245v-172q95 -19 177 -67t139 -122l-214 -183q-84 97 -209 97q-103 0 -166 -64.5t-63 -167.5q0 -68 29 -122t82 -84.5t120 -30.5
q125 0 207 92z" />
    <glyph glyph-name="sterling" unicode="&#xa3;" horiz-adv-x="1142" 
d="M75 0v304h122v314h-104v229h104v72q0 78 12.5 144.5t34.5 117.5t53.5 92t69 68.5t82.5 46t92 27t98 8.5q120 0 233.5 -52.5t188.5 -146.5l-166 -215q-46 51 -102.5 80.5t-105.5 29.5q-20 0 -37 -3.5t-34.5 -11.5t-31 -24t-24.5 -39.5t-16.5 -59t-5.5 -81.5v-53h298v-229
h-294v-314h556v-304h-1023z" />
    <glyph glyph-name="currency" unicode="&#xa4;" horiz-adv-x="1033" 
d="M891 795q0 -99 -49 -184l165 -167l-142 -143l-166 168q-85 -49 -185 -49q-99 0 -184 49l-166 -166l-143 142l167 168q-47 85 -47 182q0 98 47 183l-167 168l143 142l167 -165q88 48 184 48q99 0 184 -49l166 168l142 -144l-165 -166q49 -87 49 -185zM515 640q25 1 49 9
t43.5 23t34.5 34t23 43t9 50q-1 65 -47.5 111.5t-111.5 47.5q-65 -2 -111.5 -48t-47.5 -111q1 -65 47.5 -111.5t111.5 -47.5z" />
    <glyph glyph-name="yen" unicode="&#xa5;" horiz-adv-x="1229" 
d="M1236 1404l-298 -546h127v-147h-207l-49 -91h256v-147h-277v-473h-348v473h-296v147h275l-49 91h-226v147h146l-298 547h397l223 -485h6l219 485z" />
    <glyph glyph-name="brokenbar" unicode="&#xa6;" horiz-adv-x="648" 
d="M195 788v721h257v-721h-257zM195 -234v720h257v-720h-257z" />
    <glyph glyph-name="section" unicode="&#xa7;" horiz-adv-x="1110" 
d="M887 299q52 -44 77.5 -102t25.5 -141q0 -172 -119.5 -271t-314.5 -99q-275 0 -473 201l183 220q48 -47 100.5 -79t98.5 -45.5t88 -13.5q44 0 71 22.5t27 58.5q0 37 -29.5 60.5t-123.5 59.5q-58 22 -96.5 38.5t-86 39.5t-78 43.5t-62 48.5t-49.5 57t-29.5 66t-11.5 79
q0 183 141 271q-99 89 -99 233q0 77 29 144t82 116t132 77t175 28q75 0 156.5 -22t156 -60.5t131.5 -87.5l-178 -220q-142 99 -249 99q-51 0 -75 -19.5t-24 -48.5q0 -31 27 -51.5t112 -57.5q199 -85 251 -114q114 -62 151 -142q26 -57 26 -135q0 -76 -37.5 -142t-105.5 -111
zM396 602q0 -29 13 -50t55.5 -47t122.5 -57q19 -8 57 -22q37 9 55 33t18 51q0 28 -12 46.5t-56.5 44.5t-134.5 62l-45 18q-39 -9 -56 -32t-17 -47z" />
    <glyph glyph-name="dieresis" unicode="&#xa8;" horiz-adv-x="1086" 
d="M315 1073q-85 0 -142.5 52.5t-57.5 134.5q0 81 57.5 133.5t142.5 52.5t142.5 -52.5t57.5 -133.5q0 -54 -27 -97t-72.5 -66.5t-100.5 -23.5zM772 1073q-85 0 -142.5 52.5t-57.5 134.5q0 54 27 96.5t72.5 66t100.5 23.5q85 0 142.5 -52.5t57.5 -133.5q0 -82 -57.5 -134.5
t-142.5 -52.5z" />
    <glyph glyph-name="copyright" unicode="&#xa9;" horiz-adv-x="1464" 
d="M730 -11q-109 0 -210 34t-181.5 95.5t-140.5 143.5t-92.5 182.5t-32.5 206.5q0 133 51.5 254.5t139 211t210.5 143t259 53.5t258.5 -53t209.5 -142.5t138 -211.5t51 -255q0 -132 -51.5 -253.5t-139 -211.5t-210.5 -143.5t-259 -53.5zM729 186q128 0 234.5 63t166.5 169.5
t60 232.5q0 127 -60 233t-165 168t-233 62q-129 0 -235 -63t-165.5 -169.5t-59.5 -233.5q0 -126 59.5 -232t164.5 -168t233 -62zM750 314q-70 0 -131 21.5t-108 62t-74.5 105t-27.5 144.5q0 69 22.5 130t65 106.5t108 72t145.5 26.5q73 0 143 -31t123 -96l-127 -109
q-24 28 -61 48t-78 20q-66 0 -110.5 -44t-44.5 -123q0 -71 42 -118.5t113 -47.5q39 0 77 18.5t62 48.5l127 -111q-46 -55 -114 -89t-152 -34z" />
    <glyph glyph-name="ordfeminine" unicode="&#xaa;" horiz-adv-x="789" 
d="M495 1406h217v-603h-217v53h-2q-64 -67 -172 -67q-128 0 -205 87.5t-77 228.5q0 140 75 227t193 87q112 0 185 -82h3v69zM378 994q31 0 56.5 13.5t40.5 39t15 58.5q0 49 -32.5 80t-78.5 31q-49 0 -82 -31.5t-33 -79.5q0 -51 32.5 -81t81.5 -30z" />
    <glyph glyph-name="guillemotleft" unicode="&#xab;" horiz-adv-x="1063" 
d="M618 94h-301l-234 412l238 420h299l-241 -420zM1072 94h-301l-234 412l238 420h299l-241 -420z" />
    <glyph glyph-name="logicalnot" unicode="&#xac;" horiz-adv-x="1094" 
d="M743 282v336h-665v271h939v-607h-274z" />
    <glyph glyph-name="registered" unicode="&#xae;" horiz-adv-x="1476" 
d="M739 1320q137 0 260.5 -53.5t211.5 -144t139.5 -213.5t51.5 -258q0 -133 -52 -256t-140 -213.5t-212 -144.5t-262 -54q-91 0 -178 24.5t-159.5 68t-133.5 105.5t-103 135t-65.5 159t-23.5 176q0 134 52 257t140.5 213.5t212.5 144.5t261 54zM736 181q78 0 149.5 24
t128.5 67.5t99 101.5t64.5 129.5t22.5 147.5q0 96 -35.5 183t-96 150t-146.5 100t-183 37q-98 0 -185 -37.5t-148.5 -101.5t-97 -151t-35.5 -183q0 -128 60.5 -235t167 -169.5t235.5 -62.5zM1001 752q0 -145 -116 -199l149 -229h-200l-125 203h-43v-203h-171v663h265
q120 0 180.5 -64.5t60.5 -170.5zM666 832v-152h55q45 0 71.5 19.5t26.5 56.5q0 21 -11 38t-33.5 27.5t-53.5 10.5h-55z" />
    <glyph glyph-name="macron" unicode="&#xaf;" horiz-adv-x="894" 
d="M127 1134v249h641v-249h-641z" />
    <glyph glyph-name="degree" unicode="&#xb0;" horiz-adv-x="761" 
d="M380 896q-120 0 -207 85t-87 204q0 77 41 144.5t109 106.5t144 39q58 0 112 -23.5t94 -62.5t64.5 -93.5t24.5 -113.5q0 -77 -40 -143t-108 -104.5t-147 -38.5zM379 1081q44 0 73 29.5t29 73.5t-30 75t-72 31q-43 0 -72.5 -31.5t-29.5 -75.5q0 -21 8 -39.5t21.5 -32.5
t32.5 -22t40 -8z" />
    <glyph glyph-name="plusminus" unicode="&#xb1;" horiz-adv-x="1215" 
d="M454 380v350h-350v273h350v353h277v-353h351v-273h-351v-350h-277zM133 -5v273h978v-273h-978z" />
    <glyph glyph-name="uni00B2" unicode="&#xb2;" horiz-adv-x="669" 
d="M377 1112h258v-220h-603l-4 161l249 254q57 59 79.5 92.5t22.5 65.5q0 28 -18.5 43.5t-48.5 15.5q-27 0 -57.5 -14.5t-55.5 -47.5l-180 129q45 70 125.5 115t187.5 45q79 0 146 -30t108.5 -89.5t41.5 -137.5q0 -54 -9.5 -91.5t-42 -86t-94.5 -105.5l-105 -96v-3z" />
    <glyph glyph-name="uni00B3" unicode="&#xb3;" horiz-adv-x="685" 
d="M528 1324q126 -61 126 -199q0 -115 -86.5 -182.5t-226.5 -67.5q-121 0 -211 59t-123 151l219 86q11 -45 34 -65t63 -20q35 0 56.5 20.5t21.5 51.5q0 34 -25.5 53t-71.5 19h-52v177h67q34 0 55 17t21 45q0 29 -19 48.5t-51 19.5q-59 0 -81 -67l-201 107q27 75 106 124
t178 49q84 0 151 -26.5t107 -80.5t40 -128q0 -118 -97 -186v-5z" />
    <glyph glyph-name="acute" unicode="&#xb4;" horiz-adv-x="1014" 
d="M267 1090l228 306l326 2l-253 -308h-301z" />
    <glyph glyph-name="uni00B5" unicode="&#xb5;" horiz-adv-x="1171" 
d="M751 1002h321v-1002h-296l-18 113h-3q-47 -64 -110.5 -98t-135.5 -34q-65 0 -107 24l-8 -5q28 -117 28 -236v-169h-320v1407h320v-506q0 -120 39 -175.5t121 -55.5q75 0 122 60.5t47 173.5v503z" />
    <glyph glyph-name="paragraph" unicode="&#xb6;" horiz-adv-x="1102" 
d="M553 0v558q-79 6 -147.5 27t-123.5 56t-94.5 83t-60.5 111.5t-21 137.5q0 189 132 304t363 115h362v-1392h-410z" />
    <glyph glyph-name="periodcentered" unicode="&#xb7;" horiz-adv-x="569" 
d="M293 312q-79 0 -135 55t-56 133q0 76 56 131t135 55q51 0 94.5 -25t69 -68t25.5 -93q0 -51 -25.5 -94.5t-69 -68.5t-94.5 -25z" />
    <glyph glyph-name="cedilla" unicode="&#xb8;" horiz-adv-x="740" 
d="M374 -62q90 -3 140.5 -45.5t50.5 -120.5q0 -77 -63.5 -121.5t-195.5 -44.5q-69 0 -131 12v130q46 -14 108 -14q36 0 62.5 12.5t26.5 41.5q0 19 -19 33t-55.5 21.5t-87.5 7.5v77l45 85h162z" />
    <glyph glyph-name="uni00B9" unicode="&#xb9;" horiz-adv-x="573" 
d="M240 892v544l-112 -80l-120 186l288 194h187v-844h-243z" />
    <glyph glyph-name="ordmasculine" unicode="&#xba;" horiz-adv-x="765" 
d="M372 790q-147 0 -240 87.5t-93 227.5q0 139 93 226.5t240 87.5q148 0 241.5 -87.5t93.5 -226.5q0 -140 -93.5 -227.5t-241.5 -87.5zM372 992q45 0 76 32t31 81q0 50 -30 81.5t-77 31.5q-46 0 -75 -31.5t-29 -81.5t29.5 -81.5t74.5 -31.5z" />
    <glyph glyph-name="guillemotright" unicode="&#xbb;" horiz-adv-x="1063" 
d="M19 94l239 412l-241 420h299l238 -420l-234 -412h-301zM473 94l239 412l-241 420h299l238 -420l-234 -412h-301z" />
    <glyph glyph-name="onequarter" unicode="&#xbc;" horiz-adv-x="1638" 
d="M621 -55l-234 102l648 1442l234 -102zM240 612v544l-112 -80l-120 186l288 194h187v-844h-243zM1269 0v123h-322v144l375 576h189v-514h107v-206h-107v-123h-242zM1174 313h116v189z" />
    <glyph glyph-name="onehalf" unicode="&#xbd;" horiz-adv-x="1715" 
d="M1035 1489l234 -102l-648 -1442l-234 102zM483 612h-243v544l-112 -80l-120 186l288 194h187v-844zM1423 220h258v-220h-603l-4 161l249 254q39 40 59.5 65.5t31.5 48t11 44.5q0 28 -18.5 43.5t-48.5 15.5q-27 0 -57.5 -14.5t-55.5 -47.5l-180 129q45 70 126 115t187 45
q80 0 146.5 -30t108 -89.5t41.5 -137.5q0 -54 -9.5 -91.5t-42 -86t-94.5 -105.5l-105 -96v-3z" />
    <glyph glyph-name="threequarters" unicode="&#xbe;" horiz-adv-x="1699" 
d="M1095 1489l234 -102l-648 -1442l-234 102zM654 845q0 -76 -40 -133t-110.5 -87t-162.5 -30q-121 0 -211 59t-123 151l219 86q8 -30 20 -48.5t31 -27.5t46 -9q35 0 56.5 20.5t21.5 51.5q0 34 -25.5 53t-71.5 19h-52v177h67q34 0 55 17t21 45q0 29 -19 48.5t-51 19.5
q-59 0 -81 -67l-201 107q27 75 106 124t178 49q84 0 151 -26.5t107 -80.5t40 -128q0 -118 -97 -186v-5q126 -61 126 -199zM1572 329h107v-206h-107v-123h-242v123h-322v144l375 576h189v-514zM1351 313v189l-116 -189h116z" />
    <glyph glyph-name="questiondown" unicode="&#xbf;" horiz-adv-x="915" 
d="M567 1020q79 0 135 -55t56 -133q0 -50 -25.5 -92.5t-69.5 -68t-96 -25.5q-77 0 -133 55t-56 131q0 78 55.5 133t133.5 55zM711 503l2 -98q0 -24 -4.5 -47.5t-9.5 -41.5t-18.5 -41t-21 -35t-27.5 -35.5t-27.5 -31.5t-32 -33t-29.5 -31q-30 -32 -45.5 -50t-37 -47.5
t-31 -57t-9.5 -56.5q0 -60 34 -93t96 -33q52 0 100 25.5t84 69.5l225 -206q-71 -86 -187.5 -137.5t-246.5 -51.5q-72 0 -137 15t-122.5 47.5t-99.5 79.5t-66 115t-24 151q0 57 14.5 108t42.5 94.5t56.5 75.5t67.5 69q13 12 45.5 41t45.5 42t33 35t28.5 40.5t10.5 37.5l8 80
h283z" />
    <glyph glyph-name="Agrave" unicode="&#xc0;" horiz-adv-x="1415" 
d="M850 1598h-300l-253 308l328 -2zM1048 0l-85 260h-511l-84 -260h-358l533 1455h328l535 -1455h-358zM546 550h323l-160 491h-4z" />
    <glyph glyph-name="Aacute" unicode="&#xc1;" horiz-adv-x="1415" 
d="M1126 1906l-253 -308h-301l228 306zM1048 0l-85 260h-511l-84 -260h-358l533 1455h328l535 -1455h-358zM546 550h323l-160 491h-4z" />
    <glyph glyph-name="Acircumflex" unicode="&#xc2;" horiz-adv-x="1415" 
d="M703 1734l-80 -140h-284l222 312h279l235 -312h-285l-83 140h-4zM1048 0l-85 260h-511l-84 -260h-358l533 1455h328l535 -1455h-358zM546 550h323l-160 491h-4z" />
    <glyph glyph-name="Atilde" unicode="&#xc3;" horiz-adv-x="1415" 
d="M593 1676q-69 0 -111 -97l-187 80q35 116 102.5 186.5t160.5 70.5q41 0 79 -10t52.5 -17.5t48.5 -26.5q16 -10 25.5 -15.5t23.5 -11.5t26.5 -9t26.5 -3q69 0 114 95l184 -61q-34 -125 -101 -201t-157 -76q-52 0 -93.5 15t-85.5 41q-25 14 -37.5 20.5t-32.5 13t-38 6.5z
M1048 0l-85 260h-511l-84 -260h-358l533 1455h328l535 -1455h-358zM546 550h323l-160 491h-4z" />
    <glyph glyph-name="Adieresis" unicode="&#xc4;" horiz-adv-x="1415" 
d="M477 1581q-85 0 -142.5 52.5t-57.5 134.5q0 54 27 96.5t72.5 66t100.5 23.5q85 0 142.5 -52.5t57.5 -133.5q0 -54 -27 -97t-72.5 -66.5t-100.5 -23.5zM934 1581q-85 0 -142.5 52.5t-57.5 134.5q0 54 27 96.5t72.5 66t100.5 23.5q41 0 78 -13.5t64 -38t42.5 -59.5
t15.5 -75q0 -82 -57.5 -134.5t-142.5 -52.5zM1048 0l-85 260h-511l-84 -260h-358l533 1455h328l535 -1455h-358zM546 550h323l-160 491h-4z" />
    <glyph glyph-name="Aring" unicode="&#xc5;" horiz-adv-x="1415" 
d="M707 1548q-97 0 -164.5 63.5t-67.5 160.5q0 61 28.5 112t82 81t121.5 30q97 0 164.5 -63t67.5 -160q0 -94 -65 -159t-167 -65zM706 1847q-19 0 -35.5 -10.5t-26 -27t-9.5 -35.5q0 -30 21 -50.5t50 -20.5q31 0 52 21t21 52q0 29 -21.5 50t-51.5 21zM1048 0l-85 260h-511
l-84 -260h-358l533 1455h328l535 -1455h-358zM546 550h323l-160 491h-4z" />
    <glyph glyph-name="AE" unicode="&#xc6;" horiz-adv-x="1936" 
d="M1209 305h657v-305h-993v260h-394l-122 -260h-359l701 1455h1126v-306h-616v-278h495v-298h-495v-268zM615 550h258v543h-3z" />
    <glyph glyph-name="Ccedilla" unicode="&#xc7;" horiz-adv-x="1451" 
d="M823 309q96 0 185.5 45.5t149.5 120.5l251 -215q-37 -46 -81 -86t-98 -74.5t-113.5 -59.5t-128.5 -40.5t-141 -17.5l-26 -44q91 -3 141 -45.5t50 -120.5q0 -77 -63.5 -121.5t-195.5 -44.5q-69 0 -131 12v130q46 -14 108 -14q23 0 41.5 4t33 17t14.5 33q0 29 -42.5 45.5
t-119.5 16.5v77l32 60v5q-130 20 -240.5 77t-194.5 147t-132 220.5t-48 286.5q0 125 31.5 238t94.5 206.5t152 162.5t209.5 107t261.5 38q159 0 314.5 -70t271.5 -211l-251 -214q-28 33 -63 62t-77 53.5t-92.5 38.5t-102.5 14q-53 0 -103 -13t-93 -37.5t-79 -61.5
t-61.5 -83.5t-39.5 -105t-14 -124.5q0 -115 47.5 -209t137.5 -149.5t205 -55.5z" />
    <glyph glyph-name="Egrave" unicode="&#xc8;" horiz-adv-x="1190" 
d="M556 1595l-253 308l328 -2l225 -306h-300zM126 0v1455h950v-306h-614v-279h485v-301h-485v-264h657v-305h-993z" />
    <glyph glyph-name="Eacute" unicode="&#xc9;" horiz-adv-x="1190" 
d="M382 1595l228 306l326 2l-253 -308h-301zM126 0v1455h950v-306h-614v-279h485v-301h-485v-264h657v-305h-993z" />
    <glyph glyph-name="Ecircumflex" unicode="&#xca;" horiz-adv-x="1190" 
d="M612 1731l-80 -140h-284l222 312h279l235 -312h-285l-83 140h-4zM462 305h657v-305h-993v1455h950v-306h-614v-279h485v-301h-485v-264z" />
    <glyph glyph-name="Edieresis" unicode="&#xcb;" horiz-adv-x="1190" 
d="M386 1578q-85 0 -142.5 52.5t-57.5 134.5q0 81 57.5 133.5t142.5 52.5t142.5 -52.5t57.5 -133.5q0 -82 -57.5 -134.5t-142.5 -52.5zM843 1578q-85 0 -142.5 52.5t-57.5 134.5q0 54 27 96.5t72.5 66t100.5 23.5q85 0 142.5 -52.5t57.5 -133.5q0 -82 -57.5 -134.5
t-142.5 -52.5zM126 0v1455h950v-306h-614v-279h485v-301h-485v-264h657v-305h-993z" />
    <glyph glyph-name="Igrave" unicode="&#xcc;" horiz-adv-x="618" 
d="M175 1596l-253 308l328 -2l225 -306h-300zM136 0v1455h346v-1455h-346z" />
    <glyph glyph-name="Iacute" unicode="&#xcd;" horiz-adv-x="618" 
d="M171 1596l228 306l326 2l-253 -308h-301zM136 0v1455h346v-1455h-346z" />
    <glyph glyph-name="Icircumflex" unicode="&#xce;" horiz-adv-x="618" 
d="M302 1731l-80 -140h-284l222 312h279l235 -312h-285l-83 140h-4zM136 0v1455h346v-1455h-346z" />
    <glyph glyph-name="Idieresis" unicode="&#xcf;" horiz-adv-x="618" 
d="M76 1578q-85 0 -142.5 52.5t-57.5 134.5q0 81 57.5 133.5t142.5 52.5t142.5 -52.5t57.5 -133.5q0 -82 -57.5 -134.5t-142.5 -52.5zM533 1578q-85 0 -142.5 52.5t-57.5 134.5q0 81 57.5 133.5t142.5 52.5t142.5 -52.5t57.5 -133.5q0 -82 -57.5 -134.5t-142.5 -52.5zM136 0
v1455h346v-1455h-346z" />
    <glyph glyph-name="Eth" unicode="&#xd0;" horiz-adv-x="1458" 
d="M630 1455q170 0 312 -54t239 -150t150.5 -231t53.5 -295t-51.5 -294t-146 -229.5t-236 -148.5t-315.5 -53h-509v570h-99v289h99v596h503zM615 305q122 0 217.5 56t146 151.5t50.5 212.5q0 120 -50.5 217t-140.5 152t-200 55h-174v-290h191v-289h-191v-265h151z" />
    <glyph glyph-name="Ntilde" unicode="&#xd1;" horiz-adv-x="1504" 
d="M643 1675q-69 0 -111 -97l-187 80q35 116 102.5 186.5t160.5 70.5q41 0 79 -10t52.5 -17.5t48.5 -26.5q21 -13 33.5 -20t31.5 -13t37 -6q69 0 114 95l184 -61q-34 -125 -101 -201t-157 -76q-36 0 -71 9t-57.5 19.5t-50.5 27.5q-25 14 -37.5 20.5t-32.5 13t-38 6.5z
M1035 1455h342v-1455h-353l-552 872h-4v-872h-341v1455h343l561 -894h4v894z" />
    <glyph glyph-name="Ograve" unicode="&#xd2;" horiz-adv-x="1642" 
d="M695 1597l-253 308l328 -2l225 -306h-300zM823 -20q-164 0 -304 55.5t-237.5 153.5t-152.5 237t-55 301t55 301t152.5 237.5t237.5 154t304 55.5q161 0 299.5 -54.5t236.5 -152t154 -237t56 -304.5q0 -164 -56 -303.5t-154 -237t-236.5 -152t-299.5 -54.5zM823 300
q111 0 200.5 56t139 153.5t49.5 217.5t-49.5 218t-139 154t-200.5 56q-113 0 -203 -57t-139.5 -154.5t-49.5 -216.5q0 -118 49.5 -215.5t139.5 -154.5t203 -57z" />
    <glyph glyph-name="Oacute" unicode="&#xd3;" horiz-adv-x="1642" 
d="M684 1597l228 306l326 2l-253 -308h-301zM823 -20q-164 0 -304 55.5t-237.5 153.5t-152.5 237t-55 301t55 301t152.5 237.5t237.5 154t304 55.5q161 0 299.5 -54.5t236.5 -152t154 -237t56 -304.5q0 -164 -56 -303.5t-154 -237t-236.5 -152t-299.5 -54.5zM823 300
q111 0 200.5 56t139 153.5t49.5 217.5t-49.5 218t-139 154t-200.5 56q-113 0 -203 -57t-139.5 -154.5t-49.5 -216.5q0 -118 49.5 -215.5t139.5 -154.5t203 -57z" />
    <glyph glyph-name="Ocircumflex" unicode="&#xd4;" horiz-adv-x="1642" 
d="M820 1733l-80 -140h-284l222 312h279l235 -312h-285l-83 140h-4zM823 1475q161 0 299.5 -54.5t236.5 -152t154 -237t56 -304.5q0 -164 -56 -303.5t-154 -237t-236.5 -152t-299.5 -54.5q-164 0 -304 55.5t-237.5 153.5t-152.5 237t-55 301t55 301t152.5 237.5t237.5 154
t304 55.5zM823 300q169 0 279 122t110 305t-110 305.5t-279 122.5q-113 0 -203 -57t-139.5 -154.5t-49.5 -216.5q0 -118 49.5 -215.5t139.5 -154.5t203 -57z" />
    <glyph glyph-name="Otilde" unicode="&#xd5;" horiz-adv-x="1642" 
d="M599 1578l-187 80q35 116 102.5 186.5t160.5 70.5q41 0 79 -10t52.5 -17.5t48.5 -26.5q22 -13 34 -20t31 -13t37 -6q69 0 114 95l184 -61q-34 -125 -101 -201t-157 -76q-36 0 -71 9t-57.5 19.5t-50.5 27.5q-25 14 -37.5 20.5t-32.5 13t-38 6.5q-69 0 -111 -97zM823 -20
q-164 0 -304 55.5t-237.5 153.5t-152.5 237t-55 301t55 301t152.5 237.5t237.5 154t304 55.5q161 0 299.5 -54.5t236.5 -152t154 -237t56 -304.5q0 -164 -56 -303.5t-154 -237t-236.5 -152t-299.5 -54.5zM823 300q111 0 200.5 56t139 153.5t49.5 217.5t-49.5 218t-139 154
t-200.5 56q-113 0 -203 -57t-139.5 -154.5t-49.5 -216.5q0 -118 49.5 -215.5t139.5 -154.5t203 -57z" />
    <glyph glyph-name="Odieresis" unicode="&#xd6;" horiz-adv-x="1642" 
d="M594 1580q-85 0 -142.5 52.5t-57.5 134.5q0 81 57.5 133.5t142.5 52.5t142.5 -52.5t57.5 -133.5q0 -82 -57.5 -134.5t-142.5 -52.5zM1051 1580q-55 0 -100.5 23.5t-72.5 66.5t-27 97q0 81 57.5 133.5t142.5 52.5q41 0 78 -13.5t64 -38t42.5 -59.5t15.5 -75
q0 -82 -57.5 -134.5t-142.5 -52.5zM823 -20q-164 0 -304 55.5t-237.5 153.5t-152.5 237t-55 301t55 301t152.5 237.5t237.5 154t304 55.5q161 0 299.5 -54.5t236.5 -152t154 -237t56 -304.5q0 -164 -56 -303.5t-154 -237t-236.5 -152t-299.5 -54.5zM823 300q111 0 200.5 56
t139 153.5t49.5 217.5t-49.5 218t-139 154t-200.5 56q-113 0 -203 -57t-139.5 -154.5t-49.5 -216.5q0 -118 49.5 -215.5t139.5 -154.5t203 -57z" />
    <glyph glyph-name="multiply" unicode="&#xd7;" horiz-adv-x="1070" 
d="M268 108l-193 194l268 267l-268 268l192 191l266 -267l269 269l194 -194l-269 -269l268 -269l-191 -190l-269 267z" />
    <glyph glyph-name="Oslash" unicode="&#xd8;" horiz-adv-x="1657" 
d="M1583 1382l-165 -181q151 -197 151 -474q0 -164 -56 -303.5t-154 -237t-236.5 -152t-299.5 -54.5q-236 0 -417 111l-156 -171l-153 142l151 165q-84 98 -129 225t-45 275q0 162 55 301t152.5 237.5t237.5 154t304 55.5q257 0 446 -132l162 178zM431 727q0 -131 60 -234
l546 597q-95 65 -214 65q-113 0 -203 -57t-139.5 -154.5t-49.5 -216.5zM1212 727q0 109 -42 202l-531 -583q84 -46 184 -46q111 0 200.5 56t139 153.5t49.5 217.5z" />
    <glyph glyph-name="Ugrave" unicode="&#xd9;" horiz-adv-x="1426" 
d="M599 1597l-253 308l328 -2l225 -306h-300zM711 -20q-135 0 -245.5 41.5t-189.5 120t-122 197.5t-43 268v848h345v-826q0 -68 16.5 -127t47.5 -104t80 -71t111 -26q115 0 187.5 88t72.5 240v826h344v-848q0 -190 -69.5 -331t-206.5 -218.5t-328 -77.5z" />
    <glyph glyph-name="Uacute" unicode="&#xda;" horiz-adv-x="1426" 
d="M538 1597l228 306l326 2l-253 -308h-301zM711 -20q-135 0 -245.5 41.5t-189.5 120t-122 197.5t-43 268v848h345v-826q0 -68 16.5 -127t47.5 -104t80 -71t111 -26q115 0 187.5 88t72.5 240v826h344v-848q0 -190 -69.5 -331t-206.5 -218.5t-328 -77.5z" />
    <glyph glyph-name="Ucircumflex" unicode="&#xdb;" horiz-adv-x="1426" 
d="M709 1733l-80 -140h-284l222 312h279l235 -312h-285l-83 140h-4zM971 1455h344v-848q0 -190 -69.5 -331t-206.5 -218.5t-328 -77.5q-135 0 -245.5 41.5t-189 120t-122 197.5t-43.5 268v848h345v-826q0 -68 16.5 -127t47.5 -104t80 -71t111 -26q115 0 187.5 88t72.5 240
v826z" />
    <glyph glyph-name="Udieresis" unicode="&#xdc;" horiz-adv-x="1426" 
d="M483 1580q-55 0 -100.5 23.5t-72.5 66.5t-27 97q0 81 57.5 133.5t142.5 52.5t142.5 -52.5t57.5 -133.5q0 -82 -57.5 -134.5t-142.5 -52.5zM940 1580q-85 0 -142.5 52.5t-57.5 134.5q0 81 57.5 133.5t142.5 52.5q41 0 78 -13.5t64 -38t42.5 -59.5t15.5 -75
q0 -82 -57.5 -134.5t-142.5 -52.5zM711 -20q-135 0 -245.5 41.5t-189 120t-122 197.5t-43.5 268v848h345v-826q0 -68 16.5 -127t47.5 -104t80 -71t111 -26q115 0 187.5 88t72.5 240v826h344v-848q0 -190 -69.5 -331t-206.5 -218.5t-328 -77.5z" />
    <glyph glyph-name="Yacute" unicode="&#xdd;" horiz-adv-x="1292" 
d="M1024 1905l-253 -308h-301l228 306zM900 1455h396l-478 -822v-633h-347v633l-475 822h392l255 -482h6z" />
    <glyph glyph-name="Thorn" unicode="&#xde;" horiz-adv-x="1294" 
d="M127 0v1455h337v-243h260q131 0 231.5 -37.5t162 -105.5t92.5 -158.5t31 -200.5q0 -156 -68 -264.5t-188.5 -161t-286.5 -52.5h-234v-232h-337zM464 533h185q112 0 174.5 50t62.5 135q0 41 -14.5 75.5t-42.5 60.5t-72.5 40.5t-101.5 14.5h-191v-376z" />
    <glyph glyph-name="germandbls" unicode="&#xdf;" horiz-adv-x="1276" 
d="M997 856q109 -56 171 -162t62 -238q0 -144 -56.5 -251.5t-162 -165.5t-247.5 -58h-178v282h101q100 0 161 59t61 151q0 62 -28.5 111t-84 77t-129.5 28h-61v250h46q47 1 83.5 16t57 39.5t30.5 52t10 57.5q0 65 -50 107t-139 42q-100 0 -159 -57t-59 -185v-1011h-320v990
q0 266 139.5 402t391.5 136q84 0 157.5 -14.5t128.5 -41.5t97.5 -63t69.5 -80t41 -92t14 -100q0 -79 -34.5 -153t-113.5 -125v-3z" />
    <glyph glyph-name="agrave" unicode="&#xe0;" horiz-adv-x="1211" 
d="M798 1137h-300l-253 308l328 -2zM791 1002h321v-1002h-304v108h-4q-97 -127 -278 -127q-102 0 -190 38t-150 105t-97 164t-35 212q0 113 35 210.5t96 165.5t145.5 106.5t180.5 38.5q169 0 276 -125h4v106zM592 263q90 0 151 65.5t61 170.5q0 68 -27.5 122.5t-76 85
t-107.5 30.5q-93 0 -154 -66t-61 -172q0 -105 60 -170.5t154 -65.5z" />
    <glyph glyph-name="aacute" unicode="&#xe1;" horiz-adv-x="1211" 
d="M965 1445l-253 -308h-301l228 306zM791 1002h321v-1002h-304v108h-4q-97 -127 -278 -127q-102 0 -190 38t-150 105t-97 164t-35 212q0 113 35 210.5t96 165.5t145.5 106.5t180.5 38.5q169 0 276 -125h4v106zM592 263q90 0 151 65.5t61 170.5q0 68 -27.5 122.5t-76 85
t-107.5 30.5q-93 0 -154 -66t-61 -172q0 -105 60 -170.5t154 -65.5z" />
    <glyph glyph-name="acircumflex" unicode="&#xe2;" horiz-adv-x="1211" 
d="M601 1274l-80 -140h-284l222 312h279l235 -312h-285l-83 140h-4zM791 1002h321v-1002h-304v108h-4q-97 -127 -278 -127q-102 0 -190 38t-150 105t-97 164t-35 212q0 113 35 210.5t96 165.5t145.5 106.5t180.5 38.5q169 0 276 -125h4v106zM592 263q90 0 151 65.5t61 170.5
q0 68 -27.5 122.5t-76 85t-107.5 30.5q-93 0 -154 -66t-61 -172q0 -105 60 -170.5t154 -65.5z" />
    <glyph glyph-name="atilde" unicode="&#xe3;" horiz-adv-x="1211" 
d="M491 1216q-69 0 -111 -97l-187 80q35 116 102.5 186.5t160.5 70.5q41 0 79 -10t52.5 -17.5t48.5 -26.5q16 -10 25.5 -15.5t23.5 -11.5t26.5 -9t26.5 -3q69 0 114 95l184 -61q-34 -125 -101 -201t-157 -76q-28 0 -53.5 4.5t-48 13.5t-39.5 17.5t-38 20.5
q-25 14 -37.5 20.5t-32.5 13t-38 6.5zM791 1002h321v-1002h-304v108h-4q-97 -127 -278 -127q-102 0 -190 38t-150 105t-97 164t-35 212q0 113 35 210.5t96 165.5t145.5 106.5t180.5 38.5q169 0 276 -125h4v106zM592 263q90 0 151 65.5t61 170.5q0 68 -27.5 122.5t-76 85
t-107.5 30.5q-93 0 -154 -66t-61 -172q0 -105 60 -170.5t154 -65.5z" />
    <glyph glyph-name="adieresis" unicode="&#xe4;" horiz-adv-x="1211" 
d="M375 1121q-85 0 -142.5 52.5t-57.5 134.5q0 54 27 96.5t72.5 66t100.5 23.5q85 0 142.5 -52.5t57.5 -133.5q0 -82 -57.5 -134.5t-142.5 -52.5zM832 1121q-85 0 -142.5 52.5t-57.5 134.5q0 54 27 96.5t72.5 66t100.5 23.5q85 0 142.5 -52.5t57.5 -133.5q0 -54 -27 -97
t-72.5 -66.5t-100.5 -23.5zM791 1002h321v-1002h-304v108h-4q-97 -127 -278 -127q-102 0 -190 38t-150 105t-97 164t-35 212q0 113 35 210.5t96 165.5t145.5 106.5t180.5 38.5q169 0 276 -125h4v106zM592 263q90 0 151 65.5t61 170.5q0 68 -27.5 122.5t-76 85t-107.5 30.5
q-93 0 -154 -66t-61 -172q0 -105 60 -170.5t154 -65.5z" />
    <glyph glyph-name="aring" unicode="&#xe5;" horiz-adv-x="1211" 
d="M605 1088q-97 0 -164.5 63.5t-67.5 160.5q0 61 28.5 112t82 81t121.5 30q97 0 164.5 -63t67.5 -160q0 -46 -17 -87t-47 -71.5t-73.5 -48t-94.5 -17.5zM604 1387q-19 0 -35.5 -10.5t-26 -27t-9.5 -35.5q0 -30 21 -50.5t50 -20.5q31 0 52 21t21 52q0 29 -21.5 50t-51.5 21z
M791 1002h321v-1002h-304v108h-4q-97 -127 -278 -127q-102 0 -190 38t-150 105t-97 164t-35 212q0 113 35 210.5t96 165.5t145.5 106.5t180.5 38.5q169 0 276 -125h4v106zM592 263q90 0 151 65.5t61 170.5q0 103 -60.5 170.5t-150.5 67.5q-93 0 -154 -66t-61 -172
q0 -105 60 -170.5t154 -65.5z" />
    <glyph glyph-name="ae" unicode="&#xe6;" horiz-adv-x="1610" 
d="M1565 506q0 -56 -8 -91h-644q21 -79 78.5 -123.5t141.5 -44.5q71 1 129.5 35t93.5 80l169 -192q-44 -55 -105.5 -96.5t-144 -67t-171.5 -25.5q-98 0 -183 36t-143 97h-4q-59 -60 -155 -96.5t-202 -36.5q-95 0 -167.5 23.5t-117.5 65.5t-67.5 97.5t-22.5 122.5
q0 152 100 234.5t310 83.5l152 1v7q0 84 -32.5 117.5t-101.5 33.5q-119 0 -228 -63l-134 221q30 17 80.5 36.5t137 39.5t163.5 20q104 0 177 -27t120 -92h4q122 119 305 119q100 0 187 -39t149.5 -107t98 -163.5t35.5 -205.5zM1088 759q-63 0 -109.5 -38.5t-65.5 -114.5h338
q-10 48 -31 82t-54.5 52.5t-77.5 18.5zM456 215q63 0 105.5 41t42.5 75v89l-117 -1q-142 -3 -142 -106q0 -29 12.5 -51t38 -34.5t60.5 -12.5z" />
    <glyph glyph-name="ccedilla" unicode="&#xe7;" horiz-adv-x="1059" 
d="M1031 166q-31 -37 -72.5 -68.5t-94 -56.5t-117 -41t-134.5 -19l-25 -43q90 -3 140.5 -45.5t50.5 -120.5q0 -77 -63.5 -121.5t-195.5 -44.5q-69 0 -131 12v130q46 -14 108 -14q36 0 62.5 12.5t26.5 41.5t-42.5 45.5t-119.5 16.5v77l32 60v5q-179 38 -289 175t-110 333
q0 152 68 271t190.5 184.5t277.5 65.5q127 0 243 -52t190 -148l-214 -183q-80 97 -207 97q-101 0 -163 -64.5t-62 -167.5q0 -52 16.5 -96t46.5 -75t72.5 -48.5t92.5 -17.5q123 0 204 91z" />
    <glyph glyph-name="egrave" unicode="&#xe8;" horiz-adv-x="1119" 
d="M759 1137h-300l-253 308l328 -2zM1065 510q0 -36 -8 -95h-682q11 -55 46 -94.5t84 -59t107 -19.5q139 0 243 121l170 -191q-68 -86 -183 -138.5t-264 -52.5q-110 0 -206.5 38t-165.5 105.5t-109 165t-40 211.5q0 112 38.5 209t105.5 165t161.5 107t203.5 39
q144 0 258 -65t177.5 -182t63.5 -264zM569 765q-74 0 -126 -41.5t-67 -117.5l375 2q-8 36 -24 65.5t-39 49.5t-53 31t-66 11z" />
    <glyph glyph-name="eacute" unicode="&#xe9;" horiz-adv-x="1119" 
d="M979 1445l-253 -308h-301l228 306zM1065 510q0 -36 -8 -95h-682q17 -82 82.5 -127.5t154.5 -45.5q139 0 243 121l170 -191q-68 -86 -183 -138.5t-264 -52.5q-88 0 -168 24t-144 70t-111 109t-72.5 144t-25.5 173q0 112 38.5 209t105.5 165t161.5 107t203.5 39
q144 0 258 -65t177.5 -182t63.5 -264zM569 765q-74 0 -126 -41.5t-67 -117.5l375 2q-16 74 -63.5 115.5t-118.5 41.5z" />
    <glyph glyph-name="ecircumflex" unicode="&#xea;" horiz-adv-x="1119" 
d="M577 1274l-80 -140h-284l222 312h279l235 -312h-285l-83 140h-4zM1065 510q0 -36 -8 -95h-682q17 -82 82.5 -127.5t154.5 -45.5q139 0 243 121l170 -191q-68 -86 -183 -138.5t-264 -52.5q-88 0 -168 24t-144 70t-111 109t-72.5 144t-25.5 173q0 112 38.5 209t105.5 165
t161.5 107t203.5 39q144 0 258 -65t177.5 -182t63.5 -264zM569 765q-74 0 -126 -41.5t-67 -117.5l375 2q-8 36 -24 65.5t-39 49.5t-53 31t-66 11z" />
    <glyph glyph-name="edieresis" unicode="&#xeb;" horiz-adv-x="1119" 
d="M351 1121q-85 0 -142.5 52.5t-57.5 134.5q0 81 57.5 133.5t142.5 52.5t142.5 -52.5t57.5 -133.5q0 -82 -57.5 -134.5t-142.5 -52.5zM808 1121q-41 0 -78 13.5t-64 38t-42.5 59.5t-15.5 76q0 81 57.5 133.5t142.5 52.5t142.5 -52.5t57.5 -133.5q0 -41 -15.5 -76
t-42.5 -59.5t-64 -38t-78 -13.5zM1065 510q0 -36 -8 -95h-682q17 -82 82.5 -127.5t154.5 -45.5q139 0 243 121l170 -191q-68 -86 -183 -138.5t-264 -52.5q-110 0 -206.5 38t-165.5 105.5t-109 165t-40 211.5q0 112 38.5 209t105.5 165t161.5 107t203.5 39q144 0 258 -65
t177.5 -182t63.5 -264zM569 765q-74 0 -126 -41.5t-67 -117.5l375 2q-11 49 -35 84t-62 54t-85 19z" />
    <glyph glyph-name="igrave" unicode="&#xec;" horiz-adv-x="552" 
d="M134 1138l-173 308l328 -2l146 -306h-301zM116 0v1002h319v-1002h-319z" />
    <glyph glyph-name="iacute" unicode="&#xed;" horiz-adv-x="552" 
d="M137 1137l228 306l326 2l-253 -308h-301zM116 0v1002h319v-1002h-319z" />
    <glyph glyph-name="icircumflex" unicode="&#xee;" horiz-adv-x="552" 
d="M272 1274l-80 -140h-284l222 312h279l235 -312h-285l-83 140h-4zM116 0v1002h319v-1002h-319z" />
    <glyph glyph-name="idieresis" unicode="&#xef;" horiz-adv-x="552" 
d="M62 1121q-38 0 -72.5 15t-59.5 40t-40 59.5t-15 72.5q0 76 55.5 131.5t131.5 55.5q74 0 130 -56t56 -131q0 -77 -56 -132t-130 -55zM490 1122q-49 0 -91.5 25t-67.5 68t-25 93q0 75 55 130.5t129 55.5q47 0 89 -25.5t67.5 -68.5t25.5 -92q0 -76 -55 -131t-127 -55zM116 0
v1002h319v-1002h-319z" />
    <glyph glyph-name="eth" unicode="&#xf0;" horiz-adv-x="1179" 
d="M1120 527h-1v-3q0 -162 -68.5 -286t-191 -191t-280.5 -67q-87 0 -167.5 23.5t-144 67.5t-111 103.5t-73 133.5t-25.5 155q0 111 37.5 202t102 151t150 92.5t182.5 32.5q77 0 173 -31q-68 117 -181 213l-128 -99l-133 154l78 61v5q-67 33 -139 59l134 216
q130 -44 233 -101l141 111l133 -161l-89 -68v-5q176 -142 272 -337t96 -431zM587 265q89 0 148.5 62.5t59.5 158.5q0 86 -59 144.5t-153 58.5q-84 0 -143 -60t-59 -143q0 -37 9.5 -70.5t28 -61t43.5 -47.5t57 -31t68 -11z" />
    <glyph glyph-name="ntilde" unicode="&#xf1;" horiz-adv-x="1183" 
d="M490 1216q-69 0 -111 -97l-187 80q35 116 102.5 186.5t160.5 70.5q41 0 79 -10t52.5 -17.5t48.5 -26.5q21 -13 33.5 -20t31.5 -13t37 -6q69 0 114 95l184 -61q-22 -81 -58 -142.5t-87.5 -98t-112.5 -36.5q-36 0 -71 9t-57.5 19.5t-50.5 27.5q-25 14 -37.5 20.5t-32.5 13
t-38 6.5zM730 1021q82 0 145 -21.5t112.5 -69.5t75.5 -131t26 -198v-601h-320v522q0 81 -18.5 128.5t-52 66t-89.5 18.5q-85 0 -134.5 -59t-49.5 -173v-503h-320v1002h320v-121h2q59 68 137 104t166 36z" />
    <glyph glyph-name="ograve" unicode="&#xf2;" horiz-adv-x="1195" 
d="M482 1137l-253 308l328 -2l225 -306h-300zM598 -20q-119 0 -220 38.5t-171.5 107t-110 165t-39.5 209.5t39.5 209.5t110 165t171.5 107.5t220 39q157 0 280 -65.5t191.5 -184.5t68.5 -271t-68.5 -270.5t-191.5 -184t-280 -65.5zM598 265q92 0 154.5 66.5t62.5 168.5
q0 104 -61.5 169.5t-155.5 65.5q-96 0 -157 -66t-61 -169q0 -101 62 -168t156 -67z" />
    <glyph glyph-name="oacute" unicode="&#xf3;" horiz-adv-x="1195" 
d="M449 1137l228 306l326 2l-253 -308h-301zM598 -20q-119 0 -220 38.5t-171.5 107t-110 165t-39.5 209.5t39.5 209.5t110 165t171.5 107.5t220 39q157 0 280 -65.5t191.5 -184.5t68.5 -271t-68.5 -270.5t-191.5 -184t-280 -65.5zM598 265q92 0 154.5 66.5t62.5 168.5
q0 104 -61.5 169.5t-155.5 65.5q-96 0 -157 -66t-61 -169q0 -101 62 -168t156 -67z" />
    <glyph glyph-name="ocircumflex" unicode="&#xf4;" horiz-adv-x="1195" 
d="M595 1274l-80 -140h-284l222 312h279l235 -312h-285l-83 140h-4zM598 1021q157 0 280 -65.5t191.5 -184.5t68.5 -271t-68.5 -270.5t-191.5 -184t-280 -65.5q-95 0 -179.5 24.5t-150 71t-113.5 110t-73 144t-25 170.5q0 113 39.5 209.5t110 165t171.5 107.5t220 39z
M598 265q92 0 154.5 66.5t62.5 168.5q0 104 -61.5 169.5t-155.5 65.5q-96 0 -157 -66t-61 -169q0 -101 62 -168t156 -67z" />
    <glyph glyph-name="otilde" unicode="&#xf5;" horiz-adv-x="1195" 
d="M374 1119l-187 80q35 116 102.5 186.5t160.5 70.5q41 0 79 -10t52.5 -17.5t48.5 -26.5q16 -10 25.5 -15.5t23.5 -11.5t26.5 -9t26.5 -3q69 0 114 95l184 -61q-34 -125 -101 -201t-157 -76q-36 0 -71 9t-57.5 19.5t-50.5 27.5q-25 14 -37.5 20.5t-32.5 13t-38 6.5
q-69 0 -111 -97zM598 -20q-119 0 -220 38.5t-171.5 107t-110 165t-39.5 209.5t39.5 209.5t110 165t171.5 107.5t220 39q157 0 280 -65.5t191.5 -184.5t68.5 -271t-68.5 -270.5t-191.5 -184t-280 -65.5zM598 265q92 0 154.5 66.5t62.5 168.5q0 104 -61.5 169.5t-155.5 65.5
q-96 0 -157 -66t-61 -169q0 -101 62 -168t156 -67z" />
    <glyph glyph-name="odieresis" unicode="&#xf6;" horiz-adv-x="1195" 
d="M369 1121q-85 0 -142.5 52.5t-57.5 134.5q0 54 27 96.5t72.5 66t100.5 23.5q85 0 142.5 -52.5t57.5 -133.5q0 -82 -57.5 -134.5t-142.5 -52.5zM826 1121q-85 0 -142.5 52.5t-57.5 134.5q0 54 27 96.5t72.5 66t100.5 23.5q85 0 142.5 -52.5t57.5 -133.5
q0 -82 -57.5 -134.5t-142.5 -52.5zM598 -20q-119 0 -220 38.5t-171.5 107t-110 165t-39.5 209.5t39.5 209.5t110 165t171.5 107.5t220 39q157 0 280 -65.5t191.5 -184.5t68.5 -271t-68.5 -270.5t-191.5 -184t-280 -65.5zM598 265q92 0 154.5 66.5t62.5 168.5
q0 104 -61.5 169.5t-155.5 65.5q-96 0 -157 -66t-61 -169q0 -101 62 -168t156 -67z" />
    <glyph glyph-name="divide" unicode="&#xf7;" horiz-adv-x="1134" 
d="M569 795q-80 0 -135 50.5t-55 128.5q0 77 55 127t135 50q81 0 136 -50t55 -127q0 -78 -55 -128.5t-136 -50.5zM90 431v273h978v-273h-978zM569 -29q-80 0 -135 50.5t-55 128.5q0 77 55 127t135 50q81 0 136 -50t55 -127q0 -78 -55 -128.5t-136 -50.5z" />
    <glyph glyph-name="oslash" unicode="&#xf8;" horiz-adv-x="1195" 
d="M1031 827q107 -135 107 -327q0 -152 -68.5 -270.5t-191.5 -184t-280 -65.5q-162 0 -286 69l-101 -110l-130 120l94 101q-118 140 -118 340q0 113 39.5 209.5t110 165t171.5 107.5t220 39q170 0 300 -77l108 116l129 -120zM380 500q0 -53 18 -98l290 314q-43 19 -90 19
q-96 0 -157 -66t-61 -169zM598 265q92 0 154.5 66.5t62.5 168.5q0 42 -11 81l-280 -303q33 -13 74 -13z" />
    <glyph glyph-name="ugrave" unicode="&#xf9;" horiz-adv-x="1159" 
d="M772 1138h-300l-253 308l328 -2zM739 1002h321v-1002h-321v113h-5q-110 -132 -283 -132q-361 0 -361 427v594h320v-515q0 -120 35.5 -170.5t117.5 -50.5q76 0 126 61.5t50 178.5v496z" />
    <glyph glyph-name="uacute" unicode="&#xfa;" horiz-adv-x="1159" 
d="M978 1445l-253 -308h-301l228 306zM739 1002h321v-1002h-321v113h-5q-110 -132 -283 -132q-361 0 -361 427v594h320v-515q0 -120 35.5 -170.5t117.5 -50.5q76 0 126 61.5t50 178.5v496z" />
    <glyph glyph-name="ucircumflex" unicode="&#xfb;" horiz-adv-x="1159" 
d="M577 1274l-80 -140h-284l222 312h279l235 -312h-285l-83 140h-4zM739 1002h321v-1002h-321v113h-5q-110 -132 -283 -132q-361 0 -361 427v594h320v-515q0 -120 35.5 -170.5t117.5 -50.5q76 0 126 61.5t50 178.5v496z" />
    <glyph glyph-name="udieresis" unicode="&#xfc;" horiz-adv-x="1159" 
d="M351 1121q-85 0 -142.5 52.5t-57.5 134.5q0 81 57.5 133.5t142.5 52.5t142.5 -52.5t57.5 -133.5q0 -82 -57.5 -134.5t-142.5 -52.5zM808 1121q-41 0 -78 13.5t-64 38t-42.5 59.5t-15.5 76q0 81 57.5 133.5t142.5 52.5t142.5 -52.5t57.5 -133.5q0 -41 -15.5 -76
t-42.5 -59.5t-64 -38t-78 -13.5zM739 1002h321v-1002h-321v113h-5q-110 -132 -283 -132q-361 0 -361 427v594h320v-515q0 -120 35.5 -170.5t117.5 -50.5q76 0 126 61.5t50 178.5v496z" />
    <glyph glyph-name="yacute" unicode="&#xfd;" horiz-adv-x="1090" 
d="M920 1445l-253 -308h-301l228 306zM747 1002h328l-526 -1407h-317l173 473l-391 934h332l204 -543h5z" />
    <glyph glyph-name="thorn" unicode="&#xfe;" horiz-adv-x="1228" 
d="M715 1021q96 0 180.5 -38.5t145.5 -106.5t96 -165.5t35 -210.5q0 -153 -60.5 -271.5t-168 -183t-243.5 -64.5q-169 0 -270 117h-5v-503h-320v1913h321v-614h4q109 127 285 127zM634 263q94 0 154 65.5t60 170.5q0 53 -16.5 97.5t-45 75.5t-68.5 48t-85 17q-96 0 -158 -67
t-62 -171q0 -106 62.5 -171t158.5 -65z" />
    <glyph glyph-name="ydieresis" unicode="&#xff;" horiz-adv-x="1090" 
d="M318 1121q-85 0 -142.5 52.5t-57.5 134.5q0 54 27 96.5t72.5 66t100.5 23.5q85 0 142.5 -52.5t57.5 -133.5q0 -82 -57.5 -134.5t-142.5 -52.5zM775 1121q-85 0 -142.5 52.5t-57.5 134.5q0 81 57.5 133.5t142.5 52.5t142.5 -52.5t57.5 -133.5q0 -82 -57.5 -134.5
t-142.5 -52.5zM747 1002h328l-526 -1407h-317l173 473l-391 934h332l204 -543h5z" />
    <glyph glyph-name="Amacron" unicode="&#x100;" horiz-adv-x="1415" 
d="M1028 1891v-249h-641v249h641zM1048 0l-85 260h-511l-84 -260h-358l533 1455h328l535 -1455h-358zM546 550h323l-160 491h-4z" />
    <glyph glyph-name="amacron" unicode="&#x101;" horiz-adv-x="1211" 
d="M926 1431v-249h-641v249h641zM791 1002h321v-1002h-304v108h-4q-97 -127 -278 -127q-102 0 -190 38t-150 105t-97 164t-35 212q0 113 35 210.5t96 165.5t145.5 106.5t180.5 38.5q169 0 276 -125h4v106zM592 263q90 0 151 65.5t61 170.5q0 68 -27.5 122.5t-76 85
t-107.5 30.5q-93 0 -154 -66t-61 -172q0 -105 60 -170.5t154 -65.5z" />
    <glyph glyph-name="Abreve" unicode="&#x102;" horiz-adv-x="1415" 
d="M707 1584q-92 0 -168 36t-126.5 110t-58.5 174h236q1 -19 7 -35.5t16 -31t23.5 -24.5t31.5 -16t39 -6q49 0 81.5 30t35.5 83h236q-11 -139 -105.5 -229.5t-247.5 -90.5zM1048 0l-85 260h-511l-84 -260h-358l533 1455h328l535 -1455h-358zM546 550h323l-160 491h-4z" />
    <glyph glyph-name="abreve" unicode="&#x103;" horiz-adv-x="1211" 
d="M605 1124q-92 0 -168 36t-126.5 110t-58.5 174h236q2 -24 10.5 -44t23 -35.5t36 -24.5t47.5 -9q49 0 81.5 30t35.5 83h236q-11 -139 -105.5 -229.5t-247.5 -90.5zM791 1002h321v-1002h-304v108h-4q-97 -127 -278 -127q-102 0 -190 38t-150 105t-97 164t-35 212
q0 113 35 210.5t96 165.5t145.5 106.5t180.5 38.5q169 0 276 -125h4v106zM592 263q90 0 151 65.5t61 170.5q0 68 -27.5 122.5t-76 85t-107.5 30.5q-93 0 -154 -66t-61 -172q0 -105 60 -170.5t154 -65.5z" />
    <glyph glyph-name="Aogonek" unicode="&#x104;" horiz-adv-x="1415" 
d="M1237 -215q39 0 74 11l14 -164q-59 -24 -154 -24q-113 0 -179.5 54t-66.5 140q0 50 31.5 105t90.5 95l-84 258h-511l-84 -260h-358l533 1455h328l535 -1455h-71q-77 -8 -125.5 -49.5t-48.5 -88.5q0 -37 20 -57t56 -20zM546 550h323l-160 491h-4z" />
    <glyph glyph-name="aogonek" unicode="&#x105;" horiz-adv-x="1211" 
d="M1082 0q-77 -8 -125.5 -49.5t-48.5 -88.5q0 -37 20 -57t56 -20q39 0 74 11l14 -164q-59 -24 -154 -24q-113 0 -179.5 54t-66.5 140q0 53 35 110.5t101 97.5v98h-4q-97 -127 -278 -127q-102 0 -190 38t-150 105t-97 164t-35 212q0 113 35 210.5t96 165.5t145.5 106.5
t180.5 38.5q169 0 276 -125h4v106h321v-1002h-30zM592 263q90 0 151 65.5t61 170.5q0 68 -27.5 122.5t-76 85t-107.5 30.5q-93 0 -154 -66t-61 -172q0 -105 60 -170.5t154 -65.5z" />
    <glyph glyph-name="Cacute" unicode="&#x106;" horiz-adv-x="1451" 
d="M660 1597l228 306l326 2l-253 -308h-301zM823 -18q-121 0 -232 30.5t-205 92t-163.5 149t-109 208t-39.5 261.5q0 125 31.5 238t94.5 206.5t152 162.5t209.5 107t261.5 38q103 0 204 -28.5t202.5 -93t179.5 -159.5l-251 -214q-28 33 -63 62t-77 53.5t-92.5 38.5
t-102.5 14q-53 0 -103 -13t-93 -37.5t-79 -61.5t-61.5 -83.5t-39.5 -105t-14 -124.5q0 -115 47.5 -209t137.5 -149.5t205 -55.5q96 0 185.5 45.5t149.5 120.5l251 -215q-100 -125 -251 -201.5t-335 -76.5z" />
    <glyph glyph-name="cacute" unicode="&#x107;" horiz-adv-x="1059" 
d="M424 1137l228 306l326 2l-253 -308h-301zM577 -20q-147 0 -265.5 65t-186.5 184t-68 271t68 271t190.5 184.5t277.5 65.5q127 0 243 -52t190 -148l-214 -183q-80 97 -207 97q-101 0 -163 -64.5t-62 -167.5q0 -52 16.5 -96t46.5 -75t72.5 -48.5t92.5 -17.5q123 0 204 91
l219 -191q-69 -83 -186.5 -134.5t-267.5 -51.5z" />
    <glyph glyph-name="Ccircumflex" unicode="&#x108;" horiz-adv-x="1451" 
d="M817 1733l-80 -140h-284l222 312h279l235 -312h-285l-83 140h-4zM823 309q96 0 185.5 45.5t149.5 120.5l251 -215q-100 -125 -251 -201.5t-335 -76.5q-101 0 -195 21.5t-177.5 63t-152.5 105.5t-119 144.5t-77.5 184.5t-27.5 222q0 125 31.5 238t94.5 206.5t152 162.5
t209.5 107t261.5 38q103 0 204 -28.5t202.5 -93t179.5 -159.5l-251 -214q-60 71 -147.5 119.5t-187.5 48.5q-53 0 -103 -13t-93 -37.5t-79 -61.5t-61.5 -83.5t-39.5 -105t-14 -124.5q0 -115 47.5 -209t137.5 -149.5t205 -55.5z" />
    <glyph glyph-name="ccircumflex" unicode="&#x109;" horiz-adv-x="1059" 
d="M587 1274l-80 -140h-284l222 312h279l235 -312h-285l-83 140h-4zM812 357l219 -191q-69 -83 -186.5 -134.5t-267.5 -51.5q-147 0 -265.5 65t-186.5 184t-68 271t68 271t190.5 184.5t277.5 65.5q127 0 243 -52t190 -148l-214 -183q-80 97 -207 97q-101 0 -163 -64.5
t-62 -167.5q0 -105 63.5 -171t164.5 -66q123 0 204 91z" />
    <glyph glyph-name="Cdotaccent" unicode="&#x10a;" horiz-adv-x="1451" 
d="M821 1580q-85 0 -142.5 52.5t-57.5 134.5q0 81 57.5 133.5t142.5 52.5t142.5 -52.5t57.5 -133.5q0 -82 -57.5 -134.5t-142.5 -52.5zM823 -18q-121 0 -232 30.5t-205 92t-163.5 149t-109 208t-39.5 261.5q0 125 31.5 238t94.5 206.5t152 162.5t209.5 107t261.5 38
q159 0 314.5 -70t271.5 -211l-251 -214q-28 33 -63 62t-77 53.5t-92.5 38.5t-102.5 14q-53 0 -103 -13t-93 -37.5t-79 -61.5t-61.5 -83.5t-39.5 -105t-14 -124.5q0 -115 47.5 -209t137.5 -149.5t205 -55.5q96 0 185.5 45.5t149.5 120.5l251 -215q-100 -125 -251 -201.5
t-335 -76.5z" />
    <glyph glyph-name="cdotaccent" unicode="&#x10b;" horiz-adv-x="1059" 
d="M591 1121q-85 0 -142.5 52.5t-57.5 134.5q0 54 27 96.5t72.5 66t100.5 23.5q85 0 142.5 -52.5t57.5 -133.5q0 -82 -57.5 -134.5t-142.5 -52.5zM577 -20q-148 0 -266 65t-186 184t-68 271t68 271t190.5 184.5t277.5 65.5q127 0 243 -52t190 -148l-214 -183q-80 97 -207 97
q-101 0 -163 -64.5t-62 -167.5q0 -52 16.5 -96t46.5 -75t72.5 -48.5t92.5 -17.5q123 0 204 91l219 -191q-69 -83 -186.5 -134.5t-267.5 -51.5z" />
    <glyph glyph-name="Ccaron" unicode="&#x10c;" horiz-adv-x="1451" 
d="M961 1593h-279l-229 312h285l80 -138h7l81 138h283zM823 309q96 0 185.5 45.5t149.5 120.5l251 -215q-100 -125 -251 -201.5t-335 -76.5q-101 0 -195 21.5t-177.5 63t-152.5 105.5t-119 144.5t-77.5 184.5t-27.5 222q0 125 31.5 238t94.5 206.5t152 162.5t209.5 107
t261.5 38q103 0 204 -28.5t202.5 -93t179.5 -159.5l-251 -214q-60 71 -148 119.5t-187 48.5q-53 0 -103 -13t-93 -37.5t-79 -61.5t-61.5 -83.5t-39.5 -105t-14 -124.5q0 -115 47.5 -209t137.5 -149.5t205 -55.5z" />
    <glyph glyph-name="ccaron" unicode="&#x10d;" horiz-adv-x="1059" 
d="M731 1134h-279l-229 312h285l80 -138h7l81 138h283zM812 357l219 -191q-69 -83 -186.5 -134.5t-267.5 -51.5q-148 0 -266 65t-186 184t-68 271t68 271t190.5 184.5t277.5 65.5q127 0 243 -52t190 -148l-214 -183q-80 97 -207 97q-101 0 -163 -64.5t-62 -167.5
q0 -105 63.5 -171t164.5 -66q123 0 204 91z" />
    <glyph glyph-name="Dcaron" unicode="&#x10e;" horiz-adv-x="1458" 
d="M854 1591h-279l-229 312h285l80 -138h7l81 138h283zM630 1455q114 0 216 -24.5t185 -69.5t149.5 -110t111.5 -145.5t69 -177t24 -203.5q0 -160 -51.5 -293.5t-146 -229.5t-236 -149t-315.5 -53h-509v1455h503zM615 305q122 0 217.5 56t146 151.5t50.5 212.5
q0 120 -50.5 217t-140.5 152t-200 55h-174v-844h151z" />
    <glyph glyph-name="dcaron" unicode="&#x10f;" horiz-adv-x="1372" 
d="M1303 1625h302l-146 -445h-223zM800 896v612h321v-1508h-304v108h-4q-100 -127 -286 -127q-137 0 -244.5 64.5t-167.5 183t-60 271.5q0 113 35 210.5t96 165.5t145.5 106.5t180.5 38.5q174 0 284 -125h4zM593 263q96 0 158.5 65t62.5 171q0 68 -28 122.5t-78.5 85
t-113.5 30.5q-93 0 -154 -66t-61 -172q0 -105 60 -170.5t154 -65.5z" />
    <glyph glyph-name="Dcroat" unicode="&#x110;" horiz-adv-x="1458" 
d="M630 1455q170 0 312 -54t239 -150t150.5 -231t53.5 -295t-51.5 -294t-146 -229.5t-236 -148.5t-315.5 -53h-509v570h-99v289h99v596h503zM615 305q122 0 217.5 56t146 151.5t50.5 212.5q0 120 -50.5 217t-140.5 152t-200 55h-174v-290h191v-289h-191v-265h151z" />
    <glyph glyph-name="dcroat" unicode="&#x111;" horiz-adv-x="1222" 
d="M1234 1310v-195h-113v-1115h-304v108h-4q-100 -127 -286 -127q-102 0 -190 38t-150 105t-97 164t-35 212q0 113 35 210.5t96 165.5t145.5 106.5t180.5 38.5q174 0 284 -125h4v219h-177v195h177v198h321v-198h113zM593 263q96 0 158.5 65t62.5 171q0 68 -28 122.5
t-78.5 85t-113.5 30.5q-93 0 -154 -66t-61 -172q0 -105 60 -170.5t154 -65.5z" />
    <glyph glyph-name="Emacron" unicode="&#x112;" horiz-adv-x="1190" 
d="M296 1639v249h641v-249h-641zM126 0v1455h950v-306h-614v-279h485v-301h-485v-264h657v-305h-993z" />
    <glyph glyph-name="emacron" unicode="&#x113;" horiz-adv-x="1119" 
d="M902 1431v-249h-641v249h641zM1065 510q0 -36 -8 -95h-682q17 -82 82.5 -127.5t154.5 -45.5q139 0 243 121l170 -191q-68 -86 -183 -138.5t-264 -52.5q-110 0 -206.5 38t-165.5 105.5t-109 165t-40 211.5q0 112 38.5 209t105.5 165t161.5 107t203.5 39q144 0 258 -65
t177.5 -182t63.5 -264zM569 765q-74 0 -126 -41.5t-67 -117.5l375 2q-11 49 -35 84t-62 54t-85 19z" />
    <glyph glyph-name="Ebreve" unicode="&#x114;" horiz-adv-x="1190" 
d="M616 1581q-92 0 -168 36t-126.5 110t-58.5 174h236q4 -49 35 -81t82 -32q49 0 81.5 30t35.5 83h236q-11 -139 -105.5 -229.5t-247.5 -90.5zM126 0v1455h950v-306h-614v-279h485v-301h-485v-264h657v-305h-993z" />
    <glyph glyph-name="ebreve" unicode="&#x115;" horiz-adv-x="1119" 
d="M581 1124q-92 0 -168 36t-126.5 110t-58.5 174h236q2 -24 10.5 -44t23 -35.5t36 -24.5t47.5 -9q32 0 57.5 13t41.5 39t18 61h236q-11 -139 -105.5 -229.5t-247.5 -90.5zM1065 510q0 -36 -8 -95h-682q17 -82 82.5 -127.5t154.5 -45.5q139 0 243 121l170 -191
q-68 -86 -183 -138.5t-264 -52.5q-88 0 -168 24t-144 70t-111 109t-72.5 144t-25.5 173q0 112 38.5 209t105.5 165t161.5 107t203.5 39q144 0 258 -65t177.5 -182t63.5 -264zM569 765q-74 0 -126 -41.5t-67 -117.5l375 2q-11 49 -35 84t-62 54t-85 19z" />
    <glyph glyph-name="Edotaccent" unicode="&#x116;" horiz-adv-x="1190" 
d="M616 1578q-85 0 -142.5 52.5t-57.5 134.5q0 81 57.5 133.5t142.5 52.5t142.5 -52.5t57.5 -133.5q0 -41 -15.5 -76t-42.5 -59.5t-64 -38t-78 -13.5zM126 0v1455h950v-306h-614v-279h485v-301h-485v-264h657v-305h-993z" />
    <glyph glyph-name="edotaccent" unicode="&#x117;" horiz-adv-x="1119" 
d="M581 1121q-85 0 -142.5 52.5t-57.5 134.5q0 81 57.5 133.5t142.5 52.5t142.5 -52.5t57.5 -133.5q0 -41 -15.5 -76t-42.5 -59.5t-64 -38t-78 -13.5zM1065 510q0 -36 -8 -95h-682q17 -82 82.5 -127.5t154.5 -45.5q139 0 243 121l170 -191q-68 -86 -183 -138.5t-264 -52.5
q-88 0 -168 24t-144 70t-111 109t-72.5 144t-25.5 173q0 112 38.5 209t105.5 165t161.5 107t203.5 39q144 0 258 -65t177.5 -182t63.5 -264zM569 765q-74 0 -126 -41.5t-67 -117.5l375 2q-16 74 -63.5 115.5t-118.5 41.5z" />
    <glyph glyph-name="Eogonek" unicode="&#x118;" horiz-adv-x="1190" 
d="M1096 0q-77 -8 -125.5 -49.5t-48.5 -88.5q0 -37 20 -57t56 -20q39 0 74 11l14 -164q-59 -24 -154 -24q-113 0 -179.5 54t-66.5 140q0 49 30 102t86 93v3h-676v1455h950v-306h-614v-279h485v-301h-485v-264h657v-305h-23z" />
    <glyph glyph-name="eogonek" unicode="&#x119;" horiz-adv-x="1119" 
d="M1065 510q0 -36 -8 -95h-682q11 -55 46 -94.5t84 -59t107 -19.5q139 0 243 121l170 -191q-94 -117 -257 -165q-162 -53 -162 -138q0 -34 20.5 -54t56.5 -20q12 0 21 0.5t15 1t11.5 2t9 2.5t8.5 2.5t9 2.5l13 -168q-56 -24 -154 -24q-120 0 -188.5 53.5t-68.5 140.5
q0 44 25 92.5t72 87.5v5q-179 38 -289 175t-110 333q0 112 38.5 209t105.5 165t161.5 107t203.5 39q144 0 258 -65t177.5 -182t63.5 -264zM569 765q-74 0 -126 -41.5t-67 -117.5l375 2q-16 74 -63.5 115.5t-118.5 41.5z" />
    <glyph glyph-name="Ecaron" unicode="&#x11a;" horiz-adv-x="1190" 
d="M756 1591h-279l-229 312h285l80 -138h7l81 138h283zM462 305h657v-305h-993v1455h950v-306h-614v-279h485v-301h-485v-264z" />
    <glyph glyph-name="ecaron" unicode="&#x11b;" horiz-adv-x="1119" 
d="M721 1134h-279l-229 312h285l80 -138h7l81 138h283zM1065 510q0 -36 -8 -95h-682q17 -82 82.5 -127.5t154.5 -45.5q139 0 243 121l170 -191q-68 -86 -183 -138.5t-264 -52.5q-110 0 -206.5 38t-165.5 105.5t-109 165t-40 211.5q0 112 38.5 209t105.5 165t161.5 107
t203.5 39q144 0 258 -65t177.5 -182t63.5 -264zM569 765q-74 0 -126 -41.5t-67 -117.5l375 2q-8 36 -24 65.5t-39 49.5t-53 31t-66 11z" />
    <glyph glyph-name="Gcircumflex" unicode="&#x11c;" horiz-adv-x="1498" 
d="M789 1731l-80 -140h-284l222 312h279l235 -312h-285l-83 140h-4zM793 815h608v-654q-100 -79 -256.5 -128t-321.5 -49q-126 0 -239 31t-206 93.5t-161 150.5t-105.5 207t-37.5 258q0 159 50.5 296t143 238t232.5 159t310 58q106 0 212 -28.5t205 -88t171 -143.5
l-242 -206q-148 144 -347 144q-77 0 -145.5 -29t-120 -83t-82 -136t-30.5 -181q0 -88 27 -166t76.5 -136t124 -92t164.5 -34q130 0 249 65v165h-279v289z" />
    <glyph glyph-name="gcircumflex" unicode="&#x11d;" horiz-adv-x="1209" 
d="M597 1274l-80 -140h-284l222 312h279l235 -312h-285l-83 140h-4zM789 1002h321v-870q0 -72 -8.5 -134t-27.5 -119t-48.5 -103t-73 -83.5t-98.5 -63t-126.5 -39.5t-157.5 -14q-124 0 -223 22.5t-190 73.5l72 259q149 -87 306 -87q125 0 193.5 54t68.5 136v95h-5
q-103 -109 -276 -109q-133 0 -238.5 63t-164.5 175.5t-59 252.5q0 146 58 262.5t159.5 182t227.5 65.5q173 0 285 -118h5v99zM591 305q92 0 152 60.5t60 155.5q0 94 -61 154t-151 60q-93 0 -153.5 -60t-60.5 -155q0 -96 61 -155.5t153 -59.5z" />
    <glyph glyph-name="Gbreve" unicode="&#x11e;" horiz-adv-x="1498" 
d="M793 1581q-92 0 -168 36t-126.5 110t-58.5 174h236q4 -49 35 -81t82 -32q49 0 81.5 30t35.5 83h236q-11 -139 -105.5 -229.5t-247.5 -90.5zM823 -16q-126 0 -239 31t-206 93.5t-161 150.5t-105.5 207t-37.5 258q0 159 50.5 296t143 238t232.5 159t310 58q106 0 212 -28.5
t205 -88t171 -143.5l-242 -206q-148 144 -347 144q-77 0 -145.5 -29t-120 -83t-82 -136t-30.5 -181q0 -88 27 -166t76.5 -136t124 -92t164.5 -34q130 0 249 65v165h-279v289h608v-654q-100 -79 -256.5 -128t-321.5 -49z" />
    <glyph glyph-name="gbreve" unicode="&#x11f;" horiz-adv-x="1209" 
d="M601 1124q-92 0 -168 36t-126.5 110t-58.5 174h236q4 -49 35 -81t82 -32q49 0 81.5 30t35.5 83h236q-11 -139 -105.5 -229.5t-247.5 -90.5zM789 1002h321v-870q0 -72 -8.5 -134t-27.5 -119t-48.5 -103t-73 -83.5t-98.5 -63t-126.5 -39.5t-157.5 -14q-124 0 -223 22.5
t-190 73.5l72 259q149 -87 306 -87q125 0 193.5 54t68.5 136v95h-5q-103 -109 -276 -109q-133 0 -238.5 63t-164.5 175.5t-59 252.5q0 146 58 262.5t159.5 182t227.5 65.5q173 0 285 -118h5v99zM591 305q92 0 152 60.5t60 155.5q0 94 -61 154t-151 60q-93 0 -153.5 -60
t-60.5 -155q0 -96 61 -155.5t153 -59.5z" />
    <glyph glyph-name="Gdotaccent" unicode="&#x120;" horiz-adv-x="1498" 
d="M793 1578q-85 0 -142.5 52.5t-57.5 134.5q0 81 57.5 133.5t142.5 52.5t142.5 -52.5t57.5 -133.5q0 -82 -57.5 -134.5t-142.5 -52.5zM823 -16q-126 0 -239 31t-206 93.5t-161 150.5t-105.5 207t-37.5 258q0 159 50.5 296t143 238t232.5 159t310 58q163 0 321.5 -67.5
t266.5 -192.5l-242 -206q-148 144 -347 144q-77 0 -145.5 -29t-120 -83t-82 -136t-30.5 -181q0 -88 27 -166t76.5 -136t124 -92t164.5 -34q130 0 249 65v165h-279v289h608v-654q-100 -79 -256.5 -128t-321.5 -49z" />
    <glyph glyph-name="gdotaccent" unicode="&#x121;" horiz-adv-x="1209" 
d="M601 1121q-55 0 -100.5 23.5t-72.5 66.5t-27 97q0 81 57.5 133.5t142.5 52.5t142.5 -52.5t57.5 -133.5q0 -82 -57.5 -134.5t-142.5 -52.5zM789 1002h321v-870q0 -72 -8.5 -134t-27.5 -119t-48.5 -103t-73 -83.5t-98.5 -63t-126.5 -39.5t-157.5 -14q-124 0 -223 22.5
t-190 73.5l72 259q149 -87 306 -87q125 0 193.5 54t68.5 136v95h-5q-103 -109 -276 -109q-133 0 -238.5 63t-164.5 175.5t-59 252.5q0 146 58 262.5t159.5 182t227.5 65.5q173 0 285 -118h5v99zM591 305q92 0 152 60.5t60 155.5q0 94 -61 154t-151 60q-93 0 -153.5 -60
t-60.5 -155q0 -96 61 -155.5t153 -59.5z" />
    <glyph glyph-name="Gcommaaccent" unicode="&#x122;" horiz-adv-x="1498" 
d="M823 -16q-126 0 -239 31t-206 93.5t-161 150.5t-105.5 207t-37.5 258q0 159 50.5 296t143 238t232.5 159t310 58q163 0 321.5 -67.5t266.5 -192.5l-242 -206q-148 144 -347 144q-77 0 -145.5 -29t-120 -83t-82 -136t-30.5 -181q0 -88 27 -166t76.5 -136t124 -92
t164.5 -34q130 0 249 65v165h-279v289h608v-654q-100 -79 -256.5 -128t-321.5 -49zM622 -453l-59 174q60 13 86 34.5t26 61.5q0 27 -14 74h261q11 -37 11 -85q0 -83 -36.5 -140t-105.5 -86.5t-169 -32.5z" />
    <glyph glyph-name="gcommaaccent" unicode="&#x123;" horiz-adv-x="1209" 
d="M737 1159h-261q-11 37 -11 85q0 83 36.5 140t105.5 86.5t169 32.5l59 -174q-60 -13 -86 -34.5t-26 -61.5q0 -27 14 -74zM789 1002h321v-870q0 -72 -8.5 -134t-27.5 -119t-48.5 -103t-73 -84t-98.5 -63t-126.5 -39t-157.5 -14q-124 0 -223 22.5t-190 73.5l72 259
q149 -87 306 -87q125 0 193.5 54t68.5 136v95h-5q-103 -109 -276 -109q-133 0 -238.5 63t-164.5 175.5t-59 252.5q0 146 58 262.5t159.5 182t227.5 65.5q173 0 285 -118h5v99zM591 305q92 0 152 60.5t60 155.5q0 94 -61 154t-151 60q-93 0 -153.5 -60t-60.5 -155
q0 -97 61 -156t153 -59z" />
    <glyph glyph-name="Hcircumflex" unicode="&#x124;" horiz-adv-x="1457" 
d="M732 1733l-80 -140h-284l222 312h279l235 -312h-285l-83 140h-4zM984 1455h345v-1455h-345v547h-512v-547h-345v1455h345v-603h512v603z" />
    <glyph glyph-name="hcircumflex" unicode="&#x125;" horiz-adv-x="1193" 
d="M512 1756l-80 -140h-284l222 312h279l235 -312h-285l-83 140h-4zM738 1021q82 0 145 -21t113 -68t76.5 -130t26.5 -198v-604h-320v526q0 117 -39 163t-127 46q-57 0 -98.5 -24.5t-65 -77t-23.5 -128.5h-1v-505h-320v1508h320v-622h4q58 67 138 101t171 34z" />
    <glyph glyph-name="Hbar" unicode="&#x126;" horiz-adv-x="1465" 
d="M1421 1245v-195h-88v-1050h-345v547h-512v-547h-345v1050h-87v195h87v210h345v-210h512v210h345v-210h88zM988 852v198h-512v-198h512z" />
    <glyph glyph-name="hbar" unicode="&#x127;" horiz-adv-x="1193" 
d="M738 1021q82 0 145 -21.5t113 -68t76.5 -129.5t26.5 -198v-604h-320v526q0 117 -39 163t-127 46q-87 0 -137 -58t-50 -172h-1v-505h-320v1115h-108v195h108v198h320v-198h183v-195h-183v-229h4q58 67 138 101t171 34z" />
    <glyph glyph-name="Itilde" unicode="&#x128;" horiz-adv-x="618" 
d="M81 1576l-187 80q35 116 102.5 186.5t160.5 70.5q41 0 79 -10t52.5 -17.5t48.5 -26.5q22 -13 34 -20t31 -13t37 -6q69 0 114 95l184 -61q-34 -125 -101 -201t-157 -76q-52 0 -93.5 15t-85.5 41q-25 14 -37.5 20.5t-32.5 13t-38 6.5q-69 0 -111 -97zM136 0v1455h346v-1455
h-346z" />
    <glyph glyph-name="itilde" unicode="&#x129;" horiz-adv-x="552" 
d="M90 1119l-187 80q34 114 97 185.5t140 71.5q26 0 46.5 -2.5t40 -10t28.5 -11.5t29 -16t24 -14q16 -10 25.5 -15.5t23.5 -11.5t26.5 -9t26.5 -3q69 0 114 95l183 -61q-34 -125 -100.5 -201t-156.5 -76q-53 0 -94 15t-85 41q-10 6 -24.5 15t-22 13.5t-19.5 8t-25 3.5
q-16 0 -32 -12.5t-30.5 -34t-27.5 -50.5zM116 0v1002h319v-1002h-319z" />
    <glyph glyph-name="Imacron" unicode="&#x12a;" horiz-adv-x="618" 
d="M-14 1639v249h641v-249h-641zM136 0v1455h346v-1455h-346z" />
    <glyph glyph-name="imacron" unicode="&#x12b;" horiz-adv-x="552" 
d="M-44 1182v249h641v-249h-641zM116 0v1002h319v-1002h-319z" />
    <glyph glyph-name="Ibreve" unicode="&#x12c;" horiz-adv-x="618" 
d="M306 1581q-92 0 -168 36t-126.5 110t-58.5 174h236q4 -49 35 -81t82 -32q32 0 57.5 13t41.5 39t18 61h236q-11 -139 -105.5 -229.5t-247.5 -90.5zM136 0v1455h346v-1455h-346z" />
    <glyph glyph-name="ibreve" unicode="&#x12d;" horiz-adv-x="552" 
d="M276 1124q-128 0 -214 84.5t-98 235.5h231q4 -50 24.5 -81.5t56.5 -31.5q32 0 54.5 30t25.5 83h232q-6 -68 -28.5 -125.5t-60.5 -101.5t-95 -68.5t-128 -24.5zM116 0v1002h319v-1002h-319z" />
    <glyph glyph-name="Iogonek" unicode="&#x12e;" horiz-adv-x="618" 
d="M426 0q-77 -8 -125.5 -49.5t-48.5 -88.5q0 -37 20 -57t56 -20q39 0 74 11l14 -164q-59 -24 -154 -24q-113 0 -179.5 54t-66.5 140q0 50 30.5 104t89.5 94v1455h346v-1455h-56z" />
    <glyph glyph-name="iogonek" unicode="&#x12f;" horiz-adv-x="552" 
d="M276 1121q-85 0 -142.5 52.5t-57.5 134.5q0 54 27 96.5t72.5 66t100.5 23.5q85 0 142.5 -52.5t57.5 -133.5q0 -82 -57.5 -134.5t-142.5 -52.5zM116 0v1002h319v-1002h-29q-77 -8 -125.5 -49.5t-48.5 -88.5q0 -37 20 -57t56 -20q39 0 74 11l14 -164q-59 -24 -154 -24
q-113 0 -179.5 54t-66.5 140q0 50 30.5 104t89.5 94z" />
    <glyph glyph-name="Idotaccent" unicode="&#x130;" horiz-adv-x="618" 
d="M306 1578q-85 0 -142.5 52.5t-57.5 134.5q0 81 57.5 133.5t142.5 52.5t142.5 -52.5t57.5 -133.5q0 -82 -57.5 -134.5t-142.5 -52.5zM136 0v1455h346v-1455h-346z" />
    <glyph glyph-name="dotlessi" unicode="&#x131;" horiz-adv-x="552" 
d="M116 0v1002h319v-1002h-319z" />
    <glyph glyph-name="IJ" unicode="&#x132;" horiz-adv-x="1627" 
d="M136 0v1455h346v-1455h-346zM1046 -20q-117 0 -226.5 49.5t-180.5 142.5l197 241q34 -45 84.5 -76t101.5 -31q147 0 147 212v937h343v-928q0 -101 -15 -182.5t-49.5 -150.5t-88 -115.5t-132.5 -72.5t-181 -26z" />
    <glyph glyph-name="ij" unicode="&#x133;" horiz-adv-x="1078" 
d="M814 1129q-85 0 -142.5 52.5t-57.5 134.5q0 54 27 96.5t72.5 66t100.5 23.5q85 0 142.5 -52.5t57.5 -133.5q0 -82 -57.5 -134.5t-142.5 -52.5zM276 1121q-85 0 -142.5 52.5t-57.5 134.5q0 54 27 96.5t72.5 66t100.5 23.5q85 0 142.5 -52.5t57.5 -133.5
q0 -82 -57.5 -134.5t-142.5 -52.5zM116 0v1002h319v-1002h-319zM661 -424q-126 0 -229 37l53 254q43 -19 86 -19q47 0 66 31.5t19 97.5v1025h320v-1052q0 -185 -81 -279.5t-234 -94.5z" />
    <glyph glyph-name="Jcircumflex" unicode="&#x134;" horiz-adv-x="1009" 
d="M721 1733l-80 -140h-284l222 312h279l235 -312h-285l-83 140h-4zM551 518v937h343v-928q0 -101 -15 -182.5t-49.5 -150.5t-88 -115.5t-132.5 -72.5t-181 -26q-117 0 -226.5 49.5t-180.5 142.5l197 241q34 -45 84.5 -76t101.5 -31q147 0 147 212z" />
    <glyph glyph-name="jcircumflex" unicode="&#x135;" horiz-adv-x="526" 
d="M258 1282l-80 -140h-284l222 312h279l235 -312h-285l-83 140h-4zM104 -23v1025h320v-1052q0 -185 -81 -279.5t-234 -94.5q-126 0 -229 37l53 254q43 -19 86 -19q47 0 66 31.5t19 97.5z" />
    <glyph glyph-name="Kcommaaccent" unicode="&#x136;" horiz-adv-x="1347" 
d="M803 824l543 -824h-422l-344 548h-6l-106 -128v-420h-341v1455h341v-558h4l421 558h433zM550 -109h261q11 -37 11 -85q0 -83 -36.5 -140t-105.5 -86.5t-169 -32.5l-59 174q40 9 64 20.5t36 30t12 45.5t-14 74z" />
    <glyph glyph-name="kcommaaccent" unicode="&#x137;" horiz-adv-x="1093" 
d="M746 611l352 -611h-355l-207 367h-5l-106 -120v-247h-320v1508h320v-838h4l290 332h371zM430 -109h261q11 -37 11 -85q0 -124 -80 -189.5t-231 -69.5l-59 174q40 9 64 20.5t36 30t12 45.5t-14 74z" />
    <glyph glyph-name="kgreenlandic" unicode="&#x138;" horiz-adv-x="1094" 
d="M536 367h-5l-106 -120v-247h-320v1002h320v-332h5l289 332h371l-344 -391l353 -611h-355z" />
    <glyph glyph-name="Lacute" unicode="&#x139;" horiz-adv-x="1124" 
d="M351 1597l228 306l326 2l-253 -308h-301zM127 0v1455h344v-1150h610v-305h-954z" />
    <glyph glyph-name="lacute" unicode="&#x13a;" horiz-adv-x="552" 
d="M122 1625l228 306l326 2l-253 -308h-301zM116 0v1508h319v-1508h-319z" />
    <glyph glyph-name="Lcommaaccent" unicode="&#x13b;" horiz-adv-x="1124" 
d="M127 0v1455h344v-1150h610v-305h-954zM428 -453l-59 174q40 9 64 20.5t36 30t12 45.5t-14 74h261q11 -37 11 -85q0 -62 -20.5 -110t-60.5 -80.5t-97.5 -49.5t-132.5 -19z" />
    <glyph glyph-name="lcommaaccent" unicode="&#x13c;" horiz-adv-x="552" 
d="M116 0v1508h319v-1508h-319zM99 -453l-59 174q60 13 86 34.5t26 61.5q0 27 -14 74h261q11 -37 11 -85q0 -124 -80 -189.5t-231 -69.5z" />
    <glyph glyph-name="Lcaron" unicode="&#x13d;" horiz-adv-x="1124" 
d="M684 1180l67 445h302l-146 -445h-223zM127 0v1455h344v-1150h610v-305h-954z" />
    <glyph glyph-name="lcaron" unicode="&#x13e;" horiz-adv-x="686" 
d="M551 1180l67 445h301l-145 -445h-223zM116 0v1508h319v-1508h-319z" />
    <glyph glyph-name="Ldot" unicode="&#x13f;" horiz-adv-x="1124" 
d="M127 0v1455h344v-1150h610v-305h-954zM890 512q-79 0 -135 55t-56 133q0 76 56 131t135 55q51 0 94.5 -25.5t69 -68t25.5 -92.5q0 -78 -55.5 -133t-133.5 -55z" />
    <glyph glyph-name="ldot" unicode="&#x140;" horiz-adv-x="1007" 
d="M116 0v1508h319v-1508h-319zM794 341q-79 0 -135 55t-56 133q0 76 56 131t135 55q77 0 133 -55t56 -131q0 -31 -9.5 -59.5t-27.5 -51.5t-41 -40.5t-52 -27t-59 -9.5z" />
    <glyph glyph-name="Lslash" unicode="&#x141;" horiz-adv-x="1136" 
d="M483 305h610v-305h-954v522l-123 -58v276l123 58v657h344v-494l161 76v-277l-161 -76v-379z" />
    <glyph glyph-name="lslash" unicode="&#x142;" horiz-adv-x="618" 
d="M583 936v-283l-118 -56v-597h-319v445l-106 -50v282l106 51v780h319v-628z" />
    <glyph glyph-name="Nacute" unicode="&#x143;" horiz-adv-x="1504" 
d="M1077 1905l-253 -308h-301l228 306zM1035 1455h342v-1455h-353l-552 872h-4v-872h-341v1455h343l561 -894h4v894z" />
    <glyph glyph-name="nacute" unicode="&#x144;" horiz-adv-x="1183" 
d="M952 1445l-253 -308h-301l228 306zM730 1021q82 0 145 -21.5t112.5 -69.5t75.5 -131t26 -198v-601h-320v522q0 81 -18.5 128.5t-52 66t-89.5 18.5q-55 0 -96 -25t-64.5 -78t-23.5 -129v-503h-320v1002h320v-121h2q59 68 137 104t166 36z" />
    <glyph glyph-name="Ncommaaccent" unicode="&#x145;" horiz-adv-x="1504" 
d="M1035 1455h342v-1455h-353l-552 872h-4v-872h-341v1455h343l561 -894h4v894zM613 -109h261q11 -37 11 -85q0 -124 -80 -189.5t-231 -69.5l-59 174q60 13 86 34.5t26 61.5q0 27 -14 74z" />
    <glyph glyph-name="ncommaaccent" unicode="&#x146;" horiz-adv-x="1183" 
d="M730 1021q82 0 145 -21.5t112.5 -69.5t75.5 -131t26 -198v-601h-320v522q0 81 -18.5 128.5t-52 66t-89.5 18.5q-55 0 -96 -25t-64.5 -78t-23.5 -129v-503h-320v1002h320v-121h2q59 68 137 104t166 36zM450 -109h261q11 -37 11 -85q0 -83 -36.5 -140t-105.5 -86.5
t-169 -32.5l-59 174q60 13 86 34.5t26 61.5q0 27 -14 74z" />
    <glyph glyph-name="Ncaron" unicode="&#x147;" horiz-adv-x="1504" 
d="M897 1593h-279l-229 312h285l80 -138h7l81 138h283zM1035 1455h342v-1455h-353l-552 872h-4v-872h-341v1455h343l561 -894h4v894z" />
    <glyph glyph-name="ncaron" unicode="&#x148;" horiz-adv-x="1183" 
d="M744 1134h-279l-229 312h285l80 -138h7l81 138h283zM730 1021q82 0 145 -21.5t112.5 -69.5t75.5 -131t26 -198v-601h-320v522q0 120 -38 166.5t-122 46.5q-55 0 -96 -25t-64.5 -78t-23.5 -129v-503h-320v1002h320v-121h2q59 68 137 104t166 36z" />
    <glyph glyph-name="napostrophe" unicode="&#x149;" horiz-adv-x="1446" 
d="M-59 990l67 465h301l-145 -465h-223zM993 1021q82 0 145 -21.5t112.5 -69.5t75.5 -131t26 -198v-601h-320v522q0 81 -18.5 128.5t-52 66t-89.5 18.5q-85 0 -134.5 -59t-49.5 -173v-503h-320v1002h320v-121h2q59 68 137 104t166 36z" />
    <glyph glyph-name="Eng" unicode="&#x14a;" horiz-adv-x="1505" 
d="M1378 1455v-1332l-1 -1v-159q0 -188 -85 -287.5t-249 -99.5q-122 0 -229 37l53 244q43 -19 86 -19q85 0 85 129v10l-568 900h-4v-877h-339v1455h341l564 -899h4v899h342z" />
    <glyph glyph-name="eng" unicode="&#x14b;" horiz-adv-x="1154" 
d="M724 1021q74 0 133 -23.5t105.5 -73.5t72 -135t25.5 -200v-626q0 -124 -37 -211t-107.5 -131.5t-170.5 -44.5q-128 0 -229 37l53 244q43 -19 86 -19q85 0 85 129l-1 554q0 116 -31 165t-107 49q-36 0 -67.5 -15t-56 -43t-38.5 -73t-14 -102v-502h-320v1002h320v-121h5
q56 67 134 103.5t160 36.5z" />
    <glyph glyph-name="Omacron" unicode="&#x14c;" horiz-adv-x="1642" 
d="M504 1641v249h641v-249h-641zM823 -20q-164 0 -304 55.5t-237.5 153.5t-152.5 237t-55 301t55 301t152.5 237.5t237.5 154t304 55.5q161 0 299.5 -54.5t236.5 -152t154 -237t56 -304.5q0 -164 -56 -303.5t-154 -237t-236.5 -152t-299.5 -54.5zM823 300q111 0 200.5 56
t139 153.5t49.5 217.5t-49.5 218t-139 154t-200.5 56q-113 0 -203 -57t-139.5 -154.5t-49.5 -216.5q0 -118 49.5 -215.5t139.5 -154.5t203 -57z" />
    <glyph glyph-name="omacron" unicode="&#x14d;" horiz-adv-x="1195" 
d="M279 1182v249h641v-249h-641zM598 -20q-119 0 -220 38.5t-171.5 107t-110 165t-39.5 209.5t39.5 209.5t110 165t171.5 107.5t220 39q157 0 280 -65.5t191.5 -184.5t68.5 -271t-68.5 -270.5t-191.5 -184t-280 -65.5zM598 265q92 0 154.5 66.5t62.5 168.5
q0 104 -61.5 169.5t-155.5 65.5q-96 0 -157 -66t-61 -169q0 -101 62 -168t156 -67z" />
    <glyph glyph-name="Obreve" unicode="&#x14e;" horiz-adv-x="1642" 
d="M824 1583q-68 0 -129 21t-109 61t-78.5 101t-36.5 137h236q4 -49 35 -81t82 -32q49 0 81.5 30t35.5 83h236q-11 -139 -105.5 -229.5t-247.5 -90.5zM823 -20q-164 0 -304 55.5t-237.5 153.5t-152.5 237t-55 301t55 301t152.5 237.5t237.5 154t304 55.5q161 0 299.5 -54.5
t236.5 -152t154 -237t56 -304.5q0 -164 -56 -303.5t-154 -237t-236.5 -152t-299.5 -54.5zM823 300q111 0 200.5 56t139 153.5t49.5 217.5t-49.5 218t-139 154t-200.5 56q-113 0 -203 -57t-139.5 -154.5t-49.5 -216.5q0 -118 49.5 -215.5t139.5 -154.5t203 -57z" />
    <glyph glyph-name="obreve" unicode="&#x14f;" horiz-adv-x="1195" 
d="M599 1124q-92 0 -168 36t-126.5 110t-58.5 174h236q2 -19 7.5 -35.5t15.5 -31t23.5 -24.5t31.5 -16t39 -6q49 0 81.5 30t35.5 83h236q-11 -139 -105.5 -229.5t-247.5 -90.5zM598 -20q-119 0 -220 38.5t-171.5 107t-110 165t-39.5 209.5t39.5 209.5t110 165t171.5 107.5
t220 39q157 0 280 -65.5t191.5 -184.5t68.5 -271t-68.5 -270.5t-191.5 -184t-280 -65.5zM598 265q92 0 154.5 66.5t62.5 168.5q0 104 -61.5 169.5t-155.5 65.5q-96 0 -157 -66t-61 -169q0 -101 62 -168t156 -67z" />
    <glyph glyph-name="Ohungarumlaut" unicode="&#x150;" horiz-adv-x="1642" 
d="M455 1597l227 306l316 2l-253 -308h-290zM910 1597l226 306l316 2l-253 -308h-289zM823 -20q-164 0 -304 55.5t-237.5 153.5t-152.5 237t-55 301t55 301t152.5 237.5t237.5 154t304 55.5q161 0 299.5 -54.5t236.5 -152t154 -237t56 -304.5q0 -164 -56 -303.5t-154 -237
t-236.5 -152t-299.5 -54.5zM823 300q111 0 200.5 56t139 153.5t49.5 217.5t-49.5 218t-139 154t-200.5 56q-113 0 -203 -57t-139.5 -154.5t-49.5 -216.5q0 -118 49.5 -215.5t139.5 -154.5t203 -57z" />
    <glyph glyph-name="ohungarumlaut" unicode="&#x151;" 
d="M198 1137l227 306l316 2l-253 -308h-290zM653 1137l226 306l316 2l-253 -308h-289zM598 -20q-119 0 -220 38.5t-171.5 107t-110 165t-39.5 209.5t39.5 209.5t110 165t171.5 107.5t220 39q157 0 280 -65.5t191.5 -184.5t68.5 -271t-68.5 -270.5t-191.5 -184t-280 -65.5z
M598 265q92 0 154.5 66.5t62.5 168.5q0 104 -61.5 169.5t-155.5 65.5q-96 0 -157 -66t-61 -169q0 -101 62 -168t156 -67z" />
    <glyph glyph-name="OE" unicode="&#x152;" horiz-adv-x="1937" 
d="M1212 305h653v-305h-1045q-163 0 -303 55t-237 151.5t-151.5 231t-54.5 289.5t54.5 290t151.5 231.5t237 151.5t303 55h1004v-305h-612v-282h490v-294h-490v-269zM820 318l63 1v818h-63q-110 0 -199.5 -54.5t-139.5 -148.5t-50 -207q0 -112 50 -206t139.5 -149t199.5 -54
z" />
    <glyph glyph-name="oe" unicode="&#x153;" horiz-adv-x="1663" 
d="M1616 506q0 -52 -9 -95h-604q20 -79 71 -123t125 -44q100 0 171 81l205 -156q-43 -56 -98.5 -96.5t-133.5 -66.5t-166 -26q-203 0 -335 132h-4q-40 -42 -89 -71.5t-106 -45t-118 -15.5q-137 0 -243.5 64.5t-165.5 183t-59 272.5q0 115 36.5 213t100 165.5t152 105.5
t189.5 38q86 0 163 -33t136 -94h9q129 127 328 127q127 0 228.5 -66.5t159 -184.5t57.5 -265zM1169 761q-63 0 -107.5 -40t-60.5 -120h314q-13 78 -52 119t-94 41zM531 264q67 0 113 67t46 169q0 104 -43.5 170t-112.5 66q-63 0 -108.5 -66t-45.5 -170q0 -105 42.5 -170.5
t108.5 -65.5z" />
    <glyph glyph-name="Racute" unicode="&#x154;" horiz-adv-x="1319" 
d="M962 1905l-253 -308h-301l228 306zM1285 0h-403l-298 469h-120v-469h-337v1455h567q131 0 232 -37.5t163 -105.5t93.5 -158.5t31.5 -200.5q0 -162 -70 -272t-200 -164v-5zM464 1152v-383h158q110 0 173.5 51.5t63.5 140.5q0 85 -60.5 138t-170.5 53h-164z" />
    <glyph glyph-name="racute" unicode="&#x155;" horiz-adv-x="752" 
d="M771 1446l-253 -308h-301l228 306zM429 868q57 74 132 113.5t158 39.5q8 0 11 -1v-345q-29 2 -75 2q-74 0 -126.5 -29.5t-78 -80.5t-25.5 -117v-450h-320v1002h320v-134h4z" />
    <glyph glyph-name="Rcommaaccent" unicode="&#x156;" horiz-adv-x="1319" 
d="M944 512l341 -512h-403l-298 469h-120v-469h-337v1455h567q131 0 232 -37.5t163 -105.5t93.5 -158.5t31.5 -200.5q0 -162 -70 -272t-200 -164v-5zM464 1152v-383h158q110 0 173.5 51.5t63.5 140.5q0 85 -60.5 138t-170.5 53h-164zM526 -109h261q11 -37 11 -85
q0 -124 -80 -189.5t-231 -69.5l-59 174q60 13 86 34.5t26 61.5q0 27 -14 74z" />
    <glyph glyph-name="rcommaaccent" unicode="&#x157;" horiz-adv-x="752" 
d="M719 1021q8 0 11 -1v-345q-29 2 -75 2q-74 0 -126.5 -29.5t-78 -80.5t-25.5 -117v-450h-320v1002h320v-134h4q38 50 84.5 84t98.5 51.5t107 17.5zM131 -109h261q11 -37 11 -85q0 -83 -36.5 -140t-105.5 -86.5t-169 -32.5l-59 174q60 13 86 34.5t26 61.5q0 27 -14 74z" />
    <glyph glyph-name="Rcaron" unicode="&#x158;" horiz-adv-x="1319" 
d="M782 1593h-279l-229 312h285l80 -138h7l81 138h283zM1285 0h-403l-298 469h-120v-469h-337v1455h567q131 0 232 -37.5t163 -105.5t93.5 -158.5t31.5 -200.5q0 -162 -70 -272t-200 -164v-5zM464 1152v-383h158q110 0 173.5 51.5t63.5 140.5q0 85 -60.5 138t-170.5 53h-164
z" />
    <glyph glyph-name="rcaron" unicode="&#x159;" horiz-adv-x="752" 
d="M591 1134h-279l-229 312h285l80 -138h7l81 138h283zM429 868q57 74 132 113.5t158 39.5q8 0 11 -1v-345q-29 2 -75 2q-74 0 -126.5 -29.5t-78 -80.5t-25.5 -117v-450h-320v1002h320v-134h4z" />
    <glyph glyph-name="Sacute" unicode="&#x15a;" horiz-adv-x="1158" 
d="M413 1597l228 306l326 2l-253 -308h-301zM572 -20q-145 0 -283.5 58t-253.5 174l202 250q79 -86 170.5 -130t172.5 -44q57 0 95 16.5t53.5 42.5t15.5 60q0 59 -45 93.5t-172 76.5q-53 18 -94.5 34.5t-89.5 41t-83.5 50t-70 61t-56 75.5t-35 92t-13.5 112
q0 119 63.5 217.5t173 155t240.5 58.5q273 4 506 -190l-195 -254q-174 140 -300 140q-61 0 -96.5 -30t-36.5 -83q-1 -48 43.5 -80.5t168.5 -80.5q184 -71 248 -107q134 -75 177 -188q25 -67 25 -154q0 -99 -33 -180t-86.5 -133t-124 -88t-142 -51t-144.5 -15z" />
    <glyph glyph-name="sacute" unicode="&#x15b;" horiz-adv-x="893" 
d="M260 1138l228 306l326 2l-253 -308h-301zM440 -20q-242 0 -412 149l152 215q121 -114 263 -114q29 0 49 6.5t30.5 19t10.5 30.5q0 20 -32.5 38.5t-121.5 46.5q-38 12 -70 24.5t-65 30t-58.5 36.5t-48.5 44.5t-38.5 54.5t-24 65.5t-8.5 78.5q0 95 50 167.5t135 110.5
t191 38q74 0 138 -14t122 -41.5t117 -71.5l-152 -229q-51 51 -112 78t-114 27q-27 0 -49 -12t-22 -39q0 -19 30.5 -39t100.5 -45q38 -14 63.5 -23.5t56.5 -22.5t51.5 -23.5t44 -24.5t38.5 -27t31 -30.5t25 -35.5t17 -40.5t11.5 -48t3.5 -55.5q0 -71 -25 -129.5t-74 -102
t-126.5 -68t-177.5 -24.5z" />
    <glyph glyph-name="Scircumflex" unicode="&#x15c;" horiz-adv-x="1158" 
d="M572 1733l-80 -140h-284l222 312h279l235 -312h-285l-83 140h-4zM652 896q184 -71 248 -107q134 -75 177 -188q25 -67 25 -154q0 -99 -33 -180t-86.5 -133t-124 -88t-142 -51t-144.5 -15q-145 0 -283.5 58t-253.5 174l202 250q79 -86 170.5 -130t172.5 -44q84 0 124 33
t40 86q0 59 -45 93.5t-172 76.5q-53 18 -94.5 34.5t-89.5 41t-83.5 50t-70 61t-56 75.5t-35 92t-13.5 112q0 119 63.5 217.5t173 155t240.5 58.5q273 4 506 -190l-195 -254q-174 140 -300 140q-61 0 -96.5 -30t-36.5 -83q-1 -48 43.5 -80.5t168.5 -80.5z" />
    <glyph glyph-name="scircumflex" unicode="&#x15d;" horiz-adv-x="893" 
d="M451 1274l-80 -140h-284l222 312h279l235 -312h-285l-83 140h-4zM501 635q43 -16 70.5 -26.5t61.5 -24.5t55 -26t45.5 -28.5t39.5 -32.5t30 -36.5t22.5 -43.5t12.5 -51.5t5 -61.5q0 -146 -103 -235t-300 -89q-242 0 -412 149l152 215q121 -114 263 -114q29 0 49 6.5
t30.5 19t10.5 30.5q0 20 -32.5 38.5t-121.5 46.5q-38 12 -70 24.5t-65 30t-58.5 36.5t-48.5 44.5t-38.5 54.5t-24 65.5t-8.5 78.5q0 95 50 167.5t135 110.5t191 38q74 0 138 -14t122 -41.5t117 -71.5l-152 -229q-51 51 -112 78t-114 27q-27 0 -49 -12t-22 -39
q0 -19 30.5 -39t100.5 -45z" />
    <glyph glyph-name="Scedilla" unicode="&#x15e;" horiz-adv-x="1158" 
d="M1102 447q0 -94 -30 -172t-79 -130t-114.5 -88.5t-133 -54t-138.5 -21.5l-25 -43q90 -3 140.5 -45.5t50.5 -120.5q0 -77 -63.5 -121.5t-195.5 -44.5q-69 0 -131 12v130q45 -14 108 -14q23 0 41.5 4t33 17t14.5 33q0 29 -42.5 45.5t-119.5 16.5v77l33 63q-236 40 -416 222
l202 250q79 -86 170.5 -130t172.5 -44q57 0 95 16.5t53.5 42.5t15.5 60q0 59 -45 93.5t-172 76.5q-53 18 -94.5 34.5t-89.5 41t-83.5 50t-70 61t-56 75.5t-35 92t-13.5 112q0 119 63.5 217.5t173 155t240.5 58.5q273 4 506 -190l-195 -254q-174 140 -300 140
q-61 0 -96.5 -30t-36.5 -83q-1 -48 43.5 -80.5t168.5 -80.5q184 -71 248 -107q134 -75 177 -188q25 -67 25 -154z" />
    <glyph glyph-name="scedilla" unicode="&#x15f;" horiz-adv-x="893" 
d="M843 304q0 -139 -94 -227t-274 -96l-25 -43q90 -3 140.5 -45.5t50.5 -120.5q0 -77 -63.5 -121.5t-195.5 -44.5q-69 0 -131 12v130q46 -14 108 -14q36 0 62.5 12.5t26.5 41.5q0 19 -19 33t-55.5 21.5t-87.5 7.5v77l33 63q-166 29 -291 139l152 215q121 -114 263 -114
q29 0 49 6.5t30.5 19t10.5 30.5q0 14 -12.5 25.5t-46.5 26t-95 33.5q-45 14 -81.5 29.5t-73.5 36t-64.5 47t-49 58.5t-33 73.5t-11.5 89.5q0 95 50 167.5t135 110.5t191 38q109 0 199 -30.5t178 -96.5l-152 -229q-51 51 -112 78t-114 27q-27 0 -49 -12t-22 -39
q0 -19 30.5 -39t100.5 -45q38 -14 63.5 -23.5t56.5 -22.5t51.5 -23.5t44 -24.5t38.5 -27t31 -30.5t25 -35.5t17 -40.5t11.5 -48t3.5 -55.5z" />
    <glyph glyph-name="Scaron" unicode="&#x160;" horiz-adv-x="1158" 
d="M716 1593h-279l-229 312h285l80 -138h7l81 138h283zM652 896q184 -71 248 -107q134 -75 177 -188q25 -67 25 -154q0 -99 -33 -180t-86.5 -133t-124 -88t-142 -51t-144.5 -15q-145 0 -283.5 58t-253.5 174l202 250q79 -86 170.5 -130t172.5 -44q57 0 95 16.5t53.5 42.5
t15.5 60q0 59 -45 93.5t-172 76.5q-53 18 -94.5 34.5t-89.5 41t-83.5 50t-70 61t-56 75.5t-35 92t-13.5 112q0 119 63.5 217.5t173 155t240.5 58.5q273 4 506 -190l-195 -254q-174 140 -300 140q-61 0 -96.5 -30t-36.5 -83q-1 -48 43.5 -80.5t168.5 -80.5z" />
    <glyph glyph-name="scaron" unicode="&#x161;" horiz-adv-x="893" 
d="M595 1134h-279l-229 312h285l80 -138h7l81 138h283zM501 635q43 -16 70.5 -26.5t61.5 -24.5t55 -26t45.5 -28.5t39.5 -32.5t30 -36.5t22.5 -43.5t12.5 -51.5t5 -61.5q0 -146 -103 -235t-300 -89q-242 0 -412 149l152 215q121 -114 263 -114q29 0 49 6.5t30.5 19
t10.5 30.5q0 20 -32.5 38.5t-121.5 46.5q-38 12 -70 24.5t-65 30t-58.5 36.5t-48.5 44.5t-38.5 54.5t-24 65.5t-8.5 78.5q0 95 50 167.5t135 110.5t191 38q74 0 138 -14t122 -41.5t117 -71.5l-152 -229q-51 51 -112 78t-114 27q-27 0 -49 -12t-22 -39q0 -19 30.5 -39
t100.5 -45z" />
    <glyph glyph-name="uni0162" unicode="&#x162;" horiz-adv-x="1192" 
d="M766 0h-138l-36 -62q90 -3 140.5 -45.5t50.5 -120.5q0 -77 -63.5 -121.5t-195.5 -44.5q-69 0 -131 12v130q45 -14 108 -14q36 0 62.5 12.5t26.5 41.5q0 19 -19 33t-55.5 21.5t-87.5 7.5v77l39 73h-42v1149h-384v306h1109v-306h-384v-1149z" />
    <glyph glyph-name="uni0163" unicode="&#x163;" horiz-adv-x="756" 
d="M410 -62q60 -2 102.5 -21.5t65.5 -56t23 -88.5q0 -77 -63.5 -121.5t-195.5 -44.5q-69 0 -131 12v130q46 -14 108 -14q23 0 41.5 4t33 17t14.5 33q0 29 -42.5 45.5t-119.5 16.5v77l45 84q-73 36 -113 112.5t-40 191.5v426h-113v261h113v320l320 34v-354h243v-261h-243
v-366q0 -54 16.5 -84t59.5 -30q50 0 99 25l79 -236q-40 -22 -72.5 -35.5t-85.5 -23.5t-119 -10z" />
    <glyph glyph-name="Tcaron" unicode="&#x164;" horiz-adv-x="1192" 
d="M734 1593h-279l-229 312h285l80 -138h7l81 138h283zM41 1455h1109v-306h-384v-1149h-341v1149h-384v306z" />
    <glyph glyph-name="tcaron" unicode="&#x165;" horiz-adv-x="756" 
d="M541 1180l67 445h301l-145 -445h-223zM432 -19q-134 0 -214 85t-80 249v426h-113v261h113v320l320 34v-354h243v-261h-243v-366q0 -54 16.5 -84t59.5 -30q50 0 99 25l79 -236q-61 -34 -122.5 -51.5t-157.5 -17.5z" />
    <glyph glyph-name="Tbar" unicode="&#x166;" horiz-adv-x="1192" 
d="M1150 1149h-384v-294h241v-263h-241v-592h-341v592h-227v263h227v294h-384v306h1109v-306z" />
    <glyph glyph-name="tbar" unicode="&#x167;" horiz-adv-x="756" 
d="M633 286l79 -236q-61 -34 -122.5 -51.5t-157.5 -17.5q-134 0 -214 84.5t-80 249.5v115h-98v195h98v116h-113v261h113v320l320 34v-354h243v-261h-243v-116h193v-195h-193v-55q0 -54 16.5 -84t59.5 -30q50 0 99 25z" />
    <glyph glyph-name="Utilde" unicode="&#x168;" horiz-adv-x="1426" 
d="M488 1578l-187 80q35 116 102.5 186.5t160.5 70.5q41 0 79 -10t52.5 -17.5t48.5 -26.5q16 -10 25.5 -15.5t23.5 -11.5t26.5 -9t26.5 -3q69 0 114 95l184 -61q-34 -125 -101 -201t-157 -76q-52 0 -93.5 15t-85.5 41q-25 14 -37.5 20.5t-32.5 13t-38 6.5q-69 0 -111 -97z
M711 -20q-135 0 -245.5 41.5t-189.5 120t-122 197.5t-43 268v848h345v-826q0 -68 16.5 -127t47.5 -104t80 -71t111 -26q115 0 187.5 88t72.5 240v826h344v-848q0 -190 -69.5 -331t-206.5 -218.5t-328 -77.5z" />
    <glyph glyph-name="utilde" unicode="&#x169;" horiz-adv-x="1159" 
d="M467 1216q-69 0 -111 -97l-187 80q35 116 102.5 186.5t160.5 70.5q41 0 79 -10t52.5 -17.5t48.5 -26.5q22 -13 34 -20t31 -13t37 -6q69 0 114 95l184 -61q-34 -125 -101 -201t-157 -76q-52 0 -93.5 15t-85.5 41q-25 14 -37.5 20.5t-32.5 13t-38 6.5zM739 1002h321v-1002
h-321v113h-5q-110 -132 -283 -132q-361 0 -361 427v594h320v-515q0 -120 35.5 -170.5t117.5 -50.5q76 0 126 61.5t50 178.5v496z" />
    <glyph glyph-name="Umacron" unicode="&#x16a;" horiz-adv-x="1426" 
d="M393 1641v249h641v-249h-641zM711 -20q-135 0 -245.5 41.5t-189.5 120t-122 197.5t-43 268v848h345v-826q0 -68 16.5 -127t47.5 -104t80 -71t111 -26q115 0 187.5 88t72.5 240v826h344v-848q0 -190 -69.5 -331t-206.5 -218.5t-328 -77.5z" />
    <glyph glyph-name="umacron" unicode="&#x16b;" horiz-adv-x="1159" 
d="M902 1431v-249h-641v249h641zM739 1002h321v-1002h-321v113h-5q-110 -132 -283 -132q-361 0 -361 427v594h320v-515q0 -120 35.5 -170.5t117.5 -50.5q76 0 126 61.5t50 178.5v496z" />
    <glyph glyph-name="Ubreve" unicode="&#x16c;" horiz-adv-x="1426" 
d="M713 1583q-92 0 -168 36t-126.5 110t-58.5 174h236q4 -49 35 -81t82 -32q49 0 81.5 30t35.5 83h236q-11 -139 -105.5 -229.5t-247.5 -90.5zM711 -20q-274 0 -437 164.5t-163 462.5v848h345v-826q0 -141 66.5 -234.5t188.5 -93.5q115 0 187.5 88t72.5 240v826h344v-848
q0 -190 -69.5 -331t-206.5 -218.5t-328 -77.5z" />
    <glyph glyph-name="ubreve" unicode="&#x16d;" horiz-adv-x="1159" 
d="M581 1124q-92 0 -168 36t-126.5 110t-58.5 174h236q2 -24 10.5 -44t23 -35.5t36 -24.5t47.5 -9q32 0 57.5 13t41.5 39t18 61h236q-11 -139 -105.5 -229.5t-247.5 -90.5zM739 1002h321v-1002h-321v113h-5q-110 -132 -283 -132q-361 0 -361 427v594h320v-515
q0 -120 35.5 -170.5t117.5 -50.5q76 0 126 61.5t50 178.5v496z" />
    <glyph glyph-name="Uring" unicode="&#x16e;" horiz-adv-x="1426" 
d="M713 1547q-97 0 -164.5 63.5t-67.5 160.5q0 61 28.5 112t82 81t121.5 30q97 0 164.5 -63t67.5 -160q0 -94 -65 -159t-167 -65zM712 1702q31 0 52 21t21 52q0 11 -3.5 22t-10.5 19.5t-15.5 15.5t-20 10.5t-23.5 3.5q-19 0 -35.5 -10.5t-26 -27t-9.5 -35.5q0 -30 21 -50.5
t50 -20.5zM711 -20q-135 0 -245.5 41.5t-189.5 120t-122 197.5t-43 268v848h345v-826q0 -68 16.5 -127t47.5 -104t80 -71t111 -26q115 0 187.5 88t72.5 240v826h344v-848q0 -190 -69.5 -331t-206.5 -218.5t-328 -77.5z" />
    <glyph glyph-name="uring" unicode="&#x16f;" horiz-adv-x="1159" 
d="M581 1088q-97 0 -164.5 63.5t-67.5 160.5q0 94 65 158.5t167 64.5q97 0 164.5 -63t67.5 -160q0 -46 -17 -87t-47 -71.5t-73.5 -48t-94.5 -17.5zM580 1387q-19 0 -35.5 -10.5t-26 -27t-9.5 -35.5q0 -30 21 -50.5t50 -20.5q31 0 52 21t21 52q0 29 -21.5 50t-51.5 21z
M739 1002h321v-1002h-321v113h-5q-109 -132 -283 -132q-361 0 -361 427v594h320v-515q0 -120 35.5 -170.5t117.5 -50.5q76 0 126 61.5t50 178.5v496z" />
    <glyph glyph-name="Uhungarumlaut" unicode="&#x170;" horiz-adv-x="1430" 
d="M322 1597l227 306l316 2l-253 -308h-290zM777 1597l226 306l316 2l-253 -308h-289zM711 -20q-135 0 -245.5 41.5t-189.5 120t-122 197.5t-43 268v848h345v-826q0 -68 16.5 -127t47.5 -104t80 -71t111 -26q115 0 187.5 88t72.5 240v826h344v-848q0 -190 -69.5 -331
t-206.5 -218.5t-328 -77.5z" />
    <glyph glyph-name="uhungarumlaut" unicode="&#x171;" horiz-adv-x="1163" 
d="M739 1445l-253 -308h-290l227 306zM940 1137h-289l226 306l316 2zM739 506v496h321v-1002h-321v113h-5q-110 -132 -283 -132q-361 0 -361 427v594h320v-515q0 -120 35.5 -170.5t117.5 -50.5q76 0 126 61.5t50 178.5z" />
    <glyph glyph-name="Uogonek" unicode="&#x172;" horiz-adv-x="1426" 
d="M971 1455h344v-848q0 -236 -107.5 -394.5t-307.5 -209.5q-67 -21 -112 -58.5t-45 -85.5q0 -15 5.5 -28t15 -22t24 -14t31.5 -5q39 0 74 11l14 -164q-59 -24 -154 -24q-113 0 -179.5 54t-66.5 140q0 44 23.5 91.5t69.5 85.5v4q-227 32 -358 192.5t-131 426.5v848h345v-826
q0 -68 16.5 -127t47.5 -104t80 -71t111 -26q115 0 187.5 88t72.5 240v826z" />
    <glyph glyph-name="uogonek" unicode="&#x173;" horiz-adv-x="1159" 
d="M1027 0q-77 -8 -125.5 -49.5t-48.5 -88.5q0 -37 20 -57t56 -20q39 0 74 11l14 -164q-59 -24 -154 -24q-113 0 -179.5 54t-66.5 140q0 33 12.5 67t41 69.5t68.5 62.5v112h-5q-110 -132 -283 -132q-361 0 -361 427v594h320v-515q0 -120 35.5 -170.5t117.5 -50.5
q76 0 126 61.5t50 178.5v496h321v-1002h-33z" />
    <glyph glyph-name="Wcircumflex" unicode="&#x174;" horiz-adv-x="2090" 
d="M1044 1733l-80 -140h-284l222 312h279l235 -312h-285l-83 140h-4zM1698 1455h365l-455 -1455h-313l-244 957h-3l-253 -957h-313l-455 1455h365l246 -893h3l225 893h361l222 -893h3z" />
    <glyph glyph-name="wcircumflex" unicode="&#x175;" horiz-adv-x="1559" 
d="M775 1274l-80 -140h-284l222 312h279l235 -312h-285l-83 140h-4zM1222 1002h318l-339 -1002h-267l-155 558h-3l-152 -558h-267l-339 1002h319l164 -537h4l148 537h251l149 -538h4z" />
    <glyph glyph-name="Ycircumflex" unicode="&#x176;" horiz-adv-x="1292" 
d="M644 1733l-80 -140h-284l222 312h279l235 -312h-285l-83 140h-4zM900 1455h396l-478 -822v-633h-347v633l-475 822h392l255 -482h6z" />
    <glyph glyph-name="ycircumflex" unicode="&#x177;" horiz-adv-x="1090" 
d="M544 1274l-80 -140h-284l222 312h279l235 -312h-285l-83 140h-4zM747 1002h328l-526 -1407h-317l173 473l-391 934h332l204 -543h5z" />
    <glyph glyph-name="Ydieresis" unicode="&#x178;" horiz-adv-x="1292" 
d="M418 1580q-85 0 -142.5 52.5t-57.5 134.5q0 81 57.5 133.5t142.5 52.5t142.5 -52.5t57.5 -133.5q0 -82 -57.5 -134.5t-142.5 -52.5zM875 1580q-55 0 -100.5 23.5t-72.5 66.5t-27 97q0 81 57.5 133.5t142.5 52.5q55 0 100.5 -23.5t72.5 -66t27 -96.5t-27 -97t-72.5 -66.5
t-100.5 -23.5zM900 1455h396l-478 -822v-633h-347v633l-475 822h392l255 -482h6z" />
    <glyph glyph-name="Zacute" unicode="&#x179;" horiz-adv-x="1248" 
d="M940 1905l-253 -308h-301l228 306zM1166 1195l-648 -883v-7h648v-305h-1086v267l630 877v5h-608v306h1064v-260z" />
    <glyph glyph-name="zacute" unicode="&#x17a;" horiz-adv-x="971" 
d="M812 1446l-253 -308h-301l228 306zM918 790l-443 -528v-4h426v-258h-845v214l433 527v4h-395v257h824v-212z" />
    <glyph glyph-name="Zdotaccent" unicode="&#x17b;" horiz-adv-x="1248" 
d="M620 1580q-85 0 -142.5 52.5t-57.5 134.5q0 81 57.5 133.5t142.5 52.5t142.5 -52.5t57.5 -133.5q0 -82 -57.5 -134.5t-142.5 -52.5zM1166 1195l-648 -883v-7h648v-305h-1086v267l630 877v5h-608v306h1064v-260z" />
    <glyph glyph-name="zdotaccent" unicode="&#x17c;" horiz-adv-x="971" 
d="M492 1121q-85 0 -142.5 52.5t-57.5 134.5q0 54 27 96.5t72.5 66t100.5 23.5q85 0 142.5 -52.5t57.5 -133.5q0 -82 -57.5 -134.5t-142.5 -52.5zM918 790l-443 -528v-4h426v-258h-845v214l433 527v4h-395v257h824v-212z" />
    <glyph glyph-name="Zcaron" unicode="&#x17d;" horiz-adv-x="1248" 
d="M760 1593h-279l-229 312h285l80 -138h7l81 138h283zM1166 1195l-648 -883v-7h648v-305h-1086v267l630 877v5h-608v306h1064v-260z" />
    <glyph glyph-name="zcaron" unicode="&#x17e;" horiz-adv-x="971" 
d="M632 1134h-279l-229 312h285l80 -138h7l81 138h283zM918 790l-443 -528v-4h426v-258h-845v214l433 527v4h-395v257h824v-212z" />
    <glyph glyph-name="longs" unicode="&#x17f;" horiz-adv-x="697" 
d="M141 0v741h-98v261h98v156q0 182 87.5 275.5t241.5 93.5q88 0 160 -25t110 -52l-59 -230q-70 35 -127 35q-93 0 -93 -109v-1146h-320z" />
    <glyph glyph-name="uni018F" unicode="&#x18f;" horiz-adv-x="1467" 
d="M677 1474q158 0 291 -54t227 -151.5t146 -238.5t52 -309q0 -161 -50 -299t-137.5 -235t-210.5 -151.5t-265 -54.5q-147 0 -270 52t-209 145t-134 228t-48 296q0 74 8 112h963q-15 105 -61 183t-118.5 119.5t-164.5 41.5q-161 0 -307 -78l-166 278q218 116 454 116z
M716 298q71 0 130 27t103 78.5t68 124.5h-595q35 -108 110 -169t184 -61z" />
    <glyph glyph-name="florin" unicode="&#x192;" horiz-adv-x="1109" 
d="M210 -345q-121 0 -202.5 29t-112.5 60l108 213q82 -24 145 -24q61 0 95.5 37.5t46.5 126.5l77 603h-152l37 263h152l27 201q23 178 122.5 270.5t275.5 92.5q119 0 200.5 -29.5t115.5 -59.5l-110 -214q-91 25 -145 25q-61 0 -95.5 -38t-45.5 -128l-15 -120h255l-36 -263
h-256l-88 -682q-13 -90 -42.5 -157t-78.5 -113.5t-118.5 -69.5t-159.5 -23z" />
    <glyph glyph-name="uni019D" unicode="&#x19d;" horiz-adv-x="1504" 
d="M1035 1455h342v-1455h-353l-552 872h-4v-909q0 -125 -38 -211.5t-113.5 -131t-185.5 -44.5q-122 0 -229 37l53 244q43 -19 87 -19q85 0 85 129v1488h343l561 -894h4v894z" />
    <glyph glyph-name="Ohorn" unicode="&#x1a0;" horiz-adv-x="1736" 
d="M1461 1587h273v-156q0 -96 -28.5 -168t-81 -117t-128.5 -67l-1 -4q74 -156 74 -348q0 -164 -56 -303.5t-154 -237t-236.5 -152t-299.5 -54.5q-164 0 -304 55.5t-237.5 153.5t-152.5 237t-55 301t55 301t152.5 237.5t237.5 154t304 55.5q177 0 325 -65t250 -184
q39 24 51 70t12 128v163zM823 300q111 0 200.5 56t139 153.5t49.5 217.5t-49.5 218t-139 154t-200.5 56q-113 0 -203 -57t-139.5 -154.5t-49.5 -216.5q0 -118 49.5 -215.5t139.5 -154.5t203 -57z" />
    <glyph glyph-name="ohorn" unicode="&#x1a1;" horiz-adv-x="1386" 
d="M1104 1159h273v-156q0 -148 -66 -237t-188 -120l-2 -4q17 -68 17 -142q0 -152 -68.5 -270.5t-191.5 -184t-280 -65.5q-95 0 -179.5 24.5t-150 71t-113.5 110t-73 144t-25 170.5q0 113 39.5 209.5t110 165t171.5 107.5t220 39q146 0 263 -57t188 -160q23 17 35.5 47
t16 61.5t3.5 83.5v163zM598 265q92 0 154.5 66.5t62.5 168.5q0 104 -61.5 169.5t-155.5 65.5q-96 0 -157 -66t-61 -169q0 -101 62 -168t156 -67z" />
    <glyph glyph-name="Uhorn" unicode="&#x1af;" horiz-adv-x="1688" 
d="M1443 1587h273v-156q0 -189 -106 -282t-295 -91v-451q0 -190 -69.5 -331t-206.5 -218.5t-328 -77.5q-135 0 -245.5 41.5t-189.5 120t-122 197.5t-43 268v848h345v-826q0 -68 16.5 -127t47.5 -104t80 -71t111 -26q115 0 187.5 88t72.5 240v826h344v-251q34 6 58 19.5
t37.5 30.5t21 45.5t9.5 55.5t2 69v163z" />
    <glyph glyph-name="uhorn" unicode="&#x1b0;" horiz-adv-x="1444" 
d="M1166 1159h273v-156q0 -183 -100 -276t-279 -97v-630h-321v113h-5q-110 -132 -283 -132q-361 0 -361 427v594h320v-515q0 -120 35.5 -170.5t117.5 -50.5q76 0 126 61.5t50 178.5v496h321v-221q24 6 41.5 16t29 25.5t18.5 32t11 40.5t5 46.5t1 54.5v163z" />
    <glyph glyph-name="Gcaron" unicode="&#x1e6;" horiz-adv-x="1498" 
d="M930 1591h-279l-229 312h285l80 -138h7l81 138h283zM793 815h608v-654q-100 -79 -256.5 -128t-321.5 -49q-126 0 -239 31t-206 93.5t-161 150.5t-105.5 207t-37.5 258q0 159 50.5 296t143 238t232.5 159t310 58q106 0 212 -28.5t205 -88t171 -143.5l-242 -206
q-148 144 -347 144q-77 0 -145.5 -29t-120 -83t-82 -136t-30.5 -181q0 -88 27 -166t76.5 -136t124 -92t164.5 -34q130 0 249 65v165h-279v289z" />
    <glyph glyph-name="gcaron" unicode="&#x1e7;" horiz-adv-x="1209" 
d="M738 1134h-279l-229 312h285l80 -138h7l81 138h283zM789 1002h321v-870q0 -72 -8.5 -134t-27.5 -119t-48.5 -103t-73 -83.5t-98.5 -63t-126.5 -39.5t-157.5 -14q-124 0 -223 22.5t-190 73.5l72 259q149 -87 306 -87q125 0 193.5 54t68.5 136v95h-5q-103 -109 -276 -109
q-133 0 -238.5 63t-164.5 175.5t-59 252.5q0 146 58 262.5t159.5 182t227.5 65.5q173 0 285 -118h5v99zM591 305q92 0 152 60.5t60 155.5q0 94 -61 154t-151 60q-93 0 -153.5 -60t-60.5 -155q0 -96 61 -155.5t153 -59.5z" />
    <glyph glyph-name="uni01EA" unicode="&#x1ea;" horiz-adv-x="1642" 
d="M938 -13q-53 -18 -84 -53.5t-31 -71.5q0 -37 20 -57t56 -20q39 0 74 11l14 -164q-59 -24 -154 -24q-113 0 -179.5 54t-66.5 140q0 45 25.5 94.5t74.5 88.5v5q-183 28 -322 128t-215 258t-76 351q0 162 55 301t152.5 237.5t237.5 154t304 55.5q161 0 299.5 -54.5
t236.5 -152t154 -237t56 -304.5q0 -149 -46.5 -278.5t-129 -225t-199.5 -157t-256 -79.5zM431 727q0 -118 49.5 -215.5t139.5 -154.5t203 -57q111 0 200.5 56t139 153.5t49.5 217.5t-49.5 218t-139 154t-200.5 56q-113 0 -203 -57t-139.5 -154.5t-49.5 -216.5z" />
    <glyph glyph-name="uni01EB" unicode="&#x1eb;" horiz-adv-x="1195" 
d="M667 -16q-48 -20 -76 -54t-28 -68q0 -37 20 -57t56 -20q39 0 74 11l14 -164q-59 -24 -154 -24q-113 0 -179.5 54t-66.5 140q0 31 11.5 64t37.5 67.5t63 60.5v5q-176 44 -279 179t-103 322q0 113 39.5 209.5t110 165t171.5 107.5t220 39q157 0 280 -65.5t191.5 -184.5
t68.5 -271q0 -212 -130 -353.5t-341 -162.5zM598 735q-64 0 -113.5 -30.5t-77 -84t-27.5 -120.5q0 -101 62 -168t156 -67q92 0 154.5 66.5t62.5 168.5q0 104 -61.5 169.5t-155.5 65.5z" />
    <glyph glyph-name="Aringacute" unicode="&#x1fa;" horiz-adv-x="1415" 
d="M713 1547q-97 0 -164.5 63.5t-67.5 160.5q0 61 28.5 112t82 81t121.5 30q88 0 150 -51l115 91l330 2l-365 -298q-12 -83 -75 -137t-155 -54zM712 1846q-19 0 -35.5 -10.5t-26 -27t-9.5 -35.5q0 -30 21 -50.5t50 -20.5q31 0 52 21t21 52q0 14 -5.5 27t-15.5 22.5
t-23.5 15.5t-28.5 6zM1048 0l-85 260h-511l-84 -260h-358l533 1455h328l535 -1455h-358zM546 550h323l-160 491h-4z" />
    <glyph glyph-name="aringacute" unicode="&#x1fb;" horiz-adv-x="1211" 
d="M605 1088q-97 0 -164.5 63.5t-67.5 160.5q0 94 65 158.5t167 64.5q86 0 150 -50l127 99l329 1l-376 -304q-11 -84 -74 -138.5t-156 -54.5zM604 1387q-19 0 -35.5 -10.5t-26 -27t-9.5 -35.5q0 -30 21 -50.5t50 -20.5q31 0 52 21t21 52q0 29 -21.5 50t-51.5 21zM791 896
v106h321v-1002h-304v108h-4q-97 -127 -278 -127q-102 0 -190 38t-150 105t-97 164t-35 212q0 113 35 210.5t96 165.5t145.5 106.5t180.5 38.5q169 0 276 -125h4zM592 263q90 0 151 65.5t61 170.5q0 68 -27.5 122.5t-76 85t-107.5 30.5q-93 0 -154 -66t-61 -172
q0 -105 60 -170.5t154 -65.5z" />
    <glyph glyph-name="AEacute" unicode="&#x1fc;" horiz-adv-x="1936" 
d="M1337 1905l-253 -308h-301l228 306zM1209 305h657v-305h-993v260h-394l-122 -260h-359l701 1455h1126v-306h-616v-278h495v-298h-495v-268zM615 550h258v543h-3z" />
    <glyph glyph-name="aeacute" unicode="&#x1fd;" horiz-adv-x="1610" 
d="M1201 1446l-253 -308h-301l228 306zM1565 506q0 -56 -8 -91h-644q21 -79 78.5 -123.5t141.5 -44.5q71 1 129.5 35t93.5 80l169 -192q-44 -55 -105.5 -96.5t-144 -67t-171.5 -25.5q-98 0 -183 36t-143 97h-4q-59 -60 -155 -96.5t-202 -36.5q-95 0 -167.5 23.5t-117.5 65.5
t-67.5 97.5t-22.5 122.5q0 152 100 234.5t310 83.5l152 1v7q0 84 -32.5 117.5t-101.5 33.5q-119 0 -228 -63l-134 221q30 17 80.5 36.5t137 39.5t163.5 20q104 0 177 -27t120 -92h4q122 119 305 119q100 0 187 -39t149.5 -107t98 -163.5t35.5 -205.5zM1088 759
q-63 0 -109.5 -38.5t-65.5 -114.5h338q-10 48 -31 82t-54.5 52.5t-77.5 18.5zM456 215q63 0 105.5 41t42.5 75v89l-117 -1q-142 -3 -142 -106q0 -22 7.5 -39.5t21 -30.5t35 -20.5t47.5 -7.5z" />
    <glyph glyph-name="Oslashacute" unicode="&#x1fe;" horiz-adv-x="1657" 
d="M1226 1903l-253 -308h-301l228 306zM1583 1382l-165 -181q151 -197 151 -474q0 -164 -56 -303.5t-154 -237t-236.5 -152t-299.5 -54.5q-236 0 -417 111l-156 -171l-153 142l151 165q-84 98 -129 225t-45 275q0 162 55 301t152.5 237.5t237.5 154t304 55.5q257 0 446 -132
l162 178zM431 727q0 -131 60 -234l546 597q-95 65 -214 65q-113 0 -203 -57t-139.5 -154.5t-49.5 -216.5zM1212 727q0 109 -42 202l-531 -583q84 -46 184 -46q111 0 200.5 56t139 153.5t49.5 217.5z" />
    <glyph glyph-name="oslashacute" unicode="&#x1ff;" horiz-adv-x="1195" 
d="M996 1446l-253 -308h-301l228 306zM1031 827q107 -135 107 -327q0 -152 -68.5 -270.5t-191.5 -184t-280 -65.5q-162 0 -286 69l-101 -110l-130 120l94 101q-118 140 -118 340q0 113 39.5 209.5t110 165t171.5 107.5t220 39q170 0 300 -77l108 116l129 -120zM380 500
q0 -53 18 -98l290 314q-43 19 -90 19q-96 0 -157 -66t-61 -169zM598 265q92 0 154.5 66.5t62.5 168.5q0 42 -11 81l-280 -303q33 -13 74 -13z" />
    <glyph glyph-name="Scommaaccent" unicode="&#x218;" horiz-adv-x="1158" 
d="M572 -20q-145 0 -283.5 58t-253.5 174l202 250q79 -86 170.5 -130t172.5 -44q57 0 95 16.5t53.5 42.5t15.5 60q0 59 -45 93.5t-172 76.5q-53 18 -94.5 34.5t-89.5 41t-83.5 50t-70 61t-56 75.5t-35 92t-13.5 112q0 119 63.5 217.5t173 155t240.5 58.5q273 4 506 -190
l-195 -254q-174 140 -300 140q-61 0 -96.5 -30t-36.5 -83q-1 -48 43.5 -80.5t168.5 -80.5q184 -71 248 -107q134 -75 177 -188q25 -67 25 -154q0 -99 -33 -180t-86.5 -133t-124 -88t-142 -51t-144.5 -15zM410 -453l-59 174q30 7 51 15t34.5 19.5t20 26.5t6.5 35q0 27 -14 74
h261q11 -37 11 -85q0 -124 -80 -189.5t-231 -69.5z" />
    <glyph glyph-name="scommaaccent" unicode="&#x219;" horiz-adv-x="893" 
d="M440 -20q-242 0 -412 149l152 215q121 -114 263 -114q29 0 49 6.5t30.5 19t10.5 30.5q0 20 -32.5 38.5t-121.5 46.5q-38 12 -70 24.5t-65 30t-58.5 36.5t-48.5 44.5t-38.5 54.5t-24 65.5t-8.5 78.5q0 95 50 167.5t135 110.5t191 38q74 0 138 -14t122 -41.5t117 -71.5
l-152 -229q-51 51 -112 78t-114 27q-27 0 -49 -12t-22 -39q0 -19 30.5 -39t100.5 -45q38 -14 63.5 -23.5t56.5 -22.5t51.5 -23.5t44 -24.5t38.5 -27t31 -30.5t25 -35.5t17 -40.5t11.5 -48t3.5 -55.5q0 -71 -25 -129.5t-74 -102t-126.5 -68t-177.5 -24.5zM278 -453l-59 174
q40 9 64 20.5t36 30t12 45.5t-14 74h261q11 -37 11 -85q0 -124 -80 -189.5t-231 -69.5z" />
    <glyph glyph-name="uni021A" unicode="&#x21a;" horiz-adv-x="1192" 
d="M425 0v1149h-384v306h1109v-306h-384v-1149h-341zM420 -453l-59 174q30 7 51 15t34.5 19.5t20 26.5t6.5 35q0 27 -14 74h261q11 -37 11 -85q0 -124 -80 -189.5t-231 -69.5z" />
    <glyph glyph-name="uni021B" unicode="&#x21b;" horiz-adv-x="756" 
d="M432 -19q-134 0 -214 85t-80 249v426h-113v261h113v320l320 34v-354h243v-261h-243v-366q0 -54 16.5 -84t59.5 -30q50 0 99 25l79 -236q-61 -34 -122.5 -51.5t-157.5 -17.5zM238 -453l-59 174q60 13 86 34.5t26 61.5q0 27 -14 74h261q11 -37 11 -85q0 -124 -80 -189.5
t-231 -69.5z" />
    <glyph glyph-name="uni0232" unicode="&#x232;" horiz-adv-x="1292" 
d="M966 1890v-249h-641v249h641zM900 1455h396l-478 -822v-633h-347v633l-475 822h392l255 -482h6z" />
    <glyph glyph-name="uni0233" unicode="&#x233;" horiz-adv-x="1090" 
d="M866 1431v-249h-641v249h641zM747 1002h328l-526 -1407h-317l173 473l-391 934h332l204 -543h5z" />
    <glyph glyph-name="uni0237" unicode="&#x237;" horiz-adv-x="526" 
d="M109 -424q-126 0 -229 37l53 254q43 -19 86 -19q47 0 66 31.5t19 97.5v1025h320v-1052q0 -185 -81 -279.5t-234 -94.5z" />
    <glyph glyph-name="uni0259" unicode="&#x259;" horiz-adv-x="1119" 
d="M535 1021q155 0 275 -65.5t186.5 -184.5t66.5 -274q0 -149 -65 -266.5t-181.5 -183.5t-263.5 -66q-107 0 -200 38.5t-158.5 106.5t-102.5 163t-37 205q0 54 9 95h684q-16 80 -78.5 125t-151.5 45q-114 0 -251 -71l-120 236q23 13 53 26t80.5 31t117.5 29t137 11zM556 236
q76 0 126.5 42t65.5 120h-377q16 -76 65.5 -119t119.5 -43z" />
    <glyph glyph-name="uni0272" unicode="&#x272;" horiz-adv-x="1183" 
d="M730 1021q82 0 145 -21.5t112.5 -69.5t75.5 -131t26 -198v-601h-320v522q0 120 -38 166.5t-122 46.5q-55 0 -96 -25t-64.5 -78t-23.5 -129v-540q0 -187 -82 -287t-233 -100q-126 0 -229 37l53 244q43 -19 86 -19q85 0 85 129v1035h320v-121h2q59 68 137 104t166 36z" />
    <glyph glyph-name="circumflex" unicode="&#x2c6;" horiz-adv-x="944" 
d="M555 1086l-83 140h-4l-80 -140h-284l222 312h279l235 -312h-285z" />
    <glyph glyph-name="caron" unicode="&#x2c7;" horiz-adv-x="944" 
d="M557 1398h283l-228 -312h-279l-229 312h285l80 -138h7z" />
    <glyph glyph-name="breve" unicode="&#x2d8;" horiz-adv-x="939" 
d="M469 1076q-92 0 -168 36t-126.5 110t-58.5 174h236q4 -49 35 -81t82 -32q49 0 81.5 30t35.5 83h236q-11 -139 -105.5 -229.5t-247.5 -90.5z" />
    <glyph glyph-name="dotaccent" unicode="&#x2d9;" horiz-adv-x="1033" 
d="M516 1073q-85 0 -142.5 52.5t-57.5 134.5q0 54 27 96.5t72.5 66t100.5 23.5q85 0 142.5 -52.5t57.5 -133.5q0 -41 -15.5 -76t-42.5 -59.5t-64 -38t-78 -13.5z" />
    <glyph glyph-name="ring" unicode="&#x2da;" horiz-adv-x="942" 
d="M471 1041q-97 0 -164.5 63.5t-67.5 160.5q0 94 65 158.5t167 64.5q97 0 164.5 -63t67.5 -160q0 -46 -17 -87t-47 -71.5t-73.5 -48t-94.5 -17.5zM470 1196q31 0 52 21t21 52q0 29 -21.5 50t-51.5 21q-29 0 -50 -22t-21 -51q0 -30 21 -50.5t50 -20.5z" />
    <glyph glyph-name="ogonek" unicode="&#x2db;" horiz-adv-x="975" 
d="M560 -392q-113 0 -179.5 54t-66.5 140q0 61 44 124.5t126 101.5l253 -27q-82 -4 -134.5 -47t-52.5 -92q0 -37 20 -57t56 -20q39 0 74 11l14 -164q-59 -24 -154 -24z" />
    <glyph glyph-name="tilde" unicode="&#x2dc;" horiz-adv-x="1011" 
d="M271 1071l-187 80q35 116 102.5 186.5t160.5 70.5q41 0 79 -10t52.5 -17.5t48.5 -26.5q16 -10 25.5 -15.5t23.5 -11.5t26.5 -9t26.5 -3q69 0 114 95l184 -61q-34 -125 -101 -201t-157 -76q-52 0 -93.5 15t-85.5 41q-25 14 -37.5 20.5t-32.5 13t-38 6.5q-69 0 -111 -97z
" />
    <glyph glyph-name="hungarumlaut" unicode="&#x2dd;" horiz-adv-x="1111" 
d="M66 1090l227 306l316 2l-253 -308h-290zM521 1090l226 306l316 2l-253 -308h-289z" />
    <glyph glyph-name="gravecomb" unicode="&#x300;" horiz-adv-x="0" 
d="M-67 1090l-253 308l328 -2l225 -306h-300z" />
    <glyph glyph-name="acutecomb" unicode="&#x301;" horiz-adv-x="0" 
d="M-235 1090l228 306l326 2l-253 -308h-301z" />
    <glyph glyph-name="uni0302" unicode="&#x302;" horiz-adv-x="0" 
d="M79 1086l-83 140h-4l-80 -140h-284l222 312h279l235 -312h-285z" />
    <glyph glyph-name="tildecomb" unicode="&#x303;" horiz-adv-x="0" 
d="M-228 1071l-187 80q35 116 102.5 186.5t160.5 70.5q41 0 79 -10t52.5 -17.5t48.5 -26.5q22 -13 34 -20t31 -13t37 -6q69 0 114 95l184 -61q-34 -125 -101 -201t-157 -76q-52 0 -93.5 15t-85.5 41q-25 14 -37.5 20.5t-32.5 13t-38 6.5q-69 0 -111 -97z" />
    <glyph glyph-name="uni0304" unicode="&#x304;" horiz-adv-x="0" 
d="M-324 1134v249h641v-249h-641z" />
    <glyph glyph-name="uni0306" unicode="&#x306;" horiz-adv-x="0" 
d="M-3 1076q-92 0 -168 36t-126.5 110t-58.5 174h236q4 -49 35 -81t82 -32q49 0 81.5 30t35.5 83h236q-11 -139 -105.5 -229.5t-247.5 -90.5z" />
    <glyph glyph-name="uni0307" unicode="&#x307;" horiz-adv-x="0" 
d="M1 1073q-85 0 -142.5 52.5t-57.5 134.5q0 81 57.5 133.5t142.5 52.5t142.5 -52.5t57.5 -133.5q0 -54 -27 -97t-72.5 -66.5t-100.5 -23.5z" />
    <glyph glyph-name="uni0308" unicode="&#x308;" horiz-adv-x="0" 
d="M-233 1073q-85 0 -142.5 52.5t-57.5 134.5q0 54 27 96.5t72.5 66t100.5 23.5q85 0 142.5 -52.5t57.5 -133.5q0 -82 -57.5 -134.5t-142.5 -52.5zM224 1073q-85 0 -142.5 52.5t-57.5 134.5q0 54 27 96.5t72.5 66t100.5 23.5q85 0 142.5 -52.5t57.5 -133.5
q0 -82 -57.5 -134.5t-142.5 -52.5z" />
    <glyph glyph-name="hookabovecomb" unicode="&#x309;" horiz-adv-x="0" 
d="M-82 1050q-36 36 -36 63q0 20 25.5 40.5t55.5 34.5t55.5 36t25.5 45q0 34 -54 34q-29 0 -65.5 -17.5t-62.5 -38.5l-94 92q42 40 109 68t141 28q105 0 162 -45.5t57 -120.5q0 -63 -49.5 -105.5t-138.5 -60.5l-12 -47z" />
    <glyph glyph-name="uni030A" unicode="&#x30a;" horiz-adv-x="0" 
d="M10 1041q-47 0 -89.5 17t-74 46t-50 71t-18.5 90q0 94 65 158.5t167 64.5q97 0 164.5 -63t67.5 -160q0 -46 -17 -87t-47 -71.5t-73.5 -48t-94.5 -17.5zM9 1196q31 0 52 21t21 52q0 29 -21.5 50t-51.5 21q-29 0 -50 -22t-21 -51q0 -30 21 -50.5t50 -20.5z" />
    <glyph glyph-name="uni030B" unicode="&#x30b;" horiz-adv-x="0" 
d="M-375 1090l227 306l316 2l-253 -308h-290zM80 1090l226 306l316 2l-253 -308h-289z" />
    <glyph glyph-name="uni030C" unicode="&#x30c;" horiz-adv-x="0" 
d="M81 1398h283l-228 -312h-279l-229 312h285l80 -138h7z" />
    <glyph glyph-name="uni0312" unicode="&#x312;" horiz-adv-x="0" 
d="M175 1455l59 -174q-60 -13 -86 -34.5t-26 -61.5q0 -27 14 -74h-261q-11 37 -11 85q0 124 80 189.5t231 69.5z" />
    <glyph glyph-name="uni031B" unicode="&#x31b;" horiz-adv-x="0" 
d="M-45 927l-5 141q36 3 62.5 11t44 23t28.5 31.5t16.5 43.5t7 52t1.5 63v163h273v-156q0 -195 -113.5 -288t-314.5 -84z" />
    <glyph glyph-name="dotbelowcomb" unicode="&#x323;" horiz-adv-x="0" 
d="M-2 -155q85 0 142.5 -52.5t57.5 -134.5q0 -81 -57.5 -133.5t-142.5 -52.5q-55 0 -100.5 23.5t-72.5 66t-27 96.5q0 82 57.5 134.5t142.5 52.5z" />
    <glyph glyph-name="uni0326" unicode="&#x326;" horiz-adv-x="0" 
d="M-175 -453l-59 174q60 13 86 34.5t26 61.5q0 27 -14 74h261q11 -37 11 -85q0 -83 -36.5 -140t-105.5 -86.5t-169 -32.5z" />
    <glyph glyph-name="uni0327" unicode="&#x327;" horiz-adv-x="0" 
d="M-3 -62q90 -3 140.5 -45.5t50.5 -120.5q0 -77 -63.5 -121.5t-195.5 -44.5q-69 0 -131 12v130q46 -14 108 -14q36 0 62.5 12.5t26.5 41.5q0 19 -19 33t-55.5 21.5t-87.5 7.5v77l45 85h162z" />
    <glyph glyph-name="uni0328" unicode="&#x328;" horiz-adv-x="0" 
d="M-182 -392q-113 0 -179.5 54t-66.5 140q0 61 44 124.5t126 101.5l253 -27q-82 -4 -134.5 -47t-52.5 -92q0 -37 20 -57t56 -20q39 0 74 11l14 -164q-59 -24 -154 -24z" />
    <glyph glyph-name="uni0335" unicode="&#x335;" horiz-adv-x="0" 
d="M-300 435v190h611v-190h-611z" />
    <glyph glyph-name="uni0374" unicode="&#x374;" horiz-adv-x="612" 
d="M69 955l98 543h315l-157 -543h-256z" />
    <glyph glyph-name="uni0375" unicode="&#x375;" horiz-adv-x="613" 
d="M130 -327l98 543h315l-157 -543h-256z" />
    <glyph glyph-name="uni037E" unicode="&#x37e;" horiz-adv-x="514" 
d="M245 647q-31 0 -60.5 9.5t-53 27t-41 40.5t-27 51.5t-9.5 59.5q0 76 56 131t135 55q77 0 133 -55t56 -131q0 -78 -55.5 -133t-133.5 -55zM33 -274l61 553h321l-152 -553h-230z" />
    <glyph glyph-name="tonos" unicode="&#x384;" horiz-adv-x="952" 
d="M265 1090l108 362h350l-174 -362h-284z" />
    <glyph glyph-name="dieresistonos" unicode="&#x385;" horiz-adv-x="1175" 
d="M417 1090l20 362h260l-66 -362h-214zM909 1074q-85 0 -142.5 52.5t-57.5 134.5q0 81 57.5 133.5t142.5 52.5q41 0 78 -13.5t64 -38t42.5 -59.5t15.5 -75q0 -82 -57.5 -134.5t-142.5 -52.5zM181 1073q-85 0 -142.5 52.5t-57.5 134.5q0 81 57.5 133.5t142.5 52.5
t142.5 -52.5t57.5 -133.5q0 -82 -57.5 -134.5t-142.5 -52.5z" />
    <glyph glyph-name="Alphatonos" unicode="&#x386;" horiz-adv-x="1422" 
d="M1055 0l-85 260h-511l-84 -260h-358l533 1455h328l535 -1455h-358zM391 1452l-207 -362h-282l142 362h347zM553 550h323l-160 491h-4z" />
    <glyph glyph-name="anoteleia" unicode="&#x387;" horiz-adv-x="544" 
d="M276 647q-52 0 -96 25t-69.5 68.5t-25.5 94.5q0 76 56 131t135 55q51 0 94.5 -25.5t69 -68t25.5 -92.5q0 -78 -56 -133t-133 -55z" />
    <glyph glyph-name="Epsilontonos" unicode="&#x388;" horiz-adv-x="1183" 
d="M-460 1094l142 362h347l-207 -362h-282zM119 0v1455h950v-306h-614v-279h485v-301h-485v-264h657v-305h-993z" />
    <glyph glyph-name="Etatonos" unicode="&#x389;" horiz-adv-x="1452" 
d="M-457 1094l142 362h347l-207 -362h-282zM122 0v1455h345v-603h512v603h345v-1455h-345v547h-512v-547h-345z" />
    <glyph glyph-name="Iotatonos" unicode="&#x38a;" horiz-adv-x="618" 
d="M-445 1094l142 362h347l-207 -362h-282zM136 0v1455h346v-1455h-346z" />
    <glyph glyph-name="Omicrontonos" unicode="&#x38c;" horiz-adv-x="1652" 
d="M833 -20q-164 0 -304 55.5t-237.5 153.5t-152.5 237t-55 301t55 301t152.5 237.5t237.5 154t304 55.5q161 0 299.5 -54.5t236.5 -152t154 -237t56 -304.5q0 -164 -56 -303.5t-154 -237t-236.5 -152t-299.5 -54.5zM-277 1094l142 362h347l-207 -362h-282zM833 300
q111 0 200.5 56t139 153.5t49.5 217.5t-49.5 218t-139 154t-200.5 56q-113 0 -203 -57t-139.5 -154.5t-49.5 -216.5q0 -118 49.5 -215.5t139.5 -154.5t203 -57z" />
    <glyph glyph-name="Upsilontonos" unicode="&#x38e;" horiz-adv-x="1299" 
d="M-551 1094l142 362h347l-207 -362h-282zM907 1455h396l-478 -822v-633h-347v633l-475 822h392l255 -482h6z" />
    <glyph glyph-name="Omegatonos" unicode="&#x38f;" horiz-adv-x="1517" 
d="M1216 309v-4h210v-305h-581v305q240 216 240 485q0 162 -90.5 266.5t-236.5 103.5t-236.5 -105t-90.5 -265q0 -269 240 -485v-305h-581v305h211v3q-109 99 -168.5 227.5t-59.5 280.5q0 146 49.5 269t138.5 208.5t216.5 133t280.5 47.5t280.5 -47.5t216.5 -133
t138.5 -208.5t49.5 -269q0 -101 -27.5 -194t-77.5 -170.5t-122 -142.5zM-188 1456h347l-207 -362h-282z" />
    <glyph glyph-name="iotadieresistonos" unicode="&#x390;" horiz-adv-x="619" 
d="M159 1138l20 362h260l-66 -362h-214zM651 1122q-85 0 -142.5 52.5t-57.5 134.5q0 81 57.5 133.5t142.5 52.5t142.5 -52.5t57.5 -133.5q0 -41 -15.5 -76t-42.5 -59.5t-64 -38t-78 -13.5zM-77 1121q-85 0 -142.5 52.5t-57.5 134.5q0 81 57.5 133.5t142.5 52.5t142.5 -52.5
t57.5 -133.5q0 -82 -57.5 -134.5t-142.5 -52.5zM398 -19q-144 0 -214.5 78.5t-70.5 247.5v695h320v-652q0 -29 4.5 -48t13.5 -27.5t19.5 -11.5t26.5 -3q35 0 85 11l37 -244q-109 -46 -221 -46z" />
    <glyph glyph-name="Alpha" unicode="&#x391;" horiz-adv-x="1415" 
d="M1048 0l-85 260h-511l-84 -260h-358l533 1455h328l535 -1455h-358zM546 550h323l-160 491h-4z" />
    <glyph glyph-name="Beta" unicode="&#x392;" horiz-adv-x="1289" 
d="M944 774q144 -39 215 -134t71 -234q0 -89 -29 -162.5t-86 -128t-146.5 -85t-203.5 -30.5h-638v1455h549q120 0 211 -24t150 -70t88.5 -111.5t29.5 -150.5q0 -48 -11 -93t-35 -88.5t-66 -80t-99 -59.5v-4zM463 1153v-278h161q81 0 133 36t52 103q0 65 -48.5 102.5
t-147.5 36.5h-150zM660 299q48 0 87 10t67.5 28.5t44 47.5t15.5 67q0 70 -54 112t-160 42h-197v-307h197z" />
    <glyph glyph-name="Gamma" unicode="&#x393;" horiz-adv-x="1147" 
d="M127 0v1455h979v-305h-635v-1150h-344z" />
    <glyph glyph-name="uni0394" unicode="&#x394;" horiz-adv-x="1390" 
d="M865 1455l471 -1194v-261h-1282v261l471 1194h340zM435 305h515l-253 724h-2z" />
    <glyph glyph-name="Epsilon" unicode="&#x395;" horiz-adv-x="1190" 
d="M126 0v1455h950v-306h-614v-279h485v-301h-485v-264h657v-305h-993z" />
    <glyph glyph-name="Zeta" unicode="&#x396;" horiz-adv-x="1248" 
d="M1166 1195l-648 -883v-7h648v-305h-1086v267l630 877v5h-608v306h1064v-260z" />
    <glyph glyph-name="Eta" unicode="&#x397;" horiz-adv-x="1457" 
d="M127 0v1455h345v-603h512v603h345v-1455h-345v547h-512v-547h-345z" />
    <glyph glyph-name="Theta" unicode="&#x398;" horiz-adv-x="1643" 
d="M823 -20q-164 0 -304 55.5t-237.5 153.5t-152.5 237t-55 301t55 301t152.5 237.5t237.5 154t304 55.5q161 0 299.5 -54.5t236.5 -152t154 -237t56 -304.5q0 -164 -56 -303.5t-154 -237t-236.5 -152t-299.5 -54.5zM823 300q111 0 200.5 56t139 153.5t49.5 217.5t-49.5 218
t-139 154t-200.5 56q-113 0 -203 -57t-139.5 -154.5t-49.5 -216.5q0 -118 49.5 -215.5t139.5 -154.5t203 -57zM596 571v293h470v-293h-470z" />
    <glyph glyph-name="Iota" unicode="&#x399;" horiz-adv-x="618" 
d="M136 0v1455h346v-1455h-346z" />
    <glyph glyph-name="Kappa" unicode="&#x39a;" horiz-adv-x="1347" 
d="M580 548h-6l-106 -128v-420h-341v1455h341v-558h4l421 558h433l-523 -631l543 -824h-422z" />
    <glyph glyph-name="Lambda" unicode="&#x39b;" horiz-adv-x="1361" 
d="M985 0l-302 970h-4l-302 -970h-366l503 1455h334l503 -1455h-366z" />
    <glyph glyph-name="Mu" unicode="&#x39c;" horiz-adv-x="1751" 
d="M1279 1455h345v-1455h-340v802h-4l-295 -535h-219l-295 534h-4v-801h-340v1455h345l402 -771h6z" />
    <glyph glyph-name="Nu" unicode="&#x39d;" horiz-adv-x="1504" 
d="M1035 1455h342v-1455h-353l-552 872h-4v-872h-341v1455h343l561 -894h4v894z" />
    <glyph glyph-name="Xi" unicode="&#x39e;" horiz-adv-x="1268" 
d="M93 1141v314h1081v-314h-1081zM216 572v297h829v-297h-829zM79 0v314h1111v-314h-1111z" />
    <glyph glyph-name="Omicron" unicode="&#x39f;" horiz-adv-x="1642" 
d="M823 -20q-164 0 -304 55.5t-237.5 153.5t-152.5 237t-55 301t55 301t152.5 237.5t237.5 154t304 55.5q161 0 299.5 -54.5t236.5 -152t154 -237t56 -304.5q0 -164 -56 -303.5t-154 -237t-236.5 -152t-299.5 -54.5zM823 300q111 0 200.5 56t139 153.5t49.5 217.5t-49.5 218
t-139 154t-200.5 56q-113 0 -203 -57t-139.5 -154.5t-49.5 -216.5q0 -118 49.5 -215.5t139.5 -154.5t203 -57z" />
    <glyph glyph-name="Pi" unicode="&#x3a0;" horiz-adv-x="1393" 
d="M127 0v1455h1139v-1455h-344v1149h-451v-1149h-344z" />
    <glyph glyph-name="Rho" unicode="&#x3a1;" horiz-adv-x="1246" 
d="M127 0v1455h553q131 0 231.5 -37.5t162.5 -105.5t93 -158.5t31 -200.5q0 -159 -68 -269t-189 -162.5t-287 -52.5h-190v-469h-337zM464 770h144q112 0 173.5 50.5t61.5 140.5q0 85 -59 138t-171 53h-149v-382z" />
    <glyph glyph-name="Sigma" unicode="&#x3a3;" horiz-adv-x="1187" 
d="M1127 1150h-592v-3l317 -418l-317 -420v-4h592v-305h-1055v237l368 492l-368 479v247h1055v-305z" />
    <glyph glyph-name="Tau" unicode="&#x3a4;" horiz-adv-x="1192" 
d="M425 0v1149h-384v306h1109v-306h-384v-1149h-341z" />
    <glyph glyph-name="Upsilon" unicode="&#x3a5;" horiz-adv-x="1292" 
d="M900 1455h396l-478 -822v-633h-347v633l-475 822h392l255 -482h6z" />
    <glyph glyph-name="Phi" unicode="&#x3a6;" horiz-adv-x="1678" 
d="M1617 732q0 -243 -159 -400.5t-446 -194.5v-137h-339v136q-291 37 -451.5 194.5t-160.5 401.5q0 164 71 294t210 215t331 111v127h339v-128q286 -40 445.5 -206.5t159.5 -412.5zM404 736q0 -118 74.5 -201t207.5 -114v645q-133 -34 -207.5 -122t-74.5 -208zM999 422
q130 32 202.5 115t72.5 199q0 119 -72.5 206.5t-202.5 121.5v-642z" />
    <glyph glyph-name="Chi" unicode="&#x3a7;" horiz-adv-x="1437" 
d="M1012 0l-289 468h-7l-290 -468h-399l466 732l-449 723h393l280 -457h5l281 457h390l-447 -723l465 -732h-399z" />
    <glyph glyph-name="Psi" unicode="&#x3a8;" horiz-adv-x="1613" 
d="M1194 1455h331l-1 -530q-1 -145 -37.5 -258.5t-105.5 -191.5t-172 -120.5t-235 -45.5v-309h-337v309q-265 6 -407.5 165.5t-141.5 450.5l1 530h332l-1 -490q-1 -180 50.5 -262t166.5 -92v844h337v-844q113 10 165.5 92.5t53.5 261.5z" />
    <glyph glyph-name="uni03A9" unicode="&#x3a9;" horiz-adv-x="1517" 
d="M1216 309v-4h210v-305h-581v305q240 216 240 485q0 162 -90.5 266.5t-236.5 103.5t-236.5 -105t-90.5 -265q0 -269 240 -485v-305h-581v305h211v3q-109 99 -168.5 227.5t-59.5 280.5q0 146 49.5 269t138.5 208.5t216.5 133t280.5 47.5t280.5 -47.5t216.5 -133
t138.5 -208.5t49.5 -269q0 -101 -27.5 -194t-77.5 -170.5t-122 -142.5z" />
    <glyph glyph-name="Iotadieresis" unicode="&#x3aa;" horiz-adv-x="618" 
d="M84 1580q-85 0 -142.5 52.5t-57.5 134.5q0 81 57.5 133.5t142.5 52.5t142.5 -52.5t57.5 -133.5q0 -82 -57.5 -134.5t-142.5 -52.5zM575 1580q-85 0 -142.5 52.5t-57.5 134.5q0 81 57.5 133.5t142.5 52.5t142.5 -52.5t57.5 -133.5q0 -82 -57.5 -134.5t-142.5 -52.5zM136 0
v1455h346v-1455h-346z" />
    <glyph glyph-name="Upsilondieresis" unicode="&#x3ab;" horiz-adv-x="1292" 
d="M413 1580q-85 0 -142.5 52.5t-57.5 134.5q0 81 57.5 133.5t142.5 52.5t142.5 -52.5t57.5 -133.5q0 -82 -57.5 -134.5t-142.5 -52.5zM904 1580q-85 0 -142.5 52.5t-57.5 134.5q0 81 57.5 133.5t142.5 52.5q41 0 78 -13.5t64 -38t42.5 -59.5t15.5 -75q0 -82 -57.5 -134.5
t-142.5 -52.5zM900 1455h396l-478 -822v-633h-347v633l-475 822h392l255 -482h6z" />
    <glyph glyph-name="alphatonos" unicode="&#x3ac;" horiz-adv-x="1209" 
d="M913 1500l-174 -362h-284l108 362h350zM1168 269l37 -243q-93 -45 -191 -45q-92 0 -149.5 36.5t-81.5 119.5h-5q-95 -156 -283 -156q-134 0 -234.5 65.5t-154 183t-53.5 270.5q0 113 34 210.5t93.5 165.5t141.5 106.5t176 38.5q203 0 297 -171h4l12 152h301l-62 -407
v-247q0 -32 6.5 -52.5t19.5 -29.5t34 -9q26 0 58 12zM561 265q80 0 136 63t67 167v18q-5 103 -55.5 163t-135.5 60q-84 0 -140 -66t-56 -171q0 -102 49.5 -168t134.5 -66z" />
    <glyph glyph-name="epsilontonos" unicode="&#x3ad;" horiz-adv-x="999" 
d="M829 1500l-174 -362h-284l108 362h350zM858 311l120 -217q-59 -36 -118.5 -59.5t-123.5 -34.5t-121.5 -15t-135.5 -4q-195 0 -307 76.5t-112 218.5q0 83 40 146.5t118 99.5q-61 40 -94.5 97t-33.5 116q0 86 45 149.5t136.5 99.5t222.5 37q289 2 465 -100l-109 -213
q-146 52 -308 50q-143 0 -143 -69q0 -27 31.5 -47.5t99.5 -20.5l166 -1v-220h-184q-44 0 -74.5 -11.5t-43 -28.5t-12.5 -37q0 -38 47.5 -58t137.5 -20q169 0 291 66z" />
    <glyph glyph-name="etatonos" unicode="&#x3ae;" horiz-adv-x="1174" 
d="M909 1500l-174 -362h-284l108 362h350zM721 1021q86 0 150.5 -23.5t112 -73.5t72 -133t24.5 -198v-998h-321v921q0 113 -38.5 166t-114.5 53q-54 0 -94 -25.5t-63 -78.5t-23 -129v-502h-320v1002h320v-117h4q57 67 132.5 101.5t158.5 34.5z" />
    <glyph glyph-name="iotatonos" unicode="&#x3af;" horiz-adv-x="619" 
d="M132 1138l108 362h350l-174 -362h-284zM398 -19q-144 0 -214.5 78.5t-70.5 247.5v695h320v-652q0 -29 4.5 -48t13.5 -27.5t19.5 -11.5t26.5 -3q35 0 85 11l37 -244q-109 -46 -221 -46z" />
    <glyph glyph-name="upsilondieresistonos" unicode="&#x3b0;" horiz-adv-x="1130" 
d="M459 1138l20 362h260l-66 -362h-214zM951 1122q-85 0 -142.5 52.5t-57.5 134.5q0 81 57.5 133.5t142.5 52.5q41 0 78 -13.5t64 -38t42.5 -59.5t15.5 -75q0 -82 -57.5 -134.5t-142.5 -52.5zM223 1121q-85 0 -142.5 52.5t-57.5 134.5q0 81 57.5 133.5t142.5 52.5
t142.5 -52.5t57.5 -133.5q0 -82 -57.5 -134.5t-142.5 -52.5zM565 -19q-109 0 -195.5 31.5t-149.5 94.5t-96.5 161.5t-33.5 226.5v507h320v-498q0 -121 40 -180t114 -59q156 0 156 239v498h320v-507q0 -255 -126 -384.5t-349 -129.5z" />
    <glyph glyph-name="alpha" unicode="&#x3b1;" horiz-adv-x="1209" 
d="M1168 269l37 -243q-93 -45 -191 -45q-92 0 -149.5 36.5t-81.5 119.5h-5q-95 -156 -283 -156q-134 0 -234.5 65.5t-154 183t-53.5 270.5q0 113 34 210.5t93.5 165.5t141.5 106.5t176 38.5q202 0 297 -171h4l12 152h301l-62 -407v-247q0 -32 6.5 -52.5t19.5 -29.5t34 -9
q26 0 58 12zM561 265q80 0 136 63t67 167v18q-5 103 -55.5 163t-135.5 60q-55 0 -99.5 -29.5t-70.5 -83.5t-26 -124q0 -102 49.5 -168t134.5 -66z" />
    <glyph glyph-name="beta" unicode="&#x3b2;" horiz-adv-x="1206" 
d="M931 817q104 -53 164 -150.5t60 -212.5q0 -218 -125.5 -345.5t-338.5 -127.5q-171 0 -265 99v-485h-320v1404q0 131 36.5 233t102.5 166t155.5 96.5t199.5 32.5q91 0 169.5 -21t135 -58t96.5 -86.5t60 -107.5t20 -120q0 -214 -150 -312v-5zM631 239q90 0 146 57.5
t56 146.5q0 61 -27 108t-81 74t-127 27h-59v246h45q44 1 78 13.5t54.5 32t33.5 45.5t18 50t5 49q0 72 -42.5 118t-120.5 46q-28 0 -53 -6t-49.5 -22t-42 -40.5t-28.5 -64t-11 -89.5v-568q0 -92 58 -157.5t147 -65.5z" />
    <glyph glyph-name="gamma" unicode="&#x3b3;" horiz-adv-x="1095" 
d="M703 -10q10 -36 16.5 -77.5t9 -80t4 -81t0.5 -80t0 -76.5h-308q0 11 -0.5 65t-1 74.5t-4.5 70.5t-10.5 83.5t-19 82.5t-30.5 97l-345 934h335l199 -625h3l194 625h335z" />
    <glyph glyph-name="delta" unicode="&#x3b4;" horiz-adv-x="1160" 
d="M825 956q45 -28 82 -56.5t76 -71t65.5 -89.5t43.5 -110.5t17 -134.5q0 -116 -39.5 -212.5t-109.5 -162t-166 -102t-207 -36.5q-116 0 -214.5 36t-168.5 101.5t-109.5 161.5t-39.5 210q0 139 73 250.5t190 185.5q-140 114 -140 279q0 66 27.5 124t79 102t131 70t177.5 26
q269 0 451 -106l-109 -237q-165 76 -313 76q-56 0 -92 -16t-36 -49q0 -17 9.5 -33t21.5 -28.5t39 -30t46 -28.5t59 -33q1 -1 2 -1.5t2.5 -1t2.5 -1.5q6 -3 62 -33t87 -49zM587 265q84 0 141.5 59t57.5 163q0 49 -14 88.5t-43 70.5t-61.5 54.5t-79.5 48.5q-18 10 -50 30
q-73 -47 -116.5 -122.5t-43.5 -166.5q0 -99 59.5 -162t149.5 -63z" />
    <glyph glyph-name="epsilon" unicode="&#x3b5;" horiz-adv-x="999" 
d="M858 311l120 -217q-59 -36 -118.5 -59.5t-123.5 -34.5t-121.5 -15t-135.5 -4q-195 0 -307 76.5t-112 218.5q0 83 40 146.5t118 99.5q-31 20 -55.5 45t-40 53t-24 57t-8.5 58q0 131 104 208t300 78q289 2 465 -100l-109 -213q-146 52 -308 50q-143 0 -143 -69
q0 -27 31.5 -47.5t99.5 -20.5l166 -1v-220h-184q-65 0 -97.5 -22.5t-32.5 -54.5q0 -38 47.5 -58t137.5 -20q169 0 291 66z" />
    <glyph glyph-name="zeta" unicode="&#x3b6;" horiz-adv-x="951" 
d="M661 247q90 -34 151 -71t93.5 -79t45.5 -83t13 -92q0 -192 -175 -372l-267 128q117 120 117 193q0 48 -43 83.5t-150 68.5q-45 14 -79.5 27t-77.5 35t-74.5 45.5t-64 58t-52.5 75t-32.5 95t-12.5 118.5q3 338 483 759v3h-411v269h834v-235q-119 -95 -222 -196.5
t-184.5 -205t-129 -204.5t-48.5 -183q0 -19 2 -35.5t8.5 -31t12 -26.5t19 -23.5t22.5 -20t28.5 -19t32 -17t38.5 -17t41 -16.5t47 -18q23 -8 35 -13z" />
    <glyph glyph-name="eta" unicode="&#x3b7;" horiz-adv-x="1174" 
d="M721 1021q86 0 150.5 -23.5t112 -73.5t72 -133t24.5 -198v-998h-321v921q0 113 -38.5 166t-114.5 53q-54 0 -94 -25.5t-63 -78.5t-23 -129v-502h-320v1002h320v-117h4q57 67 132.5 101.5t158.5 34.5z" />
    <glyph glyph-name="theta" unicode="&#x3b8;" horiz-adv-x="1193" 
d="M595 1527q95 0 176.5 -28t149.5 -88.5t115.5 -150t74 -218t26.5 -287.5q0 -134 -18.5 -248t-60 -212t-103.5 -167t-153.5 -108t-206.5 -39q-95 0 -175.5 27.5t-148.5 87.5t-115 149.5t-73.5 219t-26.5 290.5q0 132 18.5 245.5t59.5 211.5t103 167t153 108.5t205 39.5z
M596 1250q-93 0 -148 -92.5t-68 -272.5h435q-26 365 -219 365zM596 257q95 0 150 94t69 278h-436q12 -180 63.5 -276t153.5 -96z" />
    <glyph glyph-name="iota" unicode="&#x3b9;" horiz-adv-x="619" 
d="M398 -19q-144 0 -214.5 78.5t-70.5 247.5v695h320v-652q0 -29 4.5 -48t13.5 -27.5t19.5 -11.5t26.5 -3q35 0 85 11l37 -244q-109 -46 -221 -46z" />
    <glyph glyph-name="kappa" unicode="&#x3ba;" horiz-adv-x="1179" 
d="M540 357h-3l-112 -114v-243h-320v1002h320v-354h2l356 354h389l-417 -423l421 -579h-373z" />
    <glyph glyph-name="lambda" unicode="&#x3bb;" horiz-adv-x="1129" 
d="M784 0l-185 584h-4l-237 -584h-341l432 974l-61 156q-25 65 -59 90t-80 25q-68 0 -129 -18l-40 253q132 47 246 47q69 0 120.5 -17t96 -57t80.5 -101.5t74 -156.5q204 -518 421 -1195h-334z" />
    <glyph glyph-name="uni03BC" unicode="&#x3bc;" horiz-adv-x="1171" 
d="M751 1002h321v-1002h-296l-18 113h-3q-47 -64 -110.5 -98t-135.5 -34q-65 0 -107 24l-8 -5q28 -117 28 -236v-169h-320v1407h320v-506q0 -120 39 -175.5t121 -55.5q75 0 122 60.5t47 173.5v503z" />
    <glyph glyph-name="nu" unicode="&#x3bd;" horiz-adv-x="1097" 
d="M745 1002h337l-387 -1002h-292l-389 1002h334l200 -618h4z" />
    <glyph glyph-name="xi" unicode="&#x3be;" horiz-adv-x="1007" 
d="M691 246q86 -29 145 -64.5t91.5 -77.5t46 -86t13.5 -98q0 -70 -29 -144.5t-65.5 -126.5t-81.5 -99l-266 128q117 130 117 200q0 29 -17 52.5t-55 44.5t-102 42q-52 16 -89 29.5t-85.5 35.5t-82 44.5t-69 55.5t-57 70.5t-35.5 87t-14 107.5q0 109 61.5 206t171.5 157v3
q-164 113 -164 304q0 82 26.5 150.5t71.5 116t105.5 80.5t128 48.5t139.5 15.5q240 0 424 -108l-112 -254q-82 42 -150 61.5t-143 19.5q-80 0 -127 -44t-47 -105q0 -178 362 -178h93v-262h-234q-70 0 -124 -14.5t-88.5 -40.5t-52 -61t-17.5 -77q0 -25 8 -45.5t26 -39.5
t41.5 -34.5t61.5 -32.5t77 -32t97 -35z" />
    <glyph glyph-name="omicron" unicode="&#x3bf;" horiz-adv-x="1177" 
d="M588 -19q-155 0 -276.5 65.5t-189 183.5t-67.5 270t67.5 271t189 184.5t276.5 65.5q116 0 215.5 -38.5t169 -106.5t109 -165t39.5 -211q0 -152 -67.5 -270t-189 -183.5t-276.5 -65.5zM588 265q58 0 106 30t76 84t28 121q0 68 -27 122t-75 83.5t-108 29.5
q-91 0 -150.5 -65.5t-59.5 -169.5q0 -50 16.5 -94t44.5 -75t66.5 -48.5t82.5 -17.5z" />
    <glyph glyph-name="pi" unicode="&#x3c0;" horiz-adv-x="1285" 
d="M1254 1002v-269h-156v-733h-317v733h-272v-733h-317v733h-157v269h1219z" />
    <glyph glyph-name="rho" unicode="&#x3c1;" horiz-adv-x="1198" 
d="M604 1021q113 0 213 -38t172.5 -105.5t114.5 -165.5t42 -212q0 -152 -59 -270.5t-163.5 -183.5t-237.5 -65q-170 0 -275 100h-4v-486h-320v905q0 111 34.5 205.5t99 165t163 110.5t220.5 40zM604 265q63 0 113 29.5t78 83t28 121.5q0 104 -62.5 170t-157.5 66
q-89 0 -149.5 -67t-60.5 -169q0 -103 61.5 -168.5t149.5 -65.5z" />
    <glyph glyph-name="uni03C2" unicode="&#x3c2;" horiz-adv-x="1027" 
d="M789 -449l-268 127q57 56 86 100t29 92q0 30 -12 51t-48.5 44t-105.5 51q-51 21 -88.5 38.5t-84 44.5t-80 55t-67 67t-54.5 83t-34 102t-13 124q0 147 68 258.5t192 172t285 60.5q82 0 160 -22t148.5 -68t120.5 -110l-214 -183q-85 97 -207 97q-70 0 -122 -26t-80 -72.5
t-28 -107.5q0 -49 17 -88t54.5 -72t87.5 -60t125 -57q91 -37 150.5 -74t93.5 -78t47.5 -83t13.5 -97q0 -60 -15.5 -116.5t-43.5 -103.5t-53.5 -80.5t-59.5 -68.5z" />
    <glyph glyph-name="sigma" unicode="&#x3c3;" horiz-adv-x="1212" 
d="M1197 739h-226v-4q132 -116 132 -286q0 -135 -66.5 -241.5t-187.5 -166.5t-276 -60q-148 0 -265.5 62.5t-185 179t-67.5 267.5q0 153 67 269t191 179.5t287 63.5h597v-263zM581 265q88 0 143 62.5t55 162.5q0 48 -13.5 95t-36 84.5t-52.5 69.5h-70q-104 0 -166.5 -68
t-62.5 -181q0 -42 11.5 -78.5t31 -63t45 -45.5t55 -28.5t60.5 -9.5z" />
    <glyph glyph-name="tau" unicode="&#x3c4;" horiz-adv-x="940" 
d="M578 -19q-309 0 -309 355v403h-252v263h886v-263h-313v-352q0 -73 21 -100t72 -27q48 0 111 25l78 -232q-62 -35 -130 -53.5t-164 -18.5z" />
    <glyph glyph-name="upsilon" unicode="&#x3c5;" horiz-adv-x="1130" 
d="M565 -19q-109 0 -195.5 31.5t-149.5 94.5t-96.5 161.5t-33.5 226.5v507h320v-498q0 -82 18.5 -135.5t52.5 -78.5t83 -25q156 0 156 239v498h320v-507q0 -255 -126 -384.5t-349 -129.5z" />
    <glyph glyph-name="phi" unicode="&#x3c6;" horiz-adv-x="1460" 
d="M1408 535q0 -89 -22.5 -168.5t-67 -146t-108 -116t-150 -78t-188.5 -32.5v-399h-315v399q-87 5 -163.5 31t-137.5 73.5t-105 112.5t-68 150.5t-24 185.5q0 138 38.5 251t116.5 227l294 -51q-43 -63 -73.5 -133.5t-45.5 -138t-15 -127.5q0 -277 188 -319v301
q0 216 102.5 340t277.5 124q149 0 255 -62t158.5 -170.5t52.5 -253.5zM868 252q108 17 167.5 95t59.5 186q0 89 -33 150t-93 61q-32 0 -53 -16.5t-31 -47.5t-13.5 -62t-3.5 -72v-294z" />
    <glyph glyph-name="chi" unicode="&#x3c7;" horiz-adv-x="1088" 
d="M1058 -139l41 -255q-90 -30 -182 -30q-65 0 -112 15.5t-84.5 52t-65 89t-56.5 134.5l-56 144h-3l-202 -416h-339l397 730l-152 315q-26 54 -55.5 77.5t-72.5 23.5q-14 0 -54 -6l-41 255q89 31 178 31q60 0 104.5 -15t80 -49.5t62 -80t55.5 -117.5l47 -126h3l179 369h344
l-372 -675l174 -370q25 -54 55 -78t71 -24q22 0 56 6z" />
    <glyph glyph-name="psi" unicode="&#x3c8;" horiz-adv-x="1480" 
d="M1089 1002h304v-515q0 -124 -37 -220.5t-104 -157.5t-156 -93.5t-197 -35.5v-385h-318v385q-86 2 -160.5 23t-136 61.5t-105.5 99.5t-68 141t-24 182v515h304v-493q0 -116 53.5 -177.5t143.5 -66.5v1036h305v-1036q90 5 143 66.5t53 177.5v493z" />
    <glyph glyph-name="omega" unicode="&#x3c9;" horiz-adv-x="1512" 
d="M1292 1026q32 -49 50 -79.5t43 -84.5t38 -104.5t23 -124t10 -157.5q0 -119 -32.5 -215t-88.5 -156t-126.5 -92t-148.5 -32q-215 0 -302 157h-4q-87 -157 -302 -157q-62 0 -120 20t-108.5 60.5t-87.5 98.5t-58.5 139.5t-21.5 176.5q0 84 10 157.5t23 124t38 104.5t43 84.5
t50 79.5l288 -49q-56 -106 -92 -232.5t-36 -236.5q0 -242 122 -242q49 0 83.5 61t34.5 172v251h272v-251q0 -75 17 -129t43 -79t58 -25q59 0 91 59.5t32 182.5q0 110 -36 236t-92 233z" />
    <glyph glyph-name="iotadieresis" unicode="&#x3ca;" horiz-adv-x="619" 
d="M25 1121q-85 0 -142.5 52.5t-57.5 134.5q0 81 57.5 133.5t142.5 52.5t142.5 -52.5t57.5 -133.5q0 -82 -57.5 -134.5t-142.5 -52.5zM516 1121q-85 0 -142.5 52.5t-57.5 134.5q0 54 27 96.5t72.5 66t100.5 23.5q85 0 142.5 -52.5t57.5 -133.5q0 -41 -15.5 -76t-42.5 -59.5
t-64 -38t-78 -13.5zM398 -19q-144 0 -214.5 78.5t-70.5 247.5v695h320v-652q0 -29 4.5 -48t13.5 -27.5t19.5 -11.5t26.5 -3q35 0 85 11l37 -244q-109 -46 -221 -46z" />
    <glyph glyph-name="upsilondieresis" unicode="&#x3cb;" horiz-adv-x="1130" 
d="M320 1121q-85 0 -142.5 52.5t-57.5 134.5q0 54 27 96.5t72.5 66t100.5 23.5q85 0 142.5 -52.5t57.5 -133.5q0 -54 -27 -97t-72.5 -66.5t-100.5 -23.5zM811 1121q-85 0 -142.5 52.5t-57.5 134.5q0 81 57.5 133.5t142.5 52.5t142.5 -52.5t57.5 -133.5q0 -82 -57.5 -134.5
t-142.5 -52.5zM565 -19q-109 0 -195.5 31.5t-149.5 94.5t-96.5 161.5t-33.5 226.5v507h320v-498q0 -121 40 -180t114 -59q156 0 156 239v498h320v-507q0 -255 -126 -384.5t-349 -129.5z" />
    <glyph glyph-name="omicrontonos" unicode="&#x3cc;" horiz-adv-x="1177" 
d="M449 1138l108 362h350l-174 -362h-284zM588 -19q-77 0 -148 17t-129.5 49t-106.5 78.5t-80.5 103.5t-50.5 126t-18 145q0 152 67.5 271t189 184.5t276.5 65.5q116 0 215.5 -38.5t169 -106.5t109 -165t39.5 -211q0 -152 -67.5 -270t-189 -183.5t-276.5 -65.5zM588 265
q58 0 106 30t76 84t28 121q0 68 -27 122t-75 83.5t-108 29.5q-91 0 -150.5 -65.5t-59.5 -169.5q0 -102 60.5 -168.5t149.5 -66.5z" />
    <glyph glyph-name="upsilontonos" unicode="&#x3cd;" horiz-adv-x="1130" 
d="M427 1138l108 362h350l-174 -362h-284zM565 -19q-109 0 -195.5 31.5t-149.5 94.5t-96.5 161.5t-33.5 226.5v507h320v-498q0 -121 40 -180t114 -59q156 0 156 239v498h320v-507q0 -255 -126 -384.5t-349 -129.5z" />
    <glyph glyph-name="omegatonos" unicode="&#x3ce;" horiz-adv-x="1512" 
d="M1082 1500l-174 -362h-284l108 362h350zM1292 1026q32 -49 50 -79.5t43 -84.5t38 -104.5t23 -124t10 -157.5q0 -119 -32.5 -215t-88.5 -156t-126.5 -92t-148.5 -32q-215 0 -302 157h-4q-87 -157 -302 -157q-78 0 -149 32t-126.5 92t-88 156t-32.5 215q0 84 10 157.5
t23 124t38 104.5t43 84.5t50 79.5l288 -49q-56 -106 -92 -232.5t-36 -236.5q0 -242 122 -242q49 0 83.5 61t34.5 172v251h272v-251q0 -75 17 -129t43 -79t58 -25q59 0 91 59.5t32 182.5q0 110 -36 236t-92 233z" />
    <glyph glyph-name="uni03D7" unicode="&#x3d7;" horiz-adv-x="1214" 
d="M742 579q32 -85 62.5 -143.5t67.5 -105t83.5 -76t104.5 -49.5t138 -33v-167q-149 -167 -271.5 -263t-246 -140.5t-270.5 -44.5q-245 0 -404 82l49 249q68 -42 155 -65t158 -23q127 0 243 52t209 147q-197 113 -286 349h-3l-106 -115v-233h-320v1002h320v-357h4l314 357
h386z" />
    <glyph glyph-name="Wgrave" unicode="&#x1e80;" horiz-adv-x="2090" 
d="M1198 1597h-300l-253 308l328 -2zM1698 1455h365l-455 -1455h-313l-244 957h-3l-253 -957h-313l-455 1455h365l246 -893h3l225 893h361l222 -893h3z" />
    <glyph glyph-name="wgrave" unicode="&#x1e81;" horiz-adv-x="1559" 
d="M930 1137h-300l-253 308l328 -2zM1222 1002h318l-339 -1002h-267l-155 558h-3l-152 -558h-267l-339 1002h319l164 -537h4l148 537h251l149 -538h4z" />
    <glyph glyph-name="Wacute" unicode="&#x1e82;" horiz-adv-x="2090" 
d="M1462 1905l-253 -308h-301l228 306zM1698 1455h365l-455 -1455h-313l-244 957h-3l-253 -957h-313l-455 1455h365l246 -893h3l225 893h361l222 -893h3z" />
    <glyph glyph-name="wacute" unicode="&#x1e83;" horiz-adv-x="1559" 
d="M1191 1445l-253 -308h-301l228 306zM1222 1002h318l-339 -1002h-267l-155 558h-3l-152 -558h-267l-339 1002h319l164 -537h4l148 537h251l149 -538h4z" />
    <glyph glyph-name="Wdieresis" unicode="&#x1e84;" horiz-adv-x="2090" 
d="M818 1580q-41 0 -78 13.5t-64 38t-42.5 59.5t-15.5 76q0 81 57.5 133.5t142.5 52.5t142.5 -52.5t57.5 -133.5q0 -82 -57.5 -134.5t-142.5 -52.5zM1275 1580q-85 0 -142.5 52.5t-57.5 134.5q0 81 57.5 133.5t142.5 52.5q55 0 100.5 -23.5t72.5 -66t27 -96.5t-27 -97
t-72.5 -66.5t-100.5 -23.5zM1698 1455h365l-455 -1455h-313l-244 957h-3l-253 -957h-313l-455 1455h365l246 -893h3l225 893h361l222 -893h3z" />
    <glyph glyph-name="wdieresis" unicode="&#x1e85;" horiz-adv-x="1559" 
d="M549 1121q-55 0 -100.5 23.5t-72.5 66.5t-27 97q0 81 57.5 133.5t142.5 52.5t142.5 -52.5t57.5 -133.5q0 -82 -57.5 -134.5t-142.5 -52.5zM1006 1121q-85 0 -142.5 52.5t-57.5 134.5q0 54 27 96.5t72.5 66t100.5 23.5q41 0 78 -13.5t64 -38t42.5 -59.5t15.5 -75
q0 -82 -57.5 -134.5t-142.5 -52.5zM1222 1002h318l-339 -1002h-267l-155 558h-3l-152 -558h-267l-339 1002h319l164 -537h4l148 537h251l149 -538h4z" />
    <glyph glyph-name="uni1E9E" unicode="&#x1e9e;" horiz-adv-x="1584" 
d="M1127 877q179 -69 250 -115q129 -83 157 -220q9 -44 9 -95q0 -99 -32 -180t-83.5 -133t-118.5 -87.5t-133.5 -50.5t-131.5 -15q-117 0 -236 44t-224 131l155 282q76 -75 161 -114t148 -39q65 0 100.5 35t35.5 87q0 32 -10 54t-36.5 42.5t-65.5 37.5t-104 39
q-156 53 -265 126l237 439v4q-136 16 -235 16q-48 0 -84.5 -6t-70.5 -23t-55.5 -45.5t-34.5 -76.5t-13 -113l-1 -898h-344l2 941q0 98 18.5 177t54.5 137t85.5 100t116 67t141.5 37t165 12q64 0 134.5 -4.5t142.5 -13t145 -20.5t145 -27t140 -33l-265 -494v-5z" />
    <glyph glyph-name="uni1EA0" unicode="&#x1ea0;" horiz-adv-x="1415" 
d="M1406 0h-358l-85 260h-511l-84 -260h-358l533 1455h328zM546 550h323l-160 491h-4zM701 -155q85 0 142.5 -52.5t57.5 -134.5q0 -81 -57.5 -133.5t-142.5 -52.5t-142.5 52.5t-57.5 133.5q0 54 27 97t72.5 66.5t100.5 23.5z" />
    <glyph glyph-name="uni1EA1" unicode="&#x1ea1;" horiz-adv-x="1211" 
d="M791 1002h321v-1002h-304v108h-4q-97 -127 -278 -127q-102 0 -190 38t-150 105t-97 164t-35 212q0 113 35 210.5t96 165.5t145.5 106.5t180.5 38.5q169 0 276 -125h4v106zM592 263q90 0 151 65.5t61 170.5q0 68 -27.5 122.5t-76 85t-107.5 30.5q-93 0 -154 -66t-61 -172
q0 -105 60 -170.5t154 -65.5zM591 -155q85 0 142.5 -52.5t57.5 -134.5q0 -81 -57.5 -133.5t-142.5 -52.5t-142.5 52.5t-57.5 133.5q0 41 15.5 76t42.5 59t64 38t78 14z" />
    <glyph glyph-name="uni1EA2" unicode="&#x1ea2;" horiz-adv-x="1415" 
d="M697 1811q-29 0 -65.5 -17.5t-62.5 -38.5l-94 92q20 19 46.5 35.5t58 30.5t69.5 22t76 8q53 0 94.5 -12.5t68.5 -34.5t41.5 -52t14.5 -67q0 -63 -49.5 -105.5t-138.5 -60.5l-12 -47l-119 -6q-36 36 -36 63q0 20 25.5 40.5t55.5 34.5t55.5 36t25.5 45q0 34 -54 34zM1048 0
l-85 260h-511l-84 -260h-358l533 1455h328l535 -1455h-358zM546 550h323l-160 491h-4z" />
    <glyph glyph-name="uni1EA3" unicode="&#x1ea3;" horiz-adv-x="1211" 
d="M595 1351q-29 0 -65.5 -17.5t-62.5 -38.5l-94 92q42 40 109 68t141 28q105 0 162 -45.5t57 -120.5q0 -42 -23 -76t-64.5 -56t-100.5 -34l-12 -47l-119 -6q-36 36 -36 63q0 20 25.5 40.5t55.5 34.5t55.5 36t25.5 45q0 34 -54 34zM791 1002h321v-1002h-304v108h-4
q-97 -127 -278 -127q-102 0 -190 38t-150 105t-97 164t-35 212q0 113 35 210.5t96 165.5t145.5 106.5t180.5 38.5q169 0 276 -125h4v106zM592 263q90 0 151 65.5t61 170.5q0 103 -60.5 170.5t-150.5 67.5q-93 0 -154 -66t-61 -172q0 -105 60 -170.5t154 -65.5z" />
    <glyph glyph-name="uni1EA4" unicode="&#x1ea4;" horiz-adv-x="1415" 
d="M1549 1977l-294 -308h-236l228 306zM704 1697l-80 -140h-284l222 312h279l235 -312h-285l-83 140h-4zM543 1455h328l535 -1455h-358l-85 260h-511l-84 -260h-358zM546 550h323l-160 491h-4z" />
    <glyph glyph-name="uni1EA5" unicode="&#x1ea5;" horiz-adv-x="1211" 
d="M1386 1643l-294 -308h-236l228 306zM598 1275l-80 -140h-284l222 312h279l235 -312h-285l-83 140h-4zM791 896v106h321v-1002h-304v108h-4q-97 -127 -278 -127q-102 0 -190 38t-150 105t-97 164t-35 212q0 113 35 210.5t96 165.5t145.5 106.5t180.5 38.5q169 0 276 -125
h4zM592 263q90 0 151 65.5t61 170.5q0 103 -60.5 170.5t-150.5 67.5q-93 0 -154 -66t-61 -172q0 -105 60 -170.5t154 -65.5z" />
    <glyph glyph-name="uni1EA6" unicode="&#x1ea6;" horiz-adv-x="1415" 
d="M1348 1670h-227l-240 307l293 -1zM705 1697l-80 -140h-284l222 312h279l235 -312h-285l-83 140h-4zM1048 0l-85 260h-511l-84 -260h-358l533 1455h328l535 -1455h-358zM546 550h323l-160 491h-4z" />
    <glyph glyph-name="uni1EA7" unicode="&#x1ea7;" horiz-adv-x="1211" 
d="M1173 1337h-227l-240 308l293 -2zM602 1274l-80 -140h-284l222 312h279l235 -312h-285l-83 140h-4zM791 896v106h321v-1002h-304v108h-4q-97 -127 -278 -127q-102 0 -190 38t-150 105t-97 164t-35 212q0 113 35 210.5t96 165.5t145.5 106.5t180.5 38.5q169 0 276 -125h4z
M592 263q90 0 151 65.5t61 170.5q0 68 -27.5 122.5t-76 85t-107.5 30.5q-93 0 -154 -66t-61 -172q0 -105 60 -170.5t154 -65.5z" />
    <glyph glyph-name="uni1EA8" unicode="&#x1ea8;" horiz-adv-x="1415" 
d="M1158 1861q-29 0 -65.5 -17.5t-62.5 -38.5l-94 92q27 26 64 47t86.5 35t99.5 14q97 0 153 -46t56 -120q0 -63 -48 -105.5t-130 -60.5l-12 -46l-119 -7q-36 38 -36 63q0 17 16.5 33t39.5 29t46.5 26.5t40 31t16.5 36.5q0 34 -51 34zM702 1697l-80 -140h-284l222 312h279
l235 -312h-285l-83 140h-4zM1048 0l-85 260h-511l-84 -260h-358l533 1455h328l535 -1455h-358zM546 550h323l-160 491h-4z" />
    <glyph glyph-name="uni1EA9" unicode="&#x1ea9;" horiz-adv-x="1211" 
d="M1018 1664q49 0 88.5 -12.5t66 -34.5t40.5 -52.5t14 -66.5q0 -63 -48 -105.5t-130 -60.5l-12 -47l-119 -6q-36 36 -36 63q0 20 25 40.5t54.5 34.5t54.5 36t25 45q0 34 -51 34q-29 0 -65.5 -17.5t-62.5 -38.5l-94 92q42 40 109 68t141 28zM598 1274l-80 -140h-284l222 312
h279l235 -312h-285l-83 140h-4zM791 896v106h321v-1002h-304v108h-4q-97 -127 -278 -127q-102 0 -190 38t-150 105t-97 164t-35 212q0 113 35 210.5t96 165.5t145.5 106.5t180.5 38.5q169 0 276 -125h4zM592 263q90 0 151 65.5t61 170.5q0 68 -27.5 122.5t-76 85
t-107.5 30.5q-93 0 -154 -66t-61 -172q0 -105 60 -170.5t154 -65.5z" />
    <glyph glyph-name="uni1EAA" unicode="&#x1eaa;" horiz-adv-x="1415" 
d="M573 1849q-24 0 -50 -21t-46 -57l-137 46q30 76 88 122t134 46q15 0 29 -1.5t28.5 -5t24 -6.5t24.5 -9t21.5 -9t23 -10.5t19.5 -9.5q62 -30 100 -30q31 0 59.5 21t48.5 57l135 -34q-30 -85 -89 -132.5t-140 -47.5q-30 0 -61.5 7.5t-51 15.5t-49.5 22q-78 36 -111 36z
M703 1616l-120 -107h-271l269 223h239l282 -223h-273l-122 107h-4zM1048 0l-85 260h-511l-84 -260h-358l533 1455h328l535 -1455h-358zM546 550h323l-160 491h-4z" />
    <glyph glyph-name="uni1EAB" unicode="&#x1eab;" horiz-adv-x="1211" 
d="M514 1577q-23 0 -47 -26t-43 -71l-187 80q17 55 41 101.5t54 81.5t66.5 54.5t75.5 19.5q22 0 41.5 -2.5t32.5 -6t28 -10t23 -10.5t22.5 -13t20.5 -12q16 -10 25.5 -15.5t23.5 -11.5t26.5 -9t26.5 -3q69 0 114 95l183 -61q-22 -81 -58 -142.5t-87.5 -98t-111.5 -36.5
q-53 0 -94 15t-85 41q-10 6 -24.5 15t-22 13.5t-19.5 8t-25 3.5zM461 1446h279l235 -312h-285l-83 140h-4l-80 -140h-284zM791 1002h321v-1002h-304v108h-4q-97 -127 -278 -127q-102 0 -190 38t-150 105t-97 164t-35 212q0 113 35 210.5t96 165.5t145.5 106.5t180.5 38.5
q169 0 276 -125h4v106zM592 263q90 0 151 65.5t61 170.5q0 68 -27.5 122.5t-76 85t-107.5 30.5q-93 0 -154 -66t-61 -172q0 -105 60 -170.5t154 -65.5z" />
    <glyph glyph-name="uni1EAC" unicode="&#x1eac;" horiz-adv-x="1415" 
d="M700 1734l-80 -140h-284l222 312h279l235 -312h-285l-83 140h-4zM1406 0h-358l-85 260h-511l-84 -260h-358l533 1455h328zM546 550h323l-160 491h-4zM701 -155q85 0 142.5 -52.5t57.5 -134.5q0 -81 -57.5 -133.5t-142.5 -52.5t-142.5 52.5t-57.5 133.5q0 82 57.5 134.5
t142.5 52.5z" />
    <glyph glyph-name="uni1EAD" unicode="&#x1ead;" horiz-adv-x="1211" 
d="M598 1274l-80 -140h-284l222 312h279l235 -312h-285l-83 140h-4zM791 1002h321v-1002h-304v108h-4q-97 -127 -278 -127q-102 0 -190 38t-150 105t-97 164t-35 212q0 113 35 210.5t96 165.5t145.5 106.5t180.5 38.5q169 0 276 -125h4v106zM592 263q90 0 151 65.5t61 170.5
q0 68 -27.5 122.5t-76 85t-107.5 30.5q-93 0 -154 -66t-61 -172q0 -105 60 -170.5t154 -65.5zM591 -155q85 0 142.5 -52.5t57.5 -134.5q0 -81 -57.5 -133.5t-142.5 -52.5t-142.5 52.5t-57.5 133.5q0 41 15.5 76t42.5 59t64 38t78 14z" />
    <glyph glyph-name="uni1EAE" unicode="&#x1eae;" horiz-adv-x="1415" 
d="M1128 1942l-330 -219h-206l198 218zM707 1498q-299 0 -377 246h193q47 -102 184 -102q136 0 183 102h193q-38 -122 -133.5 -184t-242.5 -62zM1048 0l-85 260h-511l-84 -260h-358l533 1455h328l535 -1455h-358zM546 550h323l-160 491h-4z" />
    <glyph glyph-name="uni1EAF" unicode="&#x1eaf;" horiz-adv-x="1211" 
d="M947 1797l-253 -308h-301l228 306zM578 1124q-92 0 -168 36t-126.5 110t-58.5 174h236q1 -19 7 -35.5t16 -31t23.5 -24.5t31.5 -16t39 -6q32 0 57.5 13t41.5 39t18 61h236q-11 -139 -105.5 -229.5t-247.5 -90.5zM791 1002h321v-1002h-304v108h-4q-97 -127 -278 -127
q-102 0 -190 38t-150 105t-97 164t-35 212q0 113 35 210.5t96 165.5t145.5 106.5t180.5 38.5q169 0 276 -125h4v106zM592 263q90 0 151 65.5t61 170.5q0 68 -27.5 122.5t-76 85t-107.5 30.5q-93 0 -154 -66t-61 -172q0 -105 60 -170.5t154 -65.5z" />
    <glyph glyph-name="uni1EB0" unicode="&#x1eb0;" horiz-adv-x="1415" 
d="M821 1723h-206l-331 219l339 -1zM523 1744q23 -49 70.5 -75.5t113.5 -26.5t113 26.5t70 75.5h193q-38 -122 -133.5 -184t-242.5 -62q-299 0 -377 246h193zM1048 0l-85 260h-511l-84 -260h-358l533 1455h328l535 -1455h-358zM546 550h323l-160 491h-4z" />
    <glyph glyph-name="uni1EB1" unicode="&#x1eb1;" horiz-adv-x="1211" 
d="M716 1489h-300l-253 308l328 -2zM598 1331q49 0 81.5 30t35.5 83h236q-11 -139 -105.5 -229.5t-247.5 -90.5q-39 0 -76 7t-70.5 20.5t-63.5 33t-54.5 46.5t-43 59t-30.5 71t-15 83h236q1 -19 7 -35.5t16 -31t23.5 -24.5t31.5 -16t39 -6zM791 1002h321v-1002h-304v108h-4
q-97 -127 -278 -127q-102 0 -190 38t-150 105t-97 164t-35 212q0 113 35 210.5t96 165.5t145.5 106.5t180.5 38.5q169 0 276 -125h4v106zM592 263q90 0 151 65.5t61 170.5q0 68 -27.5 122.5t-76 85t-107.5 30.5q-93 0 -154 -66t-61 -172q0 -105 60 -170.5t154 -65.5z" />
    <glyph glyph-name="uni1EB2" unicode="&#x1eb2;" horiz-adv-x="1415" 
d="M694 1857q-27 0 -60 -15.5t-56 -34.5l-84 82q38 36 98 61t127 25q55 0 96.5 -17t63 -47.5t21.5 -70.5q0 -54 -41.5 -92t-110.5 -55l-12 -21l-64 -2q-56 0 -56 39q0 16 19.5 32t43.5 27.5t43.5 28t19.5 32.5q0 28 -48 28zM707 1498q-299 0 -377 246h193q23 -49 70.5 -75.5
t113.5 -26.5q63 0 111.5 26t71.5 76h193q-38 -122 -133.5 -184t-242.5 -62zM1048 0l-85 260h-511l-84 -260h-358l533 1455h328l535 -1455h-358zM546 550h323l-160 491h-4z" />
    <glyph glyph-name="uni1EB3" unicode="&#x1eb3;" horiz-adv-x="1211" 
d="M588 1712q-29 0 -65.5 -17.5t-62.5 -38.5l-94 92q27 25 63.5 46t86.5 35.5t100 14.5q105 0 162 -45.5t57 -120.5q0 -63 -49.5 -105.5t-138.5 -60.5l-12 -47l-119 -6q-36 36 -36 63q0 20 25.5 40.5t55.5 34.5t55.5 36t25.5 45q0 34 -54 34zM596 1124q-92 0 -168 36
t-126.5 110t-58.5 174h236q2 -24 10.5 -44t23 -35.5t36 -24.5t47.5 -9q49 0 81.5 30t35.5 83h236q-11 -139 -105.5 -229.5t-247.5 -90.5zM791 1002h321v-1002h-304v108h-4q-97 -127 -278 -127q-102 0 -190 38t-150 105t-97 164t-35 212q0 113 35 210.5t96 165.5t145.5 106.5
t180.5 38.5q169 0 276 -125h4v106zM592 263q90 0 151 65.5t61 170.5q0 68 -27.5 122.5t-76 85t-107.5 30.5q-93 0 -154 -66t-61 -172q0 -105 60 -170.5t154 -65.5z" />
    <glyph glyph-name="uni1EB4" unicode="&#x1eb4;" horiz-adv-x="1415" 
d="M573 1849q-24 0 -50 -21t-46 -57l-137 46q30 76 88 122t134 46q15 0 29 -1.5t28.5 -5t24 -6.5t24.5 -9t21.5 -9t23 -10.5t19.5 -9.5q62 -30 100 -30q31 0 59.5 21t48.5 57l135 -34q-30 -85 -89 -132.5t-140 -47.5q-30 0 -61.5 7.5t-51 15.5t-49.5 22q-78 36 -111 36z
M707 1498q-299 0 -377 246h193q23 -49 70.5 -75.5t113.5 -26.5q33 0 61.5 7t51.5 20t41 32t29 43h193q-38 -122 -133.5 -184t-242.5 -62zM1048 0l-85 260h-511l-84 -260h-358l533 1455h328l535 -1455h-358zM546 550h323l-160 491h-4z" />
    <glyph glyph-name="uni1EB5" unicode="&#x1eb5;" horiz-adv-x="1211" 
d="M502 1577q-23 0 -47 -26t-43 -71l-187 80q34 114 97 185.5t140 71.5q22 0 41.5 -2.5t32.5 -6t28 -10t23 -10.5t22.5 -13t20.5 -12q16 -10 25.5 -15.5t23.5 -11.5t26.5 -9t26.5 -3q69 0 114 95l183 -61q-34 -125 -100.5 -201t-156.5 -76q-53 0 -94 15t-85 41
q-10 6 -24.5 15t-22 13.5t-19.5 8t-25 3.5zM596 1331q32 0 57.5 13t41.5 39t18 61h236q-11 -139 -105.5 -229.5t-247.5 -90.5q-68 0 -129 21t-109 61t-78.5 101t-36.5 137h236q1 -19 7 -35.5t16 -31t23.5 -24.5t31.5 -16t39 -6zM791 1002h321v-1002h-304v108h-4
q-97 -127 -278 -127q-102 0 -190 38t-150 105t-97 164t-35 212q0 113 35 210.5t96 165.5t145.5 106.5t180.5 38.5q169 0 276 -125h4v106zM592 263q90 0 151 65.5t61 170.5q0 68 -27.5 122.5t-76 85t-107.5 30.5q-93 0 -154 -66t-61 -172q0 -105 60 -170.5t154 -65.5z" />
    <glyph glyph-name="uni1EB6" unicode="&#x1eb6;" horiz-adv-x="1415" 
d="M704 1584q-54 0 -104.5 13t-93.5 40t-76 65t-53.5 89.5t-25.5 112.5h236q4 -49 35 -81t82 -32q49 0 81.5 30t35.5 83h236q-11 -139 -105.5 -229.5t-247.5 -90.5zM1406 0h-358l-85 260h-511l-84 -260h-358l533 1455h328zM546 550h323l-160 491h-4zM701 -155
q85 0 142.5 -52.5t57.5 -134.5q0 -81 -57.5 -133.5t-142.5 -52.5t-142.5 52.5t-57.5 133.5q0 54 27 97t72.5 66.5t100.5 23.5z" />
    <glyph glyph-name="uni1EB7" unicode="&#x1eb7;" horiz-adv-x="1211" 
d="M602 1124q-92 0 -168 36t-126.5 110t-58.5 174h236q1 -19 7 -35.5t16 -31t23.5 -24.5t31.5 -16t39 -6q49 0 81.5 30t35.5 83h236q-11 -139 -105.5 -229.5t-247.5 -90.5zM791 1002h321v-1002h-304v108h-4q-97 -127 -278 -127q-102 0 -190 38t-150 105t-97 164t-35 212
q0 113 35 210.5t96 165.5t145.5 106.5t180.5 38.5q169 0 276 -125h4v106zM592 263q90 0 151 65.5t61 170.5q0 68 -27.5 122.5t-76 85t-107.5 30.5q-93 0 -154 -66t-61 -172q0 -105 60 -170.5t154 -65.5zM591 -155q85 0 142.5 -52.5t57.5 -134.5q0 -81 -57.5 -133.5
t-142.5 -52.5t-142.5 52.5t-57.5 133.5q0 41 15.5 76t42.5 59t64 38t78 14z" />
    <glyph glyph-name="uni1EB8" unicode="&#x1eb8;" horiz-adv-x="1190" 
d="M126 0v1455h950v-306h-614v-279h485v-301h-485v-264h657v-305h-993zM632 -155q55 0 100.5 -23.5t72.5 -66.5t27 -97q0 -81 -57.5 -133.5t-142.5 -52.5t-142.5 52.5t-57.5 133.5q0 82 57.5 134.5t142.5 52.5z" />
    <glyph glyph-name="uni1EB9" unicode="&#x1eb9;" horiz-adv-x="1119" 
d="M1065 510q0 -36 -8 -95h-682q17 -82 82.5 -127.5t154.5 -45.5q139 0 243 121l170 -191q-68 -86 -183 -138.5t-264 -52.5q-110 0 -206.5 38t-165.5 105.5t-109 165t-40 211.5q0 112 38.5 209t105.5 165t161.5 107t203.5 39q144 0 258 -65t177.5 -182t63.5 -264zM569 765
q-74 0 -126 -41.5t-67 -117.5l375 2q-11 49 -35 84t-62 54t-85 19zM589 -155q85 0 142.5 -52.5t57.5 -134.5q0 -81 -58 -133.5t-142.5 -52.5t-142 52.5t-57.5 133.5q0 41 15.5 76t42.5 59.5t64 38t78 13.5z" />
    <glyph glyph-name="uni1EBA" unicode="&#x1eba;" horiz-adv-x="1190" 
d="M534 1555q-36 36 -36 63q0 20 25.5 40.5t55.5 34.5t55.5 36t25.5 45q0 34 -54 34q-29 0 -65.5 -17.5t-62.5 -38.5l-94 92q20 19 46.5 35.5t58 30.5t69.5 22t76 8q105 0 162 -45.5t57 -120.5q0 -63 -49.5 -105.5t-138.5 -60.5l-12 -47zM126 0v1455h950v-306h-614v-279h485
v-301h-485v-264h657v-305h-993z" />
    <glyph glyph-name="uni1EBB" unicode="&#x1ebb;" horiz-adv-x="1119" 
d="M571 1351q-29 0 -65.5 -17.5t-62.5 -38.5l-94 92q42 40 109 68t141 28q105 0 162 -45.5t57 -120.5q0 -63 -49.5 -105.5t-138.5 -60.5l-12 -47l-119 -6q-36 36 -36 63q0 20 25.5 40.5t55.5 34.5t55.5 36t25.5 45q0 34 -54 34zM1065 510q0 -36 -8 -95h-682
q17 -82 82.5 -127.5t154.5 -45.5q139 0 243 121l170 -191q-68 -86 -183 -138.5t-264 -52.5q-110 0 -206.5 38t-165.5 105.5t-109 165t-40 211.5q0 112 38.5 209t105.5 165t161.5 107t203.5 39q144 0 258 -65t177.5 -182t63.5 -264zM569 765q-74 0 -126 -41.5t-67 -117.5
l375 2q-8 36 -24 65.5t-39 49.5t-53 31t-66 11z" />
    <glyph glyph-name="uni1EBC" unicode="&#x1ebc;" horiz-adv-x="1190" 
d="M388 1576l-187 80q17 56 42 102t57.5 81t74.5 54.5t89 19.5q41 0 79 -10t52.5 -17.5t48.5 -26.5q16 -10 25.5 -15.5t23.5 -11.5t26.5 -9t26.5 -3q69 0 114 95l184 -61q-34 -125 -101 -201t-157 -76q-52 0 -93.5 15t-85.5 41q-25 14 -37.5 20.5t-32.5 13t-38 6.5
q-69 0 -111 -97zM126 0v1455h950v-306h-614v-279h485v-301h-485v-264h657v-305h-993z" />
    <glyph glyph-name="uni1EBD" unicode="&#x1ebd;" horiz-adv-x="1119" 
d="M464 1216q-69 0 -111 -97l-187 80q35 116 102.5 186.5t160.5 70.5q41 0 79 -10t52.5 -17.5t48.5 -26.5q22 -13 34 -20t31 -13t37 -6q69 0 114 95l184 -61q-22 -81 -58 -142.5t-87.5 -98t-112.5 -36.5q-52 0 -93.5 15t-85.5 41q-25 14 -37.5 20.5t-32.5 13t-38 6.5z
M1065 510q0 -36 -8 -95h-682q17 -82 82.5 -127.5t154.5 -45.5q139 0 243 121l170 -191q-68 -86 -183 -138.5t-264 -52.5q-88 0 -168 24t-144 70t-111 109t-72.5 144t-25.5 173q0 112 38.5 209t105.5 165t161.5 107t203.5 39q144 0 258 -65t177.5 -182t63.5 -264zM569 765
q-74 0 -126 -41.5t-67 -117.5l375 2q-16 74 -63.5 115.5t-118.5 41.5z" />
    <glyph glyph-name="uni1EBE" unicode="&#x1ebe;" horiz-adv-x="1190" 
d="M1156 1972l302 2l-294 -308h-236zM613 1694l-80 -140h-284l222 312h279l235 -312h-285l-83 140h-4zM462 569v-264h657v-305h-993v1455h950v-306h-614v-279h485v-301h-485z" />
    <glyph glyph-name="uni1EBF" unicode="&#x1ebf;" horiz-adv-x="1119" 
d="M1060 1641l302 2l-294 -308h-236zM574 1275l-80 -140h-284l222 312h279l235 -312h-285l-83 140h-4zM566 1021q144 0 258 -65t177.5 -182t63.5 -264q0 -36 -8 -95h-682q17 -82 82.5 -127.5t154.5 -45.5q139 0 243 121l170 -191q-68 -86 -183 -138.5t-264 -52.5
q-88 0 -168 24t-144 70t-111 109t-72.5 144t-25.5 173q0 112 38.5 209t105.5 165t161.5 107t203.5 39zM569 765q-74 0 -126 -41.5t-67 -117.5l375 2q-16 74 -63.5 115.5t-118.5 41.5z" />
    <glyph glyph-name="uni1EC0" unicode="&#x1ec0;" horiz-adv-x="1190" 
d="M1257 1667h-227l-240 307l293 -1zM614 1694l-80 -140h-284l222 312h279l235 -312h-285l-83 140h-4zM462 569v-264h657v-305h-993v1455h950v-306h-614v-279h485v-301h-485z" />
    <glyph glyph-name="uni1EC1" unicode="&#x1ec1;" horiz-adv-x="1119" 
d="M1149 1337h-227l-240 308l293 -2zM578 1274l-80 -140h-284l222 312h279l235 -312h-285l-83 140h-4zM566 1021q144 0 258 -65t177.5 -182t63.5 -264q0 -36 -8 -95h-682q17 -82 82.5 -127.5t154.5 -45.5q139 0 243 121l170 -191q-68 -86 -183 -138.5t-264 -52.5
q-88 0 -168 24t-144 70t-111 109t-72.5 144t-25.5 173q0 112 38.5 209t105.5 165t161.5 107t203.5 39zM569 765q-74 0 -126 -41.5t-67 -117.5l375 2q-8 36 -24 65.5t-39 49.5t-53 31t-66 11z" />
    <glyph glyph-name="uni1EC2" unicode="&#x1ec2;" horiz-adv-x="1190" 
d="M1095 1990q97 0 153 -46t56 -120q0 -63 -48 -105.5t-130 -60.5l-12 -46l-119 -7q-36 38 -36 63q0 20 25 40.5t54.5 35t54.5 36t25 44.5q0 34 -51 34q-20 0 -45 -9t-46 -21.5t-37 -25.5l-94 92q42 40 109 68t141 28zM611 1694l-80 -140h-284l222 312h279l235 -312h-285
l-83 140h-4zM462 569v-264h657v-305h-993v1455h950v-306h-614v-279h485v-301h-485z" />
    <glyph glyph-name="uni1EC3" unicode="&#x1ec3;" horiz-adv-x="1119" 
d="M994 1664q97 0 153 -46t56 -120q0 -25 -8.5 -48t-24 -41t-37.5 -33t-49 -26t-59 -18l-12 -47l-119 -6q-36 36 -36 63q0 20 25 40.5t54.5 34.5t54.5 36t25 45q0 34 -51 34q-29 0 -65.5 -17.5t-62.5 -38.5l-94 92q42 40 109 68t141 28zM574 1274l-80 -140h-284l222 312h279
l235 -312h-285l-83 140h-4zM566 1021q144 0 258 -65t177.5 -182t63.5 -264q0 -36 -8 -95h-682q17 -82 82.5 -127.5t154.5 -45.5q139 0 243 121l170 -191q-68 -86 -183 -138.5t-264 -52.5q-88 0 -168 24t-144 70t-111 109t-72.5 144t-25.5 173q0 112 38.5 209t105.5 165
t161.5 107t203.5 39zM569 765q-74 0 -126 -41.5t-67 -117.5l375 2q-16 74 -63.5 115.5t-118.5 41.5z" />
    <glyph glyph-name="uni1EC4" unicode="&#x1ec4;" horiz-adv-x="1190" 
d="M482 1846q-24 0 -50 -21t-46 -57l-137 46q30 76 88 122t134 46q13 0 26 -1.5t23.5 -3.5t23.5 -5.5t21 -6.5t20.5 -8.5t18.5 -8t19 -9t18 -8.5q62 -30 100 -30q31 0 59.5 21t48.5 57l135 -34q-30 -85 -89 -132.5t-140 -47.5q-30 0 -61.5 7.5t-51 15.5t-49.5 22
q-78 36 -111 36zM612 1613l-120 -107h-271l269 223h239l282 -223h-273l-122 107h-4zM462 305h657v-305h-993v1455h950v-306h-614v-279h485v-301h-485v-264z" />
    <glyph glyph-name="uni1EC5" unicode="&#x1ec5;" horiz-adv-x="1119" 
d="M490 1577q-23 0 -47 -26t-43 -71l-187 80q34 114 97 185.5t140 71.5q22 0 41.5 -2.5t32.5 -6t28 -10t23 -10.5t22.5 -13t20.5 -12q16 -10 25.5 -15.5t23.5 -11.5t26.5 -9t26.5 -3q69 0 114 95l183 -61q-22 -81 -58 -142.5t-87.5 -98t-111.5 -36.5q-53 0 -94 15t-85 41
q-10 6 -24.5 15t-22 13.5t-19.5 8t-25 3.5zM437 1446h279l235 -312h-285l-83 140h-4l-80 -140h-284zM1065 510q0 -36 -8 -95h-682q11 -55 46 -94.5t84 -59t107 -19.5q139 0 243 121l170 -191q-68 -86 -183 -138.5t-264 -52.5q-88 0 -168 24t-144 70t-111 109t-72.5 144
t-25.5 173q0 112 38.5 209t105.5 165t161.5 107t203.5 39q144 0 258 -65.5t177.5 -182t63.5 -263.5zM569 765q-74 0 -126 -41.5t-67 -117.5l375 2q-8 36 -24 65.5t-39 49.5t-53 31t-66 11z" />
    <glyph glyph-name="uni1EC6" unicode="&#x1ec6;" horiz-adv-x="1190" 
d="M609 1731l-80 -140h-284l222 312h279l235 -312h-285l-83 140h-4zM462 305h657v-305h-993v1455h950v-306h-614v-279h485v-301h-485v-264zM632 -155q55 0 100.5 -23.5t72.5 -66.5t27 -97q0 -81 -57.5 -133.5t-142.5 -52.5t-142.5 52.5t-57.5 133.5q0 82 57.5 134.5
t142.5 52.5z" />
    <glyph glyph-name="uni1EC7" unicode="&#x1ec7;" horiz-adv-x="1119" 
d="M574 1274l-80 -140h-284l222 312h279l235 -312h-285l-83 140h-4zM1065 510q0 -36 -8 -95h-682q17 -82 82.5 -127.5t154.5 -45.5q139 0 243 121l170 -191q-68 -86 -183 -138.5t-264 -52.5q-88 0 -168 24t-144 70t-111 109t-72.5 144t-25.5 173q0 112 38.5 209t105.5 165
t161.5 107t203.5 39q144 0 258 -65t177.5 -182t63.5 -264zM569 765q-74 0 -126 -41.5t-67 -117.5l375 2q-8 36 -24 65.5t-39 49.5t-53 31t-66 11zM589 -155q85 0 142.5 -52.5t57.5 -134.5q0 -81 -57.5 -133.5t-142.5 -52.5t-142.5 52.5t-57.5 133.5q0 41 15.5 76t42.5 59.5
t64 38t78 13.5z" />
    <glyph glyph-name="uni1EC8" unicode="&#x1ec8;" horiz-adv-x="618" 
d="M224 1555q-36 36 -36 63q0 20 25.5 40.5t55.5 34.5t55.5 36t25.5 45q0 34 -54 34q-29 0 -65.5 -17.5t-62.5 -38.5l-94 92q42 40 109 68t141 28q105 0 162 -45.5t57 -120.5q0 -42 -23 -76t-64.5 -56t-100.5 -34l-12 -47zM136 0v1455h346v-1455h-346z" />
    <glyph glyph-name="uni1EC9" unicode="&#x1ec9;" horiz-adv-x="552" 
d="M194 1098q-36 36 -36 63q0 20 25.5 40.5t55.5 34.5t55.5 36t25.5 45q0 34 -54 34q-29 0 -65.5 -17.5t-62.5 -38.5l-94 92q42 40 109 68t141 28q105 0 162 -45.5t57 -120.5q0 -63 -49.5 -105.5t-138.5 -60.5l-12 -47zM116 0v1002h319v-1002h-319z" />
    <glyph glyph-name="uni1ECA" unicode="&#x1eca;" horiz-adv-x="618" 
d="M136 0v1455h346v-1455h-346zM305 -155q85 0 142.5 -52.5t57.5 -134.5q0 -81 -57.5 -133.5t-142.5 -52.5t-142.5 52.5t-57.5 133.5q0 82 57.5 134.5t142.5 52.5z" />
    <glyph glyph-name="uni1ECB" unicode="&#x1ecb;" horiz-adv-x="552" 
d="M276 1121q-85 0 -142.5 52.5t-57.5 134.5q0 54 27 96.5t72.5 66t100.5 23.5q85 0 142.5 -52.5t57.5 -133.5q0 -82 -57.5 -134.5t-142.5 -52.5zM116 0v1002h319v-1002h-319zM289 -155q85 0 142.5 -52.5t57.5 -134.5q0 -81 -57.5 -133.5t-142.5 -52.5t-142.5 52.5
t-57.5 133.5q0 82 57.5 134.5t142.5 52.5z" />
    <glyph glyph-name="uni1ECC" unicode="&#x1ecc;" horiz-adv-x="1642" 
d="M823 -20q-164 0 -304 55.5t-237.5 153.5t-152.5 237t-55 301t55 301t152.5 237.5t237.5 154t304 55.5q161 0 299.5 -54.5t236.5 -152t154 -237t56 -304.5q0 -164 -56 -303.5t-154 -237t-236.5 -152t-299.5 -54.5zM823 300q111 0 200.5 56t139 153.5t49.5 217.5t-49.5 218
t-139 154t-200.5 56q-113 0 -203 -57t-139.5 -154.5t-49.5 -216.5q0 -118 49.5 -215.5t139.5 -154.5t203 -57zM822 -155q85 0 142.5 -52.5t57.5 -134.5q0 -81 -57.5 -133.5t-142.5 -52.5t-142.5 52.5t-57.5 133.5q0 41 15.5 76t42.5 59.5t64 38t78 13.5z" />
    <glyph glyph-name="uni1ECD" unicode="&#x1ecd;" horiz-adv-x="1195" 
d="M598 -20q-119 0 -220 38.5t-171.5 107t-110 165t-39.5 209.5t39.5 209.5t110 165t171.5 107.5t220 39q157 0 280 -65.5t191.5 -184.5t68.5 -271t-68.5 -270.5t-191.5 -184t-280 -65.5zM598 265q92 0 154.5 66.5t62.5 168.5q0 104 -61.5 169.5t-155.5 65.5q-96 0 -157 -66
t-61 -169q0 -101 62 -168t156 -67zM597 -155q85 0 142.5 -52.5t57.5 -134.5q0 -81 -57.5 -133.5t-142.5 -52.5t-142.5 52.5t-57.5 133.5q0 82 57.5 134.5t142.5 52.5z" />
    <glyph glyph-name="uni1ECE" unicode="&#x1ece;" horiz-adv-x="1642" 
d="M742 1557q-36 36 -36 63q0 20 25.5 40.5t55.5 34.5t55.5 36t25.5 45q0 34 -54 34q-29 0 -65.5 -17.5t-62.5 -38.5l-94 92q42 40 109 68t141 28q70 0 120 -21.5t74.5 -58.5t24.5 -86q0 -42 -23 -76t-64.5 -56t-100.5 -34l-12 -47zM823 -20q-164 0 -304 55.5t-237.5 153.5
t-152.5 237t-55 301t55 301t152.5 237.5t237.5 154t304 55.5q161 0 299.5 -54.5t236.5 -151.5t154 -237t56 -305q0 -164 -56 -303.5t-154 -237t-236.5 -152t-299.5 -54.5zM823 300q111 0 200.5 56t139 153.5t49.5 217.5t-49.5 218t-139 154t-200.5 56q-113 0 -203 -57
t-139.5 -154.5t-49.5 -216.5q0 -118 49.5 -215.5t139.5 -154.5t203 -57z" />
    <glyph glyph-name="uni1ECF" unicode="&#x1ecf;" horiz-adv-x="1195" 
d="M517 1098q-36 36 -36 63q0 20 25.5 40.5t55.5 34.5t55.5 36t25.5 45q0 34 -54 34q-29 0 -65.5 -17.5t-62.5 -38.5l-94 92q42 40 109 68t141 28q105 0 162 -45.5t57 -120.5q0 -42 -23 -76t-64.5 -56t-100.5 -34l-12 -47zM598 -20q-119 0 -220 38.5t-171.5 107t-110 165
t-39.5 209.5t39.5 209.5t110 165t171.5 107.5t220 39q157 0 280 -65.5t191.5 -184.5t68.5 -271t-68.5 -270.5t-191.5 -184t-280 -65.5zM598 265q92 0 154.5 66.5t62.5 168.5q0 104 -61.5 169.5t-155.5 65.5q-96 0 -157 -66t-61 -169q0 -101 62 -168t156 -67z" />
    <glyph glyph-name="uni1ED0" unicode="&#x1ed0;" horiz-adv-x="1642" 
d="M1666 1976l-294 -308h-236l228 306zM821 1696l-80 -140h-284l222 312h279l235 -312h-285l-83 140h-4zM823 1475q161 0 299.5 -54.5t236.5 -152t154 -237t56 -304.5q0 -164 -56 -303.5t-154 -237t-236.5 -152t-299.5 -54.5q-164 0 -304 55.5t-237.5 153.5t-152.5 237
t-55 301t55 301t152.5 237.5t237.5 154t304 55.5zM823 300q111 0 200.5 56t139 153.5t49.5 217.5t-49.5 218t-139 154t-200.5 56q-113 0 -203 -57t-139.5 -154.5t-49.5 -216.5q0 -118 49.5 -215.5t139.5 -154.5t203 -57z" />
    <glyph glyph-name="uni1ED1" unicode="&#x1ed1;" horiz-adv-x="1195" 
d="M1380 1643l-294 -308h-236l228 306zM592 1275l-80 -140h-284l222 312h279l235 -312h-285l-83 140h-4zM598 1021q157 0 280 -65.5t191.5 -184.5t68.5 -271t-68.5 -270.5t-191.5 -184t-280 -65.5q-95 0 -179.5 24.5t-150 71t-113.5 110t-73 144t-25 170.5q0 113 39.5 209.5
t110 165t171.5 107.5t220 39zM598 265q92 0 154.5 66.5t62.5 168.5q0 104 -61.5 169.5t-155.5 65.5q-96 0 -157 -66t-61 -169q0 -101 62 -168t156 -67z" />
    <glyph glyph-name="uni1ED2" unicode="&#x1ed2;" horiz-adv-x="1642" 
d="M1465 1669h-227l-240 307l293 -1zM822 1696l-80 -140h-284l222 312h279l235 -312h-285l-83 140h-4zM823 1475q161 0 299.5 -54.5t236.5 -152t154 -237t56 -304.5q0 -164 -56 -303.5t-154 -237t-236.5 -152t-299.5 -54.5q-164 0 -304 55.5t-237.5 153.5t-152.5 237
t-55 301t55 301t152.5 237.5t237.5 154t304 55.5zM823 300q111 0 200.5 56t139 153.5t49.5 217.5t-49.5 218t-139 154t-200.5 56q-113 0 -203 -57t-139.5 -154.5t-49.5 -216.5q0 -118 49.5 -215.5t139.5 -154.5t203 -57z" />
    <glyph glyph-name="uni1ED3" unicode="&#x1ed3;" horiz-adv-x="1195" 
d="M1167 1337h-227l-240 308l293 -2zM596 1274l-80 -140h-284l222 312h279l235 -312h-285l-83 140h-4zM598 1021q157 0 280 -65.5t191.5 -184.5t68.5 -271t-68.5 -270.5t-191.5 -184t-280 -65.5q-95 0 -179.5 24.5t-150 71t-113.5 110t-73 144t-25 170.5q0 113 39.5 209.5
t110 165t171.5 107.5t220 39zM598 265q92 0 154.5 66.5t62.5 168.5q0 104 -61.5 169.5t-155.5 65.5q-96 0 -157 -66t-61 -169q0 -101 62 -168t156 -67z" />
    <glyph glyph-name="uni1ED4" unicode="&#x1ed4;" horiz-adv-x="1642" 
d="M1275 1860q-29 0 -65.5 -17.5t-62.5 -38.5l-94 92q42 40 109 68t141 28q97 0 153 -46t56 -120q0 -42 -23 -76t-62.5 -56t-92.5 -34l-12 -46l-119 -7q-36 38 -36 63q0 20 25 40.5t54.5 35t54.5 36t25 44.5q0 34 -51 34zM819 1696l-80 -140h-284l222 312h279l235 -312h-285
l-83 140h-4zM823 1475q161 0 299.5 -54.5t236.5 -152t154 -237t56 -304.5q0 -164 -56 -303.5t-154 -237t-236.5 -152t-299.5 -54.5q-164 0 -304 55.5t-237.5 153.5t-152.5 237t-55 301t55 301t152.5 237.5t237.5 154t304 55.5zM823 300q111 0 200.5 56t139 153.5t49.5 217.5
t-49.5 218t-139 154t-200.5 56q-113 0 -203 -57t-139.5 -154.5t-49.5 -216.5q0 -118 49.5 -215.5t139.5 -154.5t203 -57z" />
    <glyph glyph-name="uni1ED5" unicode="&#x1ed5;" horiz-adv-x="1195" 
d="M1012 1664q49 0 88.5 -12.5t66 -34.5t40.5 -52.5t14 -66.5q0 -63 -48 -105.5t-130 -60.5l-12 -47l-119 -6q-36 36 -36 63q0 20 25 40.5t54.5 34.5t54.5 36t25 45q0 34 -51 34q-29 0 -65.5 -17.5t-62.5 -38.5l-94 92q42 40 109 68t141 28zM592 1274l-80 -140h-284l222 312
h279l235 -312h-285l-83 140h-4zM598 1021q157 0 280 -65.5t191.5 -184.5t68.5 -271t-68.5 -270.5t-191.5 -184t-280 -65.5q-119 0 -220 38.5t-171.5 107t-110 165t-39.5 209.5t39.5 209.5t110 165t171.5 107.5t220 39zM598 265q92 0 154.5 66.5t62.5 168.5
q0 104 -61.5 169.5t-155.5 65.5q-96 0 -157 -66t-61 -169q0 -101 62 -168t156 -67z" />
    <glyph glyph-name="uni1ED6" unicode="&#x1ed6;" horiz-adv-x="1642" 
d="M690 1848q-24 0 -50 -21t-46 -57l-137 46q30 76 88 122t134 46q15 0 29 -1.5t28 -5t24 -6.5t25 -9t21.5 -9t22.5 -10.5t20 -9.5q62 -30 100 -30q31 0 59.5 21t48.5 57l135 -34q-30 -85 -89.5 -132.5t-139.5 -47.5q-30 0 -61.5 7.5t-51 15.5t-49.5 22q-78 36 -111 36z
M820 1615l-120 -107h-271l269 223h239l282 -223h-273l-122 107h-4zM823 1475q161 0 299.5 -54.5t236.5 -152t154 -237t56 -304.5q0 -164 -56 -303.5t-154 -237t-236.5 -152t-299.5 -54.5q-164 0 -304 55.5t-237.5 153.5t-152.5 237t-55 301t55 301t152.5 237.5t237.5 154
t304 55.5zM823 300q111 0 200.5 56t139 153.5t49.5 217.5t-49.5 218t-139 154t-200.5 56q-113 0 -203 -57t-139.5 -154.5t-49.5 -216.5q0 -118 49.5 -215.5t139.5 -154.5t203 -57z" />
    <glyph glyph-name="uni1ED7" unicode="&#x1ed7;" horiz-adv-x="1195" 
d="M508 1577q-23 0 -47 -26t-43 -71l-187 80q34 114 97 185.5t140 71.5q22 0 41.5 -2.5t32.5 -6t28 -10t23 -10.5t22.5 -13t20.5 -12q16 -10 25.5 -15.5t23.5 -11.5t26.5 -9t26.5 -3q69 0 114 95l183 -61q-22 -81 -58 -142.5t-87.5 -98t-111.5 -36.5q-28 0 -53.5 4.5
t-48.5 13.5t-39.5 17.5t-37.5 20.5q-8 4 -17 10l-15 10q-6 4 -13.5 8t-14 6.5t-14.5 4t-17 1.5zM455 1446h279l235 -312h-285l-83 140h-4l-80 -140h-284zM598 1021q157 0 280 -65.5t191.5 -184.5t68.5 -271t-68.5 -270.5t-191.5 -184t-280 -65.5q-95 0 -179.5 24.5t-150 71
t-113.5 110t-73 144t-25 170.5q0 113 39.5 209.5t110 165t171.5 107.5t220 39zM598 265q92 0 154.5 66.5t62.5 168.5q0 104 -61.5 169.5t-155.5 65.5q-96 0 -157 -66t-61 -169q0 -101 62 -168t156 -67z" />
    <glyph glyph-name="uni1ED8" unicode="&#x1ed8;" horiz-adv-x="1642" 
d="M817 1733l-80 -140h-284l222 312h279l235 -312h-285l-83 140h-4zM823 1475q161 0 299.5 -54.5t236.5 -152t154 -237t56 -304.5q0 -164 -56 -303.5t-154 -237t-236.5 -152t-299.5 -54.5q-164 0 -304 55.5t-237.5 153.5t-152.5 237t-55 301t55 301t152.5 237.5t237.5 154
t304 55.5zM823 300q169 0 279 122t110 305t-110 305.5t-279 122.5q-113 0 -203 -57t-139.5 -154.5t-49.5 -216.5q0 -118 49.5 -215.5t139.5 -154.5t203 -57zM822 -155q85 0 142.5 -52.5t57.5 -134.5q0 -81 -57.5 -133.5t-142.5 -52.5t-142.5 52.5t-57.5 133.5q0 41 15.5 76
t42.5 59.5t64 38t78 13.5z" />
    <glyph glyph-name="uni1ED9" unicode="&#x1ed9;" horiz-adv-x="1195" 
d="M592 1274l-80 -140h-284l222 312h279l235 -312h-285l-83 140h-4zM598 1021q157 0 280 -65.5t191.5 -184.5t68.5 -271t-68.5 -270.5t-191.5 -184t-280 -65.5q-95 0 -179.5 24.5t-150 71t-113.5 110t-73 144t-25 170.5q0 113 39.5 209.5t110 165t171.5 107.5t220 39z
M598 265q92 0 154.5 66.5t62.5 168.5q0 104 -61.5 169.5t-155.5 65.5q-96 0 -157 -66t-61 -169q0 -101 62 -168t156 -67zM597 -155q85 0 142.5 -52.5t57.5 -134.5q0 -81 -57.5 -133.5t-142.5 -52.5t-142.5 52.5t-57.5 133.5q0 82 57.5 134.5t142.5 52.5z" />
    <glyph glyph-name="uni1EDA" unicode="&#x1eda;" horiz-adv-x="1736" 
d="M1238 1905l-253 -308h-301l228 306zM1461 1587h273v-156q0 -96 -28.5 -168t-81 -117t-128.5 -67l-1 -4q74 -156 74 -348q0 -164 -56 -303.5t-154 -237t-236.5 -152t-299.5 -54.5q-164 0 -304 55.5t-237.5 153.5t-152.5 237t-55 301t55 301t152.5 237.5t237.5 154
t304 55.5q177 0 325 -65t250 -184q39 24 51 70t12 128v163zM823 300q111 0 200.5 56t139 153.5t49.5 217.5t-49.5 218t-139 154t-200.5 56q-113 0 -203 -57t-139.5 -154.5t-49.5 -216.5q0 -118 49.5 -215.5t139.5 -154.5t203 -57z" />
    <glyph glyph-name="uni1EDB" unicode="&#x1edb;" horiz-adv-x="1386" 
d="M1003 1445l-253 -308h-301l228 306zM1104 1159h273v-156q0 -75 -17.5 -135.5t-50.5 -104t-79.5 -73t-106.5 -44.5l-2 -4q17 -68 17 -142q0 -152 -68.5 -270.5t-191.5 -184t-280 -65.5q-119 0 -220 38.5t-171.5 107t-110 165t-39.5 209.5t39.5 209.5t110 165t171.5 107.5
t220 39q146 0 263 -57t188 -160q23 17 35.5 47t16 61.5t3.5 83.5v163zM598 265q92 0 154.5 66.5t62.5 168.5q0 104 -61.5 169.5t-155.5 65.5q-96 0 -157 -66t-61 -169q0 -101 62 -168t156 -67z" />
    <glyph glyph-name="uni1EDC" unicode="&#x1edc;" horiz-adv-x="1736" 
d="M995 1597h-300l-253 308l328 -2zM1461 1587h273v-156q0 -96 -28.5 -168t-81 -117t-128.5 -67l-1 -4q74 -156 74 -348q0 -164 -56 -303.5t-154 -237t-236.5 -152t-299.5 -54.5q-164 0 -304 55.5t-237.5 153.5t-152.5 237t-55 301t55 301t152.5 237.5t237.5 154t304 55.5
q177 0 325 -65t250 -184q39 24 51 70t12 128v163zM823 300q111 0 200.5 56t139 153.5t49.5 217.5t-49.5 218t-139 154t-200.5 56q-113 0 -203 -57t-139.5 -154.5t-49.5 -216.5q0 -118 49.5 -215.5t139.5 -154.5t203 -57z" />
    <glyph glyph-name="uni1EDD" unicode="&#x1edd;" horiz-adv-x="1386" 
d="M782 1137h-300l-253 308l328 -2zM1104 1159h273v-156q0 -148 -66 -237t-188 -120l-2 -4q17 -68 17 -142q0 -152 -68.5 -270.5t-191.5 -184t-280 -65.5q-95 0 -179.5 24.5t-150 71t-113.5 110t-73 144t-25 170.5q0 113 39.5 209.5t110 165t171.5 107.5t220 39
q146 0 263 -57t188 -160q23 17 35.5 47t16 61.5t3.5 83.5v163zM598 265q92 0 154.5 66.5t62.5 168.5q0 104 -61.5 169.5t-155.5 65.5q-96 0 -157 -66t-61 -169q0 -101 62 -168t156 -67z" />
    <glyph glyph-name="uni1EDE" unicode="&#x1ede;" horiz-adv-x="1736" 
d="M814 1810q-29 0 -65.5 -17.5t-62.5 -38.5l-94 92q42 40 109 68t141 28q70 0 120 -21.5t74.5 -58.5t24.5 -86q0 -42 -23 -76t-64.5 -56t-100.5 -34l-12 -47l-119 -6q-36 36 -36 63q0 20 25.5 40.5t55.5 34.5t55.5 36t25.5 45q0 34 -54 34zM1461 1587h273v-156
q0 -143 -61.5 -231t-176.5 -121l-1 -4q74 -156 74 -348q0 -164 -56 -303.5t-154 -237t-236.5 -152t-299.5 -54.5q-164 0 -304 55.5t-237.5 153.5t-152.5 237t-55 301t55 301t152.5 237.5t237.5 154t304 55.5q177 0 325 -65t250 -184q39 24 51 70t12 128v163zM823 300
q111 0 200.5 56t139 153.5t49.5 217.5t-49.5 218t-139 154t-200.5 56q-113 0 -203 -57t-139.5 -154.5t-49.5 -216.5q0 -118 49.5 -215.5t139.5 -154.5t203 -57z" />
    <glyph glyph-name="uni1EDF" unicode="&#x1edf;" horiz-adv-x="1386" 
d="M589 1351q-29 0 -65.5 -17.5t-62.5 -38.5l-94 92q42 40 109 68t141 28q105 0 162 -45.5t57 -120.5q0 -42 -23 -76t-64.5 -56t-100.5 -34l-12 -47l-119 -6q-36 36 -36 63q0 20 25.5 40.5t55.5 34.5t55.5 36t25.5 45q0 34 -54 34zM1104 1159h273v-156q0 -75 -17.5 -135.5
t-50.5 -104t-79.5 -73t-106.5 -44.5l-2 -4q17 -68 17 -142q0 -152 -68.5 -270.5t-191.5 -184t-280 -65.5q-95 0 -179.5 24.5t-150 71t-113.5 110t-73 144t-25 170.5q0 113 39.5 209.5t110 165t171.5 107.5t220 39q146 0 263 -57t188 -160q23 17 35.5 47t16 61.5t3.5 83.5
v163zM598 265q92 0 154.5 66.5t62.5 168.5q0 104 -61.5 169.5t-155.5 65.5q-96 0 -157 -66t-61 -169q0 -101 62 -168t156 -67z" />
    <glyph glyph-name="uni1EE0" unicode="&#x1ee0;" horiz-adv-x="1736" 
d="M707 1675q-69 0 -111 -97l-187 80q35 116 102.5 186.5t160.5 70.5q41 0 79 -10t52.5 -17.5t48.5 -26.5q21 -13 33.5 -20t31.5 -13t37 -6q69 0 114 95l184 -61q-22 -81 -58 -142.5t-87.5 -98t-112.5 -36.5q-36 0 -71 9t-57.5 19.5t-50.5 27.5q-25 14 -37.5 20.5t-32.5 13
t-38 6.5zM1461 1587h273v-156q0 -143 -61.5 -231t-176.5 -121l-1 -4q74 -156 74 -348q0 -164 -56 -303.5t-154 -237t-236.5 -152t-299.5 -54.5q-164 0 -304 55.5t-237.5 153.5t-152.5 237t-55 301t55 301t152.5 237.5t237.5 154t304 55.5q177 0 325 -65t250 -184
q39 24 51 70t12 128v163zM823 300q111 0 200.5 56t139 153.5t49.5 217.5t-49.5 218t-139 154t-200.5 56q-113 0 -203 -57t-139.5 -154.5t-49.5 -216.5q0 -118 49.5 -215.5t139.5 -154.5t203 -57z" />
    <glyph glyph-name="uni1EE1" unicode="&#x1ee1;" horiz-adv-x="1386" 
d="M482 1216q-69 0 -111 -97l-187 80q35 116 102.5 186.5t160.5 70.5q41 0 79 -10t52.5 -17.5t48.5 -26.5q22 -13 34 -20t31 -13t37 -6q69 0 114 95l184 -61q-34 -125 -101 -201t-157 -76q-52 0 -93.5 15t-85.5 41q-25 14 -37.5 20.5t-32.5 13t-38 6.5zM1104 1159h273v-156
q0 -148 -66 -237t-188 -120l-2 -4q17 -68 17 -142q0 -152 -68.5 -270.5t-191.5 -184t-280 -65.5q-95 0 -179.5 24.5t-150 71t-113.5 110t-73 144t-25 170.5q0 113 39.5 209.5t110 165t171.5 107.5t220 39q146 0 263 -57t188 -160q23 17 35.5 47t16 61.5t3.5 83.5v163z
M598 265q92 0 154.5 66.5t62.5 168.5q0 104 -61.5 169.5t-155.5 65.5q-96 0 -157 -66t-61 -169q0 -101 62 -168t156 -67z" />
    <glyph glyph-name="uni1EE2" unicode="&#x1ee2;" horiz-adv-x="1736" 
d="M1461 1587h273v-156q0 -96 -28.5 -168t-81 -117t-128.5 -67l-1 -4q74 -156 74 -348q0 -164 -56 -303.5t-154 -237t-236.5 -152t-299.5 -54.5q-164 0 -304 55.5t-237.5 153.5t-152.5 237t-55 301t55 301t152.5 237.5t237.5 154t304 55.5q177 0 325 -65t250 -184
q39 24 51 70t12 128v163zM823 300q111 0 200.5 56t139 153.5t49.5 217.5t-49.5 218t-139 154t-200.5 56q-113 0 -203 -57t-139.5 -154.5t-49.5 -216.5q0 -118 49.5 -215.5t139.5 -154.5t203 -57zM822 -155q85 0 142.5 -52.5t57.5 -134.5q0 -81 -57.5 -133.5t-142.5 -52.5
t-142.5 52.5t-57.5 133.5q0 41 15.5 76t42.5 59t64 38t78 14z" />
    <glyph glyph-name="uni1EE3" unicode="&#x1ee3;" horiz-adv-x="1386" 
d="M1104 1159h273v-156q0 -148 -66 -237t-188 -120l-2 -4q17 -68 17 -142q0 -152 -68.5 -270.5t-191.5 -184t-280 -65.5q-95 0 -179.5 24.5t-150 71t-113.5 110t-73 144t-25 170.5q0 113 39.5 209.5t110 165t171.5 107.5t220 39q146 0 263 -57t188 -160q23 17 35.5 47
t16 61.5t3.5 83.5v163zM598 265q92 0 154.5 66.5t62.5 168.5q0 104 -61.5 169.5t-155.5 65.5q-96 0 -157 -66t-61 -169q0 -101 62 -168t156 -67zM597 -155q85 0 142.5 -52.5t57.5 -134.5q0 -81 -57.5 -133.5t-142.5 -52.5t-142.5 52.5t-57.5 133.5q0 54 27 97t72.5 66.5
t100.5 23.5z" />
    <glyph glyph-name="uni1EE4" unicode="&#x1ee4;" horiz-adv-x="1426" 
d="M711 -20q-135 0 -245.5 41.5t-189.5 120t-122 197.5t-43 268v848h345v-826q0 -68 16.5 -127t47.5 -104t80 -71t111 -26q115 0 187.5 88t72.5 240v826h344v-848q0 -190 -69.5 -331t-206.5 -218.5t-328 -77.5zM710 -155q85 0 142.5 -52.5t57.5 -134.5q0 -81 -57.5 -133.5
t-142.5 -52.5t-142.5 52.5t-57.5 133.5q0 54 27 97t72.5 66.5t100.5 23.5z" />
    <glyph glyph-name="uni1EE5" unicode="&#x1ee5;" horiz-adv-x="1159" 
d="M739 1002h321v-1002h-321v113h-5q-110 -132 -283 -132q-361 0 -361 427v594h320v-515q0 -120 35.5 -170.5t117.5 -50.5q76 0 126 61.5t50 178.5v496zM589 -155q85 0 142.5 -52.5t57.5 -134.5q0 -81 -57.5 -133.5t-142.5 -52.5t-142.5 52.5t-57.5 133.5q0 41 15.5 76
t42.5 59t64 38t78 14z" />
    <glyph glyph-name="uni1EE6" unicode="&#x1ee6;" horiz-adv-x="1426" 
d="M631 1557q-36 36 -36 63q0 20 25.5 40.5t55.5 34.5t55.5 36t25.5 45q0 34 -54 34q-29 0 -65.5 -17.5t-62.5 -38.5l-94 92q42 40 109 68t141 28q105 0 162 -45.5t57 -120.5q0 -63 -49.5 -105.5t-138.5 -60.5l-12 -47zM711 -20q-135 0 -245.5 41.5t-189 120t-122 197.5
t-43.5 268v848h345v-826q0 -68 16.5 -127t47.5 -104t80 -71t111 -26q115 0 187.5 88t72.5 240v826h344v-848q0 -190 -69.5 -331t-206.5 -218.5t-328 -77.5z" />
    <glyph glyph-name="uni1EE7" unicode="&#x1ee7;" horiz-adv-x="1159" 
d="M571 1351q-29 0 -65.5 -17.5t-62.5 -38.5l-94 92q42 40 109 68t141 28q105 0 162 -45.5t57 -120.5q0 -63 -49.5 -105.5t-138.5 -60.5l-12 -47l-119 -6q-36 36 -36 63q0 20 25.5 40.5t55.5 34.5t55.5 36t25.5 45q0 34 -54 34zM739 1002h321v-1002h-321v113h-5
q-110 -132 -283 -132q-361 0 -361 427v594h320v-515q0 -120 35.5 -170.5t117.5 -50.5q76 0 126 61.5t50 178.5v496z" />
    <glyph glyph-name="uni1EE8" unicode="&#x1ee8;" horiz-adv-x="1688" 
d="M606 1905l-253 -308h-301l228 306zM1443 1587h273v-156q0 -189 -106 -282t-295 -91v-451q0 -190 -69.5 -331t-206.5 -218.5t-328 -77.5q-135 0 -245.5 41.5t-189.5 120t-122 197.5t-43 268v848h345v-826q0 -68 16.5 -127t47.5 -104t80 -71t111 -26q115 0 187.5 88
t72.5 240v826h344v-251q34 6 58 19.5t37.5 30.5t21 45.5t9.5 55.5t2 69v163z" />
    <glyph glyph-name="uni1EE9" unicode="&#x1ee9;" horiz-adv-x="1444" 
d="M978 1445l-253 -308h-301l228 306zM1166 1159h273v-156q0 -183 -100 -276t-279 -97v-630h-321v113h-5q-110 -132 -283 -132q-361 0 -361 427v594h320v-515q0 -120 35.5 -170.5t117.5 -50.5q76 0 126 61.5t50 178.5v496h321v-221q24 6 41.5 16t29 25.5t18.5 32t11 40.5
t5 46.5t1 54.5v163z" />
    <glyph glyph-name="uni1EEA" unicode="&#x1eea;" horiz-adv-x="1688" 
d="M150 1903l225 -306h-300l-253 308zM1443 1587h273v-156q0 -189 -106 -282t-295 -91v-451q0 -190 -69.5 -331t-206.5 -218.5t-328 -77.5q-135 0 -245.5 41.5t-189.5 120t-122 197.5t-43 268v848h345v-826q0 -68 16.5 -127t47.5 -104t80 -71t111 -26q115 0 187.5 88
t72.5 240v826h344v-251q34 6 58 19.5t37.5 30.5t21 45.5t9.5 55.5t2 69v163z" />
    <glyph glyph-name="uni1EEB" unicode="&#x1eeb;" horiz-adv-x="1444" 
d="M772 1138h-300l-253 308l328 -2zM1166 1159h273v-156q0 -183 -100 -276t-279 -97v-630h-321v113h-5q-110 -132 -283 -132q-361 0 -361 427v594h320v-515q0 -120 35.5 -170.5t117.5 -50.5q76 0 126 61.5t50 178.5v496h321v-221q24 6 41.5 16t29 25.5t18.5 32t11 40.5
t5 46.5t1 54.5v163z" />
    <glyph glyph-name="uni1EEC" unicode="&#x1eec;" horiz-adv-x="1688" 
d="M703 1810q-29 0 -65.5 -17.5t-62.5 -38.5l-94 92q27 25 64 46t86.5 35.5t99.5 14.5q105 0 162 -45.5t57 -120.5q0 -63 -49.5 -105.5t-138.5 -60.5l-12 -47l-119 -6q-36 36 -36 63q0 20 25.5 40.5t55.5 34.5t55.5 36t25.5 45q0 34 -54 34zM1443 1587h273v-156
q0 -189 -106 -282t-295 -91v-451q0 -190 -69.5 -331t-206.5 -218.5t-328 -77.5q-135 0 -245.5 41.5t-189.5 120t-122 197.5t-43 268v848h345v-826q0 -68 16.5 -127t47.5 -104t80 -71t111 -26q115 0 187.5 88t72.5 240v826h344v-251q34 6 58 19.5t37.5 30.5t21 45.5t9.5 55.5
t2 69v163z" />
    <glyph glyph-name="uni1EED" unicode="&#x1eed;" horiz-adv-x="1444" 
d="M571 1351q-29 0 -65.5 -17.5t-62.5 -38.5l-94 92q42 40 109 68t141 28q105 0 162 -45.5t57 -120.5q0 -63 -49.5 -105.5t-138.5 -60.5l-12 -47l-119 -6q-36 36 -36 63q0 20 25.5 40.5t55.5 34.5t55.5 36t25.5 45q0 34 -54 34zM1166 1159h273v-156q0 -183 -100 -276
t-279 -97v-630h-321v113h-5q-110 -132 -283 -132q-361 0 -361 427v594h320v-515q0 -120 35.5 -170.5t117.5 -50.5q76 0 126 61.5t50 178.5v496h321v-221q24 6 41.5 16t29 25.5t18.5 32t11 40.5t5 46.5t1 54.5v163z" />
    <glyph glyph-name="uni1EEE" unicode="&#x1eee;" horiz-adv-x="1688" 
d="M596 1675q-69 0 -111 -97l-187 80q35 116 102.5 186.5t160.5 70.5q32 0 58 -4t51.5 -15t34.5 -15.5t36 -19.5q16 -10 25.5 -15.5t23.5 -11.5t26.5 -9t26.5 -3q69 0 114 95l184 -61q-34 -125 -101 -201t-157 -76q-52 0 -93.5 15t-85.5 41q-19 11 -28 16t-24.5 11.5
t-28.5 9.5t-27 3zM1443 1587h273v-156q0 -189 -106 -282t-295 -91v-451q0 -190 -69.5 -331t-206.5 -218.5t-328 -77.5q-135 0 -245.5 41.5t-189.5 120t-122 197.5t-43 268v848h345v-826q0 -68 16.5 -127t47.5 -104t80 -71t111 -26q115 0 187.5 88t72.5 240v826h344v-251
q34 6 58 19.5t37.5 30.5t21 45.5t9.5 55.5t2 69v163z" />
    <glyph glyph-name="uni1EEF" unicode="&#x1eef;" horiz-adv-x="1444" 
d="M464 1216q-69 0 -111 -97l-187 80q35 116 102.5 186.5t160.5 70.5q41 0 79 -10t52.5 -17.5t48.5 -26.5q22 -13 34 -20t31 -13t37 -6q69 0 114 95l184 -61q-22 -81 -58 -142.5t-87.5 -98t-112.5 -36.5q-52 0 -93.5 15t-85.5 41q-25 14 -37.5 20.5t-32.5 13t-38 6.5z
M1166 1159h273v-156q0 -183 -100 -276t-279 -97v-630h-321v113h-5q-110 -132 -283 -132q-361 0 -361 427v594h320v-515q0 -120 35.5 -170.5t117.5 -50.5q76 0 126 61.5t50 178.5v496h321v-221q24 6 41.5 16t29 25.5t18.5 32t11 40.5t5 46.5t1 54.5v163z" />
    <glyph glyph-name="uni1EF0" unicode="&#x1ef0;" horiz-adv-x="1688" 
d="M1443 1587h273v-156q0 -189 -106 -282t-295 -91v-451q0 -190 -69.5 -331t-206.5 -218.5t-328 -77.5q-135 0 -245.5 41.5t-189.5 120t-122 197.5t-43 268v848h345v-826q0 -68 16.5 -127t47.5 -104t80 -71t111 -26q115 0 187.5 88t72.5 240v826h344v-251q34 6 58 19.5
t37.5 30.5t21 45.5t9.5 55.5t2 69v163zM710 -155q85 0 142.5 -52.5t57.5 -134.5q0 -81 -57.5 -133.5t-142.5 -52.5t-142.5 52.5t-57.5 133.5q0 54 27 97t72.5 66.5t100.5 23.5z" />
    <glyph glyph-name="uni1EF1" unicode="&#x1ef1;" horiz-adv-x="1444" 
d="M1166 1159h273v-156q0 -183 -100 -276t-279 -97v-630h-321v113h-5q-110 -132 -283 -132q-361 0 -361 427v594h320v-515q0 -120 35.5 -170.5t117.5 -50.5q76 0 126 61.5t50 178.5v496h321v-221q24 6 41.5 16t29 25.5t18.5 32t11 40.5t5 46.5t1 54.5v163zM589 -155
q85 0 142.5 -52.5t57.5 -134.5q0 -81 -57.5 -133.5t-142.5 -52.5t-142.5 52.5t-57.5 133.5q0 41 15.5 76t42.5 59t64 38t78 14z" />
    <glyph glyph-name="Ygrave" unicode="&#x1ef2;" horiz-adv-x="1292" 
d="M821 1597h-300l-253 308l328 -2zM900 1455h396l-478 -822v-633h-347v633l-475 822h392l255 -482h6z" />
    <glyph glyph-name="ygrave" unicode="&#x1ef3;" horiz-adv-x="1090" 
d="M732 1133h-300l-253 308l328 -2zM747 1002h328l-526 -1407h-317l173 473l-391 934h332l204 -543h5z" />
    <glyph glyph-name="uni1EF4" unicode="&#x1ef4;" horiz-adv-x="1292" 
d="M471 0v633l-475 822h392l255 -482h6l251 482h396l-478 -822v-633h-347zM642 -155q85 0 142.5 -52.5t57.5 -134.5q0 -81 -57.5 -133.5t-142.5 -52.5t-142.5 52.5t-57.5 133.5q0 82 57.5 134.5t142.5 52.5z" />
    <glyph glyph-name="uni1EF5" unicode="&#x1ef5;" horiz-adv-x="1090" 
d="M747 1002h328l-526 -1407h-317l173 473l-391 934h332l204 -543h5zM899 -155q85 0 142.5 -52.5t57.5 -134.5q0 -81 -57.5 -133.5t-142.5 -52.5t-142.5 52.5t-57.5 133.5q0 54 27 97t72.5 66.5t100.5 23.5z" />
    <glyph glyph-name="uni1EF6" unicode="&#x1ef6;" horiz-adv-x="1292" 
d="M638 1810q-29 0 -65.5 -17.5t-62.5 -38.5l-94 92q27 25 63.5 46t86.5 35.5t100 14.5q70 0 120 -21.5t74.5 -58.5t24.5 -86q0 -63 -49.5 -105.5t-138.5 -60.5l-12 -47l-119 -6q-36 36 -36 63q0 20 25.5 40.5t55.5 34.5t55.5 36t25.5 45q0 34 -54 34zM900 1455h396
l-478 -822v-633h-347v633l-475 822h392l255 -482h6z" />
    <glyph glyph-name="uni1EF7" unicode="&#x1ef7;" horiz-adv-x="1090" 
d="M538 1351q-29 0 -65.5 -17.5t-62.5 -38.5l-94 92q42 40 109 68t141 28q105 0 162 -45.5t57 -120.5q0 -63 -49.5 -105.5t-138.5 -60.5l-12 -47l-119 -6q-36 36 -36 63q0 20 25.5 40.5t55.5 34.5t55.5 36t25.5 45q0 34 -54 34zM747 1002h328l-526 -1407h-317l173 473
l-391 934h332l204 -543h5z" />
    <glyph glyph-name="uni1EF8" unicode="&#x1ef8;" horiz-adv-x="1292" 
d="M531 1675q-69 0 -111 -97l-187 80q35 116 102.5 186.5t160.5 70.5q41 0 79 -10t52.5 -17.5t48.5 -26.5q22 -13 34 -20t31 -13t37 -6q69 0 114 95l184 -61q-22 -81 -58 -142.5t-87.5 -98t-112.5 -36.5q-52 0 -93.5 15t-85.5 41q-25 14 -37.5 20.5t-32.5 13t-38 6.5z
M900 1455h396l-478 -822v-633h-347v633l-475 822h392l255 -482h6z" />
    <glyph glyph-name="uni1EF9" unicode="&#x1ef9;" horiz-adv-x="1090" 
d="M431 1216q-69 0 -111 -97l-187 80q13 44 31.5 82.5t43 71t53 55t63 35.5t72.5 13q41 0 79 -10t52.5 -17.5t48.5 -26.5q22 -13 34 -20t31 -13t37 -6q69 0 114 95l184 -61q-34 -125 -101 -201t-157 -76q-52 0 -93.5 15t-85.5 41q-25 14 -37.5 20.5t-32.5 13t-38 6.5z
M747 1002h328l-526 -1407h-317l173 473l-391 934h332l204 -543h5z" />
    <glyph glyph-name="uni2002" unicode="&#x2002;" horiz-adv-x="956" 
 />
    <glyph glyph-name="uni2003" unicode="&#x2003;" horiz-adv-x="1912" 
 />
    <glyph glyph-name="uni2009" unicode="&#x2009;" horiz-adv-x="30" 
 />
    <glyph glyph-name="endash" unicode="&#x2013;" horiz-adv-x="1108" 
d="M76 476v270h956v-270h-956z" />
    <glyph glyph-name="emdash" unicode="&#x2014;" horiz-adv-x="2064" 
d="M76 476v270h1912v-270h-1912z" />
    <glyph glyph-name="uni2015" unicode="&#x2015;" horiz-adv-x="2433" 
d="M89 476v270h2255v-270h-2255z" />
    <glyph glyph-name="quoteleft" unicode="&#x2018;" horiz-adv-x="475" 
d="M448 1453l-61 -554h-321l141 554h241z" />
    <glyph glyph-name="quoteright" unicode="&#x2019;" horiz-adv-x="475" 
d="M53 901l61 554h321l-141 -554h-241z" />
    <glyph glyph-name="quotesinglbase" unicode="&#x201a;" horiz-adv-x="498" 
d="M33 -274l61 553h321l-152 -553h-230z" />
    <glyph glyph-name="quotedblleft" unicode="&#x201c;" horiz-adv-x="907" 
d="M449 1454l-60 -554h-323l141 554h242zM880 1454l-61 -554h-321l141 554h241z" />
    <glyph glyph-name="quotedblright" unicode="&#x201d;" horiz-adv-x="907" 
d="M53 901l61 554h321l-141 -554h-241zM484 901l60 554h323l-141 -554h-242z" />
    <glyph glyph-name="quotedblbase" unicode="&#x201e;" horiz-adv-x="931" 
d="M33 -163l61 554h321l-141 -554h-241zM464 -163l60 554h323l-141 -554h-242z" />
    <glyph glyph-name="dagger" unicode="&#x2020;" horiz-adv-x="769" 
d="M386 444l-89 145l11 253l-2 218h-38l-188 -10v174l188 -10h36l-7 192h177l-10 -192h38l186 12v-176l-186 10h-40v-218l12 -253z" />
    <glyph glyph-name="daggerdbl" unicode="&#x2021;" horiz-adv-x="769" 
d="M297 107l9 189h-38l-188 -11v173l186 -9h41v90l-10 213l10 215v93h-39l-188 -9v171l186 -10h39l-11 194h177l-10 -194h38l189 11v-171l-190 8h-36v-93l9 -215l-12 -213l3 -90h37l189 10v-172l-189 9h-38l10 -189h-174z" />
    <glyph glyph-name="bullet" unicode="&#x2022;" horiz-adv-x="845" 
d="M422 392q-106 0 -181.5 74.5t-75.5 180.5q0 107 75.5 181.5t181.5 74.5q108 0 183 -74.5t75 -181.5q0 -106 -75 -180.5t-183 -74.5z" />
    <glyph glyph-name="ellipsis" unicode="&#x2026;" horiz-adv-x="2060" 
d="M330 -20q-79 0 -135 55t-56 133q0 76 56 131t135 55q77 0 133 -55t56 -131q0 -78 -55.5 -133t-133.5 -55zM1013 -20q-79 0 -135 55t-56 133q0 76 56 131t135 55q77 0 133 -55t56 -131q0 -78 -55.5 -133t-133.5 -55zM1697 -20q-79 0 -135 55t-56 133q0 76 56 131t135 55
q77 0 133 -55t56 -131q0 -78 -55.5 -133t-133.5 -55z" />
    <glyph glyph-name="perthousand" unicode="&#x2030;" horiz-adv-x="3004" 
d="M836 -55l-234 102l649 1442l233 -102zM474 652q-114 0 -208.5 51t-150.5 146t-56 215q0 113 51.5 206t147 148.5t216.5 55.5q115 0 209.5 -50.5t151 -145t56.5 -214.5q0 -113 -51.5 -206.5t-147.5 -149.5t-218 -56zM477 872q75 0 123 54.5t48 134.5q0 56 -23 100t-62 67
t-86 23q-75 0 -122.5 -54.5t-47.5 -135.5q0 -55 23 -98.5t61.5 -67t85.5 -23.5zM1607 -20q-114 0 -208.5 51t-150.5 146t-56 215q0 112 51 205t146.5 148.5t217.5 55.5q114 0 208.5 -50.5t151 -144.5t56.5 -214q0 -113 -51 -206.5t-147 -149.5t-218 -56zM2529 -20
q-85 0 -161 30t-132 83.5t-89 131t-33 167.5q0 112 51 205t147 148.5t217 55.5q114 0 209 -50.5t151.5 -144.5t56.5 -214q0 -113 -51.5 -206.5t-147.5 -149.5t-218 -56zM1609 200q75 0 123 55t48 135q0 82 -49.5 134.5t-121.5 52.5q-75 0 -123 -54t-48 -133q0 -56 23 -99.5
t62 -67t86 -23.5zM2531 200q50 0 89.5 25.5t60.5 69t21 95.5q0 83 -49 135t-122 52q-75 0 -122.5 -54t-47.5 -133q0 -84 49 -137t121 -53z" />
    <glyph glyph-name="guilsinglleft" unicode="&#x2039;" horiz-adv-x="615" 
d="M624 94h-303l-234 412l238 420h301l-241 -420z" />
    <glyph glyph-name="guilsinglright" unicode="&#x203a;" horiz-adv-x="612" 
d="M19 94l239 412l-241 420h301l238 -420l-234 -412h-303z" />
    <glyph glyph-name="uni203D" unicode="&#x203d;" horiz-adv-x="947" 
d="M441 1528q72 0 137 -15t122.5 -47t99.5 -78t66 -112t24 -146q0 -42 -6.5 -80t-20.5 -70.5t-29.5 -60t-37.5 -54.5t-41.5 -47.5t-45.5 -44.5q-13 -12 -45.5 -41t-45.5 -42t-33 -35t-28.5 -40.5t-10.5 -37.5l-8 -80h-262l-55 595h280l2 -150h4q66 80 66 149q0 66 -38 101.5
t-114 35.5q-127 0 -189 -75l-225 186q71 86 187.5 137.5t246.5 51.5zM400 354q77 0 133 -55t56 -131q0 -78 -55.5 -133t-133.5 -55q-79 0 -135 55t-56 133q0 76 56 131t135 55z" />
    <glyph glyph-name="uni2042" unicode="&#x2042;" horiz-adv-x="1675" 
d="M736 775l9 194l-161 -103l-96 162l170 85l-170 90l96 163l161 -105l-9 194h186l-10 -194l163 102l95 -160l-172 -88l171 -87l-94 -164l-159 105l6 -194h-186zM303 88l9 194l-161 -103l-96 162l170 85l-170 90l96 163l161 -105l-9 194h186l-10 -194l163 102l95 -160
l-172 -88l171 -87l-94 -164l-159 105l6 -194h-186zM1185 88l9 194l-161 -103l-96 162l170 85l-170 90l96 163l161 -105l-9 194h186l-10 -194l163 102l95 -160l-172 -88l171 -87l-94 -164l-159 105l6 -194h-186z" />
    <glyph glyph-name="fraction" unicode="&#x2044;" horiz-adv-x="482" 
d="M65 -55l-234 102l648 1442l234 -102z" />
    <glyph glyph-name="uni2051" unicode="&#x2051;" horiz-adv-x="793" 
d="M303 775l9 194l-161 -103l-96 162l170 85l-170 90l96 163l161 -105l-9 194h186l-10 -194l163 102l95 -160l-172 -88l171 -87l-94 -164l-159 105l6 -194h-186zM303 25l9 194l-161 -103l-96 162l170 85l-170 90l96 163l161 -105l-9 194h186l-10 -194l163 102l95 -160
l-172 -88l171 -87l-94 -164l-159 105l6 -194h-186z" />
    <glyph glyph-name="uni2070" unicode="&#x2070;" horiz-adv-x="820" 
d="M409 870q-175 0 -274 121.5t-99 321.5q0 106 28 190t77.5 138.5t118 83.5t149.5 29q176 0 275.5 -121t99.5 -320q0 -107 -28 -191.5t-78 -139t-118.5 -83.5t-150.5 -29zM410 1095q59 0 93.5 55t34.5 162q0 103 -33.5 160.5t-94.5 57.5q-39 0 -67.5 -23t-45 -73
t-16.5 -122q0 -103 34 -160t95 -57z" />
    <glyph glyph-name="uni2074" unicode="&#x2074;" horiz-adv-x="697" 
d="M328 893v123h-322v144l375 576h189v-514h107v-206h-107v-123h-242zM233 1206h116v189z" />
    <glyph glyph-name="uni2075" unicode="&#x2075;" horiz-adv-x="673" 
d="M384 1440q107 0 182.5 -76t75.5 -190q0 -87 -42 -155.5t-115 -105.5t-164 -37q-196 0 -317 124l179 148q48 -53 113 -53q40 0 69 22.5t29 60.5q0 24 -8 41t-21.5 26.5t-29.5 14t-34 4.5q-56 0 -100 -48l-129 52l29 467h492v-218h-291l-7 -91q51 14 89 14z" />
    <glyph glyph-name="uni2076" unicode="&#x2076;" horiz-adv-x="706" 
d="M416 1436q48 0 93 -17.5t81.5 -50t58.5 -84.5t22 -114q0 -86 -44 -154t-117 -103.5t-159 -35.5q-52 0 -101 16.5t-89.5 48t-70.5 74.5t-47 99.5t-17 119.5q0 88 30.5 172.5t88.5 157t151.5 126.5t211.5 77l67 -193q-108 -30 -173 -67t-98 -86l6 -6q54 20 106 20z
M353 1087q39 0 65.5 24t26.5 64q0 35 -25 58t-67 23q-56 0 -97 -41v-3q0 -41 13.5 -70t35 -42t48.5 -13z" />
    <glyph glyph-name="uni2077" unicode="&#x2077;" horiz-adv-x="598" 
d="M29 1736h546v-159l-254 -709l-244 45l229 601h-277v222z" />
    <glyph glyph-name="uni2078" unicode="&#x2078;" horiz-adv-x="719" 
d="M543 1349q62 -28 103.5 -85t41.5 -136q0 -77 -45 -134.5t-119 -87t-165 -29.5q-92 0 -165.5 29t-118 86.5t-44.5 135.5q0 79 41.5 136.5t102.5 85.5v2q-39 21 -66.5 68t-27.5 102q0 75 38.5 127.5t100 77t139.5 24.5t139 -24t99 -77t38 -128q0 -37 -13 -71.5t-34 -59.5
t-45 -38v-4zM359 1564q-28 1 -47.5 -18t-19.5 -47q0 -27 19 -45t48 -18q30 0 48.5 18t18.5 45q0 28 -18.5 46.5t-48.5 18.5zM359 1077q38 0 62.5 23t24.5 59q0 34 -24.5 59t-62.5 24q-36 -1 -60 -25.5t-24 -57.5q0 -24 10.5 -42.5t30 -29t43.5 -10.5z" />
    <glyph glyph-name="uni2079" unicode="&#x2079;" horiz-adv-x="702" 
d="M350 1750q52 0 101 -16.5t89.5 -48t70.5 -74.5t47 -99.5t17 -119.5q0 -70 -18 -138.5t-56 -133t-92.5 -117t-133.5 -90.5t-173 -53l-66 191q77 19 132 44.5t89 55.5t54 68q-64 -28 -126 -28q-38 0 -75 11t-69.5 33t-57 53.5t-39 75t-14.5 93.5q0 86 44 154t117 103.5
t159 35.5zM255 1452q0 -35 25.5 -58t67.5 -23q56 0 97 41v4q0 41 -13.5 69.5t-35 41.5t-48.5 13q-39 0 -66 -24t-27 -64z" />
    <glyph glyph-name="uni207A" unicode="&#x207a;" horiz-adv-x="694" 
d="M629 1399v-198h-179v-185h-209v185h-180v198h180v185h209v-185h179z" />
    <glyph glyph-name="uni207B" unicode="&#x207b;" horiz-adv-x="710" 
d="M71 1193v214h568v-214h-568z" />
    <glyph glyph-name="uni207C" unicode="&#x207c;" horiz-adv-x="744" 
d="M88 1345v190h568v-190h-568zM88 1015v190h568v-190h-568z" />
    <glyph glyph-name="uni207D" unicode="&#x207d;" horiz-adv-x="475" 
d="M251 750q-153 269 -153 559q0 156 44 303.5t120 257.5l181 -75q-44 -62 -83.5 -204.5t-39.5 -281.5q0 -146 37 -277.5t85 -213.5z" />
    <glyph glyph-name="uni207E" unicode="&#x207e;" horiz-adv-x="475" 
d="M250 750l-191 68q48 82 85 213.5t37 277.5q0 139 -39.5 281t-83.5 205l181 75q37 -54 67.5 -118.5t52 -136t33 -150t11.5 -156.5q0 -290 -153 -559z" />
    <glyph glyph-name="uni207F" unicode="&#x207f;" horiz-adv-x="706" 
d="M443 481q227 0 227 -266v-350h-228v293q0 42 -9.5 68t-28.5 37t-50 11q-45 0 -68 -25.5t-23 -81.5v-302h-230v604h230v-62h2q72 74 178 74z" />
    <glyph glyph-name="uni2080" unicode="&#x2080;" horiz-adv-x="820" 
d="M409 -158q-175 0 -274 121.5t-99 321.5q0 106 28 190t77.5 138.5t118 83.5t149.5 29q176 0 275.5 -121t99.5 -320q0 -107 -28 -191.5t-78 -139t-118.5 -83.5t-150.5 -29zM410 67q59 0 93.5 55t34.5 162q0 68 -15 117t-44 75t-69 26q-59 0 -94 -55t-35 -163
q0 -103 34 -160t95 -57z" />
    <glyph glyph-name="uni2081" unicode="&#x2081;" horiz-adv-x="573" 
d="M240 -136v544l-112 -80l-120 186l288 194h187v-844h-243z" />
    <glyph glyph-name="uni2082" unicode="&#x2082;" horiz-adv-x="669" 
d="M377 84h258v-220h-603l-4 161l249 254q57 59 79.5 92.5t22.5 65.5q0 19 -8.5 32.5t-23.5 20t-35 6.5q-27 0 -57.5 -14.5t-55.5 -47.5l-180 129q45 70 125.5 115t187.5 45q79 0 146 -30t108.5 -89.5t41.5 -137.5q0 -54 -9.5 -91.5t-42 -86t-94.5 -105.5l-105 -96v-3z" />
    <glyph glyph-name="uni2083" unicode="&#x2083;" horiz-adv-x="685" 
d="M528 297q126 -61 126 -199q0 -115 -86.5 -182.5t-226.5 -67.5q-121 0 -211 59t-123 151l219 86q11 -45 34 -65t63 -20q35 0 56.5 20.5t21.5 51.5q0 34 -25.5 53t-71.5 19h-52v177h67q22 0 39.5 7.5t27 22t9.5 32.5q0 29 -19 48.5t-51 19.5q-59 0 -81 -67l-201 107
q27 75 106 124t178 49q84 0 151 -26.5t107 -80.5t40 -128q0 -118 -97 -186v-5z" />
    <glyph glyph-name="uni2084" unicode="&#x2084;" horiz-adv-x="697" 
d="M328 -135v123h-322v144l375 576h189v-514h107v-206h-107v-123h-242zM233 178h116v189z" />
    <glyph glyph-name="uni2085" unicode="&#x2085;" horiz-adv-x="673" 
d="M384 413q107 0 182.5 -76t75.5 -190q0 -132 -91 -215t-230 -83q-196 0 -317 124l179 148q48 -53 113 -53q40 0 69 22.5t29 60.5q0 24 -8 41t-21.5 26.5t-29.5 14t-34 4.5q-56 0 -100 -48l-129 52l29 467h492v-218h-291l-7 -91q51 14 89 14z" />
    <glyph glyph-name="uni2086" unicode="&#x2086;" horiz-adv-x="706" 
d="M416 408q48 0 93 -17.5t81.5 -50t58.5 -84t22 -114.5q0 -86 -44 -154t-117 -103.5t-159 -35.5q-65 0 -124.5 26t-104 72.5t-70.5 114t-26 145.5q0 88 30.5 172.5t88.5 157t151.5 126.5t211.5 77l67 -193q-108 -30 -173 -67t-98 -86l6 -6q54 20 106 20zM353 59
q39 0 65.5 24t26.5 64q0 35 -25 58t-67 23q-56 0 -97 -41v-3q0 -41 13.5 -70t35 -42t48.5 -13z" />
    <glyph glyph-name="uni2087" unicode="&#x2087;" horiz-adv-x="598" 
d="M29 708h546v-159l-254 -709l-244 45l229 601h-277v222z" />
    </font>
</defs>
</svg>
