<?xml version="1.0" standalone="no"?>
<!DOCTYPE svg PUBLIC "-//W3C//DTD SVG 1.1//EN" "http://www.w3.org/Graphics/SVG/1.1/DTD/svg11.dtd" >
<svg xmlns="http://www.w3.org/2000/svg" xmlns:xlink="http://www.w3.org/1999/xlink" version="1.1">
<metadata>
Created by FontForge 20170731 at Tue Jul 21 14:40:40 2015
 By Aleksey,,,
Copyright (c) 2015 by Kostas Bartsokas. All rights reserved.
</metadata>
<defs>
<font id="Averta-Regular" horiz-adv-x="1200" >
  <font-face 
    font-family="Averta-Regular"
    font-weight="400"
    font-stretch="normal"
    units-per-em="2048"
    panose-1="0 0 5 0 0 0 0 0 0 0"
    ascent="1607"
    descent="-441"
    x-height="997"
    cap-height="1455"
    bbox="-395 -527 2865 2002"
    underline-thickness="78"
    underline-position="-247"
    unicode-range="U+0020-2E18"
  />
<missing-glyph horiz-adv-x="920" 
 />
    <glyph glyph-name=".notdef" horiz-adv-x="920" 
 />
    <glyph glyph-name=".null" horiz-adv-x="0" 
 />
    <glyph glyph-name="nonmarkingreturn" horiz-adv-x="682" 
 />
    <glyph glyph-name="space" unicode=" " horiz-adv-x="564" 
 />
    <glyph glyph-name="exclam" unicode="!" horiz-adv-x="503" 
d="M190 428l-30 1080h190l-31 -1080h-129zM252 -13q-50 0 -84.5 34t-34.5 82q0 49 34.5 83t84.5 34q49 0 83.5 -34t34.5 -83q0 -31 -16 -58t-43 -42.5t-59 -15.5z" />
    <glyph glyph-name="quotedbl" unicode="&#x22;" horiz-adv-x="699" 
d="M80 961l67 494h181l-111 -494h-137zM371 961l66 494h182l-110 -494h-138z" />
    <glyph glyph-name="numbersign" unicode="#" horiz-adv-x="1297" 
d="M262 -72l66 418h-243v129h262l50 329h-267v128h287l63 411h127l-63 -411h319l63 411h126l-63 -411h251v-128h-271l-50 -329h275l-1 -129h-294l-63 -418h-126l64 418h-319l-65 -418h-128zM473 475h320l50 329h-319z" />
    <glyph glyph-name="dollar" unicode="$" horiz-adv-x="1160" 
d="M1066 371q0 -104 -46.5 -185.5t-136.5 -131t-213 -59.5v-248h-137v250q-239 27 -419 201l107 128q84 -82 188.5 -126t206.5 -44q116 0 189.5 54.5t73.5 149.5q0 31 -7.5 57.5t-20 47t-34.5 39t-44.5 32.5t-57.5 28.5t-66 25.5t-77 25q-186 60 -263 106q-149 88 -163 243
q-2 18 -2 37q0 153 103 253t286 109v259h137v-268q94 -17 187.5 -56.5t161.5 -92.5l-103 -127q-79 57 -173 89t-172 32q-110 0 -176.5 -49.5t-66.5 -137.5q0 -27 8 -50.5t20 -41.5t34.5 -35t44 -29.5t56 -26.5t62 -24t70.5 -24q193 -61 271 -107q135 -78 163 -214
q9 -41 9 -89z" />
    <glyph glyph-name="percent" unicode="%" horiz-adv-x="2046" 
d="M775 -35l-137 58l637 1456l136 -59zM500 662q-112 0 -205 50t-148 143t-55 211q0 110 50 201.5t144 145.5t214 54q113 0 205.5 -49t148 -141.5t55.5 -210.5q0 -83 -30 -157t-82.5 -128.5t-129.5 -86.5t-167 -32zM501 793q118 0 191.5 78.5t73.5 193.5q0 119 -76 194
t-189 75q-117 0 -190 -77t-73 -192q0 -120 75.5 -196t187.5 -76zM1538 -13q-111 0 -203.5 50t-148 143t-55.5 211q0 110 50 201t144 145.5t213 54.5q113 0 206 -49.5t148.5 -142t55.5 -209.5q0 -111 -50.5 -203t-145 -146.5t-214.5 -54.5zM1539 119q118 0 191.5 78t73.5 193
q0 79 -35.5 141t-96 95t-133.5 33q-117 0 -190.5 -77.5t-73.5 -191.5q0 -60 21 -111t56.5 -86t84 -54.5t102.5 -19.5z" />
    <glyph glyph-name="ampersand" unicode="&#x26;" horiz-adv-x="1345" 
d="M1088 0l-116 139h-1q-154 -152 -403 -152q-129 0 -234.5 52.5t-167 151t-61.5 224.5q0 135 75.5 249t200.5 182l-176 210q10 119 67 212.5t152 146.5t212 53q84 0 156 -24t123.5 -64.5t87 -86.5t58.5 -99l-144 -55q-79 176 -268 177q-120 1 -188.5 -64t-79.5 -168
l591 -706h1q77 135 77 296l163 3q0 -112 -31.5 -225.5t-96.5 -206.5v-2l203 -243h-200zM278 424q0 -121 85 -199t221 -78q171 0 290 106v3l-392 468q-95 -46 -149.5 -127.5t-54.5 -172.5z" />
    <glyph glyph-name="quotesingle" unicode="'" horiz-adv-x="408" 
d="M80 961l67 494h181l-111 -494h-137z" />
    <glyph glyph-name="parenleft" unicode="(" horiz-adv-x="581" 
d="M354 -303q-229 409 -229 910q0 129 16.5 255.5t47 241.5t74.5 220t100 194l126 -61q-99 -179 -153.5 -398t-54.5 -452q0 -444 203 -852z" />
    <glyph glyph-name="parenright" unicode=")" horiz-adv-x="581" 
d="M227 -303l-130 58q203 408 203 852q0 233 -54.5 452t-153.5 398l126 61q113 -181 175.5 -417.5t62.5 -493.5q0 -501 -229 -910z" />
    <glyph glyph-name="asterisk" unicode="*" horiz-adv-x="838" 
d="M364 805l7 242l-204 -128l-57 98l214 111l-215 115l58 97l204 -128l-7 243h111l-9 -243l206 128l56 -97l-215 -114l215 -112l-56 -97l-204 127l7 -242h-111z" />
    <glyph glyph-name="plus" unicode="+" horiz-adv-x="1192" 
d="M518 88v401h-402v155h402v403h155v-403h402v-155h-402v-401h-155z" />
    <glyph glyph-name="comma" unicode="," horiz-adv-x="440" 
d="M65 -267l67 493h181l-124 -493h-124z" />
    <glyph glyph-name="hyphen" unicode="-" horiz-adv-x="839" 
d="M116 550v163h607v-163h-607z" />
    <glyph glyph-name="period" unicode="." horiz-adv-x="493" 
d="M247 -13q-50 0 -84.5 34t-34.5 82q0 49 34.5 83t84.5 34q49 0 83.5 -34t34.5 -83q0 -31 -16 -58t-43 -42.5t-59 -15.5z" />
    <glyph glyph-name="slash" unicode="/" horiz-adv-x="848" 
d="M77 -231l-134 62l788 1746l133 -63z" />
    <glyph glyph-name="zero" unicode="0" horiz-adv-x="1286" 
d="M643 -13q-115 0 -211.5 47.5t-167 137t-110 225.5t-39.5 305q0 156 36 288t102 227t166.5 148.5t223.5 53.5q115 0 211.5 -47.5t167 -137t110 -226t39.5 -306.5q0 -156 -35.5 -287t-102 -226t-166.5 -148.5t-224 -53.5zM644 147q111 0 191 69t121 193.5t41 292.5
q0 264 -97 410.5t-256 146.5q-167 0 -261 -150t-94 -407q0 -261 97.5 -408t257.5 -147z" />
    <glyph glyph-name="one" unicode="1" horiz-adv-x="769" 
d="M409 0v1199l-281 -211l-84 128l395 290h142v-1406h-172z" />
    <glyph glyph-name="two" unicode="2" horiz-adv-x="1066" 
d="M343 158h624v-158h-885l-2 119l481 491q51 53 85 93t66 88.5t48 97t16 99.5q0 117 -74.5 193.5t-190.5 76.5q-202 0 -302 -193l-127 87q41 80 99.5 138.5t146 93.5t194.5 35q84 0 161 -28.5t136 -80.5t94.5 -131t35.5 -174q0 -121 -55.5 -231.5t-184.5 -241.5l-366 -371
v-3z" />
    <glyph glyph-name="three" unicode="3" horiz-adv-x="1101" 
d="M754 730q112 -45 176 -137t64 -216q0 -114 -59.5 -203.5t-163 -138t-232.5 -48.5q-174 0 -300.5 77t-180.5 203l149 68q26 -58 69 -99t107.5 -64t145.5 -23q80 0 146 31t105 89.5t39 133.5q0 51 -19.5 96t-56.5 80t-97 55t-136 20h-117v150h137q65 0 115 18t79.5 49.5
t44.5 71t15 85.5q0 102 -75.5 166t-187.5 64q-181 0 -276 -138l-139 76q56 102 164 162.5t254 60.5q121 0 218.5 -42.5t156 -127t58.5 -198.5q0 -105 -53.5 -189t-149.5 -130v-2z" />
    <glyph glyph-name="four" unicode="4" horiz-adv-x="1163" 
d="M717 0v248h-654v123l680 1035h146v-1002h205v-156h-205v-248h-172zM271 400h449v693z" />
    <glyph glyph-name="five" unicode="5" horiz-adv-x="1140" 
d="M584 893q62 0 120 -13.5t108.5 -39.5t92 -65.5t71 -88.5t46 -111t16.5 -131q0 -133 -65 -238t-176.5 -162.5t-247.5 -57.5q-146 0 -270 62.5t-197 172.5l128 98q49 -79 134.5 -125.5t191.5 -46.5q90 0 165 38.5t119 107.5t44 153q0 69 -27 126t-72 93.5t-103.5 56
t-123.5 19.5q-157 0 -248 -77l-100 31l41 711h743v-158h-581l-22 -395q117 40 213 40z" />
    <glyph glyph-name="six" unicode="6" horiz-adv-x="1196" 
d="M655 887q127 0 226 -52.5t156 -154.5t57 -239q0 -128 -63 -232t-174.5 -163t-248.5 -59q-104 0 -195.5 39.5t-158 110t-104.5 172.5t-38 222q0 148 38.5 283.5t106.5 241.5t158.5 189.5t195 136t216.5 72.5l52 -147q-79 -20 -150.5 -51.5t-138 -79t-120.5 -107.5
t-96 -138t-65 -168l2 -1q44 39 98.5 67t117 43t128.5 15zM606 149q138 0 227 85.5t89 207.5q0 129 -83 207.5t-222 78.5q-110 0 -197.5 -55.5t-139.5 -138.5v-14q0 -166 91.5 -268.5t234.5 -102.5z" />
    <glyph glyph-name="seven" unicode="7" horiz-adv-x="1011" 
d="M56 1406h870v-119l-557 -1311l-172 34l538 1238h-679v158z" />
    <glyph glyph-name="eight" unicode="8" horiz-adv-x="1177" 
d="M816 760q120 -37 194 -135.5t74 -237.5q0 -119 -66.5 -210.5t-179 -140t-251.5 -48.5q-142 0 -255 52t-175.5 143t-62.5 204q0 138 74 237t192 136v3q-78 27 -137.5 109t-59.5 189q0 83 32.5 151t89.5 113t134.5 69.5t167.5 24.5q191 0 309 -99t118 -259
q0 -44 -11.5 -85.5t-30.5 -75t-44.5 -61.5t-54 -47t-57.5 -29v-3zM588 1265q-114 0 -186.5 -63t-72.5 -154q0 -96 72 -154t187 -58q116 0 188.5 58t72.5 154q0 95 -74 156t-187 61zM587 144q141 0 230 77t89 185q0 120 -87.5 195t-231.5 75q-143 0 -230.5 -75t-87.5 -195
q0 -113 91.5 -187.5t226.5 -74.5z" />
    <glyph glyph-name="nine" unicode="9" horiz-adv-x="1186" 
d="M583 1419q104 0 194.5 -39.5t157 -110.5t104.5 -175t38 -227q0 -149 -41.5 -285t-112 -240.5t-164.5 -186.5t-199.5 -133t-216.5 -71l-51 147q99 25 187.5 69t168.5 109t140 158t91 206l-3 2q-45 -39 -100 -67t-119.5 -43t-132.5 -15q-121 0 -217.5 52.5t-153 154
t-56.5 235.5q0 129 63.5 234.5t174.5 165.5t248 60zM562 675q105 0 198.5 53.5t148.5 141.5v11q0 112 -42 198.5t-115 133t-166 46.5q-70 0 -129.5 -24t-100 -65t-63.5 -96t-23 -116q0 -126 80.5 -204.5t211.5 -78.5z" />
    <glyph glyph-name="colon" unicode=":" horiz-adv-x="487" 
d="M238 775q-33 0 -60.5 15.5t-43 42t-15.5 58.5q0 49 34.5 83t84.5 34q49 0 83.5 -34t34.5 -83q0 -48 -34.5 -82t-83.5 -34zM238 -13q-50 0 -84.5 34t-34.5 82q0 49 34.5 83t84.5 34q49 0 83.5 -34t34.5 -83q0 -48 -34.5 -82t-83.5 -34z" />
    <glyph glyph-name="semicolon" unicode=";" horiz-adv-x="464" 
d="M227 774q-50 0 -84.5 34t-34.5 82q0 49 34.5 83t84.5 34q49 0 83.5 -34t34.5 -83q0 -31 -16 -58t-43 -42.5t-59 -15.5zM68 -267l67 493h181l-124 -493h-124z" />
    <glyph glyph-name="less" unicode="&#x3c;" horiz-adv-x="1176" 
d="M1036 87l-921 419v123l921 424v-170l-692 -314l692 -315v-167z" />
    <glyph glyph-name="equal" unicode="=" horiz-adv-x="1194" 
d="M131 721v155h959v-155h-959zM131 257v155h959v-155h-959z" />
    <glyph glyph-name="greater" unicode="&#x3e;" horiz-adv-x="1175" 
d="M140 87v167l692 315l-692 314v170l921 -424v-123z" />
    <glyph glyph-name="question" unicode="?" horiz-adv-x="923" 
d="M324 425v110q0 34 10 67.5t22.5 58.5t38.5 58t43 51.5t51 53.5q13 13 19 20q71 74 109.5 139.5t38.5 146.5q0 105 -66 164.5t-166 59.5q-73 0 -141.5 -36.5t-112.5 -103.5l-124 117q67 91 169 140.5t222 49.5q82 0 155 -26.5t128.5 -74.5t87.5 -121t32 -161
q0 -47 -10.5 -92t-26.5 -80.5t-41.5 -72t-49 -63.5t-55.5 -59q-14 -14 -37 -36.5t-37 -36.5t-32.5 -33.5t-30 -35t-22.5 -33t-16.5 -35t-6.5 -35.5l-3 -101h-148zM403 -13q-33 0 -60.5 15.5t-43 42t-15.5 58.5q0 49 34.5 83t84.5 34q49 0 83.5 -34t34.5 -83q0 -32 -16 -58.5
t-43 -42t-59 -15.5z" />
    <glyph glyph-name="at" unicode="@" horiz-adv-x="1848" 
d="M1328 87q-93 0 -147 53t-53 143h-3q-45 -85 -124 -130t-181 -45q-153 0 -252.5 108t-99.5 283q0 59 14.5 121.5t47.5 124.5t79.5 110.5t116.5 78.5t153 30q194 0 276 -175h4l16 163h169l-54 -553q-3 -33 -3 -58q0 -71 21.5 -95t66.5 -24q47 0 87 26.5t67 68t46.5 93
t28.5 101t9 93.5q0 131 -45.5 245t-126 196t-196.5 128.5t-253 46.5q-100 0 -189.5 -18.5t-160 -52.5t-131 -79t-104.5 -100.5t-78 -115.5t-54.5 -124t-31 -126.5t-10.5 -123.5q0 -133 49 -252.5t131.5 -204.5t196 -134.5t237.5 -49.5q232 0 434 107l60 -96
q-217 -137 -494 -137q-157 0 -295.5 57.5t-237.5 158.5t-156.5 244.5t-57.5 307.5q0 76 14.5 155.5t47 165t81 163t121.5 147.5t162 121t209 81t257 30q167 0 308.5 -55t239.5 -152t152.5 -234t54.5 -298q0 -37 -5 -76.5t-15 -84t-27 -86.5t-40.5 -82.5t-56.5 -74.5
t-72.5 -59.5t-91.5 -40t-111 -14.5zM868 260q66 0 121 28t88.5 73t52 98t18.5 106q0 107 -62.5 176.5t-160.5 69.5q-53 0 -99.5 -16.5t-80 -44.5t-57.5 -66t-36 -81t-12 -88q0 -112 64.5 -183.5t163.5 -71.5z" />
    <glyph glyph-name="A" unicode="A" horiz-adv-x="1396" 
d="M1153 0l-130 354h-649l-129 -354h-187l550 1455h179l554 -1455h-188zM431 510h535l-266 727h-4z" />
    <glyph glyph-name="B" unicode="B" horiz-adv-x="1309" 
d="M897 765q64 -13 118 -43t96 -75.5t66 -110t24 -142.5q0 -88 -30 -159.5t-89 -124t-152.5 -81.5t-214.5 -29h-530v1455h475q108 0 193.5 -21t147.5 -63.5t95 -111t33 -159.5q0 -113 -59 -203t-173 -129v-3zM363 1291v-461h295q43 0 83.5 7.5t78 25.5t65.5 44t44.5 67
t16.5 91q0 53 -18.5 93.5t-56.5 70.5t-100.5 46t-147.5 16h-260zM665 164q161 0 255 62.5t94 183.5q0 81 -38.5 139t-115.5 89.5t-187 31.5h-310v-506h302z" />
    <glyph glyph-name="C" unicode="C" horiz-adv-x="1491" 
d="M846 -11q-118 0 -226 30t-199 91t-158 147.5t-104.5 205.5t-37.5 258q0 124 30 236.5t91 205.5t147 161t203 106t254 38q103 0 200.5 -28t193.5 -91.5t173 -158.5l-133 -111q-84 105 -196.5 162t-237.5 57q-163 0 -286 -74t-188 -204.5t-65 -298.5q0 -102 26.5 -191
t75 -156.5t115 -116t148.5 -73.5t174 -25q258 0 434 217l133 -112q-102 -127 -243.5 -201t-323.5 -74z" />
    <glyph glyph-name="D" unicode="D" horiz-adv-x="1496" 
d="M185 0v1455h435q170 0 312 -54t239 -150t150.5 -231t53.5 -295q0 -325 -202.5 -525t-546.5 -200h-441zM363 162h252q86 0 163.5 19t141 54t114.5 86t85.5 113t53 136t18.5 155q0 165 -71 294t-200.5 201.5t-296.5 72.5h-260v-1131z" />
    <glyph glyph-name="E" unicode="E" horiz-adv-x="1224" 
d="M185 0v1455h890v-164h-711v-487h584v-164h-584v-476h754v-164h-933z" />
    <glyph glyph-name="F" unicode="F" horiz-adv-x="1195" 
d="M185 0v1455h928v-164h-750v-511h637v-164h-637v-616h-178z" />
    <glyph glyph-name="G" unicode="G" horiz-adv-x="1563" 
d="M813 750h600v-575q-103 -88 -251 -137t-315 -49q-156 0 -289.5 52t-230 146.5t-151.5 233t-55 304.5q0 160 51.5 297.5t144 236t228 154t296.5 55.5q156 0 300 -56t255 -172l-127 -110q-173 168 -429 168q-114 0 -212.5 -41t-169 -114.5t-111 -181.5t-40.5 -236
q0 -163 66.5 -292.5t190 -203t283.5 -73.5q237 0 388 111v319h-422v164z" />
    <glyph glyph-name="H" unicode="H" horiz-adv-x="1487" 
d="M185 0v1455h178v-682h761v682h178v-1455h-178v609h-761v-609h-178z" />
    <glyph glyph-name="I" unicode="I" horiz-adv-x="569" 
d="M195 0v1455h179v-1455h-179z" />
    <glyph glyph-name="J" unicode="J" horiz-adv-x="1018" 
d="M447 -11q-102 0 -206 48t-176 138l100 131q57 -65 130 -105.5t146 -40.5q238 0 238 318v977h178v-982q0 -239 -99 -361.5t-311 -122.5z" />
    <glyph glyph-name="K" unicode="K" horiz-adv-x="1332" 
d="M575 649h-3l-209 -246v-403h-178v1455h178v-799h4l661 799h228l-563 -663l578 -792h-223z" />
    <glyph glyph-name="L" unicode="L" horiz-adv-x="1151" 
d="M185 0v1455h178v-1291h720v-164h-898z" />
    <glyph glyph-name="M" unicode="M" horiz-adv-x="1800" 
d="M1437 1455h179v-1455h-178v1115h-3l-474 -822h-121l-474 822h-3v-1115h-178v1455h179l534 -941h6z" />
    <glyph glyph-name="N" unicode="N" horiz-adv-x="1548" 
d="M1185 1455h178v-1455h-181l-815 1147h-4v-1147h-178v1455h176l820 -1159h4v1159z" />
    <glyph glyph-name="O" unicode="O" horiz-adv-x="1697" 
d="M851 -13q-160 0 -297 57t-231.5 156t-148 235.5t-53.5 292.5t53.5 292.5t148 235t231.5 155.5t297 57q152 0 286 -54t230.5 -149.5t152.5 -234.5t56 -302t-56 -302t-152.5 -235t-230.5 -150t-286 -54zM851 157q112 0 211.5 42.5t172 117t114.5 181.5t42 230t-42 230
t-114.5 181.5t-172 116.5t-211.5 42q-95 0 -180.5 -29t-151.5 -81.5t-114 -123t-73.5 -156.5t-25.5 -180q0 -118 40 -222.5t110.5 -181.5t173 -122t221.5 -45z" />
    <glyph glyph-name="P" unicode="P" horiz-adv-x="1265" 
d="M185 0v1455h509q124 0 218 -34t150.5 -95.5t84.5 -142t28 -179.5q0 -113 -37 -199.5t-105.5 -141t-161 -81.5t-208.5 -27h-300v-555h-178zM363 719h284q89 0 156 21.5t107 61t60 91t20 115.5q0 136 -83.5 209.5t-231.5 73.5h-312v-572z" />
    <glyph glyph-name="Q" unicode="Q" horiz-adv-x="1733" 
d="M1611 98l-102 -128l-193 175q-95 -76 -213.5 -117t-251.5 -41q-160 0 -297 57t-231.5 156t-148 235.5t-53.5 292.5t53.5 292.5t148 235t231.5 155.5t297 57q153 0 286.5 -54t230 -149.5t152.5 -234.5t56 -302q0 -272 -148 -467zM851 157q187 0 330 111l-168 152l102 122
l175 -157q101 148 101 343q0 120 -40.5 226t-111.5 181.5t-172 119t-216 43.5q-116 0 -217.5 -43.5t-173.5 -119t-113 -181.5t-41 -226q0 -97 26 -184.5t75 -157.5t115.5 -121.5t151 -79.5t177.5 -28z" />
    <glyph glyph-name="R" unicode="R" horiz-adv-x="1325" 
d="M1221 0h-215l-371 555h-272v-555h-178v1455h516q123 0 216 -34t150.5 -95t86 -142t28.5 -180q0 -181 -91.5 -289.5t-255.5 -143.5l-1 -2zM363 1291v-572h290q173 0 258.5 78.5t85.5 210.5q0 137 -84 210t-235 73h-315z" />
    <glyph glyph-name="S" unicode="S" horiz-adv-x="1197" 
d="M606 -13q-142 0 -276 56t-239 169l113 137q77 -94 185 -143.5t219 -49.5q135 0 216.5 59.5t81.5 162.5q0 111 -91 175q-53 38 -204 94l-1 1h-1h-1l-1 1h-1l-1 1h-1h-1l-1 1h-1h-1l-1 1h-1l-1 1h-1h-1l-1 1h-1l-1 1h-1h-1l-1 1h-1h-1l-1 1h-1l-1 1h-1h-1l-2 1
q-55 21 -92.5 36t-87 39t-82.5 46.5t-68.5 55t-56 67.5t-34 81.5t-13.5 98.5q0 107 58.5 195.5t160.5 139t225 50.5q120 1 238 -43t222 -127l-107 -138q-85 70 -177.5 106t-176.5 36q-69 0 -126.5 -23.5t-94.5 -72t-37 -114.5q-1 -98 95 -161q53 -36 210 -96l1 -1h1l1 -1h1
h1l1 -1q180 -70 238 -101q139 -74 185 -183q27 -65 27 -150q0 -78 -26.5 -145.5t-72.5 -115.5t-107.5 -82.5t-132.5 -51t-147 -16.5z" />
    <glyph glyph-name="T" unicode="T" horiz-adv-x="1181" 
d="M499 0v1291h-435v164h1053v-164h-440v-1291h-178z" />
    <glyph glyph-name="U" unicode="U" horiz-adv-x="1456" 
d="M726 -13q-125 0 -228.5 41t-177.5 117t-115 190.5t-41 256.5v863h178v-850q0 -203 104.5 -325.5t279.5 -122.5q173 0 280 120t107 328v850h178v-863q0 -280 -152.5 -442.5t-412.5 -162.5z" />
    <glyph glyph-name="V" unicode="V" horiz-adv-x="1381" 
d="M1131 1455h192l-548 -1455h-161l-548 1455h193l433 -1198h3z" />
    <glyph glyph-name="W" unicode="W" horiz-adv-x="2097" 
d="M1836 1455h190l-465 -1455h-172l-336 1192h-4l-341 -1192h-172l-465 1455h191l358 -1162h4l329 1162h193l327 -1165h4z" />
    <glyph glyph-name="X" unicode="X" horiz-adv-x="1367" 
d="M1086 0l-400 585h-3l-401 -585h-211l496 727l-490 728h206l399 -588h4l397 588h207l-489 -729l496 -726h-211z" />
    <glyph glyph-name="Y" unicode="Y" horiz-adv-x="1238" 
d="M996 1455h207l-497 -805v-650h-178v650l-493 805h205l376 -626h4z" />
    <glyph glyph-name="Z" unicode="Z" horiz-adv-x="1265" 
d="M350 164h786v-164h-1015v142l776 1146v3h-736v164h969v-142l-780 -1146v-3z" />
    <glyph glyph-name="bracketleft" unicode="[" horiz-adv-x="637" 
d="M139 -296v1789h400v-131h-252v-1527h252v-131h-400z" />
    <glyph glyph-name="backslash" unicode="\" horiz-adv-x="860" 
d="M771 -231l-787 1745l133 63l788 -1746z" />
    <glyph glyph-name="bracketright" unicode="]" horiz-adv-x="637" 
d="M498 -296h-400v131h252v1527h-252v131h400v-1789z" />
    <glyph glyph-name="asciicircum" unicode="^" horiz-adv-x="958" 
d="M125 1023l287 432h133l288 -432h-152l-203 314l-206 -314h-147z" />
    <glyph glyph-name="underscore" unicode="_" horiz-adv-x="1079" 
d="M-5 -175v119h1088v-119h-1088z" />
    <glyph glyph-name="grave" unicode="`" horiz-adv-x="1035" 
d="M523 1108l-254 290l189 -1l240 -289h-175z" />
    <glyph glyph-name="a" unicode="a" horiz-adv-x="1245" 
d="M932 997h166v-997h-159v158h-3q-61 -81 -150.5 -126t-198.5 -45q-102 0 -192 36.5t-155.5 101.5t-103.5 160t-38 207q0 146 62.5 264t174.5 185.5t251 67.5q103 0 191.5 -41t150.5 -119h4v148zM603 139q67 0 128 25.5t107 71t73 112t27 143.5q0 76 -25.5 143.5
t-69.5 116.5t-106 77.5t-132 28.5q-145 0 -241.5 -101t-96.5 -265q0 -153 93 -252.5t243 -99.5z" />
    <glyph glyph-name="b" unicode="b" horiz-adv-x="1256" 
d="M671 1009q139 0 251 -67.5t174.5 -185.5t62.5 -264q0 -112 -38 -207t-103.5 -160t-155.5 -101.5t-192 -36.5q-109 0 -198.5 44.5t-150.5 126.5h-3v-158h-159v1508h166v-659h4q62 78 150.5 119t191.5 41zM654 139q150 0 243 99.5t93 252.5q0 164 -96.5 265t-241.5 101
q-94 0 -170.5 -48.5t-119.5 -132.5t-43 -185q0 -77 27 -143.5t73 -112t107 -71t128 -25.5z" />
    <glyph glyph-name="c" unicode="c" horiz-adv-x="1070" 
d="M590 -13q-142 0 -254.5 64t-175.5 180.5t-63 265.5t63.5 266t177 182t258.5 65q115 0 222.5 -46t179.5 -132l-115 -100q-48 58 -120.5 91.5t-158.5 33.5q-150 0 -244.5 -100t-94.5 -259t94.5 -258.5t244.5 -99.5q85 0 160 32.5t123 86.5l115 -103q-67 -75 -175.5 -122
t-236.5 -47z" />
    <glyph glyph-name="d" unicode="d" horiz-adv-x="1251" 
d="M926 1508h166v-1508h-159v158h-3q-40 -54 -92 -92t-116.5 -58.5t-136.5 -20.5q-102 0 -192 36.5t-155.5 101.5t-103.5 160t-38 207q0 109 37 205t101 164.5t155 108t195 39.5q67 0 129 -18t115.5 -54t94.5 -88h3v659zM601 139q65 0 125.5 25.5t106 71t72.5 112t27 143.5
q0 76 -25.5 143.5t-69 116.5t-104.5 77.5t-130 28.5q-145 0 -241.5 -101t-96.5 -265q0 -153 93 -252.5t243 -99.5z" />
    <glyph glyph-name="e" unicode="e" horiz-adv-x="1130" 
d="M1037 514q0 -38 -5 -68h-766q16 -139 107 -222.5t225 -83.5q89 0 160 36.5t121 97.5l116 -99q-67 -87 -169.5 -137.5t-233.5 -50.5q-105 0 -196.5 37.5t-157.5 103.5t-104 162t-38 208q0 111 37 206.5t100.5 162t151.5 104.5t188 38q137 0 243 -64t163.5 -176.5
t57.5 -254.5zM582 856q-118 0 -203.5 -73.5t-108.5 -198.5h602q-20 124 -96.5 198t-193.5 74z" />
    <glyph glyph-name="f" unicode="f" horiz-adv-x="686" 
d="M200 0v853h-122v144h122v202q0 159 72.5 240.5t207.5 81.5q127 0 232 -63l-37 -143q-100 51 -174 51q-136 0 -136 -183v-186h283v-144h-283v-853h-165z" />
    <glyph glyph-name="g" unicode="g" horiz-adv-x="1227" 
d="M915 997h165v-922q0 -110 -28.5 -198.5t-86 -155t-153 -102.5t-222.5 -36q-228 0 -406 108l40 153q94 -54 176 -79.5t182 -25.5q82 0 147 23t106 63t62 92.5t21 114.5v139h-5q-125 -152 -338 -152q-99 0 -187 35.5t-153.5 99t-103.5 157t-38 202.5q0 139 61.5 252.5
t170 178.5t242.5 65q101 0 190.5 -38.5t153.5 -111.5h4v138zM588 174q149 0 241 97.5t92 248.5q0 149 -95 242t-238 93q-142 0 -234 -96t-92 -241q0 -62 16.5 -117t46.5 -96t70.5 -71t90 -45t102.5 -15z" />
    <glyph glyph-name="h" unicode="h" horiz-adv-x="1197" 
d="M695 1009q169 0 265.5 -102.5t96.5 -308.5v-599h-166v552q0 306 -244 306q-150 0 -236.5 -94t-86.5 -261v-502h-166v1508h166v-673h4q31 42 71 75t87 55t99.5 33t109.5 11z" />
    <glyph glyph-name="i" unicode="i" horiz-adv-x="512" 
d="M257 1182q-50 0 -84 34t-34 82q0 49 34 83t84 34q32 0 59 -15.5t43 -42.5t16 -59q0 -48 -34.5 -82t-83.5 -34zM173 0v997h165v-997h-165z" />
    <glyph glyph-name="j" unicode="j" horiz-adv-x="466" 
d="M240 1182q-50 0 -84 34t-34 82q0 49 34 83t84 34q32 0 59 -15.5t43 -42.5t16 -59q0 -48 -34.5 -82t-83.5 -34zM68 -418q-94 0 -172 34l27 147q49 -30 103 -30q59 0 94.5 40t35.5 122v1102h166v-1102q0 -146 -68 -229.5t-186 -83.5z" />
    <glyph glyph-name="k" unicode="k" horiz-adv-x="1066" 
d="M536 457h-3l-209 -232v-225h-165v1508h165v-1055h3l491 544h201l-372 -413l374 -584h-189z" />
    <glyph glyph-name="l" unicode="l" horiz-adv-x="511" 
d="M173 0v1508h165v-1508h-165z" />
    <glyph glyph-name="m" unicode="m" horiz-adv-x="1831" 
d="M1344 1009q173 0 261 -104t88 -321v-584h-165v539q0 166 -56.5 242t-176.5 76t-200 -99t-80 -263v-495h-165v541q0 109 -27 180t-79 103.5t-131 32.5q-125 0 -207 -98.5t-82 -263.5v-495h-165v997h165v-170h3q61 87 149 134.5t186 47.5q237 0 315 -194h4
q61 93 155.5 143.5t207.5 50.5z" />
    <glyph glyph-name="n" unicode="n" horiz-adv-x="1188" 
d="M689 1009q167 0 262.5 -105t95.5 -313v-592h-166v546q0 86 -17.5 147t-50.5 97t-76 52t-100 16q-142 0 -227.5 -96.5t-85.5 -262.5v-498h-166v997h166v-172h3q62 89 156 136.5t206 47.5z" />
    <glyph glyph-name="o" unicode="o" horiz-adv-x="1222" 
d="M612 -13q-114 0 -211 39.5t-163.5 108t-104 162t-37.5 200.5t37.5 201.5t104 163t163.5 108t211 39.5q146 0 263 -64t183.5 -181.5t66.5 -266.5q0 -148 -66.5 -265t-183.5 -181t-263 -64zM612 140q95 0 174 45t125 127t46 185q0 104 -46 186.5t-124.5 127.5t-174.5 45
q-102 0 -182 -48t-123 -130t-43 -181q0 -98 43.5 -179.5t123.5 -129.5t181 -48z" />
    <glyph glyph-name="p" unicode="p" horiz-adv-x="1251" 
d="M668 1009q139 0 251 -67.5t174.5 -185.5t62.5 -264q0 -112 -38 -207t-103.5 -160t-155.5 -101.5t-192 -36.5q-104 0 -191 42t-148 119h-4v-553h-165v1402h166v-147h4q62 77 149.5 118t189.5 41zM651 139q150 0 243 99.5t93 252.5q0 164 -96.5 265t-241.5 101
q-92 0 -168 -48.5t-119 -132.5t-43 -185q0 -77 27 -143.5t73 -112t106 -71t126 -25.5z" />
    <glyph glyph-name="q" unicode="q" horiz-adv-x="1246" 
d="M927 997h166v-1402h-165v553h-4q-61 -77 -148 -119t-191 -42q-102 0 -192 36.5t-155.5 101.5t-103.5 160t-38 207q0 109 37 205t101 164.5t155 108t195 39.5q67 0 129 -18t115.5 -54t94.5 -87h4v147zM601 139q66 0 126 25.5t106 71t73 112t27 143.5q0 101 -43 185
t-119 132.5t-168 48.5q-145 0 -241.5 -101t-96.5 -265q0 -153 93 -252.5t243 -99.5z" />
    <glyph glyph-name="r" unicode="r" horiz-adv-x="732" 
d="M652 1009q29 0 41 -2v-183q-36 3 -66 3q-93 0 -162 -45t-105 -123t-36 -178v-481h-166v997h166v-174h4q56 89 139.5 137.5t184.5 48.5z" />
    <glyph glyph-name="s" unicode="s" horiz-adv-x="903" 
d="M462 -13q-229 0 -391 144l86 126q63 -59 134.5 -89t170.5 -30q87 0 138 38t51 95q0 15 -3 28t-12 24.5t-17 20t-25.5 18.5t-30 16.5t-37.5 16t-40.5 15t-47.5 17.5q-16 5 -24 8q-56 19 -94.5 36t-80.5 43.5t-67 56.5t-41.5 74t-16.5 97q0 114 94 190.5t236 76.5
q193 0 343 -123l-86 -131q-120 104 -265 104q-60 0 -106.5 -32.5t-46.5 -84.5q0 -28 13.5 -51t42 -42t57.5 -32.5t76 -31.5q160 -62 193 -78q103 -51 135 -125q20 -46 20 -109q0 -59 -22.5 -110.5t-66 -91t-113 -62t-156.5 -22.5z" />
    <glyph glyph-name="t" unicode="t" horiz-adv-x="745" 
d="M440 -13q-259 0 -259 310v556h-127v144h127v341l166 18v-359h330v-144h-330v-531q0 -94 27 -136.5t95 -42.5q79 0 168 51l44 -145q-32 -18 -61 -30.5t-77 -22t-103 -9.5z" />
    <glyph glyph-name="u" unicode="u" horiz-adv-x="1156" 
d="M842 997h166v-997h-166v165h-3q-59 -86 -145 -132t-183 -46q-177 0 -275.5 104t-98.5 312v594h166v-546q0 -166 60 -238.5t183 -72.5q60 0 113.5 25.5t94 72t64.5 118.5t24 158v483z" />
    <glyph glyph-name="v" unicode="v" horiz-adv-x="1072" 
d="M841 997h180l-405 -997h-159l-407 997h178l307 -786h5z" />
    <glyph glyph-name="w" unicode="w" horiz-adv-x="1573" 
d="M1345 997h169l-346 -997h-157l-224 726h-4l-225 -726h-153l-346 997h169l254 -744h4l227 744h144l230 -745h4z" />
    <glyph glyph-name="x" unicode="x" horiz-adv-x="1045" 
d="M794 0l-269 362h-4l-270 -362h-187l362 504l-362 493h195l259 -364h5l262 364h194l-360 -492l364 -505h-189z" />
    <glyph glyph-name="y" unicode="y" horiz-adv-x="1082" 
d="M855 997h176l-564 -1402h-176l178 444l-421 958h177l324 -759h5z" />
    <glyph glyph-name="z" unicode="z" horiz-adv-x="973" 
d="M886 878l-582 -730v-4h581v-144h-806v122l578 727v4h-547v144h776v-119z" />
    <glyph glyph-name="braceleft" unicode="{" horiz-adv-x="692" 
d="M406 797q0 -91 -25.5 -138t-92.5 -66v-2q47 -13 72 -35t35.5 -61.5t10.5 -109.5v-402q0 -42 7 -71.5t22.5 -49.5t40.5 -29.5t61 -9.5h52v-117h-108q-94 0 -157 61.5t-63 164.5v437q0 21 -0.5 33.5t-4 30.5t-9.5 28.5t-18 23.5t-29 20t-42.5 12.5t-59.5 7.5v132
q33 2 59 8.5t43 14t29 21t18 24t9.5 28.5t4 29.5t0.5 30.5v453q0 97 59.5 162t160.5 65h108v-118h-52q-62 0 -96.5 -41t-34.5 -98v-439z" />
    <glyph glyph-name="bar" unicode="|" horiz-adv-x="603" 
d="M228 -235v1744h146v-1744h-146z" />
    <glyph glyph-name="braceright" unicode="}" horiz-adv-x="692" 
d="M431 813q0 -15 0.5 -24t2 -23t4.5 -23t8.5 -21t13.5 -19.5t20.5 -16t28.5 -14t37.5 -9.5t47.5 -6v-132q-34 -2 -59.5 -7.5t-42.5 -12.5t-29 -20t-18 -23.5t-9.5 -28.5t-4 -30.5t-0.5 -33.5v-437q0 -103 -63 -164.5t-157 -61.5h-108v117h52q36 0 61 9.5t40.5 29.5
t22.5 49.5t7 71.5v402q0 102 24.5 144t93.5 62v2q-67 19 -92.5 66t-25.5 138v439q0 57 -34.5 98t-96.5 41h-52v118h108q67 0 117.5 -31t76.5 -82t26 -114v-453z" />
    <glyph glyph-name="asciitilde" unicode="~" horiz-adv-x="1150" 
d="M776 432q-14 0 -27.5 1t-28.5 4.5t-25 5t-27 8t-23 8t-24.5 10t-21.5 10t-24 11.5l-21 10q-94 45 -152 45q-101 0 -156 -108l-121 49q38 101 102.5 159t154.5 58q26 0 52 -4t43 -8t42.5 -14t35 -14.5t36.5 -16.5q37 -19 55.5 -27.5t50.5 -18t60 -9.5q46 0 86 28t63 79
l120 -43q-35 -102 -102 -162.5t-148 -60.5z" />
    <glyph glyph-name="exclamdown" unicode="&#xa1;" horiz-adv-x="503" 
d="M252 1008q49 0 83.5 -34t34.5 -82q0 -49 -34.5 -83t-83.5 -34q-50 0 -84.5 34t-34.5 83q0 48 34.5 82t84.5 34zM190 567h129l31 -1080h-190z" />
    <glyph glyph-name="cent" unicode="&#xa2;" horiz-adv-x="1116" 
d="M1037 267q-58 -63 -148 -107.5t-197 -56.5v-212h-132v209q-134 12 -237.5 79t-160.5 178.5t-57 250.5q0 210 125 349.5t330 159.5v217h132v-218q100 -12 189 -55.5t152 -116.5l-114 -100q-51 57 -126 90.5t-165 33.5q-104 0 -184.5 -45.5t-125 -127t-44.5 -185.5
q0 -158 98.5 -258.5t255.5 -100.5q89 0 166.5 33t128.5 87z" />
    <glyph glyph-name="sterling" unicode="&#xa3;" horiz-adv-x="1153" 
d="M96 0v164h161v528h-128v137h128v118q0 98 21.5 177.5t59 133t89.5 89.5t111 52t125 16q118 0 217 -52.5t164 -147.5l-94 -121q-49 74 -118 113.5t-148 39.5q-56 0 -100 -17t-78.5 -54t-53 -100t-18.5 -149v-98h345v-137h-343v-528h661v-164h-1001z" />
    <glyph glyph-name="currency" unicode="&#xa4;" horiz-adv-x="1035" 
d="M889 790q0 -124 -74 -222l160 -160l-80 -80l-160 160q-99 -71 -223 -71q-122 0 -221 72l-160 -159l-81 81l160 159q-71 98 -71 220t72 221l-161 161l81 80l160 -159q100 74 222 74q124 0 222 -73l159 160l81 -80l-160 -160q74 -101 74 -224zM514 541q103 0 177.5 74
t75.5 178q-2 104 -76 178t-178 74q-103 -1 -177 -75t-75 -177q1 -104 75.5 -178t177.5 -74z" />
    <glyph glyph-name="yen" unicode="&#xa5;" horiz-adv-x="1149" 
d="M1124 1403l-324 -567h203v-112h-267l-71 -124v-4h337v-112h-337v-484h-179v484h-349v112h349v4l-71 124h-278v112h214l-325 568h207l340 -626h4l341 626z" />
    <glyph glyph-name="brokenbar" unicode="&#xa6;" horiz-adv-x="603" 
d="M228 790v719h146v-719h-146zM228 -234v723h146v-723h-146z" />
    <glyph glyph-name="section" unicode="&#xa7;" horiz-adv-x="1105" 
d="M820 281q67 -44 101 -101.5t34 -142.5q0 -150 -108.5 -242t-290.5 -92q-124 0 -236.5 46.5t-199.5 140.5l103 123q66 -76 154 -114.5t175 -38.5q94 0 157 46t63 126q0 21 -4 39t-14 33.5t-20 27.5t-30.5 25t-35 21.5t-44 20.5t-48.5 19.5t-56 21.5q-187 70 -259 115
q-138 87 -145 220v15q0 92 46 161t130 106q-127 90 -127 239q0 68 26.5 127.5t74 102.5t118 68t154.5 25q101 0 209 -40t187 -105l-101 -122q-47 36 -99 60.5t-98.5 35.5t-88.5 11q-41 0 -77.5 -11t-63.5 -30.5t-43 -50t-16 -67.5q0 -20 4 -37.5t14 -33t20 -27.5t29 -24.5
t34 -21t41.5 -20.5t44.5 -19t51 -20q179 -71 223 -93q119 -61 157 -144q23 -51 23 -120q0 -55 -20 -104t-57.5 -88.5t-90.5 -66.5zM287 619q0 -33 12.5 -59.5t33 -47.5t59 -42t77.5 -37.5t100 -38.5q59 -21 103 -40q68 17 106.5 61t38.5 105q0 17 -2.5 32t-9 28.5t-12.5 24
t-20 22t-23.5 19.5t-30.5 19t-34 17.5t-41 18t-45 18.5l-51 19q-3 1 -4 1.5t-2.5 1t-3.5 1.5l-93 36q-72 -13 -115 -56t-43 -103z" />
    <glyph glyph-name="dieresis" unicode="&#xa8;" horiz-adv-x="1040" 
d="M336 1149q-50 0 -84 34t-34 82q0 49 34 83t84 34t84.5 -34t34.5 -83q0 -24 -9.5 -45.5t-25.5 -37t-38 -24.5t-46 -9zM707 1151q-32 0 -59 15t-42.5 41.5t-15.5 57.5q0 47 34 81t82.5 34t82.5 -34t34 -81t-33.5 -80.5t-82.5 -33.5z" />
    <glyph glyph-name="copyright" unicode="&#xa9;" horiz-adv-x="1431" 
d="M715 27q-127 0 -242.5 50t-197.5 134.5t-130.5 199.5t-48.5 240q0 100 31 194.5t88 171.5t133 135.5t171.5 90.5t198.5 32q128 0 243 -50t197 -134.5t130 -199.5t48 -240q0 -124 -48.5 -239t-130.5 -199.5t-198 -135t-244 -50.5zM715 145q104 0 197.5 40.5t160 109
t105.5 161.5t39 195q0 103 -39 196t-105 161.5t-159 108.5t-196 40q-105 0 -198.5 -40.5t-160 -109t-105.5 -162t-39 -195.5t38.5 -195.5t105 -161.5t159.5 -108t197 -40zM734 314q-69 0 -129 22t-106 62.5t-72.5 104.5t-26.5 144q0 56 13.5 106t41.5 92t67.5 73t93.5 48
t118 17q47 0 92 -12.5t89 -41.5t79 -72l-80 -68q-34 42 -81 66t-99 24q-102 0 -161.5 -63.5t-59.5 -168.5t61 -166.5t160 -61.5q56 0 102.5 23.5t77.5 63.5l80 -68q-100 -124 -260 -124z" />
    <glyph glyph-name="ordfeminine" unicode="&#xaa;" horiz-adv-x="798" 
d="M577 1406h121v-598h-121v89h-3q-25 -32 -58.5 -54t-74 -33.5t-85.5 -11.5q-130 0 -213 85.5t-83 220.5t81 223t210 88q43 0 83.5 -12.5t76.5 -36.5t63 -58h3v98zM383 915q81 0 136 52.5t55 136.5t-53.5 139.5t-136.5 55.5q-55 0 -100.5 -24t-72 -69t-26.5 -102
q0 -82 55.5 -135.5t142.5 -53.5z" />
    <glyph glyph-name="guillemotleft" unicode="&#xab;" horiz-adv-x="948" 
d="M505 53h-166l-254 449l257 454h165l-256 -454zM867 53h-166l-254 449l257 454h165l-256 -454z" />
    <glyph glyph-name="logicalnot" unicode="&#xac;" horiz-adv-x="1150" 
d="M880 335v325h-762v150h913v-475h-151z" />
    <glyph glyph-name="registered" unicode="&#xae;" horiz-adv-x="1437" 
d="M721 1279q128 0 243.5 -50.5t198 -135t130.5 -200.5t48 -242q0 -125 -48.5 -240.5t-131 -200.5t-199 -135.5t-244.5 -50.5t-243.5 50.5t-198.5 135t-131.5 200t-48.5 241.5t49 241.5t132 200.5t199 135.5t245 50.5zM718 142q104 0 198 41t160.5 109.5t105.5 162.5t39 196
q0 103 -39 197t-105 162.5t-159 109t-197 40.5q-140 0 -257 -69.5t-183 -186.5t-66 -254q0 -210 146 -359t357 -149zM964 777q0 -80 -38 -129t-108 -68l177 -256h-125l-166 245h-96v-245h-105v663h240q111 0 166 -57.5t55 -152.5zM609 890v-225h109q47 0 79 16t45 40.5
t13 57.5q0 51 -34.5 81t-93.5 30h-118z" />
    <glyph glyph-name="macron" unicode="&#xaf;" horiz-adv-x="936" 
d="M174 1187v143h588v-143h-588z" />
    <glyph glyph-name="degree" unicode="&#xb0;" horiz-adv-x="806" 
d="M403 911q-76 0 -141.5 37t-104 101t-38.5 139t39.5 140t105 102.5t139.5 37.5t139.5 -38t105 -103.5t39.5 -141.5q0 -112 -84 -193t-200 -81zM402 1027q68 0 116.5 47t48.5 113q0 67 -49.5 116t-115.5 49q-43 0 -81 -22t-60.5 -60t-22.5 -82q0 -67 48 -114t116 -47z" />
    <glyph glyph-name="plusminus" unicode="&#xb1;" horiz-adv-x="1234" 
d="M523 328v401h-402v155h402v403h155v-403h402v-155h-402v-401h-155zM153 -6v155h959v-155h-959z" />
    <glyph glyph-name="uni00B2" unicode="&#xb2;" horiz-adv-x="698" 
d="M269 1024h364v-131h-577l-1 98l294 280q67 64 97.5 109.5t30.5 95.5q0 39 -18.5 70.5t-51.5 49t-74 17.5q-49 0 -96.5 -26t-76.5 -78l-107 78q26 46 68 81.5t99.5 57t122.5 21.5q74 0 137.5 -30t103 -89t39.5 -135q0 -77 -34 -140.5t-121 -142.5l-199 -182v-4z" />
    <glyph glyph-name="uni00B3" unicode="&#xb3;" horiz-adv-x="709" 
d="M512 1326q67 -28 103.5 -80.5t36.5 -125.5q0 -108 -81.5 -174t-214.5 -66q-114 0 -197.5 50.5t-117.5 130.5l129 53q44 -106 177 -106q73 0 115 35t42 98q0 56 -46 92t-126 36h-69v111h83q44 0 77.5 15.5t50.5 41t17 57.5q0 57 -40 90.5t-108 33.5q-106 0 -151 -83
l-119 65q33 66 105 106t167 40q80 0 143 -25.5t101 -77.5t38 -123q0 -129 -115 -190v-4z" />
    <glyph glyph-name="acute" unicode="&#xb4;" horiz-adv-x="1035" 
d="M337 1108l240 289l189 1l-255 -290h-174z" />
    <glyph glyph-name="uni00B5" unicode="&#xb5;" horiz-adv-x="1176" 
d="M861 997h165v-997h-151l-11 164h-5q-37 -56 -87 -95.5t-108 -60.5t-121 -21q-155 0 -233 108l-3 -2q10 -101 10 -217v-281h-166v1402h166v-528q0 -167 67 -248.5t191 -81.5t205 98.5t81 263.5v496z" />
    <glyph glyph-name="paragraph" unicode="&#xb6;" horiz-adv-x="970" 
d="M668 -308v1528h-125v-1220h-112v717q-151 8 -242.5 88t-91.5 220q0 144 94.5 227.5t259.5 83.5h327v-1644h-110z" />
    <glyph glyph-name="periodcentered" unicode="&#xb7;" horiz-adv-x="487" 
d="M244 379q-50 0 -84.5 34t-34.5 82q0 49 34.5 83t84.5 34q49 0 83.5 -34t34.5 -83q0 -31 -16 -58t-43 -42.5t-59 -15.5z" />
    <glyph glyph-name="cedilla" unicode="&#xb8;" horiz-adv-x="791" 
d="M381 -67q83 -4 131.5 -46t48.5 -116q0 -69 -55.5 -112.5t-164.5 -43.5q-52 0 -114 12v90q45 -14 99 -14q48 0 81.5 19.5t33.5 56.5q0 17 -11 32t-31.5 27.5t-53.5 19.5t-74 7v62l40 85h105l-37 -76z" />
    <glyph glyph-name="uni00B9" unicode="&#xb9;" horiz-adv-x="540" 
d="M271 893v663l-162 -110l-70 110l263 180h111v-843h-142z" />
    <glyph glyph-name="ordmasculine" unicode="&#xba;" horiz-adv-x="774" 
d="M376 798q-139 0 -227.5 88t-88.5 221t88.5 220.5t227.5 87.5q137 0 227.5 -86t90.5 -222t-90.5 -222.5t-227.5 -86.5zM377 914q80 0 133.5 54t53.5 139t-53.5 139t-133.5 54q-82 0 -134 -55.5t-52 -137.5q0 -40 13.5 -75.5t37.5 -61.5t59 -41t76 -15z" />
    <glyph glyph-name="guillemotright" unicode="&#xbb;" horiz-adv-x="948" 
d="M81 53l254 449l-256 454h165l257 -454l-254 -449h-166zM443 53l254 449l-256 454h165l257 -454l-254 -449h-166z" />
    <glyph glyph-name="onequarter" unicode="&#xbc;" horiz-adv-x="1594" 
d="M526 -35l-137 58l636 1456l136 -59zM271 613v663l-162 -110l-70 110l263 180h111v-843h-142zM1278 0v140h-385v92l415 611h112v-578h124v-125h-124v-140h-142zM1055 257h234v348z" />
    <glyph glyph-name="onehalf" unicode="&#xbd;" horiz-adv-x="1658" 
d="M1025 1479l136 -59l-635 -1455l-137 58zM413 613h-142v663l-162 -110l-70 110l263 180h111v-843zM1229 131h364v-131h-577l-1 98l294 280q67 64 97.5 109t30.5 96q0 59 -40.5 98t-103.5 39q-49 0 -96.5 -26t-76.5 -78l-107 78q26 46 68 81.5t99.5 57t122.5 21.5
q74 0 137.5 -30t103 -89t39.5 -135q0 -52 -14 -95t-48 -88.5t-93 -99.5l-199 -182v-4z" />
    <glyph glyph-name="threequarters" unicode="&#xbe;" horiz-adv-x="1725" 
d="M1157 1479l136 -59l-635 -1455l-137 58zM652 840q0 -108 -81.5 -174t-214.5 -66q-114 0 -197.5 50.5t-117.5 130.5l129 53q44 -106 177 -106q73 0 115 35t42 98q0 36 -20 65t-59.5 46t-92.5 17h-69v111h83q44 0 77.5 15.5t50.5 41t17 57.5q0 57 -40 90.5t-108 33.5
q-106 0 -151 -83l-119 65q33 66 105 106t167 40q122 0 202 -60t80 -166q0 -41 -13 -76.5t-39 -64.5t-63 -49v-4q67 -28 103.5 -80.5t36.5 -125.5zM1551 265h124v-125h-124v-140h-142v140h-385v92l415 611h112v-578zM1420 257v348l-234 -348h234z" />
    <glyph glyph-name="questiondown" unicode="&#xbf;" horiz-adv-x="879" 
d="M521 1008q25 0 47 -9t37.5 -25t25 -37t9.5 -45q0 -49 -34.5 -83t-84.5 -34q-49 0 -83.5 34t-34.5 83q0 31 16 58t43 42.5t59 15.5zM600 570v-110q0 -34 -10 -67.5t-22.5 -58.5t-38.5 -58t-43 -51.5t-51 -53.5q-13 -13 -19 -20q-71 -74 -109.5 -139.5t-38.5 -146.5
q0 -105 66 -164.5t166 -59.5q73 0 141.5 36.5t112.5 103.5l124 -117q-67 -91 -169 -140.5t-222 -49.5q-66 0 -126 16.5t-110.5 49t-87.5 78t-58 107t-21 132.5q0 58 14.5 111.5t43 99.5t57 80.5t68.5 75.5q15 15 43 42.5t43 42.5t36 38.5t31.5 40.5t19 38.5t9.5 42.5l3 101
h148z" />
    <glyph glyph-name="Agrave" unicode="&#xc0;" horiz-adv-x="1396" 
d="M779 1621h-175l-254 290l189 -1zM1153 0l-130 354h-649l-129 -354h-187l550 1455h179l554 -1455h-188zM431 510h535l-266 727h-4z" />
    <glyph glyph-name="Aacute" unicode="&#xc1;" horiz-adv-x="1396" 
d="M1058 1911l-255 -290h-174l240 289zM1153 0l-130 354h-649l-129 -354h-187l550 1455h179l554 -1455h-188zM431 510h535l-266 727h-4z" />
    <glyph glyph-name="Acircumflex" unicode="&#xc2;" horiz-adv-x="1396" 
d="M694 1801l-147 -183h-168l238 293h153l245 -293h-169l-148 183h-4zM1153 0l-130 354h-649l-129 -354h-187l550 1455h179l554 -1455h-188zM431 510h535l-266 727h-4z" />
    <glyph glyph-name="Atilde" unicode="&#xc3;" horiz-adv-x="1396" 
d="M560 1752q-80 0 -122 -112l-107 47q30 95 83 148.5t129 53.5q34 0 67 -10.5t50.5 -20t49.5 -29.5l21 -14q15 -10 22 -14.5t20 -12t22 -10.5t21.5 -6t23.5 -3q37 0 68.5 29t50.5 84l105 -36q-18 -67 -49 -115.5t-71 -73.5t-85 -25q-33 0 -68.5 12.5t-55.5 24.5t-55 35
q-39 24 -66 36t-54 12zM1153 0l-130 354h-649l-129 -354h-187l550 1455h179l554 -1455h-188zM431 510h535l-266 727h-4z" />
    <glyph glyph-name="Adieresis" unicode="&#xc4;" horiz-adv-x="1396" 
d="M512 1662q-50 0 -84 34t-34 82q0 24 9 45.5t24.5 37.5t37.5 25t47 9q50 0 84.5 -34t34.5 -83q0 -48 -35 -82t-84 -34zM883 1664q-32 0 -59 15t-42.5 41.5t-15.5 57.5q0 47 34 81t83 34t82.5 -34t33.5 -81t-33.5 -80.5t-82.5 -33.5zM1153 0l-130 354h-649l-129 -354h-187
l550 1455h179l554 -1455h-188zM431 510h535l-266 727h-4z" />
    <glyph glyph-name="Aring" unicode="&#xc5;" horiz-adv-x="1396" 
d="M697 1581q-81 0 -139.5 56.5t-58.5 137.5q0 80 57 137t141 57q82 0 140.5 -56t58.5 -138q0 -80 -57.5 -137t-141.5 -57zM698 1864q-36 0 -62 -26t-26 -62t25.5 -61t62.5 -25q36 0 62 25.5t26 61.5q0 35 -26 61t-62 26zM1153 0l-130 354h-649l-129 -354h-187l550 1455h179
l554 -1455h-188zM431 510h535l-266 727h-4z" />
    <glyph glyph-name="AE" unicode="&#xc6;" horiz-adv-x="1930" 
d="M1064 164h760v-164h-933v352h-495l-189 -352h-191l782 1455h985v-164h-719v-486h598v-164h-598v-477zM481 510h410v756h-5z" />
    <glyph glyph-name="Ccedilla" unicode="&#xc7;" horiz-adv-x="1491" 
d="M846 159q258 0 434 217l133 -112q-32 -40 -68 -75t-77.5 -66t-88.5 -55.5t-99 -42t-110.5 -27t-121.5 -9.5l-26 -53l2 -3q83 -4 131.5 -46t48.5 -116q0 -69 -55.5 -112.5t-164.5 -43.5q-52 0 -114 12v90q46 -14 99 -14q48 0 81.5 19.5t33.5 56.5q0 35 -45 60.5t-125 25.5
v62l30 64v4q-132 16 -244 71t-197 144.5t-133.5 221t-48.5 289.5q0 124 30 236.5t91 205.5t147 161t203 106t254 38q103 0 200.5 -28t193.5 -91.5t173 -158.5l-133 -111q-84 105 -196.5 162t-237.5 57q-163 0 -286 -74t-188 -204.5t-65 -298.5q0 -102 26.5 -191t75 -156.5
t115 -116t148.5 -73.5t174 -25z" />
    <glyph glyph-name="Egrave" unicode="&#xc8;" horiz-adv-x="1224" 
d="M665 1621l-254 290l189 -1l240 -289h-175zM185 0v1455h890v-164h-711v-487h584v-164h-584v-476h754v-164h-933z" />
    <glyph glyph-name="Eacute" unicode="&#xc9;" horiz-adv-x="1224" 
d="M456 1621l240 289l189 1l-255 -290h-174zM185 0v1455h890v-164h-711v-487h584v-164h-584v-476h754v-164h-933z" />
    <glyph glyph-name="Ecircumflex" unicode="&#xca;" horiz-adv-x="1224" 
d="M634 1801l-147 -183h-168l238 293h153l245 -293h-169l-148 183h-4zM364 164h754v-164h-933v1455h890v-164h-711v-487h584v-164h-584v-476z" />
    <glyph glyph-name="Edieresis" unicode="&#xcb;" horiz-adv-x="1224" 
d="M452 1662q-25 0 -47 9t-37.5 25t-24.5 37t-9 45q0 49 34 83t84 34t84.5 -34t34.5 -83q0 -48 -35 -82t-84 -34zM823 1664q-32 0 -59 15t-42.5 41.5t-15.5 57.5q0 47 34 81t82.5 34t82.5 -34t34 -81t-33.5 -80.5t-82.5 -33.5zM185 0v1455h890v-164h-711v-487h584v-164h-584
v-476h754v-164h-933z" />
    <glyph glyph-name="Igrave" unicode="&#xcc;" horiz-adv-x="569" 
d="M189 1621l-254 290l189 -1l240 -289h-175zM195 0v1455h179v-1455h-179z" />
    <glyph glyph-name="Iacute" unicode="&#xcd;" horiz-adv-x="569" 
d="M216 1621l240 289l189 1l-255 -290h-174zM195 0v1455h179v-1455h-179z" />
    <glyph glyph-name="Icircumflex" unicode="&#xce;" horiz-adv-x="569" 
d="M354 1911l245 -293h-169l-148 183h-4l-147 -183h-168l238 293h153zM195 0v1455h179v-1455h-179z" />
    <glyph glyph-name="Idieresis" unicode="&#xcf;" horiz-adv-x="569" 
d="M96 1662q-50 0 -84 34t-34 82q0 49 34 83t84 34t84.5 -34t34.5 -83q0 -48 -35 -82t-84 -34zM467 1664q-49 0 -83 33.5t-34 80.5t34 81t82.5 34t82.5 -34t34 -81t-33.5 -80.5t-82.5 -33.5zM195 0v1455h179v-1455h-179z" />
    <glyph glyph-name="Eth" unicode="&#xd0;" horiz-adv-x="1496" 
d="M620 1455q170 0 312 -54t239 -150t150.5 -231t53.5 -295t-52 -294t-148 -229.5t-237 -148.5t-312 -53h-441v661h-122v157h122v637h435zM615 162q259 0 417.5 157.5t158.5 405.5q0 165 -71 294t-200.5 201.5t-296.5 72.5h-260v-475h307v-157h-307v-499h252z" />
    <glyph glyph-name="Ntilde" unicode="&#xd1;" horiz-adv-x="1548" 
d="M635 1752q-80 0 -122 -112l-107 47q30 95 83 148.5t129 53.5q34 0 67 -10.5t50.5 -20t49.5 -29.5l21 -14q15 -10 22 -14.5t20 -12t22 -10.5t21.5 -6t23.5 -3q37 0 68.5 29t50.5 84l105 -36q-28 -101 -82 -157.5t-123 -56.5q-33 0 -68.5 12.5t-55.5 24.5t-55 35
q-39 24 -66 36t-54 12zM1185 1455h178v-1455h-181l-815 1147h-4v-1147h-178v1455h176l820 -1159h4v1159z" />
    <glyph glyph-name="Ograve" unicode="&#xd2;" horiz-adv-x="1697" 
d="M772 1621l-254 290l189 -1l240 -289h-175zM851 -13q-160 0 -297 57t-231.5 156t-148 235.5t-53.5 292.5t53.5 292.5t148 235t231.5 155.5t297 57q153 0 286.5 -54t230 -149.5t152.5 -234.5t56 -302t-56 -302t-152.5 -235t-230.5 -150t-286 -54zM851 157q112 0 211.5 42.5
t172 117t114.5 181.5t42 230t-42 230t-114.5 181.5t-172 116.5t-211.5 42q-95 0 -180.5 -29t-151.5 -81.5t-114 -123t-73.5 -156.5t-25.5 -180q0 -118 40 -222.5t110.5 -181.5t173 -122t221.5 -45z" />
    <glyph glyph-name="Oacute" unicode="&#xd3;" horiz-adv-x="1697" 
d="M777 1621l240 289l189 1l-255 -290h-174zM851 -13q-160 0 -297 57t-231.5 156t-148 235.5t-53.5 292.5t53.5 292.5t148 235t231.5 155.5t297 57q152 0 286 -54t230.5 -149.5t152.5 -234.5t56 -302t-56 -302t-152.5 -235t-230.5 -150t-286 -54zM851 157q112 0 211.5 42.5
t172 117t114.5 181.5t42 230t-42 230t-114.5 181.5t-172 116.5t-211.5 42q-95 0 -180.5 -29t-151.5 -81.5t-114 -123t-73.5 -156.5t-25.5 -180q0 -118 40 -222.5t110.5 -181.5t173 -122t221.5 -45z" />
    <glyph glyph-name="Ocircumflex" unicode="&#xd4;" horiz-adv-x="1697" 
d="M847 1801l-147 -183h-168l238 293h153l245 -293h-169l-148 183h-4zM851 1468q152 0 286 -54t230.5 -149.5t152.5 -234.5t56 -302t-56 -302t-152.5 -235t-230.5 -150t-286 -54q-160 0 -297 57t-231.5 156t-148 235.5t-53.5 292.5t53.5 292.5t148 235t231.5 155.5t297 57z
M851 157q112 0 211.5 42.5t172 117t114.5 181.5t42 230t-42 230t-114.5 181.5t-172 116.5t-211.5 42q-95 0 -180.5 -29t-151.5 -81.5t-114 -123t-73.5 -156.5t-25.5 -180q0 -118 40 -222.5t110.5 -181.5t173 -122t221.5 -45z" />
    <glyph glyph-name="Otilde" unicode="&#xd5;" horiz-adv-x="1697" 
d="M1012 1632q-25 0 -49.5 5.5t-49 18.5t-39.5 22t-41 26q-39 24 -66 36t-54 12q-80 0 -122 -112l-107 47q30 95 83.5 148.5t128.5 53.5q26 0 49 -4.5t46 -15t35.5 -18t36.5 -22.5l21 -14q15 -10 22 -14.5t20 -12t22 -10.5t21.5 -6t23.5 -3q25 0 47 12.5t40.5 38t31.5 62.5
l105 -36q-28 -101 -82 -157.5t-123 -56.5zM851 -13q-160 0 -297 57t-231.5 156t-148 235.5t-53.5 292.5t53.5 292.5t148 235t231.5 155.5t297 57q153 0 286.5 -54t230 -149.5t152.5 -234.5t56 -302t-56 -302t-152.5 -235t-230.5 -150t-286 -54zM851 157q112 0 211.5 42.5
t172 117t114.5 181.5t42 230t-42 230t-114.5 181.5t-172 116.5t-211.5 42q-119 0 -221.5 -45t-173 -122t-110.5 -181.5t-40 -221.5q0 -118 40 -222.5t110.5 -181.5t173 -122t221.5 -45z" />
    <glyph glyph-name="Odieresis" unicode="&#xd6;" horiz-adv-x="1697" 
d="M665 1662q-33 0 -60 15.5t-42.5 42t-15.5 58.5q0 49 34 83t84 34q32 0 59.5 -15.5t43.5 -42.5t16 -59q0 -48 -35 -82t-84 -34zM1036 1664q-49 0 -83 33.5t-34 80.5t34 81t82.5 34t82.5 -34t34 -81t-33.5 -80.5t-82.5 -33.5zM851 -13q-160 0 -297 57t-231.5 156
t-148 235.5t-53.5 292.5t53.5 292.5t148 235t231.5 155.5t297 57q153 0 286.5 -54t230 -149.5t152.5 -234.5t56 -302t-56 -302t-152.5 -235t-230.5 -150t-286 -54zM851 157q112 0 211.5 42.5t172 117t114.5 181.5t42 230t-42 230t-114.5 181.5t-172 116.5t-211.5 42
q-95 0 -180.5 -29t-151.5 -81.5t-114 -123t-73.5 -156.5t-25.5 -180q0 -118 40 -222.5t110.5 -181.5t173 -122t221.5 -45z" />
    <glyph glyph-name="multiply" unicode="&#xd7;" horiz-adv-x="1049" 
d="M220 156l-107 107l304 304l-304 304l107 107l302 -304l306 305l108 -107l-306 -306l305 -305l-107 -104l-304 302z" />
    <glyph glyph-name="Oslash" unicode="&#xd8;" horiz-adv-x="1697" 
d="M1586 1399l-172 -186q162 -200 162 -485q0 -163 -56 -302t-152.5 -235t-230.5 -150t-286 -54q-255 0 -442 138l-166 -179l-108 99l166 179q-87 98 -133.5 227.5t-46.5 276.5q0 156 53.5 292.5t148 235t231.5 155.5t297 57q267 0 461 -155l169 182zM306 728
q0 -212 121 -369l762 821q-145 118 -338 118q-119 0 -221.5 -45t-173 -122t-110.5 -181.5t-40 -221.5zM1391 728q0 198 -104 347l-756 -817q137 -101 320 -101q89 0 171.5 27t149 78t116 120t76.5 158t27 188z" />
    <glyph glyph-name="Ugrave" unicode="&#xd9;" horiz-adv-x="1456" 
d="M687 1621l-254 290l189 -1l240 -289h-175zM726 -13q-125 0 -228.5 41t-177.5 117t-115 190.5t-41 256.5v863h178v-850q0 -203 104.5 -325.5t279.5 -122.5q173 0 280 120t107 328v850h178v-863q0 -280 -152.5 -442.5t-412.5 -162.5z" />
    <glyph glyph-name="Uacute" unicode="&#xda;" horiz-adv-x="1456" 
d="M600 1621l240 289l189 1l-255 -290h-174zM726 -13q-125 0 -228.5 41t-177.5 117t-115 190.5t-41 256.5v863h178v-850q0 -203 104.5 -325.5t279.5 -122.5q173 0 280 120t107 328v850h178v-863q0 -280 -152.5 -442.5t-412.5 -162.5z" />
    <glyph glyph-name="Ucircumflex" unicode="&#xdb;" horiz-adv-x="1456" 
d="M724 1801l-147 -183h-168l238 293h153l245 -293h-169l-148 183h-4zM1113 1455h178v-863q0 -280 -152.5 -442.5t-412.5 -162.5q-125 0 -228.5 41t-177.5 117t-115 190.5t-41 256.5v863h178v-850q0 -203 104.5 -325.5t279.5 -122.5q85 0 156 30.5t122.5 87.5t80 141.5
t28.5 188.5v850z" />
    <glyph glyph-name="Udieresis" unicode="&#xdc;" horiz-adv-x="1456" 
d="M542 1662q-50 0 -84 34t-34 82q0 49 34 83t84 34q32 0 59.5 -15.5t43.5 -42.5t16 -59q0 -48 -35 -82t-84 -34zM913 1664q-49 0 -83 33.5t-34 80.5t34 81t82.5 34t82.5 -34t34 -81t-33.5 -80.5t-82.5 -33.5zM726 -13q-125 0 -228.5 41t-177.5 117t-115 190.5t-41 256.5
v863h178v-850q0 -203 104.5 -325.5t279.5 -122.5q173 0 280 120t107 328v850h178v-863q0 -280 -152.5 -442.5t-412.5 -162.5z" />
    <glyph glyph-name="Yacute" unicode="&#xdd;" horiz-adv-x="1238" 
d="M951 1911l-255 -290h-174l240 289zM996 1455h207l-497 -805v-650h-178v650l-493 805h205l376 -626h4z" />
    <glyph glyph-name="Thorn" unicode="&#xde;" horiz-adv-x="1304" 
d="M185 0v1455h178v-288h371q124 0 217.5 -33.5t150 -95t84 -142.5t27.5 -180q0 -112 -37 -197.5t-105 -139.5t-161 -81t-208 -27h-339v-271h-178zM363 435h326q87 0 153 21.5t106 60.5t60 90t20 113q0 137 -83 210t-231 73h-351v-568z" />
    <glyph glyph-name="germandbls" unicode="&#xdf;" horiz-adv-x="1279" 
d="M925 875q127 -54 200 -169.5t73 -254.5q0 -140 -59 -246t-163 -162t-237 -56h-220v151h184q141 0 234 88t93 228q0 65 -24 124t-68 105t-111 73.5t-148 27.5h-111v143h103q49 1 89.5 10t68 23.5t48.5 34.5t32.5 39.5t19 42t10 39.5t2.5 33q0 97 -74.5 158.5t-211.5 61.5
q-161 0 -245.5 -85.5t-84.5 -272.5v-1011h-166v1007q0 130 33.5 228t97 161t154 94t206.5 31q107 0 193.5 -27t143.5 -74.5t87.5 -113.5t30.5 -144q0 -28 -4.5 -56.5t-17.5 -61.5t-32.5 -62t-52 -56.5t-73.5 -47.5v-3z" />
    <glyph glyph-name="agrave" unicode="&#xe0;" horiz-adv-x="1245" 
d="M760 1141h-175l-254 290l189 -1zM932 997h166v-997h-159v158h-3q-61 -82 -150.5 -126.5t-198.5 -44.5q-102 0 -192 36.5t-155.5 101.5t-103.5 160t-38 207q0 146 62.5 264t174.5 185.5t251 67.5q103 0 191.5 -41t150.5 -119h4v148zM603 139q67 0 128 25.5t107 71t73 112
t27 143.5q0 76 -25.5 143.5t-69.5 116.5t-106 77.5t-132 28.5q-145 0 -241.5 -101t-96.5 -265q0 -153 93 -252.5t243 -99.5z" />
    <glyph glyph-name="aacute" unicode="&#xe1;" horiz-adv-x="1245" 
d="M951 1431l-255 -290h-174l240 289zM932 997h166v-997h-159v158h-3q-61 -82 -150.5 -126.5t-198.5 -44.5q-102 0 -192 36.5t-155.5 101.5t-103.5 160t-38 207q0 146 62.5 264t174.5 185.5t251 67.5q103 0 191.5 -41t150.5 -119h4v148zM603 139q67 0 128 25.5t107 71
t73 112t27 143.5q0 76 -25.5 143.5t-69.5 116.5t-106 77.5t-132 28.5q-145 0 -241.5 -101t-96.5 -265q0 -153 93 -252.5t243 -99.5z" />
    <glyph glyph-name="acircumflex" unicode="&#xe2;" horiz-adv-x="1245" 
d="M615 1321l-147 -183h-168l238 293h153l245 -293h-169l-148 183h-4zM932 997h166v-997h-159v158h-3q-61 -81 -150.5 -126t-198.5 -45q-102 0 -192 36.5t-155.5 101.5t-103.5 160t-38 207q0 146 62.5 264t174.5 185.5t251 67.5q103 0 191.5 -41t150.5 -119h4v148zM603 139
q67 0 128 25.5t107 71t73 112t27 143.5q0 76 -25.5 143.5t-69.5 116.5t-106 77.5t-132 28.5q-145 0 -241.5 -101t-96.5 -265q0 -153 93 -252.5t243 -99.5z" />
    <glyph glyph-name="atilde" unicode="&#xe3;" horiz-adv-x="1245" 
d="M481 1272q-80 0 -122 -112l-107 47q30 95 83 148.5t129 53.5q34 0 67 -10.5t50.5 -20t49.5 -29.5q5 -4 20.5 -14t22.5 -14.5t20 -12t22 -10.5t21.5 -6t23.5 -3q37 0 68.5 29t50.5 84l105 -36q-28 -101 -82 -157.5t-123 -56.5q-33 0 -68.5 12.5t-55.5 24.5t-55 35
q-39 24 -66 36t-54 12zM932 997h166v-997h-159v158h-3q-61 -82 -150.5 -126.5t-198.5 -44.5q-102 0 -192 36.5t-155.5 101.5t-103.5 160t-38 207q0 146 62.5 264t174.5 185.5t251 67.5q68 0 130.5 -18t116.5 -54t95 -88h4v148zM603 139q67 0 128 25.5t107 71t73 112
t27 143.5q0 76 -25.5 143.5t-69.5 116.5t-106 77.5t-132 28.5q-145 0 -241.5 -101t-96.5 -265q0 -153 93 -252.5t243 -99.5z" />
    <glyph glyph-name="adieresis" unicode="&#xe4;" horiz-adv-x="1245" 
d="M433 1182q-33 0 -60 15.5t-42.5 42t-15.5 58.5t15.5 59t42.5 42.5t60 15.5q50 0 84.5 -34t34.5 -83q0 -48 -35 -82t-84 -34zM804 1184q-49 0 -83 33.5t-34 80.5t34 81t82.5 34t82.5 -34t34 -81q0 -23 -9 -44t-24.5 -36.5t-37 -24.5t-45.5 -9zM932 997h166v-997h-159v158
h-3q-61 -82 -150.5 -126.5t-198.5 -44.5q-102 0 -192 36.5t-155.5 101.5t-103.5 160t-38 207q0 146 62.5 264t174.5 185.5t251 67.5q103 0 191.5 -41t150.5 -119h4v148zM603 139q67 0 128 25.5t107 71t73 112t27 143.5q0 76 -25.5 143.5t-69.5 116.5t-106 77.5t-132 28.5
q-145 0 -241.5 -101t-96.5 -265q0 -153 93 -252.5t243 -99.5z" />
    <glyph glyph-name="aring" unicode="&#xe5;" horiz-adv-x="1245" 
d="M618 1101q-81 0 -139.5 56.5t-58.5 137.5q0 52 25.5 96.5t71.5 71t101 26.5q82 0 140.5 -56t58.5 -138q0 -52 -25.5 -96.5t-71.5 -71t-102 -26.5zM619 1384q-24 0 -44.5 -12t-32 -32.5t-11.5 -43.5q0 -36 25.5 -61t62.5 -25q36 0 62 25.5t26 61.5q0 35 -26 61t-62 26z
M932 997h166v-997h-159v158h-3q-61 -82 -150.5 -126.5t-198.5 -44.5q-102 0 -192 36.5t-155.5 101.5t-103.5 160t-38 207q0 146 62.5 264t174.5 185.5t251 67.5q103 0 191.5 -41t150.5 -119h4v148zM603 139q67 0 128 25.5t107 71t73 112t27 143.5q0 76 -25.5 143.5
t-69.5 116.5t-106 77.5t-132 28.5q-145 0 -241.5 -101t-96.5 -265q0 -153 93 -252.5t243 -99.5z" />
    <glyph glyph-name="ae" unicode="&#xe6;" horiz-adv-x="1606" 
d="M1554 514q0 -30 -5 -67h-706q14 -137 96.5 -222.5t204.5 -85.5q72 0 137 36.5t114 97.5l117 -98q-68 -87 -164 -137.5t-211 -50.5q-112 0 -204 54.5t-147 149.5h-3q-44 -89 -141.5 -146.5t-230.5 -57.5q-86 0 -153.5 23.5t-108.5 64.5t-62 94.5t-21 116.5q0 68 23.5 123
t69 95t117.5 62t164 22l244 1l-1 24q0 135 -43.5 189.5t-140.5 54.5q-149 0 -290 -74l-65 133q64 37 159 65t207 28q111 0 181.5 -44t104.5 -138h4q58 86 146 134t196 48q118 0 212.5 -64t147 -177t52.5 -254zM1131 857q-108 0 -184.5 -73t-98.5 -196h541q-20 122 -90 195.5
t-168 73.5zM424 138q67 0 127.5 29t97.5 77.5t40 102.5l-2 102l-233 -1q-66 -1 -115.5 -17.5t-78 -51.5t-28.5 -86q0 -65 50 -110t142 -45z" />
    <glyph glyph-name="ccedilla" unicode="&#xe7;" horiz-adv-x="1070" 
d="M624 -12l-25 -52l2 -3q54 -3 94.5 -22t63 -55t22.5 -85q0 -69 -55.5 -112.5t-164.5 -43.5q-52 0 -114 12v90q45 -14 99 -14q48 0 81.5 19.5t33.5 56.5q0 23 -18.5 42t-58 31.5t-93.5 12.5v62l28 59v5q-188 24 -305 162.5t-117 343.5q0 149 63.5 266t177 182t258.5 65
q115 0 222.5 -46t179.5 -132l-115 -100q-48 58 -120.5 91.5t-158.5 33.5q-150 0 -244.5 -100t-94.5 -259t94.5 -258.5t244.5 -99.5q85 0 160 32.5t123 86.5l115 -103q-40 -45 -96 -81t-129.5 -59.5t-152.5 -27.5z" />
    <glyph glyph-name="egrave" unicode="&#xe8;" horiz-adv-x="1130" 
d="M730 1141h-175l-254 290l189 -1zM1037 514q0 -38 -5 -68h-766q16 -139 107 -222.5t225 -83.5q89 0 160.5 36.5t120.5 97.5l116 -99q-67 -87 -169.5 -137.5t-233.5 -50.5q-105 0 -196.5 37.5t-157.5 103.5t-104 162t-38 208q0 111 37 206.5t100.5 162t151.5 104.5t188 38
q137 0 243 -64t163.5 -176.5t57.5 -254.5zM582 856q-118 0 -203.5 -73.5t-108.5 -198.5h602q-20 124 -96.5 198t-193.5 74z" />
    <glyph glyph-name="eacute" unicode="&#xe9;" horiz-adv-x="1130" 
d="M914 1431l-255 -290h-174l240 289zM1037 514q0 -38 -5 -68h-766q16 -139 107 -222.5t225 -83.5q89 0 160 36.5t121 97.5l116 -99q-67 -87 -169.5 -137.5t-233.5 -50.5q-105 0 -196.5 37.5t-157.5 103.5t-104 162t-38 208q0 111 37 206.5t100.5 162t151.5 104.5t188 38
q137 0 243 -64t163.5 -176.5t57.5 -254.5zM582 856q-118 0 -203.5 -73.5t-108.5 -198.5h602q-20 124 -96.5 198t-193.5 74z" />
    <glyph glyph-name="ecircumflex" unicode="&#xea;" horiz-adv-x="1130" 
d="M584 1321l-147 -183h-168l238 293h153l245 -293h-169l-148 183h-4zM1037 514q0 -38 -5 -68h-766q16 -139 107 -222.5t225 -83.5q89 0 160 36.5t121 97.5l116 -99q-67 -87 -169.5 -137.5t-233.5 -50.5q-105 0 -196.5 37.5t-157.5 103.5t-104 162t-38 208q0 111 37 206.5
t100.5 162t151.5 104.5t188 38q137 0 243 -64t163.5 -176.5t57.5 -254.5zM582 856q-118 0 -203.5 -73.5t-108.5 -198.5h602q-20 124 -96.5 198t-193.5 74z" />
    <glyph glyph-name="edieresis" unicode="&#xeb;" horiz-adv-x="1130" 
d="M402 1182q-50 0 -84 34t-34 82q0 49 34 83t84 34q32 0 59.5 -15.5t43.5 -42.5t16 -59q0 -48 -35 -82t-84 -34zM773 1184q-32 0 -59 15t-42.5 41.5t-15.5 57.5q0 47 34 81t82.5 34t82.5 -34t34 -81t-33.5 -80.5t-82.5 -33.5zM1037 514q0 -38 -5 -68h-766
q16 -139 107 -222.5t225 -83.5q89 0 160 36.5t121 97.5l116 -99q-67 -87 -169.5 -137.5t-233.5 -50.5q-105 0 -196.5 37.5t-157.5 103.5t-104 162t-38 208q0 111 37 206.5t100.5 162t151.5 104.5t188 38q137 0 243 -64t163.5 -176.5t57.5 -254.5zM582 856
q-118 0 -203.5 -73.5t-108.5 -198.5h602q-20 124 -96.5 198t-193.5 74z" />
    <glyph glyph-name="igrave" unicode="&#xec;" horiz-adv-x="512" 
d="M165 1141l-185 290l187 -1l171 -289h-173zM173 0v997h165v-997h-165z" />
    <glyph glyph-name="iacute" unicode="&#xed;" horiz-adv-x="512" 
d="M179 1141l240 289l189 1l-255 -290h-174zM173 0v997h165v-997h-165z" />
    <glyph glyph-name="icircumflex" unicode="&#xee;" horiz-adv-x="512" 
d="M329 1431l245 -293h-169l-148 183h-4l-147 -183h-168l238 293h153zM173 0v997h165v-997h-165z" />
    <glyph glyph-name="idieresis" unicode="&#xef;" horiz-adv-x="512" 
d="M90 1182q-50 0 -84 34t-34 82q0 49 34 83t84 34t84.5 -34t34.5 -83q0 -48 -35 -82t-84 -34zM422 1184q-49 0 -83 33.5t-34 80.5t34 81t82.5 34t82.5 -34t34 -81t-33.5 -80.5t-82.5 -33.5zM173 0v997h165v-997h-165z" />
    <glyph glyph-name="eth" unicode="&#xf0;" horiz-adv-x="1217" 
d="M1119 513v-5q0 -148 -64.5 -266.5t-182 -186.5t-267.5 -68q-105 0 -198.5 37t-161.5 101.5t-107.5 157t-39.5 198.5q0 110 37 204.5t102 160t155.5 102.5t194.5 37q158 0 282 -89l2 2q-100 206 -302 346l-149 -116l-76 86l119 94q-88 46 -180 77l80 131q125 -43 230 -106
l143 113l76 -91l-116 -90q130 -97 223.5 -222t146.5 -281t53 -326zM607 139q99 0 177.5 47t121 127t42.5 178q0 148 -98 245t-245 97q-97 0 -175.5 -46.5t-121 -124.5t-42.5 -171q0 -101 45.5 -182t123 -125.5t172.5 -44.5z" />
    <glyph glyph-name="ntilde" unicode="&#xf1;" horiz-adv-x="1188" 
d="M463 1272q-80 0 -122 -112l-107 47q30 95 83.5 148.5t128.5 53.5q26 0 49 -4.5t46 -15.5t35.5 -18t36.5 -22l21 -14q15 -10 22 -14.5t20 -12t22 -10.5t21.5 -6t23.5 -3q37 0 68.5 29t50.5 84l105 -36q-28 -101 -82 -157.5t-123 -56.5q-33 0 -68.5 12.5t-55.5 24.5t-55 35
q-39 24 -66 36t-54 12zM689 1009q167 0 262.5 -105t95.5 -313v-592h-166v546q0 86 -17 147t-50.5 97t-76.5 52t-100 16q-142 0 -227.5 -96.5t-85.5 -262.5v-498h-166v997h166v-172h3q62 89 156 136.5t206 47.5z" />
    <glyph glyph-name="ograve" unicode="&#xf2;" horiz-adv-x="1222" 
d="M560 1141l-254 290l189 -1l240 -289h-175zM612 -13q-114 0 -211 39.5t-163.5 108t-104 162t-37.5 200.5t37.5 201.5t104 163t163.5 108t211 39.5q146 0 263 -64t183.5 -181.5t66.5 -266.5q0 -148 -66.5 -265t-183.5 -181t-263 -64zM612 140q95 0 174 45t125 127t46 185
q0 104 -46 186.5t-124.5 127.5t-174.5 45q-102 0 -182 -48t-123 -130t-43 -181q0 -98 43.5 -179.5t123.5 -129.5t181 -48z" />
    <glyph glyph-name="oacute" unicode="&#xf3;" horiz-adv-x="1222" 
d="M519 1141l240 289l189 1l-255 -290h-174zM612 -13q-114 0 -211 39.5t-163.5 108t-104 162t-37.5 200.5t37.5 201.5t104 163t163.5 108t211 39.5q146 0 263 -64t183.5 -181.5t66.5 -266.5q0 -148 -66.5 -265t-183.5 -181t-263 -64zM612 140q95 0 174 45t125 127t46 185
q0 104 -46 186.5t-124.5 127.5t-174.5 45q-102 0 -182 -48t-123 -130t-43 -181q0 -98 43.5 -179.5t123.5 -129.5t181 -48z" />
    <glyph glyph-name="ocircumflex" unicode="&#xf4;" horiz-adv-x="1222" 
d="M608 1321l-147 -183h-168l238 293h153l245 -293h-169l-148 183h-4zM612 1009q146 0 263 -64t183.5 -181.5t66.5 -266.5q0 -148 -66.5 -265t-183.5 -181t-263 -64q-114 0 -211 39.5t-163.5 108t-104 162t-37.5 200.5t37.5 201.5t104 163t163.5 108t211 39.5zM612 140
q95 0 174 45t125 127t46 185q0 104 -46 186.5t-124.5 127.5t-174.5 45q-102 0 -182 -48t-123 -130t-43 -181q0 -98 43.5 -179.5t123.5 -129.5t181 -48z" />
    <glyph glyph-name="otilde" unicode="&#xf5;" horiz-adv-x="1222" 
d="M773 1152q-33 0 -68.5 12.5t-55.5 24.5t-55 35q-39 24 -66 36t-54 12q-80 0 -122 -112l-107 47q30 95 83 148.5t129 53.5q34 0 67 -10.5t50.5 -20t49.5 -29.5l18 -12q12 -8 18.5 -12.5t17.5 -11t19 -10t18 -7.5t19.5 -5.5t19.5 -1.5q37 0 68.5 29t50.5 84l105 -36
q-28 -101 -82 -157.5t-123 -56.5zM612 -13q-114 0 -211 39.5t-163.5 108t-104 162t-37.5 200.5t37.5 201t104 163t163.5 108.5t211 39.5q146 0 263 -64t183.5 -181.5t66.5 -266.5q0 -148 -66.5 -265t-183.5 -181t-263 -64zM612 140q95 0 174 45t125 127t46 185
q0 104 -46 186.5t-124.5 127.5t-174.5 45q-102 0 -182 -48t-123 -130t-43 -181q0 -98 43.5 -179.5t123.5 -129.5t181 -48z" />
    <glyph glyph-name="odieresis" unicode="&#xf6;" horiz-adv-x="1222" 
d="M426 1182q-50 0 -84 34t-34 82q0 49 34 83t84 34t84.5 -34t34.5 -83q0 -48 -35 -82t-84 -34zM797 1184q-49 0 -83 33.5t-34 80.5t34 81t82.5 34t82.5 -34t34 -81t-33.5 -80.5t-82.5 -33.5zM612 -13q-114 0 -211 39.5t-163.5 108t-104 162t-37.5 200.5t37.5 201.5t104 163
t163.5 108t211 39.5q146 0 263 -64t183.5 -181.5t66.5 -266.5q0 -148 -66.5 -265t-183.5 -181t-263 -64zM612 140q95 0 174 45t125 127t46 185q0 104 -46 186.5t-124.5 127.5t-174.5 45q-102 0 -182 -48t-123 -130t-43 -181q0 -98 43.5 -179.5t123.5 -129.5t181 -48z" />
    <glyph glyph-name="divide" unicode="&#xf7;" horiz-adv-x="1189" 
d="M595 845q-33 0 -60.5 16t-43 42.5t-15.5 58.5q0 49 34 83t85 34q49 0 83.5 -34t34.5 -83q0 -48 -34.5 -82.5t-83.5 -34.5zM128 489v155h959v-155h-959zM595 37q-33 0 -60.5 16t-43 42.5t-15.5 58.5q0 49 34 83t85 34q49 0 83.5 -34t34.5 -83q0 -48 -34.5 -82.5
t-83.5 -34.5z" />
    <glyph glyph-name="oslash" unicode="&#xf8;" horiz-adv-x="1222" 
d="M1145 952l-124 -132q104 -136 104 -323q0 -148 -66.5 -265t-183.5 -181t-263 -64q-168 0 -295 83l-109 -117l-96 88l107 114q-123 140 -123 342q0 107 37.5 201.5t104 163t163.5 108t211 39.5q184 0 318 -100l122 130zM264 497q0 -127 70 -220l484 513q-90 66 -206 66
q-102 0 -182 -48t-123 -130t-43 -181zM957 497q0 112 -53 198l-474 -506q81 -49 182 -49q95 0 174 45t125 127t46 185z" />
    <glyph glyph-name="ugrave" unicode="&#xf9;" horiz-adv-x="1156" 
d="M720 1141h-175l-254 290l189 -1zM842 997h166v-997h-166v165h-3q-59 -86 -145 -132t-183 -46q-177 0 -275.5 104t-98.5 312v594h166v-546q0 -166 60 -238.5t183 -72.5q60 0 113.5 25.5t94 72t64.5 118.5t24 158v483z" />
    <glyph glyph-name="uacute" unicode="&#xfa;" horiz-adv-x="1156" 
d="M912 1431l-255 -290h-174l240 289zM842 997h166v-997h-166v165h-3q-59 -86 -145 -132t-183 -46q-177 0 -275.5 104t-98.5 312v594h166v-546q0 -166 60 -238.5t183 -72.5q60 0 113.5 25.5t94 72t64.5 118.5t24 158v483z" />
    <glyph glyph-name="ucircumflex" unicode="&#xfb;" horiz-adv-x="1156" 
d="M571 1321l-147 -183h-168l238 293h153l245 -293h-169l-148 183h-4zM842 997h166v-997h-166v165h-3q-59 -86 -145 -132t-183 -46q-177 0 -275.5 104t-98.5 312v594h166v-546q0 -166 60 -238.5t183 -72.5q60 0 113.5 25.5t94 72t64.5 118.5t24 158v483z" />
    <glyph glyph-name="udieresis" unicode="&#xfc;" horiz-adv-x="1156" 
d="M389 1182q-25 0 -47 9t-37.5 25t-24.5 37t-9 45q0 49 34 83t84 34t84.5 -34t34.5 -83q0 -24 -9.5 -45.5t-25.5 -37t-38 -24.5t-46 -9zM760 1184q-49 0 -83 33.5t-34 80.5t34 81t83 34t82.5 -34t33.5 -81t-33.5 -80.5t-82.5 -33.5zM842 997h166v-997h-166v165h-3
q-59 -86 -145 -132t-183 -46q-177 0 -275.5 104t-98.5 312v594h166v-546q0 -166 60 -238.5t183 -72.5q60 0 113.5 25.5t94 72t64.5 118.5t24 158v483z" />
    <glyph glyph-name="yacute" unicode="&#xfd;" horiz-adv-x="1082" 
d="M849 1431l-255 -290h-174l240 289zM855 997h176l-564 -1402h-176l178 444l-421 958h177l324 -759h5z" />
    <glyph glyph-name="thorn" unicode="&#xfe;" horiz-adv-x="1251" 
d="M668 1009q139 0 251 -67.5t174.5 -185.5t62.5 -264q0 -112 -38 -207t-103.5 -160t-155.5 -101.5t-192 -36.5q-104 0 -191 42t-148 119h-4v-553h-165v1913h166v-658h4q62 77 149.5 118t189.5 41zM651 139q150 0 243 99.5t93 252.5q0 82 -26 151t-71.5 115.5t-107.5 73
t-133 26.5q-69 0 -130.5 -28.5t-105 -77.5t-69 -116.5t-25.5 -143.5q0 -77 27 -143.5t73 -112t106 -71t126 -25.5z" />
    <glyph glyph-name="ydieresis" unicode="&#xff;" horiz-adv-x="1082" 
d="M357 1182q-33 0 -60 15.5t-42.5 42t-15.5 58.5t15.5 59t42.5 42.5t60 15.5q32 0 59.5 -15.5t43.5 -42.5t16 -59q0 -48 -35 -82t-84 -34zM728 1184q-49 0 -83 33.5t-34 80.5t34 81t82.5 34t82.5 -34t34 -81t-33.5 -80.5t-82.5 -33.5zM855 997h176l-564 -1402h-176l178 444
l-421 958h177l324 -759h5z" />
    <glyph glyph-name="Amacron" unicode="&#x100;" horiz-adv-x="1396" 
d="M992 1843v-143h-588v143h588zM1153 0l-130 354h-649l-129 -354h-187l550 1455h179l554 -1455h-188zM431 510h535l-266 727h-4z" />
    <glyph glyph-name="amacron" unicode="&#x101;" horiz-adv-x="1245" 
d="M913 1363v-143h-588v143h588zM932 997h166v-997h-159v158h-3q-61 -81 -150.5 -126t-198.5 -45q-102 0 -192 36.5t-155.5 101.5t-103.5 160t-38 207q0 146 62.5 264t174.5 185.5t251 67.5q103 0 191.5 -41t150.5 -119h4v148zM603 139q67 0 128 25.5t107 71t73 112
t27 143.5q0 76 -25.5 143.5t-69.5 116.5t-106 77.5t-132 28.5q-145 0 -241.5 -101t-96.5 -265q0 -153 93 -252.5t243 -99.5z" />
    <glyph glyph-name="Abreve" unicode="&#x102;" horiz-adv-x="1396" 
d="M698 1615q-118 0 -202.5 76t-93.5 210h134q5 -72 47.5 -118t114.5 -46q70 0 113.5 45.5t47.5 118.5h134q-6 -85 -45 -150.5t-104 -100.5t-146 -35zM1153 0l-130 354h-649l-129 -354h-187l550 1455h179l554 -1455h-188zM431 510h535l-266 727h-4z" />
    <glyph glyph-name="abreve" unicode="&#x103;" horiz-adv-x="1245" 
d="M619 1135q-118 0 -202.5 76t-93.5 210h134q5 -72 47.5 -118t114.5 -46q70 0 113.5 45.5t47.5 118.5h134q-6 -85 -45 -150.5t-104 -100.5t-146 -35zM932 997h166v-997h-159v158h-3q-61 -82 -150.5 -126.5t-198.5 -44.5q-102 0 -192 36.5t-155.5 101.5t-103.5 160t-38 207
q0 146 62.5 264t174.5 185.5t251 67.5q103 0 191.5 -41t150.5 -119h4v148zM603 139q67 0 128 25.5t107 71t73 112t27 143.5q0 76 -25.5 143.5t-69.5 116.5t-106 77.5t-132 28.5q-145 0 -241.5 -101t-96.5 -265q0 -153 93 -252.5t243 -99.5z" />
    <glyph glyph-name="Aogonek" unicode="&#x104;" horiz-adv-x="1396" 
d="M1346 -246l12 -108q-57 -26 -140 -26q-95 0 -150 46t-55 126q0 52 36.5 109.5t102.5 101.5l-129 351h-649l-129 -354h-187l550 1455h179l554 -1455h-27q-74 -23 -119 -72t-45 -101q0 -43 25 -67.5t75 -24.5q26 0 43 2t27.5 5.5t25.5 11.5zM431 510h535l-266 727h-4z" />
    <glyph glyph-name="aogonek" unicode="&#x105;" horiz-adv-x="1245" 
d="M1119 -246l12 -108q-57 -26 -140 -26q-95 0 -150 46t-55 126q0 55 40 115.5t113 104.5v146h-3q-61 -82 -150.5 -126.5t-198.5 -44.5q-102 0 -192 36.5t-155.5 101.5t-103.5 160t-38 207q0 146 62.5 264t174.5 185.5t251 67.5q103 0 191.5 -41t150.5 -119h4v148h166v-997
h-11q-74 -23 -119 -72t-45 -101q0 -43 25 -67.5t75 -24.5q38 0 56 4t40 15zM603 139q67 0 128 25.5t107 71t73 112t27 143.5q0 76 -25.5 143.5t-69.5 116.5t-106 77.5t-132 28.5q-145 0 -241.5 -101t-96.5 -265q0 -153 93 -252.5t243 -99.5z" />
    <glyph glyph-name="Cacute" unicode="&#x106;" horiz-adv-x="1491" 
d="M742 1621l240 289l189 1l-255 -290h-174zM846 -11q-118 0 -226 30t-199 91t-158 147.5t-104.5 205.5t-37.5 258q0 124 30 236.5t91 205.5t147 161t203 106t254 38q103 0 200.5 -28t193.5 -91.5t173 -158.5l-133 -111q-84 105 -196.5 162t-237.5 57q-163 0 -286 -74
t-188 -204.5t-65 -298.5q0 -85 18.5 -161.5t53 -138t83 -111t108 -83t130 -51t146.5 -17.5q258 0 434 217l133 -112q-102 -127 -243.5 -201t-323.5 -74z" />
    <glyph glyph-name="cacute" unicode="&#x107;" horiz-adv-x="1070" 
d="M498 1141l240 289l189 1l-255 -290h-174zM590 -13q-142 0 -254.5 64t-175.5 180.5t-63 265.5t63.5 266t177 182t258.5 65q115 0 222.5 -46t179.5 -132l-115 -100q-48 58 -120.5 91.5t-158.5 33.5q-150 0 -244.5 -100t-94.5 -259t94.5 -258.5t244.5 -99.5q85 0 160 32.5
t123 86.5l115 -103q-67 -75 -175.5 -122t-236.5 -47z" />
    <glyph glyph-name="Ccircumflex" unicode="&#x108;" horiz-adv-x="1491" 
d="M839 1801l-147 -183h-168l238 293h153l245 -293h-169l-148 183h-4zM846 159q258 0 434 217l133 -112q-102 -127 -243.5 -201t-323.5 -74q-118 0 -226 30t-199 91t-158 147.5t-104.5 205.5t-37.5 258q0 124 30 236.5t91 205.5t147 161t203 106t254 38q103 0 200.5 -28
t193.5 -91.5t173 -158.5l-133 -111q-84 105 -196.5 162t-237.5 57q-163 0 -286 -74t-188 -204.5t-65 -298.5q0 -102 26.5 -191t75 -156.5t115 -116t148.5 -73.5t174 -25z" />
    <glyph glyph-name="ccircumflex" unicode="&#x109;" horiz-adv-x="1070" 
d="M605 1321l-147 -183h-168l238 293h153l245 -293h-169l-148 183h-4zM887 259l115 -103q-67 -75 -175.5 -122t-236.5 -47q-106 0 -197.5 37.5t-156.5 104t-102 161.5t-37 207q0 149 63.5 266t177 182t258.5 65q115 0 222.5 -46t179.5 -132l-115 -100q-48 58 -120.5 91.5
t-158.5 33.5q-150 0 -244.5 -100t-94.5 -259t94.5 -258.5t244.5 -99.5q85 0 160 32.5t123 86.5z" />
    <glyph glyph-name="Cdotaccent" unicode="&#x10a;" horiz-adv-x="1491" 
d="M843 1662q-33 0 -60 15.5t-42.5 42t-15.5 58.5q0 49 34 83t84 34q32 0 59 -15.5t43 -42.5t16 -59q0 -48 -34.5 -82t-83.5 -34zM846 -11q-118 0 -226 30t-199 91t-158 147.5t-104.5 205.5t-37.5 258q0 124 30 236.5t91 205.5t147 161t203 106t254 38q103 0 200.5 -28
t193.5 -91.5t173 -158.5l-133 -111q-84 105 -196.5 162t-237.5 57q-163 0 -286 -74t-188 -204.5t-65 -298.5q0 -102 26.5 -191t75 -156.5t115 -116t148.5 -73.5t174 -25q258 0 434 217l133 -112q-102 -127 -243.5 -201t-323.5 -74z" />
    <glyph glyph-name="cdotaccent" unicode="&#x10b;" horiz-adv-x="1070" 
d="M609 1182q-25 0 -47 9t-37.5 25t-24.5 37t-9 45q0 49 34 83t84 34q32 0 59 -15.5t43 -42.5t16 -59q0 -48 -34.5 -82t-83.5 -34zM590 -13q-142 0 -254.5 64t-175.5 180.5t-63 265.5t63.5 266t177 182t258.5 65q115 0 222.5 -46t179.5 -132l-115 -100q-48 58 -120.5 91.5
t-158.5 33.5q-150 0 -244.5 -100t-94.5 -259t94.5 -258.5t244.5 -99.5q85 0 160 32.5t123 86.5l115 -103q-67 -75 -175.5 -122t-236.5 -47z" />
    <glyph glyph-name="Ccaron" unicode="&#x10c;" horiz-adv-x="1491" 
d="M914 1618h-153l-237 293h168l147 -183h4l148 183h169zM846 159q258 0 434 217l133 -112q-102 -127 -243.5 -201t-323.5 -74q-118 0 -226 30t-199 91t-158 147.5t-104.5 205.5t-37.5 258q0 124 30 236.5t91 205.5t146.5 161t203 106t254.5 38q158 0 305.5 -68.5
t261.5 -209.5l-133 -111q-84 105 -196.5 162t-237.5 57q-163 0 -286 -74t-188 -204.5t-65 -298.5q0 -102 26.5 -191t75 -156.5t115 -116t148.5 -73.5t174 -25z" />
    <glyph glyph-name="ccaron" unicode="&#x10d;" horiz-adv-x="1070" 
d="M680 1138h-153l-237 293h168l147 -183h4l148 183h169zM887 259l115 -103q-67 -75 -175.5 -122t-236.5 -47q-106 0 -197.5 37.5t-156.5 104t-102 161.5t-37 207q0 149 63.5 266t177 182t258.5 65q115 0 222.5 -46t179.5 -132l-115 -100q-48 58 -120.5 91.5t-158.5 33.5
q-150 0 -244.5 -100t-94.5 -259t94.5 -258.5t244.5 -99.5q85 0 160 32.5t123 86.5z" />
    <glyph glyph-name="Dcaron" unicode="&#x10e;" horiz-adv-x="1496" 
d="M805 1618h-153l-237 293h168l147 -183h4l148 183h169zM620 1455q170 0 312 -54t239 -150t150.5 -231t53.5 -295q0 -325 -202.5 -525t-546.5 -200h-441v1455h435zM615 162q129 0 237 42t182 116.5t115.5 178.5t41.5 226q0 165 -71 294t-200.5 201.5t-296.5 72.5h-260
v-1131h252z" />
    <glyph glyph-name="dcaron" unicode="&#x10f;" horiz-adv-x="1391" 
d="M1305 1582h165l-101 -378h-121zM926 849v659h166v-1508h-159v158h-3q-40 -54 -92 -92t-116.5 -58.5t-136.5 -20.5q-102 0 -192 36.5t-155.5 101.5t-103.5 160t-38 207q0 146 62.5 264t174.5 185.5t251 67.5q101 0 189 -41t150 -119h3zM601 139q65 0 125.5 25.5t106 71
t72.5 112t27 143.5q0 76 -25.5 143.5t-69 116.5t-104.5 77.5t-130 28.5q-145 0 -241.5 -101t-96.5 -265q0 -153 93 -252.5t243 -99.5z" />
    <glyph glyph-name="Dcroat" unicode="&#x110;" horiz-adv-x="1496" 
d="M620 1455q170 0 312 -54t239 -150t150.5 -231t53.5 -295t-52 -294t-148 -229.5t-237 -148.5t-312 -53h-441v661h-122v157h122v637h435zM615 162q259 0 417.5 157.5t158.5 405.5q0 165 -71 294t-200.5 201.5t-296.5 72.5h-260v-475h307v-157h-307v-499h252z" />
    <glyph glyph-name="dcroat" unicode="&#x111;" horiz-adv-x="1247" 
d="M1233 1295v-133h-141v-1162h-159v158h-3q-60 -81 -149 -126t-196 -45q-102 0 -192 36.5t-155.5 101.5t-103.5 160t-38 207q0 109 37 205t101 164.5t155 108t195 39.5q50 0 98 -10.5t91 -30.5t81 -50t69 -69h3v313h-246v133h246v213h166v-213h141zM601 139
q65 0 125.5 25.5t106 71t72.5 112t27 143.5q0 76 -25.5 143.5t-69 116.5t-104.5 77.5t-130 28.5q-145 0 -241.5 -101t-96.5 -265q0 -153 93 -252.5t243 -99.5z" />
    <glyph glyph-name="Emacron" unicode="&#x112;" horiz-adv-x="1224" 
d="M344 1700v143h588v-143h-588zM185 0v1455h890v-164h-711v-487h584v-164h-584v-476h754v-164h-933z" />
    <glyph glyph-name="emacron" unicode="&#x113;" horiz-adv-x="1130" 
d="M882 1363v-143h-588v143h588zM1037 514q0 -38 -5 -68h-766q16 -139 107 -222.5t225 -83.5q89 0 160 36.5t121 97.5l116 -99q-67 -87 -169.5 -137.5t-233.5 -50.5q-105 0 -196.5 37.5t-157.5 103.5t-104 162t-38 208q0 111 37 206.5t100.5 162t151.5 104.5t188 38
q137 0 243 -64t163.5 -176.5t57.5 -254.5zM582 856q-118 0 -203.5 -73.5t-108.5 -198.5h602q-20 124 -96.5 198t-193.5 74z" />
    <glyph glyph-name="Ebreve" unicode="&#x114;" horiz-adv-x="1224" 
d="M638 1615q-118 0 -202.5 76t-93.5 210h134q5 -72 47.5 -118t114.5 -46q70 0 113.5 45.5t47.5 118.5h134q-9 -129 -90.5 -207.5t-204.5 -78.5zM185 0v1455h890v-164h-711v-487h584v-164h-584v-476h754v-164h-933z" />
    <glyph glyph-name="ebreve" unicode="&#x115;" horiz-adv-x="1130" 
d="M588 1135q-118 0 -202.5 76t-93.5 210h134q5 -72 47.5 -118t114.5 -46q70 0 113.5 45.5t47.5 118.5h134q-9 -129 -90.5 -207.5t-204.5 -78.5zM1037 514q0 -38 -5 -68h-766q16 -139 107 -222.5t225 -83.5q89 0 160 36.5t121 97.5l116 -99q-67 -87 -169.5 -137.5
t-233.5 -50.5q-105 0 -196.5 37.5t-157.5 103.5t-104 162t-38 208q0 111 37 206.5t100.5 162t151.5 104.5t188 38q137 0 243 -64t163.5 -176.5t57.5 -254.5zM582 856q-118 0 -203.5 -73.5t-108.5 -198.5h602q-20 124 -96.5 198t-193.5 74z" />
    <glyph glyph-name="Edotaccent" unicode="&#x116;" horiz-adv-x="1224" 
d="M638 1662q-33 0 -60 15.5t-42.5 42t-15.5 58.5q0 49 34 83t84 34q32 0 59 -15.5t43 -42.5t16 -59q0 -31 -16 -58t-43 -42.5t-59 -15.5zM185 0v1455h890v-164h-711v-487h584v-164h-584v-476h754v-164h-933z" />
    <glyph glyph-name="edotaccent" unicode="&#x117;" horiz-adv-x="1130" 
d="M588 1182q-50 0 -84 34t-34 82q0 49 34 83t84 34q32 0 59 -15.5t43 -42.5t16 -59q0 -48 -34.5 -82t-83.5 -34zM1037 514q0 -38 -5 -68h-766q16 -139 107 -222.5t225 -83.5q89 0 160 36.5t121 97.5l116 -99q-67 -87 -169.5 -137.5t-233.5 -50.5q-105 0 -196.5 37.5
t-157.5 103.5t-104 162t-38 208q0 111 37 206.5t100.5 162t151.5 104.5t188 38q137 0 243 -64t163.5 -176.5t57.5 -254.5zM582 856q-118 0 -203.5 -73.5t-108.5 -198.5h602q-20 124 -96.5 198t-193.5 74z" />
    <glyph glyph-name="Eogonek" unicode="&#x118;" horiz-adv-x="1224" 
d="M1137 -246l12 -108q-57 -26 -140 -26q-63 0 -109 20.5t-71 59.5t-25 92q0 51 34.5 106.5t96.5 99.5v2h-750v1455h890v-164h-711v-487h584v-164h-584v-476h754v-164h-13q-74 -23 -119 -72t-45 -101q0 -43 25 -67.5t75 -24.5q38 0 56 4t40 15z" />
    <glyph glyph-name="eogonek" unicode="&#x119;" horiz-adv-x="1130" 
d="M1037 514q0 -38 -5 -68h-766q16 -139 107 -222.5t225 -83.5q89 0 160.5 36.5t120.5 97.5l116 -99q-97 -128 -257 -170q-79 -33 -124.5 -77t-45.5 -95q0 -38 26 -62t75 -24q37 0 55 4t41 15l11 -113q-52 -26 -139 -26q-104 0 -161 45.5t-57 126.5q0 45 28 95t79 93v4
q-124 14 -221.5 81t-153 178t-55.5 248q0 111 37 206.5t100.5 162t151.5 104.5t188 38q137 0 243 -64t163.5 -176.5t57.5 -254.5zM582 856q-118 0 -203.5 -73.5t-108.5 -198.5h602q-20 124 -96.5 198t-193.5 74z" />
    <glyph glyph-name="Ecaron" unicode="&#x11a;" horiz-adv-x="1224" 
d="M709 1618h-153l-237 293h168l147 -183h4l148 183h169zM364 164h754v-164h-933v1455h890v-164h-711v-487h584v-164h-584v-476z" />
    <glyph glyph-name="ecaron" unicode="&#x11b;" horiz-adv-x="1130" 
d="M659 1138h-153l-237 293h168l147 -183h4l148 183h169zM1037 514q0 -38 -5 -68h-766q16 -139 107 -222.5t225 -83.5q89 0 160 36.5t121 97.5l116 -99q-67 -87 -169.5 -137.5t-233.5 -50.5q-105 0 -196.5 37.5t-157.5 103.5t-104 162t-38 208q0 111 37 206.5t100.5 162
t151.5 104.5t188 38q137 0 243 -64t163.5 -176.5t57.5 -254.5zM582 856q-118 0 -203.5 -73.5t-108.5 -198.5h602q-20 124 -96.5 198t-193.5 74z" />
    <glyph glyph-name="Gcircumflex" unicode="&#x11c;" horiz-adv-x="1563" 
d="M831 1801l-147 -183h-168l238 293h153l245 -293h-169l-148 183h-4zM813 750h600v-575q-103 -88 -251 -137t-315 -49q-156 0 -289.5 52t-230 146.5t-151.5 233t-55 304.5q0 160 51.5 297.5t144 236t228 154t296.5 55.5q156 0 300 -56t255 -172l-127 -110
q-173 168 -429 168q-114 0 -212.5 -41t-169 -114.5t-111 -181.5t-40.5 -236q0 -163 66.5 -292.5t190 -203t283.5 -73.5q237 0 388 111v319h-422v164z" />
    <glyph glyph-name="gcircumflex" unicode="&#x11d;" horiz-adv-x="1227" 
d="M581 1321l-147 -183h-168l238 293h153l245 -293h-169l-148 183h-4zM915 997h165v-922q0 -110 -28.5 -198.5t-86 -155t-153 -102.5t-222.5 -36q-228 0 -406 108l40 153q94 -54 176 -79.5t182 -25.5q82 0 147 23t106 63t62 92.5t21 114.5v139h-5q-125 -152 -338 -152
q-99 0 -187 35.5t-153.5 99t-103.5 157t-38 202.5q0 139 61.5 252.5t170 178.5t242.5 65q67 0 129 -17t117 -51t98 -82h4v138zM588 174q149 0 241 97.5t92 248.5q0 149 -95 242t-238 93q-142 0 -234 -96t-92 -241q0 -62 16.5 -117t46.5 -96t70.5 -71t90 -45t102.5 -15z" />
    <glyph glyph-name="Gbreve" unicode="&#x11e;" horiz-adv-x="1563" 
d="M835 1615q-118 0 -202.5 76t-93.5 210h134q5 -72 47.5 -118t114.5 -46q70 0 113.5 45.5t47.5 118.5h134q-9 -129 -90.5 -207.5t-204.5 -78.5zM813 750h600v-575q-103 -88 -251 -137t-315 -49q-156 0 -289.5 52t-230 146.5t-151.5 233t-55 304.5q0 160 51.5 297.5t144 236
t228 154t296.5 55.5q156 0 300 -56t255 -172l-127 -110q-173 168 -429 168q-114 0 -212.5 -41t-169 -114.5t-111 -181.5t-40.5 -236q0 -163 66.5 -292.5t190 -203t283.5 -73.5q237 0 388 111v319h-422v164z" />
    <glyph glyph-name="gbreve" unicode="&#x11f;" horiz-adv-x="1227" 
d="M585 1135q-118 0 -202.5 76t-93.5 210h134q5 -72 47.5 -118t114.5 -46q70 0 113.5 45.5t47.5 118.5h134q-6 -85 -45 -150.5t-104 -100.5t-146 -35zM915 997h165v-922q0 -110 -28.5 -198.5t-86 -155t-153 -102.5t-222.5 -36q-228 0 -406 108l40 153q94 -54 176 -79.5
t182 -25.5q82 0 147 23t106 63t62 92.5t21 114.5v139h-5q-125 -152 -338 -152q-99 0 -187 35.5t-153.5 99t-103.5 157t-38 202.5q0 139 61.5 252.5t170 178.5t242.5 65q101 0 190.5 -38.5t153.5 -111.5h4v138zM588 174q149 0 241 97.5t92 248.5q0 149 -95 242t-238 93
q-142 0 -234 -96t-92 -241q0 -62 16.5 -117t46.5 -96t70.5 -71t89.5 -45t103 -15z" />
    <glyph glyph-name="Gdotaccent" unicode="&#x120;" horiz-adv-x="1563" 
d="M835 1662q-33 0 -60 15.5t-42.5 42t-15.5 58.5t15.5 59t42.5 42.5t60 15.5q32 0 59 -15.5t43 -42.5t16 -59q0 -31 -16 -58t-43 -42.5t-59 -15.5zM813 750h600v-575q-103 -88 -251 -137t-315 -49q-156 0 -289.5 52t-230 146.5t-151.5 233t-55 304.5q0 160 51.5 297.5
t144 236t228 154t296.5 55.5q156 0 300 -56t255 -172l-127 -110q-173 168 -429 168q-114 0 -212.5 -41t-169 -114.5t-111 -181.5t-40.5 -236q0 -163 66.5 -292.5t190 -203t283.5 -73.5q237 0 388 111v319h-422v164z" />
    <glyph glyph-name="gdotaccent" unicode="&#x121;" horiz-adv-x="1227" 
d="M585 1182q-25 0 -47 9t-37.5 25t-24.5 37t-9 45q0 49 34 83t84 34q32 0 59 -15.5t43 -42.5t16 -59q0 -48 -34.5 -82t-83.5 -34zM915 997h165v-922q0 -110 -28.5 -198.5t-86 -155t-153 -102.5t-222.5 -36q-228 0 -406 108l40 153q94 -54 176 -79.5t182 -25.5q82 0 147 23
t106 63t62 92.5t21 114.5v139h-5q-125 -152 -338 -152q-99 0 -187 35.5t-153.5 99t-103.5 157t-38 202.5q0 139 61.5 252.5t170 178.5t242.5 65q101 0 190.5 -38.5t153.5 -111.5h4v138zM588 174q149 0 241 97.5t92 248.5q0 149 -95 242t-238 93q-142 0 -234 -96t-92 -241
q0 -62 16.5 -117t46.5 -96t70.5 -71t90 -45t102.5 -15z" />
    <glyph glyph-name="Gcommaaccent" unicode="&#x122;" horiz-adv-x="1563" 
d="M813 750h600v-575q-103 -88 -251 -137t-315 -49q-156 0 -289.5 52t-230 146.5t-151.5 233t-55 304.5q0 160 51.5 297.5t144 236t228 154t296.5 55.5q156 0 300 -56t255 -172l-127 -110q-173 168 -429 168q-114 0 -212.5 -41t-169 -114.5t-111 -181.5t-40.5 -236
q0 -163 66.5 -292.5t190 -203t283.5 -73.5q237 0 388 111v319h-422v164zM758 -109h152q9 -42 9 -103q0 -98 -62.5 -156t-168.5 -67l-41 101q68 15 95.5 47t27.5 85q0 39 -12 93z" />
    <glyph glyph-name="gcommaaccent" unicode="&#x123;" horiz-adv-x="1227" 
d="M675 1138h-152q-9 42 -9 103q0 98 62.5 156t168.5 67l41 -101q-46 -10 -74 -29t-38.5 -43.5t-10.5 -59.5q0 -39 12 -93zM915 997h165v-922q0 -110 -28.5 -198.5t-86 -155t-153 -102.5t-222.5 -36q-228 0 -406 108l40 153q94 -54 176 -79.5t182 -25.5q82 0 147 23t106 63
t62 92.5t21 114.5v139h-5q-125 -152 -338 -152q-99 0 -187 35.5t-153.5 99t-103.5 157t-38 202.5q0 139 61.5 252.5t170 178.5t242.5 65q101 0 190.5 -38.5t153.5 -111.5h4v138zM588 174q149 0 241 97.5t92 248.5q0 149 -95 242t-238 93q-142 0 -234 -96t-92 -241
q0 -62 16.5 -117t46.5 -96t70.5 -71t89.5 -45t103 -15z" />
    <glyph glyph-name="Hcircumflex" unicode="&#x124;" horiz-adv-x="1487" 
d="M743 1801l-147 -183h-168l238 293h153l245 -293h-169l-148 183h-4zM1124 1455h178v-1455h-178v609h-761v-609h-178v1455h178v-682h761v682z" />
    <glyph glyph-name="hcircumflex" unicode="&#x125;" horiz-adv-x="1197" 
d="M475 1823l-147 -183h-168l238 293h153l245 -293h-169l-148 183h-4zM695 1009q169 0 265.5 -102.5t96.5 -308.5v-599h-166v552q0 306 -244 306q-150 0 -236.5 -94t-86.5 -261v-502h-166v1508h166v-673h4q31 42 71 75t87 55t99.5 33t109.5 11z" />
    <glyph glyph-name="Hbar" unicode="&#x126;" horiz-adv-x="1486" 
d="M1427 1196v-140h-125v-1056h-178v609h-761v-609h-178v1056h-122v140h122v259h178v-259h761v259h178v-259h125zM1124 773v283h-761v-283h761z" />
    <glyph glyph-name="hbar" unicode="&#x127;" horiz-adv-x="1197" 
d="M695 1009q169 0 265.5 -102.5t96.5 -308.5v-599h-166v552q0 306 -244 306q-150 0 -236.5 -94t-86.5 -261v-502h-166v1162h-143v133h143v213h166v-213h244v-133h-244v-327h4q31 42 71 75t87 55t99.5 33t109.5 11z" />
    <glyph glyph-name="Itilde" unicode="&#x128;" horiz-adv-x="569" 
d="M443 1632q-25 0 -49.5 5.5t-49 18.5t-39.5 22t-41 26q-39 24 -66 36t-54 12q-40 0 -71 -29t-51 -83l-107 47q30 95 83.5 148.5t128.5 53.5q34 0 67 -10.5t50.5 -20t49.5 -29.5l21 -14q15 -10 22 -14.5t20 -12t22 -10.5t21.5 -6t23.5 -3q25 0 47 12.5t40.5 38t31.5 62.5
l105 -36q-28 -101 -82 -157.5t-123 -56.5zM195 0v1455h179v-1455h-179z" />
    <glyph glyph-name="itilde" unicode="&#x129;" horiz-adv-x="512" 
d="M418 1152q-25 0 -49.5 5.5t-49 18.5t-39.5 22t-41 26q-6 4 -17 11t-16.5 10t-14.5 8.5t-15.5 8t-15 5.5t-17.5 4t-18 1q-31 0 -60 -30t-48 -82l-107 47q29 94 81 148t117 54q14 0 27 -1.5t22.5 -3.5t22 -7t19 -7t19.5 -9.5t16.5 -9.5t18 -11.5t16.5 -10.5l18 -12
q12 -8 18.5 -12.5t17.5 -11t19 -10t18 -7.5t19.5 -5.5t19.5 -1.5q37 0 68.5 29t50.5 84l105 -36q-28 -101 -82 -157.5t-123 -56.5zM173 0v997h165v-997h-165z" />
    <glyph glyph-name="Imacron" unicode="&#x12a;" horiz-adv-x="569" 
d="M-12 1700v143h588v-143h-588zM195 0v1455h179v-1455h-179z" />
    <glyph glyph-name="imacron" unicode="&#x12b;" horiz-adv-x="512" 
d="M-37 1220v143h588v-143h-588zM173 0v997h165v-997h-165z" />
    <glyph glyph-name="Ibreve" unicode="&#x12c;" horiz-adv-x="569" 
d="M282 1615q-118 0 -202.5 76t-93.5 210h134q5 -72 47.5 -118t114.5 -46q70 0 113.5 45.5t47.5 118.5h134q-9 -129 -90.5 -207.5t-204.5 -78.5zM195 0v1455h179v-1455h-179z" />
    <glyph glyph-name="ibreve" unicode="&#x12d;" horiz-adv-x="512" 
d="M257 1135q-112 0 -186.5 75.5t-83.5 210.5h134q4 -74 38.5 -119t97.5 -45q41 0 71 21t45.5 57.5t17.5 85.5h135q-9 -131 -80.5 -208.5t-188.5 -77.5zM173 0v997h165v-997h-165z" />
    <glyph glyph-name="Iogonek" unicode="&#x12e;" horiz-adv-x="569" 
d="M383 -246l12 -108q-57 -26 -140 -26q-63 0 -109 20.5t-71 59.5t-25 92q0 54 38 112.5t107 102.5v1448h179v-1455h-23q-49 -15 -87 -43t-57.5 -62t-19.5 -68q0 -43 25 -67.5t75 -24.5q38 0 56 4t40 15z" />
    <glyph glyph-name="iogonek" unicode="&#x12f;" horiz-adv-x="512" 
d="M257 1182q-50 0 -84 34t-34 82q0 49 34 83t84 34q32 0 59 -15.5t43 -42.5t16 -59q0 -48 -34.5 -82t-83.5 -34zM264 -265q38 0 56 4t40 15l12 -108q-57 -26 -140 -26q-63 0 -109 20.5t-71 59.5t-25 92q0 54 38.5 113t107.5 103v989h165v-997h-10q-74 -23 -119 -72
t-45 -101q0 -43 25 -67.5t75 -24.5z" />
    <glyph glyph-name="Idotaccent" unicode="&#x130;" horiz-adv-x="569" 
d="M282 1662q-33 0 -60 15.5t-42.5 42t-15.5 58.5q0 49 34 83t84 34q32 0 59 -15.5t43 -42.5t16 -59q0 -48 -34.5 -82t-83.5 -34zM195 0v1455h179v-1455h-179z" />
    <glyph glyph-name="dotlessi" unicode="&#x131;" horiz-adv-x="512" 
d="M173 0v997h165v-997h-165z" />
    <glyph glyph-name="IJ" unicode="&#x132;" horiz-adv-x="1587" 
d="M195 0v1455h179v-1455h-179zM1016 -11q-102 0 -206 48t-176 138l100 131q57 -64 130 -105t146 -41q238 0 238 318v977h178v-982q0 -239 -99 -361.5t-311 -122.5z" />
    <glyph glyph-name="ij" unicode="&#x133;" horiz-adv-x="978" 
d="M257 1182q-50 0 -84 34t-34 82q0 49 34 83t84 34q32 0 59 -15.5t43 -42.5t16 -59q0 -48 -34.5 -82t-83.5 -34zM752 1182q-50 0 -84 34t-34 82q0 32 15.5 59t42.5 42.5t60 15.5q32 0 59 -15.5t43 -42.5t16 -59q0 -31 -16 -58t-43 -42.5t-59 -15.5zM173 0v997h165v-997
h-165zM580 -418q-94 0 -172 34l27 147q49 -30 103 -30q59 0 94.5 40t35.5 122v1102h166v-1102q0 -146 -68 -229.5t-186 -83.5z" />
    <glyph glyph-name="Jcircumflex" unicode="&#x134;" horiz-adv-x="1018" 
d="M839 1911l245 -293h-169l-148 183h-4l-147 -183h-168l238 293h153zM679 478v977h178v-982q0 -239 -99 -361.5t-311 -122.5q-102 0 -206 48t-176 138l100 131q57 -65 130 -105.5t146 -40.5q238 0 238 318z" />
    <glyph glyph-name="jcircumflex" unicode="&#x135;" horiz-adv-x="466" 
d="M312 1431l245 -293h-169l-148 183h-4l-147 -183h-168l238 293h153zM156 -105v1102h166v-1102q0 -146 -68 -229.5t-186 -83.5q-94 0 -172 34l27 147q49 -30 103 -30q59 0 94.5 40t35.5 122z" />
    <glyph glyph-name="Kcommaaccent" unicode="&#x136;" horiz-adv-x="1332" 
d="M693 792l578 -792h-223l-473 649h-3l-209 -246v-403h-178v1455h178v-799h4l661 799h228zM601 -109h152q9 -42 9 -103q0 -98 -62.5 -156t-168.5 -67l-41 101q68 15 95.5 47t27.5 85q0 39 -12 93z" />
    <glyph glyph-name="kcommaaccent" unicode="&#x137;" horiz-adv-x="1066" 
d="M647 584l374 -584h-189l-296 457h-3l-209 -232v-225h-165v1508h165v-1055h3l491 544h201zM486 -109h152q9 -42 9 -103q0 -98 -62.5 -156t-168.5 -67l-41 101q68 15 95.5 47t27.5 85q0 39 -12 93z" />
    <glyph glyph-name="kgreenlandic" unicode="&#x138;" horiz-adv-x="1068" 
d="M536 457h-3l-209 -232v-225h-165v997h165v-544h4l491 544h201l-372 -413l375 -584h-191z" />
    <glyph glyph-name="Lacute" unicode="&#x139;" horiz-adv-x="1151" 
d="M398 1621l240 289l189 1l-255 -290h-174zM185 0v1455h178v-1291h720v-164h-898z" />
    <glyph glyph-name="lacute" unicode="&#x13a;" horiz-adv-x="511" 
d="M172 1649l240 289l189 1l-255 -290h-174zM173 0v1508h165v-1508h-165z" />
    <glyph glyph-name="Lcommaaccent" unicode="&#x13b;" horiz-adv-x="1151" 
d="M185 0v1455h178v-1291h720v-164h-898zM474 -435l-41 101q68 15 95.5 47t27.5 85q0 39 -12 93h152q9 -42 9 -103q0 -66 -29.5 -114.5t-81 -75.5t-120.5 -33z" />
    <glyph glyph-name="lcommaaccent" unicode="&#x13c;" horiz-adv-x="511" 
d="M173 0v1508h165v-1508h-165zM106 -435l-41 101q68 15 95.5 47t27.5 85q0 39 -12 93h152q9 -42 9 -103q0 -98 -62.5 -156t-168.5 -67z" />
    <glyph glyph-name="Lcaron" unicode="&#x13d;" horiz-adv-x="1151" 
d="M627 1204l58 378h164l-100 -378h-122zM185 0v1455h178v-1291h720v-164h-898z" />
    <glyph glyph-name="lcaron" unicode="&#x13e;" horiz-adv-x="636" 
d="M494 1204l57 378h164l-100 -378h-121zM173 0v1508h165v-1508h-165z" />
    <glyph glyph-name="Ldot" unicode="&#x13f;" horiz-adv-x="1151" 
d="M185 0v1455h178v-1291h720v-164h-898zM861 575q-33 0 -60.5 15.5t-43 42t-15.5 58.5q0 49 34.5 83t84.5 34q32 0 59 -15.5t43 -42.5t16 -59q0 -48 -34.5 -82t-83.5 -34z" />
    <glyph glyph-name="ldot" unicode="&#x140;" horiz-adv-x="771" 
d="M173 0v1508h165v-1508h-165zM635 400q-50 0 -84.5 34t-34.5 82q0 49 34.5 83t84.5 34q49 0 83.5 -34t34.5 -83q0 -31 -16 -58t-43 -42.5t-59 -15.5z" />
    <glyph glyph-name="Lslash" unicode="&#x141;" horiz-adv-x="1179" 
d="M391 164h720v-164h-898v584l-165 -78v150l165 78v721h178v-636l181 86v-152l-181 -85v-504z" />
    <glyph glyph-name="lslash" unicode="&#x142;" horiz-adv-x="548" 
d="M494 845v-159l-130 -61v-625h-165v548l-136 -63v159l136 63v801h165v-724z" />
    <glyph glyph-name="Nacute" unicode="&#x143;" horiz-adv-x="1548" 
d="M1020 1911l-255 -290h-174l240 289zM1185 1455h178v-1455h-181l-815 1147h-4v-1147h-178v1455h176l820 -1159h4v1159z" />
    <glyph glyph-name="nacute" unicode="&#x144;" horiz-adv-x="1188" 
d="M899 1431l-255 -290h-174l240 289zM689 1009q167 0 262.5 -105t95.5 -313v-592h-166v546q0 86 -17 147t-50.5 97t-76.5 52t-100 16q-142 0 -227.5 -96.5t-85.5 -262.5v-498h-166v997h166v-172h3q62 89 156 136.5t206 47.5z" />
    <glyph glyph-name="Ncommaaccent" unicode="&#x145;" horiz-adv-x="1548" 
d="M1185 1455h178v-1455h-181l-815 1147h-4v-1147h-178v1455h176l820 -1159h4v1159zM692 -109h152q9 -42 9 -103q0 -98 -62.5 -156t-168.5 -67l-41 101q68 15 95.5 47t27.5 85q0 39 -12 93z" />
    <glyph glyph-name="ncommaaccent" unicode="&#x146;" horiz-adv-x="1188" 
d="M689 1009q167 0 262.5 -105t95.5 -313v-592h-166v546q0 86 -17.5 147t-50.5 97t-76 52t-100 16q-142 0 -227.5 -96.5t-85.5 -262.5v-498h-166v997h166v-172h3q62 89 156 136.5t206 47.5zM522 -109h152q9 -42 9 -103q0 -49 -17 -89.5t-47.5 -68t-72.5 -44t-94 -21.5
l-41 101q68 15 95.5 47t27.5 85q0 39 -12 93z" />
    <glyph glyph-name="Ncaron" unicode="&#x147;" horiz-adv-x="1548" 
d="M844 1618h-153l-237 293h168l147 -183h4l148 183h169zM1185 1455h178v-1455h-181l-815 1147h-4v-1147h-178v1455h176l820 -1159h4v1159z" />
    <glyph glyph-name="ncaron" unicode="&#x148;" horiz-adv-x="1188" 
d="M672 1138h-153l-237 293h168l147 -183h4l148 183h169zM689 1009q167 0 262.5 -105t95.5 -313v-592h-166v546q0 86 -17.5 147t-50.5 97t-76 52t-100 16q-142 0 -227.5 -96.5t-85.5 -262.5v-498h-166v997h166v-172h3q62 89 156 136.5t206 47.5z" />
    <glyph glyph-name="napostrophe" unicode="&#x149;" horiz-adv-x="1334" 
d="M11 1057l57 398h164l-100 -398h-121zM835 1009q82 0 147 -25.5t112.5 -76t73 -131t25.5 -185.5v-592h-166v546q0 69 -11.5 122t-32 89t-51.5 58.5t-67.5 32.5t-81.5 10q-94 0 -164.5 -42.5t-109.5 -124.5t-39 -192v-498h-166v997h166v-172h3q62 89 156 136.5t206 47.5z
" />
    <glyph glyph-name="Eng" unicode="&#x14a;" horiz-adv-x="1548" 
d="M1185 1455h178v-1560q0 -147 -70 -230t-197 -83q-90 0 -172 34l27 141q49 -31 104 -31q38 0 66.5 18t46 55.5t17.5 89.5v108l-819 1151h-3v-1148h-178v1455h174l822 -1160h4v1160z" />
    <glyph glyph-name="eng" unicode="&#x14b;" horiz-adv-x="1157" 
d="M671 1009q112 0 189 -46.5t117 -140.5t40 -234v-693q0 -146 -67.5 -229.5t-186.5 -83.5q-94 0 -172 34l27 141q50 -31 104 -31q58 0 94 42.5t36 120.5v647q0 171 -55.5 246t-178.5 75q-58 0 -111 -25.5t-94 -71t-65 -114.5t-24 -151v-495h-166v997h166v-170h4
q30 42 71.5 77t86.5 57.5t92.5 35t92.5 12.5z" />
    <glyph glyph-name="Omacron" unicode="&#x14c;" horiz-adv-x="1697" 
d="M557 1700v143h588v-143h-588zM851 -13q-160 0 -297 57t-231.5 156t-148 235.5t-53.5 292.5t53.5 292.5t148 235t231.5 155.5t297 57q152 0 286 -54t230.5 -149.5t152.5 -234.5t56 -302t-56 -302t-152.5 -235t-230.5 -150t-286 -54zM851 157q112 0 211.5 42.5t172 117
t114.5 181.5t42 230t-42 230t-114.5 181.5t-172 116.5t-211.5 42q-95 0 -180.5 -29t-151.5 -81.5t-114 -123t-73.5 -156.5t-25.5 -180q0 -118 40 -222.5t110.5 -181.5t173 -122t221.5 -45z" />
    <glyph glyph-name="omacron" unicode="&#x14d;" horiz-adv-x="1222" 
d="M318 1220v143h588v-143h-588zM612 -13q-114 0 -211 39.5t-163.5 108t-104 162t-37.5 200.5t37.5 201.5t104 163t163.5 108t211 39.5q146 0 263 -64t183.5 -181.5t66.5 -266.5q0 -148 -66.5 -265t-183.5 -181t-263 -64zM612 140q95 0 174 45t125 127t46 185
q0 104 -46 186.5t-124.5 127.5t-174.5 45q-102 0 -182 -48t-123 -130t-43 -181q0 -98 43.5 -179.5t123.5 -129.5t181 -48z" />
    <glyph glyph-name="Obreve" unicode="&#x14e;" horiz-adv-x="1697" 
d="M851 1615q-118 0 -202.5 76t-93.5 210h134q5 -72 47.5 -118t114.5 -46q70 0 113.5 45.5t47.5 118.5h134q-9 -129 -90.5 -207.5t-204.5 -78.5zM851 -13q-160 0 -297 57t-231.5 156t-148 235.5t-53.5 292.5t53.5 292.5t148 235t231.5 155.5t297 57q152 0 286 -54
t230.5 -149.5t152.5 -234.5t56 -302t-56 -302t-152.5 -235t-230.5 -150t-286 -54zM851 157q112 0 211.5 42.5t171.5 117t114.5 181.5t42.5 230t-42 230t-114.5 181.5t-172 116.5t-211.5 42q-95 0 -180.5 -29t-151.5 -81.5t-114 -123t-73.5 -156.5t-25.5 -180
q0 -118 40 -222.5t110.5 -181.5t173 -122t221.5 -45z" />
    <glyph glyph-name="obreve" unicode="&#x14f;" horiz-adv-x="1222" 
d="M612 1135q-118 0 -202.5 76t-93.5 210h134q5 -72 47.5 -118t114.5 -46q70 0 113.5 45.5t47.5 118.5h134q-9 -129 -90.5 -207.5t-204.5 -78.5zM612 -13q-114 0 -211 39.5t-163.5 108t-104 162t-37.5 200.5t37.5 201.5t104 163t163.5 108t211 39.5q146 0 263 -64
t183.5 -181.5t66.5 -266.5q0 -148 -66.5 -265t-183.5 -181t-263 -64zM612 140q95 0 174 45t125 127t46 185q0 104 -46 186.5t-124.5 127.5t-174.5 45q-102 0 -182 -48t-123 -130t-43 -181q0 -98 43.5 -179.5t123.5 -129.5t181 -48z" />
    <glyph glyph-name="Ohungarumlaut" unicode="&#x150;" horiz-adv-x="1697" 
d="M599 1621l241 289l175 1l-254 -290h-162zM942 1621l240 289l175 1l-254 -290h-161zM851 -13q-160 0 -297 57t-231.5 156t-148 235.5t-53.5 292.5t53.5 292.5t148 235t231.5 155.5t297 57q153 0 286.5 -54t230 -149.5t152.5 -234.5t56 -302t-56 -302t-152.5 -235
t-230.5 -150t-286 -54zM851 157q112 0 211.5 42.5t172 117t114.5 181.5t42 230t-42 230t-114.5 181.5t-172 116.5t-211.5 42q-95 0 -180.5 -29t-151.5 -81.5t-114 -123t-73.5 -156.5t-25.5 -180q0 -118 40 -222.5t110.5 -181.5t173 -122t221.5 -45z" />
    <glyph glyph-name="ohungarumlaut" unicode="&#x151;" horiz-adv-x="1222" 
d="M342 1141l241 289l175 1l-254 -290h-162zM685 1141l240 289l175 1l-254 -290h-161zM612 -13q-114 0 -211 39.5t-163.5 108t-104 162t-37.5 200.5t37.5 201.5t104 163t163.5 108t211 39.5q146 0 263 -64t183.5 -181.5t66.5 -266.5q0 -148 -66.5 -265t-183.5 -181t-263 -64
zM612 140q95 0 174 45t125 127t46 185q0 104 -46 186.5t-124.5 127.5t-174.5 45q-102 0 -182 -48t-123 -130t-43 -181q0 -98 43.5 -179.5t123.5 -129.5t181 -48z" />
    <glyph glyph-name="OE" unicode="&#x152;" horiz-adv-x="1964" 
d="M1108 164h750v-164h-1002q-161 0 -299 57t-233 155.5t-149 232.5t-54 285t54 284.5t149 231t233 154t299 55.5h961v-164h-709v-488h588v-164h-588v-475zM856 167l74 1v1120h-74q-114 1 -215.5 -41t-175 -115t-116.5 -177.5t-43 -224.5t43 -225.5t116.5 -179.5t175 -116.5
t215.5 -41.5z" />
    <glyph glyph-name="oe" unicode="&#x153;" horiz-adv-x="1660" 
d="M1602 514q0 -30 -5 -67h-657q7 -92 38.5 -160t90 -108t139.5 -40q69 0 132 37t103 97l116 -98q-38 -56 -94 -98t-124.5 -66t-139.5 -24q-120 0 -209 53t-143 146h-4q-57 -95 -145.5 -147t-195.5 -52q-128 0 -227 67t-152 182.5t-53 260.5q0 219 125 365.5t313 146.5
q103 0 190.5 -53t144.5 -148h5q56 95 145 148t201 53q115 0 208 -63.5t145.5 -177t52.5 -254.5zM503 139q112 0 189.5 101t77.5 257q0 79 -20.5 146.5t-55.5 114t-83 73t-102 26.5q-56 0 -106 -28t-85.5 -75.5t-56.5 -114.5t-21 -142q0 -100 32.5 -181.5t93 -129
t137.5 -47.5zM1192 857q-102 0 -167 -73t-82 -199h495q-18 125 -82.5 198.5t-163.5 73.5z" />
    <glyph glyph-name="Racute" unicode="&#x154;" horiz-adv-x="1325" 
d="M903 1911l-255 -290h-174l240 289zM1221 0h-215l-371 555h-272v-555h-178v1455h516q123 0 216 -34t150.5 -95t86 -142t28.5 -180q0 -181 -91.5 -289.5t-255.5 -143.5l-1 -2zM363 1291v-572h290q173 0 258.5 78.5t85.5 210.5q0 137 -84 210t-235 73h-315z" />
    <glyph glyph-name="racute" unicode="&#x155;" horiz-adv-x="732" 
d="M686 1431l-255 -290h-174l240 289zM652 1009q29 0 41 -2v-183q-36 3 -66 3q-93 0 -162 -45t-105 -123t-36 -178v-481h-166v997h166v-174h4q37 59 86.5 100.5t110 63.5t127.5 22z" />
    <glyph glyph-name="Rcommaaccent" unicode="&#x156;" horiz-adv-x="1325" 
d="M834 569l387 -569h-215l-371 555h-272v-555h-178v1455h516q123 0 216 -34t150.5 -95t86 -142t28.5 -180q0 -181 -91.5 -289.5t-255.5 -143.5zM363 1291v-572h290q173 0 258.5 78.5t85.5 210.5q0 137 -84 210t-235 73h-315zM570 -109h152q9 -42 9 -103q0 -98 -62.5 -156
t-168.5 -67l-41 101q68 15 95.5 47t27.5 85q0 39 -12 93z" />
    <glyph glyph-name="rcommaaccent" unicode="&#x157;" horiz-adv-x="732" 
d="M652 1009q29 0 41 -2v-183q-36 3 -66 3q-93 0 -162 -45t-105 -123t-36 -178v-481h-166v997h166v-174h4q56 89 139.5 137.5t184.5 48.5zM167 -109h152q9 -42 9 -103q0 -98 -62.5 -156t-168.5 -67l-41 101q68 15 95.5 47t27.5 85q0 39 -12 93z" />
    <glyph glyph-name="Rcaron" unicode="&#x158;" horiz-adv-x="1325" 
d="M727 1618h-153l-237 293h168l147 -183h4l148 183h169zM1221 0h-215l-371 555h-272v-555h-178v1455h516q123 0 216 -34t150.5 -95t86 -142t28.5 -180q0 -181 -91.5 -289.5t-255.5 -143.5l-1 -2zM363 1291v-572h290q173 0 258.5 78.5t85.5 210.5q0 137 -84 210t-235 73
h-315z" />
    <glyph glyph-name="rcaron" unicode="&#x159;" horiz-adv-x="732" 
d="M510 1138h-153l-237 293h168l147 -183h4l148 183h169zM328 823q37 59 86.5 100.5t110 63.5t127.5 22q29 0 41 -2v-183q-36 3 -66 3q-93 0 -162 -45t-105 -123t-36 -178v-481h-166v997h166v-174h4z" />
    <glyph glyph-name="Sacute" unicode="&#x15a;" horiz-adv-x="1197" 
d="M495 1621l240 289l189 1l-255 -290h-174zM606 -13q-142 0 -276 56t-239 169l113 137q77 -94 185 -143.5t219 -49.5q89 0 156 26.5t104.5 77t37.5 118.5q0 111 -91 175q-53 38 -204 94l-1 1h-1h-1l-1 1h-1l-1 1h-1h-1l-1 1h-1h-1l-1 1h-1l-1 1h-1h-1l-1 1h-1l-1 1h-1h-1
l-1 1h-1h-1l-1 1h-1l-1 1h-1h-1l-2 1q-55 21 -92.5 36t-87 39t-82.5 46.5t-68.5 55t-56 67.5t-34 81.5t-13.5 98.5q0 107 58.5 195.5t160.5 139t225 50.5q120 1 238 -43t222 -127l-107 -138q-85 70 -177.5 106t-176.5 36q-69 0 -126.5 -23.5t-94.5 -72t-37 -114.5
q-1 -98 95 -161q53 -36 210 -96l1 -1h1l1 -1h1h1l1 -1q180 -70 238 -101q139 -74 185 -183q27 -65 27 -150q0 -78 -26.5 -145.5t-72.5 -115.5t-107.5 -82.5t-132.5 -51t-147 -16.5z" />
    <glyph glyph-name="sacute" unicode="&#x15b;" horiz-adv-x="903" 
d="M352 1141l240 289l189 1l-255 -290h-174zM462 -13q-229 0 -391 144l86 126q63 -59 134.5 -89t170.5 -30q87 0 138 38t51 95q0 15 -3 28t-12 24.5t-17 20t-25.5 18.5t-30 16.5t-37.5 16t-40.5 15t-47.5 17.5q-16 5 -24 8q-56 19 -94.5 36t-80.5 43.5t-67 56.5t-41.5 74
t-16.5 97q0 114 94 190.5t236 76.5q193 0 343 -123l-86 -131q-120 104 -265 104q-60 0 -106.5 -32.5t-46.5 -84.5q0 -23 10 -42.5t25 -34.5t41.5 -30t51 -25.5t61.5 -24.5q160 -62 193 -78q103 -51 135 -125q20 -46 20 -109q0 -124 -93 -205t-265 -81z" />
    <glyph glyph-name="Scircumflex" unicode="&#x15c;" horiz-adv-x="1197" 
d="M591 1801l-147 -183h-168l238 293h153l245 -293h-169l-148 183h-4zM642 832q180 -70 238 -101q139 -74 185 -183q27 -65 27 -150q0 -78 -26.5 -145t-72.5 -115.5t-107.5 -82.5t-132.5 -51t-147 -17q-142 0 -276 56t-239 169l113 137q77 -94 185 -143.5t219 -49.5
q135 0 216.5 59.5t81.5 162.5q0 111 -91 175q-53 38 -204 94l-1 1h-1h-1l-1 1h-1l-1 1h-1h-1l-1 1h-1h-1l-1 1h-1l-1 1h-1h-1l-1 1h-1l-1 1h-1h-1l-1 1h-1h-1l-1 1h-1l-1 1h-1h-1l-2 1q-55 21 -92.5 36t-87 39t-82.5 46.5t-68.5 55t-56 67.5t-34 81.5t-13.5 98.5
q0 107 58.5 195.5t160.5 139t225 50.5q120 1 238 -43t222 -127l-107 -138q-85 70 -177.5 106t-176.5 36q-69 0 -126.5 -23.5t-94.5 -72t-37 -114.5q-1 -98 95 -161q53 -36 210 -96l1 -1h1l1 -1h1h1z" />
    <glyph glyph-name="scircumflex" unicode="&#x15d;" horiz-adv-x="903" 
d="M460 1321l-147 -183h-168l238 293h153l245 -293h-169l-148 183h-4zM472 585q160 -62 193 -78q103 -51 135 -125q20 -46 20 -109q0 -59 -22.5 -110.5t-66 -91t-113 -62t-156.5 -22.5q-229 0 -391 144l86 126q63 -59 134.5 -89t170.5 -30q87 0 138 38t51 95q0 15 -3 28
t-12 24.5t-17 20t-25.5 18.5t-30 16.5t-37.5 16t-40.5 15t-47.5 17.5q-16 5 -24 8q-56 19 -94.5 36t-80.5 43.5t-67 56.5t-41.5 74t-16.5 97q0 114 94 190.5t236 76.5q193 0 343 -123l-86 -131q-120 104 -265 104q-60 0 -106.5 -32.5t-46.5 -84.5q0 -28 13.5 -51t42 -42
t57.5 -32.5t76 -31.5z" />
    <glyph glyph-name="Scedilla" unicode="&#x15e;" horiz-adv-x="1197" 
d="M627 -13l-25 -51l2 -3q83 -4 131.5 -46t48.5 -116q0 -69 -55.5 -112.5t-164.5 -43.5q-52 0 -114 12v90q45 -14 99 -14q48 0 81.5 19.5t33.5 56.5q0 35 -45 60.5t-125 25.5v62l30 65q-121 14 -232.5 69t-200.5 151l113 137q77 -94 185 -143.5t219 -49.5q89 0 156 26.5
t104.5 77t37.5 118.5q0 111 -91 175q-53 38 -204 94l-1 1h-1h-1l-1 1h-1l-1 1h-1h-1l-1 1h-1h-1l-1 1h-1l-1 1h-1h-1l-1 1h-1l-1 1h-1h-1l-1 1h-1h-1l-1 1h-1l-1 1h-1h-1l-2 1q-55 21 -92.5 36t-87 39t-82.5 46.5t-68.5 55t-56 67.5t-34 81.5t-13.5 98.5q0 107 58.5 195.5
t160.5 139t225 50.5q120 1 238 -43t222 -127l-107 -138q-85 70 -177.5 106t-176.5 36q-69 0 -126.5 -23.5t-94.5 -72t-37 -114.5q-1 -98 95 -161q53 -36 210 -96l1 -1h1l1 -1h1h1l1 -1q180 -70 238 -101q139 -74 185 -183q27 -65 27 -150q0 -94 -38.5 -172t-103.5 -128.5
t-148 -79t-175 -31.5z" />
    <glyph glyph-name="scedilla" unicode="&#x15f;" horiz-adv-x="903" 
d="M472 585q160 -62 193 -78q103 -51 135 -125q20 -46 20 -109q0 -59 -22.5 -110.5t-66 -91t-113 -62t-156.5 -22.5h-6l-25 -51l2 -3q83 -4 131.5 -46t48.5 -116q0 -69 -55.5 -112.5t-164.5 -43.5q-52 0 -114 12v90q45 -14 99 -14q30 0 55.5 7.5t42.5 25.5t17 43
q0 35 -45 60.5t-125 25.5v62l32 69q-161 27 -284 135l86 126q63 -59 134.5 -89t170.5 -30q87 0 138 38t51 95q0 15 -3 28t-12 24.5t-17 20t-25.5 18.5t-30 16.5t-37.5 16t-40.5 15t-47.5 17.5q-16 5 -24 8q-56 19 -94.5 36t-80.5 43.5t-67 56.5t-41.5 74t-16.5 97
q0 114 94 190.5t236 76.5q193 0 343 -123l-86 -131q-120 104 -265 104q-60 0 -106.5 -32.5t-46.5 -84.5q0 -28 13.5 -51t42 -42t57.5 -32.5t76 -31.5z" />
    <glyph glyph-name="Scaron" unicode="&#x160;" horiz-adv-x="1197" 
d="M666 1618h-153l-237 293h168l147 -183h4l148 183h169zM642 832q180 -70 238 -101q139 -74 185 -183q27 -65 27 -150q0 -78 -26.5 -145.5t-72.5 -115.5t-107.5 -82.5t-132.5 -51t-147 -16.5q-142 0 -276 56t-239 169l113 137q77 -94 185 -143.5t219 -49.5q89 0 156 26.5
t104.5 77t37.5 118.5q0 111 -91 175q-53 38 -204 94l-1 1h-1h-1l-1 1h-1l-1 1h-1h-1l-1 1h-1h-1l-1 1h-1l-1 1h-1h-1l-1 1h-1l-1 1h-1h-1l-1 1h-1h-1l-1 1h-1l-1 1h-1h-1l-2 1q-55 21 -92.5 36t-87 39t-82.5 46.5t-68.5 55t-56 67.5t-34 81.5t-13.5 98.5q0 107 58.5 195.5
t160.5 139t225 50.5q120 1 238 -43t222 -127l-107 -138q-85 70 -177.5 106t-176.5 36q-69 0 -126.5 -23.5t-94.5 -72.5t-37 -114q-1 -98 95 -161q53 -36 210 -96l1 -1h1l1 -1h1h1z" />
    <glyph glyph-name="scaron" unicode="&#x161;" horiz-adv-x="903" 
d="M535 1138h-153l-237 293h168l147 -183h4l148 183h169zM472 585q160 -62 193 -78q103 -51 135 -125q20 -46 20 -109q0 -59 -22.5 -110.5t-66 -91t-113 -62t-156.5 -22.5q-229 0 -391 144l86 126q63 -59 134.5 -89t170.5 -30q87 0 138 38t51 95q0 15 -3 28t-12 24.5t-17 20
t-25.5 18.5t-30 16.5t-37.5 16t-40.5 15t-47.5 17.5q-16 5 -24 8q-56 19 -94.5 36t-80.5 43.5t-67 56.5t-41.5 74t-16.5 97q0 114 94 190.5t236 76.5q193 0 343 -123l-86 -131q-120 104 -265 104q-60 0 -106.5 -32.5t-46.5 -84.5q0 -23 10 -42.5t25 -34.5t41.5 -30t51 -25.5
t61.5 -24.5z" />
    <glyph glyph-name="uni0162" unicode="&#x162;" horiz-adv-x="1181" 
d="M597 0l-31 -64l2 -3q83 -4 131.5 -46t48.5 -116q0 -69 -55.5 -112.5t-164.5 -43.5q-52 0 -114 12v90q45 -14 99 -14q48 0 81.5 19.5t33.5 56.5q0 35 -45 60.5t-125 25.5v62l40 85h1v1279h-435v164h1053v-164h-440v-1291h-80z" />
    <glyph glyph-name="uni0163" unicode="&#x163;" horiz-adv-x="745" 
d="M400 -67q83 -4 131.5 -46t48.5 -116q0 -69 -55.5 -112.5t-164.5 -43.5q-52 0 -114 12v90q45 -14 99 -14q30 0 55.5 7.5t42.5 25.5t17 43q0 35 -45 60.5t-125 25.5v62l37 79q-146 59 -146 291v556h-127v144h127v341l166 18v-359h330v-144h-330v-531q0 -94 27 -136.5
t95 -42.5q79 0 168 51l44 -145q-32 -18 -61 -30.5t-77 -22t-103 -9.5h-17l-25 -51z" />
    <glyph glyph-name="Tcaron" unicode="&#x164;" horiz-adv-x="1181" 
d="M659 1618h-153l-237 293h168l147 -183h4l148 183h169zM64 1455h1053v-164h-440v-1291h-178v1291h-435v164z" />
    <glyph glyph-name="tcaron" unicode="&#x165;" horiz-adv-x="745" 
d="M484 1204l58 378h164l-101 -378h-121zM440 -13q-259 0 -259 310v556h-127v144h127v341l166 18v-359h330v-144h-330v-531q0 -94 27 -136.5t95 -42.5q79 0 168 51l44 -145q-32 -18 -61 -30.5t-77 -22t-103 -9.5z" />
    <glyph glyph-name="Tbar" unicode="&#x166;" horiz-adv-x="1181" 
d="M1117 1291h-440v-476h247v-152h-247v-663h-178v663h-234v152h234v476h-435v164h1053v-164z" />
    <glyph glyph-name="tbar" unicode="&#x167;" horiz-adv-x="745" 
d="M637 194l44 -145q-32 -18 -61 -30.5t-77 -22t-103 -9.5q-259 0 -259 310v200h-110v133h110v223h-127v144h127v341l166 18v-359h330v-144h-330v-223h277v-133h-277v-175q0 -94 27 -136.5t95 -42.5q79 0 168 51z" />
    <glyph glyph-name="Utilde" unicode="&#x168;" horiz-adv-x="1456" 
d="M889 1632q-20 0 -41.5 4.5t-37 10.5t-36.5 17.5t-32 18.5t-32 21q-39 24 -66 36t-54 12q-80 0 -122 -112l-107 47q30 95 83 148.5t129 53.5q34 0 67 -10.5t50.5 -20t49.5 -29.5l21 -14q15 -10 22 -14.5t20 -12t22 -10.5t21.5 -6t23.5 -3q25 0 47 12.5t40.5 38t31.5 62.5
l105 -36q-14 -51 -35 -91t-47.5 -67t-57.5 -41.5t-65 -14.5zM726 -13q-125 0 -228.5 41t-177.5 117t-115 190.5t-41 256.5v863h178v-850q0 -203 104.5 -325.5t279.5 -122.5q173 0 280 120t107 328v850h178v-863q0 -280 -152.5 -442.5t-412.5 -162.5z" />
    <glyph glyph-name="utilde" unicode="&#x169;" horiz-adv-x="1156" 
d="M437 1272q-80 0 -122 -112l-107 47q30 95 83 148.5t129 53.5q34 0 67 -10.5t50.5 -20t49.5 -29.5l18 -12q12 -8 18.5 -12.5t17.5 -11t19 -10t18 -7.5t19.5 -5.5t19.5 -1.5q37 0 68.5 29t50.5 84l105 -36q-28 -101 -82 -157.5t-123 -56.5q-33 0 -68.5 12.5t-55.5 24.5
t-55 35q-39 24 -66 36t-54 12zM842 997h166v-997h-166v165h-3q-59 -86 -145 -132t-183 -46q-177 0 -275.5 104t-98.5 312v594h166v-546q0 -166 60 -238.5t183 -72.5q60 0 113.5 25.5t94 72t64.5 118.5t24 158v483z" />
    <glyph glyph-name="Umacron" unicode="&#x16a;" horiz-adv-x="1456" 
d="M434 1700v143h588v-143h-588zM726 -13q-125 0 -228.5 41t-177.5 117t-115 190.5t-41 256.5v863h178v-850q0 -203 104.5 -325.5t279.5 -122.5q85 0 156 30.5t122.5 87.5t80 141.5t28.5 188.5v850h178v-863q0 -280 -152.5 -442.5t-412.5 -162.5z" />
    <glyph glyph-name="umacron" unicode="&#x16b;" horiz-adv-x="1156" 
d="M869 1363v-143h-588v143h588zM842 997h166v-997h-166v165h-3q-59 -86 -145 -132t-183 -46q-177 0 -275.5 104t-98.5 312v594h166v-546q0 -166 60 -238.5t183 -72.5q60 0 113.5 25.5t94 72t64.5 118.5t24 158v483z" />
    <glyph glyph-name="Ubreve" unicode="&#x16c;" horiz-adv-x="1456" 
d="M728 1615q-118 0 -202.5 76t-93.5 210h134q5 -72 47.5 -118t114.5 -46q70 0 113.5 45.5t47.5 118.5h134q-9 -129 -90.5 -207.5t-204.5 -78.5zM726 -13q-125 0 -228.5 41t-177.5 117t-115 190.5t-41 256.5v863h178v-850q0 -203 104.5 -325.5t279.5 -122.5q173 0 280 120
t107 328v850h178v-863q0 -280 -152.5 -442.5t-412.5 -162.5z" />
    <glyph glyph-name="ubreve" unicode="&#x16d;" horiz-adv-x="1156" 
d="M575 1135q-118 0 -202.5 76t-93.5 210h134q5 -72 47.5 -118t114.5 -46q46 0 82 20.5t56 58t23 85.5h134q-6 -85 -45 -150.5t-104 -100.5t-146 -35zM842 997h166v-997h-166v165h-3q-59 -86 -145 -132t-183 -46q-177 0 -275.5 104t-98.5 312v594h166v-546q0 -166 60 -238.5
t183 -72.5q60 0 113.5 25.5t94 72t64.5 118.5t24 158v483z" />
    <glyph glyph-name="Uring" unicode="&#x16e;" horiz-adv-x="1456" 
d="M727 1581q-53 0 -98.5 25.5t-72.5 70.5t-27 98q0 80 57 137t141 57q82 0 140.5 -56t58.5 -138q0 -80 -57.5 -137t-141.5 -57zM728 1690q36 0 62 25.5t26 61.5q0 35 -26 61t-62 26t-62 -26t-26 -62t25.5 -61t62.5 -25zM726 -13q-125 0 -228.5 41t-177.5 117t-115 190.5
t-41 256.5v863h178v-850q0 -203 104.5 -325.5t279.5 -122.5q173 0 280 120t107 328v850h178v-863q0 -280 -152.5 -442.5t-412.5 -162.5z" />
    <glyph glyph-name="uring" unicode="&#x16f;" horiz-adv-x="1156" 
d="M574 1101q-81 0 -139.5 56.5t-58.5 137.5q0 80 57 137t141 57q54 0 99.5 -25.5t72.5 -70t27 -98.5q0 -80 -57.5 -137t-141.5 -57zM575 1384q-36 0 -62 -26t-26 -62q0 -24 11.5 -43.5t32 -31t44.5 -11.5q36 0 62 25.5t26 61.5q0 35 -26 61t-62 26zM842 997h166v-997h-166
v165h-3q-59 -86 -145 -132t-183 -46q-177 0 -275.5 104t-98.5 312v594h166v-546q0 -166 60 -238.5t183 -72.5q60 0 113.5 25.5t94 72t64.5 118.5t24 158v483z" />
    <glyph glyph-name="Uhungarumlaut" unicode="&#x170;" horiz-adv-x="1456" 
d="M461 1621l241 289l175 1l-254 -290h-162zM804 1621l240 289l175 1l-254 -290h-161zM726 -13q-125 0 -228.5 41t-177.5 117t-115 190.5t-41 256.5v863h178v-850q0 -203 104.5 -325.5t279.5 -122.5q173 0 280 120t107 328v850h178v-863q0 -280 -152.5 -442.5t-412.5 -162.5
z" />
    <glyph glyph-name="uhungarumlaut" unicode="&#x171;" horiz-adv-x="1162" 
d="M722 1431l-254 -290h-162l241 289zM810 1141h-161l240 289l175 1zM842 514v483h166v-997h-166v165h-3q-59 -86 -145 -132t-183 -46q-177 0 -275.5 104t-98.5 312v594h166v-546q0 -166 60 -238.5t183 -72.5q60 0 113.5 25.5t94 72t64.5 118.5t24 158z" />
    <glyph glyph-name="Uogonek" unicode="&#x172;" horiz-adv-x="1456" 
d="M1113 1455h178v-863q0 -235 -109 -389t-302 -199q-47 -16 -83 -43.5t-55 -60.5t-19 -67q0 -28 10.5 -48.5t33.5 -32t56 -11.5q38 0 56 4t40 15l12 -108q-57 -26 -140 -26q-95 0 -150 46t-55 126q0 45 27.5 94.5t77.5 91.5v4q-118 6 -215 49t-166.5 119.5t-107.5 187.5
t-38 248v863h178v-850q0 -203 104.5 -325.5t279.5 -122.5q85 0 156 30.5t122.5 87.5t80 141.5t28.5 188.5v850z" />
    <glyph glyph-name="uogonek" unicode="&#x173;" horiz-adv-x="1156" 
d="M1029 -246l12 -108q-57 -26 -140 -26q-63 0 -109 20.5t-71 59.5t-25 92q0 35 16.5 73t50 75.5t79.5 67.5v157h-3q-59 -86 -145 -132t-183 -46q-177 0 -275.5 104t-98.5 312v594h166v-546q0 -166 60 -238.5t183 -72.5q60 0 113.5 25.5t94 72t64.5 118.5t24 158v483h166
v-997h-11q-74 -23 -119 -72t-45 -101q0 -43 25 -67.5t75 -24.5q38 0 56 4t40 15z" />
    <glyph glyph-name="Wcircumflex" unicode="&#x174;" horiz-adv-x="2097" 
d="M1046 1801l-147 -183h-168l238 293h153l245 -293h-169l-148 183h-4zM1836 1455h190l-465 -1455h-172l-336 1192h-4l-341 -1192h-172l-465 1455h191l358 -1162h4l329 1162h193l327 -1165h4z" />
    <glyph glyph-name="wcircumflex" unicode="&#x175;" horiz-adv-x="1573" 
d="M782 1321l-147 -183h-168l238 293h153l245 -293h-169l-148 183h-4zM1345 997h169l-346 -997h-157l-224 726h-4l-225 -726h-153l-346 997h169l254 -744h4l227 744h144l230 -745h4z" />
    <glyph glyph-name="Ycircumflex" unicode="&#x176;" horiz-adv-x="1238" 
d="M618 1801l-147 -183h-168l238 293h153l245 -293h-169l-148 183h-4zM996 1455h207l-497 -805v-650h-178v650l-493 805h205l376 -626h4z" />
    <glyph glyph-name="ycircumflex" unicode="&#x177;" horiz-adv-x="1082" 
d="M539 1321l-147 -183h-168l238 293h153l245 -293h-169l-148 183h-4zM855 997h176l-564 -1402h-176l178 444l-421 958h177l324 -759h5z" />
    <glyph glyph-name="Ydieresis" unicode="&#x178;" horiz-adv-x="1238" 
d="M436 1662q-25 0 -47 9t-37.5 25t-24.5 37t-9 45q0 49 34 83t84 34t84.5 -34t34.5 -83q0 -48 -35 -82t-84 -34zM807 1664q-49 0 -83 33.5t-34 80.5t34 81t83 34t82.5 -34t33.5 -81t-33.5 -80.5t-82.5 -33.5zM996 1455h207l-497 -805v-650h-178v650l-493 805h205l376 -626
h4z" />
    <glyph glyph-name="Zacute" unicode="&#x179;" horiz-adv-x="1265" 
d="M875 1911l-255 -290h-174l240 289zM350 164h786v-164h-1015v142l776 1146v3h-736v164h969v-142l-780 -1146v-3z" />
    <glyph glyph-name="zacute" unicode="&#x17a;" horiz-adv-x="973" 
d="M735 1431l-255 -290h-174l240 289zM886 878l-582 -730v-4h581v-144h-806v122l578 727v4h-547v144h776v-119z" />
    <glyph glyph-name="Zdotaccent" unicode="&#x17b;" horiz-adv-x="1265" 
d="M628 1662q-33 0 -60 15.5t-42.5 42t-15.5 58.5q0 49 34 83t84 34q32 0 59 -15.5t43 -42.5t16 -59q0 -48 -34.5 -82t-83.5 -34zM350 164h786v-164h-1015v142l776 1146v3h-736v164h969v-142l-780 -1146v-3z" />
    <glyph glyph-name="zdotaccent" unicode="&#x17c;" horiz-adv-x="973" 
d="M488 1182q-25 0 -47 9t-37.5 25t-24.5 37t-9 45q0 49 34 83t84 34q32 0 59 -15.5t43 -42.5t16 -59q0 -48 -34.5 -82t-83.5 -34zM886 878l-582 -730v-4h581v-144h-806v122l578 727v4h-547v144h776v-119z" />
    <glyph glyph-name="Zcaron" unicode="&#x17d;" horiz-adv-x="1265" 
d="M699 1618h-153l-237 293h168l147 -183h4l148 183h169zM350 164h786v-164h-1015v142l776 1146v3h-736v164h969v-142l-780 -1146v-3z" />
    <glyph glyph-name="zcaron" unicode="&#x17e;" horiz-adv-x="973" 
d="M559 1138h-153l-237 293h168l147 -183h4l148 183h169zM886 878l-582 -730v-4h581v-144h-806v122l578 727v4h-547v144h776v-119z" />
    <glyph glyph-name="longs" unicode="&#x17f;" horiz-adv-x="660" 
d="M200 0v853h-122v144h122v202q0 159 72.5 240.5t207.5 81.5q127 0 232 -63l-37 -143q-100 51 -174 51q-136 0 -136 -183v-1183h-165z" />
    <glyph glyph-name="uni018F" unicode="&#x18f;" horiz-adv-x="1466" 
d="M699 1468q140 0 260 -54.5t205 -151.5t133.5 -236t48.5 -302q0 -160 -47 -297t-130 -233.5t-201 -151.5t-256 -55q-98 0 -187.5 28.5t-165.5 87t-132 141t-87.5 197t-31.5 248.5q0 52 4 71h1050q-6 159 -66 281t-164 189.5t-237 67.5q-170 0 -331 -84l-82 150
q185 104 417 104zM706 157q178 0 298 120.5t150 321.5h-864q18 -199 131.5 -320.5t284.5 -121.5z" />
    <glyph glyph-name="florin" unicode="&#x192;" horiz-adv-x="1102" 
d="M208 -256q-62 0 -116 12.5t-89.5 30.5t-60.5 41l65 118q77 -49 174 -49q38 0 68 10.5t55 34t41.5 64.5t23.5 98l93 710h-157l20 144h158l31 240q22 165 104.5 243.5t224.5 78.5q88 0 156.5 -24t109.5 -59l-66 -119q-80 49 -175 49q-78 0 -126 -47.5t-62 -159.5l-25 -202
h305l-20 -144h-306l-98 -746q-15 -112 -57 -184t-109 -106t-162 -34z" />
    <glyph glyph-name="uni019D" unicode="&#x19d;" horiz-adv-x="1548" 
d="M1185 1455h178v-1455h-181l-815 1147h-4v-1252q0 -147 -69.5 -230t-196.5 -83q-91 0 -173 34l28 141q49 -31 103 -31q58 0 94 42.5t36 120.5v1566h176l820 -1159h4v1159z" />
    <glyph glyph-name="Ohorn" unicode="&#x1a0;" horiz-adv-x="1782" 
d="M1545 1587h170v-151q0 -144 -55.5 -232t-162.5 -117l-1 -2q80 -162 80 -357q0 -163 -56 -302t-152.5 -235t-230.5 -150t-286 -54q-160 0 -297 57t-231.5 156t-148 235.5t-53.5 292.5t53.5 292.5t148 235t231.5 155.5t297 57q179 0 329 -72t249 -203q36 10 59.5 30.5
t35.5 54.5t16.5 72.5t4.5 95.5v141zM851 157q112 0 211.5 42.5t171.5 117t114.5 181.5t42.5 230t-42 230t-114.5 181.5t-172 116.5t-211.5 42q-95 0 -180.5 -29t-151.5 -81.5t-114 -123t-73.5 -156.5t-25.5 -180q0 -118 40 -222.5t110.5 -181.5t173 -122t221.5 -45z" />
    <glyph glyph-name="ohorn" unicode="&#x1a1;" horiz-adv-x="1385" 
d="M1168 1159h170v-151q0 -149 -59 -237.5t-173 -114.5l-1 -3q21 -72 21 -156q0 -148 -66.5 -265t-183.5 -181t-263 -64q-114 0 -211 39.5t-163.5 108t-104 162.5t-37.5 200q0 107 37.5 201.5t104 163t163.5 108t211 39.5q145 0 261.5 -64.5t182.5 -177.5q28 9 48 24.5
t32 36.5t19 51.5t9.5 62.5t2.5 76v141zM613 140q95 0 174 45t125 127t46 185q0 104 -46 186.5t-124.5 127.5t-174.5 45q-102 0 -182 -48t-123 -130t-43 -181q0 -98 43.5 -179.5t123.5 -129.5t181 -48z" />
    <glyph glyph-name="Uhorn" unicode="&#x1af;" horiz-adv-x="1622" 
d="M1436 1587h170v-151q0 -174 -80.5 -266t-234.5 -96v-482q0 -280 -152.5 -442.5t-412.5 -162.5q-125 0 -228.5 41t-177.5 117t-115 190.5t-41 256.5v863h178v-850q0 -203 104.5 -325.5t279.5 -122.5q85 0 156 30.5t122.5 87.5t80 141.5t28.5 188.5v850h178v-268
q31 5 54 15t39 27t26.5 37.5t16 49.5t7.5 59t2 71v141z" />
    <glyph glyph-name="uhorn" unicode="&#x1b0;" horiz-adv-x="1351" 
d="M1148 1159h170v-151q0 -173 -79.5 -265t-230.5 -97v-646h-166v165h-3q-59 -86 -145 -132t-183 -46q-177 0 -275.5 104t-98.5 312v594h166v-546q0 -166 60 -238.5t183 -72.5q60 0 113.5 25.5t94 72t64.5 118.5t24 158v483h166v-237q30 5 52.5 15.5t37.5 27.5t25 37
t15.5 49t7.5 59t2 70v141z" />
    <glyph glyph-name="Gcaron" unicode="&#x1e6;" horiz-adv-x="1563" 
d="M906 1618h-153l-237 293h168l147 -183h4l148 183h169zM813 750h600v-575q-103 -88 -251 -137t-315 -49q-156 0 -289.5 52t-230 146.5t-151.5 233t-55 304.5q0 160 51.5 297.5t144 236t228 154t296.5 55.5q156 0 300 -56t255 -172l-127 -110q-173 168 -429 168
q-114 0 -212.5 -41t-169 -114.5t-111 -181.5t-40.5 -236q0 -163 66.5 -292.5t190 -203t283.5 -73.5q237 0 388 111v319h-422v164z" />
    <glyph glyph-name="gcaron" unicode="&#x1e7;" horiz-adv-x="1227" 
d="M656 1138h-153l-237 293h168l147 -183h4l148 183h169zM915 997h165v-922q0 -110 -28.5 -198.5t-86 -155t-153 -102.5t-222.5 -36q-228 0 -406 108l40 153q94 -54 176 -79.5t182 -25.5q82 0 147 23t106 63t62 92.5t21 114.5v139h-5q-125 -152 -338 -152q-99 0 -187 35.5
t-153.5 99t-103.5 157t-38 202.5q0 139 61.5 252.5t170 178.5t242.5 65q67 0 129 -17t117 -51t98 -82h4v138zM588 174q149 0 241 97.5t92 248.5q0 149 -95 242t-238 93q-142 0 -234 -96t-92 -241q0 -62 16.5 -117t46.5 -96t70.5 -71t90 -45t102.5 -15z" />
    <glyph glyph-name="uni01EA" unicode="&#x1ea;" horiz-adv-x="1697" 
d="M961 -6q-67 -24 -107 -71t-40 -96q0 -28 10.5 -48.5t33.5 -32t56 -11.5q38 0 56 4t40 15l12 -108q-57 -26 -140 -26q-95 0 -150 46t-55 126q0 47 30 99t85 95v3q-148 10 -274 71t-213 158.5t-135.5 229t-48.5 280.5q0 156 53.5 292.5t148 235t231.5 155.5t297 57
q153 0 286.5 -54t230 -149.5t152.5 -234.5t56 -302q0 -148 -46.5 -277t-128 -223t-194.5 -155t-246 -79zM306 728q0 -118 40 -222.5t110.5 -181.5t173 -122t221.5 -45q89 0 171.5 27t149 78t116 120t76.5 158t27 188q0 123 -42 230t-114.5 181.5t-172 116.5t-211.5 42
q-95 0 -180.5 -29t-151.5 -81.5t-114 -123t-73.5 -156.5t-25.5 -180z" />
    <glyph glyph-name="uni01EB" unicode="&#x1eb;" horiz-adv-x="1222" 
d="M688 -8q-64 -26 -102 -71.5t-38 -93.5q0 -43 25 -67.5t75 -24.5q38 0 56 4t40 15l12 -108q-57 -26 -140 -26q-63 0 -109 20.5t-71 59.5t-25 92q0 48 31.5 101.5t88.5 96.5v2q-130 18 -229.5 88.5t-152.5 179t-53 237.5q0 107 37.5 201.5t104 163t163.5 108t211 39.5
q146 0 263 -64t183.5 -181.5t66.5 -266.5q0 -204 -122 -342.5t-315 -162.5zM264 497q0 -98 43.5 -179.5t123.5 -129.5t181 -48q95 0 174 45t125 127t46 185q0 104 -46 186.5t-124.5 127.5t-174.5 45q-102 0 -182 -48t-123 -130t-43 -181z" />
    <glyph glyph-name="Aringacute" unicode="&#x1fa;" horiz-adv-x="1396" 
d="M698 1581q-81 0 -139.5 56.5t-58.5 137.5q0 39 15 75t41.5 62t63.5 41.5t78 15.5q44 0 84 -18t67 -49l141 100h199l-292 -215v-12q0 -52 -25.5 -96.5t-71.5 -71t-102 -26.5zM699 1864q-36 0 -62 -26t-26 -62t25.5 -61t62.5 -25q36 0 62 25.5t26 61.5q0 35 -26 61t-62 26z
M1153 0l-130 354h-649l-129 -354h-187l550 1455h179l554 -1455h-188zM431 510h535l-266 727h-4z" />
    <glyph glyph-name="aringacute" unicode="&#x1fb;" horiz-adv-x="1249" 
d="M620 1101q-53 0 -98.5 25.5t-72.5 70.5t-27 98q0 52 25.5 96.5t71.5 71t101 26.5q81 0 138 -54l139 97l198 1l-279 -205q3 -17 3 -33q0 -80 -57.5 -137t-141.5 -57zM621 1384q-36 0 -62 -26t-26 -62q0 -24 11.5 -43.5t32 -31t44.5 -11.5q36 0 62 25.5t26 61.5
q0 35 -26 61t-62 26zM932 997h166v-997h-159v158h-3q-61 -82 -150.5 -126.5t-198.5 -44.5q-102 0 -192 36.5t-155.5 101.5t-103.5 160t-38 207q0 146 62.5 264t174.5 185.5t251 67.5q68 0 130.5 -18t116.5 -54t95 -88h4v148zM603 139q67 0 128 25.5t107 71t73 112t27 143.5
q0 76 -25.5 143.5t-69.5 116.5t-106 77.5t-132 28.5q-145 0 -241.5 -101t-96.5 -265q0 -153 93 -252.5t243 -99.5z" />
    <glyph glyph-name="AEacute" unicode="&#x1fc;" horiz-adv-x="1930" 
d="M1293 1911l-255 -290h-174l240 289zM1064 164h760v-164h-933v352h-495l-189 -352h-191l782 1455h985v-164h-719v-486h598v-164h-598v-477zM481 510h410v756h-5z" />
    <glyph glyph-name="aeacute" unicode="&#x1fd;" horiz-adv-x="1606" 
d="M1133 1433l-255 -290h-174l240 289zM1554 514q0 -30 -5 -67h-706q7 -67 32 -124t63.5 -98t91.5 -63.5t114 -22.5q72 0 137 36.5t114 97.5l117 -98q-68 -87 -164 -137.5t-211 -50.5q-112 0 -204 54.5t-147 149.5h-3q-44 -89 -141.5 -146.5t-230.5 -57.5q-86 0 -153.5 23.5
t-108.5 64.5t-62 94.5t-21 116.5q0 68 23.5 123t69 95t117.5 62t164 22l244 1l-1 24q0 135 -43.5 189.5t-140.5 54.5q-149 0 -290 -74l-65 133q64 37 159 65t207 28q111 0 181.5 -44t104.5 -138h4q38 57 89.5 97.5t116 62.5t136.5 22q118 0 212.5 -64t147 -177t52.5 -254z
M1131 857q-108 0 -184.5 -73t-98.5 -196h541q-20 122 -90 195.5t-168 73.5zM424 138q103 0 181.5 63t83.5 146l-2 102l-233 -1q-66 -1 -115.5 -17.5t-78 -51.5t-28.5 -86q0 -65 50 -110t142 -45z" />
    <glyph glyph-name="Oslashacute" unicode="&#x1fe;" horiz-adv-x="1697" 
d="M1173 1911l-255 -290h-174l240 289zM1586 1399l-172 -186q162 -200 162 -485q0 -163 -56 -302t-152.5 -235t-230.5 -150t-286 -54q-255 0 -442 138l-166 -179l-108 99l166 179q-87 98 -133.5 227.5t-46.5 276.5q0 156 53.5 292.5t148 235t231.5 155.5t297 57
q267 0 461 -155l169 182zM306 728q0 -212 121 -369l762 821q-145 118 -338 118q-119 0 -221.5 -45t-173 -122t-110.5 -181.5t-40 -221.5zM1391 728q0 198 -104 347l-756 -817q137 -101 320 -101q89 0 171.5 27t149 78t116 120t76.5 158t27 188z" />
    <glyph glyph-name="oslashacute" unicode="&#x1ff;" horiz-adv-x="1222" 
d="M945 1432l-255 -290h-174l240 289zM1145 952l-124 -132q104 -136 104 -323q0 -148 -66.5 -265t-183.5 -181t-263 -64q-168 0 -295 83l-109 -117l-96 88l107 114q-123 140 -123 342q0 107 37.5 201.5t104 163t163.5 108t211 39.5q184 0 318 -100l122 130zM264 497
q0 -127 70 -220l484 513q-90 66 -206 66q-102 0 -182 -48t-123 -130t-43 -181zM957 497q0 112 -53 198l-474 -506q81 -49 182 -49q95 0 174 45t125 127t46 185z" />
    <glyph glyph-name="Scommaaccent" unicode="&#x218;" horiz-adv-x="1197" 
d="M606 -13q-142 0 -276 56t-239 169l113 137q77 -94 185 -143.5t219 -49.5q135 0 216.5 59.5t81.5 162.5q0 111 -91 175q-53 38 -204 94l-1 1h-1h-1l-1 1h-1l-1 1h-1h-1l-1 1h-1h-1l-1 1h-1l-1 1h-1h-1l-1 1h-1l-1 1h-1h-1l-1 1h-1h-1l-1 1h-1l-1 1h-1h-1l-2 1
q-55 21 -92.5 36t-87 39t-82.5 46.5t-68.5 55t-56 67.5t-34 81.5t-13.5 98.5q0 107 58.5 195.5t160.5 139t225 50.5q120 1 238 -43t222 -127l-107 -138q-85 70 -177.5 106t-176.5 36q-69 0 -126.5 -23.5t-94.5 -72t-37 -114.5q-1 -98 95 -161q53 -36 210 -96l1 -1h1l1 -1h1
h1l1 -1q180 -70 238 -101q139 -74 185 -183q27 -65 27 -150q0 -78 -26.5 -145.5t-72.5 -115.5t-107.5 -82.5t-132.5 -51t-147 -16.5zM466 -435l-41 101q68 15 95.5 47t27.5 85q0 39 -12 93h152q9 -42 9 -103q0 -98 -62.5 -156t-168.5 -67z" />
    <glyph glyph-name="scommaaccent" unicode="&#x219;" horiz-adv-x="903" 
d="M462 -13q-229 0 -391 144l86 126q63 -59 134.5 -89t170.5 -30q87 0 138 38t51 95q0 15 -3 28t-12 24.5t-17 20t-25.5 18.5t-30 16.5t-37.5 16t-40.5 15t-47.5 17.5q-16 5 -24 8q-56 19 -94.5 36t-80.5 43.5t-67 56.5t-41.5 74t-16.5 97q0 114 94 190.5t236 76.5
q193 0 343 -123l-86 -131q-120 104 -265 104q-60 0 -106.5 -32.5t-46.5 -84.5q0 -28 13.5 -51t42 -42t57.5 -32.5t76 -31.5q160 -62 193 -78q103 -51 135 -125q20 -46 20 -109q0 -59 -22.5 -110.5t-66 -91t-113 -62t-156.5 -22.5zM295 -435l-41 101q68 15 95.5 47t27.5 85
q0 39 -12 93h152q9 -42 9 -103q0 -66 -29.5 -114.5t-81 -75.5t-120.5 -33z" />
    <glyph glyph-name="uni021A" unicode="&#x21a;" horiz-adv-x="1181" 
d="M499 0v1291h-435v164h1053v-164h-440v-1291h-178zM430 -435l-41 101q68 15 95.5 47t27.5 85q0 39 -12 93h152q9 -42 9 -103q0 -98 -62.5 -156t-168.5 -67z" />
    <glyph glyph-name="uni021B" unicode="&#x21b;" horiz-adv-x="745" 
d="M440 -13q-259 0 -259 310v556h-127v144h127v341l166 18v-359h330v-144h-330v-531q0 -94 27 -136.5t95 -42.5q79 0 168 51l44 -145q-32 -18 -61 -30.5t-77 -22t-103 -9.5zM262 -435l-41 101q46 10 74 29t38.5 43.5t10.5 59.5q0 39 -12 93h152q9 -42 9 -103
q0 -98 -62.5 -156t-168.5 -67z" />
    <glyph glyph-name="uni0232" unicode="&#x232;" horiz-adv-x="1238" 
d="M916 1843v-143h-588v143h588zM996 1455h207l-497 -805v-650h-178v650l-493 805h205l376 -626h4z" />
    <glyph glyph-name="uni0233" unicode="&#x233;" horiz-adv-x="1082" 
d="M837 1363v-143h-588v143h588zM855 997h176l-564 -1402h-176l178 444l-421 958h177l324 -759h5z" />
    <glyph glyph-name="uni0237" unicode="&#x237;" horiz-adv-x="466" 
d="M68 -418q-94 0 -172 34l27 147q49 -30 103 -30q59 0 94.5 40t35.5 122v1102h166v-1102q0 -146 -68 -229.5t-186 -83.5z" />
    <glyph glyph-name="uni0259" unicode="&#x259;" horiz-adv-x="1141" 
d="M534 1010q105 0 198 -36t162 -101t109.5 -162.5t40.5 -212.5q0 -111 -37 -206.5t-101.5 -162t-154 -104.5t-191.5 -38q-139 0 -246 63.5t-164.5 175.5t-57.5 255q0 39 5 69h777q-16 144 -109.5 225.5t-237.5 81.5q-133 0 -283 -75l-65 133q180 95 355 95zM558 139
q83 0 148.5 33t107.5 94.5t56 145.5h-611q10 -121 95 -197t204 -76z" />
    <glyph glyph-name="uni0272" unicode="&#x272;" horiz-adv-x="1188" 
d="M689 1009q167 0 262.5 -105t95.5 -313v-592h-166v546q0 86 -17.5 147.5t-50.5 97t-76 51.5t-100 16q-142 0 -227.5 -96.5t-85.5 -262.5v-603q0 -146 -67.5 -229.5t-186.5 -83.5q-94 0 -172 34l27 141q49 -31 104 -31q58 0 93.5 42.5t35.5 120.5v1108h166v-172h3
q62 89 156 136.5t206 47.5z" />
    <glyph glyph-name="circumflex" unicode="&#x2c6;" horiz-adv-x="1013" 
d="M655 1105l-148 183h-4l-147 -183h-168l238 293h153l245 -293h-169z" />
    <glyph glyph-name="caron" unicode="&#x2c7;" horiz-adv-x="1013" 
d="M655 1398h169l-246 -293h-153l-237 293h168l147 -183h4z" />
    <glyph glyph-name="breve" unicode="&#x2d8;" horiz-adv-x="954" 
d="M477 1102q-118 0 -202.5 76t-93.5 210h134q5 -72 47.5 -118t114.5 -46q70 0 113.5 45.5t47.5 118.5h134q-9 -129 -90.5 -207.5t-204.5 -78.5z" />
    <glyph glyph-name="dotaccent" unicode="&#x2d9;" horiz-adv-x="1012" 
d="M506 1149q-50 0 -84 34t-34 82q0 49 34 83t84 34q32 0 59 -15.5t43 -42.5t16 -59q0 -48 -34.5 -82t-83.5 -34z" />
    <glyph glyph-name="ring" unicode="&#x2da;" horiz-adv-x="942" 
d="M470 1068q-81 0 -139.5 56.5t-58.5 137.5q0 80 57 137t141 57q82 0 140.5 -56t58.5 -138q0 -80 -57.5 -137t-141.5 -57zM471 1177q36 0 62 25.5t26 61.5q0 35 -26 61t-62 26q-24 0 -44.5 -12t-32 -32.5t-11.5 -43.5q0 -24 11.5 -43.5t32 -31t44.5 -11.5z" />
    <glyph glyph-name="ogonek" unicode="&#x2db;" horiz-adv-x="958" 
d="M557 -380q-95 0 -150 46t-55 126q0 61 48 126.5t133 109.5l123 -27q-75 -22 -121 -71.5t-46 -102.5q0 -43 25 -67.5t75 -24.5q38 0 56 4t40 15l12 -108q-57 -26 -140 -26z" />
    <glyph glyph-name="tilde" unicode="&#x2dc;" horiz-adv-x="1035" 
d="M679 1119q-33 0 -68.5 12.5t-55.5 24.5t-55 35q-39 24 -66 36t-54 12q-80 0 -122 -112l-107 47q30 95 83 148.5t129 53.5q34 0 67 -10.5t50.5 -20t49.5 -29.5l21 -14q15 -10 22 -14.5t20 -12t22 -10.5t21.5 -6t23.5 -3q37 0 68.5 29t50.5 84l105 -36q-18 -67 -49 -115.5
t-71 -73.5t-85 -25z" />
    <glyph glyph-name="hungarumlaut" unicode="&#x2dd;" horiz-adv-x="1057" 
d="M153 1108l241 289l175 1l-254 -290h-162zM496 1108l240 289l175 1l-254 -290h-161z" />
    <glyph glyph-name="gravecomb" unicode="&#x300;" horiz-adv-x="0" 
d="M26 1108l-254 290l189 -1l240 -289h-175z" />
    <glyph glyph-name="acutecomb" unicode="&#x301;" horiz-adv-x="0" 
d="M-182 1108l240 289l189 1l-255 -290h-174z" />
    <glyph glyph-name="uni0302" unicode="&#x302;" horiz-adv-x="0" 
d="M148 1105l-148 183h-4l-147 -183h-168l238 293h153l245 -293h-169z" />
    <glyph glyph-name="tildecomb" unicode="&#x303;" horiz-adv-x="0" 
d="M161 1119q-33 0 -68.5 12.5t-55.5 24.5t-55 35q-39 24 -66 36t-54 12q-80 0 -122 -112l-107 47q30 95 83.5 148.5t128.5 53.5q34 0 67 -10.5t50.5 -20t49.5 -29.5l21 -14q15 -10 22 -14.5t20 -12t22 -10.5t21.5 -6t23.5 -3q37 0 68.5 29t50.5 84l105 -36
q-28 -101 -82 -157.5t-123 -56.5z" />
    <glyph glyph-name="uni0304" unicode="&#x304;" horiz-adv-x="0" 
d="M-294 1187v143h588v-143h-588z" />
    <glyph glyph-name="uni0306" unicode="&#x306;" horiz-adv-x="0" 
d="M0 1102q-118 0 -202.5 76t-93.5 210h134q5 -72 47.5 -118t114.5 -46q46 0 82 20.5t56 58t23 85.5h134q-9 -129 -90.5 -207.5t-204.5 -78.5z" />
    <glyph glyph-name="uni0307" unicode="&#x307;" horiz-adv-x="0" 
d="M1 1149q-50 0 -84 34t-34 82q0 49 34 83t84 34q32 0 59 -15.5t43 -42.5t16 -59q0 -48 -34.5 -82t-83.5 -34z" />
    <glyph glyph-name="uni0308" unicode="&#x308;" horiz-adv-x="0" 
d="M-186 1149q-50 0 -84 34t-34 82q0 49 34 83t84 34q32 0 59.5 -15.5t43.5 -42.5t16 -59q0 -48 -35 -82t-84 -34zM185 1151q-49 0 -83 33.5t-34 80.5t34 81t82.5 34t82.5 -34t34 -81t-33.5 -80.5t-82.5 -33.5z" />
    <glyph glyph-name="hookabovecomb" unicode="&#x309;" horiz-adv-x="0" 
d="M-51 1058q-9 9 -13 14t-9 12.5t-7 14.5t-2 15q0 22 26.5 42.5t58.5 34.5t58.5 37t26.5 48q0 32 -23.5 45.5t-56.5 13.5q-27 0 -54 -8.5t-49.5 -23t-39.5 -33.5l-71 66q39 41 99.5 67.5t126.5 26.5q58 0 101 -20t64.5 -54.5t21.5 -77.5q0 -59 -46.5 -100t-128.5 -64
l-13 -56h-70z" />
    <glyph glyph-name="uni030A" unicode="&#x30a;" horiz-adv-x="0" 
d="M-2 1068q-81 0 -139.5 56.5t-58.5 137.5q0 80 57 137t141 57q82 0 140.5 -56t58.5 -138q0 -80 -57.5 -137t-141.5 -57zM-1 1177q24 0 44 11.5t32 31.5t12 44q0 35 -26 61t-62 26t-62 -26t-26 -62t25.5 -61t62.5 -25z" />
    <glyph glyph-name="uni030B" unicode="&#x30b;" horiz-adv-x="0" 
d="M-254 1108l241 289l175 1l-254 -290h-162zM89 1108l240 289l175 1l-254 -290h-161z" />
    <glyph glyph-name="uni030C" unicode="&#x30c;" horiz-adv-x="0" 
d="M148 1398h169l-246 -293h-153l-237 293h168l147 -183h4z" />
    <glyph glyph-name="uni0312" unicode="&#x312;" horiz-adv-x="0" 
d="M161 1432l41 -101q-68 -15 -95.5 -47t-27.5 -85q0 -39 12 -93h-152q-9 42 -9 103q0 98 62.5 156t168.5 67z" />
    <glyph glyph-name="uni031B" unicode="&#x31b;" horiz-adv-x="0" 
d="M-26 942l-3 110q45 3 77 15.5t51 32.5t30 54t14.5 70.5t3.5 89.5v141h170v-151q0 -182 -88 -274.5t-255 -87.5z" />
    <glyph glyph-name="dotbelowcomb" unicode="&#x323;" horiz-adv-x="0" 
d="M-1 -228q50 0 84 -34t34 -82q0 -49 -34 -83t-84 -34q-49 0 -83.5 34t-34.5 83q0 48 34.5 82t83.5 34z" />
    <glyph glyph-name="uni0326" unicode="&#x326;" horiz-adv-x="0" 
d="M-160 -435l-41 101q35 8 59 20t38 29t20 37t6 46q0 39 -12 93h152q9 -42 9 -103q0 -98 -62.5 -156t-168.5 -67z" />
    <glyph glyph-name="uni0327" unicode="&#x327;" horiz-adv-x="0" 
d="M-22 -67q83 -4 131.5 -46t48.5 -116q0 -69 -55.5 -112.5t-164.5 -43.5q-52 0 -114 12v90q45 -14 99 -14q48 0 81.5 19.5t33.5 56.5q0 35 -45 60.5t-125 25.5v62l40 85h105l-37 -76z" />
    <glyph glyph-name="uni0328" unicode="&#x328;" horiz-adv-x="0" 
d="M-109 -380q-63 0 -109 20.5t-71 59.5t-25 92q0 61 48 126.5t133 109.5l123 -27q-75 -22 -121 -71.5t-46 -102.5q0 -43 25 -67.5t75 -24.5q38 0 56 4t40 15l12 -108q-57 -26 -140 -26z" />
    <glyph glyph-name="uni0335" unicode="&#x335;" horiz-adv-x="0" 
d="M-272 498v119h553v-119h-553z" />
    <glyph glyph-name="uni0374" unicode="&#x374;" horiz-adv-x="504" 
d="M70 982l109 503h174l-136 -503h-147z" />
    <glyph glyph-name="uni0375" unicode="&#x375;" horiz-adv-x="504" 
d="M131 -300l109 503h174l-136 -503h-147z" />
    <glyph glyph-name="uni037E" unicode="&#x37e;" horiz-adv-x="464" 
d="M227 774q-50 0 -84.5 34t-34.5 82q0 49 34.5 83t84.5 34q49 0 83.5 -34t34.5 -83q0 -31 -16 -58t-43 -42.5t-59 -15.5zM68 -267l67 493h181l-124 -493h-124z" />
    <glyph glyph-name="tonos" unicode="&#x384;" horiz-adv-x="951" 
d="M337 1108l121 335h193l-151 -335h-163z" />
    <glyph glyph-name="dieresistonos" unicode="&#x385;" horiz-adv-x="1126" 
d="M439 1108l70 335h154l-97 -335h-127zM264 1149q-49 0 -83.5 34t-34.5 82q0 32 15.5 59t43 42.5t59.5 15.5t59.5 -15.5t43.5 -42.5t16 -59q0 -48 -35 -82t-84 -34zM811 1151q-49 0 -83 33.5t-34 80.5q0 31 15.5 57.5t42.5 42t59 15.5q48 0 82 -34t34 -81t-34 -80.5
t-82 -33.5z" />
    <glyph glyph-name="Alphatonos" unicode="&#x386;" horiz-adv-x="1396" 
d="M1153 0l-130 354h-649l-129 -354h-187l550 1455h179l554 -1455h-188zM358 1443l-182 -335h-160l151 335h191zM431 510h535l-266 727h-4z" />
    <glyph glyph-name="anoteleia" unicode="&#x387;" horiz-adv-x="494" 
d="M247 774q-50 0 -84.5 34t-34.5 82q0 49 34.5 83t84.5 34q49 0 83.5 -34t34.5 -83q0 -48 -34.5 -82t-83.5 -34z" />
    <glyph glyph-name="Epsilontonos" unicode="&#x388;" horiz-adv-x="1224" 
d="M185 0v1455h890v-164h-711v-487h584v-164h-584v-476h754v-164h-933zM-304 1113l151 335h191l-182 -335h-160z" />
    <glyph glyph-name="Etatonos" unicode="&#x389;" horiz-adv-x="1487" 
d="M185 0v1455h178v-682h761v682h178v-1455h-178v609h-761v-609h-178zM-306 1113l151 335h191l-182 -335h-160z" />
    <glyph glyph-name="Iotatonos" unicode="&#x38a;" horiz-adv-x="569" 
d="M195 0v1455h179v-1455h-179zM-312 1113l151 335h191l-182 -335h-160z" />
    <glyph glyph-name="Omicrontonos" unicode="&#x38c;" horiz-adv-x="1697" 
d="M851 -13q-160 0 -297 57t-231.5 156t-148 235.5t-53.5 292.5t53.5 292.5t148 235t231.5 155.5t297 57q152 0 286 -54t230.5 -149.5t152.5 -234.5t56 -302t-56 -302t-152.5 -235t-230.5 -150t-286 -54zM-168 1113l151 335h191l-182 -335h-160zM851 157q112 0 211.5 42.5
t172 117t114.5 181.5t42 230t-42 230t-114.5 181.5t-172 116.5t-211.5 42q-95 0 -180.5 -29t-151.5 -81.5t-114 -123t-73.5 -156.5t-25.5 -180q0 -118 40 -222.5t110.5 -181.5t173 -122t221.5 -45z" />
    <glyph glyph-name="Upsilontonos" unicode="&#x38e;" horiz-adv-x="1238" 
d="M996 1455h207l-497 -805v-650h-178v650l-493 805h205l376 -626h4zM-395 1113l151 335h191l-182 -335h-160z" />
    <glyph glyph-name="Omegatonos" unicode="&#x38f;" horiz-adv-x="1597" 
d="M1175 168v-4h282v-164h-546v164q116 67 202 161t133 209.5t47 237.5q0 154 -62 273.5t-174.5 185.5t-257.5 66q-109 0 -201.5 -39t-157 -107.5t-100.5 -166t-36 -212.5q0 -185 102.5 -346.5t278.5 -261.5v-164h-546v164h284v4q-94 73 -162 168.5t-105 208t-37 229.5
q0 151 49.5 280t138 220t215.5 142t277 51t276.5 -51t214.5 -142t137.5 -220t49.5 -280q0 -177 -80 -336.5t-222 -269.5zM-46 1448h191l-182 -335h-160z" />
    <glyph glyph-name="iotadieresistonos" unicode="&#x390;" horiz-adv-x="550" 
d="M184 1141l70 335h154l-97 -335h-127zM9 1182q-49 0 -83.5 34t-34.5 82q0 49 34.5 83t83.5 34q32 0 59.5 -15.5t43.5 -42.5t16 -59q0 -48 -35 -82t-84 -34zM556 1184q-49 0 -83 33.5t-34 80.5t34.5 81t82.5 34q31 0 58 -15.5t42.5 -42t15.5 -57.5q0 -47 -34 -80.5
t-82 -33.5zM376 -13q-50 0 -88.5 13.5t-61 35.5t-37 54.5t-19.5 65t-5 72.5v769h166v-719q0 -77 15.5 -106.5t69.5 -29.5q44 0 97 16l17 -140q-29 -11 -45.5 -16t-46.5 -10t-62 -5z" />
    <glyph glyph-name="Alpha" unicode="&#x391;" horiz-adv-x="1396" 
d="M1153 0l-130 354h-649l-129 -354h-187l550 1455h179l554 -1455h-188zM431 510h535l-266 727h-4z" />
    <glyph glyph-name="Beta" unicode="&#x392;" horiz-adv-x="1309" 
d="M897 765q64 -13 118 -43t96 -75.5t66 -110t24 -142.5q0 -88 -30 -159.5t-89 -124t-152.5 -81.5t-214.5 -29h-530v1455h475q108 0 193.5 -21t147.5 -63.5t95 -111t33 -159.5q0 -113 -59 -203t-173 -129v-3zM363 1291v-461h295q43 0 83.5 7.5t78 25.5t65.5 44t44.5 67
t16.5 91q0 53 -18.5 93.5t-56.5 70.5t-100.5 46t-147.5 16h-260zM665 164q161 0 255 62.5t94 183.5q0 81 -38.5 139t-115.5 89.5t-187 31.5h-310v-506h302z" />
    <glyph glyph-name="Gamma" unicode="&#x393;" horiz-adv-x="1162" 
d="M185 0v1455h914v-164h-736v-1291h-178z" />
    <glyph glyph-name="uni0394" unicode="&#x394;" horiz-adv-x="1365" 
d="M773 1455l517 -1315v-140h-1214v139l514 1316h183zM279 164h805l-400 1067h-4z" />
    <glyph glyph-name="Epsilon" unicode="&#x395;" horiz-adv-x="1224" 
d="M185 0v1455h890v-164h-711v-487h584v-164h-584v-476h754v-164h-933z" />
    <glyph glyph-name="Zeta" unicode="&#x396;" horiz-adv-x="1265" 
d="M350 164h786v-164h-1015v142l776 1146v3h-736v164h969v-142l-780 -1146v-3z" />
    <glyph glyph-name="Eta" unicode="&#x397;" horiz-adv-x="1487" 
d="M185 0v1455h178v-682h761v682h178v-1455h-178v609h-761v-609h-178z" />
    <glyph glyph-name="Theta" unicode="&#x398;" horiz-adv-x="1720" 
d="M851 -13q-160 0 -297 57t-231.5 156t-148 235.5t-53.5 292.5t53.5 292.5t148 235t231.5 155.5t297 57q152 0 286 -54t230.5 -149.5t152.5 -234.5t56 -302t-56 -302t-152.5 -235t-230.5 -150t-286 -54zM851 157q112 0 211.5 42.5t172 117t114.5 181.5t42 230t-42 230
t-114.5 181.5t-172 116.5t-211.5 42q-95 0 -180.5 -29t-151.5 -81.5t-114 -123t-73.5 -156.5t-25.5 -180q0 -118 40 -222.5t110.5 -181.5t173 -122t221.5 -45zM510 636v164h700v-164h-700z" />
    <glyph glyph-name="Iota" unicode="&#x399;" horiz-adv-x="569" 
d="M195 0v1455h179v-1455h-179z" />
    <glyph glyph-name="Kappa" unicode="&#x39a;" horiz-adv-x="1332" 
d="M575 649h-3l-209 -246v-403h-178v1455h178v-799h4l661 799h228l-563 -663l578 -792h-223z" />
    <glyph glyph-name="Lambda" unicode="&#x39b;" horiz-adv-x="1380" 
d="M1126 0l-434 1203h-6l-432 -1203h-193l536 1455h183l540 -1455h-194z" />
    <glyph glyph-name="Mu" unicode="&#x39c;" horiz-adv-x="1800" 
d="M1437 1455h179v-1455h-178v1115h-3l-474 -822h-121l-474 822h-3v-1115h-178v1455h179l534 -941h6z" />
    <glyph glyph-name="Nu" unicode="&#x39d;" horiz-adv-x="1548" 
d="M1185 1455h178v-1455h-181l-815 1147h-4v-1147h-178v1455h176l820 -1159h4v1159z" />
    <glyph glyph-name="Xi" unicode="&#x39e;" horiz-adv-x="1290" 
d="M147 1286v169h997v-169h-997zM242 633v167h804v-167h-804zM133 0v169h1025v-169h-1025z" />
    <glyph glyph-name="Omicron" unicode="&#x39f;" horiz-adv-x="1697" 
d="M851 -13q-160 0 -297 57t-231.5 156t-148 235.5t-53.5 292.5t53.5 292.5t148 235t231.5 155.5t297 57q152 0 286 -54t230.5 -149.5t152.5 -234.5t56 -302t-56 -302t-152.5 -235t-230.5 -150t-286 -54zM851 157q112 0 211.5 42.5t172 117t114.5 181.5t42 230t-42 230
t-114.5 181.5t-172 116.5t-211.5 42q-95 0 -180.5 -29t-151.5 -81.5t-114 -123t-73.5 -156.5t-25.5 -180q0 -118 40 -222.5t110.5 -181.5t173 -122t221.5 -45z" />
    <glyph glyph-name="Pi" unicode="&#x3a0;" horiz-adv-x="1436" 
d="M185 0v1455h1066v-1455h-178v1291h-710v-1291h-178z" />
    <glyph glyph-name="Rho" unicode="&#x3a1;" horiz-adv-x="1265" 
d="M185 0v1455h509q124 0 218 -34t150.5 -95.5t84.5 -142t28 -179.5q0 -113 -37 -199.5t-105.5 -141t-161 -81.5t-208.5 -27h-300v-555h-178zM363 719h284q89 0 156 21.5t107 61t60 91t20 115.5q0 136 -83.5 209.5t-231.5 73.5h-312v-572z" />
    <glyph glyph-name="Sigma" unicode="&#x3a3;" horiz-adv-x="1189" 
d="M1098 1291h-753v-4l385 -556l-386 -563v-4h754v-164h-983v129l410 602l-410 590v134h983v-164z" />
    <glyph glyph-name="Tau" unicode="&#x3a4;" horiz-adv-x="1181" 
d="M499 0v1291h-435v164h1053v-164h-440v-1291h-178z" />
    <glyph glyph-name="Upsilon" unicode="&#x3a5;" horiz-adv-x="1238" 
d="M996 1455h207l-497 -805v-650h-178v650l-493 805h205l376 -626h4z" />
    <glyph glyph-name="Phi" unicode="&#x3a6;" horiz-adv-x="1668" 
d="M1566 732q0 -258 -171.5 -419.5t-469.5 -184.5v-128h-179v128q-300 22 -472 184t-172 420q0 269 172.5 439t471.5 193v111h179v-112q297 -24 469 -193.5t172 -437.5zM287 732q0 -187 122.5 -304.5t339.5 -137.5v911q-217 -22 -339.5 -147t-122.5 -322zM921 290
q143 13 246.5 70.5t158.5 152.5t55 219q0 197 -121.5 322t-338.5 147v-911z" />
    <glyph glyph-name="Chi" unicode="&#x3a7;" horiz-adv-x="1367" 
d="M1086 0l-400 585h-3l-401 -585h-211l496 727l-490 728h206l399 -588h4l397 588h207l-489 -729l496 -726h-211z" />
    <glyph glyph-name="Psi" unicode="&#x3a8;" horiz-adv-x="1620" 
d="M1300 1455h178l-1 -522q0 -284 -141.5 -434.5t-438.5 -153.5v-345h-178v345q-289 4 -433.5 153t-143.5 435l1 522h178l-1 -504q-1 -219 92 -328t307 -114v946h178v-946q208 4 304.5 110.5t97.5 331.5z" />
    <glyph glyph-name="uni03A9" unicode="&#x3a9;" horiz-adv-x="1597" 
d="M1175 168v-4h282v-164h-546v164q116 67 202 161t133 209.5t47 237.5q0 154 -62 273.5t-174.5 185.5t-257.5 66q-109 0 -201.5 -39t-157 -107.5t-100.5 -166t-36 -212.5q0 -185 102.5 -346.5t278.5 -261.5v-164h-546v164h284v4q-94 73 -162 168.5t-105 208t-37 229.5
q0 151 49.5 280t138 220t215.5 142t277 51t276.5 -51t214.5 -142t137.5 -220t49.5 -280q0 -177 -80 -336.5t-222 -269.5z" />
    <glyph glyph-name="Iotadieresis" unicode="&#x3aa;" horiz-adv-x="569" 
d="M51 1662q-50 0 -84 34t-34 82q0 49 34 83t84 34q49 0 84 -34t35 -83q0 -48 -35 -82t-84 -34zM516 1664q-32 0 -59 15.5t-42.5 41.5t-15.5 57q0 47 34.5 81t82.5 34t82 -34t34 -81t-34 -80.5t-82 -33.5zM195 0v1455h179v-1455h-179z" />
    <glyph glyph-name="Upsilondieresis" unicode="&#x3ab;" horiz-adv-x="1238" 
d="M376 1662q-25 0 -47 9t-37.5 25t-24.5 37t-9 45q0 49 34 83t84 34q49 0 84 -34t35 -83q0 -48 -35 -82t-84 -34zM841 1664q-32 0 -59 15.5t-42.5 41.5t-15.5 57q0 47 34.5 81t82.5 34t82 -34t34 -81t-34 -80.5t-82 -33.5zM996 1455h207l-497 -805v-650h-178v650l-493 805
h205l376 -626h4z" />
    <glyph glyph-name="alphatonos" unicode="&#x3ac;" horiz-adv-x="1235" 
d="M838 1477l-151 -335h-163l121 335h193zM1192 154l17 -138q-72 -29 -142 -29q-76 0 -119 47t-51 127h-5q-60 -82 -147 -127.5t-196 -45.5q-134 0 -238.5 63.5t-162 178t-57.5 262.5q0 146 59 264t167 185.5t245 67.5q73 0 138.5 -21.5t121 -64.5t95.5 -105h3l8 179h158
l-47 -484v-220q0 -37 3 -62t11.5 -47t25 -32.5t42.5 -10.5q34 0 71 13zM567 139q133 0 225 97t107 255v1q0 108 -38.5 190.5t-110.5 128.5t-167 46q-138 0 -230.5 -101.5t-92.5 -264.5q0 -153 84.5 -252.5t222.5 -99.5z" />
    <glyph glyph-name="epsilontonos" unicode="&#x3ad;" horiz-adv-x="1004" 
d="M749 1477l-151 -335h-163l121 335h193zM862 225l77 -123q-105 -64 -212.5 -89.5t-237.5 -25.5q-178 0 -282 72.5t-104 209.5q0 86 45 151.5t132 98.5q-72 36 -110.5 92.5t-38.5 118.5q0 128 97 203t275 77q96 1 211 -23.5t214 -81.5l-68 -125q-85 39 -174.5 59t-160.5 19
q-110 -2 -167.5 -39t-57.5 -102q0 -22 12 -44.5t36 -42.5t66 -33t96 -13l173 -1v-146h-196q-56 0 -99 -14.5t-66.5 -38t-34.5 -48.5t-11 -50q0 -73 66 -110t188 -37q184 0 332 86z" />
    <glyph glyph-name="etatonos" unicode="&#x3ae;" horiz-adv-x="1182" 
d="M828 1477l-151 -335h-163l121 335h193zM686 1009q167 0 261.5 -105t94.5 -313v-996h-166v950q0 312 -244 312q-137 0 -222 -98t-85 -264v-495h-166v997h166v-169h6q42 58 97.5 98.5t121 61.5t136.5 21z" />
    <glyph glyph-name="iotatonos" unicode="&#x3af;" horiz-adv-x="550" 
d="M169 1141l121 335h193l-151 -335h-163zM376 -13q-50 0 -88.5 13.5t-61 35.5t-37 54.5t-19.5 65t-5 72.5v769h166v-719q0 -77 15.5 -106.5t69.5 -29.5q44 0 97 16l17 -140q-29 -11 -45.5 -16t-46.5 -10t-62 -5z" />
    <glyph glyph-name="upsilondieresistonos" unicode="&#x3b0;" horiz-adv-x="1144" 
d="M501 1142l70 335h154l-97 -335h-127zM326 1183q-49 0 -83.5 34t-34.5 82q0 49 34.5 83t84 34t84 -34t34.5 -83q0 -48 -35 -82t-84 -34zM873 1185q-32 0 -59 15t-42.5 41.5t-15.5 57.5q0 47 34.5 81t82.5 34t82 -34t34 -81t-34 -80.5t-82 -33.5zM571 -13q-97 0 -176 31
t-137 91.5t-90 154t-32 212.5v521h166v-499q0 -75 14 -135t38.5 -101.5t58.5 -69.5t73.5 -40.5t84.5 -12.5q127 0 199.5 87.5t72.5 271.5v499h165v-521q0 -239 -115.5 -364t-321.5 -125z" />
    <glyph glyph-name="alpha" unicode="&#x3b1;" horiz-adv-x="1235" 
d="M1192 154l17 -138q-72 -29 -142 -29q-76 0 -119 47t-51 127h-5q-60 -82 -147 -127.5t-196 -45.5q-134 0 -238.5 63.5t-162 178t-57.5 262.5q0 146 59 264t167 185.5t245 67.5q73 0 138.5 -21.5t121 -64.5t95.5 -105h3l8 179h158l-47 -484v-220q0 -37 3 -62t11.5 -47
t25 -32.5t42.5 -10.5q34 0 71 13zM567 139q133 0 225 97t107 255v1q0 108 -38.5 190.5t-110.5 128.5t-167 46q-138 0 -230.5 -101.5t-92.5 -264.5q0 -153 84.5 -252.5t222.5 -99.5z" />
    <glyph glyph-name="beta" unicode="&#x3b2;" horiz-adv-x="1204" 
d="M855 816q122 -50 191 -152t69 -226q0 -203 -126 -327t-334 -124q-103 0 -186.5 38t-139.5 108h-4v-538h-166v1419q0 85 15 157t43.5 127.5t69 98t91 70t109.5 41t126 13.5q97 0 177 -28.5t134.5 -78t84 -118t29.5 -147.5q0 -37 -5 -71t-17.5 -72.5t-32.5 -71t-52.5 -63
t-75.5 -51.5v-4zM639 138q140 0 224 81t84 212q0 59 -22 111t-63.5 92.5t-107.5 64.5t-148 24h-86v144h77q70 1 122.5 19.5t81 45.5t46.5 65t23 70t5 67q0 99 -68.5 166.5t-188.5 67.5q-63 0 -115 -20t-92.5 -60.5t-63 -107.5t-22.5 -156v-564q0 -87 38.5 -160t111.5 -117.5
t164 -44.5z" />
    <glyph glyph-name="gamma" unicode="&#x3b3;" horiz-adv-x="1073" 
d="M620 -14q8 -31 12.5 -66.5t6.5 -71.5t2.5 -77.5t0.5 -84.5v-91h-165v73q0 54 -0.5 77.5t-3 69t-7 75t-14 68.5t-23.5 75l-378 964h180l305 -810h4l302 810h179z" />
    <glyph glyph-name="delta" unicode="&#x3b4;" horiz-adv-x="1178" 
d="M755 965q53 -24 99 -54.5t90 -74.5t75.5 -95t50.5 -118t19 -142q0 -111 -38.5 -204.5t-105 -156.5t-156.5 -98t-193 -35q-146 0 -261 65t-178.5 179.5t-63.5 256.5q0 165 86 286t233 191q-171 105 -171 269q0 122 98 203.5t267 83.5q100 1 214.5 -22.5t214.5 -81.5
l-69 -132q-158 83 -341 83q-97 0 -158 -36.5t-61 -98.5q0 -28 8 -50t28.5 -44t54.5 -44t87 -47q112 -56 171 -83zM596 139q89 0 162.5 40t118 119t44.5 183q0 72 -23.5 133t-68 108t-101.5 83t-132 67q-28 12 -43 19q-66 -27 -119.5 -67t-92 -91t-59 -113.5t-20.5 -131.5
q0 -150 93 -249.5t241 -99.5z" />
    <glyph glyph-name="epsilon" unicode="&#x3b5;" horiz-adv-x="1004" 
d="M862 225l77 -123q-105 -64 -212.5 -89.5t-237.5 -25.5q-178 0 -282 72.5t-104 209.5q0 86 45 151.5t132 98.5q-72 36 -110.5 92.5t-38.5 118.5q0 128 97 203t275 77q60 1 125 -7.5t148.5 -33.5t151.5 -64l-68 -125q-85 39 -174.5 59t-160.5 19q-110 -2 -167.5 -39
t-57.5 -102q0 -22 12 -44.5t36 -42.5t66 -33t96 -13l173 -1v-146h-196q-56 0 -99 -14.5t-66 -38t-34.5 -48.5t-11.5 -50q0 -73 66 -110t188 -37q184 0 332 86z" />
    <glyph glyph-name="zeta" unicode="&#x3b6;" horiz-adv-x="941" 
d="M944 1381q-114 -84 -213 -171.5t-185.5 -182t-148.5 -185.5t-98 -184t-37 -176q0 -33 5.5 -61.5t14.5 -51t26 -43.5t33 -37t43 -32t49 -27t57.5 -24.5t61.5 -22.5t68 -23q86 -27 141.5 -52.5t93 -58t53 -72t15.5 -92.5q0 -82 -45 -166.5t-110 -153.5l-141 75
q74 86 96 124q30 52 30 99q0 39 -19 64t-69 48.5t-150 52.5q-56 17 -97 32.5t-87.5 37.5t-79.5 46t-64.5 58t-51 74t-30.5 92t-11 114q1 106 46.5 219.5t129 225.5t189 218.5t237.5 214.5v5h-535v143h783v-127z" />
    <glyph glyph-name="eta" unicode="&#x3b7;" horiz-adv-x="1182" 
d="M686 1009q167 0 261.5 -105t94.5 -313v-996h-166v950q0 312 -244 312q-137 0 -222 -98t-85 -264v-495h-166v997h166v-169h6q42 58 97.5 98.5t121 61.5t136.5 21z" />
    <glyph glyph-name="theta" unicode="&#x3b8;" horiz-adv-x="1198" 
d="M599 1521q88 0 164 -28t139 -88t107.5 -149t69.5 -216.5t25 -284.5q0 -132 -17.5 -245t-56 -210.5t-96.5 -166t-143 -107.5t-192 -39q-89 0 -164.5 27.5t-139 87.5t-108 149t-69.5 217t-25 287q0 130 17.5 242.5t56 210t96.5 166.5t143.5 108t192.5 39zM599 1369
q-104 0 -177.5 -66.5t-111.5 -183t-46 -279.5h671q-13 259 -101.5 394t-234.5 135zM599 139q108 0 182.5 70t111.5 193t43 295h-673q9 -275 97.5 -416.5t238.5 -141.5z" />
    <glyph glyph-name="iota" unicode="&#x3b9;" horiz-adv-x="550" 
d="M376 -13q-50 0 -88.5 13.5t-61 35.5t-37 54.5t-19.5 65t-5 72.5v769h166v-719q0 -77 15.5 -106.5t69.5 -29.5q44 0 97 16l17 -140q-29 -11 -45.5 -16t-46.5 -10t-62 -5z" />
    <glyph glyph-name="kappa" unicode="&#x3ba;" horiz-adv-x="1166" 
d="M548 462h-4l-220 -215v-247h-166v997h166v-537h4l551 537h211l-424 -415l455 -582h-208z" />
    <glyph glyph-name="lambda" unicode="&#x3bb;" horiz-adv-x="1113" 
d="M887 0l-291 802h-3l-351 -802h-181l453 1015l-60 164q-36 99 -80.5 145.5t-110.5 46.5q-44 0 -106 -17l-22 140q88 27 166 27q47 0 86.5 -14t71.5 -39t60.5 -65t52 -88t46.5 -112l444 -1203h-175z" />
    <glyph glyph-name="uni03BC" unicode="&#x3bc;" horiz-adv-x="1176" 
d="M861 997h165v-997h-151l-11 164h-5q-37 -56 -87 -95.5t-108 -60.5t-121 -21q-155 0 -233 108l-3 -2q10 -101 10 -217v-281h-166v1402h166v-528q0 -167 67 -248.5t191 -81.5t205 98.5t81 263.5v496z" />
    <glyph glyph-name="nu" unicode="&#x3bd;" horiz-adv-x="1072" 
d="M841 997h180l-405 -997h-159l-407 997h178l307 -786h5z" />
    <glyph glyph-name="xi" unicode="&#x3be;" horiz-adv-x="986" 
d="M601 167q97 -36 156.5 -64.5t103 -62.5t60.5 -72.5t17 -89.5q0 -71 -47.5 -159t-107.5 -154l-141 75q127 141 127 221q0 53 -49.5 86t-199.5 86q-72 26 -128 51.5t-114 63.5t-95.5 81t-61.5 102.5t-24 128.5q0 112 72.5 210.5t198.5 148.5v5q-197 99 -197 319
q0 73 23 135.5t62.5 106.5t92 75t110.5 46t118 15q216 0 395 -104l-68 -132q-159 83 -308 83q-116 0 -186.5 -66.5t-70.5 -165.5q0 -67 27 -116t77.5 -79t118 -44t154.5 -14h137v-143h-218q-86 0 -157 -23t-116.5 -61.5t-70.5 -86t-25 -98.5q0 -45 16 -83.5t43.5 -68
t71.5 -57.5t91.5 -49.5t112.5 -45.5z" />
    <glyph glyph-name="omicron" unicode="&#x3bf;" horiz-adv-x="1189" 
d="M595 -13q-147 0 -262.5 66t-178.5 182.5t-63 261.5q0 146 63 263t178.5 183t262.5 66q108 0 201.5 -37.5t160 -104t104.5 -162.5t38 -208q0 -89 -24.5 -168.5t-69.5 -141.5t-106.5 -107t-139.5 -69t-164 -24zM595 139q143 0 239 100.5t96 257.5q0 159 -95.5 259.5
t-239.5 100.5q-147 0 -241.5 -102.5t-94.5 -257.5q0 -154 95 -256t241 -102z" />
    <glyph glyph-name="pi" unicode="&#x3c0;" horiz-adv-x="1244" 
d="M1198 997v-144h-188v-854h-166v854h-455v-853h-166v853h-170v144h1145z" />
    <glyph glyph-name="rho" unicode="&#x3c1;" horiz-adv-x="1223" 
d="M624 1009q145 0 262 -67.5t182 -185.5t65 -264q0 -111 -37 -205.5t-101 -160t-151.5 -102.5t-186.5 -37q-110 0 -199 41t-150 117h-3v-550h-166v897q0 149 61 267t171.5 184t252.5 66zM625 139q99 0 177 46.5t120 126.5t42 179q0 80 -26.5 149t-72.5 116.5t-108.5 74
t-132.5 26.5t-131 -28.5t-103.5 -77.5t-67 -116.5t-24.5 -143.5q0 -77 26 -143.5t70 -112t104 -71t127 -25.5z" />
    <glyph glyph-name="uni03C2" unicode="&#x3c2;" horiz-adv-x="1029" 
d="M760 -436l-142 75q2 2 18 19.5t19 21t17 19.5t17.5 21.5t14.5 20t14 22t10 21t9 24t4.5 23t2.5 25.5q0 37 -19.5 63.5t-60.5 48.5t-120 51q-60 22 -105.5 42t-95.5 47t-86 55.5t-70 67t-55 82t-33.5 99.5t-12.5 120q0 104 36 192t101 151t159.5 98.5t206.5 35.5
q110 0 216 -46t179 -131l-114 -100q-49 57 -122 91t-155 34q-154 0 -246 -91.5t-92 -234.5q0 -50 11.5 -92t35.5 -76.5t54.5 -63t76 -54t93 -46.5t110.5 -44q151 -53 214.5 -115t63.5 -165q0 -32 -6 -62.5t-20 -61t-24.5 -51t-34 -51.5t-33.5 -42.5t-36 -42.5z" />
    <glyph glyph-name="sigma" unicode="&#x3c3;" horiz-adv-x="1210" 
d="M1171 853h-272v-4q89 -71 139 -168t50 -214q0 -102 -36.5 -190.5t-100.5 -152t-157.5 -100.5t-203.5 -37q-142 0 -254.5 61t-177 175.5t-64.5 264.5q0 145 63 261t179 182t264 66h571v-144zM591 139q147 0 236.5 99t89.5 250q0 116 -56 210t-152 155h-109
q-74 0 -137.5 -28.5t-107 -77t-68 -116t-24.5 -143.5q0 -79 26 -145t70.5 -110.5t104.5 -69t127 -24.5z" />
    <glyph glyph-name="tau" unicode="&#x3c4;" horiz-adv-x="943" 
d="M576 -13q-131 0 -190 73t-59 226v567h-293v144h846v-144h-387v-525q0 -50 4.5 -81.5t18 -57t39.5 -37t67 -11.5q82 0 181 54l43 -145q-129 -63 -270 -63z" />
    <glyph glyph-name="upsilon" unicode="&#x3c5;" horiz-adv-x="1144" 
d="M571 -13q-97 0 -176.5 31t-137 91.5t-89.5 154t-32 212.5v521h166v-499q0 -75 14 -135t38.5 -101.5t58.5 -69.5t73.5 -40.5t84.5 -12.5q127 0 199.5 87.5t72.5 271.5v499h165v-521q0 -239 -115.5 -364t-321.5 -125z" />
    <glyph glyph-name="phi" unicode="&#x3c6;" horiz-adv-x="1436" 
d="M1342 535q0 -112 -38.5 -210t-108.5 -171t-175.5 -116t-232.5 -45v-398h-166v398q-149 2 -267 64t-186 176.5t-68 263.5q0 158 52 282t156 242l164 -49q-100 -104 -151.5 -223t-51.5 -238q0 -157 96.5 -257t255.5 -109v482q0 191 87.5 286.5t235.5 95.5
q112 0 203.5 -61.5t143 -170t51.5 -242.5zM787 143q123 5 211.5 58.5t131.5 138t43 191.5q0 84 -25.5 158.5t-76 122t-114.5 47.5q-170 0 -170 -256v-460z" />
    <glyph glyph-name="chi" unicode="&#x3c7;" horiz-adv-x="1060" 
d="M1028 -261l18 -133q-52 -24 -112 -24q-81 0 -133.5 48.5t-99.5 149.5l-174 371h-2l-302 -556h-182l407 721l-214 427q-15 30 -28 50t-29 35.5t-33.5 22.5t-39.5 7q-15 0 -46 -7l-20 134q52 24 118 24q80 0 131.5 -50t95.5 -148l153 -332h3l283 518h180l-386 -680
l234 -469q31 -61 59.5 -88.5t65.5 -27.5q23 0 53 7z" />
    <glyph glyph-name="psi" unicode="&#x3c8;" horiz-adv-x="1448" 
d="M1148 997h166v-525q0 -156 -63.5 -266t-177 -163.5t-268.5 -55.5v-392h-166v392q-153 2 -264.5 55.5t-174.5 163.5t-63 266v525h166v-502q0 -175 93 -262.5t243 -89.5v1160h166v-1160q74 1 135 22t108.5 62.5t73.5 109.5t26 158v502z" />
    <glyph glyph-name="omega" unicode="&#x3c9;" horiz-adv-x="1552" 
d="M1249 1022q102 -111 153.5 -239.5t51.5 -302.5q0 -89 -19 -167t-53 -137t-80.5 -102t-103 -65t-118.5 -22q-223 0 -302 214h-4q-79 -214 -302 -214q-78 0 -146.5 35t-119 98t-79.5 156t-29 204q0 174 51.5 302.5t153.5 239.5l149 -38q-41 -49 -74.5 -106.5t-58.5 -120
t-38.5 -130.5t-13.5 -133q0 -111 29 -191.5t79.5 -121.5t115.5 -41q97 0 150 96t53 265v246h164v-246q0 -169 53 -265t150 -96q100 0 162 94t62 260q0 130 -50.5 260t-134.5 230z" />
    <glyph glyph-name="iotadieresis" unicode="&#x3ca;" horiz-adv-x="550" 
d="M19 1182q-50 0 -84 34t-34 82q0 49 34 83t84 34q49 0 84 -34t35 -83q0 -48 -35 -82t-84 -34zM484 1184q-49 0 -83 33.5t-34 80.5t34.5 81t82.5 34t82 -34t34 -81t-34 -80.5t-82 -33.5zM376 -13q-50 0 -88.5 13.5t-61 35.5t-37 54.5t-19.5 65t-5 72.5v769h166v-719
q0 -77 15.5 -106.5t69.5 -29.5q44 0 97 16l17 -140q-29 -11 -45.5 -16t-46.5 -10t-62 -5z" />
    <glyph glyph-name="upsilondieresis" unicode="&#x3cb;" horiz-adv-x="1144" 
d="M340 1183q-33 0 -60 15.5t-42.5 42t-15.5 58.5q0 49 34 83t84 34q49 0 84 -34t35 -83q0 -48 -35 -82t-84 -34zM805 1185q-49 0 -83 33.5t-34 80.5t34.5 81t82.5 34t82 -34t34 -81t-34 -80.5t-82 -33.5zM571 -13q-97 0 -176 31t-137 91.5t-90 154t-32 212.5v521h166v-499
q0 -75 14 -135t38.5 -101.5t58.5 -69.5t73.5 -40.5t84.5 -12.5q127 0 199.5 87.5t72.5 271.5v499h165v-521q0 -239 -115.5 -364t-321.5 -125z" />
    <glyph glyph-name="omicrontonos" unicode="&#x3cc;" horiz-adv-x="1189" 
d="M512 1142l121 335h193l-151 -335h-163zM595 -13q-147 0 -262.5 66t-178.5 182.5t-63 261.5q0 146 63 263t178.5 183t262.5 66q108 0 201.5 -37.5t160 -104t104.5 -162.5t38 -208q0 -89 -24.5 -168.5t-69.5 -141.5t-106.5 -107t-139.5 -69t-164 -24zM595 139
q143 0 239 100.5t96 257.5q0 159 -95.5 259.5t-239.5 100.5q-147 0 -241.5 -102.5t-94.5 -257.5q0 -154 95 -256t241 -102z" />
    <glyph glyph-name="upsilontonos" unicode="&#x3cd;" horiz-adv-x="1144" 
d="M490 1142l121 335h193l-151 -335h-163zM571 -13q-97 0 -176.5 31t-137 91.5t-89.5 154t-32 212.5v521h166v-499q0 -75 14 -135t38.5 -101.5t58.5 -69.5t73.5 -40.5t84.5 -12.5q127 0 199.5 87.5t72.5 271.5v499h165v-521q0 -239 -115.5 -364t-321.5 -125z" />
    <glyph glyph-name="omegatonos" unicode="&#x3ce;" horiz-adv-x="1552" 
d="M1009 1477l-151 -335h-163l121 335h193zM1249 1022q102 -111 153.5 -239.5t51.5 -302.5q0 -89 -19 -167t-53 -137t-80.5 -102t-103 -65t-118.5 -22q-223 0 -302 214h-4q-79 -214 -302 -214q-78 0 -146.5 35t-119 98t-79.5 156t-29 204q0 174 51.5 302.5t153.5 239.5
l149 -38q-41 -49 -74.5 -106.5t-58.5 -120t-38.5 -130.5t-13.5 -133q0 -111 29 -191.5t79.5 -121.5t115.5 -41q97 0 150 96t53 265v246h164v-246q0 -169 53 -265t150 -96q100 0 162 94t62 260q0 130 -50.5 260t-134.5 230z" />
    <glyph glyph-name="uni03D7" unicode="&#x3d7;" horiz-adv-x="1198" 
d="M650 573q127 -384 490 -460v-95q-102 -124 -185 -205.5t-172 -141.5t-181 -87t-200 -27q-219 0 -386 101l33 151q71 -52 159.5 -79.5t172.5 -27.5q143 0 275.5 71.5t269.5 220.5v3q-289 125 -393 452h-2l-207 -221v-228h-166v997h166v-546h3l515 546h204l-396 -422v-2z
" />
    <glyph glyph-name="Wgrave" unicode="&#x1e80;" horiz-adv-x="2097" 
d="M1132 1621h-175l-254 290l189 -1zM1836 1455h190l-465 -1455h-172l-336 1192h-4l-341 -1192h-172l-465 1455h191l358 -1162h4l329 1162h193l327 -1165h4z" />
    <glyph glyph-name="wgrave" unicode="&#x1e81;" horiz-adv-x="1573" 
d="M870 1141h-175l-254 290l189 -1zM1345 997h169l-346 -997h-157l-224 726h-4l-225 -726h-153l-346 997h169l254 -744h4l227 744h144l230 -745h4z" />
    <glyph glyph-name="Wacute" unicode="&#x1e82;" horiz-adv-x="2097" 
d="M1404 1911l-255 -290h-174l240 289zM1836 1455h190l-465 -1455h-172l-336 1192h-4l-341 -1192h-172l-465 1455h191l358 -1162h4l329 1162h193l327 -1165h4z" />
    <glyph glyph-name="wacute" unicode="&#x1e83;" horiz-adv-x="1573" 
d="M1131 1431l-255 -290h-174l240 289zM1345 997h169l-346 -997h-157l-224 726h-4l-225 -726h-153l-346 997h169l254 -744h4l227 744h144l230 -745h4z" />
    <glyph glyph-name="Wdieresis" unicode="&#x1e84;" horiz-adv-x="2097" 
d="M864 1662q-33 0 -60 15.5t-42.5 42t-15.5 58.5t15.5 59t42.5 42.5t60 15.5q50 0 84.5 -34t34.5 -83q0 -48 -35 -82t-84 -34zM1235 1664q-49 0 -83 33.5t-34 80.5t34 81t82.5 34t82.5 -34t34 -81t-33.5 -80.5t-82.5 -33.5zM1836 1455h190l-465 -1455h-172l-336 1192h-4
l-341 -1192h-172l-465 1455h191l358 -1162h4l329 1162h193l327 -1165h4z" />
    <glyph glyph-name="wdieresis" unicode="&#x1e85;" horiz-adv-x="1573" 
d="M600 1182q-50 0 -84 34t-34 82q0 32 15.5 59t42.5 42.5t60 15.5q32 0 59.5 -15.5t43.5 -42.5t16 -59q0 -48 -35 -82t-84 -34zM971 1184q-32 0 -59 15t-42.5 41.5t-15.5 57.5q0 47 34 81t82.5 34t82.5 -34t34 -81t-33.5 -80.5t-82.5 -33.5zM1345 997h169l-346 -997h-157
l-224 726h-4l-225 -726h-153l-346 997h169l254 -744h4l227 744h144l230 -745h4z" />
    <glyph glyph-name="uni1E9E" unicode="&#x1e9e;" horiz-adv-x="1521" 
d="M1007 831q180 -70 238 -101q140 -74 185 -183q27 -65 27 -149q0 -78 -26 -145.5t-71.5 -115.5t-105.5 -82.5t-129 -51t-141 -16.5q-118 0 -237 45t-217 135l85 163q50 -58 114.5 -98.5t129.5 -59.5t127 -19q126 0 205.5 60.5t79.5 164.5q0 109 -92 172q-54 38 -208 95
l-1 1h-1h-1l-1 1h-1l-1 1h-1h-1l-1 1h-1h-1l-1 1h-1l-1 1h-1h-1l-1 1h-1h-1l-1 1h-1l-1 1h-1h-1l-2 1q-92 34 -211 90l11 19l266 506v4q-206 31 -342 31q-181 0 -265.5 -71.5t-84.5 -236.5l-1 -997h-178l1 1008q0 460 508 460q107 0 276.5 -24t331.5 -62l-285 -535l2 -3
q5 -2 16 -6.5t17 -6.5z" />
    <glyph glyph-name="uni1EA0" unicode="&#x1ea0;" horiz-adv-x="1396" 
d="M1341 0h-188l-130 354h-649l-129 -354h-187l550 1455h179zM431 510h535l-266 727h-4zM698 -228q50 0 84 -34t34 -82q0 -24 -9 -45.5t-24.5 -37.5t-37.5 -25t-47 -9q-49 0 -83.5 34t-34.5 83q0 24 9.5 45.5t25 37t37.5 24.5t46 9z" />
    <glyph glyph-name="uni1EA1" unicode="&#x1ea1;" horiz-adv-x="1245" 
d="M932 997h166v-997h-159v158h-3q-61 -81 -150.5 -126t-198.5 -45q-102 0 -192 36.5t-155.5 101.5t-103.5 160t-38 207q0 146 62.5 264t174.5 185.5t251 67.5q103 0 191.5 -41t150.5 -119h4v148zM603 139q67 0 128 25.5t107 71t73 112t27 143.5q0 76 -25.5 143.5
t-69.5 116.5t-106 77.5t-132 28.5q-145 0 -241.5 -101t-96.5 -265q0 -153 93 -252.5t243 -99.5zM604 -228q50 0 84 -34t34 -82q0 -49 -34 -83t-84 -34q-49 0 -83.5 34t-34.5 83q0 24 9.5 45.5t25 37t37.5 24.5t46 9z" />
    <glyph glyph-name="uni1EA2" unicode="&#x1ea2;" horiz-adv-x="1396" 
d="M706 1847q-41 0 -79 -18t-64 -47l-71 66q39 41 99.5 67.5t126.5 26.5q44 0 79.5 -11.5t59 -32t36 -48.5t12.5 -60q0 -59 -46.5 -100t-128.5 -64l-13 -56h-70q-12 12 -17 18.5t-9.5 16.5t-4.5 21q0 22 26.5 42.5t58.5 34.5t58.5 37t26.5 48q0 22 -12.5 35.5t-29.5 18.5
t-38 5zM1153 0l-130 354h-649l-129 -354h-187l550 1455h179l554 -1455h-188zM431 510h535l-266 727h-4z" />
    <glyph glyph-name="uni1EA3" unicode="&#x1ea3;" horiz-adv-x="1245" 
d="M627 1367q-41 0 -79 -18t-64 -47l-71 66q25 27 60 48t78.5 33.5t87.5 12.5q88 0 137.5 -42.5t49.5 -109.5q0 -59 -46.5 -100t-128.5 -64l-13 -56h-70q-12 12 -17 18.5t-9.5 16.5t-4.5 21q0 22 26.5 42.5t58.5 34.5t58.5 37t26.5 48q0 32 -23.5 45.5t-56.5 13.5zM932 997
h166v-997h-159v158h-3q-61 -81 -150.5 -126t-198.5 -45q-102 0 -192 36.5t-155.5 101.5t-103.5 160t-38 207q0 146 62.5 264t174.5 185.5t251 67.5q103 0 191.5 -41t150.5 -119h4v148zM603 139q67 0 128 25.5t107 71t73 112t27 143.5q0 76 -25.5 143.5t-69.5 116.5
t-106 77.5t-132 28.5q-145 0 -241.5 -101t-96.5 -265q0 -153 93 -252.5t243 -99.5z" />
    <glyph glyph-name="uni1EA4" unicode="&#x1ea4;" horiz-adv-x="1396" 
d="M1401 1945l-294 -290h-134l241 289zM695 1757l-147 -183h-168l238 293h153l245 -293h-169l-148 183h-4zM608 1455h179l554 -1455h-188l-130 354h-649l-129 -354h-187zM431 510h535l-266 727h-4z" />
    <glyph glyph-name="uni1EA5" unicode="&#x1ea5;" horiz-adv-x="1245" 
d="M1268 1605l-294 -290h-134l241 289zM617 1321l-147 -183h-168l238 293h153l245 -293h-169l-148 183h-4zM932 849v148h166v-997h-159v158h-3q-61 -82 -150.5 -126.5t-198.5 -44.5q-102 0 -192 36.5t-155.5 101.5t-103.5 160t-38 207q0 146 62.5 264t174.5 185.5t251 67.5
q68 0 130.5 -18t116.5 -54t95 -88h4zM603 139q67 0 128 25.5t107 71t73 112t27 143.5q0 76 -25.5 143.5t-69.5 116.5t-106 77.5t-132 28.5q-145 0 -241.5 -101t-96.5 -265q0 -153 93 -252.5t243 -99.5z" />
    <glyph glyph-name="uni1EA6" unicode="&#x1ea6;" horiz-adv-x="1396" 
d="M1217 1656h-134l-254 290l187 -1zM697 1757l-147 -183h-168l238 293h153l245 -293h-169l-148 183h-4zM1153 0l-130 354h-649l-129 -354h-187l550 1455h179l554 -1455h-188zM431 510h535l-266 727h-4z" />
    <glyph glyph-name="uni1EA7" unicode="&#x1ea7;" horiz-adv-x="1245" 
d="M1059 1315h-134l-254 290l187 -1zM612 1321l-147 -183h-168l238 293h153l245 -293h-169l-148 183h-4zM932 997h166v-997h-159v158h-3q-61 -81 -150.5 -126t-198.5 -45q-102 0 -192 36.5t-155.5 101.5t-103.5 160t-38 207q0 146 62.5 264t174.5 185.5t251 67.5
q103 0 191.5 -41t150.5 -119h4v148zM603 139q67 0 128 25.5t107 71t73 112t27 143.5q0 76 -25.5 143.5t-69.5 116.5t-106 77.5t-132 28.5q-145 0 -241.5 -101t-96.5 -265q0 -153 93 -252.5t243 -99.5z" />
    <glyph glyph-name="uni1EA8" unicode="&#x1ea8;" horiz-adv-x="1396" 
d="M1104 1866q-27 0 -54 -8.5t-49.5 -23t-39.5 -33.5l-71 66q11 11 23.5 21.5t27 20t30.5 17.5t33.5 14.5t35.5 11t37.5 7t38.5 2.5q83 0 131.5 -43t48.5 -109q0 -40 -22.5 -72.5t-59 -54.5t-86.5 -37l-13 -56h-70q-9 9 -13 14t-9 12.5t-7 14.5t-2 15q0 22 25.5 42.5
t56 34.5t56 37t25.5 48q0 29 -21 44t-52 15zM694 1757l-147 -183h-168l238 293h153l245 -293h-169l-148 183h-4zM1153 0l-130 354h-649l-129 -354h-187l550 1455h179l554 -1455h-188zM431 510h535l-266 727h-4z" />
    <glyph glyph-name="uni1EA9" unicode="&#x1ea9;" horiz-adv-x="1245" 
d="M944 1538q-41 0 -79 -17.5t-64 -46.5l-71 66q39 41 99.5 67t126.5 26q55 0 96.5 -20t62.5 -54.5t21 -77.5q0 -58 -45.5 -99.5t-122.5 -64.5l-13 -55h-70q-11 11 -17 18t-10 17t-4 21q0 22 25.5 42.5t56 34.5t56 36.5t25.5 47.5q0 29 -21 44t-52 15zM616 1320l-147 -183
h-168l238 293h153l245 -293h-169l-148 183h-4zM932 849v148h166v-997h-159v158h-3q-61 -82 -150.5 -126.5t-198.5 -44.5q-102 0 -192 36.5t-155.5 101.5t-103.5 160t-38 207q0 146 62.5 264t174.5 185.5t251 67.5q103 0 191.5 -41t150.5 -119h4zM603 139q67 0 128 25.5
t107 71t73 112t27 143.5q0 76 -25.5 143.5t-69.5 116.5t-106 77.5t-132 28.5q-145 0 -241.5 -101t-96.5 -265q0 -153 93 -252.5t243 -99.5z" />
    <glyph glyph-name="uni1EAA" unicode="&#x1eaa;" horiz-adv-x="1396" 
d="M572 1881q-27 0 -52 -21.5t-42 -60.5l-91 31q24 69 68.5 107.5t101.5 38.5q30 0 61.5 -10t45 -17t46.5 -26q62 -35 99 -35q33 0 60.5 20.5t43.5 61.5l89 -25q-16 -49 -43 -84t-60.5 -52t-72.5 -17q-60 0 -144 48q-26 15 -38.5 21t-33.5 13t-38 7zM690 1668l-154 -163
h-159l238 250h153l245 -250h-159l-154 163h-10zM1153 0l-130 354h-649l-129 -354h-187l550 1455h179l554 -1455h-188zM431 510h535l-266 727h-4z" />
    <glyph glyph-name="uni1EAB" unicode="&#x1eab;" horiz-adv-x="1245" 
d="M486 1583q-31 0 -60 -30t-48 -82l-107 47q29 94 81 148t117 54q12 0 23 -1t22 -3.5t19 -4.5t18.5 -6.5t16.5 -7.5t16.5 -9t15 -8.5t15.5 -10t15 -9.5l21 -14q15 -10 22 -14.5t20 -12t22 -10.5t21.5 -6t23.5 -3q25 0 47 12.5t40.5 38t31.5 62.5l105 -36q-14 -51 -35 -91
t-47.5 -67t-57.5 -41.5t-65 -14.5q-33 0 -68.5 12.5t-55.5 24.5t-55 35q-6 3 -19.5 12t-19 12t-17 9t-19 8.5t-18 4.5t-21.5 2zM537 1430h153l245 -293h-169l-148 183h-4l-147 -183h-168zM932 997h166v-997h-159v158h-3q-61 -82 -150.5 -126.5t-198.5 -44.5
q-102 0 -192 36.5t-155.5 101.5t-103.5 160t-38 207q0 146 62.5 264t174.5 185.5t251 67.5q68 0 130.5 -18t116.5 -54t95 -88h4v148zM603 139q67 0 128 25.5t107 71t73 112t27 143.5q0 76 -25.5 143.5t-69.5 116.5t-106 77.5t-132 28.5q-145 0 -241.5 -101t-96.5 -265
q0 -153 93 -252.5t243 -99.5z" />
    <glyph glyph-name="uni1EAC" unicode="&#x1eac;" horiz-adv-x="1396" 
d="M694 1800l-147 -183h-168l238 293h153l245 -293h-169l-148 183h-4zM1341 0h-188l-130 354h-649l-129 -354h-187l550 1455h179zM431 510h535l-266 727h-4zM698 -228q50 0 84 -34t34 -82q0 -24 -9 -45.5t-24.5 -37.5t-37.5 -25t-47 -9q-49 0 -83.5 34t-34.5 83
q0 24 9.5 45.5t25 37t37.5 24.5t46 9z" />
    <glyph glyph-name="uni1EAD" unicode="&#x1ead;" horiz-adv-x="1245" 
d="M615 1320l-147 -183h-168l238 293h153l245 -293h-169l-148 183h-4zM932 997h166v-997h-159v158h-3q-61 -81 -150.5 -126t-198.5 -45q-102 0 -192 36.5t-155.5 101.5t-103.5 160t-38 207q0 146 62.5 264t174.5 185.5t251 67.5q103 0 191.5 -41t150.5 -119h4v148zM603 139
q67 0 128 25.5t107 71t73 112t27 143.5q0 76 -25.5 143.5t-69.5 116.5t-106 77.5t-132 28.5q-145 0 -241.5 -101t-96.5 -265q0 -153 93 -252.5t243 -99.5zM604 -228q50 0 84 -34t34 -82q0 -24 -9 -45.5t-24.5 -37.5t-37.5 -25t-47 -9q-49 0 -83.5 34t-34.5 83q0 24 9.5 45.5
t25 37t37.5 24.5t46 9z" />
    <glyph glyph-name="uni1EAE" unicode="&#x1eae;" horiz-adv-x="1396" 
d="M1050 1939l-289 -212l-146 1l249 211h186zM697 1530q-112 0 -192.5 59t-112.5 164h119q24 -59 72 -90t114 -31q44 0 80.5 13.5t63.5 41t43 66.5h119q-21 -70 -64.5 -120t-105 -76.5t-136.5 -26.5zM1153 0l-130 354h-649l-129 -354h-187l550 1455h179l554 -1455h-188z
M431 510h535l-266 727h-4z" />
    <glyph glyph-name="uni1EAF" unicode="&#x1eaf;" horiz-adv-x="1245" 
d="M912 1736l-255 -290h-174l240 289zM617 1134q-118 0 -202.5 76t-93.5 210h134q5 -72 47.5 -118t114.5 -46q70 0 113.5 45.5t47.5 118.5h134q-6 -85 -45 -150.5t-104 -100.5t-146 -35zM932 997h166v-997h-159v158h-3q-61 -81 -150.5 -126t-198.5 -45q-102 0 -192 36.5
t-155.5 101.5t-103.5 160t-38 207q0 146 62.5 264t174.5 185.5t251 67.5q103 0 191.5 -41t150.5 -119h4v148zM603 139q67 0 128 25.5t107 71t73 112t27 143.5q0 76 -25.5 143.5t-69.5 116.5t-106 77.5t-132 28.5q-145 0 -241.5 -101t-96.5 -265q0 -153 93 -252.5t243 -99.5z
" />
    <glyph glyph-name="uni1EB0" unicode="&#x1eb0;" horiz-adv-x="1396" 
d="M783 1728l-146 -1l-288 212h185zM512 1753q24 -59 72.5 -90t114.5 -31q26 0 49.5 5t44 15t38 24.5t31 33.5t23.5 43h119q-32 -105 -112.5 -164t-192.5 -59q-75 0 -136.5 26.5t-105 76.5t-64.5 120h119zM1153 0l-130 354h-649l-129 -354h-187l550 1455h179l554 -1455h-188
zM431 510h535l-266 727h-4z" />
    <glyph glyph-name="uni1EB1" unicode="&#x1eb1;" horiz-adv-x="1245" 
d="M703 1446h-175l-254 290l189 -1zM459 1420q5 -72 47.5 -118t114.5 -46q70 0 113.5 45t47.5 119h134q-9 -129 -90.5 -207.5t-204.5 -78.5q-118 0 -202.5 76t-93.5 210h134zM932 997h166v-997h-159v158h-3q-61 -82 -150.5 -126.5t-198.5 -44.5q-102 0 -192 36.5
t-155.5 101.5t-103.5 160t-38 207q0 146 62.5 264t174.5 185.5t251 67.5q68 0 130.5 -18t116.5 -54t95 -88h4v148zM603 139q67 0 128 25.5t107 71t73 112t27 143.5q0 76 -25.5 143.5t-69.5 116.5t-106 77.5t-132 28.5q-145 0 -241.5 -101t-96.5 -265q0 -153 93 -252.5
t243 -99.5z" />
    <glyph glyph-name="uni1EB2" unicode="&#x1eb2;" horiz-adv-x="1396" 
d="M702 1892q-39 0 -74 -16.5t-59 -43.5l-64 59q36 38 91 62t116 24q69 0 112 -36t43 -93q0 -48 -40 -84t-105 -59l-11 -38h-44q-35 9 -35 38q0 17 14 31.5t33.5 26t39 23.5t33.5 27t14 33q0 46 -64 46zM698 1530q-113 0 -193.5 59t-112.5 164h119q24 -59 72.5 -90
t114.5 -31t114 31t72 90h119q-32 -105 -112.5 -164t-192.5 -59zM1153 0l-130 354h-649l-129 -354h-187l550 1455h179l554 -1455h-188zM431 510h535l-266 727h-4z" />
    <glyph glyph-name="uni1EB3" unicode="&#x1eb3;" horiz-adv-x="1245" 
d="M630 1678q-41 0 -79 -18t-64 -47l-71 66q39 41 99.5 67.5t126.5 26.5q88 0 137.5 -42.5t49.5 -109.5q0 -59 -46.5 -100t-128.5 -64l-13 -56h-70q-12 12 -17 18.5t-9.5 16.5t-4.5 21q0 22 26.5 42.5t58.5 34.5t58.5 37t26.5 48q0 32 -23.5 45.5t-56.5 13.5zM623 1134
q-118 0 -202.5 76t-93.5 210h134q5 -72 47.5 -118t114.5 -46q70 0 113.5 45.5t47.5 118.5h134q-6 -85 -45 -150.5t-104 -100.5t-146 -35zM932 997h166v-997h-159v158h-3q-61 -81 -150.5 -126t-198.5 -45q-102 0 -192 36.5t-155.5 101.5t-103.5 160t-38 207q0 146 62.5 264
t174.5 185.5t251 67.5q103 0 191.5 -41t150.5 -119h4v148zM603 139q67 0 128 25.5t107 71t73 112t27 143.5q0 76 -25.5 143.5t-69.5 116.5t-106 77.5t-132 28.5q-145 0 -241.5 -101t-96.5 -265q0 -153 93 -252.5t243 -99.5z" />
    <glyph glyph-name="uni1EB4" unicode="&#x1eb4;" horiz-adv-x="1396" 
d="M572 1881q-27 0 -52 -21.5t-42 -60.5l-91 31q24 69 68.5 107.5t101.5 38.5q30 0 61.5 -10t45 -17t46.5 -26q62 -35 99 -35q33 0 60.5 20.5t43.5 61.5l89 -25q-16 -49 -43 -84t-60.5 -52t-72.5 -17q-60 0 -144 48q-26 15 -38.5 21t-33.5 13t-38 7zM699 1632q66 0 114 31
t73 90h119q-33 -106 -113 -164.5t-193 -58.5q-75 0 -136.5 26.5t-105 76.5t-64.5 120h119q24 -59 72.5 -90t114.5 -31zM1153 0l-130 354h-649l-129 -354h-187l550 1455h179l554 -1455h-188zM431 510h535l-266 727h-4z" />
    <glyph glyph-name="uni1EB5" unicode="&#x1eb5;" horiz-adv-x="1245" 
d="M485 1583q-31 0 -60 -30t-48 -82l-107 47q14 46 34.5 83t45.5 63.5t55 41t63 14.5q14 0 27 -1.5t22.5 -3.5t22 -7t19 -7t19.5 -9.5t16.5 -9.5t18 -11.5t16.5 -10.5l21 -14q15 -10 22 -14.5t20 -12t22 -10.5t21.5 -6t23.5 -3q18 0 35.5 7.5t32.5 21.5t28 35.5t23 48.5
l105 -36q-18 -67 -49 -115.5t-71 -73.5t-85 -25q-25 0 -49.5 5.5t-49 18.5t-39.5 22t-41 26q-6 3 -19.5 12t-19 12t-17 9t-19 8.5t-18 4.5t-21.5 2zM618 1256q70 0 113.5 45.5t47.5 118.5h134q-6 -85 -45 -150.5t-104 -100.5t-146 -35q-118 0 -202.5 76t-93.5 210h134
q5 -72 47.5 -118t114.5 -46zM932 997h166v-997h-159v158h-3q-61 -81 -150.5 -126t-198.5 -45q-102 0 -192 36.5t-155.5 101.5t-103.5 160t-38 207q0 146 62.5 264t174.5 185.5t251 67.5q103 0 191.5 -41t150.5 -119h4v148zM603 139q67 0 128 25.5t107 71t73 112t27 143.5
q0 76 -25.5 143.5t-69.5 116.5t-106 77.5t-132 28.5q-145 0 -241.5 -101t-96.5 -265q0 -153 93 -252.5t243 -99.5z" />
    <glyph glyph-name="uni1EB6" unicode="&#x1eb6;" horiz-adv-x="1396" 
d="M698 1615q-118 0 -202.5 76t-93.5 210h134q5 -72 47.5 -118t114.5 -46q70 0 113.5 45.5t47.5 118.5h134q-6 -85 -45 -150.5t-104 -100.5t-146 -35zM1341 0h-188l-130 354h-649l-129 -354h-187l550 1455h179zM431 510h535l-266 727h-4zM698 -228q50 0 84 -34t34 -82
q0 -49 -34 -83t-84 -34q-49 0 -83.5 34t-34.5 83q0 48 34.5 82t83.5 34z" />
    <glyph glyph-name="uni1EB7" unicode="&#x1eb7;" horiz-adv-x="1245" 
d="M619 1135q-118 0 -202.5 76t-93.5 210h134q5 -72 47.5 -118t114.5 -46q70 0 113.5 45.5t47.5 118.5h134q-6 -85 -45 -150.5t-104 -100.5t-146 -35zM932 997h166v-997h-159v158h-3q-61 -82 -150.5 -126.5t-198.5 -44.5q-102 0 -192 36.5t-155.5 101.5t-103.5 160t-38 207
q0 146 62.5 264t174.5 185.5t251 67.5q103 0 191.5 -41t150.5 -119h4v148zM603 139q67 0 128 25.5t107 71t73 112t27 143.5q0 76 -25.5 143.5t-69.5 116.5t-106 77.5t-132 28.5q-145 0 -241.5 -101t-96.5 -265q0 -153 93 -252.5t243 -99.5zM604 -228q50 0 84 -34t34 -82
q0 -24 -9 -45.5t-24.5 -37.5t-37.5 -25t-47 -9q-49 0 -83.5 34t-34.5 83q0 24 9.5 45.5t25 37t37.5 24.5t46 9z" />
    <glyph glyph-name="uni1EB8" unicode="&#x1eb8;" horiz-adv-x="1224" 
d="M185 0v1455h890v-164h-711v-487h584v-164h-584v-476h754v-164h-933zM656 -228q50 0 84 -34t34 -82q0 -24 -9 -45.5t-24.5 -37.5t-37.5 -25t-47 -9q-49 0 -83.5 34t-34.5 83q0 24 9.5 45.5t25 37t37.5 24.5t46 9z" />
    <glyph glyph-name="uni1EB9" unicode="&#x1eb9;" horiz-adv-x="1130" 
d="M1037 514q0 -38 -5 -68h-766q16 -139 107 -222.5t225 -83.5q89 0 160 36.5t121 97.5l116 -99q-67 -87 -169.5 -137.5t-233.5 -50.5q-105 0 -196.5 37.5t-157.5 103.5t-104 162t-38 208q0 111 37 206.5t100.5 162t151.5 104.5t188 38q137 0 243 -64t163.5 -176.5
t57.5 -254.5zM582 856q-118 0 -203.5 -73.5t-108.5 -198.5h602q-20 124 -96.5 198t-193.5 74zM603 -228q50 0 84 -34t34 -82q0 -32 -15.5 -59t-42.5 -42.5t-60 -15.5q-49 0 -83.5 34t-34.5 83q0 24 9.5 45.5t25 37t37.5 24.5t46 9z" />
    <glyph glyph-name="uni1EBA" unicode="&#x1eba;" horiz-adv-x="1224" 
d="M587 1570q-12 12 -17 18.5t-9.5 16.5t-4.5 21q0 22 26.5 42.5t58.5 34.5t58.5 37t26.5 48q0 32 -23.5 45.5t-56.5 13.5q-41 0 -79 -18t-64 -47l-71 66q19 20 44 37t53.5 30t62 20t66.5 7q88 0 137.5 -42.5t49.5 -109.5q0 -59 -46.5 -100t-128.5 -64l-13 -56h-70zM185 0
v1455h890v-164h-711v-487h584v-164h-584v-476h754v-164h-933z" />
    <glyph glyph-name="uni1EBB" unicode="&#x1ebb;" horiz-adv-x="1130" 
d="M596 1367q-41 0 -79 -18t-64 -47l-71 66q39 41 99.5 67.5t126.5 26.5q87 0 137 -42.5t50 -109.5q0 -59 -46.5 -100t-128.5 -64l-13 -56h-70q-12 12 -17 18.5t-9.5 16.5t-4.5 21q0 22 26.5 42.5t58.5 34.5t58.5 37t26.5 48q0 32 -23.5 45.5t-56.5 13.5zM1037 514
q0 -38 -5 -68h-766q16 -139 107 -222.5t225 -83.5q89 0 160 36.5t121 97.5l116 -99q-67 -87 -169.5 -137.5t-233.5 -50.5q-105 0 -196.5 37.5t-157.5 103.5t-104 162t-38 208q0 111 37 206.5t100.5 162t151.5 104.5t188 38q137 0 243 -64t163.5 -176.5t57.5 -254.5zM582 856
q-118 0 -203.5 -73.5t-108.5 -198.5h602q-20 124 -96.5 198t-193.5 74z" />
    <glyph glyph-name="uni1EBC" unicode="&#x1ebc;" horiz-adv-x="1224" 
d="M799 1632q-33 0 -68.5 12.5t-55.5 24.5t-55 35q-39 24 -66 36t-54 12q-80 0 -122 -112l-107 47q30 95 83 148.5t129 53.5q34 0 67 -10.5t50.5 -20t49.5 -29.5q5 -4 20.5 -14t22.5 -14.5t20 -12t22 -10.5t21.5 -6t23.5 -3q37 0 68.5 29t50.5 84l105 -36
q-28 -101 -82 -157.5t-123 -56.5zM185 0v1455h890v-164h-711v-487h584v-164h-584v-476h754v-164h-933z" />
    <glyph glyph-name="uni1EBD" unicode="&#x1ebd;" horiz-adv-x="1130" 
d="M450 1272q-80 0 -122 -112l-107 47q30 95 83 148.5t129 53.5q34 0 67 -10.5t50.5 -20t49.5 -29.5q5 -4 20.5 -14t22.5 -14.5t20 -12t22 -10.5t21.5 -6t23.5 -3q37 0 68.5 29t50.5 84l105 -36q-28 -101 -82 -157.5t-123 -56.5q-33 0 -68.5 12.5t-55.5 24.5t-55 35
q-39 24 -66 36t-54 12zM1037 514q0 -38 -5 -68h-766q10 -92 55 -161.5t116.5 -107t160.5 -37.5t160 36.5t121 97.5l116 -99q-67 -87 -169.5 -137.5t-233.5 -50.5q-105 0 -196.5 37.5t-157.5 103.5t-104 162t-38 208q0 111 37 206.5t100.5 162t151.5 104.5t188 38
q137 0 243 -64t163.5 -176.5t57.5 -254.5zM582 856q-118 0 -203.5 -73.5t-108.5 -198.5h602q-20 124 -96.5 198t-193.5 74z" />
    <glyph glyph-name="uni1EBE" unicode="&#x1ebe;" horiz-adv-x="1224" 
d="M1341 1945l-294 -290h-134l241 289zM635 1757l-147 -183h-168l238 293h153l245 -293h-169l-148 183h-4zM364 640v-476h754v-164h-933v1455h890v-164h-711v-487h584v-164h-584z" />
    <glyph glyph-name="uni1EBF" unicode="&#x1ebf;" horiz-adv-x="1130" 
d="M1237 1605l-294 -290h-134l241 289zM586 1321l-147 -183h-168l238 293h153l245 -293h-169l-148 183h-4zM573 1009q137 0 243 -64t163.5 -176.5t57.5 -254.5q0 -38 -5 -68h-766q16 -139 107 -222.5t225 -83.5q89 0 160.5 36.5t120.5 97.5l116 -99q-67 -87 -169.5 -137.5
t-233.5 -50.5q-105 0 -196.5 37.5t-157.5 103.5t-104 162t-38 208q0 111 37 206.5t100.5 162t151.5 104.5t188 38zM582 856q-118 0 -203.5 -73.5t-108.5 -198.5h602q-20 124 -96.5 198t-193.5 74z" />
    <glyph glyph-name="uni1EC0" unicode="&#x1ec0;" horiz-adv-x="1224" 
d="M1157 1656h-134l-254 290l187 -1zM637 1757l-147 -183h-168l238 293h153l245 -293h-169l-148 183h-4zM364 640v-476h754v-164h-933v1455h890v-164h-711v-487h584v-164h-584z" />
    <glyph glyph-name="uni1EC1" unicode="&#x1ec1;" horiz-adv-x="1130" 
d="M1028 1315h-134l-254 290l187 -1zM581 1321l-147 -183h-168l238 293h153l245 -293h-169l-148 183h-4zM1037 514q0 -38 -5 -68h-766q16 -139 107 -222.5t225 -83.5q89 0 160 36.5t121 97.5l116 -99q-67 -87 -169.5 -137.5t-233.5 -50.5q-105 0 -196.5 37.5t-157.5 103.5
t-104 162t-38 208q0 111 37 206.5t100.5 162t151.5 104.5t188 38q137 0 243 -64t163.5 -176.5t57.5 -254.5zM582 856q-118 0 -203.5 -73.5t-108.5 -198.5h602q-20 124 -96.5 198t-193.5 74z" />
    <glyph glyph-name="uni1EC2" unicode="&#x1ec2;" horiz-adv-x="1224" 
d="M1056 1961q83 0 131.5 -43t48.5 -109q0 -59 -45.5 -100t-122.5 -64l-13 -56h-70q-12 12 -17 18.5t-9.5 16.5t-4.5 21q0 22 25.5 42.5t56 34.5t56 37t25.5 48q0 29 -21 44t-52 15q-41 0 -79 -18t-64 -47l-71 66q39 41 99.5 67.5t126.5 26.5zM634 1757l-147 -183h-168
l238 293h153l245 -293h-169l-148 183h-4zM364 640v-476h754v-164h-933v1455h890v-164h-711v-487h584v-164h-584z" />
    <glyph glyph-name="uni1EC3" unicode="&#x1ec3;" horiz-adv-x="1130" 
d="M925 1633q41 0 75.5 -11.5t57 -32t35 -48.5t12.5 -60q0 -39 -22 -72t-59 -55t-87 -37l-13 -55h-70q-16 16 -23.5 28t-7.5 28q0 22 25.5 42.5t56 34.5t56 36.5t25.5 47.5q0 29 -21 44t-52 15q-41 0 -79 -17.5t-64 -46.5l-71 66q39 41 99.5 67t126.5 26zM585 1320
l-147 -183h-168l238 293h153l245 -293h-169l-148 183h-4zM573 1009q103 0 189.5 -37.5t147 -103t94 -157t33.5 -197.5q0 -38 -5 -68h-766q10 -92 55 -161.5t116.5 -107t160.5 -37.5t160 36.5t121 97.5l116 -99q-67 -87 -169.5 -137.5t-233.5 -50.5q-105 0 -196.5 37.5
t-157.5 103.5t-104 162t-38 208q0 111 37 206.5t100.5 162t151.5 104.5t188 38zM582 856q-118 0 -203.5 -73.5t-108.5 -198.5h602q-20 124 -96.5 198t-193.5 74z" />
    <glyph glyph-name="uni1EC4" unicode="&#x1ec4;" horiz-adv-x="1224" 
d="M512 1881q-27 0 -52 -21.5t-42 -60.5l-91 31q24 69 68.5 107.5t101.5 38.5q30 0 61.5 -10t45 -17t46.5 -26q62 -35 99 -35q33 0 60.5 20.5t43.5 61.5l89 -25q-12 -37 -30 -66t-41 -48t-49.5 -29t-55.5 -10q-60 0 -144 48q-26 15 -38.5 21t-33.5 13t-38 7zM630 1668
l-154 -163h-159l238 250h153l245 -250h-159l-154 163h-10zM364 164h754v-164h-933v1455h890v-164h-711v-487h584v-164h-584v-476z" />
    <glyph glyph-name="uni1EC5" unicode="&#x1ec5;" horiz-adv-x="1130" 
d="M455 1583q-15 0 -30.5 -7.5t-29.5 -22t-26 -35.5t-22 -47l-107 47q29 94 81 148t117 54q14 0 27 -1.5t22.5 -3.5t22 -7t19 -7t19.5 -9.5t16.5 -9.5t18 -11.5t16.5 -10.5l21 -14q15 -10 22 -14.5t20 -12t22 -10.5t21.5 -6t23.5 -3q37 0 68.5 29t50.5 84l105 -36
q-28 -101 -82 -157.5t-123 -56.5q-33 0 -68.5 12.5t-55.5 24.5t-55 35q-6 3 -19.5 12t-19 12t-17 9t-19 8.5t-18 4.5t-21.5 2zM506 1430h153l245 -293h-169l-148 183h-4l-147 -183h-168zM1037 514q0 -38 -5 -68h-766q16 -139 107 -222.5t225 -83.5q89 0 160 36.5t121 97.5
l116 -99q-67 -87 -169.5 -137.5t-233.5 -50.5q-105 0 -196.5 37.5t-157.5 103.5t-104 162t-38 208q0 111 37 206.5t100.5 162t151.5 104.5t188 38q137 0 243 -64t163.5 -176.5t57.5 -254.5zM582 856q-118 0 -203.5 -73.5t-108.5 -198.5h602q-20 124 -96.5 198t-193.5 74z
" />
    <glyph glyph-name="uni1EC6" unicode="&#x1ec6;" horiz-adv-x="1224" 
d="M634 1800l-147 -183h-168l238 293h153l245 -293h-169l-148 183h-4zM364 164h754v-164h-933v1455h890v-164h-711v-487h584v-164h-584v-476zM656 -228q50 0 84 -34t34 -82q0 -24 -9 -45.5t-24.5 -37.5t-37.5 -25t-47 -9q-49 0 -83.5 34t-34.5 83q0 24 9.5 45.5t25 37
t37.5 24.5t46 9z" />
    <glyph glyph-name="uni1EC7" unicode="&#x1ec7;" horiz-adv-x="1130" 
d="M584 1320l-147 -183h-168l238 293h153l245 -293h-169l-148 183h-4zM1037 514q0 -38 -5 -68h-766q16 -139 107 -222.5t225 -83.5q89 0 160 36.5t121 97.5l116 -99q-67 -87 -169.5 -137.5t-233.5 -50.5q-105 0 -196.5 37.5t-157.5 103.5t-104 162t-38 208q0 111 37 206.5
t100.5 162t151.5 104.5t188 38q137 0 243 -64t163.5 -176.5t57.5 -254.5zM582 856q-118 0 -203.5 -73.5t-108.5 -198.5h602q-20 124 -96.5 198t-193.5 74zM603 -228q50 0 84 -34t34 -82q0 -19 -6 -37t-16.5 -32.5t-25 -25t-32.5 -16.5t-38 -6q-49 0 -83.5 34t-34.5 83
q0 24 9.5 45.5t25 37t37.5 24.5t46 9z" />
    <glyph glyph-name="uni1EC8" unicode="&#x1ec8;" horiz-adv-x="569" 
d="M231 1570q-12 12 -17 18.5t-9.5 16.5t-4.5 21q0 22 26.5 42.5t58.5 34.5t58.5 37t26.5 48q0 32 -23.5 45.5t-56.5 13.5q-41 0 -79 -18t-64 -47l-71 66q39 41 99.5 67.5t126.5 26.5q88 0 137.5 -42.5t49.5 -109.5q0 -59 -46.5 -100t-128.5 -64l-13 -56h-70zM195 0v1455
h179v-1455h-179z" />
    <glyph glyph-name="uni1EC9" unicode="&#x1ec9;" horiz-adv-x="512" 
d="M206 1090q-9 9 -13 14t-9 12.5t-7 14.5t-2 15q0 22 26.5 42.5t58.5 34.5t58.5 37t26.5 48q0 32 -23.5 45.5t-56.5 13.5q-41 0 -79 -18t-64 -47l-71 66q39 41 99.5 67.5t126.5 26.5q88 0 137.5 -42.5t49.5 -109.5q0 -59 -46.5 -100t-128.5 -64l-13 -56h-70zM173 0v997h165
v-997h-165z" />
    <glyph glyph-name="uni1ECA" unicode="&#x1eca;" horiz-adv-x="569" 
d="M195 0v1455h179v-1455h-179zM279 -228q50 0 84 -34t34 -82q0 -49 -34 -83t-84 -34q-49 0 -83.5 34t-34.5 83q0 48 34.5 82t83.5 34z" />
    <glyph glyph-name="uni1ECB" unicode="&#x1ecb;" horiz-adv-x="512" 
d="M257 1182q-50 0 -84 34t-34 82q0 49 34 83t84 34q32 0 59 -15.5t43 -42.5t16 -59q0 -48 -34.5 -82t-83.5 -34zM173 0v997h165v-997h-165zM254 -228q50 0 84 -34t34 -82q0 -49 -34 -83t-84 -34q-49 0 -83.5 34t-34.5 83q0 48 34.5 82t83.5 34z" />
    <glyph glyph-name="uni1ECC" unicode="&#x1ecc;" horiz-adv-x="1697" 
d="M851 -13q-160 0 -297 57t-231.5 156t-148 235.5t-53.5 292.5t53.5 292.5t148 235t231.5 155.5t297 57q152 0 286 -54t230.5 -149.5t152.5 -234.5t56 -302t-56 -302t-152.5 -235t-230.5 -150t-286 -54zM851 157q112 0 211.5 42.5t172 117t114.5 181.5t42 230t-42 230
t-114.5 181.5t-172 116.5t-211.5 42q-95 0 -180.5 -29t-151.5 -81.5t-114 -123t-73.5 -156.5t-25.5 -180q0 -118 40 -222.5t110.5 -181.5t173 -122t221.5 -45zM851 -228q33 0 60 -15.5t42.5 -42t15.5 -58.5q0 -49 -34 -83t-84 -34q-49 0 -83.5 34t-34.5 83q0 48 34.5 82
t83.5 34z" />
    <glyph glyph-name="uni1ECD" unicode="&#x1ecd;" horiz-adv-x="1222" 
d="M612 -13q-114 0 -211 39.5t-163.5 108t-104 162t-37.5 200.5t37.5 201.5t104 163t163.5 108t211 39.5q146 0 263 -64t183.5 -181.5t66.5 -266.5q0 -148 -66.5 -265t-183.5 -181t-263 -64zM612 140q95 0 174 45t125 127t46 185q0 104 -46 186.5t-124.5 127.5t-174.5 45
q-102 0 -182 -48t-123 -130t-43 -181q0 -98 43.5 -179.5t123.5 -129.5t181 -48zM611 -228q33 0 60 -15.5t42.5 -42t15.5 -58.5q0 -49 -34 -83t-84 -34q-49 0 -83.5 34t-34.5 83q0 48 34.5 82t83.5 34z" />
    <glyph glyph-name="uni1ECE" unicode="&#x1ece;" horiz-adv-x="1697" 
d="M800 1570q-12 12 -17 18.5t-9.5 16.5t-4.5 21q0 22 26.5 42.5t58.5 34.5t58.5 37t26.5 48q0 32 -23.5 45.5t-56.5 13.5q-41 0 -79 -18t-64 -47l-71 66q39 41 99.5 67.5t126.5 26.5q88 0 137.5 -42.5t49.5 -109.5q0 -30 -12.5 -56t-36.5 -46t-55 -35.5t-71 -26.5l-13 -56
h-70zM851 -13q-160 0 -297 57t-231.5 156t-148 235.5t-53.5 292.5t53.5 292.5t148 235t231.5 155.5t297 57q152 0 286 -54t230.5 -149.5t152.5 -234.5t56 -302t-56 -302t-152.5 -235t-230.5 -150t-286 -54zM851 157q112 0 211.5 42.5t172 117t114.5 181.5t42 230t-42 230
t-114.5 181.5t-172 116.5t-211.5 42q-119 0 -221.5 -45t-173 -122t-110.5 -181.5t-40 -221.5q0 -118 40 -222.5t110.5 -181.5t173 -122t221.5 -45z" />
    <glyph glyph-name="uni1ECF" unicode="&#x1ecf;" horiz-adv-x="1222" 
d="M561 1090q-12 12 -17 18.5t-9.5 16.5t-4.5 21q0 22 26.5 42.5t58.5 34.5t58.5 37t26.5 48q0 32 -23.5 45.5t-56.5 13.5q-41 0 -79 -18t-64 -47l-71 66q39 41 99.5 67.5t126.5 26.5q58 0 101 -20t64.5 -54.5t21.5 -77.5q0 -59 -46.5 -100t-128.5 -64l-13 -56h-70zM612 -13
q-114 0 -211 39.5t-163.5 108t-104 162t-37.5 200.5t37.5 201.5t104 163t163.5 108t211 39.5q146 0 263 -64t183.5 -181.5t66.5 -266.5q0 -148 -66.5 -265t-183.5 -181t-263 -64zM612 140q95 0 174 45t125 127t46 185q0 104 -46 186.5t-124.5 127.5t-174.5 45
q-102 0 -182 -48t-123 -130t-43 -181q0 -98 43.5 -179.5t123.5 -129.5t181 -48z" />
    <glyph glyph-name="uni1ED0" unicode="&#x1ed0;" horiz-adv-x="1697" 
d="M1554 1945l-294 -290h-134l241 289zM848 1757l-147 -183h-168l238 293h153l245 -293h-169l-148 183h-4zM851 1468q153 0 286.5 -54t230 -149.5t152.5 -234.5t56 -302t-56 -302t-152.5 -235t-230.5 -150t-286 -54q-160 0 -297 57t-231.5 156t-148 235.5t-53.5 292.5
t53.5 292.5t148 235t231.5 155.5t297 57zM851 157q112 0 211.5 42.5t172 117t114.5 181.5t42 230t-42 230t-114.5 181.5t-172 116.5t-211.5 42q-119 0 -221.5 -45t-173 -122t-110.5 -181.5t-40 -221.5q0 -118 40 -222.5t110.5 -181.5t173 -122t221.5 -45z" />
    <glyph glyph-name="uni1ED1" unicode="&#x1ed1;" horiz-adv-x="1222" 
d="M1261 1605l-294 -290h-134l241 289zM610 1321l-147 -183h-168l238 293h153l245 -293h-169l-148 183h-4zM612 1009q146 0 263 -64t183.5 -181.5t66.5 -266.5q0 -148 -66.5 -265t-183.5 -181t-263 -64q-114 0 -211 39.5t-163.5 108t-104 162t-37.5 200.5t37.5 201.5
t104 163t163.5 108t211 39.5zM612 140q95 0 174 45t125 127t46 185q0 104 -46 186.5t-124.5 127.5t-174.5 45q-102 0 -182 -48t-123 -130t-43 -181q0 -98 43.5 -179.5t123.5 -129.5t181 -48z" />
    <glyph glyph-name="uni1ED2" unicode="&#x1ed2;" horiz-adv-x="1697" 
d="M1370 1656h-134l-254 290l187 -1zM850 1757l-147 -183h-168l238 293h153l245 -293h-169l-148 183h-4zM851 1468q153 0 286.5 -54t230 -149.5t152.5 -234.5t56 -302t-56 -302t-152.5 -235t-230.5 -150t-286 -54q-160 0 -297 57t-231.5 156t-148 235.5t-53.5 292.5
t53.5 292.5t148 235t231.5 155.5t297 57zM851 157q112 0 211.5 42.5t172 117t114.5 181.5t42 230t-42 230t-114.5 181.5t-172 116.5t-211.5 42q-95 0 -180.5 -29t-151.5 -81.5t-114 -123t-73.5 -156.5t-25.5 -180q0 -118 40 -222.5t110.5 -181.5t173 -122t221.5 -45z" />
    <glyph glyph-name="uni1ED3" unicode="&#x1ed3;" horiz-adv-x="1222" 
d="M1052 1315h-134l-254 290l187 -1zM605 1321l-147 -183h-168l238 293h153l245 -293h-169l-148 183h-4zM612 1009q146 0 263 -64t183.5 -181.5t66.5 -266.5q0 -148 -66.5 -265t-183.5 -181t-263 -64q-114 0 -211 39.5t-163.5 108t-104 162t-37.5 200.5t37.5 201.5t104 163
t163.5 108t211 39.5zM612 140q95 0 174 45t125 127t46 185q0 104 -46 186.5t-124.5 127.5t-174.5 45q-102 0 -182 -48t-123 -130t-43 -181q0 -98 43.5 -179.5t123.5 -129.5t181 -48z" />
    <glyph glyph-name="uni1ED4" unicode="&#x1ed4;" horiz-adv-x="1697" 
d="M1257 1866q-41 0 -79 -18t-64 -47l-71 66q39 41 99.5 67.5t126.5 26.5q83 0 131.5 -43t48.5 -109q0 -40 -22.5 -72.5t-59 -54.5t-86.5 -37l-13 -56h-70q-12 12 -17 18.5t-9.5 16.5t-4.5 21q0 22 25.5 42.5t56 34.5t56 37t25.5 48q0 29 -21 44t-52 15zM847 1757l-147 -183
h-168l238 293h153l245 -293h-169l-148 183h-4zM851 1468q152 0 286 -54t230.5 -149.5t152.5 -234.5t56 -302t-56 -302t-152.5 -235t-230.5 -150t-286 -54q-160 0 -297 57t-231.5 156t-148 235.5t-53.5 292.5t53.5 292.5t148 235t231.5 155.5t297 57zM851 157
q112 0 211.5 42.5t171.5 117t114.5 181.5t42.5 230t-42 230t-114.5 181.5t-172 116.5t-211.5 42q-95 0 -180.5 -29t-151.5 -81.5t-114 -123t-73.5 -156.5t-25.5 -180q0 -118 40 -222.5t110.5 -181.5t173 -122t221.5 -45z" />
    <glyph glyph-name="uni1ED5" unicode="&#x1ed5;" horiz-adv-x="1222" 
d="M937 1538q-41 0 -79 -17.5t-64 -46.5l-71 66q39 41 99.5 67t126.5 26q55 0 96.5 -20t62.5 -54.5t21 -77.5q0 -58 -45.5 -99.5t-122.5 -64.5l-13 -55h-70q-16 16 -23.5 28t-7.5 28q0 22 25.5 42.5t56 34.5t56 36.5t25.5 47.5q0 29 -21 44t-52 15zM609 1320l-147 -183h-168
l238 293h153l245 -293h-169l-148 183h-4zM612 1009q146 0 263 -64t183.5 -181.5t66.5 -266.5q0 -148 -66.5 -265t-183.5 -181t-263 -64q-114 0 -211 39.5t-163.5 108t-104 162t-37.5 200.5t37.5 201.5t104 163t163.5 108t211 39.5zM612 140q95 0 174 45t125 127t46 185
q0 104 -46 186.5t-124.5 127.5t-174.5 45q-102 0 -182 -48t-123 -130t-43 -181q0 -98 43.5 -179.5t123.5 -129.5t181 -48z" />
    <glyph glyph-name="uni1ED6" unicode="&#x1ed6;" horiz-adv-x="1697" 
d="M725 1881q-27 0 -52 -21.5t-42 -60.5l-91 31q24 69 68.5 107.5t101.5 38.5q30 0 61.5 -10t45 -17t46.5 -26q62 -35 99 -35q22 0 41 8.5t35.5 27.5t27.5 46l89 -25q-16 -49 -43 -84t-60.5 -52t-72.5 -17q-60 0 -144 48q-26 15 -38.5 21t-33.5 13t-38 7zM843 1668
l-154 -163h-159l238 250h153l245 -250h-159l-154 163h-10zM851 1468q152 0 286 -54t230.5 -149.5t152.5 -234.5t56 -302t-56 -302t-152.5 -235t-230.5 -150t-286 -54q-160 0 -297 57t-231.5 156t-148 235.5t-53.5 292.5t53.5 292.5t148 235t231.5 155.5t297 57zM851 157
q112 0 211.5 42.5t172 117t114.5 181.5t42 230t-42 230t-114.5 181.5t-172 116.5t-211.5 42q-119 0 -221.5 -45t-173 -122t-110.5 -181.5t-40 -221.5q0 -118 40 -222.5t110.5 -181.5t173 -122t221.5 -45z" />
    <glyph glyph-name="uni1ED7" unicode="&#x1ed7;" horiz-adv-x="1222" 
d="M479 1583q-31 0 -60 -30t-48 -82l-107 47q29 94 81 148t117 54q14 0 27 -1.5t22.5 -3.5t22 -7t19 -7t19.5 -9.5t16.5 -9.5t18 -11.5t16.5 -10.5l21 -14q15 -10 22 -14.5t20 -12t22 -10.5t21.5 -6t23.5 -3q37 0 68.5 29t50.5 84l105 -36q-18 -67 -49 -115.5t-71 -73.5
t-85 -25q-25 0 -49.5 5.5t-49 18.5t-39.5 22t-41 26q-6 3 -19.5 12t-19 12t-17 9t-19 8.5t-18 4.5t-21.5 2zM530 1430h153l245 -293h-169l-148 183h-4l-147 -183h-168zM612 1009q146 0 263 -64t183.5 -181.5t66.5 -266.5q0 -148 -66.5 -265t-183.5 -181t-263 -64
q-114 0 -211 39.5t-163.5 108t-104 162t-37.5 200.5t37.5 201.5t104 163t163.5 108t211 39.5zM612 140q95 0 174 45t125 127t46 185q0 104 -46 186.5t-124.5 127.5t-174.5 45q-102 0 -182 -48t-123 -130t-43 -181q0 -98 43.5 -179.5t123.5 -129.5t181 -48z" />
    <glyph glyph-name="uni1ED8" unicode="&#x1ed8;" horiz-adv-x="1697" 
d="M847 1800l-147 -183h-168l238 293h153l245 -293h-169l-148 183h-4zM851 1468q152 0 286 -54t230.5 -149.5t152.5 -234.5t56 -302t-56 -302t-152.5 -235t-230.5 -150t-286 -54q-160 0 -297 57t-231.5 156t-148 235.5t-53.5 292.5t53.5 292.5t148 235t231.5 155.5t297 57z
M851 157q112 0 211.5 42.5t172 117t114.5 181.5t42 230t-42 230t-114.5 181.5t-172 116.5t-211.5 42q-119 0 -221.5 -45t-173 -122t-110.5 -181.5t-40 -221.5q0 -118 40 -222.5t110.5 -181.5t173 -122t221.5 -45zM851 -228q33 0 60 -15.5t42.5 -42t15.5 -58.5
q0 -24 -9 -45.5t-24.5 -37.5t-37.5 -25t-47 -9q-49 0 -83.5 34t-34.5 83q0 48 34.5 82t83.5 34z" />
    <glyph glyph-name="uni1ED9" unicode="&#x1ed9;" horiz-adv-x="1222" 
d="M608 1320l-147 -183h-168l238 293h153l245 -293h-169l-148 183h-4zM612 1009q146 0 263 -64t183.5 -181.5t66.5 -266.5q0 -148 -66.5 -265t-183.5 -181t-263 -64q-114 0 -211 39.5t-163.5 108t-104 162.5t-37.5 200q0 107 37.5 201.5t104 163t163.5 108t211 39.5z
M612 140q95 0 174 45t125 127t46 185q0 158 -99 258.5t-246 100.5q-102 0 -182 -48t-123 -130t-43 -181q0 -98 43.5 -179.5t123.5 -129.5t181 -48zM611 -228q33 0 60 -15.5t42.5 -42t15.5 -58.5q0 -49 -34 -83t-84 -34q-49 0 -83.5 34t-34.5 83q0 48 34.5 82t83.5 34z" />
    <glyph glyph-name="uni1EDA" unicode="&#x1eda;" horiz-adv-x="1782" 
d="M1206 1911l-255 -290h-174l240 289zM1545 1587h170v-151q0 -144 -55.5 -232t-162.5 -117l-1 -2q80 -162 80 -357q0 -163 -56 -302t-152.5 -235t-230.5 -150t-286 -54q-160 0 -297 57t-231.5 156t-148 235.5t-53.5 292.5t53.5 292.5t148 235t231.5 155.5t297 57
q179 0 329 -72t249 -203q36 10 59.5 30.5t35.5 54.5t16.5 72.5t4.5 95.5v141zM851 157q112 0 211.5 42.5t172 117t114.5 181.5t42 230t-42 230t-114.5 181.5t-172 116.5t-211.5 42q-95 0 -180.5 -29t-151.5 -81.5t-114 -123t-73.5 -156.5t-25.5 -180q0 -118 40 -222.5
t110.5 -181.5t173 -122t221.5 -45z" />
    <glyph glyph-name="uni1EDB" unicode="&#x1edb;" horiz-adv-x="1385" 
d="M948 1431l-255 -290h-174l240 289zM1168 1159h170v-151q0 -149 -59 -237.5t-173 -114.5l-1 -3q21 -72 21 -156q0 -148 -66.5 -265t-183.5 -181t-263 -64q-114 0 -211 39.5t-163.5 108t-104 162.5t-37.5 200q0 107 37.5 201.5t104 163t163.5 108t211 39.5
q145 0 261.5 -64.5t182.5 -177.5q28 9 48 24.5t32 36.5t19 51.5t9.5 62.5t2.5 76v141zM613 140q95 0 174 45t125 127t46 185q0 104 -46 186.5t-124.5 127.5t-174.5 45q-102 0 -182 -48t-123 -130t-43 -181q0 -98 43.5 -179.5t123.5 -129.5t181 -48z" />
    <glyph glyph-name="uni1EDC" unicode="&#x1edc;" horiz-adv-x="1782" 
d="M947 1621h-175l-254 290l189 -1zM1545 1587h170v-151q0 -144 -55.5 -232t-162.5 -117l-1 -2q80 -162 80 -357q0 -163 -56 -302t-152.5 -235t-230.5 -150t-286 -54q-160 0 -297 57t-231.5 156t-148 235.5t-53.5 292.5t53.5 292.5t148 235t231.5 155.5t297 57
q179 0 329 -72t249 -203q36 10 59.5 30.5t35.5 54.5t16.5 72.5t4.5 95.5v141zM851 157q112 0 211.5 42.5t172 117t114.5 181.5t42 230t-42 230t-114.5 181.5t-172 116.5t-211.5 42q-95 0 -180.5 -29t-151.5 -81.5t-114 -123t-73.5 -156.5t-25.5 -180q0 -118 40 -222.5
t110.5 -181.5t173 -122t221.5 -45z" />
    <glyph glyph-name="uni1EDD" unicode="&#x1edd;" horiz-adv-x="1385" 
d="M735 1141h-175l-254 290l189 -1zM1168 1159h170v-151q0 -149 -59 -237.5t-173 -114.5l-1 -3q21 -72 21 -156q0 -148 -66.5 -265t-183.5 -181t-263 -64q-114 0 -211 39.5t-163.5 108t-104 162.5t-37.5 200q0 107 37.5 201.5t104 163t163.5 108t211 39.5q145 0 261.5 -64.5
t182.5 -177.5q28 9 48 24.5t32 36.5t19 51.5t9.5 62.5t2.5 76v141zM613 140q95 0 174 45t125 127t46 185q0 104 -46 186.5t-124.5 127.5t-174.5 45q-102 0 -182 -48t-123 -130t-43 -181q0 -98 43.5 -179.5t123.5 -129.5t181 -48z" />
    <glyph glyph-name="uni1EDE" unicode="&#x1ede;" horiz-adv-x="1782" 
d="M859 1847q-41 0 -79 -18t-64 -47l-71 66q39 41 99.5 67.5t126.5 26.5q44 0 79.5 -11.5t59 -32t36 -48.5t12.5 -60q0 -30 -12.5 -56t-36.5 -46t-55 -35.5t-71 -26.5l-13 -56h-70q-12 12 -17 18.5t-9.5 16.5t-4.5 21q0 22 26.5 42.5t58.5 34.5t58.5 37t26.5 48
q0 32 -23.5 45.5t-56.5 13.5zM1545 1587h170v-151q0 -144 -55.5 -232t-162.5 -117l-1 -2q80 -162 80 -357q0 -163 -56 -302t-152.5 -235t-230.5 -150t-286 -54q-160 0 -297 57t-231.5 156t-148 235.5t-53.5 292.5t53.5 292.5t148 235t231.5 155.5t297 57q119 0 227 -32.5
t196.5 -94t154.5 -148.5q36 10 59.5 30.5t35.5 54.5t16.5 72.5t4.5 95.5v141zM851 157q112 0 211.5 42.5t171.5 117t114.5 181.5t42.5 230t-42 230t-114.5 181.5t-172 116.5t-211.5 42q-119 0 -221.5 -45t-173 -122t-110.5 -181.5t-40 -221.5q0 -118 40 -222.5t110.5 -181.5
t173 -122t221.5 -45z" />
    <glyph glyph-name="uni1EDF" unicode="&#x1edf;" horiz-adv-x="1385" 
d="M621 1367q-21 0 -41.5 -5t-38.5 -13.5t-34 -20.5t-29 -26l-71 66q39 41 99.5 67.5t126.5 26.5q88 0 137.5 -42.5t49.5 -109.5q0 -59 -46.5 -100t-128.5 -64l-13 -56h-70q-12 12 -17 18.5t-9.5 16.5t-4.5 21q0 22 26.5 42.5t58.5 34.5t58.5 37t26.5 48q0 32 -23.5 45.5
t-56.5 13.5zM1168 1159h170v-151q0 -149 -59 -237.5t-173 -114.5l-1 -3q21 -72 21 -156q0 -148 -66.5 -265t-183.5 -181t-263 -64q-114 0 -211 39.5t-163.5 108t-104 162.5t-37.5 200q0 107 37.5 201.5t104 163t163.5 108t211 39.5q145 0 261.5 -64.5t182.5 -177.5
q28 9 48 24.5t32 36.5t19 51.5t9.5 62.5t2.5 76v141zM613 140q95 0 174 45t125 127t46 185q0 104 -46 186.5t-124.5 127.5t-174.5 45q-102 0 -182 -48t-123 -130t-43 -181q0 -98 43.5 -179.5t123.5 -129.5t181 -48z" />
    <glyph glyph-name="uni1EE0" unicode="&#x1ee0;" horiz-adv-x="1782" 
d="M713 1752q-80 0 -122 -112l-107 47q30 95 83.5 148.5t128.5 53.5q26 0 49 -4.5t46 -15.5t35.5 -18t36.5 -22l21 -14q15 -10 22 -14.5t20 -12t22 -10.5t21.5 -6t23.5 -3q37 0 68.5 29t50.5 84l105 -36q-28 -101 -82 -157.5t-123 -56.5q-33 0 -68.5 12.5t-55.5 24.5t-55 35
q-39 24 -66 36t-54 12zM1545 1587h170v-151q0 -144 -55.5 -232t-162.5 -117l-1 -2q80 -162 80 -357q0 -163 -56 -302t-152.5 -235t-230 -150t-286.5 -54q-160 0 -297 57t-231.5 156t-148 235.5t-53.5 292.5t53.5 292.5t148 235t231.5 155.5t297 57q119 0 227 -32.5
t196.5 -94t154.5 -148.5q36 10 59.5 30.5t35.5 54.5t16.5 72.5t4.5 95.5v141zM851 157q112 0 211.5 42.5t172 117t114.5 181.5t42 230t-42 230t-114.5 181t-172 116.5t-211.5 42.5q-119 0 -221.5 -45t-173 -122t-110.5 -181.5t-40 -221.5q0 -118 40 -222.5t110.5 -181.5
t173 -122t221.5 -45z" />
    <glyph glyph-name="uni1EE1" unicode="&#x1ee1;" horiz-adv-x="1385" 
d="M475 1272q-80 0 -122 -112l-107 47q30 95 83.5 148.5t128.5 53.5q34 0 67 -10.5t50.5 -20t49.5 -29.5l21 -14q15 -10 22 -14.5t20 -12t22 -10.5t21.5 -6t23.5 -3q37 0 68.5 29t50.5 84l105 -36q-28 -101 -82 -157.5t-123 -56.5q-33 0 -68.5 12.5t-55.5 24.5t-55 35
q-39 24 -66 36t-54 12zM1168 1159h170v-151q0 -149 -59 -237.5t-173 -114.5l-1 -3q21 -72 21 -156q0 -148 -66.5 -265t-183.5 -181t-263 -64q-114 0 -211 39.5t-163.5 108t-104 162t-37.5 200.5t37.5 201.5t104 163t163.5 108t211 39.5q145 0 261.5 -64.5t182.5 -177.5
q28 9 48 24.5t32 36.5t19 51.5t9.5 62.5t2.5 76v141zM613 140q95 0 174 45t125 127t46 185q0 104 -46 186.5t-124.5 127.5t-174.5 45q-102 0 -182 -48t-123 -130t-43 -181q0 -98 43.5 -179.5t123.5 -129.5t181 -48z" />
    <glyph glyph-name="uni1EE2" unicode="&#x1ee2;" horiz-adv-x="1782" 
d="M1545 1587h170v-151q0 -144 -55.5 -232t-162.5 -117l-1 -2q80 -162 80 -357q0 -163 -56 -302t-152.5 -235t-230.5 -150t-286 -54q-160 0 -297 57t-231.5 156t-148 235.5t-53.5 292.5t53.5 292.5t148 235t231.5 155.5t297 57q179 0 329 -72t249 -203q36 10 59.5 30.5
t35.5 54.5t16.5 72.5t4.5 95.5v141zM851 157q112 0 211.5 42.5t171.5 117t114.5 181.5t42.5 230t-42 230t-114.5 181.5t-172 116.5t-211.5 42q-95 0 -180.5 -29t-151.5 -81.5t-114 -123t-73.5 -156.5t-25.5 -180q0 -118 40 -222.5t110.5 -181.5t173 -122t221.5 -45z
M851 -228q33 0 60 -15.5t42.5 -42t15.5 -58.5q0 -49 -34 -83t-84 -34q-49 0 -83.5 34t-34.5 83q0 48 34.5 82t83.5 34z" />
    <glyph glyph-name="uni1EE3" unicode="&#x1ee3;" horiz-adv-x="1385" 
d="M1168 1159h170v-151q0 -149 -59 -237.5t-173 -114.5l-1 -3q21 -72 21 -156q0 -148 -66.5 -265t-183.5 -181t-263 -64q-114 0 -211 39.5t-163.5 108t-104 162.5t-37.5 200q0 107 37.5 201.5t104 163t163.5 108t211 39.5q145 0 261.5 -64.5t182.5 -177.5q28 9 48 24.5
t32 36.5t19 51.5t9.5 62.5t2.5 76v141zM613 140q95 0 174 45t125 127t46 185q0 104 -46 186.5t-124.5 127.5t-174.5 45q-102 0 -182 -48t-123 -130t-43 -181q0 -98 43.5 -179.5t123.5 -129.5t181 -48zM612 -228q50 0 84 -34t34 -82q0 -49 -34 -83t-84 -34q-49 0 -83.5 34
t-34.5 83q0 48 34.5 82t83.5 34z" />
    <glyph glyph-name="uni1EE4" unicode="&#x1ee4;" horiz-adv-x="1456" 
d="M726 -13q-125 0 -228.5 41t-177.5 117t-115 190.5t-41 256.5v863h178v-850q0 -203 104.5 -325.5t279.5 -122.5q173 0 280 120t107 328v850h178v-863q0 -280 -152.5 -442.5t-412.5 -162.5zM726 -228q50 0 84 -34t34 -82q0 -24 -9 -45.5t-24.5 -37.5t-37.5 -25t-47 -9
q-49 0 -83.5 34t-34.5 83q0 24 9.5 45.5t25 37t37.5 24.5t46 9z" />
    <glyph glyph-name="uni1EE5" unicode="&#x1ee5;" horiz-adv-x="1156" 
d="M842 997h166v-997h-166v165h-3q-59 -86 -145 -132t-183 -46q-177 0 -275.5 104t-98.5 312v594h166v-546q0 -166 60 -238.5t183 -72.5q60 0 113.5 25.5t94 72t64.5 118.5t24 158v483zM579 -228q50 0 84 -34t34 -82q0 -32 -15.5 -59t-42.5 -42.5t-60 -15.5q-49 0 -83.5 34
t-34.5 83q0 48 34.5 82t83.5 34z" />
    <glyph glyph-name="uni1EE6" unicode="&#x1ee6;" horiz-adv-x="1456" 
d="M677 1570q-9 9 -13 14t-9 12.5t-7 14.5t-2 15q0 22 26.5 42.5t58.5 34.5t58.5 37t26.5 48q0 32 -23.5 45.5t-56.5 13.5q-27 0 -54 -8.5t-49.5 -23t-39.5 -33.5l-71 66q39 41 99.5 67.5t126.5 26.5q88 0 137.5 -42.5t49.5 -109.5q0 -59 -46.5 -100t-128.5 -64l-13 -56h-70
zM726 -13q-125 0 -228.5 41t-177.5 117t-115 190.5t-41 256.5v863h178v-850q0 -203 104.5 -325.5t279.5 -122.5q173 0 280 120t107 328v850h178v-863q0 -280 -152.5 -442.5t-412.5 -162.5z" />
    <glyph glyph-name="uni1EE7" unicode="&#x1ee7;" horiz-adv-x="1156" 
d="M583 1367q-41 0 -79 -18t-64 -47l-71 66q39 41 99.5 67.5t126.5 26.5q58 0 101 -20t64.5 -54.5t21.5 -77.5q0 -59 -46.5 -100t-128.5 -64l-13 -56h-70q-7 7 -10.5 11t-8.5 10.5t-7 11t-3.5 10.5t-1.5 13q0 22 26.5 42.5t58.5 34.5t58.5 37t26.5 48q0 32 -23.5 45.5
t-56.5 13.5zM842 997h166v-997h-166v165h-3q-59 -86 -145 -132t-183 -46q-177 0 -275.5 104t-98.5 312v594h166v-546q0 -166 60 -238.5t183 -72.5q60 0 113.5 25.5t94 72t64.5 118.5t24 158v483z" />
    <glyph glyph-name="uni1EE8" unicode="&#x1ee8;" horiz-adv-x="1622" 
d="M1029 1911l-255 -290h-174l240 289zM1436 1587h170v-151q0 -116 -36 -196t-106.5 -122t-172.5 -44v-482q0 -280 -152.5 -442.5t-412.5 -162.5q-125 0 -228.5 41t-177.5 117t-115 190.5t-41 256.5v863h178v-850q0 -203 104.5 -325.5t279.5 -122.5q173 0 280 120t107 328
v850h178v-268q31 5 54 15t39 27t26.5 37.5t16 49.5t7.5 59t2 71v141z" />
    <glyph glyph-name="uni1EE9" unicode="&#x1ee9;" horiz-adv-x="1351" 
d="M912 1431l-255 -290h-174l240 289zM1148 1159h170v-151q0 -173 -79.5 -265t-230.5 -97v-646h-166v165h-3q-59 -86 -145 -132t-183 -46q-177 0 -275.5 104t-98.5 312v594h166v-546q0 -166 60 -238.5t183 -72.5q60 0 113.5 25.5t94 72t64.5 118.5t24 158v483h166v-237
q23 4 41 11t32 17.5t24.5 23t18 29.5t12 35t7.5 41.5t4 47t1 53.5v141z" />
    <glyph glyph-name="uni1EEA" unicode="&#x1eea;" horiz-adv-x="1622" 
d="M862 1621h-175l-254 290l189 -1zM1436 1587h170v-151q0 -116 -36 -196t-106.5 -122t-172.5 -44v-482q0 -280 -152.5 -442.5t-412.5 -162.5q-125 0 -228.5 41t-177.5 117t-115 190.5t-41 256.5v863h178v-850q0 -203 104.5 -325.5t279.5 -122.5q173 0 280 120t107 328v850
h178v-268q31 5 54 15t39 27t26.5 37.5t16 49.5t7.5 59t2 71v141z" />
    <glyph glyph-name="uni1EEB" unicode="&#x1eeb;" horiz-adv-x="1351" 
d="M720 1141h-175l-254 290l189 -1zM1148 1159h170v-151q0 -173 -79.5 -265t-230.5 -97v-646h-166v165h-3q-59 -86 -144.5 -132t-183.5 -46q-177 0 -275.5 104t-98.5 312v594h166v-546q0 -166 60 -238.5t183 -72.5q60 0 113.5 25.5t94 72t64.5 118.5t24 158v483h166v-237
q36 6 61 21t40.5 35.5t24 52.5t11.5 66t3 83v141z" />
    <glyph glyph-name="uni1EEC" unicode="&#x1eec;" horiz-adv-x="1622" 
d="M736 1847q-41 0 -79 -18t-64 -47l-71 66q39 41 99.5 67.5t126.5 26.5q88 0 137.5 -42.5t49.5 -109.5q0 -59 -46.5 -100t-128.5 -64l-13 -56h-70q-12 12 -17 18.5t-9.5 16.5t-4.5 21q0 22 26.5 42.5t58.5 34.5t58.5 37t26.5 48q0 32 -23.5 45.5t-56.5 13.5zM1436 1587h170
v-151q0 -174 -80.5 -266t-234.5 -96v-482q0 -280 -152.5 -442.5t-412.5 -162.5q-125 0 -228.5 41t-177.5 117t-115 190.5t-41 256.5v863h178v-850q0 -203 104.5 -325.5t279.5 -122.5q173 0 280 120t107 328v850h178v-268q31 5 54 15t39 27t26.5 37.5t16 49.5t7.5 59t2 71
v141z" />
    <glyph glyph-name="uni1EED" unicode="&#x1eed;" horiz-adv-x="1351" 
d="M583 1367q-41 0 -79 -18t-64 -47l-71 66q39 41 99.5 67.5t126.5 26.5q58 0 101 -20t64.5 -54.5t21.5 -77.5q0 -59 -46.5 -100t-128.5 -64l-13 -56h-70q-7 7 -10.5 11t-8.5 10.5t-7 11t-3.5 10.5t-1.5 13q0 22 26.5 42.5t58.5 34.5t58.5 37t26.5 48q0 32 -23.5 45.5
t-56.5 13.5zM1148 1159h170v-151q0 -173 -79.5 -265t-230.5 -97v-646h-166v165h-3q-59 -86 -145 -132t-183 -46q-177 0 -275.5 104t-98.5 312v594h166v-546q0 -166 60 -238.5t183 -72.5q60 0 113.5 25.5t94 72t64.5 118.5t24 158v483h166v-237q30 5 52.5 15.5t37.5 27.5
t25 37t15.5 49t7.5 59t2 70v141z" />
    <glyph glyph-name="uni1EEE" unicode="&#x1eee;" horiz-adv-x="1622" 
d="M590 1752q-80 0 -122 -112l-107 47q30 95 83 148.5t129 53.5q34 0 67 -10.5t50.5 -20t49.5 -29.5l21 -14q15 -10 22 -14.5t20 -12t22 -10.5t21.5 -6t23.5 -3q25 0 47 12.5t40.5 38t31.5 62.5l105 -36q-14 -51 -35 -91t-47.5 -67t-57.5 -41.5t-65 -14.5q-33 0 -68.5 12.5
t-55.5 24.5t-55 35q-39 24 -66 36t-54 12zM1436 1587h170v-151q0 -174 -80.5 -266t-234.5 -96v-482q0 -280 -152.5 -442.5t-412.5 -162.5q-125 0 -228.5 41t-177.5 117t-115 190.5t-41 256.5v863h178v-850q0 -203 104.5 -325.5t279.5 -122.5q85 0 156 30.5t122.5 87.5
t80 141.5t28.5 188.5v850h178v-268q31 5 54 15t39 27t26.5 37.5t16 49.5t7.5 59t2 71v141z" />
    <glyph glyph-name="uni1EEF" unicode="&#x1eef;" horiz-adv-x="1351" 
d="M437 1272q-80 0 -122 -112l-107 47q30 95 83 148.5t129 53.5q34 0 67 -10.5t50.5 -20t49.5 -29.5l18 -12q12 -8 18.5 -12.5t17.5 -11t19 -10t18 -7.5t19.5 -5.5t19.5 -1.5q37 0 68.5 29t50.5 84l105 -36q-28 -101 -82 -157.5t-123 -56.5q-33 0 -68.5 12.5t-55.5 24.5
t-55 35q-39 24 -66 36t-54 12zM1148 1159h170v-151q0 -173 -79.5 -265t-230.5 -97v-646h-166v165h-3q-59 -86 -145 -132t-183 -46q-177 0 -275.5 104t-98.5 312v594h166v-546q0 -166 60 -238.5t183 -72.5q60 0 113.5 25.5t94 72t64.5 118.5t24 158v483h166v-237
q30 5 52.5 15.5t37.5 27.5t25 37t15.5 49t7.5 59t2 70v141z" />
    <glyph glyph-name="uni1EF0" unicode="&#x1ef0;" horiz-adv-x="1622" 
d="M1436 1587h170v-151q0 -174 -80.5 -266t-234.5 -96v-482q0 -280 -152.5 -442.5t-412.5 -162.5q-125 0 -228.5 41t-177.5 117t-115 190.5t-41 256.5v863h178v-850q0 -203 104.5 -325.5t279.5 -122.5q85 0 156 30.5t122.5 87.5t80 141.5t28.5 188.5v850h178v-268
q31 5 54 15t39 27t26.5 37.5t16 49.5t7.5 59t2 71v141zM726 -228q50 0 84 -34t34 -82q0 -24 -9 -45.5t-24.5 -37.5t-37.5 -25t-47 -9q-49 0 -83.5 34t-34.5 83q0 24 9.5 45.5t25 37t37.5 24.5t46 9z" />
    <glyph glyph-name="uni1EF1" unicode="&#x1ef1;" horiz-adv-x="1351" 
d="M1148 1159h170v-151q0 -173 -79.5 -265t-230.5 -97v-646h-166v165h-3q-59 -86 -145 -132t-183 -46q-177 0 -275.5 104t-98.5 312v594h166v-546q0 -166 60 -238.5t183 -72.5q60 0 113.5 25.5t94 72t64.5 118.5t24 158v483h166v-237q30 5 52.5 15.5t37.5 27.5t25 37
t15.5 49t7.5 59t2 70v141zM579 -228q33 0 60 -15.5t42.5 -42t15.5 -58.5q0 -49 -34 -83t-84 -34q-49 0 -83.5 34t-34.5 83q0 31 16 58t43 42.5t59 15.5z" />
    <glyph glyph-name="Ygrave" unicode="&#x1ef2;" horiz-adv-x="1238" 
d="M736 1621h-175l-254 290l189 -1zM996 1455h207l-497 -805v-650h-178v650l-493 805h205l376 -626h4z" />
    <glyph glyph-name="ygrave" unicode="&#x1ef3;" horiz-adv-x="1082" 
d="M670 1141h-175l-254 290l189 -1zM855 997h176l-564 -1402h-176l178 444l-421 958h177l324 -759h5z" />
    <glyph glyph-name="uni1EF4" unicode="&#x1ef4;" horiz-adv-x="1238" 
d="M528 0v650l-493 805h205l376 -626h4l376 626h207l-497 -805v-650h-178zM615 -228q50 0 84 -34t34 -82q0 -32 -15.5 -59t-42.5 -42.5t-60 -15.5q-49 0 -83.5 34t-34.5 83q0 24 9.5 45.5t25 37t37.5 24.5t46 9z" />
    <glyph glyph-name="uni1EF5" unicode="&#x1ef5;" horiz-adv-x="1082" 
d="M855 997h176l-564 -1402h-176l178 444l-421 958h177l324 -759h5zM804 -228q50 0 84 -34t34 -82q0 -49 -34 -83t-84 -34q-49 0 -83.5 34t-34.5 83q0 48 34.5 82t83.5 34z" />
    <glyph glyph-name="uni1EF6" unicode="&#x1ef6;" horiz-adv-x="1238" 
d="M630 1847q-41 0 -79 -18t-64 -47l-71 66q39 41 99.5 67.5t126.5 26.5q88 0 137.5 -42.5t49.5 -109.5q0 -59 -46.5 -100t-128.5 -64l-13 -56h-70q-12 12 -17 18.5t-9.5 16.5t-4.5 21q0 22 26.5 42.5t58.5 34.5t58.5 37t26.5 48q0 22 -12.5 35.5t-29.5 18.5t-38 5z
M996 1455h207l-497 -805v-650h-178v650l-493 805h205l376 -626h4z" />
    <glyph glyph-name="uni1EF7" unicode="&#x1ef7;" horiz-adv-x="1082" 
d="M551 1367q-21 0 -41.5 -5t-38.5 -13.5t-34 -20.5t-29 -26l-71 66q39 41 99.5 67.5t126.5 26.5q88 0 137.5 -42.5t49.5 -109.5q0 -59 -46.5 -100t-128.5 -64l-13 -56h-70q-12 12 -17 18.5t-9.5 16.5t-4.5 21q0 22 26.5 42.5t58.5 34.5t58.5 37t26.5 48q0 32 -23.5 45.5
t-56.5 13.5zM855 997h176l-564 -1402h-176l178 444l-421 958h177l324 -759h5z" />
    <glyph glyph-name="uni1EF8" unicode="&#x1ef8;" horiz-adv-x="1238" 
d="M484 1752q-80 0 -122 -112l-107 47q30 95 83 148.5t129 53.5q34 0 67 -10.5t50.5 -20t49.5 -29.5l21 -14q15 -10 22 -14.5t20 -12t22 -10.5t21.5 -6t23.5 -3q25 0 47 12.5t40.5 38t31.5 62.5l105 -36q-28 -101 -82 -157.5t-123 -56.5q-33 0 -68.5 12.5t-55.5 24.5t-55 35
q-39 24 -66 36t-54 12zM996 1455h207l-497 -805v-650h-178v650l-493 805h205l376 -626h4z" />
    <glyph glyph-name="uni1EF9" unicode="&#x1ef9;" horiz-adv-x="1082" 
d="M405 1272q-80 0 -122 -112l-107 47q30 95 83.5 148.5t128.5 53.5q34 0 67 -10.5t50.5 -20t49.5 -29.5q5 -4 20.5 -14t22.5 -14.5t20 -12t22 -10.5t21.5 -6t23.5 -3q37 0 68.5 29t50.5 84l105 -36q-18 -67 -49 -115.5t-71 -73.5t-85 -25q-33 0 -68.5 12.5t-55.5 24.5
t-55 35q-39 24 -66 36t-54 12zM855 997h176l-564 -1402h-176l178 444l-421 958h177l324 -759h5z" />
    <glyph glyph-name="uni2002" unicode="&#x2002;" horiz-adv-x="956" 
 />
    <glyph glyph-name="uni2003" unicode="&#x2003;" horiz-adv-x="1912" 
 />
    <glyph glyph-name="uni2009" unicode="&#x2009;" horiz-adv-x="62" 
 />
    <glyph glyph-name="endash" unicode="&#x2013;" horiz-adv-x="1188" 
d="M116 534v150h956v-150h-956z" />
    <glyph glyph-name="emdash" unicode="&#x2014;" horiz-adv-x="2144" 
d="M116 534v150h1912v-150h-1912z" />
    <glyph glyph-name="uni2015" unicode="&#x2015;" horiz-adv-x="2456" 
d="M116 534v150h2224v-150h-2224z" />
    <glyph glyph-name="quoteleft" unicode="&#x2018;" horiz-adv-x="408" 
d="M328 1453l-67 -494h-181l111 494h137z" />
    <glyph glyph-name="quoteright" unicode="&#x2019;" horiz-adv-x="408" 
d="M80 961l67 494h181l-111 -494h-137z" />
    <glyph glyph-name="quotesinglbase" unicode="&#x201a;" horiz-adv-x="440" 
d="M65 -267l67 493h181l-124 -493h-124z" />
    <glyph glyph-name="quotedblleft" unicode="&#x201c;" horiz-adv-x="699" 
d="M328 1453l-66 -494h-182l110 494h138zM619 1453l-67 -494h-181l111 494h137z" />
    <glyph glyph-name="quotedblright" unicode="&#x201d;" horiz-adv-x="699" 
d="M80 961l67 494h181l-111 -494h-137zM371 961l66 494h182l-110 -494h-138z" />
    <glyph glyph-name="quotedblbase" unicode="&#x201e;" horiz-adv-x="731" 
d="M65 -156l67 494h181l-111 -494h-137zM356 -156l66 494h182l-110 -494h-138z" />
    <glyph glyph-name="dagger" unicode="&#x2020;" horiz-adv-x="823" 
d="M414 508l-56 97l8 274l-1 226h-42l-205 -8v111l205 -7h41l-5 202h111l-8 -202h38l205 7v-111l-205 8h-40v-226l10 -274z" />
    <glyph glyph-name="daggerdbl" unicode="&#x2021;" horiz-adv-x="823" 
d="M359 118l5 200h-41l-205 -6v110l203 -7h45v185l-8 168l8 169v168h-43l-205 -7v109l203 -7h43l-6 203h111l-8 -203h38l206 7v-109l-207 7h-38v-168l9 -169l-10 -168l1 -185h39l206 8v-109l-206 4h-38l8 -200h-110z" />
    <glyph glyph-name="bullet" unicode="&#x2022;" horiz-adv-x="843" 
d="M421 438q-88 0 -149.5 60.5t-61.5 148.5t61.5 149t149.5 61q58 0 106.5 -28t76.5 -76t28 -106q0 -43 -16.5 -82t-45 -66.5t-67.5 -44t-82 -16.5z" />
    <glyph glyph-name="ellipsis" unicode="&#x2026;" horiz-adv-x="2048" 
d="M341 -13q-50 0 -84.5 34t-34.5 82q0 49 34.5 83t84.5 34q49 0 83.5 -34t34.5 -83q0 -31 -16 -58t-43 -42.5t-59 -15.5zM1024 -13q-33 0 -60.5 15.5t-43 42t-15.5 58.5q0 49 34.5 83t84.5 34q49 0 83.5 -34t34.5 -83q0 -31 -16 -58t-43 -42.5t-59 -15.5zM1707 -13
q-50 0 -84.5 34t-34.5 82q0 49 34.5 83t84.5 34q32 0 59 -15.5t43 -42.5t16 -59q0 -31 -16 -58t-43 -42.5t-59 -15.5z" />
    <glyph glyph-name="perthousand" unicode="&#x2030;" horiz-adv-x="2963" 
d="M775 -35l-137 58l637 1456l136 -59zM500 662q-112 0 -205 50t-148 143t-55 211q0 110 50 201.5t144 145.5t214 54q113 0 205.5 -49t148 -141.5t55.5 -210.5q0 -83 -30 -157t-82.5 -128.5t-129.5 -86.5t-167 -32zM501 793q118 0 191.5 78.5t73.5 193.5q0 119 -76 194
t-189 75q-116 0 -189.5 -77.5t-73.5 -191.5q0 -120 75.5 -196t187.5 -76zM1538 -13q-111 0 -203.5 50t-148 143t-55.5 211q0 110 50 201t144 145.5t213 54.5q113 0 206 -49.5t148.5 -142t55.5 -209.5q0 -111 -50.5 -203t-145 -146.5t-214.5 -54.5zM2456 -13q-112 0 -205 50
t-148 143t-55 211q0 82 29.5 155.5t82 127.5t129.5 86t167 32q112 0 205 -49.5t148.5 -142t55.5 -209.5q0 -111 -50.5 -203t-145 -146.5t-213.5 -54.5zM1539 119q118 0 191.5 78t73.5 193q0 79 -35.5 141t-96 95t-133.5 33q-117 0 -190.5 -77.5t-73.5 -191.5q0 -60 21 -111
t56.5 -86t84 -54.5t102.5 -19.5zM2457 119q118 0 191.5 78t73.5 193q0 119 -76 194t-189 75q-117 0 -190 -77.5t-73 -191.5q0 -120 75.5 -195.5t187.5 -75.5z" />
    <glyph glyph-name="guilsinglleft" unicode="&#x2039;" horiz-adv-x="595" 
d="M524 53h-166l-254 449l257 454h165l-256 -454z" />
    <glyph glyph-name="guilsinglright" unicode="&#x203a;" horiz-adv-x="587" 
d="M81 53l254 449l-256 454h165l257 -454l-254 -449h-166z" />
    </font>
</defs>
</svg>
