<svg xmlns="http://www.w3.org/2000/svg" viewBox="0 0 512 512"><!--! Font Awesome Pro 7.1.0 by @fontawesome - https://fontawesome.com License - https://fontawesome.com/license (Commercial License) Copyright 2025 Fonticons, Inc. --><path opacity=".4" fill="currentColor" d="M64 256l96 0 0 192-96 0 0-192zm288-96l96 0 0 288-96 0 0-288z"/><path fill="currentColor" d="M288 64l-64 0 0 384 64 0 0-384zm64 96l0 288 96 0 0-288-96 0zm0-64l96 0c35.3 0 64 28.7 64 64l0 288c0 35.3-28.7 64-64 64L64 512c-35.3 0-64-28.7-64-64L0 256c0-35.3 28.7-64 64-64l96 0 0-128c0-35.3 28.7-64 64-64l64 0c35.3 0 64 28.7 64 64l0 32zM160 256l-96 0 0 192 96 0 0-192z"/></svg>