<svg xmlns="http://www.w3.org/2000/svg" viewBox="0 0 512 512"><!--! Font Awesome Pro 7.1.0 by @fontawesome - https://fontawesome.com License - https://fontawesome.com/license (Commercial License) Copyright 2025 Fonticons, Inc. --><path opacity=".4" fill="currentColor" d="M64 256c0 71.3 38.9 133.6 96.7 166.7 19.3 11 40.6 18.8 63.3 22.6l0-378.6C133.2 81.9 64 160.9 64 256z"/><path fill="currentColor" d="M256 512a256 256 0 1 1 0-512 256 256 0 1 1 0 512zM224 66.7C133.2 81.9 64 160.9 64 256s69.2 174 160 189.3l0-378.6zm64 378.6C378.8 430 448 351.1 448 256S378.8 81.9 288 66.7l0 378.6z"/></svg>