<svg xmlns="http://www.w3.org/2000/svg" viewBox="0 0 640 512"><!--! Font Awesome Pro 7.1.0 by @fontawesome - https://fontawesome.com License - https://fontawesome.com/license (Commercial License) Copyright 2025 Fonticons, Inc. --><path opacity=".4" fill="currentColor" d="M128.3 256c0-16 3.1-32 8.9-47.3L343.3 414.8c-7.5 .7-15.2 1.2-23.1 1.2-17.8 0-35-2.1-51.4-5.9l-15.1-3.5-15 3.7-68.8 17.2c2.9-25.8 5.2-46.6 7-62.6l-16.6-20.7c-20.8-26-32.2-56.4-32.2-88.3zM297.2 97.1c7.5-.7 15.2-1.1 23.1-1.1 114.3 0 192 79.4 192 160 0 16-3.1 32-8.9 47.3L297.2 97.1z"/><path fill="currentColor" d="M621.5 512L576.3 557.3 19 0 64.3-45.2 621.5 512zM137.2 208.7c-5.8 15.3-8.9 31.3-8.9 47.3 0 31.9 11.3 62.3 32.2 88.3L177 365c-1.8 15.9-4.1 36.8-7 62.6l68.8-17.2 15-3.7 15.1 3.5c16.4 3.8 33.6 5.9 51.4 5.9 7.9 0 15.6-.4 23.1-1.2l54.6 54.6c-24.5 6.8-50.6 10.6-77.7 10.6-22.8 0-44.9-2.7-65.9-7.6L96.3 512 110.4 384.3c-29.1-36.3-46.2-80.6-46.2-128.3 0-34.3 8.8-66.7 24.5-95.8l48.4 48.4zM320.3 32c141.4 0 256 100.3 256 224 0 34.3-8.8 66.7-24.5 95.7l-48.4-48.4c5.8-15.3 8.9-31.3 8.9-47.3 0-80.6-77.7-160-192-160-7.9 0-15.6 .4-23.1 1.1L242.5 42.5C267 35.7 293.2 32 320.3 32z"/></svg>