<svg xmlns="http://www.w3.org/2000/svg" viewBox="0 0 512 512"><!--! Font Awesome Pro 7.1.0 by @fontawesome - https://fontawesome.com License - https://fontawesome.com/license (Commercial License) Copyright 2025 Fonticons, Inc. --><path opacity=".4" fill="currentColor" d="M64 256c0-1.1 0-2.2 0-3.4 .2-9.8 1.1-19.4 2.7-28.8l94.8 14.9c-1 5.3-1.5 10.7-1.5 16.3 0 .1 0 .3 0 .4l0 0c0 .2 0 .3 0 .5 0 53 43 96 96 96 1.5 0 2.9 0 4.4-.1 0 0 .1 0 .1 0 .3 0 .6 0 .9 0 21.6-1.2 41.3-9.5 56.7-22.7l60.4 74.6c-28.1 23.3-62.8 38.7-101 43-1.4 .2-2.8 .3-4.2 .4l-.1 0c-5.7 .5-11.5 .8-17.3 .8-106 0-192-86-192-192zm69.5-147.8c22.9-19 50.2-32.7 80.1-39.5 2.7-.6 5.5-1.2 8.2-1.7l0 0c11.1-2 22.5-3 34.1-3 106 0 192 86 192 192 0 1.3 0 2.6 0 3.9-.2 9.6-1.2 19.1-2.7 28.3l-94.8-14.9c.9-5.1 1.4-10.3 1.5-15.6 0-.2 0-.4 0-.6 0 0 0-.1 0-.1 0-.3 0-.6 0-.8 0-53-43-96-96-96-3 0-5.9 .1-8.8 .4-20.3 1.8-38.7 10-53.4 22.4l-60.4-74.7z"/><path fill="currentColor" d="M256 512a256 256 0 1 1 0-512 256 256 0 1 1 0 512zm0-448a192 192 0 1 0 0 384 192 192 0 1 0 0-384zm0 288a96 96 0 1 1 0-192 96 96 0 1 1 0 192zm0-128a32 32 0 1 0 0 64 32 32 0 1 0 0-64z"/></svg>