<svg xmlns="http://www.w3.org/2000/svg" viewBox="0 0 512 512"><!--! Font Awesome Pro 7.1.0 by @fontawesome - https://fontawesome.com License - https://fontawesome.com/license (Commercial License) Copyright 2025 Fonticons, Inc. --><path opacity=".4" fill="currentColor" d="M64 193.3l0 222.7 384 0 0-222.7-175.7 125.5-16.3 11.6-16.3-11.6-175.7-125.5z"/><path fill="currentColor" d="M64 96l0 28.4 192 137.1 192-137.1 0-28.4-384 0zm0 97.3l0 222.7 384 0 0-222.7-175.7 125.5-16.3 11.6-16.3-11.6-175.7-125.5zM0 96C0 60.7 28.7 32 64 32l384 0c35.3 0 64 28.7 64 64l0 320c0 35.3-28.7 64-64 64L64 480c-35.3 0-64-28.7-64-64L0 96z"/></svg>