<svg xmlns="http://www.w3.org/2000/svg" viewBox="0 0 512 512"><!--! Font Awesome Pro 7.1.0 by @fontawesome - https://fontawesome.com License - https://fontawesome.com/license (Commercial License) Copyright 2025 Fonticons, Inc. --><path opacity=".4" fill="currentColor" d="M64 96l0 17.9c0 19.4 8.9 37.8 24 50l124 99.2 12 9.6 0 123.6 64 32 0-155.6 12-9.6 124-99.2c15.2-12.1 24-30.5 24-50L448 96 64 96z"/><path fill="currentColor" d="M448 32c35.3 0 64 28.7 64 64l0 17.9c0 38.9-17.7 75.6-48 99.9l-112 89.6 0 228.4-192-96 0-132.4-112-89.6C17.7 189.5 0 152.8 0 113.9L0 96C0 60.7 28.7 32 64 32l384 0zM64 113.9c0 19.4 8.9 37.8 24 50l124 99.2 12 9.6 0 123.6 64 32 0-155.6 12-9.6 124-99.2c15.2-12.1 24-30.5 24-50l0-17.9-384 0 0 17.9z"/></svg>