<svg xmlns="http://www.w3.org/2000/svg" viewBox="0 0 448 512"><!--! Font Awesome Pro 7.1.0 by @fontawesome - https://fontawesome.com License - https://fontawesome.com/license (Commercial License) Copyright 2025 Fonticons, Inc. --><path opacity=".4" fill="currentColor" d="M64 224l0 224 .3 0 38-32.6c24-20.5 59.3-20.5 83.3 0l38 32.6 .7 0 38-32.6c24-20.5 59.3-20.5 83.3 0l38 32.6 .3 0 0-224c0-88.4-71.6-160-160-160S64 135.6 64 224zm136 0a40 40 0 1 1 -80 0 40 40 0 1 1 80 0zm128 0a40 40 0 1 1 -80 0 40 40 0 1 1 80 0z"/><path fill="currentColor" d="M224 0C347.7 0 448 100.3 448 224l0 288-64.3 0c-15.3 0-30.1-5.5-41.7-15.4l-38-32.6-38 32.6c-11.6 9.9-26.4 15.4-41.7 15.4l-.7 0c-15.3 0-30.1-5.5-41.7-15.4l-38-32.6-38 32.6C94.4 506.5 79.6 512 64.3 512L0 512 0 224C0 100.3 100.3 0 224 0zm0 64C135.6 64 64 135.6 64 224l0 224 .3 0 38-32.6c24-20.5 59.3-20.5 83.3 0l38 32.6 .7 0 38-32.6c24-20.5 59.3-20.5 83.3 0l38 32.6 .3 0 0-224c0-88.4-71.6-160-160-160zM160 264a40 40 0 1 1 0-80 40 40 0 1 1 0 80zm128 0a40 40 0 1 1 0-80 40 40 0 1 1 0 80z"/></svg>