<svg xmlns="http://www.w3.org/2000/svg" viewBox="0 0 640 512"><!--! Font Awesome Pro 7.1.0 by @fontawesome - https://fontawesome.com License - https://fontawesome.com/license (Commercial License) Copyright 2025 Fonticons, Inc. --><path opacity=".4" fill="currentColor" d="M0 304l0 1.8c0-74.5 55.9-135.9 128-144.7l0 64.9c-36.6 8.1-64 40.8-64 79.8L64 320c0 53 43 96 96 96l128 0c53 0 96-43 96-96l0-14.2c0-39.1-27.4-71.7-64-79.8l0-64.9c72.1 8.8 128 70.2 128 144.7l0-1.8c0-79.5-64.5-144-144-144l-42.5 0c-3.5 10-5.5 20.8-5.5 32l0 14.2c0 39.1 27.4 71.7 64 79.8l0 64.9c-72.1-8.8-128-70.2-128-144.7l0-14.2c0-2.7 .1-5.5 .2-8.2s.3-5.4 .6-8.1c.5-5.3 1.3-10.6 2.4-15.8L144 160C64.5 160 0 224.5 0 304z"/><path fill="currentColor" d="M640 206.2c0 74.5-55.9 135.9-128 144.7l0-64.9c36.6-8.1 64-40.8 64-79.8l0-14.2c0-53-43-96-96-96L352 96c-53 0-96 43-96 96l0 14.2c0 39.1 27.4 71.7 64 79.8l0 64.9c-72.1-8.8-128-70.2-128-144.7l0-14.2c0-88.4 71.6-160 160-160l128 0c88.4 0 160 71.6 160 160l0 14.2zM0 305.8c0-74.5 55.9-135.9 128-144.7l0 64.9c-36.6 8.1-64 40.8-64 79.8L64 320c0 53 43 96 96 96l128 0c53 0 96-43 96-96l0-14.2c0-39.1-27.4-71.7-64-79.8l0-64.9c72.1 8.8 128 70.2 128 144.7l0 14.2c0 88.4-71.6 160-160 160l-128 0C71.6 480 0 408.4 0 320l0-14.2z"/></svg>