<svg xmlns="http://www.w3.org/2000/svg" viewBox="0 0 576 512"><!--! Font Awesome Pro 7.1.0 by @fontawesome - https://fontawesome.com License - https://fontawesome.com/license (Commercial License) Copyright 2025 Fonticons, Inc. --><path opacity=".4" fill="currentColor" d="M64 192l0 192c35.3 0 63.9 28.5 64 63.7 .9 0 1.8 .1 2.7 .1l0 0c35.4-1.2 73.8-9.2 117.4-20 8-2 16.2-4.1 24.7-6.3 25.9-6.7 53.9-13.9 83.4-19.6s60.5-9.8 92.2-10.3c-.3-2.5-.5-5.1-.5-7.7 0-35.3 28.7-64 64-64l0-192c-35.3 0-63.9-28.5-64-63.7-.9 0-1.8-.1-2.7-.1l0 0c-4.4 .2-8.9 .4-13.4 .8l0 0c-4.5 .4-9 .8-13.6 1.3 0 0-.1 0-.1 0-9.2 1.1-18.7 2.5-28.4 4.3l-.1 0c-9.7 1.7-19.7 3.8-30 6.1l0 0c-10.2 2.3-20.8 4.8-31.6 7.5-.1 0-.1 0-.2 0-8 2-16.2 4.1-24.7 6.3-51.8 13.3-112.2 28.9-175.6 29.8 .3 2.5 .5 5.1 .5 7.7 0 35.3-28.7 64-64 64zm320 64a96 96 0 1 1 -192 0 96 96 0 1 1 192 0z"/><path fill="currentColor" d="M248.2 427.8c8-2 16.2-4.1 24.7-6.3l0 0c68.8-17.8 153-39.5 239.1-25.4l0-324.6c-54.2-15.3-111.9-5.4-184.2 12.7-8 2-16.2 4.1-24.7 6.3-68.8 17.8-153 39.5-239.1 25.4l0 324.6c54.2 15.3 111.9 5.4 184.2-12.7zM288 28.3c96-24.5 192-48.9 288 0l0 403.3c0 23.9-25.6 39.7-48.7 33.4-79.8-21.8-159.6-1.5-239.3 18.9-96 24.5-192 48.9-288 0L0 80.5C0 56.6 25.6 40.8 48.7 47.1 128.4 68.9 208.2 48.6 288 28.3zM328 256a40 40 0 1 0 -80 0 40 40 0 1 0 80 0zm-136 0a96 96 0 1 1 192 0 96 96 0 1 1 -192 0z"/></svg>