<svg xmlns="http://www.w3.org/2000/svg" viewBox="0 0 512 512"><!--! Font Awesome Pro 7.1.0 by @fontawesome - https://fontawesome.com License - https://fontawesome.com/license (Commercial License) Copyright 2025 Fonticons, Inc. --><path opacity=".4" fill="currentColor" d="M64 256c0 106 86 192 192 192 44.9 0 86.3-15.4 119-41.3-123.7-32.3-215-144.8-215-278.7 0-13.5 .9-26.8 2.7-39.9-58.9 32.8-98.7 95.7-98.7 167.9z"/><path fill="currentColor" d="M375 406.7c-32.7 25.9-74.1 41.3-119 41.3-106 0-192-86-192-192 0-72.2 39.8-135.1 98.7-167.9-1.8 13-2.7 26.4-2.7 39.9 0 133.8 91.3 246.4 215 278.7zm48.1-56c-112-12.4-199.1-107.3-199.1-222.6 0-44.1 12.6-83.2 32-115.4 2.6-4.2 5.2-8.4 8.1-12.4-2.7-.1-5.4-.1-8.1-.1-24.5 0-48.3 3.5-70.7 9.9-107 30.7-185.3 129.3-185.3 246.1 0 141.4 114.6 256 256 256 80.9 0 153-37.5 199.9-96.1 16.5-20.6 29.9-43.8 39.4-68.9-15.3 3.3-31.1 5-47.4 5-8.4 0-16.7-.5-24.9-1.4z"/></svg>