<svg xmlns="http://www.w3.org/2000/svg" viewBox="0 0 576 512"><!--! Font Awesome Pro 7.1.0 by @fontawesome - https://fontawesome.com License - https://fontawesome.com/license (Commercial License) Copyright 2025 Fonticons, Inc. --><path opacity=".4" fill="currentColor" d="M186.4 416L480 416c17.7 0 32-14.3 32-32l0-288-320 0 0 288c0 11.2-2 22-5.6 32zM256 164l192 0 0 56-192 0 0-56zm0 128l192 0 0 56-192 0 0-56z"/><path fill="currentColor" d="M576 32l0 352c0 53-43 96-96 96L96 480c-53 0-96-43-96-96l0-288 64 0 0 288c0 17.7 14.3 32 32 32s32-14.3 32-32l0-352 448 0zM192 96l0 288c0 11.2-2 22-5.6 32L480 416c17.7 0 32-14.3 32-32l0-288-320 0zM448 348l-192 0 0-56 192 0 0 56zm0-128l-192 0 0-56 192 0 0 56z"/></svg>