<svg xmlns="http://www.w3.org/2000/svg" viewBox="0 0 512 512"><!--! Font Awesome Pro 7.1.0 by @fontawesome - https://fontawesome.com License - https://fontawesome.com/license (Commercial License) Copyright 2025 Fonticons, Inc. --><path opacity=".4" fill="currentColor" d="M96 385.3c0 34 28.4 62.7 63.7 62.7 9.1 0 18.1-2.6 25.6-7.3 25-15.6 48.6-30.4 70.7-44.2 22.1 13.8 45.7 28.6 70.7 44.2 7.5 4.7 16.5 7.3 25.6 7.3 35.3 0 63.7-28.7 63.7-62.7 0-15.7-5.9-30.8-16.5-42.4L289.3 222.6c-8.5-9.3-20.6-14.6-33.3-14.6s-24.7 5.3-33.3 14.6L112.5 342.9C101.9 354.5 96 369.6 96 385.3z"/><path fill="currentColor" d="M128 48a48 48 0 1 1 96 0 48 48 0 1 1 -96 0zM256 396.5c22.1 13.8 45.7 28.6 70.7 44.2 7.5 4.7 16.5 7.3 25.6 7.3 35.3 0 63.7-28.7 63.7-62.7 0-15.7-5.9-30.8-16.5-42.4L289.3 222.6c-8.5-9.3-20.6-14.6-33.3-14.6s-24.7 5.3-33.3 14.6L112.5 342.9c-10.6 11.6-16.5 26.7-16.5 42.4 0 34 28.4 62.7 63.7 62.7 9.1 0 18.1-2.6 25.6-7.3 25-15.6 48.6-30.4 70.7-44.2zM65.3 299.7L175.6 179.4C196.2 156.8 225.4 144 256 144s59.8 12.8 80.4 35.4L446.7 299.7c21.4 23.4 33.3 53.9 33.3 85.6 0 70-57.7 126.7-127.7 126.7-21 0-41.8-5.9-59.6-17l-36.8-23-36.8 23c-17.8 11.1-38.6 17-59.6 17-70 0-127.7-56.7-127.7-126.7 0-31.7 11.9-62.3 33.3-85.6zM48 128a48 48 0 1 1 0 96 48 48 0 1 1 0-96zM288 48a48 48 0 1 1 96 0 48 48 0 1 1 -96 0zm176 80a48 48 0 1 1 0 96 48 48 0 1 1 0-96z"/></svg>