<svg xmlns="http://www.w3.org/2000/svg" viewBox="0 0 576 512"><!--! Font Awesome Pro 7.1.0 by @fontawesome - https://fontawesome.com License - https://fontawesome.com/license (Commercial License) Copyright 2025 Fonticons, Inc. --><path opacity=".4" fill="currentColor" d="M64 288.5c59.5-42.5 119.1-85 178.6-127.6l13.4-9.6 0 0c0-39.8 0-79.5 0-119.3 0-4.4 .9-8.6 2.5-12.4 4.9-11.5 16.2-19.5 29.5-19.5 12.2 0 22.7 6.8 28.1 16.7 .2 .5 .5 .9 .7 1.4l0 0c.2 .5 .4 .9 .6 1.4l0 0c.8 1.9 1.4 3.9 1.9 6 .2 1 .4 2.1 .5 3.2 .1 .5 .1 1.1 .1 1.6 0 .3 0 .5 0 .8s0 .5 0 .8l0 0 0 119.3 13.4 9.6 178.6 127.6 0 47C396.6 286 332.6 258.6 320 253.2l0 176.1 64 64 0 17-96-32-96 32 0-17 64-64 0-176.1c-12.6 5.4-76.6 32.8-192 82.3l0-47z"/><path fill="currentColor" d="M0 288.5c0-20.7 10-40.1 26.8-52.1L192 118.4 192 32c0-53 43-96 96-96 53 0 96 42.9 96 96l0 86.4 165.2 118 6 4.8c13.2 12 20.8 29.2 20.8 47.2l0 144.1c-12.6-5.4-76.6-32.9-192-82.3l0 52.5 64 64 0 45.3c0 35.3-28.7 64-64 64l-5.2 0-4.9-1.7-85.9-28.6-85.9 28.6-4.9 1.7-5.2 0c-35.3 0-64-28.7-64-64l0-45.3 64-64 0-52.5C76.6 399.7 12.6 427.1 0 432.5L0 288.5zm211.4-16.2l44.6-19.1 0 176.1-64 64 0 17 96-32 96 32 0-17-64-64 0-176.1c12.6 5.4 76.6 32.8 192 82.3l0-47-178.6-127.6-13.4-9.6 0-119.3c0-17.7-14.3-32-32-32-17.7 0-32 14.3-32 32l0 119.3-13.4 9.6-178.6 127.6 0 47 147.4-63.2z"/></svg>