<svg xmlns="http://www.w3.org/2000/svg" viewBox="0 0 576 512"><!--! Font Awesome Pro 7.1.0 by @fontawesome - https://fontawesome.com License - https://fontawesome.com/license (Commercial License) Copyright 2025 Fonticons, Inc. --><path opacity=".4" fill="currentColor" d="M112.2 192l0 2.8 25.6 25.6c33.3-55.5 55-91.6 65-108.4l-10.7 0c-44.2 0-80 35.8-80 80zM184.4 267c4.6 4.6 35.4 35.4 92.7 92.6l125.4-75.2c17.1-10.3 31.9-23.5 43.8-38.7 .1-.1 .2-.3 .3-.4 0 0 .1-.1 .1-.1 .5-.7 1-1.3 1.5-2 20.4-27.3 31.9-60.8 32-96l0-83.3-83.2 0c-56.2 0-108.3 29.5-137.2 77.7-16.2 26.9-41.2 68.7-75.2 125.4zm135.7-91c0-2.1 .1-4.1 .4-6.1 0 0 0 0 0 0 0-.4 .1-.8 .2-1.1 3.5-23.1 23.4-40.7 47.5-40.7 8.3 0 16.1 2.1 22.9 5.8 .7 .4 1.3 .7 2 1.1 13.9 8.4 23.1 23.7 23.1 41.1 0 26.5-21.5 48-48 48-26.5 0-48-21.5-48-48zm3.6 230.3l25.7 25.7 2.8 0c41.1 0 75-31 79.5-70.9 0-.1 0-.2 0-.3l0 0c0-.2 0-.3 0-.5 .3-2.7 .4-5.5 .4-8.2 0-3.6 0-7.2 0-10.7-49.3 29.6-85.5 51.3-108.4 65z"/><path fill="currentColor" d="M236.8 480.6l-54.1 54.1-45.2-45.2 54.1-54.1 45.2 45.3zm-64-64l-86.1 86.1-45.2-45.2 86.1-86.1 45.2 45.3zM544.2 147.3c0 51-17.4 99.5-48 138.4l0 66.4c0 79.5-64.5 144-144 144l-29.2 0-274.8-274.8 0-29.2c0-79.5 64.5-144 144-144l66.3 0C297.4 17.4 345.9 0 396.8 0l147.3 0 0 147.3zM323.7 406.3l25.6 25.7 2.8 0c44.2 0 80-35.8 80-80l0-10.8-108.4 65.1zM108.8 352.6l-54.1 54.1-45.2-45.2 54.1-54.1 45.2 45.3zM396.9 64c-56.2 0-108.3 29.5-137.2 77.7l-75.2 125.3 92.7 92.7 125.4-75.2c48.2-28.9 77.7-81 77.7-137.2l0-83.3-83.2 0zM368.1 224a48 48 0 1 1 0-96 48 48 0 1 1 0 96zm-176-112c-44.2 0-80 35.8-80 80l0 2.8 25.6 25.6 65.1-108.4-10.7 0z"/></svg>