<svg xmlns="http://www.w3.org/2000/svg" viewBox="0 0 576 512"><!--! Font Awesome Pro 7.1.0 by @fontawesome - https://fontawesome.com License - https://fontawesome.com/license (Commercial License) Copyright 2025 Fonticons, Inc. --><path opacity=".4" fill="currentColor" d="M147.7 242.3l43 43.3c16.1 16.2 23.6 39.2 20.1 61.8l-9.3 60.3 54.5-27.5 3.9-1.8c19.5-8.5 41.9-7.9 61.1 1.8l54.5 27.5-9.3-60.3c-3.1-19.8 2.2-39.8 14.4-55.4 1.7-2.2 3.6-4.3 5.7-6.4 14.3-14.4 28.7-28.9 43-43.3l-60.2-9.8c-22.6-3.7-42.1-17.8-52.5-38.2l-27.9-54.3-27.9 54.3c-2 3.8-4.2 7.4-6.8 10.8-.9 1.1-1.7 2.2-2.6 3.3-11 12.7-26.2 21.4-43.1 24.2l-60.3 9.7z"/><path fill="currentColor" d="M373.2 165.1c1.2 2.3 3.3 3.8 5.8 4.2L562.3 199 431.5 330.7c-1.8 1.8-2.6 4.4-2.2 6.9L457.7 521 292 437.3c-2.3-1.1-5-1.1-7.2 0L119.1 521 147.5 337.6c.4-2.5-.4-5.1-2.2-6.9L14.5 199 197.8 169.3c1.9-.3 3.6-1.3 4.8-2.7l1.1-1.5 84.8-165.1 84.8 165.1zM260.5 194.3c-10.5 20.3-29.9 34.5-52.5 38.2l-60.3 9.8 43 43.3c16.1 16.2 23.6 39.2 20.1 61.8l-9.3 60.3 54.5-27.5 3.9-1.8c19.5-8.5 41.9-7.9 61.1 1.8l54.5 27.5-9.3-60.3c-3.5-22.6 3.9-45.6 20.1-61.8l43-43.3-60.2-9.8c-22.6-3.7-42.1-17.8-52.5-38.2l-27.9-54.3-27.9 54.3z"/></svg>