<svg xmlns="http://www.w3.org/2000/svg" viewBox="0 0 512 512"><!--! Font Awesome Pro 7.1.0 by @fontawesome - https://fontawesome.com License - https://fontawesome.com/license (Commercial License) Copyright 2025 Fonticons, Inc. --><path opacity=".4" fill="currentColor" d="M96.3 288c0 21.3 0 42.7 0 64 0 29.8 20.4 54.9 48 62 1 .3 2 .5 3.1 .7l0 0c4.2 .9 8.5 1.3 12.9 1.3l192 0c17.7 0 33.7-7.2 45.3-18.7 0 0 0 0 0 0 .4-.4 .7-.7 1-1.1 0 0 0 0 0 0 .2-.2 .3-.3 .5-.5 .2-.2 .4-.4 .6-.6 .3-.4 .7-.7 1-1.1 9.7-11.2 15.6-25.9 15.6-41.9 0-21.3 0-42.7 0-64l-320 0zm32 64c0-14.9 10.2-27.4 24-31 .5-.1 1-.2 1.5-.4 0 0 0 0 0 0 2.1-.4 4.2-.7 6.5-.7 8.8 0 16.8 3.6 22.6 9.4 .4 .4 .7 .7 1.1 1.1 0 0 0 0 0 0 .2 .2 .3 .4 .5 .5 4.9 5.6 7.8 12.9 7.8 21s-2.9 15.3-7.8 21c-.2 .2-.3 .4-.5 .5 0 0 0 0 0 0-.3 .4-.7 .8-1.1 1.1-5.8 5.8-13.8 9.4-22.6 9.4-2.2 0-4.4-.2-6.4-.7 0 0 0 0 0 0-.5-.1-1-.2-1.5-.4-13.8-3.6-24-16.1-24-31zm192 0c0-15.2 10.6-27.9 24.8-31.2 .2-.1 .5-.1 .7-.2 0 0 0 0 .1 0 2.1-.4 4.2-.7 6.5-.7 4.4 0 8.6 .9 12.5 2.5s7.3 4 10.2 6.9c1.4 1.4 2.8 3 3.9 4.7 3.5 5.1 5.5 11.3 5.5 17.9s-2 12.8-5.5 17.9c-2.3 3.4-5.2 6.3-8.6 8.6-1.7 1.2-3.5 2.1-5.4 3-3.8 1.6-8 2.5-12.5 2.5-2.2 0-4.4-.2-6.4-.7 0 0 0 0-.1 0-.2 0-.5-.1-.7-.2-14.2-3.3-24.8-16-24.8-31.2z"/><path fill="currentColor" d="M352.3 0c70.7 0 128 57.3 128 128l0 224c0 40.1-18.5 75.9-47.4 99.4l60.6 60.6-45.2 45.3-78.5-78.5c-5.7 .8-11.6 1.3-17.5 1.3l-192 0-6.6-.2c-3.7-.2-7.4-.6-11-1.1L64.2 557.3 19 512 79.6 451.4C50.7 427.9 32.2 392.1 32.2 352l0-224c0-70.7 57.3-128 128-128l192 0zM96.2 352c0 35.3 28.7 64 64 64l192 0c35.3 0 64-28.7 64-64l0-64-320 0 0 64zm64 32a32 32 0 1 1 0-64 32 32 0 1 1 0 64zm192 0a32 32 0 1 1 0-64 32 32 0 1 1 0 64zM160.2 64c-35.3 0-64 28.7-64 64l0 96 320 0 0-96c0-35.3-28.7-64-64-64l-192 0z"/></svg>