<svg xmlns="http://www.w3.org/2000/svg" viewBox="0 0 512 512"><!--! Font Awesome Pro 7.1.0 by @fontawesome - https://fontawesome.com License - https://fontawesome.com/license (Commercial License) Copyright 2025 Fonticons, Inc. --><path opacity=".4" fill="currentColor" d="M96 192l0 128 74.7 0 8.5 6.4 108.8 81.6 0-304-108.8 81.6-8.5 6.4-74.7 0z"/><path fill="currentColor" d="M352 480l-53.3 0c-13.8 0-27.3-4.5-38.4-12.8L149.3 384 96 384c-33.1 0-60.4-25.2-63.7-57.5L32 320 32 192c0-35.3 28.7-64 64-64l53.3 0 110.9-83.2C271.4 36.5 284.8 32 298.7 32l53.3 0 0 448zM179.2 185.6l-8.5 6.4-74.7 0 0 128 74.7 0 8.5 6.4 108.8 81.6 0-304-108.8 81.6zM416 136.2c53 14.1 92 62.4 92 119.8s-39 105.7-92 119.8l0-59.8c21.4-11.4 36-34 36-60s-14.6-48.6-36-60l0-59.8z"/></svg>