<svg xmlns="http://www.w3.org/2000/svg" viewBox="0 0 576 512"><!--! Font Awesome Pro 7.1.0 by @fontawesome - https://fontawesome.com License - https://fontawesome.com/license (Commercial License) Copyright 2025 Fonticons, Inc. --><path opacity=".4" fill="currentColor" d="M93.5 400c76.5-76.5 153.1-153.1 229.6-229.6 16.9 16.9 33.8 33.8 50.7 50.7-76.5 76.5-153.1 153.1-229.6 229.6L93.5 400z"/><path fill="currentColor" d="M454.9-6.6L432.3-29.3 409.6-6.6 48.3 354.7c-25 25-25 65.5 0 90.5L99 496c25 25 65.5 25 90.5 0L550.9 134.6 573.5 112c-2.9-2.9-42.4-42.4-118.6-118.6zM362.7 130.8l69.6-69.6 50.7 50.7-69.6 69.6-50.7-50.7zm-39.6 39.6l50.7 50.7-229.6 229.6-50.7-50.7 229.6-229.6z"/></svg>