<svg xmlns="http://www.w3.org/2000/svg" viewBox="0 0 560 560"><!--! Font Awesome Pro 7.1.0 by @fontawesome - https://fontawesome.com License - https://fontawesome.com/license (Commercial License) Copyright 2025 Fonticons, Inc. --><path opacity=".4" fill="currentColor" d="M0 154c0 9.1 2.9 17.9 8.4 25.2L235.2 481.6C245.8 495.7 262.4 504 280 504s34.2-8.3 44.8-22.4L551.6 179.2c5.5-7.3 8.4-16.1 8.4-25.2 0-23.2-18.8-42-42-42l-70 0c0 2.9-.9 5.8-2.7 8.3l-154 210c-2.6 3.6-6.8 5.7-11.3 5.7s-8.7-2.1-11.3-5.7l-154-210c-1.8-2.5-2.7-5.4-2.7-8.3l-70 0c-23.2 0-42 18.8-42 42zm143.4-42L280 298.3 416.6 112 143.4 112z"/><path fill="currentColor" d="M117.7 100.7c6.2-4.6 15-3.2 19.6 3L280 298.3 422.7 103.7c4.6-6.2 13.3-7.6 19.6-3s7.6 13.3 3 19.6l-154 210c-2.6 3.6-6.8 5.7-11.3 5.7s-8.7-2.1-11.3-5.7l-154-210c-4.6-6.2-3.2-15 3-19.6z"/></svg>