<svg xmlns="http://www.w3.org/2000/svg" viewBox="0 0 560 560"><!--! Font Awesome Pro 7.1.0 by @fontawesome - https://fontawesome.com License - https://fontawesome.com/license (Commercial License) Copyright 2025 Fonticons, Inc. --><path opacity=".4" fill="currentColor" d="M0 448l0 56c0 30.9 25.1 56 56 56l448 0c30.9 0 56-25.1 56-56l0-56c0-30.9-25.1-56-56-56l-210 0 0 84c0 7.7-6.3 14-14 14s-14-6.3-14-14l0-84-210 0c-30.9 0-56 25.1-56 56z"/><path fill="currentColor" d="M101.7 177.5c5.2 5.7 14.1 6.1 19.8 .9L266 45.8 266 476c0 7.7 6.3 14 14 14s14-6.3 14-14l0-430.2 144.5 132.5c5.7 5.2 14.6 4.8 19.8-.9s4.8-14.6-.9-19.8l-168-154c-5.4-4.9-13.6-4.9-18.9 0l-168 154c-5.7 5.2-6.1 14.1-.9 19.8z"/></svg>