<svg xmlns="http://www.w3.org/2000/svg" viewBox="0 0 448 560"><!--! Font Awesome Pro 7.0.1 by @fontawesome - https://fontawesome.com License - https://fontawesome.com/license (Commercial License) Copyright 2025 Fonticons, Inc. --><path style="fill:var(--fa-secondary-color,currentColor);opacity:var(--fa-secondary-opacity,.4)" d="M0 266.3C0 257 3.1 248 8.8 240.7l170-218.6C189.7 8.2 206.3 0 224 0s34.3 8.2 45.2 22.1l170 218.6c5.7 7.3 8.8 16.3 8.8 25.6 0 23-18.7 41.7-41.7 41.7l-168.3 0 0-182c0-7.7-6.3-14-14-14s-14 6.3-14 14l0 182-168.3 0C18.7 308 0 289.3 0 266.3z"/><path style="fill:var(--fa-primary-color,currentColor);opacity:var(--fa-primary-opacity,1)" d="M224 112c7.7 0 14 6.3 14 14l0 420c0 7.7-6.3 14-14 14s-14-6.3-14-14l0-420c0-7.7 6.3-14 14-14z"/></svg>