<svg xmlns="http://www.w3.org/2000/svg" viewBox="0 0 504 560"><!--! Font Awesome Pro 7.1.0 by @fontawesome - https://fontawesome.com License - https://fontawesome.com/license (Commercial License) Copyright 2025 Fonticons, Inc. --><path opacity=".4" fill="currentColor" d="M84.1 280c0-29.8 7.7-57.7 21.3-82l64.7 0c7.7 0 14-6.3 14-14s-6.3-14-14-14l-45 0c30.8-35.5 76.3-58 127-58 92.8 0 168 75.2 168 168s-75.2 168-168 168-168-75.2-168-168z"/><path fill="currentColor" d="M73.8 170c37-60 103.3-100 178.9-100 116 0 210 94 210 210s-94 210-210 210c-83.8 0-156.1-49-189.8-120-3.3-7-11.7-10-18.7-6.6S34.3 375 37.6 382c38.2 80.4 120.1 136 215.1 136 131.4 0 238-106.6 238-238S384.1 42 252.7 42C171 42 99 83.2 56.1 145.8l0-89.8c0-7.7-6.3-14-14-14s-14 6.3-14 14l0 128c0 7.7 6.3 14 14 14l128 0c7.7 0 14-6.3 14-14s-6.3-14-14-14l-96.3 0z"/></svg>