<svg xmlns="http://www.w3.org/2000/svg" viewBox="0 0 392 560"><!--! Font Awesome Pro 7.1.0 by @fontawesome - https://fontawesome.com License - https://fontawesome.com/license (Commercial License) Copyright 2025 Fonticons, Inc. --><path opacity=".4" fill="currentColor" d="M0 84C0 53.1 25.1 28 56 28l56 0c30.9 0 56 25.1 56 56l0 102.7-61.9 48.1C92.2 245.7 84 262.3 84 280s8.2 34.3 22.1 45.2L168 373.3 168 476c0 30.9-25.1 56-56 56l-56 0c-30.9 0-56-25.1-56-56L0 84zM112 280c0-9 4.2-17.5 11.3-23.1l44.7-34.8 0 115.7-44.7-34.8C116.2 297.5 112 289 112 280z"/><path fill="currentColor" d="M364 97.7c0-7.6-6.1-13.7-13.7-13.7-3 0-6 1-8.4 2.9l-218.6 170C116.2 262.5 112 271 112 280s4.2 17.5 11.3 23.1l218.6 170c2.4 1.9 5.4 2.9 8.4 2.9 7.6 0 13.7-6.1 13.7-13.7l0-364.6zm28 0l0 364.6c0 23-18.7 41.7-41.7 41.7-9.3 0-18.3-3.1-25.6-8.8l-218.6-170C92.2 314.3 84 297.7 84 280s8.2-34.3 22.1-45.2l218.6-170c7.3-5.7 16.3-8.8 25.6-8.8 23 0 41.7 18.7 41.7 41.7z"/></svg>