<svg xmlns="http://www.w3.org/2000/svg" viewBox="0 0 504 560"><!--! Font Awesome Pro 7.1.0 by @fontawesome - https://fontawesome.com License - https://fontawesome.com/license (Commercial License) Copyright 2025 Fonticons, Inc. --><path opacity=".4" fill="currentColor" d="M168 280c0 17.7 8.2 34.3 22.1 45.2l89.9 69.9 0-230.2-89.9 69.9C176.2 245.7 168 262.3 168 280zM308 143.1l0 273.8 100.7 78.3c7.3 5.7 16.3 8.8 25.6 8.8 23 0 41.7-18.7 41.7-41.7l0-364.6c0-23-18.7-41.7-41.7-41.7-9.3 0-18.3 3.1-25.6 8.8L308 143.1z"/><path fill="currentColor" d="M280 97.7c0-7.6-6.1-13.7-13.7-13.7-3 0-6 1-8.4 2.9L39.3 256.9C32.2 262.5 28 271 28 280s4.2 17.5 11.3 23.1l218.6 170c2.4 1.9 5.4 2.9 8.4 2.9 7.6 0 13.7-6.1 13.7-13.7l0-364.6zm28 0l0 364.6c0 23-18.7 41.7-41.7 41.7-9.3 0-18.3-3.1-25.6-8.8L22.1 325.2C8.2 314.3 0 297.7 0 280s8.2-34.3 22.1-45.2l218.6-170c7.3-5.7 16.3-8.8 25.6-8.8 23 0 41.7 18.7 41.7 41.7z"/></svg>