<svg xmlns="http://www.w3.org/2000/svg" viewBox="0 0 560 560"><!--! Font Awesome Pro 7.1.0 by @fontawesome - https://fontawesome.com License - https://fontawesome.com/license (Commercial License) Copyright 2025 Fonticons, Inc. --><path opacity=".4" fill="currentColor" d="M0 196L0 364c0 61.9 50.1 112 112 112l49 0c0-3.4 1.2-6.8 3.7-9.5l160.2-172.5-161 0c-18.7 0-28.1-22.6-14.8-35.8L323.2 84 112 84C50.1 84 0 134.1 0 196zm180.8 70l160.1 0c18.3 0 27.9 21.9 15.4 35.3L194.1 476 392 476c61.9 0 112-50.1 112-112l-14 0c-7.7 0-14-6.3-14-14s6.3-14 14-14l14 0 0-112-14 0c-7.7 0-14-6.3-14-14s6.3-14 14-14l14 0c0-61.9-50.1-112-112-112l-35 0c0 3.6-1.4 7.2-4.1 9.9L180.8 266z"/><path fill="currentColor" d="M352.9 93.9c5.5-5.5 5.5-14.3 0-19.8s-14.3-5.5-19.8 0l-184 184.1c-13.2 13.2-3.9 35.8 14.8 35.8l161 0-160.2 172.5c-5.3 5.7-4.9 14.5 .7 19.8s14.5 4.9 19.8-.7L356.3 301.3c12.5-13.4 2.9-35.3-15.4-35.3L180.8 266 352.9 93.9zM518 224c7.7 0 14 6.3 14 14l0 84c0 7.7-6.3 14-14 14l-28 0c-7.7 0-14 6.3-14 14s6.3 14 14 14l28 0c23.2 0 42-18.8 42-42l0-84c0-23.2-18.8-42-42-42l-28 0c-7.7 0-14 6.3-14 14s6.3 14 14 14l28 0z"/></svg>