<svg xmlns="http://www.w3.org/2000/svg" viewBox="0 0 560 560"><!--! Font Awesome Pro 7.1.0 by @fontawesome - https://fontawesome.com License - https://fontawesome.com/license (Commercial License) Copyright 2025 Fonticons, Inc. --><path opacity=".4" fill="currentColor" d="M0 196L0 364c0 61.9 50.1 112 112 112l280 0c61.9 0 112-50.1 112-112l-14 0c-7.7 0-14-6.3-14-14s6.3-14 14-14l14 0 0-112-14 0c-7.7 0-14-6.3-14-14s6.3-14 14-14l14 0c0-61.9-50.1-112-112-112L112 84C50.1 84 0 134.1 0 196zm56 0c0-30.9 25.1-56 56-56l280 0c30.9 0 56 25.1 56 56l0 168c0 30.9-25.1 56-56 56l-280 0c-30.9 0-56-25.1-56-56l0-168zm28 0l0 168c0 15.5 12.5 28 28 28l280 0c15.5 0 28-12.5 28-28l0-168c0-15.5-12.5-28-28-28l-280 0c-15.5 0-28 12.5-28 28z"/><path fill="currentColor" d="M112 168c-15.5 0-28 12.5-28 28l0 168c0 15.5 12.5 28 28 28l280 0c15.5 0 28-12.5 28-28l0-168c0-15.5-12.5-28-28-28l-280 0zM56 196c0-30.9 25.1-56 56-56l280 0c30.9 0 56 25.1 56 56l0 168c0 30.9-25.1 56-56 56l-280 0c-30.9 0-56-25.1-56-56l0-168zm462 28l-28 0c-7.7 0-14-6.3-14-14s6.3-14 14-14l28 0c23.2 0 42 18.8 42 42l0 84c0 23.2-18.8 42-42 42l-28 0c-7.7 0-14-6.3-14-14s6.3-14 14-14l28 0c7.7 0 14-6.3 14-14l0-84c0-7.7-6.3-14-14-14z"/></svg>