<svg xmlns="http://www.w3.org/2000/svg" viewBox="0 0 504 560"><!--! Font Awesome Pro 7.1.0 by @fontawesome - https://fontawesome.com License - https://fontawesome.com/license (Commercial License) Copyright 2025 Fonticons, Inc. --><path opacity=".4" fill="currentColor" d="M4.7 309.9L282.3 32.3c12.7-12.7 34.4-4.6 35.8 13.2l2.6 34.3-178.3 178.3c-13.2 13.2-3.9 35.8 14.8 35.8l161 0-137.2 147.8-5.1-66c-.8-10.3-9-18.5-19.3-19.3L17.9 345.7C0 344.3-8 322.6 4.7 309.9zM174.2 266l149.4-149.4 5.2 67.7c.8 10.3 9 18.5 19.3 19.3l138.8 10.7c17.9 1.4 25.9 23.1 13.2 35.8L222.5 527.7c-12.7 12.7-34.4 4.7-35.8-13.2L184 479.8 349.7 301.3c12.5-13.4 2.9-35.3-15.4-35.3l-160.1 0z"/><path fill="currentColor" d="M346.3 93.9c5.5-5.5 5.5-14.3 0-19.8s-14.3-5.5-19.8 0l-184 184.1c-13.2 13.2-3.9 35.8 14.8 35.8l161 0-160.2 172.5c-5.3 5.7-4.9 14.5 .7 19.8s14.5 4.9 19.8-.7L349.7 301.3c12.5-13.4 2.9-35.3-15.4-35.3L174.2 266 346.3 93.9z"/></svg>