<svg xmlns="http://www.w3.org/2000/svg" viewBox="0 0 448 560"><!--! Font Awesome Pro 7.1.0 by @fontawesome - https://fontawesome.com License - https://fontawesome.com/license (Commercial License) Copyright 2025 Fonticons, Inc. --><path opacity=".4" fill="currentColor" d="M0 112C0 59.8 35.7 16 84 3.5L84 322c0 38.7 31.3 70 70 70l140 0c38.7 0 70-31.3 70-70L364 3.5C412.3 16 448 59.8 448 112l0 402.7c0 25-20.3 45.3-45.3 45.3-7 0-14-1.6-20.3-4.8L249 488.5c-15.8-7.9-34.3-7.9-50.1 0L65.6 555.2c-6.3 3.1-13.2 4.8-20.3 4.8-25 0-45.3-20.3-45.3-45.3L0 112zM112 0l224 0 0 322c0 23.2-18.8 42-42 42l-140 0c-23.2 0-42-18.8-42-42L112 0z"/><path fill="currentColor" d="M98-14c7.7 0 14 6.3 14 14l0 322c0 23.2 18.8 42 42 42l140 0c23.2 0 42-18.8 42-42L336 0c0-7.7 6.3-14 14-14s14 6.3 14 14l0 322c0 38.7-31.3 70-70 70l-140 0c-38.7 0-70-31.3-70-70L84 0c0-7.7 6.3-14 14-14z"/></svg>