<svg xmlns="http://www.w3.org/2000/svg" viewBox="0 0 560 560"><!--! Font Awesome Pro 7.1.0 by @fontawesome - https://fontawesome.com License - https://fontawesome.com/license (Commercial License) Copyright 2025 Fonticons, Inc. --><path opacity=".4" fill="currentColor" d="M0 136.6L0 412.2C0 465.6 37.7 511.5 90 522l168 33.6c2.6 .5 5.3 1 8 1.3L266 56c0-1 .1-2.1 .3-3.1-2.8-.3-5.5-.8-8.3-1.3L134 26.8C64.7 12.9 0 65.9 0 136.6zM293.7 52.9c.2 1 .3 2 .3 3.1l0 500.9c2.7-.3 5.3-.8 8-1.3L470 522c52.4-10.5 90-56.4 90-109.8l0-275.6c0-70.7-64.7-123.7-134-109.8L302 51.6c-2.8 .6-5.5 1-8.3 1.3z"/><path fill="currentColor" d="M266 560c0 7.7 6.3 14 14 14s14-6.3 14-14l0-504c0-7.7-6.3-14-14-14s-14 6.3-14 14l0 504z"/></svg>