<svg xmlns="http://www.w3.org/2000/svg" viewBox="0 0 504 560"><!--! Font Awesome Pro 7.1.0 by @fontawesome - https://fontawesome.com License - https://fontawesome.com/license (Commercial License) Copyright 2025 Fonticons, Inc. --><path opacity=".4" fill="currentColor" d="M28.2 216.6c8.2 4.7 17.7 7.4 27.8 7.4l392 0c10.1 0 19.6-2.7 27.8-7.4 .2 2.4 .2 4.9 .2 7.4l0 196c0 61.9-50.1 112-112 112l-224 0C78.1 532 28 481.9 28 420l0-196c0-2.5 .1-4.9 .2-7.4zM34.6 186c15.5-43.2 56.9-74 105.4-74l224 0c48.5 0 89.9 30.9 105.4 74-5.1 6.1-12.8 10-21.4 10L56 196c-8.6 0-16.3-3.9-21.4-10zM112 294c0 7.7 6.3 14 14 14l252 0c7.7 0 14-6.3 14-14s-6.3-14-14-14l-252 0c-7.7 0-14 6.3-14 14z"/><path fill="currentColor" d="M56 56C40.5 56 28 68.5 28 84l0 84c0 15.5 12.5 28 28 28l392 0c15.5 0 28-12.5 28-28l0-84c0-15.5-12.5-28-28-28L56 56zM0 84C0 53.1 25.1 28 56 28l392 0c30.9 0 56 25.1 56 56l0 84c0 30.9-25.1 56-56 56L56 224c-30.9 0-56-25.1-56-56L0 84zM126 280l252 0c7.7 0 14 6.3 14 14s-6.3 14-14 14l-252 0c-7.7 0-14-6.3-14-14s6.3-14 14-14z"/></svg>