<svg xmlns="http://www.w3.org/2000/svg" viewBox="0 0 560 560"><!--! Font Awesome Pro 7.1.0 by @fontawesome - https://fontawesome.com License - https://fontawesome.com/license (Commercial License) Copyright 2025 Fonticons, Inc. --><path opacity=".4" fill="currentColor" d="M0 252c0 66.7 28.8 127.4 75.9 172.5L56.7 501c-.5 2-.7 4-.7 6l0 2.3c0 12.5 10.1 22.7 22.7 22.7 3.5 0 7-.8 10.1-2.4L175.9 486c32.2 11.6 67.3 18 104.1 18 154.6 0 280-112.8 280-252S434.6 0 280 0 0 112.8 0 252zm161 0a21 21 0 1 1 -42 0 21 21 0 1 1 42 0zm140 0a21 21 0 1 1 -42 0 21 21 0 1 1 42 0zm140 0a21 21 0 1 1 -42 0 21 21 0 1 1 42 0z"/><path fill="currentColor" d="M119 252a21 21 0 1 1 42 0 21 21 0 1 1 -42 0zm140 0a21 21 0 1 1 42 0 21 21 0 1 1 -42 0zm161-21a21 21 0 1 1 0 42 21 21 0 1 1 0-42z"/></svg>