<svg xmlns="http://www.w3.org/2000/svg" viewBox="0 0 616 560"><!--! Font Awesome Pro 7.1.0 by @fontawesome - https://fontawesome.com License - https://fontawesome.com/license (Commercial License) Copyright 2025 Fonticons, Inc. --><path opacity=".4" fill="currentColor" d="M0 390.7c0 6.8 2.7 13.3 7.5 18.1L179.2 580.5c4.8 4.8 11.3 7.5 18.1 7.5 12 0 22.4-8.3 25-20L244 471.4c2.9-12.8 14.2-21.9 27.3-21.9l64.7 0c123.7 0 224-100.3 224-224L560 112c0-46.4-37.6-84-84-84L362.4 28c-123.7 0-224 100.3-224 224l0 64.7c0 13.1-9.1 24.4-21.9 27.3L20 365.7c-11.7 2.6-20 13-20 25zM462 182a56 56 0 1 1 -112 0 56 56 0 1 1 112 0zm-84 0a28 28 0 1 0 56 0 28 28 0 1 0 -56 0z"/><path fill="currentColor" d="M406 154a28 28 0 1 1 0 56 28 28 0 1 1 0-56zm0 84a56 56 0 1 0 0-112 56 56 0 1 0 0 112z"/></svg>