<svg xmlns="http://www.w3.org/2000/svg" viewBox="0 0 560 560"><!--! Font Awesome Pro 7.1.0 by @fontawesome - https://fontawesome.com License - https://fontawesome.com/license (Commercial License) Copyright 2025 Fonticons, Inc. --><path opacity=".4" fill="currentColor" d="M0 280a280 280 0 1 0 560 0 280 280 0 1 0 -560 0zm14 0c0-7.7 6.3-14 14-14l112.2 0c2.1-87.8 24-166.4 58.2-217.8 4.3-6.4 13-8.2 19.4-3.9s8.2 13 3.9 19.4c-30.4 45.6-51.3 118.4-53.5 202.2l223.6 0c-2.1-83.9-23.1-156.6-53.5-202.2-4.3-6.4-2.5-15.1 3.9-19.4s15.1-2.5 19.4 3.9c34.2 51.3 56.1 129.9 58.2 217.8L532 266c7.7 0 14 6.3 14 14s-6.3 14-14 14l-112.2 0c-2.1 87.8-24 166.4-58.2 217.8-4.3 6.4-13 8.2-19.4 3.9s-8.2-13-3.9-19.4c30.4-45.6 51.4-118.4 53.5-202.2l-223.6 0c2.1 83.9 23.1 156.6 53.5 202.2 4.3 6.4 2.5 15.1-3.9 19.4s-15.1 2.5-19.4-3.9c-34.2-51.3-56.1-129.9-58.2-217.8L28 294c-7.7 0-14-6.3-14-14z"/><path fill="currentColor" d="M221.6 63.8c4.3-6.4 2.5-15.1-3.9-19.4s-15.1-2.5-19.4 3.9C164.2 99.6 142.3 178.2 140.2 266L28 266c-7.7 0-14 6.3-14 14s6.3 14 14 14l112.2 0c2.1 87.8 24 166.4 58.2 217.8 4.3 6.4 13 8.2 19.4 3.9s8.2-13 3.9-19.4c-30.4-45.6-51.3-118.4-53.5-202.2l223.6 0c-2.1 83.9-23.1 156.6-53.5 202.2-4.3 6.4-2.5 15.1 3.9 19.4s15.1 2.5 19.4-3.9c34.2-51.3 56.1-129.9 58.2-217.8L532 294c7.7 0 14-6.3 14-14s-6.3-14-14-14l-112.2 0c-2.1-87.8-24-166.4-58.2-217.8-4.3-6.4-13-8.2-19.4-3.9s-8.2 13-3.9 19.4c30.4 45.6 51.4 118.4 53.5 202.2l-223.6 0c2.1-83.9 23.1-156.6 53.5-202.2z"/></svg>