<svg xmlns="http://www.w3.org/2000/svg" viewBox="0 0 504 560"><!--! Font Awesome Pro 7.1.0 by @fontawesome - https://fontawesome.com License - https://fontawesome.com/license (Commercial License) Copyright 2025 Fonticons, Inc. --><path opacity=".4" fill="currentColor" d="M0 288.4c0 3.7 .6 7.4 1.7 11L34.6 403.5C64 496.6 150.4 560 248.2 560l59.8 0c92.8 0 168-75.2 168-168l0-154c0-64.4-33.5-121-84-153.4L392 294c0 7.7-6.3 14-14 14s-14-6.3-14-14l0-210c0-4.7 2.3-8.9 5.9-11.4-19.1-8.8-40-14.4-61.9-16L308 294c0 7.7-6.3 14-14 14s-14-6.3-14-14l0-238-56 0 0 238c0 7.7-6.3 14-14 14s-14-6.3-14-14l0-234.5C147.7 72 112 115.8 112 168l0 154-44.6-55.8c-7.2-9-18-14.2-29.5-14.2l-1.4 0C16.3 252 0 268.3 0 288.4z"/><path fill="currentColor" d="M210 42c7.7 0 14 6.3 14 14l0 238c0 7.7-6.3 14-14 14s-14-6.3-14-14l0-238c0-7.7 6.3-14 14-14zm84 0c7.7 0 14 6.3 14 14l0 238c0 7.7-6.3 14-14 14s-14-6.3-14-14l0-238c0-7.7 6.3-14 14-14zm98 42l0 210c0 7.7-6.3 14-14 14s-14-6.3-14-14l0-210c0-7.7 6.3-14 14-14s14 6.3 14 14z"/></svg>