<svg xmlns="http://www.w3.org/2000/svg" viewBox="0 0 616 560"><!--! Font Awesome Pro 7.1.0 by @fontawesome - https://fontawesome.com License - https://fontawesome.com/license (Commercial License) Copyright 2025 Fonticons, Inc. --><path opacity=".4" fill="currentColor" d="M56 247.5L308 45.9 560 247.5 560 420c0 61.9-50.1 112-112 112l-28 0 0-154c0-38.7-31.3-70-70-70l-84 0c-38.7 0-70 31.3-70 70l0 154-28 0c-61.9 0-112-50.1-112-112l0-172.5zM224 378c0-23.2 18.8-42 42-42l84 0c23.2 0 42 18.8 42 42l0 154-168 0 0-154z"/><path fill="currentColor" d="M316.7 17.1c-5.1-4.1-12.4-4.1-17.5 0l-280 224c-6 4.8-7 13.6-2.2 19.7s13.6 7 19.7 2.2l271.3-217 271.3 217c6 4.8 14.8 3.9 19.7-2.2s3.9-14.8-2.2-19.7l-280-224zM224 378c0-23.2 18.8-42 42-42l84 0c23.2 0 42 18.8 42 42l0 154c0 7.7 6.3 14 14 14s14-6.3 14-14l0-154c0-38.7-31.3-70-70-70l-84 0c-38.7 0-70 31.3-70 70l0 154c0 7.7 6.3 14 14 14s14-6.3 14-14l0-154z"/></svg>