<svg xmlns="http://www.w3.org/2000/svg" viewBox="0 0 616 560"><!--! Font Awesome Pro 7.1.0 by @fontawesome - https://fontawesome.com License - https://fontawesome.com/license (Commercial License) Copyright 2025 Fonticons, Inc. --><path opacity=".4" fill="currentColor" d="M28.5 168l0 174.5 118-137.7c26.5-31 73.8-32.8 102.6-3.9L535.5 487.2c31.8-19.8 53-55 53-95.2l0-224c0-61.9-50.1-112-112-112l-336 0c-61.9 0-112 50.1-112 112zm0 210l0 14c0 61.9 50.1 112 112 112l336 0c11 0 21.6-1.6 31.7-4.5L229.4 220.7c-17.3-17.3-45.7-16.2-61.6 2.4L39.1 373.1c-2.8 3.2-6.7 4.9-10.6 4.9zm490-182a70 70 0 1 1 -140 0 70 70 0 1 1 140 0zm-112 0a42 42 0 1 0 84 0 42 42 0 1 0 -84 0z"/><path fill="currentColor" d="M490.5 196a42 42 0 1 1 -84 0 42 42 0 1 1 84 0zm-42-70a70 70 0 1 0 0 140 70 70 0 1 0 0-140zM167.8 223c15.9-18.6 44.3-19.7 61.6-2.4L522.6 513.9c5.5 5.5 14.3 5.5 19.8 0s5.5-14.3 0-19.8L249.2 200.9c-28.8-28.8-76.1-27-102.6 3.9L17.9 354.9c-5 5.9-4.4 14.7 1.5 19.7s14.7 4.4 19.7-1.5L167.8 223z"/></svg>