<svg xmlns="http://www.w3.org/2000/svg" viewBox="0 0 560 560"><!--! Font Awesome Pro 7.1.0 by @fontawesome - https://fontawesome.com License - https://fontawesome.com/license (Commercial License) Copyright 2025 Fonticons, Inc. --><path opacity=".4" fill="currentColor" d="M0 168c0 8.6 4.9 16.4 12.6 20L249.2 301.3c9.2 4.4 19.2 6.7 29.4 6.7 10.1 0 20.1-2.2 29.2-6.6L547.4 188c7.7-3.7 12.7-11.4 12.7-20s-4.9-16.3-12.7-20L307.9 34.6c-9.1-4.3-19.1-6.6-29.2-6.6-10.2 0-20.2 2.3-29.4 6.7L12.6 148C4.9 151.6 0 159.4 0 168z"/><path fill="currentColor" d="M20.5 267.6c-6.8-3.6-15.3-1-18.9 5.9s-1 15.3 5.9 18.9L247.4 418.7c20.4 10.7 44.8 10.7 65.2 0L552.5 292.4c6.8-3.6 9.5-12.1 5.9-18.9s-12.1-9.5-18.9-5.9L299.6 393.9c-12.2 6.4-26.9 6.4-39.1 0L20.5 267.6zm0 112c-6.8-3.6-15.3-1-18.9 5.9s-1 15.3 5.9 18.9L247.4 530.7c20.4 10.7 44.8 10.7 65.2 0L552.5 404.4c6.8-3.6 9.5-12.1 5.9-18.9s-12.1-9.5-18.9-5.9L299.6 505.9c-12.2 6.4-26.9 6.4-39.1 0L20.5 379.6z"/></svg>