<svg xmlns="http://www.w3.org/2000/svg" viewBox="0 0 504 560"><!--! Font Awesome Pro 7.1.0 by @fontawesome - https://fontawesome.com License - https://fontawesome.com/license (Commercial License) Copyright 2025 Fonticons, Inc. --><path opacity=".4" fill="currentColor" d="M0 112c0 46.4 37.6 84 84 84 41.6 0 76.2-30.3 82.8-70L84 126c-7.7 0-14-6.3-14-14s6.3-14 14-14l82.8 0C160.2 58.3 125.6 28 84 28 37.6 28 0 65.6 0 112zM0 280c0 46.4 37.6 84 84 84 41.6 0 76.2-30.3 82.8-70L84 294c-7.7 0-14-6.3-14-14s6.3-14 14-14l82.8 0c-6.7-39.7-41.2-70-82.8-70-46.4 0-84 37.6-84 84zM0 448c0 46.4 37.6 84 84 84 41.6 0 76.2-30.3 82.8-70L84 462c-7.7 0-14-6.3-14-14s6.3-14 14-14l82.8 0c-6.7-39.7-41.2-70-82.8-70-46.4 0-84 37.6-84 84z"/><path fill="currentColor" d="M70 112c0-7.7 6.3-14 14-14l364 0c7.7 0 14 6.3 14 14s-6.3 14-14 14L84 126c-7.7 0-14-6.3-14-14zm0 168c0-7.7 6.3-14 14-14l364 0c7.7 0 14 6.3 14 14s-6.3 14-14 14L84 294c-7.7 0-14-6.3-14-14zm0 168c0-7.7 6.3-14 14-14l364 0c7.7 0 14 6.3 14 14s-6.3 14-14 14L84 462c-7.7 0-14-6.3-14-14z"/></svg>