<svg xmlns="http://www.w3.org/2000/svg" viewBox="0 0 560 560"><!--! Font Awesome Pro 7.1.0 by @fontawesome - https://fontawesome.com License - https://fontawesome.com/license (Commercial License) Copyright 2025 Fonticons, Inc. --><path opacity=".4" fill="currentColor" d="M0 252c0 139.2 112.8 252 252 252 64.6 0 123.4-24.3 168-64.2l-39.7-39.7C346 430 301.1 448 252 448 143.8 448 56 360.2 56 252S143.8 56 252 56 448 143.8 448 252c0 49.1-18 94-47.9 128.3L439.8 420C479.7 375.4 504 316.5 504 252 504 112.8 391.2 0 252 0S0 112.8 0 252zm84 0a168 168 0 1 0 336 0 168 168 0 1 0 -336 0z"/><path fill="currentColor" d="M420 252a168 168 0 1 0 -336 0 168 168 0 1 0 336 0zM380.3 400.1C346 430 301.1 448 252 448 143.8 448 56 360.2 56 252S143.8 56 252 56 448 143.8 448 252c0 49.1-18 94-47.9 128.3L555.9 536.1c5.5 5.5 5.5 14.3 0 19.8s-14.3 5.5-19.8 0L380.3 400.1z"/></svg>