<svg xmlns="http://www.w3.org/2000/svg" viewBox="0 0 616 560"><!--! Font Awesome Pro 7.1.0 by @fontawesome - https://fontawesome.com License - https://fontawesome.com/license (Commercial License) Copyright 2025 Fonticons, Inc. --><path opacity=".4" fill="currentColor" d="M168 159.8l0 92.2c0 77.3 62.7 140 140 140 26.4 0 51.1-7.3 72.2-20L168 159.8zm1.2-38.4L402.8 355c27.8-25.6 45.2-62.3 45.2-103l-83 0c-3.7 0-7.3-1.5-9.9-4.1-8.8-8.8-2.6-23.9 9.9-23.9l83 0 0-56-126 0c-7.7 0-14-6.3-14-14s6.3-14 14-14l126 0C448 62.7 385.3 0 308 0 237 0 178.3 52.9 169.2 121.4z"/><path fill="currentColor" d="M18.1 9.9c-5.5-5.5-5.5-14.3 0-19.8s14.3-5.5 19.8 0l560 560c5.5 5.5 5.5 14.3 0 19.8s-14.3 5.5-19.8 0L18.1 9.9zm337 238c-8.8-8.8-2.6-23.9 9.9-23.9l83 0c7.7 0 14 6.3 14 14s-6.3 14-14 14l-83 0c-3.7 0-7.3-1.5-9.9-4.1zm-243.4-83c.2 1 .4 2.1 .4 3.1l0 84c0 108.2 87.8 196 196 196 22.9 0 44.9-3.9 65.3-11.1 5.5-1.9 11.6-.7 15.7 3.4 7 7 5 18.9-4.4 22.3-19.7 7.2-40.7 11.7-62.6 13l0 56.4 112 0c7.7 0 14 6.3 14 14s-6.3 14-14 14l-252 0c-7.7 0-14-6.3-14-14s6.3-14 14-14l112 0 0-56.4C176.8 468.3 84 371 84 252l0-84c0-7.7 6.3-14 14-14 1.1 0 2.1 .1 3.1 .4 2.2 .5 4 1.9 5.5 3.5l1.4 1.4c1.6 1.6 3 3.4 3.5 5.5zM478.1 370.9c-4.8-4.8-5.5-12.4-2-18.2 17.7-29.4 27.8-63.9 27.8-100.7l0-84c0-7.7 6.3-14 14-14s14 6.3 14 14l0 84c0 42.8-12 82.8-32.9 116.9-4.6 7.4-14.8 8.3-21 2.1zM322 140l126 0c7.7 0 14 6.3 14 14s-6.3 14-14 14l-126 0c-7.7 0-14-6.3-14-14s6.3-14 14-14z"/></svg>