<svg xmlns="http://www.w3.org/2000/svg" viewBox="0 0 560 560"><!--! Font Awesome Pro 7.1.0 by @fontawesome - https://fontawesome.com License - https://fontawesome.com/license (Commercial License) Copyright 2025 Fonticons, Inc. --><path opacity=".4" fill="currentColor" d="M0 280c0 155.3 124.7 280 278.9 280 39.8 0 70-25.4 70-67.8 0-16-6.3-30.7-12.6-45.3-4.7-10.9-9.4-21.9-11.5-33.4-10.4-31.3 21.3-63.4 51.4-63.4l106.1 0C522.7 350 560 322.4 560 280 560 125.8 434.2 0 280 0 124.7 0 0 125.8 0 280zm168 56a56 56 0 1 1 -112 0 56 56 0 1 1 112 0zm28-168a56 56 0 1 1 -112 0 56 56 0 1 1 112 0zM84 336a28 28 0 1 0 56 0 28 28 0 1 0 -56 0zm28-168a28 28 0 1 0 56 0 28 28 0 1 0 -56 0zm252-56a56 56 0 1 1 -112 0 56 56 0 1 1 112 0zm-84 0a28 28 0 1 0 56 0 28 28 0 1 0 -56 0zM504 224a56 56 0 1 1 -112 0 56 56 0 1 1 112 0zm-84 0a28 28 0 1 0 56 0 28 28 0 1 0 -56 0z"/><path fill="currentColor" d="M336 112a28 28 0 1 1 -56 0 28 28 0 1 1 56 0zM308 56a56 56 0 1 0 0 112 56 56 0 1 0 0-112zM476 224a28 28 0 1 1 -56 0 28 28 0 1 1 56 0zm-28-56a56 56 0 1 0 0 112 56 56 0 1 0 0-112zM140 196a28 28 0 1 1 0-56 28 28 0 1 1 0 56zM84 168a56 56 0 1 0 112 0 56 56 0 1 0 -112 0zm56 168a28 28 0 1 1 -56 0 28 28 0 1 1 56 0zm-28-56a56 56 0 1 0 0 112 56 56 0 1 0 0-112z"/></svg>