<svg xmlns="http://www.w3.org/2000/svg" viewBox="0 0 616 560"><!--! Font Awesome Pro 7.1.0 by @fontawesome - https://fontawesome.com License - https://fontawesome.com/license (Commercial License) Copyright 2025 Fonticons, Inc. --><path opacity=".4" fill="currentColor" d="M13.7 241L120.9 347.7c2.1 2.1 3.1 5.2 2.7 8.2L100.2 505.2c-5.8 37.1 32.7 65.3 66.3 48.5l137.3-68.6c1.3-.7 2.8-1 4.2-1l0-503c0-4.3-3.5-7.8-7.7-7.1-13.5 2.2-26.1 10.3-33.3 24.3L196.7 133.5c-1.4 2.7-3.9 4.5-6.9 5L39 162.6c-37.3 6-52.1 51.7-25.3 78.4zm57-28.3c1.6-5 5.9-8.7 11.1-9.5l106-17c20.3-3.2 37.8-15.9 47.2-34.1 3.6-6.9 12-9.5 18.9-6s9.5 12 6 18.9c-13.6 26.1-38.6 44.2-67.7 48.8l-78.8 12.6 55.6 55.3c21.1 21 30.8 50.8 26.2 80.1-1.2 7.6-8.4 12.9-16 11.7s-12.9-8.4-11.7-16c3.2-20.5-3.6-41.3-18.3-55.9L74.1 226.9c-3.7-3.7-5.1-9.2-3.4-14.2z"/><path fill="currentColor" d="M253.9 146.2c6.9 3.6 9.5 12 6 18.9-13.6 26.1-38.6 44.2-67.7 48.8l-78.8 12.6 55.6 55.3c21.1 21 30.8 50.8 26.2 80.1-1.2 7.6-8.4 12.9-16 11.7s-12.9-8.4-11.7-16c3.2-20.5-3.6-41.3-18.3-55.9L74.1 226.9c-3.7-3.7-5.1-9.2-3.4-14.2s5.9-8.7 11.1-9.5l106-17c20.3-3.2 37.8-15.9 47.2-34.1 3.6-6.9 12-9.5 18.9-6z"/></svg>