<svg xmlns="http://www.w3.org/2000/svg" viewBox="0 0 504 560"><!--! Font Awesome Pro 7.1.0 by @fontawesome - https://fontawesome.com License - https://fontawesome.com/license (Commercial License) Copyright 2025 Fonticons, Inc. --><path opacity=".4" fill="currentColor" d="M0 442.7C0 476.5 27.5 504 61.3 504l177 0 0-189.9-66.2-66.2c-5.5-5.5-5.5-14.3 0-19.8s14.3-5.5 19.8 0l46.4 46.4 0-148.5c0-7.5 6.1-13.7 13.7-13.7s13.7 6.1 13.7 13.7l0 267 76.2-54.4c6.3-4.5 15-3 19.5 3.3s3 15-3.3 19.5l-92.5 66.1 0 76.6 177 0c33.9 0 61.3-27.5 61.3-61.3 0-14.6-5.2-28.8-14.8-39.9L384 280 386.7 280c33.9 0 61.3-27.5 61.3-61.3 0-14.6-5.2-28.8-14.8-39.9L298.3 21.3C286.7 7.8 269.7 0 251.9 0 234.2 0 217.3 7.7 205.7 21.1L69.5 178.8c-9.6 11.1-14.9 25.3-14.9 40 0 33.8 27.4 61.2 61.2 61.2l4.2 0-105.2 122.8C5.2 413.9 0 428 0 442.7z"/><path fill="currentColor" d="M265.7 126c0-7.5-6.1-13.7-13.7-13.7s-13.7 6.1-13.7 13.7l0 148.5-46.4-46.4c-5.5-5.5-14.3-5.5-19.8 0s-5.5 14.3 0 19.8l66.2 66.2 0 231.9c0 7.5 6.1 13.7 13.7 13.7s13.7-6.1 13.7-13.7l0-118.6 92.5-66.1c6.3-4.5 7.8-13.2 3.3-19.5s-13.2-7.8-19.5-3.3l-76.2 54.4 0-267z"/></svg>