<svg xmlns="http://www.w3.org/2000/svg" viewBox="0 0 672 560"><!--! Font Awesome Pro 7.1.0 by @fontawesome - https://fontawesome.com License - https://fontawesome.com/license (Commercial License) Copyright 2025 Fonticons, Inc. --><path opacity=".4" fill="currentColor" d="M13.1 444.2C-25.6 498.7 27.3 560 94.1 560L354 560c66.8 0 119.7-61.3 81-115.8-46.4-65.4-123.6-108.2-210.9-108.2S59.5 378.8 13.1 444.2zM84 140a140 140 0 1 0 280 0 140 140 0 1 0 -280 0zm57.5 34.4c-3.5-6.9-.8-15.3 6.1-18.8s15.3-.8 18.8 6.1C176.8 181.8 199.3 196 224 196s47.2-14.2 57.5-34.4c3.5-6.9 12-9.6 18.8-6.1s9.6 12 6.1 18.8C291.3 204.1 259.1 224 224 224s-67.3-19.9-82.5-49.6z"/><path fill="currentColor" d="M428.8 26.6c-11.5 0-22.7 1.7-33.1 4.9-6.7 2-13.7-1.7-15.7-8.4s1.7-13.7 8.4-15.7c12.8-3.9 26.4-6 40.5-6 76.5 0 138.6 62.1 138.6 138.6S505.4 278.6 428.8 278.6c-14.1 0-27.7-2.1-40.5-6-6.7-2-10.4-9.1-8.4-15.7s9.1-10.4 15.7-8.4c10.5 3.2 21.6 4.9 33.1 4.9 62.6 0 113.4-50.8 113.4-113.4S491.4 26.6 428.8 26.6zM414.8 350c0-7.7 6.3-14 14-14 104.5 0 194.8 60.2 238.3 147.8 3.4 6.9 .6 15.3-6.3 18.8s-15.3 .6-18.8-6.3c-39-78.4-119.8-132.2-213.3-132.2-7.7 0-14-6.3-14-14zM306.5 174.4C291.3 204.1 259.1 224 224 224s-67.3-19.9-82.5-49.6c-3.5-6.9-.8-15.3 6.1-18.8s15.3-.8 18.8 6.1C176.8 181.8 199.3 196 224 196s47.2-14.2 57.5-34.4c3.5-6.9 12-9.6 18.8-6.1s9.6 12 6.1 18.8z"/></svg>