<svg xmlns="http://www.w3.org/2000/svg" viewBox="0 0 560 560"><!--! Font Awesome Pro 7.1.0 by @fontawesome - https://fontawesome.com License - https://fontawesome.com/license (Commercial License) Copyright 2025 Fonticons, Inc. --><path opacity=".4" fill="currentColor" d="M0 168L0 392c0 61.9 50.1 112 112 112l196 0c60.8 0 110.3-48.5 112-108.9l-100-70c-31.4-22-31.9-68.4-1-91l100.7-73.9C415.7 102 367.2 56 308 56L112 56C50.1 56 0 106.1 0 168zm335.5 88.6c-15.5 11.3-15.2 34.5 .5 45.5l84 58.8 0-166.2-84.5 61.9z"/><path fill="currentColor" d="M487.2 145.4c4.8-3.5 10.6-5.4 16.6-5.4 15.5 0 28.2 12.6 28.2 28l0 217c0 15.5-12.5 28-28 28l-.8 0c-5.7 0-11.4-1.8-16.1-5.1L336 302.1c-15.7-11-16-34.2-.5-45.5L487.2 145.4zM503.8 112c-11.9 0-23.6 3.8-33.2 10.8L319 234c-30.9 22.7-30.4 69 1 91L471.1 430.9c9.4 6.6 20.6 10.1 32.1 10.1l.8 0c30.9 0 56-25.1 56-56l0-217c0-31-25.3-56-56.2-56z"/></svg>