<svg width="24" height="24" viewBox="0 0 24 24" fill="none" xmlns="http://www.w3.org/2000/svg">
<path opacity="0.4" d="M2.68945 13.6124V6.61243H21.6895V13.6124C21.6895 17.3837 21.6895 19.2693 20.5179 20.4409C19.3463 21.6124 17.4607 21.6124 13.6895 21.6124H10.6895C6.91822 21.6124 5.0326 21.6124 3.86103 20.4409C2.68945 19.2693 2.68945 17.3837 2.68945 13.6124Z" fill="#141B34"/>
<path d="M15.6895 21.6124H10.6895C6.91822 21.6124 5.0326 21.6124 3.86103 20.4409C2.68945 19.2693 2.68945 17.3837 2.68945 13.6124V6.61243H21.6895V13.6124" stroke="#141B34" stroke-width="1.5" stroke-linecap="round" stroke-linejoin="round"/>
<path d="M2.68945 6.61243L3.28945 5.81243C4.46716 4.24215 5.05602 3.45701 5.9006 3.03472C6.74518 2.61243 7.72661 2.61243 9.68945 2.61243H14.6895C16.6523 2.61243 17.6337 2.61243 18.4783 3.03472C19.3229 3.45701 19.9117 4.24215 21.0895 5.81243L21.6895 6.61243" stroke="#141B34" stroke-width="1.5" stroke-linecap="round" stroke-linejoin="round"/>
<path d="M16.1894 13.6112C16.1894 13.6112 13.6895 15.4525 13.6895 16.1113C13.6894 16.7701 16.1895 18.6112 16.1895 18.6112M14.1895 16.1112L18.9397 16.112C20.4584 16.1122 21.6895 17.3436 21.6895 18.8623C21.6895 20.3811 20.4582 21.6124 18.9395 21.6124" stroke="#141B34" stroke-width="1.5" stroke-linecap="round" stroke-linejoin="round"/>
</svg>
