<svg width="24" height="24" viewBox="0 0 24 24" fill="none" xmlns="http://www.w3.org/2000/svg">
<path opacity="0.4" d="M2.5 14.432V9.56803C2.5 6.1257 2.5 4.40454 3.63388 3.51317C4.76777 2.6218 6.4649 3.00882 9.85915 3.78286L10.8605 4.01121L10.8605 4.01122C13.0944 4.52064 14.2114 4.77536 14.8645 5.58671C15.3216 6.15451 15.4588 6.87972 15.5 8.04045V15.9595C15.4588 17.1203 15.3216 17.8455 14.8645 18.4133C14.2114 19.2246 13.0944 19.4794 10.8605 19.9888L10.8605 19.9888L9.85915 20.2171C6.4649 20.9912 4.76777 21.3782 3.63388 20.4868C2.5 19.5955 2.5 17.8743 2.5 14.432Z" fill="#141B34"/>
<path d="M15.5 8.04045C15.4588 6.87972 15.3216 6.15451 14.8645 5.58671C14.2114 4.77536 13.0944 4.52064 10.8605 4.01121L9.85915 3.78286C6.4649 3.00882 4.76777 2.6218 3.63388 3.51317C2.5 4.40454 2.5 6.1257 2.5 9.56803V14.432C2.5 17.8743 2.5 19.5955 3.63388 20.4868C4.76777 21.3782 6.4649 20.9912 9.85915 20.2171L10.8605 19.9888C13.0944 19.4794 14.2114 19.2246 14.8645 18.4133C15.3216 17.8455 15.4588 17.1203 15.5 15.9595" stroke="#141B34" stroke-width="1.5" stroke-linecap="round" stroke-linejoin="round"/>
<path d="M18.5 9.01172C18.5 9.01172 21.5 11.2212 21.5 12.0117C21.5 12.8023 18.5 15.0117 18.5 15.0117M21 12.0117H8.49998" stroke="#141B34" stroke-width="1.5" stroke-linecap="round" stroke-linejoin="round"/>
</svg>
