<svg width="24" height="24" viewBox="0 0 24 24" fill="none" xmlns="http://www.w3.org/2000/svg">
<path opacity="0.4" d="M14 2C14.4642 2 14.6963 2.00048 14.8916 2.02246C16.5143 2.20529 17.7947 3.48571 17.9775 5.1084C17.9995 5.30366 18 5.53584 18 6V9.33008C17.932 9.26914 17.8625 9.20644 17.791 9.14258C16.4002 7.89979 15.7046 7.27902 15.125 7.50195C15.1039 7.51008 15.083 7.51881 15.0625 7.52832C14.5019 7.78854 14.5 8.69317 14.5 10.501H9.5C9.03406 10.501 8.80096 10.501 8.61719 10.5771C8.37226 10.6786 8.17766 10.8732 8.07617 11.1182C8.00005 11.3019 8 11.535 8 12.001C8 12.4669 8.00005 12.7 8.07617 12.8838C8.17766 13.1287 8.37226 13.3233 8.61719 13.4248C8.80096 13.5009 9.03406 13.501 9.5 13.501H14.5C14.5002 15.2503 14.5111 16.1298 15.0625 16.3857C15.083 16.3953 15.1039 16.404 15.125 16.4121C15.7046 16.635 16.4002 16.0143 17.791 14.7715C17.8627 14.7075 17.9319 14.6441 18 14.583V18C18 18.4642 17.9995 18.6963 17.9775 18.8916C17.7947 20.5143 16.5143 21.7947 14.8916 21.9775C14.6963 21.9995 14.4642 22 14 22H11C7.70017 22 6.05052 21.9997 5.02539 20.9746C4.00027 19.9495 4 18.2998 4 15V9C4 5.7002 4.00029 4.05052 5.02539 3.02539C6.05052 2.00027 7.70019 2 11 2H14Z" fill="#141B34"/>
<path d="M18 18C18 18.4644 18 18.6965 17.978 18.8918C17.7952 20.5145 16.5145 21.7952 14.8919 21.978C14.6965 22 14.4644 22 14 22H11C7.70017 22 6.05025 22 5.02513 20.9749C4 19.9498 4 18.2998 4 15L4.00001 8.99998C4.00001 5.70016 4.00003 4.05024 5.02514 3.02512C6.05027 2 7.70018 2 11 2H14C14.4644 2 14.6965 2 14.8919 2.02201C16.5145 2.20483 17.7952 3.48547 17.978 5.10816C18 5.30347 18 5.53565 18 6" stroke="#141B34" stroke-width="1.5" stroke-linecap="round" stroke-linejoin="round"/>
<path d="M8.07612 11.1183C8 11.3021 8 11.535 8 12.001C8 12.4669 8 12.6999 8.07612 12.8837C8.17761 13.1287 8.37229 13.3234 8.61732 13.4249C8.80109 13.501 9.03406 13.501 9.5 13.501H14.5C14.5002 15.2503 14.511 16.1299 15.0623 16.3858C15.0829 16.3954 15.1037 16.4042 15.1249 16.4124C15.7045 16.6353 16.3999 16.0139 17.7907 14.7711C19.2576 13.4602 19.9912 12.7851 20 11.957C19.9912 11.1289 19.2576 10.4538 17.7907 9.14301C16.3999 7.90018 15.7045 7.27876 15.1249 7.50171C15.1037 7.50985 15.0829 7.51869 15.0623 7.52822C14.5018 7.78844 14.5 8.69318 14.5 10.501H9.5C9.03406 10.501 8.80109 10.501 8.61732 10.5771C8.37229 10.6786 8.17761 10.8733 8.07612 11.1183Z" stroke="#141B34" stroke-width="1.5" stroke-linecap="round" stroke-linejoin="round"/>
</svg>
