<svg width="24" height="24" viewBox="0 0 24 24" fill="none" xmlns="http://www.w3.org/2000/svg">
<path opacity="0.4" d="M14.9168 3.15458C14.3472 3.78093 14 4.61317 14 5.52651C14 7.47416 15.5789 9.05304 17.5265 9.05304C18.9323 9.05304 20.1459 8.23055 20.7124 7.04056C21.4224 8.19325 21.8668 9.53236 21.9598 10.9707C22.0134 11.8009 22.0134 12.6607 21.9598 13.4909C21.6856 17.7332 18.3536 21.1124 14.1706 21.3905C12.7435 21.4854 11.2536 21.4852 9.8294 21.3905C9.33896 21.3579 8.8044 21.2409 8.34401 21.0513C7.83182 20.8403 7.5756 20.7348 7.44544 20.7508C7.31527 20.7668 7.1264 20.9061 6.74868 21.1846C6.08268 21.6757 5.24367 22.0285 3.99943 21.9982C3.37027 21.9828 3.05567 21.9752 2.91484 21.7351C2.77401 21.495 2.94941 21.1626 3.30021 20.4978C3.78674 19.5758 4.09501 18.5203 3.62791 17.6746C2.82343 16.4666 2.1401 15.036 2.04024 13.4909C1.98659 12.6607 1.98659 11.8009 2.04024 10.9707C2.31441 6.72835 5.64639 3.34911 9.8294 3.07105C11.2536 2.97638 12.7435 2.97619 14.1706 3.07105C14.4226 3.0878 14.6715 3.11581 14.9168 3.15458Z" fill="#141B34"/>
<path d="M11.5071 2.99999C10.9462 3.01155 10.2474 3.03102 9.83523 3.05842C5.6491 3.33666 2.31464 6.71816 2.04027 10.9633C1.98658 11.7941 1.98658 12.6544 2.04027 13.4852C2.1402 15.0313 2.82405 16.4629 3.62912 17.6717C4.09657 18.518 3.78807 19.5742 3.30118 20.4968C2.95012 21.162 2.77459 21.4946 2.91552 21.7349C3.05646 21.9752 3.37128 21.9829 4.00091 21.9982C5.24608 22.0285 6.08572 21.6755 6.75221 21.1841C7.13022 20.9053 7.31922 20.766 7.44949 20.75C7.57976 20.734 7.83611 20.8395 8.34873 21.0506C8.80947 21.2404 9.34443 21.3575 9.83523 21.3901C11.2605 21.4848 12.7515 21.485 14.1797 21.3901C18.3658 21.1119 21.7003 17.7304 21.9746 13.4852C21.9851 13.3224 21.9936 13.1585 22 12.994" stroke="#141B34" stroke-width="1.5" stroke-linecap="round" stroke-linejoin="round"/>
<path d="M11.9953 12.5H12.0043M15.9908 12.5H15.9998M7.99982 12.5H8.00879" stroke="#141B34" stroke-width="2" stroke-linecap="round" stroke-linejoin="round"/>
<path d="M20.017 8.02332L22 9.99999M21.0531 5.52652C21.0531 3.57887 19.4742 1.99999 17.5265 1.99999C15.5789 1.99999 14 3.57887 14 5.52652C14 7.47417 15.5789 9.05305 17.5265 9.05305C19.4742 9.05305 21.0531 7.47417 21.0531 5.52652Z" stroke="#141B34" stroke-width="1.5" stroke-linecap="round" stroke-linejoin="round"/>
</svg>
