<svg width="24" height="24" viewBox="0 0 24 24" fill="none" xmlns="http://www.w3.org/2000/svg">
<path opacity="0.4" fill-rule="evenodd" clip-rule="evenodd" d="M14 2C16.8284 2 18.2424 2.00023 19.1211 2.87891C19.9998 3.75759 20 5.17157 20 8V16C20 18.8284 19.9998 20.2424 19.1211 21.1211C18.2424 21.9998 16.8284 22 14 22H10C7.17157 22 5.75759 21.9998 4.87891 21.1211C4.00023 20.2424 4 18.8284 4 16V8C4 5.17157 4.00023 3.75759 4.87891 2.87891C5.75759 2.00023 7.17157 2 10 2H14ZM10 14C8.89543 14 8 14.8954 8 16C8 17.1046 8.89543 18 10 18H14C15.1046 18 16 17.1046 16 16C16 14.8954 15.1046 14 14 14H10ZM10 6C8.89543 6 8 6.89543 8 8C8 9.10457 8.89543 10 10 10H14C15.1046 10 16 9.10457 16 8C16 6.89543 15.1046 6 14 6H10Z" fill="#141B34"/>
<path d="M20 16V8C20 5.17157 20 3.75736 19.1213 2.87868C18.2426 2 16.8284 2 14 2H10C7.17157 2 5.75736 2 4.87868 2.87868C4 3.75736 4 5.17157 4 8V16C4 18.8284 4 20.2426 4.87868 21.1213C5.75736 22 7.17157 22 10 22H14C16.8284 22 18.2426 22 19.1213 21.1213C20 20.2426 20 18.8284 20 16Z" stroke="#141B34" stroke-width="1.5" stroke-linecap="round" stroke-linejoin="round"/>
<path d="M10 6H14C15.1046 6 16 6.89543 16 8C16 9.10457 15.1046 10 14 10H10C8.89543 10 8 9.10457 8 8C8 6.89543 8.89543 6 10 6Z" stroke="#141B34" stroke-width="1.5" stroke-linecap="round" stroke-linejoin="round"/>
<path d="M10 14H14C15.1046 14 16 14.8954 16 16C16 17.1046 15.1046 18 14 18H10C8.89543 18 8 17.1046 8 16C8 14.8954 8.89543 14 10 14Z" stroke="#141B34" stroke-width="1.5" stroke-linecap="round" stroke-linejoin="round"/>
<path d="M12 6V10" stroke="#141B34" stroke-width="1.5" stroke-linecap="round" stroke-linejoin="round"/>
<path d="M12 14V18" stroke="#141B34" stroke-width="1.5" stroke-linecap="round" stroke-linejoin="round"/>
</svg>
