<svg width="24" height="24" viewBox="0 0 24 24" fill="none" xmlns="http://www.w3.org/2000/svg">
<path opacity="0.4" d="M2.63391 8H21.6339L20.4695 14.9864C20.0704 17.3809 19.8709 18.5781 19.0317 19.2891C18.1924 20 16.9787 20 14.5511 20H9.71667C7.28916 20 6.0754 20 5.23617 19.2891C4.39693 18.5781 4.19739 17.3809 3.79831 14.9864L2.63391 8Z" fill="#141B34"/>
<path d="M12 12V16" stroke="#141B34" stroke-width="1.5" stroke-linecap="round" stroke-linejoin="round"/>
<path d="M8 12V16" stroke="#141B34" stroke-width="1.5" stroke-linecap="round" stroke-linejoin="round"/>
<path d="M22.5 8H1.5" stroke="#141B34" stroke-width="1.5" stroke-linecap="round" stroke-linejoin="round"/>
<path d="M18 8L15 3" stroke="#141B34" stroke-width="1.5" stroke-linecap="round" stroke-linejoin="round"/>
<path d="M6 8L9 3" stroke="#141B34" stroke-width="1.5" stroke-linecap="round" stroke-linejoin="round"/>
<path d="M19 15V21M16 18H22" stroke="#141B34" stroke-width="1.5" stroke-linecap="round" stroke-linejoin="round"/>
<path d="M14 20H9.58281C7.1553 20 5.94154 20 5.1023 19.2891C4.26307 18.5781 4.06353 17.3809 3.66444 14.9864L2.50005 8H21.5L20.75 12.5" stroke="#141B34" stroke-width="1.5" stroke-linecap="round" stroke-linejoin="round"/>
</svg>
