<svg width="24" height="24" viewBox="0 0 24 24" fill="none" xmlns="http://www.w3.org/2000/svg">
<path opacity="0.4" d="M14.6904 20.9999H9.69043C6.862 20.9999 5.44779 20.9999 4.56911 20.1212C3.69043 19.2425 3.69043 17.8283 3.69043 14.9999V9.85545C3.9652 9.94873 4.26109 9.99951 4.56943 9.99951C6.01697 9.99951 7.19043 8.88022 7.19043 7.49951C7.19043 8.88022 8.30972 9.99951 9.69043 9.99951C11.0711 9.99951 12.1904 8.88022 12.1904 7.49951C12.1904 8.88022 13.3097 9.99951 14.6904 9.99951C16.0711 9.99951 17.1904 8.88209 17.1904 7.50138C17.1904 8.88209 18.3639 10.0014 19.8114 10.0014C20.1197 10.0014 20.4157 9.95059 20.6904 9.85731V14.9999C20.6904 17.8283 20.6904 19.2425 19.8118 20.1212C18.9331 20.9999 17.5189 20.9999 14.6904 20.9999Z" fill="#141B34"/>
<path d="M3.69043 9.99988V14.9999C3.69043 17.8283 3.69043 19.2425 4.56911 20.1212C5.44779 20.9999 6.862 20.9999 9.69043 20.9999H14.6904C17.5189 20.9999 18.9331 20.9999 19.8118 20.1212C20.6904 19.2425 20.6904 17.8283 20.6904 14.9999V9.99988" stroke="#141B34" stroke-width="1.5" stroke-linecap="round" stroke-linejoin="round"/>
<path d="M8.19043 17.9999H16.1904" stroke="#141B34" stroke-width="1.5" stroke-linecap="round" stroke-linejoin="round"/>
<path d="M17.1904 7.50171C17.1904 8.88243 16.0711 9.99985 14.6904 9.99985C13.3097 9.99985 12.1904 8.88056 12.1904 7.49985C12.1904 8.88056 11.0711 9.99985 9.69043 9.99985C8.30972 9.99985 7.19043 8.88056 7.19043 7.49985C7.19043 8.88056 6.01697 9.99985 4.56943 9.99985C3.79026 9.99985 3.0905 9.67555 2.61042 9.16075C1.78504 8.27567 2.31602 6.97391 3.00489 5.9883L3.39243 5.45839C4.27427 4.25258 4.71519 3.64968 5.35534 3.32482C5.99549 2.99996 6.74243 3.00005 8.23629 3.00025L16.1455 3.00131C17.6389 3.00151 18.3856 3.00161 19.0255 3.32646C19.6655 3.65131 20.1062 4.25402 20.9878 5.45945L21.3759 5.99017C22.0648 6.97577 22.5958 8.27754 21.7704 9.16261C21.2903 9.67742 20.5906 10.0017 19.8114 10.0017C18.3639 10.0017 17.1904 8.88243 17.1904 7.50171Z" stroke="#141B34" stroke-width="1.5" stroke-linecap="round" stroke-linejoin="round"/>
</svg>
