<svg width="24" height="24" viewBox="0 0 24 24" fill="none" xmlns="http://www.w3.org/2000/svg">
<path opacity="0.4" d="M14.6904 21H9.69043C6.862 21 5.44779 21 4.56911 20.1214C3.69043 19.2427 3.69043 17.8285 3.69043 15V9.85558C3.9652 9.94885 4.26109 9.99963 4.56943 9.99963C6.01697 9.99963 7.19043 8.88035 7.19043 7.49963C7.19043 8.88035 8.30972 9.99963 9.69043 9.99963C11.0711 9.99963 12.1904 8.88035 12.1904 7.49963C12.1904 8.88035 13.3097 9.99963 14.6904 9.99963C16.0711 9.99963 17.1904 8.88221 17.1904 7.5015C17.1904 8.88221 18.3639 10.0015 19.8114 10.0015C20.1197 10.0015 20.4157 9.95071 20.6904 9.85743V15C20.6904 17.8285 20.6904 19.2427 19.8118 20.1214C18.9331 21 17.5189 21 14.6904 21Z" fill="#141B34"/>
<path d="M3.69043 9.99963V14.9996C3.69043 17.8281 3.69043 19.2423 4.56911 20.121C5.44779 20.9996 6.862 20.9996 9.69043 20.9996H12.1904M20.6904 12.9996V9.99963" stroke="#141B34" stroke-width="1.5" stroke-linecap="round" stroke-linejoin="round"/>
<path d="M17.1904 7.50147C17.1904 8.88218 16.0711 9.9996 14.6904 9.9996C13.3097 9.9996 12.1904 8.88032 12.1904 7.4996C12.1904 8.88032 11.0711 9.9996 9.69043 9.9996C8.30972 9.9996 7.19043 8.88032 7.19043 7.4996C7.19043 8.88032 6.01697 9.9996 4.56943 9.9996C3.79026 9.9996 3.0905 9.67531 2.61042 9.1605C1.78504 8.27543 2.31602 6.97366 3.00489 5.98806L3.39243 5.45815C4.27427 4.25234 4.71519 3.64943 5.35534 3.32457C5.99549 2.99971 6.74243 2.99981 8.23629 3.00001L16.1455 3.00106C17.6389 3.00126 18.3856 3.00136 19.0255 3.32621C19.6655 3.65106 20.1062 4.25378 20.9878 5.4592L21.3759 5.98992C22.0648 6.97553 22.5958 8.2773 21.7704 9.16237C21.2903 9.67717 20.5906 10.0015 19.8114 10.0015C18.3639 10.0015 17.1904 8.88218 17.1904 7.50147Z" stroke="#141B34" stroke-width="1.5" stroke-linecap="round" stroke-linejoin="round"/>
<path d="M15.6904 15.9996L20.6904 20.9996M15.6904 20.9996L20.6904 15.9996" stroke="#141B34" stroke-width="1.5" stroke-linecap="round" stroke-linejoin="round"/>
</svg>
