<svg width="24" height="24" viewBox="0 0 24 24" fill="none" xmlns="http://www.w3.org/2000/svg">
<path d="M10.0005 8C9.16474 7.37209 8.12582 7 7 7C6.83823 7 6.67826 7.00768 6.52042 7.0227C3.98398 7.26407 2 9.40034 2 12C2 13.7891 2.93963 15.3587 4.35232 16.2422M20 16.2422C21.206 15.435 22 14.0602 22 12.5C22 10.1449 20.1908 8.21236 17.8864 8.01636M16.9003 10C17.2119 9.39038 17.4131 8.71494 17.4776 8.00005C17.4924 7.83536 17.5 7.66856 17.5 7.5C17.5 4.46243 15.0376 2 12 2C9.28934 2 7.03668 3.96094 6.58321 6.54162" stroke="#141B34" stroke-width="1.5"/>
<path d="M15 14H9V20H15V14Z" stroke="#141B34" stroke-width="1.5" stroke-linecap="round"/>
<path d="M10.5 20V22M13.5 20V22M10.5 12V14M13.5 12V14M9 15.5H7M9 18.5H7M17 15.5H15M17 18.5H15" stroke="#141B34" stroke-width="1.5" stroke-linejoin="round"/>
</svg>
