<svg width="24" height="24" viewBox="0 0 24 24" fill="none" xmlns="http://www.w3.org/2000/svg">
<path d="M12.0045 10.5H12.0135M16 10.5H16.009M8.009 10.5H8.01797" stroke="#141B34" stroke-width="2" stroke-linecap="square"/>
<path d="M2 10.5C2 7.60811 2.18952 4.97468 2.5 3C5.00126 2.68952 8.33695 2.5 12 2.5C15.6631 2.5 18.9987 2.68952 21.5 3C21.8105 4.97468 22 7.60811 22 10.5C22 13.3919 21.8105 16.0253 21.5 18C19.113 18.2963 15.9661 18.4824 12.5 18.4988L8.13107 21.5H8V18.4219C5.92608 18.3388 4.05234 18.1927 2.5 18C2.18952 16.0253 2 13.3919 2 10.5Z" stroke="#141B34" stroke-width="1.5" stroke-linecap="square"/>
</svg>
