<svg width="24" height="24" viewBox="0 0 24 24" fill="none" xmlns="http://www.w3.org/2000/svg">
<path d="M14 21H16M14 21C13.1716 21 12.5 20.3284 12.5 19.5V17L12 17M14 21H10M10 21H8M10 21C10.8284 21 11.5 20.3284 11.5 19.5V17L12 17M12 17V21" stroke="#141B34" stroke-width="1.5" stroke-linecap="square"/>
<path d="M22 3H2V17H22V3Z" stroke="#141B34" stroke-width="1.5" stroke-linecap="square"/>
<path d="M12 10.5C13.1046 10.5 14 9.60457 14 8.5C14 7.39543 13.1046 6.5 12 6.5C10.8954 6.5 10 7.39543 10 8.5C10 9.60457 10.8954 10.5 12 10.5ZM12 10.5C10.3431 10.5 9 11.8431 9 13.5M12 10.5C13.6569 10.5 15 11.8431 15 13.5" stroke="#141B34" stroke-width="1.5" stroke-linecap="square"/>
</svg>
