<svg width="24" height="24" viewBox="0 0 24 24" fill="none" xmlns="http://www.w3.org/2000/svg">
<path d="M17.25 3V4.33957M17.25 4.33957C17.9156 4.33957 18.5182 4.60934 18.9545 5.04551M17.25 4.33957C16.5844 4.33957 15.9818 4.60934 15.5455 5.04551M17.25 9.161V10.5M17.25 9.161C17.9158 9.161 18.5185 8.89111 18.9548 8.45477M17.25 9.161C16.5842 9.161 15.9815 8.89111 15.5452 8.45477M21 6.75L19.6607 6.75028M19.6607 6.75028C19.6607 7.41591 19.3909 8.01853 18.9548 8.45477M19.6607 6.75028C19.6607 6.08451 19.3908 5.48177 18.9545 5.04551M14.8393 6.75028L13.5 6.75M14.8393 6.75028C14.8393 6.08451 15.1092 5.48177 15.5455 5.04551M14.8393 6.75028C14.8393 7.41591 15.1091 8.01853 15.5452 8.45477M19.9017 4.09835L18.9545 5.04551M14.5984 9.40165L15.5452 8.45477M19.9017 9.40165L18.9548 8.45477M14.5984 4.09835L15.5455 5.04551" stroke="#141B34" stroke-width="1.5" stroke-linecap="square"/>
<path d="M10.5 3H3V10.5H10.5V3Z" stroke="#141B34" stroke-width="1.5" stroke-linecap="square"/>
<path d="M10.5 13.5H3V21H10.5V13.5Z" stroke="#141B34" stroke-width="1.5" stroke-linecap="square"/>
<path d="M21 13.5H13.5V21H21V13.5Z" stroke="#141B34" stroke-width="1.5" stroke-linecap="square"/>
</svg>
