<svg width="24" height="24" viewBox="0 0 24 24" fill="none" xmlns="http://www.w3.org/2000/svg">
<path d="M11 11L13 11V13H11V11Z" stroke="#141B34" stroke-width="1.5" stroke-linecap="square"/>
<path d="M17 11L19 11V13H17V11Z" stroke="#141B34" stroke-width="1.5" stroke-linecap="square"/>
<path d="M5 11L7 11V13H5V11Z" stroke="#141B34" stroke-width="1.5" stroke-linecap="square"/>
<path d="M11 4.99998L13 5V7H11V4.99998Z" stroke="#141B34" stroke-width="1.5" stroke-linecap="square"/>
<path d="M17 4.99998L19 5V7H17V4.99998Z" stroke="#141B34" stroke-width="1.5" stroke-linecap="square"/>
<path d="M5 4.99998L7 5V7H5V4.99998Z" stroke="#141B34" stroke-width="1.5" stroke-linecap="square"/>
<path d="M11 17L13 17V19H11V17Z" stroke="#141B34" stroke-width="1.5" stroke-linecap="square"/>
<path d="M17 17L19 17V19H17V17Z" stroke="#141B34" stroke-width="1.5" stroke-linecap="square"/>
<path d="M5 17L7 17V19H5V17Z" stroke="#141B34" stroke-width="1.5" stroke-linecap="square"/>
</svg>
