<svg width="24" height="24" viewBox="0 0 24 24" fill="none" xmlns="http://www.w3.org/2000/svg">
<path d="M16 13.5L18.5 16M18.5 16L21 18.5M18.5 16L21 13.5M18.5 16L16 18.5" stroke="#141B34" stroke-width="1.5" stroke-linecap="square"/>
<path d="M13 19.8564C12.3834 20.27 12 20.5 12 20.5C12 20.5 2 14.5 2 8.69444C2 5.82563 4.10526 3.5 7 3.5C8.5 3.5 10 4 12 6C14 4 15.5 3.5 17 3.5C19.8947 3.5 22 5.82563 22 8.69444C22 9.12941 21.9439 9.56546 21.84 10" stroke="#141B34" stroke-width="1.5" stroke-linecap="square"/>
</svg>
