<svg width="24" height="24" viewBox="0 0 24 24" fill="none" xmlns="http://www.w3.org/2000/svg">
<path d="M12 5C10.3431 5 9 6.34315 9 8V10C9 11.6569 10.3431 13 12 13C13.6569 13 15 11.6569 15 10V8C15 6.34315 13.6569 5 12 5Z" stroke="#141B34" stroke-width="1.5"/>
<path d="M15 10C15 12.5 14.68 14.4 11.2667 16C7.85333 17.6 7 19.8333 7 21" stroke="#141B34" stroke-width="1.5"/>
<path d="M9 8H15" stroke="#141B34" stroke-width="1.5" stroke-linecap="round"/>
<path d="M17.8022 7.51864C17.8022 4.47078 15.2045 2 12 2C8.79554 2 6.19782 4.47078 6.19782 7.51864C6.19782 9.61659 4.40132 15.0343 1.99981 18C8.00383 23.3333 15.9958 23.3333 21.9998 18C19.5983 15.0343 17.8022 9.61659 17.8022 7.51864Z" stroke="#141B34" stroke-width="1.5"/>
</svg>
