<svg width="24" height="24" viewBox="0 0 24 24" fill="none" xmlns="http://www.w3.org/2000/svg">
<path d="M10 3.65576C9.78799 3.86764 9.49509 3.99868 9.17157 3.99868C8.52453 3.99868 8 3.4745 8 2.82788C8 2.50458 8.13113 2.21187 8.34315 2M9 3.99868V5.99736" stroke="#141B34" stroke-width="1.5" stroke-linejoin="round"/>
<path d="M7.00009 21.9863V19.9877C6.98279 16.9896 9.5 15.9903 9.5 15.9903C9.5 15.9903 12.0172 16.9896 11.9999 19.9877V21.9863" stroke="#141B34" stroke-width="1.5"/>
<path d="M16.4512 6.99093C16.1778 6.42229 15.7186 5.60926 16.2457 4.31433C16.5973 3.45051 17.9122 2.59068 18.5002 1.98828C19.0585 2.55529 20.4528 3.53748 20.769 4.31433C21.296 5.60926 20.8243 6.43083 20.5596 6.99093M16.4512 6.99093L15.9872 12.984M16.4512 6.99093H20.5596M20.5596 6.99093L21.5029 21.9823H16.9915M15.9872 12.984H2.10391C2.04868 12.984 2.00391 13.0288 2.00391 13.084L2.00391 21.9823H16.9915M15.9872 12.984H16.8915C16.9467 12.984 16.9915 13.0288 16.9915 13.084V21.9823" stroke="#141B34" stroke-width="1.5"/>
<path d="M6.39411 7.7583C6.80216 7.39816 8.35668 6.54352 8.98754 5.99738C9.52265 6.47039 11.2646 7.44506 11.575 7.74064C11.8855 8.03622 14.8812 9.77428 12.7099 13.0099H5.25169C3.24058 9.73785 5.88286 8.20954 6.39411 7.7583Z" stroke="#141B34" stroke-width="1.5"/>
</svg>
