<svg width="24" height="24" viewBox="0 0 24 24" fill="none" xmlns="http://www.w3.org/2000/svg">
<path d="M18.6667 3.00001C19.8356 3.00001 20.9578 3.19634 22 3.55847V19.0585C20.9578 18.6963 19.8356 18.5 18.6667 18.5C16.2062 18.4966 13.8315 19.3871 12 21C10.1685 19.3871 7.79379 18.4966 5.33333 18.5C4.16444 18.5 3.04222 18.6963 2 19.0585V3.55847C3.04222 3.19634 4.16444 3.00001 5.33333 3.00001M12 20.25V12" stroke="#141B34" stroke-width="1.5" stroke-linecap="square"/>
<path d="M8 4.44561C8 4.44561 9.5 3.00004 12.0045 3C14.5091 2.99996 16 4.44561 16 4.44561M14.5 6.99996C14.5 6.99996 13.5091 5.99742 12.0045 5.99742C10.5 5.99742 9.5 6.99996 9.5 6.99996M12 9H12.01" stroke="#141B34" stroke-width="1.5" stroke-linecap="square"/>
</svg>
