<svg width="24" height="24" viewBox="0 0 24 24" fill="none" xmlns="http://www.w3.org/2000/svg">
<path d="M22 8C19.7909 8 18 6.20914 18 4" stroke="#141B34" stroke-width="1.5" stroke-linecap="square"/>
<path d="M2 8C4.20914 8 6 6.20914 6 4" stroke="#141B34" stroke-width="1.5" stroke-linecap="square"/>
<path d="M2 14C4.20914 14 6 15.7909 6 18" stroke="#141B34" stroke-width="1.5" stroke-linecap="square"/>
<path d="M22 11V4H2V18H11" stroke="#141B34" stroke-width="1.5" stroke-linecap="square"/>
<path d="M15 11C15 12.6569 13.6569 14 12 14C10.3431 14 9 12.6569 9 11C9 9.34315 10.3431 8 12 8C13.6569 8 15 9.34315 15 11Z" stroke="#141B34" stroke-width="1.5" stroke-linecap="square"/>
<path d="M14 18L16 20L22 14" stroke="#141B34" stroke-width="1.5" stroke-linecap="square"/>
</svg>
