<svg width="24" height="24" viewBox="0 0 24 24" fill="none" xmlns="http://www.w3.org/2000/svg">
<path d="M20.9451 13C20.9814 12.6717 21 12.338 21 12C21 7.02944 16.9706 3 12 3C9.10067 3 6.52155 4.37097 4.87555 6.5M3.05493 11C3.01863 11.3283 3 11.662 3 12C3 16.9706 7.02944 21 12 21C14.8993 21 17.4784 19.629 19.1245 17.5" stroke="#141B34" stroke-width="1.5" stroke-linecap="square"/>
<path d="M8 7H4V3" stroke="#141B34" stroke-width="1.5" stroke-linecap="square"/>
<path d="M16 17L20 17L20 21" stroke="#141B34" stroke-width="1.5" stroke-linecap="square"/>
<path d="M12 11.5V12.5M13 12C13 12.5523 12.5523 13 12 13C11.4477 13 11 12.5523 11 12C11 11.4477 11.4477 11 12 11C12.5523 11 13 11.4477 13 12Z" stroke="#141B34" stroke-width="1.5" stroke-linecap="square" stroke-linejoin="round"/>
</svg>
