<svg width="24" height="24" viewBox="0 0 24 24" fill="none" xmlns="http://www.w3.org/2000/svg">
<path d="M19.7151 6.78223C19.0433 7.45378 17.954 7.45378 17.2822 6.78223C16.6103 6.11068 16.6103 5.02188 17.2822 4.35034C17.954 3.67879 19.0433 3.67879 19.7151 4.35034C20.387 5.02188 20.387 6.11068 19.7151 6.78223Z" stroke="#141B34" stroke-width="1.5" stroke-linejoin="round"/>
<path d="M10.7942 15.6982C10.1223 16.3699 9.03299 16.3699 8.36113 15.6982C7.68928 15.0267 7.68928 13.9379 8.36113 13.2664C9.03299 12.5948 10.1223 12.5948 10.7942 13.2664C11.466 13.9379 11.466 15.0267 10.7942 15.6982Z" stroke="#141B34" stroke-width="1.5" stroke-linejoin="round"/>
<path d="M17.2822 15.6982C16.6103 15.0267 16.6103 13.9379 17.2822 13.2664C17.954 12.5948 19.0433 12.5948 19.7151 13.2664C20.387 13.9379 20.387 15.0267 19.7151 15.6982C19.0433 16.3699 17.954 16.3699 17.2822 15.6982Z" stroke="#141B34" stroke-width="1.5" stroke-linejoin="round"/>
<path d="M8.36113 6.78223C7.68928 6.11068 7.68928 5.02188 8.36113 4.35034C9.03299 3.67879 10.1223 3.67879 10.7942 4.35034C11.466 5.02188 11.466 6.11068 10.7942 6.78223C10.1223 7.45378 9.03299 7.45378 8.36113 6.78223Z" stroke="#141B34" stroke-width="1.5" stroke-linejoin="round"/>
<path d="M20.3463 11.7429C19.3962 11.7429 18.626 10.9731 18.626 10.0233C18.626 9.07361 19.3962 8.30371 20.3463 8.30371C21.2966 8.30371 22.0668 9.07361 22.0668 10.0233C22.0668 10.9731 21.2966 11.7429 20.3463 11.7429Z" stroke="#141B34" stroke-width="1.5" stroke-linejoin="round"/>
<path d="M7.73035 11.7439C6.7802 11.7439 6.00995 10.974 6.00995 10.0243C6.00995 9.07458 6.7802 8.30469 7.73035 8.30469C8.6805 8.30469 9.45074 9.07458 9.45074 10.0243C9.45074 10.974 8.6805 11.7439 7.73035 11.7439Z" stroke="#141B34" stroke-width="1.5" stroke-linejoin="round"/>
<path d="M12.3173 16.329C12.3173 15.3792 13.0875 14.6094 14.0376 14.6094C14.9878 14.6094 15.758 15.3792 15.758 16.329C15.758 17.2786 14.9878 18.0485 14.0376 18.0485C13.0875 18.0485 12.3173 17.2786 12.3173 16.329Z" stroke="#141B34" stroke-width="1.5" stroke-linejoin="round"/>
<path d="M12.3173 3.71961C12.3173 2.7699 13.0875 2 14.0376 2C14.9878 2 15.758 2.7699 15.758 3.71961C15.758 4.66933 14.9878 5.43921 14.0376 5.43921C13.0875 5.43921 12.3173 4.66932 12.3173 3.71961Z" stroke="#141B34" stroke-width="1.5" stroke-linejoin="round"/>
<path d="M7.66926 14.9149L2.12329 17.9636C2.06493 17.9956 2.05346 18.0746 2.10028 18.1219L4.0045 20.0474M9.10051 16.4867L6.06707 21.9503C6.03459 22.0088 5.95501 22.0197 5.90795 21.9722L4.0045 20.0474M4.0045 20.0474L5.51185 18.5571" stroke="#141B34" stroke-width="1.5"/>
</svg>
