<svg width="24" height="24" viewBox="0 0 24 24" fill="none" xmlns="http://www.w3.org/2000/svg">
<path d="M2.49902 4.98418H9.1303M9.1303 4.98418L11.5701 2.00005L18.1116 2C18.1557 2 18.1945 2.02882 18.2073 2.07098L19.0909 4.98418M9.1303 4.98418H19.0909M19.0829 4.95692L19.0909 4.98418M19.0909 4.98418H21.5015" stroke="#141B34" stroke-width="1.5"/>
<path d="M19.199 4.99045L18.7517 11.5048M4.79297 4.99045L5.80957 21.8241C5.81273 21.8768 5.85614 21.918 5.90864 21.918H10.0714" stroke="#141B34" stroke-width="1.5"/>
<path d="M18.6815 16.0223C18.0138 14.837 16.7505 13.9764 15.3291 13.9764C13.4869 13.9764 12.0103 15.5517 11.54 17.3366L10.0439 14.4726M12.0103 19.9906C12.7068 21.1465 13.9243 22.0419 15.3553 21.9983C17.6114 21.9296 18.4705 20.5162 19.1898 18.5773L20.5646 21.4642" stroke="#141B34" stroke-width="1.5" stroke-linejoin="bevel"/>
</svg>
