<svg xmlns="http://www.w3.org/2000/svg" viewBox="0 0 448 512"><!--! Font Awesome Pro 7.1.0 by @fontawesome - https://fontawesome.com License - https://fontawesome.com/license (Commercial License) Copyright 2025 Fonticons, Inc. --><path fill="currentColor" d="M64 320l0 96c0 17.7 14.3 32 32 32l256 0c17.7 0 32-14.3 32-32l0-96 64 0 0 96c0 53-43 96-96 96L96 512c-53 0-96-43-96-96l0-96 64 0zm192-77.3l96-96 45.3 45.3-150.6 150.6-2.4 2.2c-12.6 10.2-31.1 9.5-42.8-2.2L50.8 192 96 146.7 192 242.7 192 0 256 0 256 242.7z"/></svg>