<svg xmlns="http://www.w3.org/2000/svg" viewBox="0 0 512 512"><!--! Font Awesome Pro 7.1.0 by @fontawesome - https://fontawesome.com License - https://fontawesome.com/license (Commercial License) Copyright 2025 Fonticons, Inc. --><path fill="currentColor" d="M112 0l288 0 9.6 12.8 89.6 119.5c8.3 11.1 12.8 24.6 12.8 38.4L512 448c0 35.3-28.7 64-64 64L64 512c-35.3 0-64-28.7-64-64L0 170.7c0-13.8 4.5-27.3 12.8-38.4L102.4 12.8 112 0zm32 64l-51 68 135 0 0-68-84 0zm140 0l0 68 135 0-51-68-84 0zM64 448l384 0 0-260-384 0 0 260z"/></svg>