<svg xmlns="http://www.w3.org/2000/svg" viewBox="0 0 512 512"><!--! Font Awesome Pro 7.1.0 by @fontawesome - https://fontawesome.com License - https://fontawesome.com/license (Commercial License) Copyright 2025 Fonticons, Inc. --><path fill="currentColor" d="M314.8 32c55.1 0 104 35.3 121.4 87.5l35.8 107.6C496.7 250.5 512 283.4 512 320l0 192-64 0 0-64-384 0 0 64-64 0 0-192c0-36.5 15.3-69.5 39.8-92.8l35.9-107.7 3.7-9.6C99.3 63 145.5 32 197.2 32l117.6 0zM128 256c-12.3 0-23.7 3.5-33.5 9.5l-.2 .6-.5-.2C75.9 277.3 64 297.2 64 320l0 64 384 0 0-64c0-22.8-11.9-42.7-29.8-54.1l-.5 .2-.2-.6c-9.7-6-21.2-9.5-33.4-9.5l-256 0zm0 96a32 32 0 1 1 0-64 32 32 0 1 1 0 64zm256 0a32 32 0 1 1 0-64 32 32 0 1 1 0 64zM197.2 96c-27.5 0-52 17.6-60.7 43.8l-17.6 52.6c3-.2 6-.3 9.1-.3l256 0 6.6 .2c.8 0 1.6 .1 2.4 .2l-17.5-52.6C366.8 113.6 342.4 96 314.8 96L197.2 96z"/></svg>