<svg xmlns="http://www.w3.org/2000/svg" viewBox="0 0 640 512"><!--! Font Awesome Pro 7.1.0 by @fontawesome - https://fontawesome.com License - https://fontawesome.com/license (Commercial License) Copyright 2025 Fonticons, Inc. --><path fill="currentColor" d="M0 0L122.2 0c3 15.1 7.3 36.4 12.8 64l368 0c41.6 0 72.2 39.1 62.1 79.5L523.2 311.3C512.5 354 474.1 384 430 384l-217.6 0c-45.8 0-85.2-32.3-94.1-77.2L69.8 64 0 64 0 0zM147.8 128l33.3 166.3c3 15 16.1 25.7 31.4 25.7L430 320c14.7 0 27.5-10 31-24.2L503 128 147.8 128zM160 464a48 48 0 1 1 96 0 48 48 0 1 1 -96 0zm272-48a48 48 0 1 1 0 96 48 48 0 1 1 0-96z"/></svg>