<svg xmlns="http://www.w3.org/2000/svg" viewBox="0 0 512 512"><!--! Font Awesome Pro 7.1.0 by @fontawesome - https://fontawesome.com License - https://fontawesome.com/license (Commercial License) Copyright 2025 Fonticons, Inc. --><path fill="currentColor" d="M256 512a256 256 0 1 1 0-512 256 256 0 1 1 0 512zm0-104c-30.9 0-60.2 7-86.3 19.5 25.9 13.1 55.2 20.5 86.3 20.5 31 0 60.3-7.4 86.2-20.5-26.1-12.5-55.4-19.5-86.2-19.5zm0-344c-106 0-192 86-192 192 0 52.8 21.3 100.5 55.8 135.2 39.5-24.9 86.2-39.2 136.2-39.2s96.8 14.4 136.2 39.2C426.7 356.5 448 308.8 448 256 448 150 362 64 256 64zm0 256a96 96 0 1 1 0-192 96 96 0 1 1 0 192zm0-136a40 40 0 1 0 0 80 40 40 0 1 0 0-80z"/></svg>