<svg xmlns="http://www.w3.org/2000/svg" viewBox="0 0 448 512"><!--! Font Awesome Pro 7.1.0 by @fontawesome - https://fontawesome.com License - https://fontawesome.com/license (Commercial License) Copyright 2025 Fonticons, Inc. --><path fill="currentColor" d="M264 64c0-22.1-17.9-40-40-40s-40 17.9-40 40l0 40 80 0 0-40zM133.5 32C146.6-5.3 182.2-32 224-32s77.4 26.7 90.5 64L384 32c35.3 0 64 28.7 64 64l0 352c0 35.3-28.7 64-64 64L64 512c-35.3 0-64-28.7-64-64L0 96C0 60.7 28.7 32 64 32l69.5 0zM320 96l0 64-192 0 0-64-64 0 0 352 320 0 0-352-64 0z"/></svg>