<svg xmlns="http://www.w3.org/2000/svg" viewBox="0 0 576 512"><!--! Font Awesome Pro 7.1.0 by @fontawesome - https://fontawesome.com License - https://fontawesome.com/license (Commercial License) Copyright 2025 Fonticons, Inc. --><path fill="currentColor" d="M288.2 32c135.2 0 241.5 105.6 290.7 224-49.1 118.4-155.4 224-290.7 224S46.6 374.4-2.5 256C46.6 137.6 152.9 32 288.2 32zm0 64c-99.7 0-177.7 76-220.5 160 42.8 84 120.9 160 220.5 160s177.7-76 220.5-160C465.9 172 387.8 96 288.2 96zm-.3 252a92 92 0 1 1 .3-184 92 92 0 1 1 -.3 184zm.3-128a36 36 0 1 0 -.3 72 36 36 0 1 0 .3-72z"/></svg>