<svg xmlns="http://www.w3.org/2000/svg" viewBox="0 0 640 512"><!--! Font Awesome Pro 7.1.0 by @fontawesome - https://fontawesome.com License - https://fontawesome.com/license (Commercial License) Copyright 2025 Fonticons, Inc. --><path fill="currentColor" d="M224.3 256c0-106 86-192 192-192l48 0c26.5 0 48 21.5 48 48l0 48c0 106-86 192-192 192L295 352c-19.6 0-36.2 14.1-39.5 33.4l-7.4 44.7c-1.9 11.7-5.8 22.9-11.3 33.3l-124-124c10.3-5.5 21.6-9.3 33.3-11.3l44.7-7.4c19.3-3.2 33.4-19.9 33.4-39.5l0-25.2zM416.3 0c-141.4 0-256 114.6-256 256l0 4.9-24.6 4.1c-35.6 5.9-68.5 22.8-94 48.4l-22.6 22.6 22.6 22.6 176 176 22.6 22.6 22.6-22.6c25.5-25.5 42.4-58.4 48.4-94l4.1-24.6 4.9 0c141.4 0 256-114.6 256-256l0-48c0-61.9-50.1-112-112-112l-48 0zm0 200a40 40 0 1 0 0-80 40 40 0 1 0 0 80z"/></svg>