<svg xmlns="http://www.w3.org/2000/svg" viewBox="0 0 512 512"><!--! Font Awesome Pro 7.1.0 by @fontawesome - https://fontawesome.com License - https://fontawesome.com/license (Commercial License) Copyright 2025 Fonticons, Inc. --><path fill="currentColor" d="M64 0c26.5 0 48 21.5 48 48 0 5.6-1 11-2.8 16l312.2 0c32.3 0 58.6 26.2 58.6 58.6 0 5.9-.9 11.8-2.7 17.5l-2 5.6-40.5 94.4 40.5 94.4 2 5.6c1.8 5.7 2.7 11.6 2.7 17.5 0 32.3-26.2 58.6-58.6 58.6l-325.4 0 0 96-64 0 0-428.3C22.2 74.9 16 62.2 16 48 16 21.5 37.5 0 64 0zM96 352l317.2 0-37.2-86.8c-6.9-16.1-6.9-34.3 0-50.4L413.2 128 96 128 96 352z"/></svg>