<svg xmlns="http://www.w3.org/2000/svg" viewBox="0 0 576 512"><!--! Font Awesome Pro 7.1.0 by @fontawesome - https://fontawesome.com License - https://fontawesome.com/license (Commercial License) Copyright 2025 Fonticons, Inc. --><path fill="currentColor" d="M336 416l48 64 64 0c70.7 0 128-57.3 128-128l0-128c0-106-86-192-192-192L192 32C86 32 0 118 0 224L0 352c0 70.7 57.3 128 128 128l64 0 48-64 96 0zm-176 0l-32 0c-35.3 0-64-28.7-64-64l0-128c0-70.7 57.3-128 128-128l192 0c70.7 0 128 57.3 128 128l0 128c0 35.3-28.7 64-64 64l-32 0c-20.8-27.7-36.8-49.1-48-64l-160 0c-11.2 14.9-27.2 36.3-48 64zM408 176a40 40 0 1 0 -80 0 40 40 0 1 0 80 0zm24 136a40 40 0 1 0 0-80 40 40 0 1 0 0 80zM164 196l-52 0 0 56 52 0 0 52 56 0 0-52 52 0 0-56-52 0 0-52-56 0 0 52z"/></svg>