<svg xmlns="http://www.w3.org/2000/svg" viewBox="0 0 384 512"><!--! Font Awesome Pro 7.1.0 by @fontawesome - https://fontawesome.com License - https://fontawesome.com/license (Commercial License) Copyright 2025 Fonticons, Inc. --><path fill="currentColor" d="M64 192c0-70.7 57.3-128 128-128s128 57.3 128 128c0 52.4-31.5 97.6-76.8 117.4l-19.2 8.4 0 34.3-64 0 0-34.3-19.2-8.4C95.5 289.6 64 244.4 64 192zM192 0C86 0 0 86 0 192 0 263.2 38.8 325.4 96.3 358.5 99.6 390.8 126.8 416 160 416l64 0c33.2 0 60.4-25.2 63.7-57.5 57.5-33.1 96.3-95.2 96.3-166.5 0-106-86-192-192-192zM128 448l0 64 128 0 0-64-128 0z"/></svg>