<svg xmlns="http://www.w3.org/2000/svg" viewBox="0 0 448 512"><!--! Font Awesome Pro 7.1.0 by @fontawesome - https://fontawesome.com License - https://fontawesome.com/license (Commercial License) Copyright 2025 Fonticons, Inc. --><path fill="currentColor" d="M256 224l0-128c0-17.7-14.3-32-32-32s-32 14.3-32 32l0 128c0 17.7 14.3 32 32 32s32-14.3 32-32zM224 0c53 0 96 43 96 96l0 128c0 53-43 96-96 96s-96-43-96-96l0-128c0-53 43-96 96-96zM64 192l0 32c0 88.4 71.6 160 160 160s160-71.6 160-160l0-32 64 0 0 32c0 112.8-83.4 206.2-192 221.7l0 66.3-64 0 0-66.3C83.4 430.2 0 336.8 0 224l0-32 64 0z"/></svg>