<svg xmlns="http://www.w3.org/2000/svg" viewBox="0 0 576 512"><!--! Font Awesome Pro 7.1.0 by @fontawesome - https://fontawesome.com License - https://fontawesome.com/license (Commercial License) Copyright 2025 Fonticons, Inc. --><path fill="currentColor" d="M64 32l400 0c61.9 0 112 50.1 112 112S525.9 256 464 256l-16 0c0 70.7-57.3 128-128 128l-128 0c-70.7 0-128-57.3-128-128L64 32zM448 192l16 0c26.5 0 48-21.5 48-48s-21.5-48-48-48l-16 0 0 96zM128 96l0 160c0 35.3 28.7 64 64 64l128 0c35.3 0 64-28.7 64-64l0-160-256 0zM512 416c0 53-43 96-96 96L96 512c-53 0-96-43-96-96l64 0c0 17.7 14.3 32 32 32l320 0c17.7 0 32-14.3 32-32l64 0z"/></svg>