<svg xmlns="http://www.w3.org/2000/svg" viewBox="0 0 448 512"><!--! Font Awesome Pro 7.1.0 by @fontawesome - https://fontawesome.com License - https://fontawesome.com/license (Commercial License) Copyright 2025 Fonticons, Inc. --><path fill="currentColor" d="M384 0c35.3 0 64 28.7 64 64l0 384c0 33.1-25.2 60.4-57.5 63.7l-6.5 .3-320 0-6.5-.3C25.2 508.4 0 481.1 0 448L0 64C0 28.7 28.7 0 64 0L384 0zM101.5 448L346.5 448 224 305.1 101.5 448zM266.1 256L384 393.5 384 118.4 266.1 256zM64 393.5L181.9 256 64 118.5 64 393.5zM224 206.8L346.4 64 101.6 64 224 206.8z"/></svg>