<svg xmlns="http://www.w3.org/2000/svg" viewBox="0 0 512 512"><!--! Font Awesome Pro 7.1.0 by @fontawesome - https://fontawesome.com License - https://fontawesome.com/license (Commercial License) Copyright 2025 Fonticons, Inc. --><path fill="currentColor" d="M426.1 62.8L456.5 52.7 436.2-8 405.9 2.1 43.8 122.8C17.6 131.5 0 156 0 183.5L0 448.5c0 35.3 28.7 64 64 64l384 0c35.3 0 64-28.7 64-64l0-256c0-35.3-28.7-64-64-64l-218.8 0 196.9-65.6zM64 192.5l384 0 0 256-384 0 0-256zm344 80a40 40 0 1 0 -80 0 40 40 0 1 0 80 0zm-40 136a40 40 0 1 0 0-80 40 40 0 1 0 0 80zm-176-128a40 40 0 1 1 0 80 40 40 0 1 1 0-80zm0 136a96 96 0 1 0 0-192 96 96 0 1 0 0 192z"/></svg>