<svg xmlns="http://www.w3.org/2000/svg" viewBox="0 0 640 512"><!--! Font Awesome Pro 7.1.0 by @fontawesome - https://fontawesome.com License - https://fontawesome.com/license (Commercial License) Copyright 2025 Fonticons, Inc. --><path fill="currentColor" d="M544 32c35.3 0 64 28.7 64 64l0 320c0 35.3-28.7 64-64 64l-384 0c-33.1 0-60.4-25.2-63.7-57.5l-.3-6.5 0-128 64 0 0 128 384 0 0-320-160 0 0-64 160 0zM135.6 64c-9.1 9.1-30.4 30.5-64 64 33.5 33.5 54.8 54.9 64 64l-39.6 39.6-19.8-19.8-64-64c-10.9-10.9-10.9-28.7 0-39.6l64-64 19.8-19.8 39.6 39.6zM243.8 44.2l64 64c10.9 10.9 10.9 28.7 0 39.6l-64 64-19.8 19.8-39.6-39.6c9.1-9.1 30.4-30.5 64-64-33.5-33.5-54.8-54.9-64-64L224 24.4 243.8 44.2z"/></svg>