<svg xmlns="http://www.w3.org/2000/svg" viewBox="0 0 512 512"><!--! Font Awesome Pro 7.1.0 by @fontawesome - https://fontawesome.com License - https://fontawesome.com/license (Commercial License) Copyright 2025 Fonticons, Inc. --><path fill="currentColor" d="M160.4-32l192 0 0 64-192 0 0-64zm256 320a160 160 0 1 0 -320 0 160 160 0 1 0 320 0zm64 0c0 123.7-100.3 224-224 224s-224-100.3-224-224 100.3-224 224-224c64.6 0 122.8 27.3 163.7 71.1 17.7-11.8 35.4-23.6 53.2-35.5l35.5 53.3c-17.9 12-35.3 23.5-52.1 34.7 15.2 30.2 23.7 64.3 23.7 100.4zm-196-96l0 96c0 15.5-12.5 28-28 28s-28-12.5-28-28l0-124 56 0 0 28z"/></svg>