<svg xmlns="http://www.w3.org/2000/svg" viewBox="0 0 384 512"><!--! Font Awesome Pro 7.1.0 by @fontawesome - https://fontawesome.com License - https://fontawesome.com/license (Commercial License) Copyright 2025 Fonticons, Inc. --><path fill="currentColor" d="M352 64l-32 0 0 86.3 42.5 63.7c14 21 21.5 45.7 21.5 71l0 98.9-160 0 0 128-64 0 0-128-160 0 0-98.9c0-25.3 7.5-50 21.5-71l42.5-63.7 0-86.3-32 0 0-64 320 0 0 64zM128 169.7L74.8 249.6c-7 10.5-10.7 22.9-10.8 35.5l0 34.9 96 0 0-96 64 0 0 96 96 0 0-34.9c0-12.6-3.7-25-10.7-35.5l-53.3-79.9 0-105.7-128 0 0 105.7z"/></svg>