<svg xmlns="http://www.w3.org/2000/svg" viewBox="0 0 448 512"><!--! Font Awesome Pro 7.0.1 by @fontawesome - https://fontawesome.com License - https://fontawesome.com/license (Commercial License) Copyright 2025 Fonticons, Inc. --><path style="fill:var(--fa-secondary-color,currentColor);opacity:var(--fa-secondary-opacity,.4)" d="M48 80l0 352 352 0 0-352-352 0zM368 256a144 144 0 1 1 -288 0 144 144 0 1 1 288 0z"/><path style="fill:var(--fa-primary-color,currentColor);opacity:var(--fa-primary-opacity,1)" d="M400 80l0 352-352 0 0-352 352 0zM48 32l-48 0 0 448 448 0 0-448-400 0zM256 256a32 32 0 1 0 -64 0 32 32 0 1 0 64 0zm-128 0a96 96 0 1 1 192 0 96 96 0 1 1 -192 0zm240 0a144 144 0 1 0 -288 0 144 144 0 1 0 288 0z"/></svg>