<svg xmlns="http://www.w3.org/2000/svg" viewBox="0 0 576 512"><!--! Font Awesome Pro 7.1.0 by @fontawesome - https://fontawesome.com License - https://fontawesome.com/license (Commercial License) Copyright 2025 Fonticons, Inc. --><path opacity=".4" fill="currentColor" d=""/><path fill="currentColor" d="M56.4-9.9l-33.9 33.9 17 17 103 103-62.1 0 0 48 144 0 0-144-48 0 0 62.1-103-103-17-17zM344.4 256a56.4 56.4 0 1 0 -112.9 0 56.4 56.4 0 1 0 112.9 0zm193-215l17-17-33.9-33.9-17 17-103 103 0-62.1-48 0 0 144 144 0 0-48-62.1 0 103-103zm-17 481l33.9-33.9-17-17-103-103 62.1 0 0-48-144 0 0 144 48 0 0-62.1 103 103 17 17zM39.5 471l-17 17 33.9 33.9 17-17 103-103 0 62.1 48 0 0-144-144 0 0 48 62.1 0-103 103z"/></svg>