<svg xmlns="http://www.w3.org/2000/svg" viewBox="0 0 512 512"><!--! Font Awesome Pro 7.0.1 by @fontawesome - https://fontawesome.com License - https://fontawesome.com/license (Commercial License) Copyright 2025 Fonticons, Inc. --><path style="fill:var(--fa-secondary-color,currentColor);opacity:var(--fa-secondary-opacity,.4)" d="M48 144l0 86 86-86-86 0zm0 153.9l0 70.1 22.1 0 153.9-153.9 0-70.1-22.1 0-153.9 153.9zM137.9 368l86.1 0 0-86.1-86.1 86.1z"/><path style="fill:var(--fa-primary-color,currentColor);opacity:var(--fa-primary-opacity,1)" d="M464 144l0 224-192 0 0-224 192 0zm-262.1 0l22.1 0 0 70.1-153.9 153.9-22.1 0 0-70.1 153.9-153.9zM134 144l-86 86 0-86 86 0zm3.9 224l86.1-86.1 0 86.1-86.1 0zM48 96l-48 0 0 320 512 0 0-320-464 0z"/></svg>