<svg xmlns="http://www.w3.org/2000/svg" viewBox="0 0 448 512"><!--! Font Awesome Pro 7.1.0 by @fontawesome - https://fontawesome.com License - https://fontawesome.com/license (Commercial License) Copyright 2025 Fonticons, Inc. --><path opacity=".4" fill="currentColor" d="M48 80l0 48 48 0 0-48-48 0zm0 96l0 56 152 0 0-56-152 0zm0 104l0 56 48 0 0-56-48 0zm0 104l0 48 152 0 0-48-152 0zM144 80l0 48 160 0 0-48-160 0zm0 200l0 56 160 0 0-56-160 0zM248 176l0 56 152 0 0-56-152 0zm0 208l0 48 152 0 0-48-152 0zM352 80l0 48 48 0 0-48-48 0zm0 200l0 56 48 0 0-56-48 0z"/><path fill="currentColor" d="M144 80l0 48 160 0 0-48-160 0zM96 128l0-48-48 0 0 48 48 0zM48 176l0 56 152 0 0-56-152 0zm0 160l48 0 0-56-48 0 0 56zm0 48l0 48 152 0 0-48-152 0zm96-48l160 0 0-56-160 0 0 56zm208 0l48 0 0-56-48 0 0 56zm48 48l-152 0 0 48 152 0 0-48zm0-208l-152 0 0 56 152 0 0-56zm0-48l0-48-48 0 0 48 48 0zM0 32l448 0 0 448-448 0 0-448z"/></svg>