<svg xmlns="http://www.w3.org/2000/svg" viewBox="0 0 448 512"><!--! Font Awesome Pro 7.1.0 by @fontawesome - https://fontawesome.com License - https://fontawesome.com/license (Commercial License) Copyright 2025 Fonticons, Inc. --><path opacity=".4" fill="currentColor" d="M32 96l32 0 0-32 64 0 0 32 64 0 0-32 64 0 0 32 64 0 0-32 64 0 0 32 32 0 0 64-32 0 0 64 32 0 0 64-32 0 0 64 32 0 0 80-384 0 0-80 32 0 0-64-32 0 0-64 32 0 0-64-32 0 0-64z"/><path fill="currentColor" d="M448 480l-448 0 0-48 448 0 0 48zm0-128l-64 0 0-64 64 0 0 64zM0 352l0-64 64 0 0 64-64 0zM448 224l-64 0 0-64 64 0 0 64zM0 224l0-64 64 0 0 64-64 0zM448 96l-64 0 0-64 64 0 0 64zM0 96l0-64 64 0 0 64-64 0zm320 0l-64 0 0-64 64 0 0 64zM128 96l0-64 64 0 0 64-64 0z"/></svg>