<svg xmlns="http://www.w3.org/2000/svg" viewBox="0 0 576 512"><!--! Font Awesome Pro 7.0.1 by @fontawesome - https://fontawesome.com License - https://fontawesome.com/license (Commercial License) Copyright 2025 Fonticons, Inc. --><path style="fill:var(--fa-secondary-color,currentColor);opacity:var(--fa-secondary-opacity,.4)" d="M144 192l0 144 384 0 0-144-384 0z"/><path style="fill:var(--fa-primary-color,currentColor);opacity:var(--fa-primary-opacity,1)" d="M176 32l400 0 0 352-480 0 0-352 80 0zM528 192l-384 0 0 144 384 0 0-144zM48 128l0 304 432 0 0 48-480 0 0-352 48 0zM256 88l0 48 256 0 0-48-256 0zm-32-8l-64 0 0 64 64 0 0-64z"/></svg>