<svg xmlns="http://www.w3.org/2000/svg" viewBox="0 0 640 512"><!--! Font Awesome Pro 7.1.0 by @fontawesome - https://fontawesome.com License - https://fontawesome.com/license (Commercial License) Copyright 2025 Fonticons, Inc. --><path opacity=".4" fill="currentColor" d="M176.4 336l288 0 0 36.2c-8-3.2-16-6.4-24-9.6l-26.7 10.7-93.3 37.3-93.2-37.3-26.8-10.7c-8 3.2-16 6.4-24 9.6l0-36.2z"/><path fill="currentColor" d="M449.3 417.7l111.8 44.7c29.3-9.8 50.1-16.7 62.4-20.8l15.2 45.5-79.1 26.4-8.2-3.3-111.1-44.4-111.1 44.4-8.9 3.6-120-48-111.1 44.4-8.2 3.3-8.3-2.8-70.8-23.6 15.2-45.5c12.3 4.1 33.2 11 62.4 20.8l111.8-44.7 8.9-3.6 8.9 3.6 111.1 44.4 120-48 8.9 3.6zM448.4 48l-32.8 0 50.5 240 46.2 0 0 103.4-45.3-18.1-2.7-1.1 0-36.2-288 0 0 36.2-2.8 1.1-45.2 18.1 0-103.4 46.2 0 50.5-240-32.7 0 0-48 256 0 0 48zM253.7 288l133.4 0-66.7-77.8-66.7 77.8zm-19.2-51.3l54.3-63.4-32.9-38.4-21.4 101.8zM352 173.3l54.3 63.4-21.4-101.8-32.9 38.4zM268.3 75.7l52.1 60.8 52.1-60.8-5.8-27.7-92.4 0-5.8 27.7z"/></svg>