<svg xmlns="http://www.w3.org/2000/svg" viewBox="0 0 512 512"><!--! Font Awesome Pro 7.0.1 by @fontawesome - https://fontawesome.com License - https://fontawesome.com/license (Commercial License) Copyright 2025 Fonticons, Inc. --><path style="fill:var(--fa-secondary-color,currentColor);opacity:var(--fa-secondary-opacity,.4)" d="M84.7 176L256 58.2 427.3 176 84.7 176z"/><path style="fill:var(--fa-primary-color,currentColor);opacity:var(--fa-primary-opacity,1)" d="M84.7 176L427.3 176 256 58.2 84.7 176zM256 0l176 121 0-89 48 0 0 122 32 22 0 48-512 0 0-48 256-176zM464 512l-416 0 0-48 416 0 0 48zM48 368l160 0 0 48-160 0 0-48zm160-96l0 48-160 0 0-48 160 0zm96 0l160 0 0 48-160 0 0-48zm160 96l0 48-160 0 0-48 160 0z"/></svg>