<svg xmlns="http://www.w3.org/2000/svg" viewBox="0 0 640 512"><!--! Font Awesome Pro 7.1.0 by @fontawesome - https://fontawesome.com License - https://fontawesome.com/license (Commercial License) Copyright 2025 Fonticons, Inc. --><path opacity=".4" fill="currentColor" d="M124.6 31.3l124.3 0-13.8 13.8c8.5 8.5 25.5 25.5 50.9 50.9l-50.9 50.9 33.9 33.9 50.9-50.9c25.5 25.5 42.4 42.4 50.9 50.9l33.9-33.9c-8.5-8.5-25.5-25.5-50.9-50.9 25.5-25.5 42.4-42.4 50.9-50.9l-13.8-13.8 177.7 0-.2 .7-38.8 0-37.8 208-329.4 0-38-208.7zm164.6 0l61.6 0-30.8 30.8-30.8-30.8z"/><path fill="currentColor" d="M24-16l-24 0 0 48 76 0 60.4 332.3 3.6 19.7 356 0 0-48-316 0-8.7-48 360.7 0 3.6-19.7 43-236.3-48.8 0-37.8 208-329.4 0-43-236.3-3.6-19.7-92 0zM256 464a48 48 0 1 0 -96 0 48 48 0 1 0 96 0zm224 0a48 48 0 1 0 -96 0 48 48 0 1 0 96 0zM404.9 45.1L370.9 11.1c-8.5 8.5-25.5 25.5-50.9 50.9-25.5-25.5-42.4-42.4-50.9-50.9L235.1 45.1c8.5 8.5 25.5 25.5 50.9 50.9l-50.9 50.9 33.9 33.9 50.9-50.9c25.5 25.5 42.4 42.4 50.9 50.9l33.9-33.9c-8.5-8.5-25.5-25.5-50.9-50.9 25.5-25.5 42.4-42.4 50.9-50.9z"/></svg>