<svg xmlns="http://www.w3.org/2000/svg" viewBox="0 0 512 512"><!--! Font Awesome Pro 7.0.1 by @fontawesome - https://fontawesome.com License - https://fontawesome.com/license (Commercial License) Copyright 2025 Fonticons, Inc. --><path style="fill:var(--fa-secondary-color,currentColor);opacity:var(--fa-secondary-opacity,.4)" d="M48 160l416 0 0 240-416 0 0-240zM88 280a72 72 0 1 0 144 0 72 72 0 1 0 -144 0zm184-72l0 144 144 0 0-144-144 0z"/><path style="fill:var(--fa-primary-color,currentColor);opacity:var(--fa-primary-opacity,1)" d="M48 160l0 240 416 0 0-240-416 0zM0 64l512 0 0 384-512 0 0-384zM320 256l0 48 48 0 0-48-48 0zm-48-48l144 0 0 144-144 0 0-144zM160 304a24 24 0 1 0 0-48 24 24 0 1 0 0 48zm0-96a72 72 0 1 1 0 144 72 72 0 1 1 0-144z"/></svg>