<svg xmlns="http://www.w3.org/2000/svg" viewBox="0 0 576 512"><!--! Font Awesome Pro 7.1.0 by @fontawesome - https://fontawesome.com License - https://fontawesome.com/license (Commercial License) Copyright 2025 Fonticons, Inc. --><path opacity=".4" fill="currentColor" d="M144 80l0 256 288 0 0-256-288 0zm54.1 145l34.5-33.4c11.2 11.6 22.1 22.9 32.8 33.9l59.3-81.6 14.1-19.4 38.8 28.3-14.1 19.4c-60.6 83.4-91.6 126-92.9 127.8-10.6-10.9-29.2-30.2-55.8-57.7L198.1 225z"/><path fill="currentColor" d="M48 432l480 0 0-144 48 0 0 192-576 0 0-192 48 0 0 144zm432-48l-384 0 0-352 384 0 0 352zM144 336l288 0 0-256-288 0 0 256zM377.7 152.8l-14.1 19.4c-60.6 83.4-91.6 126-92.9 127.8-10.6-10.9-29.2-30.2-55.8-57.7l-16.7-17.2 34.5-33.4c11.2 11.6 22.1 22.9 32.8 33.9l59.3-81.6 14.1-19.4 38.8 28.3z"/></svg>