<svg xmlns="http://www.w3.org/2000/svg" viewBox="0 0 512 512"><!--! Font Awesome Pro 7.0.1 by @fontawesome - https://fontawesome.com License - https://fontawesome.com/license (Commercial License) Copyright 2025 Fonticons, Inc. --><path style="fill:var(--fa-secondary-color,currentColor);opacity:var(--fa-secondary-opacity,.4)" d="M48 256a208 208 0 1 0 416 0 208 208 0 1 0 -416 0zm112 32l32 0 0-160 160 0 0 48-112 0 0 40 80 0 0 48-80 0 0 24 48 0 0 32-48 0 0 64-48 0 0-64-32 0 0-32z"/><path style="fill:var(--fa-primary-color,currentColor);opacity:var(--fa-primary-opacity,1)" d="M256 48a208 208 0 1 1 0 416 208 208 0 1 1 0-416zm0 464a256 256 0 1 0 0-512 256 256 0 1 0 0 512zM192 128l0 160-32 0 0 32 32 0 0 64 48 0 0-64 48 0 0-32-48 0 0-24 80 0 0-48-80 0 0-40 112 0 0-48-160 0z"/></svg>