<svg xmlns="http://www.w3.org/2000/svg" viewBox="0 0 512 512"><!--! Font Awesome Pro 7.1.0 by @fontawesome - https://fontawesome.com License - https://fontawesome.com/license (Commercial License) Copyright 2025 Fonticons, Inc. --><path opacity=".4" fill="currentColor" d="M48 256a208 208 0 1 0 416 0 208 208 0 1 0 -416 0zm80 0c0-65.8 49.7-120 113.5-127.2l12.3-37 30.4 10.1c-3.5 10.6-6.6 19.8-9.2 27.5 9.7 1.4 19 4 27.8 7.4 7.5-22.4 12.5-37.4 15-45.1l30.4 10.1c-2.2 6.7-7.9 23.6-16.9 50.6 10.3 7.5 19.4 16.5 27 26.6L320 208c-1.6-2.1-3.3-4.2-5.1-6.1L270.6 334.7c20.1-3.7 37.5-14.9 49.4-30.7l38.4 28.8c-23.3 31-60.5 51.2-102.4 51.2-.6 0-1.2 0-1.8 0-5 15-9 27.1-12.1 36.3l-30.4-10.1c3.4-10.1 6.8-20.3 10.2-30.7-9.4-2.6-18.3-6.2-26.7-10.7-9.3 27.8-15 44.9-17.2 51.5l-30.4-10.1c1.7-5 8.5-25.4 20.4-61.1-24.7-23.3-40.1-56.4-40.1-93.1zm48 0c0 14.2 3.7 27.5 10.1 39l37.4-112.1c-28 12.5-47.5 40.5-47.5 73.1zM210.9 322c7.9 5.4 16.8 9.4 26.4 11.7l50.4-151.3c-8.7-3.7-18.2-6-28.1-6.4L210.9 322z"/><path fill="currentColor" d="M256 48a208 208 0 1 1 0 416 208 208 0 1 1 0-416zm0 464a256 256 0 1 0 0-512 256 256 0 1 0 0 512zm23.2-394.9l5.1-15.2-30.4-10.1-12.3 37c-63.9 7.2-113.5 61.4-113.5 127.2 0 36.7 15.4 69.7 40.1 93.1-11.9 35.7-18.7 56.1-20.4 61.1l30.4 10.1c2.2-6.6 7.9-23.8 17.2-51.5 8.4 4.5 17.3 8.1 26.7 10.7-3.5 10.4-6.9 20.6-10.2 30.7l30.4 10.1c3-9.1 7.1-21.2 12.1-36.3 .6 0 1.2 0 1.8 0 41.9 0 79.1-20.1 102.4-51.2L320 304c-11.8 15.8-29.3 27-49.4 30.7l44.3-132.8c1.8 2 3.5 4 5.1 6.1l38.4-28.8c-7.6-10.2-16.7-19.1-27-26.6 9-27 14.6-43.9 16.9-50.6L317.9 91.8c-2.6 7.7-7.6 22.7-15 45.1-8.8-3.5-18.1-6-27.8-7.4l4.1-12.4zm8.5 65.4L237.2 333.8c-9.6-2.3-18.5-6.3-26.4-11.7l48.7-146c10 .4 19.4 2.7 28.1 6.4zm-64.1 .4L186.1 295c-6.5-11.5-10.1-24.8-10.1-39 0-32.6 19.5-60.7 47.5-73.1z"/></svg>