<svg xmlns="http://www.w3.org/2000/svg" viewBox="0 0 512 512"><!--! Font Awesome Pro 7.0.1 by @fontawesome - https://fontawesome.com License - https://fontawesome.com/license (Commercial License) Copyright 2025 Fonticons, Inc. --><path style="fill:var(--fa-secondary-color,currentColor);opacity:var(--fa-secondary-opacity,.4)" d="M48 256a208 208 0 1 0 416 0 208 208 0 1 0 -416 0zm112-96l160 0 0 48-78.1 0 103 103 17 17-33.9 33.9-17-17-103-103 0 78.1-48 0 0-160z"/><path style="fill:var(--fa-primary-color,currentColor);opacity:var(--fa-primary-opacity,1)" d="M256 48a208 208 0 1 1 0 416 208 208 0 1 1 0-416zm0 464a256 256 0 1 0 0-512 256 256 0 1 0 0 512zm40-304l24 0 0-48-160 0 0 160 48 0 0-78.1 103 103 17 17 33.9-33.9-17-17-103-103 54.1 0z"/></svg>