<svg xmlns="http://www.w3.org/2000/svg" viewBox="0 0 512 512"><!--! Font Awesome Pro 7.0.1 by @fontawesome - https://fontawesome.com License - https://fontawesome.com/license (Commercial License) Copyright 2025 Fonticons, Inc. --><path style="fill:var(--fa-secondary-color,currentColor);opacity:var(--fa-secondary-opacity,.4)" d="M48 256a208 208 0 1 0 416 0 208 208 0 1 0 -416 0zm48-72c0-22.1 17.9-40 40-40s40 17.9 40 40l0 32-32 0 0 80 32 0 0 32c0 22.1-17.9 40-40 40s-40-17.9-40-40l0-144zm96-40l48 0 0 88 16 0 0-88 48 0 0 224-48 0 0-88-16 0 0 88-48 0 0-224zm128 0l96 0 0 48-48 0 0 40 40 0 0 48-40 0 0 88-48 0 0-224z"/><path style="fill:var(--fa-primary-color,currentColor);opacity:var(--fa-primary-opacity,1)" d="M256 48a208 208 0 1 1 0 416 208 208 0 1 1 0-416zm0 464a256 256 0 1 0 0-512 256 256 0 1 0 0 512zM136 144c-22.1 0-40 17.9-40 40l0 144c0 22.1 17.9 40 40 40s40-17.9 40-40l0-32-32 0 0-80 32 0 0-32c0-22.1-17.9-40-40-40zm104 24l0-24-48 0 0 224 48 0 0-88 16 0 0 88 48 0 0-224-48 0 0 88-16 0 0-64zm104-24l-24 0 0 224 48 0 0-88 40 0 0-48-40 0 0-40 48 0 0-48-72 0z"/></svg>