<svg xmlns="http://www.w3.org/2000/svg" viewBox="0 0 576 512"><!--! Font Awesome Pro 7.1.0 by @fontawesome - https://fontawesome.com License - https://fontawesome.com/license (Commercial License) Copyright 2025 Fonticons, Inc. --><path opacity=".4" fill="currentColor" d="M48 336l0 96 480 0 0-80c0-33.2-20.3-61.8-49.3-73.8l-14.7-6.2 0-72c0-39.8-32.2-72-72-72-11 0-21.4 2.5-30.8 7l-18.2 8.6-11.7-16.4C311 98.6 277.7 80 240 80 178.1 80 128 130.1 128 192l0 47.8-16 5.7C74.7 258.7 48 294.2 48 336zM256 176l64 0-12.8 128-38.4 0-12.8-128zm4 164l56 0 0 56-56 0 0-56z"/><path fill="currentColor" d="M240 32c47.1 0 89.4 20.4 118.7 52.8 10.6-3.1 21.8-4.8 33.3-4.8 66.3 0 120 53.7 120 120l0 41.2c38.2 22.1 64 63.4 64 110.8l0 128-576 0 0-144c0-56.6 32.6-105.3 80-128.9L80 192c0-88.4 71.6-160 160-160zm0 48c-61.9 0-112 50.1-112 112l0 47.8-16 5.7C74.7 258.7 48 294.2 48 336l0 96 480 0 0-80c0-33.2-20.3-61.8-49.3-73.8l-14.7-6.2 0-72c0-39.8-32.2-72-72-72-11 0-21.4 2.5-30.8 7l-18.2 8.6-11.7-16.4C311 98.6 277.7 80 240 80zm76 316l-56 0 0-56 56 0 0 56zm-8.8-92l-38.4 0-12.8-128 64 0-12.8 128z"/></svg>