<svg xmlns="http://www.w3.org/2000/svg" viewBox="0 0 448 512"><!--! Font Awesome Pro 7.0.1 by @fontawesome - https://fontawesome.com License - https://fontawesome.com/license (Commercial License) Copyright 2025 Fonticons, Inc. --><path style="fill:var(--fa-secondary-color,currentColor);opacity:var(--fa-secondary-opacity,.4)" d="M48 80l0 96 352 0 0-96-352 0zm0 256l0 96 352 0 0-96-352 0z"/><path style="fill:var(--fa-primary-color,currentColor);opacity:var(--fa-primary-opacity,1)" d="M400 80l-352 0 0 96 352 0 0-96zm48 96l0 48-448 0 0-192 448 0 0 144zM400 336l-352 0 0 96 352 0 0-96zm48 96l0 48-448 0 0-192 448 0 0 144z"/></svg>