<svg xmlns="http://www.w3.org/2000/svg" viewBox="0 0 384 512"><!--! Font Awesome Pro 7.1.0 by @fontawesome - https://fontawesome.com License - https://fontawesome.com/license (Commercial License) Copyright 2025 Fonticons, Inc. --><path opacity=".4" fill="currentColor" d="M48 288c0 84.6 69.3 160 144 160s144-75.4 144-160c0-48.3-14.1-107.7-41.3-153.5-27.1-45.7-61.8-70.5-102.7-70.5S116.4 88.8 89.3 134.5C62.1 180.3 48 239.7 48 288zm32 0c0-28.3 5.7-61.9 16.9-93.5 11.2-31.5 28.4-62.4 52.3-84.2L170.8 134c-18.8 17.1-33.6 42.7-43.7 71.2-10.1 28.4-15.1 58.3-15.1 82.8l0 16-32 0 0-16z"/><path fill="currentColor" d="M192 448C117.3 448 48 372.6 48 288 48 239.7 62.1 180.3 89.3 134.5 116.4 88.8 151.1 64 192 64s75.6 24.8 102.7 70.5c27.2 45.9 41.3 105.3 41.3 153.5 0 84.6-69.3 160-144 160zM0 288C0 394 86 496 192 496S384 394 384 288c0-112-64-272-192-272S0 176 0 288zm112 0c0-24.5 5-54.4 15.1-82.8 10.1-28.5 25-54.1 43.7-71.2l-21.6-23.6C125.3 132.2 108.1 163 96.9 194.5 85.7 226.1 80 259.7 80 288l0 16 32 0 0-16z"/></svg>