<svg xmlns="http://www.w3.org/2000/svg" viewBox="0 0 512 512"><!--! Font Awesome Pro 7.0.1 by @fontawesome - https://fontawesome.com License - https://fontawesome.com/license (Commercial License) Copyright 2025 Fonticons, Inc. --><path style="fill:var(--fa-secondary-color,currentColor);opacity:var(--fa-secondary-opacity,.4)" d="M0 224l0 64 48 0 0 112 112 0 0 48 192 0 0-48 112 0 0-112 48 0 0-64-48 0 0-112-112 0 0-48-192 0 0 48-112 0 0 112-48 0z"/><path style="fill:var(--fa-primary-color,currentColor);opacity:var(--fa-primary-opacity,1)" d="M136 64l24 0 0 48-112 0 0 112-48 0 0-160 136 0zM0 312l0-24 48 0 0 112 112 0 0 48-160 0 0-136zM488 64l24 0 0 160-48 0 0-112-112 0 0-48 136 0zM464 312l0-24 48 0 0 160-160 0 0-48 112 0 0-88z"/></svg>