<svg xmlns="http://www.w3.org/2000/svg" viewBox="0 0 512 512"><!--! Font Awesome Pro 7.1.0 by @fontawesome - https://fontawesome.com License - https://fontawesome.com/license (Commercial License) Copyright 2025 Fonticons, Inc. --><path opacity=".4" fill="currentColor" d="M48 256a208 208 0 1 0 416 0 208 208 0 1 0 -416 0zm64 96c0-17.1 6.7-32.7 17.7-44.1l0-3.8 4 0c11.3-10 26.1-16 42.4-16l160 0c16.2 0 31.1 6.1 42.4 16l4 0 0 3.8c10.9 11.5 17.7 27 17.7 44.1 0 35.3-28.7 64-64 64l-160 0c-35.3 0-64-28.7-64-64zm96-144a32 32 0 1 1 -64 0 32 32 0 1 1 64 0zm160 0a32 32 0 1 1 -64 0 32 32 0 1 1 64 0z"/><path fill="currentColor" d="M256 48a208 208 0 1 0 0 416 208 208 0 1 0 0-416zM512 256a256 256 0 1 1 -512 0 256 256 0 1 1 512 0zM144 208a32 32 0 1 1 64 0 32 32 0 1 1 -64 0zm192-32a32 32 0 1 1 0 64 32 32 0 1 1 0-64zM152 352c0 11.9 8.6 21.8 20 23.7l0-47.3c-11.4 1.9-20 11.8-20 23.7zm84 24l0-48-24 0 0 48 24 0zm64 0l0-48-24 0 0 48 24 0zm40-.3c11.4-1.9 20-11.8 20-23.7s-8.6-21.8-20-23.7l0 47.3zM176 288l160 0c35.3 0 64 28.7 64 64s-28.7 64-64 64l-160 0c-35.3 0-64-28.7-64-64s28.7-64 64-64z"/></svg>