<svg xmlns="http://www.w3.org/2000/svg" viewBox="0 0 512 512"><!--! Font Awesome Pro 7.1.0 by @fontawesome - https://fontawesome.com License - https://fontawesome.com/license (Commercial License) Copyright 2025 Fonticons, Inc. --><path opacity=".4" fill="currentColor" d="M48 256a208 208 0 1 0 416 0 208 208 0 1 0 -416 0zm160-48a32 32 0 1 1 -64 0 32 32 0 1 1 64 0zM320 352a64 64 0 1 1 -128 0 64 64 0 1 1 128 0zm48-144a32 32 0 1 1 -64 0 32 32 0 1 1 64 0z"/><path fill="currentColor" d="M464 256a208 208 0 1 0 -416 0 208 208 0 1 0 416 0zM0 256a256 256 0 1 1 512 0 256 256 0 1 1 -512 0zm176-80a32 32 0 1 1 0 64 32 32 0 1 1 0-64zm128 32a32 32 0 1 1 64 0 32 32 0 1 1 -64 0zm-48 80a64 64 0 1 1 0 128 64 64 0 1 1 0-128z"/></svg>