<svg xmlns="http://www.w3.org/2000/svg" viewBox="0 0 640 512"><!--! Font Awesome Pro 7.1.0 by @fontawesome - https://fontawesome.com License - https://fontawesome.com/license (Commercial License) Copyright 2025 Fonticons, Inc. --><path opacity=".4" fill="currentColor" d="M144.4 304l352 0 0 3.8-34.6 63.4c-7.1-2.8-14.2-5.7-21.4-8.5l-26.7 10.7-93.3 37.3-93.2-37.3-26.8-10.7c-7.1 2.9-14.3 5.7-21.4 8.5l-34.6-63.4 0-3.8z"/><path fill="currentColor" d="M449.3 417.7l111.8 44.7c29.3-9.8 50.1-16.7 62.4-20.8l15.2 45.5-79.1 26.4-8.2-3.3-111.1-44.4-111.1 44.4-8.9 3.6-120-48-111.1 44.4-8.2 3.3-8.3-2.8-70.8-23.6 15.2-45.5c12.3 4.1 33.2 11 62.4 20.8l111.8-44.7 8.9-3.6 8.9 3.6 111.1 44.4 120-48 8.9 3.6zM416.4 64l128 0 0 256-37.7 69.1-39.5-15.8-5.4-2.2 34.6-63.4 0-3.8-352 0 0 3.8 34.6 63.4-5.3 2.2-39.6 15.8-37.7-69.1 0-256 128 0 0-64 192 0 0 64zm-272 192l352 0 0-144-352 0 0 144z"/></svg>