<svg xmlns="http://www.w3.org/2000/svg" viewBox="0 0 448 512"><!--! Font Awesome Pro 7.1.0 by @fontawesome - https://fontawesome.com License - https://fontawesome.com/license (Commercial License) Copyright 2025 Fonticons, Inc. --><path opacity=".4" fill="currentColor" d="M144 48l0 352 256 0 0-208-144 0 0-144-112 0z"/><path fill="currentColor" d="M256 48l0 144 144 0 0 208-256 0 0-352 112 0zm48 3.9l92.1 92.1-92.1 0 0-92.1zM320 0l-224 0 0 448 352 0 0-320-128-128zM48 96l-48 0 0 448 352 0 0-48-304 0 0-400z"/></svg>