<svg xmlns="http://www.w3.org/2000/svg" viewBox="0 0 384 512"><!--! Font Awesome Pro 7.1.0 by @fontawesome - https://fontawesome.com License - https://fontawesome.com/license (Commercial License) Copyright 2025 Fonticons, Inc. --><path opacity=".4" fill="currentColor" d="M48 48l0 416 288 0 0-256-160 0 0-160-128 0zM160 240l64 0-12.8 120-38.4 0-12.8-120zm4 148l56 0 0 56-56 0 0-56z"/><path fill="currentColor" d="M384 160L384 512 0 512 0 0 224 0 384 160zM48 464l288 0 0-256-160 0 0-160-128 0 0 416zm172-20l-56 0 0-56 56 0 0 56zm-8.8-84l-38.4 0-12.8-120 64 0-12.8 120zM224 160l92.1 0-92.1-92.1 0 92.1z"/></svg>