<svg xmlns="http://www.w3.org/2000/svg" viewBox="0 0 384 512"><!--! Font Awesome Pro 7.0.1 by @fontawesome - https://fontawesome.com License - https://fontawesome.com/license (Commercial License) Copyright 2025 Fonticons, Inc. --><path style="fill:var(--fa-secondary-color,currentColor);opacity:var(--fa-secondary-opacity,.4)" d="M48 48l128 0 0 160 160 0 0 256-288 0 0-416zM80 320l0 96 48 0 0-96-48 0zm88-64l0 160 48 0 0-160-48 0zm88 32l0 128 48 0 0-128-48 0z"/><path style="fill:var(--fa-primary-color,currentColor);opacity:var(--fa-primary-opacity,1)" d="M48 48l128 0 0 160 160 0 0 256-288 0 0-416zM224 67.9l92.1 92.1-92.1 0 0-92.1zM224 0L0 0 0 512 384 512 384 160 224 0zm-8 280l0-24-48 0 0 160 48 0 0-136zm88 32l0-24-48 0 0 128 48 0 0-104zM128 344l0-24-48 0 0 96 48 0 0-72z"/></svg>