<svg xmlns="http://www.w3.org/2000/svg" viewBox="0 0 512 512"><!--! Font Awesome Pro 7.0.1 by @fontawesome - https://fontawesome.com License - https://fontawesome.com/license (Commercial License) Copyright 2025 Fonticons, Inc. --><path style="fill:var(--fa-secondary-color,currentColor);opacity:var(--fa-secondary-opacity,.4)" d="M48 80l0 320 416 0 0-272-192 0c-2.1-1.6-23.5-17.6-64-48L48 80zM158.1 256L256 158.1c3.5 3.5 30.5 30.5 81 81l17 17-33.9 33.9c-10.3-10.3-23.6-23.6-40-40l0 110.1-48 0 0-110.1c-16.4 16.4-29.7 29.7-40 40L158.1 256z"/><path style="fill:var(--fa-primary-color,currentColor);opacity:var(--fa-primary-opacity,1)" d="M224 32l64 48 224 0 0 368-512 0 0-416 224 0zm64 96l-16 0c-2.1-1.6-23.5-17.6-64-48l-160 0 0 320 416 0 0-272-176 0zm-15 47c50.5 50.5 77.5 77.5 81 81L320 289.9c-10.3-10.3-23.6-23.6-40-40l0 110.1-48 0 0-110.1c-16.4 16.4-29.7 29.7-40 40l-33.9-33.9 97.9-97.9 17 17z"/></svg>