<svg xmlns="http://www.w3.org/2000/svg" viewBox="0 0 512 512"><!--! Font Awesome Pro 7.0.1 by @fontawesome - https://fontawesome.com License - https://fontawesome.com/license (Commercial License) Copyright 2025 Fonticons, Inc. --><path style="fill:var(--fa-secondary-color,currentColor);opacity:var(--fa-secondary-opacity,.4)" d="M48 80l0 320 416 0 0-272-192 0c-2.1-1.6-23.5-17.6-64-48L48 80zM160 240c0-26.5 21.5-48 48-48l2.9 0c13.5 0 26.5 5.4 36 14.9l9.1 9.1 9.1-9.1c9.5-9.5 22.5-14.9 36-14.9l2.9 0c26.5 0 48 21.5 48 48 0 64-96 112-96 112s-96-48-96-112z"/><path style="fill:var(--fa-primary-color,currentColor);opacity:var(--fa-primary-opacity,1)" d="M224 32l64 48 224 0 0 368-512 0 0-416 224 0zm64 96l-16 0c-2.1-1.6-23.5-17.6-64-48l-160 0 0 320 416 0 0-272-176 0zm-41.1 78.9l9.1 9.1 9.1-9.1c9.5-9.5 22.5-14.9 36-14.9l2.9 0c26.5 0 48 21.5 48 48 0 64-96 112-96 112s-96-48-96-112c0-26.5 21.5-48 48-48l2.9 0c13.5 0 26.5 5.4 36 14.9z"/></svg>