<svg xmlns="http://www.w3.org/2000/svg" viewBox="0 0 512 512"><!--! Font Awesome Pro 7.1.0 by @fontawesome - https://fontawesome.com License - https://fontawesome.com/license (Commercial License) Copyright 2025 Fonticons, Inc. --><path opacity=".4" fill="currentColor" d="M112 112l0 288 288 0 0-288-288 0z"/><path fill="currentColor" d="M512 112l0-48-64 0 0-64-48 0 0 64-288 0 0-64-48 0 0 64-64 0 0 48 64 0 0 288-64 0 0 48 64 0 0 64 48 0 0-64 288 0 0 64 48 0 0-64 64 0 0-48-64 0 0-288 64 0zM112 400l0-288 288 0 0 288-288 0z"/></svg>