<svg xmlns="http://www.w3.org/2000/svg" viewBox="0 0 640 512"><!--! Font Awesome Pro 7.1.0 by @fontawesome - https://fontawesome.com License - https://fontawesome.com/license (Commercial License) Copyright 2025 Fonticons, Inc. --><path opacity=".4" fill="currentColor" d="M80 256c0-114.9 93.1-208 208-208 98.4 0 180.8 68.3 202.5 160.1-71.5 2-133.2 43.1-164.5 102.7-4.1-3.8-8.8-7-13.9-9.4l0-197.4-48 0 0 197.4c-18.9 9-32 28.3-32 50.6 0 30.9 25.1 56 56 56 5.6 0 11-.8 16.1-2.3 .6 19.8 4.1 38.8 10.3 56.7-8.6 1.1-17.4 1.7-26.3 1.7-114.9 0-208-93.1-208-208zm32 0a32 32 0 1 0 64 0 32 32 0 1 0 -64 0zm48-96a32 32 0 1 0 64 0 32 32 0 1 0 -64 0zm192 0a32 32 0 1 0 64 0 32 32 0 1 0 -64 0z"/><path fill="currentColor" d="M288 464c8.9 0 17.7-.6 26.3-1.7 5.5 16.1 13.1 31.2 22.4 45-15.8 3-32.1 4.6-48.8 4.6-141.4 0-256-114.6-256-256S146.6 0 288 0c126.8 0 232.1 92.2 252.4 213.2-14.3-3.4-29.1-5.2-44.4-5.2-1.9 0-3.7 0-5.5 .1-21.6-91.8-104.1-160.1-202.5-160.1-114.9 0-208 93.1-208 208s93.1 208 208 208zm0-56c-30.9 0-56-25.1-56-56 0-22.3 13.1-41.6 32-50.6l0-197.4 48 0 0 197.4c5.1 2.4 9.8 5.6 13.9 9.4-14 26.7-21.9 57-21.9 89.2 0 1.9 0 3.8 .1 5.7-5.1 1.5-10.5 2.3-16.1 2.3zM192 128a32 32 0 1 1 0 64 32 32 0 1 1 0-64zM112 256a32 32 0 1 1 64 0 32 32 0 1 1 -64 0zm240-96a32 32 0 1 1 64 0 32 32 0 1 1 -64 0zm144 96a144 144 0 1 1 0 288 144 144 0 1 1 0-288zm16 80l0-16-32 0 0 64-64 0 0 32 64 0 0 64 32 0 0-64 64 0 0-32-64 0 0-48z"/></svg>