<svg xmlns="http://www.w3.org/2000/svg" viewBox="0 0 512 512"><!--! Font Awesome Pro 7.0.1 by @fontawesome - https://fontawesome.com License - https://fontawesome.com/license (Commercial License) Copyright 2025 Fonticons, Inc. --><path style="fill:var(--fa-secondary-color,currentColor);opacity:var(--fa-secondary-opacity,.4)" d=""/><path style="fill:var(--fa-primary-color,currentColor);opacity:var(--fa-primary-opacity,1)" d="M48 88l0-24-48 0 0 384 48 0 0-168 160 0 0 168 48 0 0-384-48 0 0 168-160 0 0-144zM404.3 67c-56.5 31.4-87.5 48.6-93 51.7l23.3 42c11.4-6.3 30.5-17 57.3-31.8l0 271.2-72 0 0 48 192 0 0-48-72 0 0-336-30.2 0-5.4 3z"/></svg>