<svg xmlns="http://www.w3.org/2000/svg" viewBox="0 0 640 512"><!--! Font Awesome Pro 7.1.0 by @fontawesome - https://fontawesome.com License - https://fontawesome.com/license (Commercial License) Copyright 2025 Fonticons, Inc. --><path opacity=".4" fill="currentColor" d="M100.6 299.2l22.6-22.6 69.1 69.1 31.7-31.7 0-233.9 32 0 0 176 48 0 0-208 32 0 0 208 48 0 0-176 32 0 0 176 48 0 0-112 32 0 0 124.1c-5.6 2.7-10.9 5.7-16 9.2-20.1-13.7-44.1-21.3-69.1-21.3-67.9 0-122.9 55-122.9 122.9l0 2.5c0 29.3 10.3 56.2 23.3 78.7-36.9-7.3-71.3-24.4-99.4-49.8l-7.5-7.1-103.9-103.9z"/><path fill="currentColor" d="M549.1 304c41.4 0 74.9 33.5 74.9 74.9l0 2.5c0 85.3-143.8 178.5-144 178.7 0 0-144-93.3-144-178.7l0-2.5c0-41.3 33.5-74.9 74.9-74.9 24 0 46.6 11.5 60.7 31l8.4 11.7 8.4-11.7c14.1-19.5 36.7-31 60.7-31zM384 32l80 0 0 64 80 0 0 160.2c-16.8 .7-33.1 4.8-48 11.9l0-124.1-32 0 0 112-48 0 0-176-32 0 0 176-48 0 0-208-32 0 0 208-48 0 0-176-32 0 0 233.9-31.7 31.7-69.1-69.1-22.6 22.6 103.9 103.9 7.5 7.1c28.1 25.5 62.5 42.6 99.4 49.8 2.3 3.9 4.6 7.8 6.9 11.4 9.4 14.4 20.4 28 31.7 40.5-63.1-.4-123.7-24-170.2-66.2l-9.2-8.8-137.8-137.8 90.5-90.5 52.8 52.8 0-229.5 80 0 0-32 128 0 0 32z"/></svg>