<svg xmlns="http://www.w3.org/2000/svg" viewBox="0 0 640 512"><!--! Font Awesome Pro 7.1.0 by @fontawesome - https://fontawesome.com License - https://fontawesome.com/license (Commercial License) Copyright 2025 Fonticons, Inc. --><path opacity=".4" fill="currentColor" d="M98.3 56.3l45.8-14.4 32.3 102.4 0 13.8-33.9 33.9 64 64-16 16 97.9 97.9 16-16 64 64c43.3-43.3 86.6-86.6 129.9-130l22.1-22 30.1 30.1-115.4 115.4C403.6 443 361.4 461.6 317 463.8l-8.9 .2c-99.2 0-179.7-80.4-179.7-179.7l0-132.6-1.1-3.5-29-91.9zM210.4 192l62.1-62.1 30.1 30.1-62.1 62.1-30.1-30.1zm48 80l78.1-78.1 30.1 30.1-78.1 78.1-30.1-30.1zm80 48l62.1-62.1 30 30.1c-5 5-10 10-15.1 15.1l-47 47-30.1-30.1z"/><path fill="currentColor" d="M218 116.5l54.5-54.4 81 81 16.9 17c31.4 31.4 62.7 62.7 94 94l56-56 97.9 97.9-149.3 149.3c-40 40-93.4 63.6-149.7 66.4l-11.3 .3C182.4 512 80.5 410.1 80.5 284.3l0-125.2-42.3-134.1 114.4-36.1 22.9-7.2 42.6 134.8zM98.3 56.3l29 91.9 1.1 3.5 0 132.6c0 99.2 80.4 179.7 179.7 179.7l8.9-.2c44.4-2.2 86.5-20.8 118.1-52.4l115.4-115.4-30.1-30.1-22.1 22 0 0-130 129.9-64-64-16 16-97.9-97.9 16-16-64-64 33.9-33.9 0-13.8-32.3-102.4-45.8 14.4zM338.4 320l30.1 30.1 47-47 0-.1 15-15-30-30.1-62.1 62.1zm-80-48l30.1 30.1 78.1-78.1-30.1-30.1-78.1 78.1zm-48-80l30.1 30.1 62.1-62.1-30.1-30.1-62.1 62.1z"/></svg>