<svg xmlns="http://www.w3.org/2000/svg" viewBox="0 0 512 512"><!--! Font Awesome Pro 7.1.0 by @fontawesome - https://fontawesome.com License - https://fontawesome.com/license (Commercial License) Copyright 2025 Fonticons, Inc. --><path opacity=".4" fill="currentColor" d="M48 224c0 51 21.6 96.9 56.3 129.1l7.7 7.1 0 151.8c-43.9 0-6.5 0 112 0l0-195.2-174.5-116.3C48.5 208.2 48 216 48 224zM63.3 152l179.9 120 220.7 0 0-6.1-60-60-5.3-5.3-1.3-7.4C382.7 110.6 310.6 48 224 48 152.4 48 90.8 90.7 63.3 152zM352 208a32 32 0 1 1 -64 0 32 32 0 1 1 64 0z"/><path fill="currentColor" d="M224 0C100.3 0 0 100.3 0 224 0 285 24.4 340.4 64 380.8l0 131.2 48 0 0-151.8-7.7-7.1c-34.7-32.2-56.3-78.1-56.3-129.1 0-8 .5-15.8 1.5-23.4l174.5 116.3 0 195.2 224 0 64-192 0-73.9-7-7-61.9-61.9C421.5 75.9 331.7 0 224 0zm19.3 272L63.3 152C90.8 90.7 152.4 48 224 48 310.6 48 382.7 110.6 397.3 193.1l1.3 7.4 5.3 5.3 60 60 0 6.1-220.7 0zm210.1 72l-133.4 0 0 32 122.7 0-10.7 32-112.1 0 0 32 101.4 0-8 24-141.4 0 0-144 189.4 0-8 24zM320 240a32 32 0 1 0 0-64 32 32 0 1 0 0 64z"/></svg>