<svg xmlns="http://www.w3.org/2000/svg" viewBox="0 0 512 512"><!--! Font Awesome Pro 7.1.0 by @fontawesome - https://fontawesome.com License - https://fontawesome.com/license (Commercial License) Copyright 2025 Fonticons, Inc. --><path opacity=".4" fill="currentColor" d="M48.2 326l0 138 262 0-54.1-92c-36.8 3.2-74.5-11.2-99.8-41.6-16.2-19.5-28.9-34.7-37.9-45.5l36.9-30.7c9 10.9 21.7 26 37.9 45.5 23.7 28.5 65.8 33 95.1 10.3l1.2-.9 17.9-13.9c4.3 4.9 25.5 29.2 63.7 72.9l57.1 0 33.3-44.3-48.2-144.7-84.6-28.2-16.4-5.5 0-40.1c5.9-3 20.6-10.3 44-22l-5.2-20.9-138 41.7C115.2 133.6 48.2 223.8 48.2 326zm272-126a24 24 0 1 1 -48 0 24 24 0 1 1 48 0z"/><path fill="currentColor" d="M391.5 26.2L385.4 1.7 361.3 9 199.2 58C81.1 93.7 .2 202.6 .2 326l0 186 394 0c-7.9-13.4-34.7-58.9-80.3-136.5 22.4 25.6 34.2 39.1 35.4 40.5l102.9 0 7.2-9.6 48-64 7.5-10.1-4-11.9-56-168-3.8-11.4c-1-.3-21.7-7.2-62-20.7 1.9-1 9.6-4.8 23-11.5-1.2-4.9-8.1-32.5-20.7-82.7zM156.4 330.4c25.4 30.4 63 44.8 99.8 41.6l54.1 92-262 0 0-138c0-102.3 67-192.5 164.9-222.1l138-41.7 5.2 20.9c-23.4 11.7-38.1 19.1-44 22l0 40.1 16.4 5.5 84.6 28.2 48.2 144.7-33.3 44.3-57.1 0c-38.2-43.7-59.5-67.9-63.7-72.9l-17.9 13.9-1.2 .9c-29.3 22.8-71.3 18.2-95.1-10.3-16.2-19.5-28.9-34.7-37.9-45.5l-36.9 30.7c9 10.9 21.7 26 37.9 45.5zM296.2 224a24 24 0 1 0 0-48 24 24 0 1 0 0 48z"/></svg>