<svg xmlns="http://www.w3.org/2000/svg" viewBox="0 0 640 512"><!--! Font Awesome Pro 7.1.0 by @fontawesome - https://fontawesome.com License - https://fontawesome.com/license (Commercial License) Copyright 2025 Fonticons, Inc. --><path opacity=".4" fill="currentColor" d="M112 80l352 0 0 98.7c-47.7 8-89.4 33.6-118.3 69.8L320 208 256.4 307.9 224 256 144 384 304.7 384c1.4 16.7 4.9 32.8 10.3 48L112 432 112 80zm48 80a32 32 0 1 0 64 0 32 32 0 1 0 -64 0z"/><path fill="currentColor" d="M464 80l-352 0 0 352 202.9 0c6.1 17.3 14.6 33.4 25.1 48l-276 0 0-448 448 0 0 144.7c-5.3-.4-10.6-.7-16-.7-10.9 0-21.6 .9-32 2.7L464 80zM304 368c0 5.4 .2 10.7 .7 16l-160.7 0 80-128 32.4 51.9 63.6-99.9 25.7 40.5C319.6 281.3 304 322.8 304 368zM160 160a32 32 0 1 1 64 0 32 32 0 1 1 -64 0zm336 64a144 144 0 1 1 0 288 144 144 0 1 1 0-288zm78.6 152L552 353.4c-4.6 4.6-18 18-40 40l0-105.4-32 0 0 105.4c-22-22-35.4-35.4-40-40l-22.6 22.6 11.3 11.3 56 56 11.3 11.3 11.3-11.3 56-56 11.3-11.3z"/></svg>