<svg xmlns="http://www.w3.org/2000/svg" viewBox="0 0 640 512"><!--! Font Awesome Pro 7.1.0 by @fontawesome - https://fontawesome.com License - https://fontawesome.com/license (Commercial License) Copyright 2025 Fonticons, Inc. --><path opacity=".4" fill="currentColor" d="M112 80l352 0 0 127.5-112 20.4 0 30.5-32-50.3-63.6 99.9-32.4-51.9-80 128 208 0 0 19.8c-15.3 3.8-29.7 10.5-42.1 19.7-3.4 2.6-6.7 5.4-9.9 8.4L112 432 112 80zm48 80a32 32 0 1 0 64 0 32 32 0 1 0 -64 0z"/><path fill="currentColor" d="M464 80l-352 0 0 352 188.1 0c-12.7 12.3-22.9 28.6-26.6 48l-209.5 0 0-448 448 0 0 166.7-48 8.7 0-127.5zM352 384l-208 0 80-128 32.4 51.9 63.6-99.9 32 50.3 0 125.7zM160 160a32 32 0 1 1 64 0 32 32 0 1 1 -64 0zm464 95.8l0 208.1c0 23.3-18 35.4-29.1 40.5-11.9 5.4-25.4 7.5-34.9 7.5s-22.9-2.1-34.9-7.5c-11.1-5-29.1-17.2-29.1-40.5s18-35.4 29.1-40.5c11.9-5.4 25.4-7.5 34.9-7.5 4.6 0 10.1 .5 16 1.6l0-85-128 23.3 0 140.1c0 23.3-18 35.4-29.1 40.5-11.9 5.4-25.4 7.5-34.9 7.5s-22.9-2.1-34.9-7.5c-11.1-5-29.1-17.2-29.1-40.5s18-35.4 29.1-40.5c11.9-5.4 25.4-7.5 34.9-7.5 4.6 0 10.1 .5 16 1.6l0-181.8 19.7-3.6 176-32 28.3-5.1 0 28.8z"/></svg>