<svg xmlns="http://www.w3.org/2000/svg" viewBox="0 0 576 512"><!--! Font Awesome Pro 7.1.0 by @fontawesome - https://fontawesome.com License - https://fontawesome.com/license (Commercial License) Copyright 2025 Fonticons, Inc. --><path opacity=".4" fill="currentColor" d="M48 112l0 288 480 0 0-288-480 0zM96 304l40 0 0-96-32 0 0-48 80 0 0 144 40 0 0 48-128 0 0-48zM237.8 200.4l16.9-19.7c25.9-30.3 72.7-30.5 98.9-.5 22 25.2 21.5 62.9-1.2 87.4l-33.6 36.4 57.2 0 0 48-128 0 0-42 69.1-74.9c6-6.5 6.2-16.6 .3-23.3-7-8-19.4-7.9-26.3 .1l-16.9 19.7-36.4-31.2z"/><path fill="currentColor" d="M528 112l0 288-480 0 0-288 480 0zM48 64l-48 0 0 384 576 0 0-384-528 0zm56 96l0 48 32 0 0 96-40 0 0 48 128 0 0-48-40 0 0-144-80 0zm213.4 51.8c5.9 6.7 5.7 16.7-.3 23.3l-69.1 74.9 0 42 128 0 0-48-57.2 0 33.6-36.4c22.7-24.6 23.2-62.3 1.2-87.4-26.2-30-73-29.7-98.9 .5l-16.9 19.7 36.4 31.2 16.9-19.7c6.9-8.1 19.3-8.1 26.3-.1z"/></svg>