<svg xmlns="http://www.w3.org/2000/svg" viewBox="0 0 448 512"><!--! Font Awesome Pro 7.0.1 by @fontawesome - https://fontawesome.com License - https://fontawesome.com/license (Commercial License) Copyright 2025 Fonticons, Inc. --><path style="fill:var(--fa-secondary-color,currentColor);opacity:var(--fa-secondary-opacity,.4)" d="M48 400l0 64 352 0 0-64-352 0zM160 112a64 64 0 1 0 128 0 64 64 0 1 0 -128 0z"/><path style="fill:var(--fa-primary-color,currentColor);opacity:var(--fa-primary-opacity,1)" d="M224 0c61.9 0 112 50.1 112 112 0 53.6-37.7 98.4-88 109.4l0 130.6 200 0 0 160-448 0 0-160 200 0 0-130.6c-50.3-11-88-55.8-88-109.4 0-61.9 50.1-112 112-112zM48 464l352 0 0-64-352 0 0 64zM224 48a64 64 0 1 0 0 128 64 64 0 1 0 0-128z"/></svg>