<svg xmlns="http://www.w3.org/2000/svg" viewBox="0 0 512 512"><!--! Font Awesome Pro 7.1.0 by @fontawesome - https://fontawesome.com License - https://fontawesome.com/license (Commercial License) Copyright 2025 Fonticons, Inc. --><path opacity=".4" fill="currentColor" d="M48 385.9l0 78.1 64 0 0-64 64 0 0-64 78.1 0c13.9-13.9 26.4-26.4 37.4-37.4l24.2 3.8c6.6 1 13.4 1.6 20.3 1.6 70.7 0 128-57.3 128-128S406.7 48 336 48 208 105.3 208 176c0 6.9 .5 13.7 1.6 20.3l3.8 24.2-17.3 17.3-148.1 148.1zM400 144a32 32 0 1 1 -64 0 32 32 0 1 1 64 0z"/><path fill="currentColor" d="M315.7 302.4l-24.2-3.8c-11.1 11.1-23.6 23.6-37.4 37.4l-78.1 0 0 64-64 0 0 64-64 0 0-78.1 148.1-148.1 17.3-17.3-3.8-24.2c-1-6.6-1.6-13.4-1.6-20.3 0-70.7 57.3-128 128-128s128 57.3 128 128-57.3 128-128 128c-6.9 0-13.7-.6-20.3-1.6zM272 384l1.9 0c1.3-1.3 12.7-12.7 34.2-34.2 9.1 1.4 18.4 2.2 27.9 2.2 97.2 0 176-78.8 176-176S433.2 0 336 0 160 78.8 160 176c0 9.5 .7 18.8 2.2 27.9l-155.2 155.2-7 7 0 145.9 160 0 0-64 64 0 0-64 48 0zm96-208a32 32 0 1 0 0-64 32 32 0 1 0 0 64z"/></svg>