<svg xmlns="http://www.w3.org/2000/svg" viewBox="0 0 512 512"><!--! Font Awesome Pro 7.0.1 by @fontawesome - https://fontawesome.com License - https://fontawesome.com/license (Commercial License) Copyright 2025 Fonticons, Inc. --><path style="fill:var(--fa-secondary-color,currentColor);opacity:var(--fa-secondary-opacity,.4)" d="M48 112l0 288 34.7 0 0-288-34.7 0zm82.7 0l0 288 250.7 0 0-288-250.7 0zM176 228l52 0 0-52 56 0 0 52 52 0 0 56-52 0 0 52-56 0 0-52-52 0 0-56zM429.3 112l0 288 34.7 0 0-288-34.7 0z"/><path style="fill:var(--fa-primary-color,currentColor);opacity:var(--fa-primary-opacity,1)" d="M130.7 400l0-288 250.7 0 0 288-250.7 0zm-48 0l-34.7 0 0-288 34.7 0 0 288zm24-336L0 64 0 448 512 448 512 64 106.7 64zM464 400l-34.7 0 0-288 34.7 0 0 288zM228 176l0 52-52 0 0 56 52 0 0 52 56 0 0-52 52 0 0-56-52 0 0-52-56 0z"/></svg>