<svg xmlns="http://www.w3.org/2000/svg" viewBox="0 0 576 512"><!--! Font Awesome Pro 7.1.0 by @fontawesome - https://fontawesome.com License - https://fontawesome.com/license (Commercial License) Copyright 2025 Fonticons, Inc. --><path opacity=".4" fill="currentColor" d="M91.3 256l85-80.5 0 48.5 160 0 0 64-160 0 0 48.5-85-80.5z"/><path fill="currentColor" d="M224.4 64c-20 18.9-76 71.9-168 159L21.5 256c9.1 8.6 60.7 57.5 154.9 146.6l48 45.4 0-112 160 0 0-160-160 0 0-112zM91.3 256l85-80.5 0 48.5 160 0 0 64-160 0 0 48.5-85-80.5zm285 176l-24 0 0 48 192 0 0-448-192 0 0 48 144 0 0 352-120 0z"/></svg>