<svg xmlns="http://www.w3.org/2000/svg" viewBox="0 0 384 512"><!--! Font Awesome Pro 7.1.0 by @fontawesome - https://fontawesome.com License - https://fontawesome.com/license (Commercial License) Copyright 2025 Fonticons, Inc. --><path opacity=".4" fill="currentColor" d="M48 192c0 53.2 28.9 99.8 72 124.8l24 13.9 0 53.4 96 0 0-53.4 24-13.9c43.2-25 72-71.5 72-124.8 0-79.5-64.5-144-144-144S48 112.5 48 192zm84-31.4c0-25.3 19.3-46.1 44-48.4l0-24.2 40 0 0 24 28 0 0 40-63.4 0c-4.7 0-8.6 3.8-8.6 8.6 0 4.1 2.9 7.6 6.9 8.4l34.1 6.8c22.7 4.5 39 24.5 39 47.6 0 22.5-15.3 41.4-36 46.9l0 25.6-40 0 0-24-36 0 0-40 63.4 0c4.7 0 8.6-3.8 8.6-8.6 0-4.1-2.9-7.6-6.9-8.4L171 208.2c-22.7-4.5-39-24.5-39-47.6z"/><path fill="currentColor" d="M240 330.6l0 53.4-96 0 0-53.4-24-13.9c-43.2-25-72-71.5-72-124.8 0-79.5 64.5-144 144-144s144 64.5 144 144c0 53.2-28.9 99.8-72 124.8l-24 13.9zm48 27.7c57.4-33.2 96-95.2 96-166.3 0-106-86-192-192-192S0 86 0 192c0 71.1 38.6 133.1 96 166.3l0 153.7 192 0 0-153.7zM216 88l-40 0 0 24.2c-24.7 2.3-44 23.1-44 48.4 0 23.2 16.3 43.1 39 47.6l34.1 6.8c4 .8 6.9 4.3 6.9 8.4 0 4.7-3.8 8.6-8.6 8.6l-63.4 0 0 40 36 0 0 24 40 0 0-25.6c20.7-5.5 36-24.5 36-46.9 0-23.2-16.3-43.1-39-47.6L178.9 169c-4-.8-6.9-4.3-6.9-8.4 0-4.7 3.8-8.6 8.6-8.6l63.4 0 0-40-28 0 0-24z"/></svg>