<svg xmlns="http://www.w3.org/2000/svg" viewBox="0 0 512 512"><!--! Font Awesome Pro 7.1.0 by @fontawesome - https://fontawesome.com License - https://fontawesome.com/license (Commercial License) Copyright 2025 Fonticons, Inc. --><path opacity=".4" fill="currentColor" d="M168 96l40 40 1.4 0c-15.3-15.3-28.8-28.8-40.7-40.7L168 96zm0 320l.7 .7c11.8-11.8 25.4-25.4 40.7-40.7l-1.4 0-40 40zM221.3 80l16 16 162.7 0 0-32-162.7 0-16 16zm0 176l16 16 226.7 0 0-32-226.7 0-16 16zm0 176l16 16 162.7 0 0-32-162.7 0-16 16z"/><path fill="currentColor" d="M221.3 80l16 16 162.7 0 0-32-162.7 0-16 16zM448 128l0 16-230.6 0-4.7-4.7c-40.9-40.9-56.5-56.5-59.3-59.3 12.7-12.7 49.5-49.5 59.3-59.3l4.7-4.7 230.6 0 0 112zM224 320l-6.6 0-4.7-4.7c-40.9-40.9-56.5-56.5-59.3-59.3 12.7-12.7 49.5-49.5 59.3-59.3l4.7-4.7 294.6 0 0 128-288 0zm13.3-80l-16 16 16 16 226.7 0 0-32-226.7 0zM153.4 432c12.7-12.7 49.5-49.5 59.3-59.3l4.7-4.7 230.6 0 0 128-230.6 0-4.7-4.7c-40.9-40.9-56.5-56.5-59.3-59.3zm83.9 16l162.7 0 0-32-162.7 0-16 16 16 16zM64 112a32 32 0 1 1 0-64 32 32 0 1 1 0 64zm0 176a32 32 0 1 1 0-64 32 32 0 1 1 0 64zM32 432a32 32 0 1 1 64 0 32 32 0 1 1 -64 0z"/></svg>