<svg xmlns="http://www.w3.org/2000/svg" viewBox="0 0 512 512"><!--! Font Awesome Pro 7.0.1 by @fontawesome - https://fontawesome.com License - https://fontawesome.com/license (Commercial License) Copyright 2025 Fonticons, Inc. --><path style="fill:var(--fa-secondary-color,currentColor);opacity:var(--fa-secondary-opacity,.4)" d=""/><path style="fill:var(--fa-primary-color,currentColor);opacity:var(--fa-primary-opacity,1)" d="M32 64a32 32 0 1 0 0 64 32 32 0 1 0 0-64zm120 0l-24 0 0 48 384 0 0-48-360 0zm0 168l-24 0 0 48 384 0 0-48-360 0zm0 168l-24 0 0 48 384 0 0-48-360 0zM64 256a32 32 0 1 0 -64 0 32 32 0 1 0 64 0zM32 384a32 32 0 1 0 0 64 32 32 0 1 0 0-64z"/></svg>