<svg xmlns="http://www.w3.org/2000/svg" viewBox="0 0 512 512"><!--! Font Awesome Pro 7.1.0 by @fontawesome - https://fontawesome.com License - https://fontawesome.com/license (Commercial License) Copyright 2025 Fonticons, Inc. --><path opacity=".4" fill="currentColor" d="M53.8 282.1c1.5 3.5 3 6.9 4.6 10.2L68.9 314 57.8 335.3c-1.2 2.3-2.4 4.8-3.5 7.2 1.9 1.9 3.8 3.7 5.8 5.4l18 15.9-1.9 23.9c-.2 2.6-.3 5.2-.3 7.9 .2 .1 .4 .2 .6 .3l6.9 2.6 22.8 7.6 7.6 22.8c.8 2.5 1.8 5 2.8 7.5 2.7 0 5.3-.1 7.9-.3l23.9-1.9 15.9 18c1.7 1.9 3.5 3.8 5.4 5.7 2.5-1.1 4.9-2.2 7.2-3.4l21.3-11.1 21.7 10.5c3.3 1.6 6.7 3.1 10.2 4.6 3.1-2.5 6.2-5 9.3-7.6l18.3-15.7 23.5 5.3c4 .9 8 1.7 12 2.4 2.7-3.1 5.4-6.3 7.9-9.5l15-18.9 24.1 .8c4.1 .1 8.2 .1 12.2 .1 2-3.5 3.9-7 5.7-10.4l10.9-21.5 23.8-4.1c3.7-.6 7.3-1.4 11-2.2 .9-3.4 1.8-6.8 2.5-10.1l4.9-23.5 21.8-10.1c2.8-1.3 5.6-2.7 8.4-4.2-.2-2.9-.5-5.7-.9-8.5l-3.5-23.8 17-17 5.1-5.4c.1-.2 .3-.3 .4-.5-1.2-2.3-2.5-4.5-3.7-6.6l-12.5-20.3 8.6-22.2c.6-1.7 1.2-3.4 1.7-5.1-8.8-6.6-18.8-13.3-29.9-20.4-18.1-11.5-41.1-25.2-60.7-39.4l-6.2-4.5-4.5-6.2c-14.3-19.6-27.9-42.6-39.4-60.7-7.1-11.2-13.8-21.1-20.4-29.9-1.7 .5-3.4 1.1-5.1 1.8l-22.2 8.6-20.3-12.5c-2.2-1.4-4.4-2.6-6.7-3.8-2 1.8-4 3.6-5.8 5.5l-17 17-23.8-3.5c-2.8-.4-5.6-.7-8.5-.9-1.5 2.8-2.9 5.6-4.2 8.4l-10.1 21.8-23.5 4.9c-3.3 .7-6.7 1.5-10.2 2.5-.8 3.7-1.6 7.3-2.2 11l-4.1 23.7-21.5 10.9c-3.5 1.8-7 3.7-10.5 5.6 0 4.1 0 8.2 .1 12.3l.8 24.1-18.9 15c-3.2 2.6-6.4 5.2-9.5 7.9 .7 4.1 1.5 8.1 2.4 12.1l5.3 23.5-15.7 18.3c-2.6 3-5.1 6.1-7.6 9.2zM124 378.8c2.6-12.9 6.8-34.1 12.7-63.5l3.1-15.7c6.4-1.3 25-5 55.7-11.1l23.5-4.7 9.4 47.1c-15.6 3.1-31.5 6.3-47.8 9.6-3.3 16.4-6.5 32.3-9.6 47.9L124 378.8zm32-160c2.6-12.9 6.8-34.1 12.7-63.5l3.1-15.7c6.4-1.3 25-5 55.7-11.1l23.5-4.7 9.4 47.1c-15.6 3.1-31.5 6.3-47.8 9.6-3.3 16.4-6.5 32.3-9.6 47.9L156 218.8zm128 128c2.6-12.9 6.8-34.1 12.7-63.5l3.1-15.7c6.4-1.3 25-5 55.7-11.1l23.5-4.7 9.4 47.1c-15.6 3.1-31.5 6.3-47.8 9.6-3.3 16.4-6.5 32.3-9.6 47.9L284 346.8z"/><path fill="currentColor" d="M231.6-1.7c8.7 2.7 16.8 6 24.6 9.8 4.9 2.3 9.4 4.8 13.8 7.5 12.6-4.9 26.8-8.1 42.3-8 21.5 22.5 38.8 51.7 56.3 79.5 22-13.2 40-24 54.1-32.5l34.7 34.7c-8.5 14.1-19.3 32.2-32.5 54.1 27.9 17.5 57.1 34.9 79.6 56.4 .1 15.5-3.1 29.8-8 42.3 7.1 11.6 12.9 24.4 17.3 38.5-7.6 12.5-16.4 23.5-26 33.1 1.9 13.4 2.4 27.5 1.2 41.9-11.7 8.6-23.8 15.5-36 21.2-2.8 13.2-6.9 26.6-12.1 39.8-13.5 4.5-26.9 7.7-40.2 10-6.1 12-13.1 23.9-21 35.5-14 1.2-27.7 1.5-41.2 1.1-8.4 10.5-17.5 20.8-27.4 30.7-13.9-1.5-27.5-3.7-40.7-6.7-10.3 8.8-21.2 17.2-33 24.9-13.5-4.2-26.3-9.3-38.6-15.2-12.1 6.3-25.3 11.3-39.4 14.8-11.9-8.3-22.5-17.8-31.4-28-13.5 1.1-27.6 .5-42-1.8-7.7-12.4-13.7-25.2-18-38-12.8-4.3-25.7-10.3-38-18-2.3-14.4-2.9-28.6-1.8-42-10.1-8.9-19.6-19.5-28-31.4 3.5-14.1 8.5-27.3 14.8-39.4-5.9-12.2-10.9-25.1-15.2-38.6 7.7-11.7 16.1-22.7 24.9-33-3-13.1-5.2-26.8-6.7-40.7 9.9-10 20.2-19.1 30.7-27.4-.4-13.5-.1-27.2 1.1-41.2 11.6-7.9 23.5-14.9 35.5-21 2.3-13.3 5.5-26.8 10-40.2 13.2-5.2 26.6-9.3 39.8-12.1 5.7-12.2 12.6-24.4 21.2-36 14.4-1.1 28.6-.7 41.9 1.2 9.6-9.5 20.6-18.3 33.1-26zm.8 59.9l-17 17-23.8-3.5c-2.8-.4-5.6-.7-8.5-.9-1.5 2.8-2.9 5.6-4.2 8.4l-10.1 21.8-23.5 4.9c-3.3 .7-6.7 1.5-10.2 2.5-.8 3.7-1.6 7.3-2.2 11l-4.1 23.7-21.5 10.9c-3.5 1.8-7 3.7-10.5 5.6 0 4.1 0 8.2 .1 12.3l.8 24.1-18.9 15c-3.2 2.6-6.4 5.2-9.5 7.9 .7 4.1 1.5 8.1 2.4 12.1l5.3 23.5-15.7 18.3c-2.6 3-5.1 6.1-7.6 9.2 1.5 3.5 3 6.9 4.6 10.2L68.9 314 57.8 335.3c-1.2 2.3-2.4 4.8-3.5 7.2 1.9 1.9 3.8 3.7 5.8 5.4l18 15.9-1.9 23.9c-.2 2.6-.3 5.2-.3 7.9 .2 .1 .4 .2 .6 .3l6.9 2.6 22.8 7.6 7.6 22.8c.8 2.5 1.8 5 2.8 7.5 2.7 0 5.3-.1 7.9-.3l23.9-1.9 15.9 18c1.7 1.9 3.5 3.8 5.4 5.7 2.5-1.1 4.9-2.2 7.2-3.4l21.3-11.1 21.7 10.5c3.3 1.6 6.7 3.1 10.2 4.6 3.1-2.5 6.2-5 9.3-7.6l18.3-15.7 23.5 5.3c4 .9 8 1.7 12 2.4 2.7-3.1 5.4-6.3 7.9-9.5l15-18.9 24.1 .8c4.1 .1 8.2 .1 12.2 .1 2-3.5 3.9-7 5.7-10.4l10.9-21.5 23.8-4.1c3.7-.6 7.3-1.4 11-2.2 .9-3.4 1.8-6.8 2.5-10.1l4.9-23.5 21.8-10.1c2.8-1.3 5.6-2.7 8.4-4.2-.2-2.9-.5-5.7-.9-8.5l-3.5-23.8 17-17 5.1-5.4c.1-.2 .3-.3 .4-.5-1.2-2.3-2.5-4.5-3.7-6.6l-12.5-20.3 8.6-22.2c.6-1.7 1.2-3.4 1.7-5.1-8.8-6.6-18.8-13.3-29.9-20.4-18.1-11.5-41.1-25.2-60.7-39.4l-6.2-4.5-4.5-6.2c-14.3-19.6-27.9-42.6-39.4-60.7-7.1-11.2-13.8-21.1-20.4-29.9-1.7 .5-3.4 1.1-5.1 1.8l-22.2 8.6-20.3-12.5c-2.2-1.4-4.4-2.6-6.7-3.8-2 1.8-4 3.6-5.8 5.5zm-3.9 272.6c-15.6 3.1-31.5 6.3-47.8 9.6-3.3 16.4-6.5 32.3-9.6 47.9L124 378.8c2.6-12.9 6.8-34.1 12.7-63.5l3.1-15.7c6.4-1.3 25-5 55.7-11.1l23.5-4.7 9.4 47.1zm160-32c-15.6 3.1-31.5 6.3-47.8 9.6-3.3 16.4-6.5 32.3-9.6 47.9L284 346.8c2.6-12.9 6.8-34.1 12.7-63.5l3.1-15.7c6.4-1.3 25-5 55.7-11.1l23.5-4.7 9.4 47.1zm-128-128c-15.6 3.1-31.5 6.3-47.8 9.6-3.3 16.4-6.5 32.3-9.6 47.9L156 218.8c2.6-12.9 6.8-34.1 12.7-63.5l3.1-15.7c6.4-1.3 25-5 55.7-11.1l23.5-4.7 9.4 47.1z"/></svg>