<svg xmlns="http://www.w3.org/2000/svg" viewBox="0 0 512 512"><!--! Font Awesome Pro 7.1.0 by @fontawesome - https://fontawesome.com License - https://fontawesome.com/license (Commercial License) Copyright 2025 Fonticons, Inc. --><path opacity=".4" fill="currentColor" d="M48 80l0 320 128 0 0 59.2 87.3-52.4 11.4-6.8 189.3 0 0-320-416 0zm86.2 192.1l33.9-33.9 53 53 105.6-145.2 14.1-19.4 38.8 28.2-14.1 19.4-122.1 167.9-16.5 22.7-92.7-92.7z"/><path fill="currentColor" d="M512 448l-224 0-160 96 0-96-128 0 0-416 512 0 0 416zM48 400l128 0 0 59.2 87.3-52.4 11.4-6.8 189.3 0 0-320-416 0 0 320zM379.7 154.8l-14.1 19.4-122.1 167.9-16.5 22.7-92.7-92.7 33.9-33.9 53 53 105.6-145.2 14.1-19.4 38.8 28.2z"/></svg>