<svg xmlns="http://www.w3.org/2000/svg" viewBox="0 0 512 512"><!--! Font Awesome Pro 7.0.1 by @fontawesome - https://fontawesome.com License - https://fontawesome.com/license (Commercial License) Copyright 2025 Fonticons, Inc. --><path style="fill:var(--fa-secondary-color,currentColor);opacity:var(--fa-secondary-opacity,.4)" d="M208 208l0 96 96 0 0-96-96 0z"/><path style="fill:var(--fa-primary-color,currentColor);opacity:var(--fa-primary-opacity,1)" d="M176 24l0-24-48 0 0 64-64 0 0 64-64 0 0 48 64 0 0 56-64 0 0 48 64 0 0 56-64 0 0 48 64 0 0 64 64 0 0 64 48 0 0-64 56 0 0 64 48 0 0-64 56 0 0 64 48 0 0-64 64 0 0-64 64 0 0-48-64 0 0-56 64 0 0-48-64 0 0-56 64 0 0-48-64 0 0-64-64 0 0-64-48 0 0 64-56 0 0-64-48 0 0 64-56 0 0-40zm224 88l0 288-288 0 0-288 288 0zm-96 96l0 96-96 0 0-96 96 0zm-96-48l-48 0 0 192 192 0 0-192-144 0z"/></svg>