<svg xmlns="http://www.w3.org/2000/svg" viewBox="0 0 576 512"><!--! Font Awesome Pro 7.0.1 by @fontawesome - https://fontawesome.com License - https://fontawesome.com/license (Commercial License) Copyright 2025 Fonticons, Inc. --><path style="fill:var(--fa-secondary-color,currentColor);opacity:var(--fa-secondary-opacity,.4)" d="M112 80l0 256 288 0 0-256-152 0 0 32 40 48 0 96-128 0 0-96 40-48 0-32-88 0z"/><path style="fill:var(--fa-primary-color,currentColor);opacity:var(--fa-primary-opacity,1)" d="M248 80l0 32 40 48 0 96-128 0 0-96 40-48 0-32-88 0 0 256 288 0 0-256-152 0zm200 0l0 144 8 0c39.8 0 72-32.2 72-72s-32.2-72-72-72l-8 0zm0 192l0 112-384 0 0-352 392 0c66.3 0 120 53.7 120 120S522.3 272 456 272l-8 0zM32 464l448 0 0 48-448 0 0-48z"/></svg>