<svg xmlns="http://www.w3.org/2000/svg" viewBox="0 0 576 512"><!--! Font Awesome Pro 7.1.0 by @fontawesome - https://fontawesome.com License - https://fontawesome.com/license (Commercial License) Copyright 2025 Fonticons, Inc. --><path opacity=".4" fill="currentColor" d="M80.4 80l352 0 0 116.8c-12.8-3.1-26.2-4.8-40-4.8-2.7 0-5.3 .1-8 .2l0-64.2-152 0 0 96c-9.7 7.3-16 18.9-16 32 0 15.8 9.1 29.4 22.4 35.9-6.1 13.8-10.5 28.6-12.7 44.1l-49.7 0 0-160 16 0 0-48-64 0 0 256 97.7 0c2.4 16.9 7.4 33.1 14.5 48l-160.2 0 0-352zm200 96l56 0 0 25.6c-18.3 6.5-35.2 16-49.9 28-1.8-2.1-3.9-4-6.1-5.6l0-48z"/><path fill="currentColor" d="M432.4 80l-352 0 0 352 160.2 0c8.5 18 20.2 34.2 34.3 48l-242.4 0 0-448 448 0 0 184.9c-14.7-9-30.8-15.9-48-20.1l0-116.8zm-48 72l0 40.2c-16.8 .8-32.9 4-48 9.4l0-25.6-56 0 0 48c2.2 1.7 4.2 3.5 6.1 5.6-20.4 16.6-36.9 37.9-47.7 62.3-13.3-6.5-22.4-20.2-22.4-35.9 0-13.1 6.3-24.7 16-32l0-96 152 0 0 24zm-160 208c0 8.1 .6 16.2 1.7 24l-97.7 0 0-256 64 0 0 48-16 0 0 160 49.7 0c-1.1 7.8-1.7 15.9-1.7 24zm168 72a72 72 0 1 0 0-144 72 72 0 1 0 0 144zm0 48c-66.3 0-120-53.7-120-120s53.7-120 120-120 120 53.7 120 120c0 24.5-7.3 47.3-19.9 66.3 47.9 47.9 73.9 73.8 77.9 77.8l-33.9 34c-4-4-30-29.9-77.9-77.9-19 12.5-41.7 19.8-66.1 19.8z"/></svg>