<svg xmlns="http://www.w3.org/2000/svg" viewBox="0 0 512 512"><!--! Font Awesome Pro 7.0.1 by @fontawesome - https://fontawesome.com License - https://fontawesome.com/license (Commercial License) Copyright 2025 Fonticons, Inc. --><path style="fill:var(--fa-secondary-color,currentColor);opacity:var(--fa-secondary-opacity,.4)" d="M224 48l208 0 0 416-208 0 0-416z"/><path style="fill:var(--fa-primary-color,currentColor);opacity:var(--fa-primary-opacity,1)" d="M224 48l208 0 0 416-208 0 0-416zm-48 0l0 416-64 0 0-416 64 0zM64 416l0 96 416 0 0-512-416 0 0 96-64 0 0 48 64 0 0 88-64 0 0 48 64 0 0 88-64 0 0 48 64 0z"/></svg>