<svg xmlns="http://www.w3.org/2000/svg" viewBox="0 0 512 512"><!--! Font Awesome Pro 7.0.1 by @fontawesome - https://fontawesome.com License - https://fontawesome.com/license (Commercial License) Copyright 2025 Fonticons, Inc. --><path style="fill:var(--fa-secondary-color,currentColor);opacity:var(--fa-secondary-opacity,.4)" d="M48 48l0 256 64 0 0-192 192 0 0-64-256 0zM208 400l0 64 256 0 0-256-64 0 0 192-192 0z"/><path style="fill:var(--fa-primary-color,currentColor);opacity:var(--fa-primary-opacity,1)" d="M48 48l256 0 0 64 48 0 0-112-352 0 0 352 112 0 0-48-64 0 0-256zM208 160l-48 0 0 64 48 0 0-16 48 0 0-48-48 0zM160 272l0 80 48 0 0-80-48 0zm96 80l96 0 0-64-48 0 0 16-48 0 0 48zm96-192l-48 0 0 80 48 0 0-80zM160 400l0 112 352 0 0-352-112 0 0 48 64 0 0 256-256 0 0-64-48 0z"/></svg>