<svg xmlns="http://www.w3.org/2000/svg" viewBox="0 0 640 512"><!--! Font Awesome Pro 7.1.0 by @fontawesome - https://fontawesome.com License - https://fontawesome.com/license (Commercial License) Copyright 2025 Fonticons, Inc. --><path opacity=".4" fill="currentColor" d="M112 256a208 208 0 1 0 416 0 208 208 0 1 0 -416 0zm43.7-24l46.1-46.1 14.1-14.1 28.3 28.3-46.1 46.1-14.1 14.1-28.3-28.3zm21.7 80c32.2-32.2 28.1-28.1 38.6-38.6l22.6 22.6-8 8 16 16 33.4 0c30.9 0 56 25.1 56 56s-25.1 56-56 56-56-25.1-56-56l0-33.4-16-16-8 8-22.6-22.6zM248 152c0-39.8 32.2-72 72-72s72 32.2 72 72l0 8-144 0 0-8zm96 72a24 24 0 1 1 -48 0 24 24 0 1 1 48 0zm8 64l96-96 11 11c13.4 13.4 21 31.6 21 50.6l0 4.8c0 18.7-8.5 36.4-23.1 48.1-10.9 8.7-24.5 13.5-38.5 13.5l-4.1 0c-19.4 0-38-7.7-51.8-21.4L352 288zm88 96a24 24 0 1 1 -48 0 24 24 0 1 1 48 0z"/><path fill="currentColor" d="M320 48a208 208 0 1 1 0 416 208 208 0 1 1 0-416zm0 464a256 256 0 1 0 0-512 256 256 0 1 0 0 512zM48 160l-48 0 0 192 48 0 0-192zm592 24l0-24-48 0 0 192 48 0 0-168zM244.3 200L216 171.7c-6.5 6.5-21.8 21.8-46.1 46.1L155.7 232 184 260.3c6.5-6.5 21.8-21.8 46.1-46.1L244.3 200zM320 248a24 24 0 1 0 0-48 24 24 0 1 0 0 48zM440 384a24 24 0 1 0 -48 0 24 24 0 1 0 48 0zM230.6 304l8-8-22.6-22.6c-32.2 32.2-28.1 28.1-38.6 38.6l22.6 22.6 8-8 16 16 0 33.4c0 30.9 25.1 56 56 56s56-25.1 56-56-25.1-56-56-56l-33.4 0-16-16zM448 192l-96 96 10.6 10.6c13.7 13.7 32.4 21.4 51.8 21.4l4.1 0c14 0 27.6-4.8 38.5-13.5 14.6-11.7 23.1-29.4 23.1-48.1l0-4.8c0-19-7.5-37.2-21-50.6l-11-11zM320 80c-39.8 0-72 32.2-72 72l0 8 144 0 0-8c0-39.8-32.2-72-72-72z"/></svg>