<svg xmlns="http://www.w3.org/2000/svg" viewBox="0 0 448 512"><!--! Font Awesome Pro 7.0.1 by @fontawesome - https://fontawesome.com License - https://fontawesome.com/license (Commercial License) Copyright 2025 Fonticons, Inc. --><path style="fill:var(--fa-secondary-color,currentColor);opacity:var(--fa-secondary-opacity,.4)" d="M-2 0L30 512 32.1 512 .1 0-2 0zM51.2 48l3 48 73.9 0 0 48-70.9 0 20 320 123.2 0 0-304 48 0 0 304 122.6 0 20-320-70.9 0 0-48 73.9 0 3-48-345.8 0z"/><path style="fill:var(--fa-primary-color,currentColor);opacity:var(--fa-primary-opacity,1)" d="M.1 0l448 0-3 48-29 464-384 0-32-512zM54.2 96l73.9 0 0 48-70.9 0 20 320 123.2 0 0-304 48 0 0 304 122.6 0 20-320-70.9 0 0-48 73.9 0 3-48-345.8 0 3 48z"/></svg>