<svg xmlns="http://www.w3.org/2000/svg" viewBox="0 0 512 512"><!--! Font Awesome Pro 7.0.1 by @fontawesome - https://fontawesome.com License - https://fontawesome.com/license (Commercial License) Copyright 2025 Fonticons, Inc. --><path style="fill:var(--fa-secondary-color,currentColor);opacity:var(--fa-secondary-opacity,.4)" d="M272 208l0 256 192 0 0-188.1-67.9-67.9-124.1 0z"/><path style="fill:var(--fa-primary-color,currentColor);opacity:var(--fa-primary-opacity,1)" d="M48 48l256 0 0 64 48 0 0-112-352 0 0 448 176 0 0-48-128 0 0-352zM176 96l-96 0 0 48 96 0 0-48zM464 464l-192 0 0-256 124.1 0 67.9 67.9 0 188.1zM272 160l-48 0 0 352 288 0 0-256-96-96-144 0z"/></svg>