<svg xmlns="http://www.w3.org/2000/svg" viewBox="0 0 320 512"><!--! Font Awesome Pro 7.1.0 by @fontawesome - https://fontawesome.com License - https://fontawesome.com/license (Commercial License) Copyright 2025 Fonticons, Inc. --><path opacity=".4" fill="currentColor" d="M48 176l0 288 224 0 0-288-224 0zM96 344c0-40.8 36-84 64-112 28 28 64 71.2 64 112 0 35.3-28.7 56-64 56s-64-20.7-64-56zM128 48l0 80 64 0 0-80-64 0z"/><path fill="currentColor" d="M128 48l0 80 64 0 0-80-64 0zM80 128l0-128 160 0 0 40 80 0 0 48-80 0 0 40 80 0 0 384-320 0 0-384 80 0zm160 48l-192 0 0 288 224 0 0-288-32 0zM224 344c0 35.3-28.7 56-64 56s-64-20.7-64-56c0-40.8 36-84 64-112 28 28 64 71.2 64 112z"/></svg>