<svg xmlns="http://www.w3.org/2000/svg" viewBox="0 0 512 512"><!--! Font Awesome Pro 7.0.1 by @fontawesome - https://fontawesome.com License - https://fontawesome.com/license (Commercial License) Copyright 2025 Fonticons, Inc. --><path style="fill:var(--fa-secondary-color,currentColor);opacity:var(--fa-secondary-opacity,.4)" d="M48 112l416 0 0 288-416 0 0-288zm48 48l0 192 48 0 0-192-48 0zm80 0l0 192 32 0 0-192-32 0zm64 0l0 192 48 0 0-192-48 0zm80 0l0 192 32 0 0-192-32 0zm64 0l0 192 32 0 0-192-32 0z"/><path style="fill:var(--fa-primary-color,currentColor);opacity:var(--fa-primary-opacity,1)" d="M48 112l0 288 416 0 0-288-416 0zM0 64l512 0 0 384-512 0 0-384zm144 96l0 192-48 0 0-192 48 0zm32 0l32 0 0 192-32 0 0-192zm112 0l0 192-48 0 0-192 48 0zm32 0l32 0 0 192-32 0 0-192zm96 0l0 192-32 0 0-192 32 0z"/></svg>