<svg xmlns="http://www.w3.org/2000/svg" viewBox="0 0 448 512"><!--! Font Awesome Pro 7.0.1 by @fontawesome - https://fontawesome.com License - https://fontawesome.com/license (Commercial License) Copyright 2025 Fonticons, Inc. --><path style="fill:var(--fa-secondary-color,currentColor);opacity:var(--fa-secondary-opacity,.4)" d="M155.9 48L292.1 48 224 116.1 155.9 48zm0 416l68.1-68.1 68.1 68.1-136.2 0z"/><path style="fill:var(--fa-primary-color,currentColor);opacity:var(--fa-primary-opacity,1)" d="M224 184c-11.3-11.3-56.6-56.6-136-136L40 0 408 0c-23 23-73 73-150.1 150.1L224 184zm0-67.9L292.1 48 155.9 48 224 116.1zM0 232l448 0 0 48-448 0 0-48zM190.1 361.9L224 328 408 512 40 512c23-23 73-73 150.1-150.1zM155.9 464l136.2 0-68.1-68.1-68.1 68.1z"/></svg>