<svg xmlns="http://www.w3.org/2000/svg" viewBox="0 0 640 512"><!--! Font Awesome Pro 7.1.0 by @fontawesome - https://fontawesome.com License - https://fontawesome.com/license (Commercial License) Copyright 2025 Fonticons, Inc. --><path opacity=".4" fill="currentColor" d="M91.9 128l36.1-36.1 36.1 36.1-72.2 0zm384 256l72.2 0-36.1 36.1-36.1-36.1z"/><path fill="currentColor" d="M240 136l-112-112-112 112 0 40 88 0 0 304 248 0 0-48-200 0 0-256 88 0 0-40zm-75.9-8L91.9 128 128 91.9 164.1 128zM400 376l8 8c52.7 52.7 87.4 87.4 104 104l112-112 0-40-88 0 0-304-248 0 0 48 200 0 0 256-88 0 0 40zm75.9 8l72.2 0-36.1 36.1-36.1-36.1z"/></svg>