<svg xmlns="http://www.w3.org/2000/svg" viewBox="0 0 512 512"><!--! Font Awesome Pro 7.0.1 by @fontawesome - https://fontawesome.com License - https://fontawesome.com/license (Commercial License) Copyright 2025 Fonticons, Inc. --><path style="fill:var(--fa-secondary-color,currentColor);opacity:var(--fa-secondary-opacity,.4)" d="M60.6 432l82.8-352 88.6 0 0 64 48 0 0-64 88.6 0 82.8 352-171.4 0 0-64-48 0 0 64-171.4 0zM232 192l0 128 48 0 0-128-48 0z"/><path style="fill:var(--fa-primary-color,currentColor);opacity:var(--fa-primary-opacity,1)" d="M60.6 432l171.4 0 0-64 48 0 0 64 171.4 0-82.8-352-88.6 0 0 64-48 0 0-64-88.6 0-82.8 352zM105.4 32l301.2 0 94.1 400 11.3 48-512 0 11.3-48 94.1-400zM280 216l0 104-48 0 0-128 48 0 0 24z"/></svg>