<svg xmlns="http://www.w3.org/2000/svg" viewBox="0 0 512 512"><!--! Font Awesome Pro 7.1.0 by @fontawesome - https://fontawesome.com License - https://fontawesome.com/license (Commercial License) Copyright 2025 Fonticons, Inc. --><path opacity=".4" fill="currentColor" d="M64 428.8l0 35.2 384 0 0-35.2c0-76.2-32-149-88.2-200.5l-74.5-68.3-58.7 0-74.5 68.3C96 279.8 64 352.5 64 428.8zM180.8 48l38.4 64 73.6 0 38.4-64-150.4 0zM188 284.5c0-28.8 23.2-52.2 52-52.5l0-24 40 0 0 24 28 0 0 40-67.5 0c-6.9 0-12.5 5.6-12.5 12.5 0 6.1 4.4 11.3 10.4 12.3l41.7 7c25.3 4.2 43.9 26.1 43.9 51.8 0 26.1-19 47.7-44 51.8l0 24.7-40 0 0-24-44 0 0-40 75.5 0c6.9 0 12.5-5.6 12.5-12.5 0-6.1-4.4-11.3-10.4-12.3l-41.7-7C206.5 332 188 310.1 188 284.5z"/><path fill="currentColor" d="M292.8 112l-73.6 0-38.4-64 150.4 0-38.4 64zm-168-64l54.3 90.5-59.3 54.4C53.6 253.5 16 339.1 16 428.8l0 83.2 480 0 0-83.2c0-89.7-37.6-175.3-103.8-235.9l-59.3-54.4C373.4 71.1 401.1 24.9 416 0L96 0 124.8 48zm27.4 180.3l74.5-68.3 58.7 0 74.5 68.3C416 279.8 448 352.5 448 428.8l0 35.2-384 0 0-35.2c0-76.2 32-149 88.2-200.5zM280 208l-40 0 0 24c-28.8 .3-52 23.7-52 52.5 0 25.7 18.5 47.6 43.9 51.8l41.7 7c6 1 10.4 6.2 10.4 12.3 0 6.9-5.6 12.5-12.5 12.5l-75.5 0 0 40 44 0 0 24 40 0 0-24.7c25-4.1 44-25.7 44-51.8 0-25.7-18.5-47.6-43.9-51.8l-41.7-7c-6-1-10.4-6.2-10.4-12.3 0-6.9 5.6-12.5 12.5-12.5l67.5 0 0-40-28 0 0-24z"/></svg>