<svg xmlns="http://www.w3.org/2000/svg" viewBox="0 0 512 512"><!--! Font Awesome Pro 7.1.0 by @fontawesome - https://fontawesome.com License - https://fontawesome.com/license (Commercial License) Copyright 2025 Fonticons, Inc. --><path opacity=".4" fill="currentColor" d="M64.1 126L256 51.5 447.9 126c.9 40.6-5.9 98.4-28.6 156.2l-5.2 12.6c-28.2 64.9-77.1 127.5-158.1 164.7-75.8-34.8-123.5-91.8-152.4-152.2l-5.7-12.5C71 232.9 63.2 169.5 64.1 126zm85.2 210l213.3 0-26.7-80-160 0-26.7 80zM208 176a48 48 0 1 0 96 0 48 48 0 1 0 -96 0z"/><path fill="currentColor" d="M267.6 4.5l207.5 80.5 19.2 7.4 1.2 20.5c2.9 49.9-4.9 126.3-37.3 200.9L451.7 328C418 398.4 361 466.6 268.7 506.5l-12.7 5.5-12.7-5.5C151.1 466.6 94 398.4 60.3 328l-6.4-14.1c-30.4-70-39.1-141.4-37.7-191.3L16.6 113 17.8 92.5 37 85 244.5 4.5 256 0 267.6 4.5zM64.1 126c-1 43.5 6.9 106.9 33.8 168.8l5.7 12.5c28.9 60.4 76.6 117.4 152.4 152.2 81-37.1 129.9-99.7 158.1-164.7l5.2-12.6c22.7-57.8 29.5-115.7 28.6-156.2L256 51.5 64.1 126zM362.7 336l-213.3 0 26.7-80 160 0 26.7 80zM256 224a48 48 0 1 1 0-96 48 48 0 1 1 0 96z"/></svg>