<svg xmlns="http://www.w3.org/2000/svg" viewBox="0 0 384 512"><!--! Font Awesome Pro 7.1.0 by @fontawesome - https://fontawesome.com License - https://fontawesome.com/license (Commercial License) Copyright 2025 Fonticons, Inc. --><path opacity=".4" fill="currentColor" d="M48 48l217.4 0 70.6 70.6 0 345.4-288 0 0-416zM96 240l0 72 88 0 0-72-88 0zm0 120l0 56 56 0 0-56-56 0zm104 0l0 56 88 0 0-56-88 0zm32-120l0 72 56 0 0-72-56 0z"/><path fill="currentColor" d="M32 0L285.3 0 294.6 9.4 384 98.7 384 512 0 512 0 0 32 0zM48 48l0 416 288 0 0-345.4-70.6-70.6-217.4 0zM96 240l88 0 0 72-88 0 0-72zm0 176l0-56 56 0 0 56-56 0zm192 0l-88 0 0-56 88 0 0 56zM232 312l0-72 56 0 0 72-56 0z"/></svg>