<svg xmlns="http://www.w3.org/2000/svg" viewBox="0 0 384 512"><!--! Font Awesome Pro 7.1.0 by @fontawesome - https://fontawesome.com License - https://fontawesome.com/license (Commercial License) Copyright 2025 Fonticons, Inc. --><path opacity=".4" fill="currentColor" d="M48 224l0 32 288 0 0-32c0-30.9-25.1-56-56-56l-72 0 0-48 59.7 0c2.7-4.7 4.3-10.2 4.3-16l0-8c0-29.6-16.1-55.5-40-69.3-.7 29.6-24.9 53.3-54.7 53.3L140 80c-15.5 0-28 12.5-28 28l0 12 24 0 0 48-37.4 0-5.3 1C67.5 174 48 196.7 48 224z"/><path fill="currentColor" d="M192-32l-44.8 0c18.9 28.4 30.8 46.2 35.7 53.6 .7 1.1 1.1 2.4 1.1 3.7 0 3.7-3 6.7-6.7 6.7L140 32c-42 0-76 34-76 76l0 20C26.4 143.7 0 180.7 0 224l0 80 48 0 0 96 29.9 0 10.2 122 1.8 22 204.2 0 1.8-22 10.2-122 29.9 0 0-96 48 0 0-80c0-44.5-28-82.5-67.3-97.3 2.1-7.2 3.3-14.8 3.3-22.7l0-8c0-70.7-57.3-128-128-128zm96 336l0 48-26.1 0-1.8 22-10.2 122-115.8 0-10.2-122-1.8-22-26.1 0 0-48 192 0zM48 256l0-32c0-27.3 19.5-50 45.3-55l5.3-1 37.4 0 0-48-24 0 0-12c0-15.5 12.5-28 28-28l37.3 0c29.7 0 53.9-23.7 54.7-53.3 23.9 13.8 40 39.7 40 69.3l0 8c0 5.8-1.5 11.3-4.3 16l-59.7 0 0 48 72 0c30.9 0 56 25.1 56 56l0 32-288 0z"/></svg>