<svg xmlns="http://www.w3.org/2000/svg" viewBox="0 0 576 512"><!--! Font Awesome Pro 7.1.0 by @fontawesome - https://fontawesome.com License - https://fontawesome.com/license (Commercial License) Copyright 2025 Fonticons, Inc. --><path opacity=".4" fill="currentColor" d="M80.2 236l50.5-60.6 2.6-3.1 1.4-3.8 31.8-85 27.3 47.8-22.3 63.1-36.4 41.7-55 0zm0 40l55 0 36.4 41.7 22.3 63.1-27.3 47.8-31.8-85-1.4-3.8-2.6-3.1-50.5-60.6zm108.2-40l16-18.2 2.5-2.9 1.3-3.6 12-34.1 33.7 58.9-65.4 0zm0 40l65.4 0-33.7 58.8-12-34.1-1.3-3.6-2.5-2.9-16-18.3zM201.7 64.2l82.1 15.4 4.4 .8 4.4-.8 82.1-15.4-26.6 46.5-60 17.4-60-17.4-26.5-46.5zm0 383.6l26.5-46.4 59.6-17.3 62.3 20.7 24.6 43.1-82.1-15.4-4.4-.8-4.4 .8-82.1 15.4zm55.1-287.2l25.9 7.5 5.6 1.6 5.6-1.6 25.9-7.5-31.5 55.1-31.5-55.1zm0 190.9l31.5-55.1 32.2 56.4-25.9-8.6-5.9-1.9c-.7 .2-11.3 3.2-31.9 9.2zm66-115.4l33.6-58.9 12 34.1 1.3 3.6 2.5 2.9 16 18.2-65.4 0zm0 40l65.4 0-16 18.3-2.6 3-1.3 3.8-11.7 34.3-33.9-59.3zm59.9-144.8l27.3-47.7 31.9 85 1.4 3.8 2.6 3.1 50.5 60.6-55 0-36.5-41.7-22.2-63.1zm.5 250.5l21.8-64.1 36.4-41.6 55 0-50.5 60.6-2.6 3.1-1.4 3.8-31.9 85-26.7-46.8z"/><path fill="currentColor" d="M438.7 23.6l46.6 124.2 77.4 92.9 12.8 15.4-12.8 15.4-77.4 92.9-46.6 124.2-7.1 18.9-19.8-3.7-123.6-23.2-123.6 23.2-19.8 3.7-7.1-18.9-46.6-124.2-77.4-92.9-12.8-15.4 12.8-15.4 77.4-92.9 46.6-124.2 7.1-18.9 19.8 3.7 123.6 23.2 123.6-23.2 19.8-3.7 7.1 18.9zM228.2 401.4l-26.5 46.4 82.1-15.4 4.4-.8 4.4 .8 82.1 15.4-24.6-43.1-62.3-20.7-59.6 17.3zm-97.5-64.7l2.6 3.1 1.4 3.8 31.8 85 27.3-47.8-22.3-63.1-36.4-41.7-55 0 50.5 60.6zM441.3 276l-36.4 41.6-21.8 64.1 26.7 46.8 31.9-85 1.4-3.8 2.6-3.1 50.5-60.6-55 0zM256.8 351.4c20.6-5.9 31.3-9 31.9-9.2l5.9 1.9 25.9 8.6-32.2-56.4-31.5 55.1zm66-75.4l33.9 59.3 11.7-34.3 1.3-3.8 2.6-3 16-18.3-65.4 0zM204.3 294.3l2.5 2.9 1.3 3.6 12 34.1 33.7-58.8-65.4 0 16 18.3zM382.6 131.2l22.2 63.1 36.5 41.7 55 0-50.5-60.6-2.6-3.1-1.4-3.8-31.9-85-27.3 47.7zM322.7 236l65.4 0-16-18.2-2.5-2.9-1.3-3.6-12-34.1-33.6 58.9zm-188-67.6l-1.4 3.8-2.6 3.1-50.5 60.6 55 0 36.4-41.7 22.3-63.1-27.3-47.8-31.8 85zm73.4 42.8l-1.3 3.6-2.5 2.9-16 18.2 65.4 0-33.7-58.9-12 34.1zm85.7-43.2l-5.6 1.6-5.6-1.6-25.9-7.5 31.5 55.1 31.5-55.1-25.9 7.5zm-1.1-88.5l-4.4 .8-4.4-.8-82.1-15.4 26.5 46.5 60 17.4 60-17.4 26.6-46.5-82.1 15.4z"/></svg>