<svg xmlns="http://www.w3.org/2000/svg" viewBox="0 0 448 512"><!--! Font Awesome Pro 7.0.1 by @fontawesome - https://fontawesome.com License - https://fontawesome.com/license (Commercial License) Copyright 2025 Fonticons, Inc. --><path style="fill:var(--fa-secondary-color,currentColor);opacity:var(--fa-secondary-opacity,.4)" d="M48 80l352 0 0 352-352 0 0-352zM149.6 213.2l42.4 0c0-17.7 14.3-32 32-32s32 14.3 32 32c0 26.9-28.8 31-49.9 34l-3.3 .5 0 53.5 42.4 0 0-18.3c30.4-10.6 53.2-36.1 53.2-69.6 0-41.1-33.3-74.4-74.4-74.4s-74.4 33.3-74.4 74.4zM200 328l0 48 48 0 0-48-48 0z"/><path style="fill:var(--fa-primary-color,currentColor);opacity:var(--fa-primary-opacity,1)" d="M48 80l0 352 352 0 0-352-352 0zM0 32l448 0 0 448-448 0 0-448zM224 181.2c-17.7 0-32 14.3-32 32l-42.4 0c0-41.1 33.3-74.4 74.4-74.4s74.4 33.3 74.4 74.4c0 33.5-22.8 59-53.2 69.6l0 18.3-42.4 0 0-53.5 3.3-.5c21.1-3 49.9-7.1 49.9-34 0-17.7-14.3-32-32-32zM200 328l48 0 0 48-48 0 0-48z"/></svg>