<svg xmlns="http://www.w3.org/2000/svg" viewBox="0 0 448 512"><!--! Font Awesome Pro 7.0.1 by @fontawesome - https://fontawesome.com License - https://fontawesome.com/license (Commercial License) Copyright 2025 Fonticons, Inc. --><path style="fill:var(--fa-secondary-color,currentColor);opacity:var(--fa-secondary-opacity,.4)" d="M48 80l352 0 0 352-352 0 0-352zm64 152l0 48 224 0 0-48-224 0zm80-104l0 64 64 0 0-64-64 0zm0 192l0 64 64 0 0-64-64 0z"/><path style="fill:var(--fa-primary-color,currentColor);opacity:var(--fa-primary-opacity,1)" d="M48 80l0 352 352 0 0-352-352 0zM0 32l448 0 0 448-448 0 0-448zm256 96l0 64-64 0 0-64 64 0zM136 232l200 0 0 48-224 0 0-48 24 0zm56 88l64 0 0 64-64 0 0-64z"/></svg>