<svg xmlns="http://www.w3.org/2000/svg" viewBox="0 0 448 512"><!--! Font Awesome Pro 7.1.0 by @fontawesome - https://fontawesome.com License - https://fontawesome.com/license (Commercial License) Copyright 2025 Fonticons, Inc. --><path opacity=".4" fill="currentColor" d="M48 80l352 0 0 352-352 0 0-352zm56 180c0 28.6 9.7 55 26 76l-18 0 0 48 224 0 0-48-108 0c-42 0-76-34-76-76 0-28.9 16.2-54.1 40-66.9l0 46.9 32 0 0-55.9c1.3-.1 2.7-.1 4-.1 4.1 0 8.1 .3 12 .9l0 55.1 32 0 0-42c15.4 11 26.6 27.5 30.5 46.7l2.3 11.2 49 0-4.2-20.8c-8.5-42-38.2-76.3-77.5-91.2l0-32-32 0 0 24.6c-3.9-.4-8-.6-12-.6-1.3 0-2.7 0-4 .1l0-24.1-32 0 0 29.3C141.1 156.7 104 204 104 260z"/><path fill="currentColor" d="M48 80l0 352 352 0 0-352-352 0zM0 32l448 0 0 448-448 0 0-448zM224 136.1c1.3 0 2.7-.1 4-.1 4 0 8.1 .2 12 .6l0-24.6 32 0 0 32c39.3 14.9 69 49.2 77.5 91.2l4.2 20.8-49 0-2.3-11.2C298.6 225.6 287.4 209 272 198l0 42-32 0 0-55.1c-3.9-.6-7.9-.9-12-.9-1.3 0-2.7 0-4 .1l0 55.9-32 0 0-46.9c-23.8 12.8-40 38-40 66.9 0 42 34 76 76 76l108 0 0 48-224 0 0-48 18 0c-16.3-21-26-47.4-26-76 0-56 37.1-103.3 88-118.7l0-29.3 32 0 0 24.1z"/></svg>