<svg xmlns="http://www.w3.org/2000/svg" viewBox="0 0 448 512"><!--! Font Awesome Pro 7.0.0 by @fontawesome - https://fontawesome.com License - https://fontawesome.com/license (Commercial License) Copyright 2025 Fonticons, Inc. --><path style="fill:var(--fa-secondary-color,currentColor);opacity:var(--fa-secondary-opacity,.4)" d="M48 80l352 0 0 352-352 0 0-352zm152 64l0 144 48 0 0-144-48 0zm0 184l0 48 48 0 0-48-48 0z"/><path style="fill:var(--fa-primary-color,currentColor);opacity:var(--fa-primary-opacity,1)" d="M48 80l0 352 352 0 0-352-352 0zM0 32l448 0 0 448-448 0 0-448zM248 144l0 144-48 0 0-144 48 0zM200 328l48 0 0 48-48 0 0-48z"/></svg>