<svg xmlns="http://www.w3.org/2000/svg" viewBox="0 0 448 512"><!--! Font Awesome Pro 7.0.1 by @fontawesome - https://fontawesome.com License - https://fontawesome.com/license (Commercial License) Copyright 2025 Fonticons, Inc. --><path style="fill:var(--fa-secondary-color,currentColor);opacity:var(--fa-secondary-opacity,.4)" d="M48 80l352 0 0 352-352 0 0-352zM62.1 208L96 241.9c10.3-10.3 23.6-23.6 40-40l0 118.1 48 0 0-118.1c5.5 5.5 35.2 35.2 40 40 11.3-11.3 22.6-22.6 33.9-33.9l6.1-6.1 0 118.1 48 0 0-118.1c16.4 16.4 29.7 29.7 40 40L385.9 208c-3.5-3.5-30.5-30.5-81-81l-17-17c-6.3 6.3-27.6 27.6-64 64l-64-64c-3.5 3.5-30.5 30.5-81 81l-17 17zM96 352l0 48 256 0 0-48-256 0z"/><path style="fill:var(--fa-primary-color,currentColor);opacity:var(--fa-primary-opacity,1)" d="M48 80l0 352 352 0 0-352-352 0zM0 32l448 0 0 448-448 0 0-448zM352 400l-256 0 0-48 256 0 0 48zM62.1 208c3.5-3.5 30.5-30.5 81-81l17-17 64 64c36.4-36.4 57.7-57.7 64-64 3.5 3.5 30.5 30.5 81 81l17 17-33.9 33.9c-10.3-10.3-23.6-23.6-40-40l0 118.1-48 0 0-118.1c-5.4 5.5-35.2 35.2-40 40-11.3-11.3-22.6-22.6-33.9-33.9l-6.1-6.1 0 118.1-48 0 0-118.1c-16.4 16.4-29.7 29.7-40 40L62.1 208z"/></svg>