<svg xmlns="http://www.w3.org/2000/svg" viewBox="0 0 448 512"><!--! Font Awesome Pro 7.1.0 by @fontawesome - https://fontawesome.com License - https://fontawesome.com/license (Commercial License) Copyright 2025 Fonticons, Inc. --><path opacity=".4" fill="currentColor" d="M48 80l352 0 0 352-352 0 0-352zm48 80l0 8c0 119.3 96.7 216 216 216l8 0 32-64-64-48.4-32 32.4c-35.2-16.5-63.5-44.8-80-80l32.4-32-48.4-64-64 32z"/><path fill="currentColor" d="M48 80l0 352 352 0 0-352-352 0zM0 32l448 0 0 448-448 0 0-448zm160 96l48.4 64-32.4 32c16.5 35.2 44.8 63.5 80 80l32-32.4 64 48.4-32 64-8 0C192.7 384 96 287.3 96 168l0-8 64-32z"/></svg>