<svg xmlns="http://www.w3.org/2000/svg" viewBox="0 0 448 512"><!--! Font Awesome Pro 7.1.0 by @fontawesome - https://fontawesome.com License - https://fontawesome.com/license (Commercial License) Copyright 2025 Fonticons, Inc. --><path opacity=".4" fill="currentColor" d="M48 80l352 0 0 352-352 0 0-352zm48 48l0 256 48 0 0-62.1 15.8-15.8c27.4 50.8 42.9 79.6 46.5 86.3l42.3-22.8-53.3-99c28.6-28.6 46.9-46.9 54.7-54.7L216 182.1c-5 5-29 29-72 72l0-126.1-48 0zm160 64l0 192 48 0 0-105.4c0-8.1 3.2-15.9 9-21.7s13.5-9 21.7-9l33.4 0 0-48-33.4 0c-10.6 0-21 2.2-30.6 6.2l0-14.2-48 0z"/><path fill="currentColor" d="M48 80l0 352 352 0 0-352-352 0zM0 32l448 0 0 448-448 0 0-448zm144 96l0 126.1c43-43 67-67 72-72L249.9 216c-7.8 7.8-26.1 26.1-54.7 54.7l53.3 99-42.3 22.8c-3.6-6.7-19.1-35.5-46.5-86.3l-15.8 15.8 0 62.1-48 0 0-256 48 0zm160 78.2c9.6-4.1 20-6.2 30.6-6.2l33.4 0 0 48-33.4 0c-8.1 0-15.9 3.2-21.7 9s-9 13.5-9 21.7l0 105.4-48 0 0-192 48 0 0 14.2z"/></svg>