<svg xmlns="http://www.w3.org/2000/svg" viewBox="0 0 512 512"><!--! Font Awesome Pro 7.1.0 by @fontawesome - https://fontawesome.com License - https://fontawesome.com/license (Commercial License) Copyright 2025 Fonticons, Inc. --><path opacity=".4" fill="currentColor" d="M48 112l0 288 416 0 0-288-416 0zM96 216c0-30.9 25.1-56 56-56l80 0 0 48-80 0c-4.4 0-8 3.6-8 8l0 8c0 4.4 3.6 8 8 8l32 0c30.9 0 56 25.1 56 56l0 8c0 30.9-25.1 56-56 56l-80 0 0-48 80 0c4.4 0 8-3.6 8-8l0-8c0-4.4-3.6-8-8-8l-32 0c-30.9 0-56-25.1-56-56l0-8zm176-56l72 0c39.8 0 72 32.2 72 72l0 48c0 39.8-32.2 72-72 72l-72 0 0-192zm48 48l0 96 24 0c13.3 0 24-10.7 24-24l0-48c0-13.3-10.7-24-24-24l-24 0z"/><path fill="currentColor" d="M464 112l0 288-416 0 0-288 416 0zM48 64l-48 0 0 384 512 0 0-384-464 0zM96 216l0 8c0 30.9 25.1 56 56 56l32 0c4.4 0 8 3.6 8 8l0 8c0 4.4-3.6 8-8 8l-80 0 0 48 80 0c30.9 0 56-25.1 56-56l0-8c0-30.9-25.1-56-56-56l-32 0c-4.4 0-8-3.6-8-8l0-8c0-4.4 3.6-8 8-8l80 0 0-48-80 0c-30.9 0-56 25.1-56 56zm200-56l-24 0 0 192 72 0c39.8 0 72-32.2 72-72l0-48c0-39.8-32.2-72-72-72l-48 0zm24 144l0-96 24 0c13.3 0 24 10.7 24 24l0 48c0 13.3-10.7 24-24 24l-24 0z"/></svg>