<svg xmlns="http://www.w3.org/2000/svg" viewBox="0 0 640 512"><!--! Font Awesome Pro 7.1.0 by @fontawesome - https://fontawesome.com License - https://fontawesome.com/license (Commercial License) Copyright 2025 Fonticons, Inc. --><path opacity=".4" fill="currentColor" d="M56 112l0 2.3 72-82.3-72 80zm72-80l72 82.3 0-2.3-72-80zM440 397.7l0 2.3 72 80-72-82.3zM512 480l72-80 0-2.3-72 82.3z"/><path fill="currentColor" d="M128 32l-112 128 88 0 0 320 240 0 0-400 144 0 0 272-88 0 112 128 112-128-88 0 0-320-240 0 0 400-144 0 0-272 88 0-112-128z"/></svg>