<svg xmlns="http://www.w3.org/2000/svg" viewBox="0 0 512 512"><!--! Font Awesome Pro 7.1.0 by @fontawesome - https://fontawesome.com License - https://fontawesome.com/license (Commercial License) Copyright 2025 Fonticons, Inc. --><path opacity=".4" fill="currentColor" d="M48 304l128 0 0 96c0 35.3-28.7 64-64 64s-64-28.7-64-64l0-96zm40 96a24 24 0 1 0 48 0 24 24 0 1 0 -48 0zm121.9 64c42.7-42.7 85.3-85.3 128-128l126.1 0 0 128-254.1 0zM224 193.9c32-32 64-64 96-96 31.4 31.4 62.7 62.7 94.1 94.1-63.4 63.4-126.7 126.7-190.1 190.1l0-188.1z"/><path fill="currentColor" d="M0 400c0 61.9 50.1 112 112 112l400 0 0-224-58.2 0-48 48 58.2 0 0 128-254.1 0 255-255 17-17-17-17-128-128-17-17c-9 9-25 25-48 48L272 145.9 320 97.9 414.1 192 224 382.1 224 0 0 0 0 400zm112 64c-35.3 0-64-28.7-64-64l0-96 128 0 0 96c0 35.3-28.7 64-64 64zM48 256l0-80 128 0 0 80-128 0zm0-128l0-80 128 0 0 80-128 0zm64 296a24 24 0 1 0 0-48 24 24 0 1 0 0 48z"/></svg>