<svg xmlns="http://www.w3.org/2000/svg" viewBox="0 0 448 512"><!--! Font Awesome Pro 7.0.1 by @fontawesome - https://fontawesome.com License - https://fontawesome.com/license (Commercial License) Copyright 2025 Fonticons, Inc. --><path style="fill:var(--fa-secondary-color,currentColor);opacity:var(--fa-secondary-opacity,.4)" d="M48 216l0 216 88 0 0-216-88 0zm136 0l0 216 80 0 0-216-80 0zm128 0l0 216 88 0 0-216-88 0z"/><path style="fill:var(--fa-primary-color,currentColor);opacity:var(--fa-primary-opacity,1)" d="M0 168l0 312 448 0 0-448-448 0 0 136zm312 48l88 0 0 216-88 0 0-216zm-48 0l0 216-80 0 0-216 80 0zM48 432l0-216 88 0 0 216-88 0z"/></svg>