<svg xmlns="http://www.w3.org/2000/svg" viewBox="0 0 512 512"><!--! Font Awesome Pro 7.1.0 by @fontawesome - https://fontawesome.com License - https://fontawesome.com/license (Commercial License) Copyright 2025 Fonticons, Inc. --><path opacity=".4" fill="currentColor" d="M67.9 416l80-80-67.9-67.9 0-56.3 17-17 169.7 169.7c-13.4 18.7-22.3 40.8-25.4 64.8l-65.2-65.2-80 80-28.1-28.1zm63-255l67.4-67.4 5.6-5.3C232.5 62.4 269.7 48 308.3 48l8 .2c79.6 4 143.4 67.9 147.5 147.5l.2 8c0 38.7-14.4 75.9-40.3 104.5l-1.1 1.1c-12.3-3.4-25.2-5.2-38.6-5.2-31.1 0-59.9 9.9-83.4 26.7L130.9 161z"/><path fill="currentColor" d="M384 544a96 96 0 1 1 0-192 96 96 0 1 1 0 192zM318.8 .2C426.4 5.7 512 94.7 512 203.7l-.2 10.1c-2.1 42.8-17.7 83.6-44.3 116.9-13.4-9.6-28.5-16.9-44.8-21.4l1.1-1.1c25.9-28.6 40.3-65.8 40.3-104.5l-.2-8c-4-79.6-67.9-143.4-147.5-147.5l-8-.2c-38.7 0-75.9 14.4-104.4 40.3l-5.6 5.3-67.4 67.4 169.7 169.7c-13.1 9.3-24.6 20.8-34 33.9l-169.7-169.7-17 17 0 56.3 67.9 67.9-80 80 28.1 28.1 80-80 65.2 65.2c-.8 6.1-1.2 12.3-1.2 18.7 0 11 1.3 21.7 3.6 32l-19.6 0-48-48-80 80-96-96 80-80-48-48 0-96 132.4-132.3C202.6 21.5 254.3 0 308.3 0l10.5 .2zM384 400a48 48 0 1 0 0 96 48 48 0 1 0 0-96z"/></svg>