<svg xmlns="http://www.w3.org/2000/svg" viewBox="0 0 448 512"><!--! Font Awesome Pro 7.0.1 by @fontawesome - https://fontawesome.com License - https://fontawesome.com/license (Commercial License) Copyright 2025 Fonticons, Inc. --><path style="fill:var(--fa-secondary-color,currentColor);opacity:var(--fa-secondary-opacity,.4)" d="M184 80l0 88 216 0 0-88-216 0zm0 136l0 80 216 0 0-80-216 0zm0 128l0 88 216 0 0-88-216 0z"/><path style="fill:var(--fa-primary-color,currentColor);opacity:var(--fa-primary-opacity,1)" d="M136 480l312 0 0-448-448 0 0 448 136 0zm48-312l0-88 216 0 0 88-216 0zm0 48l216 0 0 80-216 0 0-80zM400 432l-216 0 0-88 216 0 0 88z"/></svg>