<svg xmlns="http://www.w3.org/2000/svg" viewBox="0 0 448 512"><!--! Font Awesome Pro 7.0.1 by @fontawesome - https://fontawesome.com License - https://fontawesome.com/license (Commercial License) Copyright 2025 Fonticons, Inc. --><path style="fill:var(--fa-secondary-color,currentColor);opacity:var(--fa-secondary-opacity,.4)" d="M80 192l0 272 288 0 0-272c0-79.5-64.5-144-144-144S80 112.5 80 192zm48 0l72 0 0-64 48 0 0 64 72 0 0 48-72 0 0 144-48 0 0-144-72 0 0-48z"/><path style="fill:var(--fa-primary-color,currentColor);opacity:var(--fa-primary-opacity,1)" d="M368 464l-288 0 0-272c0-79.5 64.5-144 144-144s144 64.5 144 144l0 272zM32 192l0 272-32 0 0 48 448 0 0-48-32 0 0-272C416 86 330 0 224 0S32 86 32 192zm216-40l0-24-48 0 0 64-72 0 0 48 72 0 0 144 48 0 0-144 72 0 0-48-72 0 0-40z"/></svg>