<svg xmlns="http://www.w3.org/2000/svg" viewBox="0 0 384 512"><!--! Font Awesome Pro 7.1.0 by @fontawesome - https://fontawesome.com License - https://fontawesome.com/license (Commercial License) Copyright 2025 Fonticons, Inc. --><path opacity=".4" fill="currentColor" d="M48 432l0 64 48 0 0-64-48 0zm64-320l0 272 160 0 0-272-160 0zm32 320l0 64 96 0 0-64-96 0zm144 0l0 64 48 0 0-64-48 0z"/><path fill="currentColor" d="M160 64l64 0 0-96 48 0 0 96 48 0 0 320 64 0 0 160-384 0 0-160 64 0 0-320 48 0 0-96 48 0 0 96zM48 496l48 0 0-64-48 0 0 64zm96 0l96 0 0-64-96 0 0 64zm144 0l48 0 0-64-48 0 0 64zM112 384l160 0 0-272-160 0 0 272z"/></svg>