<svg xmlns="http://www.w3.org/2000/svg" viewBox="0 0 448 512"><!--! Font Awesome Pro 7.1.0 by @fontawesome - https://fontawesome.com License - https://fontawesome.com/license (Commercial License) Copyright 2025 Fonticons, Inc. --><path opacity=".4" fill="currentColor" d="M80 144l0 320 288 0 0-320-288 0zm48 120l72 0 0-72 48 0 0 72 72 0 0 48-72 0 0 72-48 0 0-72-72 0 0-48z"/><path fill="currentColor" d="M304-16l-160 0-24 64-120 0 0 48 448 0 0-48-120 0-24-64zM32 144l0 368 384 0 0-368-48 0 0 320-288 0 0-320-48 0zM200 384l48 0 0-72 72 0 0-48-72 0 0-72-48 0 0 72-72 0 0 48 72 0 0 72z"/></svg>