<svg xmlns="http://www.w3.org/2000/svg" viewBox="0 0 576 512"><!--! Font Awesome Pro 7.0.1 by @fontawesome - https://fontawesome.com License - https://fontawesome.com/license (Commercial License) Copyright 2025 Fonticons, Inc. --><path style="fill:var(--fa-secondary-color,currentColor);opacity:var(--fa-secondary-opacity,.4)" d=""/><path style="fill:var(--fa-primary-color,currentColor);opacity:var(--fa-primary-opacity,1)" d="M312 27.8L389.3 168.8 520 38.1 553.9 72 340.7 285.2c2.1 5.9 3.3 12.2 3.3 18.8 0 30.9-25.1 56-56 56s-56-25.1-56-56 25.1-56 56-56c6.6 0 12.9 1.2 18.7 3.3L353.9 204.1 288 83.8 97.1 432 478.9 432 402 291.8 437.4 256.4 560 480 16 480 264 27.8 264-32 312-32 312 27.8z"/></svg>