<svg xmlns="http://www.w3.org/2000/svg" viewBox="0 0 576 512"><!--! Font Awesome Pro 7.0.1 by @fontawesome - https://fontawesome.com License - https://fontawesome.com/license (Commercial License) Copyright 2025 Fonticons, Inc. --><path style="fill:var(--fa-secondary-color,currentColor);opacity:var(--fa-secondary-opacity,.4)" d="M97.1 432L288 83.8 478.9 432 97.1 432zM256 192l12.8 120 38.4 0 12.8-120-64 0zm4 148l0 56 56 0 0-56-56 0z"/><path style="fill:var(--fa-primary-color,currentColor);opacity:var(--fa-primary-opacity,1)" d="M560 480L16 480 288-16 560 480zM97.1 432L478.9 432 288 83.8 97.1 432zM316 396l-56 0 0-56 56 0 0 56zm-8.8-84l-38.4 0-12.8-120 64 0-12.8 120z"/></svg>