<svg xmlns="http://www.w3.org/2000/svg" viewBox="0 0 384 512"><!--! Font Awesome Pro 7.0.1 by @fontawesome - https://fontawesome.com License - https://fontawesome.com/license (Commercial License) Copyright 2025 Fonticons, Inc. --><path style="fill:var(--fa-secondary-color,currentColor);opacity:var(--fa-secondary-opacity,.4)" d="M115.9 112l44.1 0 0 384 64 0 0-384 44.1 0-76.1-76.1-76.1 76.1z"/><path style="fill:var(--fa-primary-color,currentColor);opacity:var(--fa-primary-opacity,1)" d="M336 112l48 48-112 0 0 384-160 0 0-384-112 0C21.7 138.3 74.4 85.6 158.1 1.9L192-32c9.9 9.9 58 58 144 144zm-67.9 0l-76.1-76.1-76.1 76.1 44.1 0 0 384 64 0 0-384 44.1 0z"/></svg>