<svg xmlns="http://www.w3.org/2000/svg" viewBox="0 0 576 512"><!--! Font Awesome Pro 7.1.0 by @fontawesome - https://fontawesome.com License - https://fontawesome.com/license (Commercial License) Copyright 2025 Fonticons, Inc. --><path opacity=".4" fill="currentColor" d="M80 112l0 288 288 0 0-288-288 0zm48 80l48 0 0 78.1 103-103 17-17 33.9 33.9-17 17-103 103 78.1 0 0 48-160 0 0-160zm336 36.4l0 55.3 64 42.7 0-140.6-64 42.7z"/><path fill="currentColor" d="M368 112l0 288-288 0 0-288 288 0zM80 64l-48 0 0 384 384 0 0-384-336 0zM464 341.3c45.3 30.2 82.7 55.1 112 74.7l0-320c-29.3 19.6-66.7 44.4-112 74.7l0 57.7 64-42.7 0 140.6-64-42.7 0 57.7zM264 304l-54.1 0 103-103 17-17-33.9-33.9-17 17-103 103 0-78.1-48 0 0 160 160 0 0-48-24 0z"/></svg>