<svg xmlns="http://www.w3.org/2000/svg" viewBox="0 0 640 512"><!--! Font Awesome Pro 7.0.1 by @fontawesome - https://fontawesome.com License - https://fontawesome.com/license (Commercial License) Copyright 2025 Fonticons, Inc. --><path style="fill:var(--fa-secondary-color,currentColor);opacity:var(--fa-secondary-opacity,.4)" d="M48 240a96 96 0 1 0 192 0 96 96 0 1 0 -192 0zm352 0a96 96 0 1 0 192 0 96 96 0 1 0 -192 0z"/><path style="fill:var(--fa-primary-color,currentColor);opacity:var(--fa-primary-opacity,1)" d="M144 144a96 96 0 1 1 0 192 96 96 0 1 1 0-192zM251.3 336c22.8-25.5 36.7-59.1 36.7-96 0-79.5-64.5-144-144-144S0 160.5 0 240 64.5 384 144 384l352 0c79.5 0 144-64.5 144-144S575.5 96 496 96 352 160.5 352 240c0 36.9 13.9 70.5 36.7 96l-137.3 0zM496 144a96 96 0 1 1 0 192 96 96 0 1 1 0-192z"/></svg>