<svg xmlns="http://www.w3.org/2000/svg" viewBox="0 0 576 512"><!--! Font Awesome Pro 7.0.1 by @fontawesome - https://fontawesome.com License - https://fontawesome.com/license (Commercial License) Copyright 2025 Fonticons, Inc. --><path style="fill:var(--fa-secondary-color,currentColor);opacity:var(--fa-secondary-opacity,.4)" d="M48 144l480 0 0 224-134.1 0-65-65-7-7-67.9 0-7 7-65 65-134.1 0 0-224zm64 104a56 56 0 1 0 112 0 56 56 0 1 0 -112 0zm240 0a56 56 0 1 0 112 0 56 56 0 1 0 -112 0z"/><path style="fill:var(--fa-primary-color,currentColor);opacity:var(--fa-primary-opacity,1)" d="M0 96l576 0 0 320-201.9 0-7-7-65-65-28.1 0-65 65-7 7-201.9 0 0-320zm48 48l0 224 134.1 0 65-65 7-7 67.9 0 7 7 65 65 134.1 0 0-224-480 0zm64 104a56 56 0 1 1 112 0 56 56 0 1 1 -112 0zm296-56a56 56 0 1 1 0 112 56 56 0 1 1 0-112z"/></svg>