<svg xmlns="http://www.w3.org/2000/svg" viewBox="0 0 512 512"><!--! Font Awesome Pro 7.1.0 by @fontawesome - https://fontawesome.com License - https://fontawesome.com/license (Commercial License) Copyright 2025 Fonticons, Inc. --><path opacity=".4" fill="currentColor" d="M1 340.2l17.8 44.6c2.7-1.1 41.8-16.7 117.4-47l111.1 44.4 8.9 3.6 8.9-3.6 111.1-44.4c75.5 30.2 114.6 45.9 117.4 46.9 5.9-14.8 11.9-29.7 17.8-44.6l0 128c-7.4-3-14.8-5.9-22.3-8.9-34.7-13.9-69.3-27.7-104-41.6-3-1.2-5.9-2.4-8.9-3.6-3 1.2-5.9 2.4-8.9 3.6-37 14.8-74.1 29.6-111.1 44.4-37-14.8-74.1-29.6-111.1-44.4-3-1.2-5.9-2.4-8.9-3.6-3 1.2-5.9 2.4-8.9 3.6-34.7 13.9-69.3 27.7-104 41.6-7.4 3-14.9 5.9-22.3 8.9 0-42.7 0-85.3 0-128z"/><path fill="currentColor" d="M280.2 216l0 24-48 0 0-158.1-64 64-33.9-33.9 17-17 88-88 17-17 17 17 88 88 17 17-33.9 33.9c-6.3-6.3-27.6-27.6-64-64l0 134.1zm-144 70.2l8.9 3.6 111.1 44.4 111.1-44.4 8.9-3.6 8.9 3.6 104 41.6 22.3 8.9-17.8 44.6c-2.7-1.1-41.9-16.7-117.4-46.9l-111.1 44.4-8.9 3.6-8.9-3.6-111.1-44.4c-75.5 30.2-114.7 45.9-117.4 47L1 340.2c1.2-.5 43.3-17.3 126.3-50.5l8.9-3.6zm0 128l8.9 3.6 111.1 44.4 111.1-44.4 8.9-3.6 8.9 3.6 104 41.6 22.3 8.9-17.8 44.6c-2.7-1.1-41.9-16.7-117.4-46.9l-111.1 44.4-8.9 3.6-8.9-3.6-111.1-44.4c-75.5 30.2-114.7 45.9-117.4 47L1 468.2c1.2-.5 43.3-17.3 126.3-50.5l8.9-3.6z"/></svg>