<svg xmlns="http://www.w3.org/2000/svg" viewBox="0 0 448 512"><!--! Font Awesome Pro 7.0.1 by @fontawesome - https://fontawesome.com License - https://fontawesome.com/license (Commercial License) Copyright 2025 Fonticons, Inc. --><path style="fill:var(--fa-secondary-color,currentColor);opacity:var(--fa-secondary-opacity,.4)" d="M48 272l352 0 0 72c0 48.6-39.4 88-88 88l-176 0c-48.6 0-88-39.4-88-88l0-72z"/><path style="fill:var(--fa-primary-color,currentColor);opacity:var(--fa-primary-opacity,1)" d="M24 32L0 32 0 344c0 75.1 60.9 136 136 136l176 0c75.1 0 136-60.9 136-136l0-312-424 0zM48 224l0-144 352 0 0 144-352 0zm0 48l352 0 0 72c0 48.6-39.4 88-88 88l-176 0c-48.6 0-88-39.4-88-88l0-72z"/></svg>