<svg xmlns="http://www.w3.org/2000/svg" viewBox="0 0 448 512"><!--! Font Awesome Pro 7.0.1 by @fontawesome - https://fontawesome.com License - https://fontawesome.com/license (Commercial License) Copyright 2025 Fonticons, Inc. --><path style="fill:var(--fa-secondary-color,currentColor);opacity:var(--fa-secondary-opacity,.4)" d="M80 48l0 184 120 0 0-184-120 0zm0 232l0 184 120 0 0-184-120 0zM248 48l0 184 120 0 0-184-120 0zm0 232l0 184 120 0 0-184-120 0z"/><path style="fill:var(--fa-primary-color,currentColor);opacity:var(--fa-primary-opacity,1)" d="M416 464l32 0 0 48-448 0 0-48 32 0 0-464 384 0 0 464zM80 464l120 0 0-184-120 0 0 184zm0-232l120 0 0-184-120 0 0 184zm168 48l0 184 120 0 0-184-120 0zm120-48l0-184-120 0 0 184 120 0z"/></svg>