<svg xmlns="http://www.w3.org/2000/svg" viewBox="0 0 448 512"><!--! Font Awesome Pro 7.0.1 by @fontawesome - https://fontawesome.com License - https://fontawesome.com/license (Commercial License) Copyright 2025 Fonticons, Inc. --><path style="fill:var(--fa-secondary-color,currentColor);opacity:var(--fa-secondary-opacity,.4)" d="M80 48l0 192 120 0 0-192-120 0zm168 0l0 192 120 0 0-192-120 0z"/><path style="fill:var(--fa-primary-color,currentColor);opacity:var(--fa-primary-opacity,1)" d="M368 240l-120 0 0-192 120 0 0 192zm-168 0l-120 0 0-192 120 0 0 192zM32 0l0 288 384 0 0-288-384 0zM24 464l-24 0 0 48 448 0 0-48-32 0 0-128-48 0 0 128-288 0 0-128-48 0 0 128-8 0z"/></svg>