<svg xmlns="http://www.w3.org/2000/svg" viewBox="0 0 560 560"><!--! Font Awesome Pro 7.1.0 by @fontawesome - https://fontawesome.com License - https://fontawesome.com/license (Commercial License) Copyright 2025 Fonticons, Inc. --><path fill="currentColor" d="M0 0l0 252 252 0 42-42-63.8-63.8c-8.2-8.2-8.2-21.5 0-29.7s21.5-8.2 29.7 0l78.7 78.7c8.2 8.2 8.2 21.5 0 29.7l-63 63c-3.9 3.9-9.3 6.2-14.8 6.2L.3 294C7.6 442.1 130.1 560 280 560 434.6 560 560 434.6 560 280S434.6 0 280 0C224.2 0 172.2 16.3 128.5 44.5L42-42 0 0z"/></svg>