<svg xmlns="http://www.w3.org/2000/svg" viewBox="0 0 560 560"><!--! Font Awesome Pro 7.1.0 by @fontawesome - https://fontawesome.com License - https://fontawesome.com/license (Commercial License) Copyright 2025 Fonticons, Inc. --><path fill="currentColor" d="M28 56l220.6 0 56.8 56.8-180.3 180.3c-8.2 8.2-8.2 21.5 0 29.7l112 112c8.2 8.2 21.5 8.2 29.7 0l63-63c8.2-8.2 8.2-21.5 0-29.7s-21.5-8.2-29.7 0L252 390.3 169.7 308 350 127.7c8.2-8.2 8.2-21.5 0-29.7l-56-56 42-42 224 0 0 224-42 42-56-56c-8.2-8.2-21.5-8.2-29.7 0s-8.2 21.5 0 29.7l71.7 71.7 0 220.6-476 0 0-476z"/></svg>