<svg xmlns="http://www.w3.org/2000/svg" viewBox="0 0 504 560"><!--! Font Awesome Pro 7.1.0 by @fontawesome - https://fontawesome.com License - https://fontawesome.com/license (Commercial License) Copyright 2025 Fonticons, Inc. --><path fill="currentColor" d="M84.3 149.1L252 0 419.7 149.1C473.3 196.7 504 265.1 504 336.8 504 475.5 390.7 588 252 588S0 475.5 0 336.8c0-71.8 30.7-140.1 84.3-187.7zM126 336c0-11.6-9.4-21-21-21s-21 9.4-21 21c0 92.8 75.2 168 168 168 11.6 0 21-9.4 21-21s-9.4-21-21-21c-69.6 0-126-56.4-126-126z"/></svg>