<svg xmlns="http://www.w3.org/2000/svg" viewBox="0 0 504 560"><!--! Font Awesome Pro 7.1.0 by @fontawesome - https://fontawesome.com License - https://fontawesome.com/license (Commercial License) Copyright 2025 Fonticons, Inc. --><path fill="currentColor" d="M252 379l-87 87 66 66-231 0 0-231 66 66 57.3-57.3 36.9 36.9c8.2 8.2 21.5 8.2 29.7 0s8.2-21.5 0-29.7l-124.9-124.9-65 67 0-231 224 0-61.5 63.5 89.5 89.5 87-87-66-66 231 0 0 231-66-66-57.3 57.3-36.9-36.9c-8.2-8.2-21.5-8.2-29.7 0s-8.2 21.5 0 29.7l124.9 124.9 65-67 0 231-224 0 61.5-63.5-89.5-89.5z"/></svg>