<svg xmlns="http://www.w3.org/2000/svg" viewBox="0 0 448 560"><!--! Font Awesome Pro 7.1.0 by @fontawesome - https://fontawesome.com License - https://fontawesome.com/license (Commercial License) Copyright 2025 Fonticons, Inc. --><path fill="currentColor" d="M196-28L45.1 209.1C15.6 255.4 0 309.1 0 364 0 487.7 100.3 588 224 588S448 487.7 448 364l0-13.7c0-46.4-9.6-92.2-28.2-134.7L350 56 265.2 206.8c-5.7 10.1-18.5 13.7-28.6 8s-13.7-18.5-8-28.6L277.2 99.7 196-28zM154 364c0 38.7 31.3 70 70 70s70-31.3 70-70c0-11.6 9.4-21 21-21s21 9.4 21 21c0 61.9-50.1 112-112 112S112 425.9 112 364c0-11.6 9.4-21 21-21s21 9.4 21 21z"/></svg>