<svg xmlns="http://www.w3.org/2000/svg" viewBox="0 0 672 560"><!--! Font Awesome Pro 7.1.0 by @fontawesome - https://fontawesome.com License - https://fontawesome.com/license (Commercial License) Copyright 2025 Fonticons, Inc. --><path fill="currentColor" d="M0 476L70.5 123.5C78.3 84.3 112.8 56 152.9 56l366.3 0c40 0 74.5 28.3 82.4 67.5l70.5 352.5-168 56-63-126 42 0c11.6 0 21-9.4 21-21s-9.4-21-21-21l-322 0c-11.6 0-21 9.4-21 21s9.4 21 21 21l42 0-63 126-140-56zM224 140c-11.6 0-21 9.4-21 21l0 28-28 0c-11.6 0-21 9.4-21 21s9.4 21 21 21l28 0 0 28c0 11.6 9.4 21 21 21s21-9.4 21-21l0-28 28 0c11.6 0 21-9.4 21-21s-9.4-21-21-21l-28 0 0-28c0-11.6-9.4-21-21-21zm196 56a28 28 0 1 0 0-56 28 28 0 1 0 0 56zm84 56a28 28 0 1 0 -56 0 28 28 0 1 0 56 0z"/></svg>