<svg xmlns="http://www.w3.org/2000/svg" viewBox="0 0 560 560"><!--! Font Awesome Pro 7.1.0 by @fontawesome - https://fontawesome.com License - https://fontawesome.com/license (Commercial License) Copyright 2025 Fonticons, Inc. --><path fill="currentColor" d="M560 56l-560 0 0 448 126 0 0-112-49 0c-11.6 0-21-9.4-21-21s9.4-21 21-21l49 0 0-126-49 0c-11.6 0-21-9.4-21-21s9.4-21 21-21l49 0 0-49c0-11.6 9.4-21 21-21s21 9.4 21 21l0 49 287 0c11.6 0 21 9.4 21 21s-9.4 21-21 21l-287 0 0 126 287 0c11.6 0 21 9.4 21 21s-9.4 21-21 21l-287 0 0 112 392 0 0-448z"/></svg>