<svg xmlns="http://www.w3.org/2000/svg" viewBox="0 0 448 560"><!--! Font Awesome Pro 7.1.0 by @fontawesome - https://fontawesome.com License - https://fontawesome.com/license (Commercial License) Copyright 2025 Fonticons, Inc. --><path fill="currentColor" d="M84 112C84 34.7 146.7-28 224-28S364 34.7 364 112l0 112 84 0 0 336-448 0 0-336 84 0 0-112zm161-7c0-11.6-9.4-21-21-21s-21 9.4-21 21l0 98c0 11.6 9.4 21 21 21s21-9.4 21-21l0-98zm0 252c0-11.6-9.4-21-21-21s-21 9.4-21 21l0 70c0 11.6 9.4 21 21 21s21-9.4 21-21l0-70z"/></svg>