<svg xmlns="http://www.w3.org/2000/svg" viewBox="0 0 616 560"><!--! Font Awesome Pro 7.1.0 by @fontawesome - https://fontawesome.com License - https://fontawesome.com/license (Commercial License) Copyright 2025 Fonticons, Inc. --><path fill="currentColor" d="M84.2-23.2L5 56 168.2 219.2 168.2 308c0 53.1 29.5 99.3 73.2 123 10.2 5.5 13.9 18.3 8.4 28.5s-18.3 13.9-28.5 8.4c-56.6-30.8-95.1-90.9-95.1-159.9l0-28-98 0 0 28c0 154.6 125.4 280 280 280 64.3 0 123.5-21.7 170.7-58.1l53.3 53.3 79.2-79.2-59-59c22.8-40.5 35.8-87.3 35.8-137l0-28-98 0 0 28c0 22.3-4 43.7-11.4 63.4L445 337.7c2.1-9.6 3.1-19.5 3.1-29.7l0-196c0-77.3-62.7-140-140-140-46.2 0-87.1 22.3-112.6 56.8L330 163.2c8.2 8.2 8.2 21.5 0 29.7s-21.5 8.2-29.7 0L84.2-23.2z"/></svg>