<svg xmlns="http://www.w3.org/2000/svg" viewBox="0 0 616 560"><!--! Font Awesome Pro 7.1.0 by @fontawesome - https://fontawesome.com License - https://fontawesome.com/license (Commercial License) Copyright 2025 Fonticons, Inc. --><path fill="currentColor" d="M616 56L0 56 0 196c46.4 0 84 37.6 84 84S46.4 364 0 364l0 140 616 0 0-140c-46.4 0-84-37.6-84-84s37.6-84 84-84l0-140zM189 140l98 0c11.6 0 21 9.4 21 21s-9.4 21-21 21l-77 0 0 196 196 0 0-217c0-11.6 9.4-21 21-21s21 9.4 21 21l0 238c0 11.6-9.4 21-21 21l-238 0c-11.6 0-21-9.4-21-21l0-238c0-11.6 9.4-21 21-21z"/></svg>