<svg xmlns="http://www.w3.org/2000/svg" viewBox="0 0 560 560"><!--! Font Awesome Pro 7.1.0 by @fontawesome - https://fontawesome.com License - https://fontawesome.com/license (Commercial License) Copyright 2025 Fonticons, Inc. --><path fill="currentColor" d="M192 178c19.5-15.4 32-39.2 32-66 0-46.4-37.6-84-84-84S56 65.6 56 112c0 26.8 12.5 50.6 32 66-51.6 20.6-88 71.1-88 130l0 196 560 0 0-168c0-58.9-36.4-109.4-88-130 19.5-15.4 32-39.2 32-66 0-46.4-37.6-84-84-84s-84 37.6-84 84c0 26.8 12.5 50.6 32 66-22.1 8.9-41.5 23.2-56.4 41.4 6.7 19 10.4 39.4 10.4 60.7l0 63c0 11.6-9.4 21-21 21s-21-9.4-21-21l0-63c0-58.9-36.4-109.4-88-130z"/></svg>