<?xml version="1.0" standalone="no"?>
<!DOCTYPE svg PUBLIC "-//W3C//DTD SVG 1.1//EN" "http://www.w3.org/Graphics/SVG/1.1/DTD/svg11.dtd" >
<svg xmlns="http://www.w3.org/2000/svg" xmlns:xlink="http://www.w3.org/1999/xlink" version="1.1">
<metadata>
Created by FontForge 20170731 at Tue Mar 22 09:46:01 2011
 By Aleksey,,,
Part of the digitally encoded machine readable outline data for producing the Typefaces provided is copyrighted (c) 2002 - 2006 Linotype GmbH, www.linotype.com. All rights reserved. This software is the property of Linotype GmbH, and may not be reproduced, modified, disclosed or transferred without the express written approval of Linotype GmbH. Copyright (c) 1989, 1992 Adobe Systems Incorporated. All Rights Reserved. Trade Gothic is a trademark of Heidelberger Druckmaschinen AG, exclusively licensed through Linotype GmbH, and may be registered in certain jurisdictions. This typeface is original artwork of Jackson Burke. The design may be protected in certain jurisdictions.
</metadata>
<defs>
<font id="TradeGothicLTCom-Cn18" horiz-adv-x="909" >
  <font-face 
    font-family="Trade Gothic LT Com"
    font-weight="400"
    font-stretch="normal"
    units-per-em="2048"
    panose-1="2 0 5 6 0 0 0 0 0 0"
    ascent="1638"
    descent="-410"
    x-height="1065"
    cap-height="1479"
    bbox="-342 -680 4006 2351"
    underline-thickness="102"
    underline-position="-357"
    unicode-range="U+0020-FB04"
  />
<missing-glyph horiz-adv-x="1048" 
d="M455 240v137h114v-137h-114zM461 479l-4 35q0 113 26.5 166t94.5 121q66 63 84 97t18 73q0 74 -46 124t-110 50q-63 0 -109 -45t-59 -150l-102 17q14 145 90 212.5t186 67.5q109 0 181.5 -73.5t72.5 -194.5q0 -66 -25.5 -120t-103.5 -126q-76 -68 -88 -106.5t-12 -147.5
h-94zM946 102v1264h-844v-1264h844zM1049 1470v-1470h-1049v1470h1049z" />
    <glyph glyph-name=".notdef" horiz-adv-x="1048" 
d="M455 240v137h114v-137h-114zM461 479l-4 35q0 113 26.5 166t94.5 121q66 63 84 97t18 73q0 74 -46 124t-110 50q-63 0 -109 -45t-59 -150l-102 17q14 145 90 212.5t186 67.5q109 0 181.5 -73.5t72.5 -194.5q0 -66 -25.5 -120t-103.5 -126q-76 -68 -88 -106.5t-12 -147.5
h-94zM946 102v1264h-844v-1264h844zM1049 1470v-1470h-1049v1470h1049z" />
    <glyph glyph-name=".null" horiz-adv-x="0" 
 />
    <glyph glyph-name="nonmarkingreturn" horiz-adv-x="682" 
 />
    <glyph glyph-name="space" unicode=" " horiz-adv-x="454" 
 />
    <glyph glyph-name="exclam" unicode="!" horiz-adv-x="681" 
d="M426 193v-193h-172v193h172zM254 1479h172l-33 -1041h-106z" />
    <glyph glyph-name="quotedbl" unicode="&#x22;" horiz-adv-x="681" 
d="M408 1479h127v-525h-127v525zM147 1479h127v-525h-127v525z" />
    <glyph glyph-name="numbersign" unicode="#" 
d="M377 899l-37 -319h205l35 319h-203zM823 465h-172l-51 -465h-121l51 465h-202l-52 -465h-120l53 465h-172v115h184l37 319h-170v115h180l54 465h118l-51 -465h203l51 465h121l-53 -465h161v-115h-172l-36 -319h159v-115z" />
    <glyph glyph-name="dollar" unicode="$" 
d="M393 1356q-72 -16 -113.5 -72.5t-41.5 -134.5q0 -80 45 -137.5t110 -106.5v451zM496 123q88 8 138 72.5t50 164.5q0 96 -55.5 166t-132.5 129v-532zM225 406q4 -104 40 -180t128 -103v602q-55 37 -109.5 78t-97.5 89t-69.5 107.5t-26.5 133.5q0 70 22.5 129t62.5 105
t95.5 74.5t122.5 37.5v196h103v-196q152 -23 229.5 -130.5t81.5 -263.5h-148q-2 43 -12 85t-30.5 79t-50 65.5t-70.5 41.5v-522l118 -84q59 -43 107.5 -98.5t79 -124t30.5 -160.5q0 -160 -92 -256.5t-243 -110.5v-238h-103v238q-154 23 -234.5 133.5t-80.5 272.5h147z" />
    <glyph glyph-name="percent" unicode="%" horiz-adv-x="1593" 
d="M217 1159q0 -39 15.5 -74.5t41 -62.5t61.5 -43t79 -16t78.5 16t61.5 43t41 62.5t15 74.5t-15 75t-41 62.5t-61.5 43t-78.5 16.5t-79 -16.5t-61.5 -43t-41 -62.5t-15.5 -75zM909 319q0 -39 15.5 -74.5t41 -62t61.5 -43t79 -16.5t79 16.5t61.5 43t41 62.5t15.5 74
q0 39 -15.5 75t-41 62.5t-61.5 43t-79 16.5t-79 -16.5t-61.5 -43t-41 -62.5t-15.5 -75zM1253 1499l-847 -1519h-119l848 1519h118zM94 1159q0 66 24.5 124t67.5 101t101.5 69t126.5 26t126 -26t101 -69t67.5 -101t24.5 -124t-24.5 -124t-67.5 -101t-101.5 -68.5
t-125.5 -25.5q-68 0 -126.5 25.5t-101.5 68.5t-67.5 101t-24.5 124zM786 319q0 66 25 124.5t68 101.5t101 68.5t126 25.5t126 -25.5t101 -68.5t67.5 -101.5t24.5 -124.5t-24.5 -124t-67.5 -101t-101 -68.5t-126 -25.5t-126 25.5t-101 68.5t-68 101t-25 124z" />
    <glyph glyph-name="ampersand" unicode="&#x26;" horiz-adv-x="1138" 
d="M389 1198q0 -86 24 -152l48 -131q76 84 121 162t45 176q0 55 -33 95.5t-74 40.5q-59 0 -95 -41t-36 -150zM250 369q0 -115 62.5 -184.5t185.5 -69.5q61 0 116.5 36.5t90.5 86.5q-88 104 -165 220.5t-134 227.5q-29 -29 -56.5 -66.5t-50.5 -78.5t-36 -85t-13 -87zM987 709
q-4 -66 -11 -120t-18.5 -105.5t-29 -103.5t-43.5 -110q37 -43 82 -83t98 -76l-86 -111q-41 18 -92 57t-92 82q-57 -70 -139.5 -114.5t-174.5 -44.5q-174 0 -276.5 101t-102.5 275q0 82 26 147.5t62.5 121t78.5 99.5l77 83q-14 31 -32.5 77t-34 98t-26.5 105.5t-11 98.5
q0 80 20.5 138t55 97t81.5 58.5t101 19.5q61 0 111.5 -20.5t87 -56.5t56 -83t19.5 -98q0 -78 -21.5 -139.5t-58.5 -114.5t-84 -100l-96 -94q55 -113 120.5 -214.5t143.5 -193.5q31 80 44.5 163t21.5 169z" />
    <glyph glyph-name="quotesingle" unicode="'" horiz-adv-x="454" 
d="M164 1479h127v-525h-127v525z" />
    <glyph glyph-name="parenleft" unicode="(" horiz-adv-x="569" 
d="M389 -225q-66 102 -114 203.5t-78.5 206t-46 216t-15.5 236.5t15.5 236.5t46 216t79 206t113.5 203.5l98 -61q-111 -201 -164 -395.5t-53 -405.5t53.5 -405.5t163.5 -395.5z" />
    <glyph glyph-name="parenright" unicode=")" horiz-adv-x="569" 
d="M180 1499q66 -102 114 -203.5t78.5 -206t46 -216t15.5 -236.5t-15.5 -236.5t-46 -216t-78.5 -206t-114 -203.5l-98 61q111 201 164 395.5t53 405.5t-53 405.5t-164 395.5z" />
    <glyph glyph-name="asterisk" unicode="*" 
d="M481 1155l295 143l41 -135l-315 -65l233 -230l-119 -90l-161 283l-162 -283l-119 90l234 230l-316 65l41 135l295 -143l-41 324h135z" />
    <glyph glyph-name="plus" unicode="+" horiz-adv-x="1228" 
d="M547 1065h135v-465h465v-135h-465v-465h-135v465h-465v135h465v465z" />
    <glyph glyph-name="comma" unicode="," horiz-adv-x="454" 
d="M313 193v-205l-123 -295h-61l94 307h-82v193h172z" />
    <glyph glyph-name="hyphen" unicode="-" horiz-adv-x="681" 
d="M88 465v135h504v-135h-504z" />
    <glyph glyph-name="period" unicode="." horiz-adv-x="454" 
d="M313 193v-193h-172v193h172z" />
    <glyph glyph-name="slash" unicode="/" horiz-adv-x="569" 
d="M-20 -20l475 1519h135l-475 -1519h-135z" />
    <glyph glyph-name="zero" unicode="0" 
d="M664 739q0 182 -13.5 304t-40 196t-65.5 105.5t-90 31.5t-90 -31.5t-66 -105.5t-40 -195.5t-13 -304.5q0 -182 13 -304t40 -195.5t65.5 -105.5t90.5 -32q51 0 90 32t65.5 105.5t40 195.5t13.5 304zM811 739q0 -201 -21.5 -344t-65.5 -235t-111.5 -136t-157.5 -44t-158 44
t-112 136t-65.5 235.5t-21.5 343.5q0 201 21.5 344.5t65.5 235.5t112 136t158 44t157.5 -44t111.5 -136t65.5 -235.5t21.5 -344.5z" />
    <glyph glyph-name="one" unicode="1" 
d="M217 0v123h180v1188l-184 -17v90q63 16 122.5 44t110.5 71h99v-1376h172v-123h-500z" />
    <glyph glyph-name="two" unicode="2" 
d="M98 0v123q33 109 86.5 204t112.5 180t120.5 164t111 155.5t80 154.5t30.5 162q0 117 -51 175t-127 58q-88 0 -146.5 -72.5t-68.5 -238.5h-135q6 125 35.5 209t76.5 134t106.5 70.5t127.5 20.5q145 0 237 -96t92 -281q0 -92 -25.5 -165.5t-68.5 -142.5t-99 -136l-118 -149
q-61 -81 -123.5 -179t-118.5 -227h562v-123h-697z" />
    <glyph glyph-name="three" unicode="3" 
d="M123 1184q6 66 27.5 123t58.5 100t90 67.5t125 24.5q61 0 120.5 -21.5t105.5 -66.5t75 -112.5t29 -159.5q0 -158 -56.5 -245t-136.5 -103v-5q61 -20 103.5 -58t68 -87t35.5 -106.5t10 -116.5q0 -115 -30.5 -197t-81 -136t-115 -79.5t-133.5 -25.5q-74 0 -134.5 27.5
t-104.5 77.5t-68.5 118.5t-24.5 148.5h135q10 -121 62.5 -185.5t150.5 -64.5q37 0 72 19.5t62.5 58.5t45 97.5t17.5 134.5q0 92 -19.5 152.5t-60.5 96t-104.5 50t-151.5 14.5v123q82 0 141.5 12t97 43t55 86t17.5 141q0 133 -47 189.5t-125 56.5q-47 0 -79.5 -18.5t-54 -48
t-31 -66.5t-11.5 -76z" />
    <glyph glyph-name="four" unicode="4" 
d="M188 459h334v884h-4zM670 1479v-1020h153v-123h-153v-336h-148v336h-473v70l406 1073h215z" />
    <glyph glyph-name="five" unicode="5" 
d="M250 344q4 -41 16.5 -83t34 -78t55 -58.5t82.5 -22.5q96 0 158.5 97.5t62.5 289.5q0 104 -16 174t-44 112t-64.5 59.5t-77.5 17.5q-63 0 -115.5 -42t-71.5 -101l-114 20l49 750h520l-12 -123h-389l-29 -451q39 33 89 51.5t108 18.5q63 0 120.5 -30t100.5 -90t68.5 -150.5
t25.5 -210.5q0 -127 -28.5 -223.5t-78 -161t-115 -97t-139.5 -32.5q-80 0 -140 27.5t-101 75.5t-63.5 112.5t-26.5 136.5z" />
    <glyph glyph-name="six" unicode="6" 
d="M254 508q0 -113 14.5 -189.5t41 -125t65.5 -70t88 -21.5q43 0 79 17.5t60.5 57.5t38.5 105.5t14 161.5q0 98 -15 163t-41 101.5t-59.5 51t-68.5 14.5q-72 0 -126 -39t-91 -88v-139zM635 1204q-8 55 -25.5 89t-40 52.5t-48 24.5t-46.5 6q-98 0 -156.5 -141t-60.5 -451
q45 47 103.5 80t123.5 33q61 0 119 -23.5t102 -78t70.5 -141.5t26.5 -212q0 -217 -85 -339.5t-233 -122.5q-96 0 -166.5 31.5t-117.5 108.5t-71 208t-24 331q0 223 26 382t74 260.5t116.5 149.5t156.5 48q72 0 122 -20.5t84 -58.5t54.5 -91t30.5 -117z" />
    <glyph glyph-name="seven" unicode="7" 
d="M123 1479h663v-78l-430 -1401h-155l430 1356h-508v123z" />
    <glyph glyph-name="eight" unicode="8" 
d="M639 1184q0 35 -11.5 69.5t-34 62t-57 44t-81.5 16.5t-82 -16.5t-57.5 -44t-34 -62t-11.5 -69.5q0 -113 50.5 -195t134.5 -133q84 51 134 133t50 195zM672 367q0 59 -17.5 108t-47 90t-68.5 76t-84 68q-45 -33 -84 -68t-69 -76t-47 -90t-17 -108q0 -45 12 -92.5t38.5 -85
t67.5 -62.5t99 -25q57 0 98 25t67.5 62.5t39 85t12.5 92.5zM819 373q0 -80 -24.5 -151.5t-71.5 -125t-114.5 -85t-153.5 -31.5t-154 31.5t-115 85t-71.5 125t-24.5 151.5q0 137 65.5 237.5t172.5 175.5q-98 78 -151.5 164t-53.5 217q0 74 25.5 134.5t70.5 104.5t105.5 68.5
t130.5 24.5t130 -24.5t105 -68.5t70.5 -104.5t25.5 -134.5q0 -131 -53 -217t-151 -164q106 -76 171.5 -176t65.5 -237z" />
    <glyph glyph-name="nine" unicode="9" 
d="M655 971q0 113 -14 189.5t-41 124.5t-65.5 69.5t-88.5 21.5q-43 0 -78.5 -17.5t-60 -57t-39 -105.5t-14.5 -162q0 -98 15.5 -162.5t41 -101.5t59 -51t68.5 -14q72 0 126 38.5t91 87.5v140zM274 274q8 -55 25.5 -88.5t40 -52t47.5 -25t47 -6.5q98 0 155.5 141.5
t61.5 450.5q-45 -47 -103.5 -79.5t-123.5 -32.5q-61 0 -118.5 23.5t-101.5 77.5t-71 140t-27 213q0 217 85 340t233 123q96 0 167 -31.5t118 -108.5t70.5 -209t23.5 -331q0 -223 -25.5 -381.5t-74 -260t-117 -149.5t-156.5 -48q-72 0 -122 20t-84 58t-54 90.5t-31 117.5z
" />
    <glyph glyph-name="colon" unicode=":" horiz-adv-x="454" 
d="M313 750v-193h-172v193h172zM313 193v-193h-172v193h172z" />
    <glyph glyph-name="semicolon" unicode=";" horiz-adv-x="454" 
d="M313 750v-193h-172v193h172zM313 193v-205l-123 -295h-61l94 307h-82v193h172z" />
    <glyph glyph-name="less" unicode="&#x3c;" horiz-adv-x="1228" 
d="M1147 6l-1065 475v103l1065 475v-141l-864 -386l864 -385v-141z" />
    <glyph glyph-name="equal" unicode="=" horiz-adv-x="1228" 
d="M82 381h1065v-135h-1065v135zM82 819h1065v-135h-1065v135z" />
    <glyph glyph-name="greater" unicode="&#x3e;" horiz-adv-x="1228" 
d="M82 147l864 385l-864 386v141l1065 -475v-103l-1065 -475v141z" />
    <glyph glyph-name="question" unicode="?" horiz-adv-x="796" 
d="M399 193v-193h-172v193h172zM268 438v103q0 119 39 200.5t86 152.5t86 146.5t39 184.5q0 80 -38 115.5t-81 35.5q-35 0 -60.5 -16.5t-42.5 -42t-28.5 -56t-13.5 -61.5l-123 25q6 57 26.5 107t55.5 87t83 58.5t110 21.5q51 0 98 -17.5t83 -51t57.5 -85t21.5 -120.5
q0 -86 -20.5 -150.5t-52.5 -118t-69 -100.5t-68.5 -96t-52 -107.5t-20.5 -132.5v-82h-115z" />
    <glyph glyph-name="at" unicode="@" horiz-adv-x="1638" 
d="M715 418q68 0 125 44t100 110.5t67.5 142.5t24.5 137q0 37 -14 71.5t-37 61.5t-52.5 43t-62.5 16q-72 0 -131 -41.5t-102 -105t-66.5 -139.5t-23.5 -142q0 -88 47 -143t125 -55zM1141 1143h129l-176 -578q-10 -29 -15.5 -58.5t-5.5 -51.5q0 -51 45 -52q55 0 109.5 41
t97.5 106.5t69.5 147.5t26.5 164q0 121 -47 218.5t-125 165t-180 103t-215 35.5q-135 0 -248.5 -51t-197.5 -139t-131.5 -204t-47.5 -247q0 -139 49.5 -257.5t135.5 -205.5t201.5 -136.5t248.5 -49.5q145 0 281.5 64.5t222.5 179.5h129q-49 -84 -117.5 -150.5t-151.5 -112.5
t-176.5 -70.5t-191.5 -24.5q-162 0 -302 59t-242.5 162.5t-162 243t-59.5 298.5q0 158 60.5 295.5t163 239.5t240.5 161.5t294 59.5q141 0 267 -47t220.5 -130t149.5 -197.5t55 -252.5q0 -131 -47 -239.5t-118.5 -186t-155.5 -120.5t-156 -43q-53 0 -90 33.5t-43 101.5
l-4 -2q-45 -49 -110.5 -91t-139.5 -42q-66 0 -120 25.5t-92 68.5t-59.5 101.5t-21.5 123.5q0 104 34 206.5t97.5 184.5t151.5 132.5t196 50.5q72 0 132.5 -37t97.5 -123z" />
    <glyph glyph-name="A" unicode="A" 
d="M289 573h332l-164 795h-4zM565 1479l326 -1479h-160l-88 438h-377l-88 -438h-160l326 1479h221z" />
    <glyph glyph-name="B" unicode="B" horiz-adv-x="1024" 
d="M295 844h90q174 0 253 59.5t79 210.5q0 127 -60.5 178t-201.5 51h-160v-499zM295 135h160q145 0 220 65.5t75 209.5q0 147 -69 223t-226 76h-160v-574zM135 1479h393q166 0 257.5 -100.5t91.5 -264.5q0 -111 -53.5 -202t-172.5 -126v-4q135 -35 196.5 -134t61.5 -238
q0 -207 -115.5 -308.5t-359.5 -101.5h-299v1479z" />
    <glyph glyph-name="C" unicode="C" horiz-adv-x="1024" 
d="M741 1032q-16 176 -70.5 254t-148.5 78q-70 0 -121 -33t-83.5 -106.5t-48 -193.5t-15.5 -292t15.5 -291.5t48 -193.5t84 -106.5t120.5 -32.5q55 0 99.5 20.5t75 65.5t47 116.5t18.5 174.5h160q-4 -248 -106.5 -380t-293.5 -132q-98 0 -178 39.5t-135 130t-85 235.5
t-30 354t30 354.5t85 235.5t135 130t178 40q166 0 263.5 -114.5t115.5 -352.5h-160z" />
    <glyph glyph-name="D" unicode="D" horiz-adv-x="1024" 
d="M295 135h86q88 0 156.5 23.5t115.5 89t72 183.5t25 308t-25 308t-72 183.5t-115.5 89t-156.5 23.5h-86v-1208zM135 1479h275q117 0 209 -36t156.5 -121t99 -227.5t34.5 -355.5t-34.5 -355t-99 -227t-157 -121t-208.5 -36h-275v1479z" />
    <glyph glyph-name="E" unicode="E" 
d="M811 1479v-136h-516v-503h381v-135h-381v-570h541v-135h-701v1479h676z" />
    <glyph glyph-name="F" unicode="F" horiz-adv-x="796" 
d="M135 1479h635v-136h-475v-503h356v-135h-356v-705h-160v1479z" />
    <glyph glyph-name="G" unicode="G" horiz-adv-x="1024" 
d="M750 1024q-4 72 -18.5 134.5t-41 108.5t-68.5 71.5t-104 25.5q-68 0 -117 -32t-81.5 -105.5t-49 -193.5t-16.5 -294t16.5 -293.5t49 -193.5t82 -105.5t116.5 -31.5q113 0 172.5 59t59.5 174v209h-201v135h360v-692h-102l-21 111q-47 -61 -111.5 -96t-156.5 -35
q-98 0 -176 39.5t-133 130t-85 235.5t-30 354t30 354.5t85 235.5t133 130t176 40q102 0 173 -41t117 -107.5t69.5 -152.5t31.5 -174h-159z" />
    <glyph glyph-name="H" unicode="H" horiz-adv-x="1024" 
d="M295 1479v-639h434v639h160v-1479h-160v705h-434v-705h-160v1479h160z" />
    <glyph glyph-name="I" unicode="I" horiz-adv-x="454" 
d="M307 1479v-1479h-160v1479h160z" />
    <glyph glyph-name="J" unicode="J" horiz-adv-x="569" 
d="M434 1479v-1110q0 -115 -20.5 -190t-63.5 -119t-112.5 -62t-167.5 -18q-16 0 -38 4l-44 8l12 139q45 -16 92 -16q98 0 140 47t42 170v1147h160z" />
    <glyph glyph-name="K" unicode="K" 
d="M274 1479v-754h5l413 754h172l-286 -516l340 -963h-173l-274 799h-4l-193 -344v-455h-159v1479h159z" />
    <glyph glyph-name="L" unicode="L" horiz-adv-x="796" 
d="M295 1479v-1344h479v-135h-639v1479h160z" />
    <glyph glyph-name="M" unicode="M" horiz-adv-x="1251" 
d="M369 1479l258 -1119h4l252 1119h254v-1479h-148v1356h-4l-307 -1356h-105l-307 1356h-4v-1356h-147v1479h254z" />
    <glyph glyph-name="N" unicode="N" horiz-adv-x="1024" 
d="M365 1479l380 -1090h5v1090h159v-1479h-172l-458 1286h-5v-1286h-159v1479h250z" />
    <glyph glyph-name="O" unicode="O" horiz-adv-x="1024" 
d="M770 739q0 188 -20.5 309t-55.5 192t-82 97.5t-100 26.5t-100 -26.5t-82 -97.5t-55.5 -191.5t-20.5 -309.5q0 -188 20.5 -309t55.5 -191.5t82 -97t100 -26.5t100 26.5t82 97t55.5 191.5t20.5 309zM930 739q0 -207 -30 -351t-85 -235.5t-132 -132t-171 -40.5t-171 40.5
t-132 132t-85 235.5t-30 351t30 351.5t85 235.5t132 132t171 41t171 -41t132 -132t85 -235.5t30 -351.5z" />
    <glyph glyph-name="P" unicode="P" 
d="M274 803h168q121 0 187.5 65.5t66.5 204.5t-66.5 204.5t-187.5 65.5h-168v-540zM115 1479h348q88 0 160.5 -29t125 -82t80 -128t27.5 -167t-27.5 -167t-80 -128t-125 -81.5t-160.5 -28.5h-189v-668h-159v1479z" />
    <glyph glyph-name="Q" unicode="Q" horiz-adv-x="1024" 
d="M545 418q53 -16 95 -48t77 -73q27 72 40 179.5t13 262.5q0 188 -20.5 309t-55.5 192t-82 97.5t-100 26.5t-100 -26.5t-82 -97.5t-55.5 -191.5t-20.5 -309.5q0 -188 20.5 -309t55.5 -191.5t82 -97t100 -26.5q41 0 77 14t66 51q-47 66 -110 107v131zM971 -115
q-88 4 -144.5 51.5t-97.5 116.5q-47 -39 -101.5 -56t-115.5 -17q-94 0 -171 40.5t-132 132t-85 235.5t-30 351t30 351.5t85 235.5t132 132t171 41t171 -41t132 -132t85 -235.5t30 -351.5t-30 -350t-85 -235q29 -45 66 -85t90 -44v-140z" />
    <glyph glyph-name="R" unicode="R" horiz-adv-x="1024" 
d="M295 831h139q172 0 237.5 66t65.5 190q0 125 -65.5 190.5t-237.5 65.5h-139v-512zM135 1479h357q88 0 162.5 -26t129 -75t84 -119.5t29.5 -162.5q0 -125 -57.5 -222.5t-180.5 -140.5l250 -733h-168l-237 700l-209 -8v-692h-160v1479z" />
    <glyph glyph-name="S" unicode="S" 
d="M664 1098q-4 57 -18.5 105t-42.5 84t-68.5 56.5t-98.5 20.5q-92 0 -147.5 -54.5t-55.5 -140.5q0 -84 44.5 -143t110 -110.5t143 -100.5t143 -111.5t109.5 -145.5t44 -202q0 -178 -97 -277t-281 -99q-86 0 -156 30.5t-118 86t-73.5 132t-27.5 168.5h147
q4 -131 64.5 -206.5t179.5 -75.5q100 0 159.5 62.5t59.5 180.5q0 84 -44 146.5t-109.5 116t-143.5 103.5t-143.5 111.5t-109.5 137.5t-44 182q0 78 25.5 141.5t73 108.5t113 69.5t144.5 24.5q160 0 257.5 -103.5t107.5 -297.5h-147z" />
    <glyph glyph-name="T" unicode="T" horiz-adv-x="796" 
d="M780 1479v-136h-303v-1343h-160v1343h-303v136h766z" />
    <glyph glyph-name="U" unicode="U" horiz-adv-x="1024" 
d="M295 1479v-1086q0 -55 9 -106t33.5 -89t66.5 -60.5t108 -22.5t108 22.5t66.5 60.5t33.5 89t9 106v1086h160v-1090q0 -90 -21.5 -164.5t-67.5 -129t-117 -85t-171 -30.5t-171 30.5t-117 85t-67.5 129t-21.5 164.5v1090h160z" />
    <glyph glyph-name="V" unicode="V" 
d="M193 1479l260 -1172h4l260 1172h160l-349 -1479h-147l-348 1479h160z" />
    <glyph glyph-name="W" unicode="W" horiz-adv-x="1251" 
d="M160 1479l176 -1155h4l221 1155h131l230 -1155h4l164 1155h147l-238 -1479h-135l-233 1161h-4l-234 -1161h-135l-246 1479h148z" />
    <glyph glyph-name="X" unicode="X" 
d="M213 1479l225 -525l209 525h172l-291 -693l353 -786h-172l-271 618l-237 -618h-172l319 786l-307 693h172z" />
    <glyph glyph-name="Y" unicode="Y" 
d="M205 1479l254 -648l246 648h172l-340 -852v-627h-160v627l-344 852h172z" />
    <glyph glyph-name="Z" unicode="Z" 
d="M819 1479v-111l-549 -1233h549v-135h-729v115l533 1228h-484v136h680z" />
    <glyph glyph-name="bracketleft" unicode="[" horiz-adv-x="569" 
d="M123 1479h377v-82h-242v-1520h242v-82h-377v1684z" />
    <glyph glyph-name="backslash" unicode="\" horiz-adv-x="569" 
d="M455 -20l-475 1519h135l475 -1519h-135z" />
    <glyph glyph-name="bracketright" unicode="]" horiz-adv-x="569" 
d="M446 -205h-376v82h241v1520h-241v82h376v-1684z" />
    <glyph glyph-name="asciicircum" unicode="^" horiz-adv-x="1228" 
d="M557 1479h115l430 -875h-148l-340 701l-340 -701h-147z" />
    <glyph glyph-name="underscore" unicode="_" horiz-adv-x="1024" 
d="M0 -256v102h1024v-102h-1024z" />
    <glyph glyph-name="grave" unicode="`" horiz-adv-x="454" 
d="M-16 1466h159l201 -282h-102z" />
    <glyph glyph-name="a" unicode="a" 
d="M600 573q-51 -16 -112.5 -41.5t-116 -63.5t-90 -88t-35.5 -114q0 -76 35.5 -120t115.5 -44q59 0 110.5 35t92.5 76v360zM127 774q10 63 34.5 119.5t63.5 99.5t92.5 67.5t124.5 24.5q147 0 226.5 -80.5t79.5 -222.5v-594q0 -72 7 -121t19 -67h-153l-19 90
q-23 -23 -51.5 -42t-59 -34.5t-61.5 -24.5t-55 -9q-125 0 -201 73.5t-76 200.5q0 98 48.5 173t123 129t162.5 88t168 52v76q0 88 -41 139.5t-113 51.5q-43 0 -74.5 -19.5t-54 -49.5t-36 -66.5t-19.5 -73.5z" />
    <glyph glyph-name="b" unicode="b" 
d="M307 205q35 -47 78 -75t78 -28q45 0 83 21.5t63.5 71t40 132.5t14.5 205q0 123 -13.5 206t-38 132.5t-61.5 71t-84 21.5q-49 0 -88 -31t-72 -64v-663zM250 0h-115q12 47 18.5 114.5t6.5 172.5v1192h147v-492q37 37 87 67.5t110 30.5q63 0 118.5 -28.5t97.5 -94t66.5 -171
t24.5 -259.5t-24.5 -259t-66.5 -170.5t-97.5 -94t-118.5 -28.5q-72 0 -126 32.5t-95 89.5z" />
    <glyph glyph-name="c" unicode="c" horiz-adv-x="796" 
d="M565 750q-10 121 -55 167t-113 46q-47 0 -80.5 -17.5t-55 -66t-32 -132t-10.5 -215.5q0 -133 10.5 -216t32 -131t55 -65.5t80.5 -17.5q35 0 62.5 10.5t49 37t36 71.5t24.5 115h144q-10 -78 -33 -143.5t-61.5 -112.5t-94 -73.5t-127.5 -26.5q-168 0 -246.5 132t-78.5 420
q0 289 78.5 421t246.5 132q145 0 217 -89t95 -246h-144z" />
    <glyph glyph-name="d" unicode="d" 
d="M602 868q-33 33 -71.5 64t-88.5 31q-47 0 -83.5 -21.5t-61.5 -71t-38 -132.5t-13 -206t14 -205.5t40 -132t62.5 -71t83.5 -21.5q35 0 78 28t78 75v663zM629 102h-4q-39 -57 -93.5 -89.5t-125.5 -32.5q-63 0 -119 28.5t-98 94t-66.5 171t-24.5 258.5q0 154 24.5 259.5
t66.5 171t97.5 94t119.5 28.5q59 0 109 -30.5t87 -67.5v492h148v-1192q0 -104 6 -172t18 -115h-139z" />
    <glyph glyph-name="e" unicode="e" horiz-adv-x="796" 
d="M575 631q-4 172 -40.5 252t-137.5 80q-41 0 -72.5 -16.5t-55 -54.5t-37 -102.5t-13.5 -158.5h356zM219 508v-59q0 -98 11.5 -164t36 -107t61.5 -58.5t90 -17.5q43 0 72.5 17.5t51 46.5t35 64.5t19.5 72.5l139 -16q-8 -59 -34.5 -114.5t-69.5 -98.5t-101.5 -68.5
t-132.5 -25.5q-168 0 -246.5 132t-78.5 420q0 289 78.5 421t246.5 132q84 0 145.5 -35.5t101.5 -102t59.5 -161t19.5 -208.5v-70h-504z" />
    <glyph glyph-name="f" unicode="f" horiz-adv-x="569" 
d="M37 1065h164v217q0 109 48 163t169 54q29 0 58.5 -4t55.5 -8v-115q-35 16 -79 17q-53 0 -79 -31t-26 -82v-211h172v-123h-172v-942h-147v942h-164v123z" />
    <glyph glyph-name="g" unicode="g" 
d="M688 -86q0 37 -30.5 59.5t-76.5 38t-101.5 25.5t-102.5 20q-66 -29 -105 -64.5t-39 -80.5q0 -66 56.5 -108t177.5 -42q123 0 172 43t49 109zM287 707q0 -152 45 -210.5t110 -58.5q33 0 60.5 13.5t49 45t34 83t12.5 127.5t-12.5 127t-34 82.5t-49 45t-60.5 13.5
q-66 0 -110.5 -58t-44.5 -210zM836 950q-12 4 -23 4h-20q-29 0 -50.5 -11t-42.5 -30q16 -49 24.5 -94t8.5 -110q0 -100 -21.5 -172t-60.5 -118t-91 -68.5t-114 -22.5q-25 0 -49 4t-49 4q-18 -4 -46 -21.5t-28 -48.5q0 -29 21.5 -45t56.5 -26.5t82 -18.5t98 -18
q57 -12 110.5 -29.5t93.5 -46.5t63.5 -72t23.5 -108q0 -53 -24.5 -98.5t-70.5 -79t-113.5 -53t-151.5 -19.5q-182 0 -273.5 62.5t-91.5 166.5q0 72 42 127t114 86q-47 16 -81 53t-34 91q0 59 43 95t97 46q-31 23 -55.5 57.5t-40 75.5t-23.5 86t-8 86q0 193 83.5 297
t225.5 104q53 0 110.5 -23.5t83.5 -74.5q25 43 69 70.5t112 27.5v-135z" />
    <glyph glyph-name="h" unicode="h" 
d="M147 1479h148v-531q47 53 113.5 95t119.5 42q111 0 172.5 -65.5t61.5 -212.5v-807h-148v786q0 92 -28.5 134.5t-87.5 42.5q-53 0 -103.5 -35t-99.5 -97v-831h-148v1479z" />
    <glyph glyph-name="i" unicode="i" horiz-adv-x="454" 
d="M154 1479h147v-172h-147v172zM154 1065h147v-1065h-147v1065z" />
    <glyph glyph-name="j" unicode="j" horiz-adv-x="454" 
d="M160 1479h147v-172h-147v172zM8 -217q14 -4 26.5 -6t22.5 -2q49 0 76 29.5t27 101.5v1159h147v-1171q0 -133 -53 -187.5t-164 -54.5q-20 0 -39.5 2t-42.5 6v123z" />
    <glyph glyph-name="k" unicode="k" horiz-adv-x="796" 
d="M135 1479h148v-934h4l282 520h152l-197 -340l246 -725h-152l-192 578h-4l-139 -263v-315h-148v1479z" />
    <glyph glyph-name="l" unicode="l" horiz-adv-x="454" 
d="M154 1479h147v-1479h-147v1479z" />
    <glyph glyph-name="m" unicode="m" horiz-adv-x="1366" 
d="M164 0v1065h135v-117q43 51 106.5 94t141.5 43q63 0 116.5 -37.5t73.5 -97.5q45 49 107.5 92t140.5 43q104 0 159.5 -65.5t55.5 -179.5v-840h-147v819q0 84 -26 114t-85 30q-68 0 -111 -38t-75 -73v-852h-148v819q0 84 -28.5 114t-87.5 30q-35 0 -62 -10.5t-48.5 -27
t-38.5 -36t-32 -37.5v-852h-147z" />
    <glyph glyph-name="n" unicode="n" 
d="M147 1065h140v-117q53 53 120.5 95t120.5 42q111 0 172.5 -65.5t61.5 -212.5v-807h-148v786q0 92 -28.5 134.5t-87.5 42.5q-53 0 -103.5 -35t-99.5 -97v-831h-148v1065z" />
    <glyph glyph-name="o" unicode="o" horiz-adv-x="796" 
d="M219 532q0 -133 10.5 -216t32 -131t55 -65.5t80.5 -17.5t81 17.5t55.5 65.5t31.5 131t10 216q0 131 -10 215t-31.5 132.5t-55.5 66t-81 17.5t-80.5 -17.5t-55 -66t-32 -132.5t-10.5 -215zM72 532q0 289 78.5 421t246.5 132t247 -132t79 -421t-79 -420.5t-247 -131.5
t-246.5 131.5t-78.5 420.5z" />
    <glyph glyph-name="p" unicode="p" 
d="M307 197q33 -33 72 -64t88 -31q47 0 84 21.5t61.5 71t38 132.5t13.5 205q0 123 -14.5 206t-40 132.5t-63.5 71t-83 21.5q-35 0 -78 -28t-78 -75v-663zM283 963h4q37 57 91 89.5t126 32.5q63 0 118.5 -28.5t97.5 -94t66.5 -171t24.5 -259.5t-24.5 -259t-66.5 -170.5
t-97.5 -94t-118.5 -28.5q-59 0 -109.5 30.5t-87.5 67.5v-426h-147v1413h123v-102z" />
    <glyph glyph-name="q" unicode="q" 
d="M602 860q-35 47 -78 75t-78 28q-47 0 -83.5 -21.5t-62.5 -71t-40 -132.5t-14 -206t13 -205.5t38 -132t61.5 -71t83.5 -21.5q49 0 88 31t72 64v663zM627 1065h123v-1413h-148v426q-37 -37 -87 -67.5t-109 -30.5q-63 0 -119 28.5t-98 94t-66.5 171t-24.5 258.5
q0 154 24.5 259.5t66.5 171t97.5 94t119.5 28.5q72 0 126 -32.5t91 -89.5h4v102z" />
    <glyph glyph-name="r" unicode="r" horiz-adv-x="569" 
d="M135 1065h148v-129h4q33 49 62.5 77.5t61 45t67.5 21.5t79 5v-139q-41 0 -78 -8t-70.5 -29.5t-64.5 -57.5t-61 -93v-758h-148v1065z" />
    <glyph glyph-name="s" unicode="s" horiz-adv-x="796" 
d="M561 795q-10 35 -23.5 65.5t-34 53t-51 36t-75.5 13.5q-53 0 -86 -37t-33 -90t34 -93.5t83 -75t108.5 -69.5t108.5 -79t83 -103.5t34 -141.5q0 -63 -21.5 -116.5t-60.5 -93t-92.5 -62t-116.5 -22.5q-145 0 -223 73.5t-117 208.5l135 29q12 -35 28.5 -69t40 -60.5
t54.5 -43t72 -16.5q31 0 58.5 13.5t49 35t33.5 51t12 62.5q0 61 -33.5 105.5t-83 80t-109 70.5t-108.5 77t-82.5 97.5t-33.5 132.5q0 51 20.5 98.5t57 83t87 56t111.5 20.5q123 0 196.5 -66.5t100.5 -187.5z" />
    <glyph glyph-name="t" unicode="t" horiz-adv-x="569" 
d="M16 1065h144v356h147v-356h197v-123h-197v-745q0 -47 25.5 -77t81.5 -30q23 0 47 7t43 14v-111q-31 -10 -61.5 -15t-77.5 -5q-104 0 -154.5 53t-50.5 176v733h-144v123z" />
    <glyph glyph-name="u" unicode="u" 
d="M762 0h-139v117q-53 -53 -121 -95t-121 -42q-111 0 -172.5 65.5t-61.5 212.5v807h148v-786q0 -92 28.5 -134.5t88.5 -42.5q53 0 103 35t99 96v832h148v-1065z" />
    <glyph glyph-name="v" unicode="v" horiz-adv-x="796" 
d="M184 1065l213 -918h4l209 918h148l-262 -1065h-197l-262 1065h147z" />
    <glyph glyph-name="w" unicode="w" horiz-adv-x="1138" 
d="M176 1065l152 -782h4l172 782h139l176 -782h4l140 782h139l-221 -1065h-123l-185 827h-4l-184 -827h-123l-225 1065h139z" />
    <glyph glyph-name="x" unicode="x" horiz-adv-x="681" 
d="M2 1065h152l176 -373l155 373h152l-229 -512l270 -553h-152l-192 418l-180 -418h-152l246 553z" />
    <glyph glyph-name="y" unicode="y" horiz-adv-x="681" 
d="M156 1065l200 -815h4l164 815h152l-244 -1042q-41 -176 -121 -273.5t-215 -97.5h-76v123h46q88 0 143 60.5t78 172.5l-283 1057h152z" />
    <glyph glyph-name="z" unicode="z" horiz-adv-x="681" 
d="M80 1065h553v-98l-422 -844h422v-123h-586v111l410 831h-377v123z" />
    <glyph glyph-name="braceleft" unicode="{" horiz-adv-x="569" 
d="M33 678q63 0 91 37t28 135v453q0 98 53 147t139 49h131v-82h-106q-82 0 -82 -106v-482q0 -47 -14.5 -81.5t-36 -57t-50 -35t-55.5 -16.5v-4q27 -4 55.5 -16.5t50 -35t36 -57t14.5 -82.5v-481q0 -106 82 -106h106v-82h-131q-86 0 -139 49t-53 147v453q0 98 -28 135t-91 37
v82z" />
    <glyph glyph-name="bar" unicode="|" horiz-adv-x="454" 
d="M160 1499h135v-1519h-135v1519z" />
    <glyph glyph-name="braceright" unicode="}" horiz-adv-x="569" 
d="M537 596q-63 0 -91 -37t-28 -135v-453q0 -98 -53.5 -147t-139.5 -49h-131v82h107q82 0 82 106v481q0 47 14 82t35.5 57.5t49.5 35t56 16.5v4q-29 4 -56.5 16.5t-49 35t-35.5 57t-14 81.5v482q0 106 -82 106h-107v82h131q86 0 139.5 -49t53.5 -147v-453q0 -98 27.5 -135
t91.5 -37v-82z" />
    <glyph glyph-name="asciitilde" unicode="~" horiz-adv-x="1228" 
d="M1106 575q-18 -33 -43 -65.5t-57.5 -58t-73.5 -41t-94 -15.5t-113.5 19.5t-122.5 48.5l-116 48q-56 24 -99 24q-63 0 -106 -46.5t-80 -101.5l-78 102q18 33 42.5 66t57.5 58.5t74 41t94 15.5t113.5 -19.5t122.5 -48.5l115 -48q56 -24 100 -24q63 0 106 46.5t80 101.5z
" />
    <glyph glyph-name="uni00A0" unicode="&#xa0;" horiz-adv-x="454" 
 />
    <glyph glyph-name="exclamdown" unicode="&#xa1;" horiz-adv-x="681" 
d="M256 872v193h172v-193h-172zM428 -414h-172l33 1041h106z" />
    <glyph glyph-name="cent" unicode="&#xa2;" 
d="M496 977q-18 6 -45 6q-47 0 -81 -17.5t-55.5 -65.5t-32 -132t-10.5 -215q0 -141 11.5 -225t35.5 -129zM401 129q20 -6 50 -6q35 0 62.5 10t49 37t35.5 72t25 114h143q-10 -78 -32.5 -143.5t-61.5 -112.5t-94.5 -73.5t-126.5 -26.5q-47 0 -76 10l-56 -243h-98l64 278
q-82 55 -121 179t-39 329q0 289 79 421t247 132q37 0 71 -6l51 231h99l-60 -266q63 -41 99.5 -116t50.5 -179h-144q-8 94 -40 143z" />
    <glyph glyph-name="sterling" unicode="&#xa3;" 
d="M66 119q51 25 84.5 64.5t54 87.5t29 102.5t8.5 105.5q0 59 -6.5 102.5t-10.5 94.5h-159v123h135q-16 78 -37 160.5t-21 168.5q0 98 25 168t65.5 115t94 66.5t112.5 21.5q98 0 164 -36t105 -95t56 -136t21 -159h-135q-8 63 -21.5 119.5t-36 96.5t-56 63.5t-82.5 23.5
q-78 0 -121 -48t-43 -177q0 -92 20.5 -179t36.5 -173h217v-123h-192q4 -41 10 -84t6 -88q0 -68 -10 -134.5t-39 -131.5q43 -49 92 -84t109 -35q31 0 58.5 11t48 42t32.5 83t12 134h135q0 -119 -16 -197.5t-51 -126t-89.5 -66.5t-127.5 -19q-37 0 -74 12t-70.5 33.5t-63.5 50
t-50 59.5q-41 -55 -95.5 -100t-123.5 -55v139z" />
    <glyph glyph-name="currency" unicode="&#xa4;" 
d="M160 739q0 -68 21.5 -125t60.5 -98t93 -64.5t120 -23.5t120 23.5t93 64.5t60.5 98.5t21.5 124.5q0 68 -21.5 125.5t-60.5 98.5t-93.5 64.5t-119.5 23.5q-66 0 -120 -23.5t-93 -64.5t-60.5 -98.5t-21.5 -125.5zM811 293l-94 96q-53 -49 -123 -70.5t-139 -21.5
q-70 0 -139.5 21.5t-122.5 70.5l-95 -96l-86 86l94 100q-43 43 -66.5 116t-23.5 144q0 72 23.5 144.5t66.5 115.5l-94 101l86 86l95 -96q53 49 122.5 70.5t139.5 21.5t139.5 -21.5t122.5 -70.5l94 96l86 -86l-94 -101q43 -43 66.5 -115.5t23.5 -144.5t-23.5 -144.5
t-66.5 -115.5l94 -100z" />
    <glyph glyph-name="yen" unicode="&#xa5;" 
d="M723 1479h147l-221 -557h209v-123h-258l-70 -172v-17h328v-123h-328v-487h-147v487h-328v123h328v17l-70 172h-258v123h209l-225 557h147l273 -680z" />
    <glyph glyph-name="brokenbar" unicode="&#xa6;" horiz-adv-x="454" 
d="M160 1499h135v-581h-135v581zM160 561h135v-581h-135v581z" />
    <glyph glyph-name="section" unicode="&#xa7;" horiz-adv-x="1024" 
d="M266 811q0 -35 43 -99.5t103.5 -129t126 -112.5t110.5 -48q47 0 78 38t31 83q0 43 -43 109.5t-102.5 130t-123 109.5t-104.5 46q-59 0 -89 -35t-30 -92zM705 1257q-16 23 -38 46.5t-46.5 42t-53 31t-55.5 12.5q-72 0 -101.5 -32t-29.5 -89q0 -45 38 -96.5t95 -107.5
l123 -117q66 -60 123 -123.5t95 -130t38 -134.5q0 -104 -64.5 -163.5t-164.5 -59.5q47 -53 84.5 -117.5t37.5 -142.5q0 -53 -20.5 -99.5t-55 -79t-80.5 -51t-100 -18.5q-109 0 -187.5 44t-141.5 128l98 78q35 -59 95.5 -99t131.5 -40q53 0 89 39.5t36 91.5q0 53 -39 108
t-96 114.5t-124.5 121t-125 128t-96.5 136.5t-39 143q0 47 20.5 85t53.5 63.5t76 40t88 14.5q-57 55 -90 116.5t-33 141.5q0 43 16.5 82t48 69.5t78.5 48t107 17.5q92 0 169.5 -48t137.5 -116z" />
    <glyph glyph-name="dieresis" unicode="&#xa8;" horiz-adv-x="454" 
d="M295 1413h135v-209h-135v209zM25 1413h135v-209h-135v209z" />
    <glyph glyph-name="copyright" unicode="&#xa9;" horiz-adv-x="1638" 
d="M1225 594q-16 -74 -51 -134.5t-84.5 -102.5t-112 -65.5t-131.5 -23.5q-102 0 -186.5 37t-143.5 100.5t-91 149.5t-32 186t31 186.5t88 150t140 98t188 34.5q72 0 136 -20.5t115.5 -60t85 -98t46.5 -134.5h-129q-16 82 -83 136t-169 54q-74 0 -130.5 -26.5t-94 -72.5
t-57 -108.5t-19.5 -134.5t20.5 -135t60.5 -112t96 -78t128 -29q102 0 167.5 57.5t80.5 145.5h131zM821 102q131 0 244 48.5t195.5 134.5t130 202.5t47.5 253.5q0 135 -47.5 251t-130 201t-195.5 134t-244 49q-133 0 -245.5 -49t-196.5 -134t-131 -200.5t-47 -251.5
q0 -137 47 -253.5t131 -202.5t196.5 -134.5t245.5 -48.5zM821 -20q-158 0 -297 58t-243.5 159.5t-166 241t-61.5 302.5q0 162 61.5 300.5t166 239.5t244 159.5t296.5 58.5q156 0 295 -58.5t243.5 -159.5t165 -239.5t60.5 -300.5q0 -164 -60.5 -303t-165 -240.5
t-243.5 -159.5t-295 -58z" />
    <glyph glyph-name="ordfeminine" unicode="&#xaa;" horiz-adv-x="544" 
d="M352 1176q-29 -10 -63.5 -25.5t-65 -37t-51 -48.5t-20.5 -57q0 -45 18 -63.5t66 -18.5q39 0 69.5 20.5t46.5 44.5v185zM61 1313q12 76 61.5 131t141.5 55q98 0 148.5 -48t50.5 -134v-356q0 -41 4 -72t12 -41h-106l-13 37q-23 -25 -64.5 -37t-74.5 -12q-82 0 -131 45
t-49 127q0 59 31.5 104t78 77t100.5 53.5t101 31.5v37q0 49 -19.5 73.5t-66.5 24.5q-53 0 -77.5 -33t-32.5 -76z" />
    <glyph glyph-name="guillemotleft" unicode="&#xab;" horiz-adv-x="1024" 
d="M717 217l-254 315l254 316h139l-262 -316l262 -315h-139zM422 217l-254 315l254 316h139l-262 -316l262 -315h-139z" />
    <glyph glyph-name="logicalnot" unicode="&#xac;" horiz-adv-x="1228" 
d="M1012 684h-930v135h1065v-573h-135v438z" />
    <glyph glyph-name="uni00AD" unicode="&#xad;" horiz-adv-x="681" 
d="M88 465v135h504v-135h-504z" />
    <glyph glyph-name="registered" unicode="&#xae;" horiz-adv-x="1638" 
d="M666 795h147q61 0 104.5 5t71 20.5t39.5 42t12 71.5q0 68 -44 99.5t-150 31.5h-180v-270zM666 291h-136v889h338q307 0 308 -252q0 -59 -18.5 -103.5t-48.5 -73t-69 -45t-79 -22.5l239 -393h-162l-235 389h-137v-389zM821 102q131 0 244 48.5t195.5 134.5t130 202.5
t47.5 253.5q0 135 -47.5 251t-130 201t-195.5 134t-244 49q-133 0 -245.5 -49t-196.5 -134t-131 -200.5t-47 -251.5q0 -137 47 -253.5t131 -202.5t196.5 -134.5t245.5 -48.5zM821 -20q-158 0 -297 58t-243.5 159.5t-166 241t-61.5 302.5q0 162 61.5 300.5t166 239.5
t244 159.5t296.5 58.5q156 0 295 -58.5t243.5 -159.5t165 -239.5t60.5 -300.5q0 -164 -60.5 -303t-165 -240.5t-243.5 -159.5t-295 -58z" />
    <glyph glyph-name="macron" unicode="&#xaf;" horiz-adv-x="454" 
d="M-45 1257v99h545v-99h-545z" />
    <glyph glyph-name="degree" unicode="&#xb0;" horiz-adv-x="819" 
d="M606 1196q0 43 -15.5 81t-41 66.5t-61 45t-78.5 16.5t-79 -16.5t-61.5 -45t-41 -66.5t-15.5 -81t15.5 -81t41 -66.5t61.5 -45t79 -16.5t78.5 16.5t61 45t41 66.5t15.5 81zM106 1196q0 61 24 116.5t65 97.5t96 65.5t119 23.5q63 0 118.5 -23.5t96.5 -65.5t64.5 -97.5
t23.5 -116.5t-23.5 -116.5t-64.5 -97.5t-96.5 -65.5t-118.5 -23.5t-118.5 23.5t-96.5 65.5t-65 97.5t-24 116.5z" />
    <glyph glyph-name="plusminus" unicode="&#xb1;" horiz-adv-x="1228" 
d="M82 135h1065v-135h-1065v135zM547 1065h135v-348h465v-135h-465v-349h-135v349h-465v135h465v348z" />
    <glyph glyph-name="uni00B2" unicode="&#xb2;" horiz-adv-x="544" 
d="M45 598v102q33 92 88 168l109 146q53 70 92 133t39 131q0 53 -23.5 84t-66.5 31q-51 0 -84 -31t-43 -123h-103q4 76 23.5 126t50.5 80t71 42t83 12q96 0 155.5 -56.5t59.5 -162.5q0 -84 -39 -155.5t-91 -139.5l-109 -135q-56 -68 -89 -145h332v-107h-455z" />
    <glyph glyph-name="uni00B3" unicode="&#xb3;" horiz-adv-x="544" 
d="M61 1303q0 86 47.5 141t147.5 55q39 0 78 -13t67.5 -39t47 -67t18.5 -96q0 -31 -5 -63.5t-18.5 -61.5t-38 -51.5t-61.5 -30.5v-4q82 -27 110.5 -89t28.5 -134q0 -139 -63.5 -201.5t-159.5 -62.5q-109 0 -166 62.5t-57 162.5h110q4 -49 27 -84t88 -35q47 0 77 38t30 118
q0 94 -49.5 130t-147.5 38v106q92 -2 136 29t44 127q0 53 -20.5 84t-69.5 31q-51 0 -69.5 -22.5t-20.5 -67.5h-111z" />
    <glyph glyph-name="acute" unicode="&#xb4;" horiz-adv-x="454" 
d="M213 1184h-102l200 282h160z" />
    <glyph glyph-name="uni00B5" unicode="&#xb5;" 
d="M762 0h-139v117q-53 -53 -121 -95t-121 -42q-49 0 -86 12v-340h-148v1413h148v-786q0 -92 28.5 -134.5t88.5 -42.5q53 0 103 35t99 96v832h148v-1065z" />
    <glyph glyph-name="paragraph" unicode="&#xb6;" horiz-adv-x="1024" 
d="M440 696q-94 0 -170.5 29t-132 81t-85 121.5t-29.5 153.5q0 106 36.5 181t96 123.5t137.5 71t160 22.5h575v-111h-143v-1540h-135v1540h-175v-1540h-135v868z" />
    <glyph glyph-name="periodcentered" unicode="&#xb7;" horiz-adv-x="454" 
d="M127 532q0 41 29.5 71t70.5 30t71 -30t30 -71t-30 -70.5t-71 -29.5t-70.5 29.5t-29.5 70.5z" />
    <glyph glyph-name="cedilla" unicode="&#xb8;" horiz-adv-x="454" 
d="M45 -319q25 -10 58.5 -19.5t74.5 -9.5q61 0 99 23.5t38 60.5q0 35 -28.5 61.5t-81.5 26.5q-25 0 -45.5 -6t-40.5 -15l-29 29l123 168h78l-94 -119l4 -4q20 12 63 12q66 0 114 -36.5t48 -110.5q0 -43 -17.5 -77t-48 -57.5t-70.5 -36.5t-85 -13q-59 0 -103.5 7t-85.5 25z
" />
    <glyph glyph-name="uni00B9" unicode="&#xb9;" horiz-adv-x="544" 
d="M111 696h94v672l-99 -8v74q74 16 138 65h88v-803h106v-98h-327v98z" />
    <glyph glyph-name="ordmasculine" unicode="&#xba;" horiz-adv-x="477" 
d="M334 1167q0 72 -5 118t-17.5 72.5t-31 37t-44.5 10.5q-27 0 -44.5 -10.5t-28.5 -37t-16.5 -72.5t-5.5 -118t5.5 -117.5t16.5 -72.5t28.5 -37t44.5 -10t45 10t30.5 37t17.5 72.5t5 117.5zM27 1167q0 174 49 253t160 79t162 -79t51 -253t-51.5 -252.5t-161.5 -78.5
q-111 0 -160 78.5t-49 252.5z" />
    <glyph glyph-name="guillemotright" unicode="&#xbb;" horiz-adv-x="1024" 
d="M307 848l254 -316l-254 -315h-139l262 315l-262 316h139zM602 848l254 -316l-254 -315h-139l262 315l-262 316h139z" />
    <glyph glyph-name="onequarter" unicode="&#xbc;" horiz-adv-x="1363" 
d="M899 303h170v424h-4zM143 696h95v672l-99 -8v74q74 16 137 65h89v-803h106v-98h-328v98zM186 -20l899 1519h127l-899 -1519h-127zM1184 887v-584h102v-106h-102v-197h-115v197h-285v92l246 598h154z" />
    <glyph glyph-name="onehalf" unicode="&#xbd;" horiz-adv-x="1363" 
d="M143 696h95v672l-99 -8v74q74 16 137 65h89v-803h106v-98h-328v98zM856 0v102q33 92 88 168l109 146q53 70 92 133t39 131q0 53 -23.5 84t-66.5 31q-51 0 -84 -31t-43 -123h-103q4 76 23.5 126t50.5 80t71 42t83 12q96 0 155.5 -56.5t59.5 -162.5q0 -84 -39 -155.5
t-91 -139.5l-109 -135q-56 -68 -89 -146h332v-106h-455zM178 -20l899 1519h127l-899 -1519h-127z" />
    <glyph glyph-name="threequarters" unicode="&#xbe;" horiz-adv-x="1363" 
d="M899 303h170v424h-4zM102 1303q0 86 47.5 141t147.5 55q39 0 78 -13t67.5 -39t47 -67t18.5 -96q0 -31 -5 -63.5t-18.5 -61.5t-38 -51.5t-61.5 -30.5v-4q82 -27 110.5 -89t28.5 -134q0 -139 -63.5 -201.5t-159.5 -62.5q-109 0 -166 62.5t-57 162.5h110q4 -49 27 -84
t88 -35q47 0 77 38t30 118q0 94 -49.5 130t-147.5 38v106q92 -2 136 29t44 127q0 53 -20.5 84t-69.5 31q-51 0 -69.5 -22.5t-20.5 -67.5h-111zM178 -20l899 1519h127l-899 -1519h-127zM1184 887v-584h102v-106h-102v-197h-115v197h-285v92l246 598h154z" />
    <glyph glyph-name="questiondown" unicode="&#xbf;" horiz-adv-x="796" 
d="M397 872v193h172v-193h-172zM528 627v-103q0 -80 -18 -141t-46 -113.5t-60.5 -98.5t-60.5 -95t-46 -106.5t-18 -129.5q0 -80 37.5 -115.5t80.5 -35.5q33 0 59.5 16t44 42t28 56.5t14.5 61.5l123 -25q-6 -57 -27 -107t-55.5 -87t-82.5 -58.5t-110 -21.5q-51 0 -98 17.5
t-83 51t-57.5 85t-21.5 120.5q0 86 20.5 150.5t52.5 118t68.5 100.5t68.5 96t52.5 106.5t20.5 133.5v82h114z" />
    <glyph glyph-name="Agrave" unicode="&#xc0;" 
d="M289 573h332l-164 795h-4zM565 1479l326 -1479h-160l-88 438h-377l-88 -438h-160l326 1479h221zM211 1839h159l201 -282h-102z" />
    <glyph glyph-name="Aacute" unicode="&#xc1;" 
d="M289 573h332l-164 795h-4zM565 1479l326 -1479h-160l-88 438h-377l-88 -438h-160l326 1479h221zM440 1557h-102l200 282h160z" />
    <glyph glyph-name="Acircumflex" unicode="&#xc2;" 
d="M289 573h332l-164 795h-4zM565 1479l326 -1479h-160l-88 438h-377l-88 -438h-160l326 1479h221zM385 1839h139l207 -282h-131l-146 209l-145 -209h-131z" />
    <glyph glyph-name="Atilde" unicode="&#xc3;" 
d="M289 573h332l-164 795h-4zM565 1479l326 -1479h-160l-88 438h-377l-88 -438h-160l326 1479h221zM166 1577q0 33 11 69t31.5 64.5t49 48t65.5 19.5q39 0 75 -14.5t71 -30.5l65 -31q31 -14 58 -14q45 0 59 31.5t18 70.5h74q-2 -37 -11 -73.5t-27.5 -64.5t-48.5 -45t-73 -17
q-33 0 -66.5 14t-68.5 31l-66 30q-32 14 -61 15q-43 0 -60.5 -32t-21.5 -71h-73z" />
    <glyph glyph-name="Adieresis" unicode="&#xc4;" 
d="M289 573h332l-164 795h-4zM565 1479l326 -1479h-160l-88 438h-377l-88 -438h-160l326 1479h221zM522 1786h135v-209h-135v209zM252 1786h135v-209h-135v209z" />
    <glyph glyph-name="Aring" unicode="&#xc5;" 
d="M289 573h332l-164 795h-4zM565 1479l326 -1479h-160l-88 438h-377l-88 -438h-160l326 1479h221zM346 1751q0 -43 32.5 -75.5t75.5 -32.5t76 32.5t33 75.5t-33 76t-76 33t-75.5 -33t-32.5 -76zM260 1751q0 39 14 75t41 62.5t62.5 42t76.5 15.5t77 -15.5t61.5 -42t41 -62.5
t15.5 -75q0 -41 -15.5 -75.5t-41 -61.5t-61.5 -42t-77 -15t-76.5 15t-62.5 42t-41 61.5t-14 75.5z" />
    <glyph glyph-name="AE" unicode="&#xc6;" horiz-adv-x="1478" 
d="M733 573v816h-4l-319 -816h323zM1380 1479v-136h-487v-503h381v-135h-381v-570h512v-135h-672v438h-377l-168 -438h-170l594 1479h768z" />
    <glyph glyph-name="Ccedilla" unicode="&#xc7;" horiz-adv-x="1024" 
d="M330 -319q25 -10 58.5 -19.5t74.5 -9.5q61 0 99 23.5t38 60.5q0 35 -28.5 61.5t-82.5 26.5q-25 0 -45 -6t-41 -15l-28 29l108 150q-90 6 -162.5 51t-123 135t-77 230.5t-26.5 340.5q0 209 30 354.5t85 235.5t135 130t178 40q166 0 263.5 -114.5t115.5 -352.5h-160
q-16 176 -70.5 254t-148.5 78q-70 0 -121 -33t-83.5 -106.5t-48 -193.5t-15.5 -292t15.5 -291.5t48 -193.5t84 -106.5t120.5 -32.5q55 0 99.5 20.5t75 65.5t47 116.5t18.5 174.5h160q-4 -236 -96.5 -367t-266.5 -143l-78 -101l4 -4q20 12 64 12q66 0 114 -36.5t48 -110.5
q0 -43 -17.5 -77t-48.5 -57.5t-70.5 -36.5t-85.5 -13q-59 0 -103 7t-85 25z" />
    <glyph glyph-name="Egrave" unicode="&#xc8;" 
d="M811 1479v-136h-516v-503h381v-135h-381v-570h541v-135h-701v1479h676zM224 1839h159l201 -282h-102z" />
    <glyph glyph-name="Eacute" unicode="&#xc9;" 
d="M811 1479v-136h-516v-503h381v-135h-381v-570h541v-135h-701v1479h676zM453 1557h-102l200 282h160z" />
    <glyph glyph-name="Ecircumflex" unicode="&#xca;" 
d="M811 1479v-136h-516v-503h381v-135h-381v-570h541v-135h-701v1479h676zM398 1839h139l207 -282h-131l-146 209l-145 -209h-131z" />
    <glyph glyph-name="Edieresis" unicode="&#xcb;" 
d="M811 1479v-136h-516v-503h381v-135h-381v-570h541v-135h-701v1479h676zM535 1786h135v-209h-135v209zM265 1786h135v-209h-135v209z" />
    <glyph glyph-name="Igrave" unicode="&#xcc;" horiz-adv-x="454" 
d="M307 1479v-1479h-160v1479h160zM-16 1839h159l201 -282h-102z" />
    <glyph glyph-name="Iacute" unicode="&#xcd;" horiz-adv-x="454" 
d="M307 1479v-1479h-160v1479h160zM213 1557h-102l200 282h160z" />
    <glyph glyph-name="Icircumflex" unicode="&#xce;" horiz-adv-x="454" 
d="M307 1479v-1479h-160v1479h160zM158 1839h139l207 -282h-131l-146 209l-145 -209h-131z" />
    <glyph glyph-name="Idieresis" unicode="&#xcf;" horiz-adv-x="454" 
d="M307 1479v-1479h-160v1479h160zM295 1786h135v-209h-135v209zM25 1786h135v-209h-135v209z" />
    <glyph glyph-name="Eth" unicode="&#xd0;" horiz-adv-x="1024" 
d="M541 840v-135h-246v-570h86q88 0 156.5 23.5t115.5 89t72 183.5t25 308t-25 308t-72 183.5t-115.5 89t-156.5 23.5h-86v-503h246zM135 840v639h275q117 0 209 -36t156.5 -121t99 -227.5t34.5 -355.5t-34.5 -355t-99 -227t-157 -121t-208.5 -36h-275v705h-110v135h110z
" />
    <glyph glyph-name="Ntilde" unicode="&#xd1;" horiz-adv-x="1024" 
d="M365 1479l380 -1090h5v1090h159v-1479h-172l-458 1286h-5v-1286h-159v1479h250zM224 1577q0 33 11 69t31.5 64.5t49 48t65.5 19.5q39 0 75 -14.5t71 -30.5l65 -31q31 -14 58 -14q45 0 59 31.5t18 70.5h74q-2 -37 -11 -73.5t-27.5 -64.5t-48.5 -45t-73 -17q-33 0 -66.5 14
t-68.5 31l-66 30q-32 14 -61 15q-43 0 -60.5 -32t-21.5 -71h-73z" />
    <glyph glyph-name="Ograve" unicode="&#xd2;" horiz-adv-x="1024" 
d="M770 739q0 188 -20.5 309t-55.5 192t-82 97.5t-100 26.5t-100 -26.5t-82 -97.5t-55.5 -191.5t-20.5 -309.5q0 -188 20.5 -309t55.5 -191.5t82 -97t100 -26.5t100 26.5t82 97t55.5 191.5t20.5 309zM930 739q0 -207 -30 -351t-85 -235.5t-132 -132t-171 -40.5t-171 40.5
t-132 132t-85 235.5t-30 351t30 351.5t85 235.5t132 132t171 41t171 -41t132 -132t85 -235.5t30 -351.5zM269 1839h159l201 -282h-102z" />
    <glyph glyph-name="Oacute" unicode="&#xd3;" horiz-adv-x="1024" 
d="M770 739q0 188 -20.5 309t-55.5 192t-82 97.5t-100 26.5t-100 -26.5t-82 -97.5t-55.5 -191.5t-20.5 -309.5q0 -188 20.5 -309t55.5 -191.5t82 -97t100 -26.5t100 26.5t82 97t55.5 191.5t20.5 309zM930 739q0 -207 -30 -351t-85 -235.5t-132 -132t-171 -40.5t-171 40.5
t-132 132t-85 235.5t-30 351t30 351.5t85 235.5t132 132t171 41t171 -41t132 -132t85 -235.5t30 -351.5zM498 1557h-102l200 282h160z" />
    <glyph glyph-name="Ocircumflex" unicode="&#xd4;" horiz-adv-x="1024" 
d="M770 739q0 188 -20.5 309t-55.5 192t-82 97.5t-100 26.5t-100 -26.5t-82 -97.5t-55.5 -191.5t-20.5 -309.5q0 -188 20.5 -309t55.5 -191.5t82 -97t100 -26.5t100 26.5t82 97t55.5 191.5t20.5 309zM930 739q0 -207 -30 -351t-85 -235.5t-132 -132t-171 -40.5t-171 40.5
t-132 132t-85 235.5t-30 351t30 351.5t85 235.5t132 132t171 41t171 -41t132 -132t85 -235.5t30 -351.5zM443 1839h139l207 -282h-131l-146 209l-145 -209h-131z" />
    <glyph glyph-name="Otilde" unicode="&#xd5;" horiz-adv-x="1024" 
d="M770 739q0 188 -20.5 309t-55.5 192t-82 97.5t-100 26.5t-100 -26.5t-82 -97.5t-55.5 -191.5t-20.5 -309.5q0 -188 20.5 -309t55.5 -191.5t82 -97t100 -26.5t100 26.5t82 97t55.5 191.5t20.5 309zM930 739q0 -207 -30 -351t-85 -235.5t-132 -132t-171 -40.5t-171 40.5
t-132 132t-85 235.5t-30 351t30 351.5t85 235.5t132 132t171 41t171 -41t132 -132t85 -235.5t30 -351.5zM224 1577q0 33 11 69t31.5 64.5t49 48t65.5 19.5q39 0 75 -14.5t71 -30.5l65 -31q31 -14 58 -14q45 0 59 31.5t18 70.5h74q-2 -37 -11 -73.5t-27.5 -64.5t-48.5 -45
t-73 -17q-33 0 -66.5 14t-68.5 31l-66 30q-32 14 -61 15q-43 0 -60.5 -32t-21.5 -71h-73z" />
    <glyph glyph-name="Odieresis" unicode="&#xd6;" horiz-adv-x="1024" 
d="M770 739q0 188 -20.5 309t-55.5 192t-82 97.5t-100 26.5t-100 -26.5t-82 -97.5t-55.5 -191.5t-20.5 -309.5q0 -188 20.5 -309t55.5 -191.5t82 -97t100 -26.5t100 26.5t82 97t55.5 191.5t20.5 309zM930 739q0 -207 -30 -351t-85 -235.5t-132 -132t-171 -40.5t-171 40.5
t-132 132t-85 235.5t-30 351t30 351.5t85 235.5t132 132t171 41t171 -41t132 -132t85 -235.5t30 -351.5zM580 1786h135v-209h-135v209zM310 1786h135v-209h-135v209z" />
    <glyph glyph-name="multiply" unicode="&#xd7;" horiz-adv-x="1228" 
d="M713 532l434 -434l-98 -98l-435 436l-434 -436l-98 98l434 434l-434 435l98 98l434 -436l435 436l98 -98z" />
    <glyph glyph-name="Oslash" unicode="&#xd8;" horiz-adv-x="1024" 
d="M668 1284q-35 45 -74 62.5t-82 17.5q-53 0 -100 -26.5t-82 -97.5t-55.5 -191.5t-20.5 -309.5q0 -133 10 -231t29 -166h4zM350 205q35 -51 75 -70.5t87 -19.5q53 0 100 26.5t82 97t55.5 191.5t20.5 309q0 141 -11 242.5t-30 173.5h-4zM172 -246h-111l156 389
q-59 92 -91 237.5t-32 358.5q0 207 30 351.5t85 235.5t132 132t171 41q125 0 213 -69l86 217h111l-119 -304q59 -92 93 -239.5t34 -364.5q0 -207 -30 -351t-85 -235.5t-132 -132t-171 -40.5q-63 0 -118.5 18t-102.5 59z" />
    <glyph glyph-name="Ugrave" unicode="&#xd9;" horiz-adv-x="1024" 
d="M295 1479v-1086q0 -55 9 -106t33.5 -89t66.5 -60.5t108 -22.5t108 22.5t66.5 60.5t33.5 89t9 106v1086h160v-1090q0 -90 -21.5 -164.5t-67.5 -129t-117 -85t-171 -30.5t-171 30.5t-117 85t-67.5 129t-21.5 164.5v1090h160zM269 1839h159l201 -282h-102z" />
    <glyph glyph-name="Uacute" unicode="&#xda;" horiz-adv-x="1024" 
d="M295 1479v-1086q0 -55 9 -106t33.5 -89t66.5 -60.5t108 -22.5t108 22.5t66.5 60.5t33.5 89t9 106v1086h160v-1090q0 -90 -21.5 -164.5t-67.5 -129t-117 -85t-171 -30.5t-171 30.5t-117 85t-67.5 129t-21.5 164.5v1090h160zM498 1557h-102l200 282h160z" />
    <glyph glyph-name="Ucircumflex" unicode="&#xdb;" horiz-adv-x="1024" 
d="M295 1479v-1086q0 -55 9 -106t33.5 -89t66.5 -60.5t108 -22.5t108 22.5t66.5 60.5t33.5 89t9 106v1086h160v-1090q0 -90 -21.5 -164.5t-67.5 -129t-117 -85t-171 -30.5t-171 30.5t-117 85t-67.5 129t-21.5 164.5v1090h160zM443 1839h139l207 -282h-131l-146 209
l-145 -209h-131z" />
    <glyph glyph-name="Udieresis" unicode="&#xdc;" horiz-adv-x="1024" 
d="M295 1479v-1086q0 -55 9 -106t33.5 -89t66.5 -60.5t108 -22.5t108 22.5t66.5 60.5t33.5 89t9 106v1086h160v-1090q0 -90 -21.5 -164.5t-67.5 -129t-117 -85t-171 -30.5t-171 30.5t-117 85t-67.5 129t-21.5 164.5v1090h160zM580 1786h135v-209h-135v209zM310 1786h135
v-209h-135v209z" />
    <glyph glyph-name="Yacute" unicode="&#xdd;" 
d="M205 1479l254 -648l246 648h172l-340 -852v-627h-160v627l-344 852h172zM440 1557h-102l200 282h160z" />
    <glyph glyph-name="Thorn" unicode="&#xde;" 
d="M274 471h168q121 0 187.5 65.5t66.5 204.5t-66.5 205t-187.5 66h-168v-541zM115 1479h159v-332h189q88 0 160.5 -28.5t125 -82t80 -128t27.5 -167.5q0 -92 -27.5 -166.5t-80 -128t-125 -82t-160.5 -28.5h-189v-336h-159v1479z" />
    <glyph glyph-name="germandbls" unicode="&#xdf;" 
d="M147 1188q0 59 19.5 115.5t57.5 99.5t94.5 69.5t127.5 26.5q152 0 240 -101.5t88 -271.5q0 -121 -38 -189.5t-109 -109.5q37 -18 71.5 -46.5t62 -75t45 -115t17.5 -168.5q0 -129 -22.5 -214t-60.5 -136.5t-89 -71.5t-108 -20t-113 24v127q47 -29 100 -29q31 0 56.5 12.5
t46 46.5t32 90t11.5 146q0 197 -49 277t-172 80v123q82 6 127 59t45 192q0 70 -14.5 117t-38 77t-55.5 42t-64 12q-72 0 -116 -52t-44 -136v-1188h-148v1188z" />
    <glyph glyph-name="agrave" unicode="&#xe0;" 
d="M600 573q-51 -16 -112.5 -41.5t-116 -63.5t-90 -88t-35.5 -114q0 -76 35.5 -120t115.5 -44q59 0 110.5 35t92.5 76v360zM127 774q10 63 34.5 119.5t63.5 99.5t92.5 67.5t124.5 24.5q147 0 226.5 -80.5t79.5 -222.5v-594q0 -72 7 -121t19 -67h-153l-19 90
q-23 -23 -51.5 -42t-59 -34.5t-61.5 -24.5t-55 -9q-125 0 -201 73.5t-76 200.5q0 98 48.5 173t123 129t162.5 88t168 52v76q0 88 -41 139.5t-113 51.5q-43 0 -74.5 -19.5t-54 -49.5t-36 -66.5t-19.5 -73.5zM211 1466h159l201 -282h-102z" />
    <glyph glyph-name="aacute" unicode="&#xe1;" 
d="M600 573q-51 -16 -112.5 -41.5t-116 -63.5t-90 -88t-35.5 -114q0 -76 35.5 -120t115.5 -44q59 0 110.5 35t92.5 76v360zM127 774q10 63 34.5 119.5t63.5 99.5t92.5 67.5t124.5 24.5q147 0 226.5 -80.5t79.5 -222.5v-594q0 -72 7 -121t19 -67h-153l-19 90
q-23 -23 -51.5 -42t-59 -34.5t-61.5 -24.5t-55 -9q-125 0 -201 73.5t-76 200.5q0 98 48.5 173t123 129t162.5 88t168 52v76q0 88 -41 139.5t-113 51.5q-43 0 -74.5 -19.5t-54 -49.5t-36 -66.5t-19.5 -73.5zM440 1184h-102l200 282h160z" />
    <glyph glyph-name="acircumflex" unicode="&#xe2;" 
d="M600 573q-51 -16 -112.5 -41.5t-116 -63.5t-90 -88t-35.5 -114q0 -76 35.5 -120t115.5 -44q59 0 110.5 35t92.5 76v360zM127 774q10 63 34.5 119.5t63.5 99.5t92.5 67.5t124.5 24.5q147 0 226.5 -80.5t79.5 -222.5v-594q0 -72 7 -121t19 -67h-153l-19 90
q-23 -23 -51.5 -42t-59 -34.5t-61.5 -24.5t-55 -9q-125 0 -201 73.5t-76 200.5q0 98 48.5 173t123 129t162.5 88t168 52v76q0 88 -41 139.5t-113 51.5q-43 0 -74.5 -19.5t-54 -49.5t-36 -66.5t-19.5 -73.5zM385 1466h139l207 -282h-131l-146 209l-145 -209h-131z" />
    <glyph glyph-name="atilde" unicode="&#xe3;" 
d="M600 573q-51 -16 -112.5 -41.5t-116 -63.5t-90 -88t-35.5 -114q0 -76 35.5 -120t115.5 -44q59 0 110.5 35t92.5 76v360zM127 774q10 63 34.5 119.5t63.5 99.5t92.5 67.5t124.5 24.5q147 0 226.5 -80.5t79.5 -222.5v-594q0 -72 7 -121t19 -67h-153l-19 90
q-23 -23 -51.5 -42t-59 -34.5t-61.5 -24.5t-55 -9q-125 0 -201 73.5t-76 200.5q0 98 48.5 173t123 129t162.5 88t168 52v76q0 88 -41 139.5t-113 51.5q-43 0 -74.5 -19.5t-54 -49.5t-36 -66.5t-19.5 -73.5zM166 1204q0 33 11 69t31.5 64.5t49 48t65.5 19.5q39 0 75 -14.5
t71 -30.5l65 -31q31 -14 58 -14q45 0 59 31.5t18 70.5h74q-2 -37 -11 -73.5t-27.5 -64.5t-48.5 -45t-73 -17q-33 0 -66.5 14t-68.5 31l-66 30q-32 14 -61 15q-43 0 -60.5 -32t-21.5 -71h-73z" />
    <glyph glyph-name="adieresis" unicode="&#xe4;" 
d="M600 573q-51 -16 -112.5 -41.5t-116 -63.5t-90 -88t-35.5 -114q0 -76 35.5 -120t115.5 -44q59 0 110.5 35t92.5 76v360zM127 774q10 63 34.5 119.5t63.5 99.5t92.5 67.5t124.5 24.5q147 0 226.5 -80.5t79.5 -222.5v-594q0 -72 7 -121t19 -67h-153l-19 90
q-23 -23 -51.5 -42t-59 -34.5t-61.5 -24.5t-55 -9q-125 0 -201 73.5t-76 200.5q0 98 48.5 173t123 129t162.5 88t168 52v76q0 88 -41 139.5t-113 51.5q-43 0 -74.5 -19.5t-54 -49.5t-36 -66.5t-19.5 -73.5zM522 1413h135v-209h-135v209zM252 1413h135v-209h-135v209z" />
    <glyph glyph-name="aring" unicode="&#xe5;" 
d="M600 573q-51 -16 -112.5 -41.5t-116 -63.5t-90 -88t-35.5 -114q0 -76 35.5 -120t115.5 -44q59 0 110.5 35t92.5 76v360zM127 774q10 63 34.5 119.5t63.5 99.5t92.5 67.5t124.5 24.5q147 0 226.5 -80.5t79.5 -222.5v-594q0 -72 7 -121t19 -67h-153l-19 90
q-23 -23 -51.5 -42t-59 -34.5t-61.5 -24.5t-55 -9q-125 0 -201 73.5t-76 200.5q0 98 48.5 173t123 129t162.5 88t168 52v76q0 88 -41 139.5t-113 51.5q-43 0 -74.5 -19.5t-54 -49.5t-36 -66.5t-19.5 -73.5zM346 1378q0 -43 32.5 -75.5t75.5 -32.5t76 32.5t33 75.5t-33 76
t-76 33t-75.5 -33t-32.5 -76zM260 1378q0 39 14 75t41 62.5t62.5 42t76.5 15.5t77 -15.5t61.5 -42t41 -62.5t15.5 -75q0 -41 -15.5 -75.5t-41 -61.5t-61.5 -42t-77 -15t-76.5 15t-62.5 42t-41 61.5t-14 75.5z" />
    <glyph glyph-name="ae" unicode="&#xe6;" horiz-adv-x="1251" 
d="M1030 631q-4 172 -41 252t-137 80q-74 0 -124 -78t-54 -254h356zM526 573l-91 -42q-54 -26 -104 -63.5t-86 -87.5t-36 -114q0 -76 36 -120t115 -44q47 0 94.5 35t71.5 76v360zM674 508v-59q0 -98 18.5 -164t47 -107t63.5 -58.5t69 -17.5q43 0 73 17.5t51.5 46.5
t34.5 64.5t20 72.5l139 -16q-8 -59 -35 -114.5t-67.5 -98.5t-96 -68.5t-121.5 -25.5q-86 0 -154.5 30.5t-111.5 114.5q-86 -92 -153.5 -118.5t-112.5 -26.5q-125 0 -201 73.5t-76 200.5q0 98 48.5 173t119 129t151.5 88t146 52v76q0 98 -37.5 144.5t-99.5 46.5
q-33 0 -59.5 -19.5t-48 -49.5t-36 -66.5t-20.5 -73.5l-135 20q10 63 35 119.5t62.5 99.5t92 67.5t123.5 24.5q82 0 135.5 -37.5t82.5 -93.5q47 68 106 99.5t125 31.5q84 0 145.5 -35.5t101.5 -102t59.5 -161t19.5 -208.5v-70h-504z" />
    <glyph glyph-name="ccedilla" unicode="&#xe7;" horiz-adv-x="796" 
d="M217 -319q25 -10 58.5 -19.5t74.5 -9.5q61 0 99 23.5t38 60.5q0 35 -28.5 61.5t-81.5 26.5q-25 0 -45.5 -6t-40.5 -15l-29 29l109 150q-154 8 -226.5 140t-72.5 410q0 289 78.5 421t246.5 132q145 0 217 -89t95 -246h-144q-10 121 -55 167t-113 46q-47 0 -80.5 -17.5
t-55 -66t-32 -132t-10.5 -215.5q0 -133 10.5 -216t32 -131t55 -65.5t80.5 -17.5q35 0 62.5 10.5t49 37t36 71.5t24.5 115h144q-16 -143 -80 -238.5t-184 -113.5l-80 -103l4 -4q20 12 63 12q66 0 114 -36.5t48 -110.5q0 -43 -17.5 -77t-48 -57.5t-70.5 -36.5t-85 -13
q-59 0 -103.5 7t-85.5 25z" />
    <glyph glyph-name="egrave" unicode="&#xe8;" horiz-adv-x="796" 
d="M575 631q-4 172 -40.5 252t-137.5 80q-41 0 -72.5 -16.5t-55 -54.5t-37 -102.5t-13.5 -158.5h356zM219 508v-59q0 -98 11.5 -164t36 -107t61.5 -58.5t90 -17.5q43 0 72.5 17.5t51 46.5t35 64.5t19.5 72.5l139 -16q-8 -59 -34.5 -114.5t-69.5 -98.5t-101.5 -68.5
t-132.5 -25.5q-168 0 -246.5 132t-78.5 420q0 289 78.5 421t246.5 132q84 0 145.5 -35.5t101.5 -102t59.5 -161t19.5 -208.5v-70h-504zM156 1466h159l201 -282h-102z" />
    <glyph glyph-name="eacute" unicode="&#xe9;" horiz-adv-x="796" 
d="M575 631q-4 172 -40.5 252t-137.5 80q-41 0 -72.5 -16.5t-55 -54.5t-37 -102.5t-13.5 -158.5h356zM219 508v-59q0 -98 11.5 -164t36 -107t61.5 -58.5t90 -17.5q43 0 72.5 17.5t51 46.5t35 64.5t19.5 72.5l139 -16q-8 -59 -34.5 -114.5t-69.5 -98.5t-101.5 -68.5
t-132.5 -25.5q-168 0 -246.5 132t-78.5 420q0 289 78.5 421t246.5 132q84 0 145.5 -35.5t101.5 -102t59.5 -161t19.5 -208.5v-70h-504zM385 1184h-102l200 282h160z" />
    <glyph glyph-name="ecircumflex" unicode="&#xea;" horiz-adv-x="796" 
d="M575 631q-4 172 -40.5 252t-137.5 80q-41 0 -72.5 -16.5t-55 -54.5t-37 -102.5t-13.5 -158.5h356zM219 508v-59q0 -98 11.5 -164t36 -107t61.5 -58.5t90 -17.5q43 0 72.5 17.5t51 46.5t35 64.5t19.5 72.5l139 -16q-8 -59 -34.5 -114.5t-69.5 -98.5t-101.5 -68.5
t-132.5 -25.5q-168 0 -246.5 132t-78.5 420q0 289 78.5 421t246.5 132q84 0 145.5 -35.5t101.5 -102t59.5 -161t19.5 -208.5v-70h-504zM330 1466h139l207 -282h-131l-146 209l-145 -209h-131z" />
    <glyph glyph-name="edieresis" unicode="&#xeb;" horiz-adv-x="796" 
d="M575 631q-4 172 -40.5 252t-137.5 80q-41 0 -72.5 -16.5t-55 -54.5t-37 -102.5t-13.5 -158.5h356zM219 508v-59q0 -98 11.5 -164t36 -107t61.5 -58.5t90 -17.5q43 0 72.5 17.5t51 46.5t35 64.5t19.5 72.5l139 -16q-8 -59 -34.5 -114.5t-69.5 -98.5t-101.5 -68.5
t-132.5 -25.5q-168 0 -246.5 132t-78.5 420q0 289 78.5 421t246.5 132q84 0 145.5 -35.5t101.5 -102t59.5 -161t19.5 -208.5v-70h-504zM467 1413h135v-209h-135v209zM197 1413h135v-209h-135v209z" />
    <glyph glyph-name="igrave" unicode="&#xec;" horiz-adv-x="454" 
d="M154 1065h147v-1065h-147v1065zM-16 1466h159l201 -282h-102z" />
    <glyph glyph-name="iacute" unicode="&#xed;" horiz-adv-x="454" 
d="M154 1065h147v-1065h-147v1065zM213 1184h-102l200 282h160z" />
    <glyph glyph-name="icircumflex" unicode="&#xee;" horiz-adv-x="454" 
d="M154 1065h147v-1065h-147v1065zM158 1466h139l207 -282h-131l-146 209l-145 -209h-131z" />
    <glyph glyph-name="idieresis" unicode="&#xef;" horiz-adv-x="454" 
d="M154 1065h147v-1065h-147v1065zM295 1413h135v-209h-135v209zM25 1413h135v-209h-135v209z" />
    <glyph glyph-name="eth" unicode="&#xf0;" horiz-adv-x="796" 
d="M219 532q0 -133 10.5 -216t32 -131t55 -65.5t80.5 -17.5t81 17.5t55.5 65.5t31.5 131t10 216q0 131 -10 215t-31.5 132.5t-55.5 66t-81 17.5t-80.5 -17.5t-55 -66t-32 -132.5t-10.5 -215zM406 1479q27 -25 50 -51.5t46 -57.5l200 76l50 -94l-191 -72q88 -154 125 -344.5
t37 -403.5q0 -289 -79 -420.5t-247 -131.5t-246.5 132t-78.5 420q0 289 78.5 421t246.5 132q31 0 57.5 -4t43.5 -14q-10 43 -27.5 84t-40.5 78l-186 -70l-49 94l174 66q-45 63 -99 115z" />
    <glyph glyph-name="ntilde" unicode="&#xf1;" 
d="M147 1065h140v-117q53 53 120.5 95t120.5 42q111 0 172.5 -65.5t61.5 -212.5v-807h-148v786q0 92 -28.5 134.5t-87.5 42.5q-53 0 -103.5 -35t-99.5 -97v-831h-148v1065zM166 1204q0 33 11 69t31.5 64.5t49 48t65.5 19.5q39 0 75 -14.5t71 -30.5l65 -31q31 -14 58 -14
q45 0 59 31.5t18 70.5h74q-2 -37 -11 -73.5t-27.5 -64.5t-48.5 -45t-73 -17q-33 0 -66.5 14t-68.5 31l-66 30q-32 14 -61 15q-43 0 -60.5 -32t-21.5 -71h-73z" />
    <glyph glyph-name="ograve" unicode="&#xf2;" horiz-adv-x="796" 
d="M219 532q0 -133 10.5 -216t32 -131t55 -65.5t80.5 -17.5t81 17.5t55.5 65.5t31.5 131t10 216q0 131 -10 215t-31.5 132.5t-55.5 66t-81 17.5t-80.5 -17.5t-55 -66t-32 -132.5t-10.5 -215zM72 532q0 289 78.5 421t246.5 132t247 -132t79 -421t-79 -420.5t-247 -131.5
t-246.5 131.5t-78.5 420.5zM156 1466h159l201 -282h-102z" />
    <glyph glyph-name="oacute" unicode="&#xf3;" horiz-adv-x="796" 
d="M219 532q0 -133 10.5 -216t32 -131t55 -65.5t80.5 -17.5t81 17.5t55.5 65.5t31.5 131t10 216q0 131 -10 215t-31.5 132.5t-55.5 66t-81 17.5t-80.5 -17.5t-55 -66t-32 -132.5t-10.5 -215zM72 532q0 289 78.5 421t246.5 132t247 -132t79 -421t-79 -420.5t-247 -131.5
t-246.5 131.5t-78.5 420.5zM385 1184h-102l200 282h160z" />
    <glyph glyph-name="ocircumflex" unicode="&#xf4;" horiz-adv-x="796" 
d="M219 532q0 -133 10.5 -216t32 -131t55 -65.5t80.5 -17.5t81 17.5t55.5 65.5t31.5 131t10 216q0 131 -10 215t-31.5 132.5t-55.5 66t-81 17.5t-80.5 -17.5t-55 -66t-32 -132.5t-10.5 -215zM72 532q0 289 78.5 421t246.5 132t247 -132t79 -421t-79 -420.5t-247 -131.5
t-246.5 131.5t-78.5 420.5zM330 1466h139l207 -282h-131l-146 209l-145 -209h-131z" />
    <glyph glyph-name="otilde" unicode="&#xf5;" horiz-adv-x="796" 
d="M219 532q0 -133 10.5 -216t32 -131t55 -65.5t80.5 -17.5t81 17.5t55.5 65.5t31.5 131t10 216q0 131 -10 215t-31.5 132.5t-55.5 66t-81 17.5t-80.5 -17.5t-55 -66t-32 -132.5t-10.5 -215zM72 532q0 289 78.5 421t246.5 132t247 -132t79 -421t-79 -420.5t-247 -131.5
t-246.5 131.5t-78.5 420.5zM111 1204q0 33 11 69t31.5 64.5t49 48t65.5 19.5q39 0 75 -14.5t71 -30.5l65 -31q31 -14 58 -14q45 0 59 31.5t18 70.5h74q-2 -37 -11 -73.5t-27.5 -64.5t-48.5 -45t-73 -17q-33 0 -66.5 14t-68.5 31l-66 30q-32 14 -61 15q-43 0 -60.5 -32
t-21.5 -71h-73z" />
    <glyph glyph-name="odieresis" unicode="&#xf6;" horiz-adv-x="796" 
d="M219 532q0 -133 10.5 -216t32 -131t55 -65.5t80.5 -17.5t81 17.5t55.5 65.5t31.5 131t10 216q0 131 -10 215t-31.5 132.5t-55.5 66t-81 17.5t-80.5 -17.5t-55 -66t-32 -132.5t-10.5 -215zM72 532q0 289 78.5 421t246.5 132t247 -132t79 -421t-79 -420.5t-247 -131.5
t-246.5 131.5t-78.5 420.5zM467 1413h135v-209h-135v209zM197 1413h135v-209h-135v209z" />
    <glyph glyph-name="divide" unicode="&#xf7;" horiz-adv-x="1228" 
d="M479 950q0 55 40 95t95 40t95.5 -39.5t40.5 -95.5q0 -55 -40 -95t-96 -40q-55 0 -95 40t-40 95zM479 115q0 55 40 95t95 40t95.5 -40t40.5 -95t-40 -95t-96 -40q-55 0 -95 40t-40 95zM82 465v135h1065v-135h-1065z" />
    <glyph glyph-name="oslash" unicode="&#xf8;" horiz-adv-x="796" 
d="M297 137q18 -20 44 -27.5t56 -7.5q47 0 81 17.5t55.5 65.5t31.5 131t10 216q0 170 -16 265h-4zM504 924q-37 39 -107 39q-47 0 -80.5 -17.5t-55 -66t-32 -132t-10.5 -215.5q0 -184 19 -278h4zM627 975q96 -129 96 -443q0 -289 -79 -420.5t-247 -131.5q-90 0 -147 36
l-105 -262h-102l129 326q-100 131 -100 452q0 289 78.5 421t246.5 132q96 0 156 -41l96 246h103z" />
    <glyph glyph-name="ugrave" unicode="&#xf9;" 
d="M762 0h-139v117q-53 -53 -121 -95t-121 -42q-111 0 -172.5 65.5t-61.5 212.5v807h148v-786q0 -92 28.5 -134.5t88.5 -42.5q53 0 103 35t99 96v832h148v-1065zM211 1466h159l201 -282h-102z" />
    <glyph glyph-name="uacute" unicode="&#xfa;" 
d="M762 0h-139v117q-53 -53 -121 -95t-121 -42q-111 0 -172.5 65.5t-61.5 212.5v807h148v-786q0 -92 28.5 -134.5t88.5 -42.5q53 0 103 35t99 96v832h148v-1065zM440 1184h-102l200 282h160z" />
    <glyph glyph-name="ucircumflex" unicode="&#xfb;" 
d="M762 0h-139v117q-53 -53 -121 -95t-121 -42q-111 0 -172.5 65.5t-61.5 212.5v807h148v-786q0 -92 28.5 -134.5t88.5 -42.5q53 0 103 35t99 96v832h148v-1065zM385 1466h139l207 -282h-131l-146 209l-145 -209h-131z" />
    <glyph glyph-name="udieresis" unicode="&#xfc;" 
d="M762 0h-139v117q-53 -53 -121 -95t-121 -42q-111 0 -172.5 65.5t-61.5 212.5v807h148v-786q0 -92 28.5 -134.5t88.5 -42.5q53 0 103 35t99 96v832h148v-1065zM522 1413h135v-209h-135v209zM252 1413h135v-209h-135v209z" />
    <glyph glyph-name="yacute" unicode="&#xfd;" horiz-adv-x="681" 
d="M156 1065l200 -815h4l164 815h152l-244 -1042q-41 -176 -121 -273.5t-215 -97.5h-76v123h46q88 0 143 60.5t78 172.5l-283 1057h152zM328 1184h-102l200 282h160z" />
    <glyph glyph-name="thorn" unicode="&#xfe;" 
d="M307 197q33 -33 72 -64t88 -31q47 0 84 21.5t61.5 71t38 132.5t13.5 205q0 123 -14.5 206t-40 132.5t-63.5 71t-83 21.5q-35 0 -78 -28t-78 -75v-663zM299 987h4q31 39 80 68.5t121 29.5q63 0 118.5 -28.5t97.5 -94t66.5 -171t24.5 -259.5t-24.5 -259t-66.5 -170.5
t-97.5 -94t-118.5 -28.5q-59 0 -109.5 30.5t-87.5 67.5v-426h-147v1827h139v-492z" />
    <glyph glyph-name="ydieresis" unicode="&#xff;" horiz-adv-x="681" 
d="M156 1065l200 -815h4l164 815h152l-244 -1042q-41 -176 -121 -273.5t-215 -97.5h-76v123h46q88 0 143 60.5t78 172.5l-283 1057h152zM410 1413h135v-209h-135v209zM140 1413h135v-209h-135v209z" />
    <glyph glyph-name="Amacron" unicode="&#x100;" 
d="M289 573h332l-164 795h-4zM565 1479l326 -1479h-160l-88 438h-377l-88 -438h-160l326 1479h221zM184 1630v99h545v-99h-545z" />
    <glyph glyph-name="amacron" unicode="&#x101;" 
d="M600 573q-51 -16 -112.5 -41.5t-116 -63.5t-90 -88t-35.5 -114q0 -76 35.5 -120t115.5 -44q59 0 110.5 35t92.5 76v360zM127 774q10 63 34.5 119.5t63.5 99.5t92.5 67.5t124.5 24.5q147 0 226.5 -80.5t79.5 -222.5v-594q0 -72 7 -121t19 -67h-153l-19 90
q-23 -23 -51.5 -42t-59 -34.5t-61.5 -24.5t-55 -9q-125 0 -201 73.5t-76 200.5q0 98 48.5 173t123 129t162.5 88t168 52v76q0 88 -41 139.5t-113 51.5q-43 0 -74.5 -19.5t-54 -49.5t-36 -66.5t-19.5 -73.5zM174 1257v99h545v-99h-545z" />
    <glyph glyph-name="Abreve" unicode="&#x102;" 
d="M289 573h332l-164 795h-4zM565 1479l326 -1479h-160l-88 438h-377l-88 -438h-160l326 1479h221zM270 1827q8 -86 59.5 -125t135.5 -39q86 0 123.5 43t54.5 121h78q-10 -125 -81 -193.5t-196 -68.5q-57 0 -102 20.5t-78 56t-51.5 83t-20.5 102.5h78z" />
    <glyph glyph-name="abreve" unicode="&#x103;" 
d="M600 573q-51 -16 -112.5 -41.5t-116 -63.5t-90 -88t-35.5 -114q0 -76 35.5 -120t115.5 -44q59 0 110.5 35t92.5 76v360zM127 774q10 63 34.5 119.5t63.5 99.5t92.5 67.5t124.5 24.5q147 0 226.5 -80.5t79.5 -222.5v-594q0 -72 7 -121t19 -67h-153l-19 90
q-23 -23 -51.5 -42t-59 -34.5t-61.5 -24.5t-55 -9q-125 0 -201 73.5t-76 200.5q0 98 48.5 173t123 129t162.5 88t168 52v76q0 88 -41 139.5t-113 51.5q-43 0 -74.5 -19.5t-54 -49.5t-36 -66.5t-19.5 -73.5zM260 1454q8 -86 59.5 -125t135.5 -39q86 0 123.5 43t54.5 121h78
q-10 -125 -81 -193.5t-196 -68.5q-57 0 -102 20.5t-78 56.5t-51.5 83t-20.5 102h78z" />
    <glyph glyph-name="Aogonek" unicode="&#x104;" 
d="M565 1479l326 -1479h-66q-23 -8 -49 -20q-55 -23 -105 -53.5t-85 -70.5t-35 -92q0 -59 32.5 -83.5t88.5 -24.5q57 0 117.5 29.5t99.5 54.5l33 -66q-61 -43 -142.5 -77.5t-158.5 -34.5q-70 0 -125.5 42t-55.5 134q0 78 45 130t111 87q63 31 133 49l-86 434h-377l-88 -438
h-160l326 1479h221zM289 573h332l-164 795h-4z" />
    <glyph glyph-name="aogonek" unicode="&#x105;" 
d="M127 774q10 63 34.5 119.5t63.5 99.5t92.5 67.5t124.5 24.5q147 0 226.5 -80.5t79.5 -222.5v-594q0 -72 7 -121t19 -67h-37q-33 -12 -63 -27q-35 -16 -78 -46.5t-71.5 -72.5t-28.5 -94q0 -53 29.5 -78.5t76.5 -25.5q49 0 87 16.5t83 46.5l33 -65q-57 -43 -109.5 -67.5
t-126.5 -24.5t-129 43t-55 131q0 74 42 129t97 90q51 31 101 45h-4l-19 90q-23 -23 -51.5 -42t-59 -34.5t-61.5 -24.5t-55 -9q-125 0 -201 73.5t-76 200.5q0 98 48.5 173t123 129t162.5 88t168 52v76q0 88 -41 139.5t-113 51.5q-43 0 -74.5 -19.5t-54 -49.5t-36 -66.5
t-19.5 -73.5zM600 573q-51 -16 -112.5 -41.5t-116 -63.5t-90 -88t-35.5 -114q0 -76 35.5 -120t115.5 -44q59 0 110.5 35t92.5 76v360z" />
    <glyph glyph-name="Cacute" unicode="&#x106;" horiz-adv-x="1024" 
d="M741 1032q-16 176 -70.5 254t-148.5 78q-70 0 -121 -33t-83.5 -106.5t-48 -193.5t-15.5 -292t15.5 -291.5t48 -193.5t84 -106.5t120.5 -32.5q55 0 99.5 20.5t75 65.5t47 116.5t18.5 174.5h160q-4 -248 -106.5 -380t-293.5 -132q-98 0 -178 39.5t-135 130t-85 235.5
t-30 354t30 354.5t85 235.5t135 130t178 40q166 0 263.5 -114.5t115.5 -352.5h-160zM502 1556h-102l200 283h160z" />
    <glyph glyph-name="cacute" unicode="&#x107;" horiz-adv-x="796" 
d="M565 750q-10 121 -55 167t-113 46q-47 0 -80.5 -17.5t-55 -66t-32 -132t-10.5 -215.5q0 -133 10.5 -216t32 -131t55 -65.5t80.5 -17.5q35 0 62.5 10.5t49 37t36 71.5t24.5 115h144q-10 -78 -33 -143.5t-61.5 -112.5t-94 -73.5t-127.5 -26.5q-168 0 -246.5 132t-78.5 420
q0 289 78.5 421t246.5 132q145 0 217 -89t95 -246h-144zM391 1184h-102l200 282h160z" />
    <glyph glyph-name="Ccircumflex" unicode="&#x108;" horiz-adv-x="1024" 
d="M741 1032q-16 176 -70.5 254t-148.5 78q-70 0 -121 -33t-83.5 -106.5t-48 -193.5t-15.5 -292t15.5 -291.5t48 -193.5t84 -106.5t120.5 -32.5q55 0 99.5 20.5t75 65.5t47 116.5t18.5 174.5h160q-4 -248 -106.5 -380t-293.5 -132q-98 0 -178 39.5t-135 130t-85 235.5
t-30 354t30 354.5t85 235.5t135 130t178 40q166 0 263.5 -114.5t115.5 -352.5h-160zM441 1839h139l207 -283h-131l-146 209l-145 -209h-131z" />
    <glyph glyph-name="ccircumflex" unicode="&#x109;" horiz-adv-x="796" 
d="M565 750q-10 121 -55 167t-113 46q-47 0 -80.5 -17.5t-55 -66t-32 -132t-10.5 -215.5q0 -133 10.5 -216t32 -131t55 -65.5t80.5 -17.5q35 0 62.5 10.5t49 37t36 71.5t24.5 115h144q-10 -78 -33 -143.5t-61.5 -112.5t-94 -73.5t-127.5 -26.5q-168 0 -246.5 132t-78.5 420
q0 289 78.5 421t246.5 132q145 0 217 -89t95 -246h-144zM328 1466h139l207 -282h-131l-146 209l-145 -209h-131z" />
    <glyph glyph-name="Cdotaccent" unicode="&#x10a;" horiz-adv-x="1024" 
d="M741 1032q-16 176 -70.5 254t-148.5 78q-70 0 -121 -33t-83.5 -106.5t-48 -193.5t-15.5 -292t15.5 -291.5t48 -193.5t84 -106.5t120.5 -32.5q55 0 99.5 20.5t75 65.5t47 116.5t18.5 174.5h160q-4 -248 -106.5 -380t-293.5 -132q-98 0 -178 39.5t-135 130t-85 235.5
t-30 354t30 354.5t85 235.5t135 130t178 40q166 0 263.5 -114.5t115.5 -352.5h-160zM443 1786h135v-209h-135v209z" />
    <glyph glyph-name="cdotaccent" unicode="&#x10b;" horiz-adv-x="796" 
d="M565 750q-10 121 -55 167t-113 46q-47 0 -80.5 -17.5t-55 -66t-32 -132t-10.5 -215.5q0 -133 10.5 -216t32 -131t55 -65.5t80.5 -17.5q35 0 62.5 10.5t49 37t36 71.5t24.5 115h144q-10 -78 -33 -143.5t-61.5 -112.5t-94 -73.5t-127.5 -26.5q-168 0 -246.5 132t-78.5 420
q0 289 78.5 421t246.5 132q145 0 217 -89t95 -246h-144zM332 1413h135v-209h-135v209z" />
    <glyph glyph-name="Ccaron" unicode="&#x10c;" horiz-adv-x="1024" 
d="M741 1032q-16 176 -70.5 254t-148.5 78q-70 0 -121 -33t-83.5 -106.5t-48 -193.5t-15.5 -292t15.5 -291.5t48 -193.5t84 -106.5t120.5 -32.5q55 0 99.5 20.5t75 65.5t47 116.5t18.5 174.5h160q-4 -248 -106.5 -380t-293.5 -132q-98 0 -178 39.5t-135 130t-85 235.5
t-30 354t30 354.5t85 235.5t135 130t178 40q166 0 263.5 -114.5t115.5 -352.5h-160zM236 1839h131l145 -209l146 209h131l-207 -283h-139z" />
    <glyph glyph-name="ccaron" unicode="&#x10d;" horiz-adv-x="796" 
d="M565 750q-10 121 -55 167t-113 46q-47 0 -80.5 -17.5t-55 -66t-32 -132t-10.5 -215.5q0 -133 10.5 -216t32 -131t55 -65.5t80.5 -17.5q35 0 62.5 10.5t49 37t36 71.5t24.5 115h144q-10 -78 -33 -143.5t-61.5 -112.5t-94 -73.5t-127.5 -26.5q-168 0 -246.5 132t-78.5 420
q0 289 78.5 421t246.5 132q145 0 217 -89t95 -246h-144zM121 1466h131l145 -209l146 209h131l-207 -282h-139z" />
    <glyph glyph-name="Dcaron" unicode="&#x10e;" horiz-adv-x="1024" 
d="M295 135h86q88 0 156.5 23.5t115.5 89t72 183.5t25 308t-25 308t-72 183.5t-115.5 89t-156.5 23.5h-86v-1208zM135 1479h275q117 0 209 -36t156.5 -121t99 -227.5t34.5 -355.5t-34.5 -355t-99 -227t-157 -121t-208.5 -36h-275v1479zM178 1839h131l145 -209l146 209h131
l-207 -283h-139z" />
    <glyph glyph-name="dcaron" unicode="&#x10f;" 
d="M602 868q-33 33 -71.5 64t-88.5 31q-47 0 -83.5 -21.5t-61.5 -71t-38 -132.5t-13 -206t14 -205.5t40 -132t62.5 -71t83.5 -21.5q35 0 78 28t78 75v663zM629 102h-4q-39 -57 -93.5 -89.5t-125.5 -32.5q-63 0 -119 28.5t-98 94t-66.5 171t-24.5 258.5q0 154 24.5 259.5
t66.5 171t97.5 94t119.5 28.5q59 0 109 -30.5t87 -67.5v492h148v-1192q0 -104 6 -172t18 -115h-139zM979 1479v-150l-86 -182h-55l70 182h-74v150h145z" />
    <glyph glyph-name="Dcroat" unicode="&#x110;" horiz-adv-x="1024" 
d="M541 840v-135h-246v-570h86q88 0 156.5 23.5t115.5 89t72 183.5t25 308t-25 308t-72 183.5t-115.5 89t-156.5 23.5h-86v-503h246zM135 840v639h275q117 0 209 -36t156.5 -121t99 -227.5t34.5 -355.5t-34.5 -355t-99 -227t-157 -121t-208.5 -36h-275v705h-110v135h110z
" />
    <glyph glyph-name="dcroat" unicode="&#x111;" 
d="M629 102h-4q-39 -57 -93.5 -89.5t-125.5 -32.5q-63 0 -119 28.5t-98 94t-66.5 171t-24.5 258.5q0 147 24.5 250t66.5 165.5t97.5 91t119.5 28.5q59 0 109 -27.5t87 -64.5v233h-252v115h252v156h148v-156h106v-115h-106v-921q0 -104 6 -172t18 -115h-139zM602 856
q-33 33 -71.5 63.5t-88.5 30.5q-47 0 -83.5 -21.5t-61.5 -70.5t-38 -129t-13 -197q0 -123 14 -205.5t40 -132t62.5 -71t83.5 -21.5q35 0 78 28t78 75v651z" />
    <glyph glyph-name="Emacron" unicode="&#x112;" 
d="M811 1479v-136h-516v-503h381v-135h-381v-570h541v-135h-701v1479h676zM195 1630v99h545v-99h-545z" />
    <glyph glyph-name="emacron" unicode="&#x113;" horiz-adv-x="796" 
d="M575 631q-4 172 -40.5 252t-137.5 80q-41 0 -72.5 -16.5t-55 -54.5t-37 -102.5t-13.5 -158.5h356zM219 508v-59q0 -98 11.5 -164t36 -107t61.5 -58.5t90 -17.5q43 0 72.5 17.5t51 46.5t35 64.5t19.5 72.5l139 -16q-8 -59 -34.5 -114.5t-69.5 -98.5t-101.5 -68.5
t-132.5 -25.5q-168 0 -246.5 132t-78.5 420q0 289 78.5 421t246.5 132q84 0 145.5 -35.5t101.5 -102t59.5 -161t19.5 -208.5v-70h-504zM127 1257v99h545v-99h-545z" />
    <glyph glyph-name="Ebreve" unicode="&#x114;" 
d="M811 1479v-136h-516v-503h381v-135h-381v-570h541v-135h-701v1479h676zM283 1827q8 -86 59.5 -125t135.5 -39q86 0 123.5 43t54.5 121h78q-10 -125 -81 -193.5t-196 -68.5q-57 0 -102 20.5t-78 56t-51.5 83t-20.5 102.5h78z" />
    <glyph glyph-name="ebreve" unicode="&#x115;" horiz-adv-x="796" 
d="M575 631q-4 172 -40.5 252t-137.5 80q-41 0 -72.5 -16.5t-55 -54.5t-37 -102.5t-13.5 -158.5h356zM219 508v-59q0 -98 11.5 -164t36 -107t61.5 -58.5t90 -17.5q43 0 72.5 17.5t51 46.5t35 64.5t19.5 72.5l139 -16q-8 -59 -34.5 -114.5t-69.5 -98.5t-101.5 -68.5
t-132.5 -25.5q-168 0 -246.5 132t-78.5 420q0 289 78.5 421t246.5 132q84 0 145.5 -35.5t101.5 -102t59.5 -161t19.5 -208.5v-70h-504zM213 1454q8 -86 59.5 -125t135.5 -39q86 0 123.5 43t54.5 121h78q-10 -125 -81 -193.5t-196 -68.5q-57 0 -102 20.5t-78 56.5t-51.5 83
t-20.5 102h78z" />
    <glyph glyph-name="Edotaccent" unicode="&#x116;" 
d="M811 1479v-136h-516v-503h381v-135h-381v-570h541v-135h-701v1479h676zM400 1786h135v-209h-135v209z" />
    <glyph glyph-name="edotaccent" unicode="&#x117;" horiz-adv-x="796" 
d="M575 631q-4 172 -40.5 252t-137.5 80q-41 0 -72.5 -16.5t-55 -54.5t-37 -102.5t-13.5 -158.5h356zM219 508v-59q0 -98 11.5 -164t36 -107t61.5 -58.5t90 -17.5q43 0 72.5 17.5t51 46.5t35 64.5t19.5 72.5l139 -16q-8 -59 -34.5 -114.5t-69.5 -98.5t-101.5 -68.5
t-132.5 -25.5q-168 0 -246.5 132t-78.5 420q0 289 78.5 421t246.5 132q84 0 145.5 -35.5t101.5 -102t59.5 -161t19.5 -208.5v-70h-504zM332 1413h135v-209h-135v209z" />
    <glyph glyph-name="Eogonek" unicode="&#x118;" 
d="M811 1479v-136h-516v-503h381v-135h-381v-570h541v-135h-80q-23 -8 -49 -20q-55 -23 -105.5 -53.5t-85.5 -70.5t-35 -92q0 -59 33 -83.5t88 -24.5q57 0 117.5 29.5t99.5 54.5l33 -66q-61 -43 -142 -77.5t-159 -34.5q-70 0 -125 42t-55 134q0 78 45 130t110 87
q57 29 119 45h-510v1479h676z" />
    <glyph glyph-name="eogonek" unicode="&#x119;" horiz-adv-x="796" 
d="M219 508v-59q0 -98 11.5 -164t36 -107t61.5 -58.5t90 -17.5q43 0 72.5 17.5t51 46.5t35 64.5t19.5 72.5l139 -16q-8 -59 -34.5 -114.5t-69.5 -98.5q-35 -35 -78 -58l-43 -30q-29 -20 -72 -55t-71.5 -77t-28.5 -94q0 -53 29.5 -78.5t76.5 -25.5q49 0 87 16.5t83 46.5
l33 -65q-57 -43 -109.5 -67.5t-125.5 -24.5q-74 0 -129.5 43t-55.5 131q0 74 42 129t98 94q16 10 30 21q-168 0 -246.5 132t-78.5 420q0 289 78.5 421t246.5 132q84 0 145.5 -35.5t101.5 -102t59.5 -161t19.5 -208.5v-70h-504zM575 631q-4 172 -40.5 252t-137.5 80
q-41 0 -72.5 -16.5t-55 -54.5t-37 -102.5t-13.5 -158.5h356z" />
    <glyph glyph-name="Ecaron" unicode="&#x11a;" 
d="M811 1479v-136h-516v-503h381v-135h-381v-570h541v-135h-701v1479h676zM193 1839h131l145 -209l146 209h131l-207 -283h-139z" />
    <glyph glyph-name="ecaron" unicode="&#x11b;" horiz-adv-x="796" 
d="M575 631q-4 172 -40.5 252t-137.5 80q-41 0 -72.5 -16.5t-55 -54.5t-37 -102.5t-13.5 -158.5h356zM219 508v-59q0 -98 11.5 -164t36 -107t61.5 -58.5t90 -17.5q43 0 72.5 17.5t51 46.5t35 64.5t19.5 72.5l139 -16q-8 -59 -34.5 -114.5t-69.5 -98.5t-101.5 -68.5
t-132.5 -25.5q-168 0 -246.5 132t-78.5 420q0 289 78.5 421t246.5 132q84 0 145.5 -35.5t101.5 -102t59.5 -161t19.5 -208.5v-70h-504zM123 1466h131l145 -209l146 209h131l-207 -282h-139z" />
    <glyph glyph-name="Gcircumflex" unicode="&#x11c;" horiz-adv-x="1024" 
d="M750 1024q-4 72 -18.5 134.5t-41 108.5t-68.5 71.5t-104 25.5q-68 0 -117 -32t-81.5 -105.5t-49 -193.5t-16.5 -294t16.5 -293.5t49 -193.5t82 -105.5t116.5 -31.5q113 0 172.5 59t59.5 174v209h-201v135h360v-692h-102l-21 111q-47 -61 -111.5 -96t-156.5 -35
q-98 0 -176 39.5t-133 130t-85 235.5t-30 354t30 354.5t85 235.5t133 130t176 40q102 0 173 -41t117 -107.5t69.5 -152.5t31.5 -174h-159zM441 1839h139l207 -283h-131l-146 209l-145 -209h-131z" />
    <glyph glyph-name="gcircumflex" unicode="&#x11d;" 
d="M688 -86q0 37 -30.5 59.5t-76.5 38t-101.5 25.5t-102.5 20q-66 -29 -105 -64.5t-39 -80.5q0 -66 56.5 -108t177.5 -42q123 0 172 43t49 109zM287 707q0 -152 45 -210.5t110 -58.5q33 0 60.5 13.5t49 45t34 83t12.5 127.5t-12.5 127t-34 82.5t-49 45t-60.5 13.5
q-66 0 -110.5 -58t-44.5 -210zM836 950q-12 4 -23 4h-20q-29 0 -50.5 -11t-42.5 -30q16 -49 24.5 -94t8.5 -110q0 -100 -21.5 -172t-60.5 -118t-91 -68.5t-114 -22.5q-25 0 -49 4t-49 4q-18 -4 -46 -21.5t-28 -48.5q0 -29 21.5 -45t56.5 -26.5t82 -18.5t98 -18
q57 -12 110.5 -29.5t93.5 -46.5t63.5 -72t23.5 -108q0 -53 -24.5 -98.5t-70.5 -79t-113.5 -53t-151.5 -19.5q-182 0 -273.5 62.5t-91.5 166.5q0 72 42 127t114 86q-47 16 -81 53t-34 91q0 59 43 95t97 46q-31 23 -55.5 57.5t-40 75.5t-23.5 86t-8 86q0 193 83.5 297
t225.5 104q53 0 110.5 -23.5t83.5 -74.5q25 43 69 70.5t112 27.5v-135zM381 1466h139l207 -282h-131l-146 209l-145 -209h-131z" />
    <glyph glyph-name="Gbreve" unicode="&#x11e;" horiz-adv-x="1024" 
d="M750 1024q-4 72 -18.5 134.5t-41 108.5t-68.5 71.5t-104 25.5q-68 0 -117 -32t-81.5 -105.5t-49 -193.5t-16.5 -294t16.5 -293.5t49 -193.5t82 -105.5t116.5 -31.5q113 0 172.5 59t59.5 174v209h-201v135h360v-692h-102l-21 111q-47 -61 -111.5 -96t-156.5 -35
q-98 0 -176 39.5t-133 130t-85 235.5t-30 354t30 354.5t85 235.5t133 130t176 40q102 0 173 -41t117 -107.5t69.5 -152.5t31.5 -174h-159zM324 1827q8 -86 59.5 -125t135.5 -39q86 0 123.5 43t54.5 121h78q-10 -125 -81 -193.5t-196 -68.5q-57 0 -102 20.5t-78 56t-51.5 83
t-20.5 102.5h78z" />
    <glyph glyph-name="gbreve" unicode="&#x11f;" 
d="M688 -86q0 37 -30.5 59.5t-76.5 38t-101.5 25.5t-102.5 20q-66 -29 -105 -64.5t-39 -80.5q0 -66 56.5 -108t177.5 -42q123 0 172 43t49 109zM287 707q0 -152 45 -210.5t110 -58.5q33 0 60.5 13.5t49 45t34 83t12.5 127.5t-12.5 127t-34 82.5t-49 45t-60.5 13.5
q-66 0 -110.5 -58t-44.5 -210zM836 950q-12 4 -23 4h-20q-29 0 -50.5 -11t-42.5 -30q16 -49 24.5 -94t8.5 -110q0 -100 -21.5 -172t-60.5 -118t-91 -68.5t-114 -22.5q-25 0 -49 4t-49 4q-18 -4 -46 -21.5t-28 -48.5q0 -29 21.5 -45t56.5 -26.5t82 -18.5t98 -18
q57 -12 110.5 -29.5t93.5 -46.5t63.5 -72t23.5 -108q0 -53 -24.5 -98.5t-70.5 -79t-113.5 -53t-151.5 -19.5q-182 0 -273.5 62.5t-91.5 166.5q0 72 42 127t114 86q-47 16 -81 53t-34 91q0 59 43 95t97 46q-31 23 -55.5 57.5t-40 75.5t-23.5 86t-8 86q0 193 83.5 297
t225.5 104q53 0 110.5 -23.5t83.5 -74.5q25 43 69 70.5t112 27.5v-135zM266 1454q8 -86 59.5 -125t135.5 -39q86 0 123.5 43t54.5 121h78q-10 -125 -81 -193.5t-196 -68.5q-57 0 -102 20.5t-78 56.5t-51.5 83t-20.5 102h78z" />
    <glyph glyph-name="Gdotaccent" unicode="&#x120;" horiz-adv-x="1024" 
d="M750 1024q-4 72 -18.5 134.5t-41 108.5t-68.5 71.5t-104 25.5q-68 0 -117 -32t-81.5 -105.5t-49 -193.5t-16.5 -294t16.5 -293.5t49 -193.5t82 -105.5t116.5 -31.5q113 0 172.5 59t59.5 174v209h-201v135h360v-692h-102l-21 111q-47 -61 -111.5 -96t-156.5 -35
q-98 0 -176 39.5t-133 130t-85 235.5t-30 354t30 354.5t85 235.5t133 130t176 40q102 0 173 -41t117 -107.5t69.5 -152.5t31.5 -174h-159zM443 1786h135v-209h-135v209z" />
    <glyph glyph-name="gdotaccent" unicode="&#x121;" 
d="M688 -86q0 37 -30.5 59.5t-76.5 38t-101.5 25.5t-102.5 20q-66 -29 -105 -64.5t-39 -80.5q0 -66 56.5 -108t177.5 -42q123 0 172 43t49 109zM287 707q0 -152 45 -210.5t110 -58.5q33 0 60.5 13.5t49 45t34 83t12.5 127.5t-12.5 127t-34 82.5t-49 45t-60.5 13.5
q-66 0 -110.5 -58t-44.5 -210zM836 950q-12 4 -23 4h-20q-29 0 -50.5 -11t-42.5 -30q16 -49 24.5 -94t8.5 -110q0 -100 -21.5 -172t-60.5 -118t-91 -68.5t-114 -22.5q-25 0 -49 4t-49 4q-18 -4 -46 -21.5t-28 -48.5q0 -29 21.5 -45t56.5 -26.5t82 -18.5t98 -18
q57 -12 110.5 -29.5t93.5 -46.5t63.5 -72t23.5 -108q0 -53 -24.5 -98.5t-70.5 -79t-113.5 -53t-151.5 -19.5q-182 0 -273.5 62.5t-91.5 166.5q0 72 42 127t114 86q-47 16 -81 53t-34 91q0 59 43 95t97 46q-31 23 -55.5 57.5t-40 75.5t-23.5 86t-8 86q0 193 83.5 297
t225.5 104q53 0 110.5 -23.5t83.5 -74.5q25 43 69 70.5t112 27.5v-135zM387 1413h135v-209h-135v209z" />
    <glyph glyph-name="Gcommaaccent" unicode="&#x122;" horiz-adv-x="1024" 
d="M750 1024q-4 72 -18.5 134.5t-41 108.5t-68.5 71.5t-104 25.5q-68 0 -117 -32t-81.5 -105.5t-49 -193.5t-16.5 -294t16.5 -293.5t49 -193.5t82 -105.5t116.5 -31.5q113 0 172.5 59t59.5 174v209h-201v135h360v-692h-102l-21 111q-47 -61 -111.5 -96t-156.5 -35
q-98 0 -176 39.5t-133 130t-85 235.5t-30 354t30 354.5t85 235.5t133 130t176 40q102 0 173 -41t117 -107.5t69.5 -152.5t31.5 -174h-159zM604 -94v-158l-88 -190h-57l71 190h-75v158h149z" />
    <glyph glyph-name="gcommaaccent" unicode="&#x123;" 
d="M688 -86q0 37 -30.5 59.5t-76.5 38t-101.5 25.5t-102.5 20q-66 -29 -105 -64.5t-39 -80.5q0 -66 56.5 -108t177.5 -42q123 0 172 43t49 109zM287 707q0 -152 45 -210.5t110 -58.5q33 0 60.5 13.5t49 45t34 83t12.5 127.5t-12.5 127t-34 82.5t-49 45t-60.5 13.5
q-66 0 -110.5 -58t-44.5 -210zM836 950q-12 4 -23 4h-20q-29 0 -50.5 -11t-42.5 -30q16 -49 24.5 -94t8.5 -110q0 -100 -21.5 -172t-60.5 -118t-91 -68.5t-114 -22.5q-25 0 -49 4t-49 4q-18 -4 -46 -21.5t-28 -48.5q0 -29 21.5 -45t56.5 -26.5t82 -18.5t98 -18
q57 -12 110.5 -29.5t93.5 -46.5t63.5 -72t23.5 -108q0 -53 -24.5 -98.5t-70.5 -79t-113.5 -53t-151.5 -19.5q-182 0 -273.5 62.5t-91.5 166.5q0 72 42 127t114 86q-47 16 -81 53t-34 91q0 59 43 95t97 46q-31 23 -55.5 57.5t-40 75.5t-23.5 86t-8 86q0 193 83.5 297
t225.5 104q53 0 110.5 -23.5t83.5 -74.5q25 43 69 70.5t112 27.5v-135zM385 1184v131l78 151h49l-62 -151h66v-131h-131z" />
    <glyph glyph-name="Hcircumflex" unicode="&#x124;" horiz-adv-x="1024" 
d="M295 1479v-639h434v639h160v-1479h-160v705h-434v-705h-160v1479h160zM449 1839h139l207 -283h-131l-146 209l-145 -209h-131z" />
    <glyph glyph-name="hcircumflex" unicode="&#x125;" 
d="M147 1479h148v-531q47 53 113.5 95t119.5 42q111 0 172.5 -65.5t61.5 -212.5v-807h-148v786q0 92 -28.5 134.5t-87.5 42.5q-53 0 -103.5 -35t-99.5 -97v-831h-148v1479zM377 1839h139l207 -283h-131l-146 209l-145 -209h-131z" />
    <glyph glyph-name="Hbar" unicode="&#x126;" horiz-adv-x="1024" 
d="M295 1479v-334h434v334h160v-1479h-160v623h-434v-623h-160v1479h160zM295 752h434v278h-434v-278z" />
    <glyph glyph-name="hbar" unicode="&#x127;" 
d="M147 1479h148v-156h256v-115h-256v-260q47 53 113.5 95t119.5 42q111 0 172.5 -65.5t61.5 -212.5v-807h-148v786q0 92 -28.5 134.5t-87.5 42.5q-53 0 -103.5 -35t-99.5 -97v-831h-148v1208h-106v115h106v156z" />
    <glyph glyph-name="Itilde" unicode="&#x128;" horiz-adv-x="454" 
d="M307 1479v-1479h-160v1479h160zM-59 1577q0 33 11 68.5t31.5 64.5t49 48.5t65.5 19.5q39 0 75 -14.5t71 -30.5l65 -31q31 -14 58 -14q45 0 59 31.5t18 70.5h74q-2 -37 -11 -74t-27.5 -64.5t-48.5 -45t-73 -17.5q-33 0 -66.5 14.5t-68.5 30.5l-66 31q-32 14 -61 14
q-43 0 -60.5 -31.5t-21.5 -70.5h-73z" />
    <glyph glyph-name="itilde" unicode="&#x129;" horiz-adv-x="454" 
d="M154 1065h147v-1065h-147v1065zM-59 1204q0 33 11 69t31.5 64.5t49 48t65.5 19.5q39 0 75 -14.5t71 -30.5l65 -31q31 -14 58 -14q45 0 59 31.5t18 70.5h74q-2 -37 -11 -73.5t-27.5 -64.5t-48.5 -45t-73 -17q-33 0 -66.5 14t-68.5 31l-66 30q-32 14 -61 15
q-43 0 -60.5 -32t-21.5 -71h-73z" />
    <glyph glyph-name="Imacron" unicode="&#x12a;" horiz-adv-x="454" 
d="M307 1479v-1479h-160v1479h160zM-45 1630v99h545v-99h-545z" />
    <glyph glyph-name="imacron" unicode="&#x12b;" horiz-adv-x="454" 
d="M154 1065h147v-1065h-147v1065zM-43 1257v99h545v-99h-545z" />
    <glyph glyph-name="Ibreve" unicode="&#x12c;" horiz-adv-x="454" 
d="M41 1884q8 -86 59.5 -125t135.5 -39q86 0 123.5 43t54.5 121h78q-10 -125 -81 -193.5t-196 -68.5q-57 0 -102 20.5t-78 56t-51.5 83t-20.5 102.5h78zM307 1479v-1479h-160v1479h160z" />
    <glyph glyph-name="ibreve" unicode="&#x12d;" horiz-adv-x="454" 
d="M41 1470q8 -86 59.5 -125t135.5 -39q86 0 123.5 43t54.5 121h78q-10 -125 -81 -193.5t-196 -68.5q-57 0 -102 20.5t-78 56.5t-51.5 83t-20.5 102h78zM154 1065h147v-1065h-147v1065z" />
    <glyph glyph-name="Iogonek" unicode="&#x12e;" horiz-adv-x="454" 
d="M307 1479v-1479h-26q-27 -16 -43 -29q-18 -12 -54.5 -42.5t-59 -73.5t-22.5 -95q0 -53 29 -78.5t78 -25.5q51 0 87 16.5t85 48.5l33 -65q-61 -45 -111.5 -69.5t-126.5 -24.5q-74 0 -129 43t-55 131q0 74 34.5 130t88.5 91q45 29 73 43h-41v1479h160z" />
    <glyph glyph-name="iogonek" unicode="&#x12f;" horiz-adv-x="454" 
d="M154 1065h147v-1065h-20q-27 -16 -43 -29q-18 -12 -54.5 -42.5t-59 -73.5t-22.5 -95q0 -53 29 -78.5t78 -25.5q51 0 87 16.5t85 48.5l33 -65q-61 -45 -111.5 -69.5t-126.5 -24.5q-74 0 -129 43t-55 131q0 74 34.5 130t88.5 91q45 29 73 43h-34v1065zM154 1479h147v-172
h-147v172z" />
    <glyph glyph-name="Idotaccent" unicode="&#x130;" horiz-adv-x="454" 
d="M307 1479v-1479h-160v1479h160zM162 1786h135v-209h-135v209z" />
    <glyph glyph-name="dotlessi" unicode="&#x131;" horiz-adv-x="454" 
d="M154 1065h147v-1065h-147v1065z" />
    <glyph glyph-name="IJ" unicode="&#x132;" horiz-adv-x="1003" 
d="M307 1479v-1479h-160v1479h160zM868 1479v-1110q0 -115 -20.5 -190t-63.5 -119t-112.5 -62t-167.5 -18q-16 0 -38 4l-44 8l12 139q45 -16 92 -16q98 0 140 47t42 170v1147h160z" />
    <glyph glyph-name="ij" unicode="&#x133;" horiz-adv-x="880" 
d="M154 1479h147v-172h-147v172zM154 1065h147v-1065h-147v1065zM586 1479h147v-172h-147v172zM434 -217q14 -4 26.5 -6t22.5 -2q49 0 76 29.5t27 101.5v1159h147v-1171q0 -133 -53 -187.5t-164 -54.5q-20 0 -39.5 2t-42.5 6v123z" />
    <glyph glyph-name="Jcircumflex" unicode="&#x134;" horiz-adv-x="569" 
d="M434 1479v-1110q0 -115 -20.5 -190t-63.5 -119t-112.5 -62t-167.5 -18q-16 0 -38 4l-44 8l12 139q45 -16 92 -16q98 0 140 47t42 170v1147h160zM279 1839h139l207 -283h-131l-146 209l-145 -209h-131z" />
    <glyph glyph-name="jcircumflex" unicode="&#x135;" horiz-adv-x="454" 
d="M8 -217q14 -4 26.5 -6t22.5 -2q49 0 76 29.5t27 101.5v1159h147v-1171q0 -133 -53 -187.5t-164 -54.5q-20 0 -39.5 2t-42.5 6v123zM158 1466h139l207 -282h-131l-146 209l-145 -209h-131z" />
    <glyph glyph-name="Kcommaaccent" unicode="&#x136;" 
d="M274 1479v-754h5l413 754h172l-286 -516l340 -963h-173l-274 799h-4l-193 -344v-455h-159v1479h159zM569 -94v-158l-88 -190h-57l71 190h-75v158h149z" />
    <glyph glyph-name="kcommaaccent" unicode="&#x137;" horiz-adv-x="796" 
d="M135 1479h148v-934h4l282 520h152l-197 -340l246 -725h-152l-192 578h-4l-139 -263v-315h-148v1479zM510 -94v-158l-88 -190h-57l71 190h-75v158h149z" />
    <glyph glyph-name="Lacute" unicode="&#x139;" horiz-adv-x="796" 
d="M295 1479v-1344h479v-135h-639v1479h160zM266 1556h-102l200 283h160z" />
    <glyph glyph-name="lacute" unicode="&#x13a;" horiz-adv-x="454" 
d="M154 1479h147v-1479h-147v1479zM219 1556h-102l200 283h160z" />
    <glyph glyph-name="Lcommaaccent" unicode="&#x13b;" horiz-adv-x="796" 
d="M295 1479v-1344h479v-135h-639v1479h160zM526 -94v-158l-88 -190h-57l71 190h-75v158h149z" />
    <glyph glyph-name="lcommaaccent" unicode="&#x13c;" horiz-adv-x="454" 
d="M154 1479h147v-1479h-147v1479zM301 -94v-158l-88 -190h-57l71 190h-75v158h149z" />
    <glyph glyph-name="Lcaron" unicode="&#x13d;" horiz-adv-x="796" 
d="M295 1479v-1344h479v-135h-639v1479h160zM551 1479v-150l-86 -182h-55l70 182h-74v150h145z" />
    <glyph glyph-name="lcaron" unicode="&#x13e;" horiz-adv-x="454" 
d="M154 1479h147v-1479h-147v1479zM530 1479v-150l-86 -182h-55l70 182h-74v150h145z" />
    <glyph glyph-name="Ldot" unicode="&#x13f;" horiz-adv-x="796" 
d="M295 1479v-1344h479v-135h-639v1479h160zM475 844h135v-209h-135v209z" />
    <glyph glyph-name="ldot" unicode="&#x140;" horiz-adv-x="661" 
d="M154 1479h147v-1479h-147v1479zM459 844h135v-209h-135v209z" />
    <glyph glyph-name="Lslash" unicode="&#x141;" horiz-adv-x="796" 
d="M295 135h479v-135h-639v612l-164 -65v127l164 65v740h160v-674l315 127v-127l-315 -127v-543z" />
    <glyph glyph-name="lslash" unicode="&#x142;" horiz-adv-x="454" 
d="M301 0h-147v756l-162 -84v123l162 84v600h147v-525l162 82v-123l-162 -82v-831z" />
    <glyph glyph-name="Nacute" unicode="&#x143;" horiz-adv-x="1024" 
d="M365 1479l380 -1090h5v1090h159v-1479h-172l-458 1286h-5v-1286h-159v1479h250zM518 1556h-102l200 283h160z" />
    <glyph glyph-name="nacute" unicode="&#x144;" 
d="M147 1065h140v-117q53 53 120.5 95t120.5 42q111 0 172.5 -65.5t61.5 -212.5v-807h-148v786q0 92 -28.5 134.5t-87.5 42.5q-53 0 -103.5 -35t-99.5 -97v-831h-148v1065zM465 1184h-102l200 282h160z" />
    <glyph glyph-name="Ncommaaccent" unicode="&#x145;" horiz-adv-x="1024" 
d="M365 1479l380 -1090h5v1090h159v-1479h-172l-458 1286h-5v-1286h-159v1479h250zM596 -94v-158l-88 -190h-57l71 190h-75v158h149z" />
    <glyph glyph-name="ncommaaccent" unicode="&#x146;" 
d="M147 1065h140v-117q53 53 120.5 95t120.5 42q111 0 172.5 -65.5t61.5 -212.5v-807h-148v786q0 92 -28.5 134.5t-87.5 42.5q-53 0 -103.5 -35t-99.5 -97v-831h-148v1065zM524 -94v-158l-88 -190h-57l71 190h-75v158h149z" />
    <glyph glyph-name="Ncaron" unicode="&#x147;" horiz-adv-x="1024" 
d="M365 1479l380 -1090h5v1090h159v-1479h-172l-458 1286h-5v-1286h-159v1479h250zM248 1839h131l145 -209l146 209h131l-207 -283h-139z" />
    <glyph glyph-name="ncaron" unicode="&#x148;" 
d="M147 1065h140v-117q53 53 120.5 95t120.5 42q111 0 172.5 -65.5t61.5 -212.5v-807h-148v786q0 92 -28.5 134.5t-87.5 42.5q-53 0 -103.5 -35t-99.5 -97v-831h-148v1065zM182 1466h131l145 -209l146 209h131l-207 -282h-139z" />
    <glyph glyph-name="napostrophe" unicode="&#x149;" horiz-adv-x="1011" 
d="M249 1065h140v-117q53 53 120.5 95t120.5 42q111 0 172.5 -65.5t61.5 -212.5v-807h-148v786q0 92 -28.5 134.5t-87.5 42.5q-53 0 -103.5 -35t-99.5 -97v-831h-148v1065zM162 1479v-205l-123 -295h-61l94 307h-82v193h172z" />
    <glyph glyph-name="Omacron" unicode="&#x14c;" horiz-adv-x="1024" 
d="M770 739q0 188 -20.5 309t-55.5 192t-82 97.5t-100 26.5t-100 -26.5t-82 -97.5t-55.5 -191.5t-20.5 -309.5q0 -188 20.5 -309t55.5 -191.5t82 -97t100 -26.5t100 26.5t82 97t55.5 191.5t20.5 309zM930 739q0 -207 -30 -351t-85 -235.5t-132 -132t-171 -40.5t-171 40.5
t-132 132t-85 235.5t-30 351t30 351.5t85 235.5t132 132t171 41t171 -41t132 -132t85 -235.5t30 -351.5zM242 1630v99h545v-99h-545z" />
    <glyph glyph-name="omacron" unicode="&#x14d;" horiz-adv-x="796" 
d="M219 532q0 -133 10.5 -216t32 -131t55 -65.5t80.5 -17.5t81 17.5t55.5 65.5t31.5 131t10 216q0 131 -10 215t-31.5 132.5t-55.5 66t-81 17.5t-80.5 -17.5t-55 -66t-32 -132.5t-10.5 -215zM72 532q0 289 78.5 421t246.5 132t247 -132t79 -421t-79 -420.5t-247 -131.5
t-246.5 131.5t-78.5 420.5zM127 1257v99h545v-99h-545z" />
    <glyph glyph-name="Obreve" unicode="&#x14e;" horiz-adv-x="1024" 
d="M770 739q0 188 -20.5 309t-55.5 192t-82 97.5t-100 26.5t-100 -26.5t-82 -97.5t-55.5 -191.5t-20.5 -309.5q0 -188 20.5 -309t55.5 -191.5t82 -97t100 -26.5t100 26.5t82 97t55.5 191.5t20.5 309zM930 739q0 -207 -30 -351t-85 -235.5t-132 -132t-171 -40.5t-171 40.5
t-132 132t-85 235.5t-30 351t30 351.5t85 235.5t132 132t171 41t171 -41t132 -132t85 -235.5t30 -351.5zM324 1827q8 -86 59.5 -125t135.5 -39q86 0 123.5 43t54.5 121h78q-10 -125 -81 -193.5t-196 -68.5q-57 0 -102 20.5t-78 56t-51.5 83t-20.5 102.5h78z" />
    <glyph glyph-name="obreve" unicode="&#x14f;" horiz-adv-x="796" 
d="M219 532q0 -133 10.5 -216t32 -131t55 -65.5t80.5 -17.5t81 17.5t55.5 65.5t31.5 131t10 216q0 131 -10 215t-31.5 132.5t-55.5 66t-81 17.5t-80.5 -17.5t-55 -66t-32 -132.5t-10.5 -215zM72 532q0 289 78.5 421t246.5 132t247 -132t79 -421t-79 -420.5t-247 -131.5
t-246.5 131.5t-78.5 420.5zM213 1454q8 -86 59.5 -125t135.5 -39q86 0 123.5 43t54.5 121h78q-10 -125 -81 -193.5t-196 -68.5q-57 0 -102 20.5t-78 56.5t-51.5 83t-20.5 102h78z" />
    <glyph glyph-name="Ohungarumlaut" unicode="&#x150;" horiz-adv-x="1024" 
d="M770 739q0 188 -20.5 309t-55.5 192t-82 97.5t-100 26.5t-100 -26.5t-82 -97.5t-55.5 -191.5t-20.5 -309.5q0 -188 20.5 -309t55.5 -191.5t82 -97t100 -26.5t100 26.5t82 97t55.5 191.5t20.5 309zM930 739q0 -207 -30 -351t-85 -235.5t-132 -132t-171 -40.5t-171 40.5
t-132 132t-85 235.5t-30 351t30 351.5t85 235.5t132 132t171 41t171 -41t132 -132t85 -235.5t30 -351.5zM643 1556h-103l201 283h160zM405 1556h-98l184 283h164z" />
    <glyph glyph-name="ohungarumlaut" unicode="&#x151;" horiz-adv-x="796" 
d="M219 532q0 -133 10.5 -216t32 -131t55 -65.5t80.5 -17.5t81 17.5t55.5 65.5t31.5 131t10 216q0 131 -10 215t-31.5 132.5t-55.5 66t-81 17.5t-80.5 -17.5t-55 -66t-32 -132.5t-10.5 -215zM72 532q0 289 78.5 421t246.5 132t247 -132t79 -421t-79 -420.5t-247 -131.5
t-246.5 131.5t-78.5 420.5zM525 1184h-103l201 282h160zM287 1184h-98l184 282h164z" />
    <glyph glyph-name="OE" unicode="&#x152;" horiz-adv-x="1478" 
d="M741 1135q0 123 -44 163.5t-144 40.5q-74 0 -133.5 -26.5t-100 -94t-63.5 -184t-23 -295.5q0 -178 23 -294.5t63.5 -184t100 -94.5t133.5 -27q100 0 144 41t44 164v791zM901 135h504v-135h-791q-141 0 -243.5 34t-168 118t-97 226t-31.5 361t31.5 361.5t97 226.5t168 118
t243.5 34h766v-136h-479v-503h365v-135h-365v-570z" />
    <glyph glyph-name="oe" unicode="&#x153;" horiz-adv-x="1251" 
d="M1034 631q-4 172 -41 252t-137 80q-63 0 -105 -76t-49 -256h332zM195 532q0 -133 10 -216t31.5 -131t55.5 -65.5t81 -17.5t80.5 17.5t56 65.5t34 131t11.5 216q0 131 -11.5 215t-34 132.5t-56 66t-80.5 17.5t-81 -17.5t-55.5 -66t-31.5 -132.5t-10 -215zM702 508v-59
q0 -98 14.5 -164t38 -107t55.5 -58.5t67 -17.5q43 0 72.5 17.5t51 46.5t32.5 64.5t18 72.5l139 -16q-6 -59 -31.5 -114.5t-66.5 -98.5t-96.5 -68.5t-121.5 -25.5q-72 0 -138 34.5t-111 130.5q-66 -166 -252 -165q-168 0 -247 132t-79 420q0 289 79 421t247 132
q98 0 160.5 -43t97.5 -137q41 92 99 136t126 44q84 0 145.5 -35.5t101.5 -102t59.5 -161t19.5 -208.5v-70h-480z" />
    <glyph glyph-name="Racute" unicode="&#x154;" horiz-adv-x="1024" 
d="M295 831h139q172 0 237.5 66t65.5 190q0 125 -65.5 190.5t-237.5 65.5h-139v-512zM135 1479h357q88 0 162.5 -26t129 -75t84 -119.5t29.5 -162.5q0 -125 -57.5 -222.5t-180.5 -140.5l250 -733h-168l-237 700l-209 -8v-692h-160v1479zM457 1556h-102l200 283h160z" />
    <glyph glyph-name="racute" unicode="&#x155;" horiz-adv-x="569" 
d="M135 1065h148v-129h4q33 49 62.5 77.5t61 45t67.5 21.5t79 5v-139q-41 0 -78 -8t-70.5 -29.5t-64.5 -57.5t-61 -93v-758h-148v1065zM363 1184h-102l200 282h160z" />
    <glyph glyph-name="Rcommaaccent" unicode="&#x156;" horiz-adv-x="1024" 
d="M295 831h139q172 0 237.5 66t65.5 190q0 125 -65.5 190.5t-237.5 65.5h-139v-512zM135 1479h357q88 0 162.5 -26t129 -75t84 -119.5t29.5 -162.5q0 -125 -57.5 -222.5t-180.5 -140.5l250 -733h-168l-237 700l-209 -8v-692h-160v1479zM577 -94v-158l-88 -190h-57l71 190
h-75v158h149z" />
    <glyph glyph-name="rcommaaccent" unicode="&#x157;" horiz-adv-x="569" 
d="M135 1065h148v-129h4q33 49 62.5 77.5t61 45t67.5 21.5t79 5v-139q-41 0 -78 -8t-70.5 -29.5t-64.5 -57.5t-61 -93v-758h-148v1065zM285 -94v-158l-88 -190h-57l71 190h-75v158h149z" />
    <glyph glyph-name="Rcaron" unicode="&#x158;" horiz-adv-x="1024" 
d="M295 831h139q172 0 237.5 66t65.5 190q0 125 -65.5 190.5t-237.5 65.5h-139v-512zM135 1479h357q88 0 162.5 -26t129 -75t84 -119.5t29.5 -162.5q0 -125 -57.5 -222.5t-180.5 -140.5l250 -733h-168l-237 700l-209 -8v-692h-160v1479zM193 1839h131l145 -209l146 209h131
l-207 -283h-139z" />
    <glyph glyph-name="rcaron" unicode="&#x159;" horiz-adv-x="569" 
d="M135 1065h148v-129h4q33 49 62.5 77.5t61 45t67.5 21.5t79 5v-139q-41 0 -78 -8t-70.5 -29.5t-64.5 -57.5t-61 -93v-758h-148v1065zM66 1466h131l145 -209l146 209h131l-207 -282h-139z" />
    <glyph glyph-name="Sacute" unicode="&#x15a;" 
d="M664 1098q-4 57 -18.5 105t-42.5 84t-68.5 56.5t-98.5 20.5q-92 0 -147.5 -54.5t-55.5 -140.5q0 -84 44.5 -143t110 -110.5t143 -100.5t143 -111.5t109.5 -145.5t44 -202q0 -178 -97 -277t-281 -99q-86 0 -156 30.5t-118 86t-73.5 132t-27.5 168.5h147
q4 -131 64.5 -206.5t179.5 -75.5q100 0 159.5 62.5t59.5 180.5q0 84 -44 146.5t-109.5 116t-143.5 103.5t-143.5 111.5t-109.5 137.5t-44 182q0 78 25.5 141.5t73 108.5t113 69.5t144.5 24.5q160 0 257.5 -103.5t107.5 -297.5h-147zM444 1556h-102l200 283h160z" />
    <glyph glyph-name="sacute" unicode="&#x15b;" horiz-adv-x="796" 
d="M561 795q-10 35 -23.5 65.5t-34 53t-51 36t-75.5 13.5q-53 0 -86 -37t-33 -90t34 -93.5t83 -75t108.5 -69.5t108.5 -79t83 -103.5t34 -141.5q0 -63 -21.5 -116.5t-60.5 -93t-92.5 -62t-116.5 -22.5q-145 0 -223 73.5t-117 208.5l135 29q12 -35 28.5 -69t40 -60.5
t54.5 -43t72 -16.5q31 0 58.5 13.5t49 35t33.5 51t12 62.5q0 61 -33.5 105.5t-83 80t-109 70.5t-108.5 77t-82.5 97.5t-33.5 132.5q0 51 20.5 98.5t57 83t87 56t111.5 20.5q123 0 196.5 -66.5t100.5 -187.5zM399 1184h-102l200 282h160z" />
    <glyph glyph-name="Scircumflex" unicode="&#x15c;" 
d="M664 1098q-4 57 -18.5 105t-42.5 84t-68.5 56.5t-98.5 20.5q-92 0 -147.5 -54.5t-55.5 -140.5q0 -84 44.5 -143t110 -110.5t143 -100.5t143 -111.5t109.5 -145.5t44 -202q0 -178 -97 -277t-281 -99q-86 0 -156 30.5t-118 86t-73.5 132t-27.5 168.5h147
q4 -131 64.5 -206.5t179.5 -75.5q100 0 159.5 62.5t59.5 180.5q0 84 -44 146.5t-109.5 116t-143.5 103.5t-143.5 111.5t-109.5 137.5t-44 182q0 78 25.5 141.5t73 108.5t113 69.5t144.5 24.5q160 0 257.5 -103.5t107.5 -297.5h-147zM381 1839h139l207 -283h-131l-146 209
l-145 -209h-131z" />
    <glyph glyph-name="scircumflex" unicode="&#x15d;" horiz-adv-x="796" 
d="M561 795q-10 35 -23.5 65.5t-34 53t-51 36t-75.5 13.5q-53 0 -86 -37t-33 -90t34 -93.5t83 -75t108.5 -69.5t108.5 -79t83 -103.5t34 -141.5q0 -63 -21.5 -116.5t-60.5 -93t-92.5 -62t-116.5 -22.5q-145 0 -223 73.5t-117 208.5l135 29q12 -35 28.5 -69t40 -60.5
t54.5 -43t72 -16.5q31 0 58.5 13.5t49 35t33.5 51t12 62.5q0 61 -33.5 105.5t-83 80t-109 70.5t-108.5 77t-82.5 97.5t-33.5 132.5q0 51 20.5 98.5t57 83t87 56t111.5 20.5q123 0 196.5 -66.5t100.5 -187.5zM330 1466h139l207 -282h-131l-146 209l-145 -209h-131z" />
    <glyph glyph-name="Scedilla" unicode="&#x15e;" 
d="M262 -319q25 -10 58.5 -19.5t74.5 -9.5q61 0 99 23.5t38 60.5q0 35 -28.5 61.5t-81.5 26.5q-25 0 -45.5 -6t-40.5 -15l-29 29l109 150q-68 4 -123 28q-70 31 -118 86.5t-73.5 132t-27.5 168.5h147q4 -131 64.5 -206.5t179.5 -75.5q100 0 159.5 62.5t59.5 180.5
q0 84 -44 146.5t-109.5 116t-143.5 103.5t-143.5 111.5t-109.5 137.5t-44 182q0 78 25.5 141.5t73 108.5t113 69.5t144.5 24.5q160 0 257.5 -103.5t107.5 -297.5h-147q-4 57 -18.5 105t-42.5 84t-68.5 56.5t-98.5 20.5q-92 0 -147.5 -54.5t-55.5 -140.5q0 -84 44.5 -143
t110 -110.5t143 -100.5t143 -111.5t109.5 -145.5t44 -202q0 -178 -98 -278q-84 -86 -237 -96l-78 -101l4 -4q20 12 63 12q66 0 114 -36.5t48 -110.5q0 -43 -17.5 -77t-48 -57.5t-70.5 -36.5t-85 -13q-59 0 -103.5 7t-85.5 25z" />
    <glyph glyph-name="scedilla" unicode="&#x15f;" horiz-adv-x="796" 
d="M211 -319q25 -10 58.5 -19.5t74.5 -9.5q61 0 99 23.5t38 60.5q0 35 -28.5 61.5t-81.5 26.5q-25 0 -45.5 -6t-40.5 -15l-29 29l109 150q-106 12 -170 71q-78 74 -117 209l135 29q12 -35 28.5 -69t40 -60.5t54.5 -43t72 -16.5q31 0 58.5 13.5t49 35t33.5 51t12 62.5
q0 61 -33.5 105.5t-83 80t-109 70.5t-108.5 77t-82.5 97.5t-33.5 132.5q0 51 20.5 98.5t57 83t87 56t111.5 20.5q123 0 196.5 -66.5t100.5 -187.5l-123 -36q-10 35 -23.5 65.5t-34 53t-51 36t-75.5 13.5q-53 0 -86 -37t-33 -90t34 -93.5t83 -75t108.5 -69.5t108.5 -79
t83 -103.5t34 -141.5q0 -63 -21.5 -116.5t-60.5 -93t-92 -62.5q-43 -18 -95 -20l-78 -101l5 -4q20 12 63 12q66 0 114 -36.5t48 -110.5q0 -43 -17.5 -77t-48 -57.5t-70.5 -36.5t-85 -13q-59 0 -103.5 7t-85.5 25z" />
    <glyph glyph-name="Scaron" unicode="&#x160;" 
d="M664 1098q-4 57 -18.5 105t-42.5 84t-68.5 56.5t-98.5 20.5q-92 0 -147.5 -54.5t-55.5 -140.5q0 -84 44.5 -143t110 -110.5t143 -100.5t143 -111.5t109.5 -145.5t44 -202q0 -178 -97 -277t-281 -99q-86 0 -156 30.5t-118 86t-73.5 132t-27.5 168.5h147
q4 -131 64.5 -206.5t179.5 -75.5q100 0 159.5 62.5t59.5 180.5q0 84 -44 146.5t-109.5 116t-143.5 103.5t-143.5 111.5t-109.5 137.5t-44 182q0 78 25.5 141.5t73 108.5t113 69.5t144.5 24.5q160 0 257.5 -103.5t107.5 -297.5h-147zM178 1839h131l145 -209l146 209h131
l-207 -282h-139z" />
    <glyph glyph-name="scaron" unicode="&#x161;" horiz-adv-x="796" 
d="M561 795q-10 35 -23.5 65.5t-34 53t-51 36t-75.5 13.5q-53 0 -86 -37t-33 -90t34 -93.5t83 -75t108.5 -69.5t108.5 -79t83 -103.5t34 -141.5q0 -63 -21.5 -116.5t-60.5 -93t-92.5 -62t-116.5 -22.5q-145 0 -223 73.5t-117 208.5l135 29q12 -35 28.5 -69t40 -60.5
t54.5 -43t72 -16.5q31 0 58.5 13.5t49 35t33.5 51t12 62.5q0 61 -33.5 105.5t-83 80t-109 70.5t-108.5 77t-82.5 97.5t-33.5 132.5q0 51 20.5 98.5t57 83t87 56t111.5 20.5q123 0 196.5 -66.5t100.5 -187.5zM123 1466h131l145 -209l146 209h131l-207 -282h-139z" />
    <glyph glyph-name="Tcommaaccent" unicode="&#x162;" horiz-adv-x="796" 
d="M780 1479v-136h-303v-1343h-160v1343h-303v136h766zM471 -94v-158l-88 -190h-57l71 190h-75v158h149z" />
    <glyph glyph-name="tcommaaccent" unicode="&#x163;" horiz-adv-x="569" 
d="M16 1065h144v356h147v-356h197v-123h-197v-745q0 -47 25.5 -77t81.5 -30q23 0 47 7t43 14v-111q-31 -10 -61.5 -15t-77.5 -5q-104 0 -154.5 53t-50.5 176v733h-144v123zM387 -94v-158l-88 -190h-57l71 190h-75v158h149z" />
    <glyph glyph-name="Tcaron" unicode="&#x164;" horiz-adv-x="796" 
d="M780 1479v-136h-303v-1343h-160v1343h-303v136h766zM121 1839h131l145 -209l146 209h131l-207 -283h-139z" />
    <glyph glyph-name="tcaron" unicode="&#x165;" horiz-adv-x="569" 
d="M16 1065h144v356h147v-356h197v-123h-197v-745q0 -47 25.5 -77t81.5 -30q23 0 47 7t43 14v-111q-31 -10 -61.5 -15t-77.5 -5q-104 0 -154.5 53t-50.5 176v733h-144v123zM553 1479v-150l-86 -182h-55l70 182h-74v150h145z" />
    <glyph glyph-name="Tbar" unicode="&#x166;" horiz-adv-x="796" 
d="M76 1042h241v301h-303v136h766v-136h-303v-301h240v-122h-240v-920h-160v920h-241v122z" />
    <glyph glyph-name="tbar" unicode="&#x167;" horiz-adv-x="569" 
d="M29 721h131v221h-144v123h144v356h147v-356h197v-123h-197v-221h168v-121h-168v-403q0 -47 25.5 -77t81.5 -30q23 0 47 7t43 14v-111q-31 -10 -61.5 -15t-77.5 -5q-104 0 -154.5 53t-50.5 176v391h-131v121z" />
    <glyph glyph-name="Utilde" unicode="&#x168;" horiz-adv-x="1024" 
d="M295 1479v-1086q0 -55 9 -106t33.5 -89t66.5 -60.5t108 -22.5t108 22.5t66.5 60.5t33.5 89t9 106v1086h160v-1090q0 -90 -21.5 -164.5t-67.5 -129t-117 -85t-171 -30.5t-171 30.5t-117 85t-67.5 129t-21.5 164.5v1090h160zM224 1577q0 33 11 68.5t31.5 64.5t49 48.5
t65.5 19.5q39 0 75 -14.5t71 -30.5l65 -31q31 -14 58 -14q45 0 59 31.5t18 70.5h74q-2 -37 -11 -74t-27.5 -64.5t-48.5 -45t-73 -17.5q-33 0 -66.5 14.5t-68.5 30.5l-66 31q-32 14 -61 14q-43 0 -60.5 -31.5t-21.5 -70.5h-73z" />
    <glyph glyph-name="utilde" unicode="&#x169;" 
d="M762 0h-139v117q-53 -53 -121 -95t-121 -42q-111 0 -172.5 65.5t-61.5 212.5v807h148v-786q0 -92 28.5 -134.5t88.5 -42.5q53 0 103 35t99 96v832h148v-1065zM172 1204q0 33 11 69t31.5 64.5t49 48t65.5 19.5q39 0 75 -14.5t71 -30.5l65 -31q31 -14 58 -14q45 0 59 31.5
t18 70.5h74q-2 -37 -11 -73.5t-27.5 -64.5t-48.5 -45t-73 -17q-33 0 -66.5 14t-68.5 31l-66 30q-32 14 -61 15q-43 0 -60.5 -32t-21.5 -71h-73z" />
    <glyph glyph-name="Umacron" unicode="&#x16a;" horiz-adv-x="1024" 
d="M295 1479v-1086q0 -55 9 -106t33.5 -89t66.5 -60.5t108 -22.5t108 22.5t66.5 60.5t33.5 89t9 106v1086h160v-1090q0 -90 -21.5 -164.5t-67.5 -129t-117 -85t-171 -30.5t-171 30.5t-117 85t-67.5 129t-21.5 164.5v1090h160zM240 1630v99h545v-99h-545z" />
    <glyph glyph-name="umacron" unicode="&#x16b;" 
d="M762 0h-139v117q-53 -53 -121 -95t-121 -42q-111 0 -172.5 65.5t-61.5 212.5v807h148v-786q0 -92 28.5 -134.5t88.5 -42.5q53 0 103 35t99 96v832h148v-1065zM188 1257v99h545v-99h-545z" />
    <glyph glyph-name="Ubreve" unicode="&#x16c;" horiz-adv-x="1024" 
d="M295 1479v-1086q0 -55 9 -106t33.5 -89t66.5 -60.5t108 -22.5t108 22.5t66.5 60.5t33.5 89t9 106v1086h160v-1090q0 -90 -21.5 -164.5t-67.5 -129t-117 -85t-171 -30.5t-171 30.5t-117 85t-67.5 129t-21.5 164.5v1090h160zM326 1827q8 -86 59.5 -125t135.5 -39
q86 0 123.5 43t54.5 121h78q-10 -125 -81 -193.5t-196 -68.5q-57 0 -102 20.5t-78 56t-51.5 83t-20.5 102.5h78z" />
    <glyph glyph-name="ubreve" unicode="&#x16d;" 
d="M762 0h-139v117q-53 -53 -121 -95t-121 -42q-111 0 -172.5 65.5t-61.5 212.5v807h148v-786q0 -92 28.5 -134.5t88.5 -42.5q53 0 103 35t99 96v832h148v-1065zM274 1454q8 -86 59.5 -125t135.5 -39q86 0 123.5 43t54.5 121h78q-10 -125 -81 -193.5t-196 -68.5
q-57 0 -102 20.5t-78 56.5t-51.5 83t-20.5 102h78z" />
    <glyph glyph-name="Uring" unicode="&#x16e;" horiz-adv-x="1024" 
d="M295 1479v-1086q0 -55 9 -106t33.5 -89t66.5 -60.5t108 -22.5t108 22.5t66.5 60.5t33.5 89t9 106v1086h160v-1090q0 -90 -21.5 -164.5t-67.5 -129t-117 -85t-171 -30.5t-171 30.5t-117 85t-67.5 129t-21.5 164.5v1090h160zM404 1751q0 -43 32.5 -76t75.5 -33t76 33t33 76
t-33 76t-76 33t-75.5 -33t-32.5 -76zM318 1751q0 39 14 75t41 62.5t62.5 42t76.5 15.5t77 -15.5t61.5 -42t41 -62.5t15.5 -75q0 -41 -15.5 -76t-41 -61.5t-61.5 -42t-77 -15.5t-76.5 15.5t-62.5 42t-41 61.5t-14 76z" />
    <glyph glyph-name="uring" unicode="&#x16f;" 
d="M762 0h-139v117q-53 -53 -121 -95t-121 -42q-111 0 -172.5 65.5t-61.5 212.5v807h148v-786q0 -92 28.5 -134.5t88.5 -42.5q53 0 103 35t99 96v832h148v-1065zM355 1378q0 -43 32.5 -75.5t75.5 -32.5t76 32.5t33 75.5t-33 76t-76 33t-75.5 -33t-32.5 -76zM269 1378
q0 39 14 75t41 62.5t62.5 42t76.5 15.5t77 -15.5t61.5 -42t41 -62.5t15.5 -75q0 -41 -15.5 -75.5t-41 -61.5t-61.5 -42t-77 -15t-76.5 15t-62.5 42t-41 61.5t-14 75.5z" />
    <glyph glyph-name="Uhungarumlaut" unicode="&#x170;" horiz-adv-x="1024" 
d="M295 1479v-1086q0 -55 9 -106t33.5 -89t66.5 -60.5t108 -22.5t108 22.5t66.5 60.5t33.5 89t9 106v1086h160v-1090q0 -90 -21.5 -164.5t-67.5 -129t-117 -85t-171 -30.5t-171 30.5t-117 85t-67.5 129t-21.5 164.5v1090h160zM647 1556h-103l201 283h160zM409 1556h-98
l184 283h164z" />
    <glyph glyph-name="uhungarumlaut" unicode="&#x171;" 
d="M762 0h-139v117q-53 -53 -121 -95t-121 -42q-111 0 -172.5 65.5t-61.5 212.5v807h148v-786q0 -92 28.5 -134.5t88.5 -42.5q53 0 103 35t99 96v832h148v-1065zM588 1184h-103l201 282h160zM350 1184h-98l184 282h164z" />
    <glyph glyph-name="Uogonek" unicode="&#x172;" horiz-adv-x="1024" 
d="M295 1479v-1086q0 -55 9 -106t33.5 -89t66.5 -60.5t108 -22.5t108 22.5t66.5 60.5t33.5 89t9 106v1086h160v-1090q0 -90 -21.5 -164.5t-67.5 -129t-118 -85.5q-25 -10 -53 -16q-47 -27 -94 -60q-49 -35 -84 -78.5t-35 -95.5q0 -55 32.5 -79.5t88.5 -24.5q57 0 117.5 29.5
t99.5 54.5l32 -66q-61 -43 -142 -77.5t-159 -34.5q-70 0 -125 42t-55 134q0 76 45 130t111 93q18 10 35 19q-90 2 -156 30q-70 31 -116 85.5t-67.5 129t-21.5 164.5v1090h160z" />
    <glyph glyph-name="uogonek" unicode="&#x173;" 
d="M762 0h-25q-33 -12 -63 -27q-35 -16 -78 -46.5t-71.5 -72.5t-28.5 -94q0 -53 29.5 -78.5t76.5 -25.5q49 0 87 16.5t83 46.5l33 -65q-57 -43 -109.5 -67.5t-126.5 -24.5t-129 43t-55 131q0 74 42 129t97 90q51 31 101 45h-2v117q-53 -53 -121 -95t-121 -42
q-111 0 -172.5 65.5t-61.5 212.5v807h148v-786q0 -92 28.5 -134.5t88.5 -42.5q53 0 103 35t99 96v832h148v-1065z" />
    <glyph glyph-name="Wcircumflex" unicode="&#x174;" horiz-adv-x="1251" 
d="M160 1479l176 -1155h4l221 1155h131l230 -1155h4l164 1155h147l-238 -1479h-135l-233 1161h-4l-234 -1161h-135l-246 1479h148zM561 1839h139l207 -283h-131l-146 209l-145 -209h-131z" />
    <glyph glyph-name="wcircumflex" unicode="&#x175;" horiz-adv-x="1138" 
d="M176 1065l152 -782h4l172 782h139l176 -782h4l140 782h139l-221 -1065h-123l-185 827h-4l-184 -827h-123l-225 1065h139zM502 1466h139l207 -282h-131l-146 209l-145 -209h-131z" />
    <glyph glyph-name="Ycircumflex" unicode="&#x176;" 
d="M205 1479l254 -648l246 648h172l-340 -852v-627h-160v627l-344 852h172zM383 1839h139l207 -283h-131l-146 209l-145 -209h-131z" />
    <glyph glyph-name="ycircumflex" unicode="&#x177;" horiz-adv-x="681" 
d="M156 1065l200 -815h4l164 815h152l-244 -1042q-41 -176 -121 -273.5t-215 -97.5h-76v123h46q88 0 143 60.5t78 172.5l-283 1057h152zM279 1466h139l207 -282h-131l-146 209l-145 -209h-131z" />
    <glyph glyph-name="Ydieresis" unicode="&#x178;" 
d="M205 1479l254 -648l246 648h172l-340 -852v-627h-160v627l-344 852h172zM522 1786h135v-209h-135v209zM252 1786h135v-209h-135v209z" />
    <glyph glyph-name="Zacute" unicode="&#x179;" 
d="M819 1479v-111l-549 -1233h549v-135h-729v115l533 1228h-484v136h680zM496 1556h-102l200 283h160z" />
    <glyph glyph-name="zacute" unicode="&#x17a;" horiz-adv-x="681" 
d="M80 1065h553v-98l-422 -844h422v-123h-586v111l410 831h-377v123zM371 1184h-102l200 282h160z" />
    <glyph glyph-name="Zdotaccent" unicode="&#x17b;" 
d="M819 1479v-111l-549 -1233h549v-135h-729v115l533 1228h-484v136h680zM422 1786h135v-209h-135v209z" />
    <glyph glyph-name="zdotaccent" unicode="&#x17c;" horiz-adv-x="681" 
d="M80 1065h553v-98l-422 -844h422v-123h-586v111l410 831h-377v123zM299 1413h135v-209h-135v209z" />
    <glyph glyph-name="Zcaron" unicode="&#x17d;" 
d="M819 1479v-111l-549 -1233h549v-135h-729v115l533 1228h-484v136h680zM178 1839h131l145 -209l146 209h131l-207 -282h-139z" />
    <glyph glyph-name="zcaron" unicode="&#x17e;" horiz-adv-x="681" 
d="M80 1065h553v-98l-422 -844h422v-123h-586v111l410 831h-377v123zM66 1466h131l145 -209l146 209h131l-207 -282h-139z" />
    <glyph glyph-name="longs" unicode="&#x17f;" horiz-adv-x="796" 
d="M561 795q-10 35 -23.5 65.5t-34 53t-51 36t-75.5 13.5q-53 0 -86 -37t-33 -90t34 -93.5t83 -75t108.5 -69.5t108.5 -79t83 -103.5t34 -141.5q0 -63 -21.5 -116.5t-60.5 -93t-92.5 -62t-116.5 -22.5q-145 0 -223 73.5t-117 208.5l135 29q12 -35 28.5 -69t40 -60.5
t54.5 -43t72 -16.5q31 0 58.5 13.5t49 35t33.5 51t12 62.5q0 61 -33.5 105.5t-83 80t-109 70.5t-108.5 77t-82.5 97.5t-33.5 132.5q0 51 20.5 98.5t57 83t87 56t111.5 20.5q123 0 196.5 -66.5t100.5 -187.5z" />
    <glyph glyph-name="uni0189" unicode="&#x189;" horiz-adv-x="1024" 
d="M541 840v-135h-246v-570h86q88 0 156.5 23.5t115.5 89t72 183.5t25 308t-25 308t-72 183.5t-115.5 89t-156.5 23.5h-86v-503h246zM135 840v639h275q117 0 209 -36t156.5 -121t99 -227.5t34.5 -355.5t-34.5 -355t-99 -227t-157 -121t-208.5 -36h-275v705h-110v135h110z
" />
    <glyph glyph-name="florin" unicode="&#x192;" 
d="M70 -205q41 -20 86 -20q27 0 50 7t43.5 37.5t39 94t36 176.5t35 284t37.5 417h-180v122h189q6 172 32.5 285t71.5 180.5t105.5 94t134.5 26.5q25 0 49 -2t49 -6v-131q-23 4 -45.5 10t-44.5 6q-45 0 -78 -13t-57.5 -60.5t-41 -139.5t-28.5 -250h176v-122h-184
q-20 -254 -41 -437.5t-45.5 -309.5t-54 -204t-67.5 -120t-86 -55t-108 -13q-16 0 -35.5 2t-37.5 6v135z" />
    <glyph glyph-name="Ohorn" unicode="&#x1a0;" horiz-adv-x="1024" 
d="M757 1500v-205l-123 -295h-61l94 307h-82v193h172zM770 739q0 188 -20.5 309t-55.5 192t-82 97.5t-100 26.5t-100 -26.5t-82 -97.5t-55.5 -191.5t-20.5 -309.5q0 -188 20.5 -309t55.5 -191.5t82 -97t100 -26.5t100 26.5t82 97t55.5 191.5t20.5 309zM930 739
q0 -207 -30 -351t-85 -235.5t-132 -132t-171 -40.5t-171 40.5t-132 132t-85 235.5t-30 351t30 351.5t85 235.5t132 132t171 41t171 -41t132 -132t85 -235.5t30 -351.5z" />
    <glyph glyph-name="ohorn" unicode="&#x1a1;" horiz-adv-x="796" 
d="M643 1086v-205l-123 -295h-61l94 307h-82v193h172zM219 532q0 -133 10.5 -216t32 -131t55 -65.5t80.5 -17.5t81 17.5t55.5 65.5t31.5 131t10 216q0 131 -10 215t-31.5 132.5t-55.5 66t-81 17.5t-80.5 -17.5t-55 -66t-32 -132.5t-10.5 -215zM72 532q0 289 78.5 421
t246.5 132t247 -132t79 -421t-79 -420.5t-247 -131.5t-246.5 131.5t-78.5 420.5z" />
    <glyph glyph-name="Uhorn" unicode="&#x1af;" horiz-adv-x="1024" 
d="M1134 1500v-205l-123 -295h-61l94 307h-82v193h172zM295 1479v-1086q0 -55 9 -106t33.5 -89t66.5 -60.5t108 -22.5t108 22.5t66.5 60.5t33.5 89t9 106v1086h160v-1090q0 -90 -21.5 -164.5t-67.5 -129t-117 -85t-171 -30.5t-171 30.5t-117 85t-67.5 129t-21.5 164.5v1090
h160z" />
    <glyph glyph-name="uhorn" unicode="&#x1b0;" 
d="M1007 1086v-205l-123 -295h-61l94 307h-82v193h172zM762 0h-139v117q-53 -53 -121 -95t-121 -42q-111 0 -172.5 65.5t-61.5 212.5v807h148v-786q0 -92 28.5 -134.5t88.5 -42.5q53 0 103 35t99 96v832h148v-1065z" />
    <glyph glyph-name="uni01C0" unicode="&#x1c0;" horiz-adv-x="454" 
d="M160 1499h135v-1519h-135v1519z" />
    <glyph glyph-name="uni01C1" unicode="&#x1c1;" 
d="M615 1499h135v-1519h-135v1519zM160 1499h135v-1519h-135v1519z" />
    <glyph glyph-name="uni01C4" unicode="&#x1c4;" horiz-adv-x="1933" 
d="M1843 1479v-111l-549 -1233h549v-135h-729v115l533 1228h-484v136h680zM1202 1839h131l145 -209l146 209h131l-207 -282h-139zM295 135h86q88 0 156.5 23.5t115.5 89t72 183.5t25 308t-25 308t-72 183.5t-115.5 89t-156.5 23.5h-86v-1208zM135 1479h275q117 0 209 -36
t156.5 -121t99 -227.5t34.5 -355.5t-34.5 -355t-99 -227t-157 -121t-208.5 -36h-275v1479z" />
    <glyph glyph-name="uni01C5" unicode="&#x1c5;" horiz-adv-x="1705" 
d="M1104 1065h553v-98l-422 -844h422v-123h-586v111l410 831h-377v123zM1090 1466h131l145 -209l146 209h131l-207 -282h-139zM295 135h86q88 0 156.5 23.5t115.5 89t72 183.5t25 308t-25 308t-72 183.5t-115.5 89t-156.5 23.5h-86v-1208zM135 1479h275q117 0 209 -36
t156.5 -121t99 -227.5t34.5 -355.5t-34.5 -355t-99 -227t-157 -121t-208.5 -36h-275v1479z" />
    <glyph glyph-name="uni01C6" unicode="&#x1c6;" horiz-adv-x="1591" 
d="M989 1065h553v-98l-422 -844h422v-123h-586v111l410 831h-377v123zM975 1466h131l145 -209l146 209h131l-207 -282h-139zM602 868q-33 33 -71.5 64t-88.5 31q-47 0 -83.5 -21.5t-61.5 -71t-38 -132.5t-13 -206t14 -205.5t40 -132t62.5 -71t83.5 -21.5q35 0 78 28t78 75
v663zM629 102h-4q-39 -57 -93.5 -89.5t-125.5 -32.5q-63 0 -119 28.5t-98 94t-66.5 171t-24.5 258.5q0 154 24.5 259.5t66.5 171t97.5 94t119.5 28.5q59 0 109 -30.5t87 -67.5v492h148v-1192q0 -104 6 -172t18 -115h-139z" />
    <glyph glyph-name="uni01C7" unicode="&#x1c7;" horiz-adv-x="1366" 
d="M1231 1479v-1110q0 -115 -20.5 -190t-63.5 -119t-112.5 -62t-167.5 -18q-16 0 -38 4l-44 8l12 139q45 -16 92 -16q98 0 140 47t42 170v1147h160zM295 1479v-1344h479v-135h-639v1479h160z" />
    <glyph glyph-name="uni01C8" unicode="&#x1c8;" horiz-adv-x="1251" 
d="M957 1479h147v-172h-147v172zM805 -217q14 -4 26.5 -6t22.5 -2q49 0 76 29.5t27 101.5v1159h147v-1171q0 -133 -53 -187.5t-164 -54.5q-20 0 -39.5 2t-42.5 6v123zM295 1479v-1344h479v-135h-639v1479h160z" />
    <glyph glyph-name="uni01C9" unicode="&#x1c9;" 
d="M615 1479h147v-172h-147v172zM463 -217q14 -4 26.5 -6t22.5 -2q49 0 76 29.5t27 101.5v1159h147v-1171q0 -133 -53 -187.5t-164 -54.5q-20 0 -39.5 2t-42.5 6v123zM154 1479h147v-1479h-147v1479z" />
    <glyph glyph-name="uni01CA" unicode="&#x1ca;" horiz-adv-x="1593" 
d="M1458 1479v-1110q0 -115 -20.5 -190t-63.5 -119t-112.5 -62t-167.5 -18q-16 0 -38 4l-44 8l12 139q45 -16 92 -16q98 0 140 47t42 170v1147h160zM365 1479l380 -1090h5v1090h159v-1479h-172l-458 1286h-5v-1286h-159v1479h250z" />
    <glyph glyph-name="uni01CB" unicode="&#x1cb;" horiz-adv-x="1478" 
d="M1184 1479h147v-172h-147v172zM1032 -217q14 -4 26.5 -6t22.5 -2q49 0 76 29.5t27 101.5v1159h147v-1171q0 -133 -53 -187.5t-164 -54.5q-20 0 -39.5 2t-42.5 6v123zM365 1479l380 -1090h5v1090h159v-1479h-172l-458 1286h-5v-1286h-159v1479h250z" />
    <glyph glyph-name="uni01CC" unicode="&#x1cc;" horiz-adv-x="1363" 
d="M1069 1479h147v-172h-147v172zM917 -217q14 -4 26.5 -6t22.5 -2q49 0 76 29.5t27 101.5v1159h147v-1171q0 -133 -53 -187.5t-164 -54.5q-20 0 -39.5 2t-42.5 6v123zM147 1065h140v-117q53 53 120.5 95t120.5 42q111 0 172.5 -65.5t61.5 -212.5v-807h-148v786
q0 92 -28.5 134.5t-87.5 42.5q-53 0 -103.5 -35t-99.5 -97v-831h-148v1065z" />
    <glyph glyph-name="uni01CD" unicode="&#x1cd;" 
d="M178 1905h131l145 -209l146 209h131l-207 -283h-139zM289 573h332l-164 795h-4zM565 1479l326 -1479h-160l-88 438h-377l-88 -438h-160l326 1479h221z" />
    <glyph glyph-name="uni01CE" unicode="&#x1ce;" 
d="M166 1491h131l145 -209l146 209h131l-207 -282h-139zM600 573q-51 -16 -112.5 -41.5t-116 -63.5t-90 -88t-35.5 -114q0 -76 35.5 -120t115.5 -44q59 0 110.5 35t92.5 76v360zM127 774q10 63 34.5 119.5t63.5 99.5t92.5 67.5t124.5 24.5q147 0 226.5 -80.5t79.5 -222.5
v-594q0 -72 7 -121t19 -67h-153l-19 90q-23 -23 -51.5 -42t-59 -34.5t-61.5 -24.5t-55 -9q-125 0 -201 73.5t-76 200.5q0 98 48.5 173t123 129t162.5 88t168 52v76q0 88 -41 139.5t-113 51.5q-43 0 -74.5 -19.5t-54 -49.5t-36 -66.5t-19.5 -73.5z" />
    <glyph glyph-name="uni01CF" unicode="&#x1cf;" horiz-adv-x="454" 
d="M-49 1905h131l145 -209l146 209h131l-207 -283h-139zM307 1479v-1479h-160v1479h160z" />
    <glyph glyph-name="uni01D0" unicode="&#x1d0;" horiz-adv-x="454" 
d="M-49 1491h131l145 -209l146 209h131l-207 -282h-139zM154 1065h147v-1065h-147v1065z" />
    <glyph glyph-name="uni01D1" unicode="&#x1d1;" horiz-adv-x="1024" 
d="M236 1905h131l145 -209l146 209h131l-207 -283h-139zM770 739q0 188 -20.5 309t-55.5 192t-82 97.5t-100 26.5t-100 -26.5t-82 -97.5t-55.5 -191.5t-20.5 -309.5q0 -188 20.5 -309t55.5 -191.5t82 -97t100 -26.5t100 26.5t82 97t55.5 191.5t20.5 309zM930 739
q0 -207 -30 -351t-85 -235.5t-132 -132t-171 -40.5t-171 40.5t-132 132t-85 235.5t-30 351t30 351.5t85 235.5t132 132t171 41t171 -41t132 -132t85 -235.5t30 -351.5z" />
    <glyph glyph-name="uni01D2" unicode="&#x1d2;" horiz-adv-x="796" 
d="M121 1491h131l145 -209l146 209h131l-207 -282h-139zM219 532q0 -133 10.5 -216t32 -131t55 -65.5t80.5 -17.5t81 17.5t55.5 65.5t31.5 131t10 216q0 131 -10 215t-31.5 132.5t-55.5 66t-81 17.5t-80.5 -17.5t-55 -66t-32 -132.5t-10.5 -215zM72 532q0 289 78.5 421
t246.5 132t247 -132t79 -421t-79 -420.5t-247 -131.5t-246.5 131.5t-78.5 420.5z" />
    <glyph glyph-name="uni01D3" unicode="&#x1d3;" horiz-adv-x="1024" 
d="M236 1905h131l145 -209l146 209h131l-207 -283h-139zM295 1479v-1086q0 -55 9 -106t33.5 -89t66.5 -60.5t108 -22.5t108 22.5t66.5 60.5t33.5 89t9 106v1086h160v-1090q0 -90 -21.5 -164.5t-67.5 -129t-117 -85t-171 -30.5t-171 30.5t-117 85t-67.5 129t-21.5 164.5v1090
h160z" />
    <glyph glyph-name="uni01D4" unicode="&#x1d4;" 
d="M178 1491h131l145 -209l146 209h131l-207 -282h-139zM762 0h-139v117q-53 -53 -121 -95t-121 -42q-111 0 -172.5 65.5t-61.5 212.5v807h148v-786q0 -92 28.5 -134.5t88.5 -42.5q53 0 103 35t99 96v832h148v-1065z" />
    <glyph glyph-name="uni01D5" unicode="&#x1d5;" horiz-adv-x="1024" 
d="M240 1909v99h545v-99h-545zM295 1479v-1086q0 -55 9 -106t33.5 -89t66.5 -60.5t108 -22.5t108 22.5t66.5 60.5t33.5 89t9 106v1086h160v-1090q0 -90 -21.5 -164.5t-67.5 -129t-117 -85t-171 -30.5t-171 30.5t-117 85t-67.5 129t-21.5 164.5v1090h160zM580 1786h135v-209
h-135v209zM310 1786h135v-209h-135v209z" />
    <glyph glyph-name="uni01D6" unicode="&#x1d6;" 
d="M182 1536v99h545v-99h-545zM762 0h-139v117q-53 -53 -121 -95t-121 -42q-111 0 -172.5 65.5t-61.5 212.5v807h148v-786q0 -92 28.5 -134.5t88.5 -42.5q53 0 103 35t99 96v832h148v-1065zM522 1413h135v-209h-135v209zM252 1413h135v-209h-135v209z" />
    <glyph glyph-name="uni01D7" unicode="&#x1d7;" horiz-adv-x="1024" 
d="M563 1908h-102l200 283h160zM295 1479v-1086q0 -55 9 -106t33.5 -89t66.5 -60.5t108 -22.5t108 22.5t66.5 60.5t33.5 89t9 106v1086h160v-1090q0 -90 -21.5 -164.5t-67.5 -129t-117 -85t-171 -30.5t-171 30.5t-117 85t-67.5 129t-21.5 164.5v1090h160zM580 1786h135v-209
h-135v209zM310 1786h135v-209h-135v209z" />
    <glyph glyph-name="uni01D8" unicode="&#x1d8;" 
d="M506 1536h-102l200 282h160zM762 0h-139v117q-53 -53 -121 -95t-121 -42q-111 0 -172.5 65.5t-61.5 212.5v807h148v-786q0 -92 28.5 -134.5t88.5 -42.5q53 0 103 35t99 96v832h148v-1065zM522 1413h135v-209h-135v209zM252 1413h135v-209h-135v209z" />
    <glyph glyph-name="uni01D9" unicode="&#x1d9;" horiz-adv-x="1024" 
d="M236 2191h131l145 -209l146 209h131l-207 -283h-139zM295 1479v-1086q0 -55 9 -106t33.5 -89t66.5 -60.5t108 -22.5t108 22.5t66.5 60.5t33.5 89t9 106v1086h160v-1090q0 -90 -21.5 -164.5t-67.5 -129t-117 -85t-171 -30.5t-171 30.5t-117 85t-67.5 129t-21.5 164.5v1090
h160zM580 1786h135v-209h-135v209zM310 1786h135v-209h-135v209z" />
    <glyph glyph-name="uni01DA" unicode="&#x1da;" 
d="M178 1818h131l145 -209l146 209h131l-207 -282h-139zM762 0h-139v117q-53 -53 -121 -95t-121 -42q-111 0 -172.5 65.5t-61.5 212.5v807h148v-786q0 -92 28.5 -134.5t88.5 -42.5q53 0 103 35t99 96v832h148v-1065zM522 1413h135v-209h-135v209zM252 1413h135v-209h-135
v209z" />
    <glyph glyph-name="uni01DB" unicode="&#x1db;" horiz-adv-x="1024" 
d="M203 2191h159l201 -283h-102zM295 1479v-1086q0 -55 9 -106t33.5 -89t66.5 -60.5t108 -22.5t108 22.5t66.5 60.5t33.5 89t9 106v1086h160v-1090q0 -90 -21.5 -164.5t-67.5 -129t-117 -85t-171 -30.5t-171 30.5t-117 85t-67.5 129t-21.5 164.5v1090h160zM580 1786h135
v-209h-135v209zM310 1786h135v-209h-135v209z" />
    <glyph glyph-name="uni01DC" unicode="&#x1dc;" 
d="M146 1818h159l201 -282h-102zM762 0h-139v117q-53 -53 -121 -95t-121 -42q-111 0 -172.5 65.5t-61.5 212.5v807h148v-786q0 -92 28.5 -134.5t88.5 -42.5q53 0 103 35t99 96v832h148v-1065zM522 1413h135v-209h-135v209zM252 1413h135v-209h-135v209z" />
    <glyph glyph-name="uni01DE" unicode="&#x1de;" 
d="M182 1909v99h545v-99h-545zM289 573h332l-164 795h-4zM565 1479l326 -1479h-160l-88 438h-377l-88 -438h-160l326 1479h221zM522 1786h135v-209h-135v209zM252 1786h135v-209h-135v209z" />
    <glyph glyph-name="uni01DF" unicode="&#x1df;" 
d="M182 1536v99h545v-99h-545zM600 573q-51 -16 -112.5 -41.5t-116 -63.5t-90 -88t-35.5 -114q0 -76 35.5 -120t115.5 -44q59 0 110.5 35t92.5 76v360zM127 774q10 63 34.5 119.5t63.5 99.5t92.5 67.5t124.5 24.5q147 0 226.5 -80.5t79.5 -222.5v-594q0 -72 7 -121t19 -67
h-153l-19 90q-23 -23 -51.5 -42t-59 -34.5t-61.5 -24.5t-55 -9q-125 0 -201 73.5t-76 200.5q0 98 48.5 173t123 129t162.5 88t168 52v76q0 88 -41 139.5t-113 51.5q-43 0 -74.5 -19.5t-54 -49.5t-36 -66.5t-19.5 -73.5zM522 1413h135v-209h-135v209zM252 1413h135v-209h-135
v209z" />
    <glyph glyph-name="uni01E2" unicode="&#x1e2;" horiz-adv-x="1478" 
d="M725 1622v99h545v-99h-545zM733 573v816h-4l-319 -816h323zM1380 1479v-136h-487v-503h381v-135h-381v-570h512v-135h-672v438h-377l-168 -438h-170l594 1479h768z" />
    <glyph glyph-name="uni01E3" unicode="&#x1e3;" horiz-adv-x="1251" 
d="M356 1208v99h545v-99h-545zM1030 631q-4 172 -41 252t-137 80q-74 0 -124 -78t-54 -254h356zM526 573l-91 -42q-54 -26 -104 -63.5t-86 -87.5t-36 -114q0 -76 36 -120t115 -44q47 0 94.5 35t71.5 76v360zM674 508v-59q0 -98 18.5 -164t47 -107t63.5 -58.5t69 -17.5
q43 0 73 17.5t51.5 46.5t34.5 64.5t20 72.5l139 -16q-8 -59 -35 -114.5t-67.5 -98.5t-96 -68.5t-121.5 -25.5q-86 0 -154.5 30.5t-111.5 114.5q-86 -92 -153.5 -118.5t-112.5 -26.5q-125 0 -201 73.5t-76 200.5q0 98 48.5 173t119 129t151.5 88t146 52v76q0 98 -37.5 144.5
t-99.5 46.5q-33 0 -59.5 -19.5t-48 -49.5t-36 -66.5t-20.5 -73.5l-135 20q10 63 35 119.5t62.5 99.5t92 67.5t123.5 24.5q82 0 135.5 -37.5t82.5 -93.5q47 68 106 99.5t125 31.5q84 0 145.5 -35.5t101.5 -102t59.5 -161t19.5 -208.5v-70h-504z" />
    <glyph glyph-name="Gcaron" unicode="&#x1e6;" horiz-adv-x="1024" 
d="M242 1905h131l145 -209l146 209h131l-207 -283h-139zM750 1024q-4 72 -18.5 134.5t-41 108.5t-68.5 71.5t-104 25.5q-68 0 -117 -32t-81.5 -105.5t-49 -193.5t-16.5 -294t16.5 -293.5t49 -193.5t82 -105.5t116.5 -31.5q113 0 172.5 59t59.5 174v209h-201v135h360v-692
h-102l-21 111q-47 -61 -111.5 -96t-156.5 -35q-98 0 -176 39.5t-133 130t-85 235.5t-30 354t30 354.5t85 235.5t133 130t176 40q102 0 173 -41t117 -107.5t69.5 -152.5t31.5 -174h-159z" />
    <glyph glyph-name="gcaron" unicode="&#x1e7;" 
d="M373 1491h131l145 -209l146 209h131l-207 -282h-139zM688 -86q0 37 -30.5 59.5t-76.5 38t-101.5 25.5t-102.5 20q-66 -29 -105 -64.5t-39 -80.5q0 -66 56.5 -108t177.5 -42q123 0 172 43t49 109zM287 707q0 -152 45 -210.5t110 -58.5q33 0 60.5 13.5t49 45t34 83
t12.5 127.5t-12.5 127t-34 82.5t-49 45t-60.5 13.5q-66 0 -110.5 -58t-44.5 -210zM836 950q-12 4 -23 4h-20q-29 0 -50.5 -11t-42.5 -30q16 -49 24.5 -94t8.5 -110q0 -100 -21.5 -172t-60.5 -118t-91 -68.5t-114 -22.5q-25 0 -49 4t-49 4q-18 -4 -46 -21.5t-28 -48.5
q0 -29 21.5 -45t56.5 -26.5t82 -18.5t98 -18q57 -12 110.5 -29.5t93.5 -46.5t63.5 -72t23.5 -108q0 -53 -24.5 -98.5t-70.5 -79t-113.5 -53t-151.5 -19.5q-182 0 -273.5 62.5t-91.5 166.5q0 72 42 127t114 86q-47 16 -81 53t-34 91q0 59 43 95t97 46q-31 23 -55.5 57.5
t-40 75.5t-23.5 86t-8 86q0 193 83.5 297t225.5 104q53 0 110.5 -23.5t83.5 -74.5q25 43 69 70.5t112 27.5v-135z" />
    <glyph glyph-name="uni01E8" unicode="&#x1e8;" 
d="M213 1905h131l145 -209l146 209h131l-207 -283h-139zM274 1479v-754h5l413 754h172l-286 -516l340 -963h-173l-274 799h-4l-193 -344v-455h-159v1479h159z" />
    <glyph glyph-name="uni01E9" unicode="&#x1e9;" horiz-adv-x="796" 
d="M-67 1884h131l145 -209l146 209h131l-207 -282h-139zM135 1479h148v-934h4l282 520h152l-197 -340l246 -725h-152l-192 578h-4l-139 -263v-315h-148v1479z" />
    <glyph glyph-name="uni01EA" unicode="&#x1ea;" horiz-adv-x="1024" 
d="M512 -25q-39 -14 -94.5 -36.5t-105.5 -53t-85 -70.5t-35 -92q0 -59 33 -83.5t88 -24.5q57 0 117.5 29.5t99.5 54.5l33 -66q-61 -43 -142 -77.5t-159 -34.5q-70 0 -125.5 42t-55.5 134q0 78 45.5 130t112 86t140 52.5t133.5 30.5v-21zM770 739q0 188 -20.5 309t-55.5 192
t-82 97.5t-100 26.5t-100 -26.5t-82 -97.5t-55.5 -191.5t-20.5 -309.5q0 -188 20.5 -309t55.5 -191.5t82 -97t100 -26.5t100 26.5t82 97t55.5 191.5t20.5 309zM930 739q0 -207 -30 -351t-85 -235.5t-132 -132t-171 -40.5t-171 40.5t-132 132t-85 235.5t-30 351t30 351.5
t85 235.5t132 132t171 41t171 -41t132 -132t85 -235.5t30 -351.5z" />
    <glyph glyph-name="uni01EB" unicode="&#x1eb;" horiz-adv-x="796" 
d="M398 -25q-39 -14 -94.5 -36.5t-105.5 -53t-85 -70.5t-35 -92q0 -59 33 -83.5t88 -24.5q57 0 117.5 29.5t99.5 54.5l33 -66q-61 -43 -142 -77.5t-159 -34.5q-70 0 -125.5 42t-55.5 134q0 78 45.5 130t112 86t140 52.5t133.5 30.5v-21zM219 532q0 -133 10.5 -216t32 -131
t55 -65.5t80.5 -17.5t81 17.5t55.5 65.5t31.5 131t10 216q0 131 -10 215t-31.5 132.5t-55.5 66t-81 17.5t-80.5 -17.5t-55 -66t-32 -132.5t-10.5 -215zM72 532q0 289 78.5 421t246.5 132t247 -132t79 -421t-79 -420.5t-247 -131.5t-246.5 131.5t-78.5 420.5z" />
    <glyph glyph-name="uni01EC" unicode="&#x1ec;" horiz-adv-x="1024" 
d="M240 1622v99h545v-99h-545zM512 -25q-39 -14 -94.5 -36.5t-105.5 -53t-85 -70.5t-35 -92q0 -59 33 -83.5t88 -24.5q57 0 117.5 29.5t99.5 54.5l33 -66q-61 -43 -142 -77.5t-159 -34.5q-70 0 -125.5 42t-55.5 134q0 78 45.5 130t112 86t140 52.5t133.5 30.5v-21zM770 739
q0 188 -20.5 309t-55.5 192t-82 97.5t-100 26.5t-100 -26.5t-82 -97.5t-55.5 -191.5t-20.5 -309.5q0 -188 20.5 -309t55.5 -191.5t82 -97t100 -26.5t100 26.5t82 97t55.5 191.5t20.5 309zM930 739q0 -207 -30 -351t-85 -235.5t-132 -132t-171 -40.5t-171 40.5t-132 132
t-85 235.5t-30 351t30 351.5t85 235.5t132 132t171 41t171 -41t132 -132t85 -235.5t30 -351.5z" />
    <glyph glyph-name="uni01ED" unicode="&#x1ed;" horiz-adv-x="796" 
d="M125 1208v99h545v-99h-545zM398 -25q-39 -14 -94.5 -36.5t-105.5 -53t-85 -70.5t-35 -92q0 -59 33 -83.5t88 -24.5q57 0 117.5 29.5t99.5 54.5l33 -66q-61 -43 -142 -77.5t-159 -34.5q-70 0 -125.5 42t-55.5 134q0 78 45.5 130t112 86t140 52.5t133.5 30.5v-21zM219 532
q0 -133 10.5 -216t32 -131t55 -65.5t80.5 -17.5t81 17.5t55.5 65.5t31.5 131t10 216q0 131 -10 215t-31.5 132.5t-55.5 66t-81 17.5t-80.5 -17.5t-55 -66t-32 -132.5t-10.5 -215zM72 532q0 289 78.5 421t246.5 132t247 -132t79 -421t-79 -420.5t-247 -131.5t-246.5 131.5
t-78.5 420.5z" />
    <glyph glyph-name="uni01F0" unicode="&#x1f0;" horiz-adv-x="454" 
d="M-43 1470h131l145 -209l146 209h131l-207 -282h-139zM8 -217q14 -4 26.5 -6t22.5 -2q49 0 76 29.5t27 101.5v1159h147v-1171q0 -133 -53 -187.5t-164 -54.5q-20 0 -39.5 2t-42.5 6v123z" />
    <glyph glyph-name="uni01F1" unicode="&#x1f1;" horiz-adv-x="1933" 
d="M1843 1479v-111l-549 -1233h549v-135h-729v115l533 1228h-484v136h680zM295 135h86q88 0 156.5 23.5t115.5 89t72 183.5t25 308t-25 308t-72 183.5t-115.5 89t-156.5 23.5h-86v-1208zM135 1479h275q117 0 209 -36t156.5 -121t99 -227.5t34.5 -355.5t-34.5 -355t-99 -227
t-157 -121t-208.5 -36h-275v1479z" />
    <glyph glyph-name="uni01F2" unicode="&#x1f2;" horiz-adv-x="1705" 
d="M1104 1065h553v-98l-422 -844h422v-123h-586v111l410 831h-377v123zM295 135h86q88 0 156.5 23.5t115.5 89t72 183.5t25 308t-25 308t-72 183.5t-115.5 89t-156.5 23.5h-86v-1208zM135 1479h275q117 0 209 -36t156.5 -121t99 -227.5t34.5 -355.5t-34.5 -355t-99 -227
t-157 -121t-208.5 -36h-275v1479z" />
    <glyph glyph-name="uni01F3" unicode="&#x1f3;" horiz-adv-x="1591" 
d="M989 1065h553v-98l-422 -844h422v-123h-586v111l410 831h-377v123zM602 868q-33 33 -71.5 64t-88.5 31q-47 0 -83.5 -21.5t-61.5 -71t-38 -132.5t-13 -206t14 -205.5t40 -132t62.5 -71t83.5 -21.5q35 0 78 28t78 75v663zM629 102h-4q-39 -57 -93.5 -89.5t-125.5 -32.5
q-63 0 -119 28.5t-98 94t-66.5 171t-24.5 258.5q0 154 24.5 259.5t66.5 171t97.5 94t119.5 28.5q59 0 109 -30.5t87 -67.5v492h148v-1192q0 -104 6 -172t18 -115h-139z" />
    <glyph glyph-name="uni01F4" unicode="&#x1f4;" horiz-adv-x="1024" 
d="M569 1622h-102l200 283h160zM750 1024q-4 72 -18.5 134.5t-41 108.5t-68.5 71.5t-104 25.5q-68 0 -117 -32t-81.5 -105.5t-49 -193.5t-16.5 -294t16.5 -293.5t49 -193.5t82 -105.5t116.5 -31.5q113 0 172.5 59t59.5 174v209h-201v135h360v-692h-102l-21 111
q-47 -61 -111.5 -96t-156.5 -35q-98 0 -176 39.5t-133 130t-85 235.5t-30 354t30 354.5t85 235.5t133 130t176 40q102 0 173 -41t117 -107.5t69.5 -152.5t31.5 -174h-159z" />
    <glyph glyph-name="uni01F5" unicode="&#x1f5;" 
d="M700 1209h-102l200 282h160zM688 -86q0 37 -30.5 59.5t-76.5 38t-101.5 25.5t-102.5 20q-66 -29 -105 -64.5t-39 -80.5q0 -66 56.5 -108t177.5 -42q123 0 172 43t49 109zM287 707q0 -152 45 -210.5t110 -58.5q33 0 60.5 13.5t49 45t34 83t12.5 127.5t-12.5 127t-34 82.5
t-49 45t-60.5 13.5q-66 0 -110.5 -58t-44.5 -210zM836 950q-12 4 -23 4h-20q-29 0 -50.5 -11t-42.5 -30q16 -49 24.5 -94t8.5 -110q0 -100 -21.5 -172t-60.5 -118t-91 -68.5t-114 -22.5q-25 0 -49 4t-49 4q-18 -4 -46 -21.5t-28 -48.5q0 -29 21.5 -45t56.5 -26.5t82 -18.5
t98 -18q57 -12 110.5 -29.5t93.5 -46.5t63.5 -72t23.5 -108q0 -53 -24.5 -98.5t-70.5 -79t-113.5 -53t-151.5 -19.5q-182 0 -273.5 62.5t-91.5 166.5q0 72 42 127t114 86q-47 16 -81 53t-34 91q0 59 43 95t97 46q-31 23 -55.5 57.5t-40 75.5t-23.5 86t-8 86q0 193 83.5 297
t225.5 104q53 0 110.5 -23.5t83.5 -74.5q25 43 69 70.5t112 27.5v-135z" />
    <glyph glyph-name="uni01F8" unicode="&#x1f8;" horiz-adv-x="1024" 
d="M203 1905h159l201 -283h-102zM365 1479l380 -1090h5v1090h159v-1479h-172l-458 1286h-5v-1286h-159v1479h250z" />
    <glyph glyph-name="uni01F9" unicode="&#x1f9;" 
d="M146 1491h159l201 -282h-102zM147 1065h140v-117q53 53 120.5 95t120.5 42q111 0 172.5 -65.5t61.5 -212.5v-807h-148v786q0 92 -28.5 134.5t-87.5 42.5q-53 0 -103.5 -35t-99.5 -97v-831h-148v1065z" />
    <glyph glyph-name="Aringacute" unicode="&#x1fa;" 
d="M506 2068h-102l200 283h160zM289 573h332l-164 795h-4zM565 1479l326 -1479h-160l-88 438h-377l-88 -438h-160l326 1479h221zM346 1751q0 -43 32.5 -75.5t75.5 -32.5t76 32.5t33 75.5t-33 76t-76 33t-75.5 -33t-32.5 -76zM260 1751q0 39 14 75t41 62.5t62.5 42t76.5 15.5
t77 -15.5t61.5 -42t41 -62.5t15.5 -75q0 -41 -15.5 -75.5t-41 -61.5t-61.5 -42t-77 -15t-76.5 15t-62.5 42t-41 61.5t-14 75.5z" />
    <glyph glyph-name="aringacute" unicode="&#x1fb;" 
d="M506 1696h-102l200 282h160zM600 573q-51 -16 -112.5 -41.5t-116 -63.5t-90 -88t-35.5 -114q0 -76 35.5 -120t115.5 -44q59 0 110.5 35t92.5 76v360zM127 774q10 63 34.5 119.5t63.5 99.5t92.5 67.5t124.5 24.5q147 0 226.5 -80.5t79.5 -222.5v-594q0 -72 7 -121t19 -67
h-153l-19 90q-23 -23 -51.5 -42t-59 -34.5t-61.5 -24.5t-55 -9q-125 0 -201 73.5t-76 200.5q0 98 48.5 173t123 129t162.5 88t168 52v76q0 88 -41 139.5t-113 51.5q-43 0 -74.5 -19.5t-54 -49.5t-36 -66.5t-19.5 -73.5zM346 1378q0 -43 32.5 -75.5t75.5 -32.5t76 32.5
t33 75.5t-33 76t-76 33t-75.5 -33t-32.5 -76zM260 1378q0 39 14 75t41 62.5t62.5 42t76.5 15.5t77 -15.5t61.5 -42t41 -62.5t15.5 -75q0 -41 -15.5 -75.5t-41 -61.5t-61.5 -42t-77 -15t-76.5 15t-62.5 42t-41 61.5t-14 75.5z" />
    <glyph glyph-name="AEacute" unicode="&#x1fc;" horiz-adv-x="1478" 
d="M1049 1622h-102l200 283h160zM733 573v816h-4l-319 -816h323zM1380 1479v-136h-487v-503h381v-135h-381v-570h512v-135h-672v438h-377l-168 -438h-170l594 1479h768z" />
    <glyph glyph-name="aeacute" unicode="&#x1fd;" horiz-adv-x="1251" 
d="M680 1209h-102l200 282h160zM1030 631q-4 172 -41 252t-137 80q-74 0 -124 -78t-54 -254h356zM526 573l-91 -42q-54 -26 -104 -63.5t-86 -87.5t-36 -114q0 -76 36 -120t115 -44q47 0 94.5 35t71.5 76v360zM674 508v-59q0 -98 18.5 -164t47 -107t63.5 -58.5t69 -17.5
q43 0 73 17.5t51.5 46.5t34.5 64.5t20 72.5l139 -16q-8 -59 -35 -114.5t-67.5 -98.5t-96 -68.5t-121.5 -25.5q-86 0 -154.5 30.5t-111.5 114.5q-86 -92 -153.5 -118.5t-112.5 -26.5q-125 0 -201 73.5t-76 200.5q0 98 48.5 173t119 129t151.5 88t146 52v76q0 98 -37.5 144.5
t-99.5 46.5q-33 0 -59.5 -19.5t-48 -49.5t-36 -66.5t-20.5 -73.5l-135 20q10 63 35 119.5t62.5 99.5t92 67.5t123.5 24.5q82 0 135.5 -37.5t82.5 -93.5q47 68 106 99.5t125 31.5q84 0 145.5 -35.5t101.5 -102t59.5 -161t19.5 -208.5v-70h-504z" />
    <glyph glyph-name="Oslashacute" unicode="&#x1fe;" horiz-adv-x="1024" 
d="M547 1769h-102l200 283h160zM668 1284q-35 45 -74 62.5t-82 17.5q-53 0 -100 -26.5t-82 -97.5t-55.5 -191.5t-20.5 -309.5q0 -133 10 -231t29 -166h4zM350 205q35 -51 75 -70.5t87 -19.5q53 0 100 26.5t82 97t55.5 191.5t20.5 309q0 141 -11 242.5t-30 173.5h-4z
M172 -246h-111l156 389q-59 92 -91 237.5t-32 358.5q0 207 30 351.5t85 235.5t132 132t171 41q125 0 213 -69l86 217h111l-119 -304q59 -92 93 -239.5t34 -364.5q0 -207 -30 -351t-85 -235.5t-132 -132t-171 -40.5q-63 0 -118.5 18t-102.5 59z" />
    <glyph glyph-name="oslashacute" unicode="&#x1ff;" horiz-adv-x="796" 
d="M449 1413h-102l200 282h160zM297 137q18 -20 44 -27.5t56 -7.5q47 0 81 17.5t55.5 65.5t31.5 131t10 216q0 170 -16 265h-4zM504 924q-37 39 -107 39q-47 0 -80.5 -17.5t-55 -66t-32 -132t-10.5 -215.5q0 -184 19 -278h4zM627 975q96 -129 96 -443q0 -289 -79 -420.5
t-247 -131.5q-90 0 -147 36l-105 -262h-102l129 326q-100 131 -100 452q0 289 78.5 421t246.5 132q96 0 156 -41l96 246h103z" />
    <glyph glyph-name="uni0202" unicode="&#x202;" 
d="M268 1622q8 86 59.5 125t135.5 39q86 0 123.5 -43t54.5 -121h78q-10 125 -81 193.5t-196 68.5q-57 0 -102 -20.5t-78 -56.5t-51.5 -83t-20.5 -102h78zM289 573h332l-164 795h-4zM565 1479l326 -1479h-160l-88 438h-377l-88 -438h-160l326 1479h221z" />
    <glyph glyph-name="uni0203" unicode="&#x203;" 
d="M256 1208q8 86 59.5 125t135.5 39q86 0 123.5 -43t54.5 -121h78q-10 125 -81 193.5t-196 68.5q-57 0 -102 -20.5t-78 -56.5t-51.5 -83t-20.5 -102h78zM600 573q-51 -16 -112.5 -41.5t-116 -63.5t-90 -88t-35.5 -114q0 -76 35.5 -120t115.5 -44q59 0 110.5 35t92.5 76v360
zM127 774q10 63 34.5 119.5t63.5 99.5t92.5 67.5t124.5 24.5q147 0 226.5 -80.5t79.5 -222.5v-594q0 -72 7 -121t19 -67h-153l-19 90q-23 -23 -51.5 -42t-59 -34.5t-61.5 -24.5t-55 -9q-125 0 -201 73.5t-76 200.5q0 98 48.5 173t123 129t162.5 88t168 52v76q0 88 -41 139.5
t-113 51.5q-43 0 -74.5 -19.5t-54 -49.5t-36 -66.5t-19.5 -73.5z" />
    <glyph glyph-name="uni0206" unicode="&#x206;" 
d="M287 1622q8 86 59.5 125t135.5 39q86 0 123.5 -43t54.5 -121h78q-10 125 -81 193.5t-196 68.5q-57 0 -102 -20.5t-78 -56.5t-51.5 -83t-20.5 -102h78zM811 1479v-136h-516v-503h381v-135h-381v-570h541v-135h-701v1479h676z" />
    <glyph glyph-name="uni0207" unicode="&#x207;" horiz-adv-x="796" 
d="M211 1208q8 86 59.5 125t135.5 39q86 0 123.5 -43t54.5 -121h78q-10 125 -81 193.5t-196 68.5q-57 0 -102 -20.5t-78 -56.5t-51.5 -83t-20.5 -102h78zM575 631q-4 172 -40.5 252t-137.5 80q-41 0 -72.5 -16.5t-55 -54.5t-37 -102.5t-13.5 -158.5h356zM219 508v-59
q0 -98 11.5 -164t36 -107t61.5 -58.5t90 -17.5q43 0 72.5 17.5t51 46.5t35 64.5t19.5 72.5l139 -16q-8 -59 -34.5 -114.5t-69.5 -98.5t-101.5 -68.5t-132.5 -25.5q-168 0 -246.5 132t-78.5 420q0 289 78.5 421t246.5 132q84 0 145.5 -35.5t101.5 -102t59.5 -161t19.5 -208.5
v-70h-504z" />
    <glyph glyph-name="uni020A" unicode="&#x20a;" horiz-adv-x="454" 
d="M41 1622q8 86 59.5 125t135.5 39q86 0 123.5 -43t54.5 -121h78q-10 125 -81 193.5t-196 68.5q-57 0 -102 -20.5t-78 -56.5t-51.5 -83t-20.5 -102h78zM307 1479v-1479h-160v1479h160z" />
    <glyph glyph-name="uni020B" unicode="&#x20b;" horiz-adv-x="454" 
d="M41 1208q8 86 59.5 125t135.5 39q86 0 123.5 -43t54.5 -121h78q-10 125 -81 193.5t-196 68.5q-57 0 -102 -20.5t-78 -56.5t-51.5 -83t-20.5 -102h78zM154 1065h147v-1065h-147v1065z" />
    <glyph glyph-name="uni020E" unicode="&#x20e;" horiz-adv-x="1024" 
d="M326 1622q8 86 59.5 125t135.5 39q86 0 123.5 -43t54.5 -121h78q-10 125 -81 193.5t-196 68.5q-57 0 -102 -20.5t-78 -56.5t-51.5 -83t-20.5 -102h78zM770 739q0 188 -20.5 309t-55.5 192t-82 97.5t-100 26.5t-100 -26.5t-82 -97.5t-55.5 -191.5t-20.5 -309.5
q0 -188 20.5 -309t55.5 -191.5t82 -97t100 -26.5t100 26.5t82 97t55.5 191.5t20.5 309zM930 739q0 -207 -30 -351t-85 -235.5t-132 -132t-171 -40.5t-171 40.5t-132 132t-85 235.5t-30 351t30 351.5t85 235.5t132 132t171 41t171 -41t132 -132t85 -235.5t30 -351.5z" />
    <glyph glyph-name="uni020F" unicode="&#x20f;" horiz-adv-x="796" 
d="M211 1208q8 86 59.5 125t135.5 39q86 0 123.5 -43t54.5 -121h78q-10 125 -81 193.5t-196 68.5q-57 0 -102 -20.5t-78 -56.5t-51.5 -83t-20.5 -102h78zM219 532q0 -133 10.5 -216t32 -131t55 -65.5t80.5 -17.5t81 17.5t55.5 65.5t31.5 131t10 216q0 131 -10 215
t-31.5 132.5t-55.5 66t-81 17.5t-80.5 -17.5t-55 -66t-32 -132.5t-10.5 -215zM72 532q0 289 78.5 421t246.5 132t247 -132t79 -421t-79 -420.5t-247 -131.5t-246.5 131.5t-78.5 420.5z" />
    <glyph glyph-name="uni0212" unicode="&#x212;" horiz-adv-x="1024" 
d="M127 1622q8 86 59.5 125t135.5 39q86 0 123.5 -43t54.5 -121h78q-10 125 -81 193.5t-196 68.5q-57 0 -102 -20.5t-78 -56.5t-51.5 -83t-20.5 -102h78zM295 831h139q172 0 237.5 66t65.5 190q0 125 -65.5 190.5t-237.5 65.5h-139v-512zM135 1479h357q88 0 162.5 -26
t129 -75t84 -119.5t29.5 -162.5q0 -125 -57.5 -222.5t-180.5 -140.5l250 -733h-168l-237 700l-209 -8v-692h-160v1479z" />
    <glyph glyph-name="uni0213" unicode="&#x213;" horiz-adv-x="569" 
d="M160 1208q8 86 59.5 125t135.5 39q86 0 123.5 -43t54.5 -121h78q-10 125 -81 193.5t-196 68.5q-57 0 -102 -20.5t-78 -56.5t-51.5 -83t-20.5 -102h78zM135 1065h148v-129h4q33 49 62.5 77.5t61 45t67.5 21.5t79 5v-139q-41 0 -78 -8t-70.5 -29.5t-64.5 -57.5t-61 -93
v-758h-148v1065z" />
    <glyph glyph-name="uni0216" unicode="&#x216;" horiz-adv-x="1024" 
d="M326 1622q8 86 59.5 125t135.5 39q86 0 123.5 -43t54.5 -121h78q-10 125 -81 193.5t-196 68.5q-57 0 -102 -20.5t-78 -56.5t-51.5 -83t-20.5 -102h78zM295 1479v-1086q0 -55 9 -106t33.5 -89t66.5 -60.5t108 -22.5t108 22.5t66.5 60.5t33.5 89t9 106v1086h160v-1090
q0 -90 -21.5 -164.5t-67.5 -129t-117 -85t-171 -30.5t-171 30.5t-117 85t-67.5 129t-21.5 164.5v1090h160z" />
    <glyph glyph-name="uni0217" unicode="&#x217;" 
d="M268 1208q8 86 59.5 125t135.5 39q86 0 123.5 -43t54.5 -121h78q-10 125 -81 193.5t-196 68.5q-57 0 -102 -20.5t-78 -56.5t-51.5 -83t-20.5 -102h78zM762 0h-139v117q-53 -53 -121 -95t-121 -42q-111 0 -172.5 65.5t-61.5 212.5v807h148v-786q0 -92 28.5 -134.5
t88.5 -42.5q53 0 103 35t99 96v832h148v-1065z" />
    <glyph glyph-name="Scommaaccent" unicode="&#x218;" 
d="M664 1098q-4 57 -18.5 105t-42.5 84t-68.5 56.5t-98.5 20.5q-92 0 -147.5 -54.5t-55.5 -140.5q0 -84 44.5 -143t110 -110.5t143 -100.5t143 -111.5t109.5 -145.5t44 -202q0 -178 -97 -277t-281 -99q-86 0 -156 30.5t-118 86t-73.5 132t-27.5 168.5h147
q4 -131 64.5 -206.5t179.5 -75.5q100 0 159.5 62.5t59.5 180.5q0 84 -44 146.5t-109.5 116t-143.5 103.5t-143.5 111.5t-109.5 137.5t-44 182q0 78 25.5 141.5t73 108.5t113 69.5t144.5 24.5q160 0 257.5 -103.5t107.5 -297.5h-147zM532 -94v-158l-88 -190h-57l71 190h-75
v158h149z" />
    <glyph glyph-name="scommaaccent" unicode="&#x219;" horiz-adv-x="796" 
d="M561 795q-10 35 -23.5 65.5t-34 53t-51 36t-75.5 13.5q-53 0 -86 -37t-33 -90t34 -93.5t83 -75t108.5 -69.5t108.5 -79t83 -103.5t34 -141.5q0 -63 -21.5 -116.5t-60.5 -93t-92.5 -62t-116.5 -22.5q-145 0 -223 73.5t-117 208.5l135 29q12 -35 28.5 -69t40 -60.5
t54.5 -43t72 -16.5q31 0 58.5 13.5t49 35t33.5 51t12 62.5q0 61 -33.5 105.5t-83 80t-109 70.5t-108.5 77t-82.5 97.5t-33.5 132.5q0 51 20.5 98.5t57 83t87 56t111.5 20.5q123 0 196.5 -66.5t100.5 -187.5zM469 -94v-158l-88 -190h-57l71 190h-75v158h149z" />
    <glyph glyph-name="uni021A" unicode="&#x21a;" horiz-adv-x="796" 
d="M780 1479v-136h-303v-1343h-160v1343h-303v136h766zM471 -94v-158l-88 -190h-57l71 190h-75v158h149z" />
    <glyph glyph-name="uni021B" unicode="&#x21b;" horiz-adv-x="569" 
d="M16 1065h144v356h147v-356h197v-123h-197v-745q0 -47 25.5 -77t81.5 -30q23 0 47 7t43 14v-111q-31 -10 -61.5 -15t-77.5 -5q-104 0 -154.5 53t-50.5 176v733h-144v123zM387 -94v-158l-88 -190h-57l71 190h-75v158h149z" />
    <glyph glyph-name="uni021E" unicode="&#x21e;" horiz-adv-x="1024" 
d="M236 1905h131l145 -209l146 209h131l-207 -283h-139zM295 1479v-639h434v639h160v-1479h-160v705h-434v-705h-160v1479h160z" />
    <glyph glyph-name="uni021F" unicode="&#x21f;" 
d="M178 1884h131l145 -209l146 209h131l-207 -282h-139zM147 1479h148v-531q47 53 113.5 95t119.5 42q111 0 172.5 -65.5t61.5 -212.5v-807h-148v786q0 92 -28.5 134.5t-87.5 42.5q-53 0 -103.5 -35t-99.5 -97v-831h-148v1479z" />
    <glyph glyph-name="uni0226" unicode="&#x226;" 
d="M387 1831h135v-209h-135v209zM289 573h332l-164 795h-4zM565 1479l326 -1479h-160l-88 438h-377l-88 -438h-160l326 1479h221z" />
    <glyph glyph-name="uni0227" unicode="&#x227;" 
d="M375 1417h135v-209h-135v209zM600 573q-51 -16 -112.5 -41.5t-116 -63.5t-90 -88t-35.5 -114q0 -76 35.5 -120t115.5 -44q59 0 110.5 35t92.5 76v360zM127 774q10 63 34.5 119.5t63.5 99.5t92.5 67.5t124.5 24.5q147 0 226.5 -80.5t79.5 -222.5v-594q0 -72 7 -121t19 -67
h-153l-19 90q-23 -23 -51.5 -42t-59 -34.5t-61.5 -24.5t-55 -9q-125 0 -201 73.5t-76 200.5q0 98 48.5 173t123 129t162.5 88t168 52v76q0 88 -41 139.5t-113 51.5q-43 0 -74.5 -19.5t-54 -49.5t-36 -66.5t-19.5 -73.5z" />
    <glyph glyph-name="uni0228" unicode="&#x228;" 
d="M278 -305q25 -10 58.5 -19.5t74.5 -9.5q61 0 99 23.5t38 60.5q0 35 -28.5 61.5t-81.5 26.5q-25 0 -45.5 -6t-40.5 -15l-29 29l123 168h78l-94 -119l4 -4q20 12 63 12q66 0 114 -36.5t48 -110.5q0 -43 -17.5 -77t-48 -57.5t-70.5 -36.5t-85 -13q-59 0 -103.5 7t-85.5 25z
M811 1479v-136h-516v-503h381v-135h-381v-570h541v-135h-701v1479h676z" />
    <glyph glyph-name="uni0229" unicode="&#x229;" horiz-adv-x="796" 
d="M190 -325q25 -10 58.5 -19.5t74.5 -9.5q61 0 99 23.5t38 60.5q0 35 -28.5 61.5t-81.5 26.5q-25 0 -45.5 -6t-40.5 -15l-29 29l123 168h78l-94 -119l4 -4q20 12 63 12q66 0 114 -36.5t48 -110.5q0 -43 -17.5 -77t-48 -57.5t-70.5 -36.5t-85 -13q-59 0 -103.5 7t-85.5 25z
M575 631q-4 172 -40.5 252t-137.5 80q-41 0 -72.5 -16.5t-55 -54.5t-37 -102.5t-13.5 -158.5h356zM219 508v-59q0 -98 11.5 -164t36 -107t61.5 -58.5t90 -17.5q43 0 72.5 17.5t51 46.5t35 64.5t19.5 72.5l139 -16q-8 -59 -34.5 -114.5t-69.5 -98.5t-101.5 -68.5
t-132.5 -25.5q-168 0 -246.5 132t-78.5 420q0 289 78.5 421t246.5 132q84 0 145.5 -35.5t101.5 -102t59.5 -161t19.5 -208.5v-70h-504z" />
    <glyph glyph-name="uni022A" unicode="&#x22a;" horiz-adv-x="1024" 
d="M240 1909v99h545v-99h-545zM770 739q0 188 -20.5 309t-55.5 192t-82 97.5t-100 26.5t-100 -26.5t-82 -97.5t-55.5 -191.5t-20.5 -309.5q0 -188 20.5 -309t55.5 -191.5t82 -97t100 -26.5t100 26.5t82 97t55.5 191.5t20.5 309zM930 739q0 -207 -30 -351t-85 -235.5
t-132 -132t-171 -40.5t-171 40.5t-132 132t-85 235.5t-30 351t30 351.5t85 235.5t132 132t171 41t171 -41t132 -132t85 -235.5t30 -351.5zM580 1786h135v-209h-135v209zM310 1786h135v-209h-135v209z" />
    <glyph glyph-name="uni022B" unicode="&#x22b;" horiz-adv-x="796" 
d="M127 1536v99h545v-99h-545zM219 532q0 -133 10.5 -216t32 -131t55 -65.5t80.5 -17.5t81 17.5t55.5 65.5t31.5 131t10 216q0 131 -10 215t-31.5 132.5t-55.5 66t-81 17.5t-80.5 -17.5t-55 -66t-32 -132.5t-10.5 -215zM72 532q0 289 78.5 421t246.5 132t247 -132t79 -421
t-79 -420.5t-247 -131.5t-246.5 131.5t-78.5 420.5zM467 1413h135v-209h-135v209zM197 1413h135v-209h-135v209z" />
    <glyph glyph-name="uni022C" unicode="&#x22c;" horiz-adv-x="1024" 
d="M492 1913v99h545v-99h-545zM770 739q0 188 -20.5 309t-55.5 192t-82 97.5t-100 26.5t-100 -26.5t-82 -97.5t-55.5 -191.5t-20.5 -309.5q0 -188 20.5 -309t55.5 -191.5t82 -97t100 -26.5t100 26.5t82 97t55.5 191.5t20.5 309zM930 739q0 -207 -30 -351t-85 -235.5
t-132 -132t-171 -40.5t-171 40.5t-132 132t-85 235.5t-30 351t30 351.5t85 235.5t132 132t171 41t171 -41t132 -132t85 -235.5t30 -351.5zM224 1577q0 33 11 69t31.5 64.5t49 48t65.5 19.5q39 0 75 -14.5t71 -30.5l65 -31q31 -14 58 -14q45 0 59 31.5t18 70.5h74
q-2 -37 -11 -73.5t-27.5 -64.5t-48.5 -45t-73 -17q-33 0 -66.5 14t-68.5 31l-66 30q-32 14 -61 15q-43 0 -60.5 -32t-21.5 -71h-73z" />
    <glyph glyph-name="uni022D" unicode="&#x22d;" horiz-adv-x="796" 
d="M379 1540v99h545v-99h-545zM219 532q0 -133 10.5 -216t32 -131t55 -65.5t80.5 -17.5t81 17.5t55.5 65.5t31.5 131t10 216q0 131 -10 215t-31.5 132.5t-55.5 66t-81 17.5t-80.5 -17.5t-55 -66t-32 -132.5t-10.5 -215zM72 532q0 289 78.5 421t246.5 132t247 -132t79 -421
t-79 -420.5t-247 -131.5t-246.5 131.5t-78.5 420.5zM111 1204q0 33 11 69t31.5 64.5t49 48t65.5 19.5q39 0 75 -14.5t71 -30.5l65 -31q31 -14 58 -14q45 0 59 31.5t18 70.5h74q-2 -37 -11 -73.5t-27.5 -64.5t-48.5 -45t-73 -17q-33 0 -66.5 14t-68.5 31l-66 30
q-32 14 -61 15q-43 0 -60.5 -32t-21.5 -71h-73z" />
    <glyph glyph-name="uni022E" unicode="&#x22e;" horiz-adv-x="1024" 
d="M445 1831h135v-209h-135v209zM770 739q0 188 -20.5 309t-55.5 192t-82 97.5t-100 26.5t-100 -26.5t-82 -97.5t-55.5 -191.5t-20.5 -309.5q0 -188 20.5 -309t55.5 -191.5t82 -97t100 -26.5t100 26.5t82 97t55.5 191.5t20.5 309zM930 739q0 -207 -30 -351t-85 -235.5
t-132 -132t-171 -40.5t-171 40.5t-132 132t-85 235.5t-30 351t30 351.5t85 235.5t132 132t171 41t171 -41t132 -132t85 -235.5t30 -351.5z" />
    <glyph glyph-name="uni022F" unicode="&#x22f;" horiz-adv-x="796" 
d="M330 1417h135v-209h-135v209zM219 532q0 -133 10.5 -216t32 -131t55 -65.5t80.5 -17.5t81 17.5t55.5 65.5t31.5 131t10 216q0 131 -10 215t-31.5 132.5t-55.5 66t-81 17.5t-80.5 -17.5t-55 -66t-32 -132.5t-10.5 -215zM72 532q0 289 78.5 421t246.5 132t247 -132t79 -421
t-79 -420.5t-247 -131.5t-246.5 131.5t-78.5 420.5z" />
    <glyph glyph-name="uni0230" unicode="&#x230;" horiz-adv-x="1024" 
d="M240 1954v99h545v-99h-545zM445 1831h135v-209h-135v209zM770 739q0 188 -20.5 309t-55.5 192t-82 97.5t-100 26.5t-100 -26.5t-82 -97.5t-55.5 -191.5t-20.5 -309.5q0 -188 20.5 -309t55.5 -191.5t82 -97t100 -26.5t100 26.5t82 97t55.5 191.5t20.5 309zM930 739
q0 -207 -30 -351t-85 -235.5t-132 -132t-171 -40.5t-171 40.5t-132 132t-85 235.5t-30 351t30 351.5t85 235.5t132 132t171 41t171 -41t132 -132t85 -235.5t30 -351.5z" />
    <glyph glyph-name="circumflex" unicode="&#x2c6;" horiz-adv-x="454" 
d="M158 1466h139l207 -282h-131l-146 209l-145 -209h-131z" />
    <glyph glyph-name="caron" unicode="&#x2c7;" horiz-adv-x="454" 
d="M-49 1466h131l145 -209l146 209h131l-207 -282h-139z" />
    <glyph glyph-name="uni02C9" unicode="&#x2c9;" horiz-adv-x="454" 
d="M-45 1257v99h545v-99h-545z" />
    <glyph glyph-name="breve" unicode="&#x2d8;" horiz-adv-x="454" 
d="M41 1454q8 -86 59.5 -125t135.5 -39q86 0 123.5 43t54.5 121h78q-10 -125 -81 -193.5t-196 -68.5q-57 0 -102 20.5t-78 56.5t-51.5 83t-20.5 102h78z" />
    <glyph glyph-name="dotaccent" unicode="&#x2d9;" horiz-adv-x="454" 
d="M160 1413h135v-209h-135v209z" />
    <glyph glyph-name="ring" unicode="&#x2da;" horiz-adv-x="454" 
d="M119 1378q0 -43 32.5 -75.5t75.5 -32.5t76 32.5t33 75.5t-33 76t-76 33t-75.5 -33t-32.5 -76zM33 1378q0 39 14 75t41 62.5t62.5 42t76.5 15.5t77 -15.5t61.5 -42t41 -62.5t15.5 -75q0 -41 -15.5 -75.5t-41 -61.5t-61.5 -42t-77 -15t-76.5 15t-62.5 42t-41 61.5t-14 75.5
z" />
    <glyph glyph-name="ogonek" unicode="&#x2db;" horiz-adv-x="454" 
d="M408 16q-39 -14 -94.5 -36.5t-105.5 -53t-85 -70.5t-35 -92q0 -59 33 -83.5t88 -24.5q57 0 117.5 29.5t99.5 54.5l33 -66q-61 -43 -142 -77.5t-159 -34.5q-70 0 -125.5 42t-55.5 134q0 78 45.5 130t112 86t140 52.5t133.5 30.5v-21z" />
    <glyph glyph-name="tilde" unicode="&#x2dc;" horiz-adv-x="454" 
d="M-61 1204q0 33 11 69t31.5 64.5t49 48t65.5 19.5q39 0 75 -14.5t71 -30.5l65 -31q31 -14 58 -14q45 0 59 31.5t18 70.5h74q-2 -37 -11 -73.5t-27.5 -64.5t-48.5 -45t-73 -17q-33 0 -66.5 14t-68.5 31l-66 30q-32 14 -61 15q-43 0 -60.5 -32t-21.5 -71h-73z" />
    <glyph glyph-name="hungarumlaut" unicode="&#x2dd;" horiz-adv-x="454" 
d="M328 1184h-103l201 282h160zM90 1184h-98l184 282h164z" />
    <glyph glyph-name="Alpha" unicode="&#x391;" 
d="M289 573h332l-164 795h-4zM565 1479l326 -1479h-160l-88 438h-377l-88 -438h-160l326 1479h221z" />
    <glyph glyph-name="Beta" unicode="&#x392;" horiz-adv-x="1024" 
d="M295 844h90q174 0 253 59.5t79 210.5q0 127 -60.5 178t-201.5 51h-160v-499zM295 135h160q145 0 220 65.5t75 209.5q0 147 -69 223t-226 76h-160v-574zM135 1479h393q166 0 257.5 -100.5t91.5 -264.5q0 -111 -53.5 -202t-172.5 -126v-4q135 -35 196.5 -134t61.5 -238
q0 -207 -115.5 -308.5t-359.5 -101.5h-299v1479z" />
    <glyph glyph-name="Delta" unicode="&#x394;" horiz-adv-x="1366" 
d="M680 1354l-490 -1248h981zM35 0l581 1458h129l590 -1458h-1300z" />
    <glyph glyph-name="Epsilon" unicode="&#x395;" 
d="M811 1479v-136h-516v-503h381v-135h-381v-570h541v-135h-701v1479h676z" />
    <glyph glyph-name="Zeta" unicode="&#x396;" 
d="M819 1479v-111l-549 -1233h549v-135h-729v115l533 1228h-484v136h680z" />
    <glyph glyph-name="Eta" unicode="&#x397;" horiz-adv-x="1024" 
d="M295 1479v-639h434v639h160v-1479h-160v705h-434v-705h-160v1479h160z" />
    <glyph glyph-name="Iota" unicode="&#x399;" horiz-adv-x="454" 
d="M307 1479v-1479h-160v1479h160z" />
    <glyph glyph-name="Kappa" unicode="&#x39a;" 
d="M274 1479v-754h5l413 754h172l-286 -516l340 -963h-173l-274 799h-4l-193 -344v-455h-159v1479h159z" />
    <glyph glyph-name="Mu" unicode="&#x39c;" horiz-adv-x="1251" 
d="M369 1479l258 -1119h4l252 1119h254v-1479h-148v1356h-4l-307 -1356h-105l-307 1356h-4v-1356h-147v1479h254z" />
    <glyph glyph-name="Nu" unicode="&#x39d;" horiz-adv-x="1024" 
d="M365 1479l380 -1090h5v1090h159v-1479h-172l-458 1286h-5v-1286h-159v1479h250z" />
    <glyph glyph-name="Omicron" unicode="&#x39f;" horiz-adv-x="1024" 
d="M770 739q0 188 -20.5 309t-55.5 192t-82 97.5t-100 26.5t-100 -26.5t-82 -97.5t-55.5 -191.5t-20.5 -309.5q0 -188 20.5 -309t55.5 -191.5t82 -97t100 -26.5t100 26.5t82 97t55.5 191.5t20.5 309zM930 739q0 -207 -30 -351t-85 -235.5t-132 -132t-171 -40.5t-171 40.5
t-132 132t-85 235.5t-30 351t30 351.5t85 235.5t132 132t171 41t171 -41t132 -132t85 -235.5t30 -351.5z" />
    <glyph glyph-name="Rho" unicode="&#x3a1;" 
d="M274 803h168q121 0 187.5 65.5t66.5 204.5t-66.5 204.5t-187.5 65.5h-168v-540zM115 1479h348q88 0 160.5 -29t125 -82t80 -128t27.5 -167t-27.5 -167t-80 -128t-125 -81.5t-160.5 -28.5h-189v-668h-159v1479z" />
    <glyph glyph-name="Tau" unicode="&#x3a4;" horiz-adv-x="796" 
d="M780 1479v-136h-303v-1343h-160v1343h-303v136h766z" />
    <glyph glyph-name="Upsilon" unicode="&#x3a5;" 
d="M205 1479l254 -648l246 648h172l-340 -852v-627h-160v627l-344 852h172z" />
    <glyph glyph-name="Chi" unicode="&#x3a7;" 
d="M213 1479l225 -525l209 525h172l-291 -693l353 -786h-172l-271 618l-237 -618h-172l319 786l-307 693h172z" />
    <glyph glyph-name="Omega" unicode="&#x3a9;" horiz-adv-x="1517" 
d="M893 0v367q195 35 292 166t97 323q0 115 -42 210t-114.5 163.5t-171 106.5t-211.5 38q-111 0 -209 -38t-170.5 -106.5t-114.5 -163.5t-42 -208q0 -92 25.5 -176t74.5 -149.5t122 -109.5t169 -56v-367h-502v98h412v189q-98 25 -174 80t-129 130.5t-81 168t-28 190.5
q0 135 52.5 249t141.5 196.5t206.5 129t251.5 46.5q131 0 247.5 -46.5t204.5 -128t140.5 -195.5t52.5 -247q0 -100 -28 -192.5t-80 -168t-128 -131t-174 -81.5v-189h412v-98h-502z" />
    <glyph glyph-name="Iotadieresis" unicode="&#x3aa;" horiz-adv-x="454" 
d="M295 1831h135v-209h-135v209zM25 1831h135v-209h-135v209zM307 1479v-1479h-160v1479h160z" />
    <glyph glyph-name="Upsilondieresis" unicode="&#x3ab;" 
d="M522 1831h135v-209h-135v209zM252 1831h135v-209h-135v209zM205 1479l254 -648l246 648h172l-340 -852v-627h-160v627l-344 852h172z" />
    <glyph glyph-name="mu" unicode="&#x3bc;" 
d="M762 0h-139v117q-53 -53 -121 -95t-121 -42q-49 0 -86 12v-340h-148v1413h148v-786q0 -92 28.5 -134.5t88.5 -42.5q53 0 103 35t99 96v832h148v-1065z" />
    <glyph glyph-name="omicron" unicode="&#x3bf;" horiz-adv-x="796" 
d="M219 532q0 -133 10.5 -216t32 -131t55 -65.5t80.5 -17.5t81 17.5t55.5 65.5t31.5 131t10 216q0 131 -10 215t-31.5 132.5t-55.5 66t-81 17.5t-80.5 -17.5t-55 -66t-32 -132.5t-10.5 -215zM72 532q0 289 78.5 421t246.5 132t247 -132t79 -421t-79 -420.5t-247 -131.5
t-246.5 131.5t-78.5 420.5z" />
    <glyph glyph-name="pi" unicode="&#x3c0;" horiz-adv-x="1138" 
d="M1090 20q-33 -16 -58.5 -23t-60.5 -7q-59 0 -90 19.5t-45.5 51t-16.5 73.5t-2 87v656h-561v-877h-109v877h-141l-2 98h1075v-98h-151v-678q0 -23 1 -43.5t8 -36t22.5 -24.5t44.5 -9q43 0 86 20v-86z" />
    <glyph glyph-name="rho" unicode="&#x3c1;" 
d="M307 197q33 -33 72 -64t88 -31q47 0 84 21.5t61.5 71t38 132.5t13.5 205q0 123 -14.5 206t-40 132.5t-63.5 71t-83 21.5q-35 0 -78 -28t-78 -75v-663zM283 963h4q37 57 91 89.5t126 32.5q63 0 118.5 -28.5t97.5 -94t66.5 -171t24.5 -259.5t-24.5 -259t-66.5 -170.5
t-97.5 -94t-118.5 -28.5q-59 0 -109.5 30.5t-87.5 67.5v-426h-147v1413h123v-102z" />
    <glyph glyph-name="chi" unicode="&#x3c7;" horiz-adv-x="681" 
d="M2 1065h152l176 -373l155 373h152l-229 -512l270 -553h-152l-192 418l-180 -418h-152l246 553z" />
    <glyph glyph-name="uni1E00" unicode="&#x1e00;" 
d="M346 -317q0 -43 32.5 -76t75.5 -33t76 33t33 76t-33 76t-76 33t-75.5 -33t-32.5 -76zM260 -317q0 39 14 75t41 62.5t62.5 42t76.5 15.5t77 -15.5t61.5 -42t41 -62.5t15.5 -75q0 -41 -15.5 -76t-41 -61.5t-61.5 -42t-77 -15.5t-76.5 15.5t-62.5 42t-41 61.5t-14 76z
M289 573h332l-164 795h-4zM565 1479l326 -1479h-160l-88 438h-377l-88 -438h-160l326 1479h221z" />
    <glyph glyph-name="uni1E01" unicode="&#x1e01;" 
d="M266 -338q0 -43 32.5 -75.5t75.5 -32.5t76 32.5t33 75.5t-33 76t-76 33t-75.5 -33t-32.5 -76zM180 -338q0 39 14 75t41 62.5t62.5 42t76.5 15.5t77 -15.5t61.5 -42t41 -62.5t15.5 -75q0 -41 -15.5 -75.5t-41 -61.5t-61.5 -42t-77 -15t-76.5 15t-62.5 42t-41 61.5
t-14 75.5zM600 573q-51 -16 -112.5 -41.5t-116 -63.5t-90 -88t-35.5 -114q0 -76 35.5 -120t115.5 -44q59 0 110.5 35t92.5 76v360zM127 774q10 63 34.5 119.5t63.5 99.5t92.5 67.5t124.5 24.5q147 0 226.5 -80.5t79.5 -222.5v-594q0 -72 7 -121t19 -67h-153l-19 90
q-23 -23 -51.5 -42t-59 -34.5t-61.5 -24.5t-55 -9q-125 0 -201 73.5t-76 200.5q0 98 48.5 173t123 129t162.5 88t168 52v76q0 88 -41 139.5t-113 51.5q-43 0 -74.5 -19.5t-54 -49.5t-36 -66.5t-19.5 -73.5z" />
    <glyph glyph-name="uni1E02" unicode="&#x1e02;" horiz-adv-x="1024" 
d="M455 1831h135v-209h-135v209zM295 844h90q174 0 253 59.5t79 210.5q0 127 -60.5 178t-201.5 51h-160v-499zM295 135h160q145 0 220 65.5t75 209.5q0 147 -69 223t-226 76h-160v-574zM135 1479h393q166 0 257.5 -100.5t91.5 -264.5q0 -111 -53.5 -202t-172.5 -126v-4
q135 -35 196.5 -134t61.5 -238q0 -207 -115.5 -308.5t-359.5 -101.5h-299v1479z" />
    <glyph glyph-name="uni1E03" unicode="&#x1e03;" 
d="M406 1810h135v-209h-135v209zM307 205q35 -47 78 -75t78 -28q45 0 83 21.5t63.5 71t40 132.5t14.5 205q0 123 -13.5 206t-38 132.5t-61.5 71t-84 21.5q-49 0 -88 -31t-72 -64v-663zM250 0h-115q12 47 18.5 114.5t6.5 172.5v1192h147v-492q37 37 87 67.5t110 30.5
q63 0 118.5 -28.5t97.5 -94t66.5 -171t24.5 -259.5t-24.5 -259t-66.5 -170.5t-97.5 -94t-118.5 -28.5q-72 0 -126 32.5t-95 89.5z" />
    <glyph glyph-name="uni1E04" unicode="&#x1e04;" horiz-adv-x="1024" 
d="M217 -123h135v-209h-135v209zM295 844h90q174 0 253 59.5t79 210.5q0 127 -60.5 178t-201.5 51h-160v-499zM295 135h160q145 0 220 65.5t75 209.5q0 147 -69 223t-226 76h-160v-574zM135 1479h393q166 0 257.5 -100.5t91.5 -264.5q0 -111 -53.5 -202t-172.5 -126v-4
q135 -35 196.5 -134t61.5 -238q0 -207 -115.5 -308.5t-359.5 -101.5h-299v1479z" />
    <glyph glyph-name="uni1E05" unicode="&#x1e05;" 
d="M436 -143h135v-209h-135v209zM307 205q35 -47 78 -75t78 -28q45 0 83 21.5t63.5 71t40 132.5t14.5 205q0 123 -13.5 206t-38 132.5t-61.5 71t-84 21.5q-49 0 -88 -31t-72 -64v-663zM250 0h-115q12 47 18.5 114.5t6.5 172.5v1192h147v-492q37 37 87 67.5t110 30.5
q63 0 118.5 -28.5t97.5 -94t66.5 -171t24.5 -259.5t-24.5 -259t-66.5 -170.5t-97.5 -94t-118.5 -28.5q-72 0 -126 32.5t-95 89.5z" />
    <glyph glyph-name="uni1E06" unicode="&#x1e06;" horiz-adv-x="1024" 
d="M12 -221v99h545v-99h-545zM295 844h90q174 0 253 59.5t79 210.5q0 127 -60.5 178t-201.5 51h-160v-499zM295 135h160q145 0 220 65.5t75 209.5q0 147 -69 223t-226 76h-160v-574zM135 1479h393q166 0 257.5 -100.5t91.5 -264.5q0 -111 -53.5 -202t-172.5 -126v-4
q135 -35 196.5 -134t61.5 -238q0 -207 -115.5 -308.5t-359.5 -101.5h-299v1479z" />
    <glyph glyph-name="uni1E07" unicode="&#x1e07;" 
d="M231 -242v99h545v-99h-545zM307 205q35 -47 78 -75t78 -28q45 0 83 21.5t63.5 71t40 132.5t14.5 205q0 123 -13.5 206t-38 132.5t-61.5 71t-84 21.5q-49 0 -88 -31t-72 -64v-663zM250 0h-115q12 47 18.5 114.5t6.5 172.5v1192h147v-492q37 37 87 67.5t110 30.5
q63 0 118.5 -28.5t97.5 -94t66.5 -171t24.5 -259.5t-24.5 -259t-66.5 -170.5t-97.5 -94t-118.5 -28.5q-72 0 -126 32.5t-95 89.5z" />
    <glyph glyph-name="uni1E08" unicode="&#x1e08;" horiz-adv-x="1024" 
d="M573 1622h-102l200 283h160zM330 -319q25 -10 58.5 -19.5t74.5 -9.5q61 0 99 23.5t38 60.5q0 35 -28.5 61.5t-82.5 26.5q-25 0 -45 -6t-41 -15l-28 29l108 150q-90 6 -162.5 51t-123 135t-77 230.5t-26.5 340.5q0 209 30 354.5t85 235.5t135 130t178 40
q166 0 263.5 -114.5t115.5 -352.5h-160q-16 176 -70.5 254t-148.5 78q-70 0 -121 -33t-83.5 -106.5t-48 -193.5t-15.5 -292t15.5 -291.5t48 -193.5t84 -106.5t120.5 -32.5q55 0 99.5 20.5t75 65.5t47 116.5t18.5 174.5h160q-4 -236 -96.5 -367t-266.5 -143l-78 -101l4 -4
q20 12 64 12q66 0 114 -36.5t48 -110.5q0 -43 -17.5 -77t-48.5 -57.5t-70.5 -36.5t-85.5 -13q-59 0 -103 7t-85 25z" />
    <glyph glyph-name="uni1E09" unicode="&#x1e09;" horiz-adv-x="796" 
d="M449 1209h-102l200 282h160zM217 -319q25 -10 58.5 -19.5t74.5 -9.5q61 0 99 23.5t38 60.5q0 35 -28.5 61.5t-81.5 26.5q-25 0 -45.5 -6t-40.5 -15l-29 29l109 150q-154 8 -226.5 140t-72.5 410q0 289 78.5 421t246.5 132q145 0 217 -89t95 -246h-144q-10 121 -55 167
t-113 46q-47 0 -80.5 -17.5t-55 -66t-32 -132t-10.5 -215.5q0 -133 10.5 -216t32 -131t55 -65.5t80.5 -17.5q35 0 62.5 10.5t49 37t36 71.5t24.5 115h144q-16 -143 -80 -238.5t-184 -113.5l-80 -103l4 -4q20 12 63 12q66 0 114 -36.5t48 -110.5q0 -43 -17.5 -77t-48 -57.5
t-70.5 -36.5t-85 -13q-59 0 -103.5 7t-85.5 25z" />
    <glyph glyph-name="uni1E0A" unicode="&#x1e0a;" horiz-adv-x="1024" 
d="M455 1831h135v-209h-135v209zM295 135h86q88 0 156.5 23.5t115.5 89t72 183.5t25 308t-25 308t-72 183.5t-115.5 89t-156.5 23.5h-86v-1208zM135 1479h275q117 0 209 -36t156.5 -121t99 -227.5t34.5 -355.5t-34.5 -355t-99 -227t-157 -121t-208.5 -36h-275v1479z" />
    <glyph glyph-name="uni1E0B" unicode="&#x1e0b;" 
d="M369 1810h135v-209h-135v209zM602 868q-33 33 -71.5 64t-88.5 31q-47 0 -83.5 -21.5t-61.5 -71t-38 -132.5t-13 -206t14 -205.5t40 -132t62.5 -71t83.5 -21.5q35 0 78 28t78 75v663zM629 102h-4q-39 -57 -93.5 -89.5t-125.5 -32.5q-63 0 -119 28.5t-98 94t-66.5 171
t-24.5 258.5q0 154 24.5 259.5t66.5 171t97.5 94t119.5 28.5q59 0 109 -30.5t87 -67.5v492h148v-1192q0 -104 6 -172t18 -115h-139z" />
    <glyph glyph-name="uni1E0C" unicode="&#x1e0c;" horiz-adv-x="1024" 
d="M205 -123h135v-209h-135v209zM295 135h86q88 0 156.5 23.5t115.5 89t72 183.5t25 308t-25 308t-72 183.5t-115.5 89t-156.5 23.5h-86v-1208zM135 1479h275q117 0 209 -36t156.5 -121t99 -227.5t34.5 -355.5t-34.5 -355t-99 -227t-157 -121t-208.5 -36h-275v1479z" />
    <glyph glyph-name="uni1E0D" unicode="&#x1e0d;" 
d="M338 -143h135v-209h-135v209zM602 868q-33 33 -71.5 64t-88.5 31q-47 0 -83.5 -21.5t-61.5 -71t-38 -132.5t-13 -206t14 -205.5t40 -132t62.5 -71t83.5 -21.5q35 0 78 28t78 75v663zM629 102h-4q-39 -57 -93.5 -89.5t-125.5 -32.5q-63 0 -119 28.5t-98 94t-66.5 171
t-24.5 258.5q0 154 24.5 259.5t66.5 171t97.5 94t119.5 28.5q59 0 109 -30.5t87 -67.5v492h148v-1192q0 -104 6 -172t18 -115h-139z" />
    <glyph glyph-name="uni1E0E" unicode="&#x1e0e;" horiz-adv-x="1024" 
d="M0 -221v99h545v-99h-545zM295 135h86q88 0 156.5 23.5t115.5 89t72 183.5t25 308t-25 308t-72 183.5t-115.5 89t-156.5 23.5h-86v-1208zM135 1479h275q117 0 209 -36t156.5 -121t99 -227.5t34.5 -355.5t-34.5 -355t-99 -227t-157 -121t-208.5 -36h-275v1479z" />
    <glyph glyph-name="uni1E0F" unicode="&#x1e0f;" 
d="M133 -242v99h545v-99h-545zM602 868q-33 33 -71.5 64t-88.5 31q-47 0 -83.5 -21.5t-61.5 -71t-38 -132.5t-13 -206t14 -205.5t40 -132t62.5 -71t83.5 -21.5q35 0 78 28t78 75v663zM629 102h-4q-39 -57 -93.5 -89.5t-125.5 -32.5q-63 0 -119 28.5t-98 94t-66.5 171
t-24.5 258.5q0 154 24.5 259.5t66.5 171t97.5 94t119.5 28.5q59 0 109 -30.5t87 -67.5v492h148v-1192q0 -104 6 -172t18 -115h-139z" />
    <glyph glyph-name="uni1E10" unicode="&#x1e10;" horiz-adv-x="1024" 
d="M65 -305q25 -10 58.5 -19.5t74.5 -9.5q61 0 99 23.5t38 60.5q0 35 -28.5 61.5t-81.5 26.5q-25 0 -45.5 -6t-40.5 -15l-29 29l123 168h78l-94 -119l4 -4q20 12 63 12q66 0 114 -36.5t48 -110.5q0 -43 -17.5 -77t-48 -57.5t-70.5 -36.5t-85 -13q-59 0 -103.5 7t-85.5 25z
M295 135h86q88 0 156.5 23.5t115.5 89t72 183.5t25 308t-25 308t-72 183.5t-115.5 89t-156.5 23.5h-86v-1208zM135 1479h275q117 0 209 -36t156.5 -121t99 -227.5t34.5 -355.5t-34.5 -355t-99 -227t-157 -121t-208.5 -36h-275v1479z" />
    <glyph glyph-name="uni1E11" unicode="&#x1e11;" 
d="M199 -325q25 -10 58.5 -19.5t74.5 -9.5q61 0 99 23.5t38 60.5q0 35 -28.5 61.5t-81.5 26.5q-25 0 -45.5 -6t-40.5 -15l-29 29l123 168h78l-94 -119l4 -4q20 12 63 12q66 0 114 -36.5t48 -110.5q0 -43 -17.5 -77t-48 -57.5t-70.5 -36.5t-85 -13q-59 0 -103.5 7t-85.5 25z
M602 868q-33 33 -71.5 64t-88.5 31q-47 0 -83.5 -21.5t-61.5 -71t-38 -132.5t-13 -206t14 -205.5t40 -132t62.5 -71t83.5 -21.5q35 0 78 28t78 75v663zM629 102h-4q-39 -57 -93.5 -89.5t-125.5 -32.5q-63 0 -119 28.5t-98 94t-66.5 171t-24.5 258.5q0 154 24.5 259.5
t66.5 171t97.5 94t119.5 28.5q59 0 109 -30.5t87 -67.5v492h148v-1192q0 -104 6 -172t18 -115h-139z" />
    <glyph glyph-name="uni1E12" unicode="&#x1e12;" horiz-adv-x="1024" 
d="M203 -123h139l207 -283h-131l-146 209l-145 -209h-131zM295 135h86q88 0 156.5 23.5t115.5 89t72 183.5t25 308t-25 308t-72 183.5t-115.5 89t-156.5 23.5h-86v-1208zM135 1479h275q117 0 209 -36t156.5 -121t99 -227.5t34.5 -355.5t-34.5 -355t-99 -227t-157 -121
t-208.5 -36h-275v1479z" />
    <glyph glyph-name="uni1E13" unicode="&#x1e13;" 
d="M336 -144h139l207 -282h-131l-146 209l-145 -209h-131zM602 868q-33 33 -71.5 64t-88.5 31q-47 0 -83.5 -21.5t-61.5 -71t-38 -132.5t-13 -206t14 -205.5t40 -132t62.5 -71t83.5 -21.5q35 0 78 28t78 75v663zM629 102h-4q-39 -57 -93.5 -89.5t-125.5 -32.5
q-63 0 -119 28.5t-98 94t-66.5 171t-24.5 258.5q0 154 24.5 259.5t66.5 171t97.5 94t119.5 28.5q59 0 109 -30.5t87 -67.5v492h148v-1192q0 -104 6 -172t18 -115h-139z" />
    <glyph glyph-name="uni1E14" unicode="&#x1e14;" 
d="M158 2134h159l201 -283h-102zM811 1479v-136h-516v-503h381v-135h-381v-570h541v-135h-701v1479h676zM195 1630v99h545v-99h-545z" />
    <glyph glyph-name="uni1E15" unicode="&#x1e15;" horiz-adv-x="796" 
d="M90 1761h159l201 -282h-102zM575 631q-4 172 -40.5 252t-137.5 80q-41 0 -72.5 -16.5t-55 -54.5t-37 -102.5t-13.5 -158.5h356zM219 508v-59q0 -98 11.5 -164t36 -107t61.5 -58.5t90 -17.5q43 0 72.5 17.5t51 46.5t35 64.5t19.5 72.5l139 -16q-8 -59 -34.5 -114.5
t-69.5 -98.5t-101.5 -68.5t-132.5 -25.5q-168 0 -246.5 132t-78.5 420q0 289 78.5 421t246.5 132q84 0 145.5 -35.5t101.5 -102t59.5 -161t19.5 -208.5v-70h-504zM127 1257v99h545v-99h-545z" />
    <glyph glyph-name="uni1E16" unicode="&#x1e16;" 
d="M518 1851h-102l200 283h160zM811 1479v-136h-516v-503h381v-135h-381v-570h541v-135h-701v1479h676zM195 1630v99h545v-99h-545z" />
    <glyph glyph-name="uni1E17" unicode="&#x1e17;" horiz-adv-x="796" 
d="M451 1479h-102l200 282h160zM575 631q-4 172 -40.5 252t-137.5 80q-41 0 -72.5 -16.5t-55 -54.5t-37 -102.5t-13.5 -158.5h356zM219 508v-59q0 -98 11.5 -164t36 -107t61.5 -58.5t90 -17.5q43 0 72.5 17.5t51 46.5t35 64.5t19.5 72.5l139 -16q-8 -59 -34.5 -114.5
t-69.5 -98.5t-101.5 -68.5t-132.5 -25.5q-168 0 -246.5 132t-78.5 420q0 289 78.5 421t246.5 132q84 0 145.5 -35.5t101.5 -102t59.5 -161t19.5 -208.5v-70h-504zM127 1257v99h545v-99h-545z" />
    <glyph glyph-name="uni1E18" unicode="&#x1e18;" 
d="M416 -123h139l207 -283h-131l-146 209l-145 -209h-131zM811 1479v-136h-516v-503h381v-135h-381v-570h541v-135h-701v1479h676z" />
    <glyph glyph-name="uni1E19" unicode="&#x1e19;" horiz-adv-x="796" 
d="M328 -144h139l207 -282h-131l-146 209l-145 -209h-131zM575 631q-4 172 -40.5 252t-137.5 80q-41 0 -72.5 -16.5t-55 -54.5t-37 -102.5t-13.5 -158.5h356zM219 508v-59q0 -98 11.5 -164t36 -107t61.5 -58.5t90 -17.5q43 0 72.5 17.5t51 46.5t35 64.5t19.5 72.5l139 -16
q-8 -59 -34.5 -114.5t-69.5 -98.5t-101.5 -68.5t-132.5 -25.5q-168 0 -246.5 132t-78.5 420q0 289 78.5 421t246.5 132q84 0 145.5 -35.5t101.5 -102t59.5 -161t19.5 -208.5v-70h-504z" />
    <glyph glyph-name="uni1E1A" unicode="&#x1e1a;" 
d="M197 -336q0 33 11 68.5t31.5 64.5t49 48.5t65.5 19.5q39 0 75 -14.5t71 -30.5l65 -31q31 -14 58 -14q45 0 59 31.5t18 70.5h74q-2 -37 -11 -74t-27.5 -64.5t-48.5 -45t-73 -17.5q-33 0 -66.5 14.5t-68.5 30.5l-66 31q-32 14 -61 14q-43 0 -60.5 -31.5t-21.5 -70.5h-73z
M811 1479v-136h-516v-503h381v-135h-381v-570h541v-135h-701v1479h676z" />
    <glyph glyph-name="uni1E1B" unicode="&#x1e1b;" horiz-adv-x="796" 
d="M109 -357q0 33 11 69t31.5 64.5t49 48t65.5 19.5q39 0 75 -14.5t71 -30.5l65 -31q31 -14 58 -14q45 0 59 31.5t18 70.5h74q-2 -37 -11 -73.5t-27.5 -64.5t-48.5 -45t-73 -17q-33 0 -66.5 14t-68.5 31l-66 30q-32 14 -61 15q-43 0 -60.5 -32t-21.5 -71h-73zM575 631
q-4 172 -40.5 252t-137.5 80q-41 0 -72.5 -16.5t-55 -54.5t-37 -102.5t-13.5 -158.5h356zM219 508v-59q0 -98 11.5 -164t36 -107t61.5 -58.5t90 -17.5q43 0 72.5 17.5t51 46.5t35 64.5t19.5 72.5l139 -16q-8 -59 -34.5 -114.5t-69.5 -98.5t-101.5 -68.5t-132.5 -25.5
q-168 0 -246.5 132t-78.5 420q0 289 78.5 421t246.5 132q84 0 145.5 -35.5t101.5 -102t59.5 -161t19.5 -208.5v-70h-504z" />
    <glyph glyph-name="uni1E1C" unicode="&#x1e1c;" 
d="M287 1884q8 -86 59.5 -125t135.5 -39q86 0 123.5 43t54.5 121h78q-10 -125 -81 -193.5t-196 -68.5q-57 0 -102 20.5t-78 56t-51.5 83t-20.5 102.5h78zM278 -305q25 -10 58.5 -19.5t74.5 -9.5q61 0 99 23.5t38 60.5q0 35 -28.5 61.5t-81.5 26.5q-25 0 -45.5 -6t-40.5 -15
l-29 29l123 168h78l-94 -119l4 -4q20 12 63 12q66 0 114 -36.5t48 -110.5q0 -43 -17.5 -77t-48 -57.5t-70.5 -36.5t-85 -13q-59 0 -103.5 7t-85.5 25zM811 1479v-136h-516v-503h381v-135h-381v-570h541v-135h-701v1479h676z" />
    <glyph glyph-name="uni1E1D" unicode="&#x1e1d;" horiz-adv-x="796" 
d="M211 1470q8 -86 59.5 -125t135.5 -39q86 0 123.5 43t54.5 121h78q-10 -125 -81 -193.5t-196 -68.5q-57 0 -102 20.5t-78 56.5t-51.5 83t-20.5 102h78zM190 -325q25 -10 58.5 -19.5t74.5 -9.5q61 0 99 23.5t38 60.5q0 35 -28.5 61.5t-81.5 26.5q-25 0 -45.5 -6t-40.5 -15
l-29 29l123 168h78l-94 -119l4 -4q20 12 63 12q66 0 114 -36.5t48 -110.5q0 -43 -17.5 -77t-48 -57.5t-70.5 -36.5t-85 -13q-59 0 -103.5 7t-85.5 25zM575 631q-4 172 -40.5 252t-137.5 80q-41 0 -72.5 -16.5t-55 -54.5t-37 -102.5t-13.5 -158.5h356zM219 508v-59
q0 -98 11.5 -164t36 -107t61.5 -58.5t90 -17.5q43 0 72.5 17.5t51 46.5t35 64.5t19.5 72.5l139 -16q-8 -59 -34.5 -114.5t-69.5 -98.5t-101.5 -68.5t-132.5 -25.5q-168 0 -246.5 132t-78.5 420q0 289 78.5 421t246.5 132q84 0 145.5 -35.5t101.5 -102t59.5 -161t19.5 -208.5
v-70h-504z" />
    <glyph glyph-name="uni1E1E" unicode="&#x1e1e;" horiz-adv-x="796" 
d="M385 1831h135v-209h-135v209zM135 1479h635v-136h-475v-503h356v-135h-356v-705h-160v1479z" />
    <glyph glyph-name="uni1E1F" unicode="&#x1e1f;" horiz-adv-x="569" 
d="M350 1831h135v-209h-135v209zM37 1065h164v217q0 109 48 163t169 54q29 0 58.5 -4t55.5 -8v-115q-35 16 -79 17q-53 0 -79 -31t-26 -82v-211h172v-123h-172v-942h-147v942h-164v123z" />
    <glyph glyph-name="uni1E20" unicode="&#x1e20;" horiz-adv-x="1024" 
d="M246 1622v99h545v-99h-545zM750 1024q-4 72 -18.5 134.5t-41 108.5t-68.5 71.5t-104 25.5q-68 0 -117 -32t-81.5 -105.5t-49 -193.5t-16.5 -294t16.5 -293.5t49 -193.5t82 -105.5t116.5 -31.5q113 0 172.5 59t59.5 174v209h-201v135h360v-692h-102l-21 111
q-47 -61 -111.5 -96t-156.5 -35q-98 0 -176 39.5t-133 130t-85 235.5t-30 354t30 354.5t85 235.5t133 130t176 40q102 0 173 -41t117 -107.5t69.5 -152.5t31.5 -174h-159z" />
    <glyph glyph-name="uni1E21" unicode="&#x1e21;" 
d="M377 1208v99h545v-99h-545zM688 -86q0 37 -30.5 59.5t-76.5 38t-101.5 25.5t-102.5 20q-66 -29 -105 -64.5t-39 -80.5q0 -66 56.5 -108t177.5 -42q123 0 172 43t49 109zM287 707q0 -152 45 -210.5t110 -58.5q33 0 60.5 13.5t49 45t34 83t12.5 127.5t-12.5 127t-34 82.5
t-49 45t-60.5 13.5q-66 0 -110.5 -58t-44.5 -210zM836 950q-12 4 -23 4h-20q-29 0 -50.5 -11t-42.5 -30q16 -49 24.5 -94t8.5 -110q0 -100 -21.5 -172t-60.5 -118t-91 -68.5t-114 -22.5q-25 0 -49 4t-49 4q-18 -4 -46 -21.5t-28 -48.5q0 -29 21.5 -45t56.5 -26.5t82 -18.5
t98 -18q57 -12 110.5 -29.5t93.5 -46.5t63.5 -72t23.5 -108q0 -53 -24.5 -98.5t-70.5 -79t-113.5 -53t-151.5 -19.5q-182 0 -273.5 62.5t-91.5 166.5q0 72 42 127t114 86q-47 16 -81 53t-34 91q0 59 43 95t97 46q-31 23 -55.5 57.5t-40 75.5t-23.5 86t-8 86q0 193 83.5 297
t225.5 104q53 0 110.5 -23.5t83.5 -74.5q25 43 69 70.5t112 27.5v-135z" />
    <glyph glyph-name="uni1E22" unicode="&#x1e22;" horiz-adv-x="1024" 
d="M445 1831h135v-209h-135v209zM295 1479v-639h434v639h160v-1479h-160v705h-434v-705h-160v1479h160z" />
    <glyph glyph-name="uni1E23" unicode="&#x1e23;" 
d="M387 1810h135v-209h-135v209zM147 1479h148v-531q47 53 113.5 95t119.5 42q111 0 172.5 -65.5t61.5 -212.5v-807h-148v786q0 92 -28.5 134.5t-87.5 42.5q-53 0 -103.5 -35t-99.5 -97v-831h-148v1479z" />
    <glyph glyph-name="uni1E24" unicode="&#x1e24;" horiz-adv-x="1024" 
d="M445 -123h135v-209h-135v209zM295 1479v-639h434v639h160v-1479h-160v705h-434v-705h-160v1479h160z" />
    <glyph glyph-name="uni1E25" unicode="&#x1e25;" 
d="M387 -123h135v-209h-135v209zM147 1479h148v-531q47 53 113.5 95t119.5 42q111 0 172.5 -65.5t61.5 -212.5v-807h-148v786q0 92 -28.5 134.5t-87.5 42.5q-53 0 -103.5 -35t-99.5 -97v-831h-148v1479z" />
    <glyph glyph-name="uni1E26" unicode="&#x1e26;" horiz-adv-x="1024" 
d="M580 1831h135v-209h-135v209zM310 1831h135v-209h-135v209zM295 1479v-639h434v639h160v-1479h-160v705h-434v-705h-160v1479h160z" />
    <glyph glyph-name="uni1E27" unicode="&#x1e27;" 
d="M522 1810h135v-209h-135v209zM252 1810h135v-209h-135v209zM147 1479h148v-531q47 53 113.5 95t119.5 42q111 0 172.5 -65.5t61.5 -212.5v-807h-148v786q0 92 -28.5 134.5t-87.5 42.5q-53 0 -103.5 -35t-99.5 -97v-831h-148v1479z" />
    <glyph glyph-name="uni1E28" unicode="&#x1e28;" horiz-adv-x="1024" 
d="M266 -305q25 -10 58.5 -19.5t74.5 -9.5q61 0 99 23.5t38 60.5q0 35 -28.5 61.5t-81.5 26.5q-25 0 -45.5 -6t-40.5 -15l-29 29l123 168h78l-94 -119l4 -4q20 12 63 12q66 0 114 -36.5t48 -110.5q0 -43 -17.5 -77t-48 -57.5t-70.5 -36.5t-85 -13q-59 0 -103.5 7t-85.5 25z
M295 1479v-639h434v639h160v-1479h-160v705h-434v-705h-160v1479h160z" />
    <glyph glyph-name="uni1E29" unicode="&#x1e29;" 
d="M209 -305q25 -10 58.5 -19.5t74.5 -9.5q61 0 99 23.5t38 60.5q0 35 -28.5 61.5t-81.5 26.5q-25 0 -45.5 -6t-40.5 -15l-29 29l123 168h78l-94 -119l4 -4q20 12 63 12q66 0 114 -36.5t48 -110.5q0 -43 -17.5 -77t-48 -57.5t-70.5 -36.5t-85 -13q-59 0 -103.5 7t-85.5 25z
M147 1479h148v-531q47 53 113.5 95t119.5 42q111 0 172.5 -65.5t61.5 -212.5v-807h-148v786q0 92 -28.5 134.5t-87.5 42.5q-53 0 -103.5 -35t-99.5 -97v-831h-148v1479z" />
    <glyph glyph-name="uni1E2A" unicode="&#x1e2a;" horiz-adv-x="1024" 
d="M326 -123q8 -86 59.5 -125t135.5 -39q86 0 123.5 43t54.5 121h78q-10 -125 -81 -193.5t-196 -68.5q-57 0 -102 20.5t-78 56t-51.5 83t-20.5 102.5h78zM295 1479v-639h434v639h160v-1479h-160v705h-434v-705h-160v1479h160z" />
    <glyph glyph-name="uni1E2B" unicode="&#x1e2b;" 
d="M268 -123q8 -86 59.5 -125t135.5 -39q86 0 123.5 43t54.5 121h78q-10 -125 -81 -193.5t-196 -68.5q-57 0 -102 20.5t-78 56.5t-51.5 83t-20.5 102h78zM147 1479h148v-531q47 53 113.5 95t119.5 42q111 0 172.5 -65.5t61.5 -212.5v-807h-148v786q0 92 -28.5 134.5
t-87.5 42.5q-53 0 -103.5 -35t-99.5 -97v-831h-148v1479z" />
    <glyph glyph-name="uni1E2C" unicode="&#x1e2c;" horiz-adv-x="454" 
d="M-61 -336q0 33 11 68.5t31.5 64.5t49 48.5t65.5 19.5q39 0 75 -14.5t71 -30.5l65 -31q31 -14 58 -14q45 0 59 31.5t18 70.5h74q-2 -37 -11 -74t-27.5 -64.5t-48.5 -45t-73 -17.5q-33 0 -66.5 14.5t-68.5 30.5l-66 31q-32 14 -61 14q-43 0 -60.5 -31.5t-21.5 -70.5h-73z
M307 1479v-1479h-160v1479h160z" />
    <glyph glyph-name="uni1E2D" unicode="&#x1e2d;" horiz-adv-x="454" 
d="M-61 -336q0 33 11 69t31.5 64.5t49 48t65.5 19.5q39 0 75 -14.5t71 -30.5l65 -31q31 -14 58 -14q45 0 59 31.5t18 70.5h74q-2 -37 -11 -73.5t-27.5 -64.5t-48.5 -45t-73 -17q-33 0 -66.5 14t-68.5 31l-66 30q-32 14 -61 15q-43 0 -60.5 -32t-21.5 -71h-73zM154 1479h147
v-172h-147v172zM154 1065h147v-1065h-147v1065z" />
    <glyph glyph-name="uni1E2E" unicode="&#x1e2e;" horiz-adv-x="454" 
d="M279 1908h-102l200 283h160zM307 1479v-1479h-160v1479h160zM295 1786h135v-209h-135v209zM25 1786h135v-209h-135v209z" />
    <glyph glyph-name="uni1E2F" unicode="&#x1e2f;" horiz-adv-x="454" 
d="M279 1536h-102l200 282h160zM154 1065h147v-1065h-147v1065zM295 1413h135v-209h-135v209zM25 1413h135v-209h-135v209z" />
    <glyph glyph-name="uni1E30" unicode="&#x1e30;" 
d="M541 1622h-102l200 283h160zM274 1479v-754h5l413 754h172l-286 -516l340 -963h-173l-274 799h-4l-193 -344v-455h-159v1479h159z" />
    <glyph glyph-name="uni1E31" unicode="&#x1e31;" horiz-adv-x="796" 
d="M260 1602h-102l200 282h160zM135 1479h148v-934h4l282 520h152l-197 -340l246 -725h-152l-192 578h-4l-139 -263v-315h-148v1479z" />
    <glyph glyph-name="uni1E32" unicode="&#x1e32;" 
d="M449 -123h135v-209h-135v209zM274 1479v-754h5l413 754h172l-286 -516l340 -963h-173l-274 799h-4l-193 -344v-455h-159v1479h159z" />
    <glyph glyph-name="uni1E33" unicode="&#x1e33;" horiz-adv-x="796" 
d="M385 -123h135v-209h-135v209zM135 1479h148v-934h4l282 520h152l-197 -340l246 -725h-152l-192 578h-4l-139 -263v-315h-148v1479z" />
    <glyph glyph-name="uni1E34" unicode="&#x1e34;" 
d="M244 -221v99h545v-99h-545zM274 1479v-754h5l413 754h172l-286 -516l340 -963h-173l-274 799h-4l-193 -344v-455h-159v1479h159z" />
    <glyph glyph-name="uni1E35" unicode="&#x1e35;" horiz-adv-x="796" 
d="M180 -222v99h545v-99h-545zM135 1479h148v-934h4l282 520h152l-197 -340l246 -725h-152l-192 578h-4l-139 -263v-315h-148v1479z" />
    <glyph glyph-name="uni1E36" unicode="&#x1e36;" horiz-adv-x="796" 
d="M387 -123h135v-209h-135v209zM295 1479v-1344h479v-135h-639v1479h160z" />
    <glyph glyph-name="uni1E37" unicode="&#x1e37;" horiz-adv-x="454" 
d="M160 -123h135v-209h-135v209zM154 1479h147v-1479h-147v1479z" />
    <glyph glyph-name="uni1E38" unicode="&#x1e38;" horiz-adv-x="796" 
d="M-57 1622v99h545v-99h-545zM387 -123h135v-209h-135v209zM295 1479v-1344h479v-135h-639v1479h160z" />
    <glyph glyph-name="uni1E39" unicode="&#x1e39;" horiz-adv-x="454" 
d="M-45 1601v99h545v-99h-545zM160 -123h135v-209h-135v209zM154 1479h147v-1479h-147v1479z" />
    <glyph glyph-name="uni1E3A" unicode="&#x1e3a;" horiz-adv-x="796" 
d="M182 -221v99h545v-99h-545zM295 1479v-1344h479v-135h-639v1479h160z" />
    <glyph glyph-name="uni1E3B" unicode="&#x1e3b;" horiz-adv-x="454" 
d="M-45 -222v99h545v-99h-545zM154 1479h147v-1479h-147v1479z" />
    <glyph glyph-name="uni1E3C" unicode="&#x1e3c;" horiz-adv-x="796" 
d="M385 -123h139l207 -283h-131l-146 209l-145 -209h-131zM295 1479v-1344h479v-135h-639v1479h160z" />
    <glyph glyph-name="uni1E3D" unicode="&#x1e3d;" horiz-adv-x="454" 
d="M158 -123h139l207 -282h-131l-146 209l-145 -209h-131zM154 1479h147v-1479h-147v1479z" />
    <glyph glyph-name="uni1E3E" unicode="&#x1e3e;" horiz-adv-x="1251" 
d="M676 1622h-102l200 283h160zM369 1479l258 -1119h4l252 1119h254v-1479h-148v1356h-4l-307 -1356h-105l-307 1356h-4v-1356h-147v1479h254z" />
    <glyph glyph-name="uni1E3F" unicode="&#x1e3f;" horiz-adv-x="1366" 
d="M817 1209h-102l200 282h160zM164 0v1065h135v-117q43 51 106.5 94t141.5 43q63 0 116.5 -37.5t73.5 -97.5q45 49 107.5 92t140.5 43q104 0 159.5 -65.5t55.5 -179.5v-840h-147v819q0 84 -26 114t-85 30q-68 0 -111 -38t-75 -73v-852h-148v819q0 84 -28.5 114t-87.5 30
q-35 0 -62 -10.5t-48.5 -27t-38.5 -36t-32 -37.5v-852h-147z" />
    <glyph glyph-name="uni1E40" unicode="&#x1e40;" horiz-adv-x="1251" 
d="M557 1831h135v-209h-135v209zM369 1479l258 -1119h4l252 1119h254v-1479h-148v1356h-4l-307 -1356h-105l-307 1356h-4v-1356h-147v1479h254z" />
    <glyph glyph-name="uni1E41" unicode="&#x1e41;" horiz-adv-x="1366" 
d="M699 1417h135v-209h-135v209zM164 0v1065h135v-117q43 51 106.5 94t141.5 43q63 0 116.5 -37.5t73.5 -97.5q45 49 107.5 92t140.5 43q104 0 159.5 -65.5t55.5 -179.5v-840h-147v819q0 84 -26 114t-85 30q-68 0 -111 -38t-75 -73v-852h-148v819q0 84 -28.5 114t-87.5 30
q-35 0 -62 -10.5t-48.5 -27t-38.5 -36t-32 -37.5v-852h-147z" />
    <glyph glyph-name="uni1E42" unicode="&#x1e42;" horiz-adv-x="1251" 
d="M557 -123h135v-209h-135v209zM369 1479l258 -1119h4l252 1119h254v-1479h-148v1356h-4l-307 -1356h-105l-307 1356h-4v-1356h-147v1479h254z" />
    <glyph glyph-name="uni1E43" unicode="&#x1e43;" horiz-adv-x="1366" 
d="M615 -123h135v-209h-135v209zM164 0v1065h135v-117q43 51 106.5 94t141.5 43q63 0 116.5 -37.5t73.5 -97.5q45 49 107.5 92t140.5 43q104 0 159.5 -65.5t55.5 -179.5v-840h-147v819q0 84 -26 114t-85 30q-68 0 -111 -38t-75 -73v-852h-148v819q0 84 -28.5 114t-87.5 30
q-35 0 -62 -10.5t-48.5 -27t-38.5 -36t-32 -37.5v-852h-147z" />
    <glyph glyph-name="uni1E44" unicode="&#x1e44;" horiz-adv-x="1024" 
d="M445 1831h135v-209h-135v209zM365 1479l380 -1090h5v1090h159v-1479h-172l-458 1286h-5v-1286h-159v1479h250z" />
    <glyph glyph-name="uni1E45" unicode="&#x1e45;" 
d="M387 1417h135v-209h-135v209zM147 1065h140v-117q53 53 120.5 95t120.5 42q111 0 172.5 -65.5t61.5 -212.5v-807h-148v786q0 92 -28.5 134.5t-87.5 42.5q-53 0 -103.5 -35t-99.5 -97v-831h-148v1065z" />
    <glyph glyph-name="uni1E46" unicode="&#x1e46;" horiz-adv-x="1024" 
d="M445 -123h135v-209h-135v209zM365 1479l380 -1090h5v1090h159v-1479h-172l-458 1286h-5v-1286h-159v1479h250z" />
    <glyph glyph-name="uni1E47" unicode="&#x1e47;" 
d="M387 -123h135v-209h-135v209zM147 1065h140v-117q53 53 120.5 95t120.5 42q111 0 172.5 -65.5t61.5 -212.5v-807h-148v786q0 92 -28.5 134.5t-87.5 42.5q-53 0 -103.5 -35t-99.5 -97v-831h-148v1065z" />
    <glyph glyph-name="uni1E48" unicode="&#x1e48;" horiz-adv-x="1024" 
d="M240 -221v99h545v-99h-545zM365 1479l380 -1090h5v1090h159v-1479h-172l-458 1286h-5v-1286h-159v1479h250z" />
    <glyph glyph-name="uni1E49" unicode="&#x1e49;" 
d="M182 -222v99h545v-99h-545zM147 1065h140v-117q53 53 120.5 95t120.5 42q111 0 172.5 -65.5t61.5 -212.5v-807h-148v786q0 92 -28.5 134.5t-87.5 42.5q-53 0 -103.5 -35t-99.5 -97v-831h-148v1065z" />
    <glyph glyph-name="uni1E4A" unicode="&#x1e4a;" horiz-adv-x="1024" 
d="M443 -123h139l207 -283h-131l-146 209l-145 -209h-131zM365 1479l380 -1090h5v1090h159v-1479h-172l-458 1286h-5v-1286h-159v1479h250z" />
    <glyph glyph-name="uni1E4B" unicode="&#x1e4b;" 
d="M385 -123h139l207 -282h-131l-146 209l-145 -209h-131zM147 1065h140v-117q53 53 120.5 95t120.5 42q111 0 172.5 -65.5t61.5 -212.5v-807h-148v786q0 92 -28.5 134.5t-87.5 42.5q-53 0 -103.5 -35t-99.5 -97v-831h-148v1065z" />
    <glyph glyph-name="uni1E4C" unicode="&#x1e4c;" horiz-adv-x="1024" 
d="M815 1912h-102l200 283h160zM770 739q0 188 -20.5 309t-55.5 192t-82 97.5t-100 26.5t-100 -26.5t-82 -97.5t-55.5 -191.5t-20.5 -309.5q0 -188 20.5 -309t55.5 -191.5t82 -97t100 -26.5t100 26.5t82 97t55.5 191.5t20.5 309zM930 739q0 -207 -30 -351t-85 -235.5
t-132 -132t-171 -40.5t-171 40.5t-132 132t-85 235.5t-30 351t30 351.5t85 235.5t132 132t171 41t171 -41t132 -132t85 -235.5t30 -351.5zM224 1577q0 33 11 69t31.5 64.5t49 48t65.5 19.5q39 0 75 -14.5t71 -30.5l65 -31q31 -14 58 -14q45 0 59 31.5t18 70.5h74
q-2 -37 -11 -73.5t-27.5 -64.5t-48.5 -45t-73 -17q-33 0 -66.5 14t-68.5 31l-66 30q-32 14 -61 15q-43 0 -60.5 -32t-21.5 -71h-73z" />
    <glyph glyph-name="uni1E4D" unicode="&#x1e4d;" horiz-adv-x="796" 
d="M702 1540h-102l200 282h160zM219 532q0 -133 10.5 -216t32 -131t55 -65.5t80.5 -17.5t81 17.5t55.5 65.5t31.5 131t10 216q0 131 -10 215t-31.5 132.5t-55.5 66t-81 17.5t-80.5 -17.5t-55 -66t-32 -132.5t-10.5 -215zM72 532q0 289 78.5 421t246.5 132t247 -132t79 -421
t-79 -420.5t-247 -131.5t-246.5 131.5t-78.5 420.5zM111 1204q0 33 11 69t31.5 64.5t49 48t65.5 19.5q39 0 75 -14.5t71 -30.5l65 -31q31 -14 58 -14q45 0 59 31.5t18 70.5h74q-2 -37 -11 -73.5t-27.5 -64.5t-48.5 -45t-73 -17q-33 0 -66.5 14t-68.5 31l-66 30
q-32 14 -61 15q-43 0 -60.5 -32t-21.5 -71h-73z" />
    <glyph glyph-name="uni1E4E" unicode="&#x1e4e;" horiz-adv-x="1024" 
d="M832 2122h135v-209h-135v209zM562 2122h135v-209h-135v209zM770 739q0 188 -20.5 309t-55.5 192t-82 97.5t-100 26.5t-100 -26.5t-82 -97.5t-55.5 -191.5t-20.5 -309.5q0 -188 20.5 -309t55.5 -191.5t82 -97t100 -26.5t100 26.5t82 97t55.5 191.5t20.5 309zM930 739
q0 -207 -30 -351t-85 -235.5t-132 -132t-171 -40.5t-171 40.5t-132 132t-85 235.5t-30 351t30 351.5t85 235.5t132 132t171 41t171 -41t132 -132t85 -235.5t30 -351.5zM224 1577q0 33 11 69t31.5 64.5t49 48t65.5 19.5q39 0 75 -14.5t71 -30.5l65 -31q31 -14 58 -14
q45 0 59 31.5t18 70.5h74q-2 -37 -11 -73.5t-27.5 -64.5t-48.5 -45t-73 -17q-33 0 -66.5 14t-68.5 31l-66 30q-32 14 -61 15q-43 0 -60.5 -32t-21.5 -71h-73z" />
    <glyph glyph-name="uni1E4F" unicode="&#x1e4f;" horiz-adv-x="796" 
d="M719 1749h135v-209h-135v209zM449 1749h135v-209h-135v209zM219 532q0 -133 10.5 -216t32 -131t55 -65.5t80.5 -17.5t81 17.5t55.5 65.5t31.5 131t10 216q0 131 -10 215t-31.5 132.5t-55.5 66t-81 17.5t-80.5 -17.5t-55 -66t-32 -132.5t-10.5 -215zM72 532
q0 289 78.5 421t246.5 132t247 -132t79 -421t-79 -420.5t-247 -131.5t-246.5 131.5t-78.5 420.5zM111 1204q0 33 11 69t31.5 64.5t49 48t65.5 19.5q39 0 75 -14.5t71 -30.5l65 -31q31 -14 58 -14q45 0 59 31.5t18 70.5h74q-2 -37 -11 -73.5t-27.5 -64.5t-48.5 -45t-73 -17
q-33 0 -66.5 14t-68.5 31l-66 30q-32 14 -61 15q-43 0 -60.5 -32t-21.5 -71h-73z" />
    <glyph glyph-name="uni1E50" unicode="&#x1e50;" horiz-adv-x="1024" 
d="M205 2134h159l201 -283h-102zM770 739q0 188 -20.5 309t-55.5 192t-82 97.5t-100 26.5t-100 -26.5t-82 -97.5t-55.5 -191.5t-20.5 -309.5q0 -188 20.5 -309t55.5 -191.5t82 -97t100 -26.5t100 26.5t82 97t55.5 191.5t20.5 309zM930 739q0 -207 -30 -351t-85 -235.5
t-132 -132t-171 -40.5t-171 40.5t-132 132t-85 235.5t-30 351t30 351.5t85 235.5t132 132t171 41t171 -41t132 -132t85 -235.5t30 -351.5zM242 1630v99h545v-99h-545z" />
    <glyph glyph-name="uni1E51" unicode="&#x1e51;" horiz-adv-x="796" 
d="M90 1761h159l201 -282h-102zM219 532q0 -133 10.5 -216t32 -131t55 -65.5t80.5 -17.5t81 17.5t55.5 65.5t31.5 131t10 216q0 131 -10 215t-31.5 132.5t-55.5 66t-81 17.5t-80.5 -17.5t-55 -66t-32 -132.5t-10.5 -215zM72 532q0 289 78.5 421t246.5 132t247 -132t79 -421
t-79 -420.5t-247 -131.5t-246.5 131.5t-78.5 420.5zM127 1257v99h545v-99h-545z" />
    <glyph glyph-name="uni1E52" unicode="&#x1e52;" horiz-adv-x="1024" 
d="M565 1851h-102l200 283h160zM770 739q0 188 -20.5 309t-55.5 192t-82 97.5t-100 26.5t-100 -26.5t-82 -97.5t-55.5 -191.5t-20.5 -309.5q0 -188 20.5 -309t55.5 -191.5t82 -97t100 -26.5t100 26.5t82 97t55.5 191.5t20.5 309zM930 739q0 -207 -30 -351t-85 -235.5
t-132 -132t-171 -40.5t-171 40.5t-132 132t-85 235.5t-30 351t30 351.5t85 235.5t132 132t171 41t171 -41t132 -132t85 -235.5t30 -351.5zM242 1630v99h545v-99h-545z" />
    <glyph glyph-name="uni1E53" unicode="&#x1e53;" horiz-adv-x="796" 
d="M451 1479h-102l200 282h160zM219 532q0 -133 10.5 -216t32 -131t55 -65.5t80.5 -17.5t81 17.5t55.5 65.5t31.5 131t10 216q0 131 -10 215t-31.5 132.5t-55.5 66t-81 17.5t-80.5 -17.5t-55 -66t-32 -132.5t-10.5 -215zM72 532q0 289 78.5 421t246.5 132t247 -132t79 -421
t-79 -420.5t-247 -131.5t-246.5 131.5t-78.5 420.5zM127 1257v99h545v-99h-545z" />
    <glyph glyph-name="uni1E54" unicode="&#x1e54;" 
d="M340 1622h-102l200 283h160zM274 803h168q121 0 187.5 65.5t66.5 204.5t-66.5 204.5t-187.5 65.5h-168v-540zM115 1479h348q88 0 160.5 -29t125 -82t80 -128t27.5 -167t-27.5 -167t-80 -128t-125 -81.5t-160.5 -28.5h-189v-668h-159v1479z" />
    <glyph glyph-name="uni1E55" unicode="&#x1e55;" 
d="M555 1209h-102l200 282h160zM307 197q33 -33 72 -64t88 -31q47 0 84 21.5t61.5 71t38 132.5t13.5 205q0 123 -14.5 206t-40 132.5t-63.5 71t-83 21.5q-35 0 -78 -28t-78 -75v-663zM283 963h4q37 57 91 89.5t126 32.5q63 0 118.5 -28.5t97.5 -94t66.5 -171t24.5 -259.5
t-24.5 -259t-66.5 -170.5t-97.5 -94t-118.5 -28.5q-59 0 -109.5 30.5t-87.5 67.5v-426h-147v1413h123v-102z" />
    <glyph glyph-name="uni1E56" unicode="&#x1e56;" 
d="M221 1831h135v-209h-135v209zM274 803h168q121 0 187.5 65.5t66.5 204.5t-66.5 204.5t-187.5 65.5h-168v-540zM115 1479h348q88 0 160.5 -29t125 -82t80 -128t27.5 -167t-27.5 -167t-80 -128t-125 -81.5t-160.5 -28.5h-189v-668h-159v1479z" />
    <glyph glyph-name="uni1E57" unicode="&#x1e57;" 
d="M436 1417h135v-209h-135v209zM307 197q33 -33 72 -64t88 -31q47 0 84 21.5t61.5 71t38 132.5t13.5 205q0 123 -14.5 206t-40 132.5t-63.5 71t-83 21.5q-35 0 -78 -28t-78 -75v-663zM283 963h4q37 57 91 89.5t126 32.5q63 0 118.5 -28.5t97.5 -94t66.5 -171t24.5 -259.5
t-24.5 -259t-66.5 -170.5t-97.5 -94t-118.5 -28.5q-59 0 -109.5 30.5t-87.5 67.5v-426h-147v1413h123v-102z" />
    <glyph glyph-name="uni1E58" unicode="&#x1e58;" horiz-adv-x="1024" 
d="M246 1831h135v-209h-135v209zM295 831h139q172 0 237.5 66t65.5 190q0 125 -65.5 190.5t-237.5 65.5h-139v-512zM135 1479h357q88 0 162.5 -26t129 -75t84 -119.5t29.5 -162.5q0 -125 -57.5 -222.5t-180.5 -140.5l250 -733h-168l-237 700l-209 -8v-692h-160v1479z" />
    <glyph glyph-name="uni1E59" unicode="&#x1e59;" horiz-adv-x="569" 
d="M279 1417h135v-209h-135v209zM135 1065h148v-129h4q33 49 62.5 77.5t61 45t67.5 21.5t79 5v-139q-41 0 -78 -8t-70.5 -29.5t-64.5 -57.5t-61 -93v-758h-148v1065z" />
    <glyph glyph-name="uni1E5A" unicode="&#x1e5a;" horiz-adv-x="1024" 
d="M455 -123h135v-209h-135v209zM295 831h139q172 0 237.5 66t65.5 190q0 125 -65.5 190.5t-237.5 65.5h-139v-512zM135 1479h357q88 0 162.5 -26t129 -75t84 -119.5t29.5 -162.5q0 -125 -57.5 -222.5t-180.5 -140.5l250 -733h-168l-237 700l-209 -8v-692h-160v1479z" />
    <glyph glyph-name="uni1E5B" unicode="&#x1e5b;" horiz-adv-x="569" 
d="M142 -123h135v-209h-135v209zM135 1065h148v-129h4q33 49 62.5 77.5t61 45t67.5 21.5t79 5v-139q-41 0 -78 -8t-70.5 -29.5t-64.5 -57.5t-61 -93v-758h-148v1065z" />
    <glyph glyph-name="uni1E5C" unicode="&#x1e5c;" horiz-adv-x="1024" 
d="M41 1622v99h545v-99h-545zM455 -123h135v-209h-135v209zM295 831h139q172 0 237.5 66t65.5 190q0 125 -65.5 190.5t-237.5 65.5h-139v-512zM135 1479h357q88 0 162.5 -26t129 -75t84 -119.5t29.5 -162.5q0 -125 -57.5 -222.5t-180.5 -140.5l250 -733h-168l-237 700
l-209 -8v-692h-160v1479z" />
    <glyph glyph-name="uni1E5D" unicode="&#x1e5d;" horiz-adv-x="569" 
d="M285 1208v99h545v-99h-545zM142 -123h135v-209h-135v209zM135 1065h148v-129h4q33 49 62.5 77.5t61 45t67.5 21.5t79 5v-139q-41 0 -78 -8t-70.5 -29.5t-64.5 -57.5t-61 -93v-758h-148v1065z" />
    <glyph glyph-name="uni1E5E" unicode="&#x1e5e;" horiz-adv-x="1024" 
d="M250 -221v99h545v-99h-545zM295 831h139q172 0 237.5 66t65.5 190q0 125 -65.5 190.5t-237.5 65.5h-139v-512zM135 1479h357q88 0 162.5 -26t129 -75t84 -119.5t29.5 -162.5q0 -125 -57.5 -222.5t-180.5 -140.5l250 -733h-168l-237 700l-209 -8v-692h-160v1479z" />
    <glyph glyph-name="uni1E5F" unicode="&#x1e5f;" horiz-adv-x="569" 
d="M-63 -222v99h545v-99h-545zM135 1065h148v-129h4q33 49 62.5 77.5t61 45t67.5 21.5t79 5v-139q-41 0 -78 -8t-70.5 -29.5t-64.5 -57.5t-61 -93v-758h-148v1065z" />
    <glyph glyph-name="uni1E60" unicode="&#x1e60;" 
d="M379 1831h135v-209h-135v209zM664 1098q-4 57 -18.5 105t-42.5 84t-68.5 56.5t-98.5 20.5q-92 0 -147.5 -54.5t-55.5 -140.5q0 -84 44.5 -143t110 -110.5t143 -100.5t143 -111.5t109.5 -145.5t44 -202q0 -178 -97 -277t-281 -99q-86 0 -156 30.5t-118 86t-73.5 132
t-27.5 168.5h147q4 -131 64.5 -206.5t179.5 -75.5q100 0 159.5 62.5t59.5 180.5q0 84 -44 146.5t-109.5 116t-143.5 103.5t-143.5 111.5t-109.5 137.5t-44 182q0 78 25.5 141.5t73 108.5t113 69.5t144.5 24.5q160 0 257.5 -103.5t107.5 -297.5h-147z" />
    <glyph glyph-name="uni1E61" unicode="&#x1e61;" horiz-adv-x="796" 
d="M320 1417h135v-209h-135v209zM561 795q-10 35 -23.5 65.5t-34 53t-51 36t-75.5 13.5q-53 0 -86 -37t-33 -90t34 -93.5t83 -75t108.5 -69.5t108.5 -79t83 -103.5t34 -141.5q0 -63 -21.5 -116.5t-60.5 -93t-92.5 -62t-116.5 -22.5q-145 0 -223 73.5t-117 208.5l135 29
q12 -35 28.5 -69t40 -60.5t54.5 -43t72 -16.5q31 0 58.5 13.5t49 35t33.5 51t12 62.5q0 61 -33.5 105.5t-83 80t-109 70.5t-108.5 77t-82.5 97.5t-33.5 132.5q0 51 20.5 98.5t57 83t87 56t111.5 20.5q123 0 196.5 -66.5t100.5 -187.5z" />
    <glyph glyph-name="uni1E62" unicode="&#x1e62;" 
d="M381 -143h135v-209h-135v209zM664 1098q-4 57 -18.5 105t-42.5 84t-68.5 56.5t-98.5 20.5q-92 0 -147.5 -54.5t-55.5 -140.5q0 -84 44.5 -143t110 -110.5t143 -100.5t143 -111.5t109.5 -145.5t44 -202q0 -178 -97 -277t-281 -99q-86 0 -156 30.5t-118 86t-73.5 132
t-27.5 168.5h147q4 -131 64.5 -206.5t179.5 -75.5q100 0 159.5 62.5t59.5 180.5q0 84 -44 146.5t-109.5 116t-143.5 103.5t-143.5 111.5t-109.5 137.5t-44 182q0 78 25.5 141.5t73 108.5t113 69.5t144.5 24.5q160 0 257.5 -103.5t107.5 -297.5h-147z" />
    <glyph glyph-name="uni1E63" unicode="&#x1e63;" horiz-adv-x="796" 
d="M350 -143h135v-209h-135v209zM561 795q-10 35 -23.5 65.5t-34 53t-51 36t-75.5 13.5q-53 0 -86 -37t-33 -90t34 -93.5t83 -75t108.5 -69.5t108.5 -79t83 -103.5t34 -141.5q0 -63 -21.5 -116.5t-60.5 -93t-92.5 -62t-116.5 -22.5q-145 0 -223 73.5t-117 208.5l135 29
q12 -35 28.5 -69t40 -60.5t54.5 -43t72 -16.5q31 0 58.5 13.5t49 35t33.5 51t12 62.5q0 61 -33.5 105.5t-83 80t-109 70.5t-108.5 77t-82.5 97.5t-33.5 132.5q0 51 20.5 98.5t57 83t87 56t111.5 20.5q123 0 196.5 -66.5t100.5 -187.5z" />
    <glyph glyph-name="uni1E64" unicode="&#x1e64;" 
d="M555 2171h135v-209h-135v209zM664 1098q-4 57 -18.5 105t-42.5 84t-68.5 56.5t-98.5 20.5q-92 0 -147.5 -54.5t-55.5 -140.5q0 -84 44.5 -143t110 -110.5t143 -100.5t143 -111.5t109.5 -145.5t44 -202q0 -178 -97 -277t-281 -99q-86 0 -156 30.5t-118 86t-73.5 132
t-27.5 168.5h147q4 -131 64.5 -206.5t179.5 -75.5q100 0 159.5 62.5t59.5 180.5q0 84 -44 146.5t-109.5 116t-143.5 103.5t-143.5 111.5t-109.5 137.5t-44 182q0 78 25.5 141.5t73 108.5t113 69.5t144.5 24.5q160 0 257.5 -103.5t107.5 -297.5h-147zM444 1556h-102l200 283
h160z" />
    <glyph glyph-name="uni1E65" unicode="&#x1e65;" horiz-adv-x="796" 
d="M510 1798h135v-209h-135v209zM561 795q-10 35 -23.5 65.5t-34 53t-51 36t-75.5 13.5q-53 0 -86 -37t-33 -90t34 -93.5t83 -75t108.5 -69.5t108.5 -79t83 -103.5t34 -141.5q0 -63 -21.5 -116.5t-60.5 -93t-92.5 -62t-116.5 -22.5q-145 0 -223 73.5t-117 208.5l135 29
q12 -35 28.5 -69t40 -60.5t54.5 -43t72 -16.5q31 0 58.5 13.5t49 35t33.5 51t12 62.5q0 61 -33.5 105.5t-83 80t-109 70.5t-108.5 77t-82.5 97.5t-33.5 132.5q0 51 20.5 98.5t57 83t87 56t111.5 20.5q123 0 196.5 -66.5t100.5 -187.5zM399 1184h-102l200 282h160z" />
    <glyph glyph-name="uni1E66" unicode="&#x1e66;" 
d="M387 2171h135v-209h-135v209zM664 1098q-4 57 -18.5 105t-42.5 84t-68.5 56.5t-98.5 20.5q-92 0 -147.5 -54.5t-55.5 -140.5q0 -84 44.5 -143t110 -110.5t143 -100.5t143 -111.5t109.5 -145.5t44 -202q0 -178 -97 -277t-281 -99q-86 0 -156 30.5t-118 86t-73.5 132
t-27.5 168.5h147q4 -131 64.5 -206.5t179.5 -75.5q100 0 159.5 62.5t59.5 180.5q0 84 -44 146.5t-109.5 116t-143.5 103.5t-143.5 111.5t-109.5 137.5t-44 182q0 78 25.5 141.5t73 108.5t113 69.5t144.5 24.5q160 0 257.5 -103.5t107.5 -297.5h-147zM178 1839h131l145 -209
l146 209h131l-207 -282h-139z" />
    <glyph glyph-name="uni1E67" unicode="&#x1e67;" horiz-adv-x="796" 
d="M332 1798h135v-209h-135v209zM561 795q-10 35 -23.5 65.5t-34 53t-51 36t-75.5 13.5q-53 0 -86 -37t-33 -90t34 -93.5t83 -75t108.5 -69.5t108.5 -79t83 -103.5t34 -141.5q0 -63 -21.5 -116.5t-60.5 -93t-92.5 -62t-116.5 -22.5q-145 0 -223 73.5t-117 208.5l135 29
q12 -35 28.5 -69t40 -60.5t54.5 -43t72 -16.5q31 0 58.5 13.5t49 35t33.5 51t12 62.5q0 61 -33.5 105.5t-83 80t-109 70.5t-108.5 77t-82.5 97.5t-33.5 132.5q0 51 20.5 98.5t57 83t87 56t111.5 20.5q123 0 196.5 -66.5t100.5 -187.5zM123 1466h131l145 -209l146 209h131
l-207 -282h-139z" />
    <glyph glyph-name="uni1E68" unicode="&#x1e68;" 
d="M379 1831h135v-209h-135v209zM381 -143h135v-209h-135v209zM664 1098q-4 57 -18.5 105t-42.5 84t-68.5 56.5t-98.5 20.5q-92 0 -147.5 -54.5t-55.5 -140.5q0 -84 44.5 -143t110 -110.5t143 -100.5t143 -111.5t109.5 -145.5t44 -202q0 -178 -97 -277t-281 -99
q-86 0 -156 30.5t-118 86t-73.5 132t-27.5 168.5h147q4 -131 64.5 -206.5t179.5 -75.5q100 0 159.5 62.5t59.5 180.5q0 84 -44 146.5t-109.5 116t-143.5 103.5t-143.5 111.5t-109.5 137.5t-44 182q0 78 25.5 141.5t73 108.5t113 69.5t144.5 24.5q160 0 257.5 -103.5
t107.5 -297.5h-147z" />
    <glyph glyph-name="uni1E69" unicode="&#x1e69;" horiz-adv-x="796" 
d="M320 1417h135v-209h-135v209zM350 -143h135v-209h-135v209zM561 795q-10 35 -23.5 65.5t-34 53t-51 36t-75.5 13.5q-53 0 -86 -37t-33 -90t34 -93.5t83 -75t108.5 -69.5t108.5 -79t83 -103.5t34 -141.5q0 -63 -21.5 -116.5t-60.5 -93t-92.5 -62t-116.5 -22.5
q-145 0 -223 73.5t-117 208.5l135 29q12 -35 28.5 -69t40 -60.5t54.5 -43t72 -16.5q31 0 58.5 13.5t49 35t33.5 51t12 62.5q0 61 -33.5 105.5t-83 80t-109 70.5t-108.5 77t-82.5 97.5t-33.5 132.5q0 51 20.5 98.5t57 83t87 56t111.5 20.5q123 0 196.5 -66.5t100.5 -187.5z
" />
    <glyph glyph-name="uni1E6A" unicode="&#x1e6a;" horiz-adv-x="796" 
d="M330 1831h135v-209h-135v209zM780 1479v-136h-303v-1343h-160v1343h-303v136h766z" />
    <glyph glyph-name="uni1E6B" unicode="&#x1e6b;" horiz-adv-x="569" 
d="M166 1753h135v-209h-135v209zM16 1065h144v356h147v-356h197v-123h-197v-745q0 -47 25.5 -77t81.5 -30q23 0 47 7t43 14v-111q-31 -10 -61.5 -15t-77.5 -5q-104 0 -154.5 53t-50.5 176v733h-144v123z" />
    <glyph glyph-name="uni1E6C" unicode="&#x1e6c;" horiz-adv-x="796" 
d="M330 -123h135v-209h-135v209zM780 1479v-136h-303v-1343h-160v1343h-303v136h766z" />
    <glyph glyph-name="uni1E6D" unicode="&#x1e6d;" horiz-adv-x="569" 
d="M297 -143h135v-209h-135v209zM16 1065h144v356h147v-356h197v-123h-197v-745q0 -47 25.5 -77t81.5 -30q23 0 47 7t43 14v-111q-31 -10 -61.5 -15t-77.5 -5q-104 0 -154.5 53t-50.5 176v733h-144v123z" />
    <glyph glyph-name="uni1E6E" unicode="&#x1e6e;" horiz-adv-x="796" 
d="M125 -221v99h545v-99h-545zM780 1479v-136h-303v-1343h-160v1343h-303v136h766z" />
    <glyph glyph-name="uni1E6F" unicode="&#x1e6f;" horiz-adv-x="569" 
d="M92 -242v99h545v-99h-545zM16 1065h144v356h147v-356h197v-123h-197v-745q0 -47 25.5 -77t81.5 -30q23 0 47 7t43 14v-111q-31 -10 -61.5 -15t-77.5 -5q-104 0 -154.5 53t-50.5 176v733h-144v123z" />
    <glyph glyph-name="uni1E70" unicode="&#x1e70;" horiz-adv-x="796" 
d="M328 -123h139l207 -283h-131l-146 209l-145 -209h-131zM780 1479v-136h-303v-1343h-160v1343h-303v136h766z" />
    <glyph glyph-name="uni1E71" unicode="&#x1e71;" horiz-adv-x="569" 
d="M295 -144h139l207 -282h-131l-146 209l-145 -209h-131zM16 1065h144v356h147v-356h197v-123h-197v-745q0 -47 25.5 -77t81.5 -30q23 0 47 7t43 14v-111q-31 -10 -61.5 -15t-77.5 -5q-104 0 -154.5 53t-50.5 176v733h-144v123z" />
    <glyph glyph-name="uni1E72" unicode="&#x1e72;" horiz-adv-x="1024" 
d="M580 -143h135v-209h-135v209zM310 -143h135v-209h-135v209zM295 1479v-1086q0 -55 9 -106t33.5 -89t66.5 -60.5t108 -22.5t108 22.5t66.5 60.5t33.5 89t9 106v1086h160v-1090q0 -90 -21.5 -164.5t-67.5 -129t-117 -85t-171 -30.5t-171 30.5t-117 85t-67.5 129
t-21.5 164.5v1090h160z" />
    <glyph glyph-name="uni1E73" unicode="&#x1e73;" 
d="M449 -143h135v-209h-135v209zM179 -143h135v-209h-135v209zM762 0h-139v117q-53 -53 -121 -95t-121 -42q-111 0 -172.5 65.5t-61.5 212.5v807h148v-786q0 -92 28.5 -134.5t88.5 -42.5q53 0 103 35t99 96v832h148v-1065z" />
    <glyph glyph-name="uni1E74" unicode="&#x1e74;" horiz-adv-x="1024" 
d="M224 -356q0 33 11 68.5t31.5 64.5t49 48.5t65.5 19.5q39 0 75 -14.5t71 -30.5l65 -31q31 -14 58 -14q45 0 59 31.5t18 70.5h74q-2 -37 -11 -74t-27.5 -64.5t-48.5 -45t-73 -17.5q-33 0 -66.5 14.5t-68.5 30.5l-66 31q-32 14 -61 14q-43 0 -60.5 -31.5t-21.5 -70.5h-73z
M295 1479v-1086q0 -55 9 -106t33.5 -89t66.5 -60.5t108 -22.5t108 22.5t66.5 60.5t33.5 89t9 106v1086h160v-1090q0 -90 -21.5 -164.5t-67.5 -129t-117 -85t-171 -30.5t-171 30.5t-117 85t-67.5 129t-21.5 164.5v1090h160z" />
    <glyph glyph-name="uni1E75" unicode="&#x1e75;" 
d="M93 -357q0 33 11 69t31.5 64.5t49 48t65.5 19.5q39 0 75 -14.5t71 -30.5l65 -31q31 -14 58 -14q45 0 59 31.5t18 70.5h74q-2 -37 -11 -73.5t-27.5 -64.5t-48.5 -45t-73 -17q-33 0 -66.5 14t-68.5 31l-66 30q-32 14 -61 15q-43 0 -60.5 -32t-21.5 -71h-73zM762 0h-139v117
q-53 -53 -121 -95t-121 -42q-111 0 -172.5 65.5t-61.5 212.5v807h148v-786q0 -92 28.5 -134.5t88.5 -42.5q53 0 103 35t99 96v832h148v-1065z" />
    <glyph glyph-name="uni1E76" unicode="&#x1e76;" horiz-adv-x="1024" 
d="M443 -143h139l207 -283h-131l-146 209l-145 -209h-131zM295 1479v-1086q0 -55 9 -106t33.5 -89t66.5 -60.5t108 -22.5t108 22.5t66.5 60.5t33.5 89t9 106v1086h160v-1090q0 -90 -21.5 -164.5t-67.5 -129t-117 -85t-171 -30.5t-171 30.5t-117 85t-67.5 129t-21.5 164.5
v1090h160z" />
    <glyph glyph-name="uni1E77" unicode="&#x1e77;" 
d="M312 -144h139l207 -282h-131l-146 209l-145 -209h-131zM762 0h-139v117q-53 -53 -121 -95t-121 -42q-111 0 -172.5 65.5t-61.5 212.5v807h148v-786q0 -92 28.5 -134.5t88.5 -42.5q53 0 103 35t99 96v832h148v-1065z" />
    <glyph glyph-name="uni1E78" unicode="&#x1e78;" horiz-adv-x="1024" 
d="M815 1912h-102l200 283h160zM295 1479v-1086q0 -55 9 -106t33.5 -89t66.5 -60.5t108 -22.5t108 22.5t66.5 60.5t33.5 89t9 106v1086h160v-1090q0 -90 -21.5 -164.5t-67.5 -129t-117 -85t-171 -30.5t-171 30.5t-117 85t-67.5 129t-21.5 164.5v1090h160zM224 1577
q0 33 11 68.5t31.5 64.5t49 48.5t65.5 19.5q39 0 75 -14.5t71 -30.5l65 -31q31 -14 58 -14q45 0 59 31.5t18 70.5h74q-2 -37 -11 -74t-27.5 -64.5t-48.5 -45t-73 -17.5q-33 0 -66.5 14.5t-68.5 30.5l-66 31q-32 14 -61 14q-43 0 -60.5 -31.5t-21.5 -70.5h-73z" />
    <glyph glyph-name="uni1E79" unicode="&#x1e79;" 
d="M764 1540h-102l200 282h160zM762 0h-139v117q-53 -53 -121 -95t-121 -42q-111 0 -172.5 65.5t-61.5 212.5v807h148v-786q0 -92 28.5 -134.5t88.5 -42.5q53 0 103 35t99 96v832h148v-1065zM172 1204q0 33 11 69t31.5 64.5t49 48t65.5 19.5q39 0 75 -14.5t71 -30.5l65 -31
q31 -14 58 -14q45 0 59 31.5t18 70.5h74q-2 -37 -11 -73.5t-27.5 -64.5t-48.5 -45t-73 -17q-33 0 -66.5 14t-68.5 31l-66 30q-32 14 -61 15q-43 0 -60.5 -32t-21.5 -71h-73z" />
    <glyph glyph-name="uni1E7A" unicode="&#x1e7a;" horiz-adv-x="1024" 
d="M580 2060h135v-209h-135v209zM310 2060h135v-209h-135v209zM295 1479v-1086q0 -55 9 -106t33.5 -89t66.5 -60.5t108 -22.5t108 22.5t66.5 60.5t33.5 89t9 106v1086h160v-1090q0 -90 -21.5 -164.5t-67.5 -129t-117 -85t-171 -30.5t-171 30.5t-117 85t-67.5 129
t-21.5 164.5v1090h160zM240 1630v99h545v-99h-545z" />
    <glyph glyph-name="uni1E7B" unicode="&#x1e7b;" 
d="M528 1687h135v-209h-135v209zM258 1687h135v-209h-135v209zM762 0h-139v117q-53 -53 -121 -95t-121 -42q-111 0 -172.5 65.5t-61.5 212.5v807h148v-786q0 -92 28.5 -134.5t88.5 -42.5q53 0 103 35t99 96v832h148v-1065zM188 1257v99h545v-99h-545z" />
    <glyph glyph-name="uni1E7C" unicode="&#x1e7c;" 
d="M166 1622q0 33 11 68.5t31.5 64.5t49 48.5t65.5 19.5q39 0 75 -14.5t71 -30.5l65 -31q31 -14 58 -14q45 0 59 31.5t18 70.5h74q-2 -37 -11 -74t-27.5 -64.5t-48.5 -45t-73 -17.5q-33 0 -66.5 14.5t-68.5 30.5l-66 31q-32 14 -61 14q-43 0 -60.5 -31.5t-21.5 -70.5h-73z
M193 1479l260 -1172h4l260 1172h160l-349 -1479h-147l-348 1479h160z" />
    <glyph glyph-name="uni1E7D" unicode="&#x1e7d;" horiz-adv-x="796" 
d="M109 1208q0 33 11 69t31.5 64.5t49 48t65.5 19.5q39 0 75 -14.5t71 -30.5l65 -31q31 -14 58 -14q45 0 59 31.5t18 70.5h74q-2 -37 -11 -73.5t-27.5 -64.5t-48.5 -45t-73 -17q-33 0 -66.5 14t-68.5 31l-66 30q-32 14 -61 15q-43 0 -60.5 -32t-21.5 -71h-73zM184 1065
l213 -918h4l209 918h148l-262 -1065h-197l-262 1065h147z" />
    <glyph glyph-name="uni1E7E" unicode="&#x1e7e;" 
d="M387 -123h135v-209h-135v209zM193 1479l260 -1172h4l260 1172h160l-349 -1479h-147l-348 1479h160z" />
    <glyph glyph-name="uni1E7F" unicode="&#x1e7f;" horiz-adv-x="796" 
d="M330 -123h135v-209h-135v209zM184 1065l213 -918h4l209 918h148l-262 -1065h-197l-262 1065h147z" />
    <glyph glyph-name="Wgrave" unicode="&#x1e80;" horiz-adv-x="1251" 
d="M316 1905h159l201 -283h-102zM160 1479l176 -1155h4l221 1155h131l230 -1155h4l164 1155h147l-238 -1479h-135l-233 1161h-4l-234 -1161h-135l-246 1479h148z" />
    <glyph glyph-name="wgrave" unicode="&#x1e81;" horiz-adv-x="1138" 
d="M260 1491h159l201 -282h-102zM176 1065l152 -782h4l172 782h139l176 -782h4l140 782h139l-221 -1065h-123l-185 827h-4l-184 -827h-123l-225 1065h139z" />
    <glyph glyph-name="Wacute" unicode="&#x1e82;" horiz-adv-x="1251" 
d="M676 1622h-102l200 283h160zM160 1479l176 -1155h4l221 1155h131l230 -1155h4l164 1155h147l-238 -1479h-135l-233 1161h-4l-234 -1161h-135l-246 1479h148z" />
    <glyph glyph-name="wacute" unicode="&#x1e83;" horiz-adv-x="1138" 
d="M621 1209h-102l200 282h160zM176 1065l152 -782h4l172 782h139l176 -782h4l140 782h139l-221 -1065h-123l-185 827h-4l-184 -827h-123l-225 1065h139z" />
    <glyph glyph-name="Wdieresis" unicode="&#x1e84;" horiz-adv-x="1251" 
d="M692 1831h135v-209h-135v209zM422 1831h135v-209h-135v209zM160 1479l176 -1155h4l221 1155h131l230 -1155h4l164 1155h147l-238 -1479h-135l-233 1161h-4l-234 -1161h-135l-246 1479h148z" />
    <glyph glyph-name="wdieresis" unicode="&#x1e85;" horiz-adv-x="1138" 
d="M637 1417h135v-209h-135v209zM367 1417h135v-209h-135v209zM176 1065l152 -782h4l172 782h139l176 -782h4l140 782h139l-221 -1065h-123l-185 827h-4l-184 -827h-123l-225 1065h139z" />
    <glyph glyph-name="uni1E86" unicode="&#x1e86;" horiz-adv-x="1251" 
d="M557 1831h135v-209h-135v209zM160 1479l176 -1155h4l221 1155h131l230 -1155h4l164 1155h147l-238 -1479h-135l-233 1161h-4l-234 -1161h-135l-246 1479h148z" />
    <glyph glyph-name="uni1E87" unicode="&#x1e87;" horiz-adv-x="1138" 
d="M502 1417h135v-209h-135v209zM176 1065l152 -782h4l172 782h139l176 -782h4l140 782h139l-221 -1065h-123l-185 827h-4l-184 -827h-123l-225 1065h139z" />
    <glyph glyph-name="uni1E88" unicode="&#x1e88;" horiz-adv-x="1251" 
d="M561 -123h135v-209h-135v209zM160 1479l176 -1155h4l221 1155h131l230 -1155h4l164 1155h147l-238 -1479h-135l-233 1161h-4l-234 -1161h-135l-246 1479h148z" />
    <glyph glyph-name="uni1E89" unicode="&#x1e89;" horiz-adv-x="1138" 
d="M504 -123h135v-209h-135v209zM176 1065l152 -782h4l172 782h139l176 -782h4l140 782h139l-221 -1065h-123l-185 827h-4l-184 -827h-123l-225 1065h139z" />
    <glyph glyph-name="uni1E8A" unicode="&#x1e8a;" 
d="M363 1831h135v-209h-135v209zM213 1479l225 -525l209 525h172l-291 -693l353 -786h-172l-271 618l-237 -618h-172l319 786l-307 693h172z" />
    <glyph glyph-name="uni1E8B" unicode="&#x1e8b;" horiz-adv-x="681" 
d="M252 1417h135v-209h-135v209zM2 1065h152l176 -373l155 373h152l-229 -512l270 -553h-152l-192 418l-180 -418h-152l246 553z" />
    <glyph glyph-name="uni1E8C" unicode="&#x1e8c;" 
d="M498 1831h135v-209h-135v209zM228 1831h135v-209h-135v209zM213 1479l225 -525l209 525h172l-291 -693l353 -786h-172l-271 618l-237 -618h-172l319 786l-307 693h172z" />
    <glyph glyph-name="uni1E8D" unicode="&#x1e8d;" horiz-adv-x="681" 
d="M387 1417h135v-209h-135v209zM117 1417h135v-209h-135v209zM2 1065h152l176 -373l155 373h152l-229 -512l270 -553h-152l-192 418l-180 -418h-152l246 553z" />
    <glyph glyph-name="uni1E8E" unicode="&#x1e8e;" 
d="M387 1831h135v-209h-135v209zM205 1479l254 -648l246 648h172l-340 -852v-627h-160v627l-344 852h172z" />
    <glyph glyph-name="uni1E8F" unicode="&#x1e8f;" horiz-adv-x="681" 
d="M273 1417h135v-209h-135v209zM156 1065l200 -815h4l164 815h152l-244 -1042q-41 -176 -121 -273.5t-215 -97.5h-76v123h46q88 0 143 60.5t78 172.5l-283 1057h152z" />
    <glyph glyph-name="uni1E90" unicode="&#x1e90;" 
d="M410 1905h139l207 -283h-131l-146 209l-145 -209h-131zM819 1479v-111l-549 -1233h549v-135h-729v115l533 1228h-484v136h680z" />
    <glyph glyph-name="uni1E91" unicode="&#x1e91;" horiz-adv-x="681" 
d="M287 1491h139l207 -282h-131l-146 209l-145 -209h-131zM80 1065h553v-98l-422 -844h422v-123h-586v111l410 831h-377v123z" />
    <glyph glyph-name="uni1E92" unicode="&#x1e92;" 
d="M387 -123h135v-209h-135v209zM819 1479v-111l-549 -1233h549v-135h-729v115l533 1228h-484v136h680z" />
    <glyph glyph-name="uni1E93" unicode="&#x1e93;" horiz-adv-x="681" 
d="M273 -123h135v-209h-135v209zM80 1065h553v-98l-422 -844h422v-123h-586v111l410 831h-377v123z" />
    <glyph glyph-name="uni1E94" unicode="&#x1e94;" 
d="M182 -221v99h545v-99h-545zM819 1479v-111l-549 -1233h549v-135h-729v115l533 1228h-484v136h680z" />
    <glyph glyph-name="uni1E95" unicode="&#x1e95;" horiz-adv-x="681" 
d="M68 -222v99h545v-99h-545zM80 1065h553v-98l-422 -844h422v-123h-586v111l410 831h-377v123z" />
    <glyph glyph-name="uni1E96" unicode="&#x1e96;" 
d="M182 -222v99h545v-99h-545zM147 1479h148v-531q47 53 113.5 95t119.5 42q111 0 172.5 -65.5t61.5 -212.5v-807h-148v786q0 92 -28.5 134.5t-87.5 42.5q-53 0 -103.5 -35t-99.5 -97v-831h-148v1479z" />
    <glyph glyph-name="uni1E97" unicode="&#x1e97;" horiz-adv-x="569" 
d="M301 1753h135v-209h-135v209zM31 1753h135v-209h-135v209zM16 1065h144v356h147v-356h197v-123h-197v-745q0 -47 25.5 -77t81.5 -30q23 0 47 7t43 14v-111q-31 -10 -61.5 -15t-77.5 -5q-104 0 -154.5 53t-50.5 176v733h-144v123z" />
    <glyph glyph-name="uni1E98" unicode="&#x1e98;" horiz-adv-x="1138" 
d="M461 1403q0 -43 32.5 -75.5t75.5 -32.5t76 32.5t33 75.5t-33 76t-76 33t-75.5 -33t-32.5 -76zM375 1403q0 39 14 75t41 62.5t62.5 42t76.5 15.5t77 -15.5t61.5 -42t41 -62.5t15.5 -75q0 -41 -15.5 -75.5t-41 -61.5t-61.5 -42t-77 -15t-76.5 15t-62.5 42t-41 61.5
t-14 75.5zM176 1065l152 -782h4l172 782h139l176 -782h4l140 782h139l-221 -1065h-123l-185 827h-4l-184 -827h-123l-225 1065h139z" />
    <glyph glyph-name="uni1E99" unicode="&#x1e99;" horiz-adv-x="681" 
d="M232 1403q0 -43 32.5 -75.5t75.5 -32.5t76 32.5t33 75.5t-33 76t-76 33t-75.5 -33t-32.5 -76zM146 1403q0 39 14 75t41 62.5t62.5 42t76.5 15.5t77 -15.5t61.5 -42t41 -62.5t15.5 -75q0 -41 -15.5 -75.5t-41 -61.5t-61.5 -42t-77 -15t-76.5 15t-62.5 42t-41 61.5
t-14 75.5zM156 1065l200 -815h4l164 815h152l-244 -1042q-41 -176 -121 -273.5t-215 -97.5h-76v123h46q88 0 143 60.5t78 172.5l-283 1057h152z" />
    <glyph glyph-name="uni1E9B" unicode="&#x1e9b;" horiz-adv-x="796" 
d="M320 1417h135v-209h-135v209zM561 795q-10 35 -23.5 65.5t-34 53t-51 36t-75.5 13.5q-53 0 -86 -37t-33 -90t34 -93.5t83 -75t108.5 -69.5t108.5 -79t83 -103.5t34 -141.5q0 -63 -21.5 -116.5t-60.5 -93t-92.5 -62t-116.5 -22.5q-145 0 -223 73.5t-117 208.5l135 29
q12 -35 28.5 -69t40 -60.5t54.5 -43t72 -16.5q31 0 58.5 13.5t49 35t33.5 51t12 62.5q0 61 -33.5 105.5t-83 80t-109 70.5t-108.5 77t-82.5 97.5t-33.5 132.5q0 51 20.5 98.5t57 83t87 56t111.5 20.5q123 0 196.5 -66.5t100.5 -187.5z" />
    <glyph glyph-name="uni1EA0" unicode="&#x1ea0;" 
d="M387 -123h135v-209h-135v209zM289 573h332l-164 795h-4zM565 1479l326 -1479h-160l-88 438h-377l-88 -438h-160l326 1479h221z" />
    <glyph glyph-name="uni1EA1" unicode="&#x1ea1;" 
d="M307 -143h135v-209h-135v209zM600 573q-51 -16 -112.5 -41.5t-116 -63.5t-90 -88t-35.5 -114q0 -76 35.5 -120t115.5 -44q59 0 110.5 35t92.5 76v360zM127 774q10 63 34.5 119.5t63.5 99.5t92.5 67.5t124.5 24.5q147 0 226.5 -80.5t79.5 -222.5v-594q0 -72 7 -121t19 -67
h-153l-19 90q-23 -23 -51.5 -42t-59 -34.5t-61.5 -24.5t-55 -9q-125 0 -201 73.5t-76 200.5q0 98 48.5 173t123 129t162.5 88t168 52v76q0 88 -41 139.5t-113 51.5q-43 0 -74.5 -19.5t-54 -49.5t-36 -66.5t-19.5 -73.5z" />
    <glyph glyph-name="uni1EA4" unicode="&#x1ea4;" 
d="M506 1962h-102l200 283h160zM289 573h332l-164 795h-4zM565 1479l326 -1479h-160l-88 438h-377l-88 -438h-160l326 1479h221zM385 1839h139l207 -282h-131l-146 209l-145 -209h-131z" />
    </font>
</defs>
</svg>
