<svg xmlns="http://www.w3.org/2000/svg" viewBox="0 0 640 512"><!--! Font Awesome Pro 7.0.0 by @fontawesome - https://fontawesome.com License - https://fontawesome.com/license (Commercial License) Copyright 2025 Fonticons, Inc. --><path fill="currentColor" d="M320 80a176 176 0 1 1 0 352 176 176 0 1 1 0-352zm0 400a224 224 0 1 0 0-448 224 224 0 1 0 0 448zM83.9 75.8C72.8 68.6 57.9 71.9 50.7 83 18.6 132.9 0 192.3 0 256S18.6 379.1 50.7 429c7.2 11.1 22 14.4 33.2 7.2s14.4-22 7.2-33.2C63.8 360.6 48 310.2 48 256S63.8 151.4 91.1 109c7.2-11.1 4-26-7.2-33.2zm472.2 0c-11.1 7.2-14.4 22-7.2 33.2 27.3 42.4 43.1 92.8 43.1 147s-15.8 104.6-43.1 147c-7.2 11.1-4 26 7.2 33.2s26 4 33.2-7.2C621.4 379.1 640 319.7 640 256S621.4 132.9 589.3 83c-7.2-11.1-22-14.4-33.2-7.2zM320 136c-13.3 0-24 10.7-24 24l0 112c0 13.3 10.7 24 24 24s24-10.7 24-24l0-112c0-13.3-10.7-24-24-24zm26.7 216a26.7 26.7 0 1 0 -53.3 0 26.7 26.7 0 1 0 53.3 0z"/></svg>