<svg xmlns="http://www.w3.org/2000/svg" viewBox="0 0 448 512"><!--! Font Awesome Pro 7.0.0 by @fontawesome - https://fontawesome.com License - https://fontawesome.com/license (Commercial License) Copyright 2025 Fonticons, Inc. --><path fill="currentColor" d="M7.5 239c-9.4 9.4-9.4 24.6 0 33.9l200 200c9.4 9.4 24.6 9.4 33.9 0s9.4-24.6 0-33.9l-183-183 183-183c9.4-9.4 9.4-24.6 0-33.9s-24.6-9.4-33.9 0L7.5 239zm392-200l-200 200c-9.4 9.4-9.4 24.6 0 33.9l200 200c9.4 9.4 24.6 9.4 33.9 0s9.4-24.6 0-33.9l-183-183 183-183c9.4-9.4 9.4-24.6 0-33.9s-24.6-9.4-33.9 0z"/></svg>