<svg xmlns="http://www.w3.org/2000/svg" viewBox="0 0 576 512"><!--! Font Awesome Pro 7.0.0 by @fontawesome - https://fontawesome.com License - https://fontawesome.com/license (Commercial License) Copyright 2025 Fonticons, Inc. --><path fill="currentColor" d="M24 320c-13.3 0-24 10.7-24 24s10.7 24 24 24l48 0 0 96-48 0c-13.3 0-24 10.7-24 24s10.7 24 24 24l528 0c13.3 0 24-10.7 24-24s-10.7-24-24-24l-48 0 0-96 48 0c13.3 0 24-10.7 24-24s-10.7-24-24-24L24 320zm432 48l0 96-144 0 0-96 144 0zM264 464l-144 0 0-96 144 0 0 96z"/></svg>