<svg xmlns="http://www.w3.org/2000/svg" viewBox="0 0 576 512"><!--! Font Awesome Pro 7.0.0 by @fontawesome - https://fontawesome.com License - https://fontawesome.com/license (Commercial License) Copyright 2025 Fonticons, Inc. --><path fill="currentColor" d="M0 56C0 69.3 10.7 80 24 80l240 0c13.3 0 24-10.7 24-24s-10.7-24-24-24L24 32C10.7 32 0 42.7 0 56zM528 240l-480 0 0-64 480 0 0 64zM48 128c-26.5 0-48 21.5-48 48l0 64c0 26.5 21.5 48 48 48l94.1 0c1.4 1.6 3.1 3 4.9 4.2l96.6 62.1-56 36c-8.4-4-17.7-6.3-27.6-6.3-35.3 0-64 28.7-64 64s28.7 64 64 64 64-28.7 64-64c0-7.6-1.3-14.9-3.7-21.6l67.7-43.6 67.7 43.6c-2.4 6.8-3.7 14-3.7 21.6 0 35.3 28.7 64 64 64s64-28.7 64-64-28.7-64-64-64c-9.9 0-19.3 2.2-27.7 6.3l-56-36 96.6-62.1c1.9-1.2 3.5-2.6 4.9-4.2l94.1 0c26.5 0 48-21.5 48-48l0-64c0-26.5-21.5-48-48-48L48 128zM288 325.8l-58.7-37.8 117.5 0-58.7 37.8zM160 432a16 16 0 1 1 0 32 16 16 0 1 1 0-32zm256 0a16 16 0 1 1 0 32 16 16 0 1 1 0-32z"/></svg>