<svg xmlns="http://www.w3.org/2000/svg" viewBox="0 0 468 540"><!--! Font Awesome Pro 7.1.0 by @fontawesome - https://fontawesome.com License - https://fontawesome.com/license (Commercial License) Copyright 2025 Fonticons, Inc. --><path opacity=".4" fill="currentColor" d="M27 90l0 36c0 7.5 6 13.5 13.5 13.5S54 133.5 54 126l0-36c0-19.9 16.1-36 36-36l288 0c7.5 0 13.5-6 13.5-13.5S385.5 27 378 27L90 27C55.2 27 27 55.2 27 90zM63 342c0 7.5 6 13.5 13.5 13.5S90 349.5 90 342L234 198c5.3 5.3 13.8 5.3 19.1 0s5.3-13.8 0-19.1c-10.5-10.5-27.6-10.5-38.2 0l-144 144C65.6 328.2 63 335.1 63 342zm144 8.1L207 486c0 7.5 6 13.5 13.5 13.5s13.5-6 13.5-13.5l0-135.9c0-7.5-6-13.5-13.5-13.5s-13.5 6-13.5 13.5zM387 117l0 9c0 7.5 6 13.5 13.5 13.5s13.5-6 13.5-13.5l0-9c0-7.5-6-13.5-13.5-13.5S387 109.5 387 117z"/><path fill="currentColor" d="M54 180c-29.8 0-54-24.2-54-54L0 90C0 40.3 40.3 0 90 0L378 0c49.7 0 90 40.3 90 90l0 36c0 29.8-24.2 54-54 54s-54-24.2-54-54l0-9c0-5-4-9-9-9l-234 0c-5 0-9 4-9 9l0 9c0 29.8-24.2 54-54 54zM27 126c0 7.5 6 13.5 13.5 13.5S54 133.5 54 126l0-36c0-19.9 16.1-36 36-36l288 0c7.5 0 13.5-6 13.5-13.5S385.5 27 378 27L90 27C55.2 27 27 55.2 27 90l0 36zm360 0c0 7.5 6 13.5 13.5 13.5s13.5-6 13.5-13.5l0-9c0-7.5-6-13.5-13.5-13.5S387 109.5 387 117l0 9zM339.8 380.2c21.1 21.1 55.3 21.1 76.4 0s21.1-55.3 0-76.4l-144-144c-21.1-21.1-55.3-21.1-76.4 0l-144 144c-21.1 21.1-21.1 55.3 0 76.4s55.3 21.1 76.4 0l36.5-36.5c5.7-5.7 15.4-1.7 15.4 6.4L180 486c0 29.8 24.2 54 54 54s54-24.2 54-54l0-135.9c0-8 9.7-12 15.4-6.4l36.5 36.5zM63 342c0-6.9 2.6-13.8 7.9-19.1l144-144c10.5-10.5 27.6-10.5 38.2 0 5.3 5.3 5.3 13.8 0 19.1s-13.8 5.3-19.1 0L90 342c0 7.5-6 13.5-13.5 13.5S63 349.5 63 342zM207 486l0-135.9c0-7.5 6-13.5 13.5-13.5s13.5 6 13.5 13.5L234 486c0 7.5-6 13.5-13.5 13.5S207 493.5 207 486z"/></svg>