<svg xmlns="http://www.w3.org/2000/svg" viewBox="0 0 504 540"><!--! Font Awesome Pro 7.1.0 by @fontawesome - https://fontawesome.com License - https://fontawesome.com/license (Commercial License) Copyright 2025 Fonticons, Inc. --><path opacity=".4" fill="currentColor" d="M27 216l0 72c0 7.5 6 13.5 13.5 13.5S54 295.5 54 288c0-24 0-48 0-72 20.4-7.1 54-29.4 54-72l0-36c0-29.8 24.2-54 54-54l180 0c7.5 0 13.5-6 13.5-13.5S349.5 27 342 27L162 27c-44.7 0-81 36.3-81 81l0 36c0 26-20.6 41.2-35.8 46.5-10.7 3.7-18.2 13.8-18.2 25.5zM81 360l0 126c0 7.5 6 13.5 13.5 13.5s13.5-6 13.5-13.5l0-126c0-7.5-6-13.5-13.5-13.5S81 352.5 81 360zm85.5 58.5c0 7.5 6 13.5 13.5 13.5 39 0 72.2-24.8 84.7-59.5 2.5-7-1.1-14.7-8.1-17.3s-14.7 1.1-17.3 8.1c-8.7 24.3-32 41.7-59.3 41.7-7.5 0-13.5 6-13.5 13.5zm36-144c0 7.5 6 13.5 13.5 13.5l71.9 0c7.5 0 13.5-6 13.5-13.5S295.4 261 288 261L216 261c-7.5 0-13.5 6-13.5 13.5zm108 144c0 7.5 6 13.5 13.5 13.5 49.7 0 90-40.3 90-90 0-7.5-6-13.5-13.5-13.5S387 334.5 387 342c0 34.8-28.2 63-63 63-7.5 0-13.5 6-13.5 13.5zm25.2-143.6c3.1 6.8 11.1 9.8 17.9 6.8 25-11.3 42.4-36.4 42.4-65.7l0-90c0-7.5-6-13.5-13.5-13.5S369 118.5 369 126l0 90c0 18.2-10.9 34-26.5 41-6.8 3.1-9.8 11.1-6.8 17.9z"/><path fill="currentColor" d="M54 108C54 48.4 102.4 0 162 0L342 0c59.6 0 108 48.4 108 108l0 36c0 9.9 8.3 17.7 17.7 21 21.1 7.3 36.3 27.4 36.3 51l0 72c0 23.6-15.2 43.7-36.3 51-9.4 3.3-17.7 11-17.7 21l0 126c0 29.8-24.2 54-54 54s-54-24.2-54-54c0-9.9-8.1-18-18-18l-144 0c-9.9 0-18 8.1-18 18 0 29.8-24.2 54-54 54s-54-24.2-54-54l0-126c0-9.9-8.3-17.7-17.7-21-21.1-7.3-36.3-27.4-36.3-51l0-72c0-23.6 15.2-43.7 36.3-51 9.4-3.3 17.7-11 17.7-21l0-36zM216 342a36 36 0 1 0 -72 0 36 36 0 1 0 72 0zm108 36a36 36 0 1 0 0-72 36 36 0 1 0 0 72zm0-270l-144 0c-9.9 0-18 8.1-18 18l0 90c0 9.9 8.1 18 18 18l144 0c9.9 0 18-8.1 18-18l0-90c0-9.9-8.1-18-18-18zm-216 0c0-29.8 24.2-54 54-54l180 0c7.5 0 13.5-6 13.5-13.5S349.5 27 342 27L162 27c-44.7 0-81 36.3-81 81l0 36c0 26-20.6 41.2-35.8 46.5-10.7 3.7-18.2 13.8-18.2 25.5l0 72c0 7.5 6 13.5 13.5 13.5S54 295.5 54 288l0-72c20.4-7.1 54-29.5 54-72l0-36zm288 18c0-7.5-6-13.5-13.5-13.5S369 118.5 369 126l0 90c0 18.2-10.9 34-26.5 41-6.8 3.1-9.8 11.1-6.8 17.9s11.1 9.8 17.9 6.8c25-11.3 42.4-36.4 42.4-65.7l0-90zM216 261c-7.5 0-13.5 6-13.5 13.5s6 13.5 13.5 13.5l71.9 0c7.5 0 13.5-6 13.5-13.5S295.4 261 288 261L216 261zm198 81c0-7.5-6-13.5-13.5-13.5S387 334.5 387 342c0 34.8-28.2 63-63 63-7.5 0-13.5 6-13.5 13.5s6 13.5 13.5 13.5c49.7 0 90-40.3 90-90zM108 360c0-7.5-6-13.5-13.5-13.5S81 352.5 81 360l0 126c0 7.5 6 13.5 13.5 13.5s13.5-6 13.5-13.5l0-126zm156.7 12.5c2.5-7-1.1-14.7-8.1-17.3s-14.7 1.1-17.3 8.1c-8.7 24.3-32 41.7-59.3 41.7-7.5 0-13.5 6-13.5 13.5s6 13.5 13.5 13.5c39 0 72.2-24.8 84.7-59.5z"/></svg>