<svg xmlns="http://www.w3.org/2000/svg" viewBox="0 0 468 540"><!--! Font Awesome Pro 7.1.0 by @fontawesome - https://fontawesome.com License - https://fontawesome.com/license (Commercial License) Copyright 2025 Fonticons, Inc. --><path opacity=".4" fill="currentColor" d="M27 126c0-14.9 12.1-27 27-27 24.9 0 45-20.1 45-45 0-14.9 12.1-27 27-27 7.5 0 13.5 6 13.5 13.5S133.5 54 126 54c0 39.8-32.2 72-72 72 0 7.5-6 13.5-13.5 13.5S27 133.5 27 126zm0 144c0-14.9 12.1-27 27-27l360 0c7.5 0 13.5 6 13.5 13.5S421.5 270 414 270l-360 0 0 180c0 7.5-6 13.5-13.5 13.5S27 457.5 27 450l0-180zM184.5 112.5c0-7.5 6-13.5 13.5-13.5l72 0c24.9 0 45-20.1 45-45 0-14.9 12.1-27 27-27 7.5 0 13.5 6 13.5 13.5S349.5 54 342 54c0 39.8-32.2 72-72 72l-72 0c-7.5 0-13.5-6-13.5-13.5z"/><path fill="currentColor" d="M180 54c0-29.8-24.2-54-54-54S72 24.2 72 54c0 9.9-8.1 18-18 18-29.8 0-54 24.2-54 54s24.2 54 54 54l360 0c29.8 0 54-24.2 54-54s-24.2-54-54-54c-9.9 0-18-8.1-18-18 0-29.8-24.2-54-54-54s-54 24.2-54 54c0 9.9-8.1 18-18 18l-72 0c-9.9 0-18-8.1-18-18zM126 27c7.5 0 13.5 6 13.5 13.5S133.5 54 126 54c0 39.8-32.2 72-72 72 0 7.5-6 13.5-13.5 13.5S27 133.5 27 126c0-14.9 12.1-27 27-27 24.9 0 45-20.1 45-45 0-14.9 12.1-27 27-27zm216 0c7.5 0 13.5 6 13.5 13.5S349.5 54 342 54c0 39.8-32.2 72-72 72l-72 0c-7.5 0-13.5-6-13.5-13.5S190.5 99 198 99l72 0c24.9 0 45-20.1 45-45 0-14.9 12.1-27 27-27zM0 270c0-29.8 24.2-54 54-54l360 0c29.8 0 54 24.2 54 54l0 180c0 29.8-24.2 54-54 54L54 504c-29.8 0-54-24.2-54-54L0 270zm54-27c-14.9 0-27 12.1-27 27l0 180c0 7.5 6 13.5 13.5 13.5S54 457.5 54 450l0-180 360 0c7.5 0 13.5-6 13.5-13.5S421.5 243 414 243L54 243z"/></svg>