<svg xmlns="http://www.w3.org/2000/svg" viewBox="0 0 540 540"><!--! Font Awesome Pro 7.1.0 by @fontawesome - https://fontawesome.com License - https://fontawesome.com/license (Commercial License) Copyright 2025 Fonticons, Inc. --><path opacity=".4" fill="currentColor" d="M27 270c0 7.5 6 13.5 13.5 13.5S54 277.5 54 270c0-119.3 96.7-216 216-216 7.5 0 13.5-6 13.5-13.5S277.5 27 270 27C135.8 27 27 135.8 27 270zM138.3 456.3c-1.6 7.3 2.9 14.5 10.2 16.1s14.5-2.9 16.1-10.2c4.3-19.2 13.9-37.5 29-52.5 9.9-9.9 21.2-17.5 33.2-22.7 25-10.9 35.8-33.5 38.3-51 1-7.4-4.1-14.2-11.5-15.3s-14.2 4.1-15.3 11.5c-1.5 10.9-8.2 23.9-22.4 30.1-15.1 6.5-29.2 16-41.5 28.4-18.8 18.8-30.8 41.7-36.2 65.7zM207 252c0 7.5 6 13.5 13.5 13.5s13.5-6 13.5-13.5c0-19.9 16.1-36 36-36 7.5 0 13.5-6 13.5-13.5S277.5 189 270 189c-34.8 0-63 28.2-63 63zm246 65.3c-1.9 7.2 2.5 14.6 9.7 16.4s14.6-2.5 16.4-9.7c4.4-17.3 6.8-35.4 6.8-54 0-7.5-6-13.5-13.5-13.5S459 262.5 459 270c0 16.4-2.1 32.2-6 47.3z"/><path fill="currentColor" d="M270 108c-89.5 0-162 72.5-162 162 0 14.1 1.8 27.6 5.1 40.5 7.4 28.9-10 58.3-38.8 65.8s-58.3-10-65.8-38.8C2.9 315.8 0 293.2 0 270 0 120.9 120.9 0 270 0S540 120.9 540 270c0 23.2-2.9 45.8-8.5 67.5-7.4 28.9-36.9 46.3-65.8 38.8s-46.3-36.9-38.8-65.8c3.3-12.9 5.1-26.5 5.1-40.5 0-89.5-72.5-162-162-162zM54 270c0-119.3 96.7-216 216-216 7.5 0 13.5-6 13.5-13.5S277.5 27 270 27c-134.2 0-243 108.8-243 243 0 7.5 6 13.5 13.5 13.5S54 277.5 54 270zm432 0c0-7.5-6-13.5-13.5-13.5S459 262.5 459 270c0 16.4-2.1 32.2-6 47.3-1.9 7.2 2.5 14.6 9.7 16.4s14.6-2.5 16.4-9.7c4.4-17.3 6.8-35.4 6.8-54zM334.7 337.4c-7.3-3.2-8.8-14.4-3-19.9 17.4-16.4 28.3-39.7 28.3-65.5 0-49.7-40.3-90-90-90s-90 40.3-90 90c0 25.8 10.9 49.1 28.3 65.5 5.8 5.5 4.3 16.7-3 19.9-18.1 7.9-35.1 19.2-49.9 34-22.5 22.5-37 50-43.5 78.9-5 22.1 6.4 44.2 26.2 55.3 39 21.9 84 34.4 131.9 34.4s92.9-12.5 131.9-34.4c19.7-11.1 31.1-33.2 26.2-55.3-6.5-28.9-21-56.4-43.5-78.9-14.8-14.8-31.8-26.1-49.9-34zM234 252c0 7.5-6 13.5-13.5 13.5S207 259.5 207 252c0-34.8 28.2-63 63-63 7.5 0 13.5 6 13.5 13.5S277.5 216 270 216c-19.9 0-36 16.1-36 36zm31.2 83.9c-2.5 17.5-13.4 40.1-38.3 51-12 5.2-23.3 12.7-33.2 22.7-15.1 15.1-24.7 33.3-29 52.5-1.6 7.3-8.9 11.8-16.1 10.2s-11.8-8.9-10.2-16.1c5.4-24.1 17.5-46.9 36.2-65.7 12.4-12.4 26.5-21.8 41.5-28.4 14.2-6.2 20.8-19.2 22.4-30.1 1.1-7.4 7.9-12.5 15.3-11.5s12.5 7.9 11.5 15.3z"/></svg>