<svg xmlns="http://www.w3.org/2000/svg" viewBox="0 0 540 540"><!--! Font Awesome Pro 7.1.0 by @fontawesome - https://fontawesome.com License - https://fontawesome.com/license (Commercial License) Copyright 2025 Fonticons, Inc. --><path opacity=".4" fill="currentColor" d="M27 270c0 7.5 6 13.5 13.5 13.5S54 277.5 54 270c0-119.3 96.7-216 216-216 7.5 0 13.5-6 13.5-13.5S277.5 27 270 27C135.8 27 27 135.8 27 270zM279 472.8c.8 7.4 7.5 12.8 14.9 11.9 108.1-11.9 192.1-103.5 192.1-214.7 0-7.5-6-13.5-13.5-13.5S459 262.5 459 270c0 97.3-73.5 177.4-168.1 187.9-7.4 .8-12.8 7.5-11.9 14.9z"/><path fill="currentColor" d="M540 270a270 270 0 1 1 -540 0 270 270 0 1 1 540 0zM270 126l0 288c0 9.9 8.1 18.1 18 17 81-8.9 144-77.6 144-161S369 117.9 288 109c-9.9-1.1-18 7.1-18 17zM54 270c0-119.3 96.7-216 216-216 7.5 0 13.5-6 13.5-13.5S277.5 27 270 27c-134.2 0-243 108.8-243 243 0 7.5 6 13.5 13.5 13.5S54 277.5 54 270zm432 0c0-7.5-6-13.5-13.5-13.5S459 262.5 459 270c0 97.3-73.5 177.4-168.1 187.9-7.4 .8-12.8 7.5-11.9 14.9s7.5 12.8 14.9 11.9C402 472.8 486 381.2 486 270z"/></svg>