<svg xmlns="http://www.w3.org/2000/svg" viewBox="0 0 576 540"><!--! Font Awesome Pro 7.1.0 by @fontawesome - https://fontawesome.com License - https://fontawesome.com/license (Commercial License) Copyright 2025 Fonticons, Inc. --><path opacity=".4" fill="currentColor" d="M34.9 250.9c-5.3 5.3-5.3 13.8 0 19.1s13.8 5.3 19.1 0l72-72c5.3-5.3 5.3-13.8 0-19.1s-13.8-5.3-19.1 0l-72 72zM225.4 463.2c-1.3 7.3 3.5 14.4 10.9 15.7s14.4-3.5 15.7-10.9L324 72c7.3 1.3 14.4-3.5 15.7-10.9s-3.5-14.4-10.9-15.7c-14.7-2.7-28.7 7.1-31.4 21.7-24 132-48 264-72 396zM423 198c0 7.5 6 13.5 13.5 13.5s13.5-6 13.5-13.5c5.3 5.3 13.8 5.3 19.1 0s5.3-13.8 0-19.1c-10.5-10.5-27.6-10.5-38.2 0-5.3 5.3-7.9 12.2-7.9 19.1zm7.9 124.9c-5.3 5.3-5.3 13.8 0 19.1s13.8 5.3 19.1 0l21.1-21.1c14.1-14.1 21.1-32.5 21.1-50.9 0-7.5-6-13.5-13.5-13.5s-13.5 6-13.5 13.5c0 11.5-4.4 23-13.2 31.8-7 7-14.1 14.1-21.1 21.1z"/><path fill="currentColor" d="M333.7 18.9c29.3 5.3 48.8 33.4 43.5 62.8l-72 396c-5.3 29.3-33.4 48.8-62.8 43.5s-48.8-33.4-43.5-62.8l72-396c5.3-29.3 33.4-48.8 62.8-43.5zm-4.8 26.6c-14.7-2.7-28.7 7.1-31.4 21.7l-72 396c-1.3 7.3 3.5 14.4 10.9 15.7s14.4-3.5 15.7-10.9L324 72c7.3 1.3 14.4-3.5 15.7-10.9s-3.5-14.4-10.9-15.7zM164.2 236.2c21.1-21.1 21.1-55.3 0-76.4s-55.3-21.1-76.4 0l-72 72c-21.1 21.1-21.1 55.3 0 76.4l72 72c21.1 21.1 55.3 21.1 76.4 0s21.1-55.3 0-76.4l-21.1-21.1c-7-7-7-18.4 0-25.5l21.1-21.1zM126 198L54 270c-5.3 5.3-13.8 5.3-19.1 0s-5.3-13.8 0-19.1l72-72c5.3-5.3 13.8-5.3 19.1 0s5.3 13.8 0 19.1zm285.8 38.2c-21.1-21.1-21.1-55.3 0-76.4s55.3-21.1 76.4 0l72 72c21.1 21.1 21.1 55.3 0 76.4l-72 72c-21.1 21.1-55.3 21.1-76.4 0s-21.1-55.3 0-76.4l21.1-21.1c7-7 7-18.4 0-25.5l-21.1-21.1zm57.3-57.3c-10.5-10.5-27.6-10.5-38.2 0-5.3 5.3-7.9 12.2-7.9 19.1 0 7.5 6 13.5 13.5 13.5s13.5-6 13.5-13.5c5.3 5.3 13.8 5.3 19.1 0s5.3-13.8 0-19.1zM492.2 270c0-7.5-6-13.5-13.5-13.5s-13.5 6-13.5 13.5c0 11.5-4.4 23-13.2 31.8l-21.1 21.1c-5.3 5.3-5.3 13.8 0 19.1s13.8 5.3 19.1 0l21.1-21.1c14.1-14.1 21.1-32.5 21.1-50.9z"/></svg>