<svg xmlns="http://www.w3.org/2000/svg" viewBox="0 0 540 540"><!--! Font Awesome Pro 7.1.0 by @fontawesome - https://fontawesome.com License - https://fontawesome.com/license (Commercial License) Copyright 2025 Fonticons, Inc. --><path opacity=".4" fill="currentColor" d="M27 198c0 7.5 6 13.5 13.5 13.5S54 205.5 54 198l72 0c39.8 0 72-32.2 72-72l0-72c7.5 0 13.5-6 13.5-13.5S205.5 27 198 27c-14.9 0-27 12.1-27 27l0 72c0 24.9-20.1 45-45 45l-72 0c-14.9 0-27 12.1-27 27zm0 144c0 7.5 6 13.5 13.5 13.5S54 349.5 54 342l144 0c7.5 0 13.5-6 13.5-13.5S205.5 315 198 315L54 315c-14.9 0-27 12.1-27 27zm144 72l0 72c0 7.5 6 13.5 13.5 13.5s13.5-6 13.5-13.5l0-72c0-7.5-6-13.5-13.5-13.5S171 406.5 171 414zM315 54l0 144c0 7.5 6 13.5 13.5 13.5s13.5-6 13.5-13.5l0-144c7.5 0 13.5-6 13.5-13.5S349.5 27 342 27c-14.9 0-27 12.1-27 27zm0 288l0 144c0 7.5 6 13.5 13.5 13.5s13.5-6 13.5-13.5l0-144 144 0c7.5 0 13.5-6 13.5-13.5S493.5 315 486 315l-144 0c-14.9 0-27 12.1-27 27zm85.5-157.5c0 7.5 6 13.5 13.5 13.5l72 0c7.5 0 13.5-6 13.5-13.5S493.5 171 486 171l-72 0c-7.5 0-13.5 6-13.5 13.5z"/><path fill="currentColor" d="M252 198c0 29.8-24.2 54-54 54L54 252c-29.8 0-54-24.2-54-54s24.2-54 54-54l72 0c9.9 0 18-8.1 18-18l0-72c0-29.8 24.2-54 54-54s54 24.2 54 54l0 144zM198 27c-14.9 0-27 12.1-27 27l0 72c0 24.9-20.1 45-45 45l-72 0c-14.9 0-27 12.1-27 27 0 7.5 6 13.5 13.5 13.5S54 205.5 54 198l72 0c39.8 0 72-32.2 72-72l0-72c7.5 0 13.5-6 13.5-13.5S205.5 27 198 27zm0 261c29.8 0 54 24.2 54 54l0 144c0 29.8-24.2 54-54 54s-54-24.2-54-54l0-72c0-9.9-8.1-18-18-18l-72 0c-29.8 0-54-24.2-54-54s24.2-54 54-54l144 0zM54 315c-14.9 0-27 12.1-27 27 0 7.5 6 13.5 13.5 13.5S54 349.5 54 342l144 0c7.5 0 13.5-6 13.5-13.5S205.5 315 198 315L54 315zm144 99c0-7.5-6-13.5-13.5-13.5S171 406.5 171 414l0 72c0 7.5 6 13.5 13.5 13.5s13.5-6 13.5-13.5l0-72zM342 288c-29.8 0-54 24.2-54 54l0 144c0 29.8 24.2 54 54 54s54-24.2 54-54l0-72c0-9.9 8.1-18 18-18l72 0c29.8 0 54-24.2 54-54s-24.2-54-54-54l-144 0zm0 27l144 0c7.5 0 13.5 6 13.5 13.5S493.5 342 486 342l-144 0 0 144c0 7.5-6 13.5-13.5 13.5S315 493.5 315 486l0-144c0-14.9 12.1-27 27-27zm0-63c-29.8 0-54-24.2-54-54l0-144c0-29.8 24.2-54 54-54s54 24.2 54 54l0 72c0 9.9 8.1 18 18 18l72 0c29.8 0 54 24.2 54 54s-24.2 54-54 54l-144 0zm0-225c-14.9 0-27 12.1-27 27l0 144c0 7.5 6 13.5 13.5 13.5s13.5-6 13.5-13.5l0-144c7.5 0 13.5-6 13.5-13.5S349.5 27 342 27zm72 144c-7.5 0-13.5 6-13.5 13.5s6 13.5 13.5 13.5l72 0c7.5 0 13.5-6 13.5-13.5S493.5 171 486 171l-72 0z"/></svg>