<svg xmlns="http://www.w3.org/2000/svg" viewBox="0 0 540 540"><!--! Font Awesome Pro 7.1.0 by @fontawesome - https://fontawesome.com License - https://fontawesome.com/license (Commercial License) Copyright 2025 Fonticons, Inc. --><path opacity=".4" fill="currentColor" d="M27 270c0 7.5 6 13.5 13.5 13.5S54 277.5 54 270c0-119.3 96.7-216 216-216 7.5 0 13.5-6 13.5-13.5S277.5 27 270 27C135.8 27 27 135.8 27 270zM256.5 382.5c0 7.5 6 13.5 13.5 13.5 69.6 0 126-56.4 126-126 0-7.5-6-13.5-13.5-13.5S369 262.5 369 270c0 54.7-44.3 99-99 99-7.5 0-13.5 6-13.5 13.5z"/><path fill="currentColor" d="M540 270a270 270 0 1 1 -540 0 270 270 0 1 1 540 0zM270 198a72 72 0 1 0 0 144 72 72 0 1 0 0-144zM54 270c0-119.3 96.7-216 216-216 7.5 0 13.5-6 13.5-13.5S277.5 27 270 27c-134.2 0-243 108.8-243 243 0 7.5 6 13.5 13.5 13.5S54 277.5 54 270zm342 0c0-7.5-6-13.5-13.5-13.5S369 262.5 369 270c0 54.7-44.3 99-99 99-7.5 0-13.5 6-13.5 13.5s6 13.5 13.5 13.5c69.6 0 126-56.4 126-126z"/></svg>