<svg xmlns="http://www.w3.org/2000/svg" viewBox="0 0 540 540"><!--! Font Awesome Pro 7.1.0 by @fontawesome - https://fontawesome.com License - https://fontawesome.com/license (Commercial License) Copyright 2025 Fonticons, Inc. --><path opacity=".4" fill="currentColor" d="M28.2 249.3c-.6 7.4 4.9 14 12.3 14.6s14-4.9 14.6-12.3c2.8-32.8 13.3-65.1 30.3-93.3 3.1-5.2 6.2-6.5 9.5-7 7.4-1.2 12.4-8.1 11.3-15.4s-8.1-12.4-15.4-11.3c-11.1 1.7-21.2 7.6-28.5 19.8-19.1 31.7-30.9 68-34.1 104.9zM76.6 395.9c-1.2 7.4 3.8 14.3 11.2 15.5s14.3-3.8 15.5-11.2c.7-4.6 4-11.8 11.7-18.6 15.3-13.5 22-31.5 21.4-49-.2-7.5-6.4-13.3-13.9-13.1-3.7 .1-7.1 1.7-9.4 4.2-1.2 1.3-2.1 2.7-2.8 4.4-.3 .8-.6 1.7-.7 2.6s-.2 1.8-.2 2.7c.3 10-3.4 20.1-12.3 28-11.7 10.3-18.6 22.9-20.5 34.5zm72.8-242c2.1 7.1 9.7 11.2 16.8 9.1 29.4-8.8 52-39.1 44-74.6-2.2-10-.7-17.7 1.5-21.9 1.5-3 3.8-5.5 9.6-6.9 16-3.7 32.5-5.6 49-5.6 7.5 0 13.5-6 13.5-13.5S277.8 27 270.4 27c-18.5 0-37.1 2.1-55.1 6.3-13.8 3.2-22.6 11-27.6 21-5.3 10.5-7.1 24.8-3.7 40 4.5 20.1-8 37.7-25.4 42.9-7.1 2.1-11.2 9.7-9.1 16.8zM225.4 270c0 7.5 6 13.5 13.5 13.5s13.5-6 13.5-13.5c0-9.9 8.1-18 18-18 7.5 0 13.5-6 13.5-13.5s-6-13.5-13.5-13.5c-24.9 0-45 20.1-45 45zm31.5 148.5c0 7.5 6 13.5 13.5 13.5 89.5 0 162-72.5 162-162 0-7.5-6-13.5-13.5-13.5s-13.5 6-13.5 13.5c0 74.6-60.4 135-135 135-7.5 0-13.5 6-13.5 13.5zm126-265.4c.6 7.4 7.1 13 14.6 12.3 9.2-.8 18.4-3.6 27.1-8.7 8.8-5.2 16.6-6.1 21.3-5.4 7.4 1.2 14.3-3.9 15.4-11.3s-3.9-14.3-11.3-15.4c-11.7-1.8-25.8 .9-39.2 8.8-5.2 3.1-10.5 4.6-15.5 5.1-7.4 .6-13 7.1-12.3 14.6z"/><path fill="currentColor" d="M197.6 270a72.4 72.4 0 1 1 144.7 0 72.4 72.4 0 1 1 -144.7 0zm72.7-18c7.5 0 13.5-6 13.5-13.5s-6-13.5-13.5-13.5c-24.9 0-45 20.1-45 45 0 7.5 6 13.5 13.5 13.5s13.5-6 13.5-13.5c0-9.9 8.1-18 18-18zm0-252c-21.1 0-41.6 2.4-61.2 7-43.7 10.1-60.7 52.4-51.6 93.2 1.8 7.9-6.9 14.2-13.8 10-36-21.3-81.4-18.1-104.6 20.3-10.4 17.3-19 36.1-25.6 56.1S3 226.8 1.3 247c-3.9 44.7 31 73.9 72.6 77.9 8.1 .8 11.4 10.9 5.3 16.3-31.4 27.7-42.4 71.8-13 105.7 13.2 15.3 28.4 29.3 45.4 41.6s35 22.5 53.6 30.3c41.3 17.5 79.9-6.7 96.5-45.1 3.2-7.4 13.9-7.4 17.1 0 16.6 38.4 55.2 62.6 96.5 45.1 18.6-7.9 36.6-18 53.6-30.3s32.2-26.4 45.4-41.6c29.4-33.9 18.4-78-13-105.7-6.1-5.4-2.8-15.5 5.3-16.3 41.6-3.9 76.5-33.2 72.6-77.9-1.7-20.1-5.8-40.4-12.3-60.4s-15.1-38.8-25.6-56.1c-23.1-38.4-68.6-41.6-104.6-20.3-7 4.1-15.6-2.1-13.8-10 9.1-40.8-7.9-83.1-51.6-93.2-19.7-4.6-40.2-7-61.2-7zM161.6 270a108.4 108.4 0 1 1 216.7 0 108.4 108.4 0 1 1 -216.7 0zm270.7 0c0 89.5-72.5 162-162 162-7.5 0-13.5-6-13.5-13.5s6-13.5 13.5-13.5c74.6 0 135-60.4 135-135 0-7.5 6-13.5 13.5-13.5s13.5 6 13.5 13.5zM270.4 54c-16.5 0-33 1.9-49 5.6-5.9 1.4-8.1 3.9-9.6 6.9-2.1 4.2-3.7 11.9-1.5 21.9 8 35.5-14.6 65.9-44 74.6-7.1 2.1-14.7-1.9-16.8-9.1s1.9-14.7 9.1-16.8c17.4-5.2 29.9-22.7 25.4-42.9-3.4-15.2-1.6-29.5 3.7-40 5.1-10 13.8-17.8 27.6-21 18.1-4.2 36.6-6.3 55.1-6.3 7.5 0 13.5 6 13.5 13.5S277.8 54 270.4 54zm175.4 97.3c-4.6-.7-12.4 .2-21.3 5.4-8.7 5.1-17.9 8-27.1 8.7-7.4 .6-14-4.9-14.6-12.3s4.9-14 12.3-14.6c5.1-.4 10.3-2 15.5-5.1 13.4-8 27.5-10.6 39.2-8.8 7.4 1.2 12.4 8.1 11.3 15.4s-8.1 12.4-15.4 11.3zM106.2 135.9c1.2 7.4-3.9 14.3-11.3 15.4-3.4 .5-6.4 1.9-9.5 7-17 28.2-27.5 60.5-30.3 93.3-.6 7.4-7.2 12.9-14.6 12.3s-12.9-7.2-12.3-14.6c3.2-36.9 15-73.1 34.1-104.9 7.3-12.2 17.4-18.1 28.5-19.8 7.4-1.2 14.3 3.9 15.4 11.3zm16.3 183.6c7.5-.2 13.7 5.6 13.9 13.1 .5 17.5-6.2 35.6-21.4 49-7.7 6.8-10.9 13.9-11.7 18.6-1.2 7.4-8.1 12.4-15.5 11.2s-12.4-8.1-11.2-15.5c1.9-11.7 8.8-24.2 20.5-34.5 8.9-7.8 12.6-18 12.3-28-.2-7.5 5.6-13.7 13.1-13.9z"/></svg>