<svg xmlns="http://www.w3.org/2000/svg" viewBox="0 0 468 540"><!--! Font Awesome Pro 7.1.0 by @fontawesome - https://fontawesome.com License - https://fontawesome.com/license (Commercial License) Copyright 2025 Fonticons, Inc. --><path opacity=".4" fill="currentColor" d="M45 72l0 396c0 7.5 6 13.5 13.5 13.5S72 475.5 72 468L72 72c7.5 0 13.5-6 13.5-13.5S79.5 45 72 45C57.1 45 45 57.1 45 72zm85.5 40.5c0 7.5 6 13.5 13.5 13.5l270 0c7.5 0 13.5-6 13.5-13.5S421.5 99 414 99L144 99c-7.5 0-13.5 6-13.5 13.5z"/><path fill="currentColor" d="M18 468c0 29.8 24.2 54 54 54s54-24.2 54-54l0-18c0-9.9 8.1-18 18-18l270 0c18.7 0 36.1-9.7 45.9-25.6s10.7-35.8 2.4-52.5L415.4 260c-2.5-5.1-2.5-11 0-16.1l46.9-93.8c8.4-16.7 7.5-36.6-2.4-52.5S432.7 72 414 72L144 72c-9.9 0-17.7-8.3-21-17.7-7.3-21.1-27.4-36.3-51-36.3-29.8 0-54 24.2-54 54l0 396zM72 45c7.5 0 13.5 6 13.5 13.5S79.5 72 72 72l0 396c0 7.5-6 13.5-13.5 13.5S45 475.5 45 468L45 72c0-14.9 12.1-27 27-27zm72 54l270 0c7.5 0 13.5 6 13.5 13.5S421.5 126 414 126l-270 0c-7.5 0-13.5-6-13.5-13.5S136.5 99 144 99z"/></svg>