<svg xmlns="http://www.w3.org/2000/svg" viewBox="0 0 540 540"><!--! Font Awesome Pro 7.1.0 by @fontawesome - https://fontawesome.com License - https://fontawesome.com/license (Commercial License) Copyright 2025 Fonticons, Inc. --><path opacity=".4" fill="currentColor" d="M27 270c0 7.5 6 13.5 13.5 13.5S54 277.5 54 270c0-104.5 74.2-191.7 172.8-211.7 7.3-1.5 12-8.6 10.5-15.9s-8.6-12-15.9-10.5C110.5 54.4 27 152.4 27 270zm391.5 58.5c0 7.5 6 13.5 13.5 13.5 14.8 0 29.2-1.5 43.2-4.3 5 5.6 13.5 6.1 19.1 1.1s6.1-13.5 1.1-19.1c-6.4-7.2-16.1-10.4-25.6-8.5-12.2 2.5-24.8 3.8-37.8 3.8-7.5 0-13.5 6-13.5 13.5z"/><path fill="currentColor" d="M267.2 22.5c12.8 14.4 16.9 34.5 10.9 52.8-5.2 15.9-8.1 33-8.1 50.8 0 89.5 72.5 162 162 162 11.2 0 22-1.1 32.4-3.2 18.9-3.8 38.3 2.7 51.1 17.1s16.9 34.5 10.9 52.8C491 462.2 389.6 540 270 540 120.9 540 0 419.1 0 270 0 139.3 92.8 30.4 216.1 5.4 234.9 1.6 254.4 8.1 267.2 22.5zM226.8 58.3c7.3-1.5 12-8.6 10.5-15.9s-8.6-12-15.9-10.5C110.5 54.4 27 152.4 27 270 27 277.5 33 283.5 40.5 283.5S54 277.5 54 270C54 165.5 128.2 78.3 226.8 58.3zM495.4 319.8c-6.4-7.2-16.1-10.4-25.6-8.5-12.2 2.5-24.8 3.8-37.8 3.8-7.5 0-13.5 6-13.5 13.5s6 13.5 13.5 13.5c14.8 0 29.2-1.5 43.2-4.3 5 5.6 13.5 6.1 19.1 1.1s6.1-13.5 1.1-19.1z"/></svg>