<svg xmlns="http://www.w3.org/2000/svg" viewBox="0 0 468 540"><!--! Font Awesome Pro 7.1.0 by @fontawesome - https://fontawesome.com License - https://fontawesome.com/license (Commercial License) Copyright 2025 Fonticons, Inc. --><path opacity=".4" fill="currentColor" d="M27 90l0 360c0 7.5 6 13.5 13.5 13.5S54 457.5 54 450l0-360 90 0c7.5 0 13.5-6 13.5-13.5S151.5 63 144 63L54 63C39.1 63 27 75.1 27 90zm270 0l0 360c0 7.5 6 13.5 13.5 13.5s13.5-6 13.5-13.5l0-360 90 0c7.5 0 13.5-6 13.5-13.5S421.5 63 414 63l-90 0c-14.9 0-27 12.1-27 27z"/><path fill="currentColor" d="M0 90C0 60.2 24.2 36 54 36l90 0c29.8 0 54 24.2 54 54l0 360c0 29.8-24.2 54-54 54l-90 0c-29.8 0-54-24.2-54-54L0 90zM54 450l0-360 90 0c7.5 0 13.5-6 13.5-13.5S151.5 63 144 63L54 63C39.1 63 27 75.1 27 90l0 360c0 7.5 6 13.5 13.5 13.5S54 457.5 54 450zM270 90c0-29.8 24.2-54 54-54l90 0c29.8 0 54 24.2 54 54l0 360c0 29.8-24.2 54-54 54l-90 0c-29.8 0-54-24.2-54-54l0-360zm54-27c-14.9 0-27 12.1-27 27l0 360c0 7.5 6 13.5 13.5 13.5s13.5-6 13.5-13.5l0-360 90 0c7.5 0 13.5-6 13.5-13.5S421.5 63 414 63l-90 0z"/></svg>