<svg xmlns="http://www.w3.org/2000/svg" viewBox="0 0 540 540"><!--! Font Awesome Pro 7.1.0 by @fontawesome - https://fontawesome.com License - https://fontawesome.com/license (Commercial License) Copyright 2025 Fonticons, Inc. --><path opacity=".4" fill="currentColor" d="M27 414c0 7.5 6 13.5 13.5 13.5S54 421.5 54 414c0-19.9 16.1-36 36-36 7.5 0 13.5-6 13.5-13.5S97.5 351 90 351c-34.8 0-63 28.2-63 63zM153 241.6c0 7.5 6 13.5 13.5 13.5s13.5-6 13.5-13.5c0-4.9 1.7-9.7 4.7-13.5l55.2-69c7.6-9.5 19.2-15.1 31.4-15.1 7.5 0 13.5-6 13.5-13.5s-6-13.5-13.5-13.5c-20.4 0-39.7 9.3-52.5 25.2l-55.2 69c-6.9 8.6-10.7 19.3-10.7 30.4zm90 117l0 55.4c0 7.5 6 13.5 13.5 13.5s13.5-6 13.5-13.5l0-55.4c0-7.5-6-13.5-13.5-13.5s-13.5 6-13.5 13.5zM351 54c0 7.5 6 13.5 13.5 13.5S378 61.5 378 54c7.5 0 13.5-6 13.5-13.5S385.5 27 378 27c-14.9 0-27 12.1-27 27zm25.3 148.5c0 7.5 6 13.5 13.5 13.5l24.2 0c7.5 0 13.5-6 13.5-13.5S421.5 189 414 189l-24.2 0c-7.5 0-13.5 6-13.5 13.5zM387 414c0 7.5 6 13.5 13.5 13.5s13.5-6 13.5-13.5c0-19.9 16.1-36 36-36 7.5 0 13.5-6 13.5-13.5S457.5 351 450 351c-34.8 0-63 28.2-63 63z"/><path fill="currentColor" d="M378 108a54 54 0 1 0 0-108 54 54 0 1 0 0 108zm0-81c7.5 0 13.5 6 13.5 13.5S385.5 54 378 54c0 7.5-6 13.5-13.5 13.5S351 61.5 351 54c0-14.9 12.1-27 27-27zM0 414a90 90 0 1 1 180 0 90 90 0 1 1 -180 0zm54 0c0-19.9 16.1-36 36-36 7.5 0 13.5-6 13.5-13.5S97.5 351 90 351c-34.8 0-63 28.2-63 63 0 7.5 6 13.5 13.5 13.5S54 421.5 54 414zm306 0a90 90 0 1 1 180 0 90 90 0 1 1 -180 0zm54 0c0-19.9 16.1-36 36-36 7.5 0 13.5-6 13.5-13.5S457.5 351 450 351c-34.8 0-63 28.2-63 63 0 7.5 6 13.5 13.5 13.5s13.5-6 13.5-13.5zM197.8 125.4c17.9-22.4 45-35.4 73.6-35.4 25 0 49 9.9 66.6 27.6l39.1 39.1c3.4 3.4 8 5.3 12.7 5.3l24.2 0c29.8 0 54 24.2 54 54s-24.2 54-54 54l-54 0c-14.3 0-28.1-5.7-38.2-15.8l-35.1-35.1c-7.6-7.6-20.1-6.9-26.8 1.5l-1.5 1.9c-6.2 7.8-5 19.1 2.8 25.3l42.6 34C316.5 292.1 324 307.6 324 324l0 90c0 29.8-24.2 54-54 54s-54-24.2-54-54l0-55.4c0-5.5-2.5-10.6-6.8-14.1l-54.9-43.9c-17.9-14.4-28.4-36.1-28.4-59.1 0-17.2 5.8-33.8 16.6-47.3l55.2-69zm42.2 33.7c7.6-9.5 19.2-15.1 31.4-15.1 7.5 0 13.5-6 13.5-13.5s-6-13.5-13.5-13.5c-20.4 0-39.7 9.3-52.5 25.2l-55.2 69c-6.9 8.6-10.7 19.3-10.7 30.4 0 7.5 6 13.5 13.5 13.5s13.5-6 13.5-13.5c0-4.9 1.7-9.7 4.7-13.5l55.2-69zM389.8 189c-7.5 0-13.5 6-13.5 13.5s6 13.5 13.5 13.5l24.2 0c7.5 0 13.5-6 13.5-13.5S421.5 189 414 189l-24.2 0zM270 358.6c0-7.5-6-13.5-13.5-13.5s-13.5 6-13.5 13.5l0 55.4c0 7.5 6 13.5 13.5 13.5s13.5-6 13.5-13.5l0-55.4z"/></svg>