<svg xmlns="http://www.w3.org/2000/svg" viewBox="0 0 540 540"><!--! Font Awesome Pro 7.1.0 by @fontawesome - https://fontawesome.com License - https://fontawesome.com/license (Commercial License) Copyright 2025 Fonticons, Inc. --><path opacity=".4" fill="currentColor" d="M27 126l0 288c0 7.5 6 13.5 13.5 13.5S54 421.5 54 414l0-288c6.1 4.3 14.5 2.7 18.8-3.4s2.7-14.5-3.4-18.8c-8.3-5.7-19-6.4-27.9-1.8S27 115.9 27 126zM265.6 252.2c.7 7.4 7.2 12.9 14.6 12.3 32.5-2.9 61.8-29.6 61.8-67.3l0-71.2c7.5 0 13.5-6 13.5-13.5S349.5 99 342 99c-14.9 0-27 12.1-27 27l0 71.2c0 22.4-17.3 38.7-37.2 40.4-7.4 .7-12.9 7.2-12.3 14.6zM315 342.8l0 71.2c0 7.5 6 13.5 13.5 13.5s13.5-6 13.5-13.5l0-71.2c0-7.5-6-13.5-13.5-13.5s-13.5 6-13.5 13.5zM459 126l0 288c0 7.5 6 13.5 13.5 13.5s13.5-6 13.5-13.5l0-288c7.5 0 13.5-6 13.5-13.5S493.5 99 486 99c-14.9 0-27 12.1-27 27z"/><path fill="currentColor" d="M84.8 81.7C68.3 70.2 46.8 68.8 29 78.1S0 105.9 0 126L0 414c0 20.1 11.2 38.5 29 47.9s39.3 8 55.8-3.5l182-126.6c9-6.2 21.2 .2 21.2 11.1l0 71.2c0 29.8 24.2 54 54 54s54-24.2 54-54l0-288c0-29.8-24.2-54-54-54s-54 24.2-54 54l0 71.2c0 10.9-12.3 17.3-21.2 11.1L84.8 81.7zM69.4 103.8c6.1 4.3 7.6 12.7 3.4 18.8S60.1 130.3 54 126l0 288c0 7.5-6 13.5-13.5 13.5S27 421.5 27 414l0-288c0-10.1 5.6-19.3 14.5-23.9s19.7-4 27.9 1.8zM342 99c7.5 0 13.5 6 13.5 13.5S349.5 126 342 126l0 71.2c0 37.7-29.3 64.5-61.8 67.3-7.4 .7-14-4.8-14.6-12.3s4.8-14 12.3-14.6c19.9-1.8 37.2-18 37.2-40.4l0-71.2c0-14.9 12.1-27 27-27zm0 243.8l0 71.2c0 7.5-6 13.5-13.5 13.5S315 421.5 315 414l0-71.2c0-7.5 6-13.5 13.5-13.5s13.5 6 13.5 13.5zM486 72c29.8 0 54 24.2 54 54l0 288c0 29.8-24.2 54-54 54s-54-24.2-54-54l0-288c0-29.8 24.2-54 54-54zm0 27c-14.9 0-27 12.1-27 27l0 288c0 7.5 6 13.5 13.5 13.5s13.5-6 13.5-13.5l0-288c7.5 0 13.5-6 13.5-13.5S493.5 99 486 99z"/></svg>