<svg xmlns="http://www.w3.org/2000/svg" viewBox="0 0 504 540"><!--! Font Awesome Pro 7.1.0 by @fontawesome - https://fontawesome.com License - https://fontawesome.com/license (Commercial License) Copyright 2025 Fonticons, Inc. --><path opacity=".4" fill="currentColor" d="M63 54l0 432c0 7.5 6 13.5 13.5 13.5S90 493.5 90 486L90 54c6.5-3.7 8.8-11.9 5.1-18.4s-11.9-8.8-18.4-5.1C68.2 35.3 63 44.3 63 54z"/><path fill="currentColor" d="M504 270c0 19-10 36.5-26.2 46.3l-360 216c-16.7 10-37.5 10.3-54.4 .7S36 505.5 36 486L36 54C36 34.5 46.5 16.6 63.4 7s37.7-9.3 54.4 .7l360 216C494 233.5 504 251 504 270zM90 54c6.5-3.7 8.8-11.9 5.1-18.4s-11.9-8.8-18.4-5.1C68.2 35.3 63 44.3 63 54l0 432c0 7.5 6 13.5 13.5 13.5S90 493.5 90 486L90 54z"/></svg>