<svg xmlns="http://www.w3.org/2000/svg" viewBox="0 0 576 540"><!--! Font Awesome Pro 7.1.0 by @fontawesome - https://fontawesome.com License - https://fontawesome.com/license (Commercial License) Copyright 2025 Fonticons, Inc. --><path opacity=".4" fill="currentColor" d="M52 184.2c0 7.5 6 13.5 13.5 13.5l117.7 0c31.2 0 58.8-20.1 68.5-49.8L288.1 36c7.5 0 13.5-6 13.5-13.5S295.5 9 288.1 9c-11.7 0-22.1 7.5-25.7 18.7L226 139.6c-6 18.5-23.3 31.1-42.8 31.1l-117.7 0c-7.5 0-13.5 6-13.5 13.5zM124.8 451c-2.3 7.1 1.6 14.7 8.7 17s14.7-1.6 17-8.7l36.4-111.9c2.5-7.8 3.7-15.8 3.5-23.6-.1-7.5-6.3-13.4-13.8-13.2-3.7 .1-7.1 1.6-9.5 4.1-1.2 1.2-2.2 2.7-2.8 4.3-.3 .8-.6 1.7-.7 2.5s-.2 1.8-.2 2.7c.1 4.9-.6 9.9-2.2 14.8L124.8 451zM379.4 184.2c0 7.5 6 13.5 13.5 13.5l117.7 0c7.5 0 13.5-6 13.5-13.5s-6-13.5-13.5-13.5l-117.7 0c-7.5 0-13.5 6-13.5 13.5z"/><path fill="currentColor" d="M288.1-18c23.4 0 44.1 15.1 51.4 37.3l36.4 111.9c2.4 7.4 9.3 12.4 17.1 12.4l117.7 0c23.4 0 44.1 15.1 51.4 37.3s-.7 46.6-19.6 60.4l-95.2 69.2c-6.3 4.6-8.9 12.7-6.5 20.1L477 442.6c7.2 22.2-.7 46.6-19.6 60.4s-44.6 13.8-63.5 0l-95.2-69.2c-6.3-4.6-14.9-4.6-21.2 0L182.3 503c-18.9 13.8-44.6 13.8-63.5 0s-26.8-38.1-19.6-60.4l36.4-111.9c2.4-7.4-.2-15.5-6.5-20.1L33.8 241.4C14.8 227.6 6.9 203.3 14.1 181s28-37.3 51.4-37.3l117.7 0c7.8 0 14.7-5 17.1-12.4L236.7 19.3c7.2-22.2 28-37.3 51.4-37.3zm0 27c-11.7 0-22.1 7.5-25.7 18.7L226 139.6c-6 18.5-23.3 31.1-42.8 31.1l-117.7 0c-7.5 0-13.5 6-13.5 13.5s6 13.5 13.5 13.5l117.7 0c31.2 0 58.8-20.1 68.5-49.8L288.1 36c7.5 0 13.5-6 13.5-13.5S295.5 9 288.1 9zM392.9 170.7c-7.5 0-13.5 6-13.5 13.5s6 13.5 13.5 13.5l117.7 0c7.5 0 13.5-6 13.5-13.5s-6-13.5-13.5-13.5l-117.7 0zm-202.5 153c-.1-7.5-6.3-13.4-13.8-13.2s-13.4 6.3-13.2 13.8c.1 4.9-.6 9.9-2.2 14.8L124.8 451c-2.3 7.1 1.6 14.7 8.7 17s14.7-1.6 17-8.7l36.4-111.9c2.5-7.8 3.7-15.8 3.5-23.6z"/></svg>