<svg xmlns="http://www.w3.org/2000/svg" viewBox="0 0 540 540"><!--! Font Awesome Pro 7.1.0 by @fontawesome - https://fontawesome.com License - https://fontawesome.com/license (Commercial License) Copyright 2025 Fonticons, Inc. --><path opacity=".4" fill="currentColor" d="M358.9 34.9c10.5-10.5 27.6-10.5 38.2 0 5.3 5.3 5.3 13.8 0 19.1s-13.8 5.3-19.1 0c0 0 0 0 0 0s0 0 0 0c2.6 20.8-2.1 57.8-36.6 77.5L209.7 206.7c-6.5 3.7-14.7 1.5-18.4-5s-1.4-14.7 5-18.4L328 108c21.1-12 25.1-35.3 23.2-50.7-1-8.1 1.6-16.4 7.7-22.5zm-270 126c10.5-10.5 27.6-10.5 38.2 0 5.3 5.3 5.3 13.8 0 19.1s-13.8 5.3-19.1 0c5.3 5.3 5.3 13.8 0 19.1s-13.8 5.3-19.1 0c-10.5-10.5-10.5-27.6 0-38.2zM190.7 292.5c7.5 0 13.5 6 13.5 13.5 0 18.4-7 36.9-21.1 50.9L72 468c-5.3 5.3-13.8 5.3-19.1 0s-5.3-13.8 0-19.1L164 337.8c8.8-8.8 13.2-20.3 13.2-31.8 0-7.5 6-13.5 13.5-13.5z"/><path fill="currentColor" d="M339.8 15.8c21.1-21.1 55.3-21.1 76.4 0 36 36 72 72 108 108 21.1 21.1 21.1 55.3 0 76.4-12.2 12.3-28.9 17.4-44.9 15.4-9.2-1.1-19.3 1.7-23.9 9.8L380.2 357c-4 7-2.8 15.9 2.9 21.7l15.1 15.1c21.1 21.1 21.1 55.3 0 76.4s-55.3 21.1-76.4 0l-75.1-75.1c-7-7-18.4-7-25.5 0L110.2 506.2c-21.1 21.1-55.3 21.1-76.4 0s-21.1-55.3 0-76.4L144.9 318.7c7-7 7-18.4 0-25.5L69.8 218.2c-21.1-21.1-21.1-55.3 0-76.4s55.3-21.1 76.4 0l15.1 15.1c5.7 5.7 14.6 6.9 21.7 2.9L314.6 84.6c8.1-4.6 11-14.7 9.8-23.9-2-16 3.2-32.6 15.4-44.9zm57.3 19.1c-10.5-10.5-27.6-10.5-38.2 0-6.1 6.1-8.7 14.4-7.7 22.5 1.9 15.3-2.1 38.6-23.2 50.7L196.4 183.3c-6.5 3.7-8.7 11.9-5 18.4s11.9 8.7 18.4 5l131.6-75.2c34.5-19.7 39.2-56.7 36.6-77.5 5.3 5.3 13.8 5.3 19.1 0s5.3-13.8 0-19.1zm-270 126c-10.5-10.5-27.6-10.5-38.2 0s-10.5 27.6 0 38.2c5.3 5.3 13.8 5.3 19.1 0s5.3-13.8 0-19.1c5.3 5.3 13.8 5.3 19.1 0s5.3-13.8 0-19.1zM204.2 306c0-7.5-6-13.5-13.5-13.5s-13.5 6-13.5 13.5c0 11.5-4.4 23-13.2 31.8L52.9 448.9c-5.3 5.3-5.3 13.8 0 19.1s13.8 5.3 19.1 0L183.1 356.9c14.1-14.1 21.1-32.5 21.1-50.9z"/></svg>