<svg xmlns="http://www.w3.org/2000/svg" viewBox="0 0 528 576"><!--! Font Awesome Pro 7.1.0 by @fontawesome - https://fontawesome.com License - https://fontawesome.com/license (Commercial License) Copyright 2025 Fonticons, Inc. --><path fill="currentColor" d="M48.5 218.7l191.7 18.2 0-90-102.9 9.4c8.9-12.4 19.3-23 31.1-31.7 23.9-17.6 55.2-28.4 95.7-28.4 59.9 0 100.4 23.4 126.9 60.3 27.3 37.9 41.1 92.4 41.1 155.6s-13.8 117.7-41.1 155.6C364.4 504.6 323.9 528 264 528s-100.4-23.4-126.9-60.3C109.8 429.8 96 375.4 96 312.1l-96 0C0 382.5 19.1 448.8 63.1 497.8 107.6 547.2 174.6 576 264 576s156.4-28.8 200.9-78.2c44-49 63.1-115.3 63.1-185.6s-19.1-136.6-63.1-185.6c-44.4-49.5-111.5-78.2-200.9-78.2-77 0-137.2 21.4-180.6 58.5L93.1 0 3.1 0 21.3 191.6 48.5 218.7z"/></svg>