<svg xmlns="http://www.w3.org/2000/svg" viewBox="0 0 480 576"><!--! Font Awesome Pro 7.1.0 by @fontawesome - https://fontawesome.com License - https://fontawesome.com/license (Commercial License) Copyright 2025 Fonticons, Inc. --><path fill="currentColor" d="M0 72l0-48 480 0 0 48-480 0zm219.4 48l41.3 0 6.7 5.5 138 114 20.3 16.8c-27.3 27.3-55.4 55.4-60.4 60.4-.6-.6-33.3-36.5-98.1-107.5l14.9 317.6 1.2 25.1-86.3 0 1.2-25.1 14.9-317.6c-64.8 71-97.5 106.8-98.1 107.5-25.5-25.5-55-55-60.4-60.4l20.3-16.8 138-114 6.7-5.5z"/></svg>