<svg xmlns="http://www.w3.org/2000/svg" viewBox="0 0 480 576"><!--! Font Awesome Pro 7.1.0 by @fontawesome - https://fontawesome.com License - https://fontawesome.com/license (Commercial License) Copyright 2025 Fonticons, Inc. --><path fill="currentColor" d="M282 49.1L267.1 366.7c64.8-71 97.5-106.8 98.1-107.5 25.5 25.5 55 55 60.4 60.4l-20.3 16.8-138 114-6.7 5.5-41.3 0-6.7-5.5-138-114-20.3-16.8c27.3-27.3 55.4-55.4 60.4-60.4 .6 .6 33.3 36.5 98.1 107.5L198 49.1 196.8 24 283.2 24 282 49.1zM480 552l-480 0 0-48 480 0 0 48z"/></svg>