<svg xmlns="http://www.w3.org/2000/svg" viewBox="0 0 576 576"><!--! Font Awesome Pro 7.1.0 by @fontawesome - https://fontawesome.com License - https://fontawesome.com/license (Commercial License) Copyright 2025 Fonticons, Inc. --><path fill="currentColor" d="M24 24l-24 0 0 168 48 0 0 264c0 53 43 96 96 96l288 0c53 0 96-43 96-96l0-264 48 0 0-168-552 0zM144 456l0-264 288 0 0 264c0 26.5-21.5 48-48 48l-192 0c-26.5 0-48-21.5-48-48zM96 144l0-72 384 0 0 72-384 0zm144 96c-19.9 0-36 16.1-36 36s16.1 36 36 36l96 0c19.9 0 36-16.1 36-36s-16.1-36-36-36l-96 0z"/></svg>