<svg xmlns="http://www.w3.org/2000/svg" viewBox="0 0 576 576"><!--! Font Awesome Pro 7.1.0 by @fontawesome - https://fontawesome.com License - https://fontawesome.com/license (Commercial License) Copyright 2025 Fonticons, Inc. --><path fill="currentColor" d="M240 432c79.7 0 140.3-21.3 181-59.1 40.9-38 59-89.9 59-144.9S461.9 121.1 421 83.1C380.3 45.3 319.7 24 240 24S99.7 45.3 59 83.1c-40.9 38-59 89.9-59 144.9 0 40 9.5 78.4 30.6 111.1-8 48.7-13.3 81.4-16.1 98.2 13-2.2 53.3-9 120.8-20.5 30.1 10 65 15.2 104.7 15.2zM79.1 377.6l20.7-62 2.7-8.2-3.1-8c-8-20.9-12.1-45-12.1-71.4 0-45.7 12.2-84.4 36-111.4 23.3-26.5 60.4-44.6 116.8-44.6s93.4 18.1 116.8 44.6c23.8 27 36 65.7 36 111.4s-12.2 84.4-36 111.4c-23.3 26.5-60.4 44.6-116.8 44.6-38 0-69.2-5.4-94.5-14.5l-5.9-2.1-6.2 1.1-54.3 9.2zm395.2 18.9l-7.4 8.5 1.8 11.2 10.1 61.4-88.4-17.7-6.6-1.3-6.4 2.3c-39.6 14.6-88.2 23-146.8 23-39.5 0-74.4-3.8-105.1-10.8L114.7 520c34.6 7.9 73.2 12 115.7 12 60.2 0 112.4-8.3 156.9-23.7 90.9 18.2 140.9 28.2 149.9 30-2.4-14.4-8.8-54.1-19.5-119 40.1-50.4 58.3-113 58.3-179.3l-48 0c0 61-17.6 115.1-53.8 156.6z"/></svg>