<svg xmlns="http://www.w3.org/2000/svg" viewBox="0 0 576 576"><!--! Font Awesome Pro 7.1.0 by @fontawesome - https://fontawesome.com License - https://fontawesome.com/license (Commercial License) Copyright 2025 Fonticons, Inc. --><path fill="currentColor" d="M305.7 43.8L288 24.5 270.3 43.8 153.2 171.5C64.2 102.7 13.1 63.3 0 53.1L0 456c0 25 12 44.4 30.6 57.9 17.4 12.8 40.7 20.6 65.9 25.9 50.5 10.5 119 12.2 191.5 12.2s141-1.7 191.5-12.2c25.2-5.2 48.5-13.1 65.9-25.9 18.5-13.6 30.6-32.9 30.6-57.9l0-402.9c-13.1 10.2-64.2 49.6-153.2 118.4L305.7 43.8zM480 193.1l0 179.2-.5-.1C429 361.7 360.6 360 288 360s-141 1.7-191.5 12.2l-.5 .1 0-179.2c54.4 42.3 84.1 65.4 89.3 69.5l14.4-20.9 88.3-127.5 88.3 127.5 14.4 20.9c5.1-4 34.9-27.2 89.3-69.5zM105 435.3c6.8-6.1 18.4-11.8 36.2-16.3 35.8-9.1 86.8-11 146.8-11s111.1 1.9 146.8 11c17.8 4.5 29.4 10.2 36.2 16.3 5.9 5.3 9 11.4 9 20.7s-3.1 15.4-9 20.7c-6.8 6.1-18.4 11.8-36.2 16.3-35.8 9.1-86.8 11-146.8 11s-111.1-1.9-146.8-11c-17.8-4.5-29.4-10.2-36.2-16.3-5.9-5.3-9-11.4-9-20.7l0 0c0-9.3 3.1-15.4 9-20.7z"/></svg>