<svg xmlns="http://www.w3.org/2000/svg" viewBox="0 0 528 576"><!--! Font Awesome Pro 7.1.0 by @fontawesome - https://fontawesome.com License - https://fontawesome.com/license (Commercial License) Copyright 2025 Fonticons, Inc. --><path fill="currentColor" d="M121.7 76.6L96 80.1 96 369 115.3 366.4c57.5-7.8 115.8 6.8 162.8 40.8 37 26.8 82.9 38.3 128.2 32.2l25.7-3.5 0-288.9-19.3 2.6c-57.5 7.8-115.8-6.8-162.8-40.8-37-26.8-82.9-38.3-128.2-32.2zm0 337.3L96 417.4 96 552 0 552 0 44.7c1.6-.2 40-5.4 115.3-15.6 57.5-7.8 115.8 6.8 162.8 40.8 37 26.8 82.9 38.3 128.2 32.2 74.2-10.1 114.8-15.6 121.7-16.5l0 385.8c-1.6 .2-40 5.4-115.3 15.6-57.5 7.8-115.8-6.8-162.8-40.8-37-26.8-82.9-38.3-128.2-32.2z"/></svg>