<svg xmlns="http://www.w3.org/2000/svg" viewBox="0 0 528 576"><!--! Font Awesome Pro 7.1.0 by @fontawesome - https://fontawesome.com License - https://fontawesome.com/license (Commercial License) Copyright 2025 Fonticons, Inc. --><path fill="currentColor" d="M46.8 199.6l-46.8-7.6 0-168 528 0 0 168-46.8 7.6-23.6-70.8C451.1 109.2 432.8 96 412.1 96L348 96c-26.5 0-48 21.5-48 48l0 288.1c0 20.7 13.2 39 32.8 45.5l82.8 27.6-7.6 46.8-288 0-7.6-46.8 82.8-27.6c19.6-6.5 32.8-24.9 32.8-45.5L228 144c0-26.5-21.5-48-48-48l-64.1 0c-20.7 0-39 13.2-45.5 32.8L46.8 199.6z"/></svg>