<svg xmlns="http://www.w3.org/2000/svg" viewBox="0 0 528 576"><!--! Font Awesome Pro 7.1.0 by @fontawesome - https://fontawesome.com License - https://fontawesome.com/license (Commercial License) Copyright 2025 Fonticons, Inc. --><path fill="currentColor" d="M24 24l-24 0 0 528 528 0 0-528-504 0zM312 72l0 108-96 0 0-108 96 0zM168 72l0 108-72 0 0-108 72 0zm0 156l0 120-72 0 0-120 72 0zm0 168l0 108-72 0 0-108 72 0zm48 0l96 0 0 108-96 0 0-108zm96-48l-96 0 0-120 96 0 0 120zm48 48l72 0 0 108-72 0 0-108zm72-48l-72 0 0-120 72 0 0 120zm0-276l0 108-72 0 0-108 72 0z"/></svg>