<svg xmlns="http://www.w3.org/2000/svg" viewBox="0 0 576 576"><!--! Font Awesome Pro 7.1.0 by @fontawesome - https://fontawesome.com License - https://fontawesome.com/license (Commercial License) Copyright 2025 Fonticons, Inc. --><path fill="currentColor" d="M528 48l-384 0 0-48 432 0 0 432-48 0 0-384zM0 96l480 0 0 480-480 0 0-480zm432 48l-384 0 0 236.6c22.3-20.3 52.4-32.7 89.7-32.7 15.7 0 29.2 3 39.9 5.7 2.6 .7 4.9 1.3 7 1.8l0 0c7.5 2 12.3 3.2 17.1 3.6 4.5 .4 7.1-.2 9.9-2.1 3.8-2.5 9.8-8.4 18-22.9 2.7-4.8 4.9-9.2 7.5-14.2l0 0 0 0c1.8-3.6 3.8-7.5 6.1-12 5.1-9.7 11.3-20.5 19.4-30.5 17.1-21.1 41.9-37.3 79.7-37.3 36.7 0 66.9 10.2 89.7 28.9L432 144zm0 336l0-73c0-29.7-7.6-53.9-21.4-70.3-13.2-15.7-34.4-27-68.3-27-32.7 0-54.5 18.7-70.8 47.8-19.6 34.9-39.7 53.6-66.5 59.7-12.1 2.7-24 2.5-34.5 2-3.3-.2-6.5-.4-9.6-.6-7.5-.5-14.7-.9-23.1-.9-35.5 0-56.8 9.6-69.4 22.7-9 9.3-15.4 22.4-18.4 39.6L432 480zM132 264c-25.2 0-36-16.1-36-36s10.8-36 36-36 36 16.1 36 36-10.8 36-36 36z"/></svg>