<svg xmlns="http://www.w3.org/2000/svg" viewBox="0 0 528 576"><!--! Font Awesome Pro 7.1.0 by @fontawesome - https://fontawesome.com License - https://fontawesome.com/license (Commercial License) Copyright 2025 Fonticons, Inc. --><path fill="currentColor" d="M120 168l0 24-120 0 0 288c0 53 43 96 96 96l336 0c53 0 96-43 96-96l0-288-336 0 0-24c0-38.8 4.8-69.7 16.2-90.2 5.4-9.8 12.1-16.9 20.4-21.7 8.3-4.8 19.6-8.1 35.4-8.1 24.4 0 38.7 7.7 48.2 18.7 10.4 12 17.5 30.7 21.1 56.6l2.9 20.7 72.7 0-4.9-28.1c-5.4-31-17.1-60.7-40.8-82.5-24-22.1-57-33.4-99.2-33.4-54 0-92.3 18.6-115.7 52.5-22.2 32.1-28.3 74.2-28.3 115.5zm0 72l312 0 0 240c0 26.5-21.5 48-48 48l-240 0c-26.5 0-48-21.5-48-48l0-240 24 0zM281.4 393.7c21.2-6.2 30.6-24.3 30.6-45.7 0-26.5-14.4-48-48-48s-48 21.5-48 48c0 21.4 9.4 39.5 30.6 45.7l-18.6 74.3 72 0-18.6-74.3z"/></svg>