<svg xmlns="http://www.w3.org/2000/svg" viewBox="0 0 576 576"><!--! Font Awesome Pro 7.1.0 by @fontawesome - https://fontawesome.com License - https://fontawesome.com/license (Commercial License) Copyright 2025 Fonticons, Inc. --><path fill="currentColor" d="M109.7 109.2c30-30 62.5-37.8 95.8-31.3 34.8 6.8 72.2 29.7 107.8 65.2s58.5 73.1 65.2 107.8c6.5 33.3-1.3 65.8-31.2 95.8l-.1 .1c-30 30-62.5 37.8-95.8 31.3-34.8-6.8-72.2-29.7-107.8-65.2S85.2 239.8 78.4 205c-6.5-33.3 1.3-65.9 31.3-95.8zM419.5 333.8c24.1-37.4 34.5-76.2 32.5-114.6-2.9-54.1-30.4-103.5-70.7-143.9S291.4 7.4 237.3 4.5C182.5 1.6 127.1 23.9 75.7 75.3S2 182.1 5 236.8C7.9 291 35.4 340.4 75.7 380.7s89.8 67.8 143.9 70.7c38.4 2.1 77.2-8.3 114.6-32.5l127.7 154.3 35.5 1.7 78-78-1.7-35.5-154.3-127.7zm-29.6 37.8l106.7 88.3-36.2 36.2-88.3-106.7c6-5.6 12.2-11.8 17.8-17.8zM115.3 148.7l33.9 33.9 17-17c8.8-8.8 17.3-10.6 26.2-8.8 10.4 2 23.2 9.3 36.5 22.6l17 17 33.9-33.9-17-17c-17.2-17.2-38.2-31.3-61.3-35.8-24.5-4.8-49.2 1.8-69.4 22l-17 17z"/></svg>