<svg xmlns="http://www.w3.org/2000/svg" viewBox="0 0 528 576"><!--! Font Awesome Pro 7.1.0 by @fontawesome - https://fontawesome.com License - https://fontawesome.com/license (Commercial License) Copyright 2025 Fonticons, Inc. --><path fill="currentColor" d="M264 72c-53.4 0-98.1 1.9-129.2 10.8-15.3 4.4-25 9.8-30.7 15.5-5 5-8.1 11.4-8.1 21.7s3.1 16.6 8.1 21.7c5.7 5.7 15.4 11.2 30.7 15.5 31.1 8.8 75.8 10.8 129.2 10.8s98.1-1.9 129.2-10.8c15.3-4.4 25-9.8 30.7-15.5 5-5 8.1-11.4 8.1-21.7s-3.1-16.6-8.1-21.7c-5.7-5.7-15.4-11.2-30.7-15.5-31-8.8-75.8-10.8-129.2-10.8zm236.2-9.3C517.5 76.7 528 95.9 528 120l0 2.3c0 56.2-28.1 108.7-74.9 139.8l-165.1 110 0 35.9 12.2 0c38.4 0 68.7 8.9 90.8 27.3 22.2 18.5 32.8 43.7 37.4 69.7 1.9 11 4.7 26.7 8.3 47L91.4 552c3.6-20.3 6.4-36 8.3-47 4.6-26 15.2-51.2 37.4-69.7 22.1-18.4 52.4-27.3 90.8-27.3l12.2 0 0-34.5-165.7-111.4C27.9 231 0 178.7 0 122.7L0 120C0 95.9 10.5 76.7 27.8 62.7 44.1 49.6 65.7 41.6 89 36.3 135.4 25.7 198.1 24 264 24s128.6 1.7 175 12.3c23.2 5.3 44.9 13.3 61.2 26.4zM264 216c-54.2 0-106.2-1.2-148.8-7.5 7.2 11.1 16.4 21 27.1 29.2L263 329.9 395.2 230.1c8.2-6.2 15.3-13.7 20.9-22-43.2 6.7-96.5 8-152.1 8zm91.9 288c-3.2-15.2-8.6-26-15.9-33.3-8.1-8.1-21.5-14.7-45.9-14.7l-60.3 0c-24.4 0-37.8 6.6-45.9 14.7-7.3 7.3-12.7 18.1-15.9 33.3l183.9 0z"/></svg>