<svg xmlns="http://www.w3.org/2000/svg" viewBox="0 0 432 576"><!--! Font Awesome Pro 7.1.0 by @fontawesome - https://fontawesome.com License - https://fontawesome.com/license (Commercial License) Copyright 2025 Fonticons, Inc. --><path fill="currentColor" d="M24 0L0 0 0 480c0 53 43 96 96 96l240 0c53 0 96-43 96-96L432 0 24 0zM336 48l0 432c0 26.5-21.5 48-48 48l-144 0c-26.5 0-48-21.5-48-48l0-432 240 0zM264 432c0-26.5-14.4-48-48-48s-48 21.5-48 48 14.4 48 48 48 48-21.5 48-48zM156 144l120 0 0-48-120 0 0 48z"/></svg>