<svg xmlns="http://www.w3.org/2000/svg" viewBox="0 0 528 576"><!--! Font Awesome Pro 7.1.0 by @fontawesome - https://fontawesome.com License - https://fontawesome.com/license (Commercial License) Copyright 2025 Fonticons, Inc. --><path fill="currentColor" d="M528 48l0-28-27.7 4.3-250.9 38.6c-46.8 7.2-81.4 47.5-81.4 94.9l0 193.1c-18-10.5-39-14.9-59.9-14.9l-.1 0C80.7 336 53.4 343.4 32.6 362.1 11.3 381.2 0 409.2 0 444s11.3 62.8 32.6 81.9C53.4 544.6 80.7 552 108 552s54.6-7.4 75.4-26.1C204.7 506.8 216 478.8 216 444l0-238.2c0-23.7 17.3-43.8 40.7-47.4L480 124 480 302.9c-18-10.5-39-14.9-59.9-14.9l-.1 0c-27.3 0-54.6 7.4-75.4 26.1-21.2 19.1-32.6 47.1-32.6 81.9s11.3 62.8 32.6 81.9C365.4 496.6 392.7 504 420 504s54.6-7.4 75.4-26.1C516.7 458.8 528 430.8 528 396l0-348zM108 504c-10 0-17.8-3.5-23.6-10.9-6.4-8-12.4-23-12.4-49.1s6-41.1 12.4-49.1C90.2 387.5 98 384 107.9 384l.1 0c10 0 17.8 3.5 23.6 10.9 6.4 8 12.4 23 12.4 49.1s-6 41.1-12.4 49.1C125.8 500.5 118 504 108 504zm312-48c-10 0-17.8-3.5-23.6-10.9-6.4-8-12.4-23-12.4-49.1s6-41.1 12.4-49.1c5.8-7.3 13.6-10.9 23.6-10.9l.1 0c10 0 17.8 3.5 23.6 10.9 6.4 8 12.4 23 12.4 49.1s-6 41.1-12.4 49.1C437.8 452.5 430 456 420 456z"/></svg>