<svg xmlns="http://www.w3.org/2000/svg" viewBox="0 0 576 576"><!--! Font Awesome Pro 7.1.0 by @fontawesome - https://fontawesome.com License - https://fontawesome.com/license (Commercial License) Copyright 2025 Fonticons, Inc. --><path fill="currentColor" d="M576 267.2l0 41.6-378.4 229.3c-15 9.1-32.2 13.9-49.8 13.9L3.7 552 13 521.1 82.9 288 13 54.9 3.7 24 147.9 24c17.5 0 34.8 4.8 49.8 13.9L576 267.2zM116.3 504l31.6 0c8.8 0 17.4-2.4 24.9-7l305.3-185-304.2 0-57.6 192zM478.1 264L172.8 79c-7.5-4.5-16.1-7-24.9-7l-31.6 0 57.6 192 304.2 0z"/></svg>