<svg xmlns="http://www.w3.org/2000/svg" viewBox="0 0 528 576"><!--! Font Awesome Pro 7.1.0 by @fontawesome - https://fontawesome.com License - https://fontawesome.com/license (Commercial License) Copyright 2025 Fonticons, Inc. --><path fill="currentColor" d="M198.1 6.8L192 30c6.1-23.2 6.2-23.2 6.2-23.2l0 0 .1 0 .2 .1 .6 .2c.5 .1 1.2 .3 2.1 .6 1.7 .5 4.2 1.3 7.3 2.3 6.2 2.1 14.9 5.2 25.5 9.7 21 8.9 49.5 23 79.5 44.1 60.1 42.3 126.9 113.3 150.8 226.2l5.5 26.1-26.6 2.7-221.3 22.8 0 40.5 279.6-28 26.4-2.6 0 62.5c0 89.5-72.5 162-162 162l-216 0C67.2 576 0 508.8 0 426l0-21.7 21.6-2.2 152.4-15.2 0-40.3c-82.4 8.5-131.5 13.6-147.2 15.2l15.7-37.3 127.4-303.7 8.1-19.3 20.2 5.3zM360.8 273.9c-9.9-73.5-50.1-127.1-90.8-163.7-16.9-15.2-33.7-27.3-48-36.5l0 216.9 138.8-16.7zM102.7 305l71.3-8.6 0-161.4-71.3 170zM216 528l102.1 0C381 528 432 476.9 432 414l0-4.7-334.6 33.5c8 48.3 50 85.2 100.6 85.2l18 0z"/></svg>