<svg xmlns="http://www.w3.org/2000/svg" viewBox="0 0 576 576"><!--! Font Awesome Pro 7.1.0 by @fontawesome - https://fontawesome.com License - https://fontawesome.com/license (Commercial License) Copyright 2025 Fonticons, Inc. --><path fill="currentColor" d="M386.5 14l-24.2-6.2-5.1 24.7-.6 2.8 0 0c-6 29.4-10.2 49.7-19.4 64-4.2 6.5-9.2 11.2-16.1 14.6-7.1 3.5-17.5 6.1-33.2 6.1-15.3 0-25.5-2.9-32.5-6.6-6.9-3.7-12.1-8.9-16.6-16-8.7-14.1-12.9-32.5-18.2-56.1-.7-3-1.4-6.2-2.1-9.4l-5.5-24-23.9 6.1-.5 .1 0-.2C57.7 46.1 .5 168 0 263.9l-.1 24.1 103.8 0-32.3 236.8-3.7 27.2 439.8 0-3.7-27.2-32.3-236.8 103.8 0-.1-24.1c-.5-95.8-57.7-217.8-188.6-249.9 0 0 0 0-.1 0zm114 226l-84 0 0 0-34.8 0 2.4 26.2 21.6 237.8-235.4 0 21.6-237.8 2.4-26.2-35.6 0 0 0-83.2 0c5.3-36.3 16.7-72.9 34.4-103.8 17.2-30.1 39.8-53.7 67.9-67.2 4.4 18.1 10.3 37.5 20.3 53.7 8.1 13.1 19.3 24.8 34.8 33.1 15.4 8.2 33.7 12.2 55 12.2 20.9 0 39-3.5 54.3-11 15.6-7.6 26.9-18.7 35.3-31.7 10.6-16.4 16.5-36.4 21-56.1 27.8 13.5 50.3 37.1 67.4 67 17.7 30.8 29.1 67.5 34.4 103.8z"/></svg>