<svg xmlns="http://www.w3.org/2000/svg" viewBox="0 0 576 576"><!--! Font Awesome Pro 7.1.0 by @fontawesome - https://fontawesome.com License - https://fontawesome.com/license (Commercial License) Copyright 2025 Fonticons, Inc. --><path fill="currentColor" d="M288 80L235.2 9.6 196.8 38.4 240 96 0 96 0 456c0 53 43 96 96 96l384 0c53 0 96-43 96-96L576 96 336 96 379.2 38.4 340.8 9.6 288 80zM432 504l-288 0c-26.5 0-48-21.5-48-48l0-312 384 0 0 312c0 26.5-21.5 48-48 48zM144 192l0 264 240 0 0-264-240 0zm48 48l144 0 0 168-144 0 0-168zm264-24c0-13.3-7.2-24-24-24s-24 10.7-24 24 7.2 24 24 24 24-10.7 24-24zm-24 96c16.8 0 24-10.7 24-24s-7.2-24-24-24-24 10.7-24 24 7.2 24 24 24z"/></svg>