<svg xmlns="http://www.w3.org/2000/svg" viewBox="0 0 480 576"><!--! Font Awesome Pro 7.1.0 by @fontawesome - https://fontawesome.com License - https://fontawesome.com/license (Commercial License) Copyright 2025 Fonticons, Inc. --><path fill="currentColor" d="M480 24L440.2 5.9c-6.3 5.5-12 11.6-17.7 17.7-10.5 11.3-25.1 28.2-41.4 50.8-32.7 45.2-73 113.4-103.8 206l-10.5 31.6 157 0-72 240 128.3 0 0-528zm-48 85.1l0 154.9-54.2 0C393.5 197 414 145.6 432 109.1zM96 192c-26.5 0-48-21.5-48-48L48 24 0 24 0 192c0 49.5 37.5 90.3 85.6 95.4l-55.1 264.6 179 0-55.1-264.6c48.1-5.2 85.6-45.9 85.6-95.4l0-168-48 0 0 120c0 26.5-21.5 48-48 48l0-168-48 0 0 168zm54.5 312l-61 0 30.5-146.3 30.5 146.3z"/></svg>