<svg xmlns="http://www.w3.org/2000/svg" viewBox="0 0 576 576"><!--! Font Awesome Pro 7.1.0 by @fontawesome - https://fontawesome.com License - https://fontawesome.com/license (Commercial License) Copyright 2025 Fonticons, Inc. --><path fill="currentColor" d="M7 41l492 492 33.9-33.9-101-101 0-14.1c86.8 36.2 134.8 56.2 144 60l0-312c-9.2 3.8-57.2 23.9-144 60L432 72 105.9 72 41 7 7 41zm146.9 79L384 120 384 350.1 153.9 120zM504 362l-72-30 0-88 72-30 0 148zM96 189.9L18 112C6.7 127.7 0 147.1 0 168L0 408c0 53 43 96 96 96l314.1 0-48-48-218.1 0c-26.5 0-48-21.5-48-48l0-218.1z"/></svg>