<svg xmlns="http://www.w3.org/2000/svg" viewBox="0 0 576 576"><!--! Font Awesome Pro 7.1.0 by @fontawesome - https://fontawesome.com License - https://fontawesome.com/license (Commercial License) Copyright 2025 Fonticons, Inc. --><path fill="currentColor" d="M7.5 41l528 528 33.9-33.9-137-137 0-374.1-41.7-16.2-125 136.3c-28.6 .6-54.3 3.9-76.6 10.7L41.4 7 7.5 41zM235.1 200.6c11.6-5.7 25.5-8.6 41.4-8.6l10.6 0 97.4-106.3 0 264.4-149.4-149.4zM96.5 288c0 46.7 13.6 85.1 46.9 110.6 29.8 22.8 71.5 32.2 122.4 33.3l125 136.3 35.4-32.4-139.1-151.8-10.6 0c-25.3 0-45.6-7.5-59.5-21.5-13.9-13.9-24.5-37.1-24.5-74.5 0-.7 0-1.4 0-2l-77.1-77.1c-13.1 22-18.9 48.9-18.9 79.2z"/></svg>