<svg xmlns="http://www.w3.org/2000/svg" viewBox="0 0 576 576"><!--! Font Awesome Pro 7.1.0 by @fontawesome - https://fontawesome.com License - https://fontawesome.com/license (Commercial License) Copyright 2025 Fonticons, Inc. --><path fill="currentColor" d="M300.2 72c25.2 0 36-16.1 36-36s-10.8-36-36-36-36 16.1-36 36 10.8 36 36 36zm155-49.4l-17-17-17 17c-175 175-293 293-354 354l0 0-39.3 39.3c-37.3 37.3-36.4 98.1 2 134.2 37.2 35 95.6 33.7 131.2-2.9l156.2-160.8 233.9-233.9 17-17-17-17-96-96zm-354 387.9c83-83 157-157 221.8-221.8l62.1 62.1-221.8 221.8c-17.1 17.1-44.9 17.1-62.1 0s-17.1-44.9 0-62.1zM356.9 154.8l63.3-63.3 62.1 62.1-63.3 63.3-62.1-62.1zM120.2 142.1a22.1 22.1 0 1 1 0-44.2 22.1 22.1 0 1 1 0 44.2zM88.9 52.8c-4.1 17.9-18.1 31.9-36 36l-34.2 7.9 0 46.8 34.2 7.9c17.9 4.1 31.9 18.1 36 36l7.9 34.2 46.8 0 7.9-34.2c4.1-17.9 18.1-31.9 36-36l34.2-7.9 0-46.8-34.2-7.9c-17.9-4.1-31.9-18.1-36-36l-7.9-34.2-46.8 0-7.9 34.2zM478.3 456a22.1 22.1 0 1 1 -44.2 0 22.1 22.1 0 1 1 44.2 0zM432.8 354.6l-7.9 34.2c-4.1 17.9-18.1 31.8-36 36l-34.2 7.9 0 46.8 34.2 7.9c17.9 4.1 31.9 18.1 36 36l7.9 34.2 46.8 0 7.9-34.2c4.1-17.9 18.1-31.8 36-36l34.2-7.9 0-46.8-34.2-7.9c-17.9-4.1-31.8-18.1-36-36l-7.9-34.2-46.8 0zM312.2 540c0-19.9-10.8-36-36-36s-36 16.1-36 36 10.8 36 36 36 36-16.1 36-36z"/></svg>