<svg width="24" height="24" viewBox="0 0 24 24" fill="none" xmlns="http://www.w3.org/2000/svg">
<path fill-rule="evenodd" clip-rule="evenodd" d="M12.75 19.25V20C12.75 21.5188 11.5188 22.75 10 22.75H1.25V21.25H10C10.6904 21.25 11.25 20.6904 11.25 20V19.25H12.75Z" fill="#141B34"/>
<path fill-rule="evenodd" clip-rule="evenodd" d="M7.25 1.25H16.75V10H7.25V1.25ZM8.27372 11.5L9.75 13.2715V15.8105L12 18.0605L14.25 15.8105V13.2715L15.7263 11.5H8.27372ZM14.75 4.25V5.76H13.25V4.25H14.75ZM14.75 8.26V6.75H13.25V8.26H14.75Z" fill="#141B34"/>
<path d="M6 1.25H1.25V5.25H6V1.25Z" fill="#141B34"/>
<path d="M18 5.25H22.75V1.25H18V5.25Z" fill="#141B34"/>
</svg>
