<svg width="24" height="24" viewBox="0 0 24 24" fill="none" xmlns="http://www.w3.org/2000/svg">
<path fill-rule="evenodd" clip-rule="evenodd" d="M9.49994 3.25C7.15273 3.25 5.24994 5.15279 5.24994 7.5C5.24994 9.84721 7.15273 11.75 9.49994 11.75C11.8471 11.75 13.7499 9.84721 13.7499 7.5C13.7499 5.15279 11.8471 3.25 9.49994 3.25ZM18.7499 15.75V12.75H16.7499V15.75H13.7499V17.75H16.7499V20.75H18.7499V17.75H21.7499V15.75H18.7499ZM13.0234 11.7236C14.2315 10.7147 15.0002 9.19709 15.0002 7.5C15.0002 5.80291 14.2315 4.28535 13.0234 3.27644C13.1799 3.25897 13.339 3.25 13.5002 3.25C15.8474 3.25 17.7502 5.15279 17.7502 7.5C17.7502 9.84721 15.8474 11.75 13.5002 11.75C13.339 11.75 13.1799 11.741 13.0234 11.7236ZM9.49994 13.25C11.5402 13.25 13.4484 13.7063 15.0118 14.5H12.4999V19H15.4999V20.75H2.24994V15.6306L2.54284 15.4054C4.28942 14.0627 6.77716 13.25 9.49994 13.25Z" fill="#141B34"/>
</svg>
