<svg width="24" height="24" viewBox="0 0 24 24" fill="none" xmlns="http://www.w3.org/2000/svg">
<path d="M12 3.23828C17.1086 3.23828 21.25 7.37965 21.25 12.4883C21.25 14.714 20.4631 16.7555 19.1533 18.3516L21.4053 20.5752L20 21.998L17.7236 19.751C16.1487 20.9939 14.162 21.7383 12 21.7383C9.85069 21.7383 7.87422 21.0032 6.30371 19.7734L4 22L2.61035 20.5615L4.86816 18.3789C3.54517 16.779 2.75 14.7265 2.75 12.4883C2.75 7.37965 6.89137 3.23828 12 3.23828ZM11 12.9023L14 15.9023L15.4141 14.4883L13 12.0742V6.98828H11V12.9023ZM6.5 3.41406L2.41406 7.5L1 6.08594L5.08594 2L6.5 3.41406ZM23 6.08594L21.5859 7.5L17.5 3.41406L18.9141 2L23 6.08594Z" fill="#141B34"/>
</svg>
