<svg width="24" height="24" viewBox="0 0 24 24" fill="none" xmlns="http://www.w3.org/2000/svg">
<path d="M3.83585 12.6343C5.53299 13.709 8.1717 14.7505 11.9999 14.7505C15.8281 14.7505 18.4668 13.709 20.164 12.6343C21.0093 12.0989 21.615 11.5591 22.0136 11.146C22.3413 10.8064 22.7499 10.2251 22.7499 10.2251V5.75049H1.24991V10.2251C1.24991 10.2251 1.65854 10.8064 1.98624 11.146C2.38487 11.5591 2.99049 12.0989 3.83585 12.6343Z" fill="#141B34"/>
<path d="M22.7499 21.7495H1.24991V12.1724C1.70308 12.6201 2.33211 13.1602 3.1669 13.689C4.94243 14.8134 7.57576 15.8592 11.2499 15.9858V18.0005H12.7499V15.9858C16.4241 15.8592 19.0574 14.8134 20.8329 13.689C21.6677 13.1602 22.2967 12.6201 22.7499 12.1724V21.7495ZM16.2499 7.25049H14.7499V3.75049H9.24991V7.25049H7.74991V2.25049H16.2499V7.25049Z" fill="#141B34"/>
</svg>
