<svg width="24" height="24" viewBox="0 0 24 24" fill="none" xmlns="http://www.w3.org/2000/svg">
<path d="M22.75 21.75H1.25V12.1797C1.70908 12.617 2.42863 13.2114 3.08496 13.6689C4.6056 14.6612 6.78561 15.6114 9.75 15.9375V17.5H14.25V15.9365C17.4251 15.5873 19.7005 14.523 21.2295 13.457C21.7501 13.0706 22.35 12.5617 22.75 12.1797V21.75ZM12.75 16H11.25V14.5H12.75V16ZM16.25 5.75H22.75V10.2217C22.75 10.2217 22.2711 10.8784 22.0996 11.0645C21.7567 11.4366 21.2372 11.9279 20.5146 12.4316C19.1697 13.3692 17.1346 14.3375 14.25 14.6777V13H9.75V14.6777C6.86542 14.3375 4.83026 13.3692 3.48535 12.4316C2.76277 11.9279 2.2433 11.4366 1.90039 11.0645C1.72893 10.8784 1.25 10.2217 1.25 10.2217V5.75H7.75V2.25H16.25V5.75ZM9.25 5.75H14.75V3.75H9.25V5.75Z" fill="#141B34"/>
</svg>
