<svg width="24" height="24" viewBox="0 0 24 24" fill="none" xmlns="http://www.w3.org/2000/svg">
<path d="M19.3618 5.25015H22.7505V21.2502H1.25049V5.25015H9.63916L11.6401 2.75015H17.3608L19.3618 5.25015ZM14.5317 8.00015C11.7703 8.00015 9.53174 10.2387 9.53174 13.0002C9.53174 15.7616 11.7703 18.0002 14.5317 18.0002C17.293 18 19.5317 15.7615 19.5317 13.0002C19.5317 10.2388 17.293 8.00032 14.5317 8.00015ZM14.5317 10.0002C16.1885 10.0003 17.5317 11.3434 17.5317 13.0002C17.5317 14.6569 16.1885 16 14.5317 16.0002C12.8749 16.0002 11.5317 14.657 11.5317 13.0002C11.5317 11.3433 12.8749 10.0002 14.5317 10.0002ZM4.00049 10.0002H8.00049V8.00015H4.00049V10.0002Z" fill="#141B34"/>
</svg>
