<svg width="24" height="24" viewBox="0 0 24 24" fill="none" xmlns="http://www.w3.org/2000/svg">
<path d="M17.5854 3.03189L19.3608 5.25064H22.7495V21.2506H1.24951V5.25064H9.63818L11.4136 3.03189L11.6392 2.75064H17.3599L17.5854 3.03189ZM17.3286 13.6657C17.165 13.9926 16.7679 14.3986 16.2056 14.7292C15.6511 15.055 15.0312 15.2506 14.4995 15.2506C13.9678 15.2506 13.3479 15.0551 12.7935 14.7292C12.2311 14.3986 11.834 13.9926 11.6704 13.6657L11.3345 12.9948L9.99365 13.6657L10.3286 14.3356C10.6651 15.0085 11.3205 15.6029 12.0337 16.0221C12.5461 16.3233 13.1394 16.5612 13.7495 16.6754V18.2506H15.2495V16.6754C15.8596 16.5612 16.4529 16.3233 16.9653 16.0221C17.6786 15.6029 18.3339 15.0086 18.6704 14.3356L19.0054 13.6657L17.6636 12.9948L17.3286 13.6657ZM14.4995 7.75064C13.257 7.75077 12.2495 8.75808 12.2495 10.0006V12.0006L12.2612 12.2311C12.3766 13.3654 13.3348 14.2505 14.4995 14.2506C15.7421 14.2506 16.7495 13.2432 16.7495 12.0006V10.0006C16.7495 8.75805 15.7421 7.75072 14.4995 7.75064ZM3.99951 10.0006H7.99951V8.00064H3.99951V10.0006Z" fill="#141B34"/>
</svg>
