<svg width="24" height="24" viewBox="0 0 24 24" fill="none" xmlns="http://www.w3.org/2000/svg">
<path d="M12 2.25C12.6951 2.25 13.3788 2.25739 14.0479 2.27051C13.3889 3.17739 13 4.29322 13 5.5C13 8.53758 15.4625 11 18.5 11C20.1951 11 21.7098 10.2321 22.7188 9.02637C22.7382 9.66789 22.75 10.3274 22.75 11C22.75 13.92 22.5592 16.5937 22.2412 18.6162L22.1533 19.1748L21.5928 19.2441C19.2231 19.5383 16.1324 19.7226 12.7363 19.7461L7.25 22.75V19.6357C5.44455 19.5488 3.80158 19.4172 2.40723 19.2441L1.84668 19.1748L1.75879 18.6162C1.44082 16.5937 1.25 13.92 1.25 11C1.25 8.07998 1.44082 5.40627 1.75879 3.38379L1.84668 2.8252L2.40723 2.75586C4.94664 2.44064 8.31469 2.25 12 2.25ZM8.00879 10C7.45662 10.0001 7.00879 10.4478 7.00879 11C7.00879 11.5522 7.45662 11.9999 8.00879 12H8.01758L8.12012 11.9951C8.62433 11.9439 9.01758 11.5177 9.01758 11C9.01758 10.4823 8.62433 10.0561 8.12012 10.0049L8.01758 10H8.00879ZM12.0039 10C11.4519 10.0003 11.0039 10.4479 11.0039 11C11.0039 11.5521 11.4519 11.9997 12.0039 12H12.0137C12.5658 11.9998 13.0137 11.5522 13.0137 11C13.0137 10.4478 12.5658 10.0002 12.0137 10H12.0039Z" fill="#141B34"/>
<path d="M18.5 1.25C20.8472 1.25 22.75 3.15278 22.75 5.5C22.75 7.84722 20.8472 9.75 18.5 9.75C16.1528 9.75 14.25 7.84722 14.25 5.5C14.25 3.15278 16.1528 1.25 18.5 1.25ZM17.4395 5.49805L18.5 6.55859L20.5605 4.49805L19.5 3.4375L17.4395 5.49805Z" fill="#141B34"/>
</svg>
