<svg width="24" height="24" viewBox="0 0 24 24" fill="none" xmlns="http://www.w3.org/2000/svg">
<path d="M12 1.75C15.2248 1.75 18.2063 1.89591 20.6025 2.14355L21.5928 2.25586L22.1533 2.3252L22.2412 2.88379C22.5592 4.90627 22.75 7.57998 22.75 10.5C22.75 13.42 22.5592 16.0937 22.2412 18.1162L22.1533 18.6748L21.5928 18.7441C19.2231 19.0383 16.1324 19.2226 12.7363 19.2461L7.25 22.25V19.1357C5.44455 19.0488 3.80158 18.9172 2.40723 18.7441L1.84668 18.6748L1.75879 18.1162C1.44082 16.0937 1.25 13.42 1.25 10.5C1.25 7.57998 1.44082 4.90627 1.75879 2.88379L1.84668 2.3252L2.40723 2.25586C4.94664 1.94064 8.31469 1.75 12 1.75ZM12 5.75C10.7574 5.75 9.75 6.75736 9.75 8C9.75 8.81117 10.1805 9.52013 10.8242 9.91602C9.04909 10.4261 7.75 12.0608 7.75 14V14.75H16.25V14C16.25 12.0605 14.9504 10.4259 13.1748 9.91602C13.819 9.52021 14.25 8.81147 14.25 8C14.25 6.75736 13.2426 5.75 12 5.75Z" fill="#141B34"/>
</svg>
