<svg width="24" height="24" viewBox="0 0 24 24" fill="none" xmlns="http://www.w3.org/2000/svg">
<path fill-rule="evenodd" clip-rule="evenodd" d="M12 2.25C8.91146 2.25 6.2371 2.89111 4.31407 4.2647C2.35646 5.663 1.25 7.77101 1.25 10.5C1.25 14.6224 4.00275 17.4442 6.5804 19.1841C7.88125 20.0622 9.17673 20.6932 10.1441 21.1043C10.629 21.3104 12 21.75 12.75 21.75V18.7371C15.5214 18.6401 17.9203 17.9964 19.6859 16.7353C21.6435 15.337 22.75 13.229 22.75 10.5C22.75 7.77101 21.6435 5.663 19.6859 4.2647C17.7629 2.89111 15.0885 2.25 12 2.25ZM13 9.5V6H11V9.5H7.5V11.5H11V15H13V11.5H16.5V9.5H13Z" fill="#141B34"/>
</svg>
