<svg width="24" height="24" viewBox="0 0 24 24" fill="none" xmlns="http://www.w3.org/2000/svg">
<path d="M3.28849 15.2628C3.39058 14.9566 3.67718 14.75 4.00001 14.75H8.99969C9.3225 14.75 9.6091 14.9565 9.71119 15.2628L11.7115 21.2628C11.7878 21.4915 11.7494 21.7429 11.6084 21.9385C11.4675 22.1341 11.2411 22.25 11 22.25H2.00001C1.75892 22.25 1.53254 22.1341 1.39157 21.9385C1.25061 21.7429 1.21226 21.4915 1.28849 21.2628L3.28849 15.2628Z" fill="#141B34"/>
<path d="M14.2885 15.2628C14.3906 14.9566 14.6772 14.75 15 14.75H19.9997C20.3225 14.75 20.6091 14.9565 20.7112 15.2628L22.7115 21.2628C22.7878 21.4915 22.7494 21.7429 22.6084 21.9385C22.4675 22.1341 22.2411 22.25 22 22.25H13C12.7589 22.25 12.5325 22.1341 12.3916 21.9385C12.2506 21.7429 12.2123 21.4915 12.2885 21.2628L14.2885 15.2628Z" fill="#141B34"/>
<path d="M8.78849 6.76281C8.89058 6.45656 9.17718 6.24998 9.50001 6.24998H14.4997C14.8225 6.24998 15.1091 6.45654 15.2112 6.76278L17.2115 12.7628C17.2878 12.9915 17.2494 13.2429 17.1084 13.4385C16.9675 13.6341 16.7411 13.75 16.5 13.75H7.50001C7.25892 13.75 7.03254 13.6341 6.89157 13.4385C6.75061 13.2429 6.71226 12.9915 6.78849 12.7628L8.78849 6.76281Z" fill="#141B34"/>
<path fill-rule="evenodd" clip-rule="evenodd" d="M11 3.75003V1.75003H13V3.75003H11ZM8.29285 5.45714L6.79285 3.95714L8.20706 2.54292L9.70706 4.04292L8.29285 5.45714ZM14.2928 4.04292L15.7928 2.54292L17.2071 3.95714L15.7071 5.45714L14.2928 4.04292Z" fill="#141B34"/>
</svg>
