<svg width="24" height="24" viewBox="0 0 24 24" fill="none" xmlns="http://www.w3.org/2000/svg">
<path fill-rule="evenodd" clip-rule="evenodd" d="M12.4801 1.42383C12.202 1.19206 11.798 1.19206 11.5199 1.42383L8.72846 3.75H4.5C4.08579 3.75 3.75 4.08579 3.75 4.5V8.72846L1.42383 11.5199C1.19206 11.798 1.19206 12.202 1.42383 12.4801L3.75 15.2715V19.5C3.75 19.9142 4.08579 20.25 4.5 20.25H8.72846L11.5199 22.5762C11.798 22.8079 12.202 22.8079 12.4801 22.5762L15.2715 20.25H19.5C19.9142 20.25 20.25 19.9142 20.25 19.5V15.2715L22.5762 12.4801C22.8079 12.202 22.8079 11.798 22.5762 11.5199L20.25 8.72847V4.5C20.25 4.08579 19.9142 3.75 19.5 3.75H15.2715L12.4801 1.42383ZM7.75 9V14.25H6.5V15.75H8.5C8.91421 15.75 9.25 15.4142 9.25 15V9H7.75ZM13.75 12.75V9H12.25V10.3619L11.5857 9.53148L10.4143 10.4685L12.25 12.7631V14.25H10.5V15.75H13C13.4142 15.75 13.75 15.4142 13.75 15V14.25H17.5C17.7883 14.25 18.0511 14.0847 18.176 13.8249C18.3009 13.565 18.2658 13.2566 18.0857 13.0315L16.0857 10.5315L14.9143 11.4685L15.9395 12.75H13.75Z" fill="#141B34"/>
</svg>
