<svg width="24" height="24" viewBox="0 0 24 24" fill="none" xmlns="http://www.w3.org/2000/svg">
<path d="M12 2.25C17.3848 2.25 21.75 6.61522 21.75 12C21.75 13.5364 21.3169 15.6557 20.8076 17.1836L20.6484 17.6602C20.6246 17.7593 20.598 17.8585 20.5654 17.957L20.0684 19.4453C19.3765 21.2278 17.402 22.1743 15.5674 21.5645L15.5654 21.5635L13.791 20.9678L16.6074 12.9102L18.2451 13.377L18.2607 13.3809L18.2764 13.3867C18.7715 13.5514 19.2062 13.8141 19.5684 14.1445C19.711 13.3668 19.7998 12.6095 19.7998 12C19.7998 7.69218 16.3078 4.2002 12 4.2002C7.69218 4.2002 4.2002 7.69218 4.2002 12C4.2002 12.6094 4.288 13.3668 4.43066 14.1445C4.79292 13.8138 5.22824 13.5515 5.72363 13.3867L5.73926 13.3809L5.75488 13.377L7.39258 12.9102L10.209 20.9678L8.43457 21.5635L8.43262 21.5645C6.59804 22.1743 4.6235 21.2278 3.93164 19.4453L3.43457 17.957C3.40194 17.8585 3.37439 17.7593 3.35059 17.6602L3.19238 17.1836L3.00586 16.585C2.58183 15.1348 2.25 13.3443 2.25 12C2.25 6.61522 6.61522 2.25 12 2.25Z" fill="#141B34"/>
</svg>
