<svg width="24" height="24" viewBox="0 0 24 24" fill="none" xmlns="http://www.w3.org/2000/svg">
<path d="M14 19V5C14 4.44772 13.5523 4 13 4H12V2H13C13.7695 2 14.469 2.29228 15 2.76855C15.531 2.29228 16.2305 2 17 2H18V4H17C16.4477 4 16 4.44772 16 5V19C16 19.5523 16.4477 20 17 20H18V22H17C16.2305 22 15.531 21.7077 15 21.2314C14.469 21.7077 13.7695 22 13 22H12V20H13C13.5523 20 14 19.5523 14 19Z" fill="#141B34"/>
<path d="M12.75 5.25L1.25 5.25L1.25 18.75L12.75 18.75L12.75 5.25ZM22.75 5.25L17.25 5.25V18.75H22.75L22.75 5.25ZM7.91504 13.75H6.08496L5.5459 15.9102L4.09082 15.5459L5.91406 8.25L8.08594 8.25L9.90918 15.5459L8.4541 15.9102L7.91504 13.75ZM7 10.0918L6.45996 12.25H7.54004L7 10.0918Z" fill="#141B34"/>
</svg>
