<svg width="24" height="24" viewBox="0 0 24 24" fill="none" xmlns="http://www.w3.org/2000/svg">
<path fill-rule="evenodd" clip-rule="evenodd" d="M5.6475 7.67276C5.67874 7.53051 5.71191 7.38954 5.74702 7.24995H18.253C18.2881 7.38954 18.3213 7.53051 18.3525 7.67276C18.8403 9.89362 19.9153 11.9929 21.0993 14.0573C21.458 14.6828 21.75 15.4057 21.75 16.1316C21.75 16.8396 21.4801 17.4935 21.1613 18.0725C20.9244 18.503 20.6244 18.952 20.3349 19.3852C20.2401 19.5272 20.1463 19.6676 20.0562 19.805L20.0406 19.8289C19.5096 20.6394 19.0919 21.277 18.7609 21.7226C18.5938 21.9476 18.4309 22.1483 18.2711 22.3059C18.1245 22.4505 17.909 22.6325 17.6279 22.7089C17.3567 22.7827 17.0912 22.7436 16.8922 22.6957C16.6811 22.6448 16.4513 22.5599 16.2111 22.4585C15.7374 22.2585 15.1116 21.9452 14.3232 21.5507L14.296 21.5371C13.5283 21.1529 12.7617 20.9192 12 20.9192C11.2383 20.9192 10.4717 21.1529 9.70396 21.5371L9.67685 21.5507C8.88844 21.9452 8.26261 22.2584 7.78887 22.4585C7.54871 22.5599 7.31893 22.6448 7.1078 22.6957C6.90879 22.7436 6.64334 22.7827 6.37212 22.7089C6.09101 22.6325 5.87547 22.4505 5.72893 22.3059C5.56913 22.1483 5.40624 21.9476 5.23908 21.7226C4.90809 21.277 4.49036 20.6394 3.9594 19.8289L3.94376 19.805C3.85367 19.6675 3.75987 19.5271 3.66496 19.3851C3.37551 18.9518 3.07566 18.503 2.83869 18.0725C2.5199 17.4935 2.25 16.8396 2.25 16.1316C2.25 15.4057 2.54201 14.6828 2.90075 14.0573C4.08473 11.9929 5.15966 9.89362 5.6475 7.67276ZM9.03191 20.1957C8.43559 20.4941 7.96532 20.7293 7.59032 20.9041C7.72066 20.328 7.83137 19.6867 7.9017 19.045C8.03226 17.8538 8.04317 16.5022 7.6677 15.5508C7.39269 14.854 7.69556 14.0572 8.35941 13.2619C8.87459 12.6446 9.27464 11.918 9.49183 11.1192C9.7333 10.2311 10.0817 9.64624 10.4821 9.28606C10.869 8.9379 11.3589 8.74995 12.0001 8.74995C12.6413 8.74995 13.1312 8.9379 13.5181 9.28606C13.9185 9.64624 14.2669 10.2311 14.5084 11.1192C14.7256 11.918 15.1256 12.6446 15.6408 13.2619C16.3046 14.0572 16.6075 14.854 16.3325 15.5508C15.957 16.5022 15.9679 17.8538 16.0985 19.045C16.1689 19.687 16.2797 20.3287 16.4101 20.905C16.0348 20.7301 15.5639 20.4946 14.9666 20.1957C14.0685 19.7463 13.068 19.4192 11.9993 19.4192C10.9305 19.4192 9.92997 19.7463 9.03191 20.1957Z" fill="#141B34"/>
<path d="M7.79521 3.12609C8.86382 1.95128 10.2774 1.24995 12 1.24995C13.7226 1.24995 15.1362 1.95128 16.2048 3.12609C16.5132 3.46517 16.7915 3.84175 17.0406 4.24995H19V5.74995H5V4.24995H6.95937C7.20855 3.84175 7.48678 3.46517 7.79521 3.12609Z" fill="#141B34"/>
</svg>
