<svg width="24" height="24" viewBox="0 0 24 24" fill="none" xmlns="http://www.w3.org/2000/svg">
<path d="M1.99804 2.24988C1.78058 2.24988 1.57383 2.34426 1.43138 2.50855C1.28893 2.67285 1.22479 2.89089 1.2556 3.10615L2.3497 10.75H3.99803L3.99803 22.0004H5.99803L5.99803 10.75H7.65065L8.74053 3.10574C8.77121 2.89053 8.70701 2.6726 8.56456 2.5084C8.42211 2.3442 8.21542 2.24988 7.99804 2.24988H1.99804Z" fill="#141B34"/>
<path d="M13.002 13.3893L13.002 1.99976H11.002L11.002 13.3893C10.3676 13.5688 9.80848 13.9069 9.36843 14.3183C8.72171 14.9229 8.25195 15.7648 8.25195 16.6248C8.25195 17.661 8.63901 18.8899 9.24333 19.8639C9.82575 20.8026 10.7717 21.7498 12.002 21.7498C13.2322 21.7498 14.1782 20.8026 14.7606 19.8639C15.3649 18.8899 15.752 17.661 15.752 16.6248C15.752 15.7648 15.2822 14.9229 14.6355 14.3183C14.1954 13.9069 13.6363 13.5688 13.002 13.3893Z" fill="#141B34"/>
<path d="M18.2497 2.29184C18.0202 2.21158 17.7662 2.24745 17.5679 2.38809C17.3697 2.52874 17.252 2.75672 17.252 2.99976V21.9998H19.252L19.252 14.7498H22.002C22.2125 14.7498 22.4133 14.6613 22.5554 14.5059C22.6975 14.3505 22.7677 14.1426 22.749 13.9329L22.1061 6.75376L22.1043 6.73527C21.8445 4.46777 20.2762 3.00094 18.2497 2.29184Z" fill="#141B34"/>
</svg>
