<svg width="24" height="24" viewBox="0 0 24 24" fill="none" xmlns="http://www.w3.org/2000/svg">
<path d="M14.9379 3.2978C16.6971 1.90708 19.0904 1.90034 20.8557 3.27757C21.2556 3.54605 21.5636 3.92541 21.7963 4.28978C22.0387 4.66922 22.2267 5.07589 22.3662 5.42721L22.75 6.95872L20.615 7.79792L20.0155 9.93027L18.1746 10.3309L17.797 12.3855L15.9087 12.7964L15.5766 14.6032L12.4408 17.548C12.1703 17.802 11.7556 17.8179 11.4668 17.5853L9.54941 16.0417L5.68995 20.6442C4.82439 21.9591 3.0252 22.1441 1.94475 20.9685C1.01842 19.9605 1.01842 18.3488 1.94475 17.3409L13.7913 4.45066C14.3008 3.89607 14.6186 3.55018 14.9379 3.2978Z" fill="#141B34"/>
</svg>
