<svg width="24" height="24" viewBox="0 0 24 24" fill="none" xmlns="http://www.w3.org/2000/svg">
<path fill-rule="evenodd" clip-rule="evenodd" d="M10.1649 1.82675L9.87368 1.25L4.76255 2.94265C4.50092 3.02929 4.30833 3.25143 4.26107 3.52107L2.26107 14.9323C2.22314 15.1487 2.28351 15.3707 2.42601 15.5389C2.56852 15.707 2.7786 15.804 2.99998 15.804H6.0254L5.25577 21.9135C5.22909 22.1253 5.29536 22.3383 5.43772 22.4983C5.58009 22.6583 5.78486 22.75 5.99998 22.75H18C18.2151 22.75 18.4199 22.6583 18.5622 22.4983C18.7046 22.3383 18.7709 22.1253 18.7442 21.9135L17.9746 15.804H21C21.2214 15.804 21.4314 15.707 21.574 15.5389C21.7165 15.3707 21.7768 15.1487 21.7389 14.9323L19.7389 3.52107C19.6916 3.25143 19.499 3.02929 19.2374 2.94265L14.1263 1.25L13.835 1.82675C13.6003 2.29163 13.208 2.61195 12.75 2.77625V9H11.25V2.77624C10.792 2.61195 10.3997 2.29163 10.1649 1.82675ZM6.39929 12.8276L6.21182 14.3158H3.8906L4.15143 12.8276H6.39929ZM17.5985 12.8276H19.8464L20.1072 14.3158H17.786L17.5985 12.8276Z" fill="#141B34"/>
</svg>
