<svg width="24" height="24" viewBox="0 0 24 24" fill="none" xmlns="http://www.w3.org/2000/svg">
<path d="M11.3574 2.48548C12.8602 1.12772 15.1806 1.17296 16.6289 2.62122C17.4208 3.41316 17.7931 4.46597 17.7461 5.50306C18.7835 5.45572 19.8367 5.82907 20.6289 6.62122L20.7646 6.76478C22.0784 8.21914 22.0785 10.4384 20.7646 11.8927L20.6289 12.0353L13.6641 19.0001L15.7499 21.0859L14.3358 22.5L12.25 20.4142C11.4692 19.6332 11.4692 18.3671 12.25 17.5861L19.2148 10.6212L19.3398 10.4826C19.8866 9.8123 19.8864 8.84526 19.3398 8.17494L19.2148 8.03529C18.5454 7.36591 17.4857 7.32444 16.7676 7.91029L16.6289 8.03529L9.75 14.9142L8.33594 13.5001L15.2148 6.62122L15.3398 6.48255C15.9256 5.76438 15.8843 4.70474 15.2148 4.03529C14.5454 3.36591 13.4857 3.32444 12.7676 3.91029L12.6289 4.03529L3.66406 13.0001L2.25 11.5861L11.2148 2.62122L11.3574 2.48548Z" fill="#141B34"/>
<path d="M12.1426 16.5145C10.6398 17.8723 8.31936 17.8271 6.87109 16.3788C5.42285 14.9304 5.37768 12.6101 6.73535 11.1073L6.87109 10.9647L13.75 4.08581L15.1641 5.49987L8.28516 12.3788L8.16016 12.5174C7.57439 13.2356 7.61576 14.2953 8.28516 14.9647C8.95454 15.6341 10.0143 15.6755 10.7324 15.0897L10.8711 14.9647L17.75 8.08581L19.1641 9.49987L12.2852 16.3788L12.1426 16.5145Z" fill="#141B34"/>
</svg>
