<svg width="24" height="24" viewBox="0 0 24 24" fill="none" xmlns="http://www.w3.org/2000/svg">
<path fill-rule="evenodd" clip-rule="evenodd" d="M19.0432 12.432L22.4218 9.05346C22.5807 9.63444 22.6847 10.2384 22.7278 10.8595C22.75 11.1796 22.75 11.5514 22.75 12.2105V12.2895C22.75 12.9486 22.75 13.3205 22.7278 13.6405C22.4082 18.2443 18.7443 21.9083 14.1405 22.2278C13.8204 22.25 13.4486 22.25 12.7895 22.25H11.2105C10.5514 22.25 10.1796 22.25 9.85949 22.2278C8.63831 22.1431 7.48219 21.8226 6.43709 21.3113L1.47483 22.75L2.77921 18.0955C1.92471 16.8022 1.38603 15.2805 1.2722 13.6405C1.24999 13.3205 1.24999 12.9486 1.25 12.2896V12.2895V12.2895V12.2105V12.2105V12.2105C1.24999 11.5514 1.24999 11.1796 1.2722 10.8595C1.59176 6.25575 5.25571 2.59179 9.85949 2.27223C10.1795 2.25002 10.5514 2.25002 11.2105 2.25003H11.2105H11.2105H12.7895H12.7895H12.7896C13.4486 2.25002 13.8205 2.25002 14.1405 2.27223C15.0696 2.33673 15.9604 2.53743 16.7932 2.85458V3.81802L13.5684 6.95711L19.0432 12.432ZM9.00897 11.5H7V13.5H9.00897V11.5ZM13.0045 11.5H10.9955V13.5H13.0045V11.5Z" fill="#141B34"/>
<path fill-rule="evenodd" clip-rule="evenodd" d="M19.043 10.6642L22.7502 6.95708L21.3359 5.54286L20.043 6.83576V1.24997H18.043V6.83576L16.7502 5.54286L15.3359 6.95708L19.043 10.6642Z" fill="#141B34"/>
</svg>
