<svg width="24" height="24" viewBox="0 0 24 24" fill="none" xmlns="http://www.w3.org/2000/svg">
<path fill-rule="evenodd" clip-rule="evenodd" d="M5.22009 1.2502L18.7807 1.25C19.0377 1.25 19.2841 1.35299 19.4658 1.53632C19.6475 1.71965 19.7495 1.96829 19.7494 2.22752L19.748 7.09116L17.8106 7.09066L17.8118 3.20456L6.18878 3.20473L6.18869 7.09093L4.2513 7.09089L4.25141 2.22746C4.25142 1.68774 4.68511 1.25021 5.22009 1.2502ZM17.8126 20.7955L17.8106 16.9095L19.748 16.9087L19.7504 21.7723C19.7505 22.0316 19.6485 22.2803 19.4668 22.4636C19.2851 22.647 19.0387 22.75 18.7817 22.75H5.21907C4.96213 22.75 4.71571 22.647 4.53404 22.4637C4.35237 22.2804 4.25033 22.0318 4.25037 21.7726L4.2513 16.9089L6.18869 16.9092L6.18791 20.7955H17.8126Z" fill="#141B34"/>
<path fill-rule="evenodd" clip-rule="evenodd" d="M13.5004 19H10.5004V17H13.5004V19Z" fill="#141B34"/>
<path d="M5.00133 6.99957L5.00145 1.99978L19.0004 1.99957L18.9989 6.99957M5.00133 16.9996L5.00037 21.9996H19.0013L18.9989 16.9996" stroke="#141B34" stroke-width="1.5" stroke-linejoin="round"/>
<path fill-rule="evenodd" clip-rule="evenodd" d="M17.2927 8.29218L15.8785 9.70639L18.1713 11.9993L15.8785 14.2922L17.2927 15.7064L20.9998 11.9993L17.2927 8.29218Z" fill="#141B34"/>
<path fill-rule="evenodd" clip-rule="evenodd" d="M6.70733 8.29248L8.12154 9.70669L5.82865 11.9996L8.12154 14.2925L6.70733 15.7067L3.00022 11.9996L6.70733 8.29248Z" fill="#141B34"/>
</svg>
