<svg width="24" height="24" viewBox="0 0 24 24" fill="none" xmlns="http://www.w3.org/2000/svg">
<path d="M17.75 17.75H14.75V15.75H17.75V12.75H19.75V15.75H22.75V17.75H19.75V20.75H17.75V17.75Z" fill="#141B34"/>
<path fill-rule="evenodd" clip-rule="evenodd" d="M2.18164 3.4834C6.10583 4.46445 8.25974 4.45314 10.0254 4.21777C11.7553 3.98712 13.4431 3.46094 16 3.46094C18.063 3.46094 19.624 3.71901 20.6816 3.9834C21.8825 4.2836 22.75 4.74707 22.75 4.74707V14.5H21V11.5H16.5V14.5H13.5V17.9707C12.3977 18.133 11.4388 18.3674 10.2246 18.5293C8.24039 18.7939 5.89364 18.7825 1.81836 17.7637L1.25 17.6221V3.25L2.18164 3.4834ZM2.75 16.4453C3.97844 16.735 5.02444 16.9228 5.93652 17.0352C5.64449 15.4095 4.37031 14.1238 2.75 13.8164V16.4453ZM11.999 8.25C10.3424 8.25026 9 9.59331 9 11.25C9 12.9067 10.3424 14.2497 11.999 14.25C13.6559 14.25 15 12.9069 15 11.25C15 9.59315 13.6559 8.25 11.999 8.25ZM18.5176 5.10938C18.6782 6.71838 19.8915 8.18917 21.25 8.60352V5.71875C21.028 5.63971 20.718 5.5384 20.3184 5.43848C19.8441 5.31991 19.2437 5.19951 18.5176 5.10938ZM2.75 8.17285C4.11698 7.88886 5.28651 6.86469 5.74512 5.69629C4.86529 5.5876 3.87868 5.41524 2.75 5.15918V8.17285Z" fill="#141B34"/>
</svg>
