<svg width="24" height="24" viewBox="0 0 24 24" fill="none" xmlns="http://www.w3.org/2000/svg">
<path fill-rule="evenodd" clip-rule="evenodd" d="M15.8965 7.1476L15.6771 10.1289L15.6827 10.174C15.7161 10.4489 15.725 10.7243 15.7104 10.9998H17.2135C17.7428 10.9998 18.2503 11.2105 18.6246 11.5856C18.9988 11.9607 19.209 12.4694 19.209 12.9998V21.9998C19.209 22.2651 19.1575 22.5183 19.0639 22.7499H22.5004L21.5219 7.15177C21.8691 6.41146 21.9993 5.72423 21.9388 5.08325C21.8731 4.38744 21.5893 3.8168 21.2397 3.35197C20.8962 2.89527 20.4759 2.52386 20.1158 2.2242C20.0612 2.17878 19.6899 1.92493 19.342 1.6871C19.0376 1.47902 18.7511 1.2832 18.7105 1.25C18.67 1.28315 18.3835 1.47904 18.0791 1.68718C17.7313 1.92502 17.3601 2.17887 17.3056 2.2242C16.9456 2.52384 16.5253 2.89522 16.1817 3.35188C15.832 3.81665 15.5481 4.38724 15.4822 5.08301C15.4216 5.72282 15.5509 6.40875 15.8965 7.1476ZM20.2799 6.2501H17.1405C16.9811 5.83136 16.9464 5.49572 16.972 5.225C17.0055 4.87167 17.1485 4.55833 17.3765 4.25524C17.6107 3.94404 17.9189 3.66364 18.2616 3.37846C18.3293 3.32216 18.4012 3.26346 18.4753 3.20305C18.5523 3.1402 18.6316 3.07551 18.7106 3.00977C18.7895 3.07537 18.8687 3.13992 18.9456 3.20264C19.0197 3.26315 19.092 3.32207 19.1597 3.37846C19.5024 3.66363 19.8106 3.944 20.0446 4.25516C20.2725 4.55819 20.4154 4.87147 20.4488 5.22476C20.4743 5.49551 20.4395 5.83123 20.2799 6.2501Z" fill="#141B34"/>
<path fill-rule="evenodd" clip-rule="evenodd" d="M11.5131 16.3437C12.2528 17.0825 12.9832 18.2664 12.9738 20.002V22.75H17.2142C17.6275 22.75 17.9625 22.4142 17.9625 22V13C17.9625 12.8011 17.8837 12.6103 17.7434 12.4697C17.603 12.329 17.4127 12.25 17.2142 12.25H14.1665C14.4308 11.5789 14.5198 10.938 14.4454 10.3251C14.3299 9.37342 13.8348 8.61094 13.247 8.0031C12.6638 7.40004 11.9463 6.90524 11.3077 6.49193C11.1388 6.38259 10.9781 6.28046 10.8261 6.18387C10.5043 5.97932 10.2205 5.79901 9.9807 5.62779V4.66129C10.2783 4.56718 10.5446 4.40241 10.7593 4.18724L9.70101 3.12658C9.62407 3.20369 9.51995 3.25006 9.40359 3.25006C9.17129 3.25006 8.98297 3.06131 8.98297 2.82848C8.98297 2.71186 9.02923 2.6075 9.10617 2.53039L8.04792 1.46973C7.70179 1.81664 7.48638 2.29806 7.48638 2.82848C7.48638 3.55581 7.88955 4.18875 8.48411 4.51506V5.62857C8.24436 5.7997 7.96156 5.97945 7.63981 6.18394C7.488 6.28044 7.32706 6.38272 7.15834 6.49193C6.51982 6.90523 5.80226 7.40001 5.21892 8.00302C4.63097 8.6108 4.13567 9.37319 4.01976 10.3248C3.94511 10.9378 4.03386 11.5788 4.29793 12.25H2.2483C1.83502 12.25 1.5 12.5858 1.5 13V22.75H6.48874V20.002C6.47938 18.2664 7.20975 17.0825 7.94946 16.3437C8.31472 15.9788 8.67988 15.7239 8.95574 15.5589C9.09421 15.4761 9.73127 15.1929 9.73127 15.1929C9.73127 15.1929 10.3683 15.4761 10.5068 15.5589C10.7827 15.7239 11.1478 15.9788 11.5131 16.3437ZM5.95531 12.25C5.54123 11.519 5.45119 10.9511 5.50533 10.5066C5.56831 9.9895 5.84142 9.51439 6.2934 9.04717C6.74999 8.57518 7.34386 8.15746 7.97025 7.75201C8.1032 7.66595 8.24053 7.57877 8.3788 7.491C8.66936 7.30653 8.96434 7.11927 9.23296 6.9334C9.50139 7.1191 9.79614 7.3062 10.0865 7.4905C10.2249 7.57837 10.3627 7.66586 10.4958 7.75201C11.1222 8.15745 11.716 8.57514 12.1724 9.04709C12.6241 9.51424 12.897 9.98927 12.9598 10.5063C13.0137 10.9508 12.9234 11.5188 12.5089 12.25H5.95531Z" fill="#141B34"/>
<path d="M11.4772 19.9956L11.4772 22.75H7.98533V19.9999L7.98532 19.9956C7.97805 18.7324 8.4945 17.9169 9.0059 17.4061C9.26636 17.146 9.53677 16.9582 9.73127 16.8419C9.92577 16.9582 10.1962 17.146 10.4566 17.4061C10.968 17.9169 11.4845 18.7324 11.4772 19.9956Z" fill="#141B34"/>
</svg>
