<svg width="24" height="24" viewBox="0 0 24 24" fill="none" xmlns="http://www.w3.org/2000/svg">
<path d="M7.75 5.74023H9.25V7.25H7.75V5.74023Z" fill="#141B34"/>
<path d="M22.75 11.25L7.25 11.25L7.25 22.75L22.75 22.75V11.25ZM19.25 16.1895L17.25 18.1895L13 13.9395L8.75 18.1895L8.75 12.75L21.25 12.75V18.1895L19.25 16.1895ZM18.25 15.7598V14.25H16.75V15.7598H18.25Z" fill="#141B34"/>
<path d="M20.25 5.25H16.8105L18.5605 7L17.5 8.06055L13.9395 4.5L17.5 0.939453L18.5605 2L16.8105 3.75L21.75 3.75V9.75H20.25V5.25Z" fill="#141B34"/>
<path d="M6 10H8.06055L5.5 7.43945L2.75 10.1895V3.75H11.25V10H12.75V2.25H1.25V17.75H6V10Z" fill="#141B34"/>
</svg>
