<svg width="24" height="24" viewBox="0 0 24 24" fill="none" xmlns="http://www.w3.org/2000/svg">
<path d="M22.75 14.0859L15.8359 21L12.4219 17.5859L13.8359 16.1719L15.8359 18.1719L21.3359 12.6719L22.75 14.0859Z" fill="#141B34"/>
<path fill-rule="evenodd" clip-rule="evenodd" d="M2.18176 3.2334C6.10596 4.21445 8.25987 4.20314 10.0255 3.96777C11.7554 3.73712 13.4432 3.21094 16.0001 3.21094C18.0632 3.21094 19.6241 3.46901 20.6818 3.7334C21.8827 4.0336 22.7501 4.49707 22.7501 4.49707V12.3203L21.3361 10.9062L15.8361 16.4062L13.8361 14.4062L10.6544 17.5879L11.1935 18.127C10.8846 18.1807 10.5649 18.2339 10.2247 18.2793C8.24051 18.5439 5.89377 18.5325 1.81848 17.5137L1.25012 17.3721V3L2.18176 3.2334ZM2.75012 16.1953C3.97856 16.485 5.02456 16.6728 5.93665 16.7852C5.64461 15.1595 4.37043 13.8738 2.75012 13.5664V16.1953ZM11.9991 8C10.3425 8.00026 9.00012 9.34331 9.00012 11C9.00012 12.6567 10.3425 13.9997 11.9991 14C13.656 14 15.0001 12.6569 15.0001 11C15.0001 9.34315 13.656 8 11.9991 8ZM18.5177 4.85938C18.6783 6.46838 19.8917 7.93917 21.2501 8.35352V5.46875C21.0281 5.38971 20.7181 5.2884 20.3185 5.18848C19.8442 5.06991 19.2438 4.94951 18.5177 4.85938ZM2.75012 7.92285C4.11711 7.63886 5.28663 6.61469 5.74524 5.44629C4.86541 5.3376 3.87881 5.16524 2.75012 4.90918V7.92285Z" fill="#141B34"/>
</svg>
