<svg width="24" height="24" viewBox="0 0 24 24" fill="none" xmlns="http://www.w3.org/2000/svg">
<path d="M15.5 16.5605L11.9805 20.0811C10.9117 21.1498 9.46168 21.7499 7.9502 21.75C4.80231 21.75 2.25 19.1977 2.25 16.0498C2.25012 14.5383 2.85017 13.0883 3.91895 12.0195L7.43848 8.49902L15.5 16.5605Z" fill="#141B34"/>
<path d="M16.0498 2.25C19.1977 2.25 21.75 4.80231 21.75 7.9502C21.7499 9.46168 21.1498 10.9117 20.0811 11.9805L18.1514 13.9092L10.0898 5.84766L12.0195 3.91895C13.0883 2.85017 14.5383 2.25012 16.0498 2.25Z" fill="#141B34"/>
<path d="M22.4141 21L21 22.4141L1.58594 3L3 1.58594L22.4141 21Z" fill="#141B34"/>
</svg>
