<svg width="24" height="24" viewBox="0 0 24 24" fill="none" xmlns="http://www.w3.org/2000/svg">
<path d="M20.75 22.75H3.25V1.25H20.75V22.75ZM10 13.25C8.48122 13.25 7.25 14.4812 7.25 16C7.25 17.5188 8.48122 18.75 10 18.75H11.25V13.25H10ZM12.75 13.25V18.75H14C15.5188 18.75 16.75 17.5188 16.75 16C16.75 14.4812 15.5188 13.25 14 13.25H12.75ZM10 5.25C8.48122 5.25 7.25 6.48122 7.25 8C7.25 9.51878 8.48122 10.75 10 10.75H11.25V5.25H10ZM12.75 10.75H14C15.5188 10.75 16.75 9.51878 16.75 8C16.75 6.48122 15.5188 5.25 14 5.25H12.75V10.75Z" fill="#141B34"/>
</svg>
