<svg width="24" height="24" viewBox="0 0 24 24" fill="none" xmlns="http://www.w3.org/2000/svg">
<path fill-rule="evenodd" clip-rule="evenodd" d="M9.38059 2.1204C9.17302 1.76686 8.72003 1.64549 8.36351 1.84791L4.89941 3.81472C4.7248 3.91387 4.59723 4.07888 4.54526 4.27284C4.4933 4.4668 4.52128 4.67349 4.62294 4.84665C5.76127 6.78558 4.30593 9.28336 2.00018 9.28336C1.58597 9.28336 1.25018 9.61914 1.25018 10.0334V13.967C1.25018 14.3812 1.58597 14.717 2.00018 14.717C4.30535 14.717 5.75993 17.2143 4.62136 19.1536C4.5197 19.3268 4.49172 19.5334 4.54368 19.7274C4.59565 19.9214 4.72321 20.0864 4.89783 20.1855L8.36193 22.1523C8.71845 22.3547 9.17144 22.2334 9.37901 21.8798C10.5541 19.8784 13.4479 19.8783 14.6229 21.8797C14.8305 22.2333 15.2835 22.3547 15.64 22.1522L19.1041 20.1854C19.2787 20.0863 19.4063 19.9213 19.4583 19.7273C19.5102 19.5333 19.4823 19.3267 19.3806 19.1535C18.2418 17.2138 19.6956 14.717 22.0002 14.717C22.4144 14.717 22.7502 14.3812 22.7502 13.967V10.0334C22.7502 9.61914 22.4144 9.28336 22.0002 9.28336C19.695 9.28336 18.2404 6.78608 19.379 4.84674C19.4807 4.67358 19.5086 4.46689 19.4567 4.27294C19.4047 4.07898 19.2772 3.91396 19.1025 3.81482L15.6384 1.84801C15.2819 1.64559 14.8289 1.76695 14.6214 2.1205C13.4471 4.12071 10.5549 4.12068 9.38059 2.1204ZM11.804 11.0001L13.8777 7.68207L12.1817 6.62207L8.1955 13.0001H12.1955L10.1217 16.3181L11.8177 17.3781L15.804 11.0001H11.804Z" fill="#141B34"/>
</svg>
