<svg width="24" height="24" viewBox="0 0 24 24" fill="none" xmlns="http://www.w3.org/2000/svg">
<path fill-rule="evenodd" clip-rule="evenodd" d="M5.75 5.75V1.5H7.25V5.75H5.75ZM16.75 5.75V1.5H18.25V5.75H16.75Z" fill="#141B34"/>
<path fill-rule="evenodd" clip-rule="evenodd" d="M2.25 3.75C2.25 3.33579 2.58579 3 3 3H21C21.4142 3 21.75 3.33579 21.75 3.75V21.75C21.75 22.1642 21.4142 22.5 21 22.5H3C2.58579 22.5 2.25 22.1642 2.25 21.75V3.75ZM20.25 8H3.75V4.5H20.25V8ZM11.0818 13.1066C10.4314 13.4985 10 14.209 10 15.0193C10 16.2513 10.9987 17.2501 12.2308 17.2501C13.0411 17.2501 13.7515 16.8187 14.1435 16.1682L15.8565 17.2005C15.1178 18.4265 13.7709 19.2501 12.2308 19.2501C9.89418 19.2501 8 17.3559 8 15.0193C8 13.4791 8.8236 12.1323 10.0496 11.3936L11.0818 13.1066ZM13.5 12.75C12.9477 12.75 12.5 13.1977 12.5 13.75C12.5 14.3023 12.9477 14.75 13.5 14.75H13.509C14.0613 14.75 14.509 14.3023 14.509 13.75C14.509 13.1977 14.0613 12.75 13.509 12.75H13.5Z" fill="#141B34"/>
</svg>
