<svg width="24" height="24" viewBox="0 0 24 24" fill="none" xmlns="http://www.w3.org/2000/svg">
<path fill-rule="evenodd" clip-rule="evenodd" d="M12.9334 15.2213C14.0413 13.6684 16.0207 12.8879 17.9584 13.413C19.2406 13.7604 20.2569 14.6137 20.8519 15.701L19.2084 16.6207C18.8502 15.9661 18.2418 15.4563 17.4722 15.2478C15.9692 14.8405 14.4242 15.7425 14.0215 17.2625L13.8349 17.9665H12.2584L10.75 15.124L12.4051 14.2258L12.9334 15.2213ZM21.3495 18.0335H19.651L19.4645 18.7375C19.0618 20.2575 17.5168 21.1595 16.0138 20.7522C15.262 20.5485 14.6642 20.0574 14.3029 19.4246L12.6762 20.3744C13.2764 21.4256 14.2753 22.2477 15.5276 22.587C17.4798 23.116 19.4745 22.3197 20.5775 20.7435L21.0656 21.7436L22.75 20.9029L21.3495 18.0335Z" fill="#141B34"/>
<path fill-rule="evenodd" clip-rule="evenodd" d="M7.83085 1.85608C7.98843 1.4884 8.34997 1.25 8.75 1.25H13.75C14.15 1.25 14.5116 1.4884 14.6691 1.85608L15.9094 4.75H21.25V6.75H1.25V4.75H6.5906L7.83085 1.85608ZM8.76654 4.75H13.7335L13.0906 3.25H9.4094L8.76654 4.75Z" fill="#141B34"/>
<path d="M3.20387 4.98594C3.3456 4.83536 3.54321 4.74998 3.75 4.74998H18.75C18.9568 4.74998 19.1544 4.83536 19.2961 4.98594C19.4379 5.13652 19.5111 5.33894 19.4986 5.54535L19.0942 12.218C18.855 12.1193 18.607 12.0346 18.3508 11.9652C16.5669 11.4818 14.7612 11.8354 13.3365 12.7808L13.0205 12.1852L8.72852 14.5144L11.3327 19.4219L10.6372 19.828L11.3737 21.1181C11.7227 21.7295 12.1757 22.2835 12.716 22.75H4.75C4.35341 22.75 4.02537 22.4412 4.00138 22.0454L3.00138 5.54535C2.98887 5.33894 3.06213 5.13652 3.20387 4.98594Z" fill="#141B34"/>
</svg>
