<svg width="24" height="24" viewBox="0 0 24 24" fill="none" xmlns="http://www.w3.org/2000/svg">
<path fill-rule="evenodd" clip-rule="evenodd" d="M10.6855 1.74997C6.31041 1.74997 2.75 5.26122 2.75 9.60934V18.5C2.75 18.699 2.82902 18.8897 2.96967 19.0304C3.11033 19.171 3.30109 19.25 3.50001 19.25L4.75 19.25V21.5C4.75 21.9142 5.08579 22.25 5.5 22.25H10V20.75H9.25L9.26953 19.25V10.3831C9.26953 10.26 9.29982 10.1388 9.35772 10.0302L11.4281 6.14694L12.7517 6.85265L10.7695 10.5705L10.7707 15.1776L16.3426 8.74975H18.1247C19.8119 8.74975 21.25 7.44447 21.25 5.74986C21.25 4.05525 19.8119 2.74997 18.1247 2.74997H16.75V2.49997C16.75 2.08576 16.4142 1.74997 16 1.74997H10.6855ZM16.75 4.24997V7.24975H18.1247C19.0612 7.24975 19.75 6.54041 19.75 5.74986C19.75 4.95931 19.0612 4.24997 18.1247 4.24997H16.75ZM6.25 20.75V19.25L7.75 19.25V20.75H6.25Z" fill="#141B34"/>
</svg>
