<svg width="24" height="24" viewBox="0 0 24 24" fill="none" xmlns="http://www.w3.org/2000/svg">
<path fill-rule="evenodd" clip-rule="evenodd" d="M2.25 2.24911H7.6125V4.19911H4.2V7.61161H2.25V2.24911ZM9.075 2.24911H14.925V4.19911H9.075V2.24911ZM16.3875 2.24911H21.75V7.61161H19.8V4.19911H16.3875V2.24911ZM4.2 9.07411V14.9241H2.25V9.07411H4.2ZM4.2 16.3866V19.7991H7.6125V21.7491H2.25V16.3866H4.2Z" fill="#141B34"/>
<path fill-rule="evenodd" clip-rule="evenodd" d="M7.33582 13.8367C7.33582 10.2468 10.246 7.33667 13.8358 7.33667C17.4257 7.33667 20.3358 10.2468 20.3358 13.8367C20.3358 15.2705 19.8716 16.5958 19.0852 17.6706L21.75 20.3371L20.3354 21.7509L17.6712 19.085C16.5961 19.872 15.2702 20.3367 13.8358 20.3367C10.246 20.3367 7.33582 17.4265 7.33582 13.8367ZM13.8358 9.33667C11.3505 9.33667 9.33582 11.3514 9.33582 13.8367C9.33582 16.322 11.3505 18.3367 13.8358 18.3367C16.3211 18.3367 18.3358 16.322 18.3358 13.8367C18.3358 11.3514 16.3211 9.33667 13.8358 9.33667Z" fill="#141B34"/>
</svg>
