<svg width="24" height="24" viewBox="0 0 24 24" fill="none" xmlns="http://www.w3.org/2000/svg">
<path d="M13.851 9.30263C13.851 7.60378 13.4539 5.98066 12.8453 4.81373C12.2047 3.58541 11.4997 3.14474 11.001 3.14474C10.5022 3.14474 9.79728 3.58541 9.15664 4.81373C8.54805 5.98066 8.15098 7.60378 8.15098 9.30263V10.25H6.25098V9.30263C6.25098 7.33906 6.70427 5.4095 7.47095 3.93945C8.20564 2.53078 9.40106 1.25 11.001 1.25C12.6009 1.25 13.7963 2.53078 14.531 3.93945C15.2977 5.4095 15.751 7.33906 15.751 9.30263V10.25H13.851V9.30263Z" fill="#141B34"/>
<path d="M16.751 19.75H13.751V17.75H16.751V14.75H18.751V17.75H21.751V19.75H18.751V22.75H16.751V19.75Z" fill="#141B34"/>
<path d="M19.751 6.25V13.5H15.501V16.5H12.501V21H15.501V22.75H6.00098C3.92991 22.75 2.25098 21.0711 2.25098 19V6.25H19.751Z" fill="#141B34"/>
</svg>
