<svg width="24" height="24" viewBox="0 0 24 24" fill="none" xmlns="http://www.w3.org/2000/svg">
<path d="M13.8496 9.30275C13.8496 7.6039 13.4525 5.98079 12.8439 4.81386C12.2033 3.58553 11.4983 3.14486 10.9996 3.14486C10.5008 3.14486 9.79587 3.58553 9.15524 4.81386C8.54665 5.98079 8.14957 7.6039 8.14957 9.30275V10.2501H6.24957V9.30275C6.24957 7.33918 6.70287 5.40963 7.46954 3.93958C8.20424 2.5309 9.39966 1.25012 10.9996 1.25012C12.5995 1.25012 13.7949 2.5309 14.5296 3.93958C15.2963 5.40963 15.7496 7.33918 15.7496 9.30275V10.2501H13.8496V9.30275Z" fill="#141B34"/>
<path d="M21.7496 16.8361L15.8356 22.7501L12.7498 19.7368L14.1639 18.3228L15.8356 19.922L20.3356 15.422L21.7496 16.8361Z" fill="#141B34"/>
<path d="M19.7495 6.25012V14.2413L15.8159 18.1749L14.1441 16.5763L10.9712 19.7491L14.0435 22.7501H5.99954C3.92847 22.7501 2.24954 21.0712 2.24954 19.0001V6.25012H19.7495Z" fill="#141B34"/>
</svg>
