<svg width="24" height="24" viewBox="0 0 24 24" fill="none" xmlns="http://www.w3.org/2000/svg">
<path d="M16.6035 1.75586C17.5003 1.81612 18.3553 2.3256 18.7324 3.23242C19.3614 4.74589 20.3831 7.85743 20.9307 13H16.0029V16H13.0029V21.25H5.44434C3.37975 21.25 1.67104 19.565 1.75098 17.4668C2.05099 9.59638 3.47387 5.14223 4.26758 3.23242C4.66981 2.26518 5.61573 1.75016 6.57617 1.75H16.4238L16.6035 1.75586ZM7.50195 5.46875V6.46875C7.50195 8.67789 9.29281 10.4688 11.502 10.4688C13.7111 10.4688 15.502 8.67789 15.502 6.46875V5.46875H13.502V6.46875C13.502 7.57332 12.6065 8.46875 11.502 8.46875C10.3974 8.46875 9.50195 7.57332 9.50195 6.46875V5.46875H7.50195Z" fill="#141B34"/>
<path d="M17.2522 19.25H14.2522V17.25H17.2522V14.25H19.2522V17.25H22.2522V19.25H19.2522V22.25H17.2522V19.25Z" fill="#141B34"/>
</svg>
