<svg width="24" height="24" viewBox="0 0 24 24" fill="none" xmlns="http://www.w3.org/2000/svg">
<path d="M14.3355 17.0438L15.7584 18.449L17.4996 16.6854V21.7488H19.4996V16.6854L21.2408 18.449L22.6636 17.0438L18.4996 12.825L14.3355 17.0438Z" fill="#141B34"/>
<path d="M21.2818 13.867L18.4996 11.0477L12.5679 17.0574L16.2496 20.7108V20.7508H3.86383L1.61383 7.25079H22.3853L21.2818 13.867ZM7.24957 11.2508V16.7508H8.74957V11.2508H7.24957ZM11.2496 11.2508V16.7508H12.7496V11.2508H11.2496Z" fill="#141B34"/>
<path d="M23.2496 7.00079H18.5142L15.8922 2.25079L14.1412 3.21661L16.2291 7.00079H7.77106L9.85895 3.21661L8.10699 2.25079L5.4859 7.00079H0.749573V9.00079H23.2496V7.00079Z" fill="#141B34"/>
</svg>
