<svg width="24" height="24" viewBox="0 0 24 24" fill="none" xmlns="http://www.w3.org/2000/svg">
<path fill-rule="evenodd" clip-rule="evenodd" d="M13.5465 2.12177L11.4576 5.04614H15.4576L11.6746 10.3424L10.454 9.47052L12.5428 6.54614H8.54285L12.3259 1.24992L13.5465 2.12177Z" fill="#141B34"/>
<path d="M11.2499 19.7501H12.7499V21.2501H14.7499V22.7501H9.24988V21.2501H11.2499V19.7501Z" fill="#141B34"/>
<path d="M9.4819 8.25016L5.49976 8.25015C5.15561 8.25015 4.85562 8.48437 4.77216 8.81825L3.66419 13.2501H11.2498V11.8824L8.36117 9.81918L9.4819 8.25016Z" fill="#141B34"/>
<path d="M12.7498 11.4173V13.2501H20.3356L19.2276 8.81829C19.1442 8.48441 18.8442 8.25019 18.5 8.25019L15.012 8.25018L12.7498 11.4173Z" fill="#141B34"/>
<path d="M20.7106 14.7501H12.7498V19.7501H21C21.231 19.7501 21.4491 19.6437 21.5912 19.4617C21.7333 19.2797 21.7837 19.0423 21.7276 18.8182L20.7106 14.7501Z" fill="#141B34"/>
<path d="M11.2498 14.7501V19.7501H2.99976C2.76881 19.7501 2.55074 19.6437 2.40861 19.4617C2.26648 19.2797 2.21614 19.0423 2.27216 18.8182L3.28919 14.7501H11.2498Z" fill="#141B34"/>
</svg>
