<svg width="24" height="24" viewBox="0 0 24 24" fill="none" xmlns="http://www.w3.org/2000/svg">
<path d="M21.7963 5.55481L21.7914 5.54895L19.3813 2.25305L4.61957 2.2511L2.20942 5.547L2.20453 5.55286L2.20063 5.55969C1.82807 6.09273 1.45972 6.76181 1.31489 7.46204C1.16566 8.18407 1.24679 9.00403 1.87153 9.67395C2.49171 10.339 3.3897 10.7511 4.37934 10.7511C5.41741 10.7511 6.36287 10.2918 6.98676 9.56067C7.58279 10.2873 8.48731 10.7511 9.50043 10.7511C10.5061 10.7511 11.4043 10.2937 12.0004 9.57629C12.5966 10.2937 13.4948 10.7511 14.5004 10.7511C15.5131 10.7511 16.4161 10.2867 17.0122 9.56067C17.636 10.293 18.5825 10.7531 19.6215 10.7531C20.6112 10.753 21.5092 10.34 22.1293 9.67493C22.7539 9.00492 22.8343 8.18502 22.685 7.46301C22.5401 6.76296 22.1727 6.09456 21.8002 5.56165L21.7963 5.55481Z" fill="#141B34"/>
<path d="M21.2505 15.8351L19.0005 18.0851L21.2505 20.3351L19.8365 21.7491L17.5865 19.4991L15.3365 21.7491L13.9224 20.3351L16.1724 18.0851L13.9224 15.8351L15.3365 14.421L17.5865 16.671L19.8365 14.421L21.2505 15.8351Z" fill="#141B34"/>
<path d="M17.023 10.9152C17.7565 11.4427 18.6598 11.751 19.6216 11.7511L19.8589 11.7452C20.3463 11.7197 20.815 11.6148 21.2505 11.4445V14.0714L19.8365 12.6573L17.5865 14.9073L15.3365 12.6573L12.1548 15.839L14.4048 18.089L12.1548 20.339L13.565 21.7491H2.75055V11.4425C3.25665 11.64 3.80694 11.7491 4.37946 11.7491L4.62848 11.7423C5.49548 11.6943 6.30504 11.3955 6.97418 10.9152C7.67984 11.4378 8.55398 11.7491 9.50055 11.7491C10.436 11.7491 11.2996 11.4441 12.0005 10.9327C12.7015 11.4441 13.5651 11.7491 14.5005 11.7491L14.7476 11.7423C15.5984 11.6933 16.3802 11.3911 17.023 10.9152Z" fill="#141B34"/>
</svg>
