<svg width="24" height="24" viewBox="0 0 24 24" fill="none" xmlns="http://www.w3.org/2000/svg">
<path d="M5.50391 3.1543C5.58421 4.73945 6.8949 6 8.5 6L13.5 6C15.1569 6 16.5 4.65685 16.5 3L19.75 3L19.75 14.2422L18.0859 15.9062L15.8359 13.6562L12.6543 16.8379L14.9043 19.0879L12.6543 21.3379L14.0645 22.748L2.25 22.748L2.25 3L5.5 3L5.50391 3.1543ZM6.25 14.25L6.25 15.75H11.1787V14.25H6.25ZM6.25 10.25V11.75L15.75 11.75V10.25L6.25 10.25Z" fill="#141B34"/>
<path fill-rule="evenodd" clip-rule="evenodd" d="M6.75 3C6.75 2.0335 7.5335 1.25 8.5 1.25H13.5C14.4665 1.25 15.25 2.0335 15.25 3C15.25 3.9665 14.4665 4.75 13.5 4.75H8.5C7.5335 4.75 6.75 3.9665 6.75 3Z" fill="#141B34"/>
<path d="M21.75 16.8359L19.5 19.0859L21.75 21.3359L20.3359 22.75L18.0859 20.5L15.8359 22.75L14.4219 21.3359L16.6719 19.0859L14.4219 16.8359L15.8359 15.4219L18.0859 17.6719L20.3359 15.4219L21.75 16.8359Z" fill="#141B34"/>
</svg>
