<svg width="24" height="24" viewBox="0 0 24 24" fill="none" xmlns="http://www.w3.org/2000/svg">
<path fill-rule="evenodd" clip-rule="evenodd" d="M6.25342 2.5C6.25342 2.08579 6.5892 1.75 7.00342 1.75H17.0034C17.4176 1.75 17.7534 2.08579 17.7534 2.5V17.5C17.7534 17.9142 17.4176 18.25 17.0034 18.25H7.00342C6.5892 18.25 6.25342 17.9142 6.25342 17.5V2.5ZM9.75342 7C9.75342 5.75736 10.7608 4.75 12.0034 4.75C13.2461 4.75 14.2534 5.75736 14.2534 7C14.2534 8.24264 13.2461 9.25 12.0034 9.25C10.7608 9.25 9.75342 8.24264 9.75342 7ZM12.0034 10.75C10.7608 10.75 9.75342 11.7574 9.75342 13C9.75342 14.2426 10.7608 15.25 12.0034 15.25C13.2461 15.25 14.2534 14.2426 14.2534 13C14.2534 11.7574 13.2461 10.75 12.0034 10.75Z" fill="#141B34"/>
<path fill-rule="evenodd" clip-rule="evenodd" d="M11.0017 22.25V17.25H13.0017V22.25H11.0017Z" fill="#141B34"/>
<path fill-rule="evenodd" clip-rule="evenodd" d="M19.2522 5.25002L17.0007 5.25L17.0007 3.75L20.0022 3.75003C20.4164 3.75003 20.7522 4.08582 20.7522 4.50003V6.5C20.7522 6.75082 20.6268 6.98504 20.4181 7.12413L17.4166 9.12413L16.5848 7.87587L19.2522 6.09851V5.25002Z" fill="#141B34"/>
<path fill-rule="evenodd" clip-rule="evenodd" d="M19.2522 12.25L17.0007 12.25L17.0007 10.75L20.0022 10.75C20.4164 10.75 20.7522 11.0858 20.7522 11.5V13.5C20.7522 13.7508 20.6268 13.985 20.4181 14.1241L17.4166 16.1241L16.5848 14.8759L19.2522 13.0985V12.25Z" fill="#141B34"/>
<path fill-rule="evenodd" clip-rule="evenodd" d="M3.9978 3.75003L6.99924 3.75L6.99925 5.25L4.7478 5.25002V6.09851L7.41513 7.87587L6.58336 9.12413L3.58192 7.12413C3.37319 6.98504 3.2478 6.75082 3.2478 6.5V4.50003C3.2478 4.08582 3.58358 3.75003 3.9978 3.75003Z" fill="#141B34"/>
<path fill-rule="evenodd" clip-rule="evenodd" d="M4.00073 10.75L7.00217 10.75L7.00218 12.25L4.75073 12.25V13.0985L7.41806 14.8759L6.58629 16.1241L3.58485 14.1241C3.37612 13.985 3.25073 13.7508 3.25073 13.5V11.5C3.25073 11.0858 3.58651 10.75 4.00073 10.75Z" fill="#141B34"/>
</svg>
