<svg width="24" height="24" viewBox="0 0 24 24" fill="none" xmlns="http://www.w3.org/2000/svg">
<path fill-rule="evenodd" clip-rule="evenodd" d="M2.25019 1.25H19.75V11.8696C18.7939 11.3165 17.6839 11 16.5 11C12.9101 11 10 13.9101 10 17.5C10 19.6564 11.0501 21.5676 12.6668 22.75H2.25L2.25019 1.25ZM15.75 6.25H6.25V7.75H15.75V6.25ZM11.75 10.25H6.25V11.75H11.75V10.25Z" fill="#141B34"/>
<path fill-rule="evenodd" clip-rule="evenodd" d="M16.5 12.25C13.6005 12.25 11.25 14.6005 11.25 17.5C11.25 20.3995 13.6005 22.75 16.5 22.75C19.3995 22.75 21.75 20.3995 21.75 17.5C21.75 14.6005 19.3995 12.25 16.5 12.25ZM18.446 19.4623L18.9623 18.054L17.25 17.4262V14.75H15.75V18.4738L18.446 19.4623Z" fill="#141B34"/>
</svg>
