<svg width="24" height="24" viewBox="0 0 24 24" fill="none" xmlns="http://www.w3.org/2000/svg">
<path fill-rule="evenodd" clip-rule="evenodd" d="M10.5 15.25L12 17.6479L13.5 15.249H15.0401L12.9014 19L15.0401 22.75H13.5L12 20.3521L10.5 22.75H8.95994L11.0986 19L8.95994 15.249L10.5 15.25ZM3.25 15.25H8.24993V16.75H6.49997V22.75H4.99997V16.75H3.25V15.25ZM15.75 15.25H20.7499V16.75H18.9999V22.75H17.4999V16.75H15.75V15.25Z" fill="#141B34"/>
<path fill-rule="evenodd" clip-rule="evenodd" d="M3.25 13.75L3.25141 1.25H13.3609L20.75 8.6291V13.75H3.25ZM18.7995 9.46008L12.5625 3.20508V9.46008H18.7995Z" fill="#141B34"/>
</svg>
