<svg width="24" height="24" viewBox="0 0 24 24" fill="none" xmlns="http://www.w3.org/2000/svg">
<path fill-rule="evenodd" clip-rule="evenodd" d="M13.3102 1.25V6.52051H14.7477V10.833H12.8307V8.4375H5.16467V16.583C5.16467 18.1347 6.09099 19.4173 7.46448 20.0176L8.34241 20.4014L7.57483 22.1572L6.6969 21.7734C4.68622 20.8947 3.24768 18.9607 3.24768 16.583V6.52051H4.68518V1.25H13.3102ZM7.55823 3.64551V5.5625H10.4332V3.64551H7.55823Z" fill="#141B34"/>
<path d="M13.5193 13.1047C14.1628 11.9656 15.8329 11.9656 16.4764 13.1047L20.535 20.2883C21.1811 21.4325 20.2983 22.7498 19.0565 22.7502H10.9393C9.69723 22.75 8.81437 21.4326 9.46075 20.2883L13.5193 13.1047ZM14.2479 19.2502V20.7502H15.7576V19.2502H14.2479ZM14.2479 15.7502V18.2502H15.7479V15.7502H14.2479Z" fill="#141B34"/>
</svg>
