<svg width="24" height="24" viewBox="0 0 24 24" fill="none" xmlns="http://www.w3.org/2000/svg">
<path fill-rule="evenodd" clip-rule="evenodd" d="M20.4923 15.1407V14.2504C20.4923 12.8684 19.372 11.7481 17.99 11.7481C16.608 11.7481 15.4877 12.8684 15.4877 14.2504V15.1407H13.7522L13.7522 21.7476H22.2481L22.2481 15.1407H20.4923ZM16.9875 14.2504C16.9875 13.6968 17.4363 13.2481 17.9899 13.2481C18.5434 13.2481 18.9922 13.6968 18.9922 14.2504V15.1407L16.9875 15.1407V14.2504Z" fill="#141B34"/>
<path d="M12.5022 20.75L12.5022 13.8907H14.2547C14.2551 13.8867 14.2555 13.8827 14.2558 13.8787C13.3855 13.2018 12.3669 12.7065 11.2571 12.4496C13.2936 11.7275 14.7522 9.78408 14.7522 7.50003C14.7522 4.60054 12.4017 2.25003 9.5022 2.25003C6.6027 2.25003 4.2522 4.60054 4.2522 7.50003C4.2522 9.78408 5.71077 11.7275 7.7473 12.4496C4.31241 13.2447 1.7522 16.3234 1.7522 20V20.75H12.5022Z" fill="#141B34"/>
</svg>
