<svg width="24" height="24" viewBox="0 0 24 24" fill="none" xmlns="http://www.w3.org/2000/svg">
<path fill-rule="evenodd" clip-rule="evenodd" d="M3.25 11C3.25 6.16751 7.16751 2.25 12 2.25C16.8325 2.25 20.75 6.16751 20.75 11C20.75 12.5921 20.3239 14.0877 19.5788 15.3757L19.092 16.2173L17.4089 15.2436L17.8957 14.4021C18.4742 13.4021 18.8056 12.2412 18.8056 11C18.8056 7.24139 15.7586 4.19444 12 4.19444C8.24139 4.19444 5.19444 7.24139 5.19444 11C5.19444 12.2412 5.52583 13.4021 6.10431 14.4021L6.59113 15.2436L4.90801 16.2173L4.42119 15.3757C3.67612 14.0877 3.25 12.5921 3.25 11Z" fill="#141B34"/>
<path d="M10.4034 14.4399C7.44608 15.1571 5.25 17.8221 5.25 21C5.25 21.4142 5.58579 21.75 6 21.75H18C18.4142 21.75 18.75 21.4142 18.75 21C18.75 17.8221 16.5539 15.1571 13.5966 14.4399C15.1526 13.8088 16.25 12.2825 16.25 10.5C16.25 8.15279 14.3472 6.25 12 6.25C9.65279 6.25 7.75 8.15279 7.75 10.5C7.75 12.2825 8.84739 13.8088 10.4034 14.4399Z" fill="#141B34"/>
</svg>
