<svg width="24" height="24" viewBox="0 0 24 24" fill="none" xmlns="http://www.w3.org/2000/svg">
<path fill-rule="evenodd" clip-rule="evenodd" d="M22.75 2.25H1.25V19.75H14L14 16.3409L15.5995 16.014C16.3118 15.8684 16.8684 15.3118 17.014 14.5995L17.3409 13L20.6591 13L20.986 14.5995C21.1316 15.3118 21.6882 15.8684 22.4005 16.014L22.75 16.0854V2.25ZM9 15L16 11L9 7V15ZM19.7613 14.8498L19.6387 14.25L18.3613 14.25L18.2387 14.8498C17.9928 16.0527 17.0527 16.9928 15.8498 17.2387L15.25 17.3613L15.25 18.6387L15.8498 18.7613C17.0527 19.0072 17.9928 19.9473 18.2387 21.1502L18.3613 21.75H19.6387L19.7613 21.1502C20.0072 19.9473 20.9473 19.0072 22.1502 18.7613L22.75 18.6387V17.3613L22.1502 17.2387C20.9473 16.9928 20.0072 16.0527 19.7613 14.8498Z" fill="#141B34"/>
</svg>
