<svg width="24" height="24" viewBox="0 0 24 24" fill="none" xmlns="http://www.w3.org/2000/svg">
<path d="M11.5885 18.9583C11.7491 19.0493 11.8888 19.1219 12 19.1767C12.1112 19.1219 12.2509 19.0493 12.4115 18.9583C12.8454 18.7124 13.4231 18.3366 13.9983 17.819C15.1474 16.7848 16.25 15.2225 16.25 13.0015V12.2515H18C19.5188 12.2515 20.75 13.4827 20.75 15.0015V22.7515H3.25V15.0015C3.25 13.4827 4.48122 12.2515 6 12.2515H7.75V13.0015C7.75 15.2225 8.8526 16.7848 10.0017 17.819C10.5769 18.3366 11.1546 18.7124 11.5885 18.9583Z" fill="#141B34"/>
<path fill-rule="evenodd" clip-rule="evenodd" d="M14.75 11.2864V15.7134L12 14.3384L9.25 15.7138V11.2867L12 12.6614L14.75 11.2864Z" fill="#141B34"/>
<path d="M7.75 5.5C7.75 3.15279 9.65279 1.25 12 1.25C14.3472 1.25 16.25 3.15279 16.25 5.5V6.5C16.25 8.84721 14.3472 10.75 12 10.75C9.65279 10.75 7.75 8.84721 7.75 6.5V5.5Z" fill="#141B34"/>
</svg>
