<?xml version="1.0" standalone="no"?>
<!DOCTYPE svg PUBLIC "-//W3C//DTD SVG 1.1//EN" "http://www.w3.org/Graphics/SVG/1.1/DTD/svg11.dtd" >
<svg xmlns="http://www.w3.org/2000/svg" xmlns:xlink="http://www.w3.org/1999/xlink" version="1.1">
<metadata>
Created by FontForge 20170731 at Sun Feb  8 10:44:49 2015
 By Aleksey,,,
(c) 2015, Copyright by Lineto. All rights reserved.
</metadata>
<defs>
<font id="Dowzbndbcvbtdrpsiwlszdekppg" horiz-adv-x="583" >
  <font-face 
    font-family="Dowzbndbcvbtdrpsiwlszdekppg"
    font-weight="450"
    font-stretch="normal"
    units-per-em="1000"
    panose-1="2 11 6 4 2 1 1 2 1 2"
    ascent="750"
    descent="-250"
    x-height="481"
    cap-height="709"
    bbox="-199 -232 1518 1021"
    underline-thickness="50"
    underline-position="-200"
    unicode-range="U+0020-FEFF"
  />
<missing-glyph horiz-adv-x="252" 
 />
    <glyph glyph-name="f_f" unicode="ff" horiz-adv-x="665" 
d="M603 639q-12 0 -25.5 -3.5t-25 -12.5t-18.5 -25t-7 -41v-76h116v-85h-116v-396h-97v396h-219v-396h-97v396h-89v85h89v81q0 40 12.5 71t34 52t50 31.5t61.5 10.5q24 0 38.5 -4t17.5 -6v-84q-4 2 -13.5 4t-27.5 2q-12 0 -25.5 -3.5t-25 -12.5t-18.5 -25t-7 -41v-76h219v81
q0 40 12.5 71t34 52t50 31.5t61.5 10.5q24 0 38.5 -4t17.5 -6v-84q-4 2 -13.5 4t-27.5 2z" />
    <glyph glyph-name="f_f_i" unicode="ffi" horiz-adv-x="921" 
d="M114 562q0 40 12.5 71t34 52t50 31.5t61.5 10.5q24 0 38.5 -4t17.5 -6v-84q-4 2 -13.5 4t-27.5 2q-12 0 -25.5 -3.5t-25 -12.5t-18.5 -25t-7 -41v-76h219v81q0 40 12.5 71t34 52t50 31.5t61.5 10.5q24 0 38.5 -4t17.5 -6v-84q-4 2 -13.5 4t-27.5 2q-12 0 -25.5 -3.5
t-25 -12.5t-18.5 -25t-7 -41v-76h318v-481h-93v396h-225v-396h-97v396h-219v-396h-97v396h-89v85h89v81zM731 665q0 29 19.5 48.5t47.5 19.5q29 0 48.5 -19.5t19.5 -48.5q0 -28 -19.5 -47.5t-48.5 -19.5q-28 0 -47.5 19.5t-19.5 47.5z" />
    <glyph glyph-name="f_f_l" unicode="ffl" horiz-adv-x="921" 
d="M114 562q0 40 12.5 71t34 52t50 31.5t61.5 10.5q24 0 38.5 -4t17.5 -6v-84q-4 2 -13.5 4t-27.5 2q-12 0 -25.5 -3.5t-25 -12.5t-18.5 -25t-7 -41v-76h219v81q0 40 12.5 71t34 52t50 31.5t61.5 10.5q24 0 38.5 -4t17.5 -6v-84q-4 2 -13.5 4t-27.5 2q-12 0 -25.5 -3.5
t-25 -12.5t-18.5 -25t-7 -41v-76h225v243h93v-724h-93v396h-225v-396h-97v396h-219v-396h-97v396h-89v85h89v81z" />
    <glyph glyph-name="f_i" unicode="fi" horiz-adv-x="605" 
d="M272 727q24 0 38.5 -4t17.5 -6v-84q-4 2 -13.5 4t-27.5 2q-12 0 -25.5 -3.5t-25 -12.5t-18.5 -24.5t-7 -40.5v-77h318v-481h-93v396h-225v-396h-97v396h-89v85h89v81q0 40 12.5 71t34 52t50 31.5t61.5 10.5zM415 665q0 29 19.5 48.5t47.5 19.5q29 0 48.5 -19.5
t19.5 -48.5q0 -28 -19.5 -47.5t-48.5 -19.5q-28 0 -47.5 19.5t-19.5 47.5z" />
    <glyph glyph-name="f_l" unicode="fl" horiz-adv-x="603" 
d="M287 639q-12 0 -25.5 -3.5t-25 -12.5t-18.5 -25t-7 -41v-76h222v243h94v-724h-94v396h-222v-396h-97v396h-89v85h89v81q0 40 12.5 71t34 52t50 31.5t61.5 10.5q24 0 38.5 -4t17.5 -6v-84q-4 2 -13.5 4t-27.5 2z" />
    <glyph glyph-name=".notdef" horiz-adv-x="252" 
 />
    <glyph glyph-name=".null" horiz-adv-x="0" 
 />
    <glyph glyph-name="nonmarkingreturn" horiz-adv-x="252" 
 />
    <glyph glyph-name="space" unicode=" " horiz-adv-x="252" 
 />
    <glyph glyph-name="exclam" unicode="!" horiz-adv-x="254" 
d="M161 203h-67l-26 506h118zM62 60q0 27 19 46.5t46 19.5t46.5 -19.5t19.5 -46.5t-19.5 -46t-46.5 -19t-46 19t-19 46z" />
    <glyph glyph-name="quotedbl" unicode="&#x22;" horiz-adv-x="394" 
d="M50 660q0 27 17 44t44 17q26 0 43 -17t17 -44q0 -8 -2 -18l-42 -188h-34l-41 187q-2 10 -2 19zM223 660q0 27 17 44t44 17q26 0 43 -17t17 -44q0 -8 -2 -18l-42 -188h-34l-41 187q-2 10 -2 19z" />
    <glyph glyph-name="numbersign" unicode="#" horiz-adv-x="730" 
d="M403 186h-147l-37 -186h-84l37 186h-134v76h147l36 174h-134v76h146l41 197h84l-40 -197h147l40 197h85l-39 -197h141v-76h-155l-35 -174h140v-76h-154l-37 -186h-85zM270 262h146l37 174h-148z" />
    <glyph glyph-name="dollar" unicode="$" horiz-adv-x="570" 
d="M253 -114v116q-53 6 -92 26t-66 48.5t-42 63.5t-19 70l85 25q3 -26 12.5 -50.5t26 -44.5t40.5 -34t56 -20v231l-29 7q-75 16 -120 63t-45 121q0 39 15 73t41 60.5t61 43.5t76 22v117h78v-118q43 -6 75.5 -22.5t55 -40t36.5 -52t20 -56.5l-84 -27q-7 35 -31.5 67t-72.5 44
v-224l18 -4q86 -18 133 -68t47 -123q0 -36 -13.5 -69.5t-38.5 -60t-62 -44.5t-83 -24v-116h-78zM434 193q0 42 -27 69t-77 38v-214q51 9 77.5 38.5t26.5 68.5zM152 515q0 -38 23 -65t69 -37l10 -2v210q-45 -8 -73.5 -37t-28.5 -69z" />
    <glyph glyph-name="percent" unicode="%" horiz-adv-x="823" 
d="M789 149q0 -33 -13 -62t-35 -50.5t-51.5 -33.5t-61.5 -12t-61 12t-51 33.5t-35 50.5t-13 62t13 61.5t35 50t51 33.5t61 12t61.5 -12t51.5 -33.5t35 -50t13 -61.5zM551 149q0 -35 22.5 -57t54.5 -22q33 0 55 22t22 57q0 34 -22 56t-55 22q-32 0 -54.5 -22t-22.5 -56z
M194 403q-32 0 -61 12t-51 33.5t-35 50.5t-13 62t13 61.5t35 50t51 33.5t61 12t61.5 -12t51.5 -33.5t35 -50t13 -61.5t-13 -62t-35 -50.5t-51.5 -33.5t-61.5 -12zM117 561q0 -35 22.5 -57t54.5 -22q33 0 55 22t22 57q0 34 -22 56t-55 22q-32 0 -54.5 -22t-22.5 -56zM132 0
l466 709h91l-465 -709h-92z" />
    <glyph glyph-name="ampersand" unicode="&#x26;" horiz-adv-x="689" 
d="M454 94q-44 -49 -91.5 -77.5t-107.5 -28.5q-50 0 -88.5 15.5t-64.5 41t-39 58t-13 66.5t9 61.5t25.5 51t39.5 44t51 41.5l10 8l-13 14q-12 13 -27 29.5t-28 36.5t-21.5 43t-8.5 49q0 43 16 76t42.5 55.5t59 34t65.5 11.5q40 0 74.5 -12t59.5 -34.5t39.5 -54.5t14.5 -72
q0 -26 -8.5 -48.5t-22.5 -42t-32 -36t-37 -30.5l-36 -27l132 -137l93 104l65 -57l-96 -111l161 -166h-133zM256 78q41 0 72 23t60 55l3 4l-144 151l-36 -27q-26 -20 -43 -45t-17 -62q0 -18 7.5 -35.5t21 -32t33 -23t43.5 -8.5zM184 553q0 -15 5 -29t13 -26.5t17.5 -23.5
t18.5 -20l22 -24l48 36q32 23 42.5 44t10.5 44q0 35 -25.5 60.5t-64.5 25.5q-15 0 -30.5 -5.5t-28 -17t-20.5 -27.5t-8 -37z" />
    <glyph glyph-name="quotesingle" unicode="'" horiz-adv-x="221" 
d="M50 660q0 27 17 44t44 17q26 0 43 -17t17 -44q0 -8 -2 -18l-42 -188h-34l-41 187q-2 10 -2 19z" />
    <glyph glyph-name="parenleft" unicode="(" horiz-adv-x="311" 
d="M48 317q0 82 14.5 151.5t40 128t60.5 107.5t75 90l57 -50q-77 -86 -121.5 -190.5t-44.5 -236.5t44.5 -237t121.5 -190l-57 -50q-40 41 -75 90t-60.5 107.5t-40 128t-14.5 151.5z" />
    <glyph glyph-name="parenright" unicode=")" horiz-adv-x="311" 
d="M263 317q0 -82 -14.5 -151.5t-40 -128t-60.5 -107.5t-75 -90l-57 50q76 85 121 190t45 237q0 66 -11.5 125t-33 112t-52.5 100t-69 90l57 50q40 -41 75 -90t60.5 -107.5t40 -128t14.5 -151.5z" />
    <glyph glyph-name="asterisk" unicode="*" horiz-adv-x="459" 
d="M268 575l123 42l23 -72l-124 -41l82 -105l-61 -46l-83 109l-78 -108l-61 46l79 104l-124 41l23 72l122 -43v135h79v-134z" />
    <glyph glyph-name="plus" unicode="+" horiz-adv-x="545" 
d="M231 388v195h82v-195h188v-79h-188v-197h-82v197h-187v79h187z" />
    <glyph glyph-name="comma" unicode="," horiz-adv-x="268" 
d="M57 64q0 27 20.5 47t52.5 20t56.5 -23.5t24.5 -71.5q0 -50 -14.5 -85.5t-36.5 -58.5t-48 -35.5t-49 -15.5v52q18 4 33.5 14.5t26 25.5t17 32.5t6.5 35.5q-2 -2 -8 -3.5t-14 -1.5q-28 0 -47.5 18t-19.5 50z" />
    <glyph glyph-name="hyphen" unicode="-" horiz-adv-x="405" 
d="M67 246v82h271v-82h-271z" />
    <glyph glyph-name="period" unicode="." horiz-adv-x="251" 
d="M56 64q0 29 20 49.5t49 20.5t49.5 -20.5t20.5 -49.5t-20.5 -49t-49.5 -20t-49 20t-20 49z" />
    <glyph glyph-name="slash" unicode="/" horiz-adv-x="489" 
d="M119 0h-91l343 709h91z" />
    <glyph glyph-name="zero" unicode="0" horiz-adv-x="656" 
d="M54 354q0 63 12.5 128.5t43.5 118.5t84 87t134 34t134 -34t84 -87t43.5 -118.5t12.5 -128.5q0 -62 -12 -127.5t-43 -118.5t-84 -87t-135 -34t-135 34t-84 87.5t-43 118.5t-12 127zM505 354q0 53 -8 103.5t-28.5 89.5t-54.5 63t-86 24q-53 0 -87 -23.5t-53.5 -62.5
t-27.5 -89.5t-8 -104.5q0 -53 8 -103.5t28 -89.5t54 -63t86 -24t86 24t54.5 63t28.5 89.5t8 103.5z" />
    <glyph glyph-name="one" unicode="1" horiz-adv-x="360" 
d="M188 0v513h-162v69q34 1 63 11t51.5 27t37 40t20.5 49h86v-709h-96z" />
    <glyph glyph-name="two" unicode="2" horiz-adv-x="592" 
d="M51 0q2 79 36 149t115 122l129 82q52 32 78.5 68t26.5 84q0 27 -9.5 51t-27.5 41.5t-43.5 28t-56.5 10.5q-70 0 -110.5 -42t-40.5 -111q0 -8 1 -20t3 -20l-93 9q-2 8 -3 18t-1 24q0 46 16 87.5t47 72.5t76 49.5t103 18.5q53 0 96.5 -16.5t74 -45.5t47.5 -68.5t17 -84.5
q0 -69 -34.5 -120.5t-101.5 -93.5l-146 -91q-31 -20 -54.5 -48.5t-30.5 -63.5h374v-90h-488z" />
    <glyph glyph-name="three" unicode="3" horiz-adv-x="614" 
d="M552 526q0 -61 -34.5 -104.5t-89.5 -57.5q28 -7 52.5 -22.5t42.5 -38t28.5 -51t10.5 -60.5q0 -42 -18 -79t-51 -65.5t-79.5 -45t-103.5 -16.5t-104 16.5t-81.5 45t-55 67.5t-24.5 84l94 21q3 -32 16 -59t35.5 -46.5t52 -30.5t65.5 -11q70 0 113.5 34.5t43.5 89.5
q0 54 -39.5 87t-106.5 33h-85v88h84q70 0 104.5 32t34.5 81q0 52 -39.5 85t-109.5 33q-33 0 -60 -11t-47 -29t-32 -42.5t-14 -51.5l-93 17q3 40 21.5 77t50.5 65t77 45t99 17q57 0 102 -15.5t76 -42.5t47.5 -63t16.5 -76z" />
    <glyph glyph-name="four" unicode="4" horiz-adv-x="619" 
d="M31 273l315 436h124v-456h117v-90h-117v-163h-96v163h-343v110zM374 604l-253 -351h253v351z" />
    <glyph glyph-name="five" unicode="5" horiz-adv-x="590" 
d="M128 216q3 -30 16 -56.5t34 -45.5t49.5 -30t63.5 -11q34 0 62.5 11t49.5 31.5t32.5 48.5t11.5 61q0 37 -12 65.5t-33.5 48.5t-50.5 30.5t-63 10.5q-45 0 -83 -18.5t-61 -48.5l-86 33l68 363h390v-90h-324l-39 -217q13 15 31.5 26t39 18.5t42 11t41.5 3.5q53 0 96.5 -16.5
t75 -47t48.5 -74t17 -97.5q0 -49 -17.5 -92.5t-50 -76t-79.5 -51.5t-106 -19q-53 0 -98 16.5t-78 44.5t-52.5 65.5t-23.5 80.5z" />
    <glyph glyph-name="six" unicode="6" horiz-adv-x="636" 
d="M341 637q-58 0 -95.5 -27.5t-59.5 -71t-31 -97t-9 -106.5q9 25 27.5 48.5t45 40.5t60 27.5t72.5 10.5q49 0 92 -16.5t75 -47t50.5 -73t18.5 -94.5q0 -55 -20 -100t-54.5 -77t-81 -49.5t-99.5 -17.5q-55 0 -105 21t-88.5 66t-61 114.5t-22.5 165.5q0 91 21.5 160t60 115.5
t90.5 70t113 23.5q54 0 95.5 -15t71 -39.5t47.5 -57.5t25 -69l-94 -22q-4 24 -15 45t-29 37t-43 25.5t-57 9.5zM174 226q0 -35 13 -64t34.5 -49t50.5 -31t61 -11q31 0 59.5 11t50.5 31.5t34.5 49t12.5 63.5t-12 63.5t-33 48.5t-48.5 30.5t-58.5 10.5t-60.5 -10.5t-52.5 -30
t-37 -48t-14 -64.5z" />
    <glyph glyph-name="seven" unicode="7" horiz-adv-x="550" 
d="M536 619q-43 -40 -90.5 -96.5t-89.5 -132.5t-73.5 -172.5t-43.5 -217.5h-101q12 131 47.5 233.5t79.5 179t88.5 127.5t73.5 79h-401v90h510v-90z" />
    <glyph glyph-name="eight" unicode="8" horiz-adv-x="628" 
d="M314 324q-41 0 -71.5 -10t-51 -27.5t-31 -41t-10.5 -49.5t10.5 -49t31.5 -40.5t51.5 -27.5t70.5 -10t70.5 10t51.5 27.5t31.5 40.5t10.5 49t-10.5 49.5t-31 41t-51 27.5t-71.5 10zM314 -13q-59 0 -106.5 15t-81.5 42t-52.5 63.5t-18.5 79.5q0 31 10.5 59t29 51.5t44.5 40
t58 25.5q-29 9 -52.5 25t-40.5 38t-26 48t-9 53q0 42 18 77.5t50.5 62t77.5 41t99 14.5t99 -14.5t77.5 -41t50.5 -62t18 -77.5q0 -27 -9 -53t-26 -48t-40.5 -38t-52.5 -25q31 -9 57.5 -25.5t45 -40t29 -51.5t10.5 -59q0 -43 -18.5 -79.5t-52.5 -63.5t-82 -42t-106 -15z
M314 639q-74 0 -111.5 -33.5t-37.5 -83.5q0 -52 40 -86.5t109 -34.5t109 34.5t40 86.5q0 50 -37.5 83.5t-111.5 33.5z" />
    <glyph glyph-name="nine" unicode="9" horiz-adv-x="625" 
d="M295 71q181 0 181 274v18q-8 -23 -24.5 -44t-40 -37.5t-55 -26t-69.5 -9.5q-49 0 -92.5 16t-75.5 46.5t-51 74t-19 97.5t19.5 98.5t53.5 76.5t80.5 50t100.5 18q56 0 105 -21t85 -65t56.5 -113t20.5 -165q0 -183 -70 -278t-205 -95q-50 0 -91.5 14t-73 38.5t-51.5 58.5
t-26 75l89 24q3 -27 16 -50t33.5 -39.5t47 -26t56.5 -9.5zM454 486q0 33 -11.5 61t-32 48.5t-48.5 32t-61 11.5q-34 0 -63 -12t-50 -33t-33 -50.5t-12 -63.5q0 -36 12.5 -63.5t33.5 -47t49 -29.5t60 -10q34 0 62.5 12t49.5 33t32.5 49.5t11.5 61.5z" />
    <glyph glyph-name="colon" unicode=":" horiz-adv-x="276" 
d="M69 64q0 29 20 49.5t49 20.5t49.5 -20.5t20.5 -49.5t-20.5 -49t-49.5 -20t-49 20t-20 49zM68 416q0 29 20 49.5t49 20.5t49.5 -20.5t20.5 -49.5t-20.5 -49t-49.5 -20t-49 20t-20 49z" />
    <glyph glyph-name="semicolon" unicode=";" horiz-adv-x="276" 
d="M61 62q0 26 20 44.5t50 18.5q31 0 54 -22.5t23 -67.5q0 -47 -13.5 -80.5t-34.5 -56t-46 -34t-47 -14.5v49q18 4 32 14t24.5 24t16.5 31t6 34q-2 -2 -7.5 -3.5t-13.5 -1.5q-26 0 -45 17t-19 48zM62 416q0 29 20 49.5t49 20.5t49.5 -20.5t20.5 -49.5t-20.5 -49t-49.5 -20
t-49 20t-20 49z" />
    <glyph glyph-name="less" unicode="&#x3c;" horiz-adv-x="525" 
d="M38 390l412 206v-95l-310 -153l310 -153v-95l-412 205v85z" />
    <glyph glyph-name="equal" unicode="=" horiz-adv-x="601" 
d="M69 407v77h463v-77h-463zM69 212v79h463v-79h-463z" />
    <glyph glyph-name="greater" unicode="&#x3e;" horiz-adv-x="525" 
d="M487 305l-412 -205v95l312 153l-312 153v95l412 -206v-85z" />
    <glyph glyph-name="question" unicode="?" horiz-adv-x="510" 
d="M196 203q-1 9 -1 17v18q0 50 19 88t64 68l44 30q26 17 39.5 43t13.5 55q0 22 -7.5 42.5t-22 36.5t-37 25.5t-52.5 9.5q-33 0 -56.5 -11t-38.5 -29t-22.5 -41t-7.5 -47q0 -13 2 -27t5 -22l-97 12q-6 21 -6 48q0 34 13 70.5t40 66.5t68.5 49t99.5 19q52 0 93 -17t69 -45
t42.5 -64.5t14.5 -74.5q0 -60 -29 -102.5t-73 -71.5l-46 -31q-23 -16 -33.5 -41.5t-10.5 -54.5v-7.5t1 -11.5h-88zM174 60q0 27 19 46.5t46 19.5t46.5 -19.5t19.5 -46.5t-19.5 -46t-46.5 -19t-46 19t-19 46z" />
    <glyph glyph-name="at" unicode="@" horiz-adv-x="832" 
d="M606 137q-35 0 -63 15.5t-36 48.5q-23 -32 -55 -49t-64 -17q-34 0 -62 12t-48.5 34.5t-31.5 54t-11 70.5q0 50 16 93t43.5 74t63.5 48.5t77 17.5q16 0 32.5 -4t31 -12t26 -20.5t17.5 -29.5l9 53h79l-54 -251q-3 -15 -3 -28q0 -17 8.5 -29t29.5 -12t40.5 15.5t34.5 42
t24 60.5t9 72q0 55 -20 101.5t-56.5 80.5t-88.5 53.5t-115 19.5q-66 0 -122 -23t-97.5 -65t-64.5 -100.5t-23 -130.5q0 -66 21.5 -122t62.5 -97t100 -64t134 -23q55 0 107.5 17t97.5 53l41 -54q-22 -21 -51 -37.5t-61.5 -28t-67 -17.5t-66.5 -6q-88 0 -161.5 27.5
t-126.5 77.5t-82.5 120t-29.5 155q0 87 31 159t84 123.5t123.5 80t149.5 28.5q76 0 141.5 -25t113.5 -68.5t75.5 -103.5t27.5 -130q0 -56 -15 -103.5t-41 -82.5t-60.5 -54.5t-73.5 -19.5zM520 370q0 45 -21.5 69.5t-62.5 24.5q-27 0 -49 -12.5t-37.5 -33t-24 -47t-8.5 -54.5
q0 -23 4 -43t14 -34.5t26.5 -23t40.5 -8.5q25 0 46.5 12t37 33.5t24.5 51.5t10 65z" />
    <glyph glyph-name="A" unicode="A" horiz-adv-x="711" 
d="M511 198h-314l-75 -198h-105l282 709h113l282 -709h-106zM232 289h244l-123 318z" />
    <glyph glyph-name="B" unicode="B" horiz-adv-x="616" 
d="M326 709q51 0 90.5 -14.5t67 -40t42 -60.5t14.5 -77q0 -57 -29.5 -96.5t-76.5 -56.5q30 -8 54 -24.5t40.5 -39t25 -50t8.5 -57.5q0 -42 -16 -77.5t-45 -61t-69 -40t-89 -14.5h-248v709h231zM315 399q60 0 93 31.5t33 81.5q0 51 -34.5 81t-95.5 30h-118v-224h122zM329 86
q60 0 96.5 30.5t36.5 82.5q0 51 -32 83.5t-97 32.5h-140v-229h136z" />
    <glyph glyph-name="C" unicode="C" horiz-adv-x="748" 
d="M401 -15q-69 0 -132.5 24.5t-112 71.5t-78 116t-29.5 158t30 157.5t79.5 115.5t113 71.5t129.5 24.5q61 0 112 -16t91 -45t67.5 -71t41.5 -93l-91 -32q-20 81 -76.5 124t-144.5 43q-48 0 -93.5 -17.5t-81 -52.5t-56.5 -87.5t-21 -121.5t21 -121.5t56.5 -88t81 -53
t93.5 -17.5q45 0 82 13t65.5 35.5t48 54t30.5 67.5l87 -32q-14 -50 -42 -92t-67.5 -72t-91 -47t-112.5 -17z" />
    <glyph glyph-name="D" unicode="D" horiz-adv-x="730" 
d="M338 87q49 0 93 16.5t77 49.5t52 83t19 117t-19 117.5t-51.5 84t-76 50.5t-92.5 17h-147v-535h145zM95 0v709h248q67 0 128.5 -23t107.5 -68t73.5 -111.5t27.5 -153.5t-27.5 -153t-74.5 -110.5t-108.5 -67t-128.5 -22.5h-246z" />
    <glyph glyph-name="E" unicode="E" horiz-adv-x="580" 
d="M95 0v709h431v-91h-333v-218h302v-92h-302v-217h333v-91h-431z" />
    <glyph glyph-name="F" unicode="F" horiz-adv-x="571" 
d="M95 0v709h431v-91h-333v-228h302v-92h-302v-298h-98z" />
    <glyph glyph-name="G" unicode="G" horiz-adv-x="772" 
d="M629 0l-9 100q-12 -21 -32 -41.5t-48.5 -37t-65 -26.5t-81.5 -10q-67 0 -129 24t-110 71t-76.5 116t-28.5 159t30 159t79.5 115.5t112.5 70.5t129 24q60 0 110.5 -15t90.5 -42.5t69 -66.5t44 -87l-89 -38q-24 77 -83 118t-142 41q-47 0 -92.5 -17t-80.5 -52t-56.5 -87.5
t-21.5 -122.5q0 -71 21 -123.5t55.5 -87.5t79 -52.5t91.5 -17.5q58 0 99.5 18.5t68 46.5t39 60.5t14.5 59.5h-198v88h289v-347h-79z" />
    <glyph glyph-name="H" unicode="H" horiz-adv-x="748" 
d="M555 0v315h-362v-315h-98v709h98v-303h362v303h98v-709h-98z" />
    <glyph glyph-name="I" unicode="I" horiz-adv-x="290" 
d="M95 0v709h100v-709h-100z" />
    <glyph glyph-name="J" unicode="J" horiz-adv-x="551" 
d="M127 233v-18q0 -71 34 -105t88 -34t85 33.5t31 95.5v504h98v-497q0 -48 -14.5 -89.5t-42.5 -72t-67.5 -48t-88.5 -17.5q-51 0 -92 16.5t-69.5 46.5t-44 71.5t-15.5 91.5z" />
    <glyph glyph-name="K" unicode="K" horiz-adv-x="663" 
d="M294 322l-101 -108v-214h-98v709h98v-365l332 365h129l-295 -316l299 -393h-124z" />
    <glyph glyph-name="L" unicode="L" horiz-adv-x="547" 
d="M95 0v709h98v-617h335v-92h-433z" />
    <glyph glyph-name="M" unicode="M" horiz-adv-x="956" 
d="M764 0v552l-242 -552h-90l-240 552v-552h-97v709h133l250 -577l252 577h131v-709h-97z" />
    <glyph glyph-name="N" unicode="N" horiz-adv-x="773" 
d="M576 0l-383 578v-578h-98v709h131l354 -544v544h98v-709h-102z" />
    <glyph glyph-name="O" unicode="O" horiz-adv-x="808" 
d="M148 355q0 -69 21.5 -121.5t57 -88t81.5 -53t96 -17.5q49 0 95.5 17.5t82 53t57 88t21.5 121.5t-21.5 121.5t-57 87.5t-82 52.5t-95.5 17.5q-50 0 -96 -17.5t-81.5 -52.5t-57 -87.5t-21.5 -121.5zM48 355q0 89 30.5 157.5t80.5 115.5t114 71.5t131 24.5t131 -24.5
t114 -71.5t80.5 -115.5t30.5 -157.5t-30.5 -158t-80.5 -116t-114 -71.5t-131 -24.5t-131 24.5t-114 71.5t-80.5 116t-30.5 158z" />
    <glyph glyph-name="P" unicode="P" horiz-adv-x="602" 
d="M335 378q64 0 100.5 32.5t36.5 87.5q0 57 -36.5 90t-100.5 33h-142v-243h142zM193 290v-290h-98v709h258q49 0 89.5 -16t69 -44.5t44.5 -66.5t16 -83t-16 -83.5t-44.5 -66t-69 -43.5t-89.5 -16h-160z" />
    <glyph glyph-name="Q" unicode="Q" horiz-adv-x="808" 
d="M48 355q0 89 30.5 157.5t80.5 115.5t114 71.5t131 24.5t131 -24.5t114 -71.5t80.5 -115.5t30.5 -157.5q0 -85 -27.5 -150t-72.5 -112l83 -93l-67 -59l-86 95q-42 -26 -89.5 -38.5t-96.5 -12.5q-67 0 -131 24.5t-114 71.5t-80.5 116t-30.5 158zM148 355q0 -69 21.5 -121.5
t57 -88t81.5 -53t96 -17.5q68 0 124 31l-123 138l68 59l124 -140q29 35 46 82.5t17 109.5q0 69 -21.5 121.5t-57 87.5t-82 52.5t-95.5 17.5q-50 0 -96 -17.5t-81.5 -52.5t-57 -87.5t-21.5 -121.5z" />
    <glyph glyph-name="R" unicode="R" horiz-adv-x="629" 
d="M300 290h-106v-290h-99v709h267q50 0 90.5 -16.5t68.5 -45t43 -67t15 -82.5q0 -77 -45.5 -131.5t-126.5 -69.5l169 -297h-114zM344 378q60 0 97 32.5t37 87.5q0 57 -37 90t-97 33h-150v-243h150z" />
    <glyph glyph-name="S" unicode="S" horiz-adv-x="594" 
d="M452 517q-3 19 -13 40.5t-28 39.5t-45 29.5t-64 11.5q-30 0 -55 -9t-43.5 -25t-28.5 -37.5t-10 -46.5q0 -38 23 -65.5t68 -37.5l106 -23q89 -20 136.5 -72t47.5 -127q0 -41 -17 -79t-49 -67t-77 -46.5t-102 -17.5q-64 0 -111.5 19t-80 49t-50.5 67.5t-23 75.5l94 30
q3 -30 14.5 -57.5t33 -48.5t52 -33.5t70.5 -12.5q73 0 109.5 33t36.5 80q0 38 -26 68.5t-80 41.5l-101 22q-76 17 -124.5 65.5t-48.5 128.5q0 42 18 80t49.5 67t74.5 46.5t92 17.5q60 0 102.5 -16.5t71 -42.5t44.5 -57t22 -60z" />
    <glyph glyph-name="T" unicode="T" horiz-adv-x="608" 
d="M353 618v-618h-98v618h-237v91h572v-91h-237z" />
    <glyph glyph-name="U" unicode="U" horiz-adv-x="686" 
d="M343 -15q-54 0 -100.5 16.5t-81 49t-54 80.5t-19.5 111v467h97v-464q0 -81 41.5 -125t116.5 -44t116 44t41 125v464h98v-467q0 -63 -19.5 -111t-54 -80.5t-81 -49t-100.5 -16.5z" />
    <glyph glyph-name="V" unicode="V" horiz-adv-x="676" 
d="M555 709h103l-273 -709h-97l-267 709h104l214 -583z" />
    <glyph glyph-name="W" unicode="W" horiz-adv-x="1020" 
d="M895 709h101l-202 -709h-101l-185 575l-183 -575h-98l-205 709h101l156 -555l178 555h103l182 -561z" />
    <glyph glyph-name="X" unicode="X" horiz-adv-x="625" 
d="M370 355l238 -355h-117l-179 277l-183 -277h-115l242 355l-240 354h118l179 -278l182 278h116z" />
    <glyph glyph-name="Y" unicode="Y" horiz-adv-x="642" 
d="M22 709h118l184 -316l184 316h112l-250 -406v-303h-98v303z" />
    <glyph glyph-name="Z" unicode="Z" horiz-adv-x="633" 
d="M42 0v98l423 520h-413v91h532v-95l-425 -522h430v-92h-547z" />
    <glyph glyph-name="bracketleft" unicode="[" horiz-adv-x="297" 
d="M74 -148v933h193v-76h-111v-782h111v-75h-193z" />
    <glyph glyph-name="backslash" unicode="\" horiz-adv-x="489" 
d="M27 709h93l341 -709h-93z" />
    <glyph glyph-name="bracketright" unicode="]" horiz-adv-x="297" 
d="M30 -148v75h111v782h-111v76h193v-933h-193z" />
    <glyph glyph-name="asciicircum" unicode="^" horiz-adv-x="559" 
d="M416 354l-136 258l-137 -258h-99l194 356h83l194 -356h-99z" />
    <glyph glyph-name="underscore" unicode="_" horiz-adv-x="522" 
d="M5 -79v79h512v-79h-512z" />
    <glyph glyph-name="grave" unicode="`" horiz-adv-x="272" 
d="M34 689h118l86 -146h-78z" />
    <glyph glyph-name="a" unicode="a" horiz-adv-x="523" 
d="M44 129q0 32 11 57.5t30.5 43.5t46.5 29t58 16l130 19q22 3 29.5 13t7.5 23q0 35 -24.5 60.5t-79.5 25.5q-50 0 -77 -27.5t-32 -69.5l-90 21q4 34 20.5 63t42.5 49.5t60.5 32t73.5 11.5q54 0 92 -14.5t62 -38.5t35 -56t11 -67v-241q0 -32 2 -51t4 -28h-92q-2 9 -3.5 24
t-1.5 41q-8 -13 -21 -27t-32 -26t-44.5 -19.5t-57.5 -7.5q-37 0 -66.5 12t-50.5 31.5t-32.5 45.5t-11.5 55zM218 64q29 0 54.5 7.5t44 24t29.5 44t11 66.5v22l-147 -22q-30 -5 -50 -22.5t-20 -49.5q0 -27 21 -48.5t57 -21.5z" />
    <glyph glyph-name="b" unicode="b" horiz-adv-x="594" 
d="M76 0v724h93v-311q17 32 58 57t101 25q55 0 96 -19.5t69 -54t42 -80.5t14 -98q0 -54 -15 -100.5t-43.5 -81t-70 -54.5t-95.5 -20t-93.5 22t-62.5 61v-70h-93zM453 243q0 78 -38 123.5t-104 45.5q-31 0 -57.5 -12t-45.5 -33.5t-29.5 -53t-10.5 -70.5t10.5 -71t29.5 -54.5
t45.5 -34.5t57.5 -12q65 0 103.5 47t38.5 125z" />
    <glyph glyph-name="c" unicode="c" horiz-adv-x="539" 
d="M286 409q-29 0 -55 -10.5t-46.5 -31.5t-32.5 -52.5t-12 -73.5q0 -41 12 -72.5t32 -53t47 -32.5t56 -11q34 0 57.5 10t39 25t24.5 32.5t13 31.5l83 -36q-9 -26 -26 -52.5t-44 -48.5t-63.5 -35.5t-83.5 -13.5q-53 0 -97.5 19.5t-76.5 54t-50.5 81t-18.5 101.5
q0 56 18.5 103t51 80.5t77 52.5t95.5 19q48 0 84.5 -13.5t63 -35.5t42.5 -49.5t24 -54.5l-85 -36q-5 18 -14 36t-24.5 32.5t-37.5 24t-53 9.5z" />
    <glyph glyph-name="d" unicode="d" horiz-adv-x="590" 
d="M141 242q0 -37 9.5 -68.5t27.5 -54.5t44 -36t60 -13q32 0 58 13.5t44 36.5t27.5 55t9.5 69q0 75 -36.5 121t-101.5 46q-32 0 -58.5 -12.5t-45 -35t-28.5 -53.5t-10 -68zM422 73q-17 -35 -54.5 -60.5t-94.5 -25.5q-53 0 -95 19.5t-71.5 54t-45.5 81t-16 100.5
q0 51 16.5 96.5t46.5 80t72 55t93 20.5q32 0 56.5 -7t42.5 -18.5t30 -26t18 -29.5v311h93v-635q0 -35 2 -59t3 -30h-91q-2 8 -3.5 25.5t-1.5 39.5v8z" />
    <glyph glyph-name="e" unicode="e" horiz-adv-x="547" 
d="M407 290q-1 25 -9.5 47.5t-25 39t-40.5 26.5t-57 10q-29 0 -53 -11t-41 -28t-27 -39.5t-11 -44.5h264zM496 128q-10 -30 -28 -56t-45 -45.5t-62 -30.5t-79 -11q-49 0 -92 17.5t-75.5 50.5t-51.5 81t-19 108q0 58 19 105t51.5 80t74 51t86.5 18q55 0 98 -19t72 -52.5
t44.5 -79.5t15.5 -101q0 -9 -0.5 -17t-1.5 -13h-362q0 -33 11.5 -60t30.5 -46t44.5 -29.5t54.5 -10.5q55 0 85.5 25.5t44.5 63.5z" />
    <glyph glyph-name="f" unicode="f" horiz-adv-x="349" 
d="M211 396v-396h-97v396h-89v85h89v81q0 40 12.5 71t34 52t50 31.5t61.5 10.5q24 0 38.5 -4t17.5 -6v-84q-4 2 -13.5 4t-27.5 2q-12 0 -25.5 -3.5t-25 -12.5t-18.5 -25t-7 -41v-76h116v-85h-116z" />
    <glyph glyph-name="g" unicode="g" horiz-adv-x="582" 
d="M136 -12q2 -22 12 -42t26.5 -35.5t40 -24.5t52.5 -9q68 0 106.5 38.5t38.5 119.5v67q-17 -33 -55 -56t-92 -23q-48 0 -88.5 17.5t-70 48t-46 73.5t-16.5 94q0 49 16 91.5t45 74t69.5 50t90.5 18.5q56 0 93 -20t55 -56v67h93v-443q0 -46 -12.5 -89.5t-40.5 -77.5
t-73.5 -55t-111.5 -21q-48 0 -87.5 13.5t-68 36.5t-46 54.5t-21.5 66.5zM279 102q61 0 99 42t38 112t-38 112t-99 42q-63 0 -101 -42t-38 -112q0 -71 37.5 -112.5t101.5 -41.5z" />
    <glyph glyph-name="h" unicode="h" horiz-adv-x="559" 
d="M170 0h-94v724h94v-299q26 38 65 54t81 16q43 0 75.5 -14.5t54 -40t32 -60.5t10.5 -75v-305h-94v289q0 25 -5.5 47t-19 38.5t-35 26t-52.5 9.5q-27 0 -47.5 -10t-34.5 -27t-21.5 -40t-8.5 -50v-283z" />
    <glyph glyph-name="i" unicode="i" horiz-adv-x="245" 
d="M76 0v481h93v-481h-93zM55 663q0 29 19.5 48.5t47.5 19.5q29 0 48.5 -19.5t19.5 -48.5q0 -28 -19.5 -47.5t-48.5 -19.5q-28 0 -47.5 19.5t-19.5 47.5z" />
    <glyph glyph-name="j" unicode="j" horiz-adv-x="246" 
d="M76 481h94v-537q0 -66 -35 -107.5t-98 -41.5q-27 0 -39 2.5t-17 4.5v79q4 -1 11.5 -2t18.5 -1q37 0 51 18.5t14 51.5v533zM55 665q0 29 19.5 48.5t47.5 19.5q29 0 48.5 -19.5t19.5 -48.5q0 -28 -19.5 -47.5t-48.5 -19.5q-28 0 -47.5 19.5t-19.5 47.5z" />
    <glyph glyph-name="k" unicode="k" horiz-adv-x="526" 
d="M302 278l209 -278h-118l-157 212l-67 -67v-145h-93v724h93v-456l208 213h130z" />
    <glyph glyph-name="l" unicode="l" horiz-adv-x="246" 
d="M76 0v724h94v-724h-94z" />
    <glyph glyph-name="m" unicode="m" horiz-adv-x="854" 
d="M76 0v481h90v-64q23 40 63.5 59t82.5 19q45 0 84.5 -22t59.5 -69q29 52 72 71.5t89 19.5q31 0 61 -11t53.5 -33.5t37.5 -57t14 -81.5v-312h-93v302q0 47 -24.5 78.5t-77.5 31.5q-50 0 -80.5 -34.5t-30.5 -86.5v-291h-94v302q0 47 -24 78.5t-78 31.5q-51 0 -81.5 -34
t-30.5 -88v-290h-93z" />
    <glyph glyph-name="n" unicode="n" horiz-adv-x="559" 
d="M170 0h-94v481h92v-69q26 45 66 64t82 19q43 0 75.5 -14.5t54 -40t32 -60.5t10.5 -75v-305h-94v289q0 25 -5.5 47t-19 38.5t-35 26t-52.5 9.5q-28 0 -49 -10.5t-35 -28.5t-21 -42t-7 -51v-278z" />
    <glyph glyph-name="o" unicode="o" horiz-adv-x="580" 
d="M290 69q30 0 57 11t48 33t33 54t12 74t-12 73.5t-33 53.5t-48 33t-57 11t-57 -11t-48 -33t-33 -53.5t-12 -73.5t12 -74t33 -54t48 -33t57 -11zM290 496q54 0 99 -19.5t78 -53.5t51 -80.5t18 -101.5t-18 -102t-51 -81t-78 -53.5t-99 -19.5t-99 19.5t-78 53.5t-51 81
t-18 102t18 101.5t51 80.5t78 53.5t99 19.5z" />
    <glyph glyph-name="p" unicode="p" horiz-adv-x="594" 
d="M76 -190v671h91v-75q20 36 61 61t100 25q54 0 95.5 -19.5t69 -53.5t42 -80t14.5 -98q0 -54 -15 -100t-44 -80.5t-70.5 -54t-94.5 -19.5q-56 0 -96 23t-60 55v-255h-93zM453 241q0 36 -10 66.5t-28 53t-44.5 35.5t-59.5 13q-32 0 -58.5 -13t-45.5 -35.5t-29 -53t-10 -66.5
q0 -37 10 -68.5t29 -54t45.5 -35t58.5 -12.5q33 0 59 12.5t44.5 35t28.5 54t10 68.5z" />
    <glyph glyph-name="q" unicode="q" horiz-adv-x="592" 
d="M423 -190v258q-19 -37 -57.5 -59t-92.5 -22q-52 0 -94 20t-72 55t-46 81t-16 99q0 51 15.5 96.5t44.5 80t71 54.5t95 20q31 0 56 -7.5t44.5 -19.5t32.5 -27.5t21 -31.5v74h91v-671h-93zM141 242q0 -37 10 -68.5t28.5 -54.5t44.5 -36t58 -13t58 13t45 36t29 54.5t10 68.5
t-10 68t-29 53t-45 34.5t-58 12.5q-66 0 -103.5 -46.5t-37.5 -121.5z" />
    <glyph glyph-name="r" unicode="r" horiz-adv-x="363" 
d="M343 386q-21 3 -41 3q-59 0 -95.5 -34.5t-36.5 -113.5v-241h-94v481h92v-84q13 28 30.5 45.5t36.5 28t39 14.5t38 4q10 0 18.5 -1t12.5 -2v-100z" />
    <glyph glyph-name="s" unicode="s" horiz-adv-x="455" 
d="M123 155q5 -38 33 -64t79 -26q40 0 61 19t21 45q0 23 -16 39t-46 23l-82 18q-57 12 -88.5 48t-31.5 87q0 31 13.5 58.5t36.5 48.5t54.5 33t66.5 12q49 0 82.5 -14t54.5 -34.5t31.5 -42.5t14.5 -38l-83 -31q-2 9 -7 23t-16 26.5t-30 21.5t-47 9q-36 0 -58 -19.5t-22 -44.5
q0 -46 55 -58l78 -17q66 -14 99.5 -51.5t33.5 -91.5q0 -26 -11 -52t-32.5 -48t-54.5 -35.5t-78 -13.5q-50 0 -85.5 14t-59 35t-36 45.5t-15.5 45.5z" />
    <glyph glyph-name="t" unicode="t" horiz-adv-x="347" 
d="M207 481h104v-85h-104v-250q0 -33 15 -49.5t52 -16.5q9 0 20 1t17 3v-80q-6 -2 -23 -5.5t-41 -3.5q-62 0 -98 35.5t-36 101.5v264h-92v85h26q39 0 56.5 21t17.5 53v78h86v-152z" />
    <glyph glyph-name="u" unicode="u" horiz-adv-x="559" 
d="M393 58q-20 -38 -60 -55.5t-82 -17.5t-75.5 15t-56.5 41t-35.5 61t-12.5 76v303h94v-289q0 -25 6 -47.5t19 -39.5t33.5 -27t50.5 -10q57 0 85.5 34t28.5 89v290h94v-392q0 -29 1.5 -52.5t3.5 -36.5h-90q-2 8 -3 25.5t-1 32.5z" />
    <glyph glyph-name="v" unicode="v" horiz-adv-x="528" 
d="M312 0h-95l-195 481h106l137 -371l138 371h101z" />
    <glyph glyph-name="w" unicode="w" horiz-adv-x="816" 
d="M459 481l125 -362l106 362h99l-156 -481h-97l-128 366l-125 -366h-99l-158 481h103l108 -362l125 362h97z" />
    <glyph glyph-name="x" unicode="x" horiz-adv-x="507" 
d="M197 245l-173 236h114l118 -169l116 169h111l-171 -236q7 -10 21 -29t31.5 -43t36 -50.5t36 -50.5t31.5 -43t21 -29h-113l-124 177l-122 -177h-112z" />
    <glyph glyph-name="y" unicode="y" horiz-adv-x="538" 
d="M107 -201l120 254l-207 428h108l150 -332l144 332h101l-313 -682h-103z" />
    <glyph glyph-name="z" unicode="z" horiz-adv-x="477" 
d="M46 0v82l264 314h-260v85h377v-82l-264 -314h269v-85h-386z" />
    <glyph glyph-name="braceleft" unicode="{" horiz-adv-x="346" 
d="M14 361q22 0 42 5.5t35 17.5t24 31t9 47v137q0 94 46 140t134 46h13v-75h-13q-56 0 -77 -25t-21 -80v-164q0 -51 -28 -82.5t-76 -40.5q48 -9 76 -40.5t28 -82.5v-163q0 -55 21 -80t77 -25h13v-75h-13q-88 0 -134 46t-46 140v136q0 28 -9 47t-24 31t-35 17.5t-42 5.5v86z
" />
    <glyph glyph-name="bar" unicode="|" horiz-adv-x="230" 
d="M74 -148v933h82v-933h-82z" />
    <glyph glyph-name="braceright" unicode="}" horiz-adv-x="346" 
d="M332 275q-22 0 -42 -5.5t-35 -17.5t-24 -31t-9 -47v-136q0 -94 -46 -140t-134 -46h-13v75h13q56 0 77 25t21 80v163q0 51 28 82.5t76 40.5q-48 9 -76 40.5t-28 82.5v164q0 55 -21 80t-77 25h-13v75h13q88 0 134 -46t46 -140v-137q0 -28 9 -47t24 -31t35 -17.5t42 -5.5
v-86z" />
    <glyph glyph-name="asciitilde" unicode="~" horiz-adv-x="634" 
d="M275 264q-29 15 -54 15q-28 0 -52 -15.5t-44 -41.5l-57 46q28 46 67 70.5t85 24.5q23 0 47 -6t48 -20l46 -25q28 -16 57 -16q28 0 52 14.5t41 40.5l57 -46q-28 -46 -66.5 -69.5t-83.5 -23.5q-48 0 -97 27z" />
    <glyph glyph-name="uni00A0" unicode="&#xa0;" horiz-adv-x="252" 
 />
    <glyph glyph-name="exclamdown" unicode="&#xa1;" horiz-adv-x="241" 
d="M179 -217h-118l26 505h67zM55 430q0 27 19 46.5t46 19.5t46.5 -19.5t19.5 -46.5t-19.5 -46t-46.5 -19t-46 19t-19 46z" />
    <glyph glyph-name="cent" unicode="&#xa2;" horiz-adv-x="553" 
d="M427 416q-8 30 -31 58.5t-65 38.5v-326q43 10 67 38.5t34 58.5l81 -30q-15 -56 -61 -101t-120 -56v-97h-78v98q-45 6 -82.5 27t-65 54t-43 76.5t-15.5 94.5t15.5 94.5t43 76.5t65 54.5t82.5 27.5v106h78v-107q73 -10 118 -53.5t60 -101.5zM141 350q0 -65 31.5 -107.5
t82.5 -55.5v326q-51 -12 -82.5 -55t-31.5 -108z" />
    <glyph glyph-name="sterling" unicode="&#xa3;" horiz-adv-x="604" 
d="M254 304q2 -11 4 -21t2 -24q0 -57 -24 -101.5t-61 -71.5h195q52 0 81 33t31 85l86 -14q-3 -85 -51 -137.5t-133 -52.5h-329v82q45 24 77.5 67.5t32.5 103.5q0 14 -2 26t-5 25h-96v80h73q-13 32 -23.5 64t-10.5 71q0 43 15 80t43 64.5t68 43t90 15.5q51 0 88.5 -16t63 -42
t39 -59.5t15.5 -68.5l-84 -21q-3 54 -35.5 87.5t-86.5 33.5q-53 0 -86 -30t-33 -92q0 -37 12.5 -67t23.5 -63h190v-80h-170z" />
    <glyph glyph-name="currency" unicode="&#xa4;" horiz-adv-x="614" 
d="M97 347q0 34 10 64.5t27 56.5l-75 77l60 59l75 -78q26 17 55 26t61 9q60 0 111 -31l72 74l60 -59l-70 -73q19 -26 30 -58t11 -67t-10.5 -66.5t-29.5 -56.5l69 -71l-59 -59l-70 72q-25 -16 -54 -24.5t-60 -8.5q-33 0 -63 10t-56 27l-73 -76l-59 59l73 76q-17 26 -26 55.5
t-9 62.5zM180 347q0 -29 10 -53.5t28 -42t41.5 -27t50.5 -9.5t50.5 9.5t40.5 27t27 42t10 53.5t-10 53t-27 41.5t-40.5 27t-50.5 9.5t-50.5 -9.5t-41.5 -27t-28 -41.5t-10 -53z" />
    <glyph glyph-name="yen" unicode="&#xa5;" horiz-adv-x="641" 
d="M233 374l-201 335h111l180 -307l179 307h107l-203 -335h149v-72h-186v-75h186v-72h-186v-155h-98v155h-185v72h185v75h-185v72h147z" />
    <glyph glyph-name="brokenbar" unicode="&#xa6;" horiz-adv-x="240" 
d="M161 785v-399h-82v399h82zM161 251v-399h-82v399h82z" />
    <glyph glyph-name="section" unicode="&#xa7;" horiz-adv-x="518" 
d="M454 244q0 -23 -8 -42.5t-20 -35.5t-26.5 -27.5t-28.5 -17.5q41 -26 64 -64t23 -80q0 -41 -16.5 -74.5t-44.5 -57t-65 -36.5t-77 -13q-95 0 -143.5 51t-50.5 132l88 18q0 -54 26.5 -88.5t81.5 -34.5q47 0 76 24t29 69q0 28 -16 50t-42 36l-103 54q-27 14 -52 29.5t-44 35
t-30 44.5t-11 58q0 23 8 43.5t20 36.5t27 27.5t29 16.5q-42 26 -65 64.5t-23 80.5q0 41 16.5 74.5t44.5 57t64.5 36.5t76.5 13q48 0 84 -14.5t61 -39t37.5 -58t12.5 -71.5l-89 -18q0 55 -26.5 88.5t-81.5 33.5q-47 0 -76 -25.5t-29 -67.5q0 -54 59 -85l102 -54
q27 -15 52 -30.5t44 -35.5t30.5 -45t11.5 -58zM201 370q-17 -8 -32 -30t-15 -49q0 -29 14.5 -49t48.5 -38l99 -54q16 8 31.5 29.5t15.5 49.5t-15 48.5t-48 38.5z" />
    <glyph glyph-name="dieresis" unicode="&#xa8;" horiz-adv-x="379" 
d="M38 621q0 24 16.5 41t40.5 17q25 0 42 -17t17 -41q0 -25 -17 -41.5t-42 -16.5q-24 0 -40.5 16.5t-16.5 41.5zM225 621q0 24 16.5 41t41.5 17q24 0 41 -17t17 -41q0 -25 -17 -41.5t-41 -16.5q-25 0 -41.5 16.5t-16.5 41.5z" />
    <glyph glyph-name="copyright" unicode="&#xa9;" horiz-adv-x="829" 
d="M127 355q0 -63 22 -117.5t61 -94t91 -62.5t112 -23t112 23t91 62.5t61 94t22 117.5t-22 117t-61 94t-91 62.5t-112 22.5t-112 -22.5t-91 -62.5t-61 -94t-22 -117zM49 355q0 76 28.5 143t78 117.5t115.5 79.5t142 29t143 -29t116.5 -79.5t78.5 -117.5t29 -143t-29 -143.5
t-78.5 -117.5t-116.5 -79.5t-143 -29.5t-142 29.5t-115.5 79.5t-78 117.5t-28.5 143.5zM415 494q-23 0 -44.5 -8.5t-38 -26t-26.5 -43t-10 -59.5t9.5 -59.5t26 -43t38.5 -26.5t46 -9q27 0 46.5 8.5t32 20.5t20 26t10.5 26l68 -30q-7 -21 -21.5 -42.5t-36 -39.5t-51.5 -29
t-68 -11q-43 0 -79 16t-62.5 44t-41.5 66t-15 83q0 46 15 84t41.5 65.5t62.5 43t78 15.5q39 0 69 -11t51.5 -29t35 -40.5t19.5 -44.5l-70 -29q-3 14 -10.5 29t-20 27t-31 19.5t-43.5 7.5z" />
    <glyph glyph-name="ordfeminine" unicode="&#xaa;" horiz-adv-x="416" 
d="M53 462q0 45 30 71t73 32l88 12q15 2 20.5 9t5.5 16q0 23 -16 39.5t-52 16.5q-33 0 -51.5 -18.5t-21.5 -46.5l-69 16q2 23 13 43t29.5 35t43.5 24t55 9q39 0 66 -10.5t44.5 -27.5t25 -40t7.5 -48v-169q0 -17 1.5 -34.5t2.5 -20.5h-71q-2 6 -3 17t-1 27q-11 -19 -37 -36.5
t-68 -17.5q-27 0 -48 8.5t-36 22.5t-23 32.5t-8 38.5zM180 420q18 0 34.5 4.5t29 15.5t19.5 29t7 44v15l-95 -15q-20 -3 -33.5 -14t-13.5 -33q0 -18 13.5 -32t38.5 -14z" />
    <glyph glyph-name="guillemotleft" unicode="&#xab;" horiz-adv-x="512" 
d="M175 99l-133 191l133 191h93l-131 -191l131 -191h-93zM370 99l-133 191l133 191h93l-131 -191l131 -191h-93z" />
    <glyph glyph-name="logicalnot" unicode="&#xac;" horiz-adv-x="587" 
d="M429 210v195h-379v82h463v-277h-84z" />
    <glyph glyph-name="uni00AD" unicode="&#xad;" horiz-adv-x="405" 
d="M67 246v82h271v-82h-271z" />
    <glyph glyph-name="registered" unicode="&#xae;" horiz-adv-x="829" 
d="M49 355q0 76 28.5 143t78 117.5t115.5 79.5t142 29t143 -29t116.5 -79.5t78.5 -117.5t29 -143t-29 -143.5t-78.5 -117.5t-116.5 -79.5t-143 -29.5t-142 29.5t-115.5 79.5t-78 117.5t-28.5 143.5zM127 355q0 -63 22 -117.5t61 -94t91 -62.5t112 -23t112 23t91 62.5t61 94
t22 117.5t-22 117t-61 94t-91 62.5t-112 22.5t-112 -22.5t-91 -62.5t-61 -94t-22 -117zM419 373q34 0 52 15.5t18 43.5q0 61 -70 61h-52v-120h52zM367 157h-76v402h139q29 0 54 -9.5t43 -26.5t28.5 -40t10.5 -50q0 -42 -24.5 -74t-63.5 -45l90 -157h-87l-84 150h-30v-150z
" />
    <glyph glyph-name="macron" unicode="&#xaf;" horiz-adv-x="343" 
d="M35 577v81h273v-81h-273z" />
    <glyph glyph-name="degree" unicode="&#xb0;" horiz-adv-x="409" 
d="M127 563q0 -35 22.5 -57t54.5 -22q33 0 55 22t22 57q0 34 -22 56t-55 22q-32 0 -54.5 -22t-22.5 -56zM44 563q0 33 13 61.5t35 50t51 33.5t61 12t61.5 -12t51.5 -33.5t35 -50t13 -61.5t-13 -62t-35 -50.5t-51.5 -33.5t-61.5 -12t-61 12t-51 33.5t-35 50.5t-13 62z" />
    <glyph glyph-name="plusminus" unicode="&#xb1;" horiz-adv-x="591" 
d="M254 447v136h82v-136h178v-77h-178v-134h-82v134h-177v77h177zM514 191v-79h-437v79h437z" />
    <glyph glyph-name="twosuperior" unicode="&#xb2;" horiz-adv-x="346" 
d="M44 568q-2 8 -2.5 16.5t-0.5 14.5q0 24 9 45t26 37t41.5 25.5t55.5 9.5t55 -9.5t41 -25t26 -36.5t9 -44q0 -35 -19 -62.5t-51 -47.5l-72 -45q-11 -8 -20 -17t-11 -20h175v-65h-268v13q0 45 20 81.5t65 63.5l60 37q43 26 43 63q0 20 -14 35t-40 15t-41.5 -16t-15.5 -42
q0 -3 0.5 -11t2.5 -15h-74z" />
    <glyph glyph-name="threesuperior" unicode="&#xb3;" horiz-adv-x="353" 
d="M315 610q0 -29 -18 -51t-47 -30q32 -7 50.5 -30t18.5 -54q0 -46 -37 -77.5t-104 -31.5q-66 0 -105.5 32t-44.5 83l74 13q3 -27 21.5 -44.5t53.5 -17.5q32 0 49 14t17 34q0 21 -16 33t-45 12h-41v63h39q29 0 43 14t14 31q0 21 -15.5 34t-44.5 13t-46 -15.5t-19 -39.5
l-74 11q4 47 42 79t98 32q69 0 103 -31t34 -76z" />
    <glyph glyph-name="acute" unicode="&#xb4;" horiz-adv-x="274" 
d="M114 543h-79l87 146h118z" />
    <glyph glyph-name="mu" unicode="&#xb5;" horiz-adv-x="550" 
d="M391 58q-20 -38 -60 -55.5t-82 -17.5q-27 0 -47.5 5.5t-38.5 14.5v-195h-94v671h94v-289q0 -25 6 -47.5t19 -39.5t33.5 -27t50.5 -10q57 0 85.5 34t28.5 89v290h94v-392q0 -29 1.5 -54t3.5 -35h-90q-2 8 -3 25.5t-1 32.5z" />
    <glyph glyph-name="paragraph" unicode="&#xb6;" horiz-adv-x="639" 
d="M325 -190h-83v511h-16q-39 0 -74.5 14.5t-62 40t-42 60.5t-15.5 75q0 48 18 85t49 62t72 38t87 13h340v-81h-97v-818h-83v818h-93v-818z" />
    <glyph glyph-name="periodcentered" unicode="&#xb7;" horiz-adv-x="267" 
d="M64 284q0 29 20 49.5t49 20.5t49.5 -20.5t20.5 -49.5t-20.5 -49t-49.5 -20t-49 20t-20 49z" />
    <glyph glyph-name="cedilla" unicode="&#xb8;" horiz-adv-x="294" 
d="M82 -62l48 76h71l-39 -60q42 0 69.5 -22t27.5 -60q0 -18 -7 -34t-21 -28.5t-36.5 -20t-52.5 -7.5q-38 0 -66.5 14t-43.5 32l37 45q9 -10 27.5 -22t44.5 -12q18 0 32.5 8t14.5 25q0 14 -11.5 23t-32.5 9q-16 0 -29 -5z" />
    <glyph glyph-name="onesuperior" unicode="&#xb9;" horiz-adv-x="239" 
d="M112 344v245h-86v52q37 1 62 20.5t30 47.5h71v-365h-77z" />
    <glyph glyph-name="ordmasculine" unicode="&#xba;" horiz-adv-x="440" 
d="M220 427q39 0 69 28.5t30 84.5t-30 84t-69 28q-40 0 -70 -28t-30 -84t30 -84.5t70 -28.5zM220 720q38 0 70 -13.5t55.5 -37.5t36.5 -57t13 -72t-13 -72t-36.5 -57t-55.5 -37.5t-70 -13.5t-70.5 13.5t-55.5 37.5t-36 57t-13 72t13 72t36 57t55.5 37.5t70.5 13.5z" />
    <glyph glyph-name="guillemotright" unicode="&#xbb;" horiz-adv-x="512" 
d="M244 99l131 191l-131 191h93l133 -191l-133 -191h-93zM49 99l131 191l-131 191h93l133 -191l-133 -191h-93z" />
    <glyph glyph-name="onequarter" unicode="&#xbc;" horiz-adv-x="770" 
d="M101 0l466 709h83l-465 -709h-84zM121 344v245h-86v52q37 1 62 20.5t30 47.5h71v-365h-77zM408 145l177 220h85v-228h64v-65h-64v-72h-77v72h-185v73zM593 276l-111 -139h111v139z" />
    <glyph glyph-name="onehalf" unicode="&#xbd;" horiz-adv-x="790" 
d="M83 0l466 709h83l-465 -709h-84zM121 344v245h-86v52q37 1 62 20.5t30 47.5h71v-365h-77zM485 224q-2 8 -2.5 16.5t-0.5 14.5q0 24 9 45t26 37t41.5 25.5t55.5 9.5t55 -9.5t41 -25t26 -36.5t9 -44q0 -35 -19 -62.5t-51 -47.5l-72 -45q-11 -8 -20 -17t-11 -20h175v-65
h-268v13q0 45 20 81.5t65 63.5l60 37q43 26 43 63q0 20 -14 35t-40 15t-41.5 -16t-15.5 -42q0 -3 0.5 -11t2.5 -15h-74z" />
    <glyph glyph-name="threequarters" unicode="&#xbe;" horiz-adv-x="843" 
d="M175 0l466 709h83l-465 -709h-84zM482 145l177 220h85v-228h64v-65h-64v-72h-77v72h-185v73zM667 276l-111 -139h111v139zM324 610q0 -29 -18 -51t-47 -30q32 -7 50.5 -30t18.5 -54q0 -46 -37 -77.5t-104 -31.5q-66 0 -105.5 32t-44.5 83l74 13q3 -27 21.5 -44.5
t53.5 -17.5q32 0 49 14t17 34q0 21 -16 33t-45 12h-41v63h39q29 0 43 14t14 31q0 21 -15.5 34t-44.5 13t-46 -15.5t-19 -39.5l-74 11q4 47 42 79t98 32q69 0 103 -31t34 -76z" />
    <glyph glyph-name="questiondown" unicode="&#xbf;" horiz-adv-x="503" 
d="M311 289q1 -9 1 -17v-18q0 -50 -19 -88t-64 -68l-44 -30q-26 -17 -39.5 -43t-13.5 -55q0 -22 7.5 -42.5t22 -36.5t37 -25.5t52.5 -9.5q33 0 56.5 11t38.5 29t22.5 41t7.5 47q0 13 -2 27t-5 22l97 -12q6 -21 6 -48q0 -35 -13 -71t-40 -66t-68.5 -49t-99.5 -19
q-53 0 -93.5 17t-68.5 45t-42.5 64.5t-14.5 74.5q0 60 29 102.5t73 71.5l46 31q23 16 33.5 41.5t10.5 54.5v9.5t-1 9.5h88zM332 431q0 -27 -19 -46.5t-46 -19.5t-46.5 19.5t-19.5 46.5t19.5 46t46.5 19t46 -19t19 -46z" />
    <glyph glyph-name="Agrave" unicode="&#xc0;" horiz-adv-x="711" 
d="M511 198h-314l-75 -198h-105l282 709h113l282 -709h-106zM232 289h244l-123 318zM170 878h129l102 -119h-93z" />
    <glyph glyph-name="Aacute" unicode="&#xc1;" horiz-adv-x="711" 
d="M511 198h-314l-75 -198h-105l282 709h113l282 -709h-106zM232 289h244l-123 318zM401 759h-94l101 119h130z" />
    <glyph glyph-name="Acircumflex" unicode="&#xc2;" horiz-adv-x="711" 
d="M511 198h-314l-75 -198h-105l282 709h113l282 -709h-106zM232 289h244l-123 318zM179 759l112 119h120l117 -119h-92l-85 64l-81 -64h-91z" />
    <glyph glyph-name="Atilde" unicode="&#xc3;" horiz-adv-x="711" 
d="M511 198h-314l-75 -198h-105l282 709h113l282 -709h-106zM232 289h244l-123 318zM513 865q0 -56 -27 -83.5t-69 -27.5q-22 0 -39 6t-32 17l-15 10q-10 6 -18.5 10t-18.5 4q-16 0 -25.5 -10.5t-9.5 -33.5h-68v16q0 56 27.5 83.5t69.5 27.5q21 0 39.5 -7t33.5 -16l15 -9
q11 -6 19.5 -10t18.5 -4q13 0 22.5 7.5t9.5 27.5v8h67v-16z" />
    <glyph glyph-name="Adieresis" unicode="&#xc4;" horiz-adv-x="711" 
d="M149 819q0 25 17 42t42 17t42 -17t17 -42t-17 -42t-42 -17t-42 17t-17 42zM440 819q0 25 17 42t42 17t42 -17t17 -42t-17 -42t-42 -17t-42 17t-17 42zM511 198h-314l-75 -198h-105l282 709h113l282 -709h-106zM232 289h244l-123 318z" />
    <glyph glyph-name="Aring" unicode="&#xc5;" horiz-adv-x="711" 
d="M232 289h244l-123 318zM404 760q0 21 -15 36.5t-38 15.5q-21 0 -35.5 -15.5t-14.5 -36.5q0 -22 14.5 -36.5t35.5 -14.5q23 0 38 14.5t15 36.5zM476 760q0 -29 -13 -53t-34 -41l265 -666h-106l-77 198h-314l-75 -198h-105l264 664q-23 17 -36.5 41.5t-13.5 54.5
q0 25 10 47.5t26.5 38.5t39 25.5t46.5 9.5q25 0 47.5 -9.5t39 -25.5t26.5 -38.5t10 -47.5z" />
    <glyph glyph-name="AE" unicode="&#xc6;" horiz-adv-x="1013" 
d="M528 0v196h-278l-126 -196h-126l472 709h489v-91h-333v-218h302v-92h-302v-217h333v-91h-431zM528 284v344l-222 -344h222z" />
    <glyph glyph-name="Ccedilla" unicode="&#xc7;" horiz-adv-x="748" 
d="M342 -62l30 48q-64 5 -122.5 31.5t-103 73.5t-71 113.5t-26.5 150.5q0 89 30 157.5t79.5 115.5t113 71.5t129.5 24.5q61 0 112 -16t91 -45t67.5 -71t41.5 -93l-91 -32q-20 81 -76.5 124t-144.5 43q-48 0 -93.5 -17.5t-81 -52.5t-56.5 -87.5t-21 -121.5t21 -121.5
t56.5 -88t81 -53t93.5 -17.5q44 0 81 13t65.5 35.5t48.5 54t31 67.5l87 -32q-13 -45 -38 -84t-59.5 -68.5t-78.5 -48.5t-95 -25l-21 -33q42 0 69.5 -22t27.5 -60q0 -18 -7 -34t-21 -28.5t-36.5 -20t-52.5 -7.5q-38 0 -66.5 14t-43.5 32l37 45q9 -10 27.5 -22t44.5 -12
q18 0 32.5 8t14.5 25q0 14 -11.5 23t-32.5 9q-16 0 -29 -5z" />
    <glyph glyph-name="Egrave" unicode="&#xc8;" horiz-adv-x="580" 
d="M95 0v709h431v-91h-333v-218h302v-92h-302v-217h333v-91h-431zM154 878h129l102 -119h-93z" />
    <glyph glyph-name="Eacute" unicode="&#xc9;" horiz-adv-x="580" 
d="M95 0v709h431v-91h-333v-218h302v-92h-302v-217h333v-91h-431zM333 759h-94l101 119h130z" />
    <glyph glyph-name="Ecircumflex" unicode="&#xca;" horiz-adv-x="580" 
d="M95 0v709h431v-91h-333v-218h302v-92h-302v-217h333v-91h-431zM136 759l112 119h120l117 -119h-92l-85 64l-81 -64h-91z" />
    <glyph glyph-name="Edieresis" unicode="&#xcb;" horiz-adv-x="580" 
d="M95 0v709h431v-91h-333v-218h302v-92h-302v-217h333v-91h-431zM138 819q0 25 17 42t42 17t42 -17t17 -42t-17 -42t-42 -17t-42 17t-17 42zM369 819q0 25 17 42t42 17t42 -17t17 -42t-17 -42t-42 -17t-42 17t-17 42z" />
    <glyph glyph-name="Igrave" unicode="&#xcc;" horiz-adv-x="290" 
d="M95 0v709h100v-709h-100zM-39 878h129l102 -119h-93z" />
    <glyph glyph-name="Iacute" unicode="&#xcd;" horiz-adv-x="290" 
d="M95 0v709h100v-709h-100zM193 759h-94l101 119h130z" />
    <glyph glyph-name="Icircumflex" unicode="&#xce;" horiz-adv-x="290" 
d="M95 0v709h100v-709h-100zM-22 759l112 119h120l117 -119h-92l-85 64l-81 -64h-91z" />
    <glyph glyph-name="Idieresis" unicode="&#xcf;" horiz-adv-x="290" 
d="M95 0v709h100v-709h-100zM17 819q0 23 15 38t38 15t38.5 -15t15.5 -38t-15.5 -38.5t-38.5 -15.5t-38 15.5t-15 38.5zM170 819q0 23 15.5 38t38.5 15t38 -15t15 -38t-15 -38.5t-38 -15.5t-38.5 15.5t-15.5 38.5z" />
    <glyph glyph-name="Eth" unicode="&#xd0;" horiz-adv-x="733" 
d="M98 0v325h-76v82h76v302h248q67 0 128.5 -23t107.5 -68t73.5 -111.5t27.5 -153.5t-27.5 -153t-74.5 -110.5t-108.5 -67t-128.5 -22.5h-246zM341 87q49 0 93 16.5t77 49.5t52 83t19 117t-19 117.5t-51.5 84t-76 50.5t-92.5 17h-147v-215h122v-82h-122v-238h145z" />
    <glyph glyph-name="Ntilde" unicode="&#xd1;" horiz-adv-x="773" 
d="M576 0l-383 578v-578h-98v709h131l354 -544v544h98v-709h-102zM548 865q0 -56 -27 -83.5t-69 -27.5q-22 0 -39 6t-32 17l-15 10q-10 6 -18.5 10t-18.5 4q-16 0 -25.5 -10.5t-9.5 -33.5h-68v16q0 56 27.5 83.5t69.5 27.5q21 0 39.5 -7t33.5 -16l15 -9q11 -6 19.5 -10
t18.5 -4q13 0 22.5 7.5t9.5 27.5v8h67v-16z" />
    <glyph glyph-name="Ograve" unicode="&#xd2;" horiz-adv-x="808" 
d="M148 355q0 -69 21.5 -121.5t57 -88t81.5 -53t96 -17.5q49 0 95.5 17.5t82 53t57 88t21.5 121.5t-21.5 121.5t-57 87.5t-82 52.5t-95.5 17.5q-50 0 -96 -17.5t-81.5 -52.5t-57 -87.5t-21.5 -121.5zM48 355q0 89 30.5 157.5t80.5 115.5t114 71.5t131 24.5t131 -24.5
t114 -71.5t80.5 -115.5t30.5 -157.5t-30.5 -158t-80.5 -116t-114 -71.5t-131 -24.5t-131 24.5t-114 71.5t-80.5 116t-30.5 158zM226 878h129l102 -119h-93z" />
    <glyph glyph-name="Oacute" unicode="&#xd3;" horiz-adv-x="808" 
d="M148 355q0 -69 21.5 -121.5t57 -88t81.5 -53t96 -17.5q49 0 95.5 17.5t82 53t57 88t21.5 121.5t-21.5 121.5t-57 87.5t-82 52.5t-95.5 17.5q-50 0 -96 -17.5t-81.5 -52.5t-57 -87.5t-21.5 -121.5zM48 355q0 89 30.5 157.5t80.5 115.5t114 71.5t131 24.5t131 -24.5
t114 -71.5t80.5 -115.5t30.5 -157.5t-30.5 -158t-80.5 -116t-114 -71.5t-131 -24.5t-131 24.5t-114 71.5t-80.5 116t-30.5 158zM443 759h-94l101 119h130z" />
    <glyph glyph-name="Ocircumflex" unicode="&#xd4;" horiz-adv-x="808" 
d="M148 355q0 -69 21.5 -121.5t57 -88t81.5 -53t96 -17.5q49 0 95.5 17.5t82 53t57 88t21.5 121.5t-21.5 121.5t-57 87.5t-82 52.5t-95.5 17.5q-50 0 -96 -17.5t-81.5 -52.5t-57 -87.5t-21.5 -121.5zM48 355q0 89 30.5 157.5t80.5 115.5t114 71.5t131 24.5t131 -24.5
t114 -71.5t80.5 -115.5t30.5 -157.5t-30.5 -158t-80.5 -116t-114 -71.5t-131 -24.5t-131 24.5t-114 71.5t-80.5 116t-30.5 158zM230 759l112 119h120l117 -119h-92l-85 64l-81 -64h-91z" />
    <glyph glyph-name="Otilde" unicode="&#xd5;" horiz-adv-x="808" 
d="M148 355q0 -69 21.5 -121.5t57 -88t81.5 -53t96 -17.5q49 0 95.5 17.5t82 53t57 88t21.5 121.5t-21.5 121.5t-57 87.5t-82 52.5t-95.5 17.5q-50 0 -96 -17.5t-81.5 -52.5t-57 -87.5t-21.5 -121.5zM48 355q0 89 30.5 157.5t80.5 115.5t114 71.5t131 24.5t131 -24.5
t114 -71.5t80.5 -115.5t30.5 -157.5t-30.5 -158t-80.5 -116t-114 -71.5t-131 -24.5t-131 24.5t-114 71.5t-80.5 116t-30.5 158zM569 865q0 -56 -27 -83.5t-69 -27.5q-22 0 -39 6t-32 17l-15 10q-10 6 -18.5 10t-18.5 4q-16 0 -25.5 -10.5t-9.5 -33.5h-68v16q0 56 27.5 83.5
t69.5 27.5q21 0 39.5 -7t33.5 -16l15 -9q11 -6 19.5 -10t18.5 -4q13 0 22.5 7.5t9.5 27.5v8h67v-16z" />
    <glyph glyph-name="Odieresis" unicode="&#xd6;" horiz-adv-x="808" 
d="M190 819q0 25 17 42t42 17t42 -17t17 -42t-17 -42t-42 -17t-42 17t-17 42zM501 819q0 25 17 42t42 17t42 -17t17 -42t-17 -42t-42 -17t-42 17t-17 42zM148 355q0 -69 21.5 -121.5t57 -88t81.5 -53t96 -17.5q49 0 95.5 17.5t82 53t57 88t21.5 121.5t-21.5 121.5t-57 87.5
t-82 52.5t-95.5 17.5q-50 0 -96 -17.5t-81.5 -52.5t-57 -87.5t-21.5 -121.5zM48 355q0 89 30.5 157.5t80.5 115.5t114 71.5t131 24.5t131 -24.5t114 -71.5t80.5 -115.5t30.5 -157.5t-30.5 -158t-80.5 -116t-114 -71.5t-131 -24.5t-131 24.5t-114 71.5t-80.5 116t-30.5 158z
" />
    <glyph glyph-name="multiply" unicode="&#xd7;" horiz-adv-x="572" 
d="M285 291l-168 -174l-56 56l169 176l-168 174l57 57l167 -174l167 174l57 -56l-169 -175l170 -176l-56 -57z" />
    <glyph glyph-name="Oslash" unicode="&#xd8;" horiz-adv-x="808" 
d="M48 355q0 89 30.5 157.5t80.5 115.5t114 71.5t131 24.5q51 0 99.5 -14t91.5 -41l72 92l68 -52l-73 -94q45 -47 71.5 -112t26.5 -148q0 -89 -30.5 -158t-80.5 -116t-114 -71.5t-131 -24.5q-50 0 -98 13.5t-91 39.5l-68 -89l-70 51l71 92q-45 47 -72.5 112.5t-27.5 150.5z
M148 355q0 -60 15.5 -106.5t43.5 -81.5l332 429q-61 38 -135 38q-50 0 -96 -17.5t-81.5 -52.5t-57 -87.5t-21.5 -121.5zM660 355q0 58 -15.5 103.5t-41.5 80.5l-332 -429q30 -18 64 -26.5t69 -8.5q49 0 95.5 17.5t82 53t57 88t21.5 121.5z" />
    <glyph glyph-name="Ugrave" unicode="&#xd9;" horiz-adv-x="686" 
d="M343 -15q-54 0 -100.5 16.5t-81 49t-54 80.5t-19.5 111v467h97v-464q0 -81 41.5 -125t116.5 -44t116 44t41 125v464h98v-467q0 -63 -19.5 -111t-54 -80.5t-81 -49t-100.5 -16.5zM181 878h129l102 -119h-93z" />
    <glyph glyph-name="Uacute" unicode="&#xda;" horiz-adv-x="686" 
d="M343 -15q-54 0 -100.5 16.5t-81 49t-54 80.5t-19.5 111v467h97v-464q0 -81 41.5 -125t116.5 -44t116 44t41 125v464h98v-467q0 -63 -19.5 -111t-54 -80.5t-81 -49t-100.5 -16.5zM365 759h-94l101 119h130z" />
    <glyph glyph-name="Ucircumflex" unicode="&#xdb;" horiz-adv-x="686" 
d="M343 -15q-54 0 -100.5 16.5t-81 49t-54 80.5t-19.5 111v467h97v-464q0 -81 41.5 -125t116.5 -44t116 44t41 125v464h98v-467q0 -63 -19.5 -111t-54 -80.5t-81 -49t-100.5 -16.5zM169 759l112 119h120l117 -119h-92l-85 64l-81 -64h-91z" />
    <glyph glyph-name="Udieresis" unicode="&#xdc;" horiz-adv-x="686" 
d="M343 -15q-54 0 -100.5 16.5t-81 49t-54 80.5t-19.5 111v467h97v-464q0 -81 41.5 -125t116.5 -44t116 44t41 125v464h98v-467q0 -63 -19.5 -111t-54 -80.5t-81 -49t-100.5 -16.5zM174 819q0 25 17 42t42 17t42 -17t17 -42t-17 -42t-42 -17t-42 17t-17 42zM405 819
q0 25 17 42t42 17t42 -17t17 -42t-17 -42t-42 -17t-42 17t-17 42z" />
    <glyph glyph-name="Yacute" unicode="&#xdd;" horiz-adv-x="642" 
d="M22 709h118l184 -316l184 316h112l-250 -406v-303h-98v303zM341 759h-94l101 119h130z" />
    <glyph glyph-name="Thorn" unicode="&#xde;" horiz-adv-x="603" 
d="M337 244q64 0 99.5 32t35.5 87q0 57 -35.5 89.5t-99.5 32.5h-144v-241h144zM193 157v-157h-98v709h98v-137h155q49 0 90 -16t71 -43.5t46.5 -65.5t16.5 -83t-16.5 -83t-46 -65.5t-70.5 -43t-90 -15.5h-156z" />
    <glyph glyph-name="germandbls" unicode="&#xdf;" horiz-adv-x="570" 
d="M353 343q0 -20 12.5 -29t33.5 -19l35 -17q42 -20 73 -57.5t31 -90.5q0 -25 -9.5 -51t-30 -47t-51 -34t-72.5 -13q-45 0 -76.5 14t-51 35t-28 45.5t-8.5 46.5l83 22q0 -12 4 -27t13.5 -28t25 -21.5t38.5 -8.5q36 0 53 20t17 39q0 26 -13 43t-39 30l-34 16q-17 8 -35.5 18
t-34 25t-25.5 35.5t-10 48.5q0 36 17 62.5t46 45.5l32 21q25 16 41 36.5t16 48.5q0 36 -28.5 62.5t-81.5 26.5q-26 0 -48.5 -9.5t-40 -28.5t-27.5 -48t-10 -67v-488h-94v493q0 55 17 98t47 72.5t70 45t86 15.5t83.5 -13t64.5 -36t42 -53.5t15 -66.5q0 -29 -7.5 -52
t-19.5 -41t-28 -31.5t-33 -23.5l-29 -18q-14 -8 -22.5 -18.5t-8.5 -27.5z" />
    <glyph glyph-name="agrave" unicode="&#xe0;" horiz-adv-x="523" 
d="M44 129q0 32 11 57.5t30.5 43.5t46.5 29t58 16l130 19q22 3 29.5 13t7.5 23q0 35 -24.5 60.5t-79.5 25.5q-50 0 -77 -27.5t-32 -69.5l-90 21q4 34 20.5 63t42.5 49.5t60.5 32t73.5 11.5q54 0 92 -14.5t62 -38.5t35 -56t11 -67v-241q0 -32 2 -51t4 -28h-92q-2 9 -3.5 24
t-1.5 41q-8 -13 -21 -27t-32 -26t-44.5 -19.5t-57.5 -7.5q-37 0 -66.5 12t-50.5 31.5t-32.5 45.5t-11.5 55zM218 64q29 0 54.5 7.5t44 24t29.5 44t11 66.5v22l-147 -22q-30 -5 -50 -22.5t-20 -49.5q0 -27 21 -48.5t57 -21.5zM103 689h118l86 -146h-78z" />
    <glyph glyph-name="aacute" unicode="&#xe1;" horiz-adv-x="523" 
d="M44 129q0 32 11 57.5t30.5 43.5t46.5 29t58 16l130 19q22 3 29.5 13t7.5 23q0 35 -24.5 60.5t-79.5 25.5q-50 0 -77 -27.5t-32 -69.5l-90 21q4 34 20.5 63t42.5 49.5t60.5 32t73.5 11.5q54 0 92 -14.5t62 -38.5t35 -56t11 -67v-241q0 -32 2 -51t4 -28h-92q-2 9 -3.5 24
t-1.5 41q-8 -13 -21 -27t-32 -26t-44.5 -19.5t-57.5 -7.5q-37 0 -66.5 12t-50.5 31.5t-32.5 45.5t-11.5 55zM218 64q29 0 54.5 7.5t44 24t29.5 44t11 66.5v22l-147 -22q-30 -5 -50 -22.5t-20 -49.5q0 -27 21 -48.5t57 -21.5zM293 543h-79l87 146h118z" />
    <glyph glyph-name="acircumflex" unicode="&#xe2;" horiz-adv-x="523" 
d="M44 129q0 32 11 57.5t30.5 43.5t46.5 29t58 16l130 19q22 3 29.5 13t7.5 23q0 35 -24.5 60.5t-79.5 25.5q-50 0 -77 -27.5t-32 -69.5l-90 21q4 34 20.5 63t42.5 49.5t60.5 32t73.5 11.5q54 0 92 -14.5t62 -38.5t35 -56t11 -67v-241q0 -32 2 -51t4 -28h-92q-2 9 -3.5 24
t-1.5 41q-8 -13 -21 -27t-32 -26t-44.5 -19.5t-57.5 -7.5q-37 0 -66.5 12t-50.5 31.5t-32.5 45.5t-11.5 55zM218 64q29 0 54.5 7.5t44 24t29.5 44t11 66.5v22l-147 -22q-30 -5 -50 -22.5t-20 -49.5q0 -27 21 -48.5t57 -21.5zM102 545l104 139h107l104 -139h-88l-70 81
l-70 -81h-87z" />
    <glyph glyph-name="atilde" unicode="&#xe3;" horiz-adv-x="523" 
d="M44 129q0 32 11 57.5t30.5 43.5t46.5 29t58 16l130 19q22 3 29.5 13t7.5 23q0 35 -24.5 60.5t-79.5 25.5q-50 0 -77 -27.5t-32 -69.5l-90 21q4 34 20.5 63t42.5 49.5t60.5 32t73.5 11.5q54 0 92 -14.5t62 -38.5t35 -56t11 -67v-241q0 -32 2 -51t4 -28h-92q-2 9 -3.5 24
t-1.5 41q-8 -13 -21 -27t-32 -26t-44.5 -19.5t-57.5 -7.5q-37 0 -66.5 12t-50.5 31.5t-32.5 45.5t-11.5 55zM218 64q29 0 54.5 7.5t44 24t29.5 44t11 66.5v22l-147 -22q-30 -5 -50 -22.5t-20 -49.5q0 -27 21 -48.5t57 -21.5zM416 662q0 -56 -27.5 -82.5t-69.5 -26.5
q-20 0 -36 6.5t-30 15.5l-14 9q-10 6 -18.5 10t-18.5 4q-14 0 -21.5 -9t-7.5 -34h-72v15q0 56 28 82.5t70 26.5q20 0 36.5 -6.5t30.5 -15.5l14 -9q10 -6 18 -10t18 -4q15 0 22 9.5t7 33.5h71v-15z" />
    <glyph glyph-name="adieresis" unicode="&#xe4;" horiz-adv-x="523" 
d="M44 129q0 32 11 57.5t30.5 43.5t46.5 29t58 16l130 19q22 3 29.5 13t7.5 23q0 35 -24.5 60.5t-79.5 25.5q-50 0 -77 -27.5t-32 -69.5l-90 21q4 34 20.5 63t42.5 49.5t60.5 32t73.5 11.5q54 0 92 -14.5t62 -38.5t35 -56t11 -67v-241q0 -32 2 -51t4 -28h-92q-2 9 -3.5 24
t-1.5 41q-8 -13 -21 -27t-32 -26t-44.5 -19.5t-57.5 -7.5q-37 0 -66.5 12t-50.5 31.5t-32.5 45.5t-11.5 55zM218 64q29 0 54.5 7.5t44 24t29.5 44t11 66.5v22l-147 -22q-30 -5 -50 -22.5t-20 -49.5q0 -27 21 -48.5t57 -21.5zM104 621q0 24 16.5 41t40.5 17q25 0 42 -17
t17 -41q0 -25 -17 -41.5t-42 -16.5q-24 0 -40.5 16.5t-16.5 41.5zM291 621q0 24 16.5 41t41.5 17q24 0 41 -17t17 -41q0 -25 -17 -41.5t-41 -16.5q-25 0 -41.5 16.5t-16.5 41.5z" />
    <glyph glyph-name="aring" unicode="&#xe5;" horiz-adv-x="523" 
d="M44 129q0 32 11 57.5t30.5 43.5t46.5 29t58 16l130 19q22 3 29.5 13t7.5 23q0 35 -24.5 60.5t-79.5 25.5q-50 0 -77 -27.5t-32 -69.5l-90 21q4 34 20.5 63t42.5 49.5t60.5 32t73.5 11.5q54 0 92 -14.5t62 -38.5t35 -56t11 -67v-241q0 -32 2 -51t4 -28h-92q-2 9 -3.5 24
t-1.5 41q-8 -13 -21 -27t-32 -26t-44.5 -19.5t-57.5 -7.5q-37 0 -66.5 12t-50.5 31.5t-32.5 45.5t-11.5 55zM218 64q29 0 54.5 7.5t44 24t29.5 44t11 66.5v22l-147 -22q-30 -5 -50 -22.5t-20 -49.5q0 -27 21 -48.5t57 -21.5zM367 641q0 -23 -9 -43t-24 -34.5t-35.5 -23
t-43.5 -8.5q-22 0 -42 8.5t-35.5 23t-24.5 34.5t-9 43t9 43t24.5 35t35.5 23.5t42 8.5q23 0 43.5 -8.5t35.5 -23.5t24 -35t9 -43zM303 641q0 20 -14 34.5t-35 14.5q-20 0 -33.5 -14.5t-13.5 -34.5t13.5 -34t33.5 -14q21 0 35 14t14 34z" />
    <glyph glyph-name="ae" unicode="&#xe6;" horiz-adv-x="869" 
d="M222 64q25 0 50.5 7.5t46.5 24t34 43.5t13 66v23l-157 -22q-32 -5 -51 -23t-19 -51q0 -26 21.5 -47t61.5 -21zM729 290q-2 52 -35.5 87.5t-96.5 35.5q-30 0 -53.5 -10.5t-40 -28t-26.5 -39.5t-11 -45h263zM608 -15q-61 0 -113.5 26.5t-86.5 77.5q-11 -19 -27 -37.5
t-39 -33.5t-54.5 -24t-72.5 -9t-73 12t-54 31.5t-33.5 45.5t-11.5 55q0 32 11 57.5t30.5 43.5t46.5 29t58 16l139 19q24 4 31 14.5t7 21.5q0 35 -27.5 61t-82.5 26q-51 0 -80.5 -28t-34.5 -66l-88 17q3 36 22.5 65t48 49.5t63 31t69.5 10.5q62 0 105 -22t66 -58q32 38 76 59
t93 21q55 0 98.5 -18.5t72.5 -51.5t44.5 -79.5t15.5 -102.5q0 -7 -0.5 -16.5t-1.5 -13.5h-362q1 -32 12.5 -58.5t31 -46t45.5 -30.5t56 -11q55 0 85.5 25.5t44.5 63.5l84 -29q-10 -30 -28 -56t-45 -45.5t-62 -30.5t-79 -11z" />
    <glyph glyph-name="ccedilla" unicode="&#xe7;" horiz-adv-x="539" 
d="M224 -63l32 50q-47 6 -85.5 27.5t-67 55t-44 77.5t-15.5 94q0 55 18.5 102t51 81t77 53t95.5 19q48 0 84.5 -13.5t63 -35.5t42.5 -49.5t24 -54.5l-85 -36q-5 18 -14 36t-24.5 32.5t-37.5 24t-53 9.5q-29 0 -55 -11t-46.5 -32t-32.5 -52.5t-12 -72.5t12 -72.5t32 -53
t47 -32.5t56 -11q33 0 56.5 10t39 25t25 32.5t13.5 31.5l83 -36q-8 -23 -22.5 -47t-36 -44t-51 -35t-67.5 -21l-23 -35q42 0 69.5 -22t27.5 -60q0 -35 -28 -61.5t-89 -26.5q-38 0 -66.5 13t-43.5 31l37 45q9 -10 27.5 -22t44.5 -12q18 0 32.5 8t14.5 25q0 14 -11.5 23
t-32.5 9q-16 0 -29 -5z" />
    <glyph glyph-name="egrave" unicode="&#xe8;" horiz-adv-x="547" 
d="M407 290q-1 25 -9.5 47.5t-25 39t-40.5 26.5t-57 10q-29 0 -53 -11t-41 -28t-27 -39.5t-11 -44.5h264zM496 128q-10 -30 -28 -56t-45 -45.5t-62 -30.5t-79 -11q-49 0 -92 17.5t-75.5 50.5t-51.5 81t-19 108q0 58 19 105t51.5 80t74 51t86.5 18q55 0 98 -19t72 -52.5
t44.5 -79.5t15.5 -101q0 -9 -0.5 -17t-1.5 -13h-362q0 -33 11.5 -60t30.5 -46t44.5 -29.5t54.5 -10.5q55 0 85.5 25.5t44.5 63.5zM128 689h118l86 -146h-78z" />
    <glyph glyph-name="eacute" unicode="&#xe9;" horiz-adv-x="547" 
d="M407 290q-1 25 -9.5 47.5t-25 39t-40.5 26.5t-57 10q-29 0 -53 -11t-41 -28t-27 -39.5t-11 -44.5h264zM496 128q-10 -30 -28 -56t-45 -45.5t-62 -30.5t-79 -11q-49 0 -92 17.5t-75.5 50.5t-51.5 81t-19 108q0 58 19 105t51.5 80t74 51t86.5 18q55 0 98 -19t72 -52.5
t44.5 -79.5t15.5 -101q0 -9 -0.5 -17t-1.5 -13h-362q0 -33 11.5 -60t30.5 -46t44.5 -29.5t54.5 -10.5q55 0 85.5 25.5t44.5 63.5zM313 543h-79l87 146h118z" />
    <glyph glyph-name="ecircumflex" unicode="&#xea;" horiz-adv-x="547" 
d="M407 290q-1 25 -9.5 47.5t-25 39t-40.5 26.5t-57 10q-29 0 -53 -11t-41 -28t-27 -39.5t-11 -44.5h264zM496 128q-10 -30 -28 -56t-45 -45.5t-62 -30.5t-79 -11q-49 0 -92 17.5t-75.5 50.5t-51.5 81t-19 108q0 58 19 105t51.5 80t74 51t86.5 18q55 0 98 -19t72 -52.5
t44.5 -79.5t15.5 -101q0 -9 -0.5 -17t-1.5 -13h-362q0 -33 11.5 -60t30.5 -46t44.5 -29.5t54.5 -10.5q55 0 85.5 25.5t44.5 63.5zM126 545l104 139h107l104 -139h-88l-70 81l-70 -81h-87z" />
    <glyph glyph-name="edieresis" unicode="&#xeb;" horiz-adv-x="547" 
d="M407 290q-1 25 -9.5 47.5t-25 39t-40.5 26.5t-57 10q-29 0 -53 -11t-41 -28t-27 -39.5t-11 -44.5h264zM496 128q-10 -30 -28 -56t-45 -45.5t-62 -30.5t-79 -11q-49 0 -92 17.5t-75.5 50.5t-51.5 81t-19 108q0 58 19 105t51.5 80t74 51t86.5 18q55 0 98 -19t72 -52.5
t44.5 -79.5t15.5 -101q0 -9 -0.5 -17t-1.5 -13h-362q0 -33 11.5 -60t30.5 -46t44.5 -29.5t54.5 -10.5q55 0 85.5 25.5t44.5 63.5zM130 621q0 24 16.5 41t40.5 17q25 0 42 -17t17 -41q0 -25 -17 -41.5t-42 -16.5q-24 0 -40.5 16.5t-16.5 41.5zM317 621q0 24 16.5 41t41.5 17
q24 0 41 -17t17 -41q0 -25 -17 -41.5t-41 -16.5q-25 0 -41.5 16.5t-16.5 41.5z" />
    <glyph glyph-name="igrave" unicode="&#xec;" horiz-adv-x="245" 
d="M76 0v481h93v-481h-93zM-36 689h118l86 -146h-78z" />
    <glyph glyph-name="iacute" unicode="&#xed;" horiz-adv-x="245" 
d="M76 0v481h93v-481h-93zM160 543h-79l87 146h118z" />
    <glyph glyph-name="icircumflex" unicode="&#xee;" horiz-adv-x="245" 
d="M76 0v481h93v-481h-93zM-33 545l104 139h107l104 -139h-88l-70 81l-70 -81h-87z" />
    <glyph glyph-name="idieresis" unicode="&#xef;" horiz-adv-x="245" 
d="M76 0v481h93v-481h-93zM0 621q0 23 15 38.5t38 15.5t38.5 -15.5t15.5 -38.5t-15.5 -38t-38.5 -15t-38 15t-15 38zM141 621q0 23 15 38.5t38 15.5t38.5 -15.5t15.5 -38.5t-15.5 -38t-38.5 -15t-38 15t-15 38z" />
    <glyph glyph-name="eth" unicode="&#xf0;" horiz-adv-x="585" 
d="M398 599q28 -26 53 -60t43.5 -76t29.5 -92t11 -110q0 -59 -17 -109t-48.5 -87t-77 -58t-103.5 -21q-54 0 -99 18t-77.5 50.5t-50.5 76.5t-18 96q0 55 20 99t52 75t73.5 47t85.5 16q45 0 81.5 -12.5t58.5 -37.5q-17 46 -43 81t-58 62l-131 -65l-29 63l94 47q-28 16 -56 27
t-56 19l29 76q29 -7 76.5 -25t97.5 -52l109 55l31 -63zM289 70q30 0 57 10t47.5 30t32.5 49.5t12 67.5q0 39 -12 68t-32.5 49t-47.5 30t-57 10t-57 -10.5t-48 -30.5t-33 -49t-12 -67t12 -67.5t33 -49.5t48 -30t57 -10z" />
    <glyph glyph-name="ntilde" unicode="&#xf1;" horiz-adv-x="559" 
d="M170 0h-94v481h92v-69q26 45 66 64t82 19q43 0 75.5 -14.5t54 -40t32 -60.5t10.5 -75v-305h-94v289q0 25 -5.5 47t-19 38.5t-35 26t-52.5 9.5q-28 0 -49 -10.5t-35 -28.5t-21 -42t-7 -51v-278zM448 662q0 -56 -27.5 -82.5t-69.5 -26.5q-20 0 -36 6.5t-30 15.5l-14 9
q-10 6 -18.5 10t-18.5 4q-14 0 -21.5 -9t-7.5 -34h-72v15q0 56 28 82.5t70 26.5q20 0 36.5 -6.5t30.5 -15.5l14 -9q10 -6 18 -10t18 -4q15 0 22 9.5t7 33.5h71v-15z" />
    <glyph glyph-name="ograve" unicode="&#xf2;" horiz-adv-x="580" 
d="M290 69q30 0 57 11t48 33t33 54t12 74t-12 73.5t-33 53.5t-48 33t-57 11t-57 -11t-48 -33t-33 -53.5t-12 -73.5t12 -74t33 -54t48 -33t57 -11zM290 496q54 0 99 -19.5t78 -53.5t51 -80.5t18 -101.5t-18 -102t-51 -81t-78 -53.5t-99 -19.5t-99 19.5t-78 53.5t-51 81
t-18 102t18 101.5t51 80.5t78 53.5t99 19.5zM129 689h118l86 -146h-78z" />
    <glyph glyph-name="oacute" unicode="&#xf3;" horiz-adv-x="580" 
d="M290 69q30 0 57 11t48 33t33 54t12 74t-12 73.5t-33 53.5t-48 33t-57 11t-57 -11t-48 -33t-33 -53.5t-12 -73.5t12 -74t33 -54t48 -33t57 -11zM290 496q54 0 99 -19.5t78 -53.5t51 -80.5t18 -101.5t-18 -102t-51 -81t-78 -53.5t-99 -19.5t-99 19.5t-78 53.5t-51 81
t-18 102t18 101.5t51 80.5t78 53.5t99 19.5zM313 543h-79l87 146h118z" />
    <glyph glyph-name="ocircumflex" unicode="&#xf4;" horiz-adv-x="580" 
d="M290 69q30 0 57 11t48 33t33 54t12 74t-12 73.5t-33 53.5t-48 33t-57 11t-57 -11t-48 -33t-33 -53.5t-12 -73.5t12 -74t33 -54t48 -33t57 -11zM290 496q54 0 99 -19.5t78 -53.5t51 -80.5t18 -101.5t-18 -102t-51 -81t-78 -53.5t-99 -19.5t-99 19.5t-78 53.5t-51 81
t-18 102t18 101.5t51 80.5t78 53.5t99 19.5zM133 545l104 139h107l104 -139h-88l-70 81l-70 -81h-87z" />
    <glyph glyph-name="otilde" unicode="&#xf5;" horiz-adv-x="580" 
d="M290 69q30 0 57 11t48 33t33 54t12 74t-12 73.5t-33 53.5t-48 33t-57 11t-57 -11t-48 -33t-33 -53.5t-12 -73.5t12 -74t33 -54t48 -33t57 -11zM290 496q54 0 99 -19.5t78 -53.5t51 -80.5t18 -101.5t-18 -102t-51 -81t-78 -53.5t-99 -19.5t-99 19.5t-78 53.5t-51 81
t-18 102t18 101.5t51 80.5t78 53.5t99 19.5zM449 662q0 -56 -27.5 -82.5t-69.5 -26.5q-20 0 -36 6.5t-30 15.5l-14 9q-10 6 -18.5 10t-18.5 4q-14 0 -21.5 -9t-7.5 -34h-72v15q0 56 28 82.5t70 26.5q20 0 36.5 -6.5t30.5 -15.5l14 -9q10 -6 18 -10t18 -4q15 0 22 9.5t7 33.5
h71v-15z" />
    <glyph glyph-name="odieresis" unicode="&#xf6;" horiz-adv-x="580" 
d="M290 69q30 0 57 11t48 33t33 54t12 74t-12 73.5t-33 53.5t-48 33t-57 11t-57 -11t-48 -33t-33 -53.5t-12 -73.5t12 -74t33 -54t48 -33t57 -11zM290 496q54 0 99 -19.5t78 -53.5t51 -80.5t18 -101.5t-18 -102t-51 -81t-78 -53.5t-99 -19.5t-99 19.5t-78 53.5t-51 81
t-18 102t18 101.5t51 80.5t78 53.5t99 19.5zM138 621q0 24 16.5 41t40.5 17q25 0 42 -17t17 -41q0 -25 -17 -41.5t-42 -16.5q-24 0 -40.5 16.5t-16.5 41.5zM325 621q0 24 16.5 41t41.5 17q24 0 41 -17t17 -41q0 -25 -17 -41.5t-41 -16.5q-25 0 -41.5 16.5t-16.5 41.5z" />
    <glyph glyph-name="divide" unicode="&#xf7;" horiz-adv-x="573" 
d="M221 171q0 26 19.5 45t45.5 19t45 -19t19 -45t-19 -45.5t-45 -19.5t-45.5 19.5t-19.5 45.5zM221 526q0 26 19.5 45t45.5 19t45 -19t19 -45t-19 -45.5t-45 -19.5t-45.5 19.5t-19.5 45.5zM58 390h457v-83h-457v83z" />
    <glyph glyph-name="oslash" unicode="&#xf8;" horiz-adv-x="582" 
d="M291 496q35 0 66.5 -8.5t58.5 -23.5l50 65l60 -48l-51 -66q29 -34 45.5 -78t16.5 -96q0 -55 -18 -102t-51 -81t-78 -53.5t-99 -19.5q-35 0 -66.5 8.5t-57.5 22.5l-49 -63l-60 48l49 64q-29 34 -45.5 78.5t-16.5 97.5q0 55 18 101.5t51 80.5t78 53.5t99 19.5zM141 241
q0 -33 7 -57t18 -44l196 254q-33 18 -71 18q-30 0 -57 -11t-48 -33t-33 -53.5t-12 -73.5zM291 69q30 0 57 11t48 33t33 54t12 74q0 29 -6.5 54t-17.5 45l-196 -254q30 -17 70 -17z" />
    <glyph glyph-name="ugrave" unicode="&#xf9;" horiz-adv-x="559" 
d="M393 58q-20 -38 -60 -55.5t-82 -17.5t-75.5 15t-56.5 41t-35.5 61t-12.5 76v303h94v-289q0 -25 6 -47.5t19 -39.5t33.5 -27t50.5 -10q57 0 85.5 34t28.5 89v290h94v-392q0 -29 1.5 -52.5t3.5 -36.5h-90q-2 8 -3 25.5t-1 32.5zM126 689h118l86 -146h-78z" />
    <glyph glyph-name="uacute" unicode="&#xfa;" horiz-adv-x="559" 
d="M393 58q-20 -38 -60 -55.5t-82 -17.5t-75.5 15t-56.5 41t-35.5 61t-12.5 76v303h94v-289q0 -25 6 -47.5t19 -39.5t33.5 -27t50.5 -10q57 0 85.5 34t28.5 89v290h94v-392q0 -29 1.5 -52.5t3.5 -36.5h-90q-2 8 -3 25.5t-1 32.5zM293 543h-79l87 146h118z" />
    <glyph glyph-name="ucircumflex" unicode="&#xfb;" horiz-adv-x="559" 
d="M393 58q-20 -38 -60 -55.5t-82 -17.5t-75.5 15t-56.5 41t-35.5 61t-12.5 76v303h94v-289q0 -25 6 -47.5t19 -39.5t33.5 -27t50.5 -10q57 0 85.5 34t28.5 89v290h94v-392q0 -29 1.5 -52.5t3.5 -36.5h-90q-2 8 -3 25.5t-1 32.5zM119 545l104 139h107l104 -139h-88l-70 81
l-70 -81h-87z" />
    <glyph glyph-name="udieresis" unicode="&#xfc;" horiz-adv-x="559" 
d="M393 58q-20 -38 -60 -55.5t-82 -17.5t-75.5 15t-56.5 41t-35.5 61t-12.5 76v303h94v-289q0 -25 6 -47.5t19 -39.5t33.5 -27t50.5 -10q57 0 85.5 34t28.5 89v290h94v-392q0 -29 1.5 -52.5t3.5 -36.5h-90q-2 8 -3 25.5t-1 32.5zM124 621q0 24 16.5 41t40.5 17q25 0 42 -17
t17 -41q0 -25 -17 -41.5t-42 -16.5q-24 0 -40.5 16.5t-16.5 41.5zM311 621q0 24 16.5 41t41.5 17q24 0 41 -17t17 -41q0 -25 -17 -41.5t-41 -16.5q-25 0 -41.5 16.5t-16.5 41.5z" />
    <glyph glyph-name="yacute" unicode="&#xfd;" horiz-adv-x="538" 
d="M107 -201l120 254l-207 428h108l150 -332l144 332h101l-313 -682h-103zM293 543h-79l87 146h118z" />
    <glyph glyph-name="thorn" unicode="&#xfe;" horiz-adv-x="594" 
d="M76 -190v914h94v-313q20 34 60.5 57.5t97.5 23.5q54 0 95.5 -19.5t69 -53.5t42 -80t14.5 -98q0 -54 -15 -100t-44 -80.5t-70.5 -54t-94.5 -19.5q-56 0 -96 23t-60 55v-255h-93zM453 241q0 36 -10 66.5t-28 53t-44.5 35.5t-59.5 13q-32 0 -58.5 -13t-45.5 -35.5t-29 -53
t-10 -66.5q0 -37 10 -68.5t29 -54t45.5 -35t58.5 -12.5q33 0 59 12.5t44.5 35t28.5 54t10 68.5z" />
    <glyph glyph-name="ydieresis" unicode="&#xff;" horiz-adv-x="538" 
d="M107 -201l120 254l-207 428h108l150 -332l144 332h101l-313 -682h-103zM120 621q0 24 16.5 41t40.5 17q25 0 42 -17t17 -41q0 -25 -17 -41.5t-42 -16.5q-24 0 -40.5 16.5t-16.5 41.5zM307 621q0 24 16.5 41t41.5 17q24 0 41 -17t17 -41q0 -25 -17 -41.5t-41 -16.5
q-25 0 -41.5 16.5t-16.5 41.5z" />
    <glyph glyph-name="Amacron" unicode="&#x100;" horiz-adv-x="711" 
d="M511 198h-314l-75 -198h-105l282 709h113l282 -709h-106zM232 289h244l-123 318zM206 779v83h293v-83h-293z" />
    <glyph glyph-name="amacron" unicode="&#x101;" horiz-adv-x="523" 
d="M44 129q0 32 11 57.5t30.5 43.5t46.5 29t58 16l130 19q22 3 29.5 13t7.5 23q0 35 -24.5 60.5t-79.5 25.5q-50 0 -77 -27.5t-32 -69.5l-90 21q4 34 20.5 63t42.5 49.5t60.5 32t73.5 11.5q54 0 92 -14.5t62 -38.5t35 -56t11 -67v-241q0 -32 2 -51t4 -28h-92q-2 9 -3.5 24
t-1.5 41q-8 -13 -21 -27t-32 -26t-44.5 -19.5t-57.5 -7.5q-37 0 -66.5 12t-50.5 31.5t-32.5 45.5t-11.5 55zM218 64q29 0 54.5 7.5t44 24t29.5 44t11 66.5v22l-147 -22q-30 -5 -50 -22.5t-20 -49.5q0 -27 21 -48.5t57 -21.5zM119 577v81h273v-81h-273z" />
    <glyph glyph-name="Abreve" unicode="&#x102;" horiz-adv-x="711" 
d="M511 198h-314l-75 -198h-105l282 709h113l282 -709h-106zM232 289h244l-123 318zM354 754q-38 0 -66.5 11t-48 29.5t-30.5 41.5t-12 47h81q1 -9 5 -18.5t13 -18t23.5 -14t34.5 -5.5t34 5.5t23 14t13 18t5 18.5h81q-2 -24 -12 -47t-29.5 -41.5t-48 -29.5t-66.5 -11z" />
    <glyph glyph-name="abreve" unicode="&#x103;" horiz-adv-x="523" 
d="M44 129q0 32 11 57.5t30.5 43.5t46.5 29t58 16l130 19q22 3 29.5 13t7.5 23q0 35 -24.5 60.5t-79.5 25.5q-50 0 -77 -27.5t-32 -69.5l-90 21q4 34 20.5 63t42.5 49.5t60.5 32t73.5 11.5q54 0 92 -14.5t62 -38.5t35 -56t11 -67v-241q0 -32 2 -51t4 -28h-92q-2 9 -3.5 24
t-1.5 41q-8 -13 -21 -27t-32 -26t-44.5 -19.5t-57.5 -7.5q-37 0 -66.5 12t-50.5 31.5t-32.5 45.5t-11.5 55zM218 64q29 0 54.5 7.5t44 24t29.5 44t11 66.5v22l-147 -22q-30 -5 -50 -22.5t-20 -49.5q0 -27 21 -48.5t57 -21.5zM253 545q-35 0 -62 12t-45.5 32t-28.5 45.5
t-10 52.5h73q1 -23 18 -44t55 -21t54.5 21t18.5 44h73q0 -27 -9.5 -52.5t-27.5 -45.5t-45.5 -32t-63.5 -12z" />
    <glyph glyph-name="Aogonek" unicode="&#x104;" horiz-adv-x="711" 
d="M232 289h244l-123 318zM529 -115q0 43 22 70.5t50 44.5h-13l-77 198h-314l-75 -198h-105l282 709h113l282 -709q-14 -7 -29 -16t-27.5 -21t-20.5 -27t-8 -33q0 -26 16.5 -36.5t36.5 -10.5q12 0 19 1t13 3v-68q-10 -4 -20.5 -6t-29.5 -2q-23 0 -44 7t-37 19.5t-25 31.5
t-9 43z" />
    <glyph glyph-name="aogonek" unicode="&#x105;" horiz-adv-x="523" 
d="M292 -115q0 44 22 71.5t50 44.5q-2 9 -3 23.5t-1 40.5q-8 -13 -21 -27t-32 -26t-44.5 -19.5t-57.5 -7.5q-37 0 -66.5 12t-50.5 31.5t-32.5 45.5t-11.5 55q0 32 11 57.5t30.5 43.5t46.5 29t58 16l130 19q22 3 29.5 13t7.5 23q0 35 -24.5 60.5t-79.5 25.5q-50 0 -77 -27.5
t-32 -69.5l-90 21q4 34 20.5 63t42.5 49.5t60.5 32t73.5 11.5q54 0 92 -14.5t62 -38.5t35 -56t11 -67v-241q0 -32 2 -51t4 -28q-14 -7 -29 -16t-27.5 -21t-20.5 -27t-8 -33q0 -26 16.5 -36.5t36.5 -10.5q12 0 19 1t13 3v-68q-10 -4 -20.5 -6t-29.5 -2q-23 0 -44 7t-37 19.5
t-25 31.5t-9 43zM218 64q29 0 54.5 7.5t44 24t29.5 44t11 66.5v22l-147 -22q-30 -5 -50 -22.5t-20 -49.5q0 -27 21 -48.5t57 -21.5z" />
    <glyph glyph-name="Cacute" unicode="&#x106;" horiz-adv-x="748" 
d="M401 -15q-69 0 -132.5 24.5t-112 71.5t-78 116t-29.5 158t30 157.5t79.5 115.5t113 71.5t129.5 24.5q61 0 112 -16t91 -45t67.5 -71t41.5 -93l-91 -32q-20 81 -76.5 124t-144.5 43q-48 0 -93.5 -17.5t-81 -52.5t-56.5 -87.5t-21 -121.5t21 -121.5t56.5 -88t81 -53
t93.5 -17.5q45 0 82 13t65.5 35.5t48 54t30.5 67.5l87 -32q-14 -50 -42 -92t-67.5 -72t-91 -47t-112.5 -17zM440 759h-94l101 119h130z" />
    <glyph glyph-name="cacute" unicode="&#x107;" horiz-adv-x="539" 
d="M286 409q-29 0 -55 -10.5t-46.5 -31.5t-32.5 -52.5t-12 -73.5q0 -41 12 -72.5t32 -53t47 -32.5t56 -11q34 0 57.5 10t39 25t24.5 32.5t13 31.5l83 -36q-9 -26 -26 -52.5t-44 -48.5t-63.5 -35.5t-83.5 -13.5q-53 0 -97.5 19.5t-76.5 54t-50.5 81t-18.5 101.5
q0 56 18.5 103t51 80.5t77 52.5t95.5 19q48 0 84.5 -13.5t63 -35.5t42.5 -49.5t24 -54.5l-85 -36q-5 18 -14 36t-24.5 32.5t-37.5 24t-53 9.5zM315 543h-79l87 146h118z" />
    <glyph glyph-name="Ccircumflex" unicode="&#x108;" horiz-adv-x="748" 
d="M401 -15q-69 0 -132.5 24.5t-112 71.5t-78 116t-29.5 158t30 157.5t79.5 115.5t113 71.5t129.5 24.5q61 0 112 -16t91 -45t67.5 -71t41.5 -93l-91 -32q-20 81 -76.5 124t-144.5 43q-48 0 -93.5 -17.5t-81 -52.5t-56.5 -87.5t-21 -121.5t21 -121.5t56.5 -88t81 -53
t93.5 -17.5q45 0 82 13t65.5 35.5t48 54t30.5 67.5l87 -32q-14 -50 -42 -92t-67.5 -72t-91 -47t-112.5 -17zM231 759l112 119h120l117 -119h-92l-85 64l-81 -64h-91z" />
    <glyph glyph-name="ccircumflex" unicode="&#x109;" horiz-adv-x="539" 
d="M286 409q-29 0 -55 -10.5t-46.5 -31.5t-32.5 -52.5t-12 -73.5q0 -41 12 -72.5t32 -53t47 -32.5t56 -11q34 0 57.5 10t39 25t24.5 32.5t13 31.5l83 -36q-9 -26 -26 -52.5t-44 -48.5t-63.5 -35.5t-83.5 -13.5q-53 0 -97.5 19.5t-76.5 54t-50.5 81t-18.5 101.5
q0 56 18.5 103t51 80.5t77 52.5t95.5 19q48 0 84.5 -13.5t63 -35.5t42.5 -49.5t24 -54.5l-85 -36q-5 18 -14 36t-24.5 32.5t-37.5 24t-53 9.5zM128 545l104 139h107l104 -139h-88l-70 81l-70 -81h-87z" />
    <glyph glyph-name="Cdotaccent" unicode="&#x10a;" horiz-adv-x="748" 
d="M401 -15q-69 0 -132.5 24.5t-112 71.5t-78 116t-29.5 158t30 157.5t79.5 115.5t113 71.5t129.5 24.5q61 0 112 -16t91 -45t67.5 -71t41.5 -93l-91 -32q-20 81 -76.5 124t-144.5 43q-48 0 -93.5 -17.5t-81 -52.5t-56.5 -87.5t-21 -121.5t21 -121.5t56.5 -88t81 -53
t93.5 -17.5q45 0 82 13t65.5 35.5t48 54t30.5 67.5l87 -32q-14 -50 -42 -92t-67.5 -72t-91 -47t-112.5 -17zM337 818q0 26 18.5 45t44.5 19t45 -19t19 -45t-19 -44.5t-45 -18.5t-44.5 18.5t-18.5 44.5z" />
    <glyph glyph-name="cdotaccent" unicode="&#x10b;" horiz-adv-x="539" 
d="M286 409q-29 0 -55 -10.5t-46.5 -31.5t-32.5 -52.5t-12 -73.5q0 -41 12 -72.5t32 -53t47 -32.5t56 -11q34 0 57.5 10t39 25t24.5 32.5t13 31.5l83 -36q-9 -26 -26 -52.5t-44 -48.5t-63.5 -35.5t-83.5 -13.5q-53 0 -97.5 19.5t-76.5 54t-50.5 81t-18.5 101.5
q0 56 18.5 103t51 80.5t77 52.5t95.5 19q48 0 84.5 -13.5t63 -35.5t42.5 -49.5t24 -54.5l-85 -36q-5 18 -14 36t-24.5 32.5t-37.5 24t-53 9.5zM224 616q0 26 18 44t44 18t44 -18t18 -44t-18 -44t-44 -18t-44 18t-18 44z" />
    <glyph glyph-name="Ccaron" unicode="&#x10c;" horiz-adv-x="748" 
d="M401 -15q-69 0 -132.5 24.5t-112 71.5t-78 116t-29.5 158t30 157.5t79.5 115.5t113 71.5t129.5 24.5q61 0 112 -16t91 -45t67.5 -71t41.5 -93l-91 -32q-20 81 -76.5 124t-144.5 43q-48 0 -93.5 -17.5t-81 -52.5t-56.5 -87.5t-21 -121.5t21 -121.5t56.5 -88t81 -53
t93.5 -17.5q45 0 82 13t65.5 35.5t48 54t30.5 67.5l87 -32q-14 -50 -42 -92t-67.5 -72t-91 -47t-112.5 -17zM317 878l81 -64l85 64h92l-117 -119h-120l-112 119h91z" />
    <glyph glyph-name="ccaron" unicode="&#x10d;" horiz-adv-x="539" 
d="M286 409q-29 0 -55 -10.5t-46.5 -31.5t-32.5 -52.5t-12 -73.5q0 -41 12 -72.5t32 -53t47 -32.5t56 -11q34 0 57.5 10t39 25t24.5 32.5t13 31.5l83 -36q-9 -26 -26 -52.5t-44 -48.5t-63.5 -35.5t-83.5 -13.5q-53 0 -97.5 19.5t-76.5 54t-50.5 81t-18.5 101.5
q0 56 18.5 103t51 80.5t77 52.5t95.5 19q48 0 84.5 -13.5t63 -35.5t42.5 -49.5t24 -54.5l-85 -36q-5 18 -14 36t-24.5 32.5t-37.5 24t-53 9.5zM208 687l70 -81l70 81h88l-102 -142h-111l-102 142h87z" />
    <glyph glyph-name="Dcaron" unicode="&#x10e;" horiz-adv-x="730" 
d="M338 87q49 0 93 16.5t77 49.5t52 83t19 117t-19 117.5t-51.5 84t-76 50.5t-92.5 17h-147v-535h145zM95 0v709h248q67 0 128.5 -23t107.5 -68t73.5 -111.5t27.5 -153.5t-27.5 -153t-74.5 -110.5t-108.5 -67t-128.5 -22.5h-246zM276 878l81 -64l85 64h92l-117 -119h-120
l-112 119h91z" />
    <glyph glyph-name="dcaron" unicode="&#x10f;" horiz-adv-x="590" 
d="M141 242q0 -37 9.5 -68.5t27.5 -54.5t44 -36t60 -13q32 0 58 13.5t44 36.5t27.5 55t9.5 69q0 75 -36.5 121t-101.5 46q-32 0 -58.5 -12.5t-45 -35t-28.5 -53.5t-10 -68zM422 73q-17 -35 -54.5 -60.5t-94.5 -25.5q-53 0 -95 19.5t-71.5 54t-45.5 81t-16 100.5
q0 51 16.5 96.5t46.5 80t72 55t93 20.5q32 0 56.5 -7t42.5 -18.5t30 -26t18 -29.5v311h93v-635q0 -35 2 -59t3 -30h-91q-2 8 -3.5 25.5t-1.5 39.5v8zM623 545h-69l28 179h105z" />
    <glyph glyph-name="Dcroat" unicode="&#x110;" horiz-adv-x="733" 
d="M98 0v325h-76v82h76v302h248q67 0 128.5 -23t107.5 -68t73.5 -111.5t27.5 -153.5t-27.5 -153t-74.5 -110.5t-108.5 -67t-128.5 -22.5h-246zM341 87q49 0 93 16.5t77 49.5t52 83t19 117t-19 117.5t-51.5 84t-76 50.5t-92.5 17h-147v-215h122v-82h-122v-238h145z" />
    <glyph glyph-name="dcroat" unicode="&#x111;" horiz-adv-x="589" 
d="M513 631h77v-76h-77v-466q0 -35 2 -59t3 -30h-91q-2 8 -3.5 25.5t-1.5 39.5v8q-17 -35 -54.5 -60.5t-94.5 -25.5q-53 0 -95 19.5t-71.5 54t-45.5 81t-16 100.5q0 51 16.5 96.5t46.5 80t72 55t93 20.5q32 0 56.5 -7t42.5 -18.5t30 -26t18 -29.5v142h-131v76h131v93h93v-93
zM141 242q0 -37 9.5 -68.5t27.5 -54.5t44 -36t60 -13q32 0 58 13.5t44 36.5t27.5 55t9.5 69q0 75 -36.5 121t-101.5 46q-32 0 -58.5 -12.5t-45 -35t-28.5 -53.5t-10 -68z" />
    <glyph glyph-name="Emacron" unicode="&#x112;" horiz-adv-x="580" 
d="M95 0v709h431v-91h-333v-218h302v-92h-302v-217h333v-91h-431zM161 779v83h293v-83h-293z" />
    <glyph glyph-name="emacron" unicode="&#x113;" horiz-adv-x="547" 
d="M407 290q-1 25 -9.5 47.5t-25 39t-40.5 26.5t-57 10q-29 0 -53 -11t-41 -28t-27 -39.5t-11 -44.5h264zM496 128q-10 -30 -28 -56t-45 -45.5t-62 -30.5t-79 -11q-49 0 -92 17.5t-75.5 50.5t-51.5 81t-19 108q0 58 19 105t51.5 80t74 51t86.5 18q55 0 98 -19t72 -52.5
t44.5 -79.5t15.5 -101q0 -9 -0.5 -17t-1.5 -13h-362q0 -33 11.5 -60t30.5 -46t44.5 -29.5t54.5 -10.5q55 0 85.5 25.5t44.5 63.5zM146 577v81h273v-81h-273z" />
    <glyph glyph-name="Ebreve" unicode="&#x114;" horiz-adv-x="580" 
d="M95 0v709h431v-91h-333v-218h302v-92h-302v-217h333v-91h-431zM312 754q-38 0 -66.5 11t-48 29.5t-30.5 41.5t-12 47h81q1 -9 5 -18.5t13 -18t23.5 -14t34.5 -5.5t34 5.5t23 14t13 18t5 18.5h81q-2 -24 -12 -47t-29.5 -41.5t-48 -29.5t-66.5 -11z" />
    <glyph glyph-name="ebreve" unicode="&#x115;" horiz-adv-x="547" 
d="M407 290q-1 25 -9.5 47.5t-25 39t-40.5 26.5t-57 10q-29 0 -53 -11t-41 -28t-27 -39.5t-11 -44.5h264zM496 128q-10 -30 -28 -56t-45 -45.5t-62 -30.5t-79 -11q-49 0 -92 17.5t-75.5 50.5t-51.5 81t-19 108q0 58 19 105t51.5 80t74 51t86.5 18q55 0 98 -19t72 -52.5
t44.5 -79.5t15.5 -101q0 -9 -0.5 -17t-1.5 -13h-362q0 -33 11.5 -60t30.5 -46t44.5 -29.5t54.5 -10.5q55 0 85.5 25.5t44.5 63.5zM282 545q-35 0 -62 12t-45.5 32t-28.5 45.5t-10 52.5h73q1 -23 18 -44t55 -21t54.5 21t18.5 44h73q0 -27 -9.5 -52.5t-27.5 -45.5t-45.5 -32
t-63.5 -12z" />
    <glyph glyph-name="Edotaccent" unicode="&#x116;" horiz-adv-x="580" 
d="M95 0v709h431v-91h-333v-218h302v-92h-302v-217h333v-91h-431zM248 818q0 26 18.5 45t44.5 19t45 -19t19 -45t-19 -44.5t-45 -18.5t-44.5 18.5t-18.5 44.5z" />
    <glyph glyph-name="edotaccent" unicode="&#x117;" horiz-adv-x="547" 
d="M407 290q-1 25 -9.5 47.5t-25 39t-40.5 26.5t-57 10q-29 0 -53 -11t-41 -28t-27 -39.5t-11 -44.5h264zM496 128q-10 -30 -28 -56t-45 -45.5t-62 -30.5t-79 -11q-49 0 -92 17.5t-75.5 50.5t-51.5 81t-19 108q0 58 19 105t51.5 80t74 51t86.5 18q55 0 98 -19t72 -52.5
t44.5 -79.5t15.5 -101q0 -9 -0.5 -17t-1.5 -13h-362q0 -33 11.5 -60t30.5 -46t44.5 -29.5t54.5 -10.5q55 0 85.5 25.5t44.5 63.5zM221 616q0 26 18 44t44 18t44 -18t18 -44t-18 -44t-44 -18t-44 18t-18 44z" />
    <glyph glyph-name="Eogonek" unicode="&#x118;" horiz-adv-x="580" 
d="M361 -115q0 43 22 70.5t50 44.5h-338v709h431v-91h-333v-218h302v-92h-302v-217h333v-91q-14 -7 -29 -16t-27.5 -21t-20.5 -27t-8 -33q0 -26 16.5 -36.5t36.5 -10.5q12 0 19 1t13 3v-68q-10 -4 -20.5 -6t-29.5 -2q-23 0 -44 7t-37 19.5t-25 31.5t-9 43z" />
    <glyph glyph-name="eogonek" unicode="&#x119;" horiz-adv-x="547" 
d="M322 -215q-23 0 -44 7t-37 19.5t-25 31.5t-9 43q0 35 15 59t36 41q-44 5 -82.5 24.5t-68 52t-46.5 77.5t-17 102t19 103.5t50.5 80t73.5 52t87 18.5q55 0 98.5 -18.5t72.5 -51.5t44.5 -79.5t15.5 -102.5v-11.5t-2 -18.5h-362q1 -32 12.5 -58.5t31 -46t45.5 -30.5t56 -11
q55 0 85.5 25.5t44.5 63.5l84 -29q-16 -48 -50 -82t-90 -51q-35 -11 -54 -34t-19 -52t16.5 -40.5t36.5 -11.5q17 0 32 4v-68q-10 -4 -20.5 -6t-29.5 -2zM407 290q-2 52 -35.5 87.5t-96.5 35.5q-30 0 -53.5 -10.5t-40 -28t-26.5 -39.5t-11 -45h263z" />
    <glyph glyph-name="Ecaron" unicode="&#x11a;" horiz-adv-x="580" 
d="M95 0v709h431v-91h-333v-218h302v-92h-302v-217h333v-91h-431zM235 878l81 -64l85 64h92l-117 -119h-120l-112 119h91z" />
    <glyph glyph-name="ecaron" unicode="&#x11b;" horiz-adv-x="547" 
d="M407 290q-1 25 -9.5 47.5t-25 39t-40.5 26.5t-57 10q-29 0 -53 -11t-41 -28t-27 -39.5t-11 -44.5h264zM496 128q-10 -30 -28 -56t-45 -45.5t-62 -30.5t-79 -11q-49 0 -92 17.5t-75.5 50.5t-51.5 81t-19 108q0 58 19 105t51.5 80t74 51t86.5 18q55 0 98 -19t72 -52.5
t44.5 -79.5t15.5 -101q0 -9 -0.5 -17t-1.5 -13h-362q0 -33 11.5 -60t30.5 -46t44.5 -29.5t54.5 -10.5q55 0 85.5 25.5t44.5 63.5zM212 687l70 -81l70 81h88l-102 -142h-111l-102 142h87z" />
    <glyph glyph-name="Gcircumflex" unicode="&#x11c;" horiz-adv-x="772" 
d="M629 0l-9 100q-12 -21 -32 -41.5t-48.5 -37t-65 -26.5t-81.5 -10q-67 0 -129 24t-110 71t-76.5 116t-28.5 159t30 159t79.5 115.5t112.5 70.5t129 24q60 0 110.5 -15t90.5 -42.5t69 -66.5t44 -87l-89 -38q-24 77 -83 118t-142 41q-47 0 -92.5 -17t-80.5 -52t-56.5 -87.5
t-21.5 -122.5q0 -71 21 -123.5t55.5 -87.5t79 -52.5t91.5 -17.5q58 0 99.5 18.5t68 46.5t39 60.5t14.5 59.5h-198v88h289v-347h-79zM230 759l112 119h120l117 -119h-92l-85 64l-81 -64h-91z" />
    <glyph glyph-name="gcircumflex" unicode="&#x11d;" horiz-adv-x="582" 
d="M136 -12q2 -22 12 -42t26.5 -35.5t40 -24.5t52.5 -9q68 0 106.5 38.5t38.5 119.5v67q-17 -33 -55 -56t-92 -23q-48 0 -88.5 17.5t-70 48t-46 73.5t-16.5 94q0 49 16 91.5t45 74t69.5 50t90.5 18.5q56 0 93 -20t55 -56v67h93v-443q0 -46 -12.5 -89.5t-40.5 -77.5
t-73.5 -55t-111.5 -21q-48 0 -87.5 13.5t-68 36.5t-46 54.5t-21.5 66.5zM279 102q61 0 99 42t38 112t-38 112t-99 42q-63 0 -101 -42t-38 -112q0 -71 37.5 -112.5t101.5 -41.5zM123 545l104 139h107l104 -139h-88l-70 81l-70 -81h-87z" />
    <glyph glyph-name="Gbreve" unicode="&#x11e;" horiz-adv-x="772" 
d="M629 0l-9 100q-12 -21 -32 -41.5t-48.5 -37t-65 -26.5t-81.5 -10q-67 0 -129 24t-110 71t-76.5 116t-28.5 159t30 159t79.5 115.5t112.5 70.5t129 24q60 0 110.5 -15t90.5 -42.5t69 -66.5t44 -87l-89 -38q-24 77 -83 118t-142 41q-47 0 -92.5 -17t-80.5 -52t-56.5 -87.5
t-21.5 -122.5q0 -71 21 -123.5t55.5 -87.5t79 -52.5t91.5 -17.5q58 0 99.5 18.5t68 46.5t39 60.5t14.5 59.5h-198v88h289v-347h-79zM398 754q-38 0 -66.5 11t-48 29.5t-30.5 41.5t-12 47h81q1 -9 5 -18.5t13 -18t23.5 -14t34.5 -5.5t34 5.5t23 14t13 18t5 18.5h81
q-2 -24 -12 -47t-29.5 -41.5t-48 -29.5t-66.5 -11z" />
    <glyph glyph-name="gbreve" unicode="&#x11f;" horiz-adv-x="582" 
d="M136 -12q2 -22 12 -42t26.5 -35.5t40 -24.5t52.5 -9q68 0 106.5 38.5t38.5 119.5v67q-17 -33 -55 -56t-92 -23q-48 0 -88.5 17.5t-70 48t-46 73.5t-16.5 94q0 49 16 91.5t45 74t69.5 50t90.5 18.5q56 0 93 -20t55 -56v67h93v-443q0 -46 -12.5 -89.5t-40.5 -77.5
t-73.5 -55t-111.5 -21q-48 0 -87.5 13.5t-68 36.5t-46 54.5t-21.5 66.5zM279 102q61 0 99 42t38 112t-38 112t-99 42q-63 0 -101 -42t-38 -112q0 -71 37.5 -112.5t101.5 -41.5zM274 545q-35 0 -62 12t-45.5 32t-28.5 45.5t-10 52.5h73q1 -23 18 -44t55 -21t54.5 21t18.5 44
h73q0 -27 -9.5 -52.5t-27.5 -45.5t-45.5 -32t-63.5 -12z" />
    <glyph glyph-name="Gdotaccent" unicode="&#x120;" horiz-adv-x="772" 
d="M629 0l-9 100q-12 -21 -32 -41.5t-48.5 -37t-65 -26.5t-81.5 -10q-67 0 -129 24t-110 71t-76.5 116t-28.5 159t30 159t79.5 115.5t112.5 70.5t129 24q60 0 110.5 -15t90.5 -42.5t69 -66.5t44 -87l-89 -38q-24 77 -83 118t-142 41q-47 0 -92.5 -17t-80.5 -52t-56.5 -87.5
t-21.5 -122.5q0 -71 21 -123.5t55.5 -87.5t79 -52.5t91.5 -17.5q58 0 99.5 18.5t68 46.5t39 60.5t14.5 59.5h-198v88h289v-347h-79zM339 818q0 26 18.5 45t44.5 19t45 -19t19 -45t-19 -44.5t-45 -18.5t-44.5 18.5t-18.5 44.5z" />
    <glyph glyph-name="gdotaccent" unicode="&#x121;" horiz-adv-x="582" 
d="M136 -12q2 -22 12 -42t26.5 -35.5t40 -24.5t52.5 -9q68 0 106.5 38.5t38.5 119.5v67q-17 -33 -55 -56t-92 -23q-48 0 -88.5 17.5t-70 48t-46 73.5t-16.5 94q0 49 16 91.5t45 74t69.5 50t90.5 18.5q56 0 93 -20t55 -56v67h93v-443q0 -46 -12.5 -89.5t-40.5 -77.5
t-73.5 -55t-111.5 -21q-48 0 -87.5 13.5t-68 36.5t-46 54.5t-21.5 66.5zM279 102q61 0 99 42t38 112t-38 112t-99 42q-63 0 -101 -42t-38 -112q0 -71 37.5 -112.5t101.5 -41.5zM213 616q0 26 18 44t44 18t44 -18t18 -44t-18 -44t-44 -18t-44 18t-18 44z" />
    <glyph glyph-name="Gcommaaccent" unicode="&#x122;" horiz-adv-x="772" 
d="M629 0l-9 100q-12 -21 -32 -41.5t-48.5 -37t-65 -26.5t-81.5 -10q-67 0 -129 24t-110 71t-76.5 116t-28.5 159t30 159t79.5 115.5t112.5 70.5t129 24q60 0 110.5 -15t90.5 -42.5t69 -66.5t44 -87l-89 -38q-24 77 -83 118t-142 41q-47 0 -92.5 -17t-80.5 -52t-56.5 -87.5
t-21.5 -122.5q0 -71 21 -123.5t55.5 -87.5t79 -52.5t91.5 -17.5q58 0 99.5 18.5t68 46.5t39 60.5t14.5 59.5h-198v88h289v-347h-79zM338 -88q0 23 18 37.5t41 14.5q22 0 43.5 -16.5t21.5 -56.5q0 -29 -10 -50t-26.5 -35t-37 -20.5t-40.5 -6.5v40q26 0 44.5 15t20.5 33
q-2 -2 -8 -4t-13 -2q-23 0 -38.5 12.5t-15.5 38.5z" />
    <glyph glyph-name="gcommaaccent" unicode="&#x123;" horiz-adv-x="582" 
d="M136 -12q2 -22 12 -42t26.5 -35.5t40 -24.5t52.5 -9q68 0 106.5 38.5t38.5 119.5v67q-17 -33 -55 -56t-92 -23q-48 0 -88.5 17.5t-70 48t-46 73.5t-16.5 94q0 49 16 91.5t45 74t69.5 50t90.5 18.5q56 0 93 -20t55 -56v67h93v-443q0 -46 -12.5 -89.5t-40.5 -77.5
t-73.5 -55t-111.5 -21q-48 0 -87.5 13.5t-68 36.5t-46 54.5t-21.5 66.5zM279 102q61 0 99 42t38 112t-38 112t-99 42q-63 0 -101 -42t-38 -112q0 -71 37.5 -112.5t101.5 -41.5zM329 586q0 -24 -17 -38t-42 -14q-11 0 -22 4t-21 12.5t-16 22.5t-6 34q0 27 10 48t26.5 35
t37 21.5t40.5 7.5v-40q-26 0 -44.5 -15t-20.5 -33q1 1 6.5 3.5t14.5 2.5q24 0 39 -13.5t15 -37.5z" />
    <glyph glyph-name="Hcircumflex" unicode="&#x124;" horiz-adv-x="748" 
d="M555 0v315h-362v-315h-98v709h98v-303h362v303h98v-709h-98zM200 759l112 119h120l117 -119h-92l-85 64l-81 -64h-91z" />
    <glyph glyph-name="hcircumflex" unicode="&#x125;" horiz-adv-x="559" 
d="M170 0h-94v724h94v-299q26 38 65 54t81 16q43 0 75.5 -14.5t54 -40t32 -60.5t10.5 -75v-305h-94v289q0 25 -5.5 47t-19 38.5t-35 26t-52.5 9.5q-27 0 -47.5 -10t-34.5 -27t-21.5 -40t-8.5 -50v-283zM111 769l112 119h120l117 -119h-92l-85 64l-81 -64h-91z" />
    <glyph glyph-name="Hbar" unicode="&#x126;" horiz-adv-x="752" 
d="M557 0v315h-362v-315h-98v513h-73v75h73v121h98v-121h362v121h98v-121h72v-75h-72v-513h-98zM557 406v107h-362v-107h362z" />
    <glyph glyph-name="hbar" unicode="&#x127;" horiz-adv-x="559" 
d="M170 0h-94v557h-86v76h86v91h94v-91h121v-76h-121v-132q26 38 65 54t81 16q43 0 75.5 -14.5t54 -40t32 -60.5t10.5 -75v-305h-94v289q0 25 -5.5 47t-19 38.5t-35 26t-52.5 9.5q-27 0 -47.5 -10t-34.5 -27t-21.5 -40t-8.5 -50v-283z" />
    <glyph glyph-name="Itilde" unicode="&#x128;" horiz-adv-x="290" 
d="M95 0v709h100v-709h-100zM309 865q0 -56 -27 -83.5t-69 -27.5q-22 0 -39 6t-32 17l-15 10q-10 6 -18.5 10t-18.5 4q-16 0 -25.5 -10.5t-9.5 -33.5h-68v16q0 56 27.5 83.5t69.5 27.5q21 0 39.5 -7t33.5 -16l15 -9q11 -6 19.5 -10t18.5 -4q13 0 22.5 7.5t9.5 27.5v8h67v-16
z" />
    <glyph glyph-name="itilde" unicode="&#x129;" horiz-adv-x="245" 
d="M76 0v481h93v-481h-93zM281 662q0 -56 -27.5 -82.5t-69.5 -26.5q-20 0 -36 6.5t-30 15.5l-14 9q-10 6 -18.5 10t-18.5 4q-14 0 -21.5 -9t-7.5 -34h-72v15q0 56 28 82.5t70 26.5q20 0 36.5 -6.5t30.5 -15.5l14 -9q10 -6 18 -10t18 -4q15 0 22 9.5t7 33.5h71v-15z" />
    <glyph glyph-name="Imacron" unicode="&#x12a;" horiz-adv-x="290" 
d="M95 0v709h100v-709h-100zM0 779v83h293v-83h-293z" />
    <glyph glyph-name="imacron" unicode="&#x12b;" horiz-adv-x="245" 
d="M76 0v481h93v-481h-93zM-12 577v81h273v-81h-273z" />
    <glyph glyph-name="Ibreve" unicode="&#x12c;" horiz-adv-x="290" 
d="M95 0v709h100v-709h-100zM147 754q-38 0 -66.5 11t-48 29.5t-30.5 41.5t-12 47h81q1 -9 5 -18.5t13 -18t23.5 -14t34.5 -5.5t34 5.5t23 14t13 18t5 18.5h81q-2 -24 -12 -47t-29.5 -41.5t-48 -29.5t-66.5 -11z" />
    <glyph glyph-name="ibreve" unicode="&#x12d;" horiz-adv-x="245" 
d="M76 0v481h93v-481h-93zM124 545q-35 0 -62 12t-45.5 32t-28.5 45.5t-10 52.5h73q1 -23 18 -44t55 -21t54.5 21t18.5 44h73q0 -27 -9.5 -52.5t-27.5 -45.5t-45.5 -32t-63.5 -12z" />
    <glyph glyph-name="Iogonek" unicode="&#x12e;" horiz-adv-x="290" 
d="M30 -115q0 43 22 70.5t50 44.5h-7v709h100v-709q-14 -7 -29 -16t-27.5 -21t-20.5 -27t-8 -33q0 -26 16.5 -36.5t36.5 -10.5q12 0 19 1t13 3v-68q-10 -4 -20.5 -6t-29.5 -2q-23 0 -44 7t-37 19.5t-25 31.5t-9 43z" />
    <glyph glyph-name="iogonek" unicode="&#x12f;" horiz-adv-x="245" 
d="M84 -97q0 -26 16.5 -36.5t36.5 -10.5q12 0 19 1t13 3v-68q-10 -4 -20.5 -6t-29.5 -2q-23 0 -44 7t-37 19.5t-25 31.5t-9 43q0 44 22 71t50 44v481h93v-481q-14 -7 -29 -16t-27.5 -21t-20.5 -27t-8 -33zM55 663q0 29 19.5 48.5t47.5 19.5q29 0 48.5 -19.5t19.5 -48.5
q0 -28 -19.5 -47.5t-48.5 -19.5q-28 0 -47.5 19.5t-19.5 47.5z" />
    <glyph glyph-name="Idotaccent" unicode="&#x130;" horiz-adv-x="290" 
d="M95 0v709h100v-709h-100zM81 818q0 26 18.5 45t44.5 19t45 -19t19 -45t-19 -44.5t-45 -18.5t-44.5 18.5t-18.5 44.5z" />
    <glyph glyph-name="dotlessi" unicode="&#x131;" horiz-adv-x="245" 
d="M76 0v481h93v-481h-93z" />
    <glyph glyph-name="IJ" unicode="&#x132;" horiz-adv-x="610" 
d="M88 300v409h100v-409h-100zM188 230v-18q0 -71 33 -103.5t87 -32.5t85 33.5t31 95.5v504h98v-497q0 -47 -14.5 -88t-42.5 -72t-67.5 -49t-88.5 -18q-52 0 -93 16t-69.5 46t-43.5 71.5t-15 92.5z" />
    <glyph glyph-name="ij" unicode="&#x133;" horiz-adv-x="491" 
d="M76 0v481h93v-481h-93zM55 663q0 29 19.5 48.5t47.5 19.5q29 0 48.5 -19.5t19.5 -48.5q0 -28 -19.5 -47.5t-48.5 -19.5q-28 0 -47.5 19.5t-19.5 47.5zM321 481h94v-537q0 -66 -35 -107.5t-98 -41.5q-27 0 -39 2.5t-17 4.5v79q4 -1 11.5 -2t18.5 -1q37 0 51 18.5t14 51.5
v533zM300 665q0 29 19.5 48.5t47.5 19.5q29 0 48.5 -19.5t19.5 -48.5q0 -28 -19.5 -47.5t-48.5 -19.5q-28 0 -47.5 19.5t-19.5 47.5z" />
    <glyph glyph-name="Jcircumflex" unicode="&#x134;" horiz-adv-x="551" 
d="M127 233v-18q0 -71 34 -105t88 -34t85 33.5t31 95.5v504h98v-497q0 -48 -14.5 -89.5t-42.5 -72t-67.5 -48t-88.5 -17.5q-51 0 -92 16.5t-69.5 46.5t-44 71.5t-15.5 91.5zM250 759l112 119h120l117 -119h-92l-85 64l-81 -64h-91z" />
    <glyph glyph-name="jcircumflex" unicode="&#x135;" horiz-adv-x="246" 
d="M76 481h94v-537q0 -66 -35 -107.5t-98 -41.5q-27 0 -39 2.5t-17 4.5v78q4 -1 13 -1.5t17 -0.5q37 0 51 18.5t14 51.5v533zM-33 545l104 139h107l104 -139h-88l-70 81l-70 -81h-87z" />
    <glyph glyph-name="Kcommaaccent" unicode="&#x136;" horiz-adv-x="663" 
d="M294 322l-101 -108v-214h-98v709h98v-365l332 365h129l-295 -316l299 -393h-124zM300 -88q0 23 18 37.5t41 14.5q22 0 43.5 -16.5t21.5 -56.5q0 -29 -10 -50t-26.5 -35t-37 -20.5t-40.5 -6.5v40q26 0 44.5 15t20.5 33q-2 -2 -8 -4t-13 -2q-23 0 -38.5 12.5t-15.5 38.5z
" />
    <glyph glyph-name="kcommaaccent" unicode="&#x137;" horiz-adv-x="526" 
d="M302 278l209 -278h-118l-157 212l-67 -67v-145h-93v724h93v-456l208 213h130zM226 -88q0 23 18 37.5t41 14.5q22 0 43.5 -16.5t21.5 -56.5q0 -29 -10 -50t-26.5 -35t-37 -20.5t-40.5 -6.5v40q26 0 44.5 15t20.5 33q-2 -2 -8 -4t-13 -2q-23 0 -38.5 12.5t-15.5 38.5z" />
    <glyph glyph-name="kgreenlandic" unicode="&#x138;" horiz-adv-x="526" 
d="M302 278l209 -278h-118l-157 212l-67 -67v-145h-93v481h93v-213l208 213h130z" />
    <glyph glyph-name="Lacute" unicode="&#x139;" horiz-adv-x="547" 
d="M95 0v709h98v-617h335v-92h-433zM193 759h-94l101 119h130z" />
    <glyph glyph-name="lacute" unicode="&#x13a;" horiz-adv-x="246" 
d="M76 0v724h94v-724h-94zM171 769h-94l101 119h130z" />
    <glyph glyph-name="Lcommaaccent" unicode="&#x13b;" horiz-adv-x="547" 
d="M95 0v709h98v-617h335v-92h-433zM261 -88q0 23 18 37.5t41 14.5q22 0 43.5 -16.5t21.5 -56.5q0 -29 -10 -50t-26.5 -35t-37 -20.5t-40.5 -6.5v40q26 0 44.5 15t20.5 33q-2 -2 -8 -4t-13 -2q-23 0 -38.5 12.5t-15.5 38.5z" />
    <glyph glyph-name="lcommaaccent" unicode="&#x13c;" horiz-adv-x="246" 
d="M76 0v724h94v-724h-94zM61 -88q0 23 18 37.5t41 14.5q22 0 43.5 -16.5t21.5 -56.5q0 -29 -10 -50t-26.5 -35t-37 -20.5t-40.5 -6.5v40q26 0 44.5 15t20.5 33q-2 -2 -8 -4t-13 -2q-23 0 -38.5 12.5t-15.5 38.5z" />
    <glyph glyph-name="Lcaron" unicode="&#x13d;" horiz-adv-x="547" 
d="M95 0v709h98v-617h335v-92h-433zM366 569h-73l30 190h111z" />
    <glyph glyph-name="lcaron" unicode="&#x13e;" horiz-adv-x="246" 
d="M76 0v724h94v-724h-94zM272 545h-69l28 179h105z" />
    <glyph glyph-name="Ldot" unicode="&#x13f;" horiz-adv-x="547" 
d="M95 0v709h98v-617h335v-92h-433zM296 373q0 26 18.5 45t44.5 19t45 -19t19 -45t-19 -44.5t-45 -18.5t-44.5 18.5t-18.5 44.5z" />
    <glyph glyph-name="ldot" unicode="&#x140;" horiz-adv-x="347" 
d="M76 0v724h94v-724h-94zM229 313q0 26 18 44t44 18t44 -18t18 -44t-18 -44t-44 -18t-44 18t-18 44z" />
    <glyph glyph-name="Lslash" unicode="&#x141;" horiz-adv-x="564" 
d="M112 0v289l-96 -42v87l96 42v333h98v-289l157 69v-87l-157 -70v-240h335v-92h-433z" />
    <glyph glyph-name="lslash" unicode="&#x142;" horiz-adv-x="335" 
d="M120 0v272l-89 -39v87l89 39v365h94v-323l95 42v-87l-95 -42v-314h-94z" />
    <glyph glyph-name="Nacute" unicode="&#x143;" horiz-adv-x="773" 
d="M576 0l-383 578v-578h-98v709h131l354 -544v544h98v-709h-102zM405 759h-94l101 119h130z" />
    <glyph glyph-name="nacute" unicode="&#x144;" horiz-adv-x="559" 
d="M170 0h-94v481h92v-69q26 45 66 64t82 19q43 0 75.5 -14.5t54 -40t32 -60.5t10.5 -75v-305h-94v289q0 25 -5.5 47t-19 38.5t-35 26t-52.5 9.5q-28 0 -49 -10.5t-35 -28.5t-21 -42t-7 -51v-278zM296 543h-79l87 146h118z" />
    <glyph glyph-name="Ncommaaccent" unicode="&#x145;" horiz-adv-x="773" 
d="M576 0l-383 578v-578h-98v709h131l354 -544v544h98v-709h-102zM338 -88q0 23 18 37.5t41 14.5q22 0 43.5 -16.5t21.5 -56.5q0 -29 -10 -50t-26.5 -35t-37 -20.5t-40.5 -6.5v40q26 0 44.5 15t20.5 33q-2 -2 -8 -4t-13 -2q-23 0 -38.5 12.5t-15.5 38.5z" />
    <glyph glyph-name="ncommaaccent" unicode="&#x146;" horiz-adv-x="559" 
d="M170 0h-94v481h92v-69q26 45 66 64t82 19q43 0 75.5 -14.5t54 -40t32 -60.5t10.5 -75v-305h-94v289q0 25 -5.5 47t-19 38.5t-35 26t-52.5 9.5q-28 0 -49 -10.5t-35 -28.5t-21 -42t-7 -51v-278zM226 -88q0 23 18 37.5t41 14.5q22 0 43.5 -16.5t21.5 -56.5q0 -29 -10 -50
t-26.5 -35t-37 -20.5t-40.5 -6.5v40q26 0 44.5 15t20.5 33q-2 -2 -8 -4t-13 -2q-23 0 -38.5 12.5t-15.5 38.5z" />
    <glyph glyph-name="Ncaron" unicode="&#x147;" horiz-adv-x="773" 
d="M576 0l-383 578v-578h-98v709h131l354 -544v544h98v-709h-102zM306 878l81 -64l85 64h92l-117 -119h-120l-112 119h91z" />
    <glyph glyph-name="ncaron" unicode="&#x148;" horiz-adv-x="559" 
d="M170 0h-94v481h92v-69q26 45 66 64t82 19q43 0 75.5 -14.5t54 -40t32 -60.5t10.5 -75v-305h-94v289q0 25 -5.5 47t-19 38.5t-35 26t-52.5 9.5q-28 0 -49 -10.5t-35 -28.5t-21 -42t-7 -51v-278zM195 687l70 -81l70 81h88l-102 -142h-111l-102 142h87z" />
    <glyph glyph-name="napostrophe" unicode="&#x149;" horiz-adv-x="559" 
d="M170 0h-94v481h92v-69q26 45 66 64t82 19q43 0 75.5 -14.5t54 -40t32 -60.5t10.5 -75v-305h-94v289q0 25 -5.5 47t-19 38.5t-35 26t-52.5 9.5q-28 0 -49 -10.5t-35 -28.5t-21 -42t-7 -51v-278zM65 659q0 24 18 38t41 14q11 0 22.5 -4t21 -12.5t15.5 -22.5t6 -34
q0 -29 -10 -50t-26.5 -35t-37 -20.5t-40.5 -6.5v40q26 0 44.5 15t20.5 33q-1 -1 -6 -3.5t-15 -2.5q-23 0 -38.5 12.5t-15.5 38.5z" />
    <glyph glyph-name="Eng" unicode="&#x14a;" horiz-adv-x="773" 
d="M518 -112q37 0 49.5 17t12.5 50v39l-387 584v-578h-98v709h131l354 -544v544h98v-756q0 -66 -35.5 -107.5t-98.5 -41.5q-27 0 -40 2.5t-16 4.5v79q5 -1 13.5 -1.5t16.5 -0.5z" />
    <glyph glyph-name="eng" unicode="&#x14b;" horiz-adv-x="559" 
d="M170 0h-94v481h92v-69q26 45 66 64t82 19q43 0 75.5 -14.5t54 -40t32 -60.5t10.5 -75v-361q0 -66 -35 -107.5t-98 -41.5q-27 0 -40 2.5t-16 4.5v78q5 -1 13.5 -1.5t16.5 -0.5q37 0 51 18.5t14 51.5v341q0 25 -5.5 47t-19 38.5t-35 26t-52.5 9.5q-28 0 -49 -10.5
t-35 -28.5t-21 -42t-7 -51v-278z" />
    <glyph glyph-name="Omacron" unicode="&#x14c;" horiz-adv-x="808" 
d="M148 355q0 -69 21.5 -121.5t57 -88t81.5 -53t96 -17.5q49 0 95.5 17.5t82 53t57 88t21.5 121.5t-21.5 121.5t-57 87.5t-82 52.5t-95.5 17.5q-50 0 -96 -17.5t-81.5 -52.5t-57 -87.5t-21.5 -121.5zM48 355q0 89 30.5 157.5t80.5 115.5t114 71.5t131 24.5t131 -24.5
t114 -71.5t80.5 -115.5t30.5 -157.5t-30.5 -158t-80.5 -116t-114 -71.5t-131 -24.5t-131 24.5t-114 71.5t-80.5 116t-30.5 158zM258 779v83h293v-83h-293z" />
    <glyph glyph-name="omacron" unicode="&#x14d;" horiz-adv-x="580" 
d="M290 69q30 0 57 11t48 33t33 54t12 74t-12 73.5t-33 53.5t-48 33t-57 11t-57 -11t-48 -33t-33 -53.5t-12 -73.5t12 -74t33 -54t48 -33t57 -11zM290 496q54 0 99 -19.5t78 -53.5t51 -80.5t18 -101.5t-18 -102t-51 -81t-78 -53.5t-99 -19.5t-99 19.5t-78 53.5t-51 81
t-18 102t18 101.5t51 80.5t78 53.5t99 19.5zM154 577v81h273v-81h-273z" />
    <glyph glyph-name="Obreve" unicode="&#x14e;" horiz-adv-x="808" 
d="M148 355q0 -69 21.5 -121.5t57 -88t81.5 -53t96 -17.5q49 0 95.5 17.5t82 53t57 88t21.5 121.5t-21.5 121.5t-57 87.5t-82 52.5t-95.5 17.5q-50 0 -96 -17.5t-81.5 -52.5t-57 -87.5t-21.5 -121.5zM48 355q0 89 30.5 157.5t80.5 115.5t114 71.5t131 24.5t131 -24.5
t114 -71.5t80.5 -115.5t30.5 -157.5t-30.5 -158t-80.5 -116t-114 -71.5t-131 -24.5t-131 24.5t-114 71.5t-80.5 116t-30.5 158zM412 754q-38 0 -66.5 11t-48 29.5t-30.5 41.5t-12 47h81q1 -9 5 -18.5t13 -18t23.5 -14t34.5 -5.5t34 5.5t23 14t13 18t5 18.5h81
q-2 -24 -12 -47t-29.5 -41.5t-48 -29.5t-66.5 -11z" />
    <glyph glyph-name="obreve" unicode="&#x14f;" horiz-adv-x="580" 
d="M290 69q30 0 57 11t48 33t33 54t12 74t-12 73.5t-33 53.5t-48 33t-57 11t-57 -11t-48 -33t-33 -53.5t-12 -73.5t12 -74t33 -54t48 -33t57 -11zM290 496q54 0 99 -19.5t78 -53.5t51 -80.5t18 -101.5t-18 -102t-51 -81t-78 -53.5t-99 -19.5t-99 19.5t-78 53.5t-51 81
t-18 102t18 101.5t51 80.5t78 53.5t99 19.5zM290 545q-35 0 -62 12t-45.5 32t-28.5 45.5t-10 52.5h73q1 -23 18 -44t55 -21t54.5 21t18.5 44h73q0 -27 -9.5 -52.5t-27.5 -45.5t-45.5 -32t-63.5 -12z" />
    <glyph glyph-name="Ohungarumlaut" unicode="&#x150;" horiz-adv-x="808" 
d="M148 355q0 -69 21.5 -121.5t57 -88t81.5 -53t96 -17.5q49 0 95.5 17.5t82 53t57 88t21.5 121.5t-21.5 121.5t-57 87.5t-82 52.5t-95.5 17.5q-50 0 -96 -17.5t-81.5 -52.5t-57 -87.5t-21.5 -121.5zM48 355q0 89 30.5 157.5t80.5 115.5t114 71.5t131 24.5t131 -24.5
t114 -71.5t80.5 -115.5t30.5 -157.5t-30.5 -158t-80.5 -116t-114 -71.5t-131 -24.5t-131 24.5t-114 71.5t-80.5 116t-30.5 158zM358 759h-70l61 119h105zM499 759h-70l71 119h105z" />
    <glyph glyph-name="ohungarumlaut" unicode="&#x151;" horiz-adv-x="580" 
d="M290 69q30 0 57 11t48 33t33 54t12 74t-12 73.5t-33 53.5t-48 33t-57 11t-57 -11t-48 -33t-33 -53.5t-12 -73.5t12 -74t33 -54t48 -33t57 -11zM290 496q54 0 99 -19.5t78 -53.5t51 -80.5t18 -101.5t-18 -102t-51 -81t-78 -53.5t-99 -19.5t-99 19.5t-78 53.5t-51 81
t-18 102t18 101.5t51 80.5t78 53.5t99 19.5zM252 543h-66l51 146h105zM383 543h-66l61 146h105z" />
    <glyph glyph-name="OE" unicode="&#x152;" horiz-adv-x="1145" 
d="M148 355q0 -69 21.5 -121.5t57 -88t81.5 -53t96 -17.5q49 0 95.5 17.5t82 53t57 88t21.5 121.5t-21.5 121.5t-57 87.5t-82 52.5t-95.5 17.5q-50 0 -96 -17.5t-81.5 -52.5t-57 -87.5t-21.5 -121.5zM660 0v93q-51 -54 -118 -81t-138 -27q-67 0 -131 24.5t-114 71.5
t-80.5 116t-30.5 158t30.5 157.5t80.5 115.5t114 71.5t131 24.5q71 0 138 -27t118 -81v93h431v-91h-333v-218h302v-92h-302v-217h333v-91h-431z" />
    <glyph glyph-name="oe" unicode="&#x153;" horiz-adv-x="943" 
d="M290 69q30 0 57 11t48 33t33 54t12 74t-12 73.5t-33 53.5t-48 33t-57 11t-57 -11t-48 -33t-33 -53.5t-12 -73.5t12 -74t33 -54t48 -33t57 -11zM803 290q-2 52 -35.5 87.5t-96.5 35.5q-30 0 -53.5 -10.5t-40 -28t-26.5 -39.5t-11 -45h263zM898 137q-10 -32 -29.5 -59.5
t-47 -48t-62.5 -32.5t-77 -12q-59 0 -110 24.5t-85 72.5q-32 -45 -83 -71t-114 -26q-54 0 -99 19.5t-78 53.5t-51 81t-18 102t18 101.5t51 80.5t78 53.5t99 19.5q63 0 114 -26.5t83 -71.5q32 46 80.5 72t102.5 26q55 0 98.5 -18.5t72.5 -51.5t44.5 -79.5t15.5 -102.5
q0 -8 -0.5 -16.5t-1.5 -13.5h-362q1 -32 12.5 -58.5t31 -46t45.5 -30.5t56 -11q59 0 90 28t45 69z" />
    <glyph glyph-name="Racute" unicode="&#x154;" horiz-adv-x="629" 
d="M300 290h-106v-290h-99v709h267q50 0 90.5 -16.5t68.5 -45t43 -67t15 -82.5q0 -77 -45.5 -131.5t-126.5 -69.5l169 -297h-114zM344 378q60 0 97 32.5t37 87.5q0 57 -37 90t-97 33h-150v-243h150zM340 759h-94l101 119h130z" />
    <glyph glyph-name="racute" unicode="&#x155;" horiz-adv-x="363" 
d="M343 386q-21 3 -41 3q-59 0 -95.5 -34.5t-36.5 -113.5v-241h-94v481h92v-84q13 28 30.5 45.5t36.5 28t39 14.5t38 4q10 0 18.5 -1t12.5 -2v-100zM217 543h-79l87 146h118z" />
    <glyph glyph-name="Rcommaaccent" unicode="&#x156;" horiz-adv-x="629" 
d="M300 290h-106v-290h-99v709h267q50 0 90.5 -16.5t68.5 -45t43 -67t15 -82.5q0 -77 -45.5 -131.5t-126.5 -69.5l169 -297h-114zM344 378q60 0 97 32.5t37 87.5q0 57 -37 90t-97 33h-150v-243h150zM277 -88q0 23 18 37.5t41 14.5q22 0 43.5 -16.5t21.5 -56.5q0 -29 -10 -50
t-26.5 -35t-37 -20.5t-40.5 -6.5v40q26 0 44.5 15t20.5 33q-2 -2 -8 -4t-13 -2q-23 0 -38.5 12.5t-15.5 38.5z" />
    <glyph glyph-name="rcommaaccent" unicode="&#x157;" horiz-adv-x="363" 
d="M343 386q-21 3 -41 3q-59 0 -95.5 -34.5t-36.5 -113.5v-241h-94v481h92v-84q13 28 30.5 45.5t36.5 28t39 14.5t38 4q10 0 18.5 -1t12.5 -2v-100zM62 -88q0 23 18 37.5t41 14.5q22 0 43.5 -16.5t21.5 -56.5q0 -29 -10 -50t-26.5 -35t-37 -20.5t-40.5 -6.5v40q26 0 44.5 15
t20.5 33q-2 -2 -8 -4t-13 -2q-23 0 -38.5 12.5t-15.5 38.5z" />
    <glyph glyph-name="Rcaron" unicode="&#x158;" horiz-adv-x="629" 
d="M300 290h-106v-290h-99v709h267q50 0 90.5 -16.5t68.5 -45t43 -67t15 -82.5q0 -77 -45.5 -131.5t-126.5 -69.5l169 -297h-114zM344 378q60 0 97 32.5t37 87.5q0 57 -37 90t-97 33h-150v-243h150zM228 878l81 -64l85 64h92l-117 -119h-120l-112 119h91z" />
    <glyph glyph-name="rcaron" unicode="&#x159;" horiz-adv-x="363" 
d="M343 386q-21 3 -41 3q-59 0 -95.5 -34.5t-36.5 -113.5v-241h-94v481h92v-84q13 28 30.5 45.5t36.5 28t39 14.5t38 4q10 0 18.5 -1t12.5 -2v-100zM136 687l70 -81l70 81h88l-102 -142h-111l-102 142h87z" />
    <glyph glyph-name="Sacute" unicode="&#x15a;" horiz-adv-x="594" 
d="M452 517q-3 19 -13 40.5t-28 39.5t-45 29.5t-64 11.5q-30 0 -55 -9t-43.5 -25t-28.5 -37.5t-10 -46.5q0 -38 23 -65.5t68 -37.5l106 -23q89 -20 136.5 -72t47.5 -127q0 -41 -17 -79t-49 -67t-77 -46.5t-102 -17.5q-64 0 -111.5 19t-80 49t-50.5 67.5t-23 75.5l94 30
q3 -30 14.5 -57.5t33 -48.5t52 -33.5t70.5 -12.5q73 0 109.5 33t36.5 80q0 38 -26 68.5t-80 41.5l-101 22q-76 17 -124.5 65.5t-48.5 128.5q0 42 18 80t49.5 67t74.5 46.5t92 17.5q60 0 102.5 -16.5t71 -42.5t44.5 -57t22 -60zM339 759h-94l101 119h130z" />
    <glyph glyph-name="sacute" unicode="&#x15b;" horiz-adv-x="455" 
d="M123 155q5 -38 33 -64t79 -26q40 0 61 19t21 45q0 23 -16 39t-46 23l-82 18q-57 12 -88.5 48t-31.5 87q0 31 13.5 58.5t36.5 48.5t54.5 33t66.5 12q49 0 82.5 -14t54.5 -34.5t31.5 -42.5t14.5 -38l-83 -31q-2 9 -7 23t-16 26.5t-30 21.5t-47 9q-36 0 -58 -19.5t-22 -44.5
q0 -46 55 -58l78 -17q66 -14 99.5 -51.5t33.5 -91.5q0 -26 -11 -52t-32.5 -48t-54.5 -35.5t-78 -13.5q-50 0 -85.5 14t-59 35t-36 45.5t-15.5 45.5zM260 543h-79l87 146h118z" />
    <glyph glyph-name="Scircumflex" unicode="&#x15c;" horiz-adv-x="594" 
d="M452 517q-3 19 -13 40.5t-28 39.5t-45 29.5t-64 11.5q-30 0 -55 -9t-43.5 -25t-28.5 -37.5t-10 -46.5q0 -38 23 -65.5t68 -37.5l106 -23q89 -20 136.5 -72t47.5 -127q0 -41 -17 -79t-49 -67t-77 -46.5t-102 -17.5q-64 0 -111.5 19t-80 49t-50.5 67.5t-23 75.5l94 30
q3 -30 14.5 -57.5t33 -48.5t52 -33.5t70.5 -12.5q73 0 109.5 33t36.5 80q0 38 -26 68.5t-80 41.5l-101 22q-76 17 -124.5 65.5t-48.5 128.5q0 42 18 80t49.5 67t74.5 46.5t92 17.5q60 0 102.5 -16.5t71 -42.5t44.5 -57t22 -60zM142 759l112 119h120l117 -119h-92l-85 64
l-81 -64h-91z" />
    <glyph glyph-name="scircumflex" unicode="&#x15d;" horiz-adv-x="455" 
d="M123 155q5 -38 33 -64t79 -26q40 0 61 19t21 45q0 23 -16 39t-46 23l-82 18q-57 12 -88.5 48t-31.5 87q0 31 13.5 58.5t36.5 48.5t54.5 33t66.5 12q49 0 82.5 -14t54.5 -34.5t31.5 -42.5t14.5 -38l-83 -31q-2 9 -7 23t-16 26.5t-30 21.5t-47 9q-36 0 -58 -19.5t-22 -44.5
q0 -46 55 -58l78 -17q66 -14 99.5 -51.5t33.5 -91.5q0 -26 -11 -52t-32.5 -48t-54.5 -35.5t-78 -13.5q-50 0 -85.5 14t-59 35t-36 45.5t-15.5 45.5zM79 545l104 139h107l104 -139h-88l-70 81l-70 -81h-87z" />
    <glyph glyph-name="Scedilla" unicode="&#x15e;" horiz-adv-x="594" 
d="M452 517q-3 19 -13 40.5t-28 39.5t-45 29.5t-64 11.5q-30 0 -55 -9.5t-43.5 -25.5t-28.5 -37.5t-10 -45.5q0 -38 23 -65.5t68 -37.5l106 -23q89 -20 136.5 -72t47.5 -127q0 -38 -14 -73t-40 -62.5t-63.5 -46.5t-84.5 -25l-22 -34q42 0 69.5 -22t27.5 -60q0 -35 -28 -61.5
t-89 -26.5q-38 0 -66.5 13t-43.5 31l37 45q9 -10 27.5 -22t44.5 -12q18 0 32.5 8t14.5 25q0 14 -11.5 23t-32.5 9q-16 0 -29 -5l-33 39l31 48q-57 4 -99 24t-71.5 49.5t-46 65.5t-20.5 73l94 30q3 -30 15 -57.5t33.5 -49t52 -34.5t69.5 -13q73 0 109.5 33t36.5 80
q0 38 -27 68.5t-79 41.5l-101 22q-76 17 -124.5 65.5t-48.5 128.5q0 42 18 80t49.5 67t74.5 46.5t92 17.5q60 0 102.5 -16.5t71 -42.5t44.5 -57t22 -60z" />
    <glyph glyph-name="scedilla" unicode="&#x15f;" horiz-adv-x="455" 
d="M123 157q5 -38 33 -65t79 -27q40 0 61 19t21 45q0 23 -16 39t-46 23l-82 18q-55 12 -87.5 48.5t-32.5 86.5q0 31 13.5 58.5t36.5 48.5t54.5 33t66.5 12q49 0 82.5 -14t54.5 -34.5t31.5 -42.5t14.5 -38l-83 -31q-2 9 -7 23t-16 26.5t-30 21.5t-47 9q-36 0 -58 -19.5
t-22 -44.5q0 -45 55 -58l78 -17q66 -14 99.5 -51.5t33.5 -91.5q0 -23 -9 -47t-27 -44.5t-45 -35.5t-64 -20l-21 -33q42 0 69.5 -22t27.5 -60q0 -35 -28 -61.5t-89 -26.5q-38 0 -66.5 13t-43.5 31l37 45q9 -10 27.5 -22t44.5 -12q18 0 32.5 8t14.5 25q0 14 -11.5 23t-32.5 9
q-16 0 -29 -5l-33 39l32 50q-39 5 -67.5 20t-47.5 35.5t-29.5 42.5t-13.5 41z" />
    <glyph glyph-name="Scaron" unicode="&#x160;" horiz-adv-x="594" 
d="M452 517q-3 19 -13 40.5t-28 39.5t-45 29.5t-64 11.5q-30 0 -55 -9t-43.5 -25t-28.5 -37.5t-10 -46.5q0 -38 23 -65.5t68 -37.5l106 -23q89 -20 136.5 -72t47.5 -127q0 -41 -17 -79t-49 -67t-77 -46.5t-102 -17.5q-64 0 -111.5 19t-80 49t-50.5 67.5t-23 75.5l94 30
q3 -30 14.5 -57.5t33 -48.5t52 -33.5t70.5 -12.5q73 0 109.5 33t36.5 80q0 38 -26 68.5t-80 41.5l-101 22q-76 17 -124.5 65.5t-48.5 128.5q0 42 18 80t49.5 67t74.5 46.5t92 17.5q60 0 102.5 -16.5t71 -42.5t44.5 -57t22 -60zM222 878l81 -64l85 64h92l-117 -119h-120
l-112 119h91z" />
    <glyph glyph-name="scaron" unicode="&#x161;" horiz-adv-x="455" 
d="M123 155q5 -38 33 -64t79 -26q40 0 61 19t21 45q0 23 -16 39t-46 23l-82 18q-57 12 -88.5 48t-31.5 87q0 31 13.5 58.5t36.5 48.5t54.5 33t66.5 12q49 0 82.5 -14t54.5 -34.5t31.5 -42.5t14.5 -38l-83 -31q-2 9 -7 23t-16 26.5t-30 21.5t-47 9q-36 0 -58 -19.5t-22 -44.5
q0 -46 55 -58l78 -17q66 -14 99.5 -51.5t33.5 -91.5q0 -26 -11 -52t-32.5 -48t-54.5 -35.5t-78 -13.5q-50 0 -85.5 14t-59 35t-36 45.5t-15.5 45.5zM159 687l70 -81l70 81h88l-102 -142h-111l-102 142h87z" />
    <glyph glyph-name="Tcommaaccent" unicode="&#x162;" horiz-adv-x="608" 
d="M230 -62l39 62h-14v618h-237v91h572v-91h-237v-618h-13l-30 -46q42 0 69.5 -22t27.5 -60q0 -18 -7 -34t-21 -28.5t-36.5 -20t-52.5 -7.5q-38 0 -66.5 14t-43.5 32l37 45q9 -10 27.5 -22t44.5 -12q18 0 32.5 8t14.5 25q0 14 -11.5 23t-32.5 9q-16 0 -29 -5z" />
    <glyph glyph-name="tcommaaccent" unicode="&#x163;" horiz-adv-x="347" 
d="M143 -62l43 68q-35 14 -54 46t-19 80v264h-92v85h26q39 0 56.5 21t17.5 53v78h86v-152h104v-85h-104v-250q0 -33 15 -49.5t52 -16.5q9 0 20 1t17 3v-80q-6 -2 -22.5 -5t-39.5 -4l-26 -41q42 0 69.5 -22t27.5 -60q0 -18 -7 -34t-21 -28.5t-36.5 -20t-52.5 -7.5
q-38 0 -66.5 14t-43.5 32l37 45q9 -10 27.5 -22t44.5 -12q18 0 32.5 8t14.5 25q0 14 -11.5 23t-32.5 9q-16 0 -29 -5z" />
    <glyph glyph-name="Tcaron" unicode="&#x164;" horiz-adv-x="608" 
d="M353 618v-618h-98v618h-237v91h572v-91h-237zM221 878l81 -64l85 64h92l-117 -119h-120l-112 119h91z" />
    <glyph glyph-name="tcaron" unicode="&#x165;" horiz-adv-x="347" 
d="M207 481h104v-85h-104v-250q0 -33 15 -49.5t52 -16.5q9 0 20 1t17 3v-80q-6 -2 -23 -5.5t-41 -3.5q-62 0 -98 35.5t-36 101.5v264h-92v85h26q39 0 56.5 21t17.5 53v78h86v-152zM340 565h-69l28 179h105z" />
    <glyph glyph-name="Tbar" unicode="&#x166;" horiz-adv-x="608" 
d="M353 618v-246h110v-81h-110v-291h-98v291h-108v81h108v246h-237v91h572v-91h-237z" />
    <glyph glyph-name="tbar" unicode="&#x167;" horiz-adv-x="347" 
d="M274 80q9 0 20 1t17 3v-80q-6 -2 -23 -5.5t-41 -3.5q-62 0 -98 35.5t-36 101.5v75h-92v76h92v113h-92v85h26q39 0 56.5 21t17.5 53v78h86v-152h104v-85h-104v-113h104v-76h-104v-61q0 -33 15 -49.5t52 -16.5z" />
    <glyph glyph-name="Utilde" unicode="&#x168;" horiz-adv-x="686" 
d="M343 -15q-54 0 -100.5 16.5t-81 49t-54 80.5t-19.5 111v467h97v-464q0 -81 41.5 -125t116.5 -44t116 44t41 125v464h98v-467q0 -63 -19.5 -111t-54 -80.5t-81 -49t-100.5 -16.5zM503 865q0 -56 -27 -83.5t-69 -27.5q-22 0 -39 6t-32 17l-15 10q-10 6 -18.5 10t-18.5 4
q-16 0 -25.5 -10.5t-9.5 -33.5h-68v16q0 56 27.5 83.5t69.5 27.5q21 0 39.5 -7t33.5 -16l15 -9q11 -6 19.5 -10t18.5 -4q13 0 22.5 7.5t9.5 27.5v8h67v-16z" />
    <glyph glyph-name="utilde" unicode="&#x169;" horiz-adv-x="559" 
d="M393 58q-20 -38 -60 -55.5t-82 -17.5t-75.5 15t-56.5 41t-35.5 61t-12.5 76v303h94v-289q0 -25 6 -47.5t19 -39.5t33.5 -27t50.5 -10q57 0 85.5 34t28.5 89v290h94v-392q0 -29 1.5 -52.5t3.5 -36.5h-90q-2 8 -3 25.5t-1 32.5zM433 662q0 -56 -27.5 -82.5t-69.5 -26.5
q-20 0 -36 6.5t-30 15.5l-14 9q-10 6 -18.5 10t-18.5 4q-14 0 -21.5 -9t-7.5 -34h-72v15q0 56 28 82.5t70 26.5q20 0 36.5 -6.5t30.5 -15.5l14 -9q10 -6 18 -10t18 -4q15 0 22 9.5t7 33.5h71v-15z" />
    <glyph glyph-name="Umacron" unicode="&#x16a;" horiz-adv-x="686" 
d="M343 -15q-54 0 -100.5 16.5t-81 49t-54 80.5t-19.5 111v467h97v-464q0 -81 41.5 -125t116.5 -44t116 44t41 125v464h98v-467q0 -63 -19.5 -111t-54 -80.5t-81 -49t-100.5 -16.5zM197 779v83h293v-83h-293z" />
    <glyph glyph-name="umacron" unicode="&#x16b;" horiz-adv-x="559" 
d="M393 58q-20 -38 -60 -55.5t-82 -17.5t-75.5 15t-56.5 41t-35.5 61t-12.5 76v303h94v-289q0 -25 6 -47.5t19 -39.5t33.5 -27t50.5 -10q57 0 85.5 34t28.5 89v290h94v-392q0 -29 1.5 -52.5t3.5 -36.5h-90q-2 8 -3 25.5t-1 32.5zM140 577v81h273v-81h-273z" />
    <glyph glyph-name="Ubreve" unicode="&#x16c;" horiz-adv-x="686" 
d="M343 -15q-54 0 -100.5 16.5t-81 49t-54 80.5t-19.5 111v467h97v-464q0 -81 41.5 -125t116.5 -44t116 44t41 125v464h98v-467q0 -63 -19.5 -111t-54 -80.5t-81 -49t-100.5 -16.5zM344 754q-38 0 -66.5 11t-48 29.5t-30.5 41.5t-12 47h81q1 -9 5 -18.5t13 -18t23.5 -14
t34.5 -5.5t34 5.5t23 14t13 18t5 18.5h81q-2 -24 -12 -47t-29.5 -41.5t-48 -29.5t-66.5 -11z" />
    <glyph glyph-name="ubreve" unicode="&#x16d;" horiz-adv-x="559" 
d="M393 58q-20 -38 -60 -55.5t-82 -17.5t-75.5 15t-56.5 41t-35.5 61t-12.5 76v303h94v-289q0 -25 6 -47.5t19 -39.5t33.5 -27t50.5 -10q57 0 85.5 34t28.5 89v290h94v-392q0 -29 1.5 -52.5t3.5 -36.5h-90q-2 8 -3 25.5t-1 32.5zM278 545q-35 0 -62 12t-45.5 32t-28.5 45.5
t-10 52.5h73q1 -23 18 -44t55 -21t54.5 21t18.5 44h73q0 -27 -9.5 -52.5t-27.5 -45.5t-45.5 -32t-63.5 -12z" />
    <glyph glyph-name="Uring" unicode="&#x16e;" horiz-adv-x="686" 
d="M343 -15q-54 0 -100.5 16.5t-81 49t-54 80.5t-19.5 111v467h97v-464q0 -81 41.5 -125t116.5 -44t116 44t41 125v464h98v-467q0 -63 -19.5 -111t-54 -80.5t-81 -49t-100.5 -16.5zM455 848q0 -23 -9 -43t-24 -34.5t-35.5 -23t-43.5 -8.5q-22 0 -42 8.5t-35.5 23t-24.5 34.5
t-9 43t9 43t24.5 35t35.5 23.5t42 8.5q23 0 43.5 -8.5t35.5 -23.5t24 -35t9 -43zM390 848q0 20 -14 33.5t-34 13.5t-33 -13.5t-13 -33.5t13 -33t33 -13t34 13t14 33z" />
    <glyph glyph-name="uring" unicode="&#x16f;" horiz-adv-x="559" 
d="M393 58q-20 -38 -60 -55.5t-82 -17.5t-75.5 15t-56.5 41t-35.5 61t-12.5 76v303h94v-289q0 -25 6 -47.5t19 -39.5t33.5 -27t50.5 -10q57 0 85.5 34t28.5 89v290h94v-392q0 -29 1.5 -52.5t3.5 -36.5h-90q-2 8 -3 25.5t-1 32.5zM388 641q0 -23 -9 -43t-24 -34.5t-35.5 -23
t-43.5 -8.5q-22 0 -42 8.5t-35.5 23t-24.5 34.5t-9 43t9 43t24.5 35t35.5 23.5t42 8.5q23 0 43.5 -8.5t35.5 -23.5t24 -35t9 -43zM324 641q0 20 -14 34.5t-35 14.5q-20 0 -33.5 -14.5t-13.5 -34.5t13.5 -34t33.5 -14q21 0 35 14t14 34z" />
    <glyph glyph-name="Uhungarumlaut" unicode="&#x170;" horiz-adv-x="686" 
d="M343 -15q-54 0 -100.5 16.5t-81 49t-54 80.5t-19.5 111v467h97v-464q0 -81 41.5 -125t116.5 -44t116 44t41 125v464h98v-467q0 -63 -19.5 -111t-54 -80.5t-81 -49t-100.5 -16.5zM293 759h-70l61 119h105zM434 759h-70l71 119h105z" />
    <glyph glyph-name="uhungarumlaut" unicode="&#x171;" horiz-adv-x="559" 
d="M393 58q-20 -38 -60 -55.5t-82 -17.5t-75.5 15t-56.5 41t-35.5 61t-12.5 76v303h94v-289q0 -25 6 -47.5t19 -39.5t33.5 -27t50.5 -10q57 0 85.5 34t28.5 89v290h94v-392q0 -29 1.5 -52.5t3.5 -36.5h-90q-2 8 -3 25.5t-1 32.5zM228 543h-66l51 146h105zM359 543h-66
l61 146h105z" />
    <glyph glyph-name="Uogonek" unicode="&#x172;" horiz-adv-x="686" 
d="M274 -115q0 35 15 59.5t36 41.5q-50 2 -93.5 20t-75.5 50.5t-50 79t-18 106.5v467h97v-464q0 -81 41.5 -125t116.5 -44t116 44t41 125v464h98v-467q0 -97 -44 -157.5t-115 -84.5q-14 -7 -29 -16t-27.5 -21t-20.5 -27t-8 -33q0 -26 16.5 -36.5t36.5 -10.5q12 0 19 1t13 3
v-68q-10 -4 -20.5 -6t-29.5 -2q-23 0 -44 7t-37 19.5t-25 31.5t-9 43z" />
    <glyph glyph-name="uogonek" unicode="&#x173;" horiz-adv-x="559" 
d="M322 -115q0 44 23 72t52 45q-2 9 -3 25.5t-1 30.5q-20 -38 -60 -55.5t-82 -17.5t-75.5 15t-56.5 41t-35.5 61t-12.5 76v303h94v-289q0 -25 6 -47.5t19 -39.5t33.5 -27t50.5 -10q57 0 85.5 34t28.5 89v290h94v-392q0 -31 1.5 -53.5t3.5 -35.5q-14 -7 -29 -16t-27.5 -21
t-20.5 -27t-8 -33q0 -26 16.5 -36.5t36.5 -10.5q12 0 19 1t13 3v-68q-10 -4 -20.5 -6t-29.5 -2q-23 0 -44 7t-37 19.5t-25 31.5t-9 43z" />
    <glyph glyph-name="Wcircumflex" unicode="&#x174;" horiz-adv-x="1020" 
d="M895 709h101l-202 -709h-101l-185 575l-183 -575h-98l-205 709h101l156 -555l178 555h103l182 -561zM335 759l112 119h120l117 -119h-92l-85 64l-81 -64h-91z" />
    <glyph glyph-name="wcircumflex" unicode="&#x175;" horiz-adv-x="816" 
d="M459 481l125 -362l106 362h99l-156 -481h-97l-128 366l-125 -366h-99l-158 481h103l108 -362l125 362h97zM251 545l104 139h107l104 -139h-88l-70 81l-70 -81h-87z" />
    <glyph glyph-name="Ycircumflex" unicode="&#x176;" horiz-adv-x="642" 
d="M22 709h118l184 -316l184 316h112l-250 -406v-303h-98v303zM147 759l112 119h120l117 -119h-92l-85 64l-81 -64h-91z" />
    <glyph glyph-name="ycircumflex" unicode="&#x177;" horiz-adv-x="538" 
d="M107 -201l120 254l-207 428h108l150 -332l144 332h101l-313 -682h-103zM113 545l104 139h107l104 -139h-88l-70 81l-70 -81h-87z" />
    <glyph glyph-name="Ydieresis" unicode="&#x178;" horiz-adv-x="642" 
d="M22 709h118l184 -316l184 316h112l-250 -406v-303h-98v303zM147 819q0 25 17 42t42 17t42 -17t17 -42t-17 -42t-42 -17t-42 17t-17 42zM378 819q0 25 17 42t42 17t42 -17t17 -42t-17 -42t-42 -17t-42 17t-17 42z" />
    <glyph glyph-name="Zacute" unicode="&#x179;" horiz-adv-x="633" 
d="M42 0v98l423 520h-413v91h532v-95l-425 -522h430v-92h-547zM336 759h-94l101 119h130z" />
    <glyph glyph-name="zacute" unicode="&#x17a;" horiz-adv-x="477" 
d="M46 0v82l264 314h-260v85h377v-82l-264 -314h269v-85h-386zM255 543h-79l87 146h118z" />
    <glyph glyph-name="Zdotaccent" unicode="&#x17b;" horiz-adv-x="633" 
d="M42 0v98l423 520h-413v91h532v-95l-425 -522h430v-92h-547zM253 818q0 26 18.5 45t44.5 19t45 -19t19 -45t-19 -44.5t-45 -18.5t-44.5 18.5t-18.5 44.5z" />
    <glyph glyph-name="zdotaccent" unicode="&#x17c;" horiz-adv-x="477" 
d="M46 0v82l264 314h-260v85h377v-82l-264 -314h269v-85h-386zM177 616q0 26 18 44t44 18t44 -18t18 -44t-18 -44t-44 -18t-44 18t-18 44z" />
    <glyph glyph-name="Zcaron" unicode="&#x17d;" horiz-adv-x="633" 
d="M42 0v98l423 520h-413v91h532v-95l-425 -522h430v-92h-547zM237 878l81 -64l85 64h92l-117 -119h-120l-112 119h91z" />
    <glyph glyph-name="zcaron" unicode="&#x17e;" horiz-adv-x="477" 
d="M46 0v82l264 314h-260v85h377v-82l-264 -314h269v-85h-386zM171 687l70 -81l70 81h88l-102 -142h-111l-102 142h87z" />
    <glyph glyph-name="uni018F" unicode="&#x18f;" horiz-adv-x="793" 
d="M383 724q74 0 139.5 -24t115 -70.5t78 -115.5t28.5 -160t-30 -160t-79.5 -115.5t-112.5 -70t-130 -23.5q-66 0 -129.5 22.5t-113 68.5t-79.5 114.5t-30 160.5v10t1 14h602q-3 65 -25.5 113.5t-58 81t-81.5 48.5t-95 16q-44 0 -84 -13.5t-72.5 -36.5t-55.5 -54t-33 -66
l-88 32q14 47 45.5 88.5t75.5 72.5t98 49t114 18zM612 206q8 17 14.5 36.5t11.5 42.5h-496q4 -37 18 -67q15 -36 39.5 -63t55 -44.5t65.5 -26.5t72 -9q69 0 128 32.5t92 98.5z" />
    <glyph glyph-name="florin" unicode="&#x192;" horiz-adv-x="477" 
d="M183 398h-110v83h127l23 113q7 38 23.5 65.5t39 45t49 26t53.5 8.5q29 0 44.5 -2.5t29.5 -7.5v-83q-11 3 -24 5t-29 2q-13 0 -27.5 -2.5t-27.5 -12t-24 -28t-17 -49.5l-16 -80h129v-83h-146l-82 -411q-8 -38 -24 -65.5t-38.5 -45t-49 -26t-53.5 -8.5q-31 0 -47 2.5
t-30 7.5v83q11 -3 24.5 -5t31.5 -2q13 0 27.5 3t27.5 12.5t24 27.5t17 49z" />
    <glyph glyph-name="uni01B5" unicode="&#x1b5;" horiz-adv-x="633" 
d="M42 0v98l187 230h-145v85h214l167 205h-413v91h532v-95l-164 -201h120v-85h-189l-192 -236h430v-92h-547z" />
    <glyph glyph-name="uni01B6" unicode="&#x1b6;" horiz-adv-x="477" 
d="M46 0v82l108 129h-99v76h163l92 109h-260v85h377v-82l-94 -112h87v-76h-151l-106 -126h269v-85h-386z" />
    <glyph glyph-name="Aringacute" unicode="&#x1fa;" horiz-adv-x="711" 
d="M232 289h244l-123 318zM400 755q0 20 -14 33.5t-34 13.5t-33 -13.5t-13 -33.5t13 -33t33 -13t34 13t14 33zM401 902h-94l101 119h130zM465 755q0 -25 -10.5 -46.5t-28.5 -36.5l268 -672h-106l-77 198h-314l-75 -198h-105l267 671q-19 15 -30.5 36.5t-11.5 47.5q0 23 9 43
t24.5 35t35.5 23.5t42 8.5q23 0 43.5 -8.5t35.5 -23.5t24 -35t9 -43z" />
    <glyph glyph-name="aringacute" unicode="&#x1fb;" horiz-adv-x="523" 
d="M44 129q0 32 11 57.5t30.5 43.5t46.5 29t58 16l130 19q22 3 29.5 13t7.5 23q0 35 -24.5 60.5t-79.5 25.5q-50 0 -77 -27.5t-32 -69.5l-90 21q4 34 20.5 63t42.5 49.5t60.5 32t73.5 11.5q54 0 92 -14.5t62 -38.5t35 -56t11 -67v-241q0 -32 2 -51t4 -28h-92q-2 9 -3.5 24
t-1.5 41q-8 -13 -21 -27t-32 -26t-44.5 -19.5t-57.5 -7.5q-37 0 -66.5 12t-50.5 31.5t-32.5 45.5t-11.5 55zM218 64q29 0 54.5 7.5t44 24t29.5 44t11 66.5v22l-147 -22q-30 -5 -50 -22.5t-20 -49.5q0 -27 21 -48.5t57 -21.5zM367 636q0 -23 -9 -43t-24 -34.5t-35.5 -23
t-43.5 -8.5q-22 0 -42 8.5t-35.5 23t-24.5 34.5t-9 43t9 43t24.5 35t35.5 23.5t42 8.5q23 0 43.5 -8.5t35.5 -23.5t24 -35t9 -43zM303 636q0 20 -14 34.5t-35 14.5q-20 0 -33.5 -14.5t-13.5 -34.5t13.5 -34t33.5 -14q21 0 35 14t14 34zM291 779h-79l87 146h118z" />
    <glyph glyph-name="AEacute" unicode="&#x1fc;" horiz-adv-x="1013" 
d="M528 0v196h-278l-126 -196h-126l472 709h489v-91h-333v-218h302v-92h-302v-217h333v-91h-431zM528 284v344l-222 -344h222zM592 759h-94l101 119h130z" />
    <glyph glyph-name="aeacute" unicode="&#x1fd;" horiz-adv-x="869" 
d="M222 64q25 0 50.5 7.5t46.5 24t34 43.5t13 66v23l-157 -22q-32 -5 -51 -23t-19 -51q0 -26 21.5 -47t61.5 -21zM729 290q-2 52 -35.5 87.5t-96.5 35.5q-30 0 -53.5 -10.5t-40 -28t-26.5 -39.5t-11 -45h263zM608 -15q-61 0 -113.5 26.5t-86.5 77.5q-11 -19 -27 -37.5
t-39 -33.5t-54.5 -24t-72.5 -9t-73 12t-54 31.5t-33.5 45.5t-11.5 55q0 32 11 57.5t30.5 43.5t46.5 29t58 16l139 19q24 4 31 14.5t7 21.5q0 35 -27.5 61t-82.5 26q-51 0 -80.5 -28t-34.5 -66l-88 17q3 36 22.5 65t48 49.5t63 31t69.5 10.5q62 0 105 -22t66 -58q32 38 76 59
t93 21q55 0 98.5 -18.5t72.5 -51.5t44.5 -79.5t15.5 -102.5q0 -7 -0.5 -16.5t-1.5 -13.5h-362q1 -32 12.5 -58.5t31 -46t45.5 -30.5t56 -11q55 0 85.5 25.5t44.5 63.5l84 -29q-10 -30 -28 -56t-45 -45.5t-62 -30.5t-79 -11zM465 543h-79l87 146h118z" />
    <glyph glyph-name="Oslashacute" unicode="&#x1fe;" horiz-adv-x="808" 
d="M48 355q0 89 30.5 157.5t80.5 115.5t114 71.5t131 24.5q51 0 99.5 -14t91.5 -41l72 92l68 -52l-73 -94q45 -47 71.5 -112t26.5 -148q0 -89 -30.5 -158t-80.5 -116t-114 -71.5t-131 -24.5q-50 0 -98 13.5t-91 39.5l-68 -89l-70 51l71 92q-45 47 -72.5 112.5t-27.5 150.5z
M148 355q0 -60 15.5 -106.5t43.5 -81.5l332 429q-61 38 -135 38q-50 0 -96 -17.5t-81.5 -52.5t-57 -87.5t-21.5 -121.5zM660 355q0 58 -15.5 103.5t-41.5 80.5l-332 -429q30 -18 64 -26.5t69 -8.5q49 0 95.5 17.5t82 53t57 88t21.5 121.5zM448 759h-94l101 119h130z" />
    <glyph glyph-name="oslashacute" unicode="&#x1ff;" horiz-adv-x="582" 
d="M291 496q35 0 66.5 -8.5t58.5 -23.5l50 65l60 -48l-51 -66q29 -34 45.5 -78t16.5 -96q0 -55 -18 -102t-51 -81t-78 -53.5t-99 -19.5q-35 0 -66.5 8.5t-57.5 22.5l-49 -63l-60 48l49 64q-29 34 -45.5 78.5t-16.5 97.5q0 55 18 101.5t51 80.5t78 53.5t99 19.5zM141 241
q0 -33 7 -57t18 -44l196 254q-33 18 -71 18q-30 0 -57 -11t-48 -33t-33 -53.5t-12 -73.5zM291 69q30 0 57 11t48 33t33 54t12 74q0 29 -6.5 54t-17.5 45l-196 -254q30 -17 70 -17zM331 543h-79l87 146h118z" />
    <glyph glyph-name="Scommaaccent" unicode="&#x218;" horiz-adv-x="594" 
d="M452 517q-3 19 -13 40.5t-28 39.5t-45 29.5t-64 11.5q-30 0 -55 -9t-43.5 -25t-28.5 -37.5t-10 -46.5q0 -38 23 -65.5t68 -37.5l106 -23q89 -20 136.5 -72t47.5 -127q0 -41 -17 -79t-49 -67t-77 -46.5t-102 -17.5q-64 0 -111.5 19t-80 49t-50.5 67.5t-23 75.5l94 30
q3 -30 14.5 -57.5t33 -48.5t52 -33.5t70.5 -12.5q73 0 109.5 33t36.5 80q0 38 -26 68.5t-80 41.5l-101 22q-76 17 -124.5 65.5t-48.5 128.5q0 42 18 80t49.5 67t74.5 46.5t92 17.5q60 0 102.5 -16.5t71 -42.5t44.5 -57t22 -60zM246 -88q0 23 18 37.5t41 14.5
q22 0 43.5 -16.5t21.5 -56.5q0 -29 -10 -50t-26.5 -35t-37 -20.5t-40.5 -6.5v40q26 0 44.5 15t20.5 33q-2 -2 -8 -4t-13 -2q-23 0 -38.5 12.5t-15.5 38.5z" />
    <glyph glyph-name="scommaaccent" unicode="&#x219;" horiz-adv-x="455" 
d="M123 155q5 -38 33 -64t79 -26q40 0 61 19t21 45q0 23 -16 39t-46 23l-82 18q-57 12 -88.5 48t-31.5 87q0 31 13.5 58.5t36.5 48.5t54.5 33t66.5 12q49 0 82.5 -14t54.5 -34.5t31.5 -42.5t14.5 -38l-83 -31q-2 9 -7 23t-16 26.5t-30 21.5t-47 9q-36 0 -58 -19.5t-22 -44.5
q0 -46 55 -58l78 -17q66 -14 99.5 -51.5t33.5 -91.5q0 -26 -11 -52t-32.5 -48t-54.5 -35.5t-78 -13.5q-50 0 -85.5 14t-59 35t-36 45.5t-15.5 45.5zM172 -88q0 23 18 37.5t41 14.5q22 0 43.5 -16.5t21.5 -56.5q0 -29 -10 -50t-26.5 -35t-37 -20.5t-40.5 -6.5v40
q26 0 44.5 15t20.5 33q-2 -2 -8 -4t-13 -2q-23 0 -38.5 12.5t-15.5 38.5z" />
    <glyph glyph-name="uni021A" unicode="&#x21a;" horiz-adv-x="608" 
d="M353 618v-618h-98v618h-237v91h572v-91h-237zM241 -88q0 23 18 37.5t41 14.5q22 0 43.5 -16.5t21.5 -56.5q0 -29 -10 -50t-26.5 -35t-37 -20.5t-40.5 -6.5v40q26 0 44.5 15t20.5 33q-2 -2 -8 -4t-13 -2q-23 0 -38.5 12.5t-15.5 38.5z" />
    <glyph glyph-name="uni021B" unicode="&#x21b;" horiz-adv-x="347" 
d="M207 481h104v-85h-104v-250q0 -33 15 -49.5t52 -16.5q9 0 20 1t17 3v-80q-6 -2 -23 -5.5t-41 -3.5q-62 0 -98 35.5t-36 101.5v264h-92v85h26q39 0 56.5 21t17.5 53v78h86v-152zM147 -88q0 23 18 37.5t41 14.5q22 0 43.5 -16.5t21.5 -56.5q0 -29 -10 -50t-26.5 -35
t-37 -20.5t-40.5 -6.5v40q26 0 44.5 15t20.5 33q-2 -2 -8 -4t-13 -2q-23 0 -38.5 12.5t-15.5 38.5z" />
    <glyph glyph-name="dotlessj" unicode="&#x237;" horiz-adv-x="246" 
d="M76 481h94v-537q0 -66 -35 -107.5t-98 -41.5q-27 0 -39 2.5t-17 4.5v78q4 -1 13 -1.5t17 -0.5q37 0 51 18.5t14 51.5v533z" />
    <glyph glyph-name="uni0259" unicode="&#x259;" horiz-adv-x="552" 
d="M140 188q2 -52 37.5 -86t97.5 -34q30 0 53.5 10t40 26.5t26 38.5t11.5 45h-266zM45 345q10 31 30.5 58.5t49 48t64.5 32.5t78 12q56 0 100.5 -18.5t75 -52.5t47 -81.5t16.5 -104.5t-18 -103.5t-49.5 -80t-73.5 -52t-89 -18.5q-54 0 -98 18t-74.5 50.5t-47 78.5t-16.5 102
v11t2 19h367q-1 32 -11 59t-28.5 47t-44.5 31.5t-58 11.5q-57 0 -93 -29t-50 -67z" />
    <glyph glyph-name="circumflex" unicode="&#x2c6;" horiz-adv-x="385" 
d="M35 545l104 139h107l104 -139h-88l-70 81l-70 -81h-87z" />
    <glyph glyph-name="caron" unicode="&#x2c7;" horiz-adv-x="385" 
d="M122 687l70 -81l70 81h88l-102 -142h-111l-102 142h87z" />
    <glyph glyph-name="uni02C9" unicode="&#x2c9;" horiz-adv-x="343" 
d="M35 577v81h273v-81h-273z" />
    <glyph glyph-name="breve" unicode="&#x2d8;" horiz-adv-x="362" 
d="M181 545q-35 0 -62 12t-45.5 32t-28.5 45.5t-10 52.5h73q1 -23 18 -44t55 -21t54.5 21t18.5 44h73q0 -27 -9.5 -52.5t-27.5 -45.5t-45.5 -32t-63.5 -12z" />
    <glyph glyph-name="dotaccent" unicode="&#x2d9;" horiz-adv-x="174" 
d="M25 616q0 26 18 44t44 18t44 -18t18 -44t-18 -44t-44 -18t-44 18t-18 44z" />
    <glyph glyph-name="ring" unicode="&#x2da;" horiz-adv-x="293" 
d="M258 641q0 -23 -9 -43t-24 -34.5t-35.5 -23t-43.5 -8.5q-22 0 -42 8.5t-35.5 23t-24.5 34.5t-9 43t9 43t24.5 35t35.5 23.5t42 8.5q23 0 43.5 -8.5t35.5 -23.5t24 -35t9 -43zM194 641q0 20 -14 34.5t-35 14.5q-20 0 -33.5 -14.5t-13.5 -34.5t13.5 -34t33.5 -14
q21 0 35 14t14 34z" />
    <glyph glyph-name="ogonek" unicode="&#x2db;" horiz-adv-x="233" 
d="M33 -115q0 27 9.5 48.5t24.5 37t33 26.5t35 19l63 -16q-14 -7 -29 -16t-27.5 -21t-20.5 -27t-8 -33q0 -26 16.5 -36.5t36.5 -10.5q12 0 19 1t13 3v-68q-10 -4 -20.5 -6t-29.5 -2q-23 0 -44 7t-37 19.5t-25 31.5t-9 43z" />
    <glyph glyph-name="tilde" unicode="&#x2dc;" horiz-adv-x="377" 
d="M346 662q0 -56 -27.5 -82.5t-69.5 -26.5q-20 0 -36 6.5t-30 15.5l-14 9q-10 6 -18.5 10t-18.5 4q-14 0 -21.5 -9t-7.5 -34h-72v15q0 56 28 82.5t70 26.5q20 0 36.5 -6.5t30.5 -15.5l14 -9q10 -6 18 -10t18 -4q15 0 22 9.5t7 33.5h71v-15z" />
    <glyph glyph-name="hungarumlaut" unicode="&#x2dd;" horiz-adv-x="367" 
d="M101 543h-66l51 146h105zM232 543h-66l61 146h105z" />
    <glyph glyph-name="uni0394" unicode="&#x394;" horiz-adv-x="718" 
d="M306 709h105l279 -709h-662zM167 90h383l-193 507z" />
    <glyph glyph-name="uni03A9" unicode="&#x3a9;" horiz-adv-x="822" 
d="M411 636q-46 0 -91.5 -16t-81.5 -47.5t-58 -77.5t-22 -107q0 -54 19 -98t49 -76.5t67.5 -53t74.5 -28.5v-132h-305v88h202q-38 14 -75.5 40.5t-66.5 65t-47 87t-18 106.5q0 79 29.5 142t78 106t112.5 66t133 23t133 -23t112.5 -66t78 -106t29.5 -142q0 -58 -18 -106.5
t-47.5 -87t-66.5 -65t-76 -40.5h203v-88h-305v132q37 8 74.5 28.5t67.5 53t49 76.5t19 98q0 61 -22 107t-58 77.5t-81.5 47.5t-91.5 16z" />
    <glyph glyph-name="uni03BC" unicode="&#x3bc;" horiz-adv-x="550" 
d="M391 58q-20 -38 -60 -55.5t-82 -17.5q-27 0 -47.5 5.5t-38.5 14.5v-195h-94v671h94v-289q0 -25 6 -47.5t19 -39.5t33.5 -27t50.5 -10q57 0 85.5 34t28.5 89v290h94v-392q0 -29 1.5 -54t3.5 -35h-90q-2 8 -3 25.5t-1 32.5z" />
    <glyph glyph-name="pi" unicode="&#x3c0;" horiz-adv-x="597" 
d="M551 5q-9 -4 -23.5 -8t-37.5 -4q-31 0 -53 10t-36.5 26.5t-21.5 38t-7 44.5v287h-165v-399h-94v399h-82v82h518v-82h-83v-277q0 -27 15.5 -38t38.5 -11q8 0 15.5 1t15.5 3v-72z" />
    <glyph glyph-name="Wgrave" unicode="&#x1e80;" horiz-adv-x="1020" 
d="M895 709h101l-202 -709h-101l-185 575l-183 -575h-98l-205 709h101l156 -555l178 555h103l182 -561zM327 878h129l102 -119h-93z" />
    <glyph glyph-name="wgrave" unicode="&#x1e81;" horiz-adv-x="816" 
d="M459 481l125 -362l106 362h99l-156 -481h-97l-128 366l-125 -366h-99l-158 481h103l108 -362l125 362h97zM245 689h118l86 -146h-78z" />
    <glyph glyph-name="Wacute" unicode="&#x1e82;" horiz-adv-x="1020" 
d="M895 709h101l-202 -709h-101l-185 575l-183 -575h-98l-205 709h101l156 -555l178 555h103l182 -561zM556 759h-94l101 119h130z" />
    <glyph glyph-name="wacute" unicode="&#x1e83;" horiz-adv-x="816" 
d="M459 481l125 -362l106 362h99l-156 -481h-97l-128 366l-125 -366h-99l-158 481h103l108 -362l125 362h97zM448 543h-79l87 146h118z" />
    <glyph glyph-name="Wdieresis" unicode="&#x1e84;" horiz-adv-x="1020" 
d="M305 819q0 25 17 42t42 17t42 -17t17 -42t-17 -42t-42 -17t-42 17t-17 42zM596 819q0 25 17 42t42 17t42 -17t17 -42t-17 -42t-42 -17t-42 17t-17 42zM895 709h101l-202 -709h-101l-185 575l-183 -575h-98l-205 709h101l156 -555l178 555h103l182 -561z" />
    <glyph glyph-name="wdieresis" unicode="&#x1e85;" horiz-adv-x="816" 
d="M236 621q0 24 16.5 41t40.5 17q25 0 42 -17t17 -41q0 -25 -17 -41.5t-42 -16.5q-24 0 -40.5 16.5t-16.5 41.5zM463 621q0 24 16.5 41t41.5 17q24 0 41 -17t17 -41q0 -25 -17 -41.5t-41 -16.5q-25 0 -41.5 16.5t-16.5 41.5zM459 481l125 -362l106 362h99l-156 -481h-97
l-128 366l-125 -366h-99l-158 481h103l108 -362l125 362h97z" />
    <glyph glyph-name="uni1E8A" unicode="&#x1e8a;" horiz-adv-x="625" 
d="M370 355l238 -355h-117l-179 277l-183 -277h-115l242 355l-240 354h118l179 -278l182 278h116zM250 818q0 26 18.5 45t44.5 19t45 -19t19 -45t-19 -44.5t-45 -18.5t-44.5 18.5t-18.5 44.5z" />
    <glyph glyph-name="uni1E8B" unicode="&#x1e8b;" horiz-adv-x="507" 
d="M197 245l-173 236h114l118 -169l116 169h111l-171 -236q7 -10 21 -29t31.5 -43t36 -50.5t36 -50.5t31.5 -43t21 -29h-113l-124 177l-122 -177h-112zM192 616q0 26 18 44t44 18t44 -18t18 -44t-18 -44t-44 -18t-44 18t-18 44z" />
    <glyph glyph-name="Ygrave" unicode="&#x1ef2;" horiz-adv-x="642" 
d="M22 709h118l184 -316l184 316h112l-250 -406v-303h-98v303zM149 878h129l102 -119h-93z" />
    <glyph glyph-name="ygrave" unicode="&#x1ef3;" horiz-adv-x="538" 
d="M107 -201l120 254l-207 428h108l150 -332l144 332h101l-313 -682h-103zM126 689h118l86 -146h-78z" />
    <glyph glyph-name="uni2007" unicode="&#x2007;" horiz-adv-x="620" 
 />
    <glyph glyph-name="uni2008" unicode="&#x2008;" horiz-adv-x="251" 
 />
    <glyph glyph-name="uni200B" unicode="&#x200b;" horiz-adv-x="0" 
 />
    <glyph glyph-name="endash" unicode="&#x2013;" horiz-adv-x="646" 
d="M67 246v82h512v-82h-512z" />
    <glyph glyph-name="emdash" unicode="&#x2014;" horiz-adv-x="1087" 
d="M67 246v82h953v-82h-953z" />
    <glyph glyph-name="quoteleft" unicode="&#x2018;" horiz-adv-x="247" 
d="M190 515q0 -25 -18.5 -42.5t-46.5 -17.5q-29 0 -51 21t-22 64q0 44 13 76t32.5 53.5t43 32.5t44.5 13v-47q-33 -8 -53.5 -37t-21.5 -60q2 2 7 3.5t13 1.5q25 0 42.5 -16t17.5 -45z" />
    <glyph glyph-name="quoteright" unicode="&#x2019;" horiz-adv-x="253" 
d="M63 656q0 25 19.5 43.5t48.5 18.5q30 0 53 -22t23 -66q0 -47 -13.5 -80t-34 -55t-44.5 -33t-46 -14v48q34 8 55 37.5t22 63.5q-2 -2 -7 -3.5t-13 -1.5q-26 0 -44.5 17t-18.5 47z" />
    <glyph glyph-name="quotesinglbase" unicode="&#x201a;" horiz-adv-x="260" 
d="M58 61q0 25 19.5 43.5t48.5 18.5q30 0 53 -22t23 -66q0 -47 -13.5 -80t-34 -55t-44.5 -33t-46 -14v48q34 8 55 37.5t22 63.5q-2 -2 -7 -3.5t-13 -1.5q-26 0 -44.5 17t-18.5 47z" />
    <glyph glyph-name="quotedblleft" unicode="&#x201c;" horiz-adv-x="417" 
d="M361 520q0 -25 -18.5 -42.5t-46.5 -17.5q-29 0 -51 21t-22 64q0 44 13 76t32.5 53.5t43 32.5t44.5 13v-47q-33 -8 -53.5 -37t-21.5 -60q2 2 7 3.5t13 1.5q25 0 42.5 -16t17.5 -45zM190 520q0 -25 -18.5 -42.5t-46.5 -17.5q-29 0 -51 21t-22 64q0 44 13 76t32.5 53.5
t43 32.5t44.5 13v-47q-33 -8 -53.5 -37t-21.5 -60q2 2 7 3.5t13 1.5q25 0 42.5 -16t17.5 -45z" />
    <glyph glyph-name="quotedblright" unicode="&#x201d;" horiz-adv-x="419" 
d="M64 655q0 25 18.5 42.5t46.5 17.5q29 0 51 -21t22 -64q0 -44 -13 -76t-32.5 -53t-43 -32t-44.5 -14v47q16 4 30 13.5t23.5 22.5t15.5 29t6 32q-2 -2 -7 -3.5t-13 -1.5q-25 0 -42.5 16t-17.5 45zM235 655q0 25 18.5 42.5t46.5 17.5q29 0 51 -21t22 -64q0 -44 -13 -76
t-32.5 -53t-43 -32t-44.5 -14v47q16 4 30 13.5t23.5 22.5t15.5 29t6 32q-2 -2 -7 -3.5t-13 -1.5q-25 0 -42.5 16t-17.5 45z" />
    <glyph glyph-name="quotedblbase" unicode="&#x201e;" horiz-adv-x="425" 
d="M59 58q0 25 18.5 42.5t46.5 17.5q29 0 51 -21t22 -64q0 -44 -13 -76t-32.5 -53t-43 -32t-44.5 -14v47q16 4 30 13.5t23.5 22.5t15.5 29t6 32q-2 -2 -7 -3.5t-13 -1.5q-25 0 -42.5 16t-17.5 45zM230 58q0 25 18.5 42.5t46.5 17.5q29 0 51 -21t22 -64q0 -44 -13 -76
t-32.5 -53t-43 -32t-44.5 -14v47q16 4 30 13.5t23.5 22.5t15.5 29t6 32q-2 -2 -7 -3.5t-13 -1.5q-25 0 -42.5 16t-17.5 45z" />
    <glyph glyph-name="dagger" unicode="&#x2020;" horiz-adv-x="414" 
d="M166 162v317h-127v81h127v149h82v-149h127v-81h-127v-317h-82z" />
    <glyph glyph-name="daggerdbl" unicode="&#x2021;" horiz-adv-x="452" 
d="M185 230v249h-127v81h127v149h82v-149h127v-81h-127v-249h127v-81h-127v-149h-82v149h-127v81h127z" />
    <glyph glyph-name="bullet" unicode="&#x2022;" horiz-adv-x="558" 
d="M72 289q0 43 16.5 81t44.5 66t65.5 44.5t80.5 16.5t80.5 -16.5t65.5 -44.5t44.5 -66t16.5 -81q0 -42 -16.5 -80t-44.5 -66t-65.5 -44.5t-80.5 -16.5t-80.5 16.5t-65.5 44.5t-44.5 66t-16.5 80z" />
    <glyph glyph-name="ellipsis" unicode="&#x2026;" horiz-adv-x="866" 
d="M809 59q0 -27 -18.5 -45.5t-45.5 -18.5t-46 18.5t-19 45.5t19 46t46 19t45.5 -19t18.5 -46zM497 59q0 -27 -18.5 -45.5t-45.5 -18.5t-46 18.5t-19 45.5t19 46t46 19t45.5 -19t18.5 -46zM186 59q0 -27 -18.5 -45.5t-45.5 -18.5t-46 18.5t-19 45.5t19 46t46 19t45.5 -19
t18.5 -46z" />
    <glyph glyph-name="perthousand" unicode="&#x2030;" horiz-adv-x="1069" 
d="M194 403q-32 0 -61 12t-51 33.5t-35 50.5t-13 62t13 61.5t35 50t51 33.5t61 12t61.5 -12t51.5 -33.5t35 -50t13 -61.5t-13 -62t-35 -50.5t-51.5 -33.5t-61.5 -12zM132 0l466 709h91l-465 -709h-92zM117 561q0 -35 22.5 -57t54.5 -22q33 0 55 22t22 57q0 34 -22 56t-55 22
q-32 0 -54.5 -22t-22.5 -56zM876 -9q-37 0 -69 15.5t-55 42.5q-23 -27 -55 -42.5t-69 -15.5q-32 0 -61 12t-51 33.5t-35 50.5t-13 62t13 61.5t35 50t51 33.5t61 12q37 0 69 -15.5t55 -42.5q23 27 55 42.5t69 15.5q32 0 61.5 -12t51.5 -33.5t35 -50t13 -61.5t-13 -62
t-35 -50.5t-51.5 -33.5t-61.5 -12zM799 149q0 -35 22.5 -57t54.5 -22q33 0 55 22t22 57q0 34 -22 56t-55 22q-32 0 -54.5 -22t-22.5 -56zM551 149q0 -35 22.5 -57t54.5 -22q33 0 55 22t22 57q0 34 -22 56t-55 22q-32 0 -54.5 -22t-22.5 -56z" />
    <glyph glyph-name="guilsinglleft" unicode="&#x2039;" horiz-adv-x="317" 
d="M175 99l-133 191l133 191h93l-131 -191l131 -191h-93z" />
    <glyph glyph-name="guilsinglright" unicode="&#x203a;" horiz-adv-x="317" 
d="M49 99l131 191l-131 191h93l133 -191l-133 -191h-93z" />
    <glyph glyph-name="uni2042" unicode="&#x2042;" horiz-adv-x="831" 
d="M451 588l111 38l20 -65l-111 -36l74 -95l-55 -41l-75 98l-70 -97l-55 41l71 94l-112 36l21 65l110 -38v121h71v-121zM235 191l111 38l20 -65l-111 -36l74 -95l-55 -41l-75 98l-70 -97l-55 41l71 94l-112 36l21 65l110 -38v121h71v-121zM667 191l111 38l20 -65l-111 -36
l74 -95l-55 -41l-75 98l-70 -97l-55 41l71 94l-112 36l21 65l110 -38v121h71v-121z" />
    <glyph glyph-name="fraction" unicode="&#x2044;" horiz-adv-x="149" 
d="M-199 0l466 709h83l-465 -709h-84z" />
    <glyph glyph-name="uni2051" unicode="&#x2051;" horiz-adv-x="444" 
d="M257 588l111 38l20 -65l-111 -36l74 -95l-55 -41l-75 98l-70 -97l-55 41l71 94l-112 36l21 65l110 -38v121h71v-121zM257 191l111 38l20 -65l-111 -36l74 -95l-55 -41l-75 98l-70 -97l-55 41l71 94l-112 36l21 65l110 -38v121h71v-121z" />
    <glyph glyph-name="uni2070" unicode="&#x2070;" horiz-adv-x="384" 
d="M117 526q0 -20 2.5 -42t10.5 -40t22.5 -29.5t39.5 -11.5t39.5 11.5t22.5 29.5t10.5 40t2.5 42t-2.5 42t-10.5 40t-22.5 30t-39.5 12t-39.5 -11.5t-22.5 -29.5t-10.5 -40t-2.5 -43zM39 526q0 36 7.5 70.5t27.5 61.5q17 23 44.5 40.5t73.5 17.5t73.5 -17.5t44.5 -40.5
q20 -27 27.5 -61.5t7.5 -70.5t-7.5 -70t-27.5 -61q-17 -23 -44.5 -40.5t-73.5 -17.5t-73.5 17.5t-44.5 40.5q-20 27 -27.5 61t-7.5 70z" />
    <glyph glyph-name="uni2074" unicode="&#x2074;" horiz-adv-x="383" 
d="M28 489l177 220h85v-228h64v-65h-64v-72h-77v72h-185v73zM213 620l-111 -139h111v139z" />
    <glyph glyph-name="uni2075" unicode="&#x2075;" horiz-adv-x="346" 
d="M94 459q7 -26 26.5 -41.5t46.5 -15.5q29 0 48 16t19 45q0 31 -19 46.5t-48 15.5q-20 0 -36 -7.5t-28 -19.5l-64 24l49 187h204v-66h-154l-23 -86q14 15 33.5 21.5t39.5 6.5q56 0 90 -32t34 -87q0 -27 -9.5 -50.5t-28 -41t-45.5 -27.5t-62 -10q-27 0 -50.5 8t-41.5 20.5
t-30 29t-17 34.5z" />
    <glyph glyph-name="uni2076" unicode="&#x2076;" horiz-adv-x="368" 
d="M198 650q-42 0 -62.5 -33.5t-21.5 -81.5q10 20 33.5 33.5t58.5 13.5q26 0 49 -8t40.5 -23t28 -37.5t10.5 -50.5q0 -29 -11 -52t-30.5 -39.5t-45 -25.5t-55.5 -9q-34 0 -62.5 13t-49.5 37t-32.5 59t-11.5 80t12 80.5t33.5 60t51 37.5t64.5 13q54 0 91.5 -27t43.5 -72
l-74 -11q-4 18 -18 30.5t-42 12.5zM191 401q26 0 45 16.5t19 45.5q0 28 -18.5 44.5t-44.5 16.5t-46 -16t-20 -45t19 -45.5t46 -16.5z" />
    <glyph glyph-name="uni2077" unicode="&#x2077;" horiz-adv-x="341" 
d="M316 636q-15 -11 -37.5 -32.5t-45 -56.5t-41 -85.5t-24.5 -117.5h-82q7 75 29 130.5t46 93.5q28 44 61 75h-197v66h291v-73z" />
    <glyph glyph-name="uni2078" unicode="&#x2078;" horiz-adv-x="368" 
d="M184 561q29 0 46 13t17 35q0 20 -17 33t-46 13t-46 -13t-17 -33q0 -22 17 -35t46 -13zM184 401q33 0 52 13.5t19 36.5q0 22 -19.5 36t-51.5 14t-51.5 -14t-19.5 -36q0 -23 19 -36.5t52 -13.5zM184 337q-72 0 -110.5 31.5t-38.5 76.5q0 27 18.5 51.5t52.5 34.5
q-30 11 -45.5 33t-15.5 47q0 47 39 76t100 29t100 -29t39 -76q0 -25 -15.5 -47t-45.5 -33q34 -10 52.5 -34.5t18.5 -51.5q0 -45 -38.5 -76.5t-110.5 -31.5z" />
    <glyph glyph-name="uni2079" unicode="&#x2079;" horiz-adv-x="365" 
d="M172 399q44 0 62.5 29.5t18.5 86.5q-8 -20 -31.5 -34.5t-55.5 -14.5q-26 0 -49.5 7.5t-41.5 23t-29 38t-11 52.5q0 29 11 52.5t30 40.5t45 26t55 9q33 0 61 -11t49 -34t32.5 -58.5t11.5 -83.5q0 -94 -42 -144t-115 -50q-53 0 -92 27t-46 72l72 12q4 -21 21.5 -33.5
t43.5 -12.5zM177 526q25 0 43.5 16.5t18.5 46.5t-18 45.5t-44 15.5q-25 0 -44 -16.5t-19 -45.5q0 -31 19 -46.5t44 -15.5z" />
    <glyph glyph-name="uni2080" unicode="&#x2080;" horiz-adv-x="386" 
d="M117 99q0 -20 2.5 -42t10.5 -40t22.5 -29.5t39.5 -11.5t39.5 11.5t22.5 29.5t10.5 40t2.5 42t-2.5 42t-10.5 40t-22.5 30t-39.5 12t-39.5 -11.5t-22.5 -29.5t-10.5 -40t-2.5 -43zM39 99q0 36 7.5 70.5t27.5 61.5q17 23 44.5 40.5t73.5 17.5t73.5 -17.5t44.5 -40.5
q20 -27 27.5 -61.5t7.5 -70.5t-7.5 -70t-27.5 -61q-17 -23 -44.5 -40.5t-73.5 -17.5t-73.5 17.5t-44.5 40.5q-20 27 -27.5 61t-7.5 70z" />
    <glyph glyph-name="uni2081" unicode="&#x2081;" horiz-adv-x="239" 
d="M112 -83v245h-86v52q37 1 62 20.5t30 47.5h71v-365h-77z" />
    <glyph glyph-name="uni2082" unicode="&#x2082;" horiz-adv-x="346" 
d="M44 141q-2 8 -2.5 16.5t-0.5 14.5q0 24 9 45t26 37t41.5 25.5t55.5 9.5t55 -9.5t41 -25t26 -36.5t9 -44q0 -35 -19 -62.5t-51 -47.5l-72 -45q-11 -8 -20 -17t-11 -20h175v-65h-268v13q0 45 20 81.5t65 63.5l60 37q43 26 43 63q0 20 -14 35t-40 15t-41.5 -16t-15.5 -42
q0 -3 0.5 -11t2.5 -15h-74z" />
    <glyph glyph-name="uni2083" unicode="&#x2083;" horiz-adv-x="353" 
d="M315 183q0 -29 -18 -51t-47 -30q32 -7 50.5 -30t18.5 -54q0 -46 -37 -77.5t-104 -31.5q-66 0 -105.5 32t-44.5 83l74 13q3 -27 21.5 -44.5t53.5 -17.5q32 0 49 14t17 34q0 21 -16 33t-45 12h-41v63h39q29 0 43 14t14 31q0 21 -15.5 34t-44.5 13t-46 -15.5t-19 -39.5
l-74 11q4 47 42 79t98 32q69 0 103 -31t34 -76z" />
    <glyph glyph-name="uni2084" unicode="&#x2084;" horiz-adv-x="383" 
d="M28 62l177 220h85v-228h64v-65h-64v-72h-77v72h-185v73zM213 193l-111 -139h111v139z" />
    <glyph glyph-name="uni2085" unicode="&#x2085;" horiz-adv-x="346" 
d="M94 32q7 -26 26.5 -41.5t46.5 -15.5q29 0 48 16t19 45q0 31 -19 46.5t-48 15.5q-20 0 -36 -7.5t-28 -19.5l-64 24l49 187h204v-66h-154l-23 -86q14 15 33.5 21.5t39.5 6.5q56 0 90 -32t34 -87q0 -27 -9.5 -50.5t-28 -41t-45.5 -27.5t-62 -10q-27 0 -50.5 8t-41.5 20.5
t-30 29t-17 34.5z" />
    <glyph glyph-name="uni2086" unicode="&#x2086;" horiz-adv-x="368" 
d="M198 223q-42 0 -62.5 -33.5t-21.5 -81.5q10 20 33.5 33.5t58.5 13.5q26 0 49 -8t40.5 -23t28 -37.5t10.5 -50.5q0 -29 -11 -52t-30.5 -39.5t-45 -25.5t-55.5 -9q-34 0 -62.5 13t-49.5 37t-32.5 59t-11.5 80t12 80.5t33.5 60t51 37.5t64.5 13q54 0 91.5 -27t43.5 -72
l-74 -11q-4 18 -18 30.5t-42 12.5zM191 -26q26 0 45 16.5t19 45.5q0 28 -18.5 44.5t-44.5 16.5t-46 -16t-20 -45t19 -45.5t46 -16.5z" />
    <glyph glyph-name="uni2087" unicode="&#x2087;" horiz-adv-x="341" 
d="M316 209q-15 -11 -37.5 -32.5t-45 -56.5t-41 -85.5t-24.5 -117.5h-82q7 75 29 130.5t46 93.5q28 44 61 75h-197v66h291v-73z" />
    <glyph glyph-name="uni2088" unicode="&#x2088;" horiz-adv-x="368" 
d="M184 134q29 0 46 13t17 35q0 20 -17 33t-46 13t-46 -13t-17 -33q0 -22 17 -35t46 -13zM184 -26q33 0 52 13.5t19 36.5q0 22 -19.5 36t-51.5 14t-51.5 -14t-19.5 -36q0 -23 19 -36.5t52 -13.5zM184 -90q-72 0 -110.5 31.5t-38.5 76.5q0 27 18.5 51.5t52.5 34.5
q-30 11 -45.5 33t-15.5 47q0 47 39 76t100 29t100 -29t39 -76q0 -25 -15.5 -47t-45.5 -33q34 -10 52.5 -34.5t18.5 -51.5q0 -45 -38.5 -76.5t-110.5 -31.5z" />
    <glyph glyph-name="uni2089" unicode="&#x2089;" horiz-adv-x="365" 
d="M172 -28q44 0 62.5 29.5t18.5 86.5q-8 -20 -31.5 -34.5t-55.5 -14.5q-26 0 -49.5 7.5t-41.5 23t-29 38t-11 52.5q0 29 11 52.5t30 40.5t45 26t55 9q33 0 61 -11t49 -34t32.5 -58.5t11.5 -83.5q0 -94 -42 -144t-115 -50q-53 0 -92 27t-46 72l72 12q4 -21 21.5 -33.5
t43.5 -12.5zM177 99q25 0 43.5 16.5t18.5 46.5t-18 45.5t-44 15.5q-25 0 -44 -16.5t-19 -45.5q0 -31 19 -46.5t44 -15.5z" />
    <glyph glyph-name="Euro" unicode="&#x20ac;" horiz-adv-x="735" 
d="M225 388q-1 -9 -1.5 -16.5t-0.5 -17.5q0 -11 0.5 -20.5t1.5 -17.5h274l-34 -75h-222q13 -43 38 -74t58 -51.5t71 -30.5t76 -10q53 0 97 16.5t71 41.5l46 -72q-35 -30 -90 -52.5t-123 -22.5q-60 0 -115.5 16.5t-101.5 48.5t-79 80t-49 110h-98v75h84q-2 12 -2 19v20v15.5
t1 17.5h-83v75h97q16 63 50.5 111.5t81.5 81t103.5 49.5t116.5 17q59 0 105 -14t77 -36l-37 -76q-56 39 -144 39q-41 0 -80.5 -10t-73 -31t-60 -53.5t-39.5 -77.5h324l-33 -75h-307z" />
    <glyph glyph-name="uni2113" unicode="&#x2113;" horiz-adv-x="403" 
d="M356 20q-16 -11 -39.5 -18t-56.5 -7q-66 0 -106.5 37t-40.5 106v127q-17 -7 -34.5 -13t-35.5 -10v82q16 5 33.5 12t36.5 15v213q0 77 38 117.5t93 40.5q63 0 96 -39t33 -105q0 -43 -13 -82.5t-36.5 -75t-55.5 -65.5t-70 -54v-141q0 -43 21.5 -63.5t54.5 -20.5q26 0 46 6
t36 15v-77zM198 401q38 32 64 77t26 103q0 28 -10.5 45t-31.5 17t-34.5 -17t-13.5 -58v-167z" />
    <glyph glyph-name="trademark" unicode="&#x2122;" horiz-adv-x="885" 
d="M226 641v-297h-76v297h-112v68h300v-68h-112zM735 344v233l-101 -233h-59l-98 230v-230h-76v365h99l107 -254l107 254h93v-365h-72z" />
    <glyph glyph-name="Omega" unicode="&#x2126;" horiz-adv-x="822" 
d="M411 636q-46 0 -91.5 -16t-81.5 -47.5t-58 -77.5t-22 -107q0 -54 19 -98t49 -76.5t67.5 -53t74.5 -28.5v-132h-305v88h202q-38 14 -75.5 40.5t-66.5 65t-47 87t-18 106.5q0 79 29.5 142t78 106t112.5 66t133 23t133 -23t112.5 -66t78 -106t29.5 -142q0 -58 -18 -106.5
t-47.5 -87t-66.5 -65t-76 -40.5h203v-88h-305v132q37 8 74.5 28.5t67.5 53t49 76.5t19 98q0 61 -22 107t-58 77.5t-81.5 47.5t-91.5 16z" />
    <glyph glyph-name="uni2160" unicode="&#x2160;" horiz-adv-x="478" 
d="M437 621h-150v-533h150v-88h-396v88h150v533h-150v88h396v-88z" />
    <glyph glyph-name="uni2161" unicode="&#x2161;" horiz-adv-x="759" 
d="M718 0h-677v88h152v533h-152v88h677v-88h-152v-533h152v-88zM470 621h-181v-533h181v533z" />
    <glyph glyph-name="uni2162" unicode="&#x2162;" horiz-adv-x="1029" 
d="M988 0h-947v88h152v533h-152v88h947v-88h-151v-533h151v-88zM741 621h-178v-533h178v533zM289 88h178v533h-178v-533z" />
    <glyph glyph-name="uni2163" unicode="&#x2163;" horiz-adv-x="1017" 
d="M286 88h245l-153 533h-92v-533zM976 88v-88h-935v88h149v533h-149v88h935v-88h-107l-154 -533h261zM480 621l143 -507l143 507h-286z" />
    <glyph glyph-name="uni2164" unicode="&#x2164;" horiz-adv-x="780" 
d="M41 0v88h258l-154 533h-104v88h698v-88h-103l-154 -533h256v-88h-697zM248 621l143 -507l143 507h-286z" />
    <glyph glyph-name="uni2165" unicode="&#x2165;" horiz-adv-x="1014" 
d="M736 621h-96l-154 -533h250v533zM302 88l-153 533h-108v88h932v-88h-141v-533h141v-88h-932v88h261zM251 621l143 -507l143 507h-286z" />
    <glyph glyph-name="uni2166" unicode="&#x2166;" horiz-adv-x="1298" 
d="M736 621h-96l-154 -533h250v533zM251 621l143 -507l143 507h-286zM41 0v88h261l-153 533h-108v88h1216v-88h-152v-533h151v-88h-1215zM1009 621h-177v-533h177v533z" />
    <glyph glyph-name="uni2167" unicode="&#x2167;" horiz-adv-x="1558" 
d="M735 621h-95l-154 -533h249v533zM251 621l144 -507l143 507h-287zM1518 621h-153v-533h151v-88h-1475v88h261l-153 533h-108v88h1477v-88zM1003 621h-172v-533h172v533zM1099 621v-533h170v533h-170z" />
    <glyph glyph-name="uni2168" unicode="&#x2168;" horiz-adv-x="990" 
d="M667 354l175 -266h107v-88h-908v88h149v533h-149v88h907v-88h-104zM551 353l-176 268h-89v-533h90zM490 621l120 -188l120 188h-240zM609 273l-119 -185h237z" />
    <glyph glyph-name="uni2169" unicode="&#x2169;" horiz-adv-x="754" 
d="M41 621v88h672v-88h-101l-179 -269l174 -264h106v-88h-672v88h104l173 262l-178 271h-99zM376 431l122 190h-243zM375 271l-117 -183h234z" />
    <glyph glyph-name="uni216C" unicode="&#x216c;" horiz-adv-x="633" 
d="M594 0h-553v88h132v533h-132v88h370v-88h-142v-533h233v197h92v-285z" />
    <glyph glyph-name="uni216D" unicode="&#x216d;" horiz-adv-x="770" 
d="M392 -13q-71 0 -133.5 25t-109 72t-74 115.5t-27.5 154.5t27.5 154t74.5 115.5t109 73t131 25.5q42 0 76 -9t60.5 -24t46 -34.5t33.5 -40.5v95h94v-247h-94q-7 34 -22.5 65.5t-41 56t-62.5 39.5t-87 15q-48 0 -93.5 -18t-81 -53.5t-56.5 -89t-21 -123.5
q0 -68 20.5 -120.5t55 -88t81 -54t97.5 -18.5t88.5 16t64 41.5t41.5 57t21 63.5h94v-251h-94v97q-14 -22 -33.5 -42t-46.5 -35t-61 -24t-77 -9z" />
    <glyph glyph-name="uni216E" unicode="&#x216e;" horiz-adv-x="754" 
d="M369 709q71 0 132.5 -22.5t106.5 -67.5t71 -111.5t26 -153.5t-26 -153.5t-71.5 -111t-107 -67t-133.5 -22.5h-326v88h138v533h-138v88h328zM363 88q50 0 94.5 14.5t77.5 46.5t52.5 82.5t19.5 122.5q0 71 -19 121.5t-52 83t-77.5 47.5t-95.5 15h-89v-533h89z" />
    <glyph glyph-name="uni216F" unicode="&#x216f;" horiz-adv-x="1045" 
d="M521 142l213 567h268v-88h-126v-533h129v-88h-326v88h102v480l-217 -568h-87l-217 566v-478h103v-88h-321v88h125v533h-125v88h262z" />
    <glyph glyph-name="arrowleft" unicode="&#x2190;" horiz-adv-x="1039" 
d="M37 287l252 212v-171h696v-83h-696v-169z" />
    <glyph glyph-name="arrowup" unicode="&#x2191;" horiz-adv-x="455" 
d="M427 555h-158v-703h-83v703h-158l200 245z" />
    <glyph glyph-name="arrowright" unicode="&#x2192;" horiz-adv-x="1039" 
d="M750 76v169h-696v83h696v171l252 -212z" />
    <glyph glyph-name="arrowdown" unicode="&#x2193;" horiz-adv-x="477" 
d="M238 -162l-211 252h169v696h83v-696h171z" />
    <glyph glyph-name="uni2196" unicode="&#x2196;" horiz-adv-x="801" 
d="M348 709l-116 -117l543 -542l-59 -58l-543 541l-117 -118v294h292z" />
    <glyph glyph-name="uni2197" unicode="&#x2197;" horiz-adv-x="801" 
d="M745 709v-294l-118 118l-542 -541l-59 58l543 542l-116 117h292z" />
    <glyph glyph-name="uni2198" unicode="&#x2198;" horiz-adv-x="801" 
d="M454 0l116 117l-543 542l59 58l542 -542l118 119v-294h-292z" />
    <glyph glyph-name="uni2199" unicode="&#x2199;" horiz-adv-x="801" 
d="M55 0v294l117 -119l543 542l59 -58l-543 -542l116 -117h-292z" />
    <glyph glyph-name="uni21A9" unicode="&#x21a9;" horiz-adv-x="884" 
d="M430 663h192q45 0 84.5 -16t69 -44t46.5 -66.5t17 -82.5q0 -47 -18 -85.5t-49 -66t-71 -42.5t-83 -15h-367v-144l-221 185l221 186v-144h362q28 0 54 8.5t46 24.5t32 39.5t12 53.5t-11.5 53.5t-31.5 39.5t-47 24.5t-57 8.5h-180v83z" />
    <glyph glyph-name="uni21B0" unicode="&#x21b0;" horiz-adv-x="742" 
d="M27 538l221 186v-144h414v-580h-83v497h-331v-144z" />
    <glyph glyph-name="uni21B1" unicode="&#x21b1;" horiz-adv-x="792" 
d="M80 0v580h464v144l221 -186l-221 -185v144h-381v-497h-83z" />
    <glyph glyph-name="uni21B2" unicode="&#x21b2;" horiz-adv-x="794" 
d="M714 709v-580h-464v-144l-221 186l221 185v-144h381v497h83z" />
    <glyph glyph-name="uni21B3" unicode="&#x21b3;" horiz-adv-x="794" 
d="M765 171l-221 -186v144h-464v580h83v-497h381v144z" />
    <glyph glyph-name="uni21B4" unicode="&#x21b4;" horiz-adv-x="786" 
d="M32 709h580v-504h144l-186 -221l-185 221h144v421h-497v83z" />
    <glyph glyph-name="uni21B5" unicode="&#x21b5;" horiz-adv-x="1060" 
d="M27 355h131q0 76 29.5 143.5t79.5 117.5t117 79t143 29q50 0 95.5 -12t86.5 -35l-37 -74q-32 18 -68.5 28t-75.5 10q-60 0 -112 -22.5t-91 -61t-61 -90.5t-22 -112h143l-179 -210zM896 354q0 -77 -29.5 -144t-79.5 -117t-117 -79t-143 -29q-50 0 -95.5 12t-86.5 35l37 74
q32 -18 68.5 -28t75.5 -10q60 0 112 22.5t91 61t61 90.5t22 112h-138l179 210l179 -210h-136z" />
    <glyph glyph-name="uni21C6" unicode="&#x21c6;" horiz-adv-x="1082" 
d="M43 539l221 186v-144h755v-83h-755v-144zM818 -15v144h-755v83h755v144l221 -186z" />
    <glyph glyph-name="partialdiff" unicode="&#x2202;" horiz-adv-x="613" 
d="M246 638q-24 0 -62.5 -6t-77.5 -25l-32 74q42 24 90 33.5t90 9.5q45 0 98.5 -15t100 -56.5t77.5 -114.5t31 -190q0 -84 -17.5 -151t-52.5 -114t-86.5 -72.5t-118.5 -25.5q-46 0 -89.5 14.5t-77 44t-54 74t-20.5 103.5q0 54 19.5 96.5t53.5 72.5t78.5 46t94.5 16
q60 0 104 -17t67 -40q-5 64 -23 110.5t-46 75.5t-65 43t-82 14zM305 369q-41 0 -71.5 -12.5t-51 -33.5t-31 -49t-10.5 -59q0 -35 12.5 -61.5t33.5 -44.5t48 -27.5t56 -9.5q47 0 79.5 20.5t53 52.5t30 72t9.5 79q-26 36 -68.5 54.5t-89.5 18.5z" />
    <glyph glyph-name="Delta" unicode="&#x2206;" horiz-adv-x="718" 
d="M306 709h105l279 -709h-662zM167 90h383l-193 507z" />
    <glyph glyph-name="product" unicode="&#x220f;" horiz-adv-x="659" 
d="M488 0v622h-314v-622h-98v709h507v-709h-95z" />
    <glyph glyph-name="summation" unicode="&#x2211;" horiz-adv-x="600" 
d="M49 86l273 271l-273 266v86h497v-90h-365l269 -262l-278 -267h374v-90h-497v86z" />
    <glyph glyph-name="minus" unicode="&#x2212;" horiz-adv-x="561" 
d="M69 309v79h423v-79h-423z" />
    <glyph glyph-name="uni2215" unicode="&#x2215;" horiz-adv-x="397" 
d="M82 0h-91l313 648h91z" />
    <glyph glyph-name="uni2219" unicode="&#x2219;" horiz-adv-x="267" 
d="M64 284q0 29 20 49.5t49 20.5t49.5 -20.5t20.5 -49.5t-20.5 -49t-49.5 -20t-49 20t-20 49z" />
    <glyph glyph-name="radical" unicode="&#x221a;" horiz-adv-x="689" 
d="M561 780l-266 -780h-91l-189 529h108l127 -374l235 713h195v-88h-119z" />
    <glyph glyph-name="infinity" unicode="&#x221e;" horiz-adv-x="813" 
d="M405 289q-46 -51 -88 -78.5t-92 -27.5q-38 0 -70 12.5t-55 35t-36 53.5t-13 67t13 67t36 53.5t55 35.5t70 13q50 0 95.5 -27t87.5 -80q45 53 87.5 80t92.5 27q38 0 70 -13t55 -35.5t36 -53.5t13 -67t-13 -67t-36 -53.5t-55 -35t-70 -12.5q-99 0 -183 106zM227 440
q-43 0 -68 -26t-25 -64t25 -63.5t68 -25.5q37 0 67.5 24.5t61.5 62.5q-32 39 -61.5 65.5t-67.5 26.5zM586 261q43 0 68 25.5t25 63.5t-25 64t-68 26q-38 0 -67 -25.5t-62 -63.5q32 -38 61.5 -64t67.5 -26z" />
    <glyph glyph-name="integral" unicode="&#x222b;" horiz-adv-x="349" 
d="M128 551q0 74 42 116t117 42h37v-86h-30q-33 0 -52.5 -19.5t-19.5 -59.5v-575q0 -74 -40.5 -116.5t-114.5 -42.5h-43v86h31q32 0 52.5 20.5t20.5 60.5v574z" />
    <glyph glyph-name="approxequal" unicode="&#x2248;" horiz-adv-x="626" 
d="M564 445q-28 -40 -65 -61.5t-81 -21.5q-48 0 -100 30l-47 26q-32 17 -62 17q-52 0 -91 -45l-53 47q29 42 65 63.5t78 21.5q26 0 50.5 -8t52.5 -23l46 -25q35 -20 70 -20q49 0 86 44zM564 251q-28 -40 -65 -61.5t-81 -21.5q-48 0 -100 30l-47 26q-32 17 -62 17
q-52 0 -91 -45l-53 47q29 42 65 63.5t78 21.5q26 0 50.5 -8t52.5 -23l46 -25q35 -20 70 -20q49 0 86 44z" />
    <glyph glyph-name="notequal" unicode="&#x2260;" horiz-adv-x="610" 
d="M255 212l-74 -100h-96l74 100h-85v79h143l85 116h-228v77h285l73 99h96l-73 -99h82v-77h-139l-85 -116h224v-79h-282z" />
    <glyph glyph-name="lessequal" unicode="&#x2264;" horiz-adv-x="567" 
d="M485 191v-79h-412v79h412zM73 450l412 146v-84l-307 -104l307 -104v-84l-412 145v85z" />
    <glyph glyph-name="greaterequal" unicode="&#x2265;" horiz-adv-x="567" 
d="M494 191v-79h-412v79h412zM494 365l-412 -145v84l307 104l-307 104v84l412 -146v-85z" />
    <glyph glyph-name="dotmath" unicode="&#x22c5;" horiz-adv-x="267" 
d="M64 284q0 29 20 49.5t49 20.5t49.5 -20.5t20.5 -49.5t-20.5 -49t-49.5 -20t-49 20t-20 49z" />
    <glyph glyph-name="uni24C5" unicode="&#x24c5;" horiz-adv-x="823" 
d="M124 355q0 -63 22 -117.5t61 -94t91 -62.5t112 -23t112 23t91 62.5t61 94t22 117.5t-22 117t-61 94t-91 62.5t-112 22.5t-112 -22.5t-91 -62.5t-61 -94t-22 -117zM46 355q0 76 28.5 143t78 117.5t115.5 79.5t142 29t143 -29t116.5 -79.5t78.5 -117.5t29 -143t-29 -143.5
t-78.5 -117.5t-116.5 -79.5t-143 -29.5t-142 29.5t-115.5 79.5t-78 117.5t-28.5 143.5zM434 367q34 0 53 17t19 45q0 29 -19 46.5t-53 17.5h-70v-126h70zM364 301v-144h-76v402h159q29 0 54 -10t43 -27.5t28.5 -41t10.5 -50.5t-10.5 -50.5t-28.5 -41t-43 -27.5t-54 -10h-83z
" />
    <glyph glyph-name="filledbox" unicode="&#x25a0;" horiz-adv-x="847" 
d="M73 709h701v-709h-701v709z" />
    <glyph glyph-name="H22073" unicode="&#x25a1;" horiz-adv-x="847" 
d="M73 0v709h701v-709h-701zM155 75h537v558h-537v-558z" />
    <glyph glyph-name="uni25AF" unicode="&#x25af;" horiz-adv-x="548" 
d="M73 709h402v-709h-402v709zM396 79v551h-244v-551h244z" />
    <glyph glyph-name="triagup" unicode="&#x25b2;" horiz-adv-x="885" 
d="M861 0h-837l420 724z" />
    <glyph glyph-name="uni25B3" unicode="&#x25b3;" horiz-adv-x="885" 
d="M861 0h-837l420 724zM443 561l-279 -486h556z" />
    <glyph glyph-name="lozenge" unicode="&#x25ca;" horiz-adv-x="548" 
d="M274 112l140 242l-140 243l-141 -243zM233 709h82l202 -355l-202 -354h-82l-202 354z" />
    <glyph glyph-name="circle" unicode="&#x25cb;" horiz-adv-x="835" 
d="M47 354q0 77 29 144.5t79 118t117.5 79.5t144.5 29t144.5 -29t118 -79.5t79.5 -118t29 -144.5t-29 -144.5t-79.5 -117.5t-118 -79t-144.5 -29t-144.5 29t-117.5 79t-79 117.5t-29 144.5zM131 354q0 -61 22 -114t61 -92.5t91 -62t112 -22.5t112 22.5t91 62t61 92.5t22 114
t-22 114t-61 92.5t-91 62t-112 22.5t-112 -22.5t-91 -62t-61 -92.5t-22 -114z" />
    <glyph glyph-name="H18533" unicode="&#x25cf;" horiz-adv-x="835" 
d="M47 354q0 77 29 144.5t79 118t117.5 79.5t144.5 29t144.5 -29t118 -79.5t79.5 -118t29 -144.5t-29 -144.5t-79.5 -117.5t-118 -79t-144.5 -29t-144.5 29t-117.5 79t-79 117.5t-29 144.5z" />
    <glyph glyph-name="uni262E" unicode="&#x262e;" horiz-adv-x="823" 
d="M777 355q0 -76 -29 -143.5t-78.5 -117.5t-116.5 -79.5t-143 -29.5t-142 29.5t-115.5 79.5t-78 117.5t-28.5 143.5t28.5 143t78 117.5t115.5 79.5t142 29t143 -29t116.5 -79.5t78.5 -117.5t29 -143zM696 355q0 57 -19 107.5t-52 89t-78 63.5t-97 33v-240l206 -207
q19 34 29.5 72.5t10.5 81.5zM124 355q0 -42 10 -80.5t29 -71.5l205 205v240q-53 -8 -97.5 -33t-77 -63.5t-51 -89t-18.5 -107.5zM450 61q45 6 84 25.5t71 49.5l-155 156v-231zM213 137q31 -31 70.5 -50.5t84.5 -25.5v231z" />
    <glyph glyph-name="uni2713" unicode="&#x2713;" horiz-adv-x="971" 
d="M310 -17l-282 315l60 57l226 -247l574 621l60 -59z" />
    <glyph glyph-name="uni2715" unicode="&#x2715;" horiz-adv-x="774" 
d="M387 295l-294 -300l-59 59l294 301l-293 300l60 59l292 -299l292 299l60 -59l-294 -300l295 -301l-59 -59z" />
    <glyph glyph-name="uni2780" unicode="&#x2780;" horiz-adv-x="823" 
d="M124 355q0 -63 22 -117.5t61 -94t91 -62.5t112 -23t112 23t91 62.5t61 94t22 117.5t-22 117t-61 94t-91 62.5t-112 22.5t-112 -22.5t-91 -62.5t-61 -94t-22 -117zM46 355q0 76 28.5 143t78 117.5t115.5 79.5t142 29t143 -29t116.5 -79.5t78.5 -117.5t29 -143t-29 -143.5
t-78.5 -117.5t-116.5 -79.5t-143 -29.5t-142 29.5t-115.5 79.5t-78 117.5t-28.5 143.5zM386 173v245h-86v52q37 1 62 20.5t30 47.5h71v-365h-77z" />
    <glyph glyph-name="uni2781" unicode="&#x2781;" horiz-adv-x="823" 
d="M124 355q0 -63 22 -117.5t61 -94t91 -62.5t112 -23t112 23t91 62.5t61 94t22 117.5t-22 117t-61 94t-91 62.5t-112 22.5t-112 -22.5t-91 -62.5t-61 -94t-22 -117zM46 355q0 76 28.5 143t78 117.5t115.5 79.5t142 29t143 -29t116.5 -79.5t78.5 -117.5t29 -143t-29 -143.5
t-78.5 -117.5t-116.5 -79.5t-143 -29.5t-142 29.5t-115.5 79.5t-78 117.5t-28.5 143.5zM277 402q-2 8 -2.5 16.5t-0.5 14.5q0 24 9 45t26 37t41.5 25.5t55.5 9.5t55 -9.5t41 -25t26 -36.5t9 -44q0 -35 -19 -62.5t-51 -47.5l-72 -45q-11 -8 -20 -17t-11 -20h175v-65h-268v13
q0 45 20 81.5t65 63.5l60 37q43 26 43 63q0 20 -14 35t-40 15t-41.5 -16t-15.5 -42q0 -3 0.5 -11t2.5 -15h-74z" />
    <glyph glyph-name="uni2782" unicode="&#x2782;" horiz-adv-x="823" 
d="M46 355q0 76 28.5 143t78 117.5t115.5 79.5t142 29t143 -29t116.5 -79.5t78.5 -117.5t29 -143t-29 -143.5t-78.5 -117.5t-116.5 -79.5t-143 -29.5t-142 29.5t-115.5 79.5t-78 117.5t-28.5 143.5zM124 355q0 -63 22 -117.5t61 -94t91 -62.5t112 -23t112 23t91 62.5t61 94
t22 117.5t-22 117t-61 94t-91 62.5t-112 22.5t-112 -22.5t-91 -62.5t-61 -94t-22 -117zM544 438q0 -29 -18 -51t-47 -30q32 -7 50.5 -30t18.5 -54q0 -46 -37 -77.5t-104 -31.5q-66 0 -105.5 32t-44.5 83l74 13q3 -27 21.5 -44.5t53.5 -17.5q32 0 49 14t17 34q0 21 -16 33
t-45 12h-41v63h39q29 0 43 14t14 31q0 21 -15.5 34t-44.5 13t-46 -15.5t-19 -39.5l-74 11q4 47 42 79t98 32q69 0 103 -31t34 -76z" />
    <glyph glyph-name="uni2783" unicode="&#x2783;" horiz-adv-x="823" 
d="M124 355q0 -63 22 -117.5t61 -94t91 -62.5t112 -23t112 23t91 62.5t61 94t22 117.5t-22 117t-61 94t-91 62.5t-112 22.5t-112 -22.5t-91 -62.5t-61 -94t-22 -117zM46 355q0 76 28.5 143t78 117.5t115.5 79.5t142 29t143 -29t116.5 -79.5t78.5 -117.5t29 -143t-29 -143.5
t-78.5 -117.5t-116.5 -79.5t-143 -29.5t-142 29.5t-115.5 79.5t-78 117.5t-28.5 143.5zM236 323l177 220h85v-228h64v-65h-64v-72h-77v72h-185v73zM421 454l-111 -139h111v139z" />
    <glyph glyph-name="uni2784" unicode="&#x2784;" horiz-adv-x="823" 
d="M124 355q0 -63 22 -117.5t61 -94t91 -62.5t112 -23t112 23t91 62.5t61 94t22 117.5t-22 117t-61 94t-91 62.5t-112 22.5t-112 -22.5t-91 -62.5t-61 -94t-22 -117zM46 355q0 76 28.5 143t78 117.5t115.5 79.5t142 29t143 -29t116.5 -79.5t78.5 -117.5t29 -143t-29 -143.5
t-78.5 -117.5t-116.5 -79.5t-143 -29.5t-142 29.5t-115.5 79.5t-78 117.5t-28.5 143.5zM324 285q7 -26 26.5 -41.5t46.5 -15.5q29 0 48 16t19 45q0 31 -19 46.5t-48 15.5q-20 0 -36 -7.5t-28 -19.5l-64 24l49 187h204v-66h-154l-23 -86q14 15 33.5 21.5t39.5 6.5
q56 0 90 -32t34 -87q0 -27 -9.5 -50.5t-28 -41t-45.5 -27.5t-62 -10q-27 0 -50.5 8t-41.5 20.5t-30 29t-17 34.5z" />
    <glyph glyph-name="uni2785" unicode="&#x2785;" horiz-adv-x="823" 
d="M124 355q0 -63 22 -117.5t61 -94t91 -62.5t112 -23t112 23t91 62.5t61 94t22 117.5t-22 117t-61 94t-91 62.5t-112 22.5t-112 -22.5t-91 -62.5t-61 -94t-22 -117zM46 355q0 76 28.5 143t78 117.5t115.5 79.5t142 29t143 -29t116.5 -79.5t78.5 -117.5t29 -143t-29 -143.5
t-78.5 -117.5t-116.5 -79.5t-143 -29.5t-142 29.5t-115.5 79.5t-78 117.5t-28.5 143.5zM415 479q-42 0 -62.5 -33.5t-21.5 -81.5q10 20 33.5 33.5t58.5 13.5q26 0 49 -8t40.5 -23t28 -37.5t10.5 -50.5q0 -29 -11 -52t-30.5 -39.5t-45 -25.5t-55.5 -9q-34 0 -62.5 13
t-49.5 37t-32.5 59t-11.5 80t12 80.5t33.5 60t51 37.5t64.5 13q54 0 91.5 -27t43.5 -72l-74 -11q-4 18 -18 30.5t-42 12.5zM408 230q26 0 45 16.5t19 45.5q0 28 -18.5 44.5t-44.5 16.5t-46 -16t-20 -45t19 -45.5t46 -16.5z" />
    <glyph glyph-name="uni2786" unicode="&#x2786;" horiz-adv-x="823" 
d="M124 355q0 -63 22 -117.5t61 -94t91 -62.5t112 -23t112 23t91 62.5t61 94t22 117.5t-22 117t-61 94t-91 62.5t-112 22.5t-112 -22.5t-91 -62.5t-61 -94t-22 -117zM46 355q0 76 28.5 143t78 117.5t115.5 79.5t142 29t143 -29t116.5 -79.5t78.5 -117.5t29 -143t-29 -143.5
t-78.5 -117.5t-116.5 -79.5t-143 -29.5t-142 29.5t-115.5 79.5t-78 117.5t-28.5 143.5zM560 464q-13 -9 -36 -30t-47 -56.5t-44 -87t-27 -122.5h-82q7 75 29 130.5t46 93.5q28 44 61 75h-197v66h297v-69z" />
    <glyph glyph-name="uni2787" unicode="&#x2787;" horiz-adv-x="823" 
d="M124 355q0 -63 22 -117.5t61 -94t91 -62.5t112 -23t112 23t91 62.5t61 94t22 117.5t-22 117t-61 94t-91 62.5t-112 22.5t-112 -22.5t-91 -62.5t-61 -94t-22 -117zM46 355q0 76 28.5 143t78 117.5t115.5 79.5t142 29t143 -29t116.5 -79.5t78.5 -117.5t29 -143t-29 -143.5
t-78.5 -117.5t-116.5 -79.5t-143 -29.5t-142 29.5t-115.5 79.5t-78 117.5t-28.5 143.5zM409 390q26 0 41.5 13t15.5 35q0 20 -15 32.5t-42 12.5t-42 -12.5t-15 -32.5q0 -22 15.5 -35t41.5 -13zM409 230q33 0 50 13.5t17 36.5q0 22 -17.5 36t-49.5 14t-49.5 -14t-17.5 -36
q0 -23 17 -36.5t50 -13.5zM409 166q-70 0 -107.5 31t-37.5 77q0 27 18 50.5t50 35.5q-27 11 -41.5 33t-14.5 47q0 47 37.5 76t95.5 29t95.5 -29t37.5 -76q0 -25 -14.5 -47t-41.5 -33q32 -12 50 -35.5t18 -50.5q0 -46 -37.5 -77t-107.5 -31z" />
    <glyph glyph-name="uni2788" unicode="&#x2788;" horiz-adv-x="823" 
d="M124 355q0 -63 22 -117.5t61 -94t91 -62.5t112 -23t112 23t91 62.5t61 94t22 117.5t-22 117t-61 94t-91 62.5t-112 22.5t-112 -22.5t-91 -62.5t-61 -94t-22 -117zM46 355q0 76 28.5 143t78 117.5t115.5 79.5t142 29t143 -29t116.5 -79.5t78.5 -117.5t29 -143t-29 -143.5
t-78.5 -117.5t-116.5 -79.5t-143 -29.5t-142 29.5t-115.5 79.5t-78 117.5t-28.5 143.5zM410 228q44 0 62.5 29.5t18.5 86.5q-8 -20 -31.5 -34.5t-55.5 -14.5q-26 0 -49.5 7.5t-41.5 23t-29 38t-11 52.5q0 29 11 52.5t30 40.5t45 26t55 9q33 0 61 -11t49 -34t32.5 -58.5
t11.5 -83.5q0 -94 -42 -144t-115 -50q-53 0 -92 27t-46 72l72 12q4 -21 21.5 -33.5t43.5 -12.5zM415 355q25 0 43.5 16.5t18.5 46.5t-18 45.5t-44 15.5q-25 0 -44 -16.5t-19 -45.5q0 -31 19 -46.5t44 -15.5z" />
    <glyph glyph-name="uniE000" unicode="&#xe000;" horiz-adv-x="781" 
d="M27 205h144v504h580v-83h-497v-421h144l-185 -221z" />
    <glyph glyph-name="uniE002" unicode="&#xe002;" horiz-adv-x="950" 
d="M746 564l179 -210h-130q0 -77 -29 -144t-79 -117t-117.5 -79t-144.5 -29t-144 29t-117 79t-79 117t-29 144t29 144.5t79 117.5t117 79t144 29q50 0 95.5 -12t86.5 -35l-37 -74q-32 18 -68.5 28t-75.5 10q-60 0 -112 -22.5t-91 -61t-61 -91t-22 -112.5t22 -112.5t61 -91.5
t91 -61.5t112 -22.5t112 22.5t90.5 61.5t60.5 91.5t22 112.5h-144z" />
    <glyph glyph-name="commaaccent" unicode="&#xf6c3;" horiz-adv-x="194" 
d="M35 659q0 24 18 38t41 14q11 0 22.5 -4t21 -12.5t15.5 -22.5t6 -34q0 -29 -10 -50t-26.5 -35t-37 -20.5t-40.5 -6.5v40q26 0 44.5 15t20.5 33q-1 -1 -6 -3.5t-15 -2.5q-23 0 -38.5 12.5t-15.5 38.5z" />
    <glyph glyph-name="uniFB00" unicode="&#xfb00;" horiz-adv-x="665" 
d="M603 639q-12 0 -25.5 -3.5t-25 -12.5t-18.5 -25t-7 -41v-76h116v-85h-116v-396h-97v396h-219v-396h-97v396h-89v85h89v81q0 40 12.5 71t34 52t50 31.5t61.5 10.5q24 0 38.5 -4t17.5 -6v-84q-4 2 -13.5 4t-27.5 2q-12 0 -25.5 -3.5t-25 -12.5t-18.5 -25t-7 -41v-76h219v81
q0 40 12.5 71t34 52t50 31.5t61.5 10.5q24 0 38.5 -4t17.5 -6v-84q-4 2 -13.5 4t-27.5 2z" />
    <glyph glyph-name="fi" unicode="&#xfb01;" horiz-adv-x="605" 
d="M272 727q24 0 38.5 -4t17.5 -6v-84q-4 2 -13.5 4t-27.5 2q-12 0 -25.5 -3.5t-25 -12.5t-18.5 -24.5t-7 -40.5v-77h318v-481h-93v396h-225v-396h-97v396h-89v85h89v81q0 40 12.5 71t34 52t50 31.5t61.5 10.5zM415 665q0 29 19.5 48.5t47.5 19.5q29 0 48.5 -19.5
t19.5 -48.5q0 -28 -19.5 -47.5t-48.5 -19.5q-28 0 -47.5 19.5t-19.5 47.5z" />
    <glyph glyph-name="fl" unicode="&#xfb02;" horiz-adv-x="603" 
d="M287 639q-12 0 -25.5 -3.5t-25 -12.5t-18.5 -25t-7 -41v-76h222v243h94v-724h-94v396h-222v-396h-97v396h-89v85h89v81q0 40 12.5 71t34 52t50 31.5t61.5 10.5q24 0 38.5 -4t17.5 -6v-84q-4 2 -13.5 4t-27.5 2z" />
    <glyph glyph-name="uniFB03" unicode="&#xfb03;" horiz-adv-x="921" 
d="M114 562q0 40 12.5 71t34 52t50 31.5t61.5 10.5q24 0 38.5 -4t17.5 -6v-84q-4 2 -13.5 4t-27.5 2q-12 0 -25.5 -3.5t-25 -12.5t-18.5 -25t-7 -41v-76h219v81q0 40 12.5 71t34 52t50 31.5t61.5 10.5q24 0 38.5 -4t17.5 -6v-84q-4 2 -13.5 4t-27.5 2q-12 0 -25.5 -3.5
t-25 -12.5t-18.5 -25t-7 -41v-76h318v-481h-93v396h-225v-396h-97v396h-219v-396h-97v396h-89v85h89v81zM731 665q0 29 19.5 48.5t47.5 19.5q29 0 48.5 -19.5t19.5 -48.5q0 -28 -19.5 -47.5t-48.5 -19.5q-28 0 -47.5 19.5t-19.5 47.5z" />
    <glyph glyph-name="uniFB04" unicode="&#xfb04;" horiz-adv-x="921" 
d="M114 562q0 40 12.5 71t34 52t50 31.5t61.5 10.5q24 0 38.5 -4t17.5 -6v-84q-4 2 -13.5 4t-27.5 2q-12 0 -25.5 -3.5t-25 -12.5t-18.5 -25t-7 -41v-76h219v81q0 40 12.5 71t34 52t50 31.5t61.5 10.5q24 0 38.5 -4t17.5 -6v-84q-4 2 -13.5 4t-27.5 2q-12 0 -25.5 -3.5
t-25 -12.5t-18.5 -25t-7 -41v-76h225v243h93v-724h-93v396h-225v-396h-97v396h-219v-396h-97v396h-89v85h89v81z" />
    <glyph glyph-name="uniFEFF" unicode="&#xfeff;" horiz-adv-x="0" 
 />
    <glyph glyph-name="bullet.ss10" horiz-adv-x="572" 
d="M65 75v425l442 -213z" />
    <glyph glyph-name="i.latn_TRK" horiz-adv-x="245" 
d="M76 0v481h93v-481h-93zM55 663q0 29 19.5 48.5t47.5 19.5q29 0 48.5 -19.5t19.5 -48.5q0 -28 -19.5 -47.5t-48.5 -19.5q-28 0 -47.5 19.5t-19.5 47.5z" />
    <glyph glyph-name="Ldot.latn_CAT" horiz-adv-x="553" 
d="M95 0v709h98v-617h335v-92h-433zM296 373q0 26 18.5 45t44.5 19t45 -19t19 -45t-19 -44.5t-45 -18.5t-44.5 18.5t-18.5 44.5z" />
    <glyph glyph-name="ldot.latn_CAT" horiz-adv-x="347" 
d="M76 0v724h94v-724h-94zM229 313q0 26 18 44t44 18t44 -18t18 -44t-18 -44t-44 -18t-44 18t-18 44z" />
    <glyph glyph-name="zero.dnom" horiz-adv-x="386" 
d="M117 182q0 -20 2.5 -42t10.5 -40t22.5 -29.5t39.5 -11.5t39.5 11.5t22.5 29.5t10.5 40t2.5 42t-2.5 42t-10.5 40t-22.5 30t-39.5 12t-39.5 -11.5t-22.5 -29.5t-10.5 -40t-2.5 -43zM39 182q0 36 7.5 70.5t27.5 61.5q17 23 44.5 40.5t73.5 17.5t73.5 -17.5t44.5 -40.5
q20 -27 27.5 -61.5t7.5 -70.5t-7.5 -70t-27.5 -61q-17 -23 -44.5 -40.5t-73.5 -17.5t-73.5 17.5t-44.5 40.5q-20 27 -27.5 61t-7.5 70z" />
    <glyph glyph-name="one.dnom" horiz-adv-x="241" 
d="M112 0v245h-86v52q37 1 62 20.5t30 47.5h71v-365h-77z" />
    <glyph glyph-name="two.dnom" horiz-adv-x="348" 
d="M44 224q-2 8 -2.5 16.5t-0.5 14.5q0 24 9 45t26 37t41.5 25.5t55.5 9.5t55 -9.5t41 -25t26 -36.5t9 -44q0 -35 -19 -62.5t-51 -47.5l-72 -45q-11 -8 -20 -17t-11 -20h175v-65h-268v13q0 45 20 81.5t65 63.5l60 37q43 26 43 63q0 20 -14 35t-40 15t-41.5 -16t-15.5 -42
q0 -3 0.5 -11t2.5 -15h-74z" />
    <glyph glyph-name="three.dnom" horiz-adv-x="365" 
d="M315 266q0 -29 -18 -51t-47 -30q32 -7 50.5 -30t18.5 -54q0 -46 -37 -77.5t-104 -31.5q-66 0 -105.5 32t-44.5 83l74 13q3 -27 21.5 -44.5t53.5 -17.5q32 0 49 14t17 34q0 21 -16 33t-45 12h-41v63h39q29 0 43 14t14 31q0 21 -15.5 34t-44.5 13t-46 -15.5t-19 -39.5
l-74 11q4 47 42 79t98 32q69 0 103 -31t34 -76z" />
    <glyph glyph-name="four.dnom" horiz-adv-x="385" 
d="M28 145l177 220h85v-228h64v-65h-64v-72h-77v72h-185v73zM213 276l-111 -139h111v139z" />
    <glyph glyph-name="five.dnom" horiz-adv-x="349" 
d="M94 115q7 -26 26.5 -41.5t46.5 -15.5q29 0 48 16t19 45q0 31 -19 46.5t-48 15.5q-20 0 -36 -7.5t-28 -19.5l-64 24l49 187h204v-66h-154l-23 -86q14 15 33.5 21.5t39.5 6.5q56 0 90 -32t34 -87q0 -27 -9.5 -50.5t-28 -41t-45.5 -27.5t-62 -10q-27 0 -50.5 8t-41.5 20.5
t-30 29t-17 34.5z" />
    <glyph glyph-name="six.dnom" horiz-adv-x="371" 
d="M198 306q-42 0 -62.5 -33.5t-21.5 -81.5q10 20 33.5 33.5t58.5 13.5q26 0 49 -8t40.5 -23t28 -37.5t10.5 -50.5q0 -29 -11 -52t-30.5 -39.5t-45 -25.5t-55.5 -9q-34 0 -62.5 13t-49.5 37t-32.5 59t-11.5 80t12 80.5t33.5 60t51 37.5t64.5 13q54 0 91.5 -27t43.5 -72
l-74 -11q-4 18 -18 30.5t-42 12.5zM191 57q26 0 45 16.5t19 45.5q0 28 -18.5 44.5t-44.5 16.5t-46 -16t-20 -45t19 -45.5t46 -16.5z" />
    <glyph glyph-name="seven.dnom" horiz-adv-x="345" 
d="M316 292q-15 -11 -37.5 -32.5t-45 -56.5t-41 -85.5t-24.5 -117.5h-82q7 75 29 130.5t46 93.5q28 44 61 75h-197v66h291v-73z" />
    <glyph glyph-name="eight.dnom" horiz-adv-x="366" 
d="M184 217q29 0 46 13t17 35q0 20 -17 33t-46 13t-46 -13t-17 -33q0 -22 17 -35t46 -13zM184 57q33 0 52 13.5t19 36.5q0 22 -19.5 36t-51.5 14t-51.5 -14t-19.5 -36q0 -23 19 -36.5t52 -13.5zM184 -7q-72 0 -110.5 31.5t-38.5 76.5q0 27 18.5 51.5t52.5 34.5
q-30 11 -45.5 33t-15.5 47q0 47 39 76t100 29t100 -29t39 -76q0 -25 -15.5 -47t-45.5 -33q34 -10 52.5 -34.5t18.5 -51.5q0 -45 -38.5 -76.5t-110.5 -31.5z" />
    <glyph glyph-name="nine.dnom" horiz-adv-x="369" 
d="M172 55q44 0 62.5 29.5t18.5 86.5q-8 -20 -31.5 -34.5t-55.5 -14.5q-26 0 -49.5 7.5t-41.5 23t-29 38t-11 52.5q0 29 11 52.5t30 40.5t45 26t55 9q33 0 61 -11t49 -34t32.5 -58.5t11.5 -83.5q0 -94 -42 -144t-115 -50q-53 0 -92 27t-46 72l72 12q4 -21 21.5 -33.5
t43.5 -12.5zM177 182q25 0 43.5 16.5t18.5 46.5t-18 45.5t-44 15.5q-25 0 -44 -16.5t-19 -45.5q0 -31 19 -46.5t44 -15.5z" />
    <glyph glyph-name="space.frac" horiz-adv-x="50" 
 />
    <glyph glyph-name="comma.tf" 
d="M203 74q0 31 24 54t60 23q38 0 66 -27.5t28 -82.5q0 -57 -16.5 -97.5t-42 -67.5t-55.5 -41.5t-57 -17.5v60q21 5 38.5 17t30.5 29t20 37t7 41q-3 -2 -9.5 -4t-15.5 -2q-32 0 -55 20.5t-23 58.5z" />
    <glyph glyph-name="period.tf" 
d="M211 74q0 33 23 56.5t57 23.5t57 -23.5t23 -56.5q0 -34 -23 -57t-57 -23t-57 23t-23 57z" />
    <glyph glyph-name="colon.tf" 
d="M215 412q0 32 22 54.5t54 22.5t54.5 -22.5t22.5 -54.5t-22.5 -54t-54.5 -22t-54 22t-22 54zM215 65q0 32 22 54.5t54 22.5t54.5 -22.5t22.5 -54.5t-22.5 -54t-54.5 -22t-54 22t-22 54z" />
    <glyph glyph-name="semicolon.tf" 
d="M213 412q0 32 22 54.5t54 22.5t54.5 -22.5t22.5 -54.5t-22.5 -54t-54.5 -22t-54 22t-22 54zM211 70q0 29 22 50t56 21t59.5 -25t25.5 -76q0 -53 -15 -90.5t-38.5 -62t-51 -38t-51.5 -16.5v56q19 4 35 15t27.5 27t18 34.5t7.5 37.5q-3 -2 -9 -3.5t-15 -1.5q-29 0 -50 18.5
t-21 53.5z" />
    <glyph glyph-name="section.tf" 
d="M487 244q0 -23 -8 -42.5t-20 -35.5t-26.5 -27.5t-28.5 -17.5q41 -26 64 -64t23 -80q0 -41 -16.5 -74.5t-44.5 -57t-65 -36.5t-77 -13q-95 0 -143.5 51t-50.5 132l88 18q0 -54 26.5 -88.5t81.5 -34.5q47 0 76 24t29 69q0 28 -16 50t-42 36l-103 54q-27 14 -52 29.5t-44 35
t-30 44.5t-11 58q0 23 8 43.5t20 36.5t27 27.5t29 16.5q-42 26 -65 64.5t-23 80.5q0 41 16.5 74.5t44.5 57t64.5 36.5t76.5 13q48 0 84 -14.5t61 -39t37.5 -58t12.5 -71.5l-89 -18q0 55 -26.5 88.5t-81.5 33.5q-47 0 -76 -25.5t-29 -67.5q0 -54 59 -85l102 -54
q27 -15 52 -30.5t44 -35.5t30.5 -45t11.5 -58zM234 370q-17 -8 -32 -30t-15 -49q0 -29 14.5 -49t48.5 -38l99 -54q16 8 31.5 29.5t15.5 49.5t-15 48.5t-48 38.5z" />
    <glyph glyph-name="florin.tf" 
d="M235 398h-110v83h127l23 113q7 38 23.5 65.5t39 45t49 26t53.5 8.5q29 0 44.5 -2.5t29.5 -7.5v-83q-11 3 -24 5t-29 2q-13 0 -27.5 -2.5t-27.5 -12t-24 -28t-17 -49.5l-16 -80h129v-83h-146l-82 -411q-8 -38 -24 -65.5t-38.5 -45t-49 -26t-53.5 -8.5q-31 0 -47 2.5
t-30 7.5v83q11 -3 24.5 -5t31.5 -2q13 0 27.5 3t27.5 12.5t24 27.5t17 49z" />
    <glyph glyph-name="uni2007.tf" 
 />
    <glyph glyph-name="uni2008.tf" 
 />
    <glyph glyph-name="parenleft.case" horiz-adv-x="322" 
d="M50 352q0 73 15 137t40.5 119t59.5 101.5t72 84.5l55 -49q-38 -42 -68 -85.5t-50.5 -91.5t-31.5 -101.5t-11 -114.5q0 -62 11 -115t31.5 -101t50.5 -91.5t68 -85.5l-55 -49q-38 38 -72 84.5t-59.5 101.5t-40.5 118.5t-15 137.5z" />
    <glyph glyph-name="parenright.case" horiz-adv-x="322" 
d="M272 352q0 -74 -15 -137.5t-40.5 -118.5t-59.5 -101.5t-72 -84.5l-55 49q38 42 68 85.5t50.5 91.5t31.5 101t11 115q0 61 -11 114.5t-31.5 101.5t-50.5 91.5t-68 85.5l55 49q38 -38 72 -84.5t59.5 -101.5t40.5 -119t15 -137z" />
    <glyph glyph-name="hyphen.case" horiz-adv-x="409" 
d="M69 296v82h271v-82h-271z" />
    <glyph glyph-name="bracketleft.case" horiz-adv-x="310" 
d="M76 -90v890h193v-76h-111v-739h111v-75h-193z" />
    <glyph glyph-name="bracketright.case" horiz-adv-x="310" 
d="M41 -90v75h111v739h-111v76h193v-890h-193z" />
    <glyph glyph-name="braceleft.case" horiz-adv-x="367" 
d="M24 397q22 0 42 5.5t35 17.5t24 31t9 47v116q0 94 46 140t134 46h13v-75h-13q-56 0 -77 -25t-21 -80v-143q0 -51 -28 -82.5t-76 -40.5q48 -9 76 -40.5t28 -82.5v-141q0 -55 21 -80t77 -25h13v-75h-13q-88 0 -134 46t-46 140v114q0 28 -9 47t-24 31t-35 17.5t-42 5.5v86z
" />
    <glyph glyph-name="braceright.case" horiz-adv-x="367" 
d="M343 311q-22 0 -42 -5.5t-35 -17.5t-24 -31t-9 -47v-114q0 -94 -46 -140t-134 -46h-13v75h13q56 0 77 25t21 80v141q0 51 28 82.5t76 40.5q-48 9 -76 40.5t-28 82.5v143q0 55 -21 80t-77 25h-13v75h13q88 0 134 -46t46 -140v-116q0 -28 9 -47t24 -31t35 -17.5t42 -5.5
v-86z" />
    <glyph glyph-name="exclamdown.case" horiz-adv-x="262" 
d="M190 0h-118l26 505h67zM66 647q0 27 19 46.5t46 19.5t46.5 -19.5t19.5 -46.5t-19.5 -46t-46.5 -19t-46 19t-19 46z" />
    <glyph glyph-name="guillemotleft.case" horiz-adv-x="526" 
d="M182 149l-133 191l133 191h93l-131 -191l131 -191h-93zM377 149l-133 191l133 191h93l-131 -191l131 -191h-93z" />
    <glyph glyph-name="uni00AD.case" horiz-adv-x="421" 
d="M75 313v82h271v-82h-271z" />
    <glyph glyph-name="guillemotright.case" horiz-adv-x="526" 
d="M251 149l131 191l-131 191h93l133 -191l-133 -191h-93zM56 149l131 191l-131 191h93l133 -191l-133 -191h-93z" />
    <glyph glyph-name="questiondown.case" horiz-adv-x="510" 
d="M314 508q1 -9 1 -17v-18q0 -50 -19 -88t-64 -68l-44 -30q-26 -17 -39.5 -43t-13.5 -55q0 -22 7.5 -42.5t22 -36.5t37 -25.5t52.5 -9.5q33 0 56.5 11t38.5 29t22.5 41t7.5 47q0 13 -2 27t-5 22l97 -12q6 -21 6 -48q0 -35 -13 -71t-40 -66t-68.5 -49t-99.5 -19
q-53 0 -93.5 17t-68.5 45t-42.5 64.5t-14.5 74.5q0 60 29 102.5t73 71.5l46 31q23 16 33.5 41.5t10.5 54.5v9.5t-1 9.5h88zM335 650q0 -27 -19 -46.5t-46 -19.5t-46.5 19.5t-19.5 46.5t19.5 46t46.5 19t46 -19t19 -46z" />
    <glyph glyph-name="endash.case" horiz-adv-x="650" 
d="M69 296v82h512v-82h-512z" />
    <glyph glyph-name="emdash.case" horiz-adv-x="1091" 
d="M69 296v82h953v-82h-953z" />
    <glyph glyph-name="guilsinglleft.case" horiz-adv-x="331" 
d="M182 149l-133 191l133 191h93l-131 -191l131 -191h-93z" />
    <glyph glyph-name="guilsinglright.case" horiz-adv-x="331" 
d="M56 149l131 191l-131 191h93l133 -191l-133 -191h-93z" />
    <glyph glyph-name="G.ss01" horiz-adv-x="773" 
d="M404 -15q-67 0 -131 24.5t-114 71.5t-80.5 116t-30.5 158t30.5 157.5t80.5 115.5t114 71.5t131 24.5q59 0 110.5 -16t92.5 -45t69.5 -71t42.5 -93l-91 -31q-23 82 -80.5 124t-143.5 42q-50 0 -96 -17t-81.5 -52t-57 -87.5t-21.5 -122.5q0 -71 21.5 -123.5t57 -87.5
t81.5 -52.5t96 -17.5q49 0 89 14t68.5 38t46 56.5t22.5 68.5h-286v88h385q1 -6 1 -12.5v-12.5q0 -68 -20.5 -127.5t-61.5 -104.5t-102 -71t-142 -26z" />
    <glyph glyph-name="Gcircumflex.ss01" horiz-adv-x="773" 
d="M404 -15q-67 0 -131 24.5t-114 71.5t-80.5 116t-30.5 158t30.5 157.5t80.5 115.5t114 71.5t131 24.5q59 0 110.5 -16t92.5 -45t69.5 -71t42.5 -93l-91 -31q-23 82 -80.5 124t-143.5 42q-50 0 -96 -17t-81.5 -52t-57 -87.5t-21.5 -122.5q0 -71 21.5 -123.5t57 -87.5
t81.5 -52.5t96 -17.5q49 0 89 14t68.5 38t46 56.5t22.5 68.5h-286v88h385q1 -6 1 -12.5v-12.5q0 -68 -20.5 -127.5t-61.5 -104.5t-102 -71t-142 -26zM230 759l112 119h120l117 -119h-92l-85 64l-81 -64h-91z" />
    <glyph glyph-name="Gbreve.ss01" horiz-adv-x="773" 
d="M404 -15q-67 0 -131 24.5t-114 71.5t-80.5 116t-30.5 158t30.5 157.5t80.5 115.5t114 71.5t131 24.5q59 0 110.5 -16t92.5 -45t69.5 -71t42.5 -93l-91 -31q-23 82 -80.5 124t-143.5 42q-50 0 -96 -17t-81.5 -52t-57 -87.5t-21.5 -122.5q0 -71 21.5 -123.5t57 -87.5
t81.5 -52.5t96 -17.5q49 0 89 14t68.5 38t46 56.5t22.5 68.5h-286v88h385q1 -6 1 -12.5v-12.5q0 -68 -20.5 -127.5t-61.5 -104.5t-102 -71t-142 -26zM400 754q-38 0 -66.5 11t-48 29.5t-30.5 41.5t-12 47h81q1 -9 5 -18.5t13 -18t23.5 -14t34.5 -5.5t34 5.5t23 14t13 18
t5 18.5h81q-2 -24 -12 -47t-29.5 -41.5t-48 -29.5t-66.5 -11z" />
    <glyph glyph-name="Gdotaccent.ss01" horiz-adv-x="773" 
d="M404 -15q-67 0 -131 24.5t-114 71.5t-80.5 116t-30.5 158t30.5 157.5t80.5 115.5t114 71.5t131 24.5q59 0 110.5 -16t92.5 -45t69.5 -71t42.5 -93l-91 -31q-23 82 -80.5 124t-143.5 42q-50 0 -96 -17t-81.5 -52t-57 -87.5t-21.5 -122.5q0 -71 21.5 -123.5t57 -87.5
t81.5 -52.5t96 -17.5q49 0 89 14t68.5 38t46 56.5t22.5 68.5h-286v88h385q1 -6 1 -12.5v-12.5q0 -68 -20.5 -127.5t-61.5 -104.5t-102 -71t-142 -26zM336 818q0 26 18.5 45t44.5 19t45 -19t19 -45t-19 -44.5t-45 -18.5t-44.5 18.5t-18.5 44.5z" />
    <glyph glyph-name="Gcommaaccent.ss01" horiz-adv-x="773" 
d="M404 -15q-67 0 -131 24.5t-114 71.5t-80.5 116t-30.5 158t30.5 157.5t80.5 115.5t114 71.5t131 24.5q59 0 110.5 -16t92.5 -45t69.5 -71t42.5 -93l-91 -31q-23 82 -80.5 124t-143.5 42q-50 0 -96 -17t-81.5 -52t-57 -87.5t-21.5 -122.5q0 -71 21.5 -123.5t57 -87.5
t81.5 -52.5t96 -17.5q49 0 89 14t68.5 38t46 56.5t22.5 68.5h-286v88h385q1 -6 1 -12.5v-12.5q0 -68 -20.5 -127.5t-61.5 -104.5t-102 -71t-142 -26zM348 -88q0 23 18 37.5t41 14.5q22 0 43.5 -16.5t21.5 -56.5q0 -29 -10 -50t-26.5 -35t-37 -20.5t-40.5 -6.5v40
q26 0 44.5 15t20.5 33q-2 -2 -8 -4t-13 -2q-23 0 -38.5 12.5t-15.5 38.5z" />
    <glyph glyph-name="a.ss02" horiz-adv-x="590" 
d="M141 244q0 -37 9.5 -69t27.5 -55t44 -36.5t60 -13.5q32 0 58 13.5t44 36.5t27.5 55t9.5 69q0 75 -36.5 121t-101.5 46t-103.5 -46t-38.5 -121zM422 73q-17 -35 -54.5 -60.5t-94.5 -25.5q-53 0 -95 20t-71.5 55t-45.5 81.5t-16 100.5q0 51 16.5 96.5t46.5 79.5t72 54
t93 20q32 0 56.5 -7t42.5 -18.5t30 -26t18 -29.5v68h93v-392q0 -32 2 -57t3 -32h-91q-2 8 -3.5 25.5t-1.5 39.5v8z" />
    <glyph glyph-name="agrave.ss02" horiz-adv-x="590" 
d="M141 244q0 -37 9.5 -69t27.5 -55t44 -36.5t60 -13.5q32 0 58 13.5t44 36.5t27.5 55t9.5 69q0 75 -36.5 121t-101.5 46t-103.5 -46t-38.5 -121zM422 73q-17 -35 -54.5 -60.5t-94.5 -25.5q-53 0 -95 20t-71.5 55t-45.5 81.5t-16 100.5q0 51 16.5 96.5t46.5 79.5t72 54
t93 20q32 0 56.5 -7t42.5 -18.5t30 -26t18 -29.5v68h93v-392q0 -32 2 -57t3 -32h-91q-2 8 -3.5 25.5t-1.5 39.5v8zM117 689h118l86 -146h-78z" />
    <glyph glyph-name="aacute.ss02" horiz-adv-x="590" 
d="M141 244q0 -37 9.5 -69t27.5 -55t44 -36.5t60 -13.5q32 0 58 13.5t44 36.5t27.5 55t9.5 69q0 75 -36.5 121t-101.5 46t-103.5 -46t-38.5 -121zM422 73q-17 -35 -54.5 -60.5t-94.5 -25.5q-53 0 -95 20t-71.5 55t-45.5 81.5t-16 100.5q0 51 16.5 96.5t46.5 79.5t72 54
t93 20q32 0 56.5 -7t42.5 -18.5t30 -26t18 -29.5v68h93v-392q0 -32 2 -57t3 -32h-91q-2 8 -3.5 25.5t-1.5 39.5v8zM297 543h-79l87 146h118z" />
    <glyph glyph-name="acircumflex.ss02" horiz-adv-x="590" 
d="M141 244q0 -37 9.5 -69t27.5 -55t44 -36.5t60 -13.5q32 0 58 13.5t44 36.5t27.5 55t9.5 69q0 75 -36.5 121t-101.5 46t-103.5 -46t-38.5 -121zM422 73q-17 -35 -54.5 -60.5t-94.5 -25.5q-53 0 -95 20t-71.5 55t-45.5 81.5t-16 100.5q0 51 16.5 96.5t46.5 79.5t72 54
t93 20q32 0 56.5 -7t42.5 -18.5t30 -26t18 -29.5v68h93v-392q0 -32 2 -57t3 -32h-91q-2 8 -3.5 25.5t-1.5 39.5v8zM132 545l104 139h107l104 -139h-88l-70 81l-70 -81h-87z" />
    <glyph glyph-name="atilde.ss02" horiz-adv-x="590" 
d="M141 244q0 -37 9.5 -69t27.5 -55t44 -36.5t60 -13.5q32 0 58 13.5t44 36.5t27.5 55t9.5 69q0 75 -36.5 121t-101.5 46t-103.5 -46t-38.5 -121zM422 73q-17 -35 -54.5 -60.5t-94.5 -25.5q-53 0 -95 20t-71.5 55t-45.5 81.5t-16 100.5q0 51 16.5 96.5t46.5 79.5t72 54
t93 20q32 0 56.5 -7t42.5 -18.5t30 -26t18 -29.5v68h93v-392q0 -32 2 -57t3 -32h-91q-2 8 -3.5 25.5t-1.5 39.5v8zM441 662q0 -56 -27.5 -82.5t-69.5 -26.5q-20 0 -36 6.5t-30 15.5l-14 9q-10 6 -18.5 10t-18.5 4q-14 0 -21.5 -9t-7.5 -34h-72v15q0 56 28 82.5t70 26.5
q20 0 36.5 -6.5t30.5 -15.5l14 -9q10 -6 18 -10t18 -4q15 0 22 9.5t7 33.5h71v-15z" />
    <glyph glyph-name="adieresis.ss02" horiz-adv-x="590" 
d="M141 244q0 -37 9.5 -69t27.5 -55t44 -36.5t60 -13.5q32 0 58 13.5t44 36.5t27.5 55t9.5 69q0 75 -36.5 121t-101.5 46t-103.5 -46t-38.5 -121zM422 73q-17 -35 -54.5 -60.5t-94.5 -25.5q-53 0 -95 20t-71.5 55t-45.5 81.5t-16 100.5q0 51 16.5 96.5t46.5 79.5t72 54
t93 20q32 0 56.5 -7t42.5 -18.5t30 -26t18 -29.5v68h93v-392q0 -32 2 -57t3 -32h-91q-2 8 -3.5 25.5t-1.5 39.5v8zM135 621q0 24 16.5 41t40.5 17q25 0 42 -17t17 -41q0 -25 -17 -41.5t-42 -16.5q-24 0 -40.5 16.5t-16.5 41.5zM322 621q0 24 16.5 41t41.5 17q24 0 41 -17
t17 -41q0 -25 -17 -41.5t-41 -16.5q-25 0 -41.5 16.5t-16.5 41.5z" />
    <glyph glyph-name="aring.ss02" horiz-adv-x="590" 
d="M141 244q0 -37 9.5 -69t27.5 -55t44 -36.5t60 -13.5q32 0 58 13.5t44 36.5t27.5 55t9.5 69q0 75 -36.5 121t-101.5 46t-103.5 -46t-38.5 -121zM422 73q-17 -35 -54.5 -60.5t-94.5 -25.5q-53 0 -95 20t-71.5 55t-45.5 81.5t-16 100.5q0 51 16.5 96.5t46.5 79.5t72 54
t93 20q32 0 56.5 -7t42.5 -18.5t30 -26t18 -29.5v68h93v-392q0 -32 2 -57t3 -32h-91q-2 8 -3.5 25.5t-1.5 39.5v8zM391 641q0 -23 -9 -43t-24 -34.5t-35.5 -23t-43.5 -8.5q-22 0 -42 8.5t-35.5 23t-24.5 34.5t-9 43t9 43t24.5 35t35.5 23.5t42 8.5q23 0 43.5 -8.5
t35.5 -23.5t24 -35t9 -43zM327 641q0 20 -14 34.5t-35 14.5q-20 0 -33.5 -14.5t-13.5 -34.5t13.5 -34t33.5 -14q21 0 35 14t14 34z" />
    <glyph glyph-name="amacron.ss02" horiz-adv-x="590" 
d="M141 244q0 -37 9.5 -69t27.5 -55t44 -36.5t60 -13.5q32 0 58 13.5t44 36.5t27.5 55t9.5 69q0 75 -36.5 121t-101.5 46t-103.5 -46t-38.5 -121zM422 73q-17 -35 -54.5 -60.5t-94.5 -25.5q-53 0 -95 20t-71.5 55t-45.5 81.5t-16 100.5q0 51 16.5 96.5t46.5 79.5t72 54
t93 20q32 0 56.5 -7t42.5 -18.5t30 -26t18 -29.5v68h93v-392q0 -32 2 -57t3 -32h-91q-2 8 -3.5 25.5t-1.5 39.5v8zM136 577v81h273v-81h-273z" />
    <glyph glyph-name="abreve.ss02" horiz-adv-x="590" 
d="M141 244q0 -37 9.5 -69t27.5 -55t44 -36.5t60 -13.5q32 0 58 13.5t44 36.5t27.5 55t9.5 69q0 75 -36.5 121t-101.5 46t-103.5 -46t-38.5 -121zM422 73q-17 -35 -54.5 -60.5t-94.5 -25.5q-53 0 -95 20t-71.5 55t-45.5 81.5t-16 100.5q0 51 16.5 96.5t46.5 79.5t72 54
t93 20q32 0 56.5 -7t42.5 -18.5t30 -26t18 -29.5v68h93v-392q0 -32 2 -57t3 -32h-91q-2 8 -3.5 25.5t-1.5 39.5v8zM280 545q-35 0 -62 12t-45.5 32t-28.5 45.5t-10 52.5h73q1 -23 18 -44t55 -21t54.5 21t18.5 44h73q0 -27 -9.5 -52.5t-27.5 -45.5t-45.5 -32t-63.5 -12z" />
    <glyph glyph-name="aogonek.ss02" horiz-adv-x="590" 
d="M468 -216q-23 0 -44 7t-37 19.5t-25 31.5t-9 43q0 44 22.5 71t50.5 44q-2 9 -3 26.5t-1 38.5v8q-17 -35 -54.5 -60.5t-94.5 -25.5q-53 0 -95 20t-71.5 55t-45.5 81.5t-16 100.5q0 51 16.5 96.5t46.5 79.5t72 54t93 20q32 0 56.5 -7t42.5 -18.5t30 -26t18 -29.5v68h93
v-392q0 -30 1.5 -52.5t3.5 -36.5q-14 -7 -29 -16t-27.5 -21t-20.5 -27t-8 -33q0 -26 16.5 -36.5t36.5 -10.5q12 0 19 1t13 3v-68q-10 -4 -20.5 -6t-29.5 -2zM141 244q0 -37 9.5 -69t27.5 -55t44 -36.5t60 -13.5q32 0 58 13.5t44 36.5t27.5 55t9.5 69q0 75 -36.5 121
t-101.5 46t-103.5 -46t-38.5 -121z" />
    <glyph glyph-name="aringacute.ss02" horiz-adv-x="590" 
d="M141 244q0 -37 9.5 -69t27.5 -55t44 -36.5t60 -13.5q32 0 58 13.5t44 36.5t27.5 55t9.5 69q0 75 -36.5 121t-101.5 46t-103.5 -46t-38.5 -121zM422 73q-17 -35 -54.5 -60.5t-94.5 -25.5q-53 0 -95 20t-71.5 55t-45.5 81.5t-16 100.5q0 51 16.5 96.5t46.5 79.5t72 54
t93 20q32 0 56.5 -7t42.5 -18.5t30 -26t18 -29.5v68h93v-392q0 -32 2 -57t3 -32h-91q-2 8 -3.5 25.5t-1.5 39.5v8zM312 769h-79l87 146h118zM386 631q0 -23 -9 -43t-24 -34.5t-35.5 -23t-43.5 -8.5q-22 0 -42 8.5t-35.5 23t-24.5 34.5t-9 43t9 43t24.5 35t35.5 23.5t42 8.5
q23 0 43.5 -8.5t35.5 -23.5t24 -35t9 -43zM322 631q0 20 -14 34.5t-35 14.5q-20 0 -33.5 -14.5t-13.5 -34.5t13.5 -34t33.5 -14q21 0 35 14t14 34z" />
    <glyph glyph-name="r.ss03" horiz-adv-x="329" 
d="M170 0h-94v481h94v-481zM171 415q0 30 20.5 50.5t50.5 20.5q29 0 49.5 -20.5t20.5 -50.5q0 -29 -20.5 -49.5t-49.5 -20.5q-30 0 -50.5 20.5t-20.5 49.5z" />
    <glyph glyph-name="racute.ss03" horiz-adv-x="329" 
d="M170 0h-94v481h94v-481zM171 415q0 30 20.5 50.5t50.5 20.5q29 0 49.5 -20.5t20.5 -50.5q0 -29 -20.5 -49.5t-49.5 -20.5q-30 0 -50.5 20.5t-20.5 49.5zM165 543h-79l87 146h118z" />
    <glyph glyph-name="rcommaaccent.ss03" horiz-adv-x="329" 
d="M170 0h-94v481h94v-481zM171 415q0 30 20.5 50.5t50.5 20.5q29 0 49.5 -20.5t20.5 -50.5q0 -29 -20.5 -49.5t-49.5 -20.5q-30 0 -50.5 20.5t-20.5 49.5zM62 -88q0 23 18 37.5t41 14.5q22 0 43.5 -16.5t21.5 -56.5q0 -29 -10 -50t-26.5 -35t-37 -20.5t-40.5 -6.5v40
q26 0 44.5 15t20.5 33q-2 -2 -8 -4t-13 -2q-23 0 -38.5 12.5t-15.5 38.5z" />
    <glyph glyph-name="rcaron.ss03" horiz-adv-x="329" 
d="M170 0h-94v481h94v-481zM171 415q0 30 20.5 50.5t50.5 20.5q29 0 49.5 -20.5t20.5 -50.5q0 -29 -20.5 -49.5t-49.5 -20.5q-30 0 -50.5 20.5t-20.5 49.5zM119 687l70 -81l70 81h88l-102 -142h-111l-102 142h87z" />
    <glyph glyph-name="ampersand.ss04" horiz-adv-x="676" 
d="M372 332h275v-89h-86v-10q0 -51 -16.5 -96t-49 -78.5t-80 -53.5t-109.5 -20q-58 0 -105 15.5t-80.5 43t-52 66t-18.5 84.5q0 39 12.5 71t32.5 56t46.5 40.5t54.5 24.5q-47 17 -79 55.5t-32 99.5q0 38 16 71.5t43.5 58t65.5 39t83 14.5q57 0 97.5 -16.5t67 -43.5
t39.5 -61.5t16 -71.5l-96 -17q-4 57 -34 89.5t-89 32.5q-22 0 -42 -7.5t-35 -20.5t-23.5 -31.5t-8.5 -40.5q0 -26 10.5 -45.5t26.5 -32.5t35 -19t36 -6h13v-90q-25 0 -52.5 -7t-50.5 -23.5t-38 -43.5t-15 -67q0 -24 10 -47t29.5 -40.5t49 -28.5t68.5 -11q73 0 114 42.5
t41 115.5v10h-90v89z" />
    <glyph glyph-name="registered.ss06" horiz-adv-x="479" 
d="M50 526q0 39 15 73.5t40.5 60t60 40.5t73.5 15t73.5 -15t60.5 -40.5t41 -60t15 -73.5t-15 -73.5t-41 -60t-60.5 -40.5t-73.5 -15t-73.5 15t-60 40.5t-40.5 60t-15 73.5zM99 526q0 -30 11 -56t29.5 -45.5t44 -30.5t55.5 -11t55.5 11t44.5 30.5t30 45.5t11 56t-11 56
t-30 45.5t-44.5 30.5t-55.5 11t-55.5 -11t-44 -30.5t-29.5 -45.5t-11 -56zM242 537q11 0 18.5 6.5t7.5 17.5t-7.5 16.5t-18.5 5.5h-20v-46h20zM237 495h-15v-65h-52v196h83q29 0 48.5 -19.5t19.5 -45.5q0 -19 -10 -33.5t-26 -22.5l36 -75h-54z" />
    <glyph glyph-name="zero.numr" horiz-adv-x="382" 
d="M116 526q0 -20 2.5 -42t10.5 -40t22.5 -29.5t39.5 -11.5t39.5 11.5t22.5 29.5t10.5 40t2.5 42t-2.5 42t-10.5 40t-22.5 30t-39.5 12t-39.5 -11.5t-22.5 -29.5t-10.5 -40t-2.5 -43zM38 526q0 36 7.5 70.5t27.5 61.5q17 23 44.5 40.5t73.5 17.5t73.5 -17.5t44.5 -40.5
q20 -27 27.5 -61.5t7.5 -70.5t-7.5 -70t-27.5 -61q-17 -23 -44.5 -40.5t-73.5 -17.5t-73.5 17.5t-44.5 40.5q-20 27 -27.5 61t-7.5 70z" />
    <glyph glyph-name="one.numr" horiz-adv-x="239" 
d="M112 344v245h-86v52q37 1 62 20.5t30 47.5h71v-365h-77z" />
    <glyph glyph-name="two.numr" horiz-adv-x="345" 
d="M44 568q-2 8 -2.5 16.5t-0.5 14.5q0 24 9 45t26 37t41.5 25.5t55.5 9.5t55 -9.5t41 -25t26 -36.5t9 -44q0 -35 -19 -62.5t-51 -47.5l-72 -45q-11 -8 -20 -17t-11 -20h175v-65h-268v13q0 45 20 81.5t65 63.5l60 37q43 26 43 63q0 20 -14 35t-40 15t-41.5 -16t-15.5 -42
q0 -3 0.5 -11t2.5 -15h-74z" />
    <glyph glyph-name="three.numr" horiz-adv-x="362" 
d="M315 610q0 -29 -18 -51t-47 -30q32 -7 50.5 -30t18.5 -54q0 -46 -37 -77.5t-104 -31.5q-66 0 -105.5 32t-44.5 83l74 13q3 -27 21.5 -44.5t53.5 -17.5q32 0 49 14t17 34q0 21 -16 33t-45 12h-41v63h39q29 0 43 14t14 31q0 21 -15.5 34t-44.5 13t-46 -15.5t-19 -39.5
l-74 11q4 47 42 79t98 32q69 0 103 -31t34 -76z" />
    <glyph glyph-name="four.numr" horiz-adv-x="383" 
d="M28 489l177 220h85v-228h64v-65h-64v-72h-77v72h-185v73zM213 620l-111 -139h111v139z" />
    <glyph glyph-name="five.numr" horiz-adv-x="347" 
d="M95 459q7 -26 26.5 -41.5t46.5 -15.5q29 0 48 16t19 45q0 31 -19 46.5t-48 15.5q-20 0 -36 -7.5t-28 -19.5l-64 24l49 187h204v-66h-154l-23 -86q14 15 33.5 21.5t39.5 6.5q56 0 90 -32t34 -87q0 -27 -9.5 -50.5t-28 -41t-45.5 -27.5t-62 -10q-27 0 -50.5 8t-41.5 20.5
t-30 29t-17 34.5z" />
    <glyph glyph-name="six.numr" horiz-adv-x="367" 
d="M198 649q-42 0 -62.5 -33.5t-21.5 -81.5q10 20 33.5 33.5t58.5 13.5q26 0 49 -8t40.5 -23t28 -37.5t10.5 -50.5q0 -29 -11 -52t-30.5 -39.5t-45 -25.5t-55.5 -9q-34 0 -62.5 13t-49.5 37t-32.5 59t-11.5 80t12 80.5t33.5 60t51 37.5t64.5 13q54 0 91.5 -27t43.5 -72
l-74 -11q-4 18 -18 30.5t-42 12.5zM191 400q26 0 45 16.5t19 45.5q0 28 -18.5 44.5t-44.5 16.5t-46 -16t-20 -45t19 -45.5t46 -16.5z" />
    <glyph glyph-name="seven.numr" horiz-adv-x="343" 
d="M316 636q-15 -11 -37.5 -32.5t-45 -56.5t-41 -85.5t-24.5 -117.5h-82q7 75 29 130.5t46 93.5q28 44 61 75h-197v66h291v-73z" />
    <glyph glyph-name="eight.numr" horiz-adv-x="364" 
d="M184 561q29 0 46 13t17 35q0 20 -17 33t-46 13t-46 -13t-17 -33q0 -22 17 -35t46 -13zM184 401q33 0 52 13.5t19 36.5q0 22 -19.5 36t-51.5 14t-51.5 -14t-19.5 -36q0 -23 19 -36.5t52 -13.5zM184 337q-72 0 -110.5 31.5t-38.5 76.5q0 27 18.5 51.5t52.5 34.5
q-30 11 -45.5 33t-15.5 47q0 47 39 76t100 29t100 -29t39 -76q0 -25 -15.5 -47t-45.5 -33q34 -10 52.5 -34.5t18.5 -51.5q0 -45 -38.5 -76.5t-110.5 -31.5z" />
    <glyph glyph-name="nine.numr" horiz-adv-x="365" 
d="M171 400q44 0 62.5 29.5t18.5 86.5q-8 -20 -31.5 -34.5t-55.5 -14.5q-26 0 -49.5 7.5t-41.5 23t-29 38t-11 52.5q0 29 11 52.5t30 40.5t45 26t55 9q33 0 61 -11t49 -34t32.5 -58.5t11.5 -83.5q0 -94 -42 -144t-115 -50q-53 0 -92 27t-46 72l72 12q4 -21 21.5 -33.5
t43.5 -12.5zM176 527q25 0 43.5 16.5t18.5 46.5t-18 45.5t-44 15.5q-25 0 -44 -16.5t-19 -45.5q0 -31 19 -46.5t44 -15.5z" />
    <glyph glyph-name="a.ordn" horiz-adv-x="382" 
d="M36 461q0 45 30 71t73 32l88 12q15 2 20.5 9t5.5 16q0 23 -16 39.5t-52 16.5q-33 0 -51.5 -18.5t-21.5 -46.5l-69 16q2 23 13 43t29.5 35t43.5 24t55 9q39 0 66 -10.5t44.5 -27.5t25 -40t7.5 -48v-169q0 -17 1.5 -34.5t2.5 -20.5h-71q-2 6 -3 17t-1 27q-11 -19 -37 -36.5
t-68 -17.5q-27 0 -48 8.5t-36 22.5t-23 32.5t-8 38.5zM163 419q18 0 34.5 4.5t29 15.5t19.5 29t7 44v15l-95 -15q-20 -3 -33.5 -14t-13.5 -33q0 -18 13.5 -32t38.5 -14z" />
    <glyph glyph-name="b.ordn" horiz-adv-x="434" 
d="M58 370v507h74v-212q11 21 39.5 37.5t69.5 16.5q38 0 67.5 -14t49 -38t29.5 -56.5t10 -69.5q0 -38 -11 -71t-31 -57t-50 -38t-67 -14t-64 15t-43 41v-47h-73zM321 541q0 53 -26 82t-68 29t-69 -29t-27 -82t27 -83t69 -30t68 30t26 83z" />
    <glyph glyph-name="c.ordn" horiz-adv-x="394" 
d="M208 651q-19 0 -36.5 -7.5t-31 -21.5t-21.5 -34.5t-8 -47.5q0 -54 29.5 -82.5t68.5 -28.5q21 0 36.5 6.5t26 16t17 21t9.5 21.5l67 -26q-6 -19 -19 -38.5t-32 -35t-45.5 -25t-59.5 -9.5q-37 0 -68.5 13.5t-55 37.5t-36.5 57t-13 72t13 72t36 57t54.5 37.5t68.5 13.5
q34 0 60.5 -10t45.5 -25.5t31 -35.5t17 -40l-67 -26q-3 12 -9.5 24t-17 22t-25.5 16t-35 6z" />
    <glyph glyph-name="d.ordn" horiz-adv-x="431" 
d="M113 541q0 -51 25 -82.5t69 -31.5q42 0 67.5 32t25.5 82q0 51 -25.5 80.5t-67.5 29.5t-68 -30t-26 -80zM373 432q0 -20 1 -38.5t2 -23.5h-72q-1 6 -2.5 18.5t-1.5 27.5q-11 -21 -37 -38t-64 -17q-37 0 -67 14t-51 38t-32.5 57t-11.5 71q0 36 11.5 68t33 56.5t51 38.5
t65.5 14q45 0 69 -16.5t32 -35.5v211h74v-445z" />
    <glyph glyph-name="e.ordn" horiz-adv-x="400" 
d="M288 576q-1 32 -23 56t-64 24q-20 0 -35.5 -7t-26.5 -18.5t-17.5 -25.5t-7.5 -29h174zM361 467q-14 -45 -53 -76t-100 -31q-34 0 -65 12t-55 35.5t-38 57t-14 76.5q0 40 14 73.5t36.5 56.5t52 36t61.5 13q78 0 121.5 -48.5t43.5 -128.5q0 -10 -1 -16.5t-1 -7.5h-251
q1 -41 29 -67.5t67 -26.5t59.5 18t29.5 45z" />
    <glyph glyph-name="f.ordn" horiz-adv-x="262" 
d="M162 642v-274h-76v274h-61v67h61v50q0 58 32.5 89t83.5 31q16 0 27 -2.5t14 -4.5v-65q-5 2 -11 3t-18 1q-8 0 -17.5 -2.5t-17 -8.5t-12.5 -16.5t-5 -27.5v-47h80v-67h-80z" />
    <glyph glyph-name="g.ordn" horiz-adv-x="426" 
d="M107 369q4 -33 27.5 -55t60.5 -22q99 0 99 105v40q-11 -21 -37 -36t-64 -15q-34 0 -62.5 12.5t-49.5 34t-32.5 52t-11.5 66.5q0 34 11.5 64t32 52.5t49 35.5t63.5 13q40 0 65.5 -14t36.5 -37v44h73v-310q0 -33 -9 -64t-29.5 -55t-53 -38.5t-80.5 -14.5q-33 0 -61 9.5
t-49 26.5t-34 40t-16 49zM205 449q41 0 66 27.5t25 74.5q0 45 -25.5 72.5t-65.5 27.5q-41 0 -66.5 -27.5t-25.5 -72.5q0 -48 25 -75t67 -27z" />
    <glyph glyph-name="h.ordn" horiz-adv-x="410" 
d="M133 370h-75v507h75v-203q18 24 44.5 34.5t54.5 10.5q31 0 54 -10.5t38.5 -28.5t23 -42.5t7.5 -52.5v-215h-75v202q0 33 -16 56t-58 23q-35 0 -53.5 -23.5t-19.5 -58.5v-199z" />
    <glyph glyph-name="i.ordn" horiz-adv-x="190" 
d="M58 370v339h74v-339h-74zM45 832q0 21 14.5 36t35.5 15t35.5 -15t14.5 -36t-14.5 -35.5t-35.5 -14.5t-35.5 14.5t-14.5 35.5z" />
    <glyph glyph-name="j.ordn" horiz-adv-x="191" 
d="M58 709h75v-375q0 -48 -26 -77.5t-72 -29.5q-19 0 -30.5 2t-13.5 3v62q5 -1 10 -1.5t13 -0.5q25 0 34.5 12.5t9.5 34.5v370zM45 833q0 21 14.5 36t35.5 15t35.5 -15t14.5 -36t-14.5 -35.5t-35.5 -14.5t-35.5 14.5t-14.5 35.5z" />
    <glyph glyph-name="k.ordn" horiz-adv-x="381" 
d="M229 566l144 -196h-93l-104 143l-44 -45v-98h-74v507h74v-310l137 142h101z" />
    <glyph glyph-name="l.ordn" horiz-adv-x="191" 
d="M58 370v507h75v-507h-75z" />
    <glyph glyph-name="m.ordn" horiz-adv-x="618" 
d="M58 370v339h71v-44q16 27 44.5 40.5t57.5 13.5q33 0 60.5 -15t40.5 -46q21 35 50 48t62 13q22 0 43.5 -7.5t38.5 -23.5t27 -40.5t10 -57.5v-220h-73v209q0 32 -16.5 52.5t-51.5 20.5q-33 0 -53.5 -22.5t-20.5 -56.5v-203h-74v209q0 32 -16 52.5t-52 20.5q-34 0 -54 -22.5
t-20 -57.5v-202h-74z" />
    <glyph glyph-name="n.ordn" horiz-adv-x="410" 
d="M133 370h-75v339h73v-46q17 29 45 42.5t57 13.5q31 0 54 -10.5t38 -28.5t22.5 -42.5t7.5 -52.5v-215h-75v202q0 33 -16 56t-58 23q-35 0 -54 -25t-19 -60v-196z" />
    <glyph glyph-name="o.ordn" horiz-adv-x="422" 
d="M211 427q39 0 69 28.5t30 84.5t-30 84t-69 28q-40 0 -70 -28t-30 -84t30 -84.5t70 -28.5zM211 720q38 0 70 -13.5t55.5 -37.5t36.5 -57t13 -72t-13 -72t-36.5 -57t-55.5 -37.5t-70 -13.5t-70.5 13.5t-55.5 37.5t-36 57t-13 72t13 72t36 57t55.5 37.5t70.5 13.5z" />
    <glyph glyph-name="p.ordn" horiz-adv-x="434" 
d="M58 237v472h73v-49q12 23 40.5 40t69.5 17q37 0 66.5 -13.5t49 -37.5t30 -56.5t10.5 -69.5q0 -38 -11 -70.5t-31.5 -56.5t-50 -38t-66.5 -14q-38 0 -65 15t-41 35v-174h-74zM322 540q0 49 -26 80t-69 31q-42 0 -69 -31t-27 -80q0 -50 27 -81t69 -31t68.5 30.5t26.5 81.5z
" />
    <glyph glyph-name="q.ordn" horiz-adv-x="433" 
d="M301 237v176q-13 -23 -39.5 -37.5t-62.5 -14.5t-66 14t-51.5 38.5t-33 57t-11.5 70.5q0 36 11 68t32 56.5t50.5 38.5t66.5 14q45 0 70.5 -18.5t35.5 -38.5v48h72v-472h-74zM113 541q0 -51 26 -82.5t68 -31.5t68.5 31.5t26.5 82.5q0 50 -26.5 80t-68.5 30t-68 -30t-26 -80
z" />
    <glyph glyph-name="r.ordn" horiz-adv-x="272" 
d="M252 634q-15 3 -29 3q-39 0 -64.5 -23t-25.5 -79v-165h-75v339h73v-56q17 37 45.5 49t52.5 12q6 0 12 -0.5t11 -1.5v-78z" />
    <glyph glyph-name="s.ordn" horiz-adv-x="334" 
d="M99 481q2 -25 20.5 -43t51.5 -18q26 0 40 12.5t14 29.5q0 31 -41 40l-54 12q-42 9 -65 35.5t-23 61.5q0 22 9.5 42t26 35t39 23.5t48.5 8.5q35 0 59 -10t39 -24.5t22.5 -31t9.5 -28.5l-64 -20q-1 7 -5 16t-11.5 17.5t-19.5 14t-30 5.5q-23 0 -37.5 -12.5t-14.5 -28.5
q0 -15 9.5 -24.5t26.5 -13.5l53 -11q48 -11 72 -37.5t24 -64.5q0 -19 -8 -38t-23.5 -34.5t-39.5 -25t-56 -9.5q-36 0 -61.5 10.5t-42 25.5t-25 32.5t-10.5 32.5z" />
    <glyph glyph-name="t.ordn" horiz-adv-x="266" 
d="M160 709h72v-67h-72v-165q0 -23 10.5 -33.5t34.5 -10.5q13 0 27 3v-63q-4 -2 -17.5 -4.5t-30.5 -2.5q-45 0 -72 26t-27 73v177h-63v67h18q27 0 39.5 15t12.5 38v52h68v-105z" />
    <glyph glyph-name="u.ordn" horiz-adv-x="409" 
d="M280 410q-14 -26 -41.5 -38t-56.5 -12q-30 0 -54 10.5t-40.5 29t-25 43t-8.5 52.5v214h75v-201q0 -33 17 -57t55 -24q37 0 56 22.5t19 57.5v202h75v-277q0 -21 1.5 -39.5t2.5 -22.5h-72q-2 6 -2.5 18t-0.5 22z" />
    <glyph glyph-name="v.ordn" horiz-adv-x="367" 
d="M222 370h-75l-138 339h83l93 -250l91 250h80z" />
    <glyph glyph-name="w.ordn" horiz-adv-x="582" 
d="M332 709l84 -242l70 242h77l-109 -339h-76l-86 249l-85 -249h-78l-110 339h80l72 -242l84 242h77z" />
    <glyph glyph-name="x.ordn" horiz-adv-x="369" 
d="M140 542l-122 167h90l78 -113l77 113h87l-120 -166q9 -13 26 -36.5t35.5 -50t36 -50t26.5 -36.5h-89l-82 118q-2 -3 -14 -20.5t-26 -38.5t-26.5 -39t-14.5 -20h-86z" />
    <glyph glyph-name="y.ordn" horiz-adv-x="374" 
d="M69 231l83 178l-146 300h86l100 -222l96 222h79l-217 -478h-81z" />
    <glyph glyph-name="z.ordn" horiz-adv-x="352" 
d="M38 370v66l178 207h-174v66h268v-64l-179 -209h182v-66h-275z" />
    <glyph glyph-name="numbersign.tf" 
d="M459 446l-38 -178h94v-76h-110l-41 -192h-88l41 192h-116l-41 -192h-88l41 192h-93v76h109l38 178h-98v76h115l40 187h88l-40 -187h116l40 187h88l-40 -187h88v-76h-105zM217 268h116l38 178h-116z" />
    <glyph glyph-name="dollar.tf" 
d="M259 -114v116q-53 6 -92 26t-66 48.5t-42 63.5t-19 70l85 25q3 -26 12.5 -50.5t26 -44.5t40.5 -34t56 -20v231l-29 7q-75 17 -120 63.5t-45 120.5q0 39 15 73t41 60.5t61 43.5t76 22v117h78v-118q43 -6 75.5 -22.5t55 -40t36.5 -52t20 -56.5l-84 -27q-7 35 -31.5 67
t-72.5 44v-224l18 -4q86 -18 133 -68t47 -123q0 -36 -13.5 -69.5t-38.5 -60t-62 -44.5t-83 -24v-116h-78zM440 193q0 42 -27 69t-77 38v-214q51 9 77.5 38.5t26.5 68.5zM158 515q0 -38 23 -65t69 -37l10 -2v210q-45 -8 -73.5 -37t-28.5 -69z" />
    <glyph glyph-name="percent.tf" 
d="M535 478l-482 -327v90l482 329v-92zM103 580q0 -27 17.5 -44.5t42.5 -17.5q26 0 43.5 17.5t17.5 44.5q0 26 -17.5 43t-43.5 17q-25 0 -42.5 -17t-17.5 -43zM27 580q0 28 11 52t29.5 42t43.5 28.5t52 10.5t52 -10.5t44 -28.5t30 -42t11 -52q0 -29 -11 -53.5t-30 -42.5
t-44 -28.5t-52 -10.5t-52 10.5t-43.5 28.5t-29.5 42.5t-11 53.5zM354 127q0 -27 17.5 -44.5t42.5 -17.5q26 0 43.5 17.5t17.5 44.5q0 26 -17.5 43t-43.5 17q-25 0 -42.5 -17t-17.5 -43zM278 127q0 28 11 52t29.5 42t43.5 28.5t52 10.5t52 -10.5t44 -28.5t30 -42t11 -52
q0 -29 -11 -53.5t-30 -42.5t-44 -28.5t-52 -10.5t-52 10.5t-43.5 28.5t-29.5 42.5t-11 53.5z" />
    <glyph glyph-name="plus.tf" 
d="M250 388v195h82v-195h188v-79h-188v-197h-82v197h-187v79h187z" />
    <glyph glyph-name="zero.tf" 
d="M31 354q0 63 11 128.5t40 118.5t79.5 87t129.5 34t129.5 -34t80 -87t40.5 -118.5t11 -128.5q0 -62 -11 -127.5t-40 -118.5t-79.5 -87t-130.5 -34t-130.5 34t-79 87.5t-39.5 118.5t-11 127zM456 354q0 53 -7 103.5t-25.5 89.5t-50.5 63t-82 24t-82 -23.5t-50 -62.5
t-24.5 -89.5t-6.5 -104.5q0 -53 7 -103.5t25 -89.5t49.5 -63t81.5 -24t82 24t50.5 63t25.5 89.5t7 103.5z" />
    <glyph glyph-name="one.tf" 
d="M532 88v-88h-450v88h182v425h-162v69q34 1 63 11t51.5 27t37 40t20.5 49h86v-621h172z" />
    <glyph glyph-name="two.tf" 
d="M47 0q2 79 36 149t115 122l129 82q52 32 78.5 68t26.5 84q0 27 -9.5 51t-27.5 41.5t-43.5 28t-56.5 10.5q-70 0 -110.5 -42t-40.5 -111q0 -8 1 -20t3 -20l-93 9q-2 8 -3 18t-1 24q0 46 16 87.5t47 72.5t76 49.5t103 18.5q53 0 96.5 -16.5t74 -45.5t47.5 -68.5t17 -84.5
q0 -69 -34.5 -120.5t-101.5 -93.5l-146 -91q-31 -20 -54.5 -48.5t-30.5 -63.5h374v-90h-488z" />
    <glyph glyph-name="three.tf" 
d="M524 527q0 -60 -32 -103t-83 -58q28 -7 52 -22.5t41 -38.5t27 -52.5t10 -62.5q0 -42 -17 -79t-48.5 -64.5t-77 -44t-103.5 -16.5t-103.5 16.5t-78 44.5t-51.5 66t-22 81l94 20q5 -65 48 -103t113 -38q68 0 108.5 34.5t40.5 89.5q0 54 -39 87t-105 33h-77v88h74
q63 0 98.5 33t35.5 81q0 53 -36 85t-97 32q-66 0 -105.5 -37t-42.5 -91l-93 18q2 38 19 73.5t48 63t75 44t100 16.5q54 0 96 -16t71 -43t44.5 -62.5t15.5 -74.5z" />
    <glyph glyph-name="four.tf" 
d="M24 271l297 438h125v-456h103v-90h-103v-163h-96v163h-326v108zM350 605l-237 -352h237v352z" />
    <glyph glyph-name="five.tf" 
d="M135 217q3 -30 15 -56t32 -45.5t47.5 -30.5t61.5 -11t62.5 11t49 31.5t32 48t11.5 60.5q0 73 -43.5 112.5t-110.5 39.5q-44 0 -79 -16.5t-57 -45.5l-87 33l73 361h375v-90h-310l-43 -214q26 28 67.5 42t82.5 14q51 0 93.5 -16.5t72.5 -47t46.5 -74t16.5 -97.5
q0 -49 -17.5 -92.5t-50 -76t-79.5 -51.5t-105 -19q-53 0 -97 16.5t-76 45t-51 66.5t-23 80z" />
    <glyph glyph-name="six.tf" 
d="M453 526q-8 46 -44 78.5t-97 32.5q-88 0 -138 -76.5t-50 -219.5q9 25 26.5 47t43 38t57 25t67.5 9q46 0 87.5 -16.5t72 -46.5t48.5 -72.5t18 -94.5q0 -55 -18.5 -99.5t-51.5 -76.5t-77.5 -49.5t-95.5 -17.5q-55 0 -103.5 21.5t-84.5 65.5t-57 111t-21 157q0 92 20 163
t57 119.5t88 73.5t113 25q51 0 91 -14t68.5 -38.5t46 -57t24.5 -69.5zM151 224q0 -35 12 -63t32.5 -47.5t48 -30.5t57.5 -11t57 10.5t46.5 30.5t31 48t11.5 63t-11.5 63t-32 47.5t-47 29.5t-56.5 10t-57 -10.5t-47.5 -30t-32.5 -47t-12 -62.5z" />
    <glyph glyph-name="seven.tf" 
d="M544 616q-43 -40 -90 -96.5t-88.5 -132t-73 -171.5t-43.5 -216h-100q12 131 47.5 233.5t79 179t87.5 127.5t73 79h-399v90h507v-93z" />
    <glyph glyph-name="eight.tf" 
d="M292 401q64 1 100.5 34.5t36.5 84.5q0 50 -35.5 84t-101.5 34t-101.5 -34t-35.5 -83q0 -51 37 -85t100 -35zM292 324q-38 0 -66 -10.5t-47.5 -27.5t-29 -40t-9.5 -48q0 -26 10 -49.5t29.5 -41t48 -27.5t64.5 -10t64.5 10.5t48 28t29.5 40.5t10 49q0 25 -9.5 48t-28.5 40
t-47.5 27.5t-66.5 10.5zM292 -13q-57 0 -102.5 15t-78 41.5t-49.5 63t-17 79.5q0 65 37 112t100 65q-57 17 -90 62.5t-33 104.5q0 40 16.5 75.5t47.5 61t73.5 40.5t95.5 15q52 0 95 -15t74 -40.5t47.5 -61t16.5 -75.5q0 -55 -31 -101.5t-93 -65.5q64 -18 101 -65.5
t37 -111.5q0 -42 -17 -78.5t-49 -63.5t-77.5 -42t-103.5 -15z" />
    <glyph glyph-name="nine.tf" 
d="M140 192q4 -24 15 -46t29 -38.5t42.5 -26t55.5 -9.5q85 0 126.5 69.5t41.5 220.5q-16 -46 -60.5 -77.5t-118.5 -31.5q-45 0 -86 16t-72 46t-49 73t-18 97q0 55 18.5 99t51 75t77 47.5t95.5 16.5q65 0 113 -26t79.5 -73.5t47 -114t15.5 -147.5q0 -179 -66 -277.5
t-196 -98.5q-49 0 -89 14t-70 38t-48.5 57t-24.5 71zM428 491q0 33 -10.5 60.5t-29.5 47t-45 30t-57 10.5t-58 -11t-46.5 -31t-31 -48.5t-11.5 -63.5q0 -37 12 -65t32 -46.5t46 -27.5t54 -9q66 0 105.5 42.5t39.5 111.5z" />
    <glyph glyph-name="less.tf" 
d="M67 390l412 206v-95l-310 -153l310 -153v-95l-412 205v85z" />
    <glyph glyph-name="equal.tf" 
d="M60 407v77h463v-77h-463zM60 212v79h463v-79h-463z" />
    <glyph glyph-name="greater.tf" 
d="M516 305l-412 -205v95l312 153l-312 153v95l412 -206v-85z" />
    <glyph glyph-name="cent.tf" 
d="M442 416q-8 30 -31 58.5t-65 38.5v-326q43 10 67 38.5t34 58.5l81 -30q-15 -56 -61 -101t-120 -56v-97h-78v98q-45 6 -82.5 27t-65 54t-43 76.5t-15.5 94.5t15.5 94.5t43 76.5t65 54.5t82.5 27.5v106h78v-107q73 -10 118 -53.5t60 -101.5zM156 350q0 -65 31.5 -107.5
t82.5 -55.5v326q-51 -12 -82.5 -55t-31.5 -108z" />
    <glyph glyph-name="sterling.tf" 
d="M244 304q2 -11 4 -20.5t2 -25.5q0 -56 -24 -100.5t-61 -71.5h195q52 0 81 33t31 85l86 -14q-3 -85 -51 -137.5t-133 -52.5h-329v82q45 24 77.5 67.5t32.5 103.5q0 14 -2 26t-5 25h-96v80h73q-13 29 -23.5 62.5t-10.5 72.5q0 43 15 80t43 64.5t68.5 43t90.5 15.5
q51 0 88.5 -16t63 -42t38.5 -59.5t15 -68.5l-84 -21q-3 51 -34 86t-89 35q-50 0 -84 -30t-34 -91q0 -38 12.5 -68t23.5 -63h190v-80h-170z" />
    <glyph glyph-name="currency.tf" 
d="M82 347q0 34 10 64.5t27 56.5l-75 77l60 59l75 -78q26 17 55 26t61 9q60 0 111 -31l72 74l60 -59l-70 -73q19 -26 30 -58t11 -67t-10.5 -66.5t-29.5 -56.5l69 -71l-59 -59l-70 72q-25 -16 -54 -24.5t-60 -8.5q-33 0 -63 10t-56 27l-73 -76l-59 59l73 76q-17 26 -26 55.5
t-9 62.5zM165 347q0 -29 10 -53.5t28 -42t41.5 -27t50.5 -9.5t50.5 9.5t40.5 27t27 42t10 53.5t-10 53t-27 41.5t-40.5 27t-50.5 9.5t-50.5 -9.5t-41.5 -27t-28 -41.5t-10 -53z" />
    <glyph glyph-name="yen.tf" 
d="M204 374l-181 335h107l164 -311l164 311h102l-183 -335h149v-72h-186v-75h186v-72h-186v-155h-98v155h-185v72h185v75h-185v72h147z" />
    <glyph glyph-name="logicalnot.tf" 
d="M427 210v195h-379v82h463v-277h-84z" />
    <glyph glyph-name="plusminus.tf" 
d="M250 447v136h82v-136h178v-77h-178v-134h-82v134h-177v77h177zM510 191v-79h-437v79h437z" />
    <glyph glyph-name="multiply.tf" 
d="M290 291l-168 -174l-56 56l169 176l-168 174l57 57l167 -174l167 174l57 -56l-169 -175l170 -176l-56 -57z" />
    <glyph glyph-name="divide.tf" 
d="M226 526q0 26 19.5 45t45.5 19t45 -19t19 -45t-19 -45.5t-45 -19.5t-45.5 19.5t-19.5 45.5zM63 390h457v-83h-457v83zM226 171q0 26 19.5 45t45.5 19t45 -19t19 -45t-19 -45.5t-45 -19.5t-45.5 19.5t-19.5 45.5z" />
    <glyph glyph-name="perthousand.tf" 
d="M535 570l-482 -376v90l482 378v-92zM89 596q0 -24 16 -39.5t39 -15.5t38 15.5t15 39.5t-15 39.5t-38 15.5t-39 -15.5t-16 -39.5zM24 596q0 25 9.5 46.5t26 37.5t38.5 25t46 9t45.5 -9t38 -25t26.5 -37.5t10 -46.5t-10 -46.5t-26.5 -37.5t-38 -25t-45.5 -9t-46 9t-38.5 25
t-26 37.5t-9.5 46.5zM139 107q0 25 9.5 46.5t26 37.5t38.5 25t46 9q25 0 47 -10.5t38 -27.5q16 17 38 27.5t48 10.5q24 0 45.5 -9t38 -25t26.5 -37.5t10 -46.5t-10 -46.5t-26.5 -37.5t-38 -25t-45.5 -9q-53 0 -86 38q-33 -38 -85 -38q-24 0 -46 9t-38.5 25t-26 37.5
t-9.5 46.5zM259 162q-23 0 -39 -15.5t-16 -39.5t16 -39.5t39 -15.5t38 15.5t15 39.5t-15 39.5t-38 15.5zM430 162q-23 0 -39 -15.5t-16 -39.5t16 -39.5t39 -15.5t38 15.5t15 39.5t-15 39.5t-38 15.5z" />
    <glyph glyph-name="Euro.tf" 
d="M198 388q-1 -9 -1 -18.5v-18.5v-18t1 -17h244l-22 -75h-207q24 -77 82 -121.5t147 -44.5q27 0 50 4t40 9l21 -80q-25 -8 -52 -14t-65 -6q-62 0 -115 18t-94.5 51t-70.5 79.5t-43 104.5h-88v75h76q-1 8 -1 17v18v18.5t1 18.5h-76v75h88q15 60 46 108t73.5 81t95.5 51
t112 18q44 0 74.5 -7.5t47.5 -15.5l-28 -81q-11 4 -34.5 10t-58.5 6q-86 0 -144.5 -45.5t-83.5 -124.5h270l-21 -75h-264z" />
    <glyph glyph-name="minus.tf" 
d="M80 309v79h423v-79h-423z" />
    <glyph glyph-name="approxequal.tf" 
d="M543 445q-28 -40 -65 -61.5t-81 -21.5q-48 0 -100 30l-47 26q-32 17 -62 17q-52 0 -91 -45l-53 47q29 42 65 63.5t78 21.5q26 0 50.5 -8t52.5 -23l46 -25q35 -20 70 -20q49 0 86 44zM543 251q-28 -40 -65 -61.5t-81 -21.5q-48 0 -100 30l-47 26q-32 17 -62 17
q-52 0 -91 -45l-53 47q29 42 65 63.5t78 21.5q26 0 50.5 -8t52.5 -23l46 -25q35 -20 70 -20q49 0 86 44z" />
    <glyph glyph-name="notequal.tf" 
d="M250 212l-74 -100h-96l74 100h-95v79h153l85 116h-238v77h295l73 99h96l-73 -99h72v-77h-129l-85 -116h214v-79h-272z" />
    <glyph glyph-name="lessequal.tf" 
d="M493 191v-79h-412v79h412zM81 450l412 146v-84l-307 -104l307 -104v-84l-412 145v85z" />
    <glyph glyph-name="greaterequal.tf" 
d="M502 191v-79h-412v79h412zM502 365l-412 -145v84l307 104l-307 104v84l412 -146v-85z" />
    <glyph glyph-name="one.ss05" horiz-adv-x="495" 
d="M220 88v430h-157v69q68 2 112 35.5t55 86.5h86v-621h157v-88h-425v88h172z" />
    <glyph glyph-name="ampersand.ss10" horiz-adv-x="689" 
d="M454 94q-44 -49 -91.5 -77.5t-107.5 -28.5q-50 0 -88.5 15.5t-64.5 41t-39 58t-13 66.5t9 61.5t25.5 51t39.5 44t51 41.5l10 8l-13 14q-12 13 -27 29.5t-28 36.5t-21.5 43t-8.5 49q0 43 16 76t42.5 55.5t59 34t65.5 11.5q40 0 74.5 -12t59.5 -34.5t39.5 -54.5t14.5 -72
q0 -26 -8.5 -48.5t-22.5 -42t-32 -36t-37 -30.5l-36 -27l132 -137l158 176v-129l-96 -111l161 -166h-133zM256 78q41 0 72 23t60 55l3 4l-144 151l-36 -27q-26 -20 -43 -45t-17 -62q0 -18 7.5 -35.5t21 -32t33 -23t43.5 -8.5zM184 553q0 -15 5 -29t13 -26.5t17.5 -23.5
t18.5 -20l22 -24l48 36q32 23 42.5 44t10.5 44q0 35 -25.5 60.5t-64.5 25.5q-15 0 -30.5 -5.5t-28 -17t-20.5 -27.5t-8 -37z" />
    <glyph glyph-name="caron.alt" horiz-adv-x="203" 
d="M104 530h-69l28 179h105z" />
    <glyph glyph-name="commaturn" horiz-adv-x="172" 
d="M149 586q0 -24 -17 -38t-42 -14q-11 0 -22 4t-21 12.5t-16 22.5t-6 34q0 27 10 48t26.5 35t37 21.5t40.5 7.5v-40q-26 0 -44.5 -15t-20.5 -33q1 1 6.5 3.5t14.5 2.5q24 0 39 -13.5t15 -37.5z" />
    <glyph glyph-name="dieresis.narrow" horiz-adv-x="294" 
d="M23 621q0 23 15 38.5t38 15.5t38.5 -15.5t15.5 -38.5t-15.5 -38t-38.5 -15t-38 15t-15 38zM164 621q0 23 15 38.5t38 15.5t38.5 -15.5t15.5 -38.5t-15.5 -38t-38.5 -15t-38 15t-15 38z" />
    <glyph glyph-name="dieresis.uc.narrow" horiz-adv-x="310" 
d="M25 819q0 23 15 38t38 15t38.5 -15t15.5 -38t-15.5 -38.5t-38.5 -15.5t-38 15.5t-15 38.5zM178 819q0 23 15.5 38t38.5 15t38 -15t15 -38t-15 -38.5t-38 -15.5t-38.5 15.5t-15.5 38.5z" />
    <glyph glyph-name="grave.uc" horiz-adv-x="273" 
d="M18 878h129l102 -119h-93z" />
    <glyph glyph-name="dieresis.uc" horiz-adv-x="407" 
d="M29 819q0 25 17 42t42 17t42 -17t17 -42t-17 -42t-42 -17t-42 17t-17 42zM260 819q0 25 17 42t42 17t42 -17t17 -42t-17 -42t-42 -17t-42 17t-17 42z" />
    <glyph glyph-name="macron.uc" horiz-adv-x="343" 
d="M25 779v83h293v-83h-293z" />
    <glyph glyph-name="acute.uc" horiz-adv-x="273" 
d="M118 759h-94l101 119h130z" />
    <glyph glyph-name="circumflex.uc" horiz-adv-x="403" 
d="M29 759l112 119h120l117 -119h-92l-85 64l-81 -64h-91z" />
    <glyph glyph-name="caron.uc" horiz-adv-x="403" 
d="M120 878l81 -64l85 64h92l-117 -119h-120l-112 119h91z" />
    <glyph glyph-name="breve.uc" horiz-adv-x="371" 
d="M186 754q-38 0 -66.5 11t-48 29.5t-30.5 41.5t-12 47h81q1 -9 5 -18.5t13 -18t23.5 -14t34.5 -5.5t34 5.5t23 14t13 18t5 18.5h81q-2 -24 -12 -47t-29.5 -41.5t-48 -29.5t-66.5 -11z" />
    <glyph glyph-name="dotaccent.uc" horiz-adv-x="177" 
d="M25 818q0 26 18.5 45t44.5 19t45 -19t19 -45t-19 -44.5t-45 -18.5t-44.5 18.5t-18.5 44.5z" />
    <glyph glyph-name="ring.uc" horiz-adv-x="273" 
d="M248 848q0 -23 -9 -43t-24 -34.5t-35.5 -23t-43.5 -8.5q-22 0 -42 8.5t-35.5 23t-24.5 34.5t-9 43t9 43t24.5 35t35.5 23.5t42 8.5q23 0 43.5 -8.5t35.5 -23.5t24 -35t9 -43zM183 848q0 20 -14 33.5t-34 13.5t-33 -13.5t-13 -33.5t13 -33t33 -13t34 13t14 33z" />
    <glyph glyph-name="tilde.uc" horiz-adv-x="373" 
d="M349 865q0 -56 -27 -83.5t-69 -27.5q-22 0 -39 6t-32 17l-15 10q-10 6 -18.5 10t-18.5 4q-16 0 -25.5 -10.5t-9.5 -33.5h-68v16q0 56 27.5 83.5t69.5 27.5q21 0 39.5 -7t33.5 -16l15 -9q11 -6 19.5 -10t18.5 -4q13 0 22.5 7.5t9.5 27.5v8h67v-16z" />
    <glyph glyph-name="hungarumlaut.uc" horiz-adv-x="367" 
d="M95 759h-70l61 119h105zM236 759h-70l71 119h105z" />
    <glyph glyph-name="caron.alt.uc" horiz-adv-x="203" 
d="M108 519h-73l30 190h111z" />
    <glyph glyph-name="undercommaaccent" horiz-adv-x="174" 
d="M25 -88q0 23 18 37.5t41 14.5q22 0 43.5 -16.5t21.5 -56.5q0 -29 -10 -50t-26.5 -35t-37 -20.5t-40.5 -6.5v40q26 0 44.5 15t20.5 33q-2 -2 -8 -4t-13 -2q-23 0 -38.5 12.5t-15.5 38.5z" />
    </font>
</defs>
</svg>
