<?xml version="1.0" standalone="no"?>
<!DOCTYPE svg PUBLIC "-//W3C//DTD SVG 1.1//EN" "http://www.w3.org/Graphics/SVG/1.1/DTD/svg11.dtd" >
<svg xmlns="http://www.w3.org/2000/svg" xmlns:xlink="http://www.w3.org/1999/xlink" version="1.1">
<metadata>
Created by FontForge 20170731 at Sun Feb  8 10:45:43 2015
 By Aleksey,,,
(c) 2015, Copyright by Lineto. All rights reserved.
</metadata>
<defs>
<font id="Okwmiiyaaqiomzruoesyeeerqih" horiz-adv-x="593" >
  <font-face 
    font-family="Okwmiiyaaqiomzruoesyeeerqih"
    font-weight="700"
    font-stretch="normal"
    units-per-em="1000"
    panose-1="2 11 8 4 2 1 1 1 1 2"
    ascent="750"
    descent="-250"
    x-height="492"
    cap-height="709"
    bbox="-200 -254 1558 1039"
    underline-thickness="50"
    underline-position="-200"
    unicode-range="U+0020-FEFF"
  />
<missing-glyph horiz-adv-x="237" 
 />
    <glyph glyph-name="f_f" unicode="ff" horiz-adv-x="700" 
d="M569 492h111v-114h-111v-378h-133v378h-190v-378h-134v378h-82v114h82v56q0 42 12.5 75.5t36 57.5t56.5 37t74 13q21 0 39.5 -3t26.5 -7v-112q-5 2 -15 3.5t-27 1.5q-11 0 -23 -3t-22.5 -10.5t-17 -20.5t-6.5 -34v-54h190v56q0 42 12.5 75.5t36 57.5t56.5 37t74 13
q21 0 39.5 -3t26.5 -7v-112q-5 2 -15 3.5t-27 1.5q-11 0 -23 -3t-22.5 -10.5t-17.5 -20.5t-7 -34v-54z" />
    <glyph glyph-name="f_f_i" unicode="ffi" horiz-adv-x="970" 
d="M753 654q0 35 23.5 59t57.5 24q35 0 59 -24t24 -59q0 -34 -24 -57.5t-59 -23.5q-34 0 -57.5 23.5t-23.5 57.5zM436 550q0 41 12.5 74.5t36 57t56 36.5t73.5 13q21 0 39.5 -3t26.5 -7v-112q-5 2 -15 3.5t-27 1.5q-11 0 -23 -3t-22.5 -10.5t-17 -20.5t-6.5 -34v-54h332
v-492h-133v378h-199v-378h-133v378h-190v-378h-134v378h-82v114h82v56q0 42 12.5 75.5t36 57.5t56.5 37t74 13q21 0 39.5 -3t26.5 -7v-112q-5 2 -15 3.5t-27 1.5q-11 0 -23 -3t-22.5 -10.5t-17 -20.5t-6.5 -34v-54h190v58z" />
    <glyph glyph-name="f_f_l" unicode="ffl" horiz-adv-x="970" 
d="M436 548q0 84 48.5 133.5t129.5 49.5q21 0 39.5 -3t26.5 -7v-112q-5 2 -15 3.5t-27 1.5q-11 0 -23 -3t-22.5 -10.5t-17 -20.5t-6.5 -34v-54h200v232h133v-724h-133v378h-200v-378h-133v378h-190v-378h-134v378h-82v114h82v56q0 42 12.5 75.5t36 57.5t56.5 37t74 13
q21 0 39.5 -3t26.5 -7v-112q-5 2 -15 3.5t-27 1.5q-11 0 -23 -3t-22.5 -10.5t-17 -20.5t-6.5 -34v-54h190v56z" />
    <glyph glyph-name="f_i" unicode="fi" horiz-adv-x="644" 
d="M246 378v-378h-134v378h-82v114h82v56q0 42 12.5 75.5t36 57.5t56.5 37t74 13q21 0 39.5 -3t26.5 -7v-112q-5 2 -15 3.5t-27 1.5q-11 0 -23 -3t-22.5 -10.5t-17 -20.5t-6.5 -34v-54h329v-492h-132v378h-197zM427 654q0 35 24 59t58 24t58 -24t24 -59q0 -34 -24 -57.5
t-58 -23.5t-58 23.5t-24 57.5z" />
    <glyph glyph-name="f_l" unicode="fl" horiz-adv-x="643" 
d="M315 614q-11 0 -23 -3t-22.5 -10.5t-17 -20.5t-6.5 -34v-54h196v232h133v-724h-133v378h-196v-378h-134v378h-82v114h82v56q0 42 12.5 75.5t36 57.5t56.5 37t74 13q21 0 39.5 -3t26.5 -7v-112q-5 2 -15 3.5t-27 1.5z" />
    <glyph glyph-name=".notdef" horiz-adv-x="237" 
 />
    <glyph glyph-name=".null" horiz-adv-x="0" 
 />
    <glyph glyph-name="nonmarkingreturn" horiz-adv-x="237" 
 />
    <glyph glyph-name="space" unicode=" " horiz-adv-x="237" 
 />
    <glyph glyph-name="exclam" unicode="!" horiz-adv-x="275" 
d="M186 216h-97l-32 493h161zM59 71q0 33 23 56.5t55 23.5q33 0 56.5 -23.5t23.5 -56.5t-23.5 -56t-56.5 -23q-32 0 -55 23t-23 56z" />
    <glyph glyph-name="quotedbl" unicode="&#x22;" horiz-adv-x="417" 
d="M41 645q0 32 21.5 53.5t53.5 21.5t53 -21.5t21 -53.5q0 -6 -0.5 -14t-2.5 -13l-48 -183h-47l-47 183q-1 5 -2.5 12t-1.5 15zM226 645q0 32 21.5 53.5t53.5 21.5t53 -21.5t21 -53.5q0 -6 -0.5 -14t-2.5 -13l-47 -183h-48l-47 183q-1 5 -2.5 12t-1.5 15z" />
    <glyph glyph-name="numbersign" unicode="#" horiz-adv-x="733" 
d="M444 427h-130l-33 -165h130zM392 166h-130l-32 -166h-106l33 166h-123v96h141l33 165h-125v95h143l37 187h106l-38 -187h131l37 187h106l-37 -187h131v-95h-149l-33 -165h132v-96h-150l-33 -166h-106z" />
    <glyph glyph-name="dollar" unicode="$" horiz-adv-x="585" 
d="M252 -116v119q-55 7 -95 29t-66.5 51.5t-41 64t-18.5 67.5l122 31q2 -25 12 -48.5t29 -41.5t46 -28.5t64 -10.5q53 0 82 24t29 60q0 31 -22 52t-61 29l-97 19q-83 17 -130.5 68.5t-47.5 126.5q0 41 15 76.5t41 63t62 45.5t77 25v119h103v-121q44 -8 76.5 -26t54 -42
t34 -52t17.5 -54l-119 -35q-2 15 -9.5 31.5t-22.5 31t-37.5 23.5t-54.5 9q-48 0 -77 -25t-29 -59q0 -29 18 -49.5t57 -28.5l95 -18q94 -18 142.5 -73t48.5 -127q0 -36 -12.5 -69.5t-37.5 -61.5t-61 -48t-83 -27v-120h-103z" />
    <glyph glyph-name="percent" unicode="%" horiz-adv-x="845" 
d="M135 0l456 709h118l-456 -709h-118zM363 557q0 -35 -13.5 -65t-36 -52t-53 -34t-64.5 -12t-64 12.5t-52.5 34.5t-35.5 51.5t-13 64.5q0 34 13.5 64t36 52t52.5 34.5t64 12.5t64 -12.5t52.5 -34.5t36 -52t13.5 -64zM130 557q0 -32 19 -51t48 -19t47 19.5t18 50.5
q0 30 -18 49.5t-47 19.5t-48 -19.5t-19 -49.5zM481 152q0 34 13.5 64t36 52t52.5 34.5t64 12.5t64.5 -12.5t53 -34.5t36 -52t13.5 -64q0 -35 -13.5 -65t-36 -51.5t-53 -34t-64.5 -12.5t-64.5 12.5t-53 34.5t-35.5 52t-13 64zM713 152q0 31 -18.5 50t-47.5 19q-28 0 -47 -19
t-19 -50q0 -32 19 -51t47 -19q29 0 47.5 19.5t18.5 50.5z" />
    <glyph glyph-name="ampersand" unicode="&#x26;" horiz-adv-x="700" 
d="M447 76q-40 -41 -86.5 -65.5t-103.5 -24.5q-52 0 -92 16.5t-67.5 43t-41.5 60.5t-14 70q0 33 8.5 59.5t24 49.5t38 43.5t50.5 41.5l5 3l-11 12q-13 13 -26.5 30t-25 36.5t-19 41.5t-7.5 46q0 45 17 79.5t45 58t63 35.5t71 12q42 0 78.5 -13t62.5 -36.5t41 -56.5t15 -73
q0 -27 -8.5 -50.5t-22.5 -43.5t-32 -37t-37 -31l-27 -20l107 -113l96 100l83 -79l-99 -104l160 -167h-172zM259 102q32 0 57 16t51 43l-121 128l-15 -11q-26 -19 -41.5 -40.5t-15.5 -53.5q0 -31 23 -56.5t62 -25.5zM205 543q0 -23 14 -43t28 -34l19 -21l35 26q25 18 35 36.5
t10 38.5q0 29 -20 48.5t-52 19.5q-25 0 -47 -17.5t-22 -53.5z" />
    <glyph glyph-name="quotesingle" unicode="'" horiz-adv-x="232" 
d="M41 645q0 32 21.5 53.5t53.5 21.5t53 -21.5t21 -53.5q0 -6 -0.5 -14t-2.5 -13l-48 -183h-47l-47 183q-1 5 -2.5 12t-1.5 15z" />
    <glyph glyph-name="parenleft" unicode="(" horiz-adv-x="338" 
d="M41 322q0 86 16.5 158t45 133t66.5 112t82 94l77 -71q-40 -43 -72.5 -89.5t-55 -99t-35 -111.5t-12.5 -126q0 -135 47.5 -238.5t127.5 -188.5l-77 -70q-44 43 -82 93.5t-66.5 111.5t-45 133.5t-16.5 158.5z" />
    <glyph glyph-name="parenright" unicode=")" horiz-adv-x="338" 
d="M297 322q0 -86 -16.5 -158.5t-45 -133.5t-66.5 -111.5t-82 -93.5l-77 70q80 85 127.5 188.5t47.5 238.5q0 67 -12.5 126t-35 111.5t-55 99t-72.5 89.5l77 71q44 -43 82 -94t66.5 -112t45 -133t16.5 -158z" />
    <glyph glyph-name="asterisk" unicode="*" horiz-adv-x="473" 
d="M290 582l116 39l33 -98l-118 -38l74 -100l-83 -61l-76 101l-74 -101l-83 62l73 99l-118 38l32 98l117 -39v127h107v-127z" />
    <glyph glyph-name="plus" unicode="+" horiz-adv-x="565" 
d="M339 403h189v-109h-189v-195h-113v195h-189v109h189v195h113v-195z" />
    <glyph glyph-name="comma" unicode="," horiz-adv-x="283" 
d="M46 80q0 36 26 60t65 24q47 0 73 -33t26 -82q0 -55 -17 -95t-43 -66t-57 -40t-59 -17v64q17 4 33.5 13.5t30 23.5t22 32t9.5 39q-8 -6 -26 -6q-37 0 -60 23.5t-23 59.5z" />
    <glyph glyph-name="hyphen" unicode="-" horiz-adv-x="414" 
d="M62 238v118h290v-118h-290z" />
    <glyph glyph-name="period" unicode="." horiz-adv-x="275" 
d="M46 84q0 38 26.5 64.5t64.5 26.5q19 0 36 -7t29.5 -19.5t19.5 -29t7 -35.5t-7 -35.5t-19.5 -29t-29.5 -19.5t-36 -7q-38 0 -64.5 26.5t-26.5 64.5z" />
    <glyph glyph-name="slash" unicode="/" horiz-adv-x="516" 
d="M145 0h-120l346 709h121z" />
    <glyph glyph-name="zero" unicode="0" horiz-adv-x="672" 
d="M47 354q0 69 12 134t48 119q35 53 91 85t137 32t137.5 -32t91.5 -85q35 -54 48 -119t13 -134t-13 -133.5t-48 -118.5q-35 -53 -91.5 -85t-137.5 -32t-137 32t-91 85q-36 54 -48 118.5t-12 133.5zM185 354q0 -63 9.5 -111.5t32.5 -80.5q18 -25 44 -40t64 -15q39 0 65 15
t44 40q23 32 33 80.5t10 111.5t-10 111.5t-33 80.5q-18 25 -44 40t-65 15q-38 0 -64 -15t-44 -40q-23 -32 -32.5 -80.5t-9.5 -111.5z" />
    <glyph glyph-name="one" unicode="1" horiz-adv-x="397" 
d="M192 0v477h-170v94q38 1 70 12.5t56.5 30t40 43t20.5 52.5h120v-709h-137z" />
    <glyph glyph-name="two" unicode="2" horiz-adv-x="602" 
d="M53 451q-2 8 -3 20t-1 24q0 46 17.5 87.5t50 73t79 50t104.5 18.5q57 0 103 -18t78.5 -48.5t50 -71.5t17.5 -86q0 -70 -38 -125.5t-99 -94.5l-133 -85q-25 -16 -43 -34t-26 -41h343v-120h-510q1 93 40 165t130 131l112 72q45 29 65.5 60t20.5 69q0 21 -7.5 40t-21.5 33.5
t-35.5 23t-48.5 8.5q-56 0 -85.5 -33.5t-29.5 -86.5q0 -8 1 -19t3 -22z" />
    <glyph glyph-name="three" unicode="3" horiz-adv-x="618" 
d="M164 225q4 -53 41.5 -87t101.5 -34q56 0 90.5 28.5t34.5 70.5q0 46 -32 72.5t-89 26.5h-80v120h77q58 0 86.5 25.5t28.5 63.5t-31.5 65t-88.5 27q-28 0 -51 -9t-39.5 -24.5t-26 -36t-10.5 -42.5l-126 24q1 41 20.5 78.5t53 66.5t79.5 46.5t102 17.5q60 0 107.5 -15.5
t80 -42.5t49.5 -63.5t17 -78.5q0 -59 -33 -100t-85 -57q27 -7 50.5 -22.5t41.5 -38t28 -50.5t10 -60q0 -43 -18.5 -81.5t-53 -67t-83.5 -45.5t-109 -17q-63 0 -112 18t-83 47.5t-53.5 68.5t-23.5 81z" />
    <glyph glyph-name="four" unicode="4" horiz-adv-x="643" 
d="M29 301l299 408h175v-435h112v-118h-112v-156h-137v156h-337v145zM366 570l-216 -296h216v296z" />
    <glyph glyph-name="five" unicode="5" horiz-adv-x="604" 
d="M160 228q2 -26 12.5 -48.5t28.5 -39.5t42 -27t54 -10q27 0 51 9t42 25.5t28.5 39.5t10.5 52q0 31 -11.5 54.5t-30 39.5t-43 23.5t-50.5 7.5q-38 0 -69 -14.5t-49 -35.5q-8 3 -25.5 9.5t-37 13.5t-37 13.5t-24.5 9.5l75 359h404v-120h-310l-35 -169q23 22 61 34.5t74 12.5
q54 0 99.5 -16t77.5 -46.5t50 -74.5t18 -100q0 -49 -18.5 -93.5t-53.5 -78t-85 -53.5t-113 -20q-58 0 -105.5 17.5t-82 47t-54.5 68t-24 80.5z" />
    <glyph glyph-name="six" unicode="6" horiz-adv-x="640" 
d="M345 605q-41 0 -71.5 -17.5t-50.5 -48.5t-29.5 -72.5t-9.5 -90.5q8 16 24 31t38.5 27t51 19t62.5 7q49 0 93 -16t76 -45.5t51 -72t19 -94.5q0 -56 -20.5 -101.5t-56 -77.5t-83.5 -50t-103 -18q-60 0 -112.5 22t-92 67t-62.5 112.5t-23 159.5q0 95 23 166t63.5 118
t95 70.5t117.5 23.5q58 0 103 -16t76.5 -42.5t49.5 -62t24 -74.5l-133 -17q-2 17 -10.5 34t-23 30t-36 21t-50.5 8zM204 225q0 -28 10 -50.5t27.5 -39t41.5 -25.5t52 -9q54 0 90 33t36 91q0 59 -36.5 91t-88.5 32q-27 0 -51 -8.5t-42 -24.5t-28.5 -39t-10.5 -51z" />
    <glyph glyph-name="seven" unicode="7" horiz-adv-x="560" 
d="M547 585q-24 -20 -66.5 -64.5t-86.5 -116.5t-80 -172t-48 -232h-143q8 97 30.5 178.5t52.5 146.5t62.5 114t60 82t46 50t19.5 18h-372v120h525v-124z" />
    <glyph glyph-name="eight" unicode="8" horiz-adv-x="632" 
d="M316 412q57 0 87.5 28.5t30.5 70.5q0 19 -8 36.5t-23 31t-37 21.5t-50 8t-50 -8t-37 -21.5t-23 -31t-8 -36.5q0 -42 30.5 -70.5t87.5 -28.5zM316 101q32 0 56.5 8t41.5 22t26 32.5t9 39.5q0 42 -33 73.5t-100 31.5t-100 -31.5t-33 -73.5q0 -21 9 -39.5t26 -32.5t41.5 -22
t56.5 -8zM316 -14q-62 0 -112 15.5t-85 42.5t-54 64.5t-19 81.5q0 60 36 106t93 66q-53 19 -83.5 63.5t-30.5 96.5q0 44 19.5 81t53.5 63.5t80.5 41.5t101.5 15t101.5 -15t80.5 -41.5t53.5 -63.5t19.5 -81q0 -25 -8 -50t-22.5 -46.5t-35.5 -38t-48 -25.5q57 -18 93 -65
t36 -107q0 -44 -19 -81.5t-54 -64.5t-85 -42.5t-112 -15.5z" />
    <glyph glyph-name="nine" unicode="9" horiz-adv-x="637" 
d="M303 104q72 0 110.5 53t38.5 160v12q-8 -16 -22.5 -31.5t-36 -27.5t-49.5 -19.5t-62 -7.5q-49 0 -93 17t-77 47.5t-52 74t-19 96.5q0 54 20 99t55.5 78t84 51t105.5 18q61 0 113.5 -22t90.5 -67t59.5 -113.5t21.5 -162.5q0 -184 -76.5 -279t-214.5 -95q-54 0 -98 15
t-76.5 41t-52 61t-23.5 75l132 22q2 -18 10.5 -35.5t23.5 -30.5t37 -21t50 -8zM432 482q0 28 -9.5 50.5t-26.5 39t-40 25.5t-50 9q-30 0 -53 -10.5t-39.5 -28.5t-25 -41t-8.5 -48q0 -54 35 -87.5t88 -33.5q27 0 50.5 9t41 25t27.5 39t10 52z" />
    <glyph glyph-name="colon" unicode=":" horiz-adv-x="299" 
d="M59 82q0 38 26 64t64 26q18 0 35 -7t29 -19t19 -28.5t7 -35.5q0 -18 -7 -34.5t-19 -28.5t-29 -19t-35 -7q-38 0 -64 26t-26 63zM58 409q0 38 26 64t64 26q18 0 35 -7t29 -19t19 -28.5t7 -35.5q0 -18 -7 -34.5t-19 -28.5t-29 -19t-35 -7q-38 0 -64 26t-26 63z" />
    <glyph glyph-name="semicolon" unicode=";" horiz-adv-x="299" 
d="M59 75q0 34 24.5 57t61.5 23q45 0 69.5 -31.5t24.5 -77.5q0 -53 -16 -91t-41 -62.5t-54 -38t-56 -16.5v61q16 4 31.5 13t28.5 22.5t21 30.5t9 37q-7 -6 -24 -6q-36 0 -57.5 22.5t-21.5 56.5zM57 409q0 38 26 64t64 26q18 0 35 -7t29 -19t19 -28.5t7 -35.5q0 -18 -7 -34.5
t-19 -28.5t-29 -19t-35 -7q-38 0 -64 26t-26 63z" />
    <glyph glyph-name="less" unicode="&#x3c;" horiz-adv-x="530" 
d="M463 207v-125l-430 216v101l430 218v-124l-295 -142z" />
    <glyph glyph-name="equal" unicode="=" horiz-adv-x="608" 
d="M62 396v107h484v-107h-484zM62 197v107h484v-107h-484z" />
    <glyph glyph-name="greater" unicode="&#x3e;" horiz-adv-x="530" 
d="M363 348l-296 144v125l430 -218v-100l-430 -217v123z" />
    <glyph glyph-name="question" unicode="?" horiz-adv-x="529" 
d="M195 216q-2 10 -3 20t-1 21q0 40 18 76.5t61 68.5l48 36q43 32 43 79q0 17 -6 33.5t-18.5 29t-31.5 20t-44 7.5q-27 0 -46 -10t-31.5 -25.5t-18.5 -36t-6 -41.5q0 -20 4 -32l-126 5q-3 11 -4 22.5t-1 22.5q0 40 15 78.5t44 68t71.5 47.5t98.5 18q58 0 102 -17t74 -44.5
t45 -63.5t15 -74q0 -60 -27 -102.5t-72 -74.5l-41 -29q-26 -19 -40 -42.5t-14 -54.5v-6h-108zM172 71q0 33 23 56.5t56 23.5t56.5 -23.5t23.5 -56.5t-23.5 -56t-56.5 -23t-56 23t-23 56z" />
    <glyph glyph-name="at" unicode="@" horiz-adv-x="831" 
d="M595 138q-42 0 -66 18t-31 43q-19 -31 -50.5 -47t-65.5 -16q-33 0 -60.5 12.5t-48 35.5t-32 55t-11.5 70q0 49 16 90.5t43 71.5t62.5 46.5t75.5 16.5q29 0 57.5 -14t39.5 -43l8 44h95l-52 -245q-2 -10 -2 -18q0 -13 8 -23t24 -10q18 0 36 13t31.5 35.5t22 53.5t8.5 67
q0 53 -19.5 97t-54 75.5t-83.5 49t-107 17.5q-63 0 -116.5 -21.5t-92.5 -61.5t-61.5 -95.5t-22.5 -122.5q0 -62 20.5 -115.5t59 -92.5t94.5 -61.5t127 -22.5q48 0 95 13.5t89 45.5l48 -68q-20 -18 -48 -33t-59 -25.5t-63 -16t-62 -5.5q-88 0 -161.5 27.5t-127 77
t-83.5 119.5t-30 155q0 87 31 159.5t84.5 124.5t125 81t152.5 29q77 0 143 -25t114 -69t75.5 -104.5t27.5 -130.5q0 -57 -17 -104t-45.5 -81t-65 -52.5t-75.5 -19.5zM502 365q0 36 -17.5 57.5t-50.5 21.5q-23 0 -41.5 -10.5t-31.5 -27.5t-20.5 -40t-7.5 -48q0 -40 16.5 -66
t54.5 -26q42 0 69 39.5t29 99.5z" />
    <glyph glyph-name="A" unicode="A" horiz-adv-x="721" 
d="M502 162h-288l-59 -162h-146l272 709h160l270 -709h-150zM260 288h196l-98 268z" />
    <glyph glyph-name="B" unicode="B" horiz-adv-x="620" 
d="M338 709q52 0 92 -14.5t67.5 -40t42 -60.5t14.5 -76q0 -55 -29 -96t-74 -56q26 -6 48.5 -21t39.5 -36.5t27 -49.5t10 -61q0 -43 -15.5 -79.5t-44 -62.5t-69 -41t-90.5 -15h-274v709h255zM317 416q48 0 74.5 24t26.5 65t-25.5 64.5t-76.5 23.5h-97v-177h98zM331 115
q51 0 79 24.5t28 67.5q0 42 -26.5 68.5t-78.5 26.5h-114v-187h112z" />
    <glyph glyph-name="C" unicode="C" horiz-adv-x="756" 
d="M404 -15q-74 0 -140 26t-115.5 74t-78.5 116t-29 153t29.5 153.5t79.5 116.5t115.5 74t136.5 26q73 0 129.5 -20.5t96 -54t64 -75.5t35.5 -85l-130 -41q-6 25 -20 51t-37.5 46t-57.5 33t-80 13q-40 0 -79 -14.5t-70 -43.5t-50 -74t-19 -105q0 -57 18.5 -100.5t49 -73
t70 -45t82.5 -15.5q45 0 79.5 13.5t58.5 34.5t39 46.5t22 50.5l129 -39q-10 -41 -34.5 -83.5t-65 -77.5t-97 -57.5t-131.5 -22.5z" />
    <glyph glyph-name="D" unicode="D" horiz-adv-x="730" 
d="M331 128q43 0 82 13.5t68 41.5t46 70.5t17 100.5t-17 100.5t-45.5 70.5t-67.5 42t-82 14h-111v-453h110zM83 0v709h254q76 0 140 -24t110.5 -69.5t73 -111.5t26.5 -150t-26.5 -150t-73.5 -111t-111 -69t-140 -24h-253z" />
    <glyph glyph-name="E" unicode="E" horiz-adv-x="579" 
d="M83 0v709h444v-130h-306v-162h277v-123h-277v-164h306v-130h-444z" />
    <glyph glyph-name="F" unicode="F" horiz-adv-x="569" 
d="M83 0v709h448v-131h-310v-175h276v-127h-275v-276h-139z" />
    <glyph glyph-name="G" unicode="G" horiz-adv-x="776" 
d="M605 0l-9 81q-11 -18 -29 -35.5t-43.5 -31t-58.5 -21.5t-73 -8q-71 0 -134.5 25.5t-111.5 73t-76.5 116t-28.5 154.5t29.5 154.5t79 116.5t115 73.5t136.5 25.5q70 0 124.5 -18t94 -48t65.5 -68.5t38 -79.5l-132 -47q-7 24 -21.5 47.5t-37.5 42t-55.5 30.5t-75.5 12
q-39 0 -78.5 -14t-71 -43.5t-51 -75t-19.5 -108.5q0 -60 18 -105.5t49 -76t70.5 -46t83.5 -15.5q49 0 83.5 14.5t56.5 36t32.5 45.5t13.5 43h-176v120h305v-370h-112z" />
    <glyph glyph-name="H" unicode="H" horiz-adv-x="752" 
d="M530 0v294h-309v-294h-138v709h138v-285h309v285h139v-709h-139z" />
    <glyph glyph-name="I" unicode="I" horiz-adv-x="306" 
d="M83 0v709h140v-709h-140z" />
    <glyph glyph-name="J" unicode="J" horiz-adv-x="561" 
d="M21 226l133 23v-20q0 -59 28 -87.5t70 -28.5q44 0 69 28t25 75v493h138v-490q0 -48 -16.5 -90.5t-47 -74.5t-73 -50.5t-94.5 -18.5q-53 0 -95.5 16.5t-73 46.5t-47 72t-16.5 93v13z" />
    <glyph glyph-name="K" unicode="K" horiz-adv-x="688" 
d="M309 294l-88 -97v-197h-138v709h138v-321l284 321h181l-281 -309l283 -400h-173z" />
    <glyph glyph-name="L" unicode="L" horiz-adv-x="553" 
d="M83 0v709h138v-577h316v-132h-454z" />
    <glyph glyph-name="M" unicode="M" horiz-adv-x="954" 
d="M735 0v492l-200 -492h-118l-199 492v-492h-135v709h188l207 -513l203 513h190v-709h-136z" />
    <glyph glyph-name="N" unicode="N" horiz-adv-x="771" 
d="M543 0l-322 503v-503h-138v709h172l295 -469v469h138v-709h-145z" />
    <glyph glyph-name="O" unicode="O" horiz-adv-x="811" 
d="M184 355q0 -60 19 -104.5t50.5 -73.5t71 -43.5t80.5 -14.5t81 14.5t71.5 43.5t50.5 73.5t19 104.5t-19 104.5t-50.5 73.5t-71.5 43.5t-81 14.5t-80.5 -14.5t-71 -43.5t-50.5 -73.5t-19 -104.5zM41 354q0 86 30 154.5t80 116.5t116 73.5t138 25.5t138.5 -25.5t116.5 -73.5
t80 -116.5t30 -154.5t-30 -154t-80 -116t-116.5 -73.5t-138.5 -25.5t-138 25.5t-116 73.5t-80 116t-30 154z" />
    <glyph glyph-name="P" unicode="P" horiz-adv-x="605" 
d="M331 386q52 0 81.5 27.5t29.5 73.5q0 48 -29.5 75t-81.5 27h-109v-203h109zM221 267v-267h-138v709h265q52 0 95 -16.5t74 -46t47.5 -70t16.5 -88.5t-16.5 -89t-47.5 -70t-74 -45.5t-95 -16.5h-127z" />
    <glyph glyph-name="Q" unicode="Q" horiz-adv-x="811" 
d="M41 354q0 86 30 154.5t80 116.5t116 73.5t138 25.5t138.5 -25.5t116.5 -73.5t80 -116.5t30 -154.5q0 -75 -23 -136.5t-64 -108.5l85 -94l-91 -78l-87 96q-42 -23 -88.5 -35.5t-96.5 -12.5q-72 0 -138 25.5t-116 73.5t-80 116t-30 154zM184 355q0 -60 19 -104.5
t50.5 -73.5t71 -43.5t80.5 -14.5q49 0 91 18l-111 122l92 79l111 -124q18 27 28.5 62t10.5 79q0 60 -19 104.5t-50.5 73.5t-71.5 43.5t-81 14.5t-80.5 -14.5t-71 -43.5t-50.5 -73.5t-19 -104.5z" />
    <glyph glyph-name="R" unicode="R" horiz-adv-x="630" 
d="M294 273h-72v-273h-139v709h277q52 0 93.5 -17t71 -46t45.5 -69t16 -86q0 -75 -40.5 -128t-110.5 -73l152 -290h-154zM334 392q53 0 82 27t29 71q0 45 -29 72t-82 27h-112v-197h112z" />
    <glyph glyph-name="S" unicode="S" horiz-adv-x="611" 
d="M437 502q-3 15 -10.5 32.5t-22.5 32.5t-38.5 25t-57.5 10q-25 0 -45.5 -7.5t-35 -20t-22.5 -28.5t-8 -34q0 -29 19 -50.5t58 -29.5l99 -19q48 -9 85 -29t62 -47.5t38 -61.5t13 -71q0 -41 -17 -80.5t-49.5 -70t-80 -49.5t-109.5 -19q-71 0 -122 20.5t-85.5 52.5
t-52.5 71.5t-22 77.5l128 34q2 -26 12.5 -50t29.5 -42.5t47 -29.5t66 -11q56 0 85.5 24.5t29.5 62.5q0 31 -22 53.5t-64 30.5l-99 20q-85 17 -135.5 69.5t-50.5 133.5q0 47 19.5 87.5t53.5 70.5t79 47t95 17q64 0 109.5 -17.5t75.5 -44.5t46.5 -59.5t22.5 -62.5z" />
    <glyph glyph-name="T" unicode="T" horiz-adv-x="619" 
d="M379 578v-578h-139v578h-224v131h587v-131h-224z" />
    <glyph glyph-name="U" unicode="U" horiz-adv-x="699" 
d="M349 -16q-57 0 -106.5 17t-86 51t-58 84t-21.5 115v458h138v-448q0 -70 36 -106t98 -36q63 0 99 36t36 106v448h138v-458q0 -65 -21.5 -115t-58 -84t-86.5 -51t-107 -17z" />
    <glyph glyph-name="V" unicode="V" horiz-adv-x="689" 
d="M532 709h146l-263 -709h-142l-262 709h151l185 -527z" />
    <glyph glyph-name="W" unicode="W" horiz-adv-x="1040" 
d="M880 709h141l-196 -709h-142l-162 505l-162 -505h-144l-197 709h146l130 -488l157 488h143l158 -490z" />
    <glyph glyph-name="X" unicode="X" horiz-adv-x="650" 
d="M410 354l233 -354h-167l-153 245l-154 -245h-162l233 355l-232 354h166l152 -245l155 245h161z" />
    <glyph glyph-name="Y" unicode="Y" horiz-adv-x="659" 
d="M13 709h162l159 -281l159 281h155l-250 -411v-298h-138v298z" />
    <glyph glyph-name="Z" unicode="Z" horiz-adv-x="643" 
d="M41 0v134l369 444h-356v131h540v-129l-375 -448h380v-132h-558z" />
    <glyph glyph-name="bracketleft" unicode="[" horiz-adv-x="325" 
d="M68 -164v974h231v-101h-120v-770h120v-103h-231z" />
    <glyph glyph-name="backslash" unicode="\" horiz-adv-x="515" 
d="M23 709h123l344 -709h-122z" />
    <glyph glyph-name="bracketright" unicode="]" horiz-adv-x="325" 
d="M26 -164v103h119v770h-119v101h231v-974h-231z" />
    <glyph glyph-name="asciicircum" unicode="^" horiz-adv-x="566" 
d="M407 351l-123 231l-123 -231h-127l198 358h102l198 -358h-125z" />
    <glyph glyph-name="underscore" unicode="_" horiz-adv-x="521" 
d="M5 -109v109h511v-109h-511z" />
    <glyph glyph-name="grave" unicode="`" horiz-adv-x="296" 
d="M26 701h154l90 -150h-108z" />
    <glyph glyph-name="a" unicode="a" horiz-adv-x="538" 
d="M39 134q0 33 11.5 58.5t31.5 44.5t46.5 30t57.5 16l121 18q21 3 29 12.5t8 22.5q0 26 -20.5 45t-62.5 19q-44 0 -67.5 -24t-26.5 -56l-118 25q3 29 18 58t41 52t64 37.5t88 14.5q58 0 99 -15.5t66.5 -41t37 -59.5t11.5 -71v-242q0 -20 2 -42.5t4 -35.5h-122
q-2 10 -3.5 27.5t-1.5 31.5q-19 -29 -54.5 -51t-90.5 -22q-39 0 -70.5 12.5t-53.5 33t-33.5 47t-11.5 55.5zM236 85q21 0 40.5 5.5t34.5 19t24 35t9 54.5v22l-111 -17q-26 -4 -43.5 -18.5t-17.5 -43.5q0 -22 16 -39.5t48 -17.5z" />
    <glyph glyph-name="b" unicode="b" horiz-adv-x="614" 
d="M68 0v724h131v-286q17 26 55.5 46.5t93.5 20.5q54 0 96 -19.5t71.5 -54t44.5 -81.5t15 -102q0 -56 -16.5 -103.5t-47 -82.5t-73.5 -54.5t-95 -19.5q-51 0 -88.5 20t-57.5 52v-60h-129zM442 247q0 68 -35.5 103.5t-86.5 35.5q-25 0 -47.5 -9t-39 -26.5t-26.5 -43.5
t-10 -60q0 -33 10 -59t26.5 -44t39 -27.5t47.5 -9.5q51 0 86.5 36t35.5 104z" />
    <glyph glyph-name="c" unicode="c" horiz-adv-x="556" 
d="M296 384q-26 0 -48.5 -9t-39.5 -26.5t-27 -43.5t-10 -59t10 -59t27.5 -44t40 -27t48.5 -9q25 0 44.5 7.5t33.5 19.5t22.5 27t12.5 29l117 -39q-8 -31 -26.5 -60.5t-47.5 -53t-68 -38t-88 -14.5q-54 0 -101.5 19.5t-82.5 54.5t-55 82.5t-20 104.5t19.5 105t54 82.5t81 54
t100.5 19.5q50 0 89.5 -14.5t68.5 -37.5t47 -53t26 -61l-119 -40q-9 31 -34.5 57t-74.5 26z" />
    <glyph glyph-name="d" unicode="d" horiz-adv-x="612" 
d="M544 89q0 -25 1 -49.5t3 -39.5h-127q-2 8 -3.5 24t-1.5 33q-17 -29 -52.5 -49t-85.5 -20q-53 0 -97 19.5t-75.5 54t-49.5 82t-18 103.5q0 54 17.5 101t48.5 81.5t74.5 54.5t95.5 20q32 0 55.5 -6t40.5 -15t27.5 -19.5t15.5 -20.5v281h131v-635zM172 247q0 -66 34.5 -103
t87.5 -37q51 0 86 37t35 104q0 66 -35 101.5t-86 35.5t-86.5 -36t-35.5 -102z" />
    <glyph glyph-name="e" unicode="e" horiz-adv-x="563" 
d="M393 301q-1 18 -7.5 36t-20 31.5t-34 22t-48.5 8.5q-26 0 -46 -9t-34 -23t-21.5 -31.5t-8.5 -34.5h220zM513 133q-10 -31 -29.5 -58t-47.5 -47t-64.5 -31.5t-80.5 -11.5q-51 0 -96.5 17.5t-80 51t-55 82.5t-20.5 112q0 59 20 107t54 81.5t77.5 52t90.5 18.5
q115 0 179 -68t64 -187q0 -14 -1 -26.5t-1 -14.5h-352q1 -25 11 -45.5t26.5 -35.5t38 -23t46.5 -8q44 0 71 19.5t38 49.5z" />
    <glyph glyph-name="f" unicode="f" horiz-adv-x="376" 
d="M315 614q-11 0 -23.5 -3t-22.5 -10.5t-16.5 -20.5t-6.5 -34v-54h111v-114h-111v-378h-134v378h-82v114h82v56q0 42 12.5 75.5t36 57.5t56.5 37t74 13q21 0 39.5 -3t26.5 -7v-112q-5 2 -15 3.5t-27 1.5z" />
    <glyph glyph-name="g" unicode="g" horiz-adv-x="605" 
d="M159 -1q8 -35 39 -61t79 -26q62 0 95.5 32t33.5 105v36q-15 -24 -49 -43.5t-88 -19.5q-49 0 -91 18t-72.5 50t-48 75.5t-17.5 95.5q0 49 17 92.5t47 76.5t72 52t93 19q59 0 93 -21t47 -46v58h128v-439q0 -51 -14.5 -97.5t-46 -82t-80 -57t-117.5 -21.5q-50 0 -91.5 14
t-72.5 37.5t-50.5 54.5t-25.5 65zM292 136q51 0 83.5 34t32.5 91t-34 90.5t-82 33.5q-25 0 -46.5 -8.5t-37.5 -25t-25 -39.5t-9 -51q0 -58 33 -91.5t85 -33.5z" />
    <glyph glyph-name="h" unicode="h" horiz-adv-x="580" 
d="M201 0h-133v724h133v-273q24 29 61 41.5t72 12.5q47 0 81.5 -15.5t57 -41.5t33.5 -62t11 -76v-310h-133v287q0 42 -21.5 70t-69.5 28q-42 0 -66 -27.5t-26 -68.5v-289z" />
    <glyph glyph-name="i" unicode="i" horiz-adv-x="269" 
d="M68 0v492h133v-492h-133zM52 653q0 35 24 59t58 24q35 0 58.5 -24t23.5 -59q0 -33 -23.5 -57t-58.5 -24q-34 0 -58 24t-24 57z" />
    <glyph glyph-name="j" unicode="j" horiz-adv-x="269" 
d="M68 492h133v-535q0 -36 -10.5 -65.5t-30.5 -51t-48.5 -33.5t-64.5 -12q-29 0 -49.5 4.5t-25.5 6.5v111q7 -2 17 -3.5t24 -1.5q30 0 42.5 15.5t12.5 42.5v522zM52 654q0 35 24 59t58 24q35 0 58.5 -24t23.5 -59q0 -34 -23.5 -57.5t-58.5 -23.5q-34 0 -58 23.5t-24 57.5z
" />
    <glyph glyph-name="k" unicode="k" horiz-adv-x="558" 
d="M348 285l201 -285h-163l-130 188l-55 -58v-130h-133v724h133v-415l170 183h174z" />
    <glyph glyph-name="l" unicode="l" horiz-adv-x="269" 
d="M68 0v724h133v-724h-133z" />
    <glyph glyph-name="m" unicode="m" horiz-adv-x="882" 
d="M68 0v492h127v-60q10 18 26 32t35.5 23t41 14t41.5 5q51 0 89 -21t57 -61q29 45 68 63.5t88 18.5q34 0 66 -10.5t57 -33.5t40 -58.5t15 -84.5v-319h-129v292q0 40 -20.5 66.5t-66.5 26.5q-43 0 -67 -28.5t-24 -68.5v-288h-132v292q0 40 -21 66.5t-66 26.5q-44 0 -68 -28
t-24 -69v-288h-133z" />
    <glyph glyph-name="n" unicode="n" horiz-adv-x="580" 
d="M201 0h-133v492h129v-61q23 38 62.5 56t79.5 18q46 0 79.5 -15.5t55.5 -41.5t32.5 -62t10.5 -76v-310h-133v287q0 42 -21.5 70t-69.5 28q-44 0 -68 -29.5t-24 -72.5v-283z" />
    <glyph glyph-name="o" unicode="o" horiz-adv-x="592" 
d="M296 106q24 0 47 9t40 26.5t27.5 43.5t10.5 61t-10.5 61t-27.5 43.5t-40 26.5t-47 9t-47 -9t-40 -26.5t-27.5 -43.5t-10.5 -61t10.5 -61t27.5 -43.5t40 -26.5t47 -9zM296 507q55 0 102.5 -19.5t82 -54t54 -82.5t19.5 -105t-19.5 -104.5t-54 -82.5t-82 -54.5t-102.5 -19.5
t-102.5 19.5t-82 54.5t-54 82.5t-19.5 104.5t19.5 105t54 82.5t82 54t102.5 19.5z" />
    <glyph glyph-name="p" unicode="p" horiz-adv-x="614" 
d="M68 -190v682h129v-60q17 29 56 50t95 21q54 0 96 -19.5t71.5 -54t44.5 -81t15 -101.5q0 -56 -16.5 -103.5t-47 -82t-73.5 -54t-95 -19.5q-51 0 -87.5 17.5t-54.5 42.5v-238h-133zM444 246q0 66 -35.5 102t-86.5 36q-26 0 -48 -9.5t-39 -27t-26.5 -43t-9.5 -58.5
t9.5 -58.5t26.5 -43.5t39 -27.5t48 -9.5q51 0 86.5 36.5t35.5 102.5z" />
    <glyph glyph-name="q" unicode="q" horiz-adv-x="613" 
d="M415 -190v239q-17 -28 -52.5 -44.5t-84.5 -16.5q-53 0 -97 19.5t-75.5 54.5t-49.5 82t-18 103q0 54 17 101t47.5 81.5t74 54.5t97.5 20q32 0 56.5 -7t42.5 -17t29 -22.5t16 -22.5v57h127v-682h-130zM172 247q0 -66 35.5 -103t86.5 -37t86.5 37t35.5 103t-35.5 102
t-86.5 36t-86.5 -36t-35.5 -102z" />
    <glyph glyph-name="r" unicode="r" horiz-adv-x="385" 
d="M365 358q-20 4 -40 4q-26 0 -48.5 -7.5t-39 -24t-26.5 -43.5t-10 -67v-220h-133v492h129v-78q11 25 28 41t36 24.5t38.5 11.5t34.5 3q17 0 31 -3v-133z" />
    <glyph glyph-name="s" unicode="s" horiz-adv-x="471" 
d="M149 160q2 -29 24 -51t66 -22q33 0 49 14.5t16 34.5q0 17 -12 29.5t-41 18.5l-65 15q-72 16 -105 55.5t-33 91.5q0 36 16 65.5t42.5 51t59.5 33t68 11.5q52 0 88 -14.5t58 -36.5t32.5 -46.5t12.5 -44.5l-111 -23q-2 11 -6.5 22.5t-14.5 20.5t-24.5 15t-35.5 6
q-26 0 -44.5 -14t-18.5 -35q0 -18 12 -28.5t33 -15.5l70 -15q73 -15 109.5 -56t36.5 -95q0 -30 -12 -59t-36 -52t-60.5 -37t-84.5 -14q-36 0 -70.5 9t-62 28t-46 47.5t-24.5 67.5z" />
    <glyph glyph-name="t" unicode="t" horiz-adv-x="379" 
d="M241 492h99v-118h-99v-206q0 -32 14.5 -44.5t43.5 -12.5q12 0 24 1t17 3v-110q-9 -4 -27.5 -8t-47.5 -4q-72 0 -114 40t-42 112v229h-89v118h25q39 0 57.5 22.5t18.5 55.5v69h120v-147z" />
    <glyph glyph-name="u" unicode="u" horiz-adv-x="580" 
d="M390 0q-2 8 -3 23t-1 30q-20 -35 -58.5 -50.5t-77.5 -15.5q-45 0 -79.5 15.5t-58.5 41.5t-36.5 61.5t-12.5 75.5v311h133v-284q0 -42 21.5 -70.5t68.5 -28.5q45 0 69 27t24 70v286h133v-403q0 -29 1.5 -52.5t3.5 -36.5h-127z" />
    <glyph glyph-name="v" unicode="v" horiz-adv-x="554" 
d="M346 0h-133l-201 492h146l122 -330l117 330h140z" />
    <glyph glyph-name="w" unicode="w" horiz-adv-x="839" 
d="M493 492l106 -317l91 317h132l-154 -492h-133l-115 336l-113 -336h-135l-157 492h140l91 -316l107 316h140z" />
    <glyph glyph-name="x" unicode="x" horiz-adv-x="535" 
d="M189 247l-175 245h158q6 -10 20 -30.5t29 -42.5t29 -42.5t20 -30.5l97 146h151l-172 -241l178 -251h-156l-103 151q-7 -10 -21 -31t-30 -44.5t-30 -44.5t-20 -31h-150z" />
    <glyph glyph-name="y" unicode="y" horiz-adv-x="563" 
d="M105 -194l116 256l-209 430h149l131 -288l121 288h142l-309 -686h-141z" />
    <glyph glyph-name="z" unicode="z" horiz-adv-x="496" 
d="M44 0v117l233 260h-227v115h397v-111l-240 -265h244v-116h-407z" />
    <glyph glyph-name="braceleft" unicode="{" horiz-adv-x="368" 
d="M16 382q43 0 71.5 21t28.5 72v142q0 99 51.5 146t142.5 47h31v-101h-30q-37 0 -60 -19.5t-23 -69.5v-168q0 -48 -26.5 -80.5t-74.5 -45.5q48 -12 74.5 -45t26.5 -81v-167q0 -50 23 -70t60 -20h30v-101h-31q-91 0 -142.5 47.5t-51.5 146.5v142q0 51 -28.5 72t-71.5 21v111
z" />
    <glyph glyph-name="bar" unicode="|" horiz-adv-x="247" 
d="M68 -158v968h111v-968h-111z" />
    <glyph glyph-name="braceright" unicode="}" horiz-adv-x="367" 
d="M352 271q-43 0 -72 -21t-29 -72v-142q0 -99 -51.5 -146.5t-141.5 -47.5h-31v101h29q38 0 61 20t23 70v167q0 48 26 81t74 45q-48 13 -74 45.5t-26 80.5v168q0 50 -23 69.5t-61 19.5h-29v101h31q90 0 141.5 -47t51.5 -146v-142q0 -51 29 -72t72 -21v-111z" />
    <glyph glyph-name="asciitilde" unicode="~" horiz-adv-x="631" 
d="M262 259q-25 13 -50 13q-26 0 -49 -13t-40 -39l-74 59q28 51 71 78t95 27t104 -28l47 -26q13 -8 26.5 -11t26.5 -3q26 0 48.5 12.5t39.5 38.5l73 -59q-28 -51 -71 -77.5t-94 -26.5q-25 0 -52.5 7t-53.5 22z" />
    <glyph glyph-name="uni00A0" unicode="&#xa0;" horiz-adv-x="237" 
 />
    <glyph glyph-name="exclamdown" unicode="&#xa1;" horiz-adv-x="262" 
d="M211 -210h-160l32 493h97zM52 428q0 32 23 55.5t56 23.5q32 0 55.5 -23.5t23.5 -55.5q0 -33 -23.5 -56.5t-55.5 -23.5q-33 0 -56 23.5t-23 56.5z" />
    <glyph glyph-name="cent" unicode="&#xa2;" horiz-adv-x="567" 
d="M302 215q25 0 44 7t33.5 19t23.5 26.5t14 29.5l116 -37q-7 -28 -22 -54.5t-38 -48.5t-53 -38t-67 -23v-96h-103v97q-45 8 -83 30t-66 55t-43.5 76t-15.5 94t15.5 94.5t43.5 77t66 55.5t83 30v100h103v-102q74 -14 118.5 -59.5t58.5 -102.5l-118 -38q-5 16 -13.5 31
t-22 26.5t-32.5 18.5t-44 7q-54 0 -90 -36t-36 -102q0 -32 10 -57.5t27.5 -43t40.5 -27t50 -9.5z" />
    <glyph glyph-name="sterling" unicode="&#xa3;" horiz-adv-x="616" 
d="M281 303q2 -8 3 -16t1 -19q0 -44 -17.5 -86t-52.5 -66h158q43 0 68 26t26 69l117 -10q-1 -45 -14.5 -82t-38 -63.5t-60 -41t-80.5 -14.5h-338v106q47 19 76.5 59t29.5 93q0 12 -1.5 23t-3.5 22h-97v101h66q-9 24 -16.5 54t-7.5 61q0 42 15 79t44 65t71 44t95 16
q55 0 95 -17.5t65.5 -45t37.5 -62t13 -68.5l-116 -20q-2 47 -27 74.5t-68 27.5q-40 0 -67.5 -24t-27.5 -77q0 -28 8 -54.5t18 -52.5h191v-101h-165z" />
    <glyph glyph-name="currency" unicode="&#xa4;" horiz-adv-x="616" 
d="M414 168q-47 -26 -104 -26q-29 0 -55.5 7t-50.5 20l-73 -74l-81 80l73 73q-14 22 -21.5 49.5t-7.5 56.5q0 61 29 108l-73 74l81 79l74 -75q24 13 50 20t55 7q58 0 102 -26l74 74l80 -79l-70 -73q14 -22 22.5 -50t8.5 -59q0 -30 -8.5 -58t-22.5 -51l70 -70l-80 -80z
M205 354q0 -46 29.5 -75t75.5 -29t75 29t29 75t-29 75t-75 29t-75.5 -29t-29.5 -75z" />
    <glyph glyph-name="yen" unicode="&#xa5;" horiz-adv-x="670" 
d="M269 0v135h-185v95h185v67h-185v94h131l-186 318h150l160 -284l158 284h144l-190 -318h133v-94h-185v-67h185v-95h-185v-135h-130z" />
    <glyph glyph-name="brokenbar" unicode="&#xa6;" horiz-adv-x="259" 
d="M185 810v-398h-111v398h111zM185 240v-398h-111v398h111z" />
    <glyph glyph-name="section" unicode="&#xa7;" horiz-adv-x="527" 
d="M473 253q0 -47 -23.5 -77.5t-53.5 -47.5q38 -27 57.5 -63.5t19.5 -78.5q0 -44 -18 -79t-47 -60t-67.5 -38.5t-78.5 -13.5q-49 0 -87 13.5t-65 38t-42 58.5t-17 76l124 21q0 -48 24 -71.5t64 -23.5q33 0 54.5 19t21.5 51q0 20 -12 35.5t-32 26.5l-101 53q-27 14 -52.5 30
t-45 36t-31 45.5t-11.5 60.5q0 46 22.5 77.5t53.5 48.5q-38 28 -57 65t-19 78q0 43 17.5 78.5t47 60.5t68 38.5t79.5 13.5q48 0 86 -14t65 -38.5t42 -59t17 -75.5l-126 -20q0 48 -23.5 71t-61.5 23q-35 0 -56.5 -19.5t-21.5 -50.5q0 -18 11 -34.5t33 -26.5l100 -52
q28 -15 54 -31t45.5 -37t31 -47t11.5 -60zM207 347q-14 -11 -23 -25t-9 -31q0 -22 9 -37.5t34 -28.5l101 -54q14 11 23 25t9 32q0 20 -9.5 36.5t-33.5 29.5z" />
    <glyph glyph-name="dieresis" unicode="&#xa8;" horiz-adv-x="405" 
d="M27 628q0 29 20.5 50t49.5 21t50 -21t21 -50t-21 -49.5t-50 -20.5t-49.5 20.5t-20.5 49.5zM237 628q0 29 20 50t50 21q29 0 50 -21t21 -50t-21 -49.5t-50 -20.5q-30 0 -50 20.5t-20 49.5z" />
    <glyph glyph-name="copyright" unicode="&#xa9;" horiz-adv-x="822" 
d="M127 354q0 -61 22 -114t60 -92.5t89.5 -62t111.5 -22.5t111.5 22.5t89.5 62t60 92.5t22 114t-22 114.5t-60 93t-89.5 62t-111.5 22.5t-111.5 -22.5t-89.5 -62t-60 -93t-22 -114.5zM42 354q0 76 29 144t78.5 118t116.5 79.5t144 29.5q76 0 143.5 -29.5t118 -79.5
t79.5 -118t29 -144t-29 -143.5t-79.5 -117.5t-118 -79.5t-143.5 -29.5q-77 0 -144 29.5t-116.5 79.5t-78.5 117.5t-29 143.5zM413 458q-38 0 -66.5 -27t-28.5 -78t28.5 -78.5t67.5 -27.5t59.5 21t26.5 43l89 -30q-6 -23 -20.5 -45.5t-36 -40.5t-51.5 -29t-67 -11
q-41 0 -77 15t-62.5 41t-42 62.5t-15.5 79.5t15 80t41 63t61.5 41t76.5 15q38 0 68 -11t52 -28.5t36 -40t20 -46.5l-91 -31q-7 23 -26 43t-57 20z" />
    <glyph glyph-name="ordfeminine" unicode="&#xaa;" horiz-adv-x="419" 
d="M259 516l-73 -12q-18 -3 -29.5 -12t-11.5 -28q0 -15 10.5 -27t33.5 -12q13 0 25.5 3.5t22.5 12.5t16 23.5t6 36.5v15zM46 458q0 45 30.5 71t73.5 33l83 12q26 4 26 24q0 17 -13.5 29.5t-42.5 12.5t-45 -16.5t-18 -37.5l-87 19q2 19 12 39.5t29 37t46 27t64 10.5
q41 0 70 -11t47 -29t26 -42t8 -51v-169q0 -19 1.5 -34.5t2.5 -20.5h-90q-1 5 -2 15t-1 25q-14 -21 -38.5 -35.5t-61.5 -14.5q-28 0 -50.5 8.5t-38 23.5t-23.5 34t-8 40z" />
    <glyph glyph-name="guillemotleft" unicode="&#xab;" horiz-adv-x="551" 
d="M169 101l-137 194l138 197h125l-136 -198l136 -193h-126zM385 101l-136 194l137 197h126l-137 -198l136 -193h-126z" />
    <glyph glyph-name="logicalnot" unicode="&#xac;" horiz-adv-x="598" 
d="M417 190v195h-375v111h490v-306h-115z" />
    <glyph glyph-name="uni00AD" unicode="&#xad;" horiz-adv-x="414" 
d="M62 238v118h290v-118h-290z" />
    <glyph glyph-name="registered" unicode="&#xae;" horiz-adv-x="822" 
d="M42 354q0 76 29 144t78.5 118t116.5 79.5t144 29.5q76 0 143.5 -29.5t118 -79.5t79.5 -118t29 -144t-29 -143.5t-79.5 -117.5t-118 -79.5t-143.5 -29.5q-77 0 -144 29.5t-116.5 79.5t-78.5 117.5t-29 143.5zM127 354q0 -61 22 -114t60 -92.5t89.5 -62t111.5 -22.5
t111.5 22.5t89.5 62t60 92.5t22 114t-22 114.5t-60 93t-89.5 62t-111.5 22.5t-111.5 -22.5t-89.5 -62t-60 -93t-22 -114.5zM401 296h-29v-139h-95v400h158q29 0 54 -10t43.5 -28t29 -41.5t10.5 -50.5q0 -40 -21 -70.5t-56 -45.5l80 -154h-105zM418 374q27 0 42.5 14t15.5 38
q0 25 -15.5 39t-42.5 14h-46v-105h46z" />
    <glyph glyph-name="macron" unicode="&#xaf;" horiz-adv-x="335" 
d="M27 577v97h281v-97h-281z" />
    <glyph glyph-name="degree" unicode="&#xb0;" horiz-adv-x="407" 
d="M203 489q29 0 47.5 19.5t18.5 51.5q0 30 -18.5 49t-47.5 19q-28 0 -47 -19t-19 -49q0 -32 19 -51.5t47 -19.5zM37 560q0 34 13.5 64t36 52t52.5 34.5t64 12.5t64 -12.5t53 -34.5t36.5 -52t13.5 -64q0 -35 -13.5 -65t-36.5 -52t-53 -34.5t-64 -12.5t-64.5 12.5t-53 35
t-35.5 52t-13 64.5z" />
    <glyph glyph-name="plusminus" unicode="&#xb1;" horiz-adv-x="602" 
d="M357 367v-122h-113v122h-177v108h177v123h113v-123h178v-108h-178zM67 98v109h468v-109h-468z" />
    <glyph glyph-name="twosuperior" unicode="&#xb2;" horiz-adv-x="358" 
d="M39 564q-2 5 -3 13t-1 16q0 52 36.5 88t107.5 36q34 0 60.5 -10t44.5 -26.5t27.5 -38.5t9.5 -47q0 -36 -20.5 -62.5t-58.5 -49.5l-70 -42q-12 -7 -12 -15h164v-85h-291v12q0 49 19.5 88.5t69.5 68.5l60 35q38 23 38 51q0 14 -10.5 26.5t-31.5 12.5q-23 0 -37 -13.5
t-14 -38.5q0 -9 3 -18z" />
    <glyph glyph-name="threesuperior" unicode="&#xb3;" horiz-adv-x="366" 
d="M113 469q3 -23 19 -38.5t48 -15.5q27 0 42 11.5t15 25.5q0 35 -49 35h-44v75h41q24 0 34.5 11t10.5 25q0 17 -15 27t-35 10q-25 0 -39 -12t-17 -33l-93 13q1 25 13 46.5t32 37t46.5 24t57.5 8.5q72 0 110 -32t38 -80q0 -27 -17.5 -49.5t-46.5 -30.5q32 -6 51 -29.5
t19 -52.5q0 -48 -41.5 -79.5t-113.5 -31.5q-69 0 -112 32.5t-48 87.5z" />
    <glyph glyph-name="acute" unicode="&#xb4;" horiz-adv-x="295" 
d="M133 551h-107l91 150h152z" />
    <glyph glyph-name="mu" unicode="&#xb5;" horiz-adv-x="574" 
d="M389 0q-2 8 -3 23t-1 30q-20 -35 -58.5 -50.5t-77.5 -15.5q-32 0 -54 7v-184h-133v682h133v-284q0 -42 21.5 -70.5t68.5 -28.5q45 0 69 27t24 70v286h133v-403q0 -30 1.5 -54.5t3.5 -34.5h-127z" />
    <glyph glyph-name="paragraph" unicode="&#xb6;" horiz-adv-x="690" 
d="M354 -190h-104v491h-17q-42 0 -79 15.5t-64.5 42.5t-44 63.5t-16.5 78.5q0 50 19 89t51 65.5t75.5 40t91.5 13.5h387v-102h-97v-797h-106v797h-96v-797z" />
    <glyph glyph-name="periodcentered" unicode="&#xb7;" horiz-adv-x="277" 
d="M52 309q0 36 25 60.5t61 24.5t61 -24.5t25 -60.5t-25 -60t-61 -24t-61 24t-25 60z" />
    <glyph glyph-name="cedilla" unicode="&#xb8;" horiz-adv-x="298" 
d="M83 -63l48 76h83l-39 -61q43 -1 70 -24.5t27 -61.5q0 -17 -7 -34t-22 -30.5t-39.5 -22t-59.5 -8.5q-42 0 -73.5 17t-45.5 35l43 54q11 -11 30 -24t45 -13q18 0 29.5 7t11.5 21q0 11 -10 19.5t-28 8.5q-6 0 -13.5 -1t-13.5 -3z" />
    <glyph glyph-name="onesuperior" unicode="&#xb9;" horiz-adv-x="257" 
d="M111 342v223h-91v66q24 0 42 7t30.5 18.5t20 25t10.5 27.5h91v-367h-103z" />
    <glyph glyph-name="ordmasculine" unicode="&#xba;" horiz-adv-x="441" 
d="M220 353q-39 0 -72 13.5t-57.5 38t-38.5 58t-14 74.5q0 40 14 73.5t38.5 58t57.5 38t72 13.5t72 -13.5t58 -38t39 -58t14 -73.5q0 -41 -14 -74.5t-39 -58t-58 -38t-72 -13.5zM137 537q0 -47 25.5 -70t57.5 -23q33 0 58.5 22.5t25.5 70.5q0 47 -25.5 69.5t-58.5 22.5
q-32 0 -57.5 -22.5t-25.5 -69.5z" />
    <glyph glyph-name="guillemotright" unicode="&#xbb;" horiz-adv-x="552" 
d="M257 101l136 193l-136 198h125l138 -197l-137 -194h-126zM41 101l135 193l-136 198h125l138 -197l-136 -194h-126z" />
    <glyph glyph-name="onequarter" unicode="&#xbc;" horiz-adv-x="793" 
d="M94 0l456 709h116l-457 -709h-115zM31 632q24 0 42 7t30.5 18t20 24.5t10.5 27.5h91v-367h-103v223h-91v67zM422 171l168 197h110v-218h60v-79h-60v-71h-100v71h-178v100zM600 264l-98 -114h98v114z" />
    <glyph glyph-name="onehalf" unicode="&#xbd;" horiz-adv-x="817" 
d="M93 0l457 709h115l-456 -709h-116zM493 223q-2 7 -2.5 15t-0.5 14q0 25 9 47.5t27 39.5t45 27t62 10q34 0 60.5 -10t45 -26.5t28 -38.5t9.5 -47q0 -35 -21 -62.5t-59 -49.5l-68 -41q-5 -4 -9 -7.5t-5 -8.5h164v-85h-291v13q0 49 20 88t69 68l60 35q39 23 39 51
q0 14 -10.5 27t-33.5 13q-24 0 -36.5 -15t-12.5 -37q0 -5 1 -10.5t2 -9.5h-92zM32 632q24 0 42 7t30.5 18t20 24.5t10.5 27.5h91v-367h-103v223h-91v67z" />
    <glyph glyph-name="threequarters" unicode="&#xbe;" horiz-adv-x="868" 
d="M167 0l456 709h115l-456 -709h-115zM125 469q3 -23 19 -38.5t48 -15.5q27 0 42 11.5t15 25.5q0 35 -49 35h-44v75h41q24 0 34.5 11t10.5 25q0 17 -15 27t-35 10q-25 0 -39 -12t-17 -33l-93 13q1 25 13 46.5t32 37t46.5 24t57.5 8.5q72 0 110 -32t38 -80
q0 -27 -17.5 -49.5t-46.5 -30.5q32 -6 51 -29.5t19 -52.5q0 -48 -41.5 -79.5t-113.5 -31.5q-69 0 -112 32.5t-48 87.5zM498 170l169 198h109v-218h61v-79h-61v-71h-100v71h-178v99zM676 264l-97 -114h97v114z" />
    <glyph glyph-name="questiondown" unicode="&#xbf;" horiz-adv-x="522" 
d="M329 284q3 -20 3 -41q0 -41 -16.5 -77.5t-60.5 -68.5l-48 -35q-23 -17 -32.5 -36.5t-9.5 -42.5q0 -35 24.5 -62t74.5 -27q26 0 45.5 9t32 24t19 34t6.5 39q0 11 -1.5 22t-4.5 19l128 -12q5 -23 5 -44q0 -41 -15 -78.5t-44 -67t-72 -47t-99 -17.5q-58 0 -102 17t-73.5 45
t-44.5 63.5t-15 73.5q0 60 26.5 103.5t70.5 74.5l41 29q26 18 40 42t14 55v6h108zM194 428q0 33 23.5 56t56.5 23t56 -23t23 -56t-23 -56t-56 -23t-56.5 23t-23.5 56z" />
    <glyph glyph-name="Agrave" unicode="&#xc0;" horiz-adv-x="721" 
d="M502 162h-288l-59 -162h-146l272 709h160l270 -709h-150zM260 288h196l-98 268zM164 886h163l104 -127h-122z" />
    <glyph glyph-name="Aacute" unicode="&#xc1;" horiz-adv-x="721" 
d="M502 162h-288l-59 -162h-146l272 709h160l270 -709h-150zM260 288h196l-98 268zM412 759h-122l103 127h164z" />
    <glyph glyph-name="Acircumflex" unicode="&#xc2;" horiz-adv-x="721" 
d="M502 162h-288l-59 -162h-146l272 709h160l270 -709h-150zM260 288h196l-98 268zM169 759l120 127h136l122 -127h-125l-67 65l-65 -65h-121z" />
    <glyph glyph-name="Atilde" unicode="&#xc3;" horiz-adv-x="721" 
d="M502 162h-288l-59 -162h-146l272 709h160l270 -709h-150zM260 288h196l-98 268zM524 862q0 -55 -29.5 -82.5t-71.5 -27.5q-23 0 -41.5 7t-33.5 17l-6 4q-14 8 -25.5 14t-22.5 6q-29 0 -29 -43h-80v27q0 55 30 82t71 27q23 0 41.5 -7t34.5 -16l6 -4q14 -7 25 -13t22 -6
q12 0 20.5 7t8.5 24v12h80v-28z" />
    <glyph glyph-name="Adieresis" unicode="&#xc4;" horiz-adv-x="721" 
d="M127 823q0 30 20 51t51 21t52 -21t21 -51q0 -31 -21 -51.5t-52 -20.5t-51 20.5t-20 51.5zM445 823q0 30 20.5 51t51.5 21t52 -21t21 -51q0 -31 -21 -51.5t-52 -20.5t-51.5 20.5t-20.5 51.5zM502 162h-288l-59 -162h-146l272 709h160l270 -709h-150zM260 288h196l-98 268z
" />
    <glyph glyph-name="Aring" unicode="&#xc5;" horiz-adv-x="721" 
d="M408 759q0 23 -15 37t-35 14q-21 0 -35.5 -14t-14.5 -37t14.5 -36.5t35.5 -13.5q20 0 35 13.5t15 36.5zM260 288h196l-98 268zM502 162h-288l-59 -162h-146l255 664q-20 18 -31 42t-11 53t11 53t30 41.5t43.5 27.5t51.5 10t51.5 -10t43.5 -27.5t30 -41.5t11 -53
q0 -27 -10.5 -50.5t-27.5 -40.5l255 -668h-150z" />
    <glyph glyph-name="AE" unicode="&#xc6;" horiz-adv-x="1039" 
d="M543 0v167h-274l-107 -167h-169l470 709h524v-130h-305v-162h276v-123h-276v-164h306v-130h-445zM543 283v312l-200 -312h200z" />
    <glyph glyph-name="Ccedilla" unicode="&#xc7;" horiz-adv-x="756" 
d="M336 -63l32 50q-68 6 -127.5 34.5t-104 75.5t-70 112t-25.5 145q0 85 29.5 153.5t79.5 116.5t115.5 74t136.5 26q73 0 129.5 -20.5t96 -54t64 -75.5t35.5 -85l-130 -41q-6 25 -20 51t-37.5 46t-57.5 33t-80 13q-40 0 -79 -14.5t-70 -43.5t-50 -74t-19 -105
q0 -57 18.5 -100.5t49 -73t70 -45t82.5 -15.5q45 0 79.5 13.5t58.5 34.5t39 46.5t22 50.5l129 -39q-9 -38 -30.5 -77t-56 -72.5t-83 -57.5t-111.5 -31l-23 -36q43 -1 70 -24.5t27 -61.5q0 -17 -7 -34t-22 -30.5t-39.5 -22t-59.5 -8.5q-42 0 -73.5 17t-45.5 35l43 54
q11 -11 30 -24t45 -13q18 0 29.5 7t11.5 21q0 11 -10 19.5t-28 8.5q-6 0 -14 -1t-13 -3z" />
    <glyph glyph-name="Egrave" unicode="&#xc8;" horiz-adv-x="579" 
d="M130 886h163l104 -127h-122zM83 0v709h444v-130h-306v-162h277v-123h-277v-164h306v-130h-444z" />
    <glyph glyph-name="Eacute" unicode="&#xc9;" horiz-adv-x="579" 
d="M348 759h-122l103 127h164zM83 0v709h444v-130h-306v-162h277v-123h-277v-164h306v-130h-444z" />
    <glyph glyph-name="Ecircumflex" unicode="&#xca;" horiz-adv-x="579" 
d="M114 759l120 127h136l122 -127h-125l-67 65l-65 -65h-121zM83 0v709h444v-130h-306v-162h277v-123h-277v-164h306v-130h-444z" />
    <glyph glyph-name="Edieresis" unicode="&#xcb;" horiz-adv-x="579" 
d="M123 823q0 30 20 51t51 21t52 -21t21 -51q0 -31 -21 -51.5t-52 -20.5t-51 20.5t-20 51.5zM348 823q0 30 20 51t51 21t52 -21t21 -51q0 -31 -21 -51.5t-52 -20.5t-51 20.5t-20 51.5zM83 0v709h444v-130h-306v-162h277v-123h-277v-164h306v-130h-444z" />
    <glyph glyph-name="Igrave" unicode="&#xcc;" horiz-adv-x="306" 
d="M83 0v709h140v-709h-140zM-45 886h163l104 -127h-122z" />
    <glyph glyph-name="Iacute" unicode="&#xcd;" horiz-adv-x="306" 
d="M83 0v709h140v-709h-140zM207 759h-122l103 127h164z" />
    <glyph glyph-name="Icircumflex" unicode="&#xce;" horiz-adv-x="306" 
d="M83 0v709h140v-709h-140zM-31 759l120 127h136l122 -127h-125l-67 65l-65 -65h-121z" />
    <glyph glyph-name="Idieresis" unicode="&#xcf;" horiz-adv-x="306" 
d="M-10 823q0 29 19.5 49.5t49.5 20.5q29 0 50 -20.5t21 -49.5q0 -30 -21 -50t-50 -20q-30 0 -49.5 20t-19.5 50zM179 823q0 29 20 49.5t49 20.5q30 0 50.5 -20.5t20.5 -49.5q0 -30 -20.5 -50t-50.5 -20q-29 0 -49 20t-20 50zM83 0v709h140v-709h-140z" />
    <glyph glyph-name="Eth" unicode="&#xd0;" horiz-adv-x="747" 
d="M100 0v315h-88v102h88v292h254q76 0 140 -24t110.5 -69.5t73 -111.5t26.5 -150t-26.5 -150t-73.5 -111t-111 -69t-140 -24h-253zM348 128q43 0 82 13.5t68 41.5t46 70.5t17 100.5t-17 100.5t-45.5 70.5t-67.5 42t-82 14h-111v-164h137v-102h-137v-187h110z" />
    <glyph glyph-name="Ntilde" unicode="&#xd1;" horiz-adv-x="771" 
d="M557 862q0 -55 -29.5 -82.5t-71.5 -27.5q-23 0 -41.5 7t-33.5 17l-6 4q-14 8 -25.5 14t-22.5 6q-29 0 -29 -43h-80v27q0 55 30 82t71 27q23 0 41.5 -7t34.5 -16l6 -4q14 -7 25 -13t22 -6q12 0 20.5 7t8.5 24v12h80v-28zM543 0l-322 503v-503h-138v709h172l295 -469v469
h138v-709h-145z" />
    <glyph glyph-name="Ograve" unicode="&#xd2;" horiz-adv-x="811" 
d="M203 886h163l104 -127h-122zM184 355q0 -60 19 -104.5t50.5 -73.5t71 -43.5t80.5 -14.5t81 14.5t71.5 43.5t50.5 73.5t19 104.5t-19 104.5t-50.5 73.5t-71.5 43.5t-81 14.5t-80.5 -14.5t-71 -43.5t-50.5 -73.5t-19 -104.5zM41 354q0 86 30 154.5t80 116.5t116 73.5
t138 25.5t138.5 -25.5t116.5 -73.5t80 -116.5t30 -154.5t-30 -154t-80 -116t-116.5 -73.5t-138.5 -25.5t-138 25.5t-116 73.5t-80 116t-30 154z" />
    <glyph glyph-name="Oacute" unicode="&#xd3;" horiz-adv-x="811" 
d="M457 759h-122l103 127h164zM184 355q0 -60 19 -104.5t50.5 -73.5t71 -43.5t80.5 -14.5t81 14.5t71.5 43.5t50.5 73.5t19 104.5t-19 104.5t-50.5 73.5t-71.5 43.5t-81 14.5t-80.5 -14.5t-71 -43.5t-50.5 -73.5t-19 -104.5zM41 354q0 86 30 154.5t80 116.5t116 73.5
t138 25.5t138.5 -25.5t116.5 -73.5t80 -116.5t30 -154.5t-30 -154t-80 -116t-116.5 -73.5t-138.5 -25.5t-138 25.5t-116 73.5t-80 116t-30 154z" />
    <glyph glyph-name="Ocircumflex" unicode="&#xd4;" horiz-adv-x="811" 
d="M217 759l120 127h136l122 -127h-125l-67 65l-65 -65h-121zM184 355q0 -60 19 -104.5t50.5 -73.5t71 -43.5t80.5 -14.5t81 14.5t71.5 43.5t50.5 73.5t19 104.5t-19 104.5t-50.5 73.5t-71.5 43.5t-81 14.5t-80.5 -14.5t-71 -43.5t-50.5 -73.5t-19 -104.5zM41 354
q0 86 30 154.5t80 116.5t116 73.5t138 25.5t138.5 -25.5t116.5 -73.5t80 -116.5t30 -154.5t-30 -154t-80 -116t-116.5 -73.5t-138.5 -25.5t-138 25.5t-116 73.5t-80 116t-30 154z" />
    <glyph glyph-name="Otilde" unicode="&#xd5;" horiz-adv-x="811" 
d="M573 862q0 -55 -29.5 -82.5t-71.5 -27.5q-23 0 -41.5 7t-33.5 17l-6 4q-14 8 -25.5 14t-22.5 6q-29 0 -29 -43h-80v27q0 55 30 82t71 27q23 0 41.5 -7t34.5 -16l6 -4q14 -7 25 -13t22 -6q12 0 20.5 7t8.5 24v12h80v-28zM184 355q0 -60 19 -104.5t50.5 -73.5t71 -43.5
t80.5 -14.5t81 14.5t71.5 43.5t50.5 73.5t19 104.5t-19 104.5t-50.5 73.5t-71.5 43.5t-81 14.5t-80.5 -14.5t-71 -43.5t-50.5 -73.5t-19 -104.5zM41 354q0 86 30 154.5t80 116.5t116 73.5t138 25.5t138.5 -25.5t116.5 -73.5t80 -116.5t30 -154.5t-30 -154t-80 -116
t-116.5 -73.5t-138.5 -25.5t-138 25.5t-116 73.5t-80 116t-30 154z" />
    <glyph glyph-name="Odieresis" unicode="&#xd6;" horiz-adv-x="811" 
d="M167 823q0 30 20.5 51t51.5 21t52 -21t21 -51q0 -31 -21 -51.5t-52 -20.5t-51.5 20.5t-20.5 51.5zM500 823q0 30 20.5 51t51.5 21q30 0 51 -21t21 -51q0 -31 -21 -51.5t-51 -20.5q-31 0 -51.5 20.5t-20.5 51.5zM184 355q0 -60 19 -104.5t50.5 -73.5t71 -43.5t80.5 -14.5
t81 14.5t71.5 43.5t50.5 73.5t19 104.5t-19 104.5t-50.5 73.5t-71.5 43.5t-81 14.5t-80.5 -14.5t-71 -43.5t-50.5 -73.5t-19 -104.5zM41 354q0 86 30 154.5t80 116.5t116 73.5t138 25.5t138.5 -25.5t116.5 -73.5t80 -116.5t30 -154.5t-30 -154t-80 -116t-116.5 -73.5
t-138.5 -25.5t-138 25.5t-116 73.5t-80 116t-30 154z" />
    <glyph glyph-name="multiply" unicode="&#xd7;" horiz-adv-x="585" 
d="M293 429l165 168l79 -79l-166 -168l166 -168l-79 -81l-166 168l-165 -167l-79 80l165 168l-164 168l79 79z" />
    <glyph glyph-name="Oslash" unicode="&#xd8;" horiz-adv-x="811" 
d="M41 354q0 86 30 154.5t80 116.5t116 73.5t138 25.5q98 0 181 -46l70 90l88 -66l-70 -91q45 -48 70.5 -112.5t25.5 -144.5q0 -86 -30 -154t-80 -116t-116.5 -73.5t-138.5 -25.5q-49 0 -94.5 11.5t-86.5 33.5l-68 -88l-90 65l71 91q-45 48 -70.5 112t-25.5 144zM184 355
q0 -45 10.5 -81t29.5 -63l278 359q-45 21 -97 21q-41 0 -80.5 -14.5t-71 -43.5t-50.5 -73.5t-19 -104.5zM627 355q0 45 -10.5 81t-29.5 63l-278 -359q45 -21 96 -21q41 0 81 14.5t71.5 43.5t50.5 73.5t19 104.5z" />
    <glyph glyph-name="Ugrave" unicode="&#xd9;" horiz-adv-x="699" 
d="M161 886h163l104 -127h-122zM349 -16q-57 0 -106.5 17t-86 51t-58 84t-21.5 115v458h138v-448q0 -70 36 -106t98 -36q63 0 99 36t36 106v448h138v-458q0 -65 -21.5 -115t-58 -84t-86.5 -51t-107 -17z" />
    <glyph glyph-name="Uacute" unicode="&#xda;" horiz-adv-x="699" 
d="M386 759h-122l103 127h164zM349 -16q-57 0 -106.5 17t-86 51t-58 84t-21.5 115v458h138v-448q0 -70 36 -106t98 -36q63 0 99 36t36 106v448h138v-458q0 -65 -21.5 -115t-58 -84t-86.5 -51t-107 -17z" />
    <glyph glyph-name="Ucircumflex" unicode="&#xdb;" horiz-adv-x="699" 
d="M161 759l120 127h136l122 -127h-125l-67 65l-65 -65h-121zM349 -16q-57 0 -106.5 17t-86 51t-58 84t-21.5 115v458h138v-448q0 -70 36 -106t98 -36q63 0 99 36t36 106v448h138v-458q0 -65 -21.5 -115t-58 -84t-86.5 -51t-107 -17z" />
    <glyph glyph-name="Udieresis" unicode="&#xdc;" horiz-adv-x="699" 
d="M158 823q0 30 20.5 51t51.5 21q30 0 51 -21t21 -51q0 -31 -21 -51.5t-51 -20.5q-31 0 -51.5 20.5t-20.5 51.5zM398 823q0 30 20.5 51t51.5 21q30 0 51 -21t21 -51q0 -31 -21 -51.5t-51 -20.5q-31 0 -51.5 20.5t-20.5 51.5zM349 -16q-57 0 -106.5 17t-86 51t-58 84
t-21.5 115v458h138v-448q0 -70 36 -106t98 -36q63 0 99 36t36 106v448h138v-458q0 -65 -21.5 -115t-58 -84t-86.5 -51t-107 -17z" />
    <glyph glyph-name="Yacute" unicode="&#xdd;" horiz-adv-x="659" 
d="M13 709h162l159 -281l159 281h155l-250 -411v-298h-138v298zM374 759h-122l103 127h164z" />
    <glyph glyph-name="Thorn" unicode="&#xde;" horiz-adv-x="606" 
d="M331 257q52 0 81.5 27.5t29.5 73.5q0 48 -29.5 75.5t-81.5 27.5h-109v-204h109zM221 139v-139h-138v709h138v-129h122q51 0 94.5 -17t75.5 -46.5t50 -70t18 -87.5t-18 -87.5t-50 -70t-75 -46t-94 -16.5h-123z" />
    <glyph glyph-name="germandbls" unicode="&#xdf;" horiz-adv-x="608" 
d="M398 343q1 -14 10 -20.5t27 -14.5l30 -13q51 -20 81.5 -60t30.5 -94q0 -26 -10 -53.5t-31.5 -50t-55.5 -37.5t-81 -15q-45 0 -77 14t-52.5 35.5t-29.5 46.5t-9 47l107 21q0 -10 3 -21t10.5 -20.5t19.5 -15.5t29 -6q26 0 39.5 14.5t13.5 31.5q0 19 -11 32t-37 24l-30 12
q-19 8 -38.5 19t-35.5 26.5t-26 37.5t-10 51q0 22 6 40.5t16 32.5t21.5 24.5t23.5 18.5l20 13q24 15 36.5 32t12.5 40q0 27 -22.5 49.5t-71.5 22.5q-21 0 -40.5 -7.5t-34.5 -23t-24 -40.5t-9 -59v-477h-131v486q0 61 19.5 105.5t52.5 74t76.5 44t90.5 14.5q52 0 93.5 -14.5
t71 -39.5t45.5 -58.5t16 -70.5q0 -29 -7.5 -52t-19.5 -41t-28 -32t-33 -25l-20 -12q-13 -8 -20 -15.5t-7 -20.5z" />
    <glyph glyph-name="agrave" unicode="&#xe0;" horiz-adv-x="538" 
d="M39 134q0 33 11.5 58.5t31.5 44.5t46.5 30t57.5 16l121 18q21 3 29 12.5t8 22.5q0 26 -20.5 45t-62.5 19q-44 0 -67.5 -24t-26.5 -56l-118 25q3 29 18 58t41 52t64 37.5t88 14.5q58 0 99 -15.5t66.5 -41t37 -59.5t11.5 -71v-242q0 -20 2 -42.5t4 -35.5h-122
q-2 10 -3.5 27.5t-1.5 31.5q-19 -29 -54.5 -51t-90.5 -22q-39 0 -70.5 12.5t-53.5 33t-33.5 47t-11.5 55.5zM236 85q21 0 40.5 5.5t34.5 19t24 35t9 54.5v22l-111 -17q-26 -4 -43.5 -18.5t-17.5 -43.5q0 -22 16 -39.5t48 -17.5zM89 701h154l90 -150h-108z" />
    <glyph glyph-name="aacute" unicode="&#xe1;" horiz-adv-x="538" 
d="M39 134q0 33 11.5 58.5t31.5 44.5t46.5 30t57.5 16l121 18q21 3 29 12.5t8 22.5q0 26 -20.5 45t-62.5 19q-44 0 -67.5 -24t-26.5 -56l-118 25q3 29 18 58t41 52t64 37.5t88 14.5q58 0 99 -15.5t66.5 -41t37 -59.5t11.5 -71v-242q0 -20 2 -42.5t4 -35.5h-122
q-2 10 -3.5 27.5t-1.5 31.5q-19 -29 -54.5 -51t-90.5 -22q-39 0 -70.5 12.5t-53.5 33t-33.5 47t-11.5 55.5zM236 85q21 0 40.5 5.5t34.5 19t24 35t9 54.5v22l-111 -17q-26 -4 -43.5 -18.5t-17.5 -43.5q0 -22 16 -39.5t48 -17.5zM305 551h-107l91 150h152z" />
    <glyph glyph-name="acircumflex" unicode="&#xe2;" horiz-adv-x="538" 
d="M39 134q0 33 11.5 58.5t31.5 44.5t46.5 30t57.5 16l121 18q21 3 29 12.5t8 22.5q0 26 -20.5 45t-62.5 19q-44 0 -67.5 -24t-26.5 -56l-118 25q3 29 18 58t41 52t64 37.5t88 14.5q58 0 99 -15.5t66.5 -41t37 -59.5t11.5 -71v-242q0 -20 2 -42.5t4 -35.5h-122
q-2 10 -3.5 27.5t-1.5 31.5q-19 -29 -54.5 -51t-90.5 -22q-39 0 -70.5 12.5t-53.5 33t-33.5 47t-11.5 55.5zM236 85q21 0 40.5 5.5t34.5 19t24 35t9 54.5v22l-111 -17q-26 -4 -43.5 -18.5t-17.5 -43.5q0 -22 16 -39.5t48 -17.5zM87 552l110 147h132l110 -147h-107l-71 75
l-70 -75h-104z" />
    <glyph glyph-name="atilde" unicode="&#xe3;" horiz-adv-x="538" 
d="M39 134q0 33 11.5 58.5t31.5 44.5t46.5 30t57.5 16l121 18q21 3 29 12.5t8 22.5q0 26 -20.5 45t-62.5 19q-44 0 -67.5 -24t-26.5 -56l-118 25q3 29 18 58t41 52t64 37.5t88 14.5q58 0 99 -15.5t66.5 -41t37 -59.5t11.5 -71v-242q0 -20 2 -42.5t4 -35.5h-122
q-2 10 -3.5 27.5t-1.5 31.5q-19 -29 -54.5 -51t-90.5 -22q-39 0 -70.5 12.5t-53.5 33t-33.5 47t-11.5 55.5zM236 85q21 0 40.5 5.5t34.5 19t24 35t9 54.5v22l-111 -17q-26 -4 -43.5 -18.5t-17.5 -43.5q0 -22 16 -39.5t48 -17.5zM441 678q0 -63 -30 -93t-77 -30q-21 0 -39 6
t-32 16l-6 4q-10 6 -19.5 12t-27.5 6q-16 0 -25 -10t-10 -33h-82v21q0 61 31.5 91t77.5 30q22 0 39 -7t33 -15l6 -4q13 -8 24.5 -13.5t23.5 -5.5q33 0 33 43h80v-18z" />
    <glyph glyph-name="adieresis" unicode="&#xe4;" horiz-adv-x="538" 
d="M39 134q0 33 11.5 58.5t31.5 44.5t46.5 30t57.5 16l121 18q21 3 29 12.5t8 22.5q0 26 -20.5 45t-62.5 19q-44 0 -67.5 -24t-26.5 -56l-118 25q3 29 18 58t41 52t64 37.5t88 14.5q58 0 99 -15.5t66.5 -41t37 -59.5t11.5 -71v-242q0 -20 2 -42.5t4 -35.5h-122
q-2 10 -3.5 27.5t-1.5 31.5q-19 -29 -54.5 -51t-90.5 -22q-39 0 -70.5 12.5t-53.5 33t-33.5 47t-11.5 55.5zM236 85q21 0 40.5 5.5t34.5 19t24 35t9 54.5v22l-111 -17q-26 -4 -43.5 -18.5t-17.5 -43.5q0 -22 16 -39.5t48 -17.5zM89 628q0 29 20.5 50t49.5 21t50 -21t21 -50
t-21 -49.5t-50 -20.5t-49.5 20.5t-20.5 49.5zM299 628q0 29 20 50t50 21q29 0 50 -21t21 -50t-21 -49.5t-50 -20.5q-30 0 -50 20.5t-20 49.5z" />
    <glyph glyph-name="aring" unicode="&#xe5;" horiz-adv-x="538" 
d="M39 134q0 33 11.5 58.5t31.5 44.5t46.5 30t57.5 16l121 18q21 3 29 12.5t8 22.5q0 26 -20.5 45t-62.5 19q-44 0 -67.5 -24t-26.5 -56l-118 25q3 29 18 58t41 52t64 37.5t88 14.5q58 0 99 -15.5t66.5 -41t37 -59.5t11.5 -71v-242q0 -20 2 -42.5t4 -35.5h-122
q-2 10 -3.5 27.5t-1.5 31.5q-19 -29 -54.5 -51t-90.5 -22q-39 0 -70.5 12.5t-53.5 33t-33.5 47t-11.5 55.5zM236 85q21 0 40.5 5.5t34.5 19t24 35t9 54.5v22l-111 -17q-26 -4 -43.5 -18.5t-17.5 -43.5q0 -22 16 -39.5t48 -17.5zM373 653q0 -24 -9.5 -44t-25 -35t-36.5 -23
t-44 -8t-44 8t-36.5 23t-25 35t-9.5 44t9.5 44.5t25 35.5t36.5 23.5t44 8.5t44 -8.5t36.5 -23.5t25 -35.5t9.5 -44.5zM298 653q0 19 -12 30.5t-29 11.5t-28.5 -11.5t-11.5 -30.5q0 -18 11.5 -29.5t28.5 -11.5t29 11.5t12 29.5z" />
    <glyph glyph-name="ae" unicode="&#xe6;" horiz-adv-x="872" 
d="M822 133q-10 -31 -29.5 -58t-47.5 -47t-64.5 -31.5t-80.5 -11.5q-57 0 -107.5 22t-85.5 64q-36 -48 -84 -67t-102 -19q-44 0 -78 12.5t-57 33t-35 47.5t-12 56q0 33 11.5 58.5t31.5 44.5t46.5 30t57.5 16l126 18q22 3 29.5 13t7.5 22q0 26 -21 45.5t-65 19.5
q-45 0 -70 -24t-28 -56l-116 24q3 30 18.5 59t43 52t66.5 37t87 14q60 0 101 -17t65 -46q33 30 74 46.5t86 16.5q115 0 179 -68t64 -187q0 -14 -1 -26.5t-1 -14.5h-352q1 -25 11 -45.5t26.5 -35.5t38 -23t46.5 -8q44 0 71 19.5t38 49.5zM702 301q-1 18 -7.5 36t-20 31.5
t-34 22t-48.5 8.5q-26 0 -46 -9t-34 -23t-21.5 -31.5t-8.5 -34.5h220zM240 85q19 0 38.5 5.5t35.5 18.5t25.5 35t9.5 54v23l-116 -17q-26 -4 -44.5 -18.5t-18.5 -43.5q0 -21 17.5 -39t52.5 -18z" />
    <glyph glyph-name="ccedilla" unicode="&#xe7;" horiz-adv-x="556" 
d="M226 -63l32 51q-47 6 -87.5 28t-70 56t-46 78.5t-16.5 95.5q0 57 19.5 105t54 82.5t81 54t100.5 19.5q50 0 89.5 -14.5t68.5 -37.5t47 -53t26 -61l-119 -40q-9 31 -34.5 57t-74.5 26q-26 0 -48.5 -9t-39.5 -26.5t-27 -43.5t-10 -59t10 -59t27.5 -44t40 -27t48.5 -9
q25 0 44.5 7.5t33.5 19.5t22.5 27t12.5 29l117 -39q-8 -27 -23 -53.5t-38.5 -49t-54.5 -38.5t-70 -22l-23 -36q43 -1 70 -24.5t27 -61.5q0 -17 -7 -34t-22 -30.5t-39.5 -22t-59.5 -8.5q-42 0 -73.5 17t-45.5 35l43 54q11 -11 30 -24t45 -13q18 0 29.5 7t11.5 21
q0 11 -10 19.5t-28 8.5q-6 0 -14 -1t-13 -3z" />
    <glyph glyph-name="egrave" unicode="&#xe8;" horiz-adv-x="563" 
d="M393 301q-1 18 -7.5 36t-20 31.5t-34 22t-48.5 8.5q-26 0 -46 -9t-34 -23t-21.5 -31.5t-8.5 -34.5h220zM513 133q-10 -31 -29.5 -58t-47.5 -47t-64.5 -31.5t-80.5 -11.5q-51 0 -96.5 17.5t-80 51t-55 82.5t-20.5 112q0 59 20 107t54 81.5t77.5 52t90.5 18.5
q115 0 179 -68t64 -187q0 -14 -1 -26.5t-1 -14.5h-352q1 -25 11 -45.5t26.5 -35.5t38 -23t46.5 -8q44 0 71 19.5t38 49.5zM114 701h154l90 -150h-108z" />
    <glyph glyph-name="eacute" unicode="&#xe9;" horiz-adv-x="563" 
d="M332 551h-107l91 150h152zM393 301q-1 18 -7.5 36t-20 31.5t-34 22t-48.5 8.5q-26 0 -46 -9t-34 -23t-21.5 -31.5t-8.5 -34.5h220zM513 133q-10 -31 -29.5 -58t-47.5 -47t-64.5 -31.5t-80.5 -11.5q-51 0 -96.5 17.5t-80 51t-55 82.5t-20.5 112q0 59 20 107t54 81.5
t77.5 52t90.5 18.5q115 0 179 -68t64 -187q0 -14 -1 -26.5t-1 -14.5h-352q1 -25 11 -45.5t26.5 -35.5t38 -23t46.5 -8q44 0 71 19.5t38 49.5z" />
    <glyph glyph-name="ecircumflex" unicode="&#xea;" horiz-adv-x="563" 
d="M116 552l110 147h132l110 -147h-107l-71 75l-70 -75h-104zM393 301q-1 18 -7.5 36t-20 31.5t-34 22t-48.5 8.5q-26 0 -46 -9t-34 -23t-21.5 -31.5t-8.5 -34.5h220zM513 133q-10 -31 -29.5 -58t-47.5 -47t-64.5 -31.5t-80.5 -11.5q-51 0 -96.5 17.5t-80 51t-55 82.5
t-20.5 112q0 59 20 107t54 81.5t77.5 52t90.5 18.5q115 0 179 -68t64 -187q0 -14 -1 -26.5t-1 -14.5h-352q1 -25 11 -45.5t26.5 -35.5t38 -23t46.5 -8q44 0 71 19.5t38 49.5z" />
    <glyph glyph-name="edieresis" unicode="&#xeb;" horiz-adv-x="563" 
d="M117 628q0 29 20.5 50t49.5 21t50 -21t21 -50t-21 -49.5t-50 -20.5t-49.5 20.5t-20.5 49.5zM327 628q0 29 20 50t50 21q29 0 50 -21t21 -50t-21 -49.5t-50 -20.5q-30 0 -50 20.5t-20 49.5zM393 301q-1 18 -7.5 36t-20 31.5t-34 22t-48.5 8.5q-26 0 -46 -9t-34 -23
t-21.5 -31.5t-8.5 -34.5h220zM513 133q-10 -31 -29.5 -58t-47.5 -47t-64.5 -31.5t-80.5 -11.5q-51 0 -96.5 17.5t-80 51t-55 82.5t-20.5 112q0 59 20 107t54 81.5t77.5 52t90.5 18.5q115 0 179 -68t64 -187q0 -14 -1 -26.5t-1 -14.5h-352q1 -25 11 -45.5t26.5 -35.5t38 -23
t46.5 -8q44 0 71 19.5t38 49.5z" />
    <glyph glyph-name="igrave" unicode="&#xec;" horiz-adv-x="269" 
d="M68 0v492h133v-492h-133zM-44 701h154l90 -150h-108z" />
    <glyph glyph-name="iacute" unicode="&#xed;" horiz-adv-x="269" 
d="M182 551h-107l91 150h152zM68 0v492h133v-492h-133z" />
    <glyph glyph-name="icircumflex" unicode="&#xee;" horiz-adv-x="269" 
d="M-40 552l110 147h132l110 -147h-107l-71 75l-70 -75h-104zM68 0v492h133v-492h-133z" />
    <glyph glyph-name="idieresis" unicode="&#xef;" horiz-adv-x="269" 
d="M-24 628q0 29 19.5 49t48.5 20t49 -20t20 -49t-20 -48.5t-49 -19.5t-48.5 19.5t-19.5 48.5zM155 628q0 29 19.5 49t48.5 20t49 -20t20 -49t-20 -48.5t-49 -19.5t-48.5 19.5t-19.5 48.5zM68 0v492h133v-492h-133z" />
    <glyph glyph-name="eth" unicode="&#xf0;" horiz-adv-x="595" 
d="M438 590q51 -57 82 -135.5t31 -177.5q0 -59 -16.5 -112t-48.5 -93t-80.5 -63.5t-112.5 -23.5q-55 0 -101.5 18.5t-81 51t-54 77t-19.5 97.5q0 57 21 101t55 73t77.5 44t87.5 15q34 0 67 -10t50 -28q-11 35 -30.5 64.5t-43.5 52.5l-137 -58l-32 80l87 37q-28 15 -56 26.5
t-55 19.5l41 100q51 -13 101.5 -35t96.5 -56l114 48l34 -81zM293 105q24 0 47 8t40 24t27.5 39.5t10.5 54.5t-10.5 54.5t-27.5 39.5t-40 24t-47 8t-46.5 -8.5t-39.5 -24.5t-27.5 -39.5t-10.5 -53.5t10.5 -53.5t27.5 -39.5t39.5 -24.5t46.5 -8.5z" />
    <glyph glyph-name="ntilde" unicode="&#xf1;" horiz-adv-x="580" 
d="M201 0h-133v492h129v-61q23 38 62.5 56t79.5 18q46 0 79.5 -15.5t55.5 -41.5t32.5 -62t10.5 -76v-310h-133v287q0 42 -21.5 70t-69.5 28q-44 0 -68 -29.5t-24 -72.5v-283zM471 678q0 -63 -30 -93t-77 -30q-21 0 -39 6t-32 16l-6 4q-10 6 -19.5 12t-27.5 6q-16 0 -25 -10
t-10 -33h-82v21q0 61 31.5 91t77.5 30q22 0 39 -7t33 -15l6 -4q13 -8 24.5 -13.5t23.5 -5.5q33 0 33 43h80v-18z" />
    <glyph glyph-name="ograve" unicode="&#xf2;" horiz-adv-x="592" 
d="M296 106q24 0 47 9t40 26.5t27.5 43.5t10.5 61t-10.5 61t-27.5 43.5t-40 26.5t-47 9t-47 -9t-40 -26.5t-27.5 -43.5t-10.5 -61t10.5 -61t27.5 -43.5t40 -26.5t47 -9zM296 507q55 0 102.5 -19.5t82 -54t54 -82.5t19.5 -105t-19.5 -104.5t-54 -82.5t-82 -54.5t-102.5 -19.5
t-102.5 19.5t-82 54.5t-54 82.5t-19.5 104.5t19.5 105t54 82.5t82 54t102.5 19.5zM113 701h154l90 -150h-108z" />
    <glyph glyph-name="oacute" unicode="&#xf3;" horiz-adv-x="592" 
d="M335 551h-107l91 150h152zM296 106q24 0 47 9t40 26.5t27.5 43.5t10.5 61t-10.5 61t-27.5 43.5t-40 26.5t-47 9t-47 -9t-40 -26.5t-27.5 -43.5t-10.5 -61t10.5 -61t27.5 -43.5t40 -26.5t47 -9zM296 507q55 0 102.5 -19.5t82 -54t54 -82.5t19.5 -105t-19.5 -104.5
t-54 -82.5t-82 -54.5t-102.5 -19.5t-102.5 19.5t-82 54.5t-54 82.5t-19.5 104.5t19.5 105t54 82.5t82 54t102.5 19.5z" />
    <glyph glyph-name="ocircumflex" unicode="&#xf4;" horiz-adv-x="592" 
d="M122 552l110 147h132l110 -147h-107l-71 75l-70 -75h-104zM296 106q24 0 47 9t40 26.5t27.5 43.5t10.5 61t-10.5 61t-27.5 43.5t-40 26.5t-47 9t-47 -9t-40 -26.5t-27.5 -43.5t-10.5 -61t10.5 -61t27.5 -43.5t40 -26.5t47 -9zM296 507q55 0 102.5 -19.5t82 -54t54 -82.5
t19.5 -105t-19.5 -104.5t-54 -82.5t-82 -54.5t-102.5 -19.5t-102.5 19.5t-82 54.5t-54 82.5t-19.5 104.5t19.5 105t54 82.5t82 54t102.5 19.5z" />
    <glyph glyph-name="otilde" unicode="&#xf5;" horiz-adv-x="592" 
d="M296 106q24 0 47 9t40 26.5t27.5 43.5t10.5 61t-10.5 61t-27.5 43.5t-40 26.5t-47 9t-47 -9t-40 -26.5t-27.5 -43.5t-10.5 -61t10.5 -61t27.5 -43.5t40 -26.5t47 -9zM296 507q55 0 102.5 -19.5t82 -54t54 -82.5t19.5 -105t-19.5 -104.5t-54 -82.5t-82 -54.5t-102.5 -19.5
t-102.5 19.5t-82 54.5t-54 82.5t-19.5 104.5t19.5 105t54 82.5t82 54t102.5 19.5zM471 678q0 -63 -30 -93t-77 -30q-21 0 -39 6t-32 16l-6 4q-10 6 -19.5 12t-27.5 6q-16 0 -25 -10t-10 -33h-82v21q0 61 31.5 91t77.5 30q22 0 39 -7t33 -15l6 -4q13 -8 24.5 -13.5t23.5 -5.5
q33 0 33 43h80v-18z" />
    <glyph glyph-name="odieresis" unicode="&#xf6;" horiz-adv-x="592" 
d="M120 628q0 29 20.5 50t49.5 21t50 -21t21 -50t-21 -49.5t-50 -20.5t-49.5 20.5t-20.5 49.5zM330 628q0 29 20 50t50 21q29 0 50 -21t21 -50t-21 -49.5t-50 -20.5q-30 0 -50 20.5t-20 49.5zM296 106q24 0 47 9t40 26.5t27.5 43.5t10.5 61t-10.5 61t-27.5 43.5t-40 26.5
t-47 9t-47 -9t-40 -26.5t-27.5 -43.5t-10.5 -61t10.5 -61t27.5 -43.5t40 -26.5t47 -9zM296 507q55 0 102.5 -19.5t82 -54t54 -82.5t19.5 -105t-19.5 -104.5t-54 -82.5t-82 -54.5t-102.5 -19.5t-102.5 19.5t-82 54.5t-54 82.5t-19.5 104.5t19.5 105t54 82.5t82 54t102.5 19.5
z" />
    <glyph glyph-name="divide" unicode="&#xf7;" horiz-adv-x="573" 
d="M206 166q0 32 23 55t55 23q16 0 30 -6t24.5 -16.5t17 -25t6.5 -30.5q0 -32 -23 -55t-55 -23q-16 0 -30.5 6.5t-25 17t-16.5 24.5t-6 30zM42 294v111h489v-111h-489zM206 533q0 16 6 30t16.5 24.5t25 16.5t30.5 6q32 0 55 -22.5t23 -54.5q0 -16 -6.5 -30.5t-17 -25
t-24.5 -17t-30 -6.5q-32 0 -55 23.5t-23 55.5z" />
    <glyph glyph-name="oslash" unicode="&#xf8;" horiz-adv-x="592" 
d="M296 507q73 0 132 -34l53 65l64 -54l-52 -65q29 -34 45 -78t16 -95q0 -57 -19.5 -104.5t-54 -82.5t-82 -54.5t-102.5 -19.5q-35 0 -67.5 8.5t-60.5 22.5l-50 -62l-66 54l50 61q-30 35 -47 79.5t-17 97.5q0 57 19.5 105t54 82.5t82 54t102.5 19.5zM171 246q0 -42 15 -72
l163 201q-27 11 -53 11q-24 0 -47 -9t-40 -26.5t-27.5 -43.5t-10.5 -61zM296 106q24 0 47 9t40 26.5t27.5 43.5t10.5 61q0 37 -13 68l-160 -199q22 -9 48 -9z" />
    <glyph glyph-name="ugrave" unicode="&#xf9;" horiz-adv-x="580" 
d="M390 0q-2 8 -3 23t-1 30q-20 -35 -58.5 -50.5t-77.5 -15.5q-45 0 -79.5 15.5t-58.5 41.5t-36.5 61.5t-12.5 75.5v311h133v-284q0 -42 21.5 -70.5t68.5 -28.5q45 0 69 27t24 70v286h133v-403q0 -29 1.5 -52.5t3.5 -36.5h-127zM119 701h154l90 -150h-108z" />
    <glyph glyph-name="uacute" unicode="&#xfa;" horiz-adv-x="580" 
d="M311 551h-107l91 150h152zM390 0q-2 8 -3 23t-1 30q-20 -35 -58.5 -50.5t-77.5 -15.5q-45 0 -79.5 15.5t-58.5 41.5t-36.5 61.5t-12.5 75.5v311h133v-284q0 -42 21.5 -70.5t68.5 -28.5q45 0 69 27t24 70v286h133v-403q0 -29 1.5 -52.5t3.5 -36.5h-127z" />
    <glyph glyph-name="ucircumflex" unicode="&#xfb;" horiz-adv-x="580" 
d="M113 552l110 147h132l110 -147h-107l-71 75l-70 -75h-104zM390 0q-2 8 -3 23t-1 30q-20 -35 -58.5 -50.5t-77.5 -15.5q-45 0 -79.5 15.5t-58.5 41.5t-36.5 61.5t-12.5 75.5v311h133v-284q0 -42 21.5 -70.5t68.5 -28.5q45 0 69 27t24 70v286h133v-403q0 -29 1.5 -52.5
t3.5 -36.5h-127z" />
    <glyph glyph-name="udieresis" unicode="&#xfc;" horiz-adv-x="580" 
d="M115 628q0 29 20.5 50t49.5 21t50 -21t21 -50t-21 -49.5t-50 -20.5t-49.5 20.5t-20.5 49.5zM325 628q0 29 20 50t50 21q29 0 50 -21t21 -50t-21 -49.5t-50 -20.5q-30 0 -50 20.5t-20 49.5zM390 0q-2 8 -3 23t-1 30q-20 -35 -58.5 -50.5t-77.5 -15.5q-45 0 -79.5 15.5
t-58.5 41.5t-36.5 61.5t-12.5 75.5v311h133v-284q0 -42 21.5 -70.5t68.5 -28.5q45 0 69 27t24 70v286h133v-403q0 -29 1.5 -52.5t3.5 -36.5h-127z" />
    <glyph glyph-name="yacute" unicode="&#xfd;" horiz-adv-x="563" 
d="M105 -194l116 256l-209 430h149l131 -288l121 288h142l-309 -686h-141zM318 551h-107l91 150h152z" />
    <glyph glyph-name="thorn" unicode="&#xfe;" horiz-adv-x="614" 
d="M68 -190v914h133v-286q18 26 56 45.5t91 19.5q54 0 96 -19.5t71.5 -54t44.5 -81t15 -101.5q0 -56 -16.5 -103.5t-47 -82t-73.5 -54t-95 -19.5q-51 0 -87.5 17.5t-54.5 42.5v-238h-133zM444 246q0 66 -35.5 102t-86.5 36q-26 0 -48 -9.5t-39 -27t-26.5 -43t-9.5 -58.5
t9.5 -58.5t26.5 -43.5t39 -27.5t48 -9.5q51 0 86.5 36.5t35.5 102.5z" />
    <glyph glyph-name="ydieresis" unicode="&#xff;" horiz-adv-x="563" 
d="M105 -194l116 256l-209 430h149l131 -288l121 288h142l-309 -686h-141zM112 628q0 29 20.5 50t49.5 21t50 -21t21 -50t-21 -49.5t-50 -20.5t-49.5 20.5t-20.5 49.5zM322 628q0 29 20 50t50 21q29 0 50 -21t21 -50t-21 -49.5t-50 -20.5q-30 0 -50 20.5t-20 49.5z" />
    <glyph glyph-name="Amacron" unicode="&#x100;" horiz-adv-x="721" 
d="M502 162h-288l-59 -162h-146l272 709h160l270 -709h-150zM260 288h196l-98 268zM205 774v100h305v-100h-305z" />
    <glyph glyph-name="amacron" unicode="&#x101;" horiz-adv-x="538" 
d="M39 134q0 33 11.5 58.5t31.5 44.5t46.5 30t57.5 16l121 18q21 3 29 12.5t8 22.5q0 26 -20.5 45t-62.5 19q-44 0 -67.5 -24t-26.5 -56l-118 25q3 29 18 58t41 52t64 37.5t88 14.5q58 0 99 -15.5t66.5 -41t37 -59.5t11.5 -71v-242q0 -20 2 -42.5t4 -35.5h-122
q-2 10 -3.5 27.5t-1.5 31.5q-19 -29 -54.5 -51t-90.5 -22q-39 0 -70.5 12.5t-53.5 33t-33.5 47t-11.5 55.5zM236 85q21 0 40.5 5.5t34.5 19t24 35t9 54.5v22l-111 -17q-26 -4 -43.5 -18.5t-17.5 -43.5q0 -22 16 -39.5t48 -17.5zM126 577v97h281v-97h-281z" />
    <glyph glyph-name="Abreve" unicode="&#x102;" horiz-adv-x="721" 
d="M502 162h-288l-59 -162h-146l272 709h160l270 -709h-150zM260 288h196l-98 268zM358 753q-41 0 -71 12t-50.5 31t-30.5 43.5t-11 48.5h102q1 -20 15.5 -35.5t45.5 -15.5t45.5 15.5t15.5 35.5h102q-1 -24 -11 -48.5t-30.5 -43.5t-50.5 -31t-71 -12z" />
    <glyph glyph-name="abreve" unicode="&#x103;" horiz-adv-x="538" 
d="M39 134q0 33 11.5 58.5t31.5 44.5t46.5 30t57.5 16l121 18q21 3 29 12.5t8 22.5q0 26 -20.5 45t-62.5 19q-44 0 -67.5 -24t-26.5 -56l-118 25q3 29 18 58t41 52t64 37.5t88 14.5q58 0 99 -15.5t66.5 -41t37 -59.5t11.5 -71v-242q0 -20 2 -42.5t4 -35.5h-122
q-2 10 -3.5 27.5t-1.5 31.5q-19 -29 -54.5 -51t-90.5 -22q-39 0 -70.5 12.5t-53.5 33t-33.5 47t-11.5 55.5zM236 85q21 0 40.5 5.5t34.5 19t24 35t9 54.5v22l-111 -17q-26 -4 -43.5 -18.5t-17.5 -43.5q0 -22 16 -39.5t48 -17.5zM261 549q-39 0 -69 12.5t-50 33.5t-30.5 48.5
t-11.5 56.5h89q1 -20 17.5 -39.5t54.5 -19.5q19 0 32 5.5t22 14t13 19t5 20.5h89q-1 -29 -11 -56.5t-30.5 -48.5t-50 -33.5t-69.5 -12.5z" />
    <glyph glyph-name="Aogonek" unicode="&#x104;" horiz-adv-x="721" 
d="M502 162h-288l-59 -162h-146l272 709h160l270 -709q-14 -7 -28.5 -16.5t-25.5 -21.5t-18 -26t-7 -30q0 -23 14.5 -34t34.5 -11q11 0 16.5 0.5t13.5 2.5v-79q-10 -4 -22.5 -6t-29.5 -2q-54 0 -88.5 29t-34.5 78q0 45 22.5 72.5t50.5 43.5h-48zM260 288h196l-98 268z" />
    <glyph glyph-name="aogonek" unicode="&#x105;" horiz-adv-x="538" 
d="M450 -139q10 0 16.5 0.5t13.5 2.5v-79q-10 -4 -22.5 -6t-29.5 -2q-54 0 -88.5 29t-34.5 78q0 45 22 72t50 44h-19q-1 4 -3 18.5t-2 40.5q-19 -29 -54.5 -51t-90.5 -22q-39 0 -70.5 12.5t-53.5 33t-33.5 47t-11.5 55.5q0 33 11.5 58.5t31.5 44.5t46.5 30t57.5 16l121 18
q21 3 29 12.5t8 22.5q0 26 -20.5 45t-62.5 19q-44 0 -67.5 -24t-26.5 -56l-118 25q3 29 18 58t41 52t64 37.5t88 14.5q58 0 99 -15.5t66.5 -41t37 -59.5t11.5 -71v-242q0 -29 2 -47.5t4 -30.5q-14 -7 -28.5 -16.5t-25.5 -21.5t-18 -26t-7 -30q0 -23 14.5 -34t34.5 -11z
M236 85q21 0 40.5 5.5t34.5 19t24 35t9 54.5v22l-111 -17q-26 -4 -43.5 -18.5t-17.5 -43.5q0 -22 16 -39.5t48 -17.5z" />
    <glyph glyph-name="Cacute" unicode="&#x106;" horiz-adv-x="756" 
d="M404 -15q-74 0 -140 26t-115.5 74t-78.5 116t-29 153t29.5 153.5t79.5 116.5t115.5 74t136.5 26q73 0 129.5 -20.5t96 -54t64 -75.5t35.5 -85l-130 -41q-6 25 -20 51t-37.5 46t-57.5 33t-80 13q-40 0 -79 -14.5t-70 -43.5t-50 -74t-19 -105q0 -57 18.5 -100.5t49 -73
t70 -45t82.5 -15.5q45 0 79.5 13.5t58.5 34.5t39 46.5t22 50.5l129 -39q-10 -41 -34.5 -83.5t-65 -77.5t-97 -57.5t-131.5 -22.5zM454 759h-122l103 127h164z" />
    <glyph glyph-name="cacute" unicode="&#x107;" horiz-adv-x="556" 
d="M335 551h-107l91 150h152zM296 384q-26 0 -48.5 -9t-39.5 -26.5t-27 -43.5t-10 -59t10 -59t27.5 -44t40 -27t48.5 -9q25 0 44.5 7.5t33.5 19.5t22.5 27t12.5 29l117 -39q-8 -31 -26.5 -60.5t-47.5 -53t-68 -38t-88 -14.5q-54 0 -101.5 19.5t-82.5 54.5t-55 82.5
t-20 104.5t19.5 105t54 82.5t81 54t100.5 19.5q50 0 89.5 -14.5t68.5 -37.5t47 -53t26 -61l-119 -40q-9 31 -34.5 57t-74.5 26z" />
    <glyph glyph-name="Ccircumflex" unicode="&#x108;" horiz-adv-x="756" 
d="M215 759l120 127h136l122 -127h-125l-67 65l-65 -65h-121zM404 -15q-74 0 -140 26t-115.5 74t-78.5 116t-29 153t29.5 153.5t79.5 116.5t115.5 74t136.5 26q73 0 129.5 -20.5t96 -54t64 -75.5t35.5 -85l-130 -41q-6 25 -20 51t-37.5 46t-57.5 33t-80 13q-40 0 -79 -14.5
t-70 -43.5t-50 -74t-19 -105q0 -57 18.5 -100.5t49 -73t70 -45t82.5 -15.5q45 0 79.5 13.5t58.5 34.5t39 46.5t22 50.5l129 -39q-10 -41 -34.5 -83.5t-65 -77.5t-97 -57.5t-131.5 -22.5z" />
    <glyph glyph-name="ccircumflex" unicode="&#x109;" horiz-adv-x="556" 
d="M118 552l110 147h132l110 -147h-107l-71 75l-70 -75h-104zM296 384q-26 0 -48.5 -9t-39.5 -26.5t-27 -43.5t-10 -59t10 -59t27.5 -44t40 -27t48.5 -9q25 0 44.5 7.5t33.5 19.5t22.5 27t12.5 29l117 -39q-8 -31 -26.5 -60.5t-47.5 -53t-68 -38t-88 -14.5
q-54 0 -101.5 19.5t-82.5 54.5t-55 82.5t-20 104.5t19.5 105t54 82.5t81 54t100.5 19.5q50 0 89.5 -14.5t68.5 -37.5t47 -53t26 -61l-119 -40q-9 31 -34.5 57t-74.5 26z" />
    <glyph glyph-name="Cdotaccent" unicode="&#x10a;" horiz-adv-x="756" 
d="M404 -15q-74 0 -140 26t-115.5 74t-78.5 116t-29 153t29.5 153.5t79.5 116.5t115.5 74t136.5 26q73 0 129.5 -20.5t96 -54t64 -75.5t35.5 -85l-130 -41q-6 25 -20 51t-37.5 46t-57.5 33t-80 13q-40 0 -79 -14.5t-70 -43.5t-50 -74t-19 -105q0 -57 18.5 -100.5t49 -73
t70 -45t82.5 -15.5q45 0 79.5 13.5t58.5 34.5t39 46.5t22 50.5l129 -39q-10 -41 -34.5 -83.5t-65 -77.5t-97 -57.5t-131.5 -22.5zM321 839q0 34 23.5 57t56.5 23q34 0 57.5 -23t23.5 -57q0 -33 -23.5 -56t-57.5 -23q-33 0 -56.5 23t-23.5 56z" />
    <glyph glyph-name="cdotaccent" unicode="&#x10b;" horiz-adv-x="556" 
d="M296 384q-26 0 -48.5 -9t-39.5 -26.5t-27 -43.5t-10 -59t10 -59t27.5 -44t40 -27t48.5 -9q25 0 44.5 7.5t33.5 19.5t22.5 27t12.5 29l117 -39q-8 -31 -26.5 -60.5t-47.5 -53t-68 -38t-88 -14.5q-54 0 -101.5 19.5t-82.5 54.5t-55 82.5t-20 104.5t19.5 105t54 82.5t81 54
t100.5 19.5q50 0 89.5 -14.5t68.5 -37.5t47 -53t26 -61l-119 -40q-9 31 -34.5 57t-74.5 26zM212 628q0 34 23.5 56.5t56.5 22.5t56.5 -22.5t23.5 -56.5q0 -33 -23.5 -55.5t-56.5 -22.5t-56.5 22.5t-23.5 55.5z" />
    <glyph glyph-name="Ccaron" unicode="&#x10c;" horiz-adv-x="756" 
d="M339 886l66 -64l67 64h121l-122 -127h-136l-120 127h124zM404 -15q-74 0 -140 26t-115.5 74t-78.5 116t-29 153t29.5 153.5t79.5 116.5t115.5 74t136.5 26q73 0 129.5 -20.5t96 -54t64 -75.5t35.5 -85l-130 -41q-6 25 -20 51t-37.5 46t-57.5 33t-80 13q-40 0 -79 -14.5
t-70 -43.5t-50 -74t-19 -105q0 -57 18.5 -100.5t49 -73t70 -45t82.5 -15.5q45 0 79.5 13.5t58.5 34.5t39 46.5t22 50.5l129 -39q-10 -41 -34.5 -83.5t-65 -77.5t-97 -57.5t-131.5 -22.5z" />
    <glyph glyph-name="ccaron" unicode="&#x10d;" horiz-adv-x="556" 
d="M218 700l70 -75l70 75h105l-109 -148h-133l-110 148h107zM296 384q-26 0 -48.5 -9t-39.5 -26.5t-27 -43.5t-10 -59t10 -59t27.5 -44t40 -27t48.5 -9q25 0 44.5 7.5t33.5 19.5t22.5 27t12.5 29l117 -39q-8 -31 -26.5 -60.5t-47.5 -53t-68 -38t-88 -14.5q-54 0 -101.5 19.5
t-82.5 54.5t-55 82.5t-20 104.5t19.5 105t54 82.5t81 54t100.5 19.5q50 0 89.5 -14.5t68.5 -37.5t47 -53t26 -61l-119 -40q-9 31 -34.5 57t-74.5 26z" />
    <glyph glyph-name="Dcaron" unicode="&#x10e;" horiz-adv-x="730" 
d="M292 886l66 -64l67 64h121l-122 -127h-136l-120 127h124zM331 128q43 0 82 13.5t68 41.5t46 70.5t17 100.5t-17 100.5t-45.5 70.5t-67.5 42t-82 14h-111v-453h110zM83 0v709h254q76 0 140 -24t110.5 -69.5t73 -111.5t26.5 -150t-26.5 -150t-73.5 -111t-111 -69t-140 -24
h-253z" />
    <glyph glyph-name="dcaron" unicode="&#x10f;" horiz-adv-x="612" 
d="M673 526h-89l29 198h132zM544 89q0 -25 1 -49.5t3 -39.5h-127q-2 8 -3.5 24t-1.5 33q-17 -29 -52.5 -49t-85.5 -20q-53 0 -97 19.5t-75.5 54t-49.5 82t-18 103.5q0 54 17.5 101t48.5 81.5t74.5 54.5t95.5 20q32 0 55.5 -6t40.5 -15t27.5 -19.5t15.5 -20.5v281h131v-635z
M172 247q0 -66 34.5 -103t87.5 -37q51 0 86 37t35 104q0 66 -35 101.5t-86 35.5t-86.5 -36t-35.5 -102z" />
    <glyph glyph-name="Dcroat" unicode="&#x110;" horiz-adv-x="747" 
d="M100 0v315h-88v102h88v292h254q76 0 140 -24t110.5 -69.5t73 -111.5t26.5 -150t-26.5 -150t-73.5 -111t-111 -69t-140 -24h-253zM348 128q43 0 82 13.5t68 41.5t46 70.5t17 100.5t-17 100.5t-45.5 70.5t-67.5 42t-82 14h-111v-164h137v-102h-137v-187h110z" />
    <glyph glyph-name="dcroat" unicode="&#x111;" horiz-adv-x="612" 
d="M544 646h71v-95h-71v-462q0 -23 1 -49t3 -40h-127q-2 8 -3.5 24t-1.5 33q-17 -29 -52.5 -49t-85.5 -20q-53 0 -97 19.5t-75.5 54t-49.5 82t-18 103.5q0 54 17.5 101t48.5 81.5t74.5 54.5t95.5 20q32 0 55.5 -6t40.5 -15t27.5 -19.5t15.5 -20.5v108h-115v95h115v78h131
v-78zM172 247q0 -66 34.5 -103t87.5 -37q51 0 86 37t35 104q0 66 -35 101.5t-86 35.5t-86.5 -36t-35.5 -102z" />
    <glyph glyph-name="Emacron" unicode="&#x112;" horiz-adv-x="579" 
d="M83 0v709h444v-130h-306v-162h277v-123h-277v-164h306v-130h-444zM151 774v100h305v-100h-305z" />
    <glyph glyph-name="emacron" unicode="&#x113;" horiz-adv-x="563" 
d="M393 301q-1 18 -7.5 36t-20 31.5t-34 22t-48.5 8.5q-26 0 -46 -9t-34 -23t-21.5 -31.5t-8.5 -34.5h220zM513 133q-10 -31 -29.5 -58t-47.5 -47t-64.5 -31.5t-80.5 -11.5q-51 0 -96.5 17.5t-80 51t-55 82.5t-20.5 112q0 59 20 107t54 81.5t77.5 52t90.5 18.5
q115 0 179 -68t64 -187q0 -14 -1 -26.5t-1 -14.5h-352q1 -25 11 -45.5t26.5 -35.5t38 -23t46.5 -8q44 0 71 19.5t38 49.5zM151 577v97h281v-97h-281z" />
    <glyph glyph-name="Ebreve" unicode="&#x114;" horiz-adv-x="579" 
d="M83 0v709h444v-130h-306v-162h277v-123h-277v-164h306v-130h-444zM302 753q-41 0 -71 12t-50.5 31t-30.5 43.5t-11 48.5h102q1 -20 15.5 -35.5t45.5 -15.5t45.5 15.5t15.5 35.5h102q-1 -24 -11 -48.5t-30.5 -43.5t-50.5 -31t-71 -12z" />
    <glyph glyph-name="ebreve" unicode="&#x115;" horiz-adv-x="563" 
d="M393 301q-1 18 -7.5 36t-20 31.5t-34 22t-48.5 8.5q-26 0 -46 -9t-34 -23t-21.5 -31.5t-8.5 -34.5h220zM513 133q-10 -31 -29.5 -58t-47.5 -47t-64.5 -31.5t-80.5 -11.5q-51 0 -96.5 17.5t-80 51t-55 82.5t-20.5 112q0 59 20 107t54 81.5t77.5 52t90.5 18.5
q115 0 179 -68t64 -187q0 -14 -1 -26.5t-1 -14.5h-352q1 -25 11 -45.5t26.5 -35.5t38 -23t46.5 -8q44 0 71 19.5t38 49.5zM290 549q-39 0 -69 12.5t-50 33.5t-30.5 48.5t-11.5 56.5h89q1 -20 17.5 -39.5t54.5 -19.5q19 0 32 5.5t22 14t13 19t5 20.5h89q-1 -29 -11 -56.5
t-30.5 -48.5t-50 -33.5t-69.5 -12.5z" />
    <glyph glyph-name="Edotaccent" unicode="&#x116;" horiz-adv-x="579" 
d="M223 833q0 34 23.5 57t56.5 23q34 0 57.5 -23t23.5 -57q0 -33 -23.5 -56t-57.5 -23q-33 0 -56.5 23t-23.5 56zM83 0v709h444v-130h-306v-162h277v-123h-277v-164h306v-130h-444z" />
    <glyph glyph-name="edotaccent" unicode="&#x117;" horiz-adv-x="563" 
d="M393 301q-1 18 -7.5 36t-20 31.5t-34 22t-48.5 8.5q-26 0 -46 -9t-34 -23t-21.5 -31.5t-8.5 -34.5h220zM513 133q-10 -31 -29.5 -58t-47.5 -47t-64.5 -31.5t-80.5 -11.5q-51 0 -96.5 17.5t-80 51t-55 82.5t-20.5 112q0 59 20 107t54 81.5t77.5 52t90.5 18.5
q115 0 179 -68t64 -187q0 -14 -1 -26.5t-1 -14.5h-352q1 -25 11 -45.5t26.5 -35.5t38 -23t46.5 -8q44 0 71 19.5t38 49.5zM212 627q0 34 23.5 56.5t56.5 22.5t56.5 -22.5t23.5 -56.5q0 -33 -23.5 -55.5t-56.5 -22.5t-56.5 22.5t-23.5 55.5z" />
    <glyph glyph-name="Eogonek" unicode="&#x118;" horiz-adv-x="579" 
d="M475 -223q-54 0 -88.5 29t-34.5 78q0 45 22.5 72.5t50.5 43.5h-342v709h444v-130h-306v-162h277v-123h-277v-164h306v-130q-14 -7 -28.5 -16.5t-25.5 -21.5t-18 -26t-7 -30q0 -23 14.5 -34t34.5 -11q10 0 16.5 0.5t13.5 2.5v-79q-10 -4 -22.5 -6t-29.5 -2z" />
    <glyph glyph-name="eogonek" unicode="&#x119;" horiz-adv-x="563" 
d="M513 133q-15 -45 -44.5 -78t-80.5 -53q-15 -6 -30 -15.5t-27 -22t-19.5 -27.5t-7.5 -31q0 -23 14.5 -34t34.5 -11q10 0 16 0.5t14 2.5v-79q-10 -4 -22.5 -6t-29.5 -2q-54 0 -88.5 29t-34.5 78q0 35 17 60.5t38 42.5q-46 4 -87 23.5t-71.5 52.5t-48 79.5t-17.5 105.5
t20 107t54 81.5t77.5 52t90.5 18.5q115 0 179 -68t64 -187q0 -14 -1 -26.5t-1 -14.5h-352q1 -25 11 -45.5t26.5 -35.5t38 -23t46.5 -8q44 0 71 19.5t38 49.5zM393 301q-1 18 -7.5 36t-20 31.5t-34 22t-48.5 8.5q-26 0 -46 -9t-34 -23t-21.5 -31.5t-8.5 -34.5h220z" />
    <glyph glyph-name="Ecaron" unicode="&#x11a;" horiz-adv-x="579" 
d="M242 886l66 -64l67 64h121l-122 -127h-136l-120 127h124zM83 0v709h444v-130h-306v-162h277v-123h-277v-164h306v-130h-444z" />
    <glyph glyph-name="ecaron" unicode="&#x11b;" horiz-adv-x="563" 
d="M220 700l70 -75l70 75h105l-109 -148h-133l-110 148h107zM393 301q-1 18 -7.5 36t-20 31.5t-34 22t-48.5 8.5q-26 0 -46 -9t-34 -23t-21.5 -31.5t-8.5 -34.5h220zM513 133q-10 -31 -29.5 -58t-47.5 -47t-64.5 -31.5t-80.5 -11.5q-51 0 -96.5 17.5t-80 51t-55 82.5
t-20.5 112q0 59 20 107t54 81.5t77.5 52t90.5 18.5q115 0 179 -68t64 -187q0 -14 -1 -26.5t-1 -14.5h-352q1 -25 11 -45.5t26.5 -35.5t38 -23t46.5 -8q44 0 71 19.5t38 49.5z" />
    <glyph glyph-name="Gcircumflex" unicode="&#x11c;" horiz-adv-x="776" 
d="M215 759l120 127h136l122 -127h-125l-67 65l-65 -65h-121zM605 0l-9 81q-11 -18 -29 -35.5t-43.5 -31t-58.5 -21.5t-73 -8q-71 0 -134.5 25.5t-111.5 73t-76.5 116t-28.5 154.5t29.5 154.5t79 116.5t115 73.5t136.5 25.5q70 0 124.5 -18t94 -48t65.5 -68.5t38 -79.5
l-132 -47q-7 24 -21.5 47.5t-37.5 42t-55.5 30.5t-75.5 12q-39 0 -78.5 -14t-71 -43.5t-51 -75t-19.5 -108.5q0 -60 18 -105.5t49 -76t70.5 -46t83.5 -15.5q49 0 83.5 14.5t56.5 36t32.5 45.5t13.5 43h-176v120h305v-370h-112z" />
    <glyph glyph-name="gcircumflex" unicode="&#x11d;" horiz-adv-x="605" 
d="M125 552l110 147h132l110 -147h-107l-71 75l-70 -75h-104zM159 -1q8 -35 39 -61t79 -26q62 0 95.5 32t33.5 105v36q-15 -24 -49 -43.5t-88 -19.5q-49 0 -91 18t-72.5 50t-48 75.5t-17.5 95.5q0 49 17 92.5t47 76.5t72 52t93 19q59 0 93 -21t47 -46v58h128v-439
q0 -51 -14.5 -97.5t-46 -82t-80 -57t-117.5 -21.5q-50 0 -91.5 14t-72.5 37.5t-50.5 54.5t-25.5 65zM292 136q51 0 83.5 34t32.5 91t-34 90.5t-82 33.5q-25 0 -46.5 -8.5t-37.5 -25t-25 -39.5t-9 -51q0 -58 33 -91.5t85 -33.5z" />
    <glyph glyph-name="Gbreve" unicode="&#x11e;" horiz-adv-x="776" 
d="M402 753q-41 0 -71 12t-50.5 31t-30.5 43.5t-11 48.5h102q1 -20 15.5 -35.5t45.5 -15.5t45.5 15.5t15.5 35.5h102q-1 -24 -11 -48.5t-30.5 -43.5t-50.5 -31t-71 -12zM605 0l-9 81q-11 -18 -29 -35.5t-43.5 -31t-58.5 -21.5t-73 -8q-71 0 -134.5 25.5t-111.5 73t-76.5 116
t-28.5 154.5t29.5 154.5t79 116.5t115 73.5t136.5 25.5q70 0 124.5 -18t94 -48t65.5 -68.5t38 -79.5l-132 -47q-7 24 -21.5 47.5t-37.5 42t-55.5 30.5t-75.5 12q-39 0 -78.5 -14t-71 -43.5t-51 -75t-19.5 -108.5q0 -60 18 -105.5t49 -76t70.5 -46t83.5 -15.5q49 0 83.5 14.5
t56.5 36t32.5 45.5t13.5 43h-176v120h305v-370h-112z" />
    <glyph glyph-name="gbreve" unicode="&#x11f;" horiz-adv-x="605" 
d="M159 -1q8 -35 39 -61t79 -26q62 0 95.5 32t33.5 105v36q-15 -24 -49 -43.5t-88 -19.5q-49 0 -91 18t-72.5 50t-48 75.5t-17.5 95.5q0 49 17 92.5t47 76.5t72 52t93 19q59 0 93 -21t47 -46v58h128v-439q0 -51 -14.5 -97.5t-46 -82t-80 -57t-117.5 -21.5q-50 0 -91.5 14
t-72.5 37.5t-50.5 54.5t-25.5 65zM292 136q51 0 83.5 34t32.5 91t-34 90.5t-82 33.5q-25 0 -46.5 -8.5t-37.5 -25t-25 -39.5t-9 -51q0 -58 33 -91.5t85 -33.5zM294 549q-39 0 -69 12.5t-50 33.5t-30.5 48.5t-11.5 56.5h89q1 -20 17.5 -39.5t54.5 -19.5q19 0 32 5.5t22 14
t13 19t5 20.5h89q-1 -29 -11 -56.5t-30.5 -48.5t-50 -33.5t-69.5 -12.5z" />
    <glyph glyph-name="Gdotaccent" unicode="&#x120;" horiz-adv-x="776" 
d="M324 836q0 34 23.5 57t56.5 23q34 0 57.5 -23t23.5 -57q0 -33 -23.5 -56t-57.5 -23q-33 0 -56.5 23t-23.5 56zM605 0l-9 81q-11 -18 -29 -35.5t-43.5 -31t-58.5 -21.5t-73 -8q-71 0 -134.5 25.5t-111.5 73t-76.5 116t-28.5 154.5t29.5 154.5t79 116.5t115 73.5
t136.5 25.5q70 0 124.5 -18t94 -48t65.5 -68.5t38 -79.5l-132 -47q-7 24 -21.5 47.5t-37.5 42t-55.5 30.5t-75.5 12q-39 0 -78.5 -14t-71 -43.5t-51 -75t-19.5 -108.5q0 -60 18 -105.5t49 -76t70.5 -46t83.5 -15.5q49 0 83.5 14.5t56.5 36t32.5 45.5t13.5 43h-176v120h305
v-370h-112z" />
    <glyph glyph-name="gdotaccent" unicode="&#x121;" horiz-adv-x="605" 
d="M159 -1q8 -35 39 -61t79 -26q62 0 95.5 32t33.5 105v36q-15 -24 -49 -43.5t-88 -19.5q-49 0 -91 18t-72.5 50t-48 75.5t-17.5 95.5q0 49 17 92.5t47 76.5t72 52t93 19q59 0 93 -21t47 -46v58h128v-439q0 -51 -14.5 -97.5t-46 -82t-80 -57t-117.5 -21.5q-50 0 -91.5 14
t-72.5 37.5t-50.5 54.5t-25.5 65zM292 136q51 0 83.5 34t32.5 91t-34 90.5t-82 33.5q-25 0 -46.5 -8.5t-37.5 -25t-25 -39.5t-9 -51q0 -58 33 -91.5t85 -33.5zM209 627q0 34 23.5 56.5t56.5 22.5t56.5 -22.5t23.5 -56.5q0 -33 -23.5 -55.5t-56.5 -22.5t-56.5 22.5
t-23.5 55.5z" />
    <glyph glyph-name="Gcommaaccent" unicode="&#x122;" horiz-adv-x="776" 
d="M332 -104q0 27 20.5 45.5t52.5 18.5q34 0 57.5 -24t23.5 -63t-13.5 -63.5t-34.5 -38.5t-46 -19.5t-47 -5.5v48q36 0 57 13.5t24 33.5q-3 -2 -10.5 -4.5t-18.5 -2.5q-31 0 -48 17.5t-17 44.5zM605 0l-9 81q-11 -18 -29 -35.5t-43.5 -31t-58.5 -21.5t-73 -8
q-71 0 -134.5 25.5t-111.5 73t-76.5 116t-28.5 154.5t29.5 154.5t79 116.5t115 73.5t136.5 25.5q70 0 124.5 -18t94 -48t65.5 -68.5t38 -79.5l-132 -47q-7 24 -21.5 47.5t-37.5 42t-55.5 30.5t-75.5 12q-39 0 -78.5 -14t-71 -43.5t-51 -75t-19.5 -108.5q0 -60 18 -105.5
t49 -76t70.5 -46t83.5 -15.5q49 0 83.5 14.5t56.5 36t32.5 45.5t13.5 43h-176v120h305v-370h-112z" />
    <glyph glyph-name="gcommaaccent" unicode="&#x123;" horiz-adv-x="605" 
d="M363 605q0 -28 -20.5 -46t-52.5 -18q-35 0 -58 24t-23 62q0 36 13.5 60t34.5 39t46 21.5t47 6.5v-48q-37 0 -58 -14t-23 -32q1 1 9 4t19 3q32 0 49 -18t17 -44zM159 -1q8 -35 39 -61t79 -26q62 0 95.5 32t33.5 105v36q-15 -24 -49 -43.5t-88 -19.5q-49 0 -91 18t-72.5 50
t-48 75.5t-17.5 95.5q0 49 17 92.5t47 76.5t72 52t93 19q59 0 93 -21t47 -46v58h128v-439q0 -51 -14.5 -97.5t-46 -82t-80 -57t-117.5 -21.5q-50 0 -91.5 14t-72.5 37.5t-50.5 54.5t-25.5 65zM292 136q51 0 83.5 34t32.5 91t-34 90.5t-82 33.5q-25 0 -46.5 -8.5t-37.5 -25
t-25 -39.5t-9 -51q0 -58 33 -91.5t85 -33.5z" />
    <glyph glyph-name="Hcircumflex" unicode="&#x124;" horiz-adv-x="752" 
d="M530 0v294h-309v-294h-138v709h138v-285h309v285h139v-709h-139zM187 759l120 127h136l122 -127h-125l-67 65l-65 -65h-121z" />
    <glyph glyph-name="hcircumflex" unicode="&#x125;" horiz-adv-x="580" 
d="M104 769l120 127h136l122 -127h-125l-67 65l-65 -65h-121zM201 0h-133v724h133v-273q24 29 61 41.5t72 12.5q47 0 81.5 -15.5t57 -41.5t33.5 -62t11 -76v-310h-133v287q0 42 -21.5 70t-69.5 28q-42 0 -66 -27.5t-26 -68.5v-289z" />
    <glyph glyph-name="Hbar" unicode="&#x126;" horiz-adv-x="760" 
d="M534 0v294h-309v-294h-138v517h-71v87h71v105h138v-105h309v105h139v-105h71v-87h-71v-517h-139zM534 424v93h-309v-93h309z" />
    <glyph glyph-name="hbar" unicode="&#x127;" horiz-adv-x="580" 
d="M201 0h-133v552h-79v95h79v77h133v-77h111v-95h-111v-101q24 29 61 41.5t72 12.5q47 0 81.5 -15.5t57 -41.5t33.5 -62t11 -76v-310h-133v287q0 42 -21.5 70t-69.5 28q-42 0 -66 -27.5t-26 -68.5v-289z" />
    <glyph glyph-name="Itilde" unicode="&#x128;" horiz-adv-x="306" 
d="M83 0v709h140v-709h-140zM326 862q0 -55 -29.5 -82.5t-71.5 -27.5q-23 0 -41.5 7t-33.5 17l-6 4q-14 8 -25.5 14t-22.5 6q-29 0 -29 -43h-80v27q0 55 30 82t71 27q23 0 41.5 -7t34.5 -16l6 -4q14 -7 25 -13t22 -6q12 0 20.5 7t8.5 24v12h80v-28z" />
    <glyph glyph-name="itilde" unicode="&#x129;" horiz-adv-x="269" 
d="M68 0v492h133v-492h-133zM308 678q0 -63 -30 -93t-77 -30q-21 0 -39 6t-32 16l-6 4q-10 6 -19.5 12t-27.5 6q-16 0 -25 -10t-10 -33h-82v21q0 61 31.5 91t77.5 30q22 0 39 -7t33 -15l6 -4q13 -8 24.5 -13.5t23.5 -5.5q33 0 33 43h80v-18z" />
    <glyph glyph-name="Imacron" unicode="&#x12a;" horiz-adv-x="306" 
d="M83 0v709h140v-709h-140zM2 774v100h305v-100h-305z" />
    <glyph glyph-name="imacron" unicode="&#x12b;" horiz-adv-x="269" 
d="M68 0v492h133v-492h-133zM-5 577v97h281v-97h-281z" />
    <glyph glyph-name="Ibreve" unicode="&#x12c;" horiz-adv-x="306" 
d="M83 0v709h140v-709h-140zM154 753q-41 0 -71 12t-50.5 31t-30.5 43.5t-11 48.5h102q1 -20 15.5 -35.5t45.5 -15.5t45.5 15.5t15.5 35.5h102q-1 -24 -11 -48.5t-30.5 -43.5t-50.5 -31t-71 -12z" />
    <glyph glyph-name="ibreve" unicode="&#x12d;" horiz-adv-x="269" 
d="M68 0v492h133v-492h-133zM135 549q-39 0 -69 12.5t-50 33.5t-30.5 48.5t-11.5 56.5h89q1 -20 17.5 -39.5t54.5 -19.5q19 0 32 5.5t22 14t13 19t5 20.5h89q-1 -29 -11 -56.5t-30.5 -48.5t-50 -33.5t-69.5 -12.5z" />
    <glyph glyph-name="Iogonek" unicode="&#x12e;" horiz-adv-x="306" 
d="M171 -223q-54 0 -88.5 29t-34.5 78q0 45 22.5 72.5t50.5 43.5h-38v709h140v-709q-14 -7 -28.5 -16.5t-25.5 -21.5t-18 -26t-7 -30q0 -23 13.5 -34t36.5 -11q11 0 16.5 0.5t12.5 2.5v-79q-10 -4 -22.5 -6t-29.5 -2z" />
    <glyph glyph-name="iogonek" unicode="&#x12f;" horiz-adv-x="269" 
d="M149 -223q-54 0 -88.5 29t-34.5 78q0 45 22 72t50 44h-30v492h133v-492q-14 -7 -28.5 -16.5t-25.5 -21.5t-18 -26t-7 -30q0 -23 14.5 -34t34.5 -11q10 0 16 0.5t14 2.5v-79q-10 -4 -22.5 -6t-29.5 -2zM52 653q0 35 24 59t58 24q35 0 58.5 -24t23.5 -59q0 -33 -23.5 -57
t-58.5 -24q-34 0 -58 24t-24 57z" />
    <glyph glyph-name="Idotaccent" unicode="&#x130;" horiz-adv-x="306" 
d="M83 0v709h140v-709h-140zM72 833q0 34 23.5 57t56.5 23q34 0 57.5 -23t23.5 -57q0 -33 -23.5 -56t-57.5 -23q-33 0 -56.5 23t-23.5 56z" />
    <glyph glyph-name="dotlessi" unicode="&#x131;" horiz-adv-x="269" 
d="M68 0v492h133v-492h-133z" />
    <glyph glyph-name="IJ" unicode="&#x132;" horiz-adv-x="620" 
d="M77 308v401h140v-401h-140zM217 240v-18q0 -55 26 -80.5t68 -25.5q45 0 69.5 28t24.5 75v490h138v-490q0 -48 -16.5 -90.5t-47 -74.5t-73 -50.5t-94.5 -18.5t-95.5 16.5t-74.5 47t-48 73t-17 94.5z" />
    <glyph glyph-name="ij" unicode="&#x133;" horiz-adv-x="538" 
d="M68 0v492h133v-492h-133zM52 653q0 35 24 59t58 24q35 0 58.5 -24t23.5 -59q0 -33 -23.5 -57t-58.5 -24q-34 0 -58 24t-24 57zM337 492h133v-535q0 -36 -10.5 -65.5t-30.5 -51t-48.5 -33.5t-64.5 -12q-29 0 -49.5 4.5t-25.5 6.5v111q7 -2 17 -3.5t24 -1.5q30 0 42.5 15.5
t12.5 42.5v522zM321 654q0 35 24 59t58 24q35 0 58.5 -24t23.5 -59q0 -34 -23.5 -57.5t-58.5 -23.5q-34 0 -58 23.5t-24 57.5z" />
    <glyph glyph-name="Jcircumflex" unicode="&#x134;" horiz-adv-x="561" 
d="M227 759l120 127h136l122 -127h-125l-67 65l-65 -65h-121zM21 226l133 23v-20q0 -59 28 -87.5t70 -28.5q44 0 69 28t25 75v493h138v-490q0 -48 -16.5 -90.5t-47 -74.5t-73 -50.5t-94.5 -18.5q-53 0 -95.5 16.5t-73 46.5t-47 72t-16.5 93v13z" />
    <glyph glyph-name="jcircumflex" unicode="&#x135;" horiz-adv-x="269" 
d="M-42 552l110 147h132l110 -147h-107l-71 75l-70 -75h-104zM68 492h133v-535q0 -36 -10.5 -65.5t-30.5 -51t-48.5 -33.5t-64.5 -12q-32 0 -51 4.5t-24 6.5v111q6 -2 16 -3.5t25 -1.5q30 0 42.5 15.5t12.5 42.5v522z" />
    <glyph glyph-name="Kcommaaccent" unicode="&#x136;" horiz-adv-x="688" 
d="M309 294l-88 -97v-197h-138v709h138v-321l284 321h181l-281 -309l283 -400h-173zM293 -99q0 27 20.5 45.5t52.5 18.5q34 0 57.5 -24t23.5 -63t-13.5 -63.5t-34.5 -38.5t-46 -19.5t-47 -5.5v48q36 0 57 13.5t24 33.5q-3 -2 -10.5 -4.5t-18.5 -2.5q-31 0 -48 17.5t-17 44.5
z" />
    <glyph glyph-name="kcommaaccent" unicode="&#x137;" horiz-adv-x="558" 
d="M348 285l201 -285h-163l-130 188l-55 -58v-130h-133v724h133v-415l170 183h174zM228 -102q0 27 20.5 45.5t52.5 18.5q34 0 57.5 -24t23.5 -63t-13.5 -63.5t-34.5 -38.5t-46 -19.5t-47 -5.5v48q36 0 57 13.5t24 33.5q-3 -2 -10.5 -4.5t-18.5 -2.5q-31 0 -48 17.5t-17 44.5
z" />
    <glyph glyph-name="kgreenlandic" unicode="&#x138;" horiz-adv-x="558" 
d="M348 285l201 -285h-163l-130 188l-55 -58v-130h-133v492h133v-183l170 183h174z" />
    <glyph glyph-name="Lacute" unicode="&#x139;" horiz-adv-x="553" 
d="M217 759h-122l103 127h164zM83 0v709h138v-577h316v-132h-454z" />
    <glyph glyph-name="lacute" unicode="&#x13a;" horiz-adv-x="269" 
d="M190 769h-122l103 127h164zM68 0v724h133v-724h-133z" />
    <glyph glyph-name="Lcommaaccent" unicode="&#x13b;" horiz-adv-x="553" 
d="M83 0v709h138v-577h316v-132h-454zM239 -102q0 27 20.5 45.5t52.5 18.5q34 0 57.5 -24t23.5 -63t-13.5 -63.5t-34.5 -38.5t-46 -19.5t-47 -5.5v48q36 0 57 13.5t24 33.5q-3 -2 -10.5 -4.5t-18.5 -2.5q-31 0 -48 17.5t-17 44.5z" />
    <glyph glyph-name="lcommaaccent" unicode="&#x13c;" horiz-adv-x="269" 
d="M68 0v724h133v-724h-133zM57 -102q0 27 20.5 45.5t52.5 18.5q34 0 57.5 -24t23.5 -63t-13.5 -63.5t-34.5 -38.5t-46 -19.5t-47 -5.5v48q36 0 57 13.5t24 33.5q-3 -2 -10.5 -4.5t-18.5 -2.5q-31 0 -48 17.5t-17 44.5z" />
    <glyph glyph-name="Lcaron" unicode="&#x13d;" horiz-adv-x="553" 
d="M83 0v709h138v-577h316v-132h-454zM403 552h-94l31 208h138z" />
    <glyph glyph-name="lcaron" unicode="&#x13e;" horiz-adv-x="269" 
d="M328 526h-89l29 198h132zM68 0v724h133v-724h-133z" />
    <glyph glyph-name="Ldot" unicode="&#x13f;" horiz-adv-x="554" 
d="M305 404q0 32 23 54t55 22t54.5 -22t22.5 -54t-22.5 -54t-54.5 -22t-55 22t-23 54zM83 0v709h138v-577h316v-132h-454z" />
    <glyph glyph-name="ldot" unicode="&#x140;" horiz-adv-x="401" 
d="M68 0v724h133v-724h-133zM251 330q0 34 23.5 56.5t56.5 22.5t56.5 -22.5t23.5 -56.5q0 -33 -23.5 -55.5t-56.5 -22.5t-56.5 22.5t-23.5 55.5z" />
    <glyph glyph-name="Lslash" unicode="&#x141;" horiz-adv-x="577" 
d="M107 0v259l-92 -42v111l92 42v339h138v-276l161 73v-111l-161 -73v-190h316v-132h-454z" />
    <glyph glyph-name="lslash" unicode="&#x142;" horiz-adv-x="372" 
d="M120 0v258l-85 -39v111l85 39v355h133v-295l87 40v-111l-87 -40v-318h-133z" />
    <glyph glyph-name="Nacute" unicode="&#x143;" horiz-adv-x="771" 
d="M413 759h-122l103 127h164zM543 0l-322 503v-503h-138v709h172l295 -469v469h138v-709h-145z" />
    <glyph glyph-name="nacute" unicode="&#x144;" horiz-adv-x="580" 
d="M314 551h-107l91 150h152zM201 0h-133v492h129v-61q23 38 62.5 56t79.5 18q46 0 79.5 -15.5t55.5 -41.5t32.5 -62t10.5 -76v-310h-133v287q0 42 -21.5 70t-69.5 28q-44 0 -68 -29.5t-24 -72.5v-283z" />
    <glyph glyph-name="Ncommaaccent" unicode="&#x145;" horiz-adv-x="771" 
d="M329 -102q0 27 20.5 45.5t52.5 18.5q34 0 57.5 -24t23.5 -63t-13.5 -63.5t-34.5 -38.5t-46 -19.5t-47 -5.5v48q36 0 57 13.5t24 33.5q-3 -2 -10.5 -4.5t-18.5 -2.5q-31 0 -48 17.5t-17 44.5zM543 0l-322 503v-503h-138v709h172l295 -469v469h138v-709h-145z" />
    <glyph glyph-name="ncommaaccent" unicode="&#x146;" horiz-adv-x="580" 
d="M221 -100q0 27 20.5 45.5t52.5 18.5q34 0 57.5 -24t23.5 -63t-13.5 -63.5t-34.5 -38.5t-46 -19.5t-47 -5.5v48q36 0 57 13.5t24 33.5q-3 -2 -10.5 -4.5t-18.5 -2.5q-31 0 -48 17.5t-17 44.5zM201 0h-133v492h129v-61q23 38 62.5 56t79.5 18q46 0 79.5 -15.5t55.5 -41.5
t32.5 -62t10.5 -76v-310h-133v287q0 42 -21.5 70t-69.5 28q-44 0 -68 -29.5t-24 -72.5v-283z" />
    <glyph glyph-name="Ncaron" unicode="&#x147;" horiz-adv-x="771" 
d="M319 886l66 -64l67 64h121l-122 -127h-136l-120 127h124zM543 0l-322 503v-503h-138v709h172l295 -469v469h138v-709h-145z" />
    <glyph glyph-name="ncaron" unicode="&#x148;" horiz-adv-x="580" 
d="M213 700l70 -75l70 75h105l-109 -148h-133l-110 148h107zM201 0h-133v492h129v-61q23 38 62.5 56t79.5 18q46 0 79.5 -15.5t55.5 -41.5t32.5 -62t10.5 -76v-310h-133v287q0 42 -21.5 70t-69.5 28q-44 0 -68 -29.5t-24 -72.5v-283z" />
    <glyph glyph-name="napostrophe" unicode="&#x149;" horiz-adv-x="580" 
d="M55 683q0 27 20.5 45.5t52.5 18.5q34 0 57.5 -24t23.5 -62q0 -40 -14 -64.5t-35.5 -38.5t-46 -19t-45.5 -5v47q36 0 57 13t24 33q-2 -1 -10 -4t-19 -3q-31 0 -48 18t-17 45zM201 0h-133v492h129v-61q23 38 62.5 56t79.5 18q46 0 79.5 -15.5t55.5 -41.5t32.5 -62t10.5 -76
v-310h-133v287q0 42 -21.5 70t-69.5 28q-44 0 -68 -29.5t-24 -72.5v-283z" />
    <glyph glyph-name="Eng" unicode="&#x14a;" horiz-adv-x="771" 
d="M221 503v-503h-138v709h172l295 -466v466h138v-746q0 -36 -11.5 -66.5t-32.5 -52t-51 -33.5t-66 -12q-33 0 -54 4.5t-26 6.5v113q6 -2 18.5 -3.5t26.5 -1.5q32 0 45 15t13 41v18z" />
    <glyph glyph-name="eng" unicode="&#x14b;" horiz-adv-x="580" 
d="M201 0h-133v492h129v-61q23 38 62.5 56t79.5 18q46 0 79.5 -15.5t55.5 -41.5t32.5 -62t10.5 -76v-350q0 -36 -11 -65.5t-31.5 -51t-49.5 -33.5t-65 -12q-32 0 -51.5 4t-24.5 7v110q6 -2 17 -3.5t25 -1.5q32 0 45 16t13 43v314q0 42 -21.5 70t-69.5 28q-44 0 -68 -29.5
t-24 -72.5v-283z" />
    <glyph glyph-name="Omacron" unicode="&#x14c;" horiz-adv-x="811" 
d="M184 355q0 -60 19 -104.5t50.5 -73.5t71 -43.5t80.5 -14.5t81 14.5t71.5 43.5t50.5 73.5t19 104.5t-19 104.5t-50.5 73.5t-71.5 43.5t-81 14.5t-80.5 -14.5t-71 -43.5t-50.5 -73.5t-19 -104.5zM41 354q0 86 30 154.5t80 116.5t116 73.5t138 25.5t138.5 -25.5t116.5 -73.5
t80 -116.5t30 -154.5t-30 -154t-80 -116t-116.5 -73.5t-138.5 -25.5t-138 25.5t-116 73.5t-80 116t-30 154zM253 774v100h305v-100h-305z" />
    <glyph glyph-name="omacron" unicode="&#x14d;" horiz-adv-x="592" 
d="M156 577v97h281v-97h-281zM296 106q24 0 47 9t40 26.5t27.5 43.5t10.5 61t-10.5 61t-27.5 43.5t-40 26.5t-47 9t-47 -9t-40 -26.5t-27.5 -43.5t-10.5 -61t10.5 -61t27.5 -43.5t40 -26.5t47 -9zM296 507q55 0 102.5 -19.5t82 -54t54 -82.5t19.5 -105t-19.5 -104.5
t-54 -82.5t-82 -54.5t-102.5 -19.5t-102.5 19.5t-82 54.5t-54 82.5t-19.5 104.5t19.5 105t54 82.5t82 54t102.5 19.5z" />
    <glyph glyph-name="Obreve" unicode="&#x14e;" horiz-adv-x="811" 
d="M408 753q-41 0 -71 12t-50.5 31t-30.5 43.5t-11 48.5h102q1 -20 15.5 -35.5t45.5 -15.5t45.5 15.5t15.5 35.5h102q-1 -24 -11 -48.5t-30.5 -43.5t-50.5 -31t-71 -12zM184 355q0 -60 19 -104.5t50.5 -73.5t71 -43.5t80.5 -14.5t81 14.5t71.5 43.5t50.5 73.5t19 104.5
t-19 104.5t-50.5 73.5t-71.5 43.5t-81 14.5t-80.5 -14.5t-71 -43.5t-50.5 -73.5t-19 -104.5zM41 354q0 86 30 154.5t80 116.5t116 73.5t138 25.5t138.5 -25.5t116.5 -73.5t80 -116.5t30 -154.5t-30 -154t-80 -116t-116.5 -73.5t-138.5 -25.5t-138 25.5t-116 73.5t-80 116
t-30 154z" />
    <glyph glyph-name="obreve" unicode="&#x14f;" horiz-adv-x="592" 
d="M296 106q24 0 47 9t40 26.5t27.5 43.5t10.5 61t-10.5 61t-27.5 43.5t-40 26.5t-47 9t-47 -9t-40 -26.5t-27.5 -43.5t-10.5 -61t10.5 -61t27.5 -43.5t40 -26.5t47 -9zM296 507q55 0 102.5 -19.5t82 -54t54 -82.5t19.5 -105t-19.5 -104.5t-54 -82.5t-82 -54.5t-102.5 -19.5
t-102.5 19.5t-82 54.5t-54 82.5t-19.5 104.5t19.5 105t54 82.5t82 54t102.5 19.5zM296 549q-39 0 -69 12.5t-50 33.5t-30.5 48.5t-11.5 56.5h89q1 -20 17.5 -39.5t54.5 -19.5q19 0 32 5.5t22 14t13 19t5 20.5h89q-1 -29 -11 -56.5t-30.5 -48.5t-50 -33.5t-69.5 -12.5z" />
    <glyph glyph-name="Ohungarumlaut" unicode="&#x150;" horiz-adv-x="811" 
d="M359 759h-86l53 127h127zM516 759h-88l67 127h129zM184 355q0 -60 19 -104.5t50.5 -73.5t71 -43.5t80.5 -14.5t81 14.5t71.5 43.5t50.5 73.5t19 104.5t-19 104.5t-50.5 73.5t-71.5 43.5t-81 14.5t-80.5 -14.5t-71 -43.5t-50.5 -73.5t-19 -104.5zM41 354q0 86 30 154.5
t80 116.5t116 73.5t138 25.5t138.5 -25.5t116.5 -73.5t80 -116.5t30 -154.5t-30 -154t-80 -116t-116.5 -73.5t-138.5 -25.5t-138 25.5t-116 73.5t-80 116t-30 154z" />
    <glyph glyph-name="ohungarumlaut" unicode="&#x151;" horiz-adv-x="592" 
d="M296 106q24 0 47 9t40 26.5t27.5 43.5t10.5 61t-10.5 61t-27.5 43.5t-40 26.5t-47 9t-47 -9t-40 -26.5t-27.5 -43.5t-10.5 -61t10.5 -61t27.5 -43.5t40 -26.5t47 -9zM296 507q55 0 102.5 -19.5t82 -54t54 -82.5t19.5 -105t-19.5 -104.5t-54 -82.5t-82 -54.5t-102.5 -19.5
t-102.5 19.5t-82 54.5t-54 82.5t-19.5 104.5t19.5 105t54 82.5t82 54t102.5 19.5zM255 551h-84l52 150h129zM407 551h-85l66 150h131z" />
    <glyph glyph-name="OE" unicode="&#x152;" horiz-adv-x="1123" 
d="M184 355q0 -60 19 -104.5t50.5 -73.5t71 -43.5t80.5 -14.5t81 14.5t71.5 43.5t50.5 73.5t19 104.5t-19 104.5t-50.5 73.5t-71.5 43.5t-81 14.5t-80.5 -14.5t-71 -43.5t-50.5 -73.5t-19 -104.5zM627 0v71q-41 -42 -96.5 -64t-125.5 -22q-72 0 -138 25.5t-116 73.5t-80 116
t-30 154t30 154.5t80 116.5t116 73.5t138 25.5q70 0 125.5 -22.5t96.5 -64.5v72h444v-130h-306v-162h277v-123h-277v-164h306v-130h-444z" />
    <glyph glyph-name="oe" unicode="&#x153;" horiz-adv-x="946" 
d="M776 302q-1 18 -7.5 35.5t-20 31t-34 22t-48.5 8.5q-26 0 -46 -9t-34 -23t-21.5 -31t-8.5 -34h220zM296 106q24 0 47 9t40 26.5t27.5 43.5t10.5 61t-10.5 61t-27.5 43.5t-40 26.5t-47 9t-47 -9t-40 -26.5t-27.5 -43.5t-10.5 -61t10.5 -61t27.5 -43.5t40 -26.5t47 -9z
M296 507q58 0 106.5 -21t83.5 -59q35 38 81 59t97 21q115 0 179 -68t64 -187q0 -14 -1 -26.5t-1 -14.5h-352q1 -24 11.5 -44.5t27 -35.5t38.5 -23.5t47 -8.5q47 0 73.5 21t38.5 54l111 -33q-9 -32 -28.5 -60.5t-47.5 -49.5t-65.5 -33.5t-82.5 -12.5q-55 0 -104.5 20.5
t-84.5 60.5q-35 -38 -84 -59.5t-107 -21.5q-55 0 -102.5 19.5t-82 54.5t-54 82.5t-19.5 104.5t19.5 105t54 82.5t82 54t102.5 19.5z" />
    <glyph glyph-name="Racute" unicode="&#x154;" horiz-adv-x="630" 
d="M346 759h-122l103 127h164zM294 273h-72v-273h-139v709h277q52 0 93.5 -17t71 -46t45.5 -69t16 -86q0 -75 -40.5 -128t-110.5 -73l152 -290h-154zM334 392q53 0 82 27t29 71q0 45 -29 72t-82 27h-112v-197h112z" />
    <glyph glyph-name="racute" unicode="&#x155;" horiz-adv-x="385" 
d="M217 551h-107l91 150h152zM365 358q-20 4 -40 4q-26 0 -48.5 -7.5t-39 -24t-26.5 -43.5t-10 -67v-220h-133v492h129v-78q11 25 28 41t36 24.5t38.5 11.5t34.5 3q17 0 31 -3v-133z" />
    <glyph glyph-name="Rcommaaccent" unicode="&#x156;" horiz-adv-x="630" 
d="M294 273h-72v-273h-139v709h277q52 0 93.5 -17t71 -46t45.5 -69t16 -86q0 -75 -40.5 -128t-110.5 -73l152 -290h-154zM334 392q53 0 82 27t29 71q0 45 -29 72t-82 27h-112v-197h112zM259 -99q0 27 20.5 45.5t52.5 18.5q34 0 57.5 -24t23.5 -63t-13.5 -63.5t-34.5 -38.5
t-46 -19.5t-47 -5.5v48q36 0 57 13.5t24 33.5q-3 -2 -10.5 -4.5t-18.5 -2.5q-31 0 -48 17.5t-17 44.5z" />
    <glyph glyph-name="rcommaaccent" unicode="&#x157;" horiz-adv-x="385" 
d="M365 358q-20 4 -40 4q-26 0 -48.5 -7.5t-39 -24t-26.5 -43.5t-10 -67v-220h-133v492h129v-78q11 25 28 41t36 24.5t38.5 11.5t34.5 3q17 0 31 -3v-133zM59 -102q0 27 20.5 45.5t52.5 18.5q34 0 57.5 -24t23.5 -63t-13.5 -63.5t-34.5 -38.5t-46 -19.5t-47 -5.5v48
q36 0 57 13.5t24 33.5q-3 -2 -10.5 -4.5t-18.5 -2.5q-31 0 -48 17.5t-17 44.5z" />
    <glyph glyph-name="Rcaron" unicode="&#x158;" horiz-adv-x="630" 
d="M249 886l66 -64l67 64h121l-122 -127h-136l-120 127h124zM294 273h-72v-273h-139v709h277q52 0 93.5 -17t71 -46t45.5 -69t16 -86q0 -75 -40.5 -128t-110.5 -73l152 -290h-154zM334 392q53 0 82 27t29 71q0 45 -29 72t-82 27h-112v-197h112z" />
    <glyph glyph-name="rcaron" unicode="&#x159;" horiz-adv-x="385" 
d="M140 700l70 -75l70 75h105l-109 -148h-133l-110 148h107zM365 358q-20 4 -40 4q-26 0 -48.5 -7.5t-39 -24t-26.5 -43.5t-10 -67v-220h-133v492h129v-78q11 25 28 41t36 24.5t38.5 11.5t34.5 3q17 0 31 -3v-133z" />
    <glyph glyph-name="Sacute" unicode="&#x15a;" horiz-adv-x="611" 
d="M364 759h-122l103 127h164zM437 502q-3 15 -10.5 32.5t-22.5 32.5t-38.5 25t-57.5 10q-25 0 -45.5 -7.5t-35 -20t-22.5 -28.5t-8 -34q0 -29 19 -50.5t58 -29.5l99 -19q48 -9 85 -29t62 -47.5t38 -61.5t13 -71q0 -41 -17 -80.5t-49.5 -70t-80 -49.5t-109.5 -19
q-71 0 -122 20.5t-85.5 52.5t-52.5 71.5t-22 77.5l128 34q2 -26 12.5 -50t29.5 -42.5t47 -29.5t66 -11q56 0 85.5 24.5t29.5 62.5q0 31 -22 53.5t-64 30.5l-99 20q-85 17 -135.5 69.5t-50.5 133.5q0 47 19.5 87.5t53.5 70.5t79 47t95 17q64 0 109.5 -17.5t75.5 -44.5
t46.5 -59.5t22.5 -62.5z" />
    <glyph glyph-name="sacute" unicode="&#x15b;" horiz-adv-x="471" 
d="M285 551h-107l91 150h152zM149 160q2 -29 24 -51t66 -22q33 0 49 14.5t16 34.5q0 17 -12 29.5t-41 18.5l-65 15q-72 16 -105 55.5t-33 91.5q0 36 16 65.5t42.5 51t59.5 33t68 11.5q52 0 88 -14.5t58 -36.5t32.5 -46.5t12.5 -44.5l-111 -23q-2 11 -6.5 22.5t-14.5 20.5
t-24.5 15t-35.5 6q-26 0 -44.5 -14t-18.5 -35q0 -18 12 -28.5t33 -15.5l70 -15q73 -15 109.5 -56t36.5 -95q0 -30 -12 -59t-36 -52t-60.5 -37t-84.5 -14q-36 0 -70.5 9t-62 28t-46 47.5t-24.5 67.5z" />
    <glyph glyph-name="Scircumflex" unicode="&#x15c;" horiz-adv-x="611" 
d="M133 759l120 127h136l122 -127h-125l-67 65l-65 -65h-121zM437 502q-3 15 -10.5 32.5t-22.5 32.5t-38.5 25t-57.5 10q-25 0 -45.5 -7.5t-35 -20t-22.5 -28.5t-8 -34q0 -29 19 -50.5t58 -29.5l99 -19q48 -9 85 -29t62 -47.5t38 -61.5t13 -71q0 -41 -17 -80.5t-49.5 -70
t-80 -49.5t-109.5 -19q-71 0 -122 20.5t-85.5 52.5t-52.5 71.5t-22 77.5l128 34q2 -26 12.5 -50t29.5 -42.5t47 -29.5t66 -11q56 0 85.5 24.5t29.5 62.5q0 31 -22 53.5t-64 30.5l-99 20q-85 17 -135.5 69.5t-50.5 133.5q0 47 19.5 87.5t53.5 70.5t79 47t95 17
q64 0 109.5 -17.5t75.5 -44.5t46.5 -59.5t22.5 -62.5z" />
    <glyph glyph-name="scircumflex" unicode="&#x15d;" horiz-adv-x="471" 
d="M69 552l110 147h132l110 -147h-107l-71 75l-70 -75h-104zM149 160q2 -29 24 -51t66 -22q33 0 49 14.5t16 34.5q0 17 -12 29.5t-41 18.5l-65 15q-72 16 -105 55.5t-33 91.5q0 36 16 65.5t42.5 51t59.5 33t68 11.5q52 0 88 -14.5t58 -36.5t32.5 -46.5t12.5 -44.5l-111 -23
q-2 11 -6.5 22.5t-14.5 20.5t-24.5 15t-35.5 6q-26 0 -44.5 -14t-18.5 -35q0 -18 12 -28.5t33 -15.5l70 -15q73 -15 109.5 -56t36.5 -95q0 -30 -12 -59t-36 -52t-60.5 -37t-84.5 -14q-36 0 -70.5 9t-62 28t-46 47.5t-24.5 67.5z" />
    <glyph glyph-name="Scedilla" unicode="&#x15e;" horiz-adv-x="611" 
d="M245 -63l31 50q-60 6 -104.5 27.5t-74 52.5t-45 68t-19.5 72l128 34q2 -26 12.5 -50t29.5 -42.5t47 -29.5t66 -11q56 0 85.5 24.5t29.5 62.5q0 31 -22 53.5t-64 30.5l-99 20q-85 17 -135.5 69.5t-50.5 133.5q0 47 19.5 87.5t53.5 70.5t79 47t95 17q64 0 109.5 -17.5
t75.5 -44.5t46.5 -59.5t22.5 -62.5l-124 -38q-3 15 -10.5 32.5t-22.5 32.5t-38.5 25t-57.5 10q-25 0 -45.5 -7.5t-35 -20t-22.5 -28.5t-8 -34q0 -29 19 -50.5t58 -29.5l99 -19q48 -9 85 -29t62 -47.5t38 -61.5t13 -71t-14 -73t-40.5 -65.5t-66 -50t-90.5 -27.5l-23 -36
q43 -1 70 -24.5t27 -61.5q0 -17 -7 -34t-22 -30.5t-39.5 -22t-59.5 -8.5q-42 0 -73.5 17t-45.5 35l43 54q11 -11 30 -24t45 -13q18 0 29.5 7t11.5 21q0 11 -10 19.5t-28 8.5q-6 0 -14 -1t-13 -3z" />
    <glyph glyph-name="scedilla" unicode="&#x15f;" horiz-adv-x="471" 
d="M149 160q2 -29 24 -51t66 -22q33 0 49 14.5t16 34.5q0 17 -12 29.5t-41 18.5l-65 15q-72 16 -105 55.5t-33 91.5q0 36 16 65.5t42.5 51t59.5 33t68 11.5q52 0 88 -14.5t58 -36.5t32.5 -46.5t12.5 -44.5l-111 -23q-2 11 -6.5 22.5t-14.5 20.5t-24.5 15t-35.5 6
q-26 0 -44.5 -14t-18.5 -35q0 -18 12 -28.5t33 -15.5l70 -15q73 -15 109.5 -56t36.5 -95q0 -26 -9.5 -52t-28 -47.5t-46.5 -37t-65 -21.5l-23 -37q43 -1 70 -24.5t27 -61.5q0 -17 -7 -34t-22 -30.5t-39.5 -22t-59.5 -8.5q-42 0 -73.5 17t-45.5 35l43 54q11 -11 30 -24
t45 -13q18 0 29.5 7t11.5 21q0 11 -10 19.5t-28 8.5q-6 0 -14 -1t-13 -3l-36 45l32 51q-31 4 -58.5 15.5t-49.5 30t-36.5 44t-19.5 59.5z" />
    <glyph glyph-name="Scaron" unicode="&#x160;" horiz-adv-x="611" 
d="M248 886l66 -64l67 64h121l-122 -127h-136l-120 127h124zM437 502q-3 15 -10.5 32.5t-22.5 32.5t-38.5 25t-57.5 10q-25 0 -45.5 -7.5t-35 -20t-22.5 -28.5t-8 -34q0 -29 19 -50.5t58 -29.5l99 -19q48 -9 85 -29t62 -47.5t38 -61.5t13 -71q0 -41 -17 -80.5t-49.5 -70
t-80 -49.5t-109.5 -19q-71 0 -122 20.5t-85.5 52.5t-52.5 71.5t-22 77.5l128 34q2 -26 12.5 -50t29.5 -42.5t47 -29.5t66 -11q56 0 85.5 24.5t29.5 62.5q0 31 -22 53.5t-64 30.5l-99 20q-85 17 -135.5 69.5t-50.5 133.5q0 47 19.5 87.5t53.5 70.5t79 47t95 17
q64 0 109.5 -17.5t75.5 -44.5t46.5 -59.5t22.5 -62.5z" />
    <glyph glyph-name="scaron" unicode="&#x161;" horiz-adv-x="471" 
d="M168 700l70 -75l70 75h105l-109 -148h-133l-110 148h107zM149 160q2 -29 24 -51t66 -22q33 0 49 14.5t16 34.5q0 17 -12 29.5t-41 18.5l-65 15q-72 16 -105 55.5t-33 91.5q0 36 16 65.5t42.5 51t59.5 33t68 11.5q52 0 88 -14.5t58 -36.5t32.5 -46.5t12.5 -44.5l-111 -23
q-2 11 -6.5 22.5t-14.5 20.5t-24.5 15t-35.5 6q-26 0 -44.5 -14t-18.5 -35q0 -18 12 -28.5t33 -15.5l70 -15q73 -15 109.5 -56t36.5 -95q0 -30 -12 -59t-36 -52t-60.5 -37t-84.5 -14q-36 0 -70.5 9t-62 28t-46 47.5t-24.5 67.5z" />
    <glyph glyph-name="Tcommaaccent" unicode="&#x162;" horiz-adv-x="619" 
d="M229 -63l40 63h-29v578h-224v131h587v-131h-224v-578h-28l-30 -48q43 -1 70 -24.5t27 -61.5q0 -17 -7 -34t-22 -30.5t-39.5 -22t-59.5 -8.5q-42 0 -73.5 17t-45.5 35l43 54q11 -11 30 -24t45 -13q18 0 29.5 7t11.5 21q0 11 -10 19.5t-28 8.5q-6 0 -13.5 -1t-13.5 -3z" />
    <glyph glyph-name="tcommaaccent" unicode="&#x163;" horiz-adv-x="379" 
d="M143 -63l45 71q-38 17 -58.5 52t-20.5 85v229h-89v118h25q39 0 57.5 22.5t18.5 55.5v69h120v-147h99v-118h-99v-206q0 -32 14.5 -44.5t43.5 -12.5q12 0 24 1t17 3v-110q-9 -4 -27.5 -8t-47.5 -4h-4l-26 -41q43 -1 70 -24.5t27 -61.5q0 -17 -7 -34t-22 -30.5t-39.5 -22
t-59.5 -8.5q-42 0 -73.5 17t-45.5 35l43 54q11 -11 30 -24t45 -13q18 0 29.5 7t11.5 21q0 11 -10 19.5t-28 8.5q-6 0 -13.5 -1t-13.5 -3z" />
    <glyph glyph-name="Tcaron" unicode="&#x164;" horiz-adv-x="619" 
d="M244 886l66 -64l67 64h121l-122 -127h-136l-120 127h124zM379 578v-578h-139v578h-224v131h587v-131h-224z" />
    <glyph glyph-name="tcaron" unicode="&#x165;" horiz-adv-x="379" 
d="M241 492h99v-118h-99v-206q0 -32 14.5 -44.5t43.5 -12.5q12 0 24 1t17 3v-110q-9 -4 -27.5 -8t-47.5 -4q-72 0 -114 40t-42 112v229h-89v118h25q39 0 57.5 22.5t18.5 55.5v69h120v-147zM382 556h-89l29 198h132z" />
    <glyph glyph-name="Tbar" unicode="&#x166;" horiz-adv-x="619" 
d="M379 578v-206h122v-103h-122v-269h-139v269h-118v103h118v206h-224v131h587v-131h-224z" />
    <glyph glyph-name="tbar" unicode="&#x167;" horiz-adv-x="379" 
d="M241 492h99v-118h-99v-81h98v-96h-98v-29q0 -32 14.5 -44.5t43.5 -12.5q12 0 24 1t17 3v-110q-8 -3 -25.5 -7.5t-49.5 -4.5q-72 0 -114 40t-42 112v52h-90v96h90v81h-89v118h25q39 0 57.5 22.5t18.5 55.5v69h120v-147z" />
    <glyph glyph-name="Utilde" unicode="&#x168;" horiz-adv-x="699" 
d="M349 -16q-57 0 -106.5 17t-86 51t-58 84t-21.5 115v458h138v-448q0 -70 36 -106t98 -36q63 0 99 36t36 106v448h138v-458q0 -65 -21.5 -115t-58 -84t-86.5 -51t-107 -17zM518 862q0 -55 -29.5 -82.5t-71.5 -27.5q-23 0 -41.5 7t-33.5 17l-6 4q-14 8 -25.5 14t-22.5 6
q-29 0 -29 -43h-80v27q0 55 30 82t71 27q23 0 41.5 -7t34.5 -16l6 -4q14 -7 25 -13t22 -6q12 0 20.5 7t8.5 24v12h80v-28z" />
    <glyph glyph-name="utilde" unicode="&#x169;" horiz-adv-x="580" 
d="M390 0q-2 8 -3 23t-1 30q-20 -35 -58.5 -50.5t-77.5 -15.5q-45 0 -79.5 15.5t-58.5 41.5t-36.5 61.5t-12.5 75.5v311h133v-284q0 -42 21.5 -70.5t68.5 -28.5q45 0 69 27t24 70v286h133v-403q0 -29 1.5 -52.5t3.5 -36.5h-127zM464 678q0 -63 -30 -93t-77 -30q-21 0 -39 6
t-32 16l-6 4q-10 6 -19.5 12t-27.5 6q-16 0 -25 -10t-10 -33h-82v21q0 61 31.5 91t77.5 30q22 0 39 -7t33 -15l6 -4q13 -8 24.5 -13.5t23.5 -5.5q33 0 33 43h80v-18z" />
    <glyph glyph-name="Umacron" unicode="&#x16a;" horiz-adv-x="699" 
d="M349 -16q-57 0 -106.5 17t-86 51t-58 84t-21.5 115v458h138v-448q0 -70 36 -106t98 -36q63 0 99 36t36 106v448h138v-458q0 -65 -21.5 -115t-58 -84t-86.5 -51t-107 -17zM197 774v100h305v-100h-305z" />
    <glyph glyph-name="umacron" unicode="&#x16b;" horiz-adv-x="580" 
d="M390 0q-2 8 -3 23t-1 30q-20 -35 -58.5 -50.5t-77.5 -15.5q-45 0 -79.5 15.5t-58.5 41.5t-36.5 61.5t-12.5 75.5v311h133v-284q0 -42 21.5 -70.5t68.5 -28.5q45 0 69 27t24 70v286h133v-403q0 -29 1.5 -52.5t3.5 -36.5h-127zM147 577v97h281v-97h-281z" />
    <glyph glyph-name="Ubreve" unicode="&#x16c;" horiz-adv-x="699" 
d="M349 -16q-57 0 -106.5 17t-86 51t-58 84t-21.5 115v458h138v-448q0 -70 36 -106t98 -36q63 0 99 36t36 106v448h138v-458q0 -65 -21.5 -115t-58 -84t-86.5 -51t-107 -17zM350 753q-41 0 -71 12t-50.5 31t-30.5 43.5t-11 48.5h102q1 -20 15.5 -35.5t45.5 -15.5t45.5 15.5
t15.5 35.5h102q-1 -24 -11 -48.5t-30.5 -43.5t-50.5 -31t-71 -12z" />
    <glyph glyph-name="ubreve" unicode="&#x16d;" horiz-adv-x="580" 
d="M390 0q-2 8 -3 23t-1 30q-20 -35 -58.5 -50.5t-77.5 -15.5q-45 0 -79.5 15.5t-58.5 41.5t-36.5 61.5t-12.5 75.5v311h133v-284q0 -42 21.5 -70.5t68.5 -28.5q45 0 69 27t24 70v286h133v-403q0 -29 1.5 -52.5t3.5 -36.5h-127zM286 549q-39 0 -69 12.5t-50 33.5t-30.5 48.5
t-11.5 56.5h89q1 -20 17.5 -39.5t54.5 -19.5q19 0 32 5.5t22 14t13 19t5 20.5h89q-1 -29 -11 -56.5t-30.5 -48.5t-50 -33.5t-69.5 -12.5z" />
    <glyph glyph-name="Uring" unicode="&#x16e;" horiz-adv-x="699" 
d="M349 -16q-57 0 -106.5 17t-86 51t-58 84t-21.5 115v458h138v-448q0 -70 36 -106t98 -36q63 0 99 36t36 106v448h138v-458q0 -65 -21.5 -115t-58 -84t-86.5 -51t-107 -17zM481 858q0 -28 -10.5 -51t-28.5 -40t-42 -26.5t-50 -9.5t-49.5 9.5t-41.5 26.5t-29 40t-11 51
t11 51t29 40t41.5 26.5t49.5 9.5t50 -9.5t42 -26.5t28.5 -40t10.5 -51zM397 858q0 22 -13.5 34.5t-33.5 12.5t-34 -12.5t-14 -34.5t14 -35t34 -13t33.5 13t13.5 35z" />
    <glyph glyph-name="uring" unicode="&#x16f;" horiz-adv-x="580" 
d="M404 648q0 -24 -9.5 -44t-25 -35t-36.5 -23t-44 -8t-44 8t-36.5 23t-25 35t-9.5 44t9.5 44.5t25 35.5t36.5 23.5t44 8.5t44 -8.5t36.5 -23.5t25 -35.5t9.5 -44.5zM329 648q0 19 -12 30.5t-29 11.5t-28.5 -11.5t-11.5 -30.5q0 -18 11.5 -29.5t28.5 -11.5t29 11.5t12 29.5z
M390 0q-2 8 -3 23t-1 30q-20 -35 -58.5 -50.5t-77.5 -15.5q-45 0 -79.5 15.5t-58.5 41.5t-36.5 61.5t-12.5 75.5v311h133v-284q0 -42 21.5 -70.5t68.5 -28.5q45 0 69 27t24 70v286h133v-403q0 -29 1.5 -52.5t3.5 -36.5h-127z" />
    <glyph glyph-name="Uhungarumlaut" unicode="&#x170;" horiz-adv-x="699" 
d="M303 759h-86l53 127h127zM460 759h-88l67 127h129zM349 -16q-57 0 -106.5 17t-86 51t-58 84t-21.5 115v458h138v-448q0 -70 36 -106t98 -36q63 0 99 36t36 106v448h138v-458q0 -65 -21.5 -115t-58 -84t-86.5 -51t-107 -17z" />
    <glyph glyph-name="uhungarumlaut" unicode="&#x171;" horiz-adv-x="580" 
d="M390 0q-2 8 -3 23t-1 30q-20 -35 -58.5 -50.5t-77.5 -15.5q-45 0 -79.5 15.5t-58.5 41.5t-36.5 61.5t-12.5 75.5v311h133v-284q0 -42 21.5 -70.5t68.5 -28.5q45 0 69 27t24 70v286h133v-403q0 -29 1.5 -52.5t3.5 -36.5h-127zM235 551h-84l52 150h129zM387 551h-85l66 150
h131z" />
    <glyph glyph-name="Uogonek" unicode="&#x172;" horiz-adv-x="699" 
d="M400 -223q-54 0 -88.5 29t-34.5 78q0 35 14.5 59.5t35.5 41.5q-53 3 -98.5 21.5t-79.5 52t-53 82t-19 110.5v458h138v-448q0 -70 36 -106t98 -36q63 0 99 36t36 106v448h138v-458q0 -50 -12.5 -90.5t-35 -72t-54 -53.5t-68.5 -35q-14 -5 -28.5 -13.5t-25.5 -20t-18 -26
t-7 -31.5q0 -24 14 -36t35 -12q11 0 17 0.5t13 2.5v-79q-10 -4 -22.5 -6t-29.5 -2z" />
    <glyph glyph-name="uogonek" unicode="&#x173;" horiz-adv-x="580" 
d="M465 -223q-54 0 -88.5 29t-34.5 78q0 45 22 72t50 44h-24q-2 8 -3 23t-1 30q-20 -35 -58.5 -50.5t-77.5 -15.5q-45 0 -79.5 15.5t-58.5 41.5t-36.5 61.5t-12.5 75.5v311h133v-284q0 -42 21.5 -70.5t68.5 -28.5q45 0 69 27t24 70v286h133v-403q0 -29 1.5 -52.5t3.5 -36.5
q-14 -7 -28.5 -16.5t-25.5 -21.5t-18 -26t-7 -30q0 -23 14.5 -34t34.5 -11q10 0 16 0.5t14 2.5v-79q-10 -4 -22.5 -6t-29.5 -2z" />
    <glyph glyph-name="Wcircumflex" unicode="&#x174;" horiz-adv-x="1040" 
d="M331 759l120 127h136l122 -127h-125l-67 65l-65 -65h-121zM880 709h141l-196 -709h-142l-162 505l-162 -505h-144l-197 709h146l130 -488l157 488h143l158 -490z" />
    <glyph glyph-name="wcircumflex" unicode="&#x175;" horiz-adv-x="839" 
d="M245 552l110 147h132l110 -147h-107l-71 75l-70 -75h-104zM493 492l106 -317l91 317h132l-154 -492h-133l-115 336l-113 -336h-135l-157 492h140l91 -316l107 316h140z" />
    <glyph glyph-name="Ycircumflex" unicode="&#x176;" horiz-adv-x="659" 
d="M13 709h162l159 -281l159 281h155l-250 -411v-298h-138v298zM141 759l120 127h136l122 -127h-125l-67 65l-65 -65h-121z" />
    <glyph glyph-name="ycircumflex" unicode="&#x177;" horiz-adv-x="563" 
d="M105 -194l116 256l-209 430h149l131 -288l121 288h142l-309 -686h-141zM109 552l110 147h132l110 -147h-107l-71 75l-70 -75h-104z" />
    <glyph glyph-name="Ydieresis" unicode="&#x178;" horiz-adv-x="659" 
d="M142 823q0 30 20.5 51t51.5 21t52 -21t21 -51q0 -31 -21 -51.5t-52 -20.5t-51.5 20.5t-20.5 51.5zM379 823q0 30 20.5 51t51.5 21q30 0 51 -21t21 -51q0 -31 -21 -51.5t-51 -20.5q-31 0 -51.5 20.5t-20.5 51.5zM13 709h162l159 -281l159 281h155l-250 -411v-298h-138v298
z" />
    <glyph glyph-name="Zacute" unicode="&#x179;" horiz-adv-x="643" 
d="M352 759h-122l103 127h164zM41 0v134l369 444h-356v131h540v-129l-375 -448h380v-132h-558z" />
    <glyph glyph-name="zacute" unicode="&#x17a;" horiz-adv-x="496" 
d="M274 551h-107l91 150h152zM44 0v117l233 260h-227v115h397v-111l-240 -265h244v-116h-407z" />
    <glyph glyph-name="Zdotaccent" unicode="&#x17b;" horiz-adv-x="643" 
d="M41 0v134l369 444h-356v131h540v-129l-375 -448h380v-132h-558zM247 833q0 34 23.5 57t56.5 23q34 0 57.5 -23t23.5 -57q0 -33 -23.5 -56t-57.5 -23q-33 0 -56.5 23t-23.5 56z" />
    <glyph glyph-name="zdotaccent" unicode="&#x17c;" horiz-adv-x="496" 
d="M44 0v117l233 260h-227v115h397v-111l-240 -265h244v-116h-407zM169 627q0 34 23.5 56.5t56.5 22.5t56.5 -22.5t23.5 -56.5q0 -33 -23.5 -55.5t-56.5 -22.5t-56.5 22.5t-23.5 55.5z" />
    <glyph glyph-name="Zcaron" unicode="&#x17d;" horiz-adv-x="643" 
d="M263 886l66 -64l67 64h121l-122 -127h-136l-120 127h124zM41 0v134l369 444h-356v131h540v-129l-375 -448h380v-132h-558z" />
    <glyph glyph-name="zcaron" unicode="&#x17e;" horiz-adv-x="496" 
d="M182 700l70 -75l70 75h105l-109 -148h-133l-110 148h107zM44 0v117l233 260h-227v115h397v-111l-240 -265h244v-116h-407z" />
    <glyph glyph-name="uni018F" unicode="&#x18f;" horiz-adv-x="787" 
d="M386 725q75 0 140.5 -24.5t114 -72t76.5 -117.5t28 -161q0 -85 -28.5 -153t-77.5 -115t-113.5 -72.5t-137.5 -25.5q-69 0 -132.5 23.5t-113 70.5t-79 116t-29.5 161v10t1 15h568q-2 56 -21.5 96.5t-50 66.5t-69.5 38.5t-79 12.5q-45 0 -81 -13.5t-63 -35t-44.5 -47.5
t-24.5 -51l-128 46q12 43 41.5 85t73.5 74.5t101.5 52.5t127.5 20zM192 266q14 -73 67 -113.5t131 -40.5q75 0 130 39.5t69 114.5h-397z" />
    <glyph glyph-name="florin" unicode="&#x192;" horiz-adv-x="532" 
d="M192 379h-98v112h121l19 92q8 42 27 71.5t44.5 48.5t55.5 28t60 9q17 0 29 -1t22 -2.5t18.5 -4t19.5 -5.5v-115q-14 3 -29 5t-33 2q-10 0 -22.5 -2.5t-24.5 -10.5t-22 -22.5t-15 -39.5l-11 -53h117v-112h-140l-79 -392q-8 -41 -27 -71t-44.5 -49t-55.5 -28t-60 -9
q-35 0 -53.5 3.5t-38.5 10.5v114q14 -3 30 -5t35 -2q10 0 22.5 2.5t24.5 10.5t22 23t15 40z" />
    <glyph glyph-name="uni01B5" unicode="&#x1b5;" horiz-adv-x="643" 
d="M41 0v134l145 175h-119v113h213l130 156h-356v131h540v-129l-133 -158h115v-113h-209l-148 -177h380v-132h-558z" />
    <glyph glyph-name="uni01B6" unicode="&#x1b6;" horiz-adv-x="496" 
d="M44 0v99l88 102h-80v95h162l72 84h-236v112h397v-102l-81 -94h78v-95h-160l-76 -88h243v-113h-407z" />
    <glyph glyph-name="Aringacute" unicode="&#x1fa;" horiz-adv-x="721" 
d="M260 288h196l-98 268zM417 912h-122l103 127h164zM405 757q0 22 -13.5 34.5t-33.5 12.5t-34 -12.5t-14 -34.5t14 -35t34 -13t33.5 13t13.5 35zM489 757q0 -26 -9 -47.5t-25 -38.5l256 -671h-150l-59 162h-288l-59 -162h-146l256 667q-17 17 -27.5 40t-10.5 50q0 28 11 51
t29 40t41.5 26.5t49.5 9.5t50 -9.5t42 -26.5t28.5 -40t10.5 -51z" />
    <glyph glyph-name="aringacute" unicode="&#x1fb;" horiz-adv-x="538" 
d="M39 134q0 33 11.5 58.5t31.5 44.5t46.5 30t57.5 16l121 18q21 3 29 12.5t8 22.5q0 26 -20.5 45t-62.5 19q-44 0 -67.5 -24t-26.5 -56l-118 25q3 29 18 58t41 52t64 37.5t88 14.5q58 0 99 -15.5t66.5 -41t37 -59.5t11.5 -71v-242q0 -20 2 -42.5t4 -35.5h-122
q-2 10 -3.5 27.5t-1.5 31.5q-19 -29 -54.5 -51t-90.5 -22q-39 0 -70.5 12.5t-53.5 33t-33.5 47t-11.5 55.5zM236 85q21 0 40.5 5.5t34.5 19t24 35t9 54.5v22l-111 -17q-26 -4 -43.5 -18.5t-17.5 -43.5q0 -22 16 -39.5t48 -17.5zM313 785h-107l91 150h152zM379 644
q0 -24 -9.5 -44t-25 -35t-36.5 -23t-44 -8t-44 8t-36.5 23t-25 35t-9.5 44t9.5 44.5t25 35.5t36.5 23.5t44 8.5t44 -8.5t36.5 -23.5t25 -35.5t9.5 -44.5zM304 644q0 19 -12 30.5t-29 11.5t-28.5 -11.5t-11.5 -30.5q0 -18 11.5 -29.5t28.5 -11.5t29 11.5t12 29.5z" />
    <glyph glyph-name="AEacute" unicode="&#x1fc;" horiz-adv-x="1039" 
d="M610 759h-122l103 127h164zM543 0v167h-274l-107 -167h-169l470 709h524v-130h-305v-162h276v-123h-276v-164h306v-130h-445zM543 283v312l-200 -312h200z" />
    <glyph glyph-name="aeacute" unicode="&#x1fd;" horiz-adv-x="872" 
d="M476 551h-107l91 150h152zM822 133q-10 -31 -29.5 -58t-47.5 -47t-64.5 -31.5t-80.5 -11.5q-57 0 -107.5 22t-85.5 64q-36 -48 -84 -67t-102 -19q-44 0 -78 12.5t-57 33t-35 47.5t-12 56q0 33 11.5 58.5t31.5 44.5t46.5 30t57.5 16l126 18q22 3 29.5 13t7.5 22
q0 26 -21 45.5t-65 19.5q-45 0 -70 -24t-28 -56l-116 24q3 30 18.5 59t43 52t66.5 37t87 14q60 0 101 -17t65 -46q33 30 74 46.5t86 16.5q115 0 179 -68t64 -187q0 -14 -1 -26.5t-1 -14.5h-352q1 -25 11 -45.5t26.5 -35.5t38 -23t46.5 -8q44 0 71 19.5t38 49.5zM702 301
q-1 18 -7.5 36t-20 31.5t-34 22t-48.5 8.5q-26 0 -46 -9t-34 -23t-21.5 -31.5t-8.5 -34.5h220zM240 85q19 0 38.5 5.5t35.5 18.5t25.5 35t9.5 54v23l-116 -17q-26 -4 -44.5 -18.5t-18.5 -43.5q0 -21 17.5 -39t52.5 -18z" />
    <glyph glyph-name="Oslashacute" unicode="&#x1fe;" horiz-adv-x="811" 
d="M41 354q0 86 30 154.5t80 116.5t116 73.5t138 25.5q98 0 181 -46l70 90l88 -66l-70 -91q45 -48 70.5 -112.5t25.5 -144.5q0 -86 -30 -154t-80 -116t-116.5 -73.5t-138.5 -25.5q-49 0 -94.5 11.5t-86.5 33.5l-68 -88l-90 65l71 91q-45 48 -70.5 112t-25.5 144zM184 355
q0 -45 10.5 -81t29.5 -63l278 359q-45 21 -97 21q-41 0 -80.5 -14.5t-71 -43.5t-50.5 -73.5t-19 -104.5zM627 355q0 45 -10.5 81t-29.5 63l-278 -359q45 -21 96 -21q41 0 81 14.5t71.5 43.5t50.5 73.5t19 104.5zM460 759h-122l103 127h164z" />
    <glyph glyph-name="oslashacute" unicode="&#x1ff;" horiz-adv-x="592" 
d="M342 551h-107l91 150h152zM296 507q73 0 132 -34l53 65l64 -54l-52 -65q29 -34 45 -78t16 -95q0 -57 -19.5 -104.5t-54 -82.5t-82 -54.5t-102.5 -19.5q-35 0 -67.5 8.5t-60.5 22.5l-50 -62l-66 54l50 61q-30 35 -47 79.5t-17 97.5q0 57 19.5 105t54 82.5t82 54
t102.5 19.5zM171 246q0 -42 15 -72l163 201q-27 11 -53 11q-24 0 -47 -9t-40 -26.5t-27.5 -43.5t-10.5 -61zM296 106q24 0 47 9t40 26.5t27.5 43.5t10.5 61q0 37 -13 68l-160 -199q22 -9 48 -9z" />
    <glyph glyph-name="Scommaaccent" unicode="&#x218;" horiz-adv-x="611" 
d="M437 502q-3 15 -10.5 32.5t-22.5 32.5t-38.5 25t-57.5 10q-25 0 -45.5 -7.5t-35 -20t-22.5 -28.5t-8 -34q0 -29 19 -50.5t58 -29.5l99 -19q48 -9 85 -29t62 -47.5t38 -61.5t13 -71q0 -41 -17 -80.5t-49.5 -70t-80 -49.5t-109.5 -19q-71 0 -122 20.5t-85.5 52.5
t-52.5 71.5t-22 77.5l128 34q2 -26 12.5 -50t29.5 -42.5t47 -29.5t66 -11q56 0 85.5 24.5t29.5 62.5q0 31 -22 53.5t-64 30.5l-99 20q-85 17 -135.5 69.5t-50.5 133.5q0 47 19.5 87.5t53.5 70.5t79 47t95 17q64 0 109.5 -17.5t75.5 -44.5t46.5 -59.5t22.5 -62.5zM242 -102
q0 27 20.5 45.5t52.5 18.5q34 0 57.5 -24t23.5 -63t-13.5 -63.5t-34.5 -38.5t-46 -19.5t-47 -5.5v48q36 0 57 13.5t24 33.5q-3 -2 -10.5 -4.5t-18.5 -2.5q-31 0 -48 17.5t-17 44.5z" />
    <glyph glyph-name="scommaaccent" unicode="&#x219;" horiz-adv-x="471" 
d="M149 160q2 -29 24 -51t66 -22q33 0 49 14.5t16 34.5q0 17 -12 29.5t-41 18.5l-65 15q-72 16 -105 55.5t-33 91.5q0 36 16 65.5t42.5 51t59.5 33t68 11.5q52 0 88 -14.5t58 -36.5t32.5 -46.5t12.5 -44.5l-111 -23q-2 11 -6.5 22.5t-14.5 20.5t-24.5 15t-35.5 6
q-26 0 -44.5 -14t-18.5 -35q0 -18 12 -28.5t33 -15.5l70 -15q73 -15 109.5 -56t36.5 -95q0 -30 -12 -59t-36 -52t-60.5 -37t-84.5 -14q-36 0 -70.5 9t-62 28t-46 47.5t-24.5 67.5zM163 -104q0 27 20.5 45.5t52.5 18.5q34 0 57.5 -24t23.5 -63t-13.5 -63.5t-34.5 -38.5
t-46 -19.5t-47 -5.5v48q36 0 57 13.5t24 33.5q-3 -2 -10.5 -4.5t-18.5 -2.5q-31 0 -48 17.5t-17 44.5z" />
    <glyph glyph-name="uni021A" unicode="&#x21a;" horiz-adv-x="619" 
d="M379 578v-578h-139v578h-224v131h587v-131h-224zM233 -102q0 27 20.5 45.5t52.5 18.5q34 0 57.5 -24t23.5 -63t-13.5 -63.5t-34.5 -38.5t-46 -19.5t-47 -5.5v48q36 0 57 13.5t24 33.5q-3 -2 -10.5 -4.5t-18.5 -2.5q-31 0 -48 17.5t-17 44.5z" />
    <glyph glyph-name="uni021B" unicode="&#x21b;" horiz-adv-x="379" 
d="M241 492h99v-118h-99v-206q0 -32 14.5 -44.5t43.5 -12.5q12 0 24 1t17 3v-110q-9 -4 -27.5 -8t-47.5 -4q-72 0 -114 40t-42 112v229h-89v118h25q39 0 57.5 22.5t18.5 55.5v69h120v-147zM151 -102q0 27 20.5 45.5t52.5 18.5q34 0 57.5 -24t23.5 -63t-13.5 -63.5
t-34.5 -38.5t-46 -19.5t-47 -5.5v48q36 0 57 13.5t24 33.5q-3 -2 -10.5 -4.5t-18.5 -2.5q-31 0 -48 17.5t-17 44.5z" />
    <glyph glyph-name="dotlessj" unicode="&#x237;" horiz-adv-x="269" 
d="M68 492h133v-535q0 -36 -10.5 -65.5t-30.5 -51t-48.5 -33.5t-64.5 -12q-32 0 -51 4.5t-24 6.5v111q6 -2 16 -3.5t25 -1.5q30 0 42.5 15.5t12.5 42.5v522z" />
    <glyph glyph-name="uni0259" unicode="&#x259;" horiz-adv-x="565" 
d="M168 189q1 -19 8 -36.5t21.5 -31t35.5 -22t50 -8.5q26 0 46.5 8.5t34.5 22.5t21.5 31.5t9.5 35.5h-227zM44 354q10 30 31 57.5t50.5 48.5t68 34t84.5 13q56 0 101.5 -18.5t78 -53t50.5 -83t18 -108.5q0 -59 -19.5 -107t-52.5 -82t-77 -52.5t-93 -18.5q-56 0 -101.5 18
t-77.5 51t-50 80t-18 105q0 11 1 24t2 15h358q-3 53 -35.5 85.5t-86.5 32.5q-47 0 -78.5 -23t-44.5 -57z" />
    <glyph glyph-name="circumflex" unicode="&#x2c6;" horiz-adv-x="404" 
d="M26 552l110 147h132l110 -147h-107l-71 75l-70 -75h-104z" />
    <glyph glyph-name="caron" unicode="&#x2c7;" horiz-adv-x="404" 
d="M133 700l70 -75l70 75h105l-109 -148h-133l-110 148h107z" />
    <glyph glyph-name="uni02C9" unicode="&#x2c9;" horiz-adv-x="335" 
d="M27 577v97h281v-97h-281z" />
    <glyph glyph-name="breve" unicode="&#x2d8;" horiz-adv-x="374" 
d="M187 549q-39 0 -69 12.5t-50 33.5t-30.5 48.5t-11.5 56.5h89q1 -20 17.5 -39.5t54.5 -19.5q19 0 32 5.5t22 14t13 19t5 20.5h89q-1 -29 -11 -56.5t-30.5 -48.5t-50 -33.5t-69.5 -12.5z" />
    <glyph glyph-name="dotaccent" unicode="&#x2d9;" horiz-adv-x="192" 
d="M16 627q0 34 23.5 56.5t56.5 22.5t56.5 -22.5t23.5 -56.5q0 -33 -23.5 -55.5t-56.5 -22.5t-56.5 22.5t-23.5 55.5z" />
    <glyph glyph-name="ring" unicode="&#x2da;" horiz-adv-x="282" 
d="M256 648q0 -24 -9.5 -44t-25 -35t-36.5 -23t-44 -8t-44 8t-36.5 23t-25 35t-9.5 44t9.5 44.5t25 35.5t36.5 23.5t44 8.5t44 -8.5t36.5 -23.5t25 -35.5t9.5 -44.5zM181 648q0 19 -12 30.5t-29 11.5t-28.5 -11.5t-11.5 -30.5q0 -18 11.5 -29.5t28.5 -11.5t29 11.5t12 29.5z
" />
    <glyph glyph-name="ogonek" unicode="&#x2db;" horiz-adv-x="224" 
d="M146 -223q-54 0 -88.5 29t-34.5 78q0 28 10 49.5t25 37t33 26.5t35 19l72 -16q-14 -7 -28.5 -16.5t-25.5 -21.5t-18 -26t-7 -30q0 -23 14 -34t37 -11q16 0 28 3v-79q-10 -4 -22.5 -6t-29.5 -2z" />
    <glyph glyph-name="tilde" unicode="&#x2dc;" horiz-adv-x="391" 
d="M369 678q0 -63 -30 -93t-77 -30q-21 0 -39 6t-32 16l-6 4q-10 6 -19.5 12t-27.5 6q-16 0 -25 -10t-10 -33h-82v21q0 61 31.5 91t77.5 30q22 0 39 -7t33 -15l6 -4q13 -8 24.5 -13.5t23.5 -5.5q33 0 33 43h80v-18z" />
    <glyph glyph-name="hungarumlaut" unicode="&#x2dd;" horiz-adv-x="396" 
d="M108 551h-84l52 150h129zM260 551h-85l66 150h131z" />
    <glyph glyph-name="uni0394" unicode="&#x394;" horiz-adv-x="743" 
d="M296 709h150l271 -709h-691zM217 128h309l-155 431z" />
    <glyph glyph-name="uni03A9" unicode="&#x3a9;" horiz-adv-x="795" 
d="M398 594q-39 0 -75.5 -13t-65 -38.5t-45.5 -63t-17 -86.5q0 -42 14 -77t37 -61t53 -42.5t62 -23.5v-189h-302v126h179q-37 15 -70.5 40t-59 60.5t-41 79.5t-15.5 96q0 74 28.5 133.5t76 101.5t110 64.5t131.5 22.5t131.5 -22.5t110 -64.5t76 -101.5t28.5 -133.5
q0 -52 -15.5 -96t-41.5 -79.5t-59.5 -60.5t-70.5 -40h179v-126h-302v189q32 7 62 23.5t53.5 42.5t37.5 61t14 77q0 49 -17 86.5t-45.5 63t-65 38.5t-75.5 13z" />
    <glyph glyph-name="uni03BC" unicode="&#x3bc;" horiz-adv-x="574" 
d="M389 0q-2 8 -3 23t-1 30q-20 -35 -58.5 -50.5t-77.5 -15.5q-32 0 -54 7v-184h-133v682h133v-284q0 -42 21.5 -70.5t68.5 -28.5q45 0 69 27t24 70v286h133v-403q0 -30 1.5 -54.5t3.5 -34.5h-127z" />
    <glyph glyph-name="pi" unicode="&#x3c0;" horiz-adv-x="639" 
d="M592 5q-3 -2 -21 -7.5t-49 -5.5q-72 0 -107 40t-35 103v243h-133v-378h-133v378h-83v114h559v-114h-78v-225q0 -27 15 -37t34 -10q12 0 17.5 1t13.5 2v-104z" />
    <glyph glyph-name="Wgrave" unicode="&#x1e80;" horiz-adv-x="1040" 
d="M323 886h163l104 -127h-122zM880 709h141l-196 -709h-142l-162 505l-162 -505h-144l-197 709h146l130 -488l157 488h143l158 -490z" />
    <glyph glyph-name="wgrave" unicode="&#x1e81;" horiz-adv-x="839" 
d="M493 492l106 -317l91 317h132l-154 -492h-133l-115 336l-113 -336h-135l-157 492h140l91 -316l107 316h140zM233 701h154l90 -150h-108z" />
    <glyph glyph-name="Wacute" unicode="&#x1e82;" horiz-adv-x="1040" 
d="M580 759h-122l103 127h164zM880 709h141l-196 -709h-142l-162 505l-162 -505h-144l-197 709h146l130 -488l157 488h143l158 -490z" />
    <glyph glyph-name="wacute" unicode="&#x1e83;" horiz-adv-x="839" 
d="M470 551h-107l91 150h152zM493 492l106 -317l91 317h132l-154 -492h-133l-115 336l-113 -336h-135l-157 492h140l91 -316l107 316h140z" />
    <glyph glyph-name="Wdieresis" unicode="&#x1e84;" horiz-adv-x="1040" 
d="M308 823q0 30 20.5 51t51.5 21t52 -21t21 -51q0 -31 -21 -51.5t-52 -20.5t-51.5 20.5t-20.5 51.5zM591 823q0 30 20.5 51t50.5 21q31 0 52 -21t21 -51q0 -31 -21 -51.5t-52 -20.5q-30 0 -50.5 20.5t-20.5 51.5zM880 709h141l-196 -709h-142l-162 505l-162 -505h-144
l-197 709h146l130 -488l157 488h143l158 -490z" />
    <glyph glyph-name="wdieresis" unicode="&#x1e85;" horiz-adv-x="839" 
d="M237 628q0 29 20 50t50 21q29 0 50 -21t21 -50t-21 -49.5t-50 -20.5q-30 0 -50 20.5t-20 49.5zM463 628q0 29 20 50t50 21q29 0 49.5 -21t20.5 -50t-20.5 -49.5t-49.5 -20.5q-30 0 -50 20.5t-20 49.5zM493 492l106 -317l91 317h132l-154 -492h-133l-115 336l-113 -336
h-135l-157 492h140l91 -316l107 316h140z" />
    <glyph glyph-name="uni1E8A" unicode="&#x1e8a;" horiz-adv-x="650" 
d="M410 354l233 -354h-167l-153 245l-154 -245h-162l233 355l-232 354h166l152 -245l155 245h161zM245 833q0 34 23.5 57t56.5 23q34 0 57.5 -23t23.5 -57q0 -33 -23.5 -56t-57.5 -23q-33 0 -56.5 23t-23.5 56z" />
    <glyph glyph-name="uni1E8B" unicode="&#x1e8b;" horiz-adv-x="535" 
d="M189 247l-175 245h158q6 -10 20 -30.5t29 -42.5t29 -42.5t20 -30.5l97 146h151l-172 -241l178 -251h-156l-103 151q-7 -10 -21 -31t-30 -44.5t-30 -44.5t-20 -31h-150zM188 627q0 34 23.5 56.5t56.5 22.5t56.5 -22.5t23.5 -56.5q0 -33 -23.5 -55.5t-56.5 -22.5
t-56.5 22.5t-23.5 55.5z" />
    <glyph glyph-name="Ygrave" unicode="&#x1ef2;" horiz-adv-x="659" 
d="M13 709h162l159 -281l159 281h155l-250 -411v-298h-138v298zM142 886h163l104 -127h-122z" />
    <glyph glyph-name="ygrave" unicode="&#x1ef3;" horiz-adv-x="563" 
d="M105 -194l116 256l-209 430h149l131 -288l121 288h142l-309 -686h-141zM109 701h154l90 -150h-108z" />
    <glyph glyph-name="uni2007" unicode="&#x2007;" horiz-adv-x="631" 
 />
    <glyph glyph-name="uni2008" unicode="&#x2008;" horiz-adv-x="275" 
 />
    <glyph glyph-name="uni200B" unicode="&#x200b;" horiz-adv-x="0" 
 />
    <glyph glyph-name="endash" unicode="&#x2013;" horiz-adv-x="642" 
d="M63 239v115h516v-115h-516z" />
    <glyph glyph-name="emdash" unicode="&#x2014;" horiz-adv-x="1066" 
d="M63 239v115h940v-115h-940z" />
    <glyph glyph-name="quoteleft" unicode="&#x2018;" horiz-adv-x="256" 
d="M208 508q0 -29 -21.5 -51t-56.5 -22q-40 0 -63.5 28t-23.5 68q0 50 15.5 84.5t38.5 56t50 32t51 12.5v-61q-29 -5 -54.5 -26.5t-27.5 -56.5q8 5 21 5q34 0 52.5 -18.5t18.5 -50.5z" />
    <glyph glyph-name="quoteright" unicode="&#x2019;" horiz-adv-x="258" 
d="M52 643q0 29 22.5 51t57.5 22q40 0 63.5 -28.5t23.5 -68.5q0 -50 -15.5 -85t-38.5 -57.5t-50 -33.5t-51 -13v61q29 5 54.5 27.5t27.5 57.5q-8 -5 -21 -5q-34 0 -53.5 20t-19.5 52z" />
    <glyph glyph-name="quotesinglbase" unicode="&#x201a;" horiz-adv-x="265" 
d="M49 69q0 29 22.5 50.5t57.5 21.5q40 0 63.5 -28t23.5 -69q0 -50 -15.5 -85t-38.5 -57.5t-50 -33.5t-51 -13v62q29 4 54.5 26.5t27.5 57.5q-8 -5 -21 -5q-34 0 -53.5 20.5t-19.5 52.5z" />
    <glyph glyph-name="quotedblleft" unicode="&#x201c;" horiz-adv-x="453" 
d="M208 508q0 -29 -21.5 -51t-56.5 -22q-40 0 -63.5 28t-23.5 68q0 50 15.5 84.5t38.5 56t50 32t51 12.5v-61q-29 -5 -54.5 -26.5t-27.5 -56.5q8 5 21 5q34 0 52.5 -18.5t18.5 -50.5zM405 508q0 -29 -21.5 -51t-56.5 -22q-40 0 -63.5 28t-23.5 68q0 50 15.5 84.5t38.5 56
t50 32t51 12.5v-61q-29 -5 -54.5 -26.5t-27.5 -56.5q8 5 21 5q34 0 52.5 -18.5t18.5 -50.5z" />
    <glyph glyph-name="quotedblright" unicode="&#x201d;" horiz-adv-x="454" 
d="M52 643q0 29 22.5 51t57.5 22q40 0 63.5 -28.5t23.5 -68.5q0 -50 -15.5 -85t-38.5 -57.5t-50 -33.5t-51 -13v61q29 5 54.5 27.5t27.5 57.5q-8 -5 -21 -5q-34 0 -53.5 20t-19.5 52zM248 643q0 29 22.5 51t57.5 22q40 0 63.5 -28.5t23.5 -68.5q0 -50 -15.5 -85t-38.5 -57.5
t-50 -33.5t-51 -13v61q29 5 54.5 27.5t27.5 57.5q-8 -5 -21 -5q-34 0 -53.5 20t-19.5 52z" />
    <glyph glyph-name="quotedblbase" unicode="&#x201e;" horiz-adv-x="459" 
d="M49 70q0 29 22.5 50.5t57.5 21.5q40 0 63.5 -28t23.5 -69q0 -50 -15.5 -85t-38.5 -57.5t-50 -33.5t-51 -13v62q29 4 54.5 26.5t27.5 57.5q-8 -5 -22 -5q-34 0 -53 20.5t-19 52.5zM243 70q0 29 22.5 50.5t57.5 21.5q40 0 63.5 -28t23.5 -69q0 -50 -15.5 -85t-38.5 -57.5
t-50 -33.5t-51 -13v62q29 4 54.5 26.5t27.5 57.5q-8 -5 -22 -5q-34 0 -53 20.5t-19 52.5z" />
    <glyph glyph-name="dagger" unicode="&#x2020;" horiz-adv-x="425" 
d="M157 163v300h-123v104h123v142h111v-142h123v-104h-123v-300h-111z" />
    <glyph glyph-name="daggerdbl" unicode="&#x2021;" horiz-adv-x="461" 
d="M175 247v215h-123v103h123v144h111v-144h123v-103h-123v-215h123v-103h-123v-144h-111v144h-123v103h123z" />
    <glyph glyph-name="bullet" unicode="&#x2022;" horiz-adv-x="546" 
d="M65 299q0 43 16.5 81t45 66.5t66 45t80.5 16.5t81 -16.5t66 -45t44.5 -66.5t16.5 -81t-16.5 -81t-44.5 -66.5t-66 -45t-81 -16.5t-80.5 16.5t-66 45t-45 66.5t-16.5 81z" />
    <glyph glyph-name="ellipsis" unicode="&#x2026;" horiz-adv-x="864" 
d="M818 70q0 -33 -23.5 -56.5t-57.5 -23.5q-33 0 -56.5 23.5t-23.5 56.5q0 34 23.5 57.5t56.5 23.5q34 0 57.5 -23.5t23.5 -57.5zM513 70q0 -33 -23.5 -56.5t-57.5 -23.5q-33 0 -57 23.5t-24 56.5q0 34 24 57.5t57 23.5q34 0 57.5 -23.5t23.5 -57.5zM208 70q0 -33 -23 -56.5
t-57 -23.5t-57.5 23.5t-23.5 56.5q0 34 23.5 57.5t57.5 23.5t57 -23.5t23 -57.5z" />
    <glyph glyph-name="perthousand" unicode="&#x2030;" horiz-adv-x="1080" 
d="M135 0l456 709h118l-456 -709h-118zM197 487q29 0 47 19.5t18 50.5q0 30 -18 49.5t-47 19.5t-48 -19.5t-19 -49.5q0 -32 19 -51t48 -19zM31 557q0 34 13.5 64t36 52t52.5 34.5t64 12.5t64 -12.5t52.5 -34.5t36 -52t13.5 -64q0 -35 -13.5 -65t-36 -52t-53 -34t-64.5 -12
t-64 12.5t-52.5 34.5t-35.5 51.5t-13 64.5zM481 152q0 34 13.5 64t36 52t52.5 34.5t64 12.5q35 0 65 -12.5t53 -35.5q23 23 53.5 35.5t64.5 12.5t64 -12.5t53 -34.5t36.5 -52t13.5 -64q0 -35 -13.5 -65t-36.5 -51.5t-53 -34t-64 -12.5q-35 0 -65 12.5t-53 35.5
q-23 -23 -53.5 -35.5t-64.5 -12.5t-64.5 12.5t-53 34.5t-35.5 52t-13 64zM581 152q0 -32 19 -51t47 -19q29 0 47.5 19.5t18.5 50.5t-18.5 50t-47.5 19q-28 0 -47 -19t-19 -50zM883 221q-28 0 -47 -19t-19 -50q0 -32 19 -51t47 -19q29 0 47.5 19.5t18.5 50.5t-18.5 50
t-47.5 19z" />
    <glyph glyph-name="guilsinglleft" unicode="&#x2039;" horiz-adv-x="335" 
d="M169 101l-137 194l138 197h125l-136 -198l136 -193h-126z" />
    <glyph glyph-name="guilsinglright" unicode="&#x203a;" horiz-adv-x="335" 
d="M41 101l135 193l-136 198h126l137 -197l-136 -194h-126z" />
    <glyph glyph-name="uni2042" unicode="&#x2042;" horiz-adv-x="828" 
d="M458 598l101 34l29 -85l-103 -33l65 -87l-73 -53l-66 88l-64 -88l-72 54l63 86l-102 33l27 85l102 -34v111h93v-111zM251 211l101 34l29 -85l-103 -33l65 -87l-73 -53l-66 88l-64 -88l-72 54l63 86l-102 33l27 85l102 -34v111h93v-111zM669 211l101 34l29 -85l-103 -33
l65 -87l-73 -53l-66 88l-64 -88l-72 54l63 86l-102 33l27 85l102 -34v111h93v-111z" />
    <glyph glyph-name="fraction" unicode="&#x2044;" horiz-adv-x="170" 
d="M372 709l-456 -709h-116l457 709h115z" />
    <glyph glyph-name="uni2051" unicode="&#x2051;" horiz-adv-x="444" 
d="M268 598l101 34l29 -85l-103 -33l65 -87l-73 -53l-66 88l-64 -88l-72 54l63 86l-102 33l27 85l102 -34v111h93v-111zM268 214l101 34l29 -85l-103 -33l65 -87l-73 -53l-66 88l-64 -88l-72 54l63 86l-102 33l27 85l102 -34v111h93v-111z" />
    <glyph glyph-name="uni2070" unicode="&#x2070;" horiz-adv-x="394" 
d="M135 525q0 -19 2 -38t8.5 -34.5t19 -25t32.5 -9.5q21 0 33 9.5t19 25t9 34.5t2 38t-2 38t-9 34.5t-19 25.5t-33 10q-20 0 -32.5 -9.5t-19 -25t-8.5 -35t-2 -38.5zM31 525q0 35 7.5 69t28.5 62q20 26 51 43.5t79 17.5t79.5 -17.5t51.5 -43.5q20 -28 27.5 -62t7.5 -69
t-7.5 -68.5t-27.5 -61.5q-20 -27 -51.5 -44t-79.5 -17t-79 17t-51 44q-21 28 -28.5 61.5t-7.5 68.5z" />
    <glyph glyph-name="uni2074" unicode="&#x2074;" horiz-adv-x="387" 
d="M24 511l169 198h109v-218h61v-79h-61v-71h-100v71h-178v99zM202 605l-97 -114h97v114z" />
    <glyph glyph-name="uni2075" unicode="&#x2075;" horiz-adv-x="355" 
d="M115 466q3 -23 20 -36t41 -13q23 0 38 14t15 35q0 25 -16 38.5t-40 13.5q-16 0 -29.5 -6.5t-22.5 -16.5l-83 25l38 189h238v-83h-173l-12 -63q13 11 32 17t39 6q59 0 93 -32t34 -87q0 -26 -10 -50t-29.5 -42t-48 -29t-65.5 -11q-30 0 -56 8.5t-45.5 23.5t-32 35t-15.5 43
z" />
    <glyph glyph-name="uni2076" unicode="&#x2076;" horiz-adv-x="375" 
d="M201 634q-30 0 -50 -22.5t-21 -65.5q10 14 31 24t51 10q27 0 51.5 -7.5t43 -22.5t29.5 -37.5t11 -52.5t-12 -53.5t-32.5 -40t-48.5 -25.5t-59 -9q-38 0 -68.5 14t-52 39.5t-33 60.5t-11.5 76q0 92 47 142.5t124 50.5q25 0 49.5 -6.5t44 -20t32.5 -33t16 -44.5l-93 -11
q-3 14 -14.5 24t-34.5 10zM194 412q23 0 38 13t15 36t-15 36t-38 13t-38.5 -13t-15.5 -36t15.5 -36t38.5 -13z" />
    <glyph glyph-name="uni2077" unicode="&#x2077;" horiz-adv-x="344" 
d="M327 624q-13 -10 -34.5 -31t-43.5 -55.5t-40 -83t-24 -113.5h-107q5 69 25.5 122t43.5 89q26 42 59 73h-186v84h307v-85z" />
    <glyph glyph-name="uni2078" unicode="&#x2078;" horiz-adv-x="373" 
d="M187 562q22 0 33.5 11.5t11.5 27.5q0 13 -11 24.5t-34 11.5t-34.5 -11.5t-11.5 -24.5q0 -16 11.5 -27.5t34.5 -11.5zM187 412q29 0 42 13t13 30q0 15 -13.5 27.5t-41.5 12.5q-29 0 -42 -12.5t-13 -27.5q0 -17 13 -30t42 -13zM187 333q-75 0 -115.5 30.5t-40.5 79.5
q0 30 20.5 53.5t52.5 33.5q-30 10 -46 33t-16 49q0 45 38 74.5t107 29.5t106.5 -29.5t37.5 -74.5q0 -26 -16 -49t-46 -33q31 -9 52.5 -32.5t21.5 -52.5q0 -50 -40.5 -81t-115.5 -31z" />
    <glyph glyph-name="uni2079" unicode="&#x2079;" horiz-adv-x="372" 
d="M173 410q35 0 52 23.5t17 61.5v10q-8 -16 -30.5 -26.5t-48.5 -10.5q-27 0 -52 7t-44 22t-30.5 37t-11.5 52t12 54t33 41t48 26t57 9q36 0 67 -11.5t53.5 -34.5t35.5 -58t13 -82q0 -94 -46 -145.5t-124 -51.5q-26 0 -50.5 7t-45 20t-34.5 32t-17 43l91 11q4 -16 19 -26
t36 -10zM178 537q18 0 35 11.5t17 38.5t-16 39t-36 12t-36 -12.5t-16 -38.5t17 -38t35 -12z" />
    <glyph glyph-name="uni2080" unicode="&#x2080;" horiz-adv-x="398" 
d="M137 101q0 -19 2 -38t8.5 -34.5t19 -25t32.5 -9.5q21 0 33 9.5t19 25t9 34.5t2 38t-2 38t-9 34.5t-19 25.5t-33 10q-20 0 -32.5 -9.5t-19 -25t-8.5 -35t-2 -38.5zM33 101q0 35 7.5 69t28.5 62q20 26 51 43.5t79 17.5t79.5 -17.5t51.5 -43.5q20 -28 27.5 -62t7.5 -69
t-7.5 -68.5t-27.5 -61.5q-20 -27 -51.5 -44t-79.5 -17t-79 17t-51 44q-21 28 -28.5 61.5t-7.5 68.5z" />
    <glyph glyph-name="uni2081" unicode="&#x2081;" horiz-adv-x="260" 
d="M112 -84v223h-91v66q24 0 42 7t30.5 18.5t20 25t10.5 27.5h91v-367h-103z" />
    <glyph glyph-name="uni2082" unicode="&#x2082;" horiz-adv-x="360" 
d="M40 139q-2 5 -3 13t-1 16q0 52 36.5 88t107.5 36q34 0 60.5 -10t44.5 -26.5t27.5 -38.5t9.5 -47q0 -36 -20.5 -62.5t-58.5 -49.5l-70 -42q-12 -7 -12 -15h164v-85h-291v12q0 49 19.5 88.5t69.5 68.5l60 35q38 23 38 51q0 14 -10.5 26.5t-31.5 12.5q-23 0 -37 -13.5
t-14 -38.5q0 -9 3 -18z" />
    <glyph glyph-name="uni2083" unicode="&#x2083;" horiz-adv-x="369" 
d="M115 45q3 -23 19 -38.5t48 -15.5q27 0 42 11.5t15 25.5q0 35 -49 35h-44v75h41q24 0 34.5 11t10.5 25q0 17 -15 27t-35 10q-25 0 -39 -12t-17 -33l-93 13q1 25 13 46.5t32 37t46.5 24t57.5 8.5q72 0 110 -32t38 -80q0 -27 -17.5 -49.5t-46.5 -30.5q32 -6 51 -29.5
t19 -52.5q0 -48 -41.5 -79.5t-113.5 -31.5q-69 0 -112 32.5t-48 87.5z" />
    <glyph glyph-name="uni2084" unicode="&#x2084;" horiz-adv-x="389" 
d="M25 86l169 198h109v-218h61v-79h-61v-71h-100v71h-178v99zM203 180l-97 -114h97v114z" />
    <glyph glyph-name="uni2085" unicode="&#x2085;" horiz-adv-x="358" 
d="M116 41q3 -23 20 -36t41 -13q23 0 38 14t15 35q0 25 -16 38.5t-40 13.5q-16 0 -29.5 -6.5t-22.5 -16.5l-83 25l38 189h238v-83h-173l-12 -63q13 11 32 17t39 6q59 0 93 -32t34 -87q0 -26 -10 -50t-29.5 -42t-48 -29t-65.5 -11q-30 0 -56 8.5t-45.5 23.5t-32 35t-15.5 43z
" />
    <glyph glyph-name="uni2086" unicode="&#x2086;" horiz-adv-x="378" 
d="M202 210q-30 0 -50 -22.5t-21 -65.5q10 14 31 24t51 10q27 0 51.5 -7.5t43 -22.5t29.5 -37.5t11 -52.5t-12 -53.5t-32.5 -40t-48.5 -25.5t-59 -9q-38 0 -68.5 14t-52 39.5t-33 60.5t-11.5 76q0 92 47 142.5t124 50.5q25 0 49.5 -6.5t44 -20t32.5 -33t16 -44.5l-93 -11
q-3 14 -14.5 24t-34.5 10zM195 -12q23 0 38 13t15 36t-15 36t-38 13t-38.5 -13t-15.5 -36t15.5 -36t38.5 -13z" />
    <glyph glyph-name="uni2087" unicode="&#x2087;" horiz-adv-x="347" 
d="M329 198q-13 -10 -34.5 -31t-43.5 -55.5t-40 -83t-24 -113.5h-107q5 69 25.5 122t43.5 89q26 42 59 73h-186v84h307v-85z" />
    <glyph glyph-name="uni2088" unicode="&#x2088;" horiz-adv-x="375" 
d="M188 137q22 0 33.5 11.5t11.5 27.5q0 13 -11 24.5t-34 11.5t-34.5 -11.5t-11.5 -24.5q0 -16 11.5 -27.5t34.5 -11.5zM188 -13q29 0 42 13t13 30q0 15 -13.5 27.5t-41.5 12.5q-29 0 -42 -12.5t-13 -27.5q0 -17 13 -30t42 -13zM188 -92q-75 0 -115.5 30.5t-40.5 79.5
q0 30 20.5 53.5t52.5 33.5q-30 10 -46 33t-16 49q0 45 38 74.5t107 29.5t106.5 -29.5t37.5 -74.5q0 -26 -16 -49t-46 -33q31 -9 52.5 -32.5t21.5 -52.5q0 -50 -40.5 -81t-115.5 -31z" />
    <glyph glyph-name="uni2089" unicode="&#x2089;" horiz-adv-x="374" 
d="M174 -14q35 0 52 23.5t17 61.5v10q-8 -16 -30.5 -26.5t-48.5 -10.5q-27 0 -52 7t-44 22t-30.5 37t-11.5 52t12 54t33 41t48 26t57 9q36 0 67 -11.5t53.5 -34.5t35.5 -58t13 -82q0 -94 -46 -145.5t-124 -51.5q-26 0 -50.5 7t-45 20t-34.5 32t-17 43l91 11q4 -16 19 -26
t36 -10zM179 113q18 0 35 11.5t17 38.5t-16 39t-36 12t-36 -12.5t-16 -38.5t17 -38t35 -12z" />
    <glyph glyph-name="Euro" unicode="&#x20ac;" horiz-adv-x="726" 
d="M695 57q-35 -29 -90 -50.5t-122 -21.5q-62 0 -117 16t-100 46.5t-77.5 75.5t-49.5 103h-97v93h77q-1 12 -1 18v17v14t1 17h-77v92h96q18 58 52 104t80.5 77.5t102.5 48t116 16.5t107 -14.5t77 -35.5q-5 -10 -11.5 -24t-14 -28.5t-14.5 -28.5l-12 -24q-23 17 -56 26t-76 9
q-32 0 -63 -7.5t-58.5 -22.5t-50 -39t-35.5 -57h294l-42 -92h-276q-1 -7 -1.5 -15t-0.5 -16t0.5 -18.5t1.5 -16.5h247q-4 -9 -9.5 -21t-11.5 -25.5t-11.5 -25.5t-8.5 -21h-177q12 -30 32.5 -52.5t47 -37.5t56.5 -22t61 -7q47 0 85.5 14t64.5 36z" />
    <glyph glyph-name="uni2113" unicode="&#x2113;" horiz-adv-x="431" 
d="M387 24q-14 -11 -40 -20t-68 -9q-77 0 -124 40.5t-47 114.5v87q-17 -6 -34.5 -11.5t-35.5 -8.5v115q32 8 70 24v200q0 39 11.5 70t32 52.5t48 33t59.5 11.5q69 0 108.5 -41.5t39.5 -116.5q0 -40 -13 -79t-36.5 -75.5t-56.5 -69t-74 -58.5v-94q0 -43 22.5 -61t54.5 -18
q29 0 49 6t34 14v-106zM227 425q26 26 44 63.5t18 82.5q0 19 -8 30t-22 11q-12 0 -22 -10.5t-10 -38.5v-138z" />
    <glyph glyph-name="trademark" unicode="&#x2122;" horiz-adv-x="888" 
d="M232 625v-281h-94v281h-104v84h301v-84h-103zM726 344v222l-89 -222h-68l-90 219v-219h-91v365h128l89 -214l86 214h126v-365h-91z" />
    <glyph glyph-name="Omega" unicode="&#x2126;" horiz-adv-x="795" 
d="M398 594q-39 0 -75.5 -13t-65 -38.5t-45.5 -63t-17 -86.5q0 -42 14 -77t37 -61t53 -42.5t62 -23.5v-189h-302v126h179q-37 15 -70.5 40t-59 60.5t-41 79.5t-15.5 96q0 74 28.5 133.5t76 101.5t110 64.5t131.5 22.5t131.5 -22.5t110 -64.5t76 -101.5t28.5 -133.5
q0 -52 -15.5 -96t-41.5 -79.5t-59.5 -60.5t-70.5 -40h179v-126h-302v189q32 7 62 23.5t53.5 42.5t37.5 61t14 77q0 49 -17 86.5t-45.5 63t-65 38.5t-75.5 13z" />
    <glyph glyph-name="uni2160" unicode="&#x2160;" horiz-adv-x="489" 
d="M447 592h-134v-475h134v-117h-405v117h134v475h-134v117h405v-117z" />
    <glyph glyph-name="uni2161" unicode="&#x2161;" horiz-adv-x="783" 
d="M741 592h-140v-475h140v-117h-699v117h140v475h-140v117h699v-117zM320 117h144v475h-144v-475z" />
    <glyph glyph-name="uni2162" unicode="&#x2162;" horiz-adv-x="1056" 
d="M1014 592h-140v-475h140v-117h-972v117h140v475h-140v117h972v-117zM320 117h140v475h-140v-475zM737 117v475h-140v-475h140z" />
    <glyph glyph-name="uni2163" unicode="&#x2163;" horiz-adv-x="1059" 
d="M1017 0h-975v117h137v475h-137v117h975v-117h-99l-131 -475h230v-117zM317 592v-475h212l-131 475h-81zM772 592h-229l115 -433z" />
    <glyph glyph-name="uni2164" unicode="&#x2164;" horiz-adv-x="801" 
d="M758 0h-716v117h232l-131 475h-101v117h717v-117h-97l-131 -475h227v-117zM517 592h-228l114 -433z" />
    <glyph glyph-name="uni2165" unicode="&#x2165;" horiz-adv-x="1054" 
d="M740 592h-79l-131 -475h210v475zM515 592h-228l114 -433zM42 117h230l-131 475h-99v117h970v-117h-135v-475h135v-117h-970v117z" />
    <glyph glyph-name="uni2166" unicode="&#x2166;" horiz-adv-x="1332" 
d="M1290 592h-138v-475h138v-117h-1248v117h230l-131 475h-99v117h1248v-117zM530 117h210v475h-79zM877 117h138v475h-138v-475zM515 592h-228l114 -433z" />
    <glyph glyph-name="uni2167" unicode="&#x2167;" horiz-adv-x="1599" 
d="M1558 592h-140v-475h139v-117h-1515v117h230l-131 475h-99v117h1516v-117zM530 117h209v475h-78zM876 117h135v475h-135v-475zM1148 117h133v475h-133v-475zM515 592h-228l114 -433z" />
    <glyph glyph-name="uni2168" unicode="&#x2168;" horiz-adv-x="1032" 
d="M725 354l162 -237h103v-117h-948v117h137v475h-137v117h948v-117h-101zM396 592h-79v-475h81l161 235zM721 117l-79 124l-81 -124h160zM643 465l83 127h-164z" />
    <glyph glyph-name="uni2169" unicode="&#x2169;" horiz-adv-x="777" 
d="M470 353l161 -236h104v-117h-693v117h102l160 234l-163 241h-99v117h693v-117h-101zM466 117l-79 123l-80 -123h159zM388 464l83 128h-165z" />
    <glyph glyph-name="uni216C" unicode="&#x216c;" horiz-adv-x="645" 
d="M42 0v117h118v475h-118v117h383v-117h-128v-475h184v176h130v-293h-569z" />
    <glyph glyph-name="uni216D" unicode="&#x216d;" horiz-adv-x="793" 
d="M599 78q-27 -38 -77 -65t-127 -27q-74 0 -138 26t-112 74t-75.5 116t-27.5 152q0 83 28 151t75.5 116.5t111 75t135.5 26.5q77 0 126 -27t76 -64v77h134v-259h-134q-5 25 -18 52.5t-36 50t-58 37t-84 14.5q-41 0 -81.5 -15.5t-72 -46.5t-51 -78t-19.5 -110
q0 -59 18.5 -105t49.5 -77t72.5 -47t86.5 -16q49 0 84 15t58.5 38t37 50.5t18.5 51.5h133v-264h-133v78z" />
    <glyph glyph-name="uni216E" unicode="&#x216e;" horiz-adv-x="776" 
d="M374 117q46 0 86.5 13.5t70 42.5t46.5 74t17 107t-17 107t-46.5 74t-70 43t-86.5 14h-71v-475h71zM383 709q77 0 141 -24t110.5 -69.5t72.5 -111.5t26 -150t-26 -150t-72.5 -111t-111 -69t-142.5 -24h-339v117h124v475h-124v117h341z" />
    <glyph glyph-name="uni216F" unicode="&#x216f;" horiz-adv-x="1059" 
d="M528 212l172 497h316v-117h-115v-475h116v-117h-336v117h84v387l-178 -498h-119l-178 495v-384h80v-117h-328v117h116v475h-116v117h308z" />
    <glyph glyph-name="arrowleft" unicode="&#x2190;" horiz-adv-x="1098" 
d="M27 297l294 236v-179h731v-115h-731v-177z" />
    <glyph glyph-name="arrowup" unicode="&#x2191;" horiz-adv-x="505" 
d="M483 533h-172v-680h-114v680h-174l231 267z" />
    <glyph glyph-name="arrowright" unicode="&#x2192;" horiz-adv-x="1098" 
d="M777 62v177h-731v115h731v179l294 -236z" />
    <glyph glyph-name="arrowdown" unicode="&#x2193;" horiz-adv-x="517" 
d="M259 -152l-235 269h178v677h114v-677h177z" />
    <glyph glyph-name="uni2196" unicode="&#x2196;" horiz-adv-x="799" 
d="M386 708l-125 -126l514 -513l-81 -81l-514 513l-126 -127v334h332z" />
    <glyph glyph-name="uni2197" unicode="&#x2197;" horiz-adv-x="799" 
d="M745 708v-334l-127 127l-513 -513l-81 81l513 513l-124 126h332z" />
    <glyph glyph-name="uni2198" unicode="&#x2198;" horiz-adv-x="799" 
d="M414 1l124 125l-513 514l81 81l513 -514l127 128v-334h-332z" />
    <glyph glyph-name="uni2199" unicode="&#x2199;" horiz-adv-x="800" 
d="M54 1v334l126 -128l514 514l81 -81l-514 -514l125 -125h-332z" />
    <glyph glyph-name="uni21A9" unicode="&#x21a9;" horiz-adv-x="933" 
d="M26 274l263 226v-169h360q26 0 49 7.5t40 21t26.5 32.5t9.5 42q0 48 -35 75.5t-92 27.5h-195v115h201q53 0 97 -16.5t75.5 -46t49 -69.5t17.5 -86q0 -47 -17 -87t-48.5 -69t-75.5 -46t-98 -17h-364v-165z" />
    <glyph glyph-name="uni21B0" unicode="&#x21b0;" horiz-adv-x="775" 
d="M21 499l263 226v-168h422v-557h-114v442h-308v-168z" />
    <glyph glyph-name="uni21B1" unicode="&#x21b1;" horiz-adv-x="795" 
d="M69 0v557h442v168l263 -226l-263 -225v168h-327v-442h-115z" />
    <glyph glyph-name="uni21B2" unicode="&#x21b2;" horiz-adv-x="801" 
d="M729 709v-557h-442v-168l-263 226l263 225v-168h328v442h114z" />
    <glyph glyph-name="uni21B3" unicode="&#x21b3;" horiz-adv-x="801" 
d="M777 210l-263 -226v168h-442v557h115v-442h327v168z" />
    <glyph glyph-name="uni21B4" unicode="&#x21b4;" horiz-adv-x="790" 
d="M32 709h565v-467h168l-223 -257l-225 257h165v352h-450v115z" />
    <glyph glyph-name="uni21B5" unicode="&#x21b5;" horiz-adv-x="1094" 
d="M25 354h153q0 76 29.5 144t79.5 118t117 79.5t144 29.5q48 0 91.5 -11.5t82.5 -31.5l-53 -102q-27 14 -57.5 22t-62.5 8q-53 0 -100 -20t-81.5 -55t-54.5 -81.5t-20 -99.5h161l-214 -250zM915 354q0 -77 -29 -144.5t-79 -117.5t-117.5 -79t-144.5 -29q-47 0 -90.5 11.5
t-82.5 31.5l52 102q28 -14 58 -22.5t63 -8.5q53 0 99 20t80.5 55t54.5 81.5t20 99.5h-159l214 251l215 -251h-154z" />
    <glyph glyph-name="uni21C6" unicode="&#x21c6;" horiz-adv-x="1111" 
d="M817 -62v167h-757v115h757v168l263 -226zM32 556l263 226v-170h756v-115h-756v-165z" />
    <glyph glyph-name="partialdiff" unicode="&#x2202;" horiz-adv-x="629" 
d="M255 600q-22 0 -60 -6t-85 -28l-46 106q51 29 104 39t95 10q32 0 68 -6t71.5 -21.5t68.5 -42.5t58 -68.5t40 -99t15 -135.5t-17.5 -144.5t-53.5 -115t-90.5 -76.5t-128.5 -28q-49 0 -95 15.5t-81.5 46t-57 76t-21.5 106.5q0 55 21 98.5t55.5 72.5t78.5 44.5t89 15.5
q34 0 60.5 -5t46 -13t32.5 -18t22 -20q-3 53 -19 90.5t-41.5 61t-58.5 34.5t-70 11zM313 346q-35 0 -61.5 -9.5t-43.5 -26.5t-25.5 -39.5t-8.5 -48.5q0 -27 11 -48.5t28.5 -36.5t40 -22.5t45.5 -7.5q42 0 70 17.5t45 44.5t25 59.5t8 61.5q-23 26 -56.5 41t-77.5 15z" />
    <glyph glyph-name="Delta" unicode="&#x2206;" horiz-adv-x="743" 
d="M296 709h150l271 -709h-691zM217 128h309l-155 431z" />
    <glyph glyph-name="product" unicode="&#x220f;" horiz-adv-x="660" 
d="M454 0v582h-248v-582h-138v709h524v-709h-138z" />
    <glyph glyph-name="summation" unicode="&#x2211;" horiz-adv-x="613" 
d="M48 125l256 229l-256 230v125h514v-128h-325l252 -227l-261 -226h334v-128h-514v125z" />
    <glyph glyph-name="minus" unicode="&#x2212;" horiz-adv-x="601" 
d="M63 295v109h475v-109h-475z" />
    <glyph glyph-name="uni2215" unicode="&#x2215;" horiz-adv-x="418" 
d="M107 0h-121l315 649h121z" />
    <glyph glyph-name="uni2219" unicode="&#x2219;" horiz-adv-x="277" 
d="M52 310q0 35 25 59.5t61 24.5t61 -24.5t25 -59.5q0 -37 -25 -61t-61 -24t-61 24t-25 61z" />
    <glyph glyph-name="radical" unicode="&#x221a;" horiz-adv-x="710" 
d="M574 768l-258 -768h-118l-190 537h130l120 -354l228 696h219v-111h-131z" />
    <glyph glyph-name="infinity" unicode="&#x221e;" horiz-adv-x="836" 
d="M164 343q0 -31 20 -51t54 -20q29 0 55.5 19.5t51.5 49.5q-26 32 -52 53.5t-55 21.5q-34 0 -54 -21t-20 -52zM672 343q0 31 -20.5 52t-54.5 21q-29 0 -54.5 -20.5t-52.5 -51.5q26 -31 52 -51.5t55 -20.5q34 0 54.5 20t20.5 51zM416 255q-45 -47 -87.5 -71.5t-92.5 -24.5
q-42 0 -77 14t-60.5 38.5t-40 58.5t-14.5 74t14.5 74t40 59t60.5 39.5t77 14.5q50 0 95.5 -25.5t87.5 -73.5q43 47 87.5 73t92.5 26q42 0 77.5 -14.5t61 -39.5t40 -59t14.5 -74t-14.5 -74t-40 -58.5t-61 -38.5t-77.5 -14q-51 0 -95.5 24t-87.5 72z" />
    <glyph glyph-name="integral" unicode="&#x222b;" horiz-adv-x="375" 
d="M121 525q0 85 49 135t136 50h51v-118h-45q-26 0 -42 -16.5t-16 -48.5v-532q0 -85 -48.5 -135t-134.5 -50h-54v117h46q26 0 42 17t16 49v532z" />
    <glyph glyph-name="approxequal" unicode="&#x2248;" horiz-adv-x="632" 
d="M582 458q-27 -48 -69 -73.5t-92 -26.5q-54 0 -109 31l-48 26q-26 14 -54 14q-50 0 -86 -48l-72 59q28 49 69.5 75.5t91.5 26.5q26 0 53 -7t56 -23l47 -26q29 -16 57 -16q24 0 46.5 11.5t39.5 35.5zM582 257q-28 -48 -70 -74t-92 -26q-53 0 -108 30l-48 26q-13 7 -26 11
t-27 4q-24 0 -46.5 -12t-40.5 -35l-72 59q29 49 70.5 74.5t91.5 25.5q52 0 108 -30l47 -25q26 -16 57 -16q24 0 46.5 11t39.5 36z" />
    <glyph glyph-name="notequal" unicode="&#x2260;" horiz-adv-x="609" 
d="M85 99l64 98h-87v107h156l61 92h-217v107h286l60 91h120l-60 -91h78v-107h-147l-60 -92h207v-107h-277l-64 -98h-120z" />
    <glyph glyph-name="lessequal" unicode="&#x2264;" horiz-adv-x="568" 
d="M64 370v109l430 135v-110l-279 -78l279 -78v-113zM64 98v109h430v-109h-430z" />
    <glyph glyph-name="greaterequal" unicode="&#x2265;" horiz-adv-x="568" 
d="M74 346l279 77l-279 80v111l430 -135v-109l-430 -135v111zM74 98v109h430v-109h-430z" />
    <glyph glyph-name="dotmath" unicode="&#x22c5;" horiz-adv-x="277" 
d="M52 310q0 35 25 59.5t61 24.5t61 -24.5t25 -59.5q0 -37 -25 -61t-61 -24t-61 24t-25 61z" />
    <glyph glyph-name="uni24C5" unicode="&#x24c5;" horiz-adv-x="818" 
d="M125 354q0 -61 22 -114t60 -92.5t89.5 -62t111.5 -22.5t111.5 22.5t89.5 62t60 92.5t22 114t-22 114.5t-60 93t-89.5 62t-111.5 22.5t-111.5 -22.5t-89.5 -62t-60 -93t-22 -114.5zM40 354q0 76 29 144t78.5 118t116.5 79.5t144 29.5q76 0 143.5 -29.5t118 -79.5
t79.5 -118t29 -144t-29 -143.5t-79.5 -117.5t-118 -79.5t-143.5 -29.5q-77 0 -144 29.5t-116.5 79.5t-78.5 117.5t-29 143.5zM432 370q27 0 42.5 14.5t15.5 38.5q0 25 -15.5 39.5t-42.5 14.5h-54v-107h54zM378 292v-137h-94v400h165q29 0 54 -10.5t43.5 -28.5t29 -42
t10.5 -51t-10.5 -51t-29 -41.5t-43.5 -28t-54 -10.5h-71z" />
    <glyph glyph-name="filledbox" unicode="&#x25a0;" horiz-adv-x="836" 
d="M65 709h706v-709h-706v709z" />
    <glyph glyph-name="H22073" unicode="&#x25a1;" horiz-adv-x="836" 
d="M65 0v709h706v-709h-706zM179 111h475v486h-475v-486z" />
    <glyph glyph-name="uni25AF" unicode="&#x25af;" horiz-adv-x="591" 
d="M65 0v709h461v-709h-461zM176 104h239v503h-239v-503z" />
    <glyph glyph-name="triagup" unicode="&#x25b2;" horiz-adv-x="878" 
d="M858 0h-838l421 725z" />
    <glyph glyph-name="uni25B3" unicode="&#x25b3;" horiz-adv-x="878" 
d="M858 0h-838l419 725zM439 496l-221 -384h441z" />
    <glyph glyph-name="lozenge" unicode="&#x25ca;" horiz-adv-x="609" 
d="M305 132l128 222l-128 223l-129 -223zM232 709h145l207 -355l-207 -354h-145l-207 354z" />
    <glyph glyph-name="circle" unicode="&#x25cb;" horiz-adv-x="821" 
d="M40 354q0 77 29 144.5t79.5 118t118 79.5t144.5 29t144.5 -29t117.5 -79.5t79 -118t29 -144.5t-29 -144.5t-79 -117.5t-117.5 -79t-144.5 -29t-144.5 29t-118 79t-79.5 117.5t-29 144.5zM155 354q0 -53 20 -100t54.5 -82t81.5 -55.5t100 -20.5q52 0 98.5 20.5t80.5 55.5
t54 82t20 100t-20 100t-54 82t-80.5 55.5t-98.5 20.5q-53 0 -100 -20.5t-81.5 -55.5t-54.5 -82t-20 -100z" />
    <glyph glyph-name="H18533" unicode="&#x25cf;" horiz-adv-x="821" 
d="M40 354q0 77 29 144.5t79 118t117.5 79.5t144.5 29t144.5 -29t118 -79.5t79.5 -118t29 -144.5t-29 -144.5t-79.5 -117.5t-118 -79t-144.5 -29t-144.5 29t-117.5 79t-79 117.5t-29 144.5z" />
    <glyph glyph-name="uni262E" unicode="&#x262e;" horiz-adv-x="817" 
d="M777 354q0 -77 -29 -144t-79 -117.5t-117.5 -79.5t-143.5 -29q-77 0 -144 29t-116.5 79.5t-78.5 117.5t-29 144t29 144.5t78.5 118t116.5 79.5t144 29q76 0 143.5 -29t117.5 -79.5t79 -118t29 -144.5zM664 354q0 47 -15.5 89.5t-42.5 76t-64 57t-80 33.5v-194l181 -157
q10 22 15.5 45.5t5.5 49.5zM151 354q0 -49 19 -93l180 155v192q-43 -10 -79.5 -33t-63 -56.5t-41.5 -75.5t-15 -89zM462 99q35 8 65.5 24.5t56.5 40.5l-122 110v-175zM229 166q50 -51 121 -67v175z" />
    <glyph glyph-name="uni2713" unicode="&#x2713;" horiz-adv-x="955" 
d="M317 -16l-293 324l83 78l214 -233l531 573l82 -81z" />
    <glyph glyph-name="uni2715" unicode="&#x2715;" horiz-adv-x="777" 
d="M388 274l-277 -279l-80 81l277 279l-277 277l81 80l276 -276l274 276l80 -80l-274 -277l280 -279l-80 -81z" />
    <glyph glyph-name="uni2780" unicode="&#x2780;" horiz-adv-x="818" 
d="M125 354q0 -61 22 -114t60 -92.5t89.5 -62t111.5 -22.5t111.5 22.5t89.5 62t60 92.5t22 114t-22 114.5t-60 93t-89.5 62t-111.5 22.5t-111.5 -22.5t-89.5 -62t-60 -93t-22 -114.5zM40 354q0 76 29 144t78.5 118t116.5 79.5t144 29.5q76 0 143.5 -29.5t118 -79.5
t79.5 -118t29 -144t-29 -143.5t-79.5 -117.5t-118 -79.5t-143.5 -29.5q-77 0 -144 29.5t-116.5 79.5t-78.5 117.5t-29 143.5zM375 173v223h-91v66q24 0 42 7t30.5 18.5t20 25t10.5 27.5h91v-367h-103z" />
    <glyph glyph-name="uni2781" unicode="&#x2781;" horiz-adv-x="818" 
d="M125 354q0 -61 22 -114t60 -92.5t89.5 -62t111.5 -22.5t111.5 22.5t89.5 62t60 92.5t22 114t-22 114.5t-60 93t-89.5 62t-111.5 22.5t-111.5 -22.5t-89.5 -62t-60 -93t-22 -114.5zM40 354q0 76 29 144t78.5 118t116.5 79.5t144 29.5q76 0 143.5 -29.5t118 -79.5
t79.5 -118t29 -144t-29 -143.5t-79.5 -117.5t-118 -79.5t-143.5 -29.5q-77 0 -144 29.5t-116.5 79.5t-78.5 117.5t-29 143.5zM265 405q-2 5 -3 13t-1 16q0 52 36.5 88t107.5 36q34 0 60.5 -10t44.5 -26.5t27.5 -38.5t9.5 -47q0 -36 -20.5 -62.5t-58.5 -49.5l-70 -42
q-12 -7 -12 -15h164v-85h-291v12q0 49 19.5 88.5t69.5 68.5l60 35q38 23 38 51q0 14 -10.5 26.5t-31.5 12.5q-23 0 -37 -13.5t-14 -38.5q0 -9 3 -18z" />
    <glyph glyph-name="uni2782" unicode="&#x2782;" horiz-adv-x="818" 
d="M125 354q0 -61 22 -114t60 -92.5t89.5 -62t111.5 -22.5t111.5 22.5t89.5 62t60 92.5t22 114t-22 114.5t-60 93t-89.5 62t-111.5 22.5t-111.5 -22.5t-89.5 -62t-60 -93t-22 -114.5zM40 354q0 76 29 144t78.5 118t116.5 79.5t144 29.5q76 0 143.5 -29.5t118 -79.5
t79.5 -118t29 -144t-29 -143.5t-79.5 -117.5t-118 -79.5t-143.5 -29.5q-77 0 -144 29.5t-116.5 79.5t-78.5 117.5t-29 143.5zM344 298q3 -23 19 -38.5t48 -15.5q27 0 42 11.5t15 25.5q0 35 -49 35h-44v75h41q24 0 34.5 11t10.5 25q0 17 -15 27t-35 10q-25 0 -39 -12t-17 -33
l-93 13q1 25 13 46.5t32 37t46.5 24t57.5 8.5q72 0 110 -32t38 -80q0 -27 -17.5 -49.5t-46.5 -30.5q32 -6 51 -29.5t19 -52.5q0 -48 -41.5 -79.5t-113.5 -31.5q-69 0 -112 32.5t-48 87.5z" />
    <glyph glyph-name="uni2783" unicode="&#x2783;" horiz-adv-x="818" 
d="M125 354q0 -61 22 -114t60 -92.5t89.5 -62t111.5 -22.5t111.5 22.5t89.5 62t60 92.5t22 114t-22 114.5t-60 93t-89.5 62t-111.5 22.5t-111.5 -22.5t-89.5 -62t-60 -93t-22 -114.5zM40 354q0 76 29 144t78.5 118t116.5 79.5t144 29.5q76 0 143.5 -29.5t118 -79.5
t79.5 -118t29 -144t-29 -143.5t-79.5 -117.5t-118 -79.5t-143.5 -29.5q-77 0 -144 29.5t-116.5 79.5t-78.5 117.5t-29 143.5zM229 348l169 198h109v-218h61v-79h-61v-71h-100v71h-178v99zM407 442l-97 -114h97v114z" />
    <glyph glyph-name="uni2784" unicode="&#x2784;" horiz-adv-x="818" 
d="M125 354q0 -61 22 -114t60 -92.5t89.5 -62t111.5 -22.5t111.5 22.5t89.5 62t60 92.5t22 114t-22 114.5t-60 93t-89.5 62t-111.5 22.5t-111.5 -22.5t-89.5 -62t-60 -93t-22 -114.5zM40 354q0 76 29 144t78.5 118t116.5 79.5t144 29.5q76 0 143.5 -29.5t118 -79.5
t79.5 -118t29 -144t-29 -143.5t-79.5 -117.5t-118 -79.5t-143.5 -29.5q-77 0 -144 29.5t-116.5 79.5t-78.5 117.5t-29 143.5zM340 290q3 -23 20 -36t41 -13q23 0 38 14t15 35q0 25 -16 38.5t-40 13.5q-16 0 -29.5 -6.5t-22.5 -16.5l-83 25l38 189h238v-83h-173l-12 -63
q13 11 32 17t39 6q59 0 93 -32t34 -87q0 -26 -10 -50t-29.5 -42t-48 -29t-65.5 -11q-30 0 -56 8.5t-45.5 23.5t-32 35t-15.5 43z" />
    <glyph glyph-name="uni2785" unicode="&#x2785;" horiz-adv-x="818" 
d="M125 354q0 -61 22 -114t60 -92.5t89.5 -62t111.5 -22.5t111.5 22.5t89.5 62t60 92.5t22 114t-22 114.5t-60 93t-89.5 62t-111.5 22.5t-111.5 -22.5t-89.5 -62t-60 -93t-22 -114.5zM40 354q0 76 29 144t78.5 118t116.5 79.5t144 29.5q76 0 143.5 -29.5t118 -79.5
t79.5 -118t29 -144t-29 -143.5t-79.5 -117.5t-118 -79.5t-143.5 -29.5q-77 0 -144 29.5t-116.5 79.5t-78.5 117.5t-29 143.5zM412 466q-30 0 -50 -22.5t-21 -65.5q10 14 31 24t51 10q27 0 51.5 -7.5t43 -22.5t29.5 -37.5t11 -52.5t-12 -53.5t-32.5 -40t-48.5 -25.5t-59 -9
q-38 0 -68.5 14t-52 39.5t-33 60.5t-11.5 76q0 92 47 142.5t124 50.5q25 0 49.5 -6.5t44 -20t32.5 -33t16 -44.5l-93 -11q-3 14 -14.5 24t-34.5 10zM405 244q23 0 38 13t15 36t-15 36t-38 13t-38.5 -13t-15.5 -36t15.5 -36t38.5 -13z" />
    <glyph glyph-name="uni2786" unicode="&#x2786;" horiz-adv-x="818" 
d="M125 354q0 -61 22 -114t60 -92.5t89.5 -62t111.5 -22.5t111.5 22.5t89.5 62t60 92.5t22 114t-22 114.5t-60 93t-89.5 62t-111.5 22.5t-111.5 -22.5t-89.5 -62t-60 -93t-22 -114.5zM40 354q0 76 29 144t78.5 118t116.5 79.5t144 29.5q76 0 143.5 -29.5t118 -79.5
t79.5 -118t29 -144t-29 -143.5t-79.5 -117.5t-118 -79.5t-143.5 -29.5q-77 0 -144 29.5t-116.5 79.5t-78.5 117.5t-29 143.5zM560 446q-13 -10 -34.5 -31t-43.5 -55.5t-40 -83t-24 -113.5h-107q5 69 25.5 122t43.5 89q26 42 59 73h-186v84h307v-85z" />
    <glyph glyph-name="uni2787" unicode="&#x2787;" horiz-adv-x="818" 
d="M125 354q0 -61 22 -114t60 -92.5t89.5 -62t111.5 -22.5t111.5 22.5t89.5 62t60 92.5t22 114t-22 114.5t-60 93t-89.5 62t-111.5 22.5t-111.5 -22.5t-89.5 -62t-60 -93t-22 -114.5zM40 354q0 76 29 144t78.5 118t116.5 79.5t144 29.5q76 0 143.5 -29.5t118 -79.5
t79.5 -118t29 -144t-29 -143.5t-79.5 -117.5t-118 -79.5t-143.5 -29.5q-77 0 -144 29.5t-116.5 79.5t-78.5 117.5t-29 143.5zM409 394q22 0 33.5 11.5t11.5 27.5q0 13 -11 24.5t-34 11.5t-34.5 -11.5t-11.5 -24.5q0 -16 11.5 -27.5t34.5 -11.5zM409 244q29 0 42 13t13 30
q0 15 -13.5 27.5t-41.5 12.5q-29 0 -42 -12.5t-13 -27.5q0 -17 13 -30t42 -13zM409 165q-75 0 -115.5 30.5t-40.5 79.5q0 30 20.5 53.5t52.5 33.5q-30 10 -46 33t-16 49q0 45 38 74.5t107 29.5t106.5 -29.5t37.5 -74.5q0 -26 -16 -49t-46 -33q31 -9 52.5 -32.5t21.5 -52.5
q0 -50 -40.5 -81t-115.5 -31z" />
    <glyph glyph-name="uni2788" unicode="&#x2788;" horiz-adv-x="818" 
d="M125 354q0 -61 22 -114t60 -92.5t89.5 -62t111.5 -22.5t111.5 22.5t89.5 62t60 92.5t22 114t-22 114.5t-60 93t-89.5 62t-111.5 22.5t-111.5 -22.5t-89.5 -62t-60 -93t-22 -114.5zM40 354q0 76 29 144t78.5 118t116.5 79.5t144 29.5q76 0 143.5 -29.5t118 -79.5
t79.5 -118t29 -144t-29 -143.5t-79.5 -117.5t-118 -79.5t-143.5 -29.5q-77 0 -144 29.5t-116.5 79.5t-78.5 117.5t-29 143.5zM403 241q35 0 52 23.5t17 61.5v10q-8 -16 -30.5 -26.5t-48.5 -10.5q-27 0 -52 7t-44 22t-30.5 37t-11.5 52t12 54t33 41t48 26t57 9q36 0 67 -11.5
t53.5 -34.5t35.5 -58t13 -82q0 -94 -46 -145.5t-124 -51.5q-26 0 -50.5 7t-45 20t-34.5 32t-17 43l91 11q4 -16 19 -26t36 -10zM408 368q18 0 35 11.5t17 38.5t-16 39t-36 12t-36 -12.5t-16 -38.5t17 -38t35 -12z" />
    <glyph glyph-name="uniE000" unicode="&#xe000;" horiz-adv-x="790" 
d="M25 242h168v467h565v-115h-450v-352h165l-225 -257z" />
    <glyph glyph-name="uniE002" unicode="&#xe002;" horiz-adv-x="970" 
d="M730 605l215 -251h-151q0 -77 -29 -144.5t-79 -117.5t-117.5 -79t-144.5 -29t-144 29t-117.5 79t-79.5 117.5t-29 144.5t29 144.5t79.5 118t117.5 79.5t144 29q43 0 82.5 -9t75.5 -26l-46 -106q-52 26 -111 26q-53 0 -100 -20t-81.5 -55t-54.5 -81.5t-20 -99.5t20 -99.5
t54.5 -81.5t81.5 -55.5t100 -20.5q52 0 98.5 20.5t80.5 55.5t54 81.5t20 99.5h-162z" />
    <glyph glyph-name="commaaccent" unicode="&#xf6c3;" horiz-adv-x="207" 
d="M26 685q0 27 20.5 45.5t52.5 18.5q34 0 57.5 -24t23.5 -62q0 -40 -14 -64.5t-35.5 -38.5t-46 -19t-45.5 -5v47q36 0 57 13t24 33q-2 -1 -10 -4t-19 -3q-31 0 -48 18t-17 45z" />
    <glyph glyph-name="uniFB00" unicode="&#xfb00;" horiz-adv-x="700" 
d="M569 492h111v-114h-111v-378h-133v378h-190v-378h-134v378h-82v114h82v56q0 42 12.5 75.5t36 57.5t56.5 37t74 13q21 0 39.5 -3t26.5 -7v-112q-5 2 -15 3.5t-27 1.5q-11 0 -23 -3t-22.5 -10.5t-17 -20.5t-6.5 -34v-54h190v56q0 42 12.5 75.5t36 57.5t56.5 37t74 13
q21 0 39.5 -3t26.5 -7v-112q-5 2 -15 3.5t-27 1.5q-11 0 -23 -3t-22.5 -10.5t-17.5 -20.5t-7 -34v-54z" />
    <glyph glyph-name="fi" unicode="&#xfb01;" horiz-adv-x="644" 
d="M246 378v-378h-134v378h-82v114h82v56q0 42 12.5 75.5t36 57.5t56.5 37t74 13q21 0 39.5 -3t26.5 -7v-112q-5 2 -15 3.5t-27 1.5q-11 0 -23 -3t-22.5 -10.5t-17 -20.5t-6.5 -34v-54h329v-492h-132v378h-197zM427 654q0 35 24 59t58 24t58 -24t24 -59q0 -34 -24 -57.5
t-58 -23.5t-58 23.5t-24 57.5z" />
    <glyph glyph-name="fl" unicode="&#xfb02;" horiz-adv-x="643" 
d="M315 614q-11 0 -23 -3t-22.5 -10.5t-17 -20.5t-6.5 -34v-54h196v232h133v-724h-133v378h-196v-378h-134v378h-82v114h82v56q0 42 12.5 75.5t36 57.5t56.5 37t74 13q21 0 39.5 -3t26.5 -7v-112q-5 2 -15 3.5t-27 1.5z" />
    <glyph glyph-name="uniFB03" unicode="&#xfb03;" horiz-adv-x="970" 
d="M753 654q0 35 23.5 59t57.5 24q35 0 59 -24t24 -59q0 -34 -24 -57.5t-59 -23.5q-34 0 -57.5 23.5t-23.5 57.5zM436 550q0 41 12.5 74.5t36 57t56 36.5t73.5 13q21 0 39.5 -3t26.5 -7v-112q-5 2 -15 3.5t-27 1.5q-11 0 -23 -3t-22.5 -10.5t-17 -20.5t-6.5 -34v-54h332
v-492h-133v378h-199v-378h-133v378h-190v-378h-134v378h-82v114h82v56q0 42 12.5 75.5t36 57.5t56.5 37t74 13q21 0 39.5 -3t26.5 -7v-112q-5 2 -15 3.5t-27 1.5q-11 0 -23 -3t-22.5 -10.5t-17 -20.5t-6.5 -34v-54h190v58z" />
    <glyph glyph-name="uniFB04" unicode="&#xfb04;" horiz-adv-x="970" 
d="M436 548q0 84 48.5 133.5t129.5 49.5q21 0 39.5 -3t26.5 -7v-112q-5 2 -15 3.5t-27 1.5q-11 0 -23 -3t-22.5 -10.5t-17 -20.5t-6.5 -34v-54h200v232h133v-724h-133v378h-200v-378h-133v378h-190v-378h-134v378h-82v114h82v56q0 42 12.5 75.5t36 57.5t56.5 37t74 13
q21 0 39.5 -3t26.5 -7v-112q-5 2 -15 3.5t-27 1.5q-11 0 -23 -3t-22.5 -10.5t-17 -20.5t-6.5 -34v-54h190v56z" />
    <glyph glyph-name="uniFEFF" unicode="&#xfeff;" horiz-adv-x="0" 
 />
    <glyph glyph-name="bullet.ss10" horiz-adv-x="572" 
d="M65 85v425l442 -213z" />
    <glyph glyph-name="i.latn_TRK" horiz-adv-x="269" 
d="M68 0v492h133v-492h-133zM52 653q0 35 24 59t58 24q35 0 58.5 -24t23.5 -59q0 -33 -23.5 -57t-58.5 -24q-34 0 -58 24t-24 57z" />
    <glyph glyph-name="Ldot.latn_CAT" horiz-adv-x="562" 
d="M305 404q0 32 23 54t55 22t54.5 -22t22.5 -54t-22.5 -54t-54.5 -22t-55 22t-23 54zM83 0v709h138v-577h316v-132h-454z" />
    <glyph glyph-name="ldot.latn_CAT" horiz-adv-x="401" 
d="M68 0v724h133v-724h-133zM251 330q0 34 23.5 56.5t56.5 22.5t56.5 -22.5t23.5 -56.5q0 -33 -23.5 -55.5t-56.5 -22.5t-56.5 22.5t-23.5 55.5z" />
    <glyph glyph-name="zero.dnom" horiz-adv-x="398" 
d="M137 183q0 -19 2 -38t8.5 -34.5t19 -25t32.5 -9.5q21 0 33 9.5t19 25t9 34.5t2 38t-2 38t-9 34.5t-19 25.5t-33 10q-20 0 -32.5 -9.5t-19 -25t-8.5 -35t-2 -38.5zM33 183q0 35 7.5 69t28.5 62q20 26 51 43.5t79 17.5t79.5 -17.5t51.5 -43.5q20 -28 27.5 -62t7.5 -69
t-7.5 -68.5t-27.5 -61.5q-20 -27 -51.5 -44t-79.5 -17t-79 17t-51 44q-21 28 -28.5 61.5t-7.5 68.5z" />
    <glyph glyph-name="one.dnom" horiz-adv-x="260" 
d="M113 0v223h-91v66q24 0 42 7t30.5 18.5t20 25t10.5 27.5h91v-367h-103z" />
    <glyph glyph-name="two.dnom" horiz-adv-x="360" 
d="M40 223q-2 5 -3 13t-1 16q0 52 36.5 88t107.5 36q34 0 60.5 -10t44.5 -26.5t27.5 -38.5t9.5 -47q0 -36 -20.5 -62.5t-58.5 -49.5l-70 -42q-12 -7 -12 -15h164v-85h-291v12q0 49 19.5 88.5t69.5 68.5l60 35q38 23 38 51q0 14 -10.5 26.5t-31.5 12.5q-23 0 -37 -13.5
t-14 -38.5q0 -9 3 -18z" />
    <glyph glyph-name="three.dnom" horiz-adv-x="368" 
d="M114 128q3 -23 19 -38.5t48 -15.5q27 0 42 11.5t15 25.5q0 35 -49 35h-44v75h41q24 0 34.5 11t10.5 25q0 17 -15 27t-35 10q-25 0 -39 -12t-17 -33l-93 13q1 25 13 46.5t32 37t46.5 24t57.5 8.5q72 0 110 -32t38 -80q0 -27 -17.5 -49.5t-46.5 -30.5q32 -6 51 -29.5
t19 -52.5q0 -48 -41.5 -79.5t-113.5 -31.5q-69 0 -112 32.5t-48 87.5z" />
    <glyph glyph-name="four.dnom" horiz-adv-x="389" 
d="M25 170l169 198h109v-218h61v-79h-61v-71h-100v71h-178v99zM203 264l-97 -114h97v114z" />
    <glyph glyph-name="five.dnom" horiz-adv-x="358" 
d="M116 124q3 -23 20 -36t41 -13q23 0 38 14t15 35q0 25 -16 38.5t-40 13.5q-16 0 -29.5 -6.5t-22.5 -16.5l-83 25l38 189h238v-83h-173l-12 -63q13 11 32 17t39 6q59 0 93 -32t34 -87q0 -26 -10 -50t-29.5 -42t-48 -29t-65.5 -11q-30 0 -56 8.5t-45.5 23.5t-32 35t-15.5 43
z" />
    <glyph glyph-name="six.dnom" horiz-adv-x="378" 
d="M202 294q-30 0 -50 -22.5t-21 -65.5q10 14 31 24t51 10q27 0 51.5 -7.5t43 -22.5t29.5 -37.5t11 -52.5t-12 -53.5t-32.5 -40t-48.5 -25.5t-59 -9q-38 0 -68.5 14t-52 39.5t-33 60.5t-11.5 76q0 92 47 142.5t124 50.5q25 0 49.5 -6.5t44 -20t32.5 -33t16 -44.5l-93 -11
q-3 14 -14.5 24t-34.5 10zM195 72q23 0 38 13t15 36t-15 36t-38 13t-38.5 -13t-15.5 -36t15.5 -36t38.5 -13z" />
    <glyph glyph-name="seven.dnom" horiz-adv-x="347" 
d="M329 283q-13 -10 -34.5 -31t-43.5 -55.5t-40 -83t-24 -113.5h-107q5 69 25.5 122t43.5 89q26 42 59 73h-186v84h307v-85z" />
    <glyph glyph-name="eight.dnom" horiz-adv-x="375" 
d="M188 221q22 0 33.5 11.5t11.5 27.5q0 13 -11 24.5t-34 11.5t-34.5 -11.5t-11.5 -24.5q0 -16 11.5 -27.5t34.5 -11.5zM188 71q29 0 42 13t13 30q0 15 -13.5 27.5t-41.5 12.5q-29 0 -42 -12.5t-13 -27.5q0 -17 13 -30t42 -13zM188 -8q-75 0 -115.5 30.5t-40.5 79.5
q0 30 20.5 53.5t52.5 33.5q-30 10 -46 33t-16 49q0 45 38 74.5t107 29.5t106.5 -29.5t37.5 -74.5q0 -26 -16 -49t-46 -33q31 -9 52.5 -32.5t21.5 -52.5q0 -50 -40.5 -81t-115.5 -31z" />
    <glyph glyph-name="nine.dnom" horiz-adv-x="375" 
d="M175 69q35 0 52 23.5t17 61.5v10q-8 -16 -30.5 -26.5t-48.5 -10.5q-27 0 -52 7t-44 22t-30.5 37t-11.5 52t12 54t33 41t48 26t57 9q36 0 67 -11.5t53.5 -34.5t35.5 -58t13 -82q0 -94 -46 -145.5t-124 -51.5q-26 0 -50.5 7t-45 20t-34.5 32t-17 43l91 11q4 -16 19 -26
t36 -10zM180 196q18 0 35 11.5t17 38.5t-16 39t-36 12t-36 -12.5t-16 -38.5t17 -38t35 -12z" />
    <glyph glyph-name="space.frac" horiz-adv-x="47" 
 />
    <glyph glyph-name="comma.tf" 
d="M190 90q0 40 29 67t72 27q53 0 82 -37t29 -92q0 -62 -19 -106.5t-48 -74t-63.5 -45t-66.5 -18.5v71q19 5 37.5 15.5t33.5 26.5t24.5 36t11.5 43q-9 -6 -30 -6q-41 0 -66.5 26t-25.5 67z" />
    <glyph glyph-name="period.tf" 
d="M194 94q0 43 29.5 72.5t71.5 29.5q22 0 41 -8t33 -22t21.5 -32.5t7.5 -39.5t-7.5 -39.5t-21.5 -32.5t-33 -22t-41 -8q-42 0 -71.5 30t-29.5 72z" />
    <glyph glyph-name="colon.tf" 
d="M199 83q0 41 28.5 69t69.5 28q20 0 38 -7.5t31.5 -20.5t21 -31t7.5 -38t-7.5 -38t-21 -31.5t-31.5 -20.5t-38 -7q-41 0 -69.5 28t-28.5 69zM199 410q0 41 28.5 69t69.5 28q20 0 38 -7.5t31.5 -20.5t21 -31t7.5 -38t-7.5 -38t-21 -31.5t-31.5 -20.5t-38 -7q-41 0 -69.5 28
t-28.5 69z" />
    <glyph glyph-name="semicolon.tf" 
d="M197 86q0 38 27 63t68 25q49 0 76 -34.5t27 -85.5q0 -57 -18 -99t-45 -69t-59 -41.5t-61 -17.5v67q17 4 34.5 14t31.5 24.5t22.5 33t10.5 40.5q-9 -6 -28 -6q-38 0 -62 24.5t-24 61.5zM198 407q0 41 28.5 69t69.5 28q20 0 38 -7.5t31.5 -20.5t21 -31t7.5 -38t-7.5 -38
t-21 -31.5t-31.5 -20.5t-38 -7q-41 0 -69.5 28t-28.5 69z" />
    <glyph glyph-name="section.tf" 
d="M506 253q0 -47 -23.5 -77.5t-53.5 -47.5q38 -27 57.5 -63.5t19.5 -78.5q0 -44 -18 -79t-47 -60t-67.5 -38.5t-78.5 -13.5q-49 0 -87 13.5t-65 38t-42 58.5t-17 76l124 21q0 -48 24 -71.5t64 -23.5q33 0 54.5 19t21.5 51q0 20 -12 35.5t-32 26.5l-101 53q-27 14 -52.5 30
t-45 36t-31 45.5t-11.5 60.5q0 46 22.5 77.5t53.5 48.5q-38 28 -57 65t-19 78q0 43 17.5 78.5t47 60.5t68 38.5t79.5 13.5q48 0 86 -14t65 -38.5t42 -59t17 -75.5l-126 -20q0 48 -23.5 71t-61.5 23q-35 0 -56.5 -19.5t-21.5 -50.5q0 -18 11 -34.5t33 -26.5l100 -52
q28 -15 54 -31t45.5 -37t31 -47t11.5 -60zM240 347q-14 -11 -23 -25t-9 -31q0 -22 9 -37.5t34 -28.5l101 -54q14 11 23 25t9 32q0 20 -9.5 36.5t-33.5 29.5z" />
    <glyph glyph-name="florin.tf" 
d="M223 380h-98v112h121l19 92q8 42 27 71.5t44.5 48.5t55.5 28t60 9q17 0 29 -1t22 -2.5t18.5 -4t19.5 -5.5v-115q-14 3 -29 5t-33 2q-10 0 -22.5 -2.5t-24.5 -10.5t-22 -22.5t-15 -39.5l-11 -53h117v-112h-140l-79 -392q-8 -41 -27 -71t-44.5 -49t-55.5 -28t-60 -9
q-35 0 -53.5 3.5t-38.5 10.5v114q14 -3 30 -5t35 -2q10 0 22.5 2.5t24.5 10.5t22 23t15 40z" />
    <glyph glyph-name="uni2007.tf" 
 />
    <glyph glyph-name="uni2008.tf" 
 />
    <glyph glyph-name="parenleft.case" horiz-adv-x="338" 
d="M44 354q0 80 15.5 147.5t42 125t61.5 105t75 88.5l78 -67q-38 -43 -67.5 -87t-50.5 -92t-32 -102t-11 -118t11 -118.5t32 -102.5t50.5 -92t67.5 -87l-78 -66q-40 40 -75 88t-61.5 105t-42 125t-15.5 148z" />
    <glyph glyph-name="parenright.case" horiz-adv-x="337" 
d="M294 354q0 -80 -15.5 -148t-42 -125t-61.5 -105t-75 -88l-78 66q37 43 67 87t51 92t32 102.5t11 118.5t-11 118t-32 102t-51 92t-67 87l78 67q40 -41 75 -88.5t61.5 -105t42 -125t15.5 -147.5z" />
    <glyph glyph-name="hyphen.case" horiz-adv-x="414" 
d="M62 288v118h290v-118h-290z" />
    <glyph glyph-name="bracketleft.case" horiz-adv-x="335" 
d="M69 -109v925h231v-101h-120v-721h120v-103h-231z" />
    <glyph glyph-name="bracketright.case" horiz-adv-x="335" 
d="M35 -109v103h119v721h-119v101h231v-925h-231z" />
    <glyph glyph-name="braceleft.case" horiz-adv-x="383" 
d="M23 410q43 0 71.5 21t28.5 72v120q0 99 51.5 146t142.5 47h31v-101h-30q-37 0 -60 -19.5t-23 -69.5v-145q0 -48 -26.5 -81t-74.5 -45q48 -13 74.5 -45.5t26.5 -80.5v-146q0 -49 23 -69t60 -20h30v-101h-31q-91 0 -142.5 47.5t-51.5 145.5v120q0 51 -28.5 72t-71.5 21v111
z" />
    <glyph glyph-name="braceright.case" horiz-adv-x="382" 
d="M360 299q-43 0 -72 -21t-29 -72v-120q0 -98 -51.5 -145.5t-141.5 -47.5h-31v101h29q38 0 61 20t23 69v146q0 48 26 80.5t74 45.5q-48 12 -74 45t-26 81v145q0 50 -23 69.5t-61 19.5h-29v101h31q90 0 141.5 -47t51.5 -146v-120q0 -51 29 -72t72 -21v-111z" />
    <glyph glyph-name="exclamdown.case" horiz-adv-x="277" 
d="M218 0h-160l32 493h97zM59 638q0 32 23 55.5t56 23.5q32 0 55.5 -23.5t23.5 -55.5q0 -33 -23.5 -56.5t-55.5 -23.5q-33 0 -56 23.5t-23 56.5z" />
    <glyph glyph-name="guillemotleft.case" horiz-adv-x="564" 
d="M174 151l-137 194l138 197h125l-136 -198l136 -193h-126zM390 151l-136 194l137 197h126l-137 -198l136 -193h-126z" />
    <glyph glyph-name="uni00AD.case" horiz-adv-x="417" 
d="M63 293v119h291v-119h-291z" />
    <glyph glyph-name="guillemotright.case" horiz-adv-x="564" 
d="M264 151l136 193l-136 198h125l138 -197l-137 -194h-126zM48 151l135 193l-136 198h125l138 -197l-136 -194h-126z" />
    <glyph glyph-name="questiondown.case" horiz-adv-x="528" 
d="M332 494q3 -20 3 -41q0 -41 -16.5 -77.5t-60.5 -68.5l-48 -35q-23 -17 -32.5 -36.5t-9.5 -42.5q0 -35 24.5 -62t74.5 -27q26 0 45.5 9t32 24t19 34t6.5 39q0 11 -1.5 22t-4.5 19l128 -12q5 -23 5 -44q0 -41 -15 -78.5t-44 -67t-72 -47t-99 -17.5q-58 0 -102 17t-73.5 45
t-44.5 63.5t-15 73.5q0 60 26.5 103.5t70.5 74.5l41 29q26 18 40 42t14 55v6h108zM197 638q0 33 23.5 56t56.5 23t56 -23t23 -56t-23 -56t-56 -23t-56.5 23t-23.5 56z" />
    <glyph glyph-name="endash.case" horiz-adv-x="644" 
d="M64 289v115h516v-115h-516z" />
    <glyph glyph-name="emdash.case" horiz-adv-x="1066" 
d="M63 289v115h940v-115h-940z" />
    <glyph glyph-name="guilsinglleft.case" horiz-adv-x="348" 
d="M174 151l-137 194l138 197h125l-136 -198l136 -193h-126z" />
    <glyph glyph-name="guilsinglright.case" horiz-adv-x="347" 
d="M48 151l135 193l-136 198h126l137 -197l-136 -194h-126z" />
    <glyph glyph-name="G.ss01" horiz-adv-x="777" 
d="M407 -15q-75 0 -141.5 26t-116.5 74.5t-79 116.5t-29 152t29.5 152.5t79.5 116.5t116 74.5t138 26.5t127.5 -20t96 -52.5t66.5 -73.5t37 -84l-135 -38q-6 24 -20 49t-37 45.5t-56.5 33t-78.5 12.5q-41 0 -80.5 -14t-71 -43.5t-51 -75.5t-19.5 -109q0 -60 18.5 -105
t49 -75.5t71.5 -46t86 -15.5q35 0 67 9t57 26.5t41.5 42t22.5 55.5h-250v120h394q2 -12 2.5 -24.5t0.5 -26.5q-1 -68 -24 -128t-66 -104.5t-105 -70.5t-140 -26z" />
    <glyph glyph-name="Gcircumflex.ss01" horiz-adv-x="777" 
d="M407 -15q-75 0 -141.5 26t-116.5 74.5t-79 116.5t-29 152t29.5 152.5t79.5 116.5t116 74.5t138 26.5t127.5 -20t96 -52.5t66.5 -73.5t37 -84l-135 -38q-6 24 -20 49t-37 45.5t-56.5 33t-78.5 12.5q-41 0 -80.5 -14t-71 -43.5t-51 -75.5t-19.5 -109q0 -60 18.5 -105
t49 -75.5t71.5 -46t86 -15.5q35 0 67 9t57 26.5t41.5 42t22.5 55.5h-250v120h394q2 -12 2.5 -24.5t0.5 -26.5q-1 -68 -24 -128t-66 -104.5t-105 -70.5t-140 -26zM225 759l120 127h136l122 -127h-125l-67 65l-65 -65h-121z" />
    <glyph glyph-name="Gbreve.ss01" horiz-adv-x="777" 
d="M407 -15q-75 0 -141.5 26t-116.5 74.5t-79 116.5t-29 152t29.5 152.5t79.5 116.5t116 74.5t138 26.5t127.5 -20t96 -52.5t66.5 -73.5t37 -84l-135 -38q-6 24 -20 49t-37 45.5t-56.5 33t-78.5 12.5q-41 0 -80.5 -14t-71 -43.5t-51 -75.5t-19.5 -109q0 -60 18.5 -105
t49 -75.5t71.5 -46t86 -15.5q35 0 67 9t57 26.5t41.5 42t22.5 55.5h-250v120h394q2 -12 2.5 -24.5t0.5 -26.5q-1 -68 -24 -128t-66 -104.5t-105 -70.5t-140 -26zM398 753q-41 0 -71 12t-50.5 31t-30.5 43.5t-11 48.5h102q1 -20 15.5 -35.5t45.5 -15.5t45.5 15.5t15.5 35.5
h102q-1 -24 -11 -48.5t-30.5 -43.5t-50.5 -31t-71 -12z" />
    <glyph glyph-name="Gdotaccent.ss01" horiz-adv-x="777" 
d="M407 -15q-75 0 -141.5 26t-116.5 74.5t-79 116.5t-29 152t29.5 152.5t79.5 116.5t116 74.5t138 26.5t127.5 -20t96 -52.5t66.5 -73.5t37 -84l-135 -38q-6 24 -20 49t-37 45.5t-56.5 33t-78.5 12.5q-41 0 -80.5 -14t-71 -43.5t-51 -75.5t-19.5 -109q0 -60 18.5 -105
t49 -75.5t71.5 -46t86 -15.5q35 0 67 9t57 26.5t41.5 42t22.5 55.5h-250v120h394q2 -12 2.5 -24.5t0.5 -26.5q-1 -68 -24 -128t-66 -104.5t-105 -70.5t-140 -26zM324 836q0 34 23.5 57t56.5 23q34 0 57.5 -23t23.5 -57q0 -33 -23.5 -56t-57.5 -23q-33 0 -56.5 23t-23.5 56z
" />
    <glyph glyph-name="Gcommaaccent.ss01" horiz-adv-x="777" 
d="M407 -15q-75 0 -141.5 26t-116.5 74.5t-79 116.5t-29 152t29.5 152.5t79.5 116.5t116 74.5t138 26.5t127.5 -20t96 -52.5t66.5 -73.5t37 -84l-135 -38q-6 24 -20 49t-37 45.5t-56.5 33t-78.5 12.5q-41 0 -80.5 -14t-71 -43.5t-51 -75.5t-19.5 -109q0 -60 18.5 -105
t49 -75.5t71.5 -46t86 -15.5q35 0 67 9t57 26.5t41.5 42t22.5 55.5h-250v120h394q2 -12 2.5 -24.5t0.5 -26.5q-1 -68 -24 -128t-66 -104.5t-105 -70.5t-140 -26zM338 -102q0 27 20.5 45.5t52.5 18.5q34 0 57.5 -24t23.5 -63t-13.5 -63.5t-34.5 -38.5t-46 -19.5t-47 -5.5v48
q36 0 57 13.5t24 33.5q-3 -2 -10.5 -4.5t-18.5 -2.5q-31 0 -48 17.5t-17 44.5z" />
    <glyph glyph-name="a.ss02" horiz-adv-x="614" 
d="M173 248q0 -67 34.5 -107t88.5 -40q52 0 86.5 39.5t34.5 107.5t-34 105.5t-87 37.5q-54 0 -88.5 -37.5t-34.5 -105.5zM418 67q-16 -35 -52 -58t-86 -23q-54 0 -98.5 20t-76 55t-49 83t-17.5 104q0 54 17 101t48 82t74.5 55t97.5 20q33 0 57.5 -8t41.5 -19t27 -24.5
t15 -23.5v61h129v-403q0 -33 1.5 -57t2.5 -32h-127q-2 8 -3.5 25.5t-1.5 35.5v6z" />
    <glyph glyph-name="agrave.ss02" horiz-adv-x="614" 
d="M173 248q0 -67 34.5 -107t88.5 -40q52 0 86.5 39.5t34.5 107.5t-34 105.5t-87 37.5q-54 0 -88.5 -37.5t-34.5 -105.5zM418 67q-16 -35 -52 -58t-86 -23q-54 0 -98.5 20t-76 55t-49 83t-17.5 104q0 54 17 101t48 82t74.5 55t97.5 20q33 0 57.5 -8t41.5 -19t27 -24.5
t15 -23.5v61h129v-403q0 -33 1.5 -57t2.5 -32h-127q-2 8 -3.5 25.5t-1.5 35.5v6zM123 701h154l90 -150h-108z" />
    <glyph glyph-name="aacute.ss02" horiz-adv-x="614" 
d="M321 551h-107l91 150h152zM173 248q0 -67 34.5 -107t88.5 -40q52 0 86.5 39.5t34.5 107.5t-34 105.5t-87 37.5q-54 0 -88.5 -37.5t-34.5 -105.5zM418 67q-16 -35 -52 -58t-86 -23q-54 0 -98.5 20t-76 55t-49 83t-17.5 104q0 54 17 101t48 82t74.5 55t97.5 20
q33 0 57.5 -8t41.5 -19t27 -24.5t15 -23.5v61h129v-403q0 -33 1.5 -57t2.5 -32h-127q-2 8 -3.5 25.5t-1.5 35.5v6z" />
    <glyph glyph-name="acircumflex.ss02" horiz-adv-x="614" 
d="M128 552l110 147h132l110 -147h-107l-71 75l-70 -75h-104zM173 248q0 -67 34.5 -107t88.5 -40q52 0 86.5 39.5t34.5 107.5t-34 105.5t-87 37.5q-54 0 -88.5 -37.5t-34.5 -105.5zM418 67q-16 -35 -52 -58t-86 -23q-54 0 -98.5 20t-76 55t-49 83t-17.5 104q0 54 17 101
t48 82t74.5 55t97.5 20q33 0 57.5 -8t41.5 -19t27 -24.5t15 -23.5v61h129v-403q0 -33 1.5 -57t2.5 -32h-127q-2 8 -3.5 25.5t-1.5 35.5v6z" />
    <glyph glyph-name="atilde.ss02" horiz-adv-x="614" 
d="M173 248q0 -67 34.5 -107t88.5 -40q52 0 86.5 39.5t34.5 107.5t-34 105.5t-87 37.5q-54 0 -88.5 -37.5t-34.5 -105.5zM418 67q-16 -35 -52 -58t-86 -23q-54 0 -98.5 20t-76 55t-49 83t-17.5 104q0 54 17 101t48 82t74.5 55t97.5 20q33 0 57.5 -8t41.5 -19t27 -24.5
t15 -23.5v61h129v-403q0 -33 1.5 -57t2.5 -32h-127q-2 8 -3.5 25.5t-1.5 35.5v6zM480 678q0 -63 -30 -93t-77 -30q-21 0 -39 6t-32 16l-6 4q-10 6 -19.5 12t-27.5 6q-16 0 -25 -10t-10 -33h-82v21q0 61 31.5 91t77.5 30q22 0 39 -7t33 -15l6 -4q13 -8 24.5 -13.5t23.5 -5.5
q33 0 33 43h80v-18z" />
    <glyph glyph-name="adieresis.ss02" horiz-adv-x="614" 
d="M126 628q0 29 20.5 50t49.5 21t50 -21t21 -50t-21 -49.5t-50 -20.5t-49.5 20.5t-20.5 49.5zM336 628q0 29 20 50t50 21q29 0 50 -21t21 -50t-21 -49.5t-50 -20.5q-30 0 -50 20.5t-20 49.5zM173 248q0 -67 34.5 -107t88.5 -40q52 0 86.5 39.5t34.5 107.5t-34 105.5
t-87 37.5q-54 0 -88.5 -37.5t-34.5 -105.5zM418 67q-16 -35 -52 -58t-86 -23q-54 0 -98.5 20t-76 55t-49 83t-17.5 104q0 54 17 101t48 82t74.5 55t97.5 20q33 0 57.5 -8t41.5 -19t27 -24.5t15 -23.5v61h129v-403q0 -33 1.5 -57t2.5 -32h-127q-2 8 -3.5 25.5t-1.5 35.5v6z
" />
    <glyph glyph-name="aring.ss02" horiz-adv-x="614" 
d="M409 648q0 -24 -9.5 -44t-25 -35t-36.5 -23t-44 -8t-44 8t-36.5 23t-25 35t-9.5 44t9.5 44.5t25 35.5t36.5 23.5t44 8.5t44 -8.5t36.5 -23.5t25 -35.5t9.5 -44.5zM334 648q0 19 -12 30.5t-29 11.5t-28.5 -11.5t-11.5 -30.5q0 -18 11.5 -29.5t28.5 -11.5t29 11.5t12 29.5z
M173 248q0 -67 34.5 -107t88.5 -40q52 0 86.5 39.5t34.5 107.5t-34 105.5t-87 37.5q-54 0 -88.5 -37.5t-34.5 -105.5zM418 67q-16 -35 -52 -58t-86 -23q-54 0 -98.5 20t-76 55t-49 83t-17.5 104q0 54 17 101t48 82t74.5 55t97.5 20q33 0 57.5 -8t41.5 -19t27 -24.5t15 -23.5
v61h129v-403q0 -33 1.5 -57t2.5 -32h-127q-2 8 -3.5 25.5t-1.5 35.5v6z" />
    <glyph glyph-name="amacron.ss02" horiz-adv-x="614" 
d="M173 248q0 -67 34.5 -107t88.5 -40q52 0 86.5 39.5t34.5 107.5t-34 105.5t-87 37.5q-54 0 -88.5 -37.5t-34.5 -105.5zM418 67q-16 -35 -52 -58t-86 -23q-54 0 -98.5 20t-76 55t-49 83t-17.5 104q0 54 17 101t48 82t74.5 55t97.5 20q33 0 57.5 -8t41.5 -19t27 -24.5
t15 -23.5v61h129v-403q0 -33 1.5 -57t2.5 -32h-127q-2 8 -3.5 25.5t-1.5 35.5v6zM154 577v97h281v-97h-281z" />
    <glyph glyph-name="abreve.ss02" horiz-adv-x="614" 
d="M173 248q0 -67 34.5 -107t88.5 -40q52 0 86.5 39.5t34.5 107.5t-34 105.5t-87 37.5q-54 0 -88.5 -37.5t-34.5 -105.5zM418 67q-16 -35 -52 -58t-86 -23q-54 0 -98.5 20t-76 55t-49 83t-17.5 104q0 54 17 101t48 82t74.5 55t97.5 20q33 0 57.5 -8t41.5 -19t27 -24.5
t15 -23.5v61h129v-403q0 -33 1.5 -57t2.5 -32h-127q-2 8 -3.5 25.5t-1.5 35.5v6zM299 549q-39 0 -69 12.5t-50 33.5t-30.5 48.5t-11.5 56.5h89q1 -20 17.5 -39.5t54.5 -19.5q19 0 32 5.5t22 14t13 19t5 20.5h89q-1 -29 -11 -56.5t-30.5 -48.5t-50 -33.5t-69.5 -12.5z" />
    <glyph glyph-name="aogonek.ss02" horiz-adv-x="614" 
d="M498 -223q-54 0 -88.5 29t-34.5 78q0 45 22 72t50 44h-24q-2 8 -3.5 25.5t-1.5 35.5v6q-16 -35 -52 -58t-86 -23q-54 0 -98.5 20t-76 55t-49 83t-17.5 104q0 54 17 101t48 82t74.5 55t97.5 20q33 0 57.5 -8t41.5 -19t27 -24.5t15 -23.5v61h129v-403q0 -26 1 -49.5
t3 -39.5q-14 -7 -28.5 -16.5t-25.5 -21.5t-18 -26t-7 -30q0 -23 14.5 -34t34.5 -11q16 0 30 3v-79q-10 -4 -22.5 -6t-29.5 -2zM173 248q0 -67 34.5 -107t88.5 -40q52 0 86.5 39.5t34.5 107.5t-34 105.5t-87 37.5q-54 0 -88.5 -37.5t-34.5 -105.5z" />
    <glyph glyph-name="aringacute.ss02" horiz-adv-x="614" 
d="M346 784h-107l91 150h152zM410 644q0 -24 -9.5 -44t-25 -35t-36.5 -23t-44 -8t-44 8t-36.5 23t-25 35t-9.5 44t9.5 44.5t25 35.5t36.5 23.5t44 8.5t44 -8.5t36.5 -23.5t25 -35.5t9.5 -44.5zM335 644q0 19 -12 30.5t-29 11.5t-28.5 -11.5t-11.5 -30.5q0 -18 11.5 -29.5
t28.5 -11.5t29 11.5t12 29.5zM173 248q0 -67 34.5 -107t88.5 -40q52 0 86.5 39.5t34.5 107.5t-34 105.5t-87 37.5q-54 0 -88.5 -37.5t-34.5 -105.5zM418 67q-16 -35 -52 -58t-86 -23q-54 0 -98.5 20t-76 55t-49 83t-17.5 104q0 54 17 101t48 82t74.5 55t97.5 20
q33 0 57.5 -8t41.5 -19t27 -24.5t15 -23.5v61h129v-403q0 -33 1.5 -57t2.5 -32h-127q-2 8 -3.5 25.5t-1.5 35.5v6z" />
    <glyph glyph-name="r.ss03" horiz-adv-x="391" 
d="M201 416q2 35 27.5 59t61.5 24q38 0 63.5 -25.5t25.5 -63.5t-25.5 -63.5t-63.5 -25.5q-36 0 -61.5 23t-27.5 58v-402h-133v492h133v-76z" />
    <glyph glyph-name="racute.ss03" horiz-adv-x="391" 
d="M208 551h-107l91 150h152zM201 416q2 35 27.5 59t61.5 24q38 0 63.5 -25.5t25.5 -63.5t-25.5 -63.5t-63.5 -25.5q-36 0 -61.5 23t-27.5 58v-402h-133v492h133v-76z" />
    <glyph glyph-name="rcommaaccent.ss03" horiz-adv-x="391" 
d="M59 -102q0 27 20.5 45.5t52.5 18.5q34 0 57.5 -24t23.5 -63t-13.5 -63.5t-34.5 -38.5t-46 -19.5t-47 -5.5v48q36 0 57 13.5t24 33.5q-3 -2 -10.5 -4.5t-18.5 -2.5q-31 0 -48 17.5t-17 44.5zM201 416q2 35 27.5 59t61.5 24q38 0 63.5 -25.5t25.5 -63.5t-25.5 -63.5
t-63.5 -25.5q-36 0 -61.5 23t-27.5 58v-402h-133v492h133v-76z" />
    <glyph glyph-name="rcaron.ss03" horiz-adv-x="391" 
d="M148 700l70 -75l70 75h105l-109 -148h-133l-110 148h107zM201 416q2 35 27.5 59t61.5 24q38 0 63.5 -25.5t25.5 -63.5t-25.5 -63.5t-63.5 -25.5q-36 0 -61.5 23t-27.5 58v-402h-133v492h133v-76z" />
    <glyph glyph-name="ampersand.ss04" horiz-adv-x="685" 
d="M372 347h289v-114h-73v-4q-2 -50 -20.5 -94t-53 -77.5t-85 -53t-115.5 -19.5q-63 0 -113 16.5t-85.5 45t-54 68t-18.5 85.5q0 37 12.5 68t33 54.5t46.5 39.5t53 23q-47 16 -78 56.5t-31 94.5q0 40 16.5 74.5t46 59.5t70 39.5t89.5 14.5q61 0 104 -16.5t71 -44t42 -63
t16 -72.5l-132 -16q-2 44 -26 71.5t-74 27.5q-34 0 -61.5 -21t-27.5 -59q0 -23 9 -39.5t23 -27t30 -15.5t30 -5h11v-114q-23 0 -46.5 -6t-42.5 -20t-31.5 -36.5t-12.5 -55.5q0 -20 8 -40t24.5 -35.5t41.5 -25t60 -9.5q60 0 95.5 33t37.5 94v4h-78v114z" />
    <glyph glyph-name="registered.ss06" horiz-adv-x="465" 
d="M41 526q0 39 15 74t41 61t61 41t74 15t74 -15t61.5 -41t41.5 -61t15 -74t-15 -74t-41.5 -61t-61.5 -41t-74 -15t-74 15t-61 41t-41 61t-15 74zM94 526q0 -30 10.5 -55.5t29 -44.5t44 -30t54.5 -11t54.5 11t44 30t29.5 44.5t11 55.5t-11 55.5t-29.5 44.5t-44 30t-54.5 11
t-54.5 -11t-44 -30t-29 -44.5t-10.5 -55.5zM228 496h-12v-65h-55v196h84q29 0 49 -19t20 -47q0 -19 -9.5 -33t-25.5 -22l36 -75h-59zM232 541q25 0 25 20t-25 20h-16v-40h16z" />
    <glyph glyph-name="zero.numr" horiz-adv-x="394" 
d="M135 525q0 -19 2 -38t8.5 -34.5t19 -25t32.5 -9.5q21 0 33 9.5t19 25t9 34.5t2 38t-2 38t-9 34.5t-19 25.5t-33 10q-20 0 -32.5 -9.5t-19 -25t-8.5 -35t-2 -38.5zM31 525q0 35 7.5 69t28.5 62q20 26 51 43.5t79 17.5t79.5 -17.5t51.5 -43.5q20 -28 27.5 -62t7.5 -69
t-7.5 -68.5t-27.5 -61.5q-20 -27 -51.5 -44t-79.5 -17t-79 17t-51 44q-21 28 -28.5 61.5t-7.5 68.5z" />
    <glyph glyph-name="one.numr" horiz-adv-x="257" 
d="M111 342v223h-91v66q24 0 42 7t30.5 18.5t20 25t10.5 27.5h91v-367h-103z" />
    <glyph glyph-name="two.numr" horiz-adv-x="358" 
d="M39 564q-2 5 -3 13t-1 16q0 52 36.5 88t107.5 36q34 0 60.5 -10t44.5 -26.5t27.5 -38.5t9.5 -47q0 -36 -20.5 -62.5t-58.5 -49.5l-70 -42q-12 -7 -12 -15h164v-85h-291v12q0 49 19.5 88.5t69.5 68.5l60 35q38 23 38 51q0 14 -10.5 26.5t-31.5 12.5q-23 0 -37 -13.5
t-14 -38.5q0 -9 3 -18z" />
    <glyph glyph-name="three.numr" horiz-adv-x="366" 
d="M113 469q3 -23 19 -38.5t48 -15.5q27 0 42 11.5t15 25.5q0 35 -49 35h-44v75h41q24 0 34.5 11t10.5 25q0 17 -15 27t-35 10q-25 0 -39 -12t-17 -33l-93 13q1 25 13 46.5t32 37t46.5 24t57.5 8.5q72 0 110 -32t38 -80q0 -27 -17.5 -49.5t-46.5 -30.5q32 -6 51 -29.5
t19 -52.5q0 -48 -41.5 -79.5t-113.5 -31.5q-69 0 -112 32.5t-48 87.5z" />
    <glyph glyph-name="four.numr" horiz-adv-x="387" 
d="M24 511l169 198h109v-218h61v-79h-61v-71h-100v71h-178v99zM202 605l-97 -114h97v114z" />
    <glyph glyph-name="five.numr" horiz-adv-x="355" 
d="M115 466q3 -23 20 -36t41 -13q23 0 38 14t15 35q0 25 -16 38.5t-40 13.5q-16 0 -29.5 -6.5t-22.5 -16.5l-83 25l38 189h238v-83h-173l-12 -63q13 11 32 17t39 6q59 0 93 -32t34 -87q0 -26 -10 -50t-29.5 -42t-48 -29t-65.5 -11q-30 0 -56 8.5t-45.5 23.5t-32 35t-15.5 43
z" />
    <glyph glyph-name="six.numr" horiz-adv-x="375" 
d="M201 634q-30 0 -50 -22.5t-21 -65.5q10 14 31 24t51 10q27 0 51.5 -7.5t43 -22.5t29.5 -37.5t11 -52.5t-12 -53.5t-32.5 -40t-48.5 -25.5t-59 -9q-38 0 -68.5 14t-52 39.5t-33 60.5t-11.5 76q0 92 47 142.5t124 50.5q25 0 49.5 -6.5t44 -20t32.5 -33t16 -44.5l-93 -11
q-3 14 -14.5 24t-34.5 10zM194 412q23 0 38 13t15 36t-15 36t-38 13t-38.5 -13t-15.5 -36t15.5 -36t38.5 -13z" />
    <glyph glyph-name="seven.numr" horiz-adv-x="344" 
d="M327 624q-13 -10 -34.5 -31t-43.5 -55.5t-40 -83t-24 -113.5h-107q5 69 25.5 122t43.5 89q26 42 59 73h-186v84h307v-85z" />
    <glyph glyph-name="eight.numr" horiz-adv-x="373" 
d="M187 562q22 0 33.5 11.5t11.5 27.5q0 13 -11 24.5t-34 11.5t-34.5 -11.5t-11.5 -24.5q0 -16 11.5 -27.5t34.5 -11.5zM187 412q29 0 42 13t13 30q0 15 -13.5 27.5t-41.5 12.5q-29 0 -42 -12.5t-13 -27.5q0 -17 13 -30t42 -13zM187 333q-75 0 -115.5 30.5t-40.5 79.5
q0 30 20.5 53.5t52.5 33.5q-30 10 -46 33t-16 49q0 45 38 74.5t107 29.5t106.5 -29.5t37.5 -74.5q0 -26 -16 -49t-46 -33q31 -9 52.5 -32.5t21.5 -52.5q0 -50 -40.5 -81t-115.5 -31z" />
    <glyph glyph-name="nine.numr" horiz-adv-x="372" 
d="M173 410q35 0 52 23.5t17 61.5v10q-8 -16 -30.5 -26.5t-48.5 -10.5q-27 0 -52 7t-44 22t-30.5 37t-11.5 52t12 54t33 41t48 26t57 9q36 0 67 -11.5t53.5 -34.5t35.5 -58t13 -82q0 -94 -46 -145.5t-124 -51.5q-26 0 -50.5 7t-45 20t-34.5 32t-17 43l91 11q4 -16 19 -26
t36 -10zM178 537q18 0 35 11.5t17 38.5t-16 39t-36 12t-36 -12.5t-16 -38.5t17 -38t35 -12z" />
    <glyph glyph-name="a.ordn" horiz-adv-x="384" 
d="M242 515l-73 -12q-18 -3 -29.5 -12t-11.5 -28q0 -15 10.5 -27t33.5 -12q13 0 25.5 3.5t22.5 12.5t16 23.5t6 36.5v15zM29 457q0 45 30.5 71t73.5 33l83 12q26 4 26 24q0 17 -13.5 29.5t-42.5 12.5t-45 -16.5t-18 -37.5l-87 19q2 19 12 39.5t29 37t46 27t64 10.5
q41 0 70 -11t47 -29t26 -42t8 -51v-169q0 -19 1.5 -34.5t2.5 -20.5h-90q-1 5 -2 15t-1 25q-14 -21 -38.5 -35.5t-61.5 -14.5q-28 0 -50.5 8.5t-38 23.5t-23.5 34t-8 40z" />
    <glyph glyph-name="b.ordn" horiz-adv-x="442" 
d="M49 362v507h100v-195q11 17 38 30.5t64 13.5q38 0 68 -14t50.5 -38t31.5 -57.5t11 -72.5t-12 -72.5t-34 -58t-52.5 -38t-66.5 -13.5q-35 0 -61 14t-39 34v-40h-98zM310 536q0 45 -24 67.5t-58 22.5q-32 0 -56 -22.5t-24 -67.5t24 -68t56 -23q33 0 57.5 23t24.5 68z" />
    <glyph glyph-name="c.ordn" horiz-adv-x="402" 
d="M213 625q-34 0 -58 -23t-24 -67t24.5 -67t59.5 -23q32 0 50 17t24 37l90 -28q-6 -23 -19.5 -44t-34 -38t-48.5 -27t-62 -10q-39 0 -73 13.5t-59 38t-39.5 58t-14.5 73.5t14 74t39 58.5t58 38t71 13.5q36 0 64 -10t49 -27t34 -38.5t19 -43.5l-92 -29q-6 21 -23 37.5
t-49 16.5z" />
    <glyph glyph-name="d.ordn" horiz-adv-x="442" 
d="M132 536q0 -45 24 -68t57 -23q32 0 56 23t24 68t-24 67.5t-56 22.5q-33 0 -57 -22.5t-24 -67.5zM392 424q0 -26 3 -62h-98q-1 6 -1.5 18t-0.5 20q-11 -20 -36 -33t-59 -13q-37 0 -68 13.5t-54 37.5t-36 57.5t-13 73.5q0 39 12.5 72t35 57.5t53 38.5t67.5 14
q45 0 66.5 -14t28.5 -25v190h100v-445z" />
    <glyph glyph-name="e.ordn" horiz-adv-x="404" 
d="M275 576q-1 23 -17 42.5t-55 19.5q-35 0 -52.5 -20.5t-19.5 -41.5h144zM369 462q-14 -45 -54 -77.5t-106 -32.5q-36 0 -68.5 12.5t-57 36t-39.5 58t-15 78.5q0 42 14.5 75.5t38.5 57t55 36.5t65 13q81 0 126.5 -47t45.5 -132q0 -11 -0.5 -20t-1.5 -11h-243
q2 -31 25.5 -51t56.5 -20q30 0 47 13.5t25 34.5z" />
    <glyph glyph-name="f.ordn" horiz-adv-x="278" 
d="M185 623v-261h-103v261h-56v86h56v33q0 60 34.5 96.5t96.5 36.5q14 0 28 -2t22 -5v-85q-5 2 -13 3t-19 1q-15 0 -30.5 -9.5t-15.5 -35.5v-33h76v-86h-76z" />
    <glyph glyph-name="g.ordn" horiz-adv-x="434" 
d="M119 369q6 -26 26 -43t52 -17q42 0 65 22t23 70v18q-11 -15 -34 -28t-60 -13q-35 0 -64.5 12.5t-51.5 35t-34 53.5t-12 67q0 34 12 65t33.5 54.5t51 37t65.5 13.5q42 0 65 -15t31 -30v38h98v-305q0 -37 -10.5 -70t-33 -58.5t-57 -40.5t-83.5 -15q-37 0 -67 10.5t-52 27.5
t-35.5 39t-17.5 46zM209 467q34 0 55.5 21t21.5 58q0 38 -23 59.5t-54 21.5q-32 0 -54.5 -21.5t-22.5 -59.5q0 -37 21.5 -58t55.5 -21z" />
    <glyph glyph-name="h.ordn" horiz-adv-x="418" 
d="M151 362h-102v507h102v-185q16 18 41.5 26t48.5 8q34 0 58.5 -11t40.5 -29.5t24 -44t8 -53.5v-218h-102v201q0 27 -14.5 44.5t-44.5 17.5q-27 0 -42.5 -16.5t-17.5 -42.5v-204z" />
    <glyph glyph-name="i.ordn" horiz-adv-x="200" 
d="M49 363v346h102v-346h-102zM39 818q0 26 17.5 43.5t42.5 17.5q26 0 44 -17.5t18 -43.5q0 -25 -18 -42.5t-44 -17.5q-25 0 -42.5 17.5t-17.5 42.5z" />
    <glyph glyph-name="j.ordn" horiz-adv-x="200" 
d="M49 709h102v-373q0 -52 -30.5 -84t-82.5 -32q-23 0 -38 3.5t-19 5.5v85q5 -2 14 -3t17 -1q37 0 37 37v362zM39 819q0 25 17.5 43t42.5 18q26 0 44 -18t18 -43q0 -26 -18 -43.5t-44 -17.5q-25 0 -42.5 17.5t-17.5 43.5z" />
    <glyph glyph-name="k.ordn" horiz-adv-x="399" 
d="M257 564l139 -201h-124l-86 125l-35 -37v-88h-102v507h102v-281l110 120h133z" />
    <glyph glyph-name="l.ordn" horiz-adv-x="200" 
d="M49 363v507h102v-507h-102z" />
    <glyph glyph-name="m.ordn" horiz-adv-x="631" 
d="M49 363v346h98v-40q13 24 42 37.5t57 13.5q74 0 104 -56q20 31 46 43.5t61 12.5q24 0 47 -7.5t41 -23.5t29 -41t11 -60v-225h-99v202q0 26 -13.5 43.5t-43.5 17.5q-29 0 -44.5 -18.5t-15.5 -43.5v-201h-101v202q0 26 -14 43.5t-44 17.5q-29 0 -44 -18.5t-15 -43.5v-201
h-102z" />
    <glyph glyph-name="n.ordn" horiz-adv-x="418" 
d="M151 363h-102v346h99v-40q14 26 42.5 38t55.5 12q32 0 56 -11t39.5 -29.5t23 -44t7.5 -53.5v-218h-102v201q0 27 -14.5 44.5t-44.5 17.5q-29 0 -44.5 -18t-15.5 -46v-199z" />
    <glyph glyph-name="o.ordn" horiz-adv-x="425" 
d="M213 446q32 0 56.5 22.5t24.5 68.5q0 45 -24.5 67.5t-56.5 22.5t-56.5 -22.5t-24.5 -67.5q0 -46 24.5 -68.5t56.5 -22.5zM213 720q39 0 72 -13.5t58 -38t39 -58t14 -73.5q0 -41 -14 -74.5t-39 -58t-58 -38t-72 -13.5t-72.5 13.5t-58.5 38t-39 58t-14 74.5q0 40 14 73.5
t39 58t58.5 38t72.5 13.5z" />
    <glyph glyph-name="p.ordn" horiz-adv-x="442" 
d="M49 230v479h98v-37q12 18 39 32t65 14t68 -13.5t50.5 -38t31.5 -57.5t11 -72t-12 -72.5t-34 -58t-52.5 -38t-66.5 -13.5q-35 0 -59.5 10.5t-36.5 26.5v-162h-102zM311 537q0 44 -24 66.5t-56 22.5q-33 0 -57.5 -22.5t-24.5 -66.5q0 -45 24.5 -68t57.5 -23q32 0 56 23
t24 68z" />
    <glyph glyph-name="q.ordn" horiz-adv-x="442" 
d="M293 230v163q-12 -17 -36 -27.5t-57 -10.5q-37 0 -68.5 13.5t-54 38t-35.5 58t-13 72.5t12 72t34.5 57t53 38t68.5 14q46 0 69 -16t29 -28v35h98v-479h-100zM132 537q0 -45 24.5 -68t56.5 -23t56.5 23t24.5 68t-24.5 67t-56.5 22q-33 0 -57 -22t-24 -67z" />
    <glyph glyph-name="r.ordn" horiz-adv-x="283" 
d="M266 609q-6 2 -12 2h-11q-18 0 -34.5 -4t-29.5 -14.5t-20.5 -29t-7.5 -47.5v-153h-102v346h99v-47q12 23 37 37t57 14q12 0 24 -3v-101z" />
    <glyph glyph-name="s.ordn" horiz-adv-x="341" 
d="M115 477q1 -18 14.5 -33t42.5 -15q22 0 32 9t10 22q0 11 -7.5 18.5t-27.5 11.5l-41 9q-54 13 -78 41.5t-24 64.5q0 24 10 44.5t27.5 36.5t41.5 25t53 9q37 0 63 -10.5t42 -26t23.5 -33t9.5 -32.5l-85 -16q-2 16 -14 29.5t-38 13.5q-16 0 -28 -8.5t-12 -22.5q0 -11 8 -18
t21 -10l47 -10q54 -11 80 -40t26 -67q0 -22 -8.5 -42.5t-25.5 -37t-43 -26.5t-61 -10q-40 0 -67.5 11.5t-44 28t-24.5 35t-9 33.5z" />
    <glyph glyph-name="t.ordn" horiz-adv-x="282" 
d="M181 709h68v-89h-68v-135q0 -22 10.5 -29.5t28.5 -7.5q8 0 16 0.5t13 1.5v-84q-3 -2 -17.5 -5.5t-37.5 -3.5q-54 0 -84 29.5t-30 80.5v153h-62v89h18q27 0 40.5 16.5t13.5 39.5v47h91v-103z" />
    <glyph glyph-name="u.ordn" horiz-adv-x="419" 
d="M275 363q-1 5 -2 15.5t-1 20.5q-14 -23 -40.5 -33.5t-53.5 -10.5q-32 0 -56.5 10.5t-41 29t-25.5 43t-9 52.5v219h102v-197q0 -27 14.5 -45.5t43.5 -18.5t45 17.5t16 45.5v198h102v-284q0 -31 3 -62h-97z" />
    <glyph glyph-name="v.ordn" horiz-adv-x="381" 
d="M244 363h-102l-142 346h111l82 -220l77 220h107z" />
    <glyph glyph-name="w.ordn" horiz-adv-x="604" 
d="M359 709l70 -210l59 210h101l-108 -346h-101l-78 228l-76 -228h-103l-109 346h107l59 -210l71 210h108z" />
    <glyph glyph-name="x.ordn" horiz-adv-x="385" 
d="M132 536l-122 173h121l63 -95l64 95h114l-119 -169l123 -177h-119l-67 100l-66 -100h-113z" />
    <glyph glyph-name="y.ordn" horiz-adv-x="388" 
d="M66 229l79 179l-146 301h114l88 -191l79 191h108l-215 -480h-107z" />
    <glyph glyph-name="z.ordn" horiz-adv-x="358" 
d="M34 363v90l156 169h-152v87h283v-84l-162 -174h165v-88h-290z" />
    <glyph glyph-name="numbersign.tf" 
d="M369 429h-106l-34 -158h106zM314 175h-106l-37 -175h-106l37 175h-86v96h107l34 158h-91v96h111l39 184h106l-39 -184h106l39 184h107l-40 -184h81v-96h-101l-34 -158h84v-96h-105l-37 -175h-106z" />
    <glyph glyph-name="dollar.tf" 
d="M255 -116v119q-54 7 -94 29t-67 51.5t-41.5 64t-17.5 67.5l121 31q3 -25 13 -48.5t28.5 -41.5t46 -28.5t63.5 -10.5q54 0 82.5 24t28.5 60q0 32 -22 52.5t-61 28.5l-97 19q-83 17 -130.5 68.5t-47.5 126.5q0 41 15 76.5t41.5 63t62 45.5t76.5 25v119h103v-121
q44 -8 76.5 -26t54.5 -42t34.5 -51.5t17.5 -54.5l-119 -35q-3 15 -10.5 32t-22 31t-37 23.5t-55.5 9.5q-48 0 -77 -25.5t-29 -59.5q0 -29 18.5 -49.5t56.5 -28.5l95 -18q94 -18 143 -72.5t49 -127.5q0 -36 -13 -69.5t-37.5 -61.5t-61 -48t-83.5 -27v-120h-103z" />
    <glyph glyph-name="percent.tf" 
d="M535 469l-482 -327v96l482 329v-98zM119 578q0 -26 15.5 -41.5t38.5 -15.5t38.5 16t15.5 41q0 26 -15.5 41.5t-38.5 15.5t-38.5 -15.5t-15.5 -41.5zM31 578q0 29 11.5 54.5t31 44t45 29.5t54.5 11q28 0 54 -11t45 -29.5t30.5 -44t11.5 -54.5q0 -30 -11.5 -55t-31 -43.5
t-45 -29t-54.5 -10.5t-54.5 10.5t-45 29.5t-30.5 44t-11 54zM370 131q0 -26 15.5 -41.5t38.5 -15.5t38.5 16t15.5 41q0 26 -15.5 41.5t-38.5 15.5t-38.5 -15.5t-15.5 -41.5zM282 131q0 29 11.5 54.5t31 44t45 29.5t54.5 11q28 0 54 -11t45 -29.5t30.5 -44t11.5 -54.5
q0 -30 -11.5 -55t-31 -43.5t-45 -29t-54.5 -10.5t-54.5 10.5t-45 29.5t-30.5 44t-11 54z" />
    <glyph glyph-name="plus.tf" 
d="M353 403h189v-109h-189v-195h-113v195h-189v109h189v195h113v-195z" />
    <glyph glyph-name="zero.tf" 
d="M22 355q0 69 11.5 135t43.5 118q33 52 86.5 83.5t132.5 31.5q80 0 133 -31.5t86 -83.5q32 -52 44 -118t12 -135t-11.5 -135.5t-44.5 -118.5q-32 -52 -85.5 -83.5t-133.5 -31.5t-133 31.5t-86 83.5q-32 52 -43.5 118.5t-11.5 135.5zM432 355q0 52 -6 97.5t-21.5 79.5
t-42 53t-66.5 19q-41 0 -67 -19t-41 -53t-21 -79.5t-6 -97.5q0 -53 6 -98.5t21.5 -79t41.5 -53t66 -19.5t66.5 19.5t42 53t21.5 79t6 98.5z" />
    <glyph glyph-name="one.tf" 
d="M245 117v377h-150v93q72 1 115 36t53 86h119v-592h156v-117h-460v117h167z" />
    <glyph glyph-name="two.tf" 
d="M56 451q-2 8 -3 20t-1 24q0 46 17.5 87.5t50 73t79 50t104.5 18.5q57 0 103 -18t78.5 -48.5t50 -71.5t17.5 -86q0 -70 -38 -125.5t-99 -94.5l-133 -85q-25 -16 -43 -34t-26 -41h343v-120h-510q1 93 40 165t130 131l112 72q45 29 65.5 60t20.5 69q0 21 -7.5 40t-21.5 33.5
t-35.5 23t-48.5 8.5q-56 0 -85.5 -33.5t-29.5 -86.5q0 -8 1 -19t3 -22z" />
    <glyph glyph-name="three.tf" 
d="M164 215q5 -47 39 -79t96 -32q54 0 86 28.5t32 70.5q0 46 -30.5 72.5t-87.5 26.5h-74v120h71q58 0 85 25.5t27 63.5t-29 65t-84 27q-27 0 -49 -8.5t-38 -23t-24.5 -33t-9.5 -37.5l-126 24q1 39 19.5 75t51 63.5t78 44t100.5 16.5q60 0 106.5 -16t77.5 -43t47 -63.5
t16 -77.5q0 -59 -33 -100t-85 -57q27 -7 50.5 -22.5t41.5 -38t28 -50.5t10 -60q0 -42 -17.5 -80.5t-50.5 -67.5t-80.5 -46t-108.5 -17q-62 0 -109 17t-80 45.5t-52 65.5t-23 77z" />
    <glyph glyph-name="four.tf" 
d="M28 296l280 413h167v-436h89v-120h-89v-153h-137v153h-310v143zM338 562l-194 -289h194v289z" />
    <glyph glyph-name="five.tf" 
d="M161 225q2 -25 12 -46.5t26.5 -38t39.5 -26t52 -9.5q53 0 89 33t36 90q0 31 -10 55t-27 40.5t-40 24.5t-48 8q-38 0 -67.5 -15.5t-45.5 -38.5q-3 1 -21.5 7.5t-40 14t-40 14t-21.5 7.5l74 364h391v-119h-296l-35 -171q24 24 60.5 35.5t72.5 11.5q53 0 95.5 -16
t72.5 -46.5t46.5 -74.5t16.5 -99q0 -49 -18 -93t-51.5 -77.5t-82.5 -53.5t-110 -20q-56 0 -101.5 17.5t-79 46.5t-53.5 67t-23 80z" />
    <glyph glyph-name="six.tf" 
d="M315 605q-39 0 -67 -17.5t-47 -48.5t-28 -72.5t-9 -90.5q8 16 22.5 31t35.5 27t48 19t60 7q47 0 89 -16t73 -45.5t49 -72t18 -94.5q0 -56 -19.5 -101.5t-54 -77.5t-80.5 -50t-99 -18q-57 0 -108 22t-89.5 67t-60.5 112.5t-22 159.5q0 95 22.5 166t61.5 118t92 70.5
t113 23.5q55 0 98.5 -15.5t74.5 -41.5t49 -61t24 -74l-133 -17q-2 17 -10 33.5t-22 29t-34 20t-47 7.5zM184 225q0 -56 34.5 -90t86.5 -34q51 0 83.5 33t32.5 91q0 59 -33.5 91t-81.5 32q-25 0 -47 -8.5t-38.5 -24.5t-26.5 -39t-10 -51z" />
    <glyph glyph-name="seven.tf" 
d="M559 585q-31 -29 -74 -78t-84.5 -121t-75 -168t-44.5 -218h-143q8 92 29 169.5t49 141t59 113t58.5 84.5t48 55.5l26.5 26.5h-372v119h523v-124z" />
    <glyph glyph-name="eight.tf" 
d="M297 311q-64 0 -95 -32t-31 -74q0 -20 8 -39t24 -34t39.5 -24t54.5 -9t54.5 9t39 24t23.5 34t8 39q0 21 -7.5 40t-23 34t-39 23.5t-55.5 8.5zM297 -14q-59 0 -107.5 15t-82.5 42t-52.5 64.5t-18.5 82.5q0 59 35 106.5t93 67.5q-27 9 -48 26t-36 38.5t-22.5 46t-7.5 48.5
q0 43 18 80t50.5 63.5t78 41.5t100.5 15t100.5 -15t78 -41.5t50.5 -63.5t18 -80q0 -24 -7.5 -48.5t-22.5 -46t-36.5 -38.5t-49.5 -26q59 -20 94.5 -67t35.5 -107q0 -45 -18.5 -82.5t-52.5 -64.5t-82.5 -42t-107.5 -15zM297 413q54 2 81.5 30t27.5 70q0 38 -27.5 66.5
t-81.5 28.5t-82.5 -28.5t-28.5 -66.5q0 -42 28.5 -70t82.5 -30z" />
    <glyph glyph-name="nine.tf" 
d="M287 104q69 0 102.5 54.5t33.5 160.5v14q-8 -16 -21.5 -31.5t-33 -27.5t-45.5 -19.5t-59 -7.5q-48 0 -89.5 16.5t-73 47t-49.5 73.5t-18 96q0 54 19 99t53 77t80.5 50t101.5 18q60 0 110.5 -22t86.5 -67t56.5 -113.5t20.5 -162.5q0 -184 -72 -279t-206 -95
q-52 0 -95 14.5t-75 40t-51.5 59.5t-23.5 73l132 22q2 -17 10.5 -33t23 -29t35.5 -20.5t47 -7.5zM401 484q0 56 -32 89t-83 33q-28 0 -49.5 -10.5t-36 -27.5t-22 -40t-7.5 -48q0 -54 31.5 -86.5t80.5 -32.5q25 0 46.5 8.5t37.5 24.5t25 38.5t9 51.5z" />
    <glyph glyph-name="less.tf" 
d="M495 207v-125l-430 216v101l430 218v-124l-295 -142z" />
    <glyph glyph-name="equal.tf" 
d="M54 396v107h485v-107h-485zM54 197v107h485v-107h-485z" />
    <glyph glyph-name="greater.tf" 
d="M395 348l-296 144v125l430 -218v-100l-430 -217v123z" />
    <glyph glyph-name="cent.tf" 
d="M546 260q-7 -28 -22 -54.5t-38 -48.5t-53 -38t-67 -23v-96h-103v97q-45 8 -83 30t-66 55t-43.5 76.5t-15.5 93.5q0 51 15.5 94.5t43.5 77t66 55.5t83 30v100h103v-101q37 -7 66.5 -22.5t51.5 -37.5t37 -48.5t22 -54.5l-119 -38q-4 16 -12.5 31t-22 26.5t-32.5 18.5t-44 7
q-54 0 -90 -36t-36 -102q0 -65 37 -101t91 -36q49 0 77 26t37 56z" />
    <glyph glyph-name="sterling.tf" 
d="M572 201q0 -45 -13.5 -82t-38.5 -63.5t-60 -41t-80 -14.5h-339v106q47 19 76.5 59t29.5 93q0 13 -1 23.5t-4 21.5h-96v101h65q-9 25 -16 53.5t-7 64.5q0 40 15 76t44 64t70 44.5t94 16.5q57 0 97 -17.5t65 -45.5t37 -62.5t13 -67.5l-117 -20q-1 44 -24 73t-70 29
q-38 0 -66.5 -25t-28.5 -73q0 -32 8.5 -58t17.5 -52h192v-101h-164q1 -8 1.5 -15.5t0.5 -18.5q0 -45 -17 -87t-52 -66h158q43 0 68 26t26 69z" />
    <glyph glyph-name="currency.tf" 
d="M402 168q-47 -26 -104 -26q-29 0 -56 7t-50 20l-73 -74l-81 80l72 73q-14 22 -21.5 49.5t-7.5 56.5q0 30 7.5 57.5t21.5 50.5l-72 74l81 79l74 -75q23 13 49.5 20t55.5 7q27 0 53.5 -6.5t48.5 -19.5l73 74l81 -79l-70 -73q14 -22 22 -50t8 -59q0 -30 -8 -58t-22 -51
l70 -70l-80 -80zM193 354q0 -46 29.5 -75t75.5 -29q45 0 74.5 29t29.5 75t-29.5 75t-74.5 29q-46 0 -75.5 -29t-29.5 -75z" />
    <glyph glyph-name="yen.tf" 
d="M366 135v-135h-130v135h-192v95h192v67h-192v94h140l-168 318h144l143 -283l144 283h141l-171 -318h112v-94h-163v-67h163v-95h-163z" />
    <glyph glyph-name="logicalnot.tf" 
d="M415 190v195h-375v111h490v-306h-115z" />
    <glyph glyph-name="plusminus.tf" 
d="M352 367v-122h-113v122h-177v108h177v123h113v-123h178v-108h-178zM62 98v109h468v-109h-468z" />
    <glyph glyph-name="multiply.tf" 
d="M297 429l165 168l79 -79l-166 -168l166 -168l-79 -81l-166 168l-165 -167l-79 80l165 168l-164 168l79 79z" />
    <glyph glyph-name="divide.tf" 
d="M215 166q0 16 6 30t16.5 24.5t25 16.5t30.5 6t30.5 -6t25 -16.5t17 -24.5t6.5 -30t-6.5 -30t-17 -24.5t-25 -17t-30.5 -6.5t-30.5 6.5t-25 17t-16.5 24.5t-6 30zM215 533q0 16 6 30t16.5 24.5t25 16.5t30.5 6t30.5 -6t25 -16.5t17 -24.5t6.5 -30q0 -32 -23.5 -55.5
t-55.5 -23.5t-55 23.5t-23 55.5zM51 294v110h490v-110h-490z" />
    <glyph glyph-name="perthousand.tf" 
d="M538 546l-489 -349v96l489 352v-99zM27 596q0 26 10 48.5t27 39t39.5 26t47.5 9.5t48 -9.5t40 -26t27 -39t10 -48.5t-10 -48t-27 -38.5t-40 -26t-48 -9.5q-26 0 -48.5 9.5t-39.5 26t-26.5 38.5t-9.5 48zM103 596q0 -23 14 -37t34 -14q21 0 34.5 14t13.5 37q0 22 -13.5 36
t-34.5 14q-20 0 -34 -14t-14 -36zM213 113q0 -23 14 -37t34 -14q21 0 34.5 14t13.5 37q0 22 -13.5 36t-34.5 14q-20 0 -34 -14t-14 -36zM388 113q0 -23 14 -37t35 -14q20 0 33.5 14t13.5 37q0 22 -13.5 36t-33.5 14q-21 0 -35 -13.5t-14 -36.5zM137 113q0 26 10 48.5t27 39
t39.5 26t47.5 9.5q26 0 48.5 -10t39.5 -27q17 17 39.5 27t48.5 10q25 0 47.5 -9.5t39.5 -26t27 -39t10 -48.5t-10 -48t-27 -38.5t-39.5 -26t-47.5 -9.5q-54 0 -88 36q-36 -36 -88 -36q-26 0 -48.5 9.5t-39 26t-26.5 38.5t-10 48z" />
    <glyph glyph-name="Euro.tf" 
d="M565 10q-25 -11 -55.5 -18t-70.5 -7q-60 0 -111 17t-92 48t-70 74.5t-45 96.5h-90v100h73q-1 7 -1 13.5v13.5v18.5t1 16.5h-73v99h92q17 55 48 99.5t73.5 76t95 48.5t112.5 17q38 0 65.5 -6.5t50.5 -15.5l-35 -114q-14 6 -35 11t-48 5q-65 0 -112 -31.5t-72 -89.5h229
l-30 -99h-223q-1 -8 -1.5 -15.5t-0.5 -15.5v-15.5t1 -15.5h206l-30 -100h-153q23 -54 68.5 -83.5t115.5 -29.5q49 0 86 14z" />
    <glyph glyph-name="minus.tf" 
d="M59 295v109h476v-109h-476z" />
    <glyph glyph-name="approxequal.tf" 
d="M563 256q-28 -48 -70 -73.5t-93 -25.5q-27 0 -53 7t-54 23l-48 26q-28 14 -55 14q-23 0 -45.5 -12t-39.5 -35l-73 59q28 48 69.5 74t90.5 26q55 0 110 -29l47 -26q30 -16 57 -16q25 0 47 11.5t39 36.5zM563 458q-28 -49 -70 -74.5t-92 -26.5q-53 0 -108 31l-48 26
q-14 8 -27.5 11t-26.5 3q-24 0 -46.5 -12t-39.5 -35l-73 59q29 49 70.5 75t91.5 26q52 0 108 -30l47 -25q28 -16 57 -16q24 0 46.5 11t39.5 35z" />
    <glyph glyph-name="notequal.tf" 
d="M263 196l-63 -97h-121l64 97h-90v108h160l60 91h-220v107h289l60 92h120l-60 -92h76v-107h-145l-60 -91h205v-108h-275z" />
    <glyph glyph-name="lessequal.tf" 
d="M77 370v109l430 135v-110l-280 -78l280 -78v-113zM77 98v109h430v-109h-430z" />
    <glyph glyph-name="greaterequal.tf" 
d="M86 346l279 77l-279 80v111l430 -135v-109l-430 -135v111zM86 98v109h430v-109h-430z" />
    <glyph glyph-name="one.ss05" horiz-adv-x="506" 
d="M52 576q71 6 114 43t53 90h120v-590h148v-119h-437v119h152v363h-150v94z" />
    <glyph glyph-name="ampersand.ss10" horiz-adv-x="700" 
d="M447 76q-40 -41 -86.5 -65.5t-103.5 -24.5q-52 0 -92 16.5t-67.5 43t-41.5 60.5t-14 70q0 33 8.5 59.5t24 49.5t38 43.5t50.5 41.5l5 3l-11 12q-13 13 -26.5 30t-25 36.5t-19 41.5t-7.5 46q0 45 17 79.5t45 58t63 35.5t71 12q42 0 78.5 -13t62.5 -36.5t41 -56.5t15 -73
q0 -27 -8.5 -50.5t-22.5 -43.5t-32 -37t-37 -31l-27 -20l107 -113l179 187v-166l-99 -104l160 -167h-172zM259 102q32 0 57 16t51 43l-121 128l-15 -11q-26 -19 -41.5 -40.5t-15.5 -53.5q0 -31 23 -56.5t62 -25.5zM205 543q0 -23 14 -43t28 -34l19 -21l35 26q25 18 35 36.5
t10 38.5q0 29 -20 48.5t-52 19.5q-25 0 -47 -17.5t-22 -53.5z" />
    <glyph glyph-name="caron.alt" horiz-adv-x="213" 
d="M115 511h-89l29 198h132z" />
    <glyph glyph-name="commaturn" horiz-adv-x="186" 
d="M171 605q0 -28 -20.5 -46t-52.5 -18q-35 0 -58 24t-23 62q0 36 13.5 60t34.5 39t46 21.5t47 6.5v-48q-37 0 -58 -14t-23 -32q1 1 9 4t19 3q32 0 49 -18t17 -44z" />
    <glyph glyph-name="dieresis.narrow" horiz-adv-x="332" 
d="M15 629q0 28 19.5 47.5t48.5 19.5q28 0 47.5 -19.5t19.5 -47.5q0 -29 -19.5 -48.5t-47.5 -19.5q-29 0 -48.5 19.5t-19.5 48.5zM183 629q0 28 19 47.5t47 19.5q29 0 48.5 -19.5t19.5 -47.5q0 -29 -19.5 -48.5t-48.5 -19.5q-28 0 -47 19.5t-19 48.5z" />
    <glyph glyph-name="dieresis.uc.narrow" horiz-adv-x="353" 
d="M16 823q0 29 19.5 49t48.5 20t49.5 -20t20.5 -49t-20.5 -49t-49.5 -20t-48.5 20t-19.5 49zM200 823q0 29 19.5 49t48.5 20t49 -20t20 -49t-20 -49t-49 -20t-48.5 20t-19.5 49z" />
    <glyph glyph-name="grave.uc" horiz-adv-x="292" 
d="M10 886h163l104 -127h-122z" />
    <glyph glyph-name="dieresis.uc" horiz-adv-x="444" 
d="M21 823q0 30 20 51t51 21t52 -21t21 -51q0 -31 -21 -51.5t-52 -20.5t-51 20.5t-20 51.5zM279 823q0 30 20.5 51t51.5 21t52 -21t21 -51q0 -31 -21 -51.5t-52 -20.5t-51.5 20.5t-20.5 51.5z" />
    <glyph glyph-name="macron.uc" horiz-adv-x="337" 
d="M16 774v100h305v-100h-305z" />
    <glyph glyph-name="acute.uc" horiz-adv-x="292" 
d="M137 759h-122l103 127h164z" />
    <glyph glyph-name="circumflex.uc" horiz-adv-x="411" 
d="M19 759l120 127h136l122 -127h-125l-67 65l-65 -65h-121z" />
    <glyph glyph-name="caron.uc" horiz-adv-x="411" 
d="M143 886l66 -64l67 64h121l-122 -127h-136l-120 127h124z" />
    <glyph glyph-name="breve.uc" horiz-adv-x="368" 
d="M184 753q-41 0 -71 12t-50.5 31t-30.5 43.5t-11 48.5h102q1 -20 15.5 -35.5t45.5 -15.5t45.5 15.5t15.5 35.5h102q-1 -24 -11 -48.5t-30.5 -43.5t-50.5 -31t-71 -12z" />
    <glyph glyph-name="dotaccent.uc" horiz-adv-x="193" 
d="M16 833q0 34 23.5 57t56.5 23q34 0 57.5 -23t23.5 -57q0 -33 -23.5 -56t-57.5 -23q-33 0 -56.5 23t-23.5 56z" />
    <glyph glyph-name="ring.uc" horiz-adv-x="294" 
d="M278 870q0 -28 -10.5 -51t-28.5 -40t-42 -26.5t-50 -9.5t-49.5 9.5t-41.5 26.5t-29 40t-11 51t11 51t29 40t41.5 26.5t49.5 9.5t50 -9.5t42 -26.5t28.5 -40t10.5 -51zM194 870q0 22 -13.5 34.5t-33.5 12.5t-34 -12.5t-14 -34.5t14 -35t34 -13t33.5 13t13.5 35z" />
    <glyph glyph-name="tilde.uc" horiz-adv-x="372" 
d="M356 862q0 -55 -29.5 -82.5t-71.5 -27.5q-23 0 -41.5 7t-33.5 17l-6 4q-14 8 -25.5 14t-22.5 6q-29 0 -29 -43h-80v27q0 55 30 82t71 27q23 0 41.5 -7t34.5 -16l6 -4q14 -7 25 -13t22 -6q12 0 20.5 7t8.5 24v12h80v-28z" />
    <glyph glyph-name="hungarumlaut.uc" horiz-adv-x="383" 
d="M102 759h-86l53 127h127zM259 759h-88l67 127h129z" />
    <glyph glyph-name="caron.alt.uc" horiz-adv-x="212" 
d="M120 501h-94l31 208h138z" />
    <glyph glyph-name="undercommaaccent" horiz-adv-x="187" 
d="M16 -102q0 27 20.5 45.5t52.5 18.5q34 0 57.5 -24t23.5 -63t-13.5 -63.5t-34.5 -38.5t-46 -19.5t-47 -5.5v48q36 0 57 13.5t24 33.5q-3 -2 -10.5 -4.5t-18.5 -2.5q-31 0 -48 17.5t-17 44.5z" />
    </font>
</defs>
</svg>
