<svg xmlns="http://www.w3.org/2000/svg" viewBox="0 0 384 512"><!--! Font Awesome Pro 7.0.0 by @fontawesome - https://fontawesome.com License - https://fontawesome.com/license (Commercial License) Copyright 2025 Fonticons, Inc. --><path fill="currentColor" d="M352 168l0 184c0 70.7-57.3 128-128 128L88 480c-4.4 0-8-3.6-8-8s3.6-8 8-8l136 0c61.9 0 112-50.1 112-112l0-119.9C313.1 274.9 267.9 304 216 304l-64 0C76.9 304 16 243.1 16 168S76.9 32 152 32l64 0c71.6 0 130.2 55.3 135.6 125.5 .3 .8 .4 1.6 .4 2.5l0 8zm-16 0c0-66.3-53.7-120-120-120l-64 0C85.7 48 32 101.7 32 168S85.7 288 152 288l64 0c66.3 0 120-53.7 120-120z"/></svg>