<svg xmlns="http://www.w3.org/2000/svg" viewBox="0 0 384 512"><!--! Font Awesome Pro 7.1.0 by @fontawesome - https://fontawesome.com License - https://fontawesome.com/license (Commercial License) Copyright 2025 Fonticons, Inc. --><path fill="currentColor" d="M272 144c26.5 0 48 21.5 48 48l0 240 56 0c4.4 0 8 3.6 8 8s-3.6 8-8 8l-56 0 0 16-.2 4.9C317.3 493.1 296.9 512 272 512l-160 0-4.9-.2C82.9 509.3 64 488.9 64 464l0-16-56 0c-4.4 0-8-3.6-8-8s3.6-8 8-8l56 0 0-240c0-26.5 21.5-48 48-48l160 0zM80 464c0 17.7 14.3 32 32 32l160 0c17.7 0 32-14.3 32-32l0-16-224 0 0 16zm32-304c-17.7 0-32 14.3-32 32l0 240 224 0 0-240c0-17.7-14.3-32-32-32l-160 0zM240 384a16 16 0 1 1 0-32 16 16 0 1 1 0 32zm0-64a16 16 0 1 1 0-32 16 16 0 1 1 0 32zm0-64a16 16 0 1 1 0-32 16 16 0 1 1 0 32zM328 0c4.4 0 8 3.6 8 8s-3.6 8-8 8l-40 0 0 80-16 0 0-80-160 0 0 80-16 0 0-80-40 0c-4.4 0-8-3.6-8-8s3.6-8 8-8L328 0z"/></svg>