<svg xmlns="http://www.w3.org/2000/svg" viewBox="0 0 576 512"><!--! Font Awesome Pro 7.0.0 by @fontawesome - https://fontawesome.com License - https://fontawesome.com/license (Commercial License) Copyright 2025 Fonticons, Inc. --><path fill="currentColor" d="M64 80c-26.5 0-48 21.5-48 48l0 96c0 26.5 21.5 48 48 48l448 0c26.5 0 48-21.5 48-48l0-96c0-26.5-21.5-48-48-48L64 80zM0 128C0 92.7 28.7 64 64 64l448 0c35.3 0 64 28.7 64 64l0 96c0 35.3-28.7 64-64 64L64 288c-35.3 0-64-28.7-64-64l0-96zm104 64l368 0c4.4 0 8 3.6 8 8s-3.6 8-8 8l-368 0c-4.4 0-8-3.6-8-8s3.6-8 8-8zM336 488c0 22.1 17.9 40 40 40s40-17.9 40-40l0-8c0-4.4 3.6-8 8-8s8 3.6 8 8l0 8c0 30.9-25.1 56-56 56s-56-25.1-56-56l0-152 16 0 0 152zM240 336l16 0 0 152c0 30.9-25.1 56-56 56s-56-25.1-56-56l0-8c0-4.4 3.6-8 8-8s8 3.6 8 8l0 8c0 22.1 17.9 40 40 40s40-17.9 40-40l0-152z"/></svg>