<svg xmlns="http://www.w3.org/2000/svg" viewBox="0 0 448 512"><!--! Font Awesome Pro 7.0.0 by @fontawesome - https://fontawesome.com License - https://fontawesome.com/license (Commercial License) Copyright 2025 Fonticons, Inc. --><path fill="currentColor" d="M224 16c-114.9 0-208 93.1-208 208 0 61.9 34.2 120.2 76.1 168 41.7 47.5 89.1 82.6 111.6 98 5.7 3.9 12.7 6 20.3 6s14.6-2.1 20.3-6c22.4-15.4 69.9-50.5 111.6-98 42-47.8 76.2-106.1 76.2-168 0-114.9-93.1-208-208-208zM0 224C0 100.3 100.3 0 224 0S448 100.3 448 224c0 135.3-148.8 247.7-194.7 279.2-8.6 5.9-18.9 8.8-29.3 8.8s-20.7-2.9-29.3-8.8C148.8 471.7 0 359.3 0 224zm368 0l-32 0c-44.2 0-80 35.8-80 80l32 0c44.2 0 80-35.8 80-80zm-32-16l32 0c8.8 0 16 7.2 16 16 0 53-43 96-96 96l-32 0c-8.8 0-16-7.2-16-16 0-53 43-96 96-96zM112 224l-32 0c0 44.2 35.8 80 80 80l32 0c0-44.2-35.8-80-80-80zm96 80c0 8.8-7.2 16-16 16l-32 0c-53 0-96-43-96-96 0-8.8 7.2-16 16-16l32 0c53 0 96 43 96 96z"/></svg>