<svg xmlns="http://www.w3.org/2000/svg" viewBox="0 0 512 512"><!--! Font Awesome Pro 7.0.0 by @fontawesome - https://fontawesome.com License - https://fontawesome.com/license (Commercial License) Copyright 2025 Fonticons, Inc. --><path fill="currentColor" d="M184 16l144 0c39.8 0 72 32.2 72 72l0 8-288 0 0-8c0-39.8 32.2-72 72-72zM96 88l0 8-32 0C28.7 96 0 124.7 0 160L0 416c0 35.3 28.7 64 64 64l384 0c35.3 0 64-28.7 64-64l0-256c0-35.3-28.7-64-64-64l-32 0 0-8c0-48.6-39.4-88-88-88L184 0C135.4 0 96 39.4 96 88zM64 112l384 0c26.5 0 48 21.5 48 48l0 256c0 26.5-21.5 48-48 48L64 464c-26.5 0-48-21.5-48-48l0-256c0-26.5 21.5-48 48-48zm48 80a16 16 0 1 1 -32 0 16 16 0 1 1 32 0zM96 160a32 32 0 1 0 0 64 32 32 0 1 0 0-64zm96 48a16 16 0 1 1 0-32 16 16 0 1 1 0 32zm-32-16a32 32 0 1 0 64 0 32 32 0 1 0 -64 0zm176 0a16 16 0 1 1 -32 0 16 16 0 1 1 32 0zm-16-32a32 32 0 1 0 0 64 32 32 0 1 0 0-64zm96 48a16 16 0 1 1 0-32 16 16 0 1 1 0 32zm-32-16a32 32 0 1 0 64 0 32 32 0 1 0 -64 0zM96 272l320 0c8.8 0 16 7.2 16 16l0 96c0 8.8-7.2 16-16 16L96 400c-8.8 0-16-7.2-16-16l0-96c0-8.8 7.2-16 16-16zM64 288l0 96c0 17.7 14.3 32 32 32l320 0c17.7 0 32-14.3 32-32l0-96c0-17.7-14.3-32-32-32L96 256c-17.7 0-32 14.3-32 32z"/></svg>