<svg xmlns="http://www.w3.org/2000/svg" viewBox="0 0 576 512"><!--! Font Awesome Pro 7.0.0 by @fontawesome - https://fontawesome.com License - https://fontawesome.com/license (Commercial License) Copyright 2025 Fonticons, Inc. --><path fill="currentColor" d="M536 32c4.4 0 8 3.6 8 8s-3.6 8-8 8l-47.3 0c-6.3 0-12.1 3.1-15.6 8.2l-1.3 2.3-18.8 37.5 13.7 0 5.6 .2C530 99.1 576 146.8 576 205.3 576 237.7 549.7 264 517.3 264L444 264c-17.6 0-34-5.4-47.5-14.7 2.2 7.2 3.5 14.8 3.5 22.7 0 7.1-1.1 14-2.9 20.5l7.3 4.9 77.8 51.8c13.3 8.9 23.3 21.9 28.4 37.1l25 75.2c1.4 4.2-.9 8.7-5.1 10.1-4.2 1.4-8.7-.9-10.1-5.1l-25.1-75.2c-3.9-11.8-11.7-22-22.1-28.9l-77.8-51.8-4.5-3c-4.5 8.5-10.6 16-17.9 22.2L408 364.6c10 10 16.9 22.9 19.7 36.8l12.2 61 .2 1.6c0 3.7-2.6 7.1-6.4 7.8-3.8 .8-7.5-1.3-8.9-4.7l-.5-1.6-12.2-61c-2.2-10.8-7.5-20.8-15.3-28.6l-36.9-36.9c-10.7 5.7-22.8 8.9-35.8 8.9-3.4 0-6.7-.3-10-.7l-1.1 2.1-65.8 118.5-.9 1.3c-2.4 2.8-6.6 3.7-10 1.8s-4.8-5.9-3.7-9.4l.6-1.5 64.8-116.8c-18.5-6.8-33.7-20.6-42.2-38.2l-90.4 162.8-.9 1.3c-2.4 2.8-6.6 3.7-9.9 1.8s-4.9-5.9-3.8-9.4l.6-1.5 78.9-142c-20.3 20.3-48 33-78.7 33.8l-2.2 4-62.2 112-.9 1.3c-2.4 2.8-6.6 3.6-9.9 1.8s-4.9-5.9-3.8-9.4l.6-1.5 60.1-108.1-55.7 0C34.6 352 0 317.3 0 274.6 0 193.7 65.5 128 146.4 128l13.6 0 5.3 .1c52.9 2.7 95.3 44.9 98.4 97.6 13.9-18 35.7-29.7 60.2-29.7 15.1 0 29 4.5 40.8 12-3.1-8.8-4.8-18.2-4.8-28 0-43.3 32.7-78.9 74.8-83.5l22.6-45.2 2.5-4.2c6.5-9.4 17.2-15.1 28.7-15.1L536 32zM146.4 144C74.4 144 16 202.6 16 274.6 16 308.5 43.5 336 77.3 336l70.9 0c55.1 0 99.8-44.7 99.8-99.8l0-4.2c0-45.6-34.6-83-79-87.5l-9-.5-13.6 0zM324 212c-33.1 0-60 26.9-60 60l.3 6.1c3.1 30.3 28.6 53.9 59.7 53.9 33.1 0 60-26.9 60-60s-26.9-60-60-60zM444 112c-37.6 0-68 30.4-68 68s30.4 68 68 68l73.3 0c23.5 0 42.6-19.1 42.7-42.7 0-49.9-39.2-90.7-88.5-93.2l-4.8-.1-22.7 0zm20 80a16 16 0 1 1 0-32 16 16 0 1 1 0 32z"/></svg>