<svg xmlns="http://www.w3.org/2000/svg" viewBox="0 0 512 512"><!--! Font Awesome Pro 7.0.0 by @fontawesome - https://fontawesome.com License - https://fontawesome.com/license (Commercial License) Copyright 2025 Fonticons, Inc. --><path fill="currentColor" d="M8 32c-4.4 0-8 3.6-8 8s3.6 8 8 8l24 0 0 416-24 0c-4.4 0-8 3.6-8 8s3.6 8 8 8l160 0c4.4 0 8-3.6 8-8l0-120c0-44.2 35.8-80 80-80s80 35.8 80 80l0 120c0 4.4 3.6 8 8 8l160 0c4.4 0 8-3.6 8-8s-3.6-8-8-8l-24 0 0-416 24 0c4.4 0 8-3.6 8-8s-3.6-8-8-8L8 32zM464 48l0 80-416 0 0-80 416 0zm0 96l0 320-112 0 0-112c0-53-43-96-96-96s-96 43-96 96l0 112-112 0 0-320 416 0z"/></svg>