<svg xmlns="http://www.w3.org/2000/svg" viewBox="0 0 512 512"><!--! Font Awesome Pro 7.0.0 by @fontawesome - https://fontawesome.com License - https://fontawesome.com/license (Commercial License) Copyright 2025 Fonticons, Inc. --><path fill="currentColor" d="M373.7 525.7l136-136c3.1-3.1 3.1-8.2 0-11.3l-136-136c-3.1-3.1-8.2-3.1-11.3 0s-3.1 8.2 0 11.3L484.7 376 180 376C89.4 376 16 302.6 16 212S89.4 48 180 48l260 0c4.3-.4 8-3.3 8-8s-3.7-7.6-8-8L180 32C80.6 32 0 112.6 0 212S80.6 392 180 392l304.7 0-122.3 122.3c-3.1 3.1-3.1 8.2 0 11.3s8.2 3.1 11.3 0z"/></svg>