<svg xmlns="http://www.w3.org/2000/svg" viewBox="0 0 512 512"><!--! Font Awesome Pro 7.0.0 by @fontawesome - https://fontawesome.com License - https://fontawesome.com/license (Commercial License) Copyright 2025 Fonticons, Inc. --><path fill="currentColor" d="M16 256c0 132.5 107.5 240 240 240 4.4 0 8 3.6 8 8s-3.6 8-8 8C114.6 512 0 397.4 0 256S114.6 0 256 0c4.4 0 8 3.6 8 8s-3.6 8-8 8C123.5 16 16 123.5 16 256zM282.3 381.7l-120-120c-3.1-3.1-3.1-8.2 0-11.3l120-120c3.1-3.1 8.2-3.1 11.3 0s3.1 8.2 0 11.3L187.3 248 504 248c4.4 0 8 3.6 8 8s-3.6 8-8 8l-316.7 0 106.3 106.3c3.1 3.1 3.1 8.2 0 11.3s-8.2 3.1-11.3 0z"/></svg>