<svg xmlns="http://www.w3.org/2000/svg" viewBox="0 0 384 512"><!--! Font Awesome Pro 7.0.0 by @fontawesome - https://fontawesome.com License - https://fontawesome.com/license (Commercial License) Copyright 2025 Fonticons, Inc. --><path fill="currentColor" d="M197.7 189.7l88-88c3.1-3.1 3.1-8.2 0-11.3s-8.2-3.1-11.3 0L200 164.7 200-24c0-4.4-3.6-8-8-8s-8 3.6-8 8l0 188.7-74.3-74.3c-3.1-3.1-8.2-3.1-11.3 0s-3.1 8.2 0 11.3l88 88c3.1 3.1 8.2 3.1 11.3 0zm0 132.7c-3.1-3.1-8.2-3.1-11.3 0l-88 88c-3.1 3.1-3.1 8.2 0 11.3s8.2 3.1 11.3 0L184 347.3 184 536c0 4.4 3.6 8 8 8s8-3.6 8-8l0-188.7 74.3 74.3c3.1 3.1 8.2 3.1 11.3 0s3.1-8.2 0-11.3l-88-88zM16 240a16 16 0 1 0 0 32 16 16 0 1 0 0-32zm72 16a16 16 0 1 0 32 0 16 16 0 1 0 -32 0zm104-16a16 16 0 1 0 0 32 16 16 0 1 0 0-32zm72 16a16 16 0 1 0 32 0 16 16 0 1 0 -32 0zm104-16a16 16 0 1 0 0 32 16 16 0 1 0 0-32z"/></svg>