<svg xmlns="http://www.w3.org/2000/svg" viewBox="0 0 512 512"><!--! Font Awesome Pro 7.0.0 by @fontawesome - https://fontawesome.com License - https://fontawesome.com/license (Commercial License) Copyright 2025 Fonticons, Inc. --><path fill="currentColor" d="M101.7 157.7l72-72c3.1-3.1 3.1-8.2 0-11.3s-8.2-3.1-11.3 0L104 132.7 104-24c0-4.4-3.6-8-8-8s-8 3.6-8 8l0 156.7-58.3-58.3c-3.1-3.1-8.2-3.1-11.3 0s-3.1 8.2 0 11.3l72 72c3.1 3.1 8.2 3.1 11.3 0zm320 0l72-72c3.1-3.1 3.1-8.2 0-11.3s-8.2-3.1-11.3 0L424 132.7 424-24c0-4.4-3.6-8-8-8s-8 3.6-8 8l0 156.7-58.3-58.3c-3.1-3.1-8.2-3.1-11.3 0s-3.1 8.2 0 11.3l72 72c3.1 3.1 8.2 3.1 11.3 0zM208 256a48 48 0 1 1 96 0 48 48 0 1 1 -96 0zm112 0a64 64 0 1 0 -128 0 64 64 0 1 0 128 0zM256 360c-66.3 0-120 53.7-120 120l0 16c0 4.4 3.6 8 8 8s8-3.6 8-8l0-16c0-57.4 46.6-104 104-104s104 46.6 104 104l0 16c0 4.4 3.6 8 8 8s8-3.6 8-8l0-16c0-66.3-53.7-120-120-120zM96 240a40 40 0 1 1 0 80 40 40 0 1 1 0-80zm0 96a56 56 0 1 0 0-112 56 56 0 1 0 0 112zm320-96a40 40 0 1 1 0 80 40 40 0 1 1 0-80zm0 96a56 56 0 1 0 0-112 56 56 0 1 0 0 112zM96 392c-48.6 0-88 39.4-88 88l0 16c0 4.4 3.6 8 8 8s8-3.6 8-8l0-16c0-39.5 31.9-71.6 71.4-72 2.4-5.4 5.1-10.6 8-15.7-2.4-.2-4.9-.3-7.4-.3zm320.6 16c39.5 .3 71.4 32.4 71.4 72l0 16c0 4.4 3.6 8 8 8s8-3.6 8-8l0-16c0-48.6-39.4-88-88-88-2.5 0-4.9 .1-7.4 .3 2.9 5.1 5.6 10.3 8 15.7z"/></svg>