<svg xmlns="http://www.w3.org/2000/svg" viewBox="0 0 448 512"><!--! Font Awesome Pro 7.0.0 by @fontawesome - https://fontawesome.com License - https://fontawesome.com/license (Commercial License) Copyright 2025 Fonticons, Inc. --><path fill="currentColor" d="M338.3-5.7c3.1-3.1 8.2-3.1 11.3 0l96 96c3.1 3.1 3.1 8.2 0 11.3l-96 96c-3.1 3.1-8.2 3.1-11.3 0s-3.1-8.2 0-11.3L420.7 104 128 104C66.1 104 16 154.1 16 216l0 32c0 4.4-3.6 8-8 8s-8-3.6-8-8l0-32C0 145.3 57.3 88 128 88l292.7 0-82.3-82.3c-3.1-3.1-3.1-8.2 0-11.3zm-88 264c3.1-3.1 8.2-3.1 11.3 0l88 88c3.1 3.1 3.1 8.2 0 11.3l-88 88c-3.1 3.1-8.2 3.1-11.3 0s-3.1-8.2 0-11.3L324.7 360 96 360c-44.2 0-80 35.8-80 80l0 32c0 4.4-3.6 8-8 8s-8-3.6-8-8l0-32c0-53 43-96 96-96l228.7 0-74.3-74.3c-3.1-3.1-3.1-8.2 0-11.3z"/></svg>