<svg xmlns="http://www.w3.org/2000/svg" viewBox="0 0 512 512"><!--! Font Awesome Pro 7.0.0 by @fontawesome - https://fontawesome.com License - https://fontawesome.com/license (Commercial License) Copyright 2025 Fonticons, Inc. --><path fill="currentColor" d="M509.7 122.3l-120-120c-3.1-3.1-8.2-3.1-11.3 0s-3.1 8.2 0 11.3L484.7 120 8 120c-4.4 0-8 3.6-8 8s3.6 8 8 8l476.7 0-106.3 106.3c-3.1 3.1-3.1 8.2 0 11.3s8.2 3.1 11.3 0l120-120c3.1-3.1 3.1-8.2 0-11.3zM2.3 378.3c-3.1 3.1-3.1 8.2 0 11.3l120 120c3.1 3.1 8.2 3.1 11.3 0s3.1-8.2 0-11.3L27.3 392 504 392c4.4 0 8-3.6 8-8s-3.6-8-8-8L27.3 376 133.7 269.7c3.1-3.1 3.1-8.2 0-11.3s-8.2-3.1-11.3 0l-120 120z"/></svg>