<svg xmlns="http://www.w3.org/2000/svg" viewBox="0 0 448 512"><!--! Font Awesome Pro 7.0.0 by @fontawesome - https://fontawesome.com License - https://fontawesome.com/license (Commercial License) Copyright 2025 Fonticons, Inc. --><path fill="currentColor" d="M250.3 18.3c3.1-3.1 8.2-3.1 11.3 0s3.1 8.2 0 11.3L203.3 88 352 88c53 0 96 43 96 96l0 32c0 4.4-3.6 8-8 8s-8-3.6-8-8l0-32c0-44.2-35.8-80-80-80l-148.7 0 58.3 58.3c3.1 3.1 3.1 8.2 0 11.3s-8.2 3.1-11.3 0l-72-72c-3.1-3.1-3.1-8.2 0-11.3l72-72zm-52.7 272l72 72c3.1 3.1 3.1 8.2 0 11.3l-72 72c-3.1 3.1-8.2 3.1-11.3 0s-3.1-8.2 0-11.3L244.7 376 96 376c-44.2 0-80 35.8-80 80l0 32c0 4.4-3.6 8-8 8s-8-3.6-8-8l0-32c0-53 43-96 96-96l148.7 0-58.3-58.3c-3.1-3.1-3.1-8.2 0-11.3s8.2-3.1 11.3 0zM384 416a48 48 0 1 0 0-96 48 48 0 1 0 0 96zm0-112a64 64 0 1 1 0 128 64 64 0 1 1 0-128zM16 96a48 48 0 1 0 96 0 48 48 0 1 0 -96 0zm112 0A64 64 0 1 1 0 96 64 64 0 1 1 128 96z"/></svg>