<svg xmlns="http://www.w3.org/2000/svg" viewBox="0 0 384 512"><!--! Font Awesome Pro 7.0.0 by @fontawesome - https://fontawesome.com License - https://fontawesome.com/license (Commercial License) Copyright 2025 Fonticons, Inc. --><path fill="currentColor" d="M376 496c4.4 0 8 3.6 8 8s-3.6 8-8 8l-96 0c-53 0-96-43-96-96L184 27.3 45.7 165.7c-3.1 3.1-8.2 3.1-11.3 0s-3.1-8.2 0-11.3l152-152c3.1-3.1 8.2-3.1 11.3 0l152 152c3.1 3.1 3.1 8.2 0 11.3s-8.2 3.1-11.3 0L200 27.3 200 416c0 44.2 35.8 80 80 80l96 0z"/></svg>