<svg xmlns="http://www.w3.org/2000/svg" viewBox="0 0 512 512"><!--! Font Awesome Pro 7.0.0 by @fontawesome - https://fontawesome.com License - https://fontawesome.com/license (Commercial License) Copyright 2025 Fonticons, Inc. --><path fill="currentColor" d="M416.1 77.9L375 119c-6.9 6.9-8.9 17.2-5.2 26.2S382.3 160 392 160l96 0c13.3 0 24-10.7 24-24l0-96c0-9.7-5.8-18.5-14.8-22.2S477.9 16.2 471 23L427.4 66.6c-.1-.1-.2-.2-.3-.3l-5.5-5.5c-.2-.2-.3-.3-.5-.4-58.7-49.7-134.6-68.7-206.4-57.1-4.4 .7-7.3 4.8-6.6 9.2s4.8 7.3 9.2 6.6C284.6 8.2 355.6 26 410.6 72.4l5.3 5.3c.1 .1 .2 .2 .3 .3zM488 144l-96 0c-3.2 0-6.2-1.9-7.4-4.9s-.6-6.4 1.7-8.7l96-96c2.3-2.3 5.7-3 8.7-1.7S496 36.8 496 40l0 96c0 4.4-3.6 8-8 8zM77.9 95.9L119 137c6.9 6.9 17.2 8.9 26.2 5.2S160 129.7 160 120l0-96c0-13.3-10.7-24-24-24L40 0C30.3 0 21.5 5.8 17.8 14.8S16.2 34.1 23 41L66.6 84.6c-.1 .1-.2 .2-.3 .3l-5.5 5.5c-.2 .2-.3 .3-.4 .5-49.7 58.7-68.7 134.6-57.1 206.4 .7 4.4 4.8 7.3 9.2 6.6s7.3-4.8 6.6-9.2C8.2 227.4 26 156.4 72.4 101.4l5.3-5.3c.1-.1 .2-.2 .3-.3zM144 24l0 96c0 3.2-1.9 6.2-4.9 7.4s-6.4 .6-8.7-1.7l-96-96c-2.3-2.3-3-5.7-1.7-8.7S36.8 16 40 16l96 0c4.4 0 8 3.6 8 8zM95.9 434.1L137 393c6.9-6.9 8.9-17.2 5.2-26.2S129.7 352 120 352l-96 0c-13.3 0-24 10.7-24 24l0 96c0 9.7 5.8 18.5 14.8 22.2S34.1 495.8 41 489l43.6-43.6c.1 .1 .2 .2 .3 .3l5.5 5.5c.2 .2 .3 .3 .5 .5 58.8 49.8 134.7 68.8 206.6 57 4.4-.7 7.3-4.8 6.6-9.2s-4.8-7.3-9.2-6.6c-67.3 11-138.3-6.8-193.4-53.2l-5.3-5.3c-.1-.1-.2-.2-.3-.3zM24 368l96 0c3.2 0 6.2 1.9 7.4 4.9s.6 6.4-1.7 8.7l-96 96c-2.3 2.3-5.7 3-8.7 1.7S16 475.2 16 472l0-96c0-4.4 3.6-8 8-8zm410.1 48.1L393 375c-6.9-6.9-17.2-8.9-26.2-5.2S352 382.3 352 392l0 96c0 13.3 10.7 24 24 24l96 0c9.7 0 18.5-5.8 22.2-14.8s1.7-19.3-5.2-26.2l-43.6-43.6c.1-.1 .2-.2 .3-.3l5.5-5.5c.2-.2 .3-.3 .4-.5 49.8-58.8 68.8-134.7 57-206.6-.7-4.4-4.8-7.3-9.2-6.6s-7.3 4.8-6.6 9.2c11 67.3-6.8 138.3-53.2 193.4l-5.3 5.3c-.1 .1-.2 .2-.3 .3zM368 488l0-96c0-3.2 1.9-6.2 4.9-7.4s6.4-.6 8.7 1.7l96 96c2.3 2.3 3 5.7 1.7 8.7s-4.2 4.9-7.4 4.9l-96 0c-4.4 0-8-3.6-8-8z"/></svg>