<svg xmlns="http://www.w3.org/2000/svg" viewBox="0 0 576 512"><!--! Font Awesome Pro 7.0.0 by @fontawesome - https://fontawesome.com License - https://fontawesome.com/license (Commercial License) Copyright 2025 Fonticons, Inc. --><path fill="currentColor" d="M16 152c0-4.4 3.6-8 8-8l76.7 0-98.3-98.3c-3.1-3.1-3.1-8.2 0-11.3s8.2-3.1 11.3 0L112 132.7 112 56c0-4.4 3.6-8 8-8s8 3.6 8 8l0 96c0 4.4-3.6 8-8 8l-96 0c-4.4 0-8-3.6-8-8zm158.5 42.8c-15.2 17.6-28.6 37.3-37.9 58-.9 2.1-.9 4.4 0 6.5 9.3 20.7 22.7 40.4 37.9 58 24.9 28.8 62.9 58.8 113.5 58.8s88.6-30 113.5-58.8c15.2-17.6 28.6-37.3 37.9-58 .9-2.1 .9-4.4 0-6.5-9.3-20.7-22.7-40.4-37.9-58-24.9-28.8-62.9-58.8-113.5-58.8s-88.6 30-113.5 58.8zm239-10.5c16 18.5 30.3 39.5 40.4 62 2.7 6.2 2.7 13.3 0 19.5-10 22.4-24.4 43.5-40.4 62-26.2 30.3-68.2 64.3-125.6 64.3s-99.4-34-125.6-64.3c-16-18.5-30.3-39.5-40.4-62-2.7-6.2-2.7-13.3 0-19.5 10-22.4 24.4-43.5 40.4-62 26.2-30.3 68.2-64.3 125.6-64.3s99.4 34 125.6 64.3zM24 352l96 0c4.4 0 8 3.6 8 8l0 96c0 4.4-3.6 8-8 8s-8-3.6-8-8l0-76.7-98.3 98.3c-3.1 3.1-8.2 3.1-11.3 0s-3.1-8.2 0-11.3L100.7 368 24 368c-4.4 0-8-3.6-8-8s3.6-8 8-8zm528 0c4.4 0 8 3.6 8 8s-3.6 8-8 8l-76.7 0 98.3 98.3c3.1 3.1 3.1 8.2 0 11.3s-8.2 3.1-11.3 0L464 379.3 464 456c0 4.4-3.6 8-8 8s-8-3.6-8-8l0-96c0-4.4 3.6-8 8-8l96 0zm8-200c0 4.4-3.6 8-8 8l-96 0c-4.4 0-8-3.6-8-8l0-96c0-4.4 3.6-8 8-8s8 3.6 8 8l0 76.7 98.3-98.3c3.1-3.1 8.2-3.1 11.3 0s3.1 8.2 0 11.3L475.3 144 552 144c4.4 0 8 3.6 8 8zM336 256a48 48 0 1 0 -96 0 48 48 0 1 0 96 0zm-112 0a64 64 0 1 1 128 0 64 64 0 1 1 -128 0z"/></svg>