<svg xmlns="http://www.w3.org/2000/svg" viewBox="0 0 384 512"><!--! Font Awesome Pro 7.0.0 by @fontawesome - https://fontawesome.com License - https://fontawesome.com/license (Commercial License) Copyright 2025 Fonticons, Inc. --><path fill="currentColor" d="M376 512c4.4 0 8-3.6 8-8s-3.6-8-8-8L8 496c-4.4 0-8 3.6-8 8s3.6 8 8 8l368 0zM186.4 381.7c3.1 3.1 8.2 3.1 11.3 0l152-152c3.1-3.1 3.1-8.2 0-11.3s-8.2-3.1-11.3 0L200 356.7 200 8c0-4.4-3.6-8-8-8s-8 3.6-8 8l0 348.7-138.3-138.3c-3.1-3.1-8.2-3.1-11.3 0s-3.1 8.2 0 11.3l152 152z"/></svg>