<svg xmlns="http://www.w3.org/2000/svg" viewBox="0 0 576 512"><!--! Font Awesome Pro 7.0.0 by @fontawesome - https://fontawesome.com License - https://fontawesome.com/license (Commercial License) Copyright 2025 Fonticons, Inc. --><path fill="currentColor" d="M18.8 373.7l136 136c3.1 3.1 8.2 3.1 11.3 0l136-136c3.1-3.1 3.1-8.2 0-11.3s-8.2-3.1-11.3 0l-122.3 122.3 0-304.7c0-90.6 73.4-164 164-164s164 73.4 164 164l0 260c.4 4.3 3.3 8 8 8s7.6-3.7 8-8l0-260c0-99.4-80.6-180-180-180s-180 80.6-180 180l0 304.7-122.3-122.3c-3.1-3.1-8.2-3.1-11.3 0s-3.1 8.2 0 11.3z"/></svg>