<svg xmlns="http://www.w3.org/2000/svg" viewBox="0 0 512 512"><!--! Font Awesome Pro 7.0.0 by @fontawesome - https://fontawesome.com License - https://fontawesome.com/license (Commercial License) Copyright 2025 Fonticons, Inc. --><path fill="currentColor" d="M304 192l-16 0 0-160c0-17.7-14.3-32-32-32L232 0C139.2 0 64 75.2 64 168l0 104c0 53 43 96 96 96l192 0c53 0 96-43 96-96l0-128 56 0c4.4 0 8-3.6 8-8s-3.6-8-8-8l-64 0c-4.4 0-8 3.6-8 8l0 56-128 0zm128 16l0 64c0 44.2-35.8 80-80 80l-192 0c-44.2 0-80-35.8-80-80l0-64 352 0zM272 32l0 160-192 0 0-24C80 84.1 148.1 16 232 16l24 0c8.8 0 16 7.2 16 16zM112 432a32 32 0 1 1 0 64 32 32 0 1 1 0-64zm0 80a48 48 0 1 0 0-96 48 48 0 1 0 0 96zm288-80a32 32 0 1 1 0 64 32 32 0 1 1 0-64zm0 80a48 48 0 1 0 0-96 48 48 0 1 0 0 96z"/></svg>