<svg xmlns="http://www.w3.org/2000/svg" viewBox="0 0 384 512"><!--! Font Awesome Pro 7.0.0 by @fontawesome - https://fontawesome.com License - https://fontawesome.com/license (Commercial License) Copyright 2025 Fonticons, Inc. --><path fill="currentColor" d="M322 473.4L42 289.4 16 272.3 16 472c0 4.4-3.6 8-8 8s-8-3.6-8-8L0 40c0-4.4 3.6-8 8-8s8 3.6 8 8l0 199.7 26-17.1 280-184c12.3-8.1 28-8.8 41-1.8S384 57.3 384 72l0 368c0 14.7-8.1 28.2-21 35.2s-28.7 6.3-41-1.8zM20.3 256l30.5 20.1 280 184c7.4 4.8 16.8 5.3 24.6 1.1S368 448.8 368 440l0-368c0-8.8-4.8-16.9-12.6-21.1s-17.2-3.8-24.6 1.1l-280 184-30.5 20.1z"/></svg>