<svg xmlns="http://www.w3.org/2000/svg" viewBox="0 0 512 512"><!--! Font Awesome Pro 7.0.0 by @fontawesome - https://fontawesome.com License - https://fontawesome.com/license (Commercial License) Copyright 2025 Fonticons, Inc. --><path fill="currentColor" d="M420 431.3L80.7 92c-40.2 42.9-64.7 100.6-64.7 164 0 132.5 107.5 240 240 240 63.4 0 121.1-24.6 164-64.7zM431.3 420c40.2-42.9 64.7-100.6 64.7-164 0-132.5-107.5-240-240-240-63.4 0-121.1 24.6-164 64.7L431.3 420zM0 256a256 256 0 1 1 512 0 256 256 0 1 1 -512 0z"/></svg>