<svg xmlns="http://www.w3.org/2000/svg" viewBox="0 0 576 512"><!--! Font Awesome Pro 7.0.0 by @fontawesome - https://fontawesome.com License - https://fontawesome.com/license (Commercial License) Copyright 2025 Fonticons, Inc. --><path fill="currentColor" d="M350.2 48.2c1.8-.4 3.8-.2 5.5 .8 2.3 1.2 3.8 3.4 4.2 6l14.3 107.3 58.2-38.8c18.9-12.6 44.1-9.6 59.6 7 54 58.1 84 134.5 84 213.8l0 22.2c0 14-14.6 23.4-27.3 17.6l-60.2-27.4c-3.4-1.6-7.5-.5-9.7 2.5L449.5 398c-8.8 11.7-25.8 12.9-36.2 2.6L375.7 363c-3.5-3.5-9.3-3-12.2 1l-56 78.4c-9.6 13.4-29.5 13.4-39.1 0l-56-78.4c-2.9-4-8.7-4.5-12.2-1l-37.6 37.6c-10.3 10.3-27.4 9.1-36.2-2.6L97.3 359.1c-1.7-2.2-4.4-3.4-7.1-3.2l-2.7 .7-60.2 27.4C14.5 389.8 0 380.5 0 366.4l0-22.2c0-79.3 30-155.7 84-213.8 15.5-16.6 40.7-19.6 59.6-7l58.2 38.8 14.3-107.3 .5-1.8c.7-1.8 2-3.2 3.7-4.2 2.3-1.2 5-1.2 7.3-.1l60.4 30.2 60.4-30.2 1.8-.7zm-58.7 47c-1.7 .8-3.6 1-5.4 .6l-1.8-.6-54-27-14.5 108.9c-.4 2.7-2.1 5.1-4.6 6.2s-5.5 .9-7.8-.6l-68.9-45.9c-12.4-8.2-28.9-6.3-39 4.6-51.2 55.2-79.7 127.7-79.7 202.9l0 22.2c0 2.4 2.5 4 4.7 3L81 342 84.9 340.7c9.3-2.4 19.3 1 25.2 8.8l29.2 38.9c2.9 3.9 8.6 4.3 12 .9L189 351.7c10.5-10.5 27.9-9 36.5 3l56 78.4c3.2 4.5 9.8 4.5 13 0l56-78.4c8.6-12.1 26-13.5 36.5-3l37.6 37.6c3.4 3.4 9.1 3 12-.9l29.2-38.9c6.8-9 18.9-12.1 29.2-7.5l60.2 27.4c2.2 1 4.7-.6 4.7-3l0-22.2c0-75.3-28.5-147.8-79.7-202.9-10.1-10.9-26.6-12.8-39-4.6l-68.9 45.9c-2.3 1.5-5.2 1.8-7.8 .6s-4.3-3.5-4.6-6.2l-14.5-108.9-54 27z"/></svg>