<svg xmlns="http://www.w3.org/2000/svg" viewBox="0 0 640 512"><!--! Font Awesome Pro 7.0.0 by @fontawesome - https://fontawesome.com License - https://fontawesome.com/license (Commercial License) Copyright 2025 Fonticons, Inc. --><path fill="currentColor" d="M45.7-29.8c-3.1-3.1-8.2-3.1-11.3 0s-3.1 8.2 0 11.3l560 560c3.1 3.1 8.2 3.1 11.3 0s3.1-8.2 0-11.3l-83-83c39.1-5.2 69.3-38.7 69.3-79.3l0-32 16 0c17.7 0 32-14.3 32-32l0-96c0-17.7-14.3-32-32-32l-16 0 0-32c0-44.2-35.8-80-80-80L139.4 64 45.7-29.8zM155.4 80L512 80c35.3 0 64 28.7 64 64l0 224c0 35.3-28.7 64-64 64l-4.6 0-352-352zM416.8 432L112 432c-35.3 0-64-28.7-64-64l0-224c0-22 11.1-41.3 27.9-52.9L64.5 79.7C44.8 94.2 32 117.6 32 144l0 224c0 44.2 35.8 80 80 80l320.8 0-16-16zM592 192l16 0c8.8 0 16 7.2 16 16l0 96c0 8.8-7.2 16-16 16l-16 0 0-128z"/></svg>