<svg xmlns="http://www.w3.org/2000/svg" viewBox="0 0 576 512"><!--! Font Awesome Pro 7.0.0 by @fontawesome - https://fontawesome.com License - https://fontawesome.com/license (Commercial License) Copyright 2025 Fonticons, Inc. --><path fill="currentColor" d="M272 16a192 192 0 1 1 0 384 192 192 0 1 1 0-384zm0 400a208 208 0 1 0 0-416 208 208 0 1 0 0 416zm0-272a64 64 0 1 1 0 128 64 64 0 1 1 0-128zm0 144a80 80 0 1 0 0-160 80 80 0 1 0 0 160zm213.3 64a26.7 26.7 0 1 1 53.3 0 26.7 26.7 0 1 1 -53.3 0zm66.7 0c0-22.1-17.9-40-40-40s-40 17.9-40 40c0 19.4 13.7 35.5 32 39.2l0 32.8c0 39.8-32.2 72-72 72l-37.7 0c13.3-11.7 21.7-28.9 21.7-48l0-28.3c-5.2 3.5-10.5 6.9-16 10.1l0 18.2c0 26.5-21.5 48-48 48l-160 0c-26.5 0-48-21.5-48-48l0-18.2c-5.5-3.2-10.8-6.5-16-10.1l0 28.3c0 35.3 28.7 64 64 64l240 0c48.6 0 88-39.4 88-88l0-32.8c18.3-3.7 32-19.8 32-39.2z"/></svg>