<svg xmlns="http://www.w3.org/2000/svg" viewBox="0 0 576 512"><!--! Font Awesome Pro 7.0.0 by @fontawesome - https://fontawesome.com License - https://fontawesome.com/license (Commercial License) Copyright 2025 Fonticons, Inc. --><path fill="currentColor" d="M384 32c4.4 0 8 3.6 8 8l0 24 88 0c35.3 0 64 28.7 64 64l0 272 24 0c4.4 0 8 3.6 8 8s-3.6 8-8 8l-272 0 0 88c0 4.4-3.6 8-8 8s-8-3.6-8-8l0-88-272 0c-4.4 0-8-3.6-8-8s3.6-8 8-8l24 0 0-272c0-35.3 28.7-64 64-64l88 0 0-24c0-4.4 3.6-8 8-8s8 3.6 8 8l0 24 176 0 0-24c0-4.4 3.6-8 8-8zM288 400l240 0 0-272c0-26.5-21.5-48-48-48l-88 0 0 64 40 0c4.4 0 8 3.6 8 8s-3.6 8-8 8l-96 0c-4.4 0-8-3.6-8-8s3.6-8 8-8l40 0 0-64-176 0 0 64 40 0c4.4 0 8 3.6 8 8s-3.6 8-8 8l-96 0c-4.4 0-8-3.6-8-8s3.6-8 8-8l40 0 0-64-88 0c-26.5 0-48 21.5-48 48l0 272 240 0z"/></svg>