<svg xmlns="http://www.w3.org/2000/svg" viewBox="0 0 576 512"><!--! Font Awesome Pro 7.0.0 by @fontawesome - https://fontawesome.com License - https://fontawesome.com/license (Commercial License) Copyright 2025 Fonticons, Inc. --><path fill="currentColor" d="M384 8c0-2.5-1.2-4.9-3.2-6.4s-4.7-2-7.1-1.2l-80 24c-4.2 1.3-6.6 5.7-5.4 10s5.7 6.6 10 5.4l69.7-20.9 0 189.2-72 0c-4.4 0-8 3.6-8 8s3.6 8 8 8l59.1 0c23.5-10.3 49.5-16 76.8-16L384 208 384 8zm56 200l-7.9 0c3.3 0 6.6 .1 9.9 .3-.6-.2-1.3-.3-2-.3zM160 296c0-2.5-1.2-4.9-3.2-6.4s-4.7-2-7.1-1.2l-80 24c-4.2 1.3-6.6 5.7-5.4 10s5.7 6.6 10 5.4l69.7-20.9 0 189.2-72 0c-4.4 0-8 3.6-8 8s3.6 8 8 8l144 0c4.4 0 8-3.6 8-8s-3.6-8-8-8l-56 0 0-200zM128 0C92.7 0 64 28.7 64 64l0 96c0 35.3 28.7 64 64 64l48 0c35.3 0 64-28.7 64-64l0-96c0-35.3-28.7-64-64-64L128 0zM80 64c0-26.5 21.5-48 48-48l48 0c26.5 0 48 21.5 48 48l0 96c0 26.5-21.5 48-48 48l-48 0c-26.5 0-48-21.5-48-48l0-96zM432 272a128 128 0 1 1 0 256 128 128 0 1 1 0-256zm0 272a144 144 0 1 0 0-288 144 144 0 1 0 0 288zm60.7-212.5c-3.6-2.6-8.6-1.8-11.2 1.8l-74 101.7-33.4-40.1c-2.8-3.4-7.9-3.9-11.3-1s-3.9 7.9-1 11.3l40 48c1.6 1.9 3.9 3 6.4 2.9s4.8-1.3 6.2-3.3l80-110c2.6-3.6 1.8-8.6-1.8-11.2z"/></svg>