<svg xmlns="http://www.w3.org/2000/svg" viewBox="0 0 512 512"><!--! Font Awesome Pro 7.0.0 by @fontawesome - https://fontawesome.com License - https://fontawesome.com/license (Commercial License) Copyright 2025 Fonticons, Inc. --><path fill="currentColor" d="M224.7 76.3l23.3 9.7 0 413.3-11-4.6C188.3 474.5 136 464 83.2 464L48 464c-17.7 0-32-14.3-32-32L16 80c0-17.7 14.3-32 32-32l35.2 0c48.6 0 96.7 9.6 141.5 28.3zM275 494.8l-11 4.6 0-413.3 23.3-9.7C332.1 57.6 380.2 48 428.8 48L464 48c17.7 0 32 14.3 32 32l0 352c0 17.7-14.3 32-32 32l-35.2 0C376 464 323.7 474.5 275 494.8zM256 72L230.9 61.5C184.1 42 133.9 32 83.2 32L48 32C21.5 32 0 53.5 0 80L0 432c0 26.5 21.5 48 48 48l35.2 0c50.7 0 100.9 10 147.7 29.5l12.8 5.3c7.9 3.3 16.7 3.3 24.6 0l12.8-5.3c46.8-19.5 97-29.5 147.7-29.5l35.2 0c26.5 0 48-21.5 48-48l0-352c0-26.5-21.5-48-48-48l-35.2 0c-50.7 0-100.9 10-147.7 29.5L256 72zM72 144c-4.4 0-8 3.6-8 8s3.6 8 8 8l28.9 0c27.4 0 54.6 5.2 80.1 15.4 4.1 1.6 8.8-.4 10.4-4.5s-.4-8.8-4.5-10.4c-27.4-10.9-56.6-16.6-86.1-16.6L72 144zm339.1 0c-29.5 0-58.7 5.6-86.1 16.6-4.1 1.6-6.1 6.3-4.5 10.4s6.3 6.1 10.4 4.5c25.5-10.2 52.7-15.4 80.1-15.4l28.9 0c4.4 0 8-3.6 8-8s-3.6-8-8-8l-28.9 0zM72 240c-4.4 0-8 3.6-8 8s3.6 8 8 8l28.9 0c27.4 0 54.6 5.2 80.1 15.4 4.1 1.6 8.8-.4 10.4-4.5s-.4-8.8-4.5-10.4c-27.4-10.9-56.6-16.6-86.1-16.6L72 240zm339.1 0c-29.5 0-58.7 5.6-86.1 16.6-4.1 1.6-6.1 6.3-4.5 10.4s6.3 6.1 10.4 4.5c25.5-10.2 52.7-15.4 80.1-15.4l28.9 0c4.4 0 8-3.6 8-8s-3.6-8-8-8l-28.9 0zM72 336c-4.4 0-8 3.6-8 8s3.6 8 8 8l28.9 0c27.4 0 54.6 5.2 80.1 15.4 4.1 1.6 8.8-.4 10.4-4.5s-.4-8.8-4.5-10.4c-27.4-10.9-56.6-16.6-86.1-16.6L72 336zm339.1 0c-29.5 0-58.7 5.6-86.1 16.6-4.1 1.6-6.1 6.3-4.5 10.4s6.3 6.1 10.4 4.5c25.5-10.2 52.7-15.4 80.1-15.4l28.9 0c4.4 0 8-3.6 8-8s-3.6-8-8-8l-28.9 0z"/></svg>