<svg xmlns="http://www.w3.org/2000/svg" viewBox="0 0 448 512"><!--! Font Awesome Pro 7.0.0 by @fontawesome - https://fontawesome.com License - https://fontawesome.com/license (Commercial License) Copyright 2025 Fonticons, Inc. --><path fill="currentColor" d="M392 0c30.9 0 56 25.1 56 56l0 400c0 30.9-25.1 56-56 56L8 512c-4.4 0-8-3.6-8-8s3.6-8 8-8l24 0 0-80.8C13.7 411.5 0 395.4 0 376L0 40C0 17.9 17.9 0 40 0L392 0zM48 416l0 80 344 0c22.1 0 40-17.9 40-40s-17.9-40-40-40L48 416zm344-16c15.7 0 29.8 6.4 40 16.8L432 56c0-22.1-17.9-40-40-40L40 16C26.7 16 16 26.7 16 40l0 336c0 13.3 10.7 24 24 24l352 0zM270 137.9c3.7-8.9 16.3-8.9 20 0l10.7 25.8 27.8 2.2c9.6 .8 13.5 12.8 6.2 19L313.5 203 320 230.2c2.2 9.4-8 16.8-16.2 11.8l-23.8-14.5-23.8 14.5c-8.2 5-18.4-2.4-16.2-11.8l6.5-27.1-21.2-18.1c-7.3-6.3-3.4-18.3 6.2-19l27.8-2.2 10.7-25.8zm10 17.6l-7.8 18.8c-1.2 2.8-3.8 4.7-6.7 4.9l-20.3 1.6 15.5 13.2c2.3 2 3.3 5 2.6 7.9l-4.7 19.8 17.4-10.6c2.6-1.6 5.8-1.6 8.3 0l17.4 10.6-4.7-19.8c-.7-2.9 .3-6 2.6-7.9l15.5-13.2-20.3-1.6c-3-.2-5.6-2.1-6.7-4.9L280 155.5zM120 192c0 57.4 46.6 104 104 104 8.3 0 16.3-1 24-2.8-45.9-10.8-80-52-80-101.2s34.1-90.4 80-101.2c-7.7-1.8-15.7-2.8-24-2.8-57.4 0-104 46.6-104 104zM224 72c23 0 44.6 6.5 62.9 17.8 3.2 2 4.6 5.9 3.4 9.4s-4.7 5.8-8.4 5.3c-3.2-.4-6.5-.5-9.8-.5-48.6 0-88 39.4-88 88s39.4 88 88 88c3.3 0 6.6-.2 9.8-.5 3.7-.4 7.2 1.8 8.4 5.4s-.2 7.4-3.4 9.4c-18.3 11.3-39.8 17.8-62.9 17.8-66.3 0-120-53.7-120-120S157.7 72 224 72z"/></svg>