<svg xmlns="http://www.w3.org/2000/svg" viewBox="0 0 448 512"><!--! Font Awesome Pro 7.0.0 by @fontawesome - https://fontawesome.com License - https://fontawesome.com/license (Commercial License) Copyright 2025 Fonticons, Inc. --><path fill="currentColor" d="M32 432a16 16 0 1 0 0 32 16 16 0 1 0 0-32zM128 48a16 16 0 1 0 0 32 16 16 0 1 0 0-32zm0 384a16 16 0 1 0 0 32 16 16 0 1 0 0-32zm192 32a16 16 0 1 0 0-32 16 16 0 1 0 0 32zm0-416a16 16 0 1 0 0 32 16 16 0 1 0 0-32zM224 464a16 16 0 1 0 0-32 16 16 0 1 0 0 32zm0-416a16 16 0 1 0 0 32 16 16 0 1 0 0-32zM416 464a16 16 0 1 0 0-32 16 16 0 1 0 0 32zm0-384a16 16 0 1 0 0-32 16 16 0 1 0 0 32zM32 48a16 16 0 1 0 0 32 16 16 0 1 0 0-32zM416 272a16 16 0 1 0 0-32 16 16 0 1 0 0 32zM32 240a16 16 0 1 0 0 32 16 16 0 1 0 0-32zM416 368a16 16 0 1 0 0-32 16 16 0 1 0 0 32zM32 336a16 16 0 1 0 0 32 16 16 0 1 0 0-32zM416 176a16 16 0 1 0 0-32 16 16 0 1 0 0 32zM32 144a16 16 0 1 0 0 32 16 16 0 1 0 0-32z"/></svg>