<svg xmlns="http://www.w3.org/2000/svg" viewBox="0 0 320 512"><!--! Font Awesome Pro 7.0.0 by @fontawesome - https://fontawesome.com License - https://fontawesome.com/license (Commercial License) Copyright 2025 Fonticons, Inc. --><path fill="currentColor" d="M136-16c-17.7 0-32 14.3-32 32l0 32 112 0 0-32c0-17.7-14.3-32-32-32l-48 0zM88 51.3L88 16c0-26.5 21.5-48 48-48l48 0c26.5 0 48 21.5 48 48l0 35.3c36.9 10.4 64 44.4 64 84.7 0 21.3-7.6 40.8-20.1 56 12.6 15.2 20.1 34.7 20.1 56 0 19.4-6.3 37.4-17 52 10.7 14.6 17 32.6 17 52s-6.3 37.4-17 52c10.7 14.6 17 32.6 17 52 0 48.6-39.4 88-88 88l-96 0c-48.6 0-88-39.4-88-88 0-19.4 6.3-37.4 17-52-10.7-14.6-17-32.6-17-52s6.3-37.4 17-52c-10.7-14.6-17-32.6-17-52 0-21.3 7.6-40.8 20.1-56-12.6-15.2-20.1-34.7-20.1-56 0-40.3 27.1-74.2 64-84.7zM112 64c-39.8 0-72 32.2-72 72 0 19.6 7.8 37.4 20.6 50.4 3 3.1 3 8.1 0 11.2-12.7 13-20.6 30.8-20.6 50.4 0 17.9 6.5 34.2 17.3 46.8 2.6 3 2.6 7.4 0 10.4-10.8 12.6-17.3 28.9-17.3 46.8s6.5 34.2 17.3 46.8c2.6 3 2.6 7.4 0 10.4-10.8 12.6-17.3 28.9-17.3 46.8 0 39.8 32.2 72 72 72l96 0c39.8 0 72-32.2 72-72 0-17.9-6.5-34.2-17.3-46.8-2.6-3-2.6-7.4 0-10.4 10.8-12.6 17.3-28.9 17.3-46.8s-6.5-34.2-17.3-46.8c-2.6-3-2.6-7.4 0-10.4 10.8-12.6 17.3-28.9 17.3-46.8 0-19.6-7.8-37.4-20.6-50.4-3-3.1-3-8.1 0-11.2 12.7-13 20.6-30.8 20.6-50.4 0-39.8-32.2-72-72-72l-96 0z"/></svg>