<svg xmlns="http://www.w3.org/2000/svg" viewBox="0 0 576 512"><!--! Font Awesome Pro 7.0.0 by @fontawesome - https://fontawesome.com License - https://fontawesome.com/license (Commercial License) Copyright 2025 Fonticons, Inc. --><path fill="currentColor" d="M558.5-23.7c2.7-.7 5.6 .1 7.6 2.1s2.8 4.9 2.1 7.6l-32 128c-.7 2.8-2.9 5-5.6 5.8s-5.7 0-7.8-2.1l-42.4-42.4-319.1 319.2 14.9 59.6c.7 2.7-.1 5.6-2.1 7.6l-64 64c-2 2-5 2.8-7.8 2.1s-4.9-3-5.6-5.8l-14.8-59.4-59.3-14.8c-2.8-.7-5-2.9-5.8-5.6-.8-2.8 0-5.7 2.1-7.8l64-64 1.7-1.3c1.8-1 3.9-1.4 5.9-.8L150 383.1 469.1 64 426.8 21.7c-2-2-2.8-5-2.1-7.8 .8-2.8 3-4.9 5.8-5.6l128-32zM423.3 200.3c52.4 87 42.6 200.9-29.3 277.9l28.1 28.1 1 1.3c2 3.1 1.7 7.3-1 10.1-2.7 2.7-7 3.1-10.1 1l-1.3-1-152.4-152.4 11.3-11.3 113 113C448.4 396.2 458 292.4 411.6 212l11.7-11.7zM40.1 435.7l50.3 12.6 2 .8c1.9 1.1 3.2 2.9 3.8 5l12.6 50.3 50.8-50.8-13.7-55-55-13.7-50.8 50.8zM66.2 150.4c77-71.9 190.9-81.7 277.9-29.3l-11.7 11.7C252 86.5 148.1 96 77.5 161.7l113 113-11.3 11.3-152.4-152.4-1-1.2c-2-3.1-1.7-7.3 1-10.1 2.7-2.7 7-3.1 10.1-1l1.2 1 28.1 28.1zM448.1 20.3l76 76 25.3-101.4-101.4 25.3z"/></svg>