<svg xmlns="http://www.w3.org/2000/svg" viewBox="0 0 448 512"><!--! Font Awesome Pro 7.0.0 by @fontawesome - https://fontawesome.com License - https://fontawesome.com/license (Commercial License) Copyright 2025 Fonticons, Inc. --><path fill="currentColor" d="M400 192c0 5.4-.2 10.7-.7 16l16.1 0c.4-5.3 .7-10.6 .7-16 0-106-86-192-192-192S32 86 32 192c0 5.4 .2 10.7 .7 16l16.1 0c-.5-5.3-.7-10.6-.7-16 0-97.2 78.8-176 176-176S400 94.8 400 192zM8 256c-4.4 0-8 3.6-8 8l0 32c0 66.3 53.7 120 120 120l28.9 0-28.5 85.5c-.8 2.4-.4 5.1 1.1 7.2s3.9 3.3 6.5 3.3l192 0c2.6 0 5-1.2 6.5-3.3s1.9-4.8 1.1-7.2L299.1 416 328 416c66.3 0 120-53.7 120-120l0-32c0-4.4-3.6-8-8-8L8 256zm8 40l0-24 416 0 0 24c0 57.4-46.6 104-104 104l-40 0c-2.6 0-5 1.2-6.5 3.3s-1.9 4.8-1.1 7.2l28.5 85.5-169.8 0 28.5-85.5c.8-2.4 .4-5.1-1.1-7.2s-3.9-3.3-6.5-3.3l-40 0C62.6 400 16 353.4 16 296z"/></svg>