<svg xmlns="http://www.w3.org/2000/svg" viewBox="0 0 192 512"><!--! Font Awesome Pro 7.0.0 by @fontawesome - https://fontawesome.com License - https://fontawesome.com/license (Commercial License) Copyright 2025 Fonticons, Inc. --><path fill="currentColor" d="M32.8 36.4c-2 4-.4 8.8 3.6 10.7 23.1 11.5 58.2 36.1 87.4 71.7 29.2 35.6 52.2 81.9 52.2 137.1s-23 101.5-52.2 137.1c-29.2 35.7-64.3 60.2-87.4 71.7-4 2-5.6 6.8-3.6 10.7s6.8 5.6 10.7 3.6c24.9-12.5 61.8-38.3 92.6-75.9 30.8-37.6 55.8-87.3 55.8-147.3s-25-109.7-55.8-147.3c-30.8-37.5-67.7-63.4-92.6-75.9-4-2-8.8-.4-10.7 3.6z"/></svg>