<svg xmlns="http://www.w3.org/2000/svg" viewBox="0 0 512 512"><!--! Font Awesome Pro 7.0.0 by @fontawesome - https://fontawesome.com License - https://fontawesome.com/license (Commercial License) Copyright 2025 Fonticons, Inc. --><path fill="currentColor" d="M64 240c-26.5 0-48-21.5-48-48 0-46.6 27.2-82.6 71.9-107.8 45-25.4 106.1-38.5 168.1-38.5S379.2 58.8 424.1 84.2c44.7 25.2 71.9 61.2 71.9 107.8 0 26.5-21.5 48-48 48-8.8 0-16 7.2-16 16l0 176c0 17.7-14.3 32-32 32l-288 0c-17.7 0-32-14.3-32-32l0-176c0-8.8-7.2-16-16-16zm384 32l0-16c35.3 0 64-28.7 64-64 0-216.5-512-216.5-512 0 0 35.3 28.7 64 64 64l0 176c0 26.5 21.5 48 48 48l288 0c26.5 0 48-21.5 48-48l0-160z"/></svg>