<svg xmlns="http://www.w3.org/2000/svg" viewBox="0 0 576 512"><!--! Font Awesome Pro 7.0.0 by @fontawesome - https://fontawesome.com License - https://fontawesome.com/license (Commercial License) Copyright 2025 Fonticons, Inc. --><path fill="currentColor" d="M8 32c-4.4 0-8 3.6-8 8s3.6 8 8 8l48 0 0 96-48 0c-4.4 0-8 3.6-8 8L0 256c0 3.3 2.1 6.3 5.2 7.5L17.3 268C45.4 278.6 64 305.4 64 335.4L64 456c0 13.3 10.7 24 24 24l64 0c13.3 0 24-10.7 24-24l0-88c0-44.2 35.8-80 80-80 6.4 0 12.6 .7 18.5 2.2 3.3-4.7 6.8-9.3 10.5-13.7-9.2-2.9-18.9-4.5-29-4.5-53 0-96 43-96 96l0 88c0 4.4-3.6 8-8 8l-64 0c-4.4 0-8-3.6-8-8l0-120.6c0-36.7-22.8-69.5-57.1-82.4l-6.9-2.6 0-90.5 480 0 0 58.9c5.4 1.9 10.8 4.1 16 6.5l0-73.4c0-4.4-3.6-8-8-8l-48 0 0-96 48 0c4.4 0 8-3.6 8-8s-3.6-8-8-8L8 32zM440 48l0 96-112 0 0-96 112 0zM312 48l0 96-112 0 0-96 112 0zM184 48l0 96-112 0 0-96 112 0zM304 400a128 128 0 1 1 256 0 128 128 0 1 1 -256 0zm272 0a144 144 0 1 0 -288 0 144 144 0 1 0 288 0zM432 476a12 12 0 1 0 0-24 12 12 0 1 0 0 24zm0-164c-4.4 0-8 3.6-8 8l0 96c0 4.4 3.6 8 8 8s8-3.6 8-8l0-96c0-4.4-3.6-8-8-8z"/></svg>