<svg xmlns="http://www.w3.org/2000/svg" viewBox="0 0 384 512"><!--! Font Awesome Pro 7.0.0 by @fontawesome - https://fontawesome.com License - https://fontawesome.com/license (Commercial License) Copyright 2025 Fonticons, Inc. --><path fill="currentColor" d="M204 80a12 12 0 1 0 -24 0 12 12 0 1 0 24 0zm-12 96a80 80 0 1 1 0 160 80 80 0 1 1 0-160zm0 176a96 96 0 1 0 0-192 96 96 0 1 0 0 192zM76 140a12 12 0 1 0 -17-17 12 12 0 1 0 17 17zM16 244a12 12 0 1 0 0 24 12 12 0 1 0 0-24zM76 372a12 12 0 1 0 -17 17 12 12 0 1 0 17-17zm128 60c0-6.6-5.4-12-12-12s-12 5.4-12 12 5.4 12 12 12 12-5.4 12-12zm120.9-43.1a12 12 0 1 0 -17-17 12 12 0 1 0 17 17zM368 244a12 12 0 1 0 0 24 12 12 0 1 0 0-24zM324.9 123.1a12 12 0 1 0 -17 17 12 12 0 1 0 17-17z"/></svg>