<svg xmlns="http://www.w3.org/2000/svg" viewBox="0 0 512 512"><!--! Font Awesome Pro 7.0.0 by @fontawesome - https://fontawesome.com License - https://fontawesome.com/license (Commercial License) Copyright 2025 Fonticons, Inc. --><path fill="currentColor" d="M200 64c0-35.3 28.7-64 64-64L448 0c35.3 0 64 28.7 64 64l0 384c0 35.3-28.7 64-64 64l-184 0c-2.7 0-5.4-.2-8-.5l0 .5-192 0c-35.3 0-64-28.7-64-64L0 192c0-35.3 28.7-64 64-64l136 0 0-64zm0 80L64 144c-26.5 0-48 21.5-48 48l0 256c0 26.5 21.5 48 48 48l157.7 0c-13.3-11.7-21.7-28.9-21.7-48l0-304zM264 16c-26.5 0-48 21.5-48 48l0 384c0 26.5 21.5 48 48 48l184 0c26.5 0 48-21.5 48-48l0-384c0-26.5-21.5-48-48-48L264 16zM368 96c0-8.8 7.2-16 16-16l32 0c8.8 0 16 7.2 16 16l0 32c0 8.8-7.2 16-16 16l-32 0c-8.8 0-16-7.2-16-16l0-32zm48 0l-32 0 0 32 32 0 0-32zM288 80l32 0c8.8 0 16 7.2 16 16l0 32c0 8.8-7.2 16-16 16l-32 0c-8.8 0-16-7.2-16-16l0-32c0-8.8 7.2-16 16-16zm0 16l0 32 32 0 0-32-32 0zm80 96c0-8.8 7.2-16 16-16l32 0c8.8 0 16 7.2 16 16l0 32c0 8.8-7.2 16-16 16l-32 0c-8.8 0-16-7.2-16-16l0-32zm48 0l-32 0 0 32 32 0 0-32zM288 176l32 0c8.8 0 16 7.2 16 16l0 32c0 8.8-7.2 16-16 16l-32 0c-8.8 0-16-7.2-16-16l0-32c0-8.8 7.2-16 16-16zm0 16l0 32 32 0 0-32-32 0zM80 224c0-8.8 7.2-16 16-16l32 0c8.8 0 16 7.2 16 16l0 32c0 8.8-7.2 16-16 16l-32 0c-8.8 0-16-7.2-16-16l0-32zm48 0l-32 0 0 32 32 0 0-32zm160 48l32 0c8.8 0 16 7.2 16 16l0 32c0 8.8-7.2 16-16 16l-32 0c-8.8 0-16-7.2-16-16l0-32c0-8.8 7.2-16 16-16zm0 16l0 32 32 0 0-32-32 0zM80 320c0-8.8 7.2-16 16-16l32 0c8.8 0 16 7.2 16 16l0 32c0 8.8-7.2 16-16 16l-32 0c-8.8 0-16-7.2-16-16l0-32zm48 0l-32 0 0 32 32 0 0-32zm256-48l32 0c8.8 0 16 7.2 16 16l0 32c0 8.8-7.2 16-16 16l-32 0c-8.8 0-16-7.2-16-16l0-32c0-8.8 7.2-16 16-16zm0 16l0 32 32 0 0-32-32 0z"/></svg>