<svg xmlns="http://www.w3.org/2000/svg" viewBox="0 0 512 512"><!--! Font Awesome Pro 7.0.0 by @fontawesome - https://fontawesome.com License - https://fontawesome.com/license (Commercial License) Copyright 2025 Fonticons, Inc. --><path fill="currentColor" d="M64 16l256 0c26.5 0 48 21.5 48 48l0 113.8c5.4 .8 10.8 1.8 16 3.1L384 64c0-35.3-28.7-64-64-64L64 0C28.7 0 0 28.7 0 64L0 448c0 35.3 28.7 64 64 64l256 0c3 0 5.9-.2 8.7-.6-20.1-1.8-39.2-7.2-56.6-15.4l-112.2 0 0-96c0-8.8 7.2-16 16-16l4.8 0c-1.3-5.2-2.3-10.6-3.1-16l-1.7 0c-17.7 0-32 14.3-32 32l0 96-80 0c-26.5 0-48-21.5-48-48L16 64c0-26.5 21.5-48 48-48zM96 240l0 24c0 13.3 10.7 24 24 24l24 0c13.3 0 24-10.7 24-24l0-24c0-13.3-10.7-24-24-24l-24 0c-13.3 0-24 10.7-24 24zm24-8l24 0c4.4 0 8 3.6 8 8l0 24c0 4.4-3.6 8-8 8l-24 0c-4.4 0-8-3.6-8-8l0-24c0-4.4 3.6-8 8-8zm0-136c-13.3 0-24 10.7-24 24l0 24c0 13.3 10.7 24 24 24l24 0c13.3 0 24-10.7 24-24l0-24c0-13.3-10.7-24-24-24l-24 0zm-8 24c0-4.4 3.6-8 8-8l24 0c4.4 0 8 3.6 8 8l0 24c0 4.4-3.6 8-8 8l-24 0c-4.4 0-8-3.6-8-8l0-24zm104 0l0 24c0 13.3 10.7 24 24 24l24 0c13.3 0 24-10.7 24-24l0-24c0-13.3-10.7-24-24-24l-24 0c-13.3 0-24 10.7-24 24zm24-8l24 0c4.4 0 8 3.6 8 8l0 24c0 4.4-3.6 8-8 8l-24 0c-4.4 0-8-3.6-8-8l0-24c0-4.4 3.6-8 8-8zM344 240.1a104 104 0 1 1 0 208 104 104 0 1 1 0-208zm0 224c30.3 0 57.9-11.2 79.1-29.7l75.3 75.4c3.1 3.1 8.2 3.1 11.3 0s3.1-8.2 0-11.3l-75.3-75.4c18.5-21.1 29.6-48.7 29.6-79 0-66.3-53.7-120-120-120s-120 53.7-120 120 53.7 120 120 120z"/></svg>