<svg xmlns="http://www.w3.org/2000/svg" viewBox="0 0 512 512"><!--! Font Awesome Pro 7.0.0 by @fontawesome - https://fontawesome.com License - https://fontawesome.com/license (Commercial License) Copyright 2025 Fonticons, Inc. --><path fill="currentColor" d="M256 496c132.5 0 240-107.5 240-240S388.5 16 256 16 16 123.5 16 256C16 265.7 16.6 275.2 17.7 284.6 12.2 287 7.2 290.2 2.8 294.1 1 281.7 0 269 0 256 0 114.6 114.6 0 256 0S512 114.6 512 256 397.4 512 256 512c-13 0-25.7-1-38.1-2.8 3.9-4.4 7.1-9.4 9.5-14.9 9.4 1.1 18.9 1.7 28.6 1.7zm0-72c-1.4 0-2.7 0-4.1 0l5.5-16c83.3-.8 150.6-68.5 150.6-152 0-83.9-68.1-152-152-152-83.5 0-151.2 67.3-152 150.6l-16 5.5c0-1.4 0-2.7 0-4.1 0-92.8 75.2-168 168-168s168 75.2 168 168-75.2 168-168 168zm72-168c0 28.4-16.5 53-40.4 64.7l9.1-26.3c9.5-10 15.3-23.6 15.3-38.4 0-30.9-25.1-56-56-56-14.9 0-28.4 5.8-38.4 15.3l-26.3 9.1c11.7-23.9 36.3-40.4 64.7-40.4 39.8 0 72 32.2 72 72zm-74.3 2.3c2.2 2.2 2.9 5.4 1.9 8.3l-72 208c-1.1 3.3-4.2 5.4-7.7 5.4s-6.5-2.3-7.5-5.6L140.3 383.1 21.7 501.7c-3.1 3.1-8.2 3.1-11.3 0s-3.1-8.2 0-11.3l118.6-118.6-91.3-28.1c-3.3-1-5.6-4-5.6-7.5s2.1-6.6 5.4-7.7l208-72c2.9-1 6.1-.3 8.3 1.9zM65.7 335.6l80.6 24.8c2.5 .8 4.5 2.8 5.3 5.3l24.8 80.6 58.6-169.3-169.3 58.6z"/></svg>