<svg xmlns="http://www.w3.org/2000/svg" viewBox="0 0 640 512"><!--! Font Awesome Pro 7.0.0 by @fontawesome - https://fontawesome.com License - https://fontawesome.com/license (Commercial License) Copyright 2025 Fonticons, Inc. --><path fill="currentColor" d="M216 0c-4.4 0-8 3.6-8 8s3.6 8 8 8l30 0-60.5 272.3C153.2 291.6 128 318.8 128 352l0 56.9c5.2-2.8 10.6-5.3 16-7.4l0-49.5c0-26.5 21.5-48 48-48l256 0c26.5 0 48 21.5 48 48l0 49.4c5.4 2.1 10.8 4.6 16 7.4l0-56.9c0-33.2-25.2-60.4-57.5-63.7L394 16 424 16c4.4 0 8-3.6 8-8s-3.6-8-8-8L216 0zM377.6 16l10.9 48.9-68.5 76.7-68.5-76.7 10.9-48.9 115.2 0zM247.3 84.2l62 69.4-103.1 115.5 41.1-184.9zM320 165.6L429.3 288 210.7 288 320 165.6zM433.8 269.1l-103.1-115.5 62-69.4 41.1 184.9zM397.4 463.4c28.8-20.5 67.6-20.5 96.4 0 19.3 13.8 40.9 25.9 63.8 30.3 23.2 4.4 47.4 .9 71.1-16 3.6-2.6 4.4-7.6 1.9-11.2s-7.6-4.4-11.2-1.9c-19.9 14.2-39.6 17-58.8 13.4-19.6-3.7-39-14.3-57.5-27.6-34.3-24.5-80.6-24.5-115 0-25.4 18.1-47.2 29.6-68.1 29.6s-42.7-11.5-68.1-29.6c-34.3-24.5-80.6-24.5-115 0-23.6 16.8-48.2 29.2-72.9 29-14.2-.1-28.7-4.3-43.4-14.8-3.6-2.6-8.6-1.7-11.2 1.9s-1.7 8.6 1.9 11.2c17.4 12.4 35.1 17.7 52.6 17.8 29.8 .2 57.9-14.6 82.2-32 28.8-20.5 67.6-20.5 96.4 0 25.5 18.2 51 32.6 77.4 32.6s51.9-14.4 77.4-32.6z"/></svg>