<svg xmlns="http://www.w3.org/2000/svg" viewBox="0 0 448 512"><!--! Font Awesome Pro 7.0.0 by @fontawesome - https://fontawesome.com License - https://fontawesome.com/license (Commercial License) Copyright 2025 Fonticons, Inc. --><path fill="currentColor" d="M120 0c4.4 0 8 3.6 8 8l0 56 192 0 0-56c0-4.4 3.6-8 8-8s8 3.6 8 8l0 56 48 0c35.3 0 64 28.7 64 64l0 288c0 35.3-28.7 64-64 64L64 480c-35.3 0-64-28.7-64-64L0 128C0 92.7 28.7 64 64 64l48 0 0-56c0-4.4 3.6-8 8-8zm-8 104l0-24-48 0c-26.5 0-48 21.5-48 48l0 288c0 26.5 21.5 48 48 48l320 0c26.5 0 48-21.5 48-48l0-288c0-26.5-21.5-48-48-48l-48 0 0 24c0 4.4-3.6 8-8 8s-8-3.6-8-8l0-24-192 0 0 24c0 4.4-3.6 8-8 8s-8-3.6-8-8zm112 64c4.4 0 8 3.6 8 8l0 137.3c0 4.4-3.6 8-8 8s-8-3.6-8-8L216 176c0-4.4 3.6-8 8-8zM210.7 368a13.3 13.3 0 1 1 26.7 0 13.3 13.3 0 1 1 -26.7 0z"/></svg>