<svg xmlns="http://www.w3.org/2000/svg" viewBox="0 0 576 512"><!--! Font Awesome Pro 7.0.0 by @fontawesome - https://fontawesome.com License - https://fontawesome.com/license (Commercial License) Copyright 2025 Fonticons, Inc. --><path fill="currentColor" d="M37.7-21.7L96 36.7 154.3-21.7c3.1-3.1 8.2-3.1 11.3 0s3.1 8.2 0 11.3l-64 64c-3.1 3.1-8.2 3.1-11.3 0l-64-64c-3.1-3.1-3.1-8.2 0-11.3s8.2-3.1 11.3 0zM181.5 55.8C190.1 41.1 205.9 32 223 32l130 0c17.1 0 32.9 9.1 41.5 23.8L417.9 96 480 96c35.3 0 64 28.7 64 64l0 256c0 35.3-28.7 64-64 64L96 480c-35.3 0-64-28.7-64-64l0-256c0-35.3 28.7-64 64-64l62.1 0 23.4-40.2zM223 48c-11.4 0-21.9 6-27.6 15.9L169.6 108c-1.4 2.5-4.1 4-6.9 4L96 112c-26.5 0-48 21.5-48 48l0 256c0 26.5 21.5 48 48 48l384 0c26.5 0 48-21.5 48-48l0-256c0-26.5-21.5-48-48-48l-66.7 0c-2.8 0-5.5-1.5-6.9-4L380.7 63.9C374.9 54 364.4 48 353 48L223 48zM176 288a112 112 0 1 1 224 0 112 112 0 1 1 -224 0zm112 96a96 96 0 1 0 0-192 96 96 0 1 0 0 192z"/></svg>