<svg xmlns="http://www.w3.org/2000/svg" viewBox="0 0 512 512"><!--! Font Awesome Pro 7.0.0 by @fontawesome - https://fontawesome.com License - https://fontawesome.com/license (Commercial License) Copyright 2025 Fonticons, Inc. --><path fill="currentColor" d="M149.5 55.8C158.1 41.1 173.9 32 191 32l130 0c17.1 0 32.9 9.1 41.5 23.8L385.9 96 448 96c35.3 0 64 28.7 64 64l0 256c0 35.3-28.7 64-64 64L64 480c-35.3 0-64-28.7-64-64L0 160c0-35.3 28.7-64 64-64l62.1 0 23.4-40.2zM191 48c-11.4 0-21.9 6-27.6 15.9L137.6 108c-1.4 2.5-4.1 4-6.9 4L64 112c-26.5 0-48 21.5-48 48l0 256c0 26.5 21.5 48 48 48l384 0c26.5 0 48-21.5 48-48l0-256c0-26.5-21.5-48-48-48l-66.7 0c-2.8 0-5.5-1.5-6.9-4L348.7 63.9C342.9 54 332.4 48 321 48L191 48zM106.8 289.9c3.4-2.9 8.4-2.5 11.3 .9l33.9 39.6 0-50.4c0-57.4 46.6-104 104-104 11.9 0 23.3 2 33.9 5.6l-11.7 13.2c-7.1-1.8-14.5-2.8-22.2-2.8-48.6 0-88 39.4-88 88l0 50.4 33.9-39.6c2.9-3.4 7.9-3.7 11.3-.9s3.7 7.9 .9 11.3l-48 56c-1.5 1.8-3.7 2.8-6.1 2.8s-4.6-1-6.1-2.8l-48-56c-2.9-3.4-2.5-8.4 .9-11.3zm203.3-12.7c-2.9 3.4-7.9 3.7-11.3 .9s-3.7-7.9-.9-11.3l48-56c1.5-1.8 3.7-2.8 6.1-2.8s4.6 1 6.1 2.8l48 56c2.9 3.4 2.5 8.4-.9 11.3s-8.4 2.5-11.3-.9L360 237.6 360 280c0 57.4-46.6 104-104 104-11.9 0-23.3-2-33.9-5.6l11.7-13.2c7.1 1.8 14.5 2.8 22.2 2.8 48.6 0 88-39.4 88-88l0-42.4-33.9 39.6z"/></svg>