<svg xmlns="http://www.w3.org/2000/svg" viewBox="0 0 512 512"><!--! Font Awesome Pro 7.0.0 by @fontawesome - https://fontawesome.com License - https://fontawesome.com/license (Commercial License) Copyright 2025 Fonticons, Inc. --><path fill="currentColor" d="M0 56l0 96c0 4.4 3.6 8 8 8s8-3.6 8-8l0-96c0-22.1 17.9-40 40-40l96 0c4.4 0 8-3.6 8-8s-3.6-8-8-8L56 0C25.1 0 0 25.1 0 56zM456 0L360 0c-4.4 0-8 3.6-8 8s3.6 8 8 8l96 0c22.1 0 40 17.9 40 40l0 96c0 4.4 3.6 8 8 8s8-3.6 8-8l0-96c0-30.9-25.1-56-56-56zM208 256a48 48 0 1 1 96 0 48 48 0 1 1 -96 0zm112 0a64 64 0 1 0 -128 0 64 64 0 1 0 128 0zM56 512l96 0c4.4 0 8-3.6 8-8s-3.6-8-8-8l-96 0c-22.1 0-40-17.9-40-40l0-96c0-4.4-3.6-8-8-8s-8 3.6-8 8l0 96c0 30.9 25.1 56 56 56zm456-56l0-96c0-4.4-3.6-8-8-8s-8 3.6-8 8l0 96c0 22.1-17.9 40-40 40l-96 0c-4.4 0-8 3.6-8 8s3.6 8 8 8l96 0c30.9 0 56-25.1 56-56zM211.1 96c-10 0-19 6.2-22.5 15.6l-6.2 16.4-38.5 0c-26.5 0-48 21.5-48 48l0 160c0 26.5 21.5 48 48 48l224 0c26.5 0 48-21.5 48-48l0-160c0-26.5-21.5-48-48-48l-38.5 0-6.2-16.4c-3.5-9.4-12.5-15.6-22.5-15.6l-89.8 0zm-7.5 21.2c1.2-3.1 4.2-5.2 7.5-5.2l89.8 0c3.3 0 6.3 2.1 7.5 5.2l8.1 21.6c1.2 3.1 4.2 5.2 7.5 5.2l44 0c17.7 0 32 14.3 32 32l0 160c0 17.7-14.3 32-32 32l-224 0c-17.7 0-32-14.3-32-32l0-160c0-17.7 14.3-32 32-32l44 0c3.3 0 6.3-2.1 7.5-5.2l8.1-21.6z"/></svg>