<svg xmlns="http://www.w3.org/2000/svg" viewBox="0 0 640 512"><!--! Font Awesome Pro 7.0.0 by @fontawesome - https://fontawesome.com License - https://fontawesome.com/license (Commercial License) Copyright 2025 Fonticons, Inc. --><path fill="currentColor" d="M255 32c-17.1 0-32.9 9.1-41.5 23.8L190.1 96 128 96c-35.3 0-64 28.7-64 64l0 256c0 35.3 28.7 64 64 64l193.4 0c-2.4-5.2-4.6-10.6-6.5-16L128 464c-26.5 0-48-21.5-48-48l0-256c0-26.5 21.5-48 48-48l66.7 0c2.8 0 5.5-1.5 6.9-4l25.8-44.2C233.1 54 243.6 48 255 48l130 0c11.4 0 21.9 6 27.6 15.9L438.4 108c1.4 2.5 4.1 4 6.9 4l66.7 0c26.5 0 48 21.5 48 48l0 58.9c5.4 1.9 10.8 4.1 16 6.5l0-65.4c0-35.3-28.7-64-64-64l-62.1 0-23.4-40.2C417.9 41.1 402.1 32 385 32L255 32zm65 144c-61.9 0-112 50.1-112 112 0 56.4 41.7 103.1 96 110.9 0-5.4 .3-10.8 .8-16.1-45.8-7.3-80.8-47-80.8-94.8 0-53 43-96 96-96 33 0 62.1 16.7 79.4 42 4.6-2.7 9.4-5.2 14.2-7.5-20-30.4-54.5-50.5-93.6-50.5zM496 528a128 128 0 1 1 0-256 128 128 0 1 1 0 256zm0-272a144 144 0 1 0 0 288 144 144 0 1 0 0-288zm16 144a16 16 0 1 0 -32 0 16 16 0 1 0 32 0zm-80-16a16 16 0 1 0 0 32 16 16 0 1 0 0-32zm144 16a16 16 0 1 0 -32 0 16 16 0 1 0 32 0z"/></svg>