<svg xmlns="http://www.w3.org/2000/svg" viewBox="0 0 576 512"><!--! Font Awesome Pro 7.0.0 by @fontawesome - https://fontawesome.com License - https://fontawesome.com/license (Commercial License) Copyright 2025 Fonticons, Inc. --><path fill="currentColor" d="M288.3 123.3c32.1-7.9 76-14.3 130.9-14.3s98.8 6.4 130.9 14.3c6.1-24.5 10.3-47 13-66.2 1.5-11.1-4-19.9-12.5-22.8-26-8.8-70.1-18.3-131.4-18.3S313.8 25.5 287.9 34.3c-8.5 2.9-14.1 11.7-12.5 22.8 2.7 19.2 6.9 41.8 13 66.2zm4.1 15.5c8 29.3 18.7 60.9 32.5 92.5 26.8-4 58.3-6.7 94.4-6.7s67.6 2.6 94.4 6.7c13.8-31.6 24.5-63.2 32.5-92.5-30.8-7.6-73.3-13.8-126.9-13.8s-96 6.3-126.9 13.8zM405.2 361.1c7.6 8.6 20.6 8.6 28.2 0 30.4-34.7 54.5-74.4 73.4-114.7-25-3.5-54.2-5.8-87.5-5.8s-62.5 2.3-87.5 5.8c18.9 40.2 43 80 73.4 114.7zm-12 10.5C307.4 273.8 270.4 138.4 259.5 59.2 257 41.7 265.9 24.8 282.7 19.1 310.5 9.7 356.3 0 419.2 0S528 9.7 555.8 19.1c16.8 5.7 25.7 22.5 23.2 40.1-11 79.1-47.9 214.5-133.6 312.4-13.9 15.9-38.3 15.9-52.3 0zM291.5 388.3c-32.1 7.9-76 14.4-130.9 14.4s-98.8-6.4-130.9-14.3c-6.1 24.5-10.3 47-13 66.2-1.5 11.1 4 19.9 12.5 22.8 26 8.8 70.1 18.3 131.4 18.3S266 486.1 292 477.3c8.5-2.9 14.1-11.7 12.5-22.8-2.7-19.2-6.9-41.8-13-66.2zm-4.1-15.5c-8-29.3-18.7-60.9-32.5-92.5-26.8 4-58.3 6.7-94.4 6.7s-67.6-2.6-94.4-6.7c-13.8 31.6-24.5 63.2-32.5 92.5 30.8 7.6 73.3 13.8 126.9 13.8s96-6.3 126.9-13.8zM174.7 150.5c-7.6-8.6-20.6-8.6-28.2 0-30.4 34.7-54.5 74.4-73.4 114.7 25 3.5 54.2 5.8 87.5 5.8s62.5-2.3 87.5-5.8c-18.9-40.2-43-80-73.4-114.7zm12-10.5c85.7 97.9 122.7 233.3 133.6 312.4 2.4 17.6-6.5 34.4-23.2 40.1-27.7 9.4-73.6 19.1-136.5 19.1S51.8 501.8 24.1 492.4c-16.8-5.7-25.7-22.5-23.2-40.1 11-79.1 47.9-214.5 133.6-312.4 13.9-15.9 38.3-15.9 52.3 0z"/></svg>