<svg xmlns="http://www.w3.org/2000/svg" viewBox="0 0 640 512"><!--! Font Awesome Pro 7.0.0 by @fontawesome - https://fontawesome.com License - https://fontawesome.com/license (Commercial License) Copyright 2025 Fonticons, Inc. --><path fill="currentColor" d="M416 48c61.9 0 112 50.1 112 112l0 240-219.3 0c-10.4-36.9-44.4-64-84.7-64s-74.2 27.1-84.7 64L96 400c-26.5 0-48-21.5-48-48L48 96c0-26.5 21.5-48 48-48l320 0zM96 416l40.4 0c-.2 2.6-.4 5.3-.4 8 0 48.6 39.4 88 88 88s88-39.4 88-88c0-2.7-.1-5.4-.4-8L632 416c4.4 0 8-3.6 8-8s-3.6-8-8-8l-88 0 0-240c0-70.7-57.3-128-128-128L96 32C60.7 32 32 60.7 32 96l0 256c0 35.3 28.7 64 64 64zm72-272l48 0c13.3 0 24 10.7 24 24l0 48c0 13.3-10.7 24-24 24l-48 0c-13.3 0-24-10.7-24-24l0-48c0-13.3 10.7-24 24-24zm-40 24l0 48c0 22.1 17.9 40 40 40l48 0c22.1 0 40-17.9 40-40l0-48c0-22.1-17.9-40-40-40l-48 0c-22.1 0-40 17.9-40 40zm280-24c13.3 0 24 10.7 24 24l0 48c0 13.3-10.7 24-24 24l-48 0c-13.3 0-24-10.7-24-24l0-48c0-13.3 10.7-24 24-24l48 0zm-48-16c-22.1 0-40 17.9-40 40l0 48c0 22.1 17.9 40 40 40l48 0c22.1 0 40-17.9 40-40l0-48c0-22.1-17.9-40-40-40l-48 0zM224 352a72 72 0 1 1 0 144 72 72 0 1 1 0-144z"/></svg>