<svg xmlns="http://www.w3.org/2000/svg" viewBox="0 0 512 512"><!--! Font Awesome Pro 7.0.0 by @fontawesome - https://fontawesome.com License - https://fontawesome.com/license (Commercial License) Copyright 2025 Fonticons, Inc. --><path fill="currentColor" d="M88.6 86.5L58.2 208.3c1.9-.2 3.9-.3 5.8-.3l48.7 0c3.8-22.7 23.6-40 47.3-40l32 0c23.8 0 43.5 17.3 47.3 40l33.3 0c3.8-22.7 23.6-40 47.3-40l32 0c23.8 0 43.5 17.3 47.3 40l48.7 0c2 0 3.9 .1 5.8 .3L423.4 86.5c-8-32.1-36.8-54.5-69.8-54.5L158.5 32c-33 0-61.8 22.5-69.9 54.5zM320 184c-14.9 0-27.4 10.2-31 24l94 0c-3.6-13.8-16.1-24-31-24l-32 0zm-48 40L64 224c-26.5 0-48 21.5-48 48l0 112 480 0 0-112c0-26.5-21.5-48-48-48l-176 0zm-80-40l-32 0c-14.9 0-27.4 10.2-31 24l94 0c-3.6-13.8-16.1-24-31-24zM40.7 212.4L73.1 82.7c9.8-39.2 45-66.7 85.4-66.7l195.1 0c40.4 0 75.6 27.5 85.4 66.7l32.4 129.7c23.8 9.3 40.7 32.5 40.7 59.6l0 176c0 17.7-14.3 32-32 32l-32 0c-17.7 0-32-14.3-32-32l0-48-320 0 0 48c0 17.7-14.3 32-32 32l-32 0c-17.7 0-32-14.3-32-32L0 272c0-27.1 16.9-50.3 40.7-59.6zM432 400l0 48c0 8.8 7.2 16 16 16l32 0c8.8 0 16-7.2 16-16l0-48-64 0zM16 400l0 48c0 8.8 7.2 16 16 16l32 0c8.8 0 16-7.2 16-16l0-48-64 0zm96-96a16 16 0 1 0 -32 0 16 16 0 1 0 32 0zm-48 0a32 32 0 1 1 64 0 32 32 0 1 1 -64 0zm352 16a16 16 0 1 0 0-32 16 16 0 1 0 0 32zm0-48a32 32 0 1 1 0 64 32 32 0 1 1 0-64zM176 128a24 24 0 1 0 0-48 24 24 0 1 0 0 48zm0-64a40 40 0 1 1 0 80 40 40 0 1 1 0-80zm184 40a24 24 0 1 0 -48 0 24 24 0 1 0 48 0zm-64 0a40 40 0 1 1 80 0 40 40 0 1 1 -80 0z"/></svg>