<svg xmlns="http://www.w3.org/2000/svg" viewBox="0 0 576 512"><!--! Font Awesome Pro 7.0.0 by @fontawesome - https://fontawesome.com License - https://fontawesome.com/license (Commercial License) Copyright 2025 Fonticons, Inc. --><path fill="currentColor" d="M406 1l12.1 12.1c28.1 28.1 28.1 73.7 0 101.8l-17.8 17.8-17.8-17.8c-28.1-28.1-28.1-73.7 0-101.8L394.7 1c3.1-3.1 8.2-3.1 11.3 0zm23.5 125.2c28.1-28.1 73.7-28.1 101.8 0l12.1 12.1c3.1 3.1 3.1 8.2 0 11.3l-12.1 12.1c-28.1 28.1-73.7 28.1-101.8 0l-17.8-17.8 17.8-17.8c0 0 0 0 0 0zm20.3-31.6c11.6-31.2 4.8-67.7-20.3-92.8L417.3-10.3c-9.4-9.4-24.6-9.4-33.9 0L371.3 1.8c-28.6 28.6-33.4 72.1-14.3 105.7-17.7-7.4-37-11.5-57.4-11.5-58.3 0-111.3 34.1-135.5 87.2L35.2 466.8c-5.5 12.1-2.9 26.4 6.5 35.9s23.7 12 35.9 6.5L361.1 380.3c53.1-24.1 87.2-77.1 87.2-135.5 0-20.3-4.1-39.7-11.5-57.4 33.6 19.1 77.1 14.3 105.7-14.3L554.7 161c9.4-9.4 9.4-24.6 0-33.9l-12.1-12.1C517.5 89.8 481 83 449.8 94.6zM299.6 112c73.3 0 132.8 59.5 132.8 132.8 0 52.1-30.4 99.3-77.8 120.9l-94.3 42.9-30.2-30.2c-3.1-3.1-8.2-3.1-11.3 0s-3.1 8.2 0 11.3l26 26-173.7 78.9c-6.1 2.8-13.2 1.5-17.9-3.3s-6-11.9-3.3-17.9L178.7 189.8c3.3-7.3 7.2-14.1 11.6-20.6l52.4 52.4c3.1 3.1 8.2 3.1 11.3 0s3.1-8.2 0-11.3l-53.7-53.7C225.1 128.7 261 112 299.6 112z"/></svg>