<svg xmlns="http://www.w3.org/2000/svg" viewBox="0 0 576 512"><!--! Font Awesome Pro 7.0.0 by @fontawesome - https://fontawesome.com License - https://fontawesome.com/license (Commercial License) Copyright 2025 Fonticons, Inc. --><path fill="currentColor" d="M0 8C0 3.6 3.6 0 8 0L56 0C78.1 0 96 17.9 96 40l0 336c0 22.1 17.9 40 40 40l432 0c4.4 0 8 3.6 8 8s-3.6 8-8 8l-68.2 0c7.6 8.5 12.2 19.7 12.2 32 0 26.5-21.5 48-48 48s-48-21.5-48-48c0-12.3 4.6-23.5 12.2-32l-184.4 0c7.6 8.5 12.2 19.7 12.2 32 0 26.5-21.5 48-48 48s-48-21.5-48-48c0-12.3 4.6-23.5 12.2-32L136 432c-30.9 0-56-25.1-56-56L80 40c0-13.3-10.7-24-24-24L8 16c-4.4 0-8-3.6-8-8zM464 432a32 32 0 1 0 0 64 32 32 0 1 0 0-64zM176 464a32 32 0 1 0 64 0 32 32 0 1 0 -64 0z"/></svg>