<svg xmlns="http://www.w3.org/2000/svg" viewBox="0 0 256 512"><!--! Font Awesome Pro 7.0.0 by @fontawesome - https://fontawesome.com License - https://fontawesome.com/license (Commercial License) Copyright 2025 Fonticons, Inc. --><path fill="currentColor" d="M43-26.9c1.2-3.3 4.3-5.5 7.8-5.5l155 0c3.5 0 6.6 2.2 7.8 5.5 22.8 61.8 46.4 155 42.6 233.3-1.9 39.1-10.7 75.6-30.9 102.4-19.3 25.6-48.4 41.6-89 43.4l0 175.8 80 0c4.4 0 8 3.6 8 8s-3.6 8-8 8l-176 0c-4.4 0-8-3.6-8-8s3.6-8 8-8l80 0 0-175.8c-40.7-1.8-69.7-17.8-89-43.4-20.2-26.8-29-63.3-30.9-102.4-3.8-78.3 19.9-171.5 42.6-233.3zM19.2 144c-2.2 21.1-3.1 41.9-2.1 61.6 1.8 37.5 10.2 70.1 27.6 93.1 17 22.6 43.4 36.9 83.7 36.9s66.7-14.4 83.7-36.9c17.3-23 25.7-55.6 27.6-93.1 1-19.7 .1-40.5-2.1-61.6L19.2 144zm1.9-16l214.4 0c-7-51.6-21.2-103.5-35.6-143.6l-143.2 0C42.4 24.5 28.1 76.4 21.2 128z"/></svg>