<svg xmlns="http://www.w3.org/2000/svg" viewBox="0 0 512 512"><!--! Font Awesome Pro 7.0.0 by @fontawesome - https://fontawesome.com License - https://fontawesome.com/license (Commercial License) Copyright 2025 Fonticons, Inc. --><path fill="currentColor" d="M509.3 46c3.3-2.9 3.7-8 .8-11.3s-8-3.7-11.3-.8L320.4 189.1 197.7 66.3c-2.9-2.9-7.4-3.1-10.6-.6l-184 144c-3.5 2.7-4.1 7.8-1.4 11.2s7.8 4.1 11.2 1.4l178.4-139.6 123 123c3 3 7.7 3.1 10.9 .4l184-160zM208 256l0 192c0 8.8-7.2 16-16 16s-16-7.2-16-16l0-192c0-8.8 7.2-16 16-16s16 7.2 16 16zm-16-32c-17.7 0-32 14.3-32 32l0 192c0 17.7 14.3 32 32 32s32-14.3 32-32l0-192c0-17.7-14.3-32-32-32zM80 448c0 8.8-7.2 16-16 16s-16-7.2-16-16l0-96c0-8.8 7.2-16 16-16s16 7.2 16 16l0 96zM64 320c-17.7 0-32 14.3-32 32l0 96c0 17.7 14.3 32 32 32s32-14.3 32-32l0-96c0-17.7-14.3-32-32-32zm272 0l0 128c0 8.8-7.2 16-16 16s-16-7.2-16-16l0-128c0-8.8 7.2-16 16-16s16 7.2 16 16zm-48 0l0 128c0 17.7 14.3 32 32 32s32-14.3 32-32l0-128c0-17.7-14.3-32-32-32s-32 14.3-32 32zm176-64l0 192c0 8.8-7.2 16-16 16s-16-7.2-16-16l0-192c0-8.8 7.2-16 16-16s16 7.2 16 16zm-16-32c-17.7 0-32 14.3-32 32l0 192c0 17.7 14.3 32 32 32s32-14.3 32-32l0-192c0-17.7-14.3-32-32-32z"/></svg>