<svg xmlns="http://www.w3.org/2000/svg" viewBox="0 0 576 512"><!--! Font Awesome Pro 7.0.0 by @fontawesome - https://fontawesome.com License - https://fontawesome.com/license (Commercial License) Copyright 2025 Fonticons, Inc. --><path fill="currentColor" d="M288 16c26.5 0 48 21.5 48 48l0 432-256 0 0-432c0-26.5 21.5-48 48-48l160 0zM64 64l0 432-8 0c-4.4 0-8 3.6-8 8s3.6 8 8 8l304 0c4.4 0 8-3.6 8-8s-3.6-8-8-8l-8 0 0-208c30.9 0 56 25.1 56 56l0 56c0 26.5 21.5 48 48 48s48-21.5 48-48l0-144.4c40.4-4 72-38.1 72-79.6l0-32c0-8.8-7.2-16-16-16l-24 0 0-56c0-4.4-3.6-8-8-8s-8 3.6-8 8l0 56-48 0 0-56c0-4.4-3.6-8-8-8s-8 3.6-8 8l0 56-24 0c-8.8 0-16 7.2-16 16l0 32c0 41.5 31.6 75.6 72 79.6L488 400c0 17.7-14.3 32-32 32s-32-14.3-32-32l0-56c0-39.8-32.2-72-72-72l0-208c0-35.3-28.7-64-64-64L128 0C92.7 0 64 28.7 64 64zm400 80l96 0 0 32c0 35.3-28.7 64-64 64s-64-28.7-64-64l0-32 32 0zM240.3 98.6c2.7-2.7 2.7-7 0-9.7s-7-2.7-9.7 0l-82.3 82.3c-2 2-2.5 4.9-1.5 7.5s3.6 4.2 6.3 4.2l93.2 0-70.6 70.6c-2.7 2.7-2.7 7 0 9.7s7 2.7 9.7 0l82.3-82.3c2-2 2.5-4.9 1.5-7.5s-3.6-4.2-6.3-4.2l-93.2 0 70.6-70.6z"/></svg>