<svg xmlns="http://www.w3.org/2000/svg" viewBox="0 0 512 512"><!--! Font Awesome Pro 7.0.0 by @fontawesome - https://fontawesome.com License - https://fontawesome.com/license (Commercial License) Copyright 2025 Fonticons, Inc. --><path fill="currentColor" d="M8 32c4.4 0 8 3.6 8 8l0 360c0 35.3 28.7 64 64 64l424 0c4.4 0 8 3.6 8 8s-3.6 8-8 8L80 480c-44.2 0-80-35.8-80-80L0 40c0-4.4 3.6-8 8-8zM136 256c4.4 0 8 3.6 8 8l0 112c0 4.4-3.6 8-8 8s-8-3.6-8-8l0-112c0-4.4 3.6-8 8-8zm120-88l0 208c0 4.4-3.6 8-8 8s-8-3.6-8-8l0-208c0-4.4 3.6-8 8-8s8 3.6 8 8zm104 56c4.4 0 8 3.6 8 8l0 144c0 4.4-3.6 8-8 8s-8-3.6-8-8l0-144c0-4.4 3.6-8 8-8zM480 72l0 304c0 4.4-3.6 8-8 8s-8-3.6-8-8l0-304c0-4.4 3.6-8 8-8s8 3.6 8 8z"/></svg>