<svg xmlns="http://www.w3.org/2000/svg" viewBox="0 0 512 512"><!--! Font Awesome Pro 7.0.0 by @fontawesome - https://fontawesome.com License - https://fontawesome.com/license (Commercial License) Copyright 2025 Fonticons, Inc. --><path fill="currentColor" d="M160 80c17.7 0 32 14.3 32 32l0 72c0 17.7-14.3 32-32 32L48 216c-17.7 0-32-14.3-32-32l0-72c0-17.7 14.3-32 32-32l112 0zM48 64C21.5 64 0 85.5 0 112l0 72c0 26.5 21.5 48 48 48l112 0c26.5 0 48-21.5 48-48l0-72c0-26.5-21.5-48-48-48L48 64zM160 296c17.7 0 32 14.3 32 32l0 72c0 17.7-14.3 32-32 32L48 432c-17.7 0-32-14.3-32-32l0-72c0-17.7 14.3-32 32-32l112 0zM48 280c-26.5 0-48 21.5-48 48l0 72c0 26.5 21.5 48 48 48l112 0c26.5 0 48-21.5 48-48l0-72c0-26.5-21.5-48-48-48L48 280zM296 80l176 0c13.3 0 24 10.7 24 24l0 16c0 13.3-10.7 24-24 24l-176 0c-13.3 0-24-10.7-24-24l0-16c0-13.3 10.7-24 24-24zm-40 24l0 16c0 22.1 17.9 40 40 40l176 0c22.1 0 40-17.9 40-40l0-16c0-22.1-17.9-40-40-40L296 64c-22.1 0-40 17.9-40 40zM472 224c13.3 0 24 10.7 24 24l0 16c0 13.3-10.7 24-24 24l-176 0c-13.3 0-24-10.7-24-24l0-16c0-13.3 10.7-24 24-24l176 0zM296 208c-22.1 0-40 17.9-40 40l0 16c0 22.1 17.9 40 40 40l176 0c22.1 0 40-17.9 40-40l0-16c0-22.1-17.9-40-40-40l-176 0zm0 160l176 0c13.3 0 24 10.7 24 24l0 16c0 13.3-10.7 24-24 24l-176 0c-13.3 0-24-10.7-24-24l0-16c0-13.3 10.7-24 24-24zm-40 24l0 16c0 22.1 17.9 40 40 40l176 0c22.1 0 40-17.9 40-40l0-16c0-22.1-17.9-40-40-40l-176 0c-22.1 0-40 17.9-40 40z"/></svg>