<svg xmlns="http://www.w3.org/2000/svg" viewBox="0 0 384 512"><!--! Font Awesome Pro 7.0.0 by @fontawesome - https://fontawesome.com License - https://fontawesome.com/license (Commercial License) Copyright 2025 Fonticons, Inc. --><path fill="currentColor" d="M208.7 .2C297.4 4.7 368 78.1 368 168l0 127.1c0 18.1-7.2 35.5-20 48.3l-51.4 51.4 47.7 59.6c5 6.3 7.8 14.1 7.8 22.2l-.2 3.6C350 498 334.9 512 316.5 512l-248.9 0-3.6-.2c-16.7-1.7-30-15-31.7-31.7l-.2-3.6c0-7.1 2.1-14 6-19.8l1.8-2.4 48.4-60.5-8.3-37.3c-5.9-26.5 4.4-53.9 26.3-69.9l85.4-62.5-59.8 0-8.1 9.7C104.2 257 70.4 262.5 44.6 246.3 26.8 235.2 16 215.7 16 194.7l0-1.1c0-13.1 4.1-25.9 11.7-36.6L96 61.4 96 8 96.2 6.4c.3-1.5 1.1-3 2.2-4.1 1.5-1.5 3.5-2.3 5.7-2.3l96 0 8.7 .2zM52.3 464.3c-2.8 3.5-4.3 7.8-4.3 12.2 0 10.8 8.8 19.5 19.5 19.5l248.9 0c10.8 0 19.5-8.7 19.5-19.5 0-3.3-.8-6.6-2.4-9.5l-1.8-2.7-51.4-64.3-176.6 0-51.4 64.3zM112 64c0 1.7-.5 3.3-1.5 4.7L40.7 166.4C35 174.3 32 183.8 32 193.6l0 1.1c0 15.5 8 29.9 21.1 38.1 19 11.9 43.9 7.9 58.3-9.3l10.4-12.6 1.3-1.2c1.4-1.1 3.1-1.7 4.9-1.7l88 0c3.5 0 6.5 2.2 7.6 5.5s-.1 6.9-2.9 8.9L115.6 299.4C98.8 311.7 90.9 332.7 95.5 353l6.9 31 182.3 0 52-52c9.8-9.8 15.3-23.1 15.3-36.9L352 168c0-83.9-68.1-152-152-152l-88 0 0 48zm32 64a16 16 0 1 1 0-32 16 16 0 1 1 0 32z"/></svg>