<svg xmlns="http://www.w3.org/2000/svg" viewBox="0 0 640 512"><!--! Font Awesome Pro 7.0.0 by @fontawesome - https://fontawesome.com License - https://fontawesome.com/license (Commercial License) Copyright 2025 Fonticons, Inc. --><path fill="currentColor" d="M404.9 85.7c19.9-25.7 10.1-56.5-9.9-72.8-22.7-18.4-54.3-16.1-72.4 7.4L322.3 20.6 4.7 475c-7.5 9.9-5.8 24.2 4 32 9.9 7.9 24.1 6.2 31.9-3.7l364.2-417.5 .1-.2zM335.3 29.9c12.7-16.3 33.9-17.4 49.6-4.6 14.6 11.8 21.9 31.6 7.5 50.4L28.1 493.4c-2.3 3-6.5 3.5-9.4 1.2-3-2.4-3.5-6.8-1.2-9.9L335.3 29.9zM621.5 156.5c22.6-19.2 23.5-51 4.3-73-17-19.4-48.3-28.1-73.2-6.9l-.3 .3-416.3 395c-9.5 8.2-10.6 22.6-2.3 32.1 8.2 9.5 22.6 10.6 32.2 2.6l455.4-349.9 .3-.2zM563.1 88.7c15.9-13.4 37.4-9.8 50.6 5.4 13.4 15.3 13.3 36.6-2.4 50.1L155.6 494.3c-3 2.5-7.4 2.2-9.9-.7-2.5-2.9-2.2-7.1 .8-9.6L563.1 88.7z"/></svg>