<svg xmlns="http://www.w3.org/2000/svg" viewBox="0 0 512 512"><!--! Font Awesome Pro 7.0.0 by @fontawesome - https://fontawesome.com License - https://fontawesome.com/license (Commercial License) Copyright 2025 Fonticons, Inc. --><path fill="currentColor" d="M496 256a240 240 0 1 0 -480 0 240 240 0 1 0 480 0zM0 256a256 256 0 1 1 512 0 256 256 0 1 1 -512 0zM256 144c-35.3 0-64 28.7-64 64 0 4.4-3.6 8-8 8s-8-3.6-8-8c0-44.2 35.8-80 80-80s80 35.8 80 80c0 35.9-21.2 56.3-41.1 67.2-17.5 9.6-30.9 25-30.9 42 0 4.4-3.6 8-8 8s-8-3.6-8-8c0-25.5 19.5-45.2 39.2-56 16.7-9.1 32.8-25 32.8-53.1 0-35.3-28.7-64-64-64zM240 368a16 16 0 1 1 32 0 16 16 0 1 1 -32 0z"/></svg>