<svg xmlns="http://www.w3.org/2000/svg" viewBox="0 0 512 512"><!--! Font Awesome Pro 7.0.0 by @fontawesome - https://fontawesome.com License - https://fontawesome.com/license (Commercial License) Copyright 2025 Fonticons, Inc. --><path fill="currentColor" d="M256 16a240 240 0 1 1 0 480 240 240 0 1 1 0-480zm0 496a256 256 0 1 0 0-512 256 256 0 1 0 0 512zm10.7-393.5c-2.1-4-6.2-6.5-10.7-6.5s-8.6 2.5-10.7 6.5l-36.8 72.1-79.9 12.7c-4.5 .7-8.1 3.9-9.5 8.1s-.3 9 2.9 12.2l57.2 57.3-12.6 80c-.7 4.5 1.2 8.9 4.8 11.6s8.5 3 12.5 1l72.1-36.7 72.1 36.7c4 2 8.8 1.7 12.5-1s5.5-7.1 4.8-11.6l-12.6-80 57.2-57.3c3.2-3.2 4.3-7.9 2.9-12.2s-5.1-7.4-9.5-8.1l-79.9-12.7-36.8-72.1zm22.5 79.4c2.3 4.6 6.7 7.7 11.7 8.5l72.2 11.5-51.7 51.7c-3.6 3.6-5.3 8.7-4.5 13.8l11.4 72.2-65.2-33.1c-4.6-2.3-10-2.3-14.5 0l-65.2 33.1 11.4-72.2c.8-5.1-.9-10.2-4.5-13.8l-51.7-51.7 72.2-11.5c5.1-.8 9.4-4 11.7-8.5l33.2-65.1 33.2 65.1z"/></svg>