<svg xmlns="http://www.w3.org/2000/svg" viewBox="0 0 512 512"><!--! Font Awesome Pro 7.0.0 by @fontawesome - https://fontawesome.com License - https://fontawesome.com/license (Commercial License) Copyright 2025 Fonticons, Inc. --><path fill="currentColor" d="M256 496a240 240 0 1 0 0-480 240 240 0 1 0 0 480zM256 0a256 256 0 1 1 0 512 256 256 0 1 1 0-512zm80 184c0-4.4-3.6-8-8-8l-128 0c-3.2 0-6.2 1.9-7.4 4.9s-.6 6.4 1.7 8.7L235 230.3c3.1 3.1 3.1 8.2 0 11.3l-72.7 72.7c-3.1 3.1-3.1 8.2 0 11.3l24 24c3.1 3.1 8.2 3.1 11.3 0L270.3 277c3.1-3.1 8.2-3.1 11.3 0l40.7 40.7c2.3 2.3 5.7 3 8.7 1.7s4.9-4.2 4.9-7.4l0-128zm-8-24c13.3 0 24 10.7 24 24l0 128c0 9.7-5.8 18.5-14.8 22.2s-19.3 1.7-26.2-5.2l-35-35-67 67c-9.4 9.4-24.6 9.4-33.9 0l-24-24c-9.4-9.4-9.4-24.6 0-33.9l67-67-35-35c-6.9-6.9-8.9-17.2-5.2-26.2S190.3 160 200 160l128 0z"/></svg>