<svg xmlns="http://www.w3.org/2000/svg" viewBox="0 0 512 512"><!--! Font Awesome Pro 7.0.0 by @fontawesome - https://fontawesome.com License - https://fontawesome.com/license (Commercial License) Copyright 2025 Fonticons, Inc. --><path fill="currentColor" d="M256 16a240 240 0 1 1 0 480 240 240 0 1 1 0-480zm0 496a256 256 0 1 0 0-512 256 256 0 1 0 0 512zM184.2 208.9l10.2 27.6c.4 1.2 .8 2.3 1.2 3.5L168 240c-4.4 0-8 3.6-8 8s3.6 8 8 8l30.7 0c1.3 16-2.5 32.2-11.4 46.1l-34.1 53.6c-1.6 2.5-1.7 5.6-.3 8.1s4.1 4.2 7 4.2l184 0c4.4 0 8-3.6 8-8s-3.6-8-8-8l-169.4 0 26.3-41.3c10.5-16.5 15.2-35.7 13.9-54.7l97.2 0c4.4 0 8-3.6 8-8s-3.6-8-8-8l-99.8 0c-.8-3-1.7-6-2.8-9l-10.2-27.6c-13.5-36.6 13.6-75.4 52.5-75.4l3.1 0c19.1 0 37.4 7.6 50.9 21.1l8.6 8.6c3.1 3.1 8.2 3.1 11.3 0s3.1-8.2 0-11.3l-8.6-8.6c-16.5-16.5-38.9-25.8-62.2-25.8l-3.1 0c-50.1 0-84.9 49.9-67.6 96.9z"/></svg>