<svg xmlns="http://www.w3.org/2000/svg" viewBox="0 0 512 512"><!--! Font Awesome Pro 7.0.0 by @fontawesome - https://fontawesome.com License - https://fontawesome.com/license (Commercial License) Copyright 2025 Fonticons, Inc. --><path fill="currentColor" d="M256 16a240 240 0 1 1 0 480 240 240 0 1 1 0-480zm0 496a256 256 0 1 0 0-512 256 256 0 1 0 0 512zM136 160c-4.4 0-8 3.6-8 8l0 176c0 4.4 3.6 8 8 8l81.6 0c4.4 0 8-3.6 8-8s-3.6-8-8-8l-73.6 0 0-68.8 64 0c4.4 0 8-3.6 8-8s-3.6-8-8-8l-64 0 0-75.2 72 0c4.4 0 8-3.6 8-8s-3.6-8-8-8l-80 0zm144 0c-4.4 0-8 3.6-8 8s3.6 8 8 8l82.5 0-89.5 164.2c-1.4 2.5-1.3 5.5 .1 7.9s4.1 3.9 6.9 3.9l96 0c4.4 0 8-3.6 8-8s-3.6-8-8-8l-82.5 0 89.5-164.2c1.4-2.5 1.3-5.5-.1-7.9s-4.1-3.9-6.9-3.9l-96 0z"/></svg>