<svg xmlns="http://www.w3.org/2000/svg" viewBox="0 0 512 512"><!--! Font Awesome Pro 7.0.0 by @fontawesome - https://fontawesome.com License - https://fontawesome.com/license (Commercial License) Copyright 2025 Fonticons, Inc. --><path fill="currentColor" d="M256 16a240 240 0 1 1 0 480 240 240 0 1 1 0-480zm0 496a256 256 0 1 0 0-512 256 256 0 1 0 0 512zM146.3 146.3c-3.1 3.1-3.1 8.2 0 11.3L182.7 194c-14.2 16.7-22.7 38.4-22.7 62s8.5 45.3 22.7 62l-36.4 36.4c-3.1 3.1-3.1 8.2 0 11.3s8.2 3.1 11.3 0L194 329.3c16.7 14.2 38.4 22.7 62 22.7s45.3-8.5 62-22.7l36.4 36.4c3.1 3.1 8.2 3.1 11.3 0s3.1-8.2 0-11.3L329.3 318c14.2-16.7 22.7-38.4 22.7-62s-8.5-45.3-22.7-62l36.4-36.4c3.1-3.1 3.1-8.2 0-11.3s-8.2-3.1-11.3 0L318 182.7c-16.7-14.2-38.4-22.7-62-22.7s-45.3 8.5-62 22.7l-36.4-36.4c-3.1-3.1-8.2-3.1-11.3 0zM256 176a80 80 0 1 1 0 160 80 80 0 1 1 0-160z"/></svg>