<svg xmlns="http://www.w3.org/2000/svg" viewBox="0 0 512 512"><!--! Font Awesome Pro 7.0.0 by @fontawesome - https://fontawesome.com License - https://fontawesome.com/license (Commercial License) Copyright 2025 Fonticons, Inc. --><path fill="currentColor" d="M256 16a240 240 0 1 1 0 480 240 240 0 1 1 0-480zm0 496a256 256 0 1 0 0-512 256 256 0 1 0 0 512zm8-408c0-4.4-3.6-8-8-8s-8 3.6-8 8l0 23.9c-66.1 5.3-118.1 60.7-118.1 128.1s52 122.8 118.1 128.1l0 23.9c0 4.4 3.6 8 8 8s8-3.6 8-8l0-23.5c32-1.3 61-14.4 82.8-35 3.4-3.2 3.6-8.7 .3-12.1s-8.7-3.6-12.1-.3c-18.7 17.7-43.5 28.9-71 30.3l0-222.6c27.4 1.3 52.3 12.6 71 30.3 3.4 3.2 8.9 3.1 12.1-.3s3.1-8.9-.3-12.1c-21.8-20.6-50.8-33.6-82.8-35l0-23.5zM147.1 256c0-58 44.3-105.6 100.9-110.9l0 221.9C191.4 361.6 147.1 314 147.1 256z"/></svg>