<svg xmlns="http://www.w3.org/2000/svg" viewBox="0 0 512 512"><!--! Font Awesome Pro 7.0.0 by @fontawesome - https://fontawesome.com License - https://fontawesome.com/license (Commercial License) Copyright 2025 Fonticons, Inc. --><path fill="currentColor" d="M256 16a240 240 0 1 1 0 480 240 240 0 1 1 0-480zm0 496a256 256 0 1 0 0-512 256 256 0 1 0 0 512zM200 128c-4.4 0-8 3.6-8 8l0 84.9-34.5 11.5c-4.2 1.4-6.5 5.9-5.1 10.1s5.9 6.5 10.1 5.1l29.5-9.8 0 47.1-34.5 11.5c-4.2 1.4-6.5 5.9-5.1 10.1s5.9 6.5 10.1 5.1l29.5-9.8 0 74.2c0 4.4 3.6 8 8 8l64 0c53 0 96-43 96-96 0-4.4-3.6-8-8-8s-8 3.6-8 8c0 44.2-35.8 80-80 80l-56 0 0-71.6 98.5-32.8c4.2-1.4 6.5-5.9 5.1-10.1s-5.9-6.5-10.1-5.1l-93.5 31.2 0-47.1 98.5-32.8c4.2-1.4 6.5-5.9 5.1-10.1s-5.9-6.5-10.1-5.1L208 215.6 208 136c0-4.4-3.6-8-8-8z"/></svg>