<svg xmlns="http://www.w3.org/2000/svg" viewBox="0 0 512 512"><!--! Font Awesome Pro 7.0.0 by @fontawesome - https://fontawesome.com License - https://fontawesome.com/license (Commercial License) Copyright 2025 Fonticons, Inc. --><path fill="currentColor" d="M256 16a240 240 0 1 1 0 480 240 240 0 1 1 0-480zm0 496a256 256 0 1 0 0-512 256 256 0 1 0 0 512zm48-408l0 24-72 0c-4.4 0-8 3.6-8 8s3.6 8 8 8l72 0 0 80c-14.6-19.4-37.8-32-64-32-44.2 0-80 35.8-80 80s35.8 80 80 80c26.2 0 49.4-12.6 64-32l0 24c0 4.4 3.6 8 8 8s8-3.6 8-8l0-200 24 0c4.4 0 8-3.6 8-8s-3.6-8-8-8l-24 0 0-24c0-4.4-3.6-8-8-8s-8 3.6-8 8zM240 336a64 64 0 1 1 0-128 64 64 0 1 1 0 128zm-96 72c0 4.4 3.6 8 8 8l208 0c4.4 0 8-3.6 8-8s-3.6-8-8-8l-208 0c-4.4 0-8 3.6-8 8z"/></svg>