<svg xmlns="http://www.w3.org/2000/svg" viewBox="0 0 512 512"><!--! Font Awesome Pro 7.0.0 by @fontawesome - https://fontawesome.com License - https://fontawesome.com/license (Commercial License) Copyright 2025 Fonticons, Inc. --><path fill="currentColor" d="M256 16a240 240 0 1 1 0 480 240 240 0 1 1 0-480zm0 496a256 256 0 1 0 0-512 256 256 0 1 0 0 512zM136 144c-4.4 0-8 3.6-8 8l0 192c0 4.4 3.6 8 8 8s8-3.6 8-8l0-72 56 0c.9 0 1.7 0 2.6-.1l30 75c1.6 4.1 6.3 6.1 10.4 4.5s6.1-6.3 4.5-10.4l-28.7-71.8c26.2-8 45.3-32.4 45.3-61.2 0-35.3-28.7-64-64-64l-64 0zm64 112l-56 0 0-96 56 0c26.5 0 48 21.5 48 48s-21.5 48-48 48zm88-8l0 136c0 4.4 3.6 8 8 8s8-3.6 8-8l0-48 32 0c26.5 0 48-21.5 48-48s-21.5-48-48-48l-40 0c-4.4 0-8 3.6-8 8zm16 8l32 0c17.7 0 32 14.3 32 32s-14.3 32-32 32l-32 0 0-64z"/></svg>