<svg xmlns="http://www.w3.org/2000/svg" viewBox="0 0 384 512"><!--! Font Awesome Pro 7.0.0 by @fontawesome - https://fontawesome.com License - https://fontawesome.com/license (Commercial License) Copyright 2025 Fonticons, Inc. --><path fill="currentColor" d="M128 80l128 0c17.7 0 32-14.3 32-32s-14.3-32-32-32L128 16c-17.7 0-32 14.3-32 32s14.3 32 32 32zm0 16c-26.5 0-48-21.5-48-48L64 48C37.5 48 16 69.5 16 96l0 352c0 26.5 21.5 48 48 48l256 0c26.5 0 48-21.5 48-48l0-352c0-26.5-21.5-48-48-48l-16 0c0 26.5-21.5 48-48 48L128 96zM256 0c20.9 0 38.7 13.4 45.3 32L320 32c35.3 0 64 28.7 64 64l0 352c0 35.3-28.7 64-64 64L64 512c-35.3 0-64-28.7-64-64L0 96C0 60.7 28.7 32 64 32l18.7 0C89.3 13.4 107.1 0 128 0L256 0zM184 200l112 0c4.4 0 8 3.6 8 8s-3.6 8-8 8l-112 0c-4.4 0-8-3.6-8-8s3.6-8 8-8zm0 192l112 0c4.4 0 8 3.6 8 8s-3.6 8-8 8l-112 0c-4.4 0-8-3.6-8-8s3.6-8 8-8zm-88 8c0-8.8 7.2-16 16-16s16 7.2 16 16-7.2 16-16 16-16-7.2-16-16zm16-80a16 16 0 1 1 0-32 16 16 0 1 1 0 32zm16-112a16 16 0 1 1 -32 0 16 16 0 1 1 32 0zm56 88l112 0c4.4 0 8 3.6 8 8s-3.6 8-8 8l-112 0c-4.4 0-8-3.6-8-8s3.6-8 8-8z"/></svg>