<svg xmlns="http://www.w3.org/2000/svg" viewBox="0 0 512 512"><!--! Font Awesome Pro 7.0.0 by @fontawesome - https://fontawesome.com License - https://fontawesome.com/license (Commercial License) Copyright 2025 Fonticons, Inc. --><path fill="currentColor" d="M16 256a240 240 0 1 0 480 0 240 240 0 1 0 -480 0zm496 0a256 256 0 1 1 -512 0 256 256 0 1 1 512 0zM248 408l0-137.1-83.6 55.7c-3.7 2.5-8.6 1.5-11.1-2.2s-1.5-8.6 2.2-11.1l96-64c2.5-1.6 5.6-1.8 8.2-.4S264 253 264 256l0 152c0 4.4-3.6 8-8 8s-8-3.6-8-8z"/></svg>