<svg xmlns="http://www.w3.org/2000/svg" viewBox="0 0 576 512"><!--! Font Awesome Pro 7.0.0 by @fontawesome - https://fontawesome.com License - https://fontawesome.com/license (Commercial License) Copyright 2025 Fonticons, Inc. --><path fill="currentColor" d="M501 299.7l62.2-12.6c5.7-1.1 9.6-5.3 11.4-9.6s2-10-1.2-14.8l-46.9-70.7 46.9-70.7c3.2-4.8 3-10.5 1.2-14.8s-5.7-8.5-11.4-9.6L480 80 463.2-3.2c-1.1-5.7-5.3-9.6-9.6-11.4s-10-2-14.8 1.2L368 33.6 297.3-13.3c-4.8-3.2-10.5-3-14.8-1.2S274-8.9 272.8-3.2L256 80 172.8 96.8c-5.7 1.2-9.6 5.3-11.4 9.6s-2 10 1.2 14.8L177.8 144c6.9 .1 13.7 .6 20.3 1.5l-21.8-33.1 88.1-17.8c3.2-.6 5.6-3.1 6.3-6.3L288.4 .3 363.6 49.9c1.3 .9 2.9 1.3 4.4 1.3s3.1-.4 4.4-1.3L447.5 .3 465.4 88.4c.6 3.2 3.1 5.6 6.3 6.3l88.1 17.8-49.6 75.1c-1.8 2.7-1.8 6.2 0 8.8l49.7 74.9-78.8 16.2c7 3.6 13.7 7.7 20 12.3zM288.3 185.2c5.5-2.2 11.1-4 16.9-5.5 5.7-29.5 31.7-51.7 62.8-51.7 35.3 0 64 28.7 64 64 0 8-1.5 15.7-4.2 22.8 4.1 4.2 8 8.8 11.5 13.6 5.6-10.9 8.7-23.3 8.7-36.4 0-44.2-35.8-80-80-80-41.9 0-76.3 32.2-79.7 73.2zM176 192c-61.9 0-112 50.1-112 112 0 7.1 .7 14.1 1.9 20.8-38.3 12.6-65.9 48.7-65.9 91.2 0 53 43 96 96 96l320 0c53 0 96-43 96-96s-43-96-96-96c-.5 0-1.1 0-1.6 0 1.1-5.2 1.6-10.5 1.6-16 0-44.2-35.8-80-80-80-24.3 0-46.1 10.9-60.8 28-18.7-35.7-56.1-60-99.2-60zM80 304c0-53 43-96 96-96 41.3 0 76.6 26.1 90.1 62.8 1.1 2.9 3.7 4.9 6.8 5.2s6.1-1.3 7.6-4c11.1-19.2 31.8-32 55.5-32 35.3 0 64 28.7 64 64 0 7.8-1.4 15.2-3.9 22.1-1 2.6-.5 5.6 1.3 7.8s4.6 3.3 7.3 2.9c3.7-.5 7.5-.8 11.3-.8 44.2 0 80 35.8 80 80s-35.8 80-80 80L96 496c-44.2 0-80-35.8-80-80 0-37.7 26.1-69.4 61.3-77.8 2.1-.5 3.9-1.8 5-3.7s1.4-4.1 .9-6.1c-2-7.8-3.1-16-3.1-24.4z"/></svg>