<svg xmlns="http://www.w3.org/2000/svg" viewBox="0 0 384 512"><!--! Font Awesome Pro 7.0.0 by @fontawesome - https://fontawesome.com License - https://fontawesome.com/license (Commercial License) Copyright 2025 Fonticons, Inc. --><path fill="currentColor" d="M283.5 320l80.4 0c2.7-20.3 4.2-41.8 4.2-64s-1.5-43.7-4.2-64l-80.4 0c3 20.5 4.5 41.9 4.5 64s-1.6 43.5-4.5 64zm-2.6 16c-6.7 36.2-17.8 68.9-32.3 96l82.5 0c.4-.7 .7-1.4 1.1-2.1 12.9-25.8 23.1-57.8 29.2-93.9l-80.6 0zM239.3 448c-13.1 20.6-28.3 37-45 48l61.8 0c22.2 0 45.8-15.7 66.1-48l-82.8 0zM144 512C64.5 512 0 397.4 0 256S64.5 0 144 0L256 0c70.7 0 128 114.6 128 256S326.7 512 256 512l-112 0zM194.2 16c16.7 11 31.9 27.4 45 48l82.8 0C301.8 31.7 278.2 16 256 16l-61.8 0zm54.3 64c14.4 27.1 25.6 59.8 32.3 96l80.6 0c-6.2-36.1-16.3-68.1-29.2-93.9-.4-.7-.7-1.4-1.1-2.1l-82.5 0zM272 256c0-132.5-57.3-240-128-240S16 123.5 16 256 73.3 496 144 496 272 388.5 272 256zM72 256c0 47.7 8.8 90.6 22.7 121.1 14.2 31.3 32.3 46.9 49.3 46.9s35.1-15.5 49.3-46.9C207.2 346.6 216 303.7 216 256s-8.8-90.6-22.7-121.1C179.1 103.5 161 88 144 88s-35.1 15.5-49.3 46.9C80.8 165.4 72 208.3 72 256zM144 72c27.2 0 49.1 23.9 63.9 56.2 15 33.1 24.1 78.3 24.1 127.8s-9.1 94.7-24.1 127.8C193.1 416.1 171.2 440 144 440s-49.1-23.9-63.9-56.2C65.1 350.7 56 305.5 56 256s9.1-94.7 24.1-127.8C94.9 95.9 116.8 72 144 72z"/></svg>