<svg xmlns="http://www.w3.org/2000/svg" viewBox="0 0 384 512"><!--! Font Awesome Pro 7.0.0 by @fontawesome - https://fontawesome.com License - https://fontawesome.com/license (Commercial License) Copyright 2025 Fonticons, Inc. --><path fill="currentColor" d="M215.9 .2c4.3 1.1 6.9 5.4 5.8 9.7L210.2 56.1c1.9-.1 3.8-.1 5.8-.1 24.8 0 48.6 4.5 70.6 12.8L302.2 6.1c1.1-4.3 5.4-6.9 9.7-5.8s6.9 5.4 5.8 9.7L301.5 75.1c19.1 9.1 36.6 21.1 51.8 35.4 3.2 3 3.4 8.1 .3 11.3s-8.1 3.4-11.3 .3c-13.2-12.5-28.3-23-44.8-31.2L210.3 439.9c1.9 .1 3.8 .1 5.7 .1 48.9 0 93.3-19.1 126.3-50.2 3.2-3 8.3-2.9 11.3 .3s2.9 8.3-.3 11.3c-35.8 33.8-84.1 54.5-137.3 54.5-3.3 0-6.5-.1-9.7-.2l-12.5 50.2c-1.1 4.3-5.4 6.9-9.7 5.8s-6.9-5.4-5.8-9.7l11.9-47.7c-26.4-3.4-51.2-12-73.3-24.6L97.8 505.9c-1.1 4.3-5.4 6.9-9.7 5.8s-6.9-5.4-5.8-9.7l20.3-81.3C50.3 384.7 16 324.3 16 256 16 153.2 93.6 68.5 193.4 57.3L206.2 6.1c1.1-4.3 5.4-6.9 9.7-5.8zM194.1 438.7L282.6 84.4c-20.7-8-43.1-12.4-66.6-12.4-3.3 0-6.6 .1-9.8 .3L120.9 413.5c21.8 13.2 46.7 22 73.2 25.2zM32 256c0 60.7 29.4 114.6 74.7 148.1L189.3 73.9C100.3 86.9 32 163.5 32 256z"/></svg>