<svg xmlns="http://www.w3.org/2000/svg" viewBox="0 0 640 512"><!--! Font Awesome Pro 7.0.0 by @fontawesome - https://fontawesome.com License - https://fontawesome.com/license (Commercial License) Copyright 2025 Fonticons, Inc. --><path fill="currentColor" d="M130.5 377.4c4.1 4.9 4.9 11.7 2 17.4l-49.4 98.7 124.8-49.9c3.9-1.6 8.3-1.5 12.2 .1 30.4 13 64.2 20.2 99.9 20.2l0 16c-37.9 0-73.8-7.7-106.2-21.5L82.4 511c-10.8 4.3-22.4-7.1-17-17.8l52.8-105.6C84.2 346.9 64 295.7 64 240 64 107.5 178.6 0 320 0S576 107.5 576 240c0 17.7-2 35-5.9 51.6-4.4-3.4-9.3-6.1-14.6-8.1 3-14.1 4.5-28.6 4.5-43.5 0-122.8-106.5-224-240-224S80 117.2 80 240c0 51.7 18.8 99.4 50.5 137.4zM464 304l0 224c0 4.4-3.6 8-8 8s-8-3.6-8-8l0-224c0-4.4 3.6-8 8-8s8 3.6 8 8zm80 32l0 160c0 4.4-3.6 8-8 8s-8-3.6-8-8l0-160c0-4.4 3.6-8 8-8s8 3.6 8 8zM384 352l0 128c0 4.4-3.6 8-8 8s-8-3.6-8-8l0-128c0-4.4 3.6-8 8-8s8 3.6 8 8zm240 32l0 64c0 4.4-3.6 8-8 8s-8-3.6-8-8l0-64c0-4.4 3.6-8 8-8s8 3.6 8 8z"/></svg>