<svg xmlns="http://www.w3.org/2000/svg" viewBox="0 0 576 512"><!--! Font Awesome Pro 7.0.0 by @fontawesome - https://fontawesome.com License - https://fontawesome.com/license (Commercial License) Copyright 2025 Fonticons, Inc. --><path fill="currentColor" d="M544 240c0-13.6-1.2-26.9-3.5-39.9-5 1.9-10.2 3.4-15.4 4.6 2 11.5 3 23.3 3 35.3 0 122.8-106.5 224-240 224-35.7 0-69.5-7.3-99.9-20.2-3.9-1.7-8.3-1.7-12.2-.1l-124.8 49.9 49.4-98.7c2.8-5.7 2-12.5-2-17.4-31.7-38-50.5-85.7-50.5-137.4 0-122.8 106.5-224 240-224 31.6 0 61.8 5.7 89.3 16 2-5 4.3-9.8 6.9-14.5-29.7-11.3-62.2-17.5-96.2-17.5-141.4 0-256 107.5-256 240 0 55.7 20.2 106.9 54.2 147.7L33.4 493.3C28 504 39.6 515.4 50.4 511l131.5-52.6c32.3 13.8 68.3 21.5 106.2 21.5 141.4 0 256-107.5 256-240zM432 80a64 64 0 1 1 128 0 64 64 0 1 1 -128 0zm144 0a80 80 0 1 0 -160 0 80 80 0 1 0 160 0z"/></svg>