<svg xmlns="http://www.w3.org/2000/svg" viewBox="0 0 512 512"><!--! Font Awesome Pro 7.0.0 by @fontawesome - https://fontawesome.com License - https://fontawesome.com/license (Commercial License) Copyright 2025 Fonticons, Inc. --><path fill="currentColor" d="M96 192l80 0 0 128-80 0c-53 0-96 43-96 96s43 96 96 96 96-43 96-96l0-80 128 0 0 80c0 53 43 96 96 96s96-43 96-96-43-96-96-96l-80 0 0-128 80 0c53 0 96-43 96-96s-43-96-96-96-96 43-96 96l0 80-128 0 0-80c0-53-43-96-96-96S0 43 0 96 43 192 96 192zM256 320l-64 0 0-128 128 0 0 128-64 0zM96 176c-44.2 0-80-35.8-80-80s35.8-80 80-80 80 35.8 80 80l0 80-80 0zm80 240c0 44.2-35.8 80-80 80s-80-35.8-80-80 35.8-80 80-80l80 0 0 80zM336 176l0-80c0-44.2 35.8-80 80-80s80 35.8 80 80-35.8 80-80 80l-80 0zm80 160c44.2 0 80 35.8 80 80s-35.8 80-80 80-80-35.8-80-80l0-80 80 0z"/></svg>