<svg xmlns="http://www.w3.org/2000/svg" viewBox="0 0 512 512"><!--! Font Awesome Pro 7.0.0 by @fontawesome - https://fontawesome.com License - https://fontawesome.com/license (Commercial License) Copyright 2025 Fonticons, Inc. --><path fill="currentColor" d="M496 256a240 240 0 1 0 -480 0 240 240 0 1 0 480 0zM0 256a256 256 0 1 1 512 0 256 256 0 1 1 -512 0zm336 0a80 80 0 1 0 -160 0 80 80 0 1 0 160 0zm-176 0a96 96 0 1 1 192 0 96 96 0 1 1 -192 0zm80 0a16 16 0 1 1 32 0 16 16 0 1 1 -32 0zM88 256c0 4.4-3.6 8-8 8s-8-3.6-8-8c0-101.6 82.4-184 184-184 4.4 0 8 3.6 8 8s-3.6 8-8 8C163.2 88 88 163.2 88 256z"/></svg>