<svg xmlns="http://www.w3.org/2000/svg" viewBox="0 0 640 512"><!--! Font Awesome Pro 7.0.0 by @fontawesome - https://fontawesome.com License - https://fontawesome.com/license (Commercial License) Copyright 2025 Fonticons, Inc. --><path fill="currentColor" d="M80 128c0-26.5 21.5-48 48-48l306.7 0c12.7 0 24.9 5.1 33.9 14.1L619.3 244.7c3 3 4.7 7.1 4.7 11.3s-1.7 8.3-4.7 11.3L468.7 417.9c-9 9-21.2 14.1-33.9 14.1L128 432c-26.5 0-48-21.5-48-48l0-256zM630.6 233.4L480 82.7C468 70.7 451.7 64 434.7 64L128 64c-35.3 0-64 28.7-64 64l0 256c0 35.3 28.7 64 64 64l306.7 0c17 0 33.3-6.7 45.3-18.7L630.6 278.6c6-6 9.4-14.1 9.4-22.6s-3.4-16.6-9.4-22.6zM222.8 309.8c-3.1 3.1-3.1 8.2 0 11.3s8.2 3.1 11.3 0l53.8-53.8 53.8 53.8c3.1 3.1 8.2 3.1 11.3 0s3.1-8.2 0-11.3l-53.8-53.8 53.8-53.8c3.1-3.1 3.1-8.2 0-11.3s-8.2-3.1-11.3 0l-53.8 53.8-53.8-53.8c-3.1-3.1-8.2-3.1-11.3 0s-3.1 8.2 0 11.3l53.8 53.8-53.8 53.8z"/></svg>