<svg xmlns="http://www.w3.org/2000/svg" viewBox="0 0 640 512"><!--! Font Awesome Pro 7.0.0 by @fontawesome - https://fontawesome.com License - https://fontawesome.com/license (Commercial License) Copyright 2025 Fonticons, Inc. --><path fill="currentColor" d="M480 48L96 48C69.5 48 48 69.5 48 96l0 256c0 26.5 21.5 48 48 48l208 0c0 5.4 .2 10.7 .7 16l-65.9 0-13.3 80 104.2 0c3.2 5.5 6.6 10.9 10.3 16l-204 0c-4.4 0-8-3.6-8-8s3.6-8 8-8l73.2 0 13.3-80-126.6 0c-35.3 0-64-28.7-64-64L32 96c0-35.3 28.7-64 64-64l384 0c35.3 0 64 28.7 64 64l0 118c-5.3-1.4-10.6-2.5-16-3.4L528 96c0-26.5-21.5-48-48-48zM448 214l0-58.7-130.3 130.3c-1.5 1.5-3.5 2.3-5.7 2.3s-4.2-.8-5.7-2.3L232 211.3 125.7 317.7c-3.1 3.1-8.2 3.1-11.3 0s-3.1-8.2 0-11.3l112-112c3.1-3.1 8.2-3.1 11.3 0L312 268.7 436.7 144 368 144c-4.4 0-8-3.6-8-8s3.6-8 8-8l88 0c4.4 0 8 3.6 8 8l0 74.7c-5.4 .9-10.7 2-16 3.4zm48 314a128 128 0 1 0 0-256 128 128 0 1 0 0 256zm0-272a144 144 0 1 1 0 288 144 144 0 1 1 0-288zm-8 64c0-4.4 3.6-8 8-8s8 3.6 8 8l0 16 24 0c4.4 0 8 3.6 8 8s-3.6 8-8 8l-45.8 0c-10 0-18.2 8.1-18.2 18.2 0 8.8 6.3 16.3 14.9 17.9l45 8.2c16.2 3 28.1 17.1 28.1 33.6 0 18.9-15.3 34.2-34.2 34.2l-13.8 0 0 16c0 4.4-3.6 8-8 8s-8-3.6-8-8l0-16-24 0c-4.4 0-8-3.6-8-8s3.6-8 8-8l53.8 0c10 0 18.2-8.1 18.2-18.2 0-8.8-6.3-16.3-14.9-17.9l-45-8.2c-16.2-3-28.1-17.1-28.1-33.6 0-18.9 15.3-34.2 34.2-34.2l5.8 0 0-16z"/></svg>