<svg xmlns="http://www.w3.org/2000/svg" viewBox="0 0 512 512"><!--! Font Awesome Pro 7.0.0 by @fontawesome - https://fontawesome.com License - https://fontawesome.com/license (Commercial License) Copyright 2025 Fonticons, Inc. --><path fill="currentColor" d="M48 140C48 71.5 103.5 16 172 16l40.3 0c44.7 0 87 10.3 124.6 28.7 2 1 4.3 1.1 6.4 .3 35.7-13.5 84.7-29 120.8-29 .2 0 .3 0 .4 0 .1 .4 .2 1.1 .2 2.4 0 4.9-2.1 12.8-6.1 22.9-7.9 19.9-21.5 44.6-32.6 63.3-1.8 3-1.4 6.7 .8 9.3 43.2 49.8 69.3 114.7 69.3 185.8 0 81.9-66.4 148.3-148.3 148.3l-87 0c-2.9 0-5.5 1.5-6.9 4-14.9 25.9-42.1 42.5-72.2 43.9l33.3-60c1.3-2.4 1.3-5.4 0-7.8l-33.3-60c30.1 1.4 57.2 18 72.2 43.9 1.4 2.5 4.1 4 6.9 4l71.2 0c42 0 76-34 76-76s-34-76-76-76l-4 0c-4.4 0-8 3.6-8 8l0 61c0 10.5-8.5 19-19 19-5 0-9.7-1.9-13.3-5.4L213.6 274c-2.1-2-5.1-2.8-7.9-2L42.2 272c-14.4 0-26.2-11.7-26.2-26.2 0-9.3 4.9-17.9 13-22.6l29.1-17c3.7-2.1 5-6.7 3.1-10.5-8.4-16.7-13.2-35.7-13.2-55.7zM42.2 288l162.9 0 71.5 70c6.5 6.4 15.3 10 24.5 10 19.3 0 35-15.7 35-35l0-52.9c31.3 2.1 56 28.1 56 59.9 0 33.1-26.9 60-60 60l-66.7 0c-18.9-29.6-51.8-48-87.6-48l-9.6 0c-2.8 0-5.5 1.5-6.9 3.9s-1.5 5.5-.1 7.9L198.8 432 161 500.1c-1.4 2.5-1.3 5.5 .1 7.9s4.1 3.9 6.9 3.9l9.6 0c35.8 0 68.7-18.4 87.6-48l82.5 0c90.7 0 164.3-73.5 164.3-164.3 0-73-26.1-139.9-69.5-191.9 10.6-18.2 23.2-41.3 30.8-60.7 4.1-10.3 7.2-20.6 7.2-28.7 0-4.1-.7-8.8-3.7-12.6-3.3-4.2-8-5.9-13-5.9-38.1 0-87.7 15.6-123.2 28.9-39-18.5-82.5-28.9-128.5-28.9L172 0c-77.3 0-140 62.7-140 140 0 19.9 4.2 38.9 11.7 56.1L20.9 209.4C8 217 0 230.8 0 245.8 0 269.1 18.9 288 42.2 288zM144 160a16 16 0 1 0 0-32 16 16 0 1 0 0 32z"/></svg>