<svg xmlns="http://www.w3.org/2000/svg" viewBox="0 0 512 512"><!--! Font Awesome Pro 7.0.0 by @fontawesome - https://fontawesome.com License - https://fontawesome.com/license (Commercial License) Copyright 2025 Fonticons, Inc. --><path fill="currentColor" d="M384 512c4.4 0 8-3.6 8-8l0-344 91.7 0c15.6 0 28.3-12.7 28.3-28.3 0-7.5-3-14.7-8.3-20L397.7 5.7C394 2 389.1 0 384 0s-10 2-13.7 5.7L264.3 111.7c-5.3 5.3-8.3 12.5-8.3 20 0 15.6 12.7 28.3 28.3 28.3l91.7 0 0 344c0 4.4 3.6 8 8 8zm99.7-368l-199.4 0c-6.8 0-12.3-5.5-12.3-12.3 0-3.3 1.3-6.4 3.6-8.7L381.7 17c.6-.6 1.5-1 2.3-1s1.7 .3 2.3 1L492.4 123c2.3 2.3 3.6 5.4 3.6 8.7 0 6.8-5.5 12.3-12.3 12.3zM120 352l-91.7 0c-15.6 0-28.3 12.7-28.3 28.3 0 7.5 3 14.7 8.3 20L114.3 506.3c3.6 3.6 8.5 5.7 13.7 5.7s10-2 13.7-5.7L247.7 400.3c5.3-5.3 8.3-12.5 8.3-20 0-15.6-12.7-28.3-28.3-28.3L136 352 136 8c0-4.4-3.6-8-8-8s-8 3.6-8 8l0 344zm8 16l99.7 0c6.8 0 12.3 5.5 12.3 12.3 0 3.3-1.3 6.4-3.6 8.7L130.3 495c-.6 .6-1.5 1-2.3 1s-1.7-.3-2.3-1L19.6 389c-2.3-2.3-3.6-5.4-3.6-8.7 0-6.8 5.5-12.3 12.3-12.3l99.7 0z"/></svg>