<svg xmlns="http://www.w3.org/2000/svg" viewBox="0 0 512 512"><!--! Font Awesome Pro 7.0.0 by @fontawesome - https://fontawesome.com License - https://fontawesome.com/license (Commercial License) Copyright 2025 Fonticons, Inc. --><path fill="currentColor" d="M96 56a40 40 0 1 0 -80 0 40 40 0 1 0 80 0zM64 111.4l0 289.1c24.5 3.5 43.9 22.9 47.4 47.4l289.1 0c1.9-13.1 8.3-24.8 17.7-33.3L344.6 306.3c-7.4 3.6-15.7 5.7-24.6 5.7-30.9 0-56-25.1-56-56s25.1-56 56-56c8.8 0 17.1 2 24.6 5.7L418.2 97.3c-9.3-8.5-15.8-20.2-17.7-33.3L111.4 64c-3.5 24.5-22.9 43.9-47.4 47.4zM431.4 405.7c7.4-3.6 15.7-5.7 24.6-5.7 30.9 0 56 25.1 56 56s-25.1 56-56 56c-28.2 0-51.6-20.9-55.4-48l-289.1 0c-3.9 27.1-27.2 48-55.4 48-30.9 0-56-25.1-56-56 0-28.2 20.9-51.6 48-55.4l0-289.1C20.9 107.6 0 84.2 0 56 0 25.1 25.1 0 56 0 84.2 0 107.6 20.9 111.4 48l289.1 0c3.9-27.1 27.2-48 55.4-48 30.9 0 56 25.1 56 56s-25.1 56-56 56c-8.8 0-17.1-2-24.6-5.7L357.8 214.7C369 224.9 376 239.6 376 256s-7 31.1-18.2 41.3l73.7 108.3zM56 496a40 40 0 1 0 0-80 40 40 0 1 0 0 80zm400 0a40 40 0 1 0 0-80 40 40 0 1 0 0 80zM320 296a40 40 0 1 0 0-80 40 40 0 1 0 0 80zM496 56a40 40 0 1 0 -80 0 40 40 0 1 0 80 0z"/></svg>