<svg xmlns="http://www.w3.org/2000/svg" viewBox="0 0 384 512"><!--! Font Awesome Pro 7.0.0 by @fontawesome - https://fontawesome.com License - https://fontawesome.com/license (Commercial License) Copyright 2025 Fonticons, Inc. --><path fill="currentColor" d="M192.2-16c10 0 19.3 4.5 25.2 12.5 36.4 49.4 166.6 232.3 166.6 323.5 0 106-86 192-192 192S0 426 0 320C0 240.2 99.7 90.2 149 20.9L166.6-3.5c5.2-7 12.9-11.3 21.5-12.3l3.7-.2 .4 0zm-.4 16c-3.8 0-7.3 1.3-9.9 3.5L179.5 6c-18.1 24.5-59.3 82-96 144.6-18.4 31.3-35.4 63.6-47.8 93.4-12.5 30.2-19.7 56.4-19.7 75.9 0 97.2 78.8 176 176 176s176-78.8 176-176c0-19.6-7.1-45.8-19.7-75.9-12.4-29.8-29.4-62.1-47.8-93.4-27.5-46.9-57.6-91-78.6-120.5L204.5 6c-2.1-2.8-5.1-4.8-8.6-5.6l-3.7-.4-.4 0zm.2 232c4.4 0 8 3.6 8 8l0 72 72 0c4.4 0 8 3.6 8 8s-3.6 8-8 8l-72 0 0 72-.2 1.6c-.7 3.6-4 6.4-7.8 6.4s-7.1-2.7-7.8-6.4l-.2-1.6 0-72-72 0c-4.4 0-8-3.6-8-8s3.6-8 8-8l72 0 0-72c0-4.4 3.6-8 8-8z"/></svg>