<svg xmlns="http://www.w3.org/2000/svg" viewBox="0 0 640 512"><!--! Font Awesome Pro 7.0.0 by @fontawesome - https://fontawesome.com License - https://fontawesome.com/license (Commercial License) Copyright 2025 Fonticons, Inc. --><path fill="currentColor" d="M464 192c0 19.6-3.2 38.4-9.1 56 .4 0 .7 0 1.1 0 5.2 0 10.3 .7 15.1 2.1 5.8-18.3 8.9-37.8 8.9-58.1 0-106-86-192-192-192S96 86 96 192l0 192c0 70.7 57.3 128 128 128l9.3 0c32.8 0 63.5-12.5 86.7-33.8l0-23.2c-20.9 25.5-52.5 41-86.7 41l-9.3 0c-61.9 0-112-50.1-112-112l0-192c0-97.2 78.8-176 176-176S464 94.8 464 192zm-272 0c0-53 43-96 96-96s96 43 96 96l0 8c0 4.4 3.6 8 8 8s8-3.6 8-8l0-8c0-61.9-50.1-112-112-112S176 130.1 176 192l0 40c0 4.4 3.6 8 8 8l16 0c22.1 0 40 17.9 40 40s-17.9 40-40 40l-16 0c-4.4 0-8 3.6-8 8s3.6 8 8 8l16 0c30.9 0 56-25.1 56-56s-25.1-56-56-56l-8 0 0-32zM464 304c0-4.4-3.6-8-8-8s-8 3.6-8 8l0 224c0 4.4 3.6 8 8 8s8-3.6 8-8l0-224zm80 32c0-4.4-3.6-8-8-8s-8 3.6-8 8l0 160c0 4.4 3.6 8 8 8s8-3.6 8-8l0-160zM384 352c0-4.4-3.6-8-8-8s-8 3.6-8 8l0 128c0 4.4 3.6 8 8 8s8-3.6 8-8l0-128zm240 32c0-4.4-3.6-8-8-8s-8 3.6-8 8l0 64c0 4.4 3.6 8 8 8s8-3.6 8-8l0-64z"/></svg>