<svg xmlns="http://www.w3.org/2000/svg" viewBox="0 0 512 512"><!--! Font Awesome Pro 7.0.0 by @fontawesome - https://fontawesome.com License - https://fontawesome.com/license (Commercial License) Copyright 2025 Fonticons, Inc. --><path fill="currentColor" d="M352 40c0 4.4-3.6 8-8 8l-80 0 0 80 128 0c30.9 0 56 25.1 56 56l0 208c0 30.9-25.1 56-56 56l-160 0c-17.6 0-34.2-8.3-44.8-22.4L156 384 120 384c-30.9 0-56-25.1-56-56l0-64-48 0 0 88c0 4.4-3.6 8-8 8s-8-3.6-8-8L0 160c0-4.4 3.6-8 8-8s8 3.6 8 8l0 88 48 0 0-64c0-30.9 25.1-56 56-56l128 0 0-80-80 0c-4.4 0-8-3.6-8-8s3.6-8 8-8l176 0c4.4 0 8 3.6 8 8zM496 385.4L496 168c0-4.4 3.6-8 8-8s8 3.6 8 8l0 240c0 4.4-3.6 8-8 8s-8-3.6-8-8l0-22.6zM120 144c-22.1 0-40 17.9-40 40l0 144c0 22.1 17.9 40 40 40l40 0c2.5 0 4.9 1.2 6.4 3.2L200 416c7.6 10.1 19.4 16 32 16l160 0c22.1 0 40-17.9 40-40l0-208c0-22.1-17.9-40-40-40l-272 0zm224 80l-176 0c-4.4 0-8-3.6-8-8s3.6-8 8-8l176 0c4.4 0 8 3.6 8 8s-3.6 8-8 8z"/></svg>