<svg xmlns="http://www.w3.org/2000/svg" viewBox="0 0 512 512"><!--! Font Awesome Pro 7.0.0 by @fontawesome - https://fontawesome.com License - https://fontawesome.com/license (Commercial License) Copyright 2025 Fonticons, Inc. --><path fill="currentColor" d="M0 416c0 35.3 28.7 64 64 64l384 0c35.3 0 64-28.7 64-64l0-248c0-12.6-6-24.5-16.1-32L298.9-10.1c-25.5-18.9-60.3-18.9-85.8 0L16.1 136C6 143.5 0 155.4 0 168L0 416zM16 199.9l.1 .1 197 146.2c25.5 18.9 60.3 18.9 85.8 0l197-146.2 .1-.1 0 216.1c0 26.5-21.5 48-48 48L64 464c-26.5 0-48-21.5-48-48l0-216.1zM496 168c0 7.5-3.6 14.6-9.6 19.1l-197 146.2c-19.8 14.7-46.9 14.7-66.7 0L25.6 187.1c-6-4.5-9.6-11.6-9.6-19.1s3.6-14.6 9.6-19.1L222.6 2.7c19.8-14.7 46.9-14.7 66.7 0l197 146.2c6 4.5 9.6 11.6 9.6 19.1z"/></svg>