<svg xmlns="http://www.w3.org/2000/svg" viewBox="0 0 576 512"><!--! Font Awesome Pro 7.1.0 by @fontawesome - https://fontawesome.com License - https://fontawesome.com/license (Commercial License) Copyright 2025 Fonticons, Inc. --><path fill="currentColor" d="M512 312c4.4 0 8 3.6 8 8l0 16 24 0c4.4 0 8 3.6 8 8 0 4.4-3.6 8-8 8l-45.3 0c-14.7 0-26.7 11.9-26.7 26.6 0 13 9.4 24.1 22.3 26.3l38.1 6.4c20.6 3.4 35.6 21.2 35.6 42.1 0 23.6-19.1 42.7-42.7 42.7l-5.3 0 0 16c0 4.4-3.6 8-8 8s-8-3.6-8-8l0-16-32 0c-4.4 0-8-3.6-8-8 0-4.4 3.6-8 8-8l53.3 0c14.7 0 26.7-11.9 26.7-26.7 0-13-9.4-24.1-22.3-26.3l-38.1-6.4c-20.6-3.4-35.6-21.2-35.6-42.1 0-23.6 19.1-42.6 42.7-42.6l5.3 0 0-16c0-4.4 3.6-8 8-8zM245.1-10.1c25.5-18.9 60.3-18.9 85.8 0L527.9 136c10.1 7.5 16.1 19.4 16.1 32l0 106.2c-4.8-3.4-10.2-6-16-7.8l0-66.5c0 0-.1 0-.1 .1l-197 146.2c-25.5 18.9-60.3 18.9-85.8 0L48.1 200c0 0-.1 0-.1-.1L48 416c0 26.5 21.5 48 48 48l325.4 0c-2.4 5-4 10.3-4.8 16L96 480c-35.3 0-64-28.7-64-64l0-248c0-12.6 6-24.5 16.1-32l197-146.2zM321.4 2.7C301.6-12 274.4-12 254.6 2.7L57.6 148.9c-6 4.5-9.6 11.6-9.6 19.1s3.6 14.6 9.6 19.1l197 146.2c19.8 14.7 46.9 14.7 66.8 0l197-146.2c6-4.5 9.6-11.6 9.6-19.1s-3.6-14.6-9.6-19.1L321.4 2.7z"/></svg>