<svg xmlns="http://www.w3.org/2000/svg" viewBox="0 0 640 512"><!--! Font Awesome Pro 7.1.0 by @fontawesome - https://fontawesome.com License - https://fontawesome.com/license (Commercial License) Copyright 2025 Fonticons, Inc. --><path fill="currentColor" d="M512 160c70.7 0 128 57.3 128 128 0 40.4-18.8 76.4-48 99.9l0 109.7c0 8-6.5 14.5-14.5 14.5-2.2 0-4.5-.5-6.5-1.5l-59.1-29.5-59.1 29.5c-2 1-4.2 1.5-6.5 1.5-8 0-14.5-6.5-14.5-14.5l0-109.7c-29.2-23.5-48-59.5-48-99.9 0-70.7 57.3-128 128-128zm64 238.8c-18.8 10.9-40.7 17.2-64 17.2s-45.2-6.3-64-17.2l0 96.2 60.4-30.2 1.8-.6c1.8-.4 3.7-.2 5.4 .6l60.4 30.2 0-96.2zM512 64c34 0 61.7 26.5 63.8 60-5.5-2.1-11-4-16.8-5.6-4.5-21.9-23.8-38.4-47-38.4L119.9 80c-22 0-39.9 17.9-39.9 39.9 0 12.6 6 24.5 16.1 32L286.6 293.3c14.6 10.9 33.2 13.6 49.9 8.5 .4 5.4 1.1 10.8 2 16.1-20.8 5.5-43.5 1.7-61.5-11.7L86.6 164.8C84.2 163 82 161 80 158.9L80 384c0 26.5 21.5 48 48 48l256 0 0 16-256 0c-35.3 0-64-28.7-64-64l0-264.1C64 89 89 64 119.9 64L512 64zm0 112a112 112 0 1 0 0 224 112 112 0 1 0 0-224zm0 160a48 48 0 1 1 0-96 48 48 0 1 1 0 96zm0-80a32 32 0 1 0 0 64 32 32 0 1 0 0-64z"/></svg>