<svg xmlns="http://www.w3.org/2000/svg" viewBox="0 0 512 512"><!--! Font Awesome Pro 7.0.0 by @fontawesome - https://fontawesome.com License - https://fontawesome.com/license (Commercial License) Copyright 2025 Fonticons, Inc. --><path fill="currentColor" d="M208 80a40 40 0 1 0 0-80 40 40 0 1 0 0 80zm0-96a56 56 0 1 1 0 112 56 56 0 1 1 0-112zm88 286c11.3-9.1 25.4-14 40-14l112 0c35.3 0 64 28.7 64 64s-28.7 64-64 64L358.5 384 216 498c-11.3 9.1-25.4 14-40 14L64 512c-35.3 0-64-28.7-64-64s28.7-64 64-64l89.6 0 142.5-114zm40 2c-10.9 0-21.5 3.7-30 10.5L161.4 398.2c-1.4 1.1-3.2 1.8-5 1.8L64 400c-26.5 0-48 21.5-48 48s21.5 48 48 48l112 0c10.9 0 21.5-3.7 30-10.5L350.6 369.8c1.4-1.1 3.2-1.8 5-1.8l92.4 0c26.5 0 48-21.5 48-48s-21.5-48-48-48l-112 0zm-64-64c0-35.3-28.7-64-64-64s-64 28.7-64 64l0 111.9-16 12.8 0-124.7c0-44.2 35.8-80 80-80 43.1 0 78.2 34.1 79.9 76.8l-15.9 12.7 0-9.5z"/></svg>