<svg xmlns="http://www.w3.org/2000/svg" viewBox="0 0 512 512"><!--! Font Awesome Pro 7.0.0 by @fontawesome - https://fontawesome.com License - https://fontawesome.com/license (Commercial License) Copyright 2025 Fonticons, Inc. --><path fill="currentColor" d="M0 72c0-4.4 3.6-8 8-8l200 0c4.4 0 8 3.6 8 8s-3.6 8-8 8l-192 0 0 168 176 0c4.4 0 8 3.6 8 8s-3.6 8-8 8l-176 0 0 176 192 0c4.4 0 8 3.6 8 8s-3.6 8-8 8L8 456c-4.4 0-8-3.6-8-8L0 72zm280 0c0-4.4 3.6-8 8-8l216 0c2.9 0 5.5 1.5 6.9 4s1.4 5.5 0 8L301.8 440 504 440c4.4 0 8 3.6 8 8s-3.6 8-8 8l-216 0c-2.9 0-5.5-1.5-6.9-4s-1.4-5.5 0-8L490.2 80 288 80c-4.4 0-8-3.6-8-8z"/></svg>