<svg xmlns="http://www.w3.org/2000/svg" viewBox="0 0 512 512"><!--! Font Awesome Pro 7.0.0 by @fontawesome - https://fontawesome.com License - https://fontawesome.com/license (Commercial License) Copyright 2025 Fonticons, Inc. --><path fill="currentColor" d="M496 256a240 240 0 1 0 -480 0 240 240 0 1 0 480 0zM0 256a256 256 0 1 1 512 0 256 256 0 1 1 -512 0zM362.8 387.8C337.9 356.3 299.3 336 256 336s-81.9 20.3-106.8 51.8c-2.7 3.5-7.8 4.1-11.2 1.3s-4.1-7.8-1.3-11.2c27.8-35.3 71-57.9 119.4-57.9s91.6 22.7 119.4 57.9c2.7 3.5 2.1 8.5-1.3 11.2s-8.5 2.1-11.2-1.3zM160 208a16 16 0 1 1 32 0 16 16 0 1 1 -32 0zm176-16a16 16 0 1 1 0 32 16 16 0 1 1 0-32z"/></svg>