<svg xmlns="http://www.w3.org/2000/svg" viewBox="0 0 512 512"><!--! Font Awesome Pro 7.0.0 by @fontawesome - https://fontawesome.com License - https://fontawesome.com/license (Commercial License) Copyright 2025 Fonticons, Inc. --><path fill="currentColor" d="M496 256a240 240 0 1 0 -480 0 240 240 0 1 0 480 0zM0 256a256 256 0 1 1 512 0 256 256 0 1 1 -512 0zM182.7 407.3c-2.4 3.7-7.4 4.7-11.1 2.2s-4.7-7.4-2.2-11.1C188 370.5 219.8 352 256 352s68 18.5 86.7 46.5c2.4 3.7 1.4 8.6-2.2 11.1s-8.6 1.4-11.1-2.2C313.6 383.6 286.6 368 256 368s-57.6 15.6-73.3 39.3zm23-165c3.1 3.1 3.1 8.2 0 11.3l-7.4 7.4c-22.4 22.4-51.2 37.2-82.5 42.5l-2.5 .4c-4.4 .7-8.5-2.2-9.2-6.6s2.2-8.5 6.6-9.2l2.5-.4c28-4.7 53.8-17.9 73.8-38l7.4-7.4c3.1-3.1 8.2-3.1 11.3 0zm100.7 11.3c-3.1-3.1-3.1-8.2 0-11.3s8.2-3.1 11.3 0l7.4 7.4c20 20 45.8 33.3 73.8 38l2.5 .4c4.4 .7 7.3 4.8 6.6 9.2s-4.8 7.3-9.2 6.6l-2.5-.4c-31.3-5.2-60.1-20.1-82.5-42.5l-7.4-7.4z"/></svg>