<svg xmlns="http://www.w3.org/2000/svg" viewBox="0 0 512 512"><!--! Font Awesome Pro 7.0.0 by @fontawesome - https://fontawesome.com License - https://fontawesome.com/license (Commercial License) Copyright 2025 Fonticons, Inc. --><path fill="currentColor" d="M256 16a240 240 0 1 1 0 480 240 240 0 1 1 0-480zm0 496a256 256 0 1 0 0-512 256 256 0 1 0 0 512zM179.6 381.8c10.2-31 40.4-53.8 76.4-53.8 36 0 66.2 22.8 76.4 53.8-22.6-11.2-48.7-17.5-76.4-17.5-27.7 0-53.7 6.3-76.4 17.5zM163.7 379c-2.1 6.8 .9 13 5.7 16.4 4.6 3.2 11 3.9 16.6 1.1 20.6-10.2 44.4-16.1 69.9-16.1 25.5 0 49.4 5.9 70 16.2 5.6 2.8 12 2.1 16.6-1.1 4.8-3.3 7.8-9.5 5.7-16.4-11.7-38.9-48.7-67-92.3-67-43.6 0-80.6 28.1-92.3 67zM176 256a16 16 0 1 0 0-32 16 16 0 1 0 0 32zm176-16a16 16 0 1 0 -32 0 16 16 0 1 0 32 0zM130.5 168.4c-4.2-1.4-8.7 .9-10.1 5.1s.9 8.7 5.1 10.1l96 32c4.2 1.4 8.7-.9 10.1-5.1s-.9-8.7-5.1-10.1l-96-32zm256 15.2c4.2-1.4 6.5-5.9 5.1-10.1s-5.9-6.5-10.1-5.1l-96 32c-4.2 1.4-6.5 5.9-5.1 10.1s5.9 6.5 10.1 5.1l96-32z"/></svg>