<svg xmlns="http://www.w3.org/2000/svg" viewBox="0 0 576 512"><!--! Font Awesome Pro 7.0.0 by @fontawesome - https://fontawesome.com License - https://fontawesome.com/license (Commercial License) Copyright 2025 Fonticons, Inc. --><path fill="currentColor" d="M491.1 384C448.5 451.3 373.5 496 288 496 155.5 496 48 388.5 48 256S155.5 16 288 16c124.9 0 227.5 95.4 238.9 217.3-8.9-5.9-19.5-9.3-30.9-9.3l-176 0c-4.4 0-8 3.6-8 8s3.6 8 8 8l176 0c22.1 0 40 17.9 40 40s-17.9 40-40 40l-96 0c-4.4 0-8 3.6-8 8s3.6 8 8 8l96 0c30.9 0 56-25.1 56-56 0-10.6-2.9-20.5-8-28.9-2.6-139.1-116.2-251.1-256-251.1-141.4 0-256 114.6-256 256S146.6 512 288 512c94.8 0 177.5-51.5 221.8-128l-18.7 0zM224 176a16 16 0 1 0 -32 0 16 16 0 1 0 32 0zm144 16a16 16 0 1 0 0-32 16 16 0 1 0 0 32zM240 368l72 0c4.4 0 8-3.6 8-8s-3.6-8-8-8l-72 0c-26.5 0-48 21.5-48 48l0 8c0 4.4 3.6 8 8 8s8-3.6 8-8l0-8c0-17.7 14.3-32 32-32z"/></svg>