<svg xmlns="http://www.w3.org/2000/svg" viewBox="0 0 512 512"><!--! Font Awesome Pro 7.0.0 by @fontawesome - https://fontawesome.com License - https://fontawesome.com/license (Commercial License) Copyright 2025 Fonticons, Inc. --><path fill="currentColor" d="M366 469.4C443.2 429.5 496 348.9 496 256 496 123.5 388.5 16 256 16S16 123.5 16 256C16 348.9 68.8 429.5 146 469.4 147.4 476.5 149.5 483.5 152.2 490.1 62.5 450.2 0 360.4 0 256 0 114.6 114.6 0 256 0S512 114.6 512 256c0 104.4-62.5 194.2-152.2 234.1 2.7-6.6 4.7-13.5 6.1-20.7zm-180.8-79c4.3-17.5 20.1-30.4 38.8-30.4 13.1 0 24.7 6.3 32 16 7.3-9.7 18.9-16 32-16 21.7 0 39.4 17.3 40 38.9 2.7-1.3 5.4-2.8 8-4.3 57.5-33.2 83.5-100.1 67.3-161.4-.4-1.3-1.1-2.2-2.5-2.6-1.5-.5-3.7-.5-5.9 .7L165.1 363.9c-2.1 1.2-3.2 3.1-3.6 4.7-.3 1.4 .1 2.5 1 3.5 7 6.9 14.5 13 22.6 18.3zm158.8 18c-5.2 3-10.6 5.7-16 8.1l0 23.5c0 39.8-32.2 72-72 72s-72-32.2-72-72l0-31.5c-11.8-6.8-22.8-15.2-32.7-25-10.1-10-6.5-26.3 5.8-33.4L386.9 217.4c12.3-7.1 28.2-2 31.8 11.7 18 68.1-10.8 142.5-74.8 179.4zm-32-.4l0-8c0-13.3-10.7-24-24-24s-24 10.7-24 24l0 16c0 4.4-3.6 8-8 8s-8-3.6-8-8l0-16c0-13.3-10.7-24-24-24s-24 10.7-24 24l0 40c0 30.9 25.1 56 56 56s56-25.1 56-56l0-32zM144 208a16 16 0 1 1 0 32 16 16 0 1 1 0-32zm144 16c35.3 0 64-28.7 64-64s-28.7-64-64-64c9.7 7.3 16 18.9 16 32 0 22.1-17.9 40-40 40-17.1 0-31.8-10.8-37.5-25.9-1.7 5.7-2.5 11.7-2.5 17.9 0 35.3 28.7 64 64 64zm0-144a80 80 0 1 1 0 160 80 80 0 1 1 0-160zm0 48a24 24 0 1 0 -48 0 24 24 0 1 0 48 0z"/></svg>