<svg xmlns="http://www.w3.org/2000/svg" viewBox="0 0 512 512"><!--! Font Awesome Pro 7.0.0 by @fontawesome - https://fontawesome.com License - https://fontawesome.com/license (Commercial License) Copyright 2025 Fonticons, Inc. --><path fill="currentColor" d="M16 256C16 123.5 123.5 16 256 16S496 123.5 496 256c0 88.8-48.3 166.4-120 207.9l0 18.3c55-29.2 98.1-77.9 120-136.9L496 472c0 4.4 3.6 8 8 8s8-3.6 8-8l0-216C512 114.6 397.4 0 256 0S0 114.6 0 256L0 376c0 4.4 3.6 8 8 8s8-3.6 8-8l0-120zM221.1 493.5c-69.6-10.2-129.5-50.2-166.3-106.6-1.4 6.2-4.1 12-7.7 17.1 42.8 60.4 111.2 101.4 189.3 107.3-6.5-4.6-11.7-10.7-15.3-17.8zM184 304l0 96c-26.5 0-48-21.5-48-48s21.5-48 48-48zm64 96l-48 0 0-96 48 0 0 96zm16 0l0-96 48 0 0 96-48 0zm64 0l0-96c26.5 0 48 21.5 48 48s-21.5 48-48 48zM184 288c-35.3 0-64 28.7-64 64s28.7 64 64 64l72 0 0 56c0 4.4 3.6 8 8 8s8-3.6 8-8l0-56 48 0 0 88c0 4.4 3.6 8 8 8s8-3.6 8-8l0-88.5c31.6-3.9 56-30.9 56-63.5 0-35.3-28.7-64-64-64l-144 0zm-8-64a16 16 0 1 0 0-32 16 16 0 1 0 0 32zm176-16a16 16 0 1 0 -32 0 16 16 0 1 0 32 0z"/></svg>