<svg xmlns="http://www.w3.org/2000/svg" viewBox="0 0 512 512"><!--! Font Awesome Pro 7.0.0 by @fontawesome - https://fontawesome.com License - https://fontawesome.com/license (Commercial License) Copyright 2025 Fonticons, Inc. --><path fill="currentColor" d="M64 144c27.6 0 48-20.4 48-48 0-13.8-6.1-28.3-16.6-43-8.9-12.6-20.3-24.2-31.4-34.3-11.1 10.1-22.5 21.8-31.4 34.3-10.4 14.7-16.6 29.2-16.6 43 0 27.6 20.4 48 48 48zM69.2 1.9c26.3 23 58.8 57.2 58.8 94.1 0 36.4-27.6 64-64 64S0 132.4 0 96c0-36.9 32.5-71.1 58.8-94.1 3-2.6 7.4-2.6 10.4 0zM0 256c0-21.8 2.7-42.9 7.8-63.1 4.7 2.7 9.6 5.1 14.7 7.2-4.3 17.9-6.5 36.7-6.5 55.9 0 132.6 107.5 240 240 240S496 388.6 496 256 388.5 16 256 16c-34.7 0-67.7 7.4-97.6 20.7-2.8-4.9-5.7-9.5-8.5-13.7 32.3-14.7 68.2-22.9 106.1-22.9 141.4 0 256 114.6 256 256S397.4 512 256 512 0 397.4 0 256zM182.7 407.3c-2.4 3.7-7.4 4.7-11.1 2.2s-4.7-7.4-2.2-11.1C188 370.5 219.8 352 256 352s68 18.5 86.7 46.5c2.4 3.7 1.4 8.6-2.2 11.1s-8.6 1.4-11.1-2.2C313.6 383.6 286.6 368 256 368s-57.6 15.6-73.3 39.3zM120 280c0-4.4 3.6-8 8-8l88 0c4.4 0 8 3.6 8 8s-3.6 8-8 8l-88 0c-4.4 0-8-3.6-8-8zm176-8l88 0c4.4 0 8 3.6 8 8s-3.6 8-8 8l-88 0c-4.4 0-8-3.6-8-8s3.6-8 8-8z"/></svg>