<svg xmlns="http://www.w3.org/2000/svg" viewBox="0 0 640 512"><!--! Font Awesome Pro 7.0.0 by @fontawesome - https://fontawesome.com License - https://fontawesome.com/license (Commercial License) Copyright 2025 Fonticons, Inc. --><path fill="currentColor" d="M288.1 496c39.2 0 76.2-9.4 108.9-26 2.1 5.2 4.2 10.2 6.3 14.8-34.6 17.5-73.7 27.3-115.1 27.3-141.4 0-256-114.6-256-256s114.6-256 256-256 256 114.6 256 256c0 4.1-.1 8.2-.3 12.3-1.9-1.3-3.9-2.5-5.9-3.7-3.2-1.9-6.5-3.5-9.8-5 0-1.2 0-2.4 0-3.6 0-132.5-107.5-240-240-240s-240 107.5-240 240 107.5 240 240 240zm0-200l24 0c22.1 0 40 17.9 40 40 0 13.1-6.3 24.7-16 32 9.7 7.3 16 18.9 16 32 0 22.1-17.9 40-40 40l-24 0c-4.4 0-8-3.6-8-8s3.6-8 8-8l24 0c13.3 0 24-10.7 24-24s-10.7-24-24-24l-24 0c-4.4 0-8-3.6-8-8s3.6-8 8-8l24 0c13.3 0 24-10.7 24-24s-10.7-24-24-24l-24 0c-4.4 0-8-3.6-8-8s3.6-8 8-8zm-80-104a16 16 0 1 1 0 32 16 16 0 1 1 0-32zm152 0c-22.1 0-40 17.9-40 40 0 4.4-3.6 8-8 8s-8-3.6-8-8c0-30.9 25.1-56 56-56l16 0c30.9 0 56 25.1 56 56 0 4.4-3.6 8-8 8s-8-3.6-8-8c0-22.1-17.9-40-40-40l-16 0zm86.2 146l-1.3 2.3c-12.4 21.5-9.1 52 0 81.3 8.8 28.5 22.4 53.4 27.7 62.7 10.7 0 39.1-.8 68.2-7.4 29.9-6.8 58-19.2 70.4-40.6l1.3-2.3c12.5-21.7 5.1-49.4-16.6-61.9-12.4-7.1-27.4-8-40.5-2.4l-12.3 5.2c-2.3 1-5 .8-7.1-.4s-3.6-3.5-3.9-6l-1.6-13.2c-1.7-14.2-10-26.7-22.3-33.8-21.7-12.5-49.4-5.1-61.9 16.6zm69.9-30.4c16.7 9.7 27.9 26.6 30.2 45.8l.3 2.6 2.5-1c17.8-7.6 38-6.4 54.8 3.3 29.3 16.9 39.4 54.4 22.5 83.8l-1.3 2.3c-16 27.7-50.1 41.3-80.7 48.2-31.1 7-61.1 7.8-72.1 7.8-5.5 0-10.6-2.9-13.3-7.7-5.5-9.5-19.9-35.8-29.3-66.3-9.3-29.9-14.6-66.3 1.4-94l1.3-2.3c16.9-29.3 54.4-39.4 83.8-22.4z"/></svg>