<svg xmlns="http://www.w3.org/2000/svg" viewBox="0 0 512 512"><!--! Font Awesome Pro 7.0.0 by @fontawesome - https://fontawesome.com License - https://fontawesome.com/license (Commercial License) Copyright 2025 Fonticons, Inc. --><path fill="currentColor" d="M496 256a240 240 0 1 0 -480 0 240 240 0 1 0 480 0zM0 256a256 256 0 1 1 512 0 256 256 0 1 1 -512 0zM256 416c66.4 0 122.4-45 139-106.2 .4-1.3 .1-2.4-.8-3.5-1.1-1.2-3-2.3-5.4-2.3l-265.4 0c-2.4 0-4.4 1.1-5.4 2.3-.9 1.1-1.2 2.2-.8 3.5 16.6 61.2 72.6 106.2 139 106.2zM123.3 288l265.4 0c14.2 0 25.4 12.3 21.7 26-18.5 68-80.6 118-154.4 118S120 382 101.6 314c-3.7-13.7 7.5-26 21.7-26zM160 192a16 16 0 1 1 32 0 16 16 0 1 1 -32 0zm176-16a16 16 0 1 1 0 32 16 16 0 1 1 0-32z"/></svg>