<svg xmlns="http://www.w3.org/2000/svg" viewBox="0 0 512 512"><!--! Font Awesome Pro 7.0.0 by @fontawesome - https://fontawesome.com License - https://fontawesome.com/license (Commercial License) Copyright 2025 Fonticons, Inc. --><path fill="currentColor" d="M176 64a48 48 0 1 0 -96 0 48 48 0 1 0 96 0zM64 64A64 64 0 1 1 192 64 64 64 0 1 1 64 64zm-.8 159.9l-38 123.4C22.1 357.6 29.8 368 40.5 368L72 368c4.4 0 8 3.6 8 8l0 88c0 17.7 14.3 32 32 32l32 0c5.8 0 11.3-1.6 16-4.3l0 17.5c-5 1.8-10.4 2.7-16 2.7l-32 0c-26.5 0-48-21.5-48-48l0-80-23.5 0C19 384 3.6 363.2 9.9 342.6l38-123.4c10.8-35.2 43.3-59.2 80.1-59.2 9 0 17.7 1.4 25.9 4.1-1 5.3-1.7 10.8-1.8 16.3-7.5-2.9-15.7-4.4-24.1-4.4-29.8 0-56.1 19.4-64.8 47.9zM368 512c-5.6 0-11-1-16-2.7l0-17.5c4.7 2.7 10.2 4.3 16 4.3l32 0c17.7 0 32-14.3 32-32l0-88c0-4.4 3.6-8 8-8l31.5 0c10.8 0 18.5-10.4 15.3-20.7l-38-123.4c-8.8-28.5-35-47.9-64.8-47.9-8.4 0-16.5 1.5-24.1 4.4-.2-5.6-.8-11-1.8-16.3 8.2-2.7 16.9-4.1 25.9-4.1 36.8 0 69.3 24 80.1 59.2l38 123.4c6.3 20.6-9.1 41.4-30.6 41.4l-23.5 0 0 80c0 26.5-21.5 48-48 48l-32 0zM432 64a48 48 0 1 0 -96 0 48 48 0 1 0 96 0zM320 64a64 64 0 1 1 128 0 64 64 0 1 1 -128 0zM296 184a40 40 0 1 0 -80 0 40 40 0 1 0 80 0zm-96 0a56 56 0 1 1 112 0 56 56 0 1 1 -112 0zM320 336c0-35.3-28.7-64-64-64s-64 28.7-64 64l0 32c0 17.7 14.3 32 32 32l64 0c17.7 0 32-14.3 32-32l0-32zm-144 0c0-44.2 35.8-80 80-80s80 35.8 80 80l0 32c0 20.9-13.4 38.7-32 45.3l0 90.7c0 4.4-3.6 8-8 8s-8-3.6-8-8l0-88-64 0 0 88c0 4.4-3.6 8-8 8s-8-3.6-8-8l0-90.7c-18.6-6.6-32-24.4-32-45.3l0-32z"/></svg>