<svg xmlns="http://www.w3.org/2000/svg" viewBox="0 0 512 512"><!--! Font Awesome Pro 7.0.0 by @fontawesome - https://fontawesome.com License - https://fontawesome.com/license (Commercial License) Copyright 2025 Fonticons, Inc. --><path fill="currentColor" d="M224 32c4.4 0 8 3.6 8 8l0 40 120 0c17.7 0 32 14.3 32 32s-14.3 32-32 32l-120 0 0 32 26.7 0c10.6 0 20.8 4.2 28.3 11.7l36.3 36.3 52.7 0c75.1 0 136 60.9 136 136l0 16c0 22.1-17.9 40-40 40l-48 0c-22.1 0-40-17.9-40-40 0-13.3-10.8-24-24-24l-40.1 .1C298 381.2 263.2 400 224 400s-74-18.8-95.9-47.8L8 352c-4.4 0-8-3.6-8-8s3.6-8 8-8l124.2 .2c2.6 0 5 1.3 6.5 3.4 18.8 26.9 50 44.4 85.3 44.4s66.4-17.5 85.3-44.4c1.5-2.1 3.9-3.4 6.5-3.4l44.2-.1c22.1 0 40 17.9 40 40 0 13.2 10.7 24 24 24l48 0c13.3 0 24-10.7 24-24l0-16c0-66.3-53.7-120-120-120l-56 0c-2.1 0-4.2-.8-5.7-2.3L275.7 199c-4.5-4.5-10.6-7-17-7l-69.5 0c-6.4 0-12.5 2.5-17 7l-38.6 38.6c-1.5 1.5-3.5 2.3-5.7 2.3L8 240c-4.4 0-8-3.6-8-8s3.6-8 8-8l116.7 0 36.3-36.3c7.5-7.5 17.7-11.7 28.3-11.7l26.7 0 0-32-120 0c-17.7 0-32-14.3-32-32S78.3 80 96 80l120 0 0-40c0-4.4 3.6-8 8-8zM96 96c-8.8 0-16 7.2-16 16s7.2 16 16 16l120 0 0-32-120 0zm256 0l-120 0 0 32 120 0c8.8 0 16-7.2 16-16s-7.2-16-16-16z"/></svg>