<svg xmlns="http://www.w3.org/2000/svg" viewBox="0 0 512 512"><!--! Font Awesome Pro 7.0.0 by @fontawesome - https://fontawesome.com License - https://fontawesome.com/license (Commercial License) Copyright 2025 Fonticons, Inc. --><path fill="currentColor" d="M256 57.6l44.5 55.6c2.3 2.8 3.5 6.4 3.5 10L304 448c0 8.8-7.2 16-16 16l-64 0c-8.8 0-16-7.2-16-16l0-324.8c0-3.6 1.2-7.2 3.5-10L256 57.6zm-12.5-10L199 103.2c-4.5 5.7-7 12.7-7 20l0 52.8-64 0 0-52.8c0-7.3-2.5-14.3-7-20L76.5 47.6c-6.4-8-18.6-8-25 0L7 103.2c-4.5 5.7-7 12.7-7 20L0 448c0 17.7 14.3 32 32 32l64 0c17.7 0 32-14.3 32-32l0-64 64 0 0 64c0 17.7 14.3 32 32 32l64 0c17.7 0 32-14.3 32-32l0-64 64 0 0 64c0 17.7 14.3 32 32 32l64 0c17.7 0 32-14.3 32-32l0-324.8c0-7.3-2.5-14.3-7-20L460.5 47.6c-6.4-8-18.6-8-25 0L391 103.2c-4.5 5.7-7 12.7-7 20l0 52.8-64 0 0-52.8c0-7.3-2.5-14.3-7-20L268.5 47.6c-6.4-8-18.6-8-25 0zM384 192l0 176-64 0 0-176 64 0zm-256 0l64 0 0 176-64 0 0-176zM19.5 113.2L64 57.6 108.5 113.2c2.3 2.8 3.5 6.4 3.5 10L112 448c0 8.8-7.2 16-16 16l-64 0c-8.8 0-16-7.2-16-16l0-324.8c0-3.6 1.2-7.2 3.5-10zm384 0l44.5-55.6 44.5 55.6c2.3 2.8 3.5 6.4 3.5 10L496 448c0 8.8-7.2 16-16 16l-64 0c-8.8 0-16-7.2-16-16l0-324.8c0-3.6 1.2-7.2 3.5-10z"/></svg>