<svg xmlns="http://www.w3.org/2000/svg" viewBox="0 0 640 512"><!--! Font Awesome Pro 7.0.0 by @fontawesome - https://fontawesome.com License - https://fontawesome.com/license (Commercial License) Copyright 2025 Fonticons, Inc. --><path fill="currentColor" d="M384 16c8.8 0 16 7.2 16 16l0 32-160 0 0-32c0-8.8 7.2-16 16-16l128 0zm32 48l0-32c0-17.7-14.3-32-32-32L256 0c-17.7 0-32 14.3-32 32l0 32-56 0c-39.8 0-72 32.2-72 72l0 136 .1 0c-.1 .7-.1 1.3-.1 2 0 30.2 7.6 59.8 22 86.3l12.7 23.3c3.5 6.4 7.3 12.6 11.4 18.6 5.2-2.1 10.5-3.9 15.8-5.3-4.8-6.6-9.2-13.6-13.1-20.9l-12.7-23.3c-13.2-24.1-20.1-51.2-20.1-78.7 0-1.1 .9-2 2-2L526 272c1.1 0 2 .9 2 2 0 27.5-6.9 54.5-20.1 78.7L495.2 376c-4 7.3-8.4 14.3-13.1 20.9 5.3 1.4 10.6 3.2 15.8 5.3 4.1-6 7.9-12.1 11.4-18.6L522 360.4c14.4-26.5 22-56.2 22-86.3 0-.7 0-1.4-.1-2l.1 0 0-136c0-39.8-32.2-72-72-72l-56 0zM528 256.1c-.7-.1-1.3-.1-2-.1L114 256c-.7 0-1.4 0-2 .1L112 136c0-30.9 25.1-56 56-56l304 0c30.9 0 56 25.1 56 56l0 120.1zM397.4 463.4c28.8-20.5 67.6-20.5 96.4 0 19.3 13.8 40.9 25.9 63.8 30.3 23.2 4.4 47.4 .9 71.1-16 3.6-2.6 4.4-7.6 1.9-11.2s-7.6-4.4-11.2-1.9c-19.9 14.2-39.6 17-58.8 13.4-19.6-3.7-39-14.3-57.5-27.6-34.3-24.5-80.6-24.5-115 0-25.4 18.1-47.2 29.6-68.1 29.6s-42.7-11.5-68.1-29.6c-34.3-24.5-80.6-24.5-115 0-23.6 16.8-48.2 29.2-72.9 29-14.2-.1-28.7-4.3-43.4-14.8-3.6-2.6-8.6-1.7-11.2 1.9s-1.7 8.6 1.9 11.2c17.4 12.4 35.1 17.7 52.6 17.8 29.8 .2 57.9-14.6 82.2-32 28.8-20.5 67.6-20.5 96.4 0 25.5 18.2 51 32.6 77.4 32.6s51.9-14.4 77.4-32.6z"/></svg>