<svg xmlns="http://www.w3.org/2000/svg" viewBox="0 0 384 512"><!--! Font Awesome Pro 7.0.0 by @fontawesome - https://fontawesome.com License - https://fontawesome.com/license (Commercial License) Copyright 2025 Fonticons, Inc. --><path fill="currentColor" d="M64 16C37.5 16 16 37.5 16 64l0 240 352 0 0-117.5c0-3.6-.4-7.1-1.2-10.5L264 176c-30.9 0-56-25.1-56-56l0-102.8c-3.4-.8-6.9-1.2-10.5-1.2L64 16zM8 320L0 320 0 64C0 28.7 28.7 0 64 0L197.5 0c17 0 33.3 6.7 45.3 18.7L365.3 141.3c12 12 18.7 28.3 18.7 45.3L384 320 8 320zM360 160c-1.8-2.7-3.8-5.1-6.1-7.4L231.4 30.1c-2.3-2.3-4.8-4.3-7.4-6.1l0 96c0 22.1 17.9 40 40 40l96 0zM0 416l0-64 16 0 0 64-16 0zm0 32l16 0c0 26.5 21.5 48 48 48l0 16c-35.3 0-64-28.7-64-64zm320 64l0-16c26.5 0 48-21.5 48-48l16 0c0 35.3-28.7 64-64 64zm64-96l-16 0 0-64 16 0 0 64zM96 512l0-16 80 0 0 16-80 0zm112 0l0-16 80 0 0 16-80 0z"/></svg>