<svg xmlns="http://www.w3.org/2000/svg" viewBox="0 0 576 512"><!--! Font Awesome Pro 7.0.0 by @fontawesome - https://fontawesome.com License - https://fontawesome.com/license (Commercial License) Copyright 2025 Fonticons, Inc. --><path fill="currentColor" d="M96 16l133.5 0c3.6 0 7.1 .4 10.5 1.2L240 120c0 30.9 25.1 56 56 56l102.8 0c.8 3.4 1.2 6.9 1.2 10.5l0 149.5 16 0 0-149.5c0-17-6.7-33.3-18.7-45.3L274.7 18.7C262.7 6.7 246.5 0 229.5 0L96 0C60.7 0 32 28.7 32 64l0 384c0 35.3 28.7 64 64 64l80 0 0-16-80 0c-26.5 0-48-21.5-48-48L48 64c0-26.5 21.5-48 48-48zM392 160l-96 0c-22.1 0-40-17.9-40-40l0-96c2.7 1.8 5.1 3.8 7.4 6.1L385.9 152.6c2.3 2.3 4.3 4.8 6.1 7.4zM240 400c-4.4 0-8 3.6-8 8l0 128c0 4.4 3.6 8 8 8s8-3.6 8-8l0-40 24 0c26.5 0 48-21.5 48-48s-21.5-48-48-48l-32 0zm32 80l-24 0 0-64 24 0c17.7 0 32 14.3 32 32s-14.3 32-32 32zm96-80c-4.4 0-8 3.6-8 8l0 128c0 4.4 3.6 8 8 8l32 0c22.1 0 40-17.9 40-40l0-64c0-22.1-17.9-40-40-40l-32 0zm8 128l0-112 24 0c13.3 0 24 10.7 24 24l0 64c0 13.3-10.7 24-24 24l-24 0zM488 408l0 128c0 4.4 3.6 8 8 8s8-3.6 8-8l0-56 40 0c4.4 0 8-3.6 8-8s-3.6-8-8-8l-40 0 0-48 40 0c4.4 0 8-3.6 8-8s-3.6-8-8-8l-48 0c-4.4 0-8 3.6-8 8z"/></svg>