<svg xmlns="http://www.w3.org/2000/svg" viewBox="0 0 384 512"><!--! Font Awesome Pro 7.0.0 by @fontawesome - https://fontawesome.com License - https://fontawesome.com/license (Commercial License) Copyright 2025 Fonticons, Inc. --><path fill="currentColor" d="M64 16l133.5 0c3.6 0 7.1 .4 10.5 1.2L208 120c0 30.9 25.1 56 56 56l102.8 0c.8 3.4 1.2 6.9 1.2 10.5L368 448c0 26.5-21.5 48-48 48l-96 0 0 16 96 0c35.3 0 64-28.7 64-64l0-261.5c0-17-6.7-33.3-18.7-45.3L242.7 18.7C230.7 6.7 214.5 0 197.5 0L64 0C28.7 0 0 28.7 0 64l0 224 16 0 0-224c0-26.5 21.5-48 48-48zM360 160l-96 0c-22.1 0-40-17.9-40-40l0-96c2.7 1.8 5.1 3.8 7.4 6.1L353.9 152.6c2.3 2.3 4.3 4.8 6.1 7.4zM32 352l112 0c8.8 0 16 7.2 16 16l0 112c0 8.8-7.2 16-16 16L32 496c-8.8 0-16-7.2-16-16l0-112c0-8.8 7.2-16 16-16zM0 368L0 480c0 17.7 14.3 32 32 32l112 0c17.7 0 32-14.3 32-32l0-112c0-17.7-14.3-32-32-32L32 336c-17.7 0-32 14.3-32 32z"/></svg>