<svg xmlns="http://www.w3.org/2000/svg" viewBox="0 0 576 512"><!--! Font Awesome Pro 7.0.0 by @fontawesome - https://fontawesome.com License - https://fontawesome.com/license (Commercial License) Copyright 2025 Fonticons, Inc. --><path fill="currentColor" d="M304 400c4.4 0 8 3.6 8 8s-3.6 8-8 8l-24 0 0 120c0 4.4-3.6 8-8 8s-8-3.6-8-8l0-120-24 0c-4.4 0-8-3.6-8-8s3.6-8 8-8l64 0zm128 0c4.4 0 8 3.6 8 8s-3.6 8-8 8l-56 0 0 48 40 0c4.4 0 8 3.6 8 8s-3.6 8-8 8l-40 0 0 48 56 0c4.4 0 8 3.6 8 8s-3.6 8-8 8l-64 0c-4.4 0-8-3.6-8-8l0-128 .2-1.6c.7-3.6 4-6.4 7.8-6.4l64 0zm128 0c4.4 0 8 3.6 8 8 0 10.5-2.7 20.8-7.9 29.9l-2.3 3.8-20.2 30.2 20.2 30.2c6.7 10 10.2 21.7 10.2 33.8 0 4.4-3.6 8-8 8s-8-3.6-8-8c0-8.9-2.6-17.5-7.5-24.9l-16.5-24.7-16.5 24.7c-4.9 7.4-7.5 16-7.5 24.9 0 4.4-3.6 8-8 8s-8-3.6-8-8c0-12 3.6-23.8 10.2-33.8l20.2-30.2-20.2-30.2c-6.7-10-10.2-21.7-10.2-33.8 0-4.4 3.6-8 8-8s8 3.6 8 8c0 8.9 2.6 17.5 7.5 24.9l16.5 24.7 16.5-24.7c4.9-7.4 7.5-16 7.5-24.9 0-4.4 3.6-8 8-8zM235.8 .3c14.7 1.5 28.4 7.9 38.9 18.4L397.3 141.2c12 12 18.7 28.3 18.7 45.2l0 149.5-16 0 0-149.5c0-3.6-.4-7.1-1.2-10.5L296 176c-30.9 0-56-25.1-56-56l0-102.8c-3.4-.8-6.9-1.2-10.5-1.2L96 16C69.5 16 48 37.5 48 64l0 384c0 26.5 21.5 48 48 48l80 0 0 16-80 0-6.5-.3C57.2 508.4 32 481.1 32 448L32 64C32 30.9 57.2 3.6 89.5 .3L96 0 229.5 0 235.8 .3zM256 120c0 22.1 17.9 40 40 40l96 0c-.9-1.3-1.8-2.7-2.8-3.9l-3.2-3.5-122.5-122.5c-2.3-2.3-4.8-4.3-7.4-6.1l0 96z"/></svg>