<svg xmlns="http://www.w3.org/2000/svg" viewBox="0 0 640 512"><!--! Font Awesome Pro 7.0.0 by @fontawesome - https://fontawesome.com License - https://fontawesome.com/license (Commercial License) Copyright 2025 Fonticons, Inc. --><path fill="currentColor" d="M261.5 16L128 16c-26.5 0-48 21.5-48 48l0 384c0 26.5 21.5 48 48 48l149.1 0-3.2 16-145.9 0c-35.3 0-64-28.7-64-64L64 64C64 28.7 92.7 0 128 0L261.5 0c17 0 33.3 6.7 45.3 18.7L429.3 141.3c12 12 18.7 28.3 18.7 45.3l0 81.2-16 16 0-97.2c0-3.6-.4-7.1-1.2-10.5L328 176c-30.9 0-56-25.1-56-56l0-102.8c-3.4-.8-6.9-1.2-10.5-1.2zm54 384.2c-4.9 4.9-9.3 10.2-13.1 15.8L240 416c-3.5 0-6.6-2.3-7.7-5.7l-21.2-70.7c-.6-2.1-2.6-3.6-4.9-3.6-1.5 0-3 .7-4 1.9L142.3 413c-2.8 3.4-7.8 4-11.2 1.2s-4-7.8-1.2-11.2l60.1-75.1c4-5 10-7.9 16.4-7.9 9.3 0 17.5 6.1 20.2 15l19.5 65 69.7 0-.2 .2zM418 152.6L295.5 30.1c-2.3-2.3-4.8-4.3-7.4-6.1l0 96c0 22.1 17.9 40 40 40l96 0c-1.8-2.7-3.8-5.1-6.1-7.4zM336.4 527.5L393.9 516c9.3-1.9 17.8-6.4 24.5-13.1L551 370.3 493.6 312.9 361 445.5c-6.7 6.7-11.3 15.2-13.1 24.5l-11.5 57.5zM588.7 332.6c15.8-15.8 15.8-41.5 0-57.4s-41.5-15.8-57.4 0l-26.4 26.4 57.4 57.4 26.4-26.4zM320.3 526.5l11.9-59.6c2.5-12.4 8.6-23.8 17.5-32.7L520 263.9c22.1-22.1 57.9-22.1 80 0s22.1 57.9 0 80L429.7 514.2c-8.9 8.9-20.3 15-32.7 17.5l-59.6 11.9c-.9 .2-1.9 .3-2.9 .3-8 0-14.6-6.5-14.6-14.6 0-1 .1-1.9 .3-2.9z"/></svg>