<svg xmlns="http://www.w3.org/2000/svg" viewBox="0 0 576 512"><!--! Font Awesome Pro 7.0.0 by @fontawesome - https://fontawesome.com License - https://fontawesome.com/license (Commercial License) Copyright 2025 Fonticons, Inc. --><path fill="currentColor" d="M280 400c17.7 0 32 14.3 32 32l0 80c0 17.7-14.3 32-32 32l-16 0c-17.7 0-32-14.3-32-32l0-80c0-17.7 14.3-32 32-32l16 0zm120 0c22.1 0 40 17.9 40 40l0 64c0 22.1-17.9 40-40 40l-32 0c-4.4 0-8-3.6-8-8l0-128 .2-1.6c.7-3.6 4-6.4 7.8-6.4l32 0zm144 0c4.4 0 8 3.6 8 8s-3.6 8-8 8l-40 0 0 48 40 0c4.4 0 8 3.6 8 8s-3.6 8-8 8l-40 0 0 56c0 4.4-3.6 8-8 8s-8-3.6-8-8l0-128 .2-1.6c.7-3.6 4-6.4 7.8-6.4l48 0zM264 416c-8.8 0-16 7.2-16 16l0 80c0 8.8 7.2 16 16 16l16 0c8.8 0 16-7.2 16-16l0-80c0-8.8-7.2-16-16-16l-16 0zM376 528l24 0c13.3 0 24-10.7 24-24l0-64c0-13.3-10.7-24-24-24l-24 0 0 112zM235.8 .3c14.7 1.5 28.4 7.9 38.9 18.4L397.3 141.2c12 12 18.7 28.3 18.7 45.2l0 149.5-16 0 0-149.5c0-3.6-.4-7.1-1.2-10.5L296 176c-30.9 0-56-25.1-56-56l0-102.8c-3.4-.8-6.9-1.2-10.5-1.2L96 16C69.5 16 48 37.5 48 64l0 384c0 26.5 21.5 48 48 48l80 0 0 16-80 0-6.5-.3C57.2 508.4 32 481.1 32 448L32 64C32 30.9 57.2 3.6 89.5 .3L96 0 229.5 0 235.8 .3zM256 120c0 22.1 17.9 40 40 40l96 0c-.9-1.3-1.8-2.7-2.8-3.9l-3.2-3.5-122.5-122.5c-2.3-2.3-4.8-4.3-7.4-6.1l0 96z"/></svg>