<svg xmlns="http://www.w3.org/2000/svg" viewBox="0 0 512 512"><!--! Font Awesome Pro 7.1.0 by @fontawesome - https://fontawesome.com License - https://fontawesome.com/license (Commercial License) Copyright 2025 Fonticons, Inc. --><path fill="currentColor" d="M202.7 32c13.8 0 27.3 4.5 38.4 12.8l38.4 28.8c5.5 4.2 12.3 6.4 19.2 6.4L448 80c35.3 0 64 28.7 64 64l0 240c0 35.3-28.7 64-64 64L64 448c-35.3 0-64-28.7-64-64L0 96C0 60.7 28.7 32 64 32l138.7 0zM64 48C37.5 48 16 69.5 16 96l0 288c0 26.5 21.5 48 48 48l384 0c26.5 0 48-21.5 48-48l0-240c0-26.5-21.5-48-48-48L298.7 96c-10.4 0-20.5-3.4-28.8-9.6L231.5 57.6C223.2 51.4 213 48 202.7 48L64 48zM337.7 179.7c2.6-3.6 7.6-4.3 11.2-1.7s4.3 7.6 1.8 11.2L236.9 345.5c-1.4 1.9-3.6 3.1-5.9 3.3s-4.7-.7-6.3-2.4l-62.3-64.5c-3.1-3.2-3-8.2 .2-11.3s8.2-3 11.3 .2l55.7 57.6 108.1-148.7z"/></svg>