<svg xmlns="http://www.w3.org/2000/svg" viewBox="0 0 512 512"><!--! Font Awesome Pro 7.0.0 by @fontawesome - https://fontawesome.com License - https://fontawesome.com/license (Commercial License) Copyright 2025 Fonticons, Inc. --><path fill="currentColor" d="M448 432L64 432c-26.5 0-48-21.5-48-48L16 96c0-26.5 21.5-48 48-48l138.7 0c10.4 0 20.5 3.4 28.8 9.6l38.4 28.8c8.3 6.2 18.4 9.6 28.8 9.6L448 96c26.5 0 48 21.5 48 48l0 240c0 26.5-21.5 48-48 48zM64 448l384 0c35.3 0 64-28.7 64-64l0-240c0-35.3-28.7-64-64-64L298.7 80c-6.9 0-13.7-2.2-19.2-6.4L241.1 44.8C230 36.5 216.5 32 202.7 32L64 32C28.7 32 0 60.7 0 96L0 384c0 35.3 28.7 64 64 64zm96-210.7c0-25 20.3-45.3 45.3-45.3 14.3 0 27.7 6.7 36.3 18.1l8 10.7c1.5 2 3.9 3.2 6.4 3.2s4.9-1.2 6.4-3.2l8-10.7c8.6-11.4 22-18.1 36.3-18.1 25 0 45.3 20.3 45.3 45.3l0 2.7c0 24.8-18.1 49.5-40.6 70.4-21.9 20.2-46.1 35.1-55.4 40.5-9.3-5.4-33.5-20.2-55.4-40.5-22.5-20.8-40.6-45.6-40.6-70.4l0-2.7zM205.3 176c-33.9 0-61.3 27.5-61.3 61.3l0 2.7c0 32 22.8 60.8 45.8 82.1 23.4 21.6 49.1 37.3 58.5 42.7 4.8 2.8 10.6 2.8 15.4 0 9.5-5.5 35.1-21.1 58.5-42.7 23-21.3 45.8-50.1 45.8-82.1l0-2.7c0-33.9-27.5-61.3-61.3-61.3-19.3 0-37.5 9.1-49.1 24.5l-1.6 2.1-1.6-2.1c-11.6-15.4-29.8-24.5-49.1-24.5z"/></svg>