<svg xmlns="http://www.w3.org/2000/svg" viewBox="0 0 512 512"><!--! Font Awesome Pro 7.0.0 by @fontawesome - https://fontawesome.com License - https://fontawesome.com/license (Commercial License) Copyright 2025 Fonticons, Inc. --><path fill="currentColor" d="M448 432L64 432c-26.5 0-48-21.5-48-48L16 96c0-26.5 21.5-48 48-48l138.7 0c10.4 0 20.5 3.4 28.8 9.6l38.4 28.8c8.3 6.2 18.4 9.6 28.8 9.6L448 96c26.5 0 48 21.5 48 48l0 240c0 26.5-21.5 48-48 48zM64 448l384 0c35.3 0 64-28.7 64-64l0-240c0-35.3-28.7-64-64-64L298.7 80c-6.9 0-13.7-2.2-19.2-6.4L241.1 44.8C230 36.5 216.5 32 202.7 32L64 32C28.7 32 0 60.7 0 96L0 384c0 35.3 28.7 64 64 64zM232 200c0-4.4 3.6-8 8-8l32 0c4.4 0 8 3.6 8 8l0 40c0 4.4 3.6 8 8 8l40 0c4.4 0 8 3.6 8 8l0 32c0 4.4-3.6 8-8 8l-40 0c-4.4 0-8 3.6-8 8l0 40c0 4.4-3.6 8-8 8l-32 0c-4.4 0-8-3.6-8-8l0-40c0-4.4-3.6-8-8-8l-40 0c-4.4 0-8-3.6-8-8l0-32c0-4.4 3.6-8 8-8l40 0c2.1 0 4.2-.8 5.7-2.3s2.3-3.5 2.3-5.7l0-40zm8-24c-13.3 0-24 10.7-24 24l0 32-32 0c-13.3 0-24 10.7-24 24l0 32c0 13.3 10.7 24 24 24l32 0 0 32c0 13.3 10.7 24 24 24l32 0c13.3 0 24-10.7 24-24l0-32 32 0c13.3 0 24-10.7 24-24l0-32c0-13.3-10.7-24-24-24l-32 0 0-32c0-13.3-10.7-24-24-24l-32 0z"/></svg>