<svg xmlns="http://www.w3.org/2000/svg" viewBox="0 0 512 512"><!--! Font Awesome Pro 7.0.0 by @fontawesome - https://fontawesome.com License - https://fontawesome.com/license (Commercial License) Copyright 2025 Fonticons, Inc. --><path fill="currentColor" d="M512 72c0-4.4-3.6-8-8-8l-56 0 0-56c0-4.4-3.6-8-8-8s-8 3.6-8 8l0 56-352 0 0-56c0-4.4-3.6-8-8-8s-8 3.6-8 8l0 56-56 0c-4.4 0-8 3.6-8 8s3.6 8 8 8l56 0 0 352-56 0c-4.4 0-8 3.6-8 8s3.6 8 8 8l56 0 0 56c0 4.4 3.6 8 8 8s8-3.6 8-8l0-56 352 0 0 56c0 4.4 3.6 8 8 8s8-3.6 8-8l0-56 56 0c4.4 0 8-3.6 8-8s-3.6-8-8-8l-56 0 0-352 56 0c4.4 0 8-3.6 8-8zm-80 8l0 352-352 0 0-352 352 0z"/></svg>