<svg xmlns="http://www.w3.org/2000/svg" viewBox="0 0 576 512"><!--! Font Awesome Pro 7.0.0 by @fontawesome - https://fontawesome.com License - https://fontawesome.com/license (Commercial License) Copyright 2025 Fonticons, Inc. --><path fill="currentColor" d="M135.5-26.7c-1.5-4.2-6.1-6.3-10.3-4.8s-6.3 6.1-4.8 10.3l24 65.9-68.1-43.4c-3.7-2.4-8.7-1.3-11 2.5s-1.3 8.7 2.5 11L145.1 64 64 64C28.7 64 0 92.7 0 128L0 448c0 35.3 28.7 64 64 64l156.8 0c-2.9-5.1-5.4-10.4-7.4-16L64 496c-26.5 0-48-21.5-48-48l0-320c0-26.5 21.5-48 48-48l192 0c22.9 0 42 16 46.8 37.4 5-1.7 10.2-3 15.5-3.9-6.6-28.4-32-49.5-62.3-49.5l-81.1 0 77.4-49.3c3.7-2.4 4.8-7.3 2.5-11s-7.3-4.8-11-2.5l-67.5 42.9 25.2-65.3c1.6-4.1-.5-8.8-4.6-10.3s-8.8 .5-10.3 4.6l-26.3 68.1-24.7-67.9zM337.4 176c15.7 0 30 8.9 37.1 22.9l28.5 57.1-67.1 0c-22.1 0-40-17.9-40-40s17.9-40 40-40l1.4 0zm-40.2 80.5C274 259.7 256 279.8 256 304l0 160c0 26.5 21.5 48 48 48l224 0c26.5 0 48-21.5 48-48l0-160c0-24.2-18-44.3-41.3-47.5 10.7-10.2 17.3-24.6 17.3-40.5 0-30.9-25.1-56-56-56l-1.4 0c-21.8 0-41.6 12.3-51.4 31.8l-27.2 54.4-27.2-54.4c-9.7-19.5-29.6-31.8-51.4-31.8l-1.4 0c-30.9 0-56 25.1-56 56 0 15.9 6.6 30.3 17.3 40.5zM336 272l72 0 0 224-104 0c-17.7 0-32-14.3-32-32l0-160c0-17.7 14.3-32 32-32l32 0zM528 496l-104 0 0-224 104 0c17.7 0 32 14.3 32 32l0 160c0 17.7-14.3 32-32 32zM496 256l-67.1 0 28.5-57.1c7-14 21.4-22.9 37.1-22.9l1.4 0c22.1 0 40 17.9 40 40s-17.9 40-40 40z"/></svg>