<svg xmlns="http://www.w3.org/2000/svg" viewBox="0 0 640 512"><!--! Font Awesome Pro 7.0.0 by @fontawesome - https://fontawesome.com License - https://fontawesome.com/license (Commercial License) Copyright 2025 Fonticons, Inc. --><path fill="currentColor" d="M288 496c11.2 0 23-4.5 34.6-13.5 4.1 8.7 8.9 17 14.2 24.9-15.8 3-32.1 4.6-48.8 4.6-141.4 0-256-114.6-256-256S146.6 0 288 0c126.8 0 232.1 92.2 252.4 213.2-5.5-1.3-11.1-2.4-16.8-3.2-18.4-94.5-92.1-169.2-186.2-188.9 41.3 36.5 71.8 116 77.6 204.8-5.3 2.5-10.5 5.2-15.6 8.1-2.8-56.7-16.1-109.5-35.6-149.2-22.7-46.1-50.6-68.8-75.9-68.8s-53.2 22.8-75.9 68.8C191 127.7 177.2 186.1 176.1 248l202.6 0c-6.4 4.9-12.5 10.3-18.2 16l-184.4 0c1.1 61.9 14.9 120.3 36.1 163.2 22.7 46.1 50.6 68.8 75.9 68.8zM160.1 248C161.7 150.5 193.9 60.6 238.6 21.1 132.3 43.4 51.8 136 48.1 248l111.9 0zM48.1 264c3.7 112 84.1 204.6 190.4 226.9-44.7-39.5-76.8-129.4-78.5-226.9L48.1 264zM496 528a128 128 0 1 0 0-256 128 128 0 1 0 0 256zm0-272a144 144 0 1 1 0 288 144 144 0 1 1 0-288zm0 96c-29.2 0-55.8 11-75.9 29.1-3.3 3-8.3 2.7-11.3-.6s-2.7-8.3 .6-11.3C432.3 348.6 462.7 336 496 336s63.7 12.6 86.6 33.3c3.3 3 3.5 8 .6 11.3s-8 3.5-11.3 .6C551.8 363 525.2 352 496 352zM480 464a16 16 0 1 1 32 0 16 16 0 1 1 -32 0zm-20.9-41.8c-3.3 3-8.3 2.7-11.3-.6s-2.7-8.3 .6-11.3C461 398.9 477.7 392 496 392s35 6.9 47.6 18.3c3.3 3 3.5 8 .6 11.3s-8 3.5-11.3 .6c-9.8-8.8-22.7-14.2-36.9-14.2s-27.1 5.4-36.9 14.2z"/></svg>