<svg xmlns="http://www.w3.org/2000/svg" viewBox="0 0 640 512"><!--! Font Awesome Pro 7.0.0 by @fontawesome - https://fontawesome.com License - https://fontawesome.com/license (Commercial License) Copyright 2025 Fonticons, Inc. --><path fill="currentColor" d="M440 48l40 0c26.5 0 48 21.5 48 48l0 84.6c5.5 1.2 10.8 3 16 5.3l0-90c0-35.3-28.7-64-64-64L160 32c-35.3 0-64 28.7-64 64l0 320c0 35.3 28.7 64 64 64l193.1 0c-1.8-5.2-3.4-10.6-4.7-16l-20.4 0 0-200 79.7 0c3.9-5.5 7.8-10.9 11.7-16l-91.3 0 0-200 96 0 0 193.9c5.5-7.2 10.9-13.8 16-20L440 48zM312 48l0 200-96 0 0-200 96 0zM200 48l0 200-88 0 0-152c0-26.5 21.5-48 48-48l40 0zM112 264l88 0 0 200-40 0c-26.5 0-48-21.5-48-48l0-152zM216 464l0-200 96 0 0 200-96 0zm192-37.9c0-30 14.2-64.6 34.1-97.6 19.6-32.7 43.6-61.9 60.5-81 5.2-5.9 13.7-5.9 18.9 0 16.9 19.1 40.9 48.3 60.5 81 19.9 33.1 34.1 67.6 34.1 97.6 0 56-46.3 101.9-104 101.9S408 482.1 408 426.1zM512 544c66.3 0 120-52.8 120-117.9 0-68.9-64.1-150.4-98.6-189.3-11.6-13.1-31.3-13.1-42.9 0-34.5 38.9-98.6 120.4-98.6 189.3 0 65.1 53.7 117.9 120 117.9z"/></svg>