<svg xmlns="http://www.w3.org/2000/svg" viewBox="0 0 448 512"><!--! Font Awesome Pro 7.0.0 by @fontawesome - https://fontawesome.com License - https://fontawesome.com/license (Commercial License) Copyright 2025 Fonticons, Inc. --><path fill="currentColor" d="M8 32c-4.4 0-8 3.6-8 8s3.6 8 8 8l432 0c4.4 0 8-3.6 8-8s-3.6-8-8-8L8 32zM8 288c-4.4 0-8 3.6-8 8s3.6 8 8 8l432 0c4.4 0 8-3.6 8-8s-3.6-8-8-8L8 288zM80 128c8.8 0 16 7.2 16 16l0 48c0 8.8-7.2 16-16 16l-48 0c-8.8 0-16-7.2-16-16l0-48c0-8.8 7.2-16 16-16l48 0zM32 112c-17.7 0-32 14.3-32 32l0 48c0 17.7 14.3 32 32 32l48 0c17.7 0 32-14.3 32-32l0-48c0-17.7-14.3-32-32-32l-48 0zM80 384c8.8 0 16 7.2 16 16l0 48c0 8.8-7.2 16-16 16l-48 0c-8.8 0-16-7.2-16-16l0-48c0-8.8 7.2-16 16-16l48 0zM32 368c-17.7 0-32 14.3-32 32l0 48c0 17.7 14.3 32 32 32l48 0c17.7 0 32-14.3 32-32l0-48c0-17.7-14.3-32-32-32l-48 0zm216 16c8.8 0 16 7.2 16 16l0 48c0 8.8-7.2 16-16 16l-48 0c-8.8 0-16-7.2-16-16l0-48c0-8.8 7.2-16 16-16l48 0zm-48-16c-17.7 0-32 14.3-32 32l0 48c0 17.7 14.3 32 32 32l48 0c17.7 0 32-14.3 32-32l0-48c0-17.7-14.3-32-32-32l-48 0zm168 16l48 0c8.8 0 16 7.2 16 16l0 48c0 8.8-7.2 16-16 16l-48 0c-8.8 0-16-7.2-16-16l0-48c0-8.8 7.2-16 16-16zm-32 16l0 48c0 17.7 14.3 32 32 32l48 0c17.7 0 32-14.3 32-32l0-48c0-17.7-14.3-32-32-32l-48 0c-17.7 0-32 14.3-32 32zM200 128l48 0c8.8 0 16 7.2 16 16l0 48c0 8.8-7.2 16-16 16l-48 0c-8.8 0-16-7.2-16-16l0-48c0-8.8 7.2-16 16-16zm-32 16l0 48c0 17.7 14.3 32 32 32l48 0c17.7 0 32-14.3 32-32l0-48c0-17.7-14.3-32-32-32l-48 0c-17.7 0-32 14.3-32 32zm248-16c8.8 0 16 7.2 16 16l0 48c0 8.8-7.2 16-16 16l-48 0c-8.8 0-16-7.2-16-16l0-48c0-8.8 7.2-16 16-16l48 0zm-48-16c-17.7 0-32 14.3-32 32l0 48c0 17.7 14.3 32 32 32l48 0c17.7 0 32-14.3 32-32l0-48c0-17.7-14.3-32-32-32l-48 0z"/></svg>