<svg xmlns="http://www.w3.org/2000/svg" viewBox="0 0 448 512"><!--! Font Awesome Pro 7.0.0 by @fontawesome - https://fontawesome.com License - https://fontawesome.com/license (Commercial License) Copyright 2025 Fonticons, Inc. --><path fill="currentColor" d="M80 48c8.8 0 16 7.2 16 16l0 48c0 8.8-7.2 16-16 16l-48 0c-8.8 0-16-7.2-16-16l0-48c0-8.8 7.2-16 16-16l48 0zM32 32C14.3 32 0 46.3 0 64l0 48c0 17.7 14.3 32 32 32l48 0c17.7 0 32-14.3 32-32l0-48c0-17.7-14.3-32-32-32L32 32zM80 216c8.8 0 16 7.2 16 16l0 48c0 8.8-7.2 16-16 16l-48 0c-8.8 0-16-7.2-16-16l0-48c0-8.8 7.2-16 16-16l48 0zM32 200c-17.7 0-32 14.3-32 32l0 48c0 17.7 14.3 32 32 32l48 0c17.7 0 32-14.3 32-32l0-48c0-17.7-14.3-32-32-32l-48 0zm0 184l48 0c8.8 0 16 7.2 16 16l0 48c0 8.8-7.2 16-16 16l-48 0c-8.8 0-16-7.2-16-16l0-48c0-8.8 7.2-16 16-16zM0 400l0 48c0 17.7 14.3 32 32 32l48 0c17.7 0 32-14.3 32-32l0-48c0-17.7-14.3-32-32-32l-48 0c-17.7 0-32 14.3-32 32zM248 48c8.8 0 16 7.2 16 16l0 48c0 8.8-7.2 16-16 16l-48 0c-8.8 0-16-7.2-16-16l0-48c0-8.8 7.2-16 16-16l48 0zM200 32c-17.7 0-32 14.3-32 32l0 48c0 17.7 14.3 32 32 32l48 0c17.7 0 32-14.3 32-32l0-48c0-17.7-14.3-32-32-32l-48 0zm0 184l48 0c8.8 0 16 7.2 16 16l0 48c0 8.8-7.2 16-16 16l-48 0c-8.8 0-16-7.2-16-16l0-48c0-8.8 7.2-16 16-16zm-32 16l0 48c0 17.7 14.3 32 32 32l48 0c17.7 0 32-14.3 32-32l0-48c0-17.7-14.3-32-32-32l-48 0c-17.7 0-32 14.3-32 32zm80 152c8.8 0 16 7.2 16 16l0 48c0 8.8-7.2 16-16 16l-48 0c-8.8 0-16-7.2-16-16l0-48c0-8.8 7.2-16 16-16l48 0zm-48-16c-17.7 0-32 14.3-32 32l0 48c0 17.7 14.3 32 32 32l48 0c17.7 0 32-14.3 32-32l0-48c0-17.7-14.3-32-32-32l-48 0zM368 48l48 0c8.8 0 16 7.2 16 16l0 48c0 8.8-7.2 16-16 16l-48 0c-8.8 0-16-7.2-16-16l0-48c0-8.8 7.2-16 16-16zM336 64l0 48c0 17.7 14.3 32 32 32l48 0c17.7 0 32-14.3 32-32l0-48c0-17.7-14.3-32-32-32l-48 0c-17.7 0-32 14.3-32 32zm80 152c8.8 0 16 7.2 16 16l0 48c0 8.8-7.2 16-16 16l-48 0c-8.8 0-16-7.2-16-16l0-48c0-8.8 7.2-16 16-16l48 0zm-48-16c-17.7 0-32 14.3-32 32l0 48c0 17.7 14.3 32 32 32l48 0c17.7 0 32-14.3 32-32l0-48c0-17.7-14.3-32-32-32l-48 0zm0 184l48 0c8.8 0 16 7.2 16 16l0 48c0 8.8-7.2 16-16 16l-48 0c-8.8 0-16-7.2-16-16l0-48c0-8.8 7.2-16 16-16zm-32 16l0 48c0 17.7 14.3 32 32 32l48 0c17.7 0 32-14.3 32-32l0-48c0-17.7-14.3-32-32-32l-48 0c-17.7 0-32 14.3-32 32z"/></svg>