<svg xmlns="http://www.w3.org/2000/svg" viewBox="0 0 640 512"><!--! Font Awesome Pro 7.0.0 by @fontawesome - https://fontawesome.com License - https://fontawesome.com/license (Commercial License) Copyright 2025 Fonticons, Inc. --><path fill="currentColor" d="M320-32a40 40 0 1 0 0 80 40 40 0 1 0 0-80zM344 8a24 24 0 1 1 -48 0 24 24 0 1 1 48 0zM320.8 68c-28 0-55 10.3-75.9 28.9l-23.5 20.9c-11.6 10.3-12.6 28-2.3 39.5s28 12.6 39.5 2.3l12.3-10.9-10.6 79.6c-2 15.3 8.7 29.4 24.1 31.5s29.4-8.7 31.5-24.1l4.2-31.8 4.2 31.8c2 15.3 16.1 26.1 31.5 24.1s26.1-16.1 24.1-31.5l-10.9-81.8 13.2 11c11.9 9.9 29.5 8.3 39.4-3.6s8.3-29.5-3.6-39.4l-24-20C373.4 77.4 347.5 68 320.8 68zm-65.3 40.8c18-16 41.2-24.8 65.3-24.8 23 0 45.2 8.1 62.9 22.8l24 20c5.1 4.2 5.8 11.8 1.5 16.9s-11.8 5.8-16.9 1.5l-24-20c-1.8-1.5-3.6-2.9-5.5-4.2-2.6-1.8-6-1.9-8.7-.2s-4.2 4.7-3.7 7.9l13.6 101.7c.9 6.6-3.7 12.6-10.3 13.5s-12.6-3.7-13.5-10.3l-6.8-50.6c-.5-4-3.9-6.9-7.9-6.9l-10.8 0c-4 0-7.4 3-7.9 6.9l-6.8 50.6c-.9 6.6-6.9 11.2-13.5 10.3s-11.2-6.9-10.3-13.5l13.4-100.5c.4-3.2-1.1-6.3-3.9-7.9s-6.2-1.5-8.8 .4c-1.8 1.4-3.6 2.8-5.4 4.3L248 147.6c-5 4.4-12.5 4-16.9-1s-4-12.5 1-16.9l23.5-20.9zM96 112c0-26.5-21.5-48-48-48S0 85.5 0 112L0 344.2c0 27.6 11 54 30.5 73.5l91.9 91.9c3.1 3.1 8.2 3.1 11.3 0s3.1-8.2 0-11.3L41.8 406.5C25.3 390 16 367.6 16 344.2L16 112c0-17.7 14.3-32 32-32s32 14.3 32 32l0 147c0 20.7 8.2 40.6 22.9 55.2 7 7 32.1 32.1 75.5 75.5l0 0 8 8c3.1 3.1 8.2 3.1 11.3 0s3.1-8.2 0-11.3l-8-8 0 0-55.9-55.9 0 0c-10.6-10.6-11.3-27.6-1.5-39.1 10.9-12.7 30.3-13.5 42.2-1.6l92.8 92.7c13.3 13.3 20.8 31.4 20.8 50.3l0 79.2c0 4.4 3.6 8 8 8s8-3.6 8-8l0-79.2c0-23.1-9.2-45.3-25.5-61.6l-92.8-92.8c-18.4-18.4-48.7-17.3-65.6 2.5-6.2 7.2-9.7 15.9-10.6 24.7-8.7-10.9-13.5-24.6-13.5-38.7l0-147zM592 64c-26.5 0-48 21.5-48 48l0 147c0 14.1-4.8 27.8-13.5 38.7-.9-8.8-4.4-17.5-10.6-24.7-17-19.8-47.2-21-65.6-2.5l-92.7 92.8c-16.3 16.3-25.5 38.5-25.5 61.6l0 79.2c0 4.4 3.6 8 8 8s8-3.6 8-8l0-79.2c0-18.9 7.5-37 20.8-50.3l92.8-92.7c11.8-11.8 31.3-11.1 42.2 1.6 9.8 11.4 9.1 28.4-1.5 39.1l0 0-55.9 55.9 0 0-8 8c-3.1 3.1-3.1 8.2 0 11.3s8.2 3.1 11.3 0l8-8c43.3-43.3 68.5-68.5 75.5-75.5 14.6-14.6 22.9-34.5 22.9-55.2l0-147c0-17.7 14.3-32 32-32s32 14.3 32 32l0 232.2c0 23.3-9.3 45.7-25.8 62.2l-91.9 91.9c-3.1 3.1-3.1 8.2 0 11.3s8.2 3.1 11.3 0l91.9-91.9c19.5-19.5 30.5-46 30.5-73.5L640 112c0-26.5-21.5-48-48-48z"/></svg>