<svg xmlns="http://www.w3.org/2000/svg" viewBox="0 0 448 512"><!--! Font Awesome Pro 7.0.0 by @fontawesome - https://fontawesome.com License - https://fontawesome.com/license (Commercial License) Copyright 2025 Fonticons, Inc. --><path fill="currentColor" d="M140.5 0c-28.7 0-52 23.3-52 52l0 12-72 0c-3.1 0-5.9 1.8-7.2 4.5s-1 6.1 1 8.5l28 35-28 35c-1.9 2.4-2.3 5.7-1 8.5s4.1 4.5 7.2 4.5l72 0 0 89.6c-6 3.7-11.8 7.8-17.3 12.5L42 286.7c-16.2 13.7-25.5 33.8-25.5 55l0 24c0 48.8 26.2 93.9 68.5 118.1l18 10.3c20.5 11.7 43.8 17.9 67.5 17.9l142 0c57.4 0 104-46.6 104-104l0-104c0-.8-.1-1.5-.3-2.2-3.1-30.2-28.6-53.8-59.7-53.8-3.6 0-7.1 .3-10.5 .9-9.9-19.5-30.2-32.9-53.5-32.9-6.1 0-12 .9-17.6 2.6-9.6-20.5-30.3-34.6-54.4-34.6-10.1 0-19.6 2.5-28 6.9l0-138.9c0-28.7-23.3-52-52-52zm36 64l-72 0 0-12c0-19.9 16.1-36 36-36s36 16.1 36 36l0 12zm0 16l0 64-143.4 0 21.6-27c2.3-2.9 2.3-7.1 0-10L33.1 80 176.5 80zm0 80l0 46.5c0 3.2 1.9 6.1 4.9 7.4s6.4 .6 8.7-1.6c7.9-7.6 18.6-12.2 30.5-12.2 19.9 0 36.7 13.2 42.1 31.3 .7 2.2 2.3 4.1 4.4 5s4.6 .9 6.7-.1c5.7-2.7 12.1-4.2 18.8-4.2 19 0 35.2 12.1 41.4 29 1.5 4 5.8 6.2 9.8 4.9 4-1.2 8.3-1.9 12.8-1.9 23.1 0 42.1 17.9 43.9 40.6 0 .3 .1 .6 .1 1l0 102.5c0 48.6-39.4 88-88 88l-142 0c-20.9 0-41.4-5.4-59.5-15.8L93 469.9c-37.4-21.4-60.5-61.1-60.5-104.2l0-24c0-16.5 7.3-32.1 19.8-42.7l29.2-24.7c2.3-1.9 4.6-3.7 7-5.5l0 75.2c0 4.4 3.6 8 8 8s8-3.6 8-8l0-184 72 0z"/></svg>