<svg xmlns="http://www.w3.org/2000/svg" viewBox="0 0 640 512"><!--! Font Awesome Pro 7.0.0 by @fontawesome - https://fontawesome.com License - https://fontawesome.com/license (Commercial License) Copyright 2025 Fonticons, Inc. --><path fill="currentColor" d="M341.4 40.4c11.1-15.3 28.8-24.4 47.7-24.4 32.5 0 58.9 26.4 58.9 58.9 0 32.1-19.8 61.1-42.1 86.5-24.5 27.8-54 51.8-73.8 66.5-7.3 5.5-17 5.5-24.4 0-19.7-14.7-49.3-38.6-73.8-66.5-22.3-25.3-42-54.4-42-86.5 0-32.5 26.4-58.9 58.9-58.9 18.9 0 36.6 9.1 47.7 24.4L313.5 61c1.5 2.1 3.9 3.3 6.5 3.3s5-1.2 6.5-3.3l14.9-20.6zM389.1 0c-24 0-46.6 11.5-60.7 31L320 42.7 311.6 31c-14.1-19.5-36.7-31-60.7-31-41.4 0-74.9 33.5-74.9 74.9 0 38.4 23.5 71.4 46 97 25.5 29 56.1 53.8 76.2 68.7 13 9.7 30.5 9.7 43.5 0 20.1-15 50.7-39.7 76.2-68.7 22.5-25.6 46-58.6 46-97 0-41.4-33.5-74.9-74.9-74.9zM96 112c0-26.5-21.5-48-48-48S0 85.5 0 112L0 344.2c0 27.6 11 54 30.5 73.5l91.9 91.9c3.1 3.1 8.2 3.1 11.3 0s3.1-8.2 0-11.3L41.8 406.5C25.3 390 16 367.6 16 344.2L16 112c0-17.7 14.3-32 32-32s32 14.3 32 32l0 147c0 20.7 8.2 40.6 22.9 55.2 7 7 32.1 32.1 75.5 75.5l0 0 8 8c3.1 3.1 8.2 3.1 11.3 0s3.1-8.2 0-11.3l-8-8 0 0-55.9-55.9 0 0c-10.6-10.6-11.3-27.6-1.5-39.1 10.9-12.7 30.3-13.5 42.2-1.6l92.8 92.7c13.3 13.3 20.8 31.4 20.8 50.3l0 79.2c0 4.4 3.6 8 8 8s8-3.6 8-8l0-79.2c0-23.1-9.2-45.3-25.5-61.6l-92.8-92.8c-18.4-18.4-48.7-17.3-65.6 2.5-6.2 7.2-9.7 15.9-10.6 24.7-8.7-10.9-13.5-24.6-13.5-38.7l0-147zM592 64c-26.5 0-48 21.5-48 48l0 147c0 14.1-4.8 27.8-13.5 38.7-.9-8.8-4.4-17.5-10.6-24.7-17-19.8-47.2-21-65.6-2.5l-92.7 92.8c-16.3 16.3-25.5 38.5-25.5 61.6l0 79.2c0 4.4 3.6 8 8 8s8-3.6 8-8l0-79.2c0-18.9 7.5-37 20.8-50.3l92.8-92.7c11.8-11.8 31.3-11.1 42.2 1.6 9.8 11.4 9.1 28.4-1.5 39.1l0 0-55.9 55.9 0 0-8 8c-3.1 3.1-3.1 8.2 0 11.3s8.2 3.1 11.3 0l8-8c43.3-43.3 68.5-68.5 75.5-75.5 14.6-14.6 22.9-34.5 22.9-55.2l0-147c0-17.7 14.3-32 32-32s32 14.3 32 32l0 232.2c0 23.3-9.3 45.7-25.8 62.2l-91.9 91.9c-3.1 3.1-3.1 8.2 0 11.3s8.2 3.1 11.3 0l91.9-91.9c19.5-19.5 30.5-46 30.5-73.5L640 112c0-26.5-21.5-48-48-48z"/></svg>