<svg xmlns="http://www.w3.org/2000/svg" viewBox="0 0 640 512"><!--! Font Awesome Pro 7.0.0 by @fontawesome - https://fontawesome.com License - https://fontawesome.com/license (Commercial License) Copyright 2025 Fonticons, Inc. --><path fill="currentColor" d="M549.6 304c41.4 0 74.9 33.5 74.9 74.9 0 38.4-23.5 71.4-46 97-25.5 29-56.1 53.8-76.2 68.7-13 9.7-30.5 9.7-43.5 0-20.1-15-50.7-39.7-76.2-68.7-22.5-25.6-46-58.6-46-97 0-41.4 33.5-74.9 74.9-74.9 24 0 46.6 11.5 60.7 31l8.4 11.7 8.4-11.7c14.1-19.5 36.7-31 60.7-31zm0 16c-18.9 0-36.6 9.1-47.7 24.4L487 365c-1.5 2.1-3.9 3.3-6.5 3.3s-5-1.2-6.5-3.3l-14.9-20.6c-11.1-15.3-28.8-24.4-47.7-24.4-32.5 0-58.9 26.4-58.9 58.9 0 32.1 19.8 61.2 42.1 86.5 24.5 27.8 54 51.8 73.8 66.5 7.3 5.5 17 5.5 24.4 0 19.7-14.7 49.3-38.6 73.8-66.5 22.3-25.3 42.1-54.4 42.1-86.5 0-32.5-26.4-58.9-58.9-58.9zM328.5 0c25.3 0 46 19.5 47.9 44.3 8.5-7.7 19.8-12.3 32.1-12.3 26.5 0 48 21.5 48 48l0 28.2c8.5-7.6 19.7-12.2 32-12.2 26.5 0 48 21.5 48 48l0 112.8c-5.4 .6-10.8 1.5-16 2.8l0-115.5c0-17.7-14.3-32-32-32s-32 14.3-32 32l0 104c0 4.4-3.6 8-8 8s-8-3.6-8-8l0-168c0-17.7-14.3-32-32-32s-32 14.3-32 32l0 168c0 4.4-3.6 8-8 8s-8-3.6-8-8l0-200c0-17.7-14.3-32-32-32s-32 14.3-32 32l0 200c0 4.4-3.6 8-8 8s-8-3.6-8-8l0-168c0-17.7-14.3-32-32-32s-32 14.3-32 32l0 255.4c0 3.2-2 6.1-4.9 7.4s-6.4 .6-8.7-1.7l-67.7-67.7c-12.5-12.5-32.8-12.5-45.2 0s-12.5 32.8 0 45.2L201.6 430.4c36.2 36.2 83.6 58.7 134 64.2 3.6 4.6 7.3 8.9 10.9 13 1.2 1.4 2.6 2.8 3.8 4.2-60.1-2.4-117.3-27.3-160-70L78.6 329.9c-18.7-18.7-18.7-49.1 0-67.9s49.1-18.7 67.9 0l54.1 54.1 0-236.1c0-26.5 21.5-48 48-48 12.4 0 23.6 4.7 32.1 12.3 1.9-24.8 22.6-44.3 47.9-44.3z"/></svg>