<svg xmlns="http://www.w3.org/2000/svg" viewBox="0 0 576 512"><!--! Font Awesome Pro 7.0.0 by @fontawesome - https://fontawesome.com License - https://fontawesome.com/license (Commercial License) Copyright 2025 Fonticons, Inc. --><path fill="currentColor" d="M304-32c0 8.8-7.2 16-16 16s-16-7.2-16-16 7.2-16 16-16 16 7.2 16 16zM192 16a16 16 0 1 1 0 32 16 16 0 1 1 0-32zm-64 88l0 34.9c20-7.1 41.6-10.9 64-10.9s44 3.8 64 10.9l0-34.9c0-4.4-3.6-8-8-8L136 96c-4.4 0-8 3.6-8 8zm-16 41.4l0-41.4c0-13.3 10.7-24 24-24l112 0c13.3 0 24 10.7 24 24l0 41.4c66.1 30.3 112 97.1 112 174.6 0 106-86 192-192 192S0 426 0 320c0-77.5 45.9-144.3 112-174.6zM192 496a176 176 0 1 0 0-352 176 176 0 1 0 0 352zM48 320a144 144 0 1 1 288 0 144 144 0 1 1 -288 0zM192 448a128 128 0 1 0 0-256 128 128 0 1 0 0 256zM326.4 96c-1.1-5.6-2.8-10.9-5.1-16L440 80c13.3 0 24 10.7 24 24l0 41.4c66.1 30.3 112 97.1 112 174.6 0 106-86 192-192 192-14.4 0-28.5-1.6-42-4.6 5.3-4.2 10.4-8.7 15.3-13.4 8.7 1.3 17.6 2 26.7 2 97.2 0 176-78.8 176-176S481.2 144 384 144c-9.1 0-18 .7-26.7 2-4.9-4.7-10-9.1-15.3-13.4 13.5-3 27.6-4.6 42-4.6 22.4 0 44 3.8 64 10.9l0-34.9c0-4.4-3.6-8-8-8L326.4 96zm69 96.5c-3.6-5.7-7.3-11.2-11.4-16.5 79.5 0 144 64.5 144 144S463.5 464 384 464c4-5.3 7.8-10.8 11.4-16.5 65.4-5.8 116.6-60.6 116.6-127.5S460.7 198.3 395.4 192.5zM384 16a16 16 0 1 1 0 32 16 16 0 1 1 0-32z"/></svg>