<svg xmlns="http://www.w3.org/2000/svg" viewBox="0 0 448 512"><!--! Font Awesome Pro 7.0.0 by @fontawesome - https://fontawesome.com License - https://fontawesome.com/license (Commercial License) Copyright 2025 Fonticons, Inc. --><path fill="currentColor" d="M96 48l0 16 64 0 0-16c0-17.7-14.3-32-32-32S96 30.3 96 48zM80 64l0-16c0-26.5 21.5-48 48-48s48 21.5 48 48l0 116.2c8.5-7.6 19.7-12.2 32-12.2 25.3 0 46 19.5 47.9 44.3 8.5-7.7 19.8-12.3 32.1-12.3 20.6 0 38.2 13 45 31.2 8.8-9.3 21.2-15.2 35-15.2 26.5 0 48 21.5 48 48l0 112c0 83.9-68.1 152-152 152l-80 0c-83.9 0-152-68.1-152-152l0-32c0-31.4 20-58 48-67.9L80 160 8 160c-3.1 0-5.9-1.8-7.2-4.5s-1-6.1 1-8.5l28-35-28-35c-1.9-2.4-2.3-5.7-1-8.5S4.9 64 8 64l72 0zm16 96l0 96.4c2.6-.3 5.3-.4 8-.4l56 0 0-96-64 0zm64-16l0-64-135.4 0 21.6 27c2.3 2.9 2.3 7.1 0 10L24.6 144 160 144zm0 128l-56 0c-30.9 0-56 25.1-56 56l0 32c0 75.1 60.9 136 136 136l80 0c75.1 0 136-60.9 136-136l0-20.2c-8.5 7.6-19.7 12.2-32 12.2-18.5 0-34.6-10.5-42.6-25.9-8.8 10.9-22.3 17.9-37.4 17.9s-28.6-7-37.4-17.9c-8 15.4-24.1 25.9-42.6 25.9l-72 0c-4.4 0-8-3.6-8-8s3.6-8 8-8l72 0c17.7 0 32-14.3 32-32s-14.3-32-32-32l-48 0zm16-16l32 0c12.3 0 23.5 4.6 32 12.2l0-68.2c0-17.7-14.3-32-32-32s-32 14.3-32 32l0 56zm80 16l0 24c0 17.7 14.3 32 32 32s32-14.3 32-32l0-64c0-17.7-14.3-32-32-32-17.7 0-32 14.3-32 32l0 40zm144 8l0-32c0-17.7-14.3-32-32-32s-32 14.3-32 32l0 56c0 17.7 14.3 32 32 32s32-14.3 32-32l0-24z"/></svg>