<svg xmlns="http://www.w3.org/2000/svg" viewBox="0 0 576 512"><!--! Font Awesome Pro 7.0.0 by @fontawesome - https://fontawesome.com License - https://fontawesome.com/license (Commercial License) Copyright 2025 Fonticons, Inc. --><path fill="currentColor" d="M562.3-29.8c3.1-3.1 8.2-3.1 11.3 0s3.1 8.2 0 11.3l-560 560c-3.1 3.1-8.2 3.1-11.3 0s-3.1-8.2 0-11.3l306.9-306.9-52.4-57.2c-1.1-1.3-1.9-2.8-2.1-4.5-11.1-99.9-95.9-177.7-198.8-177.7l0 0-1.8 0c-2.1 0-4.2 .1-6.2 .1l0-.1-8 0c-4.4 0-8-3.6-8-8s3.6-8 8-8l14.1 0 1.9 0c110.2 0 201.2 82.6 214.4 189.3L320.6 212 562.3-29.8zM111.2 512l16-16 64.8 0c30.9 0 56-25.1 56-56l0-16.6-45-3.2 15-15 38.6 2.8c4.2 .3 7.4 3.8 7.4 8l0 24c0 39.8-32.2 72-72 72l-80.8 0zM128 176a16 16 0 1 1 32 0 16 16 0 1 1 -32 0zM496 288a16 16 0 1 1 32 0 16 16 0 1 1 -32 0zm-48 32a16 16 0 1 1 0 32 16 16 0 1 1 0-32zm-64 48a16 16 0 1 1 0 32 16 16 0 1 1 0-32zm128 0a16 16 0 1 1 0 32 16 16 0 1 1 0-32zM496 480a16 16 0 1 1 32 0 16 16 0 1 1 -32 0zm-48-64a16 16 0 1 1 0 32 16 16 0 1 1 0-32z"/></svg>