<svg xmlns="http://www.w3.org/2000/svg" viewBox="0 0 512 512"><!--! Font Awesome Pro 7.0.0 by @fontawesome - https://fontawesome.com License - https://fontawesome.com/license (Commercial License) Copyright 2025 Fonticons, Inc. --><path fill="currentColor" d="M16 216c0-110.5 89.5-200 200-200 102.9 0 187.7 77.7 198.8 177.7 .2 1.7 .9 3.3 2.1 4.5l54.7 59.7c5.5 6 8.5 13.8 8.5 21.8 0 17.8-14.5 32.3-32.3 32.3L416 312c-4.4 0-8 3.6-8 8l0 56c0 30.9-25.1 56-56 56l-40 0c-4.4 0-8 3.6-8 8l0 64c0 4.4 3.6 8 8 8s8-3.6 8-8l0-56 32 0c39.8 0 72-32.2 72-72l0-48 23.7 0c26.7 0 48.3-21.6 48.3-48.3 0-12.1-4.5-23.7-12.7-32.6l-52.9-57.7C417.2 82.6 326.2 0 216 0 96.7 0 0 96.7 0 216 0 283.7 31.2 344.2 80 383.8L80 504c0 4.4 3.6 8 8 8s8-3.6 8-8l0-124c0-2.5-1.1-4.8-3.1-6.3-46.8-36.6-76.9-93.6-76.9-157.7zm304-8a16 16 0 1 0 0-32 16 16 0 1 0 0 32z"/></svg>