<svg xmlns="http://www.w3.org/2000/svg" viewBox="0 0 576 512"><!--! Font Awesome Pro 7.0.0 by @fontawesome - https://fontawesome.com License - https://fontawesome.com/license (Commercial License) Copyright 2025 Fonticons, Inc. --><path fill="currentColor" d="M112 64c0-35.3 28.7-64 64-64L400 0c35.3 0 64 28.7 64 64l0 64 48 0c35.3 0 64 28.7 64 64l0 256c0 35.3-28.7 64-64 64L64 512c-35.3 0-64-28.7-64-64L0 192c0-35.3 28.7-64 64-64l48 0 0-64zM512 496c26.5 0 48-21.5 48-48l0-256c0-26.5-21.5-48-48-48l-56 0c-4.4 0-8-3.6-8-8l0-72c0-26.5-21.5-48-48-48L176 16c-26.5 0-48 21.5-48 48l0 72c0 4.4-3.6 8-8 8l-56 0c-26.5 0-48 21.5-48 48l0 256c0 26.5 21.5 48 48 48l176 0 0-96c0-17.7 14.3-32 32-32l32 0c17.7 0 32 14.3 32 32l0 96 176 0zm-192 0l0-96c0-8.8-7.2-16-16-16l-32 0c-8.8 0-16 7.2-16 16l0 96 64 0zM96 304l32 0c8.8 0 16 7.2 16 16l0 32c0 8.8-7.2 16-16 16l-32 0c-8.8 0-16-7.2-16-16l0-32c0-8.8 7.2-16 16-16zm0 48l32 0 0-32-32 0 0 32zM80 224c0-8.8 7.2-16 16-16l32 0c8.8 0 16 7.2 16 16l0 32c0 8.8-7.2 16-16 16l-32 0c-8.8 0-16-7.2-16-16l0-32zm16 0l0 32 32 0 0-32-32 0zm352 80l32 0c8.8 0 16 7.2 16 16l0 32c0 8.8-7.2 16-16 16l-32 0c-8.8 0-16-7.2-16-16l0-32c0-8.8 7.2-16 16-16zm0 48l32 0 0-32-32 0 0 32zM432 224c0-8.8 7.2-16 16-16l32 0c8.8 0 16 7.2 16 16l0 32c0 8.8-7.2 16-16 16l-32 0c-8.8 0-16-7.2-16-16l0-32zm16 0l0 32 32 0 0-32-32 0zM272 88l32 0c8.8 0 16 7.2 16 16l0 24 24 0c8.8 0 16 7.2 16 16l0 32c0 8.8-7.2 16-16 16l-24 0 0 24c0 8.8-7.2 16-16 16l-32 0c-8.8 0-16-7.2-16-16l0-24-24 0c-8.8 0-16-7.2-16-16l0-32c0-8.8 7.2-16 16-16l24 0 0-24c0-8.8 7.2-16 16-16zm0 16l0 40-40 0 0 32 40 0 0 40 32 0 0-40 40 0 0-32-40 0 0-40-32 0z"/></svg>