<svg xmlns="http://www.w3.org/2000/svg" viewBox="0 0 512 512"><!--! Font Awesome Pro 7.0.0 by @fontawesome - https://fontawesome.com License - https://fontawesome.com/license (Commercial License) Copyright 2025 Fonticons, Inc. --><path fill="currentColor" d="M267.3 478.1L478.1 267.3C489.5 255.8 496 240.2 496 224s-6.5-31.8-17.9-43.3l-17-17c-1.4 1.7-2.9 3.3-4.5 4.9l-288 288c-1.6 1.6-3.2 3.1-4.9 4.5l17 17C192.2 489.5 207.8 496 224 496s31.8-6.5 43.3-17.9zm-117-7.8c-30.4 16.5-69.2 12-94.8-13.7s-30.3-64.5-13.7-94.8L22.6 342.6C8.1 328.1 0 308.5 0 288s8.1-40.1 22.6-54.6L233.4 22.6C247.9 8.1 267.5 0 288 0s40.1 8.1 54.6 22.6l19.1 19.1c30.4-16.5 69.2-12 94.8 13.7s30.3 64.5 13.7 94.8l19.1 19.1C503.9 183.9 512 203.5 512 224s-8.1 40.1-22.6 54.6L278.6 489.4C264.1 503.9 244.5 512 224 512s-40.1-8.1-54.6-22.6l-19.1-19.1zm198-419.3l-17-17C319.8 22.5 304.2 16 288 16s-31.8 6.5-43.3 17.9L33.9 244.7C22.5 256.2 16 271.8 16 288s6.5 31.8 17.9 43.3l17 17c1.4-1.7 2.9-3.3 4.5-4.9l288-288c1.6-1.6 3.2-3.1 4.9-4.5zm96.9 15.8c-25-25-65.5-25-90.5 0l-288 288c-25 25-25 65.5 0 90.5s65.5 25 90.5 0l288-288c25-25 25-65.5 0-90.5z"/></svg>