<svg xmlns="http://www.w3.org/2000/svg" viewBox="0 0 384 512"><!--! Font Awesome Pro 7.0.0 by @fontawesome - https://fontawesome.com License - https://fontawesome.com/license (Commercial License) Copyright 2025 Fonticons, Inc. --><path fill="currentColor" d="M0 8C0 3.6 3.6 0 8 0L376 0c4.4 0 8 3.6 8 8s-3.6 8-8 8l-24 0 0 55.2c0 48.3-23 93.7-61.8 122.4l-84.7 62.4 84.7 62.4C329 347 352 392.5 352 440.8l0 55.2 24 0c4.4 0 8 3.6 8 8s-3.6 8-8 8L8 512c-4.4 0-8-3.6-8-8s3.6-8 8-8l24 0 0-55.2c0-48.3 23-93.7 61.8-122.4l84.7-62.4-84.7-62.4C55 165 32 119.5 32 71.2L32 16 8 16c-4.4 0-8-3.6-8-8zm48 8l0 55.2c0 43.2 20.5 83.9 55.3 109.5l88.7 65.3 88.7-65.3C315.5 155.1 336 114.4 336 71.2L336 16 48 16zm55.3 315.3C89.6 341.4 78 353.9 69.1 368l245.8 0c-8.9-14.1-20.5-26.6-34.2-36.7l-88.7-65.3-88.7 65.3zM60.4 384C52.3 401.6 48 420.9 48 440.8l0 55.2 288 0 0-55.2c0-19.9-4.3-39.2-12.4-56.8L60.4 384z"/></svg>