<svg xmlns="http://www.w3.org/2000/svg" viewBox="0 0 512 512"><!--! Font Awesome Pro 7.0.0 by @fontawesome - https://fontawesome.com License - https://fontawesome.com/license (Commercial License) Copyright 2025 Fonticons, Inc. --><path fill="currentColor" d="M266.9 7.2c-6.1-5.7-15.7-5.7-21.8 0L10.5 226.2c-3.2 3-3.4 8.1-.4 11.3s8.1 3.4 11.3 .4L48 213.1 48 456c0 30.9 25.1 56 56 56l304 0c30.9 0 56-25.1 56-56l0-242.9 26.5 24.8c3.2 3 8.3 2.8 11.3-.4s2.8-8.3-.4-11.3L464 191.2 464 64c0-17.7-14.3-32-32-32l-32 0c-17.7 0-32 14.3-32 32l0 37.6-101.1-94.3zM448 198.1L448 456c0 22.1-17.9 40-40 40l-304 0c-22.1 0-40-17.9-40-40L64 198.1 256 18.9 448 198.1zM448 64l0 112.3-64-59.7 0-52.5c0-8.8 7.2-16 16-16l32 0c8.8 0 16 7.2 16 16zM160 285.3c0-25 20.3-45.3 45.3-45.3 14.3 0 27.7 6.7 36.3 18.1l8 10.7c1.5 2 3.9 3.2 6.4 3.2s4.9-1.2 6.4-3.2l8-10.7c8.6-11.4 22-18.1 36.3-18.1 25 0 45.3 20.3 45.3 45.3l0 2.7c0 24.8-18.1 49.5-40.6 70.4-21.9 20.2-46.1 35.1-55.4 40.5-9.3-5.4-33.5-20.2-55.4-40.5-22.5-20.8-40.6-45.6-40.6-70.4l0-2.7zM205.3 224c-33.9 0-61.3 27.5-61.3 61.3l0 2.7c0 32 22.8 60.8 45.8 82.1 23.4 21.6 49.1 37.3 58.5 42.7 4.8 2.8 10.6 2.8 15.4 0 9.5-5.5 35.1-21.1 58.5-42.7 23-21.3 45.8-50.1 45.8-82.1l0-2.7c0-33.9-27.5-61.3-61.3-61.3-19.3 0-37.5 9.1-49.1 24.5l-1.6 2.1-1.6-2.1c-11.6-15.4-29.8-24.5-49.1-24.5z"/></svg>