<svg xmlns="http://www.w3.org/2000/svg" viewBox="0 0 640 512"><!--! Font Awesome Pro 7.0.0 by @fontawesome - https://fontawesome.com License - https://fontawesome.com/license (Commercial License) Copyright 2025 Fonticons, Inc. --><path fill="currentColor" d="M192 16c2.7 0 5.4 .1 8 .3L200-32c0-4.4-3.6-8-8-8s-8 3.6-8 8l0 48.3c2.6-.2 5.3-.3 8-.3zm73.3 27.3c4 3.5 7.8 7.3 11.3 11.3l34.1-34.1c3.1-3.1 3.1-8.2 0-11.3s-8.2-3.1-11.3 0L265.3 43.3zM118.7 212.7c-4-3.5-7.8-7.3-11.3-11.3L73.2 235.5c-3.1 3.1-3.1 8.2 0 11.3s8.2 3.1 11.3 0l34.1-34.1zM80 128c0-2.7 .1-5.4 .3-8L32 120c-4.4 0-8 3.6-8 8s3.6 8 8 8l48.3 0c-.2-2.6-.3-5.3-.3-8zm27.3-73.3c3.5-4 7.3-7.8 11.3-11.3L84.5 9.2c-3.1-3.1-8.2-3.1-11.3 0s-3.1 8.2 0 11.3l34.1 34.1zm4.7 76.2c0 29.4 15.4 55.3 38.5 70l11.9-11.5c-20.5-11.4-34.5-33.3-34.5-58.5 0-36.9 29.9-66.8 66.8-66.8 26 0 48.6 14.9 59.6 36.6l11.9-11.5C252 64.5 225.3 48 194.8 48 149.1 48 112 85.1 112 130.8zM373.6 74.2c-3.1-3-8-3-11.1 0l-224 216c-3.2 3.1-3.3 8.1-.2 11.3s8.1 3.3 11.3 .2L176 276.3 176 488c0 30.9 25.1 56 56 56l272 0c30.9 0 56-25.1 56-56l0-211.7 26.4 25.5c3.2 3.1 8.2 3 11.3-.2s3-8.2-.2-11.3l-224-216zM544 260.8L544 488c0 22.1-17.9 40-40 40l-272 0c-22.1 0-40-17.9-40-40l0-227.2 176-169.7 176 169.7zM312 312l0 48c0 17.7 14.3 32 32 32l48 0c17.7 0 32-14.3 32-32l0-48c0-17.7-14.3-32-32-32l-48 0c-17.7 0-32 14.3-32 32zm32-16l48 0c8.8 0 16 7.2 16 16l0 48c0 8.8-7.2 16-16 16l-48 0c-8.8 0-16-7.2-16-16l0-48c0-8.8 7.2-16 16-16z"/></svg>