<svg xmlns="http://www.w3.org/2000/svg" viewBox="0 0 576 512"><!--! Font Awesome Pro 7.0.0 by @fontawesome - https://fontawesome.com License - https://fontawesome.com/license (Commercial License) Copyright 2025 Fonticons, Inc. --><path fill="currentColor" d="M160 48c-26.5 0-48 21.5-48 48l0 256c0 26.5 21.5 48 48 48l320 0c26.5 0 48-21.5 48-48l0-256c0-26.5-21.5-48-48-48L160 48zM96 96c0-35.3 28.7-64 64-64l320 0c35.3 0 64 28.7 64 64l0 256c0 35.3-28.7 64-64 64l-320 0c-35.3 0-64-28.7-64-64L96 96zM16 136l0 320c0 22.1 17.9 40 40 40l384 0c4.4 0 8 3.6 8 8s-3.6 8-8 8L56 512c-30.9 0-56-25.1-56-56L0 136c0-4.4 3.6-8 8-8s8 3.6 8 8zm304 88a48 48 0 1 0 0-96 48 48 0 1 0 0 96zm0-112a64 64 0 1 1 0 128 64 64 0 1 1 0-128zM224 344c0 4.4-3.6 8-8 8s-8-3.6-8-8c0-39.8 32.2-72 72-72l80 0c39.8 0 72 32.2 72 72 0 4.4-3.6 8-8 8s-8-3.6-8-8c0-30.9-25.1-56-56-56l-80 0c-30.9 0-56 25.1-56 56z"/></svg>