<svg xmlns="http://www.w3.org/2000/svg" viewBox="0 0 576 512"><!--! Font Awesome Pro 7.0.0 by @fontawesome - https://fontawesome.com License - https://fontawesome.com/license (Commercial License) Copyright 2025 Fonticons, Inc. --><path fill="currentColor" d="M512 80c26.5 0 48 21.5 48 48l0 256c0 26.5-21.5 48-48 48L64 432c-26.5 0-48-21.5-48-48l0-256c0-26.5 21.5-48 48-48l448 0zM64 64C28.7 64 0 92.7 0 128L0 384c0 35.3 28.7 64 64 64l448 0c35.3 0 64-28.7 64-64l0-256c0-35.3-28.7-64-64-64L64 64zm48 136a24 24 0 1 1 0-48 24 24 0 1 1 0 48zM72 176a40 40 0 1 0 80 0 40 40 0 1 0 -80 0zm254 38.1c3-3.8 7.7-6.1 12.5-6.1s9.5 2.2 12.5 6.1L452.4 341.9c3.8 4.8 4.5 11.4 1.9 16.9s-8.3 9-14.4 9l-303.8 0c-6.3 0-12-3.7-14.6-9.4s-1.6-12.4 2.5-17.1l55.4-63.9c2.8-3.3 6.8-5.2 11.1-5.5s8.5 1.2 11.7 4.1l37.1 33.7c1.6 1.5 3.8 2.2 6 2.1s4.2-1.3 5.6-3L326 214.1zM338.6 192c-9.8 0-19 4.5-25.1 12.1l-69.8 88.1-30.8-28c-6.4-5.8-14.8-8.8-23.4-8.3s-16.6 4.5-22.3 11l-55.4 63.9c-8.2 9.5-10.1 22.9-4.9 34.3s16.6 18.7 29.1 18.7l303.8 0c12.3 0 23.5-7 28.8-18.1s3.9-24.2-3.7-33.8L363.6 204.1c-6.1-7.7-15.3-12.1-25.1-12.1z"/></svg>