<svg xmlns="http://www.w3.org/2000/svg" viewBox="0 0 448 512"><!--! Font Awesome Pro 7.0.0 by @fontawesome - https://fontawesome.com License - https://fontawesome.com/license (Commercial License) Copyright 2025 Fonticons, Inc. --><path fill="currentColor" d="M136 0c52.4 0 88.7 19.7 110.6 44.4 18.2-7.7 39.9-12.4 65.4-12.4 80.9 0 123.4 47.1 133.6 86.2l.6 2.8c1.8 13.5-10.3 23.1-22.1 23.1l-171.5 0c4 10 8 21.4 11.6 34 13 45.6 20.6 107.4 .5 174.3 66.7 4.4 119.4 59.9 119.4 127.7 0 17.7-14.3 32-32 32l-320 0-3.3-.2C12.6 510.2 0 496.6 0 480 0 409.3 57.3 352 128 352l120 0c20.6-64.8 13.4-125 .7-169.6-3.7-13.1-8-24.8-12.2-34.9L116.8 267.3c-8.9 8.9-25.7 10.3-33.5-3-20-34.2-23.5-95.9 30.5-152.2L24 112C11.4 112-1.5 101.1 2.4 86.2 12.6 47.1 55.1 0 136 0zm-8 368c-61.9 0-112 50.1-112 112 0 8.8 7.2 16 16 16l320 0c8.8 0 16-7.2 16-16 0-61.9-50.1-112-112-112l-128 0zm8-352c-73.9 0-109.8 42.5-118.1 74.2-.4 1.4 0 2.6 .9 3.7 1.1 1.2 2.9 2.1 5.2 2.1l56 0 0-24c0-4.4 3.6-8 8-8s8 3.6 8 8l0 24 35.2 0c8.3-6.8 16.6-12.5 25-17.2l1.5-.7c3.5-1.1 7.5 .4 9.4 3.8 2.1 3.9 .7 8.7-3.2 10.9L155 98.2c-6 3.9-12 8.5-18 13.8-2.9 2.6-5.9 5.3-8.8 8.2-52.3 52.3-47.6 107.7-31 136l.6 .8c.7 .7 1.6 1 2.7 1.1 1.6 .1 3.5-.6 5.1-2.2l69.5-69.6-12.7-12.7c-3.1-3.1-3.1-8.2 0-11.3s8.2-3.1 11.3 0l12.7 12.7 44.8-44.7 1.2-1c1.3-.9 2.9-1.3 4.4-1.3l131.2 0 0-24c0-4.4 3.6-8 8-8s8 3.6 8 8l0 24 40 0c2.3 0 4.1-.9 5.2-2.1 .7-.8 1.1-1.7 1.1-2.7l-.2-1c-8.3-31.8-44.2-74.2-118.1-74.2-26 0-47.3 5.3-64.2 13.4-3.4 1.6-7.4 .7-9.7-2.2-18.1-22.8-51-43.1-102.1-43.1z"/></svg>