<svg xmlns="http://www.w3.org/2000/svg" viewBox="0 0 512 512"><!--! Font Awesome Pro 7.0.0 by @fontawesome - https://fontawesome.com License - https://fontawesome.com/license (Commercial License) Copyright 2025 Fonticons, Inc. --><path fill="currentColor" d="M466.5 34.3c3.1-3.1 8.2-3.1 11.3 0l.8 .8c46.9 46.9 46.9 122.8 0 169.7L332.4 351c-15.6 15.6-40.9 15.6-56.6 0L224.1 299.3 13.8 509.7c-3.1 3.1-8.2 3.1-11.3 0s-3.1-8.2 0-11.3l464-464zM235.4 288l51.7 51.7c9.4 9.4 24.6 9.4 33.9 0L467.3 193.5c39-39 40.6-101.2 4.7-142.1L235.4 288z"/></svg>