<svg xmlns="http://www.w3.org/2000/svg" viewBox="0 0 320 512"><!--! Font Awesome Pro 7.0.0 by @fontawesome - https://fontawesome.com License - https://fontawesome.com/license (Commercial License) Copyright 2025 Fonticons, Inc. --><path fill="currentColor" d="M122.1 17.8L39.8 38.4c-13.7 3.4-23.3 15.8-23.3 29.9 0 20 18.8 34.7 38.2 29.9l0 0 82.2-20.6 .1 0c13.7-3.5 23.2-15.8 23.2-29.9 0-20-18.8-34.7-38.3-29.9zM23 108.3C9.7 100.2 .5 85.5 .5 68.3 .5 46.8 15.1 28.1 36 22.9L118.2 2.3c29.5-7.4 58.2 15 58.2 45.4 0 7.6-1.8 14.9-5.1 21.3l90.9-22.7c29.5-7.4 58.2 15 58.2 45.4 0 16.7-8.8 31.7-22.5 40 13.3 8.1 22.5 22.8 22.5 40 0 16.7-8.8 31.7-22.5 40 13.3 8.1 22.5 22.8 22.5 40 0 21.5-14.6 40.2-35.5 45.4l-70.5 17.6c-3.6 .9-6.1 4.1-6.1 7.8l0 61.5 16.1 0c17.7 0 32 14.3 32 32l0 16c0 44.2-35.8 80-80 80l-32 0c-44.2 0-80-35.8-80-80l0-16c0-17.7 14.3-32 32-32l16 0 0-94.8 16-4 0 98.8 63.9 0 0-61.5c0-11 7.5-20.6 18.2-23.3L281 281.6c13.7-3.4 23.3-15.8 23.3-29.9 0-20-18.8-34.7-38.2-29.9l-.1 0-111.7 27.9 0 0-95.6 23.9c-29.5 7.4-58.2-15-58.2-45.4 0-16.7 8.8-31.7 22.5-40-13.3-8.1-22.5-22.8-22.5-40 0-16.7 8.8-31.7 22.5-40zm35.6 5.4l-18.8 4.7c-13.7 3.4-23.3 15.8-23.3 29.9 0 20 18.8 34.7 38.3 29.9l207.4-51.8 18.8-4.7c13.7-3.4 23.3-15.8 23.3-29.9 0-20-18.8-34.7-38.3-29.9l-125 31.3-.1 0-82.2 20.6-.1 0zM281 201.6c13.7-3.4 23.3-15.8 23.3-29.9 0-20-18.8-34.7-38.3-29.9l-207.3 51.8-18.8 4.7c-13.7 3.4-23.3 15.8-23.3 29.9 0 20 18.8 34.7 38.3 29.9 61.1-15.3 130.2-32.5 207.3-51.8l.1 0 18.7-4.7zM96.4 400c-8.8 0-16 7.2-16 16l0 16c0 35.3 28.7 64 64 64l32 0c35.3 0 64-28.7 64-64l0-16c0-8.8-7.2-16-16-16l-128 0z"/></svg>