<svg xmlns="http://www.w3.org/2000/svg" viewBox="0 0 576 512"><!--! Font Awesome Pro 7.0.0 by @fontawesome - https://fontawesome.com License - https://fontawesome.com/license (Commercial License) Copyright 2025 Fonticons, Inc. --><path fill="currentColor" d="M13.7-29.8c-3.1-3.1-8.2-3.1-11.3 0s-3.1 8.2 0 11.3l560 560c3.1 3.1 8.2 3.1 11.3 0s3.1-8.2 0-11.3L452 408.6c35.5-38.2 57.9-88.8 59.9-144.6l40.1 0c4.4 0 8-3.6 8-8s-3.6-8-8-8l-40.1 0C507.7 130.6 413.4 36.3 296 32.1L296-8c0-4.4-3.6-8-8-8s-8 3.6-8 8l0 40.1c-55.8 2-106.4 24.3-144.6 59.9L13.7-29.8zM146.7 103.3c37.1-34.3 86.7-55.3 141.3-55.3 114.9 0 208 93.1 208 208 0 54.5-21 104.2-55.3 141.3l-68-68c17-19.6 27.3-45.3 27.3-73.3 0-61.9-50.1-112-112-112-28 0-53.6 10.3-73.3 27.3l-68-68zM361.3 317.9L226.1 182.7c16.7-14.1 38.3-22.7 61.9-22.7 53 0 96 43 96 96 0 23.6-8.5 45.2-22.7 61.9zM317 364.2l-13.5-13.5c-5.1 .8-10.3 1.3-15.6 1.3-53 0-96-43-96-96 0-5.3 .4-10.5 1.3-15.6L179.8 227c-2.5 9.3-3.8 19-3.8 29 0 61.9 50.1 112 112 112 10 0 19.8-1.3 29-3.8zM80 256c0-37.1 9.7-71.9 26.7-102.1L95 142.2C76.6 173.4 65.5 209.5 64.1 248L24 248c-4.4 0-8 3.6-8 8s3.6 8 8 8l40.1 0C68.3 381.4 162.6 475.7 280 479.9l0 40.1c0 4.4 3.6 8 8 8s8-3.6 8-8l0-40.1c38.5-1.4 74.6-12.4 105.8-30.9l-11.7-11.7c-30.2 17-65 26.7-102.1 26.7-114.9 0-208-93.1-208-208z"/></svg>