<svg xmlns="http://www.w3.org/2000/svg" viewBox="0 0 512 512"><!--! Font Awesome Pro 7.0.0 by @fontawesome - https://fontawesome.com License - https://fontawesome.com/license (Commercial License) Copyright 2025 Fonticons, Inc. --><path fill="currentColor" d="M203.8 298.1c4.8 1.6 8.5 5.3 10.1 10.1l58.9 176.8c2.1 6.4 8.1 10.8 14.8 10.9s12.9-3.9 15.3-10.3l160-416c2.3-5.9 .9-12.6-3.6-17.1s-11.2-5.9-17.1-3.6l-416 160c-6.3 2.4-10.4 8.5-10.3 15.3s4.5 12.7 10.9 14.8l176.8 58.9zM470.6 41.4c8.9 8.9 11.8 22.3 7.2 34.1l-160 416c-4.8 12.6-17.1 20.8-30.6 20.5s-25.4-9.1-29.6-21.9L198.7 313.3 21.9 254.4C9.1 250.1 .3 238.2 0 224.7S7.9 199 20.5 194.1l416-160c11.8-4.5 25.2-1.7 34.1 7.2z"/></svg>