<svg xmlns="http://www.w3.org/2000/svg" viewBox="0 0 384 512"><!--! Font Awesome Pro 7.0.0 by @fontawesome - https://fontawesome.com License - https://fontawesome.com/license (Commercial License) Copyright 2025 Fonticons, Inc. --><path fill="currentColor" d="M192-16c61.9 0 112 50.1 112 112l0 64-224 0 0-64C80 34.2 130.1-16 192-16zM64 96l0 64c-35.3 0-64 28.7-64 64L0 448c0 35.3 28.7 64 64 64l256 0c35.3 0 64-28.7 64-64l0-224c0-35.3-28.7-64-64-64l0-64c0-70.7-57.3-128-128-128S64 25.3 64 96zM16 224c0-26.5 21.5-48 48-48l256 0c26.5 0 48 21.5 48 48l0 224c0 26.5-21.5 48-48 48L64 496c-26.5 0-48-21.5-48-48l0-224zm136 16c-4.4 0-8 3.6-8 8l0 40-40 0c-4.4 0-8 3.6-8 8s3.6 8 8 8l40 0 0 64-40 0c-4.4 0-8 3.6-8 8s3.6 8 8 8l40 0 0 40c0 4.4 3.6 8 8 8s8-3.6 8-8l0-40 64 0 0 40c0 4.4 3.6 8 8 8s8-3.6 8-8l0-40 40 0c4.4 0 8-3.6 8-8s-3.6-8-8-8l-40 0 0-64 40 0c4.4 0 8-3.6 8-8s-3.6-8-8-8l-40 0 0-40c0-4.4-3.6-8-8-8s-8 3.6-8 8l0 40-64 0 0-40c0-4.4-3.6-8-8-8zm8 128l0-64 64 0 0 64-64 0z"/></svg>