<svg xmlns="http://www.w3.org/2000/svg" viewBox="0 0 448 512"><!--! Font Awesome Pro 7.0.0 by @fontawesome - https://fontawesome.com License - https://fontawesome.com/license (Commercial License) Copyright 2025 Fonticons, Inc. --><path fill="currentColor" d="M5.6 32.4c3.3-1.1 6.9 .1 9 3L224 330.2 433.5 35.4c2-2.8 5.6-4 9-3S448 36.5 448 40l0 424c0 4.4-3.6 8-8 8s-8-3.6-8-8l0-398.9-201.5 283.6c-1.5 2.1-3.9 3.4-6.5 3.4s-5-1.3-6.5-3.4L16 65.1 16 472c0 4.4-3.6 8-8 8s-8-3.6-8-8L0 40c0-3.5 2.3-6.6 5.6-7.6z"/></svg>