<svg xmlns="http://www.w3.org/2000/svg" viewBox="0 0 512 512"><!--! Font Awesome Pro 7.0.0 by @fontawesome - https://fontawesome.com License - https://fontawesome.com/license (Commercial License) Copyright 2025 Fonticons, Inc. --><path fill="currentColor" d="M376 0c-4.4 0-8 3.6-8 8s3.6 8 8 8l108.7 0-92.7 92.7-42.3-42.3c-3.1-3.1-8.2-3.1-11.3 0s-3.1 8.2 0 11.3l42.3 42.3-50.3 50.3c-1.4 1.4-2.1 3.1-2.3 4.9-31.4-29.3-73.6-47.3-120-47.3-97.2 0-176 78.8-176 176s78.8 176 176 176 176-78.8 176-176c0-46.4-17.9-88.6-47.3-120 1.8-.2 3.6-.9 4.9-2.3l50.3-50.3 42.3 42.3c3.1 3.1 8.2 3.1 11.3 0s3.1-8.2 0-11.3L403.3 120 496 27.3 496 136c0 4.4 3.6 8 8 8s8-3.6 8-8L512 8c0-4.4-3.6-8-8-8L376 0zM48 304a160 160 0 1 1 320 0 160 160 0 1 1 -320 0z"/></svg>