<svg xmlns="http://www.w3.org/2000/svg" viewBox="0 0 512 512"><!--! Font Awesome Pro 7.0.0 by @fontawesome - https://fontawesome.com License - https://fontawesome.com/license (Commercial License) Copyright 2025 Fonticons, Inc. --><path fill="currentColor" d="M496 256c0-47.7-13.9-92.1-37.9-129.5 3.9 59.8-37.6 145.8-111.7 219.9S186.4 462 126.5 458.1c37.4 24 81.8 37.9 129.5 37.9 132.5 0 240-107.5 240-240zM53.9 385.5C50 325.7 91.5 239.7 165.6 165.6S325.7 50 385.5 53.9C348.1 29.9 303.7 16 256 16 123.5 16 16 123.5 16 256 16 303.7 29.9 348.1 53.9 385.5zM0 256a256 256 0 1 1 512 0 256 256 0 1 1 -512 0zM425.7 86.3c-18.4-18.4-53.2-22.9-100.6-7.1-46.3 15.4-99.6 49-148.2 97.6S94.7 278.8 79.3 325.1C63.5 372.4 68 407.3 86.3 425.7s53.2 22.8 100.6 7.1c46.3-15.4 99.6-49 148.2-97.6s82.2-101.9 97.6-148.2c15.8-47.3 11.3-82.2-7.1-100.6z"/></svg>