<svg xmlns="http://www.w3.org/2000/svg" viewBox="0 0 576 512"><!--! Font Awesome Pro 7.0.0 by @fontawesome - https://fontawesome.com License - https://fontawesome.com/license (Commercial License) Copyright 2025 Fonticons, Inc. --><path fill="currentColor" d="M560 80a64 64 0 1 0 -128 0 64 64 0 1 0 128 0zM416 80a80 80 0 1 1 160 0 80 80 0 1 1 -160 0zM128 32l249.3 0c-2.1 5.2-3.9 10.5-5.3 16L128 48c-44.2 0-80 35.8-80 80l0 224c0 44.2 35.8 80 80 80l32 0c8.8 0 16 7.2 16 16l0 75.9c0 2.3 2 4 4.1 4.1 .8 0 1.7-.2 2.4-.7 3.3-2.3 6.3-4.5 9.1-6.4l.4-.3c6.7-4.7 30.4-21.5 117.2-82.7 5.4-3.8 11.8-5.9 18.5-5.9L448 432c44.2 0 80-35.8 80-80l0-148c5.5-1.4 10.8-3.2 16-5.3L544 352c0 53-43 96-96 96l-120.4 0c-3.3 0-6.5 1-9.2 2.9L191.8 540.3c-3.4 2.4-7.5 3.7-11.6 3.7-11.1 0-20.1-9-20.1-20.1l0-75.9-32 0c-53 0-96-43-96-96l0-224c0-53 43-96 96-96z"/></svg>