<svg xmlns="http://www.w3.org/2000/svg" viewBox="0 0 640 512"><!--! Font Awesome Pro 7.0.0 by @fontawesome - https://fontawesome.com License - https://fontawesome.com/license (Commercial License) Copyright 2025 Fonticons, Inc. --><path fill="currentColor" d="M208 492.7l0-44.7c0-8.8-7.2-16-16-16l-32 0c-44.2 0-80-35.8-80-80l0-224c0-44.2 35.8-80 80-80l320 0c44.2 0 80 35.8 80 80l0 157.4c6 2.8 11.4 6.7 16 11.4L576 128c0-53-43-96-96-96L160 32c-53 0-96 43-96 96l0 224c0 53 43 96 96 96l32 0 0 75.9c0 11.1 9 20.1 20.1 20.1 4.2 0 8.2-1.3 11.6-3.7l96.2-67.9 0-19.6-80 56.5c-.2 .2-5.6 3.9-16 11.3l-.4 .3c-2.8 2-5.8 4.1-9.1 6.4-.7 .5-1.6 .7-2.4 .7-2.1-.1-4.1-1.8-4.1-4.1l0-31.2zM464 304c0-4.4-3.6-8-8-8s-8 3.6-8 8l0 224c0 4.4 3.6 8 8 8s8-3.6 8-8l0-224zm80 32c0-4.4-3.6-8-8-8s-8 3.6-8 8l0 160c0 4.4 3.6 8 8 8s8-3.6 8-8l0-160zM384 352c0-4.4-3.6-8-8-8s-8 3.6-8 8l0 128c0 4.4 3.6 8 8 8s8-3.6 8-8l0-128zm240 32c0-4.4-3.6-8-8-8s-8 3.6-8 8l0 64c0 4.4 3.6 8 8 8s8-3.6 8-8l0-64z"/></svg>