<svg xmlns="http://www.w3.org/2000/svg" viewBox="0 0 640 512"><!--! Font Awesome Pro 7.0.0 by @fontawesome - https://fontawesome.com License - https://fontawesome.com/license (Commercial License) Copyright 2025 Fonticons, Inc. --><path fill="currentColor" d="M320 16c103.1 0 190.9 65 225 156.2 6 0 12 .8 17.8 2.4-34-101.5-129.9-174.6-242.8-174.6-141.4 0-256 114.6-256 256 0 140.3 112.9 254.2 252.8 256-4.1-5.3-8-10.8-11.6-16.4-125.6-7.7-225.1-112-225.1-239.5 0-132.5 107.5-240 240-240zm0 120c-4.4 0-8 3.6-8 8l0 64c0 4.4 3.6 8 8 8s8-3.6 8-8l0-64c0-4.4-3.6-8-8-8zm-88 8c0-4.4-3.6-8-8-8s-8 3.6-8 8l0 64c0 4.4 3.6 8 8 8s8-3.6 8-8l0-64zm213.5 64c1.5 0 2.9 .5 4 1.5 18.5 16.7 35.8 34.8 51.9 54.3 1.5 1.9 3.8 2.9 6.2 2.9s4.7-1.1 6.2-3c7.4-9.4 15.6-19.3 24.3-27.2 2.3-2.1 5.9-2.1 8.2 0 18.9 17.4 38.4 41.2 53.2 67.2 14.8 26.1 24.5 54 24.5 79.7 0 49.7-25.1 93.7-63.4 119.8 9.7-14 15.4-30.7 15.4-48.7 0-57.4-63.8-110.5-87.4-128.2-5.2-3.9-12.1-3.9-17.3 0-23.6 17.7-87.4 70.8-87.4 128.2 0 18.2 5.8 35 15.7 49.2-38.7-26-63.7-70.3-63.7-120.3 0-32.3 14.1-64.9 34.7-95.2 20.5-30.2 47-57.4 70.8-78.7 1.1-1 2.6-1.5 4.1-1.5zM480 528c-2.7 0-5.5-.1-8.2-.2-41.2-3.8-71.8-36-71.8-73.2 0-23 13-47 31.1-68.7 17.3-20.7 37.4-37.2 48.9-45.9 11.5 8.7 31.6 25.2 48.9 45.9 18.1 21.7 31.1 45.7 31.1 68.7 0 37.2-30.6 69.4-71.7 73.2-2.7 .2-5.5 .2-8.3 .2zM430.7 197.6c-24.3 21.8-51.8 50-73.3 81.6-21.5 31.6-37.4 67.4-37.4 104.2 0 88.1 70.3 160.6 160 160.6 88.8 0 160-72.4 160-160.6 0-29.5-11-60.1-26.6-87.6-15.6-27.6-36.2-52.6-56.3-71.1-8.4-7.7-21.4-7.8-29.8-.1-7.1 6.5-13.8 14.1-19.9 21.5-14.8-17.3-30.6-33.4-47.2-48.4-4.2-3.8-9.4-5.6-14.6-5.7-5.3 0-10.6 1.8-14.9 5.6z"/></svg>