<svg xmlns="http://www.w3.org/2000/svg" viewBox="0 0 384 512"><!--! Font Awesome Pro 7.0.0 by @fontawesome - https://fontawesome.com License - https://fontawesome.com/license (Commercial License) Copyright 2025 Fonticons, Inc. --><path fill="currentColor" d="M192 16c44.2 0 80 35.8 80 80l0 128c0 44.2-35.8 80-80 80s-80-35.8-80-80l0-128c0-44.2 35.8-80 80-80zM96 96l0 128c0 53 43 96 96 96s96-43 96-96l0-128c0-53-43-96-96-96S96 43 96 96zM16 168c0-4.4-3.6-8-8-8s-8 3.6-8 8l0 56C0 327.4 81.7 411.6 184 415.8l0 80.2-72 0c-4.4 0-8 3.6-8 8s3.6 8 8 8l160 0c4.4 0 8-3.6 8-8s-3.6-8-8-8l-72 0 0-80.2c102.3-4.2 184-88.5 184-191.8l0-56c0-4.4-3.6-8-8-8s-8 3.6-8 8l0 56c0 97.2-78.8 176-176 176S16 321.2 16 224l0-56z"/></svg>