<svg xmlns="http://www.w3.org/2000/svg" viewBox="0 0 512 512"><!--! Font Awesome Pro 7.0.0 by @fontawesome - https://fontawesome.com License - https://fontawesome.com/license (Commercial License) Copyright 2025 Fonticons, Inc. --><path fill="currentColor" d="M160 8c0-4.4-3.6-8-8-8s-8 3.6-8 8l0 56-16 0c-35.3 0-64 28.7-64 64l0 16-56 0c-4.4 0-8 3.6-8 8s3.6 8 8 8l56 0 0 88-56 0c-4.4 0-8 3.6-8 8s3.6 8 8 8l56 0 0 88-56 0c-4.4 0-8 3.6-8 8s3.6 8 8 8l56 0 0 16c0 35.3 28.7 64 64 64l16 0 0 56c0 4.4 3.6 8 8 8s8-3.6 8-8l0-56 88 0 0 56c0 4.4 3.6 8 8 8s8-3.6 8-8l0-56 88 0 0 56c0 4.4 3.6 8 8 8s8-3.6 8-8l0-56 16 0c35.3 0 64-28.7 64-64l0-16 56 0c4.4 0 8-3.6 8-8s-3.6-8-8-8l-56 0 0-88 56 0c4.4 0 8-3.6 8-8s-3.6-8-8-8l-56 0 0-88 56 0c4.4 0 8-3.6 8-8s-3.6-8-8-8l-56 0 0-16c0-35.3-28.7-64-64-64l-16 0 0-56c0-4.4-3.6-8-8-8s-8 3.6-8 8l0 56-88 0 0-56c0-4.4-3.6-8-8-8s-8 3.6-8 8l0 56-88 0 0-56zm96 72l128 0c26.5 0 48 21.5 48 48l0 256c0 26.5-21.5 48-48 48l-256 0c-26.5 0-48-21.5-48-48l0-256c0-26.5 21.5-48 48-48l128 0zm96 96l0 160c0 8.8-7.2 16-16 16l-160 0c-8.8 0-16-7.2-16-16l0-160c0-8.8 7.2-16 16-16l160 0c8.8 0 16 7.2 16 16zM176 144c-17.7 0-32 14.3-32 32l0 160c0 17.7 14.3 32 32 32l160 0c17.7 0 32-14.3 32-32l0-160c0-17.7-14.3-32-32-32l-160 0z"/></svg>