<svg xmlns="http://www.w3.org/2000/svg" viewBox="0 0 320 512"><!--! Font Awesome Pro 7.0.0 by @fontawesome - https://fontawesome.com License - https://fontawesome.com/license (Commercial License) Copyright 2025 Fonticons, Inc. --><path fill="currentColor" d="M256 16c26.5 0 48 21.5 48 48l0 288-288 0 0-288c0-26.5 21.5-48 48-48l192 0zm48 352l0 80c0 26.5-21.5 48-48 48L64 496c-26.5 0-48-21.5-48-48l0-80 288 0zM64 0C28.7 0 0 28.7 0 64L0 448c0 35.3 28.7 64 64 64l192 0c35.3 0 64-28.7 64-64l0-384c0-35.3-28.7-64-64-64L64 0zm96 416c8.8 0 16 7.2 16 16s-7.2 16-16 16-16-7.2-16-16 7.2-16 16-16zm-32 16c0 17.7 14.3 32 32 32s32-14.3 32-32-14.3-32-32-32-32 14.3-32 32z"/></svg>