<svg xmlns="http://www.w3.org/2000/svg" viewBox="0 0 576 512"><!--! Font Awesome Pro 7.0.0 by @fontawesome - https://fontawesome.com License - https://fontawesome.com/license (Commercial License) Copyright 2025 Fonticons, Inc. --><path fill="currentColor" d="M517.7 338.3c-3.1-3.1-8.2-3.1-11.3 0l-56 56-1 1.3c-2 3.1-1.7 7.3 1 10.1s7 3.1 10.1 1l1.3-1 42.3-42.3 0 56.7c0 50.8-41.2 92-92 92-25.9 0-49.3-10.8-66-28l-11.3 11.3c19.6 20.1 47 32.7 77.3 32.7 59.6 0 108-48.4 108-108l0-56.7 42.3 42.3 1.2 1c3.1 2 7.3 1.7 10.1-1s3.1-7 1-10.1l-1-1.3-56-56zM392.4 14.3c-25.1-20.5-62.2-19-85.7 4.4l-256 256-4.4 4.8c-20.5 25.1-19 62.2 4.4 85.7l128 128 4.6 4.1c21.9 18.1 53 19.4 76.2 3.9l4.8-3.6 4.8-4.4 256-256c23.4-23.4 24.9-60.5 4.4-85.7l-4.4-4.8-128-128-4.8-4.4zM318.1 30.1c17.5-17.5 45.2-18.7 64.1-3.5l4 3.7 127.8 127.8c18.7 18.7 18.7 49.1 0 67.9l-255.8 255.8-4 3.7c-18.8 15.2-46.5 14.1-64.1-3.4l-128-128-3.1-3.4c-14.5-17.6-14.6-43.2-.2-60.8l0 0 3.5-3.9 255.8-255.8zM148.4 329.3c-3.1-2-7.3-1.7-10.1 1s-3.1 7-1 10.1l1 1.2 64 64c3.1 3.1 8.2 3.1 11.3 0s3.1-8.2 0-11.3l-64-64-1.2-1zM164-16C104.4-16 56 32.4 56 92l0 56.7-42.3-42.3-1.2-1c-3.1-2-7.3-1.7-10.1 1s-3.1 7-1 10.1l1 1.3 56 56c3.1 3.1 8.2 3.1 11.3 0l56-56 1-1.3c2-3.1 1.7-7.3-1-10.1s-7-3.1-10.1-1l-1.3 1-42.3 42.3 0-56.7c0-50.8 41.2-92 92-92 25.9 0 49.3 10.8 66 28l11.3-11.3C221.7-3.5 194.4-16 164-16z"/></svg>