<svg xmlns="http://www.w3.org/2000/svg" viewBox="0 0 512 512"><!--! Font Awesome Pro 7.0.0 by @fontawesome - https://fontawesome.com License - https://fontawesome.com/license (Commercial License) Copyright 2025 Fonticons, Inc. --><path fill="currentColor" d="M64 80c-26.5 0-48 21.5-48 48l0 256c0 26.5 21.5 48 48 48l384 0c26.5 0 48-21.5 48-48l0-256c0-26.5-21.5-48-48-48L64 80zM0 128C0 92.7 28.7 64 64 64l384 0c35.3 0 64 28.7 64 64l0 256c0 35.3-28.7 64-64 64L64 448c-35.3 0-64-28.7-64-64L0 128zM280 288l144 0c4.4 0 8 3.6 8 8s-3.6 8-8 8l-144 0c-4.4 0-8-3.6-8-8s3.6-8 8-8zm-8-72c0-4.4 3.6-8 8-8l144 0c4.4 0 8 3.6 8 8s-3.6 8-8 8l-144 0c-4.4 0-8-3.6-8-8zM160 152c4.4 0 8 3.6 8 8l0 16 24 0c4.4 0 8 3.6 8 8s-3.6 8-8 8l-45.4 0c-14.7 0-26.6 11.9-26.6 26.6 0 13 9.4 24.1 22.3 26.3l38.1 6.3c20.6 3.4 35.6 21.2 35.6 42.1 0 23.6-19.1 42.6-42.6 42.6l-5.4 0 0 16c0 4.4-3.6 8-8 8s-8-3.6-8-8l0-16-32 0c-4.4 0-8-3.6-8-8s3.6-8 8-8l53.4 0c14.7 0 26.6-11.9 26.6-26.6 0-13-9.4-24.1-22.3-26.3l-38.1-6.3c-20.6-3.4-35.6-21.2-35.6-42.1 0-23.6 19.1-42.6 42.6-42.6l5.4 0 0-16c0-4.4 3.6-8 8-8z"/></svg>