<svg xmlns="http://www.w3.org/2000/svg" viewBox="0 0 320 512"><!--! Font Awesome Pro 7.0.0 by @fontawesome - https://fontawesome.com License - https://fontawesome.com/license (Commercial License) Copyright 2025 Fonticons, Inc. --><path fill="currentColor" d="M154.3-29.7c3.1-3.1 8.2-3.1 11.3 0l80 80c1.3 1.3 2.1 3.1 2.3 4.9L287.3 496 312 496c4.4 0 8 3.6 8 8s-3.6 8-8 8L8 512c-4.4 0-8-3.6-8-8s3.6-8 8-8L32.7 496 72 55.3c.2-1.9 1-3.6 2.3-4.9l80-80zm77.9 89.3l-72.3-72.3-72.3 72.3-39 436.4 222.5 0-39-436.4zM104 304l112 0c4.4 0 8 3.6 8 8s-3.6 8-8 8l-112 0c-4.4 0-8-3.6-8-8s3.6-8 8-8z"/></svg>