<svg xmlns="http://www.w3.org/2000/svg" viewBox="0 0 512 512"><!--! Font Awesome Pro 7.0.0 by @fontawesome - https://fontawesome.com License - https://fontawesome.com/license (Commercial License) Copyright 2025 Fonticons, Inc. --><path fill="currentColor" d="M16 256c0 132.5 107.5 240 240 240 64.5 0 123.1-25.5 166.2-66.9 2.4-2.3 3.1-6 1.8-9s-4.6-5-7.9-4.7c-114.6 9.1-216.1-83.9-216.1-199.4 0-78.4 45.2-146.4 110.9-179.1 3-1.5 4.8-4.8 4.4-8.1s-2.9-6.1-6.2-6.8C292 18 274.3 16 256 16 123.5 16 16 123.4 16 256zM0 256c0-141.4 114.6-256 256-256 19.4 0 38.4 2.2 56.7 6.3 9.9 2.2 17.3 10.5 18.5 20.5s-4 19.8-13.1 24.4c-60.6 30.2-102.1 92.7-102.1 164.8 0 106.1 93.4 191.8 198.8 183.4 10.1-.8 19.6 4.8 23.8 14.1s2 20.1-5.3 27.1C387.3 484.8 324.8 512 256 512 114.6 512 0 397.4 0 256zM416 112l0 80 80 0c4.4 0 8 3.6 8 8s-3.6 8-8 8l-80 0 0 80c0 4.4-3.6 8-8 8s-8-3.6-8-8l0-80-80 0c-4.4 0-8-3.6-8-8s3.6-8 8-8l80 0 0-80c0-4.4 3.6-8 8-8s8 3.6 8 8z"/></svg>