<svg xmlns="http://www.w3.org/2000/svg" viewBox="0 0 576 512"><!--! Font Awesome Pro 7.0.0 by @fontawesome - https://fontawesome.com License - https://fontawesome.com/license (Commercial License) Copyright 2025 Fonticons, Inc. --><path fill="currentColor" d="M392.3 4.9c-2.4-1-5.2-.9-7.4 .5L292.7 66.6c-2.7 1.8-6.2 1.8-8.8 0L191.7 5.4c-2.2-1.5-5-1.5-7.4-.5s-4.3 3-4.9 5.6L157.5 118.9c-.6 3.2-3.1 5.6-6.3 6.3L42.8 147.1c-2.6 .5-4.6 2.4-5.6 4.9s-.9 5.2 .5 7.4l61.2 92.2c1.8 2.7 1.8 6.2 0 8.8L37.7 352.6c-1.5 2.2-1.5 5-.5 7.4s3 4.3 5.6 4.9l108.4 21.9c3.2 .6 5.6 3.1 6.3 6.3l21.9 108.4c.5 2.6 2.4 4.6 4.9 5.6s5.2 .9 7.4-.5l92.2-61.2c2.7-1.8 6.2-1.8 8.8 0l92.2 61.2c2.2 1.5 5 1.5 7.4 .5s4.3-3 4.9-5.6l21.9-108.4c.6-3.2 3.1-5.6 6.3-6.3l108.4-21.9c2.6-.5 4.6-2.4 5.6-4.9s.9-5.2-.5-7.4l-61.2-92.2c-1.8-2.7-1.8-6.2 0-8.8l61.2-92.2c1.5-2.2 1.5-5 .5-7.4s-3-4.3-5.6-4.9L425.3 125.2c-3.2-.6-5.6-3.1-6.3-6.3L397.1 10.5c-.5-2.6-2.4-4.6-4.9-5.6zM376-7.9c7.4-4.9 16-4.6 22.4-2S411-1.4 412.8 7.3l20.9 103.2 103.2 20.9c8.8 1.8 14.6 8.1 17.2 14.4s3 14.9-2 22.4l-58.2 87.8 58.2 87.8c4.9 7.4 4.6 16 2 22.4s-8.4 12.6-17.2 14.4l-103.2 20.9-20.9 103.2c-1.8 8.8-8.1 14.6-14.4 17.2s-14.9 3-22.4-2l-87.8-58.2-87.8 58.2c-7.4 4.9-16 4.6-22.4 2s-12.7-8.4-14.4-17.2L142.8 401.4 39.6 380.5c-8.8-1.8-14.6-8.1-17.2-14.4l0 0c-2.6-6.3-3-14.9 2-22.4L82.6 256 24.4 168.2c-4.9-7.4-4.6-16-2-22.4s8.4-12.6 17.2-14.4L142.8 110.6 163.7 7.3c1.8-8.8 8.1-14.6 14.4-17.2s14.9-3 22.4 2l0 0 87.8 58.2 87.8-58.2zM175.7 256a112.3 112.3 0 1 1 224.5 0 112.3 112.3 0 1 1 -224.5 0zm196.2 47c7.8-13.9 12.3-30 12.3-47.1 0-39.2-23.5-73-57.3-87.9-23 12-38.7 36.1-38.7 63.9 0 39.8 32.2 72 72 72 4 0 7.9-.3 11.7-.9zM307.1 161.8c-6.1-1.2-12.4-1.9-18.9-1.9-53 0-96 43-96 96s43 96 96 96c28.4 0 54-12.4 71.5-32-48.4-.2-87.5-39.5-87.5-88 0-28.6 13.7-54.1 34.9-70.2z"/></svg>