<svg xmlns="http://www.w3.org/2000/svg" viewBox="0 0 640 512"><!--! Font Awesome Pro 7.0.0 by @fontawesome - https://fontawesome.com License - https://fontawesome.com/license (Commercial License) Copyright 2025 Fonticons, Inc. --><path fill="currentColor" d="M256.2 32c13.7 0 26.4 7.5 33 19.6l202.5 373c6.3 11.6 6 25.7-.7 37.1-6.8 11.3-19 18.3-32.2 18.3l-405 0c-13.2 0-25.5-7-32.2-18.3-6.8-11.4-7.1-25.5-.8-37.1l202.5-373 2.8-4.3c7-9.5 18.2-15.3 30.2-15.3zM417.9 96c11.7 0 22.4 6.4 28.1 16.6l175.5 320 1.8 3.8c3.5 9.1 2.7 19.4-2.3 27.9-5.8 9.7-16.2 15.7-27.5 15.7l-56.2 0c2.5-5.2 4.5-10.5 5.9-16l50.3 0c5.7 0 10.9-3 13.8-7.8l1.5-3.3c1.1-3.4 1-7.1-.3-10.4L607.3 440 432 120.3c-2.5-4.5-6.9-7.5-11.9-8.2l-2.2-.2c-5.1 0-9.8 2.5-12.8 6.5l-1.4 2.2-10.4 18.9-9.1-16.7 5.7-10.2 2.3-3.7c6-8.1 15.5-13 25.7-13zM34.8 432.2c-3.6 6.6-3.4 14.8 .4 21.3l1.6 2.3c4 5.1 10.3 8.2 16.9 8.2l405 0c7.6 0 14.6-4 18.5-10.5l1.3-2.5c2.2-5.2 2.3-11 .3-16.2l-1.2-2.6-104.4-192.2-98.1 0-57.7 49.8c-2.8 2.4-6.8 2.6-9.7 .6l-1.2-1-60-59.7-1.2-1.2-110.6 203.8zM256.2 48c-6.8 0-13.1 3.2-17.2 8.5l-2.1 3.2-83.6 154.1 4.5 4.5 54.7 54.4 54.4-46.8 1.2-.8c1.2-.7 2.6-1.1 4.1-1.1l92.3 0-89.4-164.8c-3.3-6-9.2-10.1-16-11l-2.9-.2z"/></svg>