<svg xmlns="http://www.w3.org/2000/svg" viewBox="0 0 640 512"><!--! Font Awesome Pro 7.0.0 by @fontawesome - https://fontawesome.com License - https://fontawesome.com/license (Commercial License) Copyright 2025 Fonticons, Inc. --><path fill="currentColor" d="M312.3 0c-30.9 0-56 25.1-56 56l0 62.1c5.6 2.4 11 5.5 16 9.3l0-71.4c0-22.1 17.9-40 40-40l96 0c22.1 0 40 17.9 40 40l0 48c0 4.4 3.6 8 8 8l96 0c22.1 0 40 17.9 40 40l0 304c0 22.1-17.9 40-40 40l-79.8 0c-.5 0-.9 0-1.4 0-1.1 5.4-2.8 10.6-5 15.7 2.1 .2 4.2 .4 6.4 .4l79.8 0c30.9 0 56-25.1 56-56l0-304c0-30.9-25.1-56-56-56l-24 0 0-88c0-4.4-3.6-8-8-8s-8 3.6-8 8l0 88-48 0 0-40c0-30.9-25.1-56-56-56l-96 0zm64 264c13.3 0 24-10.7 24-24l0-24c0-13.3-10.7-24-24-24l-24 0c-11.8 0-21.6 8.5-23.6 19.7l15.6 26.8 0-22.5c0-4.4 3.6-8 8-8l24 0c4.4 0 8 3.6 8 8l0 24c0 4.4-3.6 8-8 8l-24 0c-.9 0-1.9-.2-2.7-.5l9.6 16.5 17.1 0zm-48-168l0 24c0 13.3 10.7 24 24 24l24 0c13.3 0 24-10.7 24-24l0-24c0-13.3-10.7-24-24-24l-24 0c-13.3 0-24 10.7-24 24zm24-8l24 0c4.4 0 8 3.6 8 8l0 24c0 4.4-3.6 8-8 8l-24 0c-4.4 0-8-3.6-8-8l0-24c0-4.4 3.6-8 8-8zm136 104c-13.3 0-24 10.7-24 24l0 24c0 13.3 10.7 24 24 24l24 0c13.3 0 24-10.7 24-24l0-24c0-13.3-10.7-24-24-24l-24 0zm-8 24c0-4.4 3.6-8 8-8l24 0c4.4 0 8 3.6 8 8l0 24c0 4.4-3.6 8-8 8l-24 0c-4.4 0-8-3.6-8-8l0-24zm8 96c-13.3 0-24 10.7-24 24l0 24c0 13.3 10.7 24 24 24l24 0c13.3 0 24-10.7 24-24l0-24c0-13.3-10.7-24-24-24l-24 0zm-8 24c0-4.4 3.6-8 8-8l24 0c4.4 0 8 3.6 8 8l0 24c0 4.4-3.6 8-8 8l-24 0c-4.4 0-8-3.6-8-8l0-24zM210.5 183.4c6.2-10.6 21.5-10.6 27.6 0l70.3 120.6-84.1 0c-2.1 0-4.2 .8-5.7 2.3l-42.3 42.3-39.3-39.3 73.5-125.9zM42.2 471.9l86.5-148.3 42 42c3.1 3.1 8.2 3.1 11.3 0l45.7-45.7 90.2 0 88.6 151.9c6.2 10.7-1.5 24.1-13.8 24.1L56 496c-12.3 0-20-13.4-13.8-24.1zM196.7 175.4L28.4 463.9C16 485.2 31.4 512 56 512l336.6 0c24.7 0 40.1-26.8 27.6-48.1L252 175.4c-12.3-21.2-42.9-21.2-55.3 0z"/></svg>