<svg xmlns="http://www.w3.org/2000/svg" viewBox="0 0 512 512"><!--! Font Awesome Pro 7.0.0 by @fontawesome - https://fontawesome.com License - https://fontawesome.com/license (Commercial License) Copyright 2025 Fonticons, Inc. --><path fill="currentColor" d="M256 0c14.7 0 28.2 8.1 35.2 21l216 400c6.7 12.4 6.4 27.4-.8 39.5S486.1 480 472 480L40 480c-14.1 0-27.1-7.4-34.3-19.5s-7.5-27.1-.8-39.5l216-400 2.9-4.6C231.2 6.2 243.2 0 256 0zm3.3 224l-61.7 61.7c-3.1 3.1-8.2 3.1-11.3 0L128.9 228.2 20.3 429.4c-3.7 6.9-3.6 15.3 .5 22.1l1.7 2.4c4.2 5.3 10.7 8.5 17.6 8.5l432 0c7.9 0 15.2-4.2 19.2-10.9l1.3-2.6c2.3-5.3 2.4-11.4 .3-16.8l-1.2-2.7-110.9-205.4-121.5 0zM256 17.6c-7 0-13.6 3.3-17.8 8.8l-2.3 3.7-99.1 183.4 55.2 55.2 58.3-58.3 1.2-1c1.3-.9 2.9-1.3 4.4-1.3l116.2 0-96.5-178.6c-3.9-7.2-11.5-11.8-19.7-11.8z"/></svg>