<svg xmlns="http://www.w3.org/2000/svg" viewBox="0 0 576 512"><!--! Font Awesome Pro 7.0.0 by @fontawesome - https://fontawesome.com License - https://fontawesome.com/license (Commercial License) Copyright 2025 Fonticons, Inc. --><path fill="currentColor" d="M184 80L96 80c-8.8 0-16 7.2-16 16l0 256c0 44.2 35.8 80 80 80l192 0c44.2 0 80-35.8 80-80l0-272-232 0 0 37 46.1 52.7c6.4 7.3 9.9 16.7 9.9 26.3l0 52c0 22.1-17.9 40-40 40l-48 0c-22.1 0-40-17.9-40-40l0-52c0-9.7 3.5-19 9.9-26.3L184 117 184 80zm8-16l280 0c57.4 0 104 46.6 104 104S529.4 272 472 272l-24 0 0 80c0 53-43 96-96 96l-192 0c-53 0-96-43-96-96L64 96c0-17.7 14.3-32 32-32l96 0zM448 256l24 0c48.6 0 88-39.4 88-88s-39.4-88-88-88l-24 0 0 176zM149.9 180.2c-3.8 4.4-5.9 10-5.9 15.8l0 52c0 13.3 10.7 24 24 24l48 0c13.3 0 24-10.7 24-24l0-52c0-5.8-2.1-11.4-5.9-15.8l-42.1-48.1-42.1 48.1z"/></svg>