<svg xmlns="http://www.w3.org/2000/svg" viewBox="0 0 576 512"><!--! Font Awesome Pro 7.0.0 by @fontawesome - https://fontawesome.com License - https://fontawesome.com/license (Commercial License) Copyright 2025 Fonticons, Inc. --><path fill="currentColor" d="M296 16c-17.7 0-32 14.3-32 32l0 32-16 0c0-17.7-14.3-32-32-32l-72 0c-17.7 0-32 14.3-32 32L96 80c0-26.5 21.5-48 48-48l72 0C228.4 32 239.6 36.7 248.1 44.3 250 19.5 270.7 0 296 0l72 0c26.5 0 48 21.5 48 48l0 32-16 0 0-32c0-17.7-14.3-32-32-32l-72 0zM96 144c-8.8 0-16 7.2-16 16l0 224c0 44.2 35.8 80 80 80l192 0c44.2 0 80-35.8 80-80l0-240-256 0 0 136c0 4.4-3.6 8-8 8s-8-3.6-8-8l0-136-64 0zm352 0l0 176 24 0c48.6 0 88-39.4 88-88s-39.4-88-88-88l-24 0zm0 192l0 48c0 53-43 96-96 96l-192 0c-53 0-96-43-96-96l0-224c0-17.7 14.3-32 32-32l376 0c57.4 0 104 46.6 104 104S529.4 336 472 336l-24 0z"/></svg>