<svg xmlns="http://www.w3.org/2000/svg" viewBox="0 0 576 512"><!--! Font Awesome Pro 7.0.0 by @fontawesome - https://fontawesome.com License - https://fontawesome.com/license (Commercial License) Copyright 2025 Fonticons, Inc. --><path fill="currentColor" d="M224.3 0c67.1 0 122.1 51.7 127.5 117.4 .3 .8 .5 1.7 .5 2.6 0 .5-.1 1.1-.2 1.6 .1 2.1 .2 4.3 .2 6.4l0 67.2c-5.5 2.8-10.8 5.9-16 9.3l0-76.5-16.4 0c-4.1 49.3-45.3 88-95.6 88s-91.5-38.7-95.6-88l-16.4 0 0 112 184.2 0c-4.2 5.1-8.1 10.4-11.7 16l-177.3 0c-13.4 0-24.9 5.2-31.5 13.8l-2.5 3.9c-33.4 62.8-33.4 141.8 0 204.6 5.8 10.9 18.6 17.7 34 17.7l133.6 0c1.1 5.5 2.8 10.9 5.1 16l-138.7 0-7.3-.4c-15.8-1.8-30.4-9.4-38.9-22.6l-1.8-3.2c-17.3-32.5-27.2-72.4-27.2-109.8 0-32.7 7.6-67.4 21-97.3l6.1-12.5c7.5-14 21.4-22.4 36.8-25.2l0-113c0-2.2 0-4.3 .1-6.4-.1-.5-.1-1-.1-1.6 0-.9 .2-1.8 .4-2.6 5.4-65.7 60.4-117.4 127.6-117.4zm208 224c70.7 0 128 57.3 128 128l0 61.5 .4 9.2c.9 9.1 3 18 6.4 26.5l7.6 19c8.4 21-7.1 43.9-29.7 43.9l-225.5 0-4.2-.2c-19-2.4-31.7-21.2-26.8-39.7l1.3-3.9 7.6-19c3.4-8.5 5.6-17.4 6.4-26.5l.4-9.2 0-61.5c0-70.7 57.3-128 128-128zm-112 189.5c0 12.5-2.1 24.8-6.2 36.6l-1.8 5-7.6 19c-4.2 10.5 3.5 21.9 14.8 21.9L545 496c10.6 0 18.1-10.1 15.5-20l-.7-2-7.6-19c-5.3-13.2-8-27.4-8-41.6l0-45.5-16.4 0c-4.1 49.3-45.3 88-95.6 88l-9.5-.5c-45.9-4.5-82.3-41.4-86.1-87.5l-16.4 0 0 45.5zm109.3-94.2c-14.6 29.3-44.3 47.9-76.9 48.6 3.7 37.8 33.7 67.9 71.5 71.7l8.2 .4c41.4 0 75.5-31.5 79.6-71.8l0-.3c-30.5-.6-58.4-17-73.9-43.1l-3-5.5-2.7-5.5-2.7 5.5zm2.7-79.3c-61.9 0-112 50.1-112 112l30.6 0c27.3 0 52.2-15.4 64.4-39.8l9.9-19.8 1.2-1.8c1.5-1.6 3.6-2.6 5.9-2.6 3 0 5.8 1.7 7.2 4.4l9.9 19.8 2.4 4.5c12.9 21.8 36.4 35.3 62 35.3l30.6 0c0-61.9-50.1-112-112-112zM221.5 79.3c-14.6 29.3-44.3 47.9-76.9 48.6 4 40.5 38.1 72.1 79.6 72.1 41.4 0 75.5-31.5 79.6-71.8l0-.2c-30.5-.6-58.4-17-73.9-43.1l-3-5.5-2.7-5.5-2.7 5.5zM224.3 16c-56.4 0-103.1 41.7-110.8 96l29.4 0c27.3 0 52.2-15.4 64.4-39.8l9.9-19.8 1.2-1.8c1.5-1.6 3.6-2.6 5.9-2.6 3 0 5.8 1.7 7.2 4.4l9.9 19.8 2.4 4.5c12.9 21.8 36.4 35.3 62 35.3l29.4 0c-7.8-54.3-54.4-96-110.8-96z"/></svg>