<svg xmlns="http://www.w3.org/2000/svg" viewBox="0 0 448 512"><!--! Font Awesome Pro 7.0.0 by @fontawesome - https://fontawesome.com License - https://fontawesome.com/license (Commercial License) Copyright 2025 Fonticons, Inc. --><path fill="currentColor" d="M382.5 44.6c2.5-3.6 1.7-8.6-1.9-11.1s-8.6-1.7-11.1 1.9L304.3 128 8 128c-4.4 0-8 3.6-8 8s3.6 8 8 8L293 144 135.4 368 8 368c-4.4 0-8 3.6-8 8s3.6 8 8 8l116.1 0-58.7 83.4c-2.5 3.6-1.7 8.6 1.9 11.1s8.6 1.7 11.1-1.9L143.7 384 440 384c4.4 0 8-3.6 8-8s-3.6-8-8-8l-285 0 157.6-224 127.4 0c4.4 0 8-3.6 8-8s-3.6-8-8-8l-116.1 0 58.7-83.4z"/></svg>