<svg xmlns="http://www.w3.org/2000/svg" viewBox="0 0 448 512"><!--! Font Awesome Pro 7.0.0 by @fontawesome - https://fontawesome.com License - https://fontawesome.com/license (Commercial License) Copyright 2025 Fonticons, Inc. --><path fill="currentColor" d="M64 464c-26.5 0-48-21.5-48-48L16 96c0-26.5 21.5-48 48-48l320 0c26.5 0 48 21.5 48 48l0 197.5c0 3.6-.4 7.1-1.2 10.5L328 304c-30.9 0-56 25.1-56 56l0 102.8c-3.4 .8-6.9 1.2-10.5 1.2L64 464zM424 320c-1.8 2.7-3.8 5.1-6.1 7.4L295.4 449.9c-2.3 2.3-4.8 4.3-7.4 6.1l0-96c0-22.1 17.9-40 40-40l96 0zM0 416c0 35.3 28.7 64 64 64l197.5 0c17 0 33.3-6.7 45.3-18.7L429.3 338.7c12-12 18.7-28.3 18.7-45.3L448 96c0-35.3-28.7-64-64-64L64 32C28.7 32 0 60.7 0 96L0 416z"/></svg>