<svg xmlns="http://www.w3.org/2000/svg" viewBox="0 0 576 512"><!--! Font Awesome Pro 7.0.0 by @fontawesome - https://fontawesome.com License - https://fontawesome.com/license (Commercial License) Copyright 2025 Fonticons, Inc. --><path fill="currentColor" d="M208 48c17.7 0 32 14.3 32 32l0 352c0 17.7-14.3 32-32 32l-64 0c-17.7 0-32-14.3-32-32l0-352c0-17.7 14.3-32 32-32l64 0zm48 200l0-168c0-26.5-21.5-48-48-48l-64 0c-26.5 0-48 21.5-48 48l0 168-88 0c-4.4 0-8 3.6-8 8s3.6 8 8 8l88 0 0 168c0 26.5 21.5 48 48 48l64 0c26.5 0 48-21.5 48-48l0-168 64 0 0 104c0 26.5 21.5 48 48 48l64 0c26.5 0 48-21.5 48-48l0-104 88 0c4.4 0 8-3.6 8-8s-3.6-8-8-8l-88 0 0-104c0-26.5-21.5-48-48-48l-64 0c-26.5 0-48 21.5-48 48l0 104-64 0zm80 8l0-112c0-17.7 14.3-32 32-32l64 0c17.7 0 32 14.3 32 32l0 224c0 17.7-14.3 32-32 32l-64 0c-17.7 0-32-14.3-32-32l0-112z"/></svg>