<svg xmlns="http://www.w3.org/2000/svg" viewBox="0 0 640 512"><!--! Font Awesome Pro 7.0.0 by @fontawesome - https://fontawesome.com License - https://fontawesome.com/license (Commercial License) Copyright 2025 Fonticons, Inc. --><path fill="currentColor" d="M0 48C0 71.8 17.3 91.5 40 95.3l0 161.3c-22.7 3.8-40 23.6-40 47.3 0 26.5 21.5 48 48 48 23.8 0 43.5-17.3 47.3-40l257.3 0c3.8 22.7 23.6 40 47.3 40 26.5 0 48-21.5 48-48 0-23.8-17.3-43.5-40-47.3l0-161.3c22.7-3.8 40-23.6 40-47.3 0-26.5-21.5-48-48-48-23.8 0-43.5 17.3-47.3 40L95.3 40C91.5 17.3 71.8 0 48 0 21.5 0 0 21.5 0 48zm352.7 8C356 76.1 371.9 92 392 95.3l0 161.3c-20.1 3.4-36 19.2-39.3 39.3L95.3 296C92 275.9 76.1 260 56 256.7L56 95.3C76.1 92 92 76.1 95.3 56l257.3 0zM464 200l-8 0 0 16 88.7 0c3.4 20.1 19.2 36 39.3 39.3l0 161.3c-20.1 3.4-36 19.2-39.3 39.3l-257.3 0c-3.4-20.1-19.2-36-39.3-39.3l0-56.7-16 0 0 56.7c-22.7 3.8-40 23.6-40 47.3 0 26.5 21.5 48 48 48 23.8 0 43.5-17.3 47.3-40l257.3 0c3.8 22.7 23.6 40 47.3 40 26.5 0 48-21.5 48-48 0-23.8-17.3-43.5-40-47.3l0-161.3c22.7-3.8 40-23.6 40-47.3 0-26.5-21.5-48-48-48-23.8 0-43.5 17.3-47.3 40L464 200zm128 40a32 32 0 1 1 0-64 32 32 0 1 1 0 64zM560 464a32 32 0 1 1 64 0 32 32 0 1 1 -64 0zM240 496a32 32 0 1 1 0-64 32 32 0 1 1 0 64zM368 304a32 32 0 1 1 64 0 32 32 0 1 1 -64 0zM48 336a32 32 0 1 1 0-64 32 32 0 1 1 0 64zM368 48a32 32 0 1 1 64 0 32 32 0 1 1 -64 0zM48 80a32 32 0 1 1 0-64 32 32 0 1 1 0 64z"/></svg>