<svg xmlns="http://www.w3.org/2000/svg" viewBox="0 0 512 512"><!--! Font Awesome Pro 7.0.0 by @fontawesome - https://fontawesome.com License - https://fontawesome.com/license (Commercial License) Copyright 2025 Fonticons, Inc. --><path fill="currentColor" d="M159.4 25.4c6-6 14.1-9.4 22.6-9.4l148.8 0c8.5 0 16.6 3.4 22.6 9.4L487 159c6 6 9.4 14.1 9.4 22.6l0 148.8c0 8.5-3.4 16.6-9.4 22.6L353.5 486.6c-6 6-14.1 9.4-22.6 9.4l-148.8 0c-8.5 0-16.6-3.4-22.6-9.4L25.9 353c-6-6-9.4-14.1-9.4-22.6l0-148.8c0-8.5 3.4-16.6 9.4-22.6L159.4 25.4zM182 .1c-12.7 0-24.9 5.1-33.9 14.1L14.6 147.6c-9 9-14.1 21.2-14.1 33.9l0 148.8c0 12.7 5.1 24.9 14.1 33.9L148.1 497.9c9 9 21.2 14.1 33.9 14.1l148.8 0c12.7 0 24.9-5.1 33.9-14.1L498.3 364.4c9-9 14.1-21.2 14.1-33.9l0-148.8c0-12.7-5.1-24.9-14.1-33.9L364.8 14.1c-9-9-21.2-14.1-33.9-14.1L182 .1zM256.4 152c-4.4 0-8 3.6-8 8l0 137.3c0 4.4 3.6 8 8 8s8-3.6 8-8l0-137.3c0-4.4-3.6-8-8-8zm13.3 200a13.3 13.3 0 1 0 -26.7 0 13.3 13.3 0 1 0 26.7 0z"/></svg>