<svg xmlns="http://www.w3.org/2000/svg" viewBox="0 0 448 512"><!--! Font Awesome Pro 7.0.0 by @fontawesome - https://fontawesome.com License - https://fontawesome.com/license (Commercial License) Copyright 2025 Fonticons, Inc. --><path fill="currentColor" d="M224-32c-35.3 0-64 28.7-64 64l0 41.3C67.5 100.8 0 186.5 0 288 0 411.7 100.3 512 224 512S448 411.7 448 288c0-101.5-67.5-187.2-160-214.7L288 32c0-35.3-28.7-64-64-64zM272 69.2c-15.5-3.4-31.5-5.2-48-5.2s-32.5 1.8-48 5.2L176 32c0-26.5 21.5-48 48-48s48 21.5 48 48l0 37.2zM416.1 368C384.7 443.2 310.5 496 224 496S63.3 443.2 31.9 368l384.1 0zm5.9-16L26 352c-6.5-20.2-10-41.7-10-64s3.5-43.8 10-64L422 224c6.5 20.2 10 41.7 10 64s-3.5 43.8-10 64zM224 80c86.5 0 160.7 52.8 192.1 128L31.9 208C63.3 132.8 137.5 80 224 80z"/></svg>