<svg xmlns="http://www.w3.org/2000/svg" viewBox="0 0 384 512"><!--! Font Awesome Pro 7.0.0 by @fontawesome - https://fontawesome.com License - https://fontawesome.com/license (Commercial License) Copyright 2025 Fonticons, Inc. --><path fill="currentColor" d="M197.5 16c12.7 0 24.9 5.1 33.9 14.1L353.9 152.6c9 9 14.1 21.2 14.1 33.9L368 448c0 26.5-21.5 48-48 48L64 496c-26.5 0-48-21.5-48-48L16 64c0-26.5 21.5-48 48-48l133.5 0zM64 0C28.7 0 0 28.7 0 64L0 448c0 35.3 28.7 64 64 64l256 0c35.3 0 64-28.7 64-64l0-261.5c0-17-6.7-33.3-18.7-45.3L242.7 18.7C230.7 6.7 214.5 0 197.5 0L64 0z"/></svg>