<svg xmlns="http://www.w3.org/2000/svg" viewBox="0 0 576 512"><!--! Font Awesome Pro 7.0.0 by @fontawesome - https://fontawesome.com License - https://fontawesome.com/license (Commercial License) Copyright 2025 Fonticons, Inc. --><path fill="currentColor" d="M517.1 0c-15.6 0-30.6 6.2-41.7 17.3L201.7 291c-8.3-1.9-16.9-3-25.7-3-61.9 0-112 50.1-112 112 0 3.9 .2 7.8 .6 11.6 1.8 17.5-10.2 36.4-27.8 36.4L32 448c-17.7 0-32 14.3-32 32s14.3 32 32 32l144 0c61.9 0 112-50.1 112-112 0-8.9-1-17.5-3-25.7L558.7 100.6c11-11 17.3-26 17.3-41.7 0-32.5-26.4-58.9-58.9-58.9zM279.5 357.2c-11.4-27.4-33.3-49.3-60.7-60.7L486.7 28.6c8-8 19-12.6 30.3-12.6 23.7 0 42.9 19.2 42.9 42.9 0 11.4-4.5 22.3-12.6 30.3L279.5 357.2zM272 400c0 53-43 96-96 96L32 496c-8.8 0-16-7.2-16-16s7.2-16 16-16l4.8 0c15 0 26.9-8.1 34.2-18.3 7.2-10 10.8-23 9.5-35.8-.3-3.3-.5-6.6-.5-10 0-53 43-96 96-96s96 43 96 96z"/></svg>