<svg xmlns="http://www.w3.org/2000/svg" viewBox="0 0 576 512"><!--! Font Awesome Pro 7.0.0 by @fontawesome - https://fontawesome.com License - https://fontawesome.com/license (Commercial License) Copyright 2025 Fonticons, Inc. --><path fill="currentColor" d="M259.4 296.2L556.2-.5c-.1 1-.3 2.1-.6 3.1l-178 496.9c-2.7 7.5-9.8 12.5-17.8 12.5-7.7 0-14.6-4.6-17.5-11.8l-82.9-204zM544.9-11.8L248.1 284.9 44.1 202c-7.1-2.9-11.8-9.8-11.8-17.5 0-8 5-15.1 12.5-17.8l496.9-178c1-.4 2.1-.6 3.1-.6zM38.1 216.8l205.8 83.6 83.6 205.8c5.3 13.1 18.1 21.7 32.3 21.7 14.7 0 27.8-9.2 32.8-23.1L570.6 8c3.5-9.8 1-20.6-6.3-28s-18.2-9.8-28-6.3L39.4 151.7c-13.9 5-23.1 18.1-23.1 32.8 0 14.2 8.6 27 21.7 32.3z"/></svg>