<svg xmlns="http://www.w3.org/2000/svg" viewBox="0 0 384 512"><!--! Font Awesome Pro 7.0.0 by @fontawesome - https://fontawesome.com License - https://fontawesome.com/license (Commercial License) Copyright 2025 Fonticons, Inc. --><path fill="currentColor" d="M24 112C24 50.1 74.1 0 136 0L376 0c4.4 0 8 3.6 8 8s-3.6 8-8 8l-56 0 0 328c0 4.4-3.6 8-8 8s-8-3.6-8-8l0-328-80 0 0 328c0 4.4-3.6 8-8 8s-8-3.6-8-8l0-120-72 0C74.1 224 24 173.9 24 112zm184 96l0-192-72 0c-53 0-96 43-96 96s43 96 96 96l72 0zM101.7 354.3c3.1 3.1 3.1 8.2 0 11.3L27.3 440 376 440c4.4 0 8 3.6 8 8s-3.6 8-8 8l-348.7 0 74.3 74.3c3.1 3.1 3.1 8.2 0 11.3s-8.2 3.1-11.3 0l-88-88c-3.1-3.1-3.1-8.2 0-11.3l88-88c3.1-3.1 8.2-3.1 11.3 0z"/></svg>