<svg xmlns="http://www.w3.org/2000/svg" viewBox="0 0 512 512"><!--! Font Awesome Pro 7.0.0 by @fontawesome - https://fontawesome.com License - https://fontawesome.com/license (Commercial License) Copyright 2025 Fonticons, Inc. --><path fill="currentColor" d="M355.1 161.7c-3.5 2.7-4.1 7.7-1.4 11.2l4.8 6.2c34 43.7 84.6 71.4 139.8 76.4l5 .5c4.4 .4 8.3-2.8 8.7-7.2s-2.8-8.3-7.2-8.7l-5-.5c-50.7-4.6-97.3-30.1-128.6-70.3l-4.8-6.2c-2.7-3.5-7.7-4.1-11.2-1.4zM480 48a16 16 0 1 1 0 32 16 16 0 1 1 0-32zm0 48a32 32 0 1 0 0-64 32 32 0 1 0 0 64zM368 480a16 16 0 1 1 -32 0 16 16 0 1 1 32 0zm-48 0a32 32 0 1 0 64 0 32 32 0 1 0 -64 0zM80 480a16 16 0 1 1 -32 0 16 16 0 1 1 32 0zm-48 0a32 32 0 1 0 64 0 32 32 0 1 0 -64 0zM172.9 353.7c-3.5-2.7-8.5-2.1-11.2 1.4s-2.1 8.5 1.4 11.2l28.1 21.9c26.2 20.4 42.8 50.8 45.8 83.9l3 32.7c.4 4.4 4.3 7.6 8.7 7.2s7.6-4.3 7.2-8.7l-3-32.7c-3.4-37.5-22.2-71.9-51.9-95l-28.1-21.9zM509.3 510c3.3-2.9 3.6-8 .7-11.3l-14.8-16.8c-8.4-9.5-12.9-21.9-12.5-34.6 .9-33.2-23-62-55.9-67.2l-43.9-6.9c-30.1-4.7-52.9-29.6-55.1-59.9-1.3-17.2-7.9-33.5-19.1-46.7l-6.6-7.7c-2.9-3.4-7.9-3.8-11.3-.9s-3.8 7.9-.9 11.3l6.6 7.7c8.9 10.6 14.3 23.7 15.3 37.5 2.8 37.8 31.2 68.6 68.6 74.6l43.9 6.9c24.9 3.9 43 25.7 42.4 51-.5 16.7 5.5 33 16.5 45.6L498 509.3c2.9 3.3 8 3.6 11.3 .7zM16 224c0-114.9 93.1-208 208-208 36.2 0 70.2 9.2 99.9 25.5 5.3 2.9 9.4 7.2 12.2 12.2 7 12.5 4.8 28-5.3 38.1l-239 239c-10.1 10.1-25.7 12.3-38.1 5.3-5-2.8-9.3-6.9-12.2-12.2-16.3-29.7-25.5-63.7-25.5-99.9zM45.9 350.1c18.7 10.5 42.1 7.2 57.2-7.9l239-239c15.2-15.2 18.4-38.5 7.9-57.2-4.1-7.4-10.4-14-18.5-18.4-32-17.5-68.7-27.5-107.6-27.5-123.7 0-224 100.3-224 224 0 38.9 10 75.6 27.5 107.6 4.4 8.1 11 14.3 18.4 18.5z"/></svg>