<svg xmlns="http://www.w3.org/2000/svg" viewBox="0 0 576 512"><!--! Font Awesome Pro 7.0.0 by @fontawesome - https://fontawesome.com License - https://fontawesome.com/license (Commercial License) Copyright 2025 Fonticons, Inc. --><path fill="currentColor" d="M291.6 24.8c-2.3-1.1-4.9-1.1-7.2 0l-256 128c-4 2-5.6 6.8-3.6 10.7s6.8 5.6 10.7 3.6L288 40.9 540.4 167.2c4 2 8.8 .4 10.7-3.6s.4-8.8-3.6-10.7l-256-128zM240 224a48 48 0 1 1 96 0 48 48 0 1 1 -96 0zm112 0a64 64 0 1 0 -128 0 64 64 0 1 0 128 0zM288 328c-66.3 0-120 53.7-120 120l0 16c0 4.4 3.6 8 8 8s8-3.6 8-8l0-16c0-57.4 46.6-104 104-104s104 46.6 104 104l0 16c0 4.4 3.6 8 8 8s8-3.6 8-8l0-16c0-66.3-53.7-120-120-120zM128 208a40 40 0 1 1 0 80 40 40 0 1 1 0-80zm0 96a56 56 0 1 0 0-112 56 56 0 1 0 0 112zm320-96a40 40 0 1 1 0 80 40 40 0 1 1 0-80zm0 96a56 56 0 1 0 0-112 56 56 0 1 0 0 112zM128 360c-48.6 0-88 39.4-88 88l0 16c0 4.4 3.6 8 8 8s8-3.6 8-8l0-16c0-39.5 31.9-71.6 71.4-72 2.4-5.4 5.1-10.6 8-15.7-2.4-.2-4.9-.3-7.4-.3zm320.6 16c39.5 .3 71.4 32.4 71.4 72l0 16c0 4.4 3.6 8 8 8s8-3.6 8-8l0-16c0-48.6-39.4-88-88-88-2.5 0-4.9 .1-7.4 .3 2.9 5.1 5.6 10.3 8 15.7z"/></svg>