<svg xmlns="http://www.w3.org/2000/svg" viewBox="0 0 512 512"><!--! Font Awesome Pro 7.0.0 by @fontawesome - https://fontawesome.com License - https://fontawesome.com/license (Commercial License) Copyright 2025 Fonticons, Inc. --><path fill="currentColor" d="M128 112a48 48 0 1 0 0-96 48 48 0 1 0 0 96zM128 0a64 64 0 1 1 0 128 64 64 0 1 1 0-128zm0 176c-29.8 0-56.1 19.4-64.8 47.9l-38 123.4C22.1 357.6 29.8 368 40.5 368L72 368c4.4 0 8 3.6 8 8l0 88c0 17.7 14.3 32 32 32l32 0c17.7 0 32-14.3 32-32l0-88c0-4.4 3.6-8 8-8l31.5 0c10.8 0 18.5-10.4 15.3-20.7l-38-123.4c-8.8-28.5-35-47.9-64.8-47.9zM47.9 219.2C58.7 184 91.2 160 128 160s69.3 24 80.1 59.2l38 123.4c6.3 20.6-9.1 41.4-30.6 41.4l-23.5 0 0 80c0 26.5-21.5 48-48 48l-32 0c-26.5 0-48-21.5-48-48l0-80-23.5 0C19 384 3.6 363.2 9.9 342.6l38-123.4zM384 112a48 48 0 1 0 0-96 48 48 0 1 0 0 96zM384 0a64 64 0 1 1 0 128 64 64 0 1 1 0-128zm0 176c-29.8 0-56.1 19.4-64.8 47.9l-38 123.4c-3.2 10.3 4.5 20.7 15.3 20.7l31.5 0c4.4 0 8 3.6 8 8l0 88c0 17.7 14.3 32 32 32l32 0c17.7 0 32-14.3 32-32l0-88c0-4.4 3.6-8 8-8l31.5 0c10.8 0 18.5-10.4 15.3-20.7l-38-123.4c-8.8-28.5-35-47.9-64.8-47.9zm-80.1 43.2C314.7 184 347.2 160 384 160s69.3 24 80.1 59.2l38 123.4c6.3 20.6-9.1 41.4-30.6 41.4l-23.5 0 0 80c0 26.5-21.5 48-48 48l-32 0c-26.5 0-48-21.5-48-48l0-80-23.5 0c-21.5 0-36.9-20.8-30.6-41.4l38-123.4z"/></svg>