<svg xmlns="http://www.w3.org/2000/svg" viewBox="0 0 384 512"><!--! Font Awesome Pro 7.0.0 by @fontawesome - https://fontawesome.com License - https://fontawesome.com/license (Commercial License) Copyright 2025 Fonticons, Inc. --><path fill="currentColor" d="M232 24a40 40 0 1 0 -80 0 40 40 0 1 0 80 0zm-96 0a56 56 0 1 1 112 0 56 56 0 1 1 -112 0zM79.5 400c-16.9 0-28.5-17-22.3-32.7l63.5-162.2c1.6-4.1 6.3-6.1 10.4-4.5s6.1 6.3 4.5 10.4L72 373.1c-2.1 5.2 1.8 10.9 7.4 10.9l96.6 0 0 128c0 17.7-14.3 32-32 32s-32-14.3-32-32l0-112-32.6 0zM91.2 173c17.1-32.7 48.9-54.8 84.8-59.9l0 16.2c-29.9 5-56.2 23.7-70.6 51.1L47.1 291.7c-2 3.9-6.9 5.4-10.8 3.4s-5.4-6.9-3.4-10.8L91.2 173zM128 512c0 8.8 7.2 16 16 16s16-7.2 16-16l0-112-32 0 0 112zm80-144l0-.3 0-27.4c9.6 5.5 16 15.9 16 27.7l0 144c0 8.8 7.2 16 16 16s16-7.2 16-16l0-294.8c0-3.5 2.3-6.6 5.6-7.6s7 .2 9 3.1L322.8 289c5 7.3 14.9 9.2 22.2 4.2s9.2-14.9 4.2-22.2l-64.1-93.8c-18-26.3-46.1-43.6-77.1-48l0-16.1c36.4 4.5 69.4 24.5 90.3 55.1l64.1 93.8c10 14.6 6.2 34.5-8.4 44.5s-34.5 6.2-44.5-8.4l-37.6-55 0 268.9c0 17.7-14.3 32-32 32s-32-14.3-32-32l0-144z"/></svg>