<svg xmlns="http://www.w3.org/2000/svg" viewBox="0 0 448 512"><!--! Font Awesome Pro 7.0.0 by @fontawesome - https://fontawesome.com License - https://fontawesome.com/license (Commercial License) Copyright 2025 Fonticons, Inc. --><path fill="currentColor" d="M380.3 394.3C407 389 432 409.5 432 436.7l-.2 4.4c-2.2 21.8-20.6 38.8-43 38.8L59.3 480c-22.4 0-40.8-17-43-38.8l-.2-4.4c0-27.3 25-47.7 51.7-42.4L224 425.6 380.3 394.3zM61.5 409.6c-15.6-1.3-29.4 11-29.4 27.2 0 15 12.2 27.3 27.2 27.3l134.9 0c-1-2.4-1.8-5-2.1-7.7l-.1-2.7c0-6.4 2.3-12.3 6.2-16.9l-133.6-26.7-3.2-.4zm325.1 0l-3.2 .4-167.1 33.4c-4.9 1-8.3 5.2-8.3 10.2 0 5.7 4.6 10.4 10.4 10.4l170.4 0c15 0 27.3-12.2 27.3-27.3 0-16.1-13.8-28.4-29.4-27.2zM224 160c40.4 0 78.4 19.6 101.9 52.5l42.5 59.5 47.5 0c17.7 0 32 14.3 32 32s-14.3 32-32 32l-64 0c-9 0-17.6-3.8-23.6-10.4l-2.4-3-22-30.8 0 77-16 3.2 0-105.1c0-3.5 2.3-6.6 5.6-7.6 3.3-1 6.9 .2 8.9 3l36.5 51.1 2.6 2.8c2.9 2.5 6.6 3.9 10.4 3.9l64 0c8.8 0 16-7.2 16-16s-7.2-16-16-16l-51.7 0c-2.6 0-5-1.3-6.5-3.3L313 221.8c-20.5-28.7-53.7-45.8-88.9-45.8-33.1 0-64.3 15-84.9 40.5L135 222 90.2 284.7c-1.5 2.1-3.9 3.3-6.5 3.3L32 288c-8.8 0-16 7.2-16 16s7.2 16 16 16l64 0c5.2 0 10-2.5 13-6.7l36.5-51.1c2-2.8 5.6-4 8.9-3s5.6 4.2 5.6 7.6l0 105.1-16-3.2 0-77-22 30.8C116 331 106.3 336 96 336l-64 0c-17.7 0-32-14.3-32-32s14.3-32 32-32l47.5 0 42.5-59.5 .1-.2 4.3-5.7 .2-.2 4.6-5.3c23.6-26 57.2-41.1 92.8-41.1zm0-32a64 64 0 1 1 0-128 64 64 0 1 1 0 128zm0-112a48 48 0 1 0 0 96 48 48 0 1 0 0-96z"/></svg>