<svg xmlns="http://www.w3.org/2000/svg" viewBox="0 0 576 512"><!--! Font Awesome Pro 7.0.0 by @fontawesome - https://fontawesome.com License - https://fontawesome.com/license (Commercial License) Copyright 2025 Fonticons, Inc. --><path fill="currentColor" d="M192-16a40 40 0 1 1 0 80 40 40 0 1 1 0-80zm0 96a56 56 0 1 0 0-112 56 56 0 1 0 0 112zm0 48c37.2 0 72.1 18.4 93.1 49.1L349.2 271c5 7.3 3.1 17.3-4.2 22.2s-17.3 3.1-22.2-4.2l-52.2-76.4c-2-2.9-5.6-4.2-9-3.1s-5.6 4.1-5.6 7.6L256 512c0 8.8-7.2 16-16 16s-16-7.2-16-16l0-144c0-17.7-14.3-32-32-32s-32 14.3-32 32l0 144c0 8.8-7.2 16-16 16s-16-7.2-16-16l0-294.8c0-3.5-2.3-6.6-5.6-7.6s-7 .2-9 3.1L61.2 289c-5 7.3-14.9 9.2-22.2 4.2s-9.2-14.9-4.2-22.2l64.1-93.8c21-30.8 55.9-49.1 93.1-49.1zm75.7 400c2.7-4.7 4.3-10.2 4.3-16l0-268.9 37.6 55c10 14.6 29.9 18.3 44.5 8.4s18.3-29.9 8.4-44.5l-64.1-93.8C274.3 133 234.5 112 192 112s-82.3 21-106.3 56.1L21.6 261.9c-10 14.6-6.2 34.5 8.4 44.5s34.5 6.2 44.5-8.4l37.6-55 0 268.9c0 5.8 1.6 11.3 4.3 16L8 528c-4.4 0-8 3.6-8 8s3.6 8 8 8l560 0c4.4 0 8-3.6 8-8s-3.6-8-8-8l-300.3 0zm-55.4 0l-40.6 0c2.7-4.7 4.3-10.2 4.3-16l0-144c0-8.8 7.2-16 16-16s16 7.2 16 16l0 144c0 5.8 1.6 11.3 4.3 16zM549.7 98.3c-3.1-3.1-8.2-3.1-11.3 0L472 164.7 472-24c0-4.4-3.6-8-8-8s-8 3.6-8 8l0 188.7-66.3-66.3c-3.1-3.1-8.2-3.1-11.3 0s-3.1 8.2 0 11.3l80 80c3.1 3.1 8.2 3.1 11.3 0l80-80c3.1-3.1 3.1-8.2 0-11.3z"/></svg>