<svg xmlns="http://www.w3.org/2000/svg" viewBox="0 0 576 512"><!--! Font Awesome Pro 7.0.0 by @fontawesome - https://fontawesome.com License - https://fontawesome.com/license (Commercial License) Copyright 2025 Fonticons, Inc. --><path fill="currentColor" d="M256 12c-11 0-20 9-20 20l0 5.4c0 49.2-25.8 94.7-68 120.1l-4.6 2.8C109.2 192.8 76 251.4 76 314.6L76 384c0 11 9 20 20 20s20-9 20-20l0-69.4c0-22.3 5.3-43.9 15.1-63.2 1.2-2.4 3.6-4.1 6.3-4.3s5.4 .8 7.1 2.9L339.6 490.1c5.6 6.9 15.7 7.9 22.5 2.3s7.9-15.7 2.3-22.5L251.3 330.6c-2.7-3.4-2.3-8.3 1-11.1l15.9-13.6c1.4-1.2 3.3-1.9 5.2-1.9l98.7 0c2.5 0 4.9 1.2 6.4 3.2l40.8 54.4c5.3 7.1 15.3 8.5 22.4 3.2s8.5-15.3 3.2-22.4l-43.2-57.6c-6-8.1-15.5-12.8-25.6-12.8l-92.8 0c-2.4 0-4.6-1.1-6.1-2.9l-67.8-81.4c-1.4-1.6-2-3.8-1.8-5.9s1.2-4.1 2.9-5.4c41.2-33.9 65.7-84.8 65.7-139l0-5.4c0-11-9-20-20-20zM220 32c0-19.9 16.1-36 36-36s36 16.1 36 36l0 5.4c0 56.4-24.2 109.3-65.4 146.1l60.4 72.4 89 0c15.1 0 29.3 7.1 38.4 19.2l43.2 57.6c10.6 14.1 7.7 34.2-6.4 44.8s-34.2 7.7-44.8-6.4l-38.4-51.2-91.7 0-7.7 6.6 108.2 133.2c11.1 13.7 9.1 33.9-4.7 45s-33.9 9.1-45-4.7L140.2 270.1c-5.4 14-8.2 29-8.2 44.5l0 69.4c0 19.9-16.1 36-36 36s-36-16.1-36-36l0-69.4c0-68.8 36.1-132.6 95.2-168.1l4.6-2.8C197.1 121.3 220 81 220 37.4l0-5.4zM72 128a40 40 0 1 0 0-80 40 40 0 1 0 0 80zm0-96a56 56 0 1 1 0 112 56 56 0 1 1 0-112zM376 72.1c0 4.4-3.6 8-8 8s-8-3.6-8-8l0-48c0-4.4 3.6-8 8-8s8 3.6 8 8l0 48zm128 144c-4.4 0-8-3.6-8-8s3.6-8 8-8l48 0c4.4 0 8 3.6 8 8s-3.6 8-8 8l-48 0zm-45.5-98.5c-3.1-3.1-3.1-8.2 0-11.3l33.9-33.9c3.1-3.1 8.2-3.1 11.3 0s3.1 8.2 0 11.3l-33.9 33.9c-3.1 3.1-8.2 3.1-11.3 0z"/></svg>