<svg xmlns="http://www.w3.org/2000/svg" viewBox="0 0 512 512"><!--! Font Awesome Pro 7.0.0 by @fontawesome - https://fontawesome.com License - https://fontawesome.com/license (Commercial License) Copyright 2025 Fonticons, Inc. --><path fill="currentColor" d="M268 32c0-11 9-20 20-20s20 9 20 20l0 5.4c0 54.3-24.4 105.1-65.7 139-1.6 1.4-2.7 3.3-2.9 5.4s.5 4.2 1.8 5.9l67.8 81.4c1.5 1.8 3.8 2.9 6.1 2.9l92.8 0c10.1 0 19.6 4.7 25.6 12.8l43.2 57.6c5.3 7.1 3.9 17.1-3.2 22.4s-17.1 3.9-22.4-3.2l-40.8-54.4c-1.5-2-3.9-3.2-6.4-3.2l-98.7 0c-1.9 0-3.8 .7-5.2 1.9l-15.9 13.6c-3.3 2.8-3.7 7.8-1 11.1L396.4 469.9c5.6 6.9 4.5 16.9-2.3 22.5s-16.9 4.5-22.5-2.3L176.4 249.9c-1.7-2.1-4.4-3.2-7.1-2.9s-5.1 1.9-6.3 4.3c-9.8 19.3-15.1 40.9-15.1 63.2l0 69.4c0 11-9 20-20 20s-20-9-20-20l0-69.4c0-63.2 33.2-121.8 87.4-154.3l4.6-2.8c42.2-25.3 68-70.9 68-120.1l0-5.4zM288-4c-19.9 0-36 16.1-36 36l0 5.4c0 43.6-22.9 83.9-60.2 106.3l-4.6 2.8C128.1 181.9 92 245.7 92 314.6L92 384c0 19.9 16.1 36 36 36s36-16.1 36-36l0-69.4c0-15.4 2.9-30.5 8.2-44.5L359.2 500.2c11.1 13.7 31.3 15.8 45 4.7s15.8-31.3 4.7-45l-108.2-133.2 7.7-6.6 91.7 0 38.4 51.2c10.6 14.1 30.7 17 44.8 6.4s17-30.7 6.4-44.8l-43.2-57.6C437.3 263.1 423.1 256 408 256l-89 0-60.4-72.4C299.8 146.8 324 93.8 324 37.4l0-5.4c0-19.9-16.1-36-36-36zM64 88a40 40 0 1 1 80 0 40 40 0 1 1 -80 0zm96 0A56 56 0 1 0 48 88 56 56 0 1 0 160 88z"/></svg>