<svg xmlns="http://www.w3.org/2000/svg" viewBox="0 0 576 512"><!--! Font Awesome Pro 7.0.0 by @fontawesome - https://fontawesome.com License - https://fontawesome.com/license (Commercial License) Copyright 2025 Fonticons, Inc. --><path fill="currentColor" d="M56 24a40 40 0 1 1 80 0 40 40 0 1 1 -80 0zm96 0A56 56 0 1 0 40 24 56 56 0 1 0 152 24zM32 171.1l0 103.5c0 28 12.2 54.7 33.5 72.9l67.3 57.7c7.1 6.1 11.2 15 11.2 24.3l0 82.6c0 17.7 14.3 32 32 32s32-14.3 32-32l0-82.6c0-28-12.2-54.7-33.5-72.9l-30.5-26.1 0-86.6 2.8 3.9c18 25.2 47.1 40.2 78.1 40.2l31.1 0c17.7 0 32-14.3 32-32s-14.3-32-32-32l-31.1 0c-10.3 0-20-5-26-13.4l-48.7-68.2C136.6 123.3 114.5 112 91.1 112 58.5 112 32 138.5 32 171.1zM91.1 128c18.3 0 35.5 8.8 46.1 23.7l48.7 68.2c9 12.6 23.6 20.1 39.1 20.1l31.1 0c8.8 0 16 7.2 16 16s-7.2 16-16 16l-31.1 0c-25.8 0-50.1-12.5-65.1-33.5l-17.3-24.3c-2-2.8-5.6-4-9-3s-5.6 4.1-5.6 7.6l0 115.2c0 2.3 1 4.6 2.8 6.1l33.3 28.5c17.7 15.2 27.9 37.4 27.9 60.7l0 82.6c0 8.8-7.2 16-16 16s-16-7.2-16-16l0-82.6c0-14-6.1-27.3-16.8-36.4L75.9 335.3C58.2 320.1 48 297.9 48 274.6l0-103.5C48 147.3 67.3 128 91.1 128zM32 370.9L32 512c0 17.7 14.3 32 32 32s32-14.3 32-32l0-85.7-16-13.7 0 99.5c0 8.8-7.2 16-16 16s-16-7.2-16-16l0-126.9-8.5-7.3c-2.6-2.2-5.1-4.5-7.5-6.9zM285 16.3c1-.2 2-.3 3-.3l256 0c8.8 0 16 7.2 16 16l0 400-198.2 0 38.1-190.4c.4-1.8 .1-3.6-.7-5.3l-112-216-2.1-4zM560 448l0 88c0 4.4 3.6 8 8 8s8-3.6 8-8l0-504c0-17.7-14.3-32-32-32L288 0c-17.7 0-32 14.3-32 32l0 144 16 0 0-144c0-1.6 .2-3.2 .7-4.7l.2 .4 110.7 213.5-39.4 197.2c-.5 2.3 .1 4.8 1.7 6.6s3.8 2.9 6.2 2.9l208 0zM256 336l0 200c0 4.4 3.6 8 8 8s8-3.6 8-8l0-200-16 0z"/></svg>