<svg xmlns="http://www.w3.org/2000/svg" viewBox="0 0 512 512"><!--! Font Awesome Pro 7.0.0 by @fontawesome - https://fontawesome.com License - https://fontawesome.com/license (Commercial License) Copyright 2025 Fonticons, Inc. --><path fill="currentColor" d="M424 96a40 40 0 1 0 0-80 40 40 0 1 0 0 80zm0-96a56 56 0 1 1 0 112 56 56 0 1 1 0-112zM128 128c0-17.7 14.3-32 32-32l150.1 0c49.9 0 74.9 60.3 39.6 95.6l-63.9 63.9 69.8 31c17.3 7.7 28.5 24.9 28.5 43.9l0 85.6c0 17.7-14.3 32-32 32s-32-14.3-32-32l0-75.2-82.4-36.6c-41-18.2-51-72-19.3-103.7l40.4-40.4-98.7 0c-17.7 0-32-14.3-32-32zm32-16c-8.8 0-16 7.2-16 16s7.2 16 16 16l118.1 0c3.2 0 6.2 1.9 7.4 4.9s.6 6.4-1.7 8.7l-54.1 54.1c-23.8 23.8-16.3 64.1 14.4 77.8l87.2 38.7c2.9 1.3 4.8 4.1 4.8 7.3l0 80.4c0 8.8 7.2 16 16 16s16-7.2 16-16l0-85.6c0-12.6-7.4-24.1-19-29.2l-80.4-35.7c-2.4-1.1-4.1-3.3-4.6-5.8s.3-5.3 2.2-7.1l72.2-72.2c25.2-25.2 7.4-68.3-28.3-68.3L160 112zM89.4 361.4l75.9-75.9c2.1 5.2 4.5 10.3 7.4 15.2l-72 72c-6.2 6.2-6.2 16.4 0 22.6s16.4 6.2 22.6 0l70-70c4 3.5 8.3 6.7 13 9.7l-71.6 71.6c-12.5 12.5-32.8 12.5-45.3 0s-12.5-32.8 0-45.3zm344.6 86.9c4.3 1.1 6.9 5.4 5.8 9.7l-.4 1.7C434 481 414.8 496 392.8 496L304 496c-4.4 0-8-3.6-8-8s3.6-8 8-8l88.8 0c14.7 0 27.5-10 31-24.2l.4-1.7c1.1-4.3 5.4-6.9 9.7-5.8zM139.6 471.2l-6.2 3.1c-18.5 9.2-40.8 5.6-55.4-9L18.3 405.7c-3.1-3.1-3.1-8.2 0-11.3s8.2-3.1 11.3 0L89.3 454c9.7 9.7 24.6 12.2 36.9 6l6.2-3.1c4-2 8.8-.4 10.7 3.6s.4 8.8-3.6 10.7z"/></svg>