<svg xmlns="http://www.w3.org/2000/svg" viewBox="0 0 512 512"><!--! Font Awesome Pro 7.0.0 by @fontawesome - https://fontawesome.com License - https://fontawesome.com/license (Commercial License) Copyright 2025 Fonticons, Inc. --><path fill="currentColor" d="M64.5-16a40 40 0 1 1 0 80 40 40 0 1 1 0-80zm0 96a56 56 0 1 0 0-112 56 56 0 1 0 0 112zm-4.9 32C27 112 .5 138.5 .5 171.1l0 103.5c0 28 12.2 54.7 33.5 72.9l67.3 57.7c7.1 6.1 11.2 15 11.2 24.3l0 82.6c0 17.7 14.3 32 32 32s32-14.3 32-32l0-82.6c0-28-12.2-54.7-33.5-72.9l-30.5-26.1 0-86.6 2.8 3.9c18 25.2 47.1 40.2 78.1 40.2l31.1 0c5.8 0 11.3-1.6 16-4.3l0 183.6c-14.1 6.2-24 20.3-24 36.7 0 22.1 17.9 40 40 40 19.4 0 35.5-13.7 39.2-32l184.8 0c4.4 0 8-3.6 8-8s-3.6-8-8-8l-184.8 0c-3.7-18.3-19.8-32-39.2-32l0-304c0-4.4-3.6-8-8-8s-8 3.6-8 8l0 68.3c-4.7-2.7-10.2-4.3-16-4.3l-31.1 0c-10.3 0-20-5-26-13.4l-48.7-68.2C105.1 123.3 83 112 59.6 112zM240.5 256.3c-.1 8.7-7.2 15.7-16 15.7l-31.1 0c-25.8 0-50.1-12.5-65.1-33.5L111 214.2c-2-2.8-5.6-4-9-3s-5.6 4.1-5.6 7.6l0 115.2c0 2.3 1 4.6 2.8 6.1l33.3 28.5c17.7 15.2 27.9 37.4 27.9 60.7l0 82.6c0 8.8-7.2 16-16 16s-16-7.2-16-16l0-82.6c0-14-6.1-27.3-16.8-36.4L44.4 335.3c-17.7-15.2-27.9-37.4-27.9-60.7l0-103.5c0-23.8 19.3-43.1 43.1-43.1 18.3 0 35.5 8.8 46.1 23.7l48.7 68.2c9 12.6 23.6 20.1 39.1 20.1l31.1 0c8.8 0 15.9 7 16 15.7l0 .5zM.5 512c0 17.7 14.3 32 32 32s32-14.3 32-32l0-85.7-16-13.7 0 99.5c0 8.8-7.2 16-16 16s-16-7.2-16-16l0-126.9-8.5-7.3c-2.6-2.2-5.1-4.5-7.5-6.9L.5 512zm256-32a24 24 0 1 1 0 48 24 24 0 1 1 0-48zm96-208l80 0c17.7 0 32 14.3 32 32l0 80c0 17.7-14.3 32-32 32l-80 0c-17.7 0-32-14.3-32-32l0-80c0-17.7 14.3-32 32-32zm-48 32l0 80c0 26.5 21.5 48 48 48l80 0c26.5 0 48-21.5 48-48l0-80c0-26.5-21.5-48-48-48l-80 0c-26.5 0-48 21.5-48 48z"/></svg>