<svg xmlns="http://www.w3.org/2000/svg" viewBox="0 0 576 512"><!--! Font Awesome Pro 7.0.0 by @fontawesome - https://fontawesome.com License - https://fontawesome.com/license (Commercial License) Copyright 2025 Fonticons, Inc. --><path fill="currentColor" d="M328-32c-4.4 0-8 3.6-8 8s3.6 8 8 8c128.1 0 232 103.9 232 232 0 4.4 3.6 8 8 8s8-3.6 8-8C576 79 465-32 328-32zm8 224a16 16 0 1 1 32 0 16 16 0 1 1 -32 0zm48 0a32 32 0 1 0 -64 0 32 32 0 1 0 64 0zM320 72c0 4.4 3.6 8 8 8 75.1 0 136 60.9 136 136 0 4.4 3.6 8 8 8s8-3.6 8-8c0-83.9-68.1-152-152-152-4.4 0-8 3.6-8 8zM149.1 16.9c12.8-3.5 26.3 3.1 31.4 15.3l40.2 96.4c4.5 10.8 1.4 23.2-7.7 30.6l-51.5 42.1c-2.8 2.3-3.7 6.1-2.3 9.3 33.4 77.9 94.6 141.1 171.1 177.1 3.3 1.6 7.3 .7 9.6-2.2L384.7 331c7.4-9 19.9-12.2 30.6-7.7l96.4 40.2c12.3 5.1 18.8 18.5 15.3 31.4l-1.9 6.9c-15.9 58.1-71.3 105.5-137 91.8-169.3-35.2-302.6-168.5-337.8-337.8-13.7-65.7 33.7-121.1 91.8-137l6.9-1.9zm46.1 9.2C187 6.4 165.5-4.1 144.9 1.5L138 3.4C74 20.8 18.9 82.9 34.7 159.1 71.2 334.6 209.4 472.8 384.9 509.3 461.1 525.1 523.2 470 540.6 406l1.9-6.9c5.6-20.6-4.9-42.1-24.6-50.3l-96.4-40.2c-17.3-7.2-37.3-2.2-49.2 12.3l-40.8 49.9C262.9 336.9 207.8 279.9 176.3 210l46.8-38.3c14.5-11.9 19.5-31.9 12.3-49.2L195.2 26.1z"/></svg>