<svg xmlns="http://www.w3.org/2000/svg" viewBox="0 0 512 512"><!--! Font Awesome Pro 7.0.0 by @fontawesome - https://fontawesome.com License - https://fontawesome.com/license (Commercial License) Copyright 2025 Fonticons, Inc. --><path fill="currentColor" d="M16 176l0-28.1c0-8.6 3.4-15.9 8.9-20.4 31.2-25 113-79.5 231.1-79.5s199.8 54.5 231.1 79.5c5.6 4.5 8.9 11.7 8.9 20.4l0 28.1c0 17.7-14.3 32-32 32l-22.3 0 10.7 16 11.6 0c26.5 0 48-21.5 48-48l0-28.1c0-12.7-5-24.9-15-32.9-32.8-26.2-118-83-241-83S47.7 88.8 15 115C5 123 0 135.2 0 147.9L0 176c0 26.5 21.5 48 48 48l11.6 0 10.7-16-22.3 0c-17.7 0-32-14.3-32-32zM48 373.8c0-11.1 3.3-21.9 9.4-31.1l96.9-145.4c8.9-13.4 23.9-21.4 39.9-21.4l123.5 0c16.1 0 31 8 39.9 21.4l96.9 145.4c6.1 9.2 9.4 20 9.4 31.1l0 42.2c0 26.5-21.5 48-48 48L96 464c-26.5 0-48-21.5-48-48l0-42.2zm-16 0L32 416c0 35.3 28.7 64 64 64l320 0c35.3 0 64-28.7 64-64l0-42.2c0-14.2-4.2-28.1-12.1-39.9L371 188.5c-11.5-17.2-30.5-27.7-51-28.5l0-40c0-4.4-3.6-8-8-8s-8 3.6-8 8l0 40-96 0 0-40c0-4.4-3.6-8-8-8s-8 3.6-8 8l0 40c-20.5 .7-39.5 11.3-51 28.5L44.1 333.9C36.2 345.7 32 359.6 32 373.8zM256 256a64 64 0 1 1 0 128 64 64 0 1 1 0-128zm0 144a80 80 0 1 0 0-160 80 80 0 1 0 0 160z"/></svg>