<svg xmlns="http://www.w3.org/2000/svg" viewBox="0 0 640 512"><!--! Font Awesome Pro 7.0.0 by @fontawesome - https://fontawesome.com License - https://fontawesome.com/license (Commercial License) Copyright 2025 Fonticons, Inc. --><path fill="currentColor" d="M168.1 0L269.9 0c4.4 0 8 3.6 8 8s-3.6 8-8 8l-82.5 0 132.7 132.7 90.3-90.3c3.1-3.1 8.2-3.1 11.3 0s3.1 8.2 0 11.3l-96 96c-3.1 3.1-8.2 3.1-11.3 0l-138.3-138.3 0 82.5c0 4.4-3.6 8-8 8s-8-3.6-8-8L160.1 8c0-4.4 3.6-8 8-8zM601.3 494.8c-10.6 18.5-33.3 26.3-53 18.2l-96.6-39.8c-17.3-7.1-27.9-24.8-26.1-43.5l6-60.2c-71.7-27.1-151-28.5-223.4-3.9l6.4 64.1c1.9 18.7-8.7 36.3-26.1 43.5L92 513c-19.7 8.1-42.4 .3-53-18.2l-3.5-6.2c-32.9-57.6-28-140.5 37.1-183.1 149.9-98.3 345.3-98.3 495.2 0 65.1 42.7 70 125.5 37.1 183.1l-3.5 6.2zm-46.9 3.4c12.3 5.1 26.4 .2 33-11.3l3.5-6.2c29.9-52.3 24.2-125-31.9-161.8-144.6-94.8-333.1-94.8-477.7 0-56.2 36.8-61.9 109.5-32 161.8l3.5 6.2c6.6 11.5 20.7 16.4 33 11.3l96.6-39.8c10.8-4.4 17.4-15.5 16.2-27.1l-7-70.4c-.4-3.6 1.8-7.1 5.3-8.3 79.5-28.6 167.5-27.2 246.2 4.3 3.3 1.3 5.3 4.7 5 8.2l-6.6 66.2c-1.2 11.6 5.4 22.6 16.2 27.1l96.6 39.8z"/></svg>