<svg xmlns="http://www.w3.org/2000/svg" viewBox="0 0 512 512"><!--! Font Awesome Pro 7.0.0 by @fontawesome - https://fontawesome.com License - https://fontawesome.com/license (Commercial License) Copyright 2025 Fonticons, Inc. --><path fill="currentColor" d="M112 352l0 48c0 17.7-14.3 32-32 32s-32-14.3-32-32l0-48-32 0 0 96c0 26.5 21.5 48 48 48l384 0c26.5 0 48-21.5 48-48l0-96-32 0 0 48c0 17.7-14.3 32-32 32s-32-14.3-32-32l0-48-16 0 0 48c0 17.7-14.3 32-32 32s-32-14.3-32-32l0-48-48 0 0 48c0 17.7-14.3 32-32 32s-32-14.3-32-32l0-48-16 0 0 48c0 17.7-14.3 32-32 32s-32-14.3-32-32l0-48-16 0zm336 0l-32 0 0 48c0 8.8 7.2 16 16 16s16-7.2 16-16l0-48zm16-16l32 0 0-8.4c0-18.2-10.3-34.8-26.5-42.9l-58.4-29.2C384.7 242.2 368 215.2 368 185.7 368 92 292 16 198.3 16L192 16C94.8 16 16 94.8 16 192l0 144 448 0zM336 400c0 8.8 7.2 16 16 16s16-7.2 16-16l0-48-32 0 0 48zm-80-48l-32 0 0 48c0 8.8 7.2 16 16 16s16-7.2 16-16l0-48zM144 400c0 8.8 7.2 16 16 16s16-7.2 16-16l0-48-32 0 0 48zM96 352l-32 0 0 48c0 8.8 7.2 16 16 16s16-7.2 16-16l0-48zm416-24.4L512 448c0 35.3-28.7 64-64 64L64 512c-35.3 0-64-28.7-64-64L0 192C0 86 86 0 192 0l6.3 0c102.6 0 185.7 83.2 185.7 185.7 0 23.5 13.2 44.9 34.2 55.4l58.4 29.2c21.7 10.8 35.4 33 35.4 57.2z"/></svg>