<svg xmlns="http://www.w3.org/2000/svg" viewBox="0 0 576 512"><!--! Font Awesome Pro 7.0.0 by @fontawesome - https://fontawesome.com License - https://fontawesome.com/license (Commercial License) Copyright 2025 Fonticons, Inc. --><path fill="currentColor" d="M560 224C560 275 544.1 322.2 517.1 361 464.7 203.7 340.3 79.3 183 26.9 221.8-.1 269-16 320-16 452.5-16 560 91.5 560 224zM502.1 366.7c4 12.1 19.5 15.6 26.9 5.2 29.6-41.8 47-92.8 47-147.9 0-67.8-26.4-129.5-69.4-175.3l27.1-27.1c3.1-3.1 3.1-8.2 0-11.3s-8.2-3.1-11.3 0L495.3 37.4c-45.8-43-107.5-69.4-175.3-69.4-55.1 0-106.2 17.4-147.9 47-10.4 7.3-6.8 22.9 5.2 26.9 73.9 24.5 140.4 65.4 195 118.4l-330 330c-3.1 3.1-3.1 8.2 0 11.3s8.2 3.1 11.3 0l330-330c53 54.7 93.9 121.1 118.4 195z"/></svg>