<svg xmlns="http://www.w3.org/2000/svg" viewBox="0 0 576 512"><!--! Font Awesome Pro 7.0.0 by @fontawesome - https://fontawesome.com License - https://fontawesome.com/license (Commercial License) Copyright 2025 Fonticons, Inc. --><path fill="currentColor" d="M80 384c0 8.8-7.2 16-16 16s-16-7.2-16-16l0-256c0-8.8 7.2-16 16-16s16 7.2 16 16l0 256zM64 96c-17.7 0-32 14.3-32 32l0 256c0 17.7 14.3 32 32 32s32-14.3 32-32l144.7 0c.4-5.4 1.1-10.7 2-16l-146.7 0 0-224 384 0 0 70c5.4 1.4 10.8 3 16 4.9l0-90.9c0-8.8 7.2-16 16-16s16 7.2 16 16l0 105.7c5.5 3.2 10.9 6.6 16 10.3l0-116c0-17.7-14.3-32-32-32s-32 14.3-32 32L96 128c0-17.7-14.3-32-32-32zM432 272a128 128 0 1 1 0 256 128 128 0 1 1 0-256zm0 272a144 144 0 1 0 0-288 144 144 0 1 0 0 288zm60.7-212.5c-3.6-2.6-8.6-1.8-11.2 1.8l-74 101.7-33.4-40.1c-2.8-3.4-7.9-3.9-11.3-1s-3.9 7.9-1 11.3l40 48c1.6 1.9 3.9 3 6.4 2.9s4.8-1.3 6.2-3.3l80-110c2.6-3.6 1.8-8.6-1.8-11.2z"/></svg>