<svg xmlns="http://www.w3.org/2000/svg" viewBox="0 0 512 512"><!--! Font Awesome Pro 7.0.0 by @fontawesome - https://fontawesome.com License - https://fontawesome.com/license (Commercial License) Copyright 2025 Fonticons, Inc. --><path fill="currentColor" d="M168.6 16.8c-14.4-1-27.2 8.9-30.9 22.9L124.7 88.3c162.2 6.5 292.5 136.8 299 299l48.5-12.9c14.1-3.7 23.9-16.5 22.9-30.9-12.1-174.8-151.8-314.5-326.6-326.6zM16 496L407.9 391.5c-4.4-156.7-130.7-283-287.4-287.4L16 496zM122.2 35.6c5.5-20.8 24.7-36.3 47.5-34.7 182.8 12.6 328.8 158.6 341.4 341.4 1.6 22.8-14 41.9-34.7 47.5L20.1 511.5c-5.5 1.5-11.4-.1-15.4-4.1s-5.6-9.9-4.1-15.4L122.2 35.6zM176 200a40 40 0 1 1 0 80 40 40 0 1 1 0-80zm24 40a24 24 0 1 0 -48 0 24 24 0 1 0 48 0zm32 96a40 40 0 1 1 80 0 40 40 0 1 1 -80 0zm40 24a24 24 0 1 0 0-48 24 24 0 1 0 0 48zM144 328a40 40 0 1 1 0 80 40 40 0 1 1 0-80zm24 40a24 24 0 1 0 -48 0 24 24 0 1 0 48 0z"/></svg>