<svg xmlns="http://www.w3.org/2000/svg" viewBox="0 0 512 512"><!--! Font Awesome Pro 7.0.0 by @fontawesome - https://fontawesome.com License - https://fontawesome.com/license (Commercial License) Copyright 2025 Fonticons, Inc. --><path fill="currentColor" d="M254.4-26.1c3.5-4.3 9-6.5 14.5-5.7 46.9 6.3 83.1 46.6 83.1 95.2 0 5.7-.5 11.2-1.4 16.6l9.4 0c48.6 0 88 39.4 88 88 0 14.8-3.7 28.8-10.2 41.1 42 6.6 74.2 43 74.2 86.9 0 48.6-39.4 88-88 88l-24.9 0c-.7-5.5-2-10.8-3.9-16l28.8 0c39.8 0 72-32.2 72-72 0-35.9-26.3-65.7-60.7-71.1l-11.1-1.7c-2.6-.4-4.8-2-5.9-4.3s-1.1-5 .1-7.3l5.2-9.9c5.3-10 8.3-21.4 8.3-33.6 0-39.8-32.2-72-72-72l-18.9 0c-2.4 0-4.6-1-6.1-2.9s-2.2-4.2-1.8-6.5l1.6-9.4c.8-4.5 1.2-9.1 1.2-13.8 0-40.6-30.1-74.1-69.2-79.4 3.4 9.8 5.2 20.4 5.2 31.3 0 53.1-43 80.7-96 80.7l-24 0c-39.8 0-72 32.2-72 72 0 12.2 3 23.6 8.3 33.6l5.2 9.9c1.2 2.3 1.2 5 .1 7.3s-3.4 3.9-5.9 4.3l-11.1 1.7c-34.4 5.4-60.7 35.2-60.7 71.1 0 39.8 32.2 72 72 72l3.3 0c-3.2 5.1-5.7 10.4-7.5 15.9-46.6-2.2-83.8-40.7-83.8-87.9 0-43.9 32.1-80.3 74.2-86.9-6.5-12.3-10.2-26.2-10.2-41.1 0-48.6 39.4-88 88-88l24 0c24 0 44.2-6.2 58.1-17 13.4-10.4 21.9-25.9 21.9-47.6 0-9.2-1.5-18-4.3-26.1-1.8-5.2-.8-11.1 2.8-15.3zm23 282.1c14.6 0 24.8 14.4 20 28.2l-29.3 83.8 59 0c13.8 0 25 11.2 25 25 0 6.6-2.6 13-7.3 17.7L217.5 537.8c-4 4-9.4 6.2-15 6.2-14.6 0-24.8-14.4-20-28.2l29.3-83.8-59 0c-13.8 0-25-11.2-25-25 0-6.6 2.6-13 7.3-17.7L262.5 262.2c4-4 9.4-6.2 15-6.2zM146.6 400.7c-5.5 5.5-1.6 15.3 6.3 15.3l70.2 0c5.2 0 9.3 5.7 7.6 10.6l-33.1 94.5c-1.8 5.1 4.8 9 8.5 5.4L333.4 399.3c5.5-5.5 1.6-15.3-6.3-15.3l-70.2 0c-2.6 0-5-1.3-6.5-3.4s-1.9-4.8-1-7.3l33.1-94.5c1.8-5.1-4.8-9-8.5-5.4L146.6 400.7z"/></svg>