<svg xmlns="http://www.w3.org/2000/svg" viewBox="0 0 576 512"><!--! Font Awesome Pro 7.0.0 by @fontawesome - https://fontawesome.com License - https://fontawesome.com/license (Commercial License) Copyright 2025 Fonticons, Inc. --><path fill="currentColor" d="M360-16c0-4.4-3.6-8-8-8s-8 3.6-8 8l0 80c0 4.4 3.6 8 8 8s8-3.6 8-8l0-80zM213.7 26.3c-3.1-3.1-8.2-3.1-11.3 0s-3.1 8.2 0 11.3l48 48c3.1 3.1 8.2 3.1 11.3 0s3.1-8.2 0-11.3l-48-48zm288 11.3c3.1-3.1 3.1-8.2 0-11.3s-8.2-3.1-11.3 0l-48 48c-3.1 3.1-3.1 8.2 0 11.3s8.2 3.1 11.3 0l48-48zM352 400c-70.7 0-128-57.3-128-128 0-23.3 6.2-45.2 17.1-64l.6-1c3.1-5.2 6.6-10.2 10.3-15 23.5-29.3 59.5-48 99.9-48s76.5 18.7 99.9 48l.8 1c3.7 4.7 7.1 9.8 10.2 15 10.9 18.8 17.1 40.7 17.1 64 0 70.7-57.3 128-128 128zM496 272c0-23-5.4-44.7-15-64l31 0c26.5 0 48 21.5 48 48l0 160c0 26.5-21.5 48-48 48L64 464c-26.5 0-48-21.5-48-48l0-160c0-26.5 21.5-48 48-48l159 0c-9.6 19.3-15 41-15 64 0 79.5 64.5 144 144 144s144-64.5 144-144zm0 208l0 24c0 4.4 3.6 8 8 8s8-3.6 8-8l0-24c35.3 0 64-28.7 64-64l0-160c0-35.3-28.7-64-64-64l-40.2 0c-25.8-38.6-69.8-64-119.8-64s-93.9 25.4-119.8 64L64 192c-35.3 0-64 28.7-64 64L0 416c0 35.3 28.7 64 64 64l0 24c0 4.4 3.6 8 8 8s8-3.6 8-8l0-24 416 0zM64 296c0 4.4 3.6 8 8 8l80 0c4.4 0 8-3.6 8-8s-3.6-8-8-8l-80 0c-4.4 0-8 3.6-8 8zm8 56c-4.4 0-8 3.6-8 8s3.6 8 8 8l96 0c4.4 0 8-3.6 8-8s-3.6-8-8-8l-96 0z"/></svg>