<svg xmlns="http://www.w3.org/2000/svg" viewBox="0 0 384 512"><!--! Font Awesome Pro 7.0.0 by @fontawesome - https://fontawesome.com License - https://fontawesome.com/license (Commercial License) Copyright 2025 Fonticons, Inc. --><path fill="currentColor" d="M12.6 1.5C10.2-.3 7-.5 4.3 .9S0 5 0 8L0 504c0 3 1.7 5.7 4.3 7.1s5.9 1.1 8.3-.6l51.6-36.9 59.5 37.2c2.6 1.6 5.9 1.6 8.5 0l59.8-37.4 59.8 37.4c2.6 1.6 5.9 1.6 8.5 0l59.5-37.2 51.6 36.9c2.4 1.7 5.6 2 8.3 .6S384 507 384 504L384 8c0-3-1.7-5.7-4.3-7.1s-5.9-1.1-8.3 .6L319.7 38.4 260.2 1.2c-2.6-1.6-5.9-1.6-8.5 0L192 38.6 132.2 1.2c-2.6-1.6-5.9-1.6-8.5 0L64.3 38.4 12.6 1.5zM68.2 54.8L128 17.4 187.8 54.8c2.6 1.6 5.9 1.6 8.5 0L256 17.4 315.8 54.8c2.7 1.7 6.3 1.6 8.9-.3l43.4-31 0 464.9-43.4-31c-2.6-1.9-6.1-2-8.9-.3l-59.8 37.4-59.8-37.4c-2.6-1.6-5.9-1.6-8.5 0L128 494.6 68.2 457.2c-2.7-1.7-6.3-1.6-8.9 .3l-43.4 31 0-464.9 43.4 31c2.6 1.9 6.1 2 8.9 .3zM96 152c-4.4 0-8 3.6-8 8s3.6 8 8 8l192 0c4.4 0 8-3.6 8-8s-3.6-8-8-8L96 152zM88 352c0 4.4 3.6 8 8 8l192 0c4.4 0 8-3.6 8-8s-3.6-8-8-8L96 344c-4.4 0-8 3.6-8 8zm8-104c-4.4 0-8 3.6-8 8s3.6 8 8 8l192 0c4.4 0 8-3.6 8-8s-3.6-8-8-8L96 248z"/></svg>