<svg xmlns="http://www.w3.org/2000/svg" viewBox="0 0 512 512"><!--! Font Awesome Pro 7.0.0 by @fontawesome - https://fontawesome.com License - https://fontawesome.com/license (Commercial License) Copyright 2025 Fonticons, Inc. --><path fill="currentColor" d="M448 80c26.5 0 48 21.5 48 48l0 256c0 26.5-21.5 48-48 48L64 432c-26.5 0-48-21.5-48-48l0-256c0-26.5 21.5-48 48-48l384 0zM64 64C28.7 64 0 92.7 0 128L0 384c0 35.3 28.7 64 64 64l384 0c35.3 0 64-28.7 64-64l0-256c0-35.3-28.7-64-64-64L64 64zm40 96c-4.4 0-8 3.6-8 8l0 48c0 30.9 25.1 56 56 56l64 0 0 72c0 4.4 3.6 8 8 8s8-3.6 8-8l0-176c0-4.4-3.6-8-8-8s-8 3.6-8 8l0 88-64 0c-22.1 0-40-17.9-40-40l0-48c0-4.4-3.6-8-8-8zm184 0c-4.4 0-8 3.6-8 8l0 176c0 4.4 3.6 8 8 8s8-3.6 8-8l0-80 24 0c44.2 0 80 35.8 80 80 0 4.4 3.6 8 8 8s8-3.6 8-8c0-39.4-23.7-73.2-57.6-88 33.9-14.8 57.6-48.6 57.6-88 0-4.4-3.6-8-8-8s-8 3.6-8 8c0 44.2-35.8 80-80 80l-24 0 0-80c0-4.4-3.6-8-8-8z"/></svg>