<svg xmlns="http://www.w3.org/2000/svg" viewBox="0 0 512 512"><!--! Font Awesome Pro 7.0.0 by @fontawesome - https://fontawesome.com License - https://fontawesome.com/license (Commercial License) Copyright 2025 Fonticons, Inc. --><path fill="currentColor" d="M448 80c26.5 0 48 21.5 48 48l0 256c0 26.5-21.5 48-48 48L64 432c-26.5 0-48-21.5-48-48l0-256c0-26.5 21.5-48 48-48l384 0zM64 64C28.7 64 0 92.7 0 128L0 384c0 35.3 28.7 64 64 64l384 0c35.3 0 64-28.7 64-64l0-256c0-35.3-28.7-64-64-64L64 64zm34.3 82.3c-3.1 3.1-3.1 8.2 0 11.3l98.3 98.3-98.3 98.3c-3.1 3.1-3.1 8.2 0 11.3s8.2 3.1 11.3 0l104-104c3.1-3.1 3.1-8.2 0-11.3l-104-104c-3.1-3.1-8.2-3.1-11.3 0zM200 368c-4.4 0-8 3.6-8 8s3.6 8 8 8l208 0c4.4 0 8-3.6 8-8s-3.6-8-8-8l-208 0z"/></svg>