<svg xmlns="http://www.w3.org/2000/svg" viewBox="0 0 384 512"><!--! Font Awesome Pro 7.0.0 by @fontawesome - https://fontawesome.com License - https://fontawesome.com/license (Commercial License) Copyright 2025 Fonticons, Inc. --><path fill="currentColor" d="M227.9 16l-71.8 0c-24.7 0-47.7 12.7-60.9 33.6l-8.1 12.8 26.5 33.7 156.7 0 26.5-33.7-8.1-12.8C275.6 28.7 252.6 16 227.9 16zM126.3 112l65.7 83.5 65.7-83.5-131.5 0zM263.8 286.7l65-87.4c17.8-23.9 19-56.3 3.1-81.4l-26-41.2-103.7 131.8 61.6 78.2zm77.9-77.8L274 299.7 374.3 427.1c1.3 1.7 1.9 3.8 1.6 6s-1.4 4.1-3.1 5.4l-96 72c-1.7 1.3-3.8 1.8-5.9 1.5s-4-1.4-5.3-3.1L42.4 208.8c-21.7-29.2-23.2-68.8-3.8-99.5L81.7 41C97.8 15.5 125.9 0 156.1 0l71.8 0c30.2 0 58.3 15.5 74.4 41l43.1 68.3c19.4 30.8 17.9 70.3-3.8 99.5zM9.7 427.1l69.5-88.3 9.9 13.3-61.8 78.5 83 62.3 41.7-56.1 10 13.4-43.7 58.7c-1.3 1.7-3.2 2.8-5.3 3.1s-4.2-.2-5.9-1.5l-96-72c-1.7-1.3-2.9-3.2-3.1-5.4s.3-4.3 1.6-6zM78.1 76.7l-26 41.2c-15.9 25.2-14.7 57.5 3.1 81.4l218.4 293.5 83-62.3-278.6-353.8z"/></svg>