<svg xmlns="http://www.w3.org/2000/svg" viewBox="0 0 512 512"><!--! Font Awesome Pro 7.0.0 by @fontawesome - https://fontawesome.com License - https://fontawesome.com/license (Commercial License) Copyright 2025 Fonticons, Inc. --><path fill="currentColor" d="M493.7 250.3l-144-144c-2.3-2.3-5.7-3-8.7-1.7s-4.9 4.2-4.9 7.4l0 88c0 4.4-3.6 8-8 8l-152 0c-17.7 0-32 14.3-32 32l0 32c0 17.7 14.3 32 32 32l152 0c4.4 0 8 3.6 8 8l0 88c0 3.2 1.9 6.2 4.9 7.4l0 0c3 1.2 6.4 .6 8.7-1.7l144-144c3.1-3.1 3.1-8.2 0-11.3zM256 320l-80 0c-26.5 0-48-21.5-48-48l0-32c0-26.5 21.5-48 48-48l144 0 0-80c0-9.7 5.8-18.5 14.8-22.2S354.1 88.2 361 95l144 144 0 0c9.4 9.4 9.4 24.6 0 33.9L361 417c-6.9 6.9-17.2 8.9-26.2 5.2S320 409.7 320 400l0-80-64 0zM8 64c4.4 0 8 3.6 8 8l0 368c0 4.4-3.6 8-8 8s-8-3.6-8-8L0 72c0-4.4 3.6-8 8-8z"/></svg>