<svg xmlns="http://www.w3.org/2000/svg" viewBox="0 0 512 512"><!--! Font Awesome Pro 7.0.0 by @fontawesome - https://fontawesome.com License - https://fontawesome.com/license (Commercial License) Copyright 2025 Fonticons, Inc. --><path fill="currentColor" d="M17.4 412.9c-.9 3.4-1.4 7-1.4 10.6 0 22.4 18.1 40.5 40.5 40.5l191.5 0 0-72c0-4.4 3.6-8 8-8s8 3.6 8 8l0 72 191.5 0c22.4 0 40.5-18.1 40.5-40.5 0-3.6-.5-7.1-1.4-10.6L405.4 83.5C399.7 62.5 380.7 48 359 48l-95 0 0 72c0 4.4-3.6 8-8 8s-8-3.6-8-8l0-72-95 0c-21.7 0-40.7 14.5-46.3 35.5L17.4 412.9zM256 32l103 0c28.9 0 54.2 19.4 61.8 47.3L510 408.7c1.3 4.8 2 9.8 2 14.8 0 31.2-25.3 56.5-56.5 56.5l-399 0c-31.2 0-56.5-25.3-56.5-56.5 0-5 .7-10 2-14.8L91.2 79.3C98.8 51.4 124.1 32 153 32l103 0zm8 176l0 96c0 4.4-3.6 8-8 8s-8-3.6-8-8l0-96c0-4.4 3.6-8 8-8s8 3.6 8 8z"/></svg>