<svg xmlns="http://www.w3.org/2000/svg" viewBox="0 0 512 512"><!--! Font Awesome Pro 7.1.0 by @fontawesome - https://fontawesome.com License - https://fontawesome.com/license (Commercial License) Copyright 2025 Fonticons, Inc. --><path fill="currentColor" d="M504.1 256c4.4 .1 7.9 3.9 7.8 8.3-2 62.7-27 124.9-74.8 172.8-100 100-262.1 100-362.1 0l-59-59 0 125.9c0 4.4-3.6 8-8 8s-8-3.6-8-8L0 358.7c0-2.1 .8-4.2 2.3-5.7s3.5-2.3 5.7-2.3l128 0c4.4 0 8 3.6 8 8s-3.6 8-8 8l-108.7 0 59 59c93.7 93.7 245.7 93.7 339.4 0 44.9-44.9 68.3-103.2 70.2-162 .1-4.4 3.8-7.9 8.2-7.7zM256 384a16 16 0 1 1 0-32 16 16 0 1 1 0 32zm2.9-255.7c6.6 1.4 11.5 7.4 11.3 14.4L264 304.3c-.2 4.3-3.7 7.7-8 7.7s-7.8-3.4-8-7.7l-6.2-161.6c-.3-8 6.1-14.7 14.2-14.7l2.9 .3zM504 0c4.4 0 8 3.6 8 8l0 145.3c0 2.1-.8 4.2-2.3 5.7s-3.5 2.3-5.7 2.3l-128 0c-4.4 0-8-3.6-8-8s3.6-8 8-8l108.7 0-59-59c-93.7-93.7-245.7-93.7-339.4 0-44.9 44.9-68.3 103.2-70.2 162-.1 4.4-3.8 7.9-8.3 7.8S0 252.2 .1 247.8C2.1 185 27.1 122.9 75 75 174.9-25 337.1-25 437 75l59 59 0-125.9c0-4.4 3.6-8 8-8z"/></svg>