<svg xmlns="http://www.w3.org/2000/svg" viewBox="0 0 640 512"><!--! Font Awesome Pro 7.0.0 by @fontawesome - https://fontawesome.com License - https://fontawesome.com/license (Commercial License) Copyright 2025 Fonticons, Inc. --><path fill="currentColor" d="M487.6 53.1C501.1 39.6 519.4 32 538.5 32l27 0c19.1 0 37.4 7.6 50.9 21.1l16.3 16.3c4.7 4.7 7.3 11 7.3 17.7 0 13.8-11.2 25-25 25l-64 0c-7.2 0-13.9 3.2-18.5 8.7L283.8 421.8C253.4 458.7 208.1 480 160.3 480 71.8 480 0 408.2 0 319.7l0-7.9c0-11.1 1.1-22.1 3.3-33L30.2 144 8 144c-4.4 0-8-3.6-8-8s3.6-8 8-8l272 0c4.4 0 8 3.6 8 8s-3.6 8-8 8l-26.7 0-59.3 140.9c-1.3 3.1-2 6.4-2 9.8l0 4.9c0 11.2 9.1 20.3 20.3 20.3 5.4 0 10.5-2.1 14.3-5.9l118-117.9-22.3-22.3c-3.1-3.1-3.1-8.2 0-11.3s8.2-3.1 11.3 0l22.3 22.3 36.7-36.7-22.3-22.3c-3.1-3.1-3.1-8.2 0-11.3s8.2-3.1 11.3 0l22.3 22.3 36.7-36.7-22.3-22.3c-3.1-3.1-3.1-8.2 0-11.3s8.2-3.1 11.3 0L452 88.7 487.6 53.1zM19 282c-2 9.8-3 19.8-3 29.8l0 7.9c0 79.7 64.6 144.3 144.3 144.3 43 0 83.8-19.2 111.2-52.4L520.2 110.5c7.6-9.2 18.9-14.5 30.8-14.5l64 0c5 0 9-4 9-9 0-2.4-.9-4.7-2.6-6.3L605.1 64.4C594.6 53.9 580.3 48 565.5 48l-27 0c-14.8 0-29.1 5.9-39.6 16.4l-261 260.8c-6.8 6.8-16 10.6-25.7 10.6-20 0-36.3-16.2-36.3-36.3l0-4.9c0-5.5 1.1-10.9 3.2-16L236 144 46.6 144 19 282zm93-58a16 16 0 1 1 32 0 16 16 0 1 1 -32 0zM96 304a16 16 0 1 1 0 32 16 16 0 1 1 0-32z"/></svg>