<svg xmlns="http://www.w3.org/2000/svg" viewBox="0 0 640 512"><!--! Font Awesome Pro 7.0.0 by @fontawesome - https://fontawesome.com License - https://fontawesome.com/license (Commercial License) Copyright 2025 Fonticons, Inc. --><path fill="currentColor" d="M496 272a128 128 0 1 1 0 256 128 128 0 1 1 0-256zm0 272a144 144 0 1 0 0-288 144 144 0 1 0 0 288zm12-80a12 12 0 1 0 -24 0 12 12 0 1 0 24 0zm-4-144c0-4.4-3.6-8-8-8s-8 3.6-8 8l0 96c0 4.4 3.6 8 8 8s8-3.6 8-8l0-96zM293.2 22.8c-3-2.5-7.3-2.5-10.3 0L141.2 142.1c-1.4 1.2-3.3 1.9-5.2 1.9l-72 0c-26.5 0-48 21.5-48 48l0 256c0 26.5 21.5 48 48 48l176 0 0-112c0-17.7 14.3-32 32-32l32 0c2 0 4 .2 5.9 .5-1.3 5.1-2.4 10.4-3.3 15.7-.9-.1-1.7-.2-2.6-.2l-32 0c-8.8 0-16 7.2-16 16l0 112 64 0 0 0 9.7 0c3.2 5.5 6.6 10.9 10.4 16L64 512c-35.3 0-64-28.7-64-64L0 192c0-35.3 28.7-64 64-64l69.1 0 139.5-117.4c8.9-7.5 22-7.5 30.9 0L442.9 128 512 128c35.3 0 64 28.7 64 64l0 33.4c-5.2-2.4-10.6-4.6-16-6.5l0-26.9c0-26.5-21.5-48-48-48l-72 0c-1.9 0-3.7-.7-5.2-1.9L293.2 22.8zM288 240a48 48 0 1 0 0-96 48 48 0 1 0 0 96zm0-112a64 64 0 1 1 0 128 64 64 0 1 1 0-128zM80 232c0-13.3 10.7-24 24-24l24 0c13.3 0 24 10.7 24 24l0 24c0 13.3-10.7 24-24 24l-24 0c-13.3 0-24-10.7-24-24l0-24zm24-8c-4.4 0-8 3.6-8 8l0 24c0 4.4 3.6 8 8 8l24 0c4.4 0 8-3.6 8-8l0-24c0-4.4-3.6-8-8-8l-24 0zm0 112l24 0c13.3 0 24 10.7 24 24l0 24c0 13.3-10.7 24-24 24l-24 0c-13.3 0-24-10.7-24-24l0-24c0-13.3 10.7-24 24-24zm-8 24l0 24c0 4.4 3.6 8 8 8l24 0c4.4 0 8-3.6 8-8l0-24c0-4.4-3.6-8-8-8l-24 0c-4.4 0-8 3.6-8 8z"/></svg>