<svg xmlns="http://www.w3.org/2000/svg" viewBox="0 0 512 512"><!--! Font Awesome Pro 7.0.0 by @fontawesome - https://fontawesome.com License - https://fontawesome.com/license (Commercial License) Copyright 2025 Fonticons, Inc. --><path fill="currentColor" d="M75.3 187.3c3-3 4.7-7.1 4.7-11.3l0-64c0-17.7 14.3-32 32-32l64 0c4.2 0 8.3-1.7 11.3-4.7L240 22.6c4.2-4.2 10-6.6 16-6.6s11.8 2.4 16 6.6l52.7 52.7c3 3 7.1 4.7 11.3 4.7l64 0c17.7 0 32 14.3 32 32l0 64c0 4.2 1.7 8.3 4.7 11.3L489.4 240c4.2 4.2 6.6 10 6.6 16s-2.4 11.8-6.6 16l-52.7 52.7c-3 3-4.7 7.1-4.7 11.3l0 64c0 17.7-14.3 32-32 32l-64 0c-4.2 0-8.3 1.7-11.3 4.7L272 489.4c-4.2 4.2-10 6.6-16 6.6s-11.8-2.4-16-6.6l-52.7-52.7c-3-3-7.1-4.7-11.3-4.7l-64 0c-17.7 0-32-14.3-32-32l0-64c0-4.2-1.7-8.3-4.7-11.3L22.6 272c-4.2-4.2-6.6-10-6.6-16s2.4-11.8 6.6-16l52.7-52.7zM64 112l0 64-52.7 52.7C4.1 235.9 0 245.8 0 256s4.1 20.1 11.3 27.3L64 336 64 400c0 26.5 21.5 48 48 48l64 0 52.7 52.7c7.2 7.2 17.1 11.3 27.3 11.3s20.1-4.1 27.3-11.3l52.7-52.7 64 0c26.5 0 48-21.5 48-48l0-64 52.7-52.7c7.2-7.2 11.3-17.1 11.3-27.3s-4.1-20.1-11.3-27.3L448 176 448 112c0-26.5-21.5-48-48-48l-64 0-52.7-52.7C276.1 4.1 266.2 0 256 0s-20.1 4.1-27.3 11.3L176 64 112 64c-26.5 0-48 21.5-48 48zm192 64c25 0 45.2 20.2 45.2 45.2 0 22.3-14.3 33.7-27.9 39.8-13 5.8-25.3 18.4-25.3 35 0 4.4 3.6 8 8 8s8-3.6 8-8c0-8.1 6.4-16.1 15.9-20.4 16.4-7.3 37.4-23.1 37.4-54.4 0-33.8-27.4-61.2-61.2-61.2s-61.2 27.4-61.2 61.2c0 4.4 3.6 8 8 8s8-3.6 8-8c0-25 20.2-45.2 45.2-45.2zm16 176a16 16 0 1 0 -32 0 16 16 0 1 0 32 0z"/></svg>