<svg xmlns="http://www.w3.org/2000/svg" viewBox="0 0 192 512"><!--! Font Awesome Pro 7.0.0 by @fontawesome - https://fontawesome.com License - https://fontawesome.com/license (Commercial License) Copyright 2025 Fonticons, Inc. --><path fill="currentColor" d="M48.4 128a48 48 0 1 1 96 0 48 48 0 1 1 -96 0zm112 0a64 64 0 1 0 -128 0 64 64 0 1 0 128 0zm-16 222.4c0 8.5-2.4 16.9-6.8 24.2L69.4 486.2c-3.7 6.1-10.3 9.8-17.5 9.8-12.7 0-22.4-11.5-20.1-24.1L55.2 341.1c3.8-21.4 22.5-37.1 44.3-37.1 24.8 0 45 20.1 45 45l0 1.5zm16 0l0-1.5c0-33.7-27.3-61-61-61-29.5 0-54.8 21.2-60 50.2L16.1 469.1c-4 22.3 13.2 42.9 35.9 42.9 12.7 0 24.5-6.6 31.1-17.4L151.3 383c6-9.8 9.2-21.1 9.2-32.6z"/></svg>