<svg xmlns="http://www.w3.org/2000/svg" viewBox="0 0 512 512"><!--! Font Awesome Pro 7.1.0 by @fontawesome - https://fontawesome.com License - https://fontawesome.com/license (Commercial License) Copyright 2025 Fonticons, Inc. --><path fill="currentColor" d="M231.1 7.9c16-6.8 34-6.8 50 0L457.8 82.8c22 9.3 38.4 31 38.3 57.2-.5 99.2-41.3 280.7-213.6 363.2-16.7 8-36.1 8-52.7 0-172.4-82.5-213.2-264-213.7-363.2-.1-26.2 16.3-47.9 38.3-57.2L231.1 7.9zm43.7 14.7c-12-5.1-25.5-5.1-37.5 0L60.6 97.5c-16.6 7.1-28.6 23.3-28.5 42.4 .5 96.6 40.3 270.2 204.6 348.8 12.3 5.9 26.6 5.9 38.9 0 164.2-78.6 204.1-252.2 204.5-348.8 .1-19.1-11.9-35.4-28.5-42.4L274.8 22.6zm62.9 141.1c2.6-3.6 7.6-4.3 11.2-1.8s4.3 7.6 1.8 11.2L236.9 329.5c-1.4 1.9-3.6 3.1-5.9 3.3s-4.7-.7-6.3-2.4l-62.3-64.5c-3.1-3.2-3-8.2 .2-11.3s8.2-3 11.3 .2l55.7 57.6 108.1-148.7z"/></svg>