<svg xmlns="http://www.w3.org/2000/svg" viewBox="0 0 640 512"><!--! Font Awesome Pro 7.0.0 by @fontawesome - https://fontawesome.com License - https://fontawesome.com/license (Commercial License) Copyright 2025 Fonticons, Inc. --><path fill="currentColor" d="M272 16c-17.7 0-32 14.3-32 32l0 16 160 0 0-16c0-17.7-14.3-32-32-32l-96 0zM224 64l0-16c0-26.5 21.5-48 48-48l96 0c26.5 0 48 21.5 48 48l0 16 24 0c39.8 0 72 32.2 72 72l0 116.8 21.6 8.6c14.8 5.9 22.5 22.4 17.4 37.5-12.9 38.8-35.1 72.7-63.6 99.4-6.2-2-12.5-3.5-18.9-4.5 30.4-26 54-60.2 67.3-100 2.4-7.1-1.2-14.8-8.2-17.6L337.8 200.4c-3.2-1.3-6.5-2.2-9.8-2.8l0 241c-1.9 .6-3.6 .9-5 1.2l-3 .2c-2.1 0-4.7-.4-8-1.4l0-241c-3.3 .6-6.6 1.5-9.8 2.8L112.4 276.3c-7 2.8-10.6 10.5-8.2 17.6 13.3 39.8 36.9 74 67.3 100-6.4 1.1-12.7 2.6-18.9 4.5-28.5-26.8-50.6-60.6-63.6-99.5-5.1-15.2 2.6-31.6 17.4-37.5l21.6-8.6 0-116.8c0-39.8 32.2-72 72-72l24 0zm272 72c0-30.9-25.1-56-56-56L200 80c-30.9 0-56 25.1-56 56l0 110.4 152.2-60.9c15.3-6.1 32.3-6.1 47.5 0L496 246.4 496 136zM397.4 463.4c-25.5 18.2-51 32.6-77.4 32.6s-51.9-14.4-77.4-32.6c-28.8-20.5-67.6-20.5-96.4 0-24.3 17.4-52.5 32.2-82.2 32-17.6-.1-35.3-5.4-52.6-17.8-3.6-2.6-4.4-7.6-1.9-11.2s7.6-4.4 11.2-1.9c14.7 10.5 29.3 14.7 43.4 14.8 24.6 .1 49.3-12.2 72.9-29 34.3-24.5 80.6-24.5 115 0 25.4 18.1 47.2 29.6 68.1 29.6s42.7-11.5 68.1-29.6c34.3-24.5 80.6-24.5 115 0 18.6 13.3 38 23.8 57.5 27.6 19.2 3.7 38.9 .8 58.8-13.4 3.6-2.6 8.6-1.7 11.2 1.9s1.7 8.6-1.9 11.2c-23.7 16.9-47.8 20.5-71.1 16-22.9-4.4-44.5-16.5-63.8-30.3-28.8-20.5-67.6-20.5-96.4 0z"/></svg>