<svg xmlns="http://www.w3.org/2000/svg" viewBox="0 0 640 512"><!--! Font Awesome Pro 7.0.0 by @fontawesome - https://fontawesome.com License - https://fontawesome.com/license (Commercial License) Copyright 2025 Fonticons, Inc. --><path fill="currentColor" d="M208.6 16l16.8 0c7.6 45.4 47.1 80 94.7 80s87-34.6 94.7-80l16.8 0c13.8 0 27.2 5.1 37.5 14.4l97.9 88.1-73.1 87.8-16.9-12.7c-2.4-1.8-5.7-2.1-8.4-.8S464 197 464 200l0 272c0 13.3-10.7 24-24 24l-240 0c-13.3 0-24-10.7-24-24l0-272c0-3-1.7-5.8-4.4-7.2s-6-1.1-8.4 .8l-16.9 12.7-73.1-87.8 97.9-88.1C181.4 21.1 194.7 16 208.6 16zM578.7 129.2l26.2 23.6-70.2 84.2-28.2-21.2 72.2-86.7zM35.1 152.8l26.2-23.6 72.2 86.7-28.2 21.2-70.2-84.2zM431.4 0L208.6 0c-17.8 0-34.9 6.6-48.2 18.5L18.6 146.1c-3.2 2.9-3.5 7.8-.8 11.1l80 96c2.7 3.3 7.5 3.8 10.9 1.3L160 216 160 472c0 22.1 17.9 40 40 40l240 0c22.1 0 40-17.9 40-40l0-256 51.2 38.4c3.4 2.6 8.2 2 10.9-1.3l80-96c2.8-3.3 2.4-8.2-.8-11.1L479.6 18.5C466.4 6.6 449.2 0 431.4 0zM320 80c-38.7 0-71-27.5-78.4-64l156.8 0C391 52.5 358.7 80 320 80zm-8 96l16 0c22.1 0 40 17.9 40 40l0 48c0 22.1-17.9 40-40 40l-16 0c-22.1 0-40-17.9-40-40l0-48c0-22.1 17.9-40 40-40zm-56 40l0 48c0 30.9 25.1 56 56 56l16 0c30.9 0 56-25.1 56-56l0-48c0-30.9-25.1-56-56-56l-16 0c-30.9 0-56 25.1-56 56z"/></svg>