<svg xmlns="http://www.w3.org/2000/svg" viewBox="0 0 448 512"><!--! Font Awesome Pro 7.0.0 by @fontawesome - https://fontawesome.com License - https://fontawesome.com/license (Commercial License) Copyright 2025 Fonticons, Inc. --><path fill="currentColor" d="M0 40c0 4.4 3.6 8 8 8l432 0c4.4 0 8-3.6 8-8s-3.6-8-8-8L8 32c-4.4 0-8 3.6-8 8zM27.4 96L1.1 188.2c-.7 2.5-1.1 5.1-1.1 7.7 0 15.3 12.2 27.7 27.4 28.1L1.1 316.2c-.7 2.5-1.1 5.1-1.1 7.7 0 15.3 12.2 27.7 27.4 28.1L1.1 444.2C.4 446.7 0 449.3 0 451.9 0 467.4 12.6 480 28.1 480l391.9 0c15.5 0 28.1-12.6 28.1-28.1 0-2.6-.4-5.2-1.1-7.7L420.6 352c15.2-.3 27.4-12.8 27.4-28.1 0-2.6-.4-5.2-1.1-7.7L420.6 224c15.2-.3 27.4-12.8 27.4-28.1 0-2.6-.4-5.2-1.1-7.7l-26.3-92.2-16.6 0 27.6 96.6c.3 1.1 .5 2.2 .5 3.3 0 6.7-5.4 12.1-12.1 12.1L28.1 208c-6.7 0-12.1-5.4-12.1-12.1 0-1.1 .2-2.2 .5-3.3L44.1 96 27.4 96zM44.1 224l359.9 0 27.6 96.6c.3 1.1 .5 2.2 .5 3.3 0 6.7-5.4 12.1-12.1 12.1L28.1 336c-6.7 0-12.1-5.4-12.1-12.1 0-1.1 .2-2.2 .5-3.3L44.1 224zM16.5 448.6l27.6-96.6 359.9 0 27.6 96.6c.3 1.1 .5 2.2 .5 3.3 0 6.7-5.4 12.1-12.1 12.1L28.1 464c-6.7 0-12.1-5.4-12.1-12.1 0-1.1 .2-2.2 .5-3.3z"/></svg>