<svg xmlns="http://www.w3.org/2000/svg" viewBox="0 0 512 512"><!--! Font Awesome Pro 7.0.0 by @fontawesome - https://fontawesome.com License - https://fontawesome.com/license (Commercial License) Copyright 2025 Fonticons, Inc. --><path fill="currentColor" d="M80 432a64 64 0 1 1 0-128 64 64 0 1 1 0 128zm79.6-72c-4-40.4-38.1-72-79.6-72-44.2 0-80 35.8-80 80s35.8 80 80 80c41.5 0 75.6-31.6 79.6-72L504 376c4.4 0 8-3.6 8-8s-3.6-8-8-8l-344.4 0zM496 144a64 64 0 1 1 -128 0 64 64 0 1 1 128 0zm-143.6-8L8 136c-4.4 0-8 3.6-8 8s3.6 8 8 8l344.4 0c4 40.4 38.1 72 79.6 72 44.2 0 80-35.8 80-80s-35.8-80-80-80c-41.5 0-75.6 31.6-79.6 72z"/></svg>