<svg xmlns="http://www.w3.org/2000/svg" viewBox="0 0 384 512"><!--! Font Awesome Pro 7.0.0 by @fontawesome - https://fontawesome.com License - https://fontawesome.com/license (Commercial License) Copyright 2025 Fonticons, Inc. --><path fill="currentColor" d="M176 489.4c4.2 4.2 10 6.6 16 6.6s11.8-2.4 16-6.6L362.7 334.6c3.4-3.4 5.3-7.9 5.3-12.7 0-9.9-8-17.9-17.9-17.9L33.9 304c-9.9 0-17.9 8-17.9 17.9 0 4.8 1.9 9.3 5.3 12.7L176 489.4zm-11.3 11.3L9.9 345.9c-6.4-6.4-9.9-15-9.9-24 0-18.7 15.2-33.9 33.9-33.9l316.1 0c18.7 0 33.9 15.2 33.9 33.9 0 9-3.6 17.6-9.9 24L219.3 500.7c-7.2 7.2-17.1 11.3-27.3 11.3s-20.1-4.1-27.3-11.3z"/></svg>