<svg xmlns="http://www.w3.org/2000/svg" viewBox="0 0 512 512"><!--! Font Awesome Pro 7.0.0 by @fontawesome - https://fontawesome.com License - https://fontawesome.com/license (Commercial License) Copyright 2025 Fonticons, Inc. --><path fill="currentColor" d="M256 16a32 32 0 1 1 0 64 32 32 0 1 1 0-64zm0 80a48 48 0 1 0 0-96 48 48 0 1 0 0 96zm0 336a32 32 0 1 1 0 64 32 32 0 1 1 0-64zm0 80a48 48 0 1 0 0-96 48 48 0 1 0 0 96zM16 256a32 32 0 1 1 64 0 32 32 0 1 1 -64 0zm80 0a48 48 0 1 0 -96 0 48 48 0 1 0 96 0zm368-32a32 32 0 1 1 0 64 32 32 0 1 1 0-64zm0 80a48 48 0 1 0 0-96 48 48 0 1 0 0 96zM86.3 425.7a32 32 0 1 1 45.3-45.3 32 32 0 1 1 -45.3 45.3zm56.6-56.6A48 48 0 1 0 75 437 48 48 0 1 0 142.9 369.1zM131.5 86.3a32 32 0 1 1 -45.3 45.3 32 32 0 1 1 45.3-45.3zM75 142.9A48 48 0 1 0 142.9 75 48 48 0 1 0 75 142.9zM380.5 380.5a32 32 0 1 1 45.3 45.3 32 32 0 1 1 -45.3-45.3zM437 437A48 48 0 1 0 369.1 369.1 48 48 0 1 0 437 437z"/></svg>