<svg xmlns="http://www.w3.org/2000/svg" viewBox="0 0 448 512"><!--! Font Awesome Pro 7.0.0 by @fontawesome - https://fontawesome.com License - https://fontawesome.com/license (Commercial License) Copyright 2025 Fonticons, Inc. --><path fill="currentColor" d="M64 48C37.5 48 16 69.5 16 96l0 320c0 26.5 21.5 48 48 48l320 0c26.5 0 48-21.5 48-48l0-320c0-26.5-21.5-48-48-48L64 48zM0 96C0 60.7 28.7 32 64 32l320 0c35.3 0 64 28.7 64 64l0 320c0 35.3-28.7 64-64 64L64 480c-35.3 0-64-28.7-64-64L0 96zM98.3 304.2c2.2 3.8 6.8 5.4 10.8 3.7l46.7-19.2c3.5-1.5 5.7-5.1 5.3-8.9l-1.6-15.9c-.4-3.6 1.7-7 5.1-8.3 38-14.7 80.3-15.4 118.7-2 3.5 1.2 5.7 4.7 5.3 8.3l-1.8 17.8c-.4 3.8 1.8 7.4 5.3 8.9l46.7 19.2c4 1.7 8.7 .1 10.8-3.7l1.7-3c13.7-24 10.7-56.5-14.1-72.8-68.6-45-158-45-226.6 0-24.9 16.3-27.8 48.8-14.1 72.8l1.7 3zm16.9 18.5c-11.5 4.7-24.7 .2-30.8-10.6l-1.7-3c-16.7-29.2-14.5-72 19.3-94.1 73.9-48.5 170.2-48.5 244.2 0 33.8 22.1 36 64.9 19.3 94.1l-1.7 3c-6.2 10.8-19.3 15.3-30.8 10.6l-46.7-19.2c-10.1-4.2-16.2-14.4-15.2-25.3l1.1-11.4c-31.3-9.5-65-8.9-96 1.7l1 9.7c1.1 10.8-5.1 21.1-15.2 25.3l-46.7 19.2z"/></svg>