<svg xmlns="http://www.w3.org/2000/svg" viewBox="0 0 448 512"><!--! Font Awesome Pro 7.0.0 by @fontawesome - https://fontawesome.com License - https://fontawesome.com/license (Commercial License) Copyright 2025 Fonticons, Inc. --><path fill="currentColor" d="M64 48C37.5 48 16 69.5 16 96l0 320c0 26.5 21.5 48 48 48l320 0c26.5 0 48-21.5 48-48l0-320c0-26.5-21.5-48-48-48L64 48zM0 96C0 60.7 28.7 32 64 32l320 0c35.3 0 64 28.7 64 64l0 320c0 35.3-28.7 64-64 64L64 480c-35.3 0-64-28.7-64-64L0 96zm144 40c0-4.4 3.6-8 8-8l72 0c50.3 0 91.6 38.7 95.7 88l24.3 0c4.4 0 8 3.6 8 8s-3.6 8-8 8l-24.3 0c-4.1 49.3-45.3 88-95.7 88l-64 0 0 48c0 4.4-3.6 8-8 8s-8-3.6-8-8l0-136-24 0c-4.4 0-8-3.6-8-8s3.6-8 8-8l24 0 0-80zm80 8l-64 0 0 72 143.6 0c-4-40.4-38.1-72-79.6-72zM160 304l64 0c41.5 0 75.6-31.6 79.6-72l-143.6 0 0 72z"/></svg>