<svg xmlns="http://www.w3.org/2000/svg" viewBox="0 0 448 512"><!--! Font Awesome Pro 7.0.0 by @fontawesome - https://fontawesome.com License - https://fontawesome.com/license (Commercial License) Copyright 2025 Fonticons, Inc. --><path fill="currentColor" d="M64 48C37.5 48 16 69.5 16 96l0 320c0 26.5 21.5 48 48 48l320 0c26.5 0 48-21.5 48-48l0-320c0-26.5-21.5-48-48-48L64 48zM0 96C0 60.7 28.7 32 64 32l320 0c35.3 0 64 28.7 64 64l0 320c0 35.3-28.7 64-64 64L64 480c-35.3 0-64-28.7-64-64L0 96zm133.5 32.4c3.3-1.1 6.9 .1 8.9 2.9l91.5 124.7 70.1 0 0-120c0-4.4 3.6-8 8-8s8 3.6 8 8l0 120 24 0c4.4 0 8 3.6 8 8s-3.6 8-8 8l-24 0 0 104c0 3.5-2.2 6.5-5.5 7.6s-6.9-.1-8.9-2.9l-79.7-108.7-81.8 0 0 104c0 4.4-3.6 8-8 8s-8-3.6-8-8l0-104-24 0c-4.4 0-8-3.6-8-8s3.6-8 8-8l24 0 0-120c0-3.5 2.2-6.5 5.5-7.6zM304 351.6l0-79.6-58.3 0 58.3 79.6zM144 160.4l0 95.6 70.1 0-70.1-95.6z"/></svg>