<svg xmlns="http://www.w3.org/2000/svg" viewBox="0 0 448 512"><!--! Font Awesome Pro 7.0.0 by @fontawesome - https://fontawesome.com License - https://fontawesome.com/license (Commercial License) Copyright 2025 Fonticons, Inc. --><path fill="currentColor" d="M64 48C37.5 48 16 69.5 16 96l0 320c0 26.5 21.5 48 48 48l320 0c26.5 0 48-21.5 48-48l0-320c0-26.5-21.5-48-48-48L64 48zM0 96C0 60.7 28.7 32 64 32l320 0c35.3 0 64 28.7 64 64l0 320c0 35.3-28.7 64-64 64L64 480c-35.3 0-64-28.7-64-64L0 96zm224 51l-41.2 93 82.3 0-41.2-93zm14.1-10.4L283.9 240 336 240c4.4 0 8 3.6 8 8s-3.6 8-8 8l-45 0 21.3 48 23.7 0c4.4 0 8 3.6 8 8s-3.6 8-8 8l-16.6 0 23.3 52.5c1.9 4.3 0 9.4-4.4 11.3s-9.4 0-11.3-4.4l-26.3-59.5-153.2 0-26.3 59.5c-1.9 4.3-7 6.3-11.3 4.4s-6.3-7-4.4-11.3l23.3-52.5-16.7 0c-4.4 0-8-3.6-8-8s3.6-8 8-8l23.7 0 21.3-48-45 0c-4.4 0-8-3.6-8-8s3.6-8 8-8l52.1 0 45.8-103.4c2.5-5.6 8-9.2 14.1-9.2s11.7 3.6 14.1 9.2zM175.7 256l-21.3 48 139 0-21.3-48-96.5 0z"/></svg>