<svg xmlns="http://www.w3.org/2000/svg" viewBox="0 0 448 512"><!--! Font Awesome Pro 7.0.0 by @fontawesome - https://fontawesome.com License - https://fontawesome.com/license (Commercial License) Copyright 2025 Fonticons, Inc. --><path fill="currentColor" d="M64 48C37.5 48 16 69.5 16 96l0 320c0 26.5 21.5 48 48 48l320 0c26.5 0 48-21.5 48-48l0-320c0-26.5-21.5-48-48-48L64 48zM0 96C0 60.7 28.7 32 64 32l320 0c35.3 0 64 28.7 64 64l0 320c0 35.3-28.7 64-64 64L64 480c-35.3 0-64-28.7-64-64L0 96zm311.7 50.2l-64 224c-1.2 4.2-5.6 6.7-9.9 5.5s-6.7-5.6-5.5-9.9l64-224c1.2-4.2 5.6-6.7 9.9-5.5s6.7 5.6 5.5 9.9zM147.3 160l44.7 0c4.4 0 8 3.6 8 8s-3.6 8-8 8l-44.7 0c-19.5 0-35.3 15.8-35.3 35.3 0 17.3 12.5 32 29.5 34.8l23.6 3.9c24.7 4.1 42.9 25.5 42.9 50.6 0 28.3-23 51.3-51.3 51.3L112 352c-4.4 0-8-3.6-8-8s3.6-8 8-8l44.7 0c19.5 0 35.3-15.8 35.3-35.3 0-17.3-12.5-32-29.5-34.8l-23.6-3.9C114.1 257.8 96 236.4 96 211.3 96 183 119 160 147.3 160zM320 336a16 16 0 1 1 32 0 16 16 0 1 1 -32 0z"/></svg>