<svg xmlns="http://www.w3.org/2000/svg" viewBox="0 0 448 512"><!--! Font Awesome Pro 7.0.0 by @fontawesome - https://fontawesome.com License - https://fontawesome.com/license (Commercial License) Copyright 2025 Fonticons, Inc. --><path fill="currentColor" d="M64 48C37.5 48 16 69.5 16 96l0 320c0 26.5 21.5 48 48 48l320 0c26.5 0 48-21.5 48-48l0-320c0-26.5-21.5-48-48-48L64 48zM0 96C0 60.7 28.7 32 64 32l320 0c35.3 0 64 28.7 64 64l0 320c0 35.3-28.7 64-64 64L64 480c-35.3 0-64-28.7-64-64L0 96zm219.8 32l3.1 0c23.3 0 45.7 9.3 62.2 25.8l8.6 8.6c3.1 3.1 3.1 8.2 0 11.3s-8.2 3.1-11.3 0l-8.6-8.6C260.3 151.6 242 144 222.9 144l-3.1 0c-39 0-66 38.8-52.5 75.4l7.6 20.6 105.2 0c4.4 0 8 3.6 8 8s-3.6 8-8 8l-99.8 0c2.7 10.5 3.4 21.4 2.2 32l97.5 0c4.4 0 8 3.6 8 8s-3.6 8-8 8l-100.8 0c-2.4 7.9-5.8 15.6-10.4 22.7L142.6 368 312 368c4.4 0 8 3.6 8 8s-3.6 8-8 8l-184 0c-2.9 0-5.6-1.6-7-4.2s-1.3-5.7 .3-8.1l34.1-53.6c2.9-4.5 5.2-9.2 7-14.1L136 304c-4.4 0-8-3.6-8-8s3.6-8 8-8l30.3 0c1.4-10.6 .5-21.6-2.7-32L136 256c-4.4 0-8-3.6-8-8s3.6-8 8-8l21.8 0-5.6-15.1c-17.3-47 17.5-96.9 67.6-96.9z"/></svg>