<svg xmlns="http://www.w3.org/2000/svg" viewBox="0 0 448 512"><!--! Font Awesome Pro 7.0.0 by @fontawesome - https://fontawesome.com License - https://fontawesome.com/license (Commercial License) Copyright 2025 Fonticons, Inc. --><path fill="currentColor" d="M64 48C37.5 48 16 69.5 16 96l0 320c0 26.5 21.5 48 48 48l320 0c26.5 0 48-21.5 48-48l0-320c0-26.5-21.5-48-48-48L64 48zM0 96C0 60.7 28.7 32 64 32l320 0c35.3 0 64 28.7 64 64l0 320c0 35.3-28.7 64-64 64L64 480c-35.3 0-64-28.7-64-64L0 96zm216 24c0-4.4 3.6-8 8-8s8 3.6 8 8l0 16.3c29.5 1.9 56.1 14.6 76 34 3.2 3.1 3.2 8.2 .1 11.3s-8.2 3.2-11.3 .1c-17-16.7-39.6-27.5-64.8-29.4l0 95.7 104 0c4.4 0 8 3.6 8 8 0 63.6-49.5 115.6-112 119.7l0 16.3c0 4.4-3.6 8-8 8s-8-3.6-8-8l0-16.3c-62.5-4.1-112-56.2-112-119.7s49.5-115.6 112-119.7l0-16.3zM120 256c0 54.7 42.3 99.6 96 103.7l0-207.4c-53.7 4.1-96 49-96 103.7zm207.7 8l-95.7 0 0 95.7c51.1-3.9 91.8-44.6 95.7-95.7z"/></svg>