<svg xmlns="http://www.w3.org/2000/svg" viewBox="0 0 448 512"><!--! Font Awesome Pro 7.0.0 by @fontawesome - https://fontawesome.com License - https://fontawesome.com/license (Commercial License) Copyright 2025 Fonticons, Inc. --><path fill="currentColor" d="M64 48C37.5 48 16 69.5 16 96l0 320c0 26.5 21.5 48 48 48l320 0c26.5 0 48-21.5 48-48l0-320c0-26.5-21.5-48-48-48L64 48zM0 96C0 60.7 28.7 32 64 32l320 0c35.3 0 64 28.7 64 64l0 320c0 35.3-28.7 64-64 64L64 480c-35.3 0-64-28.7-64-64L0 96zm242.1 22.8c35.2-4.1 66.1 23.4 66.1 58.8 0 18.2-8.3 35.2-22.4 46.4l42.2 0c4.4 0 8 3.6 8 8 0 4.3-3.5 7.9-7.8 8l-208.5 0c-4.3-.1-7.8-3.7-7.8-8 0-4.4 3.6-8 8-8l137.3 0 15.7-10.5c12-8 19.2-21.5 19.2-36 0-25.9-22.6-45.9-48.3-42.9l-87.3 10.3c-4.4 .5-8.4-2.6-8.9-7s2.6-8.4 7-8.9l87.3-10.3zM185.3 272l28.8 0 0 0 113.8 0c4.4 0 8 3.6 8 8s-3.6 8-8 8l-137.8 0-15.5 10.3c-12.1 8.1-19.4 21.7-19.4 36.3 0 25.9 22.4 46.1 48.2 43.4l104.5-11c4.4-.5 8.3 2.7 8.8 7.1s-2.7 8.3-7.1 8.8L205.1 394c-35.2 3.7-65.9-23.9-65.9-59.3 0-18.2 8.3-35.4 22.5-46.6L120 288c-4.4 0-8-3.6-8-8s3.6-8 8-8l65.3 0 0 0z"/></svg>