<svg xmlns="http://www.w3.org/2000/svg" viewBox="0 0 448 512"><!--! Font Awesome Pro 7.0.0 by @fontawesome - https://fontawesome.com License - https://fontawesome.com/license (Commercial License) Copyright 2025 Fonticons, Inc. --><path fill="currentColor" d="M64 48C37.5 48 16 69.5 16 96l0 320c0 26.5 21.5 48 48 48l320 0c26.5 0 48-21.5 48-48l0-320c0-26.5-21.5-48-48-48L64 48zM0 96C0 60.7 28.7 32 64 32l320 0c35.3 0 64 28.7 64 64l0 320c0 35.3-28.7 64-64 64L64 480c-35.3 0-64-28.7-64-64L0 96zm168 64l76 0c33.1 0 60 26.9 60 60 0 29.6-21.4 54.2-49.6 59.1l40.3 60.5c2.5 3.7 1.5 8.6-2.2 11.1s-8.6 1.5-11.1-2.2l-45.6-68.4-59.7 0 0 64c0 4.4-3.6 8-8 8s-8-3.6-8-8l0-176c0-4.4 3.6-8 8-8zm72 104l4 0c24.3 0 44-19.7 44-44s-19.7-44-44-44l-68 0 0 88 64 0z"/></svg>