<svg xmlns="http://www.w3.org/2000/svg" viewBox="0 0 448 512"><!--! Font Awesome Pro 7.0.0 by @fontawesome - https://fontawesome.com License - https://fontawesome.com/license (Commercial License) Copyright 2025 Fonticons, Inc. --><path fill="currentColor" d="M64 48C37.5 48 16 69.5 16 96l0 320c0 26.5 21.5 48 48 48l320 0c26.5 0 48-21.5 48-48l0-320c0-26.5-21.5-48-48-48L64 48zM0 96C0 60.7 28.7 32 64 32l320 0c35.3 0 64 28.7 64 64l0 320c0 35.3-28.7 64-64 64L64 480c-35.3 0-64-28.7-64-64L0 96zm232 8l0 23.5c32 1.3 61 14.4 82.8 35 3.4 3.2 3.6 8.7 .3 12.1s-8.7 3.6-12.1 .3c-18.7-17.7-43.5-28.9-71-30.3l0 222.6c27.4-1.3 52.3-12.6 71-30.3 3.4-3.3 8.9-3.1 12.1 .3s3.1 8.9-.3 12.1c-21.8 20.6-50.8 33.6-82.8 35l0 23.5c0 4.4-3.6 8-8 8s-8-3.6-8-8l0-23.9C149.9 378.8 97.9 323.5 97.9 256s52-122.8 118.1-128.1l0-23.9c0-4.4 3.6-8 8-8s8 3.6 8 8zM115.1 256c0 58 44.3 105.6 100.9 110.9l0-221.9C159.4 150.4 115.1 198 115.1 256z"/></svg>