<svg xmlns="http://www.w3.org/2000/svg" viewBox="0 0 448 512"><!--! Font Awesome Pro 7.0.0 by @fontawesome - https://fontawesome.com License - https://fontawesome.com/license (Commercial License) Copyright 2025 Fonticons, Inc. --><path fill="currentColor" d="M64 48C37.5 48 16 69.5 16 96l0 320c0 26.5 21.5 48 48 48l320 0c26.5 0 48-21.5 48-48l0-320c0-26.5-21.5-48-48-48L64 48zM0 96C0 60.7 28.7 32 64 32l320 0c35.3 0 64 28.7 64 64l0 320c0 35.3-28.7 64-64 64L64 480c-35.3 0-64-28.7-64-64L0 96zm320 40c4.4 0 8 3.6 8 8l0 24 24 0c4.4 0 8 3.6 8 8s-3.6 8-8 8l-50.8 0c-16.1 0-29.2 13.1-29.2 29.2 0 12.6 8 23.7 20 27.7l42 14c20.4 6.8 34.1 25.8 34.1 47.3 0 24.2-17.2 44.3-40 48.9l0 25c0 4.4-3.6 8-8 8s-8-3.6-8-8l0-24-40 0c-4.4 0-8-3.6-8-8s3.6-8 8-8l46.2 0c18.7 0 33.8-15.2 33.8-33.8 0-14.6-9.3-27.5-23.1-32.1l-42-14c-18.5-6.2-30.9-23.4-30.9-42.9 0-25 20.2-45.2 45.2-45.2l10.8 0 0-24c0-4.4 3.6-8 8-8zM104 160l64 0c35.3 0 64 28.7 64 64 0 28.8-19.1 53.2-45.3 61.2L215.4 357c1.6 4.1-.4 8.8-4.5 10.4s-8.8-.4-10.4-4.5l-30-75c-.9 0-1.7 .1-2.6 .1l-56 0 0 72c0 4.4-3.6 8-8 8s-8-3.6-8-8l0-192c0-4.4 3.6-8 8-8zm64 112c26.5 0 48-21.5 48-48s-21.5-48-48-48l-56 0 0 96 56 0z"/></svg>