<svg xmlns="http://www.w3.org/2000/svg" viewBox="0 0 512 512"><!--! Font Awesome Pro 7.0.0 by @fontawesome - https://fontawesome.com License - https://fontawesome.com/license (Commercial License) Copyright 2025 Fonticons, Inc. --><path fill="currentColor" d="M248 34.4l0 353.7-138.4 107.6c-.3 .2-.6 .3-.9 .3-1 0-1.7-.9-1.4-1.9l52.3-171.8c.9-3.1-.1-6.4-2.5-8.5L17 197.1c-.7-.6-1-1.4-1-2.2 0-1.6 1.3-2.9 2.9-2.9L192 192c3.5 0 6.6-2.3 7.6-5.6L248 34.4zm16 353.7l0-353.7 48.4 152c1.1 3.3 4.1 5.6 7.6 5.6l173.1 0c1.6 0 2.9 1.3 2.9 2.9 0 .9-.4 1.7-1 2.2L354.9 313.9c-2.5 2.1-3.5 5.4-2.5 8.5l52.3 171.8c.3 .9-.4 1.9-1.4 1.9-.3 0-.6-.1-.9-.3L264 388.1zM256 0c-8.2 0-15.5 5.3-18 13.2L186.2 176 18.9 176c-10.4 0-18.9 8.5-18.9 18.9 0 5.6 2.5 10.9 6.8 14.5l136 113.3-50.7 166.7c-3.4 11.2 5 22.5 16.7 22.5 3.9 0 7.7-1.3 10.7-3.7L256 402.1 392.5 508.3c3.1 2.4 6.8 3.7 10.7 3.7 11.7 0 20.1-11.3 16.7-22.5l-50.7-166.7 136-113.3c4.3-3.6 6.8-8.9 6.8-14.5 0-10.4-8.5-18.9-18.9-18.9L325.8 176 274 13.2C271.5 5.3 264.2 0 256 0z"/></svg>