<svg xmlns="http://www.w3.org/2000/svg" viewBox="0 0 512 512"><!--! Font Awesome Pro 7.0.0 by @fontawesome - https://fontawesome.com License - https://fontawesome.com/license (Commercial License) Copyright 2025 Fonticons, Inc. --><path fill="currentColor" d="M30.7 72.3C37.6 48.4 59.5 32 84.4 32l344 0c24.9 0 46.8 16.4 53.8 40.3l23.4 80.2c8.5 29-3.1 58-25.1 74.3l0 181.2c0 39.8-32.2 72-72 72l-304 0c-39.8 0-72-32.2-72-72l0-181.2c-22-16.3-33.6-45.3-25.1-74.3L30.7 72.3zM377.1 48l9.7 116.9c0 0 0 0 0 .1l.9 11c2.3 27.1 24.9 48 52.2 48 34.9 0 60-33.5 50.3-67L466.8 76.8c-5-17.1-20.6-28.8-38.4-28.8l-51.3 0zm-6.2 118.2l-9.9-118.2-96.6 0 0 122.7c0 29.5 23.9 53.3 53.3 53.3 31.2 0 55.7-26.7 53.2-57.8zM256.4 203c-11.6 22-34.7 37-61.3 37-26.8 0-49.8-15.1-61.4-37.1-11.4 22.1-34.5 37.1-60.8 37.1-8.7 0-16.9-1.6-24.5-4.5l0 100.5 416 0 0-100.5c-7.5 2.9-15.8 4.5-24.5 4.5-26.3 0-49.4-14.9-60.8-37.1-11.6 21.9-34.6 37.1-61.4 37.1-26.6 0-49.7-15-61.3-37zm-8-155l-96.6 0-9.9 118.2 0 0c-2.6 31.1 22 57.7 53.2 57.7 29.5 0 53.3-23.9 53.3-53.3l0-122.7zm-164 0C66.6 48 51 59.7 46 76.8L22.6 157c-9.8 33.5 15.4 67 50.3 67 27.2 0 49.9-20.9 52.2-48l.9-11 0 0 9.7-116.9-51.3 0zm-36 304l0 56c0 30.9 25.1 56 56 56l304 0c30.9 0 56-25.1 56-56l0-56-416 0z"/></svg>