<svg xmlns="http://www.w3.org/2000/svg" viewBox="0 0 576 512"><!--! Font Awesome Pro 7.0.0 by @fontawesome - https://fontawesome.com License - https://fontawesome.com/license (Commercial License) Copyright 2025 Fonticons, Inc. --><path fill="currentColor" d="M32 48l192 0c8.8 0 16 7.2 16 16s-7.2 16-16 16L32 80c-8.8 0-16-7.2-16-16s7.2-16 16-16zM0 64C0 81.7 14.3 96 32 96l192 0c17.7 0 32-14.3 32-32s-14.3-32-32-32L32 32C14.3 32 0 46.3 0 64zm528 80c17.7 0 32 14.3 32 32l0 64c0 17.7-14.3 32-32 32L48 272c-17.7 0-32-14.3-32-32l0-64c0-17.7 14.3-32 32-32l480 0zM48 288l109.8 0 114.5 67.9-71.8 42.6c-11-9-25.1-14.4-40.5-14.4-35.3 0-64 28.7-64 64s28.7 64 64 64 64-28.7 64-64c0-14.1-4.5-27.1-12.3-37.7l76.3-45.2 76.3 45.2c-7.7 10.6-12.2 23.6-12.2 37.7 0 35.3 28.7 64 64 64s64-28.7 64-64-28.7-64-64-64c-15.4 0-29.4 5.4-40.5 14.4L303.7 355.9 418.2 288 528 288c26.5 0 48-21.5 48-48l0-64c0-26.5-21.5-48-48-48L48 128c-26.5 0-48 21.5-48 48l0 64c0 26.5 21.5 48 48 48zm240 58.6l-98.8-58.6 197.6 0-98.8 58.6zM160 400a48 48 0 1 1 0 96 48 48 0 1 1 0-96zm256 0a48 48 0 1 1 0 96 48 48 0 1 1 0-96z"/></svg>