<svg xmlns="http://www.w3.org/2000/svg" viewBox="0 0 384 512"><!--! Font Awesome Pro 7.0.0 by @fontawesome - https://fontawesome.com License - https://fontawesome.com/license (Commercial License) Copyright 2025 Fonticons, Inc. --><path fill="currentColor" d="M112 8l0 88 160 0 0-88c0-13.3-10.7-24-24-24L136-16c-13.3 0-24 10.7-24 24zM96 96L96 8c0-22.1 17.9-40 40-40l112 0c22.1 0 40 17.9 40 40l0 88 32 0c35.3 0 64 28.7 64 64l0 288c0 35.3-28.7 64-64 64l-8 0 0 32c0 4.4-3.6 8-8 8s-8-3.6-8-8l0-32-224 0 0 32c0 4.4-3.6 8-8 8s-8-3.6-8-8l0-32c0-.2 0-.3 0-.5-31.6-3.9-56-30.9-56-63.5L0 160c0-35.3 28.7-64 64-64l32 0zm184 16L64 112c-26.5 0-48 21.5-48 48l0 288c0 26.5 21.5 48 48 48l256 0c26.5 0 48-21.5 48-48l0-288c0-26.5-21.5-48-48-48l-40 0zM80 248c0-4.4 3.6-8 8-8l208 0c4.4 0 8 3.6 8 8s-3.6 8-8 8L88 256c-4.4 0-8-3.6-8-8zm0 112c0-4.4 3.6-8 8-8l208 0c4.4 0 8 3.6 8 8s-3.6 8-8 8L88 368c-4.4 0-8-3.6-8-8z"/></svg>