<svg xmlns="http://www.w3.org/2000/svg" viewBox="0 0 640 512"><!--! Font Awesome Pro 7.0.0 by @fontawesome - https://fontawesome.com License - https://fontawesome.com/license (Commercial License) Copyright 2025 Fonticons, Inc. --><path fill="currentColor" d="M424 4.9c-2.4-1-5.2-.9-7.4 .5L324.4 66.6c-2.7 1.8-6.2 1.8-8.8 0L223.4 5.4c-2.2-1.5-5-1.5-7.4-.5s-4.3 3-4.9 5.6L189.2 118.9c-.6 3.2-3.1 5.6-6.3 6.3L74.5 147.1c-2.6 .5-4.6 2.4-5.6 4.9s-.9 5.2 .5 7.4l61.2 92.2c1.8 2.7 1.8 6.2 0 8.8L69.4 352.6c-1.5 2.2-1.5 5-.5 7.4s3 4.3 5.6 4.9l108.4 21.9c3.2 .6 5.6 3.1 6.3 6.3l21.9 108.4c.5 2.6 2.4 4.6 4.9 5.6s5.2 .9 7.4-.5L272 474.3c.1 6.2 .7 12.2 1.7 18.1l-41.5 27.5c-7.4 4.9-16 4.6-22.4 2s-12.7-8.4-14.4-17.2L174.6 401.4 71.3 380.5c-8.8-1.8-14.6-8.1-17.2-14.4l0 0c-2.6-6.3-3-14.9 2-22.4l58.2-87.8-58.2-87.8c-4.9-7.4-4.6-16-2-22.4s8.4-12.6 17.2-14.4L174.6 110.6 195.4 7.3c1.8-8.8 8.1-14.6 14.4-17.2s14.9-3 22.4 2l0 0 87.8 58.2 87.8-58.2c7.4-4.9 16-4.6 22.4-2s12.6 8.4 14.4 17.2l20.9 103.2 103.2 20.9c8.8 1.8 14.6 8.1 17.2 14.4s3 14.9-2 22.4l-58.2 87.8 50.6 76.3c-9.5-7.7-20.2-14-31.6-18.8l-35.3-53.2c-1.8-2.7-1.8-6.2 0-8.8l61.2-92.2c1.5-2.2 1.5-5 .5-7.4s-3-4.3-5.6-4.9L457.1 125.2c-3.2-.6-5.6-3.1-6.3-6.3L428.9 10.5c-.5-2.6-2.4-4.6-4.9-5.6zM208 256a112 112 0 1 1 224 0 112 112 0 1 1 -224 0zm112 96a96 96 0 1 0 0-192 96 96 0 1 0 0 192zM433.3 419c-.5 2.6-2.3 4.7-4.7 5.7s-5.1 .8-7.4-.5c-8.5-5.2-18.5-8.3-29.3-8.3-30.9 0-56 25.1-56 56s25.1 56 56 56l184 0c26.5 0 48-21.5 48-48s-21.5-48-48-48c-2.4 0-4.8 .2-7.2 .5-2.2 .3-4.4-.3-6.1-1.6s-2.8-3.3-3.1-5.5c-3.3-32.3-30.5-57.4-63.7-57.4-30.9 0-56.7 21.9-62.7 51zM496 352c38.7 0 71 27.5 78.4 64 35.5-.9 65.6 28.5 65.6 64 0 35.3-28.7 64-64 64l-184 0c-39.8 0-72-32.2-72-72s32.2-72 72-72c10.1 0 19.7 2.1 28.4 5.8 10.8-31.3 40.6-53.8 75.6-53.8z"/></svg>