<svg xmlns="http://www.w3.org/2000/svg" viewBox="0 0 448 512"><!--! Font Awesome Pro 7.0.0 by @fontawesome - https://fontawesome.com License - https://fontawesome.com/license (Commercial License) Copyright 2025 Fonticons, Inc. --><path fill="currentColor" d="M384 48c26.5 0 48 21.5 48 48l0 80-416 0 0-80c0-26.5 21.5-48 48-48l320 0zM112 192l320 0 0 224c0 26.5-21.5 48-48 48L64 464c-26.5 0-48-21.5-48-48l0-224 80 0 0 152c0 22.1 17.9 40 40 40l80 0c4.4 0 8-3.6 8-8s-3.6-8-8-8l-80 0c-13.3 0-24-10.7-24-24l0-64c6.7 5 15 8 24 8l48 0c4.4 0 8-3.6 8-8s-3.6-8-8-8l-48 0c-13.3 0-24-10.7-24-24l0-56zM64 32C28.7 32 0 60.7 0 96L0 416c0 35.3 28.7 64 64 64l320 0c35.3 0 64-28.7 64-64l0-320c0-35.3-28.7-64-64-64L64 32zM256 280c0 4.4 3.6 8 8 8l80 0c4.4 0 8-3.6 8-8s-3.6-8-8-8l-80 0c-4.4 0-8 3.6-8 8zm32 96c0 4.4 3.6 8 8 8l48 0c4.4 0 8-3.6 8-8s-3.6-8-8-8l-48 0c-4.4 0-8 3.6-8 8z"/></svg>