<svg xmlns="http://www.w3.org/2000/svg" viewBox="0 0 576 512"><!--! Font Awesome Pro 7.0.0 by @fontawesome - https://fontawesome.com License - https://fontawesome.com/license (Commercial License) Copyright 2025 Fonticons, Inc. --><path fill="currentColor" d="M200 32l248 0c35.3 0 64 28.7 64 64l0 112.6c-5.3-.8-10.7-.8-16 0l0-32.6-288 0 0 288 32.6 0c-.8 5.3-.8 10.7 0 16L128 480c-35.3 0-64-28.7-64-64L64 96c0-35.3 28.7-64 64-64l72 0zM80 160l112 0 0-112-64 0c-26.5 0-48 21.5-48 48l0 64zm0 16l0 240c0 26.5 21.5 48 48 48l64 0 0-288-112 0zm416-16l0-64c0-26.5-21.5-48-48-48l-240 0 0 112 288 0zm13.7 98.3l48 48c3.1 3.1 3.1 8.2 0 11.3s-8.2 3.1-11.3 0L512 283.3 512 416c0 35.3-28.7 64-64 64l-132.7 0 34.3 34.3c3.1 3.1 3.1 8.2 0 11.3s-8.2 3.1-11.3 0l-48-48c-3.1-3.1-3.1-8.2 0-11.3l48-48c3.1-3.1 8.2-3.1 11.3 0s3.1 8.2 0 11.3L315.3 464 448 464c26.5 0 48-21.5 48-48l0-132.7-34.3 34.3c-3.1 3.1-8.2 3.1-11.3 0s-3.1-8.2 0-11.3l48-48c3.1-3.1 8.2-3.1 11.3 0z"/></svg>