<svg xmlns="http://www.w3.org/2000/svg" viewBox="0 0 448 512"><!--! Font Awesome Pro 7.0.0 by @fontawesome - https://fontawesome.com License - https://fontawesome.com/license (Commercial License) Copyright 2025 Fonticons, Inc. --><path fill="currentColor" d="M144 48l0 128 288 0 0-80c0-26.5-21.5-48-48-48L144 48zm-16 0L64 48C37.5 48 16 69.5 16 96l0 80 112 0 0-128zM16 192l0 128 112 0 0-128-112 0zm0 144l0 80c0 26.5 21.5 48 48 48l64 0 0-128-112 0zM144 464l240 0c26.5 0 48-21.5 48-48l0-80-288 0 0 128zM432 320l0-128-288 0 0 128 288 0zM0 96C0 60.7 28.7 32 64 32l320 0c35.3 0 64 28.7 64 64l0 320c0 35.3-28.7 64-64 64L64 480c-35.3 0-64-28.7-64-64L0 96z"/></svg>