<svg xmlns="http://www.w3.org/2000/svg" viewBox="0 0 448 512"><!--! Font Awesome Pro 7.0.0 by @fontawesome - https://fontawesome.com License - https://fontawesome.com/license (Commercial License) Copyright 2025 Fonticons, Inc. --><path fill="currentColor" d="M175.9 102.4c-5.2 9-7.9 19.3-7.9 29.7l0 3.9c0 30.9 25.1 56 56 56s56-25.1 56-56l0-3.9c0-10.4-2.7-20.7-7.9-29.7L224 18.2 175.9 102.4zM162 94.5L212 6.9c2.5-4.3 7-6.9 12-6.9s9.5 2.7 12 6.9l50 87.6c6.5 11.5 10 24.4 10 37.6l0 3.9c0 39.8-32.2 72-72 72s-72-32.2-72-72l0-3.9c0-13.2 3.4-26.2 10-37.6zM64 32l78.4 0-9.1 16-69.3 0C37.5 48 16 69.5 16 96l0 210c8.4-4.4 16.7-9.7 24.9-15.6 34.3-24.5 80.6-24.5 115 0 25.4 18.1 47.2 29.6 68.1 29.6s42.7-11.5 68.1-29.6c34.3-24.5 80.6-24.5 115 0 8.2 5.8 16.5 11.1 24.9 15.6l0-210c0-26.5-21.5-48-48-48l-69.3 0-9.1-16 78.4 0c35.3 0 64 28.7 64 64l0 320c0 35.3-28.7 64-64 64L64 480c-35.3 0-64-28.7-64-64L0 96C0 60.7 28.7 32 64 32zM16 323.8L16 416c0 26.5 21.5 48 48 48l320 0c26.5 0 48-21.5 48-48l0-92.2c-12-5.6-23.5-12.7-34.2-20.4-28.8-20.5-67.6-20.5-96.4 0-25.5 18.2-51 32.6-77.4 32.6s-51.9-14.4-77.4-32.6c-28.8-20.5-67.6-20.5-96.4 0l0 0C39.5 311.1 28 318.2 16 323.8z"/></svg>