<svg xmlns="http://www.w3.org/2000/svg" viewBox="0 0 512 512"><!--! Font Awesome Pro 7.0.0 by @fontawesome - https://fontawesome.com License - https://fontawesome.com/license (Commercial License) Copyright 2025 Fonticons, Inc. --><path fill="currentColor" d="M256 320c39.8 0 72 32.2 72 72l0 16c0 4.4-3.6 8-8 8s-8-3.6-8-8l0-16c0-30.9-25.1-56-56-56s-56 25.1-56 56l0 16c0 4.4-3.6 8-8 8s-8-3.6-8-8l0-16c0-39.8 32.2-72 72-72zm0-168c10.4 0 20.1 3.1 27.4 8.6s12.6 13.7 12.6 23.4-5.3 17.9-12.6 23.4-17 8.6-27.4 8.6-20.1-3.1-27.4-8.6-12.6-13.7-12.6-23.4 5.3-17.9 12.6-23.4 17-8.6 27.4-8.6zm0 16c-7.3 0-13.5 2.2-17.8 5.4s-6.2 7-6.2 10.6 1.9 7.4 6.2 10.6 10.5 5.4 17.8 5.4 13.5-2.2 17.8-5.4 6.2-7 6.2-10.6-1.9-7.4-6.2-10.6-10.5-5.4-17.8-5.4zm-48-24a16 16 0 1 1 0-32 16 16 0 1 1 0 32zm96 0a16 16 0 1 1 0-32 16 16 0 1 1 0 32zm56-144c35.3 0 64 28.7 64 64 0 24.1-13.4 45-33.1 55.9 .7 5.1 1.1 10.5 1.1 16.1 0 40.4-17.7 76.7-45.7 101.6 18.7-11.9 34.9-27.4 47.6-45.6 20.7-26.6 55.8-31 82.5-10.4 22.3 19.2 24.4 50.5 9.4 74.5-26 37.3-61 68-101.8 89l0 55 16.6 0c3.9-27.1 27.2-48 55.4-48 30.9 0 56 25.1 56 56l0 32c-1.8 40.2-31.9 69.9-71.6 72L71.6 512C31.9 509.9 1.9 480.2 0 440l0-32c0-30.9 25.1-56 56-56 28.2 0 51.5 20.9 55.4 48l16.6 0 0-55c-40.8-21-75.8-51.7-101.8-89-15-24-12.9-55.3 9.4-74.5 26.7-20.6 61.7-16.2 82.5 10.4 12.7 18.2 28.9 33.7 47.6 45.6-28-24.9-45.7-61.2-45.7-101.6 0-5.6 .4-10.9 1.1-16.1-19.7-10.9-33.1-31.8-33.1-55.9 0-35.3 28.7-64 64-64 25.4 0 47.3 14.9 57.6 36.3 14.6-2.9 30.2-4.3 46.4-4.3 16.2 0 31.9 1.4 46.4 4.3 10.3-21.4 32.2-36.3 57.6-36.3zM466 193.7c-18.3-14.2-45-12.4-58.9 7.4l0 0c-31.2 44.8-81.7 74.9-139.4 78.5l-23.3 0C186.7 276 136.2 245.9 105 201.1l0 0c-13.9-19.9-40.6-21.7-58.9-7.4-16 13.8-17.3 36-6.7 53.2 25.4 36.5 59.9 66.2 100.2 86.1 2.7 1.3 4.5 4.1 4.5 7.2l0 67.8c0 4.4-3.6 8-8 8l-32 0c-4.4 0-8-3.6-8-8 0-22.1-17.9-40-40-40-22.6 0-38.8 18.3-40 40l0 32c1.5 31.8 24.9 54.3 56.4 56l367.2 0c31.5-1.7 54.9-24.2 56.4-56l0-32c-1.2-21.7-17.4-40-40-40-22.1 0-40 17.9-40 40 0 4.4-3.6 8-8 8l-32 0c-4.4 0-8-3.6-8-8l0-67.8c0-3 1.7-5.8 4.5-7.2 40.3-19.8 74.8-49.6 100.2-86.1 10.6-17.2 9.3-39.5-6.7-53.2zM360.1 16c-20.9 0-38.7 13.4-45.3 32.1-1.4 3.8-5.4 6-9.4 5.1-14.9-3.5-31.7-5.2-49.4-5.2s-34.5 1.7-49.4 5.2c-4 .9-8-1.3-9.4-5.1-6.6-18.7-24.4-32.1-45.2-32.1-26.5 0-48 21.5-48 48 0 19.7 11.9 36.7 29 44.1 3.4 1.5 5.4 5.1 4.7 8.8-1.1 5.9-1.7 12.3-1.7 19.1 0 66.3 53.7 120 120 120l0 0c66.3 0 120-53.7 120-120 0-6.9-.6-13.2-1.7-19.1-.7-3.7 1.3-7.3 4.7-8.8 17.1-7.4 29-24.3 29-44.1 0-26.5-21.5-48-48-48z"/></svg>