<svg xmlns="http://www.w3.org/2000/svg" viewBox="0 0 512 512"><!--! Font Awesome Pro 7.0.0 by @fontawesome - https://fontawesome.com License - https://fontawesome.com/license (Commercial License) Copyright 2025 Fonticons, Inc. --><path fill="currentColor" d="M448 48c26.5 0 48 21.5 48 48l0 96c0 23.6-17 43.2-39.4 47.2 4.7-6.6 7.4-14.6 7.4-23.2l0-24c0-30.9-25.1-56-56-56-16.9 0-32.1 7.5-42.3 19.3-7.2-25-30.3-43.3-57.7-43.3-22.2 0-41.6 12.1-52 30-10.4-18-29.8-30-52-30-27.4 0-50.4 18.3-57.7 43.3-10.3-11.9-25.4-19.3-42.3-19.3-30.9 0-56 25.1-56 56l0 24c0 8.7 2.8 16.7 7.4 23.2-22.4-4-39.4-23.7-39.4-47.2l0-96c0-26.5 21.5-48 48-48l384 0zM144 216c0 13.3-10.7 24-24 24l-32 0c-13.3 0-24-10.7-24-24l0-24c0-22.1 17.9-40 40-40s40 17.9 40 40l0 24zm104 0c0 13.3-10.7 24-24 24l-40 0c-13.3 0-24-10.7-24-24l0-44c0-24.3 19.7-44 44-44s44 19.7 44 44l0 44zm104 0c0 13.3-10.7 24-24 24l-40 0c-13.3 0-24-10.7-24-24l0-44c0-24.3 19.7-44 44-44s44 19.7 44 44l0 44zm96 0c0 13.3-10.7 24-24 24l-32 0c-13.3 0-24-10.7-24-24l0-24c0-22.1 17.9-40 40-40s40 17.9 40 40l0 24zM64 256l384 0c35.3 0 64-28.7 64-64l0-96c0-35.3-28.7-64-64-64L64 32C28.7 32 0 60.7 0 96l0 96c0 35.3 28.7 64 64 64zm40 160c18 0 34-8.5 44.3-21.7 8.8 22.1 30.5 37.7 55.7 37.7 22.2 0 41.6-12.1 52-30 10.4 18 29.8 30 52 30 25.3 0 46.9-15.6 55.7-37.7 10.2 13.2 26.3 21.7 44.3 21.7 30.9 0 56-25.1 56-56l0-24c0-5.1-1.2-10-3.4-14.3 20.4 5.5 35.4 24.2 35.4 46.3l0 80c0 26.5-21.5 48-48 48L64 496c-26.5 0-48-21.5-48-48l0-80c0-22.1 15-40.8 35.4-46.3-2.2 4.3-3.4 9.2-3.4 14.3l0 24c0 30.9 25.1 56 56 56zM80 320l48 0c8.8 0 16 7.2 16 16l0 24c0 22.1-17.9 40-40 40s-40-17.9-40-40l0-24c0-8.8 7.2-16 16-16zm352 0c8.8 0 16 7.2 16 16l0 24c0 22.1-17.9 40-40 40s-40-17.9-40-40l0-24c0-8.8 7.2-16 16-16l48 0zm-96 0c8.8 0 16 7.2 16 16l0 36c0 24.3-19.7 44-44 44s-44-19.7-44-44l0-36c0-8.8 7.2-16 16-16l56 0zm-104 0c8.8 0 16 7.2 16 16l0 36c0 24.3-19.7 44-44 44s-44-19.7-44-44l0-36c0-8.8 7.2-16 16-16l56 0zm200-16L64 304c-35.3 0-64 28.7-64 64l0 80c0 35.3 28.7 64 64 64l384 0c35.3 0 64-28.7 64-64l0-80c0-35.3-28.7-64-64-64l-16 0z"/></svg>