<svg xmlns="http://www.w3.org/2000/svg" viewBox="0 0 576 512"><!--! Font Awesome Pro 7.0.0 by @fontawesome - https://fontawesome.com License - https://fontawesome.com/license (Commercial License) Copyright 2025 Fonticons, Inc. --><path fill="currentColor" d="M442.3 336l2 16 95.6 0c19.3 0 34.2-16.9 31.7-36l-23.3-184c-1.2-9.3-6.3-17.6-14.2-22.7L385.8 11.6c-10.7-7-24.5-7-35.2 0L202.2 109.2c-4.2 2.8-7.6 6.4-10.1 10.7 8.1-1.7 16.5-2.1 24.7-1.2L359.4 24.9c5.3-3.5 12.3-3.5 17.6 0l148.4 97.7c3.9 2.6 6.5 6.7 7.1 11.4l23.3 184c1.2 9.6-6.2 18-15.9 18l-97.6 0zM20.6 478L43.9 294c.6-4.6 3.2-8.8 7.1-11.4l149.2-98.2 0 311.6-163.7 0c-9.6 0-17.1-8.5-15.9-18zM216.2 317.6l0-133.2 149.2 98.2c3.9 2.6 6.5 6.7 7.1 11.4l23.3 184c1.2 9.6-6.2 18-15.9 18l-47.4 0-116.3-178.4zm0 29.3l97.2 149.1-97.2 0 0-149.1zM195 168.7L42.2 269.2c-7.8 5.1-13 13.4-14.2 22.7L4.8 476c-2.4 19.1 12.5 36 31.7 36l343.4 0c19.3 0 34.2-16.9 31.7-36l-23.3-184c-1.2-9.3-6.3-17.6-14.2-22.7L221.4 168.7c-8-5.3-18.4-5.3-26.4 0z"/></svg>