<svg xmlns="http://www.w3.org/2000/svg" viewBox="0 0 128 512"><!--! Font Awesome Pro 7.0.0 by @fontawesome - https://fontawesome.com License - https://fontawesome.com/license (Commercial License) Copyright 2025 Fonticons, Inc. --><path fill="currentColor" d="M16 96c0-26.5 21.5-48 48-48s48 21.5 48 48l0 7.9c0 4.2-.5 8.3-1.4 12.4L77.7 261c-1.5 6.4-7.1 11-13.7 11s-12.3-4.5-13.7-11L17.4 116.3c-.9-4.1-1.4-8.2-1.4-12.4L16 96zM0 96l0 7.9c0 5.4 .6 10.7 1.8 15.9L34.7 264.6C37.8 278.3 50 288 64 288s26.2-9.7 29.3-23.4l32.9-144.7c1.2-5.2 1.8-10.6 1.8-15.9l0-7.9c0-35.3-28.7-64-64-64S0 60.7 0 96z"/></svg>