<svg xmlns="http://www.w3.org/2000/svg" viewBox="0 0 576 512"><!--! Font Awesome Pro 7.0.0 by @fontawesome - https://fontawesome.com License - https://fontawesome.com/license (Commercial License) Copyright 2025 Fonticons, Inc. --><path fill="currentColor" d="M16 128c0-26.5 21.5-48 48-48l448 0c26.5 0 48 21.5 48 48l0 66c-27.6 7.1-48 32.2-48 62s20.4 54.9 48 62l0 66c0 26.5-21.5 48-48 48L64 432c-26.5 0-48-21.5-48-48l0-256zM64 64C28.7 64 0 92.7 0 128L0 384c0 35.3 28.7 64 64 64l448 0c35.3 0 64-28.7 64-64l0-72.6c0-4-2.9-7.4-6.9-7.9-23.3-3.3-41.1-23.3-41.1-47.5s17.9-44.2 41.1-47.5c3.9-.6 6.9-3.9 6.9-7.9l0-72.6c0-35.3-28.7-64-64-64L64 64zM416 176a16 16 0 1 0 0-32 16 16 0 1 0 0 32zm0 96a16 16 0 1 0 0-32 16 16 0 1 0 0 32zm16 80a16 16 0 1 0 -32 0 16 16 0 1 0 32 0z"/></svg>