<svg xmlns="http://www.w3.org/2000/svg" viewBox="0 0 320 512"><!--! Font Awesome Pro 7.0.0 by @fontawesome - https://fontawesome.com License - https://fontawesome.com/license (Commercial License) Copyright 2025 Fonticons, Inc. --><path fill="currentColor" d="M48 16C30.3 16 16 30.3 16 48l0 64 288 0 0-64c0-17.7-14.3-32-32-32L48 16zM16 464l288 0 0-128-8 0c-22.1 0-40-17.9-40-40l0-48c0-22.1 17.9-40 40-40l8 0 0-80-288 0 0 336zM304 320l0-96-8 0c-13.3 0-24 10.7-24 24l0 48c0 13.3 10.7 24 24 24l8 0zm16 16l0 168c0 4.4-3.6 8-8 8s-8-3.6-8-8l0-24-288 0 0 24c0 4.4-3.6 8-8 8s-8-3.6-8-8L0 48C0 21.5 21.5 0 48 0L272 0c26.5 0 48 21.5 48 48l0 288z"/></svg>