<svg xmlns="http://www.w3.org/2000/svg" viewBox="0 0 512 512"><!--! Font Awesome Pro 7.0.0 by @fontawesome - https://fontawesome.com License - https://fontawesome.com/license (Commercial License) Copyright 2025 Fonticons, Inc. --><path fill="currentColor" d="M56 16C33.9 16 16 33.9 16 56l0 40 192 0 0-40c0-22.1-17.9-40-40-40L56 16zm152 96l-192 0 0 336 192 0 0-120-24 0c-13.3 0-24-10.7-24-24l0-64c0-13.3 10.7-24 24-24l24 0 0-104zM184 312l24 0 0-80-24 0c-4.4 0-8 3.6-8 8l0 64c0 4.4 3.6 8 8 8zM224 56l0 448c0 4.4-3.6 8-8 8s-8-3.6-8-8l0-40-192 0 0 40c0 4.4-3.6 8-8 8s-8-3.6-8-8L0 56C0 25.1 25.1 0 56 0L168 0c30.9 0 56 25.1 56 56zM344 16c-22.1 0-40 17.9-40 40l0 40 192 0 0-40c0-22.1-17.9-40-40-40L344 16zm152 96l-192 0 0 336 192 0 0-120-24 0c-13.3 0-24-10.7-24-24l0-64c0-13.3 10.7-24 24-24l24 0 0-104zM472 312l24 0 0-80-24 0c-4.4 0-8 3.6-8 8l0 64c0 4.4 3.6 8 8 8zM512 56l0 448c0 4.4-3.6 8-8 8s-8-3.6-8-8l0-40-192 0 0 40c0 4.4-3.6 8-8 8s-8-3.6-8-8l0-448c0-30.9 25.1-56 56-56L456 0c30.9 0 56 25.1 56 56z"/></svg>