<svg xmlns="http://www.w3.org/2000/svg" viewBox="0 0 512 512"><!--! Font Awesome Pro 7.0.0 by @fontawesome - https://fontawesome.com License - https://fontawesome.com/license (Commercial License) Copyright 2025 Fonticons, Inc. --><path fill="currentColor" d="M248.2 16l15.6 0c6.5 0 12.4 4 14.8 10l60.5 150-166.2 0 60.5-150c2.4-6.1 8.3-10 14.8-10zm97.4 176l58.1 144-295.3 0 58.1-144 179.1 0zm64.5 160l58.1 144-424.3 0 58.1-144 308.2 0zM218.5 20L26.6 496 8 496c-4.4 0-8 3.6-8 8s3.6 8 8 8l496 0c4.4 0 8-3.6 8-8s-3.6-8-8-8l-18.6 0-191.9-476C288.6 7.9 276.9 0 263.8 0L248.2 0c-13.1 0-24.8 7.9-29.7 20z"/></svg>