<svg xmlns="http://www.w3.org/2000/svg" viewBox="0 0 320 512"><!--! Font Awesome Pro 7.0.0 by @fontawesome - https://fontawesome.com License - https://fontawesome.com/license (Commercial License) Copyright 2025 Fonticons, Inc. --><path fill="currentColor" d="M64-16C37.5-16 16 5.5 16 32l0 352c0 79.5 64.5 144 144 144s144-64.5 144-144l0-352c0-26.5-21.5-48-48-48L64-16zM0 32C0-3.3 28.7-32 64-32l192 0c35.3 0 64 28.7 64 64l0 352c0 88.4-71.6 160-160 160S0 472.4 0 384L0 32zM120 400c0 22.1 17.9 40 40 40s40-17.9 40-40-17.9-40-40-40-40 17.9-40 40zm-16 0c0-30.9 25.1-56 56-56s56 25.1 56 56-25.1 56-56 56-56-25.1-56-56zm56-184a40 40 0 1 0 0 80 40 40 0 1 0 0-80zm0 96a56 56 0 1 1 0-112 56 56 0 1 1 0 112zM120 112a40 40 0 1 0 80 0 40 40 0 1 0 -80 0zm96 0a56 56 0 1 1 -112 0 56 56 0 1 1 112 0z"/></svg>