<svg xmlns="http://www.w3.org/2000/svg" viewBox="0 0 384 512"><!--! Font Awesome Pro 7.0.0 by @fontawesome - https://fontawesome.com License - https://fontawesome.com/license (Commercial License) Copyright 2025 Fonticons, Inc. --><path fill="currentColor" d="M288 16c44.2 0 80 35.8 80 80l0 256c0 44.2-35.8 80-80 80L96 432c-44.2 0-80-35.8-80-80L16 96c0-44.2 35.8-80 80-80l192 0zM96 0C43 0 0 43 0 96L0 352c0 45.2 31.2 83 73.2 93.3L1.9 530.9c-2.8 3.4-2.4 8.4 1 11.3s8.4 2.4 11.3-1l77.7-93.2c1.4 .1 2.8 .1 4.2 .1l192 0c1.4 0 2.8 0 4.2-.1l77.7 93.2c2.8 3.4 7.9 3.9 11.3 1s3.9-7.9 1-11.3l-71.3-85.6C352.8 435 384 397.2 384 352l0-256c0-53-43-96-96-96L96 0zm48 336a32 32 0 1 0 -64 0 32 32 0 1 0 64 0zm-32-16a16 16 0 1 1 0 32 16 16 0 1 1 0-32zm160 48a32 32 0 1 0 0-64 32 32 0 1 0 0 64zm-16-32a16 16 0 1 1 32 0 16 16 0 1 1 -32 0zM184 80l0 160-88 0c-8.8 0-16-7.2-16-16L80 96c0-8.8 7.2-16 16-16l88 0zm16 0l88 0c8.8 0 16 7.2 16 16l0 128c0 8.8-7.2 16-16 16l-88 0 0-160zM96 64C78.3 64 64 78.3 64 96l0 128c0 17.7 14.3 32 32 32l192 0c17.7 0 32-14.3 32-32l0-128c0-17.7-14.3-32-32-32L96 64z"/></svg>