<svg xmlns="http://www.w3.org/2000/svg" viewBox="0 0 512 512"><!--! Font Awesome Pro 7.0.0 by @fontawesome - https://fontawesome.com License - https://fontawesome.com/license (Commercial License) Copyright 2025 Fonticons, Inc. --><path fill="currentColor" d="M161.7 32.2c4.3 1 7 5.2 6.1 9.5l-17.4 78.3 211.2 0-17.4-78.3c-1-4.3 1.8-8.6 6.1-9.5s8.6 1.8 9.5 6.1l18.2 81.7 62 0c4.4 0 8 3.6 8 8s-3.6 8-8 8l-58.5 0 24.9 112 65.6 0c4.4 0 8 3.6 8 8s-3.6 8-8 8l-62 0 24.9 112 69.1 0c4.4 0 8 3.6 8 8s-3.6 8-8 8l-65.6 0 17.4 78.3c1 4.3-1.8 8.6-6.1 9.5s-8.6-1.8-9.5-6.1L422 392 90 392 71.8 473.7c-1 4.3-5.2 7-9.5 6.1s-7-5.2-6.1-9.5L73.6 392 8 392c-4.4 0-8-3.6-8-8s3.6-8 8-8l69.1 0 24.9-112-62 0c-4.4 0-8-3.6-8-8s3.6-8 8-8l65.6 0 24.9-112-58.5 0c-4.4 0-8-3.6-8-8s3.6-8 8-8l62 0 18.2-81.7c1-4.3 5.2-7 9.5-6.1zM146.9 136l-24.9 112 268.1 0-24.9-112-218.3 0zM393.6 264l-275.2 0-24.9 112 324.9 0-24.9-112z"/></svg>