<svg xmlns="http://www.w3.org/2000/svg" viewBox="0 0 576 512"><!--! Font Awesome Pro 7.0.0 by @fontawesome - https://fontawesome.com License - https://fontawesome.com/license (Commercial License) Copyright 2025 Fonticons, Inc. --><path fill="currentColor" d="M536 8c0-4.4-3.6-8-8-8s-8 3.6-8 8l0 32-32 0c-4.4 0-8 3.6-8 8s3.6 8 8 8l32 0 0 32c0 4.4 3.6 8 8 8s8-3.6 8-8l0-32 32 0c4.4 0 8-3.6 8-8s-3.6-8-8-8l-32 0 0-32zM56 136c0-4.4-3.6-8-8-8s-8 3.6-8 8l0 32-32 0c-4.4 0-8 3.6-8 8s3.6 8 8 8l32 0 0 32c0 4.4 3.6 8 8 8s8-3.6 8-8l0-32 32 0c4.4 0 8-3.6 8-8s-3.6-8-8-8l-32 0 0-32zM248 8c0 4.4 3.6 8 8 8l64 0c4.4 0 8-3.6 8-8s-3.6-8-8-8L256 0c-4.4 0-8 3.6-8 8zM224 136c0 4.4 3.6 8 8 8l112 0c4.4 0 8-3.6 8-8s-3.6-8-8-8l-112 0c-4.4 0-8 3.6-8 8zM120 264c0 4.4 3.6 8 8 8l320 0c4.4 0 8-3.6 8-8s-3.6-8-8-8l-320 0c-4.4 0-8 3.6-8 8zm72 128c0 4.4 3.6 8 8 8l176 0c4.4 0 8-3.6 8-8s-3.6-8-8-8l-176 0c-4.4 0-8 3.6-8 8zM128 536c0 4.4 3.6 8 8 8l304 0c4.4 0 8-3.6 8-8s-3.6-8-8-8l-304 0c-4.4 0-8 3.6-8 8z"/></svg>