<svg xmlns="http://www.w3.org/2000/svg" viewBox="0 0 576 512"><!--! Font Awesome Pro 7.0.0 by @fontawesome - https://fontawesome.com License - https://fontawesome.com/license (Commercial License) Copyright 2025 Fonticons, Inc. --><path fill="currentColor" d="M288 64a40 40 0 1 0 0-80 40 40 0 1 0 0 80zm0-96a56 56 0 1 1 0 112 56 56 0 1 1 0-112zm0 160c-37.2 0-72.1 18.4-93.1 49.1L130.8 271c-5 7.3-3.1 17.3 4.2 22.2s17.3 3.1 22.2-4.2l52.2-76.4c2-2.9 5.6-4.2 9-3.1s5.6 4.1 5.6 7.6l0 262.8-16 0 0-236.9-37.6 55c-10 14.6-29.9 18.3-44.5 8.4s-18.3-29.9-8.4-44.5l64.1-93.8C205.7 133 245.5 112 288 112s82.3 21 106.3 56.1l64.1 93.8c10 14.6 6.2 34.5-8.4 44.5s-34.5 6.2-44.5-8.4l-37.6-55 0 236.9-16 0 0-262.8c0-3.5 2.3-6.6 5.6-7.6s7 .2 9 3.1L418.8 289c5 7.3 14.9 9.2 22.2 4.2s9.2-14.9 4.2-22.2l-64.1-93.8c-21-30.8-55.9-49.1-93.1-49.1zm32 352l-16 0 0-112c0-8.8-7.2-16-16-16s-16 7.2-16 16l0 112-16 0 0-112c0-17.7 14.3-32 32-32s32 14.3 32 32l0 112zm16 48l104 0c4.4 0 8 3.6 8 8s-3.6 8-8 8l-304 0c-4.4 0-8-3.6-8-8s3.6-8 8-8l200 0zM536 8l0 32 32 0c4.4 0 8 3.6 8 8s-3.6 8-8 8l-32 0 0 32c0 4.4-3.6 8-8 8s-8-3.6-8-8l0-32-32 0c-4.4 0-8-3.6-8-8s3.6-8 8-8l32 0 0-32c0-4.4 3.6-8 8-8s8 3.6 8 8zM56 72l0 32 32 0c4.4 0 8 3.6 8 8s-3.6 8-8 8l-32 0 0 32c0 4.4-3.6 8-8 8s-8-3.6-8-8l0-32-32 0c-4.4 0-8-3.6-8-8s3.6-8 8-8l32 0 0-32c0-4.4 3.6-8 8-8s8 3.6 8 8z"/></svg>