<svg xmlns="http://www.w3.org/2000/svg" viewBox="0 0 576 512"><!--! Font Awesome Pro 7.0.0 by @fontawesome - https://fontawesome.com License - https://fontawesome.com/license (Commercial License) Copyright 2025 Fonticons, Inc. --><path fill="currentColor" d="M205.7 0c-9.8 0-18.6 6-22.3 15.1L163.8 64 348.2 64 328.6 15.1C325 6 316.1 0 306.3 0L205.7 0zM168.5 9.1C174.6-6 189.3-16 205.7-16l100.7 0c16.4 0 31.1 10 37.1 25.1L365.4 64 472 64c4.4 0 8 3.6 8 8s-3.6 8-8 8L40 80c-4.4 0-8-3.6-8-8s3.6-8 8-8l106.6 0 21.9-54.9zM83.6 452.7l-24.1-324.7 16 0 24 323.5c1.9 25.1 22.7 44.5 47.9 44.5l118.3 0c3.2 5.5 6.6 10.9 10.3 16l-128.6 0c-33.5 0-61.3-25.9-63.8-59.3zM432 208l-1.5 0 5.9-80 16 0-6 80.5c-4.8-.4-9.6-.5-14.5-.5zm0 320a128 128 0 1 0 0-256 128 128 0 1 0 0 256zm0-272a144 144 0 1 1 0 288 144 144 0 1 1 0-288zm0 64c4.4 0 8 3.6 8 8l0 64 48 0c4.4 0 8 3.6 8 8s-3.6 8-8 8l-56 0c-4.4 0-8-3.6-8-8l0-72c0-4.4 3.6-8 8-8z"/></svg>