<svg xmlns="http://www.w3.org/2000/svg" viewBox="0 0 512 512"><!--! Font Awesome Pro 7.0.0 by @fontawesome - https://fontawesome.com License - https://fontawesome.com/license (Commercial License) Copyright 2025 Fonticons, Inc. --><path fill="currentColor" d="M384 48l0 216-96 0 0-40c0-17.7-14.3-32-32-32s-32 14.3-32 32l0 40-96 0 0-216 256 0zm16 1.1c54.3 7.8 96 54.4 96 110.9l0 104-96 0 0-214.9zM496 280l0 136c0 26.5-21.5 48-48 48l-48 0 0-184 96 0zM384 464l-256 0 0-184 96 0 0 40c0 17.7 14.3 32 32 32s32-14.3 32-32l0-40 96 0 0 184zm-272 0l-48 0c-26.5 0-48-21.5-48-48l0-136 96 0 0 184zM16 264l0-104c0-56.4 41.7-103.1 96-110.9l0 214.9-96 0zM128 32C57.3 32 0 89.3 0 160L0 416c0 35.3 28.7 64 64 64l384 0c35.3 0 64-28.7 64-64l0-256c0-70.7-57.3-128-128-128L128 32zM272 320c0 8.8-7.2 16-16 16s-16-7.2-16-16l0-96c0-8.8 7.2-16 16-16s16 7.2 16 16l0 96z"/></svg>