<svg xmlns="http://www.w3.org/2000/svg" viewBox="0 0 512 512"><!--! Font Awesome Pro 7.1.0 by @fontawesome - https://fontawesome.com License - https://fontawesome.com/license (Commercial License) Copyright 2025 Fonticons, Inc. --><path fill="currentColor" d="M256.5 0c14.7 0 28.2 8.1 35.2 21l216 400c6.7 12.4 6.4 27.4-.8 39.5S486.6 480 472.5 480l-432 0c-14.1 0-27.1-7.4-34.3-19.5s-7.5-27.1-.8-39.5l216-400c7-12.9 20.5-21 35.2-21zm0 17.6c-8.2 0-15.8 4.5-19.7 11.8l-216 400c-3.7 6.9-3.6 15.4 .5 22.1s11.4 10.9 19.2 10.9l432 0c7.9 0 15.2-4.2 19.2-10.9s4.2-15.2 .5-22.1l-216-400c-3.9-7.2-11.5-11.7-19.7-11.8zm0 390.4a16 16 0 1 1 0-32 16 16 0 1 1 0 32zm2.9-239.7c6.6 1.4 11.5 7.4 11.2 14.4l-6.1 145.6c-.2 4.3-3.7 7.7-8 7.7s-7.8-3.4-8-7.7l-6.1-145.6c-.3-8 6.1-14.7 14.1-14.7l2.9 .3z"/></svg>