<svg xmlns="http://www.w3.org/2000/svg" viewBox="0 0 576 512"><!--! Font Awesome Pro 7.0.0 by @fontawesome - https://fontawesome.com License - https://fontawesome.com/license (Commercial License) Copyright 2025 Fonticons, Inc. --><path fill="currentColor" d="M403.4 74.5l58.7 117.5-222.1 0 0-144 120.4 0c18.2 0 34.8 10.3 42.9 26.5zM224 48l0 144-202.3 0c.6-1.6 1.3-3.2 2.1-4.7L77.1 75.4C85 58.6 101.9 48 120.4 48L224 48zM472 208l40 0c26.5 0 48 21.5 48 48l0 64c0 22.3-15.2 41-35.8 46.4-11-36.1-44.5-62.4-84.2-62.4-40.3 0-74.2 27.1-84.7 64l-134.6 0c-10.4-36.9-44.4-64-84.7-64-39.7 0-73.3 26.3-84.2 62.4-20.6-5.4-35.8-24.1-35.8-46.4l0-98.3c0-4.6 .4-9.2 1.2-13.7L472 208zm55.5 174.1C555.3 375.2 576 350 576 320l0-64c0-35.3-28.7-64-64-64l-32 0-62.3-124.6C406.8 45.7 384.7 32 360.4 32l-240 0C95.7 32 73.2 46.2 62.6 68.5L9.3 180.4C3.2 193.3 0 207.4 0 221.7L0 320c0 30 20.7 55.2 48.5 62.1-.4 3.2-.5 6.5-.5 9.9 0 48.6 39.4 88 88 88s88-39.4 88-88c0-2.7-.1-5.4-.4-8l128.7 0c-.2 2.6-.4 5.3-.4 8 0 48.6 39.4 88 88 88s88-39.4 88-88c0-3.3-.2-6.6-.5-9.9zM64 392a72 72 0 1 1 144 0 72 72 0 1 1 -144 0zm376-72a72 72 0 1 1 0 144 72 72 0 1 1 0-144z"/></svg>