<svg xmlns="http://www.w3.org/2000/svg" viewBox="0 0 576 512"><!--! Font Awesome Pro 7.0.0 by @fontawesome - https://fontawesome.com License - https://fontawesome.com/license (Commercial License) Copyright 2025 Fonticons, Inc. --><path fill="currentColor" d="M320 96c0-35.3 28.7-64 64-64l192 0 0 16-192 0c-26.5 0-48 21.5-48 48l0 304 67.3 0c10.4-36.9 44.4-64 84.7-64 48.6 0 88 39.4 88 88s-39.4 88-88 88-88-39.4-88-88c0-2.7 .1-5.4 .4-8l-71.2 0-318.9 95.7c-4.2 1.3-8.7-1.1-10-5.4s1.1-8.7 5.4-10L320 402 320 96zM488 496a72 72 0 1 0 0-144 72 72 0 1 0 0 144z"/></svg>