<svg xmlns="http://www.w3.org/2000/svg" viewBox="0 0 640 512"><!--! Font Awesome Pro 7.0.0 by @fontawesome - https://fontawesome.com License - https://fontawesome.com/license (Commercial License) Copyright 2025 Fonticons, Inc. --><path fill="currentColor" d="M48 0C21.5 0 0 21.5 0 48L0 240c0 26.5 21.5 48 48 48l288 0c26.5 0 48-21.5 48-48l0-192c0-26.5-21.5-48-48-48L48 0zM16 48c0-17.7 14.3-32 32-32l288 0c17.7 0 32 14.3 32 32l0 192c0 17.7-14.3 32-32 32L48 272c-17.7 0-32-14.3-32-32L16 48zM96 64c-4.4 0-8 3.6-8 8l0 144c0 4.4 3.6 8 8 8s8-3.6 8-8l0-144c0-4.4-3.6-8-8-8zm96 0c-4.4 0-8 3.6-8 8l0 144c0 4.4 3.6 8 8 8s8-3.6 8-8l0-144c0-4.4-3.6-8-8-8zm96 0c-4.4 0-8 3.6-8 8l0 144c0 4.4 3.6 8 8 8s8-3.6 8-8l0-144c0-4.4-3.6-8-8-8zm208 64c-17.7 0-32 14.3-32 32l0 185.6c-28.5 14.6-48 44.2-48 78.4 0 2.7 .1 5.4 .4 8l-80.7 0c.2-2.6 .4-5.3 .4-8 0-48.6-39.4-88-88-88-35.5 0-66.1 21-80 51.3-13.9-30.3-44.5-51.3-80-51.3-48.6 0-88 39.4-88 88s39.4 88 88 88c35.5 0 66.1-21 80-51.3 13.9 30.3 44.5 51.3 80 51.3 40.3 0 74.2-27.1 84.7-64l86.6 0c10.4 36.9 44.4 64 84.7 64 40.8 0 75.1-27.7 85.1-65.3 29.1-6 50.9-31.8 50.9-62.7l0-149.5c0-19.1-7.6-37.4-21.1-50.9l-34.5-34.5c-13.5-13.5-31.8-21.1-50.9-21.1L496 128zm95.8 301.3c.1-1.8 .2-3.5 .2-5.3 0-48.6-39.4-88-88-88-8.3 0-16.4 1.2-24 3.3l0-67.3 144 0 0 112c0 21-13.4 38.8-32.2 45.3zM624 234.5l0 21.5-144 0 0-96c0-8.8 7.2-16 16-16l37.5 0c14.9 0 29.1 5.9 39.6 16.4l34.5 34.5c10.5 10.5 16.4 24.7 16.4 39.6zM16 424a72 72 0 1 1 144 0 72 72 0 1 1 -144 0zm232-72a72 72 0 1 1 0 144 72 72 0 1 1 0-144zm184 72a72 72 0 1 1 144 0 72 72 0 1 1 -144 0z"/></svg>