<svg xmlns="http://www.w3.org/2000/svg" viewBox="0 0 576 512"><!--! Font Awesome Pro 7.0.0 by @fontawesome - https://fontawesome.com License - https://fontawesome.com/license (Commercial License) Copyright 2025 Fonticons, Inc. --><path fill="currentColor" d="M160.4 512c-8.1 0-16.8-3.6-22.6-9.3l-112-112C5 369.8 21.8 337.9 48.5 336l48 0 0-128c0-114.9 93.1-208 208-208s208 93.1 208 208l0 208c-.8 17.4-13.9 32-32 32l-64 0c-17.4-.8-32-13.9-32-32l0-208c0-44.2-35.8-80-80-80s-80 35.8-80 80l0 128 48 0c12.9 0 24.6 7.8 29.6 19.7 4.9 11.9 2.2 25.7-6.9 34.9l-112 112c-5.8 5.8-14.6 9.4-22.6 9.3zm0-16c4.1 0 7.5-1.6 11.7-5.1L283.7 379.3c10-10 2.8-27.3-11.3-27.3l-56 0c-4.4 0-8-3.6-8-8l0-136c0-53 43-96 96-96s96 43 96 96l0 208c0 9.4 7.4 15.2 16 16l64 0c9.4 0 15.2-7.4 16-16l0-208c0-106-86-192-192-192s-192 86-192 192l0 136c0 4.2-3.8 8-8 8l-56 0c-13.3 1-21.7 16.9-11.3 27.3L148.9 491c3.6 2.9 7.1 4.5 11.6 5z"/></svg>