<svg xmlns="http://www.w3.org/2000/svg" viewBox="0 0 448 512"><!--! Font Awesome Pro 7.0.0 by @fontawesome - https://fontawesome.com License - https://fontawesome.com/license (Commercial License) Copyright 2025 Fonticons, Inc. --><path fill="currentColor" d="M56.2 80c-4.4 0-8 3.6-8 8l0 289.4c0 7.1 8.6 10.7 13.7 5.7L162.6 282.3c1.5-1.5 3.6-2.4 5.7-2.3s4.2 .9 5.7 2.5L327.4 442.8c9.3 9.7 24.8 9.9 34.3 .4L412 393c9.4-9.4 9.4-24.6 0-33.9L250.6 197.7c-3.1-3.1-3.1-8.2 0-11.3l92.7-92.7c5-5 1.5-13.7-5.7-13.7L56.2 80zm-24 8c0-13.3 10.7-24 24-24l281.4 0c21.4 0 32.1 25.9 17 41l-87 87 155.7 155.7c15.6 15.6 15.6 40.9 0 56.6L373 454.5c-15.9 15.9-41.7 15.6-57.2-.6L168.1 299.4 73.2 394.3c-15.1 15.1-41 4.4-41-17L32.2 88z"/></svg>