<svg xmlns="http://www.w3.org/2000/svg" viewBox="0 0 512 512"><!--! Font Awesome Pro 7.0.0 by @fontawesome - https://fontawesome.com License - https://fontawesome.com/license (Commercial License) Copyright 2025 Fonticons, Inc. --><path fill="currentColor" d="M306.4 29.7l176.1 176 0 0c2.3 2.3 5.7 3 8.7 1.7s4.9-4.2 4.9-7.4l0-176c0-4.4-3.6-8-8-8L312.1 16c-3.2 0-6.2 1.9-7.4 4.9s-.6 6.4 1.7 8.7l0 0zM471.2 217l-82.4-82.4-183.1 183.1c-3.1 3.1-8.2 3.1-11.3 0s-3.1-8.2 0-11.3L377.5 123.3 295.1 41c-6.9-6.9-8.9-17.2-5.2-26.2S302.4 0 312.1 0L488.2 0c13.3 0 24 10.7 24 24l0 176c0 9.7-5.8 18.5-14.8 22.2s-19.3 1.7-26.2-5.2zM.1 176.1C.1 131.9 36 96 80.2 96l103.9 0c4.4 0 8 3.6 8 8s-3.6 8-8 8L80.2 112c-35.4 0-64.1 28.7-64.1 64.1l0 255.7c0 35.4 28.7 64.1 64.1 64.1L336 496c35.4 0 64.1-28.7 64.1-64.1l0-103.9c0-4.4 3.6-8 8-8s8 3.6 8 8l0 103.9c0 44.3-35.9 80.1-80.1 80.1L80.2 512C36 512 .1 476.1 .1 431.9l0-255.7z"/></svg>