<svg xmlns="http://www.w3.org/2000/svg" viewBox="0 0 576 512"><!--! Font Awesome Pro 7.0.0 by @fontawesome - https://fontawesome.com License - https://fontawesome.com/license (Commercial License) Copyright 2025 Fonticons, Inc. --><path fill="currentColor" d="M112 128a112 112 0 1 1 224 0 112 112 0 1 1 -224 0zm240 0a128 128 0 1 0 -256 0 128 128 0 1 0 256 0zM16 480c0-88.4 71.6-160 160-160l81.4 0c2.5-5.5 5.3-10.8 8.3-16L176 304C78.8 304 0 382.8 0 480l0 24c0 4.4 3.6 8 8 8s8-3.6 8-8l0-24zM432 272a128 128 0 1 1 0 256 128 128 0 1 1 0-256zm0 272a144 144 0 1 0 0-288 144 144 0 1 0 0 288zm0-224c-4.4 0-8 3.6-8 8l0 72c0 4.4 3.6 8 8 8l56 0c4.4 0 8-3.6 8-8s-3.6-8-8-8l-48 0 0-64c0-4.4-3.6-8-8-8z"/></svg>