<svg xmlns="http://www.w3.org/2000/svg" viewBox="0 0 576 512"><!--! Font Awesome Pro 7.0.0 by @fontawesome - https://fontawesome.com License - https://fontawesome.com/license (Commercial License) Copyright 2025 Fonticons, Inc. --><path fill="currentColor" d="M112 128a112 112 0 1 1 224 0 112 112 0 1 1 -224 0zm240 0a128 128 0 1 0 -256 0 128 128 0 1 0 256 0zM16 480c0-88.4 71.6-160 160-160l64.2 0c.4-5.5 1.3-10.8 2.7-16L176 304C78.8 304 0 382.8 0 480l0 24c0 4.4 3.6 8 8 8s8-3.6 8-8l0-24zM314.9 312l109.1-36.4 0 250.8-.4-.2-18.5-8.7C343.4 488.5 304 426.4 304 358.2l0-31.1c0-6.9 4.4-13 10.9-15.2zM440.4 526.2l-.4 .2 0-250.8 109.1 36.4c6.5 2.2 10.9 8.3 10.9 15.2l0 31.1c0 68.2-39.4 130.2-101.1 159.2l-18.5 8.7zM421.9 259.5l-112 37.3c-13.1 4.4-21.9 16.6-21.9 30.4l0 31.1c0 74.4 43 142.1 110.2 173.7l18.5 8.7c4.8 2.2 10 3.4 15.2 3.4s10.5-1.2 15.2-3.4l18.5-8.7C533 500.3 576 432.6 576 358.2l0-31.1c0-13.8-8.8-26-21.9-30.4l-112-37.3c-6.6-2.2-13.7-2.2-20.2 0z"/></svg>