<svg xmlns="http://www.w3.org/2000/svg" viewBox="0 0 576 512"><!--! Font Awesome Pro 7.0.0 by @fontawesome - https://fontawesome.com License - https://fontawesome.com/license (Commercial License) Copyright 2025 Fonticons, Inc. --><path fill="currentColor" d="M174-40c-14.3 0-26 7.5-35.2 18-9.2 10.4-16.5 24.4-22.3 39.1-10.5 26.5-16.7 57.2-19.6 78.9L56 96c-4.4 0-8 3.6-8 8s3.6 8 8 8l40 0 0 32c0 70.7 57.3 128 128 128 7.4 0 14.6-.6 21.6-1.8 7-8.6 14.8-16.5 23.4-23.6-13.8 6-29 9.4-44.9 9.4-61.9 0-112-50.1-112-112l0-32 224 0 0 32c0 32.5-13.8 61.7-35.9 82.2 9.8-5 20.2-9 31-12 13.2-20.2 20.9-44.3 20.9-70.2l0-32 40 0c4.4 0 8-3.6 8-8s-3.6-8-8-8l-40.9 0c-2.9-21.8-9.1-52.4-19.6-78.9-5.8-14.7-13.1-28.7-22.3-39.1-9.2-10.4-20.9-18-35.2-18-10.6 0-20.8 3.5-29.3 6.7-7.5 2.8-15.7 4.9-20.7 4.9s-13.2-2.1-20.7-4.9C194.8-36.5 184.6-40 174-40zm50.2 344l-25.6 0c-12.5 0-22.6 10.1-22.6 22.6 0 6.6 2.9 12.8 7.8 17.1L208.4 365c.4-6.5 1.2-12.9 2.3-19.1l-16.4-14.2c-1.5-1.3-2.3-3.1-2.3-5 0-3.7 3-6.6 6.6-6.6l18.9 0c1.9-5.5 4.1-10.8 6.6-16zm-16.2 76.2l-24.4 44-64.8-103.8c-2.1-3.3-6.2-4.6-9.8-3.2-63.9 26.4-109 89.3-109 162.8l0 24c0 4.4 3.6 8 8 8s8-3.6 8-8l0-24c0-64.4 38-119.9 92.9-145.3L217.2 508.2c1.5 2.3 4 3.8 6.8 3.8s5.3-1.4 6.8-3.8l15.7-25.1c-3.6-4.4-7.1-9-10.3-13.8l-12.2 19.6-30.7-49.2 17.7-31.9c-1.7-9-2.7-18.2-3-27.6zM334.9 96L113.1 96c2.9-20.7 8.8-48.9 18.3-73.1 5.5-13.9 12-26 19.4-34.4 7.4-8.4 15.1-12.5 23.2-12.5 7.5 0 15.3 2.5 23.7 5.7 7.9 3 18.4 6 26.3 6s18.4-3 26.3-6c8.4-3.2 16.2-5.7 23.7-5.7 8.1 0 15.8 4.2 23.2 12.5 7.4 8.4 13.9 20.5 19.4 34.4 9.5 24.1 15.4 52.4 18.3 73.1zM376 272.1a104 104 0 1 1 0 208 104 104 0 1 1 0-208zm0 224c30.3 0 57.9-11.2 79.1-29.7l75.3 75.4c3.1 3.1 8.2 3.1 11.3 0s3.1-8.2 0-11.3l-75.3-75.4c18.5-21.1 29.6-48.7 29.6-79 0-66.3-53.7-120-120-120s-120 53.7-120 120 53.7 120 120 120z"/></svg>