<svg xmlns="http://www.w3.org/2000/svg" viewBox="0 0 448 512"><!--! Font Awesome Pro 7.0.0 by @fontawesome - https://fontawesome.com License - https://fontawesome.com/license (Commercial License) Copyright 2025 Fonticons, Inc. --><path fill="currentColor" d="M336 112l-224 0 0-67.1c0-6.4 3.8-12.1 9.6-14.7l96-42c4.1-1.8 8.7-1.8 12.8 0l96 42c5.8 2.5 9.6 8.3 9.6 14.7l0 67.1zM115.2 15.6C103.5 20.7 96 32.2 96 44.9L96 144c0 70.7 57.3 128 128 128s128-57.3 128-128l0-99.1c0-12.7-7.5-24.2-19.2-29.3l-96-42c-8.2-3.6-17.5-3.6-25.7 0l-96 42zM112 128l224 0 0 16c0 61.9-50.1 112-112 112S112 205.9 112 144l0-16zm38.3 182.1c-1.9-2.3-4.9-3.4-7.8-2.9-81.2 15.7-142.5 87.1-142.5 172.8l0 24c0 4.4 3.6 8 8 8s8-3.6 8-8l0-24c0-76.3 53.4-140.1 124.8-156.1L217.7 421c1.5 1.9 3.8 3 6.3 3s4.8-1.1 6.3-3l76.9-97.1C378.6 339.9 432 403.7 432 480l0 24c0 4.4 3.6 8 8 8s8-3.6 8-8l0-24c0-85.7-61.3-157.2-142.5-172.8-2.9-.6-5.9 .5-7.8 2.9l-73.7 93-73.7-93zM216 16l0 24-24 0c-4.4 0-8 3.6-8 8s3.6 8 8 8l24 0 0 24c0 4.4 3.6 8 8 8s8-3.6 8-8l0-24 24 0c4.4 0 8-3.6 8-8s-3.6-8-8-8l-24 0 0-24c0-4.4-3.6-8-8-8s-8 3.6-8 8z"/></svg>