<svg xmlns="http://www.w3.org/2000/svg" viewBox="0 0 448 512"><!--! Font Awesome Pro 7.0.0 by @fontawesome - https://fontawesome.com License - https://fontawesome.com/license (Commercial License) Copyright 2025 Fonticons, Inc. --><path fill="currentColor" d="M334.9 144l-221.7 0c-.7-5.2-1.1-10.6-1.1-16 0-11.1 1.6-21.9 4.6-32l214.7 0c3 10.1 4.6 20.9 4.6 32 0 5.4-.4 10.8-1.1 16zM224 16c44.7 0 83.2 26.2 101.2 64L122.8 80c18-37.8 56.5-64 101.2-64zM116.6 160l214.7 0c-13.8 46.3-56.6 80-107.4 80s-93.6-33.7-107.4-80zM224 256c70.7 0 128-57.3 128-128S294.7 0 224 0C164.2 0 113.9 41.1 99.9 96.6L61.7 58.3c-3.1-3.1-8.2-3.1-11.3 0s-3.1 8.2 0 11.3L92.7 112 50.3 154.3c-3.1 3.1-3.1 8.2 0 11.3s8.2 3.1 11.3 0L96 131.3C97.8 200.5 154.4 256 224 256zm-83.2 67.9c53.4 67.4 100.4 126.7 140.9 177.8 2.7 3.5 7.8 4 11.2 1.3s4-7.8 1.3-11.2l-60.1-75.8 73-92.1C378.6 339.9 432 403.7 432 480l0 24c0 4.4 3.6 8 8 8s8-3.6 8-8l0-24c0-85.7-61.3-157.2-142.5-172.8-2.9-.6-5.9 .6-7.8 2.9l-73.7 93-73.7-93c-1.2-1.5-2.8-2.5-4.6-2.9-.6-.1-1.2-.2-1.8-.2-.5 0-1 .1-1.5 .2-81.1 15.7-142.3 87.1-142.3 172.8l0 24c0 4.4 3.6 8 8 8s8-3.6 8-8l0-24c0-76.3 53.4-140.1 124.8-156.1z"/></svg>