<svg xmlns="http://www.w3.org/2000/svg" viewBox="0 0 448 512"><!--! Font Awesome Pro 7.0.0 by @fontawesome - https://fontawesome.com License - https://fontawesome.com/license (Commercial License) Copyright 2025 Fonticons, Inc. --><path fill="currentColor" d="M138.8-22c9.2-10.4 20.9-18 35.2-18 10.6 0 20.8 3.5 29.3 6.7 7.5 2.8 15.7 4.9 20.7 4.9s13.2-2.1 20.7-4.9c8.5-3.2 18.7-6.7 29.3-6.7 14.3 0 26 7.5 35.2 18 9.2 10.4 16.5 24.4 22.3 39.1 10.5 26.5 16.7 57.2 19.6 78.9L392 96c4.4 0 8 3.6 8 8s-3.6 8-8 8l-40 0 0 32c0 70.7-57.3 128-128 128S96 214.7 96 144l0-32-40 0c-4.4 0-8-3.6-8-8s3.6-8 8-8l40.9 0c2.9-21.8 9.1-52.4 19.6-78.9 5.8-14.7 13.1-28.7 22.3-39.1zm177.8 45c-5.5-13.9-12-26-19.4-34.4-7.4-8.4-15.1-12.5-23.2-12.5-7.5 0-15.3 2.5-23.7 5.7-7.9 3-18.4 6-26.3 6s-18.4-3-26.3-6c-8.4-3.2-16.2-5.7-23.7-5.7-8.1 0-15.8 4.2-23.2 12.5-7.4 8.4-13.9 20.5-19.4 34.4-9.5 24.1-15.4 52.4-18.3 73.1l221.9 0c-2.9-20.7-8.8-48.9-18.3-73.1zM112 112l0 32c0 61.9 50.1 112 112 112s112-50.1 112-112l0-32-224 0zm86.6 192l50.7 0c12.5 0 22.6 10.1 22.6 22.6 0 6.6-2.9 12.8-7.8 17.1l-30 26 30.2 54.4 64.8-103.8c2.1-3.3 6.2-4.6 9.8-3.2 63.9 26.4 109 89.3 109 162.8l0 24c0 4.4-3.6 8-8 8s-8-3.6-8-8l0-24c0-64.4-38-119.9-92.9-145.3L230.8 508.2c-1.5 2.3-4 3.8-6.8 3.8s-5.3-1.4-6.8-3.8L108.9 334.7C54 360.1 16 415.6 16 480l0 24c0 4.4-3.6 8-8 8s-8-3.6-8-8l0-24c0-73.5 45-136.4 109-162.8 3.6-1.5 7.8-.2 9.8 3.2l64.8 103.8 30.2-54.4-30-26c-5-4.3-7.8-10.5-7.8-17.1 0-12.5 10.1-22.6 22.6-22.6zM224 488.9l30.7-49.2-30.7-55.3-30.7 55.3 30.7 49.2zM192 326.6c0 1.9 .8 3.8 2.3 5l29.7 25.7 29.7-25.7c1.5-1.3 2.3-3.1 2.3-5 0-3.7-3-6.6-6.6-6.6l-50.7 0c-3.7 0-6.6 3-6.6 6.6z"/></svg>