<svg xmlns="http://www.w3.org/2000/svg" viewBox="0 0 448 512"><!--! Font Awesome Pro 7.0.0 by @fontawesome - https://fontawesome.com License - https://fontawesome.com/license (Commercial License) Copyright 2025 Fonticons, Inc. --><path fill="currentColor" d="M224 256c-61.9 0-112-50.1-112-112l0-16c0-5.4 .4-10.8 1.1-16l33.9 0c20.6 0 40.5-7.2 56.3-20.4L224 74.4 244.6 91.6C260.4 104.8 280.4 112 301 112l33.9 0c.7 5.2 1.1 10.6 1.1 16l0 16c0 61.9-50.1 112-112 112zM224 0C170.5 0 124.7 32.8 105.5 79.4 99 70.1 88.2 64 76 64 56.1 64 40 80.1 40 100l0 72c0 19.9 16.1 36 36 36 12.2 0 23-6.1 29.5-15.4 19.1 46.6 65 79.4 118.5 79.4s99.3-32.8 118.5-79.4c6.5 9.3 17.3 15.4 29.5 15.4 19.9 0 36-16.1 36-36l0-72c0-19.9-16.1-36-36-36-12.2 0-23 6.1-29.5 15.4-19.1-46.6-65-79.4-118.5-79.4zM96 128l0 44c0 11-9 20-20 20s-20-9-20-20l0-72c0-11 9-20 20-20s20 9 20 20l0 28zm256 16l0-44c0-11 9-20 20-20s20 9 20 20l0 72c0 11-9 20-20 20s-20-9-20-20l0-28zM224 16c50.7 0 93.6 33.7 107.4 80L301 96c-16.8 0-33.2-5.9-46.1-16.7L229.1 57.9c-3-2.5-7.3-2.5-10.2 0L193.1 79.3C180.2 90.1 163.9 96 147 96l-30.4 0C130.4 49.7 173.3 16 224 16zM16 496c0-88.4 71.6-160 160-160l96 0c88.4 0 160 71.6 160 160l0 8c0 4.4 3.6 8 8 8s8-3.6 8-8l0-8c0-97.2-78.8-176-176-176l-96 0C78.8 320 0 398.8 0 496l0 8c0 4.4 3.6 8 8 8s8-3.6 8-8l0-8z"/></svg>