<svg xmlns="http://www.w3.org/2000/svg" viewBox="0 0 448 512"><!--! Font Awesome Pro 7.0.0 by @fontawesome - https://fontawesome.com License - https://fontawesome.com/license (Commercial License) Copyright 2025 Fonticons, Inc. --><path fill="currentColor" d="M224 256c14.7 0 28.9-2.5 42.1-7.1l-8.2-14.1c-10.7 3.4-22.1 5.2-33.9 5.2s-23.2-1.8-33.9-5.2l-8.2 14.1c13.2 4.6 27.3 7.1 42.1 7.1zm-83.7-31.1l8.2-14.1c-16.8-15.3-28.9-35.7-33.9-58.7l-16.3 0c5.5 28.9 20.7 54.4 42.1 72.9zM333.4 104l16.3 0c-5.5-28.9-20.7-54.4-42.1-72.9l-8.2 14.1C316.3 60.6 328.4 81 333.4 104zM257.9 21.2l8.2-14.1C252.9 2.5 238.7 0 224 0s-28.9 2.5-42.1 7.1l8.2 14.1C200.8 17.8 212.2 16 224 16s23.2 1.8 33.9 5.2zM98.2 104l16.3 0c5-23 17.1-43.4 33.9-58.7l-8.2-14.1c-21.4 18.5-36.6 44-42.1 72.9zM307.7 224.9c21.4-18.5 36.6-44 42.1-72.9l-16.3 0c-5 23-17.1 43.4-33.9 58.7l8.2 14.1zM272 320c17.2 0 33.8 2.7 49.3 7.7l7.2-14.5c-17.7-6-36.8-9.3-56.5-9.3l-24 0 0 16 24 0zm-96-16c-19.8 0-38.8 3.3-56.5 9.3l7.2 14.5c15.5-5 32.1-7.7 49.3-7.7l24 0 0-16-24 0zM83.8 349.2l-7.2-14.5c-21.1 14.5-38.9 33.5-52 55.6l15.1 6C51 377.8 66 361.8 83.8 349.2zM0 480l0 24c0 4.4 3.6 8 8 8s8-3.6 8-8l0-24c0-13.6 1.7-26.8 4.9-39.4l-15-6C2.1 449.1 0 464.3 0 480zM364.2 349.2c17.7 12.5 32.8 28.6 44.2 47.1l15.1-6c-13.1-22.1-30.9-41.1-52-55.6l-7.2 14.5zm62.9 91.4c3.2 12.6 4.9 25.8 4.9 39.4l0 24c0 4.4 3.6 8 8 8s8-3.6 8-8l0-24c0-15.7-2.1-30.9-5.9-45.4l-15 6z"/></svg>