<svg xmlns="http://www.w3.org/2000/svg" viewBox="0 0 512 512"><!--! Font Awesome Pro 7.0.0 by @fontawesome - https://fontawesome.com License - https://fontawesome.com/license (Commercial License) Copyright 2025 Fonticons, Inc. --><path fill="currentColor" d="M256 0c4.4 0 8 3.6 8 8l0 88 144 0 0-56c0-4.4 3.6-8 8-8s8 3.6 8 8l0 56 23.9 0c.1 0 .2 0 .3 0l47.9 0 0-56c0-4.4 3.6-8 8-8s8 3.6 8 8l0 64c0 4.4-3.6 8-8 8l-53.7 0-186.3 116.4 0 59.6 144 0 0-40c0-4.4 3.6-8 8-8s8 3.6 8 8l0 40 72 0 0-40c0-4.4 3.6-8 8-8s8 3.6 8 8l0 48c0 4.4-3.6 8-8 8l-53.7 0-186.3 116.4 0 83.6c0 4.4-3.6 8-8 8s-8-3.6-8-8L248 420.4 61.7 304 8 304c-4.4 0-8-3.6-8-8l0-48c0-4.4 3.6-8 8-8s8 3.6 8 8l0 40 72 0 0-40c0-4.4 3.6-8 8-8s8 3.6 8 8l0 40 144 0 0-59.6-186.3-116.4-53.7 0c-4.4 0-8-3.6-8-8L0 40c0-4.4 3.6-8 8-8s8 3.6 8 8l0 56 47.9 0c.1 0 .2 0 .3 0L88 96 88 40c0-4.4 3.6-8 8-8s8 3.6 8 8l0 56 144 0 0-88c0-4.4 3.6-8 8-8zm-8 112L91.9 112 248 209.6 248 112zm16 97.6l156.1-97.6-156.1 0 0 97.6zM248 304L91.9 304 248 401.6 248 304zm16 97.6l156.1-97.6-156.1 0 0 97.6z"/></svg>