<svg xmlns="http://www.w3.org/2000/svg" viewBox="0 0 512 512"><!--! Font Awesome Pro 7.0.0 by @fontawesome - https://fontawesome.com License - https://fontawesome.com/license (Commercial License) Copyright 2025 Fonticons, Inc. --><path fill="currentColor" d="M64 48C37.5 48 16 69.5 16 96l0 320c0 26.5 21.5 48 48 48l384 0c26.5 0 48-21.5 48-48l0-320c0-26.5-21.5-48-48-48L64 48zM432 504l0-24-352 0 0 24c0 4.4-3.6 8-8 8s-8-3.6-8-8l0-24c-35.3 0-64-28.7-64-64L0 96C0 60.7 28.7 32 64 32l384 0c35.3 0 64 28.7 64 64l0 320c0 35.3-28.7 64-64 64l0 24c0 4.4-3.6 8-8 8s-8-3.6-8-8zM336 256a128 128 0 1 0 -256 0 128 128 0 1 0 256 0zM64 256a144 144 0 1 1 288 0 144 144 0 1 1 -288 0zm344-96c4.4 0 8 3.6 8 8l0 176c0 4.4-3.6 8-8 8s-8-3.6-8-8l0-176c0-4.4 3.6-8 8-8zM208 208a48 48 0 1 1 0 96 48 48 0 1 1 0-96zm32 48a32 32 0 1 0 -64 0 32 32 0 1 0 64 0z"/></svg>