<svg xmlns="http://www.w3.org/2000/svg" viewBox="0 0 512 512"><!--! Font Awesome Pro 7.0.0 by @fontawesome - https://fontawesome.com License - https://fontawesome.com/license (Commercial License) Copyright 2025 Fonticons, Inc. --><path fill="currentColor" d="M8 0C3.6 0 0 3.6 0 8s3.6 8 8 8l24 0 0 400c0 53 43 96 96 96s96-43 96-96l0-400 64 0 0 400c0 53 43 96 96 96s96-43 96-96l0-400 24 0c4.4 0 8-3.6 8-8s-3.6-8-8-8L8 0zM304 16l160 0 0 176-160 0 0-176zm-96 0l0 176-160 0 0-176 160 0zM48 416l0-208 160 0 0 208c0 44.2-35.8 80-80 80s-80-35.8-80-80zm256 0l0-208 160 0 0 208c0 44.2-35.8 80-80 80s-80-35.8-80-80z"/></svg>