<svg xmlns="http://www.w3.org/2000/svg" viewBox="0 0 576 512"><!--! Font Awesome Pro 7.0.0 by @fontawesome - https://fontawesome.com License - https://fontawesome.com/license (Commercial License) Copyright 2025 Fonticons, Inc. --><path fill="currentColor" d="M352 80c26.5 0 48 21.5 48 48l0 256c0 26.5-21.5 48-48 48L96 432c-26.5 0-48-21.5-48-48l0-256c0-26.5 21.5-48 48-48l256 0zM96 64c-35.3 0-64 28.7-64 64l0 256c0 35.3 28.7 64 64 64l256 0c35.3 0 64-28.7 64-64l0-256c0-35.3-28.7-64-64-64L96 64zM552 400c13.3 0 24-10.7 24-24l0-240c0-13.3-10.7-24-24-24-5.2 0-10.2 1.7-14.4 4.8l-73.6 55.2 0 20 83.2-62.4c1.4-1 3.1-1.6 4.8-1.6 4.4 0 8 3.6 8 8l0 240c0 4.4-3.6 8-8 8-1.7 0-3.4-.6-4.8-1.6l-83.2-62.4 0 20 73.6 55.2c4.2 3.1 9.2 4.8 14.4 4.8zM224 176c25 0 45.2 20.2 45.2 45.2 0 22.3-14.3 33.7-27.9 39.8-13 5.8-25.3 18.4-25.3 35 0 4.4 3.6 8 8 8s8-3.6 8-8c0-8.1 6.4-16.1 15.9-20.4 16.4-7.3 37.4-23.1 37.4-54.4 0-33.8-27.4-61.2-61.2-61.2s-61.2 27.4-61.2 61.2c0 4.4 3.6 8 8 8s8-3.6 8-8c0-25 20.2-45.2 45.2-45.2zm16 176a16 16 0 1 0 -32 0 16 16 0 1 0 32 0z"/></svg>