<svg xmlns="http://www.w3.org/2000/svg" viewBox="0 0 640 512"><!--! Font Awesome Pro 7.0.0 by @fontawesome - https://fontawesome.com License - https://fontawesome.com/license (Commercial License) Copyright 2025 Fonticons, Inc. --><path fill="currentColor" d="M349.7 2.3c3.1 3.1 3.1 8.2 0 11.3l-336 336c-3.1 3.1-8.2 3.1-11.3 0s-3.1-8.2 0-11.3l336-336c3.1-3.1 8.2-3.1 11.3 0zm288 0c3.1 3.1 3.1 8.2 0 11.3L448 203.3c19.9 22.6 32 52.2 32 84.7 0 20.8-5 40.4-13.8 57.8-3.4 6.7-11.4 9.1-18.8 7.7-5-1-10.2-1.5-15.4-1.5-44.2 0-80 35.8-80 80 0 11.6 2.5 22.7 7 32.7 3.3 7.4 2.4 16.6-4.3 21.3-23.4 16.4-51.9 26.1-82.6 26.1-17.6 0-34.5-3.2-50.1-8.9-4.5 5.6-11.3 8.9-18.7 8.9-6.3 0-12.4-2.5-16.9-7L135 453.6c-4.5-4.5-7-10.6-7-16.9 0-7.3 3.3-14.2 8.9-18.7-5.8-15.6-8.9-32.5-8.9-50.1 0-30.8 9.6-59.3 26.1-82.6 4.7-6.7 13.8-7.6 21.3-4.3 10 4.5 21 7 32.7 7 44.2 0 80-35.8 80-80 0-5.3-.5-10.4-1.5-15.4-1.4-7.4 1-15.4 7.7-18.8 17.4-8.8 37-13.8 57.8-13.8 32.5 0 62.1 12.1 84.7 32L626.3 2.3c3.1-3.1 8.2-3.1 11.3 0zM272 496c27.1 0 52.1-8.4 72.8-22.7 0-.2 0-.4 0-.6-.1-.5-.2-1-.4-1.5-5.4-12-8.3-25.3-8.3-39.2 0-53 43-96 96-96 6.3 0 12.5 .6 18.5 1.8 .5 .1 1 .1 1.4 .1 .2 0 .3 0 .4-.1 7.5-15 11.7-31.9 11.7-49.8 0-28-10.3-53.7-27.3-73.3l-71 71c-3.1 3.1-8.2 3.1-11.3 0s-3.1-8.2 0-11.3l71-71c-19.6-17-45.3-27.3-73.3-27.3-17.9 0-34.8 4.2-49.8 11.7 0 .1 0 .3-.1 .4 0 .4 0 .9 .1 1.4 1.2 6 1.8 12.2 1.8 18.5 0 53-43 96-96 96-13.9 0-27.2-3-39.2-8.3-.5-.2-1-.4-1.5-.4-.2 0-.5 0-.6 0-14.3 20.7-22.7 45.7-22.7 72.8 0 14.7 2.5 28.8 7 41.9l68.1-37.1c9.3-5.1 20.9-3.4 28.5 4.1l15.5 15.5c7.5 7.5 9.2 19.1 4.1 28.5L230.1 489c13.1 4.6 27.3 7 41.9 7zM236.2 388.2c-2.5-2.5-6.4-3.1-9.5-1.4l-78.6 42.9c-2.6 1.4-4.1 4.1-4.1 7 0 2.1 .8 4.1 2.3 5.6l51.4 51.4c1.5 1.5 3.5 2.3 5.6 2.3 2.9 0 5.6-1.6 7-4.1l42.9-78.6c1.7-3.1 1.1-7-1.4-9.5l-15.5-15.5zM528 0a16 16 0 1 1 0 32 16 16 0 1 1 0-32zM448 80a16 16 0 1 1 32 0 16 16 0 1 1 -32 0zm96 96a16 16 0 1 1 32 0 16 16 0 1 1 -32 0zm64-64a16 16 0 1 1 32 0 16 16 0 1 1 -32 0z"/></svg>