<svg xmlns="http://www.w3.org/2000/svg" viewBox="0 0 512 512"><!--! Font Awesome Pro 7.0.0 by @fontawesome - https://fontawesome.com License - https://fontawesome.com/license (Commercial License) Copyright 2025 Fonticons, Inc. --><path fill="currentColor" d="M496 256a240 240 0 1 0 -480 0 240 240 0 1 0 480 0zM0 256a256 256 0 1 1 512 0 256 256 0 1 1 -512 0zM264 72l0 80 80 0 0-48c0-4.4 3.6-8 8-8s8 3.6 8 8l0 48 48 0c4.4 0 8 3.6 8 8s-3.6 8-8 8l-48 0 0 80 80 0c4.4 0 8 3.6 8 8s-3.6 8-8 8l-80 0 0 80 48 0c4.4 0 8 3.6 8 8s-3.6 8-8 8l-48 0 0 48c0 4.4-3.6 8-8 8s-8-3.6-8-8l0-48-80 0 0 80c0 4.4-3.6 8-8 8s-8-3.6-8-8l0-80-80 0 0 48c0 4.4-3.6 8-8 8s-8-3.6-8-8l0-48-48 0c-4.4 0-8-3.6-8-8s3.6-8 8-8l48 0 0-80-80 0c-4.4 0-8-3.6-8-8s3.6-8 8-8l80 0 0-80-48 0c-4.4 0-8-3.6-8-8s3.6-8 8-8l48 0 0-48c0-4.4 3.6-8 8-8s8 3.6 8 8l0 48 80 0 0-80c0-4.4 3.6-8 8-8s8 3.6 8 8zm-96 96l0 80 80 0 0-80-80 0zm0 96l0 80 80 0 0-80-80 0zm96 0l0 80 80 0 0-80-80 0zm0-16l80 0 0-80-80 0 0 80z"/></svg>