<svg xmlns="http://www.w3.org/2000/svg" viewBox="0 0 576 512"><!--! Font Awesome Pro 7.0.0 by @fontawesome - https://fontawesome.com License - https://fontawesome.com/license (Commercial License) Copyright 2025 Fonticons, Inc. --><path fill="currentColor" d="M200.3 240l0 0-152.8 0-16.2-162.4C28 44.6 53.9 16 87 16l113.3 0 0 224zm16 0l0-224 144 0 0 224 0 0-144 0zm160 0l0-224 113.3 0c33.1 0 59 28.6 55.7 61.6L529.1 240 376.3 240zm168 8.4L561.2 79.2C565.5 36.8 532.2 0 489.6 0L376.3 0c0-4.4-3.6-8-8-8s-8 3.6-8 8l0 0-144 0c0-4.4-3.6-8-8-8s-8 3.6-8 8l0 0-113.3 0C44.4 0 11.1 36.8 15.4 79.2l16.9 169.2 0 151.6c0 61.9 50.1 112 112 112 59.2 0 107.6-45.9 111.7-104l64.6 0c4.1 58.1 52.6 104 111.7 104 61.9 0 112-50.1 112-112l0-151.6zm-16 93.9c-19.6-32.5-55.3-54.3-96-54.3-59.2 0-107.6 45.9-111.7 104L256 392c-4.1-58.1-52.6-104-111.7-104-40.7 0-76.4 21.8-96 54.3l0-86.3 480 0 0 86.3zM48.3 400c0-23.6 8.5-45.3 22.7-62l62 62-62 62c-14.2-16.7-22.7-38.4-22.7-62zm34-73.3c16.7-14.2 38.4-22.7 62-22.7s45.3 8.5 62 22.7l-62 62-62-62zm62 84.6l62 62c-16.7 14.2-38.4 22.7-62 22.7s-45.3-8.5-62-22.7l62-62zM217.6 462l-62-62 62-62c14.2 16.7 22.7 38.4 22.7 62s-8.5 45.3-22.7 62zm310.7-62c0 23.6-8.5 45.3-22.7 62l-62-62 62-62c14.1 16.7 22.7 38.3 22.7 61.9l0 .1zm-34 73.3c-16.7 14.2-38.4 22.7-62 22.7s-45.3-8.5-62-22.7l62-62 62 62zM421 400l-62 62c-14.2-16.7-22.7-38.4-22.7-62s8.5-45.3 22.7-62l62 62zm-50.7-73.3c16.7-14.2 38.4-22.7 62-22.7s45.3 8.5 62 22.7l-62 62-62-62z"/></svg>