<svg xmlns="http://www.w3.org/2000/svg" viewBox="0 0 448 512"><!--! Font Awesome Pro 7.1.0 by @fontawesome - https://fontawesome.com License - https://fontawesome.com/license (Commercial License) Copyright 2025 Fonticons, Inc. --><path fill="currentColor" d="M293-32c24.5 0 45 18.4 47.7 42.7l10.1 90.6C395.5 138 424 193.7 424 256s-28.5 118-73.2 154.7l-10.1 90.7C338 525.6 317.5 544 293 544L155 544c-24.5 0-45-18.4-47.7-42.7L97.2 410.7C52.5 374 24 318.3 24 256S52.5 138 97.2 101.3l10.1-90.6C110-13.6 130.5-32 155-32L293-32zM123.2 499.5C125 515.7 138.7 528 155 528L293 528c16.3 0 30-12.3 31.8-28.5l8.4-76.1c-31.4 20.5-68.9 32.5-109.3 32.5-40.4 0-77.9-12-109.3-32.6l8.5 76.1zM224 72a184 184 0 1 0 0 368 184 184 0 1 0 0-368zm0 88c4.4 0 8 3.6 8 8l0 84.7 53.7 53.7c3.1 3.1 3.1 8.2 0 11.3s-8.2 3.1-11.3 0l-56-56c-1.5-1.5-2.3-3.5-2.3-5.7l0-88c0-4.4 3.6-8 8-8zM155-16c-16.3 0-30 12.3-31.8 28.5l-8.5 76.1C146.1 68 183.6 56 224 56 264.3 56 301.8 68 333.3 88.5l-8.4-76C323-3.7 309.3-16 293-16L155-16z"/></svg>