<svg xmlns="http://www.w3.org/2000/svg" viewBox="0 0 384 512"><!--! Font Awesome Pro 7.0.0 by @fontawesome - https://fontawesome.com License - https://fontawesome.com/license (Commercial License) Copyright 2025 Fonticons, Inc. --><path fill="currentColor" d="M123-16C106.7-16 93-3.7 91.2 12.5l-5.7 51.5 213.1 0-5.7-51.5C291-3.7 277.3-16 261-16L123-16zM308.7 10.7l6 54C353.8 70 384 103.5 384 144l0 224c0 40.5-30.2 74-69.3 79.3l-6 54C306 525.6 285.5 544 261 544L123 544c-24.5 0-45-18.4-47.7-42.7l-6-54C30.2 442 0 408.5 0 368L0 144c0-40.5 30.2-74 69.3-79.3l6-54C78-13.6 98.5-32 123-32L261-32c24.5 0 45 18.4 47.7 42.7zM91.2 499.5C93 515.7 106.7 528 123 528L261 528c16.3 0 30-12.3 31.8-28.5l5.7-51.5-213.1 0 5.7 51.5zM304 80L80 80c-35.3 0-64 28.7-64 64l0 224c0 35.3 28.7 64 64 64l224 0c35.3 0 64-28.7 64-64l0-224c0-35.3-28.7-64-64-64zM208 256a16 16 0 1 0 -32 0 16 16 0 1 0 32 0zm-48 0a32 32 0 1 1 64 0 32 32 0 1 1 -64 0zm80 112a16 16 0 1 0 0-32 16 16 0 1 0 0 32zm0-48a32 32 0 1 1 0 64 32 32 0 1 1 0-64zm-80 32a16 16 0 1 0 -32 0 16 16 0 1 0 32 0zm-48 0a32 32 0 1 1 64 0 32 32 0 1 1 -64 0zM240 176a16 16 0 1 0 0-32 16 16 0 1 0 0 32zm0-48a32 32 0 1 1 0 64 32 32 0 1 1 0-64zm-80 32a16 16 0 1 0 -32 0 16 16 0 1 0 32 0zm-48 0a32 32 0 1 1 64 0 32 32 0 1 1 -64 0zM96 272a16 16 0 1 0 0-32 16 16 0 1 0 0 32zm0-48a32 32 0 1 1 0 64 32 32 0 1 1 0-64zm208 32a16 16 0 1 0 -32 0 16 16 0 1 0 32 0zm-48 0a32 32 0 1 1 64 0 32 32 0 1 1 -64 0z"/></svg>