<svg xmlns="http://www.w3.org/2000/svg" viewBox="0 0 640 512"><!--! Font Awesome Pro 7.0.0 by @fontawesome - https://fontawesome.com License - https://fontawesome.com/license (Commercial License) Copyright 2025 Fonticons, Inc. --><path fill="currentColor" d="M388.1 418.4c34.3-24.5 80.6-24.5 115 0 18.6 13.3 38 23.8 57.5 27.6 19.2 3.7 38.9 .9 58.7-13.3 3.6-2.6 8.6-1.7 11.2 1.9s1.8 8.6-1.8 11.2c-23.7 16.9-47.8 20.5-71.1 16-22.9-4.4-44.5-16.5-63.8-30.3-28.8-20.5-67.6-20.5-96.4 0-25.5 18.2-51 32.6-77.4 32.6s-51.9-14.4-77.4-32.6c-27-19.2-62.8-20.5-90.8-3.6l-5.5 3.6c-24.3 17.4-52.5 32.2-82.2 32-17.6-.1-35.3-5.4-52.7-17.8-3.6-2.6-4.4-7.6-1.8-11.2s7.6-4.4 11.2-1.9c14.7 10.5 29.3 14.7 43.4 14.8 24.6 .1 49.3-12.2 72.9-29 34.3-24.5 80.6-24.5 115 0 25.4 18.1 47.2 29.6 68.1 29.6s42.7-11.5 68.1-29.6zM496 32c44.2 0 80 35.8 80 80l0 40c0 4.4-3.6 8-8 8s-8-3.6-8-8l0-40c0-35.3-28.7-64-64-64s-64 28.7-64 64l0 224.7c-5.4 .5-10.7 1.3-16 2.4l0-83-240 0 0 83.4c-5.4 1.2-10.7 2.6-16 4.4l0-232c0-44.2 35.8-80 80-80s80 35.8 80 80l0 40c0 4.4-3.6 8-8 8s-8-3.6-8-8l0-40c0-35.3-28.7-64-64-64s-64 28.7-64 64l0 128.2 240 0 0-128.2c0-44.2 35.8-80 80-80z"/></svg>