<svg xmlns="http://www.w3.org/2000/svg" viewBox="0 0 512 512"><!--! Font Awesome Pro 7.0.0 by @fontawesome - https://fontawesome.com License - https://fontawesome.com/license (Commercial License) Copyright 2025 Fonticons, Inc. --><path fill="currentColor" d="M208 0c4.4 0 8 3.6 8 8l0 464c0 4.4-3.6 8-8 8s-8-3.6-8-8L200 8c0-4.4 3.6-8 8-8zM400 64c4.4 0 8 3.6 8 8l0 336c0 4.4-3.6 8-8 8s-8-3.6-8-8l0-336c0-4.4 3.6-8 8-8zM112 96c4.4 0 8 3.6 8 8l0 272c0 4.4-3.6 8-8 8s-8-3.6-8-8l0-272c0-4.4 3.6-8 8-8zm192 32c4.4 0 8 3.6 8 8l0 208c0 4.4-3.6 8-8 8s-8-3.6-8-8l0-208c0-4.4 3.6-8 8-8zM16 192c4.4 0 8 3.6 8 8l0 80c0 4.4-3.6 8-8 8s-8-3.6-8-8l0-80c0-4.4 3.6-8 8-8zm480 0c4.4 0 8 3.6 8 8l0 80c0 4.4-3.6 8-8 8s-8-3.6-8-8l0-80c0-4.4 3.6-8 8-8z"/></svg>