<svg xmlns="http://www.w3.org/2000/svg" viewBox="0 0 640 512"><!--! Font Awesome Pro 7.0.0 by @fontawesome - https://fontawesome.com License - https://fontawesome.com/license (Commercial License) Copyright 2025 Fonticons, Inc. --><path fill="currentColor" d="M496 576a144 144 0 1 1 0-288 144 144 0 1 1 0 288zm0-272a128 128 0 1 0 0 256 128 128 0 1 0 0-256zM111.4 233.3c3.1-2 7.3-1.7 10 1l48.8 48.8 5.8 6.4c22.9 27.6 27.4 65.6 12.9 97.5 34.5-15.7 76.1-9.1 104 18.8l11.7 11.7c-.4 4.8-.6 9.6-.6 14.5 0 2.6 .1 5.2 .2 7.7l-22.6-22.6c-27.3-27.3-70.8-30-101.3-6.3l-10.1 7.8 43.8 43.8c25.7 25.7 64.9 29.3 94.5 11 1.2 5.4 2.6 10.8 4.2 16.1-35.2 19.3-80.2 14.1-110-15.7l-44.6-44.6-88.5 88.5c-3.1 3.1-8.2 3.1-11.3 0-3.1-3.1-3.1-8.2 0-11.3l88.4-88.5-44.5-44.5c-36.2-36.2-36.2-94.9 0-131.1l7.8-7.9 1.3-1zM496 508a12 12 0 1 1 0-24 12 12 0 1 1 0 24zm0-164c4.4 0 8 3.6 8 8l0 96c0 4.4-3.6 8-8 8s-8-3.6-8-8l0-96c0-4.4 3.6-8 8-8zM113.6 253.5c-30 30-29.9 78.5 0 108.5l43.8 43.8 7.8-10c22.2-28.6 21.3-68.6-1.5-96l-4.8-5.3-43.1-43.1-2.2 2.2zM215.4 129.3c3.1-2 7.3-1.7 10 1l48.8 48.8 5.8 6.4c22.9 27.6 27.4 65.6 12.9 97.5 25.6-11.7 55.2-11 80.1 1.5-4.5 3.7-8.8 7.6-12.9 11.8-24.7-10-53.7-6.8-75.8 10.5l-10.1 7.8 43.8 43.8c.1 .1 .3 .3 .5 .4-2.2 5.3-4.2 10.7-5.9 16.3-2-1.7-4-3.5-5.9-5.4L206.3 269.3c-36.2-36.2-36.2-94.9 0-131.1l7.8-7.9 1.3-1zm2.2 20.2c-30 30-29.9 78.5 0 108.5l43.8 43.8 7.8-10c22.2-28.6 21.3-68.6-1.5-96l-4.8-5.3-43.1-43.1-2.2 2.2zM554 10.4c3.1-3.1 8.2-3.1 11.3 0 3.1 3.1 3.1 8.2 0 11.3L413.6 173.3c21.9-5.3 45.3-2.4 65.4 8.3l75.3-75.3c3.1-3.1 8.2-3.1 11.3 0 3.1 3.1 3.1 8.2 0 11.3l-73 72.9c2.8 2.2 5.6 4.6 8.2 7.2l48.8 48.8c.4 .4 .8 .9 1.1 1.4-9.2-2.7-18.7-4.8-28.4-6.1l-32.7-32.7c-27.3-27.3-70.8-30-101.3-6.3l-10.1 7.8 44.1 44.1c-5.2 2.2-10.4 4.6-15.4 7.3l-96.6-96.6c-36.2-36.2-36.2-94.9 0-131.1l7.8-7.9 1.3-1c3.1-2 7.3-1.7 10 1l48.8 48.8 5.8 6.4c.5 .6 .9 1.2 1.3 1.8l73-72.9c3.1-3.1 8.2-3.1 11.3 0 3.1 3.1 3.1 8.2 0 11.3L394.4 96.9c10.6 19.9 13.5 42.9 8.5 64.6L554 10.4zM321.6 45.5c-30 30-29.9 78.5 0 108.5l43.8 43.8 7.8-10c22.2-28.6 21.3-68.6-1.5-96l-4.8-5.3-43.1-43.1-2.2 2.2z"/></svg>