<svg xmlns="http://www.w3.org/2000/svg" viewBox="0 0 448 512"><!--! Font Awesome Pro 7.0.0 by @fontawesome - https://fontawesome.com License - https://fontawesome.com/license (Commercial License) Copyright 2025 Fonticons, Inc. --><path fill="currentColor" d="M369 304c4.8 0 9.3 2.2 12.4 5.9s4.3 8.6 3.3 13.3L360.3 444.9c-1.7 8.7 3.9 17.1 12.6 18.8s17.1-3.9 18.8-12.6l28.2-140.9c4-19.8-11.2-38.3-31.4-38.3l-53.9 0c-2.5-5.5-5.3-10.8-8.3-16l62.2 0c30.3 0 53 27.7 47.1 57.4L407.4 454.3c-3.5 17.3-20.3 28.6-37.7 25.1s-28.6-20.3-25.1-37.7l21.1-105.7 3.2-16-19.6 0c-.9-5.4-2-10.7-3.4-16l23 0zm-36.7-94L311 233.4c-3.3-4.2-6.8-8.3-10.5-12.3l19.9-21.9c12.4-13.6 10.8-34.8-3.5-46.4L233.5 85.1c-24.2-19.7-59-19-82.5 1.5L117.5 116c-6.7 5.8-7.3 15.9-1.5 22.6s15.9 7.3 22.6 1.5l33.5-29.3c11.7-10.3 29.2-10.6 41.3-.8l24.9 20.2c3.5 2.9 5.7 7.1 5.9 11.6s-1.5 8.9-4.7 12.1l-16.6 16.6c-5.7-2-11.5-3.7-17.5-5.1 7.6-7.6 15.2-15.2 22.8-22.8-8.3-6.8-16.6-13.5-24.9-20.2-6-4.9-14.8-4.8-20.6 .4l-33.5 29.3c-13.3 11.6-33.5 10.3-45.2-3s-10.3-33.5 3-45.2l33.5-29.3c29.3-25.7 72.9-26.5 103.1-1.9l83.5 67.8c21.4 17.4 23.8 49.2 5.2 69.5zM368 96a40 40 0 1 0 0-80 40 40 0 1 0 0 80zm0-96a56 56 0 1 1 0 112 56 56 0 1 1 0-112zM304 352a144 144 0 1 0 -288 0 144 144 0 1 0 288 0zM0 352a160 160 0 1 1 320 0 160 160 0 1 1 -320 0z"/></svg>