<svg xmlns="http://www.w3.org/2000/svg" viewBox="0 0 640 512"><!--! Font Awesome Pro 7.0.0 by @fontawesome - https://fontawesome.com License - https://fontawesome.com/license (Commercial License) Copyright 2025 Fonticons, Inc. --><path fill="currentColor" d="M600 64c22.1 0 40 17.9 40 40l0 78.4-.2 3.5c-1.5 17.2-13.9 31.7-31 35.6l0 0-193.1 43.7c.1 2.3 .3 4.5 .3 6.8 0 114.9-93.1 208-208 208S0 386.9 0 272 93.1 64 208 64l392 0zM208 80C102 80 16 166 16 272s86 192 192 192 192-86 192-192c0-4.2-.2-8.4-.5-12.7-.3-3.9 2.4-7.5 6.2-8.3l199.5-45.2 4-1.3c7.5-3.2 13-10 14.4-18l.3-4.1 0-78.4c0-13.3-10.7-24-24-24l-152 0 0 48c0 4.4-3.6 8-8 8s-8-3.6-8-8l0-48-224 0zm0 272a80 80 0 1 1 0-160 80 80 0 1 1 0 160zm0-144a64 64 0 1 0 0 128 64 64 0 1 0 0-128z"/></svg>