<svg xmlns="http://www.w3.org/2000/svg" viewBox="0 0 512 512"><!--! Font Awesome Pro 7.0.0 by @fontawesome - https://fontawesome.com License - https://fontawesome.com/license (Commercial License) Copyright 2025 Fonticons, Inc. --><path fill="currentColor" d="M64 80c-26.5 0-48 21.5-48 48l0 80 480 0 0-80c0-26.5-21.5-48-48-48L64 80zM16 224l0 160c0 26.5 21.5 48 48 48l384 0c26.5 0 48-21.5 48-48l0-160-480 0zM448 64c35.3 0 64 28.7 64 64l0 256c0 35.3-28.7 64-64 64L64 448c-35.3 0-64-28.7-64-64L0 128C0 92.7 28.7 64 64 64l384 0zm-16 80a16 16 0 1 1 -32 0 16 16 0 1 1 32 0zM320 128a16 16 0 1 1 0 32 16 16 0 1 1 0-32zm-80 16a16 16 0 1 1 -32 0 16 16 0 1 1 32 0z"/></svg>