<svg xmlns="http://www.w3.org/2000/svg" viewBox="0 0 320 512"><!--! Font Awesome Pro 7.0.0 by @fontawesome - https://fontawesome.com License - https://fontawesome.com/license (Commercial License) Copyright 2025 Fonticons, Inc. --><path fill="currentColor" d="M64 0c-3.5 0-6.6 2.3-7.7 5.7L6.7 168.9C2.3 183.4 0 198.5 0 213.8 0 298.2 67.8 366.8 152 368l0 160-88 0c-4.4 0-8 3.6-8 8s3.6 8 8 8l192 0c4.4 0 8-3.6 8-8s-3.6-8-8-8l-88 0 0-160c84.2-1.2 152-69.8 152-154.2 0-15.2-2.3-30.4-6.7-44.9L263.7 5.7c-1-3.4-4.1-5.7-7.7-5.7L64 0zM22 173.5L69.9 16 250.1 16 298 173.5c4 13 6 26.6 6 40.2 0 76.3-61.9 138.2-138.2 138.2l-11.5 0c-76.3 0-138.2-61.9-138.2-138.2 0-13.6 2-27.2 6-40.2z"/></svg>