<svg xmlns="http://www.w3.org/2000/svg" viewBox="0 0 512 512"><!--! Font Awesome Pro 7.0.0 by @fontawesome - https://fontawesome.com License - https://fontawesome.com/license (Commercial License) Copyright 2025 Fonticons, Inc. --><path fill="currentColor" d="M8 32c-4.4 0-8 3.6-8 8s3.6 8 8 8l24 0 0 416-24 0c-4.4 0-8 3.6-8 8s3.6 8 8 8l496 0c4.4 0 8-3.6 8-8s-3.6-8-8-8l-24 0 0-416 24 0c4.4 0 8-3.6 8-8s-3.6-8-8-8L8 32zM48 464l0-416 416 0 0 416-416 0zM264 120c0-4.4-3.6-8-8-8s-8 3.6-8 8l0 40-88 0c-4.4 0-8 3.6-8 8s3.6 8 8 8l88 0 0 72-104 0c-4.4 0-8 3.6-8 8s3.6 8 8 8l104 0 0 72-88 0c-4.4 0-8 3.6-8 8s3.6 8 8 8l88 0 0 40c0 4.4 3.6 8 8 8s8-3.6 8-8l0-40 88 0c4.4 0 8-3.6 8-8s-3.6-8-8-8l-88 0 0-72 104 0c4.4 0 8-3.6 8-8s-3.6-8-8-8l-104 0 0-72 88 0c4.4 0 8-3.6 8-8s-3.6-8-8-8l-88 0 0-40z"/></svg>